<?xml version="1.0" ?><svg height="95.517982mm" viewBox="0 0 154.58928 95.517982" width="154.58928mm" xmlns="http://www.w3.org/2000/svg">
    <path d="m 3707.1545,-235.509 33.8256,-35.97662 c 0,0 16.8732,22.1395 29.0158,63.29618 12.1425,41.15669 42.1834,142.061558 42.1834,142.061558 l -6.3078,79.333097 c 0,0 -38.5564,-2.909367 -51.2508,-6.4573467 C 3741.9262,3.199888 3627.3878,-21.524249 3627.3878,-21.524249 l -8.1481,-68.446121 c 0,0 -54.8778,-14.68865 -82.7109,-14.05003 -27.8331,0.63861 -94.538,2.62547 -123.2384,44.349865 -28.7005,41.724392 -57.375,105.156286 -57.375,105.156286 l -106.3122,-67.263728 c 0,0 -3.1539,-57.193578 -2.6019,-67.057017 0.5519,-9.863438 13.8771,-45.627166 29.962,-74.436866 16.0848,-28.8097 72.5395,-123.47015 189.8644,-133.40452 117.3249,-9.93436 240.3268,61.16738 240.3268,61.16738 z" fill="#FFFFFF" transform="translate(-3.2342335,-124.85981) matrix(0.26458333,0,0,0.26458333,-853.41478,208.06767)"/>
    <path d="m 3323.014,30.289691 c -13.7182,-9.11955 -35.4967,-21.4720196 -48.3966,-27.4491596 -27.608,-12.79339 -33.7179,-19.1024904 -32.7859,-33.8555904 0.3794,-6.00206 -0.8486,-22.44778 -2.7283,-36.54616 -2.2256,-16.68856 -1.7396,-26.67115 1.3923,-28.6066 2.6462,-1.63526 3.7305,-5.789291 2.4098,-9.230911 -3.1855,-8.30089 22.5151,-72.0206 40.177,-99.61114 7.7162,-12.05432 25.2954,-31.09363 39.0647,-42.30985 82.4768,-67.18555 171.3373,-83.38093 281.026,-51.22002 31.5223,9.24216 77.7125,33.78283 88.854,47.20739 4.9951,6.01947 7.821,4.51981 21.4187,-11.36615 8.6159,-10.06558 18.7839,-18.30056 22.5957,-18.30056 3.8126,0 13.6004,6.66872 21.7514,14.82003 11.7363,11.73635 18.6823,27.13666 33.3768,73.99841 30.6295,97.683221 34.2333,114.939061 28.6417,137.145381 -2.6892,10.67932 -4.8894,30.68413 -4.8894,44.45464 0,13.7705304 -7.0052,27.786675 -9.4953,29.325615 -5.1929,3.2097 -133.8337,-19.55339459 -163.9772,-28.3891246 -23.1653,-3.8090504 -20.8065,-11.1792294 -23.8378,-32.7432404 -7.6774,-54.60527 -3.9918,-51.4567 -64.5299,-55.13396 -51.0933,-3.103151 -86.5886,3.86987 -111.4807,21.90167 -21.8518,15.82926 -50.6647,58.85256 -64.4963,96.30582 -11.8125,31.9864 -18.6066,33.19234 -54.0907,9.60351 z m 59.523,-92.20063 c 2.5158,-21.00925 5.6657,-39.964201 6.9994,-42.121991 1.3337,-2.15814 0.6322,-3.92419 -1.5591,-3.92419 -2.191,0 -8.4594,7.963811 -13.9301,17.696741 -7.5723,13.47372 -4.3121,35.679518 -4.9534,62.944238 -0.6749,28.6978103 -7.0114,21.5651324 -8.3598,2.167902 -1.1307,-16.26369 -3.4689,-23.57382 -7.1266,-22.28317 -5.6131,1.98054 -5.8402,35.82349 -0.4495,66.97928 l 2.7575,15.93788 11.0236,-29.5991096 c 6.0628,-16.2797404 13.0819,-46.7883104 15.5977,-67.7975804 z m -46.5384,62.88706041 c 1.4664,-10.80057001 1.3519,-10.84018001 -5.547,-1.92009 -8.594,11.11101959 -9.2836,17.33916959 -1.6419,14.82243959 3.131,-1.03109 6.366,-6.8371096 7.1889,-12.90234959 z m 465.2621,-0.181 c 0,-2.50446001 -2.0492,-3.28725001 -4.5539,-1.73943 -2.5044,1.54782 -4.5535,4.86339999 -4.5535,7.36783999 0,2.50445 2.0491,3.28724 4.5535,1.73942 2.5047,-1.54782 4.5539,-4.86339 4.5539,-7.36782999 z M 3332.124,-29.405079 c 0.056,-3.13047 -0.8709,-5.69195 -2.0587,-5.69195 -2.7103,0 -16.0904,25.5895204 -15.9539,30.5113204 0.1639,5.87605 17.9013,-18.5645804 18.0126,-24.8193704 z m 457.7776,17.04887 c 12.1741,-13.45255 5.6569,-15.56833 -6.8727,-2.23123 -5.873,6.2517304 -8.5891,11.3664904 -6.0367,11.3664904 2.553,0 8.3621,-4.11101 12.9094,-9.1352604 z m -478.8538,-13.4143 c 7.4963,-11.32755 10.1394,-19.08985 7.1329,-20.94778 -2.627,-1.62398 -5.3036,-2.23464 -5.9482,-1.35759 -14.7133,20.02155 -21.0119,32.02978 -18.7332,35.7166 4.0984,6.6311604 4.4765,6.3422304 17.5485,-13.41123 z m 469.1218,-3.09529 c 11.6001,-11.59975 21.0911,-21.84566 21.0911,-22.76882 0,-0.92247 -4.0982,-1.67759 -9.1074,-1.67759 -5.0094,0 -9.1077,1.68031 -9.1077,3.73428 0,2.05362 -7.332,12.29954 -16.2928,22.76848 -21.9232,25.6120704 -12.863,24.2234004 13.4168,-2.05635 z m -48.1009,-6.23362 c 10.7835,-12.52154 17.0082,-22.76643 13.8333,-22.76643 -6.2787,0 -44.8237,36.05778 -44.8237,41.93176 0,9.6048704 13.295,1.38252 30.9904,-19.16533 z m 22.7064,3.24489 c 10.5396,-10.7391 19.1632,-20.98501 19.1632,-22.76848 0,-7.73499 -8.1294,-1.73019 -26.4368,19.52802 -23.9922,27.8600304 -19.0493,30.0622204 7.2736,3.24046 z m -464.5941,-4.11271 c 5.7387,-10.56764 8.5896,-20.74458 6.4191,-22.91535 -4.7783,-4.77835 -29.5708,31.42662 -25.7517,37.60594 4.7963,7.76162 8.7862,4.72952 19.3326,-14.69059 z m 403.3364,-27.63394 c -2.72,-4.40131 -41.9714,36.65376 -42.3263,44.27091 -0.1132,2.41019 9.9499,-5.61852 22.3605,-17.84259 12.4101,-12.22338 21.3949,-24.11649 19.9658,-26.42832 z m 11.3497,23.74526 c 25.7569,-29.46111 13.8888,-29.30093 -15.1731,0.20493 -17.5588,17.82721 -20.4868,22.72408 -13.4902,22.5639 4.9151,-0.11275 17.8136,-10.35898 28.6633,-22.76883 z m -427.5082,-28.97341 c -6.6923,-7.00923 -17.9935,6.5813 -17.9935,21.63836 v 14.11376 l 10.9699,-15.80945 c 6.2908,-9.06628 9.2866,-17.57313 7.0236,-19.94267 z m 386.8005,2.57274 c -11.6171,-1.77321 -27.3767,15.33782 -23.4794,25.49322 1.7526,4.56729 6.6761,2.16019 18.0546,-8.82651 14.9911,-14.47543 15.2176,-15.17181 5.4248,-16.66671 z m -266.6459,9.52907 c 3.4778,-6.88732 7.7192,-26.68072 9.4255,-43.985061 2.5435,-25.79717 2.0189,-30.56323 -2.9128,-26.47032 -3.3081,2.74556 -6.4188,9.73122 -6.9127,15.52427 -0.4942,5.79271 -2.6618,23.339521 -4.8173,38.993241 -2.1553,15.65337 -3.2858,28.46076 -2.5125,28.46076 0.7734,0 4.2519,-5.63524 7.7298,-12.52289 z m -59.3567,-22.82826 c 4.18,-20.898601 38.9338,-68.485081 61.2112,-83.811951 26.736,-18.39552 67.9888,-31.12641 100.6129,-31.0506 59.3727,0.13663 144.7052,26.21214 168.43,51.46594 14.5918,11.8345 6.4536,17.24389 -1.7798,31.97477 -15.4181,24.132626 -11.335,21.237336 14.7046,21.317591 14.6151,0.0444 44.9276,2.01128 67.3601,4.37056 22.4331,2.35931 41.6128,3.46449 42.6213,2.45596 1.0092,-1.00889 -4.418,-22.954971 -12.0592,-48.769901 -7.6417,-25.81459 -18.6444,-64.18999 -24.4515,-85.27813 -5.8066,-21.0885 -12.6261,-39.03149 -15.1538,-39.87439 -2.5278,-0.84256 -8.4422,5.61067 -13.143,14.3395 -12.74,23.65646 -21.4069,24.04581 -57.5346,2.58265 -52.7428,-31.3344 -106.2321,-45.71831 -170.0095,-45.71831 -43.637,0 -74.6305,8.04886 -117.7338,30.57384 -46.3932,24.24457 -74.8065,54.49974 -103.1012,109.78329 -23.4877,45.892151 -23.8173,47.068391 -13.9147,49.658211 5.5786,1.45868 22.6504,9.30978 37.9376,17.44641 15.2872,8.13662 29.0673,14.0089 30.622,13.05057 1.555,-0.95867 3.9767,-7.49045 5.3814,-14.51505 z m -78.7914,3.47508 c 0,-2.5048 -2.1701,-4.55398 -4.8223,-4.55398 -2.6524,0 -3.5562,2.04918 -2.0083,4.55398 1.5478,2.50443 3.7179,4.55363 4.8224,4.55363 1.1044,0 2.0082,-2.0492 2.0082,-4.55363 z m 172.7496,-42.475481 c 3.1117,-14.59564 4.4016,-27.79343 2.8668,-29.32859 -6.6667,-6.666 -15.5994,12.59974 -18.5124,39.92765 -2.7568,25.862061 -2.3255,28.737071 3.4164,22.768821 3.6145,-3.75684 9.1175,-18.772231 12.2292,-33.367881 z m 193.7684,2.48635 c 17.1046,-27.01781 17.6782,-28.317 12.5028,-28.317 -3.6845,0 -29.7826,36.34763 -29.7826,41.73015 0,7.111678 5.6326,4.983721 17.2798,-13.41315 z m -176.3442,11.52801 c 4.9802,-6.18205 15.21,-50.00486 12.3425,-52.87234 -5.4074,-5.4078 -15.8129,5.33812 -15.8129,16.3296 0,6.98259 -1.9063,19.34189 -4.2359,27.46554 -4.3078,15.020521 -0.6,19.388011 7.7063,9.0772 z m 163.8797,-26.31288 c 12.8047,-15.70938 12.8,-18.08609 -0.045,-18.08609 -8.0472,0 -11.8715,4.4218 -17.5991,20.34907 -7.4085,20.60249 -5.5598,32.461121 2.8244,18.1165 2.5107,-4.29509 9.1756,-13.46588 14.8109,-20.37948 z m -130.8434,-0.15369 c 2.7397,-10.17488 6.1117,-21.44538 7.4931,-25.04546 1.6525,-4.30567 -0.5111,-6.54611 -6.3213,-6.54611 -7.121,0 -9.7131,4.85519 -13.3729,25.04546 -3.5834,19.77051 -3.3013,25.04581 1.34,25.04581 3.2337,0 8.1214,-8.32482 10.8611,-18.4997 z m 101.6716,-0.59735 c 5.7623,-14.66804 6.2168,-19.89073 1.9614,-22.5212 -3.0475,-1.88319 -5.8467,-3.02321 -6.2206,-2.53312 -0.3733,0.49009 -4.9284,10.62432 -10.1217,22.52087 -8.8689,20.31697 -8.946,21.6305 -1.2813,21.6305 5.3558,0 10.7397,-6.56526 15.6622,-19.09705 z m -76.0668,-8.46038 c 3.331,-11.14141 6.0875,-20.76916 6.1254,-21.39552 0.037,-0.62603 -2.7483,-1.13832 -6.1923,-1.13832 -3.4436,0 -7.4929,5.63525 -8.9976,12.52289 -1.5051,6.88733 -4.1212,17.40748 -5.8135,23.37845 -2.2268,7.85554 -1.4331,10.3074 2.8722,8.87229 3.2723,-1.09085 8.675,-11.09873 12.0058,-22.23979 z m 20.9942,3.58506 c 9.6743,-23.53146 9.8081,-26.1189 1.3525,-26.1189 -5.9649,0 -16.0601,24.94368 -16.1267,39.84534 -0.052,11.65303 7.055,5.04987 14.7742,-13.72644 z m 29.1983,-0.77289 c 4.962,-14.34565 5.0522,-18.64074 0.4508,-21.56048 -9.0455,-5.74217 -10.0182,-4.87024 -16.0192,14.35794 -7.4603,23.90338 -7.1503,28.35284 1.8535,26.58917 4.1335,-0.80942 10.3043,-9.53349 13.7131,-19.38663 z" fill="#fdcb6e" transform="translate(-3.2342335,-124.85981) matrix(0.26458333,0,0,0.26458333,-853.41478,208.06767)"/>
</svg>