<?xml version="1.0" ?><svg height="89.072571mm" viewBox="0 0 190.85985 89.072571" width="190.85985mm" xmlns="http://www.w3.org/2000/svg">
    <path color="#000" d="m 8698.7306,2573.9477 c 324.5407,-25.4679 468.9694,-2.9788 686.9715,-0.08 l 3.5324,-156.8871 -218.1282,-6.5967 -5.9168,-140.9918 -265.5512,-9.5372 2.3844,125.7323 -210.8867,16.0543 z" fill="#FFFFFF" overflow="visible" paint-order="fill markers stroke" transform="translate(-20.049832,116.87702) matrix(0.26458333,0,0,0.26458333,-2277.4621,-712.19123)"/>
    <path d="m 9378.2151,2583.3734 c -4.4666,-0.3644 -10.9959,-0.9253 -14.5091,-1.2464 -13.4525,-1.2297 -18.6149,-1.527 -38.3284,-2.2069 -218.8603,-12.4022 -412.6668,-11.2364 -609.4708,1.7126 -34.6445,2.2419 -30.6297,-2.0455 -28.9764,-60.9868 0.118,-4.2076 1.331,-22.1288 1.9177,-36.0053 3.0787,-72.8002 -18.1909,-101.3134 7.5971,-95.7285 17.4506,1.4228 38.308,-2.1944 49.9429,-3.0103 39.593,-2.1776 80.5575,-5.0934 123.1151,-5.7801 27.5966,-0.4136 27.591,-0.4112 26.7565,-11.0467 -0.2756,-3.5134 -0.8479,-12.66 -1.2717,-20.3257 -1.453,-33.9319 -3.5514,-44.8358 -4.558,-70.2685 -2.0136,-9.4553 -1.6622,-19.1837 0.7354,-27.2759 0.7694,-0.7694 -0.7036,-0.773 45.607,-0.6287 79.3531,-2.099 140.4589,2.1434 214.3858,3.9714 4.1521,0.1049 8.2325,0.6167 9.0672,1.1374 10.4406,1.4619 9.5688,3.2783 11.9809,11.4048 0.6486,2.1127 1.3564,6.7158 1.5728,10.2293 0.2164,3.5135 0.6674,7.9561 1.0023,9.8725 1.461,8.3599 1.9776,24.9887 2.1192,68.2088 0.151,46.1012 0.1532,46.1409 2.5937,46.0545 1.3434,-0.048 12.6344,-0.075 25.0911,-0.058 12.4568,0.016 23.6938,0.011 24.9715,-0.01 12.2656,-0.2042 126.179,1.5081 134.9143,2.028 19.4361,1.1566 27.1193,2.4179 29.0103,4.7619 3.568,4.423 7.208,14.1823 8.4004,22.5227 3.8287,26.7776 3.8606,29.2693 0.7664,59.7482 -1.6214,15.9701 -3.5338,32.9565 -4.2498,37.7475 -4.1477,13.7286 8.8683,60.4116 -5.6564,58.4005 -4.762,-0.971 -9.97,-2.8266 -14.527,-3.2215 z m -628.7559,-19.8674 c 212.4808,-9.0514 392.6466,-6.4677 560.2386,-1.0473 8.3045,0.2505 23.9842,0.8487 34.844,1.3295 10.8596,0.481 22.6193,0.9011 26.1329,0.9339 l 6.388,0.059 0.073,-17.4219 c 0.041,-9.5822 0.68,-20.0353 1.4216,-23.2293 0.7417,-3.194 1.5961,-8.1593 1.8989,-11.0338 0.3026,-2.8747 1.0792,-9.1467 1.7258,-13.9376 3.4445,-25.5204 3.7513,-28.8872 3.9682,-43.555 0.1787,-12.0876 -0.8591,-22.348 -2.8044,-27.7276 -1.3326,-3.6854 -1.5216,-3.7705 -8.469,-3.8093 -63.9883,0.3068 -131.1208,-0.4005 -200.7025,-2.327 -7.8751,3.4832 -19.2968,-3.2933 -17.813,-10.7495 3.2031,-14.599 3.1277,-116.1346 -0.1,-133.335 -0.7012,-3.7366 -0.849,-3.8203 -6.7434,-3.8203 -82.0691,-1.8878 -159.2716,-3.9137 -244.543,-4.2788 l 0.5173,2.4296 c 2.8855,13.5504 3.5595,27.4883 4.5188,36.1121 0.6396,5.7491 1.9753,16.725 2.9683,24.3907 0.993,7.6657 0.55,20.4707 1.1448,28.4557 10.0583,51.1634 -38.3065,36.9491 -79.4658,38.7977 -35.0114,4.3368 -64.5133,0.4048 -98.1436,5.482 -4.1523,0.662 -13.526,1.4149 -20.8304,1.6732 -7.3044,0.2584 -13.8146,1.0035 -14.4669,1.6559 -0.7979,0.7978 -0.8101,2.8001 -0.037,6.1157 0.6319,2.7111 1.1314,10.2855 1.1101,16.8318 0.1081,8.9588 1.4092,18.1685 1.3998,25.5547 -0.6089,31.1031 1.0708,58.4842 -0.2958,94.095 -0.5365,2.7679 -2.4324,6.6054 0.033,11.1923 3.1378,7.5308 8.7978,3.9531 16.8258,3.5347 9.8406,-0.4613 20.8662,-1.9147 29.2043,-2.3713 z m 276.1061,-162.0929 c -0.8072,-4.9926 -1.4614,-54.6174 -0.809,-61.3746 0.093,-0.9583 0.086,-3.2436 -0.016,-5.0785 -0.244,-4.4498 -1.9915,-2.9342 -7.1111,6.1678 -3.0144,5.359 -4.5855,7.0409 -6.5777,7.0409 -4.1143,-0.9601 -9.8817,-3.5336 -11.5062,-6.3127 -2.0989,-3.8974 -2.0964,-4.0891 0.1069,-8.284 5.1302,-10.053 17.9533,-21.9042 21.5001,-31.5916 0.7692,-2.2064 2.8133,-4.1278 6.0576,-5.6932 8.6433,-3.5621 10.6398,0.073 14.0594,4.1192 1.6964,1.8744 1.9536,4.7683 1.8312,20.6159 0.041,18.2075 0.1731,36.8951 0.1368,52.7491 -0.041,12.1636 0.4656,23.2849 1.1637,25.5522 2.6314,21.4275 -19.7912,21.5155 -18.8374,2.0895 z m 43.5104,-73.0237 c -2.6647,-1.2498 -6.4539,-4.2244 -8.4206,-6.6102 -2.9687,-3.6016 -3.5756,-5.3531 -3.5756,-10.319 -0.2944,-8.4465 8.92,-18.9943 16.5498,-13.2337 2.1175,1.7147 2.7418,1.7801 4.0923,0.4294 4.8997,-4.8996 20.0091,6.613 20.0091,15.2459 -1.8976,8.6452 -10.9625,16.6491 -19.4082,16.8025 -2.421,-0.024 -6.5821,-1.065 -9.2468,-2.3149 z m 8.9073,-16.2192 c 1.2143,-2.9315 1.1411,-3.9346 -0.4665,-6.3882 -1.0489,-1.6007 -2.3926,-2.9104 -2.9858,-2.9104 -0.8558,0 -0.9596,7.141 -0.1731,11.9051 0.3344,2.0247 2.2892,0.6193 3.6254,-2.6065 z" fill="#00B894" transform="translate(-20.049832,116.87702) matrix(0.26458333,0,0,0.26458333,-2277.4621,-712.19123)"/>
</svg>