<?xml version="1.0" ?><svg height="50mm" viewBox="0 0 71.586113 126.69669" width="50mm" xmlns="http://www.w3.org/2000/svg">
    <path color="#000" d="m 36819.604,8987.9863 c -18.355,0.1852 -37.105,4.2191 -54.875,12.9336 -63.185,30.9851 -56.092,101.7754 -56.092,101.7754 l 54.638,31.9219 40.627,-4.0762 c 0,0 -44.977,40.1582 -60.58,82.168 -15.603,42.0097 -3.352,92.8387 10.832,107.4609 14.184,14.6221 38.314,24.3928 46.422,15.0879 8.109,-9.3048 3.611,-20.0772 -1.805,-54.4277 -5.416,-34.3505 25.533,-82.5116 58.415,-97.8301 32.882,-15.3185 98.644,-85.0637 72.468,-134.9648 -18.814,-35.8665 -63.144,-60.5222 -110.05,-60.0489 z m -46.227,373.3867 c -6.517,-0.023 -12.399,2.722 -18.18,6.5332 -15.416,10.1633 -17.926,44.6064 3.854,62.0293 21.779,17.4228 26.715,24.6605 51.804,13.6329 25.089,-11.0276 10.756,-36.8636 2.868,-51.1407 -16.862,-23.2909 -29.485,-31.0168 -40.346,-31.0547 z" fill="#FFFFFF" overflow="visible" paint-order="fill markers stroke" transform="translate(39.786604,-16.52194) matrix(0.26458333,0,0,0.26458333,-8873.0378,-1713.3404) translate(-3313.5291,-2437.8203)"/>
    <path d="m 33472.237,7016.7747 c -15.746,-2.143 -31.328,-10.8275 -40.674,-22.6677 -8.473,-10.7351 -10.545,-14.2148 -12.273,-31.4977 -2.567,-25.6735 15.432,-42.0488 37.545,-46.6601 16.192,-3.3761 24.658,4.0206 38.474,9.0273 39.57,17.8291 35.791,54.5795 20.354,76.9854 -11.444,11.9569 -35.664,15.7725 -43.426,14.8128 z m 18.039,-22.8146 c 3.608,-4.8714 -0.889,-10.2613 -4.522,-5.5714 -2.338,3.0187 -16.991,8.1137 -22.364,7.7768 -5.539,-0.3472 -3.992,1.5426 3.469,4.24 21.096,4.9599 18.353,2.1495 23.417,-6.4454 z m -21.994,-17.4934 c 9.635,-6.1569 12.608,-15.1655 10.324,-31.2909 -4.277,-12.6017 -14.091,-18.2611 -24.382,-14.3913 -12.537,4.8141 -18.252,12.7618 -17.348,24.1255 0.824,21.1925 15.267,31.7843 31.406,21.5567 z m -13.694,-76.6521 c -5.286,-7.5085 -25.059,-11.7817 -29.666,-18.3246 -14.109,-46.2493 -15.678,-96.1178 5.579,-134.1741 11.386,-20.1323 19.327,-31.7425 25.872,-37.8275 6.866,-6.3858 7.339,-8.6374 1.547,-7.3666 -7.127,1.5636 -16.473,0.3488 -20.184,-2.6236 -21.655,-10.9506 -49.633,-16.9054 -51.273,-27.2695 l -0.909,-15.5319 c -0.83,-29.3914 12.253,-59.2748 35.076,-79.3194 42.771,-37.5632 77.044,-47.1304 125.686,-33.2927 55.222,23.7463 100.619,52.7522 108.289,108.5694 12.777,93.0034 -60.862,91.1069 -92.725,116.0518 -28.342,22.1895 -54.112,49.02 -44.012,113.5862 1.291,5.882 2.44,10.3063 0.04,12.8688 -13.8,5.099 -26.745,9.2316 -38.969,11.5807 -8.359,2.3698 -18.41,-2.6759 -24.356,-6.927 z m 14.493,-18.0244 c -1.714,0.3539 -7.6,0.2543 -8.03,0.1529 -7.351,-1.7367 -4.426,1.348 1.364,6.6883 4.089,3.7709 5.171,4.0513 9.846,2.5488 12.165,0.6208 1.032,-9.8614 -3.18,-9.39 z m -5.362,-24.5251 c -6.417,-39.4727 3.427,-73.9524 20.294,-97.5234 15.097,-21.0968 44.511,-41.7504 67.275,-46.7852 47.584,-10.5239 62.464,-48.7491 48.239,-92.1277 -10.216,-25.12 -34.132,-47.1193 -59.797,-56.6832 -23.444,-8.2517 -51.665,-8.9537 -73.298,-1.8233 -36.149,13.8876 -65.959,58.5314 -63.661,92.0756 1.296,7.5391 26.474,1.4777 32.998,0.9712 10.705,-2.6409 22.319,4.3935 23.119,-6.8155 0.839,-11.765 10.466,-24.7943 22.96,-31.0695 15.819,-6.2331 36.697,3.1769 43.219,17.7694 9.09,31.3049 -15.374,57.4117 -31.599,68.2593 -39.705,32.0926 -77.757,83.5711 -51.802,160.4318 7.497,0.4529 24.498,0.027 22.053,-6.6795 z m 25.853,-175.6717 c -4.909,-2.4155 -18.825,-10.0137 -20.949,-9.8991 -5.119,-1.9879 -9.815,-0.4228 -14.659,-1.0119 -7.568,-0.9662 -36.269,1.0523 -35.71,2.2656 2.844,6.1669 13.039,6.948 20.989,10.0393 9.995,3.886 10.669,4.4185 23.674,2.8418 5.476,-1.6891 24.384,1.816 26.655,-4.2357 z" fill="#636e72" transform="translate(39.786604,-16.52194) matrix(0.26458333,0,0,0.26458333,-8873.0378,-1713.3404)"/>
</svg>