<?xml version="1.0" ?><svg height="159.63843mm" viewBox="0 0 384.13644 159.63843" width="384.13644mm" xmlns="http://www.w3.org/2000/svg">
    <path color="#000" d="m 10253.189,-742.9707 c -9.701,0.5069 -14.77,-2.53488 -20.716,20.39062 -2.191,10.0263 3.317,20.38892 8.386,24.66992 5.07,4.2808 17.712,5.57891 25.411,-9.40429 7.697,-14.9833 -3.38,-36.16325 -13.081,-35.65625 z m -162.419,22.90625 c -10.897,0.011 -25.183,7.95377 -36.739,28.01367 0,0 -26.351,58.18559 -44.689,83.87109 -18.3388,25.6855 -6.446,71.31308 46.191,73.17188 52.638,1.8589 73.793,-68.49539 72.291,-117.27539 -1.502,-48.78 -21.406,-64.8342 -32.609,-67.3125 -1.401,-0.3098 -2.889,-0.47045 -4.445,-0.46875 z m 122.236,42.6914 c -19.226,-0.3583 -32.899,13.97022 -41.934,39.50782 -4.247,89.6184 -48.83,125.66765 -77.871,135.46875 -29.041,9.801 -76.039,25.45145 -92.437,43.81445 -16.3986,18.3629 -26.5383,48.04578 -5.2581,74.23828 21.2801,26.1926 60.6491,6.92838 72.5411,-11.60352 11.892,-18.5319 38.178,-4.16714 32.232,37.91016 -5.946,42.0769 -70.349,37.40232 -44.562,81.73242 25.786,44.3302 49.131,34.02068 124.238,21.23438 75.107,-12.7865 82.118,-85.843 83.996,-113.5 1.878,-27.657 -25.783,-91.46639 -33.982,-117.77149 -8.199,-26.3052 16.899,-31.93874 35.863,-15.99804 18.965,15.9408 34.423,4.95917 45.627,-23.48633 11.203,-28.4457 -6.382,-50.86538 -27.162,-64.60938 -20.78,-13.744 -23.66,-25.62997 -26.977,-46.92187 -3.316,-21.292 -22.221,-38.58365 -42.437,-39.93555 -0.632,-0.042 -1.257,-0.0691 -1.877,-0.0801 z M 11140.08,-663.5 c -54.938,-0.4455 -98.082,21.66294 -176.908,61.24414 -86.981,43.6758 -149.379,28.55773 -157.815,22.24024 -8.435,-6.3174 -15.254,8.91152 -32.918,35.48632 -17.663,26.5748 -10.884,51.94532 -10.884,51.94532 0.03,2.0373 58.123,41.93177 113.209,23.76367 54.264,-17.8971 128.196,-47.44958 170.392,-74.42578 42.197,-26.9763 114.101,-30.82884 167.092,-15.49414 52.991,15.3347 93.76,105.33593 93.76,105.33593 0,0 25.245,7.94734 46.388,2.64844 21.143,-5.2989 32.831,-23.68359 32.831,-23.68359 0,0 -19.001,-43.91698 -53.793,-99.23438 -50.236,-56.7148 -124.118,-89.17207 -191.354,-89.82617 z m -533.56,50.50195 c -26.459,-0.2066 -54.721,1.50711 -71.487,4.53711 -33.532,6.0601 -15.846,4.95847 0.682,51.48047 16.528,46.522 -5.783,79.08751 -22.039,103.87891 -16.256,24.7913 -57.949,52.21433 -58.697,119.54883 -0.749,67.3346 65.024,84.41309 106.787,90.96289 0,0 46.251,2.45019 97.808,-4.09961 51.557,-6.5498 54.55,-23.99549 72.166,-62.80469 17.617,-38.8092 -2.516,-81.59709 -39.178,-125.24219 -36.661,-43.645 -28.363,-110.85845 -18.705,-135.34375 9.659,-24.4853 12.447,-26.62714 -6.666,-35.93164 -9.556,-4.6522 -34.213,-6.77973 -60.671,-6.98633 z m -274.518,140.38867 c -22.896,-0.097 -31.321,27.60225 -26.578,42.65235 23.175,69.9561 55.624,52.27618 67.203,44.33398 11.579,-7.9423 21.844,-55.37217 -17.963,-79.48047 -8.708,-5.2737 -16.252,-7.47866 -22.662,-7.50586 z m 678.168,37.93946 -164.059,59.49219 -6.511,149.41406 150.498,59.33203 171.017,-63.66797 2.854,-156.79883 z m 326.264,26.60351 c 0,0 -3.995,8.55354 -13.018,28.05664 -9.023,19.5031 -5.03,35.54369 8.912,41.86719 12.167,-1.7307 11.168,-23.89484 13.498,-37.77344 2.33,-13.8785 -9.392,-32.15039 -9.392,-32.15039 z m 47.041,60.53907 c -0.555,9.918 3.698,42.03458 15.273,39.80468 11.575,-2.2299 9.725,-11.08303 3.068,-19.76953 -6.656,-8.6866 -18.341,-20.03515 -18.341,-20.03515 z m -1084.856,6.82422 c -13.09,-0.2556 -21.21,8.13513 -19.074,25.92773 8.485,18.8738 21.029,11.71528 32.045,5.80078 11.015,-5.9144 9.388,-27.9938 -7.072,-31.0918 -2.058,-0.3873 -4.029,-0.60012 -5.899,-0.63671 z m -289.787,48.35546 a 13.800886,12.251329 0 0 0 -13.7988,12.25196 13.800886,12.251329 0 0 0 13.7988,12.25 13.800886,12.251329 0 0 0 13.803,-12.25 13.800886,12.251329 0 0 0 -13.803,-12.25196 z m 257.674,21.80274 c -8.418,-0.041 -15.077,7.00209 -21.379,20.08789 -25.472,41.7953 -52.636,34.02281 -46.002,61.00391 11.14,45.30549 53.966,48.38084 86.248,22.86914 40.057,-31.6563 25.972,-69.73454 4.629,-90.51954 -9.337,-9.0933 -16.948,-13.4098 -23.496,-13.4414 z m -246.897,19.80859 a 23.22054,13.8285 11.872752 0 0 -17.697,9.57227 23.22054,13.8285 11.872752 0 0 19.881,18.31054 23.22054,13.8285 11.872752 0 0 25.566,-8.75586 23.22054,13.8285 11.872752 0 0 -19.877,-18.30859 23.22054,13.8285 11.872752 0 0 -7.873,-0.81836 z" fill="#FFFFFF" overflow="visible" paint-order="fill markers stroke" transform="translate(35.655567,-81.252517) matrix(0.26458333,0,0,0.26458333,-1798.6634,924.48624) translate(-3313.5291,-2437.8203)"/>
    <path d="m 10251.793,-749.19336 c -13.894,-0.3974 -26.764,9.55157 -27.391,25.88867 0.08,12.4806 2.871,19.88701 10.024,26.57031 7.523,6.9734 20.399,9.5458 30.558,0 8.133,-7.59389 10.479,-13.06395 10.479,-24.43945 0,-10.5594 -4.015,-20.20414 -9.85,-24.02734 -4.443,-2.57798 -9.189,-3.85972 -13.82,-3.99219 z m -2.359,9.51563 c 7.606,-0.33495 15.112,7.68511 13.068,18.85156 -0.888,6.6913 -2.474,10.40571 -5.918,13.84961 -9.757,9.7568 -18.774,4.19293 -19.969,-12.32227 -0.681,-9.4187 0.692,-12.2311 5.528,-17.0664 2.208,-2.16148 4.755,-3.20086 7.291,-3.3125 z m -159.539,11.59375 c -10.836,-0.008 -22.477,6.02206 -33.151,19.68945 -19.118,21.0134 -20.648,55.05974 -40.025,82.46094 -14.114,19.9581 -26.4996,39.47525 -15.561,64.00195 7.515,15.3818 22.848,27.21814 39.865,30.77344 29.137,6.0873 57.943,-7.53514 78.225,-36.99024 18.588,-26.9955 21.827,-81.6134 7.481,-126.1875 -6.878,-20.82394 -20.998,-33.73588 -36.834,-33.74804 z m 0.873,13.39453 c 4.78,0.15426 9.831,1.89197 14.019,6.0957 9.147,9.1813 15.71,43.03441 15.647,76.88281 -1.185,63.5627 -31.946,106.5044 -87.375,84.9668 -12.966,-8.1847 -20.435,-18.91888 -22.604,-32.48438 -1.786,-11.167 0.209,-17.07806 13.094,-38.79296 22.617,-32.4468 24.91,-70.84316 57.084,-94.56836 2.861,-1.38036 6.416,-2.2196 10.135,-2.09961 z m 125.294,32.6582 c -21.069,0.0804 -42.155,11.16343 -48.603,35.12109 -2.187,9.6537 -4.453,19.18344 -6.041,28.95704 -5.011,30.1028 -13.947,64.74839 -34.357,87.375 -13.791,15.6159 -32.148,23.608 -61.965,30.9375 -38.229,9.48029 -81.7992,33.55364 -87.9554,84.65624 -3.6949,35.1503 30.4314,59.57172 69.1994,45.82422 10.333,-3.6641 25.4,-18.89715 27.209,-24.59765 2.259,-7.1179 11.994,-8.08079 16.049,-1.58789 5.196,8.3211 3.49,42.02643 -2.659,52.48632 -2.56,4.356 -11.852,11.73508 -22.648,17.98438 -28.533,17.0858 -28.829,42.19192 -5.482,67.10742 31.521,31.7378 118.773,20.30733 167.658,-15.35937 19.311,-15.1527 30.864,-32.588 40.562,-61.2168 9.688,-29.9717 2.227,-64.94067 -11.711,-95.41797 -9.126,-19.9571 -16.283,-45.54611 -18.3,-58.25781 -2.306,-14.5263 5.934,-28.62155 21.185,-12.40235 12.15,10.85511 19.933,12.56882 35.947,5.94922 22.951,-12.4626 35.283,-51.1285 26.871,-74.9414 -3.52,-9.9672 -23.558,-25.00546 -38.82,-33.22266 -14.642,-8.0083 -17.095,-15.83806 -17.578,-33.84766 -0.835,-14.35179 -1.864,-19.80029 -4.555,-24.15429 -9.102,-13.97211 -26.548,-21.45919 -44.006,-21.39258 z m 933.53,11.70898 c -62.934,0.3553 -127.127,25.88612 -184.926,59.97852 -46.354,27.3415 -118.687,40.49831 -150.598,25.66211 -8.268,-3.844 -9.533,-3.73439 -16.713,1.44531 -27.992,20.1951 -46.637,53.61522 -41.447,74.29492 2.849,11.3518 10.002,8.76958 10.002,-3.61132 0,-11.9292 15.944,-43.7943 25.406,-52.6836 7.152,-6.6763 5.361,-7.79887 9.434,0.83203 2.628,5.5678 -3.099,16.95845 -8.332,26.84375 -3.472,6.5589 -9.604,13.5599 -13.625,15.5586 -8.156,4.0539 -9.353,9.31083 -3.268,14.36133 7.28,6.04149 13.86,0.4988 27.293,-22.9961 17.167,-19.3814 10.037,-42.13476 10.037,-42.13476 22.695,12.5251 77.417,7.49751 104.866,-2.24219 25.487,-9.044 52.683,-18.95387 66.945,-29.04297 12.675,-8.9667 51.847,-28.30221 69.969,-34.53711 23.511,-8.089 75.031,-16.56836 100.674,-16.56836 24.706,0 64.622,9.03589 89.711,20.30859 35.755,16.0656 86.121,65.43589 110.968,108.7754 5.993,10.4526 17.166,40.5988 17.166,46.3164 0,7.1338 -5.615,1.55157 -13.222,-13.14453 -18.882,-36.4775 -23.838,-44.41239 -37.703,-60.36719 -19.343,-22.2574 -23.473,-26.38304 -38.211,-38.14844 -62.667,-48.13979 -136.364,-71.10837 -241.838,-29.63867 -60.302,25.556 -88.488,63.43419 -194.241,68.96289 -18.475,0 -23.528,2.58013 -16.492,8.41993 8.32,6.9045 67.105,-1.50653 109.951,-15.73243 49.6,-17.0576 61.427,-35.83949 111.969,-53.96289 46.112,-18.8613 109.806,-25.89288 166.061,-3.58007 15.799,7.9911 39.174,22.68469 51.941,32.65429 25.791,20.4666 49.284,45.23136 66.1,75.03906 6.418,9.378 14.565,21.30124 18.105,26.49415 3.541,5.1929 6.438,11.83527 6.438,14.76367 0,6.0559 -11.588,11.67602 -29.744,14.42383 -14.01,2.12019 -14.868,1.39278 -33.039,-27.94922 -44.622,-72.0495 -82.499,-93.1836 -154.77,-93.1836 -29.349,0 -42.049,1.42972 -67.449,12.04102 -70.136,29.2997 -149.451,78.38708 -206.643,87.27148 -40.333,8.4331 -68.931,4.43572 -97.892,-13.67968 -10.568,-6.61001 -17.017,-9.1144 -18.823,-7.3086 -4.134,4.1347 11.094,18.73459 28.971,27.77149 63.18,31.2934 141.633,-4.7681 207.496,-37.375 64.361,-40.5582 155.014,-77.08084 232.83,-40.42774 23.514,11.0755 67.221,63.69294 71.319,83.96094 2.126,10.5168 10.207,18.22608 23.181,22.11328 27.52,2.0194 41.552,-3.71561 64.711,-20.87891 14.482,-10.7329 4.824,-32.15508 -1.855,-46.30468 -32.864,-66.9837 -77.841,-121.82429 -157.871,-150.65039 -23.782,-8.5659 -48.216,-12.28354 -72.842,-12.14454 z m -932.897,0.67188 c 10.31,-0.20973 20.627,3.0927 27.03,11.3418 3.906,5.6365 4.568,8.67063 5.472,25.08593 2.379,38.3369 13.631,31.7568 45.004,55.4336 13.521,11.2519 16.772,17.88511 15.803,32.22851 -0.897,13.2778 -6.98,26.84908 -16.188,36.11328 -10.515,10.5807 -17.483,10.60213 -24.316,0.0781 -4.547,-7.0034 -15.474,-12.34375 -25.252,-12.34375 -24.402,0.1632 -21.553,23.61344 -20.242,33.96484 2.969,22.0372 9.917,42.85976 18.646,63.12696 27.948,64.8904 10.655,124.88988 -48.511,156.52148 -9.663,4.88 -40.592,14.94291 -57.653,18.75781 -26.781,5.4632 -77.342,2.23448 -79.041,-43.36132 -0.582,-15.6368 15.884,-23.27198 32.01,-33.07618 19.35,-11.7645 21.846,-46.24931 16.539,-68.72461 -11.353,-25.2145 -35.158,-25.79877 -48.906,2.29883 -12.98,26.5272 -59.0709,18.51442 -65.3224,-11.08398 -8.5238,-40.3569 32.9364,-76.275 75.3344,-86.1211 50.809,-10.4608 82.057,-37.72677 98.363,-85.82617 1.563,-4.6103 4.333,-17.25767 6.154,-28.10547 6.554,-39.0391 9.657,-48.74167 18.096,-56.57617 6.369,-5.7999 16.671,-9.5227 26.98,-9.73242 z m 384.223,51.55664 c -42.263,0.039 -89.976,6.11348 -94.102,13.14648 -3.348,5.7089 -2.248,15.62124 7.256,27.99024 31.947,41.5746 17.952,88.27966 -8.336,120.32226 -16.406,22.5908 -37.997,48.43051 -52.22,75.84571 -10.929,23.0509 -12.989,55.35582 0.03,84.76172 13.979,26.9293 51.19,54.96249 92.459,56.77929 56.64,2.4936 73.527,5.18531 134.361,-2.71679 26.699,-3.8783 59.949,-49.53553 62.571,-85.92383 2.342,-32.5174 -8.867,-62.5773 -32.438,-92.9336 -15.084,-18.0158 -34.414,-55.55006 -39.209,-76.13476 -5.613,-24.0967 -2.3,-49.48951 9.606,-73.63281 5.393,-10.9379 9.721,-21.11297 9.806,-22.60157 0.584,-10.153 -7.233,-18.17744 -56.642,-23.40234 -9.903,-1.0471 -21.308,-1.5108 -33.141,-1.5 z m 8.961,9.79297 c 1.727,-0.0103 3.379,-0.01 4.961,0.002 27.425,0.2002 33.824,3.59048 43.246,6.08008 13.797,4.3665 10.583,9.3252 -4.293,12.0625 -23.572,4.058 -93.271,1.85804 -111.834,-2.78906 -29.436,-7.3689 -20.332,-12.196 50.238,-14.9336 6.648,-0.25785 12.501,-0.39085 17.682,-0.42187 z m 543.892,11.85742 c -28.935,-0.079 -61.046,5.18662 -87.197,15.16602 -40.294,15.8665 -87.583,48.14537 -141.299,67.42187 -44.61,16.009 -87.244,25.18186 -110.781,17.41406 -10.995,-3.6287 -14.883,-2.15044 -9.957,3.78516 3.992,4.81 29.966,10.19531 49.17,10.19531 46.031,-5.952 91.229,-27.80778 130.635,-46.70508 29.143,-16.2033 58.99,-32.4999 90.762,-44.7246 68.564,-25.64731 147.883,-10.74313 192.683,32.01367 13.461,10.3724 31.936,33.88401 44.254,56.32031 16.279,29.6499 24.101,23.59707 8.307,-6.42774 -25.075,-47.6676 -67.149,-82.20226 -119.897,-98.41406 -13.101,-4.0265 -29.318,-5.99772 -46.68,-6.04492 z m -1121.962,3.38867 c -0.985,0.0642 -1.681,0.87458 -2.254,2.36914 -1.234,3.2139 1.129,9.57878 6.004,16.17188 2.059,2.7853 3.187,5.62173 2.505,6.30273 -2.438,2.4387 -7.095,-2.56079 -10.443,-11.21289 -3.746,-9.6808 -7.372,-10.8907 -10.025,-3.3457 -2.538,7.215 4.687,19.89422 14.127,24.79492 9.661,5.0156 12.742,4.9081 17.068,-0.5918 6.074,-7.7224 3.913,-14.63298 -8.85,-28.30078 -4.041,-4.32793 -6.491,-6.29453 -8.132,-6.1875 z m 497.31,10.31836 c 1.564,0 15.57,1.9102 31.123,4.2461 27.67,4.156 89.57,4.01102 100.633,-0.23438 5.931,-2.2761 5.861,-0.70632 -0.814,18.27149 -7.859,22.33969 -7.433,54.83191 1.044,79.75781 8.982,26.4074 13.424,34.55476 34.733,63.69726 23.179,31.7005 31.074,52.52193 31.074,81.95703 -0.324,29.7321 -26.552,73.95167 -55.031,80.73047 -13.377,3.184 -110.299,5.6709 -123.24,3.6875 -12.351,-2.5375 -42.792,-8.63199 -67.694,-31.02539 -19.854,-17.8542 -25.744,-54.63018 -21.113,-78.05468 5.857,-18.10931 15.825,-35.26621 31.816,-54.75391 35.156,-43.1134 74.389,-94.12494 41.493,-157.83594 -3.777,-5.7451 -5.588,-10.44336 -4.024,-10.44336 z m -291.109,22.14063 c -5.076,-0.1116 -14.942,2.04137 -18.494,12.51758 -1.694,4.99549 -2.677,11.91677 4.396,15.01757 6.544,2.8686 14.949,-0.7727 20.463,-6.8125 3.045,-3.3355 5.537,-7.36573 5.537,-8.95703 0,-3.6929 -0.638,-9.8778 -10.053,-11.5957 -0.497,-0.0907 -1.124,-0.15398 -1.849,-0.16992 z m 371.287,2.26367 c -19.151,0 -41.319,1.5026 -46.33,3.7207 -7.147,3.1637 -7.377,4.00652 -7.428,27.26172 -0.03,15.469 -1.735,28.64788 -4.785,37.08008 -4.378,12.1028 -25.585,44.18088 -46.479,70.30078 -10.497,13.1233 -24.96,42.65114 -29.384,59.99414 -3.754,14.7127 -1.197,35.51377 6.597,53.69727 7.947,18.5392 30.378,38.83842 57.403,45.39062 21.08,5.1113 40.007,3.07114 62.673,3.15234 50.311,-0.48 51.93,-0.67816 68.247,-8.38476 27.296,-13.5713 49.477,-41.60358 43.271,-74.98438 -2.733,-28.3932 -13.493,-53.30271 -31.777,-73.57031 -23.162,-25.6731 -35.126,-63.21951 -35.215,-110.50781 -0.02,-12.5045 -1.215,-24.59248 -2.649,-26.85938 -1.433,-2.2668 -6.74,-4.64174 -11.795,-5.27734 -5.562,-0.6995 -13.644,-1.01207 -22.349,-1.01367 z m -372.496,5.73437 c 1.342,-0.01 2.558,0.399 3.482,1.38282 0.618,0.6572 -0.911,3.32149 -3.441,5.96289 -4.287,4.4741 -9.06,6.19656 -11.16,3.85156 -2.895,-3.23091 5.3,-11.15406 11.119,-11.19727 z m 364.881,0.5 c 7.757,0 23.655,0.14821 22.603,1.84961 -0.947,1.5321 -15.995,2.40821 -22.033,2.40821 -6.038,0 -27.854,0.36022 -27.854,-1.17188 0,-1.532 20.299,-3.08594 27.284,-3.08594 z m 27.738,10.44532 v 15.46679 c 0,8.5068 1.282,25.27372 2.85,37.25782 3.41,26.0749 18.78,59.25147 39.4,85.04687 14.653,18.4483 23.814,42.04421 24.541,67.87891 0.01,31.4122 -23.237,57.63939 -63.629,64.24609 -38.359,5.4427 -80.599,3.2702 -101.129,-5.4043 -39.723,-16.7847 -52.696,-58.99567 -37.447,-94.76757 7.785,-20.6081 11.61,-26.699 35.305,-56.21289 30.998,-38.6115 41.228,-62.39002 41.58,-94.01172 l 0.199,-17.9668 c 14.939,2.475 32.11,2.35253 49.625,0.20703 z m -303.781,64.00195 c -12.177,-0.003 -23.111,4.28511 -27.114,16.24609 -2.692,8.0454 -3.266,8.45931 -0.377,25.53711 2.713,16.0301 10.567,39.02216 15.387,44.78907 13.624,16.2984 33.649,25.44139 57.153,16.52929 8.453,-3.5323 13.63,-8.74888 17.576,-17.70898 2.836,-6.44 3.21,-9.91156 2.34,-21.72657 -1.684,-22.8326 -10.923,-37.71731 -23.926,-49.57031 -7.673,-6.9944 -25.384,-14.09152 -41.039,-14.0957 z m 4.779,10.77734 c 7.203,-0.0767 15.29,2.45753 23.248,7.41016 11.33,7.0514 20.993,23.43692 23.162,45.76562 2.109,22.5561 -15.898,35.56151 -41.937,25.47071 -17.768,-6.8852 -31.954,-55.45668 -24.082,-68.05078 4.418,-7.06855 11.446,-10.50876 19.609,-10.59571 z m 680.012,27.02539 c -3.497,0.8316 -20.773,6.73971 -38.391,13.12891 -17.618,6.3891 -49.583,17.74001 -71.031,25.22461 -21.449,7.4847 -43.965,16.14429 -50.035,19.24609 -10.506,5.3678 -14.788,5.72691 -13.983,16.87891 0.771,10.6793 2.511,46.5666 0.571,114.0918 -0.766,26.6484 0.757,35.15851 9.986,37.60351 40.098,15.258 78.925,30.29229 117.527,45.89649 7.66,4.3008 17.686,7.9584 22.28,8.1289 4.593,0.1704 23.207,-3.8453 37.458,-10.0957 45.371,-19.8981 108.79,-39.8106 123.079,-43.9082 3.963,-1.1366 15.43,-5.59178 19.173,-10.85938 5.355,-7.5343 3.737,-30.8226 4.276,-69.4082 0.88,-63.03 3.1,-85.0145 2.287,-91.1582 -0.792,-5.97821 -13.812,-10.85469 -35.414,-17.55079 -57.588,-17.8506 -74.6,-29.85025 -127.783,-37.21875 z m 351.523,8.16993 c -0.246,0.006 -0.484,0.0346 -0.711,0.084 -7.267,1.5806 -5.931,25.27019 2.428,37.80469 4.754,6.8358 13.641,6.64142 15.863,0.20312 6.216,-18.00722 -9.956,-38.27937 -17.58,-38.09179 z m -1357.596,6.8164 c -3.913,-0.20492 -9.0984,4.21405 -7.4449,13.64063 1.2443,7.0938 11.2569,16.84018 17.4469,17.61718 6.334,0.6711 11.206,-4.77296 2.225,-8.00586 -4.793,-2.47839 -7.43,-7.13358 -8.291,-19.17968 -0.185,-2.58878 -1.886,-3.96493 -3.936,-4.07227 z m 1002.938,0.89649 c 5.543,0 6.527,1.4044 6.527,9.3125 0,7.7907 -1.479,9.99202 -9.054,13.48632 -4.98,2.2967 -18.453,8.88698 -29.944,14.64258 -12.415,6.2187 -25.594,10.69341 -32.482,11.03321 -6.375,0.3145 -13.59,2.23166 -16.033,4.25976 -2.444,2.0281 -8.509,4.57355 -13.479,5.65625 -4.97,1.0828 -8.723,3.42895 -8.34,5.21484 0.92,4.29031 -0.945,4.01021 -17.41,-2.625 -27.489,-11.0776 -26.299,-9.80495 -13.928,-14.87695 42.365,-17.4093 88.875,-33.43051 134.143,-46.10351 z m 20.178,0.11328 c 34.771,17.3158 84.919,22.67313 119.267,40.70703 0.518,1.5528 -3.794,4.3671 -9.582,6.25391 -5.787,1.8868 -11.903,4.01697 -13.588,4.73437 -1.685,0.7175 -4.544,-0.48352 -6.355,-2.66602 -1.812,-2.1826 -9.208,-4.84597 -16.436,-5.92187 -7.228,-1.076 -14.797,-3.32293 -16.822,-4.99024 -2.025,-1.6673 -11.687,-3.15895 -21.471,-3.31835 -14.277,-0.2324 -19.084,-1.50869 -24.353,-6.45899 -3.611,-3.3922 -8.678,-6.16601 -11.26,-6.16601 -3.621,0 -4.695,-2.55244 -4.695,-11.14454 0,-9.123 0.697,-10.92179 5.295,-11.02929 z m -659.061,4.49414 c -0.756,-0.0389 -1.744,0.038 -3.037,0.16406 -4.648,0.453 -5.645,1.36879 -6.596,6.05859 -0.981,4.6284 -6.189,8.74588 -3.148,12.48438 6.708,4.2986 15.189,-3.19259 15.209,-13.43359 0,-3.99885 -0.161,-5.15678 -2.428,-5.27344 z m 1032.94,2.91015 c -1.877,0.089 -2.858,1.73797 -2.858,4.98047 0,5.9304 7.44,24.96013 11.893,30.42383 1.624,1.9924 6.193,3.24761 10.154,2.78711 11.806,-1.3723 10.774,-11.13274 -2.725,-25.77734 -7.718,-8.374 -13.337,-12.56177 -16.464,-12.41407 z m -63.053,0.83985 c -4.669,0 -9.58,8.8305 -19.36,34.8125 -8.996,23.9026 -9.007,33.13906 -0.04,42.10156 8.652,8.6521 16.95,7.85533 24.548,-2.35937 4.587,-6.1668 5.646,-11.7396 5.561,-29.2461 -0.122,-25.1137 -4.893,-45.30859 -10.705,-45.30859 z m -801.57,11.21289 c -1.046,-0.026 -2.296,0.10977 -3.745,0.38867 -6.057,1.1666 -22.778,32.90679 -25.201,47.83789 -0.978,6.0276 -0.52,10.19922 1.121,10.19922 1.528,0 9.937,-12.05928 18.688,-26.80078 13.821,-23.2832 16.456,-31.4439 9.137,-31.625 z m 799.125,9.29687 c 0.337,0.021 0.704,0.14612 1.087,0.38282 4.015,2.4812 3.534,44.097 -0.556,48.1875 -1.839,1.8385 -4.095,3.3457 -5.014,3.3457 -0.919,0 -3.175,-1.5072 -5.014,-3.3457 -4.898,-4.8985 -3.917,-18.75257 2.229,-31.47657 2.96,-6.1282 5.425,-12.78171 5.476,-14.78711 0.04,-1.5043 0.778,-2.36854 1.792,-2.30664 z m -315.141,2.24219 c 3.092,0.017 5.226,1.47463 9.217,4.70313 11.612,9.395 24.512,14.40259 33.162,12.87109 9.394,-1.6635 50.632,5.21071 46.517,7.75391 -36.257,19.4427 -65.912,26.18358 -100.97,39.02148 -6.611,2.4207 -16.101,2.21106 -25.676,-1.71484 -9.154,-3.7529 -31.662,-9.94094 -56.885,-18.05274 -19.089,-6.1391 -19.218,-6.54943 -3.668,-11.64844 8.146,-2.67099 19.747,-5.59545 25.781,-6.50195 10.292,-1.5461 45.855,-15.0448 48.916,-18.5664 0.766,-0.8813 6.761,-3.32891 13.323,-5.44141 4.891,-1.575 7.878,-2.43693 10.283,-2.42383 z m -791.445,0.18555 c -2.305,0.12482 -3.723,2.08863 -2.653,5.94922 5.319,19.1794 4.931,20.77739 3.008,29.37109 -2.419,10.8077 -9.008,23.51728 -16.568,31.95508 -2.589,3.4675 1.65,10.01231 6.156,6.38281 8.256,-7.0164 15.988,-14.80807 20.525,-26.82617 4.263,-11.2893 4.102,-27.48703 -0.578,-38.32813 -2.498,-5.78615 -6.927,-8.66439 -9.89,-8.5039 z m 932.611,20.92187 -1.818,66.51172 c -1.002,36.5813 -2.27,67.96529 -2.817,69.74219 -0.547,1.777 -34.403,15.07962 -43.199,17.63672 -46.544,13.923 -63.531,27.79519 -110.141,41.80469 -4.179,0 -5.345,-15.7069 -5.373,-72.2793 l -0.03,-62.5293 73.932,-28.49805 c 26.319,-10.1334 56.136,-22.47167 89.445,-32.38867 z m -307.66,9.06641 c 0.608,0 4.49,1.74481 8.627,3.87891 12.512,6.4549 58.8,23.0995 86.908,31.25 36.484,10.5793 36.394,10.43616 36.238,56.79296 -0.07,20.6825 1.003,57.74412 1.324,61.57422 0.275,30.0342 1.258,37.24638 -18.136,29.08008 -3.871,-2.1062 -28.315,-11.60066 -54.319,-21.10156 -26.004,-9.501 -47.376,-18.37961 -53.347,-21.41211 l -10.858,-5.51563 c -0.245,-34.2665 -0.75,-66.76899 0.639,-101.12109 1,-18.3844 2.315,-33.42578 2.924,-33.42578 z m 532.16,1.98633 c -2.356,0.055 -4.719,1.67223 -7.227,4.76953 -6.437,7.9496 -1.668,27.84445 5.069,42.68555 4.593,10.12 6.591,11.84179 13.767,11.84179 13.604,0 15.915,-8.20982 7.492,-26.60742 -5.419,-11.8386 -14.603,-32.79485 -19.101,-32.68945 z m -244.758,6.22851 c -4.361,0.097 -9.059,2.10666 -9.924,5.41407 -0.969,3.7061 -6.479,6.67292 -18.541,9.98242 -9.439,2.5899 -21.67,7.62846 -27.181,11.19726 -5.511,3.5688 -21.382,9.27429 -35.268,12.67969 -29.51,7.2372 -34.049,9.38883 -29.48,13.95703 2.383,2.3832 6.914,2.13321 18.082,-0.99219 8.196,-2.2938 19.916,-5.02535 26.045,-6.06836 6.128,-1.043 18.036,-5.66187 26.462,-10.26757 13.66,-7.4662 41.876,-17.09862 43.967,-15.00782 0.44,0.4397 0.983,11.30834 1.207,24.14844 0.962,55.1058 -0.07,58.33768 -20.23,63.76758 -6.059,1.6315 -11.016,4.17153 -11.016,5.64453 0,1.473 6.894,2.67969 15.32,2.67969 9.597,-0.047 12.341,-1.1877 20.858,-6.37109 9.501,-2.48451 12.188,-14.6661 8.451,-38.3086 -1.919,-12.1411 -2.414,-25.65735 -1.174,-32.03516 2.419,-12.44129 2.245,-33.40866 -0.31,-37.54296 -1.153,-1.8649 -3.651,-2.7682 -6.401,-2.8711 -0.286,-0.0107 -0.576,-0.0123 -0.867,-0.006 z m -839.16,7.34375 c -17.815,-0.6467 -37.954,16.10649 -26.568,37.66407 5.839,9.1507 16.6,17.2651 29.836,11.6582 20.177,-8.4309 25.466,-30.99686 10.408,-44.41016 -3.881,-3.18594 -8.688,-4.73103 -13.676,-4.91211 z m 567.859,4.73633 c -4.241,0.018 -5.485,3.1643 -5.34,9.6836 0.559,24.9828 -1.031,46.69196 -3.611,74.85546 -2.209,18.2821 5.739,22.08612 22.598,33.44532 15.159,9.6168 31.077,11.58611 48.572,20.16211 10.255,4.8734 25.643,12.45979 30.545,2.74609 0.906,-4.6671 -24.512,-16.32828 -35.668,-16.36328 -3.8,-0.012 -15.057,-4.09021 -25.016,-9.06641 -17.325,-8.6577 -18.257,-9.64874 -21.63,-22.96094 -1.994,-7.8645 -2.98,-22.38705 -2.268,-33.41015 0.693,-10.7243 1.339,-26.27214 1.437,-34.55274 0.17,-14.4052 0.398,-14.85806 5.272,-10.44726 4.153,3.6594 15.931,6.97089 21.965,10.17969 7.723,0 -4.466,-11.00981 -20.76,-18.75391 -7.684,-3.652 -12.796,-5.53158 -16.096,-5.51758 z m -574.664,5.75195 c 1.637,-0.0333 3.463,0.15313 5.489,0.58789 5.392,0 7.987,2.69231 9.398,9.75 1.3,6.5012 -1.408,11.64722 -8.361,15.88672 -10.623,6.3794 -14.516,1.99737 -17.735,-10.74023 -0.931,-8.70033 2.369,-15.30455 11.209,-15.48438 z m 1096.549,7.37891 c 2.025,0 8.803,11.89933 8.803,15.45313 0,0.694 -1.734,1.25976 -3.854,1.25976 -2.119,0 -4.607,-2.82048 -5.531,-6.26758 -2.275,-8.4896 -2.167,-10.44531 0.582,-10.44531 z m -468.955,12.41602 c -10.044,-0.1964 -9.988,5.26151 2.131,9.79101 4.979,1.8609 11.561,4.4354 14.625,5.72071 7.407,3.1071 9.143,3.16088 10.89,0.33398 2.733,-4.4219 -10.812,-13.59669 -22.73,-15.39648 -1.841,-0.2781 -3.481,-0.42122 -4.916,-0.44922 z m -923.119,22.25586 c -5.2216,0.0115 -7.1817,2.58164 -8.3595,10.43554 -1.2558,8.3737 0.7478,13.51749 7.4805,19.20899 5.306,4.4852 9.987,4.80773 18.455,1.26953 9.414,-3.9335 14.548,-9.82481 13.209,-15.1582 -2.365,-9.42141 -17.997,-17.06352 -20.668,-10.10352 -0.728,1.8981 0.528,4.11298 3.82,6.73828 5.288,4.2166 5.282,4.28897 -0.607,7.35547 -6.324,3.293 -9.219,-0.38476 -8.541,-10.85156 0.529,-8.1604 0.33,-8.63718 -3.699,-8.86328 -0.378,-0.0212 -0.742,-0.032 -1.09,-0.0312 z m 77.576,13.14257 c -2.028,0.0853 -3.735,0.9107 -4.353,2.52149 -1.255,3.2698 3.718,8.91816 10.464,11.88476 8.57,3.7677 16.767,3.1058 21.301,-1.7207 5.751,-6.2127 -0.241,-6.36449 -7.349,-6.21289 -7.141,0.0854 -9.965,-0.65632 -12.293,-3.22852 -2.027,-2.23908 -5.163,-3.35376 -7.77,-3.24414 z m 186.986,1.69141 c -3.315,0.0491 -6.481,0.8201 -9.416,2.33789 -4.562,2.3592 -14.919,6.92764 -18.992,24.58984 -6.791,29.4523 -34.093,31.11116 -41.293,45.38086 -8.774,17.3893 -2.275,37.58383 16.414,50.54883 8.246,5.7203 15.295,8.70898 24.879,10.54688 7.834,1.5022 26.305,-0.55409 35.604,-3.96289 22.469,-8.5892 45.368,-33.30312 45.148,-60.54102 -0.107,-21.9408 -7.356,-37.79249 -25.404,-55.55469 -9.026,-8.8826 -18.468,-13.47115 -26.94,-13.3457 z m 5.266,13.57422 c 4.541,-0.0165 9.253,2.22779 13.568,7.77148 11.839,13.409 16.344,24.30933 17.168,41.54883 0.934,20.167 -9.178,40.31575 -33.373,53.90625 -10.436,4.7054 -10.592,4.73413 -10.592,1.92383 7.788,-5.7841 13.2,-9.12 13.622,-19.0332 0,-2.9949 -3.523,-7.25114 -9.075,-8.64453 -5.388,-1.3039 -25.317,5.30067 -24.992,17.67187 0.08,7.8885 2.67,10.29437 8.819,12.13477 -23.054,2.2049 -36.46,-10.08929 -39.481,-31.08399 -1.81,-12.5791 5.173,-20.86545 19.898,-31.37305 12.902,-9.2065 21.063,-18.38077 24.225,-27.23437 3.494,-9.28515 11.543,-17.55645 20.213,-17.58789 z M 10023.188,-253.5 c -2.05,0.0114 -4.469,0.12883 -7.489,0.31641 -9.422,0.5855 -14.25,1.64872 -15.644,3.44921 -1.109,1.4321 -2.81,2.11212 -3.7816,1.51172 -2.7939,-1.7269 -4.1641,7.12927 -1.9355,12.50977 3.6148,8.7266 15.1151,16.21398 29.0251,18.89648 14.151,2.7287 24.984,-0.0544 29.998,-7.70703 5.135,-7.8363 -1.172,-18.03133 -15.65,-25.29883 -5.574,-2.79787 -8.376,-3.71185 -14.523,-3.67773 z m -17.075,9.54492 11.789,0.44141 c 16.608,0.6224 27.657,8.49533 19.891,14.17383 -8.378,6.1262 -30.078,-0.86005 -31.145,-10.02735 z m 1070.61,14.25196 c -1.775,-1.1e-4 -3.658,0.32376 -5.43,1.25976 -4.726,2.4959 -16.739,7.52895 -26.697,11.18555 -9.958,3.6564 -18.604,8.27786 -21.084,9.31836 -3.136,1.3158 -5.765,-0.92947 -6.807,-4.91407 -2.331,-8.915 -11.24,-3.70393 -11.24,5.69727 0,4.3408 0.836,8.7287 1.857,9.75 1.022,1.0214 4.469,1.8557 7.66,1.8457 7.216,-0.012 45.939,-15.61162 51.704,-20.82812 2.336,-2.1148 8.008,-5.33495 12.601,-7.15625 5.479,-2.1723 6.994,-3.80901 4.408,-4.75781 -1.355,-0.4972 -4.014,-1.40019 -6.972,-1.40039 z m -817.815,50.11914 c 1.504,0.0239 1.908,0.95216 -0.349,3.47265 -1.172,0.9062 -5.754,3.54658 -7.424,4.14258 -2.913,1.0397 -4.608,0.63181 -1.696,-3.37109 1.401,-1.81088 6.963,-4.28404 9.469,-4.24414 z" fill="#00B894" transform="translate(35.655567,-81.252517) matrix(0.26458333,0,0,0.26458333,-1798.6634,924.48624) translate(-3313.5291,-2437.8203)"/>
</svg>