<?xml version="1.0" ?><svg height="210.91682mm" viewBox="0 0 379.33047 210.91682" width="379.33047mm" xmlns="http://www.w3.org/2000/svg">
    <path color="#000" d="m 4326.9824,655.55664 c -3.602,0.0356 -7.1599,0.38362 -10.5859,1.06641 -27.4079,5.46229 -70.7355,31.57322 -77.6817,74.54297 -6.9462,42.96976 4.6797,48.82617 4.6797,48.82617 0,0 -35.1709,8.94953 -47.8203,15.5957 -12.6494,6.64616 -16.3782,19.67568 -1.0234,27.76953 15.3548,8.09384 44.7492,28.55822 41.9707,66.26367 -2.7785,37.70545 -22.7312,80.44618 -55.3418,115.51951 -32.6107,35.0734 -46.9413,92.2574 -23.3242,122.0664 23.6171,29.8091 86.1484,66.5957 86.1484,66.5957 18.4988,1.5793 102.2182,2.3043 115.6719,1.1856 13.4538,-1.1187 60.1048,-15.5959 73.5586,-71.0684 13.4537,-55.4725 -44.969,-134.10808 -54.8399,-148.25584 -9.871,-14.14777 -30.4174,-69.81637 -9.3593,-115.8789 21.058,-46.06253 42.8479,-34.8767 45.3339,-42.3125 2.486,-7.43581 -3.2016,-28.93473 -69.0078,-38.01563 -61.136,-8.43645 -64.1438,-3.87077 -64.2636,-3.17969 0.021,-0.50003 1.8235,-40.77175 37.5019,-50.64648 35.9009,-9.93634 60.8664,-7.03249 60.9395,-32.76172 0.064,-22.51307 -27.3428,-37.56145 -52.5567,-37.3125 z m 277.543,62.8418 c -27.5297,0.2705 -58.3331,6.2557 -65.3399,9.43164 -10.677,4.83951 -65.6996,31.9129 -48.3203,51.06054 17.3793,19.14765 34.8377,10.76868 84.9493,-2.9082 50.1116,-13.67689 63.2031,18.68946 63.2031,18.68946 l -104.8985,37.24414 c -6.1915,81.71051 5.4236,143.35472 8.8067,213.57028 l 155.0097,60.0371 204.5782,-87.5312 2.8047,-180.39454 c -54.7029,-20.66724 -81.2072,-50.32507 -166.545,-61.16211 l -59.0742,8.27734 c 0,0 -13.0915,-48.53641 -38.498,-60.81055 -8.7335,-4.21923 -22.2555,-5.6456 -36.6758,-5.5039 z M 3949.0215,1005.959 c -3.8374,-0.099 -8.501,1.2728 -11.8887,3.8769 -7.7433,5.9525 -17.1523,26.7618 -17.1523,26.7618 l -93.6192,5.3711 c 0,0 -1.3449,-18.1954 -2.7968,-27.3418 -1.4518,-9.1464 -10.0543,-11.4203 -16.3457,-1.4512 -6.2915,9.9691 -26.4034,85.4142 -32.3184,104.1426 -5.915,18.7283 -0.6992,122.2421 -0.6992,122.2421 -53.3914,25.3825 -61.6288,-72.8086 -60.1231,-97.3925 1.5056,-24.584 -17.3681,-37.5055 -31.7793,-37.0215 -14.4111,0.4839 -58.6125,37.167 -21.9394,94.707 51.7144,81.1399 124.7734,87.4238 124.7734,87.4238 0,0 10.0566,19.1146 23.7149,20.5665 13.6583,1.4518 26.8847,-11.0333 26.8847,-11.0333 l 94.8028,-0.871 c 0,0 28.2847,6.9209 43.8789,-0.1446 15.5941,-7.0655 5.2683,-33.7309 0.375,-57.9277 -4.8933,-24.1968 -20.718,-74.3324 -15.502,-107.8692 5.216,-33.5367 -8.7109,-81.7851 -8.7109,-81.7851 0,0 0.6448,-24.2948 4.6777,-34.0703 2.2686,-5.4987 -1.2987,-8.0565 -6.2324,-8.1836 z m 1030.5215,83.8867 c -15.5001,-0.071 -29.537,3.0394 -34.461,11.1875 -9.2687,15.3376 -63.0871,82.6986 -122.0879,102.1621 -59.0009,19.4635 -126.275,-8.5207 -159.164,-22.0644 -32.8889,-13.5438 -123.6825,-29.5103 -204.9082,19.1933 -81.2258,48.7036 -118.5996,150.1485 -118.5996,150.1485 -4.7838,12.7365 16.6445,37.4003 16.6445,37.4003 0,0 -7.5744,10.7633 -46.7422,11.6602 -39.1677,0.8969 -43.8124,-36.3875 -61.1172,-50.8008 -17.3048,-14.4132 -52.0996,-32.3445 -70.039,4.5196 -17.9394,36.8641 67.0733,83.2362 111.8222,87.9003 44.749,4.6642 89.5977,-30.0468 89.5977,-30.0468 0,0 17.2412,6.0985 26.3105,7.8027 9.0694,1.7042 20.2306,10.9416 34.2832,-16.9531 14.0525,-27.8947 59.3008,-90.3205 113.2188,-110.2324 53.9179,-19.912 104.5472,-0.1804 204.6094,28.6113 100.0622,28.7917 158.464,-15.9654 210.0898,-48.9727 51.6258,-33.0072 98.0693,-125.1224 100.0625,-136.4238 1.9933,-11.3014 -27.5072,-30.7653 -50.3301,-38.748 -10.6983,-3.742 -25.5129,-6.2811 -39.1894,-6.3438 z" fill="#FFFFFF" overflow="visible" paint-order="fill markers stroke" transform="translate(87.16504,91.481113) matrix(0.26458333,0,0,0.26458333,-782.38606,-133.27292) translate(-1016.2174,-492.66976)"/>
    <path d="M 680.57227 0 C 670.08817 0.00058999999 659.90246 2.9559088 646.66016 9.0742188 C 620.92266 20.965719 608.92908 31.659688 598.70898 51.830078 C 589.69788 69.779738 584.41112 114.1717 596.32422 137.37695 C 598.03642 143.67435 600.38045 151.02007 601.53125 153.70117 C 604.22515 159.97707 596.54792 160.2473 585.10352 154.2793 C 580.60812 151.9351 575.28142 150.65023 573.26562 151.42383 C 567.92493 153.47322 568.78304 160.72777 574.74414 163.91797 C 592.73724 173.54757 643.18245 182.93774 712.93945 175.4668 C 742.64365 172.28549 741.41058 152.92 722.26758 159.22656 C 715.75978 161.3705 710.36947 161.36133 683.57227 161.36133 C 643.12687 161.36133 645.67788 163.09465 643.27148 133.96875 C 641.94538 117.91885 642.61135 113.89944 648.18945 104.33984 C 657.39425 88.565144 669.15363 81.839419 699.67383 74.886719 C 735.35903 66.757319 745.64433 56.09444 741.11133 31.931641 C 738.94523 20.385241 729.45855 12.932976 707.15625 5.2597656 C 697.06215 1.7868957 688.72657 -0.00045999999 680.57227 0 z M 682.6875 10.253906 C 684.1028 10.245906 685.85148 10.3436 687.98438 10.53125 C 694.11257 11.07055 700.0678 12.084956 701.2168 12.785156 C 705.0373 15.113256 703.37621 30.05615 697.69531 44.46875 C 694.60971 52.29705 692.80374 59.864456 693.68164 61.285156 C 694.55964 62.705756 692.86426 63.869141 689.91406 63.869141 C 685.28826 63.869141 684.13754 60.677493 681.55664 40.683594 C 679.91054 27.931794 678.17632 15.708937 677.70312 13.523438 C 677.20913 11.241708 678.4415 10.277166 682.6875 10.253906 z M 664.92969 11.261719 C 665.25599 11.269719 665.48818 11.349923 665.60938 11.507812 C 667.54117 14.023112 672.66406 47.003675 672.66406 56.921875 C 672.66406 66.509775 671.48639 69.081328 665.93359 71.611328 C 659.57889 74.506628 658.48805 73.559194 646.43555 54.683594 C 639.41365 43.686294 633.66797 32.740275 633.66797 30.359375 C 633.66797 26.917445 660.03489 11.138999 664.92969 11.261719 z M 716.09961 18.316406 L 722.23828 24.904297 C 733.34528 36.826297 728.83781 52.29735 712.44141 58.53125 C 701.76951 62.58865 700.66856 61.640906 705.28906 52.378906 C 707.67706 47.591906 711.08623 37.969894 712.86523 30.996094 L 716.09961 18.316406 z M 622.30469 38.798828 C 623.67689 38.798828 630.51621 47.73445 637.50391 58.65625 L 650.20898 78.513672 L 644.02734 86.357422 C 636.74354 95.598822 634.40997 96.040097 625.23438 89.904297 C 609.93398 79.672997 602.94539 71.295922 604.80859 65.419922 C 607.49329 56.952722 619.42479 38.798828 622.30469 38.798828 z M 946.51172 61.388672 C 935.15062 61.493862 924.0977 62.417505 914.5293 64.171875 C 894.5526 67.834475 864.56855 83.032735 852.25195 95.740234 C 833.32825 115.26453 839.74348 139.15241 865.45898 144.91211 C 878.29978 147.78821 882.01426 147.11321 919.97656 135.00391 C 954.68126 123.93371 978.53251 126.50449 989.75391 142.52539 C 997.64011 153.78449 995.34254 160.21349 980.86914 167.39258 C 969.76354 172.90119 967.50096 175.36623 966.78516 182.74023 C 965.78426 193.04943 973.94633 200.41797 986.36523 200.41797 C 996.51753 200.41797 996.21824 196.39905 985.74414 192.06055 C 975.51844 187.82495 975.05522 182.87538 984.48242 178.58008 C 993.72312 174.36969 993.56792 174.32353 994.60352 181.61523 C 995.18782 185.72893 997.40775 187.88281 1001.0645 187.88281 C 1004.1701 187.88281 1007.8519 185.10913 1009.3848 181.61523 C 1012.7929 173.84693 1020.9756 173.43807 1023.3496 180.91797 C 1024.4794 184.47767 1027.5629 186.49023 1031.8926 186.49023 C 1037.8945 186.49023 1038.6699 185.26756 1038.6699 175.78906 C 1038.6699 165.77636 1039.3632 164.87957 1049.457 161.85547 C 1067.0994 156.56967 1091.7998 155.15538 1111.0098 158.33008 C 1122.7782 160.27498 1129.9793 160.36052 1131.7617 158.57812 C 1141.3763 148.96353 1097.3401 140.93312 1064.0605 146.23242 C 1041.9337 149.75582 1038.6699 149.433 1038.6699 143.7168 C 1038.6699 138.9831 1072.1492 133.56445 1101.4004 133.56445 C 1120.44 133.56445 1129.7096 135.20833 1149.1484 141.92188 C 1192.6252 161.82764 1217.3732 168.93401 1252.1328 186.99609 C 1257.9879 192.34179 1258.0573 193.54402 1256.7285 268.14648 C 1255.9866 309.79498 1254.5165 348.22831 1253.4609 353.55273 C 1251.6493 362.69053 1249.5157 364.25672 1215.4395 381.47852 C 1180.2755 399.24992 1084.244 438.79504 1068.707 441.90234 C 1058.5837 444.89024 1052.7316 447.79389 1037.9727 440.08789 C 1025.1311 436.81859 949.02958 408.77103 921.45508 397.14453 C 903.81298 389.70593 904.81081 394.44975 899.09961 290.74414 C 897.32171 258.45994 896.76282 221.2947 897.85742 208.1543 L 899.84766 184.26172 L 928.17188 175.31836 C 974.00357 160.84516 985.74414 155.56132 985.74414 149.41602 C 985.74414 144.86302 984.39032 144.28166 977.16602 145.72656 C 972.44762 146.67026 964.61266 149.20136 959.75586 151.35156 C 954.89906 153.50186 939.64377 158.54871 925.85547 162.56641 C 893.22267 172.07501 882.72621 177.46894 882.50781 184.83984 C 882.06881 199.65254 883.20931 252.25905 885.32031 314.62305 C 888.06141 395.60076 889.29583 399.9782 911.92773 408.8418 C 919.58793 411.8419 942.77844 420.87888 963.46094 428.92578 C 986.70844 437.99928 1014.9078 453.02417 1044.2402 459.23047 C 1049.6023 460.61857 1055.4829 461.86581 1057.3066 462.00391 C 1061.8588 462.34881 1099.9671 448.44652 1106.877 443.91992 C 1109.9621 441.89892 1121.2601 436.99504 1131.9844 433.02344 C 1185.3924 413.24484 1251.19 381.71284 1262.5938 370.43164 C 1268.2371 364.84884 1269.5843 343.48714 1267.5176 292.33984 C 1266.9914 279.31754 1267.8565 240.75767 1268.9902 219 C 1270.7874 184.5115 1269.3556 184.21258 1260.9844 180.15625 C 1243.4337 170.12221 1198.2688 148.95739 1152.123 132.06445 C 1120.7278 122.13316 1084.496 117.7949 1048.2012 126.9043 C 1042.5515 128.3222 1041.4592 127.10181 1038.8027 116.41211 C 1031.1142 85.47331 1016.4806 70.258619 989.36719 65.011719 C 976.23609 62.470679 961.11902 61.253432 946.51172 61.388672 z M 940.93164 72.673828 C 943.32524 72.654628 946.00963 72.72023 949.01953 72.84375 L 969.27539 73.675781 L 961.16016 84.818359 C 956.69736 90.946559 951.41803 100.54865 949.42773 106.15625 C 946.37373 114.76095 944.33174 116.52403 936.33984 117.45703 C 924.68264 118.81793 921.67773 114.2744 921.67773 95.283203 C 921.67773 77.128183 924.17614 72.808078 940.93164 72.673828 z M 987.69336 76.316406 C 989.89646 76.270706 992.279 76.793056 995.0957 77.722656 C 1006.9308 81.628556 1012.9343 88.074741 1009.2598 92.931641 C 1007.8166 94.839241 1002.3209 102.25591 997.04688 109.41211 C 991.77278 116.56831 986.7584 122.33426 985.9043 122.22656 C 985.0502 122.11886 981.84535 120.95342 978.78125 119.63672 C 975.71725 118.32012 969.76193 117.15457 965.54883 117.04688 C 955.56553 116.79168 955.66518 111.33139 965.92188 96.462891 C 976.09897 81.709791 981.08386 76.453486 987.69336 76.316406 z M 910.53516 77.994141 L 910.53516 91.990234 C 910.53516 99.688234 912.44776 109.68509 914.78516 114.20508 C 917.12256 118.72508 918.42243 122.42188 917.67383 122.42188 C 916.92513 122.42188 910.0279 124.89973 902.3457 127.92773 C 888.6199 133.33793 888.3285 133.34163 885.5293 128.11133 C 883.9626 125.18403 882.67969 115.95095 882.67969 107.59375 C 882.67969 89.77905 887.86232 82.069594 901.48242 79.621094 L 910.53516 77.994141 z M 601.76953 86.152344 C 605.38243 86.152344 630.88281 103.28529 630.88281 105.71289 C 630.88281 106.95999 630.12131 109.96332 629.19141 112.38672 C 627.43891 116.95372 607.41397 118.85972 604.85547 114.70312 C 602.29837 110.54893 599.66123 86.152344 601.76953 86.152344 z M 869.47852 97.431641 C 869.64212 97.445441 869.77519 97.500243 869.87109 97.601562 C 870.46689 98.230462 871.39771 106.77163 871.94141 116.58203 C 872.98301 135.37253 871.53448 137.64965 861.17578 133.49805 C 853.92908 130.59375 850.38618 119.57429 854.33008 112.20508 C 857.42178 106.42821 867.02522 97.224411 869.47852 97.431641 z M 1019.3848 100.13867 C 1022.0774 100.13867 1027.5273 116.05818 1027.5273 123.92188 C 1027.5273 128.86657 1025.469 130.54588 1017.6035 132.02148 C 1010.2717 133.39688 1007.9308 135.11316 1008.6348 138.59766 C 1009.3509 142.14206 1011.9111 143.08292 1018.9434 142.38672 C 1026.7189 141.61702 1027.9999 142.24496 1026.5215 146.09766 C 1025.543 148.64746 1024.7422 154.39053 1024.7422 158.86133 C 1024.7422 164.82973 1023.4464 166.93308 1019.8672 166.77148 C 1011.3385 166.38678 1008.0293 163.90277 1008.0293 157.88867 C 1008.0293 154.66987 1005.3952 146.59777 1002.1777 139.95117 C 996.56653 128.36007 996.5254 127.55643 1001.1543 120.26953 C 1007.3145 110.57203 1016.764 100.13867 1019.3848 100.13867 z M 659.87305 121.74609 C 657.88445 121.72419 655.90847 121.72741 653.95117 121.75781 C 647.08237 121.87987 645.92853 123.13109 645.36523 126.97852 C 644.57973 132.34401 646.37808 132.81443 674.61328 134.64453 C 704.66508 136.59233 730.91516 142.38955 745.78516 147.01562 C 762.56406 152.23554 767.01381 161.9078 757.00781 165.81055 C 749.35291 168.7963 737.11415 172.4891 729.37695 184.98047 C 717.28265 204.50603 706.00105 246.89259 709.31055 276.95117 C 712.67245 307.48458 727.57501 328.88626 744.00391 354.0332 C 772.26201 397.2867 784.08594 427.26165 784.08594 455.46875 C 784.08594 484.36095 768.78515 510.80688 743.03125 526.42578 C 720.13545 540.31168 696.61377 537.2459 669.63867 536.9082 C 606.19307 537.8937 598.44514 537.86587 580.80664 525.76367 C 554.54184 507.74277 528.01213 491.0039 515.89453 465.5293 C 511.52273 455.8477 510.00922 447.01794 510.07422 431.55664 C 510.18852 404.37044 517.14007 390.62337 552.32617 347.99023 C 590.84607 301.31793 603.41874 268.91709 597.39844 231.83789 C 591.70284 196.75832 578.15067 174.86617 557.98438 168.16797 C 550.58548 165.71047 545.06055 164.71132 544.53125 160.25781 C 543.05505 147.83654 572.19107 142.72247 582.13477 141.23047 C 590.19737 140.02067 589.08499 132.23818 580.74219 131.48828 C 550.13599 136.19941 527.44544 149.32302 529.55664 159.63867 C 529.94514 171.67497 532.97142 174.52492 548.04102 177.04492 C 562.24462 179.42022 573.48539 192.83551 580.61719 215.92578 C 587.47709 238.13568 587.79441 252.85485 581.84961 272.87305 C 575.36081 294.72335 566.02963 311.15087 547.74023 332.91797 C 506.07783 382.50247 496.22428 401.9069 496.23828 434.3418 C 496.25428 472.252 513.24151 497.35139 560.63281 529.49219 C 585.84311 546.58979 592.7933 551.12348 605.8125 551.58008 C 650.8362 553.15938 684.09377 553.87808 727.69727 551.58008 C 737.60317 551.05758 760.89101 536.94988 775.59961 516.80078 C 790.30811 496.65168 798.61695 469.95393 798.62695 450.70703 C 798.17135 430.03253 796.70741 423.42512 788.12891 403.35352 C 782.64571 390.52392 770.1707 368.11875 760.4082 353.56445 C 750.6457 339.01018 737.89818 317.07271 732.08008 304.81641 C 719.98568 279.33851 718.80354 264.25035 726.55664 234.37305 C 734.58634 203.42938 739.67428 183.27626 763.01758 177.15625 C 784.06588 171.63795 778.27194 149.41332 767.71094 143.62109 C 764.45064 141.83291 754.99942 136.87031 748.38672 135.08203 C 722.69322 128.13376 689.70085 122.07673 659.87305 121.74805 L 659.87305 121.74609 z M 616.95508 125.15039 C 627.83198 125.15039 628.0957 125.38124 628.0957 134.89844 C 628.0957 143.71934 627.35347 144.64844 620.29688 144.64844 C 610.82438 144.64844 605.8125 140.11834 605.8125 131.55664 C 605.8125 125.93924 607.18558 125.15039 616.95508 125.15039 z M 621.24805 153.38281 C 626.15655 153.23412 631.98468 154.82149 632.98828 157.87891 C 633.75988 160.22921 630.88819 161.36133 624.15039 161.36133 C 616.95519 161.36133 614.16992 160.14506 614.16992 157.00586 C 614.16992 154.6641 617.43035 153.49846 621.24805 153.38281 z M 1147.082 169.98828 C 1144.1584 169.89628 1141.0344 171.45005 1139.168 174.9375 C 1134.7545 183.1842 1081.6005 200.07409 1053.1562 202.26758 C 1031.323 203.95128 1024.6876 206.72676 1035.1875 209.78516 C 1045.4837 212.78426 1079.7594 207.99026 1105.3125 199.97656 C 1119.9818 195.37606 1136.9989 190.04029 1143.127 188.12109 C 1152.0899 185.31419 1154.2676 183.31539 1154.2676 177.90039 C 1154.2676 172.94572 1150.8411 170.10651 1147.082 169.98828 z M 1192.6465 175.70117 C 1190.6069 175.80893 1187.6295 177.88484 1182.123 182.39844 L 1182.123 182.39648 L 1173.7676 189.24805 L 1182.4785 189.26172 C 1191.6358 189.27622 1199.179 183.19211 1196.127 178.25391 C 1195.1624 176.69316 1194.2727 175.8028 1193.043 175.70508 C 1192.9149 175.6949 1192.7825 175.69399 1192.6465 175.70117 z M 608.20117 186.83789 C 604.89977 186.78459 603.68061 192.37773 605.66211 201.75195 C 611.11171 227.53272 611.80492 266.17588 607.14062 284.17578 C 598.87983 316.05538 585.22942 340.2524 561.16602 365.67383 C 552.07272 375.32043 542.12087 387.86897 534.51367 402.32617 C 527.44747 415.75507 530.17835 443.35444 542.43555 458.71484 C 546.04855 463.24264 546.00545 463.25259 554.81055 455.92969 C 574.00315 439.96789 584.72199 429.03655 582.93359 427.24805 C 581.85869 426.17315 574.97111 429.58899 567.62891 434.83789 C 547.91791 448.92939 547.46729 449.11734 545.52539 444.05664 C 544.30179 440.86814 547.8296 435.9185 557.2168 427.6582 C 572.7695 413.9726 570.24045 407.73126 554.28125 420.41406 C 541.95575 430.20906 538.4408 429.20943 541.9082 416.89453 C 546.3456 401.13453 550.80464 394.44555 571.11914 373.06055 C 582.03414 361.57025 594.34 346.35866 598.4668 339.25586 C 611.0408 317.61426 622.31861 283.09541 622.63281 265.28711 C 623.13211 236.98141 617.6837 194.32237 612.9668 189.60547 C 611.105 187.74368 609.49307 186.85874 608.20117 186.83789 z M 709.08203 192.3125 C 708.50483 192.2722 707.81909 192.34 707.02539 192.49414 C 697.10209 194.42154 685.26896 226.92235 685.44336 254.56445 C 685.49336 262.49075 686.3688 278.22768 689.0293 285.92188 L 693.86719 299.91211 L 685.07812 298.88672 C 675.64403 297.78534 664.51172 302.26336 664.51172 307.16016 C 664.51172 309.05776 667.9704 309.50807 673.9375 308.38867 C 681.2473 307.01737 683.76288 307.66251 685.14258 311.25781 C 687.49388 317.38521 684.80516 325.35002 679.72656 327.29883 C 677.48686 328.15822 675.6543 330.15428 675.6543 331.73438 C 675.6543 336.75077 686.5722 334.83209 692.6582 328.74609 C 697.1135 324.29079 698.12274 320.78216 696.86914 314.12109 L 695.2207 305.35938 L 701.41406 317 C 710.07566 333.28246 715.16001 322.51784 704.00781 298.89844 C 690.90931 271.15674 692.79884 244.92191 704.21094 216.85352 C 711.79764 198.19373 713.12323 192.59454 709.08203 192.3125 z M 926.66602 198.03516 C 925.22996 198.09973 924.82301 198.74522 925.60938 200.01758 C 927.62697 203.28199 943.78769 211.32805 966.24609 220.24805 C 973.14029 222.98625 981.28746 225.24558 984.35156 225.26758 C 989.84806 225.30868 989.85022 225.25557 984.51562 221.2207 C 981.54173 218.9714 978.04333 217.13086 976.74023 217.13086 C 975.43713 217.13086 966.49855 213.44957 956.87695 208.95117 C 942.39025 202.17806 931.68535 198.29552 927.34375 198.04297 C 927.09706 198.02862 926.87117 198.02593 926.66602 198.03516 z M 655.24414 200.35938 C 646.99104 200.35938 630.88281 208.85707 630.88281 213.21094 C 630.88281 218.18354 636.38141 218.00279 643.25391 212.80469 C 646.22781 210.55529 650.92802 208.71484 653.69922 208.71484 C 657.77512 208.71484 658.73828 210.99256 658.73828 220.63086 C 658.73828 227.18416 657.02529 235.01716 654.93359 238.03906 C 652.84189 241.06106 650.21405 246.47069 649.09375 250.05859 C 645.35595 262.02919 656.76768 255.69792 663.42578 242.10742 C 673.88848 220.75122 669.89204 200.35937 655.24414 200.35938 z M 1178.1699 204.14453 C 1162.6199 204.97285 1055.3828 230.94378 1055.3828 234.25977 C 1055.3828 238.13327 1061.9185 237.10553 1100.6621 227.13086 C 1120.9539 221.90656 1146.6384 216.1532 1157.7402 214.3457 C 1175.9427 211.3822 1183.6031 207.93121 1179.9922 204.32031 C 1179.9032 204.23131 1179.6968 204.17262 1179.3828 204.14453 C 1179.0787 204.11732 1178.6715 204.11781 1178.1699 204.14453 z M 1218.8945 216.35742 C 1218.255 216.35242 1217.6004 216.36343 1216.9297 216.39062 C 1204.2577 216.89602 1196.3961 221.52713 1198.5742 227.20312 C 1199.3358 229.18772 1196.346 241.49935 1191.9297 254.56445 C 1187.3888 267.99825 1185.0275 279.01732 1186.4941 279.92383 C 1190.5822 282.45032 1193.8074 279.18049 1195.4883 270.80859 C 1197.8977 258.80859 1213.586 225.48633 1216.8262 225.48633 C 1221.3839 225.48632 1220.1229 236.88126 1214.0957 250.16406 C 1211.0653 256.84256 1208.5859 264.05094 1208.5859 266.18164 C 1208.5859 274.25384 1213.9364 269.53915 1219.998 256.12695 C 1223.46 248.46675 1227.1933 242.19922 1228.2949 242.19922 C 1230.1808 242.19922 1229.6536 264.08109 1226.8516 302.08789 C 1224.533 333.53849 1213.5442 348.71994 1180.5449 366.06055 C 1160.5411 376.57225 1160.5996 368.75569 1162.3145 364.68359 C 1170.0476 366.01119 1172.4987 357.14534 1162.9863 353.27734 C 1153.7128 349.05203 1147.17 351.87974 1148.0176 359.74414 C 1148.5753 364.91764 1146.8199 366.52649 1138.2734 368.67969 C 1126.9662 371.52839 1124.9965 370.74369 1123.8496 362.92969 C 1122.8097 355.84429 1115.4615 356.45925 1114.4258 363.71875 C 1112.9581 374.00635 1121.4655 379.47252 1136.668 378.01172 C 1144.0505 377.30232 1150.0898 377.776 1150.0898 379.0625 C 1150.0898 383.8377 1098.474 405.72158 1075.7441 410.58398 C 1067.8228 412.27848 1066.3873 411.57273 1062.5137 404.08203 C 1060.1238 399.46043 1058.168 392.39155 1058.168 388.37305 C 1058.168 382.91765 1056.9327 381.30239 1053.293 381.99609 C 1042.4844 384.05609 1047.2525 407.47971 1060.6348 418.06641 C 1066.5038 422.70931 1070.4619 423.53117 1081.0234 422.29688 C 1088.2319 421.45438 1097.0058 418.96247 1100.5215 416.75977 C 1104.0373 414.55717 1120.7023 406.67695 1137.5547 399.24805 C 1228.1318 359.31965 1236.9132 349.45705 1240.6836 283.41602 C 1243.6089 232.17683 1238.7163 216.50854 1218.8945 216.35742 z M 934.83203 218.83594 C 929.00843 218.94053 923.13004 221.77303 918.90234 226.86719 C 914.67724 231.95809 913.05365 275.53769 916.74805 284.67969 C 917.83155 287.36079 920.81461 289.55273 923.37891 289.55273 C 927.38461 289.55273 927.81609 287.29751 926.43359 273.53711 C 923.42869 243.62881 931.48262 222.91939 944.51172 227.05469 C 952.10482 229.46459 950.52608 224.04813 942.58008 220.42773 C 940.11588 219.30495 937.47923 218.78841 934.83203 218.83594 z M 1183.3652 228.34961 C 1181.9155 228.36961 1180.7305 229.25253 1180.7305 230.98438 C 1180.7305 232.47587 1176.3445 242.71062 1170.9824 253.72852 C 1165.6203 264.74652 1161.2324 276.06029 1161.2324 278.87109 C 1161.2324 285.37519 1166.5046 285.54802 1168.4492 279.10742 C 1169.2587 276.42632 1174.2607 265.06894 1179.5645 253.86914 C 1184.8683 242.66934 1188.4794 232.32817 1187.5898 230.88867 C 1186.5285 229.17167 1184.8148 228.32957 1183.3652 228.34961 z M 1000.3652 251.12305 C 998.87833 251.08555 997.63127 251.48396 996.73438 252.38086 C 994.41118 254.70406 995.70608 256.76092 1001.7383 260.32422 C 1014.5965 267.91982 1017.3659 274.88116 1018.6523 302.84766 C 1019.6803 325.19426 1020.3944 328.21919 1023.9414 325.27539 C 1030.602 319.74759 1027.9147 275.63371 1020.293 265.37891 C 1014.0301 256.95251 1005.6754 251.25713 1000.3652 251.12305 z M 1085.5742 255.82227 C 1085.2684 255.80842 1084.9385 255.8119 1084.5879 255.83203 C 1079.9126 256.10049 1071.5226 259.32511 1066.7148 263.78711 C 1059.1208 270.83471 1057.0435 277.08066 1057.8594 290.41406 C 1058.3275 298.06436 1062.7866 293.61822 1064.8145 283.47852 C 1066.7442 273.83012 1076.409 261.69922 1082.166 261.69922 C 1084.1066 261.69922 1086.4691 260.44411 1087.416 258.91211 C 1088.6805 256.86618 1087.7147 255.91915 1085.5742 255.82227 z M 1124.8945 265.33398 C 1121.3316 265.47279 1115.5386 268.9715 1106.8789 275.65234 C 1098.4721 282.13814 1091.5938 288.47322 1091.5938 289.72852 C 1091.5938 295.65502 1098.3559 295.02684 1105.2051 288.46484 C 1114.6745 279.39264 1119.4492 279.21509 1119.4492 287.93359 C 1119.4492 291.63839 1120.2635 296.78976 1121.2578 299.38086 C 1123.8767 306.20546 1126.6548 299.8616 1128.9375 281.8457 C 1130.3709 270.53298 1129.4753 265.15552 1124.8945 265.33398 z M 1211.2988 292.50977 C 1206.7454 292.30237 1201.203 294.15053 1197.4434 297.91016 C 1189.8834 305.47016 1190.4443 309.05273 1199.1855 309.05273 C 1205.7578 309.05273 1206.3338 309.86458 1204.8906 317.08008 C 1204.0076 321.49538 1204.0876 325.90792 1205.0664 326.88672 C 1208.8366 330.65692 1212.7699 326.25034 1216.5762 313.99414 C 1218.7533 306.98244 1219.7661 299.24237 1218.8262 296.79297 C 1217.7836 294.07613 1214.8404 292.67108 1211.2988 292.50977 z M 1144.0215 323.88867 C 1139.1625 323.7781 1137.3315 328.79058 1140.9023 332.36133 C 1143.6108 335.06983 1151.4845 332.28683 1151.4395 328.89648 C 1151.4195 327.36448 1148.158 324.46997 1145.0332 323.98047 C 1144.6831 323.92557 1144.3454 323.89607 1144.0215 323.88867 z M 1171.209 333.00781 C 1170.219 332.99011 1169.3315 333.26426 1168.6719 333.92383 C 1167.2371 335.35862 1166.8169 338.49744 1167.7383 340.89844 C 1169.6954 345.99864 1176.7381 346.68644 1179.5996 342.05664 C 1181.7099 338.64202 1175.4989 333.08456 1171.209 333.00781 z M 174.57227 346.70117 L 174.57227 346.70508 C 163.10087 346.70508 151.66403 368.23669 144.24023 403.80859 C 142.00213 414.53279 138.1951 428.86756 135.7793 435.66406 C 124.8561 466.39476 122.66439 483.72479 122.96289 537.02148 L 123.25781 589.45508 C 110.48411 591.04088 104.68142 590.86502 87.978516 566.72852 C 81.272116 556.59442 80.536747 552.5223 78.810547 515.9707 C 77.778447 494.1138 75.453178 473.54557 73.642578 470.26367 C 66.636878 457.56547 53.813247 449.76953 39.935547 449.76953 C 28.379047 449.76953 25.534306 451.05128 16.441406 460.36328 C 8.1644064 468.83978 5.3164718 474.68071 2.2011719 489.57031 C -5.216928 525.02471 5.7104286 552.65584 41.173828 588.11914 C 57.875828 604.82124 66.675497 610.90056 92.716797 623.72266 C 109.9882 632.22676 126.50096 639.18359 129.41016 639.18359 C 132.31926 639.18359 144.70117 642.09097 144.70117 650.32617 C 144.70117 662.00327 156.70895 661.46875 163.81445 661.46875 C 173.79135 661.46875 187.58661 657.02065 190.07031 653.00195 C 191.00771 651.48525 198.61287 651.74754 208.85547 653.65234 C 221.82087 656.05894 234.13471 656.05808 258.78711 653.64258 C 280.14301 651.55018 292.45778 651.38552 294.23828 653.16602 C 299.94828 658.87602 329.69681 654.8628 342.50781 646.6543 C 350.89861 641.278 344.23002 600.54353 327.85352 557.14453 C 320.70492 538.20033 320.56274 536.51899 321.27734 479.15039 C 322.08204 414.55299 319.47033 399.1284 307.42383 397.3418 C 300.15133 396.2633 299.98298 398.78666 306.29688 414.19336 C 311.68167 427.33296 312.61556 457.30942 309.22656 508.26172 C 307.53366 533.71562 308.00635 539.49698 312.87305 552.83008 C 327.74605 593.57648 334.84766 617.88416 334.84766 628.03906 C 334.84766 639.83116 330.28399 643.51561 328.77539 632.94141 C 328.28369 629.49501 325.54084 626.25472 322.64844 625.70312 C 318.04584 624.82523 317.64007 625.91802 319.29297 634.72852 C 321.15417 644.64972 321.07617 644.75195 311.63867 644.75195 C 301.55297 644.75195 297.10627 641.32285 295.42188 632.24805 C 293.97268 624.44015 284.70898 623.0906 284.70898 630.6875 C 284.70898 638.8344 274.75703 641.95592 242.51953 643.91992 C 214.89593 645.60282 202.89182 643.29763 192.26562 634.26953 C 186.80143 629.62723 181.64453 631.82091 181.64453 638.78711 C 181.64453 646.19501 175.93093 650.32227 165.67383 650.32227 C 158.07863 650.32227 155.37649 648.61027 150.83789 640.91797 C 147.78568 635.74481 145.2026 633.06151 140.86914 631.4082 C 140.29342 624.59127 138.59085 604.32951 137.53125 590.21484 C 137.55888 589.83565 137.55873 589.44736 137.49609 589.04102 C 136.96049 585.21092 135.92918 564.33384 135.20508 542.64844 L 133.88867 503.2207 L 142.25391 501.38281 C 144.22451 505.66131 152.11395 497.74647 153.93945 495.54688 C 156.73235 492.18158 155.43634 491.54688 145.77344 491.54688 C 133.71924 491.54688 133.35318 491.15306 136.04688 481.10156 C 137.14107 477.01866 139.85403 474.83398 143.83203 474.83398 C 147.19063 474.83398 152.3718 472.99354 155.3457 470.74414 C 160.4127 466.91164 160.09739 466.64941 150.30859 466.56641 C 139.12979 466.47141 138.35633 465.2292 142.57812 454.125 C 144.52932 448.9931 147.32902 446.97852 152.51172 446.97852 C 161.53592 446.97852 171.19833 442.00206 169.01953 438.47656 C 168.10873 437.00286 162.36464 436.62746 156.08984 437.63086 C 145.15084 439.38006 144.86562 439.22792 146.91992 432.76172 C 148.08602 429.09102 151.88282 414.61138 155.35742 400.58398 C 161.90382 374.15488 169.06821 359.41255 173.91211 362.40625 C 176.40091 363.94435 175.83277 382.65539 172.95117 394.05469 C 172.12517 397.32249 174.41564 398.12372 183.46094 397.73242 C 194.56004 397.25232 195.09836 397.61706 196.81836 406.78516 C 197.96516 412.89786 200.2019 416.33789 203.0293 416.33789 C 206.56 416.33789 207.15393 414.14866 205.98633 405.44336 C 204.40223 393.63306 207.25017 391.39164 223.94727 391.30664 C 230.35957 391.27364 231.55679 392.56143 232.30469 400.29883 C 232.87949 406.24603 234.84233 409.64375 238.05273 410.25195 C 241.95813 410.99175 242.92578 409.19706 242.92578 401.22266 C 242.92578 392.02016 243.5572 391.26953 251.2832 391.26953 C 258.2251 391.26953 259.63867 392.39098 259.63867 397.89258 C 259.63867 404.80678 265.77912 412.05682 268.94922 408.88672 C 269.95722 407.87872 270.78125 404.21118 270.78125 400.73828 C 270.78125 395.92038 272.59681 394.21547 278.44141 393.54297 C 285.24591 392.76007 286.10156 391.51951 286.10156 382.44141 C 286.10156 375.45961 288.24197 369.945 292.85547 365.0332 C 300.72317 356.6565 308.67712 355.2078 305.57812 362.7168 C 300.53013 374.9481 299.01938 387.00035 302.27148 389.09375 C 310.74378 394.54775 322.36172 359.3269 315.01172 350.4707 C 307.79622 341.77656 290.08907 351.09063 278.26367 369.79883 L 270.46484 382.13477 L 233.71484 383.63086 C 213.50224 384.45326 194.94235 385.94923 192.46875 386.95703 C 188.72545 388.48213 187.64692 385.93073 186.04102 371.73633 C 183.51272 349.38993 182.28047 346.70117 174.57227 346.70117 z M 719.46875 355.41406 C 715.67875 355.38806 716.07353 359.59819 725.14453 373.99609 C 742.16673 401.01519 751.39454 444.98211 745.58984 459.41211 C 744.04914 463.24221 740.78198 471.07717 738.33008 476.82227 C 734.07578 486.79017 734.11396 487.26758 739.16016 487.26758 C 745.75476 487.26758 752.37843 477.40791 756.74023 461.09961 C 763.98953 433.99541 738.61955 362.29444 722.93945 356.27734 C 721.50165 355.72554 720.34335 355.41996 719.46875 355.41406 z M 923.68945 356.63281 C 922.38595 356.75671 921.67773 358.38085 921.67773 361.56445 C 921.67773 375.88235 947.54115 399.96394 966.40625 403.21094 C 980.64875 405.66234 994.75512 404.28551 992.51562 400.66211 C 991.67483 399.30161 986.98636 398.16095 982.09766 398.12695 C 973.25326 398.06595 954.93261 390.6478 946.50781 383.7168 C 944.07801 381.7177 938.73517 374.75524 934.63477 368.24414 C 929.68697 360.38754 925.86185 356.42621 923.68945 356.63281 z M 1030.3613 367.23047 C 1027.8718 367.17147 1026.4506 372.11482 1027.0762 381.13672 C 1028.1277 396.30112 1022.5896 410.09018 1013.4922 414.95898 C 1010.401 416.61328 1008.6538 419.22848 1009.6074 420.77148 C 1010.561 422.31438 1014.6699 423.19356 1018.7383 422.72266 C 1032.4511 421.13586 1043.816 387.94135 1035.7852 372.93555 C 1033.7331 369.10125 1031.855 367.26567 1030.3613 367.23047 z M 621.98438 387.48828 C 618.95678 387.50928 614.90441 390.59026 608.82031 396.85156 C 601.79651 404.07986 600.11286 407.47418 602.41016 409.77148 C 604.70736 412.06878 607.39281 411.66377 612.63281 408.23047 C 619.55831 403.69267 619.74023 403.74042 619.74023 410.13672 C 619.74023 413.74682 620.601 417.56193 621.6543 418.61523 C 628.5483 425.50923 633.39948 407.90259 628.30078 394.49219 C 626.52918 389.83229 624.65587 387.46938 621.98438 387.48828 z M 716.36328 409.95312 C 707.17818 409.90013 692.43828 421.80351 696.79688 426.16211 C 699.07247 428.43771 701.46908 428.46004 705.60938 426.24414 C 713.73357 421.89624 714.44727 422.2872 714.44727 431.0918 C 714.44727 435.4326 715.30998 439.84709 716.36328 440.90039 C 721.09738 445.63449 724.19727 439.64071 724.19727 425.75391 C 724.19727 411.69511 723.72112 410.61899 717.23242 409.99609 C 716.94852 409.96909 716.65958 409.95512 716.36328 409.95312 z M 286.13672 426.35156 C 281.48602 426.28656 273.56641 433.4722 273.56641 438.9707 C 273.56641 447.6636 288.56021 445.1232 289.82031 436.2168 C 290.33301 432.593 289.65555 428.53055 288.31445 427.18945 C 287.74835 426.62345 286.99802 426.36356 286.13672 426.35156 z M 241.5332 430.26953 C 236.3172 430.26953 230.93124 437.95873 232.77734 442.76953 C 234.82954 448.11753 237.34371 448.07469 245.22461 442.55469 C 250.24101 439.04109 250.87466 437.31277 248.28906 434.19727 C 246.49636 432.03727 243.4561 430.26953 241.5332 430.26953 z M 1331.2773 433.76953 C 1330.135 433.75853 1328.9933 433.7593 1327.8535 433.7793 C 1322.6431 433.8453 1317.4642 434.17807 1312.375 434.79297 C 1297.4411 436.59737 1294.1255 437.94258 1293.2695 442.54688 C 1291.5933 451.56207 1268.2831 482.42941 1247.0703 503.72461 C 1189.7133 559.70451 1132.3864 565.50462 1021.252 526.95312 C 970.64845 509.39923 900.38137 503.42247 844.07617 527.23047 C 783.82987 553.79767 741.28503 595.19794 705.45703 662.11914 C 694.53423 682.52134 685.59766 701.40017 685.59766 704.07227 C 685.59766 710.19857 690.25971 719.33556 697.37891 727.16016 C 704.79551 735.31156 702.2059 738.25314 684.3457 741.96094 C 655.802 747.88654 642.03398 740.07897 618.08008 704.38477 C 595.31938 670.46847 549.46037 667.56521 531.10938 698.87891 C 522.18388 714.10921 522.26018 718.39052 531.70898 732.60352 C 547.43638 756.26092 577.36559 778.5708 608.99609 790.2168 C 637.62219 802.1239 661.08915 796.24078 687.65625 790.89258 C 702.30605 788.27968 730.25555 774.50275 738.28125 765.93945 L 745.00391 758.76758 L 748.05664 764.88672 C 751.76994 772.33452 772.47789 779.0629 784.86719 776.8457 C 792.37359 775.5023 795.07508 772.43694 803.98828 755.15234 C 824.86748 714.66354 847.87114 685.59682 883.36914 661.41602 C 924.77424 633.21122 966.88518 637.60612 1012.8965 650.04102 C 1067.3566 664.75922 1154.0089 698.37987 1215.8184 682.45117 C 1305.6467 659.30197 1382.4037 587.869 1423.7441 512.9082 C 1437.2178 487.8939 1437.0737 480.13615 1422.875 466.12305 C 1403.0351 446.54235 1366.6886 434.11064 1331.2773 433.77344 L 1331.2773 433.76953 z M 662.03711 436.97461 C 661.32971 437.00461 660.59153 437.15381 659.83203 437.44531 C 656.13493 438.86401 653.16503 443.5193 656.07812 447.0293 C 660.09492 451.8692 667.44819 451.39344 669.18359 446.18164 C 670.43529 442.42194 666.98871 436.76741 662.03711 436.97461 z M 1325.8242 444.01758 C 1337.7782 443.91858 1353.1623 444.97316 1363.0371 447.06836 C 1379.8076 450.62666 1399.8879 460.12139 1409.1367 468.86719 C 1416.8112 476.12439 1416.9979 479.09718 1410.0156 482.83398 C 1397.3609 489.60658 1359.6952 483.16395 1331.1465 469.34375 C 1317.5861 462.77925 1305.6605 450.76578 1308.3633 446.39258 C 1309.3048 444.86928 1316.5266 444.09488 1325.8242 444.01758 z M 695.42188 444.34961 C 690.43578 444.31461 688.03894 449.11745 690.46484 455.43945 C 692.82744 461.59645 701.74096 459.16434 702.75586 452.08594 C 703.33606 448.03954 701.76534 445.73207 697.71094 444.67188 C 696.89944 444.45968 696.13417 444.35461 695.42188 444.34961 z M 589.73438 451.05469 C 586.37408 451.05469 566.81445 467.86726 566.81445 470.75586 C 566.81445 476.51726 577.92073 472.79523 584.67383 464.76953 C 591.88473 456.19993 593.78287 451.05469 589.73438 451.05469 z M 274.61133 453.45117 C 273.83103 453.46517 273.01637 453.49492 272.16797 453.54492 C 257.24977 454.41172 255.40061 455.87522 259.97461 463.19922 C 264.99111 471.23202 258.56084 478.50769 247.83594 476.93359 C 238.08934 475.50309 234.69353 479.92987 241.64062 485.00977 C 248.01762 489.67277 253.53411 489.63655 262.12891 484.87305 C 267.07021 482.13445 271.15489 481.9004 277.90039 483.9707 C 288.51579 487.2286 295.85156 485.19645 295.85156 478.99805 C 295.85156 475.90355 293.64402 474.86199 288.29102 475.42969 C 279.15232 476.39879 275.82327 467.43846 283.29297 461.97656 C 290.26607 456.87766 286.31683 453.23677 274.61133 453.45117 z M 1345.7559 457.55664 C 1339.4291 457.53964 1334.5175 458.56894 1333.0391 460.96094 C 1330.0531 465.79244 1337.5121 468.8979 1352.7285 469.1582 C 1360.3887 469.2895 1369.1644 470.47432 1372.2285 471.79102 C 1375.2925 473.10772 1380.8134 474.27326 1384.498 474.38086 C 1390.8372 474.56616 1390.9478 474.29884 1386.543 469.43164 C 1380.4399 462.68764 1359.6749 457.59424 1345.7559 457.55664 z M 39.408203 458.91602 C 42.988503 458.91602 46.587656 460.18446 50.035156 462.75586 C 59.570856 469.86856 61.637747 477.625 53.998047 477.625 C 50.977247 477.625 41.356441 481.38437 32.619141 485.98047 C 23.881841 490.57657 15.695281 494.33789 14.425781 494.33789 C 11.027681 494.33789 16.472872 477.32648 22.451172 469.26758 C 27.525372 462.42738 33.441103 458.91412 39.408203 458.91602 z M 680.83008 460.00195 C 680.41418 460.01295 680.01191 460.0428 679.62891 460.0918 C 674.83051 460.7054 674.17838 462.55762 674.92578 473.44922 C 675.61098 483.43262 674.57017 487.19951 669.98438 491.34961 C 665.53168 495.37931 663.41239 495.84218 660.90039 493.33008 C 659.09809 491.52788 656.62023 490.05273 655.39453 490.05273 C 651.95733 490.05273 652.76007 499.67413 656.50977 503.42383 C 660.80237 507.71653 664.00836 507.61434 673.03906 502.90234 C 677.51586 500.56644 681.86034 500.01378 684.18164 501.48438 C 690.84304 505.70457 697.73438 504.29835 697.73438 498.71875 C 697.73438 495.41735 695.91797 493.60115 692.85938 493.84375 C 686.60048 494.34045 684.697 480.692 689.7168 471.3125 C 692.7096 465.7204 692.6336 464.1894 689.25 462 C 687.3011 460.739 683.74188 459.92355 680.83008 460.00195 z M 1297.4453 465.53906 L 1309.207 472.96484 C 1325.1469 483.02724 1331.4557 485.30398 1364.3281 492.86328 C 1381.6074 496.83688 1396.5318 498.74135 1402.6289 497.75195 C 1414.0566 495.89745 1414.3178 496.52359 1407.9121 510.36719 C 1374.4372 573.45689 1332.7768 612.62092 1273.9512 643.16992 C 1197.0163 683.12322 1181.7535 679.01645 1109.375 662.28125 C 1076.2381 655.14335 1039.4711 642.58748 1011.5039 633.20898 C 973.77411 619.05578 922.79557 623.23502 889.29297 638.91602 C 872.31757 646.86132 857.31307 662.00805 833.23047 686.18945 C 818.37377 701.10705 809.13384 713.47209 801.24414 728.99219 C 790.45374 750.21849 785.87695 756.60841 785.87695 750.44531 C 785.87695 748.78861 780.6721 741.78797 774.3125 734.88867 C 753.5261 712.33817 729.09941 698.20907 705.31641 694.98047 C 703.90571 694.78897 705.60424 689.30407 709.08984 682.79297 C 748.15594 609.81577 782.29056 573.94685 840.69336 544.49805 C 882.34226 523.74195 942.10263 517.36503 990.61133 532.70703 C 1095.8443 565.98933 1184.0894 593.93847 1263.4863 506.60938 C 1275.8509 492.82108 1288.5507 477.93906 1291.707 473.53906 L 1297.4453 465.53906 z M 1301.998 481.79688 C 1301.8044 481.78688 1301.6119 481.79664 1301.4219 481.80664 C 1298.1291 481.99234 1295.2959 484.84479 1290.5723 492.15039 C 1279.965 508.55629 1249.5789 538.17405 1230.0703 551.12305 C 1206.8635 566.52685 1173.1849 580.49796 1151.2539 583.81836 C 1141.0349 585.36566 1130.1657 587.60221 1127.1016 588.78711 C 1115.7567 593.17431 1137.3053 595.41297 1157.5156 591.94727 C 1174.3595 589.05887 1177.2428 589.18256 1179.3125 592.88086 C 1180.6243 595.22486 1184.2775 597.14258 1187.4316 597.14258 C 1192.1148 597.14258 1192.8533 595.90144 1191.4648 590.36914 C 1190.1405 585.09274 1191.0611 583.18217 1195.623 581.73438 C 1198.8444 580.71198 1202.8568 581.25525 1204.541 582.93945 C 1209.8133 588.21175 1214.8457 586.30571 1214.8457 579.03711 C 1214.8457 572.10071 1217.876 570.59573 1229.7285 571.64453 C 1232.7057 571.90803 1235.4521 569.83664 1236.2695 566.71094 C 1237.0444 563.74764 1245.3898 555.28781 1254.8145 547.91211 C 1283.5574 525.41801 1302.1563 506.1638 1300.1621 500.9668 C 1298.9462 497.7984 1300.1411 495.89017 1303.9707 494.88867 C 1311.2828 492.97647 1311.167 484.00733 1303.8047 482.08203 C 1303.1764 481.91773 1302.5787 481.82088 1301.998 481.80078 L 1301.998 481.79688 z M 55.072266 486.48047 C 55.392266 486.48037 55.69205 486.49534 55.96875 486.52734 C 62.39615 487.27284 63.362288 488.77654 64.117188 499.21094 C 64.875487 509.69044 64.293894 511.05078 59.058594 511.05078 C 50.553494 511.05078 42.538931 515.97191 31.144531 528.19141 C 25.649631 534.08401 20.256103 538.90625 19.158203 538.90625 C 15.967403 538.90625 11.728516 525.43973 11.728516 515.30273 C 11.728516 506.70013 13.137325 505.21654 30.203125 495.83594 C 40.716025 490.05734 50.271466 486.48187 55.072266 486.48047 z M 575.30078 487.46289 C 573.39738 487.33949 572.38672 488.49578 572.38672 490.95898 C 572.38672 501.07428 608.7779 519.25476 637.8457 523.66016 C 645.5059 524.82106 664.30851 525.53419 679.62891 525.24609 C 702.50091 524.81599 709.89095 523.55037 720.93945 518.17188 C 733.66215 511.97838 739.42632 505.74467 735.79102 502.10938 C 734.89462 501.21298 728.15837 503.44943 720.82227 507.07812 C 708.60177 513.12282 704.09875 513.66559 667.09375 513.55859 C 631.03565 513.45439 625.44626 512.78536 614.97656 507.31836 C 608.52646 503.95026 601.41543 501.19531 599.17383 501.19531 C 596.93233 501.19531 591.37407 498.06057 586.82227 494.23047 C 581.67147 489.89627 577.74808 487.62159 575.30078 487.46289 z M 60.878906 516.91406 C 63.911324 517.17901 64.749875 521.48861 65.914062 529.25195 C 67.774262 541.65665 67.55614 542.12729 53.681641 555.71289 C 45.911941 563.32069 38.998659 569.54688 38.318359 569.54688 C 36.293859 569.54688 22.868438 551.12908 22.898438 548.39258 C 22.913437 547.00508 27.61365 541.81392 33.34375 536.85742 C 48.72605 523.55162 56.209188 517.25062 60.242188 516.91602 C 60.464594 516.89756 60.676745 516.8964 60.878906 516.91406 z M 1375.5605 517.81055 C 1372.3485 517.65705 1369.803 521.40028 1364.8438 531.17188 C 1353.3857 553.74807 1342.5965 566.50838 1318.8398 585.58398 C 1293.5654 605.87828 1255.5612 627.64115 1251.8594 623.93945 C 1250.6574 622.73735 1251.8694 620.15011 1254.5449 618.19141 C 1265.7148 610.02371 1258.1541 603.62006 1244.2168 609.44336 C 1234.1653 613.64316 1231.8778 618.62586 1237.4453 624.19336 C 1242.42 629.16816 1238.2165 632.55041 1219.6914 638.47461 C 1186.6926 649.02741 1143.6007 652.59947 1127.9883 646.07617 C 1122.5285 643.79477 1117.2751 642.71323 1116.3145 643.67383 C 1111.3339 648.65443 1119.0643 652.24946 1134.7773 657.09766 C 1214.2808 669.17816 1285.9703 633.92594 1341.6719 584.33984 C 1352.2434 574.49314 1373.6211 546.34729 1373.6211 542.27539 C 1373.6211 541.51689 1376.3386 537.07896 1379.6602 532.41406 C 1385.4495 524.28376 1385.4902 523.77907 1380.6426 520.23438 C 1378.6186 518.75438 1377.0205 517.88035 1375.5605 517.81055 z M 929.33008 541.47852 C 871.77868 541.61272 803.34478 577.48225 765.45508 627.37305 C 751.63988 645.56405 737.26611 668.71101 734.63281 677.00781 C 733.62961 680.16861 734.11639 686.18967 735.71289 690.38867 C 738.12319 696.72827 739.31479 697.44145 742.74609 694.59375 C 745.01879 692.70765 746.87891 688.22882 746.87891 684.64062 C 746.87891 674.14193 771.66825 636.25452 791.37305 616.63672 C 820.51905 589.52362 849.21863 569.81973 884.61523 558.11133 C 907.16443 550.70013 947.73868 549.77838 971.11328 556.14648 L 985.04102 559.93945 L 984.09375 571.68555 C 983.15935 583.27885 987.50991 592.95347 992.32031 589.98047 C 993.67871 589.14087 994.79102 583.51426 994.79102 577.47656 C 994.79102 568.86246 995.83896 566.50802 999.66406 566.54102 C 1008.3705 566.61702 1010.6444 570.43344 1010.375 584.52344 C 1010.1631 595.61004 1011.0816 598.56636 1014.9844 599.35156 C 1018.9803 600.15546 1019.8594 598.31649 1019.8594 589.15039 C 1019.8594 576.16029 1022.3043 573.80436 1031.9629 577.47656 C 1036.7267 579.28776 1039.246 582.62881 1039.8555 587.94141 C 1040.9511 597.49171 1048.7169 598.50292 1050.0254 589.26562 C 1050.5303 585.70143 1052.412 583.34188 1054.2051 584.02148 C 1063.5796 587.57468 1103.5741 596.71097 1108.4746 590.79297 C 1111.2582 587.43157 1107.8664 586.04345 1068.6348 573.12695 C 1024.023 558.43905 975.65738 541.84782 929.33008 541.47852 z M 1280.3066 542.89453 C 1279.0238 542.88453 1277.7591 543.34069 1276.2461 544.15039 C 1267.4994 548.83159 1260.6953 560.53706 1264.5059 564.34766 C 1266.8273 566.66906 1268.9766 566.26955 1272.7988 562.81055 C 1279.6321 556.62645 1283.6347 556.92116 1287.3594 563.88086 C 1290.6173 569.96826 1298.552 570.2666 1300.5137 564.375 C 1301.1577 562.4408 1297.2401 556.41392 1291.8086 550.98242 C 1286.03 545.20392 1283.1288 542.91723 1280.3066 542.89453 z M 66.775391 557.75391 C 67.870391 557.83091 68.704728 558.68782 69.361328 560.54102 C 70.302228 563.19622 73.018238 567.63164 75.398438 570.39844 C 79.093037 574.69314 79.176544 576.31043 75.964844 581.45312 C 73.895844 584.76622 71.367303 590.60208 70.345703 594.42188 L 68.488281 601.36719 L 56.359375 590.05469 L 44.232422 578.74023 L 51.802734 568.81445 C 59.466434 562.45285 63.977191 557.55761 66.775391 557.75391 z M 936.23438 564.55664 C 934.15838 564.62064 932.29895 566.53085 930.87305 570.28125 C 927.88415 578.14265 918.31533 584.39052 912.61523 582.20312 C 910.55573 581.41283 908.46078 577.86882 907.95898 574.32812 C 907.45708 570.78733 905.16509 567.89062 902.86719 567.89062 C 897.63419 567.89062 895.84807 580.86833 900.00977 588.64453 C 903.76407 595.65943 911.91272 595.81811 926.54492 589.16211 C 940.96552 582.60231 946.66884 575.88951 942.89844 569.91211 C 940.60464 566.27561 938.31047 564.49304 936.23438 564.55664 z M 84.865234 584.35742 C 85.970634 584.18732 87.245638 585.4828 89.460938 587.8125 C 93.252337 591.795 94.250506 595.98057 93.253906 603.66797 C 91.716506 615.52627 90.849706 615.92907 81.816406 608.98047 C 75.451706 604.08457 75.407047 603.72455 79.810547 593.18555 C 82.304847 587.21575 83.443934 584.57602 84.865234 584.35742 z M 1241.5703 588.93555 C 1239.7659 588.97455 1237.994 589.58993 1236.6562 590.92773 C 1234.955 592.62893 1235.6842 595.29354 1238.668 598.27734 C 1244.3936 604.00294 1249.666 602.69733 1249.666 595.55273 C 1249.666 591.56373 1245.5399 588.85045 1241.5703 588.93555 z M 108.38867 598.25195 C 109.73748 598.31218 111.47323 598.61352 113.75195 599.04102 C 115.48189 599.34726 118.4679 599.3244 121.74609 598.91797 C 122.55247 604.66639 124.64822 618.80354 127.13086 628.19531 C 117.70107 625.67433 105.55543 621.03003 101.38086 618.08398 C 100.89906 617.74398 101.35789 612.92003 102.40039 607.36523 C 103.76997 600.06481 104.34224 598.07128 108.38867 598.25195 z M 943.28906 599.69336 C 916.43326 599.51856 885.05116 604.66927 852.66406 629.25977 C 833.86576 641.71167 825.03073 651.26454 807.01953 678.61914 C 801.21773 687.43054 790.84314 699.59394 783.96484 705.64844 C 771.88944 716.27774 770.24647 722.48633 779.50977 722.48633 C 787.97077 722.48633 802.63708 708.19366 817.51758 685.44336 C 866.31608 602.72876 942.62295 600.22521 1021.252 623.28711 C 1054.141 633.35221 1091.0827 641.70703 1102.6914 641.70703 C 1119.6104 641.70703 1109.9053 636.86621 1075.4805 628.13281 C 1057.9112 623.67561 1030.3755 616.07725 1014.2891 611.24805 C 998.20266 606.41875 975.89103 601.7094 964.70703 600.7832 C 957.97453 600.2095 950.80876 599.74226 943.28906 599.69336 z M 1122.2344 602.91992 C 1120.8322 602.98192 1119.5168 603.47981 1118.0742 604.38281 C 1112.9593 607.58371 1112.9688 619.16342 1112.9688 626.85352 C 1112.9688 632.61612 1120.8265 630.3663 1124.041 623.2832 C 1126.533 617.7923 1126.627 617.7903 1137.4766 623.1582 C 1147.4 628.068 1148.8041 628.16271 1152.7715 624.19531 C 1156.7389 620.22781 1156.2719 619.42184 1147.6914 615.39844 C 1142.4952 612.96204 1134.8072 608.79648 1130.6074 606.14258 C 1127.3033 604.05478 1124.9438 603.01202 1122.8398 602.91992 C 1122.6352 602.90992 1122.4347 602.90992 1122.2344 602.91992 z M 1208.8711 603.12109 C 1203.5773 603.01239 1201.5459 607.9797 1205.6582 612.0918 C 1208.9034 615.3371 1216.2383 612.66769 1216.2383 608.24219 C 1216.2383 605.96509 1213.4178 603.70249 1209.9707 603.21289 C 1209.5896 603.15889 1209.224 603.12809 1208.8711 603.12109 z M 831.40234 611.94727 C 829.38674 611.85127 827.22721 614.71908 826.16211 620.39648 C 824.18461 630.93708 815.82078 641.70703 809.61328 641.70703 C 807.11548 641.70703 805.40106 637.94902 804.84766 631.26172 C 804.26466 624.21782 802.62229 620.81641 799.80469 620.81641 C 793.37269 620.81641 792.45613 647.88973 798.67773 654.11133 C 805.01323 660.44683 815.76164 657.57167 825.55664 646.92188 C 833.84944 637.90538 837.00518 629.16152 835.55078 619.22852 C 834.84728 614.42342 833.18084 612.03187 831.40234 611.94727 z M 572.63477 688.9043 C 576.52917 688.8613 580.34402 689.46528 583.82422 690.80078 C 587.74842 692.30658 587.54884 693.10456 582.33594 696.75586 C 575.86024 701.29156 563.03516 727.58818 563.03516 736.33008 C 563.03516 745.56138 558.31773 745.08799 549.42773 734.96289 C 538.19623 722.17109 536.23911 713.78305 542.32031 704.50195 C 548.55171 694.99155 560.95177 689.0346 572.63477 688.9043 z M 593.2832 696.10938 C 595.785 695.99928 602.51717 701.13908 606.57617 707.33398 C 610.60357 713.48048 610.70164 716.24138 607.43164 731.60938 C 605.40224 741.14637 603.68805 754.27786 603.62305 760.78906 C 603.55805 767.30016 602.23399 772.5285 600.67969 772.4082 C 599.12539 772.2878 592.21256 768.72348 585.31836 764.48828 C 573.29496 757.10218 572.80177 756.27515 573.20117 744.21875 C 573.65687 730.46495 579.32269 717.33947 588.49219 708.79688 C 591.97089 705.55598 593.69842 701.49624 592.70312 698.90234 C 591.97313 696.99994 592.3042 696.15247 593.2832 696.10938 z M 709.64258 709.35156 C 714.09318 709.52026 720.7498 712.04315 724.5957 715.87695 C 728.3089 719.57865 728.17053 720.48888 723.36523 724.05078 C 720.39133 726.25528 717.01558 728.05859 715.86328 728.05859 C 712.84458 728.05859 705.0957 716.36981 705.0957 711.81641 C 705.0957 709.99661 706.97228 709.25036 709.64258 709.35156 z M 744.2207 726.26562 C 745.4867 726.34662 746.8565 726.88368 748.1875 727.98828 C 751.4867 730.72638 751.76552 732.49098 749.35742 735.39258 C 745.18622 740.41848 741.52033 740.21068 739.45703 734.83398 C 737.55593 729.87978 740.4225 726.02153 744.2207 726.26562 z M 619.83594 731.71094 C 620.89734 731.64994 625.49496 735.36605 630.50586 740.37695 C 638.57306 748.44415 640.49516 752.71856 641.81836 765.53906 L 643.41211 780.98242 L 634.56055 780.70508 C 620.92835 780.27748 611.71979 776.84841 612.37109 772.44141 C 615.87089 748.75891 618.75638 732.69089 619.67188 731.77539 C 619.70987 731.73739 619.76484 731.71494 619.83594 731.71094 z M 760.88672 738.66602 C 761.82952 738.74302 762.8323 739.72281 764.2793 741.38281 C 768.6293 746.37341 774.73438 757.1906 774.73438 759.9082 C 774.73438 760.775 772.54047 761.29591 769.85938 761.06641 C 761.70988 760.36861 749.66406 758.36784 749.66406 757.71094 C 749.66406 757.37064 752.01587 752.4807 754.88867 746.8457 C 757.91087 740.9178 759.31542 738.53772 760.88672 738.66602 z M 725.12891 744.11914 C 726.84771 744.16314 728.41526 744.58609 729.53906 745.49219 C 732.37296 747.77709 732.14591 749.40144 728.41211 753.52734 C 721.47911 761.18814 713.45312 759.92984 713.45312 751.18164 C 713.45312 747.27064 719.97221 743.98744 725.12891 744.11914 z M 697.13867 755.95703 C 703.99027 755.89303 706.31091 764.84841 700.53711 769.07031 C 693.49011 774.22321 689.02096 773.44983 686.88086 766.70703 C 684.88076 760.40543 689.05447 756.03203 697.13867 755.95703 z M 657.45703 756.63867 C 658.05733 756.62867 658.70222 756.75498 659.38672 757.01758 C 661.79712 757.94248 665.42437 758.69922 667.44727 758.69922 C 671.36847 758.69922 677.89555 773.82896 675.15625 776.56836 C 674.25995 777.46466 669.37252 778.19727 664.29492 778.19727 C 656.77282 778.19727 654.73921 776.90923 653.31641 771.24023 C 651.25151 763.01313 653.25543 756.68447 657.45703 756.63867 z" fill="#00B894" transform="translate(87.16504,91.481113) matrix(0.26458333,0,0,0.26458333,-782.38606,-133.27292) translate(2627.607,157.95329)"/>
</svg>