<?xml version="1.0" ?><svg height="262.00372mm" viewBox="0 0 312.24176 262.00372" width="312.24176mm" xmlns="http://www.w3.org/2000/svg">
    <path d="m 29898.377,11990.832 c -60.751,1.089 -119.303,19.269 -148.408,35.725 -51.742,29.254 -70.52,104.056 -77.289,140.203 -6.768,36.147 16.743,126.231 8.283,162.859 -8.461,36.628 -63.231,71.253 -83.625,85.92 0,0 25.52,-5.91 54.82,-11.601 29.3,-5.691 61.986,11.381 102.596,30.457 40.61,19.075 106.69,16.271 199.131,3.287 92.441,-12.984 117.823,-82.474 148.013,-169.916 30.191,-87.442 14.185,-174.045 -70.597,-239.606 -37.093,-28.683 -85.673,-38.175 -132.924,-37.328 z m -467.539,308.533 c -35.851,-0.676 -74.041,15.302 -100.09,58.582 -41.679,69.248 -17.277,147.795 13.715,172.881 0,0 27.074,16.191 68.842,8.897 41.768,-7.293 86.208,-43.6 103.574,-78.705 17.366,-35.105 17.365,-117.819 -27.164,-144.749 -16.698,-10.098 -37.367,-16.5 -58.877,-16.906 z m 561.109,224.608 c -14.486,0.02 -29.795,2.045 -44.99,6.478 -48.625,14.187 -78.282,44.083 -85.228,97.141 -6.59,33.662 29.211,58.749 77.925,71.412 48.714,12.664 126.729,-14.748 146.143,-51.777 19.414,-37.028 0.178,-77.023 -20.127,-98.743 -13.96,-14.932 -41.852,-24.561 -73.723,-24.511 z m -729.801,38.861 c -3.336,0.03 -6.712,0.162 -10.119,0.412 -54.503,4.007 -98.318,69.649 -124.857,124.471 -26.539,54.821 -30.904,144.186 -31.705,181.455 -5.076,24.766 54.859,27.33 98.943,33.021 44.083,5.69 107.135,6.331 106.067,-5.611 -1.069,-11.943 6.857,-77.181 12.646,-129.117 5.788,-51.937 43.994,-134.25 42.035,-158.455 -1.836,-22.692 -42.966,-46.581 -93.01,-46.176 z m 693.479,176.941 c -3.501,-0.04 -6.888,0.185 -10.119,0.711 -34.466,5.61 -66.26,40.955 -69.822,65.401 -3.563,24.445 11.755,117.738 30.101,159.174 15.407,22.762 145.609,-15.149 166.537,-26.45 20.929,-11.301 11.757,-12.423 11.311,-31.738 -0.445,-19.316 -17.188,-95.136 -34.287,-119.34 -15.496,-21.936 -59.883,-47.36 -93.721,-47.758 z" fill="#FFFFFF" transform="translate(8.2188547,-85.070598) matrix(0.26458333,0,0,0.26458333,-7704.8757,-3085.1549)"/>
    <path d="m 29885.995,11981.984 c -30.489,-0.387 -59.656,3.09 -81.377,9.335 -105.503,30.334 -145.276,98.95 -140.293,206.476 0.948,33.687 8.875,69.727 9.075,101.029 0.08,28.982 -0.354,30.618 -12.998,49.429 -10.007,14.887 -20.749,24.529 -45.759,41.073 -34.6,22.883 -49.197,37.994 -42.839,44.352 3.459,3.459 20.089,-0.393 85.355,-19.773 22.004,-6.535 35.578,2.598 56.965,12.682 21.909,10.329 51.378,20.678 64.841,24.425 50.287,13.995 153.327,11.866 200.867,-4.147 22.485,-7.577 44.245,-21.304 67.091,-42.333 14.576,-13.416 14.9,-13.521 27.349,-8.78 16.157,6.151 25.893,19.337 28.899,39.159 2.686,17.693 0.134,21.31 -26.814,38.025 -15.483,9.604 -18.214,14.859 -9.468,18.215 6.764,2.597 24.098,-4.607 36.788,-15.285 8.908,-7.495 9.928,-7.7 9.848,-1.986 -0.05,3.503 -5.478,14.828 -12.062,25.162 -8.976,14.09 -11.031,19.922 -8.211,23.32 h -0.02 c 2.571,3.095 5.665,3.51 9.788,1.302 8.556,-4.579 23.646,-25.203 26.367,-36.04 4.465,-17.798 8.26,-12.579 7.501,10.315 -0.51,15.364 0.617,23.659 3.341,24.618 7.225,2.54 16.177,-16.077 16.437,-34.183 l 0.258,-17.189 7.8,9.057 c 4.289,4.983 7.795,11.071 7.795,13.53 0,2.456 3.26,7.417 7.246,11.022 7.114,6.438 7.335,6.431 12.284,-0.329 13.638,-18.631 -14.832,-53.553 -43.787,-53.71 -16.518,-0.09 -19.445,-2.779 -21.68,-19.913 -3.195,-24.472 -13.117,-39.648 -32.273,-49.359 -9.402,-4.767 -17.46,-8.775 -17.91,-8.905 -0.446,-0.13 5.472,-14.488 13.158,-31.903 24.473,-55.457 40.653,-134.832 36.135,-177.261 -1.304,-12.245 -3.255,-24.575 -4.339,-27.398 -3.46,-9.019 19.411,6.578 34.704,23.665 16.978,18.97 35.902,57.494 40.669,82.784 6.116,32.443 5.716,33.534 -14.674,40.178 -21.69,7.067 -26.861,10.852 -26.861,19.665 0,9.383 8.933,11.62 19.294,4.831 4.862,-3.186 11.481,-5.167 14.704,-4.397 4.445,1.063 0.629,6.495 -15.804,22.509 -11.911,11.611 -21.659,23.551 -21.659,26.541 0,9.018 14.715,6.283 28.846,-5.364 7.206,-5.939 13.758,-10.14 14.562,-9.334 0.805,0.803 -2.394,7.14 -7.109,14.078 -9.654,14.205 -10.826,21.773 -3.793,24.47 6.701,2.574 25.987,-18.375 31.715,-34.445 l 4.787,-13.431 0.158,14.212 c 0.08,7.816 -1.606,19.259 -3.759,25.426 -3.275,9.393 -2.957,12.146 1.958,16.977 5.477,5.383 6.307,5.227 12.535,-2.368 16.866,-20.573 16.466,-49.618 -0.991,-71.813 -6.453,-8.193 -7.561,-13.347 -6.662,-30.811 3.283,-63.857 -41.846,-143.849 -96.38,-170.831 -11.304,-5.594 -18.057,-12.708 -28.311,-29.829 -7.405,-12.365 -20.519,-28.694 -29.146,-36.286 -20.801,-18.311 -63.405,-40.145 -95.539,-48.962 -26.425,-7.249 -58.118,-11.108 -88.605,-11.497 z m -4.585,20.833 c 60.027,0.32 105.187,12.023 149.321,38.693 19.985,12.078 51.657,43.128 47.859,46.923 -0.826,0.827 -12.799,0.09 -26.604,-1.647 -29.214,-3.671 -68.602,0.394 -99.53,10.269 -11.437,3.649 -34.049,7.642 -50.253,8.872 -51.966,3.941 -97.155,18.493 -132.921,42.809 -25.893,17.602 -72.255,70.326 -66.714,75.867 1.03,1.029 14.428,-9.939 29.771,-24.373 43.23,-40.67 81.77,-61.262 124.995,-66.787 l 18.878,-2.412 -7.8,8.491 c -8.052,8.77 -10.222,16.708 -4.566,16.708 1.775,0 15.46,-6.102 30.406,-13.562 24.695,-12.32 28.604,-13.293 42.767,-10.648 40.746,7.613 74.226,28.54 86.44,54.028 12.276,25.62 13.892,70.034 3.433,94.345 -8.066,18.751 -8.267,18.842 -26.755,11.894 -2.365,-0.889 -5.205,0.732 -6.304,3.601 -6.284,11.19 1.631,10.998 6.329,14.392 5.618,4.105 5.613,4.648 -0.08,9.652 -3.319,2.916 -12.646,8.627 -20.727,12.689 -12,6.036 -15.906,6.629 -21.329,3.245 -6.198,-3.874 -6.267,-4.706 -1.074,-12.631 5.247,-8.011 5.124,-8.836 -2.186,-14.757 -5.679,-4.605 -7.183,-8.502 -5.628,-14.69 1.627,-6.485 -0.05,-10.118 -7.277,-15.808 -5.167,-4.062 -12.302,-7.387 -15.858,-7.387 -8.361,0 -8.2,-3.905 0.468,-11.329 7.902,-6.765 8.927,-12.51 2.599,-14.533 -3.284,-1.047 -32.595,-4.556 -43.826,-5.245 -0.756,-0.05 2.896,-4.042 8.115,-8.876 7.717,-7.156 8.703,-9.739 5.28,-13.864 -9.781,-11.786 -51.396,-2.139 -81.296,18.845 -32.561,22.847 -34.332,33.337 -4.98,29.444 9.388,-1.248 17.071,-0.982 17.071,0.589 0,1.572 -4.07,7.103 -9.041,12.293 -12.495,13.043 -8.236,18.056 12.88,15.15 9.323,-1.29 16.954,-1.392 16.954,-0.236 0,1.16 -5.068,6.661 -11.265,12.226 -15.056,13.524 -10.078,19.792 11.175,14.069 18.494,-4.981 21.411,-2.189 9.376,8.972 -12.091,11.213 -9.332,15.263 10.401,15.263 15.761,0 15.796,0.03 10.169,7.797 -17.089,23.609 -16.942,23.273 -12.684,28.405 2.271,2.734 5.964,4.416 8.207,3.738 2.242,-0.682 8.193,-2.135 13.22,-3.229 19.991,-4.354 -2.219,9.529 -5.008,25.7 v 0 0.03 c -3.276,9.834 -14.15,27.691 -14.15,27.691 -60.577,0.835 -117.273,-6.827 -151.904,-26.938 -30.289,-18.037 -35.061,-16.424 -58.206,-9.189 -32.829,10.262 -21.769,-2.643 -0.591,-24.282 14,-13.3 27.641,-28.408 30.314,-33.579 9.043,-17.484 9.458,-44.051 1.46,-93.168 -11.29,-52.18 -5.413,-109.134 11.413,-143.151 34.645,-69.786 90.123,-100.845 179.26,-100.369 z m 139.502,105.369 c 24.32,0.372 51.344,2.963 62.137,7.486 15.488,6.491 19.774,18.195 22.47,61.35 3.103,49.707 -16.877,125.649 -46.248,175.764 l -8.698,14.844 -21.329,0.05 c -11.733,0.03 -32.203,2.364 -45.493,5.179 v 0 c -13.287,2.815 -35.509,10.509 -49.383,17.098 -13.873,6.589 -25.234,10.889 -25.204,9.553 0.01,-1.336 3.123,-7.105 6.911,-12.826 3.786,-5.719 6.878,-13.272 6.908,-16.786 0.02,-5.689 -1.906,-6.125 -17.584,-3.97 l -17.606,2.424 5.654,-10.935 c 6.916,-13.373 4.173,-23.729 -7.035,-26.543 -6.841,-1.716 -8.017,-3.663 -6.313,-10.449 1.759,-7.007 0.395,-8.933 -8.541,-12.048 -9.067,-3.16 -10.065,-4.62 -6.772,-9.894 6.445,-10.319 1.005,-17.499 -13.257,-17.499 -12.677,0 -12.725,-0.05 -6.319,-7.134 9.331,-10.311 2.979,-18.419 -16.131,-20.592 l -15.24,-1.734 8.72,-5.931 c 8.926,-6.072 28.285,-13.568 46.636,-18.06 9.955,-2.435 10.101,-2.298 4.331,4.077 -12.908,14.262 -5.063,21.486 23.487,21.616 l 13.861,0.05 -10.111,8.094 c -13.363,10.693 -10.202,18.204 9.003,21.384 19.959,3.303 21.994,4.945 13.495,10.9 -14.428,10.106 -7.411,21.955 13.023,21.985 l 9.246,0.03 -13.261,12.182 c -16.952,15.569 -15.248,21.033 6.125,19.637 15.424,-1.008 16.256,-0.627 14.021,6.417 -2.204,6.942 -1.533,7.307 9.232,5.002 40.86,-8.755 56.211,-18.342 75.429,-47.124 16.999,-25.45 21.807,-41.899 21.624,-74.009 -0.216,-38.468 -11.129,-68.349 -32.895,-90.068 -9.841,-9.821 -25.296,-20.889 -34.343,-24.598 -9.048,-3.709 -16.458,-7.802 -16.458,-9.093 -0.03,-4.359 21.589,-6.209 45.908,-5.838 z m -17.56,125.756 c -1.451,0.449 -2.931,2.337 -5.237,5.914 -6.382,9.901 -10.872,32.254 -7.556,37.619 4.547,7.355 10.444,1.249 16.648,-17.233 5.435,-16.188 5.589,-19.185 1.209,-23.564 -2.19,-2.19 -3.613,-3.183 -5.064,-2.736 z m -29.563,36.641 c -6.485,0 -13.843,9.153 -11.025,13.712 5.012,8.109 21.429,0.681 18.037,-8.162 -1.172,-3.051 -4.328,-5.55 -7.012,-5.55 z m -542.483,18.117 c -51.854,2.911 -91.638,28.517 -115.746,74.502 -41.782,79.695 -25.754,159.727 36.962,184.593 13.783,5.466 23.681,6.761 44.562,5.839 23.149,-1.025 30.805,-3.153 55.637,-15.455 15.835,-7.848 36.204,-20.791 45.263,-28.767 14.815,-13.04 17.338,-14.102 25.102,-10.567 21.631,9.857 36.037,-0.905 15.456,-11.549 -5.595,-2.892 -10.977,-6.557 -11.956,-8.14 -0.978,-1.586 1.263,-12.651 4.979,-24.594 3.717,-11.943 6.759,-25.628 6.759,-30.411 0,-4.785 2.601,-14.182 5.783,-20.886 5.401,-11.381 5.401,-12.403 0,-15.425 -3.182,-1.78 -5.783,-6.26 -5.783,-9.956 0,-9.661 -12.126,-40.19 -21.47,-54.055 -21.645,-24.381 -57.562,-36.568 -85.548,-35.129 z m 81.604,81.82 c 1.79,15.106 1.144,17.654 -5.339,21.124 -9.299,4.978 -9.543,14.179 -0.438,16.56 8.458,2.211 8.571,10.017 0.524,35.661 -5.763,18.365 -6.384,19.016 -17.113,17.929 -8.978,-0.909 -11.136,0.134 -11.136,5.374 0,3.574 1.807,8.306 4.011,10.512 3.041,3.039 2.83,5.45 -0.866,9.949 -6.102,7.426 -34.3,25.545 -39.755,25.545 -6.839,0 -54.093,-28.708 -56.172,-34.125 -1.148,-2.994 2.07,-8.547 7.823,-13.493 8.005,-6.888 12.019,-7.986 22.237,-6.091 15.902,2.947 34.31,16.848 37.117,28.027 2.443,9.738 9.349,9.458 11.27,-0.461 1.952,-10.063 -9.789,-28.656 -23.413,-37.078 -8.825,-5.452 -17.912,-7.633 -32.098,-7.713 -17.127,-0.09 -21.181,1.224 -30.141,9.802 -23.143,22.153 -17.413,41.805 17.245,59.144 13.134,6.57 22.695,12.673 21.253,13.563 -5.609,3.451 -34.335,5.169 -44.212,2.643 -16.573,-4.24 -31.395,-13.133 -41.086,-24.645 -28.079,-33.371 -18.26,-114.452 21.193,-156.192 53.482,-56.582 146.919,-50.69 159.096,23.965 z m 467.03,-67.183 c -8.726,1.637 -11.89,4.031 -11.89,9.002 0,9.041 15.255,9.172 21.552,0.181 2.574,-2.551 1.397,-5.376 -1.181,-7.175 -2.578,-1.798 -6.555,-2.57 -8.481,-2.008 z m -519.4,57.352 c -10.124,0 -9.319,7.859 2.017,19.706 6.409,6.699 14.772,13.483 18.585,15.077 10.451,4.371 12.127,3.931 12.127,-3.188 0,-7.374 -25.09,-31.595 -32.729,-31.595 z m 568.166,27.314 -10.399,8.948 c -16.578,14.262 -43.054,25.736 -72.276,31.33 -37.455,7.166 -51.58,6.918 -50.137,-0.881 2.285,-12.376 63.169,-33.444 107.633,-37.243 z m -556.22,10.857 c -4.473,0.446 -9.023,4.768 -9.77,11.243 -0.876,7.6 0.311,9.5 5.941,9.5 8.214,0 14.975,-10.489 10.957,-16.989 -1.788,-2.895 -4.444,-4.022 -7.128,-3.754 z m 31.279,14.139 c -1.054,-0.1 -2.424,0.02 -4.175,0.264 -5.919,0.84 -8.351,3.74 -9.175,10.947 -0.977,8.533 -0.07,9.659 6.929,8.665 5.919,-0.839 8.354,-3.74 9.179,-10.946 0.731,-6.402 0.406,-8.634 -2.758,-8.93 z m 458.678,86.954 c -5.48,-0.463 -11.714,4.836 -11.714,13.67 0,4.242 -5.31,7.545 -18.194,11.311 -43.781,12.796 -74.541,42.662 -82.269,79.886 -11.33,54.574 24.176,98.387 88.43,109.13 26.89,4.496 41.434,4.126 70.024,-1.779 33.768,-6.976 54.721,-17.656 72.518,-36.96 16.757,-18.179 23.354,-35.562 23.354,-61.533 0,-42.62 -38.43,-94.096 -69.438,-93.007 -5.453,0.193 -21.885,-0.852 -36.518,-2.326 -24.02,-2.418 -28.986,-3.843 -28.986,-3.843 0.249,-13.238 -3.92,-14.272 -7.207,-14.549 z m 37.953,30.744 c 46.676,0.365 68.527,18.313 79.056,64.937 8.98,39.774 -13.341,73.41 -57.826,87.15 -15.99,4.94 -32.338,7.105 -53.066,7.025 -64.131,-0.242 -99.035,-25.399 -98.028,-70.65 0.579,-26.143 14.309,-32.452 37.694,-17.328 13.61,8.801 19.785,21.302 15.343,31.048 -5.048,11.078 -9.248,10.746 -23.622,-1.873 -10.865,-9.538 -21.622,-13.082 -26.106,-8.599 -2.477,2.477 22.655,40.537 38.64,39.791 15.803,0 31.318,-18.712 31.318,-37.774 0,-22.535 -29.216,-47.391 -51.702,-43.981 l -11.845,1.798 13.324,-13.643 c 12.276,-12.572 30.425,-23.344 49.077,-29.122 5.749,-1.783 8.061,-0.624 9.823,4.927 1.839,5.804 3.284,6.442 7.21,3.188 2.697,-2.24 4.905,-6.054 4.905,-8.476 0,-6.644 8.45,-8.625 35.805,-8.418 z m -9.523,3.637 c -4.506,0.179 -7.769,2.029 -7.769,6.701 0,6.235 4.515,9.116 14.033,8.199 7.219,-0.697 10.774,-5.001 10.774,-8.333 0,-3.332 -4.043,-5.589 -11.262,-6.286 -2.38,-0.23 -4.274,-0.341 -5.776,-0.281 z m -414.188,8.938 c -20.216,-0.566 -29.5,5.762 -45.11,21.372 -19.673,19.673 -36.419,48.96 -55.503,97.065 -7.833,19.749 -17.416,42.13 -21.295,49.733 -9.175,17.984 -33.545,44.325 -41.01,44.325 -7.506,0 -18.875,-12.46 -41.938,-45.963 l -18.52,-26.903 7.259,-23.35 c 11.156,-35.893 11.919,-41.63 7.476,-56.453 -5.465,-18.239 -24.04,-36.809 -47.804,-47.788 -27.239,-12.583 -67.247,-12.91 -91.955,-0.749 -38.156,18.777 -97.82,88.583 -117.855,137.889 -13.267,32.646 -20.455,77.15 -20.69,128.123 -0.153,33.004 1.034,46.996 4.263,50.224 6.428,6.427 10.388,-1.333 12.706,-24.894 9.205,-93.511 21.349,-138.975 48.05,-179.9 20.905,-32.038 60.895,-72.755 82.023,-83.512 20.199,-10.286 44.871,-10.421 67.6,-0.367 32.665,14.452 39.432,26.283 31.209,54.576 -2.969,10.211 -6.139,18.563 -7.047,18.563 -0.906,0 -14.231,-12.498 -29.61,-27.775 -15.379,-15.275 -29.41,-26.878 -31.177,-25.784 -10.191,6.297 2.187,28.996 39.542,72.514 l 11.808,13.758 -8.45,22.448 c -16.486,43.805 -23.012,78.833 -23.285,125.052 -0.203,34.362 1.009,46.134 5.865,56.928 3.945,8.781 7.309,12.42 9.474,10.253 1.848,-1.846 5.76,-26.684 8.694,-55.197 5.232,-50.832 14.153,-94.225 24.43,-118.821 l 5.173,-12.379 16.546,25.817 c 34.642,54.059 57.955,60.072 95.253,24.573 17.402,-16.565 33.603,-45.934 51.046,-92.53 7.805,-20.852 15.616,-39.376 17.355,-41.162 1.949,-2.001 6.187,-0.403 11.052,4.166 15.588,14.638 45.194,22.677 53.388,14.484 2.011,-2.012 8.951,-6.301 15.421,-9.531 8.309,-4.149 12.08,-8.61 12.84,-15.191 0.753,-6.521 3.352,-9.64 8.665,-10.396 9.417,-1.339 12.127,-17.071 4.855,-28.169 l -4.971,-7.587 39.375,1.252 c 34.126,1.084 39.371,0.521 39.371,-4.233 0,-9.023 -17.487,-15.415 -72.594,-26.531 -23.73,-4.788 -39.796,-7.61 -51.925,-7.95 z m 211.713,13.214 c -24.935,4.679 -53.569,34.178 -76.019,78.31 -31.921,62.761 -33.656,144.297 -4.374,205.574 10.424,21.815 27.764,42.347 39.937,47.285 v 0 c 9.806,3.988 28.694,3.933 31.173,-0.08 1.144,-1.848 -3.053,-5.557 -9.325,-8.236 -23.073,-9.87 -41.418,-39.282 -53.291,-85.442 -10.036,-39.018 -2.825,-105.359 15.535,-142.935 7.296,-14.933 25.077,-38.453 24.25,-32.077 -2.46,18.977 10.408,15.455 33.104,-9.059 9.36,-7.962 15.134,-14.254 -1.256,5.55 -18.467,22.192 -14.945,29.5 -4.157,29.5 3.613,0 7.337,3.098 8.34,6.934 3.897,14.899 30.2,2.18 38.985,-18.853 5.391,-12.897 15.981,-45.173 -5.044,-56.719 -2.178,-1.196 -9.041,-6.071 -14.85,-11.751 -9.812,-8.588 -12.534,-9.949 -23.008,-8.001 z m 208.898,1.743 c -9.163,0 -14.087,1.612 -14.13,9.502 -0.03,6.479 20.001,9.45 25.704,3.749 5.604,-5.606 -1.074,-13.251 -11.574,-13.251 z m 162.675,24.943 c -7.538,-1.077 -13.528,7.419 -9.655,13.688 h 0.01 c 1.141,1.843 5.436,2.872 9.542,2.287 10.096,-1.439 10.188,-14.538 0.103,-15.975 z m 73.282,3.567 c -13.774,-0.756 -27.839,-0.08 -32.74,2.541 -11.112,5.947 -6.396,8.518 19.948,10.857 49.696,4.415 56.574,3.26 43.781,-7.357 -3.733,-3.098 -17.214,-5.284 -30.989,-6.041 z m -81.467,55.223 c -2.239,0.336 -3.518,1.961 -3.518,4.639 0,3.33 2.241,5.24 5.382,4.585 7.527,-1.567 7.989,-7.717 0.685,-9.122 -0.95,-0.183 -1.802,-0.214 -2.549,-0.102 z m 58.863,11.92 c -28.318,-0.52 -25.13,7.04 10.397,24.639 31.423,15.567 44.024,18.111 47.316,9.539 5.167,-13.466 -28.913,-33.65 -57.713,-34.178 z m -428.028,51.457 c -11.111,-0.948 -19.503,3.199 -27.491,12.691 -7.358,8.744 -8.872,14.089 -8.872,31.301 0,11.416 1.55,23.652 3.448,27.194 5.426,10.143 23.85,17.758 36.992,15.294 11.897,-2.233 12.113,-2.626 20.4,-36.95 4.861,-20.133 8.497,-12.803 5.918,11.926 -4.211,40.363 -2.866,141.156 2.11,158.306 8.283,28.55 28.21,38.151 53.819,25.941 l 12.021,-5.734 7.934,14.829 c 7.376,13.786 24.142,9.824 21.225,-0.17 -0.972,-3.337 -5.04,-11.948 -6.249,-20.528 -1.938,-13.794 -0.757,-17.99 10.196,-36.182 20.008,-33.229 36.134,-83.804 30.992,-97.206 -3.581,-9.331 -11.025,-5.548 -15.283,7.765 -5.486,17.16 -31.728,74.109 -33.384,72.451 -0.712,-0.712 -3.597,-15.525 -6.409,-32.913 -4.406,-27.229 -4.443,-33.561 -0.276,-45.661 12.081,-35.061 42.263,-60.361 71.491,-59.918 20.487,0.309 54.333,17.392 74.845,37.772 23.404,23.252 38.123,74.362 35.38,122.86 -1.606,21.34 7.823,30.956 16.956,10.846 10.092,-22.447 1.676,-85.034 -9.29,-113.03 -19.447,-49.653 -88.695,-88.263 -139.289,-77.664 -31.323,6.563 -62.877,34.662 -74.586,66.425 -6.194,16.793 -5.343,46.663 2.481,87.198 3.89,20.165 6.131,38.191 4.977,40.057 -1.152,1.867 -6.87,5.862 -12.705,8.88 -8.933,4.619 -11.349,4.741 -15.312,0.78 -9.051,-9.051 -12.145,-42.086 -11.142,-118.95 -0.137,-40.766 13.296,-90.499 -27.459,-100.456 -9.751,-2.383 -16.772,-6.585 -23.438,-7.154 z" fill="#00B894" transform="translate(8.2188547,-85.070598) matrix(0.26458333,0,0,0.26458333,-7704.8757,-3085.1549)"/>
</svg>