<?xml version="1.0" ?><svg height="353.06821mm" viewBox="0 0 190.0668 353.06821" width="190.0668mm" xmlns="http://www.w3.org/2000/svg">
    <path color="#000" d="m 4039.5,1697.0078 7.3066,86.1817 122.4239,2.6523 -0.4278,-87.582 z m -171.1074,53.8418 1.6367,96.3692 122.2949,1.498 -0.7676,-92.4082 z m 67.8476,136.2852 c -10.4037,0.1429 -18.4585,1.6825 -22.7539,5.4609 l -0.8867,82.6445 130.4043,13.2364 12.2441,-87.5274 c -35.4401,-2.0881 -87.7965,-14.2432 -119.0078,-13.8144 z m -249.3086,60.1601 c -39.8497,-0.103 -79.7493,25.0526 -83.7695,34.3789 -3.1565,18.9208 -79.9868,7.2352 -86.7168,49.6328 -6.7301,42.3975 51.3382,60.0855 71.5879,75.3614 20.2496,15.276 53.4835,57.9963 118.9375,39.2363 65.4541,-18.76 76.2943,-77.399 77.6641,-102.6445 1.3699,-25.2456 -11.4358,-57.2441 -59.2012,-85.92 -11.9414,-7.169 -25.2187,-10.0105 -38.502,-10.0449 z m -31.6718,270.1465 c -61.4834,-0.028 -65.537,53.5113 -55.4532,109.3867 15.6596,84.7418 -18.3693,166.9556 -14.7363,228.9707 3.6331,62.0151 33.5309,71.2347 78.1992,77.5059 44.6684,6.2712 73.733,-17.4732 99.7598,-56.3867 26.0268,-38.9135 27.362,-163.5799 30.9355,-209.6758 3.5735,-46.0959 -10.72,-103.5546 -26.205,-120.0098 -15.4851,-16.4552 -45.2049,-27.9792 -109.5274,-29.748 -1.005,-0.028 -1.9967,-0.043 -2.9726,-0.043 z" fill="#FFFFFF" overflow="visible" paint-order="fill markers stroke" transform="translate(-259.05817,200.4952) matrix(0.26458333,0,0,0.26458333,-657.25853,-646.20089)"/>
    <path d="m 3463.2755,3002.9136 c -0.8319,-10.0215 15.0904,-24.8212 31.2946,-42.4767 40.8636,-50.2859 84.6029,-101.4169 102.5155,-164.3446 4.1237,-14.8926 4.656,-17.251 7.0947,-31.4296 3.429,-19.9369 5.6403,-40.895 7.2276,-68.5002 1.4087,-24.4985 1.0747,-63.5203 -0.5797,-67.7525 -26.1246,-12.4221 -33.64,-29.46 -41.0112,-51.6086 -3.6014,-11.3041 0.6273,-63.5315 6.9746,-86.1398 13.5751,-48.353 16.5203,-139.8521 6.4203,-199.4567 -1.4883,-8.7836 -3.3236,-7.414 -4.5463,3.393 -15.4644,63.3734 -43.9469,125.1625 -55.8651,183.8452 -1.7357,9.3797 -3.861,20.6803 -4.7228,25.1127 -6.1174,31.4593 -9.6167,92.6077 -5.4955,96.028 16.573,5.4442 28.0481,20.3421 38.898,33.3384 9.1883,11.2132 11.1217,22.7962 -4.4683,20.8845 -5.9006,-0.7914 -6.021,-0.7051 -4.8112,3.4455 2.1803,7.4802 8.3509,16.3903 13.0251,18.8073 2.979,1.5405 4.7083,3.851 5.0443,6.7398 0.3965,3.4079 1.7074,4.7368 5.8327,5.9129 4.7162,1.3445 5.266,2.0834 4.8353,6.4983 -0.3644,3.7358 -1.7352,5.5845 -5.4815,7.3931 -4.6354,2.2379 -4.9408,2.897 -4.2365,9.1452 0.6347,5.6307 0.092,7.4007 -3.3161,10.8083 -3.4198,3.4199 -5.0527,3.9165 -10.1559,3.0884 -12.2061,-1.9809 -33.8809,-17.7882 -44.8822,-32.7325 -9.0407,-14.118 -11.4004,-32.9209 -14.6212,-50.7449 -1.2389,-6.9807 -1.1993,-69.1243 0.053,-83.226 7.8796,-77.4446 25.5748,-157.447 54.9411,-229.5938 6.8027,-16.6265 12.7498,-33.3285 15.1603,-42.5757 9.4046,-23.4464 34.3838,-59.7789 55.9046,-70.1142 46.7297,-22.4417 81.9486,-8.5484 128.608,4.1719 19.6119,5.3466 42.1357,25.1167 49.4041,43.3775 5.6061,14.0843 8.1848,16.8894 17.5027,19.0403 87.1481,6.1538 121.684,-118.7976 116.1991,-218.9 0.035,-7.5367 -0.3715,-17.6892 -0.4612,-22.5648 -0.2142,-11.664 3.7452,-30.4492 9.5907,-45.5035 l 4.7101,-12.13 -8.2136,-0.9869 c -4.5175,-0.5429 -11.1592,-0.9934 -14.7596,-1.0011 -14.1412,-0.5317 -13.4079,-11.2656 -12.6624,-18.3432 1.3727,-12.8612 1.2539,-55.1413 -0.1797,-63.9435 -1.9095,-11.7229 4.9868,-18.4851 12.1971,-11.9598 2.5261,2.2861 2.719,2.0111 2.5445,-3.6265 -0.1725,-5.5727 0.2114,-6.146 4.4385,-6.6291 2.5449,-0.2907 9.4353,0.6359 15.3118,2.0594 33.6027,7.2994 68.9538,9.8181 103.0186,13.816 23.2404,0.2217 25.0233,3.1225 19.7581,22.915 -3.9054,23.1621 -9.4355,47.4107 -13.7788,68.3837 -1.1728,5.9964 -4.1625,7.5871 -9.6019,5.1088 -10.2263,-8.1289 9.9515,-56.8513 7.3198,-82.1316 -39.247,-7.1887 -76.5243,-3.8595 -116.7383,-14.4629 -3.4105,-0.9255 -6.606,-1.2779 -7.1011,-0.7827 -0.4952,0.495 -1.2469,17.1096 -1.6706,36.9211 l -0.7705,36.0209 c 6.7271,2.8736 14.079,5.1465 20.9519,6.1196 7.2208,0.9801 9.0732,0.6479 12.8942,-2.3121 14.813,-11.4754 26.2587,-15.2722 27.5236,-9.1306 0.342,1.6605 -0.8991,5.0763 -2.7581,7.5907 -1.8588,2.5143 -3.3799,5.2357 -3.3799,6.0472 0,2.0463 8.2304,3.4891 19.9457,3.4966 12.1449,0 28.9764,1.1404 28.7102,7.5629 -0.2073,5.0011 -9.0727,5.3249 -13.8796,5.3249 -2.2311,0 -7.1415,3.251 -12.3864,8.2003 -4.7793,4.51 -13.4042,12.047 -19.1663,16.7485 -21.6563,17.6705 -26.2756,22.9862 -26.4316,45.9692 -0.4859,71.5637 -9.6524,127.2567 -36.4053,178.9066 -31.8901,43.438 -65.1436,66.5733 -111.0022,66.0629 -1.7476,130.4482 -1.586,273.7651 -66.0027,323.1463 l 0.6843,52.602 c 0.4256,32.7173 -1.2891,57.5329 -3.1364,74.762 -3.9863,59.532 -22.2414,120.83 -38.134,167.6242 -15.8023,46.4283 -19.5853,58.853 -19.0544,62.5807 0.455,3.1949 1.3782,3.4822 10.5291,3.2779 10.7524,-0.2404 44.9336,-5.908 56.8581,-9.4279 40.565,-5.4152 34.2477,23.9974 4.3844,24.382 -11.7194,0.1338 -24.7793,0.6636 -29.0221,1.1773 -15.0963,1.828 -35.8812,6.0815 -40.8826,8.3665 -31.3277,9.5334 -41.1694,-13.9857 -30.6895,-28.3871 11.0596,-18.1278 15.9392,-40.6704 21.7579,-57.94 26.3439,-75.7165 34.8167,-118.1188 42.6494,-187.7713 2.5521,-22.7973 2.3878,-103.395 -0.216,-105.9988 -1.3666,-1.3667 -3.3352,-1.2869 -7.7639,0.3146 -25.6645,7.5919 -45.9578,6.701 -70.0463,3.3325 -2.2045,0.016 -3.2536,9.673 -3.1502,29.0143 -1.2623,38.4678 -2.1947,77.1589 -9.6564,115.2434 -21.2146,69.7562 -55.7703,136.7893 -106.3348,186.9943 -4.3691,3.8807 -12.7956,15.214 -12.7956,17.2097 0,2.2889 10.9124,-0.2651 25.9238,-6.0675 7.6093,-2.9413 17.4013,-5.8208 21.7598,-6.3991 14.2068,-1.6319 19.9201,9.4661 11.455,17.6025 -3.7344,3.5198 -9.1675,6.092 -18.1324,8.5843 -16.2155,4.5081 -45.9469,14.681 -48.176,16.4838 -11.4827,5.1046 -32.1582,1.5906 -33.1183,-13.8871 z m 230.7239,-388.873 c 28.8279,-7.3963 39.8833,-17.1309 49.6363,-35.5374 33.313,-63.8077 32.4662,-124.0675 38.9088,-188.5773 2.8633,-28.0234 0.4998,-82.1049 -4.0904,-93.5939 -0.5557,-1.3908 -4.0656,-4.1439 -7.7998,-6.118 -14.6581,-7.7489 -23.4961,-14.9015 -24.595,-19.9046 -1.4438,-6.574 3.1987,-11.2593 11.1569,-11.2593 3.2085,0 5.4203,-0.6689 4.9151,-1.4864 -1.695,-2.7423 -17.9039,-14.0529 -23.4262,-16.3466 -11.5286,-4.7884 -59.5104,-13.7023 -78.7996,-14.3218 -26.5601,-0.853 -42.736,8.7767 -52.684,28.7398 -3.1897,6.4537 -5.827,13.7426 -5.861,16.1975 9.0318,39.668 16.0433,113.1706 7.0606,178.2918 -4.7897,34.7238 -38.6041,126.677 1.522,149.9841 19.5505,18.2873 48.1063,23.0202 84.0563,13.9321 z m 274.2958,-616.7966 c 4.1347,-3.2212 7.5174,-6.4057 7.5174,-7.0767 0,-1.9641 -11.2788,-2.7166 -12.7908,-0.8534 -0.7582,0.9342 -2.5052,4.4185 -3.8823,7.7428 -3.2838,7.9275 -0.8433,7.9774 9.1557,0.1873 z m -379.6826,126.1215 c -11.5743,-15.9928 -15.0182,-15.7219 -30.52,-24.6915 -21.1911,-8.3801 -32.7399,-22.8087 -42.4761,-41.5445 -15.0397,-41.2586 8.5031,-73.4103 49.9733,-73.3582 28.5851,0.2758 26.1903,0.8045 27.431,-6.0559 0.8311,-4.5955 2.9773,-7.61 8.9544,-12.577 12.072,-10.0318 30.1939,-19.6616 41.8126,-22.2189 36.2887,-10.9708 70.3534,-5.9962 99.2844,9.2903 5.4402,2.931 28.7313,23.0583 32.356,27.9612 5.2394,7.0866 13.4272,26.9995 15.8365,38.5152 1.2112,5.7885 2.5815,10.9039 3.0454,11.3678 9.0002,-3.7365 16.895,-17.0721 26.5989,-17.2826 5.7157,0 7.5126,2.6737 5.9587,8.8651 -0.9353,3.7266 -18.8667,23.1328 -28.5074,30.8521 -3.4351,2.7506 -4.3763,5.2015 -5.2421,13.6529 -11.1587,56.7638 -50.6414,79.6259 -95.9804,95.2162 -38.2569,10.1316 -80.0096,2.0787 -108.5252,-37.9922 z m 160.7296,-19.0957 c 11.4286,-12.5878 16.3437,-20.8364 19.3941,-32.5478 2.51,-9.6366 3.2395,-38.986 1.0546,-42.427 -6.2741,1.2241 -25.1309,23.089 -22.7537,27.0944 2.3485,3.7117 1.7591,11.9419 -1.8129,25.3149 -3.1804,11.907 -7.86,26.7694 -10.453,33.1991 -2.1359,5.2961 4.5142,0.4431 14.5709,-10.6336 z m -142.6252,6.1089 c 0,-1.7012 -3.0931,-2.4159 -4.0131,-0.9273 -0.5569,0.901 0.1176,1.6381 1.5004,1.6381 1.3819,0 2.5127,-0.3198 2.5127,-0.7108 z m -11.167,-21.9157 c 2.8809,-1.5419 2.9405,-2.0343 0.7588,-6.2532 -4.0184,-7.7709 -7.6125,-18.3305 -8.8225,-25.9205 -1.4837,-5.8373 0.1818,-10.4733 -3.1563,-2.4385 -2.2811,5.4905 -4.3584,29.8549 -2.8751,33.7207 1.1333,2.9531 9.2801,3.4684 14.0951,0.8915 z m -24.1253,-35.6849 c 3.3041,-14.8968 0.6304,-16.2917 -3.7931,-14.9356 -6.6267,2.0315 -8.0474,4.0603 -5.114,7.3017 2.4442,2.7008 2.1996,3.7375 -3.5859,15.1946 l -6.209,12.2961 c 2.7069,1.6603 7.4709,8.2415 10.8545,7.4364 3.4343,-8.4129 5.872,-18.2579 7.8475,-27.2932 z m 43.6139,21.0809 c -0.6587,-6.6487 -9.9333,-17.2525 -9.9333,-11.357 0,4.7347 6.7621,18.1328 8.7943,17.4245 0.9253,-0.3223 1.4378,-3.0527 1.139,-6.0675 z m -70.7274,-16.1865 c 1.579,-2.7739 2.4827,-5.4315 2.0084,-5.9059 -1.2609,-1.2609 -8.9087,6.3221 -8.9087,8.833 0,3.8878 3.9828,2.1983 6.9003,-2.9271 z m 89.5682,-0.1744 c 0.8934,-2.881 2.0901,-8.2552 2.6597,-11.9426 0.8686,-5.6228 0.5619,-6.8458 -1.902,-7.5824 -6.3241,-1.8908 -26.3083,1.6998 -26.3083,4.7268 3.9045,6.5483 10.586,9.8153 16.0381,15.5414 5.4138,5.7571 7.5489,5.5903 9.5125,-0.7432 z m -96.3884,-27.8445 c 5.0343,-2.6033 5.3788,-6.8363 1.0594,-5.1789 -1.4077,0.5403 -4.0505,1.382 -5.8937,1.4789 -1.8431,0.097 -2.5336,3.0363 -2.9026,4.1444 -0.9003,2.7042 1.9664,2.5397 7.7369,-0.4444 z m 173.9912,0.8473 c 0,-0.8864 -1.088,-1.6117 -2.4177,-1.6117 -1.3297,0 -2.4177,0.7253 -2.4177,1.6117 0,0.8865 1.088,1.6118 2.4177,1.6118 1.3297,0 2.4177,-0.7253 2.4177,-1.6118 z m -160.635,-7.129 c 0.6784,-3.7434 -3.8694,-2.2123 -5.1991,-1.702 -1.3297,0.5103 -1.7902,3.0138 -1.7902,3.3623 0,0.3483 1.088,0.6334 2.4177,0.6334 1.3297,0 4.4185,-1.449 4.5716,-2.2937 z m 20.3862,-0.5269 c -0.079,-3.8618 -3.0888,-5.5185 -8.0474,-4.4295 -3.6747,0.8071 -4.6052,1.5528 -3.099,2.4836 1.8529,1.3479 3.817,2.3018 4.937,4.0199 1.1677,1.8895 6.2461,-0.2707 6.2094,-2.074 z m 112.8486,-6.6621 c 0,-1.712 -6.4567,-3.5957 -8.3385,-2.4326 -2.925,1.8076 -1.0639,3.8565 3.5032,3.8565 2.6595,0 4.8353,-0.6407 4.8353,-1.4239 z m 31.4794,1.3854 c 2.4057,0.2479 18.7076,-2.9927 19.7877,-4.6061 0.7187,-1.1629 -1.9513,-5.0438 -3.921,-4.4307 -1.6622,0.5176 -9.1874,1.695 -16.7224,2.6166 -20.0354,2.4507 -21.0088,2.6462 -22.9773,4.6146 -1.3227,1.3228 -0.2721,3.707 5.5807,3.0301 4.3753,-0.5061 12.9807,-0.9983 18.2523,-1.2245 z m -166.1586,-5.6248 c 5.9202,-2.2285 13.3877,-4.3874 16.5943,-4.7981 7.9391,-1.0164 12.16,-7.3021 4.858,-7.2346 -13.2147,0.1225 -35.056,9.2585 -35.056,14.6637 0,2.1459 1.8762,1.7831 13.6037,-2.631 z m 63.9868,0.6025 c 3.705,-3.4187 3.8594,-3.222 -0.4029,-5.5823 -3.4091,-1.8877 -4.1763,-1.7486 -6.6726,1.2102 -1.5514,1.8385 -2.8206,4.3505 -2.8206,5.582 0,3.4075 6.014,2.6722 9.8961,-1.2099 z m 146.4457,-5.5108 c 0,-2.3289 -4.9905,-3.2418 -6.9593,-1.2732 -1.3118,1.3118 4.0571,5.3893 5.7327,4.3537 0.6746,-0.4169 1.2266,-1.8032 1.2266,-3.0805 z m -10.6074,-20.0822 c 2.5495,-2.5497 -4.1822,-1.786 -8.7339,0.9907 l -4.0294,2.4581 5.5909,-0.9337 c 3.075,-0.5135 6.3025,-1.6454 7.1724,-2.5151 z m -46.6368,-1.4749 c 0,-0.8864 -2.8807,-4.1759 -3.2717,-4.1759 -0.3909,0 -3.1604,2.8774 -3.7082,3.7638 -0.5478,0.8865 0.8734,1.5666 2.8817,1.9171 2.3999,0.4189 4.0982,-0.6185 4.0982,-1.505 z m 23.053,-5.4677 c 6.4595,-1.0407 11.5366,-2.6173 11.2824,-3.5038 -0.4853,-1.6933 -13.5435,-3.5543 -17.6908,-1.7995 -3.2542,1.379 -7.1798,3.1009 -9.7449,5.5638 -2.3533,2.3533 0.1821,2.3124 16.1533,-0.2605 z m -83.7021,-6.5251 c 14.9751,-7.6551 21.1322,-11.2708 20.4147,-11.9883 -0.403,-0.403 -4.5646,1.0626 -9.2479,3.2569 -4.6833,2.1942 -11.6326,5.3182 -15.443,6.9422 -3.8104,1.624 -7.2983,3.552 -7.751,4.2846 -1.5941,2.579 4.6238,1.2889 12.0272,-2.4954 z m 49.4879,-3.3745 c 2.3748,-1.7962 2.5462,-2.3735 0.711,-2.3956 -4.1614,-0.05 -9.6706,1.8513 -9.6706,3.3381 0,2.2428 5.5155,1.6626 8.9596,-0.9425 z m 21.2498,-4.7411 c 0.6197,-0.6197 0.1675,-1.7196 -1.0049,-2.4442 -2.594,-1.6031 -12.7882,0.5082 -15.2987,3.1684 -1.4009,1.4844 0.1306,1.7515 6.6797,1.1643 4.6735,-0.419 9.0042,-1.2687 9.6239,-1.8885 z m 151.7049,-132.0106 c 1.822,-14.3833 -0.086,-57.7135 -3.9927,-76.5089 -1.4189,-12.3354 2.2898,-13.9771 18.9289,-13.3642 31.2566,1.0263 77.356,2.8777 103.4529,3.476 18.6177,1.4177 20.4518,-3.0002 18.9504,16.4336 -0.7134,8.7929 -0.7124,11.1659 0.019,56.3817 0.296,18.2733 -0.1657,28.9194 -1.3459,31.0266 -2.1585,3.8546 -1.2267,3.7946 -68.1034,4.3855 -58.9653,-2.3416 -71.6874,8.8597 -67.9092,-21.8303 z m 119.2677,0.195 c 2.0689,-8.5468 2.2942,-22.8269 0.7757,-49.1779 -1.9075,-10.8146 4.0525,-16.1647 -6.0368,-19.9176 -7.664,-2.8511 -60.9745,-4.4061 -91.9337,-2.4728 -10.0066,0.38 -9.282,5.1257 -8.2832,11.9409 2.5338,19.0727 1.5893,40.8313 1.6324,59.8876 -0.3835,5.4007 2.8205,7.0347 7.7979,6.8068 5.5155,-0.2526 21.227,0.9752 56.7785,2.2279 15.0701,0.5309 27.7102,1.2731 28.0895,1.6495 14.5134,-0.7842 9.8101,-5.355 11.1797,-10.9444 z m 175.6581,-39.7817 c -36.1172,-0.8803 -72.1626,-1.4853 -108.2911,-1.112 -11.7396,-0.053 -16.3484,-4.4711 -14.4545,-14.2913 3.146,-15.8567 -0.1499,-66.6121 -5.0323,-77.4754 -6.2985,-14.6194 0.1849,-16.2691 12.0325,-15.0828 40.8906,-4.3876 82.0669,3.9061 122.5543,7.0002 9.8497,-1.8863 17.8354,-6.2718 14.8552,11.0781 -1.6539,14.1698 -1.8737,52.0895 -2.2316,64.6989 -2.3484,27.7056 6.5322,24.8028 -19.4325,25.1843 z m 1.4678,-14.4024 c 6.3084,-21.5608 2.303,-49.4603 2.0245,-67.1107 -1.4808,-3.8586 -52.006,-10.6888 -78.1955,-11.1251 -30.1543,-0.5024 -35.5673,1.3576 -33.9462,11.6645 0.9341,5.9376 2.9106,48.9332 2.6214,57.0203 -0.1144,3.202 0.8681,4.875 3.4945,5.9499 3.0993,1.2683 28.3878,2.5429 89.8837,4.5303 6.6485,0.2149 13.0015,-0.2032 14.1176,-0.9292 z" fill="#00B894" transform="translate(-259.05817,200.4952) matrix(0.26458333,0,0,0.26458333,-657.25853,-646.20089)"/>
</svg>