<?xml version="1.0" ?><svg height="365.4404mm" viewBox="0 0 198.77185 365.4404" width="198.77185mm" xmlns="http://www.w3.org/2000/svg">
    <path color="#000" d="m 27014.576,11013.459 -130.535,54.594 65.945,53.986 c 0,0 59.399,-20.514 72.578,-27.947 13.18,-7.434 49.2,-31.115 49.2,-31.115 z m 28.881,144.875 -57.91,76.246 105.303,24.168 c 0,0 71.315,-68.12 73.076,-70.273 1.76,-2.153 -120.469,-30.141 -120.469,-30.141 z m -315.709,20.578 c 11.128,36.115 75.139,44.664 125.344,58.047 0,0 62.928,-30.428 57.91,-31.074 -48.558,-6.254 -70.678,-16.449 -90.68,-26.77 z m 538.672,56.477 -94.109,54.634 c 0,0 13.677,26.242 35.974,38.875 22.297,12.634 41.434,16.288 41.434,16.288 l 83.728,-57.559 z m -439.652,43.134 5.867,72.915 c 52.764,30.465 123.088,23.681 123.088,23.681 l -11.196,-75.637 z m 253.13,80.829 -43.691,67.673 130.354,32.944 37.552,-72.873 z m -335.107,32.812 -96.32,53.295 48.838,59.752 84.222,-57.559 z m 88.365,89.568 12.188,73.321 c 34.475,11.15 72.181,8.064 72.181,8.064 l 8.487,17.791 -111.217,16.451 -14.037,-12.754 -4.92,12.674 c 0,0 -13.27,5.89 -30.15,24.657 -16.881,18.766 28.894,122.798 28.894,122.798 l 91.418,215.713 c 0,0 -1.173,87.091 -2.211,95.58 -1.038,8.49 -6.77,29.817 0,39.526 6.77,9.708 41.615,19.172 41.615,19.172 l -0.361,42.166 104.807,7.636 c 0,0 -3.656,-48.624 -0.541,-49.111 3.114,-0.487 25.41,-12.999 27.351,-23.113 1.941,-10.115 -0.541,-122.147 -0.541,-122.147 0,0 108.444,-287.552 116.207,-301.607 7.764,-14.055 18.76,-42.611 1.428,-55.813 -9.38,-7.144 -29.963,-14.684 -46.906,-20.119 19.756,-2.582 40.109,-6.403 62.896,-15.271 l 17.918,-72.59 -113.832,14.461 -9.478,63.404 -30.706,-4.291 -37.011,-68.365 -51.77,15.517 -14.715,-41.515 z m 89.092,726.557 6.768,77.172 109.521,3.473 -8.894,-75.409 z" fill="#FFFFFF" overflow="visible" paint-order="fill markers stroke" transform="translate(-79.65662,100.85317) matrix(0.28382751,0,0,0.28382751,-283.76516,-573.68679) translate(-25362.23,-9341.7332)"/>
    <path d="m 1655.0621,1665.9251 c -5.649,0.2011 -13.9855,5.2422 -15.9141,6.1621 -16.1583,8.7559 -32.4518,14.1059 -48.3008,19.9864 -22.6951,6.4845 -45.6072,17.0633 -66.5332,23.5371 -16.0906,5.2301 -3.4229,19.3326 -0.166,23.3222 16.1014,17.5757 34.0332,23.7125 50.9453,37.168 13.813,15.3152 22.1108,9.6091 34.7774,4 17.2847,-5.652 35.1905,-14.4365 49.1582,-20.9492 18.2699,-8.1739 34.0898,-20.9052 51.0468,-29.9785 9.5462,-3.7375 4.7385,-15.6243 -5.0117,-21.4688 -13.5128,-12.8849 -31.6157,-26.7394 -45.5859,-40.0351 -0.9489,-1.3405 -2.533,-1.8112 -4.416,-1.7442 z m -4.6524,14.207 c 1.1685,0.047 2.2965,0.515 3.1446,1.504 13.6781,11.6133 22.8427,21.7975 35.1269,31.0703 2.927,2.2 6.4141,5.0375 7.7481,6.3066 2.2554,2.1459 2.3119,2.4337 0.8007,4.1035 -14.7748,11.0146 -28.4477,16.5812 -43.082,23.9824 -18.3516,9.2188 -37.931,18.0701 -57,23.6407 -8.6828,3.2189 -10.703,0.6738 -15.7109,-2.8516 -13.9202,-14.3079 -36.7067,-21.5199 -47.7129,-36.2266 -4.7398,-6.3334 -1.0563,-7.0441 10.4707,-11.2168 21.9212,-7.9353 62.634,-21.4474 80.4531,-28.9902 7.233,-4.0721 18.6499,-7.8065 22.3731,-10.3086 1.0117,-0.6883 2.2202,-1.0609 3.3886,-1.0137 z m 19.7578,132.668 c -2.1781,1.2085 -3.2683,4.1586 -3.4199,9.2598 -6.1969,21.8702 -25.8303,39.7142 -42.6289,54.6465 -5.6373,4.8313 -10.3065,12.2771 -7.8789,17.6992 2.2118,4.9048 6.4813,7.3279 14.459,8.2051 30.1858,6.4403 68.0182,10.4151 91.7461,19.4843 6.6278,2.5152 13.4796,-1.3772 29.6387,-16.8418 12.4053,-11.8722 20.7503,-20.2399 35.5859,-35.6796 4.6866,-4.8773 11.392,-11.3491 14.9004,-14.3829 6.8391,-5.9139 7.8583,-8.3866 5.4375,-13.1894 -1.5021,-2.9803 -3.0134,-3.396 -15.3594,-4.2149 -26.666,-2.5109 -53.3215,-10.8937 -78,-16.5996 -12.4754,-2.7941 -22.6428,-6.2268 -32.2148,-10.8769 -5.3208,-3.2645 -7.5281,-0.159 -12.2657,2.4902 z m -214.7441,11.7305 c -4.2944,0.077 -9.3255,2.8878 -8.9941,7.7402 l -15.6407,-0.5039 c -22.9546,-1.7396 -41.615,-0.6721 -63.7109,-3.0879 -7.7122,-1.272 -9.5405,3.427 -11.0078,8.9844 -1.0358,4.1267 4.5827,12.6318 11.334,17.1562 16.3323,11.9063 31.6473,17.5852 43.7441,22.8633 23.1871,10.6956 48.0301,14.6615 71.5,20.4375 5.7178,1.4384 12.6966,1.2468 14.3379,-0.3945 23.2503,-9.9982 51.2282,-18.3975 63.168,-33.5371 0.9409,-2.9646 2.4518,-9.2472 -5.4532,-9.6582 -12.7126,0.987 -27.5597,0.1907 -41.5527,-1.7969 -15.8593,-2.4184 -47.6138,-12.4661 -52.1074,-25.2383 -0.7294,-2.0732 -3.0406,-3.0109 -5.6172,-2.9648 z m 241.2246,5.0469 c 15.5232,5.6603 31.7669,6.5835 47.5,11.6621 3.4103,1.1358 23.3983,5.2023 34.2461,6.9668 3.9855,0.6483 7.512,1.6087 7.8359,2.1328 0.8949,1.448 -5.5194,8.8707 -21.5468,24.9316 -15.5474,15.5799 -26.2164,25.2773 -32.3223,29.3809 -3.2413,2.1783 -4.7371,2.5086 -10.377,2.2988 -20.9879,-3.3685 -44.0901,-6.989 -57.8359,-9.7187 -21.5581,-4.2853 -25.1283,-5.1159 -28.7207,-6.6817 -2.3959,-1.0444 -3.4647,-2.0497 -3,-2.8203 0.397,-0.6584 4.4014,-4.5318 8.9004,-8.6094 8.6568,-7.8459 29.061,-33.0622 33.3481,-39.7568 8.1136,-11.7124 4.894,-15.3762 21.9722,-9.7861 z m -245.2383,12.166 c 2.7791,-0.089 5.1678,0.795 7.0938,2.2812 24.9043,14.0768 46.0013,19.3633 61.3945,22.4102 5.5217,2.2051 10.75,1.4402 10.75,1.8047 0,0.6618 -1.756,1.4699 -14,6.4414 -11.7451,4.4729 -27.7873,12.0569 -33.6953,11.4062 -27.3837,-1.8262 -55.4754,-18.5212 -78.9141,-24.4258 -6.1932,-1.3244 -29.1597,-15.9726 -29.3398,-18.7128 -0.027,-0.4164 15.1367,-0.5432 33.6992,-0.2832 19.3465,0.2708 36.4624,0.059 40.1055,-0.4942 1.0106,-0.2599 1.9799,-0.3979 2.9062,-0.4277 z m 452.1739,42.2343 c -2.2647,0.133 -5.0792,2.532 -15.0704,11.3399 -14.6628,12.879 -33.8231,22.2719 -47.8652,30.8984 -0.825,0.5132 -6.9,3.567 -13.5,6.7852 -12.4295,6.0606 -15.1347,8.1095 -14.1387,10.7051 0.4613,1.2021 0.059,1.3922 -1.9004,0.9004 -3.0996,-0.778 -5.4609,1.0604 -5.4609,4.2539 4.054,16.4487 33.1123,42.8937 43.6524,48.4121 8.3963,3.2557 20.9156,10.43 29.2597,6.6269 1.7558,-0.8759 3.0879,-1.1009 3.0879,-0.5215 3.0173,11.773 15.2504,4.5447 20.252,1.1211 14.2316,-8.8222 26.8394,-18.9518 40.748,-27.4843 6.0246,-3.9759 34.3232,-26.73 36.7227,-28.5996 2.3996,-1.8698 2.1932,-3.7131 -4.7129,-9.6387 -17.2546,-15.552 -40.0404,-26.8904 -54.6211,-41.8906 -6.44,-6.6577 -12.2702,-11.7929 -14.125,-12.4395 -0.8783,-0.3061 -1.5733,-0.513 -2.3281,-0.4688 z m 1.6054,16.2286 c 0.2273,0 2.7851,2.2979 5.6856,5.1074 15.0332,11.9293 31.6253,26.5137 47.5429,36.7812 2.3703,1.2641 2.8111,1.5804 -0.1445,3.5293 -13.5484,10.3642 -31.237,26.168 -47.9883,36.3692 -7.3912,4.5356 -14.9415,9.7505 -22.373,13.2949 -2.3302,1.1 -4.7292,2.9205 -5.332,4.0469 -1.043,1.9489 -1.1771,1.8879 -2.7637,-1.2793 -2.8835,-4.516 -9.0878,-6.2144 -14.0547,-7.3242 -20.0839,-7.9684 -36.644,-25.9197 -48.5098,-42.6485 -1.1567,-0.9379 -1.7576,-2.0515 -1.3359,-2.4746 0.4217,-0.4232 1.2514,-0.2857 1.8437,0.3067 17.9603,5.2237 58.7076,-26.3686 80.4434,-41.209 3.6151,-2.475 6.759,-4.5 6.9863,-4.5 z m -439.084,28.1601 c -1.3872,0.035 -2.9432,0.208 -4.7324,0.5508 -5.6362,1.0636 -6.8517,6.7412 -4.6679,21.7891 1.766,12.4936 2.5651,25.9598 5.9921,37.3554 2.5381,8.2655 2.4626,9.9535 -0.5488,12.3223 -6.6056,6.5888 4.8004,13.6627 8.8262,15.7813 32.6059,15.9076 70.4648,24.9247 104.5058,23.9589 13.5229,-0.3837 20.4486,-0.5298 23.8555,-5.2793 3.2856,-4.5803 -1.9701,-18.5746 -4.1933,-28.1386 -3.5803,-14.9098 -5.1158,-27.0235 -4.9415,-39 0.096,-6.6 -0.2418,-12.8128 -0.7519,-13.8047 -2.2784,-7.3214 -11.5308,-1.3776 -28.8008,-5.2481 -22.4883,-3.4536 -45.3634,-8.1391 -68,-12.2558 -15.3827,-1.7927 -16.832,-8.2758 -26.543,-8.0313 z m 6.1329,16.4942 c 2.0952,0.1021 5.172,1.6181 8.9101,2.1406 29.4806,4.1208 62.2205,11.6601 87.4043,12.6367 7.7062,0.2 7.4759,-0.1937 9.043,15.4824 1.1035,11.0379 4.0007,27.2338 6.0976,34.086 0.9477,5.0065 5.8525,17.4517 1.8028,18.9277 -28.6825,1.2303 -78.7844,-3.6982 -105.3594,-19.9355 -3.0393,-1.8784 -3.3494,-2.6041 -4.8047,-11.25 -0.8556,-5.0831 -2.2573,-12.6058 -3.1133,-16.7168 -1.7602,-8.4536 -2.8934,-19.4357 -2.998,-29.0254 -0.1916,-5.1362 0.9223,-6.4479 3.0176,-6.3457 z m 251.2246,64.5468 c -0.738,-0.017 -1.4588,-0.016 -2.1621,0.01 -6.3018,0.1939 -11.1596,1.9806 -13.6407,6.1738 -8.4435,18.5904 -28.999,51.6012 -38.9433,60.6192 -3.7953,0 -5.5671,4.0718 -4.3809,10.0703 1.3052,6.5998 5.3426,8.1952 38.666,15.2793 25.5349,7.8254 52.4707,13.1711 77.4668,16.6211 13.5056,1.8535 14.4796,2.1389 17.1504,4.998 4.5148,4.8331 7.3374,4.0238 14.0879,-4.039 2.3593,-2.8179 4.3707,-5.8682 4.4707,-6.7774 0.4705,-4.2933 2.4858,-8.9807 11.2051,-26.0781 11.8456,-23.2277 17.0092,-31.2563 22.2187,-34.5449 5.6978,-3.5968 5.4653,-8.1029 -0.7617,-14.7793 -3.054,-3.2744 -6.2624,-3.4962 -10.0508,-0.6953 l -2.7793,2.0546 c -11.5276,-1.9649 -23.2281,-3.9622 -34.3613,-7.1972 -16.3824,-2.6955 -55.3072,-21.1873 -78.1855,-21.711 z m -0.01,14.5411 c 1.8741,-0.037 4.0307,0.3913 6.4629,1.3164 30.0697,8.025 62.4099,17.4662 91.5683,23.9004 4.5852,0.9964 8.7269,2.2034 9.2051,2.6816 0.4927,0.4926 -0.8448,3.8245 -3.0859,7.6875 -9.8391,20.0239 -16.4388,38.6356 -24.6484,45.6445 -1.63,1.2821 -3.9038,1.9757 -6.1915,1.8867 -28.5233,-1.7321 -58.0546,-9.9711 -83.1152,-16.4199 -26.5274,-6.815 -26.8764,-6.9174 -28.1289,-8.1699 0.4507,-7.4787 8.1682,-16.3255 11.3574,-22.2695 8.6543,-16.1507 17.2906,-29.3142 19.6074,-32.334 1.5086,-2.5065 3.8453,-3.8619 6.9688,-3.9238 z m -342.9102,21.83 c -1.295,-0.07 -2.5069,0.2737 -3.5078,1.1543 -11.4017,8.7705 -13.662,7.5728 -22.8066,14.3203 -23.7038,16.1323 -51.146,29.0225 -71.6914,41.6661 -4.6164,2.9051 -0.9022,5.1448 4.0605,11.2148 13.9799,18.9811 26.8924,34.0446 40.6231,50.0391 5.7438,10.8969 14.9135,1.8212 26.2226,-4.8477 4.844,-2.5409 14.6341,-7.6649 21.7559,-11.3867 20.6307,-10.7814 40.1644,-26.3097 48.0664,-38.211 2.914,-3.0172 4.8815,-7.6863 -1.1133,-12.5214 -7.0604,-8.5661 -24.7456,-30.6448 -31.1777,-43 -1.915,-4.2934 -6.5466,-8.2192 -10.4317,-8.4278 z m -2.2949,10.836 c 0.095,0.01 0.1795,0.021 0.2559,0.045 1.8676,0.5927 3.8418,3.5365 19.8125,29.5469 5.2345,8.525 10.1494,16.2098 10.9238,17.0781 2.6989,5.4995 -3.8449,8.6056 -7.8633,12.7695 -13.9484,13.2537 -40.5785,24.9296 -60.9101,36.6524 -4.8741,4.1013 -6.7487,3.3905 -14.6895,-5.5625 -3.9326,-4.4339 -9.5073,-11.4382 -12.3887,-15.5664 -7.309,-10.715 -12.2281,-17.1911 -21.2402,-25.7676 0,0 7.8133,-4.3578 20.4824,-10.168 18.9382,-10.1126 39.2507,-21.3406 54.795,-32.6797 5.8996,-4.3715 9.4006,-6.4275 10.8222,-6.3476 z m 97.3946,75.9863 c -11.5093,0.3991 -11.1282,13.9297 -9.5,22.7324 1.8693,11.8092 5.4855,24.7349 7.4687,34.6797 2.4222,12.1927 2.7825,15.6273 1.9043,18.1465 -1.4842,4.2574 0.4232,8.5723 5.0918,11.5195 11.6225,3.6064 55.1354,10.2366 67.9766,6.6992 2.9659,-1.0339 3.207,-0.9079 5.6543,2.9688 1.4055,2.2265 2.3253,4.2781 2.0449,4.5586 -21.9593,2.1847 -49.3111,0.7608 -68.7949,5.3926 -6.1897,1.9378 -7.3214,10.8914 -3.2071,13.9785 6.8672,6.5273 8.3828,-3.1678 62.3379,-5.8633 l 17.4707,0.293 c 3.2768,8.4271 9.3853,14.2535 10.9903,22.791 5.9132,14.7351 7.8719,13.4209 20.7421,6.6152 28.0775,-7.9231 76.7956,-21.6498 99.211,-36.3711 1.7796,-2.716 2.1808,-9.0687 0.6328,-10.0254 -12.555,-16.8736 -25.9095,-43.3093 -31.4219,-62.584 -1.5309,-8.1989 -9.7498,-11.2699 -15.3476,-6.7871 -4.1217,3.4683 -13.4554,7.1164 -27.7481,10.8477 -6.6,1.723 -13.3812,3.5552 -15.0703,4.0723 -4.9597,1.5184 -5.493,1.2174 -3.6328,-2.0586 1.6159,-2.8456 1.6088,-3.1682 -0.1426,-6.25 -3.2985,-5.8043 -4.9589,-12.1086 -5.0703,-19.25 -0.1232,-7.8941 -1.364,-10.8183 -5.4961,-12.9551 -2.448,-1.266 -3.4038,-1.2834 -6.7207,-0.1172 -12.6797,4.4579 -40.6146,6.8649 -53.8672,4.6406 -16.0752,-3.4009 -34.0199,-1.3751 -49.8144,-6.9883 -2.1606,-0.531 -4.0473,-0.7425 -5.6914,-0.6855 z m 3.6406,12.7871 c 10.3143,1.7274 20.5373,2.9119 31.3652,4.3262 25.0355,3.2904 50.053,3.2274 63.3555,-0.1602 5.0298,-1.2809 9.6356,-2.3279 10.2344,-2.3379 0.6583,-0.01 1.1105,2.3524 1.1445,5.9668 0.063,6.6611 4.3697,17.4114 8.8574,22.1094 l 2.4707,2.5879 c -11.4999,1.6955 -23.7767,4.7967 -34.0625,5.8008 -23.2407,1.3 -32.9691,0.9322 -20.7969,20.2754 1.7242,1.9954 6.7969,12.584 6.7969,14.1875 -5.9214,-0.5496 -27.4305,-3.0674 -30.7617,-3.4493 -12.8187,-1.4177 -26.026,-4.2344 -30.1133,-6.4218 -1.4254,-0.7629 -2.1608,-2.5294 -2.625,-6.3125 -2.0679,-15.8565 -5.3439,-31.6123 -7.7851,-45.7539 -1.5,-8.6992 -1.8172,-10.9556 1.9199,-10.8184 z m 370.3594,10.5449 c -1.5625,-0.069 -3.461,0.1726 -5.6329,0.6797 -5.0098,0.2996 -21.3371,2.562 -34.8613,4.6016 -31.5442,4.6303 -50.171,4.6961 -77.3945,8.5058 -6.4431,-0.1512 -8.1937,5.222 -7.957,9.4864 0.7219,7.9087 -1.1466,17.8126 -1.6407,25 -1.6249,23.9369 -7.5828,36.5733 -10.6269,44 -8.1008,14.3943 -0.1334,17.6641 12.2109,15.08 35.5622,-4.5652 69.665,-8.3838 101.5313,-21.2636 6.0146,-1.8892 3.7975,-0.703 6.0136,-1.8887 4.0551,-2.1702 5.1582,-4.6803 6.3399,-14.4277 0.9314,-7.6833 5.243,-27.9129 8.0996,-38 2.3126,-7.1721 2.3593,-16.2089 7.1973,-21.6368 3.0698,-6.9341 1.4081,-9.9288 -3.2793,-10.1367 z m -14.5411,15.0586 c 1.0343,1.0343 0.5463,9.3077 -0.914,15.5098 -2.1082,13.3376 -7.5132,26.0085 -10.2403,39.1367 -0.7109,3.4995 -1.2944,4.1152 -5.2988,5.5918 -24.2346,8.9367 -42.1818,13.068 -65,14.9609 -30.704,2.5471 -28.0006,2.5086 -27.9746,0.4102 2.6981,-14.4217 6.0525,-29.8246 7.4941,-43.3945 1.2157,-11.7956 3.1665,-20.5085 4.5196,-20.1914 0.7275,0.1705 4.2791,-0.1571 7.8926,-0.7286 46.9522,-5.1463 59.1909,-4.891 89.5214,-11.2949 z m -182.8632,4.1387 c 2.8841,0.1539 4.0938,4.056 7.6093,12.707 13.8189,30.9585 25.1871,43.1921 22.1016,43.9395 -20.5337,14.833 -59.9232,25.9513 -85.8008,30.3965 -15.1127,2.8829 -10.8893,1.6696 -17.5,-9.5625 -7.2207,-16.2983 -16.9771,-32.7419 -23.3281,-47.1563 -3.0431,-7.1174 -2.6559,-7.4669 10.3359,-9.3516 6.3209,-0.9166 15.0922,-2.1912 19.4922,-2.832 18.9658,-3.2159 46.2753,-10.5203 63.5,-17.082 1.481,-0.7444 2.6285,-1.1099 3.5899,-1.0586 z m -218.2676,56.7656 c -3.3981,0.2109 -6.2013,2.3159 -6.3223,7.0547 -0.6381,7.094 9.6151,33.3511 17.6836,52.3945 1.804,2.2095 11.3164,23.8846 11.3164,25.7852 0,1.5642 -25.0872,-3.0669 -36.4121,-7.7246 -15.5491,-6.3951 -19.7557,-14.3225 -9.0879,-23.8125 8.7124,-8.1209 7.4777,-14.9927 -2.3535,-14.7403 -5.3312,0.1589 -7.1798,1.6513 -15.877,12.8145 -11.5761,19.4969 4.5745,51.1439 12.2012,71.0391 38.3412,100.0182 64.6075,172.6915 101.0449,236.5195 16.3951,35.2333 11.8279,34.9554 9.9786,89.4805 -0.521,15.0314 -0.826,36.6458 -2.252,51.6132 -1.48,15.025 1.8287,27.2529 5.5195,29.7071 13.1109,11.8529 25.539,14.8518 37.5098,18.7768 0,0 -1.0875,22.2812 -1.5703,28.1153 -0.4827,5.8341 -1.803,13.6688 3.5762,14.3515 5.3792,0.6827 95.0871,4.8509 106.7421,4.4785 11.6549,-0.3724 6.6148,-4.257 6.8907,-12.5117 0.2758,-8.2547 -0.3452,-16.3856 -0.4141,-18.7441 -0.069,-2.3585 -7.881,-6.087 -8.9844,1.8574 -1.1034,7.9443 -2.6914,17.875 -2.6914,17.875 0,0 -78.7216,-5.6337 -83.9629,-5.7578 -5.2412,-0.1241 -8.4148,2.1106 -7.6562,-3.8477 0.6909,-5.4268 1.3549,-21.1696 1.4805,-24.1972 51.8841,6.2199 99.6894,1.5712 116.6386,-7.2168 6.6803,-4.365 10.5506,-7.5381 12.8223,-12.834 2.2522,-5.2503 3.0486,-11.3887 3.1465,-15.711 0.8899,-39.2997 -1.6115,-86.2379 3.0176,-121.955 4.3465,-25.2691 15.4013,-50.5245 23.1113,-73.5 22.4477,-52.0501 38.3425,-102.9916 59.6289,-150.5 16.436,-39.9314 29.8913,-72.0708 39.0801,-94.502 3.8292,-7.5584 6.0186,-12.9298 6.373,-17.3555 1.4971,-18.6961 -28.6166,-33.3192 -34.2617,-33.8847 -16.7856,-3.2369 -29.3171,6.9831 -14.8262,15.6367 6.7817,3.9743 8.92,7.5636 8.0918,13.5859 -12.5408,23.6182 -38.7654,24.8286 -61.6738,30.6075 -2.6215,1.3556 -2.9121,1.3306 -3.4277,-0.3028 -2.9294,-8.6771 -3.8875,-18.5174 -3.5879,-27.7344 0.2584,-5.5484 -9.8386,-11.1263 -13.5039,-7.4609 -31.6998,2.2285 -56.4457,5.1261 -88.1739,6.4981 -11.6711,0.3845 -13.3568,1.4712 -11.9629,7.7109 0.5161,2.3106 1.7415,5.5668 2.7227,7.2363 3.1735,5.3998 7.6708,26.9972 5.8555,28.1192 -1.1251,0.6953 -52.6838,0.5043 -53.8223,-0.1993 -0.6037,-0.3731 -17.0248,-1.1188 -31.1973,-1.4179 -5.6321,-19.0127 -15.1219,-40.0509 -19.7168,-57.6778 -1.3049,-5.2253 -4.579,-7.5192 -10.289,-7.205 -25.9192,-2.1715 -49.9036,-15.3235 -60.5157,-26.1563 -2.4977,-2.8363 -6.4906,-4.5195 -9.8886,-4.3086 z m 10.1465,23.084 c 15.8659,13.2592 43.7852,19.0342 57.2793,21.4316 5.4472,10.5773 15.2716,35.3733 16.6621,49.9395 -12.7481,-3.1161 -41.1434,-4.2009 -48.1348,-5.6934 -4.8079,-15.1281 -12.0892,-29.486 -18.793,-44.9511 -1.0685,-4.8697 -9.9134,-16.0851 -7.0136,-20.7266 z m 263.4804,36.5117 c 0.443,0.01 0.8855,0.022 1.3262,0.047 3.6046,1.4574 7.1445,21.4375 7.5098,26.0977 -20.5162,6.5099 -43.6812,10.0738 -64.2852,11.0703 -6.6,0.3088 -13.4389,0.7885 -15.1992,1.0664 -6.1157,1.253 -5.1871,-11.9223 -8.9395,-30.0879 2.657,-1.9429 31.6479,-4.9525 57.6387,-5.9844 8.3722,-0.444 15.3054,-2.311 21.9492,-2.209 z m 100.4414,6.9063 c 0.3711,0.06 0.6698,0.801 1.0723,2.6328 0.5031,2.2909 0.068,4.8861 -1.5,8.9512 -5.218,13.5309 -7.4782,19.1035 -10.207,25.1582 -7.5083,22.7166 -20.0698,48.8092 -26.2813,65.5664 -12.4884,30.9101 -35.7295,82.5474 -54.4453,135 -10.2538,25.496 -18.2961,49.2308 -29.3242,81 -3.9106,8.0023 -4.0987,12.1422 -1.3594,29.9375 -0.1489,31.8039 6.4539,70.0771 -1.0117,102.2773 -0.5082,2.0386 -5.6389,9.6773 -7.1348,10.5117 -32.1459,17.9322 -70.2793,9.5592 -102.4433,9.3828 -3.943,0.1646 -4.8702,-1.3469 -4.0684,-6.6308 0.3962,-2.6101 0.5095,-5.2939 0.252,-5.9649 17.1338,-3.9091 70.5985,1.7516 81.3652,-0.027 6.7997,-1.3213 3.2963,-6.1252 -1.3496,-7.6426 -1.9506,-0.6371 -10.5006,-1.4519 -19,-1.8105 -41.1718,-1.7374 -62.1377,-3.776 -66.9375,-4.3868 -6.1267,-0.7795 -7.7704,1.259 -6.9395,8.6036 0.3536,3.1247 0.3549,7.4878 0,9.6953 -0.5432,3.3972 -0.3367,5.3672 -2.3769,5.3672 -9.6578,-2.7232 -19.3392,-4.2338 -24.2149,-10.0313 -4.3623,-3.9586 -6.1862,-7.8717 -5.5351,-13.375 1.4036,-11.8567 1.88,-18.0316 3.041,-39.4062 0.5826,-10.725 1.4649,-22.65 1.9609,-26.5 1.9319,-24.2218 1.135,-33.0049 1.4922,-49.6407 0.2245,-14.0526 -5.2288,-20.1094 -16.3066,-44.1914 -9.6198,-16.4143 -19.0504,-36.3002 -24.7949,-52.1679 -15.3061,-36.3818 -30.0878,-75.5577 -44.8731,-116.3399 -30.6592,-84.5675 -40.33,-89.7747 -19.6094,-85.1933 45.3513,10.0273 92.8977,13.7304 135.6368,16.4746 53.1436,0.6676 109.3758,1.578 163.7636,-10.9922 26.4366,-6.6838 61.0612,-14.9988 77.8633,-32.7813 1.8286,-1.7862 2.6471,-3.5768 3.2656,-3.4765 z m -329.5254,52.3125 c -1.1601,-0.08 -2.4021,0.2914 -3.7636,1.0957 -3.4943,2.0641 -3.7611,3.7422 -1.6543,10.4004 3.514,11.1052 5.7159,15.6829 9.0215,18.75 5.5867,5.1836 8.8839,4.364 18.4062,-4.5703 3.5057,-3.2892 7.6134,-6.2282 9.1289,-6.5313 3.7739,-0.7548 5.9961,-3.2328 5.9961,-6.6855 0,-6.2587 -7.3846,-6.4173 -25.7344,-0.5528 -1.9701,0.6297 -2.5141,0.086 -4.5879,-4.5976 -2.1116,-4.7689 -4.2601,-7.1328 -6.8125,-7.3086 z m 152.8731,3.7695 c -3.5149,0.1016 -5.9263,3.0751 -5.3203,7.0137 0.2718,1.7665 0.7667,5.3504 1.0996,7.9629 0.3329,2.6125 1.0286,4.75 1.5449,4.75 0.5163,0 0.9375,0.8298 0.9375,1.8457 0,1.0158 0.9,2.886 2,4.1543 1.1,1.2683 2,2.5902 2,2.9375 0,1.1106 6.395,4.5432 9.5,5.0996 1.65,0.2957 5.25,-0.056 8,-0.7813 2.75,-0.7254 9.05,-1.5548 14,-1.8418 4.95,-0.287 16.095,-1.1711 24.7656,-1.9668 8.6705,-0.7958 16.883,-1.4472 18.25,-1.4472 3.5303,0 6.8256,-3.4974 5.5469,-5.8868 -2.1009,-3.9255 -5.9535,-4.4329 -27.8535,-3.6679 -11.3898,0.3979 -24.984,0.8646 -30.209,1.0351 -5.225,0.1705 -10.2273,-0.078 -11.1172,-0.5507 -1.407,-0.7476 -3.0153,-4.9271 -3.3125,-8.6094 -0.052,-0.6487 -0.396,-1.4801 -0.7636,-1.8477 -0.3676,-0.3676 -0.4604,-1.2089 -0.2071,-1.8691 0.6736,-1.7553 -3.7081,-5.4764 -7.2929,-6.1934 -0.5417,-0.1083 -1.0663,-0.1512 -1.5684,-0.1367 z m -51.2363,21.3887 c -1.716,0.024 -3.4309,0.1494 -5.002,0.3867 -3.3,0.4983 -11.85,1.6323 -19,2.5215 -22.7838,2.8333 -24.4598,3.1892 -27.3555,5.8027 -3.519,3.176 -4.3902,6.2681 -2.957,10.4981 0.6763,1.9962 1.6237,4.1696 2.1055,4.832 2.3303,3.2038 4.7051,9.1685 8.9101,22.3789 5.9431,18.6713 6.7969,22.5381 6.7969,30.7734 0,8.0835 2.0113,15.4618 5.1133,18.7637 3.0515,3.2482 5.3515,2.9953 10.1582,-1.1191 2.2489,-1.925 5.1061,-3.5 6.3496,-3.5 1.2436,0 2.539,-0.45 2.8789,-1 0.34,-0.55 1.6055,-1.0059 2.8106,-1.0059 1.205,0 3.4256,-0.6517 4.9355,-1.4394 1.5098,-0.7876 3.5348,-1.4118 4.5,-1.3868 0.9651,0.025 5.3539,-0.8546 9.7539,-1.955 4.4,-1.1005 10.7,-2.591 14,-3.3125 3.3,-0.7216 7.125,-1.8912 8.5,-2.5997 1.375,-0.7084 3.7165,-1.2949 5.2031,-1.2949 4.3533,-0.01 11.7969,-3.8689 11.7969,-6.1152 0,-1.1862 -6.1267,-3.8675 -9,-3.9395 -6.411,-0.1595 -22.8896,2.8457 -44.5,8.1153 -12.6178,3.0768 -16.1142,3.4637 -18.3789,2.0293 -0.7657,-0.485 -2.2065,-5.2592 -3.2402,-10.7344 -1.8844,-9.9807 -4.6093,-20.0312 -5.9278,-21.8613 -0.3962,-0.55 -1.0474,-2.575 -1.4472,-4.5 -0.3999,-1.925 -1.7383,-5.75 -2.9727,-8.5 -3.128,-6.9688 -3.9283,-11.9264 -2.164,-13.3907 0.7733,-0.6418 4.7177,-1.8293 8.7675,-2.6386 4.0498,-0.8093 10.7383,-2.1456 14.8633,-2.9707 4.125,-0.8251 8.4,-1.7337 9.5,-2.0176 1.1,-0.2839 4.9769,-1.259 8.6152,-2.168 6.7858,-1.6954 10.1449,-4.4549 8.0157,-6.584 -1.3224,-1.3226 -6.481,-2.1419 -11.6289,-2.0683 z m -16.6973,122.0293 c -0.7255,0.01 -1.4403,0.042 -2.0996,0.1 -8.3176,0.7229 -9.6121,5.7206 -6.7949,26.209 0.7184,5.225 1.6803,12.2 2.1386,15.5 0.4584,3.3 1.1503,10.561 1.5371,16.1367 0.6733,9.7019 0.6108,10.1868 -1.4414,11.2851 -3.6938,1.9768 -1.983,7.5753 3.3926,11.1016 2.7228,1.7862 5.0858,1.8513 9.4629,0.2637 0.825,-0.2992 14.55,-0.8852 30.5,-1.3028 31.5482,-0.8261 35.5,-1.4538 35.5,-5.6347 0,-4.7639 -4.3486,-5.4923 -31.8691,-5.3438 -38.2884,0.2066 -36.4444,0.3032 -35.8692,-1.8965 0.8395,-3.21 -1.2812,-20.7116 -4.1992,-34.6562 -1.5295,-7.3092 -2.5073,-13.7095 -2.1719,-14.2227 0.3354,-0.5132 1.7344,-1.1881 3.1094,-1.5 1.375,-0.3119 4.5106,-1.3104 6.9668,-2.2187 6.2613,-2.3153 20.2307,-3.8537 44.668,-4.918 6.4602,-0.2813 9.9125,-0.9071 11.789,-2.1367 l 2.6543,-1.7383 -2.2617,-2.1094 c -1.9904,-1.8581 -3.8139,-2.169 -15.2871,-2.6093 -7.1654,-0.275 -19.3293,-0.1758 -27.0293,0.2207 -7.7,0.3969 -15.35,0.3668 -17,-0.062 -1.2375,-0.3229 -3.5187,-0.4969 -5.6953,-0.4668 z m 91.4141,7.0312 c -0.9675,0.011 -1.8671,0.2774 -2.6016,0.8145 -1.4718,1.0763 -1.7982,3.6396 -2.2207,17.4414 -0.5369,17.5394 1.2337,31.3292 4.332,33.7383 2.0388,1.5851 3.1536,0.8091 4.9239,-3.4278 1.0577,-2.5314 1.5489,-9.0804 1.8203,-24.2929 0.3304,-18.5134 0.1852,-20.9887 -1.3008,-22.2715 -1.54,-1.3294 -3.3407,-2.0205 -4.9531,-2.002 z m -84.1153,124.336 c -2.7905,-0.01 -5.4841,0.2511 -8.125,0.9531 -7.7591,-2.4476 -3.2166,30.4508 -3.2617,35.4883 0.4518,20.9669 -1.0452,45.0124 3.3145,48.7246 2.5327,2.0508 5.1049,2.154 17.4707,0.6992 9.9675,-1.1727 17.5356,-1.7425 31,-2.3359 21.9966,-0.9694 40.1968,0.8331 41.9355,-0.7032 2.2623,-1.9994 2.2409,-5.4487 -0.043,-6.875 -1.9299,-1.2053 -44.8632,-3.7202 -62.4882,-2.4355 -6.2919,0.5783 -12.4324,0.2738 -18.6289,-0.6563 0.9958,-16.0219 -1.1897,-38.8192 0.705,-57.3007 18.7369,-0.871 49.824,1.1822 69.7032,0.8847 7.3665,-0.097 11.7433,-0.5984 13.25,-1.5215 4.7845,-3.7506 2.6238,-6.9582 -2.9454,-7.4902 -5.2976,-1.146 -25.674,-4.7605 -52.9902,-4.916 -11.284,-0.064 -20.5249,-2.491 -28.8965,-2.5156 z m 86.6426,18.125 c -2.1545,0.2085 -3.3701,3.1859 -3.9414,9.1504 -1.3454,14.0423 1.8925,39.4068 5.625,44.0644 1.3262,1.6548 2.24,1.5761 3.8203,-0.3281 0.9919,-1.1952 1.3287,-7.2674 1.3887,-25.0449 0.075,-22.3189 -0.018,-23.5565 -1.9356,-25.2735 -2.0331,-1.8209 -3.6643,-2.6934 -4.957,-2.5683 z m -97.7637,209.5996 c -7.1672,-0.3874 -9.7062,10.7 -5.875,15.9043 1.9796,3.5254 1.8127,5.1179 2.3379,35.5 2.5135,35.0904 0.016,39.2564 7.8906,40.7636 34.3745,3.2642 69.2793,4.8544 102.3946,4.1348 17.2881,-0.3895 16.2593,-2.7409 15.3574,-8.8262 -2.4095,-16.1733 -4.1608,-39.0441 -4.5898,-57.2539 -0.2615,-12.381 -0.6381,-15.594 -2.084,-17.8008 -3.2615,-4.9776 -5.9063,-4.2061 -13.2715,-3.9765 -27.4385,-0.5079 -52.1426,-3.3374 -77.6953,-5 -12.0943,-0.7856 -12.8239,-0.011 -21.1133,-2.5274 -1.2077,-0.5743 -2.3277,-0.8626 -3.3516,-0.9179 z m 10.0411,17.2402 c 33.0184,0.4398 58.4514,1.6901 91.0898,2.8965 2.75,7.4484 2.6301,14.842 3.5508,22.6953 1.0037,8.4655 0.9922,9.7626 1.1933,23.1289 -0.4488,17.2484 2.3862,19.49 -5.7656,19.0313 -9.9017,0.1183 -22.8742,2.8675 -61.6445,-0.5938 -18.752,-1.6741 -25.543,-2.8593 -24.1836,-4.2187 -4.6535,-15.237 -4.4237,-31.6182 -4.8028,-46.8301 -0.2106,-8.4405 0.036,-15.4745 0.5626,-16.1094 z" fill="#00B894" transform="translate(-79.65662,100.85317) matrix(0.28382751,0,0,0.28382751,-283.76516,-573.68679)"/>
</svg>