<?xml version="1.0" ?><svg height="219.91679mm" viewBox="0 0 244.56778 219.91679" width="244.56778mm" xmlns="http://www.w3.org/2000/svg">
    <path color="#000" d="m 2056.8945,1595.0859 10.9851,537.5913 639.1966,-1.9135 c -9.9252,28.4545 -10.3028,55.9355 -10.3028,55.9355 l -624.6621,0.1348 -2.3554,92.1348 250.7851,-3.5215 399.4922,0.3925 c 0,0 18.4739,5.5082 25.4473,135.3516 93.26,45.1726 223.4121,-28.75 223.4121,-28.75 0,0 -38.3221,-210.9588 -57.6348,-260.2305 -14.4845,-36.9537 -55.1808,-57.1361 -101.6074,-57.3828 -15.4756,-0.082 -31.5876,2.0509 -47.5781,6.5157 -4.2605,1.1895 -8.2342,2.742 -11.9571,4.5859 v -62.2754 c 6.4725,-2.2134 13.2872,-4.8401 20.4864,-7.9102 77.1935,-32.9192 52.9543,-122.2431 27.5195,-159.8613 -10.9771,-16.2352 -26.8876,-35.0439 -48.0059,-45.9492 v -204.8477 z" fill="#FFFFFF" overflow="visible" paint-order="fill markers stroke" transform="translate(255.40103,-28.483424) matrix(0.26458333,0,0,0.26458333,-798.61284,-393.42924)"/>
    <path d="m 2056.8945,1595.0859 c -2.3658,1.2235 -4.5348,8.3687 -3.5797,10.1543 0.1687,12.4542 1.0102,11.8223 0.8454,25.2129 0.4424,213.3276 3.6144,381.9056 5.6035,482.2949 -1.4492,18.1781 0.358,30.3149 8.8534,29.1387 16.061,-1.834 33.7109,-2.9977 49.4297,-3.1972 52.3556,0.3441 115.4723,-0.9703 164.75,-1.379 69.9561,1.4578 140.9419,-2.0003 210.5176,-1.1445 60.7118,-1.5181 122.1064,-4.3491 184.1739,-1.2319 24.4262,1.2267 10.8155,-16.5588 4.7824,-16.4996 -102.6258,-1.7749 -213.4887,2.8558 -304.7864,3.5245 -91.5412,-0.063 -210.5876,0.2689 -282.0039,0.6758 l -10.5353,0.068 c -4.2841,0.3537 -8.4002,-0.3166 -7.4823,-8.8437 -5.792,-111.8416 -2.08,-125.1636 -4.3869,-199.0858 -7.8718,-181.9559 -0.4437,-207.5209 -4.7576,-307.2795 -0.3982,-9.2083 -4.8148,-14.5004 -11.4238,-12.4083 z m 443.7068,72.2415 c -14.3339,22.7108 -15.9412,23.1817 -26.988,40.5862 -12.8498,19.9288 -26.166,35.6585 -38.7559,53.4751 -49.6584,57.9215 -64.1271,78.5481 -67.3734,72.1359 -8.2197,-17.7673 -19.0206,-47.9174 -19.4313,-48.6848 -1.3845,-6.1075 -6.1533,-11.1671 -12.0117,-11.3984 -7.1821,1.2494 -14.7284,6.0225 -19.457,10.502 -5.7736,6.324 -8.3558,0.1881 -9.3941,-3.5912 -4.2847,-9.5621 -4.4504,-19.1077 -10.2856,-27.0084 -4.5355,-6.0553 -18.1937,-3.6515 -22.6487,5.1316 -4.9624,9.7837 -9.3484,18.291 -16.9079,26.4777 -18.1783,23.9265 -40.131,51.6561 -55.6993,75.1621 -13.9028,22.3731 -34.589,42.6618 -46.8183,62.293 -5.6015,6.1501 -5.7256,-13.3105 -8.1524,-15.9355 -4.9821,-5.389 -15.7598,-7.6892 -20.5644,0.4121 -6.1338,12.7437 -17.3308,22.3737 -26.5078,31.8164 -4.4281,5.1024 -13.1184,12.8526 -18.4551,16.0976 -4.797,4.9116 -2.71,7.4882 0.2637,10.6485 5.9539,4.6506 13.7272,1.7983 16.9453,-1.168 5.1758,-5.8668 9.3082,-11.8708 14.5332,-17.1445 7.3891,-10.0406 8.2362,-10.8008 16.3382,-19.3509 1.0867,-1.972 6.682,-7.3046 5.3651,-1.0416 2.1541,13.0118 5.0131,22.9499 15.5838,22.9745 8.032,-0.052 11.4574,-7.5873 16.2598,-13.6934 20.252,-25.7496 33.503,-50.6526 52.3789,-74.1464 6.8097,-10.7884 16.6828,-18.1145 22.5918,-29.8809 13.4956,-16.7749 24.0262,-34.1233 38.9316,-49.6348 3.2455,-3.3535 4.1391,-3.4284 6.5605,-0.5508 7.0154,8.1924 7.0383,23.4818 15.959,30.5665 2.0035,1.421 5.7739,1.0341 10.3575,-1.0645 6.0888,-1.1091 13.3045,-14.5131 17.5546,-16.332 5.2379,0.6623 6.6477,14.6687 7.5836,17.8715 7.3894,21.8064 8.2124,34.0274 21.6723,46.9468 4.7598,3.6559 13.5374,5.5691 16.8516,1.9707 10.2711,-14.4561 14.3793,-28.3966 27.4043,-42.8144 16.688,-17.9174 33.0798,-37.5148 46.3945,-56.2344 15.3714,-21.7694 32.4026,-45.5073 50.5644,-65.0605 8.2514,-12.2617 15.7355,-0.1763 21.6543,13.9661 23.5463,47.5927 29.4047,71.5535 42.7735,96.235 5.0234,7.6265 12.5751,4.1413 15.6328,0.7403 11.3057,-16.7167 22.9867,-28.928 35.0801,-42.4551 3.083,-2.8676 6.5652,-8.4637 9.7187,-10.1153 -1.0383,3.7428 -5.1205,10.0192 -1.1719,13.6426 3.3009,2.7902 10.7661,5.9729 13.3282,0.7012 7.0593,-15.0818 16.0165,-46.5033 11.8894,-52.681 -3.2403,-3.2729 -4.5547,-3.7641 -10.0137,-3.7461 -11.7638,6.6005 -23.3149,15.4659 -36.5066,23.3373 -4.1995,2.5058 -10.8502,7.7334 -6.6354,13.6306 1.1733,1.5715 4.7011,4.6774 9.2565,1.6819 5.9365,-3.9037 2.9659,-0.6155 1.8618,1.5969 -7.175,8.4631 -16.2836,19.2521 -21.7751,25.5201 -8.2195,8.1118 -11.625,19.4781 -19.193,-1.8008 -22.6513,-47.8221 -29.3821,-68.0598 -47.1131,-106.4234 -5.019,-5.5226 -12.33,-8.1557 -19.4293,-4.1631 z m 95.2611,199.1138 c -16.2086,38.7956 -4.47,88.9019 16.0515,113.8518 l 1.5761,1.8535 c -2.465,2.2051 -4.8534,4.7286 -7.7617,6.3086 -12.9742,10.4786 -23.1753,15.2962 -13.0667,22.3933 2.1696,1.0265 4.3899,1.9067 6.6992,1.627 12.6814,-1.5359 15.3874,-10.7651 24.5355,-15.407 1.6518,-0.8232 1.9669,-0.816 3.3613,0.076 24.0271,20.2347 39.4658,25.6745 67.3652,30.2871 26.3184,4.3512 57.1758,-2.4707 76.1891,-13.6133 51.8957,-30.4129 63.3823,-75.5452 52.6855,-131.6838 -10.8204,-56.7869 -60.4964,-92.2721 -99.1141,-95.7414 -48.3985,-2.9142 -104.2559,15.2971 -128.5209,80.0482 z m 211.9242,20.567 c 9.5442,62.099 -5.8399,90.0893 -47.9935,113.9527 -14.684,6.3049 -29.3068,10.0192 -43.9004,9.9512 -2.1779,-0.01 -2.1028,-1.2462 0.2031,-3.3066 2.5425,-2.2717 3.2052,-5.8904 1.5723,-8.5899 -2.0251,-3.348 -5.8311,-6.3531 -8.4766,-6.6933 -6.2676,-0.9072 -12.791,2.2106 -12.6465,8.8867 0.8916,5.4651 3.0405,6.7655 6.9495,9.1941 -22.5653,0.1603 -48.0421,-9.3218 -60.7034,-24.659 -2.6044,-2.1087 -1.4932,-3.2603 0.4862,-4.5219 8.5693,-6.0866 -0.2201,-21.911 -10.0111,-14.4881 -3.0338,2.202 -1.3003,2.4345 -4.4923,2.6331 -2.699,-3.8018 -4.2451,-6.0695 -6.3789,-8.4649 -3.3303,-3.7351 -2.8856,-5.5165 0.6367,-2.5527 9.4585,6.4288 16.2791,-4.6605 13.1659,-14.0379 -2.0304,-4.402 -4.9647,-9.0744 -11.8564,-10.6573 -4.9382,-1.1342 -7.3377,3.7036 -9.8452,12.2495 l -3.9955,-8.0564 c -7.9435,-21.3165 -2.3204,-48.6884 2.5157,-67.3223 2.413,-9.3125 10.7857,-27.0158 30.2637,-43.4863 73.329,-52.6622 147.9969,-9.1313 164.5067,59.9693 z m -191.9331,24.6148 c 0.4299,7.8222 8.4684,10.2451 14.7207,5.0411 10.6059,-8.0218 23.5418,-19.8652 16.8726,-26.8272 -8.3186,-9.9138 -31.4921,14.0681 -31.5933,21.7861 z m 192.8301,140.9375 c -30.8592,0.3357 -65.8097,9.166 -86.9863,32.6602 -31.6529,33.2995 -28.3509,59.4686 -27.4141,93.3359 0.2189,6.7031 2.4894,8.143 2.4894,8.143 -0.5957,-2.3438 -6.8253,6.8545 -6.8253,5.5657 1.7282,-7.548 -1.8606,-8.7018 -3.8594,-10.7868 -1.9964,-2.5809 -12.8634,-2.297 -16.1484,-1.9785 -54.1695,-2.505 -109.6731,-1.3254 -160.3435,-0.4372 -102.5941,3.1766 -189.0897,-1.145 -280.3948,1.9312 -54.9704,1.9714 -94.8268,-1.4216 -148.3778,-0.1287 -18.7704,0.4532 -16.7644,3.676 -17.3136,18.7237 4.0623,27.5511 0.7782,55.6941 -1.0618,75.7761 -1.0197,9.2112 6.539,11.2684 11.7276,11.0207 46.0262,0.4964 92.3156,-0.6424 132.772,-0.797 4.6466,0 4.7662,0.037 4.5898,1.3829 -0.1,0.7602 0.2585,2.0324 0.7949,2.8281 5.1518,7.7476 11.7287,11.6977 16.6368,14.4121 15.0909,8.3461 64.933,16.9169 81.7441,12.6372 4.445,-1.1316 17.3915,-1.8369 21.123,-4.3945 5.5215,-1.7384 9.2838,-1.5442 13.7637,-0.2598 36.6594,14.2228 82.8129,19.9437 120.3649,20.1476 45.4734,0.2469 108.3316,-12.515 144.3714,-45.6303 5.732,-5.3519 5.0405,-5.0415 11.7286,-5.2598 7.6864,-0.2508 8.5669,-0.2382 14.7714,0.2168 6.3424,0.465 7.0609,0.6953 7.4903,2.4063 2.5476,6.6946 11.7749,23.1805 23.4043,26.7754 20.5435,6.3506 39.7175,5.5262 56.6093,7.4922 2.7529,-10e-5 0,0 3.1016,3.0507 0.301,21.6381 2.0351,46.9497 2.6328,63.9453 2.4147,17.9839 -0.2151,31.0059 15.4063,25.8516 3.3381,-2.2949 4.1522,-3.9456 4.0742,-8.248 -0.2922,-15.2249 -3.522,-33.4074 -1.8711,-50.0508 0.1505,-37.7535 -7.3449,-77.0676 -17.0996,-116.4238 -3.2409,-12.9307 -8.6238,-28.4268 -12.709,-42.877 -0.4898,-3.7984 -0.1609,-4.6399 3.375,-8.6094 7.5741,-8.6185 11.044,-15.0056 23.373,-28.623 5.1421,-7.4418 20.5577,-15.6372 4.5645,-25.5957 -6.0379,-2.9811 -6.5134,-8.0036 -23.6855,10.2422 -4,7.4553 -2.9853,4.9175 -11.6954,13.4316 -0.3148,0.1832 -9.7169,-21.8745 23.0762,-58.5488 16.1912,-18.1075 80.9789,-36.7452 111.7715,-22.8008 56.9846,25.8055 60.3174,61.775 84.7246,172.6094 8.2849,33.5071 18.3371,76.6156 21.4727,116.6269 0.7445,9.5005 -0.088,24.3216 14.7187,20.4141 13.3563,-3.5247 5.8805,-18.4067 4.8652,-30.3262 -3.8392,-33.0058 -11.0085,-73.0405 -21.7343,-110.1191 -20.2409,-69.9716 -17.2202,-155.6592 -101.461,-184.1543 -11.3501,-3.5993 -26.3923,-5.754 -42.5566,-5.5782 z m -238.0332,137.4645 c 1.465,6.4236 -0.093,13.6101 0.3201,17.7226 1.1124,5.153 5.9136,10.3985 11.3164,8.0918 3.3667,-3.9941 4.1628,-18.9573 4.2281,-25.6757 3.106,-0.6232 6.7093,0.7307 9.5391,0.1308 0.1788,-0.2892 0.7238,-0.3725 1.2109,-0.1855 1.983,6.4072 -2.0181,15.2452 -0.291,22.4414 1.7944,5.1868 6.4823,6.7922 11.7246,5.1191 1.7858,-0.6226 2.4722,-1.756 2.8828,-4.7519 1.3477,-7.6989 1.5867,-15.0976 -0.9408,-21.9605 3.2203,0.7241 3.7249,0.9411 9.5209,1.103 -0.2401,13.1332 -0.4412,24.6175 -0.635,40.6094 4.5149,10.8066 13.423,6.9058 14.6172,-3.6484 0.1,-1.1464 0.3775,-3.3673 0.6153,-4.9356 -1.204,-11.919 1.2759,-21.5226 2.1851,-31.9804 5.8733,0.2477 8.7016,0 14.5417,0.6516 -1.8281,4.9447 -0.6415,12.9341 2.9277,16.0727 3.2029,3.3182 10.7123,3.0775 10.8891,-1.4938 0.018,-1.799 -0.6564,-9.8491 1.2685,-13.7319 7.093,0.2631 9.1049,0.3467 15.8534,0.8439 0.7369,-0.019 4.9953,0.3406 2.6309,2.3293 -21.242,20.8895 -57.9941,55.8612 -83.6543,71.9668 -88.818,2.9095 -152.2456,4.1681 -251.3105,1.441 -13.1342,0.1158 -17.7686,-0.061 -18.4238,-0.7031 -0.8566,-0.8398 -1.0092,-2.165 -0.9512,-8.3027 0.038,-4.0194 -0.2091,-6.1515 -0.8555,-7.3633 -0.5004,-0.9382 -0.9101,-1.9619 -0.9101,-2.2754 0,-0.3135 -0.3394,-0.9096 -0.7539,-1.3242 -1.1518,-1.1517 -6.493,-4.0224 -6.8399,-3.6758 -0.1683,0.1685 -0.9854,-0.2268 -1.8144,-0.8789 -1.9826,-1.5595 -5.7258,-1.0733 -7.8145,1.0156 -1.7243,1.7243 -2.1994,6.3889 -0.8828,8.6739 0.4316,0.749 1.0932,2.0308 1.4707,2.8496 0.8216,1.7825 1.4626,12.4762 0.7539,12.5742 -27.4586,5.2325 -50.7845,3.3059 -98.459,2.281 -45.8287,-0.9852 -68.6003,0.9357 -130.2882,-1.3254 -6.5891,0.6131 -9.0737,0.9123 -7.277,-12.004 -0.07,-30.028 0.7019,-43.3675 3.0672,-62.892 6.1146,0.4898 14.7543,-2.9563 19.9453,0.3223 1.9898,14.9333 1.4076,54.8114 5.8965,57.1289 2.7411,1.1369 7.0609,0.8263 9.9375,-0.7148 0.9954,-21.3937 1.4223,-39.4044 1.6504,-55.291 0,-1.5788 0.2625,-1.9318 1.6308,-2.1934 2.6955,0.2878 5.0205,-1.2554 9.7396,2e-4 -0.1032,6.9785 -0.1342,16.601 3.4434,24.9177 2.9889,1.7631 5.8222,2.0304 8.1725,0.8321 2.6521,-8.4391 1.8375,-13.7754 0.8398,-23.7891 -1.8325,-1.1312 0.4868,-1.8925 6.4375,-2.1132 5.336,-0.1979 5.9886,-0.1108 5.9786,0.7968 1.8922,6.098 -5.6142,29.3891 10.765,26.4754 6.8583,-1.0775 2.9303,-28.5411 5.2174,-28.698 2.733,-0.042 5.2851,-0.6996 8.0683,-0.2363 4.023,5.0791 -1.4671,14.2712 4.4239,20.3575 4.8197,3.27 6.6287,2.5121 10.7343,1.8769 0.9221,0 1.3711,-0.3487 1.3711,-1.0703 0.9528,-6.0371 1.3827,-12.0812 0.3692,-20.8809 -0.1449,-1.9006 9.2363,-1.0268 9.2363,-1.0268 0.8789,9.9692 -1.8879,19.8341 3.2734,25.4356 1.5993,1.55 2.5742,1.9587 5.168,2.1738 9.4725,0.094 8.6582,-7.9726 8.0488,-14.6035 -1.1043,-3.2117 0.8336,-6.9758 0.096,-9.7422 -0.8722,-3.1577 -0.8484,-3.1793 3.8555,-3.1953 4.8094,-0.017 4.7397,-0.091 3.5664,3.7109 1.7186,13.5407 -1.2756,28.1165 0.9245,43.0098 0.7845,4.6018 3.4937,8.3432 6.7813,8.3496 5.5135,0 7.3522,-1.1182 9.377,-5.6953 4.0384,-14.8507 -1.3867,-45.1147 0.5568,-48.0918 l 11.9529,-0.1543 -0.4023,4.1914 c -0.8098,8.338 -0.2061,21.662 2.554,23.6908 3.064,1.5096 5.6602,1.1945 7.6393,0.2506 3.8621,-1.8417 4.3128,-3.3929 4.3028,-14.9024 0,-5.6137 0.1175,-11.0115 0.2715,-11.9941 0,0 9.0158,-2.8645 9.2288,-0.697 1.4924,6.9039 -0.9331,12.2317 0.7008,19.1169 1.7563,7.5652 11.0151,7.379 13.5664,1.8496 1.6659,-8.3711 1.055,-12.4771 1.0647,-21.9804 4.2017,0.072 8.7519,-0.9004 12.8008,-0.078 0.6688,0.4135 1.356,7.2431 1.289,12.8067 -0.066,5.4768 0.1252,5.945 3.4786,8.4609 3.3862,2.2206 7.6008,2.2144 9.5839,-0.1484 2.5065,-3.0103 3.0548,-5.5006 2.0899,-9.4746 -0.736,-3.0313 -0.9586,-12.1332 -0.3125,-12.7793 4.0166,-0.1374 10.2413,-1.9189 13.0996,0.1797 0.1055,2.2549 -0.1254,10.8326 -0.4023,14.9531 -0.8447,5.8824 3.1013,9.9494 8.2851,10.414 5.5426,0.4134 7.1477,-2.2333 7.3965,-12.2011 0.094,-3.7666 0.2602,-8.0535 0.3711,-9.5274 0.111,-1.4739 0.243,-3.216 0.293,-3.8711 3.2161,0.5676 5.9075,-1.3138 6.541,0.7891 3.5481,12.9729 -4.7632,49.1984 5.8984,55.6504 3.7767,2.2119 12.0684,-0.4734 12.0684,-3.9082 -2.0153,-19.4209 -0.4812,-36.8203 -0.2992,-54.9141 h 6.6934 c 4.146,0 6.7839,0.2396 6.9336,0.6289 0.1329,0.3456 0.029,2.7572 -0.2324,5.3594 0.8022,10.0322 1.523,11.2222 3.8847,16.7539 8.2873,8.6376 13.7457,2.0665 12.4121,-5.7969 -0.059,-4.9618 -1.791,-13.0712 2.0844,-16.8789 4.7511,0.2201 12.4264,-1.5768 15.5703,0.8282 -0.1642,0.4913 -0.2684,3.7374 -0.2324,7.2148 -0.081,6.33 2.2453,17.3361 10.2129,16.3984 4.7645,-0.7731 5.7614,-2.9393 5.6582,-12.2988 0.4689,-2.8391 -1.3137,-11.0596 -0.4753,-12.6375 4.0481,-0.38 7.3772,0.3172 11.3366,0.4289 l 0.027,8.6446 c 0.6554,8.1362 0.6627,18.0892 9.457,17.7929 8.1861,-0.1411 7.4197,-8.6708 7.459,-12.0781 0.07,-7.9829 -0.5222,-11.1198 0.1855,-14.4707 3.5384,-0.23 6.081,0.068 7.8007,-0.05 2.4361,5.6272 -0.2596,13.2608 4.1193,18.4891 5.1475,3.7586 9.3439,2.418 11.2207,-2.3574 0.366,-0.922 0.7572,-3.686 0.8691,-6.1426 0.3317,-7.2731 0.5292,-9.407 0.9063,-9.7851 2.6519,-0.3492 9.9939,-1.6809 10.1504,0.8359 2.0485,13.7709 1.3043,29.1306 0.9396,41.502 0.1033,8.1402 5.0899,15.6511 13.9902,12.5839 4.7579,-2.8286 3.866,-8.7131 3.7071,-11.4258 -2.0456,-15.1005 -1.5143,-28.1582 -1.1545,-43.9297 5.6346,0.09 11.4607,-0.6087 17.0195,0.125 0.4557,0.2816 0.6666,2.0697 0.6016,5.1152 -0.2077,9.8163 -0.072,13.5432 0.5683,15.4825 8.265,13.6748 14.7368,5.2245 14.836,-2.8047 -1.3862,-6.3161 -1.701,-13.1045 -0.9591,-18.042 3.5224,-1.8802 12.0016,-0.7994 16.3832,-0.063 z m 129.4199,21.9926 c 0.2046,-0.017 0.366,0.1141 0.5274,0.3691 3.6621,3.6347 17.1391,44.5675 19.4355,63.4531 -15.6062,2.8066 -20.5071,-19.1086 -29.1191,-24.7363 -4.4523,-2.5718 -10.9246,0.6191 -11.6094,5.7246 -0.3024,4.7004 2.7221,6.8279 4.5781,10.1426 -9.8721,1.1903 -21.7036,1.0022 -45.1113,0.9063 13.0121,-15.44 31.6838,-27.2618 44.041,-41.293 5.9426,-5.1877 11.2002,-10.2782 17.2578,-14.5664 z m -108.4875,66.9455 c -36.8902,24.7197 -67.8127,31.0932 -104.2215,33.4256 -59.6315,3.8201 -140.3204,-15.6522 -151.9062,-25.0096 -1.1124,0 -2.8866,-2.6254 -2.2227,-3.2891 78.5992,-2.9634 156.7176,0.4065 233.7253,-2.1589 3.5504,-0.059 21.0754,-2.8754 24.6251,-2.968 z m -343.5339,17.0188 c -5.3425,-0.181 -9.52,-3.3198 -12.963,-6.5131 -1.1538,-1.1415 -1.4925,-3.0748 -0.6601,-3.7657 2.3218,-0.94 3.361,-0.1454 6.6562,0.1254 5.9831,2.383 12.533,10.8233 6.9669,10.1534 z m 423.7597,-7.6497 c 5.4832,2.5416 10.842,4.5281 10.6763,5.7198 0.4684,1.5661 -2.2536,1.1587 -3.3658,0.4714 -0.4725,-0.2919 -11.936,-5.4519 -11.6945,-5.6935 0.06,-0.06 4.3029,-0.5354 4.384,-0.4977 z" fill="#00B894" transform="translate(255.40103,-28.483424) matrix(0.26458333,0,0,0.26458333,-798.61284,-393.42924)"/>
</svg>