<?xml version="1.0" ?><svg height="286.06482mm" viewBox="0 0 417.55966 286.06482" width="417.55966mm" xmlns="http://www.w3.org/2000/svg">
    <path color="#000" d="m 3093.0449,322.10547 c -95.6121,-0.45593 -188.6795,23.21262 -233.7656,52.55078 -92.5472,60.22185 -186.4102,214.11833 -74.1934,286.05469 103.3997,66.28416 211.171,57.13354 260.7598,56.78906 l 44.9981,44.61914 15.4921,-43.73828 c 0,0 186.8545,-22.81513 230.0938,-76.9043 43.2393,-54.08917 91.1033,-178.47927 -37.0488,-265.8457 -56.0666,-38.22281 -131.971,-53.17078 -206.336,-53.52539 z m -707.6074,16.07812 c -122.3889,-0.16862 -231.7173,46.65972 -263.0176,100.89453 -37.0967,64.27829 -37.4577,207.46667 117.3125,266.4336 l -11.4433,68.39844 68.7734,-52.57227 c 0,0 184.4005,11.16435 247.7539,-11.49023 63.3533,-22.65458 130.1998,-81.29506 143.3281,-149.80078 13.1284,-68.50572 -85.6354,-194.24387 -233.7812,-216.68165 -23.1478,-3.5059 -46.2612,-5.15041 -68.9258,-5.18164 z m -252.0996,459.38477 c -30.348,-0.15367 -64.0888,13.63558 -91.502,41.82422 -13.9728,15.41455 -45.9742,61.3343 -3.1543,107.74023 42.8199,46.40594 100.6036,23.20338 141.8008,-3.65039 41.1973,-26.85378 45.0748,-88.43068 10.0977,-123.47851 -14.756,-14.78581 -35.0963,-22.32342 -57.2422,-22.43555 z m 970.4414,31.82422 c -25.3529,0.14378 -48.1737,8.79512 -61.8691,24.17578 -21.207,30.95361 -20.9894,74.51151 22.5957,113.25586 43.5851,38.74428 109.7111,21.24706 141.9726,2.11523 32.2616,-19.13183 22.0058,-75.37354 -25.6387,-112.67578 -23.8222,-18.65111 -51.7076,-27.01488 -77.0605,-26.87109 z m -771.3535,20.5039 c 0,0 -2.1033,51.22694 -6.791,84.81446 -4.6876,33.58752 -87.4375,381.62696 -87.4375,381.62696 0,0 15.3497,2.5477 46.6308,3.8457 31.281,1.2981 284.9666,17.9814 434.1602,16.8457 149.1936,-1.1358 305.5058,-22.875 305.5058,-22.875 0,0 -55.982,-170.9399 -66.5293,-221.4023 -10.5472,-50.4623 -46.3789,-235.75005 -46.3789,-235.75005 z m -314.9805,166.21482 c -19.5785,0.073 -41.3258,8.4793 -64.043,34.461 -34.6165,39.5911 -43.1815,123.0731 -49.041,185.8672 20.491,41.8526 104.9358,83.1767 180.9571,43.0898 -19.684,-61.5774 -3.9063,-137.038 13.4921,-185.959 17.3984,-48.9209 -26.6844,-62.7131 -52.5566,-72.043 -8.8936,-3.2071 -18.5532,-5.4542 -28.8086,-5.416 z m 1187.5762,5.8125 c -17.6496,-0.2463 -34.0091,4.1433 -46.5078,9.0254 -30.7659,12.0175 -52.5592,16.152 -38.9922,69.125 8.7257,34.0699 28.3088,119.4056 45.4355,168.9238 138.588,23.4643 177.084,-24.6171 177.084,-24.6171 0,0 -28.6309,-134.9669 -59.3965,-178.7247 -23.2781,-33.1079 -51.8275,-43.3723 -77.623,-43.7324 z" fill="#FFFFFF" overflow="visible" paint-order="fill markers stroke" transform="translate(139.55892,211.58774) matrix(0.279606,0,0,0.279606,-670.66689,-299.37982)"/>
    <path d="m 2813.6777,396.67188 c -84.189,81.07523 -130.494,192.78409 -40.8475,266.74665 68.7218,47.0015 159.4958,63.65112 273.0164,62.08084 0,0 15.9288,22.793 33.2081,37.04946 7.9164,6.53111 17.6317,7.78644 21.4394,2.76953 8.1969,-32.81068 5.8424,-46.93763 5.8424,-46.93763 46.7157,0 145.8186,-18.40724 177.0639,-30.64245 75.7325,-29.6558 122.267,-120.42139 106.3613,-201.46721 -27.7924,-108.3243 -119.3025,-145.91037 -195.7036,-160.22419 -137.5531,-25.77071 -277.5251,-13.77729 -380.3804,70.625 z m 369.4746,-57.79102 c 91.171,16.60219 157.5684,64.62982 186.6602,142.83789 18.7894,92.45578 -25.505,162.9059 -110.5586,198.24023 -39.3061,15.55879 -96.6467,24.80388 -141.0371,22.74024 -30.0331,-1.39619 -33.5401,-0.0863 -30.6465,11.44336 4.0919,33.4603 3.5066,46.57403 -17.6625,10.07082 -13.0568,-12.22239 -12.0525,-19.37886 -28.3577,-15.20108 -88.84,4.651 -169.101,-6.58407 -245.345,-52.13927 -95.0937,-60.97432 -55.4595,-160.30091 9.9824,-229.79883 102.2659,-96.61709 253.872,-110.60848 376.9648,-88.19336 z m -822.3378,-7.56836 c -78.6309,0.33156 -134.2379,15.67593 -183.6719,48.50195 -96.9778,66.23418 -121.3554,186.45434 -29.6641,274.55274 22.8815,18.16845 44.5143,37.68861 72.8047,51.4082 10.131,4.58042 13.1109,7.11987 11.873,10.11523 -3.1518,7.62766 -13.2304,39.87229 -14.998,47.98243 -1.39,6.37696 -0.6273,9.30057 3.5078,13.43554 11.192,11.19197 23.7105,5.24129 49.9688,-23.75195 12.5619,-13.87034 20.4516,-20.3795 26.8613,-22.16016 48.3389,2.45764 205.3254,9.07301 289.1719,-32.54101 67.4208,-34.89267 133.6236,-115.6255 100.0273,-197.24219 C 2641.1634,400.2277 2545.3538,330.53437 2360.8145,331.3125 Z m 22.539,12.00977 c 74.7226,4.38017 156.5505,27.45447 191.211,53.91992 l 11.8808,9.07226 -6.2109,11.67969 c -8.0157,15.07539 -7.823,19.14047 1.3164,27.89648 11.2876,10.81433 15.5396,7.63146 15.0195,-11.24609 -0.2339,-8.48 0.3333,-16.17697 1.2598,-17.10351 11.3598,-7.67694 63.0111,63.96589 67.4004,73.28515 39.59,74.36313 -6.3788,147.10484 -86.3477,195.03125 -34.1475,16.44454 -60.891,22.98833 -112.3516,27.49024 -55.6939,4.87228 -88.3641,5.55895 -120.289,2.52734 -38.2265,-3.63003 -59.4565,-3.25083 -61.8945,1.10547 -11.4049,17.86327 -33.6274,33.5032 -48.7832,47.69726 -2.5496,0 -2.5919,0.19423 7.1835,-32.64062 8.9878,-30.18984 7.4787,-35.1994 -11.1386,-36.98828 -9.9306,-0.95421 -16.5631,-3.94315 -30.5742,-13.78125 -87.4224,-62.04816 -104.4168,-121.58278 -93.5547,-170.05274 32.8851,-129.79889 147.7312,-166.27144 275.873,-167.89257 z m 689.207,51.7539 -21.2148,6.25977 -1.4023,30.66797 c -0.7713,16.86818 -0.4306,32.00096 0.7558,33.6289 1.4214,1.9504 13.2214,3.03331 34.5977,3.17383 30.4122,0.19972 33.2439,-0.21243 45.3125,-6.59961 7.0806,-3.74722 16.9052,-7.49728 21.832,-8.33398 l 8.957,-1.52149 0.543,-22.53125 c 0.4342,-18.06105 1.6487,-24.3242 6.127,-31.57031 7.4416,-12.04074 5.0423,-13.23449 -27.0039,-13.44531 -14.1537,-0.0931 -30.2771,-1.25491 -35.8301,-2.58203 -9.3628,1.54797 -19.6838,8.98041 -32.6739,12.85351 z m 36.875,-1.80078 c 3.243,-0.0456 7.2077,0.17198 12.1661,0.63281 9.8441,0.91492 17.3858,2.49562 16.7578,3.51172 -0.6279,1.0161 -6.3007,3.29134 -12.6055,5.05664 -12.8294,3.59196 -47.5332,5.12617 -47.5332,2.10156 0,-1.07398 3.166,-2.68587 7.0371,-3.58398 3.8711,-0.8981 9.6054,-3.23477 12.7422,-5.19141 2.6335,-1.64255 6.0305,-2.4514 11.4355,-2.52734 z m -873.582,3.04297 c -3.1777,-0.0376 -6.3092,3.80614 -9.8379,11.7832 -4.1508,9.38317 -4.5911,12.41734 -2.039,14.03711 1.7907,1.13657 4.0098,2.08397 4.9316,2.10547 0.9219,0.0216 1.0419,4.76209 0.2676,10.53516 -0.9841,7.33691 -0.358,11.14485 2.0781,12.65039 1.9505,1.20554 4.7643,1.09183 6.3906,-0.25781 4.1248,-3.42334 6.8922,-43.314 3.3047,-47.63672 -1.7533,-2.11259 -3.4312,-3.19711 -5.0957,-3.2168 z m 132.0547,0.79492 c -10.8286,-0.13468 -14.8777,6.95234 -16.0586,25.49805 -0.9444,14.83104 -0.4885,16.73971 4.9219,20.52929 7.035,4.92755 10.8621,5.19728 18.4316,1.29883 11.7308,-6.04175 17.1083,-13.13735 17.0703,-22.52148 -0.062,-14.90533 -4.9009,-21.49695 -17.6269,-24.01367 -2.495,-0.49341 -4.733,-0.76608 -6.7383,-0.79102 z m -39.4766,0.29688 c -8.1761,0 -15.6202,16.81554 -10.8359,24.47656 1.631,2.6113 2.2713,8.21451 1.4238,12.45117 -0.8462,4.23667 -0.8622,9.46621 -0.035,11.62109 0.8268,2.15492 3.163,3.91797 5.1914,3.91797 2.5676,0 4.6945,-5.63681 7,-18.55468 5.1602,-28.91347 4.7566,-33.91211 -2.7422,-33.91211 z m 218.084,1.66015 c -0.4939,-0.0122 -1.0467,0.0438 -1.6699,0.13281 -3.2535,0.46468 -5.6853,2.96425 -6.166,6.33985 -0.4365,3.06497 -2.4516,6.94863 -4.4785,8.63086 -5.734,4.75873 -4.6273,12.66797 1.7715,12.66797 4.8763,0 5.3117,1.07424 4.0996,10.11132 -0.8562,6.38295 -0.2732,10.55629 1.582,11.31641 10.6188,4.35085 12.3592,-0.44164 10.2285,-28.16015 -1.3531,-17.60432 -1.9094,-20.95375 -5.3672,-21.03907 z m -259.5586,0.1836 c -7.4535,-0.17055 -17.6495,3.74951 -23.5468,10.14062 -6.4278,6.96618 -7.1676,9.37506 -6.0176,19.57813 0.7943,7.04674 3.1215,12.9583 5.9004,14.99023 7.2696,5.31566 11.4256,4.04214 21.5488,-6.59961 10.4472,-10.98237 15.4055,-28.57727 9.918,-35.18945 -1.5939,-1.92053 -4.4148,-2.8424 -7.8028,-2.91992 z m 172.1446,0.52539 c -1.3814,-0.0302 -2.8092,0.41106 -4.086,1.4707 -2.1115,1.75237 -3.8398,4.39279 -3.8398,5.86914 0,1.47637 -1.9067,4.79101 -4.2363,7.36524 -3.8551,4.25981 -3.8729,5.08181 -0.2129,9.1582 2.5258,2.81243 3.517,7.08189 2.666,11.47461 -0.7456,3.84755 -0.6541,8.82741 0.2051,11.0664 0.8592,2.23898 3.581,3.688 6.0488,3.21875 3.5918,-0.68305 4.7768,-4.42068 5.9355,-18.74414 0.796,-9.84026 2.287,-19.72307 3.3145,-21.96093 2.0693,-4.50633 -1.6509,-8.82741 -5.7949,-8.91797 z m 41.7343,1.6289 c -0.4841,-0.0157 -0.9769,-0.015 -1.4765,0.002 -1.8449,0.0625 -3.7959,0.34831 -5.8399,0.86132 -11.8029,2.96236 -13.9728,28.52562 -3.0703,36.16211 7.451,5.21881 15.1471,4.7058 23.086,-1.53906 7.6463,-6.01442 8.3444,-11.50133 3.0722,-24.11914 -3.024,-7.23762 -8.5101,-11.13178 -15.7715,-11.36719 z m -85.1855,0.0879 c -5.29,0.22147 -8.5905,3.7058 -12.9863,12.32227 -6.633,13.00055 -6.6073,19.33022 0.1054,26.04297 5.9618,5.96195 14.0467,5.20746 24.3477,-2.27344 12.786,-9.28574 9.3738,-31.5868 -5.4004,-35.29492 -2.32,-0.58229 -4.3031,-0.8707 -6.0664,-0.79688 z m -214.0606,0.17969 c -2.3716,0.11927 -4.6226,1.94271 -7.4843,5.8711 -2.895,3.97381 -9.0071,11.25367 -13.5821,16.17773 -9.6955,10.43576 -9.3199,9.33898 -4.5605,13.28906 3.081,2.5569 5.1886,1.57526 11.6914,-5.44531 l 7.9336,-8.56445 -1.707,9.43164 c -0.9387,5.18736 -0.9097,10.72189 0.064,12.29883 2.7759,4.49135 10.2139,1.79026 10.6016,-3.84961 0.1922,-2.79644 1.2037,-12.26189 2.2461,-21.03516 1.6741,-14.08808 1.3496,-16.16106 -2.7657,-17.74023 -0.8445,-0.32408 -1.6469,-0.47336 -2.4375,-0.4336 z m 707.6914,1.38477 c -3.2631,0.046 -6.562,1.88069 -8.9296,5.49414 -5.8889,8.98782 -10.9855,10.12461 -18.5879,4.14453 -9.1377,-7.18775 -13.7719,-2.62845 -7.8379,7.71094 3.7559,6.54442 3.8086,7.79523 0.4531,10.58007 -2.0928,1.73699 -5.3549,6.15715 -7.25,9.82227 -6.9339,13.40862 6.8025,21.67387 15.0645,9.06445 5.6374,-8.60386 8.4797,-8.06754 13.5468,2.5586 2.9771,6.24269 5.9859,8.95898 9.9239,8.95898 9.3179,0 9.538,-7.23479 0.5664,-18.5625 l -8.2227,-10.38086 11.4043,-9.82226 c 9.5646,-8.23753 10.9508,-10.54966 8.5859,-14.32227 -2.2247,-3.54877 -5.4534,-5.29205 -8.7168,-5.24609 z m 240.6016,1.47265 v 16.87696 c 0,16.69638 -0.1028,16.94283 -9.5976,23.0625 -5.2787,3.40223 -12.1904,6.95116 -15.3575,7.88672 -4.8977,1.44668 -5.7578,0.7372 -5.7578,-4.74415 0,-3.5447 0.086,-23.84225 1.6207,-31.00096 11.6644,-7.02266 16.4248,-8.96691 29.0922,-12.08107 z m -865.4375,4.44141 c 0.8201,0.008 1.4991,0.22755 1.9727,0.70117 0.8688,0.86887 -0.6862,5.9507 -3.4571,11.29297 -7.6151,14.68275 -19.1718,14.39153 -13.5703,-0.3418 2.1151,-5.56303 10.6263,-11.69319 15.0547,-11.65234 z m 90.5996,0.18555 c 1.6355,-0.0595 3.1487,0.23049 4.3242,0.95703 4.4494,2.74994 3.0656,13.80557 -2.414,19.28515 -2.8154,2.81528 -6.8254,5.11914 -8.9102,5.11914 -4.5357,0 -7.5775,-10.31727 -5.2265,-17.7246 1.3114,-4.13199 7.3201,-7.45818 12.2265,-7.63672 z m 125.3184,2.19336 c 4.9446,-0.0213 10.244,7.43861 6.7754,13.63671 -1.3582,2.42705 -4.1181,4.41211 -6.1328,4.41211 -4.059,0 -7.757,-10.96192 -5.1309,-15.21093 1.2319,-1.9934 2.8401,-2.8308 4.4883,-2.83789 z m 577.7344,3.94336 c 13.4666,-0.0564 30.9231,0.72153 31.6171,1.94921 0.5968,1.05574 -0.045,10.84462 -1.4277,21.75391 l -2.5137,19.83398 c -14.2254,-0.27999 -28.3821,-1.35199 -42.5156,-2.84375 l -0.8359,-19.27734 c -0.4605,-10.60245 -0.3579,-19.75178 0.2285,-20.33203 0.7234,-0.71568 7.3673,-1.05017 15.4473,-1.08398 z m 98.7851,0.0293 c -8.2479,0 -0.7676,1.52901 -0.7676,10.15625 v 0.002 c 7.7375,3.10998 19.1781,3.21138 21.0469,0.1875 1.9925,-3.22393 -11.9676,-10.34571 -20.2793,-10.34571 z m -755.8476,0.2168 c 1.5603,-0.006 2.8161,0.33299 3.3007,1.11719 0.7254,1.17363 -1.4257,5.32555 -4.7812,9.22656 -6.0515,7.03528 -6.1165,7.04781 -7.8809,1.48828 -0.9784,-3.08271 -1.1457,-6.62859 -0.373,-7.87891 1.3975,-2.26127 6.3016,-3.94023 9.7344,-3.95312 z m 552.2578,6.91015 c -10.1096,0.0891 -12.7862,3.36229 -7.6582,9.54102 5.623,6.77552 25.5664,3.71455 25.5664,-3.92383 0,-3.68146 -2.5592,-4.74505 -13.1231,-5.45898 -1.7466,-0.11804 -3.3409,-0.17092 -4.7851,-0.15821 z m 47.8574,1.63672 c -17.682,-0.1973 -21.291,1.34172 -18.7383,7.99414 2.6745,6.9694 36.1367,3.19496 36.1367,-4.07617 0,-2.87445 -3.9663,-3.76805 -17.3984,-3.91797 z m -89.4922,1.56055 c -5.3806,0.0342 -9.8882,0.93372 -10.9082,2.58399 -2.7506,4.45092 4.3186,10.43094 11.3652,9.61328 5.2034,-0.60381 6.4492,0.23289 5.8223,3.91015 -0.5084,2.98111 1.125,5.18034 4.5059,6.06446 3.0146,0.78834 5.9934,4.29292 6.9004,8.11914 0.8773,3.70283 3.1983,8.58218 5.1562,10.84375 3.0521,3.52526 3.0031,4.57407 -0.3438,7.35156 -4.6467,3.85648 -5.1783,18.23179 -0.8339,22.57617 10.5505,10.5506 18.7999,-9.41214 9.0429,-21.88281 -1.6712,-2.13581 -1.4512,-4.46554 0.6602,-7.00977 5.3395,-6.43381 0.9148,-21.51237 -7.7676,-26.46875 -4.8997,-2.7971 -7.0297,-5.70806 -6.1719,-8.43359 0.8764,-2.78408 -0.6209,-4.67769 -4.5214,-5.72266 -4.0086,-1.07392 -8.7214,-1.57149 -12.9063,-1.54492 z m 271.1426,7.92773 c -6.4073,-0.17939 -5.4153,6.20477 2.748,16.43555 7.8516,9.84041 9.0117,10.31344 13.1231,5.35938 3.893,-4.69073 -6.7105,-20.54788 -14.4903,-21.66993 -0.4929,-0.0711 -0.9537,-0.11304 -1.3808,-0.125 z m -826.3164,24.27735 c -0.7828,-0.049 -1.6757,0.0162 -2.6836,0.16015 -4.3976,0.62825 -6.0882,3.00722 -7.25,10.19727 -0.8333,5.15753 -3.5012,12.40581 -5.9278,16.10938 -4.1818,6.38241 -4.1762,7.26898 0.1016,16.96484 3.3668,7.63102 5.8063,10.03975 9.6035,9.48242 4.3499,-0.63842 5.575,-4.0984 8.4239,-23.78125 3.3146,-22.89959 3.2119,-28.79001 -2.2676,-29.13281 z m 37.5234,4.81836 c -4.1362,0 -15.5209,16.65227 -17.9199,26.21094 -1.0046,4.00308 -0.144,7.3255 2.457,9.48437 2.2021,1.82746 4.0039,5.38843 4.0039,7.91406 0,2.52564 1.4395,5.18591 3.1992,5.91211 8.4134,3.47232 10.6248,0.42304 11.0391,-15.21875 0.227,-8.57056 1.6254,-17.75012 3.1074,-20.39844 3.1928,-5.70521 -0.2787,-13.90429 -5.8867,-13.90429 z m -81.289,0.33008 c -2.9683,-0.13253 -4.3926,0.97053 -4.3926,3.38086 0,2.23735 -2.8793,8.63043 -6.3985,14.20507 -3.5191,5.57466 -6.3984,10.81101 -6.3984,11.63672 0,0.82572 3.0557,5.50558 6.7891,10.40039 9.7304,12.75713 14.7224,10.64457 15.8711,-6.71484 2.1035,-31.7952 2.0917,-31.89747 -4.1036,-32.77734 -0.4874,-0.0692 -0.9432,-0.11193 -1.3671,-0.13086 z m 129.3769,2.1875 c -9.1589,-0.275 -17.9319,6.19061 -21.043,17.39257 -3.7456,13.48619 -3.4393,15.38683 3.6094,22.43555 8.5603,8.56026 21.4718,8.48056 29.6113,-0.18359 8.4205,-8.96382 8.4509,-28.10333 0.055,-34.90235 -3.8271,-3.09907 -8.0693,-4.61719 -12.2324,-4.74218 z m -179.9414,0.041 c -10.6399,0 -15.0301,2.386 -19.1855,10.42188 -5.0701,9.80424 -4.6952,17.42213 1.3457,27.33008 6.4615,10.59761 16.8511,11.27198 26.4082,1.71484 5.9112,-5.91117 6.4462,-7.98926 5.1152,-19.83594 -1.7976,-16.00116 -4.3274,-19.63086 -13.6836,-19.63086 z m 272.209,0.16602 c -2.2223,0.11501 -4.1565,1.56469 -5.1485,4.31445 -0.8887,2.46337 -3.9249,7.80623 -6.748,11.875 -4.7494,6.8457 -4.814,7.6307 -0.8633,10.51953 2.6006,1.90168 4.2695,6.67994 4.2695,12.22461 0,5.00619 1.4396,9.67898 3.1993,10.38281 6.1079,2.44318 8.3204,-0.024 8.9824,-10.00976 0.3661,-5.52175 1.9535,-14.92546 3.5273,-20.89844 2.2099,-8.3877 2.1323,-11.7383 -0.3398,-14.7168 -2.1473,-2.58729 -4.6567,-3.80642 -6.8789,-3.6914 z m 647.709,4.90039 c -3.852,5.26774 -4.6532,12.18455 -1.7481,15.08984 0.998,0.99787 4.166,1.47771 7.0391,1.06641 6.7502,-0.96625 8.4222,-12.60395 2.5156,-17.50586 -3.4389,-3.21029 -5.8138,-1.35627 -7.8066,1.34961 z m -957.9746,-1.77539 c -2.9001,-0.01 -7.527,3.75732 -12.6211,10.98437 -7.6549,10.86008 -8.0303,12.25521 -4.3887,16.2793 2.1906,2.42067 3.9824,6.09504 3.9824,8.16601 0,2.07102 1.3831,5.14677 3.0723,6.83594 1.6891,1.68919 5.1005,3.07227 7.582,3.07227 3.8106,0 4.5397,-2.48702 4.6816,-15.9961 0.093,-8.7978 0.4229,-18.83925 0.7344,-22.31445 0.4238,-4.72724 -0.7874,-7.01959 -3.0429,-7.02734 z M 2596,469.36914 c -5.461,0.12841 -10.0277,4.86947 -14.457,14.625 -6.6739,14.69914 -6.4079,26.00204 0.7304,31.00195 8.5725,6.00439 20.1744,4.97062 28.25,-2.51757 5.5325,-5.13002 7.0118,-8.80849 7.0118,-17.42774 0,-11.85772 -2.6001,-16.3064 -13.4629,-23.03516 -2.9223,-1.81013 -5.59,-2.70485 -8.0723,-2.64648 z m -86.4961,1.33789 c -4.7004,-0.13772 -9.6551,3.01002 -14.0957,9.62109 -7.6389,11.37201 -7.7065,24.2591 -0.1543,29.54883 6.8602,4.80499 11.5214,4.90257 19.6231,0.41211 9.3278,-5.17002 12.9919,-13.7666 9.8593,-23.13281 -3.565,-10.65937 -9.1872,-16.2698 -15.2304,-16.44922 z m -319.3828,0.5625 c -7.9422,0.32144 -9.5761,1.65166 -14.4121,11.73047 -6.2999,13.12986 -4.2294,24.55828 5.1348,28.33984 8.2845,3.34562 10.3736,2.99509 19.7753,-3.32226 7.52,-5.05308 8.8014,-7.45746 9.4707,-17.76953 0.6574,-10.12712 -0.115,-12.48326 -5.1191,-15.63282 -3.2411,-2.03978 -9.923,-3.5451 -14.8496,-3.3457 z m 91.0879,5.26367 c 0.409,-0.0267 0.8006,0.0637 1.1621,0.28711 3.2215,1.99091 3.1173,10.52993 -0.2031,16.73438 -3.428,6.40467 -6.8178,6.29359 -8.9082,-0.29297 -1.7085,-5.38285 3.995,-16.47083 7.9492,-16.72852 z m -87.3789,1.4961 c 4.9773,0 5.2437,12.18394 0.4062,18.55664 -3.6873,4.85735 -11.7929,6.11885 -11.7929,1.83594 0,-6.44869 7.7862,-20.39258 11.3867,-20.39258 z m 269.0976,0.46875 v 0 c 0.6554,-0.0304 1.3095,0.0702 1.9512,0.3164 5.3345,2.04677 5.4361,10.42134 0.1894,15.66797 -5.8862,5.88622 -11.334,4.9797 -11.334,-1.88672 0,-7.28319 4.5998,-13.88104 9.1914,-14.09765 z m 135.9981,7.59179 c 0.4651,-0.007 0.9489,0.0272 1.4551,0.0996 7.1576,1.02339 8.642,8.72451 2.9043,15.06446 -4.7097,5.20426 -16.4629,6.80511 -16.4629,2.24218 0,-1.47753 1.7937,-6.15618 3.9863,-10.39648 2.5296,-4.89158 4.8612,-6.95759 8.1172,-7.00977 z m -90.041,2.17774 c 5.1598,0 7.106,4.87346 3.623,9.07031 -3.4318,4.1352 -10.1445,5.04633 -10.1445,1.37695 0,-5.16837 3.2954,-10.44726 6.5215,-10.44726 z m 682.8652,11.98633 c -2.871,-0.0457 -6.4298,2.42289 -9.5469,8.21093 -4.6957,8.71926 -4.6904,8.99311 0.377,16.10938 2.835,3.98154 10.1707,9.80481 16.3008,12.9414 6.1302,3.13664 12.2252,5.36059 13.5449,4.94141 5.9891,-1.90253 3.3204,-6.86694 -7.3145,-13.60156 -7.9668,-5.04511 -11.0615,-8.50928 -9.9668,-11.15625 4.2647,-10.31078 1.3904,-17.36911 -3.3945,-17.44531 z m -382.2441,9.76757 c -21.1278,0.86371 -31.6169,24.92483 -13.5508,33.61914 4.3165,4.65914 7.2264,3.68175 6.4556,8.72212 l -1.94,12.68609 -7.5781,-8.31836 c -8.3838,-9.20127 -16.6778,-11.01318 -16.6778,-3.64453 0,4.90659 6.7412,11.88955 18.5567,19.22656 8.3844,5.20659 8.7152,10.02199 1.9199,27.90039 -6.868,18.07035 -6.6455,22.42188 1.1504,22.42188 3.4493,0 7.5097,-2.01709 9.0215,-4.48047 2.5496,-4.15494 3.0425,-4.06083 6.8359,1.28125 5.2693,7.42038 13.7031,7.67747 13.7031,0.41797 0,-2.9371 -3.5214,-10.24423 -7.8261,-16.23829 -10.0491,-13.99315 -8.5138,-21.04967 8.4941,-39.0332 6.9327,-7.33027 11.8536,-14.54419 10.9356,-16.0293 -2.6912,-4.35445 -9.547,-3.12006 -15.918,2.86524 -4.87,4.57521 -5.9238,4.82794 -5.9238,1.42383 0,-2.27728 3.5042,-6.2095 7.7851,-8.73828 9.6129,-5.67846 11.7639,-13.26356 6.5957,-23.25782 -4.5886,-8.87347 -8.5586,-10.82422 -22.039,-10.82422 z m 143.3046,6.39844 c -4.7326,0 -6.6159,1.5369 -7.2343,5.90039 -0.4599,3.24471 0.5258,7.53857 2.1894,9.54297 4.8464,5.83961 13.2234,-0.0318 12.2364,-8.57617 -0.6245,-5.40607 -2.1536,-6.86719 -7.1915,-6.86719 z m -140.0604,4.32422 c 9.4349,0.91419 11.9897,6.92998 5.6386,13.28125 -4.7119,4.71218 -12.8964,5.48096 -15.3906,1.44531 -5.7114,-9.75665 1.3344,-13.94598 9.752,-14.72656 z m 355.5175,4.85156 c -3.2803,0.10309 -8.4731,1.50561 -16.1231,4.22266 -11.6586,4.14079 -14.8932,7.66913 -10.7929,11.76953 5.0633,5.06335 31.5644,-5.36588 31.5644,-12.42187 0,-2.47663 -1.3681,-3.6734 -4.6484,-3.57032 z m -802.627,3.6211 c -5.3431,0 -12.6094,21.71114 -9.3222,27.85351 1.4962,2.79569 2.7207,7.95569 2.7207,11.4668 0,3.51112 1.8198,8.20277 4.0449,10.42773 7.2566,7.25656 8.5489,4.11539 12.2402,-29.77148 1.0846,-9.95786 -3.7715,-19.97656 -9.6836,-19.97656 z m 90.2051,0.0547 c -0.8577,0.0407 -1.7977,0.2604 -2.8242,0.6543 -5.9321,2.2764 -7.7348,29.24381 -2.9883,44.7207 0.5398,1.75958 3.1518,3.19922 5.8027,3.19922 4.1977,0 5.0289,-2.71672 6.4434,-21.05859 1.4875,-19.28924 -0.4299,-27.80035 -6.4336,-27.51563 z m 42.3105,0.48047 c -0.6675,-0.0216 -1.3965,0.1023 -2.1914,0.35157 -4.5945,1.4409 -10.0353,26.78309 -7.1074,33.10351 1.4472,3.12455 3.9386,8.92913 5.5371,12.90039 1.9108,4.74763 4.431,6.92644 7.3575,6.36133 3.9335,-0.75955 4.345,-3.6806 3.5371,-25.13672 -0.7612,-20.21771 -2.4602,-27.42908 -7.1329,-27.58008 z m -85.7128,0.37696 c -4.2396,0.0812 -8.624,2.05394 -12.9082,5.91406 -9.4928,8.55332 -8.3234,27.52188 2.4589,39.88281 5.4973,6.30246 9.6533,5.611 18.7989,-3.1289 5.8739,-5.61348 8.2986,-10.5965 9.2461,-19.00196 1.1111,-9.85629 0.3612,-12.31435 -5.5547,-18.23047 -3.7071,-3.70706 -7.8015,-5.51675 -12.041,-5.43554 z m -83.2676,1.64843 c -20.4435,0 -29.1405,25.8497 -13.8438,41.14649 17.3159,17.31567 36.2421,2.0883 30.3399,-24.41016 -3.0292,-13.59999 -6.1209,-16.73633 -16.4961,-16.73633 z m 216.6406,0 c -7.0547,0 -14.0174,16.91721 -10.3105,25.05274 1.4781,3.24445 2.6894,9.68461 2.6894,14.31054 0,4.62592 0.8058,9.21799 1.793,10.20508 0.987,0.98686 3.5795,1.45474 5.7597,1.03907 2.911,-0.55505 4.3454,-5.19551 5.4043,-17.47461 0.7931,-9.19584 2.2866,-18.08659 3.3184,-19.75586 2.7956,-4.52356 -2.9325,-13.37696 -8.6543,-13.37696 z m -356.166,0.20508 c -3.1988,-0.13396 -5.2441,2.80965 -7.0723,9.39258 -3.3481,12.05616 -3.3817,15.99609 -0.1347,15.99609 1.4076,0 2.5586,4.37552 2.5586,9.72461 0,5.34907 1.383,11.10771 3.0722,12.79688 4.011,4.011 9.6886,3.93836 9.8594,-0.12696 1.0805,-25.68282 -0.1595,-43.87009 -3.1191,-45.74609 -2.0186,-1.27957 -3.7101,-1.97622 -5.1641,-2.03711 z m 42.3594,0.62891 c -1.9345,0.0596 -3.9323,0.58644 -5.9532,1.66797 -2.8639,1.53271 -7.5337,7.34686 -10.3769,12.91992 -4.6855,9.18449 -4.8299,10.94189 -1.5567,18.77539 1.9859,4.75327 6.2913,10.52097 9.5684,12.81641 8.2847,5.80284 14.2434,5.21963 21.5723,-2.10938 14.0711,-14.07099 2.4985,-44.5558 -13.2539,-44.07031 z m 54.8984,0.90039 c -0.3956,-0.0125 -0.8012,-0.0116 -1.2187,0.002 -2.2272,0.0724 -4.7736,0.51317 -7.7188,1.28906 -6.2032,1.63418 -8.8257,4.2554 -11.0762,11.07422 -3.7372,11.3242 0.6026,26.20449 8.5821,29.42383 7.9681,3.2147 8.2205,3.15718 16.5429,-3.8457 9.5492,-8.03512 11.8101,-16.74469 7.2051,-27.76563 -2.8582,-6.84095 -6.3818,-9.98992 -12.3164,-10.17773 z m 820.0176,3.70312 c -23.4692,1.8989 -24.4223,2.29502 -20.9824,8.72266 1.7255,3.22407 4.5084,4.79096 7.1484,4.02344 2.3776,-0.69131 9.6032,-2.00124 16.0566,-2.91016 13.6908,-1.92826 19.0317,-4.64724 16.6602,-8.48437 -5.6359,-2.70105 -12.5221,-1.85959 -18.8828,-1.35157 z m -509.6367,2.49414 c -11.1049,0.24004 -25.8223,8.68209 -25.8223,17.97852 0,6.79987 7.4517,17.64522 13.8965,20.22461 6.1232,2.45069 14.014,0.82622 19.0195,-3.91602 4.9092,-4.65077 6.9355,-25.85751 2.9317,-30.68164 -1.9919,-2.4001 -5.2287,-3.50138 -8.9629,-3.60351 -0.3501,-0.01 -0.7043,-0.01 -1.0625,-0.002 z m 624.3711,3.58399 c -7.1622,0 -6.8358,8.49728 0.5234,13.63086 6.6485,4.63772 13.7202,5.41131 15.9844,1.74805 2.2609,-3.65842 -10.3199,-15.37891 -16.5078,-15.37891 z m -170.7969,1.04687 c -2.1309,-0.0321 -4.6346,0.13241 -7.5195,0.49024 -10.7124,1.32877 -14.9338,5.47299 -10.7325,10.53515 5.2006,6.26648 27.6934,1.93253 27.6934,-5.33593 0,-3.72643 -3.0486,-5.59319 -9.4414,-5.68946 z m -721.2793,1.39063 c 6.063,0.0901 9.2716,8.42387 2.3984,15.29687 -4.827,4.82704 -6.7745,4.99677 -10.8222,0.94922 -4.3235,-4.32353 -3.8255,-8.24822 1.6777,-13.22851 2.3878,-2.16097 4.7251,-3.04762 6.7461,-3.01758 z m 614.7226,0.12305 c -4.0769,0 -11.9707,9.21715 -11.9707,13.97851 0,2.02544 2.0151,4.85623 4.4786,6.29102 2.4633,1.43481 4.5902,2.6447 4.7265,2.6875 0.3451,0.10892 17.4909,-8.25279 18.4629,-9.00391 1.6241,-1.2552 -12.6611,-13.95312 -15.6973,-13.95312 z m -655.6875,0.49609 c 0.402,0.003 0.6859,0.16707 0.8067,0.5293 0.4638,1.39109 -0.4242,4.89767 -1.9727,7.79101 -2.8448,5.31528 -10.3144,7.34346 -10.3144,2.80078 0,-3.26418 8.6667,-11.14363 11.4804,-11.12109 z m -53.6386,0.86133 c 2.1994,0.0565 3.7675,2.56702 3.7675,7.50976 0,8.60069 -7.497,14.60256 -12.2734,9.82618 -2.0542,-2.05416 -1.7955,-4.80214 0.9531,-10.11719 2.5225,-4.87795 5.3534,-7.27523 7.5528,-7.21875 z m 177.9101,0.49609 c 0.9098,-0.0234 1.7845,0.29229 2.5371,1.04492 1.867,1.8668 1.1548,4.55064 -2.3496,8.84766 -4.6476,5.69841 -5.1704,5.81322 -6.8515,1.49219 -1.8751,-4.81923 2.7215,-11.28353 6.664,-11.38477 z m 585.916,2.99024 c -7.1716,0.0496 -14.3535,0.91372 -16.0078,2.55273 -1.1019,1.09168 -1.2659,3.90509 -0.3652,6.25195 1.8237,4.75273 7.8293,5.25462 22.4082,1.8711 11.8278,-2.74503 13.8297,-4.43007 9.916,-8.34375 -1.6164,-1.61643 -8.7795,-2.38161 -15.9512,-2.33203 z m -405.4785,0.0547 c 0.8331,-0.0332 1.5685,0.18952 2.1153,0.73633 2.576,2.57598 1.9074,5.22541 -2.4063,9.53906 -5.4422,5.44236 -8.7734,5.059 -8.7734,-1.00781 0,-4.17751 5.4543,-9.12386 9.0644,-9.26758 z m 647.9317,18.94922 c -4.2745,8.1463 6.4718,19.92288 10.8379,36.44141 4.2521,16.40169 7.0806,32.43662 13.7847,33.83581 10.4464,2.18025 22.5559,-16.58099 33.8403,-25.16784 48.3272,-33.39253 8.9699,-55.36464 -10.2481,-43.4043 -8.2179,5.37996 -7.1526,11.09764 -12.1202,-4.3478 -12.7169,-18.05135 -32.6106,-11.53787 -36.0946,2.64272 z m -335.2676,-10.71875 c -9.3166,-0.0293 -20.1943,0.91744 -21.2461,2.61914 -0.8126,1.31516 -0.01,4.16505 1.7949,6.33399 2.5112,3.02583 5.9862,3.54089 14.9356,2.20898 11.6277,-1.73046 18.0625,-5.01515 18.0625,-9.21875 0,-1.30765 -6.3007,-1.92056 -13.5469,-1.94336 z m -51.2031,6.80664 c -10.0707,0.2637 -15.4129,4.44762 -9.3067,8.4668 3.36,2.21151 18.8594,0.94991 23.4903,-1.91211 4.8673,-3.00818 0.9657,-5.57799 -9.7676,-6.43164 -0.7997,-0.0636 -1.581,-0.10333 -2.3399,-0.12305 -0.7114,-0.0185 -1.4048,-0.0176 -2.0761,0 z m 404.6113,5.65821 c 9.9975,0 16.7412,6.9315 11.3865,16.93674 -1.808,3.37829 -0.1192,6.49289 2.5236,8.68619 5.2406,4.34933 7.6908,1.19596 12.7383,-7.70106 4.8422,-8.53478 11.493,-10.09188 16.9317,-3.5385 3.9842,4.80074 1.4631,4.43156 -12.375,20.19866 -17.9851,20.49224 -20.7874,25.94583 -26.9707,-0.67188 -2.8757,-12.3793 -15.9751,-33.91015 -4.2344,-33.91015 z m -316.4063,5.9707 c -6.7228,-0.14954 -9.8238,9.07974 -6.4843,21.54101 1.775,6.62394 9.8662,7.76014 12.1875,1.71094 3.1204,-8.1314 1.6384,-20.96565 -2.6094,-22.5957 -1.1,-0.42211 -2.1334,-0.63489 -3.0938,-0.65625 z m 151.3301,14.78711 c -2.8143,0.10584 -3.3066,1.9924 -3.3066,8.2832 0,4.90737 1.4396,9.5029 3.1992,10.21289 7.5986,3.06614 9.2946,1.52493 8.7012,-7.90234 -0.4855,-7.71603 -1.7104,-9.75851 -6.252,-10.41602 -0.9191,-0.13306 -1.6923,-0.20216 -2.3418,-0.17773 z m -814.0957,6.625 c -2.5337,0.10224 -4.4904,3.59045 -9.125,12.52344 -7.782,14.99937 -8.2209,18.39838 -2.9492,22.77343 2.096,1.73951 3.2956,3.99686 2.666,5.01563 -0.6296,1.01874 0.6421,4.40326 2.8262,7.52148 5.9453,8.48829 9.8149,5.22568 10.5234,-8.87304 0.3482,-6.92823 2.0175,-17.05141 3.709,-22.4961 2.7434,-8.8308 2.5536,-10.28211 -1.7617,-13.4375 -2.6405,-1.93079 -4.3684,-3.08869 -5.8887,-3.02734 z m 45.3867,0.0684 c -5.3621,0.19672 -9.716,4.07991 -13.9257,12.2207 -4.2916,8.29905 -1.2279,25.10517 5.4687,30.00195 6.8147,4.98306 13.2896,3.93883 20.541,-3.3125 5.672,-5.67202 6.3502,-8.01276 4.9199,-16.95703 -2.2602,-14.13557 -5.6059,-19.62215 -13.1191,-21.50781 -1.3554,-0.34019 -2.6474,-0.49071 -3.8848,-0.44531 z m -91.748,2.74218 c -3.9797,0.0848 -5.5991,5.486 -8.2969,22.83985 -2.4781,15.93893 -2.4163,20.37647 0.3301,23.68555 5.4864,6.6108 8.682,3.1781 12.0312,-12.92579 4.4779,-21.5299 4.2227,-30.92851 -0.8906,-32.89062 -1.2121,-0.46512 -2.2554,-0.72856 -3.1738,-0.70899 z m 889.9375,0.73633 c -2.3705,0.0122 -5.1297,1.75932 -8.9492,5.34766 -7.0533,6.6261 -7.6042,11.59278 -1.4434,12.99023 7.9568,1.80483 19.9348,-9.97019 15.5352,-15.27148 -1.6904,-2.03681 -3.2989,-3.0759 -5.1426,-3.06641 z m -533.6055,0.15821 c -2.9466,0.1181 -5.9597,2.86029 -7.2246,8.61914 -0.8803,4.00808 -3.2545,8.65865 -5.2754,10.33593 -4.8076,3.9904 -4.7096,12.42399 0.166,14.29493 2.1115,0.81026 3.8379,3.42345 3.8379,5.80664 0,2.38314 1.3831,5.71511 3.0723,7.40429 8.5508,8.55003 11.2191,1.19104 12.5957,-34.73632 0.2947,-7.69158 -3.3834,-11.87646 -7.1719,-11.72461 z m -89.7773,0.90625 c -1.8567,0.071 -3.2525,0.67349 -3.3907,1.91601 -0.1172,1.05573 -0.811,4.7992 -1.541,8.31836 -1.8251,8.80126 -1.7885,27.01774 0.064,31.84766 2.3779,6.19716 11.6345,4.93272 13.0019,-1.77539 3.4844,-17.09443 4.0563,-33.37102 1.2891,-36.70508 -1.9574,-2.35858 -6.3294,-3.71987 -9.4238,-3.60156 z m -125.4453,0.0898 c -6.1672,0.12844 -17.6917,10.14549 -20.6309,17.93359 -3.209,8.50364 2.3909,22.23646 10.252,25.14454 13.1473,4.86344 26.6197,-7.55451 24.2226,-22.32618 -1.8157,-11.18804 -8.2735,-20.86789 -13.8437,-20.75195 z m 169.7031,1.9707 c -7.4053,0.11095 -14.4046,6.33201 -15.8574,17.22266 -1.0546,7.90662 -0.1274,11.70167 4.1953,17.18555 15.2654,19.36501 39.0738,-4.26323 25.789,-25.59375 -3.803,-6.10635 -9.0601,-8.89037 -14.1269,-8.81446 z m 528.4629,0.51172 c -1.4462,-0.0278 -2.6083,0.24894 -3.2774,0.91797 -3.8487,3.84862 -0.4137,10.03823 6.2793,11.31641 11.6926,2.23306 14.8731,1.77514 14.8731,-2.14258 0,-4.15656 -11.6082,-9.97149 -17.875,-10.0918 z m -879.3379,0.28321 c -0.4,0.0168 -0.8113,0.0558 -1.2324,0.11718 -4.8564,0.70769 -6.4753,3.30413 -8.9571,14.36719 -1.6661,7.42656 -2.0346,14.11671 -0.8203,14.86719 1.2143,0.75045 2.2071,3.9451 2.2071,7.09961 0,3.15452 1.3966,7.13111 3.1035,8.83789 5.5865,5.58658 8.3856,1.59626 10.1875,-14.52735 0.9753,-8.7288 2.3886,-17.8501 3.1406,-20.26757 1.8967,-6.09762 -1.6286,-10.74597 -7.6289,-10.49414 z m 264.0703,0.37304 c -0.3946,-0.0138 -0.7935,-0.0126 -1.1973,0.004 -6.9989,0.28574 -15.1849,5.0291 -17.9668,11.13476 -5.149,11.30032 -2.3509,26.84917 5.8106,32.29883 9.8248,6.56016 29.6894,-6.63672 29.6894,-19.72461 0,-9.3593 -6.5903,-21.13493 -12.9589,-23.15625 -1.0559,-0.33509 -2.1933,-0.51517 -3.377,-0.55664 z m -44.4844,2.03516 c -3.5137,0.0817 -7.1913,3.13338 -8.6601,8.6582 -1.1003,4.13895 -3.7682,8.51493 -5.9297,9.72461 -4.3176,2.41622 -5.4451,12.18164 -1.4063,12.18164 1.3888,0 4.2091,4.03223 6.2676,8.95899 5.6957,13.63221 10.6778,11.51206 12.6641,-5.38868 0.9275,-7.89006 2.677,-16.23929 3.8886,-18.55468 1.237,-2.36348 1.221,-6.81427 -0.037,-10.14844 -1.4196,-3.76189 -4.0542,-5.49522 -6.7871,-5.43164 z m -86.0644,6.25 c 1.2542,0 2.6231,2.40528 3.0429,5.34375 0.4197,2.93847 -1.0052,6.81055 -3.1679,8.60547 -3.259,2.70467 -4.227,2.49794 -5.6504,-1.21094 -1.7973,-4.68388 1.8546,-12.73828 5.7754,-12.73828 z m 47.4648,1.28125 c 3.28,0 2.5856,11.34984 -0.9082,14.84375 -4.1451,4.14495 -7.0219,3.86371 -8.8359,-0.86328 -1.4901,-3.88345 5.547,-13.98047 9.7441,-13.98047 z m 172.7949,2.06836 c 1.6048,-0.10327 3.2349,0.70455 4.5196,2.7832 0.7794,1.26101 -0.7949,5.00452 -3.4981,8.31836 -4.4373,5.43972 -5.0841,5.58861 -6.6582,1.54492 -2.4015,-6.16843 1.5358,-12.38258 5.6367,-12.64648 z m 401.1114,1.76953 c -9.0978,0 -8.4663,11.3622 0.914,16.45117 12.9423,7.02137 28.793,4.02421 28.793,-5.44531 0,-2.17978 -3.5567,-3.32813 -10.3164,-3.32813 -6.8104,0 -10.8186,-1.30389 -11.791,-3.83789 -0.8103,-2.11147 -4.2311,-3.83984 -7.5996,-3.83984 z m -492.1446,0.13086 c 1.7419,0.0192 3.4285,1.03269 4.6465,3.30859 1.9585,3.6595 1.3599,6.07199 -2.5508,10.26953 -7.0018,7.51543 -10.0312,6.8807 -10.0312,-2.10156 0,-6.74662 4.1034,-11.51872 7.9355,-11.47656 z m 600.795,3.89258 c -6.4246,-0.1893 -13.9049,1.4599 -14.5352,4.6875 -0.7296,3.73508 0.9754,4.26787 11.5176,3.5957 8.5409,-0.54455 12.373,-1.9027 12.373,-4.38281 0,-2.49421 -4.3586,-3.75316 -9.3554,-3.90039 z m -52.0704,3.65429 c -14.3554,0 -17.7386,2.99197 -11.0039,9.72657 4.041,4.04112 14.9743,3.7796 20.6016,-0.49219 8.2246,-6.2434 5.1163,-9.23438 -9.5977,-9.23438 z m 117.6856,0.38282 c -0.5877,0.002 -1.2003,0.0323 -1.8359,0.0937 -8.9685,0.86652 -13.0564,8.579 -6.6875,12.61523 4.8608,3.08037 8.155,2.78959 13.6152,-1.20313 6.9904,-5.11149 3.7233,-11.53291 -5.0918,-11.50585 z m -40.6484,2.17773 c -3.9222,0 -14.3321,12.83376 -14.3321,17.66992 0,5.3304 11.5346,2.62037 16.2188,-3.81054 5.0783,-6.97225 4.1408,-13.85938 -1.8867,-13.85938 z m 20.9609,8.26562 c -1.968,-0.0613 -4.2919,0.66843 -5.8399,1.95313 -4.1994,3.48512 -1.3506,11.44926 6.1563,17.21289 5.4784,4.20621 7.771,4.03276 9.5957,-0.72266 0.3465,-6.49283 -3.2909,-17.66261 -9.9121,-18.44336 z m 38.1914,134.26368 c -26.1849,0.26763 -53.1769,9.18118 -76.6133,30.14843 -36.0371,-2.44862 -52.3902,38.35471 -30.9433,50.57813 -14.4233,24.33967 -13.3023,52.5655 -3.0118,78.21289 1.469,3.58027 0.1162,5.24824 -6.1855,7.62695 -9.3747,7.38458 -6.5288,20.94605 16.8105,9.77735 0,0 0.5931,2.12724 12.3418,14.74804 14.7386,15.8321 36.1415,27.58681 58.6778,32.22461 35.8822,7.04116 77.3586,-0.52807 106.8496,-26.08008 11.3939,-10.65759 13.0377,-11.41295 18.9512,-8.71874 16.5896,7.55889 34.5979,-8.05771 52.9414,-28.83594 14.3376,-16.24072 10.5544,-64.69096 -35.4649,-75.56641 -5.5987,-44.758 -56.5957,-83.50927 -111.8223,-84.11523 -0.8428,-0.009 -1.6865,-0.009 -2.5312,0 z m -1009.3359,19.63281 c -9.7248,-0.0282 -19.9168,0.95616 -30.5137,2.81055 -36.7064,10.07027 -55.613,24.78379 -72.4317,47.45507 -34.9979,47.17678 -16.6896,116.12102 48.3243,136.13282 25.9393,7.5132 64.9036,-0.21659 93.8437,-18.61719 l 13.2246,-8.4082 9.711,4.95117 c 10.0994,5.0869 30.7038,5.35572 9.7675,-10.00391 -7.1118,-5.21751 -7.8734,-6.03989 1.043,-16.30859 4.0151,-4.62392 10.4927,-16.45028 14.3965,-26.28125 9.4986,-23.92168 8.194,-46.46998 -3.8359,-66.25781 -20.0205,-32.36288 -48.7979,-45.37192 -83.5293,-45.47266 z m -2.9063,12.83203 c 42.5368,0.0948 82.7022,32.25761 81.1524,80.74805 -4.9815,18.70728 -13.9188,30.45089 -24.2325,42.64843 -12.3222,-4.43866 -15.1342,7.59645 -11.6465,10.2793 0,0 -20.0237,12.98894 -26.5898,9.31446 -6.7932,-3.80188 -13.1825,-11.75668 -16.9473,-21.09961 -7.3159,-18.15581 -24.0659,-25.33541 -33.8593,-14.51368 -6.2349,6.8893 -5.1523,32.03433 2.1406,49.70508 4.3271,10.5618 -34.8559,-4.76825 -41.6953,-9.66015 -61.6868,-45.80129 -13.8736,-123.79903 45.2383,-143.19532 8.6807,-2.88365 17.611,-4.24623 26.4394,-4.22656 z m 206.9883,34.61133 c -2.8075,0.0522 -6.3054,1.18346 -9.2149,3.08984 -6.5028,4.26072 -6.646,4.92867 -5.3437,25.08789 1.3618,21.07584 -2.7324,52.28472 -14.0605,107.15235 -5.7758,27.97381 -4.9478,35.12891 4.0703,35.12891 18.2427,-0.7518 24.0343,-110.55882 27.4785,-135.2168 0.084,-23.06218 0.2752,-23.83588 5.5136,-22.44922 2.9842,0.78993 72.2236,1.63271 153.8672,1.87304 81.6439,0.24017 171.4781,1.28893 199.6309,2.33204 28.1531,1.04309 82.8599,2.72901 121.5703,3.74609 38.7103,1.01716 73.6664,2.00796 77.6797,2.20117 6.9566,0.33488 7.3469,1.00781 8.3633,14.42774 0.5864,7.74212 4.0162,27.89731 7.623,44.78906 3.6065,16.89184 8.0721,40.02655 9.9239,51.41015 5.258,32.32493 8.9597,49.31113 15.5683,71.43943 3.363,11.261 9.0403,34.0653 12.6172,50.6758 15.8128,73.4335 58.3706,211.7734 67.2773,218.6972 13.3634,10.3884 11.8302,-2.0709 -7.1953,-58.5039 -20.5278,-60.8888 -57.0384,-201.4434 -72.0625,-277.41399 -5.5678,-28.1531 -12.3868,-62.70286 -15.1543,-76.7793 -3.0096,-15.30718 -4.4774,-30.42156 -3.6523,-37.60352 0.8553,-7.44381 0.3052,-12.67078 -1.4473,-13.7539 -121.9974,-9.52224 -373.9738,-4.79858 -580.5234,-10.01172 -0.7352,-0.23332 -1.5935,-0.33575 -2.5293,-0.31836 z m 720.9082,15.31055 c 0.56,-0.0109 1.1258,-0.0109 1.6894,0.002 2.7055,0.0614 5.3631,0.43254 7.1094,1.46289 9.5317,5.62382 21.3049,6.94764 37.086,4.17187 10.198,-1.79373 10.91,-1.49698 14.8867,6.19336 8.8245,15.97487 27.7882,17.62398 47.5097,15.58594 21.4968,-3.95188 1.7782,54.14938 39.8575,68.86719 6.7603,0 5.2224,4.2665 -4.4707,12.4043 -10.1165,8.4933 -43.2286,20.35708 -43.2286,15.48828 2.4314,-16.2839 10.7347,-25.10401 7.7032,-41.85352 -3.9486,-17.50779 -26.9991,-31.79528 -38.7305,-24.00586 -2.8525,1.89419 -9.4202,11.48109 -14.5937,21.30274 -15.9322,30.24699 -33.2849,36.19135 -51.1758,17.53125 -6.9838,-7.28399 -7.9388,-9.53983 -5.3555,-12.65235 3.5374,-4.26223 1.1109,-7.71594 -6.3789,-9.08008 -3.3101,-0.60269 -6.3913,-5.34542 -9.5898,-14.75976 -8.9712,-16.90716 -5.1588,-48.43052 9.4257,-60.00195 0.6934,0 4.3355,-0.58001 8.2559,-0.65625 z m -652.8672,14.46093 c -5.2562,-0.0347 -8.5062,8.22281 -8.873,23.67774 -0.2756,11.61691 -1.3542,13.96709 3.7343,17.22265 7.358,4.70764 8.4049,9.93332 18.1036,0.8125 5.586,-6.50082 6.0469,-6.60763 9.3105,-2.14453 5.4534,7.45795 11.0099,3.03339 13.0195,-10.36719 1.3299,-8.86802 0.9056,-12.65534 -1.5976,-14.24218 -5.7467,-3.64287 -9.268,-2.55797 -18.7637,5.77929 -5.023,4.41033 -9.6844,7.46606 -10.3594,6.79102 -0.675,-0.67513 0.5017,-5.36508 2.6153,-10.42383 3.4434,-8.24248 3.4274,-9.61177 -0.1504,-13.18945 -2.6181,-2.61804 -4.9823,-3.90243 -7.0391,-3.91602 z m -30.2187,0.0488 c -3.4406,0.0246 -6.8827,5.57177 -9.4122,15.93555 -3.9842,16.32413 -1.2443,28.70932 6.8262,30.85156 2.3241,0.61708 5.0054,1.25478 5.959,1.41797 3.8299,0.65589 11.784,-12.80454 10.4902,-17.75195 -1.2331,-4.71529 -1.7566,-4.82853 -5.7129,-1.24805 -2.3954,2.16769 -5.1275,3.94141 -6.0722,3.94141 -2.9666,0 -1.8445,-8.65675 2.1035,-16.22657 2.8163,-5.39974 3.0973,-8.56325 1.0918,-12.31054 -1.6694,-3.11925 -3.4712,-4.62227 -5.2734,-4.60938 z m 360.0058,6.29688 c -3.0684,-0.0223 -4.6793,1.2675 -7.2637,4.35937 -2.9911,3.57923 -4.0357,7.43725 -2.9296,10.82617 7.9648,27.54842 3.7466,59.94345 9.7929,85.33985 32.2367,9.3294 107.7647,1.81876 146.2285,5.38086 5.6305,1.2401 11.5949,2.38762 13.2539,2.54882 5.2179,0.5091 11.1239,-7.48872 9.8418,-13.32812 -5.8187,-26.50182 -9.3781,-58.8745 -7.9765,-72.55469 1.159,-11.31214 0.718,-16.39046 -1.5449,-17.78906 -1.742,-1.07656 -34.3025,-1.71394 -72.3555,-1.41797 -39.4681,0.30714 -73.5838,-0.55927 -79.4238,-2.01562 -3.4151,-0.85162 -5.782,-1.33622 -7.6231,-1.34961 z m -279.7285,4.10937 c -2.3826,-0.0998 -4.8825,0.95072 -5.8848,2.57227 -2.1944,3.55099 -1.2473,20.89272 1.3731,25.13281 2.4511,3.96585 8.9613,0.12974 10.5547,-6.21875 2.5589,-10.19596 0.1596,-20.38529 -5.0332,-21.37109 -0.3309,-0.0628 -0.6694,-0.10099 -1.0098,-0.11524 z m 19.4453,3.92188 c -3.1072,-0.19041 -6.8355,3.53297 -8.6445,11.76953 -1.3267,6.04073 -0.6586,8.7483 2.7734,11.25781 5.996,4.38445 8.3468,2.53018 10.3535,-8.16602 1.7639,-9.40216 -0.9609,-14.64553 -4.4824,-14.86132 z m 296.3067,5.02539 c 33.461,-0.004 98.2871,1.66821 98.2871,3.04492 -12.6555,15.62126 -35.6997,23.11948 -51.0411,35.62305 -1.5807,0.62215 -52.1134,-26.28151 -61.8222,-32.91407 -3.3807,-2.30958 -5.5711,-4.61341 -4.8672,-5.11914 0.621,-0.44625 8.2897,-0.63349 19.4434,-0.63476 z m 277.9394,4.86914 c -0.4427,-0.0304 -0.9515,-0.0307 -1.543,0.002 -8.5608,1.2578 -8.5284,5.5797 -5.2441,11.29102 3.3565,5.99737 10.1579,8.18676 15.0625,6.30468 5.6244,-2.15838 5.0372,-5.33586 -2.3555,-12.72851 -2.9219,-2.92192 -2.8209,-4.65621 -5.9199,-4.86914 z m -861.6738,1.83203 c -3.4289,-0.15226 -7.0232,2.25746 -9.8985,7.125 -2.5695,4.34978 -4.0322,9.57668 -3.25,11.61523 2.1975,5.72634 10.2808,4.39539 17.0469,-2.80664 4.814,-5.12437 5.5366,-7.44363 3.3848,-10.87695 -2.0494,-3.26974 -4.6163,-4.93822 -7.2832,-5.05664 z m 555.7617,4.53125 c 2.1183,0 60.248,30.5406 62.9824,33.08984 -4.3021,10.01476 -42.938,24.67492 -54.8301,32.97852 -9.7118,-12.2573 -8.7501,-48.08951 -8.1523,-66.06836 z m 138.709,1.35937 c 4.3203,9.57877 7.8643,48.65683 6.4648,62.57813 -20.0401,-6.5509 -32.9133,-19.74639 -52.2168,-26.83594 -7.0249,-2.22969 -6.3639,-5.5909 1.9512,-9.92578 16.3716,-8.71095 27.5378,-19.7494 43.8008,-25.81641 z m -769.7285,23.09375 c 2.349,0.18054 5.4147,3.47913 9.0254,9.91602 3.1022,5.53034 8.6463,13.24021 12.3203,17.13281 l 6.6797,7.07813 c -8.025,2.2286 -14.13,4.16602 -22.1563,5.39062 -5.4486,0.0278 -11.7159,-16.23646 -10.8437,-28.13867 0.5703,-7.78207 2.3123,-11.58351 4.9746,-11.37891 z m 1026.1504,1.21094 c 2.8918,-0.14638 6.0419,2.00916 10.0039,6.22656 9.7739,11.21922 -1.6458,40.74918 -13.9805,51.38868 -3.444,0.6839 -26.9359,-2.80163 -34.0039,-5.04493 -6.969,-2.2119 -7.3085,-5.704 -0.7578,-7.7832 10.1317,-3.2156 18.9391,-12.92278 25.9902,-28.63867 4.847,-10.80299 8.5216,-15.93449 12.7481,-16.14844 z m -755.6036,5.04688 c -31.4175,0.0151 -25.151,4.31726 -23.5664,15.8789 0.9521,6.946 0.3888,13.72812 -1.4199,17.10742 -1.6476,3.0795 -2.3373,7.67865 -1.5312,10.21875 14.4602,14.1904 248.6264,12.12326 309.7812,18.03516 23.5314,3.1926 22.6326,3.84044 26.4258,-19.03516 4.0849,-24.6343 2.5962,-28.23386 -11.3066,-27.36914 -5.5006,0.34202 -31.3081,-1.10968 -57.3497,-3.22656 -26.0416,-2.11679 -75.5634,-5.07382 -110.0507,-6.57031 -70.3479,-3.05216 -109.4863,-5.04939 -130.9825,-5.03906 z m 436.877,7.89843 c 15.776,7.95295 35.9645,18.05195 53.6953,29.21485 -35.9062,3.2099 -66.0348,3.30271 -104.9336,3.72461 13.752,-10.7033 34.064,-21.03271 51.2383,-32.93946 z m -422.666,4.39844 c 8.839,-0.0112 20.9059,0.15166 37.4297,0.30469 64.9093,0.65361 153.9252,7.39165 231.623,13.62305 12.5163,0.6365 12.8149,0.84102 13.6231,9.29492 0.7753,8.1104 -2.0899,14.83223 -5.0567,11.86523 -78.4841,-3.5576 -149.5202,-4.98609 -248.0176,-8.86719 -54.7358,-0.143 -57.981,-1.10686 -55.1211,-16.35156 1.543,-8.22495 -0.9975,-9.83565 25.5196,-9.86914 z m 599.2734,41.30274 c -0.4338,-0.003 -0.8784,0.029 -1.334,0.0937 -6.5178,0.9277 -8.8101,3.9144 -8.8711,20.30272 -0.073,19.1803 -2.1632,32.965 5.2852,49.1094 -6.0191,7.8537 -9.2284,-14.4582 -11.9512,-21.4472 -2.1795,-8.1631 -11.0932,-8.1172 -14.2949,-7.5 -6.3913,1.2321 -1.4373,24.2412 5.9805,37.4394 5.6482,10.0497 15.2511,20.9082 24.4648,20.9082 7.8499,0 29.3466,-0.6173 31.6348,27.4434 2.7939,34.2609 -3.1547,84.4327 7.6697,104.9037 18.8011,40.5016 41.9384,12.1386 55.3223,-12.9224 l 32.6193,-67.2548 c 9.5137,22.6845 16.1402,52.1978 22.8848,77.875 3.833,19.0667 12.7667,56.334 20.4433,55.4121 13.1769,1.1249 1.5767,-22.8992 -0.3867,-36.3085 -9.6309,-36.6157 -21.0251,-75.8693 -30.9883,-114.8555 8.2667,-16.6769 9.9701,-36.9405 12.4102,-44.461 3.063,-9.4406 -8.3939,-12.5002 -13.8067,-7.5156 -2.6285,2.4206 -4.7086,7.7704 -7.2187,14.6992 -0.9311,-20.5816 4.2027,-28.7912 23.1484,-38.0605 36.2463,-17.7337 70.4794,-18.3948 97.7422,-1.8887 55.2742,35.0282 70.3691,130.2196 84.6094,196.7422 1.5215,7.4449 10.7056,10.2473 16.0547,4.8984 8.2183,-8.4157 -10.078,-54.8248 -11.2715,-68.0722 -17.9265,-76.8902 -34.8654,-110.9285 -68.8945,-138.4492 -30.5596,-24.3412 -72.0143,-30.2467 -113.9141,-14.0274 -38.048,14.7695 -47.5792,27.2666 -45.043,59.0606 0.786,9.8536 1.7497,27.8348 5.1361,29.5263 0,0 -15.193,48.134 -32.9112,77.2822 -15.3114,25.1889 -18.9019,22.8667 -26.2525,22.8667 -8.399,0 -8.3302,-67.6176 -11.3239,-100.7084 l -2.2598,-24.9707 c 9.8238,-2.8429 3.862,-26.1789 7.4609,-53.9649 4.1932,-25.4014 4.3947,-32.19338 -4.1875,-32.19338 -6.2689,0 -8.8513,2.35798 -8.1367,12.16218 0.341,4.6751 -0.7781,6.4157 -3.7715,2.5 -1.8028,-2.3581 -2.2173,-13.51552 -4.6152,-17.84382 -4.5489,-8.2108 -14.1234,-12.60122 -19.6836,-7.04102 -2.0727,2.0725 -2.3578,5.16522 -4.5293,1.10742 -1.6956,-3.16811 -4.1836,-4.82966 -7.2207,-4.84765 z m -255.6855,16.24412 c -3.0408,0.017 -4.7805,0.7562 -5.7266,2.2793 2.2702,24.9897 -3.9895,50.0918 7.5703,49.6133 16.1206,0.1691 115.0724,-5.1876 150.1211,-1.2285 24.7906,2.8002 28.3807,0.2311 21.9902,-15.7403 -2.52,-6.2983 -3.6785,-13.7078 -2.7812,-17.7929 3.226,-14.6885 1.0766,-15.0854 -80.0469,-14.8086 -40.4384,0.1379 -78.3026,-0.5758 -84.1406,-1.586 -2.8702,-0.4966 -5.1619,-0.7465 -6.9863,-0.7363 z m -376.9102,1.2109 c -5.4485,-0.024 -9.6916,0.5087 -10.3516,2.2286 -3.5518,9.2563 5.5621,11.1777 53.0293,11.1777 40.0007,0 124.3977,5.892 127.4004,8.8945 0.7105,4.4406 -55.2267,22.7789 -62.416,26.5742 l -23.2383,8.1504 -30.5097,-13.334 c -16.7804,-7.3339 -34.9144,-16.0654 -40.2969,-19.4023 -10.5001,-6.5095 -18.3652,-6.7696 -18.3652,-0.6094 0,4.1758 25.0634,17.5373 54.3867,28.9961 10.2055,3.988 18.5547,8.1489 18.5547,9.2461 0,1.0972 -15.8362,7.4589 -35.1914,14.1367 -19.3554,6.6779 -35.6428,12.562 -36.1953,13.0743 -0.5524,0.5125 0.3761,2.5948 2.0644,4.6289 2.6608,3.2061 4.6695,3.0672 15.082,-1.043 25.5583,-10.0885 62.868,-23.0059 66.4473,-23.0059 4.122,0 46.6903,18.2904 56.8965,24.4473 8.9604,5.3467 17.8404,8.0153 25.5937,13.9062 0,1.7136 -159.9037,0.3696 -171.0097,-1.4374 -8.0843,-1.3154 -8.3946,-1.7703 -6.5352,-9.5508 3.3196,-13.8907 2.5243,-22.706 -2.3242,-25.7696 -3.4805,-2.1991 -5.0518,-2.0734 -6.6797,0.5352 -2.4266,3.8884 -5.9906,40.9179 -4.2148,43.791 0.6422,1.0392 19.3518,1.6312 41.5781,1.3164 45.9057,-0.6498 140.8841,3.0239 161.9824,6.2656 30.5806,4.6986 32.5767,3.7605 27.9375,-13.1347 -4.5792,-16.6772 -1.579,-60.1341 5.7656,-83.502 4.1575,-13.2276 -1.203,-17.025 -22.8379,-16.1758 -58.4068,-2.5113 -103.9838,-8.4671 -168.9726,-9.2988 -5.4788,-0.5026 -12.1316,-1.0818 -17.5801,-1.1055 z m -345.9941,4.3985 c -20.55,-0.2863 -40.4908,6.0956 -59.5586,22.2129 -15.0224,15.2473 -31.2998,48.0528 -38.0801,76.7441 -12.4367,52.6257 -22.7771,126.3633 -18.3418,130.7988 7.7667,7.7668 16.2799,-11.5313 19.4785,-44.1523 5.8364,-53.9432 18.8571,-124.7519 63.2598,-159.252 15.5415,-8.9784 29.2019,-10.4472 52.6269,-5.6621 30.7157,6.2743 51.9992,21.2743 55.3086,38.9805 1.6605,8.8838 -5.4245,46.5938 -8.7539,46.5938 -1.0694,0 -6.0891,-7.4138 -11.1562,-16.4747 -9.5746,-17.1208 -17.3013,-22.5425 -23.4004,-16.4199 -6.255,6.5716 11.9885,25.4089 16.2988,32.8946 13.176,17.2228 13.7251,20.5287 7.9512,47.8164 -3.3625,15.8905 -5.2619,34.0738 -5.1719,49.4707 0.1118,9.755 -1.7423,91.6471 18.3438,69.4902 2.1291,-3.9798 2.09,-18.0936 -0.1504,-30.7344 -4.114,-23.2099 -3.4487,-62.4222 1.373,-80.9101 2.1873,-8.387 4.3827,-15.6544 4.8789,-16.1504 21.0474,10.7705 38.0768,33.8741 66.211,20.125 15.4021,-7.456 51.3283,-43.5415 70.3437,-70.6543 0.9987,-1.424 5.2712,-2.7156 9.4942,-2.8692 44.7955,6.1431 61.7767,-6.0088 69.7949,-10.5625 11.9976,-6.2225 13.1861,-11.9481 4.3847,-21.1347 -3.8029,-3.9694 -6.161,-8.4388 -5.2382,-9.9317 2.9854,-4.8306 -3.514,-13.0586 -10.3164,-13.0586 -4.1789,0 -5.8235,-1.0288 -4.6583,-2.914 1.2417,-2.0094 8.8236,-2.4578 24.418,-1.4473 14.3367,0.9288 23.2136,0.4989 24.2461,-1.1719 6.04,-9.7727 -31.9743,-15.8003 -55.8574,-8.8574 -13.4293,3.9041 -14.8341,3.885 -22.1035,-0.2871 -7.7073,-4.4234 -7.8201,-4.3989 -15.8047,3.1934 -9.9153,9.4279 -15.2637,19.3302 -15.2637,28.2636 0,8.7889 -38.0046,59.4743 -59.5566,79.4278 -17.5093,16.2104 -28.7386,22.0339 -37.9356,19.6757 -9.964,-2.5547 -27.9673,-14.7407 -32.9101,-22.2753 -4.4372,-6.7639 -4.3991,-7.5378 1.2382,-25.3379 6.8641,-21.6723 10.0556,-44.2707 7.7403,-54.8125 -1.923,-8.7551 -18.4633,-26.9036 -29.916,-32.8262 -21.5076,-10.5511 -42.6668,-17.5047 -63.2168,-17.791 z m 762.9902,9.8594 c 40.5077,-0.048 110.8262,2.3289 113.5645,4.6015 4.3479,3.8513 5.9897,16.1644 -0.047,18.584 -39.3721,-4.7361 -85.038,2.2766 -128.3242,2.6797 -17.0929,1.237 -19.1953,-0.1328 -19.1953,-12.5078 0,-9.9657 0.6682,-11.1424 7.039,-12.4063 3.2708,-0.6488 13.4604,-0.935 26.9629,-0.9511 z m -183.4727,4.0976 c -3.3746,1.498 -4.7093,3.3647 -3.664,5.6582 2.4931,5.4702 1.3453,6.047 39.2441,7.4649 58.6737,2.1953 65.5845,1.9835 67.1348,-2.0567 0.7521,-1.9596 0.3501,-4.5125 -0.8926,-5.6738 -1.2425,-1.1616 -25.6725,-3.064 -54.2988,-3.9395 z m -39.7148,9.6738 c -1.8829,23.0391 -9.4087,55.3357 -6.0156,78.1368 -0.4808,1.5542 -84.7127,-39.1054 -88.166,-42.5586 32.0864,-11.7993 62.0193,-23.8616 94.1816,-35.5782 z m 77.4863,15.4727 c -27.6554,-0.041 -35.5034,0.7388 -36.3007,3.1309 -0.6304,1.8907 0.5641,4.6903 2.6562,6.2207 5.2054,3.8082 93.5859,3.0977 97.4668,-0.7832 6.4901,-6.4902 -3.3255,-8.135 -50.7207,-8.502 -4.7964,-0.037 -9.1508,-0.061 -13.1016,-0.066 z m -30.8984,22.6035 c -9.8483,0.08 -12.34,2.5795 -8.6484,8.4141 1.7589,2.78 11.3697,3.4897 45.3867,3.3554 23.7356,-0.093 48.9147,0.6916 55.9531,1.7442 14.2927,2.138 22.4593,-1.6085 17.2324,-7.9063 -2.0745,-2.4996 -14.9729,-3.6314 -49.6875,-4.3593 -25.7872,-0.5406 -51.9628,-1.0962 -58.1679,-1.2325 -0.7223,-0.016 -1.4118,-0.021 -2.0684,-0.016 z m 308.9238,0.4063 c -2.7683,-0.032 -6.4559,0.476 -11.9609,1.457 -8.1837,1.4584 -48.5669,2.7365 -89.7402,2.8379 -66.5083,0.1651 -74.8614,0.6381 -74.8614,4.2383 -6e-4,2.229 0.8441,4.8948 1.875,5.9257 1.0312,1.0325 43.0547,1.5111 93.3867,1.0665 78.2342,-0.691 91.7255,-1.362 92.9786,-4.625 0.8198,-2.1349 -0.787,-5.6396 -3.6465,-7.9551 -2.4316,-1.969 -4.472,-2.9039 -8.0313,-2.9453 z m -300.2461,22.7519 c -4.8709,0.018 -10.1408,0.1558 -16.3008,0.4883 -3.4351,0.1855 -6.3974,35.8721 0.1934,35.0137 42.4329,0.6155 70.1035,1.9121 112.6426,4.8828 0.8543,-2.2266 1.5547,-10.206 1.5547,-17.7324 0,-21.2428 -0.4323,-21.4228 -51.8692,-21.5899 -20.5965,-0.089 -31.6079,-1.1161 -46.2207,-1.0625 z m 0.029,10.2735 c 4.9033,0.1195 12.6933,1.0987 24.8711,1.789 15.6199,0.8855 34.159,1.6398 41.1973,1.6738 7.0381,0.035 14.5234,1.2179 16.6348,2.6309 3.3148,2.218 0.8847,9.2188 0.8847,9.2188 -4.7165,2.5414 -14.2436,1.1346 -47.6875,0.4628 -48.296,-0.9703 -44.311,-1.0653 -43.6816,-9.5234 -0.055,-5.1369 1.477,-6.4056 7.7812,-6.2519 z m 307.7676,2.0859 c -7.482,0.039 -18.5334,0.6668 -35.0605,1.7519 -23.5613,1.5469 -66.3651,3.2167 -95.1192,3.711 -28.754,0.4944 -53.3019,1.9208 -54.5508,3.1699 -1.3214,1.3215 -0.5107,4.0319 1.9395,6.4824 3.7277,3.7276 9.9697,4.0399 54.4414,2.7285 27.6275,-0.8147 51.099,-2.0172 52.1582,-2.6718 3.0845,-1.9065 66.4863,-1.7397 76.5977,0.2011 10.0896,1.9368 18.6346,-3.4019 16.0839,-10.0488 -1.4653,-3.8187 -4.0202,-5.3894 -16.4902,-5.3242 z m -638.8613,4.0898 c -4.2778,0.097 -4.7911,3.4668 -8.2871,22.8653 -10.4533,56.2038 -26.056,102.0856 -40.3477,169.7799 -1.9434,8.1426 -1.8687,12.1315 0.2754,14.7149 3.6642,4.415 13.6334,4.6176 17.0254,0.3457 1.3973,-1.7596 3.1595,-12.9882 3.9179,-24.9532 4.1584,-60.4488 20.1193,-77.6693 30.6954,-140.692 9.2061,-39.2776 9.2203,-40.7434 0.3672,-41.7617 -1.4711,-0.1693 -2.6593,-0.3213 -3.6465,-0.2989 z m 643.9297,27.0996 c -2.7181,0.024 -5.6844,0.2682 -8.8516,0.7481 -25.1442,3.8101 -125.6087,5.6144 -154.5937,2.7773 -20.5232,-2.0088 -27.1754,-1.8961 -28.6465,0.4844 -3.6338,5.8796 3.4017,9.4495 20.4062,10.3535 9.3805,0.4989 55.6225,0.838 102.7598,0.752 78.293,-0.1418 85.7764,-0.5289 86.5351,-4.4727 1.2948,-6.728 -5.8312,-10.7455 -17.6093,-10.6426 z m -598.3262,8.252 c -3.3244,-0.016 -5.958,0.019 -7.6914,0.1152 -2.3727,0.1319 -3.0827,2.3609 -2.209,6.9317 1.7115,8.9526 -2.2899,40.1448 -8.6328,67.291 -10.8682,46.5145 -18.7694,98.3578 -15.9132,101.7995 1.5155,1.8259 3.9695,2.9145 5.4531,2.4199 3.367,-1.1223 5.0479,-8.343 10.5547,-45.3398 4.0946,-27.5072 19.1315,-105.2041 22.3487,-116.0241 -3.449,-8.8106 79.2249,-0.1172 98.3204,0.2988 4.0278,4.1951 -5.719,85.131 -16.0508,133.2851 -5.6388,26.2802 -4.9671,32.019 3.6035,30.7872 4.3298,-0.6223 5.8009,-2.667 6.1133,-8.4981 0.3956,-7.385 13.7568,-105.1622 19.0605,-139.4844 4.5492,-29.4389 5.9331,-26.6439 -14.2168,-28.7226 -20.2794,-2.0919 -77.4693,-4.7446 -100.7402,-4.8594 z m 166.3926,7.6191 c -15.115,0.072 -26.7418,0.5197 -28.9219,1.459 -3.4825,1.5003 -3.9782,4.4796 -2.8398,17.0352 -1.2928,62.4525 -5.2144,76.9626 -8.004,132.7539 -1.2886,13.0573 -5.9077,29.0206 3.6641,28.2754 5.6453,0 6.6821,-6.6152 8.8203,-56.3047 2.0653,-47.9933 8.6582,-105.7033 12.3438,-108.0469 15.6394,-6.9454 89.1011,0.1872 89.3535,3.6602 5.7413,47.0761 -4.4902,84.2229 -4.4902,123.6465 -3.1142,20.9728 -3.3507,28.0671 -1.0333,30.8593 4.484,5.4032 9.8039,4.3888 11.168,-2.1308 1.1698,-5.5905 4.8902,-61.0561 7.9414,-118.3711 0.8242,-15.4841 1.9624,-32.2213 2.5293,-37.1934 0.7629,-6.6945 -0.164,-9.7854 -3.5722,-11.914 -3.5713,-2.2302 -53.7061,-3.8877 -86.959,-3.7286 z m 118.6601,5.959 c -0.8077,-0.01 -1.5618,0 -2.2676,0.016 -4.7051,0.1335 -7.2137,0.934 -8.455,2.4961 -9.9533,63.3991 -11.9665,138.7517 -11.0274,172.4454 2.0567,5.41 6.3686,1.6852 9.1407,-0.6153 6.6901,-46.0369 0.036,-51.3706 8.6953,-132.2402 4.0527,-33.4466 -0.5621,-29.813 18.4277,-29.2559 24.2746,0.7119 68.5694,3.7142 70.4453,5.4961 4.9238,4.6773 10.4564,47.9324 12.0039,93.8457 1.5796,46.8635 2.9878,57.2745 8.3496,61.7246 7.3464,6.0969 8.7013,-1.0361 6.1758,-32.5097 -4.4437,-56.0491 -0.25,-99.6797 -14.0723,-135.3965 -2.9246,-0.5926 -20.2885,-1.7695 -38.5878,-2.6153 -18.2996,-0.8456 -40.8243,-2.1577 -50.0547,-2.916 -3.4537,-0.2837 -6.3504,-0.4454 -8.7735,-0.4746 z m 331.7266,7.2071 c -1.1289,0 -13.47,1.721 -27.4238,3.8242 -28.1062,4.2362 -153.2254,5.4672 -159.3789,1.5683 -4.2763,-2.7093 -13.1543,-0.6701 -13.1543,3.0215 0,1.4846 1.645,4.5177 3.6562,6.7403 3.1828,3.5163 13.0502,3.9936 76.1406,3.6796 81.9821,-0.4081 122.1652,-2.2256 125.6231,-5.6836 2.5377,-2.5378 -1.871,-13.1503 -5.4629,-13.1503 z m 2.6113,36.7187 c -2.1988,-0.018 -4.7209,0.3718 -7.5,1.207 -8.4872,2.5509 -90.9719,5.3295 -163.7168,5.5157 -24.1236,0.062 -26.2324,0.4615 -26.2324,4.9726 0,2.6979 1.4396,5.5173 3.1992,6.2656 1.7596,0.7498 10.1088,0.7572 18.5547,0.02 8.4459,-0.7383 53.364,-1.5993 99.8164,-1.9121 82.8295,-0.5575 84.4721,-0.6687 85.2207,-5.7871 0.9488,-6.4866 -2.7452,-10.2259 -9.3418,-10.2813 z m 3,36.3379 c -2.7396,0.062 -6.563,0.6079 -10.1465,1.5176 -6.3593,1.6141 -40.9754,1.7732 -96.3027,0.4433 -47.5063,-1.1416 -87.5149,-1.6919 -88.9082,-1.2226 -3.0083,1.0129 -3.382,7.2782 -0.5391,9.0351 1.0966,0.6778 43.9145,1.9085 95.1504,2.7364 51.236,0.8281 93.7195,2.069 94.4082,2.7578 1.9608,1.9607 9.0048,1.3983 12.8301,-1.0254 4.0828,-2.5869 1.8851,-11.9477 -3.2695,-13.9258 -0.4732,-0.1816 -1.2037,-0.2826 -2.1192,-0.3125 -0.3433,-0.011 -0.7121,-0.013 -1.1035,0 z m -75.0801,32.2168 c -1.9226,0.015 -4.4048,0.271 -7.707,0.709 -16.1265,2.1387 -83.3045,2.1701 -99.3125,0.047 -10.4275,-1.3832 -12.7481,-0.9261 -14.1738,2.789 -0.9376,2.4433 -0.4779,5.9199 1.0215,7.7266 3.3241,4.0054 125.4928,4.0653 128.3496,0.062 0.9575,-1.3414 0.5577,-4.651 -0.8887,-7.3535 -1.5445,-2.8861 -3.0592,-4.0134 -7.2891,-3.9805 z m 82.0313,32.2676 c -8.5016,-0.057 -19.4621,0.5609 -33.3633,1.7754 -7.742,0.6765 -41.6721,2.4796 -75.3984,4.0078 -33.7264,1.528 -61.7702,3.2274 -62.3203,3.7773 -0.5503,0.5502 -0.2235,4.488 0.7773,6.1074 38.9034,6.8324 94.4015,-6.1574 170.7832,-0.8964 21.1861,1.4593 25.0234,2.6611 25.0234,-3.8301 0,-7.4344 -6.7983,-10.8167 -25.5019,-10.9414 z" fill="#00B894" transform="translate(139.55892,211.58774) matrix(0.279606,0,0,0.279606,-670.66689,-299.37982)"/>
</svg>