<?xml version="1.0" ?><svg height="80.338737mm" viewBox="0 0 96.493462 80.338737" width="96.493462mm" xmlns="http://www.w3.org/2000/svg">
    <path d="m 19446.373,-2676.2774 c -24.205,-7.5134 -46.849,1.0811 -23.665,-43.4052 23.184,-44.4863 137.303,-201.3506 144.45,-213.4586 7.147,-12.1081 13.214,-12.3243 23.725,-0.4325 10.511,11.8919 150.455,223.783 159.044,234.9721 8.589,11.1892 21.382,24.4323 -0.18,25.8918 -21.562,1.4595 -303.374,-3.5676 -303.374,-3.5676 z" fill="#FFFFFF" transform="translate(20.739314,-28.798417) matrix(0.26458333,0,0,0.26458333,-5154.2697,811.85877)"/>
    <path d="m 22894.215,-521.76758 c -5.8,0.27631 -11.841,6.09258 -21.651,17.61328 -16.853,19.7909 -39.8,51.63239 -84.199,116.83399 -58.06,85.263 -76.342,121.08936 -71.873,140.85156 1.725,7.6312 3.924,10.02492 13.928,15.16992 6.531,3.3596 18.456,7.48728 26.494,9.17188 16.61,3.4802 46.425,4.52145 107.436,3.75195 23.237,-0.294 67.753,-0.50284 98.927,-0.46484 59.717,0.0731 98.18,-2.18593 108.809,-6.39063 5.553,-2.1966 6.588,-4.22786 7.965,-15.66015 1.722,-14.29221 1.214,-15.25779 -40.033,-76.30469 -26.774,-39.6246 -86.802,-131.52885 -104.155,-159.46485 -5.048,-8.1268 -14.692,-21.39783 -21.431,-29.49023 -8.856,-10.63165 -14.417,-15.8935 -20.217,-15.61719 z m -1.781,27.92774 c 0.228,-0.0341 0.419,-3.5e-4 0.566,0.10546 34.535,46.31194 69.083,97.51482 99.102,145.04493 l 0.119,0.33789 c 4.392,5.95059 10.831,15.33938 20.595,29.72656 15.882,23.4034 33.476,47.70641 39.094,54.00781 5.618,6.3015 10.124,12.88074 9.998,14.61914 -0.461,6.6906 -16.285,7.8005 -109.07,7.6543 -21.889,-0.0344 -57.729,0.27485 -79.649,0.68555 -50.263,0.9418 -112.188,-1.41782 -121.701,-4.63672 -15.646,-5.2924 -15.979,-8.81286 -2.633,-27.85156 5.18,-7.3906 24.66,-39.15508 43.288,-70.5879 47.761,-80.59457 93.206,-148.04714 100.291,-149.10546 z m -63.811,107.8125 c -3.846,-0.2647 -11.498,8.88368 -9.926,11.86718 0.637,1.2076 -1.848,4.24109 -5.523,6.74219 -9.262,6.3067 -8.918,16.7706 0.609,18.5332 3.682,0.6811 8.361,0.0395 10.397,-1.42578 2.931,-2.1102 4.514,-1.85071 7.607,1.24219 2.15,2.1479 5.487,4.61206 7.418,5.47656 5.909,2.6467 8.769,2.4588 11.859,-0.7832 4.151,-4.3543 1.627,-10.59398 -6.214,-15.35938 -4.796,-2.9137 -6.545,-5.83099 -6.231,-10.40039 0.473,-6.8577 -4.993,-15.54797 -9.996,-15.89257 z m 126.619,5.02148 c -6.103,0.0258 -11.911,5.28876 -12.568,14.83203 -0.231,3.3645 -2.415,6.116 -8.578,11.22071 l -10.194,8.4414 -4.808,-5.88281 c -6.346,-7.7601 -18.655,-12.58927 -28.471,-11.16797 -36.668,5.3103 -56.878,43.15568 -31.535,59.05078 5.212,3.2689 5.267,3.76887 1.433,12.82227 -7.5,17.7134 -2.736,22.73285 24.02,25.31445 37.424,3.6107 39.882,2.56274 37.234,-15.88086 -1.664,-11.6014 -1.325,-13.0272 4.975,-21.0625 7.102,-9.0565 9.194,-19.40367 5.561,-27.48437 -1.633,-3.6325 -1.386,-4.75991 1.011,-4.59571 1.747,0.1202 7.103,-2.62536 11.903,-6.10156 7.391,-5.3533 7.701,-3.11804 13.103,-0.80664 9.002,3.8506 19.731,-0.76424 21.926,-9.43164 0.944,-4.35009 -5.158,-14.835 -8.77,-12.56641 -1.045,0.65668 -6.642,-0.30438 -3.752,-6.80664 2.977,-6.698 -7.743,-9.91463 -12.49,-9.89453 z m -59.828,32.19727 c 2.779,0.018 5.331,0.53119 7.504,1.49218 21.66,9.5772 17.721,24.02876 9.674,37.53711 -3.025,4.9764 -4.327,11.20005 -4.201,20.09375 0.1,7.0864 -0.72,12.82405 -1.819,12.74805 -1.105,-0.0758 -1.658,-5.26927 -1.248,-11.54297 0.891,-13.6109 -1.98,-20.91429 -6.097,-15.49609 -1.436,1.891 -2.973,8.50516 -3.422,14.69726 -0.448,6.1926 -1.783,11.77053 -2.969,12.39453 -3.864,2.0354 -4.537,-1.39153 -1.967,-9.99023 2.855,-9.5465 1.898,-15.13437 -2.646,-15.44727 -3.314,-0.2285 -6.333,4.7047 -6.838,11.1836 -0.399,5.1038 -4.838,11.24913 -6.635,9.18555 -0.753,-0.86501 0.611,-5.52773 3.033,-10.36133 5.517,-11.0098 4.21,-16.65248 -5.168,-22.30078 -12.982,-7.8211 -13.5,-12.5704 -2.553,-23.4336 6.778,-6.72375 17.016,-10.81387 25.352,-10.75976 z m 11.068,9.30302 c -5.207,-0.24661 -9.914,3.57345 -10.226,8.11885 -0.336,4.8751 10.805,10.17116 14.543,6.91406 4.483,-2.60308 4.677,-5.42837 2.744,-9.88627 -1.232,-1.73499 -3.214,-4.96447 -7.061,-5.14664 z m -27.865,2.75166 c -6.115,-0.42115 -11.47,5.38088 -9.947,10.77344 1.107,3.90694 8.169,4.46247 12.191,0.95899 5.488,-4.7813 4.244,-11.28553 -2.244,-11.73243 z m 15.875,16.77149 c -9.448,-0.6507 -14.535,6.38265 -8.406,11.62304 5.421,4.63761 6.232,4.71531 11.926,1.125 6.963,-4.39109 4.813,-12.17394 -3.52,-12.74804 z m -48.701,17.15039 c -1.462,-0.1007 -7.168,2.90965 -12.68,6.68945 -7.477,5.1278 -10.664,6.13269 -12.558,3.95899 -7.473,-8.5799 -25.548,1.95978 -23.449,13.67578 0.805,4.498 3.155,6.86737 8.171,8.23437 4.445,1.2119 6.943,3.40221 6.762,5.94141 -0.153,2.2118 0.93,5.40601 2.406,7.09961 3.638,4.178 12.456,4.51248 16.174,0.61328 1.671,-1.7527 3.083,-7.49743 3.133,-12.76563 0.07,-7.3966 1.685,-11.22458 7.076,-16.80468 7.105,-7.3524 9.776,-16.31098 4.965,-16.64258 z m 85.764,1.20898 c -2.285,-0.13465 -3.848,0.45072 -4.772,1.73828 -2.862,3.9884 0.603,8.74406 13.119,18.00586 8.522,6.3063 12.481,10.89607 12.252,14.23047 -0.181,2.7072 0.882,6.30836 2.356,8.00196 6.16,7.0711 21.044,2.65336 21.67,-6.43164 0.221,-3.18912 2.175,-6.63661 4.345,-7.66211 5.156,-2.4366 4.641,-14.49887 -0.787,-18.41797 -3.097,-2.2358 -5.725,-2.13301 -11.035,0.43359 -6.555,3.1692 -7.705,2.98318 -19.342,-3.14062 -8.188,-4.30844 -13.999,-6.5334 -17.806,-6.75782 z" fill="#00B894" transform="translate(20.739314,-28.798417) matrix(0.26458333,0,0,0.26458333,-5154.2697,811.85877) translate(-3313.5291,-2437.8203)"/>
</svg>