<?xml version="1.0" ?><svg height="246.46481mm" viewBox="0 0 183.91014 246.46481" width="183.91014mm" xmlns="http://www.w3.org/2000/svg"><path color="#000" d="m 449.96484,426.94922 c -16.26381,0.19053 -34.66531,6.91962 -55.91015,19.36133 -39.00998,20.81007 -46.74595,38.92466 -27.61524,90.65039 19.13071,51.72574 78.43585,26.87322 99.39649,16.99218 20.96063,-9.88103 65.04377,-52.47419 37.76172,-93.57031 -15.34615,-23.11657 -32.7222,-33.67855 -53.63282,-33.43359 z m 163.18164,39.88476 c -19.75734,0.0539 -29.15342,20.51289 -25.70507,39.81055 6.23432,34.88864 -116.2363,127.47108 -123.85157,107.04492 -27.70217,-27.51238 -57.05785,-21.89457 -87.41796,3.81641 0,0 -16.96928,-6.13735 -37.34766,-13.39844 -20.37837,-7.26109 -40.50642,-87.50762 -52.23438,-115.5039 -11.72796,-27.99628 -32.27373,-16.61748 -58.05859,-3.74219 -35.1007,19.76207 -76.6875,94.61719 -76.6875,94.61719 -42.8417,44.16362 -6.19607,65.16296 45.74609,10.25586 -18.4507,49.92315 3.61944,51.30591 50.73828,22.68164 -55.1111,52.63007 -4.17868,73.6902 33.85352,14.82226 -3.4026,30.37436 -21.47809,80.15616 41.58789,22.60547 l 33.4375,29.41992 0.084,108.91406 c -3.4063,64.86537 82.81547,61.91456 103.55468,-0.82226 l 27.36524,-104.125 25.28515,-30.01758 c 29.31232,18.98388 39.47325,13.00149 32.18946,-15.7207 20.95404,7.48381 46.86547,21.04881 29.61133,-18.33985 30.12598,9.24815 25.59822,-9.87332 22.29101,-27.99609 40.73303,13.02976 20.70874,-15.94712 12.39453,-36.82813 23.82815,15.18343 41.49505,22.4233 26.2832,-12.72656 36.51555,19.78781 44.26436,11.06031 34.93555,-14.5957 0,0 0.24831,-31.36579 -34.93555,-52.625 -8.79596,-5.3148 -16.53335,-7.56484 -23.11914,-7.54688 z" fill="#FFFFFF" overflow="visible" paint-order="fill markers stroke" transform="translate(159.65008,92.039612) matrix(0.32912868,0,0,0.32912868,-200.29418,-213.76388)"/><path d="m 416.28009,369.83838 c -38.02061,5.81966 -91.57211,27.1462 -107.78511,53.73047 -2.5047,6.2656 0.693,16.76695 5.5,18.06445 25.8354,6.15437 58.3362,-11.74221 79.8847,-24.46484 9.14351,-5.6823 9.63591,-6.23631 9.27741,-10.47071 -0.3255,-3.8435 0.2143,-4.77871 3.8476,-6.66601 6.239,-3.2406 21.7305,-18.55097 21.7305,-21.47657 0,-2.9996 -3.2177,-6.48867 -7.4805,-8.10937 -1.1267,-0.4284 -2.8454,-0.61848 -4.9746,-0.60742 z m -6.2129,12.09179 c 0,1.2107 -5.4593,5.66547 -9.9336,8.10547 -2.1642,1.1802 -4.6977,2.9088 -5.63081,3.8418 -0.9331,0.9331 -3.9629,3.04772 -6.7324,4.69922 -5.3175,3.171 -16.585,10.10502 -21.0489,12.95312 -1.4599,0.9314 -4.5629,2.57219 -6.8964,3.64649 -3.0333,1.3964 -4.3631,3.00512 -4.6661,5.64062 -0.2331,2.0276 -1.0244,3.71972 -1.7578,3.76172 -1.1729,0.0671 -7.515,1.85074 -21.4277,6.02735 -5.975,1.79369 -8.5723,1.51296 -8.5723,-0.92774 16.0556,-25.63615 59.3089,-44.3125 86.66601,-47.74805 z m 32.5469,35.94141 c -8.6658,-0.0207 -16.1173,0.61134 -18,1.52734 -1.7669,0.8598 -6.2123,2.61329 -9.8789,3.89649 -3.6667,1.2832 -7.3545,2.85012 -8.1934,3.48242 -0.839,0.6324 -5.0376,2.86238 -9.332,4.95508 -7.12501,3.472 -14.75601,8.61343 -20.80861,14.01953 -1.2833,1.1463 -2.7258,2.08398 -3.2051,2.08398 -37.4284,30.38696 -27.5493,65.58038 -16.2988,86.89649 7.3404,15.0309 8.0874,16.11876 16.9531,24.72656 8.5423,8.2938 24.59651,17.78198 31.28131,18.48828 1.6149,0.1706 5.9368,0.84495 9.6035,1.49805 6.9299,1.2344 18.0791,-0.21613 30.8867,-4.01953 8.0698,-2.3965 30.2144,-13.78541 34.4649,-17.72461 1.7347,-1.6076 3.7393,-3.13543 4.4531,-3.39453 0.7138,-0.2591 8.0986,-6.50782 16.4121,-13.88672 18.317,-16.2579 22.3435,-22.85526 22.7734,-37.31836 0.286,-9.6223 -1.128,-21.6293 -3.1894,-27.0957 -1.4842,-3.9359 -0.13,-5.68197 6.834,-8.82227 4.2815,-1.9307 5.4819,-3.27888 6.166,-6.92578 2.0885,-11.69053 -4.309,-8.22406 -11.2285,-4.88086 -1.9654,0.4838 -4.9102,1.74629 -6.545,2.80469 -2.7696,1.793 -3.2236,1.61888 -6.666,-2.54493 -10.3493,-12.51799 -33.4833,-31.14298 -40.3164,-32.45898 -1.3476,-0.2595 -4.4589,-1.55129 -6.914,-2.87109 -3.5161,-1.8904 -7.6038,-2.40755 -19.252,-2.43555 z m 7.2422,10.64062 c 3.0113,-0.0296 5.9682,0.3016 9.1152,0.9336 6.8604,1.3778 8.3674,2.42429 19.5977,13.62109 12.6148,12.577 16.0847,16.66177 18.5156,21.79297 1.1902,2.5122 0.9283,3.49494 -1.5488,5.80274 -1.6609,1.5473 -2.6462,3.65325 -2.2246,4.75195 0.4164,1.0851 0.7558,2.17793 0.7558,2.42773 0,0.2498 2.25,1.18749 5,2.08399 2.75,0.8964 5.4417,2.29311 5.9805,3.10351 0.5387,0.8104 0.989,6.00552 1,11.54492 0.029,14.23671 -3.6718,21.20018 -17.7949,33.48438 -5.9684,5.1913 -13.2523,11.0123 -16.1856,12.9375 -2.9333,1.9253 -6.2213,4.34847 -7.3086,5.38477 -9.0711,8.26336 -21.7995,12.89817 -33.3847,16.54882 -17.728,4.1835 -25.9208,3.53113 -36.3145,-2.89257 -20.59601,-12.729 -37.10361,-54.5209 -29.45111,-74.5586 2.4633,-6.4501 16.0564,-23.48674 24.1835,-30.31054 6.25221,-5.24971 11.99181,-8.72125 24.94341,-15.08985 16.57,-8.148 26.0873,-11.47771 35.1211,-11.56641 z m 18.4082,27.24219 c -3.3706,-0.0293 -6.8964,0.91596 -9.3496,2.84571 -6.9363,5.4561 -2.568,11.50938 7.3457,10.17968 4.3631,-0.54867 19.0745,2.02696 10.4219,-10.02539 -1.8326,-1.967 -5.0474,-2.97066 -8.418,-3 z m 138.0176,1.16211 c -17.8666,0.21477 -43.194,20.05833 -28.5899,44.5332 2.58,2.9023 1.6887,6.4755 -4.2226,16.9336 -2.5431,4.4993 -4.726,8.61749 -4.8496,9.15039 -1.0646,4.5922 -8.7304,15.571 -18.461,26.4375 -25.0188,27.20155 -48.802,42.758 -81.7461,54.17773 -2.8858,1.006 -4.3458,0.85833 -6.0722,-0.60937 -18.4025,-13.7587 -20.0231,-25.47947 -60.2207,-13.7168 -10.35821,2.83448 -19.11711,10.07985 -27.25391,17.5586 -8.3021,8.0212 -9.1206,8.5185 -8.4727,5.1289 1.0775,-5.6365 -3.8739,-10.1286 -10.0586,-9.125 -4.1812,0.6785 -5.2457,0.14733 -10.5801,-5.26367 -6.1222,-6.2101 -10.6348,-14.29974 -12.3222,-22.08984 -0.5326,-2.4588 -3.9429,-11.75812 -7.5762,-20.66602 -3.6333,-8.9079 -7.839,-20.09658 -9.3457,-24.86328 -3.0139,-9.5346 -13.0844,-34.7385 -15.9824,-40 -4.3564,-7.9091 -11.7362,-18.25745 -15.2871,-21.43555 -5.699,-5.1007 -13.4689,-7.09586 -23.4121,-6.00976 -8.9665,0.9794 -11.5226,1.59522 -24.9629,6.01172 -8.2809,2.6972 -14.1645,2.59832 -22.1309,10.36718 -5.1334,3.4391 -10.5287,7.78636 -11.9902,9.66016 -1.4616,1.8738 -4.2995,5.20625 -6.3067,7.40625 -7.41209,8.1241 -11.64369,13.41801 -13.31829,16.66602 -0.9452,1.8333 -4.2762,7.71435 -7.4024,13.06835 -4.9905,8.5466 -9.0877,16.08658 -17.9902,33.10938 -5.5347,9.7099 -14.9293,17.66687 -23.1738,24.55859 -15.1724,10.45597 -11.3734,21.09905 -8.0894,27.40463 4.6405,8.04138 12.2606,13.02437 19.7964,14.93717 8.4368,2.1414 14.5985,-0.30899 26.3828,-10.49219 5.7729,-4.9885 10.8254,-8.73913 11.2285,-8.33593 -3.9033,12.8211 1.1061,19.77712 7.9885,24.77539 4.97719,3.1747 14.71679,6.56031 18.87499,6.57031 3.8004,0.005 4.0053,0.28958 4.1231,5.70508 0.077,3.5614 1.2178,7.23416 3.0371,9.78906 3.422,4.8058 14.8633,11.66126 21.5058,12.88476 6.2412,1.1496 16.4586,-1.28374 22.4278,-5.33984 5.8118,-3.9493 6.9062,-4.08069 6.9062,-0.83789 0,7.4584 9.3641,17.41338 18.8887,20.08008 8.6437,2.4201 14.8822,0.34714 23.8027,-7.91016 l 7.3086,-6.76562 2.7207,3.15039 c 1.4968,1.7325 3.5961,3.59356 4.666,4.13476 1.0699,0.5411 4.0466,2.09739 6.6133,3.45899 4.1746,2.2147 4.9045,2.26354 6.9199,0.46484 3.0059,-2.6824 2.1159,-9.13183 -1.8437,-13.36133 -2.7036,-2.8878 -3.0415,-4.46777 -2.7871,-13.04297 0.2676,-9.0197 0.044,-9.91675 -2.9532,-11.88085 -1.7834,-1.1686 -4.4432,-2.125 -5.9101,-2.125 -3.6717,0.29209 -18.8067,17.46951 -24.3047,21.58593 -4.1494,4.2616 -8.2371,7.74805 -9.0859,7.74805 -3.3414,0 -6.5254,-2.83068 -7.336,-6.52148 -0.947,-4.3118 2.4829,-17.80317 5.2227,-20.54297 2.2423,-2.2423 6.0781,-9.66618 6.0781,-11.76368 0,-5.7537 -13.6315,-9.42213 -15.6328,-4.20703 -0.9424,2.4559 -8.9265,10.42239 -15.6231,15.58789 -9.3143,7.20849 -20.8783,18.80873 -30.7714,10.44727 -2.9271,-3.0955 -3.3422,-4.47921 -2.67,-8.87891 0.4379,-2.8664 1.6274,-6.76571 2.6426,-8.66601 1.0152,-1.9003 2.1878,-4.35508 2.6074,-5.45508 19.6135,-17.12983 22.8442,-34.19644 3.4473,-26.27734 -5.581,3.90347 -10.4479,9.27362 -16.668,13.16015 -2.2,2.2785 -7.2228,5.58792 -11.164,7.35352 -6.784,3.0391 -7.3004,3.08834 -9.6836,0.93164 -4.1723,-3.7759 -2.0648,-13.40467 6.9863,-31.91797 5.5363,-11.36746 11.5062,-35.1836 -13.3867,-17.56836 -12.11739,8.57475 -20.15689,17.56373 -30.33989,26.47852 -15.877,13.997 -19.8847,15.30174 -23.7929,7.74414 -2.7991,-5.413 -2.5236,-9.23828 0.6679,-9.23828 1.4412,0 4.7273,-1.84793 7.3008,-4.10743 5.9242,-5.2016 25.0184,-33.88493 33.8418,-50.83593 8.6473,-16.6127 15.41949,-25.81354 28.78909,-39.11524 7.5263,-7.4881 13.3993,-11.98643 19.4492,-14.89453 10.1692,-4.8881 24.0073,-9.26886 33.082,-10.47266 6.0628,-0.8043 6.6556,-0.60405 10.002,3.37305 9.31,11.33424 13.5705,25.53146 18.8398,39.05274 1.29,4.5833 2.9411,9.83466 3.67,11.66796 0.7289,1.8334 2.2285,6.03204 3.332,9.33204 1.1034,3.3 2.7797,7.8 3.7265,10 4.0829,9.55032 6.5843,22.27706 12.5079,33.20312 3.5408,9.8431 10.4669,21.67034 13.5586,23.15234 0.4059,0.1947 4.0102,2.51797 8.0097,5.16407 5.8116,3.845 8.9434,4.94909 15.6035,5.49609 4.5833,0.3763 8.334,0.91256 8.334,1.19336 0,0.2809 -1.5004,2.88837 -3.334,5.79297 -5.2212,8.2709 -7.0136,14.26383 -8.7773,29.33203 -1.833,15.6603 -1.8736,18.48549 -0.5508,39.43359 0.9176,14.5319 0.8726,14.87623 -2.8691,21.73633 -7.6586,14.0415 -12.1117,20.48104 -20.2832,29.33594 -6.016,6.5193 -9.3969,9.06653 -20.5196,15.45703 -8.7065,5.0022 -37.4448,6.48666 -53.3398,2.75586 -8.5194,-1.9997 -19.5161,-7.02108 -23.4414,-10.70508 -0.9798,-0.9196 -1.9609,-4.59848 -2.1797,-8.17578 -0.5944,-9.717 -4.9852,-16.53039 -16.7344,-25.96289 -7.8371,-6.2918 -10.372,-7.45441 -15.9707,-7.32031 -6.05969,0.1451 -6.99699,4.3273 -2.07419,9.25 4.09329,4.1477 8.11319,10.25051 14.63479,13.0332 4.0918,3.34697 -8.2463,2.0515 -22.56059,3.125 -4.4,0.33 -9.5007,0.95392 -11.334,1.38672 -1.8333,0.4328 -4.6019,1.0532 -6.1543,1.37891 -7.5723,1.58879 -17.8457,8.03867 -17.8457,11.20507 0,0.8288 -0.9072,4.3631 0.7403,6.7168 2.2946,3.28065 5.1323,5.35247 9.5176,1.77734 4.8618,-3.2862 16.1603,-7.15553 20.4101,-6.99023 1.8333,0.0712 6.8401,-0.8573 11.127,-2.0625 8.40409,-2.3626 15.69879,-2.29762 16.49999,0.14648 0.2902,0.8853 -1.6171,1.8231 -4.5645,2.2461 -8.0813,1.1596 -16.69239,2.97668 -21.73049,4.58398 -2.5667,0.8189 -9.7667,2.9257 -16,4.6836 -6.5468,1.84621 -12.3976,0.26349 -10.9511,7.72851 0.6803,7.55571 6.4749,8.35853 14.2285,6.73828 1.343,-0.998 8.2459,-2.98639 25.70309,-7.40039 7.5825,-2.11206 32.4893,-6.53834 35.9375,-2.6582 0.3131,0.9226 -2.0465,1.40203 -6.5469,1.33203 -18.5865,1.70248 -32.95519,7.20143 -47.91789,15.67969 -5.8398,3.3053 -6.1205,3.71695 -4.6661,6.81445 0.8512,1.8128 2.8961,4.0196 4.545,4.9043 3.1936,1.7133 5.1348,1.30227 18.33589,-3.89063 27.8701,-10.9632 28.8188,-11.21454 39.0527,-10.27344 10.4888,0.9646 13.6133,-0.17852 13.6133,-4.98242 0,-1.7531 0.6462,-2.39735 1.916,-1.91015 10.8091,4.1479 46.3946,5.63042 58.084,2.41992 14.3723,-3.9473 21.0048,-7.88224 32.4844,-19.27344 5.7666,-5.7222 10.6253,-10.2222 10.7969,-10 0.3465,0.4485 -1.2644,18.66021 -2.7481,31.07031 -1.3346,11.1625 -1.1926,18.79573 0.5078,27.33204 0.8034,4.03329 1.827,13.26818 2.2735,20.52148 0.4465,7.2532 1.6321,14.77409 2.6347,16.71289 2.4064,4.6535 4.0363,14.04679 5.4532,31.43359 0.8923,10.9495 4.5453,48.44742 5.9101,60.66602 0.6143,5.5 1.7946,16.59931 2.6231,24.66602 4.2699,41.57554 5.0435,47.08754 9.7304,69.33404 4.5945,21.8082 6.6104,35.6089 5.3692,36.7422 -0.5694,0.52 -5.5352,4.6569 -11.0352,9.1933 -14.8665,12.2619 -29.334,26.8246 -29.334,29.5274 0,1.3094 -0.5425,2.7162 -1.207,3.1269 -1.9851,1.2269 0.039,6.2228 2.959,7.3028 1.6447,0.6085 4.3292,0.2176 6.8144,-0.9942 4.1214,-2.0096 15.7031,-11.003 19.4336,-15.0898 3.0581,-3.3501 26.46851,-21.1426 27.81841,-21.1426 4.1052,0 5.8037,-8.3275 3.0664,-15.0332 -0.8308,-2.0351 -2.1719,-7.7345 -2.9805,-12.666 -2.1554,-13.1455 -2.2392,-13.6376 -3.73431,-21.6328 -0.7542,-4.0333 -2.0083,-9.4333 -2.7852,-12 -2.2144,-7.3156 -6.9071,-42.00714 -8.748,-64.66804 -2.851,-34.08595 -8.0303,-66.08047 -11.334,-100.61329 -1.4332,-7.6711 -2.1346,-14.41814 -1.5586,-14.99414 0.5759,-0.5759 4.5118,0.17126 8.748,1.66016 9.8591,3.4652 16.71251,4.08589 27.50981,2.49219 13.6436,-2.0139 31.2911,-8.47837 34.8476,-12.76368 3.128,-3.76899 5.9343,-0.0127 3.9297,5.25977 -1.1439,3.0087 -2.0789,17.67077 -3.4629,54.29297 -0.4018,10.6333 -1.0268,21.4333 -1.3886,24 -0.3619,2.5667 -0.9742,15.76738 -1.3614,29.33398 -0.3871,13.5667 -0.864,26.1667 -1.0585,28 -0.1945,1.8334 -0.8091,11.13272 -1.3672,20.66602 -0.5582,9.53326 -1.2602,19.43336 -1.5606,22.00006 -0.3003,2.5667 -0.582,17.1879 -0.625,32.4922 -0.076,26.882 0.026,27.9806 2.9844,32.375 4.0995,5.4296 35.9748,11.8076 45.7285,15.6347 6.6,2.045 14.0994,4.3429 16.666,5.1055 2.5667,0.7626 5.709,1.9133 6.9824,2.5566 5.2787,2.5621 17.5962,4.9078 18.3438,-2.498 -0.012,-5.1383 -4.6119,-11.647 -8.3047,-11.7539 -3.1756,-0.092 -7.878,-1.3133 -12.3535,-3.209 -4.1326,-1.7504 -25.1514,-8.053 -26.8379,-8.043 -0.8271,0 -3.8264,-1.0012 -6.666,-2.2324 -2.8395,-1.2312 -5.7628,-2.3308 -6.4961,-2.4434 -6.2289,-0.9566 -10.3756,-2.7653 -11.1524,-4.8652 -1.5446,-4.1753 -1.729,-51.2384 -0.2793,-71.11916 2.8643,-39.2779 4.0066,-61.02762 4.7618,-90.66602 0.4297,-16.8666 1.4339,-39.3666 2.2324,-50 0.9218,-12.39466 3.5479,-29.62702 2.3047,-42.91406 -1.1797,-2.2043 -0.9188,-3.47829 1.334,-6.52539 1.5396,-2.0824 2.7988,-4.12506 2.7988,-4.53906 0,-0.414 2.1592,-3.8884 4.7988,-7.72071 9.1476,-13.2807 17.246,-34.1137 21.3106,-54.8164 2.0626,-10.5054 2.5271,-11.56379 4.0879,-9.33399 8.6036,12.2913 18.0995,22.19355 25.8027,26.90625 16.7341,15.15229 22.7656,0.86659 36.666,-9.63671 8.7904,-7.4574 11.1003,-10.01827 20.2754,-22.47657 9.5745,-13.0007 8.2669,-12.23004 21.6328,-12.74414 6.6771,-0.2568 13.1789,-0.0606 14.4492,0.43555 1.2703,0.4961 6.7749,0.95739 12.2325,1.02539 8.0596,0.1001 10.1884,-0.31079 11.3339,-2.18359 4.3311,-7.38698 -16.9415,-10.21608 -19.2578,-12.82032 0,-1.8392 13.9275,-3.54432 21.836,-2.67382 12.3048,1.3544 13.9519,-4.95233 2.7539,-10.54493 -4.7907,-2.3926 -8.1666,-2.99611 -16.3047,-2.91211 l -10.2656,0.10547 4.3574,-2.64843 c 2.3956,-1.4569 4.8639,-2.65039 5.4863,-2.65039 0.6223,0 3.8142,-1.18602 7.0938,-2.63672 3.2795,-1.4507 8.8611,-2.98506 12.4023,-3.41016 8.0957,-0.9718 11.3086,-2.66795 11.3086,-5.96875 -0.5735,-10.60376 -20.8453,-8.0693 -28,-5.35156 -10.4286,2.2521 -19.6461,5.25776 -27.2324,8.88086 -3.6105,1.7244 -6.8335,2.86776 -7.1621,2.53906 -0.8169,-0.8169 5.745,-11.85418 8.3164,-13.98828 1.1423,-0.9479 2.0781,-2.65326 2.0781,-3.78906 0,-2.8036 -3.9278,-6.9483 -6.541,-6.9043 -3.6484,0.0619 -14.5884,10.98149 -17.9961,17.96289 -5.9717,12.2346 -6.8262,19.21428 -3.3731,27.55078 1.4943,3.6076 1.3017,4.2723 -2.3789,8.1875 -2.2032,2.3437 -7.1733,8.4624 -11.0429,13.5957 -11.4313,15.1648 -22.4112,25.52974 -33.0274,31.17774 -4.1181,2.1909 -8.3917,-0.54383 -16.9746,-10.86133 -10.6749,-12.8321 -16.4763,-18.59233 -17.8613,-17.73633 -0.8034,0.4966 -1.3032,-5.15399 -1.3242,-14.96679 -0.019,-8.67 -0.3981,-16.71662 -0.8457,-17.88282 -0.5014,-1.3069 0.2523,-2.86941 1.9668,-4.07031 1.53,-1.0717 4.558,-4.62945 6.7285,-7.90625 2.1704,-3.2768 5.1645,-7.06 6.6543,-8.4082 2.6351,-2.3847 2.7905,-2.37652 5.6953,0.33398 4.4678,4.1688 16.1764,9.65235 20.6094,9.65235 10.9008,0 22.2433,-7.66615 23.9472,-16.18555 0.7109,-3.5543 1.1937,-3.81445 7.0996,-3.81445 7.7672,0 14.0719,-2.62284 19.2793,-8.02344 4.4049,-4.5683 8.7476,-13.01364 7.8692,-15.30274 -0.3148,-0.8203 2.3026,-2.7909 5.8164,-4.3789 8.1697,-3.6922 14.2139,-12.22518 13.0722,-18.45508 -0.7021,-3.8308 -0.4268,-4.22831 3.4707,-5.00781 2.3285,-0.4657 6.8405,-2.98421 10.0274,-5.59571 5.1803,-4.2448 5.7949,-5.34604 5.7949,-10.40234 0,-3.1107 -0.8804,-6.82064 -1.957,-8.24414 -2.7583,-3.6467 -2.6058,-6.42539 0.291,-5.30469 6.7217,2.6004 9.2473,2.2813 13.6289,-1.7207 4.1092,-3.7532 4.3544,-4.45886 3.7461,-10.78906 -0.3579,-3.7256 -0.2202,-6.77539 0.3066,-6.77539 5.8675,2.42032 8.7685,7.31331 16.1153,7.23632 4.1054,1.1935 8.4821,1.77954 9.7246,1.30274 4.6463,-1.7829 7.7107,-10.79959 7.6777,-22.58789 -0.037,-13.2541 -1.638,-19.7955 -7.6621,-31.3125 -12.2712,-23.46 -47.843,-51.24627 -64.8652,-50.66797 -1.1108,-0.1646 -2.2679,-0.23698 -3.459,-0.22266 z m 5.2285,15.94922 c 3.8703,-0.0536 7.8012,0.46892 10.7227,1.62891 9.6123,3.8167 26.5513,19.75654 33.3691,31.40234 6.6805,11.411 8.045,15.90427 8.5957,28.32227 0.3951,8.9106 0.1011,11.20141 -1.5117,11.82031 -3.0212,1.1594 -9.7515,-1.93199 -18.2871,-8.39649 -4.2176,-3.1943 -9.1244,-5.80664 -10.9043,-5.80664 -3.673,0 -7.4278,3.17064 -7.4278,6.27344 0,3.2737 2.9814,12.79095 4.9141,15.68945 1.8899,2.8342 2.3943,8.70313 0.748,8.70313 -0.5531,0 -4.6124,-2.9533 -9.0195,-6.5625 -9.3932,-7.6927 -13.9282,-9.29445 -17.1621,-6.06055 -2.5984,2.5984 -1.979,5.74083 2.502,12.70313 3.9081,6.0722 8.6855,16.5419 8.6855,19.0332 0,2.6783 -4.1119,7.16215 -7.4531,8.12695 -2.0231,0.5842 -4.3999,-0.5979 -8.668,-4.3125 -4.5145,-3.929 -6.6252,-4.93271 -9.0898,-4.32421 -5.6694,1.3997 -5.4811,5.10354 0.7734,15.24804 3.1737,5.1476 5.7695,9.86121 5.7695,10.47461 0,0.6134 -1.2746,2.84012 -2.8339,4.94922 -2.3413,3.1668 -4.148,3.98698 -10.3692,4.70898 -5.115,0.5937 -9.2991,0.26632 -13.0371,-1.02148 l -5.5059,-1.89648 -0.7968,3.99023 c -0.7383,3.6914 0.9683,7.83392 3.0058,7.29492 2.1017,-0.5559 10.8711,3.34504 10.8711,4.83594 0,2.0722 -6.128,7.67058 -11.1387,10.17578 -3.6495,1.8247 -3.9705,1.72039 -7.8007,-2.56641 -4.2116,-4.7136 -10.4669,-6.92256 -16.3965,-5.78906 -5.0556,0.9665 -5.3697,3.31606 -1.2735,9.50586 2.7211,4.1124 3.3619,6.30589 2.6641,9.11719 -1.453,5.8537 -5.8656,9.70312 -11.125,9.70312 -3.8403,0 -5.7777,-1.21998 -11.6523,-7.33398 -3.8754,-4.0333 -7.8482,-7.41086 -8.8282,-7.50586 -9.0308,-0.8713 -9.2886,-0.75632 -13.8281,6.10938 -6.448,9.7519 -9.4746,13.2537 -10.2949,11.9121 -0.3973,-0.6497 -1.4328,-3.88164 -2.3008,-7.18164 -1.4645,-5.5671 -4.4475,-13.14233 -11.0078,-27.95703 -3.2245,-7.2815 -2.4133,-8.86123 6.2363,-12.14453 8.9104,-3.45168 16.6094,-4.59311 32.92,-12.88476 1.9289,-1.2911 6.7303,-4.51773 10.6679,-7.16993 30.8907,-23.40967 73.849,-64.01957 62.7969,-98.56836 -1.5304,-8.2292 -0.9565,-11.56489 2.7969,-16.27539 1.0225,-1.2833 2.2668,-2.33398 2.7656,-2.33398 0.4988,0 2.5508,-1.21527 4.5605,-2.70117 2.4964,-1.84562 7.3716,-2.86669 12.3477,-2.93555 z m -186.8086,0.0488 c -2.9364,0.0572 -7.1754,1.73858 -12.2422,4.94726 -7.1084,4.5015 -8.304,6.40022 -6.3398,10.07032 1.6055,3 7.3911,3.42036 12.1289,0.88086 10.0651,-5.3951 13.1039,-9.62237 10.2285,-14.22657 -0.7219,-1.15597 -2.0136,-1.70619 -3.7754,-1.67187 z m 48.3359,42.04297 c -1.3639,-0.005 -4.2191,1.14265 -6.8457,2.80078 -15.9947,10.097 -31.8993,13.22447 -46.0117,9.04687 -9.9439,-2.9436 -17.2692,-2.90253 -17.8613,0.10157 -0.6116,3.1025 8.2851,11.59018 12.1777,11.61718 1.5977,0.0112 3.6173,0.47355 4.4883,1.02735 2.6409,1.6792 23.9094,0.62185 31.3945,-1.56055 3.8617,-1.1259 9.8936,-3.87216 13.4024,-6.10156 4.5172,-2.84578 18.1185,-7.58772 9.7441,-16.85742 -0.129,-0.0495 -0.2934,-0.0736 -0.4883,-0.0742 z m -48.7285,86.85351 c 17.4769,-0.0713 30.925,15.83274 39.3164,37.10352 2.9005,7.4427 6.0847,15.34525 7.0743,17.56055 0.9896,2.2153 2.1179,6.72734 2.5078,10.02734 0.3899,3.3 1.6731,11.63614 2.8515,18.52344 1.9699,11.5161 1.9679,14.0878 -0.02,32 -1.1886,10.7127 -2.701,21.27656 -3.3613,23.47656 -5.2819,17.5977 -8.9454,27.7268 -12.2969,34 -15.808,29.5885 -29.5484,45.80891 -43.5547,51.41602 -6.3611,2.5466 -12.0322,3.67792 -20.7559,4.14062 -13.15731,0.6979 -16.14461,-0.36582 -23.53901,-8.38672 -7.2575,-7.8726 -10.4898,-27.49505 -7.7852,-47.24805 0.7693,-5.6187 1.4828,-19.42524 1.586,-30.68164 l 0.1875,-20.46679 7.1718,-15.38672 c 3.945,-8.4628 7.9878,-16.8874 8.9825,-18.7207 3.8002,-7.0045 11.2779,-31.49003 10.5117,-34.41993 -0.4651,-1.7783 0.032,-3.93206 1.2207,-5.28906 3.03491,-3.4636 6.32811,-10.49226 6.32811,-13.50586 0,-4.1334 -5.2995,-8.3057 -9.96481,-7.8457 -3.7531,0.3701 -4.1169,0.92345 -5.9668,9.06055 -1.0836,4.7666 -2.7421,9.46068 -3.6856,10.42968 -0.9436,0.9691 -1.7168,2.60512 -1.7168,3.63672 0,1.0315 -2.0994,6.36155 -4.666,11.84375 -2.5667,5.4822 -4.666,10.77964 -4.666,11.77344 0,0.9937 -0.8823,2.97298 -1.959,4.39648 -1.7747,2.3463 -1.962,1.59013 -2,-8.08007 -0.058,-14.6582 2.7709,-27.1267 7.8184,-34.4629 2.2771,-3.3097 4.1406,-6.56412 4.1406,-7.23242 0,-2.5811 17.09101,-17.40487 25.41411,-22.04297 7.3555,-4.099 10.398,-4.9841 19.123,-5.5625 0.5721,-0.0359 1.1394,-0.0543 1.7031,-0.0566 z" fill="#00B894" transform="translate(159.65008,92.039612) matrix(0.32912868,0,0,0.32912868,-200.29418,-213.76388)"/></svg>