<?xml version="1.0" ?><svg height="104.64049mm" viewBox="0 0 249.1067 104.64049" width="249.1067mm" xmlns="http://www.w3.org/2000/svg">
    <path d="m -488.6805,12071.293 c 31.7822,-49.396 71.0488,-65.796 94.804,-75.07 23.7552,-9.274 136.24,-36.413 179.1947,-43.051 42.9547,-6.638 131.7927,-8.688 161.08,7.712 29.2872,16.4 22.779,72.337 17.3554,116.754 -5.4236,44.417 -2.3863,96.547 15.0775,110.409 17.4639,13.862 46.6427,18.157 73.9775,12.983 27.3347,-5.174 64.4319,-25.967 86.4516,-48.712 22.0198,-22.746 64.215,-82.294 97.0819,-96.352 32.8669,-14.057 110.207,-22.062 142.8569,-17.278 32.6498,4.783 58.0322,16.205 60.7439,34.752 2.7117,18.548 -15.0774,36.706 -42.7377,47.444 -27.6603,10.738 -74.6283,22.648 -103.2648,60.329 -28.6364,37.682 -56.4052,72.63 -93.2854,95.766 -36.8802,23.136 -105.4341,51.836 -172.9033,42.562 -67.4692,-9.274 -119.9693,-26.162 -123.6573,-93.91 -3.6881,-67.749 14.1013,-124.564 12.2572,-137.255 -1.844,-12.69 -10.8471,-41.488 -52.717,-35.045 -41.87,6.443 -180.6049,49.103 -228.4408,49.591 -47.8358,0.488 -116.1728,-0.976 -123.8743,-31.629 z" fill="#FFFFFF" transform="translate(-115.8395,59.123814) matrix(0.26458333,0,0,0.26458333,246.36145,-3218.8851)"/>
    <path d="m 8.0422228,12335.553 c -29.0918298,-5.774 -76.7167198,-36.483 -92.8800098,-59.89 -15.811993,-22.899 -21.550043,-45.753 -16.996213,-67.688 3.242713,-15.619 6.132983,-16.304 8.800753,-2.083 5.93097,31.613 58.57272,82.734 99.1550698,96.287 17.0045602,5.679 24.2254002,6.624 51.3985402,6.715 37.701,0.133 48.597797,-3.34 83.162127,-26.461 28.29439,-18.926 70.81023,-63.468 118.79836,-124.462 30.34776,-38.571 78.03506,-71.7 125.56701,-87.228 7.15521,-2.337 6.72291,-2.582 -7.58751,-4.276 -20.50183,-2.428 -77.34156,2.724 -92.1537,8.352 -15.1276,5.748 -36.79373,21.718 -50.3359,37.103 -5.79458,6.583 -16.50872,23.419 -23.80866,37.412 -22.92812,43.951 -49.8615,65.249 -108.31794,85.652 -23.565087,8.225 -24.324027,8.316 -69.350957,8.253 -42.1929902,-0.06 -46.49264,-0.495 -58.74495,-5.977 -22.51916,-10.074 -39.51802,-32.493 -47.6175,-62.801 -5.02691,-18.812 -2.96747,-50.996 5.41597,-84.632 10.28562,-41.268 7.69885,-60.931 -10.5878,-80.48 -13.38418,-14.31 -31.837003,-23.14 -61.713773,-29.537 -29.31358,-6.274 -108.69997,-6.172 -156.80856,0.202 -36.26734,4.804 -95.61854,18.799 -109.35458,25.788 -13.03155,6.627 -40.23941,29.767 -55.12003,46.875 l -13.62375,15.665 10.61872,-1.7 c 15.64487,-2.5 37.51492,-11.267 46.06869,-18.464 9.69589,-8.159 18.68462,-7.229 19.75731,2.041 1.37808,11.91 -16.9431,23.88 -47.56723,31.076 l -13.91056,3.271 9.84328,1.946 c 14.83964,2.932 98.48339,-0.328 122.93812,-4.792 11.82399,-2.158 30.92459,-6.754 42.44622,-10.214 11.52144,-3.462 42.25085,-11.017 68.28739,-16.792 37.78939,-8.38 53.9726,-10.736 80.21874,-11.673 29.59508,-1.058 33.66578,-0.675 40.753843,3.82 15.42028,9.781 22.53073,35.791 16.10695,58.917 -1.40065,5.042 -4.81048,21.49 -7.57745,36.551 -5.6195,30.586 -8.81991,36.923 -11.48142,22.736 -1.75366,-9.348 0.0474,-56.312 2.94623,-76.8 2.31191,-16.344 -2.81819,-20.752 -24.068343,-20.69 -34.78361,0.09 -99.91345,12.011 -158.23787,28.935 -12.47784,3.619 -32.96411,8.265 -45.52505,10.321 -33.64073,5.509 -95.10581,7.588 -116.11903,3.929 -30.36938,-5.291 -58.07782,-23.133 -53.68788,-34.573 3.29962,-8.598 26.2414,-38.402 39.47932,-51.288 20.6735,-20.122 40.94371,-32.355 67.94917,-41.004 25.68751,-8.229 70.96217,-18.504 93.91761,-21.314 7.65067,-0.937 22.60053,-4.395 33.2219,-7.682 29.88853,-9.253 59.51623,-12.409 117.26362,-12.491 43.658343,-0.06 56.374813,0.759 71.439053,4.619 21.55535,5.524 38.16706,17.011 45.09256,31.183 6.5558,13.414 7.7882,46.147 2.62414,69.693 -2.21442,10.097 -5.81924,30.596 -8.01051,45.557 -3.67653,25.098 -3.65699,28.81 0.25437,48.054 5.97649,29.405 15.4677,52.228 22.2915298,53.603 2.97734,0.6 16.91483,1.77 30.9722102,2.599 22.84447,1.347 27.32299,0.867 42.16359,-4.52 37.556457,-13.631 66.418577,-36.946 107.584797,-86.904 32.24292,-39.13 46.1328,-48.755 92.78459,-64.306 24.95835,-8.317 25.90831,-8.429 72.08133,-8.517 50.56846,-0.09 72.16346,3.329 92.31953,14.635 12.7915,7.176 20.6867,25.507 16.4779,38.258 -5.9736,18.102 -32.89788,35.449 -77.10744,49.683 -25.38041,8.174 -28.90689,10.429 -64.35478,41.194 -17.37483,15.079 -27.08817,26.156 -39.91959,45.525 -25.64938,38.718 -54.81367,64.788 -82.69397,73.926 -7.10115,2.327 -16.10373,6.468 -20.00522,9.203 -12.97616,9.098 -40.84508,21.452 -60.65284,26.885 -15.568417,4.271 -26.148817,5.311 -51.784927,5.091 -17.72006,-0.152 -36.84266,-1.195 -42.4946002,-2.316 z M 247.28793,12223.571 c 8.33145,-11.941 23.24641,-28.89 33.1445,-37.663 9.89828,-8.773 26.30399,-23.493 36.45722,-32.708 13.84758,-12.57 23.40632,-18.777 38.2509,-24.841 47.90279,-19.566 71.01224,-32.507 76.55874,-42.872 3.8161,-7.13 -1.2429,-21.685 -8.7219,-25.093 -5.756,-2.622 -6.31504,-2.352 -6.31504,3.05 0,11.489 -10.02841,19.375 -47.05659,37.002 -53.2552,25.354 -69.85022,39.046 -96.50097,79.627 -9.13535,13.91 -24.48469,35.95 -34.11001,48.978 -9.62494,13.027 -15.10483,22.007 -12.17738,19.957 2.92745,-2.049 12.13925,-13.497 20.47053,-25.437 z m -176.188387,-13.123 c 31.260717,-6.622 76.653747,-26.943 93.782737,-41.984 4.94231,-4.338 17.60036,-20.823 28.12898,-36.634 25.19299,-37.831 52.6666,-62.117 84.54683,-74.737 17.85891,-7.07 8.13021,-5.499 -16.1576,2.61 -38.0392,12.7 -49.75602,21.716 -92.59661,71.245 -30.22029,34.941 -68.12805,62.578 -100.689837,73.415 -13.94527,4.64 -19.75199,5.228 -37.91876,3.83 -11.79857,-0.907 -24.4192602,-2.387 -28.0457102,-3.29 -5.84162,-1.454 -6.21075,-1.176 -3.23531,2.436 5.68475,6.903 46.0730602,8.642 72.1852802,3.109 z m -102.13545,-19.625 c -9.28787,-17.282 -15.3943,-38.905 -17.66486,-62.551 l -1.82574,-19.015 -0.32911,26.557 c -0.29174,23.557 0.40024,28.125 6.12881,40.466 5.13314,11.057 17.35263,27.821 20.27913,27.821 0.30142,0 -2.66321,-5.975 -6.58823,-13.278 z m 332.036937,-140.132 c -1.71231,-0.692 -5.12669,-0.734 -7.58751,-0.1 -2.46063,0.641 -1.05979,1.209 3.11334,1.26 4.17313,0.06 6.18667,-0.472 4.47417,-1.165 z m 81.51753,-0.87 c -2.78196,-1.196 -21.56104,-2.017 -41.7313,-1.825 l -36.67289,0.349 36.67289,1.476 c 20.17026,0.813 38.94934,1.635 41.7313,1.826 l 5.0584,0.347 z m -420.861997,-48.917 c -6.23048,-35.369 -37.51947,-47.638 -119.115543,-46.705 -21.56123,0.248 -32.94249,0.791 -25.29182,1.208 66.92847,3.652 98.943773,14.559 121.190533,41.291 11.96531,14.379 17.8684,27.45 17.89969,39.638 0,3.016 0.84696,7.568 1.8652,10.118 3.47869,8.706 6.34544,-29.123 3.45194,-45.55 z m -344.909353,28.343 c -9.83208,-5.501 -1.29253,-22.438 9.27023,-18.385 4.46107,1.711 7.67533,9.885 5.36019,13.631 -3.04486,4.927 -10.1794,7.246 -14.63042,4.754 z" fill="#00B894" transform="translate(-115.8395,59.123814) matrix(0.26458333,0,0,0.26458333,246.36145,-3218.8851)"/>
</svg>