<?xml version="1.0" ?><svg height="122.44312mm" viewBox="0 0 71.621567 122.44312" width="71.621567mm" xmlns="http://www.w3.org/2000/svg">
    <path d="m -9009.0251,-2599.9533 c 39.6563,-6.7785 51.2718,21.5605 67.8784,52.1863 16.6066,30.6257 69.0582,169.7892 69.5119,203.5183 0.4537,33.7292 -18.7845,52.6763 -18.7845,52.6763 0,0 8.9308,18.5863 -18.312,23.0117 -27.2428,4.4254 -100.6568,-9.0464 -111.3649,-22.1133 -10.7081,-13.067 -27.4054,-41.3244 -27.4054,-41.3244 0,0 -33.5762,22.5406 -31.6705,-13.6386 1.9056,-36.1793 26.4072,-77.5036 31.126,-89.4273 4.7188,-11.9236 12.0521,-65.7788 12.0521,-65.7788 0,0 -32.6516,-25.2817 -8.6037,-65.0544 24.0478,-39.7726 35.5726,-34.0558 35.5726,-34.0558 z" fill="#FFFFFF" transform="translate(-8.4401455,-36.848223) matrix(0.31922188,0,0,0.31922188,2909.363,875.55214)"/>
    <path d="m -8975.7308,-2247.5952 c -0.8948,-2.6509 -2.1218,-8.8079 -2.7229,-13.6824 -1.57,-12.7058 -9.4832,-13.7359 -10.8939,-1.4184 -1.6798,14.6536 -14.657,14.179 -19.0899,-0.6981 -1.7978,-6.0384 -8.3851,-14.3052 -14.6378,-18.3704 -6.2525,-4.0653 -16.5701,-16.0917 -22.9269,-26.7251 -6.3569,-10.6336 -12.6314,-17.6002 -13.9406,-15.4816 -4.2023,6.8018 -19.7596,4.2821 -24.143,-3.9107 -8.0449,-15.0306 5.6844,-78.528 22.8501,-105.6873 4.4521,-7.0447 11.0533,-24.1633 14.668,-38.0416 l 6.5737,-25.2323 -9.1181,-9.1186 c -5.0146,-5.0152 -9.1181,-10.3302 -9.1181,-11.8115 0,-1.4811 -6.5874,-3.746 -14.6405,-5.0336 -17.8326,-2.8518 -19.6854,-11.9639 -3.6587,-18.0133 8.8381,-3.336 10.9955,-6.3064 11.0586,-15.2357 0.1099,-14.9226 11.2864,-38.1666 24.1621,-50.2392 30.8099,-28.8906 79.7985,-27.8802 101.1747,2.0871 6.4912,9.1024 8.2123,16.6824 8.4098,37.0605 0.2196,22.3394 1.7458,27.9596 11.9618,43.9162 36.7989,57.4898 55.6774,113.6441 56.5969,168.3452 0.5626,33.455 -3.8344,48.9841 -16.9517,59.8709 -2.9451,2.4437 -4.5672,7.4515 -3.6039,11.1286 1.1309,4.3291 -1.9048,9.5792 -8.613,14.8942 -9.0384,7.1613 -13.485,7.9892 -34.8694,6.4908 -24.2088,-1.6963 -24.5217,-1.6001 -25.6168,7.8443 -0.8564,7.3749 -3.4173,9.827 -11.196,10.7218 -5.9533,0.6846 -10.7512,-0.8135 -11.7145,-3.6598 z m 66.9995,-28.9655 c 13.6058,-4.7427 15.1675,-10.6212 2.8244,-10.6212 -4.7841,0 -10.2928,-2.0585 -12.2389,-4.5746 -10.6249,-13.729 -19.0294,-80.6751 -16.6552,-132.6633 2.9506,-64.6808 11.3276,-52.9173 11.7256,16.4685 0.247,40.5797 7.7759,103.8938 12.9992,109.1174 1.0568,1.0568 5.9644,-1.8768 10.9049,-6.5193 11.9892,-11.2629 14.9864,-33.7194 9.6205,-72.0793 -5.5884,-39.9464 -15.5437,-71.9668 -35.4185,-113.9043 l -16.1035,-33.9801 -10.087,7.1386 c -12.4941,8.8392 -26.5583,13.1916 -26.5583,8.2186 0,-2.0297 1.6029,-4.6804 3.56,-5.8909 1.9597,-1.2101 5.344,-8.8251 7.5261,-16.9225 7.3285,-27.2255 -7.0101,-50.8428 -30.8703,-50.8428 -8.2672,0 -15.1813,4.5053 -29.1411,18.9877 -10.2819,10.6681 -16.4027,19.6215 -13.9653,20.4331 5.9204,1.9738 5.4428,8.1857 -1.1967,15.521 -4.9818,5.5044 -4.6333,7.081 3.4857,15.8417 4.9598,5.3512 14.1629,5.0445 18.7878,5.2081 8.3935,0.2965 7.0295,5.1221 -2.1023,9.3929 -7.8665,3.6785 -9.3157,7.0969 -10.3395,24.406 -0.6533,11.0703 -2.6789,30.8326 -4.5014,43.9161 -6.2801,45.0967 -4.3368,83.9764 5.2095,104.3008 10.6222,22.6152 19.5372,30.7995 36.5602,33.5619 10.1584,1.6482 13.7238,0.7688 15.4832,-3.8161 3.6999,-9.6382 15.9196,-6.9508 22.7184,4.9957 9.3239,16.3825 26.8026,21.6167 47.7725,14.3063 z m -102.8379,-179.2598 c -3.5243,-2.0514 -6.4063,-5.0058 -6.4063,-6.5654 0,-2.7865 58.4826,-3.65 58.5321,-0.864 0.1646,9.5735 -38.8878,15.1406 -52.1258,7.4294 z m 8.2727,-92.9819 c -5.9918,-7.2188 -2.0805,-16.5153 6.9498,-16.5153 9.0576,0 12.4556,5.2634 9.4693,14.6714 -2.7364,8.624 -10.1061,9.4515 -16.4191,1.8439 z m -56.8303,182.3355 c 0.082,-32.5405 -3.785,-33.1968 -7.3999,-1.2593 -1.257,11.0876 -3.1317,23.1932 -4.1665,26.9003 -1.4053,5.0344 -0.1921,6.4147 4.8088,5.4521 5.8217,-1.1209 6.7,-5.1607 6.7576,-31.0931 z" fill="#00B894" transform="translate(-8.4401455,-36.848223) matrix(0.31922188,0,0,0.31922188,2909.363,875.55214)"/>
</svg>