<?xml version="1.0" ?><svg height="109.30038mm" viewBox="0 0 110.04777 109.30038" width="110.04777mm" xmlns="http://www.w3.org/2000/svg">
    <path d="m 46287.114,2227.2439 c 0,0 -40.351,-13.9322 -27.106,-28.8704 13.246,-14.9381 41.916,14.4352 41.916,14.4352 0,0 17.493,-14.3848 37.556,-10.7635 20.064,3.6214 31.689,15.6926 31.689,15.6926 0,0 35.544,-22.4324 44.542,-12.2221 8.998,10.2103 -34.986,27.6633 -34.986,27.6633 0,0 -2.626,49.4418 -10.674,56.4331 -8.048,6.9912 1.285,11.87 23.808,11.0653 22.523,-0.8048 136.757,-10.4618 136.757,-10.4618 0,0 16.99,-31.6367 22.076,-32.6929 5.085,-1.0563 17.828,18.1571 7.544,33.6485 -10.283,15.4915 -8.494,13.0269 -10.339,28.2669 -1.844,15.2399 2.571,51.4034 -49.46,68.9067 -52.032,17.5033 -104.901,15.7932 -126.921,-13.7813 -22.02,-29.5746 -14.084,-69.46 -14.084,-69.46 0,0 -63.097,36.3143 -81.651,15.9441 -18.555,-20.3702 9.333,-93.8037 9.333,-93.8037 z" fill="#FFFFFF" transform="translate(-189.90467,-38.331956) matrix(0.34233768,0,0,0.34233768,-15644.365,-702.56315)"/>
    <path d="m 46406.171,2473.8514 c -3.232,-7.7315 -3.637,-15.0518 -2.188,-39.3174 l 1.778,-29.8174 -6.638,-3.0244 c -4.815,-2.194 -7.403,-2.2598 -9.422,-0.2395 -1.602,1.6015 -3.346,17.4354 -4.1,37.2629 -1.235,32.3339 -1.634,34.4779 -6.391,34.4779 -8.819,0 -11.815,-7.4543 -11.902,-29.6137 -0.06,-13.604 1.616,-26.1815 4.862,-36.6035 l 4.94,-15.8782 -10.81,-12.0248 c -13.526,-15.0436 -17.844,-28.5905 -15.512,-48.6688 l 1.751,-15.1005 -9.797,6.3012 c -33.866,10.4868 -49.464,15.5768 -68.615,3.3341 -12.242,-7.826 -7.83,-54.2206 -0.863,-72.9987 4.609,-12.4224 7.642,-20.9411 7.642,-21.4361 0,-0.4951 -2.076,-2.9894 -7.691,-5.2353 -19.626,-7.8523 -25.952,-24.0508 -13.286,-34.014 9.976,-7.8481 22.424,-5.4343 32.381,6.2787 l 7.618,8.9636 7.524,-4.5634 c 6.825,-4.1366 6.938,-6.5957 8.139,-17.1933 0.864,-7.6213 0.646,-11.449 3.41,-16.3229 3.15,-5.5542 5.733,-5.2227 10.212,-1.1725 3.033,2.7424 5.019,8.5475 5.508,16.0792 0.751,11.5978 0.899,11.785 9.531,11.785 7.848,0 8.947,-0.8657 10.469,-8.2381 2.091,-10.132 6.621,-15.888 12.507,-15.888 7.401,0 10.831,6.9281 10.7,21.6141 -0.07,7.667 0.228,13.9402 0.659,13.9402 0.429,0 5.765,-2.2608 11.854,-5.0235 13.419,-6.089 22.053,-6.4344 29.552,-1.1816 13.244,9.2752 0.655,24.2519 -18.403,27.7915 -14.479,2.6891 -9.728,4.8839 -9.588,19.7057 0.177,18.834 0.979,20.3026 -6.632,32.5485 -4.394,7.0634 -7.985,13.4956 -7.985,14.2939 0,2.5646 38.713,-1.8836 59.683,-6.8577 44.804,-10.6287 62.696,-11.8749 87.973,-6.1277 6.258,1.4227 7.085,0.5245 12.254,-13.2898 6.57,-17.5587 9.268,-21.2261 15.611,-21.2261 6.715,0 19.637,14.3852 21.411,23.8362 1.837,9.7929 -1.223,18.2774 -10.618,29.4422 -6.513,7.7415 -7.115,10.0666 -6.368,24.6088 1.03,20.0276 -5.081,33.9419 -21.588,49.1584 l -11.544,10.6387 3.947,15.7106 c 5.529,22.002 7.814,54.5274 4.442,63.1693 -3.023,7.7419 -9.429,11.4913 -13.196,7.7225 -1.327,-1.3253 -2.977,-14.9053 -3.665,-30.177 -1.9,-42.0008 -5.305,-51.5338 -15.956,-44.6646 -2.718,1.754 -2.754,7.0408 -0.189,29.1153 3.996,34.3861 0.121,45.6446 -12.919,37.4055 -2.899,-1.8329 -3.765,-8.6034 -3.881,-30.2937 -0.07,-15.3635 -0.825,-28.6142 -1.659,-29.4464 -20.724,4.3069 -40.72,6.6629 -60.906,3.5047 l 1.463,34.6168 c 0.734,17.3648 1.062,33.8628 0.172,36.691 -2.75,8.668 -11.219,6.3144 -15.678,-4.3579 z m 86.486,-88.571 12.054,-4.1071 -1.717,-10.4956 c -0.943,-5.7725 -1.879,-11.5704 -2.076,-12.8842 -0.201,-1.3139 1.7,-2.8383 4.222,-3.3877 3.241,-0.7063 5.45,1.2953 7.54,6.8331 1.626,4.3074 4.286,7.8319 5.912,7.8319 5.245,0 20.935,-19.6903 24.092,-30.2334 4.259,-14.2096 -2.027,-30.816 -14.606,-38.5902 -8.118,-5.0169 -11.258,-5.3991 -33.479,-4.0741 -13.484,0.8043 -35.947,3.9265 -49.913,6.9388 -24.565,5.2973 -35.086,5.4795 -59.875,1.0364 -12.083,-2.1656 -16.751,2.7699 -18.901,19.9843 -3.227,25.8211 6.086,41.9814 31.723,55.062 10.586,5.3995 11.141,5.1696 13.734,-5.6796 2.825,-11.816 9.193,-8.7377 9.193,4.4444 v 11.4281 h 30.019 c 20.994,0 33.65,-1.2353 42.078,-4.1071 z m -175.075,-73.1352 c 9.556,-3.9921 14.089,-10.548 14.089,-20.3646 0,-7.7005 4.975,-8.7386 6.884,-1.4366 1.936,7.4029 4.19,6.4254 16.094,-6.984 14.02,-15.7949 18.52,-26.6521 16.537,-39.8941 -2.694,-17.9536 -9.163,-25.4882 -27.083,-31.5398 -20.931,-7.0683 -26.315,-4.9102 -35.41,3.5555 -26.625,24.7816 -29.596,61.4834 -31.216,75.1552 -2.187,18.4846 2.166,25.1028 18.782,25.1028 6.996,0 16.592,-1.6175 21.323,-3.5944 z m -34.161,-12.9129 c 0,-4.289 1.165,-6.3842 3.175,-5.714 1.745,0.5821 3.174,3.1533 3.174,5.714 0,2.5609 -1.429,5.132 -3.174,5.7141 -2.01,0.6701 -3.175,-1.4249 -3.175,-5.7141 z m 11.653,4.1726 c -2.305,-3.7282 1.121,-10.5215 5.303,-10.5215 2.367,0 3.421,1.9986 2.903,5.5153 -0.879,5.9728 -5.766,8.9542 -8.206,5.0062 z m 9.88,-38.5409 c -4.14,-4.139 -4.423,-10.6428 0.348,-15.4148 5.531,-5.5309 8.615,-0.3572 10.293,4.2929 4.038,11.1892 -3.521,18.2434 -10.641,11.1219 z m 22.518,-0.5554 c -4.457,-5.3713 -2.018,-15.2543 3.969,-15.2543 3.881,0 8.666,2.7781 8.666,8.4753 0,8.4554 -8.028,12.3294 -12.635,6.779 z m 228.026,19.2466 c 2.927,-5.0621 3.495,-8.9122 1.927,-13.0563 -2.12,-5.5947 -7.348,-5.651 -7.348,-0.078 0,1.4479 -2.392,5.9919 -5.317,10.0979 -4.29,6.026 -4.715,8.1887 -2.2,11.2167 3.631,4.3774 6.857,2.3393 12.938,-8.1792 z m -153.987,-68.1251 c 4.884,-4.0173 4.741,-4.1202 -3.728,-2.6781 -10.052,1.7107 -14.124,4.7927 -11.641,8.8088 1.848,2.99 6.572,1.1059 15.369,-6.1307 z m -108.535,-1.4842 c 0.843,-4.5671 -15.407,-15.7413 -21.248,-14.6092 -8.173,1.5849 -6.407,6.7198 4.573,13.2991 11.524,6.9054 15.58,7.224 16.675,1.3101 z" fill="#00B894" transform="translate(-189.90467,-38.331956) matrix(0.34233768,0,0,0.34233768,-15644.365,-702.56315)"/>
</svg>