<?xml version="1.0" ?><svg height="187.10158mm" viewBox="0 0 228.22957 187.10158" width="228.22957mm" xmlns="http://www.w3.org/2000/svg">
    <path d="m 50413.895,5327.5742 c -5.423,0.1273 -12.161,2.429 -16.215,17.7403 -4.634,17.4985 9.179,37.8027 9.179,37.8027 0,0 -22.345,-1.247 -28.884,-1.5977 -6.539,-0.3508 -35.682,7.833 -33.907,18.3555 1.776,10.5225 25.938,5.1048 46.508,-1.0918 0,0 -0.862,1.4126 -2.096,3.7031 -8.761,7.2557 -18.32,16.6275 -29.728,29.4492 -16.195,37.6501 -39.136,92.3026 -3.926,125.2051 35.21,32.9024 76.553,19.2112 97.41,9.6055 8.869,-4.0845 11.837,-6.7457 20.326,-13.8324 9.141,68.5327 4.154,115.2768 78.103,140.0711 38.776,20.334 106.793,21.1117 148.476,18.5738 4.026,17.1755 10.365,30.3382 23.316,35.9551 19.141,8.3011 47.462,4.4026 60.063,-11.4981 11.539,-14.5596 21.572,-35.0772 27.38,-48.8613 3.397,-1.2526 6.751,-2.5209 10.02,-3.8145 68.09,-26.9403 71.401,-117.4764 64.408,-150.3789 -6.993,-32.9024 -14.807,-42.694 -61.182,-61.243 -46.374,-18.5491 -138.569,-8.8015 -227.511,-17.1116 -52.843,-4.9374 -74.952,10.0651 -74.952,10.0651 -2.965,-6.6422 -5.553,-20.3292 -16.72,-49.3374 10.326,1.7255 51.124,8.1502 63.685,4.1445 14.42,-4.5987 5.845,-19.7603 -9.572,-22.4883 -15.416,-2.7281 -52.961,1.7539 -52.961,1.7539 0,0 13.512,-11.5748 20.701,-23.6562 7.188,-12.0814 5.111,-31.2161 -3.55,-30.9043 -8.661,0.3117 -13.424,13.367 -22.518,24.2793 -6.901,8.2808 -25.422,15.322 -41.258,16.4336 -8.245,-2.8986 -16.184,-4.6012 -22.931,-4.9883 -9.266,-6.6268 -12.062,-18.577 -12.981,-29.4492 -1.17,-13.8352 -0.778,-22.5262 -6.451,-22.8379 -0.709,-0.039 -1.458,-0.065 -2.232,-0.047 z" fill="#FFFFFF" transform="translate(-10.617433,21.735269) matrix(0.36204226,0,0,0.36204226,-17010.935,-1064.7608) translate(-3313.5291,-2437.8203)"/>
    <path d="m 47272.591,3388.7943 c -2.93,-4.6883 -4.661,-0.094 -6.419,-56.3527 l -2.908,-61.6904 c -20.422,-2.7049 -59.436,-26.1426 -72.659,-41.7426 -17.141,-21.8295 -30.114,-46.4772 -33.189,-85.3014 -0.733,-9.3765 -1.904,-16.8484 -2.637,-16.4089 -35.276,14.3411 -65.801,22.1813 -99.65,6.8788 -4.542,-2.1975 -13.039,-8.2044 -18.753,-13.4787 -22.269,-20.3645 -26.414,-49.3023 -14.4,-84.1711 6.448,-18.8993 18.806,-44.5507 28.329,-56.5642 l 5.86,-7.3253 h -13.333 c -22.268,0 -28.861,-9.3765 -15.676,-22.4157 8.352,-8.4973 32.82,-14.5042 45.272,-11.2811 4.248,1.1721 8.058,1.9046 8.497,1.4651 0.294,-0.293 -0.732,-4.6882 -2.49,-9.6695 -5.569,-16.5552 -2.638,-30.1803 8.937,-42.1939 8.789,-9.0836 15.235,-9.9625 22.267,-2.9302 4.249,4.2487 4.835,6.4463 4.835,19.632 0,13.9182 0.44,15.3832 5.714,20.6574 4.982,5.1279 7.034,5.7137 17.727,5.7137 6.594,0 15.676,0.8791 20.364,2.1977 8.353,2.0511 8.938,1.7581 20.22,-5.8603 6.886,-4.6882 12.892,-10.5485 14.65,-14.3578 6.447,-13.4785 15.824,-17.7272 24.027,-10.695 4.249,3.6629 5.419,6.5928 6.151,15.2369 0.881,9.8159 0.295,11.4274 -7.176,22.5621 -4.397,6.5927 -7.912,12.3065 -7.912,12.746 0,0.586 5.421,0.1469 12.159,-0.7325 13.92,-1.9046 29.156,-0.4394 37.214,3.6626 6.154,3.0767 13.038,13.3323 13.038,19.1924 0.146,5.5675 -5.273,12.5996 -11.28,14.7973 -9.084,3.5163 -32.524,2.3442 -42.341,-1.9047 -10.549,-4.6881 -10.549,-4.6881 -4.98,16.995 3.347,9.4382 5.053,8.6047 11.794,7.2841 57.311,-5.5602 122.643,8.3179 176.429,9.849 53.26,1.5162 121.744,-9.587 161.64,28.3416 9.083,9.0833 18.014,19.2813 26.218,34.0786 3.077,5.2742 11.134,18.3134 18.02,28.8619 6.886,10.5485 14.945,24.1738 17.874,30.3268 2.783,6.007 8.497,15.3834 12.6,20.6577 11.868,15.5297 12.159,24.6132 1.025,24.6132 -3.37,0 -5.713,0.5859 -4.981,1.172 2.197,2.1976 -2.491,8.6439 -6.446,8.6439 -5.127,0 -7.764,-5.7138 -8.059,-16.9948 -0.292,-9.3765 -0.292,-9.3765 -1.757,2.7835 -2.344,17.7273 -3.37,20.0715 -8.937,20.0715 -8.205,0 -9.669,-6.8856 -5.567,-27.8362 1.905,-9.9625 4.248,-20.2182 5.128,-22.7087 1.317,-3.8092 -0.294,-8.058 -8.498,-22.4155 l -10.256,-17.874 -2.636,20.5111 c -4.835,39.2639 -14.211,61.8259 -35.309,84.2415 l -13.917,14.7972 1.904,83.6555 c 1.758,74.8652 4.705,71.6064 1.921,75.8551 -4.249,6.4463 -14.357,5.5675 -17.874,-1.3185 -2.782,-5.4207 -6.023,-29.7054 -3.826,-100.0287 0.732,-22.5623 1.026,-41.4615 0.732,-41.9011 -0.291,-0.4395 -2.782,0.8791 -5.566,2.9302 l -5.128,3.8091 0.294,68.1258 c 0.292,61.826 3.092,56.0765 0.01,59.4464 -4.688,5.1275 -9.815,4.5417 -13.771,-1.3187 -2.784,-4.3952 -6.023,2.9658 -4.852,-30.1448 0.732,-20.6575 1.758,-44.5382 2.49,-53.1821 l 1.027,-15.5298 -6.006,6.7395 c -4.102,4.6882 -5.714,8.2043 -4.982,10.8415 3.37,11.574 3.223,22.5621 -0.144,26.3713 -1.905,2.0509 -4.689,3.8091 -6.01,3.8091 -4.833,0 -8.935,-6.1534 -8.349,-12.8926 0.585,-7.0323 -0.732,-7.6184 -7.325,-3.3696 -3.516,2.3439 -3.955,4.1022 -3.222,11.1344 0.876,8.0579 -2.491,14.9437 -7.327,14.9437 -3.955,0 -8.058,-6.7393 -7.325,-12.0135 0.733,-5.4207 0.44,-5.5673 -7.472,-5.5673 -4.395,0 -10.988,-0.5861 -14.505,-1.3185 l -6.445,-1.3187 1.172,8.4974 c 1.318,9.816 -1.026,15.6764 -6.446,15.6764 -5.715,0 -7.325,-5.1279 -5.422,-17.2879 1.465,-9.3764 1.173,-11.4276 -1.612,-13.4787 -4.247,-3.0767 -5.859,-1.9046 -7.324,5.2743 -0.879,4.6882 -2.198,5.8604 -6.007,5.8604 -6.447,0 -8.35,-7.3254 -4.689,-17.1414 2.344,-6.2998 2.344,-8.3509 -0.291,-15.5298 l -2.931,-8.3508 -11.281,-0.293 c -6.155,-0.2931 -30.776,-1.1277 -34.878,-1.2742 h -7.325 l -0.878,59.7749 c -0.448,48.1459 1.48,53.879 -8.043,53.879 -8.79,0 -12.231,-2.6625 -10.711,-56.3696 l 1.318,-60.0678 c -11.716,-2.0024 -5.891,-1.2091 -17.477,-3.8557 -10.256,-2.6371 -11.606,-4.9968 -10.139,4.9657 0.585,5.1278 2.05,34.1362 3.223,64.6096 2.049,58.1634 4.705,48.6047 -3.207,48.6047 -2.831,-1.1195 -7.516,-4.0856 -9.124,-6.3166 z m 172.987,-85.7833 c 8.353,-3.8091 27.106,-19.7784 30.328,-25.7852 1.904,-3.5162 1.612,-3.5162 -6.007,-0.7326 -12.159,4.2488 -37.944,8.4975 -57.136,9.523 -9.377,0.5862 -17.289,1.465 -17.583,2.0513 -1.025,2.7834 9.378,10.8414 18.755,14.5042 12.745,4.8345 21.682,4.981 31.643,0.4393 z m -3.809,-36.1822 c 23.238,-6.1344 52.2,-17.7017 66.514,-30.9179 l 12.455,-11.7206 v -11.281 c 0,-12.0137 2.783,-16.5554 9.229,-15.2369 1.904,0.2932 3.809,2.6373 4.102,4.9813 0.879,6.0068 2.931,5.5673 10.255,-2.7837 16.996,-19.4853 27.105,-60.2142 23.295,-94.3505 -2.196,-19.6318 -8.791,-36.3336 -19.925,-49.8124 -30.088,-20.4781 -59.88,-23.6264 -93.297,-22.8699 l 1.878,19.159 c 2.016,20.5587 -7.765,39.8498 -23.002,56.6981 -9.67,10.695 -15.676,13.3321 -30.474,13.3321 -16.116,0 -20.071,-1.6115 -31.792,-12.746 -13.625,-13.0392 -18.459,-15.0903 -30.912,-13.6251 -14.358,1.9046 -21.536,-0.1469 -29.448,-8.351 -6.006,-6.1533 -6.739,-8.0579 -6.739,-17.8739 0.145,-6.5927 1.611,-14.2111 3.955,-19.4854 2.198,-4.6884 6.687,-22.9346 6.687,-22.9346 -13.592,-2.8289 -40.452,-7.2685 -69.155,-5.9058 -27.519,1.3066 -24.828,4.9931 -26.195,20.6641 -1.145,26.6662 -12.866,46.3166 -26.93,60.0882 l -25.917,18.7021 1.905,9.3764 c 6.152,31.792 9.268,48.2677 13.955,57.0581 16.386,41.7917 47.288,56.8502 81.335,69.3663 11.72,4.3952 38.884,2.5972 44.891,2.7436 1.32,0 2.932,-4.3952 3.664,-9.6694 0.732,-5.2743 2.637,-10.8416 4.247,-12.16 2.492,-2.0511 3.81,-1.6115 7.621,3.2231 2.488,3.0767 4.979,8.9369 5.712,13.0391 1.173,7.1788 2.125,15.94 11.942,16.9656 32.377,3.5161 77.73,-0.3033 100.144,-3.673 z m -137.276,-87.6162 c -3.515,-1.3185 -10.255,-6.4462 -14.944,-11.4277 -5.273,-5.5671 -14.064,-11.574 -23.146,-15.8226 -29.889,-14.2111 -33.111,-32.9641 -9.084,-52.3031 15.383,-12.3065 27.105,-13.625 41.022,-4.5416 3.956,2.6371 12.306,6.1533 18.458,7.7648 14.652,3.8092 21.831,8.937 26.373,19.0459 5.421,11.8671 4.689,22.1226 -2.344,35.8943 -10.696,20.5109 -21.537,26.9572 -36.335,21.39 z m 137.131,-15.9693 c -8.204,-3.5161 -11.574,-8.2044 -11.574,-16.2622 0,-20.6576 39.849,-29.0084 55.965,-11.867 6.886,7.4719 7.033,15.0902 0.44,21.6829 -8.205,8.2045 -32.671,11.867 -44.831,6.4463 z m 83.362,-22.7085 c -2.637,-1.0256 -7.326,-4.1022 -10.548,-6.886 -7.912,-6.5927 -19.632,-12.4529 -32.819,-16.4087 -8.203,-2.4905 -11.279,-4.5417 -13.478,-8.9369 -2.343,-5.1277 -2.343,-6.2997 1.32,-12.5996 5.126,-8.9369 17.433,-17.5809 28.129,-19.6321 14.063,-2.7835 40.289,-2.1975 46.443,1.0258 7.618,3.9556 11.866,13.9182 11.866,28.2757 0,23.2948 -15.823,41.3152 -30.913,35.1618 z m -419.594,-12.5997 c 6.3,-1.6116 15.529,-4.8346 20.803,-7.0323 l 9.376,-4.1021 -2.929,-8.4975 c -4.835,-14.2113 -18.9,-26.6642 -46.59,-40.7288 -10.988,-5.714 -12.891,-6.0069 -33.403,-6.0069 -12.014,0 -22.415,0.5859 -23.148,1.172 -3.369,3.3697 -3.369,17.7275 0,26.6643 6.887,18.3134 20.951,31.0594 41.316,37.6523 14.063,4.3952 20.217,4.5417 34.575,0.879 z m -24.76,-19.925 c -2.492,-2.344 -1.319,-7.7648 2.343,-11.1344 3.371,-3.0767 3.957,-3.0767 6.886,-0.1468 3.663,3.809 3.957,7.0323 0.734,10.2555 -2.861,1.8957 -7.798,3.1109 -9.963,1.0257 z m -31.645,-7.7648 c -4.982,-4.8347 -0.145,-15.3832 6.006,-13.0391 5.568,2.1976 5.422,12.8927 -0.145,15.0902 -1.611,0.586 -4.103,-0.2929 -5.861,-2.0511 z m 117.204,-1.6115 c 20.511,-14.6507 32.232,-33.5502 32.232,-52.3029 0,-9.6696 -5.713,-42.7802 -7.618,-44.978 -0.879,-0.8789 -4.103,-0.1467 -7.179,1.4653 -9.523,4.981 -19.926,3.9558 -26.079,-2.7838 -3.076,-3.2232 -6.445,-8.3509 -7.765,-11.5741 -2.782,-6.5927 -6.592,-7.9113 -22.267,-8.0578 -9.964,0 -12.161,-0.7325 -17.144,-5.7137 -3.955,-3.8092 -5.712,-7.6185 -5.712,-11.8671 0,-5.8603 -0.293,-6.1532 -5.42,-4.9812 -15.237,3.8091 -30.18,17.8739 -44.978,42.3404 -8.351,13.7717 -20.805,40.5825 -23.002,49.3731 -1.172,4.8346 -0.879,5.4207 2.344,4.5416 22.122,-6.5928 35.602,-6.4463 53.475,0.293 5.42,2.1976 18.606,9.6695 29.302,16.7019 19.486,13.039 30.473,23.734 32.523,31.9385 0.587,2.344 2.052,4.3952 3.078,4.3952 1.172,0 7.472,-3.9558 14.21,-8.7904 z m -7.471,-6.1533 c -3.956,-3.9559 5.274,-26.0784 10.841,-26.0784 2.783,0 3.515,1.6117 3.515,8.4974 0,11.8672 -9.082,22.8552 -14.356,17.581 z m -44.832,-73.2536 c -5.714,-3.2231 -3.517,-19.1925 2.784,-19.1925 3.37,0 7.473,6.4463 7.473,11.7206 0,6.5927 -5.13,10.4021 -10.257,7.4719 z m -31.937,-4.6882 c -2.344,-5.8603 1.756,-13.6251 7.177,-13.6251 4.25,0 4.836,0.879 4.836,7.9114 0,7.0323 -0.586,7.7648 -5.421,8.3507 -3.663,0.4397 -5.712,-0.4394 -6.592,-2.637 z m 171.998,-39.7033 c 2.199,-3.5163 -4.249,-8.058 -14.21,-9.9626 -16.556,-3.0767 -41.316,-2.6371 -41.316,0.7324 0,1.6118 1.173,3.6627 2.491,4.3953 6.886,4.5417 50.837,8.4974 53.035,4.8349 z m -192.07,-21.0971 c 4.248,-1.6117 7.326,-3.5162 6.885,-4.1023 -1.464,-1.3185 -20.95,3.5161 -26.664,6.7393 -4.542,2.6372 -4.395,2.7836 3.517,1.6116 4.542,-0.586 11.866,-2.4905 16.262,-4.2486 z m 132.587,-8.9369 c 10.403,-10.4021 16.117,-20.0715 15.385,-26.2247 l -0.732,-5.5673 -3.665,6.8856 c -4.393,8.2046 -10.84,14.0648 -22.122,19.9251 -4.541,2.4906 -8.35,4.9813 -8.35,5.7137 0,1.3186 7.911,5.2743 10.988,5.4208 1.318,0.1468 5.129,-2.6371 8.496,-6.1532 z m -86.292,-6.886 c -6.738,-12.8926 -7.764,-17.7275 -6.738,-29.1548 1.318,-13.4787 -0.585,-16.7018 -6.593,-11.2811 -9.668,8.7904 -8.351,34.1361 2.051,39.4105 5.274,2.7836 12.454,3.3696 11.28,1.0254 z" fill="#00B894" transform="translate(-10.617433,21.735269) matrix(0.36204226,0,0,0.36204226,-17010.935,-1064.7608)"/>
</svg>