<?xml version="1.0" ?><svg height="85.850609mm" viewBox="0 0 138.38063 85.850609" width="138.38063mm" xmlns="http://www.w3.org/2000/svg">
    <path d="m 7920.4719,16329.531 c 38.307,-45.756 70.523,-48.286 114.453,-53.03 43.93,-4.745 154.986,2.952 186.382,10.648 31.395,7.696 72.629,23.482 72.629,23.482 0,0 0.939,-30.019 18.16,-30.44 17.221,-0.422 13.472,55.35 13.472,55.35 0,0 33.036,38.059 44.75,58.618 11.715,20.559 38.542,67.791 17.69,97.1 -20.853,29.309 -86.338,32.366 -115.859,27.622 -29.521,-4.744 -36.199,20.453 -70.289,31.84 -34.09,11.386 -140.694,19.609 -184.39,17.184 -43.696,-2.424 -103.676,-11.597 -118.436,-74.01 -14.761,-62.414 -3.163,-119.135 21.438,-164.364 z" fill="#FFFFFF" transform="translate(-68.393014,-44.765164) matrix(0.26458333,0,0,0.26458333,-2016.6817,-4259.2057)"/>
    <path d="m 11374.576,18704.812 c -40.804,0.129 -51.219,1.285 -70.762,6.167 -48.289,12.069 -69.242,28.925 -89.388,71.916 -26.605,57.243 -30.519,133.976 9.306,190.185 12.961,16.309 24.452,23.201 50.461,30.275 12.707,3.457 26.352,9.234 30.323,12.838 3.97,3.605 9.817,7.988 12.994,9.741 10.242,5.651 24.202,3.97 32.029,-3.858 3.971,-3.972 8.013,-7.222 8.982,-7.222 0.969,0 6.021,3.25 11.227,7.222 11.898,9.076 22.281,9.242 29.18,0.471 4.524,-5.752 8.926,-7.05 29.81,-8.791 13.476,-1.122 33.921,-3.984 45.434,-6.363 18.864,-3.895 22.273,-3.866 34.484,0.279 12.81,4.35 13.953,4.302 20.94,-0.883 4.065,-3.015 8.528,-9.907 9.918,-15.312 1.844,-7.176 6.61,-12.712 17.65,-20.5 18.054,-12.736 22.467,-5.858 32.127,-3.678 83.601,18.866 130.68,-21.032 127.717,-76.268 -1.634,-28.91 -14.548,-52.718 -46.373,-85.484 -16.292,-16.773 -24.197,-26.919 -22.383,-28.735 5.159,-5.507 5.863,-18.166 7.394,-26.365 6.123,-32.778 -13.155,-52.926 -36.435,-36.738 -9.688,6.737 -16.851,15.422 -18.916,22.934 -2.942,10.702 -2.086,4.966 -11.625,-0.481 -10.552,-7.16 -53.333,-18.343 -100.775,-26.34 -20.901,-3.525 -46.83,-4.906 -93.856,-5.01 -7.185,-0.02 -13.634,-0.02 -19.463,0 z m 42.197,12.807 c 18.039,0.08 35.02,0.836 48.102,2.367 31.133,3.645 87.248,16.899 110.717,26.149 7.782,3.027 23.261,13.076 31.873,2.316 3.075,-8.091 17.435,-19.494 24.545,-19.494 5.664,0 6.434,21.977 1.269,36.258 -3.275,9.058 -2.853,9.797 22.383,39.537 30.064,35.43 44.433,61.945 46.615,86.018 -0.608,19.239 -15.009,49.026 -36.201,51.89 -5.763,0 -3.891,-13.167 2.707,-19.045 8.98,-8.004 15.332,-24.165 11.108,-28.263 -2.477,-2.404 -5.807,-0.391 -13.01,7.869 -8.486,9.728 -10.771,10.86 -18.496,9.164 -4.847,-1.066 -9.555,-3.136 -10.461,-4.602 -2.92,-4.722 -7.082,-2.838 -7.082,3.207 0,3.623 3.779,8.103 9.865,11.694 9.179,5.417 9.682,6.462 7.221,15.045 -1.455,5.073 -2.647,9.555 -2.647,9.964 0,2.533 -41.926,-0.17 -56.312,-3.632 -20.403,-4.909 -26.412,-6.236 -41.104,10.082 -30.652,34.045 -105.155,47.789 -159.601,39.275 0,-1.127 3.099,-6.186 6.888,-11.244 21.008,-28.028 29.681,-65.416 24.981,-107.688 -5.429,-48.824 -21.747,-85.958 -45.813,-104.257 -15.571,-11.842 -24.737,-6.947 -10.549,4.748 23.484,19.357 40.802,51.645 43.79,97.128 2.998,45.642 -9.031,82.207 -36.28,110.286 l -11.89,12.25 -22.383,-0.317 c -24.508,-0.346 -36.654,-2.434 -62.701,-10.777 -35.491,-11.367 -52.023,-35.401 -62.453,-90.799 -6.466,-34.457 1.552,-90.805 35.912,-133.123 11.691,-14.266 33.53,-25.701 64.816,-33.937 19.697,-5.184 64.506,-8.251 104.191,-8.069 z m 87.512,25.598 c -6.977,0 -13.572,2.637 -17.625,7.789 -11.13,14.149 -6.335,39.752 9.824,52.463 7.194,5.66 7.219,5.828 2.653,18.304 -13.341,36.45 -0.586,87.023 23.412,92.829 12.411,3.002 12.647,1.633 2.808,-16.266 -14.793,-26.913 -17.785,-58.672 -8.677,-92.127 1.635,-6.008 1.142,-7.943 -2.028,-7.943 -5.741,0 -14.571,-17.239 -13.332,-26.032 0.895,-6.344 2.609,-7.279 14.731,-8.056 15.882,-1.02 17.778,-5.615 6.107,-14.795 -5.265,-4.142 -11.717,-6.174 -17.873,-6.166 z m 49.936,23.283 c -4.646,0 -4.375,1.004 2.148,7.939 26.778,28.476 32.037,53.219 16.344,76.911 -10.748,16.227 -32.393,33.55 -41.916,33.55 -7.217,0 -9.255,4.307 -3.195,6.752 6.09,2.458 8.963,1.982 20.937,-3.488 42.198,-20.758 51.732,-66.587 38.123,-87.41 -7.552,-15.264 -25.536,-34.254 -32.441,-34.254 z m 51.756,36.859 c -4.461,0.01 -7.258,2.027 -7.258,8.426 0.637,4.238 0.636,14.624 6.898,14.361 6.262,-0.262 9.129,-5.887 8.279,-13.462 -0.849,-7.576 -2.017,-9.038 -7.005,-9.301 -0.312,-0.02 -0.617,-0.02 -0.914,-0.02 z m -39.26,3.854 c -0.828,-0.02 -1.815,0.07 -2.988,0.238 -6.597,0.942 -9.735,8.044 -6.862,15.531 0.879,2.289 4.239,4.164 7.465,4.164 5.739,0 6.588,-1.304 6.588,-10.109 0,-7.503 -0.616,-9.731 -4.203,-9.824 z" fill="#00B894" transform="translate(-68.393014,-44.765164) matrix(0.26458333,0,0,0.26458333,-2016.6817,-4259.2057) translate(-3313.5291,-2437.8203)"/>
</svg>