<?xml version="1.0" ?><svg height="213.94843mm" viewBox="0 0 276.39804 213.94843" width="276.39804mm" xmlns="http://www.w3.org/2000/svg">
    <path d="m -1929.127,2338.3301 c -0.6672,-0.017 -1.1853,0.1101 -1.5332,0.3984 -5.5656,4.6134 -0.5136,46.4629 -0.5136,46.4629 0,0 -17.2101,-11.2051 -30.6114,-16.873 -13.4014,-5.6679 -14.9375,32.5586 -14.9375,32.5586 0,0 -8.4952,-16.6078 -35.8105,5.207 -22.1385,21.2068 -6.2466,26.3742 9.9258,64.7715 0,0 -22.994,22.3422 -28.7793,40.1367 -5.7853,17.7945 -11.6577,120.6095 -15.2461,173.334 -3.5883,52.7245 24.8732,92.8569 32.5625,105.6426 7.6893,12.7857 41.0082,42.51 50.8945,83.4374 9.8862,40.9274 25.705,16.2492 45.6778,51.6192 19.9728,35.37 44.7636,4.1367 44.7636,4.1367 0,0 19.6268,12.9165 24.6797,15.5527 5.053,2.6362 26.1094,-14.6699 26.1094,-14.6699 0,0 17.3893,33.3884 28.1543,32.0703 10.765,-1.3181 16.4048,-11.7323 27.1699,-34.8652 10.765,-23.1329 16.5492,-21.4188 25.5566,-15.3555 9.0074,6.0633 15.6719,-29.789 15.6719,-29.789 0,0 50.4393,-1.8106 40.1309,-15.1582 -72.3234,-93.6469 4.0273,-61.3594 4.0273,-61.3594 0,0 16.697,26.494 35.2246,38.8183 18.5275,12.3244 99.1656,28.3492 189.0938,33.4239 89.9281,5.0747 195.9664,-59.2493 266.1953,-117.7735 70.229,-58.5243 57.7707,-133.6477 52.3516,-150.5195 -5.4192,-16.8719 -22.774,-59.0515 -66.127,-68.1465 -43.353,-9.095 -187.4729,22.0782 -236.0254,24.9121 -48.5524,2.834 -87.3672,-8.834 -127.0586,-14.5019 -39.6914,-5.6678 -90.8061,3.889 -94.3945,-5.0742 -3.5883,-8.9632 -69.2031,-92.6641 -69.2031,-92.6641 0,0 10.1048,-29.7241 5.8574,-40.2031 -4.2475,-10.479 -41.4496,-0.1967 -44.0859,-15.8164 -2.6364,-15.6196 -30.9024,-19.3106 -30.9024,-19.3106 0,0 -8.2019,-29.3938 -19.6992,-36.248 -11.4974,-6.8541 -28.9277,15.0918 -28.9277,15.0918 0,0 -7.1755,-14.2345 -18.1602,-14.4981 -10.9847,-0.2636 -8.6426,28.0098 -8.6426,28.0098 0,0 -43.3801,-32.4972 -53.3887,-32.7578 z m 809.8731,569.1269 c -3.7628,0.056 -6.7835,0.7799 -8.7149,1.7715 1e-4,0 -3.3385,56.9458 20.9415,88.4746 24.28,31.5288 60.6726,22.8708 64.2382,23.6348 3.5656,0.7641 -2.2078,-25.9272 -23.4882,-70.75 -16.6254,-35.0178 -39.538,-43.3312 -52.9766,-43.1309 z" fill="#FFFFFF" transform="translate(-121.3271,-1.8593413) matrix(0.26458333,0,0,0.26458333,1916.9519,525.48239) translate(-4730.5688,-4305.3989)"/>
    <path d="m -5991.1257,-1174.9259 c -6.8021,-7.7982 -5.0024,-83.2626 4.9069,-205.9779 4.141,-51.3048 6.5252,-94.2379 5.3008,-95.4076 -1.2306,-1.169 -6.8944,1.3383 -12.5951,5.5709 -5.6945,4.2329 -19.1418,12.3957 -29.8756,18.1386 -16.4468,8.7984 -19.1818,11.75 -17.3852,18.7548 1.1722,4.5719 5.8207,22.5185 10.3278,39.8812 10.9091,42.0244 19.474,100.6278 16.5852,113.4619 -3.1534,14.0084 -15.9207,14.2918 -21.5845,0.4802 -4.5317,-11.0328 -6.4514,-20.1038 -21.16,-99.9832 -5.3038,-28.8001 -9.814,-52.6409 -10.0262,-52.9803 -0.1846,-0.3393 -17.1852,3.9232 -37.7115,9.4725 -51.9616,14.0466 -127.1906,19.2255 -169.7444,11.6845 -17.0898,-3.0279 -33.3059,-6.301 -36.0378,-7.2731 -6.0145,-2.14 -24.0119,111.9291 -28.1651,178.489 -2.9688,47.649 -6.5129,58.4354 -18.7204,57.0018 -8.0419,-0.9442 -8.2419,-2.1634 -9.1494,-55.4212 -0.8337,-49.0669 5.0762,-108.7179 17.9727,-181.3473 1.609,-9.0574 -0.123,-10.824 -18.3788,-18.7154 -19.8833,-8.5963 -41.234,-25.552 -41.4155,-32.8875 -24.5133,-43.0458 -16.87,0.6121 -0.9476,36.2596 10.1186,22.649 21.5723,163.3001 15.3763,188.9093 -2.652,10.9713 -14.5179,11.3439 -20.5847,0.6467 -2.975,-5.2454 -6.0176,-37.3096 -8.4449,-89.0239 -3.3257,-70.7943 -4.6947,-82.0317 -10.9954,-90.5385 -9.0448,-12.2043 -19.6156,-51.9115 -19.7417,-74.1621 -0.1538,-27.9153 3.1195,-35.1791 17.9789,-39.8129 12.3736,-3.8601 13.0535,-4.8372 9.2879,-13.4556 -5.5407,-12.7021 -6.7652,-73.3659 -1.8613,-92.3465 2.1966,-8.508 7.119,-18.4386 10.9338,-22.0682 6.6237,-6.2966 7.4082,-6.0419 17.0191,5.5607 15.5411,24.2806 9.6853,-3.7348 9.3155,-18.8027 -0.5076,-21.911 -3.2364,-37.7715 -9.3309,-54.2494 -9.2417,-24.9858 -29.6541,-64.5499 -42.603,-82.5651 -8.0542,-11.2061 -11.1399,-27.9052 -5.1808,-28.0513 6.9005,-0.1692 38.016,35.8212 48.6544,56.2841 10.8138,20.8043 11.5614,21.4131 22.7875,18.5222 18.588,-4.7864 44.6211,-3.1491 86.0582,5.413 90.4637,18.6902 134.5096,18.8484 207.5604,0.7455 58.3338,-10.1841 127.0523,-21.5889 171.5073,-1.1174 29.5865,13.6706 39.1081,24.4364 63.3015,71.58 21.1539,41.2174 29.7219,74.8005 30.9494,121.2672 1.0952,40.9433 -2.7043,63.3948 -18.0066,106.7654 -18.6127,52.7452 -18.7819,50.64 4.9562,61.5396 11.266,5.1737 25.0886,15.1424 30.7093,22.1528 10.9092,13.5955 21.6953,38.4414 22.3814,51.5509 0.686,13.0605 17.0929,41.0973 26.2577,44.8596 4.6885,1.9249 8.5926,6.4461 8.6818,10.0474 0.2461,9.5389 -16.4653,13.031 -28.0175,5.8595 -7.5219,-4.6689 -10.8938,-4.9375 -16.3976,-1.3069 -10.0508,6.6243 -38.6651,-7.3134 -55.758,-27.1588 -18.2835,-21.227 -30.4263,-62.7754 -32.2107,-110.2205 -1.1782,-31.2797 0.031,-39.8471 9.8509,-69.7486 14.4041,-43.8714 19.3418,-82.3289 15.1301,-117.8471 -3.4333,-29.0087 -5.5746,-30.2947 -13.4073,-8.0588 -7.8604,22.3124 -54.8504,83.2349 -72.8878,94.4948 -9.4848,5.9207 -10.0508,8.108 -11.5029,44.2738 -0.8399,20.9253 -3.5041,59.228 -5.9192,85.1172 -2.4119,25.8897 -6.2083,79.1302 -8.4295,118.3122 -2.2274,39.1823 -6.0114,75.6046 -8.408,80.9383 -5.23,11.6402 -14.3333,14.4225 -21.2461,6.4951 z m 188.6001,-131.4783 c -4.0148,-6.6172 -11.3552,-22.5395 -16.3084,-35.3825 -4.95,-12.8431 -9.6355,-22.6866 -10.4046,-21.8747 -1.329,1.3971 20.6801,59.4572 25.1194,66.2602 1.1475,1.7572 3.6179,3.1577 5.4915,3.1118 1.8736,-0.046 0.1231,-5.4973 -3.8979,-12.1148 z m -34.7641,-41.6167 c -6.353,-17.1713 -10.8015,-25.1006 -11.423,-20.3598 -0.8952,6.8812 16.6161,48.6129 20.3601,48.5209 0.8061,-0.031 -3.2149,-12.692 -8.9371,-28.1611 z m 10.3585,-24.0131 c -0.031,-1.8123 -2.6673,-5.3364 -5.83,-7.8312 -6.2391,-4.9239 -6.9713,-3.6917 -3.221,5.4073 2.5688,6.2283 9.1894,8.0009 9.051,2.4239 z m -21.0308,-14.9726 c 1.2244,-2.0966 0.4368,-3.7677 -1.7475,-3.7142 -2.1904,0.055 -3.9348,1.7871 -3.8855,3.8524 0.061,2.0649 0.8368,3.7363 1.7474,3.7142 0.9106,-0.031 2.655,-1.7561 3.8856,-3.8524 z m -273.1048,-64.9059 c 47.4608,-10.8341 84.2985,-25.3858 116.3215,-45.9474 l 25.9101,-16.6401 1.8705,-34.9696 c 2.1104,-39.509 7.9157,-51.5725 19.514,-40.532 4.1287,3.9312 7.2728,14.3644 8.6726,28.7709 1.2029,12.4314 3.4795,22.5706 5.0578,22.5318 30.1516,-28.7811 67.1345,-84.9552 70.3589,-120.6396 0.3602,-37.0576 -19.7703,-67.6628 -47.1254,-80.934 -48.4875,-16.8814 -101.4215,-11.4801 -154.0298,1.1804 -87.5657,21.4378 -120.5209,21.0643 -236.7624,-2.6839 -66.1534,-13.5144 -68.993,-12.4477 -59.2067,22.2084 11.4967,40.6895 3.1841,93.2483 -16.9422,107.1549 -10.5954,7.3186 -16.3361,5.1457 -16.696,-6.3201 -0.1231,-4.5248 -1.9597,-10.7199 -4.0363,-13.7684 -7.3036,-10.7114 -2.7719,49.9995 6.6944,89.749 6.9313,29.1084 8.1465,39.3743 4.79,40.5849 -13.1827,4.7562 3.4518,22.5379 31.58,33.764 10.2139,4.0732 19.0003,6.9301 19.5357,6.3483 0.5383,-0.5812 2.4796,-10.3933 4.3101,-21.8036 5.4023,-33.5729 11.8075,-50.7723 19.5325,-52.4579 3.8672,-0.8429 8.5926,0.7085 10.5093,3.4481 3.2395,4.6317 2.4581,61.1957 -1.0368,75.1328 -1.1968,4.7765 2.7257,7.1248 17.0037,10.1816 62.043,8.4525 107.4546,10.3762 174.1745,-4.3585 z m -469.8237,129.8586 c -1.3198,-3.2005 -1.6151,-14.1826 -0.6614,-24.4051 1.5167,-16.1961 0.8737,-18.5656 -5.0054,-18.4213 -15.1209,0.3711 -39.262,-44.4926 -33.1614,-61.6344 3.4334,-9.6462 6.9313,-5.5093 22.166,26.2119 8.3373,17.3596 16.4961,31.5308 18.1266,31.4908 1.6336,-0.04 3.9379,-6.7621 5.11,-14.9378 1.1783,-8.1754 4.4271,-16.8579 7.2174,-19.2941 5.2639,-4.5911 6.8698,-1.314 10.9646,22.389 1.609,9.2953 1.6428,9.2823 5.7653,-2.0975 4.8485,-13.3858 17.8251,-23.4508 23.3966,-18.1466 2.0397,1.9468 4.9439,14.1884 6.4483,27.2034 2.8875,21.8706 -0.7591,27.9086 14.804,8.9855 10.3216,-12.5499 22.849,-45.2079 22.5167,-58.7019 -0.1846,-6.9289 7.5404,-4.7833 16.2438,4.5212 10.8158,11.8736 7.2572,10.5893 14.884,-2.6674 3.6363,-6.3264 7.5927,-10.5719 8.7864,-9.4343 4.5008,4.2843 2.2766,33.4564 -3.2242,42.3185 -5.8237,9.3801 -18.1573,12.5994 -22.5413,5.8822 -4.5563,-6.9864 -8.6449,-3.5266 -10.6877,9.0436 -3.0272,18.6465 -25.3778,44.4409 -38.7943,44.7701 -13.8503,0.3399 -22.6829,-11.4467 -23.4243,-31.2576 l -0.5537,-15.1178 -5.7407,15.1689 c -7.7958,20.5933 -21.7292,43.7403 -26.4054,43.8551 -2.1013,0.052 -4.9008,-2.5246 -6.2207,-5.7247 z m -57.1763,-44.3191 c -15.6438,-14.8975 -36.1362,-71.1004 -32.2383,-88.4243 2.4581,-10.9156 11.7213,-12.9421 14.9024,-3.2608 1.1783,3.5875 7.8419,24.7115 14.804,46.9427 6.9621,22.2316 13.6349,42.779 14.8225,45.6611 2.9964,7.274 -4.2548,6.7319 -12.2906,-0.9187 z m -51.0079,-51.4088 c -9.7832,-18.4468 -14.9147,-38.4805 -23.6704,-92.4077 -4.0086,-24.6989 -7.9188,-45.5134 -8.691,-46.2548 -0.7661,-0.7421 -2.492,3.513 -3.8272,9.4546 -1.4767,6.5707 0.2769,20.1746 4.4732,34.7254 19.8173,36.2028 -13.5093,21.7233 -22.209,-0.1658 -1.5013,-4.5221 -7.9927,-18.5791 -14.4225,-31.2376 -17.1944,-33.8471 -22.0768,-63.9045 -17.6528,-108.6291 2.0058,-20.2373 3.3195,-49.3282 2.9226,-64.6472 -1.369,-53.1986 8.9495,-91.1802 28.2297,-103.8359 8.3065,-5.4502 13.3427,-0.2769 7.7497,7.9583 -10.6231,15.6494 -12.629,29.5366 -14.0318,96.9098 -0.8153,39.282 -2.1536,85.4254 -2.9719,102.5413 -0.8153,17.116 -0.1846,37.2057 1.4029,44.6437 2.5287,21.7673 5.7729,6.8679 11.3552,-6.0016 4.6609,-10.7391 10.4201,-19.5731 12.7982,-19.6316 6.0852,-0.1477 19.994,17.2796 25.8916,32.443 2.7288,7.0288 9.1371,42.8666 14.244,79.6397 5.1039,36.7734 10.3308,69.4126 11.6168,72.5319 -1.8579,11.1096 -11.7468,-5.3898 -13.2073,-8.0364 z m 225.9732,-32.598 c -6.6698,-12.1545 -8.7003,-39.6247 -3.1965,-43.2155 5.07,-3.3082 15.3362,17.1439 18.5481,36.9521 2.2704,14.0054 1.7043,16.9302 -3.3042,17.0529 -3.3256,0.083 -8.7494,-4.7734 -12.0474,-10.7895 z m -160.2874,-97.4371 c -36.6439,-7.8657 -55.2781,-35.2574 -56.4964,-83.047 l -0.5445,-22.1697 -22.4767,-19.3633 c -17.016,-14.6526 -23.7258,-23.4083 -27.5837,-35.9898 -6.3621,-20.7502 -3.6948,-49.0175 7.482,-79.2442 9.3463,-25.2833 9.8724,-23.4298 -17.2129,-60.98 -9.3309,-12.9387 -17.0713,-27.7722 -17.2005,-32.9635 -0.36,-14.7141 17.4805,-30.7312 38.2867,-34.3756 29.3434,-5.1392 46.0333,7.4202 50.9556,38.3464 1.3352,8.3899 3.4611,14.7419 4.7224,14.1164 1.2614,-0.6254 9.9278,-4.395 19.2587,-8.3766 15.527,-6.6264 16.8037,-8.1677 15.0748,-18.2161 -2.4397,-14.2025 6.6451,-15.0203 20.4862,-1.844 8.891,8.4658 11.7921,9.1328 28.1651,6.4707 15.1517,-2.4639 18.2773,-1.9677 18.3973,2.9202 0.092,3.238 5.7007,8.5347 12.4997,11.77 6.7929,3.2352 15.3855,8.411 19.0896,11.5023 8.088,6.7485 7.7404,7.1863 13.1181,-16.4065 2.3688,-10.3902 7.9065,-22.9444 12.3089,-27.8987 6.9928,-7.8743 10.7,-8.8818 29.4819,-8.0081 24.2118,1.1257 35.2225,8.0948 39.3481,24.9127 3.9809,16.2182 -0.3907,31.8224 -14.2933,50.9913 -11.7552,16.2087 -12.2352,18.1094 -8.1342,31.9744 3.1288,10.5868 3.2395,16.956 0.3692,22.5976 -5.83,11.5639 -12.1275,7.5239 -18.9696,-12.1603 -3.3349,-9.5983 -7.7404,-16.8161 -9.7893,-16.0396 -2.0459,0.7762 -10.9061,-4.8276 -19.6895,-12.4535 -14.0748,-12.2213 -54.1951,-34.687 -56.161,-31.4477 -0.403,0.6654 -3.5256,5.928 -6.9374,11.6939 -8.3434,14.0949 -12.792,13.3212 -14.5794,-2.538 -1.8459,-16.3087 -7.9866,-17.2332 -11.5984,-1.7453 -3.3933,14.564 -8.128,14.7812 -15.8376,0.7263 -5.4854,-9.9942 -6.9898,-10.632 -16.2346,-6.8842 -19.2218,7.7915 -40.6433,22.924 -52.4446,37.0487 -23.0921,27.6416 -34.0689,73.3118 -24.2334,100.8306 6.0545,16.9341 26.7345,41.804 33.4505,40.2252 5.5161,-1.2971 7.2543,3.6342 13.478,38.3199 7.9035,44.0502 21.3107,59.7661 49.9958,58.6121 31.137,-1.2525 37.8345,-4.8052 46.1594,-24.4798 5.7622,-13.6279 7.6912,-27.5213 8.1034,-58.294 -3.4865,-47.8828 10.1183,-41.1972 18.4404,-5.5829 l 3.2949,14.5136 10.0293,-14.8406 c 5.5161,-8.1625 16.4592,-20.0706 24.3165,-26.4626 17.0098,-13.8364 22.129,-24.1076 21.6553,-43.4549 -0.4461,-18.1533 7.1159,-25.9802 16.4837,-17.0606 5.2393,4.9876 6.3899,11.2144 5.6392,30.4953 -1.0275,26.2801 1.5598,22.505 -45.1534,65.8128 -20.7354,19.2228 -32.4568,36.743 -36.7454,54.9175 -2.4058,10.173 -7.5958,23.2717 -11.5399,29.1081 -11.2014,16.5797 -51.9555,29.6341 -76.2411,24.4214 z m 146.3171,-293.0517 c 20.7539,-24.134 21.9445,-43.2359 2.9688,-47.5069 -12.5612,-2.8264 -18.4896,3.1909 -27.0114,27.427 -6.0822,17.2889 -6.0976,19.16 -0.1846,26.8989 3.4948,4.5744 7.4266,8.344 8.7341,8.3769 1.3106,0.034 8.288,-6.8052 15.4993,-15.1959 z m -208.1911,-23.596 c -7.1898,-24.2257 -14.9548,-31.9938 -28.6851,-28.7059 -20.8862,5.0014 -22.3044,8.7587 -10.4877,27.7898 5.8299,9.3924 12.9735,21.5254 15.8654,26.9619 l 5.2638,9.885 11.1707,-10.7197 c 10.5246,-10.0964 10.9246,-11.5626 6.8729,-25.2111 z m 52.5031,245.0698 c -3.7318,-5.7152 5.0823,-14.9889 14.4625,-15.219 7.1251,-0.1754 7.9342,-1.873 6.316,-13.3045 -1.489,-10.5228 -3.4795,-13.0649 -10.0847,-12.9028 -17.9697,0.4409 -24.2949,-19.6353 -8.2511,-26.1903 5.2485,-2.1437 17.822,-4.1016 27.9374,-4.3498 14.3241,-0.3514 19.2957,1.1303 22.4491,6.6913 5.4176,9.5546 1.972,17.846 -8.6357,20.7877 -7.1343,1.9779 -8.5649,4.7646 -7.9957,15.5639 0.6245,11.8186 1.7659,13.128 11.2199,12.896 12.6627,-0.3107 13.6226,4.6618 2.4919,12.8756 -9.3279,6.8803 -45.9687,9.1941 -49.9096,3.1519 z m 32.1676,-134.8354 c -5.8023,-14.1961 0.2769,-27.3523 12.7889,-27.659 12.7458,-0.3129 20.3201,14.2068 14.5148,27.8217 -5.7746,13.5473 -21.7445,13.4516 -27.3037,-0.163 z m -42.1416,4.9983 c -4.7808,-4.5519 -3.0949,-22.7729 2.5627,-27.7076 4.301,-3.7524 7.8327,-3.9665 15.004,-0.9088 9.2294,3.9336 11.8844,12.5243 7.605,24.5601 -2.1196,5.9561 -20.1293,8.8578 -25.1717,4.0563 z m 40.2926,-167.0106 c -5.6976,-9.8931 -18.0404,-24.087 -27.4175,-31.5425 -22.6557,-21.5855 -16.276,-6.4033 -13.7765,16.7009 5.0754,34.1398 -1.2819,31.2199 -21.5476,13.9586 -10.5646,-9.0393 -20.7139,-16.3985 -22.5567,-16.3533 -1.8428,0.046 -3.4118,-2.4526 -3.4856,-5.55 -0.1846,-7.1952 11.2537,-7.5413 20.8677,-0.6291 4.0855,2.9334 8.3126,5.3657 9.4017,5.4051 1.0829,0.037 1.692,-9.6436 1.3475,-21.5172 -0.603,-20.8976 -0.2769,-21.6353 9.8939,-23.0566 8.3311,-1.1626 14.1826,2.019 28.1098,15.278 9.6724,9.2107 19.8401,16.6911 22.5967,16.6238 9.9308,-0.2431 23.7657,34.9558 17.0744,43.4349 -6.4668,8.1886 -9.5371,6.2778 -20.5109,-12.7496 z m 70.0021,-14.2718 c -5.7007,-14.2561 -10.1062,-20.0103 -15.8746,-20.7367 -14.604,-1.8385 -7.0605,-19.2901 8.5003,-19.6719 17.8251,-0.4374 29.7772,20.9733 25.7039,46.0235 -2.8918,17.7475 -9.8324,15.6205 -18.3296,-5.6149 z m -50.2265,-4.6036 c -4.9285,-7.6285 -11.1891,-16.0488 -13.9149,-18.7127 -6.4237,-6.2797 -6.3406,-9.8164 0.3661,-15.6676 16.6991,-14.5634 43.1568,17.6652 34.4903,42.0127 -3.5317,9.9293 -11.466,7.0393 -20.9415,-7.6324 z" fill="#00B894" transform="translate(-121.3271,-1.8593413) matrix(0.26458333,0,0,0.26458333,1916.9519,525.48239)"/>
</svg>