<?xml version="1.0" ?><svg height="107.80931mm" viewBox="0 0 188.07466 107.80931" width="188.07466mm" xmlns="http://www.w3.org/2000/svg">
    <path d="m -1050.978,14695.195 c 8.2782,-19.591 54.5748,-81.675 92.3888,-101.082 37.814,-19.407 57.7429,-55.645 68.1673,-73.857 10.4244,-18.211 22.7906,-45.068 22.7906,-45.068 l 23.0972,16.831 15.841,-17.659 c 0,0 11.0376,32.744 31.9886,18.671 20.951,-14.072 26.7764,-20.143 26.7764,-20.143 0,0 -0.6132,35.595 24.2214,21.707 24.8346,-13.889 5.5188,7.174 26.061,6.438 20.5421,-0.736 29.4336,-4.047 29.4336,-4.047 l 14.3079,28.881 2.5551,31.548 c 0,0 25.4478,-32.1 47.3185,-37.343 21.8708,-5.242 55.0859,-6.806 74.4017,-1.011 19.3157,5.794 49.3625,21.982 18.9069,46.907 -30.4556,24.926 -51.611,38.722 -51.611,38.722 0,0 13.6948,26.858 37.814,16.096 24.1192,-10.761 108.0253,-58.037 123.6619,-62.268 15.6366,-4.231 31.1711,5.335 31.9887,28.605 0.8175,23.27 -2.1462,117.914 -2.1462,117.914 l -134.0864,-23.546 -44.8658,33.571 c 0,0 61.32,21.615 61.5244,32.192 0.2043,10.577 -57.0276,14.624 -61.5244,15.084 -4.4968,0.46 -36.4854,11.497 -52.0198,6.438 -15.5344,-5.058 -46.5009,-10.025 -46.5009,-10.025 l -120.1872,25.569 c 0,0 33.9304,21.523 40.9822,33.296 7.0518,11.773 13.4904,34.675 -8.2782,29.524 -21.7686,-5.151 -74.9126,-21.338 -89.3228,-31.088 -14.4102,-9.749 -26.572,-30.168 -26.572,-30.168 0,0 -158.7165,-26.489 -180.6895,-39.55 -21.973,-13.061 -20.6444,-18.947 1.533,-27.041 22.1774,-8.094 2.044,-24.098 2.044,-24.098 z" fill="#FFFFFF" transform="translate(115.204,-155.49413) matrix(0.26417389,0.01471375,-0.01471375,0.26417389,387.55575,-3649.4076)"/>
    <path d="m -811.17011,14839.581 c -37.25428,-13.377 -56.11897,-26.116 -57.07631,-38.54 -0.4585,-5.953 -0.52302,-5.98 -17.51006,-7.266 -67.35458,-5.099 -150.88582,-25.716 -182.39982,-45.024 -22.1392,-13.561 -18.4853,-32.79 6.9178,-36.402 9.0705,-1.29 9.1173,-1.344 5.0043,-5.719 -3.6188,-3.853 -3.7365,-5.961 -0.9151,-16.448 4.6309,-17.213 11.665,-29.467 27.4606,-47.837 24.5154,-28.511 49.94084,-48.129 83.64494,-64.534 14.2019,-6.913 35.17338,-27.378 44.72408,-43.647 3.1442,-5.355 10.9567,-21.196 17.3617,-35.203 6.4049,-14.006 13.4681,-27.472 15.69581,-29.922 5.55021,-6.107 12.18509,-4.45 14.4753,3.614 1.03339,3.639 4.00143,7.294 6.60047,8.128 5.94535,1.912 11.94347,-4.283 20.01173,-20.666 4.64455,-9.434 6.99287,-12.041 10.32544,-11.472 3.72675,0.636 4.08205,2.564 2.6102,14.171 -2.23837,17.651 -1.77999,23.717 1.83679,24.335 6.26692,1.069 26.22047,-11.983 37.50127,-24.529 9.41579,-10.473 12.73621,-12.795 16.542,-11.576 3.79861,1.22 4.45318,2.863 3.23654,8.132 -5.23788,22.682 -6.48949,29.897 -5.44236,31.375 2.00434,2.83 18.09474,-8.007 28.04446,-18.889 16.09166,-17.597 21.74477,-15.234 15.72963,6.577 -3.26957,11.856 -3.47353,15.087 -1.04411,16.53 3.50717,2.08 35.02817,-9.563 37.59289,-13.886 1.99554,-3.364 9.40325,-2.713 10.88813,0.957 0.55258,1.364 -1.50945,4.754 -4.58191,7.533 -6.54872,5.924 -9.66013,19.266 -5.12095,21.959 1.67336,0.993 6.28678,0.238 10.25148,-1.675 5.87021,-2.833 7.8069,-2.862 10.42897,-0.15 2.94588,3.046 2.64443,3.915 -3.53624,10.184 -6.47569,6.571 -8.61579,10.97 -9.50413,19.541 -0.76661,7.393 5.18917,4.648 21.39255,-9.863 19.1281,-17.13 29.58853,-21.574 55.63049,-23.626 24.56893,-1.938 43.76024,2.383 60.1118,13.528 29.41076,20.05 27.40189,40.513 -6.53544,66.575 -15.31894,11.764 -28.81096,17.442 -34.05411,14.331 -6.17372,-3.661 -2.23262,-9.693 13.03842,-19.952 28.89237,-19.411 36.46222,-32.337 24.41691,-41.696 -5.18421,-4.026 -5.73607,-3.859 -17.55294,5.302 -42.01638,32.571 -48.92366,38.734 -46.15083,41.176 1.98001,1.748 6.56503,-0.03 15.77687,-6.128 17.68708,-11.7 44.46556,-25.588 45.77577,-23.739 0.58881,0.832 -9.70712,9.518 -22.87962,19.302 -13.17297,9.786 -24.01418,18.514 -24.09137,19.396 -0.2489,2.845 19.72257,19.865 24.20899,20.631 6.86922,1.172 13.77008,-1.787 30.41506,-13.049 19.04586,-12.883 50.86429,-30.824 71.17699,-40.132 30.48923,-13.969 53.54938,-15.971 65.05852,-5.649 12.20341,10.946 15.29655,21.035 18.37235,59.928 1.81922,22.998 2.06852,44.471 0.66826,57.545 -1.22879,11.472 -1.4722,21.528 -0.54124,22.349 0.93107,0.819 1.18191,4.485 0.55787,8.142 -1.54075,9.029 -11.68369,11.195 -39.10092,8.349 -18.20402,-1.887 -77.23226,-15.022 -97.05148,-21.59 -5.79754,-1.923 -7.87348,-0.926 -19.31429,9.282 -7.0503,6.291 -12.89107,11.862 -12.97954,12.38 -0.0881,0.517 3.47171,2.28 7.91135,3.915 22.61819,8.333 39.03581,25.809 34.38144,36.599 -1.30976,3.036 -4.74105,6.781 -7.62457,8.318 -6.96593,3.714 -28.52308,6.603 -44.0066,5.895 -12.38072,-0.564 -12.4335,-0.537 -6.26135,3.175 9.86928,5.937 12.23585,8.408 12.34733,12.894 0.28405,11.388 -13.43226,10.097 -73.66149,-6.935 l -40.06234,-11.328 -25.47019,7.229 c -20.70689,5.876 -47.23907,11.75 -78.92231,17.474 -2.38278,0.43 -0.55156,2.879 5.59904,7.485 12.12137,9.08 28.54752,33.736 27.30987,40.989 -1.45362,8.519 -4.33433,12.046 -11.77432,14.414 -9.28591,2.957 -37.77686,-2.48 -65.8682,-12.567 z m 59.90587,-5.162 c 0.89569,-5.249 -9.13552,-20.569 -17.26971,-26.372 -5.14705,-3.675 -9.88238,-6.309 -10.52265,-5.856 -0.64016,0.453 2.15646,4.575 6.215,9.158 4.05872,4.582 8.12902,11.625 9.04473,15.652 1.19952,5.272 3.14499,7.572 6.95347,8.222 2.90842,0.496 5.41886,0.135 5.57916,-0.804 z m -45.11248,-21.259 c -5.77567,-8.153 -10.36382,-15.628 -10.19595,-16.612 0.42017,-2.462 -7.95077,-3.685 -9.9228,-1.447 -2.73436,3.101 19.15406,30.827 25.19085,31.909 4.90244,0.866 4.40673,-0.473 -5.0721,-13.85 z m -16.45368,6.654 c 0.59864,-3.508 -13.47289,-23.897 -16.89718,-24.482 -6.22341,-1.062 -5.35674,2.744 3.2196,14.138 7.03853,9.35 13.06919,13.91 13.67758,10.344 z m -36.84012,-18.732 c -0.54692,-1.353 -2.68883,-2.73 -4.75951,-3.065 -3.24486,-0.523 -3.35498,-0.231 -0.79813,2.116 3.87384,3.556 6.8167,4.058 5.55764,0.949 z m -76.01054,-43.918 c 0.3186,-1.867 7.69348,-13.736 16.38828,-26.374 20.4259,-29.687 24.734,-45.619 21.1309,-78.144 -2.6736,-24.133 -2.4345,-27.845 1.7487,-27.131 5.1295,0.875 9.0766,9.614 12.9805,28.735 5.24829,25.711 3.12622,46.152 -6.7546,65.063 -7.9837,15.278 -16.506,27.624 -24.897,36.062 -6.9806,7.019 -6.8269,7.633 2.3054,9.191 7.6221,1.301 8.2733,0.831 17.3035,-12.489 16.78206,-24.755 21.59368,-35.305 24.87653,-54.544 3.74204,-21.93 2.38002,-40.975 -4.22293,-59.056 -5.30997,-14.541 -29.0716,-49.338 -32.6898,-47.874 -1.2033,0.488 -1.9029,-0.78 -1.5553,-2.818 0.798,-4.676 -2.6756,-4.027 -20.8651,3.907 -22.20268,9.684 -61.35068,38.861 -80.63602,60.101 -23.1187,25.459 -35.5557,40.128 -34.8586,41.114 0.3189,0.449 15.5604,0.352 33.8696,-0.215 18.30964,-0.568 40.02074,0.109 48.24764,1.501 13.6859,2.325 15.1969,3.082 17.775,8.996 2.5281,5.801 2.3774,7.007 -1.4725,11.761 -4.0899,5.048 -5.1646,5.153 -23.1233,2.236 -14.2821,-2.317 -23.6562,-2.345 -38.7852,-0.1 -27.93534,4.146 -54.60364,10.422 -53.70584,12.641 0.416,1.028 6.9074,3.717 14.4258,5.972 7.5181,2.258 18.5467,5.689 24.5077,7.625 5.9609,1.938 28.07064,6.608 49.13284,10.379 33.0041,5.909 38.3736,6.392 38.8738,3.461 z m -40.7227,-93.183 c -7.7007,-5.48 -4.1147,-17.273 7.5358,-24.783 11.6642,-7.519 20.1938,-6.724 25.1155,2.339 2.8202,5.192 2.8585,7.66 0.2056,13.175 -1.795,3.732 -3.2933,6.959 -3.3302,7.175 -0.036,0.214 -3.791,1.895 -8.3432,3.739 -9.1131,3.688 -14.2485,3.29 -21.1835,-1.645 z m 18.336,-16.956 c 0.2089,-1.224 -0.5618,-2.386 -1.7124,-2.582 -1.1504,-0.196 -2.8806,0.538 -3.8455,1.633 -0.964,1.094 -0.1932,2.254 1.7129,2.579 1.9063,0.326 3.6364,-0.408 3.845,-1.63 z m 226.02806,106.26 c 50.89625,-12.884 124.60702,-41.94 167.08149,-65.866 7.43593,-4.188 14.42855,-7.459 15.53914,-7.27 1.11059,0.19 2.26181,-1.077 2.55818,-2.813 0.57307,-3.359 5.35231,-3.834 26.1812,-2.6 10.9355,0.646 13.1425,0.07 13.76671,-3.585 1.99877,-11.714 -8.98641,-56.229 -14.0788,-57.05 -1.33565,-0.218 -7.33698,2.306 -13.33545,5.604 -22.41652,12.323 -40.80108,11.612 -52.33908,-2.021 -5.35376,-6.326 -40.52778,-23.605 -63.36975,-31.127 -8.51624,-2.807 -9.36145,-2.693 -8.44845,1.13 2.39557,10.028 1.00227,16.405 -4.42502,20.252 -10.42583,7.385 -11.66783,3.901 -3.9878,-11.192 1.72198,-3.385 1.09032,-6.396 -2.36362,-11.272 -4.0013,-5.649 -6.71573,-6.993 -17.97116,-8.913 -7.29154,-1.245 -14.69082,-3.114 -16.44277,-4.153 -2.6201,-1.554 -3.1971,-0.439 -3.25188,6.288 -0.041,5.045 -1.35243,9.283 -3.42171,11.057 -2.83865,2.436 -2.5,3.027 2.20199,3.829 12.72072,2.171 12.54609,17.64 -0.28999,25.692 -8.20191,5.144 -14.65254,5.056 -15.46138,-0.211 -0.23567,-1.534 3.10073,-4.994 7.41429,-7.692 10.34293,-6.468 10.53609,-9.955 0.90921,-16.401 -7.75616,-5.192 -7.8673,-5.496 -3.90103,-10.696 3.72439,-4.883 3.714,-5.542 -0.11688,-7.519 -2.30931,-1.192 -6.30833,-1.872 -8.88585,-1.516 -5.77801,0.804 -5.49998,-3.226 0.38844,-5.628 4.60425,-1.879 -1.31678,-2.559 -44.31561,-5.088 -41.99952,-2.472 -85.78945,2.728 -121.4261,14.42 l -10.9057,3.577 5.8684,3.494 c 16.4736,9.807 37.09368,36.972 44.03452,58.008 7.05293,21.377 8.17117,38.792 4.08608,63.635 -3.60463,21.93 -6.7333,29.42 -23.09346,55.308 -2.33232,3.69 -1.64284,3.966 11.84953,4.729 44.22093,-0.276 94.43012,-5.493 129.95248,-14.411 z m -40.07014,-23.974 c -14.45118,-8.173 -21.10763,-14.778 -21.6221,-21.46 -0.63983,-8.304 1.54516,-8.502 12.86505,-1.161 5.62576,3.649 14.26125,7.322 19.18974,8.163 l 8.96091,1.529 -3.21006,-8.427 c -2.55327,-6.701 -2.54994,-9.275 0.0162,-12.579 3.05368,-3.932 2.59968,-4.286 -8.44939,-6.587 -6.42214,-1.338 -14.03957,-2.845 -16.9276,-3.35 -5.00026,-0.863 -4.81729,-1.198 3.76142,-6.731 7.0225,-4.529 11.8633,-5.685 21.92421,-5.235 29.80072,1.335 59.70668,19.187 57.15822,34.122 -1.13152,6.631 -10.06192,12.282 -19.29451,12.208 -7.90491,-0.06 -9.23222,0.763 -11.77835,7.313 -1.57807,4.06 -4.86791,8.377 -7.31086,9.595 -6.26781,3.125 -22.80885,-0.345 -35.28292,-7.4 z m -54.68214,-38.596 c -2.20344,-3.111 -0.18148,-7.594 3.16704,-7.023 1.83399,0.313 3.08877,2.009 2.78802,3.772 -0.6338,3.714 -4.23438,5.679 -5.95506,3.251 z m 179.50868,12.025 c 0.17208,-1.008 3.21505,-3.758 6.76188,-6.108 5.08198,-3.367 6.32033,-3.522 5.84414,-0.731 -1.10981,6.504 -4.46212,10.118 -8.7107,9.393 -2.31461,-0.395 -4.06773,-1.544 -3.89532,-2.554 z m -170.2625,-47.971 c 0.22876,-1.341 3.08399,-5.091 6.34528,-8.337 7.9962,-7.959 6.70312,-16.735 -3.11556,-21.149 -8.03297,-3.612 -6.47076,-7.488 2.36701,-5.874 15.79174,2.89 20.34422,24.03 7.32427,34.018 -6.55949,5.032 -13.67675,5.771 -12.921,1.342 z m 161.02953,27.447 c -0.60581,-1.498 3.17533,-5.742 8.40299,-9.433 7.89978,-5.578 9.76772,-6.087 11.06156,-3.014 2.30018,5.463 0.88333,10.796 -3.73805,14.07 -4.71798,3.342 -14.10893,2.373 -15.7265,-1.623 z m -106.59084,-31.77 c -1.19599,-2.955 6.90611,-12.448 10.15178,-11.894 3.42944,0.585 1.12746,8.649 -3.38102,11.843 -4.82992,3.421 -5.40483,3.427 -6.77076,0.05 z m 51.56719,-0.173 c 0.6089,-3.568 9.10603,-12.251 11.57756,-11.829 1.1596,0.198 1.24011,3.557 0.17885,7.467 -1.47868,5.445 -3.12584,7.071 -7.05248,6.961 -2.81764,-0.08 -4.93454,-1.247 -4.70393,-2.599 z m 109.6553,14.339 c 0.42203,-2.473 -0.71674,-5.697 -2.5307,-7.163 -3.95967,-3.195 -0.92678,-7.436 4.64016,-6.486 6.3304,1.081 11.3133,10.551 7.68212,14.6 -4.52491,5.046 -10.71233,4.445 -9.79141,-0.952 z m -231.74942,-47.368 c -1.39573,-2.418 -0.45419,-4.837 3.5481,-9.117 11.49442,-12.294 6.93896,-21.741 -13.37178,-27.735 -13.22283,-3.899 -13.84531,-6.574 -1.81753,-7.803 12.16515,-1.245 15.59546,-0.38 24.33106,6.136 13.51059,10.075 14.05206,26.951 1.17854,36.747 -8.38257,6.378 -11.0147,6.714 -13.86839,1.772 z m 174.91163,26.248 c -0.47555,-1.174 3.22611,-5.124 8.22633,-8.779 11.44392,-8.361 13.46455,-16.531 5.37324,-21.726 l -5.67034,-3.641 6.75192,0.249 c 14.29353,0.528 16.57115,20.952 3.56312,31.961 -6.66838,5.643 -16.32941,6.667 -18.24427,1.936 z m -118.27078,-25.267 c 0.22792,-1.336 2.84921,-4.631 5.82491,-7.321 2.97616,-2.693 5.89936,-7.758 6.49666,-11.258 0.86776,-5.086 -0.26359,-7.208 -5.63049,-10.578 -6.59568,-4.14 -6.61639,-4.23 -1.15619,-5.021 3.96421,-0.574 7.02503,0.729 10.6646,4.539 6.88738,7.209 5.91793,19.656 -2.15701,27.693 -5.66529,5.639 -14.89073,6.917 -14.04248,1.946 z m 212.8917,35.012 c -2.31959,-3.273 0.16193,-9.886 3.49633,-9.317 2.07493,0.354 2.97618,2.669 2.38596,6.128 -0.92076,5.396 -3.37578,6.728 -5.88229,3.189 z m -30.81406,-18.604 c 0.23033,-4.363 1.18394,-7.803 2.1174,-7.644 2.79489,0.477 5.20036,10.148 3.31478,13.326 -3.13622,5.287 -5.86121,2.437 -5.43218,-5.682 z m -168.61539,-55.081 c -1.2937,-3.871 -0.93173,-4.735 1.79222,-4.27 1.93076,0.33 3.08329,2.514 2.65404,5.029 -0.41749,2.447 -1.22379,4.368 -1.792,4.271 -0.56843,-0.1 -1.76291,-2.36 -2.65426,-5.03 z m 140.44459,179.594 c -3.16407,-7.714 1.66113,-9.05 24.18482,-6.693 11.30434,1.184 20.67523,1.439 20.82459,0.563 0.14903,-0.873 -6.92028,-4.043 -15.70951,-7.045 l -15.98082,-5.454 -16.83381,6.706 c -29.36397,11.694 -28.78756,10.928 -10.56717,14.037 15.45075,2.637 15.99755,2.554 14.0819,-2.114 z m 88.31865,-7.537 c 7.46203,-2.479 7.81864,-2.969 4.76067,-6.528 -2.03988,-2.374 -8.48569,-4.773 -16.83453,-6.265 -7.44256,-1.321 -19.40505,-4.183 -26.58665,-6.341 -11.23252,-3.376 -13.93627,-3.443 -19.35025,-0.474 -7.53327,4.128 -7.49791,4.151 19.44722,13.315 26.19637,8.907 29.21369,9.398 38.56354,6.293 z m 65.20503,-78.123 c 8.77848,0.173 25.32442,1.248 36.76927,2.387 l 20.80844,2.073 1.28727,-7.544 c 1.49214,-8.745 2.58665,-8.294 -18.16886,-7.491 -8.86594,0.342 -26.58427,-0.464 -39.37344,-1.793 l -23.25378,-2.414 0.19414,6.83 c 0.10662,3.758 -0.0735,8.399 -0.40018,10.314 -0.5327,3.122 -0.24416,3.163 2.79059,0.405 2.0216,-1.838 9.8138,-2.951 19.34622,-2.765 z m 27.23709,11.813 c -6.29767,-1.537 -17.30133,-3.418 -24.45044,-4.192 -7.15056,-0.765 -1.9974,0.491 11.45099,2.792 13.44964,2.295 19.29941,2.925 13.00146,1.388 z m -5.29144,-30.497 36.88286,4.806 0.24751,-10.457 c 0.13626,-5.752 -0.34498,-11.334 -1.06917,-12.406 -0.72425,-1.071 -10.72186,-0.459 -22.21661,1.36 -11.49537,1.821 -27.7304,3.769 -36.07813,4.329 -23.31484,1.571 -23.14878,1.531 -22.37594,5.396 0.39441,1.97 2.28308,3.253 4.22014,2.867 1.92859,-0.387 20.10389,1.461 40.38934,4.105 z m -447.12956,-101.746 c 1.0547,-1.966 9.4769,-15.417 18.71656,-29.895 9.23909,-14.476 16.86564,-26.715 16.94772,-27.196 0.23448,-1.374 -12.94327,-8.27 -14.15721,-7.408 -0.59586,0.42 -5.04562,9.411 -9.88767,19.976 -10.4978,22.906 -17.2636,34.402 -26.1227,44.395 -3.6148,4.075 -6.665,7.952 -6.7775,8.611 -0.4711,2.761 19.5247,-5.211 21.2808,-8.483 z m 441.78931,78.195 c 21.10879,-0.786 39.28401,-1.795 40.38872,-2.24 1.10534,-0.449 1.84456,-2.097 1.64273,-3.663 -0.20184,-1.567 -0.49505,-5.634 -0.6515,-9.038 l -0.28448,-6.189 -18.58904,5.066 c -10.22419,2.786 -28.91018,6.587 -41.52448,8.448 -12.61457,1.861 -23.61156,3.862 -24.43811,4.448 -2.25627,1.599 0.31241,6.525 2.86421,5.49 1.21672,-0.491 19.48345,-1.537 40.59195,-2.322 z m 1.00673,-21.374 40.05556,-6.199 0.35666,-6.595 c 0.19588,-3.626 -0.36297,-7.655 -1.24227,-8.952 -0.94691,-1.393 -10.88841,1.27 -24.36706,6.528 -12.52208,4.884 -32.25543,11.692 -43.85189,15.128 -11.59602,3.435 -21.22254,7.058 -21.39226,8.053 -0.16938,0.992 2.09801,1.003 5.03917,0.02 2.94087,-0.983 23.37217,-4.576 45.40209,-7.983 z m -414.64345,-61.161 c 4.50766,-1.532 16.81194,-11.646 29.93633,-24.605 12.25554,-12.1 22.35911,-22.448 22.45213,-22.993 0.093,-0.545 -2.89303,-0.903 -6.63586,-0.796 -5.51052,0.155 -7.85701,-1.29 -12.33748,-7.618 l -5.53298,-7.811 -4.10888,4.42 c -3.36113,3.614 -36.43402,57.836 -36.88313,60.467 -0.31605,1.853 6.0475,1.337 13.10987,-1.064 z m 89.30809,-26.741 c 20.62851,-19.082 23.91513,-23.282 14.8741,-19.001 -6.92858,3.278 -16.67073,1.753 -19.44078,-3.042 -1.15769,-2.004 -2.36394,-6.449 -2.68136,-9.875 -0.5565,-6.008 -0.96944,-5.781 -11.64139,6.446 -6.0858,6.974 -17.73404,19.647 -25.88583,28.167 -8.1513,8.52 -14.93638,16.167 -15.07768,16.995 -0.14129,0.829 8.87129,0.803 20.02751,-0.06 l 20.28441,-1.559 z m 359.96421,51.007 c -4.65572,-8.063 -17.64337,-4.732 -54.30616,13.928 -13.97244,7.111 -25.49262,13.445 -25.60011,14.075 -0.10765,0.631 18.25793,-4.667 40.81193,-11.771 32.2616,-10.164 40.59972,-13.626 39.09434,-16.232 z m -193.00473,-10.99 c 9.84945,-7.255 25.11548,-17.167 33.92447,-22.029 11.32294,-6.245 15.22459,-9.468 13.31489,-10.994 -2.62592,-2.1 -11.10829,-4.81 -16.15254,-5.159 -2.51094,-0.175 -43.06305,32.224 -51.9381,41.492 -3.59722,3.758 -4.17603,5.509 -2.36334,7.147 3.93615,3.56 4.58594,3.268 23.21462,-10.457 z m -0.12443,-23.736 c 11.87994,-8 20.63786,-15.059 19.4624,-15.689 -1.1758,-0.628 -6.32329,-0.745 -11.43816,-0.265 -7.6884,0.725 -11.57605,3.159 -22.43177,14.038 -7.22233,7.237 -16.51827,16.137 -20.65763,19.776 -5.51999,4.853 -6.87709,7.208 -5.09185,8.84 1.57507,1.436 5.28093,-0.317 10.49582,-4.967 4.43369,-3.953 17.78144,-13.734 29.66119,-21.733 z m -138.6748,4.068 c 0.84286,-2.748 23.26815,-23.808 31.14113,-29.243 13.22291,-9.132 13.69185,-11.342 1.51581,-7.141 -8.70879,3.002 -10.20585,2.9 -17.42142,-1.193 -5.51824,-3.13 -8.26336,-3.785 -9.12171,-2.18 -0.67523,1.263 -8.13763,10.026 -16.58252,19.469 -8.44488,9.443 -15.44092,17.678 -15.54672,18.298 -0.16332,0.957 25.7244,2.94 26.01543,1.99 z m 100.20752,1.553 c 10.16154,-8.514 17.34606,-15.266 15.96576,-15.008 -4.76561,0.894 -40.46339,29.456 -37.45626,29.969 1.65848,0.283 11.32931,-6.45 21.4905,-14.961 z m -45.12522,1.706 c -0.65957,-3.926 -0.34819,-9.019 0.69219,-11.319 2.74673,-6.073 1.14168,-5.397 -6.80795,2.87 -9.53824,9.918 -9.60654,12.7 -0.35028,14.279 7.56875,1.292 7.64901,1.224 6.46604,-5.83 z m -14.01043,-11.529 11.73216,-11.783 -3.31949,-6.114 -3.31995,-6.113 -12.44227,12.264 c -6.84323,6.745 -13.96846,14.228 -15.83374,16.63 -3.16123,4.07 -2.88729,4.452 4.03003,5.632 6.54666,1.117 8.80365,-0.122 19.15326,-10.516 z" fill="#00B894" transform="translate(115.204,-155.49413) matrix(0.26417389,0.01471375,-0.01471375,0.26417389,387.55575,-3649.4076)"/>
</svg>