<?xml version="1.0" ?><svg height="216.79245mm" viewBox="0 0 185.90546 216.79245" width="185.90546mm" xmlns="http://www.w3.org/2000/svg">
    <path d="m 8545.2499,-375.10388 c 13.6144,-7.94231 15.7226,-20.50423 19.8649,-34.27256 4.1426,-13.76834 18.3586,-25.7574 27.1613,-27.11305 8.8027,-1.35564 24.3367,2.45711 28.1967,9.02357 3.86,6.56643 7.8349,10.04885 15.4407,13.2954 5.353,2.28492 4.2288,12.32172 1.4114,13.26688 -10.1393,3.40139 -21.8087,8.21052 -17.6051,14.23438 3.0159,4.32181 3.6689,4.45728 7.8213,17.18398 4.1524,12.72672 -9.1992,51.99604 -19.3666,64.61839 -10.1674,12.62237 -12.2765,23.55234 -12.2765,23.55234 0,0 -5.7241,18.133 -20.3645,9.95492 -9.5708,-5.34626 -9.3831,-11.34807 -16.8206,-36.21581 -7.4377,-24.86776 -13.463,-67.52844 -13.463,-67.52844 z" fill="#FFFFFF" transform="translate(-87.560444,-67.573177) translate(-8369.4192,523.28059)"/>
    <path d="m 8574.2892,-239.82703 c -0.4104,-0.63513 -0.7459,-6.12366 -0.7459,-12.1967 v -11.04182 l -4.9619,-10.60018 c -2.7291,-5.8301 -5.209,-11.64505 -5.511,-12.9221 -0.5131,-2.1711 -0.8058,-2.29283 -4.5102,-1.87523 -3.6425,0.41055 -4.219,0.18879 -7.1651,-2.75751 -3.6774,-3.67735 -3.9107,-3.77368 -3.9107,-1.61387 0,2.26923 -1.7443,3.71005 -4.4917,3.71005 -1.5552,0 -2.8701,0.76043 -3.8188,2.20841 -1.4746,2.25043 -5.2065,3.03735 -6.2669,1.32146 -0.3246,-0.52504 -1.6988,-0.01 -3.3687,1.26447 -4.2998,3.27978 -7.1633,4.12427 -10.2893,3.03444 -2.1439,-0.74732 -3.4878,-0.60692 -6.6716,0.69695 -5.0015,2.04836 -5.5326,3.69032 -6.309,19.50699 -0.4806,9.78797 -0.8399,11.93158 -2.2078,13.16962 -1.3497,1.22134 -1.8879,0.86877 -3.9039,0.44448 -3.6692,-0.77222 -1.8481,-9.89624 -1.6442,-14.181 0.6971,-14.64263 0.355,-17.32043 -2.3012,-18.01502 -2.7248,-0.71261 -3.1905,1.54691 -3.7184,18.0347 -0.2679,8.37249 -0.9032,15.487 -1.4791,16.56279 -1.1193,2.09135 -4.4246,2.69049 -5.6697,0.78943 -1.3559,-2.07022 -1.2598,-9.92255 -1.2275,-24.74645 0.027,-12.99902 -0.1728,-23.85891 -0.4475,-24.13318 -0.2741,-0.27423 -0.835,2.01371 -1.2462,5.08417 -0.6097,4.55081 -1.1155,5.74411 -2.7356,6.45486 -1.6433,0.72095 -1.9874,1.56995 -1.9874,4.90259 0,4.22981 -1.1242,6.15064 -3.5997,6.15064 -0.9372,0 -1.6739,0.97122 -2.0098,2.65003 -0.3152,1.57651 -1.0844,2.65005 -1.8986,2.65005 -0.7531,0 -1.7509,1.00397 -2.2173,2.23102 -1.9534,5.13769 -6.0837,3.4023 -8.9806,-3.77322 -1.9265,-4.7724 -2.0492,-6.21607 -2.0084,-23.63324 0.06,-26.22515 2.8933,-42.38096 9.6,-54.76761 1.5783,-2.91505 3.139,-6.66327 3.4683,-8.32949 0.7827,-3.96183 5.1278,-10.6614 9.4432,-14.56003 9.4795,-8.56434 24.2246,-11.99232 51.6454,-12.00697 11.98,-0.007 15.9874,-0.83495 19.8798,-4.11008 3.9308,-3.30766 4.9284,-5.78525 7.0673,-17.55472 2.0344,-11.19484 4.9075,-19.2596 8.6059,-24.15861 1.2395,-1.64176 2.363,-4.36496 2.497,-6.05151 0.2378,-2.98182 0.1653,-3.05476 -2.5613,-2.64653 -1.5425,0.23086 -4.0648,0.94229 -5.6047,1.58088 -2.3102,0.95793 -3.0443,0.95832 -4.1959,0 -4.8086,-3.99069 4.9954,-17.07943 14.9638,-19.97731 7.5845,-2.20483 10.9146,0.14748 12.9247,9.13042 0.7755,4.60845 0.5916,4.86645 5.0103,4.26079 2.1646,-0.29674 5.0222,-0.53947 6.3499,-0.53947 2.1508,0 2.4781,-0.40268 3.005,-3.69829 1.734,-10.84286 7.875,-14.20483 18.6266,-10.19716 4.2578,1.58705 11.829,6.90093 12.4012,8.70374 1.3196,4.15778 -2.8237,7.357 -9.5304,7.35898 -4.2568,0 -4.2177,0.81534 0.1001,2.1093 4.5305,1.35728 8.1347,4.24339 7.4681,5.98015 -0.3527,0.91979 -1.1878,1.19094 -2.5861,0.83994 -3.621,-0.90882 -1.4349,2.01933 3.298,4.41781 4.4762,2.26812 5.4047,4.24651 2.8651,6.10361 -1.2352,0.90319 -0.8874,1.21033 2.4291,2.14542 6.4395,1.81541 8.7292,4.50546 8.7292,10.25528 0,4.32097 -3.5748,7.83107 -9.8261,9.64842 -4.4794,1.30217 -4.9748,1.73259 -7.6995,6.68905 -3.1724,5.77033 -5.1432,7.31777 -8.7815,6.89502 -2.4972,-0.29011 -3.1999,-1.6356 -4.1802,-8.0046 -4e-4,-5.08012 -4.0738,-3.31255 -8.2236,-3.31255 -9.0298,0 -11.6399,1.20955 -11.6399,5.39403 0,3.94037 -2.3243,7.85679 -4.6602,7.85289 -2.5222,-0.007 -7.3202,-2.924 -8.5348,-5.19384 -0.7535,-1.40736 -1.5452,-1.66011 -3.9691,-1.26679 -2.9279,0.47511 -3.0606,0.37102 -4.0078,-3.14745 -0.7142,-2.65229 -1.4378,-3.63884 -2.6688,-3.63884 -0.9287,0 -2.0793,-0.69565 -2.5566,-1.5459 -0.7289,-1.29827 -0.9355,-1.33365 -1.291,-0.22085 -0.2329,0.72875 -0.8651,2.70279 -1.405,4.38674 -0.5399,1.68393 -2.5994,5.54464 -4.5766,8.57935 -3.2131,3.98355 -3.6833,5.25169 -2.1822,9.77091 1.9204,5.78186 5.4748,10.8303 7.6251,10.8303 1.0327,0 2.7299,1.42233 4.1642,3.48964 1.6126,2.32468 2.9071,3.34639 3.8779,3.06034 0.8549,-0.25182 2.1404,0.43978 3.1112,1.67364 1.3406,1.70451 1.9533,1.91955 3.2339,1.13553 1.2923,-0.79131 1.9691,-0.51968 3.7191,1.4929 2.8125,3.23479 5.2925,11.66247 4.1712,14.17536 -0.5316,1.19147 -0.5036,2.93434 0.078,4.82939 0.6263,2.04074 0.6242,3.42552 0,4.44196 -0.5039,0.81229 -1.41,3.54403 -2.0137,6.07073 -1.1731,4.91065 -2.7807,6.94847 -4.8535,6.15293 -0.9299,-0.35677 -1.3594,0.28567 -1.5572,2.33038 -0.2504,2.58546 -0.5336,2.82312 -3.3649,2.82312 -3.0315,0 -3.0974,0.0769 -3.3734,3.95769 -0.3369,4.73723 -1.5281,6.44637 -3.9554,5.67587 -1.697,-0.53848 -1.7541,-0.29209 -1.2308,5.31255 0.6999,7.49394 6.7928,20.54477 6.7928,14.54984 0,-1.21885 0.5134,-2.91805 1.1406,-3.77586 1.0677,-1.46037 1.2084,-1.42892 2.2065,0.49364 0.5865,1.12932 1.6353,3.64341 2.3307,5.58683 l 1.2645,3.53337 v -6.18344 c 0,-3.40093 -0.3215,-8.17101 -0.7262,-10.60018 -1.1465,-6.88176 0.1853,-7.54998 2.9162,-1.46362 5.1699,11.52002 5.2997,26.29694 0.2128,24.33777 -0.6756,-0.26016 -0.8914,3.52621 -0.7224,12.66942 0.2687,14.51225 -0.4108,17.26611 -4.3742,17.72882 -1.2788,0.14924 -2.661,-0.24815 -3.0711,-0.88333 z m 52.343,-160.88744 c 5.9333,-1.08903 10.1967,-3.47686 10.9539,-4.90683 1.5693,-2.96341 -1.6254,-0.41432 -3.7367,-0.38054 -3.6319,0.0581 -5.6399,-3.4155 -3.7369,-4.37844 6.237,-3.1559 -5.6408,-2.47975 -8.8336,-2.51735 -13.5586,-0.15975 -12.9924,0.15676 -17.9776,-10.05468 -7.3049,-14.96294 -10.2726,-14.72994 -4.9579,0.38924 2.3978,6.8209 3.0802,9.95515 2.6936,12.37215 -0.6047,3.78213 0.8751,6.39442 5.0722,8.95371 3.2928,2.00779 9.1727,2.60603 18.727,0.85239 z m -32.9175,-20.7348 c 0,-1.54093 -0.4879,-2.13475 -1.7545,-2.13475 -2.0728,0 -2.9497,2.97017 -1.2031,4.07571 1.8273,1.15681 2.9576,0.41505 2.9576,-1.94096 z m 19.1376,-1.94412 c 0,-0.97172 -0.5301,-1.76673 -1.1779,-1.76673 -1.6614,0 -2.3129,0.85007 -1.7585,2.29475 0.7211,1.87896 2.9364,1.48052 2.9364,-0.52802 z m -23.0539,175.62425 c -0.6946,-1.29793 -0.8466,-4.34547 -0.4643,-9.3175 0.3603,-4.68939 0.2204,-8.03924 -0.3853,-9.16956 -0.76,-1.42003 -0.2354,-3.87271 2.5844,-12.1037 1.9456,-5.67752 3.8022,-11.79257 4.126,-13.58903 0.3238,-1.79649 1.1123,-3.98236 1.752,-4.8574 1.078,-1.47424 1.2095,-1.40799 1.7891,0.90181 0.3441,1.37105 0.3526,5.54441 0.025,9.2741 -0.3337,3.72968 -0.7829,13.34006 -0.9983,21.35646 -0.4465,16.62415 -1.1519,19.43372 -4.8783,19.43372 -1.6781,0 -2.8542,-0.64019 -3.5441,-1.9289 z m 15.9872,-57.05048 c 0,-1.34469 1.0073,-3.9277 2.2388,-5.73993 1.2314,-1.81223 3.0503,-5.18389 4.0419,-7.49274 1.7007,-3.96012 1.874,-4.10057 3.0611,-2.48297 2.7472,3.74357 0.3631,11.36697 -4.9541,15.84119 -3.5006,2.94553 -4.3877,2.92009 -4.3877,-0.12546 z m 12.1876,-20.2508 c -0.4832,-2.35006 1.437,-11.31312 2.4236,-11.31312 1.4503,0 2.5283,6.27506 1.6213,9.43716 -0.9217,3.21424 -3.5218,4.42013 -4.0449,1.87596 z m -28.8364,-12.91719 c -1.3827,-1.66603 -2.3342,-10.83293 -1.1971,-11.53559 2.2889,-1.41466 6.2259,7.1864 5.0235,10.97477 -0.6303,1.98541 -2.4256,2.24863 -3.8264,0.56082 z m 34.0108,-2.21968 c -1.8634,-2.05908 -1.9773,-7.21813 -0.1602,-7.21813 1.7528,0 4.2243,4.96154 3.5419,7.11101 -0.6813,2.14666 -1.5127,2.17303 -3.3824,0.10717 z m 3.089,-8.73409 c -1.2953,-2.4207 -2.2756,-14.04837 -1.2383,-14.68954 0.4776,-0.29501 1.5993,0.27169 2.4932,1.25944 2.2271,2.46068 2.9149,12.32352 0.9721,13.93586 -1.1225,0.9317 -1.5041,0.84496 -2.227,-0.50576 z m 2.2759,-17.28348 c -2.4767,-1.92546 -7.8859,-13.17881 -6.8381,-14.2263 1.3874,-1.38758 3.4968,0.19531 6.8573,5.14579 3.8486,5.66971 3.8351,12.07725 -0.025,9.08051 z" fill="#00B894" transform="translate(-87.560444,-67.573177) translate(-8369.4192,523.28059)"/>
</svg>