<?xml version="1.0" ?><svg height="88.579712mm" viewBox="0 0 73.626686 88.579712" width="73.626686mm" xmlns="http://www.w3.org/2000/svg">
    <path color="#000" d="m 2315.7202,12078.349 c 0,0 -22.6029,-24.852 -36.679,-9.017 -14.0762,15.836 -41.0288,47.865 -49.1066,52.112 -8.0777,4.247 -22.6338,4.175 -23.2736,-18.21 -0.6398,-22.385 10.3172,-61.685 33.5908,-79.607 23.2736,-17.923 55.9847,-19.362 65.2621,-6.478 9.2775,12.884 25.2731,52.399 25.2731,52.399 l 32.871,-5.326 c 0,0 24.3133,-28.431 43.668,-19.938 19.3547,8.494 55.2649,32.03 58.7839,53.48 3.5191,21.449 7.5179,88.1 -17.9951,61.9 -25.513,-26.2 -52.6255,-59.381 -52.6255,-59.381 0,0 21.2741,57.942 26.1528,75.792 4.8787,17.85 14.9559,94.434 15.2758,103.144 0.3199,8.709 -36.47,9.789 -36.47,9.789 0,0 -12.5395,32.433 -21.4341,36.132 -8.8946,3.699 -24.3933,-36.852 -24.3933,-36.852 l -47.9869,-1.944 c 0,0 -11.2405,23.486 -18.315,28.144 -7.0744,4.657 -28.3122,-16.843 -22.6338,-41.243 5.6785,-24.401 28.6322,-42.611 28.6322,-42.611 0,0 -33.6708,-12.308 -37.1098,-41.963 -3.4391,-29.655 35.2884,-110.446 58.513,-110.322 z" fill="#FFFFFF" overflow="visible" paint-order="fill markers stroke" transform="translate(-114.2746,-116.1163) matrix(0.26458333,0,0,0.26458333,-467.44341,-3058.3171)"/>
    <path d="m 2364.8712,12329.55 c -17.693,-7.128 -25.6037,-57.354 -11.6587,-71.301 5.792,-5.79 10.8117,-3.866 7.8117,10.612 -2.104,10.151 -1.807,15.645 1.441,26.809 8.158,28.022 16.852,30.201 23.406,5.866 5.272,-19.579 12.006,-31.832 20.025,-36.435 7.632,-4.384 13.2443,0.928 8.7063,7.213 -10.109,13.998 -10.2929,19.046 -12.8889,31.552 -1.922,9.26 -3.8408,18.744 -8.6118,23.517 -7.767,7.766 -19.8246,5.552 -28.2306,2.167 z m -84.5863,-7.409 c -7.796,-1.595 -12.7589,-6.748 -18.1599,-18.931 -8.245,-18.596 1.1312,-50.531 17.5282,-64.329 l 8.12,-6.834 -10.7225,-2.319 c -28.758,-19.739 -31.9251,-28.65 -30.2321,-58.454 1.946,-33.839 26.7366,-74.275 52.5196,-90.212 8.308,-5.133 5.4603,-4.162 1.2043,-7.39 -4.938,-3.746 -10.4116,-2.311 -17.0556,0.238 -2.28,0.875 -10.307,10.912 -20.101,24.114 -19.32,26.046 -31.4001,35.459 -43.3511,34.375 -12.289,-1.115 -22.4656,-17.542 -21.3286,-44.673 0.733,-17.495 2.331,-24.8 7.939,-36.261 7.613,-15.56 30.707,-40.982 47.7,-49.89 13.585,-7.122 39.4786,-2.954 49.5816,3.666 9.702,6.358 21.4454,28.352 26.3464,45.833 3.917,13.97 4.294,14.407 9.372,10.85 2.91,-2.037 9.766,-3.705 15.237,-3.705 7.378,0 10.1768,-8.736 16.5588,-14.339 11.493,-10.09 27.167,-14.259 39.606,-10.533 12.936,3.876 44.5882,26.826 52.3122,38.528 12.814,19.41 15.68,52.88 12.126,76.585 -2.331,15.54 -8.576,22.952 -19.336,22.952 -10.084,0 -17.959,-8.117 -36.631,-37.758 -6.802,-10.8 -12.952,-19.05 -13.667,-18.336 -0.715,0.715 1.578,7.406 5.095,14.868 15.001,31.828 27.457,83.696 31.185,129.852 1.509,18.695 1.149,22.321 -2.522,25.367 -6.265,5.2 -8.903,-0.393 -9.008,-19.096 -0.211,-37.713 -13.597,-86.412 -30.911,-131.49 -9.297,-24.202 -18.2826,-40.664 -28.4396,-40.664 -8.386,0 -8.1864,-6.747 -1.7384,-11.264 8.353,-5.85 19.353,-1.135 36.21,15.518 8.184,8.087 21.413,24.759 29.395,37.047 20.253,31.173 28.685,29.67 28.685,-5.115 0,-34.459 -11.884,-56.086 -41.127,-74.851 -10.862,-6.97 -14.379,-7.952 -24.873,-6.943 -12.679,1.218 -28.472,10.39 -28.472,16.536 0,2.326 -3.975,3.35 -13.01,3.35 -7.505,0 -16.026,1.781 -20.14,4.211 -10.514,6.21 -14.477,3.324 -15.909,-11.587 -2.499,-25.988 -20.681,-48.796 -38.903,-48.796 -21.78,0 -56.56,29.514 -63.898,54.227 -6.513,21.928 -4.104,53.009 4.107,53.009 6.334,0 20.108,-13.395 33.655,-32.728 12.965,-18.504 25.174,-28.55 34.697,-28.55 4.441,0 3.313,-3.334 -3.682,-10.877 -8.568,-9.243 -18.066,-9 -31.606,0.809 -17.724,12.839 -31.816,48.928 -22.674,58.07 2.383,2.381 2.12,3.063 -1.187,3.063 -10.315,0 -12.307,-18.299 -4.228,-38.842 10.527,-26.775 26.277,-40.309 47.4,-40.732 11.425,-0.23 12.952,0.536 22.839,11.457 5.927,6.545 12.431,17.316 14.762,24.444 l 4.167,12.738 -13.726,12.983 c -29.348,27.755 -48.018,81.656 -36.2,104.511 2.036,3.933 8.066,10.986 13.401,15.67 8.038,7.058 9.845,7.769 10.542,4.15 0.463,-2.403 -1.66,-9.536 -4.717,-15.85 -7.256,-14.99 -3.7303,-29.095 3.6997,-14.75 5.996,11.576 9.1853,16.002 17.6663,5.926 6.236,-7.413 14.434,-10.318 14.434,-5.115 0,1.4 -4.021,6.997 -8.936,12.437 -6.754,7.476 -8.937,12.154 -8.937,19.158 0,9.206 0.07,9.264 10.852,9.208 12.768,-0.05 29.096,-7.005 36.626,-15.564 2.942,-3.345 9.064,-15.465 13.605,-26.932 4.541,-11.468 10.464,-22.849 13.162,-25.29 4.731,-4.282 7.237,-1.153 7.237,5.991 0,9.069 -10.3109,43.956 -16.7019,54.435 -2.571,4.213 -13.2279,10.926 -20.8349,15.068 -11.446,6.234 -17.9526,5.545 -34.4826,6.083 -25.233,0.826 -22.8493,2.159 -27.6063,11.358 -5.26,10.17 -14.1607,27.705 -11.1087,36.485 6.614,19.04 12.1664,22.1 20.2174,3.632 11.475,-26.729 14.703,-29.297 19.611,-30.856 7.317,-2.323 11.6802,1.452 7.1342,10.24 -2.189,4.234 -6.7409,14.87 -9.0109,21.649 -8.092,24.18 -18.9586,31.705 -31.3616,29.165 z m 15.1299,-182.709 c -4.2971,-5.118 2.6215,-18.756 9.2023,-17.779 9.1033,1.351 5.179,17.764 1.2308,19.902 -3.3666,1.823 -8.2854,0.435 -10.4331,-2.123 z m 33.4476,2.914 c -2.217,-3.589 2.7682,-17.684 6.2984,-18.222 7.6804,-1.171 11.0383,7.54 7.8982,15.333 -2.7589,6.848 -11.7776,6.801 -14.1966,2.889 z" fill="#00B894" transform="translate(-114.2746,-116.1163) matrix(0.26458333,0,0,0.26458333,-467.44341,-3058.3171)"/>
</svg>