<?xml version="1.0" ?><svg height="123.06528mm" viewBox="0 0 230.189 123.06528" width="230.189mm" xmlns="http://www.w3.org/2000/svg">
    <path d="m -7422.2425,1162.2547 c 32.506,18.1176 36.8594,30.6073 90.2794,37.8718 53.4199,7.2645 154.0016,-16.1614 180.5755,-13.2229 26.5739,2.9384 53.8734,18.1203 61.4012,26.201 7.5277,8.0807 13.8764,13.4678 13.8764,13.4678 0,0 77.6357,4.8158 111.2839,25.9561 33.6482,21.1404 80.5855,51.4428 102.3525,87.6834 21.767,36.2407 25.0321,91.173 18.0485,119.6595 -6.9836,28.4865 -40.5411,63.9109 -81.8077,50.9328 -41.2667,-12.9781 -23.4903,-24.5685 -14.4207,-57.2994 9.0696,-32.7309 10.8835,-77.1338 -39.362,-98.4375 -50.2455,-21.3036 -106.9305,-31.0984 -106.9305,-31.0984 0,0 -25.6365,22.3615 -44.3503,45.709 -18.7138,23.3474 -98.3936,35.9137 -145.3741,44.8922 -46.9805,8.9786 -93.054,-2.7752 -115.2745,-7.7542 -22.2205,-4.979 -81.5356,-55.9934 -81.5356,-55.9934 0,0 -51.0618,17.7938 -86.2518,14.7738 -35.1901,-3.0201 -96.7726,-3.4282 -102.9399,-46.9333 -6.1673,-43.5051 13.1099,-89.2351 13.1099,-89.2351 0,0 -32.8319,-64.9721 -26.6646,-93.8666 6.1674,-28.8946 24.9414,-9.0602 32.7413,0.2448 7.7998,9.3051 26.5739,21.875 26.5739,21.875 0,0 50.4269,-24.5685 75.5497,-23.6707 25.1227,0.8979 45.4386,2.612 45.4386,2.612 0,0 38.8179,-50.3615 49.7014,-59.5849 10.8835,-9.2234 19.8624,-6.2034 22.5833,12.8148 2.7208,19.0182 1.3962,72.4024 1.3962,72.4024 z" fill="#FFFFFF" transform="translate(-40.382022,-78.79488) matrix(0.26458333,0,0,0.26458333,2077.8845,-200.48407)"/>
    <path d="m -2704.1406,5360.9414 c -10.9871,0 -19.3995,8.8478 -42.2559,44.4434 -9.685,15.0826 -19.0185,27.4218 -20.7461,27.4218 -1.7248,0 -8.7185,0.7017 -16.5216,-1.4427 -27.7383,-7.6226 -57.0631,-3.9868 -82.2259,15.6197 -13.7105,10.6839 -26.3521,7.5491 -26.3521,1.8602 0,-1.5816 -7.0261,-10.1137 -15.6133,-18.961 -18.6948,-19.2624 -30.8642,-23.379 -41.2754,-13.959 -16.3573,14.8035 -5.7641,94.2869 15.0782,113.1504 6.7545,6.1134 6.844,7.4937 1.4199,22.2637 -6.4368,17.5331 -11.7758,56.0596 -7.4297,80.2519 2.3772,13.2489 5.1466,16.6737 -0.4023,18.5704 -9.9318,3.3963 -28.6754,17.2061 -29.711,22.5644 -0.3601,1.8635 0.6827,6.3487 18.1113,-6.4668 12.2716,-9.0235 23.3924,-11.5171 26.8633,-9.1601 7.2871,4.9484 3.1069,2.4998 7.2871,4.9472 3.8839,2.2739 -1.3315,9.0993 -16.8789,20.1504 -17.0122,12.0923 -33.3248,22.8901 -21.3886,24.5371 1.7472,0.2411 14.8098,-7.9475 30.1543,-20.4551 28.2124,-22.9946 33.7851,-26.0696 33.7851,-18.6425 0,9.1641 9.4386,0.1485 11.7676,-11.2403 1.9631,-9.5916 1.3675,-11.788 -2.7402,-10.1191 -2.8851,1.1722 -7.7974,3.1647 -10.918,4.4277 -10.4849,4.2433 -6.3666,-12.1136 4.2715,-16.9609 15.5771,-7.0972 7.9831,-8.9636 -10.4082,-2.5586 -20.2125,7.0388 -22.2552,7.1452 -22.1133,1.1484 0.2042,-8.2663 32.9278,-29.9009 48.3574,-31.9707 17.6168,-2.3625 18.5941,-0.4766 16.6055,31.959 -1.4014,22.8162 -1.7639,23.5484 -10.5723,21.3379 -7.8439,-1.9688 -9.1211,-0.9464 -9.1211,7.3066 0,12.4818 10.3133,23.2725 16.9629,17.752 3.3219,-2.7552 7.9647,-2.7961 14.9746,-0.1309 21.6394,8.2271 69.8176,3.7973 101.3946,-9.3242 4.8736,-2.025 6.621,-0.952 6.621,4.0664 0,3.7495 4.357,11.3662 9.6875,16.9278 6.4396,6.7219 12.1448,20.1081 17.0157,39.9238 9.0977,37.0242 17.9655,57.527 26.9668,62.3437 5.6311,3.0147 7.5978,1.9224 10.5566,-5.8593 2.7319,-7.1812 1.3841,-17.3416 -5.4102,-40.7969 -4.9758,-17.1788 -8.7549,-31.4164 -8.4003,-31.6406 0.3575,-0.2241 8.1149,2.9117 17.2382,6.9687 l 16.586,7.377 -2.3711,28.9472 c -2.8822,35.1513 0.6887,51.1939 11.7637,52.8203 11.5516,1.6964 19.694,-13.0288 25.1464,-45.4687 l 4.6329,-27.5762 39.4746,-2.2597 c 21.7132,-1.2425 45.6441,-3.5188 53.1816,-5.0586 l 13.7051,-2.8008 2.539,18.2988 c 3.3532,24.1858 9.4561,39.1016 15.9922,39.1016 8.6297,0 13.4537,-18.7215 10.2168,-39.6367 -4.1106,-26.56 -4.3231,-25.7142 7.1973,-28.795 l 10.4023,-2.7812 v 39.1426 c 0,21.5285 1.6612,43.5094 3.6895,48.8457 4.0567,10.6708 15.4039,12.9239 22.4336,4.455 6.6864,-8.0572 15.361,-54.2596 15.418,-82.2734 l 0.057,-25.1094 24.3379,-15.2597 c 14.3431,-8.9931 28.5769,-21.6642 34.6562,-30.8516 7.4241,-11.22 12.001,-14.8616 16.3243,-12.9902 12.9446,5.6068 55.8723,21.1773 68.414,24.8164 20.5359,5.958 44.1751,21.005 54.7168,34.8281 13.1204,17.199 12.6031,36.9445 -1.7598,67.3027 -6.2383,13.189 -11.3187,26.5338 -11.2617,29.6543 0.1021,7.0998 10.7377,20.3813 20.7149,25.8692 h 0.01 c 4.1617,2.2879 17.4216,4.2134 29.4668,4.2754 40.0137,0.2102 64.9182,-19.7518 78.1719,-62.6582 10.6495,-34.4835 5.711,-70.6688 -15.5625,-114.0215 -19.5771,-39.8917 -60.1114,-79.6919 -102.4825,-100.6289 -28.4223,-14.0433 -83.9671,-28.7228 -109.2519,-28.8731 -10.5304,-0.063 -15.2344,-2.3517 -20.0996,-9.7754 -3.495,-5.3313 -14.2344,-14.6922 -23.8711,-20.8027 -16.3998,-10.4007 -19.9466,-11.11 -55.5489,-11.082 -41.503,0.031 -69.3578,3.5819 -120.7558,15.3945 -28.9159,6.6448 -37.1917,7.1476 -59.8184,3.6367 -14.4423,-2.2408 -30.2474,-6.6868 -35.1211,-9.8808 -13.9601,-9.1474 -15.7514,0.6681 -2.3984,13.1425 21.9799,20.532 59.7394,24.1297 120.0762,11.4414 20.5132,-4.3134 58.114,-8.8135 83.5605,-10.0019 44.8108,-2.0924 46.7204,-1.863 60.584,7.3125 19.7246,13.0537 34.2732,35.4557 39.6406,61.0508 4.068,19.3927 3.7747,22.954 -2.9004,35.4199 -4.0822,7.6229 -15.3076,22.4539 -24.9472,32.957 l -17.5254,19.0957 -13.8067,-6.584 c -30.6294,-14.6055 -59.1818,-4.5781 -76.7929,26.9668 -9.9573,17.8307 -11.4109,18.8366 -35.6914,24.6973 -13.9204,3.3599 -35.3214,7.1544 -47.5567,8.4336 l -22.25,2.3242 -4.8593,-16.2226 c -2.6724,-8.9233 -9.8949,-21.2585 -16.0508,-27.4122 -9.7559,-9.7559 -13.1563,-10.9264 -26.5547,-9.1289 -16.987,2.2785 -37.2227,18.5077 -37.2227,29.8536 0,3.7716 -0.934,6.8574 -2.0801,6.8574 -5.5346,0 -27.7436,-13.6831 -39.9335,-24.6035 l -13.6426,-12.2266 10.3066,-6.0898 c 5.6708,-3.3494 18.7814,-13.7071 29.1387,-23.0176 13.5545,-12.1883 19.9806,-15.7783 22.9394,-12.8184 7.0836,7.0848 17.0445,0.3407 15.0332,-10.1797 -0.9901,-5.175 -0.5689,-9.4082 0.9375,-9.4082 1.5063,0 15.2059,5.1419 30.4454,11.4258 15.2395,6.2842 29.5126,10.8246 31.7168,10.0899 4.8084,-1.6031 -8.0403,-9.1363 -33.7989,-19.8145 -13.492,-5.5942 -18.9101,-9.9426 -18.9101,-15.1738 0,-6.7369 2.4503,-7.239 30.2343,-6.1973 16.6296,0.6233 36.6381,2.5713 44.4649,4.3301 7.8269,1.7577 15.0839,1.8195 16.125,0.1347 3.2057,-5.1852 -28.825,-15.0618 -58.2715,-17.9687 -18.9331,-1.869 -28.8904,-4.593 -30.8223,-8.4336 -1.5688,-3.1205 -5.9825,-13.3337 -9.8066,-22.6953 -3.824,-9.3616 -14.3668,-25.0224 -23.4277,-34.8027 l -16.4707,-17.7832 4.582,-18.1504 c 9.3445,-37.0364 8.9457,-59.6162 -1.457,-82.3379 -7.7048,-16.8319 -11.3359,-20.918 -18.584,-20.918 z m -6.2735,29.5078 c 10.4148,1.5882 14.5138,80.165 3.5352,93.3906 -2.9219,3.5216 0.4719,10.0948 12.9512,25.0957 l 16.9101,20.3243 -13.1328,2.2558 c -17.4296,2.9918 -31.8828,16.9121 -31.8828,30.7051 0,5.9614 3.533,17.7636 7.8535,26.2285 l 7.8477,15.3906 -12.5782,-9.4277 c -16.292,-12.2106 -23.0991,-14.0803 -52.8945,-14.5273 -30.3628,-0.4556 -45.2006,6.4975 -54.1621,25.3847 -6.4172,13.5096 -6.4366,32.0414 -0.057,47.8653 h 0.01 c 2.139,5.306 0.6874,6.6211 -7.3125,6.6211 -13.1402,0 -14.8496,-5.8718 -9.8086,-33.6817 5.3106,-29.2813 0.095,-43.2033 -16.9121,-45.1406 -16.5048,-1.8797 -37.4349,5.5325 -50.7539,17.9746 -13.492,12.6026 -13.7796,11.2003 -5.7031,-27.8633 5.3049,-25.6431 5.3572,-30.3964 0.4551,-41.0664 -14.2182,-30.9465 -24.0853,-79.4338 -18.125,-89.0762 1.6255,-2.6297 9.4786,2.7695 20.9082,14.3731 23.8578,24.2227 30.8647,25.6887 57.8828,12.1133 37.2931,-18.7379 53.8845,-20.4226 97.4414,-9.8965 20.7203,5.0079 39.0846,7.6974 40.8066,5.9766 1.7276,-1.721 2.6,-11.4368 1.9532,-21.5899 -1.5063,-23.6712 -10.0582,-26.4632 -21.9786,-7.1758 -4.6354,7.4978 -9.3178,12.7419 -10.4043,11.6543 -2.244,-2.242 27.2514,-48.7339 34.9903,-55.1562 0.7478,-0.6207 1.4697,-0.8579 2.164,-0.752 z m -208.3027,80.1836 c -10.5673,0 -12.3861,5.9527 -5.7422,18.8008 6.8396,13.2231 24.6445,16.6435 24.6445,4.7344 0,-10.0739 -10.8117,-23.5352 -18.9023,-23.5352 z m 588.7539,68.3945 c 3.118,0.033 8.3585,1.4992 16.5488,3.9532 23.9401,7.173 29.7817,36.0353 13.6797,67.6015 -8.6098,16.8809 -15.0588,20.3602 -30.2246,16.3047 -5.1233,-1.3697 -6.3286,-4.0297 -4.5527,-10.0293 5.1063,-17.2307 6.5608,-50.3739 2.8105,-63.957 -2.7606,-9.9971 -3.4584,-13.9278 1.7383,-13.8731 z m -444.1465,0.4141 c -9.7162,-1.4527 -14.4022,10.8449 -8.4023,22.0547 4.8709,9.1046 14.2498,8.6287 20.332,-1.0313 5.3134,-8.4359 -0.8944,-19.3734 -11.9297,-21.0234 z m -27.1797,6.8398 c -9.0269,0 -16.7739,11.7874 -11.296,22.0233 4.8397,9.0391 17.7215,7.6657 20.8392,-0.4591 3.8212,-9.9598 -1.7476,-21.5642 -9.5432,-21.5642 z m 117.2754,4.0723 c 6.5638,-0.01 13.5054,2.2993 19.2188,6.9258 l 8.914,7.2168 -12.9648,3.3594 c -18.5274,4.8013 -19.4062,12.3643 -1.5,12.9062 7.9744,0.2414 11.7666,1.1692 8.4277,2.0625 -3.339,0.8936 -8.3802,5.9356 -11.1972,11.2031 -6.3119,11.7908 -18.6621,19.4002 -18.6621,11.4961 0,-2.9293 -3.547,-13.3394 -7.8789,-23.1328 -7.4949,-16.9433 -7.5571,-18.1567 -1.3047,-25.0664 4.1985,-4.6389 10.3835,-6.9625 16.9472,-6.9707 z m 409.3125,4.3633 c 1.0548,-0.1196 2.4713,0.1883 4.3301,0.6875 4.346,1.1665 9.411,2.1409 11.2578,2.1719 6.1134,0.094 -0.2623,47.1662 -8.6055,63.5195 -5.0496,9.8989 -10.7475,15.9648 -15,15.9648 -11.6082,0 -11.9218,-3.9977 -1.8652,-23.8417 7.8921,-15.5506 9.3818,-22.9626 8.0059,-39.5372 -1.1936,-14.403 -1.2874,-18.6059 1.8769,-18.9648 z m 30.9258,10.4766 c 0.922,0 7.7296,3.5732 15.1309,7.9394 12.2268,7.2149 13.455,9.4795 13.455,24.8496 0,12.6631 -2.8948,21.1206 -11.5273,33.668 -11.2453,16.3413 -19.1778,19.9559 -29.4727,13.4297 -4.1049,-2.6028 -3.5696,-6.1475 2.836,-18.7031 5.4326,-10.6515 7.9043,-22.6305 7.9043,-38.3379 0,-12.5649 0.7547,-22.8457 1.6738,-22.8457 z m -476.459,49.0742 c 7.4495,8.2343 7.4498,8.248 -1.9004,15.4433 -5.1489,3.9611 -20.4221,11.4005 -33.9453,16.5332 -37.1939,14.1173 -50.0625,15.5482 -55.7929,6.1993 -14.2523,-23.2573 1.1203,-56.1435 25.9453,-56.9903 28.5838,-0.975 44.4122,-3.7551 65.6933,18.8145 z m 522.086,-18.3535 c 2.5917,-0.6091 8.0098,3.5016 16.7207,12.4902 l 12.5527,12.9492 -7.709,10.6895 c -4.2411,5.8796 -14.2386,16.965 -22.2129,24.6347 -12.8112,12.3196 -15.3029,13.3543 -21.3652,8.8633 -6.4708,-4.794 -6.0936,-6.0901 6.6211,-22.7461 12.6296,-16.5456 15.3222,-24.5639 13.6797,-40.7226 -0.3798,-3.7282 0.1578,-5.7928 1.7129,-6.1582 z m -554.6739,4.5234 c -11.2957,-2.602 -20.4195,-1.4168 -27.8691,2.6875 -7.3905,8.3088 -6.977,10.1959 3.5527,17.0957 6.9106,4.5274 11.0415,5.0471 16.5762,2.084 17.9377,-12.5677 14.4933,-18.6566 7.7402,-21.8672 z m 592.8711,33.0391 c 2.4062,-0.2439 6.4868,4.2549 11.1446,12.9043 l 7.0586,13.1015 -9.2989,9.961 c -5.112,5.4779 -15.611,13.1977 -23.3301,17.1562 -16.9898,8.7134 -21.4583,8.9684 -24.3632,1.3926 -1.4553,-3.7872 4.5014,-12.2544 17.1367,-24.3711 10.6523,-10.2129 19.3672,-21.219 19.3672,-24.457 0,-3.6881 0.8415,-5.5412 2.2851,-5.6875 z m 23.1231,40.0273 c 1.6957,-0.4369 2.7842,1.2962 4.6777,4.834 6.6241,12.3761 4.5742,17.5093 -10.2285,25.6484 -17.7388,9.7534 -41.0275,14.2457 -44.5254,8.5879 -3.0439,-4.927 -4.0061,-4.1634 16.3965,-13.041 8.9729,-3.9041 20.3825,-11.9349 25.3555,-17.8457 4.3247,-5.1399 6.6284,-7.7467 8.3242,-8.1836 z m 14.5097,39.2051 c 0.9305,0 1.6895,6.6257 1.6895,14.7246 0,9.9381 -1.9456,15.472 -5.9824,17.0215 -9.5602,3.6683 -44.2907,2.1644 -53.5899,-2.3203 -12.78,-6.1637 -10.275,-10.5137 6.0567,-10.5137 8.2723,0 22.2495,-4.0844 32.3515,-9.4551 9.7814,-5.2011 18.5442,-9.457 19.4746,-9.457 z m -69.1171,40.5449 c 2.762,0.4797 6.668,2.1566 12.3828,5.1465 11.4864,6.0089 19.4493,7.3777 34.5527,5.9414 18.865,-1.7943 19.5084,-1.5475 16.6035,6.3477 -2.5134,6.8363 -6.439,8.3859 -23.4062,9.2421 -13.7956,0.6959 -24.5977,-1.1394 -33.4004,-5.6738 -14.0651,-7.2439 -16.9035,-11.6367 -12.2539,-18.9668 1.1404,-1.7991 2.7594,-2.5168 5.5215,-2.0371 z m -15.543,23.0449 9.0234,8.4785 c 4.9645,4.6627 17.1613,10.5999 27.1016,13.1934 l 18.0762,4.7148 -10.6504,4.1836 c -16.6693,6.5497 -31.5314,4.9549 -42.6035,-4.5703 -8.9759,-7.7202 -9.6315,-9.7695 -5.5606,-17.375 z" fill="#00B894" transform="translate(-40.382022,-78.79488) matrix(0.26458333,0,0,0.26458333,2077.8845,-200.48407) translate(-4730.5688,-4305.3989)"/>
</svg>