<?xml version="1.0" ?><svg height="135.18727mm" viewBox="0 0 275.32587 135.18727" width="275.32587mm" xmlns="http://www.w3.org/2000/svg">
    <path d="m -13261.346,-1724.1144 c 22.822,-18.3123 51.832,-17.4462 66.68,-1.4848 14.848,15.9614 52.736,27.9993 77.864,33.8555 38.893,9.0642 46.392,-1.0097 46.392,-1.0097 0,0 18.728,-33.3407 30.414,-30.7424 11.687,2.5984 20.898,4.7018 20.898,4.7018 0,0 21.86,-31.304 31.622,-26.9734 9.761,4.3306 78.778,26.6023 78.778,26.6023 0,0 62.968,9.5272 104.076,1.4847 41.108,-8.0425 124.424,-25.3649 168.282,-20.9106 43.858,4.4543 256.617,34.4303 297.312,60.1665 40.696,25.7361 123.049,131.6502 83.454,192.4024 -39.596,60.7522 -34.922,122.8653 -209.665,186.4633 -174.743,63.598 -250.36,39.2229 -274.007,29.2007 -23.647,-10.0223 -64.068,-15.8377 17.461,-38.3568 81.528,-22.5191 199.215,-43.1822 234.961,-63.2267 35.746,-20.0446 74.517,-70.7745 90.603,-102.326 16.085,-31.5515 3.574,-70.0319 -41.658,-80.5491 -45.233,-10.5173 -154.533,18.8071 -208.84,16.9511 -54.306,-1.8559 -261.95,-37.803 -261.95,-37.803 0,0 -82.491,19.0546 -159.482,14.1054 -76.992,-4.9493 -143.259,-6.929 -143.259,-6.929 0,0 -44.452,-34.1626 -19.614,-37.4037 24.838,-3.2411 48.211,9.9353 102.105,6.842 53.894,-3.0932 109.575,-4.4543 131.435,-16.4562 21.86,-12.002 31.484,-27.5922 31.484,-27.5922 0,0 -62.555,6.5578 -146.696,-1.2373 -84.141,-7.795 -134.735,-18.0648 -144.222,-27.2209 -9.486,-9.1561 -18.481,-33.9622 -4.428,-52.5539 z" fill="#FFFFFF" transform="translate(-7.4484602,-39.246628) matrix(0.26458333,0,0,0.26458333,3521.3258,505.48003)"/>
    <path d="m -12547.772,-1267.5547 c -65.222,14.5503 -147.539,20.5846 -180.015,13.1947 -21.019,-4.7814 -46.673,-18.8224 -48.913,-26.7701 -2.562,-9.0922 7.792,-18.6015 32.198,-29.5697 15.747,-7.0765 36.485,-12.9198 86.63,-24.416 84.241,-19.3008 141.434,-35.6583 162.899,-46.5891 38.55,-19.6321 78.013,-61.0764 88.838,-93.2978 2.895,-8.6227 5.328,-23.2311 5.402,-32.4626 -1.052,-11.8712 -5.133,-20.2479 -23.784,-31.5263 -11.075,-6.6932 -32.457,-13.2678 -45.699,-14.0507 -16.139,-0.9544 -80.698,9.7757 -82.945,13.7858 -2.106,3.761 16.34,17.2665 55.017,40.2784 38.781,23.0737 42.904,28.1814 36.081,44.6959 -4.126,9.9815 -25.959,31.0793 -38.809,37.5005 -12.311,6.1514 -18.624,0.8246 -13.879,-11.7113 5.054,-13.3498 1.218,-13.6453 -11.829,-0.9127 -12.636,12.3301 -19.822,13.3273 -22.691,3.1489 -1.483,-5.2624 0.857,-10.2265 9.77,-20.7361 6.446,-7.5993 10.418,-13.4506 8.831,-13.0033 -1.589,0.4479 -4.786,3.3189 -7.106,6.3802 -4.861,6.4119 -12.432,9.3642 -15.888,6.1947 -1.306,-1.1996 -1.781,-7.034 -1.064,-12.9637 1.078,-8.8621 3.419,-12.099 13.14,-18.1728 l 11.828,-7.3895 -16.707,-11.1743 c -9.186,-6.1463 -21.009,-16.1516 -26.268,-22.2347 -11.751,-13.5915 -13.752,-14.2492 -29.772,-9.7915 -15.679,4.363 -76.668,6.3512 -103.382,3.3693 -10.796,-1.2052 -38.4,-5.4967 -61.341,-9.5377 l -41.712,-7.3463 -7.262,9.6649 c -12.31,16.3785 -33.374,29.3176 -56.764,34.8684 -18.197,4.3183 -20.95,5.7235 -23.588,12.024 -3.94,9.4152 -11.407,16.1103 -28.817,25.8369 -19.582,10.9405 -38.703,16.2058 -44.457,12.2406 -7.512,-5.1767 -2.339,-11.4033 17.783,-21.4027 10.084,-5.0122 18.005,-10.2955 17.598,-11.7403 -0.431,-1.5289 -10.144,0.4743 -23.246,4.794 -13.298,4.3847 -23.39,6.4491 -24.666,5.0476 -1.186,-1.3053 3.726,-7.6781 10.917,-14.1616 l 13.075,-11.7886 -15.906,4.3875 c -13.938,3.8451 -16.097,3.7155 -17.437,-1.0394 -1.838,-6.5216 3.565,-12.1766 18.023,-18.8653 17.005,-7.8664 35.271,-8.8049 53.664,-2.7572 13.209,4.341 19.569,4.7422 29.753,1.8718 22.228,-6.2648 55.024,-28.0761 53.002,-35.2498 -0.328,-1.1644 -10.964,-4.3897 -23.636,-7.1671 -12.67,-2.7782 -26.982,-6.4061 -31.8,-8.0632 -6.837,-2.3494 -13.955,-1.5486 -32.366,3.6406 -42.749,12.0484 -104.739,15.2081 -160.619,8.1876 -21.249,-2.6702 -46.701,-4.9107 -56.56,-4.9792 -9.857,-0.069 -23.805,-1.0225 -30.994,-2.1201 -7.186,-1.0901 -15.663,-1.2568 -18.832,-0.3637 -3.169,0.8933 -10.35,1.0672 -15.953,0.3855 -29.282,-3.5625 -49.902,-43.33 -27.455,-52.9491 4.291,-1.8388 8.697,-5.7474 9.792,-8.6859 2.536,-6.8073 11.553,-6.2101 13.556,0.8984 0.824,2.9234 3.676,5.516 6.34,5.7606 6.648,0.611 6.522,0.7347 6.39,-6.2686 -0.158,-8.278 7.084,-7.6885 10.638,0.8667 1.721,4.1448 5.827,7.2344 10.584,7.9673 11.26,1.7346 13.26,0.5088 11.185,-6.8534 -2.213,-7.8539 2.139,-15.1691 8.664,-14.5685 5.578,0.5128 11.81,10.373 11.143,17.6294 -0.273,2.959 1.455,5.719 4.07,6.498 7.529,2.2453 8.82,0.6611 6.413,-7.8777 -1.342,-4.7622 -0.672,-9.7725 1.615,-12.0566 3.228,-3.2251 0.998,-4.4807 -12.754,-7.1868 -15.333,-3.0183 -16.952,-2.8197 -20.283,2.4862 -3.186,5.0768 -4.161,5.3906 -8.167,2.6304 -2.503,-1.7238 -4.067,-4.8209 -3.476,-6.8826 1.738,-6.0697 -7.222,-6.9239 -9.467,-0.902 -3.038,8.1523 -12.142,6.0538 -12.4,-2.8568 -0.158,-5.5464 -1.867,-7.5817 -7.387,-8.7962 -6.01,-1.3228 -7.529,-0.6432 -9.323,4.1718 -2.847,7.6441 -9.517,5.4115 -10.276,-3.4426 -0.408,-4.7222 -2.445,-7.4432 -6.192,-8.2681 -4.518,-0.995 -5.792,0.5306 -6.677,7.9987 -0.903,7.6044 -1.969,8.8401 -6.064,7.0213 -3.29,-1.4613 -5.194,-5.0923 -5.631,-10.7429 -0.524,-6.7551 -2.935,-10.0179 -11.604,-15.6343 -20.363,-13.2131 -21.414,-39.8656 -2.44,-61.8756 7.496,-8.6944 12.43,-11.624 26.278,-15.6001 28.427,-8.1617 53.755,0.4469 70.55,23.9793 10.823,15.1623 20.462,19.5535 60.543,27.5807 26.863,5.3797 30.729,6.8638 24.601,9.4389 -9.787,4.1129 -65.665,0.5502 -79.928,-5.095 -6.284,-2.4875 -16.871,-10.6552 -23.527,-18.1504 -19.486,-21.9456 -40.982,-25.0831 -61.324,-8.9511 -4.539,3.6005 -8.89,9.4341 -9.666,12.9638 -2.112,9.596 2.359,22.1768 9.644,27.1319 7.372,5.0149 124.211,25.2557 174.747,30.2722 41.554,4.1247 90.429,0.6507 105.289,-7.4842 5.651,-3.0934 12.514,-5.5752 15.25,-5.5147 22.642,0.5037 -2.011,36.9139 -32.962,48.6817 -9.727,3.6983 -14.73,7.494 -18.023,13.6714 -3.612,6.7797 -5.555,8.1089 -9.373,6.4131 -2.648,-1.1764 -5.298,-3.8512 -5.888,-5.9439 -1.237,-4.3873 -14.071,-1.7029 -15.484,3.2385 -1.463,5.1092 -10.989,6.5776 -15.215,2.3454 -2.701,-2.7024 -15.969,-2.9177 -44.713,-0.726 -36.246,2.7643 -73.547,1.1672 -122.593,-5.248 -7.784,-1.1753 -13.996,-4.0097 -7.979,5.694 7.399,13.3854 24.727,19.5481 50.348,17.9055 26.22,-1.6807 73.947,0.072 103.33,3.7952 40.431,5.1234 129.167,-2.8017 157.326,-14.0503 8.108,-3.2387 22.986,-11.6738 33.066,-18.7458 10.079,-7.0718 19.689,-12.7943 21.353,-12.7158 4.661,0.2195 -5.275,19.7479 -14.67,28.8358 -4.612,4.4613 -8.143,8.744 -7.843,9.5165 0.31,0.7693 13.227,3.5179 28.731,6.1002 l 28.189,4.6954 2.389,-17.7857 c 4.197,-31.2474 4.94,-33.4119 12.176,-35.4513 6.413,-1.8075 6.993,-1.1057 10.219,12.401 1.88,7.8748 2.79,21.4106 2.022,30.08 l -1.397,15.7622 21.016,4.0614 c 62.786,12.133 125.954,14.4598 169.926,6.2609 l 21.015,-3.9184 1.186,-10.0087 c 1.669,-14.0718 28.208,-42.4034 51.041,-54.4909 7.322,-3.8756 19.208,-3.0405 20.47,1.4374 0.383,1.3597 -7.281,9.512 -17.031,18.1165 -17.177,15.1568 -31.318,32.4851 -30.085,36.8626 0.332,1.1759 12.694,-0.3308 27.471,-3.3488 46.07,-9.408 70.117,-7.4647 106.327,8.5927 l 16.628,7.3749 -7.607,-8.1486 c -4.181,-4.4821 -11.83,-11.9625 -16.996,-16.6232 -11.34,-10.2289 -11.621,-10.9458 -5.002,-12.8113 2.862,-0.8068 11.283,2.3575 18.716,7.0311 34.052,21.4136 47.332,55.3819 39.764,101.7083 -3.648,22.3255 -24.526,59.2704 -43.832,77.5567 -12.717,12.047 -14.081,14.3642 -9.466,16.0839 6.815,2.539 6.28,10.8997 -0.969,15.1519 -6.795,3.9856 -14.064,1.0349 -13.466,-5.4663 0.352,-3.843 -0.567,-4.1239 -4.272,-1.3025 -18.639,14.196 -43.167,24.0006 -97.688,39.048 l -56.802,15.6773 2.181,7.3404 c 2.239,7.5458 1.103,8.3087 -13.406,9.0609 -9.378,0.4858 -11,-0.7489 -8.469,-6.4459 2.551,-5.7453 -3.151,-6.9856 -15.77,-3.4292 -6.138,1.7299 -7.699,3.5506 -6.549,7.6328 2.04,7.2388 -0.215,9.0812 -12.178,9.9471 -7.42,0.5373 -10.562,-0.7202 -11.675,-4.6691 -1.404,-4.9787 -4.394,-4.7723 -38.023,2.6222 -20.072,4.4133 -29.631,5.7134 -34.034,7.3785 -7.675,2.9019 -17.598,6.9734 2.67,13.2623 11.628,3.6097 27.428,7.4414 35.11,8.515 41.712,5.8311 141.583,-6.7344 212.592,-26.7477 28.562,-8.0501 109.854,-43.8719 134.373,-59.2127 34.965,-21.8753 76.11,-70.3039 92.536,-108.9186 16.801,-39.4914 14.595,-88.3598 -5.726,-126.8284 -11.708,-22.1659 -27.83,-41.0484 -34.819,-40.7799 -7.308,0.2811 -18.703,-10.808 -18.079,-17.5934 0.727,-7.9146 -37.734,-26.1778 -71.201,-33.8101 -52.095,-11.8797 -170.538,-33.5424 -204.306,-37.3667 -57.6,-6.5242 -111.449,-4.3058 -160.623,6.6158 -80.127,17.7966 -108.866,19.1089 -145.444,6.6401 -13.42,-4.5744 -28.704,-8.8536 -33.967,-9.5088 -5.263,-0.6552 -16.244,-4.2003 -24.405,-7.8774 -18.251,-7.8144 -18.215,-8.0107 -30.342,5.0602 -10.369,11.2641 -19.355,14.6845 -30.966,11.7867 -10.894,-2.7188 -17.18,-0.6608 -24.145,7.9047 -15.336,18.8634 -27.036,15.805 -17.73,-4.6359 10.998,-24.1609 25.297,-32.0929 45.638,-25.3178 11.302,3.7647 11.998,3.6674 13.21,-1.8437 2.023,-9.1836 16.941,-20.6812 27.791,-21.4177 10.394,-0.7051 28.282,7.6451 40.684,18.9916 4.455,4.0736 9.676,6.9624 11.605,6.4187 1.929,-0.5436 10.524,0.5909 19.101,2.5214 8.831,1.9876 19.273,2.2476 24.077,0.6001 6.263,-2.1478 10.105,-1.4992 14.68,2.483 7.349,6.3943 20.186,6.104 23.128,-0.5227 2.936,-6.6087 8.819,-7.4996 14.63,-2.2156 5.418,4.9264 21.528,2.1633 27.753,-4.7596 2.256,-2.5087 5.652,-3.0475 10.19,-1.6169 3.745,1.18 13.999,1.0557 22.787,-0.2763 14.409,-2.1836 16.124,-3.079 17.452,-9.1097 1.987,-9.031 12.907,-11.6795 21.549,-5.2263 3.929,2.9325 11.328,4.7177 17.103,4.1264 8.678,-0.8885 10.321,-2.0715 11.154,-8.0273 1.537,-11.0096 13.529,-12.8735 19.702,-3.0618 3.895,6.1879 7.289,7.7825 16.304,7.6571 8.862,-0.1227 11.839,-1.1837 13.444,-4.7916 4.584,-10.3257 23.345,-9.1774 30.462,1.8654 3.423,5.3144 29.457,6.7566 34.317,1.9016 5.065,-5.0599 18.443,-3.442 20.098,2.4302 0.645,2.2856 8.487,5.5947 17.426,7.3542 12.645,2.4881 17.412,2.2193 21.465,-1.2107 6.871,-5.8131 15.475,-3.6643 17.757,4.434 2.098,7.4423 20.01,11.6912 28.44,6.7467 6.428,-3.7709 15.037,-0.5885 16.971,6.2734 1.88,6.6712 21.452,12.4579 24.953,7.3778 3.953,-5.7379 14.474,-4.1574 18.448,2.7704 4.623,8.0645 13.307,8.1087 20.273,0.1033 7.481,-8.5988 17.846,-6.6227 20.842,3.9746 1.769,6.2754 4.82,8.019 18.669,10.7013 9.101,1.7631 13.355,4.2617 15.913,2.797 3.447,-1.9735 13.81,-1.4835 14.52,5.2862 0.311,2.9641 10.402,9.7329 19.236,16.2618 46.351,34.2592 78.081,88.932 81.407,140.2612 2.226,34.3802 -3.67,59.2021 -21.876,92.1024 -15.103,27.292 -18.356,31.0609 -56.655,65.6567 -69.718,62.975 -108.957,81.5565 -228.588,108.2451 z m -479.775,-353.5207 c -0.428,-1.5192 -2.715,-2.2164 -5.085,-1.5482 -2.368,0.6673 -3.188,2.2401 -1.819,3.494 1.367,1.2547 3.654,1.9517 5.083,1.5489 1.429,-0.4028 2.25,-1.9756 1.821,-3.4947 z m -30.454,2.287 c 1.395,-4.8714 -6.782,-7.114 -13.061,-3.5831 -3.019,1.6974 -8.366,1.1472 -13.181,-1.3566 -6.892,-3.5835 -8.782,-3.4655 -12.649,0.7896 -5.384,5.9209 -10.216,5.1899 -12.199,-1.8445 -1.287,-4.565 -7.401,-7.0014 -13.356,-5.323 -2.008,0.5659 6.1,18.3988 8.937,19.6588 0.632,0.2812 4.829,0.3668 9.325,0.1907 5.921,-0.2324 8.292,-1.6073 8.603,-4.9871 0.609,-6.6224 8.091,-7.9173 11.562,-2.0009 4.128,7.0361 23.898,5.8631 26.019,-1.5439 z m 521.331,296.4572 c -6.728,-9.0137 0.1,-16.9562 13.506,-15.7229 7.018,0.6449 9.009,10.5586 2.49,12.3959 -2.912,0.8209 -7.041,2.7943 -9.173,4.3854 -2.322,1.7327 -5.058,1.3092 -6.823,-1.0584 z m -37.39,9.0553 c -10.481,0.035 -13.552,-7.702 -5.002,-12.6041 7.967,-4.5688 18.044,-0.4552 17.349,7.0849 -0.479,5.2037 -1.1,5.4815 -12.347,5.5192 z m 75.089,-22.9711 c -3.795,-5.0856 -2.725,-12.6488 1.978,-13.9742 2.14,-0.6031 5.965,0.3314 8.498,2.077 3.675,2.5322 4.147,4.2077 2.335,8.2862 -1.249,2.8117 -4.023,5.6061 -6.162,6.2091 -2.141,0.6034 -5.133,-0.5658 -6.649,-2.5981 z m 31.04,-13.0696 c -3.596,-1.1152 -4.291,-2.5496 -2.652,-5.4758 3.17,-5.6583 18.334,-7.5611 19.766,-2.4803 1.375,4.8803 -9.991,10.1642 -17.114,7.9561 z m 50.853,-26.2059 c -2.554,-2.3449 5.649,-13.722 10.98,-15.2243 6.042,-1.7031 9.185,4.1856 5.047,9.4649 -4.676,5.9663 -12.67,8.839 -16.027,5.7594 z m 29.803,-22.5178 c -6.835,-3.8293 -0.148,-15.8595 10.481,-18.8551 9.208,-2.5953 14.459,2.8082 10.17,10.4641 -3.06,5.4625 -16.286,10.8364 -20.651,8.391 z m -30.835,-7.1417 c -1.136,-4.0329 9.788,-15.5595 13.69,-14.4433 5.081,1.4551 5.985,7.9482 1.565,11.2467 -5.955,4.4447 -14.404,6.2152 -15.255,3.1966 z m 66.277,-30.4191 c -5.269,-1.5698 -5.337,-10.6988 -0.09,-12.11 1.953,-0.5213 5.652,-0.3284 8.222,0.4371 3.874,1.1527 4.265,2.3113 2.287,6.7636 -2.729,6.1447 -4.103,6.7923 -10.418,4.9093 z m -39.825,-4.584 c -0.464,-3.504 2.068,-9.249 5.628,-12.7667 5.531,-5.465 6.987,-5.9292 10.006,-3.1904 4.933,4.4754 3.882,9.7159 -3.144,15.6605 -8.733,7.3894 -11.543,7.4566 -12.49,0.2966 z m 63.372,-19.1897 c -6.566,-0.7179 -6.313,-7.8264 0.504,-14.0798 11.633,-10.67 21.098,-3.9006 11.305,8.0847 -5.213,6.3817 -5.755,6.6562 -11.809,5.9951 z m -37.932,-15.5738 c -0.201,-0.7161 0.753,-9.1387 2.119,-18.7161 1.847,-12.9471 3.804,-17.5291 7.637,-17.8649 8.824,-0.7718 12.218,13.2921 6.017,24.938 -4.56,8.5651 -14.56,15.9465 -15.773,11.643 z m 59.373,-27.289 c -3.02,-2.7698 4.324,-21.6544 9.025,-23.2138 6.228,-2.0655 11.851,6.9581 9.152,14.6837 -2.573,7.358 -13.744,12.6002 -18.177,8.5301 z m -48.601,-23.2873 c -4.397,-5.8908 -2.802,-13.0457 2.793,-12.5313 5.589,0.5134 7.994,11.1243 3.249,14.3218 -1.723,1.1603 -4.442,0.3547 -6.042,-1.7905 z m 56.605,-27.7258 c -2.175,-7.7164 0.196,-19.8364 4.096,-20.9356 7.093,-1.9993 11.923,3.6628 10.328,12.1129 -1.657,8.7995 -12.553,15.4633 -14.424,8.8227 z m -55.984,2.3548 c -2.61,-9.2604 -0.818,-12.8945 5.475,-11.0934 5.885,1.6841 6.955,14.3852 1.445,17.136 -3.537,1.7659 -5.105,0.3963 -6.92,-6.0426 z m 51.79,-34.8678 c -4.221,-2.3638 -6.659,-16.1845 -3.632,-20.578 2.279,-3.3053 4.246,-3.5547 8.636,-1.0953 7.041,3.9451 7.424,5.2574 4.224,14.4341 -2.651,7.582 -5.13,9.5283 -9.219,7.2367 z m -66.396,-0.9143 c -1.226,-1.7046 -3.769,-7.3082 -5.653,-12.4533 -2.629,-7.179 -2.339,-9.9177 1.251,-11.7791 6.696,-3.4721 14.234,0.7681 16.657,9.3662 3.207,11.3767 -6.395,23.0235 -12.255,14.8662 z m -21.559,-41.002 c -10.424,-8.0805 -11.287,-11.6062 -3.389,-13.8323 8,-2.2548 14.355,1.209 16.559,9.027 2.638,9.3625 -4.113,11.8263 -13.17,4.8053 z m -65.198,-31.8474 c -12.097,-2.3144 -14.578,-7.3553 -6.033,-12.2552 8.731,-5.0055 19.092,-2.0062 21.404,6.1953 2.172,7.7078 -0.745,8.8581 -15.371,6.0599 z m -66.326,0.2694 c -2.38,-8.4457 6.138,-14.3415 15.134,-10.4746 9.846,4.2319 8.225,9.4509 -4.008,12.8988 -7.6,2.1419 -9.985,1.6218 -11.126,-2.4242 z m -47.735,2.5308 c -8.325,1.4331 -10.999,0.6459 -12.193,-3.5895 -2.184,-7.7483 8.834,-15.3247 19.585,-13.4683 9.947,1.7166 16.48,12.7829 8.427,14.2701 -2.835,0.5247 -9.955,1.7783 -15.819,2.7877 z m -39.379,3.0915 c -11.093,-0.2624 -15.095,-7.4375 -7.97,-14.292 6.154,-5.9227 13.459,-4.7502 17.822,2.8617 4.819,8.4003 1.966,11.7094 -9.852,11.4303 z m 95.994,-30.305 c -9.976,0.6061 -32.632,1.1476 -50.346,1.2036 -17.712,0.055 -50.222,0.4394 -72.243,0.8534 -56.288,1.0577 -109.258,-1.4161 -140.429,-6.5593 -41.633,-5.4411 -11.7,-10.8438 12.406,-8.2218 19.015,2.0681 79.838,3.7012 153.662,-0.029 32.246,-1.6295 114.708,5.0069 115.926,9.3292 0.368,1.3044 0.331,2.3603 -0.08,2.3469 -0.414,-0.015 -8.915,0.4709 -18.892,1.0771 z m -152.949,26.6733 c -1.39,-1.2751 -3.482,-1.2768 -4.651,0 -4.054,4.4181 -8.698,0.7702 -7.269,-5.7131 2.42,-10.9944 17.844,-10.3919 21.004,0.8201 1.497,5.313 -4.885,8.7528 -9.084,4.8971 z m -44.475,0.6953 c -1.394,-1.2799 -5.35,-0.7119 -8.795,1.2624 -5.166,2.9627 -6.547,2.5623 -7.916,-2.2939 -2.214,-7.858 8.052,-16.9167 15.45,-13.6314 5.781,2.5683 9.217,11.0833 5.92,14.6756 -1.169,1.2727 -3.263,1.2664 -4.659,-0.013 z m -49.108,0.3864 c -2.533,-1.7456 -6.317,-2.6917 -8.411,-2.1014 -2.093,0.5897 -4.505,-1.4138 -5.361,-4.4521 -1.13,-4.0076 0.285,-6.0434 5.151,-7.4147 8.056,-2.2706 17.268,2.337 19.335,9.6707 1.787,6.3395 -4.242,8.7577 -10.714,4.2975 z m 156.833,-51.8102 c -13.412,-1.0404 -48.952,-1.1228 -78.975,-0.1837 -30.025,0.9397 -57.176,1.1399 -60.334,0.4443 -12.163,-2.6783 -3.146,-6.6068 23.659,-10.3074 51.509,-7.1112 113.551,-4.1218 137.04,6.6019 11.274,5.1479 7.79,5.7091 -21.39,3.4449 z m -211.461,40.4645 c -3.688,-2.9071 -7.078,-6.6054 -7.533,-8.2184 -1.128,-4.0014 10.872,-7.0772 16.127,-4.1336 2.337,1.3092 5.054,5.2392 6.039,8.7331 2.394,8.4931 -5.857,10.5335 -14.633,3.6189 z m -42.712,-9.5082 c -13.821,1.1424 -20.67,-13.0695 -7.931,-16.4602 8.431,-2.2441 22.526,4.2289 21.988,10.0949 -0.423,4.5972 -2.157,5.382 -14.057,6.3653 z m -151.717,2.4995 c -10.428,-5.8439 -8.952,-28.0489 3.226,-30.0081 5.932,-0.954 11.147,3.0391 13.584,8.9868 5.337,13.0338 -5.926,27.1189 -16.81,21.0213 z m -28.62,3.7065 c -5.618,-0.6134 -10.433,-20.589 -6.61,-27.4135 4.094,-7.3077 14.642,-8.8453 17.766,-2.59 3.431,6.8701 3.283,17.8024 -0.326,24.245 -3.249,5.8003 -4.476,6.4527 -10.83,5.7585 z m -204.603,-19.2041 c -6.277,-2.4008 -6.269,-2.8314 0.285,-13.4968 7.747,-12.6098 14.05,-15.4053 22.613,-10.0298 7.682,4.8222 8.463,7.9656 3.816,15.371 -4.64,7.3897 -18.025,11.4765 -26.714,8.1556 z" fill="#00B894" transform="translate(-7.4484602,-39.246628) matrix(0.26458333,0,0,0.26458333,3521.3258,505.48003)"/>
</svg>