<?xml version="1.0" ?><svg height="87.490326mm" viewBox="0 0 118.85413 87.490326" width="118.85413mm" xmlns="http://www.w3.org/2000/svg">
    <path d="m 8489.5899,17335.568 c 1.744,-46.75 12.574,-83.507 62.135,-107.873 49.561,-24.367 142.442,-11.481 142.442,-11.481 0,0 -35.519,-38.656 -17.897,-48.733 17.621,-10.077 51.029,32.874 51.029,32.874 l 57.454,-6.856 c 0,0 -4.864,-46.09 16.98,-49.311 21.843,-3.222 20.833,48.815 20.833,48.815 0,0 42.678,68.227 52.04,104.735 9.361,36.509 12.849,60.215 -6.333,71.283 -19.182,11.068 -62.869,25.688 -92.422,15.693 -29.553,-9.994 -33.959,-2.395 -59.657,3.965 -25.698,6.36 -122.526,19.08 -165.295,13.877 -42.77,-5.204 -60.483,-32.875 -61.309,-66.988 z" fill="#FFFFFF" transform="translate(-205.15623,-88.546519) matrix(0.26458333,0,0,0.26458333,-2030.594,-4443.9991)"/>
    <path d="m 12095.062,19584.926 c -2.957,6.224 -3.645,25.862 -1.464,36.16 -1.133,10.544 -4.926,5.614 -13.432,5.816 -18.604,0.513 -32.797,8.434 -29.637,13.545 1.902,3.081 36.313,-0.595 46.006,-4.314 12.578,-4.547 7.841,-16.064 8.285,-19.317 2.657,-20.031 4.226,-23.066 11.932,-23.066 7.841,0 9.483,4.255 9.717,25.188 0.149,13.308 1.751,17.206 13.644,33.21 15.857,21.336 33.787,58.395 38.112,78.774 1.686,7.943 3.589,24.452 4.23,36.687 1.163,22.237 1.16,22.251 -6.695,23.975 -4.322,0.95 -10.847,4.908 -14.5,8.797 -4.938,5.254 -9.691,7.795 -18.412,7.074 l -17.503,-1.447 c 0,0 7.079,-11.066 -0.102,-15.858 -7.181,-4.793 -16.286,33.425 -64.298,5.096 -11.275,-6.803 -23.722,-29.663 -23.722,-43.568 0,-10.972 2.642,-16.272 17.649,-30.328 18.607,-17.428 -1.371,-12.554 -12.106,-5.52 -20.045,13.509 -25.806,52.289 -11.264,75.82 3.782,6.12 6.875,14.419 6.875,18.442 0,6.11 -1.838,7.748 -11.158,9.951 -7.946,1.88 -12.82,1.604 -16.93,-0.963 -4.923,-3.075 -6.447,-2.728 -10.357,2.359 -3.822,4.975 -10.033,6.535 -37.371,9.364 -32.281,3.338 -98.278,2.358 -107.827,-1.604 -2.686,-1.113 -2.731,-15.031 -3.22,-18.347 -1.054,-7.131 -14.413,-10.441 -12.414,4.062 0.89,6.458 -2.268,8.081 -12.573,-0.592 -18.225,-24.574 -20.833,-62.927 -7.232,-93.64 23.562,-46.771 76.104,-72.192 138.672,-64.12 31.732,4.094 41.1,5.953 32.15,-4.271 -7.179,-8.189 -25.862,-12.338 -55.553,-12.338 -60.826,0 -106.437,26.247 -129.035,74.258 -4.646,9.873 -9.322,23.764 -10.39,30.867 -1.553,10.341 -3.885,14.246 -11.698,19.592 -13.316,9.112 -23.098,26.432 -18.812,33.31 4.751,7.627 12.35,7.915 21.933,0.829 4.695,-3.471 8.923,-5.871 9.397,-5.334 6.083,24.043 24.988,42.797 39.113,48.832 0,1.027 -5.29,7.88 -11.758,15.228 -15.22,17.291 -13.798,23.053 6.778,27.455 13.878,3.042 27.852,6.432 41.254,11.158 20.331,5.741 26.808,3.252 30.793,-3.015 5.832,-9.168 -1.957,-13.439 -35.803,-19.629 -16.108,-2.946 -29.784,-5.852 -30.393,-6.463 -0.609,-0.609 1.754,-5.953 5.25,-11.879 5.902,-10.005 7.098,-10.653 16.721,-9.06 5.701,0.941 15.977,1.724 22.834,1.744 11.131,0.03 12.273,0.651 10.643,5.787 -1.361,4.288 -0.124,6.401 4.859,8.305 25.165,9.619 75.112,14.925 85.938,9.13 6.486,-3.472 6.514,-3.679 1.236,-8.859 -2.973,-2.917 -12.553,-7.12 -21.289,-9.338 l -15.883,-4.029 20.215,-3.442 c 11.118,-1.893 23.79,-4.159 28.158,-5.041 4.961,-1.001 7.941,-0.365 7.941,1.694 0,1.812 3.346,10.369 7.436,19.013 8.691,18.372 16.864,24.396 23.752,17.508 4.106,-4.106 3.674,-6.167 -4.67,-22.347 -5.055,-9.803 -9.191,-18.886 -9.191,-20.188 0,-2.507 22.541,-10.132 23.992,-8.115 0.469,0.652 6.391,9.848 13.16,20.437 12.441,19.462 19.285,25.096 24.342,20.039 4.941,-4.942 -0.784,-17.81 -14.399,-32.365 -7.323,-7.829 -12.538,-15.01 -11.59,-15.959 0.948,-0.947 7.967,0.462 15.598,3.135 20.802,7.288 53.978,8.682 73.074,3.074 17.49,-5.137 17.223,-5.116 32.121,-2.678 16.072,2.634 22.748,-6.117 22.748,-29.814 0,-14.282 1.386,-20.216 6.254,-26.801 8.628,-11.672 10.234,-35.607 3.291,-49.066 -2.884,-5.592 -9.652,-12.325 -15.148,-15.067 -6.788,-3.39 -12.169,-9.499 -16.988,-19.295 -3.879,-7.884 -14.108,-23.595 -22.731,-34.912 -13.201,-17.327 -17.65,-17.484 -9.488,-33.367 5.338,-11.026 5.732,-14.185 2.857,-22.894 -7.365,-28.8 -39.783,-31.403 -51.924,-7.465 z m -96.751,6.599 c -9.277,0.341 -18.458,5.863 -21.766,13.85 -5.106,12.325 1.084,27.385 18.041,43.902 13.614,13.259 14.131,14.326 11.129,22.936 -5.549,15.921 -3.988,36.205 3.351,43.545 13.004,13.004 7.194,-6.501 7.207,-12.276 0.06,-26.895 3.266,-37.539 7.915,-37.539 7.818,0 7.029,-5.13 -2.274,-14.785 -14.413,-14.957 -25.121,-30.006 -25.121,-35.304 0.153,-15.034 25.873,10.596 29.717,15.142 11.679,13.813 15.306,14.34 17.879,6.231 4.379,-13.795 -18.667,-39.955 -39.711,-45.077 -2.081,-0.506 -4.227,-0.703 -6.367,-0.625 z m 141.246,98.01 c -0.823,0 -1.656,0.147 -2.479,0.463 -5.406,2.074 -6.125,15.254 -0.947,17.344 7.198,2.904 10.478,1.796 12.377,-4.184 2.056,-6.479 -3.194,-13.63 -8.951,-13.623 z m -26.266,5.473 c -1.842,-0.12 -3.316,1.046 -5.287,3.699 -4.066,5.469 -2.857,13.231 2.648,17.002 4.486,3.071 6.301,2.718 10.203,-1.984 4.537,-5.468 2.898,-13.139 -3.664,-17.157 -1.558,-0.953 -2.795,-1.488 -3.9,-1.56 z" fill="#00B894" transform="translate(-205.15623,-88.546519) matrix(0.26458333,0,0,0.26458333,-2030.594,-4443.9991) translate(-3313.5291,-2437.8203)"/>
</svg>