<?xml version="1.0" ?><svg height="66.287758mm" viewBox="0 0 70.992928 66.287758" width="70.992928mm" xmlns="http://www.w3.org/2000/svg">
    <path d="m 2333.3021,1419.0673 c -3.6219,-9.1736 -8.1584,-17.5744 2.1844,-32.5951 10.3428,-15.0206 28.956,-18.6163 39.9521,-10.501 10.9963,8.115 19.7522,25.6728 9.9695,33.8386 -9.7827,8.1656 -22.6645,14.4997 -32.8205,15.6591 -10.156,1.1591 -16.2237,-0.067 -19.2855,-6.4016 z" fill="#FFFFFF" transform="translate(63.402496,-45.391666) translate(-2386.1739,-1324.7218)"/>
    <path d="m 2369.3414,1435.585 c -0.7962,-0.4639 -1.8423,-2.3092 -2.3246,-4.1005 -0.7125,-2.6459 -1.1872,-3.1755 -2.5318,-2.8239 -0.9103,0.2385 -2.938,-0.3242 -4.5064,-1.2495 -2.6476,-1.562 -3.1729,-1.599 -7.3541,-0.5143 -2.4763,0.6424 -5.5261,1.1679 -6.777,1.1679 -1.8442,0 -2.3795,0.4788 -2.8304,2.5322 -0.6376,2.9024 -2.1022,2.5813 -2.1022,-0.4609 0,-1.5305 -0.8399,-2.4654 -3.3773,-3.7599 -1.8579,-0.9478 -4.4239,-3.1676 -5.7027,-4.9329 -2.3106,-3.1896 -2.3448,-3.2032 -5.4402,-2.1314 -1.7132,0.593 -3.3189,0.7483 -3.5684,0.3449 -0.5194,-0.8404 2.7773,-3.3732 4.3906,-3.3732 0.6737,0 1.7216,-1.2726 1.1179,-3.1559 -3.6447,-11.3693 1.5529,-21.2292 3.1688,-24.8821 2.3565,-5.3279 9.4287,-12.5738 15.7227,-15.3265 7.5406,-3.2979 18.789,-3.9007 25.8496,-0.665 10.064,4.6121 17.8669,16.5356 17.8955,27.2259 0,3.6407 -0.5308,6.7063 -1.5994,9.0767 l -1.6142,3.5793 3.0867,3.1612 c 3.6051,3.692 3.6882,3.9988 1.255,4.6351 -1.363,0.3564 -2.5491,-0.2817 -4.6361,-2.4946 l -2.8046,-2.9738 -2.4557,2.0666 -2.4559,2.0663 2.1291,3.1332 c 1.5185,2.2349 1.8697,3.3924 1.2241,4.0378 -1.3101,1.3101 -4.9576,-0.5498 -6.1315,-3.126 -0.7623,-1.6735 -1.2491,-1.9213 -2.4794,-1.2626 -0.8421,0.4506 -3.723,1.3501 -6.4026,1.9992 -3.1264,0.7574 -4.0394,1.2053 -2.549,1.2502 1.917,0.057 2.6531,0.7681 4.2167,4.0674 1.3084,2.7609 2.477,4.0806 3.7785,4.2661 2.316,0.3306 2.4279,1.485 0.2568,2.647 -1.9843,1.0619 -2.5911,1.0586 -4.4485,-0.024 z m -26.0662,-14.7933 c 0.198,-2.03 -0.2604,-3.0371 -2.0071,-4.4111 -2.4882,-1.9573 -7.228,-2.5636 -6.8399,-0.7283 0.8475,4.0073 3.4804,5.1162 4.4064,6.5478 2.1704,2.3981 4.13,1.7767 4.4406,-1.4084 z m 25.9148,-2.5252 c 4.4431,-2.109 8.131,-4.705 11.8136,-8.3156 4.8611,-4.7666 5.3539,-5.5689 5.3539,-8.7155 0,-3.257 -0.1454,-3.4658 -2.4215,-3.4658 -1.3319,0 -2.9412,-0.6262 -3.5764,-1.3919 -1.3991,-1.686 -1.3877,-8.1675 0.024,-9.8603 2.2409,-2.7 -8.6582,-11.3601 -12.9439,-10.2845 -1.0443,0.2622 -4.2635,2.2173 -7.1535,4.3448 -3.8682,2.8477 -5.0067,4.1161 -4.315,4.8077 1.3702,1.3704 1.1483,6.6625 -0.3707,8.8308 -0.8387,1.1978 -2.1828,1.8705 -3.737,1.8705 -3.7731,0 -3.7423,1.3508 0.1098,4.8114 7.9451,7.1375 10.6268,11.9558 9.7301,17.4812 -0.2633,1.6243 -0.1383,2.9532 0.2775,2.9532 0.4161,0 3.6634,-1.3797 7.216,-3.066 z m -1.6042,-6.8603 c -3.2722,-0.6753 -3.4909,-7.999 -0.3596,-12.0264 2.6942,-3.4647 7.2733,-4.2113 9.8744,-1.6102 2.6085,2.6083 2.1495,6.2112 -1.2734,10 -2.9114,3.2225 -5.2491,4.2542 -8.2414,3.6366 z m -4.4085,-21.5928 c -1.1362,-1.1361 -2.0656,-2.9634 -2.0656,-4.0609 0,-4.0806 6.6184,-7.8272 11.1158,-6.2924 4.1637,1.4211 3.9945,6.6767 -0.3324,10.3175 -3.1605,2.6593 -6.0825,2.6713 -8.7178,0.036 z m -7.6492,28.9336 c 4.0084,-3.1531 2.0183,-7.0433 -3.1026,-6.0643 -2.8622,0.547 -5.1274,3.7001 -4.3708,6.084 0.7283,2.2946 4.5438,2.2846 7.4734,-0.024 z m -19.1406,-10.4178 c 0.6868,-1.7897 -0.5312,-3.4827 -1.4555,-2.0236 -0.9924,1.5662 -0.9311,3.2455 0.1192,3.2455 0.4775,0 1.0789,-0.5499 1.337,-1.2219 z m -1.1734,-9.7149 c 1.5155,-0.9239 4.1531,-1.6813 5.8615,-1.6829 3.8544,0 4.7745,-1.3039 2.4535,-3.4665 -2.0515,-1.9113 -2.0835,-2.1265 -0.8426,-5.6858 1.0258,-2.9424 2.9466,-4.3154 6.0371,-4.3154 1.116,0 2.7502,-0.8037 3.6319,-1.7861 0.8816,-0.9823 3.6084,-2.9214 6.0594,-4.3095 2.451,-1.3881 4.3118,-2.6684 4.1347,-2.8452 -3.571,-0.187 -7.7982,0.5688 -10.4533,2.1212 0.2592,5.0335 -5.9569,6.82 -9.4138,6.82 -2.756,0 -5.2273,2.6359 -8.2844,8.8362 -1.7493,3.5476 -3.0596,7.9945 -2.3556,7.9945 1.2512,-0.5402 2.2174,-1.101 3.1716,-1.6805 z" fill="#00B894" transform="translate(63.402496,-45.391666) translate(-2386.1739,-1324.7218)"/>
</svg>