<?xml version="1.0" ?><svg height="153.46939mm" viewBox="0 0 180.50558 153.46939" width="180.50558mm" xmlns="http://www.w3.org/2000/svg">
    <path d="m 5740.2461,24115.387 c -0.2737,0.03 -0.5643,0.117 -0.875,0.252 -9.9413,4.297 -16.4707,28.945 -16.4707,28.945 0,0 -20.8576,-7.282 -49.6094,2.191 -28.7517,9.473 -99.315,40.086 -149.0215,53.77 -49.7064,13.683 -48.4396,13.772 -56.4316,25.35 0,0 -10.5269,14.997 6.5293,70.169 17.0561,55.172 117.8342,39.735 181.1855,29.385 63.3514,-10.35 94.9295,-63.856 101.752,-85.082 6.8224,-21.227 -7.5062,-47.015 3.2148,-47.805 10.7209,-0.79 33.3325,-1.314 59.2578,14.737 25.9253,16.052 21.93,-7.28 19.1036,-21.139 -2.8264,-13.858 -26.802,-47.277 -48.1465,-51.224 -21.3445,-3.948 -41.1289,27.804 -41.1289,27.804 l -9.7481,-3.158 c 0,0 8.8723,-45.273 0.3887,-44.195 z m 354.5234,165.373 c -5.8706,-0.03 -10.9872,7.455 -19.832,28.111 -11.7931,27.542 -58.5742,44.647 -58.5742,44.647 0,0 -182.355,-17.28 -227.5781,-19.473 -45.2231,-2.193 -67.5431,3.86 -76.4122,24.473 0,0 -17.2514,28.945 -19.9804,66.837 -2.729,37.892 23.0988,85.521 67.1523,103.239 44.0536,17.718 139.6662,17.104 188.2031,8.508 48.5369,-8.596 57.7953,-24.824 81.6739,-61.663 23.8786,-36.84 6.4336,-92.011 6.4336,-92.011 0,0 38.5952,-33.77 55.164,-53.506 16.5688,-19.735 19.2007,-40.961 10.0391,-46.838 -2.2904,-1.469 -4.3322,-2.315 -6.2891,-2.324 z" fill="#FFFFFF" transform="translate(109.78707,-99.870661) matrix(0.26458333,0,0,0.26458333,-670.23817,-5629.3142) translate(-3313.5291,-2437.8203)"/>
    <path d="m 2537.5604,22227.488 c -2.9364,-9.251 2.8607,-22.562 30.2624,-69.483 12.2467,-20.972 22.2663,-38.957 22.2655,-39.965 -6e-4,-1.008 -25.8373,-1.868 -57.4149,-1.912 l -57.4138,-0.09 14.0301,46.858 c 7.7166,25.774 13.1684,49.107 12.1154,51.85 -1.0527,2.745 -5.3187,4.991 -9.4797,4.991 -9.6747,0 -14.46,-11.41 -29.3213,-69.895 -10.9762,-43.199 -12.1505,-45.771 -23.3049,-51.093 -11.7282,-5.591 -11.7678,-5.578 -26.4087,9.556 -21.8573,22.589 -36.0601,47.529 -46.4305,81.529 -8.16,26.752 -9.9804,29.882 -14.9689,25.744 -4.4789,-3.717 -5.3086,-9.888 -3.9266,-29.201 2.1888,-30.595 14.7674,-57.432 39.7105,-84.723 l 18.2692,-19.989 -11.7944,-13.434 c -19.0912,-21.744 -26.9575,-42.861 -26.7931,-71.929 0.2561,-45.272 21.3387,-89.558 49.4663,-103.913 15.4698,-7.897 16.4181,-7.934 93.7389,-3.817 42.9611,2.289 95.2774,4.861 116.2584,5.713 20.981,0.856 46.2633,4.076 56.1832,7.158 17.9548,5.581 18.1104,5.558 34.5142,-4.969 19.2206,-12.336 35.7332,-29.199 46.8621,-47.859 10.788,-18.09 18.4727,-20.386 28.6428,-8.564 10.0159,11.646 10.4425,26.774 1.2627,44.768 -6.6701,13.074 -33.2638,40.279 -50.3903,51.549 -7.8492,5.162 -8.0696,6.487 -4.3695,26.261 9.952,53.182 -20.7996,116.202 -68.6038,140.592 l -14.7196,7.506 5.2145,14.782 c 7.9689,22.587 18.1818,34.593 41.8568,49.204 33.2782,20.54 27.3207,37.824 -7.8259,22.703 -24.6505,-10.604 -45.5735,-35.038 -53.0596,-61.963 -5.3224,-19.145 -6.775,-21.076 -15.8411,-21.076 -9.011,0 -12.0893,3.974 -31.6538,40.871 -32.0945,60.526 -42.4185,77.077 -48.852,78.316 -3.2363,0.625 -6.8033,-2.064 -8.0806,-6.09 z m 41.7252,-135.066 c 47.7405,-5.892 58.0338,-9.392 58.0338,-19.738 0,-4.801 1.8178,-9.854 4.0394,-11.224 5.0422,-3.117 10.3637,4.883 10.4373,15.689 0.074,10.758 3.255,10.333 21.4837,-2.874 26.7742,-19.393 43.9576,-53.466 43.8974,-87.045 -0.1643,-32.004 -9.6524,-42.105 -18.7483,-50.689 -13.6521,-12.719 -41.0121,-17.909 -115.6055,-21.938 -38.9647,-2.1 -89.6461,-6.079 -112.6251,-8.839 -40.3007,-4.841 -42.057,-4.762 -49.5883,2.183 -14.3884,13.27 -27.8293,49.553 -29.6086,79.929 -1.3617,23.246 -0.3425,30.562 6.1161,43.903 4.2624,8.803 11.7526,19.768 16.6452,24.364 8.7298,8.203 9.142,8.241 22.1434,2.071 15.9105,-7.55 24.4445,-3.023 16.944,8.987 -6.0957,9.76 -5.8349,10.472 5.5406,15.115 34.5979,14.116 66.6868,16.8 120.8949,10.106 z m 177.3295,-188.164 c 16.2456,-16.022 26.0807,-28.891 27.6952,-36.242 4.4908,-20.448 -2.0422,-19.614 -14.7921,1.882 -12.1758,20.529 -23.7695,33.387 -40.9642,45.431 -7.7896,5.455 -8.0138,13.773 -0.371,13.773 1.7823,0 14.5769,-11.18 28.4321,-24.844 z m -539.036,5.207 c -58.2181,-13.322 -83.9796,-40.965 -81.065,-86.987 1.1443,-18.071 0.3545,-20.58 -8.7328,-27.73 -12.1994,-9.6 -12.6703,-18.084 -1.5822,-28.501 9.9754,-9.371 16.2079,-9.881 27.1412,-2.223 6.3289,4.432 10.6795,4.882 19.8818,2.051 6.4789,-1.996 19.1371,-5.515 28.129,-7.828 8.9918,-2.311 38.4196,-14.539 65.3952,-27.175 59.5456,-27.889 85.0418,-35.582 116.758,-35.237 l 24.2145,0.273 2.2706,-12.105 c 3.4014,-18.13 15.4499,-31.639 27.0243,-30.299 8.1413,0.946 9.7347,3.09 10.6759,14.376 0.6084,7.296 -1.7578,19.558 -5.2581,27.249 -3.5003,7.688 -7.0745,15.614 -7.9423,17.615 -0.8678,1.998 3.1333,-0.665 8.8911,-5.915 21.4605,-19.571 38.0584,-22.573 57.6933,-10.439 12.3223,7.615 27.8399,28.307 32.7325,43.649 3.9586,12.411 2.6671,36.293 -2.2853,42.261 -7.3359,8.839 -25.5105,5.844 -38.0036,-6.265 -7.6684,-7.433 -16.5334,-11.856 -26.4194,-13.181 l -14.8786,-1.996 2.2049,23.614 c 1.985,21.255 1.1924,25.471 -7.9433,42.256 -11.8387,21.752 -33.7925,44.704 -54.438,56.91 -38.4393,22.731 -129.0014,36.035 -174.4637,25.635 z m 117.1386,-30.809 c 16.4032,-4.619 38.4174,-13.551 48.9204,-19.848 32.059,-19.221 58.0948,-61.305 52.2749,-84.494 -1.845,-7.348 -3.3429,-8.026 -11.1706,-5.051 -12.1175,4.608 -12.0799,-2.419 0.044,-7.942 9.9705,-4.543 10.5477,-5.93 5.6708,-13.638 -2.758,-4.358 -4.2567,-4.423 -9.115,-0.39 -8.0117,6.649 -11.2975,2.044 -6.3262,-8.869 3.7619,-8.256 3.1151,-9.579 -7.3374,-14.981 -8.6147,-4.454 -17.8444,-5.499 -37.1415,-4.197 -25.5376,1.723 -34.9224,4.832 -112.1923,37.172 -17.7821,7.444 -41.2048,14.303 -52.6798,15.428 -11.3637,1.112 -23.6098,3.54 -27.2137,5.394 -12.2134,6.282 -20.6687,25.307 -20.6687,46.502 0,33.177 14.0745,48.775 54.4691,60.363 25.4984,7.316 86.8274,4.585 122.4673,-5.449 z m -53.4392,-104.197 c 0,-8.839 6.9761,-19.744 12.6292,-19.744 8.4602,0 10.1466,7.049 3.949,16.51 -6.5487,9.995 -16.5782,11.951 -16.5782,3.234 z m 236.1496,-12.594 c 0,-12.425 -9.3891,-30.153 -22.6545,-42.774 -14.1575,-13.471 -22.932,-13.374 -39.6124,0.439 -7.6397,6.324 -9.2316,10.231 -7.8366,19.238 1.7116,11.046 2.1852,11.293 20.9806,11.02 15.6136,-0.217 21.5272,1.546 31.4513,9.421 14.8512,11.784 17.6716,12.206 17.6716,2.656 z m -93.4059,-65.284 c 1.0458,-3.999 0.4191,-6.354 -1.3927,-5.237 -1.812,1.121 -3.2943,4.393 -3.2943,7.273 0,7.52 2.4688,6.447 4.687,-2.036 z" fill="#00B894" transform="translate(109.78707,-99.870661) matrix(0.26458333,0,0,0.26458333,-670.23817,-5629.3142)"/>
</svg>