<?xml version="1.0" ?><svg height="144.56836mm" viewBox="0 0 215.85487 144.56836" width="215.85487mm" xmlns="http://www.w3.org/2000/svg">
    <path d="m 10178.84,18556.203 c -47.029,0.314 -96.665,16.965 -127.35,31.69 -45.672,21.916 -62.9168,79.902 -72.3923,99.601 -9.4754,19.699 -27.8577,57.562 -4.0743,169.018 23.7833,111.455 115.6006,140.106 167.5256,117.935 51.926,-22.172 12.412,-157.249 4.263,-195.537 -8.149,-38.289 10.519,-54.49 43.399,-56.111 32.879,-1.62 58.274,41.102 78.172,78.879 19.898,37.777 35.343,143.179 48.324,153.412 12.981,10.233 15.351,-13.66 25.166,2.824 9.814,16.484 46.281,69.49 110.051,72.475 63.769,2.984 82.435,-28.057 95.89,-57.477 13.455,-29.42 -9.949,-59.522 -39.228,-94.314 -29.279,-34.792 -4.265,-45.111 11.369,-55.6 15.635,-10.489 30.985,-34.879 51.168,-26.01 20.182,8.869 69.74,8.614 69.74,8.614 0,0 2.748,-64.812 -7.107,-94.743 -9.854,-29.932 -46.334,-50.824 -46.334,-50.824 0,0 26.341,-60.204 10.043,-54.576 -16.297,5.628 -27.289,50.227 -27.289,50.227 l -42.828,10.064 c 0,0 -23.121,-57.306 -31.649,-47.67 -8.528,9.636 18.477,57.135 18.477,57.135 l -1.99,42.808 c 0,0 -34.775,9.976 -45.008,14.666 -10.234,4.69 -39.228,17.995 -68.887,47.842 -29.658,29.846 -54.861,93.377 -54.861,93.377 0,0 -3.787,-12.591 -13.268,-28.824 -9.481,-16.234 1.327,-89.285 0,-136.272 -1.327,-46.986 -28.236,-109.492 -86.795,-139.253 -19.214,-9.766 -41.559,-13.509 -64.527,-13.356 z m 510.83,262.887 c -11.456,0.129 -22.351,2.934 -28.693,6.18 -14.498,7.419 -43.492,24.475 -60.832,42.638 -17.34,18.164 -23.31,52.445 -5.497,77.942 6.349,11.513 34.965,10.574 59.317,3.07 24.352,-7.504 55.811,-34.367 67.75,-44.856 11.939,-10.489 20.844,-43.576 6.441,-67.453 -8.101,-13.43 -23.757,-17.687 -38.486,-17.521 z" fill="#FFFFFF" transform="translate(120.77866,-9.3586754) matrix(0.26458333,0,0,0.26458333,-1877.5282,-4247.1319) translate(-3313.5291,-2437.8203)"/>
    <path d="m 7135.892,16626.616 c -10.3241,-4.011 -27.8678,-8.828 -38.986,-10.706 -17.3169,-2.924 -20.3454,-4.318 -21.1245,-9.731 -0.9091,-6.315 -0.054,-6.799 18.2365,-10.288 4.9066,-0.935 4.4722,-1.631 -2.8878,-4.624 -34.1745,-13.901 -48.747,-27.171 -62.7867,-57.173 -9.6395,-25.075 -14.2983,-53.024 -8.8306,-80.092 1.9654,-8.967 1.3349,-13.713 -2.9815,-22.437 -3.9815,-8.046 -6.1483,-21.481 -7.947,-49.274 -3.2591,-50.348 -7.8443,-98.286 -11.113,-116.18 -9.0612,-49.608 -40.7267,-102.103 -83.2221,-137.963 -9.3779,-7.912 -11.3897,-12.07 -7.1182,-14.711 4.517,-2.791 37.0408,15.549 50.3787,28.411 53.5181,51.604 77.5568,126.006 64.6395,200.069 -2.052,15.107 -3.91,58.158 3.9653,81.58 1.2408,0 5.098,-7.002 8.572,-15.559 23.834,-58.724 82.6892,-114.719 125.225,-119.137 12.0741,-1.257 17.5175,1.819 -0.1536,9.306 -21.2775,9.013 -56.8303,30.143 -74.0356,52.064 -16.2822,20.745 -37.1971,60.794 -44.8619,85.903 -7.3067,23.938 -8.0416,58.958 -1.6224,77.305 10.8263,30.945 33.5663,51.644 67.5776,61.512 8.6268,2.503 16.7489,4.55 18.0489,4.55 4.7134,0 2.313,-14.065 -8.3959,-22.27 -8.0858,-6.195 -2.2232,-9.495 3.6712,-9.495 7.7136,0 18.6399,13.465 18.6399,22.972 v 8.793 h 17.3585 c 30.3324,0 54.161,-16.234 66.6738,-45.426 11.2755,-26.304 8.2485,-35.032 -23.9932,-69.195 -9.2802,-9.833 -18.7885,-22.462 -21.1292,-28.064 -8.7261,-20.885 -3.5641,-44.094 12.2741,-55.188 3.1954,-2.238 6.5986,-8.014 7.5631,-12.835 2.1513,-10.758 7.6735,-11.605 7.6735,-1.179 0,7.226 0.5469,7.502 11.4667,5.756 10.5383,-1.685 11.8157,-1.159 15.7817,6.51 5.4979,10.632 26.6341,24.689 43.5101,28.938 10.7443,2.706 14.5844,2.511 21.5516,-1.091 4.6628,-2.411 10.6099,-4.384 13.2158,-4.384 2.6061,0 10.0861,-4.579 16.6226,-10.173 26.1273,-22.363 73.567,-24.637 87.8748,-4.209 3.1385,4.482 7.3303,5.718 19.3709,5.718 16.2059,0 23.3097,4.384 20.2069,12.47 -1.0422,2.715 -5.9898,4.892 -12.3231,5.421 l -10.5819,0.881 -1.7849,16.608 c -2.8861,16.928 -11.5976,58.898 -44.807,62.206 -15.9698,10.135 -38.0951,32.309 -82.4119,29.795 -28.7638,-4.313 -43.949,-23.808 -46.3081,-61.494 -0.8111,-12.961 -1.2731,-13.61 -10.9544,-15.409 -5.559,-1.032 -14.7679,-4.485 -20.4642,-7.673 -10.2913,-5.759 -25.7414,-25.876 -25.7414,-33.515 0,-6.295 -7.117,-2.314 -8.1284,4.546 -1.5393,10.442 8.1276,26.203 31.6331,51.575 24.6805,26.639 30.2913,39.096 26.9445,59.814 -2.6205,16.223 -11.3585,35.675 -21.9922,48.96 -4.8521,6.06 -8.3664,11.447 -7.81,11.969 0.5566,0.522 5.8852,2.969 11.8414,5.437 6.9973,2.9 10.8294,6.38 10.8294,9.835 0,13.231 -14.5426,15.657 -42.3385,7.061 -12.7228,-3.936 -19.6984,-4.587 -28.414,-2.658 -6.3531,1.406 -19.52,1.864 -29.2596,1.023 -9.7395,-0.843 -18.4985,-0.744 -19.4648,0.222 -2.1615,2.162 26.1355,12.18 34.771,12.31 10.6275,0.151 15.3975,3.32 15.3975,10.201 0,12.161 -10.6793,12.848 -37.542,2.412 z m 228.0624,-144.779 c -0.044,-1.115 -4.9391,-5.02 -10.8812,-8.68 -13.1391,-8.094 -23.0513,-22.033 -29.7598,-41.849 -2.7705,-8.183 -6.1132,-15.233 -7.4281,-15.667 -3.9753,-1.306 -20.5761,10.031 -23.9667,16.366 -2.8684,5.358 -2.3529,5.93 5.3552,5.93 4.691,0 10.5845,0.789 13.0969,1.753 6.0849,2.335 5.8111,11.431 -0.4858,16.134 -2.7794,2.074 -5.0537,6.358 -5.0537,9.518 0,4.083 -2.4323,6.176 -8.393,7.221 -7.5938,1.332 -7.9343,1.852 -3.5743,5.465 3.6854,3.054 4.048,4.922 1.5418,7.942 -1.8024,2.173 -5.0672,3.949 -7.2552,3.949 -5.8081,0 -4.8757,3.952 2.5196,10.679 17.8162,15.352 58.5172,4.493 74.2843,-18.761 z m 30.6746,-18.398 c 5.4264,-6.182 5.4227,-6.236 -0.2744,-4.088 -3.1765,1.2 -9.9991,2.89 -15.1613,3.756 -12.2818,2.062 -12.0932,6.597 0.2744,6.597 6.2959,0 11.5757,-2.183 15.1613,-6.265 z m -34.9286,-13.951 c 0,-2.383 -2.924,-4.748 -6.4977,-5.255 -5.0008,-0.711 -6.4976,0.501 -6.4976,5.255 0,4.754 1.4968,5.965 6.4976,5.255 3.5737,-0.508 6.4977,-2.873 6.4977,-5.255 z m 21.6589,4.568 c 0,-4.524 -4.1389,-10.343 -7.3583,-10.343 -4.8375,0 -7.9935,4.851 -5.6371,8.664 1.7002,2.751 12.9954,4.21 12.9954,1.679 z m 17.3271,-7.455 c 0,-9.643 -3.0955,-10.931 -9.9012,-4.126 -6.2421,6.241 -5.6887,9.278 1.9594,10.752 3.5738,0.688 6.8226,1.426 7.2198,1.643 0.3971,0.216 0.722,-3.504 0.722,-8.269 z m 13.3528,-7.63 c 5.8731,-14.058 3.2508,-24.137 -6.2788,-24.137 -8.8878,0 -12.7812,-8.123 -6.2,-12.935 3.5782,-2.617 3.8972,-4.241 1.3358,-6.803 -5.2029,-5.202 -8.8213,-3.984 -7.1496,2.408 0.8305,3.176 0.3322,6.5 -1.1069,7.39 -3.9643,2.45 -3.1315,15.703 0.993,15.803 2.0032,0.05 1.3608,1.399 -1.4441,3.032 -6.8647,3.998 -6.3979,11.321 0.722,11.321 3.5587,0 5.7927,-1.94 5.8199,-5.055 0.037,-4.319 0.4514,-4.423 2.8436,-0.722 1.5398,2.384 2.8194,7.906 2.8438,12.275 0.061,10.762 2.3742,9.98 7.6213,-2.577 z m -140.4183,-10.392 c 0,-1.206 -2.4345,-2.192 -5.4102,-2.192 -8.9752,0 -34.6904,-20.741 -38.4926,-31.047 -3.7682,-10.212 -7.0639,-11.431 -15.0716,-5.575 -4.9979,3.655 -4.9705,4.276 0.681,15.354 7.4452,14.595 10.631,17.161 31.3221,25.244 12.8213,5.008 18.0753,5.845 21.9176,3.498 2.7794,-1.698 5.0537,-4.076 5.0537,-5.282 z m 65.2319,-1.456 c -3.1058,-3.105 -4.7547,1.243 -2.5744,6.789 2.045,5.206 2.1998,5.214 3.2109,0.196 0.5847,-2.903 0.2981,-6.043 -0.6365,-6.979 z m 24.2915,5.038 c 0,-4.235 -1.9252,-5.774 -7.2197,-5.774 -5.2943,0 -7.2195,1.539 -7.2195,5.774 0,4.236 1.9252,5.776 7.2195,5.776 5.2945,0 7.2197,-1.54 7.2197,-5.776 z m 14.4392,-0.24 c 0,-7.037 -6.7483,-6.044 -8.1533,1.201 -0.5527,2.851 0.9205,4.815 3.6099,4.815 2.6787,0 4.5434,-2.469 4.5434,-6.016 z m -35.1251,-18.217 c 0.9365,-4.864 -3.6,-10.263 -8.7199,-10.378 -3.0185,-0.07 -5.868,11.057 -3.7216,14.53 2.9094,4.708 11.2728,1.915 12.4415,-4.152 z m 20.6859,1.13 c 0,-3.851 -1.9252,-5.774 -5.7757,-5.774 -3.8506,0 -5.7758,1.923 -5.7758,5.774 0,3.851 1.9252,5.776 5.7758,5.776 3.8505,0 5.7757,-1.925 5.7757,-5.776 z m 16.2461,1.54 c 2.9928,-7.8 -0.2698,-11.328 -5.5721,-6.025 -4.8955,4.894 -4.3001,10.261 1.1383,10.261 1.5446,0 3.5398,-1.906 4.4338,-4.236 z m -30.6853,-18.868 c 0,-1.587 -1.2229,-2.887 -2.7174,-2.887 -1.4946,0 -3.5207,1.3 -4.5023,2.887 -0.9818,1.59 0.2411,2.89 2.7174,2.89 2.4762,0 4.5023,-1.3 4.5023,-2.89 z m 20.0116,-2.508 c 3.4694,-6.482 1.3801,-9.285 -5.1329,-6.889 -4.9322,1.817 -8.9817,6.339 -9.0588,10.121 -0.093,4.539 11.438,1.915 14.1917,-3.232 z m 17.043,-2.83 c 0.7406,-5.208 -0.2376,-6.497 -4.3318,-5.719 -2.9378,0.562 -5.7133,3.998 -6.2447,7.735 -0.7404,5.207 0.2377,6.498 4.3318,5.716 2.9378,-0.559 5.7135,-3.996 6.2447,-7.732 z m -679.7003,127.865 c -22.6541,-22.991 -38.1509,-52.659 -51.9333,-99.423 -16.4492,-55.812 -16.5419,-75.712 -0.5585,-119.845 7.5769,-20.922 10.2074,-14.397 4.5473,11.28 -6.8995,31.299 -4.8068,53.729 8.9165,95.57 22.4468,68.437 44.611,100.389 81.9576,118.147 38.0057,19.228 78.4247,20.992 94.5989,-23.626 5.5695,-16.876 1.5168,-71.06 -8.9062,-119.067 -14.4754,-66.68 -12.2712,-90.798 9.5115,-104.079 12.4431,-7.588 42.1776,-7.627 58.8051,-0.07 35.2575,16.007 61.1069,68.955 81.8657,167.688 11.725,55.765 13.8783,61.238 25.2406,64.165 10.1385,2.613 12.1115,6.367 4.8174,9.165 -8.176,3.138 -15.5457,1.86 -20.7008,-3.59 -19.1843,-20.276 -25.212,-33.192 -33.9333,-72.701 -26.2483,-118.917 -44.7778,-150.097 -89.1975,-150.097 -13.6171,0 -16.6118,1.047 -21.7739,7.609 -8.1431,10.354 -7.621,19.876 3.9003,71.141 12.2037,54.296 17.115,98.578 13.4175,120.967 -21.24,91.401 -106.7287,78.641 -160.5749,26.766 z m 611.002,-142.418 c -3.8095,-4.208 -5.6681,-2.787 -24.0735,-3.791 -15.5746,-0.846 -28.1209,-4.138 -37.4626,-7.432 -44.9678,-21.133 -63.7899,-68.499 -62.0694,-101.971 0.8072,-14.16 0.538,-25.746 -0.5984,-25.746 -5.1977,0 -18.1076,-30.383 -19.5178,-45.933 -1.8858,-20.797 2.007,-29.152 13.5836,-29.152 6.7901,0 9.8202,2.35 15.8247,12.275 4.0846,6.751 9.4173,18.988 11.8502,27.194 4.4206,14.911 4.4299,14.919 13.6551,12.273 5.0773,-1.455 13.4634,-2.648 18.6359,-2.648 7.1665,0 9.4046,-1.249 9.4046,-5.251 0,-11.336 9.3626,-35.87 16.9151,-44.323 14.4089,-16.126 32.1784,-9.911 32.1784,11.256 0,10.303 -8.144,28.724 -16.3099,36.89 -4.6724,4.671 -4.6375,5.113 0.6271,7.92 38.9362,24.964 48.9603,68.25 49.8286,97.472 0.5649,19.854 2.2098,37.333 3.6557,38.841 4.5769,4.778 1.7978,13.986 -4.309,20.542 -7.2139,7.742 -15.4158,8.66 -21.8184,1.584 z m 5.2573,-53.749 c -4.2859,-45.364 -17.9932,-73.133 -45.5116,-92.204 -10.4294,-7.227 -13.0495,-7.806 -26.8644,-5.935 -19.7254,2.673 -30.017,8.077 -35.4737,18.63 -13.8245,40.979 9.7761,85.096 45.8245,104.623 14.4527,7.375 52.9299,8.534 57.8377,4.213 2.6504,-2.335 6.4807,-5.054 4.1875,-29.327 z m -54.3797,-30.147 c -4.4584,-8.329 1.0401,-18.159 9.4871,-16.954 5.1065,0.726 6.3022,2.813 6.3022,11.004 0,8.19 -1.1957,10.278 -6.3022,11.004 -4.0318,0.574 -7.4496,-1.245 -9.4871,-5.054 z m 25.1318,-2.789 c -2.0497,-7.836 4.9466,-17.344 9.4787,-12.881 4.6264,4.558 2.3822,16.693 -3.2865,17.772 -2.7251,0.519 -5.3121,-1.523 -6.1922,-4.891 z m -85.8988,-64.528 c -0.039,-4.85 -13.679,-33.931 -15.9166,-33.931 -2.0086,0 -0.1712,7.441 6.2353,25.267 4.1628,11.581 9.7432,16.575 9.6813,8.664 z m 68.1653,-26.776 c 3.4378,-14.816 0.7602,-13.811 -5.9362,2.23 -3.5099,8.405 -3.6905,10.828 -0.8073,10.828 2.0426,0 5.0773,-5.876 6.7435,-13.058 z m -626.6107,74.748 c 5.5316,-17.932 32.687,-51.224 43.3876,-50.139 5.8254,0.591 4.761,5.131 -1.8491,8.671 -3.1821,1.702 -13.0367,13.443 -21.8993,26.092 -8.8624,12.647 -16.7427,22.995 -17.5117,22.995 -0.7691,0 -3.23,-4.046 -2.1275,-7.619 z m 32.8849,-60.282 c -0.9649,-5.413 3.6552,-8.943 8.8249,-12.446 5.1696,-3.502 11.4516,-6.65 13.2477,-2.507 0.4217,0.973 -2.2856,3.893 -6.7451,6.981 -11.8335,8.198 -14.969,9.983 -15.3275,7.972 z m 28.8784,-35.386 c 0,-4.633 29.9986,-21.591 40.74,-23.032 6.1827,-0.829 10.6044,-0.494 11.2413,0.174 4.5831,4.807 -48.0062,25.066 -50.9371,25.066 -0.5742,0 -1.0442,-0.995 -1.0442,-2.212 z m 117.8298,-41.888 c -16.0993,-8.308 -29.8122,-16.731 -30.4734,-18.713 -1.755,-5.265 10.1983,-4.507 28.5666,1.812 25.4974,8.773 40.0209,17.195 40.0209,23.208 0,10.256 -8.8712,8.788 -38.1141,-6.307 z m -23.9745,10.814 c -1.5885,-0.585 -12.3096,-3.857 -23.8248,-7.273 -21.4169,-6.352 -27.1819,-11.422 -12.9862,-11.422 11.6921,0 47.389,10.784 52.4503,15.845 3.9005,3.901 3.4508,4.344 -4.191,4.141 -4.7082,-0.13 -9.86,-0.706 -11.4483,-1.291 z m 81.1775,-14.821 c -4.9397,-5.811 -15.2833,-17.444 -22.9857,-25.852 -7.7024,-8.407 -13.5502,-16.589 -12.9953,-18.183 2.6712,-7.666 42.0644,21.729 50.1994,37.459 9.8561,19.061 0.1928,23.529 -14.2184,6.576 z" fill="#00B894" transform="translate(120.77866,-9.3586754) matrix(0.26458333,0,0,0.26458333,-1877.5282,-4247.1319)"/>
</svg>