<?xml version="1.0" ?><svg height="85.118629mm" viewBox="0 0 155.39613 85.118629" width="155.39613mm" xmlns="http://www.w3.org/2000/svg">
    <path d="m 2909.5954,21289.951 c -17.8407,-2.125 -71.8002,-29.987 -73.7242,-42.029 -1.924,-12.042 75.3859,13.38 75.3859,13.38 l 5.5971,-9.917 c 0,0 -35.0694,-57.534 -24.3999,-92.007 10.6695,-34.473 28.86,-28.413 31.4837,-13.695 2.6236,14.718 23.1754,76.581 23.1754,76.581 0,0 31.3962,-24.556 61.5681,-24.399 30.1718,0.157 70.4884,5.431 70.4884,5.431 0,0 26.8486,-70.6 38.9173,-83.901 12.0687,-13.301 18.3655,10.468 17.2286,23.612 -1.1369,13.144 -30.1719,76.581 -30.1719,76.581 0,0 52.2104,-42.816 62.8799,-47.145 10.6695,-4.329 0.3499,14.325 -8.3956,27.075 -8.7455,12.75 -46.8757,46.673 -46.8757,46.673 0,0 37.1682,-6.376 56.8455,-13.853 19.6773,-7.477 35.3316,-10.94 39.3546,-6.532 4.0229,4.407 18.8027,6.768 18.8027,6.768 0,0 137.2163,25.737 154.27,26.052 17.0536,0.315 -8.5706,20.542 -22.0386,29.358 -13.468,8.815 -71.8877,33.056 -109.7555,30.459 -37.8679,-2.598 -94.2762,7.556 -118.676,17.315 -24.3998,9.76 -54.1344,15.82 -102.4968,-0.157 -48.3624,-15.978 -119.463,-45.65 -119.463,-45.65 z" fill="#FFFFFF" transform="translate(-17.581085,-44.34804) matrix(0.26458333,0,0,0.26458333,-728.53968,-5539.4897)"/>
    <path d="m 3119.8782,21104.276 c -1.2229,0.04 -2.4836,0.27 -3.7759,0.712 -3.3393,1.134 -13.2787,21.445 -22.0881,45.131 l -16.0165,43.066 -34.6941,-1.898 c -24.3511,-1.328 -43.0824,-0.599 -63.5559,7.358 -33.6877,13.097 -31.8162,17.271 -44.6195,-40.438 -7.8542,-35.406 -16.1382,-45.079 -31.3801,-36.656 -9.8846,5.463 -20.4802,34.055 -19.3986,52.355 0.4447,7.523 -3.5912,10.65 -13.7523,10.65 -7.9105,0 -14.2184,2.759 -14.0191,6.129 0.5433,9.194 13.1525,29.547 27.8232,44.915 l 13.0311,13.652 -24.9425,-12.212 c -43.5935,-21.344 -66.0237,-11.127 -43.8191,19.958 10.7372,15.03 51.5927,36.507 69.8862,36.74 5.5052,0.07 14.7978,3.958 20.6484,8.646 5.8506,4.686 15.6931,12.005 21.8698,16.261 7.8865,5.434 10.2755,11.429 8.0285,20.128 -1.7604,6.814 -4.9991,12.135 -7.1979,11.825 -19.24,-2.718 -31.8679,16.799 -25.0661,38.732 5.1144,16.493 15.8548,18.515 14.9268,2.81 -0.9105,-15.404 4.2133,-29.24 10.8287,-29.24 3.0642,0 5.5241,7.121 5.465,15.825 -0.1728,25.135 1.6353,28.072 9.9429,16.158 7.5797,-10.873 7.8047,-10.822 8.5577,1.917 1.1476,19.418 14.747,11.618 15.589,-8.942 0.4271,-10.414 -3.0204,-20.255 -8.6534,-24.712 -11.614,-9.189 -13.3175,-28.324 -2.8851,-32.422 4.2758,-1.677 23.9266,3.58 43.6663,11.686 23.6575,9.717 46.5539,14.74 67.1702,14.74 28.7314,0 31.0806,0.962 28.8808,11.833 -1.3173,6.506 -5.7136,10.584 -9.7712,9.064 -12.0839,-4.536 -30.7686,13.185 -29.8736,28.332 1.0345,17.504 9.1446,18.02 19.888,1.267 8.1719,-12.739 10.5731,-10.649 9.7585,8.475 -0.6181,14.499 12.4003,12.428 15.4121,-2.453 l 2.5339,-12.523 5.6542,13.18 c 4.6724,10.892 7.0666,11.94 13.8043,6.06 10.2728,-8.965 9.2688,-30.965 -1.8132,-39.731 -24.7181,-19.555 22.8224,-53.558 75.7264,-54.165 35.2104,-0.402 44.7681,10.6 25.5823,29.455 -12.9127,12.69 -17.4412,35.725 -7.0242,35.725 2.7784,0 8.7673,-5.826 13.3132,-12.944 l 8.2649,-12.946 1.2345,15.823 c 1.4323,18.314 5.741,19.898 15.6442,5.752 6.6742,-9.536 7.0948,-9.51 7.8575,0.48 1.2218,15.979 14.7807,8.001 15.8121,-9.304 0.5844,-9.795 -3.4939,-18.71 -11.5653,-25.286 -16.8613,-13.742 -16.4201,-24.861 0.9875,-24.861 22.0705,0 68.0038,-19.829 91.8667,-39.657 11.833,-9.832 24.3801,-17.874 27.8795,-17.874 7.9074,0 7.7805,-3.48 -0.6336,-17.64 -5.592,-9.409 -12.9685,-11.127 -47.7549,-11.127 -22.6272,0 -57.7255,-4.095 -77.9993,-9.106 -20.274,-5.009 -40.0376,-8.02 -43.9147,-6.686 -3.8772,1.331 -10.11,-1.426 -13.85,-6.124 -6.8546,-8.611 -19.9456,-5.939 -67.4826,13.772 -6.0707,2.516 0.4804,-7.123 14.5566,-21.419 17.9986,-18.281 25.3225,-30.555 24.6836,-41.363 -1.2319,-20.846 -15.8443,-20.097 -41.4933,2.128 l -20.1985,17.504 7.4275,-16.062 c 13.3799,-28.931 3.3748,-71.089 -14.9635,-70.453 z m 4.0403,20.523 c 2.8844,0.168 5.1666,4.254 5.6431,12.634 0.3161,5.35 -5.6866,24.364 -13.3211,42.254 -11.7997,27.65 -15.3691,31.587 -23.7942,26.251 -9.043,-5.724 -8.8513,-7.821 2.1902,-23.899 6.656,-9.692 14.6469,-27.352 17.7548,-39.247 3.1199,-11.94 7.8189,-18.206 11.5272,-17.993 z m -213.7348,22.3 c 3.6811,-0.792 7.3472,4.032 8.3121,16.223 0.5477,6.932 4.975,22.155 9.8326,33.829 6.2278,14.963 7.1356,23.022 3.0852,27.325 -3.1593,3.356 -7.4052,6.105 -9.4358,6.105 -4.7058,0 -19.4263,-40.726 -20.3461,-56.291 -0.9379,-15.87 3.8195,-26.172 8.552,-27.191 z m 242.8845,47.055 -15.8209,18.212 c -8.7013,10.016 -17.9252,18.215 -20.4978,18.215 -8.4265,0 -5.227,-4.162 15.6914,-20.406 z m -115.7981,12.054 c 39.9385,0 56.5934,8.307 58.915,47.592 1.8986,32.122 -6.3722,45.271 -42.4721,53.703 -33.2556,6.977 -61.0197,7.366 -86.5173,-2.451 -15.3031,-5.892 -30.0073,-14.553 -35.3421,-19.591 -15.9846,-15.092 -3.0556,-35.607 25.1014,-58.216 25.6998,-20.637 53.9788,-21.037 80.3151,-21.037 z m 160.7284,23.081 c 4.0496,-0.312 1.9732,2.039 -3.5859,6.847 -6.7584,5.844 -25.0507,13.945 -40.6476,18.005 -30.4936,7.934 -39.4921,20.238 -10.004,13.677 12.2519,-2.726 16.6537,-1.993 14.2177,2.364 -2.4907,4.457 6.5046,5.255 30.601,2.722 24.1712,-2.543 45.1228,-0.659 71.7996,6.447 30.0075,7.996 42.7336,8.821 62.5702,4.071 13.6949,-3.279 31.2816,-7.486 39.082,-9.35 7.8001,-1.866 1.6162,3.062 -13.7383,10.95 -15.3551,7.89 -41.186,17.372 -57.4062,21.068 -26.4837,6.04 -32.5505,5.441 -59.4905,-5.86 -30.4769,-12.785 -47.1162,-11.895 -34.8804,1.866 8.7751,9.872 2.6322,14.783 -18.4929,14.783 -9.7767,0 -25.9985,2.394 -36.0457,5.326 -11.2094,3.271 -19.6592,3.271 -21.8735,0 -5.7934,-8.555 -20.2382,-6.13 -19.6809,3.304 0.2806,4.745 -4.4561,8.629 -10.5258,8.629 -6.0694,0 -14.7797,1.468 -19.3586,3.265 -4.5788,1.8 -10.1975,0.507 -12.4868,-2.874 -2.3638,-3.49 0.3307,-6.156 6.2427,-6.168 22.982,-0.04 45.8162,-21.77 52.3295,-49.785 l 6.3362,-27.254 41.8718,-12.907 c 18.9432,-5.84 29.1165,-8.815 33.1664,-9.126 z m 27.9511,13.355 c 11.9062,-0.1 25.4208,2.58 38.885,8.071 11.6405,4.745 36.1442,8.812 54.4532,9.035 23.9217,0.29 30.1346,1.797 22.0759,5.35 -16.8286,7.421 -59.6642,5.664 -89.3917,-3.661 -15.2097,-4.772 -34.8133,-6.79 -46.3044,-4.767 -18.8313,3.315 -19.3241,3.021 -8.9462,-5.355 7.0264,-5.671 17.3219,-8.567 29.2282,-8.673 z m -265.3992,3.898 c -0.7857,0.07 -1.6472,0.191 -2.5867,0.367 -5.7225,1.115 -9.1563,8.674 -9.9287,14.463 -1.0149,7.6 5.905,12.004 13.4189,10.54 5.7223,-1.115 9.3779,-6.555 9.3761,-13.035 0,-6.761 -4.7811,-12.76 -10.2796,-12.335 z m -107.97,4.481 c 2.6255,0.143 9.7232,2.382 21.2457,6.56 15.1612,5.499 27.7636,13.322 28.0037,17.387 0.5464,9.24 1.803,9.56 -24.8728,-6.266 -20.7003,-12.282 -28.7521,-17.91 -24.3766,-17.681 z m 211.8793,-2.535 c -9.0678,-0.234 -13.474,6.724 -13.0854,11.906 0.7485,9.981 8.7228,13.648 13.4691,13.648 4.7463,0 10.7032,-7.618 10.7066,-12.372 0.01,-11.748 -6.3058,-13.058 -11.0903,-13.182 z m -55.7592,39.624 c -14.0524,0 -25.395,2.586 -25.2081,5.75 0.1871,3.164 4.0691,5.759 8.6285,5.759 11.3879,2.787 24.4262,0.04 35.1976,0 8.3498,0 13.0354,-2.496 10.8261,-5.759 -2.1426,-3.164 -15.392,-5.75 -29.4441,-5.75 z" fill="#00B894" transform="translate(-17.581085,-44.34804) matrix(0.26458333,0,0,0.26458333,-728.53968,-5539.4897)"/>
</svg>