<?xml version="1.0" ?><svg height="60.425449mm" viewBox="0 0 60.433895 60.425449" width="60.433895mm" xmlns="http://www.w3.org/2000/svg">
    <path d="m 46242.89,4005.6347 c 8.234,-13.9981 23.913,-17.8158 39.218,-26.4243 15.304,-8.6085 67.622,-24.6277 67.622,-24.6277 0,0 13.101,11.4156 4.742,35.6316 -8.36,24.216 -21.46,29.9799 -41.589,32.7122 -20.129,2.7322 -30.11,21.6335 -44.999,18.3398 -14.888,-3.2937 -25.618,-16.5058 -24.994,-35.6316 z" fill="#FFFFFF" transform="translate(-150.45597,-322.06109) matrix(0.37621017,0,0,0.37621017,-17231.193,-1163.6142)"/>
    <path d="m 49664.375,6386.877 c -3.601,0 -8.073,1.84 -9.937,4.0878 -2.251,2.7111 -8.354,4.086 -18.131,4.086 -17.101,0 -31.837,5.3638 -36.868,13.4219 -2.299,3.6788 -6.389,5.6621 -11.728,5.6621 -4.51,0.01 -12.196,2.4459 -17.08,5.4238 -21.626,13.1852 -25.976,40.5801 -8.729,54.9785 6.729,5.6174 8.422,8.7981 7.188,13.5137 -0.886,3.3919 -0.244,7.8146 1.428,9.8301 4.794,5.7755 11.628,2.7945 12.584,-5.4883 0.659,-5.7085 3.263,-8.5111 10.861,-11.6856 5.496,-2.2969 12.679,-6.6986 15.961,-9.7812 7.841,-7.3674 12.435,-4.2842 10.332,6.9336 -1.161,6.1843 -0.41,9.8525 2.521,12.2832 6.438,5.3451 9.866,1.1282 9.866,-12.1504 0,-6.655 1.223,-12.0996 2.722,-12.0996 1.497,0 2.725,5.5552 2.725,12.3457 0,8.807 1.25,12.8276 4.363,14.0215 6.582,2.5258 9.546,-4.5015 7.76,-18.3887 -1.563,-12.1481 -1.335,-12.6303 9.232,-19.6231 9.128,-6.0419 11.303,-9.3543 13.813,-21.0566 5.98,-27.8839 2.444,-46.3144 -8.883,-46.3144 z m -4.025,11.3398 c 0.579,0.02 1.063,0.1765 1.365,0.4785 2.993,2.9932 -0.527,7.0405 -4.16,4.7832 -2.743,-1.7028 -2.873,-2.8084 -0.502,-4.2734 1.098,-0.6791 2.33,-1.0221 3.297,-0.9883 z m -27.436,10.457 c 4.741,0 12.815,2.5936 17.945,5.7637 7.861,4.8577 9.195,7.1062 8.496,14.3047 -0.697,7.159 -1.932,8.4978 -7.64,8.2754 -3.746,-0.1456 -8.958,-1.1955 -11.582,-2.334 -6.101,-2.6489 -6.373,3.1203 -0.453,9.6602 3.958,4.3748 3.862,5.0069 -1.178,7.705 -6.683,3.5759 -19.753,5.055 -20.125,4.209 0.482,-11.1179 -0.83,-18.5213 -6.986,-27.7441 -3.299,-4.6305 -5.998,-9.2128 -5.998,-10.1817 0,-3.1207 18.628,-9.6582 27.521,-9.6582 z m -46.568,19.127 c 4.648,0.1108 8.921,1.7324 11.814,4.9297 6.547,7.234 6.676,21.4541 -0.812,28.4889 -11.749,13.1678 -34.032,11.0165 -34.459,-10.8366 -0.133,-6.7804 -0.418,-9.8935 5.812,-15.668 5.074,-4.7034 11.669,-7.0565 17.645,-6.914 z m -4.922,27.6211 c -3.556,0.1541 -5.642,2.7856 -4.229,6.4707 2.054,3.7394 7.373,4.0153 9.317,1.4914 2.719,-3.2772 2.332,-5.9152 -1.116,-7.2375 -1.437,-0.5516 -2.787,-0.776 -3.972,-0.7246 z m -41.713,51.3398 c -5.596,0 -8.961,4.2215 -6.52,8.1738 2.376,3.8469 8.325,3.3815 11.905,-0.9316 3.571,-4.303 1.385,-7.2422 -5.385,-7.2422 z m 63.082,1.6172 c -4.791,-0.1532 -11.296,3.9091 -9.574,6.6934 2.548,4.1256 14.9,3.0717 14.9,-1.2715 0,-2.1229 -1.532,-4.4105 -3.406,-5.082 -0.586,-0.21 -1.236,-0.318 -1.92,-0.3399 z m -34.182,12.0059 c -3.745,0 -6.81,1.2261 -6.81,2.7246 0,1.4988 3.065,2.7246 6.81,2.7246 3.747,0 6.813,-1.2258 6.813,-2.7246 0,-1.4985 -3.066,-2.7246 -6.813,-2.7246 z m 79.178,2.7246 c -4.553,0 -7.627,3.8888 -5.082,6.4316 3.255,3.2565 9.008,1.7603 9.008,-2.3437 0,-2.2477 -1.769,-4.0879 -3.926,-4.0879 z m -58.574,5.7851 c -1.503,-0.036 -3.077,0.1975 -4.563,0.7676 -3.618,1.3876 -3.78,2.4242 -0.931,5.8574 3.929,4.7342 11.123,4.2699 12.818,-0.8281 1.051,-3.1521 -2.817,-5.6883 -7.324,-5.7969 z m -68.445,10.5625 c -5.289,0 -6.894,2.937 -3.473,6.3575 v 0 c 2.211,2.2097 2.161,2.2092 7.48,0.168 5.546,-2.1279 2.847,-6.5274 -4.007,-6.5274 z" fill="#00B894" transform="translate(-150.45597,-322.06109) matrix(0.37621017,0,0,0.37621017,-17231.193,-1163.6142) translate(-3313.5291,-2437.8203)"/>
</svg>