<?xml version="1.0" ?><svg height="188.32684mm" viewBox="0 0 372.11542 188.32684" width="372.11542mm" xmlns="http://www.w3.org/2000/svg">
    <path d="m -10190.979,1463.176 c -3.583,-27.5285 -3.583,-38.5646 22.459,-45.1368 26.041,-6.5721 164.792,-32.8605 164.792,-32.8605 0,0 5.511,-27.2805 73.1638,-49.1049 67.6527,-21.8244 677.6098,56.4947 709.5761,86.8752 31.9663,30.3806 22.7347,59.5211 -31.6907,101.3098 -54.4254,41.7888 -68.8593,63.5335 -176.3489,89.6617 -107.4896,26.1282 -324.6398,23.1804 -324.6398,23.1804 0,0 -102.8126,3.4349 -194.8534,-38.8499 -92.0411,-42.2848 -158.7291,-80.3535 -189.3171,-99.8218 -30.589,-19.4684 -53.141,-35.2532 -53.141,-35.2532 z" fill="#FFFFFF" transform="translate(119.48189,-72.475512) matrix(0.26458333,0,0,0.26458333,2585.77,-219.09485)"/>
    <path d="m -9591.9555,1810.2102 c -88.3277,-6.6472 -130.9883,-34.4645 -203.1799,-132.4858 -20.2536,-27.4998 -30.1496,-37.9139 -36.0296,-37.9139 -13.217,0 -92.867,-14.6902 -112.945,-20.8307 -10.209,-3.1227 -32.608,-13.1495 -49.775,-22.2817 l -31.212,-16.6038 -26.04,12.6669 c -62.688,30.4936 -160.614,32.9733 -160.614,4.067 0,-14.2825 38.141,-43.7409 84.354,-65.152 19.146,-8.87 19.193,-8.9344 8.202,-11.3822 -32.781,-7.3011 -49.936,-15.2464 -64.809,-30.0162 -18.014,-17.8892 -22.737,-31.3127 -17.864,-50.7655 4.501,-17.9632 19.063,-26.0215 60.909,-33.705 37.406,-6.8685 37.791,-6.5238 -22.222,-19.846 -20.198,-4.4836 -42.374,-12.0063 -49.28,-16.7172 -10.832,-7.3879 -12.489,-10.5984 -12.051,-23.3567 0.365,-10.697 2.853,-16.398 8.989,-20.5953 13.783,-9.4311 26.45,-23.531 39.193,-43.6266 25.412,-40.0774 75.728,-51.7503 189.596,-43.9848 65.162,4.4438 199.8846,16.446 260.2053,23.1811 17.722,1.9787 46.0994,3.6117 63.061,3.6289 l 30.8396,0.031 23.6955,-25.3306 c 13.0324,-13.9317 31.2465,-35.6815 40.4755,-48.3326 39.3504,-53.9424 79.0724,-84.1563 116.13,-88.3333 12.0536,-1.3586 17.982,-0.174 22.6895,4.5336 11.997,11.9968 7.8757,31.9336 -17.7482,85.8549 -32.3697,68.1179 -37.8682,82.7735 -31.8082,84.7838 26.4434,8.772 149.2664,28.0649 196.1885,30.8171 42.7929,2.51 91.3427,-4.4596 159.3124,-22.8702 30.2521,-8.1943 33.8909,-10.313 56.862,-33.1073 14.803,-14.6893 34.7259,-29.5532 50.2079,-37.4582 21.1303,-10.7889 27.053,-15.9532 33.5077,-29.2163 8.9785,-18.4486 20.1329,-21.5812 23.8671,-6.7029 1.2988,5.1745 7.0279,11.8358 12.731,14.803 19.6001,10.1971 29.1271,24.0055 29.2294,42.3649 0.071,12.7138 1.7385,17.4108 6.7488,19.0109 13.1586,4.2029 29.9575,21.9572 40.5512,42.8586 12.4897,24.6409 25.003,37.5337 40.435,41.6609 30.34,8.1141 -2.8268,27.7762 -64.6956,38.3533 -53.1133,9.0802 -68.1305,9.3232 -100.6564,1.6291 -47.9896,-11.3524 -48.2014,-11.3459 -51.0384,1.5707 -4.1085,18.707 -30.0913,44.1469 -77.1971,75.5844 -24.3349,16.2408 -78.3629,52.7196 -120.0616,81.0639 -135.6798,92.2269 -172.1082,104.246 -329.7993,108.8129 l -83.3975,2.4152 16.9421,9.0305 c 25.9245,13.818 36.5433,22.7294 54.8499,46.0309 23.1461,29.4615 55.1837,83.514 55.1925,93.1189 0,7.1245 -14.4354,17.7464 -21.9685,16.1572 -1.4655,-0.3093 -19.7231,-1.8459 -40.5726,-3.4148 z m -69.5909,-186.3903 c -1.1827,-1.9138 -5.0353,-3.5354 -8.5608,-3.6035 -3.5257,-0.067 -15.3667,-3.2176 -26.3123,-6.9991 -21.9321,-7.5769 -23.6329,-6.8147 -12.1253,5.434 6.0934,6.4864 12.2498,8.3169 28.4617,8.4626 11.6405,0.1053 19.7467,-1.3358 18.5367,-3.294 z m -180.5286,-14.1059 c -1.284,-4.0435 -9.762,-18.4297 -18.841,-31.9693 -15.179,-22.6356 -24.826,-50.3015 -24.826,-71.1957 0,-11.4969 -17.741,-44.9942 -31.288,-59.0744 -14.567,-15.141 -39.87,-25.273 -56.647,-22.6828 -6.887,1.0632 -26.168,5.5204 -42.848,9.9046 -36.52,9.5994 -121.83,16.4272 -145.945,11.6807 -23.071,-4.541 -22.822,-4.5775 -20.165,2.946 4.785,13.5613 19.089,25.1818 48.596,39.4783 16.679,8.0815 38.155,19.5658 47.723,25.5204 9.567,5.9547 44.631,24.8987 77.919,42.0979 50.015,25.842 69.7,33.7414 113.386,45.4981 29.075,7.8247 53.404,14.4339 54.066,14.6873 0.662,0.2532 0.154,-2.8476 -1.13,-6.8911 z m 413.0473,-7.7935 c 38.2813,-8.926 75.1317,-25.7369 119.4867,-54.5087 32.6989,-21.2108 57.0534,-47.7765 65.1853,-71.104 4.2393,-12.1609 1.7811,-31.6973 -5.0193,-39.8912 -8.9983,-10.8424 -73.7114,-2.5141 -104.8273,13.4908 -22.6583,11.6547 -32.9645,25.6965 -58.696,79.9701 -18.4157,38.8435 -28.0716,54.6013 -40.0702,65.3912 -8.6943,7.8185 -14.1633,14.2155 -12.153,14.2155 2.0104,0 18.2524,-3.4037 36.0938,-7.5637 z m -613.0843,-178.5243 c 10.945,-2.6148 19.902,-5.9437 19.902,-7.3977 0,-3.212 -23.412,-7.3276 -42.007,-7.3849 -15.845,-0.048 -105.583,17.3132 -109.118,21.111 -3.981,4.2763 109.798,-1.211 131.223,-6.3284 z m 319.374,-45.3165 c 0,-11.2635 -25.8487,-29.4573 -49.0513,-34.5256 -27.4811,-6.0026 -52.9477,-5.1938 -60.0487,1.9074 -13.822,13.821 8.154,27.7057 57.9249,36.5989 38.8861,6.9487 51.1751,5.9927 51.1751,-3.9807 z m -204.876,-1.5209 c 7.054,-8.4987 3.386,-22.766 -6.205,-24.1311 -9.837,-1.4006 -17.951,11.0669 -14.426,22.1703 2.768,8.7191 14.126,9.7988 20.631,1.9608 z m 33.574,-12.8554 c 1.094,-15.1749 0.545,-16.2816 -7.504,-15.1307 -11.278,1.6125 -18.036,18.9784 -10.787,27.7135 8.978,10.8181 17.003,5.2978 18.291,-12.5828 z" fill="#00B894" transform="translate(119.48189,-72.475512) matrix(0.26458333,0,0,0.26458333,2585.77,-219.09485)"/>
</svg>