<?xml version="1.0" ?><svg height="121.32268mm" viewBox="0 0 193.20909 121.32268" width="193.20909mm" xmlns="http://www.w3.org/2000/svg">
    <path d="m 46857.637,3253.5459 c 8.17,-32.0766 39.835,-56.2154 39.835,-56.2154 l -1.663,-21.7965 c 0,0 -22.99,13.6635 -24.653,6.4414 -1.662,-7.2221 17.207,-23.1628 24.437,-26.1558 7.229,-2.9929 16.989,0.6507 20.098,7.4173 3.109,6.7667 9.326,24.7244 9.326,24.7244 0,0 29.352,-4.8148 48.872,-2.6676 19.52,2.1471 40.053,11.3211 40.053,11.3211 0,0 17.206,-21.0807 25.809,-26.2208 8.604,-5.1401 28.413,-5.9208 32.317,4.1641 3.904,10.0849 4.699,12.7525 4.699,12.7525 0,0 55.379,1.1061 77.429,5.2052 22.051,4.099 102.011,25.375 125.579,78.4673 23.569,53.0923 -8.531,98.6372 -19.086,112.3657 -10.555,13.7285 -69.838,49.5138 -159.919,26.8715 -90.082,-22.6424 -102.806,-61.1603 -102.806,-61.1603 0,0 -87.334,20.4301 -116.18,-23.2279 -28.846,-43.658 -24.147,-72.2862 -24.147,-72.2862 z" fill="#FFFFFF" transform="translate(-124.8898,-11.154163) matrix(0.35748076,0,0,0.35748076,-16623.651,-1113.4609)"/>
    <path d="m 50215.627,5583.7676 c -19.778,-0.2087 -43.3,20.1485 -41.322,37.2148 1.019,8.7978 7.297,9.5975 20.474,2.6074 5.876,-3.1173 11.196,-5.1495 11.823,-4.5156 2.783,2.812 -0.229,16.8514 -5.023,19.0429 -39.539,22.5922 -43.539,69.9169 -28.049,103.6606 21.399,46.7495 75.317,55.3841 123.228,47.7081 9.678,-1.9231 10.971,3.5928 13.972,11.8892 3.811,10.5442 20.393,24.3508 43.18,35.957 16.249,8.276 17.482,9.4794 18.967,18.5137 3.817,23.2295 6.857,38.1137 8.244,40.3574 0.822,1.3295 3.638,2.418 6.256,2.418 3.879,0 4.74,-1.7021 4.68,-9.1992 -0.04,-5.0589 -2.172,-15.2568 -4.727,-22.6621 -2.557,-7.4053 -4.214,-13.8981 -3.682,-14.4297 0.531,-0.5318 8.178,1.097 16.991,3.6211 l 16.025,4.5898 v 25.0117 c 0,13.7566 1.076,27.8443 2.393,31.3047 1.417,3.7294 4.303,6.291 7.086,6.291 4.266,0 4.858,-2.6909 6.464,-29.4336 l 1.768,-29.4336 h 28.275 28.274 l -1.662,20.4688 c -1.387,17.098 -1.018,20.9998 2.238,23.7031 7.157,5.9384 11.483,-2.236 13.172,-24.8789 l 1.519,-20.3594 13.491,-4.1269 c 7.421,-2.2692 14.244,-3.4077 15.164,-2.5313 0.92,0.8765 -1.013,10.8231 -4.293,22.1055 -6.907,23.7509 -7.093,25.7803 -2.698,29.4277 6.738,5.5931 11.24,-2.5291 17.01,-30.7031 l 5.606,-27.3672 13.156,-9.8847 c 29.925,-30.6192 51.562,-54.0014 43.351,-114.3977 -2.082,-7.0232 4.858,-13.3415 16.163,-18.3562 0.57,13.5075 4.653,32.8315 24.179,42.875 6.88,2.1836 15.749,-2.5253 19.258,-10.2247 5.794,-12.7159 1.73,-35.1505 -8.336,-46.0117 -7.543,-8.1376 -7.562,-8.7929 -0.252,-8.7929 4.802,0 6.163,1.6194 7.539,8.955 2.097,11.1761 13.424,22.9317 22.094,22.9317 3.627,0 9.164,-2.7324 12.697,-6.2676 8.652,-8.6507 6.51,-21.3799 -5.392,-32.0488 -5.707,-5.1139 -8.035,-8.9823 -7.012,-11.6504 1.985,-5.171 -5.98,-5.4185 -12.625,-0.3926 -2.62,1.9807 -8.384,3.6357 -12.812,3.6777 -9.801,0.095 -22.606,5.1938 -27.321,10.8789 -1.915,2.3103 -7.433,5.8501 -12.263,7.8672 -4.829,2.0173 -11.818,6.5772 -15.53,10.1328 -6.606,6.3271 -7.994,8.003 -11.64,3.3491 -21.189,-30.3653 -51.341,-52.2096 -84.808,-66.695 -26.714,-11.5623 -99.66,-17.8075 -106.738,-12.042 -10.588,8.6247 3.634,8.8245 35.163,10.5872 33.061,1.8482 53.608,6.7435 76.66,18.2597 29.605,14.7893 45.731,27.7798 61.603,49.627 16.097,22.1532 19.786,36.1165 15.618,59.1094 -3.563,19.6471 -12.142,36.5062 -26.252,51.5918 -11.246,12.0225 -10.668,11.6399 -12.014,5.7636 -1.356,-5.9264 -14.017,-6.4562 -13.947,6.5098 0.03,5.5737 -3.369,12.208 -13.676,15.2043 -19.994,5.8128 -38.453,7.528 -60.547,7.546 -26.806,0.019 -35.406,-5.3092 -35.406,-11.2034 0,-7.2931 -7.339,-8.5985 -12.19,-2.168 l -4.203,5.5723 -30.388,-10.3418 c -37.638,-12.8086 -51.883,-19.9155 -58.473,-29.17 -7.222,-10.1424 -10.017,-17.8868 0.658,-22.5965 15.236,-6.7215 33.609,-24.8916 38.5,-40.4465 6.472,-20.5752 7.851,-51.9855 -1.097,-69.3925 -4.452,-8.6588 -6.271,-15.1741 -5.309,-19.0098 1.777,-7.0766 2.865,-7.142 16.433,-0.9843 13.397,6.0784 15.686,6.0988 21.596,0.1875 5.103,-5.1027 4.637,-9.2098 -3.08,-27.1133 -7.009,-16.2648 -13.331,-22.0762 -24.023,-22.0762 -5.341,0 -13.281,1.4918 -17.643,3.3145 -7.474,3.1225 -22.115,17.386 -24.168,23.5449 -0.631,1.8911 -4.92,0.9811 -13.158,-2.791 -18.755,-8.4459 -49.392,-9.2968 -76.725,-5.6719 l -1.191,-10.5781 c -1.308,-11.5992 -8.958,-21.7583 -17.397,-23.1055 -1.276,-0.2038 -2.577,-0.3103 -3.896,-0.3242 z m -1.029,15.8262 c 1.686,-0.068 3.224,0.1376 4.535,0.6406 3.215,1.2344 11.119,16.3589 11.119,21.2793 0,1.0524 -3.31,3.0677 -7.357,4.4785 -7.339,2.562 -7.36,2.5532 -7.36,-6.9141 0,-11.1794 -3.075,-12.945 -14.478,-8.3105 -10.685,4.342 -12.113,2.855 -3.649,-3.8028 5.722,-4.4997 12.13,-7.1675 17.19,-7.371 z m 152.34,9.914 c 2.783,0.067 5.141,0.7544 6.726,2.0703 3.827,3.1763 9.834,16.8798 8.141,18.5723 -0.649,0.649 -5.177,-0.4901 -10.063,-2.5313 -4.884,-2.0412 -11.097,-3.7129 -13.806,-3.7129 -3.139,0 -6.506,3.0697 -9.278,8.4551 l -4.351,8.4532 c -4.063,-3.0707 -5.418,-6.6906 -9.481,-9.7618 l 7.449,-9.1132 c 6.502,-7.9561 16.159,-12.1453 23.444,-12.4219 0.414,-0.016 0.821,-0.019 1.219,-0.01 z m -104.241,17.7545 c 15.195,-0.6276 21.91,-1.4725 34.871,2.2436 34.332,9.8435 38.87,25.4726 46.854,41.2304 7.412,14.6224 7.413,14.4903 -0.236,14.4903 -13.922,0 -25.633,10.4354 -25.633,22.8398 0,9.223 5.467,12.067 21.379,11.1191 13.9,-0.8282 14.17,-0.7209 13.373,5.2872 -1.342,10.1139 -11.761,25.6851 -21.721,32.4668 -5.143,3.5028 -16.847,8.6461 -26.008,11.4296 -16.529,5.0221 -33.913,13.4906 -73.509,3.4256 -23.957,-6.0896 -38.983,-19.4437 -48.712,-44.6619 0,-0.9715 3.914,-2.167 7.038,-3.7871 11.439,-5.9326 17.785,-8.1485 17.785,-17.1094 0,-6.2684 -1.855,-9.8701 -7.547,-14.6601 -4.152,-3.4924 -9.669,-5.7867 -12.119,-6.3496 -6.25,-1.4359 -7.982,-3.8605 -3.819,-11.9102 12.66,-24.4803 24.101,-43.8278 78.004,-46.0541 z m 417.967,58.6225 c 4.214,-0.171 11.507,8.4529 9.904,12.6289 -1.792,4.6689 -5.089,4.9919 -8.32,0.8164 -4.168,-5.3856 -5.454,-11.4434 -2.779,-13.0957 0.357,-0.2206 0.759,-0.3319 1.195,-0.3496 z m -429.853,0.7773 c -0.872,0.049 -1.631,0.2288 -1.959,0.2324 -3.801,0.042 -8.789,7.4799 -7.094,11.8965 0.855,2.228 5.119,3.597 7.469,3.1445 5.081,-0.9785 6.941,-7.8343 5.412,-13.0097 -0.61,-2.0631 -2.376,-2.3449 -3.828,-2.2637 z m 95.21,3.3945 c 3.972,-0.096 6.745,2.5077 7.791,7.7403 0.844,4.2157 1.534,9.7361 1.534,12.2656 0,4.2761 -4.369,5.618 -11.039,3.3926 -1.348,-0.45 -5.488,-1.4885 -9.198,-2.3067 -8.753,-1.9301 -8.88,-9.1685 -0.283,-15.9316 4.292,-3.3756 8.107,-5.0853 11.195,-5.1602 z m -161.503,0.076 c 3.175,0 8.694,2.7073 12.263,6.0156 6.828,6.3279 7.556,8.2956 4.614,12.5098 -0.991,1.4201 -5.81,5.0171 -10.709,7.9922 -8.32,4.2241 -9.188,4.2078 -10.391,-0.1309 -0.817,-3.0463 -1.5,-10.2296 -1.52,-15.9629 -0.03,-9.3212 0.579,-10.4238 5.743,-10.4238 z m 89.341,1.2774 c -4.597,0.01 -8.901,5.7314 -7.504,11.0722 1.99,7.6106 11.51,5.4444 12.471,-2.8379 0.469,-4.03 -0.649,-6.9676 -2.994,-7.8672 -0.653,-0.2505 -1.316,-0.3679 -1.973,-0.3671 z m 368.84,6.4707 c 5.021,-0.1184 10.642,8.8074 13.098,22.08 0.995,5.3773 0.299,9.8395 -2.027,12.9922 -3.421,4.6384 -3.708,4.5273 -8.436,-3.248 -5.607,-9.2202 -9.131,-27.0766 -5.969,-30.2403 1.049,-1.0483 2.175,-1.5566 3.334,-1.5839 z m -366.125,13.5468 c -3.489,-0.085 -7.897,0.5722 -15.013,1.9278 -19.785,3.7693 -28.858,9.0882 -28.858,16.9238 0,6.702 5.468,12.1831 17.244,17.2852 10.099,4.3755 21.816,2.9611 34.854,-4.2071 14.965,-8.2277 15.593,-22.7017 1.279,-29.4043 -3.445,-1.6129 -6.016,-2.4403 -9.506,-2.5254 z m -8.299,8.1582 c 9.104,0.049 16.424,2.1393 15.539,8.8301 -1.342,10.1467 -20.138,12.5891 -28.505,12.4317 -10.964,-0.2715 -15.259,-3.7663 -15.247,-9.5215 0,-2.7743 6.259,-11.2662 26.37,-11.7227 0.62,-0.014 1.237,-0.021 1.843,-0.018 z m 1.229,5.1758 c -0.796,-0.044 -1.742,0.012 -2.895,0.1309 -4.526,0.6431 -5.602,2.1973 -5.234,7.5527 0.557,3.4051 3.384,4.4512 8.719,3.4082 4.23,-1.3084 5.135,-2.9275 4.041,-6.9492 -1.208,-2.9721 -2.243,-4.0096 -4.631,-4.1426 z m -18.082,1.1328 c -4.616,0.071 -6.294,0.906 -6.649,5.9297 -0.04,2.5208 1.794,4.4329 5.403,4.3399 3.899,-0.1009 6.096,-2.0321 5.939,-4.3399 -0.158,-2.3077 -0.08,-6.0007 -4.693,-5.9297 z m 74.625,0.9395 c -2.521,0.077 -5.798,2.3358 -9.162,6.8359 -4.525,6.0515 -24.521,17.9499 -35.737,21.2656 -2.362,0.698 -4.293,2.9595 -4.293,5.0254 0,5.5283 20.735,4.813 33.918,-1.1699 13.464,-6.1095 19.851,-13.764 19.961,-23.8945 0.06,-5.4327 -1.83,-8.1494 -4.687,-8.0625 z" fill="#00B894" transform="translate(-124.8898,-11.154163) matrix(0.35748076,0,0,0.35748076,-16623.651,-1113.4609) translate(-3313.5291,-2437.8203)"/>
</svg>