<?xml version="1.0" ?><svg height="155.88818mm" viewBox="0 0 129.51764 155.88818" width="129.51764mm" xmlns="http://www.w3.org/2000/svg">
    <path d="m 51029.285,6108.5684 c -2.807,0.029 -5.648,0.6182 -8.322,2.0839 -12.225,6.7005 -15.442,32.1797 -15.442,32.1797 0,0 -18.967,19.485 -25.181,33.3946 -16.074,0.785 -34.123,3.2126 -35.996,10.1504 2.399,9.2285 19.964,10.2241 36.947,9.332 3.899,7.9081 10.26,13.9629 10.26,13.9629 0,0 -16.822,13.981 -24.819,26.3066 -7.997,12.3257 -9.468,20.1842 -4.964,32.2617 4.504,12.0775 28.035,-7.0332 28.035,-7.0332 0,0 -1.93,21.3435 1.287,51.2891 3.217,29.9455 7.17,20.4316 7.17,20.4316 0,0 4.871,42.1901 52.117,62.4571 47.246,20.267 91.366,3.2254 108.555,-5.295 17.188,-8.5204 11.765,-52.6113 11.765,-52.6113 0,0 63.148,-61.3808 84.657,-85.4531 21.509,-24.0723 27.666,-28.6211 20.681,-32.5918 -6.986,-3.9707 -23.899,2.6458 -35.297,14.6406 -11.398,11.9947 -47.429,54.3497 -40.443,38.2188 6.985,-16.1309 28.218,-49.22 40.351,-62.8692 12.133,-13.6493 31.253,-22.17 33.643,-30.1113 2.39,-7.9414 -24.728,-10.0922 -40.17,0 -15.442,10.0921 -38.972,38.6324 -27.115,18.1172 11.858,-20.5152 38.423,-46.8222 51.016,-52.4473 12.592,-5.6251 11.58,-18.4457 -12.686,-14.8886 -24.266,3.5569 -53.128,16.4603 -75.648,69.8164 -22.52,53.356 -14.799,112.5039 -14.799,112.5039 0,0 -7.998,-3.1433 -19.487,-13.5664 -11.49,-10.423 -45.867,-11.5 -45.867,-11.5 l -49.818,-72.961 c 0,0 11.305,-9.3474 16.361,-23.1621 5.055,-13.8146 1.93,-31.7656 1.93,-31.7656 l 10.111,-12.9043 c 0,0 7.446,-23.5764 5.424,-32.4277 -2.022,-8.8513 -24.635,1.4062 -24.635,1.4062 0,0 -9.594,-7.0674 -19.621,-6.9648 z" fill="#FFFFFF" transform="translate(-329.09283,-207.05) matrix(0.37621017,0,0,0.37621017,-17588.494,-1171.7176) translate(-3313.5291,-2437.8203)"/>
    <path d="m 47770.94,4075.4914 c 0,-2.2002 5.585,-8.0241 12.412,-12.942 l 12.413,-8.9414 -1.499,-21.7971 c -0.821,-11.9885 -1.504,-29.4603 -1.512,-38.8262 -0.02,-16.2564 -0.319,-17.0292 -6.7,-17.0292 -6.319,0 -6.62,0.7065 -5.53,12.9422 4.093,45.9287 3.979,54.3874 -0.793,58.5141 -6.206,5.3647 -30.689,11.2714 -33.805,8.155 -4.512,-4.5117 1.25,-12.014 13.148,-17.1129 l 11.866,-5.0871 v -29.5145 -29.5146 l -17.206,-2.9473 c -22.625,-3.8755 -46.586,-15.8601 -57.724,-28.8722 -8.351,-9.7545 -14.983,-27.3111 -14.983,-39.6545 0,-2.996 -2.361,-5.9049 -5.449,-6.7125 -5.037,-1.317 -5.45,-3.7164 -5.45,-31.6511 0,-16.6244 -0.429,-30.2262 -0.956,-30.2262 -0.524,0 -4.837,1.3534 -9.582,3.0074 -18.348,6.3961 -27.949,-10.4134 -17.966,-31.4532 5.644,-11.8922 21.389,-26.7788 27.099,-25.6213 4.101,0.8312 3.95,1.7012 -1.341,7.748 -7.342,8.393 -16.326,25.5743 -16.326,31.2249 0,2.3075 1.619,4.1957 3.597,4.1957 5.442,0 25.955,-18.5311 30.726,-27.7594 3.891,-7.5251 3.836,-8.4234 -0.752,-11.9006 -6.147,-3.1585 -10.34,-6.7737 -13.136,-12.1085 -3.683,-7.1217 -5.709,-8.1752 -15.736,-8.1841 -14.116,-0.02 -29.22,-8.5091 -29.22,-16.4366 0,-6.2263 13.882,-13.5242 25.725,-13.5242 4.754,0 8.052,-2.3619 10.847,-7.7695 2.211,-4.2734 8.372,-11.5923 13.694,-16.2647 6.769,-5.9443 9.675,-10.7926 9.675,-16.146 0,-9.6384 6.187,-18.5937 16.541,-23.9487 10.704,-5.5351 27.004,-5.9927 30.844,-0.8658 2.116,2.8263 6.502,3.691 14.652,2.8895 14.071,-1.3838 20.755,3.0501 18.448,12.238 -1.083,4.3208 -0.257,6.909 2.55,7.9864 7.832,3.0047 4.318,11.5345 -8.331,20.2376 -11.169,7.6846 -12.26,9.3492 -10.354,15.7977 3.97,13.4363 2.096,24.5322 -6.467,38.3096 l -8.475,13.631 6.784,9.9982 c 3.733,5.499 8.752,11.9652 11.157,14.3692 5.741,5.7403 22.564,32.0979 22.564,35.3504 0,1.396 7.706,3.0287 17.123,3.6284 13.641,0.8686 19.736,2.854 29.972,9.7616 l 12.847,8.6711 0.08,-21.0238 c 0.163,-40.7599 8.21,-80.3817 21.691,-106.8077 9.235,-18.1 23.782,-31.9801 44.25,-42.2201 24.534,-12.2737 42.355,-13.1698 52.867,-2.6579 4.089,4.0892 6.274,8.6506 5.325,11.1212 -0.885,2.3039 -1.608,5.1214 -1.608,6.2615 0,1.14 -4.535,4.4114 -10.077,7.2699 -10.105,5.2115 -14.24,8.1856 -29.43,21.1552 l -8.173,6.9795 16.348,-6.6358 c 25.631,-10.4044 39.506,-8.3611 39.506,5.8177 0,10.6962 -3.137,14.7807 -16.586,21.5963 -7.251,3.6742 -17.73,10.6671 -23.285,15.5403 -10.319,9.0526 -29.751,36.871 -27.398,39.2239 0.717,0.7166 6.953,-6.0401 13.858,-15.015 9.074,-11.7905 16.704,-18.3467 27.501,-23.6298 23.413,-11.454 34.035,-6.185 27.89,13.8336 -3.371,10.986 -18.42,27.4674 -51.951,56.9 -11.749,10.3131 -27.927,27.4729 -35.951,38.1334 -13.299,17.6705 -14.579,20.6175 -14.48,33.3676 0.122,16.539 -5.872,30.5819 -16.387,38.3569 -7.92,5.8557 -30.127,14.3281 -37.555,14.3281 -3.789,0 -4.094,4.4324 -2.573,37.4638 1.986,43.1915 1.412,45.0122 -18.772,59.3612 -14.275,10.1498 -20.486,11.7976 -20.486,5.4354 z m 47.373,-121.7386 c 21.564,-4.3306 31.643,-13.9249 31.643,-30.1238 0,-20.8861 -17.938,-49.2691 -39.507,-62.5174 -5.941,-3.6474 -13.52,-5.0229 -27.72,-5.0305 -16.881,0 -20.648,0.9182 -27.641,6.8017 -4.45,3.7462 -11.043,6.8115 -14.645,6.8115 -5.014,0 -7.363,2.237 -9.999,9.5279 -3.913,10.8241 -12.745,14.5886 -22.27,9.492 -5.317,-2.8457 -6.798,-2.3077 -12.159,4.4141 -5.786,7.2601 -5.9,8.2526 -2.154,19.2476 2.175,6.3759 7.762,15.3187 12.42,19.8723 19.324,18.8918 73.379,29.2677 112.032,21.5046 z m -42.924,-18.9646 c -17.069,-4.0088 -28.939,-10.8082 -33.179,-19.007 -2.18,-4.2192 -3.965,-8.9582 -3.965,-10.5311 0,-5.1181 4.444,-3.0193 8.11,3.8303 3.84,7.1761 22.707,15.1069 35.936,15.1069 6.317,0 7.545,-1.0735 7.01,-6.1304 -0.679,-6.3931 0.39,-6.6151 15.154,-3.1477 7.148,1.6788 7.518,1.3412 5.843,-5.338 -1.304,-5.1923 -0.601,-7.5868 2.585,-8.8096 2.407,-0.9235 4.376,-3.3871 4.376,-5.4747 0,-2.2407 2.814,-3.7954 6.871,-3.7954 9.349,0 14.925,11.4374 8.962,18.3803 -2.257,2.6286 -4.853,6.8883 -5.766,9.4661 -0.911,2.5779 -5.085,5.5235 -9.269,6.5459 -4.186,1.0225 -10.533,4.1243 -14.107,6.8928 -7.039,5.4536 -12.322,5.8257 -28.561,2.0116 z m -85.914,-51.6408 c 1.085,-3.653 2.717,-10.0131 3.626,-14.1343 2.164,-9.8118 8.215,-9.5222 14.244,0.6812 7.818,13.2352 14.551,9.4241 14.551,-8.2358 0,-8.8045 4.418,-12.9576 8.957,-8.4197 5.699,5.6991 12.43,3.4482 13.341,-4.4605 0.683,-5.94 2.132,-7.3583 6.994,-6.8438 3.371,0.357 6.13,0.1205 6.13,-0.5254 0,-2.3165 -12.156,-22.105 -19.323,-31.4571 -4.019,-5.245 -8.519,-13.2145 -10.001,-17.7102 -1.619,-4.9136 -4.185,-7.74 -6.437,-7.086 -2.062,0.5984 -7.249,1.6759 -11.525,2.3946 -5.771,0.9694 -8.824,3.8092 -11.83,11 -2.227,5.331 -7.003,13.5649 -10.611,18.2972 -6.109,8.0078 -6.564,10.9163 -6.564,41.9511 0,24.5304 0.856,33.0618 3.237,32.2683 1.777,-0.5932 4.123,-4.0669 5.211,-7.7196 z m 234.405,-58.7071 c 21.662,-18.3853 38.714,-39.21 32.11,-39.21 -7.379,0 -19.833,10.3408 -45.17,37.5045 -25.344,27.1751 -39.032,44.8753 -39.057,50.5161 0,1.207 6.428,-4.7899 14.295,-13.3262 7.867,-8.5364 24.887,-24.5044 37.822,-35.4844 z m -64.432,-5.1519 c 5.958,-24.2743 13.44,-47.2778 18.422,-56.6509 9.017,-16.9677 31.392,-39.4249 53.641,-53.8426 7.593,-4.9207 13.807,-9.9661 13.807,-11.2122 0,-4.9918 -21.18,-1.8522 -35.262,5.2271 -21.557,10.8378 -34.184,24.1394 -44.873,47.2727 -12.696,27.481 -23.88,85.7209 -21.119,109.9916 1.398,12.3031 4.118,5.0903 15.384,-40.7857 z m 29.085,-3.2195 c 17.947,-33.8213 27.201,-45.3145 46.923,-58.2824 19.097,-12.5545 22.91,-17.9427 10.543,-14.8949 -13.602,3.3522 -31.034,13.4452 -39.11,22.6437 -13.091,14.9089 -38.231,70.5107 -37.752,83.493 0.123,3.1654 1.22,1.2898 19.396,-32.9594 z m -169.802,-46.9612 c 11.918,-6.0801 20.41,-20.0041 19.081,-31.2847 -1.385,-11.7666 -17.965,-24.1767 -32.3,-24.1767 -12.815,0 -21.847,4.0662 -26.86,12.0952 -2.982,4.775 -2.671,6.4358 2.172,11.5906 7.154,7.6169 7.244,16.887 0.205,21.284 -7.569,4.727 -6.848,7.1969 3.403,11.6534 12.231,5.3157 22.269,4.9757 34.299,-1.1618 z m -26.387,-30.869 c -6.958,-6.9575 -0.506,-16.6898 7.997,-12.139 2.767,1.4811 3.095,4.0838 3.095,6.2263 0,5.7138 -7.192,9.8133 -11.092,5.9127 z m 19.776,-0.3327 c -2.045,-5.3292 0.742,-9.8933 6.041,-9.8933 2.675,0 5.973,2.2296 5.406,6.0752 -1.058,7.1851 -9.228,9.5999 -11.447,3.8181 z m -38.593,6.6572 c 2.83,-3.0076 0.184,-3.3444 -15.467,-1.9719 -25.803,2.2623 -25.689,8.1888 -6.33,6.6944 10.428,-0.805 19.858,-2.6624 21.797,-4.7225 z m 72.21,-44.3903 c -6.944,-2.8481 -5.844,-8.3765 2.725,-13.6888 6.382,-3.9564 6.684,-4.642 2.043,-4.6215 -2.996,0.02 -8.514,1.7764 -12.26,3.918 -9.762,5.5807 -16.349,5.0966 -16.349,-1.2016 0,-2.9085 -1.075,-5.9531 -2.389,-6.7655 -4.052,-2.504 -20.718,10.5242 -21.64,16.9158 -0.769,5.329 0.35,6.0384 9.535,6.0509 6.075,0 14.794,2.6695 20.944,6.3916 l 10.536,6.3777 5.811,-5.7106 c 5.366,-5.273 5.449,-5.8603 1.044,-7.666 z" fill="#00B894" transform="translate(-329.09283,-207.05) matrix(0.37621017,0,0,0.37621017,-17588.494,-1171.7176)"/>
</svg>