<?xml version="1.0" ?><svg height="130.51096mm" viewBox="0 0 177.91344 130.51096" width="177.91344mm" xmlns="http://www.w3.org/2000/svg">
    <path d="m 46350.363,3546.1427 c 11.344,17.5237 27.479,22.6552 49.437,16.7594 21.959,-5.8958 53.562,-17.1415 53.562,-17.1415 0,0 -15.71,14.2482 -6.066,27.5137 9.645,13.2656 14.801,15.0125 14.801,15.0125 0,0 -12.981,15.5038 0.364,23.8562 13.345,8.3524 17.409,7.8065 17.409,7.8065 0,0 -0.728,12.7742 13.588,18.3971 14.315,5.6229 46.646,16.3227 46.646,16.3227 0,0 12.981,22.6552 33.727,12.7196 20.745,-9.9355 27.322,-14.5061 27.322,-14.5061 0,0 33.397,10.0297 67.245,1.1314 33.848,-8.8983 37.912,-15.9405 37.912,-15.9405 0,0 10.615,9.4988 30.269,-3.2755 19.653,-12.7742 47.859,-30.4071 47.859,-30.4071 0,0 17.046,7.479 28.51,0.6005 11.465,-6.8784 17.591,-20.9083 10.251,-33.4096 -7.339,-12.5013 -8.189,-23.474 -20.866,-22.1093 -12.678,1.3648 -20.564,9.1713 -20.564,9.1713 0,0 -0.788,-13.1018 -16.681,-26.0944 -15.892,-12.9926 -37.851,-33.628 -57.444,-33.9009 -19.593,-0.273 5.035,-17.6874 -13.466,-25.7669 -18.501,-8.0794 -40.46,8.8983 -40.46,8.8983 0,0 -17.773,-9.9355 -30.572,-6.005 -12.799,3.9306 -24.809,14.3028 -24.809,14.3028 l -24.506,-8.8437 c 0,0 2.101,-16.3304 -31.108,-17.7745 -18.496,-0.8042 -3.727,-32.7758 -12.627,-44.6228 -8.982,-11.9558 -47.739,-7.7519 -47.739,-7.7519 l -43.735,9.1167 c 0,0 -41.369,-9.0621 -47.01,-3.603 -5.642,5.4591 25.355,25.9852 25.355,25.9852 0,0 -47.435,36.7942 -58.657,51.5883 -11.222,14.7942 -7.947,51.9705 -7.947,51.9705 z" fill="#FFFFFF" transform="translate(-19.90054,12.338762) matrix(0.35748076,0,0,0.35748076,-16545.181,-1227.9036)"/>
    <path d="m 49785.309,5838.1934 c -3.596,0.1002 -7.004,1.0657 -8.993,2.9472 -1.782,1.6863 -7.028,3.1932 -11.658,3.3496 -5.178,0.1746 -9.935,2.1581 -12.361,5.1543 -3.918,4.8377 -4.002,4.8322 -12.363,-0.8965 -12.071,-8.2721 -32.153,-8.1476 -40.553,0.252 -3.311,3.3113 -6.02,7.5774 -6.02,9.4805 0,5.6137 9.575,16.1447 19.229,21.1465 8.043,4.1665 8.465,4.8463 4.07,6.5195 -22.899,8.7184 -55.387,41.5825 -62.455,63.1777 -4.334,13.2434 -2.247,36.7615 4.002,45.1328 8.998,12.0499 26.259,18.9278 47.51,18.9278 16.442,0 20.635,-0.9918 34.154,-8.0782 l 15.41,-8.0781 -1.588,6.3203 c -1.753,6.9864 1.876,15.5957 8.575,20.3535 3.286,2.3322 4.022,5.1679 2.992,11.5176 -2.635,16.235 4.426,25.8594 18.97,25.8594 3.556,0 4.79,1.6865 4.79,6.5508 0,8.6788 6.529,15.5234 14.81,15.5234 4.601,0 7.088,1.5143 7.959,4.8438 0.697,2.6638 5.104,7.1085 9.797,9.8769 l 8.529,5.0332 2.846,32.4336 c 4.146,47.2883 5.027,52.8443 9.01,56.8281 4.325,4.324 10.094,2.6091 12.058,-3.5839 1.88,-5.9185 -5.198,-59.6623 -9.974,-75.7442 -2.062,-6.9445 -3.083,-13.7062 -2.268,-15.0254 2.524,-4.082 8.553,-2.6404 8.553,2.0449 0,6.3212 8.362,14.4717 16.734,16.3106 l 7.141,1.5684 -1.233,38.6152 c -1.091,34.166 -0.75,39.0969 2.956,42.8008 5.302,5.303 7.015,5.2514 12.093,-0.3594 3.666,-4.0506 3.908,-8.8587 2.221,-44.2305 l -1.895,-39.6855 9.137,-6.0469 c 5.026,-3.3258 10.951,-8.8102 13.164,-12.1875 l 4.024,-6.1426 8.011,7.0371 c 12.841,11.2739 33.762,12.0723 45.196,1.7246 2.452,-2.218 6.278,-3.0773 9.711,-2.1796 l 5.664,1.4804 -0.85,46.5664 c -0.743,40.773 -0.359,46.8803 3.107,49.0977 2.178,1.3932 5.917,1.7826 8.309,0.8652 4.015,-1.5412 4.257,-5.399 3.168,-50.6719 -0.767,-31.8195 -0.321,-49.0058 1.272,-49.0058 1.349,0 6.298,-2.9311 10.998,-6.5156 6.623,-5.0517 9.433,-5.931 12.494,-3.9082 2.174,1.4355 3.623,3.9747 3.22,5.6425 -3.284,13.6345 -8.346,56.5172 -8.675,73.461 -0.215,11.097 -5.708,21.6213 6.207,21.6113 5.897,0.6809 6.908,-0.3434 9.375,-9.5059 1.519,-5.6481 3.511,-27.4727 4.425,-48.498 l 1.665,-38.2285 8.283,-1.6875 c 10.658,-2.1731 19.64,-8.8582 27.08,-20.1563 3.261,-4.9531 7.802,-9.0058 10.092,-9.0058 2.291,0 6.866,-2.1257 10.168,-4.7227 4.076,-3.2066 7.134,-4.0055 9.527,-2.4902 4.842,3.0637 22.898,2.8767 29.892,-0.3106 6.418,-2.924 16.621,-22.3473 16.581,-31.5879 -0.01,-3.2988 -2.85,-8.9484 -6.307,-12.5566 -3.457,-3.6082 -8.149,-10.2807 -10.426,-14.8262 -5.458,-10.8985 -14.362,-13.9832 -25.017,-8.6679 -10.071,5.0239 -9.116,5.2814 -10.926,-2.9571 -1.871,-8.5221 -14.869,-21.2652 -23.832,-23.3672 -3.62,-0.8488 -7.282,-3.7476 -8.137,-6.4433 -2.846,-8.9684 -16.565,-17.1621 -28.732,-17.1621 h -11.1 l -1.305,-11.5703 c -5.952,-24.3034 -30.825,-20.2438 -48.071,-8.8001 -7.581,5.1448 -7.6,-2.7319 -12.821,-5.6257 -12.531,-6.944 -31.947,-3.0367 -42.42,8.5351 -3.251,3.5926 -6.365,4.6817 -10.451,3.6563 -6.308,-1.5832 -13.116,2.5548 -13.116,7.9726 0,2.1191 2.746,3.3789 7.36,3.3789 4.654,0 7.357,1.2548 7.357,3.4161 0,6.4031 8.261,7.0578 12.938,1.0254 14.492,-18.6975 24.365,-21.84 33.226,-10.5743 6.406,8.1419 12.23,7.7339 19.885,-1.3925 4.543,-5.4171 9.125,-7.8969 16.365,-8.8575 12.12,-1.6078 14.922,2.6451 10.526,15.9707 -2.609,7.9026 -2.357,9.0558 2.906,13.3184 5.549,4.4921 8.587,4.5697 23.115,0.582 5.112,-1.4034 20.85,6.7589 20.85,10.8145 0,1.2654 -2.768,5.5892 -6.149,9.6074 -10.778,12.8093 -0.676,20.8689 12.836,10.2402 8.471,-6.6624 10.046,-6.2233 10.94,3.0645 0.732,7.5802 1.228,7.9454 10.113,7.416 8.593,-0.5122 9.223,-0.1178 7.801,4.9043 -0.85,3.0044 2.79,7.4082 -2.174,11.9414 -8.522,7.7824 -6.804,12.4917 -2.32,15.1309 9.12,5.3711 5.744,12.2679 5.744,18.957 0,8.5858 -4.739,10.396 -21.68,8.2793 -13.018,-1.6265 -18.272,-4.8263 -15.297,8.2246 1.49,7.9476 4.531,7.8753 -3.103,12.5938 -11.078,6.8463 -20.265,6.4899 -31.389,-1.2188 -10.504,-7.2796 -14.377,-6.21 -14.377,3.9707 0,4.5362 -1.725,8.0499 -4.746,9.666 -6.991,3.7417 -21.182,3.0882 -24.688,-1.1386 -3.233,-3.8929 -11.594,-4.8179 -16.31,-1.8028 -1.551,0.991 -3.208,4.5609 -3.68,7.9336 -0.723,5.1529 -2.358,6.2551 -10.246,6.9043 -5.69,0.4684 -11.769,-0.7891 -15.441,-3.1953 -3.41,-2.2356 -8.151,-3.3044 -10.852,-2.4473 -2.713,0.8611 -4.793,0.3859 -4.793,-1.0957 0,-4.2042 -3.829,-3.3906 -14.501,2.5496 -7.209,4.0123 -8.784,3.566 -9.546,1.337 -1.722,-5.0431 -9.655,-2.0187 -11.34,4.6916 -1.19,4.7465 -2.91,6.1023 -7.009,5.5195 -3.97,-0.5644 -6.322,-3.5795 -8.731,-11.1973 -3.498,-11.0516 -6.634,-12.8736 -11.261,-6.5449 -2.237,3.0593 -4.625,3.4175 -11.307,1.6973 -7.639,-1.9671 -8.552,-3.128 -9.27,-11.8203 -0.807,-9.7843 -3.989,-15.8321 -8.33,-15.8321 -1.317,0 -5.516,3.3402 -9.328,7.4219 -8.173,8.7482 -11.03,6.1846 -7.473,-6.7012 3.236,-11.7199 0.393,-14.4916 -9.578,-9.3359 -15.922,8.2331 -20.286,-2.7517 -6.191,-15.5781 4.722,-4.2965 8.567,-8.6128 8.547,-9.5918 -0.109,-5.131 -4.956,-7.6735 -15.953,-8.3672 -10.159,-0.6409 -12.339,-1.6216 -12.938,-5.8203 -0.894,-6.2456 7.318,-17.0397 16.168,-21.252 3.646,-1.7351 7.613,-5.3568 8.815,-8.0488 1.203,-2.6923 8.291,-9.8611 15.752,-15.9317 15.188,-12.3566 27.439,-27.8522 27.439,-34.707 0,-5.4971 1.938,-5.6435 11.52,-0.8633 19.399,9.6768 42.419,5.33 49.378,-9.3242 2.769,-5.8297 2.715,-7.7196 -0.363,-12.416 -3.729,-5.6925 -25.208,-9.4783 -36.122,-9.4783 -5.83,0 -11.423,-2.808 -4.941,-10.8086 5.396,-6.6599 7.174,-13.492 2.895,-17.1545 -2.859,-2.4483 -5.199,-5.4991 -5.199,-6.7793 0,-4.9739 -8.452,-11.2988 -15.096,-11.2988 -3.84,0 -6.978,-1.1389 -6.978,-2.5313 0,-5.1157 -10.838,-6.7599 -20.17,-3.0605 -8.19,3.246 -9.539,3.2151 -13.055,-0.2989 -2.627,-2.6281 -7.56,-3.9297 -12.183,-3.8007 z m 32.638,14.541 c 3.171,-0.2027 3.907,3.5139 0.266,10.3144 -2.065,3.8619 -1.881,5.8416 0.791,8.5157 4.605,4.6046 11.488,1.7617 14.422,-5.9571 1.284,-3.3756 2.861,-5.2022 3.904,-4.5683 2.527,1.5354 2.61,5.0233 0.729,8.5387 -3.144,5.8744 -2.183,8.4427 1.194,8.0633 6.474,1.9249 4.08,7.2308 -1.416,11.4019 -3.203,2.4321 -4.772,2.0326 -8.584,-2.1856 -6.584,-7.2848 -26.604,-15.3787 -34.957,-16.8965 -11.064,-2.0103 -20.875,1.9408 -31.115,2.4532 -2.934,0 -3.496,-1.3902 -2.227,-5.5196 2.287,-7.44 3.155,-8.1097 6.36,-4.9062 2.83,5.8285 10.131,3.0122 13.724,-2.8228 4.133,-6.7129 7.342,-8.0161 10.713,-0.6147 3.716,8.1538 9.465,8.2805 16.893,0.373 3.828,-4.0758 7.137,-6.0508 9.306,-6.1894 z m -97.896,4.9629 c 10.007,0 24.818,6.1705 24.818,10.3398 0,4.6216 -25.711,-0.9107 -31.799,-6.8418 -3.125,-3.0449 -2.217,-3.498 6.981,-3.498 z m 78.053,24.5039 c 32.294,15.1806 29.8,44.7912 -4.855,69.8189 -27.469,19.8382 -43.493,37.4679 -38.278,14.2123 3.739,-16.674 -7.865,-22.5772 -12.924,3.4844 -2.814,14.4994 -5.321,20.7626 -22.069,27.2837 -14.738,5.7385 -37.392,0.7732 -48.418,-8.051 -12.597,-10.0803 -6.69,-36.7235 0,-49.8247 6.181,-12.1156 34.979,-36.3893 47.378,-42.7146 17.669,-11.32 38.031,-9.9384 54.359,-15.3692 9.609,-3.1959 17.703,-2.173 24.813,1.1602 z m -11.42,16.5254 c -3.359,-0.016 -6.846,2.2852 -8.08,6.9394 -1.628,6.1401 -1.827,9.1958 0.605,12.127 6.988,7.667 16.657,-0.023 14.779,-12.1055 -0.717,-4.6115 -3.946,-6.945 -7.304,-6.9609 z m -23.944,1.5449 c -1.613,0.01 -3.305,0.6827 -4.707,1.8457 -3.538,2.9355 -4.547,12.4355 -1.633,15.3496 3.354,3.3545 10.752,3.0646 11.911,-5.4922 1.147,-8.4752 -2.022,-11.7149 -5.571,-11.7031 z m 75.826,4.6699 c 0.64,-0.067 2.051,0.8592 4.723,2.7305 3.674,2.5736 10.762,3.9863 20.006,3.9863 8.918,0 13.742,0.925 12.799,2.4531 -1.689,2.7324 -21.172,2.8989 -30.649,0.2617 -3.365,-0.9364 -6.508,-3.7253 -6.982,-6.1953 -0.407,-2.1088 -0.536,-3.1692 0.103,-3.2363 z m -155.754,43.5078 c -4.55,0 -9.074,5.1379 -9.074,10.3028 0,5.0429 4.965,5.8259 9.321,1.4707 3.922,-3.9234 3.758,-11.7735 -0.247,-11.7735 z m 17.333,4.9063 c -4.751,0 -9.239,5.0868 -9.239,10.4726 0,7.8779 10.875,4.4482 11.815,-3.7265 0.511,-4.4461 -0.366,-6.7461 -2.576,-6.7461 z m 412.867,39.2441 c 6.966,0 7.199,0.3724 6.564,10.4258 -0.602,9.5442 -0.157,10.4285 5.244,10.4785 3.243,0.03 7.105,2.0093 8.582,4.3965 2.145,3.4664 1.648,5.1835 -2.476,8.5293 -2.839,2.3041 -5.838,6.1216 -6.666,8.4824 v 0 c -0.828,2.3609 -3.471,4.141 -5.875,3.957 -11.9,-0.9098 -9.679,-3.6478 -13.83,-12.8476 -2.473,-6.0384 -4.572,-16.9678 -0.991,-25.0664 5.588,-6.7808 4.089,-8.3555 9.446,-8.3555 z" fill="#00B894" transform="translate(-19.90054,12.338762) matrix(0.35748076,0,0,0.35748076,-16545.181,-1227.9036) translate(-3313.5291,-2437.8203)"/>
</svg>