<?xml version="1.0" ?><svg height="123.22845mm" viewBox="0 0 177.8414 123.22845" width="177.8414mm" xmlns="http://www.w3.org/2000/svg">
    <path d="m -6539.9973,497.509 c 0,0 -8.8624,-34.669 3.5449,-41.9 12.4074,-7.231 35.6859,-12.655 58.728,-31.903 23.0422,-19.249 72.5533,-69.869 98.6678,-82.311 26.1144,-12.442 96.8952,-22.332 135.2988,-13.293 38.4036,9.039 93.5867,35.094 117.456,69.23 23.8693,34.137 50.2201,79.333 68.6538,101.559 18.4338,22.226 42.7757,39.667 40.7669,53.917 -16.5528,22.90289 -25.1252,42.17989 -36.916,66.481 l -5.9779,21.359 c -26.4144,10.87787 -77.404,26.21002 -122.537,39.347 0,0 -58.1372,15.633 -77.5162,16.803 -19.3791,1.17 -89.4509,-19.674 -89.4509,-19.674 -43.4586,-39.30198 -69.9917,-43.95551 -120.2686,-72.27409 -29.4616,-15.75413 -73.5992,-75.39191 -70.4496,-107.34091 z" fill="#FFFFFF" transform="translate(-80.907554,69.986064) matrix(0.31512533,-0.04451499,0.04451499,0.31512533,2124.3451,-447.85635)"/>
    <path d="m -1549.3496,4620.3477 c -5.9315,0 -12.1822,0.1184 -18.832,0.3554 -44.1717,1.575 -48.1847,2.4415 -75.9571,16.3535 -20.2768,10.156 -42.2503,26.5969 -71.2383,53.2989 -38.9786,35.903 -64.8245,53.0693 -80.2265,53.2793 -9.7752,0.134 -20.5791,14.4661 -23.2383,30.8281 -10.1037,23.3692 7.7063,41.5658 11.4727,56.0898 5.7123,25.743 8.8198,38.0178 14.0839,49.0039 17.7906,37.128 31.3907,48.918 94.42,77.92 85.1345,39.6532 143.2125,69.659 236.2363,35.5019 73.0018,-10.7549 93.1321,3.2664 135.8027,-44.5801 15.962,-17.8982 28.231,-25.3783 41.8098,-54.6206 0.078,-0.1676 22.9083,-9.8774 12.782,-36.5747 0,-5.761 -4.3398,-13.6976 -10.2832,-18.8086 -39.2893,-33.779 -53.6996,-52.2522 -75.1308,-96.3242 -26.4889,-54.473 -48.501,-79.1853 -86.8457,-97.4863 -37.4676,-17.8806 -63.3352,-24.2046 -104.8555,-24.2363 z m -12.9922,20.5058 c 71.494,-0.4708 141.6604,32.3374 165.7559,80.584 8.2443,16.507 8.7626,20.1791 4.3515,30.8301 -12.0733,29.145 -41.4057,20.1065 -44.6894,-13.7735 -1.7622,-18.18 -8.1613,-30.8509 -13.0918,-25.9179 -1.2395,1.236 0.1847,11.8804 3.166,23.6484 l 5.4219,21.3926 -13.3711,17.5156 c -16.7583,21.957 -13.3067,27.2331 4.8496,7.4141 13.053,-14.249 13.9459,-14.572 24.7656,-9.041 6.1728,3.158 14.2982,6.6458 18.0586,7.7558 5.5536,1.638 14.7198,16.2555 34.0801,54.3535 0.5775,1.135 -7.0458,6.4896 -16.9395,11.8926 -17.1006,9.343 -22.8603,15.9824 -13.8633,15.9824 6.437,0 44.3369,-19.7712 59.002,-30.7812 14.5991,-10.96 11.3492,-11.9518 38.0078,11.5742 11.8212,10.435 5.7746,23.736 -22.5,49.502 -18.1514,21.3199 -27.3334,22.8614 -53.4219,22.0156 -30.6869,-0.994 -49.3532,4.671 -71.7968,21.789 -12.2798,9.366 -16.5608,10.0633 -70.0801,11.4063 -71.8865,1.809 -80.376,0.621 -87.2403,-12.207 -6.8592,-12.815 -27.963,-29.4898 -53.5976,-42.3438 -26.8957,-13.489 -43.1662,-16.5081 -59.625,-11.0781 -25.7025,8.482 -51.4627,-13.0177 -59.0742,-49.3047 l -4.7774,-22.7754 17.8242,-15.6465 c 18.7528,-16.461 14.6772,-21.7829 -6.1308,-8.0039 -15.3758,10.183 -16.5834,10.0391 -19.6895,-2.3359 -4.0294,-16.055 0.572,-24.3697 14.8086,-26.7617 7.0764,-1.188 15.5657,-3.2339 18.8653,-4.5469 4.391,-1.745 7.4158,2.1778 11.2832,14.6348 2.9061,9.356 10.554,25.6016 16.9941,36.0976 l 11.709,19.084 -16.0059,21.2031 c -16.3502,21.654 -22.3426,36.391 -7.5898,18.666 29.6932,-35.682 31.6297,-37.2335 38.7266,-31.0175 3.7132,3.251 13.0397,9.0546 20.7246,12.8906 7.6853,3.838 14.5548,7.4817 15.2656,8.0957 0.7111,0.614 -1.5819,6.6738 -5.0938,13.4648 -8.0419,15.551 -2.6951,15.9193 10.8282,0.7403 l 10.3437,-11.6094 -22.6582,-14.8438 c -12.4623,-8.165 -26.8823,-18.6601 -32.0449,-23.3261 -11.1049,-10.03 -37.5111,-60.6686 -35.752,-68.5606 2.0534,-9.211 86.7314,-84.7665 104.8125,-93.5195 9.3267,-4.515 31.285,-10.2957 48.7969,-12.8477 10.1371,-1.4776 20.3784,-2.2237 30.5918,-2.291 z m -46.8144,15.9629 c -6.6811,1.059 -4.3048,3.5251 11.5507,11.9961 21.8505,11.671 25.9493,12.8445 25.9493,7.4375 0,-6.052 -28.5553,-20.8506 -37.5,-19.4336 z m 53.2304,23.2207 c -2.9177,0.1659 -6.0075,0.9235 -9.414,2.2305 -9.1115,3.497 -7.7872,9.1921 1.5683,6.7461 4.9341,-1.291 12.5179,1.8344 20.2676,8.3554 20.6157,17.349 27.2525,12.6949 9.0273,-6.3261 -6.6583,-6.9507 -12.3178,-10.4554 -18.5839,-10.9727 -0.94,-0.078 -1.8927,-0.089 -2.8653,-0.033 z m 81.1719,4.2305 c -8.1993,0.1052 -12.5095,2.8231 -21.4746,10.9726 -13.686,12.442 -11.668,17.5244 2.6562,6.6914 4.7392,-3.584 16.9772,-5.9102 31.5039,-5.9902 28.0042,-0.149 26.0202,-7.7567 -2.873,-11.0117 -3.9137,-0.4415 -7.0794,-0.6972 -9.8125,-0.6621 z m -104.6621,12.1445 c -1.611,-0.3406 -7.3541,7.3748 -15.9082,23.4238 -7.0422,13.213 -14.1262,23.2041 -15.7422,22.2071 -4.2871,-2.65 -37.7499,5.4204 -42.4316,10.2324 -2.7289,2.805 2.958,3.267 17.9648,1.459 20.8616,-2.519 22.5434,-2.0383 33.6836,9.6367 18.3264,19.205 25.7114,14.9089 9.5937,-5.5801 l -8.623,-10.9629 12.5781,-25.5078 c 7.9749,-16.1715 10.4958,-24.5676 8.8848,-24.9082 z m -88.377,7.6094 c -2.6532,-0.059 -3.0679,4.834 0.1114,13.1953 6.8945,18.136 0.8974,35.0312 -19.3262,54.4512 -10.2901,9.881 -21.1039,21.1091 -24.0293,24.9511 -4.4643,5.863 -4.4164,6.9864 0.2969,6.9864 7.1654,0 48.2198,-41.3682 50.3984,-50.7852 5.0866,-21.983 4.9113,-35.6743 -0.5508,-43.0273 -2.9112,-3.9199 -5.3084,-5.7363 -6.9004,-5.7715 z m 156.211,16.0117 c -2.568,-0.046 -2.3966,5.28 -1.0078,23.2402 1.1124,14.388 2.8247,19.6748 5.1718,15.9688 4.9348,-7.791 4.4901,-34.4776 -0.6269,-37.6426 -1.5212,-0.9402 -2.6812,-1.5512 -3.5371,-1.5664 z m 129.6191,35.6641 c 0.9758,0 5.414,7.1383 9.8633,15.8593 4.4499,8.722 13.8152,22.3767 20.8105,30.3457 l 12.7188,14.4844 -9.75,7.4961 c -5.3628,4.119 -10.9402,7.5281 -12.3965,7.5781 -1.4566,0.049 -9.2345,-13.2344 -17.2832,-29.5234 -12.1146,-24.519 -13.8671,-31.0477 -10.1855,-37.9277 2.4463,-4.573 5.2465,-8.3125 6.2226,-8.3125 z m -142.2695,20.3515 c -2.8498,-0.073 -6.1437,0.2189 -10.3321,0.6914 -9.8748,1.113 -20.9112,5.1118 -24.5273,8.8848 -6.1318,6.399 -6.0384,6.708 1.4082,4.625 27.4045,-7.671 29.5408,-7.4371 49.3223,5.3809 20.1157,13.034 24.5351,21.6953 24.5351,48.0683 0,6.136 1.0909,13.9948 2.4239,17.4688 1.3324,3.472 4.0486,6.3164 6.0351,6.3164 3.2829,0 2.6674,-10.3011 -2.7812,-46.4981 -1.2597,-8.365 -7.9966,-18.19 -20.1758,-29.416 -12.7958,-11.7937 -17.3587,-15.3019 -25.9082,-15.5215 z m -53.6485,12.7071 c -0.3345,0.064 -0.7107,0.2285 -1.1308,0.4882 -2.5412,1.571 -4.6211,6.1383 -4.6211,10.1543 0,4.012 -4.2154,21.848 -9.3672,39.6328 -5.1515,17.7891 -8.3443,33.3634 -7.0957,34.6114 6.5855,6.585 17.0718,-24.8061 23.2715,-69.6621 1.5477,-11.1957 1.2849,-15.6727 -1.0567,-15.2246 z m 197.8008,70.7402 c -6.304,0 -4.5657,8.9131 4.6739,23.9551 4.7203,7.686 9.2478,12.0482 10.0605,9.6972 2.0921,-6.054 -9.9928,-33.6523 -14.7344,-33.6523 z m -65.4765,14 c -3.0478,-0.4356 -12.5524,1.4784 -26.6993,6.0039 -37.8072,12.095 -72.6245,14.1793 -101.3964,6.0703 -38.2031,-10.764 -43.3566,-11.6647 -40.5313,-7.0957 1.415,2.29 11.1141,7.2373 21.5527,10.9883 l 18.9786,6.8262 -1.4395,18.0429 c -1.6989,21.278 5.655,20.5626 9.6895,-0.9414 2.5341,-13.507 2.8044,-13.6702 19.3222,-11.4062 9.9327,1.362 26.9591,-0.318 41.8223,-4.127 30.4712,-7.805 28.416,-7.8142 28.416,0.1 0,3.5908 2.0817,13.4724 4.625,21.961 2.543,8.4911 6.3806,15.4336 8.5273,15.4336 4.9767,0 0.3993,-35.2113 -5.5019,-42.3223 -3.3332,-4.016 -0.9195,-6.6196 10.5976,-11.4316 11.6761,-4.879 15.085,-7.666 12.0372,-8.1016 z m 113.0566,48.0625 c 2.8387,-0.1777 4.0144,0.8962 3.2715,3.1289 -1.9114,5.74 -14.8672,8.7375 -14.8672,3.4375 0,-2.102 3.6942,-4.7855 8.2109,-5.9688 1.3061,-0.341 2.4386,-0.5384 3.3848,-0.5976 z m -131.5801,37.7852 v 0 c 2.2818,0.1705 4.5024,1.2062 5.7715,3.2597 1.1214,1.814 1.0175,7.2026 -0.2305,11.9746 -1.3708,5.243 -5.4153,8.6797 -10.2149,8.6797 -5.6072,0 -7.2327,-1.8594 -5.5234,-6.3144 1.3331,-3.474 2.4238,-8.8646 2.4238,-11.9786 0,-3.7906 3.9686,-5.9056 7.7715,-5.621 z m -33.7187,1.957 c 10.7168,0 11.89,1.2068 11.1582,11.4648 -0.4501,6.307 -1.3511,11.9964 -2.0039,12.6504 -0.6523,0.651 -6.2451,2.4568 -12.4278,4.0078 -11.0151,2.765 -11.2161,2.5117 -9.9726,-12.6523 1.1684,-14.246 2.2168,-15.4707 13.2461,-15.4707 z m -94.543,1.9629 c 5.9077,0.5885 12.4268,8.976 12.6465,20.9941 0.068,3.719 -3.4841,3.4732 -14.6055,-1.0098 -6.2244,-2.509 -8.066,-5.8186 -6.5215,-11.7226 1.611,-6.1609 4.9359,-8.6148 8.4805,-8.2617 z m 43.748,0.033 c 21.7482,0 24.0727,0.8268 25.6602,9.1328 0.9594,5.025 1.0202,11.3116 0.1328,13.9746 -0.9989,2.996 -9.8445,4.8379 -23.2363,4.8379 -18.656,0 -21.625,-1.0523 -21.625,-7.6563 0,-4.214 -1.0907,-10.5006 -2.4238,-13.9746 -2.0438,-5.326 1.325,-6.3144 21.4921,-6.3144 z" fill="#00B894" transform="translate(-80.907554,69.986064) matrix(0.31512533,-0.04451499,0.04451499,0.31512533,2124.3451,-447.85635) translate(-4730.5688,-4305.3989)"/>
</svg>