<?xml version="1.0" ?><svg height="110.13934mm" viewBox="0 0 156.67729 110.13934" width="156.67729mm" xmlns="http://www.w3.org/2000/svg">
    <path d="m 12461.336,18664.742 c -11.832,0.422 -32.213,26.207 -32.213,26.207 l -65.019,28.194 c 0,0 -30.226,-11.597 -36.2,-9.805 -5.975,1.793 -11.715,21.824 -11.715,21.824 0,0 -76.613,22.983 -106.369,56.088 -20.383,27.201 -12.183,50.607 3.866,74.012 16.049,23.405 101.919,39.641 134.369,29.836 32.45,-9.805 102.854,-35.32 134.484,-37.323 31.63,-2.004 47.914,-35.951 47.914,-35.951 0,0 -22.376,-71.268 -26.008,-83.076 -3.631,-11.808 -27.527,-31.418 -27.527,-31.418 0,0 -3.75,-39.01 -15.582,-38.588 z m 206.766,339.164 c 0,0 -100.63,10.017 -154.752,17.291 -54.123,7.275 -60.448,-8.645 -114.336,3.69 0,0 -0.469,6.537 24.132,20.664 24.601,14.128 76.849,19.82 135.54,15.076 58.691,-4.745 109.416,-56.721 109.416,-56.721 z" fill="#FFFFFF" transform="translate(-177.17325,-0.11484644) matrix(0.26458333,0,0,0.26458333,-2143.3965,-4290.6557) translate(-3313.5291,-2437.8203)"/>
    <path d="m 9094.6295,16606.163 -18.9894,-8.612 -20.6202,4.733 c -14.9832,3.439 -35.2256,4.767 -74.0454,4.854 -45.6379,0.104 -59.529,-0.994 -95.2991,-7.521 -70.3478,-12.832 -102.1859,-25.174 -111.5185,-43.22 -6.019,-11.639 -4.0792,-36.562 4.3246,-55.559 10.8749,-24.585 46.6017,-60.493 86.0832,-86.52 10.8496,-7.153 11.8193,-8.713 9.3857,-15.117 -4.3987,-11.567 -3.1361,-26.38 3.3294,-39.052 7.868,-15.424 29.6659,-38.594 44.3944,-47.193 12.4223,-7.251 58.4877,-21.592 69.3617,-21.592 5.3459,0 6.851,-2.023 8.3146,-11.176 3.1399,-19.635 19.0116,-25.374 40.8905,-14.782 l 13.3633,6.469 15.3294,-7.755 c 8.4314,-4.267 22.3791,-8.484 30.9951,-9.375 l 15.6654,-1.616 5.0493,-14.217 c 12.2195,-34.405 50.7879,-26.14 50.4888,10.82 -0.08,9.863 1.9357,13.386 15.7435,27.53 9.0288,9.248 16.5226,19.799 17.4349,24.546 0.8799,4.581 3.0689,17.635 4.864,29.012 1.7953,11.376 4.9278,22.959 6.9613,25.74 3.4385,4.702 4.4839,4.426 14.9431,-3.92 11.5037,-9.18 27.1524,-16.591 27.0996,-12.831 -0.022,1.15 -7.8135,7.764 -17.3271,14.695 -9.5137,6.931 -17.2976,13.754 -17.2976,15.161 0,3.486 0.6155,3.371 17.3271,-3.216 8.059,-3.177 16.2294,-5.733 18.156,-5.679 6.3385,0.174 -9.8117,11.319 -20.6193,14.228 -7.6751,2.066 -12.0869,5.646 -16.0683,13.04 -3.0186,5.605 -9.9918,13.626 -15.4961,17.824 -15.6795,11.96 -58.4092,23.641 -87.9842,24.05 -8.8286,0.129 -5.5063,4.959 10.1075,14.72 28.5771,17.861 33.6827,25.78 16.6228,25.78 -13.0111,0 -23.5704,-5.142 -36.511,-17.776 l -11.9466,-11.665 -7.8372,5.135 -7.8374,5.136 14.0084,6.986 c 24.5157,12.229 27.8232,14.936 23.9553,19.596 -6.8691,8.278 -33.338,1.964 -46.3599,-11.06 -8.5605,-8.559 -21.2821,-9.088 -18.0826,-0.751 0.8599,2.241 -1.7232,6.097 -5.9326,8.854 -6.1348,4.019 -11.2626,4.529 -28.9434,2.872 -12.8655,-1.206 -22.8531,-3.661 -24.8908,-6.114 -1.8715,-2.255 -6.8176,-4.088 -10.991,-4.073 -6.1555,0.02 -8.541,2.299 -12.6356,12.041 -2.776,6.604 -4.444,12.612 -3.7063,13.351 0.7377,0.736 15.4132,-0.218 32.6123,-2.113 40.4702,-4.47 79.8051,-4.515 90.4509,-0.103 10.4351,4.321 11.5366,15.359 2.0399,20.442 -9.622,5.148 -125.5049,0.961 -134.3843,-4.856 -8.2599,-5.413 -8.4633,-16.782 -0.533,-29.788 6.8282,-11.202 5.9886,-12.452 -11.7543,-17.502 -19.1242,-5.445 -37.3054,-15.368 -51.9051,-28.328 l -12.9189,-11.468 -18.84,16.207 c -30.4255,26.175 -62.5772,58.8 -67.8483,69.439 -10.268,20.724 -6.4632,43.481 6.3351,49.929 68.3497,34.432 194.2978,39.914 260.2124,29.751 38.2705,-5.9 91.2173,-10.112 127.5521,-10.149 16.6816,-0.02 55.6676,-3.139 86.6355,-6.939 30.9678,-3.8 64.5514,-6.915 74.6299,-6.92 16.2096,0.463 16.3054,5.953 3.3534,19.324 -10.2974,10.632 -64.7946,40.43 -81.2243,47.296 -64.8458,14.559 -126.3543,1.79 -177.6726,-21.003 z m 184.1214,-2.9 c 15.9278,-2.946 28.5505,-8.092 28.5505,-11.642 0,-1.096 -10.3992,0.47 -23.1097,3.48 -12.7105,3.012 -30.5791,6.568 -39.7082,7.905 l -16.5977,2.429 17.6548,0.354 c 9.7103,0.194 24.6549,-0.943 33.2103,-2.526 z m -159.1596,-5.785 c 0,-1.59 -5.5229,-2.759 -12.2734,-2.602 -10.4264,0.245 -11.1869,0.638 -5.0537,2.602 10.3926,3.327 17.3271,3.327 17.3271,0 z m 118.4017,-3.05 c 27.6992,-4.232 73.2642,-14.552 76.1559,-17.251 2.8571,-2.666 -11.1112,-1.394 -48.7212,4.433 -14.2949,2.216 -34.4376,4.768 -44.7618,5.668 -30.1023,2.632 -66.4203,8.092 -66.4203,9.987 0,2.585 62.0224,0.484 83.7474,-2.837 z m 95.2992,-21.428 c 0,-0.393 -3.2489,-0.09 -7.2196,0.668 -3.9708,0.758 -7.2196,3.208 -7.2196,5.441 0,3.311 1.3324,3.188 7.2196,-0.67 3.9707,-2.6 7.2196,-5.05 7.2196,-5.439 z m -290.229,-131.427 c 18.0775,-2.937 50.5452,-13.857 50.5266,-16.998 0,-0.997 -5.9964,-4.276 -13.3122,-7.284 -17.9244,-7.372 -35.7705,-24.589 -35.7705,-34.511 0,-9.365 0.1213,-9.37 13.0839,-0.574 25.1066,17.037 62.1749,25.529 94.0611,21.544 26.3493,-3.29 33.823,-7.041 32.0908,-16.101 -1.2984,-6.793 -0.8427,-7.066 8.8209,-5.252 15.1205,2.837 18.1219,-4.375 9.1716,-22.039 -3.7692,-7.439 -8.2477,-22.252 -9.9519,-32.921 -4.5972,-28.779 -18.3586,-51.929 -32.0126,-53.859 -6.3985,-0.904 -6.9693,-2.278 -6.9693,-16.793 0,-12.498 -1.0163,-16.01 -4.8571,-16.776 -3.5009,-0.701 -7.5804,4.466 -14.6119,18.512 -10.8788,21.726 -15.5091,25.316 -18.3017,14.19 -1.2836,-5.113 -3.3927,-7.104 -6.6043,-6.233 -2.5952,0.704 -9.5596,2.097 -15.4764,3.093 -5.9167,0.998 -15.4731,3.783 -21.236,6.192 -9.7829,4.088 -10.1711,4.717 -5.8475,9.495 5.9033,6.524 5.9317,13.654 0.063,15.904 -9.678,3.715 -18.1867,1.384 -30.4016,-8.325 -6.974,-5.545 -13.6545,-10.093 -14.8457,-10.108 -5.5583,-0.07 -1.1778,17.673 7.8676,31.873 11.9342,18.733 12.1701,20.08 3.5138,20.08 -8.3174,0 -13.8269,-4.394 -21.7152,-17.327 -3.3914,-5.558 -7.2549,-11.755 -8.5857,-13.767 -1.8958,-2.867 -7.2461,-2.083 -24.7077,3.618 -32.1384,10.489 -48.0661,19.372 -62.1526,34.651 -17.7715,19.281 -24.1337,34.86 -20.153,49.348 5.8247,21.202 40.1586,45.495 64.5658,45.683 6.3535,0.05 13.2687,1.763 15.3677,3.81 4.6161,4.503 43.0178,4.995 68.3801,0.875 z m 80.0295,-78.553 c -1.9256,-1.927 -3.5014,-8.531 -3.5014,-14.676 0,-9.911 0.729,-11.072 6.4397,-10.253 7.9106,1.135 13.5998,14.75 9.1264,21.841 -3.9961,6.335 -7.835,7.316 -12.0647,3.088 z m 21.1744,-13.491 c -2.3669,-7.457 1.165,-15.302 6.4225,-14.267 6.0683,1.198 10.6165,9.233 8.4378,14.911 -2.4676,6.43 -12.7564,5.984 -14.8603,-0.644 z" fill="#00B894" transform="translate(-177.17325,-0.11484644) matrix(0.26458333,0,0,0.26458333,-2143.3965,-4290.6557)"/>
</svg>