<?xml version="1.0" ?><svg height="236.64693mm" viewBox="0 0 139.29984 236.64693" width="139.29984mm" xmlns="http://www.w3.org/2000/svg">
    <path d="m -6689.5167,-2384.5154 23.7,20.4634 c 0,0 17.2458,-72.3851 32.6203,-95.3908 15.3745,-23.0057 30.259,-2.3612 28.0726,12.9864 -2.1863,15.3475 -5.4881,77.9547 21.8722,94.7794 27.3603,16.8247 72.578,54.6819 76.3385,79.1593 3.7605,24.4773 24.8368,84.4508 24.8368,84.4508 0,0 43.9018,65.0105 47.5749,75.7145 3.6731,10.7039 -64.1036,-34.8665 -64.1036,-34.8665 0,0 -24.3122,27.6255 -28.7723,28.0978 -4.4602,0.4723 -11.0192,18.1809 0,38.723 11.0191,20.5421 61.047,73.053 95.1539,103.4332 34.107,30.3803 67.5144,114.9097 74.773,160.3227 7.2587,45.413 12.5933,95.8631 12.5933,95.8631 0,0 32.5329,-65.7977 38.8295,-156.3875 6.2967,-90.5897 23.2628,-151.5864 38.5672,-164.5727 15.3043,-12.9864 31.8332,97.752 32.3579,114.9097 0.5247,17.1577 11.369,38.5656 11.6313,63.9087 0.2624,25.3431 -18.0155,58.3206 -18.0155,58.3206 0,0 4.0228,24.5561 -4.0229,38.723 -8.0457,14.167 8.9231,16.3839 -17.2256,57.6254 -26.1487,41.2416 -61.8298,77.9183 -104.9446,86.812 -43.1147,8.8937 -134.9412,4.801 -134.9412,4.801 0,0 -63.8412,-120.6552 -88.6781,-162.92 -24.8369,-42.2647 -44.0767,-85.8674 -52.4723,-108.9281 -8.3955,-23.0607 -34.3987,-87.3148 -34.3987,-87.3148 0,0 -20.814,0 -20.814,-23.769 0,-23.769 4.4601,-48.325 4.4601,-48.325 0,0 -31.5708,12.7502 -21.1638,-10.4678 10.407,-23.2181 38.7421,-62.975 39.7915,-71.79 1.0495,-8.815 -15.7417,-9.0511 -27.8977,-29.6719 -12.1561,-20.6208 -31.396,-11.0187 -24.1373,-40.9268 7.2587,-29.908 36.2137,-58.3986 31.4037,-105.6218 -4.81,-47.2232 -8.9631,-69.7921 7.0109,-78.1413 z" fill="#FFFFFF" transform="translate(-45.960874,61.315413) matrix(0.26458333,0,0,0.26458333,1829.1206,596.89766)"/>
    <path d="m -1898.0938,1817.709 c -6.4989,-0.3504 -9.4781,1.3475 -11.4531,5.709 -1.8787,4.1531 -8.7943,16.8278 -15.3672,28.164 -6.5727,11.3361 -14.0178,28.7353 -16.5429,38.666 l -4.5918,18.0567 -7.0157,-10.4609 c -15.4772,-23.0854 -27.4245,11.5129 -28.1015,81.3593 -0.4616,47.7984 -1.1585,51.7707 -15.2344,86.7129 -13.8579,34.396 -16.054,49.1747 -7.4258,49.9942 4.904,0.4657 10.9144,-8.9802 24.666,-38.754 16.6221,-35.9895 20.5249,-59.0532 16.6485,-98.3671 -1.8903,-19.1492 -2.4022,-35.6717 -1.1387,-36.7149 1.2603,-1.0438 2.0792,0.3669 1.8164,3.1328 -0.2625,2.7656 3.1388,9.4025 7.5567,14.7481 10.2648,12.4183 12.1037,6.4571 17.6211,-0.3457 6.2195,-7.6686 12.6689,-23.4966 20.2148,-56.416 12.1747,-53.1165 15.0187,-60.2547 23.6855,-59.4317 4.9687,0.4718 5.3055,4.4821 1.6211,19.3047 -6.9435,27.9486 1.6296,66.1904 19.377,86.4258 8.4117,12.5129 21.9357,20.2658 33.3789,26.3672 2.8204,1.5038 8.3509,3.9488 16.584,10.6875 15.8656,12.9851 21.2517,25.2565 39.2637,89.4902 11.9965,42.7713 14.9563,48.6233 33.5195,66.2461 23.6918,22.491 30.065,35.7246 11.3476,23.5723 -6.446,-4.1854 -16.7905,-14.0664 -22.9824,-21.959 -6.1949,-7.8929 -12.8719,-13.5558 -14.8398,-12.584 -5.0584,2.4999 -19.5124,26.3607 -20.1719,33.3047 -0.7464,7.8599 -8.9848,6.5907 -11.3086,-1.7422 -2.9281,-10.521 -17.1506,-9.2737 -26.4258,2.3184 -8.2723,10.3415 -8.4908,10.3631 -10.9414,1.1347 -3.5079,-13.2106 -14.8664,-12.8338 -21.5449,0.7149 -4.3271,8.7797 -4.3624,14.8539 -0.1504,26.3867 6.9336,18.9722 16.993,18.5341 30.7598,-1.3379 8.9928,-12.9816 11.2003,-14.0961 17.2558,-8.7188 4.5513,4.0417 6.3866,12.021 5.3282,23.1661 -3.1001,32.6453 15.2206,58.0304 80.3886,111.3847 34.2306,28.0235 58.2874,64.0643 68.9844,103.3438 9.4584,34.7369 18.3728,108.7563 19.457,161.5703 0.4932,23.9675 1.4123,44.6229 2.041,45.9023 2.0732,4.2057 -12.2552,26.8659 -22.6699,35.8594 -9.9136,8.5606 -31.7933,10.6692 -31.0644,2.9942 0.1989,-2.0942 -3.0452,-5.0534 -7.2129,-6.5762 -4.1642,-1.5228 -18.448,-19.254 -31.7383,-39.4024 -38.208,-57.9274 -52.8031,-109.7337 -34.4414,-122.2441 8.2514,-5.6199 21.6964,-0.4019 31.3613,12.1699 8.8255,11.484 14.8216,5.5038 9.6035,-9.584 -4.637,-13.4119 -22.9251,-27.1418 -38.0703,-28.58 -14.7348,-1.3993 -34.0951,14.697 -36.1719,30.0742 -5.0702,37.5206 1.417,64.7243 26.8926,112.8086 11.0616,20.8771 19.2347,38.683 18.1621,39.5703 -1.0758,0.8871 -8.4885,-2.2839 -16.4746,-7.0469 -22.9676,-13.6969 -55.3904,-70.3198 -73.1347,-127.7187 -9.5546,-30.9069 -30.0883,-62.5609 -41.2735,-63.6231 -7.0635,-0.6707 -14.9219,-33.1254 -13.2402,-54.6816 3.1528,-40.3779 0.7134,-66.1089 -6.3242,-66.7774 -9.1647,-0.8703 -12.1893,-7.6733 -10.6914,-24.1347 -0.2619,-24.3266 -7.4358,-37.5424 -23.5532,-18.6831 -14.8085,17.6251 -15.6989,-4.7078 -14.0074,-15.0416 5.4602,-32.9366 5.5193,-39.7056 0.3438,-40.1972 -3.4234,-0.3251 -8.7356,1.4864 -11.8047,4.0254 -12.9659,10.7162 -8.5611,-2.7321 10.6836,-32.6094 20.6562,-32.0692 25.2528,-48.1281 22.2129,-77.5996 -0.7771,-7.549 -3.9926,-13.9701 -7.1446,-14.2695 -6.9826,-0.6631 -14.887,24.8002 -12.5195,40.332 1.3541,8.8914 -1.873,14.7657 -15.1543,27.5996 -16.4268,15.8703 -37.8473,53.2195 -39.3008,68.5234 -1.6051,16.9024 19.1523,26.3482 29.1465,13.2618 4.1388,-5.4203 4.288,-1.9022 0.6211,14.9003 -5.0935,23.3397 -1.3166,40.4841 9.1348,41.4766 3.307,0.314 6.2248,4.9956 6.4843,10.4024 0.3258,6.8052 3.1407,9.8281 9.1524,9.8281 8.0572,0 8.4975,3.0277 6.0723,41.8926 -1.4347,23.043 -3.6232,101.109 -4.8594,173.4804 -1.7109,100.212 -0.3462,129.2836 4.1543,137.8125 3.2477,6.1593 7.4127,11.3429 9.2519,11.5176 15.2132,1.4448 19.7655,-26.4182 22.5645,-145.0605 1.5674,-66.4816 6.6025,-103.7916 13.9023,-103.0333 5.3908,0.5611 16.1584,28.8534 25.7559,67.6563 10.8323,43.7988 19.8813,64.9243 45.7637,106.834 10.2624,16.6205 18.5791,31.0868 18.4785,32.1465 -0.1007,1.0597 -8.6113,1.1268 -18.9141,0.1484 -24.8629,-2.3611 -35.9604,13.5438 -34.0937,30.7891 3.6528,15.8113 4.3707,13.0595 86.8222,12.248 79.8561,1.2996 80.9317,4.7958 88.5098,-3.4902 5.907,-6.4547 14.7639,-8.9274 33.8535,-9.4531 32.9626,-0.9069 58.6396,-11.3612 90.1992,-36.7188 19.5528,-15.7089 26.0342,-23.9167 29.3399,-37.1562 2.3326,-9.3468 6.782,-18.8125 10.1406,-25.6247 6.6281,-13.4438 13.7151,-9.3662 20.4188,-32.9901 2.6525,-9.3477 -0.625,-24.6579 3.8683,-33.7993 6.6655,-13.5605 7.3175,-18.2541 3.5332,-25.4961 -3.8316,-7.3289 -2.9173,-12.3671 5.2324,-28.9062 12.1543,-24.6668 15.1727,-51.2691 6.9453,-61.2208 -3.3702,-4.0791 -7.4428,-7.5599 -9.0527,-7.7128 -1.6056,-0.1625 -1.522,-16.3011 0.2051,-35.8614 2.8479,-32.3593 1.8366,-39.2682 -11.207,-76.6445 -6.3418,-16.4958 -11.4065,-60.0953 -34.5879,-60.9766 -9.1867,0.2539 -13.9246,5.1846 -26.1075,27.1661 -19.0471,34.3588 -19.4167,91.6584 -29.2324,188.9394 -5.5044,54.5283 -8.206,70.5167 -9.7695,57.7852 -7.9651,-64.9237 -11.729,-83.2872 -23.8106,-116.2657 -17.3412,-47.3211 -38.9302,-73.2953 -94.4257,-113.6074 -49.298,-35.8115 -69.6601,-56.9624 -72.4473,-75.2539 -1.5632,-10.2605 -0.02,-13.7679 7.9394,-18.0273 5.4334,-2.9087 10.1558,-8.1859 10.4922,-11.7286 0.3999,-4.2094 5.987,-0.5697 16.127,10.504 17.4722,19.08 43.1331,31.3177 60.2148,28.7148 13.4079,-2.0434 14.8827,-8.9858 8.0274,-37.7813 -4.9786,-20.9087 -33.4091,-58.2513 -52.8848,-69.4589 -7.9889,-4.5972 -9.9193,-10.9132 -11.6309,-37.9883 -3.9367,-62.2774 -23.9202,-98.9555 -61.0644,-112.0645 -9.8659,-3.4826 -20.876,-7.873 -24.0859,-10.3008 -22.7004,-17.1694 -25.1893,-52.3405 -27.7032,-88.2109 -1.379,-19.6866 5.0373,-37.2349 -18.2558,-37.8789 -3.0418,-0.5492 -5.5993,-0.8949 -7.7657,-1.0117 z m 38.084,161.4902 c -1.6539,9.0695 -0.019,20.7817 5.1667,26.4554 9.6093,10.5125 17.4622,1.2308 13.2978,-16.7042 -4.3343,-18.6666 -14.0342,-23.2787 -18.4645,-9.7512 z m -103.9238,112.0586 c -11.0751,-1.947 -29.0948,36.3783 -24.125,54.2129 2.5572,9.1732 9.4072,9.4265 15.1973,0.5625 7.2846,-11.1716 15.3742,-50.5495 11.041,-53.832 -0.6678,-0.5058 -1.375,-0.8136 -2.1133,-0.9434 z m 59.3262,51.4707 c -8.2144,-0.7801 -9.8973,16.4428 -3.5879,36.7676 h -0.014 c 6.1379,19.7592 17.7098,21.9411 19.4453,3.6661 1.5724,-16.5577 -7.4709,-39.6365 -15.8437,-40.4317 z m 355.8457,140.2949 c 5.208,2.5556 19.8027,46.2019 22.8047,69.4942 1.4374,11.1747 -0.042,34.16 -3.3614,52.25 -5.0275,27.3854 -4.9049,33.3232 0.8008,39.0527 5.8725,5.8964 7.5942,5.7844 13.5078,-0.8769 9.2668,-10.4394 8.0934,-4.6299 -6.2832,31.0742 -11.3077,28.0841 -11.8076,31.2127 -6.0586,38.1679 5.6826,6.8655 5.5318,8.7245 -1.5859,19.7833 -6.5083,10.112 -7.0856,14.0438 -3.3633,22.9277 3.9254,9.3689 3.1659,11.8898 -6.0097,19.9687 -5.7744,5.0842 -13.2773,16.5982 -16.6739,25.584 -3.774,9.9841 -13.8786,22.37 -25.9902,31.8516 h -0.01 c -10.8993,8.5331 -26.0622,18.3149 -33.6972,21.7383 l -13.8828,6.2246 7.8652,-17.668 c 4.325,-9.7178 11.3537,-23.6577 15.6172,-30.9766 25.6457,-44.0073 25.0509,-41.1872 39.0644,-187.3789 7.3062,-76.2483 14.6604,-139.7714 16.3418,-141.1621 0.2576,-0.2131 0.563,-0.225 0.9102,-0.055 z" fill="#00B894" transform="translate(-45.960874,61.315413) matrix(0.26458333,0,0,0.26458333,1829.1206,596.89766) translate(-4730.5688,-4305.3989)"/>
</svg>