<?xml version="1.0" ?><svg height="115.02354mm" viewBox="0 0 194.59567 115.02354" width="194.59567mm" xmlns="http://www.w3.org/2000/svg">
    <path d="m 7802.329,-309.55574 c 4.0113,-4.79562 20.0273,-0.45799 35.2949,3.50242 15.2677,3.96042 55.9212,-6.16966 55.9212,-6.16966 0,0 9.011,-17.51211 8.6516,-23.68174 -0.3593,-6.16966 -4.1013,-15.78785 6.4665,-22.19997 10.5674,-6.41212 25.6852,-2.93664 31.4031,5.06502 5.7179,8.00169 16.7344,14.92571 19.4289,16.48834 2.6942,1.56262 14.3094,5.87327 10.9865,10.64196 -3.3229,4.76869 -21.614,7.00484 -25.5955,7.19344 -3.9817,0.18859 -21.6141,-2.72113 -21.1352,3.42159 0.4789,6.14273 12.0343,27.02253 0.5387,33.73101 -11.4953,6.70849 -50.8317,11.61188 -65.2311,12.2046 -14.3995,0.59272 -69.5725,-3.0983 -56.7296,-40.19701 z" fill="#FFFFFF" transform="translate(19.226915,-65.997264) translate(-7797.0632,430.27375)"/>
    <path d="m 7923.2192,-250.50375 c -0.6055,-0.72989 -1.8758,-4.03581 -2.8227,-7.34647 -1.4017,-4.90249 -4.9766,-13.33211 -6.276,-14.79982 -0.158,-0.17943 -1.5945,-0.0394 -3.1907,0.31128 -2.5593,0.56215 -2.9018,1.02431 -2.9018,3.91598 0,6.15042 -4.2189,11.384 -10.9742,13.61347 -1.8139,0.59862 -4.3758,0.81788 -5.6931,0.48727 -2.0258,-0.50845 -2.21,-0.82442 -1.1939,-2.04848 0.6603,-0.79603 2.7702,-2.2479 4.6883,-3.22641 4.0801,-2.08148 8.4489,-6.93817 8.4489,-9.39231 0,-1.49458 -0.4582,-1.61421 -3.5429,-0.92489 -1.9485,0.43549 -9.9203,1.74989 -17.7148,2.92094 -15.7056,2.35957 -44.7848,2.96357 -52.1995,1.08421 -2.2084,-0.55975 -4.0154,-0.90441 -4.0154,-0.76589 0,0.13846 0.8771,2.23458 1.9492,4.65793 2.3948,5.4138 2.165,9.53354 -0.5319,9.53354 -1.4617,0 -2.9251,-2.15367 -6.461,-9.5091 -4.4502,-9.25671 -8.0524,-13.55852 -8.9921,-10.73887 -1.692,5.07558 -15.8551,15.50183 -20.213,14.87986 -4.2443,-0.60577 -2.8967,-3.31199 4.2995,-8.63378 3.8533,-2.84966 7.9688,-6.73886 9.1453,-8.64267 l 2.1393,-3.46146 -2.8932,-4.02883 c -4.4843,-6.24413 -6.1455,-11.24006 -5.6056,-16.85826 0.4628,-4.81663 0.447,-4.85224 -1.2287,-2.78264 -0.9337,1.15303 -2.634,4.9097 -3.7781,8.34816 -3.3287,10.00268 -13.67,19.24646 -15.6778,14.01402 -0.338,-0.88094 -0.2661,-4.3138 2.1223,-6.90495 2.1352,-2.31643 5.51,-7.73052 7.4993,-12.03129 4.352,-9.40846 7.3552,-15.67602 11.4881,-14.84942 1.545,0.309 5.1224,1.14672 6.9534,0.23315 4.7523,-2.37079 13.1778,-1.85672 21.5893,1.31722 6.7229,2.5367 7.8364,2.66897 21.7301,2.58065 14.6438,-0.0932 22.3876,0.25705 38.4273,-4.34364 4.7374,-1.3588 4.8353,-1.46349 7.2687,-7.77423 4.0895,-10.60641 3.2125,-13.71013 1.5831,-16.54916 -1.2605,-2.19656 -1.2954,-3.19186 -0.2463,-7.11019 3.3452,-12.50816 9.4099,-17.31306 23.7743,-18.83635 8.7741,-0.93045 15.91,3.99518 25.6204,13.92712 4.4317,4.53291 10.0411,9.37571 12.4653,10.76173 2.424,1.38604 5.2875,2.0513 5.9148,2.80721 0.6274,0.75593 1.929,1.37442 2.8929,1.37442 2.462,0 6.0699,5.86821 5.2458,8.57019 -1.0806,3.54294 -3.128,6.34487 -6.9744,6.95994 -1.9908,0.31834 -5.1082,0.20554 -5.1082,0.57983 0,0.3743 -1.7933,1.48912 -3.9848,2.47741 -5.239,2.36244 -20.9558,2.49816 -27.0208,0.19845 -6.0354,-2.28847 -2.188,4.04216 -1.2742,5.72433 1.5859,2.91923 3.1769,6.69647 3.5347,8.39446 1.9697,9.3433 -0.5209,20.88896 -7.0743,24.90513 l -4.9161,3.0128 3.1561,5.94914 c 4.0327,7.60173 6.0119,15.83576 4.3016,17.89646 -1.4909,1.79654 -2.32,1.82386 -3.7317,0.12292 z m -39.7556,-24.086 c 26.8052,-4.14705 27.4855,-4.35538 24.3754,-7.46547 -0.8198,-0.81992 -0.8479,-1.4195 -0.1018,-2.16606 1.1567,-1.15665 3.867,-0.0715 5.8803,2.35441 1.0427,1.25634 1.5665,1.17846 4.4185,-0.657 4.9968,-3.21599 7.3852,-8.98371 6.6466,-16.05104 -0.3316,-3.17194 -1.4511,-7.51925 -2.4878,-9.66071 -2.2244,-4.59488 -2.7607,-10.48135 -0.8241,-12.22771 3.7622,-3.39283 4.1295,-2.19759 12.4906,-1.16169 7.4134,0.91844 21.3812,0.0391 22.8596,-1.43905 0.2222,-0.22174 -0.091,-1.71377 -0.6966,-3.31588 -0.9012,-2.38753 -0.8311,-3.32271 0.3894,-5.18516 1.4676,-2.23992 1.4239,-2.30205 -3.0627,-4.36039 -3.0515,-1.39991 -6.6608,-4.44477 -10.9515,-9.23877 -9.9707,-11.14054 -17.0078,-13.68656 -28.4426,-10.29074 -6.2843,1.86618 -13.726,10.61437 -9.2358,9.91007 5.1012,-0.80013 -1.7721,20.26314 -4.0014,26.72671 -2.2572,6.37388 -2.4165,7.47819 -1.1918,8.25244 3.2007,2.02338 6.7819,0.9998 10.896,-3.11443 5.0089,-5.00876 6.0057,-9.87086 4.2457,-20.70803 -0.6551,-4.0348 -0.943,-7.98307 -0.6393,-8.77395 0.5728,-1.49317 3.0153,-1.96693 3.7601,-0.72936 0.2357,0.38972 0.7212,6.87332 1.0812,14.408 0.7963,7.16756 1.5744,12.32553 -2.3245,18.14987 -1.6387,2.44773 -4.3822,5.31752 -6.0969,6.37731 -5.0234,3.10453 -12.6644,2.26447 -17.0888,-1.87871 -1.8781,-1.75892 -2.0371,-1.75134 -9.1243,0.43522 -11.3374,3.49802 -20.0815,4.71955 -33.8415,4.72751 -12.3395,0.008 -13.091,-0.10954 -23.0973,-3.5886 -12.6269,-4.39014 -15.5418,-4.55915 -21.3068,0.64913 -5.8264,7.31692 -0.6903,12.90978 2.9548,19.63253 l 1.897,-2.4116 c 3.345,-4.25217 6.1428,-2.55682 4.214,2.55322 -0.7062,1.87104 -0.6982,3.11548 0.026,4.26633 1.522,2.41308 8.5472,5.72921 15.4852,7.30963 8.2808,1.88635 36.7326,1.17195 52.8916,-1.32803 z m 40.3108,-62.13718 c -0.3463,-0.34642 -0.6299,-2.04704 -0.6299,-3.77915 0,-2.53226 0.3749,-3.14928 1.913,-3.14928 2.4296,0 4.3107,4.33398 2.7157,6.25603 -1.157,1.39397 -2.972,1.69917 -3.9988,0.6724 z m 7.3298,-3.56798 c -0.7191,-2.86558 0.1071,-4.30523 2.4709,-4.30523 1.9082,0 3.4935,3.77641 2.3572,5.615 -1.1767,1.90413 -4.2293,1.07602 -4.8281,-1.30977 z" fill="#00B894" transform="translate(19.226915,-65.997264) translate(-7797.0632,430.27375)"/>
</svg>