<?xml version="1.0" ?><svg height="95.729485mm" viewBox="0 0 91.03022 95.729485" width="91.03022mm" xmlns="http://www.w3.org/2000/svg">
    <path d="m 2555.9485,1541.2514 c 1.5576,-12.1042 4.8485,-22.8857 14.4041,-21.1336 9.556,1.7523 14.1031,11.622 14.1031,11.622 0,0 9.3292,-0.3619 11.1382,0.7385 1.8089,1.1004 8.0732,-1.2208 8.0732,-1.2208 0,0 3.7687,-6.4063 14.3709,-5.5925 10.6023,0.8141 21.8913,10.7326 21.0706,21.9776 -0.8207,11.2451 -14.0526,18.8574 -23.449,18.0433 -9.3964,-0.8139 -17.2016,-8.5016 -17.2016,-8.5016 l -11.9086,-3.3917 -5.1589,-2.0047 c 0,0 -9.1786,3.271 -15.1413,2.3516 -5.9629,-0.9195 -9.6308,-6.2408 -10.3007,-12.8881 z" fill="#FFFFFF" transform="translate(-75.676841,-88.077517) translate(-2477.8983,-1410.1612)"/>
    <path d="m 2569.384,1588.6978 c -2.6134,-9.122 -4.6179,-23.8839 -3.5208,-25.933 2.1413,-4.0012 3.6144,-0.8301 5.3033,11.4155 1.9145,13.8806 2.1242,19.7879 0.7032,19.7879 -0.5367,0 -1.6554,-2.3719 -2.4857,-5.2704 z m 13.5002,2.7189 c 0,-0.2991 1.5813,-5.0859 3.5138,-10.6377 2.5556,-7.3429 3.5135,-11.7948 3.5135,-16.3336 0,-5.7731 -0.2248,-6.406 -3.0221,-8.4733 l -3.0224,-2.2345 -0.882,2.3203 c -0.8242,2.1676 -4.6516,6.4632 -5.7868,3.0437 -1.3674,-4.1195 -11.8942,-1.274 -13.1366,-1.6778 -1.6937,-0.5506 -2.2586,-0.3409 -2.2586,0.8392 0,0.9041 -0.854,1.5734 -2.0078,1.5734 -1.8611,0 -2.502,-1.43 -2.101,-4.6882 0.08,-0.6463 -0.8349,-3.0542 -2.032,-5.3512 -4.4921,-8.618 -1.4172,-22.5173 6.2025,-28.037 3.645,-2.6404 3.6988,-2.7745 2.4726,-6.1534 -2.6182,-7.2134 -3.4944,-8.8558 -6.6317,-12.4287 -3.8527,-4.388 -2.8986,-6.4604 1.6895,-3.6703 2.8638,1.7415 8.4313,11.3087 8.4313,14.4881 0,2.3969 2.4944,4.4557 6.1792,5.0997 l 3.6694,0.6417 0.346,-9.9851 c 0.3549,-10.247 0.998,-12.4068 3.0753,-10.3296 0.9174,0.9172 0.918,3.6265 0,11.8187 l -1.1877,10.629 3.2397,3.8586 c 2.6817,3.1946 3.8626,3.8505 6.8567,3.809 1.9895,-0.028 4.4999,0.4225 5.5789,1.0002 1.1493,0.6149 2.5437,0.6906 3.3661,0.1821 0.772,-0.4772 1.7148,-0.6753 2.0946,-0.4406 0.3802,0.2363 1.4533,-0.7361 2.3849,-2.158 2.1821,-3.33 8.9621,-6.3944 14.0859,-6.3662 12.1038,0.065 23.9188,9.9428 26.5453,22.1898 1.5,6.9937 -0.059,12.2291 -5.165,17.3341 l -4.0252,4.0254 2.036,6.0498 c 2.9857,8.8701 3.3724,11.3734 2.1183,13.7165 -1.0039,1.8757 -1.2902,1.9398 -2.641,0.5893 -0.8332,-0.8332 -2.7443,-5.2907 -4.247,-9.905 -2.6891,-8.2572 -2.7788,-8.3821 -5.6654,-7.8878 -1.613,0.276 -5.9465,0.5016 -9.6296,0.5016 -5.6844,0 -7.0839,-0.3633 -9.2548,-2.4045 -3.1294,-2.9415 -2.5286,-4.4748 1.0296,-2.6288 3.4827,1.807 17.4317,-0.2419 17.4317,-2.5607 0,-1.8771 -8.6781,-9.6663 -11.5808,-10.3948 -2.4524,-0.6158 -3.3047,-0.2618 -5.4509,2.2543 -1.3992,1.6411 -3.5083,3.4694 -4.6875,4.0627 l -2.1437,1.0788 2.4934,6.8024 c 2.4749,6.7526 3.6873,19.2756 2.0284,20.95 -1.656,1.6706 -3.0634,-1.8308 -3.7474,-9.3222 -0.9989,-10.936 -2.7421,-16.0883 -5.9926,-17.7097 l -2.6587,-1.3264 0.06,8.6111 c 0.054,7.7293 -0.2817,9.3294 -3.2612,15.6228 -3.3288,7.031 -5.7919,10.5561 -7.3758,10.5561 -0.4663,0 -0.8483,-0.2448 -0.8483,-0.5436 z m 53.0429,-36.6771 c 7.7503,-11.346 -9.0858,-30.7336 -23.3733,-26.9147 -6.0507,1.6171 -7.0586,2.748 -4.7318,5.3088 2.7426,3.0177 4.1745,6.1123 4.1745,9.0217 0,2.0514 0.6853,2.7178 3.6319,3.5314 4.9164,1.3577 9.3547,4.5413 12.8993,9.2536 1.623,2.1579 3.4237,3.7685 4.0014,3.5793 0.5779,-0.1879 2.1069,-1.8901 3.398,-3.7801 z m -32.3923,-3.4039 c 0.893,-1.3625 1.414,-3.0566 1.1582,-3.7645 -0.2561,-0.708 0.1793,-2.0292 0.9678,-2.9364 1.243,-1.4305 1.2325,-2.1294 -0.08,-5.2704 -2.024,-4.8443 -3.2053,-4.5743 -2.8233,0.6457 0.2076,2.828 -0.3722,5.5857 -1.7171,8.1794 -2.8738,5.5419 -0.7939,8.165 2.4944,3.1462 z m -27.3475,0.1052 c 4.1874,-1.7495 8.7047,-7.0961 8.7047,-10.3022 0,-3.6641 -2.6836,-8.3035 -7.9099,-13.6747 -4.9106,-5.0466 -7.7464,-6.2285 -6.649,-2.7711 1.0779,3.396 -0.5709,4.5718 -2.6679,1.9021 l -1.8815,-2.3952 -2.5044,3.0118 c -10.4047,12.5105 -1.0537,30.0629 12.908,24.2293 z m -2.9176,-10.3113 c -0.2941,-0.6602 -0.4622,-1.8633 0.5777,-3.3744 1.4382,-2.0899 3.5367,0.4221 3.5152,1.5028 -0.026,1.2988 -0.3268,2.4197 -1.1706,2.9425 -1.5317,0.9491 -2.397,0.1086 -2.9223,-1.0709 z m -10.2934,-1.5312 c 0.1821,-1.2917 1.0101,-2.3483 1.8382,-2.3483 2.1772,0 2.6897,4.411 0.4801,4.8367 -1.4257,0.276 -2.5762,-0.6681 -2.3183,-2.4884 z m 26.3208,11.6368 c 0.3768,-0.982 1.2931,-1.3565 2.4333,-0.9945 2.3214,0.7367 5.9599,-3.0371 6.2339,-6.4653 0.3949,-4.9471 -0.068,-6.0808 -3.2844,-8.042 -4.4628,-2.721 -6.1993,-2.6624 -4.6899,0.1594 1.6283,3.0425 0.5885,10.1508 -2.021,13.8154 -1.6968,2.383 -1.8693,3.1035 -0.7429,3.1035 0.8067,0 1.7387,-0.7089 2.071,-1.5751 z" fill="#00B894" transform="translate(-75.676841,-88.077517) translate(-2477.8983,-1410.1612)"/>
</svg>