<?xml version="1.0" ?><svg height="99.412407mm" viewBox="0 0 108.32377 99.412407" width="108.32377mm" xmlns="http://www.w3.org/2000/svg">
    <path d="m 44834.681,2077.2724 c 4.072,-33.6289 8.144,-42.8984 28.624,-59.0661 20.48,-16.1678 31.738,-25.6528 34.732,-31.4732 2.994,-5.8204 31.498,-6.7905 43.714,-2.6947 12.216,4.0959 19.163,11.533 19.163,11.533 0,0 19.402,-12.0719 31.498,-4.5269 12.097,7.5449 -20.839,27.054 -20.839,27.054 l -14.971,25.0061 c 0,0 33.894,13.5809 71.381,10.9941 37.486,-2.5869 53.415,-0.3234 62.398,12.0719 8.982,12.3953 15.689,13.4731 15.689,13.4731 0,0 21.797,-1.2934 23.714,9.1617 1.916,10.4552 -21.918,14.0121 -21.918,14.0121 0,0 -6.347,29.533 -30.899,37.9403 -24.552,8.4072 -49.344,12.8264 -62.278,10.8863 -12.935,-1.9401 -29.463,-10.8863 -29.463,-10.8863 0,0 2.156,8.8383 -18.324,4.527 -20.48,-4.3114 -35.211,-24.2516 -35.211,-24.2516 0,0 -6.827,2.8024 -10.54,-12.7187 -3.712,-15.521 -4.191,-19.6169 -4.191,-19.6169 0,0 -43.835,27.0541 -61.32,16.2756 -17.486,-10.7785 -20.959,-27.7008 -20.959,-27.7008 z" fill="#FFFFFF" transform="translate(-53.183473,-63.686659) matrix(0.34233768,0,0,0.34233768,-15292.644,-605.16628)"/>
    <path d="m 55.919922,0.00195313 -0.0039,0.00195312 c -5.285,0.078 -10.009829,2.42640315 -12.173828,6.47070315 -3.878,7.2446996 -0.820828,14.4850906 9.326171,22.0878906 5.007,3.7524 8.528172,7.757491 7.826172,8.900391 -0.704,1.1431 -7.642875,6.162897 -15.421875,11.154297 C 17.847657,66.337287 0.119,92.499032 0,115.70703 c -0.149,29.9147 20.915032,48.64388 51.582031,45.86328 15.259,-1.3835 32.106844,-7.8531 36.464844,-14 1.18,-1.6666 1.382359,1.42736 0.443359,6.87696 -1.44,8.3412 -0.713343,10.60902 4.597657,14.32812 3.466,2.4301 8.466519,4.41797 11.103519,4.41797 2.807,0 5.49389,2.75229 6.46289,6.62109 0.915,3.6418 3.83518,8.58849 6.49218,10.99219 4.495,4.0682 4.5451,5.54621 0.7461,21.34961 -5.407,22.4662 -5.94508,59.66503 -0.95508,65.67773 5.437,6.5535 13.64434,5.67215 15.15234,-1.62695 0.697,-3.377 1.77749,-21.21206 2.39649,-39.63476 0.617,-18.4228 1.81992,-34.19247 2.66992,-35.04297 0.853,-0.8506 4.24973,-0.68767 7.55273,0.36132 5.49,1.7418 5.86216,3.12186 4.28516,15.93946 -4.319,35.1529 -5.0808,60.91547 -1.9668,66.73047 3.718,6.9449 12.58819,7.92455 14.99219,1.65625 0.915,-2.3742 1.6582,-23.04475 1.6582,-45.93555 0,-22.8906 0.81922,-42.44151 1.82422,-43.44531 1.003,-1.0039 4.19671,0.32076 7.09571,2.94336 5.426,4.9116 23.60975,6.06876 37.46875,2.38476 12.922,-3.4338 14.45815,0.41388 16.16015,40.48438 1.679,39.5534 3.76796,45.1002 14.75196,39.2207 4.912,-2.6291 5.174,-5.1336 3.75,-35.9668 -0.84,-18.2276 -2.3733,-35.90445 -3.4043,-39.28125 -1.533,-5.0242 -0.82561,-6.14062 3.90039,-6.14062 5.531,0 5.79059,1.30442 5.93359,30.69922 0.09,16.8849 1.0268,35.61143 2.0918,41.61523 1.645,9.2842 2.94694,10.91602 8.71094,10.91602 h 6.77929 l -0.0195,-38.20508 c -0.01,-21.0122 -0.81983,-42.58987 -1.79882,-47.95117 -1.638,-8.9757 -1.06655,-10.13017 7.18945,-14.57617 6.955,-3.745 9.51425,-7.37329 11.40625,-16.17579 2.32,-10.8107 2.86433,-11.30578 11.48633,-10.45898 19.139,1.8793 26.22129,-17.7744 11.65429,-32.3418 -9.357,-9.3576 -21.01183,-12.88648 -28.04882,-8.49218 -4.116,2.5698 -5.04883,2.34924 -5.04883,-1.19336 0,-2.3893 -4.1885,-8.41312 -9.3125,-13.38672 -11.474,-11.142002 -25.16257,-13.878384 -47.47657,-9.488284 -9.031,1.7761 -21.13167,2.555316 -26.88867,1.728516 C 186.12581,92.343122 160.67409,86.058 152.37109,86 c -7.812,-2.6535 -21.47942,6.190731 -2.85742,13.769531 0,0 26.48085,7.297399 40.08985,8.246089 9.228,0.6433 27.69336,-1.76757 27.69336,-1.76757 31.28099,-1.9953 39.20639,0.73899 44.27539,15.27539 1.534,4.4036 4.38879,8.00586 6.34179,8.00586 5.064,0 5.44322,22.63917 0.57422,34.29297 -3.926,9.393 -3.96892,9.41119 -11.04492,4.77539 -6.765,-4.4333 -7.28483,-4.40518 -10.92383,0.57422 -2.103,2.87529 -3.25845,6.70827 -2.56445,8.51757 2.52,6.5629 -6.0878,9.83927 -20.9668,7.98047 -10.459,-1.307 -17.3058,-0.59162 -24.9668,2.60938 -13.039,5.4484 -20.55889,3.73547 -31.46289,-7.16992 -9.015,-9.0154 -16.52539,-9.05063 -16.52539,-0.0781 0,4.6282 -1.43865,5.10075 -11.59765,3.81055 -14.199,-1.804 -17.84746,-4.47524 -18.93946,-13.86524 -0.707,-6.0777 -2.53042,-7.54328 -11.10742,-8.92578 -11.881998,-1.9149 -8.849076,-6.17871 -9.955076,-13.41601 -0.569,-3.7196 5.252046,-11.82837 13.748046,-19.10547 18.585,-15.9186 29.66602,-39.774135 29.66602,-54.332034 0,-3.7522 2.80317,-5.454075 11.20117,-6.796875 20.809,-3.3274 33.57817,-24.124769 23.20117,-37.792969 -4.811,-6.3388 -17.45498,-6.026659 -27.58398,0.68164 C 138.25002,38.187662 137.557,38.1338 130.375,29.875 126.356,25.2516 121.40131,24.869653 116.07031,23.126953 92.250313,15.340053 79.367281,30.547097 77.738281,21.216797 75.092281,6.0511971 64.728922,-0.12804687 55.919922,0.00195313 Z M 81.560547,34.939453 c 1.155,-0.012 3.114687,0.299141 6.054687,0.869141 5.062,0.9811 10.181813,3.435378 11.382813,5.455078 2.929003,4.9306 7.253113,4.625381 13.412113,-0.949219 4.83,-4.3708 5.18842,-4.310778 6.60742,1.107422 2.288,8.7576 17.26458,10.527672 30.76758,3.638672 7.023,-3.5843 11.48414,-4.538072 12.61914,-2.701172 0.998,1.615 -3.94522,5.283953 -11.44922,8.501953 -11.403,4.8879 -14.31155,7.860225 -21.31055,21.765625 -12.82,25.4698 -25.96786,40.912137 -46.505858,54.619137 -24.751,15.9352 -35.455094,22.65926 -56.621094,13.16016 -8.988,-4.0338 -15.4745,-30.95124 -7.4375,-46.714844 7.107,-13.9373 29.07561,-36.287972 40.59961,-41.201172 9.717999,-4.1432 9.364937,-5.593675 12.960937,-0.671875 0.823,9.573 9.218531,14.218513 18.894531,13.757813 12.843834,3.175453 16.784864,6.727483 21.845284,-2.993792 3.08925,-5.934564 3.41536,-1.178836 4.31097,-0.135114 2.33112,2.71663 12.15845,7.04856 14.98828,1.097656 2.82981,-5.950904 2.53973,-7.409222 -0.71875,-10.089844 -3.25849,-2.680618 -8.66838,-8.075322 -16.2793,-5.380859 -4.56101,1.61471 -7.21707,4.483712 -8.57031,7.058593 -5.42539,3.494828 -6.13399,3.212847 -8.847658,-1.859374 -2.423,-4.5264 -4.087125,-5.117063 -8.203125,-2.914063 -7.487,4.0074 -8.841656,3.449828 -6.847656,-2.826172 0.974,-3.0739 0.294281,-7.370428 -1.511719,-9.548828 -1.751,-2.109 -2.064625,-3.025022 -0.140625,-3.044922 z m -1.673828,44.431641 c -5.731,0.1511 -10.049438,8.017856 -5.773438,15.660156 2.959,5.2882 8.040375,5.77493 12.609375,1.207031 4.419,-4.419 4.11761,-9.134644 -0.90039,-14.152343 -1.959,-1.9585 -4.025547,-2.765244 -5.935547,-2.714844 z m -26.072266,0.158203 c -3.316,0.042 -6.669312,2.787522 -7.195312,9.232422 -0.485,5.9503 3.200187,8.023437 7.492187,8.023437 6.008,0 8.360688,-4.291969 6.429688,-11.730468 -0.905,-3.4928 -3.800563,-5.562091 -6.726563,-5.525391 z M 29.40625,118.81641 c -2.102,0.044 -4.583875,0.61755 -5.171875,7.12695 -0.319,3.5368 2.439047,8.65809 6.373047,5.11719 3.935,-3.541 2.736328,-7.69629 1.111328,-10.77539 -0.508,-0.9622 -1.3575,-1.48895 -2.3125,-1.46875 z m 14.113281,2.41992 c -2.092957,0.13257 -4.47,2.96453 -4.359375,6.4375 0,0 -0.769453,6.85213 3.935547,6.23633 4.704,-0.6158 4.616109,-4.69569 3.162109,-10.08399 -0.453999,-1.6838 -1.334218,-2.46548 -2.324218,-2.58008 -0.136188,-0.0158 -0.274532,-0.0186 -0.414063,-0.01 z m 247.048829,13.75195 c 2.251,0 4.0918,1.22772 4.0918,2.72852 0,1.5009 -1.8408,2.72851 -4.0918,2.72851 -2.251,0 -4.09375,-1.22761 -4.09375,-2.72851 0,-1.5008 1.84275,-2.72852 4.09375,-2.72852 z" fill="#00B894" transform="translate(-53.183473,-63.686659) matrix(0.34233768,0,0,0.34233768,-15292.644,-605.16628) translate(44826.581,1953.7813)"/>
</svg>