<?xml version="1.0" ?><svg height="226.56927mm" viewBox="0 0 193.81461 226.56927" width="193.81461mm" xmlns="http://www.w3.org/2000/svg">
    <path d="m -6022.6262,-2411.1189 c 13.2189,5.0091 16.4987,15.5638 18.089,41.5036 1.5902,25.9397 15.6041,42.7558 41.8431,60.9136 26.2389,18.1578 63.6095,101.6121 63.6095,101.6121 0,0 62.3174,33.0955 72.0576,47.3176 9.7402,14.2222 -72.7534,-14.0432 -72.7534,-14.0432 l -3.6774,54.7418 c 0,0 25.6426,75.4041 67.9826,101.5227 42.3401,26.1186 158.8831,72.733 184.9232,97.51 26.0401,24.7769 37.8675,61.1819 37.8675,61.1819 0,0 36.8736,25.3136 54.0681,63.7759 17.1944,38.4624 72.8527,157.0695 101.8745,176.4796 29.0218,19.4101 17.8902,38.5518 -23.8535,31.1277 -41.7437,-7.4242 -66.1936,-53.0423 -66.1936,-53.0423 0,0 -14.014,19.0522 -32.2024,-8.5869 -18.1883,-27.6392 -23.6547,-73.3468 -23.6547,-73.3468 0,0 -30.2145,45.797 -43.1352,-1.6101 -12.9207,-47.407 -6.5597,-79.8764 -6.5597,-79.8764 0,0 -97.7996,36.405 -187.0517,-4.5619 -89.252,-40.9668 -120.4604,-64.7598 -120.4604,-64.7598 0,0 -31.3078,14.4121 -33.7926,-31.0272 -2.4847,-45.4392 -2.4847,-38.205 -2.4847,-38.205 0,0 -38.063,31.6287 -45.4561,6.3455 -7.3931,-25.2832 2.6191,-33.0008 2.6191,-33.0008 0,0 -15.1073,-12.7015 -10.0384,-31.1277 5.0689,-18.4261 18.0898,-47.3771 18.0898,-47.3771 -27.7915,-4.2536 -59.187,-16.1012 -70.2747,-24.7075 -29.3658,-23.3808 -24.218,-53.6263 -24.218,-53.6263 l 43.0601,-196.2338 16.3993,-8.0502 c 0,0 13.0977,-73.5923 43.3231,-80.849 z" fill="#FFFFFF" transform="translate(-110.39469,-1.5287838) matrix(0.26458333,0,0,0.26458333,1734.9741,645.09672)"/>
    <path d="m -5670.818,-1622.2044 c -4.7024,-14.261 -23.1994,-89.6362 -27.362,-138.5437 -1.3144,-15.4576 -2.3373,-16.6404 -12.9981,-15.0154 -6.3646,0.9696 -12.0948,2.1963 -12.7356,2.726 -2.0103,1.6608 25.5735,101.2026 36.5723,135.6911 11.5494,36.2113 11.9855,57.1398 1.2571,60.1292 -3.776,1.0525 -10.1956,-1.7279 -14.2645,-6.1789 -10.1088,-11.0575 -39.5397,-101.4881 -48.658,-151.7947 l -7.5216,-41.4956 -41.0918,-6.4727 c -72.3714,-11.4005 -112.0627,-28.6354 -135.8583,-58.9954 -12.697,-16.1944 -19.8041,-19.258 -17.3919,-7.4936 4.2757,20.8213 7.2411,130.9375 4.6085,171.0246 -2.7204,41.4248 -3.6727,45.338 -11.2291,46.115 -10.7057,1.1013 -14.8692,-7.6089 -13.0785,-27.3582 0.7969,-8.736 -0.1941,-38.5226 -2.1918,-66.1922 -1.9978,-27.6691 -3.2355,-68.9064 -2.7468,-91.6384 0.658,-30.7994 -0.713,-42.1233 -5.376,-44.4408 -5.3235,-2.6444 -6.2612,0.9786 -6.2488,24.1707 0.06,138.757 -2.9897,216.377 -8.6887,221.0199 -14.5455,11.859 -20.3953,-21.8917 -21.2521,-122.6471 -0.2845,-33.5157 0.572,-85.2983 1.9023,-115.0727 1.3336,-29.7736 1.7283,-57.7683 0.8779,-62.2099 -1.4604,-7.6351 -2.0269,-7.7153 -10.3926,-1.4739 -11.8972,8.8743 -19.8819,0.7298 -21.533,-21.9675 -0.8631,-11.8307 -3.8723,-18.2001 -9.7887,-20.7158 -7.81,-3.3202 -8.1208,-6.2646 -3.6219,-34.2313 5.0352,-31.3136 17.188,-56.2063 29.0556,-59.5125 10.4602,-2.914 10.3615,0.2206 -0.7563,24.6561 -13.558,29.7965 -15.3721,45.5683 -5.2555,45.725 6.2438,0.097 7.5455,4.7646 7.299,26.1841 l -0.2996,26.0665 18.8288,-18.6645 c 26.3729,-30.3829 24.3607,-2.9378 24.2851,19.4013 -0.1108,18.5803 2.2065,37.7675 5.1494,42.6384 5.0148,8.2976 5.8941,8.4495 13.9859,2.4154 12.81,-9.5559 18.067,-7.551 50.2555,19.1675 36.5486,30.3382 61.5361,40.9011 114.68,48.4774 l 41.6802,5.9421 1.9557,-30.2793 c 1.5275,-23.6767 3.715,-31.7355 10.0332,-36.9564 9.6071,-7.9426 9.7654,-7.5157 13.2617,35.9406 1.5199,18.8927 4.7232,31.0862 8.6823,33.0523 5.3389,2.6529 37.3788,4.5128 74.4574,-12.1611 8.4576,-3.8033 15.8903,-1.1103 12.325,10.7421 -6.4607,21.4902 1.8097,97.9429 12.8268,98.9891 1.8038,0.1713 6.0289,-5.2988 9.3874,-12.156 4.0054,-8.1732 9.1029,-12.183 14.7989,-11.6421 6.863,0.6517 9.7041,6.1471 13.5152,26.1605 5.5393,29.0875 15.1736,55.3078 23.3242,63.4912 4.5146,4.5324 6.7787,3.6352 11.4899,-4.5504 7.8208,-13.5899 14.5968,-9.2733 26.0763,16.6143 7.3663,25.0487 16.9289,22.3882 41.0757,25.2592 25.9262,3.0832 30.0884,2.704 23.394,-2.1274 -4.475,-3.2322 -20.4812,-20.749 -35.5635,-38.9255 -23.3188,-28.0995 -31.226,-42.6261 -52.7807,-96.9958 -24.8451,-62.6575 -40.743,-87.7382 -61.1004,-96.3936 -5.4898,-2.3347 -8.2852,-7.35 -7.6751,-13.7737 2.0688,-21.7857 -37.0287,-49.5331 -94.5072,-67.0744 -48.2728,-14.7317 -74.2612,-30.1079 -119.5032,-70.7106 -34.8664,-31.2899 -54.4387,-59.5822 -62.0691,-89.7302 l -4.2148,-16.6549 -6.061,11.9249 c -5.669,11.1604 -7.1691,11.6375 -23.3865,7.4402 -22.2727,-5.7641 -41.2299,-18.0001 -40.4593,-26.1156 0.7081,-7.4566 2.646,-7.4937 20.7246,-0.3983 11.9876,4.7046 13.6945,4.3509 14.3909,-2.9825 0.7529,-7.9283 5.1994,-9.789 16.9842,-7.1065 7.516,1.711 10.2585,-34.6207 4.699,-62.292 -8.62,-42.9142 -21.5688,-84.759 -28.605,-92.4495 -3.9126,-4.276 -14.2348,-9.8232 -22.9379,-12.3268 -43.1723,-12.4206 -58.9296,-35.7869 -54.6341,-81.0182 1.894,-19.944 1.0062,-26.4295 -3.6781,-26.8743 -8.3921,-0.7969 -17.7526,24.0934 -30.4083,80.8337 -3.6308,16.2835 -6.1371,20.0759 -12.8451,19.4389 -7.6939,-0.7307 -8.3254,1.4549 -8.2456,28.5739 0.056,19.4634 -3.4709,42.4237 -10.4657,68.0936 -11.6667,42.823 -42.1386,107.425 -49.2141,104.3392 -8.222,-3.586 -5.2524,-24.8255 10.1873,-72.8223 21.0661,-65.4773 26.6845,-97.574 24.6134,-140.5469 -0.9709,-20.1394 -1.6151,-40.4561 -1.4338,-45.1484 0.4391,-11.3559 14.3033,-12.4662 23.9482,-1.9176 7.3604,8.0538 7.631,7.8152 9.1386,-8.0602 1.3252,-13.955 8.4192,-29.6449 27.371,-60.5269 2.0801,-3.3905 9.0292,-7.4913 15.4427,-9.1124 14.2041,-3.5922 26.2685,7.4135 27.8957,25.4503 0.5841,6.4895 3.4593,24.7479 6.3859,40.5742 5.3095,28.6895 5.4013,28.8215 30.8697,44.2484 34.262,20.7547 46.6997,36.4492 60.0914,75.8285 8.5453,25.1186 13.3605,33.3546 19.8904,34.0106 15.8871,1.5964 49.6193,25.2161 66.8187,46.792 24.9497,31.295 18.2439,38.0205 -30.6942,30.7751 -7.0766,-1.0478 -21.7144,-7.4866 -32.5255,-14.308 -16.8772,-10.6467 -14.1103,-11.4987 -16.8358,-6.0183 -1.7427,3.5122 -1.4359,11.4103 0.6882,17.5522 2.124,6.1421 3.5109,14.8609 3.0821,19.3758 -1.3718,14.4457 43.9613,70.4227 89.0911,103.6897 36.3102,26.7669 49.6276,33.7833 92.4915,48.7299 54.1766,18.8908 76.3764,33.7005 91.1119,60.7843 4.6128,8.4774 7.9,20.5428 7.3044,26.8126 -0.9309,9.8039 1.4665,12.3472 17.1251,18.1702 26.0648,9.6935 40.0189,29.7209 66.7952,95.8807 29.5001,72.8905 48.8049,102.3843 93.0823,142.2216 34.3411,32.2427 32.8832,36.6173 6.939,41.7816 -11.4495,4.9142 -28.5604,3.8165 -54.5424,0.085 -41.3447,-5.9382 -45.7695,-8.3589 -56.4593,-30.8862 -5.0224,-10.5881 -10,-16.2905 -11.9614,-13.7026 -11.7514,15.5128 -41.8686,-13.988 -51.8014,-50.7381 -7.2941,-26.9926 -6.1067,-25.5838 -16.9759,-20.1503 -19.7008,9.8489 -42.452,-27.7325 -44.9442,-74.2386 -0.8531,-15.9198 -2.7015,-20.9127 -6.9537,-18.7954 -4.6322,2.3059 -4.8601,6.6278 -1.1296,21.5809 11.4308,45.8081 23.6053,131.5259 19.5393,145.6603 -5.2428,18.2155 -9.0522,27.8659 -15.8764,7.1702 z m -182.0214,-545.321 c 0.2052,-2.162 -30.5676,-22.5621 -34.6149,-22.9465 -7.1024,-0.6744 -1.2021,7.9518 10.3475,15.1373 13.3516,8.3054 23.898,11.6991 24.2674,7.8092 z m -251.3222,103.1247 c -2.7303,-17.9294 18.7195,-73.7071 26.1749,-68.0601 4.5097,3.4153 1.5298,45.8204 -4.668,66.4305 -4.8242,16.04 -19.1458,17.1252 -21.5069,1.6296 z m 45.263,10.1195 c -8.1918,-6.2035 -7.1734,-40.5932 1.4813,-50.1191 10.1231,-11.1444 13.365,-4.8545 12.7023,24.6566 -0.579,25.7099 -4.5191,32.7836 -14.1836,25.4625 z m 39.725,-9.2587 c -5.5266,-17.9883 -3.9949,-40.6096 2.8636,-42.3135 6.4141,-1.5933 19.4734,32.3557 18.2002,47.3082 -1.2634,14.6765 -16.1031,11.1555 -21.0638,-4.9947 z m 30.3133,-20.1022 c -7.1114,-12.5309 -6.0154,-30.0479 1.8401,-29.302 6.5559,0.6227 14.0898,19.2516 12.8911,31.8732 -1.0617,11.1788 -7.5688,10.0428 -14.7312,-2.5712 z m -2.3534,-177.7688 c -2.7326,-11.1379 -2.078,-13.9084 3.6615,-15.5083 8.2122,-2.2882 13.818,6.8275 12.613,20.5126 -1.2547,14.2427 -12.3885,10.8188 -16.2745,-5.0043 z" fill="#00B894" transform="translate(-110.39469,-1.5287838) matrix(0.26458333,0,0,0.26458333,1734.9741,645.09672)"/>
</svg>