<?xml version="1.0" ?><svg height="110.74729mm" viewBox="0 0 118.06817 110.74729" width="118.06817mm" xmlns="http://www.w3.org/2000/svg">
    <path d="m -10032.797,860.877 c 21.341,-19.2063 34.829,-28.0411 75.7185,-26.5814 40.8895,1.4596 84.2547,21.2036 99.2788,58.31 15.0241,37.1065 10.073,79.0529 5.3779,91.3449 -4.695,12.2919 13.9144,14.3663 33.6336,7.5288 19.7192,-6.8374 69.4013,-35.1858 88.9497,-28.7325 19.5484,6.4533 62.4473,14.5036 66.1574,74.136 3.71,59.6324 -8.195,53.0092 -8.195,53.0092 0,0 24.8105,-3.3479 23.6613,12.9228 -1.8942,26.8188 -31.6002,20.7265 -31.6002,20.7265 0,0 -97.1446,60.3075 -134.2781,65.7621 -66.0694,14.7959 -130.7594,10.4294 -169.363,-29.1166 -22.4509,-23.5085 -69.7429,-92.4204 -73.4129,-120.0005 -3.671,-27.5802 -3.927,-68.451 -3.927,-68.451 0,0 -16.305,-46.4791 27.999,-110.8583 z" fill="#FFFFFF" transform="translate(52.256897,-102.49481) matrix(0.26458333,0,0,0.26458333,2616.0819,-105.0277)"/>
    <path d="m -5167.6191,5089.748 c -9.1608,-0.2512 -17.5321,3.4208 -23.5411,11.0586 -5.416,6.8872 -7.6086,13.8621 -6.3476,20.1993 l 1.9238,9.6777 -31.7988,0.1269 c -23.025,0.091 -34.4981,1.8938 -41.5781,6.5333 -10.5668,6.9234 -14.5078,5.539 -14.5079,-5.0958 0,-9.9414 -18.396,-22.7226 -32.705,-22.7226 -14.877,0 -29.9211,10.9352 -36.3301,26.4062 -6.377,15.3948 3.0825,33.707 21.3555,41.3418 12.128,5.0664 12.8096,6.1444 7.3496,11.6036 -19.107,19.108 -26.5427,64.9089 -15.2227,93.7734 3.734,9.5219 6.5346,25.1031 6.2266,34.625 -1.296,39.8336 25.3621,98.2592 63.0781,138.2383 23.1518,24.5436 49.9603,42.582 63.2813,42.582 2.946,0 14.5902,-3.9269 -11.6348,-17.3125 -12.521,-6.3906 -14.6299,-17.3146 -11.3789,-17.3516 12.7779,-0.6686 33.4039,-14.3892 46.1445,-18.9082 l 17.6563,9.3887 c 13.498,7.1761 19.3715,8.4691 24.9375,5.4902 10.122,-5.4165 9.1106,-11.9752 -3.7344,-24.2832 l -11.0195,-10.5546 22.1347,-22.1329 c 22.223,-22.2226 40.974,-53.7438 50.086,-84.1933 2.689,-8.9929 6.6546,-16.3516 8.8066,-16.3516 2.153,0 16.9061,-6.4209 32.7871,-14.2676 22.997,-11.3632 29.2443,-13.123 30.6953,-8.6543 1.004,3.0856 8.4167,12.2398 16.4727,20.3438 12.445,12.5163 16.7522,14.5535 28.6172,13.5312 12.73,-1.0967 14.471,-0.02 19.705,12.1954 7.802,18.2415 7.68,51.6848 -0.289,75.6718 -9.531,28.7001 -16.2818,32.8112 -19.6348,11.9551 -1.46,-9.0847 2.033,-15.9945 0.957,-34.9141 -2.168,-38.0942 -24.6402,-52.2964 -60.3632,-27.332 -15.145,6.3291 -36.5706,46.6544 -44.4766,65.5781 -6.622,15.8495 -7.6472,52.1558 -1.7812,63.1172 3.788,7.0802 2.426,7.4414 -28.084,7.4414 -19.341,0 -33.8525,1.7858 -36.5645,4.4981 -3.431,3.4317 -14.4712,8.2202 -32.5742,-1.2696 -16.955,-8.8872 -24.9101,-11.2548 -27.8731,-8.2929 -5.8,5.8011 4.5335,18.1314 25.5215,25.082 10.367,2.2844 24.8707,1.9136 35.9707,1.1543 6.347,-1.0324 21.4401,-2.6038 33.5391,-3.4922 24.849,-1.8239 49.1758,-8.8156 49.1758,-14.1328 0,-1.9517 5.2357,-3.5488 11.6347,-3.5488 14.572,0 60.2848,-22.7409 79.1758,-39.3887 7.831,-6.9016 20.282,-14.2834 27.668,-16.4043 17.604,-5.0541 31.0217,-22.1479 24.0137,-30.5918 -2.715,-3.2718 -8.0647,-5.9472 -11.8907,-5.9472 -6.016,-2e-4 -6.4729,-1.6881 -3.3769,-12.4786 7.788,-27.1546 0.6454,-62.8851 -18.3496,-91.7773 -7.56,-11.5004 -8.4289,-15.6141 -5.1289,-24.2949 9.646,-25.3737 0.3526,-52.9322 -15.0664,-44.6797 -3.829,2.0504 -9.756,10.7033 -13.166,19.2285 l -6.2051,15.502 h -23.7051 c -20.045,0 -27.624,2.1601 -49.082,13.9921 l -25.377,13.9922 12.2656,-13.0312 c 13.109,-13.9236 20.3937,-29.2397 17.6387,-37.0762 -3.183,-9.0435 -14.8739,-4.8139 -30.0859,10.8848 -25.703,26.5148 -28.2797,26.4816 -25.8477,-0.3418 2.586,-28.5001 -5.1841,-50.9893 -23.8691,-69.1016 -13.1003,-11.4726 -14.5288,-11.3346 -3.8008,-24.0859 14.207,-16.8842 12.7614,-33.8805 -4.1426,-48.7227 -9.173,-8.0541 -19.1244,-12.2292 -28.2851,-12.4805 z m -46.1758,58.3829 v 0 c 11.4288,2.0499 43.222,7.3216 52.2363,17.7031 29.1587,33.5812 33.8759,55.2426 29.6524,76.4219 -3.026,18.8345 -26.4101,66.9259 -41.3711,85.0742 -10.693,12.9732 -53.3574,43.88 -78.2754,56.7051 -12.894,6.6361 -34.4289,8.3018 -42.3379,3.2734 -5.985,-3.8033 -23.3751,-41.7691 -26.6641,-58.209 -2.389,-11.958 0.4857,-15.3639 5.4707,-8.416 6.493,9.0501 16.4723,5.5074 5.6153,-18.0234 -8.12,-17.6002 -14.0975,-27.8305 -14.1875,-50.7872 -0.127,-37.1384 5.9037,-53.6346 28.0117,-76.5898 14.578,-15.1383 21.7475,-19.4323 38.3183,-22.9531 14.43,-3.0659 30.2191,-4.4421 43.5274,-4.1992 z m 29.2051,46.0488 c -6.322,-0.01 -14.6708,3.9031 -20.2598,9.4941 -7.318,7.3195 -12.0775,8.9963 -20.6445,7.2832 -27.879,-5.576 -61.834,21.4784 -61.834,49.2696 0,16.8537 10.4497,26.2714 29.1445,26.2714 20.688,0 37.108,-8.7974 54.181,-43.1864 0.7525,-2.6543 5.0413,1.1116 13.5627,1.7648 12.3108,0.9436 22.8108,2.8864 35.9449,2.1542 17.3052,-0.9647 22.3759,-24.8595 14.4325,-35.1388 -9.8769,-12.0047 -32.1663,-17.9121 -44.5273,-17.9121 z m -4.7247,19.2207 c 6.229,0 9.1219,7.0522 6.7129,16.3516 -2.363,9.1107 -11.3026,8.5312 -14.3066,-0.9278 -2.865,-9.0281 0.2847,-15.4238 7.5937,-15.4238 z m -30.75,6.709 c 2.423,-0.068 4.8235,1.8393 7.2735,5.7226 3.214,5.0945 2.784,8.0806 -1.832,12.6973 -5.486,5.4826 -6.5159,5.4605 -11.2559,-0.25 -3.5,-4.2183 -4.0238,-8.1783 -1.5938,-12.0332 2.539,-4.0243 4.9852,-6.0683 7.4082,-6.1367 z m 31.9707,29.6015 c -2.9858,0.4882 -8.1821,2.8777 -10.7398,4.2166 -12.37,6.4806 -9.7911,14.6724 2.7379,16.4631 4.637,0.6628 9.4978,4.5584 10.7988,8.6563 1.298,4.0978 3.8746,7.4511 5.7246,7.4511 5.92,0 8.1328,-7.3252 4.3438,-14.4023 -3.6451,-10.9377 -2.0042,-6.3191 3.5411,-9.5281 19.3095,-11.1739 -6.7195,-14.4405 -16.4064,-12.8567 z m -11.5878,74.4746 c -2.4039,0.2577 -3.6718,3.4897 -3.6524,4.2383 0.087,3.3391 -0.611,5.8535 0.3789,8.2461 2.0537,4.9635 5.4324,3.906 8.8555,0.4844 3.4249,-3.4235 2.7654,-5.0299 -0.061,-9.043 -2.2282,-3.1647 -4.0791,-4.0803 -5.5214,-3.9258 z m -28.0137,8.4786 c -3.847,0 -5.7695,3.8483 -5.7695,11.5429 0,7.6942 1.9225,11.541 5.7695,11.541 3.846,0 5.7715,-3.8468 5.7715,-11.541 0,-7.6946 -1.9255,-11.5429 -5.7715,-11.5429 z m -27.0371,0.2129 c -1.9772,-0.3131 -4.7636,1.808 -7.5176,5.332 -3.211,4.1077 -5.8398,10.7442 -5.8398,14.748 0,12.8193 14.9426,2.9267 16.0156,-10.8047 0.4865,-6.2144 -0.681,-8.9623 -2.6582,-9.2753 z m -30.6699,2.6738 c -2.114,-0.5292 -4.403,4.8495 -5.084,11.9531 -0.897,9.3675 0.1606,12.4496 3.8476,11.2207 5.895,-1.9659 6.9524,-21.7447 1.2364,-23.1738 z m 356,66.3633 c 5.095,0 4.6586,5.2112 -0.9024,10.7734 -7.262,7.262 -11.4608,5.3958 -6.9258,-3.0781 2.266,-4.2317 5.7882,-7.6953 7.8282,-7.6953 z" fill="#00B894" transform="translate(52.256897,-102.49481) matrix(0.26458333,0,0,0.26458333,2616.0819,-105.0277) translate(-4730.5688,-4305.3989)"/>
</svg>