<?xml version="1.0" ?><svg height="175.07153mm" viewBox="0 0 207.36282 175.07153" width="207.36282mm" xmlns="http://www.w3.org/2000/svg">
    <path d="m -5151.7434,-3852.9359 c 0.054,14.3494 11.8367,55.5004 19.1333,70.4335 7.2966,14.9331 6.3237,22.2295 -4.432,22.3267 -10.7557,0.097 -27.781,-21.3052 -40.1582,-40.5188 -12.3772,-19.2135 -29.4566,-31.9091 -29.4566,-31.9091 0,0 -21.3492,-4.9128 -30.1052,-17.1706 -8.7559,-12.2578 -21.9438,-20.5269 -21.9438,-20.5269 0,0 -34.429,-2.1403 -43.239,35.2168 -8.8099,37.357 -7.2897,77.4333 39.4625,118.6816 46.7522,41.2484 95.7744,90.4741 114.7455,137.7541 18.9711,47.28 27.6961,83.0125 -16.8401,123.434 -44.5362,40.4215 -240.571,25.1965 -240.571,25.1965 0,0 -113.1392,-2.8439 -142.5957,-9.5565 -29.4566,-6.7126 -64.9666,-16.6842 -100.2064,-69.4121 -35.2398,-52.7279 -93.277,-141.1237 -97.3307,-158.0025 -4.0536,-16.8787 -10.8638,-36.8706 10.7017,-13.8143 21.5654,23.0563 104.4762,102.0022 104.206,90.1822 -0.2703,-11.82 -13.8905,-57.3489 -9.1883,-59.0513 4.7022,-1.7025 31.8347,29.9634 31.8347,29.9634 l 8.6478,-43.9237 c 0,0 -29.1322,-70.3363 -23.295,-74.5195 5.8373,-4.1832 29.1863,7.2477 41.1311,21.4998 11.9448,14.2521 25.8894,14.6412 17.9442,-4.7183 -7.9452,-19.3595 -13.5662,-28.9419 6.9723,-20.1378 20.5385,8.8042 31.6185,29.3312 35.8343,13.2307 4.2158,-16.1005 7.2426,-33.7089 23.241,-19.7487 15.9984,13.9603 13.8581,30.7771 42.7742,42.6944 28.9161,11.9173 81.6677,12.0146 109.8811,57.203 28.2135,45.1884 61.3454,108.6175 74.1009,119.8538 12.7555,11.2363 30.1051,9.6797 40.4825,-6.1289 10.3774,-15.8086 22.2141,-31.5687 0.9729,-58.419 -21.2412,-26.8504 -106.8544,-123.8424 -122.4745,-151.3252 -15.6201,-27.4827 -36.0557,-120.4074 11.237,-166.7631 47.2926,-46.3558 108.1515,-62.0672 136.2569,-35.3627 28.1054,26.7044 36.3748,42.9994 42.6985,61.5807 6.3237,18.5812 9.5781,31.7578 9.5781,31.7578 z" fill="#FFFFFF" transform="translate(-155.04744,-14.12193) matrix(0.32229282,0,0,0.32229282,2011.4702,1291.2955)"/>
    <path d="m -524.94765,342.77808 c -78.14002,6.14092 -115.75228,67.71003 -121.90587,127.64184 -5.9984,62.6217 11.11815,103.74136 66.21875,159.06836 18.7261,18.8023 45.88618,49.67096 60.35938,68.59766 27.9862,36.6007 28.19716,37.48548 16.25586,68.30078 -2.7115,6.9935 -22.31597,12.56942 -28.48947,7.82172 -2.0705,-1.5935 -16.99539,-17.93649 -25.90519,-37.29049 -8.9098,-19.354 -17.74456,-44.04634 -23.96366,-53.02094 -25.7674,-37.1918 -79.34585,-73.4998 -108.56906,-76.4923 -26.89579,-2.7594 -42.35145,-16.37126 -48.09215,-28.84026 -15.7595,-34.2252 -51.71993,-46.41991 -54.57813,-18.50781 l -0.84765,8.2832 -16.94336,-10.8789 c -19.5664,-12.5594 -27.94257,-14.25596 -35.20118,-7.13086 -6.5164,6.3955 -4.35235,17.26008 6.24415,31.33398 10.87,14.4357 18.93981,15.32717 11.66601,1.28906 -7.526,-14.5298 -4.01791,-15.57645 13.74219,-4.09765 20.3622,13.161 32.06699,12.6222 31.86719,-1.4668 -0.2987,-20.8098 5.73293,-19.52821 24.24023,5.15039 9.9095,13.2137 19.90604,23.11039 22.21094,21.99219 2.3069,-1.1184 9.13488,1.19899 15.17578,5.15039 6.0389,3.951 19.61221,9.75449 30.16211,12.89648 41.1194,12.2463 92.65402,64.20729 118.44922,119.42579 7.582,16.2306 18.43233,34.30988 24.11133,40.17578 12.6063,13.0199 24.33011,14.68321 38.82421,5.50781 24.1741,-15.3079 32.84527,-46.42477 21.57227,-77.42188 -8.087,-22.23579 -41.22637,-64.08427 -75.04297,-94.76367 -45.7913,-41.5437 -56.5212,-58.80344 -64.8418,-104.31054 -5.326,-29.1327 1.10364,-69.94999 14.83594,-94.14649 25.1342,-44.2873 87.87632,-69.81917 127.73242,-51.98047 20.7154,9.2704 37.44978,29.93059 47.20508,58.27539 4.8279,14.0302 7.8505,26.26385 6.7207,27.18555 -2.4904,2.0266 -19.23736,-9.36397 -31.53906,-21.45117 -12.1884,-11.9765 -21.39464,-8.74827 -24.65234,8.64453 -1.77168,20.55351 -6.12518,9.69166 -15.90039,-1.99609 -12.6365,-15.1097 -14.03249,-15.78015 -28.08399,-13.49805 -63.1788,10.2598 -78.50216,100.37042 -26.94336,158.44922 8.6772,9.7768 29.31167,27.52836 45.85157,39.44726 41.9085,30.2005 80.84323,85.40801 96.27343,127.84571 8.5934,23.6312 6.75691,42.36814 -2.77539,70.61914 -5.7224,16.9597 5.66374,15.09803 14.24414,-0.51367 20.1606,-36.6813 6.31986,-75.36099 -6.36914,-104.74219 -14.7186,-34.0827 -54.5774,-89.20865 -87.8164,-113.46485 -35.2947,-25.7572 -56.25174,-48.15981 -64.69364,-72.44631 -11.5998,-33.3617 -2.81881,-67.50826 20.46289,-79.56836 10.9106,-5.6525 14.31477,-3.51293 20.77567,7.57717 7.5467,12.9534 30.40289,28.86536 43.37109,30.19336 5.5918,0.5726 10.88842,5.06611 14.25782,12.09571 9.518,19.8444 35.62345,50.68619 46.12695,54.49609 12.0117,4.3567 29.98675,-2.0777 32.90625,-11.7793 1.0729,-3.5666 -3.50758,-15.77405 -10.17578,-27.12695 -12.6067,-21.4575 -19.97377,-49.27351 -18.04297,-68.12891 1.7664,-17.2503 -18.37357,-60.9872 -32.77567,-77.1727 -18.86515,-21.19885 -49.32523,-26.39057 -77.71495,-25.22695 z m 55.6332,48.81176 c -8.02612,0.63245 -9.33558,17.02034 -5.61914,21.02149 4.1918,4.2703 6.51512,4.50818 11.48242,1.17578 3.4258,-2.2971 6.4501,-6.33857 6.7207,-8.98047 0.6566,-6.41244 -6.72349,-13.50181 -12.58398,-13.2168 z m -19.08594,0.96289 c -7.48599,0.40253 -11.37668,8.65495 -7.52344,18.04493 3.1447,7.6638 14.56935,8.07117 15.33985,0.54687 2.15671,-8.94534 0.18414,-17.07798 -4.4004,-18.26367 -1.20412,-0.28246 -2.34658,-0.38563 -3.41601,-0.32813 z m 58.24023,83.9043 c 3.31111,-0.0553 4.64123,1.22672 4.35743,3.99805 -0.2966,2.8967 4.46357,15.89381 10.57617,28.88281 6.1156,12.9893 11.0527,24.26911 10.9707,25.06641 -0.5236,5.1131 -11.56238,-1.4101 -18.76758,-11.0918 -8.631,-11.5933 -23.46404,-42.18851 -21.21484,-43.75391 0.6646,-0.463 5.20845,-1.63466 10.09375,-2.60547 1.5574,-0.30962 2.88067,-0.47766 3.98437,-0.49609 z m -458.08398,76.27344 c -9.9952,0.1196 -11.08038,1.43792 -12.02148,14.57422 -0.6735,9.4046 3.12541,23.02864 10.88671,39.06054 10.0944,20.8418 11.31595,26.67547 7.96485,38.00977 l -3.96094,13.38867 -9.0957,-13.48242 c -10.9549,-16.2372 -23.34608,-17.27327 -26.67578,-2.23047 -1.2105,5.4603 1.00366,20.90075 4.91796,34.31055 3.9113,13.4097 6.25078,24.29305 5.20118,24.18555 -4.386,-0.4491 -33.36648,-27.77416 -57.70118,-54.40626 -33.27528,-36.41769 -40.03868,-41.86683 -49.50978,-39.89453 -11.2328,2.3391 -13.6333,10.04519 -9.0449,29.02539 6.5252,27.0027 18.6184,50.07322 42.90429,81.85352 41.3838,54.1529 48.98972,113.7325 128.32422,146.4082 8.1546,3.3587 25.64697,14.24376 81.77878,16.60116 24.22079,1.0172 213.28323,10.44043 265.01953,2.61523 40.5425,-6.1314 62.06352,-11.44759 81.28372,-29.84529 15.2678,-14.6113 4.57028,-16.24002 -27.17382,-4.13672 -40.5309,15.4514 -76.91913,20.95759 -162.28733,16.91439 -38.5375,-1.8252 -74.45878,-2.90614 -79.83008,-2.40234 -26.3989,2.4794 -113.95522,2.67086 -147.86502,-12.40854 -84.3609,-37.5145 -70.37326,-77.94249 -105.79297,-118.74609 -25.30179,-29.1435 -60.29722,-86.44258 -59.22072,-96.95508 0.2207,-2.1555 9.3469,6.44443 20.27737,19.11133 43.3143,50.183 77.23544,76.4608 94.15234,72.9375 8.9144,-1.8556 11.8044,-15.7288 6.1582,-29.5625 -3.2082,-7.8678 -2.99208,-8.20242 2.04102,-3.10742 3.0984,3.1392 9.66484,5.55293 14.58594,5.36133 7.7763,-0.3031 9.02856,-2.29941 9.56835,-15.28711 l 0.6211,-14.93946 10.39453,18.00196 c 30.7482,56.9298 78.50071,93.16259 134.94141,98.33789 25.2405,2.3144 23.15346,-3.61071 -4.30274,-13.34571 -44.9591,-15.9395 -73.85787,-37.19541 -104.23047,-76.66211 -21.8593,-28.4032 -30.20017,-43.5136 -42.42187,-76.8496 -8.3667,-22.8225 -14.67638,-41.96567 -14.01758,-42.53907 0.6568,-0.5733 8.86178,4.99786 18.23438,12.38086 19.4718,15.339 25.89947,14.99567 19.58007,-1.04883 -6.3397,-16.0929 -30.26349,-35.38831 -43.68359,-35.22851 z" fill="#00B894" transform="translate(-155.04744,-14.12193) matrix(0.32229282,0,0,0.32229282,2011.4702,1291.2955) translate(-4730.5688,-4305.3989)"/>
</svg>