<?xml version="1.0" ?><svg height="64.607986mm" viewBox="0 0 79.330002 64.607986" width="79.330002mm" xmlns="http://www.w3.org/2000/svg">
    <path d="m 2430.11,1420.8538 c -3.6632,-6.9533 -5.0951,-14.8656 -0.1998,-27.4834 4.8956,-12.6177 20.048,-24.576 36.8824,-21.8937 16.8344,2.6823 22.6288,6.0391 26.6917,15.8096 4.0629,9.7706 0.5329,25.7451 -13.4541,30.96 -13.9869,5.2149 -28.44,9.9803 -37.7314,8.3317 -9.2914,-1.6483 -12.1888,-5.7242 -12.1888,-5.7242 z" fill="#FFFFFF" transform="translate(-47.242349,-87.691948) translate(-2371.6709,-1281.4754)"/>
    <path d="m 15070.438,10197.596 c -37.897,-0.236 -75.804,12.39 -101.446,38.226 -24.194,24.377 -46.392,79.143 -46.392,114.453 0,10.282 -2.036,15.108 -9.541,22.614 -10.153,10.151 -12.536,19.572 -4.952,19.572 2.526,0 6.787,-3.135 9.469,-6.965 5.533,-7.898 5.489,-7.921 12.748,6.35 12.783,25.128 52.876,38.838 95.588,32.685 14.026,-2.02 28.229,-3.976 31.559,-4.355 4.26,-0.479 6.814,2.069 8.611,8.59 1.406,5.098 4.406,10.414 6.666,11.812 7.314,4.521 12.79,-4.444 8.924,-14.611 -1.89,-4.919 -2.721,-9.624 -1.891,-10.453 0.831,-0.832 10.976,-4.819 22.545,-8.862 17.485,-6.11 21.328,-6.584 22.774,-2.818 2.965,7.728 13.781,5.502 13.781,-2.838 0,-10.417 40.956,-37.066 45.23,-29.43 1.536,2.747 5.587,4.991 8.998,4.991 6.962,0 8.349,-9.13 2.926,-19.262 -2.435,-4.551 -1.91,-8.769 2.047,-16.42 12.593,-24.353 2.22,-72.318 -21.455,-99.215 -25.516,-28.987 -65.849,-43.814 -106.189,-44.064 z m -13.028,16.752 c 8.163,0 8.067,0.243 -4.572,11.662 -14.896,13.457 -27.635,33.89 -35.334,56.679 l -5.387,15.944 -21.008,2.133 c -12,1.219 -25.737,4.923 -32.037,8.64 -11.977,7.067 -12.74,6.228 -7.648,-8.379 2.701,-7.749 6.067,-10.366 16.822,-13.074 15.898,-4.003 26.631,-14.354 29.438,-28.387 1.539,-7.693 0.783,-10.61 -3.133,-12.113 -7.517,-2.884 -6.386,-6.354 4.629,-14.197 7.239,-5.155 10.715,-6.038 13.357,-3.397 5.975,5.975 14.258,4.048 25.668,-5.97 6.163,-5.411 14.478,-9.541 19.205,-9.541 z m 54.84,6.804 c 2.623,-0.06 5.305,0.01 8.059,0.209 16.611,1.202 20.118,2.745 31.531,13.868 14.028,13.672 30.088,43.8 33.373,62.609 1.987,11.371 -1.822,16.438 -6.576,8.746 -3.933,-6.364 -15.2,-2.927 -26.082,7.955 -9.946,9.943 -10.988,12.579 -9.764,24.649 0.753,7.432 2.395,15.794 3.648,18.58 1.774,3.941 -1.972,6.973 -16.884,13.666 -10.541,4.73 -27.291,11.397 -37.223,14.814 -9.933,3.417 -19.776,6.213 -21.875,6.213 -2.412,0 -4.588,-8.306 -5.914,-22.582 -2.367,-25.459 -12.472,-46.272 -27.742,-57.147 -5.083,-3.618 -9.24,-8.812 -9.24,-11.541 0,-10.63 20.717,-46.406 33.144,-57.236 17.671,-15.399 33.183,-22.368 51.545,-22.803 z m 1.855,29.604 c -2.53,-0.05 -5.2,0.119 -7.998,0.533 -17.605,2.607 -25.592,7.944 -31.953,21.348 -7.597,16.008 -6.702,29.601 2.561,38.863 15.067,15.067 44.664,7.124 58.824,-15.787 14.332,-23.191 3.024,-44.461 -21.434,-44.957 z m -158.605,76.129 c 1.648,0.137 2.112,2.785 3.213,8.857 1.135,6.253 -0.81,10.563 -7.76,17.221 l -9.269,8.883 v -13.139 c 0,-9.91 1.71,-14.334 6.964,-18.014 3.571,-2.501 5.57,-3.915 6.852,-3.808 z m 74.039,21.047 c 4.051,0 16.042,21.438 13.315,23.804 -8.108,7.033 -22.028,2.399 -25.846,-8.603 -2.13,-6.139 5.338,-15.201 12.531,-15.201 z m -48.912,10.23 c 4.046,-0.03 7.922,0.817 11.201,2.678 11.448,6.498 19.68,18.703 21.918,32.49 l 1.928,11.854 c 0.852,2.192 -23.499,1.654 -34.451,-0.704 -7.575,-1.797 -12.495,-4.32 -16.721,-7.21 -2.478,-1.162 -4.984,-2.972 -8.215,-6.409 -8.537,-7.911 -8.556,-8.02 -2.904,-17.588 5.452,-9.228 16.905,-15.033 27.244,-15.111 z m 5.91,7.943 c -2.487,1.66 -3.679,6.259 -3.506,9.817 0.254,5.217 11.648,4.842 13.678,-0.451 0.901,-2.345 0.381,-6.282 -1.152,-8.746 -2.297,-3.072 -6.556,-2.265 -9.02,-0.62 z m -10.144,-2.169 c -3.642,-0.525 -9.264,4.062 -9.264,9.341 0,7.172 6.202,8.528 12.086,2.645 1.88,-2.12 1.057,-7.833 0.405,-9.619 -0.532,-1.461 -2.014,-2.192 -3.227,-2.367 z m 8.232,23.753 c -15.109,0 -18.81,4.745 -8.746,11.215 6.213,2.909 12.888,0.128 16.697,-1.004 12.493,-3.267 7.085,-10.211 -7.951,-10.211 z" fill="#00B894" transform="translate(-47.242349,-87.691948) translate(-2371.6709,-1281.4754) matrix(0.26458333,0,0,0.26458333,-1524.344,-1328.9457)"/>
</svg>