<?xml version="1.0" ?><svg height="201.30882mm" viewBox="0 0 205.42204 201.30882" width="205.42204mm" xmlns="http://www.w3.org/2000/svg">
    <path d="m 46301.697,2942.2549 c -27.162,-25.3062 -36.314,-32.003 -13.32,-63.2145 22.995,-31.2115 99.142,-72.2614 99.142,-72.2614 0,0 2.513,-35.0563 8.294,-41.276 5.78,-6.2197 22.366,40.0321 22.366,40.0321 l 23.498,11.874 c 0,0 23.623,-43.9902 32.921,-51.0014 9.299,-7.0113 12.691,11.7609 9.55,33.5863 -3.141,21.8254 -9.801,43.6508 -9.801,43.6508 l 76.021,130.5001 c 0,0 44.356,-11.7608 125.53,-5.5411 81.173,6.2197 115.979,47.948 108.189,91.4858 -7.791,43.5378 -64.061,85.0777 -157.398,87.1509 -93.336,2.0732 -164.279,-20.0915 -180.489,-51.1899 -16.209,-31.0983 -23.497,-167.0266 -23.497,-167.0266 0,0 -80.165,51.2818 -121.006,13.2309 z" fill="#FFFFFF" transform="translate(23.335682,128.62468) matrix(0.34233768,0,0,0.34233768,-15864.689,-1071.1692)"/>
    <path d="m 46708.068,3333.3444 c -3.222,-3.3696 -3.954,-7.765 -4.834,-28.8619 -1.026,-25.1993 3.218,-102.6315 5.563,-143.3605 1.172,-19.1925 1.026,-22.1227 -1.465,-21.0971 -1.612,0.5861 -10.256,2.6373 -19.048,4.6883 l -16.113,3.6627 1.17,6.7393 c 0.589,3.8091 2.345,25.7853 3.956,48.9333 1.611,23.0016 2.544,39.2188 4.156,54.1626 1.611,14.7972 2.588,26.3464 2.588,37.9204 0,17.874 -0.439,21.3901 -3.514,24.1736 -4.544,4.1022 -6.742,4.1022 -10.55,-0.1468 -2.199,-2.637 -3.224,-11.1344 -4.25,-37.6523 -0.732,-18.7527 -1.71,-32.3533 -2.736,-42.6087 -1.023,-10.109 -0.198,-23.396 -0.198,-47.4232 l -0.144,-43.8055 -12.161,1.758 c -38.395,2.9299 -68.434,1.3161 -107.952,-0.7719 l 0.71,11.4673 c 0.293,4.6882 1.758,19.6319 3.223,33.1106 1.465,13.4788 3.224,36.3338 3.956,50.8378 0.585,14.5043 0.784,27.4982 2.249,47.1303 1.758,25.0526 2.052,37.5058 0.587,41.4613 -3.371,9.9626 -15.091,10.2556 -18.9,0.4397 -2.345,-6.1534 -3.862,-54.7484 -5.621,-129.3205 -0.732,-29.1549 -1.757,-56.4801 -2.489,-57.3589 -4.467,1.0376 -32.282,-7.1438 -32.818,-7.6903 -0.687,-0.7006 -1.465,1.6115 -1.171,2.7837 0.144,1.0253 3.075,20.3644 6.299,43.073 3.224,22.7086 8.11,45.665 13.091,69.2525 12.893,61.6795 13.625,82.7766 3.077,82.7766 -6.739,-0.1468 -8.35,-3.5161 -10.988,-23.8806 -1.466,-11.2811 -4.541,-29.3015 -6.886,-39.85 -10.988,-51.717 -15.434,-78.043 -18.952,-125.2183 l -1.318,-17.1415 -11.282,-8.6438 c -23.293,-18.0204 -33.255,-34.4291 -36.919,-61.3864 -1.024,-7.0323 -3.661,-31.2061 -5.86,-53.7682 -5.86,-60.6538 -5.341,-56.1082 -6.282,-66.3564 -26.425,10.3452 -56.851,24.0894 -80.711,18.3125 -19.193,-4.8346 -35.796,-10.0966 -49.129,-24.7473 -9.377,-10.4019 -12.345,-17.8616 -12.345,-27.9705 0.145,-20.0715 31.847,-56.5868 74.188,-78.1233 14.651,-7.3255 12.455,-9.816 -4.247,-4.6884 -6.3,1.9046 -12.014,2.7838 -12.747,2.0512 -3.663,-3.5162 11.282,-16.1158 21.391,-18.1669 10.402,-2.0511 7.179,-4.1021 -4.69,-3.0765 -9.669,0.8789 -11.866,0.5859 -11.134,-1.6116 1.612,-4.6883 15.824,-10.1091 29.447,-11.1345 10.696,-0.7326 13.187,-1.6118 13.187,-4.2488 0,-6.8859 6.299,-21.5366 12.453,-28.4223 5.127,-6.0069 7.032,-7.0325 10.694,-5.8604 5.714,1.7581 9.377,10.4021 11.135,25.9319 1.318,11.5741 1.613,12.16 8.205,14.3575 3.662,1.172 9.668,4.8349 13.333,7.9115 l 6.592,5.8602 1.905,-4.5417 c 7.617,-18.3134 10.4,-23.4411 18.459,-33.4036 9.67,-11.7204 17.288,-15.6762 21.684,-10.9881 1.464,1.4652 4.101,7.4719 6.006,13.1858 4.102,12.8925 2.929,25.3457 -4.25,47.3217 l -5.126,15.2367 8.789,10.4021 c 10.989,13.1856 15.089,19.1924 23.001,33.6965 14.065,26.2247 37.799,74.5721 41.022,83.9486 2.051,5.8604 4.395,9.816 6.007,9.6695 1.611,-0.2931 9.376,-1.7579 17.434,-3.5162 77.646,-14.8081 155.005,-12.6788 200.421,37.9452 3.225,3.8093 10.256,10.2556 15.236,14.5044 16.264,13.1856 50.692,69.7373 66.516,108.5617 9.961,24.4666 17.432,54.354 14.503,57.8703 -2.93,3.5162 -8.497,3.3696 -11.428,-0.2931 -1.464,-1.6115 -5.419,-11.8671 -9.082,-22.8551 l -6.593,-20.0715 1.024,11.7207 c 0.441,6.4462 1.467,23.1481 2.2,37.0663 1.023,21.3899 0.732,25.7851 -1.759,27.9827 -3.955,3.2233 -8.644,1.1721 -10.109,-4.8346 -0.732,-2.6372 -2.637,-17.7274 -4.103,-33.5502 -4.687,-47.6147 -9.523,-74.4255 -15.529,-88.4903 -3.663,-8.4975 -3.663,-8.2043 0.733,14.9437 7.178,36.9199 13.916,108.1224 11.135,118.8173 -0.88,3.3697 -2.638,5.2741 -5.128,5.2741 -4.542,0 -4.689,-0.8788 -9.816,-51.8634 -3.809,-39.7034 -9.524,-81.7509 -10.988,-80.4323 -0.294,0.4396 0.732,12.8927 2.49,27.6899 3.663,32.2315 3.222,102.8478 -0.586,106.657 -3.078,3.0767 -6.3,-4.5416 -7.912,-18.3134 -0.879,-7.3254 -1.757,-9.0833 -4.248,-8.351 -7.472,2.3443 -7.912,-0.4393 -9.231,-59.0422 l -1.319,-57.1377 -8.349,8.7904 c -7.766,8.0578 -12.893,11.4276 -39.558,26.8108 l -9.083,5.2742 0.439,109.0013 c 0.441,115.7406 -1.753,93.1086 -10.691,94.4271 -3.081,-0.2603 -6.18,-1.616 -7.912,-3.5161 z m -30.771,-202.6958 c 34.723,-4.1022 34.284,-3.9558 34.284,-11.7208 0,-14.211 8.35,-22.855 10.841,-11.1344 2.344,10.988 2.197,10.8415 14.064,4.1023 17.288,-9.6696 26.958,-17.5808 32.524,-25.9317 4.249,-6.5929 4.982,-9.9626 4.982,-22.5623 0,-61.24 -39.264,-90.2483 -123.065,-90.5413 -27.691,-0.1467 -48.787,1.9046 -82.045,7.6184 -22.708,3.9557 -21.389,3.0767 -19.191,12.8926 2.638,11.2811 0.878,17.2878 -4.982,17.2878 -3.662,0 -5.274,-1.9045 -7.764,-7.9113 -1.759,-4.3952 -3.224,-9.23 -3.224,-10.6949 0,-1.6117 -0.88,-2.9302 -1.904,-2.9302 -2.343,0 -2.343,0.1467 -0.144,13.918 2.049,12.5997 1.171,18.4599 -3.37,20.2181 -5.422,2.0511 -8.498,-3.9557 -10.842,-21.683 l -2.344,-17.2879 -1.465,14.6506 c -1.905,18.3134 -2.785,21.3901 -6.447,21.3901 -4.834,0 -6.446,-8.6438 -6.005,-33.9897 0.291,-13.4786 -0.147,-24.6131 -0.88,-24.6131 -0.878,0 -2.491,1.6116 -3.517,3.5162 -1.903,3.0766 -2.344,3.0766 -6.005,-1.3187 -3.078,-3.6626 -3.957,-7.6183 -4.105,-19.4855 -0.144,-8.2043 -0.732,-13.1855 -1.17,-10.9878 -1.611,6.1533 -4.981,7.0322 -9.817,2.4905 -4.102,-3.9556 -4.394,-5.7137 -4.394,-28.7154 l -0.145,-24.6131 -4.982,8.7904 c -12.83,19.1311 -22.363,28.8524 -39.377,42.4625 l 2.31,23.3192 c 0.733,10.5485 2.638,25.7852 4.25,33.8431 1.464,8.0578 3.955,29.1548 5.42,46.8823 2.929,34.8686 4.688,40.4361 17.727,54.3542 15.09,16.2622 41.169,30.7664 62.118,34.5755 l 7.327,1.465 v -10.1088 c 0,-7.4719 0.732,-9.9625 2.929,-9.9625 3.518,0 6.153,4.6882 7.911,14.2113 0.733,4.1021 2.345,8.0576 3.518,8.7902 7.323,4.6884 94.496,4.2488 136.983,-0.5859 z m 123.505,-46.1498 c -0.585,-1.6116 -1.172,-1.1721 -1.172,1.172 -0.145,2.0511 0.293,3.2231 1.026,2.4907 0.586,-0.586 0.733,-2.3443 0.145,-3.6627 z m -432.048,-139.1817 c 9.085,-3.8093 22.269,-16.2623 25.64,-24.027 1.466,-3.5164 2.636,-9.3765 2.636,-13.0393 0,-7.4719 1.759,-9.6695 5.862,-7.0323 1.758,1.0256 3.076,6.2998 3.516,14.5041 l 0.877,12.7461 5.862,-3.3695 c 9.376,-5.4209 30.473,-29.7411 36.772,-42.3407 9.671,-19.3389 6.594,-38.0916 -8.496,-51.2775 -7.618,-6.5927 -11.428,-7.6183 -41.023,-10.1089 l -17.14,-1.4651 -31.5,21.6831 c -46.734,31.7921 -68.272,54.9401 -65.049,69.5908 1.465,6.886 12.601,18.7531 24.321,26.0784 14.797,9.3764 44.538,13.4786 57.722,8.0578 z m -46.587,-18.0204 c -2.344,-2.4906 -1.319,-10.109 1.758,-13.1856 1.758,-1.7582 5.274,-3.0767 7.765,-3.0767 3.955,0 4.835,0.8792 4.835,5.5673 0,7.1789 -10.256,14.7972 -14.358,10.695 z m -26.517,-11.7206 c -4.543,-5.7136 -4.69,-6.4463 -2.344,-10.1088 2.488,-4.1023 8.644,-1.9047 11.573,4.102 2.05,4.3953 2.05,6.1533 0.293,8.3509 -3.37,3.9558 -4.982,3.5163 -9.522,-2.3441 z m 98.304,-52.1565 c -0.586,-1.6115 -0.879,-4.9811 -0.438,-7.4719 0.438,-3.3696 1.994,-5.4412 5.508,-5.4412 4.396,0 4.894,1.7787 4.894,7.7853 0,5.5674 -0.88,6.8859 -4.397,7.4721 -2.636,0.2929 -4.98,-0.7327 -5.567,-2.3443 z m -25.932,-4.6881 c -2.49,-4.6883 0.587,-10.2556 5.861,-10.2556 3.223,0 3.809,1.0255 3.223,6.2997 -0.732,7.3254 -6.007,9.6696 -9.084,3.9559 z m 103.435,-48.6405 c 3.661,-13.1856 5.127,-33.843 2.197,-33.843 -3.664,0 -17.288,21.2435 -20.804,32.5245 -1.612,5.1277 9.963,19.6319 13.039,16.5554 1.025,-1.0256 3.516,-7.9115 5.568,-15.2369 z m -72.522,-27.1038 c 0,-6.7392 -3.514,-7.9112 -5.86,-1.758 -1.465,3.9557 -1.465,5.7138 0.441,6.8859 3.369,2.1975 5.419,0.2929 5.419,-5.1279 z" fill="#00B894" transform="translate(23.335682,128.62468) matrix(0.34233768,0,0,0.34233768,-15864.689,-1071.1692)"/>
</svg>