<?xml version="1.0" ?><svg height="87.909294mm" viewBox="0 0 140.11072 87.909294" width="140.11072mm" xmlns="http://www.w3.org/2000/svg">
    <path d="m -1255.4733,12135.402 c 15.612,-41.63 61.0024,-90.546 80.1801,-109.887 19.1777,-19.34 64.8572,-70.424 107.9347,-72.853 43.0775,-2.428 3.5657,57.068 3.5657,57.068 h 32.8622 c 0,0 63.5081,-42.41 105.8146,-14.05 42.3066,28.361 8.0951,56.722 8.0951,56.722 l 50.9799,28.1 c 0,0 47.5106,-35.299 74.4943,-30.529 26.9836,4.77 46.3541,38.421 41.6319,62.185 -4.7222,23.764 -21.1051,50.564 -56.5694,44.059 -35.4642,-6.505 -73.2414,-7.112 -73.2414,-7.112 l -25.0563,20.555 c 0,0 34.9825,45.186 -7.1313,66.696 -42.1138,21.509 -101.5743,-10.755 -117.3791,-11.622 -15.8047,-0.868 -5.5894,43.191 -28.1401,44.232 -22.5506,1.041 -91.5518,-36.427 -91.5518,-36.427 0,0 -87.6005,-26.279 -99.9359,-58.542 -12.3354,-32.264 -6.5532,-38.595 -6.5532,-38.595 z" fill="#FFFFFF" transform="translate(-84.914873,-8.2060679) matrix(0.26458333,0,0,0.26458333,420.35136,-3152.4711)"/>
    <path d="m -1097.6239,12272.296 c -20.782,-6.732 -37.1759,-15.714 -46.0821,-25.248 -3.4503,-3.693 -8.9074,-6.563 -12.4796,-6.563 -3.4916,0 -10.9755,-2.174 -16.6311,-4.831 -5.6555,-2.656 -20.1797,-9.488 -32.2759,-15.181 -31.6928,-14.915 -63.6362,-45.802 -59.2338,-57.274 0.7354,-1.916 0.2485,-4.158 -1.0816,-4.98 -1.3303,-0.823 -2.4027,-7.972 -2.3832,-15.888 0.03,-12.018 1.7394,-17.525 10.3594,-33.362 25.2328,-46.362 49.8232,-74.356 76.3326,-86.898 9.1674,-4.336 15.7733,-9.714 20.2575,-16.489 12.4845,-18.865 37.2126,-42.95 51.0465,-49.72 26.0741,-12.756 65.5563,-13.443 72.0798,-1.253 4.6661,8.718 2.8423,21.427 -4.8059,33.487 l -7.3783,11.634 8.6775,1.627 c 6.9055,1.296 12.4139,-0.205 26.9792,-7.348 35.82635,-17.571 72.52561,-18.795 95.67889,-3.193 17.56091,11.835 26.51113,34.821 19.12185,49.11 l -3.77042,7.292 14.88024,11.907 c 8.18388,6.548 16.85261,11.906 19.26335,11.906 2.41093,0 11.83993,-4.95 20.95366,-11.002 20.96714,-13.923 29.67703,-16.819 50.57113,-16.819 14.46311,0 18.71762,1.146 30.51411,8.221 29.33824,17.592 36.37831,44.649 20.5519,78.984 -13.08105,28.379 -23.68687,36.765 -46.37143,36.665 -7.37203,-0.04 -21.86265,-2.309 -32.20139,-5.059 -22.25473,-5.917 -40.03226,-6.393 -49.91727,-1.334 -3.9381,2.017 -9.17766,4.266 -11.6436,5 -7.05846,2.106 -7.77169,8.062 -1.91376,15.985 4.10864,5.558 5.4099,11.019 5.4668,22.945 0.1271,26.446 -11.56867,41.976 -36.75673,48.809 -17.47839,4.74 -55.51723,1.508 -77.38993,-6.579 -10.4328,-3.856 -22.3833,-7.149 -26.5565,-7.318 -7.022,-0.284 -7.6816,0.446 -8.8519,9.809 -1.6196,12.955 -4.2877,17.125 -15.175,23.711 -11.5632,6.995 -26.6138,6.768 -49.835,-0.753 z m 40.8639,-17.042 c 8.4435,-3.847 9.0877,-13.538 0.7511,-11.305 -3.1298,0.84 -16.977,1.542 -30.7715,1.561 -13.7945,0.02 -24.3618,0.753 -23.4829,1.631 2.5243,2.525 32.6687,10.67 40.2251,10.869 3.7598,0.09 9.735,-1.142 13.2782,-2.756 z m 132.63529,-26.306 c 11.1489,-3.31 13.88097,-5.341 16.89871,-12.565 8.18351,-19.585 2.50673,-32.487 -10.42827,-23.701 -11.31165,7.684 -41.01598,22.508 -58.05335,28.973 -15.86283,6.017 -15.38064,7.823 2.5291,9.465 23.31775,2.138 36.50654,1.556 49.05381,-2.172 z m -153.80899,-11.225 c 4.3812,0 3.9741,-1.719 -4.2111,-17.78 -11.0258,-21.636 -17.4564,-55.958 -15.2111,-81.19 2.8421,-31.943 17.8221,-69.494 35.34,-88.592 l 8.4895,-9.253 -6.6158,-1.274 c -11.8209,-2.279 -51.6434,0.225 -72.374,4.55 -11.1284,2.322 -28.4755,8.159 -38.5493,12.973 -14.8009,7.073 -21.0511,12.022 -32.568,25.792 -14.3448,17.149 -46.4877,71.654 -46.4906,78.834 -10e-4,3.065 2.619,3.676 12.7402,2.976 18.4648,-1.28 25.1989,0.956 25.1989,8.369 0,8.125 -2.3013,9.2 -20.2228,9.454 -8.3522,0.114 -15.1857,0.943 -15.1857,1.833 0,1.771 39.9179,25.736 51.4504,30.888 6.5586,2.931 7.6152,2.667 12.0349,-2.991 2.6649,-3.412 8.5344,-13.584 13.0437,-22.603 7.6894,-15.384 8.1975,-18.053 8.1858,-42.997 -0.019,-29.993 -3.9586,-41.073 -20.9188,-58.757 -7.2992,-7.611 -8.2537,-9.69 -5.0184,-10.932 10.3357,-3.966 33.9224,18.348 41.1848,38.962 2.2708,6.445 4.7644,21.032 5.5418,32.417 1.6637,24.368 -2.2619,39.509 -16.1645,62.349 -9.0259,14.83 -8.9492,18.238 0.446,19.805 11.3264,1.889 23.7844,-41.799 23.9196,-83.884 0.1081,-33.84 -4.0603,-62.731 -11.1072,-76.971 -3.4382,-6.946 -5.7314,-13.151 -5.0959,-13.787 1.788,-1.786 13.8536,10.306 17.7468,17.788 5.5842,10.73 8.7662,28.705 11.3308,64.004 2.6913,37.044 0.1081,65.01 -7.8738,85.261 -2.6912,6.829 -4.8933,12.897 -4.8933,13.487 0,1.261 42.7015,3.046 47.6288,1.991 1.8525,-0.398 5.5509,-0.722 8.2183,-0.722 z m -138.8038,-96.614 c -1.6693,-1.669 -3.035,-4.945 -3.035,-7.278 0,-10.907 18.2796,-13.518 19.7952,-2.827 1.5141,10.682 -9.5271,17.338 -16.7602,10.105 z m 183.5188,90.762 13.3057,-3.109 -21.275,-10.553 c -11.7013,-5.802 -25.3711,-14.147 -30.3775,-18.543 -11.3113,-9.931 -11.6089,-6.641 -0.8464,9.349 19.7311,29.318 17.3864,27.951 39.1932,22.856 z m 96.71327,-37.46 c 0,-1.149 -2.27208,-5.818 -5.04892,-10.372 -9.73971,-15.974 -4.14012,-62.597 11.18152,-93.102 7.49551,-14.923 10.53867,-12.404 -34.8333,-28.824 -23.93404,-8.661 -33.35545,-11.043 -35.76337,-9.044 -11.2388,9.327 -20.6425,51.03 -16.329,72.415 l 2.6131,12.954 11.3759,-1.282 c 10.86763,-1.224 11.87392,-0.763 22.52204,10.351 17.0129,17.755 20.30873,37.19 10.25414,60.469 -1.54975,3.587 1.40426,2.936 16.06446,-3.538 9.87989,-4.365 17.96343,-8.875 17.96343,-10.027 z m -63.22936,5.374 c 2.78215,-2.783 5.0584,-8.344 5.0584,-12.362 0,-7.172 -12.25461,-27.812 -24.19351,-40.751 -8.3939,-9.095 -11.2149,-18.356 -11.2149,-36.81 0,-19.13 6.1121,-37.075 17.5446,-51.508 l 7.9701,-10.063 -9.5958,-2.493 c -23.6711,-6.149 -25.6564,-5.821 -34.0074,5.598 -16.7596,22.92 -29.015,62.457 -31.6856,102.217 l -1.5704,23.381 21.2462,9.887 c 40.1513,18.682 52.1159,21.237 60.44831,12.904 z m 88.72832,-22.129 c 9.73192,-9.114 10.01228,-9.816 7.16545,-17.925 -4.39241,-12.512 -1.6647,-41.07 5.00206,-52.369 6.21854,-10.539 5.34749,-12.554 -8.66512,-20.035 -8.67214,-4.63 -9.51853,-4.68 -12.42246,-0.708 -5.3416,7.305 -14.94473,52.857 -15.13404,71.788 -0.14416,14.37 0.80276,19.145 4.63767,23.394 6.43743,7.132 7.64802,6.874 19.41644,-4.145 z m 127.91571,-29.58 c 7.46763,-22.144 8.33431,-54.271 1.64459,-60.962 -6.75269,-6.753 -28.73655,-3.429 -44.78488,6.77 -29.47842,18.738 -42.6418,22.15 -52.17095,13.525 -8.30889,-7.519 -11.20239,-1.472 -12.19028,25.475 -0.82723,22.563 0.4359,27.055 6.06128,21.556 3.5667,-3.484 52.58826,1.449 71.9548,7.244 9.04185,2.707 18.04215,4.703 20.00106,4.439 1.97977,-0.267 6.19197,-8.282 9.48438,-18.047 z m 17.1804,-2.278 c 10.47929,-18.739 11.56715,-31.517 3.77175,-44.303 -2.85177,-4.678 -5.71643,-7.973 -6.36592,-7.324 -0.6493,0.648 0.0967,7.132 1.65616,14.408 3.40319,15.868 1.44732,31.513 -5.33364,42.663 -2.74212,4.509 -4.98575,8.741 -4.98575,9.403 0,3.752 3.26206,-0.55 11.2574,-14.847 z m -151.25603,-99.764 c -1.43556,-8.847 -9.01946,-19.072 -17.55939,-23.675 -9.13043,-4.921 -32.55724,-7.024 -51.48902,-4.625 -28.7961,3.652 -29.7535,5.808 -5.48065,12.345 11.57531,3.118 31.85843,10.513 45.07321,16.433 13.21498,5.918 25.57142,10.222 27.45882,9.562 2.40296,-0.84 3.00161,-3.851 1.99703,-10.04 z m -174.46341,-23.214 c 14.9856,-0.08 15.8835,-0.448 22.9818,-9.561 13.2346,-16.992 17.4885,-25.846 13.5787,-28.263 -6.2006,-3.832 -36.2809,0 -48.3444,6.172 -9.1547,4.678 -50.6004,37.612 -50.6004,40.208 0,0.367 10.5277,-1.39 23.3948,-3.905 12.8671,-2.517 30.4124,-4.61 38.9895,-4.651 z" fill="#00B894" transform="translate(-84.914873,-8.2060679) matrix(0.26458333,0,0,0.26458333,420.35136,-3152.4711)"/>
</svg>