<?xml version="1.0" ?><svg height="92.326485mm" viewBox="0 0 95.30249 92.326485" width="95.30249mm" xmlns="http://www.w3.org/2000/svg">
    <path d="m 1845.5123,19537.776 c -1.8661,-34.1 18.1745,-76.889 48.1137,-94.414 29.9392,-17.525 81.5418,-10.807 97.9312,33.662 16.3895,44.469 -13.6308,77.182 -13.6308,77.182 0,0 58.0934,-5.842 71.2374,12.851 13.1441,18.693 40.7303,67.616 40.7303,67.616 0,0 47.7892,-33.004 58.0123,-35.852 10.2231,-2.848 -11.5213,34.976 -11.5213,34.976 0,0 28.641,3.87 29.3712,10.661 0.7303,6.791 -71.1562,30.157 -85.4362,37.167 -14.28,7.01 -66.6127,19.496 -110.7507,15.261 -44.138,-4.235 -97.6067,-37.021 -99.3106,-62.067 -1.7038,-25.045 19.067,-65.352 19.067,-65.352 z" fill="#FFFFFF" transform="translate(-31.282945,-16.426043) matrix(0.26458333,0,0,0.26458333,-450.59749,-5122.0131)"/>
    <path d="m 1967.2354,19764.751 c -3.4763,-4.258 -9.5714,-18.536 -13.5454,-31.723 -6.8826,-22.845 -34.9016,-47.712 -68.1167,-60.458 -25.8635,-9.928 -32.0995,-52.613 -12.3253,-84.367 7.2422,-11.632 6.5458,-13.934 -6.877,-22.732 -8.2151,-5.381 -16.3413,-13.059 -19.2476,-11.264 -21.6596,8.831 -36.4289,-4.713 -16.3319,-19.834 6.1033,-2.344 8.992,-11.906 8.992,-29.768 0,-21.806 3.7065,-30.421 21.6397,-50.271 28.9159,-32.002 58.7248,-41.125 88.3987,-27.043 21.5369,10.22 31.8766,26.491 11.3534,17.864 -22.8577,-9.608 -37.1161,-9.592 -57.4695,0.04 -23.8584,11.322 -38.5155,30.39 -43.8455,57.037 -3.4605,17.305 -7.3455,24.966 13.0275,19.782 22.5857,-5.747 32.436,4.056 17.567,16.397 -13.3797,11.106 -0.5396,17.544 35.2139,17.656 39.2719,0.144 63.9815,-22.965 63.9815,-59.787 0,-13.659 -7.7993,-24.446 -11.2828,-31.648 -5.6003,-11.578 0.1146,-17.646 11.5614,-4.461 23.606,31.474 15.7266,45.177 8.0344,82.799 h 20.5872 c 28.7267,0 49.8506,17.907 64.8106,54.937 9.4434,23.374 14.1412,29.382 17.9839,22.979 9.3239,-15.533 43.032,-36.472 52.7253,-32.754 10.795,4.146 12.5096,22.488 2.9912,32.008 -4.5818,4.581 -1.9931,7.549 8.9921,10.308 10.0317,2.519 15.4253,7.994 15.4253,15.665 0,13.874 -28.9489,27.754 -76.4228,36.642 -50.5215,9.46 -72.764,21.019 -76.5564,39.794 -10.7706,53.309 -22.8779,61.765 -25.69,17.944 -1.6259,-25.33 -3.3743,-28.473 -15.848,-28.473 -13.349,0 -13.7523,1.195 -8.4192,24.935 5.9109,26.305 -0.2203,41.362 -11.307,27.77 z m 79.1514,-82.335 c 1.9216,-3.112 -8.0356,-10.809 -22.1261,-17.115 -14.0905,-6.304 -30.5677,-17.042 -36.617,-23.857 -12.9395,-14.581 -21.1488,-61.281 -10.7724,-61.281 3.7312,0 6.784,3.84 6.784,8.535 0,19.032 50.1315,63.403 71.6381,63.403 17.7327,0 -2.1774,-72.418 -22.9701,-83.547 -17.6422,-9.44 -51.3624,-8.717 -70.85,1.526 -10.5515,5.547 -31.1696,10.083 -45.8176,10.083 -29.9214,0 -33.9092,4.992 -33.9092,42.453 0,29.718 10.6379,30.913 13.1256,1.473 2.6274,-31.094 16.8473,-33.854 16.8473,-3.272 0,28.994 17.3362,52.97 43.8386,60.641 25.5539,7.393 86.4548,8.036 90.8288,0.958 z m 60.1592,-18.325 c 2.0374,-3.299 9.615,-6.038 16.8387,-6.088 7.2242,-0.04 17.1805,-2.968 22.1261,-6.479 6.6805,-4.746 2.4435,-5.476 -16.4851,-2.836 -17.0864,2.382 -25.4773,1.313 -25.4773,-3.246 0,-4.775 -2.6779,-4.577 -8.992,0.664 -4.9456,4.101 -8.9919,11.178 -8.9919,15.718 0,9.515 15.4692,11.182 20.9815,2.267 z m 24.548,-42.891 11.4198,-12.918 -16.4854,10.606 c -16.9984,10.943 -20.2126,15.227 -11.4198,15.227 2.7861,0 10.2045,-5.813 16.4854,-12.915 z m -213.3797,-115.97 c 0,-15.562 14.4433,-21.127 19.4568,-7.492 4.1266,11.218 -1.3649,22.48 -10.9643,22.48 -5.0626,0 -8.4925,-6.054 -8.4925,-14.988 z m -38.7698,3.314 c -5.2707,-8.531 1.4504,-18.299 12.5871,-18.299 5.2521,0 8.2608,4.212 7.1395,9.993 -2.3352,12.042 -14.304,17.081 -19.7266,8.306 z" fill="#00B894" transform="translate(-31.282945,-16.426043) matrix(0.26458333,0,0,0.26458333,-450.59749,-5122.0131)"/>
</svg>