<?xml version="1.0" ?><svg height="88.553131mm" viewBox="0 0 120.37398 88.553131" width="120.37398mm" xmlns="http://www.w3.org/2000/svg">
    <path d="m 6488.209,21880.062 c -0.6548,0.03 -1.3436,0.136 -2.0684,0.323 -11.5961,2.994 -58.3607,89.903 -79.2715,129.679 -20.9108,39.777 -34.123,40.891 -34.123,40.891 0,0 -40.1111,26.003 -52.5625,51.152 0,0 -14.1623,20.958 0.8555,48.245 15.0177,27.288 85.9244,22.925 106.1699,17.023 20.2455,-5.902 33.0769,-38.236 59.8808,-42.256 26.8038,-4.021 36.0235,-24.379 36.0235,-24.379 0,0 53.703,-13.772 53.4179,-25.064 -0.2851,-11.291 -34.7871,-15.227 -34.7871,-15.227 0,0 43.7213,-30.111 39.5391,-38.322 -4.1822,-8.212 -48.1894,-4.022 -48.1894,-4.022 0,0 64.2543,-64.667 76.2304,-77.156 11.9762,-12.489 22.812,-43.027 8.5547,-47.732 -14.2574,-4.704 -37.9245,6.758 -63.3027,40.547 -25.3781,33.788 -71.3828,54.66 -71.3828,54.66 l -6.5586,-17.11 c 0,0 25.7591,-21.641 24.8086,-31.478 -0.9505,-9.837 -16.4434,-6.842 -16.4434,-6.842 0,0 6.7482,-18.136 11.0254,-27.887 4.0099,-9.142 2.0047,-25.502 -7.8164,-25.045 z m -196.2487,65.824 c -7.2399,-0.08 -14.427,0.66 -20.9765,2.044 -29.9404,6.33 -50.946,45.424 -49.3301,68.862 4.4673,29.769 29.276,49.186 70.2422,49.871 40.9662,0.684 53.9864,-42.514 53.1309,-80.238 -0.6683,-29.471 -27.2094,-40.252 -53.0665,-40.539 z" fill="#FFFFFF" transform="translate(-65.775082,-9.1435281) matrix(0.26458333,0,0,0.26458333,-693.1473,-5131.5801) translate(-3313.5291,-2437.8203)"/>
    <path d="m 3150.0588,19751.391 c -23.175,-10.513 -30.5489,-11.294 -53.0787,-5.62 -20.8803,5.259 -32.6395,4.707 -58.2304,-2.735 -35.5888,-10.346 -50.609,-26.26 -50.609,-53.618 0,-35.928 24.3677,-58.453 117.4465,-108.588 66.7735,-35.963 91.3881,-52.563 105.7233,-71.297 39.0439,-51.029 60.0938,-69.382 79.5776,-69.382 37.0199,0 42.6146,24.381 15.4319,67.241 -9.6363,15.197 -26.0708,33.932 -36.5199,41.638 l -18.9987,14.01 16.9642,3.044 c 23.5545,4.225 25.9171,22.826 5.0166,39.493 -16.0731,12.816 -16.1553,13.2 -3.6727,17.165 14.0598,4.46 17.025,22.328 5.2761,31.791 -4.1216,3.318 -16.7662,8.021 -28.0996,10.449 -11.333,2.428 -24.8417,9.643 -30.0201,16.038 -5.5593,6.864 -17.3712,11.85 -28.85,12.177 -10.6896,0.316 -19.4356,1.385 -19.4356,2.408 0,1.02 11.1261,4.851 24.7239,8.509 13.5981,3.664 31.8069,9.443 40.4638,12.841 15.4326,6.057 15.4878,6.276 2.8131,11.154 -7.8894,3.04 -27.4988,1.578 -50.3221,-3.745 -20.5674,-4.802 -38.6457,-7.477 -40.1731,-5.948 -1.5273,1.53 15.0486,10.857 36.8347,20.735 21.7862,9.884 39.6115,19.482 39.6115,21.338 0,8.048 -47.2551,2.07 -71.8733,-9.098 z m -38.6746,-38.294 c 7.4176,-5.609 8.7386,-8.87 3.6437,-8.991 -12.5887,-0.316 -4.3066,-15.164 8.5086,-15.274 9.6773,-0.08 11.4216,-4.422 11.1424,-27.743 -0.1835,-15.521 -4.8481,-34.543 -10.6295,-43.365 -11.007,-16.801 -28.005,-21.225 -28.005,-7.288 0,5.422 -4.1935,7.333 -11.7503,5.359 -24.2734,-6.348 -78.1695,43.229 -78.1695,71.91 0,5.138 7.1078,14.935 15.7953,21.769 19.184,15.088 71.5021,17.211 89.4643,3.623 z m 71.0924,-36.799 c 5.2155,-2.001 9.4821,-7.347 9.4821,-11.875 0,-4.532 7.4184,-9.871 16.4855,-11.872 9.0671,-2.002 23.2295,-6.016 31.472,-8.93 12.3472,-4.361 10.3141,-5.084 -11.5399,-4.122 -35.593,1.572 -36.9324,-8.561 -3.7057,-28.032 14.9793,-8.778 27.235,-17.289 27.235,-18.911 0,-1.624 -13.4881,-1.164 -29.9735,1.024 -18.9371,2.51 -29.9734,1.731 -29.9734,-2.127 0,-3.353 17.1099,-20.559 38.0218,-38.237 37.6206,-31.8 69.882,-69.908 69.882,-82.551 0,-13.785 -18.1859,-5.602 -34.2137,15.399 -40.6959,53.317 -64.8726,74.934 -106.0598,94.829 -23.4098,11.307 -39.1515,20.686 -34.9819,20.834 11.7703,0.449 31.3366,37.069 31.3617,58.727 0,19.729 6.4185,23.554 26.5078,15.844 z m -243.5356,-36.82 c -4.9457,-1.793 -17.0848,-10.768 -26.976,-19.939 -9.8912,-9.173 -18.9105,-25.022 -18.9105,-25.022 -31.6853,-0.221 -32.7129,-21.453 -3.9847,-22.508 0,0 2.0126,-2.255 4.2306,-13.346 5.3552,-26.773 40.0282,-58.853 63.6173,-58.853 13.4289,0 24.0413,-5.206 35.4145,-17.381 17.0734,-18.281 54.9193,-32.344 70.7168,-26.279 6.2307,2.387 -2.8539,9.101 -27.4227,20.25 -20.2064,9.171 -36.7391,19.212 -36.7391,22.305 0,3.125 12.0008,4.275 26.976,2.589 27.7797,-3.133 38.104,6.168 14.9915,13.503 -9.5734,3.038 -10.7796,6.055 -5.9945,14.997 9.678,18.084 6.8527,55.45 -5.7566,76.131 -18.5272,30.384 -58.1871,45.144 -90.1626,33.553 z m 66.402,-37.298 c 13.5555,-13.556 17.5227,-22.978 17.5227,-41.619 0,-28.317 -15.681,-38.026 -45.4002,-44.181 -43.5554,-9.021 -66.4207,54.689 -59.9982,56.189 11.2827,2.636 14.9074,17.85 3.0564,20.224 0,0 8.8381,26.108 47.3525,26.72 14.211,0.226 24.9796,-4.844 37.4668,-17.333 z m -56.547,-49.682 c 0.4452,-6.665 4.2807,-13.516 10.1366,-13.371 5.436,0.135 7.3195,1.165 5.995,7.999 -1.1393,5.875 -5.7011,11.891 -10.1371,13.371 -5.1593,1.716 -6.4584,-1.053 -5.9945,-7.999 z m 140.9023,12.042 c 7.0489,-10.716 24.6718,-44.455 39.1629,-74.975 27.1884,-57.259 38.3859,-68.454 54.8192,-54.819 7.0101,5.818 8.7814,14.774 6.6544,33.644 -1.5939,14.139 -0.5313,25.713 2.3603,25.713 2.8924,0 5.2586,5.157 5.2586,11.455 0,12.629 -31.9234,42.497 -45.4199,42.497 -13.862,0 -9.8103,-10.687 9.452,-24.926 20.2103,-14.946 24.416,-26.895 5.9945,-17.035 -15.3489,8.214 -15.4272,0.517 -0.2564,-25.197 7.9256,-13.433 9.9578,-22.758 6.2627,-28.737 -4.1018,-6.636 -11.393,3.965 -29.1346,42.37 -23.4448,50.745 -50.2508,89.492 -61.9169,89.492 -3.3279,0 -0.2833,-8.767 6.7647,-19.482 z" fill="#00B894" transform="translate(-65.775082,-9.1435281) matrix(0.26458333,0,0,0.26458333,-693.1473,-5131.5801)"/>
</svg>