<?xml version="1.0" ?><svg height="88.42881mm" viewBox="0 0 83.372528 88.42881" width="83.372528mm" xmlns="http://www.w3.org/2000/svg">
    <path d="m 3170.9062,7939.916 c -8.2064,0.015 -18.2169,7.6468 -23.0917,15.0059 -5.6727,8.5636 -11.2078,32.3208 8.6464,43.6836 14.4561,4.6526 19.5343,-8.9341 26.625,-21.2032 7.0908,-12.2687 0.32,-33.7189 -8.3261,-36.8476 -1.2159,-0.44 -2.5107,-0.6412 -3.8536,-0.6387 z m -81.9902,9.1992 c -0.6248,0 -1.258,0.039 -1.8984,0.127 -10.2473,1.3999 -17.338,6.9162 -19.7168,28.6953 -2.3789,21.7795 8.509,29.6837 24.4746,31.248 18.253,-2.7171 15.8278,-24.6206 14.8672,-37.7949 -0.9007,-12.3512 -8.3548,-22.2408 -17.7266,-22.2754 z m 145.0508,18.5899 c -4.4111,0.022 -8.3909,3.9917 -16.7539,15.1308 -8.0515,13.9159 -2.7001,25.6906 8.8281,32.6895 11.5282,6.9989 16.0122,-6.1741 22.9199,-18.0313 6.9078,-11.8571 6.6782,-19.7211 -4.7129,-25.8144 -4.4495,-2.3802 -7.4536,-3.9889 -10.2812,-3.9746 z m -201.0625,42.2773 c -0.3005,0 -0.6068,0.01 -0.9199,0.027 -10.0186,0.6999 -18.9863,5.8452 -22.2344,18.4023 -3.248,12.5571 -3.2475,25.815 14.5938,29.7676 11.8027,-2.8819 16.8353,-12.9701 19.0312,-24.4981 2.1272,-11.1673 -1.1552,-23.5712 -10.4707,-23.6992 z m 252.6758,2.3281 c -4.514,0.1062 -5.6378,2.9167 -9.7207,10.9141 -5.4438,10.6632 -10.5661,21.9861 2.5176,29.8086 15.4623,3.4171 13.6765,-8.7288 17.748,-17.498 4.0714,-8.7693 5.3068,-20.6276 -4.666,-22.5215 -2.4932,-0.4735 -4.3743,-0.7385 -5.8789,-0.7032 z m -129.6992,26.3379 c -27.7771,0.1749 -59.3888,8.8796 -85.8594,29.6758 -47.0588,36.9712 -51.3448,76.4577 -30.8867,112 13.744,23.8779 46.9751,26.4171 82.2988,9.793 46.8346,-22.0415 52.5158,0.2937 91.9102,1.9492 39.3945,1.6554 52.2707,-34.763 53.3437,-63.457 1.073,-28.6941 -28.0515,-57.1133 -57.1758,-76.5645 -12.7419,-8.5099 -32.0265,-13.5325 -53.6308,-13.3965 z" fill="#FFFFFF" transform="translate(10.590962,-26.348007) translate(721.77825,-728.63373) matrix(0.26458333,0,0,0.26458333,-1524.344,-1328.9457)"/>
    <path d="m -720.82051,839.66917 c -11.473,-9.40487 -4.68996,-29.26152 13.70136,-40.10855 9.43384,-5.56382 14.4926,-6.4276 23.52137,-4.01637 9.91599,2.64828 14.3747,5.25297 20.61867,12.04458 4.68845,5.09931 5.53637,6.5921 6.38327,11.23874 1.69935,9.3225 -1.58725,16.73908 -9.34114,21.0789 -4.77032,2.66994 -9.35171,2.943 -16.95269,1.00988 -6.03212,-1.5341 -7.49972,-1.56836 -12.56275,-0.29296 -11.75514,2.96089 -13.44165,3.18786 -17.8064,2.39461 -3.09491,-0.56251 -5.41747,-1.59103 -7.56169,-3.34883 z m 19.46293,-5.96032 c 8.96555,-1.96561 9.48422,-1.96687 18.80949,-0.0479 10.56968,2.17595 12.64361,1.96662 16.3907,-1.6535 5.42351,-5.24013 4.59247,-13.1046 -2.15329,-20.37508 -5.31141,-5.72454 -8.48919,-7.66975 -15.40197,-9.42779 -8.12796,-2.06688 -11.67579,-1.59179 -18.50367,2.47798 -13.48951,8.04056 -20.71565,23.49492 -13.46734,28.80155 3.05888,2.23918 4.99729,2.26966 14.32608,0.2242 z m -28.23173,-27.78284 c -4.85724,-4.7076 -3.15134,-12.78141 3.57352,-16.91391 3.06694,-1.88475 4.1189,-2.08879 5.89734,-1.14364 4.10278,2.17948 4.89678,4.82851 3.31331,11.0551 -1.388,6.76893 -8.22973,11.28357 -12.78417,7.00245 z m 7.01378,-6.65457 c 1.80415,-2.80975 1.21217,-6.90875 -1.01794,-7.04679 -1.91599,-0.1184 -3.73475,4.33604 -2.99364,7.3332 0.64941,2.62712 2.21273,2.51552 4.01158,-0.28641 z m 9.27363,-7.83399 c -3.35235,-3.93098 -3.08558,-12.57056 0.52724,-17.06958 1.53863,-1.91599 6.18225,-3.66572 8.29976,-3.12715 2.17369,0.55268 5.03382,5.11165 5.76409,9.18773 0.94036,5.24869 -0.063,8.77334 -3.32918,11.69796 -2.21475,1.98299 -3.34605,2.31248 -6.1893,1.80288 -2.13288,-0.38239 -4.09597,-1.34669 -5.07261,-2.49184 z m 8.79249,-6.60923 c 0.75571,-2.97198 -0.17885,-7.70955 -1.73966,-8.8129 -2.73997,-1.9374 -5.30738,3.2657 -4.12444,8.35922 1.1429,4.92071 4.65873,5.19276 5.8641,0.45368 z m 42.68629,18.02001 c -2.02431,-3.4055 -1.12425,-7.72743 2.45885,-11.80653 4.35518,-4.29422 6.38553,-3.93903 9.02247,0.45444 3.65565,6.14925 -0.58316,14.27898 -7.37955,14.15277 -1.90012,-0.0353 -2.83847,-0.67561 -4.10177,-2.80068 z m 7.46797,-6.78279 c 1.10184,-3.04225 -0.15366,-3.9942 -1.67819,-1.27313 -1.57768,2.81479 -1.72303,4.10354 -0.45317,4.01688 0.6416,-0.0428 1.6006,-1.27867 2.13136,-2.74375 z m -75.38632,-12.85093 c -0.6814,-2.75684 1.18119,-9.21014 3.11279,-10.78455 1.50942,-1.2303 1.75981,-1.19932 2.68833,0.33453 1.38195,2.28201 0.26954,10.53618 -1.60362,11.89923 -1.9364,1.40891 -3.636,0.82222 -4.1975,-1.44921 z m 35.97379,5.34669 c -4.63001,-4.54764 -1.34215,-16.63983 5.1978,-19.11606 8.79098,-3.32892 13.54014,7.44329 7.22967,16.39876 -3.66244,5.19755 -8.76629,6.31349 -12.42747,2.7173 z m 8.54184,-7.41054 c 1.79407,-2.81277 1.77366,-4.09648 -0.20404,-6.81504 -0.88444,-1.21544 -1.2696,-1.11669 -2.5062,0.64387 -3.12211,4.44461 -3.44002,10.94779 -0.42446,9.51445 0.79123,-0.3761 2.2019,-1.88072 3.13495,-3.34328 z m 8.5562,2.38806 c 1.87014,-5.29454 4.55646,-8.74136 10.45129,-7.8748 3.18029,0.46602 3.77857,2.95056 4.81415,5.28546 2.33037,5.25373 -2.11449,13.34567 -7.68209,13.98501 -5.68197,1.02626 -9.00359,-7.37477 -7.58335,-11.39567 z m 9.11191,3.90754 c 1.98022,-2.81881 2.64248,-3.77303 0.51942,-5.47767 -1.69657,-1.36255 -2.83871,-0.28918 -3.60274,1.025 -1.16556,2.00517 -0.95195,5.19932 0.4693,5.5608 0.46879,0.1184 1.84319,0 2.61402,-1.10813 z m 12.58718,-2.68933 c -0.27835,-3.69923 0.76403,-7.88639 3.0813,-7.63574 1.47339,0.1587 1.66434,2.10844 2.07368,3.74053 1.52831,6.09333 -4.77788,8.90937 -5.15498,3.89521 z m -58.30692,-19.02185 c -0.44083,-2.07922 -0.29875,-6.51829 1.6122,-6.74374 3.41961,-0.40305 6.36463,8.98066 3.26418,10.82385 -1.70842,1.01568 -3.72492,1.35474 -4.21613,-0.96404 z m 45.33256,5.19 c -0.42572,-0.89552 -0.44965,-3.08558 -0.0529,-4.8668 0.59399,-2.6707 1.16052,-4.70055 2.7115,-4.53353 3.46697,0.37332 3.02563,11.32791 -0.44688,11.11631 -0.79047,-0.0479 -1.78575,-0.82046 -2.21147,-1.71598 z m -22.53919,-6.73694 c -0.4955,-3.84886 1.08445,-11.44253 3.81888,-8.57333 1.84067,1.93135 2.76465,8.69147 0.89678,9.78323 -2.17193,1.26934 -4.38693,1.34315 -4.71566,-1.2099 z" fill="#00B894" transform="translate(10.590962,-26.348007) translate(721.77825,-728.63373)"/>
</svg>