<?xml version="1.0" ?><svg height="152.32037mm" viewBox="0 0 182.5367 152.32037" width="182.5367mm" xmlns="http://www.w3.org/2000/svg">
    <path d="m -7639.2599,112.0534 c 8.3011,-19.5257 20.1868,-41.5982 65.1825,-37.2686 44.9957,4.3296 89.7083,26.9963 93.2929,92.1951 3.5846,65.1988 -47.4482,163.3365 -47.4482,163.3365 0,0 -4.811,23.7703 -3.0186,47.1162 1.7923,23.3459 -14.2962,19.74231 -14.2962,19.74231 l -12.871,-27.29791 -24.9977,23.6855 c 0,0 -1.2263,49.5782 -20.7527,72.4997 -19.5264,22.9214 -61.0319,37.4383 -61.0319,37.4383 l 12.1687,-64.3498 c 0,0 -57.2587,47.2861 -131.4969,59.1713 -74.2382,11.8851 -205.735,1.9525 -205.735,1.9525 0,0 -7.7291,67.5424 -31.7428,97.5498 -24.0137,30.0073 -30.8055,19.9499 -30.8055,19.9499 0,0 -29.0538,-39.7305 -30.2801,-54.5021 -1.2263,-14.7715 7.1691,-48.899 7.1691,-48.899 0,0 -38.2039,-25.3833 -53.2025,-41.0888 -14.9985,-15.7054 -21.696,-24.025 22.1677,-30.3072 43.8638,-6.2822 82.0389,14.79353 82.0389,14.79353 0,0 0.689,25.36137 83.5113,-4.01203 82.8223,-29.3733 121.262,-61.5886 136.6379,-75.7659 15.3759,-14.1773 69.4273,-74.7918 69.4273,-74.7918 0,0 -40.8451,-7.216 -63.6731,-18.7616 -22.828,-11.5456 -25.8466,-32.5145 -25.8466,-32.5145 0,0 47.92,-8.0649 70.8423,-5.8577 22.9223,2.2073 46.4106,11.6305 46.4106,11.6305 0,0 25.2806,-27.1661 27.7332,-37.3534 2.4526,-10.1873 7.4521,-57.9828 7.4521,-57.9828 0,0 -34.8079,-25.638 -29.0538,-44.7392 5.7542,-19.1012 15.7532,-16.9788 15.7532,-16.9788 z" fill="#FFFFFF" transform="translate(-73.377319,-60.579407) matrix(0.26458333,0,0,0.26458333,2232.2758,45.182331)"/>
    <path d="m -8072.7878,618.78891 c 0,-9.4376 -3.1518,-18.80169 -9.4444,-28.05431 -16.2204,-23.85085 -17.814,-39.29893 -6.8132,-66.06884 1.8052,-4.39113 -0.3536,-6.3072 -9.0564,-8.04841 -6.829,-1.36571 -15.8863,-7.47123 -22.5139,-15.1755 -6.0976,-7.08987 -18.0739,-20.30856 -26.6161,-29.37473 -19.2628,-20.44814 -17.5597,-24.31721 15.813,-35.93799 49.0121,-17.0665 93.394,-10.52171 116.7321,17.21501 10.5942,17.42075 25.3283,6.3625 42.4059,1.8136 66.261,-17.65019 135.2079,-58.51612 188.713,-111.85678 l 33.9221,-33.81504 -20.3876,-2.74895 c -11.2096,-1.51197 -26.8222,-6.03313 -34.6897,-10.04717 -15.8242,-8.07273 -32.4038,-29.52852 -32.4038,-41.93521 0,-18.20018 40.4801,-24.19479 91.0506,-13.48319 13.7461,2.91146 27.728,5.2938 31.0701,5.2938 3.3449,0 11.3785,-7.63225 17.8558,-16.96042 9.8072,-14.12563 12.0727,-21.13791 13.5614,-41.95479 1.7467,-24.46255 1.5481,-25.20271 -9.3803,-34.79679 -21.5608,-18.93209 -24.3776,-43.2054 -6.3817,-54.996947 8.5506,-5.60314 10.3799,-5.57743 29.4014,0.41431 11.153,3.513797 22.2884,7.157337 24.7441,8.096767 2.8521,1.09182 4.4642,-1.58882 4.4642,-7.428627 0,-12.44474 22.2568,-33.46246 40.6945,-38.42688 27.5266,-7.41229 70.6305,3.57079 94.6275,24.11099 22.6643,19.398637 33.3811,43.403367 35.3524,79.179957 2.0882,37.92988 -4.7723,64.98602 -29.1369,114.8978 -17.6284,36.11841 -18.3003,38.60303 -18.3245,67.84179 -0.028,38.41667 -8.8615,58.91512 -25.3715,58.91512 -8.6091,0 -10.9395,-1.96322 -13.7777,-11.60462 -1.8803,-6.38238 -4.4966,-11.60444 -5.8118,-11.60444 -7.0879,0 -12.2268,13.93694 -12.5163,33.94544 -0.2144,15.00946 -2.8623,27.38543 -8.2128,38.43728 -15.8084,32.65779 -69.0063,68.97565 -88.2152,60.22411 -12.3188,-5.61224 -11.3517,-18.97654 4.001,-55.44067 1.885,-4.47568 -5.9556,-0.56614 -23.3167,11.62606 -56.8426,39.91927 -150.8659,55.99187 -242.7842,41.50113 -18.6549,-2.94125 -36.8615,-5.74338 -40.456,-6.22729 -5.2327,-0.70462 -6.7752,1.96962 -7.7283,13.40226 -5.241,62.69157 -25.8164,93.07962 -62.7436,108.47893 -5.5947,2.33311 -13.5234,3.75316 -16.9592,5.17139 -5.3348,2.20155 -11.3673,-2.48451 -11.3673,-14.57815 z m 50.7774,-36.96465 c 3.4915,-4.7014 9.7739,-24.61607 13.9624,-44.25435 4.1885,-19.63828 8.2239,-37.89118 8.9692,-40.56161 1.1054,-3.97172 9.3079,-4.29656 45.0538,-1.78548 118.8612,8.35069 201.8243,-6.25541 268.1975,-47.21685 25.0226,-15.44093 27.2324,-17.76054 27.2324,-28.57359 0,-14.21482 6.4429,-19.28829 13.0389,-10.2676 7.1288,9.74991 5.7496,28.91885 -4.0864,56.79691 -4.8122,13.63903 -8.0151,25.53164 -7.1214,26.4281 0.8975,0.89663 10.573,-4.30612 21.4986,-11.56147 32.4121,-21.51927 49.9199,-56.29611 41.7498,-82.92003 -2.5412,-8.27654 -2.5495,-12.08937 -0.028,-12.08937 4.6118,0 29.5564,-28.02081 44.2315,-49.68653 13.8585,-20.45556 45.8251,-95.46361 53.5701,-125.68671 17.9235,-69.97003 -19.8781,-127.088987 -85.1079,-128.592607 -20.1519,-0.4647 -31.0859,3.40373 -44.7141,15.81524 -9.6458,8.784957 -10.2212,13.134327 -1.7857,13.440137 4.7287,0.17132 4.4932,4.46267 -1.674,6.93847 -5.4071,2.17158 -16.9168,-1.96719 -33.7851,-5.51541 -40.4049,-8.49957 -37.1751,-1.31522 9.9001,22.02832 13.928,6.90592 32.0047,13.45239 40.1692,14.54773 16.6891,2.23822 19.3593,6.92411 5.8758,10.30825 -15.3555,3.85358 -39.3256,-1.92043 -60.2301,-14.50754 -11.0333,-6.64484 -20.0628,-11.25018 -20.0628,-10.23363 0,1.01637 7.6234,10.77351 16.9462,21.68215 11.9725,14.01537 14.8385,19.16587 9.7636,17.55589 -6.802,-2.15895 -7.1742,-0.71658 -7.1232,27.49189 0.056,29.85492 -4.4725,43.0259 -13.5994,39.57782 -2.3834,-0.90063 -9.9725,9.62349 -17.5319,24.31369 -55.3641,107.59094 -179.6055,197.57624 -291.9941,211.48636 -20.6447,2.55507 -39.9743,-2.07756 -38.3724,-9.19583 0.5031,-2.24619 -6.1654,-7.90529 -14.8199,-12.57569 -20.8619,-11.25705 -46.2724,-11.11431 -81.4048,0.45746 -2.4827,0.81775 3.0497,9.05011 13.0658,19.44347 12.3076,12.76874 20.1408,18.02533 26.8602,18.02533 21.9209,0 29.6074,15.29578 17.9393,35.70633 -8.326,14.56379 -6.4002,32.18697 5.4201,49.63298 5.8564,8.64212 10.6472,18.89014 10.6472,22.77397 0,6.6609 0.6534,6.55834 11.502,-1.80822 6.326,-4.8782 14.3596,-12.71622 17.8511,-17.41798 z m 472.9138,-401.91056 c -4.8308,-4.82975 -2.169,-15.33476 4.8345,-19.08253 8.5608,-4.58204 14.2092,-1.92785 14.2092,6.67714 0,10.75226 -12.5331,18.91631 -19.0437,12.40539 z m -25.6862,-19.20012 c -3.6075,-5.83879 5.2348,-15.26374 10.7026,-19.06696 8.3119,-5.78154 12.9415,1.39128 12.9291,2.84901 -0.029,3.33918 -0.6231,11.67238 -4.6102,15.6609 -5.2763,5.27506 -15.9124,5.58681 -19.0215,0.55705 z m 40.4049,192.96988 c -0.9967,-8.62513 -1.3049,-8.48731 -9.1213,4.0831 -6.8903,11.07996 -7.4935,14.52192 -4.0707,23.20896 l 4.0224,10.19939 5.099,-14.28239 c 2.8038,-7.85527 4.6349,-18.2994 4.0706,-23.20906 z m -194.353,-75.27051 c 5.6104,-7.92962 9.6272,-14.81901 8.9256,-15.30961 -0.7017,-0.49032 -12.9536,-2.80537 -27.2296,-5.14438 -29.7411,-4.87356 -68.6685,-5.63887 -68.6685,-1.34983 0,4.19901 18.4006,20.56397 26.7804,23.81715 5.642,2.19005 39.5344,10.70808 48.2029,12.1148 0.9828,0.15806 6.376,-6.19842 11.9892,-14.12813 z" fill="#00B894" transform="translate(-73.377319,-60.579407) matrix(0.26458333,0,0,0.26458333,2232.2758,45.182331)"/>
</svg>