<?xml version="1.0" ?><svg height="38.134247mm" viewBox="0 0 53.110634 38.134247" width="53.110634mm" xmlns="http://www.w3.org/2000/svg">
    <path d="m 148.6641,131.2359 c -1.2304,-1.2421 -4.0144,-5.3079 -6.1861,-9.0348 -2.172,-3.7269 -4.1945,-6.772 -4.4938,-6.7666 -0.2994,0 -0.6312,3.0058 -0.7376,6.6681 -0.1821,6.2601 -1.4163,9.6151 -2.9671,8.0643 -0.3765,-0.3765 -1.1747,-4.1862 -1.7737,-8.466 -1.0107,-7.2211 -1.2697,-7.8011 -3.5988,-8.0517 -2.1707,-0.2334 -2.8286,0.4715 -4.8709,5.2217 -2.3757,5.5253 -8.4979,13.5884 -9.5454,12.5719 -0.3095,-0.3005 1.6781,-5.6972 4.417,-11.9925 2.7389,-6.2955 4.9798,-11.6304 4.9798,-11.8552 0,-0.2248 -1.5892,0.9866 -3.5316,2.692 -5.8304,5.1192 -11.5262,5.4795 -11.5262,0.7293 0,-1.3992 1.3013,-3.7653 3.0115,-5.4755 1.6564,-1.6564 3.0115,-3.2298 3.0115,-3.4962 0,-0.2674 -2.1103,-1.8823 -4.6892,-3.5909 -4.1666,-2.7599 -4.4059,-3.1062 -2.1459,-3.1062 1.3988,0 4.2491,1.3554 6.3331,3.0115 2.0845,1.6564 4.641,3.0118 5.681,3.0118 1.0461,0 2.4051,1.128 3.0414,2.5241 0.7052,1.5474 1.765,2.3604 2.7389,2.1009 6.4656,-1.7211 7.1642,-1.6511 9.7964,0.9812 2.4925,2.4924 2.8627,2.5715 6.4701,1.3809 3.2548,-1.0742 4.4833,-1.0118 8.2264,0.4178 5.0393,1.9244 8.2852,5.0017 9.2104,8.7315 0.9154,3.691 -1.4593,5.3233 -6.8591,4.7146 -4.1191,-0.4642 -4.3197,-0.368 -3.8922,1.8672 0.2475,1.2962 1.9797,3.3021 3.849,4.4572 1.8692,1.1553 3.3985,2.7414 3.3985,3.5245 0,2.2458 -4.8415,1.6957 -7.3474,-0.8349 z" fill="#00B894" transform="translate(-106.5964,-95.3476)"/>
</svg>