<?xml version="1.0" ?><svg height="124.3342mm" viewBox="0 0 257.19791 124.3342" width="257.19791mm" xmlns="http://www.w3.org/2000/svg">
    <path d="m -793.3822,17222.369 c 9.7952,-53.026 58.771,-123.147 112.6444,-130.493 53.8734,-7.346 154.4964,13.089 207.4794,6.544 52.983,-6.544 158.652,-22.973 194.1224,-14.158 35.4703,8.816 81.394,45.379 89.1953,66.917 7.8013,21.537 32.3537,48.484 32.3537,48.484 l 19.207,-30.273 c 0,0 -35.8291,-15.941 -23.8077,-34.907 12.0213,-18.966 14.8411,-26.98 27.7529,-1.336 12.9119,25.645 19.4419,34.594 19.4419,34.594 0,0 38.7355,-20.836 78.0645,-18.833 39.3291,2.003 72.3338,2.374 72.3338,2.374 0,0 32.7417,-37.101 47.5828,-41.375 14.8412,-4.274 28.6433,24.175 16.1768,30.854 -12.4665,6.678 -47.7885,18.164 -47.7885,18.164 0,0 42.2973,17.23 48.9758,39.135 6.6786,21.905 16.7707,83.879 7.2722,104.849 -9.4984,20.969 -20.0355,47.549 -20.0355,47.549 0,0 29.3854,45.546 10.6856,62.108 -18.6998,16.562 -51.202,12.421 -105.3722,22.038 -54.1702,9.617 -76.1352,31.121 -100.4747,20.435 -24.3395,-10.685 -41.11,-41.538 -41.11,-59.436 0,-17.898 -20.0355,-52.625 -20.0355,-52.625 0,0 -37.8451,50.488 -64.4107,59.57 -26.5656,9.083 -81.7748,35.662 -185.2176,32.189 -103.4429,-3.472 -207.0342,5.877 -267.7345,-27.113 -60.7003,-32.991 -112.9412,-114.332 -107.3016,-185.255 z" fill="#FFFFFF" transform="translate(-120.86533,-146.47573) matrix(0.26458333,0,0,0.26458333,345.82873,-4370.016)"/>
    <path d="m -365.30667,17539.438 c -6.4642,-2.391 -8.0178,-8.112 -10.3813,-38.219 -1.152,-14.674 -2.6683,-33.078 -3.3699,-40.9 l -1.2754,-14.221 -61.344,-1.406 c -62.0719,-1.425 -119.6559,-3.955 -145.7392,-6.404 l -14.2711,-1.341 1.0289,32.243 c 0.8885,27.844 0.5741,32.935 -2.3045,37.329 -4.1367,6.312 -11.6784,6.667 -17.5236,0.822 -4.0833,-4.083 -4.2327,-5.724 -3.5061,-38.495 l 0.7588,-34.231 -24.0425,-5.489 c -28.95119,-6.61 -27.57189,-6.496 -26.23239,-2.17 0.5971,1.928 2.4516,23.739 4.121,48.468 2.7095,40.135 2.7099,45.46 0,49.588 -3.7181,5.676 -12.9221,6.191 -17.6304,0.987 -4.4394,-4.904 -4.8922,-8.264 -8.3848,-62.211 -1.6671,-25.748 -3.6933,-47.979 -4.5026,-49.402 -0.8095,-1.423 -6.6043,-6.051 -12.8776,-10.286 -36.4533,-24.606 -63.5578,-59.475 -76.84521,-98.859 -4.2596,-12.626 -6.9165,-16.719 -6.9165,-10.657 0,2.291 -3.4925,18.024 -7.7611,34.961 -4.2684,16.936 -8.3865,35.354 -9.1512,40.929 -1.27773,9.313 -1.01413,10.307 3.2531,12.262 5.495,2.518 21.6734,31.781 21.6734,39.204 0,5.903 -4.2308,10.081 -8.5346,8.43 -1.6675,-0.64 -5.0487,-7.192 -7.514,-14.561 -2.4653,-7.367 -5.7239,-15.65 -7.2416,-18.406 -2.47793,-4.497 -2.72343,-2.951 -2.40613,15.15 0.3811,21.73 -0.4566,24.922 -6.5415,24.922 -4.5289,0 -5.4792,-1.883 -7.735,-15.328 -1.177,-7.014 -1.699,-8.045 -1.8772,-3.707 -0.6628,16.143 -7.4137,26.773 -15.1232,23.815 -4.9074,-1.883 -5.9611,-10.109 -3.403,-26.564 2.5667,-16.51 10.2889,-35.541 16.0614,-39.585 2.1232,-1.486 4.1976,-6.208 4.9113,-11.175 0.6795,-4.729 7.2097,-28.886 14.51163,-53.68 12.523,-42.522 13.3248,-46.47 14.1322,-69.578 2.1327,-61.036 20.77561,-104.511 55.25051,-128.841 34.92,-24.643 51.8798,-29.665 107.77899,-31.913 22.59,-0.909 43.7775,-1.315 47.0833,-0.902 65.9178,8.241 93.4743,8.436 142.2517,1.013 48.0333,-7.312 85.8857,-10.631 123.2181,-10.804 32.0313,-0.15 39.503,0.434 55.0113,4.299 25.8904,6.451 41.581,14.867 59.4305,31.875 26.1278,24.896 41.83527,44.711 45.81225,68.907 0.91233,14.497 -6.20861,14.867 -13.64061,5.155 -19.11316,-37.211 -61.05384,-68.477 -72.48234,-73.894 -20.3517,-9.647 -37.6257,-12.478 -74.1311,-12.151 -37.3954,0.337 -60.5919,2.34 -115.204,9.946 -48.2326,6.719 -89.6428,7.204 -122.2161,1.434 -17.0699,-3.023 -31.2998,-3.905 -63.1117,-3.91 -50.11729,-0.01 -63.55849,2.531 -87.86289,16.594 -36.7759,21.279 -49.0436,37.972 -64.3649,87.584 -7.63851,24.734 -9.37061,46.434 -5.04221,63.17 8.02801,31.042 29.53241,66.377 55.66201,91.463 9.3031,8.93 18.7058,17.196 20.895,18.368 3.6351,1.946 4.1843,1.226 6.3322,-8.299 3.1875,-14.134 5.1701,-17.042 9.7092,-14.241 3.3481,2.068 6.4834,11.801 9.506,29.51 1.6198,9.489 5.5693,11.366 41.07819,19.516 33.7975,7.758 86.535,11.58 182.577,13.228 l 75.3247,1.294 1.3936,-13.601 c 1.775,-17.325 5.911,-27.65 10.7072,-26.729 2.8466,0.547 4.0016,4.156 5.8699,18.341 1.2792,9.714 2.8954,18.231 3.5915,18.926 3.2113,3.212 62.6881,-4.401 85.0793,-10.891 29.3006,-8.49 41.3313,-16.238 70.5905,-45.46 l 26.1685,-26.134 -3.2175,-25.386 c -7.943,-62.675 -0.3095,-96.406 28.5231,-126.042 l 13.3394,-13.708 -8.0142,-2.067 c -9.803,-2.526 -20.3663,-12.452 -25.4836,-23.949 -3.1521,-7.081 -3.44,-9.764 -1.6352,-15.232 4.5119,-13.672 20.7869,-22.842 34.1504,-19.244 10.7088,2.884 17.3758,12.186 21.5839,30.117 4.6509,19.817 7.472,21.515 24.396003,14.678 16.9657,-6.852 42.0809,-14.028 58.1853,-16.624 18.2761,-2.947 34.0269999,-2.64 53.6781,1.041 l 16.9247,3.172 6.1511,-7.68 c 10.2743,-12.826 23.981999,-25.06 32.439499,-28.95 21.7827,-10.018 39.726798,1.3 39.806598,25.106 0.03,8.919 -0.6802,10.463 -7.5348,16.388 -4.1769,3.611 -11.969998,7.67 -17.392998,9.06 l -9.8254,2.518 11.7532,11.219 c 22.451898,21.43 31.005058,46.024 31.028558,89.215 0.019,31.327 -5.17036,59.134 -13.85676,74.278 l -4.6811,8.161 4.8853,10.207 c 2.6869,5.614 6.2902,15.691 8.0072,22.393 2.83716,11.076 2.83106,13.319 -0.071,24.643 -4.1192,16.079 -8.3271,23.08 -18.566998,30.891 -9.7204,7.414 -33.5658,15.741 -53.944899,18.84 -13.9788,2.125 -16.3506,1.97 -53.0865001,-3.479 -5.5390999,-0.822 -13.7583999,1.165 -33.4458999,8.085 -32.9407,11.575 -40.8273,12.623 -63.293403,8.414 -28.3246,-5.307 -43.2388,-15.091 -51.1931,-33.581 -3.8214,-8.884 -4.3419,-12.774 -3.3909,-25.35 0.9864,-13.04 0.5401,-15.982 -3.654,-24.081 -2.6277,-5.075 -5.8242,-11.932 -7.1034,-15.237 l -2.3256,-6.011 -3.8408,8.843 c -2.3371,5.381 -10.6812,15.658 -21.3147,26.252 -14.5245,14.47 -20.6868,18.984 -36.5077,26.742 -10.4684,5.133 -26.9255,11.345 -36.571,13.805 l -17.5374,4.469 1.2283,15.042 c 1.4468,17.716 -2.2086,57.831 -6.1233,67.202 -2.9482,7.055 -8.6357,10.008 -15.2425,7.91 -6.5984,-2.095 -8.201,-9.575 -5.9306,-27.682 2.3695,-18.898 2.735,-59.438 0.5356,-59.43 -3.4895,0.01 -37.7583,4.27 -39.8189,4.946 -1.6424,0.54 -1.5083,5.26 0.4947,17.428 3.3141,20.134 5.8356,63.234 4.103,70.137 -1.5395,6.134 -8.7279,9.725 -14.8966,7.443 z m 317.090303,-111.922 c 24.2734,-9.34 18.6014,-8.957 71.6162,-4.835 17.2546,1.34 35.947199,-2.248 51.480899,-9.885 23.8519,-11.726 23.6164,-34.188 -0.7235,-69.024 -5.5962,-8.009 -14.0067,-20.014 -18.690099,-26.676 -6.5236,-9.28 -8.515,-13.956 -8.515,-19.998 0,-4.337 0.9306,-7.886 2.0679,-7.886 6.0898,0 17.007199,7.044 27.612799,17.815 10.8991,11.07 12.035,11.743 12.9542,7.679 8.1917,-36.229 9.8422,-69.578 4.4651,-90.221 -9.9311,-38.129 -30.7982,-53.318 -86.0907991,-62.666 -24.1128999,-4.077 -49.8714999,-3.017 -76.2130999,3.133 -9.9176,2.316 -25.2447,5.637 -34.060303,7.381 -20.3611,4.026 -20.5972,4.154 -29.4555,15.789 -18.7204,24.589 -25.6471,46.985 -25.6328,82.877 0.015,32.305 8.8341,90.549 13.6701,90.261 0.741,-0.05 5.4045,-5.548 10.3633,-12.23 12.182,-16.417 40.193436,-41.247 50.387003,-47.271 10.343878,-6.113 21.532704,-2.435 9.545142,8.723 -13.760103,12.808 -58.342345,68.816 -62.183745,84.071 -6.8664,27.268 13.4997,43.982 51.338403,42.13 10.5383,-0.516 19.5039,-2.794 36.0638,-9.167 z m -67.786603,-17.423 c -2.1418,-2.143 -1.5392,-10.323 0.87,-11.812 3.1745,-1.963 10.622,6.153 9.1551,9.976 -1.2213,3.182 -7.5244,4.337 -10.0251,1.836 z m 40.759903,-7.654 c -2.9628,-3.571 -1.3904,-8.642 3.2285,-10.415 4.7443,-1.82 9.2478,4.754 6.6199,9.663 -2.4059,4.496 -6.4826,4.807 -9.8484,0.752 z m 110.174,-9.042 c -1.5237,-2.847 -1.5237,-5.168 0,-8.015 2.9247,-5.465 7.6308,-5.037 10.3552,0.942 4.0219,8.828 -5.819,15.548 -10.3552,7.073 z m 32.056699,-4.008 c 0,-3.017 1.0463,-4.099 3.5061,-3.625 1.9285,0.371 3.5063,2.003 3.5063,3.625 0,1.623 -1.5778,3.255 -3.5063,3.626 -2.4598,0.474 -3.5061,-0.608 -3.5061,-3.626 z m -169.067102,-1.054 c -3.6754,-3.676 -3.8749,-4.856 -1.4645,-8.66 3.0878,-4.872 9.246103,-1.832 9.246103,4.566 0,6.883 -3.2711,8.603 -7.781603,4.094 z m 157.824203,-13.832 c -1.9948,-5.198 0.801199,-9.494 5.723999,-8.795 3.3116,0.47 4.517,1.977 4.517,5.65 0,3.672 -1.2054,5.179 -4.517,5.65 -2.7093,0.384 -4.9999,-0.618 -5.723999,-2.505 z m -100.9687,-21.116 c -9.2039,-2.672 -17.9449,-8.104 -21.3146,-13.246 -3.0576,-4.667 -3.0679,-5.354 -0.1232,-8.299 2.9452,-2.945 4.2842,-2.92 16.1929,0.304 13.6311,3.69 20.0906,8.556 18.957,14.279 -2.776551,5.477 -9.132188,8.132 -13.7121,6.962 z m 54.2232999,-9.865 c -2.5138,-4.697 3.1971001,-12.741 12.4392001,-17.519 5.7314,-2.965 6.3753,-2.947 8.7014,0.234 3.074,4.205 1.769,8.356 -4.8937,15.568 -5.8997,6.386 -13.3277,7.172 -16.2469001,1.717 z m -74.9369999,-100.048 c -6.7435,-7.452 -2.6124,-25.484 6.3537,-27.735 7.6551,-1.92 11.2925,1.63 11.9624,11.68 1.0073,15.111 -10.2441,24.974 -18.3161,16.055 z m 40.7622,-0.343 c -7.802,-7.802 -4.0121,-32.058 5.0088,-32.058 8.3993,0 14.5697999,24.814 7.9809,32.094 -4.5496,5.028 -7.9354,5.018 -12.9897,-0.03 z m -113.341403,-95.67 c -2.7195,-15.428 -7.7981,-21.327 -13.473,-15.651 -3.9305,3.929 -2.5263,9.031 4.6489,16.886 7.7745,8.513 10.4756,8.134 8.8241,-1.235 z m 221.031902,-16.854 c 7.6545,-2.339 9.3802,-9.693 2.2747,-9.693 -4.9666,0 -23.8128,9.838 -23.8128,12.431 0,1.901 10.8877,0.519 21.5381,-2.738 z" fill="#00B894" transform="translate(-120.86533,-146.47573) matrix(0.26458333,0,0,0.26458333,345.82873,-4370.016)"/>
</svg>