<?xml version="1.0" ?><svg height="163.27246mm" viewBox="0 0 130.49146 163.27246" width="130.49146mm" xmlns="http://www.w3.org/2000/svg">
    <path d="m 46383.416,1959.1317 c -14.207,-20.2903 -16.832,-48.3631 -6.022,-82.1339 10.809,-33.7708 18.685,-46.2785 18.685,-46.2785 0,0 -41.694,-7.5046 -31.657,-22.3749 10.038,-14.8702 43.856,11.118 43.856,11.118 0,0 28.877,-7.3656 48.489,-1.9456 19.611,5.42 41.23,14.3143 35.517,43.36 -5.714,29.0456 -22.546,53.3662 -22.546,53.3662 0,0 32.892,20.7071 83.388,12.7856 50.496,-7.9215 98.213,-4.8641 98.213,-4.8641 0,0 21.619,-5.9759 30.884,-27.6559 9.265,-21.68 28.723,-46.5564 28.723,-46.5564 0,0 32.5,40.0174 7.721,60.7318 -24.78,20.7144 -31.502,40.5805 -31.502,40.5805 0,0 23.472,33.076 -4.479,74.9072 -27.95,41.8313 -37.059,54.4429 -81.071,61.7046 -44.013,7.2617 -82.771,-5.8368 -98.522,-13.7584 -61.424,-12.8435 -60.244,-119.6796 -46.326,-138.8355 0,0 -53.585,37.94 -73.351,25.8493 z" fill="#FFFFFF" transform="translate(-310.46282,4.5290887) matrix(0.34233768,0,0,0.34233768,-15557.84,-592.52753)"/>
    <path d="m 46521.98,2193.7167 c -11.402,-4.2401 -13.654,-13.2068 -13.654,-69.4715 0,-42.4572 -0.103,-43.1924 -6.14,-44.8109 -3.377,-0.9048 -6.754,-1.6622 -7.506,-1.6826 -1.943,-0.053 -2.898,35.8692 -0.461,71.5638 1.782,26.1054 1.459,30.8432 -2.375,34.677 -9.995,9.9959 -15.657,-0.5014 -20.666,-38.3354 -2.745,-20.7132 1.176,-49.1686 6.067,-69.3492 0.895,-3.6903 -1.358,-8.0793 -6.85,-13.3394 -8.068,-7.7303 -16.054,-27.0161 -26.322,-63.5751 -3.354,-11.9414 -4.234,-21.3407 -2.988,-31.9381 l 1.764,-15.017 -14.015,7.2724 c -21.78,10.8593 -46.593,15.5494 -59.684,-1.4272 -13.964,-18.1092 -9.95,-92.0699 13.627,-119.3331 5.218,-3.2249 2.716,-6.1252 -6.58,-7.6344 -14.192,-2.3025 -23.418,-9.4702 -23.418,-18.1927 0,-21.4029 31.032,-23.7049 52.086,-3.8637 8.838,8.327 16.135,6.2537 16.135,-4.5832 0,-12.9307 13.339,-50.9016 21.233,-60.4567 13.451,-16.2735 28.039,-26.4604 38.121,-26.6193 4.705,-0.075 6.139,1.449 6.139,6.5162 0,5.9778 -5.812,14.7574 -20.012,30.2268 -7.05,7.6805 -11.367,16.7189 -16.486,34.5308 -5.672,19.7347 -5.928,18.6823 4.551,18.6823 8.28,0 9.23,-0.9191 12.124,-11.735 4.317,-16.1426 23.85,-44.5462 36.298,-52.7841 7.048,-4.6649 13.172,-6.5398 19.405,-5.9414 13.922,1.3372 12.952,8.1526 -3.915,27.5096 -27.531,31.5936 -35.786,49.5632 -26.587,57.887 4.431,4.0088 6.706,4.2927 14.007,1.7473 11.586,-4.0384 25.705,-3.8572 28.978,0.3719 9.376,12.1191 2.29,22.4949 -17.38,25.4446 -11.485,1.7226 -11.88,2.1073 -11.88,11.5839 0,5.5883 -4.294,18.9527 -9.989,31.0886 -5.495,11.7077 -9.271,22.0061 -8.389,22.885 3.33,3.332 66.055,1.0312 88.788,-3.2568 16.94,-3.1951 32.539,-4.0966 54.49,-3.1482 l 30.753,1.329 8.815,-10.901 c 4.847,-5.9952 13.727,-20.8771 19.73,-33.0706 9.222,-18.7321 12.057,-22.3019 18.271,-23.0193 5.961,-0.6881 8.685,1.1603 14.369,9.7498 3.858,5.8295 8.446,17.4238 10.198,25.7655 4.251,20.2839 -1.479,35.5059 -20.838,55.3344 -13.233,13.5543 -14,15.0536 -10.719,20.9694 5.375,9.6878 4.523,30.9552 -1.729,43.2112 -3.002,5.8838 -5.459,13.2437 -5.459,16.3552 0,8.0212 -12.769,32.2145 -21.058,39.8956 -6.784,6.2885 -6.896,6.9413 -3.811,22.1872 1.745,8.6394 4.857,38.1926 6.014,65.7181 1.285,30.566 0.676,36.1972 -3.157,42.046 -5.532,8.4412 -13.79,8.4565 -19.306,0.036 -3.51,-5.3566 -2.871,-3.57 -3.837,-54.326 -0.653,-34.2793 -2.143,-70.3083 -3.31,-80.064 -1.17,-9.7556 -1.706,-19.8866 -1.191,-22.5132 1.494,-7.6142 8.744,-5.5308 11.86,3.4079 1.569,4.5008 3.824,7.5834 5.012,6.8501 1.185,-0.7331 8.515,-11.9373 16.289,-24.8983 12.552,-20.9322 13.934,-24.7345 12.363,-34.0358 -1.9,-11.2453 -13.316,-27.1892 -28.448,-39.7356 -8.594,-7.1262 -11.544,-7.8611 -35.067,-8.7359 -16.46,-0.612 -35.095,0.7395 -51.887,3.7632 -31.506,5.6729 -60.919,4.3147 -82.144,-3.7932 l -14.749,-5.6349 -8.895,7.4033 c -17.866,14.871 -19.133,34.1325 -5.079,77.1962 10.53,32.2575 18.68,44.6543 33.41,50.8081 10.553,4.4104 11.527,3.8946 15.428,-8.1675 3.76,-11.6357 13.335,-12.2616 14.628,-0.9564 0.489,4.2793 3.247,11.6474 6.13,16.3732 6.145,10.0754 6.701,17.0088 1.618,20.0551 -2.932,1.7548 -3.248,10.4659 -1.628,44.4798 1.109,23.2636 -0.345,26.3595 1.384,35.0395 0.658,16.3729 0.53,30.8344 -12.476,26.3857 z m -101.545,-252.5932 c 24.584,-12.2846 42.324,-29.5464 53.667,-52.2186 10.942,-21.8721 12.18,-34.8894 4.516,-47.456 -7.811,-12.8106 -32.889,-22.9369 -47.638,-19.2353 -8.701,2.1839 -31.022,9.7142 -40.555,30.0232 -21.185,45.1346 -13.086,72.0949 -13.086,80.6327 0,9.4964 7.579,16.5881 17.724,16.5881 4.782,0 16.197,-3.7502 25.372,-8.3341 z m -35.795,-6.4094 c -0.808,-2.1056 0.03,-5.9002 1.9,-8.4329 3.055,-4.1803 3.696,-4.2081 6.939,-0.3001 4.188,5.0464 2.105,12.561 -3.482,12.561 -2.14,0 -4.549,-1.7225 -5.357,-3.828 z m 14.529,-1.2957 c 0,-7.1979 7.824,-13.5244 10.791,-8.7254 1.201,1.9458 1.579,5.8578 0.836,8.6936 -1.782,6.822 -11.627,6.8493 -11.627,0.033 z m 7.279,-53.3516 c -3.035,-7.9038 1.46,-19.0609 7.162,-19.0609 4.413,0 6.026,4.3116 6.026,12.0059 0,6.8973 -1.316,9.7671 -4.783,10.4349 -2.632,0.5068 -7.54,-1.1269 -8.405,-3.3799 z m 27.287,2.0787 c -3.229,-3.2306 -1.932,-16.5214 1.928,-19.7246 8,-6.6384 18.653,6.2912 14.371,17.4445 -1.577,4.1104 -12.887,5.6924 -16.299,2.2801 z m 260.152,47.2529 c 2.251,-3.5228 8.084,-12.357 12.963,-19.6314 9.64,-14.3785 11.196,-26.5932 5.177,-40.7014 l -3.445,-8.0769 -8.267,17.628 c -4.551,9.6953 -13.292,22.5399 -19.43,28.5434 -12.661,12.8922 -14.387,7.5527 -2.636,19.7844 8.527,8.1568 9.113,12.5572 15.638,2.4539 z m -302.904,-113.3635 c 0,-3.1537 -6.877,-5.7497 -15.231,-5.7497 -9.054,0 -8.35,4.8299 0.905,6.2322 13.354,2.0229 14.326,1.9901 14.326,-0.4825 z m 215.635,346.6298 c -0.944,-2.4552 -0.05,-7.9711 -0.05,-30.0746 0,-30.5995 0.931,-41.452 3.908,-45.4853 2.61,-3.535 4.822,-4.3892 6.648,-2.5682 4.241,4.2235 7.263,31.9532 6.345,57.7371 -0.809,22.7563 -0.961,23.2113 -7.981,24.0252 -3.679,-0.01 -7.722,-0.8946 -8.87,-3.6342 z m -40.986,-79.6718 c 0,-12.6146 3.903,-21.6516 9.353,-21.6516 4.607,0 7.02,5.9848 7.02,17.415 0,9.828 -4.116,15.3315 -11.462,15.3315 -3.925,0 -4.911,-2.2304 -4.911,-11.0949 z m 25.59,1.6564 c -2.179,-5.6735 4.326,-23.793 8.095,-22.5571 1.735,0.5686 3.544,5.0105 4.023,9.8707 1.244,12.6611 -8.295,22.648 -12.118,12.6864 z m -46.301,-11.0221 c -1.861,-7.4248 0.07,-15.0149 3.79,-15.0149 3.839,0 9.593,12.9236 7.818,17.5535 -2.541,6.6187 -9.702,5.0523 -11.608,-2.5386 z m 78.017,-1.4315 c 0,-6.1948 8.022,-21.77 11.213,-21.77 7.299,0 1.214,25.306 -6.438,26.7733 -3.363,0.6448 -4.775,-0.8366 -4.775,-5.0033 z" fill="#00B894" transform="translate(-310.46282,4.5290887) matrix(0.34233768,0,0,0.34233768,-15557.84,-592.52753)"/>
</svg>