<?xml version="1.0" ?><svg height="130.20285mm" viewBox="0 0 144.19598 130.20285" width="144.19598mm" xmlns="http://www.w3.org/2000/svg">
    <path d="m 9782.5179,16376.846 c 10.29,-46.094 57.821,-78.297 80.857,-83.272 23.036,-4.976 77.939,-0.484 91.07,7.463 13.13,7.947 40.851,14.236 40.851,14.236 0,0 -8.524,-36.212 -2.381,-39.736 6.143,-3.524 43.4621,46.232 43.4621,46.232 l 51.908,-20.732 c 0,0 6.527,-46.715 11.748,-56.667 5.222,-9.951 24.572,5.252 26.722,10.712 2.15,5.459 -5.605,47.061 -5.605,47.061 0,0 14.359,17.967 25.109,48.028 10.75,30.061 24.879,103.382 24.879,103.382 0,0 -55.21,9.606 -80.703,1.382 -50.845,20.324 -102.1943,1.453 -150.7331,13.2 -53.214,13.337 -107.195,1.036 -131.306,-33.102 -24.112,-34.138 -25.878,-58.187 -25.878,-58.187 z" fill="#FFFFFF" transform="translate(-106.30681,-30.904494) matrix(0.26458333,0,0,0.26458333,-2443.6555,-4262.7406)"/>
    <path d="m 9815.6966,16712.089 c -7.7241,-5.43 -38.7348,-26.486 -68.913,-46.796 -60.7364,-40.874 -82.4097,-55.844 -95.8735,-81.594 -25.9095,-49.556 -13.6392,-92.589 35.0361,-144.288 15.8402,-16.826 42.1151,-33.332 70.0195,-43.991 16.1385,-6.167 18.0223,-7.761 19.6934,-16.67 8.7912,-47.995 38.8584,-78.918 79.2212,-91.216 18.3502,-5.296 53.9328,-5.074 75.8618,-1.28 22.8748,3.958 36.618,11.741 54.2484,21.191 -6.2548,-20.699 -0.425,-41.765 11.532,-41.765 5.8675,0 29.4795,25.07 36.7185,38.986 2.478,4.765 4.916,9.13 5.417,9.701 12.247,-10.923 20.794,-12.485 32.832,-15.648 l 13.172,-3.336 1.675,-26.16 c 2.709,-42.298 14.365,-51.695 37.19,-29.982 14.105,13.418 16.084,27.65 7.305,52.531 -3.56,10.089 -3.394,11.363 2.114,16.251 8.476,7.527 17.024,28.123 30.968,74.615 6.669,22.235 14.023,46.119 16.343,53.071 7.982,23.922 -2.401,29.304 -56.29,29.172 -62.605,-0.151 -114.692,-38.717 -120.689,-89.351 -1.113,-9.397 -0.269,-16.701 2.589,-22.43 4.022,-8.064 3.825,-8.963 -3.854,-17.557 -11.6645,-13.054 -49.2727,-31.278 -73.0548,-35.397 -58.6916,-10.169 -101.6252,8.882 -123.5496,54.821 -15.336,32.132 -13.7624,50.525 6.2753,73.347 40.1484,41.754 99.3666,42.039 145.4296,21.928 26.182,-12.095 47.1975,-12.519 82.1225,-1.659 28.708,8.926 29.771,9.517 27.529,15.359 -1.458,3.798 -5.416,4.355 -22.982,3.228 l -21.22,-1.362 -3.045,11.841 c -6.057,23.552 -8.86,30.132 -13.613,31.956 -10.9895,4.216 -15.4545,-13.981 -7.8785,-32.114 6.0745,-14.535 5.7985,-14.967 -7.941,-12.389 -11.248,2.11 -39.7084,15.769 -39.7084,19.06 0,0.768 3.7161,6.829 8.2574,13.469 8.084,11.818 15.6972,25.156 17.0789,27.521 2.4516,4.196 -1.0273,8.339 -3.8779,10.33 -8.6697,6.055 -15.256,0.425 -26.3189,-23.864 -5.5435,-12.172 -10.4974,-22.553 -11.0083,-23.068 -0.511,-0.517 -6.9737,-0.05 -14.362,1.077 -10.3152,1.546 -13.0463,3.021 -11.7664,6.356 2.0264,5.281 -3.2838,12.277 -9.3183,12.277 -2.4215,0 -9.9715,-4.564 -16.7779,-10.141 -11.8885,-9.743 -46.9778,-27.403 -54.4459,-27.403 -1.9793,0 -5.3904,3.574 -7.5797,7.942 -2.1893,4.369 -4.3885,8.715 -4.8871,9.662 -0.4986,0.945 16.1695,7.352 37.0402,14.236 20.8709,6.884 39.9129,14.484 42.3158,16.887 3.8999,3.9 3.677,4.929 -2.0767,9.588 -10.6111,8.592 -29.6211,5.558 -69.3385,-11.066 -37.4245,-15.666 -40.1668,-22.058 -20.2527,-47.199 l 8.4525,-10.673 -12.6806,-14.009 c -6.9743,-7.707 -14.9129,-18.961 -17.6414,-25.01 -2.7284,-6.052 -5.884,-11.002 -7.0126,-11.002 -84.8246,19.348 -137.9487,112.069 -106.4533,160.683 12.1117,25.873 29.5345,43.373 72.5549,72.879 43.9315,30.132 79.399,52.865 88.5428,65.707 9.8599,19.283 -6.1811,7.615 -13.1248,2.748 z m 324.6784,-263.471 c 21.284,-2.558 22.802,-6.537 13.876,-36.37 -3.923,-13.108 -10.638,-37.481 -14.922,-54.158 -4.284,-16.677 -9.623,-33.943 -11.865,-38.371 l -4.075,-8.048 -7.812,6.157 c -6.86,5.409 -7.929,5.58 -8.773,1.406 -0.53,-2.614 2.549,-14.38 6.841,-26.147 8.805,-24.143 8.201,-37.976 -1.935,-44.307 -8.382,-5.233 -9.964,-1.95 -12.073,25.07 -2.455,31.456 -9.613,49.52 -14.537,36.69 -1.41,-3.674 -3.372,-3.706 -14.888,-0.24 -19.219,5.785 -27.249,11.734 -25.397,18.819 1.161,4.44 0.143,5.87 -4.175,5.87 -3.984,0 -8.429,-5.021 -14.703,-16.606 -4.946,-9.134 -13.525,-21.712 -19.065,-28.065 -9.1153,-8.183 -11.0268,-9.857 -9.8963,0.894 -0.175,18.941 23.4233,49.551 36.7003,49.551 4.515,0 4.27,5.649 -0.273,6.27 -1.985,0.273 -4.706,1.52 -8.677,1.645 -6.813,0.218 -7.638,3.207 -6.924,16.832 1.984,37.887 32.581,67.602 80.62,80.54 17.72,4.773 21.606,5.011 41.953,2.568 z m -43.68,-54.184 c -2.735,-5.108 -3.301,-10.638 0.593,-14.471 4.435,-4.366 6.813,-2.677 10.737,2.619 2.331,3.147 3.861,7.68 3.4,10.073 -3.838,6.728 -12.038,6.397 -14.73,1.779 z m 21.84,0.705 c -4.497,-4.496 -4.232,-21 1.953,-20.627 5.396,0.326 12.306,9.105 11.24,16.528 -1.296,9.341 -9.181,7.845 -13.193,4.099 z" fill="#00B894" transform="translate(-106.30681,-30.904494) matrix(0.26458333,0,0,0.26458333,-2443.6555,-4262.7406)"/>
</svg>