<?xml version="1.0" ?><svg height="246.94878mm" viewBox="0 0 274.4158 246.94878" width="274.4158mm" xmlns="http://www.w3.org/2000/svg">
    <path d="m 272.22211,-829.15038 c -13.28502,-3.1995 -24.32468,-11.69144 -28.65501,-21.50645 -4.33033,-9.81501 -2.64631,-33.58279 4.14321,-40.53509 6.78953,-6.9523 34.21494,-28.38659 34.21494,-28.38659 0,0 -36.70086,-7.28908 -45.09421,-3.05517 -8.39335,4.23394 -10.66546,10.10372 -15.23634,8.29948 -4.57092,-1.80422 -4.00963,-5.45526 3.13806,-12.60253 7.14772,-7.14727 19.0482,-9.55344 28.05634,-7.60487 9.00816,1.94858 25.87506,2.16506 25.87506,2.16506 0,0 -8.3964,-16.2316 -3.57005,-18.83293 4.82637,-2.60133 6.91136,4.01418 10.38629,7.23775 3.47496,3.22355 8.47355,5.96599 13.15138,1.82827 4.67784,-4.13768 7.9338,-15.88645 5.20729,-26.85618 -2.7265,-10.96973 -22.02587,-23.28664 -18.17669,-39.62097 3.84919,-16.3343 18.60074,-45.9774 59.87254,-45.0151 41.27177,0.9623 42.98251,41.4252 42.63501,47.5355 -0.3475,6.11032 -8.56956,33.25522 -13.38104,41.14573 -4.81147,7.89051 -5.58665,9.6466 -2.7265,9.98339 2.86014,0.33681 5.39954,1.15472 10.85255,-1.53961 5.45301,-2.69431 14.03347,-12.0282 17.77574,-10.24803 3.74226,1.78017 1.1494,9.98342 -1.25633,14.04895 -2.40575,4.06554 -6.57568,9.04524 -6.57568,9.04524 0,0 15.31651,2.06885 21.86548,-7.96269 6.54897,-10.03155 15.2631,-13.90462 22.8278,-12.82208 7.5647,1.08254 11.73464,2.62215 10.90599,6.61551 -0.82862,3.99338 -5.93413,1.20285 -11.78811,4.54668 -5.85396,3.34383 -7.05684,9.64663 -10.42488,15.75697 -3.36801,6.11034 -17.45496,14.28951 -17.45496,14.28951 0,0 31.48844,-4.4745 49.95918,0.74575 18.47073,5.22026 29.57926,14.29615 29.41887,29.4517 -0.16037,15.15554 -4.19667,21.6989 -8.8745,19.2692 -4.67783,-2.42969 -0.98901,-7.74617 -1.55035,-12.26878 -0.56134,-4.5226 -3.28785,-15.44423 -18.7915,-16.88761 -15.50366,-1.44341 -56.85563,-2.30942 -65.11531,-4.33017 -8.25971,-2.02073 -27.74619,-12.55744 -27.74619,-12.55744 0,0 -0.26731,8.13107 4.22341,14.26546 4.49072,6.13439 33.17274,26.96397 39.85535,34.13278 6.68261,7.16883 17.04303,28.70409 16.53516,36.35402 -0.50789,7.64995 -6.86975,17.58526 -9.14183,5.72545 -2.27206,-11.85982 -8.09932,-26.12531 -30.8469,-41.16057 -22.74757,-15.03527 -35.04358,-26.55829 -38.89277,-38.49029 -3.84918,-11.93199 -5.45301,-25.93284 -9.24872,-12.67775 -3.79571,13.2551 -8.74085,17.34471 0.8019,42.91669 9.54278,25.57198 17.96285,36.68604 11.54755,48.9789 -6.41529,12.29283 -21.57187,21.54039 -22.82007,15.07649 -1.2482,-6.46393 9.50833,-13.51283 11.03196,-21.81231 1.52363,-8.29945 -1.41671,-24.97055 -14.22059,-40.58319 -12.80387,-15.61264 -11.99967,-39.15653 -11.99967,-39.15653 0,0 -23.09508,13.11076 -30.3925,18.01828 -7.29739,4.90752 -24.0284,16.25208 -22.99216,27.19776 1.03627,10.94571 1.63457,19.47172 6.23221,24.09055 4.59761,4.61884 14.30075,6.85607 14.56806,11.59521 0.26731,4.73911 -1.7023,5.72968 -8.10847,6.19665 z" fill="#FFFFFF" transform="translate(38.070212,76.383984) translate(-255.08268,981.01764)"/>
    <path d="m 327.04496,-812.05097 c -2.32572,-2.20451 -1.36227,-7.1233 2.24901,-12.0881 6.23245,-8.5683 7.28308,-11.418 7.31069,-19.826 0.0323,-10.2012 -3.73406,-18.4155 -13.77693,-30.0375 -9.64958,-11.1669 -12.66961,-17.6346 -13.35368,-28.6009 -0.23741,-9.18746 0.0583,-8.87072 -7.3847,-4.0692 -3.77049,2.4323 -11.0518,6.5308 -16.18074,9.1079 -19.1006,9.597 -26.18189,22.1495 -21.90739,38.8338 2.62439,10.2449 8.54431,17.8743 13.86916,17.8743 3.01533,0 6.48387,3.0227 6.48387,5.6503 0,1.4953 -1.45891,3.7056 -3.80779,5.7678 -3.5496,3.1166 -4.19961,3.3072 -9.58467,2.8103 -18.51375,-1.7086 -31.90796,-16.0295 -33.0379,-35.3237 -1.23774,-21.1353 9.53356,-40.1128 28.81539,-50.769 7.09814,-4.11816 9.9429,-4.08234 0.51812,-5.0044 -3.9893,-0.3904 -8.88209,-1.2063 -10.87292,-1.8131 -4.65957,-1.4208 -16.64011,-1.4231 -20.40414,0 -1.60429,0.6048 -4.31562,2.4077 -6.02536,4.0061 -1.70975,1.5984 -4.15203,3.1566 -5.42765,3.4626 -2.7504,0.66 -7.52922,-2.6951 -7.51483,-5.2761 0.0294,-3.5966 6.23685,-12.5389 10.99129,-15.81 9.17904,-6.3153 17.65257,-7.499 29.94886,-4.1835 3.97785,1.0724 9.27244,2.2532 11.76553,2.6232 4.02191,0.5975 4.47336,0.4653 4.00076,-1.1728 -3.11284,-10.7945 -3.16512,-11.2368 -1.6883,-14.3273 2.25225,-4.7128 5.54543,-4.5621 10.69199,0.489 4.67837,4.5914 9.02778,6.3746 13.47558,5.5243 3.74199,-0.7152 4.89836,-4.0058 5.01056,-14.2557 0.11162,-10.0949 -2.10891,-15.7898 -9.21986,-23.6559 -7.51894,-8.3179 -9.99882,-14.6478 -9.55442,-24.38873 0.53457,-11.7192 5.63796,-21.6393 16.86951,-32.7912 13.24941,-13.1554 24.49066,-18.0844 41.29584,-18.107 15.36801,-0.029 26.66154,5.0085 37.47542,16.6886 10.06138,10.8676 14.04158,20.5257 14.04158,34.0721 0,11.76913 -3.1431,20.59943 -15.08898,42.39173 -2.40821,4.3932 -3.29348,6.9917 -2.61381,7.6714 1.77289,1.7729 10.59858,-2.4229 16.15988,-7.6823 6.10056,-5.7695 10.04639,-7.1799 12.8896,-4.607 4.0921,3.7036 3.49409,11.2357 -1.4733,18.5555 -1.90448,2.8065 -2.17411,3.769 -1.05563,3.769 3.05028,0 9.77386,-3.3607 10.34896,-5.1727 1.4122,-4.449 7.0028,-10.4696 12.1394,-13.0723 8.6965,-4.4067 22.2925,-3.2092 26.6645,2.3489 4.5808,5.8239 1.1881,10.7061 -7.457,10.7305 -8.2168,0.029 -10.3997,1.5587 -11.7952,8.2999 -1.7127,8.2726 -2.2834,9.2301 -7.5321,12.6464 l -4.7636,3.1005 7.4981,-0.5716 c 14.839,-1.1314 37.6443,2.739 46.8069,7.9431 6.4962,3.69 13.6301,10.9346 15.9649,16.2122 2.9142,6.5884 3.4788,17.0686 1.2768,23.6987 -2.8691,8.6381 -9.4358,12.0082 -14.1708,7.2731 -1.923,-1.9232 -2.131,-3.0138 -1.629,-8.5487 0.4162,-4.5844 0.1263,-7.2878 -1.0389,-9.7468 -1.651,-3.48 -7.6438,-7.667 -13.9508,-9.7474 -1.9615,-0.647 -16.8921,-1.4606 -34.5403,-1.8818 -25.23025,-0.6027 -32.1588,-1.0836 -36.7843,-2.5542 -7.13123,-2.267 -13.29288,-5.3243 -16.31967,-8.0976 -2.62644,-2.4064 -2.86993,-2.0178 -1.12906,1.8029 0.66146,1.4515 1.77554,2.6393 2.47577,2.6393 2.87493,0 6.16547,3.9603 6.16547,7.4206 0,2.874 0.5754,3.7467 3.40216,5.1586 1.87099,0.9346 4.52975,2.916 5.90847,4.4037 1.56229,1.6857 3.60952,2.7046 5.43382,2.7046 3.31374,0 7.53332,2.5545 7.53332,4.5609 0,2.224 4.1905,5.2893 6.76962,4.9512 2.6165,-0.3428 6.3987,4.0046 5.188,5.9634 -0.8982,1.4533 1.263,5.2479 2.9886,5.2479 3.2101,0 6.2956,3.8912 6.2956,7.9394 0,3.3478 0.3727,4.0292 2.3568,4.3109 1.2965,0.1851 3.0835,1.4434 3.9714,2.7983 1.3696,2.0904 1.4146,3.0156 0.2978,6.1041 -1.1422,3.1589 -1.085,3.8959 0.4327,5.5727 2.271,2.5099 2.2064,4.6408 -0.2849,9.3353 -1.1179,2.1075 -2.2913,5.1084 -2.6071,6.6683 -0.6382,3.1534 -4.9031,6.5071 -7.1691,5.6377 -0.8201,-0.3149 -2.2199,-3.8935 -3.1854,-8.1443 -4.4637,-19.6531 -13.79161,-30.2936 -41.86389,-47.7566 -13.20417,-8.2142 -22.47485,-16.5705 -25.95808,-23.398 -1.23891,-2.4291 -3.33137,-9.1691 -4.64929,-14.978 -2.0337,-4.48686 -1.04505,-15.18723 -3.75873,-5.8988 -0.74928,2.5645 -1.39635,7.5539 -1.43776,11.0871 -0.0441,3.6594 -0.63326,6.9817 -1.37109,7.7195 -1.92768,1.928 -1.56817,5.789 0.75545,8.1126 1.53792,1.5379 1.89038,2.8532 1.40927,5.259 -0.54015,2.6996 -0.1263,3.68 2.61205,6.1805 2.002,1.8287 3.25354,3.9769 3.25354,5.5854 0,3.8459 3.05086,9.5785 5.75309,10.8094 2.94748,1.3432 4.04746,4.5937 2.52011,7.4475 -0.92345,1.7253 -0.80479,2.7342 0.56776,4.829 1.38313,2.1107 1.59373,3.9673 1.0386,9.1508 -0.45233,4.2252 -0.30841,6.743 0.41121,7.1874 1.75027,1.0817 1.2906,5.4828 -0.78512,7.516 -1.04065,1.0195 -2.51747,3.4206 -3.28144,5.3354 -0.88938,2.229 -2.44551,3.8501 -4.32473,4.5054 -1.61458,0.5627 -2.93573,1.6504 -2.93573,2.4173 0,1.6733 -4.12265,4.7559 -5.34776,3.999 -0.47612,-0.2943 -1.80604,0.34797 -3.17041,1.0794 -2.56705,1.37618 -5.64565,3.44038 -8.88855,0.3665 z m 10.0323,-6.2248 c 2.06191,-1.258 3.93379,-2.7457 4.15995,-3.3058 0.22617,-0.5605 1.73941,-2.232 3.36309,-3.7147 7.65082,-6.9879 5.84973,-28.0124 -3.81189,-44.4972 -7.58267,-12.9378 -9.60582,-18.809 -9.89954,-28.7282 -0.24085,-8.1261 0.0999,-10.1583 2.98655,-17.874 3.12518,-8.3508 5.07238,-13.78635 8.9514,-13.5722 2.19454,0.12115 2.47871,4.7794 4.13764,10.6209 1.65893,5.8415 3.87152,12.4948 4.91687,14.7852 3.03236,6.6457 9.94858,12.949 23.21385,21.1567 22.91397,14.1781 36.72648,27.0068 42.06068,39.066 1.1311,2.5572 2.6479,7.7675 3.3704,11.5782 0.8551,4.76272 2.34583,3.01087 2.5909,0.9499 0.7023,-3.2882 0.9602,-7.4194 0.5737,-9.1802 -2.0014,-9.1121 -11.9562,-25.7644 -17.17793,-28.7345 -1.6416,-0.934 -2.98801,-2.2326 -2.99154,-2.8861 0,-1.8263 -6.39898,-7.0255 -14.31444,-11.6483 -8.56487,-5.0021 -17.65667,-14.4913 -21.33551,-22.2675 -4.23427,-8.9503 -7.25694,-22.4188 -5.02643,-22.3965 0.42736,0 2.87522,2.1468 5.43969,4.7612 6.19866,6.3191 7.64288,6.9768 15.52339,7.0687 6.26886,0.073 6.80696,0.2673 8.08699,2.9281 1.54232,3.2051 4.69922,3.7073 7.9322,1.2621 2.89813,-2.192 8.19361,-1.9121 10.42268,0.551 1.129,1.2475 3.1915,2.0725 5.1809,2.0725 1.9897,0 4.0522,-0.825 5.1809,-2.0725 1.0316,-1.1396 3.1299,-2.0722 4.6628,-2.0722 1.5329,0 3.6313,0.9326 4.6628,2.0722 2.232,2.4664 5.2491,2.6923 6.4842,0.4855 0.4884,-0.8729 2.6282,-1.8695 4.7553,-2.2146 3.038,-0.4932 4.3579,-0.1733 6.1576,1.4971 2.9292,2.7178 4.7144,2.9948 8.2485,1.2812 3.3246,-1.6122 7.6361,-0.2203 8.7608,2.8276 0.9422,2.5531 2.602,3.4445 4.0994,2.2015 0.7002,-0.581 2.3342,-0.9041 3.631,-0.7179 1.8184,0.2614 2.6681,1.441 3.7144,5.156 1.0418,3.7003 1.95,4.9662 3.9161,5.4596 1.9917,0.5 2.5598,1.3144 2.5598,3.6701 0,1.6651 -0.4805,3.3246 -1.068,3.6876 -0.6021,0.3722 -0.7936,2.123 -0.4391,4.0134 0.4468,2.3803 0.1557,3.7464 -1.0042,4.7089 -1.7203,1.4275 -2.2343,4.2102 -0.7778,4.2102 0.4706,0 1.9718,-1.1884 3.3364,-2.6408 2.0096,-2.1389 2.5586,-4.0117 2.8887,-9.8523 0.86,-15.2205 -7.9075,-24.545 -28.3472,-30.1483 -7.3582,-2.0172 -11.0491,-2.2825 -33.6509,-2.4196 -29.11789,-0.1763 -32.30491,-2.79782 -44.78589,-8.29896 -5.83874,-2.5735 -9.30942,-4.26315 -6.83124,-6.23934 0.32672,-0.26054 4.71274,1.0753 9.81612,3.0462 5.10338,1.9711 11.72853,3.9085 14.72212,4.3056 4.90336,0.6506 5.60564,0.4908 7.07659,-1.6093 1.3564,-1.9367 2.31128,-2.2407 5.6368,-1.7946 2.6161,0.3507 4.0419,0.1234 4.1138,-0.6597 -1.31576,-2.70976 1.07038,-5.33797 4.9001,-5.4244 4.3547,-0.079 6.3356,-1.4237 6.3711,-4.3206 0,-0.7126 -0.4502,-1.2953 -1.0201,-1.2953 -0.5701,0 -1.0362,0.7269 -1.0362,1.6154 0,0.8885 -0.4664,1.3274 -1.0362,0.9749 -2.0076,-1.2407 -1.0921,-4.6094 1.4242,-5.2409 2.9839,-0.7486 4.765,-4.2809 4.0486,-8.0285 -0.6611,-3.4583 1.8543,-4.6928 5.5408,-2.7195 2.0372,1.0902 3.0068,1.1193 4.5788,0.138 2.5456,-1.5899 6.4354,-1.599 8.015,-0.029 1.5097,1.5095 2.7662,0.455 1.9603,-1.6454 -0.8439,-2.1988 -8.678,-4.0498 -14.0345,-3.3155 -6.5905,0.9032 -11.0768,4.1459 -14.9654,10.8165 -3.0174,5.1763 -4.1338,6.1549 -9.4419,8.2771 -7.31978,2.926 -21.21508,4.0263 -30.12742,2.385 -8.33136,-1.5341 -10.87968,-4.3606 -10.87968,-12.0666 0,-7.296 1.8942,-12.652 8.16512,-23.0855 8.86917,-14.7574 11.90447,-27.47053 9.50184,-39.79823 -1.69065,-8.6735 -5.08782,-14.6596 -12.815,-22.5806 -9.00281,-9.229 -16.74056,-12.7369 -29.31148,-13.2888 -16.26386,-0.7143 -27.30214,4.0449 -40.07984,17.2805 -9.28566,9.6181 -13.68294,18.682 -13.64769,28.131 0.0294,7.81943 1.45039,11.00103 8.41683,18.84473 2.63614,2.9681 5.8556,7.7525 7.15473,10.6321 6.32437,14.019 2.90665,32.7304 -7.41702,40.6044 -8.53932,6.5133 -25.96366,8.4363 -40.76861,4.4992 -11.6692,-3.1031 -19.02923,-2.3706 -26.70354,2.6579 -2.64671,1.7341 -2.69518,1.8966 -0.78658,2.6429 3.74522,1.4645 6.18104,0.9957 7.22785,-1.3905 1.28679,-2.9333 4.8734,-3.5137 7.21876,-1.1687 1.44745,1.4478 2.1653,1.5576 3.74169,0.5734 2.94367,-1.8384 6.55994,-1.4698 9.68395,0.9875 2.08247,1.6383 3.10491,1.9047 3.97374,1.0362 1.61898,-1.619 4.93067,-1.4627 6.90741,0.3263 1.13287,1.0254 4.51065,1.5585 10.74162,1.696 8.84626,0.1938 8.87864,-0.35701 13.45355,-3.2236 2.58261,-1.61823 5.87462,-3.40288 6.6753,-4.01968 1.08294,-0.8345 4.56773,-0.67294 3.28183,1.81836 -2.0863,4.0351 -13.4897,9.22622 -27.30981,17.27212 -13.43181,7.8199 -19.3673,13.4511 -23.9132,22.6878 -4.3077,8.7522 -7.09451,20.9859 -6.3235,27.7593 0.78806,6.9268 5.1542,15.4714 10.35539,20.2658 4.4293,4.0827 14.17874,8.5548 18.58337,8.5243 2.44779,0.0942 6.31984,-1.30578 4.85284,-2.2799 -1.7086,-1.13456 -8.1099,-3.0943 -10.02114,-3.0132 -2.66169,0.1116 -3.69265,-1.214 -3.83481,-4.9348 -0.0675,-1.8134 -0.77336,-2.8089 -2.1747,-3.0741 -2.96716,-0.5616 -3.73318,-2.2117 -3.04147,-6.5523 0.57099,-3.5807 0.43206,-3.8292 -2.32038,-4.1447 -3.77812,-0.4329 -4.54091,-4.1135 -1.31998,-6.3694 2.3148,-1.6211 1.97233,-3.8093 -0.59596,-3.8093 -0.80127,0 -1.97673,-0.9713 -2.61205,-2.1585 -0.91993,-1.7189 -0.79392,-2.558 0.61828,-4.1186 0.97544,-1.0776 2.64935,-2.2375 3.71996,-2.5774 1.54703,-0.4908 1.89097,-1.4762 1.67656,-4.804 -0.27316,-4.2502 -0.27904,-4.2449 5.17035,-6.9192 1.13992,-0.5595 1.85161,-2.1577 1.91681,-4.3039 0.11749,-3.8307 2.94396,-6.5881 5.95429,-5.8062 2.48399,0.645 4.822,-0.2761 4.822,-1.9022 0,-2.4102 3.92116,-4.9932 6.57022,-4.3285 1.79492,0.4506 4.67162,-0.559 10.10778,-3.547 13.0629,-7.1805 18.44297,-11.8574 21.57402,-18.7555 4.60083,-10.1356 5.59243,-5.7119 2.04958,9.1435 -3.82071,16.0195 -1.29912,24.8793 10.95193,38.4817 7.28367,8.087 10.75162,14.0231 13.39216,22.9227 3.20125,10.7895 2.42514,19.06171 -5.41825,30.3973 -3.17654,4.59088 -6.19269,11.54475 1.78435,6.7702 z m 3.74874,-169.6442 c -9.47305,-2.2864 -16.50705,-10.3499 -14.51152,-16.63663 1.02303,-3.2236 3.26675,-2.4834 5.3598,1.7682 2.85731,5.80473 7.40732,7.95043 16.4674,7.76563 5.17182,-0.1057 7.87317,0.2791 8.66562,1.2339 3.7464,4.5142 -6.30293,8.2045 -15.9813,5.8689 z m 25.90463,-13.26123 c -6.75643,-0.6485 -5.74655,-3.8435 -0.39073,-4.6763 2.96782,-0.4614 8.40164,-0.2967 9.79916,0.7825 1.96088,1.5161 0.78552,2.8317 0.0129,3.3067 -2.14564,1.3192 -5.75174,0.9393 -8.87042,0.64 z m -19.80759,-7.9939 c -0.82535,-2.1509 -0.091,-4.9991 1.41661,-5.5014 1.45362,-0.484 3.36251,3.6989 2.60119,5.7 -0.67233,1.7673 -3.31346,1.6369 -4.0178,-0.1998 z m 9.61845,-1.2694 c -1.10997,-1.11 -0.79569,-4.303 0.50255,-5.1052 1.28473,-0.7942 3.98754,2.2152 3.98754,4.4399 0,1.4016 -3.26939,1.886 -4.49009,0.6653 z m -98.09157,150.35743 c 0,-0.8885 -0.46643,-1.3274 -1.03625,-0.9752 -0.56981,0.3522 -1.03624,1.0791 -1.03624,1.6155 0,0.5363 0.46643,0.9751 1.03624,0.9751 0.56982,0 1.03625,-0.7269 1.03625,-1.6154 z m -1.03625,-10.9457 c 0,-1.8301 -0.25847,-1.9843 -1.54291,-0.9187 -1.55936,1.2944 -1.22716,3.1181 0.56806,3.1181 0.53603,0 0.97485,-0.9898 0.97485,-2.1994 z m 202.81039,-37.8014 c -0.3443,-0.3442 -1.2381,-0.3813 -1.9859,-0.082 -0.8268,0.3307 -0.5813,0.5762 0.6259,0.6259 1.0924,0.044 1.7045,-0.1998 1.36,-0.5443 z m -33.6542,-2.1327 c -0.7125,-0.2879 -1.878,-0.2879 -2.5906,0 -0.7123,0.2878 -0.1292,0.5228 1.2953,0.5228 1.4249,0 2.0076,-0.235 1.2953,-0.5228 z m -37.04334,-2.4223 c -0.35217,-0.5698 -1.89537,-1.0034 -3.42888,-0.9631 -2.48957,0.065 -2.56624,0.1674 -0.7158,0.9631 2.87875,1.2371 4.90923,1.2371 4.14468,0 z m -165.2935,-6.476 -0.0294,-3.3674 -2.02608,2.5903 c -2.57798,3.2958 -2.57798,4.1446 0,4.1446 2.12893,-0.46433 2.05255,-2.31325 2.05548,-3.3675 z m 183.94471,-8.0303 c -0.35217,-0.5701 -1.07912,-1.0362 -1.61546,-1.0362 -0.53633,0 -0.97515,0.4661 -0.97515,1.0362 0,0.5699 0.72696,1.036 1.61546,1.036 0.88851,0 1.32728,-0.4661 0.97515,-1.036 z m -120.84428,-8.9373 c 3.82188,-0.7642 4.32913,-2.4607 0.73547,-2.4607 -2.37942,0 -4.07066,-1.4416 -10.33218,-8.8075 0,0 -2.63167,-4.17757 -2.6749,0.0517 -0.0411,3.8107 4.93097,11.8642 7.32244,11.8642 0.94137,0 3.16835,-0.2908 4.94947,-0.6477 z m 99.12076,-10.585 c -0.88762,-4.0419 1.38078,-5.7969 6.29971,-4.874 3.62303,0.6796 3.74316,0.6074 3.11901,-1.8792 -0.49845,-1.9862 -0.047,-3.0588 1.94237,-4.6244 2.75891,-2.17 3.49262,-5.3665 1.23156,-5.3665 -0.74751,0 -2.35299,1.3437 -3.56722,2.9862 -3.03736,4.1083 -12.01843,8.4119 -17.55447,8.4119 -4.03835,0 -4.45955,0.2379 -4.45955,2.5315 0,3.4504 3.65535,5.7578 9.12059,5.7578 4.42078,0 4.50097,-0.062 3.868,-2.9433 z m 5.46848,-1.1367 c 0.25847,-0.7769 -0.12924,-1.1655 -0.90672,-0.9065 -0.7481,0.2497 -1.56405,1.0654 -1.81342,1.8132 -0.25848,0.7772 0.12923,1.1658 0.90671,0.9067 0.74811,-0.2497 1.56406,-1.0653 1.81343,-1.8134 z m 38.53277,-6.3429 c 0,-0.5363 -0.4661,-0.9749 -1.0362,-0.9749 -0.5698,0 -1.0362,0.727 -1.0362,1.6152 0,0.8885 0.4664,1.3273 1.0362,0.9751 0.5701,-0.3521 1.0362,-1.0791 1.0362,-1.6154 z" fill="#00B894" transform="translate(38.070212,76.383984) translate(-255.08268,981.01764)"/>
</svg>