<?xml version="1.0" ?><svg height="149.36121mm" viewBox="0 0 221.83327 149.36121" width="221.83327mm" xmlns="http://www.w3.org/2000/svg">
    <path d="m 6892.5029,17454.399 c -26.785,-11.431 -100.238,-52.809 -90.988,-141.281 9.251,-88.471 84.499,-166.481 116.255,-180.522 31.756,-14.042 76.076,-19.284 102.171,-24.13 26.096,-4.846 43.63,-1.864 43.63,-1.864 l 10.218,-19.012 c 0,0 -48.049,-24.23 -39.074,-37.153 8.974,-12.922 57.989,18.515 57.989,18.515 l 27.89,-17.521 c 0,0 -17.949,-40.259 -1.104,-47.217 16.844,-6.959 16.43,41.75 16.43,41.75 0,0 39.212,-24.106 83.394,-23.485 44.182,0.622 64.078,24.671 64.078,24.671 0,0 -69.049,100.954 -89.759,117.108 -20.71,16.153 -86.708,26.963 -86.708,26.963 0,0 -30.237,60.638 -37.831,90.087 -7.594,29.449 -19.468,102.389 -64.616,134.074 -45.149,31.686 -73.73,50.325 -111.975,39.017 z" fill="#FFFFFF" transform="translate(135.86307,-40.224131) matrix(0.26458333,0,0,0.26458333,-1853.6783,-4442.9663)"/>
    <path d="m 6516.7752,17451.915 c -11.2927,-10.234 -20.708,-23.205 -23.0786,-31.788 -5.0954,-18.456 6.716,-41.518 31.2387,-60.999 17.5572,-13.946 62.7094,-38.116 95.3838,-45.433 29.5276,-6.612 60.7954,6.33 10.0808,13.021 -47.5603,6.275 -130.4014,58.663 -110.4761,89.868 24.626,32.287 95.6559,67.794 207.504,67.815 61.9222,0.01 152.5162,-30.182 132.4503,-38.867 -19.2023,-8.791 -41.3853,-31.388 -50.4596,-51.4 -11.0279,-25.86 -15.7026,-54.35 -12.3971,-76.335 10.6142,-69.369 60.1093,-153.508 108.1891,-183.913 12.9202,-8.169 46.6271,-22.018 61.9503,-25.453 20.9223,-4.687 46.6054,-7.526 70.6272,-7.808 21.0938,-0.244 24.3152,-0.855 26.5504,-5.033 3.0151,-5.634 3.9023,-4.817 -11.3202,-10.416 -16.0177,-5.891 -30.456,-20.204 -30.6075,-30.024 -0.2785,-18.051 17.3529,-23.601 33.246,-20.168 14.4214,5.348 27.7896,12.479 35.0867,24.159 1.7292,2.73 3.9791,2.037 11.5933,-3.575 5.1962,-3.829 9.7351,-7.111 10.0862,-7.29 0.351,-0.173 -1.0265,-5.046 -3.0609,-10.815 -7.1388,-20.233 -3.7024,-37.594 8.7621,-44.266 11.6507,-6.234 22.3842,6.942 22.3842,27.477 0,6.499 0.5662,11.818 1.258,11.818 0.6915,0 8.8463,-2.737 18.1217,-6.083 25.1347,-9.066 64.7378,-16.554 77.9492,-14.737 l 9.4147,0.475 11.3439,-15.025 c 15.8804,-21.032 47.5076,-52.778 53.28,-52.778 4.2887,0 4.0294,0.939 -2.5297,9.18 -4.0196,5.052 -17.9204,20.75 -30.8911,34.884 -21.6712,23.617 -23.1732,25.885 -18.528,27.957 4.1931,1.871 6.7644,0.477 15.081,-8.177 12.1776,-12.674 33.0946,-26.353 49.4239,-32.322 9.1971,-2.118 7.0614,3.138 3.3265,5.048 -6.9496,5.422 -9.0062,7.111 -16.413,11.807 -40.0447,25.373 -41.3031,26.701 -30.688,32.382 8.5808,4.594 11.1044,13.84 6.9951,25.633 -1.8541,5.319 -4.8271,11.38 -6.607,13.467 -1.78,2.086 -3.8893,5.643 -4.6877,7.902 -0.7983,2.258 -9.7344,16.225 -19.8575,31.033 l -18.4059,26.926 4.9099,16.714 c 2.7003,9.194 5.5371,18.642 6.3033,21 0.7881,2.423 -0.5897,7.096 -4.7193,4.795 -2.6181,-1.458 -11.5334,-23.731 -11.5742,-29.708 -0.022,-2.482 -1.6821,-1.93 -5.7728,1.914 -5.2856,4.964 -4.9087,12.624 -3.8296,29.44 2.2374,14.537 -4.2277,21.401 -6.9745,6.457 l -3.4528,-21.095 -12.6466,10.66 c -28.449,23.983 -39.9033,28.852 -70.1573,29.834 -19.1792,1.072 -17.9008,-1.829 -23.6008,10.41 -2.0453,5.186 -4.6872,13.349 -6.9706,17.765 -2.2836,4.416 -8.033,18.648 -12.776,31.627 -8.2525,22.581 -8.5624,24.6 -7.192,46.859 1.4281,23.201 7.017,59.598 16.446,107.105 6.1091,30.779 5.6254,43.175 -1.7254,44.223 -10.9614,1.564 -21.1068,-36.363 -24.5964,-91.951 -0.8664,-13.803 -2.3761,-25.098 -3.3542,-25.098 -0.9783,0 -3.5631,7.104 -5.7435,15.783 -3.319,13.213 -3.5198,18.895 -1.2332,34.893 3.2535,22.765 4.0939,65.36 1.476,74.816 -2.4977,9.023 -8.0751,8.505 -13.1016,-1.215 -2.893,-5.595 -4.4631,-16.498 -5.2989,-36.792 l -1.188,-28.843 -14.965,14.284 c -28.9168,27.597 -59.9906,44.364 -86.1061,46.46 -15.2728,1.226 -19.6295,3.494 -12.1934,6.348 1.975,0.758 13.2691,-0.316 25.0982,-2.384 27.5996,-4.828 69.8139,-3.873 75.3847,1.706 5.0364,5.045 2.4791,11.286 -6.5325,15.947 -9.1797,4.748 -79.9568,13.135 -92.0468,10.908 -16.4617,-3.032 -23.7323,-9.808 -25.5934,-23.849 -0.693,-5.23 -4.9014,-10.97 -17.9749,-2.523 -40.5204,26.179 -69.4456,32.74 -126.1658,39.51 -79.0068,9.43 -185.2355,-4.123 -243.4517,-54.147 z m 400.6803,-21.765 c 2.2143,-7.501 4.3954,-10.687 6.955,-10.164 2.843,0.58 3.6669,4.007 3.4672,14.425 l -0.2617,13.664 9.7012,-2.181 c 13.2782,-2.983 20.2668,-6.889 43.1123,-24.104 33.8768,-25.528 51.3643,-50.788 56.7653,-82 1.3983,-8.082 3.5424,-16.895 4.7646,-19.589 1.2224,-2.695 4.5154,-13.712 7.3182,-24.485 7.4288,-28.558 29.7226,-72.274 44.2812,-86.83 8.8991,-10.891 10.3991,-12.433 4.6155,-14.848 -10.3246,-4.276 -26.1498,-20.916 -33.6042,-35.332 -5.2298,-10.115 -6.4063,-15.796 -6.4889,-31.332 3.8063,-16.327 -30.0979,-14.319 -47.0839,-11.635 -49.7214,7.853 -73.6334,14.673 -95.8585,27.342 -59.0494,33.654 -113.2356,153.317 -97.3898,215.073 10.903,42.492 32.1387,66.566 71.656,81.231 7.8368,2.909 15.3358,6.247 16.6645,7.418 3.253,2.866 7.4237,-3.233 11.386,-16.653 z m 229.9784,-253.356 c 11.8605,-3.022 29.3316,-14.97 47.9698,-32.799 14.3795,-13.757 15.5491,-15.667 15.5491,-25.397 0,-10.351 3.3207,-19.995 6.8845,-19.995 0.9982,0 1.4028,4.683 0.899,10.407 -0.8217,9.337 -0.528,10.028 2.8566,6.733 3.4561,-3.365 5.7862,-11.743 6.2986,-22.651 0.3303,-7.03 5.0986,-4.847 5.0986,2.337 0,6.111 1.2058,5.309 15.6749,-10.407 l 15.6752,-17.026 -6.2473,-5.084 c -8.2973,-8.906 -5.0043,-16.109 -3.6701,-27.948 l -10.1044,-2.738 c -12.9769,-3.517 -35.2746,-1.377 -66.4217,6.379 -43.5566,10.845 -91.7006,38.521 -103.4868,59.49 -11.5978,20.638 -4.2013,51.952 16.4446,69.625 15.8389,13.556 30.0365,15.833 56.5794,9.074 z m 13.1745,-109.565 c -5.3034,-5.885 -4.6049,-14.192 -1.1204,-16.348 3.0283,-1.871 11.2723,4.521 15.1324,11.733 1.6398,3.065 1.4743,5.575 -0.5265,7.986 -3.7933,4.572 -8.7972,1.831 -13.4855,-3.371 z m 18.6356,-8.88 c -4.9248,-5.934 -2.2164,-17.164 4.3638,-18.098 6.5212,-0.922 15.1018,5.735 15.1018,11.718 0,9.114 -13.5194,13.545 -19.4656,6.38 z m -99.431,15.922 c 5.6036,-6.192 3.4141,-9.218 -11.7913,-16.299 -15.2678,-7.108 -26.7615,-7.866 -25.5711,-1.684 0.8464,4.394 25.2012,22.726 30.195,22.726 1.5814,0 4.8068,-2.133 7.1674,-4.743 z m 193.5788,-27.121 c 0,-5.251 -7.1147,-4.492 -8.1468,0.866 -0.63,3.273 0.3672,4.271 3.6396,3.641 2.4789,-0.478 4.5072,-2.506 4.5072,-4.507 z m -147.2834,-22.237 c -1.4372,-13.3 -5.7537,-16.637 -5.7537,-6.604 0,8.984 2.7759,21.527 4.7642,21.527 3.2502,-5.117 1.7272,-8.097 0.9895,-14.923 z" fill="#00B894" transform="translate(135.86307,-40.224131) matrix(0.26458333,0,0,0.26458333,-1853.6783,-4442.9663)"/>
</svg>