<?xml version="1.0" ?><svg height="198.05705mm" viewBox="0 0 83.216652 198.05705" width="83.216652mm" xmlns="http://www.w3.org/2000/svg">
    <path d="m 8798.6471,-291.02006 c 0,0 8.0622,9.64692 9.4512,12.14697 1.3891,2.50004 10.2965,18.15253 10.2965,18.15253 l 14.6445,-0.76089 c 0,0 1.3589,-11.63066 6.4921,-19.7558 5.1331,-8.12517 12.7121,-12.39155 13.2857,-11.22305 0.5737,1.16848 2.5062,15.81553 1.8722,21.65803 -0.6342,5.8425 -6.3108,19.48407 -6.7035,20.57103 -0.3923,1.08699 4.3482,6.95667 1.691,12.90789 -2.6572,5.95119 -12.2894,13.96764 -12.2894,13.96764 0,0 0.7851,14.70139 3.08,19.40256 2.2948,4.7012 3.4724,17.28295 3.3515,23.09828 -0.1206,5.81533 0.6342,21.38627 2.5366,27.06574 1.9021,5.67947 4.8008,22.58198 3.8346,29.70168 -0.9663,7.11969 -2.7477,15.1589 -15.6409,15.51217 -12.8934,0.3533 -23.673,-1.40864 -28.3834,-3.93586 -4.7104,-2.52725 -9.0887,-8.99475 -9.2699,-12.88071 -0.181,-3.88594 2.2645,-7.77187 2.2645,-7.77187 0,0 -5.7671,-19.94604 -4.2875,-26.00595 1.4795,-6.05991 3.4422,-13.47854 3.4422,-13.47854 0,0 -3.6536,-2.58154 -2.023,-4.64682 1.6303,-2.06526 4.7405,-3.91311 4.7405,-3.91311 0,0 -2.1135,-4.64682 -0.785,-6.38598 1.3285,-1.73919 4.1971,-2.30984 4.1971,-2.30984 0,0 -0.5736,-4.80986 1.0869,-6.05991 1.6608,-1.25003 2.8384,-2.90767 2.8384,-2.90767 l 5.8278,-28.17989 c 0,0 -9.602,-6.65771 -12.0177,-10.81543 -2.4156,-4.15769 -3.2006,-8.01645 -2.023,-9.8915 1.1774,-1.87502 1.2983,-3.61418 1.2983,-3.61418 0,0 -5.7975,-9.42954 -6.5222,-20.16345 -0.7247,-10.73391 3.7139,-19.48407 3.7139,-19.48407 z" fill="#FFFFFF" paint-order="markers stroke fill" transform="translate(-173.59083,119.16412) translate(-8606.1878,175.97381)"/>
    <path d="m 8828.0889,-98.804585 c -0.5534,-0.704508 -1.2196,-2.487695 -1.4802,-3.962565 l -0.4739,-2.68159 -8.0013,-1.22389 c -7.7062,-1.17867 -14.7016,-3.66421 -15.8446,-5.62961 -0.3011,-0.51783 -2.0414,-0.98168 -3.8675,-1.03072 -1.8259,-0.049 -4.3359,-0.64957 -5.5779,-1.33463 -3.5264,-1.94528 -8.9787,-8.70362 -11.2603,-13.95735 -2.2283,-5.13143 -2.231,-5.22316 -0.8896,-28.89225 0.5163,-9.11321 0.5252,-9.14383 2.5867,-9.08847 4.4324,0.11901 5.8174,8.60263 2.9321,17.96158 -2.2813,7.40055 -2.3378,8.37985 -0.8129,14.07044 0.8672,3.2366 2.357,5.69696 5.5673,9.19454 2.4107,2.62648 4.595,4.57469 4.8537,4.32939 0.2589,-0.24538 0.1753,-1.95417 -0.1882,-3.79745 -0.4614,-2.34564 -0.3085,-4.28899 0.5097,-6.47591 1.0571,-2.82557 0.9798,-3.73416 -0.8064,-9.49405 -2.467,-7.95507 -2.5333,-22.39799 -0.1287,-28.11889 1.2522,-2.97957 1.2903,-3.58203 0.2827,-4.4652 -1.9411,-1.70105 -1.2834,-4.771 1.4281,-6.66526 2.3457,-1.63875 2.4189,-1.85022 1.279,-3.69619 -1.5689,-2.54063 -0.6241,-5.22449 2.2496,-6.39113 1.8061,-0.73327 2.2494,-1.46507 2.3126,-3.8189 0.059,-2.18713 0.5312,-3.09642 1.8995,-3.65383 1.1068,-0.45088 2.012,-1.73338 2.3072,-3.26817 0.2662,-1.38938 1.3647,-6.6236 2.4391,-11.63165 2.9832,-13.90526 3.3314,-13.15744 -4.6373,-9.96328 -6.5023,2.6063 -9.4654,2.99898 -9.543,1.26456 -0.032,-0.73573 4.6661,-2.78357 11.6312,-5.06887 2.0306,-0.66623 2.2564,-0.99846 1.4108,-2.0751 -1.3408,-1.7067 -3.2548,-1.67132 -10.1717,0.18806 -3.1925,0.85813 -6.6191,1.40095 -7.6152,1.2063 -1.148,-0.22435 0.8759,-1.12127 5.5303,-2.45045 4.0375,-1.15315 7.346,-2.28308 7.3521,-2.51101 0.01,-0.22781 -1.1037,-1.88054 -2.4662,-3.67246 -2.8269,-3.71792 -3.7371,-8.89837 -2.1774,-12.39517 0.8927,-2.00141 0.7201,-3.04423 -1.2948,-7.82552 -5.0209,-11.91387 -5.8855,-29.27058 -1.7321,-34.78375 1.0645,-1.41315 2.6295,-2.55075 3.478,-2.52796 0.8483,0.0228 2.9622,1.79557 4.6975,3.93959 3.1105,3.8433 4.2743,5.79173 11.7378,19.6525 2.6491,4.91989 4.1439,6.88887 5,6.58649 0.6716,-0.23729 3.1979,-0.37838 5.614,-0.31351 l 4.393,0.11796 1.0766,-4.70339 c 3.8986,-17.03126 22.0567,-35.22352 23.5648,-23.60941 1.1701,9.00991 2.4031,21.84065 2.3367,24.31389 -0.1106,4.11859 -3.4647,13.5109 -5.4512,15.26441 -1.6067,1.41828 -1.6266,1.64059 -0.4228,4.75379 1.6173,4.18277 0.9268,10.16719 -1.5527,13.45858 -1.0251,1.36083 -1.8685,2.64893 -1.8742,2.8624 -0.01,0.21342 2.8915,0.71994 6.4382,1.12551 6.2879,0.71901 9.3841,1.73738 7.9024,2.59909 -0.4038,0.23488 -3.9955,-0.0422 -7.9814,-0.6156 -11.9119,-1.71366 -13.3038,0.14304 -1.9331,2.57815 3.187,0.68249 6.9019,1.85734 8.2553,2.6108 4.151,2.31074 0.4419,2.09814 -7.75,-0.44418 -9.1822,-2.84982 -10.1369,-2.89044 -12.4757,-0.53087 -2.9054,2.93069 -2.7025,8.91636 0.5754,16.9885 4.4486,10.95508 5.341,15.55524 4.5,23.19334 -0.4066,3.69116 -0.7531,8.02202 -0.7699,9.62423 -0.061,5.76531 2.1455,17.89383 4.8493,26.65543 2.4537,7.95173 2.7411,9.93605 2.6206,18.08588 -0.1655,11.16783 -1.8635,16.27551 -6.0759,18.2763 -1.4653,0.69602 -2.79,1.36884 -2.944,1.49521 -0.1544,0.12635 0.3177,2.3195 1.0482,4.87371 1.0918,3.81861 1.1311,4.868478 0.2213,5.906848 -2.5218,2.87753 -5.339,0.960529 -7.4414,-5.063208 -0.9938,-2.84725 -1.5516,-3.42031 -3.1907,-3.27781 -2.745,0.23874 -2.9148,0.55507 -2.0215,3.771 1.2436,4.476703 -1.5286,7.340945 -4.0269,4.16078 z m -9.2144,-14.996945 c 0.7395,-0.99785 1.3769,-3.32226 1.4161,-5.16536 0.065,-3.30612 0.051,-3.32771 -1.4136,-1.61521 -2.9817,3.48551 -9.0511,4.65808 -11.0355,2.13198 -0.8256,-1.05092 -0.5267,-1.14942 2.0191,-0.66584 2.7121,0.51516 3.3091,0.24793 6.4614,-2.8924 3.1447,-3.1329 3.4273,-3.74537 2.9902,-6.47799 -0.7306,-4.56801 -1.2254,-4.82584 -3.0093,-1.56737 -0.8988,1.64193 -2.5552,3.55397 -3.6807,4.24894 -2.2564,1.39345 -6.4196,1.1644 -6.8801,-0.37849 -0.1862,-0.62441 0.326,-0.80317 1.4044,-0.48998 2.3898,0.69395 5.6055,-1.54629 7.6747,-5.34666 2.0319,-3.73171 2.1717,-4.91295 0.9298,-7.84509 -0.8935,-2.10906 -0.9134,-2.09586 -2.8958,1.89822 -2.0481,4.1265 -4.0988,5.76303 -7.1194,5.68192 -2.3041,-0.0619 -2.1627,-1.53747 0.1736,-1.81068 3.6425,-0.42586 7.5816,-8.54992 6.5003,-13.40658 -0.6193,-2.78137 -1.4374,-2.6711 -2.8917,0.38983 -1.5725,3.30971 -4.8719,5.25451 -7.7991,3.54747 -2.9487,-1.68783 -2.3688,-2.24939 0.6473,-1.61279 3.535,0.74618 6.2245,-2.44011 6.3613,-7.53638 0.054,-1.99734 0.4718,-3.6215 0.9293,-3.60921 0.4577,0.0123 0.8236,0.33533 0.8133,0.71782 -0.01,0.38248 1.2243,2.38248 2.7435,4.44448 3.115,4.22825 6.974,13.45352 8.6505,20.6793 1.2839,5.53396 1.2757,13.85235 -0.016,16.11685 -1.0248,1.79755 -0.048,2.75054 2.0566,2.00693 1.2411,-0.43841 1.3826,-1.26625 1.0275,-6.011 -0.2265,-3.02639 -1.2082,-9.08299 -2.1818,-13.45916 -1.7197,-7.73078 -4.2016,-23.88909 -4.9188,-32.02547 -0.4328,-4.90582 1.5155,-9.96306 3.6561,-9.49092 1.5532,0.3426 1.6329,0.69723 5.8874,26.2386 1.5547,9.33329 2.717,19.58393 2.8165,24.84365 l 0.1697,8.95431 2.478,0.0665 c 1.9336,0.0519 2.3732,-0.22999 2.0011,-1.28349 -1.7634,-4.99175 -1.6692,-59.5399 0.1056,-61.2239 0.7205,-0.68369 1.3345,-0.73194 1.8875,-0.14851 1.5124,1.59594 3.0063,14.0231 3.4023,28.30415 0.8757,31.5705 0.9133,32.07723 2.3879,32.11682 1.6324,0.0438 3.555,-2.32573 4.0649,-5.01072 0.4823,-2.53887 0.3076,-3.10952 -1.0943,-3.59661 -0.9173,-0.3184 -1.8676,-1.14517 -2.1121,-1.8372 -0.3376,-0.95552 0.093,-1.18666 1.7926,-0.96084 3.3127,0.44037 3.5632,-2.1318 0.3789,-3.88839 -1.3815,-0.76222 -2.4974,-1.93779 -2.4793,-2.61239 0.039,-1.45426 0.4477,-1.5016 2.5605,-0.29686 1.4246,0.81246 1.5937,0.61433 1.6625,-1.94763 0.052,-1.93107 -0.3811,-3.04196 -1.3414,-3.44019 -1.1835,-0.49109 -1.2186,-0.70403 -0.2121,-1.28918 1.0366,-0.60286 1.0331,-1.32495 -0.024,-5.15922 -0.6763,-2.45207 -1.4388,-5.6502 -1.6942,-7.10694 -0.2555,-1.45678 -1.0903,-2.90933 -1.8551,-3.22783 -1.2038,-0.50137 -1.2206,-0.66848 -0.1248,-1.24471 1.054,-0.55385 1.2108,-2.04264 0.9341,-8.86874 -0.4479,-11.05522 -1.1259,-21.12875 -1.4225,-21.13671 -0.1345,-0.004 -1.3961,1.08644 -2.8055,2.42228 -1.4095,1.33582 -3.3405,2.4079 -4.2909,2.38238 -2.3209,-0.0623 -2.1663,-0.61613 0.8396,-3.01075 6.399,-5.09738 7.6257,-10.23782 2.7105,-11.35886 -2.0741,-0.47302 -2.8718,-1.51328 -5.2053,-6.78791 -1.9934,-4.50595 -2.7667,-7.52441 -2.7947,-10.91056 -0.036,-4.45351 -0.1447,-4.68421 -2.219,-4.74122 -2.1529,-0.0578 -2.1723,-0.01 -1.5307,3.912 1.0828,6.61709 -2.3478,19.33204 -5.7499,21.31034 -1.5933,0.92666 -1.9321,-0.42432 -0.486,-1.93846 2.3884,-2.50093 3.9861,-7.05556 4.716,-13.44466 0.9419,-8.24393 0.3131,-9.72023 -4.9624,-11.66578 l -4.2832,-1.57929 -0.149,4.65511 c -0.08,2.97806 -0.9925,6.73257 -2.5017,10.41973 -1.2976,3.17046 -2.3734,7.10262 -2.3906,8.73814 -0.042,3.94238 2.3974,8.87083 6.5673,13.2709 2.8046,2.9595 3.1084,3.579 1.7361,3.54215 -2.1653,-0.0581 -6.2906,-4.55327 -8.3345,-9.08196 -1.0854,-2.40432 -2.0136,-3.44087 -2.8248,-3.15434 -2.1782,0.76949 -1.3424,2.70653 3.5758,8.28625 2.6662,3.02484 4.8374,5.88345 4.8248,6.35259 -0.048,1.79226 -1.9364,0.65203 -5.7347,-3.46312 -3.9931,-4.32593 -6.3718,-5.26858 -8.1563,-3.23223 -0.7749,0.88417 -0.2539,2.07031 2.4541,5.57899 8.1556,10.57023 10.9029,16.56077 8.5973,18.74584 -0.988,0.93649 -1.2128,0.54019 -2.0337,-3.58616 -0.5165,-2.59686 -8.2346,-13.54177 -9.5748,-13.57776 -0.5398,-0.0145 -1.4545,0.68781 -2.0329,1.56063 -0.9041,1.36484 -0.66,2.08152 1.7437,5.12079 2.8668,3.62489 3.3923,5.3917 1.8671,6.2786 -0.4771,0.27754 -1.238,-0.65737 -1.6908,-2.07758 -0.4525,-1.42018 -1.1606,-2.5912 -1.5736,-2.60229 -0.4127,-0.0111 -0.7552,0.14869 -0.7607,0.3552 -0.01,0.20635 -0.6191,2.48018 -1.3633,5.05272 -2.1007,7.26029 0.7278,10.45814 5.2315,5.91478 3.5953,-3.62673 4.8246,-1.52643 1.4696,2.51072 -1.6005,1.92633 -2.2673,2.15207 -4.8984,1.65849 l -3.0458,-0.57123 0.5076,4.67998 c 0.2792,2.57404 1.4607,7.67468 2.6257,11.3348 2.0666,6.49327 2.0808,6.714 0.5855,9.09704 -1.8511,2.9498 -1.4376,6.03528 1.3431,10.02432 1.0791,1.5481 1.9499,3.27347 1.9349,3.83417 -0.028,1.05629 5.9461,3.48153 10.2944,4.17893 1.3678,0.21939 2.745,0.46196 3.0604,0.53899 0.3153,0.0771 1.1785,-0.67625 1.9182,-1.67404 z m 9.6538,-74.54437 c -1.1801,-0.98072 -2.1357,-2.15709 -2.1234,-2.61412 0.012,-0.45705 0.5949,-0.22686 1.2946,0.5115 1.6106,1.69946 4.7852,1.81523 6.1785,0.22512 1.3548,-1.5461 2.5389,-1.53666 2.4971,0.0196 -0.034,1.28428 -3.1754,3.70837 -4.7503,3.66609 -0.5228,-0.014 -1.9162,-0.82798 -3.0965,-1.80869 z m -0.3547,-5.75777 c -1.5863,-1.67361 -2.2027,-5.07348 -0.9139,-5.03887 0.3493,0.009 0.9817,0.86931 1.4057,1.91096 0.5329,1.30892 1.3513,1.82906 2.6499,1.68391 2.3197,-0.25935 2.4226,1.20427 0.1637,2.33598 -1.3252,0.66408 -2.0053,0.4806 -3.3061,-0.892 z m -12.3864,-4.49975 c 0.014,-0.52579 0.5037,-1.76146 1.088,-2.74587 0.5843,-0.98448 1.3748,-5.3407 1.7564,-9.68048 l 0.6937,-7.89044 1.3336,3.1311 c 1.8695,4.38956 1.5398,9.69762 -0.8678,13.96858 -1.9495,3.45886 -4.0558,5.15119 -4.0039,3.21711 z m 22.6296,-5.19656 c -0.8018,-2.92944 -1.6392,-7.86142 -1.8606,-10.95991 l -0.4029,-5.63357 c -1.6038,1.16567 -2.7643,1.40036 -4.8406,1.68518 -0.038,1.42491 3.4857,13.35528 4.7058,15.93148 1.4784,3.1217 3.0518,5.0655 3.6448,4.50343 0.1163,-0.11016 -0.4447,-2.59711 -1.2465,-5.52661 z m -5.211,-23.40013 c 0.023,-0.86616 -0.5136,-1.80539 -1.1928,-2.08723 -1.866,-0.77412 -1.4413,-2.18093 0.9059,-3.00199 2.5438,-0.88978 4.8554,-0.0789 4.1784,1.46565 -1.6392,3.74012 -1.5392,3.90302 1.0131,1.65184 1.9671,-1.73528 2.4519,-2.64171 1.8337,-3.42876 -0.6351,-0.80834 -0.2878,-1.12065 1.421,-1.27758 1.6958,-0.15577 2.8214,-1.15225 4.4976,-3.98244 1.9371,-3.27006 2.1405,-4.21068 1.5218,-7.03575 -0.6476,-2.95763 -0.9652,-3.26693 -3.4168,-3.32547 -3.1572,-0.0758 -3.3883,-0.76026 -0.8277,-2.45327 1.591,-1.05178 1.7218,-1.50778 0.9532,-3.32203 -1.1732,-2.7702 0.033,-3.35257 2.5748,-1.24148 l 2.0365,1.69237 1.5653,-5.56162 c 1.3073,-4.64442 1.6823,-7.67159 1.318,-18.3318 -0.2264,-6.62482 1.1103,-14.51455 -3.6075,-9.67103 -1.7543,1.80101 -4.7473,5.71975 -6.4423,8.92271 -3.9995,6.48975 -2.9882,6.87355 -2.3194,14.37899 0.5686,6.37979 0.5099,9.07277 -0.2303,10.58949 -1.3839,2.83359 -3.8519,2.14848 -3.9365,-1.09289 -0.1915,-7.31839 -0.2958,-8.28304 -0.6988,-6.4556 -0.2918,1.32194 -0.9975,1.84642 -2.4328,1.80788 -1.1122,-0.0299 -2.0243,0.0394 -2.0272,0.15372 0,0.11438 0.6973,2.21744 1.556,4.67341 1.4678,4.19739 1.4044,6.5926 -0.1497,5.57505 -0.3773,-0.24742 -1.2884,-2.56163 -2.0246,-5.14263 -1.2111,-4.24482 -2.8509,-6.34762 -4.0584,-5.20342 -0.2494,0.23626 0.057,1.50832 0.6779,2.82675 0.6221,1.31849 1.2955,4.03073 1.4963,6.02717 0.2058,2.04556 1.1263,4.48472 2.1086,5.58838 1.2957,1.45569 1.4744,2.11498 0.6955,2.56787 -1.6909,0.98337 -4.5591,-3.3605 -5.0928,-7.71312 -0.5218,-4.25598 -2.571,-9.60525 -3.6909,-9.63532 -0.379,-0.0102 -1.4698,0.42885 -2.424,0.9756 -1.508,0.86428 -1.9508,0.71645 -3.3904,-1.13172 -2.8548,-4.42262 -1.4577,-0.31363 -1.1812,2.21936 0.5155,4.72361 0.033,6.24836 -1.7459,5.5105 -1.7446,-0.72367 -3.6066,-6.63253 -3.4875,-11.06764 0.1728,-6.43382 -1.56,-11.87059 -6.0078,-18.8499 -2.301,-3.61044 -4.4129,-6.57064 -4.6936,-6.57818 -1.279,-0.0344 -0.131,21.50886 1.4978,28.10923 l 1.6994,6.8849 2.492,-1.98532 c 4.1496,-3.30543 5.384,-2.35425 1.92,1.47937 -1.6884,1.86872 -3.0782,3.70462 -3.0883,4.07979 -0.01,0.3752 1.2504,0.71623 2.8013,0.75788 1.664,0.0447 4.0642,0.78789 5.3666,1.61337 2.0016,1.2686 2.4062,2.26708 -0.78,1.53857 -7.6503,-1.74925 -8.0373,-1.75858 -8.485,-0.20422 -0.7791,2.70234 0.097,3.61182 3.567,3.70501 2.8926,0.0777 3.2116,0.25992 2.2912,1.31034 -0.5881,0.67105 -1.6307,1.205 -2.3171,1.18657 -0.9863,-0.0265 -1.0481,0.22076 -0.2949,1.1797 0.7441,0.94723 1.5036,1.0378 3.4634,0.413 3.3089,-1.05468 4.0151,-0.19308 1.0379,1.26638 l -2.3428,1.14843 2.5751,1.42055 c 1.4164,0.78132 3.809,1.50469 5.3171,1.60757 1.9515,0.13313 2.5227,0.94081 1.1836,1.16166 -2.6445,0.43608 -2.6925,0.86039 0.3538,2.01493 3.4887,1.32224 3.5053,1.31945 6.5368,-1.09539 3.6317,-2.8932 4.2755,-1.73138 0.7369,1.33046 -2.3185,2.00621 -2.5542,2.47074 -1.2706,2.50521 0.8669,0.0233 2.328,-0.59311 3.2471,-1.3698 1.6125,-1.36267 1.6489,-1.34714 1.0382,0.44418 -0.585,1.71538 -0.3764,1.8631 2.7508,1.94707 2.7655,0.0743 3.3916,-0.19697 3.4262,-1.484 z m -16.2489,-8.22636 c -1.6639,-2.13906 -1.3899,-5.83727 0.57,-7.69481 2.6199,-2.48297 10.265,0.50265 10.1719,3.97251 -0.082,3.0479 -2.586,4.982 -6.3202,4.88173 -1.9772,-0.0531 -3.9668,-0.57483 -4.4217,-1.15943 z m 3.2543,-3.91629 c 0.04,-1.48475 -0.2839,-2.34001 -0.7775,-2.05306 -0.4651,0.2705 -0.87,1.40564 -0.9,2.52261 -0.03,1.11686 0.3196,2.04075 0.7772,2.05304 0.4577,0.0123 0.8627,-1.12287 0.9003,-2.52259 z m 4.2254,-1.04443 c -1.591,-2.02519 -2.2382,-1.60638 -1.8994,1.2292 0.277,2.32061 0.4395,2.45429 1.6215,1.33413 1.0812,-1.02459 1.1302,-1.47828 0.2788,-2.5633 z m 11.1917,2.6969 c -1.5221,-1.60599 -1.5729,-5.69426 -0.085,-6.80192 0.5843,-0.43475 2.4689,-0.96795 4.1884,-1.18496 5.3027,-0.66911 7.2088,3.09354 3.704,7.31118 -2.0512,2.4684 -5.8009,2.79292 -7.8073,0.6757 z m 2.5926,-2.4366 c -0.2583,-0.73126 -0.4583,-1.74815 -0.4446,-2.2598 0.017,-0.63993 -0.2505,-0.66927 -0.8574,-0.0941 -1.0045,0.95192 -0.3168,3.62741 0.9396,3.66114 0.4577,0.0123 0.6208,-0.57594 0.3624,-1.30719 z m 3.4391,-2.28127 c -0.2559,-0.72449 -0.8916,-1.32869 -1.4125,-1.34268 -0.5216,-0.014 -0.7361,0.57159 -0.4772,1.30411 0.2581,0.73117 0.4583,1.74809 0.4446,2.25979 -0.018,0.67861 0.2367,0.68215 0.9426,0.0135 0.5323,-0.50441 0.7584,-1.50988 0.5025,-2.23437 z m -22.637,-7.94851 c -0.8869,-1.14007 -1.2165,-2.81276 -0.9481,-4.81249 0.1531,-1.13419 3.1747,3.83603 3.2169,5.28971 0.028,0.98437 -1.3589,0.69257 -2.2688,-0.47722 z" fill="#00B894" transform="translate(-173.59083,119.16412) translate(-8606.1878,175.97381)"/>
</svg>