<?xml version="1.0" ?><svg height="197.16733mm" viewBox="0 0 207.12383 197.16733" width="207.12383mm" xmlns="http://www.w3.org/2000/svg">
    <path d="m 36506.027,2365.8477 c -30.826,2e-4 -68.144,5.8409 -92.054,15.6601 -34.78,14.2828 -81.554,38.4076 -92.922,73.1524 -11.368,34.7447 23.75,63.9179 23.75,63.9179 -21.56,19.9712 -16.934,79.8047 -16.934,79.8047 0,0 -53.014,24.1093 -51.664,49.332 1.351,25.2229 59.992,33.1231 59.992,33.1231 0,0 -6.078,29.9849 5.065,49.5351 11.143,19.5503 59.767,22.6895 59.767,22.6895 0,0 -3.151,52.8773 0,73.8457 3.152,20.9684 44.624,80.0431 94.702,86.6133 53.441,7.0115 64.454,-15.2 112.654,-28.4277 48.201,-13.2281 65.172,-49.3653 65.172,-49.3653 0,0 86.19,-0.5131 120.97,-3.248 34.78,-2.735 90.269,-26.4386 122.797,-56.625 32.528,-30.1864 34.14,-73.5686 -0.271,-104.8282 -34.411,-31.2597 -185.178,-16.5742 -185.178,-16.5742 0,0 -40.227,-67.3128 -54.859,-72.6816 -14.632,-5.3687 -65.733,-13.3711 -65.733,-13.3711 0,0 20.148,-74.0481 18.684,-88.6348 -1.463,-14.5867 -6.415,-43.2535 -12.043,-55.0039 -5.628,-11.7504 -45.473,-46.7992 -75.75,-55.1055 -9.462,-2.5954 -22.131,-3.8063 -36.143,-3.8085 z m 477.114,110.58 c -23.898,0.1937 -69.021,9.1646 -76.059,49.8321 -7.767,44.8743 21.385,61.7914 54.59,73.8457 0,0 42.433,0.9114 70.797,-43.2539 28.365,-44.1654 -21.836,-78.7072 -42.658,-80.2266 -1.953,-0.1425 -4.198,-0.2173 -6.67,-0.1973 z m -181.315,471.5567 c -18.897,0.4448 -53.034,16.0846 -65.158,38.3379 -13.379,24.5551 -4.432,62.4937 12.281,81.8379 42.814,24.0816 76.723,4.8164 76.723,4.8164 0,0 14.195,10.6608 24.346,9.789 10.149,-0.8718 21.865,3.2944 32.986,4.541 11.121,1.2467 30.436,-7.0595 39.656,-9.7128 9.219,-2.6534 19.126,-21.396 24.082,-32.2129 4.957,-10.8169 13.204,-43.2679 -17.371,-71.4551 -30.574,-28.1872 -87.644,-7.1856 -87.644,-7.1856 0,0 -17.635,-15.3172 -34.567,-18.3964 -1.587,-0.2887 -3.379,-0.4054 -5.334,-0.3594 z m -289.717,3.7187 c -2.937,-0.027 -5.914,0.1423 -8.884,0.5664 -23.76,3.3927 -53.424,28.793 -62.748,49.5957 -9.326,20.8029 -7.839,52.4538 7.886,62.4981 26.141,20.2224 58.283,6.8301 58.283,6.8301 0,0 37.203,15.2235 56.647,16.9199 19.445,1.6964 57.243,0.625 70.834,-7.7676 13.591,-8.3925 19.988,-42.0073 11.506,-73.6133 -8.482,-31.6059 -21.924,-41.4274 -40.375,-47.2754 -18.453,-5.8479 -54.018,2.2774 -54.018,2.2774 0,0 -18.571,-9.8433 -39.131,-10.0313 z" fill="#FFFFFF" transform="translate(17.22955,24.643466) translate(-8087.654,681.28704) matrix(0.26458333,0,0,0.26458333,-1524.344,-1328.9457)"/>
    <path d="m 8144.1982,-510.09257 c -0.9982,-0.75017 -3.1315,-1.70139 -4.7407,-2.11384 -1.6099,-0.41248 -5.6734,-1.8303 -6.8587,-3.18868 -3.7472,-6.06144 -1.8063,-16.54893 1.1786,-22.16758 2.957,-5.50176 9.9105,-9.58714 15.039,-10.41852 2.5918,-0.42012 2.7331,-0.70731 3.5057,-7.09638 0.6776,-5.60596 0.5571,-6.85603 -0.7621,-7.90811 -2.4468,-1.95071 1.9509,-3.79883 5.3459,-2.5296 2.6216,0.97969 3.6157,0.70712 3.7947,9.29056 l 0.1438,6.897 2.0723,0.48531 c 4.2499,0.99528 8.3429,6.91442 10.8929,13.49648 2.6386,6.81128 1.6399,17.06479 -1.919,19.9056 -1.3331,1.06393 -2.159,2.37086 -2.5322,3.24578 -0.3732,0.87495 -1.382,1.565 -2.2426,1.53341 -1.2534,-0.046 -2.5956,-1.7663 -2.0271,-4.1529 0.8121,-3.40569 1.7603,-4.56245 2.3114,-2.8204 0.9829,3.10834 2.1311,0.6516 2.3386,-5.00431 0.3144,-8.56563 -1.1238,-13.29926 -5.5541,-18.27543 -3.5946,-4.03852 -3.938,-4.20178 -7.9235,-3.76908 -5.7119,0.62021 -11.9379,3.40491 -14.19,6.3466 -4.3887,5.73257 -6.4896,15.22654 -4.3758,19.77389 1.1963,2.57288 3.7279,4.10676 2.9293,1.77491 -0.6601,-1.93047 1.6415,-3.10741 2.5624,-1.31003 0.4025,0.78458 1.5522,2.48188 2.5555,3.77186 2.4377,3.23794 1.8893,2.78072 1.3651,-0.74408 -0.5591,-3.75786 0.2945,-3.8513 3.644,-0.39847 3.1469,3.24423 3.2073,5.14067 0.1599,5.02884 -1.2675,-0.0465 -2.5827,0.33066 -2.9225,0.83815 -0.8286,1.23614 -1.6302,1.13228 -3.7902,-0.49098 z m 12.9918,-1.80461 c -0.5872,-0.21986 -1.0195,-1.7048 -0.9609,-3.29986 0.105,-2.8606 0.1304,-2.87543 1.9711,-1.08374 1.8224,1.77475 1.8789,1.76937 2.4832,-0.23505 0.3395,-1.12832 1.0061,-2.0372 1.4807,-2.01978 1.4526,0.0533 1.7896,2.44292 0.7053,5.00725 -0.9681,2.28825 -2.6415,2.7691 -5.6794,1.63118 z m -40.6965,-4.58101 c -4.6095,-3.26931 -4.5076,-7.2994 -4.2937,-11.91134 0.4434,-9.60179 7.0762,-18.37478 15.9386,-21.08289 3.4881,-1.0658 6.2432,-0.35913 7.0116,-4.60476 0.7039,-3.88477 0.5625,-4.74726 -0.9647,-5.90308 -2.0009,-1.51354 -2.3281,-4.10429 -0.5094,-4.03211 0.649,0.0263 2.5861,0.97601 4.3028,2.1116 2.3278,1.53867 5.005,1.96237 4.1778,2.73059 -1.7099,1.58871 -0.2229,8.63369 1.5132,10.69909 1.4262,1.6976 -2.2664,2.7018 -5.5793,2.58023 -9.8516,-0.36152 -17.7897,6.96401 -19.3174,17.68477 -0.7269,5.10308 0.1369,8.697 1.8504,6.01892 1.5571,-2.43239 2.5818,-1.90835 2.9872,1.52774 0.2001,1.69728 0.6353,4.05319 0.9669,5.23531 0.978,3.4892 -1.4702,3.63672 -6.9457,-0.2467 z m 9.4763,-0.23967 c -0.4765,-1.40712 -0.5798,-3.21903 -0.2289,-4.02644 0.5162,-1.18758 1.0542,-0.91093 2.8171,1.44817 2.6609,3.56117 2.7246,5.29981 0.1898,5.2068 -1.203,-0.0442 -2.2327,-1.01819 -2.778,-2.62853 z m 105.3723,4.2921 c -1.472,-2.276 -1.7815,-4.60508 -0.5972,-4.50467 1.6292,0.13802 5.9217,4.78585 5.2911,5.72799 -1.1019,1.64437 -3.1904,1.10005 -4.6939,-1.22332 z m -25.9635,-0.6828 c -1.5933,-1.09214 -1.6408,-9.68038 -0.056,-10.16681 0.5853,-0.17979 1.2809,1.07995 1.5456,2.79923 0.2648,1.71925 0.7031,4.304 0.974,5.7439 0.5113,2.71259 -0.1912,3.17825 -2.463,1.62368 z m 17.4922,0.0421 c -1.5347,-1.65235 -1.8021,-7.08929 -0.3453,-7.03582 0.4845,0.0178 1.1035,0.83528 1.3755,1.81666 0.2719,0.98135 1.3063,2.57428 2.2974,3.53979 0.9912,0.9655 1.7893,2.11453 1.7731,2.55331 -0.05,1.35594 -3.5923,0.74892 -5.1007,-0.87394 z m -22.7774,-1.05612 c -0.5076,-0.38034 -3.9303,-1.22824 -5.5384,-3.99056 -2.3863,-4.09656 -4.9129,-8.28735 -4.3748,-12.4624 1.375,-10.67045 5.7475,-17.3131 14.0884,-20.35307 l 0.5469,-11.14663 0.478,-13.02529 -8.0814,-0.60309 c -10.9295,-0.81563 -13.2118,-0.65982 -13.1274,-2.96214 0.071,-1.93082 2.4355,-2.38797 14.9107,-2.88255 6.3325,-0.251 14.286,-1.20268 17.6757,-2.11477 5.8646,-1.57839 6.2475,-1.86064 7.9412,-5.84944 2.3334,-5.49504 4.1693,-5.55591 3.4133,-0.11298 -0.3167,2.28945 0.6972,2.11717 6.1855,-1.05028 9.6385,-5.56139 13.2408,-10.10026 13.494,-17.00237 0.2183,-5.94941 -2.5423,-10.2241 -8.7509,-13.54906 -4.6524,-2.4916 -6.1417,-2.78349 -16.6127,-3.25515 -6.327,-0.28499 -14.748,-0.28739 -18.7147,-0.006 l -7.2123,0.51252 -0.2336,9.14121 c -0.2416,9.44864 -1.1955,14.3057 -2.8019,14.24675 -0.5093,-0.0187 -3.5827,0.0593 -2.4333,-4.63652 1.7336,-22.55342 -0.6837,-37.93143 -22.6995,-42.10178 -1.3435,-0.4785 -1.1863,-2.68491 -0.3454,-3.46623 15.7607,0.38475 24.8446,8.45234 26.4061,17.30787 0.6421,2.46721 1.5979,4.07944 2.3747,4.00444 0.7154,-0.0692 6.5643,-0.65607 12.9975,-1.30456 13.5394,-1.36486 26.2552,1.36215 30.7412,3.89442 2.8225,1.59344 3.0137,1.57306 5.8271,-0.62325 2.7768,-2.16796 6.1764,-8.16881 6.2632,-10.53386 0.022,-0.615 -0.4616,-1.13659 -1.0767,-1.15916 -0.6151,-0.0226 -2.9247,-0.99908 -5.1335,-2.17004 -7.4151,-3.93161 -11.4412,-16.62834 -7.5924,-23.70066 5.5412,-10.18252 9.9511,-8.64381 14.1009,-10.77784 1.2429,-0.63901 2.9787,0.51778 3.9368,1.07665 1.0043,0.58576 2.5681,0.42633 4.523,-0.46095 1.6434,-0.74597 3.6914,-1.19299 4.5516,-0.9933 3.0209,0.70183 2.1266,2.44452 -1.776,3.45937 -2.169,0.56413 -4.5455,1.23148 -5.28,1.48306 -0.8023,0.27433 -1.3149,-0.14929 -1.2816,-1.0583 0.042,-1.14679 -1.0924,-0.75282 -4.6623,1.6186 -2.5958,1.72381 -5.1884,3.117 -5.7623,3.09594 -1.7518,-0.0643 -4.1204,5.19316 -4.2738,9.48682 -0.3865,10.53343 9.903,16.78555 19.9,12.10142 2.1043,-0.98602 5.1364,-3.07423 6.7379,-4.64046 2.5219,-2.46665 3.258,-3.68267 3.5076,-9.22517 0.1242,-2.75771 1.2484,-6.05396 -3.2135,-8.26593 -2.0945,-1.03861 -3.7963,-2.22012 -3.7814,-2.62553 0.05,-1.34259 3.5567,-1.74354 6.0456,-0.69118 2.3324,0.98605 2.8362,1.96569 2.3863,4.63888 -0.1101,0.65314 0.4228,2.15003 1.1843,3.32644 1.9485,3.01126 3.0663,9.95166 0.5083,14.77698 -2.2725,4.28539 -8.8641,8.49959 -13.7996,9.39522 -2.0736,0.3763 -2.8118,1.27235 -3.8591,4.68112 -0.8773,2.85558 -2.2289,5.21915 -5.145,7.79077 l -4.6711,4.11924 1.3081,2.33191 c 4.993,6.44739 5.5556,15.21284 1.459,22.73049 -3.112,5.70913 -8.3516,10.133 -17.2149,14.53447 -5.7787,2.86902 -4.8151,3.45824 -4.9093,5.98233 -0.1343,3.66139 1.4073,12.66799 4.2666,21.46089 l 1.9603,6.02825 2.4213,0.29723 c 10.4542,1.28332 19.5314,12.37672 17.2936,22.62209 -0.7642,3.49809 -4.6959,8.64584 -7.2522,8.55203 -2.1298,-0.0782 -2.1555,-1.00193 -0.1481,-5.35108 4.3556,-9.43487 -1.284,-19.31272 -12.0991,-21.19088 -3.5998,-0.6252 -4.7196,-0.34095 -8.9508,2.27273 -4.3666,2.69679 -3.5213,2.94916 -5.8781,9.08273 -1.7116,4.45518 -2.2833,7.03803 -1.6595,7.50248 0.523,0.38959 1.3113,2.95511 1.752,5.70118 0.6495,4.04873 -1.0102,5.6827 -2.0453,5.64472 -0.7011,-0.0257 -1.6095,-1.03379 -2.0181,-2.24011 -0.4094,-1.20637 -1.4045,-2.78401 -2.2117,-3.50592 -3.1069,-2.77693 -0.2452,-18.56436 4.0131,-22.14337 2.7463,-2.30782 2.5036,-3.04784 -1.2808,-3.90255 -4.3417,-0.98062 -8.1101,0.50442 -13.4,5.2816 -4.9782,4.49504 -7.0994,9.59772 -6.239,15.00752 l 0.5827,3.6579 0.9973,-2.56329 c 0.5476,-1.40987 1.5164,-2.54427 2.1522,-2.52094 0.8268,0.0304 1.012,1.95322 0.6525,6.76538 -0.5444,7.2782 -0.6571,7.64229 -2.0439,6.60444 z m 26.7239,-33.52859 c 1.6351,-1.10553 1.6518,-1.3821 0.3026,-4.95238 -1.904,-5.03492 -4.5433,-18.25345 -4.4108,-22.09022 0.1256,-3.42295 -0.1367,-3.51596 -6.1344,-2.23737 -3.2458,0.69168 -4.399,1.43646 -4.9004,3.1638 -0.7069,2.43518 0.2625,20.46125 1.1887,22.08988 0.3088,0.54319 1.4924,1.02402 2.6299,1.06849 1.1375,0.0443 3.3133,0.94411 4.8342,1.99915 3.3634,2.3327 4.2634,2.46564 6.4918,0.95871 z m -15.6051,33.56256 c -1.1852,-1.27562 -1.3423,-6.51107 -0.1913,-6.38356 1.3176,0.1459 4.8813,5.77111 4.2516,6.7105 -0.8435,1.25888 -2.7279,1.10716 -4.0603,-0.32694 z m 25.2945,0.098 c -0.5383,-1.10036 -0.6758,-2.70082 -0.3058,-3.55657 0.5898,-1.36241 0.8894,-1.2704 2.4102,0.73977 0.9545,1.26261 1.7145,2.8859 1.688,3.60727 -0.074,2.00784 -2.6912,1.46225 -3.7924,-0.79047 z m 5.8304,0.0272 c -0.3337,-0.3589 -1.7164,-3.16847 -1.6394,-4.76891 0.1745,-3.80369 1.4245,-2.58559 3.6104,0.24311 0.976,1.26338 2.0282,2.10454 1.727,3.60871 -0.6422,3.20666 -3.0058,1.62384 -3.698,0.91709 z m -117.7715,-42.74739 c -14.2626,-5.83249 -21.3935,-19.84014 -20.9201,-31.09732 0.4324,-9.75381 1.5794,-18.21067 5.4234,-22.27826 2.6924,-2.8483 4.409,-3.70646 3.1565,-7.04455 -3.5175,-9.36907 1.8039,-37.2028 7.7589,-40.58803 1.2665,-0.71979 3.1598,-0.14489 0.155,9.29788 -2.7215,8.5572 -2.8316,26.39527 -2.4594,32.58773 0.2551,4.24349 2.5028,5.72029 -1.7256,4.49281 -4.6213,0.47137 -5.952,15.70547 -6.3898,20.54949 -0.5498,14.11679 9.7476,23.03808 19.1708,28.69341 5.9213,3.5537 5.0505,9.1573 -1.9302,6.30262 z m 19.3711,-3.33889 c -1.4361,-1.15635 -0.9151,-5.08543 1.0584,-4.15213 0.9416,0.44527 5.7521,2.26335 5.7991,3.32453 0.1739,3.92483 -4.7679,2.51026 -6.1076,1.43145 z m 17.6876,-5.54806 c -0.9012,-0.23514 -2.7441,-0.21488 -2.2876,-2.38831 0.225,-1.07122 3.4402,-1.69907 4.7645,-1.24291 6.302,2.17071 0.6672,4.4517 -2.4769,3.63122 z m 8.013,-5.82061 c 0.026,-0.72296 0.7259,-2.11545 1.5533,-3.09443 1.4357,-1.69791 3.3285,-1.14022 2.9855,1.48318 -0.3543,2.72858 -4.6313,4.13251 -4.5388,1.61125 z m 7.643,-9.8865 c 0.1153,-3.14097 2.7919,-4.45093 3.5733,-2.16916 0.9175,2.68261 0.048,6.94551 -1.3881,7.16924 -3.2083,0.49973 -2.2527,-3.16129 -2.1852,-5.00008 z m 6.0629,-2.90156 c -0.6358,-1.90217 -1.1909,-10.07669 2.2686,-7.62348 1.0655,0.75554 1.0371,7.59911 0.1383,8.5598 -1.2142,1.2979 -2.0547,0.11763 -2.2402,-0.4373 z m 4.7681,-7.35649 c -0.7511,-4.53104 0.035,-8.71008 1.685,-8.96567 1.8867,-0.292 3.0533,5.02914 1.9426,8.85623 -0.8472,2.91593 -3.1503,2.98548 -3.6276,0.10941 z m -94.8673,-9.80179 c -0.5345,-1.09314 -1.754,-2.01625 -2.7105,-2.05135 -3.3236,-0.12196 -4.78,-4.26863 -3.564,-10.15186 0.8283,-4.21235 1.0601,-3.4631 -4.0534,-4.37996 -3.7718,-0.6763 -6.4753,-3.16749 -8.7944,-6.54801 -1.636,-2.38603 -3.2233,-4.90631 -3.5257,-5.60053 -1.0721,-2.45858 3.032,-6.00119 8.0941,-8.22534 8.2402,-3.62 7.4562,-4.87208 7.8836,-12.02896 0.2008,-3.44132 0.8985,-7.15891 1.5425,-8.26163 1.0054,-1.72435 2.2647,-2.07742 -0.064,-4.93502 -3.5665,-4.37611 -7.2262,-11.38712 -4.9588,-18.24089 2.0838,-6.29493 8.1327,-13.61609 13.6806,-16.55736 4.582,-2.42909 15.8243,-5.45799 19.4496,-5.32496 1.2988,0.048 4.1686,-0.70727 6.3766,-1.67754 3.6586,-1.60847 7.5015,0.44446 7.4382,2.16851 -0.014,0.37883 -2.4447,1.80305 -5.4005,3.16515 -4.0817,1.88057 -5.5416,2.18436 -6.065,1.26298 -0.5008,-0.88093 -1.1873,-0.96457 -2.5038,-0.3052 -0.9986,0.49953 -5.1683,2.3183 -9.2674,4.04169 -5.8279,2.45076 -8.3029,4.13327 -11.3595,7.72108 -7.7023,9.04168 -8.3238,18.6233 -1.4985,23.10364 2.5376,1.66576 12.9471,1.43733 26.2986,0.85858 9.9111,-0.42963 9.9124,2.57241 4.7611,3.57507 -4.2678,0.83069 -7.5708,1.1476 -18.0195,1.71662 l -5.5537,0.19198 -0.6344,4.22657 c -0.8081,5.38372 -6.0722,10.93142 -12.3402,14.9079 -4.2093,2.6705 -4.7964,3.42042 -4.6271,5.9123 0.1322,1.94637 -0.5034,3.5436 -1.9982,5.02277 -2.1081,2.08487 -2.1247,2.19977 -0.426,2.96744 3.8349,1.73357 12.9662,1.10435 18.3873,-1.2671 2.9061,-1.27154 6.5629,-2.05324 8.1162,-2.1832 2.6414,-0.22099 2.7074,1.45829 0.1226,3.46875 -4.463,3.47151 -10.2313,6.17465 -13.5812,6.72723 -2.7162,0.44813 -2.8899,-0.0233 -3.2693,3.3909 -0.2312,2.08313 -0.01,5.01081 0.5005,6.50602 0.8568,2.52836 1.0122,2.60286 2.226,1.06511 1.3814,-1.7509 1.8739,-1.03282 3.2625,3.06655 0.6193,1.82751 0.4896,2.72114 -0.5063,3.48766 -1.0445,0.80415 -2.6596,0.73497 -3.4182,-0.8159 z m 1.7022,-49.95241 c 3.9524,-5.68894 4.0768,-7.56738 0.5102,-7.69826 -2.501,-0.0918 -2.7611,0.22778 -3.4653,4.25921 -0.869,4.97943 -1.0585,7.86529 -0.5171,7.88517 0.2059,0.007 1.7678,-1.99323 3.4722,-4.44612 z m 3.4576,48.36506 c -0.2631,-3.44312 1.0448,-4.19657 2.6463,-4.1378 1.8651,0.0684 4.016,4.1151 3.3104,5.76946 -0.7237,1.69757 -3.6219,4.14173 -4.839,2.36272 -0.3757,-0.54905 -1.1567,-2.02296 -1.1177,-3.99438 z m 30.0271,-0.0556 c -0.9012,-1.2727 -1.9534,-3.14351 -1.9018,-4.55089 -0.092,-4.18897 1.4794,-3.22799 3.408,-0.9882 1.2411,1.44095 2.9736,4.29058 3.8141,4.80216 1.6342,0.99507 -0.1802,2.85321 -2.1421,2.78122 -0.6498,-0.0238 -1.9364,-0.29067 -2.8348,-1.55932 z m -7.0741,-0.99387 c -2.0728,-2.46536 -2.8868,-7.85146 -1.1741,-7.7564 1.0568,0.0576 2.8808,3.25456 5.0708,8.88618 0.5735,1.47325 -2.4451,0.59827 -3.8967,-1.12978 z m 14.2839,-0.6713 c -0.8892,-0.56264 -1.5919,-1.69476 -1.5618,-2.51584 0.044,-1.18854 0.7477,-1.35407 3.4556,-0.81206 4.0385,0.80843 4.506,1.19944 3.698,3.09532 -0.6984,1.6354 -3.209,1.7399 -5.5918,0.23258 z m 6.722,-3.07781 c -1.3037,-1.40317 -0.456,-3.23455 2.2508,-3.13522 1.8892,0.0693 6.2036,-0.15448 4.1018,2.69879 -0.8481,1.15133 -5.162,1.71767 -6.3526,0.43643 z m 3.3061,-5.57199 c -2.7965,-0.83535 -1.3963,-3.7007 2.3223,-3.87795 3.5811,-0.17065 4.5677,1.6755 2.515,3.58272 -1.2076,1.12218 -1.9237,1.16584 -4.8373,0.29523 z m 1.215,-7.44916 c -0.6988,-1.23828 0.4412,-18.94837 1.2683,-19.71648 2.5668,-2.38157 5.7568,7.80929 3.8846,15.15127 -0.8935,3.50291 -4.2115,6.23276 -5.1529,4.56521 z m 5.2383,-20.52198 c -0.8958,-1.96131 -0.3394,-9.34038 2.3173,-8.16365 1.4164,0.62733 3.9414,6.96289 3.4498,9.07932 -0.7058,3.03895 -3.6845,3.64377 -5.2376,0.24341 z m -53.6187,-3.13948 c -0.1556,-1.85189 1.4627,-3.99616 2.9225,-4.20541 3.0292,-0.43422 2.9677,2.47472 2.8552,4.49556 -0.094,1.68674 -1.5398,2.86307 -4.1445,2.60519 -1.171,-0.11594 -1.5038,-1.35359 -1.6332,-2.89534 z m 7.0626,0.4419 c -0.7343,-2.14546 1.4601,-5.52968 3.1908,-5.13557 0.8678,0.19747 2.229,1.88875 2.3452,3.36919 0.1607,2.05133 -1.4374,3.81395 -2.8975,3.76038 -1.0177,-0.0373 -2.3678,-1.2041 -2.6385,-1.994 z m 51.6782,-6.50292 c 0.084,-2.30095 4.3247,-1.53433 4.6975,0.85117 0.1477,0.93834 0.6479,7.12476 -3.2189,3.35217 -0.6272,-0.61188 -1.5211,-3.04361 -1.4786,-4.20334 z m 2.7184,-4.56369 c -0.1522,-0.46001 -0.6549,-2.5922 -0.9393,-4.81387 -0.424,-3.31159 -0.2195,-6.13715 2.9089,-3.74719 1.5688,1.1985 2.9809,4.58823 3.1361,6.71906 0.6108,8.38681 -4.1776,4.64752 -5.1057,1.842 z m 2.8641,-11.70835 c -0.996,-2.14306 -2.2318,-4.17862 -2.7465,-4.52346 -1.3348,-0.89397 -1.0978,-2.41219 0.3672,-2.35843 3.384,0.12417 7.4359,7.76239 5.2143,9.82728 -0.7122,0.66182 -1.5751,-0.23415 -2.835,-2.94539 z m 0.2206,-8.44784 c -4.9223,-4.09127 -5.2656,-4.79578 -2.6862,-5.51138 2.5292,-0.70184 2.5327,-2.19507 0.012,-6.25792 -3.8104,-6.14537 -16.7013,-12.77565 -25.5926,-13.16308 -4.0525,-0.1768 -4.0253,-2.56848 -2.2808,-3.78985 2.1753,-1.52309 10.6983,-1.45764 15.6639,0.12021 5.1883,1.6486 15.2044,9.01721 17.4327,12.61123 1.3046,2.10295 1.9869,4.69179 1.8954,7.18639 -0.1002,2.73084 0.4047,4.40445 1.6859,5.58534 1.8057,1.66464 0.1224,5.57376 -1.2813,6.28471 -0.3973,0.20143 -2.5795,-1.17824 -4.8506,-3.06571 z" fill="#00B894" transform="translate(17.22955,24.643466) translate(-8087.654,681.28704)"/>
</svg>