<?xml version="1.0" ?><svg height="96.919548mm" viewBox="0 0 141.28064 96.919548" width="141.28064mm" xmlns="http://www.w3.org/2000/svg">
    <path d="m -8366.7871,2092.9512 c -21.6161,-0.6404 -51.5239,14.2134 -66.5586,44.6133 0,0 -3.1385,25.1186 2.7305,74.1269 5.868,49.0082 43.2622,101.2713 83.8652,123.5645 40.603,22.2933 107.002,18.6699 107.002,18.6699 -9.2513,-0.09 -57.4021,-87.5272 -57.8008,-88.0684 -4.6681,-6.3373 -15.2849,-6.2637 -17.6739,-19.959 -2.388,-13.6952 0.8878,-98.2611 -0.6132,-117.6679 -1.501,-19.4068 -24.9771,-32.0589 -46.7461,-34.9453 -1.3605,-0.1805 -2.764,-0.2913 -4.2051,-0.334 z m 230.4883,29.5351 c -32.6338,1.2401 -82.5098,19.4216 -115.2227,50.6582 -40.262,38.4451 -34.3918,70.8114 -34.2558,90.4024 17.265,66.4499 74.5869,89.9097 117.9199,90.7695 43.332,0.8598 90.4845,-41.2715 99.5605,-59.9414 9.076,-18.6698 18.6995,-58.6497 12.1485,-89.541 -6.551,-30.8912 -32.6194,-72.099 -60.7344,-80.4512 -5.2716,-1.566 -11.8852,-2.1826 -19.416,-1.8965 z m 98.916,159.4844 -60.8027,69.2129 c 0,0 51.3181,-1.7811 90.0781,-4.9746 38.761,-3.1936 80.8651,-16.0286 85.3691,-35.3125 4.504,-19.284 -114.6445,-28.9258 -114.6445,-28.9258 z" fill="#FFFFFF" transform="translate(22.402764,-26.089213) matrix(0.26458333,0,0,0.26458333,3463.8689,635.96588) translate(-4730.5688,-4305.3989)"/>
    <path d="m -13025.979,-1943.9465 c -17.293,-3.7861 -39.405,-10.7636 -49.41,-14.8601 -69.437,-28.4309 -99.887,-102.8517 -101.071,-175.0347 0,-25.9803 12.799,-58.1341 27.454,-68.9696 10.886,-8.0476 12.974,-12.7733 12.974,-29.3635 0,-14.815 -2.422,-21.734 -9.662,-27.5958 -7.469,-6.0474 -8.962,-10.6064 -6.583,-20.0845 2.661,-10.6024 5.614,-14.7002 18.106,-13.4927 11.148,1.0774 14.196,6.3874 15.328,14.3784 0.809,5.6947 -0.391,12.7697 -2.665,15.722 -4.878,6.3358 -1.789,43.5502 3.612,43.5502 3.217,0 9.511,-0.291 9.95,-8.7654 0.772,-14.9123 0.125,-24.4276 0.113,-38.4012 0,-9.1101 -4.749,-11.7129 -1.528,-29.4326 1.17,-6.4324 11.778,-8.7497 18.249,-8.7497 14.025,0 19.833,11.6077 13.479,26.9483 -3.072,7.4142 -8.045,13.4802 -11.05,13.4802 -3.369,0 -5.758,7.7531 -6.23,20.2142 -0.687,18.211 0.236,20.2159 9.38,20.2311 16.67,0.034 39.364,16.9122 46.904,34.8948 5.697,13.59 6.478,27.3316 4.154,72.8975 -1.783,34.8996 -1.166,58.7008 1.623,62.8889 3.568,5.3554 4.505,4.3268 4.559,-5.0115 0.03,-6.4625 7.338,-26.2764 16.218,-44.0309 11.873,-23.7305 22.283,-37.1541 39.307,-50.6758 96.897,-76.9714 188.555,-46.1356 198.884,66.9091 1.907,20.9029 5.115,33.1547 9.066,34.6725 3.366,1.2907 6.119,5.226 6.119,8.745 0,8.6783 9.864,11.8311 37.426,11.9614 69.941,0.3302 99.04,26.6053 63.766,57.5766 -19.301,16.9482 -37.154,22.1689 -94.454,27.6247 -38.205,3.6376 -174.388,7.4126 -195.405,5.4171 -3.705,-0.3517 -15.834,0.2325 -26.952,1.2998 -11.118,1.0666 -34.364,-1.158 -51.661,-4.9438 z m 35.059,-29.8105 c -7.631,-8.0295 -18.038,-22.9179 -23.126,-33.0854 -6.788,-13.5624 -12.718,-19.1795 -22.266,-21.0891 -23.768,-4.7537 -22.529,-27.1443 -22.879,-85.4266 -0.448,-73.6216 -7.297,-72.3557 -18.819,-79.9037 -8.271,-5.4201 -17.83,-7.4852 -33.35,-4.5416 -20.053,3.8035 -33.37,20.2924 -33.37,29.5451 0,7.4213 19.695,14.4263 40.772,1.7464 17.886,-10.76 24.53,-3.7359 17.798,8.8468 -20.269,21.0363 -39.53,24.4552 -68.604,13.2457 -2.736,106.4939 48.1,164.9723 126.156,179.9904 48.003,8.0656 53.849,7.6795 37.688,-9.328 z m 129.718,1.6151 c 35.944,-12.3657 43.595,-18.2144 56.286,-43.0186 9.983,-19.503 11.101,-26.0986 8.898,-52.3875 -2.803,-33.4118 -15.352,-72.0821 -30.237,-85.6374 -16.822,-15.3177 -44.425,-20.9435 -69.831,-14.8496 -23.169,5.5586 -65.106,34.0815 -80.216,51.1511 -8.086,9.1314 -8.211,10.7432 -1.735,22.0237 3.844,6.694 8.372,17.9702 10.066,25.0576 l 3.076,12.8866 13.318,-21.0033 c 22.546,-35.5521 65.285,-45.4574 89.906,-20.8375 29.995,29.9959 3.609,83.1246 -30.26,60.9314 -6.051,-3.9626 -12.055,-9.9612 -13.349,-13.3302 -3.177,-8.2758 6.122,-24.7955 13.958,-24.7955 9.339,0 12.884,8.4458 6.681,15.919 -4.447,5.3572 -3.797,6.5414 3.582,6.5414 11.946,0 16.201,-17.0248 7.553,-30.2206 -13.342,-20.3662 -48.403,-11.449 -69.591,17.6992 -11.242,15.4656 -13.52,22.2572 -11.563,34.4774 4.518,28.2086 40.298,67.5839 61.617,67.8093 3.938,0.04 18.267,-3.7457 31.841,-8.4165 z m 166.154,-0.6348 c 9.066,-2.5153 21.073,-8.2888 26.683,-12.8303 10.033,-8.1241 10.053,-8.3343 1.26,-13.0395 -4.912,-2.6302 -30.045,-7.1053 -55.849,-9.9447 -46.658,-5.1341 -46.951,-5.1058 -53.682,5.1843 -3.723,5.6906 -12.833,17.2983 -20.241,25.795 l -13.473,15.4487 49.41,-3.0203 c 27.171,-1.6613 56.826,-5.0782 65.892,-7.5932 z m -263.21,-17.2868 c -12.347,-19.563 -31.173,-63.2372 -36.025,-83.5781 -2.867,-12.013 -3.682,-12.548 -7.836,-5.1274 -10.498,18.7592 4.4,61.0534 31.453,89.29 20.848,21.761 26.353,21.5019 12.408,-0.5845 z" fill="#00B894" transform="translate(22.402764,-26.089213) matrix(0.26458333,0,0,0.26458333,3463.8689,635.96588)"/>
</svg>