<?xml version="1.0" ?><svg height="219.62053mm" viewBox="0 0 115.69057 219.62053" width="115.69057mm" xmlns="http://www.w3.org/2000/svg">
    <path d="m -9243.0763,-2637.1984 c -39.0108,-1.5661 -75.8463,28.3217 -99.7748,-112.2421 -23.9285,-140.5638 -7.106,-243.9311 8.5563,-288.828 15.6623,-44.8969 58.1536,-110.8065 58.1536,-110.8065 0,0 8.1212,-100.8875 40.316,-102.4537 32.1948,-1.5661 48.1418,0.052 50.5579,57.2703 2.4161,57.2184 41.8207,113.3118 55.1627,171.1296 13.342,57.8177 43.9473,224.5042 3.662,267.6945 -40.2853,43.1903 -48.4736,137.8131 -116.6337,118.2359 z" fill="#FFFFFF" transform="translate(43.493608,9.7471396) matrix(0.31922188,0,0,0.31922188,2965.9356,1036.4402)"/>
    <path d="m -9315.2916,-2595.0492 c -4.026,-4.0247 -5.753,-12.7497 -5.753,-29.0615 0,-12.8211 -1.611,-24.3073 -3.582,-25.5252 -5.898,-3.6453 -27.821,-43.0565 -35.701,-64.1799 l -7.353,-19.7087 -5.728,25.1213 c -6.766,29.6583 -15.645,40.6862 -29.883,37.1134 -28.584,-7.1746 -32.069,-87.9601 -8.692,-201.4092 10.422,-50.5807 28.359,-100.2268 60.645,-167.8588 27.267,-57.1155 27.588,-58.1296 25.51,-80.5128 -4.359,-46.9195 7.943,-93.7759 32.177,-122.5764 12.283,-14.5968 50.504,-33.6751 67.43,-33.6576 18.448,0.036 36.4151,12.1057 43.6667,29.3771 5.8108,13.8381 6.7824,14.4526 22.8695,14.488 29.7668,0.066 69.4231,16.4158 63.4093,26.1441 -1.0759,1.7437 -16.8748,3.1708 -35.1082,3.1708 -32.6325,0 -33.11,0.129 -30.788,8.2342 1.2983,4.5289 3.387,22.7221 4.6414,40.4284 1.9708,27.8635 3.8866,34.7561 14.2316,51.2357 41.0918,65.4606 63.0361,122.1333 73.071,188.6921 10.2243,67.8323 4.8253,178.7794 -10.1693,208.9706 -15.991,32.1953 -32.045,21.6949 -32.045,-20.9596 v -27.9111 l -18.5025,37.0391 c -10.1776,20.3717 -25.2738,44.7314 -33.5492,54.133 -14.0669,15.9798 -14.9946,18.394 -14.2398,37.0433 1.0759,26.5619 -1.7155,34.2609 -12.4201,34.2609 -10.9404,0 -13.7784,-4.6068 -13.7784,-22.3608 0,-13.4603 -0.45,-14.0014 -9.563,-11.5005 -11.726,3.2167 -57.788,2.9336 -71.221,-0.438 -9.689,-2.4321 -9.791,-2.2663 -7.471,12.2372 3.535,22.117 -8.808,33.2687 -22.104,19.9709 z m 110.581,-65.729 c 15.5848,-6.2356 27.9363,-23.9421 49.7076,-71.2477 31.0707,-67.5091 31.5895,-99.0859 4.3148,-261.667 -12.0934,-72.0786 -10.817,-68.0032 -26.3223,-83.9686 -25.2131,-25.9613 -56.4901,-33.6806 -89.4101,-22.0659 -19.702,6.9514 -26.88,13.2445 -42.204,37.0136 -14.476,22.4511 -17.909,40.7603 -23.898,127.479 -4.826,69.8168 -1.894,117.0709 11.86,191.2398 11.69,63.0285 13.872,70.4718 23.495,80.094 7.976,7.9763 11.731,8.7284 43.587,8.7284 22.77,0 39.719,-1.9442 48.87,-5.6056 z m -29.2829,-558.0453 c 1.2312,-6.1838 -1.486,-16.2626 -6.4543,-16.0785 -3.9732,0.1473 -6.3246,0.7517 -8.3733,8.1047 -2.3448,8.4156 1.7238,15.7353 7.2878,15.7353 1.726,0 6.5962,-3.0229 7.5398,-7.7615 z m 22.7262,-1.4349 c 0.752,-5.1165 -1.4143,-13.1438 -4.9163,-13.1438 -6.135,0 -11.0643,9.1216 -8.4513,16.2169 2.588,7.0281 12.0256,6.0439 13.3676,-3.0731 z" fill="#00B894" transform="translate(43.493608,9.7471396) matrix(0.31922188,0,0,0.31922188,2965.9356,1036.4402)"/>
</svg>