<?xml version="1.0" ?><svg height="212.51442mm" viewBox="0 0 105.66471 212.51442" width="105.66471mm" xmlns="http://www.w3.org/2000/svg">
    <path d="m 8288.5566,22768.658 c -15.4904,-0.418 -33.6963,3.373 -50.8925,8.887 -34.3923,11.028 -47.8067,23.684 -49.5703,40.767 -10e-5,10e-4 -5.7473,18.154 -2.9161,48.145 2.8312,29.991 13.8324,39.891 19.959,40.977 6.1265,1.086 5.8945,-21.68 5.8945,-21.68 l 39.7598,4.855 2.9707,20.551 c 0,0 -1.3926,4.97 -9.0508,23.391 -7.6582,18.421 -9.4681,51.168 -7.8437,89.597 1.6245,38.429 29.8506,126.286 34.8633,138.901 5.0126,12.615 37.3627,37.051 45.9492,43.943 8.5865,6.893 41.4941,-1.379 41.4941,-1.379 0,0 12.5779,18.088 25.7129,46.157 13.135,28.07 3.0157,21.72 -0.5117,29.865 -3.5274,8.145 -3.5167,14.298 -4.2129,46.002 -0.6962,31.703 4.5388,90.686 11.9649,116.5 7.4262,25.814 26.317,22.722 36.2031,22.054 9.8861,-0.668 13.1347,-31.16 13.1347,-31.16 0,0 15.5485,61.32 23.9493,94.11 8.4009,32.79 17.5438,18.672 20.375,-0.752 2.8312,-19.423 -5.0586,-68.045 -5.0586,-68.045 0,0 8.6791,7.478 19.0293,19.174 10.3501,11.696 12.4387,-7.52 7.0547,-23.936 -5.384,-16.415 -29.5754,-85.734 -34.4024,-104.113 -4.827,-18.379 -12.4274,-74.085 -9.6426,-85.78 2.7848,-11.696 5.8471,-32.872 2.6446,-47.324 -3.2025,-14.453 -44.0841,-183.897 -49.9786,-216.603 -5.8945,-32.706 -41.7796,-81.112 -49.6699,-98.405 -7.8903,-17.293 -29.9366,-95.696 -42.6074,-118.336 -6.3354,-11.319 -19.1111,-15.945 -34.6016,-16.363 z m 128.5743,427.158 20.7793,84.622 -39.17,-14.12 z" fill="#FFFFFF" transform="translate(-75.136793,38.485322) matrix(0.26458333,0,0,0.26458333,-1203.2179,-5414.6251) translate(-3313.5291,-2437.8203)"/>
    <path d="m 5156.8651,21118.289 c -6.881,-6.882 -15.705,-34.125 -23.561,-72.748 l -5.1959,-25.549 -4.2317,30.833 c -3.1269,22.785 -5.8408,30.832 -10.3977,30.832 -4.3253,0 -7.2765,-6.998 -9.8846,-23.435 -3.0092,-18.968 -5.3204,-23.67 -12.1247,-24.666 -4.6236,-0.679 -11.6207,-6.78 -15.5486,-13.564 -10.2466,-17.694 -17.2774,-79.211 -14.8713,-130.11 l 3.5252,-47.287 -13.6388,-4.131 c -18.4391,-5.586 -40.2314,-9.969 -40.2314,-16.265 0,-3.136 2.7749,-5.699 6.1665,-5.699 3.6363,0 6.1664,-3.757 6.1664,-9.159 0,-8.134 -1.4146,-7.444 -12.6319,6.166 -13.1044,15.897 -26.9708,19.923 -31.1455,9.047 -3.8713,-10.09 -17.4214,-15.67 -24.2623,-9.991 -8.0466,6.679 -25.4028,1.576 -28.5677,-8.395 -3.0003,-9.453 -9.1074,-11.093 -51.387,-13.801 -33.5029,-2.145 -46.4471,-5.555 -42.8986,-11.296 2.8495,-4.61 56.379,-4.653 76.1341,-0.06 13.6685,3.179 15.0465,2.606 19.0222,-7.93 4.2281,-11.202 4.0292,-11.392 -14.7363,-14.08 -29.3219,-4.199 -49.0492,-10.91 -56.5917,-19.242 -6.4562,-7.136 -6.3872,-7.591 1.1541,-7.591 4.4129,0 25.3613,3.786 46.5516,8.41 34.7895,7.591 39.1457,7.792 44.8963,2.041 5.1619,-5.164 5.4859,-8.507 1.7107,-17.661 -43.3323,-105.044 -49.5656,-130.919 -42.1437,-174.923 6.3406,-37.594 17.1759,-69.092 25.5909,-74.4 10.4959,-6.62 11.8446,-1.132 4.5435,18.483 -4.663,12.53 -6.8861,32.685 -7.2126,65.389 -0.44,44.109 0.5375,50.309 14.5811,92.497 8.2791,24.871 16.2539,52.855 17.722,62.188 2.4077,15.302 4.4439,17.697 20.7717,24.432 15.582,6.424 17.7713,8.783 15.7226,16.948 -2.5449,10.14 2.1212,12.45 9.7454,4.828 18.0672,9.801 41.0449,-7.217 30.1036,-5.694 -11.0574,3.509 -19.95,-11.263 -25.8373,-42.919 -4.6578,-25.045 -4.8399,-25.301 -11.6457,-16.279 -14.9258,19.788 -22.9631,1.292 -32.301,-74.336 -5.604,-45.385 6.1365,-98.066 23.3257,-104.66 10.8284,-4.157 13.3671,2.254 6.1326,15.481 -6.0314,11.028 -7.113,23.487 -6.7665,77.943 0.2252,35.652 1.7149,66.12 3.3069,67.714 5.3736,5.373 10.5423,-9.075 10.6448,-29.757 0.099,-19.67 13.9703,-97.46 18.765,-105.22 6.5481,-10.594 8.9086,-0.247 6.9822,30.643 -2.3062,36.962 2.5239,48.432 11.3864,27.035 3.1945,-7.712 7.3108,-11.677 10.7542,-10.354 3.7693,1.446 5.5788,-1.15 5.5788,-8.007 0,-17.189 7.1281,-11.221 10.0757,8.435 1.5649,10.438 6.4318,21.984 11.0986,26.332 7.6174,7.097 8.3679,13.282 8.985,74.034 0.5394,53.127 -0.4778,67.007 -5.1205,69.898 -9.8152,6.109 -16.9031,0.06 -21.9291,-18.738 -2.6485,-9.905 -6.2811,-18.004 -8.073,-18.004 -4.3101,0 -4.2065,0.904 2.4604,21.438 3.1451,9.688 8.948,28.252 12.8955,41.254 6.9832,23 14.2731,31.254 14.2731,16.161 0,-4.113 2.7941,-16.883 6.2083,-28.38 5.104,-17.186 7.6002,-20.541 14.0368,-18.858 5.6944,1.49 9.7281,9.506 14.7963,29.408 3.8327,15.05 9.9536,37.536 13.6028,49.973 l 6.6342,22.609 1.4438,-16.39 c 0.7943,-9.015 3.2735,-18.598 5.5095,-21.292 2.7422,-3.303 1.38,-14.026 -4.184,-32.938 -12.5856,-42.781 -27.6784,-104.737 -39.3776,-161.648 -15.9988,-77.83 -29.3713,-113.903 -50.6347,-136.599 -5.778,-6.166 -10.7756,-14.882 -11.1067,-19.375 -0.3286,-4.488 -4.5057,-17.016 -9.2783,-27.84 -4.7725,-10.823 -13.5477,-36.004 -19.5011,-55.955 -10.0806,-33.782 -11.8229,-36.694 -25.3607,-42.348 -13.5377,-5.658 -16.6999,-5.353 -46.0203,4.427 -32.9648,10.999 -58.205,24.222 -58.205,30.494 0,2.031 13.0897,-4.705 26.2732,-10.03 26.4607,-10.689 68.2789,-13.606 68.2789,-7.092 0,2.214 -7.2295,6.191 -16.0654,8.84 -21.0639,2.108 -35.6092,7.654 -45.3246,17.037 l 8.0494,13.644 c 8.079,13.692 18.1814,55.779 14.3169,59.641 -1.1355,1.135 -9.4688,1.777 -18.519,1.422 l -16.4546,-0.645 v 16.413 c 0,21.575 -7.678,21.419 -25.0477,-0.512 -21.8837,-27.63 -27.8032,-65.169 -13.8606,-87.902 2.7735,-4.524 6.1921,-13.188 7.5968,-19.255 3.2284,-13.942 19.284,-25.41 53.7306,-38.377 37.7253,-14.198 54.8834,-13.456 76.9521,3.339 21.7186,16.527 31.5093,36.105 34.9029,69.792 1.419,14.087 5.7688,30.234 9.666,35.888 3.8977,5.652 8.3271,14.276 9.8437,19.166 1.5166,4.89 8.4915,15.99 15.5003,24.665 24.8705,30.793 39.5576,71.142 56.8589,156.214 4.5239,22.247 13.0333,61.31 18.9099,86.809 11.778,51.11 14.2411,54.147 48.8804,60.277 19.2926,3.413 36.2633,13.282 32.7132,19.026 -2.8372,4.592 -40.8588,0.777 -52.5922,-5.279 -10.7949,-5.568 -11.2956,-3.354 -4.4898,19.863 5.5069,18.785 7.5156,21.089 21.3895,24.515 18.4361,4.556 21.7179,16.788 4.007,14.934 -12.3854,-1.298 -13.4059,1.289 -7.0792,17.929 7.2084,18.959 0.9667,15.969 -12.5628,-6.021 -7.108,-11.553 -14.8124,-21.003 -17.1213,-21.003 -2.3088,0 -3.3312,-2.312 -2.2718,-5.14 1.0597,-2.824 0.4625,-8.836 -1.3268,-13.36 -7.8011,-19.717 -3.2163,28.631 5.9282,62.51 5.3676,19.884 11.6579,43.554 13.9784,52.596 2.3208,9.047 9.2989,28.471 15.5079,43.165 14.7763,34.979 17.9545,60.483 8.0127,64.298 -3.9808,1.526 -10.597,0.678 -14.7029,-1.884 -6.9496,-4.342 -7.4342,-2.753 -7.0104,22.989 0.2497,15.205 -0.8408,31.642 -2.4244,36.521 -3.7889,11.675 -13.1418,14.91 -20.8434,7.207 z m 0.5251,-99.443 c -9.181,-31.693 -8.7782,-42.086 1.3871,-35.806 2.3041,1.425 8.7435,11.578 14.3102,22.564 11.2035,22.109 18.9299,29.768 15.5557,15.422 -3.583,-15.234 -36.9051,-84.357 -63.4221,-131.559 -18.4808,-32.894 -26.9029,-44.19 -32.95,-44.19 -5.8538,0 -7.4941,2.009 -5.8713,7.192 1.2384,3.96 5.7283,28.058 9.9773,53.552 8.426,50.56 12.8455,61.72 13.2513,33.466 0.2343,-16.356 0.6709,-17.139 4.3979,-7.881 2.8283,7.024 2.6503,20.528 -0.5618,42.659 -3.3465,23.06 -3.4291,33.651 -0.2868,36.793 3.1422,3.141 4.4119,-1.079 4.4119,-14.668 0,-19.469 6.3866,-29.184 12.5894,-19.148 1.8965,3.069 6.4445,19.495 10.1065,36.498 10.7322,49.834 19.2457,84.059 22.0069,88.469 1.4156,2.265 3.1093,-7.911 3.7648,-22.608 0.8426,-18.903 -1.693,-36.678 -8.667,-60.755 z m -65.1203,-29.685 c -2.1713,-12.438 -7.351,-44.811 -11.5109,-71.943 l -7.5631,-49.333 -0.333,36.999 c -0.3536,39.582 4.8163,84.307 11.9039,102.948 7.0026,18.42 11.8646,6.318 7.5022,-18.671 z m 54.239,-108.566 c -2.3309,-6.13 -5.9818,-10.07 -8.1129,-8.754 -2.2297,1.379 -0.9243,7.554 3.0752,14.544 8.0695,14.102 11.223,10.48 5.0377,-5.79 z m -33.284,-52.791 c -0.1385,-2.824 -2.5948,-17.162 -5.457,-31.859 l -5.2032,-26.722 -3.1414,24.283 c -1.7275,13.357 -4.0326,26.605 -5.1222,29.445 -1.6983,4.428 3.6557,7.591 16.0944,9.514 1.6958,0.247 2.9691,-1.834 2.8294,-4.661 z m -49.521,-14.229 c -4.2783,-8.392 -7.7786,-18.456 -7.7786,-22.37 0,-13.013 -6.7819,-11.531 -13.7108,3.001 -12.508,26.229 -8.0245,24.135 16.351,30.993 l 12.9173,3.634 z m -69.45,-40.237 c 2.6154,-1.615 1.8175,-4.948 -2.1316,-8.895 -7.5498,-7.55 -15.4542,-2.596 -24.8535,15.583 -7.6975,14.884 -7.436,19.101 1.2987,20.954 4.7598,1.012 9.6154,-2.97 14.3496,-11.766 3.9358,-7.31 9.0376,-14.454 11.3368,-15.876 z m 90.159,-97.383 c 0.2806,-50.2 -0.04,-52.133 -8.1718,-51.523 -8.0641,0.611 -8.3468,2.38 -6.0316,37.772 1.3362,20.423 3.5247,47.309 4.8641,59.744 4.0115,37.257 9.0147,12.619 9.3393,-45.993 z m -36.3927,4.199 c 4.3221,-25.624 7.7175,-53.992 7.5461,-63.036 l -0.3123,-16.442 -5.843,13.359 c -4.3501,9.946 -8.4662,13.359 -16.1089,13.359 -11.7593,0 -11.5574,-1.591 -5.9753,47.144 4.6205,40.331 7.9976,57.047 10.9329,54.112 1.0461,-1.047 5.4385,-22.867 9.7599,-48.496 z m -140.6061,-264.139 8.8661,-7.889 -9.0021,-9.584 c -16.839,-17.922 -28.1239,-7.99 -28.1239,24.756 0,29.389 3.9744,34.655 12.2929,16.285 3.9055,-8.622 11.0905,-19.229 15.967,-23.568 z m 16.8517,13.85 c -3.8849,-7.257 -5.6242,-7.961 -8.4922,-3.434 -5.2956,8.361 -4.566,11.072 3.4624,12.859 9.983,2.221 10.6215,1.024 5.0298,-9.425 z m 25.824,67.655 c 1.9868,-24.749 7.7796,-39.437 13.3549,-33.863 1.2149,1.216 0.9796,15.429 -0.5216,31.587 -2.0537,22.096 -4.2523,29.378 -8.8694,29.378 -5.0437,0 -5.7509,-4.834 -3.9639,-27.102 z m 26.4254,7.986 c -4.15,-4.151 -3.2933,-23.121 1.3649,-30.216 3.5854,-5.46 4.4981,-5.467 7.988,-0.03 6.2247,9.688 -2.3099,37.292 -9.3529,30.25 z m 20.4864,-20.624 c -4.2444,-4.243 -3.2328,-25.246 1.3525,-28.078 5.3843,-3.331 14.1327,16.134 10.9644,24.391 -2.5943,6.761 -7.7112,8.293 -12.3169,3.687 z m 15.122,-20.046 c -1.3391,-3.488 -1.4041,-7.373 -0.145,-8.634 3.5999,-3.601 11.0589,2.507 11.0589,9.052 0,7.891 -7.8421,7.588 -10.9143,-0.418 z m -78.0406,-65.6 c -3.2608,-8.496 1.1627,-18.498 8.1825,-18.498 6.226,0 10.6618,11.077 7.8188,19.529 -2.4006,7.134 -13.1333,6.443 -16.0013,-1.031 z m 25.6172,-4.593 c -1.4892,-3.882 -0.9213,-8.843 1.2619,-11.026 5.9405,-5.942 17.6647,0.154 16.0836,8.368 -1.8524,9.62 -13.9619,11.473 -17.3455,2.658 z" fill="#00B894" transform="translate(-75.136793,38.485322) matrix(0.26458333,0,0,0.26458333,-1203.2179,-5414.6251)"/>
</svg>