<?xml version="1.0" ?><svg height="197.54865mm" viewBox="0 0 271.33881 197.54865" width="271.33881mm" xmlns="http://www.w3.org/2000/svg">
    <path d="m -3176.0566,2342.168 c -4.6931,-0.2539 -9.8597,0.575 -15.5411,2.7988 -45.4507,17.79 17.0586,83.3984 17.0586,83.3984 0,0 -2.197,30.093 -11.2871,62.0371 -17.2869,72.0377 47.0957,102.7676 47.0957,102.7676 0,0 6.2911,77.8613 61.9864,77.8613 55.6952,0 42.1445,-1.4611 79.6621,-54.8554 37.5176,-53.3943 54.67,-50.5865 66.3574,-79.9336 11.6874,-29.347 -9.7363,-101.5195 -9.7363,-101.5195 0,0 44.7983,-71.7069 12.0449,-84.043 -32.7535,-12.3362 -55.5508,50.7734 -55.5508,50.7734 0,0 -28.8591,-19.9973 -63.4883,-25.7109 -34.6292,-5.7136 -86.1387,22.9844 -86.1387,22.9844 0,0 -9.6116,-54.7815 -42.4628,-56.5586 z m 758.9257,135.83 c -3.8436,-0.1178 -7.628,0.062 -11.3164,0.5567 -59.0139,7.9211 -232.3032,28.8271 -318.4433,15.0625 -86.14,-13.7645 -135.9196,11.6869 -158.8614,52.9805 -54.8295,264.5131 110.0926,263.6046 270.5411,269.0585 160.4484,5.4538 275.878,-113.493 312.5273,-192.8339 34.3586,-74.3821 -36.7932,-143.0571 -94.4473,-144.8243 z m 105.9375,361.8946 c -12.8808,47.8281 -3.278,68.6525 24.1368,104.4922 27.4148,35.8398 61.6113,19.9961 61.6113,19.9961 0,0 -6.4942,-29.4767 -22.7988,-69.8614 -16.3046,-40.3847 -41.9185,-39.6547 -62.9493,-54.6269 z" fill="#FFFFFF" transform="translate(-12.631245,-50.323667) matrix(0.26458333,0,0,0.26458333,2116.9281,573.02602) translate(-4730.5688,-4305.3989)"/>
    <path d="m -7176.9249,-1233.425 c -6.8021,-7.7983 -5.0055,-83.2629 4.9069,-205.9782 4.141,-51.3045 6.5283,-94.2377 5.3008,-95.4073 -1.2306,-1.1691 -6.8944,1.3376 -12.5951,5.5708 -5.6945,4.233 -19.1418,12.3958 -29.8787,18.1383 -16.4437,8.7987 -19.1787,11.7503 -17.3821,18.7545 1.1722,4.5726 5.8176,22.5192 10.3247,39.8819 10.9092,42.024 19.4771,100.6277 16.5883,113.4616 -3.1534,14.0084 -15.9207,14.292 -21.5876,0.4771 -4.5286,-11.0325 -6.4514,-20.1038 -21.1569,-99.9832 -5.3038,-28.7998 -9.817,-52.6406 -10.0262,-52.9803 -0.1846,-0.3396 -17.1852,3.9234 -37.7114,9.4725 -51.9648,14.0468 -127.1938,19.2255 -169.7445,11.6847 -17.0898,-3.0278 -33.309,-6.3009 -36.0409,-7.2731 -6.0114,-2.14 -24.0088,111.9292 -28.162,178.489 -2.9688,47.6491 -6.5129,58.4352 -18.7204,57.0015 -8.0696,-0.9469 -8.2357,-2.0344 -8.9833,-57.3033 -0.5907,-43.9292 1.4183,-70.8268 9.1156,-122.1172 5.43,-36.1781 9.0572,-66.5524 8.0665,-67.4978 -3.9532,-3.7619 -52.6569,-21.5535 -54.2936,-19.8331 -0.966,1.0118 0.923,30.103 4.2025,64.6462 6.4267,67.7892 8.6449,125.2974 5.35,138.9031 -2.5966,10.7412 -14.4687,11.4236 -20.2925,1.1669 -2.6242,-4.6362 -6.9251,-52.4354 -10.8507,-120.6691 -5.8945,-102.4155 -7.2082,-113.9354 -14.0625,-123.0719 -18.4958,-24.677 -35.1334,-64.8465 -39.8958,-96.3432 -5.0146,-33.1622 -4.0671,-53.4552 3.8949,-83.6444 2.5996,-9.8791 3.8671,-17.941 2.8026,-17.9149 -2.4335,0.058 -29.3341,22.5958 -39.6188,33.1921 -19.9479,20.5505 -34.1119,39.1758 -38.3698,50.4563 -7.7312,20.4847 -26.0608,34.4061 -50.0235,37.9997 -38.8803,5.829 -70.7063,-4.0834 -81.2683,-25.3102 -2.815,-5.6644 -6.279,-22.1053 -7.691,-36.5355 l -2.572,-26.2368 -21.957,-19.0163 c -16.465,-14.2607 -23.234,-23.1748 -27.055,-35.6428 -6.359,-20.7505 -3.694,-49.0178 7.483,-79.2445 9.349,-25.2833 9.872,-23.4298 -17.21,-60.98 -9.334,-12.9384 -17.078,-27.7722 -17.204,-32.9635 -0.36,-14.7138 17.48,-30.7309 38.287,-34.3753 29.343,-5.1395 46.033,7.4202 50.953,38.3464 1.338,8.3896 3.454,14.7124 4.707,14.0503 1.252,-0.6618 10.961,-4.7055 21.575,-8.9861 11.297,-4.5522 19.969,-10.5858 20.898,-14.5354 2.148,-9.1273 11.4295,-8.727 25.7197,1.1088 8.4357,5.8059 12.3029,6.7956 13.395,3.4284 2.3997,-7.3897 15.2101,-5.8875 19.8679,2.3304 2.3135,4.076 7.2943,7.3349 11.0753,7.2423 3.781,-0.092 11.4998,3.2919 17.1575,7.5214 5.6576,4.2299 10.7584,7.0633 11.3368,6.2966 0.5753,-0.766 2.9995,-9.3518 5.3807,-19.079 2.3843,-9.7278 8.1988,-21.499 12.9212,-26.1584 7.2913,-7.1952 11.7214,-8.2889 29.408,-7.2586 23.4643,1.3672 34.4658,8.5052 38.5113,24.9813 3.9902,16.2462 -0.3937,31.8298 -14.3855,51.1224 l -12.5951,17.3642 6.5652,15.9943 c 7.2512,17.6795 10.5,57.5356 6.1221,75.1576 -2.7134,10.9449 -2.3411,10.7664 10.6446,-5.1223 7.4267,-9.0876 23.3166,-21.7473 35.4626,-28.258 29.1834,-15.6411 66.3072,-17.256 123.2312,-5.3608 90.9959,19.0135 135.1403,19.2341 208.548,1.0426 58.332,-10.1841 127.0495,-21.5911 171.5042,-1.1174 29.5895,13.67 39.1081,24.4365 63.3015,71.5801 21.1508,41.2167 29.7219,74.8004 30.9524,121.2663 1.0953,40.9438 -2.7073,63.3956 -18.0096,106.7656 -18.6096,52.7452 -18.7788,50.64 4.9562,61.5396 11.2691,5.1737 25.0886,15.1427 30.7124,22.1531 10.9092,13.5952 21.6953,38.4408 22.3783,51.5506 0.683,13.0612 17.0959,41.0974 26.2577,44.8599 4.6855,1.9247 8.5956,6.4462 8.6849,10.0475 0.2461,9.5389 -16.4653,13.0313 -28.0206,5.8591 -7.5219,-4.6691 -10.8907,-4.9377 -16.4006,-1.3068 -10.0509,6.6245 -38.6652,-7.3134 -55.755,-27.1585 -18.2835,-21.2271 -30.4232,-62.7758 -32.2107,-110.2212 -1.1752,-31.2791 0.031,-39.8468 9.854,-69.7486 14.404,-43.8708 19.3418,-82.3286 15.1301,-117.8461 -3.4364,-29.009 -5.5746,-30.295 -13.4104,-8.0592 -7.8573,22.3121 -54.8504,83.2349 -72.8847,94.4945 -9.4848,5.921 -10.057,8.1087 -11.506,44.2742 -0.8399,20.9249 -3.501,59.228 -5.9161,85.1171 -2.415,25.8894 -6.2083,79.1297 -8.4357,118.312 -2.2212,39.1822 -6.0052,75.6046 -8.4049,80.9386 -5.23,11.6401 -14.3302,14.4222 -21.2461,6.4947 z m 188.6001,-131.4783 c -4.0148,-6.6172 -11.3552,-22.5395 -16.3053,-35.3829 -4.9531,-12.8427 -9.6386,-22.6862 -10.4077,-21.8743 -1.329,1.397 20.6801,59.4568 25.1163,66.2598 1.1506,1.7576 3.6211,3.158 5.4946,3.1122 1.8736,-0.046 0.1231,-5.4977 -3.8979,-12.1148 z m -34.7641,-41.6167 c -6.3529,-17.1717 -10.8046,-25.101 -11.423,-20.3598 -0.8952,6.8811 16.613,48.6129 20.3601,48.5209 0.8061,-0.031 -3.2149,-12.6923 -8.9371,-28.1611 z m 10.3585,-24.0135 c -0.031,-1.8123 -2.6673,-5.3364 -5.83,-7.8311 -6.236,-4.9239 -6.9712,-3.6915 -3.221,5.4072 2.5688,6.2283 9.1894,8.0013 9.051,2.4239 z m -21.0308,-14.9722 c 1.2244,-2.0966 0.4368,-3.7678 -1.7475,-3.7143 -2.1904,0.052 -3.9348,1.7872 -3.8855,3.8524 0.061,2.0649 0.8368,3.7364 1.7474,3.7142 0.9106,-0.031 2.6581,-1.756 3.8856,-3.8523 z m -273.1078,-64.9066 c 47.4638,-10.8335 84.3015,-25.3852 116.3214,-45.9468 l 25.9132,-16.64 1.8705,-34.97 c 2.1104,-39.5087 7.9157,-51.5722 19.511,-40.5316 4.1317,3.9308 7.2758,14.3644 8.6756,28.7709 1.2029,12.4314 3.4795,22.5705 5.0578,22.5318 6.0114,-0.1477 29.5156,-31.489 39.6772,-52.9019 34.1505,-49.423 40.993,-119.1292 -16.4437,-148.6724 -48.4885,-16.8799 -101.4209,-11.4802 -154.0298,1.1807 -73.5862,18.0153 -122.3053,19.9297 -185.7975,7.3024 -13.4965,-2.6846 -42.5969,-8.2435 -64.6644,-12.353 -29.2942,-9.594 -42.1841,-6.3885 -67.6794,6.9977 -33.6597,17.6772 -38.4098,22.9748 -49.0513,54.7031 -14.9916,44.6858 -8.9556,100.8318 15.8254,147.2536 18.2712,34.2322 39.1081,56.8129 61.5295,66.689 9.6755,4.2603 18.0804,7.2153 18.6773,6.5665 0.6029,-0.6489 2.5965,-10.5151 4.427,-21.9254 5.4023,-33.5733 11.8044,-50.7723 19.5325,-52.4582 3.8641,-0.843 8.5926,0.7088 10.5093,3.4481 3.2364,4.6319 2.4581,61.1957 -1.0368,75.133 -1.1968,4.7765 2.7227,7.1245 17.0037,10.1816 53.0507,11.3583 111.756,9.889 174.1715,-4.3603 z m -458.2993,-145.4169 c 9.1187,-9.581 16.7022,-37.2225 16.3945,-59.7722 -0.123,-8.3843 2.1259,-18.5834 4.9778,-22.6647 5.0085,-7.1682 12.9529,-8.1791 15.4301,-1.387 4.2733,11.7167 -2.005,18.6105 0.7152,30.4296 l 10.0386,-14.8551 c 5.5222,-8.1702 16.4683,-20.0851 24.3256,-26.4768 17.9543,-14.6043 22.1353,-24.0543 21.5077,-48.6079 -0.8861,-36.1883 -13.2996,-66.686 -34.0997,-84.0659 -12.5151,-10.4551 -51.1125,-31.2641 -52.8077,-28.4694 -0.403,0.6654 -3.5256,5.9281 -6.9405,11.6943 -8.3434,14.0946 -12.7889,13.3205 -14.5825,-2.5384 -1.8366,-16.3093 -7.9803,-17.2335 -11.5921,-1.745 -3.3934,14.5634 -8.1311,14.7806 -15.8404,0.7261 -5.483,-9.9943 -6.987,-10.632 -16.232,-6.8843 -19.225,7.7915 -40.643,22.9238 -52.445,37.0485 -24.836,29.7286 -34.628,75.2985 -22.427,104.37 8.614,20.521 23.55,36.6912 31.038,33.6043 8.012,-3.3011 13.718,12.381 14.386,39.5158 1.037,42.2673 12.881,53.1298 54.7921,50.2483 20.1294,-1.3835 26.9838,-3.4739 33.3613,-10.1702 z m -66.5354,-17.6196 c -6.048,-6.3646 -6.103,-7.3952 -0.636,-13.1344 3.258,-3.4247 8.343,-6.2867 11.296,-6.3593 3.548,-0.086 5.258,-4.268 5.058,-12.3828 -0.215,-9.1042 -2.492,-13.151 -8.839,-15.751 -4.697,-1.9246 -9.171,-7.2851 -9.943,-11.9121 -1.763,-10.5375 10.593,-16.2339 36.5919,-16.872 14.3241,-0.3513 19.2926,1.1303 22.4491,6.6914 6.0145,10.6086 1.6151,18.0244 -12.9828,21.8881 -7.1528,1.8936 -12.875,4.7077 -12.712,6.2536 0.1539,1.5456 0.3846,6.8239 0.5046,11.7284 0.1846,6.9049 2.775,9.3642 11.5398,10.8944 13.2996,2.3222 15.9239,14.5155 4.5194,20.9847 -12.1859,6.9113 -39.484,5.7299 -46.858,-2.0287 z m 51.6299,-130.2068 c -6.7006,-6.3791 -6.4175,-28.9232 0.3969,-31.7323 8.1957,-3.378 16.9821,5.1374 17.2682,16.7305 0.2154,9.2303 -5.3407,19.208 -10.7953,19.3418 -1.2399,0.031 -4.3317,-1.9225 -6.8698,-4.34 z m -42.0679,-7.3789 c -6.131,-7.027 -2.959,-22.9278 5.242,-26.3091 9.344,-3.8508 17.0996,4.6618 16.1489,17.7199 -0.966,13.275 -13.0659,18.1339 -21.3909,8.5892 z m 164.487,-112.91 c 3.058,-13.5854 -0.6215,-20.3121 -12.5674,-23.0016 -12.2844,-2.7657 -21.32,6.9283 -27.4822,29.5022 -3.4026,12.4625 -2.9719,16.058 2.9627,24.6502 l 6.9528,10.0595 13.9703,-15.734 c 7.685,-8.6541 14.9578,-20.1183 16.1638,-25.4763 z m -223.407,0.9808 c -7.19,-24.226 -14.955,-31.9938 -28.686,-28.706 -20.886,5.0011 -22.304,8.7587 -10.49,27.7898 5.836,9.3925 12.973,21.5252 15.868,26.9619 l 5.261,9.8847 11.177,-10.7196 c 10.518,-10.0961 10.921,-11.5624 6.87,-25.2108 z" fill="#00B894" transform="translate(-12.631245,-50.323667) matrix(0.26458333,0,0,0.26458333,2116.9281,573.02602)"/>
</svg>