<?xml version="1.0" ?><svg height="115.59863mm" viewBox="0 0 141.86656 115.59863" width="141.86656mm" xmlns="http://www.w3.org/2000/svg">
    <path d="m -1793.2325,14551.593 c 46.3217,-9.112 179.0459,-4.868 242.1488,-2.871 63.1029,1.997 77.8038,10.734 77.3878,21.468 -0.4161,10.734 -1.3869,21.468 13.314,46.93 14.7009,25.462 68.0956,134.799 54.9203,200.202 -13.1752,65.402 -79.7454,146.282 -245.7546,138.044 -166.0092,-8.238 -282.923,-61.284 -247.4189,-198.953 35.5041,-137.67 69.7238,-164.753 69.7238,-164.753 0,0 -13.0006,-35.574 35.6788,-40.067 z" fill="#FFFFFF" transform="translate(-50.775049,-113.04589) matrix(0.26458333,0,0,0.26458333,560.10821,-3732.0656)"/>
    <path d="m -1683.106,14969.192 c -38.3729,-2.1 -92.1236,-13.281 -128.29,-26.687 -33.4795,-12.409 -69.249,-40.156 -87.8622,-68.154 -23.1514,-34.825 -31.249,-83.251 -22.0962,-132.142 9.3524,-49.958 36.1627,-101.592 68.4448,-131.822 l 19.9983,-18.727 c -11.5557,-16.23 -2.5771,-35.077 12.7485,-40.264 72.3169,-22.439 152.4447,-20.054 228.9353,-16.147 73.425,4.028 117.856,12.047 129.1145,23.307 4.8543,4.854 4.9821,15.362 0.2689,22.09 -3.3027,4.714 -2.9948,6.103 3.7427,16.86 40.4337,64.551 55.6495,98.186 63.7593,140.936 9.5654,50.426 6.6925,88.784 -9.0648,121.032 -49.5845,86.005 -112.6001,103.905 -207.1633,109.911 -31.2511,0.368 -63.8921,0.282 -72.5358,-0.193 z m 105.1769,-30.094 c 32.2333,-2.814 53.9661,-9.156 75.488,-22.029 17.268,-10.328 61.3351,-52.2 69.3751,-65.921 13.7084,-23.39 16.733,-56.464 9.8965,-108.213 -6.5675,-49.712 -18.4219,-85.315 -41.6996,-125.247 -13.4739,-23.114 -11.674,-22.431 -39.515,-14.983 -46.4813,12.438 -77.6709,16.062 -137.6184,15.993 -71.7901,-0.09 -150.1243,-7.342 -168.9216,-15.658 -5.911,-2.613 -10.929,-4.468 -11.1511,-4.12 -0.2222,0.35 -6.6863,9.339 -14.3647,19.978 -28.3387,39.263 -52.3617,100.366 -57.2771,145.686 -2.2752,30.305 -1.3326,52.262 11.9203,80.18 8.6351,17.713 28.3813,38.629 50.3141,53.3 47.9619,32.08 155.9477,49.555 253.5535,41.034 z m -61.9734,-42.171 c -3.4992,-1.902 -7.001,-5.123 -7.782,-7.158 -1.0894,-2.837 -5.4011,-3.699 -18.5283,-3.699 -35.8572,0 -71.4039,-15.377 -86.4067,-37.379 -10.3435,-15.169 -10.2613,-25.36 0.3218,-39.931 10.2134,-14.063 24.5104,-21.213 48.4407,-24.228 10.5291,-1.329 20.8655,-3.918 22.9696,-5.757 8.4627,-7.395 21.2303,-11.899 34.4087,-12.139 11.5132,-0.21 14.7769,0.726 20.1698,5.783 4.8817,4.58 6.1213,7.598 5.1379,12.517 -1.155,5.773 0.067,7.25 11.2231,13.553 l 12.5194,7.072 11.3437,-8.966 c 12.1902,-9.636 37.2986,-20.743 52.3218,-23.146 12.5755,-2.01 16.0548,2.403 14.5161,18.415 -1.3451,14 -7.4209,21.925 -21.6102,28.184 l -9.1979,4.059 12.6593,6.841 c 14.9367,8.071 21.1219,14.769 21.1219,22.873 0,16.506 -53.8998,17.189 -71.235,0.904 l -5.3738,-5.049 -11.0213,11.021 c -10.1004,10.101 -10.9168,11.8 -9.772,20.334 2.1656,16.147 -11.0382,24.15 -26.2266,15.896 z m 13.1909,-11.828 c 1.9555,-5.098 -0.5887,-6.267 -7.1383,-3.282 -4.2809,1.948 -5.0345,3.206 -2.781,4.636 4.6529,2.952 8.4662,2.432 9.9193,-1.354 z m 5.9942,-35.423 15.2402,-6.993 -0.7331,-12.627 -0.7332,-12.626 -22.9697,-6.916 c -21.3337,-6.424 -25.3806,-6.862 -56.8196,-6.179 -29.8779,0.652 -35.2206,1.411 -45.5297,6.487 -6.4238,3.163 -12.2773,7.307 -13.0079,9.211 -2.5748,6.711 23.1272,27.352 34.0571,27.352 1.9348,0 7.8273,-4.895 13.0949,-10.88 5.2675,-5.984 10.2562,-10.881 11.0858,-10.881 3.2841,0 1.2189,11.325 -3.4664,19.011 -2.7263,4.472 -4.6243,8.463 -4.2178,8.87 0.4066,0.407 7.2653,1.822 15.242,3.144 21.1521,3.508 41.071,1.143 58.7574,-6.973 z m -99.5826,-19.547 c -3.2789,-4.68 -3.3646,-6.22 -0.581,-10.438 4.3485,-6.589 14.9721,-7.814 17.9838,-2.071 2.5007,4.769 -0.3257,15.258 -4.1117,15.258 -1.264,0 -3.9062,0.616 -5.8717,1.372 -2.0951,0.803 -5.165,-0.902 -7.4194,-4.121 z m 152.1375,3.875 c -7.2822,-6.525 -11.0815,-11.566 -9.6715,-12.829 1.2776,-1.147 9.9388,-5.059 19.2476,-8.697 9.3088,-3.638 18.8292,-8.32 21.1562,-10.408 4.6406,-4.16 5.7541,-12.713 1.655,-12.713 -3.9213,0 -37.6682,15.983 -45.4582,21.53 -6.7471,4.804 -6.8191,5.103 -3.9541,16.386 3.0974,12.199 10.0328,17.474 22.9743,17.475 5.5552,0 5.0731,-0.867 -5.9493,-10.744 z m -282.6187,-51.52 c -7.5115,-16.738 -8.5192,-39.602 -2.9119,-66.06 3.9756,-18.756 8.1732,-27.638 18.762,-39.699 18.9336,-21.565 34.3356,-12.13 21.4459,13.136 -6.0183,11.796 -11.5824,33.752 -13.5723,53.555 -2.1139,21.038 -4.9522,31.59 -11.6853,43.444 -7.6501,15.918 -6.5679,7.816 -12.0384,-4.376 z m 150.7999,-65.832 c -3.2973,-1.378 -8.0351,-4.352 -10.5286,-6.608 -3.5405,-3.206 -9.7201,-4.188 -28.2095,-4.489 -22.6334,-0.369 -33.8475,-3.083 -33.8475,-8.192 0,-1.385 3.8484,-1.746 9.3134,-0.872 5.1223,0.82 19.4062,0.182 31.742,-1.425 l 22.429,-2.916 5.8324,6.291 c 4.1145,4.437 8.4746,6.37 14.8016,6.561 4.9332,0.144 12.3636,0.666 16.5121,1.153 4.1485,0.486 13.0051,-0.533 19.6813,-2.266 10.7115,-2.778 13.378,-2.645 22.6805,1.13 15.5679,6.316 30.2405,5.703 45.4983,-1.898 11.8529,-5.909 13.8234,-6.211 23.5234,-3.616 6.1712,1.65 16.1008,2.183 23.8063,1.278 9.1779,-1.079 13.2192,-0.713 13.2192,1.197 0,1.512 -2.448,2.786 -5.4401,2.827 -2.9921,0.04 -7.5523,1.675 -10.1336,3.627 -5.5673,4.211 -14.6986,4.547 -25.0991,0.921 -6.4856,-2.261 -9.4173,-1.713 -20.8926,3.901 -12.1288,5.933 -14.9518,6.383 -30.8977,4.928 -20.3211,-1.853 -24.1317,-1.869 -55.0263,-0.238 -9.2222,-0.997 -20.2023,1.976 -28.9645,-1.294 z m 198.2146,-16.757 c 0,-1.329 4.8962,-2.418 10.8804,-2.418 5.9841,0 10.8804,1.089 10.8804,2.418 0,1.331 -4.8963,2.419 -10.8804,2.419 -5.9842,0 -10.8804,-1.088 -10.8804,-2.419 z m -69.9919,-109.915 c 38.1098,-5.145 75.9271,-12.519 82.601,-16.103 7.3681,-3.371 4.7814,-3.172 -1.7287,-4.952 -16.3588,-4.465 -69.4129,-9.438 -137.4095,-12.874 -113.5854,-5.742 -126.9971,-5.253 -168.945,6.14 -9.9119,2.691 -23.6831,13.104 -23.6831,17.903 0,1.696 6.2561,5.062 13.9025,7.479 26.7022,8.447 178.982,10.005 235.2628,2.407 z" fill="#00B894" transform="translate(-50.775049,-113.04589) matrix(0.26458333,0,0,0.26458333,560.10821,-3732.0656)"/>
</svg>