<?xml version="1.0" ?><svg height="125.1414mm" viewBox="0 0 183.37735 125.1414" width="183.37735mm" xmlns="http://www.w3.org/2000/svg">
    <path d="m 6477.232,20605.808 c 18.4854,-25.099 44.8472,-46.582 84.6311,-59.963 39.7838,-13.381 99.4997,-36.817 132.9338,-48.317 33.435,-11.501 140.731,-23.002 188.712,0.433 47.982,23.436 102.072,71.609 102.072,71.609 0,0 23.388,15.044 37.132,22.712 13.743,7.667 45.731,31.825 35.122,62.205 -10.609,30.379 -38.659,44.049 -50.634,67.051 -11.975,23.001 -31.747,112.764 -124.736,137.429 -92.99,24.665 -169.664,32.911 -226.0851,-7.594 -56.4207,-40.506 -80.6929,-91.717 -98.8568,-104.592 -18.1639,-12.875 -72.4388,-26.637 -83.0478,-67.142 -10.609,-40.506 2.7568,-73.831 2.7568,-73.831 z" fill="#FFFFFF" transform="translate(37.072561,-5.5997569) matrix(0.303184,0,0,0.303184,-1995.2646,-6202.917)"/>
    <path d="m 6724.5151,20884.554 c -31.3251,-6.752 -76.332,-28.329 -102.9022,-49.329 -10.7283,-8.481 -31.7626,-31.116 -46.7435,-50.301 -24.5848,-31.483 -30.0123,-36.146 -55.7239,-47.865 -19.6731,-8.964 -32.077,-17.689 -40.0928,-28.196 -13.9584,-18.3 -22.9523,-50.216 -19.5881,-69.504 7.3107,-41.913 53.2124,-85.491 105.3595,-100.019 9.881,-2.755 35.9306,-13.677 57.888,-24.274 64.1125,-30.942 92.8961,-37.509 163.6833,-37.344 54.8709,0.123 62.5211,1.061 91.3836,11.139 41.964,14.653 61.1937,26.453 86.2181,52.914 11.4921,12.153 21.8232,21.165 22.9577,20.03 5.4633,-5.461 64.0722,38.371 71.8475,53.734 6.8882,13.609 6.26,41.946 -1.2818,57.84 -3.4862,7.344 -15.0067,23.261 -25.6005,35.366 -10.7382,12.272 -22.976,31.94 -27.6542,44.44 -31.7371,84.827 -114.4421,138.055 -213.3003,137.283 -22.2754,-0.18 -52.178,-2.836 -66.4504,-5.914 z m 257.7981,-132.991 c 14.339,-49.402 56.7666,-71.552 63.076,-83.601 2.9841,-5.902 6.6008,-17.222 8.0358,-25.161 2.381,-13.168 1.2325,-15.677 -13.0857,-28.615 -8.633,-7.8 -19.8975,-16.418 -25.032,-19.155 -5.1346,-2.736 -11.5243,-7.823 -14.1994,-11.308 -2.8672,-3.734 -4.9152,-4.401 -4.9901,-1.629 -0.1647,6.052 9.8803,16.091 18.9943,18.983 8.4998,2.699 20.8014,22.353 20.8014,33.237 0,8.661 -16.7015,28.572 -24.7612,29.519 -2.8493,0.332 -6.9774,0.89 -9.173,1.234 -42.0412,16.953 -72.7651,52.536 -111.3782,62.432 -15.6504,3.875 -26.0148,3.764 -51.8995,-0.545 -17.7892,-2.964 -50.2472,-4.883 -72.1293,-4.27 -35.6126,0.997 -40.6777,2.078 -48.2967,10.3 -16.5808,17.89 -40.3578,16.825 -87.236,-3.908 -14.6559,-6.479 -25.0202,-14.24 -30.0392,-22.495 -6.2206,-10.228 -13.916,-14.749 -40.8824,-24.01 -41.2485,-14.169 -47.1932,-20.709 -47.1932,-51.908 0,-23.849 5.2734,-33.823 24.1127,-45.604 3.2319,-2.022 11.0424,-10.603 17.3558,-19.068 11.0688,-14.842 11.1395,-15.216 1.9727,-10.443 -18.0174,9.378 -64.0617,48.682 -71.6933,61.198 -14.5596,23.876 -15.7551,68.647 14.8587,85.101 78.8445,42.377 108.915,92.773 144.4051,117.197 54.6674,32.542 106.7867,48.095 224.2916,32.977 63.9239,-24.44 95.072,-58.166 114.0851,-100.458 z m -181.9447,-44.338 c 5.062,-3.201 5.9885,-19.211 5.9885,-103.533 0,-139.774 6.6845,-123.38 12.4732,30.589 1.4241,37.876 3.4742,68.866 4.5557,68.866 1.0815,0 14.4174,-4.491 29.6352,-9.982 15.2176,-5.489 32.2993,-9.981 37.9596,-9.981 h 10.2904 l -2.0144,-46.909 c -2.4768,-57.675 -16.3604,-118.903 -28.7489,-126.784 -20.7822,-13.223 -113.8095,-21.968 -129.6335,-12.187 -11.0825,6.848 -17.1452,45.455 -19.2701,122.708 -1.1885,43.208 -1.0759,81.384 0.2484,84.838 1.9421,5.061 9.223,6.27 37.4683,6.219 19.2819,-0.03 37.7525,-1.764 41.0461,-3.844 z m -89.422,-78.952 c 0.3818,-66.815 3.7369,-93.11 15.5364,-121.747 4.2123,-10.222 -9.6255,-9.016 -47.8696,4.174 l -31.9286,11.013 -6.4661,41.811 c -3.5562,22.995 -7.6388,59.328 -9.0724,80.736 l -2.6067,38.924 21.0399,0.299 c 27.5299,0.39 37.9153,2.48 48.2456,9.717 4.6779,3.275 9.4531,5.95 10.6112,5.941 1.1585,0 2.2878,-31.897 2.5103,-70.864 z m -96.6185,56.51 c 4.9938,-1.916 5.3554,-4.054 1.8088,-10.679 -6.298,-11.768 -1.8228,-70.317 8.1553,-106.697 11.2526,-41.024 11.1956,-41.25 -7.867,-31.313 -14.4928,7.554 -18.9359,13.836 -40.7265,57.581 -22.7874,45.75 -24.0849,49.803 -18.9853,59.331 5.4018,10.093 26.5034,25.502 42.0451,30.702 4.3917,1.47 8.2868,2.851 8.6563,3.072 0.3692,0.21 3.4801,-0.679 6.9133,-1.997 z m 338.9402,-9.665 c 11.3534,-8.931 11.3146,-4.042 0.6097,-75.771 -5.26,-35.245 -7.9671,-43.725 -17.0044,-53.252 -11.2657,-11.882 -43.8523,-32.748 -46.6976,-29.901 -0.91,0.911 2.8764,15.921 8.4139,33.358 8.4134,26.496 16.873,84.955 17.42,120.381 0.1221,8.086 4.3884,10.491 22.5514,12.709 2.449,0.3 9.0672,-3.087 14.707,-7.524 z m 31.7255,-22.873 c 3.4157,-3.844 7.9768,-13.491 10.1363,-21.444 3.7016,-13.635 2.9005,-15.753 -14.0514,-37.119 -9.8867,-12.465 -18.7846,-21.855 -19.7724,-20.867 -0.9878,0.988 0.1222,12.184 2.4708,24.879 2.3471,12.696 4.2671,30.535 4.2671,39.646 0,22.915 5.5167,27.766 16.9496,14.905 z m -415.7249,-65.873 c 11.1172,-22.112 11.5288,-24.043 3.6192,-16.968 -14.693,13.145 -24.2169,28.81 -21.6234,35.568 1.3402,3.495 3.1173,6.351 3.9485,6.351 0.8315,0 7.1565,-11.228 14.0557,-24.951 z" fill="#00B894" transform="translate(37.072561,-5.5997569) matrix(0.303184,0,0,0.303184,-1995.2646,-6202.917)"/>
</svg>