<?xml version="1.0" ?><svg height="248.21341mm" viewBox="0 0 253.78773 248.21341" width="253.78773mm" xmlns="http://www.w3.org/2000/svg">
    <path d="m -8159.7165,-173.3939 c 0,0 130.0897,-49.2773 224.1645,-72.5775 94.0747,-23.3003 213.5402,-5.6486 240.215,5.6485 26.6747,11.2971 67.2573,79.0796 67.2573,79.0796 0,0 79.4536,14.4422 94.1461,18.7428 14.6924,4.3006 18.7578,29.0772 -4.7787,42.685 -23.5365,13.6078 -108.9099,27.6008 -119.1803,31.4521 -10.2705,3.8513 -106.4848,46.4721 -106.4848,46.4721 0,0 -12.125,53.0834 -19.3285,65.6642 -7.2036,12.5809 -15.8337,32.7359 -24.1784,17.7801 -8.3448,-14.9558 -30.4549,-53.9179 -30.4549,-53.9179 0,0 -54.9185,45.8302 -78.5976,53.7253 -23.6792,7.8951 -34.5915,8.1519 -27.174,-14.6348 7.4176,-22.7868 14.4072,-44.8674 14.4072,-44.8674 0,0 -20.2556,-4.0439 -49.9259,10.3984 -29.6703,14.4423 -227.3923,128.9681 -259.1309,171.974 -31.7386,43.0059 -86.4168,120.4791 -100.396,170.0964 -13.9793,49.6173 -20.327,98.015 -20.327,98.015 0,0 25.3196,78.8869 18.6152,116.116 -6.7043,37.229 -15.0799,66.9712 -22.4262,75.6365 -7.3463,8.6654 -4.7786,-23.3002 -22.8946,-46.9855 -18.116,-23.6854 -32.0239,-59.6948 -32.0239,-59.6948 l -50.2112,7.51 c 0,0 2.0683,-65.2792 23.1799,-97.6941 21.1115,-32.4149 42.5083,-45.7018 42.5083,-45.7018 0,0 -17.7676,-117.2218 -9.7081,-163.3087 8.0595,-46.0869 7.8736,-130.265 59.0833,-207.8682 51.2097,-77.6032 120.1788,-147.5039 120.1788,-147.5039 0,0 -100.2084,-27.665 -91.5071,-41.2728 8.7014,-13.6079 93.5813,-55.8692 164.9725,-14.9686 z" fill="#FFFFFF" transform="translate(-4.6631964,9.6919467) matrix(0.26458333,0,0,0.26458333,2247.1293,62.164708)"/>
    <path d="m -8385.3444,655.65403 c -0.5756,-2.39924 -3.8581,-15.91399 -6.7612,-30.18783 -3.369,-16.54817 -9.8769,-33.3936 -17.9579,-46.4882 -6.971,-11.29482 -12.6751,-22.91448 -12.6751,-25.82176 -3.006,-7.53819 -31.5253,5.15643 -38.1282,8.91577 -7.2401,4.5981 -11.2932,-11.55697 -13.8864,-28.83824 -2.9884,-19.93109 3.8702,-65.62307 12.9888,-86.52505 9.6059,-22.02025 34.9357,-49.73553 50.2058,-54.93105 1.6371,-0.55751 -0.2135,-16.83522 -4.1023,-36.17243 -13.0277,-64.70675 -8.3631,-169.4242 10.5433,-236.6656 20.9435,-74.48348 81.4549,-165.682645 137.4111,-207.098851 12.6668,-9.375043 22.2244,-18.351469 21.236,-19.947619 -3.8294,-6.19703 -31.2168,-17.58374 -55.4597,-23.05843 -38.2258,-8.63237 -47.4641,-21.49968 -28.8204,-40.14238 29.7466,-29.7469 115.8912,-37.78315 156.556,-14.60463 10.9554,6.24437 11.2848,6.20177 25.4403,-3.30627 23.8745,-16.03381 88.528,-39.57838 152.7805,-55.63836 85.5766,-21.38886 120.5401,-26.72731 175.0448,-26.72731 112.4127,0 163.867,27.11193 185.7328,84.14652 10.8445,28.28669 37.7361,22.70351 59.5953,26.42672 20.1753,3.46377 38.7,7.36294 43.412,9.60946 30.2947,14.44363 15.6877,51.07682 -29.6129,74.262681 -13.478,6.898123 -46.4488,12.363812 -79.0261,13.100261 -11.8398,0.267758 -22.4146,1.92275 -23.4996,3.6777 -2.8734,4.646174 -46.1007,25.796704 -71.6087,35.034573 -21.8169,7.902143 -21.9774,8.06419 -24.4332,24.42506091 -5.8062,38.72795709 -26.4528,72.09547309 -44.6092,72.09547309 -14.82,0 -35.6169,-40.838277 -25.7976,-50.658067 5.4638,-5.464111 10.7901,-0.699511 19.1876,17.162473 4.1189,8.761753 9.2875,15.369843 11.489,14.684625 3.757,-1.16978 25.3279,-59.2471919 22.9046,-61.6701893 -0.6162,-0.6164458 -11.178,-0.2089159 -23.4726,0.9059209 -20.9603,1.9005684 -22.6958,2.7553509 -27.9127,13.7507678 -5.9046,12.4413076 -35.8814,43.5819346 -53.4197,55.4923676 -20.7589,14.099456 -51.5561,28.185268 -61.6223,28.185268 -5.642,0 -13.0714,-3.105616 -16.5045,-6.90137 -7.7765,-8.593302 -5.3366,-22.192975 9.1511,-51.019377 5.6475,-11.235888 10.2695,-21.3304889 10.2695,-22.4324251 0,-2.6375747 -96.5245,46.4331581 -137.4678,69.8868671 -74.3048,42.56213 -154.3759,108.30874 -192.4625,158.03443 -23.622,30.84094 -42.3196,71.74112 -60.7759,132.9351 -7.0721,23.45037 -15.1512,49.74788 -17.9532,58.43919 -4.8233,14.9522 -4.646,16.58491 3.3078,30.35016 21.5496,37.30258 21.9589,89.49967 11.218,140.58155 -13.7133,65.21812 -42.4535,81.25217 -50.5046,56.7325 z m 28.8157,-68.61332 c 7.9854,-42.37494 5.2113,-73.49227 -10.8272,-121.42236 -6.893,-20.60815 -11.9402,-33.53912 -11.9402,-36.45559 0,-7.74548 5.3173,-12.79603 11.6989,-3.68346 5.2976,7.56172 5.5602,6.93051 5.5677,-13.38983 0,-41.37147 30.0789,-133.2113 56.9873,-174.10174 48.1546,-73.17523 141.6127,-148.382999 251.862,-202.675701 49.105,-24.182455 98.5626,-42.6710937 114.1427,-42.6710937 8.2852,0 16.1852,-12.2813963 16.1852,-25.1623463 0,-9.9539 10.1042,-8.6385 14.9276,1.94289 5.0507,11.086186 0.2135,28.8766128 -17.3509,63.754615 -6.7751,13.457209 -11.3943,25.392144 -10.2648,26.522016 2.5653,2.563327 26.9029,-10.694154 49.2368,-26.819287 22.7895,-16.453588 40.5553,-37.8725254 47.8845,-57.735963 3.3347,-9.032479 7.5872,-18.431281 9.4536,-20.886113 6.3845,-8.396822 12.7763,-4.72135 13.9095,7.995604 l 1.1063,12.458571 c 89.3539,-13.044525 110.0726,-49.145334 213.667,-61.266078 26.3646,-4.211544 61.573,-22.636254 65.3327,-28.715974 2.775,-4.4909 0,-3.77617 -37.1139,9.58442 -31.5518,11.355895 -65.0498,12.985921 -82.4062,4.00996 -19.286,-9.97292 -12.5136,-14.52842 19.7741,-13.30509 25.6871,0.97339 62.0298,-5.30745 93.8971,-16.22843 8.765,-3.00306 -5.9231,-7.13321 -40.3353,-11.34244 -32.6572,-3.99473 -51.3872,-11.19765 -55.1386,-21.20732 -1.2511,-3.33403 -4.0864,-7.66855 -6.3037,-9.63232 -2.2181,-1.96405 -11.1168,-12.26153 -19.7741,-22.88339 -17.9672,-22.03993 -39.0694,-33.36816 -77.2061,-41.44859 -32.9625,-6.98444 -119.4452,-5.20886 -160.5116,0.20353 -109.859,14.47899 -242.3775,66.72862 -254.8746,76.60401 -3.5143,2.77702 -6.2046,2.43805 -24.7739,-6.20437 -26.0534,-12.12564 -112.8971,-8.90848 -130.7993,4.18194 -5.3904,3.94091 -3.1444,4.913 16.4905,7.13442 37.4304,4.23456 70.5653,21.80481 70.6171,38.72636 0.033,10.93569 -20.0197,22.75672 -38.2189,46.093767 -77.3341,99.165348 -108.2724,158.256061 -124.3268,237.470363 -5.0433,24.87955 -6.3844,49.0246 -6.4057,115.37363 0,46.15009 1.1944,93.18113 2.6887,104.51345 2.5681,19.45591 2.2544,20.78022 -5.576,23.75803 -10.2667,3.90286 -28.7684,24.62489 -37.7961,42.32427 -8.3482,19.69947 -23.3251,78.04304 -14.4418,76.61198 5.655,-1.20506 13.6279,-2.60258 22.7279,-15.26663 27.4561,-33.15098 26.8898,3.49996 24.7061,19.54185 -1.9973,14.58522 -1.1193,17.32025 9.423,29.32906 14.8469,16.90808 21.4188,32.77492 21.558,52.03268 0.1615,22.16328 5.2837,10.85277 12.5414,-27.66442 z m 597.9645,-699.68559 c -3.6373,-4.38185 -3.7524,-7.60719 -0.5253,-14.68963 4.6117,-10.12096 13.5317,-10.36199 19.7231,-0.53264 7.9269,12.5872 -9.7535,26.60462 -19.1978,15.22227 z m 30.9058,-0.64243 c -3.8804,-3.87956 -2.7156,-17.28099 1.9044,-21.89969 11.6867,-11.68844 27.754,6.13392 17.0985,18.9706 -4.5635,5.50049 -14.8469,7.0856 -19.0029,2.92909 z" fill="#00B894" transform="translate(-4.6631964,9.6919467) matrix(0.26458333,0,0,0.26458333,2247.1293,62.164708)"/>
</svg>