<?xml version="1.0" ?><svg height="106.42992mm" viewBox="0 0 162.85721 106.42992" width="162.85721mm" xmlns="http://www.w3.org/2000/svg">
    <path d="m 8190.1785,-179.17497 c -0.8348,-14.87065 10.2627,-30.91239 22.7597,-38.75649 12.4971,-7.8441 47.4102,-16.90349 57.3294,-14.49501 9.919,2.40848 23.8154,5.17049 29.7572,9.16985 5.9415,3.99939 25.4849,19.26778 28.775,22.40542 3.2901,3.13764 9.1824,12.44007 9.1824,12.44007 0,0 8.446,-2.27589 10.0666,-1.10479 1.6203,1.17107 -1.3751,9.41289 -1.7923,11.46783 -0.4175,2.05494 -2.6027,13.83213 -3.9775,16.54995 -1.375,2.7178 -13.3318,19.5329 -22.2935,19.5992 -8.9615,0.0663 -16.5971,-0.0442 -25.6323,-6.58463 -9.0353,-6.54042 -10.582,-8.35229 -12.939,-8.57327 -2.3571,-0.22095 -18.6351,1.61303 -18.6351,1.61303 0,0 -8.9371,6.58461 -21.1148,6.1427 -12.178,-0.44193 -38.3995,-5.19258 -43.4573,-10.36304 -5.0578,-5.17049 -8.0285,-19.51082 -8.0285,-19.51082 z" fill="#FFFFFF" paint-order="markers stroke fill" transform="translate(273.9752,-143.10707) translate(-8461.8472,378.6212)"/>
    <path d="m 8283.4089,-129.61076 c -3.4917,-1.73392 -1.9178,-6.50367 1.98,-6.00106 5.0551,0.65182 7.2177,-1.369 3.3507,-3.13094 -4.0506,-1.84561 -12.776,-1.07613 -27.0595,2.38632 -11.7011,2.83647 -14.8808,3.30904 -22.0647,3.27943 -10.4486,-0.0431 -18.7022,-1.74633 -26.0956,-5.38535 -8.578,-4.22195 -13.2286,-8.82929 -17.2269,-17.06672 -1.8484,-3.80807 -3.8515,-7.51711 -4.4513,-8.24228 -2.9366,-3.55006 -4.9694,-19.03646 -3.4557,-26.32769 3.9769,-19.15483 31.7751,-39.11719 61.5624,-44.20908 23.5778,-4.03043 47.7144,2.24341 60.7786,15.7982 1.96,2.0337 4.232,3.69764 5.0485,3.69764 2.5852,0 4.5774,1.56883 4.5774,3.6048 0,1.38401 0.7405,2.3327 2.5517,3.26929 3.8072,1.96877 10.9077,8.94458 14.0173,13.77107 2.0485,3.1791 3.0818,4.12692 4.0788,3.74108 2.6649,-1.03147 5.7161,-1.38145 7.7008,-0.88332 1.7327,0.43486 2.0278,0.95807 2.0278,3.59363 0,1.69658 -0.5952,4.47757 -1.3226,6.17998 -0.7273,1.70242 -1.4603,5.79321 -1.6285,9.09065 -0.2309,4.52556 -0.8893,7.24831 -2.6859,11.10617 -2.9953,6.43226 -8.8133,14.63688 -12.1741,17.16802 -6.4331,4.84514 -17.8336,5.93055 -26.8154,3.79809 -2.4038,-0.57071 -5.61,-2.58353 -8.3237,-3.29455 -1.989,-0.52113 -11.5653,-6.06217 -12.63,-8.05187 -1.0494,-1.96071 -8.1378,-3.41636 -14.625,-3.00328 -4.4314,0.28216 -5.6756,0.69673 -7.587,2.52779 -8.5687,8.20941 -35.8749,7.89287 -55.6965,-0.64564 l -3.1975,-1.37736 2.398,2.53649 c 6.2726,6.6344 17.6439,11.03564 30.3765,11.75706 6.9598,0.39432 10.1654,0.0669 24.7809,-2.53118 18.3977,-3.27046 23.4353,-3.34185 29.1756,-0.41357 8.2332,4.20029 6.8736,11.89527 -2.4015,13.59135 -1.9082,0.34893 -3.8529,0.21844 -4.9636,-0.33317 z m 35.1705,-15.26411 c 9.7375,-2.29575 12.6683,-4.8577 20.0943,-17.56528 2.6356,-4.51006 3.0021,-5.64716 2.2232,-6.89446 -0.7355,-1.17792 -0.6591,-2.04476 0.3624,-4.10069 1.9763,-3.97831 4.6736,-11.08098 4.6736,-12.3062 0,-0.60084 -0.4287,-1.09246 -0.9529,-1.09246 -1.0695,0 -12.8777,7.45606 -15.5936,9.84643 -1.7675,1.5556 -4.2372,1.37567 -4.2372,-0.3087 0,-1.0462 4.119,-5.22959 7.5596,-7.67748 l 2.3634,-1.68174 -2.2981,-3.48663 c -2.4944,-3.78398 -12.4,-15.10455 -13.1555,-15.03464 -0.2557,0.0235 -1.5212,2.20188 -2.8123,4.8405 -2.6483,5.41249 -5.3746,8.70597 -7.2069,8.70597 -1.9438,0 -1.4776,-2.7577 1.4555,-8.61328 5.3299,-10.63931 4.6604,-11.43262 -3.324,-3.93746 -2.9685,2.78677 -7.8049,6.26749 -10.8296,7.79399 -6.8342,3.44931 -9.8698,6.36259 -12.9202,12.40049 -2.8857,5.7114 -3.0292,11.32079 -0.4785,18.69131 2.538,7.33397 4.2309,9.48109 10.7875,13.68181 5.5817,3.90192 8.9329,7.62348 16.0704,7.87108 1.7586,0.0283 5.4572,-0.48143 8.2189,-1.13256 z m -14.5132,-7.1997 c -1.646,-1.64589 -1.6789,-3.58354 -0.061,-3.58354 2.0421,0 6.0809,2.42126 5.7451,3.44427 -0.4883,1.48829 -4.2432,1.58029 -5.6842,0.13935 z m -12.8417,-3.48862 c -1.6051,-3.10364 -0.2718,-4.06921 2.6287,-1.90373 2.5741,1.9219 2.7363,3.71934 0.366,4.05668 -1.2728,0.18104 -2.0923,-0.40792 -2.9947,-2.15295 z m -3.655,-10.68671 c -1.881,-3.08498 -2.0272,-5.05705 -0.4204,-5.67363 1.6215,-0.62223 4.4258,3.16771 4.4258,5.98129 0,3.13206 -2.0021,2.97826 -4.0054,-0.30766 z m -35.6683,13.83297 c 3.7367,-0.86699 8.6278,-4.64877 9.6234,-7.44059 1.7164,-4.81397 -4.5887,-17.285 -10.3115,-20.39552 -2.4191,-1.31471 -0.872,-2.06232 2.1816,-1.05447 6.262,2.06664 13.3767,12.83469 13.3918,20.26881 0,3.77385 0.03,3.80609 2.2062,3.19753 1.209,-0.3381 4.2664,-0.59225 6.7947,-0.56471 2.5279,0.0274 4.5965,-0.0884 4.5965,-0.25735 0,-0.16903 -0.9618,-1.94818 -2.1367,-3.95357 -1.6825,-2.87065 -2.2149,-4.99019 -2.5029,-9.96463 -0.3439,-5.94361 -0.2062,-6.6368 2.335,-11.6844 3.6023,-7.15724 8.7601,-12.26968 14.5723,-14.44431 2.5186,-0.94232 5.1952,-1.71392 5.9481,-1.71473 0.753,-6.1e-4 2.3795,-1.60094 3.6145,-3.55593 1.2351,-1.95495 3.5211,-4.67439 5.0799,-6.0432 1.5591,-1.36881 2.707,-2.57753 2.5509,-2.6861 -0.1564,-0.10853 -2.1972,-1.54251 -4.5357,-3.18658 -12.0956,-8.50338 -27.3683,-13.31012 -42.2653,-13.30194 -12.1985,0.007 -31.946,5.61835 -43.0363,12.22961 -18.2405,10.87376 -26.6954,22.22059 -26.7374,35.88338 0,3.3814 0.2767,6.33079 0.6381,6.55414 0.3615,0.22343 1.6463,2.92761 2.8553,6.00945 1.9211,4.89648 2.6703,5.8876 5.9379,7.85677 2.0566,1.23937 4.7179,2.6805 5.9137,3.20247 9.2606,4.04241 34.786,7.01793 43.2859,5.04587 z" fill="#00B894" transform="translate(273.9752,-143.10707) translate(-8461.8472,378.6212)"/>
</svg>