<?xml version="1.0" ?><svg height="198.72191mm" viewBox="0 0 162.37886 198.72191" width="162.37886mm" xmlns="http://www.w3.org/2000/svg">
    <path d="m -4318.7703,-3112.7703 c 20.5377,-2.6078 28.6151,-7.2368 38.0327,-19.1351 9.4177,-11.8983 15.2494,-39.0853 -2.1732,-70.6078 -17.4227,-31.5224 -31.6216,-47.9194 -40.2424,-49.81 -8.6207,-1.8907 -6.1978,-11.7946 -16.6658,-15.9998 -10.4681,-4.2052 -19.0888,0.065 -19.0888,0.065 0,0 -2.6442,-29.4036 -11.917,-38.0095 -9.2727,-8.606 -20.755,-13.9847 -27.6371,-13.7891 -6.8822,0.1956 -22.7473,4.14 -31.2231,10.5292 -8.4759,6.3893 -16.662,18.1898 -16.662,18.1898 0,0 -2.789,10.6924 -1.7386,14.5064 1.0504,3.814 19.4242,35.6718 19.4242,35.6718 0,0 -7.8695,22.5487 1.2946,26.3301 9.1641,3.7814 15.3942,-5.6069 15.3942,-5.6069 l 20.2841,-0.326 c 0,0 -4.0206,10.8878 -2.3544,15.6797 1.6662,4.792 5.4182,21.9181 32.1782,12.4185 10.027,12.6341 14.3618,32.202 14.8738,44.335 -0.326,10.4967 2.7988,29.0773 28.2206,35.5587 z" fill="#FFFFFF" transform="translate(49.695493,-25.817521) matrix(0.76237336,0,0,0.76237336,3342.5404,2558.2267)"/>
    <path d="m -4414.0725,-3065.8656 c -5.9793,-2.1795 -9.3776,-6.1578 -10.6873,-12.5106 -0.481,-2.3332 -1.5261,-7.4449 -2.3225,-11.3596 -3.8396,-18.8708 0.9809,-32.1836 21.9669,-60.6666 7.8954,-10.7163 11.0199,-16.1158 14.2025,-24.5451 4.8829,-12.9329 5.0552,-14.5619 1.7519,-16.5527 -1.3987,-0.8433 -3.7455,-3.4952 -5.2149,-5.8934 -2.1842,-3.5651 -2.6003,-5.7553 -2.281,-12.0095 l 0.3905,-7.6496 -7.2859,0.091 c -5.977,0.075 -7.9273,0.6325 -10.8577,3.1028 -4.2994,3.6237 -8.9898,4.487 -14.4807,2.6649 -8.4153,-2.7928 -10.4758,-11.3828 -5.7655,-24.0355 l 2.2077,-5.9299 -3.5673,-5.8537 c -1.9616,-3.2194 -4.9554,-7.7987 -6.6526,-10.1765 -1.6974,-2.3775 -3.3064,-6.3787 -3.5752,-8.8914 -0.2691,-2.5129 -1.1935,-5.7886 -2.054,-7.2795 -1.0658,-1.8462 -1.2584,-4.1514 -0.6046,-7.2258 0.5354,-2.5164 0.4566,-5.7879 -0.1771,-7.3914 -0.9125,-2.3083 -0.6293,-3.8833 1.4338,-7.9699 3.1775,-6.2948 10.2915,-13.5469 14.8944,-15.1838 2.3234,-0.8264 3.2652,-1.8124 2.8748,-3.0094 -0.8133,-2.4925 1.9105,-3.7023 7.717,-3.4264 8.2459,0.3919 16.1485,5.3819 11.1205,7.0226 -0.8655,0.2824 -3.6945,-0.078 -6.2869,-0.8014 -3.6625,-1.0219 -4.8087,-0.9731 -5.1407,0.218 -0.2362,0.843 -3.3259,3.3672 -6.8685,5.609 -3.5425,2.2416 -8.4307,6.5872 -10.8628,9.6565 -2.4319,3.069 -3.6691,4.9654 -2.7492,4.2141 4.4526,-3.6372 4.5205,-0.2207 0.1593,8.0213 -3.2675,6.1746 -4.3538,10.7411 -2.285,9.604 0.6339,-0.3483 2.3318,2.022 3.7734,5.2673 1.4415,3.2456 3.1686,6.279 3.8378,6.7417 0.6695,0.4624 2.6386,3.0299 4.3756,5.705 l 3.1587,4.8645 0.1828,-3.5798 c 0.2612,-5.1173 2.1941,-5.5031 4.6702,-0.9329 2.7083,4.9993 2.4066,11.0339 -1.0744,21.4937 -3.4476,10.3576 -3.6305,13.621 -0.8568,15.2925 3.413,2.0572 6.3449,1.7506 9.0668,-0.9476 4.8124,-4.7706 5.8765,-7.9961 7.2217,-21.8918 0.8791,-9.0801 1.8078,-13.904 2.7259,-14.1561 2.3879,-0.6559 3.9905,4.789 3.8265,13.0006 -0.086,4.3368 0.091,8.1597 0.3946,8.4961 0.3035,0.3362 3.201,-1.4552 6.4386,-3.9812 4.8104,-3.7528 5.9397,-4.2194 6.1758,-2.5527 0.8012,5.6543 -6.3295,13.13 -12.236,12.8285 -2.0927,-0.1069 -3.3497,0.4373 -3.4025,1.4731 -0.046,0.9033 -0.4536,2.4768 -0.9059,3.4964 -2.1575,4.8647 16.9231,-2.8104 21.393,-8.6053 4.7422,-6.1476 4.4537,-8.8043 -1.1741,-10.8085 -4.7985,-1.7086 -8.8964,-6.1547 -8.7272,-9.4687 0.053,-1.0442 2.6523,-5.8944 5.7758,-10.7783 3.1235,-4.8836 5.7118,-9.5257 5.7522,-10.3159 0.1324,-2.594 -6.6041,-7.7344 -13.0803,-9.981 -7.0016,-2.4291 -14.3539,-2.3675 -23.8802,0.1997 -6.7014,1.8062 -8.356,4.0883 -9.6442,13.3027 -0.9329,6.673 -1.0202,6.8123 -2.4664,3.9382 -0.8243,-1.6386 -1.4132,-5.4178 -1.3082,-8.3982 0.3404,-9.6375 6.2399,-14.1477 21.6618,-16.5591 9.7068,-1.5177 16.5664,-0.2331 25.6894,4.8112 12.1764,6.7326 13.0513,15.7582 2.4656,25.4364 -6.7908,6.2083 -8.1777,10.303 -3.8644,11.4093 1.4183,0.3639 3.8681,0.9989 5.4437,1.4109 4.7113,1.2322 7.0283,3.8952 7.5579,8.6866 l 0.5009,4.53 4.0144,-5.6049 c 2.208,-3.0829 4.9572,-7.8859 6.1099,-10.6739 9.4399,-22.8353 -1.5858,-55.2143 -21.089,-61.9311 -3.2259,-1.1108 -8.1764,-2.8091 -11.0011,-3.7738 -3.1525,-1.0769 -5.1017,-2.425 -5.0473,-3.4914 0.071,-1.3976 1.7873,-1.6339 8.7708,-1.2084 20.1469,1.2263 32.3655,14.6642 36.0122,39.6032 0.791,5.4079 1.565,10.0444 1.7199,10.3028 0.1547,0.2586 1.1127,-0.1502 2.1282,-0.9094 2.5188,-1.882 10.9731,-1.1202 16.6655,1.5018 4.1832,1.9265 13.4556,11.6779 13.3358,14.0245 -0.026,0.5005 2.7341,2.359 6.1325,4.1298 9.2961,4.8437 13.4407,9.0102 22.0807,22.1982 10.0365,15.3192 15.8388,26.0148 21.38,39.4112 8.7866,21.2426 10.1932,36.5834 4.4665,48.7102 l -3.0794,6.5217 4.4415,-2.2062 c 19.1636,-9.519 26.1942,-25.2858 20.4577,-45.8775 -3.2032,-11.4975 -7.2389,-20.0063 -19.5564,-41.2328 -11.6934,-20.151 -13.7961,-25.5597 -13.9967,-36.0051 -0.1902,-9.8916 3.2656,-18.1088 9.7859,-23.2695 11.6637,-9.2315 24.2102,-7.6589 31.2531,3.9172 4.5217,7.4323 1.9647,18.6914 -4.1736,18.378 -3.1002,-0.1583 -4.3636,-3.6241 -3.3341,-9.1454 0.7513,-4.0284 0.4591,-5.207 -1.948,-7.8735 -8.1957,-9.0779 -23.2519,0.9246 -23.9577,15.9165 -0.3756,7.9841 2.8599,15.8896 13.1867,32.2159 14.5997,23.0814 21.0532,36.6525 23.6346,49.7009 1.7314,8.7516 -0.2728,24.6576 -3.9614,31.4432 -6.5576,12.0627 -25.7383,24.4759 -38.7184,25.0575 -4.9764,0.2231 -7.4276,1.1882 -13.3398,5.2526 -3.9839,2.7388 -10.6407,6.298 -14.7934,7.9096 -6.2713,2.4339 -8.6487,2.7809 -14.039,2.05 -3.569,-0.4836 -7.5107,-1.3425 -8.7589,-1.9085 -4.4797,-2.031 6.4676,9.2889 11.329,11.7144 5.6428,2.8154 6.8553,5.2942 3.9884,8.1542 -1.6614,1.6575 -4.4215,2.057 -14.4728,2.0948 -6.8304,0.026 -14.7136,0.2635 -17.5172,0.5282 -3.0672,0.2896 -5.3683,-0.01 -5.7764,-0.7529 -0.4659,-0.8476 -2.3825,-0.9348 -6.1178,-0.2783 -6.6434,1.1675 -9.4087,0.1504 -8.7343,-3.2122 0.8925,-4.4473 8.5496,-6.8605 21.709,-6.8417 l 11.6971,0.017 -11.5124,-15.0076 c -6.3317,-8.2544 -12.0558,-15.2196 -12.7204,-15.4786 -0.6644,-0.2593 -2.3089,2.4884 -3.6544,6.1049 -1.3455,3.6166 -2.781,7.3424 -3.19,8.2795 -0.5178,1.1868 -0.055,1.0796 1.5525,-0.3517 2.2434,-2.0092 2.3394,-1.9958 4.2224,0.5886 2.1655,2.9726 3.4012,9.7596 2.2493,12.3567 -1.0227,2.3065 -8.9733,1.9701 -8.8536,-0.374 0.047,-0.9179 0.5329,-1.9154 1.0805,-2.2161 1.1891,-0.6537 0.6976,-7.6319 -0.5423,-7.6952 -1.2356,-0.063 -4.6088,15.8357 -4.386,20.6741 0.1533,3.3342 0.9027,4.4571 4.1422,6.2078 2.1752,1.1757 6.9346,2.6474 10.5763,3.2706 6.5474,1.1202 8.8743,2.4847 6.4808,3.8003 -1.7913,0.9845 -0.3836,2.8834 2.237,3.0172 2.3886,0.1219 2.9412,2.9778 0.8038,4.1529 -2.6582,1.4608 -9.3204,0.1824 -15.3076,-2.9374 -4.3264,-2.2542 -6.0507,-2.7352 -5.6747,-1.5824 0.7148,2.191 12.5675,10.4291 15.1984,10.5634 2.593,0.1324 2.5698,4.2519 -0.029,5.0998 -3.422,1.1165 -6.834,0.3596 -12.9375,-2.87 -3.3264,-1.7605 -6.975,-3.2478 -8.1077,-3.3057 -1.1327,-0.058 -2.5633,-0.7841 -3.179,-1.6137 -1.2737,-1.7167 -3.8131,-21.1681 -3.518,-26.9481 l 0.1953,-3.8238 -7.278,0.402 c -4.003,0.2209 -9.4881,0.9535 -12.1886,1.6278 -2.701,0.674 -5.7155,0.8687 -6.6991,0.4327 -3.0109,-1.3354 -1.8427,-5.3728 2.1834,-7.548 3.6378,-1.9656 3.6625,-2.0285 1.0009,-2.5448 -3.6852,-0.7144 -3.3927,-4.6785 0.4773,-6.4698 3.0644,-1.4185 18.9779,-0.4383 23.8664,1.47 1.9252,0.7516 2.5555,0.4027 3.1273,-1.7302 0.3939,-1.4694 2.796,-7.596 5.3383,-13.6149 l 4.622,-10.9437 -4.6027,-8.0256 c -11.7005,-20.4013 -9.3868,-28.4244 7.1734,-24.8734 3.7907,0.813 7.0546,1.3467 7.2538,1.1866 1.0322,-0.8319 -1.3309,-7.2987 -4.9828,-13.6358 -3.4585,-6.0018 -4.6569,-7.1809 -7.4426,-7.3231 -3.3053,-0.1687 -7.0003,-3.3737 -6.8683,-5.9579 0.095,-1.8681 2.6641,-1.5686 5.2624,0.6135 2.8999,2.4355 6.3148,2.6326 5.5607,0.3199 -0.4011,-1.229 0.1686,-1.7331 1.8621,-1.6467 1.3423,0.069 2.4134,0.6578 2.3802,1.3096 -0.2431,4.7613 20.1109,-15.7925 25.8685,-26.1222 11.2763,-20.2317 -0.018,-43.9583 -20.7039,-43.4938 -2.1589,0.049 -2.5754,0.9564 -3.437,7.4904 -1.9834,15.0411 -14.3221,31.2044 -28.5841,37.4439 -3.9888,1.7451 -6.6483,3.204 -5.9095,3.2417 0.8117,0.041 1.242,2.0495 1.0876,5.074 -0.3311,6.4841 2.1331,15.0229 5.4955,19.0446 2.2539,2.6956 2.6002,4.3379 2.2717,10.7714 -0.4098,8.0273 -3.4451,19.243 -6.7568,24.9675 -1.0926,1.8884 -5.8939,8.891 -10.67,15.5612 -11.2705,15.7403 -17.2367,26.9373 -19.3328,36.2822 -1.5544,6.9293 -1.5133,7.7991 0.5139,10.8491 1.3634,2.0517 5.8337,5.1178 11.7257,8.0425 7.9224,3.9329 9.455,5.133 9.1225,7.1427 -0.2865,1.7355 0.2485,2.4491 1.9026,2.5335 2.9948,0.1529 2.8642,2.5073 -0.1833,3.1376 -3.3164,0.6888 -3.016,2.5049 0.4439,2.6816 2.9225,0.1492 3.7907,1.7742 1.5926,2.9823 -0.6551,0.3599 -3.9046,0.5372 -7.2212,0.3936 -4.89,-0.2116 -5.6142,-0.01 -3.8317,1.0703 3.2826,1.9884 3.3958,2.2424 1.482,3.3202 -2.2283,1.255 -2.9128,1.1677 -9.4112,-1.2011 z m 107.8759,-52.7104 c 7.4601,-1.9346 23.293,-15.2975 27.9829,-23.6173 8.7683,-15.5542 2.2083,-40.6841 -21.015,-80.5068 -7.8735,-13.5012 -14.8553,-22.37 -20.0907,-25.5209 -2.0164,-1.2136 -2.1644,-0.7327 -2.6854,8.7317 -0.6581,11.9277 -2.8542,16.623 -12.9468,27.6602 l -6.6177,7.2372 0.8371,8.1349 c 0.687,6.6737 0.3807,10.0677 -1.7048,18.8963 -2.0622,8.73 -2.26,10.8714 -1.0488,11.3449 6.235,2.4365 26.2898,15.0241 30.5406,19.1693 7.5368,7.3491 10.4524,14.7481 6.3399,16.0898 -1.1077,0.3616 -4.1745,-1.8759 -8.1835,-5.97 -5.7864,-5.9098 -25.7587,-18.5675 -29.6069,-18.7639 -1.9994,-0.1021 -0.9458,14.427 1.4305,19.7398 3.4198,7.6427 13.4476,16.2486 21.7292,18.6479 3.8698,1.1211 6.7464,0.8776 15.0394,-1.2731 z m -48.3769,-23.9173 c -0.3226,-0.943 -0.6108,-0.6824 -0.7355,0.6637 -0.1123,1.2185 0.1253,1.9166 0.5308,1.5513 0.4043,-0.3651 0.4967,-1.3619 0.2063,-2.2149 z m 0.026,-17.4369 c 0.061,-0.4469 -1.8247,-1.2421 -4.1931,-1.767 -2.3682,-0.525 -5.2049,-1.2512 -6.3042,-1.6138 -3.1326,-1.0339 -2.6612,2.9007 1.1492,9.5908 l 3.3689,5.9153 2.9334,-5.6564 c 1.613,-3.1109 2.9836,-6.022 3.0458,-6.4689 z m 9.1685,-27.9405 c 0.6538,-4.5175 0.9193,-9.578 0.5982,-11.2451 l -0.5987,-3.0319 -5.3276,3.6522 c -2.9303,2.009 -6.0211,3.8484 -6.8687,4.0875 -1.0337,0.2917 -0.1751,2.1149 2.6064,5.54 2.2809,2.8078 4.6687,6.424 5.3061,8.0365 1.6955,4.2885 2.9517,2.2288 4.2924,-7.0387 z m -30.4449,59.4203 c -7.0716,-3.1101 -14.5664,-14.9189 -14.1868,-22.3527 0.2464,-4.8267 2.8116,-6.8469 4.8007,-3.7805 0.7506,1.1574 4.0423,6.1462 7.3149,11.0863 8.1471,12.2976 8.9413,18.0687 2.0712,15.0469 z m -5.7454,-63.1033 c -1.7051,-2.4524 -2.3332,-5.5165 -1.2526,-6.1102 0.5535,-0.3045 2.899,1.3662 5.212,3.7127 3.1414,3.9522 7.1032,4.4138 0.646,4.0841 -1.9574,-0.1 -4.0299,-0.859 -4.6054,-1.6866 z m -26.3622,-76.7663 c -1.2154,-1.3463 -1.593,-4.6028 -0.6706,-6.2321 0.7333,-1.2952 1.8518,-1.5947 2.8073,-1.5629 2.5147,0.084 4.0581,4.1961 2.3119,7.0932 -1.5631,2.5933 -2.5941,2.7558 -4.4486,0.7018 z m 8.016,-1.6107 c -1.4402,-3.0562 0.7702,-7.3122 3.449,-6.6408 2.896,0.7254 4.3943,4.2916 2.7718,6.598 -2.0024,2.8471 -4.8898,2.8669 -6.2208,0.043 z m -14.7125,-48.0386 c -2.8163,-1.307 -1.3175,-3.943 2.1415,-3.7663 2.8691,0.1464 6.9068,2.8075 6.8206,4.4953 -0.034,0.6739 -7.1944,0.091 -8.9621,-0.729 z" fill="#00B894" transform="translate(49.695493,-25.817521) matrix(0.76237336,0,0,0.76237336,3342.5404,2558.2267)"/>
</svg>