<?xml version="1.0" ?><svg height="141.96083mm" viewBox="0 0 122.36616 141.96083" width="122.36616mm" xmlns="http://www.w3.org/2000/svg">
    <path d="m 50672.217,6140.1445 c -10.175,0.2394 -19.575,6.7179 -24.887,11.1602 -7.083,5.9231 -14.881,31.6758 -14.881,31.6758 -3.617,7.3925 -8.785,19.8187 -7.941,31.2668 -10.707,2.6544 -34.665,5.094 -36.156,15.073 -0.04,7.0998 10.749,6.7553 15.627,6.6524 12.021,1.1819 31.865,-4.241 36.739,5.9317 4.2,9.4312 -14.571,24.934 -16.351,29.6366 -2.401,6.3452 1.297,20.7161 12.311,16.7031 11.014,-4.0129 17.836,-12.9296 17.836,-12.9296 0,0 4.688,15.5367 -1.219,32.2402 -5.908,16.7034 -7.967,47.6055 0.113,47.6055 3.605,0 8.281,-3.7428 12.362,-7.8868 0,0.024 0,0.048 0.02,0.072 1.288,7.1463 4.509,20.0869 16.313,33.2207 11.803,13.1337 30.045,26.1387 88.205,22.5977 58.159,-3.5409 69.391,-15.2578 76.902,-24.0137 7.512,-8.7559 16.525,-39.2734 16.525,-39.2734 0,0 28.829,-35.6663 31.834,-46.418 3.004,-10.7516 -9.371,-25.5609 -14.521,-32.836 -5.151,-7.275 -8.227,-32.0599 -17.098,-24.5918 -8.871,7.4683 -41.992,50.2168 -41.992,50.2168 0,0 -26.469,-12.4896 -46.5,-15.4511 -20.03,-2.9616 -43.064,-2.3184 -43.064,-2.3184 0,0 -23.323,-43.714 -26.399,-56.9765 -3.076,-13.2625 8.585,-35.796 8.227,-45.4532 -0.358,-9.6572 -17.928,-17.3049 -31.692,-23.7578 -3.441,-1.6132 -6.917,-2.2263 -10.308,-2.1465 z" fill="#FFFFFF" transform="translate(-261.60813,-198.89456) matrix(0.37621017,0,0,0.37621017,-17520.815,-1192.3328) translate(-3313.5291,-2437.8203)"/>
    <path d="m 47355.233,3698.0179 c -14.205,-0.5446 -35.932,17.2747 -35.967,31.959 0,2.7808 -1.577,7.351 -5.485,11.9941 -5.863,6.9604 -7.237,15.8733 -7.453,21.3008 l -0.429,10.7675 -12.819,3.8379 c -7.99,1.788 -17.323,5.5463 -20.74,8.3497 -5.973,4.8976 -6.717,6.058 -2.041,10.8085 3.889,3.9491 10.064,4.2078 27.932,4.3282 13.228,0.089 18.044,-2.0879 20.332,0.7422 2.288,2.8301 9.593,2.9514 -4.51,18.8242 -12.024,13.5328 -13.428,25.6788 -5.979,33.1269 7.268,7.2784 13.951,7.2823 21.746,0.022 3.379,-3.1478 6.703,-5.1639 7.387,-4.4805 0.682,0.6833 -0.608,9.0833 -2.865,18.6661 -4.952,21.0066 -5.411,46.4433 -0.916,50.9355 5.172,5.1731 14.774,3.8161 19.099,-2.6992 3.607,-5.4318 4.717,-5.6576 12.325,-2.5059 7.461,7.3434 16.242,12.5974 21.004,-0.3066 2.334,-3.3302 4.242,-9.516 4.242,-13.7461 0,-7.3396 0.444,-7.6062 9.705,-5.8691 8.394,1.5748 9.908,1.0385 11.215,-3.9649 1.054,-4.0322 3.687,-5.7972 8.689,-5.8262 8.716,-0.051 12.196,-2.1938 16.336,-10.0586 2.554,-4.8498 2.125,-8.7532 -2.215,-20.1757 -1.045,-5.8994 -2.897,-11.59 -5.15,-17.0411 1.536,-0.061 3.108,-0.1026 4.711,-0.1171 7.403,-0.067 15.331,0.3688 22.076,1.4082 56.466,8.7011 81.714,31.9522 82.352,75.8379 0.182,12.4761 -0.88,15.6052 -7.561,22.2851 -8.149,8.1482 -26.382,14.6262 -53.82,19.1191 -48.482,7.94 -98.363,-3.2091 -111.141,-24.8417 -6.434,-13.9569 -16.715,-13.0441 -10.129,1.5214 5.282,20.9774 32.302,38.4714 63.981,41.4297 18.024,1.6836 18.073,1.7066 18.093,10.1485 0.01,4.6536 0.773,14.689 1.686,22.3007 1.627,13.5265 -7.196,14.2615 -15.503,17.7022 -8.265,3.4236 -11.493,11.5869 -5.939,15.0196 4.12,2.5455 27.367,-2.0063 31.626,-6.2647 4.575,-4.5756 4.42,-17.7695 1.533,-40.7481 -1.021,-8.1276 -2.801,-15.3928 -1.925,-16.2678 0.876,-0.875 3.68,-0.99 7.808,-0.99 7.283,0 4.837,-0.2782 6.434,17.5764 0.905,10.1152 -0.123,21.1368 0.629,28.1584 1.2,11.1942 -0.504,17.6931 -7.382,25.6109 -12.018,13.8351 -15.109,20.8714 -11.222,25.5528 v -0.01 c 1.786,2.1522 4.381,3.9121 5.769,3.9121 3.183,0 13.018,-10.5587 22.281,-23.9258 10.892,-13.5744 6.559,-15.3977 3.693,-32.8277 -2.086,-12.6859 -2.085,-19.3505 -2.968,-29.6221 -0.751,-8.7316 -1.912,-14.435 4.221,-14.435 10.474,3e-4 46.739,-13.2175 56.324,-20.5292 10.787,-8.2263 17.346,-21.1294 17.346,-34.1192 0,-6.4427 2.848,-11.2735 11.75,-19.9238 12.477,-12.1277 29.119,-42.054 29.119,-52.3652 0,-3.4 -1.839,-8.0199 -4.086,-10.2676 -2.248,-2.2479 -4.088,-7.1974 -4.088,-10.9981 0,-6.3222 -10.022,-15.4292 -13.567,-12.3301 -0.717,0.628 -1.675,-3.6847 -2.128,-9.582 -0.995,-12.9878 -4.639,-17.8867 -13.301,-17.8867 -5.069,0 -9.211,4.1231 -18.485,18.3926 -6.572,10.1152 -15.435,21.6672 -19.695,25.6719 l -7.75,7.2812 -20.435,-7.0918 c -16.813,-5.834 -25.509,-7.1166 -49.043,-7.2266 -6.163,-0.029 -12.234,0.092 -17.555,0.3145 -4.347,-8.1099 -8.948,-15.4768 -12.201,-21.8848 -9.667,-19.4102 -11.128,-24.6122 -10.401,-37.0644 0.466,-7.9671 2.225,-16.1479 3.912,-18.1797 1.686,-2.0316 2.689,-9.6036 2.227,-16.8262 -0.738,-11.557 -1.822,-13.5927 -9.014,-16.9707 -4.497,-2.1112 -9.202,-5.5781 -10.457,-7.7031 -1.373,-2.3229 -5.72,-3.5835 -10.9,-3.1621 -4.737,0.3856 -11.388,-0.8075 -14.776,-2.6504 -1.637,-0.8901 -3.513,-1.3421 -5.542,-1.4199 z m -2.444,12.4785 c 2.106,0.077 3.732,0.7508 4.563,2.0957 1.383,2.2362 4.981,2.7493 10.607,1.5137 6.732,-1.4784 8.514,-0.9688 8.514,2.4335 0,4.4414 2.412,5.2649 12.943,4.4122 4.352,-0.3528 6.082,0.9419 5.94,4.4668 -0.508,13.1105 -3.39,13.9334 -15.69,4.4843 -12.606,-9.6851 -25.77,-11.7332 -40.176,-6.2558 -9.923,3.7733 -12.19,0.6638 -4.222,-5.7949 5.928,-4.8053 12.886,-7.5249 17.521,-7.3555 z m -0.678,26.8008 v 0 c 6.52,0.1203 12.967,2.325 18.891,6.6953 11.707,8.6384 13.556,11.6479 13.596,22.2793 0.05,9.7029 -10.722,24.4627 -20.586,28.2129 -9.327,3.5451 -30.629,4.7645 -33.063,3.7695 -3.995,-1.6333 -2.044,-5.4263 -1.775,-6.8281 1.197,-6.2143 -3.003,-14.7227 -7.987,-16.3047 -7.679,-2.4374 -8.87,-11.2374 -0.259,-21.4707 9.231,-10.9697 20.307,-16.5539 31.175,-16.3535 z m 5.413,22.2617 c -3.372,0.1487 -6.255,4.6196 -4.657,8.7832 0.901,2.3485 3.517,4.2715 5.811,4.2715 4.762,0 5.701,-9.6326 1.209,-12.4082 -0.781,-0.4828 -1.585,-0.6808 -2.363,-0.6465 z m -16.696,0.047 c -2.249,0 -5.601,1.7118 -6.097,5.2168 -0.7,4.9421 1.55,8.0577 5.419,7.3125 5.997,-1.1551 6.587,-12.5293 0.678,-12.5293 z m -28.847,21.6953 c 1.269,0 2.307,0.1327 3.029,0.4101 7.207,2.7656 4.721,6.863 -5.973,9.8321 -14.389,3.9965 -28.661,3.7115 -27.256,-0.5411 1.223,-3.6994 21.321,-9.7359 30.2,-9.7011 z m 80.386,7.4922 5.686,15.1953 c 6.866,18.527 12.844,21.6559 20.566,50.9726 4.095,15.792 0.686,19.4368 -11.015,11.7696 -8.434,-5.5262 -15.054,-1.7454 -12.7,7.2539 1.205,4.6076 0.581,5.4314 -3.007,3.9863 -2.49,-1.002 -6.364,-2.567 -8.612,-3.4766 -3.319,-1.3423 -4.086,0.9824 -4.086,12.3457 0,16.3078 -6.259,21.8512 -13.078,11.5821 -3.685,-5.5506 -10.608,-11.0942 -14.23,-3.8829 -2.388,6.1516 -3.719,12.8606 -7.825,15.0411 -10.559,-0.1756 -1.382,-23.1496 -0.517,-35.0371 2.203,-30.2574 3.015,-37.8088 7.976,-44.5215 3.161,-4.2743 4.437,-8.6682 5.879,-12.4629 1.443,-3.7951 5.575,-8.0193 9.182,-9.3906 3.607,-1.3712 10.882,-6.2918 16.168,-10.9336 z m 157.76,20.7929 c 0.346,-0.032 0.609,0.1593 0.758,0.5996 0.596,1.7613 -1.441,8.1488 -4.527,14.1953 -6.71,13.1576 -7.081,18.9909 -1.342,21.1934 2.665,1.0232 7.763,-1.7506 13.582,-7.3926 5.126,-4.9664 9.945,-8.4026 10.711,-7.6367 0.764,0.7657 -1.67,4.2673 -5.41,7.7813 -3.739,3.5139 -6.801,7.8827 -6.801,9.7089 0,5.4306 7.119,6.5177 13.486,2.0586 9.504,-6.6553 9.671,-2.0946 0.449,11.959 -12.201,18.5896 -21.211,28.9977 -22.752,26.2832 -0.731,-1.2863 -2.194,-5.9414 -3.248,-10.3457 -2.168,-9.0424 -10.984,-22.4539 -19.209,-29.2226 -5.446,-4.4811 -5.387,-4.6535 4.971,-14.9844 5.763,-5.7485 12.394,-14.1313 14.74,-18.627 1.76,-3.3717 3.554,-5.4734 4.592,-5.5703 z m -214.01,1.8067 c 1.537,0.069 3.336,0.7278 5.869,1.7246 4.464,1.7577 3.621,3.689 -7.644,17.5176 -6.965,8.5488 -13.821,15.5449 -15.236,15.5449 -5.349,0 -2.266,-13.2344 5.615,-24.1153 5.896,-8.1366 8.014,-10.824 11.396,-10.6718 z m 165.657,66.0019 c -3.212,0.036 -4.296,2.7553 -1.776,7.4629 3.707,6.9248 1.215,10.6758 -7.09,10.6758 -7.062,0 -8.749,4.9887 -3.47,10.2656 4.573,4.5741 -3.566,7.1513 -16.227,5.1387 -12.659,-2.012 -18.124,1.0482 -15.672,8.7773 1.684,5.3032 0.849,5.78 -9.926,5.67 -6.469,-0.066 -16.374,-1.764 -22.011,-3.7754 -5.637,-2.0112 -10.818,-2.7351 -11.514,-1.6075 -1.974,3.1936 8.076,11.074 19.539,15.3243 14.781,5.4789 39.97,3.6302 47.824,-3.5098 3.393,-3.0836 9.847,-7.3066 14.342,-9.3848 5.921,-2.7369 8.429,-6.0009 9.094,-11.8418 0.506,-4.4352 3.264,-9.7073 6.131,-11.7148 7.183,-5.0311 6.523,-13.2528 -1.483,-18.4981 -3.142,-2.0586 -5.834,-3.004 -7.761,-2.9824 z" fill="#00B894" transform="translate(-261.60813,-198.89456) matrix(0.37621017,0,0,0.37621017,-17520.815,-1192.3328)"/>
</svg>