<?xml version="1.0" ?><svg height="126.67091mm" viewBox="0 0 323.60703 126.67091" width="323.60703mm" xmlns="http://www.w3.org/2000/svg">
    <path d="m -2045.0071,13588.313 c 68.2065,-17.903 172.8567,-51.754 221.6711,-77.782 48.8145,-26.028 131.7322,-38.816 182.7199,-40.471 50.9876,-1.655 146.0665,5.119 146.0665,5.119 0,0 181.5922,-83.202 189.6164,-85.76 8.0243,-2.558 -22.2339,119.908 -22.2339,119.908 l 270.987,51.755 c 0,0 38.4498,-40.772 62.52264,-86.057 24.07282,-45.286 38.61688,-65.897 76.89948,-88.013 38.2826,-22.117 56.37355,-7.09 22.43752,34.585 -33.93602,41.674 -59.71713,196.204 -59.71713,196.204 0,0 -9.19432,15.195 8.52594,41.223 17.72025,26.028 114.01186,163.84 71.04841,167.902 -42.96346,4.062 -113.00904,-74.322 -135.07576,-98.845 -22.0666,-24.524 -49.9845,-79.889 -49.9845,-79.889 0,0 -93.9511,63.941 -127.8872,67.1 -33.9361,3.16 -260.9567,28.887 -260.9567,28.887 0,0 56.0028,56.418 37.781,68.003 -18.2218,11.585 -107.7228,-58.142 -121.9007,-67.245 -14.1779,-9.103 -75.6975,-0.307 -75.6975,-0.307 0,0 -51.6564,56.72 -65.0302,55.667 -13.3738,-1.054 -11.7021,-57.021 -11.7021,-57.021 0,0 -56.4927,1.165 -116.0121,-12.051 -59.5194,-13.216 -185.5677,-50.837 -225.0204,-86.644 -39.4528,-35.807 -60.1822,-40.32 -19.0577,-56.268 z" fill="#FFFFFF" transform="translate(-17.357199,-95.414517) matrix(0.26458333,0,0,0.26458333,566.76101,-3440.7763)"/>
    <path d="m -884.3838,13842.472 c -10.34045,-3.189 -39.19176,-19.557 -55.01304,-31.213 -26.21731,-19.314 -65.63456,-55.332 -83.21276,-76.037 -18.9301,-22.297 -40.7167,-55.66 -40.7167,-62.352 0,-2.267 -0.7035,-4.826 -1.5636,-5.685 -0.8598,-0.861 -15.2315,7.665 -31.9367,18.948 -44.2437,29.878 -95.5543,48.203 -153.6581,54.88 -39.7579,4.568 -112.2998,8.33 -143.5351,7.442 -17.0429,-0.484 -30.985,0.08 -30.9825,1.246 0,1.171 6.1609,9.545 13.6848,18.61 15.4791,18.649 18.6955,28.956 13.1651,42.191 -4.8634,11.641 -15.2879,16.742 -34.2121,16.742 -20.026,0 -40.0136,-7.669 -57.8462,-22.194 -16.6371,-13.551 -22.5726,-20.092 -33.903,-37.355 l -8.3734,-12.758 -30.3501,1.014 -30.35,1.015 -13.9104,12.309 c -45.2625,40.051 -72.8643,48.029 -84.9967,24.568 -3.9892,-7.714 -3.7147,-27.387 0.537,-38.466 1.3109,-3.417 -1.0249,-4.016 -15.8042,-4.056 -19.9859,-0.06 -62.1102,-5.746 -80.5718,-10.888 -37.7222,-10.509 -52.0005,-13.585 -65.4419,-14.107 -44.8984,-1.738 -108.4817,-27.541 -179.8875,-73.001 -40.9271,-26.056 -46.6222,-33.014 -41.7698,-51.036 4.7107,-17.493 20.8134,-24.578 135.349,-59.552 34.7762,-10.619 77.4559,-25.079 94.8438,-32.135 59.151,-24.003 69.5432,-27.941 89.7857,-34.015 31.3253,-9.403 74.0881,-15.959 123.9293,-19.001 40.915,-2.496 50.135,-2.254 91.0501,2.407 l 45.525,5.186 24.0272,-12.933 c 13.2148,-7.113 30.8557,-16.768 39.202,-21.453 27.3446,-15.35 80.611,-40.706 96.661,-46.013 55.7229,-18.422 67.49,8.921 34.9906,81.308 -6.107,13.602 -10.2261,25.274 -9.1534,25.938 1.0727,0.662 28.0099,5.851 59.8603,11.529 74.0537,13.204 182.9599,37.355 198.7165,44.068 3.4794,1.482 8.3237,-6.366 27.3336,-44.284 28.83539,-57.518 44.28925,-81.743 63.4773,-99.507 26.83436,-24.843 70.02321,-43.968 84.44972,-37.395 14.09683,6.423 9.81084,29.646 -12.46096,67.52 -17.23048,29.301 -24.98908,45.007 -29.98754,60.7 -9.22679,28.971 -17.09485,64.738 -20.73173,94.242 -2.13,17.281 -5.60224,34.764 -7.71593,38.852 -3.7175,7.189 -3.55778,7.781 4.88901,18.102 13.51032,16.51 54.2744,81.321 67.88032,107.923 14.67784,28.699 19.70646,44.622 19.70646,62.403 0,20.752 -13.04406,31.822 -30.97865,26.293 z m 3.15773,-39.336 c 0,-6.379 -9.89317,-33.759 -18.15653,-50.248 -4.2528,-8.487 -19.1742,-34.603 -33.15893,-58.037 -33.42392,-56.007 -37.86584,-71.804 -32.28162,-114.801 3.16418,-24.363 17.21568,-80.818 25.42726,-102.158 6.81756,-17.717 15.66611,-34.21 31.74784,-59.177 12.56358,-19.504 18.33863,-31.547 15.12721,-31.547 -3.9271,0 -26.95102,13.265 -41.03495,23.641 -18.86482,13.898 -31.96655,30.016 -50.56107,62.197 -27.51514,47.621 -39.71924,67.335 -47.99664,77.527 -4.6229,5.692 -7.7865,10.968 -7.03,11.724 2.9674,2.967 -12.6285,12.068 -20.6811,12.068 -4.6542,0 -32.6694,-5.618 -62.2559,-12.487 -64.9794,-15.084 -161.6866,-34.197 -192.898,-38.123 -12.5194,-1.576 -26.1769,-3.877 -30.35,-5.114 -4.1732,-1.239 -28.6429,-5.7 -54.3772,-9.917 -25.7344,-4.217 -59.3091,-9.947 -74.6105,-12.734 -128.6424,-23.426 -225.5625,-20.239 -300.6978,9.892 -9.8877,3.965 -33.4302,14.022 -52.3169,22.349 -35.8398,15.803 -68.7548,27.701 -113.6171,41.072 -81.0824,24.162 -104.9606,33.481 -104.9606,40.959 0,5.34 30.1673,29.678 51.0743,41.206 29.1856,16.095 82.815,37.562 117.9719,47.223 33.0863,9.093 35.4143,9.404 42.5683,5.705 29.1501,-15.074 49.6177,-21.876 69.5774,-23.126 18.6549,-1.167 21.3725,-2.009 27.6618,-8.574 8.7977,-9.183 16.7326,-9.293 23.5023,-0.325 l 5.2506,6.956 6.974,-8.244 c 7.9997,-9.454 13.1418,-10.296 19.5614,-3.202 2.4857,2.747 6.6455,5.668 9.2441,6.493 6.9044,2.191 5.9034,10.953 -1.5762,13.796 -3.4656,1.319 -7.777,1.829 -9.5811,1.137 -1.8041,-0.693 -6.5793,2.185 -10.6119,6.394 -9.0431,9.439 -22.0764,10.425 -30.7007,2.324 -7.4375,-6.988 -19.4893,-3.788 -20.8196,5.527 -0.481,3.369 -2.0431,7.548 -3.4711,9.285 -3.3169,4.039 -13.2472,4.065 -19.6748,0.06 -4.1037,-2.562 -5.7208,-2.373 -9.1636,1.07 -11.0664,11.067 5.051,14.644 66.0633,14.665 18.0837,0 53.3656,1.123 78.4044,2.483 88.6543,4.818 91.2545,4.79 93.8288,-1.051 4.4941,-10.198 10.2101,-7.269 28.4581,14.579 21.1739,25.35 34.7307,37.39 50.6168,44.947 11.3367,5.393 35.7527,9.721 35.7527,6.337 0,-3.321 -33.5796,-53.59 -41.342,-61.891 -4.3873,-4.691 -11.3911,-10.66 -15.5643,-13.269 l -7.5875,-4.738 14.0513,-0.02 c 14.2818,-0.02 25.7839,5.619 33.75,16.512 2.9058,3.974 6.2616,4.083 42.1718,1.362 21.458,-1.623 49.8268,-4.501 63.0415,-6.392 13.215,-1.893 30.856,-4.179 39.2022,-5.084 72.872,-7.893 135.9822,-26.842 180.8356,-54.296 13.215,-8.088 29.9384,-17.681 37.1632,-21.317 7.2248,-3.636 14.1564,-8.434 15.4036,-10.662 1.3381,-2.392 4.665,-3.699 8.1167,-3.191 4.5025,0.662 6.8085,3.771 10.0161,13.506 5.4691,16.598 12.7975,27.658 38.541,58.171 26.22409,31.083 66.65147,67.673 96.69857,87.52 23.35416,15.428 29.27356,17.66 29.27356,11.038 z m -718.03093,-124.325 c -1.4058,-5.302 -3.7791,-24.045 -5.2743,-41.648 -3.6088,-42.492 -8.5526,-61.115 -20.8455,-78.523 -4.5521,-6.445 -0.7258,-8.13 7.4707,-3.289 15.5862,9.207 26.2749,34.197 31.0129,72.506 1.6061,12.984 2.554,31.576 2.1067,41.312 -0.7352,16.006 -1.346,17.782 -6.3638,18.495 -4.5432,0.647 -6.0148,-0.96 -8.1067,-8.853 z m 35.4225,-6.48 c -1.1751,-3.129 -3.4998,-19.348 -5.1656,-36.04 -1.666,-16.693 -5.298,-43.221 -8.0714,-58.95 -7.7548,-43.984 -5.2769,-47.702 7.0659,-10.603 5.7849,17.389 12.411,41.058 14.7248,52.6 4.4624,22.26 5.9151,50.727 2.8425,55.698 -3.0039,4.86 -9.0987,3.415 -11.3962,-2.705 z m 27.9774,-26.556 c -3.1894,-8.158 -3.3148,-94.734 -0.1347,-92.769 8.4178,5.204 20.9736,81.05 15.4309,93.215 -3.9525,8.674 -11.8209,8.445 -15.2966,-0.446 z m -396.9408,-22.273 c -7.8621,-5.507 -7.5592,-17.44 0.578,-22.77 11.7037,-7.669 26.8177,4.188 21.8828,17.168 -3.7608,9.893 -13.0337,12.205 -22.4608,5.602 z m 286.6025,147.467 22.2492,-15.807 -26.3518,-1.413 c -14.4934,-0.778 -26.9208,-0.967 -27.6164,-0.423 -1.9098,1.499 -1.4589,23.971 0.5823,29.024 2.8643,7.091 7.5477,5.378 31.1367,-11.381 z m -154.7336,-53.744 c -1.6161,-4.211 -4.2243,-4.583 -13.5606,-1.927 -6.7559,1.923 -7.6032,1.576 13.1989,5.387 0.9996,0.189 1.1624,-1.374 0.3617,-3.46 z m 471.4921,-261.707 c 7.3121,-16.656 13.9954,-33.789 14.8518,-38.07 1.5037,-7.519 1.307,-7.728 -5.7411,-6.062 -13.3754,3.158 -50.0335,17.961 -73.0629,29.504 -12.5158,6.273 -31.6356,15.093 -42.4884,19.6 -10.8526,4.505 -19.0133,8.915 -18.1349,9.799 1.9688,1.981 87.134,14.79 101.1301,15.211 l 10.1508,0.306 z" fill="#00B894" transform="translate(-17.357199,-95.414517) matrix(0.26458333,0,0,0.26458333,566.76101,-3440.7763)"/>
</svg>