<?xml version="1.0" ?><svg height="339.93469mm" viewBox="0 0 317.53775 339.93469" width="317.53775mm" xmlns="http://www.w3.org/2000/svg">
    <path d="m 7948.1983,18724.136 c -9.035,0.07 -19.117,6.224 -31.275,11.986 -21.396,14.929 -14.287,38.391 -2.93,63.473 11.357,25.083 0.07,9.841 18.639,44.992 9.681,18.326 22.782,25.295 38.425,24.381 4.467,4.722 10.056,9.524 15.961,11.906 13.34,5.381 17.004,-1.027 17.004,-1.027 l -2.074,-13.561 20.562,-14.898 6.844,18.101 c 0,0 12.338,-9.206 9.746,-24.197 -0.554,-3.205 -1.4,-6.66 -2.373,-10.111 12.645,-15.753 -1.606,-27.056 -10.929,-43.789 -11.849,-21.267 -40.395,-19.135 -55.426,-48.75 -7.046,-13.881 -14.203,-18.565 -22.174,-18.506 z m 764.1,221.978 c -8.322,-0.159 -30.547,10.757 -69.268,10.27 -30.896,-0.388 -38.162,28.879 -38.162,28.879 0,0 -27.733,23.412 -59.207,43.842 -31.474,20.43 -40.064,33.295 -53.684,63.83 -6.504,22.914 3.191,21.7 12.639,32.908 9.449,11.209 41.107,5.134 69.637,-6.627 28.529,-11.761 109.945,-73.326 128.597,-86.578 18.651,-13.252 27.424,-39.866 30.737,-52.953 3.313,-13.086 -7.147,-33.3 -21.289,-33.571 z m -534.977,218.987 c -1.993,0.03 -3.968,0.127 -5.924,0.301 -31.291,2.772 -56.341,19.916 -78.066,45.961 0,0 -11.837,15.54 2.025,30.933 13.863,15.394 51.721,8.682 80.094,5.545 28.373,-3.137 62.256,11.892 124.271,0.438 62.015,-11.454 52.856,-15.248 43.371,-32.174 -9.484,-16.926 -44.829,-24.074 -74.418,-30.494 -27.739,-6.02 -61.463,-20.952 -91.353,-20.51 z m -412.664,24.818 c -5.698,-0.16 -10.999,1.143 -16.572,4.149 -7.303,9.191 3.68,16.553 17.627,25.201 13.947,8.648 51.615,39.584 67.648,50.357 16.034,10.773 28.773,18.975 32.781,15.565 4.009,-3.409 0.604,-17.84 -9.883,-32.616 -10.488,-14.776 -48.321,-47.241 -66.222,-55.296 -10.069,-4.531 -18.053,-7.154 -25.379,-7.36 z m 785.426,187.492 c -13.877,-0.183 -29.439,9.411 -43.696,21.348 -16.294,13.643 -21.563,25.242 -51.314,24.221 -23.347,-3.94 -41.505,-7.514 -34.695,29.621 6.809,37.134 55.366,49.973 92.17,45.886 36.804,-4.084 64.124,-50.702 66.556,-76.31 2.432,-25.607 -7.945,-40.491 -23.185,-44.066 -1.905,-0.446 -3.853,-0.674 -5.836,-0.7 z m -388.528,111.358 c -3.439,0.03 -7.039,0.51 -10.74,1.525 -23.689,6.493 -41.754,27.609 -55.502,43.049 -13.748,15.441 -28.35,11.145 -41.246,1.687 -12.896,-9.459 -23.405,-24.95 -45.959,-33.539 -22.554,-8.589 -58.911,-2.711 -86.976,10.276 -28.064,12.986 -26.872,33.949 -13.522,49.338 13.351,15.39 25.679,8.231 38.291,2.402 12.611,-5.828 13.066,-16.411 -0.228,-19.02 -20.338,0.308 -11.418,-14.365 0.285,-22.392 11.703,-8.027 47.437,0.817 60.674,7.924 13.237,7.107 35.846,32.569 59.138,43.357 23.293,10.788 51.072,-15.595 66.24,-35.892 15.169,-20.298 19.771,-22.445 28.975,-17.946 9.203,4.499 0.341,16.207 -12.498,37.783 -12.839,21.576 7.669,15.798 19.428,6.442 11.76,-9.356 25.224,-37.169 25.679,-50.82 0.383,-11.518 -13.47,-24.347 -32.039,-24.174 z m 230.043,34.138 c -1.953,0.02 -7.972,1.044 -10.009,1.42 -21.726,4.012 -28.292,16.107 -32.346,51.563 -4.053,35.457 26.509,60.991 65.258,76.75 38.749,15.758 70.121,-11.383 89.82,-26.777 19.699,-15.395 25.779,-18.821 22.537,-31.807 -3.243,-12.986 -17.268,-5.471 -56.99,-4.012 -39.722,1.459 -27.077,-5.692 -42.317,-29.33 -6.392,-23.537 -17.081,-38.014 -35.953,-37.807 z m -511.824,45.918 c -10.851,0.46 -31.702,21.678 -27.555,52.303 4.147,30.625 23.294,40.442 44.37,43.049 21.077,2.608 52.607,-36.863 76.865,-52.303 24.258,-15.441 46.585,1.688 55.504,20.196 8.92,18.508 -7.215,57.518 -13.35,66.466 -6.136,8.947 -14.884,7.31 -15.623,0.459 -0.739,-6.851 5.282,-23.928 5.055,-35.84 -0.227,-11.913 -19.771,-15.748 -35.735,-11.453 -15.963,4.295 -31.642,26.076 -36.584,39.727 -4.943,13.651 -1.363,26.893 11.647,30.574 13.009,3.681 12.042,-18.918 16.303,-31.035 4.261,-12.117 11.534,-1.943 11.419,15.9 -0.113,17.844 7.784,28.07 33.917,23.776 26.133,-4.295 46.186,-38.141 51.753,-74.34 5.568,-36.198 -8.976,-55.473 -25.849,-69.328 -16.872,-13.856 -43.515,-9.153 -63.797,-1.791 -20.281,7.363 -50.052,35.278 -64.936,40.34 -14.884,5.061 -16.111,0.915 -21.621,-6.856 -5.511,-7.772 -5.021,-15.487 4.864,-29.496 9.885,-14.009 6.476,-17.434 -6.647,-20.348 z m 255.613,46.844 c -10.564,0.08 -31.245,2.493 -49.779,17.447 -19.77,15.952 5,43.816 20.68,51.127 15.681,7.311 39.767,0.92 49.879,13.293 10.113,12.373 0.227,29.603 -5.625,37.578 -5.851,7.976 -26.758,16.003 -36.643,14.827 -9.885,-1.176 -6.135,-10.174 8.92,-17.69 15.054,-7.515 18.179,-11.248 17.668,-19.377 -0.512,-8.129 -5.795,-10.582 -19.6,-9.304 -13.805,1.278 -46.755,11.042 -54.367,36.964 -7.613,25.921 16.986,42.999 41.926,53.02 24.939,10.021 58.23,-18.765 71.467,-50.822 13.237,-32.056 2.103,-53.683 -8.975,-70.606 -11.078,-16.924 -21.872,-10.429 -46.357,-14.008 -24.485,-3.579 -15.909,-14.112 6.929,-16.72 22.837,-2.608 21.646,-8.179 20.51,-16.973 0,0 -4.886,-8.539 -14.658,-8.744 -0.611,-0.01 -1.271,-0.02 -1.975,-0.01 z" fill="#FFFFFF" transform="translate(-0.73710007,-70.425503) matrix(0.26458333,0,0,0.26458333,-2015.1987,-4828.4127)"/>
    <path d="m 8020.3127,18515.295 c -2.02,0.09 -4.387,7.746 -4.729,16.49 -0.612,16.604 0.442,36.628 2.895,55.053 2.119,15.928 1.394,41.217 2.056,57.144 3.924,27.576 -4.078,41.25 -11.871,67.498 -4.881,22.791 -4.195,40.466 -14.574,42.922 -5.295,1.265 -6.517,0.229 -11.227,-9.521 -23.672,-59.825 -99.227,-10.586 -87.384,38.869 -0.697,0 -13.011,-6.134 -27.362,-13.633 -25.591,-13.37 -53.68,-21.415 -62.693,-17.957 -5.827,2.236 -34.798,-6.797 -52.463,-16.356 -9.364,-5.068 -25.95,-15.475 -36.859,-23.127 -10.91,-7.652 -26.503,-17.816 -34.649,-22.589 -8.146,-4.774 -17.34,-10.673 -20.435,-13.108 -6.056,-4.763 -14.272,-5.935 -14.272,-2.037 0,1.316 1.832,3.14 4.072,4.055 2.241,0.914 9.279,5.625 15.639,10.472 6.36,4.846 23.029,17.567 37.045,28.266 44.933,34.299 75.036,49.797 96.713,49.797 16.692,0 38.877,7.736 61.592,21.48 19.841,12.003 21.121,13.21 15.564,14.604 -8.842,2.225 -49.545,2.268 -60.476,0.07 -8.181,-1.643 -12.275,-0.661 -31.768,7.635 -25.224,10.736 -41.858,15.042 -77.32,20.02 -37.22,5.224 -21.271,11.542 -1.326,10.74 38.884,-1.562 52.799,-7.15 81.291,-18.186 l 21.72,-8.414 10.711,3.838 c 13.476,4.83 46.395,5.011 68.274,0.375 17.432,-1.013 26.787,-11.871 26.787,-11.871 4.959,5.976 -4.607,16.458 -37.455,41.043 -17.693,13.243 -33.574,26.729 -35.291,29.973 -1.718,3.246 -6.373,23.055 -10.344,44.019 -9.57,50.516 -13.543,67.433 -20.266,86.297 -6.854,19.236 -6.563,24.291 1.096,18.9 12.94,-9.11 22.549,-38.593 33.107,-101.588 4.249,-25.347 8.823,-47.036 10.165,-48.199 1.343,-1.162 15.471,-9.919 31.398,-19.457 l 28.959,-17.347 0.719,8.216 c 0.536,6.121 -1.034,10.721 -6.164,18.055 -15.09,21.58 -26.407,42.507 -25.991,48.063 0.239,3.184 0.944,23.923 1.565,46.085 0.964,34.409 0.425,43.983 -3.697,65.53 -2.655,13.866 -4.207,26.218 -3.452,27.461 2.835,4.581 7.775,1.984 10.077,-5.299 7.544,-23.858 9.864,-45.507 9.279,-86.609 l -0.6,-42.012 12.446,-19.758 c 6.843,-10.864 14.313,-22.19 16.603,-25.166 l 4.164,-5.412 c 4.959,-6.065 1.811,-15.012 14.311,-4.733 3.768,3.172 11.231,7.051 16.588,8.618 5.358,1.567 12.872,4.718 16.695,7 7.693,4.598 22.179,5.482 29.105,1.775 4.116,-2.204 4.195,-2.839 0.961,-7.773 -3.376,-5.152 -3.145,-5.615 5.524,-11.352 l 9.039,-5.984 1.48,9.279 c 1.972,12.329 7.679,11.323 14.852,-2.623 3.972,-7.721 5.088,-13.018 4.316,-20.43 -0.573,-5.504 0.081,-13.654 1.446,-18.111 2.038,-6.639 3.348,-7.856 7.261,-6.742 2.627,0.747 11.945,2.915 20.705,4.818 26.139,5.675 29.731,8.252 41.123,29.508 10.859,20.259 31.447,44.133 47.692,55.31 16.912,11.636 48.642,20.555 45.681,12.84 -0.642,-1.674 -8.163,-7.134 -16.718,-12.133 -22.651,-13.232 -48.101,-38.575 -61.875,-61.615 -6.364,-10.643 -11.63,-21.818 -11.698,-24.832 -0.07,-3.015 -2.118,-6.942 -4.56,-8.726 -6.285,-4.595 -31.742,-12.035 -51.592,-15.073 -12.372,-1.894 -17.488,-3.739 -19.191,-6.922 -1.278,-2.387 -4.372,-4.339 -6.875,-4.339 -2.504,0 -4.553,-1.399 -4.553,-3.108 0,-1.92 8.201,-5.545 21.428,-9.47 11.786,-3.496 26.035,-7.826 31.666,-9.625 5.632,-1.796 10.415,-3.009 10.629,-2.694 0.215,0.314 3.571,5.288 7.463,11.051 16.404,24.294 42.59,40.886 75.294,47.705 12.461,2.598 18.034,2.75 25.629,0.705 7.527,-1.577 1.698,-6.762 0.5,-7.334 -5.063,-2.599 -16.278,-6.729 -24.927,-9.176 -28.117,-7.958 -40.836,-14.975 -57.713,-31.851 -8.711,-8.712 -15.836,-17.824 -15.836,-20.25 0,-8.406 -3.805,-9.432 -22.805,-6.151 -9.878,1.706 -25.73,5.086 -35.226,7.512 -9.495,2.425 -17.426,4.252 -17.624,4.067 -0.198,-0.188 5.384,-8.158 12.399,-17.713 33.857,-46.123 55.665,-104.117 78.769,-184.293 5.885,-20.419 0.204,-39.668 -9.207,-6.823 -22.246,77.64 -48.475,133.756 -69.949,162.157 -6.744,8.918 -16.121,22.298 -20.838,29.73 -4.717,7.432 -8.971,13.119 -9.453,12.635 -0.482,-0.481 3.225,-15.284 8.238,-32.895 5.013,-17.609 10.345,-38.258 11.846,-45.89 3.191,-16.222 1.558,-63.739 -3.531,-102.576 -1.837,-14.016 -4.083,-36.236 -4.99,-49.381 -0.45,-6.796 -1.537,-9.469 -2.748,-9.416 z m -71.094,218.92 c 6.143,-0.08 11.455,1.985 14.387,6.627 29.424,52.576 24.781,30.334 52.087,48.466 13.998,9.431 21.062,25.298 16.526,37.116 -28.552,30.229 -28.125,33.08 -60.863,36.087 -47.475,-7.294 -27.396,-34.124 -55.01,-73.304 -16.14,-31.495 12.805,-54.723 32.873,-54.992 z m 61.459,74.873 c -0.913,0.04 -1.742,0.432 -2.44,1.119 -1.859,1.832 -4.254,6.246 -1.966,11.078 3.007,6.351 8.11,4.837 10.121,1.92 2.011,-2.918 2.226,-8.036 -0.643,-11.283 -1.793,-2.03 -3.551,-2.908 -5.072,-2.834 z m -17.078,11.463 c -0.502,0.02 -1.073,0.113 -1.723,0.279 -3.44,0.876 -6.003,6.415 -5.445,8.728 1.933,8.015 4.863,6.694 7.529,6.848 6.747,0.39 5.318,-5.715 4.242,-9.605 -0.921,-3.332 -1.092,-6.418 -4.603,-6.25 z m 783.517,15.193 h -0.01 c -0.654,0.02 -1.39,1.03 -2.603,2.869 -1.611,2.443 -4.296,10.174 -5.967,17.182 -5.083,21.327 -14.95,42.3 -30.424,64.668 -13.599,19.662 -15.198,21.174 -20.632,19.574 -9.68,-2.851 -21.179,-1.421 -26.438,3.289 -4.144,3.714 -7.539,4.259 -21.152,3.4 -10.489,-0.663 -21.245,0.279 -30.451,2.67 -7.829,2.035 -20.506,9.998 -28.403,10.594 8.787,-40.955 12.862,-45.692 -1.248,-48.41 -10.233,-1.449 -21.6,-3.996 -23.576,-6.596 -2.887,-3.803 -3.053,-3.799 -3.123,0.04 -0.119,6.549 -14.239,5.376 -20.922,-1.738 -7.176,-7.639 -10.866,-7.424 -5.779,0.338 3.988,6.087 3.975,6.126 -1.473,4.668 -3.02,-0.808 -7.053,-1.482 -8.965,-1.502 -1.911,-0.02 -6.502,-2.644 -10.205,-5.828 -8.136,-6.996 -10.608,-7.314 -8.998,-1.155 0.992,3.791 0.07,4.637 -5.064,4.637 -3.452,0 -8.926,-2.09 -12.166,-4.637 -6.155,-4.843 -16.848,-6.309 -16.848,-2.314 0,1.275 -4.172,2.314 -9.268,2.314 -5.097,0 -9.265,1.013 -9.265,2.252 0,2.295 17.33,7.883 33.012,10.639 5.134,0.904 8.687,2.845 8.687,4.746 0,3.696 2.701,4.189 5.906,1.084 1.211,-1.172 7.18,-1.559 13.264,-0.853 9.482,1.098 10.865,1.902 9.689,5.609 -1.585,4.994 7.613,0.174 14.325,-3.418 4.33,-2.318 42.17,1.977 44.363,4.17 0.472,0.473 -1.833,11.524 -5.121,24.562 -3.288,13.039 -5.979,27.171 -5.979,31.397 0,5.43 -1.423,8.446 -4.851,10.281 -4.364,2.336 -4.693,2.088 -3.26,-2.428 0.876,-2.761 0.852,-12.404 -0.051,-21.427 -1.307,-13.018 -2.829,-17.586 -7.365,-22.121 -5.617,-5.617 -6.164,-5.684 -31.756,-4.108 -22.107,1.361 -26.496,1.053 -29.045,-2.017 -4.225,-5.091 -7.658,-4.498 -5.908,1.017 2.265,7.139 -10.373,6.298 -17.375,-1.156 -2.992,-3.186 -6.298,-5.793 -7.35,-5.793 -3.424,0 -2.015,6.662 1.869,8.836 3.011,1.685 2.129,2.424 -4.335,3.637 -6.949,1.303 -9.2,0.517 -15.614,-5.473 -11.659,-10.893 -17.543,-8.943 -7.709,2.555 2.775,3.246 2.705,3.971 -0.5,5.201 -2.046,0.786 -6.522,-0.01 -9.945,-1.78 -3.423,-1.759 -10.128,-4.276 -14.906,-5.587 -6.894,-1.894 -8.69,-1.746 -8.69,0.709 0,1.703 2.869,4.143 6.373,5.421 5.842,2.134 5.439,2.342 -4.83,2.516 -7.864,0.127 -10.912,1.04 -10.24,3.072 0.62,1.876 6.602,3.077 16.988,3.403 47.883,-0.7 99.818,1.489 132.41,2.617 v 22.873 22.873 l -20.285,14.639 c -8.669,5.643 -9.396,-29.045 -24.162,-47.838 -7.22,-12.796 -14.457,-2.373 -23.051,6.459 -5.619,5.78 -15.765,12.965 -22.55,15.965 -17.882,7.909 -19.827,14.889 -2.295,8.214 l 6.297,-2.396 -5.842,7.607 c -3.214,4.186 -8.853,8.573 -12.524,9.752 -15.25,4.9 -26.615,10.633 -25.302,12.76 0.772,1.251 2.674,1.878 4.226,1.404 1.552,-0.476 5.762,-1.512 9.358,-2.302 l 6.539,-1.436 -6.291,7.883 c -5.409,6.779 -8.512,8.276 -22.168,10.717 -15.226,2.721 -20.557,5.326 -16.291,7.963 1.096,0.678 5.865,0.166 10.599,-1.141 4.734,-1.308 9.584,-2.054 10.774,-1.654 1.189,0.398 -6.499,10.106 -17.088,21.574 -22.62,24.497 -24.48,27.939 -16.188,30.021 4.746,1.192 0.596,-6.609 11.344,-15.054 14.315,-11.247 16.703,-12.433 14.734,-7.301 -1.698,4.425 3.729,7.403 6.247,3.428 1.113,-1.757 2.039,-5.838 2.058,-9.071 0.02,-3.962 5.131,-8.456 11.617,-17.285 5.266,-7.169 9.536,-11.652 8.11,-1.158 -1.104,8.124 -4.459,14.611 -0.694,13.357 3.04,-1.015 12.326,-27.933 10.205,-30.054 -2.275,-2.275 10.034,-12.808 10.075,-9.221 0.171,14.688 7.051,-0.606 7.052,-2.965 0,-4.374 25.176,-31.817 27.737,-30.232 0.905,0.558 1.872,8.035 2.15,16.609 0.515,15.909 1.353,19.338 4.729,19.338 3.725,0 4.599,-10.618 2.166,-26.299 -1.562,-10.069 -1.652,-16.702 -0.254,-18.101 10.517,16.539 13.18,27.928 14.894,41.207 l -18.826,18.562 c -26.253,25.885 -30.451,61.049 -25.719,71.147 6.907,14.737 14.908,17.9 39.846,18.919 23.644,0.968 41.451,-11.34 61.744,-16.421 12.957,10.745 30.815,20.599 26.127,28.367 -1.667,2.668 -11.576,14.82 -14.242,14.82 -6.608,0 -8.142,2.051 -5.131,6.871 3.596,5.76 -6.608,9.762 -19.166,14.955 -11.262,4.658 -12.926,8.289 -3.799,8.289 6.004,0 6.05,0.117 1.957,4.639 -2.306,2.548 -5.631,4.631 -7.396,4.631 -5.064,0 -21.561,9.091 -21.561,11.883 0,1.526 3.229,2.148 8.112,1.578 5.209,-0.609 8.105,0.03 8.105,1.781 0,3.594 -3.919,6.695 -17.613,13.916 -14.13,7.451 -17.186,10.237 -11.229,10.217 2.485,0 7.864,-2.05 11.955,-4.543 l 7.444,-4.537 -2.469,5.41 c -1.356,2.977 -6.317,7.573 -11.031,10.223 -8.662,4.868 -18.74,14.302 -15.278,14.302 1.032,0 5.293,-2.606 9.469,-5.791 4.176,-3.187 8.055,-5.793 8.619,-5.793 0.564,0 -1.384,6.637 -4.328,14.748 -3.991,10.995 -4.682,15.411 -2.721,17.373 4.168,4.168 5.633,3.249 11.543,-7.218 3.058,-5.415 6.788,-9.581 8.285,-9.262 1.518,0.324 2.719,-2.005 2.719,-5.266 0,-5.094 10.442,-24.269 13.215,-24.269 0.559,0 0.83,2.346 0.598,5.213 -0.233,2.865 -0.278,6.77 -0.092,8.681 0.652,6.862 6.584,-4.462 8.242,-15.736 0.903,-6.138 5.188,-26.676 8.006,-29.711 l 5.006,-5.391 1.168,4.946 c 1.9,8.042 5.633,5.684 8.117,-5.129 1.475,-6.423 5.656,-13.683 11.521,-19.994 16.909,-18.194 22.991,-17.087 22.991,-26.76 0,-13.307 -4.947,-22.772 -18.063,-34.564 l -11.781,-10.59 c 8.633,-6.18 17.426,-12.129 26.189,-18.121 19.802,3.823 36.736,6.764 44.487,17.279 0.715,7.491 0.88,14.595 -3.862,25.986 -5.391,12.95 -23.185,20.908 -20.111,22.088 2.091,0.803 5.351,0.175 7.246,-1.398 4.121,-3.421 4.202,-2.835 0.904,6.627 -1.399,4.012 -3.342,7.295 -4.316,7.295 -0.974,0 -5.705,3.13 -10.514,6.951 -8.994,7.146 -6.372,9.876 3.108,3.236 2.914,-2.041 5.702,-3.304 6.197,-2.809 0.495,0.496 -0.676,6.284 -2.605,12.866 -2.216,7.559 -5.086,12.467 -7.791,13.326 -2.355,0.747 -5.681,3.055 -7.389,5.129 -2.776,3.369 -2.41,3.595 3.451,2.135 7.047,-1.754 6.864,-2.689 2.492,12.648 -0.759,2.66 -0.712,8.393 0.104,12.742 1.714,9.133 2.054,10.708 6.15,3.055 3.342,-6.244 6.15,-5.834 7.904,1.156 0.8,3.187 2.509,5.793 3.799,5.793 4.328,0 5.142,-7.15 1.795,-15.775 -2.413,-6.215 -2.722,-10.611 -1.125,-16.084 2.725,-9.337 4.412,-9.463 7.766,-0.576 2.721,7.206 7.66,9.501 7.66,3.556 0,-1.868 -1.736,-7.043 -3.861,-11.5 -3.653,-7.66 -3.628,-8.632 0.496,-17.777 l 4.361,-9.674 2,7.85 c 2.51,9.86 5.442,13.087 8.809,9.72 1.834,-1.834 -6.846,-22.511 -10.305,-30.33 1.636,-1.881 4.126,-14.222 5.447,-13.959 19.993,6.476 2.914,-6.646 2.914,-11.002 0,-3.799 3.614,-12.324 5.098,-20.974 4.396,-25.639 4.507,-28.878 -24.645,-33.573 -19.711,-3.174 -21.824,-4.63 -15.273,-10.545 4.622,-4.171 6.839,-9.626 20.051,-8.271 23.894,-0.836 34.042,-7.727 54.607,-3.258 5.62,1.35 2.61,14 2.27,23.151 -0.04,26.757 -6.501,84.715 -2.383,89.271 5.97,6.608 7.678,6.17 9.572,-2.453 1.333,-6.067 1.99,-6.673 3.778,-3.479 1.189,2.125 3.151,3.864 4.361,3.864 3.203,0 2.697,-6.223 -1.102,-13.573 -4.573,-8.841 -1.027,-14.174 4.16,-6.257 4.346,6.634 10.725,7.931 10.725,2.181 0,-2.06 -3.126,-7.306 -6.949,-11.66 -4.999,-5.693 -6.945,-10.286 -6.945,-16.349 v -8.428 l 5.357,5.037 c 2.949,2.771 6.076,5.037 6.949,5.037 3.456,0 1.287,-6.956 -4.203,-13.48 -3.586,-4.263 -5.791,-9.757 -5.791,-14.434 0,-7.17 0.218,-7.362 4.24,-3.723 8.787,7.951 10.593,0.744 1.867,-7.453 -4.192,-3.939 -5.783,-8.46 -6.761,-19.248 -1.118,-12.329 -2.325,-15.117 -9.594,-22.178 -12.026,-5.804 -35.998,0.65 -52.594,1.928 l 27.075,-20.156 c 6.897,-5.134 10.616,-14.479 11.529,-17.358 0.913,-2.877 5.178,-8.543 9.476,-12.597 7.2,-6.789 7.815,-8.47 7.815,-21.373 v -14 l 14.773,-10.545 c 22.592,-16.121 51.499,-44.401 56.627,-55.395 2.504,-5.369 5.209,-14.451 6.012,-20.185 l 1.463,-10.422 -9.635,16.215 c -6.529,10.992 -18.67,25.031 -37.697,43.586 -32.337,31.532 -34.289,32.944 -37.768,27.373 -2.048,-3.279 -0.634,-6.073 7.809,-15.471 17.044,-18.97 26.023,-33.69 31.949,-52.365 7.272,-22.909 9.235,-38.41 5.949,-46.948 -1.384,-3.599 -2.08,-5.209 -2.92,-5.183 z m -741.756,11.779 c 0.935,0.132 0.756,2.571 -0.828,6.697 -1.415,3.689 -5.606,5.17 -5.468,1.932 0.04,-0.956 1.602,-3.761 3.472,-6.236 1.301,-1.72 2.263,-2.472 2.824,-2.393 z m -36.988,24.371 c 1.685,0 2.57,0.737 1.658,2.211 -0.787,1.274 -3.714,2.289 -6.505,2.279 -4.127,-0.03 -4.425,-0.452 -1.6,-2.279 2.282,-1.474 4.763,-2.211 6.447,-2.211 z m 705.145,79.559 c 0.621,0.01 1.274,0.08 1.937,0.183 -0.756,1.498 -0.654,3.417 0.127,5.526 1.628,4.396 6.894,2.631 9.043,1.371 1.296,-0.759 1.965,-1.651 2.209,-2.582 1.323,0.757 2.399,1.47 3.045,2.004 2.885,2.426 4.447,5.488 5.102,8.736 -2.188,-0.611 -4.174,0.165 -5.965,1.813 -3.049,2.806 -1.49,6.33 1.42,9.23 0.802,0.8 2.102,1.129 3.498,1.055 -0.521,1.543 -1.151,2.993 -1.846,4.291 -3.754,7.014 -8.783,5.868 -18.969,-4.319 -7.709,-7.709 -10.025,-11.132 -8.693,-16.693 0.862,-3.604 3.776,-8.054 4.312,-9.01 1.141,-1.185 2.833,-1.636 4.78,-1.605 z m -34.965,13.471 c 9.664,-0.05 16.396,1.69 16.396,5.228 0,1.686 -3.909,4.26 -8.687,5.725 -4.778,1.463 -14.204,5.843 -20.945,9.734 -6.742,3.89 -14.253,10.358 -16.694,14.369 l -4.437,7.295 c -2.125,-1.903 -6.413,-8.033 -8.608,-10.56 -8.283,-14.008 -6.311,-21.265 8.985,-26.315 11.728,-3.596 24.326,-5.428 33.99,-5.476 z m 23.469,22.806 9.205,7.395 c 5.063,4.069 8.704,8.224 9.205,8.836 5.89,7.2 -20.942,21.826 -29.315,27.543 -12.549,8.571 -19.713,5.33 -23.937,-10.823 -3.296,-12.607 -1.888,-14.456 19.01,-24.98 z m -83.737,4.973 c 11.403,21.132 25.381,34.22 41.776,49.146 l 8.248,8.83 -8.108,6.832 c -15.673,13.206 -61.595,43.349 -80.517,52.848 -10.52,5.282 -25.073,11.151 -32.34,13.045 -59.554,4.284 -30.286,-53.823 -9.906,-74.164 25.388,-17.856 34.042,-27.239 62.937,-44.113 7.578,-4.248 13.285,-8.456 17.91,-12.424 z m -914.408,101.48 c -1.959,-0.142 -1.626,2.242 2.539,6.705 17.786,19.056 58.608,81.139 55.438,84.311 -0.738,0.736 -8.955,-4.88 -18.26,-12.481 -14.423,-11.781 -46.088,-33.902 -71.869,-50.21 -6.921,-4.382 -6.979,-4.384 -4.608,0.05 3.087,5.767 25.045,26.542 34.075,32.237 3.822,2.41 14.768,10.29 24.324,17.511 9.556,7.22 19.721,14.341 22.588,15.817 3.734,1.923 5.211,4.754 5.211,9.982 0,4.306 2.065,9.496 5.037,12.658 l 5.037,5.364 h -6.84 c -15.177,0 -65.363,29.277 -99.916,58.287 -18.886,15.856 -21.596,19.066 -26.088,30.879 -2.803,7.373 -2.756,7.345 19.981,-11.709 23.765,-19.917 71.313,-51.673 96.953,-64.756 l 20.302,-10.361 9.026,5.072 c 4.964,2.79 8.746,5.914 8.404,6.941 -0.342,1.027 -7.864,7.338 -16.715,14.028 -8.85,6.687 -21.395,19.152 -27.877,27.697 -14.654,19.32 -45.252,71.919 -45.125,77.57 0.15,6.658 11.589,-8.157 29.772,-38.562 24.934,-41.695 41.572,-61.179 61.818,-72.393 7.041,-3.901 7.234,-3.863 15.619,3.049 l 8.49,6.998 -9.07,13.359 c -11.865,17.472 -35.328,64.088 -43.023,85.481 -8.622,23.967 -6.049,28.776 3.968,7.416 21.888,-46.674 50.539,-101.876 52.883,-101.916 0.685,0 4.855,3 9.266,6.683 l 8.021,6.698 -0.843,53.175 c -0.464,29.245 -0.01,56.723 1.015,61.061 1.224,5.313 5.456,1.976 7.594,-5.301 0.884,-3.822 -2.399,-23.877 -2.248,-52.199 l 0.273,-51.494 14.479,9.377 c 7.963,5.157 17.45,9.976 21.082,10.711 4.756,0.961 10.028,5.937 18.853,17.793 6.738,9.052 15.543,19.566 19.565,23.363 8.975,8.476 7.518,4.309 2.578,-7.52 -2.104,-5.072 -8.776,-11.291 -15.937,-20.179 -8.486,-10.532 -12.79,-17.912 -12.362,-21.184 0.362,-2.76 -0.932,-8.826 -2.875,-13.476 -3.094,-7.407 -3.111,-8.617 -0.129,-9.762 1.873,-0.717 23.599,-0.151 48.28,1.262 24.681,1.411 39.251,4.853 44.191,4.748 14.438,-0.313 17.632,-2.303 8.221,-7.371 -8.852,-4.072 -16.366,-4.96 -49.807,-5.881 -23.36,-0.643 -42.853,-0.12 -47.914,1.287 -8.312,2.311 -8.694,2.137 -14.875,-6.781 -3.489,-5.035 -12.539,-14.89 -20.111,-21.899 -7.572,-7.012 -13.388,-13.091 -12.924,-13.51 2.955,-2.666 56.615,-26.849 80.765,-36.396 24.622,-9.734 27.254,-11.229 17.573,-9.99 -18.844,2.414 -75.25,25.456 -96.508,39.422 -5.829,3.828 -6.231,3.724 -17.953,-4.698 -6.595,-4.738 -11.99,-9.361 -11.99,-10.273 0,-2.843 46.306,-29.644 71.814,-41.561 13.378,-6.251 26.381,-13.659 28.895,-16.461 0,0 6.05,-5.434 -2.317,-3.412 -26.62,6.513 -70.033,29.564 -98.943,52.537 l -8.035,6.389 -10.766,-3.992 c -6.4,-2.372 -9.666,-3.95 -9.666,-6.063 0.01,-10.999 35.463,-47.104 68.156,-67.072 15.208,-9.288 17.469,-15.672 3.481,-9.828 -26.151,10.927 -63.229,44.368 -73.135,65.961 -2.932,6.392 -6.541,12.086 -8.02,12.654 -1.505,0.576 -5.975,-5.646 -10.152,-14.131 -7.297,-14.822 -36.419,-53.093 -50.666,-66.582 -3.567,-3.377 -6.476,-5.016 -8,-5.127 z m 497.289,63.01 c -3.32,0 -6.73,0.09 -10.283,0.268 -35.101,1.747 -47.368,6.895 -69.777,29.283 -9.69,9.681 -19.425,21.116 -21.633,25.412 -5.224,10.161 -3.205,21.12 5.775,31.348 3.76,4.284 6.836,9.344 6.836,11.25 0,4.523 6.059,9.489 9.203,7.545 1.351,-0.834 1.856,-2.487 1.123,-3.672 -1.704,-2.745 1.719,-2.736 9.016,0.04 3.159,1.2 6.483,4.59 7.385,7.529 0.902,2.94 2.681,6.647 3.955,8.24 5.075,5.705 13.014,-1.779 17.054,-10.019 1.554,-6.192 5.545,-7.707 5.545,-2.108 0,1.94 2.601,4.711 5.782,6.16 4.777,2.177 6.589,1.906 10.425,-1.566 2.554,-2.311 4.643,-6.007 4.643,-8.213 0,-2.736 2.395,-4.393 7.529,-5.209 6.045,-0.961 8.366,-0.101 11.776,4.371 5.187,6.801 14.343,7.269 18.298,0.936 4.504,-7.213 26.018,-5.256 28.508,2.592 2.064,6.501 11.351,5.585 14.549,-1.436 2.217,-4.865 4.225,-5.791 12.555,-5.791 7.509,0 10.642,1.16 12.902,4.779 3.796,6.077 12.401,5.12 15.403,-1.714 3.289,-7.494 16.902,-9.546 21.335,-3.217 4.175,5.962 11.443,6.189 14.51,0.457 2.675,-4.998 1.166,-7.254 -4.855,-7.254 -2.336,0 -4.248,-1.044 -4.248,-2.317 0,-1.275 3.227,-2.318 7.172,-2.318 8.616,0 20.126,-6.353 21.957,-12.119 1.993,-6.279 -2.964,-18.808 -10.071,-25.457 -8.764,-8.197 -17.408,-12.076 -37.592,-16.865 -9.555,-2.267 -27.592,-8.211 -40.084,-13.207 -32.624,-13.051 -51.453,-17.712 -74.693,-17.727 z m -2.885,12.877 -3.5,6.77 c -7.268,14.057 -10.873,47.844 -6.062,56.834 1.377,2.574 2.16,4.964 1.738,5.314 -0.422,0.35 -6.226,1.253 -12.898,2.006 l -12.131,1.369 -6.356,-10.848 c -10.748,-18.34 -9.969,-52.852 1.293,-57.287 2.113,-0.832 11.509,-2.11 20.879,-2.838 z m 11.745,0.797 c 2.776,0.09 5.936,0.755 9.283,2.027 l 5.597,2.129 -5.568,16.604 c -3.497,10.425 -5.679,22.562 -5.865,32.621 l -0.297,16.017 h -8.92 c -9.215,0 -9.885,-0.719 -11.854,-12.74 -1.311,-8.012 4.355,-45.853 7.842,-52.369 1.59,-2.97 5.154,-4.435 9.782,-4.289 z m 24.408,6.383 c 2.929,0.06 7.09,1.551 13.484,4.222 6.179,2.582 7.829,4.396 6.691,7.358 -4.104,10.7 -6.296,28.373 -5.279,42.586 0.622,8.689 1.009,15.665 0.862,15.51 -0.149,-0.16 -5.637,-1.077 -12.198,-2.036 -6.56,-0.961 -13.221,-2.544 -14.801,-3.521 -3.678,-2.272 -1.51,-39.343 3.18,-54.385 2.133,-6.84 3.78,-9.82 8.061,-9.734 z m -89.608,2.248 -1.892,8.955 c -3.32,15.709 -1.345,32.99 5.011,43.834 3.211,5.479 5.838,10.558 5.838,11.287 0,0.729 -3.091,1.324 -6.869,1.324 -4.659,0 -7.727,-1.602 -9.537,-4.984 -2.259,-4.22 -2.104,-4.77 1.004,-3.576 2.018,0.774 4.342,0.32 5.164,-1.01 1.926,-3.115 -2.701,-7.739 -7.777,-7.779 -2.863,-0.02 -4.486,-3.031 -5.955,-11.049 -2.91,-15.877 -0.369,-26.05 7.996,-32.006 z m 116.709,7.476 c 0.534,0 4.563,1.716 8.953,3.809 l 7.983,3.807 -1.197,16.462 c -1.088,14.946 -0.648,17.264 4.767,25.151 l 5.965,8.685 -5.143,0.04 v 0 c -2.829,0.02 -7.487,0.66 -10.354,1.429 -5.55,1.487 -6.873,-1.192 -2.666,-5.398 1.424,-1.424 1.834,-4.793 0.93,-7.641 -1.289,-4.059 -2.984,-4.896 -8.34,-4.109 l -6.721,0.984 0.02,-12.916 c 0.011,-11.919 3.535,-30.297 5.808,-30.297 z m -486.06,4.471 c 4.429,-0.112 9.536,1.841 21.051,7.344 15.084,7.209 22.369,12.874 42.789,33.283 20.335,20.323 34.462,38.914 34.462,45.352 0,4.623 -23.522,-10.649 -53.281,-34.594 -10.83,-8.715 -28.358,-21.464 -38.951,-28.334 -20.919,-13.565 -23.3,-18.63 -10.486,-22.305 1.538,-0.441 2.939,-0.709 4.416,-0.746 z m 514.631,7.574 c 1.053,-0.04 2.243,0.108 3.582,0.444 5.595,1.406 6.041,2.457 6.041,14.289 0,7.024 1.477,16.306 3.283,20.629 2.876,6.884 2.853,8.025 -0.19,9.193 -6.241,2.396 -12.361,1.403 -12.361,-2.006 0,-1.836 1.044,-3.982 2.318,-4.769 3.967,-2.452 2.538,-8.108 -2.046,-8.108 -4.708,0 -7.155,-5.957 -7.155,-17.375 0.01,-8.261 1.964,-12.107 6.528,-12.297 z m -170.995,4.002 c 1.741,0.162 2.395,3.553 3.247,9.99 0.887,6.706 3.572,16.627 5.964,22.041 4.546,10.287 3.572,11.468 -6.213,7.524 -3.462,-1.395 -4.668,-3.417 -3.867,-6.483 1.499,-5.732 -5.25,-8.624 -8.127,-3.484 -1.801,3.219 -2.642,2.893 -6.086,-2.363 -3.911,-5.968 -3.845,-6.288 3.1,-15.057 6.64,-8.383 10.009,-12.351 11.982,-12.168 z m 191.748,0.344 c 1.382,-0.03 3.22,0.104 5.665,0.281 l 9.845,0.713 1.35,12.74 c 0.742,7.007 2.115,14.46 3.053,16.561 0.937,2.101 0.851,4.322 -0.192,4.939 -1.042,0.616 -5.221,1.833 -9.287,2.705 -7.281,1.56 -7.448,1.402 -11.004,-10.57 -1.986,-6.688 -3.611,-15.678 -3.611,-19.98 0,-5.827 0.037,-7.31 4.181,-7.389 z m 26.622,2.15 c 7.696,0 18.588,19.805 12.88,23.422 -4.455,2.823 -5.412,2.601 -9.832,-2.283 -5.651,-6.244 -7.799,-21.139 -3.048,-21.139 z m -333.151,6.473 c -39.509,0.301 -146.767,11.328 -146.767,16.051 0,2.3 16.656,1.476 102.589,-5.08 58.396,-4.453 73.399,-7.215 56.452,-10.395 -2.369,-0.444 -6.63,-0.619 -12.274,-0.576 z m 197.19,9.746 c -3.495,0 -6.589,5.625 -4.334,7.879 3.051,3.052 7.562,1.113 7.562,-3.248 0,-2.547 -1.454,-4.631 -3.228,-4.631 z m 30.006,0 c -4.291,0 -6.699,3.916 -5.049,8.217 2.198,5.728 8.386,3.939 8.386,-2.426 0,-3.498 -1.321,-5.791 -3.337,-5.791 z m -59.211,2.315 c -1.275,0 -2.317,1.564 -2.317,3.476 0,1.911 1.042,3.473 2.317,3.473 1.274,0 2.316,-1.562 2.316,-3.473 0,-1.912 -1.042,-3.476 -2.316,-3.476 z m 144.925,4.634 c -1.986,0 -3.613,1.042 -3.613,2.315 0,1.274 0.983,2.318 2.182,2.318 1.199,0 2.824,-1.044 3.611,-2.318 0.787,-1.273 -0.193,-2.315 -2.18,-2.315 z m 251.016,139.51 c -1.736,0.04 -3.623,0.191 -5.686,0.436 -18.448,2.185 -38.18,12.848 -55.578,30.035 -17.725,17.51 -22.855,19.237 -50.722,17.088 -15.715,-1.212 -18.752,-0.803 -23.834,3.195 -10.323,8.119 -11.615,17.32 -4.996,35.566 6.166,17.002 7.389,19.069 18.406,31.108 7.821,8.546 16.268,13.573 30.236,17.992 20.086,6.352 52.274,2.069 72.201,-9.607 24.285,-14.228 43.034,-43.857 45.916,-72.563 1.363,-13.564 0.783,-18.874 -3.439,-31.562 -5.595,-16.812 -10.349,-21.97 -22.504,-21.688 z m -21.371,19.328 c 3.07,-0.07 7.794,0.339 14.137,1.233 14.587,2.055 22.783,7.478 22.783,15.076 0,1.667 0.679,4.799 1.51,6.963 1.261,3.288 0.776,3.539 -2.956,1.543 -2.62,-1.402 -5.938,-1.564 -8.033,-0.391 -2.652,1.484 -4.637,0.186 -7.736,-5.061 -2.483,-4.203 -8.778,-9.192 -15.568,-12.337 -9.64,-4.467 -10.891,-6.882 -4.137,-7.026 z m -14.055,3.803 c 3.37,0.03 7.541,2.11 14.487,6.516 11.478,7.279 16.6,14.882 19.136,28.4 0.869,4.628 0.571,10.218 -0.662,12.422 -1.917,3.426 -3.147,2.46 -8.494,-6.664 -7.733,-13.195 -20.334,-24.514 -29.281,-26.303 -7.749,-1.551 -8.626,-5.316 -2.524,-10.838 2.58,-2.334 4.717,-3.555 7.338,-3.533 z m -17.318,17.285 c 1.581,0.02 3.723,1.061 7.758,3.131 16.667,8.548 25.425,22.198 27.33,42.592 1.398,14.972 1.27,15.448 -5.92,22.164 -4.042,3.775 -12.268,8.414 -18.281,10.308 -6.014,1.893 -17.657,4.128 -25.875,4.963 l -14.944,1.52 5.447,-4.41 c 4.202,-3.403 5.099,-5.787 3.932,-10.438 -1.907,-7.599 -9.925,-10.488 -15.006,-5.408 -3.061,3.062 -3.257,4.951 -1.101,10.662 3.2,8.481 0.967,8.905 -13.58,2.576 -11.78,-5.125 -24.505,-17.46 -20.541,-19.91 1.692,-1.046 2.085,-5.165 1.111,-11.664 -1.606,-10.711 1.723,-24.481 6.973,-28.84 1.724,-1.429 5.755,-1.941 8.959,-1.138 5.517,1.384 5.757,2.105 4.564,13.666 -1.206,11.689 2.076,27.653 6.211,30.209 1.056,0.652 1.761,-7.936 1.568,-19.081 l -0.351,-20.265 8.351,-0.699 c 8.032,-0.673 8.542,-0.25 13.409,11.06 2.782,6.469 6.2,17.445 7.595,24.391 2.75,13.694 6.553,14.984 6.553,2.224 0,-8.865 -5.541,-24.558 -11.939,-33.82 -3.82,-5.528 -3.875,-6.396 -0.581,-9.131 2.571,-2.133 4.736,-2.334 7.362,-0.678 6.724,4.241 18.531,28.721 20.166,41.809 2.087,16.708 7.086,15.361 6.767,-1.824 -0.258,-13.954 -4.645,-24.113 -16.316,-37.793 -7.218,-8.459 -7.498,-9.382 -4.018,-13.227 1.794,-1.982 2.816,-2.972 4.397,-2.949 z m -67.365,11.221 c 0.899,0.09 0.245,1.009 -1.668,3.207 -1.865,2.14 -4.76,6.499 -6.434,9.683 -1.674,3.185 -3.664,9.441 -4.424,13.901 -1.08,6.342 -1.744,7.182 -3.047,3.863 -4.229,-10.779 2.57,-27.491 12.211,-30.014 1.722,-0.449 2.822,-0.693 3.362,-0.64 z m 131.025,3.625 c 2.548,0 4.588,0.782 4.535,1.738 -0.053,0.956 -2.094,5.386 -4.535,9.844 l -4.439,8.109 -0.098,-9.847 c -0.082,-8.333 0.615,-9.844 4.537,-9.844 z m -15.129,27.314 c 0.158,0.04 0.334,0.403 0.518,1.108 v 0 c 0.586,2.255 0.546,5.382 -0.088,6.949 -0.635,1.568 -1.116,-0.274 -1.069,-4.096 0.033,-2.628 0.29,-4.057 0.637,-3.961 z m -25.494,9.75 c -3.412,0 -4.729,7.157 -1.848,10.039 v 0 c 1.952,1.96 6.498,2.004 8.412,0.09 2.291,-2.291 -2.787,-10.121 -6.564,-10.121 z m -84.656,5.047 c -3.68,-0.347 -5.256,6.249 -2.028,10.139 1.827,2.201 3.762,2.723 5.11,1.375 2.848,-2.848 1.361,-10.122 -2.319,-11.348 -0.263,-0.09 -0.518,-0.143 -0.763,-0.166 z m 61.636,5.065 c -0.79,-0.02 -1.509,0.214 -2.076,0.781 -1.973,1.974 -1.86,11.105 0.162,13.127 3.097,3.096 8.804,0.234 9.52,-4.776 0.582,-4.069 -4.179,-9.034 -7.606,-9.132 z m -337.796,10.767 c -1.943,-0.01 -4.093,0.08 -6.541,0.285 -21.622,1.777 -34.916,9.143 -53.29,29.524 -11.64,12.912 -19.223,19.204 -26.496,21.982 -9.855,3.765 -10.445,3.731 -18.099,-1 -4.352,-2.69 -10.819,-9.083 -14.371,-14.211 -4.707,-6.792 -11.191,-11.658 -23.899,-17.939 -22.531,-11.135 -41.648,-12.61 -70.189,-5.408 -35.24,8.893 -52.551,21.009 -59.592,41.712 -3.475,10.217 1.919,22.112 13.549,29.877 7.267,4.852 9.79,5.259 24.324,3.928 13.979,-1.283 17.094,-2.429 22.586,-8.316 6.761,-7.247 8.285,-16.18 3.445,-20.198 -1.609,-1.337 -7.082,-2.765 -12.162,-3.179 -21.279,-1.733 -0.59,-15.43 23.688,-15.684 21.42,-0.224 36.27,7.268 59.031,29.768 12.812,12.668 23.769,21.344 30.115,23.842 12.313,4.849 18.387,5.041 33.699,1.07 17.243,-4.474 27.008,-12.062 39.223,-30.481 11.923,-17.979 19.096,-26.642 22.063,-26.642 1.079,0 3.114,2.529 4.521,5.617 2.272,4.988 1.361,7.143 -8.156,19.256 -11.746,14.951 -13.122,21.372 -6.084,28.41 8.197,8.197 15.823,5.996 30.092,-8.687 31.063,-31.967 33.951,-65.043 6.972,-79.846 -4.63,-2.546 -8.601,-3.634 -14.429,-3.68 z m -6.243,9.574 c 0.48,-0.01 0.934,0.06 1.35,0.219 1.917,0.737 4.589,1.338 5.937,1.338 1.348,0 -1.418,3.648 -6.146,8.107 -9.808,9.251 -12.9,10.085 -12.9,3.477 0,-5.51 7.119,-13.043 11.759,-13.141 z m -19.611,3.875 c 3.055,0 1.024,16.902 -2.293,19.075 -3.764,2.467 -4.396,2.239 -9.91,-3.582 l -4.998,-5.276 7.457,-5.109 c 4.101,-2.809 8.486,-5.108 9.744,-5.108 z m 38.156,5.266 c 1.381,0.05 2.257,1.042 3.698,3.012 1.685,2.306 3.064,6.597 3.064,9.537 0,4.114 -1.296,5.349 -5.604,5.349 -3.081,0 -7.115,0.58 -8.966,1.291 -3.33,1.279 -6.28,-3.198 -6.28,-9.529 0,-1.773 3.313,-4.937 7.362,-7.031 3.462,-1.79 5.346,-2.68 6.726,-2.629 z m -202.752,1.857 c 3.16,-0.04 3.336,1.297 3.336,5.323 0,5.529 -0.827,6.086 -9.019,6.086 -6.229,0 -9.47,-1.176 -10.479,-3.807 -1.881,-4.9 -1.789,-4.965 9.738,-6.807 2.934,-0.469 4.988,-0.775 6.424,-0.795 z m 15.498,0 c 8.159,0.277 21.454,5.745 21.198,8.719 -0.128,1.478 -0.389,4.772 -0.58,7.32 -0.406,5.4 -2.632,5.512 -15.985,0.784 -8.536,-3.021 -9.846,-4.384 -9.846,-10.243 0,-5.515 0.959,-6.719 5.213,-6.58 z m -42.279,4.457 c 2.548,0 4.635,0.436 4.635,0.969 0,0.533 0.58,2.484 1.291,4.334 1.98,5.161 -4.734,6.402 -7.828,1.447 -3.706,-5.934 -3.477,-6.75 1.902,-6.75 z m 170.014,5.639 c 0.927,0 2.04,0.938 3.91,2.631 2.45,2.217 4.432,5.694 4.404,7.727 -0.028,2.033 -1.853,6.023 -4.054,8.869 l -4.002,5.175 -3.735,-6.543 c -3.294,-5.771 -3.34,-7.29 -0.4,-12.902 1.798,-3.431 2.684,-4.962 3.877,-4.957 z m -97.545,1.451 c 1.553,0.07 3.61,1.035 7.219,2.756 4.588,2.189 8.307,4.778 8.261,5.754 -0.045,0.977 -2.391,4.577 -5.213,8.002 l -5.129,6.227 -7.714,-6.319 -7.717,-6.32 4.584,-5.66 c 2.549,-3.149 3.712,-4.532 5.709,-4.44 z m -88.151,0.436 c 2.092,0.04 3.926,0.635 5.364,1.828 3.07,2.549 2.604,3.695 -3.645,8.947 -3.941,3.314 -7.46,8.087 -7.818,10.606 -0.435,3.052 -3.088,5.08 -7.953,6.076 -4.016,0.821 -8.872,2.794 -10.791,4.387 -2.942,2.442 -3.482,2.036 -3.453,-2.598 0.061,-9.547 2.994,-11.8 12.945,-9.936 8.227,1.54 8.746,1.352 5.848,-2.148 -1.749,-2.111 -5.399,-3.872 -8.11,-3.912 -4.62,-0.07 -4.522,-0.432 1.553,-5.776 5.611,-4.937 11.459,-7.558 16.06,-7.474 z m 460.76,5.019 c -4.824,0.06 -10.261,1.156 -16.74,3.209 -11.995,3.8 -14.676,5.785 -20.904,15.471 -9.754,15.167 -13.254,25.94 -13.373,41.17 -0.173,21.885 5.466,35.914 20.375,50.684 14.259,14.129 40.717,29.299 56.535,32.419 14.366,2.832 15.705,2.791 30.263,-1.001 19.217,-5.004 34.897,-13.658 48.481,-26.752 6.558,-6.32 13.357,-11.493 15.109,-11.493 10.64,0 20.35,-14.263 17.858,-26.23 -3.288,-15.789 -6.239,-17.785 -26.297,-17.785 -9.99,0 -23.639,1.039 -30.33,2.306 -10.325,1.958 -13.704,1.629 -22.322,-2.183 -9.067,-4.01 -10.993,-6.327 -17.928,-21.547 -4.274,-9.379 -11.843,-21.332 -16.819,-26.563 -7.724,-8.119 -14.698,-11.812 -23.908,-11.705 z m -1.57,5.516 c 7.842,0 16.78,4.596 18.646,9.461 1.378,3.587 0.168,3.696 -9.671,0.875 -4.783,-1.371 -10.611,-1.276 -16.202,0.266 -4.802,1.325 -12.594,5.469 -17.316,9.207 l -8.586,6.794 3.674,-10.781 c 3.046,-8.939 15.439,-15.822 29.455,-15.822 z m -216.063,0.394 c 2.284,-0.06 4.242,0.563 5.141,2.018 0.659,1.067 -0.38,4.193 -2.311,6.949 -3.733,5.331 -3.871,5.367 -11.986,3.043 -4.964,-1.421 -5.055,-1.804 -1.605,-6.72 2.242,-3.195 6.955,-5.189 10.761,-5.29 z m -136.898,2.831 c 1.688,0.01 3.712,2.243 6.883,6.697 4.209,5.911 4.64,8.095 2.523,12.742 -3.21,7.049 -5.143,7.034 -11.836,-0.09 -4.83,-5.141 -5.069,-6.393 -2.439,-12.742 1.828,-4.416 3.181,-6.62 4.869,-6.607 z m 68.908,3.179 c 0.897,0.07 1.537,1.147 2.572,3.08 1.349,2.52 2.454,6.021 2.454,7.778 0,3.63 -10.231,13.784 -17.803,17.675 -6.981,3.586 -7.385,3.427 -9.156,-3.632 -1.258,-5.011 -0.473,-6.934 4.009,-9.817 3.066,-1.97 8.38,-6.509 11.809,-10.084 3.385,-3.529 4.962,-5.093 6.115,-5 z m 292.211,11.076 c 10.92,0.201 20.163,4.743 22.264,11.364 2.142,6.748 0.338,7.657 -8.697,4.39 -6.756,-2.444 -9.274,-2.199 -18.245,1.77 -5.724,2.533 -14.327,8.046 -19.117,12.25 -4.79,4.206 -11.146,12.438 -14.125,18.289 l -5.416,10.643 -1.631,-10.834 c -1.394,-9.259 -0.709,-12.532 4.713,-22.493 8.026,-14.748 20.745,-23.774 35.487,-25.191 1.612,-0.155 3.207,-0.216 4.767,-0.188 z m -235.779,1.575 c 7.034,-0.09 6.508,3.748 -1.852,13.515 -8.448,9.87 -11.158,11.315 -13.654,7.276 -2.081,-3.368 10.87,-20.741 15.506,-20.791 z m -108.676,2.392 c 1.133,-0.01 2.255,1.021 3.084,3.182 0.698,1.819 0.927,5.52 0.508,8.228 -0.66,4.264 -1.303,4.522 -4.781,1.907 -2.678,-2.012 -3.554,-4.755 -2.625,-8.229 0.886,-3.318 2.358,-5.07 3.814,-5.088 z m -133.434,0.547 c 4.251,-0.04 9.521,0.758 15.799,2.397 2.548,0.666 5.905,1.284 7.457,1.388 5.604,0.351 0.093,6.845 -8.842,10.42 -12.207,4.884 -14.612,4.653 -22.23,-2.142 -6.419,-5.723 -6.443,-5.84 -1.867,-9.418 2.202,-1.722 5.433,-2.604 9.683,-2.645 z m 151.321,3.961 c 6.177,0 6.949,0.772 6.949,6.951 0,5.735 -0.943,6.947 -5.404,6.947 -2.973,0 -6.102,-0.692 -6.952,-1.542 -0.849,-0.849 -1.542,-3.978 -1.542,-6.95 0,-4.462 1.212,-5.406 6.949,-5.406 z m 337.259,11.902 c 4.282,0.02 8.148,1.195 11.356,3.621 5.11,3.866 5.083,3.91 -5.123,7.975 -15.5,6.174 -30.564,29.131 -30.602,46.637 -0.015,7.055 8.02,15.844 9.989,10.924 0.816,-2.04 1.275,-1.751 1.398,0.88 0.463,9.909 11.766,5.875 11.766,-4.201 0,-5.916 -4.287,-7.242 -8.803,-2.726 -2.162,2.161 -2.779,1.747 -2.779,-1.864 0,-7.523 11.462,-28.316 18.293,-33.179 12.484,-8.884 28.781,-8.992 19.259,-0.123 -11.533,10.745 -22.67,39.531 -19.695,50.908 v 0 c 0.782,2.989 0.084,4.646 -1.951,4.606 -4.853,-0.06 -26.855,-12.78 -38.199,-22.075 -18.436,-15.107 -18.708,-21.393 -1.741,-40.265 12.248,-13.623 25.892,-21.156 36.832,-21.112 z m -530.066,2.071 c -5.049,0.155 -10.054,3.014 -15.758,8.716 -15.793,15.795 -21.066,51.603 -10.174,69.102 22.322,35.86 59.753,34.776 92.635,-2.678 25.994,-29.606 42.143,-35.103 62.709,-21.351 19.085,12.759 21.49,31.515 7.606,59.301 -6.88,13.767 -16.616,25.467 -12.846,15.437 0.952,-2.533 2.336,-11.092 3.076,-19.019 1.321,-14.142 1.191,-14.567 -6.857,-22.614 -6.84,-6.841 -9.851,-8.203 -18.127,-8.203 -13.653,0 -27.889,7.485 -40.127,21.096 -18.707,20.805 -21.923,40.15 -9.188,55.285 6.237,7.412 13.764,8.98 19.77,4.121 6.119,-4.95 11.205,-14.093 11.242,-20.207 0.02,-3.22 0.931,-7.267 2.025,-8.994 1.158,-1.826 1.5,3.715 0.817,13.264 -1.154,16.13 -1.05,16.516 6.328,23.408 8.872,8.288 20.265,9.154 37.598,2.857 26.566,-9.651 37.966,-24.187 48.318,-61.605 12.131,-43.851 -0.732,-78.981 -35.395,-96.664 -8.041,-4.103 -12.559,-4.752 -27.201,-3.905 -21.77,1.261 -37.626,8.125 -56.849,24.61 -16.165,13.863 -37.486,25.884 -45.909,25.885 -5.563,0 -15.482,-9.219 -15.482,-14.389 0,-1.201 4.171,-8.006 9.268,-15.123 10.761,-15.029 11.409,-19.517 3.556,-24.662 -3.511,-2.301 -6.788,-3.534 -10.025,-3.664 -0.337,-0.01 -0.673,-0.01 -1.01,0 z m 482.549,6.14 c -1.894,0 -3.812,1.92 -4.264,4.266 -0.596,3.096 0.348,4.038 3.444,3.439 5.069,-0.973 5.786,-7.705 0.82,-7.705 z m -483.465,3.141 c 3.481,-0.104 6.078,0.921 6.078,3.129 0,5.23 -8.259,14.188 -10.193,11.058 -0.915,-1.48 -4.209,-2.691 -7.319,-2.691 -7.231,0 -7.21,-3.082 0.055,-7.844 3.533,-2.314 7.898,-3.548 11.379,-3.652 z m 114.66,7.037 c 2.633,0.08 1.737,1.617 -1.615,5.186 -2.77,2.948 -5.037,6.623 -5.037,8.166 0,1.542 -2.673,3.82 -5.942,5.064 -11.233,4.271 -12.775,2.23 -6.9,-9.131 2.229,-4.309 5.867,-7.022 10.715,-7.992 4.35,-0.871 7.2,-1.343 8.779,-1.293 z m 17.674,1.594 c 3.856,0.07 7.995,1.586 12.568,4.525 l 5.62,3.613 -8.516,4.368 c -4.683,2.403 -8.516,5.386 -8.516,6.631 0,2.848 -2.487,2.827 -6.949,-0.06 -1.911,-1.235 -5.821,-2.271 -8.687,-2.281 -6.71,-0.05 -6.57,-2.095 0.673,-9.907 4.357,-4.698 8.849,-6.985 13.807,-6.892 z m -45.801,8.092 c 0.794,-0.05 0.562,0.867 -0.146,2.711 -0.849,2.212 -1.577,6.282 -1.617,9.044 -0.045,3.166 -3.769,7.81 -10.071,12.555 -11.809,8.889 -12.253,8.972 -14.256,2.664 -1.75,-5.515 7.419,-16.433 20.082,-23.912 3.395,-2.005 5.215,-3.015 6.008,-3.062 z m 479.127,1.343 c 1.478,-0.1 3.319,0.585 6.332,1.852 l 7.356,3.092 0.111,23.422 0.113,23.421 -6.949,2.141 c -23.146,7.128 -30.108,4.639 -27.689,-9.898 2.19,-13.168 9.539,-32.351 15.103,-39.424 2.423,-3.081 3.723,-4.483 5.623,-4.606 z m -576.681,0.442 c 1.496,-0.05 2.807,0.317 3.718,1.228 2.656,2.657 -1.145,10.548 -4.466,9.274 -1.836,-0.706 -5.347,-0.208 -7.803,1.107 -3.407,1.822 -4.465,1.632 -4.465,-0.808 0,-5.115 7.673,-10.622 13.016,-10.801 z m 622.523,2.676 c 7.49,0 7.61,0.171 8.096,11.324 0.422,9.699 -0.308,11.847 -5.088,14.98 -5.411,3.544 -5.656,3.438 -8.096,-3.56 -1.384,-3.971 -2.517,-10.712 -2.517,-14.981 0,-7.23 0.523,-7.763 7.605,-7.763 z m 21.352,0 c 4.633,0 5.793,1.158 5.793,5.793 0,6.663 -7.811,8.293 -10.178,2.125 -2.438,-6.354 -1.572,-7.918 4.385,-7.918 z m -137.561,0.714 c -1.161,0 -2.479,0.545 -3.853,1.686 -3.462,2.874 -4.585,11.833 -1.829,14.588 3.893,3.894 10.039,-1.744 10.039,-9.207 0,-4.492 -1.802,-7.076 -4.357,-7.067 z m 97.065,1.602 c 3.884,0 4.589,1.576 4.589,10.273 0,5.65 1.111,13.197 2.469,16.768 2.121,5.577 1.757,7.068 -2.574,10.576 -2.773,2.245 -6.376,4.082 -8.008,4.082 -5.692,0 -6.544,-14.666 -2.121,-36.486 0.668,-3.296 2.742,-5.213 5.645,-5.213 z m -442.319,1.742 c 4.943,0.07 10.154,2.178 12.67,6.018 2.113,3.225 3.44,6.205 2.949,6.625 -0.491,0.421 -5.063,1.35 -10.16,2.064 -7.184,1.006 -10.253,0.31 -13.658,-3.092 -3.617,-3.611 -3.873,-5.007 -1.453,-7.923 2.126,-2.562 5.808,-3.745 9.652,-3.692 z m -163.006,9.535 c 2.917,-0.03 5.556,2.364 7.213,7.117 2.246,6.441 1.827,8.077 -3.826,14.893 -3.492,4.21 -7.09,7.732 -7.994,7.822 -0.905,0.09 -2.879,-3.955 -4.389,-8.994 -2.33,-7.776 -2.163,-10.051 1.117,-15.058 2.517,-3.842 5.306,-5.754 7.879,-5.78 z m 260.912,2.496 c -11.713,-0.12 -25.667,1.237 -32.279,3.133 -30.851,8.857 -35.369,40.461 -9.082,63.541 11.226,9.856 16.943,11.789 34.895,11.789 17.816,0 26.928,4.048 30.947,13.752 3.862,9.322 1.342,22.592 -4.652,24.494 -2.505,0.797 -4.553,2.42 -4.553,3.608 0,1.187 -1.225,2.16 -2.721,2.16 -1.496,0 -0.454,-2.413 2.316,-5.361 12.638,-13.451 0.815,-31.704 -20.537,-31.704 -22.225,0 -48.43,14.229 -57.158,31.038 -5.246,10.104 -4.779,30.311 1,43.343 5.355,12.077 15.493,20.706 30.768,26.188 23.883,8.569 56.09,-0.942 75.215,-22.211 14.323,-15.932 20.654,-33.114 20.765,-56.352 0.106,-22.153 -4.747,-34.654 -19.785,-50.968 -11.602,-12.588 -19.599,-17.176 -34.271,-19.657 l -10.651,-1.802 10.569,-0.272 c 19.006,-0.489 27.568,-16.787 15.277,-29.078 -4.841,-4.842 -7.663,-5.454 -26.063,-5.641 z m 363.926,0.907 c -0.616,0.06 -1.023,0.556 -1.023,1.398 0,1.351 1.042,2.455 2.316,2.455 1.274,0 2.317,-0.459 2.317,-1.021 0,-0.562 -1.043,-1.668 -2.317,-2.455 -0.478,-0.296 -0.923,-0.414 -1.293,-0.377 z m -557.847,4.257 2.593,6.872 c 2.393,6.34 1.984,7.429 -5.277,14.066 -4.328,3.956 -11.07,9.077 -14.982,11.377 l -7.114,4.185 v -11.539 -11.541 l 12.389,-6.709 z m 109.83,1.491 c 2.7,0 5.404,2.378 6.759,5.941 3.333,8.768 2.854,13.316 -1.236,11.746 -1.922,-0.737 -5.987,-0.393 -9.035,0.766 -5.193,1.974 -5.597,1.536 -6.408,-6.967 -0.897,-9.404 0.9,-11.486 9.92,-11.486 z m 97.677,0.332 c 3.207,-0.02 4.144,1.088 5.077,4.021 0.849,2.68 0.896,5.923 0.101,7.209 -0.795,1.286 -4.994,2.336 -9.334,2.336 -5.627,0 -8.632,-1.385 -10.476,-4.832 -3.215,-6.005 -3.007,-6.198 8.642,-8.062 2.608,-0.417 4.533,-0.661 5.99,-0.672 z m -24.97,4.301 c 1.922,0 3.494,0.437 3.494,0.97 0,0.531 0.633,2.616 1.406,4.631 2.014,5.249 -2.068,4.53 -5.502,-0.967 -2.413,-3.865 -2.313,-4.635 0.602,-4.634 z m 353.32,0.687 c -1.79,-0.03 -2.601,2.295 -1.252,5.813 1.159,3.02 2.164,3.32 4.225,1.259 2.06,-2.06 2.052,-3.355 -0.038,-5.445 -1.105,-1.106 -2.122,-1.611 -2.935,-1.627 z m -369.543,2.605 c 3.579,0.122 10.449,5.416 10.449,8.649 0,3.037 -2.963,2.247 -9.002,-2.397 -3.875,-2.98 -4.697,-4.762 -2.75,-5.966 0.348,-0.215 0.792,-0.303 1.303,-0.286 z m -217.934,3.782 c 1.824,0.06 3.735,0.719 5.719,1.976 2.685,1.699 2.591,2.904 -0.58,7.43 -2.081,2.969 -3.781,7.774 -3.781,10.676 0,5.815 -1.066,6.127 -8.553,2.51 -7.228,-3.492 -7.914,-7.183 -2.877,-15.465 2.753,-4.527 5.87,-6.904 9.297,-7.116 0.257,-0.01 0.515,-0.02 0.775,-0.01 z m 20.051,2.082 c 0.345,0.03 0.635,0.146 0.86,0.375 0.481,0.492 1.202,5.49 1.603,11.107 0.6,8.411 -0.078,10.526 -3.844,11.998 -10.528,4.114 -13.889,1.306 -11.492,-9.605 1.215,-5.535 9.543,-14.127 12.873,-13.875 z m 532.61,0.947 c -3.68,-0.347 -5.256,6.248 -2.028,10.137 1.827,2.202 3.762,2.724 5.11,1.375 2.847,-2.847 1.361,-10.123 -2.319,-11.348 -0.263,-0.09 -0.518,-0.141 -0.763,-0.164 z m -347.749,1.48 c 4.004,0 12.623,8.522 11.104,10.979 -0.838,1.355 -4.7,3.571 -8.582,4.924 -5.757,2.008 -7.309,1.808 -8.416,-1.078 -1.554,-4.05 2.73,-14.825 5.894,-14.825 z m -44.546,6.647 c 1.633,0.05 3.734,0.671 6.439,1.709 3.811,1.463 4.924,13.343 2.203,23.496 -0.768,2.868 -2.056,5.07 -2.863,4.897 -0.807,-0.174 -3.798,-0.764 -6.645,-1.313 -4.717,-0.911 -5.142,-2.216 -4.796,-14.742 0.27,-9.82 1.212,-13.763 4.99,-14.035 0.214,-0.02 0.438,-0.02 0.672,-0.01 z m -61.209,14.203 h 7.072 l -6.104,4.801 c -3.357,2.641 -6.103,6.186 -6.103,7.879 0,1.695 -3.129,4.173 -6.951,5.504 -3.823,1.333 -6.95,3.52 -6.95,4.861 0,2.971 -1.893,2.886 -8.687,-0.391 -6.57,-3.169 -6.523,-4.398 0.408,-10.91 5.783,-5.434 10.596,-4.857 10.596,1.27 0,1.92 1.13,2.776 2.535,1.91 1.394,-0.863 2.07,-4 1.502,-6.971 -1.159,-6.066 1.852,-7.953 12.682,-7.953 z m 116.066,3.545 c 1.139,0.03 2.223,0.725 3.732,2.084 2.001,1.802 6.385,3.963 9.743,4.799 4.583,1.144 5.816,2.631 4.943,5.971 -1.676,6.408 -10.484,5.601 -19.236,-1.764 -6.892,-5.798 -7.107,-6.417 -3.235,-9.246 1.722,-1.26 2.914,-1.879 4.053,-1.844 z m -104.557,3.84 c 4.881,0.13 7.521,4.348 5.26,11.473 -1.666,5.25 -15.298,6.001 -19.392,1.07 -2.129,-2.565 -1.401,-4.252 3.503,-8.108 3.966,-3.12 7.701,-4.513 10.629,-4.435 z m 150.575,0.1 c 0.96,0.01 1.886,0.118 2.75,0.334 6.022,1.511 6.078,1.696 2.589,8.442 -1.961,3.794 -4.321,6.731 -5.244,6.527 -0.923,-0.204 -5.128,-0.795 -9.345,-1.314 -5.299,-0.654 -7.448,-2.021 -6.952,-4.422 1.027,-4.964 9.476,-9.637 16.202,-9.567 z m 16.804,11.282 c 0.942,0.06 1.928,0.456 3.086,1.177 4.847,3.021 14.343,19.103 14.397,24.379 0.024,2.444 -2.404,4.151 -6.83,4.801 -5.695,0.835 -7.258,0 -9.155,-4.951 -1.258,-3.275 -4.135,-8.811 -6.394,-12.301 -3.907,-6.035 -3.911,-6.545 -0.069,-10.387 1.945,-1.944 3.396,-2.811 4.965,-2.718 z m -121.228,4.4 c 7.14,0 8.156,2.221 4.304,9.418 -2.815,5.26 -4.555,5.525 -10.027,1.524 -5.956,-4.355 -2.511,-10.942 5.723,-10.942 z m -91.561,5.789 c 4.434,0 6.758,1.186 6.758,3.444 0,3.678 -4.329,4.871 -11.133,3.07 -6.444,-1.709 -3.216,-6.514 4.375,-6.514 z m 42.832,3.475 c 5.895,0 6.243,11.103 0.412,13.16 -2.229,0.787 -6.4,3.542 -9.267,6.123 l -5.211,4.689 v -5.88 c 0,-7.49 8.241,-18.092 14.066,-18.092 z m 37.834,5.547 c 0.662,0 1.342,0.106 2.022,0.367 2.196,0.843 3.992,2.303 3.992,3.244 0,0.94 -1.935,3.461 -4.301,5.602 -3.586,3.244 -4.734,3.369 -6.91,0.746 -3.215,-3.872 0.562,-9.908 5.197,-9.959 z m -85.42,3.722 c 7.088,0 9.559,5.239 6.075,12.887 -3.101,6.804 -6.311,7.196 -9.54,1.164 -4.415,-8.251 -2.986,-14.051 3.465,-14.051 z m 52.657,9.967 c 2.606,0.182 4.378,3.473 3.63,10.02 -0.64,5.605 -1.935,6.765 -8.218,7.373 -7.355,0.711 -7.423,0.624 -5.032,-6.237 2.64,-7.572 6.665,-11.362 9.62,-11.156 z m 18.759,1.031 c 1.333,-0.09 2.436,0.25 3.01,1.178 0.841,1.36 -0.836,4.389 -3.728,6.731 -6.593,5.339 -9.384,5.4 -9.362,0.205 0.017,-3.706 6.081,-7.843 10.08,-8.114 z m 105.582,0.645 c 3.305,-0.06 7.696,1.016 10.508,3.072 2.629,1.922 3.727,4.616 2.832,6.949 -2.045,5.329 -10.256,4.769 -12.031,-0.822 -0.809,-2.549 -2.443,-4.635 -3.631,-4.635 -1.188,0 -2.16,-1.041 -2.16,-2.314 0,-1.479 1.912,-2.206 4.482,-2.25 z m -17.584,4.564 c 5.604,0 13.102,6.402 13.102,11.188 0,4.081 -3.41,3.273 -8.109,-1.92 -2.307,-2.547 -5.595,-4.633 -7.309,-4.633 -1.714,0 -3.115,-1.044 -3.115,-2.318 0,-1.273 2.444,-2.317 5.431,-2.317 z m 73.012,0.164 c 2.398,-0.125 2.766,1.906 1.533,8.477 -0.891,4.752 -2.832,10.921 -4.312,13.707 l -2.692,5.063 -6.453,-5.17 c -6.2,-4.969 -6.316,-5.437 -2.955,-11.918 3.371,-6.497 8.232,-9.817 14.879,-10.159 z m -88.113,11.42 c 14.868,0 20.643,12.138 7.181,15.096 -3.917,0.86 -10.693,4.7 -15.058,8.533 l -7.936,6.967 v -8.463 c 0,-4.655 1.59,-11.539 3.534,-15.299 2.966,-5.737 4.94,-6.834 12.279,-6.834 z m 47.285,9.891 c 1.076,-0.03 1.768,0.394 1.768,1.217 0,1.285 -3.285,3.483 -7.297,4.883 -8.796,3.064 -8.92,3.072 -8.92,0.496 0,-1.126 1.825,-2.57 4.054,-3.211 2.23,-0.642 5.878,-1.917 8.108,-2.836 0.857,-0.353 1.641,-0.532 2.287,-0.549 z m 22.99,4.066 c 0.221,-0.1 1.46,0.999 3.932,3.198 2.729,2.427 4.961,4.773 4.961,5.213 0,2.642 -4,0.02 -6.721,-4.415 -1.595,-2.596 -2.392,-3.895 -2.172,-3.996 z m -10.744,3.481 c 1.756,0.01 3.395,1.07 5.684,3.359 5.829,5.831 6.026,14.338 0.449,19.385 -2.33,2.109 -4.674,3.834 -5.211,3.814 -2.103,-0.04 -11.252,-19.198 -10.076,-21.099 0.687,-1.112 3.253,-3.094 5.701,-4.404 1.304,-0.699 2.399,-1.064 3.453,-1.055 z m -43.187,6.76 c 3.331,0.01 5.233,2.082 3.789,6.816 -0.821,2.692 -2.086,9.348 -2.811,14.793 -0.725,5.443 -1.961,10.242 -2.748,10.662 -2.812,1.505 -15.961,-3.235 -18.943,-6.83 -2.534,-3.053 -2.368,-4.913 1.006,-11.176 4.628,-8.594 14.154,-14.287 19.707,-14.265 z m 24.027,4.718 c 3.69,-0.05 4.299,1.935 6.451,9.621 1.804,6.441 2.081,11.186 0.733,12.534 -1.194,1.194 -7.157,3.103 -13.252,4.242 -12.676,2.368 -14.512,0.564 -12.112,-11.893 2.047,-10.627 3.753,-12.415 13.291,-13.918 2.086,-0.329 3.659,-0.57 4.889,-0.586 z" fill="#00B894" transform="translate(-0.73710007,-70.425503) matrix(0.26458333,0,0,0.26458333,-2015.1987,-4828.4127)"/>
</svg>