<?xml version="1.0" ?><svg height="63.700237mm" viewBox="0 0 119.02739 63.700237" width="119.02739mm" xmlns="http://www.w3.org/2000/svg">
    <path d="m 49040.752,5075.3595 c -18.152,-0.066 -26.731,9.9049 -28.558,28.6259 -1.17,11.9843 -1.556,9.3148 -22.59,7.4736 0,0 -2.751,3.6243 3.515,13.8086 6.266,10.1843 28.581,4.028 37.34,5.2363 8.759,1.2083 11.572,7.7104 10.805,16.6289 -0.768,8.9184 -7.444,40.5168 31.556,42.1854 39,1.6687 72.996,-29.3942 47.598,-56.7061 -10.254,-11.027 -31.652,13.2534 -46.293,15.6125 -14.641,2.3591 -19.756,-14.3848 -19.756,-14.3848 0,0 4.092,-2.1274 11.764,-8.2265 7.672,-6.099 20.075,-32.3939 -6.393,-45.5703 -4.963,-2.4706 -14.799,-4.6683 -18.988,-4.6835 z m -183.522,18.7881 c -8.695,9.5514 -10.519,30.8895 -10.519,30.8895 0,0 -19.053,0.1719 -16.559,12.3125 2.493,12.1407 21.162,11.9698 36.506,9.8984 l 13.362,-2.4179 c 0,0 -7.095,28.827 4.732,48.7929 11.828,19.9659 67.387,7.5951 81.133,-7.8828 13.746,-15.4779 5.689,-34.5234 5.689,-34.5234 0,0 -21.864,13.5792 -50.699,9.3789 -28.834,-4.2003 -17.838,-18.7578 -17.838,-18.7578 0,0 23.107,-37.0123 9.361,-45.8157 -13.819,-12.0074 -40.247,-16.8033 -55.168,-1.8746 z" fill="#FFFFFF" transform="translate(-148.3734,-176.79274) matrix(0.37953468,0,0,0.37953468,-17123.98,-822.83459) translate(-3313.5291,-2437.8203)"/>
    <path d="m 49045.264,5071.6641 c -2.281,-0.06 -4.643,0.013 -7.078,0.2129 -14.156,1.1613 -26.713,10.5433 -28.926,24.3808 l -1.637,10.2383 c -3.71,2.4955 -7.734,1.6971 -13.363,-1.2832 -8.548,-4.5256 -13.47,0.6433 -13.365,8.3711 0,7.4321 1.935,11.282 8.398,16.7207 10.52,8.853 20.109,11.357 28.631,7.4746 4.427,-2.0173 8.888,-2.147 13.508,-0.3906 5.915,2.2485 6.604,3.6963 4.843,10.1699 -4.795,17.6488 0.583,32.1226 15.276,41.1074 8.979,5.4907 8.196,10.0619 -2.68,15.6875 -8.144,4.2103 -10.746,13.2944 -4.531,15.8027 4.361,2.559 7.8,0.3045 11.349,-1.3046 3.755,-1.7112 9.298,-8.3613 12.315,-14.7774 4.395,-9.3543 6.582,-11.379 11.035,-10.2148 6.342,1.6584 6.879,4.2223 2.393,11.4062 -4.454,7.1294 -0.99,13.9707 7.072,13.9707 8.506,0 13.535,-8.6861 11.674,-20.1601 -1.248,-7.7168 -0.113,-9.3639 12.41,-17.9942 14.842,-10.2294 23.824,-22.3134 23.844,-32.0722 0,-3.3532 -3.521,-10.0478 -7.836,-14.877 -10.299,-11.5254 -21.488,-11.2918 -43.547,0.9102 -13.199,7.3019 -17.225,8.4636 -19.944,5.7519 -2.723,-2.7147 -1.693,-5.0741 5.124,-11.7402 10.232,-10.0022 13.162,-21.0809 8.951,-33.8359 -5.942,-16.1515 -17.954,-23.1327 -33.916,-23.5547 z m -6.853,7.0584 c 17.971,-0.2887 23.608,4.2575 28.129,10.6771 9.728,13.811 4.268,24.8352 -4.694,33.7978 -9.604,9.6036 -26.373,6.3455 -26.373,-2.0021 0,-2.8928 -3.161,-7.7428 -7.02,-10.7793 -4.482,-3.5262 -12.395,-2.9382 -12.258,-7.5456 0.374,-13.153 11.484,-23.8711 22.216,-24.1479 z m -177.282,7.2384 c -9.853,4.5781 -16.483,17.1904 -16.483,26.9766 0,6.4668 -0.878,7.2336 -6.974,6.0684 -8.877,-1.697 -14.854,4.1554 -14.854,14.5371 0,15.9238 21.149,25.938 40.215,19.0429 5.119,-1.8515 9.766,-2.9127 10.321,-2.3574 0.558,0.5551 -0.04,5.6409 -1.311,11.3008 -4.383,17.5637 5.425,42.9627 28.555,48.2266 5.297,0 5.293,9.2522 0,13.6445 -4.971,4.1252 -5.37,12.6724 -0.684,14.5644 v 0 c 9.332,3.766 18.379,-2.5314 19.561,-13.6171 0.589,-5.5057 2.333,-7.7696 5.984,-7.7696 4.194,0 5.154,2.0325 5.154,10.9141 0,9.3198 0.916,11.0472 6.287,11.8086 12.376,1.7544 17.975,-9.5496 10.768,-21.752 -2.765,-4.6661 -2.735,-6.0256 0.142,-7.0644 7.311,-2.6386 26.541,-18.9508 29.961,-25.4141 5.177,-9.7856 2.951,-37.7871 -3.371,-42.4101 -4.188,-3.0629 -7.494,-3.873 -17.535,2.7168 -13.944,9.1511 -34.269,16.9004 -46.791,7.039 -4.713,-3.7115 -5.12,-3.3205 4.096,-12.0137 7.935,-7.4819 9.176,-11.011 9.611,-20.1621 3.586,-38.2256 -33.036,-47.7278 -62.652,-34.2793 z m 40.98,8.3976 c 11.769,7.1753 13.935,26.4576 3.053,35.0184 -8.506,6.6896 -25.322,5.6948 -29.137,-0.2792 -1.496,-2.3379 -7.009,-9.8184 -16.712,-10.0367 -6.735,-0.1515 -8.706,-11.2848 2.779,-22.7717 11.482,-10.0516 28.645,-8.7592 40.017,-1.9308 z m 130.553,2.1259 c -4.09,0.042 -6.277,4.317 -5.564,6.9668 2.261,8.4202 10.402,4.5243 10.402,0.459 0,-2.0013 0.995,-6.0617 -2.971,-7.168 -0.659,-0.1839 -1.283,-0.2638 -1.867,-0.2578 z m 15.092,2.6816 c -4.913,0 -5.771,4.0667 -5.914,7.1582 -0.121,2.6222 0.911,4.5073 2.098,5.0801 2.365,1.1414 5.936,1.829 8.99,-3.7715 1.99,-3.6495 0.441,-8.4668 -5.174,-8.4668 z m -176.986,6.832 c -2.274,0 -7.238,0.8016 -6.881,6.8946 0.282,4.8071 2.862,6.5759 5.129,6.3867 3.714,-0.3099 5.687,-3.6087 5.687,-6.6406 0,-3.0321 -1.661,-6.6407 -3.935,-6.6407 z m 16.009,1.5547 c -5.317,0 -9.694,5.4145 -7.763,10.4395 2.241,5.8456 8.481,5.6648 11.568,-0.336 3.003,-5.8363 0.97,-10.1035 -3.805,-10.1035 z m 108.553,7.3135 c 7.753,-0.6478 13.602,2.1896 15.201,2.3741 3.634,0.4195 8.755,3.9882 9.374,5.8642 1.529,4.6417 -12.189,7.8259 -18.604,2.7724 -3.849,-3.0312 -11.999,-10.5071 -5.971,-11.0107 z m -144.016,13.5058 c 11.902,0.247 16.575,8.3023 15.678,10.7993 -1.423,3.9642 -16.408,7.1106 -27.819,0.344 -5.08,-3.0123 -7.341,-10.9831 -1.867,-11.4877 1.911,-0.1761 12.308,0.3091 14.008,0.3444 z m 199.549,12.1983 c 3.843,-0.01 6.076,1.5972 7.803,5.5567 3.862,8.8423 19.465,7.6922 31.123,-1.3624 20.819,-16.1701 27.828,-13.0881 32.345,-4.0508 5.84,25.3999 -18.077,41.641 -45.323,43.9295 -17.993,0 -24.195,-8.1896 -28.961,-17.6374 -4.827,-9.5688 -5.668,-25.6061 1.265,-26.336 0.618,-0.065 1.199,-0.098 1.748,-0.1 z m -160.506,11.8789 c 5.458,-0.059 9.005,-0.7395 11.683,3.293 19.481,15.8227 38.346,10.217 57.208,0.2988 10.611,-5.4869 11.024,-1.8051 11.004,4.0562 -0.02,9.0142 -0.267,24.1902 -23.725,36.3079 -28.249,14.5932 -61.932,4.7745 -64.966,-22.1479 -1.389,-12.3334 3.61,-21.752 8.796,-21.808 z" fill="#00B894" transform="translate(-148.3734,-176.79274) matrix(0.37953468,0,0,0.37953468,-17123.98,-822.83459) translate(-3313.5291,-2437.8203)"/>
</svg>