<?xml version="1.0" ?><svg height="172.81779mm" viewBox="0 0 149.89651 172.81779" width="149.89651mm" xmlns="http://www.w3.org/2000/svg">
    <path d="m 2927.8574,2926.04 c -7.2363,0.1647 -12.3119,12.2443 -12.3119,12.2443 0,0 -6.7874,-2.3715 -9.3904,-2.6014 -2.6029,-0.23 -10.0759,1.9258 -10.0759,1.9258 0,0 -5.637,-9.5426 -8.9747,-10.2756 -3.3375,-0.7329 -5.2058,1.6813 -6.7868,4.6851 -1.581,3.0034 3.4972,16.5993 3.4972,16.5993 0,0 -16.4539,17.51 -18.0507,24.3364 -1.5969,6.8267 2.1719,5.3892 2.1719,5.3892 0,0 0.064,3.7797 -0.1279,7.0419 -0.1915,3.2624 4.1522,0.6899 4.1522,0.6899 0,0 -0.1431,1.5379 -0.063,4.8145 0.08,3.2767 6.0042,2.9173 6.0042,2.9173 l 3.1939,3.2484 c 0,0 -3.7493,5.5359 -6.733,10.0803 l -2.1207,-0.5388 -28.5566,7.2548 13.3059,47.6084 c -3.6155,-1.1051 -7.6927,-2.567 -9.6915,-4.0333 -4.0455,-2.9673 -16.8189,-13.2909 -18.3429,-14.6623 0,0 -0.8674,0.8657 -0.1885,4.2446 0.6788,3.3785 13.4795,20.9584 17.8574,23.639 1.894,1.1599 7.7651,3.0082 14.2774,4.8089 l 1.5291,5.4705 7.3594,-3.1332 c 5.5221,1.3836 10.4139,2.4879 12.549,2.8406 5.7355,0.9476 28.169,3.7809 46.3312,0.402 8.3691,-1.557 13.3821,-4.3627 16.3611,-6.9364 l 16.66,3.7915 8.2199,-65.224 -27.8221,-3.9388 -3.3101,-12.4555 c 0,0 -0.032,-3.162 5.5729,-8.465 5.6052,-5.3029 3.8008,-17.6625 -0.4949,-21.0831 -4.2956,-3.4203 -11.4498,-19.1858 -11.4498,-19.1858 0,0 0.5274,-5.5474 1.4055,-9.3128 0.8785,-3.7653 4.1521,-9.758 -4.0718,-11.9569 -0.6425,-0.1718 -1.2714,-0.2437 -1.8846,-0.2298 z m -25.949,88.0951 13.0751,0.4981 -5.4225,1.4467 z" fill="#FFFFFF" transform="translate(-48.382202,-30.629183) translate(-2777.232,-2891.4095)"/>
    <path d="m 2915.5832,2931.7503 c -0.5496,1.3808 -1.0913,4.2953 -1.1833,4.4249 -2.2091,-3.8152 -12.983,-5.4835 -16.7695,-0.093 -1.7216,-4.8872 -3.9586,-9.2343 -6.2311,-10.6198 -3.1548,-1.9235 -4.7721,-1.9419 -8.8252,-0.1012 -5.8384,2.6519 -6.4694,10.6444 -2.839,17.8197 l 2.1064,4.1633 c -4.5352,4.282 -8.2857,10.788 -11.9241,13.7284 -5.2625,4.2527 -6.8761,6.9204 -7.0167,11.8554 -0.036,1.2707 0.936,4.323 1.608,5.3486 0.6719,1.0254 2.2658,2.3846 2.4042,3.8005 0.2742,2.8072 1.7106,3.8983 2.4826,1.8863 0.2661,-0.694 1.1449,-3.5048 2.3851,-5.5962 4.0371,-6.8073 -0.9799,-4.3611 -2.1643,-3.3838 -1.1463,0.9458 -1.2888,0.8343 -1.2888,-1.0068 0,-3.0841 1.9516,-6.2876 4.9651,-8.1501 3.7753,-2.3332 7.0178,-6.2608 8.6091,-10.4278 0.7497,-1.9632 1.8389,-3.5695 2.4202,-3.5695 1.6251,0 1.31,-5.1099 -0.6517,-10.581 -1.432,-3.9926 -1.5585,-5.0985 -0.7819,-6.8038 1.4769,-3.2418 3.2369,-3.3941 5.6618,-0.4896 1.4455,1.7314 2.3998,4.1151 2.9791,7.4435 0.8527,4.8952 0.3824,13.2356 -0.787,13.9582 -0.3405,0.2107 -0.4279,-0.7995 -0.1933,-2.2449 0.4698,-2.8949 -1.6654,-11.3589 -2.8655,-11.3589 -0.4363,0 -0.7532,3.1825 -0.7532,7.5622 v 7.5617 l 2.3468,1.039 c 3.2379,1.4332 4.2497,0.8184 5.7738,-3.5099 0.7242,-2.0562 1.8092,-4.8846 2.4112,-6.2845 0.6018,-1.4 1.33,-4.3068 1.33,-5.5051 0.8436,-5.2469 12.4754,-4.9129 15.6888,-0.9425 0,2.0899 1.6415,3.9535 3.0698,3.9535 0.8561,0 0.915,-0.4683 0.2852,-2.275 -0.9469,-2.7154 0.9724,-7.6239 4.3582,-11.1461 2.5763,-2.6803 3.4387,-2.1844 1.358,0.7812 -2.209,3.1476 -3.4029,7.3754 -3.4026,12.0446 4e-4,4.8411 0.933,7.6082 3.3096,9.8224 2.8558,2.6608 4.9513,2.1244 6.5244,-1.6697 l 1.3659,-3.2943 0.5472,2.3256 c 1.1681,4.9631 4.824,9.3258 8.4782,13.1897 5.3385,5.709 5.965,11.869 2.6627,19.9227 -1.3421,3.2729 -10.829,11.8218 -16.3833,15.45 -4.9159,3.2114 -5.9391,4.5465 -3.4877,4.525 1.6731,-0.01 8.8518,-3.3045 11.8492,-5.4388 l 2.2162,-1.5783 0.9276,1.734 c 0.4408,0.8233 1.0194,3.7074 1.4061,6.7764 -0.5913,0.016 -1.0958,0.087 -1.5011,0.2303 -1.2414,0.44 -20.043,4.5292 -25.0242,6.5575 -4.0128,1.634 -5.9447,1.3489 -24.5471,-3.6202 -5.0624,-1.3504 -8.7624,-2.3212 -11.8074,-2.9384 1.1547,-2.3895 2.5185,-4.3674 2.8861,-5.2826 0.726,-1.8071 2.0226,-2.029 3.7274,-1.1168 4.9676,2.8458 8.3842,4.0951 12.7245,4.8074 2.4591,0 5.9492,0.5387 7.7561,1.2012 7.7037,2.8246 15.9023,-1.1468 19.8947,-9.6361 1.5754,-3.3497 2.7407,-4.8585 3.876,-5.021 0.9779,-0.1399 3.5068,-0.5507 4.1753,-3.1744 0.3827,-1.5017 -1.6702,-3.2993 -4.0857,-1.7729 -1.388,0.877 -4.1937,0.5221 -4.4752,-1.9837 -0.5212,-4.6383 -3.8772,-1.571 -3.68,1.3744 0.089,1.3258 0.5565,2.2868 1.2375,3.259 1.0386,1.4828 1.0838,2.1409 0.2804,4.0798 -1.8408,4.4443 -5.394,7.8016 -5.394,5.0966 0,-0.565 -0.8805,-1.8549 -1.9569,-2.866 -3.4696,-3.2595 -9.6925,-1.949 -11.5333,2.4287 l -0.9624,2.2887 c -1.4285,-1.8288 -2.6157,-3.7117 -3.7598,-5.9738 -2.9263,-5.7865 -3.9966,-6.9419 -2.9404,-8.5538 2.1197,-3.8984 -1.4796,-4.1937 -2.9463,-2.1519 -0.6785,1.2256 -2.9952,2.8137 -5.7711,1.5444 -2.7539,-1.2592 -3.1533,-0.1335 -2.682,1.4694 0.3989,1.3569 4.3819,3.9874 6.618,3.0637 1.762,-0.7458 1.7482,-0.3084 2.4636,2.7642 1.2125,5.1779 3.8113,8.6434 2.8877,8.2714 -3.3173,-0.7973 -8.1101,-2.7016 -12.4284,-5.9966 -2.1709,-1.6567 -4.3507,-3.0124 -4.844,-3.0124 -1.2323,0 -1.1255,1.6555 0.2324,3.594 1.0307,1.4714 0.9775,1.6822 -0.5996,2.4007 -1.5515,0.7069 -3.7277,4.3327 -5.3997,8.1892 -5.2508,-0.4181 -9.1607,0.7981 -17.9547,3.6572 -5.9274,1.9274 -9.9516,3.2096 -10.1235,3.2474 -1.8082,0.3979 -1.59,1.6967 -0.6856,5.2292 0.6133,2.3954 1.5267,5.7308 2.5397,9.3703 -3.6785,-0.03 -4.3744,3.1048 -2.8868,4.0629 0.5441,0.6557 0.6036,1.5226 -0.4214,1.4705 -2.6223,-0.1336 -2.2313,2.5894 -0.8209,3.3974 0.4418,0.2531 0.5501,0.881 -0.3201,1.1087 -0.9432,0.2466 -1.5819,1.0545 -1.5819,2.0019 0,1.2037 1.3607,2.2507 5.6195,4.3228 2.2329,1.0865 4.1549,1.8473 5.7284,2.2845 1.3037,4.4949 2.6166,8.9969 3.8542,13.2007 -3.5161,-1.3531 -7.5887,-3.8639 -12.6567,-8.8949 -8.8884,-8.8231 -12.5148,-12.0146 -14.5176,-11.8681 h -6e-4 c -0.7836,0.057 -1.319,0.626 -1.8233,1.5682 -0.6706,1.2534 -0.3529,2.9586 1.545,8.3013 1.3136,3.6979 4.2112,7.8584 5.339,9.794 8.2425,11.3049 14.6944,14.4038 26.7924,18.1719 1.0958,3.4121 1.9634,7.8956 4.9426,6.5161 2.3398,-1.0836 5.793,-3.1785 6.68,-3.5223 1.6015,0.5258 3.6689,1.2067 5.6931,1.7221 8.6722,2.2084 9.5742,1.8273 2.8349,3.4734 -12.0578,2.9451 -14.8469,4.906 -11.7869,8.2875 4.4863,4.9281 17.1098,-2.7569 22.8146,-3.6261 9.0427,-1.3775 11.5019,-2.8672 17.0525,-2.7266 3.6236,0.092 8.44,-0.1915 10.7029,-0.6311 3.2697,-0.6354 4.4626,-0.575 5.8129,0.2946 1.693,1.0905 20.5159,4.5459 30.1239,5.5304 4.1205,0.4221 5.1367,0.3019 5.5022,-0.6508 1.2552,-3.2711 -3.8613,-5.4896 -17.4079,-7.5485 -2.8511,-0.4334 -5.9828,-1.0836 -6.9596,-1.4451 -1.6249,-0.601 -1.3997,-0.8409 2.6415,-2.8196 3.3757,-1.6528 5.6336,-3.2753 6.7906,-4.5515 0.7543,0.2184 1.5393,0.4435 2.3579,0.6724 12.9312,3.6163 14.1428,3.7943 15.6722,2.3235 0.5914,-0.5691 1.0517,-4.6034 1.7087,-11.7361 0.5883,-6.3834 1.5953,-14.3903 2.2376,-17.794 0.07,-0.3671 0.142,-0.7955 0.2159,-1.2419 2.066,-0.1793 4.2442,-0.6538 5.8177,-1.2349 1.3705,-1.1366 1.3232,-2.1905 -0.1717,-3.8421 -1.1173,-1.2345 -1.0883,-1.3885 0.3481,-1.8445 1.7172,-0.5448 2.8328,-3.001 1.9855,-4.3719 -0.3168,-0.513 -1.6122,-0.6931 -3.1677,-0.4406 -1.5531,0.252 -2.4467,0.1283 -2.1809,-0.3021 0.2478,-0.401 0.8923,-0.7294 1.4325,-0.7294 1.5912,0 4.5953,-3.6739 4.0872,-4.9984 -0.2857,-0.7445 -1.0181,-1.1266 -2.0356,-1.1705 -1.0897,-0.047 -2.5084,0.2986 -4.0545,0.9978 0.4958,-4.58 1.2005,-9.5428 1.4161,-12.1534 0.48,-5.8123 0.3228,-4.9584 -1.4859,-5.8736 -2.7324,-1.3825 -11.5643,-1.5531 -21.2596,-3.3462 -1.344,-0.2483 -2.5698,-0.4747 -3.6947,-0.665 -0.4223,-3.3918 -1.2466,-6.9382 -2.2221,-8.5917 -2.4448,-3.9789 -1.9896,-2.6605 1.331,-6.1055 10.5027,-10.8962 8.8327,-24.2329 2.9822,-29.8277 -2.5921,-2.712 -5.9167,-4.89 -7.4128,-7.7328 -1.4963,-2.8429 -3.3304,-5.7212 -4.0767,-6.3965 -1.284,-1.1617 -2.5906,-0.9639 -0.1468,-5.8191 3.4461,-6.8441 3.6735,-12.8694 0.2775,-17.2871 -5.568,-8.2153 -16.6165,-0.2081 -19.4269,6.2167 z m 16.4976,-1.4107 c 1.3132,0.04 1.5715,1.7305 0.71,4.9519 -0.5308,1.9842 -1.8201,5.0346 -2.8651,6.7779 -2.1113,3.5216 -2.5929,3.2416 -0.705,-0.4093 2.5608,-4.952 0,-4.3477 -3.7477,0.8831 l -1.3748,1.9206 0.5012,-2.713 c 0.7218,-3.9022 3.911,-9.874 5.8187,-10.8951 0.6697,-0.3584 1.225,-0.5292 1.6627,-0.5161 z m -26.579,50.9419 c -1.8264,0 -2.8794,3.3995 -1.5493,5.002 1.2215,1.4718 3.0347,0.6881 3.5976,-1.5555 0.5696,-2.2696 -0.1298,-3.4465 -2.0483,-3.4465 z m -32.2965,0.5364 c -0.286,0.023 -1.5276,0.595 -1.8528,1.1084 -0.9377,1.4816 -1.5588,7.2634 0.114,8.5046 2.7074,2.0088 3.3719,-2.0541 3.3824,-3.9149 0.019,-3.3924 -0.7855,-5.7657 -1.6436,-5.6981 z m 41.0413,-0.195 c -1.8976,0.1069 -2.6678,3.004 -2.0562,4.5991 0.6193,1.6145 3.2506,1.685 3.7232,0.035 0.5075,-1.7721 1.7934,-4.8288 -1.667,-4.6338 z m -44.1666,27.1617 c 0.1075,-0.01 0.1765,-3e-4 0.2013,0.019 0.1827,0.1463 0.4489,2.472 0.5916,5.168 l 0.2598,4.9017 -4.6523,1.1235 c -2.5587,0.6177 -5.0171,1.1212 -5.4632,1.1314 -1.022,0.01 -4.4006,-8.1465 -3.6293,-8.7618 0.7677,-0.6131 11.0792,-3.4873 12.6921,-3.5823 z m 4.3715,0.2783 c 0.1219,-0.013 0.259,0 0.4077,0.047 0.8682,0.266 2.8639,5.9774 2.8639,8.1966 v 6e-4 c 0,0.9754 -1.5061,0.947 -1.9422,-0.038 -0.6253,-1.4112 -1.8963,-6.3262 -1.9157,-7.4064 -0.01,-0.4686 0.2203,-0.7604 0.5863,-0.8003 z m 66.9489,1.0702 c 0.063,0 0.1278,0 0.1934,0.021 0.8023,0.1889 5.0525,6.3652 5.1097,7.426 0.023,0.473 -1.0445,0.4771 -4.8209,0.02 -1.8841,-0.2276 -2.1329,-0.5227 -2.1217,-2.5369 0.013,-2.906 0.6897,-4.8962 1.6395,-4.9298 z m 4.4243,0.5119 c 0.2522,-0.02 0.6006,0.1012 1.004,0.4236 0.4686,0.3725 0.7106,1.0112 0.5404,1.4187 -0.2138,0.5119 -0.6345,0.4292 -1.3611,-0.2699 -0.8259,-0.7966 -0.7381,-1.5281 -0.1833,-1.5724 z m -8.8041,0.1246 c 0.057,0 0.098,0.015 0.1199,0.034 0.1779,0.1422 0.092,1.8293 -0.1907,3.7492 -0.3864,2.6233 -0.8247,3.4891 -1.7642,3.4993 -0.6875,0 -2.0354,0.1768 -2.9949,0.3818 -1.9307,0.4131 -2.0258,0.1248 -1.2323,-3.7095 0.4104,-1.9823 0.9526,-2.5433 3.1766,-3.2848 1.2907,-0.43 2.4873,-0.7027 2.8856,-0.6693 z m -59.017,0.037 c 0.1815,-0.1445 10.7967,2.8769 11.1793,3.1824 0.1319,0.1051 -0.1674,1.4825 -0.6655,3.0614 -0.4981,1.5789 -1.1245,2.9607 -1.3918,3.07 -0.6734,0.2773 -5.486,-0.6014 -6.1351,-1.1194 -0.5418,-0.4324 -3.2846,-7.9568 -2.9869,-8.1944 z m 73.269,0.5102 c 0.3867,0 0.8749,0.058 1.5132,0.141 1.4651,0.1897 2.8037,0.4562 2.9749,0.5926 0.1711,0.1364 -0.3833,1.5414 -1.2318,3.1212 -1.3512,2.5159 -1.8343,2.8719 -3.896,2.8719 -2.6734,0 -2.8753,-0.6314 -1.432,-4.4765 0.6624,-1.7644 0.9112,-2.2549 2.0717,-2.2502 z m 6.1619,0.6909 c 0.1597,-0.017 0.3573,0.016 0.6001,0.091 0.6746,0.2066 1.6343,0.3748 2.1324,0.385 0.4981,0.01 1.3766,0.248 1.9521,0.5388 0.8339,0.4218 0.6158,1.049 -1.0722,3.0847 v 0 c -1.165,1.4051 -2.189,2.5554 -2.2738,2.5554 -0.7966,0 -0.9601,-1.02 -0.3645,-2.2703 1.1726,-2.4609 0.8704,-3.8873 -0.4369,-2.0615 l -1.1086,1.5471 -0.027,-2.0774 c -0.016,-1.2337 0.1201,-1.7413 0.599,-1.7927 z m -28.4911,1.0257 c 0.1012,0.01 0.1981,0.048 0.2878,0.12 0.2543,0.2026 -0.2152,2.1518 -1.0432,4.3307 -0.8282,2.179 -2.7307,7.8609 -4.2277,12.6251 -1.497,4.7651 -3.208,9.761 -3.8021,11.1033 -0.5939,1.3422 -1.5437,2.5637 -2.11,2.7145 -0.7407,0.1968 -0.8593,-0.054 -0.4232,-0.8933 0.3337,-0.6417 0.8897,-2.2982 1.2356,-3.6805 0.3461,-1.3823 1.6521,-5.2808 2.9019,-8.6631 1.2497,-3.383 2.8555,-8.2688 3.5685,-10.8587 1.1341,-4.1208 2.6291,-6.885 3.6124,-6.798 z m -73.8098,0.058 c 0.9032,0 2.2552,3.4862 2.5981,6.6991 0.2079,1.9473 0.012,2.1217 -3.6567,3.248 -5.0838,1.5612 -5.7016,1.5106 -6.2328,-0.5103 -0.2459,-0.9361 -0.776,-2.8691 -1.1778,-4.2963 -0.4019,-1.4271 -0.5642,-2.4915 -0.6123,-2.6527 -0.3146,-1.0483 7.7427,-2.4878 9.0815,-2.4878 z m 111.4842,0.6196 c 1.9752,0 2.138,0.5519 1.3232,4.4865 -0.2645,1.2766 -0.8713,2.3116 -1.3485,2.3014 -0.7572,-0.016 -3.3753,-1.0017 -4.2843,-1.6127 -0.1732,-0.1163 0.3158,-1.3287 1.0871,-2.6938 1.0588,-1.8739 1.8477,-2.4814 3.2225,-2.4814 z m -41.9814,0.5905 c 0.246,7e-4 0.3824,0.038 0.3824,0.1167 0,0.3137 -0.4865,1.4997 -1.0812,2.6358 -0.8481,1.6203 -1.8594,2.2774 -4.6894,3.0466 -3.9701,1.0796 -4.6869,0.7077 -4.1765,-2.1677 0.2042,-1.1505 1.2225,-1.7013 5.1014,-2.761 1.9989,-0.5436 3.725,-0.8725 4.4633,-0.8704 z m -32.3761,0.8297 c 0.2538,0.01 0.5523,0.064 0.9164,0.1374 1.0937,0.219 2.1036,0.4897 2.2443,0.6027 0.1411,0.1122 -0.612,2.1253 -1.6733,4.4738 -3.794,8.3937 -3.5532,10.0609 4.617,31.9563 2.8458,7.6266 6.4762,19.7038 6.4884,21.5865 0,0.5958 -0.4917,1.0829 -1.1008,1.0829 -1.8106,0 -3.4521,-1.7421 -3.9535,-4.1966 -1.7297,-8.4685 -6.2912,-23.9549 -9.3349,-31.6937 -3.1143,-7.9179 -3.1789,-9.7738 -0.6661,-19.0665 1.1037,-4.0813 1.3627,-4.9204 2.4625,-4.8828 z m 4.5457,1.216 c 0.5915,0.034 2.8998,0.4074 5.582,0.9101 5.1137,0.9574 5.5736,1.174 5.5736,2.6204 v 5e-4 c 0,1.5556 -0.083,1.5771 -6.2481,1.618 l -6.2476,0.041 0.5209,-2.5205 c 0.2867,-1.3867 0.5896,-2.5845 0.6745,-2.6622 0.01,-0.01 0.06,-0.012 0.1447,-0.01 z m 15.3294,1.0765 c 0.9157,0 1.2535,0.5839 1.2535,2.1662 0,1.1912 -0.349,2.1656 -0.7754,2.1656 -0.4267,0 -0.7748,-0.3478 -0.786,-0.7734 -0.01,-0.4256 -0.2208,-1.4002 -0.478,-2.1661 -0.3436,-1.0231 -0.1356,-1.3923 0.7859,-1.3923 z m 43.5545,0.4791 c 0.099,-0.01 0.054,0.2486 -0.1142,0.758 -0.2805,0.8507 -0.9616,2.3821 -1.5137,3.4032 -0.7617,1.4087 -1.0122,1.5581 -1.0347,0.619 -0.017,-0.6804 0.664,-2.2124 1.5137,-3.4037 0.6537,-0.9164 1.0211,-1.3658 1.1489,-1.3765 z m -15.1277,0.8419 c 0.3697,-0.019 0.8908,0.034 1.6116,0.149 1.3326,0.2125 4.0071,0.3866 5.9438,0.3866 1.9368,0 3.3764,0.1012 3.1988,0.2239 -0.1777,0.123 -2.8528,0.4028 -5.9444,0.6223 -4.8864,0.3476 -5.6216,0.2681 -5.6216,-0.6096 0,-0.5006 0.1957,-0.7389 0.8118,-0.7722 z m -64.0424,0.318 c 0.407,-0.045 1.2037,0.1931 2.5598,0.7353 1.5991,0.6393 3.8674,1.3463 5.04,1.5713 1.1728,0.2252 2.1319,0.6822 2.1319,1.0158 0,0.3337 -0.088,0.5644 -0.1939,0.5113 -0.1066,-0.053 -2.3743,-0.6693 -5.0396,-1.3692 -2.6653,-0.6997 -4.8457,-1.637 -4.8457,-2.082 0,-0.2267 0.1035,-0.3554 0.3475,-0.3825 z m 81.5132,0.3698 c 0.2061,-0.01 0.3511,0.2458 0.5952,0.7537 0.2995,0.623 0.9975,0.9325 1.6507,0.7326 1.7662,-0.541 2.1822,0.697 0.4785,1.4245 -3.7089,1.5849 -5.9133,0.3277 -3.6863,-2.1032 0.4885,-0.5335 0.7558,-0.8005 0.9619,-0.8076 z m -26.5717,0.5102 c 1.6379,0.042 1.6429,0.062 0.1479,0.5752 -2.1342,0.7318 -2.8924,0.7318 -2.3257,0 0.2635,-0.3403 1.2435,-0.5977 2.1778,-0.5752 z m -9.3286,0.6069 c 0.3706,0 0.4755,0.1959 0.1722,0.5874 -0.2634,0.3407 -1.0689,0.6192 -1.79,0.609 -1.13,-0.01 -1.1501,-0.092 -0.1479,-0.609 0.7592,-0.3915 1.3952,-0.5874 1.7657,-0.5874 z m -51,0.01 c 0.4264,0.013 -0.7949,0.526 -2.7139,1.1393 -4.2383,1.3534 -8.3618,2.1902 -7.5322,1.5286 0.6693,-0.5344 9.0143,-2.7057 10.2461,-2.6679 z m 70.5096,0.5757 c 1.6261,0 1.9251,0.3259 2.1319,2.3204 0.1336,1.2876 0.5861,2.1826 1.0162,2.0108 0.4268,-0.1699 0.661,-1.2141 0.5209,-2.3204 -0.2444,-1.9321 -0.1458,-2.0108 2.5194,-2.0108 3.02,0 3.4129,0.6802 1.9111,3.3107 -0.5342,0.9361 -1.754,1.655 -3.1982,1.8858 -1.2841,0.2049 -3.3377,0.3723 -4.5637,0.3723 -2.1252,0 -2.2295,-0.1296 -2.2295,-2.7842 0,-2.5395 0.167,-2.7846 1.8919,-2.7846 z m -5.6945,0.149 c 0.2319,-0.01 0.3851,0.011 0.4374,0.053 0.209,0.1673 0.1377,1.5938 -0.1585,3.1703 -0.4773,2.5394 -0.8847,3.0073 -3.5733,4.102 -3.0849,1.2559 -6.8808,2.5103 -6.8317,2.2571 0.015,-0.077 0.6608,-1.9481 1.4351,-4.1586 1.4004,-3.9983 1.4265,-4.024 5.0776,-4.8467 1.514,-0.3418 2.9178,-0.5597 3.6134,-0.5768 z m -58.8802,0.5292 c 0.8302,-0.031 2.3862,0.4517 5.027,1.433 l 3.9836,1.4805 -0.402,2.8476 c -0.2471,1.7501 0.1083,4.2996 0.9218,6.6136 0.7281,2.0708 1.2093,3.8349 1.0701,3.9187 -0.1395,0.085 -1.1259,-0.052 -2.192,-0.3031 -1.0661,-0.2509 -3.0117,-0.4855 -4.324,-0.5182 l -2.3858,-0.061 -0.9782,-6.0331 c -0.5381,-3.3186 -1.1654,-6.7994 -1.394,-7.7355 -0.2609,-1.0686 -0.1567,-1.6117 0.6735,-1.6422 z m 86.6398,0.075 c 0.1504,0.011 0.3269,0.047 0.5298,0.1088 0.6745,0.2065 1.5471,0.3761 1.9386,0.3761 0.3917,0 0.712,0.8354 0.712,1.8566 0,2.2309 -0.7028,2.3221 -2.5201,0.328 -1.4808,-1.6256 -1.7129,-2.7475 -0.6603,-2.6695 z m -92.5857,0.7527 c 1.4091,0 1.7691,1.7585 2.4292,9.2525 0.478,5.4279 0.4171,5.7796 -1.0532,6.0864 -1.3667,0.2856 -1.6154,-0.048 -2.0072,-2.688 -0.2459,-1.6579 -1.0244,-4.8504 -1.7299,-7.0954 -1.3182,-4.195 -1.1372,-4.7815 1.6892,-5.461 0.2481,-0.059 0.4705,-0.095 0.6719,-0.094 z m 30.249,0.3513 c 3.6247,0 6.5909,0.2483 6.5909,0.5524 0,0.3038 -2.9662,0.5856 -6.5909,0.6265 -3.9922,0.045 -6.5904,-0.173 -6.5904,-0.5526 0,-0.3736 2.6592,-0.6263 6.5904,-0.6263 z m 20.1926,0.1927 c 0.053,0 0.089,0.01 0.104,0.021 0.1191,0.095 -0.6604,2.7871 -1.7319,5.9824 -1.0715,3.1959 -2.0672,5.9062 -2.2132,6.0225 -0.5633,0.4497 -1.1833,-1.8377 -1.6775,-6.191 l -0.5151,-4.5362 2.9606,-0.7253 c 1.4249,-0.3488 2.6974,-0.5831 3.0731,-0.5725 z m -62.6273,0.2467 c 1.2966,0.044 -0.059,0.957 -3.8474,1.9781 -5.7306,1.5447 -5.7667,1.5468 -6.3342,0.3665 -0.3172,-0.6599 0.072,-0.928 1.3449,-0.928 0.9849,0 3.4166,-0.3909 5.404,-0.8678 1.7059,-0.4098 2.8434,-0.5691 3.4327,-0.5488 z m 6.5777,0.7981 c 0.6848,0 2.9136,8.1443 3.1096,11.3621 l 0.1832,3.0081 -6.5904,2.0574 c -2.5729,0.8031 -4.9523,1.4947 -6.3088,1.846 -0.2943,-0.739 -0.8251,-1.3897 -1.6411,-1.7842 -0.2452,-0.1186 -0.4342,-0.1915 -0.6523,-0.2858 -0.1524,-0.3769 -0.3141,-0.7951 -0.4801,-1.2318 3.2866,-1.0111 4.5642,-3.9001 1.0585,-5.002 -2.7659,-0.8694 -1.4499,-0.853 -0.7971,-2.0178 1.0388,-1.8535 -0.8847,-2.6042 -3.5447,-3.4449 -0.021,-0.1467 -0.04,-0.2862 -0.04,-0.3808 0,-0.3075 14.5318,-4.1263 15.7034,-4.1263 z m 92.074,0 c 1.8028,0 3.3395,0.4255 4.1649,1.153 1.2506,1.1028 1.1796,1.1709 -1.6243,1.5408 -1.6128,0.2124 -3.8845,0.3833 -5.048,0.3935 -1.9759,0.01 -2.0571,-0.096 -1.2323,-1.5408 0.7095,-1.2428 1.4451,-1.5465 3.7397,-1.5465 z m -45.0128,0.9819 c 0.3802,0.1609 1.0264,2.7364 1.4885,5.9978 0.4925,3.4773 1.0984,7.1875 1.3458,8.2468 0.369,1.5802 0.1676,1.9825 -1.1282,2.2527 -0.8677,0.1829 -1.7723,0.1759 -2.0103,-0.014 -0.7089,-0.5659 -0.4902,-16.126 0.2319,-16.4825 0.023,-0.011 0.047,-0.011 0.073,-5e-4 z m -4.6952,0.2551 0.2346,8.6647 v 0 c 0.2005,7.4042 0.065,8.6508 -0.9281,8.571 -0.6397,-0.051 -3.3206,-0.5141 -5.9576,-1.0288 l -4.795,-0.9355 -1.6586,-4.9059 c -1.1025,-3.2631 -1.4919,-5.6913 -1.1615,-7.2522 0.4493,-2.1227 0.7681,-2.3821 3.3514,-2.7229 1.5703,-0.2073 4.6688,-0.3733 6.8851,-0.3835 z m 36.3292,1.8661 c 3.1645,0.01 4.1202,0.1837 3.2949,0.6096 -1.5357,0.792 -7.7534,0.792 -7.7534,0 0,-0.3421 1.9953,-0.6198 4.4585,-0.6096 z m 21.905,0.9186 v 2.5438 c -8e-4,0.1339 -0.01,0.2657 -0.01,0.3989 -3.7969,2.7164 -4.7917,5.4743 -2.1187,6.1735 1.3825,0.3614 1.4572,0.5586 0.4918,1.3 -0.151,0.1158 -0.3008,0.2583 -0.4442,0.4135 h -3.4084 c -2.4756,0 -4.6458,-0.2088 -4.8226,-0.4642 -0.1767,-0.2551 0.031,-2.6001 0.4606,-5.2102 l 0.7822,-4.7454 4.5347,-0.2049 z m -12.1623,0.3095 c 1.4065,0 1.4816,0.2999 1.0046,4.0144 -0.2833,2.2079 -0.7176,4.4355 -0.9651,4.9508 -0.479,0.9958 -2.2629,1.266 -2.9029,0.4395 -0.2115,-0.2729 0,-2.5006 0.4796,-4.9498 0.7325,-3.7774 1.0947,-4.4549 2.3838,-4.4549 z m -14.2012,1.2376 h 4.3328 4.3323 l -0.5356,2.6299 c -0.2947,1.4467 -0.7614,2.8245 -1.0374,3.0625 -0.2758,0.2376 -1.9843,0.6216 -3.7967,0.8526 l -3.2954,0.4204 v -3.483 z m -4.2986,1.2376 c 0.9185,0 0.3905,5.6151 -0.5471,5.8186 -0.5332,0.1162 -3.0625,0.7294 -5.6212,1.3633 -2.5587,0.634 -5.0467,1.2407 -5.5287,1.3485 -0.6004,0.1336 -0.5046,-0.8698 0.3032,-3.1855 l 1.1789,-3.3816 4.8964,-0.9814 c 2.6928,-0.5398 5.0863,-0.9819 5.3185,-0.9819 z m 7.8739,6.8296 c 2.9874,-0.021 3.1646,0.075 2.8175,1.5244 v 0 c -0.459,1.9144 -0.7772,1.9164 -3.679,0.018 l -2.3261,-1.5222 z m -8.8684,0.5885 c 0.4354,0.01 0.6412,0.1054 0.6412,0.2958 0,0.4 -2.9656,1.4369 -6.5903,2.304 -3.6246,0.8676 -6.5905,1.3294 -6.5905,1.0263 0,-0.6497 1.7663,-1.2579 8.335,-2.8687 2.1148,-0.519 3.4788,-0.7676 4.2046,-0.7574 z m -54.2146,0.017 c 2.1087,0.021 7.8849,1.6967 8.166,2.3696 0.164,0.3932 0.01,0.6634 -0.3482,0.6 -0.3553,-0.062 -2.4774,-0.2169 -4.7163,-0.3417 -3.4196,-0.1907 -4.0708,-0.4199 -4.0708,-1.4325 0,-0.6627 0.4361,-1.2056 0.9693,-1.1954 z m -6.0274,0.6709 c 1.6393,-0.039 -1.4785,1.2358 -9.918,3.5807 -4.4884,1.2472 -6.8668,1.9142 -8.1982,2.2148 0.094,-0.4529 0.1179,-0.9363 0.06,-1.4162 1.3507,-0.5205 3.4011,-1.1545 5.862,-1.7864 6.7654,-1.7362 10.9185,-2.5623 12.1935,-2.5929 z m 77.5691,0.5572 h 1.9538 l -1.582,2.4752 c -1.9183,3.0013 -3.504,3.3065 -2.8111,0.5414 0.2667,-1.0638 0.4849,-2.1775 0.4849,-2.4751 0,-0.2979 0.8795,-0.5415 1.9544,-0.5415 z m 3.7666,0 c 1.4472,0 4.3587,1.3522 4.3587,2.0247 0,0.4496 -1.3397,1.8624 -2.977,3.138 -2.5603,1.9952 -3.1107,2.191 -3.9334,1.4002 -0.7705,-0.7411 -0.6521,-1.4695 0.6073,-3.7417 0.86,-1.5515 1.7349,-2.8212 1.9444,-2.8212 z m -16.1883,0.042 2.8839,1.9898 c 2.6402,1.8221 2.8346,2.1737 2.2987,4.1564 -0.5048,1.8689 -0.928,2.1927 -3.0831,2.36 -3.0913,0.2405 -3.4365,-0.3999 -2.6827,-4.9688 z m 23.5281,0.6545 c 0.089,0 0.1859,0.014 0.2832,0.033 -0.031,0.086 -0.055,0.17 -0.072,0.2488 -0.05,0.2423 -0.2208,0.5621 -0.4347,0.8959 -0.3271,-0.3698 -0.4666,-0.8139 -0.1732,-1.048 0.1041,-0.083 0.2415,-0.1235 0.3966,-0.1289 z m -89.21,1.0173 c 1.3006,-0.1036 1.5895,1.3383 2.2037,7.1054 l 0.5107,4.796 -4.1791,3.5576 c -2.2986,1.9559 -4.3552,3.6008 -4.57,3.653 -1.1239,0.276 -5.4317,-1.1656 -5.4205,-1.8149 0.053,-3.9779 7.3265,-15.9032 10.3766,-17.0124 0.4244,-0.1542 0.7785,-0.2607 1.0786,-0.2847 z m 60.8837,0.1464 c 0.6943,0 -0.1302,5.6461 -0.9138,6.2596 -1.1152,0.8729 -4.7521,1.1794 -4.7633,0.401 0,-0.4319 -0.2204,-1.8079 -0.4791,-3.0568 -0.4584,-2.2124 -0.3928,-2.2887 2.5279,-2.9356 1.6493,-0.3658 3.2822,-0.6682 3.6283,-0.6682 z m -54.7545,0.059 c 0.3042,-0.016 0.7889,0.057 1.5102,0.196 8.0791,1.5591 7.9397,1.4918 8.831,4.2457 0.4647,1.4366 0.991,3.0291 1.1694,3.5395 0.2384,0.6819 -1.0909,1.2723 -5.0063,2.2237 l -5.3306,1.2957 -0.5156,-4.6989 c -0.2837,-2.5844 -0.7073,-5.2242 -0.9411,-5.8663 -0.2304,-0.6325 -0.2239,-0.9082 0.283,-0.9354 z m 17.5712,0.8457 c 0.5882,-0.027 2.4966,0.3636 4.6064,0.9555 2.4113,0.6763 4.9165,1.2296 5.5667,1.2296 0.6504,0 1.1821,0.4179 1.1821,0.9281 0,0.5106 -0.088,0.8961 -0.1938,0.8583 -0.1066,-0.039 -2.4322,-0.5866 -5.1685,-1.2175 -4.8025,-1.1067 -6.9767,-2.0655 -6.1609,-2.7165 0.027,-0.021 0.084,-0.034 0.168,-0.038 z m 16.4598,0.947 c 0.6753,0 1.0895,0.3311 0.9207,0.7353 -0.4792,1.1479 -2.1482,1.338 -2.1482,0.2451 0,-0.5389 0.5524,-0.9804 1.2275,-0.9804 z m 11.6162,0 c 1.7577,0 1.5306,5.3292 -0.2445,5.7368 -0.7462,0.171 -1.9113,0.4948 -2.5893,0.7189 -1.8815,0.6229 -3.2571,-1.1344 -2.641,-3.373 0.5089,-1.8491 2.6992,-3.0827 5.4748,-3.0827 z m -58.6446,0.1352 c 0.5022,-0.026 0.012,1.1946 -1.3564,3.3595 -1.2755,2.0159 -3.0836,5.6744 -4.018,8.13 -0.9345,2.4557 -1.9712,4.4649 -2.3036,4.4649 -0.7936,0 -4.1419,-11.5922 -3.6462,-12.6234 0.2105,-0.4371 2.5767,-1.2867 5.2588,-1.8873 2.682,-0.6011 5.3601,-1.2404 5.9518,-1.4215 0.042,-0.013 0.08,-0.02 0.1136,-0.023 z m 93.5708,0.5911 c -0.2391,0.4601 -0.079,0.8542 0.4316,1.4689 0.4034,0.4859 1.1621,0.9914 1.9036,1.3084 -0.5014,0.3526 -1.0857,0.6587 -1.6178,0.8203 -0.9988,0.3031 -2.0447,0.8464 -2.3247,1.208 -0.2797,0.361 -0.9908,0.6566 -1.5803,0.6566 -2.3541,0 -1.9793,-1.4957 0.9639,-3.8448 0.9695,-0.7737 1.661,-1.2899 2.2237,-1.6174 z m -42.3131,0.4389 c 0.096,0 0.1894,0.042 0.2794,0.1141 0.184,0.1472 -0.6837,2.6128 -1.9285,5.4785 -2.4603,5.6653 -3.0323,6.5184 -3.0323,4.5209 0,-0.7175 0.325,-1.4649 0.7225,-1.6606 0.3975,-0.1963 1.1505,-1.9529 1.6733,-3.904 0.7957,-2.9689 1.6119,-4.5791 2.2856,-4.5489 z m 31.2257,1.3105 c 0.4063,0 0.4789,1.2585 0.1706,2.9395 -0.53,2.887 -1.2909,4.1971 -2.0748,3.5717 -0.6346,-0.5069 1.1213,-6.5112 1.9042,-6.5112 z m -50.1596,0.1173 c 1.2083,-0.1105 7.6287,1.657 9.0132,2.5317 0.8641,0.5457 1.2976,2.3367 1.5688,6.4783 l 0.3745,5.7242 h -2.8607 -2.8608 l -2.8845,-7.1979 c -1.5864,-3.9586 -2.7201,-7.3286 -2.5195,-7.4888 0.031,-0.025 0.088,-0.04 0.169,-0.048 z m 52.686,1.4837 1.7177,1.9248 c 0.9446,1.059 1.7168,2.3001 1.7056,2.7577 -0.023,1.6704 -1.0695,2.2414 -2.8956,1.5825 -1.7864,-0.6446 -2.0617,-1.8767 -1.0591,-4.7453 z m -120.319,0.05 c 0.5632,0.035 2.7467,2.1402 6.9564,6.3416 6.5648,6.5516 12.629,9.4369 17.9229,10.6976 1.2319,4.1618 1.4748,5.261 2.3042,8.0149 -9.6647,-2.1073 -19.669,-10.6648 -24.42,-18.9687 -2.2699,-4.083 -3.3268,-6.1199 -2.7635,-6.0854 z m 130.9586,1.5102 c 0.5778,-0.036 0.6291,0.5216 0.2878,2.1697 -0.2735,1.322 -0.4942,3.0307 -0.5055,3.7962 0,0.7658 -0.2928,1.3924 -0.6401,1.3924 -1.1415,0 -0.5884,-6.9982 0.5778,-7.3083 0.1045,-0.028 0.1974,-0.045 0.28,-0.05 z m -22.5622,0.6897 c 0.1997,0 0.4239,0.014 0.6772,0.031 2.5113,0.1623 2.5773,0.2835 1.8989,3.4887 -0.4038,1.907 -0.9008,2.4626 -2.4107,2.6928 -2.462,0.3756 -2.7338,-0.065 -2.1462,-3.4877 0.3976,-2.3151 0.5832,-2.7419 1.9808,-2.7245 z m -7.119,0.1881 c 0.8119,-0.015 0.7833,0.5989 0.6116,2.9616 -0.1777,2.4469 -0.5468,3.2456 -1.5714,3.4011 -1.0305,0.1561 -1.455,-0.3744 -1.8413,-2.3024 -0.6579,-3.2836 -0.6128,-3.3869 1.6829,-3.8771 0.4832,-0.1031 0.8474,-0.1782 1.1182,-0.1832 z m -13.9324,0.2926 c 0.6463,0 5.0287,7.9554 4.5462,8.2521 -0.1727,0.1065 -2.1231,0.799 -4.3344,1.5397 -4.6676,1.5627 -5.1061,1.6165 -4.7343,0.5731 2.0262,-5.6853 4.0683,-10.3649 4.5225,-10.3649 z m 40.41,0 c 0.5328,0 0.6658,0.7141 0.3603,1.9333 -0.2665,1.0637 -0.4844,2.4559 -0.4844,3.0942 0,0.7624 -0.5532,1.1604 -1.6126,1.1604 -1.4131,0 -1.5455,-0.2482 -1.0712,-2.0108 0.7036,-2.6165 1.7528,-4.1771 2.8079,-4.1771 z m -33.1372,0.3898 c 0.4006,0 0.6978,0.05 0.7859,0.1638 0.1897,0.2451 0.5852,1.891 0.8789,3.6583 0.4793,2.8835 0.3844,3.2114 -0.9228,3.2114 -1.0069,0 -1.9239,-0.9089 -2.9705,-2.9394 -0.8324,-1.615 -1.4362,-3.0764 -1.3421,-3.2468 0.2328,-0.4194 2.3685,-0.8501 3.5706,-0.8473 z m -34.723,2.9099 c 0.7885,-0.01 1.2039,0.7834 1.8377,3.2204 0.4977,1.9135 0.7871,3.557 0.6433,3.6531 -0.1441,0.096 -1.7036,0.3501 -3.466,0.5651 l -3.2046,0.3914 -0.8663,-2.745 c -1.1849,-3.7559 -1.1529,-3.8645 1.2661,-4.3249 1.1727,-0.2233 2.7151,-0.544 3.4275,-0.712 0.1296,-0.031 0.2497,-0.047 0.3623,-0.048 z m 56.1304,0.3571 c 1.9894,0.1012 6.1784,1.8704 6.1784,2.9051 0,0.989 -1.6196,1.0171 -5.2339,0.092 -2.5289,-0.6475 -3.0156,-1.3604 -1.892,-2.7715 0.1463,-0.1838 0.4885,-0.2489 0.9475,-0.2255 z m -65.1626,1.4166 c 0.059,8e-4 0.122,0.01 0.188,0.028 1.145,0.3047 2.4874,4.4374 1.863,5.7357 -0.7297,1.5174 -1.8172,1.0452 -2.3331,-1.0136 -0.7283,-2.9064 -0.607,-4.7609 0.2821,-4.7496 z m -6.0585,0.5821 c 0.3648,0.033 -0.167,0.885 -1.7663,2.5432 -2.1275,2.206 -2.9763,4.178 0.3629,1.5963 2.546,-1.8719 2.189,-2.6016 3.0688,0.5826 0.2989,1.0817 -0.1212,1.6146 -1.8307,2.3204 -2.7881,1.1503 -2.4733,1.1938 -4.6328,-0.6407 l -1.8318,-1.5566 3.017,-2.4657 c 1.9869,-1.6239 3.248,-2.4119 3.6129,-2.3795 z m 80.8883,1.7885 c 1.2793,0 2.8496,0.2703 3.4893,0.6005 0.8924,0.4603 0.6216,0.5996 -1.1631,0.5996 -1.2793,0 -2.8498,-0.2698 -3.4894,-0.5996 -0.8923,-0.4605 -0.6213,-0.6005 1.1632,-0.6005 z m -10.5942,0.6327 c 0.8338,0 1.9114,0.2879 2.8861,0.8764 v 0 c 1.4106,0.8515 1.3225,0.9097 -1.4023,0.9281 -2.0785,0.014 -2.9073,-0.2448 -2.9073,-0.9081 0,-0.5924 0.5898,-0.8911 1.4235,-0.8948 z m -7.5749,1.2054 c 1.2905,0 1.5546,0.3309 1.357,1.7013 -0.1805,1.2523 -0.7348,1.7575 -2.098,1.9111 -1.6057,0.1814 -1.7881,0.015 -1.3675,-1.2376 0.2669,-0.7959 0.4846,-1.6556 0.4959,-1.9111 0.01,-0.2551 0.7314,-0.4637 1.6126,-0.4637 z m -7.3214,0.6914 c 0.6028,-0.01 1.067,0.1427 1.067,0.5034 0,0.3637 -0.3199,0.6613 -0.7115,0.6613 -0.3917,0 -1.3118,0.1838 -2.0447,0.4083 -0.9348,0.2864 -1.2243,0.1483 -0.9713,-0.4637 0.2661,-0.6447 1.6557,-1.0964 2.6605,-1.1093 z m 13.8167,1.0691 c 0.4473,0.029 1.1994,0.6248 1.4314,1.3332 0.3065,0.9351 0.024,1.2376 -1.1557,1.2376 -1.1058,0 -1.4232,-0.2854 -1.0902,-0.9783 0.2589,-0.5387 0.4706,-1.0955 0.4706,-1.2381 0,-0.2638 0.1405,-0.3676 0.3439,-0.3544 z m -25.5427,0.024 -1.9386,0.9418 c -2.1551,1.0471 -4.6449,1.3429 -3.4502,0.4104 0.4051,-0.3166 1.7832,-0.7499 3.0625,-0.9634 z m 6.641,0.071 c 1.4342,0 0.6845,1.0538 -1.2502,1.7573 -2.4356,0.8855 -3.4524,0.9102 -3.4524,0.084 0,-0.6031 3.1618,-1.8413 4.7026,-1.8413 z m 26.4666,0 c 3.9328,0 4.5889,0.1535 4.1918,0.9793 -0.2589,0.5383 -0.4707,1.0951 -0.4707,1.2371 0,0.1425 -1.7036,0.2588 -3.7861,0.2588 -3.1342,0 -3.8561,-0.2129 -4.1918,-1.2376 -0.3723,-1.1362 -0.024,-1.2376 4.2568,-1.2376 z m 6.8228,0 c 0.4263,0 0.7754,0.4178 0.7754,0.9281 0,0.5105 -0.3491,0.9285 -0.7754,0.9285 -0.4264,0 -0.7754,-0.418 -0.7754,-0.9285 0,-0.5103 0.349,-0.9281 0.7754,-0.9281 z m -98.6654,0.037 c 1.6698,0.038 4.2042,0.4259 6.3601,1.0854 3.9088,1.1955 5.7247,3.2046 7.3129,8.0915 1.537,4.7287 -0.244,4.0135 -2.8628,-1.1504 -2.4026,-4.7369 -5.369,-6.8264 -9.6905,-6.8264 -1.3104,0 -2.598,-0.2783 -2.8617,-0.6186 -0.3324,-0.4293 0.4433,-0.6113 1.742,-0.5815 z m 46.3296,0.5821 c 1.7966,0 2.7133,0.2897 2.7133,0.8577 0,0.8202 -4.2366,1.7428 -5.0443,1.0987 -1.256,-1.0025 -0.1195,-1.9564 2.331,-1.9564 z m -15.2022,0.6185 c 2.0533,0 3.184,0.8969 3.184,2.5259 0,0.3124 -0.2618,0.5342 -0.5816,0.4964 -4.783,-0.5905 -6.8769,-3.0223 -2.6024,-3.0223 z m -5.8598,0.4685 c 2.2546,0 2.8046,0.7924 2.8306,3.3989 0.01,0.8229 -0.6294,1.0834 -2.6573,1.0834 -2.8952,0 -3.0805,-0.1252 -3.81,-2.566 -0.4587,-1.5342 -0.2978,-1.6513 2.5629,-1.8693 0.395,-0.031 0.7516,-0.047 1.0738,-0.047 z m -25.4219,0.1416 c 0.2096,0 0.4552,0.01 0.7348,0.01 3.1785,0 6.9898,3.4577 8.8558,8.035 l 1.6363,4.0128 -1.704,1.0263 c -2.6857,1.6169 -6.071,3.1218 -6.071,2.699 0,-0.2114 -0.8424,-3.0814 -1.8721,-6.3775 -2.7482,-8.796 -3.0466,-9.3923 -1.5798,-9.404 z m 58.2311,0.086 c 0.9324,-0.042 1.0459,0.4447 1.0459,1.6554 0,1.3994 -0.4937,1.8742 -2.5751,2.4747 -3.5226,1.0168 -3.6276,0.986 -3.6276,-1.0527 0,-1.4583 0.4589,-1.9239 2.4413,-2.4757 1.3015,-0.362 2.156,-0.5767 2.7155,-0.6017 z m 11.3896,0.01 c 1.1153,-0.045 1.2862,0.3949 1.2862,1.3743 0,1.2037 -0.7641,1.6949 -4.3334,2.7852 -5.1397,1.5694 -4.9704,1.5546 -4.9704,0.4458 0,-0.4826 -0.1863,-1.2643 -0.4135,-1.7372 -0.2902,-0.6028 0.8284,-1.1711 3.7512,-1.9068 2.3741,-0.5972 3.8125,-0.9263 4.6799,-0.9613 z m -52.6664,1.1514 c 0.964,0 2.9482,6.6568 2.2591,7.5802 -0.5589,0.7491 -2.604,0.5323 -2.9178,-0.3095 -0.1584,-0.4252 -0.7921,-2.0828 -1.4077,-3.6826 -1.1639,-3.0252 -0.8397,-3.5881 2.0664,-3.5881 z m 80.0072,0.6903 c 1.4979,0.025 2.6336,0.2502 2.6336,0.5478 0,0.6917 -0.8607,0.6917 -4.2648,0 -2.183,-0.4431 -2.1233,-0.4771 0.9693,-0.5456 0.2265,0 0.4479,-0.01 0.6619,0 z m -50.2864,0.5473 c 2.2713,0 2.304,0.049 2.7926,4.177 0.2718,2.2973 0.4997,4.8032 0.4997,5.5688 0.01,1.4099 -1.8085,1.9355 -2.7012,0.7828 -0.2597,-0.3356 -0.7732,-2.076 -1.141,-3.8675 -0.3677,-1.7919 -0.9117,-4.0234 -1.2085,-4.9593 -0.4981,-1.5706 -0.3624,-1.7018 1.7584,-1.7018 z m 29.4996,0.3042 c 0.8043,-0.039 1.7108,0.9004 1.7108,2.2369 0,1.3779 -0.3574,1.7907 -1.5509,1.7907 -1.5743,0 -2.0309,-1.376 -1.0991,-3.314 0.2289,-0.476 0.5735,-0.696 0.9392,-0.7136 z m 7.6731,0.5536 c 0.4765,0.019 1.5177,0.1025 2.687,0.2192 l 2.8343,0.282 -1.1626,2.724 c -0.6398,1.498 -1.2176,2.7034 -1.284,2.6748 -0.066,-0.027 -1.1119,-0.3367 -2.323,-0.6893 -2.0269,-0.5888 -2.1597,-0.819 -1.675,-2.8903 0.2897,-1.2377 0.5828,-2.2795 0.6513,-2.3173 0.017,-0.01 0.1132,-0.01 0.272,0 z m -52.0141,0.4479 c 0.4256,0.01 0.9904,0.089 1.7224,0.2176 2.3258,0.4073 3.2038,1.6347 3.2253,4.5098 0.011,1.5281 -0.1984,1.5739 -3.2057,0.6946 -1.513,-0.4429 -2.1888,-1.1791 -2.5697,-2.7995 -0.4727,-2.0105 -0.4491,-2.6466 0.8277,-2.6225 z m 59.2278,0.052 c 0.6955,0.014 2.2288,0.1453 3.9567,0.3438 2.5615,0.2942 4.1585,0.7781 4.1115,1.246 -0.043,0.4205 -0.1294,2.0181 -0.1938,3.5496 -0.132,3.1616 -0.6365,3.3069 -6.1028,1.762 l -3.2723,-0.9248 0.4739,-2.8941 c 0.2608,-1.5918 0.5464,-2.9677 0.6343,-3.0567 0.023,-0.022 0.1606,-0.031 0.3925,-0.026 z m -32.0777,1.1171 c 0.1611,0 0.2932,1.3319 0.2932,2.9606 0,2.6116 -0.2654,3.0859 -2.2518,4.0217 -3.4468,1.6254 -3.9509,1.3672 -3.9509,-2.0236 0,-2.9614 0.1131,-3.1239 2.8084,-4.0228 1.5446,-0.5148 2.94,-0.9359 3.1011,-0.9359 z m 10.5904,0.091 c 0.5775,0.03 0.5573,0.4008 0.5573,1.1458 0,0.681 -0.1612,1.2381 -0.3587,1.2381 -0.1973,0 -2.1162,0.5529 -4.2642,1.2286 l -3.9055,1.2281 v -1.4664 c 0,-1.2105 0.6695,-1.6412 3.8284,-2.4661 2.39,-0.624 3.5651,-0.9373 4.1427,-0.9081 z m 10.1441,0.7417 c 0.07,0.01 0.1544,0.1034 0.2472,0.2883 h -10e-4 c 0.2248,0.447 0.1973,0.9809 -0.06,1.1864 -0.2578,0.2057 -0.4399,-0.1602 -0.4072,-0.8124 0.023,-0.4506 0.1038,-0.6765 0.2213,-0.6623 z m -55.7696,0 c 0.2761,0.014 0.6124,0.059 1.0189,0.13 3.5069,0.6134 4.0708,0.8199 4.0708,1.4879 v 0 c 0,0.827 -2.0881,0.8225 -2.7329,-0.01 -0.2744,-0.3546 -1.1673,-0.4749 -1.9844,-0.2678 -1.0375,0.2627 -1.4853,0.081 -1.4853,-0.6058 0,-0.5614 0.2846,-0.7832 1.1129,-0.739 z m 49.203,3.3113 c 1.0721,-0.043 3.1066,0.4895 5.8187,1.2751 -0.5706,0.217 -1.1807,0.468 -1.8339,0.7579 -12.8085,5.6854 -18.434,7.1741 -27.2848,7.1741 -9.2771,0.01 -25.9258,-3.2667 -31.0044,-6.1018 -0.2411,-0.1346 -0.4436,-0.2411 -0.6639,-0.3608 4.9448,-2.1758 4.564,-1.7931 14.5762,0.9059 5.6495,1.5229 12.4693,3.1618 15.1768,3.5902 4.6558,0.7361 5.0767,0.7024 7.7535,-0.618 3.8917,-1.9192 16.2485,-6.5735 17.4618,-6.6226 z" fill="#00B894" transform="translate(-48.382202,-30.629183) translate(-2777.232,-2891.4095)"/>
</svg>