<?xml version="1.0" ?><svg height="196.63028mm" viewBox="0 0 271.93311 196.63028" width="271.93311mm" xmlns="http://www.w3.org/2000/svg">
    <path d="m 115.0257,17700.941 c 26.7367,-30.456 14.7706,-33.485 108.4424,-41.562 82.81077,-5.714 162.39405,-7.163 239.95264,-36.765 0,0 -16.71074,-58.642 32.83626,-88.93 49.547,-30.288 106.1988,-2.692 116.2952,2.692 10.0964,5.385 47.8642,64.615 47.8642,64.615 0,0 60.5783,-22.043 93.8589,-24.231 33.2806,-2.187 77.7793,7.572 77.7793,7.572 0,0 18.1361,-60.071 42.4422,-75.383 24.3061,-15.312 73.1052,-28.85 109.0034,-2.769 35.8982,26.081 38.1419,65.701 35.8982,86.229 -2.2438,20.529 -16.0796,91.705 5.609,127.041 21.6886,35.336 51.2299,99.95 10.8444,137.137 -40.3856,37.187 -77.0317,44.086 -98.7202,39.374 -21.6885,-4.711 -38.6576,1.657 -38.6576,1.657 l 7.9946,43.102 -50.2948,-69.157 c 0,0 -8.6007,79.085 -17.2012,102.81 -8.6006,23.726 -4.3545,115.377 -11.0313,132.762 -6.6768,17.385 27.055,43.471 7.6658,50.143 -19.3893,6.673 -47.8642,-40.215 -54.0342,-86.152 -6.17,-45.936 16.8273,-98.604 10.8442,-128.892 -5.9831,-30.288 -40.9463,-80.599 -40.9463,-80.599 l -28.0456,91.2 c 0,0 -18.8838,44.591 -51.7905,74.71 -32.9068,30.12 -153.3153,64.615 -219.1286,70.167 -65.8133,5.553 -244.9304,-3.365 -299.7125,-90.695 -54.7822,-87.33 -97.5982,-206.295 -37.7679,-306.076 z" fill="#FFFFFF" transform="translate(30.133215,-49.851516) matrix(0.26458333,0,0,0.26458333,-41.299011,-4575.8669)"/>
    <path d="m 517.58984,18220.734 c -3.1559,-4.857 -3.4502,-9.384 -2.6368,-40.572 1.5281,-58.59 1.256,-83.217 -0.9155,-82.875 -1.1021,0.174 -14.8017,2.661 -30.4436,5.53 -15.6421,2.869 -38.182,5.996 -50.0888,6.951 -34.4955,2.768 -105.0535,-1.145 -125.0193,-6.933 -2.8044,-0.814 -3.3403,3.348 -4.3995,34.173 -1.4099,41.031 -2.8943,46.116 -13.4626,46.116 -6.2113,0 -7.2221,-0.77 -9.2146,-7.013 -2.71936,-19.019 0.91957,-37.984 1.5393,-57.014 l 0.6811,-21.953 -20.0354,-7.364 c -11.0194,-4.051 -21.761,-8.075 -23.87,-8.942 -3.7247,-1.533 -3.7965,-0.484 -2.5077,36.58 1.5116,43.463 -0.2414,91.517 -3.4873,95.601 -4.4139,5.555 -10.8528,5.704 -16.1832,0.373 -8.01553,-5.444 -5.053,-47.289 -5.0572,-63.737 0,-32.282 -0.5817,-64.702 -1.2752,-72.042 l -1.2609,-13.348 -17.2576,-11.536 c -18.7043,-12.504 -52.1152,-44.942 -68.6141,-66.619 -11.6065,-15.249 -33.238804,-58.47 -40.005604,-79.931 -2.5111,-7.964 -4.8791,-14.167 -5.2623,-13.784 -1.3022,1.303 -6.5265,80.268 -6.5425,98.889 -0.017,18.255 0.057,18.533 4.8149,18.533 11.2836,0 31.973604,36.879 28.485904,50.775 -2.6182,10.432 -17.288304,7.214 -17.288304,-3.791 0,-5.707 -7.9596,-31.678 -9.2983,-30.34 -0.5519,0.553 0.7892,7.177 2.9804,14.72 6.126,21.091 6.9629,29.117 3.5194,33.751 -5.1598,6.944 -9.8343,1.646 -12.9834,-14.717 -1.5176,-7.884 -3.4743,-14.334 -4.3486,-14.334 -0.8742,0 -2.2059,6.086 -2.9593,13.524 -1.6977,16.761 -5.018,22.54 -12.9497,22.54 -6.792,0 -10.0421,-4.538 -10.0421,-14.021 0,-7.506 9.1826,-52.742 11.7035,-57.656 0.9754,-1.901 2.3225,-16.529 2.9936,-32.508 1.5264,-36.339 6.2396,-81.233 10.6698,-101.628 2.4971,-11.497 3.2451,-23.191 2.8549,-44.631 -0.9181,-50.453 5.9984,-78.805 28.1951,-115.572 15.210304,-25.195 24.409404,-36.151 37.303304,-44.425 21.1014,-13.54 41.3488,-17.522 108.638,-21.362 77.50837,-1.544 138.88,-14.325 181.7573,-22.96 9.5788,-6.665 19.95362,-3.165 15.38692,6.401 -3.957,8.289 -20.37052,12.146 -36.86042,17.524 -23.2313,7.575 -92.4486,16.939 -149.2643,20.193 -56.9024,3.259 -81.4738,6.754 -96.0108,13.659 -15.8573,7.531 -23.1803,15.1 -36.4886,37.712 -22.2809,37.858 -26.782704,54.637 -26.782704,99.814 0,31.123 2.4563,47.537 11.165804,74.612 8.0239,24.944 27.4018,62.541 40.6821,78.93 20.302,25.057 57.9994,59.522 62.2383,56.903 0.8508,-0.526 2.0508,-5.841 2.6669,-11.81 1.8425,-17.853 9.1507,-27.955 15.0616,-20.82 2.3219,2.802 6.43,29.54 6.43,41.849 v 7.998 l 16.5608,7.761 c 37.1776,17.422 78.5075,25.9 133.7052,27.427 41.1049,1.138 59.021,-0.457 107.4314,-9.557 l 22.2807,-4.188 1.1722,-9.896 c 1.4058,-11.87 2.4357,-13.81 7.3332,-13.81 3.99,0 12.0485,8.812 12.0485,13.176 0,5 3.6141,4.73 27.2858,-2.041 67.6115,-19.336 99.7748,-38.046 118.973,-69.208 9.3208,-15.129 16.5884,-24.073 19.5615,-24.073 5.54,0 9.4798,6.103 9.276,14.366 -0.3492,14.153 -7.8846,27.064 -26.7034,45.753 -17.9735,17.848 -33.9809,28.429 -56.8771,37.593 l -13.6704,5.471 1.1328,8.014 c 1.3102,9.269 -9.835,87.563 -13.547,95.17 -1.692,3.466 -4.3705,5.197 -8.701,5.621 -8.1312,0.798 -12.6523,-5.39 -12.6523,-17.315 0,-9.368 8.5975,-62.724 11.9959,-74.446 1.1159,-3.85 2.029,-7.333 2.029,-7.741 0,-1.212 -9.7727,0.893 -31.5558,6.798 l -20.5364,5.568 v 28.269 c 0,36.712 -3.5002,90.779 -6.3379,97.9 -2.1371,5.365 -7.1105,9.441 -11.5161,9.441 -2.56147,-1.403 -4.3336,-3.49 -5.6405,-5.466 z m 298.628,-56.783 c -18.1506,-8.984 -34.3146,-32.699 -43.1966,-63.375 -5.8132,-20.078 -5.7229,-52.756 0.267,-96.502 4.8545,-35.454 5.2339,-58.888 1.31,-80.895 -3.1598,-17.723 -12.6396,-47.6 -15.1029,-47.6 -0.9081,0 -2.2441,4.733 -2.969,10.518 -2.4407,19.479 -15.4194,80.618 -17.6982,83.372 -3.6024,4.354 -9.9527,5.889 -15.8485,3.834 -10.6548,-3.713 -22.9011,-38.84 -28.4485,-81.596 -1.7734,-13.67 -3.4399,-25.029 -3.703,-25.242 -0.2633,-0.215 -5.0574,-0.808 -10.6536,-1.321 l -10.1748,-0.931 -5.4527,10.413 c -18.8273,35.96 -57.8658,48.082 -95.0569,29.517 -12.456,-6.218 -31.093,-25.275 -40.0794,-40.981 -9.8529,-17.22 -12.3679,-30.49 -12.3679,-65.254 0,-16.913 -1.0182,-34.981 -2.2626,-40.151 -2.6792,-11.135 -12.4004,-31.825 -31.7181,-67.506 -14.6634,-27.084 -30.1328,-69.071 -30.1328,-81.787 0,-42.83 32.9638,-82.74 75.6949,-91.645 26.0404,-5.426 66.79954,-1.905 92.13904,12.946 16.1883,9.486 39.55417,37.228 38.26627,50.555 0.24327,13.218 -10.05336,9.427 -12.92767,4.357 -19.01007,-32.437 -51.44681,-52.826 -89.10894,-53.708 -34.348,0 -63.4152,16.394 -77.1581,43.516 -5.1267,10.119 -5.8662,13.734 -5.8515,28.612 0.021,20.819 5.6515,36.214 27.1155,74.131 19.2608,34.026 33.0993,63.078 35.7878,75.133 1.2287,5.51 2.4508,26.697 2.7155,47.084 0.4387,33.777 0.887,37.945 5.0528,46.981 8.1885,17.76 19.6559,30.504 33.6435,37.389 11.3056,5.566 14.2161,6.165 26.5553,5.468 16.1559,-0.912 24.8291,-5.839 38.2039,-21.701 l 8.2094,-9.736 -13.9008,-9.241 c -25.1941,-16.749 -46.9284,-44.06 -57.8688,-72.719 -4.5146,-11.826 -5.1687,-16.625 -5.255,-38.552 -0.1603,-40.742 8.636,-66.756 34.0001,-100.552 28.9223,-38.536 55.732,-55.649 101.3924,-64.722 39.7535,-7.9 87.76973,-2.874 113.7042,5.178 5.26554,1.635 6.61264,0.1 7.56547,-4.201 9.21536,-33.194 29.67147,-63.142 57.22421,-77.346 25.3249,-12.754 46.4597,-15.627 71.5113,-9.722 52.23408,12.313 82.36348,62.841 74.62008,125.142 -7.276,58.542 -5.1125,75.97 14.8643,119.732 18.4874,40.499 20.9059,48.881 20.8548,72.287 -0.092,41.859 -19.1372,71.48 -58.551,91.059 -15.71029,7.804 -21.54219,9.574 -38.17278,11.589 -10.7961,1.307 -23.739,1.813 -28.7619,1.125 -11.3513,-1.557 -24.3077,-8.64 -25.877,-14.149 -3.5104,-12.323 -6.7366,-11.019 27.3046,-11.034 34.5714,-0.01 50.05389,-4.349 71.56858,-20.036 16.4132,-11.969 30.4927,-40.658 30.4927,-62.132 0,-15.703 -3.9059,-29.167 -17.94,-61.841 -6.6688,-15.525 -13.5947,-34.36 -15.3906,-41.852 -3.7765,-15.754 -4.5238,-50.27 -1.9649,-90.759 2.9385,-33.99 -4.402,-61.249 -26.82449,-82.993 -15.18839,-14.488 -32.26329,-20.098 -57.17709,-18.791 -42.71319,2.054 -71.14389,40.185 -84.07598,67.505 -5.8673,12.525 -5.9113,12.851 -2.0277,15.027 11.00633,8.124 20.18117,17.831 30.6891,26.716 12.69088,10.693 33.37918,37.952 40.71248,53.645 17.475,37.393 19.7218,88.051 5.1981,117.207 -5.6323,11.306 -7.5292,13.363 -14.3956,15.613 -4.3498,1.424 -8.2157,2.897 -8.5909,3.273 -0.375,0.375 1.1386,6.087 3.364,12.693 6.1975,18.397 13.5721,58.192 17.2222,92.933 2.9751,28.316 2.9946,31.924 0.2027,37.323 -3.6386,7.037 -7.5824,8.936 -14.9184,7.187 -8.2529,-1.968 -9.5425,-3.558 -27.72028,-34.167 -9.3631,-15.768 -17.1762,-28.665 -17.3625,-28.663 -0.1864,0 -0.4026,10.595 -0.4804,23.54 -0.1082,18.044 -1.6671,31.257 -6.6756,56.598 -7.2691,36.779 -12.1771,81.298 -12.1485,110.194 0.018,18.823 4.3575,43.994 10.9096,63.292 2.6147,7.703 2.7312,10.31 0.6688,14.968 -4.6328,10.467 -18.6001,12.898 -33.0387,5.751 z m 5.0467,-39.431 c -11.3125,-44.293 -5.9125,-103.382 17.5877,-192.458 6.1337,-23.249 6.9781,-29.278 6.5939,-47.083 -0.4209,-19.501 -0.8064,-21.141 -8.5708,-36.448 -7.128,-14.053 -8.1112,-17.634 -7.9774,-29.051 0.174,-14.836 6.0334,-30.845 14.0444,-38.37 3.7819,-3.554 7.2993,-4.705 14.3638,-4.702 9.4938,0 15.9982,3.342 28.82188,14.79 l 5.4417,4.858 2.2207,-5.819 c 7.131,-18.687 10.3942,-40.112 9.2777,-60.917 -2.2889,-42.648 -13.8179,-69.905 -46.31928,-109.506 -19.52824,-27.793 -29.95541,-30.078 -55.9899,-32.744 -28.3018,-2.806 -66.5127,0.371 -94.8067,7.88 -30.7168,6.414 -53.76339,24.374 -71.6434,46.594 -26.4343,33.43 -36.0367,60.727 -34.755,98.795 0.6938,20.605 1.2271,23.039 8.1928,37.391 8.9684,18.478 32.1669,44.208 47.268,52.428 8.9249,4.856 30.724,13.365 34.2459,13.365 0.709,0 2.3682,-5.225 3.6872,-11.612 2.9941,-14.496 10.5196,-26.311 21.215,-33.31 10.0576,-6.582 16.2809,-5.862 27.7349,3.209 10.2437,8.113 13.7331,16.566 15.1055,36.59 1.0595,15.456 1.3792,16.289 9.657,25.139 15.6436,16.724 24.8412,41.693 29.0814,78.947 2.0115,17.671 1.7627,24.917 -1.956,56.955 -7.4768,64.42 -5.4869,88.461 9.814,118.568 5.4634,10.75 18.8665,28.048 21.732,28.048 0.7887,0 -1.0414,-9.692 -4.067,-21.537 z m -52.6335,-400.352 c -4.5431,-4.543 -4.0776,-20.348 0.8367,-28.407 7.6031,-12.47 14.0467,-5.813 14.0467,14.513 0,10.873 -3.2639,17.043 -9.016,17.043 -1.4954,0 -4.1359,-1.417 -5.8674,-3.149 z m 35.3963,-11.2 c -3.3806,-3.381 -3.1328,-16.065 0.407,-20.831 2.3034,-3.101 3.6215,-3.444 6.5116,-1.689 4.7406,2.878 8.139,15.987 5.3132,20.496 -2.6466,4.224 -8.9838,5.272 -12.2318,2.024 z m 94.44668,184.65 c -6.4748,-48.458 -9.1909,-65.815 -12.2271,-78.138 -9.41668,-38.22 -34.78638,-42.393 -38.06278,-6.26 -1.0115,11.154 -0.646,12.216 13.5562,39.416 14.2972,27.38 37.95148,67.769 39.00978,66.607 0.2941,-0.323 -0.7301,-10.054 -2.2761,-21.625 z m -168.24528,-1.856 c 3.2112,-18.969 4.2939,-58.276 1.9306,-70.093 -0.6966,-3.481 -3.1046,-7.315 -5.3511,-8.517 -5.3711,-2.874 -8.7452,1.595 -10.6601,14.119 -2.43,15.892 5.5763,88.994 9.3137,85.039 0.8635,-0.914 3.0085,-10.16 4.7669,-20.548 z" fill="#00B894" transform="translate(30.133215,-49.851516) matrix(0.26458333,0,0,0.26458333,-41.299011,-4575.8669)"/>
</svg>