<?xml version="1.0" ?><svg height="136.29643mm" viewBox="0 0 146.2451 136.29643" width="146.2451mm" xmlns="http://www.w3.org/2000/svg">
    <path d="m 45949.301,2540.829 56.391,-26.4617 c 0,0 30.753,-29.2741 52.414,-25.6948 21.662,3.5794 44.744,20.3257 52.273,59.6349 7.528,39.3091 15.98,102.779 15.98,102.779 0,0 38.067,12.8473 81.107,21.9236 43.039,9.0763 119.033,48.1936 118.109,72.8018 -0.923,24.6081 -16.678,31.4439 -48.638,37.3243 -31.96,5.8804 -79.606,15.6317 -120.017,-2.4569 -40.412,-18.0886 -72.038,-45.6694 -72.535,-89.5806 -0.498,-43.9112 -13.424,-112.1749 -13.424,-112.1749 0,0 -101.845,-18.0886 -111.291,-22.1153 -9.446,-4.0268 -10.369,-15.9794 -10.369,-15.9794 z" fill="#FFFFFF" transform="translate(-155.17531,-180.56011) matrix(0.36667821,0,0,0.36667821,-16689.845,-731.3319)"/>
    <path d="m 49313.128,4945.6251 c -5.977,2.4837 -35.049,14.0338 -53.86,29.1368 -9.341,7.5001 -7.701,19.2555 1.839,24.2266 10.663,5.5566 57.32,11.5544 66.541,13.6025 11.042,2.4524 17.458,7.5248 35.819,7.8211 10.415,1.075 15.811,2.9701 17.035,5.9824 0.984,2.4253 3.545,33.2666 5.695,68.5371 4.503,73.88 6.109,79.3604 29.219,99.7559 7.746,6.8351 23.032,16.7666 33.973,22.0703 22.268,10.7956 22.342,11.0489 9.728,33.0371 -6.223,10.8454 -7.426,11.5977 -18.517,11.5977 -7.397,0 -14.169,1.8668 -17.987,4.959 -5.265,4.2626 -5.666,5.813 -2.865,11.0468 7.321,13.6763 32.619,13.9173 46.1,0.4395 7.698,-7.6976 14.095,-23.8939 14.175,-35.8633 0.07,-11.2119 3.052,-13.2947 15.036,-10.5156 5.967,1.3831 16.548,2.5441 23.517,2.5801 14.176,0.073 14.815,0.8633 17.586,21.7461 1.793,13.5137 1.766,13.5784 -8.06,18.2636 -10.904,5.1993 -14.848,12.7838 -9.807,18.8574 6.518,7.8536 32.056,1.602 37.875,-9.2714 4.419,-8.2569 3.463,-22.2075 -2.406,-35.1407 -2.882,-6.3447 -4.392,-11.9664 -3.354,-12.4902 1.039,-0.5238 7.411,-1.2688 14.166,-1.6562 6.753,-0.3877 19.409,-3.0933 28.121,-6.0118 8.712,-2.9184 18.538,-5.0779 21.832,-4.8007 13.034,1.0969 18.267,-0.7113 27.627,-9.5372 7.452,-7.0294 9.739,-11.3616 9.729,-18.4199 -0.05,-30.6415 -19.331,-53.2637 -60.906,-71.459 -38.036,-18.7737 -86.741,-30.5146 -115.774,-30.5507 -28.33,0 -29.909,-7.152 -29.909,-10.7253 -5.672,-53.4971 -12.431,-112.8628 -37.931,-143.6173 -20.381,-24.5808 -73.686,-14.8543 -94.237,6.3993 z m 87.981,10.1222 c 13.426,37.9213 19.804,65.4002 22.446,107.738 2.352,37.6678 8.447,43.5234 21.642,35.2835 4.08,-2.548 7.31,4.3724 26.408,6.323 42.627,4.354 136.419,37.7968 152.08,59.0857 18.939,25.9239 1.36,42.0879 -17.742,47.3437 -39.126,10.6613 -97.126,10.8471 -136.676,-2.9219 -21.675,-7.5464 -48.828,-23.9297 -57.228,-49.0876 -3.228,-9.669 -10.709,-14.4232 -11.775,-51.498 -1.869,-65.0474 -3.112,-97.1733 -13.647,-101.0313 -1.931,-0.7072 -10.824,1.0446 -19.885,0.6563 -16.981,-0.7277 -23.155,-5.3503 -23.155,-11.127 0,-5.7039 -5.885,-16.4909 -12.827,-25.1347 -6.382,-7.9472 -6.005,-13.143 1.605,-22.1348 18.84,-18.7525 60.85,-12.9508 68.754,6.5051 z m -47.515,-2.2532 c -4.156,-0.1825 -8.719,4.3957 -9.533,11.1758 -0.958,7.966 8.05,12.803 14.255,7.6543 3.616,-3.4589 2.278,-12.4401 -0.279,-16.2754 -1.164,-1.7456 -2.817,-2.4832 -4.443,-2.5547 z m 12.805,18.9744 c 4.967,5.9845 13.353,1.573 12.381,-6.7967 -0.659,-5.6842 -3.995,-9.1441 -9.404,-8.915 -6.51,0.6526 -5.658,12.4988 -2.977,15.7117 z m -60.512,-10.8568 c 6.256,-2.9445 23.141,29.061 21.687,32.8519 -1.1,2.8665 -11.008,-0.9334 -25.036,-2.137 -11.919,-1.0228 -27.824,-2.6243 -26.905,-11.2307 0.565,-5.288 26.282,-17.6147 30.254,-19.4842 z m 164.029,201.5426 c -13.656,12.4362 31.263,26.7498 41.447,26.0197 12.643,-1.5924 11.563,-12.0871 40.867,0.5263 27.008,11.6248 37.655,-1.5326 36.387,-12.1937 -1.027,-8.6239 -5.563,-10.6098 -11.248,-4.9239 -5.054,5.0515 -12.712,5.379 -22.418,0.9571 -5.479,-2.4957 -8.349,-2.5114 -12.271,-0.062 -4.256,2.6578 -6.53,2.0113 -13.483,-3.8379 -9.742,-8.1975 -16.47,-6.9061 -16.47,3.164 0,8.2091 -3.322,7.7896 -25.151,-3.1797 -5.741,-1.8228 -11.597,-6.2347 -17.66,-6.4699 z" fill="#00B894" transform="translate(-155.17531,-180.56011) matrix(0.36667821,0,0,0.36667821,-16689.845,-731.3319) translate(-3313.5291,-2437.8203)"/>
</svg>