<?xml version="1.0" ?><svg height="125.86082mm" viewBox="0 0 92.54612 125.86082" width="92.54612mm" xmlns="http://www.w3.org/2000/svg">
    <path d="m 46395.044,16723.631 c -32.785,-0.202 -54.45,10.543 -78.712,52.054 -35.288,60.381 -10.129,95.864 3.594,111.939 71.776,43.717 113.601,-0.782 140.067,-30.777 26.467,-29.994 39.343,-88.569 -16.531,-118.956 -17.461,-9.496 -33.516,-14.168 -48.418,-14.26 z m -93.96,190.95 c -26.358,-0.687 -76.131,33.031 -87.785,55.086 -11.654,22.055 -22.109,151.444 -22.109,151.444 4.139,33.131 153.243,25.288 161.738,6.566 1.608,-3.544 34.092,-171.145 34.092,-171.145 0,0 -59.578,-41.265 -85.936,-41.951 z" fill="#FFFFFF" paint-order="markers stroke fill" transform="translate(95.353829,-201.34929) matrix(0.26458333,0,0,0.26458333,-12314.158,-4221.038)"/>
    <path d="m 46394.514,16714.541 c -15.267,0.172 -30.713,3.911 -45.285,11.277 -19.189,9.701 -29.732,22.473 -55.338,67.039 -9.999,17.4 -31.315,46.827 -47.373,65.389 -34.853,40.297 -47.05,67.318 -44.116,97.733 0.716,7.415 0.473,15.333 -0.826,22.724 -12.926,27.545 -19.766,58.408 -20.244,91.756 -0.283,20.073 1.912,54.346 6.191,53.873 9.855,-0.151 10.709,-23.462 11.254,-49.037 0.606,-27.937 8.847,-62.668 20.424,-90.512 12.443,-25.127 32.959,-51.76 43.846,-55.931 6.539,-2.505 7.215,-1.624 8.633,11.216 1.73,15.654 9.934,24.343 15.925,16.862 1.888,-2.356 4.89,-10.81 7.286,-18.606 1.73,-5.627 3.225,-10.857 4.765,-16.16 3.815,0.591 6.032,0.925 9.004,1.881 -0.287,2.967 0.449,7.045 0.469,13.379 0.05,13.842 -24.217,120.439 -30.734,139.012 -2.687,7.658 -4.474,9.171 -7.348,-0.461 -4.839,-16.215 -12.041,-84.037 -10.432,-107.159 1.498,-21.5 -0.1,-27.086 -7.529,-26.265 -10.753,1.188 -16.048,49.809 -10.715,98.082 4.196,37.716 9.907,54.367 22,64.051 10.955,8.777 15.974,8.066 27.346,-3.872 12.711,-13.343 20.61,-36.263 27.803,-80.712 7.064,-43.675 17.659,-80.854 23.828,-81.536 4.962,3.27 27.522,16.569 30.67,25.03 1.731,4.67 -0.935,25.237 -7.096,54.76 -4.064,19.669 -8.395,43.911 -9.094,67.599 -3.178,1.698 -5.785,4.299 -12.498,9.299 -13.424,9.998 -21.984,24.783 -16.764,28.967 1.413,1.125 5.207,-0.04 8.444,-2.592 8.941,-7.062 9.589,-6.002 3.836,6.285 -2.899,6.204 -5.878,27.959 -6.061,33.115 -0.498,14.045 8.849,14.582 11.123,3.217 5.151,-25.737 5.329,-10.008 3.983,4.16 -0.56,5.899 1.257,12.068 4.961,14.508 4.891,3.222 6.065,0.155 9.705,-11.318 3.407,-18.889 8.664,-24.728 6.98,-5.873 -2.046,22.925 10.062,36.984 15.649,8.918 1.6,-8.038 -0.307,-41.511 5.57,-7.631 1.268,7.313 10.778,5.907 10.728,-15.32 -0.03,-9.972 -0.75,-39.521 -0.433,-43.401 0.8,-8.719 14.273,-12.82 19.556,-15.799 3.031,3.611 19.126,0.37 18.604,-7.621 9.697,-4.108 23.091,-11.237 41.117,-19.217 45.073,-19.939 49.904,-23.47 48.576,-35.488 -1.636,-14.808 -20.846,-28.731 -84.092,-60.949 -83.933,-42.753 -93.408,-48.1 -90.742,-51.244 0.739,-0.871 1.079,-2.868 2.328,-3.983 19.191,4.419 30.034,5.281 49.073,-3.142 11.284,-5.801 13.637,-6.43 15.474,-7.391 5.424,10.744 20.749,6.798 17.172,-10.896 3.314,-3.793 9.613,-11.895 19.795,-23.885 0.964,-1.135 1.758,-2.186 2.672,-3.295 2.779,-1.08 7.695,-0.58 9.523,-0.543 8.617,0.176 10.024,0.536 17.491,-38.654 8.002,-41.986 -3.869,-70.6 -39.299,-94.729 -16.816,-11.452 -36.155,-17.13 -55.785,-16.91 z m 40.058,84.531 c 0.162,-0.03 0.272,0 0.324,0.07 12.247,17.828 25.486,39.778 26.071,43.136 -11.48,18.39 -24.174,31.987 -27.303,35.639 -4.734,-6.973 -19.663,-2.288 -15.73,8.859 -2.025,0.972 -7.444,2.739 -8.272,2.829 -0.859,0.1 -4.739,-5.968 -11.283,-12.485 -6.542,-6.521 -14.473,-11.572 -17.627,-11.224 -3.439,0.38 -6.448,-2.206 -7.574,-6.457 -1.241,-4.831 -5.253,-7.677 -12.539,-8.915 -9.586,-1.626 -12.018,-0.421 -23.188,11.506 -6.871,7.327 -13.909,12.984 -15.812,14.996 -2.15,-1.201 -4.042,-2.791 -5.809,-4.556 2.773,-6.651 5.882,-13.07 9.559,-19.291 9.925,-16.796 23.437,-26.71 43.429,-32.096 11.707,-3.158 12.202,-3.017 5.842,1.656 -8.37,6.15 -5.281,9.515 7.44,8.11 9.591,-1.06 28.697,-12.168 43.621,-25.36 4.052,-3.583 7.719,-6.217 8.851,-6.416 z m -23.533,40.434 c -5.303,0.586 -11.573,11.396 -9.234,15.932 3.228,6.248 10.7,4.918 13.5,-2.411 2.499,-6.535 0.14,-14.008 -4.266,-13.521 z m 26.135,6.988 c -6.305,0.697 -13.617,11.658 -10.367,15.82 1.435,1.831 4.979,2.598 7.886,1.707 6.697,-2.061 9.091,-18.257 2.481,-17.527 z m -44.809,1.279 c -1.563,0.171 -3.072,3.124 -2.496,8.338 0.622,5.63 3.877,8.443 7.096,9 5.45,0.943 8.536,-1.998 3.674,-3.859 -3.005,-1.15 -5.174,-3.44 -5.422,-7.871 -0.184,-3.291 -1.131,-5.071 -2.186,-5.508 -0.219,-0.09 -0.442,-0.124 -0.666,-0.1 z m -31.726,15.524 c 0.42,0.04 0.786,0.192 1.088,0.435 1.206,0.97 -10e-4,2.216 -3.948,4.819 -6.844,4.527 -6.947,4.449 -2.201,-1.764 2.047,-2.68 3.802,-3.604 5.061,-3.49 z m -50.688,25.053 c 1.412,1.146 2.09,1.592 2.981,2.533 -1.442,3.457 -2.372,9.903 -2.993,12.59 -0.933,-0.04 -3.207,-0.04 -4.769,-0.07 1.546,-5.176 3.136,-10.159 4.781,-15.05 z m 79.608,1.505 c 2.473,-0.145 3.926,2.137 6.363,4.549 -2.786,1.724 -8.305,3.656 -12.18,4.084 l -7.029,0.776 6.861,-6.032 c 2.651,-2.33 4.502,-3.29 5.985,-3.377 z m 6.937,78.692 c 11.578,0.107 102.428,55.252 102.844,59.015 0.646,5.843 -38.182,22.64 -59.867,30.227 -2.586,-12.351 -41.357,0.578 -34.895,12.859 -9.838,2.299 -22.982,7.743 -22.982,7.743 0,0 2.291,-30.623 6.634,-58.965 4.353,-28.339 7.019,-48.927 7.059,-50.135 0.02,-0.513 0.435,-0.751 1.207,-0.744 z" fill="#00B894" transform="translate(95.353829,-201.34929) matrix(0.26458333,0,0,0.26458333,-12314.158,-4221.038)"/>
</svg>