<?xml version="1.0" ?><svg height="141.05455mm" viewBox="0 0 92.546127 141.05455" width="92.546127mm" xmlns="http://www.w3.org/2000/svg">
    <path d="m 46808.592,16678.671 c -1.812,0.114 -22.958,14.644 -22.958,14.644 0,0 -16.647,4.818 -19.092,5.765 -2.445,0.948 -33.972,22.911 -36.627,27.008 -2.655,4.096 -24.195,25.491 -26.682,27.426 -2.487,1.934 -10.79,32.09 -11.422,34.859 -0.632,2.769 2.951,49.121 3.373,51.549 0.421,2.427 19.135,16.387 19.135,16.387 0,0 8.497,1.39 14.467,2.365 3.299,19.373 13.361,32.878 20.439,41.17 57.699,35.143 96.017,13.269 122.586,-12.24 2.612,3.772 5.779,8.758 7.856,11.303 3.035,3.717 15.678,-4.325 20.863,-8.991 5.184,-4.665 32.918,-37.247 36.584,-44.796 3.667,-7.548 1.604,-40.284 1.604,-40.284 0,0 6.447,-6.145 8.175,-9.597 1.728,-3.452 -9.191,-36.908 -9.271,-43.508 -0.08,-6.6 -10.537,-18.057 -10.537,-18.057 l 0.758,-22.302 -40.42,-5.956 -12.94,-15.552 -43.615,-5.936 c 0,0 -20.463,-5.371 -22.276,-5.257 z m -78.208,248.13 c -26.358,-0.687 -76.132,33.031 -87.786,55.086 -11.654,22.055 -22.109,151.443 -22.109,151.443 4.139,33.131 153.243,25.289 161.738,6.567 1.608,-3.544 34.092,-171.145 34.092,-171.145 0,0 -59.577,-41.265 -85.935,-41.951 z" fill="#FFFFFF" paint-order="markers stroke fill" transform="translate(-50.628525,-312.049) matrix(0.26458333,0,0,0.26458333,-12281.761,-4098.3783)"/>
    <path d="m 46804.598,16669.338 c -7.472,-0.208 -14.365,4.778 -16.565,12.928 -3.277,12.138 -7.418,9.593 -12.433,7.179 -8.498,-4.086 -22.673,3.258 -26.53,13.744 -2.288,6.221 -5.779,8.664 -13.81,9.7 -8.862,1.133 -11.406,3.315 -14.473,12.412 -2.045,6.073 -5.95,11.308 -8.68,11.66 -10.919,1.362 -18.332,12.017 -16.966,24.387 0.962,8.708 -0.43,13.429 -5.024,17.056 -5.245,4.133 -5.835,7.387 -3.414,18.455 1.672,7.658 1.481,17.412 -0.451,22.68 -3.511,9.571 0.564,22.714 8.16,26.324 2.036,0.968 3.202,5.412 2.592,9.879 -1.282,9.394 7.318,13.637 13.879,6.846 2.478,-2.567 4.757,-0.954 6.769,4.211 2.927,12.861 7.967,21.068 17.737,30.375 5.991,5.651 5.412,4.424 6.84,5.931 -1.442,3.457 -2.372,9.903 -2.993,12.59 -4.298,-0.197 -16.397,-0.512 -25.75,0.762 -30.099,4.101 -39.285,9.961 -61.298,39.119 -26.733,35.411 -40.862,78.634 -41.557,127.106 -0.283,20.073 1.91,54.346 6.189,53.873 9.855,-0.151 10.709,-23.462 11.254,-49.037 0.851,-39.25 16.635,-92.171 35.819,-120.09 16.657,-24.234 40.52,-36.986 62.591,-33.438 6.078,0.977 7.823,1.104 11.473,2.278 -0.287,2.967 0.449,7.044 0.469,13.378 0.05,13.842 -24.218,120.437 -30.735,139.01 -2.687,7.658 -4.473,9.173 -7.347,-0.459 -4.839,-16.215 -12.041,-84.036 -10.432,-107.158 1.498,-21.5 -0.1,-27.087 -7.529,-26.266 -10.753,1.188 -16.046,49.81 -10.713,98.082 4.196,37.716 9.907,54.367 22,64.051 10.955,8.777 15.97,8.067 27.342,-3.871 12.711,-13.344 20.611,-36.264 27.804,-80.713 7.064,-43.675 17.66,-80.855 23.829,-81.537 4.962,3.27 27.521,16.57 30.669,25.031 1.731,4.67 -0.934,25.237 -7.095,54.76 -4.064,19.67 -8.393,43.91 -9.092,67.598 -3.178,1.698 -5.785,4.301 -12.498,9.301 -13.424,9.998 -21.984,24.782 -16.764,28.966 1.413,1.125 5.203,-0.04 8.44,-2.591 8.941,-7.062 9.591,-6.004 3.838,6.283 -2.899,6.204 -5.878,27.959 -6.061,33.115 -0.498,14.045 8.849,14.584 11.123,3.219 5.151,-25.737 5.328,-10.008 3.983,4.16 -0.56,5.899 1.256,12.066 4.96,14.506 4.891,3.222 6.066,0.156 9.706,-11.317 3.407,-18.889 8.666,-24.728 6.982,-5.873 -2.046,22.925 10.059,36.984 15.646,8.918 1.6,-8.038 -0.306,-41.51 5.571,-7.631 1.268,7.313 10.78,5.908 10.73,-15.32 -0.03,-9.972 -0.754,-39.522 -0.437,-43.402 0.8,-8.719 14.275,-12.818 19.558,-15.797 3.031,3.611 19.126,0.37 18.604,-7.621 9.697,-4.108 23.093,-11.237 41.119,-19.217 45.073,-19.939 49.904,-23.472 48.576,-35.49 -1.636,-14.808 -20.848,-28.729 -84.094,-60.947 -83.934,-42.753 -93.406,-48.101 -90.74,-51.245 0.739,-0.871 1.077,-2.869 2.326,-3.984 19.191,4.419 30.032,5.282 49.071,-3.141 11.284,-5.801 13.639,-6.429 15.476,-7.39 5.424,10.744 20.749,6.797 17.172,-10.897 0.806,-0.922 2.389,-2.887 3.561,-4.312 1.212,-0.02 2.603,0.805 4.084,2.699 3.543,4.527 13.716,2.457 17.711,-3.604 1.93,-2.927 8.399,-5.866 14.378,-6.527 11.416,-1.261 16.871,-8.587 15.516,-20.847 -0.433,-3.92 2.745,-8.217 8.348,-11.299 4.975,-2.733 10.319,-9.354 11.873,-14.711 2.961,-10.199 1.767,-32.042 -1.918,-34.989 -1.178,-0.946 0.96,-3.711 4.754,-6.142 9.357,-5.999 9.061,-26.272 -0.496,-33.928 -5.315,-4.257 -6.331,-7.357 -4.782,-14.578 1.463,-6.8 0.377,-11.104 -4.199,-16.648 -4.758,-5.763 -5.532,-9.075 -3.371,-14.459 6.266,-15.626 -11.597,-30.468 -29.98,-24.909 -9.107,2.755 -11.17,2.028 -16.983,-5.984 -4.453,-6.14 -9.16,-8.841 -14.396,-8.262 -4.277,0.472 -10.746,-1.776 -14.381,-4.996 -4.424,-3.918 -18.646,-12.92 -26.135,-6.619 -8.314,6.995 -12.214,4.311 -15.215,1.094 -4.012,-4.301 -8.703,-6.296 -13.185,-6.42 z m 0.607,12.801 c 2.388,0.228 4.843,1.908 6.947,5.982 4.065,7.872 15.307,8.172 18.653,1.965 3.545,-6.575 16.614,-4.619 21.951,1.453 2.756,3.138 8.628,5.821 13.053,5.965 5.364,0.175 8.982,2.896 10.865,8.18 2.548,7.166 4.426,7.746 19.736,6.203 20.227,-2.049 26.3,1.365 21.221,11.929 -3.154,6.56 -2.469,8.151 6.287,14.641 11.265,8.345 12.156,10.93 5.992,17.311 -6.24,6.461 -4.361,16.07 3.781,19.336 8.143,3.264 10.025,12.875 3.784,19.334 -2.718,2.815 -3.814,10.154 -2.838,18.986 1.897,17.174 -3.514,33.085 -12.625,37.125 -3.63,1.609 -8.129,8.139 -10,14.508 -2.323,7.911 -5.545,11.817 -10.168,12.328 -4.03,0.445 -7.16,3.452 -7.748,7.439 -0.923,6.299 -9.655,10.658 -10.266,5.125 -0.104,-0.941 2.824,-5.439 7.041,-11.129 3.755,-4.513 7.047,-8.818 10.024,-12.992 13.626,-17.925 15.829,-29.982 7.306,-40.307 -4.561,-5.528 -9.008,-7.102 -17.431,-6.171 -10.755,1.188 -11.371,0.695 -12.567,-10.135 -1.232,-11.147 -8.355,-15.136 -12.281,-6.873 -3.272,6.887 -9.762,4.162 -13.957,-5.863 -3.762,-8.989 -5.508,-9.999 -14.397,-8.327 -7.521,1.415 -10.686,0.405 -12.347,-3.933 -1.229,-3.206 -6.292,-6.388 -11.246,-7.063 -6.906,-0.945 -11.111,0.976 -18.037,8.248 -8.21,8.612 -9.591,9.076 -15.126,5.078 -9.382,-6.777 -16.699,-4.353 -17.99,5.967 -1.596,12.748 -5.418,17.882 -14.033,18.834 -5.161,0.57 -7.724,3.33 -8.523,9.17 -0.889,6.508 -3.229,8.587 -10.569,9.397 -5.183,0.573 -9.748,2.523 -10.154,4.332 -1.175,5.273 -15.329,1.645 -18.117,-4.647 -1.401,-3.158 -1.045,-8.872 0.795,-12.699 2.695,-5.602 2.329,-8.436 -1.873,-14.559 -5.912,-8.618 -5.088,-24.586 1.306,-25.293 7.767,-0.858 11.093,-8.106 6.414,-14.031 -6.287,-7.963 0.439,-16.48 13.358,-16.922 9.366,-0.319 10.272,-1.289 10.144,-10.847 -0.13,-9.459 1.011,-10.723 11.51,-12.795 9.065,-1.786 12.633,-4.596 16.059,-12.66 3.659,-8.609 6.197,-10.411 15.025,-10.657 7.92,-0.217 20.348,-1.798 20.721,-11.34 0.139,-3.564 5.066,-10.095 10.32,-9.593 z m 5.801,109.949 c 0.137,0 0.24,0.03 0.305,0.121 0.517,0.685 2.903,3.995 5.306,7.35 3.098,4.331 7.751,5.727 16.022,4.814 9.42,-1.041 12.168,0.1 14.334,5.924 1.791,4.822 5.951,7.499 12.562,8.078 6.241,0.547 10.105,2.873 10.485,6.314 0.891,8.063 8.088,12.518 18.378,11.381 11.405,-1.26 11.662,1.134 1.946,18.223 -0.381,0.67 -0.828,1.348 -1.223,2.021 -11.167,17.462 -23.131,30.292 -26.156,33.823 -4.734,-6.973 -19.666,-2.29 -15.733,8.857 -2.025,0.972 -7.441,2.738 -8.269,2.828 -0.859,0.1 -4.741,-5.967 -11.285,-12.484 -6.542,-6.521 -14.473,-11.571 -17.627,-11.223 -3.439,0.38 -6.45,-2.207 -7.576,-6.459 -1.241,-4.831 -5.252,-7.674 -12.537,-8.912 -9.586,-1.626 -12.016,-0.421 -23.186,11.506 -6.871,7.327 -13.912,12.982 -15.816,14.994 -11.209,-6.265 -17.038,-20.781 -19.079,-37.492 0.266,-3.799 1.832,-5.173 5.463,-5.574 3.521,-0.389 9.166,-5.457 12.543,-11.262 3.373,-5.804 8.121,-10.772 10.551,-11.041 2.426,-0.268 7.935,-4.892 12.238,-10.275 5.528,-6.92 10.548,-9.808 17.129,-9.848 5.405,-0.03 11.667,-2.726 14.946,-6.424 2.716,-3.063 5.322,-5.21 6.279,-5.24 z m 29.334,59.637 c -5.303,0.586 -11.575,11.397 -9.236,15.933 3.228,6.249 10.698,4.917 13.498,-2.412 2.499,-6.535 0.144,-14.008 -4.262,-13.521 z m 26.131,6.99 c -6.305,0.697 -13.616,11.656 -10.366,15.818 1.435,1.831 4.982,2.6 7.889,1.709 6.697,-2.061 9.087,-18.257 2.477,-17.527 z m -44.807,1.279 c -1.563,0.17 -3.07,3.123 -2.494,8.336 0.622,5.63 3.874,8.444 7.092,9 5.45,0.943 8.537,-1.996 3.674,-3.857 -3.005,-1.15 -5.174,-3.442 -5.422,-7.873 -0.184,-3.291 -1.129,-5.07 -2.184,-5.506 -0.22,-0.09 -0.443,-0.124 -0.666,-0.1 z m -31.726,15.524 c 0.419,0.04 0.785,0.19 1.087,0.433 1.206,0.97 0,2.217 -3.947,4.82 -6.844,4.527 -6.945,4.45 -2.199,-1.763 2.047,-2.68 3.8,-3.604 5.059,-3.49 z m 28.919,26.558 c 2.473,-0.145 3.927,2.138 6.364,4.549 -2.786,1.724 -8.303,3.654 -12.178,4.082 l -7.031,0.777 6.861,-6.031 c 2.651,-2.33 4.501,-3.291 5.984,-3.377 z m 6.94,78.69 c 11.578,0.106 102.426,55.253 102.842,59.017 0.645,5.843 -38.183,22.64 -59.868,30.227 -2.586,-12.351 -41.354,0.578 -34.892,12.859 -9.838,2.299 -22.984,7.742 -22.984,7.742 0,0 2.291,-30.623 6.634,-58.965 4.353,-28.338 7.021,-48.928 7.061,-50.136 0.02,-0.513 0.435,-0.751 1.207,-0.744 z" fill="#00B894" transform="translate(-50.628525,-312.049) matrix(0.26458333,0,0,0.26458333,-12281.761,-4098.3783)"/>
</svg>