<?xml version="1.0" ?><svg height="129.10136mm" viewBox="0 0 92.546371 129.10136" width="92.546371mm" xmlns="http://www.w3.org/2000/svg">
    <path d="m 46382.098,16046.156 c -32.785,-0.202 -59.981,21.759 -84.243,63.27 -35.288,60.381 -10.129,95.864 3.594,111.939 71.776,43.717 113.601,-0.782 140.067,-30.777 26.467,-29.994 44.874,-99.785 -11,-130.172 -17.461,-9.496 -33.516,-14.168 -48.418,-14.26 z m -99.491,202.166 c -26.358,-0.687 -76.131,33.031 -87.785,55.086 -11.654,22.055 -22.109,151.444 -22.109,151.444 4.139,33.131 153.243,25.288 161.738,6.566 1.608,-3.544 34.092,-171.145 34.092,-171.145 0,0 -59.578,-41.265 -85.936,-41.951 z" fill="#FFFFFF" paint-order="markers stroke fill" transform="translate(73.959268,1.626977) matrix(0.26458333,0,0,0.26458333,-12287.875,-4244.4927)"/>
    <path d="m 46353.061,16499.462 c 1.684,-18.855 -3.573,-13.016 -6.98,5.873 -3.64,11.473 -4.815,14.54 -9.706,11.318 -3.704,-2.44 -5.521,-8.608 -4.961,-14.507 1.346,-14.168 1.169,-29.897 -3.982,-4.16 -2.274,11.365 -11.621,10.827 -11.123,-3.218 0.183,-5.156 3.162,-26.911 6.061,-33.115 5.753,-12.287 5.102,-13.346 -3.839,-6.284 -3.237,2.551 -7.027,3.717 -8.44,2.592 -5.22,-4.184 3.338,-18.969 16.762,-28.967 6.713,-5 9.32,-7.602 12.498,-9.3 0.699,-23.688 5.029,-47.929 9.093,-67.599 6.161,-29.523 8.829,-50.089 7.098,-54.759 -3.148,-8.461 -25.709,-21.761 -30.671,-25.031 -6.169,0.682 -16.764,37.862 -23.828,81.537 -7.193,44.449 -15.093,67.368 -27.804,80.712 -11.372,11.938 -16.389,12.648 -27.344,3.871 -12.093,-9.684 -17.804,-26.335 -22,-64.051 -5.333,-48.273 -0.04,-96.893 10.713,-98.081 7.432,-0.821 9.029,4.765 7.531,26.265 -1.609,23.122 5.59,90.944 10.429,107.159 2.874,9.632 4.663,8.117 7.35,0.459 6.517,-18.573 30.784,-125.168 30.732,-139.01 -0.02,-6.334 -0.753,-10.412 -0.466,-13.379 -3.65,-1.174 -5.395,-1.3 -11.473,-2.277 -22.071,-3.548 -45.934,9.203 -62.591,33.437 -19.184,27.919 -34.968,80.84 -35.819,120.09 -0.545,25.575 -1.398,48.886 -11.253,49.037 -4.279,0.473 -6.475,-33.8 -6.192,-53.873 0.695,-48.472 14.826,-91.695 41.559,-127.106 22.014,-29.158 31.2,-35.015 61.299,-39.116 9.353,-1.274 21.452,-0.962 25.75,-0.765 0.621,-2.687 1.55,-9.132 2.992,-12.589 -1.428,-1.507 -0.849,-0.281 -6.84,-5.932 -12.946,-12.333 -17.6,-22.706 -20.017,-44.582 -4.347,-39.345 30.969,-102.084 70.551,-125.339 41.144,-24.169 94.287,-13.046 122.41,25.619 14.908,20.498 18.682,34.784 15.295,57.947 -3.849,26.296 -12.916,44.754 -34.419,70.076 -10.182,11.99 -16.481,20.091 -19.795,23.884 3.577,17.694 -11.748,21.641 -17.172,10.897 -1.837,0.961 -4.192,1.589 -15.476,7.39 -19.039,8.423 -29.88,7.562 -49.071,3.143 -1.249,1.115 -1.588,3.112 -2.327,3.983 -2.666,3.144 6.807,8.491 90.741,51.244 63.246,32.218 82.457,46.14 84.093,60.948 1.328,12.018 -3.505,15.55 -48.578,35.489 -18.026,7.98 -31.422,15.109 -41.119,19.217 0.522,7.991 -15.569,11.232 -18.6,7.621 -5.283,2.979 -18.759,7.079 -19.559,15.798 -0.317,3.88 0.409,33.429 0.436,43.401 0.05,21.228 -9.463,22.633 -10.731,15.32 -5.877,-33.88 -3.968,-0.407 -5.568,7.631 -5.587,28.066 -17.695,14.007 -15.649,-8.918 z m 67.935,-107.931 c 21.685,-7.587 60.512,-24.384 59.866,-30.227 -0.443,-4.015 -103.778,-66.491 -104.05,-58.272 -0.04,1.208 -2.705,21.796 -7.058,50.135 -4.343,28.342 -6.635,58.965 -6.635,58.965 0,0 13.145,-5.443 22.983,-7.742 -6.462,-12.281 32.308,-25.21 34.894,-12.859 z m -43.552,-163.385 c -3.898,-3.858 -5.277,-7.385 -12.346,-1.172 l -6.864,6.032 7.032,-0.777 c 3.875,-0.428 9.392,-2.359 12.178,-4.083 z m 22.014,-7.63 c -3.933,-11.147 10.995,-15.831 15.729,-8.858 3.796,-4.431 21.701,-23.38 34.395,-47.941 25.337,-49.063 8.671,-91.977 -41.761,-107.526 -41.832,-12.899 -74.675,1.514 -100.218,43.992 -19.038,31.657 -25.821,52.22 -23.691,71.899 1.902,17.218 7.771,32.268 19.249,38.684 1.904,-2.012 8.943,-7.668 15.814,-14.995 11.17,-11.927 13.602,-13.132 23.188,-11.506 7.286,1.238 11.296,4.082 12.537,8.913 1.126,4.252 4.134,6.838 7.573,6.458 3.154,-0.348 11.085,4.703 17.627,11.224 6.544,6.517 10.427,12.579 11.286,12.484 0.828,-0.09 6.247,-1.856 8.272,-2.828 z m 8.873,-24.461 c -3.25,-4.162 4.06,-15.122 10.365,-15.819 6.61,-0.73 4.219,15.466 -2.478,17.527 -2.907,0.891 -6.452,0.123 -7.887,-1.708 z m -36.938,-6.203 c -1.053,-9.534 4.855,-11.506 5.346,-2.73 0.248,4.431 2.417,6.722 5.422,7.872 4.863,1.861 1.775,4.801 -3.675,3.858 -3.219,-0.557 -6.471,-3.37 -7.093,-9 z m 11.935,-0.673 c -2.339,-4.536 3.931,-15.346 9.234,-15.932 4.406,-0.487 6.763,6.986 4.264,13.521 -2.8,7.329 -10.27,8.66 -13.498,2.411 z m -40.078,8.294 c -1.209,-0.97 -3.418,-0.517 -6.148,3.056 -4.746,6.213 -4.643,6.291 2.201,1.764 3.94,-2.603 5.153,-3.85 3.947,-4.82 z" fill="#00B894" transform="translate(73.959268,1.626977) matrix(0.26458333,0,0,0.26458333,-12287.875,-4244.4927)"/>
</svg>