<?xml version="1.0" ?><svg height="129.1519mm" viewBox="0 0 92.546112 129.1519" width="92.546112mm" xmlns="http://www.w3.org/2000/svg">
    <path d="m 46382.098,16046.156 c -32.785,-0.202 -59.981,21.759 -84.243,63.27 -35.288,60.381 -10.129,95.864 3.594,111.939 71.776,43.717 113.601,-0.782 140.067,-30.777 26.467,-29.994 44.874,-99.785 -11,-130.172 -17.461,-9.496 -33.516,-14.168 -48.418,-14.26 z m -99.491,202.166 c -26.358,-0.687 -76.131,33.031 -87.785,55.086 -11.654,22.055 -22.109,151.444 -22.109,151.444 4.139,33.131 153.243,25.288 161.738,6.566 1.608,-3.544 34.092,-171.145 34.092,-171.145 0,0 -59.578,-41.265 -85.936,-41.951 z" fill="#FFFFFF" paint-order="markers stroke fill" transform="translate(26.137268,-222.35625) matrix(0.26458333,0,0,0.26458333,-12240.053,-4020.4592)"/>
    <path d="m 46385.141,16035.855 c -1.561,-0.03 -3.118,-0.02 -4.673,0.03 -14.93,0.48 -29.526,4.63 -42.801,12.576 -14.293,8.555 -27.816,22.275 -39.1,38.119 -20.332,27.821 -33.743,62.423 -30.969,87.531 2.417,21.876 7.072,32.249 20.018,44.582 5.991,5.651 5.412,4.425 6.84,5.932 -1.442,3.457 -2.371,9.903 -2.992,12.59 -4.298,-0.197 -16.397,-0.511 -25.75,0.763 -30.099,4.101 -39.285,9.959 -61.299,39.117 -26.733,35.411 -40.864,78.634 -41.559,127.106 -0.283,20.073 1.913,54.346 6.192,53.873 9.855,-0.151 10.709,-23.462 11.254,-49.037 0.851,-39.25 16.634,-92.171 35.818,-120.09 16.657,-24.234 40.521,-36.985 62.592,-33.437 6.078,0.977 7.822,1.103 11.472,2.277 -0.287,2.967 0.445,7.045 0.465,13.379 0.05,13.842 -24.213,120.437 -30.73,139.01 -2.687,7.658 -4.478,9.173 -7.352,-0.459 -4.839,-16.215 -12.037,-84.037 -10.428,-107.159 1.498,-21.5 -0.1,-27.086 -7.531,-26.265 -10.753,1.188 -16.046,49.809 -10.713,98.082 4.196,37.716 9.907,54.367 22,64.051 10.955,8.777 15.972,8.066 27.344,-3.872 12.711,-13.344 20.612,-36.263 27.805,-80.712 7.064,-43.675 17.659,-80.856 23.828,-81.538 4.962,3.27 27.522,16.571 30.67,25.032 1.731,4.67 -0.937,25.236 -7.098,54.759 -4.064,19.67 -8.395,43.91 -9.094,67.598 -3.178,1.698 -5.785,4.301 -12.498,9.301 -13.424,9.998 -21.981,24.783 -16.761,28.967 1.413,1.125 5.202,-0.04 8.439,-2.592 8.941,-7.062 9.593,-6.004 3.84,6.283 -2.899,6.204 -5.878,27.959 -6.061,33.115 -0.498,14.045 8.849,14.584 11.123,3.219 5.151,-25.737 5.329,-10.008 3.983,4.16 -0.56,5.899 1.257,12.066 4.961,14.506 4.891,3.222 6.065,0.157 9.705,-11.316 3.407,-18.889 8.664,-24.728 6.98,-5.873 -2.046,22.925 10.062,36.984 15.649,8.918 1.6,-8.038 -0.309,-41.511 5.568,-7.631 1.268,7.313 10.781,5.907 10.731,-15.321 -0.03,-9.972 -0.753,-39.522 -0.436,-43.402 0.8,-8.719 14.276,-12.818 19.559,-15.797 3.031,3.611 19.121,0.37 18.599,-7.621 9.697,-4.108 23.093,-11.237 41.119,-19.217 45.073,-19.939 49.906,-23.472 48.578,-35.49 -1.636,-14.808 -20.845,-28.729 -84.091,-60.947 -83.934,-42.753 -93.409,-48.1 -90.743,-51.244 0.739,-0.871 1.08,-2.868 2.329,-3.983 19.191,4.419 30.031,5.281 49.07,-3.142 11.284,-5.801 13.639,-6.43 15.476,-7.391 5.424,10.744 20.749,6.798 17.172,-10.896 3.314,-3.793 9.613,-11.895 19.795,-23.885 12.776,-15.045 21.088,-27.679 26.598,-40.961 4.037,-8.55 9.878,-16.963 13.555,-19.322 16.409,-10.525 0.909,-53.637 -28.291,-78.67 -7.077,-6.068 -14.531,-11.145 -22.205,-15.233 -9.758,-5.512 -20.374,-9.193 -31.338,-10.939 -0.478,-0.08 -0.956,-0.158 -1.434,-0.235 -0.996,-0.142 -1.984,-0.32 -2.984,-0.431 -3.403,-0.437 -6.805,-0.704 -10.196,-0.768 z m -25.539,55.686 c 8.414,-0.478 12.683,4.363 16.459,15.957 7.556,23.203 29.54,32.794 38.336,16.73 3.815,-6.965 4.385,-6.571 14.113,9.684 5.577,9.314 13.414,18.249 17.417,19.853 3.835,1.539 5.91,2.551 5.791,5.379 -0.712,1.525 -1.341,3.035 -2.135,4.573 -12.694,24.561 -30.601,43.51 -34.397,47.941 -4.734,-6.973 -19.661,-2.29 -15.728,8.857 -2.025,0.972 -7.444,2.739 -8.272,2.829 -0.859,0.1 -4.743,-5.968 -11.287,-12.485 -6.542,-6.521 -14.473,-11.571 -17.627,-11.223 -3.439,0.38 -6.446,-2.207 -7.572,-6.458 -1.241,-4.831 -5.251,-7.675 -12.537,-8.913 -9.586,-1.626 -12.018,-0.421 -23.188,11.506 -6.871,7.327 -13.91,12.982 -15.814,14.994 -11.478,-6.416 -17.346,-21.465 -19.248,-38.683 -0.883,-8.154 -0.132,-16.512 2.283,-25.696 1.445,-3.763 3.217,-7.281 5.174,-10.33 9.801,-15.278 32.483,-32.421 53.848,-40.703 5.88,-2.279 10.56,-3.595 14.384,-3.812 z m 32.959,81.707 c -5.303,0.586 -11.571,11.395 -9.232,15.931 3.228,6.249 10.698,4.917 13.498,-2.412 2.499,-6.535 0.14,-14.006 -4.266,-13.519 z m 26.135,6.988 c -6.305,0.697 -13.615,11.656 -10.365,15.818 1.435,1.831 4.98,2.6 7.887,1.709 6.697,-2.061 9.088,-18.257 2.478,-17.527 z m -44.143,1.379 c -1.758,-0.727 -3.818,2.278 -3.16,8.236 0.622,5.63 3.873,8.443 7.092,9 5.45,0.943 8.539,-1.996 3.676,-3.857 -3.005,-1.15 -5.174,-3.44 -5.422,-7.871 -0.184,-3.291 -1.131,-5.072 -2.186,-5.508 z m -32.39,15.424 c 0.42,0.04 0.785,0.191 1.088,0.433 1.206,0.97 0,2.218 -3.948,4.821 -6.844,4.527 -6.947,4.449 -2.201,-1.764 2.048,-2.68 3.802,-3.604 5.061,-3.49 z m 28.92,26.558 c 2.472,-0.144 3.925,2.138 6.361,4.549 -2.786,1.724 -8.303,3.654 -12.178,4.082 l -7.033,0.778 6.865,-6.032 c 2.651,-2.329 4.501,-3.29 5.985,-3.377 z m 6.937,78.692 c 11.579,0.106 102.427,55.251 102.842,59.015 0.646,5.843 -38.18,22.64 -59.865,30.227 -2.586,-12.351 -41.357,0.578 -34.895,12.859 -9.838,2.299 -22.982,7.743 -22.982,7.743 0,0 2.292,-30.623 6.635,-58.965 4.353,-28.339 7.016,-48.927 7.056,-50.135 0.02,-0.514 0.437,-0.751 1.209,-0.744 z" fill="#00B894" transform="translate(26.137268,-222.35625) matrix(0.26458333,0,0,0.26458333,-12240.053,-4020.4592)"/>
</svg>