<?xml version="1.0" ?><svg height="149.42476mm" viewBox="0 0 92.546112 149.42476" width="92.546112mm" xmlns="http://www.w3.org/2000/svg">
    <path d="m 46382.098,16046.156 c -32.785,-0.202 -59.981,21.759 -84.243,63.27 -35.288,60.381 -10.129,95.864 3.594,111.939 71.776,43.717 113.601,-0.782 140.067,-30.777 26.467,-29.994 44.874,-99.785 -11,-130.172 -17.461,-9.496 -33.516,-14.168 -48.418,-14.26 z m -99.491,202.166 c -26.358,-0.687 -76.131,33.031 -87.785,55.086 -11.654,22.055 -22.109,151.444 -22.109,151.444 4.139,33.131 153.243,25.288 161.738,6.566 1.608,-3.544 34.092,-171.145 34.092,-171.145 0,0 -59.578,-41.265 -85.936,-41.951 z" fill="#FFFFFF" paint-order="markers stroke fill" transform="translate(-98.452053,-166.91473) matrix(0.26458333,0,0,0.26458333,-12115.465,-4055.6276)"/>
    <path d="m 46359.435,15959.236 c -2.544,0.265 -5.099,2.774 -8.869,7.838 -3.213,4.317 -6.037,6.112 -6.272,3.984 -0.596,-5.395 -15.72,-3.181 -17.215,2.52 -0.775,2.974 -4.352,4.422 -9.791,3.99 -7.423,-0.585 -8.438,0.445 -7.631,7.75 0.843,7.638 -0.01,8.348 -9.041,7.558 -8.887,-0.78 -9.879,-0.02 -9.103,7.012 0.48,4.34 2.728,9.377 5.002,11.197 3.101,2.486 2.498,3.073 -2.436,2.348 -9.146,-1.342 -15.692,8.99 -10.142,16.02 2.291,2.893 3.83,9.36 3.435,14.367 -0.577,7.298 0.705,9.307 6.471,10.154 5.872,0.863 6.566,2.008 3.779,6.238 -2.664,4.042 -2.401,6.459 1.199,11.02 3.979,5.039 3.011,8.39 -7.039,24.381 -10.465,16.648 -17.605,33.037 -21.306,48.222 0.03,0.101 0.03,0.101 0.06,0.202 -2.757,10.743 -3.932,21.037 -2.933,30.074 2.417,21.876 7.071,32.249 20.017,44.582 5.991,5.651 5.412,4.424 6.84,5.931 -1.442,3.457 -2.371,9.903 -2.992,12.59 -4.298,-0.197 -16.397,-0.508 -25.75,0.766 -30.099,4.101 -39.285,9.957 -61.299,39.115 -26.733,35.411 -40.863,78.634 -41.558,127.106 -0.283,20.073 1.912,54.346 6.191,53.873 9.855,-0.151 10.709,-23.463 11.254,-49.037 0.851,-39.25 16.634,-92.171 35.818,-120.09 16.657,-24.234 40.519,-36.986 62.59,-33.438 6.078,0.977 7.825,1.104 11.475,2.278 -0.287,2.967 0.445,7.044 0.465,13.378 0.05,13.842 -24.216,120.437 -30.733,139.01 -2.687,7.658 -4.475,9.173 -7.349,-0.459 -4.839,-16.215 -12.037,-84.036 -10.428,-107.158 1.498,-21.5 -0.1,-27.087 -7.531,-26.266 -10.753,1.188 -16.046,49.809 -10.713,98.082 4.196,37.716 9.907,54.367 22,64.051 10.955,8.777 15.971,8.067 27.343,-3.871 12.711,-13.344 20.61,-36.264 27.803,-80.713 7.064,-43.675 17.659,-80.855 23.828,-81.537 4.962,3.27 27.524,16.57 30.672,25.031 1.731,4.67 -0.936,25.237 -7.097,54.76 -4.064,19.67 -8.395,43.912 -9.094,67.6 -3.178,1.698 -5.785,4.299 -12.498,9.299 -13.424,9.998 -21.982,24.782 -16.762,28.966 1.413,1.125 5.202,-0.04 8.439,-2.591 8.941,-7.062 9.593,-6.002 3.84,6.285 -2.899,6.204 -5.877,27.959 -6.06,33.115 -0.498,14.045 8.849,14.582 11.123,3.217 5.151,-25.737 5.326,-10.008 3.98,4.16 -0.56,5.899 1.257,12.068 4.961,14.508 4.891,3.222 6.067,0.154 9.707,-11.319 3.407,-18.889 8.665,-24.728 6.981,-5.873 -2.046,22.925 10.061,36.984 15.648,8.918 1.6,-8.038 -0.308,-41.511 5.569,-7.631 1.268,7.313 10.78,5.908 10.73,-15.32 -0.03,-9.972 -0.753,-39.52 -0.436,-43.4 0.8,-8.719 14.276,-12.82 19.559,-15.799 3.031,3.611 19.122,0.37 18.6,-7.621 9.697,-4.108 23.093,-11.237 41.119,-19.217 45.073,-19.939 49.906,-23.47 48.578,-35.488 -1.636,-14.808 -20.848,-28.732 -84.094,-60.95 -83.934,-42.752 -93.406,-48.1 -90.74,-51.244 0.739,-0.871 1.077,-2.867 2.326,-3.982 19.191,4.419 30.033,5.28 49.072,-3.143 11.284,-5.801 13.64,-6.429 15.477,-7.39 5.424,10.744 20.749,6.797 17.172,-10.897 3.314,-3.793 9.613,-11.895 19.795,-23.885 11.937,-14.057 19.944,-26.015 25.451,-38.357 0.374,-0.821 0.737,-1.646 1.088,-2.471 0.409,-0.983 0.85,-1.968 1.228,-2.961 0,0 0,0 0,0 3.292,-8.432 5.471,-17.191 6.914,-27.053 3.511,-23.963 -0.633,-38.521 -17.095,-60.088 -16.765,-21.957 -19.998,-29.206 -13.358,-29.94 6.536,-0.722 5.37,-13.323 -1.394,-15.097 -4.076,-1.068 -3.78,-2.652 1.552,-8.301 l 6.588,-6.975 -7.314,-4.97 c -4.507,-3.058 -7.672,-8.726 -8.211,-14.733 -0.825,-9.103 -1.603,-9.622 -11.731,-7.677 -8.488,1.633 -10.558,0.989 -9.521,-2.967 2.067,-7.879 -8.497,-14.714 -15.412,-9.971 -7.751,5.318 -8.255,5.208 -11.195,-2.469 -2.03,-5.301 -4.195,-6.104 -10.309,-3.832 -4.978,1.851 -9.365,1.306 -12.297,-1.525 -2.301,-2.224 -4.135,-3.513 -5.894,-3.766 -0.367,-0.05 -0.731,-0.06 -1.094,-0.02 z m 11.16,93.89 c 5.538,-0.612 7.66,10.052 7.215,36.272 -0.466,27.538 2.797,38.339 11.297,37.4 9.38,-1.037 13.811,-14.138 14.33,-42.381 0.43,-23.51 1.496,-28.607 5.884,-28.187 6.16,0.59 7.269,10.616 5,45.254 -1.643,25.114 0.766,32.322 10.45,31.252 9.181,-1.014 14.26,-19.354 11.72,-42.34 -2.045,-18.515 2.141,-24.747 7.301,-10.865 3.752,10.091 3.89,31.619 0.336,52.197 -2.61,15.102 -2.336,16.524 3.828,20.066 3.356,1.928 4.881,3.071 4.539,5.676 -0.93,2.078 -1.832,4.152 -2.914,6.246 -12.694,24.561 -30.598,43.511 -34.394,47.942 -4.734,-6.973 -19.662,-2.29 -15.729,8.857 -2.025,0.972 -7.443,2.738 -8.271,2.828 -0.859,0.09 -4.743,-5.965 -11.287,-12.482 -6.542,-6.521 -14.473,-11.573 -17.627,-11.225 -3.439,0.38 -6.447,-2.207 -7.573,-6.459 -1.241,-4.831 -5.251,-7.674 -12.537,-8.912 -9.586,-1.626 -12.017,-0.421 -23.187,11.506 -6.871,7.327 -13.911,12.982 -15.815,14.994 -11.478,-6.416 -17.348,-21.466 -19.25,-38.684 -0.678,-6.269 -0.336,-12.675 0.903,-19.455 1.372,-4.138 3.999,-5.077 7.9,-2.505 4.169,2.748 6.151,2.274 9.867,-2.362 5.563,-6.946 5.559,-7.001 -0.906,-20.152 -2.712,-5.515 -3.744,-8.526 -3.141,-11.274 0.77,-1.465 1.457,-2.866 2.291,-4.384 0.225,-0.3 0.415,-0.58 0.67,-0.899 4.642,-5.8 4.984,-5.652 5.891,2.559 1.221,11.054 12.912,16.762 19.777,9.656 3.582,-3.709 3.743,-9.172 0.727,-24.844 -3.126,-16.251 -2.907,-21.167 1.142,-25.734 0.521,-0.587 1.059,-1.132 1.594,-1.672 0.901,-0.84 1.794,-1.707 2.709,-2.498 1.21,-0.985 2.24,-1.646 2.789,-1.707 1.151,-0.127 3.098,11.88 4.334,26.682 2.122,25.453 2.637,26.923 9.471,27.136 10.578,0.332 16.19,-13.55 17.144,-42.445 0.449,-13.618 2.035,-24.893 3.522,-25.057 z m 21.967,120.121 c -5.303,0.586 -11.574,11.396 -9.235,15.932 3.228,6.249 10.698,4.919 13.498,-2.41 2.499,-6.535 0.143,-14.009 -4.263,-13.522 z m 26.134,6.989 c -6.304,0.697 -13.615,11.656 -10.365,15.818 1.435,1.831 4.98,2.6 7.887,1.709 6.697,-2.061 9.088,-18.257 2.478,-17.527 z m -44.142,1.379 c -1.758,-0.727 -3.818,2.279 -3.16,8.238 0.622,5.63 3.873,8.443 7.092,9 5.45,0.943 8.538,-1.998 3.675,-3.859 -3.005,-1.15 -5.174,-3.441 -5.422,-7.872 -0.184,-3.291 -1.13,-5.071 -2.185,-5.507 z m -32.391,15.423 c 0.42,0.04 0.784,0.192 1.086,0.434 1.206,0.97 0,2.217 -3.945,4.82 -6.844,4.527 -6.947,4.45 -2.201,-1.763 2.047,-2.68 3.801,-3.605 5.06,-3.491 z m 28.92,26.559 c 2.473,-0.144 3.925,2.138 6.362,4.549 -2.786,1.724 -8.303,3.656 -12.178,4.084 l -7.033,0.775 6.865,-6.031 c 2.651,-2.33 4.501,-3.29 5.984,-3.377 z m 6.938,78.691 c 11.578,0.107 102.426,55.252 102.842,59.016 0.646,5.843 -38.183,22.64 -59.868,30.227 -2.586,-12.351 -41.354,0.578 -34.892,12.859 -9.838,2.299 -22.985,7.742 -22.985,7.742 0,0 2.292,-30.623 6.635,-58.965 4.353,-28.339 7.019,-48.926 7.059,-50.134 0.02,-0.514 0.437,-0.752 1.209,-0.745 z" fill="#00B894" transform="translate(-98.452053,-166.91473) matrix(0.26458333,0,0,0.26458333,-12115.465,-4055.6276)"/>
</svg>