<?xml version="1.0" ?><svg height="171.60725mm" viewBox="0 0 94.888931 171.60725" width="94.888931mm" xmlns="http://www.w3.org/2000/svg">
    <path d="m 2465.1502,-994.55789 c -0.2235,0.003 -0.4477,0.009 -0.6729,0.0202 -14.411,0.68614 -26.5946,11.59811 -25.3648,34.32969 1.23,22.73158 16.2215,27.3137 30.3077,28.9295 18.1472,-3.82916 23.1831,-26.05194 21.7676,-37.05252 -1.3936,-10.8287 -11.9617,-26.39743 -26.0376,-26.22682 z m 0.2723,71.32381 c -0.5666,-5.4e-4 -1.1368,0.02 -1.7095,0.0625 -12.2176,0.90651 -24.2863,11.54919 -25.8532,21.75578 -1.5669,10.20658 -1.715,43.5964 -1.697,53.3833 1.0258,4.85148 3.9726,4.95204 13.1687,4.68344 9.1959,-0.26858 15.5379,5.60724 21.8054,5.79189 6.2674,0.18465 21.4888,-4.04576 21.9738,-7.47034 0.4849,-3.42458 -0.709,-7.95715 -0.3359,-15.32671 0.3731,-7.36954 0.2428,-41.34701 -2.8163,-47.94436 -2.9157,-6.28811 -13.0164,-14.92458 -24.536,-14.93553 z" fill="#FFFFFF" paint-order="markers stroke fill" transform="translate(-35.614868,195.29092) translate(-2382.1774,802.09031)"/>
    <path d="m 2463.9059,-997.38064 c -2.9317,-0.0191 -5.7697,0.42855 -8.2982,1.39423 -2.5836,0.98665 -7.483,4.30898 -10.8872,7.38353 -3.4043,3.07455 -7.3964,7.21475 -9.481,7.58868 -3.6891,0.66173 -3.7288,5.13833 -0.9597,4.56975 1.1491,-0.23596 1.7192,0.54021 -0.9425,2.61069 -3.0635,2.38281 -2.6088,7.63871 -1.0982,7.31118 0.7627,-0.16537 1.2859,0.66494 0.2873,2.55282 -0.3229,0.15053 -0.5233,0.30783 -0.556,0.47387 -0.2494,0.4243 -0.2812,0.83304 -0.1654,1.19528 -0.7848,2.67042 0.5534,4.69048 2.0656,4.11034 0.9297,-0.35701 1.4459,0.10369 1.4459,1.30483 0.015,2.92895 4.4201,11.6335 7.8816,15.57579 3.9122,4.45565 11.7278,9.54895 17.3473,11.30422 5.3579,1.67397 6.8337,1.71726 12.2375,0.35657 6.4238,-1.61753 11.843,-6.79597 16.076,-15.36082 2.6476,-5.35729 3.6768,-6.8592 3.8293,-6.81767 4.6311,1.26139 6.5665,-3.47997 0.8867,-4.55838 -0.3093,-0.0587 0.6966,-2.03094 0.6966,-3.14141 0,-1.11046 0.6656,-1.99884 1.4986,-1.99884 0.9348,0 2.5315,-1.33321 1.4997,-2.51199 -2.4752,-2.8278 -3.4291,-4.73445 -0.8501,-4.68034 1.8576,0.039 2.7088,-5.02493 -0.6687,-5.73247 -3.5962,-0.75334 -4.0129,-3.99458 -2.7874,-4.09742 2.3989,-0.2013 0.859,-3.8871 -2.4696,-5.2188 -2.3556,-0.94262 -4.1181,-3.39328 -5.8751,-5.20227 -5.1169,-5.26864 -13.2209,-8.36267 -20.713,-8.41137 z m -1.2216,6.01617 c 0.5427,0.004 1.0989,0.035 1.6759,0.0894 5.9395,0.57088 17.8359,5.38063 15.4109,7.52202 -1.5291,1.35029 1.2177,2.538 2.7487,2.81533 2.5296,0.45822 2.2003,2.40385 -0.3685,2.42208 -1.8746,0.0133 -2.604,3.98381 1.9989,4.47466 4.4333,0.47277 4.2382,4.24293 4.147,7.34322 -0.561,0.0568 -1.1005,0.12007 -1.5684,0.17828 -0.3176,-1.73022 -1.0076,-3.30584 -1.7942,-4.45296 -1.3535,-1.97369 -4.0335,-3.42695 -5.6441,-3.66437 h -5e-4 c -0.7317,-0.10813 -1.5047,-0.11403 -2.3296,-0.0899 -2.6407,0.078 -4.8903,1.36431 -6.5913,3.19361 -1.7009,1.82918 -1.9303,0.26771 -3.3398,-0.99529 -1.4095,-1.2631 -3.9837,-3.36477 -7.951,-2.63447 -3.9676,0.7302 -8.3314,3.24874 -9.063,8.21294 0,0 -0.037,0.34448 -0.075,0.84698 -1.7136,0.0962 -4.7174,0.28368 -7.784,0.56172 3.6463,-0.97895 7.1468,-10.58302 3.9744,-10.37095 -0.8297,0.51274 -1.5449,-0.32423 -0.3483,-1.1901 2.2266,-1.6112 2.7174,-3.55056 1.001,-4.28036 0.1967,-2.5859 2.8749,-5.06408 8.9374,-8.26978 2.5072,-1.24153 4.6115,-1.7289 6.9634,-1.71204 z m 0.9581,8.04654 c -1.6649,-0.002 -3.3341,0.13878 -5.0297,0.61288 -3.594,1.04913 -2.1651,1.93336 0.042,1.55287 1.3741,-0.23693 6.1129,-0.63677 9.2971,-0.43408 4.7337,0.30133 5.1275,-0.40061 5.4332,-0.89555 0.1997,-0.32319 -0.3551,-0.47676 -1.3554,-0.49971 -2.8501,0.0714 -5.6123,-0.33226 -8.3871,-0.33641 z m 7.3148,4.07365 c -3.8498,0.0186 -8.05,0.38397 -11.9223,0.42426 -4.2035,-0.0151 -1.8103,1.44689 0.021,1.50689 1.8281,0.0599 12.0411,0.22606 14.5273,-0.69815 1.0691,-0.39736 0.7826,-0.74665 -0.9994,-1.2175 -0.5336,-0.0134 -1.0764,-0.0182 -1.6263,-0.0155 z m 6.7944,7.48843 c 0.198,7e-5 0.3979,0.0122 0.5994,0.0408 1.916,0.272 4.7514,2.07864 5.0902,4.06642 0.5292,3.103 0.3513,5.47352 -1.447,7.12412 -4.5154,4.39758 -11.4351,0.71114 -11.2913,-3.21066 0.2876,-4.36419 1.8784,-6.89682 4.6178,-7.59489 0.7511,-0.19139 1.5727,-0.42613 2.4309,-0.42581 z m -18.4387,0.0718 c 0.3221,0.007 0.643,0.0323 0.9602,0.0749 1.8542,0.2495 3.5705,1.0818 4.5,2.1208 1.5655,1.7498 1.1395,6.02285 -0.3504,7.49205 -0.3395,0.33475 -0.7844,0.69446 -1.2961,1.03715 0.2881,-0.7409 -0.2947,-1.89761 -1.5306,-1.2237 -0.9494,0.51769 -2.3997,-0.16753 -3.6484,-1.1188 -0.2657,-0.20245 -0.5951,-0.28001 -0.9183,-0.26303 -0.9696,0.051 -1.8815,0.95577 -0.8345,1.91513 1.573,1.44139 4.0287,1.74943 5.5919,1.45056 -1.5641,0.74004 -3.428,1.12345 -5.0457,0.3731 -2.7394,-1.2705 -4.0677,-3.9556 -3.9388,-5.2772 0.1659,-1.70098 0.7482,-4.85698 3.6783,-6.07818 0.8928,-0.37215 1.8663,-0.52276 2.8324,-0.50281 z m 1.8061,1.53272 c -0.2414,-0.004 -0.5086,0.0236 -0.8072,0.0816 -1.8158,0.35435 -2.794,3.50798 -1.2454,5.37435 0.6897,0.82708 2.1914,1.58139 3.6381,0.44804 1.1997,-1.19913 1.1106,-2.65975 0.5095,-4.10415 -0.4921,-1.18265 -1.0492,-1.78305 -2.095,-1.79989 z m 14.0204,0.16382 c -0.1407,-0.003 -0.2894,9.1e-4 -0.447,0.0124 -1.4025,0.10224 -2.6697,1.89249 -2.0847,4.90823 0.2619,1.35009 2.1426,1.83865 3.1502,1.83865 1.263,0 1.8793,-0.739 1.8319,-2.37609 -0.078,-2.68298 -0.34,-4.33821 -2.4504,-4.38319 z m 4.2162,6.52415 c -0.3611,-0.003 -0.7757,0.15124 -1.1069,0.48834 -0.9077,0.99512 -1.9213,1.43964 -3.0742,1.30896 -1.3779,-0.15618 -2.0247,2.35424 0.6408,1.80765 1.0878,-0.22307 3.1253,-0.97565 3.7057,-1.57304 1.1668,-1.25678 0.6292,-2.02508 -0.1654,-2.03191 z m 8.8507,0.0305 c -0.1996,3.3864 -0.8117,5.11482 -1.0129,5.05085 -0.9912,-0.33115 -1.8116,-0.40395 -2.4634,-0.30799 1.2863,-1.44501 1.9167,-3.08253 2.113,-4.71858 0.4371,-0.008 0.8897,-0.016 1.3633,-0.0243 z m -38.2887,0.51883 c 0.05,0.5929 0.1417,1.1496 0.2992,1.5844 0.6466,1.7852 3.8687,4.41344 6.7299,5.16144 2.8611,0.748 7.3592,-1.13738 8.5002,-2.52078 1.1412,-1.3834 1.2167,-2.44048 3.2634,0.1757 3.3594,4.2945 9.6929,3.98448 14.3976,1.03405 -0.2809,1.01325 0.4301,2.45281 2.3466,3.60908 0.1346,0.0812 -6.0671,13.10404 -11.7047,15.7794 v -0.002 c -10.0557,4.77185 -25.3253,-2.5405 -31.071,-14.87919 -1.2139,-2.60718 -2.06,-6.08151 -2.3249,-8.71678 3.7146,-0.47312 7.9544,-1.01808 9.5637,-1.22525 z m 25.1902,12.73049 c -0.594,-0.036 -1.6368,0.5679 -3.1734,1.86087 -4.016,3.37937 -8.9547,4.11096 -13.9258,-0.11111 -2.9848,-2.53501 -5.6617,-2.39083 -3.3791,1.40147 l 0.2129,0.3545 c 3.5616,5.917 15.0049,8.33085 20.423,-0.29663 0.6274,-2.0587 0.6062,-3.16281 -0.1576,-3.2091 z m -11.0784,24.45794 c -21.6288,-0.36261 -43.9014,30.28667 -45.9388,64.1289 -0.5646,9.37892 -0.463,10.18831 1.5012,11.94759 1.7613,1.57639 3.1805,1.88621 8.5923,1.36684 4.7039,-0.45143 6.1913,-0.95498 6.1913,-0.95498 -0.01,3.4327 4.1224,3.30788 4.3212,-0.76119 0.021,-0.42417 1.518,-0.24781 6.1263,-1.75855 l 5.9376,-1.94665 2.0722,3.35328 c 2.5431,4.11521 7.6344,8.09979 12.6251,9.88053 v -5.1e-4 c 6.8311,2.43784 12.0598,1.31821 9.311,-1.99368 -0.8535,-1.02869 -0.621,-1.4598 1.0186,-1.88877 3.3171,-0.86713 1.715,-3.01462 -3.1554,-4.22972 l -4.424,-1.10381 3.3988,-0.52451 c 2.4377,-0.37588 3.8982,-0.0251 5.1645,1.24126 1.0738,1.07364 4.0507,2.0129 7.5949,2.39676 3.2057,0.34673 7.1055,0.81338 7.1055,0.81338 0.3125,4.26069 4.9186,3.30391 5.3335,-0.36431 0,0 4.0133,-0.54744 7.2264,-1.50586 7.148,-2.13177 8.6496,-3.53407 8.6496,-8.08116 0,-12.1368 -16.5641,-52.86477 -24.8832,-61.18386 -4.1987,-4.19866 -13.0178,-7.73746 -21.6783,-8.69818 -0.6957,-0.0772 -1.3926,-0.1211 -2.0903,-0.1328 z m 2.528,5.84667 c 2.2899,0.0627 4.7226,0.57587 7.9696,1.5198 8.8148,2.56243 13.3622,8.69543 15.2962,20.6282 0.5546,3.42021 0.7676,7.43314 0.4744,8.9178 -0.2932,1.48451 -0.074,7.78092 0.4863,13.9914 0.5602,6.21093 0.3762,13.63329 0.3932,16.53955 l 0.029,5.00073 c 4e-4,0.0614 -1.0036,0.24598 -2.5823,0.24598 -1.447,0 -1.927,-0.7007 -1.927,-2.81636 0,-4.62165 -2.8697,-12.8673 -5.6126,-16.12718 -2.8294,-3.36314 -4.5151,-3.27151 -3.6086,0.19533 0.5586,2.13639 0.4349,2.11107 -2.7357,-0.55707 -4.2722,-3.59466 -6.2312,-2.17467 -3.0887,2.23862 2.5972,3.64713 2.3186,3.7539 -2.4505,0.94 -2.591,-1.52867 -3.9251,-1.82853 -4.6979,-1.05575 -0.7729,0.77278 -0.1872,1.82986 2.0624,3.72277 1.7278,1.45412 3.1419,2.94864 3.1419,3.32176 0,0.37281 -2.1367,0.58798 -4.7475,0.48059 -5.5758,-0.23228 -12.0774,1.25577 -14.3536,3.28507 -0.8865,0.79043 -3.8931,1.52878 -6.6219,2.03037 l -4.9805,0.91519 0.3261,-7.19284 c 0.1955,-3.7786 0.5525,-12.49169 0.7932,-19.36265 0.7556,-21.56652 5.0513,-30.43075 16.8791,-34.82733 3.9026,-1.45078 6.6113,-2.11463 9.5554,-2.03398 z m -32.0765,26.1059 c 0.5908,-0.0322 0.6731,2.63298 0.496,10.47636 -0.1473,6.47466 -0.7927,23.11889 -0.9684,27.60142 -0.023,0.58589 -0.4534,0.44575 -3.4835,1.05161 -6.4356,1.28705 -6.8748,1.02961 -6.2006,-3.63854 2.1592,-14.94869 6.5178,-30.76699 9.6629,-35.06814 0.1936,-0.26428 0.3573,-0.41526 0.4936,-0.42271 z m 33.4284,6.75772 c -2.3072,0 -9.1935,3.5169 -9.1953,4.69532 0,0.29455 1.0123,0.21479 2.2484,-0.17621 1.2369,-0.39122 4.1727,-1.25517 6.5247,-1.91978 4.4541,-1.25898 4.6718,-2.59933 0.4222,-2.59933 z m 28.1244,2.22674 h 5e-4 c 0.5931,0.0118 2.2517,3.8717 4.4896,10.76575 1.6951,5.22184 3.2133,11.74289 3.3719,14.49111 h -0.011 l 0.2899,4.99711 -3.7471,0.31006 -3.7475,0.31006 v -11.8029 c -0.01,-6.49169 -0.2898,-13.60244 -0.63,-15.8011 -0.3442,-2.22315 -0.3266,-3.27424 -0.017,-3.27009 z m -26.8924,4.76922 c -4.9802,0 -9.3649,2.5159 -9.4129,5.40174 -0.01,0.49739 0.8043,0.16273 1.8066,-0.74414 1.002,-0.90703 3.9257,-1.93769 6.4963,-2.28979 5.4944,-0.7533 6.2513,-2.36781 1.11,-2.36781 z m -4.8721,22.02243 c 1.6813,-0.0196 3.9302,0.6246 4.9971,1.43144 v -10e-4 c 1.8722,1.41589 1.8527,1.46348 -0.5586,1.46348 -1.3741,-0.002 -3.6229,-0.64629 -4.9971,-1.43196 l -2.4986,-1.42833 z m -8.0341,19.38848 c -0.1797,-0.008 -0.3034,0.0145 -0.3592,0.0703 -0.7499,0.74992 1.7555,3.07261 5.3361,4.94802 1.6489,0.86346 3.8624,1.4506 4.9186,1.30638 2.5071,-0.34458 3.2964,-2.75725 0.9116,-2.78485 -1.008,-0.0118 -3.8107,-0.91945 -6.2286,-2.01641 -1.9646,-0.89128 -3.7996,-1.48982 -4.5785,-1.52342 z m 0.9369,8.98963 c -0.3134,0.008 -0.4574,0.20147 -0.4574,0.58188 0,0.59558 1.4135,1.67696 3.1404,2.40295 v 5.2e-4 c 3.159,1.32848 6.4207,1.09228 7.428,-0.53795 0.2986,-0.48328 -1.087,-0.8785 -3.0794,-0.8785 -1.9925,0 -4.4922,-0.4657 -5.5557,-1.03456 -0.679,-0.36389 -1.1624,-0.54211 -1.4759,-0.53434 z" fill="#00B894" transform="translate(-35.614868,195.29092) translate(-2382.1774,802.09031)"/>
</svg>