<?xml version="1.0" ?><svg height="178.08051mm" viewBox="0 0 94.823395 178.08051" width="94.823395mm" xmlns="http://www.w3.org/2000/svg">
    <path d="m 2877.9253,-1004.1485 c -0.2234,0 -0.4477,0.01 -0.6728,0.02 -14.411,0.6861 -26.5947,11.59822 -25.3649,34.32974 1.23,22.73158 16.2215,27.31319 30.3077,28.92899 18.1472,-3.82917 23.1832,-26.05143 21.7677,-37.052 -1.3937,-10.82871 -11.9617,-26.39753 -26.0377,-26.22683 z m 2.8277,76.33126 c -0.5665,-5.4e-4 -1.1367,0.02 -1.7094,0.0625 -12.2176,0.90651 -24.2863,11.54919 -25.8532,21.75578 -1.5669,10.20658 -1.7151,43.5964 -1.6971,53.3833 1.0258,4.85148 3.9732,4.95204 13.1692,4.68344 9.1959,-0.26858 15.5379,5.60724 21.8054,5.79189 6.2674,0.18465 21.4884,-4.04577 21.9734,-7.47034 0.4849,-3.42458 -0.709,-7.95715 -0.3359,-15.32672 0.3731,-7.36953 0.2427,-41.34649 -2.8164,-47.94384 -2.9157,-6.2881 -13.0163,-14.92509 -24.536,-14.93604 z" fill="#FFFFFF" paint-order="markers stroke fill" transform="translate(-177.85521,228.73093) translate(-2654.2495,780.8005)"/>
    <path d="m 2878.6483,-1009.5311 c -1.4831,0.019 -3.0561,0.8228 -4.4354,2.4091 -2.2289,2.5635 -2.832,2.7462 -9.6599,2.9048 -3.6003,0.085 -4.0288,0.3773 -4.532,3.0918 -0.4934,2.66352 -0.9145,2.97092 -3.7486,2.74712 -3.0632,-0.2409 -3.3502,0.0709 -7.0906,7.7018 l -3.8979,7.95252 -0.1271,15.70136 c -0.1393,17.25465 -0.6123,19.85328 -5.7325,31.49885 -2.1522,4.89476 -3.659,10.11981 -3.9367,13.64052 -0.8005,10.18333 -0.044,14.2012 2.6732,14.2012 1.3327,0 1.8852,-0.71551 1.8852,-2.43965 0,-1.34167 0.3951,-2.68369 0.8779,-2.98225 0.483,-0.29854 1.0981,-3.13566 1.3643,-6.30504 0.3089,-3.66215 1.6484,-8.13027 3.6742,-12.25868 1.7533,-3.57272 2.927,-5.64424 2.6091,-4.60282 -1.1767,3.85164 -2.4872,15.54099 -1.911,17.04237 0.7082,1.84566 3.4956,2.03531 5.1785,0.35243 0.6594,-0.65971 1.1994,-2.94681 1.1994,-5.08289 0,-2.13624 0.879,-7.10571 1.9529,-11.04325 1.0739,-3.93771 2.223,-8.46164 2.5533,-10.05262 0.4579,-2.20267 0.8793,-2.61484 1.7663,-1.72806 0.8871,0.88692 0.7546,3.15864 -0.555,9.52087 -0.9459,4.59557 -1.7198,9.68858 -1.7198,11.31713 0,1.66846 -0.8525,3.73294 -1.9518,4.72788 -2.7717,2.50828 -11.3029,15.08472 -14.3965,21.22248 -4.2749,8.48127 -7.6209,21.69583 -8.2848,32.721 -0.5647,9.37897 -0.4627,10.18806 1.5017,11.94759 1.761,1.57625 3.1723,1.80197 8.5918,1.36684 5.7304,-0.46008 6.5538,-0.30202 7.0812,1.36064 0.8256,2.6009 2.3043,2.35482 3.022,-0.50333 0.4642,-1.85103 1.9272,-2.82071 6.5355,-4.33151 l 5.9377,-1.94717 2.0727,3.3538 c 2.5431,4.11482 7.6338,8.09895 12.6246,9.88001 l -6e-4,-10e-4 c 6.8311,2.43773 12.0599,1.31801 9.3111,-1.99368 -0.8535,-1.02891 -0.6211,-1.46014 1.0185,-1.88877 3.3171,-0.86744 1.7151,-3.01519 -3.1553,-4.23023 l -4.424,-1.10329 3.3987,-0.52452 c 2.438,-0.37622 3.8983,-0.025 5.1646,1.24127 1.0736,1.07369 4.0505,2.01318 7.5948,2.39675 3.2057,0.34704 6.6777,1.10106 7.7158,1.67587 1.2899,0.71539 2.5549,0.72418 3.9972,0.0284 1.1606,-0.55979 4.7394,-1.80218 7.9525,-2.76055 3.2131,-0.9581 6.4732,-2.37358 7.2456,-3.14555 1.8218,-1.82102 1.7831,-7.00912 -0.107,-14.303 -2.014,-7.77216 -10.0061,-28.9792 -13.671,-36.27789 -2.7814,-5.53866 -2.846,-5.94529 -1.234,-7.72666 1.4026,-1.54987 1.4769,-2.15174 0.4222,-3.42253 -0.7028,-0.84796 -1.0357,-1.78608 -0.737,-2.08463 1.0246,-1.0247 -1.4792,-7.90824 -5.2379,-14.39964 -4.5224,-7.81113 -5.3877,-10.36812 -4.5857,-13.56403 0.7008,-2.79241 2.5574,-3.2798 2.5864,-0.67747 0.01,0.96194 1.9833,5.01806 4.3868,9.01392 2.6218,4.35899 4.6539,9.15661 5.0793,11.99306 0.3898,2.60034 1.2045,5.62679 1.8112,6.72621 0.6061,1.09926 1.2069,2.61993 1.3312,3.3786 0.443,2.67475 2.2812,3.63027 3.8892,2.0221 1.2851,-1.28505 1.3461,-2.68142 0.4118,-9.39943 -1.2177,-8.75328 -3.3764,-13.74558 -8.3385,-19.28254 -6.2942,-7.023 -8.1459,-12.92969 -4.825,-15.38872 5.9999,-1.92846 6.3605,-4.93734 0.9687,-6.51021 0.039,-3.29809 1.294,-8.69803 1.7314,-11.03188 0.8614,-4.59664 -0.8416,-12.75348 -2.928,-14.02287 -0.6528,-0.3972 -1.4803,-1.5194 -1.8387,-2.4939 -0.3583,-0.9743 -1.448,-2.0268 -2.4225,-2.3389 -4.4931,-1.4397 -6.4414,-2.9969 -6.9536,-5.55783 -0.6022,-3.012 -3.664,-4.6065 -5.6617,-2.9482 -1.8148,1.506 -5.3084,0.2902 -7.1226,-2.4784 -1.0197,-1.5563 -2.4128,-2.3233 -3.8958,-2.3047 z m -5.425,10.00502 c 0.7619,-0.0644 0.797,0.607 0.817,2.6485 0.021,4.1251 1.0138,7.04217 2.606,7.65324 2.1908,0.84091 5.3754,-3.01654 5.3754,-6.51124 0,-2.4214 0.3487,-2.9716 1.5813,-2.4985 0.8694,0.3345 1.7366,0.6066 1.9265,0.6066 0.1889,0 0.096,2.4042 -0.2072,5.3423 -0.4363,4.22852 -0.2322,5.46463 0.9782,5.92888 1.7329,0.66523 4.1448,-1.68222 5.1635,-5.02448 0.3768,-1.2369 1.0747,-2.249 1.5503,-2.249 1.5569,0 2.0851,3.71345 0.8987,6.31746 -2.1559,4.73182 1.6899,7.96749 4.6663,3.92638 1.2186,-1.65542 1.3268,-1.64837 2.0149,0.12764 0.5233,1.35041 0.052,2.38982 -1.6779,3.70572 -1.9802,1.50628 -2.2034,2.14473 -1.2666,3.61941 0.6258,0.98511 1.8875,1.7257 2.8039,1.6428 1.287,-0.11445 2.0444,0.40409 1.6596,2.78496 -0.2005,1.24034 -0.3132,3.61945 -0.3132,3.61945 -2.2206,-1.84319 -9.4421,1.68174 -1.9348,6.02258 0.5305,0.30671 -0.4386,1.25894 -4.7146,7.87461 -2.5041,3.87404 -5.1029,6.56202 -7.397,7.6507 l -5e-4,-5.2e-4 c -9.8464,4.67229 -24.9124,-1.93356 -30.8198,-13.51287 -1.3353,-2.61737 -1.8325,-4.9174 -1.4185,-6.56652 0.3501,-1.39582 0.1968,-2.80998 -0.3411,-3.14245 -0.538,-0.33261 -1.2969,-1.94879 -1.6862,-3.59254 -0.5833,-2.46149 -0.4737,-2.76806 0.6207,-1.73891 0.7305,0.68701 2.1,1.24953 3.0437,1.24953 0.9434,0 1.9174,-0.56252 2.1611,-1.24953 0.5561,-1.55769 -1.9839,-6.74585 -3.3026,-6.74585 -1.2025,0 -1.2207,-1.058 -0.048,-2.91041 0.7551,-1.19362 1.1503,-1.15519 2.5544,0.24908 0.9138,0.91362 2.5289,1.66139 3.5889,1.66139 1.4845,0 1.927,-0.70412 1.927,-3.06389 0,-1.68503 -0.4859,-3.97228 -1.08,-5.08292 -1.8705,-3.4935 0,-3.3643 3.0902,0.2155 2.8778,3.33125 3.013,3.37663 4.4762,1.49553 1.7559,-2.25773 1.8584,-3.50703 0.5664,-6.90503 -0.7275,-1.9139 -0.5949,-2.6118 0.5819,-3.0634 0.7135,-0.2736 1.2096,-0.4548 1.556,-0.4842 z m 9.9027,23.23273 c -0.1247,8.8e-4 -0.2527,0.01 -0.3845,0.0274 -1.9053,0.25355 -2.029,3.04662 -1.6676,4.81469 0.2755,1.34739 2.1426,1.83865 3.1502,1.83865 1.263,0 1.8325,-0.73831 1.8325,-2.37608 0,-2.49564 -1.0609,-4.31777 -2.9306,-4.30465 z m -9.4914,0.0274 c -0.1524,-9.2e-4 -0.303,0.0138 -0.4496,0.045 -1.8096,0.38484 -2.794,3.50798 -1.2454,5.37435 0.6897,0.82708 2.1913,1.5814 3.638,0.44803 1.1997,-1.19914 0.8832,-2.58506 0.5091,-4.10414 -0.2463,-0.99991 -1.3855,-1.75672 -2.4521,-1.7632 z m 15.8822,17.56533 c -0.594,-0.036 -1.6368,0.5679 -3.1734,1.86087 -4.016,3.3794 -8.9547,4.11097 -13.9258,-0.1111 -2.9848,-2.53502 -5.6618,-2.39084 -3.3791,1.40146 l 0.2129,0.3545 c 3.5617,5.91703 15.005,8.33089 20.4231,-0.29662 0.6274,-2.05872 0.6061,-3.16282 -0.1577,-3.20911 z m -36.5884,4.04627 c 0.1734,-0.0495 0.3395,0.22333 0.5183,0.77205 0.4686,1.43939 -0.049,4.64036 -1.4149,8.74468 h 5e-4 c -1.1851,3.56091 -2.391,6.47402 -2.6799,6.47402 -0.2892,0 -0.2064,-0.78678 0.1839,-1.74873 0.3902,-0.96179 1.2635,-4.89704 1.9405,-8.74468 0.6544,-3.71965 1.07,-5.38833 1.4516,-5.49734 z m 12.1465,11.99358 c 0.6556,0 0.9339,2.66654 0.7498,7.16546 -0.2074,5.05906 -0.706,7.30195 -1.6949,7.62951 -1.0918,0.36114 -1.257,-0.25559 -0.7493,-2.79363 0.3584,-1.7915 0.6511,-5.22412 0.6511,-7.62899 0,-2.40488 0.4693,-4.37235 1.0433,-4.37235 z m 29.2959,1.44074 c 0.4509,-0.0468 0.6423,0.22309 0.6423,0.82527 0,0.73535 1.8142,5.08932 4.0318,9.67538 4.1764,8.63638 4.8403,11.7042 1.5901,7.35149 -1.0301,-1.38003 -3.3487,-3.12612 -5.1526,-3.87986 -3.0816,-1.28767 -3.3003,-1.70913 -3.6236,-6.99234 -0.2787,-4.55922 -0.013,-5.79948 1.4051,-6.55723 0.4724,-0.2525 0.8364,-0.39465 1.1069,-0.42271 z m -21.4039,2.55643 c 1.5929,0 2.0768,1.65592 1.4289,4.8948 -0.8811,4.40548 -2.3688,3.84176 -2.3688,-0.89711 0,-2.19867 0.4225,-3.99769 0.9399,-3.99769 z m 11.0159,1.2852 c 0.9196,-0.0383 1.0361,0.71817 1.0361,3.14503 0,4.33997 -2.5324,4.91997 -4.0499,0.9281 -1.1417,-3.0026 -1.2001,-2.87967 1.801,-3.80235 0.5105,-0.1568 0.9063,-0.25803 1.2128,-0.27078 z m -4.0556,11.82046 c 2.5677,-0.0678 5.2166,0.44814 8.9122,1.52239 8.8147,2.56275 13.3627,8.69572 15.2967,20.6282 0.5545,3.42053 0.7676,7.43345 0.4744,8.9178 -0.2934,1.48481 -0.074,7.78128 0.4863,13.99191 0.56,6.21065 0.7375,13.65343 0.3927,16.53905 v 5.1e-4 c -0.5133,4.29868 -0.9748,5.24671 -2.5533,5.24671 -1.4471,0 -1.927,-0.70125 -1.927,-2.81688 0,-4.62165 -2.8692,-12.86678 -5.6121,-16.12667 -2.8296,-3.36329 -4.5156,-3.27183 -3.6091,0.19534 0.5587,2.13639 0.4352,2.11092 -2.7357,-0.55707 -4.2723,-3.59497 -6.2313,-2.17489 -3.0887,2.23811 2.5969,3.64743 2.3188,3.75359 -2.4505,0.93999 -2.5909,-1.52899 -3.9249,-1.82853 -4.6979,-1.05575 -0.7728,0.77278 -0.1867,1.83023 2.0629,3.72329 1.7278,1.45413 3.1414,2.94843 3.1414,3.32124 0,0.37278 -2.1363,0.58829 -4.747,0.48059 -5.5758,-0.2323 -12.0779,1.25555 -14.3542,3.28507 -0.8864,0.79038 -3.866,1.7043 -6.6213,2.03037 l -5.0095,0.59325 0.355,-6.87039 c 0.1954,-3.77891 0.5519,-12.49198 0.7928,-19.36264 0.7569,-21.61074 5.0516,-30.38832 17.0677,-34.88417 3.37,-1.2609 5.8566,-1.91245 8.4242,-1.98025 z m -31.134,26.10849 c 0.5907,-0.0322 0.6729,2.63297 0.4956,10.47636 -0.147,6.47499 -0.5238,15.43366 -0.8377,19.90835 -0.5684,8.10353 -0.5836,8.13895 -3.6137,8.7452 -6.4355,1.28671 -6.8744,1.02905 -6.2001,-3.63905 2.1592,-14.94877 6.5173,-30.76699 9.6624,-35.06815 0.1935,-0.26422 0.3572,-0.41529 0.4935,-0.42271 z m 33.429,6.75824 c -2.3067,0 -9.1927,3.51509 -9.1963,4.69429 v 5.2e-4 c 0,0.29429 1.0127,0.2153 2.2489,-0.1757 1.2366,-0.39122 4.1729,-1.25537 6.5247,-1.9203 4.4543,-1.25898 4.6725,-2.59881 0.4227,-2.59881 z m 28.1244,2.22622 c 0.5925,0.0101 2.251,3.8701 4.4896,10.76575 1.6953,5.22185 3.2137,11.74312 3.3724,14.49163 h -0.011 l 0.2904,4.99659 -3.7476,0.31006 -3.7481,0.31006 v -11.8029 c -0.01,-6.49171 -0.2891,-13.60211 -0.6294,-15.8011 -0.3443,-2.2243 -0.3264,-3.27538 -0.016,-3.27009 z m -26.8924,4.76922 c -4.9803,0 -9.3654,2.51641 -9.4134,5.40226 -0.01,0.49738 0.8043,0.16221 1.8066,-0.74466 1.002,-0.90672 3.9254,-1.93738 6.4962,-2.28978 5.4944,-0.75299 6.2518,-2.36782 1.1106,-2.36782 z m -4.8726,22.02243 c 1.6813,-0.0195 3.93,0.62484 4.9971,1.43195 v 10e-4 c 1.8723,1.41557 1.8529,1.46399 -0.5586,1.46399 -1.3742,-0.002 -3.6229,-0.64666 -4.9971,-1.43195 l -2.4981,-1.42834 z m -8.1949,19.39055 c -0.094,0.008 -0.1612,0.031 -0.1984,0.0682 -0.7497,0.74988 1.756,3.07289 5.3366,4.94802 1.6491,0.86347 3.862,1.4509 4.9181,1.30638 2.5072,-0.34477 3.2964,-2.75593 0.9115,-2.78433 -1.0076,-0.0122 -3.8106,-0.91951 -6.2285,-2.01641 -2.1157,-0.96005 -4.0814,-1.58113 -4.7393,-1.52187 z m 1.0982,8.98756 c -0.3135,0.008 -0.4574,0.20142 -0.4574,0.58188 0,0.59548 1.4129,1.67688 3.1399,2.40295 3.1593,1.32837 6.4209,1.09241 7.4285,-0.53795 0.2986,-0.48329 -1.0871,-0.8785 -3.0799,-0.8785 -1.9923,0 -4.4924,-0.4657 -5.5553,-1.03456 -0.6792,-0.36344 -1.1623,-0.54161 -1.4758,-0.53382 z" fill="#00B894" transform="translate(-177.85521,228.73093) translate(-2654.2495,780.8005)"/>
</svg>