<?xml version="1.0" ?><svg height="260.82458mm" viewBox="0 0 184.59703 260.82458" width="184.59703mm" xmlns="http://www.w3.org/2000/svg">
    <path color="#000" d="m 2202.6602,1853.0645 a 67.000618,67.727631 0 0 0 -67.002,67.7285 67.000618,67.727631 0 0 0 67.002,67.7265 67.000618,67.727631 0 0 0 67,-67.7265 67.000618,67.727631 0 0 0 -67,-67.7285 z m -32.5254,169.4433 c -22.1327,-0.1617 -20.4352,6.4686 -24.2793,19.6289 -3.6039,26.769 18.0355,185.6412 14.7734,247.375 -1.8153,34.353 -0.6109,41.2926 17.793,45.6524 20.0835,4.7578 72.1213,10.7563 85.6836,-7.0215 13.5622,-17.7777 25.0023,-184.2383 23.0859,-218.5996 -1.9165,-34.3613 -29.8691,-75.5196 -29.8691,-75.5196 0,0 -34.368,-7.5405 -72.2539,-10.7246 -5.9197,-0.4975 -10.835,-0.761 -14.9336,-0.791 z" fill="#FFFFFF" overflow="visible" paint-order="fill markers stroke" transform="translate(112.93168,7.2789445) matrix(0.27738268,0,0,0.27738268,-661.28544,-480.35566)"/>
    <path d="m 2391.832,1705.502 c -17.2599,0 -21.359,22.769 -8.459,47 6.519,12.248 7.2176,15.8083 3.9786,20.2832 -2.159,2.9853 -18.3117,25.9761 -35.8907,51.0918 -46.669,66.6681 -69.6445,97.7988 -72.3515,98.0234 -1.314,0.1089 -2.3887,-4.8888 -2.3887,-11.1074 0,-51.3612 -79.8289,-82.7361 -119.084,-46.3907 -19.8562,18.3844 -33.1551,55.1344 -22.5879,82.252 3.43,8.2086 3.8238,12.2435 1.3438,13.7773 -1.931,1.1929 -18.2601,3.1235 -36.2871,4.2891 -48.517,3.1364 -106.7225,15.2282 -118.8184,25.0801 -6.1469,5.0065 -5.5843,18.5636 0,23.6992 7.8643,7.2323 63.101,13.0322 112.252,13.5977 28.012,0.3221 35.5573,1.8473 51.6211,1.2714 -10.3633,16.6563 -8.0178,63.5889 -2.5801,85.1309 7.081,27.8048 11.3414,79.9815 11.4414,139.8652 0.11,71.6392 -4.3947,209.9175 -7.8887,242.0782 -1.808,16.643 -4.1387,48.7499 -5.1797,71.3476 -2.104,45.6445 -2.5382,46.5501 -30.7812,64.5352 -6.633,4.2249 -11.2051,9.0648 -10.1621,10.7539 3.747,6.0622 17.4286,2.8949 28.1464,-6.5156 6.0312,-5.2962 12.9795,-8.7953 15.5235,-7.8184 9.372,3.5956 12.035,-6.9869 13.75,-54.6152 0.94,-26.085 3.0362,-61.7602 4.6562,-79.2793 1.619,-17.5188 3.8634,-58.7282 4.9864,-91.5762 2.191,-64.1082 1.8229,-63.0193 19.0429,-56.4727 12.417,4.7216 36.7542,4.576 50.2422,-0.3007 8.447,-3.0549 12.655,-3.2634 15.166,-0.752 3.437,3.438 8.6115,32.2529 21.8965,122.0273 9.787,66.1175 22.685,147.2001 24.418,153.4903 0.817,2.9576 23.4686,13.5077 29.9316,15.6406 14.2454,4.7744 30.5725,18.2903 34.9688,2.3496 0,-4.6314 -6.0064,-8.9462 -23.6094,-16.9687 -25.299,-11.5295 -26.1687,-12.6954 -30.5137,-40.9707 -9.866,-64.158 -13.6564,-87.4766 -19.2304,-118.3204 -3.481,-19.2708 -7.1713,-42.9214 -8.1993,-52.5566 -2.503,-23.4741 -4.8659,-41.5357 -10.8789,-71.0215 3.9382,-17.5724 5.2751,-25.8872 9.6309,-53.291 4.8443,-30.477 15.554,-94.5868 14.082,-144.8398 -1.335,-45.6509 -4.9428,-69.7528 -12.6738,-84.7032 -2.802,-5.4195 -4.2696,-10.6766 -3.2656,-11.6816 29.1898,39.6531 37.1894,64.8159 70.2558,117.0879 14.3171,21.793 27.0184,47.3928 38.043,67.7851 l 15.1309,27.9707 -11.2578,12.461 c -12.477,13.8098 -20.4907,36.788 -15.5547,44.6094 5.654,8.965 13.865,5.5258 18.4179,-7.7129 5.53,-16.0897 15.0466,-28.812 21.5586,-28.836 2.805,-0.01 8.7699,-5.0326 13.2539,-11.164 4.484,-6.1317 20.8359,-23.3318 36.3379,-38.2227 49.484,-47.5353 84.2781,-110.0783 94.1641,-169.2637 1.316,-7.8824 3.9505,-12.1195 8.2285,-13.2382 3.665,-0.9584 8.7637,-9.2348 8.7637,-13.0098 0,-3.5645 -0.6964,-12.3905 1.1426,-13.5273 2.066,-1.2762 3.9088,-16.0892 -4.8204,-31.7657 0,0 9.8787,-1.2162 14.918,-0.5722 4.4918,0.574 1.6161,10.6462 4.2441,10.3554 10.964,-1.2138 30.7821,-7.8438 45.3282,-11.4043 20.2692,-6.0909 -14.3833,-13.8743 -34.6172,-20.3574 -11.186,-6.3935 -15.0814,0.9926 -17.4414,8.4277 -1.376,4.3359 -7.705,3.4903 -13.668,3.4903 -7.859,0 -9.7228,-5.8167 -14.8418,-22.0606 -17.48,-55.4477 -40.907,-90.5375 -99.957,-149.707 -30.762,-30.8261 -38.078,-39.8498 -36.668,-45.2383 1.015,-3.8832 0.2551,-6.7304 -1.7969,-6.7305 -1.956,0 -3.5566,-3.5832 -3.5566,-7.9628 0,-6.301 -1.6099,-7.9649 -7.7109,-7.9649 -5.965,0 -8.1811,-2.1483 -9.7911,-9.4844 -1.147,-5.2162 -1.166,-12.3825 -0.041,-15.9257 1.585,-4.9972 0.6175,-6.4414 -4.3125,-6.4414 z m 0.6563,63.705 c 0.602,0 17.7001,16.8413 37.9941,37.4258 42.198,42.8057 71.2088,77.4492 83.0078,99.127 12.497,22.9624 27.5789,54.2387 30.7422,71.3769 -12.6466,0.4687 -17.9689,0.8067 -30.9629,0.8067 -59.7571,0.273 -110.2039,1.4591 -163.9922,1.3613 -58.121,-0.074 -70.3968,4.5471 -63.7968,-6.1016 5.734,-9.2512 4.911,-17.421 -2.416,-24.0527 -5.986,-5.4183 -6.0567,-6.1634 -1.0977,-11.6426 3.3678,1.2376 15.9717,-6.5993 6.5234,-12.3223 -1.99,-0.5767 21.6254,-26.4988 38.1914,-49.2734 41.662,-57.2699 64.7071,-93.0434 64.7071,-100.4453 0,-3.4434 0.4946,-6.2598 1.0996,-6.2598 z m -187.2988,89.7696 c 15.9123,0.2823 32.0217,6.9877 44.289,18.9121 8.3644,8.1306 14.2715,26.3525 13.0703,33.5175 0.035,0.6435 0.073,1.2777 0.094,1.9571 0.2425,8.0287 -5.5909,16.1014 -10.4375,23.3476 -1.6095,2.5449 -4.6418,3.6799 -10.6309,4.6446 -13.903,2.2399 -19.0039,5.2435 -19.0039,11.1914 0,3.4101 -4.2976,4.5932 -16.7226,4.6172 -9.197,0.015 -24.1134,0.9162 -33.1504,2.0019 -16.092,1.9332 -16.5398,1.7598 -21.8028,-8.418 -10.827,-20.935 -3.626,-58.3025 15.4141,-76.6894 10.9544,-10.5786 24.8405,-15.3311 38.8809,-15.082 z m 38.8583,42.9648 c -7.6362,1.7577 -4.2678,17.071 4.1768,19.2793 8.1551,3.1069 10.8056,-7.4346 8.1465,-12.3496 -2.5422,-3.5797 -4.309,-8.7745 -12.3233,-6.9297 z m -48.5498,71.1211 c 16.925,0 22.8726,3.6343 12.4786,7.623 -5.855,2.2463 -20.2526,2.1499 -26.0176,-0.1757 -9.364,-3.7788 -2.697,-7.4473 13.539,-7.4473 z m -52.8359,3.6992 c 9.261,-0.076 13.1588,1.302 18.4512,4.8965 22.556,15.3244 42.9098,17.7176 62.3008,7.3242 11.684,-6.2573 11.8984,-6.2611 11.8984,-0.2265 0,8.4361 8.4431,16.1601 17.6641,16.1601 5.253,0 9.1776,2.9454 12.5136,9.3965 2.673,5.1687 4.8594,10.1855 4.8594,11.1484 0,2.0134 -20.5585,2.4156 -22.5605,0.4414 -0.732,-0.7198 -12.0798,-3.4927 -25.2188,-6.1621 -15.59,-3.1677 -52.7982,-5.5563 -107.1172,-6.8769 -81.929,-1.9916 -111.7343,-5.6625 -106.9316,-13.1641 4.6293,-7.2308 58.3257,-17.2821 117.5527,-22.0058 7.06,-0.5631 12.3783,-0.8973 16.5879,-0.9317 z m 365.9707,9.3379 c 8.7096,-0.014 16.7651,0.1158 24.0234,0.4824 -17.8695,2.7717 -8.4279,13.8541 -14.1132,21.8028 -5.511,5.512 -137.1947,22.9331 -229.6543,17.7714 0,0 -2.9754,0.4202 -10.4004,-13.3652 -5.029,-9.3389 -6.296,-22.7635 -2.3067,-23.0644 12.7802,-0.9638 45.9051,-2.5093 94.2051,-2.793 50.4963,2.0066 100.5047,-0.7709 138.2461,-0.834 z m 11.0274,42.3672 c 0,5.755 1.8873,12.7436 8.6933,16.2637 7.188,3.7169 9.5567,7.167 9.5567,13.9179 0,14.7599 -11.7874,44.5238 -30.8614,77.9141 -19.79,34.6498 -38.6014,60.5946 -50.4004,70.7969 -5.925,8.2907 -36.6149,34.0555 -39.1132,36.1953 -1.087,-1.7565 -4.0903,-4.5117 -8.2403,-4.5117 -5.79,0 -8.2094,-6.5993 -16.9433,-20.9766 -32.4741,-58.0597 -71.7552,-113.9822 -98.3125,-176.0078 0,0 30.3253,-0.089 46.6093,-0.168 34.3017,1.3031 103.9537,-5.6672 136.4434,-9.7168 13.3753,-1.6671 42.5684,-3.707 42.5684,-3.707 z m -272.5723,16.8379 c 19.673,9.7094 26.3984,39.1983 26.3984,115.6875 0,58.9688 -3.827,94.6295 -13.834,129.0039 -6.804,23.3736 -8.4473,26.046 -19.8593,32.3203 -17.229,9.4705 -29.2305,11.0537 -45.3535,5.9824 -18.251,-5.742 -26.7222,-13.5485 -23.9942,-22.1152 3.308,-10.3988 2.0216,-91.473 -2.1484,-135.5215 -2.081,-21.9613 -6.489,-49.934 -9.793,-62.1621 -7.8821,-33.3677 -6.1736,-59.3047 2.627,-76.5098 27.1379,-1.7027 63.7981,3.2993 85.957,13.3145 z" fill="#00B894" transform="translate(112.93168,7.2789445) matrix(0.27738268,0,0,0.27738268,-661.28544,-480.35566)"/>
</svg>