<?xml version="1.0" ?><svg height="118.47626mm" viewBox="0 0 117.50329 118.47626" width="117.50329mm" xmlns="http://www.w3.org/2000/svg">
    <path d="m 16272.29,17632.86 c 51.035,-96.141 107.976,-158.315 193.471,-167.323 85.495,-9.009 161.17,71.908 189.04,116.668 34.535,55.463 37.281,261.163 -104.286,296.449 -134.217,33.454 -353.545,-80.834 -278.225,-245.794 z" fill="#FFFFFF" transform="translate(-47.081644,-88.928506) matrix(0.26458333,0,0,0.26458333,-4251.926,-4529.7019)"/>
    <path d="m 16456.478,17900.585 c -28.43,-5.706 -36.063,-8.171 -64.894,-20.988 -73.686,-32.751 -116.193,-70.779 -137.712,-123.199 -7.476,-18.213 -7.553,-69.541 -0.142,-98.622 22.82,-89.607 113.739,-179.112 200.656,-197.532 39.318,-8.335 67.826,-4.06 111.186,16.665 18.686,8.93 29.999,17.64 54.195,41.714 27.124,26.99 32.411,34.181 46.813,63.666 20.373,41.715 25.745,62.937 25.745,101.686 0,48.53 -6.813,77.007 -29.076,121.491 -21.919,43.8 -59.447,77.611 -100.486,90.533 -26.961,8.491 -76.221,10.616 -106.277,4.586 z m 94.037,-35.937 c 1.58,-1.581 3.023,-27.653 3.203,-57.935 0.316,-52.792 -0.02,-56.042 -8.456,-78.806 -29.558,-79.862 -65.755,-121.996 -115.835,-134.826 -27.631,-7.078 -70.763,-4.824 -96.28,5.031 -15.973,6.169 -17.844,7.666 -12.196,9.757 8.721,3.224 11.356,7.846 8.893,15.6 -2.563,8.083 -6.917,8.067 -9.486,-0.02 -1.108,-3.482 -4.203,-6.332 -6.883,-6.332 -3.173,0 -4.196,-1.771 -2.928,-5.075 1.588,-4.141 0.05,-3.884 -8.367,1.387 -21.061,13.195 -23.93,21.134 -20.772,57.505 0.8,9.222 -0.05,10.995 -5.002,10.57 -5.53,-0.472 -5.848,1.486 -4.39,27.052 1.821,31.934 7.856,47.841 27.56,72.633 12.512,15.741 13.777,16.527 19.011,11.793 10.201,-9.234 26.071,4.366 19.475,16.69 -2.645,4.942 -0.245,7.444 16.508,17.216 10.781,6.289 23.519,12.911 28.308,14.718 7.65,2.884 8.706,2.53 8.706,-2.911 0,-3.97 2.849,-6.907 7.937,-8.184 13.93,-3.498 30.965,12.847 20.279,19.451 -1.895,1.172 -5.029,0.543 -6.967,-1.395 -4.173,-4.174 -11.752,-4.682 -11.752,-0.786 0,2.98 17.341,9.933 43.702,17.52 15.991,4.601 16.708,4.556 14.965,-0.934 -2.452,-7.728 5.361,-13.687 16.297,-12.428 10.565,1.215 14.764,12.099 4.668,12.099 -3.469,0 -8.915,1.067 -12.104,2.374 -9.557,3.912 19.333,5.805 50.861,3.328 15.494,-1.215 29.464,-3.503 31.045,-5.086 z m -86.122,-32.378 c 0,-1.797 -3.205,-4.502 -7.123,-6.012 -6.361,-2.454 -6.527,-2.987 -1.541,-5.001 3.101,-1.254 7.671,-0.518 10.287,1.652 5.333,4.426 6.335,12.631 1.544,12.631 -1.743,0 -3.167,-1.472 -3.167,-3.27 z m -103.958,-19.65 c -9.528,-9.526 -0.359,-27.732 13.964,-27.732 9.229,0 20.35,10.279 20.35,18.809 0,9.198 -4.651,10.334 -13.581,3.31 -9.969,-7.842 -11.745,-7.864 -11.745,-0.143 0,7.795 -4.236,10.511 -8.988,5.758 z m 57.017,-18.234 c 1.22,-9.279 15.284,-13.681 15.284,-4.783 0,3.086 -1.464,4.25 -3.646,2.905 -2.004,-1.24 -5.676,0.455 -8.163,3.77 -4.288,5.716 -4.463,5.619 -3.475,-1.892 z m 84.929,-5.315 c 0,-6.041 15.885,-9.188 19.285,-3.819 4.611,7.279 3.364,8.521 -8.205,8.193 -6.74,-0.19 -11.08,-1.904 -11.08,-4.374 z m -187.829,-18.955 c -6.83,-6.831 0.674,-23.216 10.634,-23.216 6.589,0 18.914,13.028 18.914,19.992 0,7.061 -2.859,6.728 -11.434,-1.328 -7.375,-6.93 -15.583,-5.478 -12.624,2.235 1.751,4.567 -1.757,6.049 -5.49,2.317 z m 73.866,-12.135 c -11.022,-8.132 -15.69,-7.847 -16.041,0.979 -0.166,4.095 -1.014,3.696 -3.616,-1.696 -7.661,-15.87 12.467,-22.5 27.109,-8.932 14.924,13.833 8.86,21.684 -7.452,9.649 z m 75.229,-0.52 c -4.495,-4.497 -6.03,-4.633 -10.477,-0.943 -4.613,3.829 -5.086,3.469 -4.118,-3.114 2.51,-17.042 22.199,-16.28 24.258,0.94 1.149,9.628 -2.104,10.677 -9.663,3.117 z m -183.54,-30.631 c -2.097,-10.974 2.697,-21.082 10,-21.082 7.389,0 17.012,13.028 15.476,20.951 -1.741,8.974 -8.251,8.503 -13.387,-0.969 l -4.823,-8.902 -0.125,8.705 c -0.166,10.619 -5.18,11.532 -7.136,1.297 z m 46.765,-4.953 c -1.298,-2.105 -1.488,-7.306 -0.423,-11.562 1.565,-6.233 3.953,-7.731 12.328,-7.731 11.586,0 17.984,4.729 17.984,13.295 0,6.507 -3.95,7.194 -13.13,2.282 -5.063,-2.71 -7.209,-2.285 -10.389,2.062 -2.941,4.023 -4.632,4.463 -6.37,1.654 z m 169.685,-7.392 c -4.452,-4.451 -4.84,-11.901 -0.618,-11.901 4.262,0 10.214,11.913 6.956,13.926 -1.465,0.905 -4.319,0 -6.338,-2.025 z m -89.146,-7.04 c 0,-6.087 7.495,-9.474 14.775,-6.681 6.103,2.344 2.853,6.416 -7.652,9.591 -5.314,1.603 -7.123,0.865 -7.123,-2.91 z m -95.957,-22.734 c -1.197,-1.197 -2.177,-5.668 -2.177,-9.932 0,-6.2 -1.273,-7.425 -6.333,-6.102 -9.288,2.43 -8.06,-6.595 1.492,-10.948 11.199,-5.101 18.11,1.388 16.871,15.846 -0.917,10.7 -5.315,15.672 -9.853,11.136 z m 48.783,-2.332 c -2.034,-2.451 -3.479,-5.673 -3.213,-7.164 1.351,-7.523 -0.668,-11.142 -5.242,-9.387 -3.53,1.356 -4.672,0.305 -3.924,-3.618 1.275,-6.692 13.825,-9.058 20.157,-3.802 5.792,4.807 5.943,20.106 0.247,24.832 -3.278,2.72 -5.226,2.512 -8.027,-0.861 z m 53.506,-31.639 c 0,-7.269 -1.93,-12.295 -5.539,-14.421 -4.831,-2.848 -4.934,-3.672 -0.793,-6.439 6.465,-4.324 8.226,-4.091 14.188,1.87 6.992,6.992 5.349,27.641 -2.317,29.094 -4.425,0.839 -5.539,-1.192 -5.539,-10.104 z m 65.897,-6.737 c -1.987,-4.358 -2.6,-8.938 -1.363,-10.174 3.612,-3.613 12.934,3.896 14.037,11.303 1.438,9.67 -8.145,8.818 -12.674,-1.129 z m -110.217,-21.884 c 0,-4.213 -0.864,-9.91 -1.92,-12.664 -1.057,-2.754 -0.31,-5.008 1.662,-5.008 4.671,0 10.101,14.408 7.746,20.548 -2.846,7.415 -7.488,5.631 -7.488,-2.876 z m 242.188,203.132 c 14.001,-16.251 37.876,-64.737 42.062,-85.413 1.667,-8.24 1.966,-14.323 0.662,-13.514 -8.153,5.037 -60.15,101.162 -60.15,111.196 0,4.499 7.58,-0.837 17.426,-12.269 z m 0.798,-58.195 c 14.298,-25.148 16.178,-30.704 18.07,-53.395 1.642,-19.639 1.092,-26.698 -2.437,-31.446 -4.348,-5.851 -4.909,-5.556 -12.563,6.567 -4.404,6.98 -14.561,25.109 -22.567,40.288 l -14.556,27.6 v 34.427 c 0,45.693 2.327,50.847 11.14,24.68 3.827,-11.358 14.136,-33.282 22.913,-48.721 z m -30.613,-56.232 c 8.26,-18.307 6.691,-25.402 -13.019,-58.893 -26.7,-45.371 -72.76,-78.974 -129.983,-94.831 -34.584,-9.585 -82.007,-8.22 -110.523,3.177 -6.536,2.614 -31.657,35.689 -31.657,41.684 0,0.966 8.904,-2.922 19.785,-8.642 27.636,-14.523 48.929,-18.474 90.38,-16.768 46.215,1.905 66.222,11.115 97.947,45.083 24.628,26.373 39.203,53.066 47.924,87.78 3.212,12.784 6.928,27.515 8.26,32.739 l 2.421,9.496 5.736,-12.662 c 3.153,-6.963 8.883,-19.637 12.729,-28.163 z m 75.948,-3.041 c 0.143,-0.248 0.882,-10.779 1.656,-23.403 1.294,-21.128 0.913,-22.952 -4.77,-22.952 -7.265,0 -16.978,-8.722 -14.385,-12.915 0.989,-1.603 4.563,-2.912 7.942,-2.912 6.567,0 8.459,-10.44 3.354,-18.494 -2.234,-3.527 -3.829,-3.539 -9.368,-0.08 -5.044,3.151 -7.569,3.278 -10.328,0.518 -2.76,-2.759 -2.004,-5.747 3.086,-12.218 8.084,-10.277 8.314,-13.553 1.624,-23.103 -3.675,-5.248 -6.082,-6.336 -8.547,-3.871 -8.013,8.012 -12.107,3.795 -9.994,-10.294 1.919,-12.794 1.186,-14.74 -10.795,-28.581 -14.246,-16.458 -38.296,-38.049 -48.423,-43.468 -3.793,-2.029 0.793,5.644 10.868,18.18 28.625,35.63 41.357,66.611 45.903,111.724 2.137,21.2 3.031,23.466 9.437,23.935 3.891,0.285 9.95,3.117 13.467,6.299 7.664,6.938 13.894,28.064 11.31,38.359 -1.438,5.728 -0.775,6.989 2.929,5.566 2.632,-1.009 4.9,-2.04 5.034,-2.289 z m -69.878,-88.986 c -5.384,-27.766 -13.429,-43.834 -31.52,-62.963 -28.621,-30.264 -77.433,-47.677 -133.106,-47.489 -44.177,0.143 -55.231,3.649 -75.318,23.84 -9.001,9.051 -15.971,16.85 -15.487,17.334 0.484,0.484 7.224,-1.026 14.977,-3.357 56.546,-16.995 129.237,-1.123 185.899,40.589 20.266,14.921 42.315,40.247 51.001,58.585 l 5.124,10.815 1.069,-9.128 c 0.585,-5.021 -0.599,-17.723 -2.639,-28.226 z m -11.165,-64.57 c -11.682,-21.462 -32.71,-44.648 -53.452,-58.936 -30.494,-21.001 -71.108,-23.843 -113.592,-7.949 -28.398,10.625 -28.211,14.785 0.513,11.382 58.65,-6.946 131.375,18.66 161.841,56.982 6.085,7.657 11.515,13.92 12.068,13.92 0.551,0 -2.767,-6.93 -7.378,-15.399 z" fill="#00B894" transform="translate(-47.081644,-88.928506) matrix(0.26458333,0,0,0.26458333,-4251.926,-4529.7019)"/>
</svg>