<?xml version="1.0" ?><svg height="320.48755mm" viewBox="0 0 134.11061 320.48755" width="134.11061mm" xmlns="http://www.w3.org/2000/svg">
    <path d="m 17749.066,18224.512 c 0,0 -19.758,24.187 -17.103,59.56 2.656,35.374 48.973,39.772 48.973,39.772 l -3.293,37.572 c 13.225,3.239 14.777,15.832 12.419,47.852 -8.409,6.547 -20.559,16.856 -22.984,23.566 -2.458,6.8 -6.875,29.478 -9.678,44.564 -30.36,3.884 -66.219,20.537 -89.781,38.082 -31.616,23.542 -94.689,91.426 -73.504,245.247 19.055,138.363 96.914,168.032 140.289,179.748 -7.214,44.694 -14.315,91.182 -14.627,102.906 -0.642,24.12 15.246,28.887 15.246,28.887 l 27.444,-29.608 78.476,9.242 1.446,59.075 44.295,68.894 41.566,-42.031 2.406,-78.715 47.987,-7.51 29.209,26.285 12.837,-115.689 -32.257,-131.723 -21.666,-76.549 12.359,-120.746 c 0,0 13.961,-10.7 36.68,-33.416 22.719,-22.715 13.811,-29.195 -22.522,-43.093 l -31.133,-61.6 -3.211,-21.268 -16.681,-23.394 c 0.555,-0.698 1.213,-1.527 1.213,-1.527 0,0 12.215,-64.342 15.509,-77.249 3.293,-12.907 4.355,-23.805 22.946,-27.056 18.59,-3.251 39.836,-30.881 43.767,-62.813 3.93,-31.932 -11.58,-45.316 -11.58,-45.316 0,0 -11.047,24.763 -23.158,35.949 -12.11,11.185 -40.898,23.613 -40.898,23.613 0,0 -36.119,-27.056 -53.86,-28.681 -17.741,-1.626 -42.599,1.529 -60.021,11.568 -17.422,10.038 -22.521,12.906 -44.192,1.912 -21.671,-10.995 -42.918,-56.31 -42.918,-56.31 z m 43.024,217.476 c 8.889,25.907 36.684,43.151 69.9,50.119 24.903,5.224 48.658,-10.604 64.028,-24.552 l 21.086,38.326 13.988,36.779 c -18.796,-8.593 -35.072,-15.131 -58.522,-13.603 -17.746,1.156 -47.184,-2.314 -72.172,-6.073 -13.061,-20.209 -36.625,-40.547 -52.216,-43.027 z m 22.351,738.526 c -2.033,-0.04 -4.088,0 -6.14,0.111 -16.42,0.821 -33.856,2.006 -36.694,12.314 -2.838,10.307 13.077,156.168 13.077,156.168 l -90.514,34.573 c -23.313,22.988 38.616,34.39 57.976,28.552 19.359,-5.838 73.284,-27.091 78.149,-45.882 4.865,-18.792 18.346,-128.438 14.697,-156.26 -3.193,-24.344 -16.319,-29.275 -30.551,-29.576 z m 149.37,13.634 c -12.468,-0.05 -25.669,1.847 -30.838,6.819 0,0 -1.116,106.727 2.736,137.924 3.851,31.198 2.839,29.372 23.516,40.136 20.677,10.764 60.814,35.759 93.046,34.026 32.232,-1.733 26.355,-20.159 16.524,-31.471 -9.832,-11.311 -80.481,-44.879 -80.481,-44.879 0,0 6.386,-132.177 1.926,-137.742 -2.23,-2.782 -13.962,-4.767 -26.429,-4.813 z" fill="#FFFFFF" transform="translate(178.18028,215.42832) matrix(0.26458333,0,0,0.26458333,-3953.2248,-4389.4132) translate(-3313.5291,-2437.8203)"/>
    <path d="m 14371.144,16955.106 c 0.709,-11.697 31.617,-24.561 62.972,-36.652 15.382,-5.935 27.987,-11.072 28.008,-11.415 0.356,-5.902 -6.63,-64.71 -10.269,-95.876 -6.033,-51.671 -3.458,-63.334 15.932,-72.111 10.138,-4.588 12.791,-7.47 11.724,-12.742 -1.955,-35.073 -0.507,-64.53 0.299,-104.99 -9.538,-5.208 -25.88,-14.444 -32.707,-6.314 -2.557,3.217 -13.511,20.033 -19.083,21.957 -13.254,4.571 -22.818,-1.121 -28.293,-16.835 -4.464,-12.82 1.781,-74.029 7.675,-96.924 l 3.558,-13.833 -16.959,-3.344 c -52.855,-10.422 -83.503,-52.212 -106.444,-107.933 -25.739,-62.509 -26.303,-173.909 -1.204,-237.054 22.881,-57.564 53.466,-96.967 99.171,-116.466 25.734,-10.979 28.239,-11.937 38.606,-5.552 8.243,5.075 2.685,12.001 -11.412,14.212 -15.351,2.407 -51.851,29.792 -65.865,46.751 -41.371,49.342 -53.276,107.46 -55.884,152.404 -4.952,86.86 6.959,137.973 42.176,180.965 20.175,24.631 32.481,37.251 61.032,48.075 16.04,6.082 20.794,6.806 23.158,3.538 4.926,-6.812 5.445,-25.855 5.445,-25.855 -19.25,-12.494 -28.395,-48.162 -28.177,-51.746 0.253,-4.032 -0.986,-11.719 -11.399,-20.155 -28.032,-22.714 -48.417,-44.189 -54.057,-57.503 -12.78,-30.169 15.968,-63.143 55.984,-119.698 9.866,-13.942 17.992,-26.36 18.059,-27.597 0.07,-1.236 -3.191,-9.894 -7.239,-19.243 -11.57,-22.571 -3.783,-29.915 9.795,-45.796 l 16.579,-19.255 -9.68,-11.283 c -16.037,-18.689 -10.845,-25.395 8.888,-11.479 l 10.493,7.4 2.911,-10.792 c 1.601,-5.932 -1.881,-7.293 -1.584,-15.328 0.31,-8.384 3.08,-18.015 6.499,-22.601 3.276,-4.393 6.443,-13.997 6.203,-15.133 -5.925,-28.002 7.399,-31.681 15.88,-42.664 6.698,-8.677 7.229,-11.351 7.937,-23.01 0.852,-14.048 -0.05,-16.523 -7.21,-19.753 -5.842,-2.636 -8.136,-6.363 -8.016,-13.019 0.226,-12.486 0.05,-11.32 3.28,-22.994 2.629,-9.533 2.229,-10.246 -5.225,-9.283 -12.424,1.601 -31.215,-9.359 -37.991,-22.16 -9.553,-18.047 -6.376,-51.066 7.067,-73.388 8.277,-13.743 12.187,-17.301 18.591,-16.913 6.975,0.423 8.34,2.588 9.739,15.463 1.979,18.16 12.031,30.853 33.839,42.73 14.938,8.133 16.563,8.399 22.462,3.681 9.875,-7.906 37.326,-17.091 56.628,-18.955 21.489,-2.072 43.478,4.481 62.12,18.512 l 13.314,10.023 16.703,-9.97 c 18.619,-11.118 28.743,-23.936 32.653,-41.368 4.015,-17.894 13.931,-16.575 24.789,3.299 22.939,41.985 1.138,105.672 -38.288,111.856 -8.296,1.302 -10.377,3.329 -10.826,10.562 -0.298,4.919 -3.864,13.701 -7.912,19.512 -8.302,11.924 -7.953,29.987 -7.953,29.987 14.343,1.508 12.306,16.674 -0.868,16.181 0,0 -2.436,9.624 -4.91,16.997 -4.148,12.368 -3.884,14.094 3.439,22.364 5.639,6.367 7.714,12.568 7.176,21.44 -0.416,6.865 0.419,7.13 1.854,12.898 1.435,5.769 8.188,14.305 8.856,18.971 0.845,5.936 8.03,13.433 23.952,24.998 12.507,9.082 25.538,21.622 28.952,27.862 8.693,11.902 3.811,14.919 -3.802,26.27 l -10.009,14.925 6.834,29.41 c 3.76,16.178 9.067,41.657 11.792,56.622 9.399,47.629 23.57,77.636 27.144,180.633 -1.375,7.874 -1.3,14.391 0.176,14.48 6.64,0.402 15.569,25.952 17.6,50.367 2.773,33.256 -1.573,54.706 -13.357,65.971 -8.887,8.491 -11.689,8.636 -30.164,1.558 -5.97,-2.285 -7.281,29.816 -12.088,47.576 -5.119,18.92 -12.414,29.858 -19.615,29.422 -1.801,-0.1 -6.633,-4.298 -10.74,-9.307 -5.33,-6.502 -10.188,-8.962 -16.976,-8.598 -0.505,21.288 3.043,78.004 2.939,102.202 -0.2,3.125 3.711,7.917 8.631,10.645 27.894,1.953 15.041,86.617 9.971,108.695 -9.62,40.259 -4.345,43.672 8.369,47.147 20.72,5.663 68.713,32.178 76.15,45.021 16.133,27.869 -1.672,41.357 -48.632,36.845 -27.449,-2.636 -29.445,-3.403 -58.128,-22.316 -38.844,-25.613 -49.541,-31.901 -48.536,-46.333 0.423,-6.106 -4.355,-35.329 -4.462,-64.931 -0.176,-49.367 -6.031,-81.499 -1.037,-92.474 8.052,-10.206 17.502,-12.058 30.008,-16.732 l 1.461,-38.165 c -1.254,-8.085 -2.092,-69.44 -3.764,-71.84 -2.166,-0.127 -4.913,16.006 -7.267,42.706 -1.919,35.771 0.251,29.477 -19.253,55.787 -16.972,22.899 -28.503,27.602 -32.451,27.701 -18.934,0.465 -44.131,-56.532 -51.139,-72.338 -3.264,-7.364 -5.35,-22.291 -5.327,-38.162 0.03,-24.85 -0.337,-26.086 -8.014,-26.552 -4.43,-0.268 -9.124,1.861 -10.432,4.736 -4.382,36.01 3.722,68.148 2.499,104.932 -0.151,2.304 3.225,4.403 7.489,4.661 8.052,0.489 20.873,13.646 27.872,28.6 2.878,6.15 3.288,26.595 1.419,70.719 -2.256,53.296 -3.887,46.352 -11.538,73.28 -5.217,18.352 -12.434,35.724 -17.408,41.885 -9.509,11.78 -39.333,22.353 -59.966,31.501 -27.016,11.978 -83.527,13.965 -81.182,-24.205 z m 84.927,1.359 c 26.454,-13.95 43.374,-16.957 50.562,-29.004 7.37,-12.357 20.403,-143.857 15.647,-161.88 -3.056,-11.569 -3.188,-11.64 -23.761,-12.844 -11.376,-0.665 -24.168,-0.501 -28.426,0.368 -8.773,1.788 -8.793,3.332 -0.785,54.993 4.67,30.135 8.444,42.778 9.43,75.093 l 0.891,19.044 14.746,3.136 c 9.865,2.094 14.647,4.788 14.445,8.127 -0.227,3.865 -4.276,4.62 -17.86,3.343 -15.091,-1.416 -21.726,0.276 -47.191,12.039 -32.353,14.944 -58.888,23.221 -54.861,27.862 2.125,2.448 12.979,11.811 41.629,10.032 2.536,-0.152 13.998,-4.226 25.534,-10.309 z m 286.159,11.199 c 7.177,0.369 12.869,-4.217 12.979,-6.039 0.507,-8.308 -10.61,-20.479 -25.613,-28.042 -9.022,-4.546 -24.062,-8.812 -33.429,-15.636 -12.366,-9.012 -18.091,-11.462 -20.929,-8.951 -5.991,5.305 -13.829,-3.958 -13.127,-15.514 4.676,-39.695 7.894,-54.023 9.746,-92.087 1.558,-25.686 1.39,-26.356 -7.436,-29.898 -4.965,-1.996 -16.393,-3.427 -25.391,-3.186 -20.285,-3.245 -15.047,21.116 -13.344,47.906 0,56.852 8.614,72.72 3.982,90.966 -3.835,15.097 -6.057,7.679 37.576,35.221 24.222,16.977 52.968,24.213 74.986,25.26 z m -145.934,-264.595 c 10.247,-18.253 13.622,-63.178 10.003,-149.006 -1.448,-34.31 -2.834,-76.257 -3.081,-93.214 l -0.447,-30.829 -11.837,6.048 c -11.934,6.099 -29.073,5.461 -42.939,-1.598 -6.017,-3.06 -6.251,-1.366 -7.408,53.662 -0.66,31.254 -1.985,83.265 -2.946,115.578 -0.965,32.316 -1.288,62.045 -0.721,66.064 0.569,4.022 10.285,20.154 21.597,35.851 21.881,23.398 27.132,16.259 37.779,-2.556 z m -166.463,-88.519 c 19.409,-19.1 56.926,-136.246 51.755,-169.959 l -1.67,-10.878 -3.178,10.735 c -3.495,11.812 -19.318,20.158 -30.227,19.496 -6.17,-0.373 -8,3.171 -14.743,28.538 -4.237,15.928 -9.352,42.704 -11.372,59.501 -5.766,47.942 -5.479,77.242 9.435,62.567 z m 266.319,-19.885 c 4.781,-30.784 3.876,-44.8 -7.03,-108.733 -12.695,-74.411 -14.418,-80.754 -22.072,-81.221 -6.182,-0.374 -6.694,2.091 -8.979,43.182 -2.443,43.888 1.488,96.669 9.212,123.682 5.099,17.828 19.119,47.894 22.429,48.095 1.395,0.07 4.293,-11.168 6.44,-25.005 z m -216.084,1.348 c -2.729,-17.359 -3.469,-18.317 -9.006,-11.676 -8.171,9.797 -7.205,18.258 2.146,18.826 6.619,0.4 7.848,-0.878 6.86,-7.15 z m 28.13,-2.7 c 5.722,-7.677 5.783,-8.638 0.911,-14.14 -4.873,-5.503 -5.842,-5.361 -14.234,2.072 -5.811,5.144 -8.36,10.028 -7.182,13.76 6.429,9.171 16.829,2.979 20.505,-1.692 z m 14.727,-0.586 c 0.795,-13.109 -4.121,-13.401 -5.383,-0.32 -0.528,5.515 0.324,10.105 1.903,10.201 1.579,0.1 3.145,-4.352 3.48,-9.881 z m 124.797,-5.907 -3.721,-10.789 -8.783,7.775 c -5.531,4.898 -7.892,9.438 -6.38,12.255 2.636,5.549 6.183,15.666 17.421,6.137 4.373,-3.874 4.603,-6.277 1.463,-15.378 z m -154.612,-24.466 c 3.289,-4.411 5.174,-10.567 4.192,-13.683 -2.261,-7.155 -5.245,-4.51 -11.213,9.93 -5.486,13.285 -1.626,15.35 7.021,3.753 z m 28.727,-7.102 c 0.723,-11.901 0.1,-13.281 -4.442,-9.948 -5.385,3.942 -7.871,16.772 -4.078,21.054 4.901,5.532 7.735,1.836 8.52,-11.106 z m 113.302,8.777 c 6.288,-11.839 3.352,-24.551 -5.272,-22.843 -4.157,0.822 -6.131,3.231 -5.162,6.302 0.863,2.737 1.304,9.376 0.976,14.753 -0.732,12.067 3.568,12.88 9.458,1.788 z m -110.554,-54.044 c 0.651,-10.743 0.297,-11.076 -10.342,-9.713 -6.058,0.775 -11.23,1.562 -11.492,1.739 -0.264,0.177 -1.925,6.675 -3.693,14.431 -2.994,13.114 -2.69,14.132 4.35,14.559 12.571,-0.507 20.343,-9.926 21.177,-21.016 z m 109.955,6.278 c 1.672,-12.346 1.178,-13.522 -5.141,-12.273 -5.225,1.033 -7.157,4.107 -7.645,12.162 -1.262,20.783 9.97,20.88 12.786,0.1 z m -106.998,-55.017 0.782,-12.82 -7.239,6.408 c -3.982,3.525 -8.64,5.425 -10.347,4.221 -3.502,-2.47 -5.937,22.491 -2.565,26.298 1.17,1.322 5.83,-0.678 10.361,-4.443 5.831,-4.85 8.458,-10.58 9.008,-19.664 z m 106.395,9.575 c -0.15,-12.044 -1.419,-14.277 -9.595,-16.987 l -9.412,-3.122 1.366,15.454 c 2.046,23.115 3.146,25.265 11.06,21.629 5.345,-2.457 6.725,-6.013 6.581,-16.974 z m 90.337,-37.959 c -1.595,-46.532 -15.973,-136.804 -28.038,-176.054 -3.767,-12.254 -8.058,-31.055 -9.536,-41.782 -4.424,-32.117 -11.512,-22.923 -14.097,18.284 -0.807,12.788 -3.705,31.56 -6.454,41.716 -4.631,17.108 -4.38,21.118 3.411,54.643 4.622,19.896 8.227,39.149 8.004,42.782 -0.226,3.633 2.419,9.487 5.868,13.011 7.335,7.494 17.192,33.765 21.563,66.198 1.504,11.159 3.76,14.714 11.533,3.524 6.227,-8.963 8.706,5.812 7.746,-22.322 z m -193.702,-21.51 c 0.151,-2.536 -29.573,-2.477 -33.065,0.07 1.66,10.029 9.719,18.369 11.75,28.933 19.521,-7.021 21.703,-23.101 21.315,-28.999 z m 103.449,30.878 c 0.879,-1.336 3.094,-9.624 4.92,-18.419 l 3.318,-15.993 -12.867,0.278 c -12.408,0.266 -12.931,0.756 -14.616,13.625 -0.226,17.86 13.102,26.361 19.245,20.509 z m -52.977,-26.081 c 13.75,-6.083 17.449,-15.503 19.525,-49.723 l 1.741,-28.663 -29.469,0.63 c -16.207,0.347 -29.941,1.025 -30.518,1.506 -2.291,1.903 2.623,55.261 5.867,63.701 2.781,7.237 10.291,13.099 21.522,16.802 0.544,0.176 5.643,-1.736 11.332,-4.253 z m -54.546,-48.495 c 2.078,-34.208 4.692,-31.285 -33.34,-37.313 l -20.278,-3.214 -0.32,27.835 c -0.176,15.308 0.127,29.635 0.675,31.838 1.199,4.823 10.433,7.392 33.873,9.426 l 17.564,1.526 z m 115.132,23.266 15.43,-2.905 -1.286,-15.577 c -0.704,-8.569 -3.495,-21.009 -6.199,-27.648 -4.218,-10.36 -6.348,-12.004 -15.033,-11.614 -5.563,0.251 -11.21,1.419 -12.542,2.601 -3.545,3.142 -2.476,57.641 1.137,57.861 1.684,0.1 10.005,-1.121 18.493,-2.718 z m -192.321,-15.625 c 0.36,-0.228 4.891,-24.64 3.914,-54.261 -1.959,-59.396 -8.571,-95.001 -19.878,-106.989 l -7.402,-7.854 -14.201,17.082 c -70.539,84.859 -77.501,98.05 -24.941,136.407 22.955,16.752 24.634,17.406 42.874,16.724 10.442,-0.387 19.277,-0.888 19.634,-1.109 z m 138.145,-58.144 c 19.086,-0.868 36.012,-2.674 37.614,-4.012 3.844,-3.213 -12.61,-17.691 -20.662,-18.179 -3.466,-0.2 -8.827,-5.169 -11.918,-11.019 l -5.614,-10.638 -2.647,8.36 c -3.461,10.942 -16.132,21.184 -25.506,20.615 -4.132,-0.254 -10.88,-5.077 -15.161,-10.839 -7.597,-10.227 -7.809,-10.29 -14.017,-4.215 -10.845,10.614 -25.118,10.595 -33.641,-6.782 -1.224,-2.494 -3.734,-13.538 8.825,-2.42 10.064,8.903 15.282,5.294 20.98,-10.817 3.532,-9.987 3.132,-10.816 -7.79,-16.178 -8.587,-4.216 -13.273,-4.843 -18.443,-2.469 -14.294,6.569 -32.826,-8.102 -26.84,-21.252 2.016,-4.434 3.254,-4.075 8.677,2.504 8.528,10.348 19.572,5.771 20.434,-8.471 0.429,-7.04 2.233,-9.838 6.191,-9.597 7.578,7.162 3.739,18.981 12.904,25.951 4.366,3.08 15.801,-2.594 18.883,-9.372 1.729,-3.799 -1.121,-9.789 -9,-18.904 l -11.531,-13.338 -9.753,6.333 c -18.197,11.819 -37.68,1.256 -32.245,-21.127 1.772,-7.299 4.93,-9.565 8.261,0.875 -0.07,20.934 19.804,8.293 16.797,-1.448 -2.178,-5.768 -26.182,-29.55 -28.088,-27.829 -0.75,0.677 -5.563,14.043 -10.697,29.707 l -9.333,28.476 6.908,26.874 c 3.795,14.781 8.251,36.439 9.894,48.13 2.617,18.622 4.057,21.56 11.617,23.703 4.748,1.345 10.109,3.039 11.914,3.766 7.498,3.017 60.668,5.086 92.987,3.612 z m 48.925,-33.977 c -9.44,-9.928 -12.928,-1.899 -3.904,8.989 6.228,7.511 7.612,8.035 8.864,3.346 0.815,-3.058 -1.416,-8.606 -4.96,-12.335 z m -67.497,-11.591 c 5.285,-11.703 5.183,-12.172 -4.926,-22.836 -9.571,-10.093 -10.781,-10.522 -16.586,-5.875 -6.982,5.586 -5.761,18.602 3.217,34.306 6.253,10.936 11.558,9.312 18.295,-5.595 z m 54.047,-5.618 c 3.423,-8.185 3.148,-10.037 -1.772,-11.935 -8.125,-3.132 -14.079,-17.634 -12.856,-31.323 0.566,-6.345 -0.331,-11.618 -1.989,-11.72 -1.663,-0.1 -3.423,6.419 -3.912,14.487 -0.556,9.144 -2.94,16.17 -6.332,18.656 -4.785,3.502 -4.016,5.635 6.34,17.613 6.482,7.496 12.837,13.693 14.125,13.77 1.29,0.07 4.167,-4.218 6.396,-9.548 z m 24.732,-17.149 0.869,-10.04 -6.777,7.792 c -6.525,7.499 -6.785,9.562 -2.872,22.735 1.503,5.061 2.259,4.711 4.844,-2.226 1.731,-6.069 3.377,-12.315 3.936,-18.261 z m -16.466,-10.268 c 2.06,-2.199 5.105,-8.446 6.766,-13.884 4.362,-14.293 5.787,-15.595 11.373,-10.388 4.189,3.908 4.788,3.835 3.667,-0.452 -0.734,-2.821 -4.961,-5.865 -9.384,-6.764 -4.427,-0.9 -10.512,-4.125 -13.526,-7.166 -4.994,-5.036 -6.086,-4.87 -12.238,1.848 -5.2,5.68 -6.327,9.997 -4.902,18.757 3.004,18.471 10.704,26.089 18.244,18.049 z m -39.589,-12.677 c 4.545,-8.043 4.13,-9.513 -5.867,-20.803 l -10.758,-12.146 -9.315,8.248 -9.314,8.25 11.643,13.468 c 13.017,15.057 16.538,15.503 23.611,2.983 z m -38.845,-30.874 c 2.279,-1.265 6.602,-6.401 9.603,-11.418 4.993,-8.347 4.904,-10.084 -1.077,-20.563 l -6.534,-11.44 -12.974,6.33 c -15.319,7.478 -16.557,13.701 -5.653,28.383 8.554,11.517 10.099,12.326 16.635,8.708 z m 56.428,-1.402 c 7.297,-9.176 8.01,-21.863 1.675,-29.781 -4.728,-5.905 -5.641,-5.667 -17.091,4.471 -13.053,11.56 -14.18,14.512 -9.465,24.769 7.687,8.522 19.515,6.822 24.881,0.541 z m 38.462,-4.315 c 4.55,-4.029 6.65,-22.503 4.027,-35.387 -1.537,-7.527 -1.917,-7.395 -10.384,3.576 -4.836,6.258 -10.243,11.294 -12.021,11.187 -5.095,-0.307 -4.117,4.832 2.827,14.853 7.186,10.374 9.417,11.203 15.551,5.771 z m -195.982,-29.525 c 0.201,-3.536 -6.127,-5.415 -8.227,-2.436 -1.272,1.802 0.03,3.422 2.914,3.596 2.873,0.177 5.263,-0.346 5.313,-1.16 z m 146.308,-24.111 c 5.199,-15.447 9.853,-15.545 11.774,-0.251 3.082,24.581 20.202,24.061 21.701,-0.657 0.589,-9.7 2.153,-12.913 6.175,-12.669 3.533,0.202 4.797,-1.535 3.674,-5.097 -0.945,-2.982 -1.524,-8.538 -1.294,-12.345 0.407,-6.693 -0.562,-6.885 -29.08,-5.776 -40.137,1.565 -73.521,-1.673 -97.464,-9.455 -11.011,-3.578 -24.024,-5.756 -28.917,-4.837 -8.646,1.619 -8.863,2.2 -7.753,20.627 0.895,14.798 3.288,21.495 10.913,30.489 12.085,14.252 14.228,14.519 13.132,1.636 -3.68,-15.314 6.81,-20.073 9.165,-4.949 -0.469,7.726 11.6,17.357 21.402,15.522 4.87,-0.913 12.522,-7.153 17.846,-14.549 10.51,-14.607 15.853,-13.765 14.876,2.336 6.555,39.64 24.377,27.004 33.85,-0.02 z m 92.213,18.122 c -0.969,-1.095 -2.956,0.653 -4.413,3.882 -2.108,4.664 -1.748,5.073 1.762,1.989 2.427,-2.133 3.62,-4.778 2.651,-5.871 z m -231.111,-15.874 c -0.542,-2.024 -2.416,-3.764 -4.167,-3.869 -1.75,-0.1 -3.822,1.396 -4.603,3.337 -0.781,1.941 1.095,3.68 4.168,3.866 3.071,0.177 5.141,-1.313 4.602,-3.334 z m -15.813,-5.951 c 0.176,-2.873 -1.246,-4.384 -3.159,-3.356 -1.911,1.027 -3.564,3.286 -3.667,5.02 -0.1,1.732 1.314,3.243 3.157,3.356 1.843,0.1 3.495,-2.147 3.669,-5.02 z m -13.549,-8.823 c 0.993,-2.464 -0.176,-3.794 -2.752,-3.11 -2.471,0.66 -5.268,3.137 -6.222,5.508 -0.99,2.462 0.201,3.795 2.755,3.111 2.467,-0.66 5.268,-3.14 6.219,-5.509 z m 271.969,18.179 c 0.06,-0.813 -1.359,-2.499 -3.134,-3.751 -1.772,-1.252 -3.32,-0.678 -3.439,1.274 -0.127,1.952 1.292,3.64 3.134,3.752 1.844,0.1 3.392,-0.461 3.439,-1.275 z m -34.906,-34.418 c 0.227,-3.809 -9.343,-11.67 -11.688,-9.596 -3.68,3.259 0.604,11.314 6.196,11.654 2.942,0.176 5.412,-0.748 5.492,-2.058 z m -212.946,-38.205 c 0.152,-2.654 -1.827,-4.956 -4.419,-5.114 -3.055,-0.176 -4.243,2.096 -3.373,6.483 1.462,7.412 7.322,6.381 7.792,-1.369 z m 141.118,9.948 c 23.163,-2.96 24.268,5.461 28.579,-16.156 -8.843,-4.546 -6.506,-16.434 -6.101,-18.689 0.07,-0.477 -9.929,4.673 -20.99,10.451 -41.824,20.043 -80.167,12.524 -108.656,-18.975 -11.801,-13.328 -11.848,-13.346 -16.291,-6.147 -2.453,3.971 -4.557,13.271 -4.683,20.661 -0.126,7.392 -1.728,5.409 -3.567,7.907 -5.932,8.059 3.584,12.065 18.333,11.89 37.843,2.591 76.717,12.024 113.376,9.058 z m 57.286,-9.278 c -9.067,-13.165 -10.617,-7.006 -10.85,-0.3 -0.286,4.719 5.263,6.49 7.107,6.603 1.842,0.1 3.527,-2.726 3.743,-6.303 z m -194.045,-22.748 c 4.049,-8.901 3.288,-17.225 -1.786,-19.535 -3.267,-1.487 -5.723,0.458 -7.447,5.908 -4.455,14.072 3.613,25.977 9.233,13.627 z m 182.006,-10.141 c -1.87,-4.865 -5.301,-8.344 -7.626,-7.722 -6.751,1.801 -7.591,11.729 -1.841,21.785 4.953,8.444 4.224,11.382 9.09,2.041 2.232,-5.871 2.026,-11.671 0.377,-16.104 z m -55.359,-1.311 c 19.784,-9.804 31.763,-22.48 35.838,-37.925 2.008,-7.608 2.455,-11.586 2.455,-11.586 -9.271,-1.437 -10.038,-14 3.136,-14.806 0,0 1.002,-2.143 0.862,-14.493 -0.15,-14.289 -0.384,-14.571 -11.911,-14.896 -28.713,-0.806 -99.526,-0.768 -102.946,0.04 -2.076,0.499 -9.155,9.223 -15.734,19.386 -13.303,20.552 -13.512,26.784 -1.694,50.265 24.726,29.253 64.863,35.598 89.994,24 z m -60.651,-34.777 c 0.272,-4.478 9.205,-2.297 13.257,3.238 2.129,2.902 8.58,5.669 14.335,6.15 5.756,0.48 13.222,2.153 16.591,3.719 5.757,2.675 5.764,3.168 0.1,8.18 -20.356,15.32 -44.091,-3.881 -44.286,-21.287 z m 54.97,-41.751 c -2.467,-7.818 7.562,-17.18 12.47,-11.639 4.76,5.375 1.531,15.977 -5.134,16.845 -3.007,0.393 -6.309,-1.952 -7.336,-5.206 z m 26.212,2.618 c -2.107,-6.678 1.247,-15.657 5.749,-15.381 5.813,0.351 7.655,11.231 3.901,15.769 -4.037,4.88 -8.036,4.726 -9.65,-0.388 z m -136.45,41.298 c -0.944,-2.985 -1.583,-7.942 -1.425,-11.018 0.252,-4.836 -0.201,-4.942 -3.265,-0.765 -5.499,7.475 -4.953,16.52 1.016,16.879 3.534,0.201 4.799,-1.537 3.674,-5.096 z m 57.794,-81.076 c 41.891,0.649 43.045,0.467 41.152,-6.499 -3.007,-11.067 -1.391,-24.925 3.52,-30.159 6.659,-7.101 33.265,-4.044 41.02,4.715 6.012,6.792 5.846,13.797 -0.645,26.946 -2.423,4.905 -0.871,5.833 10.94,6.553 11.072,0.669 13.837,-0.358 14.134,-5.262 0.829,-13.625 -8.437,-42.294 -17.404,-53.846 -9.737,-12.55 -18.689,-16.463 -19.18,-8.384 -0.378,6.242 -15.213,11.332 -24.558,8.427 -10.346,-3.219 -15.896,-8.478 -18.822,-17.845 -2.327,-7.448 -2.945,-7.596 -16.064,-3.845 -24.042,6.873 -27.343,9.359 -27.713,20.842 -0.38,11.811 -14.587,25.463 -25.792,24.784 -8.12,-0.493 -9.814,2.155 -13.638,21.319 -2.91,14.597 -2.653,15.632 3.401,13.688 18.542,-1.607 34.31,-1.646 49.649,-1.434 z m 67.611,-23.712 c 0.462,-7.62 -7.85,-9.643 -11.017,-2.68 -2.438,5.353 -0.151,8.727 6.142,9.11 2.457,0.151 4.652,-2.745 4.875,-6.43 z m 92.374,-14.563 c 11.947,-11.461 19.28,-32.417 17.42,-49.784 -1.693,-15.791 -3.85,-16.456 -12.145,-3.744 -5.25,8.054 -31.043,25.566 -41.942,28.477 -1.657,0.443 -0.127,9 3.409,19.013 5.805,16.46 7.246,18.068 15.018,16.751 4.726,-0.804 12.935,-5.624 18.24,-10.713 z m -199.766,-13.824 c 5.99,-4.074 6.205,-5.051 1.797,-8.095 -22.629,-15.626 -38.291,-30.636 -46.605,-44.664 l -9.811,-16.556 -3.011,9.275 c -1.657,5.1 -3.513,17.02 -4.127,26.491 -1.689,26.082 7.159,34.683 38.007,36.943 10.235,0.749 19.635,-0.592 23.75,-3.394 z m 103.719,-21.925 c 0.227,-3.625 -16.226,-9.229 -19.241,-6.558 -2.883,2.551 5.897,8.631 13.199,9.138 3.223,0.226 5.943,-0.937 6.042,-2.58 z" fill="#00B894" transform="translate(178.18028,215.42832) matrix(0.26458333,0,0,0.26458333,-3953.2248,-4389.4132)"/>
</svg>