<?xml version="1.0" ?><svg height="88.84465mm" viewBox="0 0 256.21777 88.84465" width="256.21777mm" xmlns="http://www.w3.org/2000/svg">
    <path d="m 4019.7062,-217.43126 c 0,0 48.1973,36.07813 87.9016,35.20927 39.7043,-0.86886 64.2027,-14.55363 112.8375,-68.53246 48.6347,-53.97884 129.1295,-59.0835 165.2133,-45.39871 36.0839,13.68479 100.89,62.34177 129.8536,85.25832 28.9636,22.91655 94.2525,14.77085 143.9734,-19.33247 49.7208,-34.10332 107.8806,-44.54425 107.8806,-44.54425 l 18.8352,-47.44781 c 0,0 121.1317,73.48384 130.1828,82.82424 2.8743,56.56778 2.1366,58.57211 -5.5513,94.5987 l -118.0268,91.014586 -9.7752,-90.797356 c 0,0 -49.1175,-1.73772 -74.2193,22.69935 -25.1018,24.437078 -68.4266,84.172236 -146.5077,85.909956 -78.0811,1.73772 -173.5013,-69.407386 -206.9302,-75.163676 -33.4288,-5.75629 -77.1157,-3.2583 -108.855,25.849006 -31.7392,29.107305 -67.3404,81.1311345 -140.8356,70.053009 -73.4952,-11.078125 -87.7356,-29.43312 -87.7356,-29.43312 l -44.773,-91.123195 z" fill="#FFFFFF" transform="translate(2.5317327,-111.45284) matrix(0.26458333,0,0,0.26458333,-1051.776,200.73864)"/>
    <path d="m 4047.3935,-13.510135 c -29.2297,-5.85996 -30.5718,-5.738587 -48.0308,-38.808898 -13.0513,-24.92662 -27.037,-55.022197 -31.0794,-66.878757 -7.1923,-21.09397 1.3598,-25.47758 13.306,-55.62654 15.7581,-39.76952 29.8104,-64.96356 36.2347,-64.96356 2.8043,0 11.9696,7.08915 20.3675,15.75344 17.7992,18.36411 47.6175,29.78387 77.7682,29.78387 26.1138,0 43.1931,-10.66806 90.8993,-56.77707 37.2813,-36.03286 58.7809,-48.96116 98.7234,-59.36486 50.3866,-13.12435 102.1452,-6.07858 140.1613,19.07925 9.9874,6.60932 32.7852,25.86071 50.6623,42.78151 27.5482,26.07483 35.7259,31.248 53.6425,33.93482 27.1313,4.06866 59.2898,-6.00649 97.0265,-30.39793 35.8478,-23.17081 69.1005,-35.7767 94.3728,-35.7767 h 19.9184 l 3.0895,-24.72683 c 4.794,-38.36994 10.1372,-39.96284 55.7372,-16.61307 51.6526,26.44883 87.5133,51.06703 102.885,70.62957 12.6253,16.06764 12.6519,16.25378 8.4416,58.22926 -3.2832,32.73399 -7.9641,54.11031 -14.281,57.70937 -4.4696,2.54644 -22.6124,17.46725 -40.318,33.15647 -39.2808,34.808008 -93.5514,71.413278 -98.2981,66.301228 -1.9167,-2.06352 -2.4324,-32.62531 -3.5069,-54.50682 -1.0744,-21.881428 -3.0748,-40.906048 -4.4453,-42.276948 -1.371,-1.37056 -12.4959,-0.24933 -24.7228,2.49009 -19.0608,4.27152 -28.1458,10.7828 -63.7152,45.663908 -52.7586,51.73917 -71.9414,61.12477 -125.0479,61.18555 -37.2455,0.0444 -40.8621,-0.8873 -79.5467,-20.44743 -22.2897,-11.27051 -41.3833,-23.37982 -42.4304,-26.90919 -1.3952,-4.70358 0.3916,-5.47543 6.6869,-2.88937 37.9819,15.60146 88.3781,25.6657 120.1568,23.99527 43.0156,-2.26128 61.4777,-11.46655 106.2464,-52.977098 40.2771,-37.34536 56.1956,-46.41845 83.2666,-47.46047 14.626,-0.56284 19.429,-2.41428 17.7323,-6.83642 -1.2797,-3.33572 -2.327,-9.72098 -2.327,-14.18991 0,-7.62705 -1.7468,-7.72542 -28.4609,-1.60656 -33.3552,7.64004 -39.2343,11.08882 -74.6368,43.77807 -37.5657,34.687128 -60.1442,45.171768 -102.761,47.716848 -34.4387,2.05704 -35.9254,1.69024 -79.6905,-19.656098 -24.5284,-11.96407 -58.9413,-32.58466 -76.4731,-45.82443 -40.2129,-30.36686 -49.6692,-33.93175 -76.6409,-28.89281 -28.8535,5.39004 -32.7289,7.89003 -66.3939,42.82692 -52.4248,54.405718 -90.4291,75.009578 -138.6402,75.163938 -32.3133,0.10594 -77.1934,-9.3412 -99.7058,-20.98261 l -12.9317,-6.68717 9.6024,18.82245 c 10.2925,20.17386 28.1012,30.70666 69.4172,41.05471 19.1333,4.79236 26.0981,4.18648 59.1989,-5.14858 43.4798,-12.26232 67.8034,-27.13221 91.3136,-55.82352 25.6562,-31.310048 44.4451,-40.995868 80.2864,-41.387258 25.6582,-0.28346 34.7781,1.98225 60.4888,15.00823 53.3973,27.053208 42.4171,38.257468 -13.9754,14.260148 -54.4045,-23.150878 -72.0415,-18.419328 -125.0047,33.53797 -39.7326,38.97787 -66.1081,54.389098 -105.5667,61.6831584 -41.796,6.0862266 -65.7307,-5.4438331 -89.0014,-10.1091414 z m 839.843,-123.490705 c 11.2275,-9.2705 13.5684,-15.00923 15.3048,-37.51235 l 2.0498,-26.568 -19.8586,18.75275 c -10.9214,10.31388 -36.2514,31.61856 -56.2877,47.34366 -20.0365,15.72475 -30.1045,25.3903 -29.8959,28.77989 1.9864,32.259615 -8.0904,38.063698 35.588,7.777448 21.9149,-15.195268 45.8098,-32.553228 53.0996,-38.573398 z m -584.4524,-63.74634 c 53.121,-15.77529 76.3301,-7.33744 136.3996,49.59024 33.7923,32.02499 43.3662,38.55677 63.6398,43.42084 30.1045,7.22157 67.2643,3.54169 93.7606,-9.28485 11.2568,-5.44946 34.648,-22.92217 51.981,-38.82827 17.3324,-15.90612 39.2816,-32.82587 48.7751,-37.59911 25.0583,-12.59907 76.0096,-21.72886 91.3385,-16.36683 11.3488,3.96995 12.6438,6.82754 14.7204,32.48502 -1.2919,42.34951 12.9817,19.36718 36.7401,-0.0864 18.9546,-15.52016 41.3298,-34.01268 49.7225,-41.09466 15.8512,-12.29218 16.87,-11.53514 1.9664,-23.94165 -11.7828,-9.80841 -90.8516,-61.08752 -94.1927,-61.08752 -0.7193,0 -0.5485,7.95698 0.378,17.68205 0.9278,9.7251 -0.1913,18.84328 -2.4891,20.26268 -2.2963,1.4194 -17.1953,4.67727 -33.1082,7.24011 -27.5834,4.44229 -42.3218,10.87366 -129.5615,56.53698 -32.5105,17.01676 -39.4862,18.95256 -68.3061,18.95256 -38.9272,0 -64.6493,-12.98875 -93.5141,-47.22071 -51.0615,-60.55645 -109.4797,-76.65314 -181.0311,-49.8826 -19.8422,7.4242 -35.6158,19.332 -72.3423,54.61383 -25.8316,24.81595 -54.1329,48.11415 -62.8915,51.77364 -33.9566,14.18787 -94.6592,3.8938 -120.7484,-20.47749 l -14.3149,-13.37194 -15.8898,34.86787 c -15.8384,34.75519 -15.8617,34.90512 -7.2685,46.43554 18.1726,24.38381 63.729,40.364368 116.504,40.867448 25.4899,0.24248 36.203,-2.06421 56.7527,-12.22304 49.4173,-24.790138 86.2926,-88.938218 132.9795,-103.263738 z" fill="#00B894" transform="translate(2.5317327,-111.45284) matrix(0.26458333,0,0,0.26458333,-1051.776,200.73864)"/>
</svg>