<?xml version="1.0" ?><svg height="774.29547mm" viewBox="0 0 755.18658 774.29547" width="755.18658mm" xmlns="http://www.w3.org/2000/svg">
    <path d="m -344.02068,2187.0373 h 755.18659 v 774.2955 h -755.18659 z" fill="#FFFFFF" transform="translate(294.15241,249.1811) translate(49.868275,-2436.2184)"/>
    <path d="m 12019.887,10075.779 c -3.26,0.215 -5.037,26.963 -3.006,49.561 5.487,61.058 7.81,112.099 11.135,244.721 1.931,77.038 5.031,184.045 6.888,237.793 1.858,53.747 3.311,134.368 3.233,179.158 -0.148,83.76 7.431,324.472 13.129,416.953 1.766,28.665 4.749,87.299 6.629,130.297 1.879,42.998 4.827,92.104 6.55,109.125 1.723,17.02 4.547,69.79 6.274,117.267 1.727,47.477 3.977,90.72 5.002,96.094 1.024,5.375 3.23,52.282 4.902,104.238 1.672,51.956 4.446,109.126 6.164,127.041 1.719,17.916 4.721,69.22 6.67,114.01 5.809,133.484 12.747,234.335 24.541,356.69 17.421,180.738 18.127,188.401 20.836,226.392 1.405,19.708 1.67,36.875 0.588,38.151 -1.082,1.275 -15.876,0.16 -32.875,-2.479 -16.999,-2.639 -55.093,-6.301 -84.654,-8.139 -29.562,-1.837 -67.375,-5.119 -84.032,-7.293 l -30.285,-3.953 -1.199,-23.176 c -1.191,-23.014 -6.578,-51.914 -24.824,-133.181 -5.229,-23.291 -13.929,-64.335 -19.334,-91.209 -5.405,-26.874 -14.841,-67.916 -20.967,-91.207 -6.126,-23.291 -14.268,-59.939 -18.094,-81.438 -7.661,-43.052 -26.814,-130.649 -42.377,-193.816 -5.517,-22.395 -15.048,-62.706 -21.177,-89.58 -6.13,-26.874 -15.635,-64.814 -21.124,-84.311 -5.488,-19.497 -9.406,-36.022 -8.705,-36.722 0.701,-0.701 29.701,1.7 64.446,5.338 125.071,13.092 199.88,18.849 205.685,15.826 6.845,-3.565 7.345,-10.401 1.213,-16.534 -5.103,-5.103 -47.472,-10.467 -122.553,-15.517 -70.632,-4.751 -154.327,-13.156 -156.826,-15.748 -2.777,-2.881 -22.704,-74.049 -33.898,-121.07 -15.789,-66.32 -34.283,-114.656 -44.631,-116.649 -4.684,-0.902 -5.695,1.305 -5.695,12.43 0,14.081 32.491,162.47 47.605,217.414 1.874,6.812 0.985,7.33 -12.623,7.33 -8.628,0 -16.207,1.887 -18.455,4.596 -4.932,5.943 -2.479,7.151 20.055,9.88 18.613,2.256 18.674,2.302 22.218,15.881 1.955,7.49 7.093,26.81 11.416,42.934 4.324,16.124 15.085,61.567 23.914,100.982 8.83,39.415 17.113,75.855 18.409,80.977 2.25,8.9 1.937,9.23 -7.045,7.404 -20.901,-4.248 -94.173,-9.057 -107.518,-7.056 -13.102,1.964 -14.263,2.912 -14.263,11.648 0,7.225 1.761,9.89 7.33,11.084 18.553,3.978 56.095,8.311 89.586,10.34 20.222,1.225 37.85,3.827 39.32,5.803 3.401,4.571 23.719,94.088 34.824,153.425 4.694,25.082 12.079,58.063 16.412,73.291 4.333,15.229 13.699,55.047 20.815,88.485 7.115,33.438 15.961,72.641 19.658,87.119 3.696,14.478 8.999,38.425 11.783,53.215 2.784,14.79 9.308,42.202 14.498,60.916 5.191,18.714 8.882,34.583 8.201,35.263 -2.354,2.355 -78.573,-6.067 -125.615,-13.88 -25.978,-4.315 -56.761,-8.798 -68.406,-9.963 -11.646,-1.165 -30.489,-4.904 -41.875,-8.309 -11.386,-3.405 -22.014,-6.191 -23.617,-6.191 -1.603,0 -2.914,5.6 -2.914,12.443 v 12.443 l 28.501,3.846 c 15.677,2.116 53.422,9.673 83.879,16.795 30.457,7.122 67.836,14.554 83.065,16.516 15.228,1.961 50.41,7.114 78.18,11.451 68.532,10.704 101.636,14.457 127.542,14.457 12.017,0 44.699,2.968 72.627,6.596 56.487,7.337 61.236,6.58 68.543,-10.93 3.359,-8.048 3.664,-19.303 1.387,-51.043 -3.492,-48.694 -11.449,-134.239 -16.058,-172.645 -10.685,-89.018 -20.179,-220.905 -27.672,-384.377 -1.109,-24.186 -4.946,-79.889 -8.528,-123.783 -3.581,-43.894 -7.867,-117.185 -9.525,-162.871 -1.658,-45.685 -3.937,-93.326 -5.065,-105.867 l -2.05,-22.801 16.472,1.115 c 15.688,1.063 48.083,-8.772 66.231,-20.105 4.89,-3.054 7.949,-1.61 18.576,8.768 9.425,9.201 15.143,12.258 22.064,11.791 5.138,-0.344 11.645,-0.473 14.457,-0.284 3.09,0.209 11.709,13.61 21.766,33.842 9.158,18.423 19.682,36.24 23.387,39.594 6.615,5.987 6.738,5.968 6.738,-1.026 0,-3.917 -7.144,-25.764 -15.875,-48.55 -10.673,-27.857 -16.598,-48.901 -18.084,-64.233 -2.316,-23.906 -7.565,-35.713 -17.26,-38.824 -3.183,-1.021 -10.183,-10.029 -15.558,-20.018 -10.817,-20.101 -19.104,-29.145 -23.957,-26.146 -3.618,2.236 0.665,20.841 8.14,35.365 4.138,8.04 4.011,9.871 -1.173,16.965 -3.696,5.056 -7.89,7.328 -11.514,6.24 -8.997,-2.699 -18.729,1.833 -18.729,8.721 0,4.046 -2.245,6.295 -6.283,6.295 -9.366,0 -16.838,9 -14.664,17.662 1.492,5.943 0.04,8.131 -7.326,11.01 -9.372,3.664 -17.746,4.948 -27.918,4.279 -11.258,-0.741 -6.986,-20.372 10.143,-46.611 15.088,-23.115 67.681,-86.813 80.103,-97.018 5.513,-4.529 5.726,-4.042 3.643,8.289 -2.524,14.94 2.214,30.727 9.22,30.727 2.758,0 7.554,-7.541 11.492,-18.067 14.78,-39.502 29.026,-61.494 49.395,-76.25 12.334,-8.934 13.033,-9.052 26.424,-4.439 11.49,3.959 18.065,4.096 39.93,0.834 34.098,-5.088 38.145,-4.913 52.773,2.285 12.074,5.941 20.882,17.567 25.564,33.744 l 2.358,8.145 -9.524,-8.959 c -11.605,-10.917 -20.568,-11.746 -20.568,-1.903 0,3.881 6.857,18.059 15.236,31.504 l 15.237,24.446 -5.473,37.718 c -3.01,20.745 -7.227,49.081 -9.371,62.967 -3.04,19.681 -3.032,26.113 0.03,29.176 8.139,8.139 14.292,-7.274 32.781,-82.113 l 2.817,-11.401 8.508,17.916 c 10.687,22.507 15.797,46.689 14.517,68.694 l -0.992,17.076 -29.316,0.277 c -25.931,0.245 -31.87,1.484 -51.412,10.74 -43.406,20.56 -87.141,55.785 -107.895,86.899 -6.9,10.344 -8.453,16.502 -8.453,33.551 0,13.432 1.982,24.598 5.557,31.304 3.055,5.734 5.267,11.482 4.918,12.772 -2.552,9.392 50.05,15.55 77.83,9.111 54.946,-12.736 109.635,-46.82 128.142,-79.863 3.011,-5.375 4.645,-7.079 3.631,-3.787 -4.429,14.382 -5.706,32.531 -3.521,50.06 2.145,17.212 3.905,20.428 19.962,36.496 9.685,9.692 17.233,17.892 16.772,18.221 -0.461,0.33 -7.22,4.334 -15.02,8.897 -22.262,13.022 -53.557,45.747 -76.609,80.111 -22.724,33.874 -43.17,73.796 -46.275,90.35 l -1.924,10.246 -30.197,1.982 c -52.95,3.479 -89.895,20.941 -129.319,61.119 -33.001,33.633 -56.203,79.535 -71.183,140.832 -5.611,22.959 -9.703,44.947 -9.094,48.862 1.026,6.598 1.488,6.404 6.336,-2.655 2.876,-5.375 12.016,-29.561 20.312,-53.748 8.909,-25.975 21.399,-54.444 30.51,-69.551 26.935,-44.657 74.297,-83.201 120.594,-98.138 23.274,-7.51 70.882,-7.757 98.422,-0.512 30.874,8.123 44.158,16.125 73.511,44.279 40.417,38.765 85.192,56.914 112.502,45.602 l 10.334,-4.279 -7.326,-5.934 c -4.03,-3.263 -9.609,-5.932 -12.396,-5.932 -2.788,0 -4.276,-0.793 -3.307,-1.761 3.035,-3.036 49.121,8.738 64.475,16.47 34.399,17.326 67.758,62.555 61.705,83.662 -1.663,5.797 -4.562,29.583 -6.442,52.858 -1.88,23.274 -4.013,42.915 -4.74,43.64 -0.727,0.727 -12.359,1.392 -25.852,1.479 -22.036,0.142 -27.107,-1.111 -49.847,-12.33 -19.734,-9.735 -31.824,-19.01 -54.836,-42.063 -16.237,-16.265 -35.476,-38.369 -42.752,-49.119 -18.868,-27.876 -63.534,-69.185 -92.443,-85.496 -32.201,-18.167 -51.664,-21.572 -110.538,-19.344 -53.512,2.026 -78.014,7.384 -103.966,22.739 -22.969,13.589 -25.165,20.574 -3.125,9.941 27.997,-13.506 57.73,-18.335 115.234,-18.709 58.389,-0.38 65.968,1.237 99.647,21.236 24.257,14.406 65.389,55.51 87.656,87.598 24.433,35.211 66.649,75.301 92.806,88.133 21.328,10.462 24.842,11.17 55.377,11.17 h 32.606 v 45.605 c 0,25.083 1.078,49.441 2.396,54.131 2.17,7.719 0.625,9.714 -16.287,21.043 -46.152,30.918 -98.652,55.457 -145.724,68.115 -41.554,11.177 -74.352,13.484 -157.987,11.118 -68.41,-1.936 -77.726,-2.966 -139.867,-15.465 -36.616,-7.365 -67.242,-12.726 -68.057,-11.912 -10.884,10.884 102.987,40.429 183.495,47.609 75.935,6.772 150.487,0.08 208.476,-18.721 47.92,-15.534 131.73,-60.544 143.182,-76.894 4.765,-6.803 4.826,-6.79 22.174,4.728 27.825,18.476 41.284,24.303 84.164,36.442 51.566,14.597 66.411,16.908 139.744,21.744 70.132,4.624 189.022,1.98 221.82,-4.934 53.535,-11.284 94.017,-25.498 146.27,-51.355 29.561,-14.629 55.947,-26.693 58.634,-26.807 3.562,-0.153 5.153,-4.83 5.87,-17.265 l 0.982,-17.059 22.654,11.41 c 12.46,6.275 31.807,13.509 42.992,16.076 30.344,6.965 112.733,15.678 126.874,13.416 14.597,-2.334 15.233,0.09 4.263,16.256 -11.545,17.013 -15.204,31.319 -17.045,66.645 -2.007,38.515 7.422,79.016 22.356,96.025 5.116,5.827 9.302,11.316 9.302,12.199 0,0.884 -4.032,2.495 -8.959,3.58 -4.925,1.085 -24.348,5.681 -43.16,10.215 -18.811,4.533 -50.973,10.39 -71.47,13.016 -43.003,5.508 -52.744,10.759 -39.737,21.424 9.285,7.612 25.124,8.077 55.188,1.619 11.999,-2.578 38.674,-7.917 59.277,-11.865 37.915,-7.266 69.282,-16.506 76.572,-22.557 2.78,-2.307 8.32,-1.347 18.27,3.168 7.854,3.564 16.76,6.513 19.789,6.551 3.03,0.04 6.303,1.356 7.273,2.925 2.066,3.343 -41.921,11.803 -86.074,16.555 -17.02,1.832 -44.137,5.531 -60.261,8.221 -16.125,2.69 -35.962,5.679 -44.083,6.64 -16.752,1.985 -36.861,12.801 -34.884,18.762 2.392,7.214 64.3,6.667 116.427,-1.029 75.625,-11.164 121.139,-22.779 140.071,-35.746 6.335,-4.339 18.269,-5.992 53.746,-7.438 31.637,-1.289 60.659,-4.9 94.758,-11.793 68.779,-13.903 95.748,-15.305 139.232,-7.232 19.407,3.603 39.194,9.113 43.973,12.244 l 8.689,5.693 -9.771,2.454 c -5.374,1.349 -27.681,4.749 -49.571,7.556 -58.578,7.511 -118.736,28.616 -109.082,38.27 2.44,2.439 12.883,1.835 35.452,-2.055 17.596,-3.033 49.584,-8.316 71.084,-11.738 49.005,-7.802 62.716,-11.701 67.38,-19.17 3.425,-5.483 4.969,-4.935 20.969,7.445 12.331,9.542 16.019,14.062 12.899,15.809 -2.404,1.345 -22.504,3.987 -44.666,5.871 -57.404,4.877 -73.634,7.898 -95.026,17.695 -19.589,8.972 -26.065,16.654 -18.222,21.619 6.556,4.15 11.867,3.71 38.945,-3.242 13.326,-3.421 37.42,-7.898 53.545,-9.947 24.225,-3.08 96.304,-16.975 111.568,-21.508 10.081,-2.994 3.277,-14.439 -17.322,-29.139 -11.767,-8.396 -20.731,-15.929 -19.922,-16.738 0.81,-0.809 18.451,0.876 39.205,3.746 38.838,5.371 50.727,4.763 78.5,-4.01 11.826,-3.735 16.465,-4.081 17.393,-1.298 5.194,15.582 22.773,17.48 34.359,3.71 15.976,-18.986 19.972,-80.057 6.873,-105.054 -3.06,-5.84 -9.175,-17.859 -13.59,-26.709 -4.414,-8.851 -11.552,-20.716 -15.863,-26.367 -4.311,-5.652 -7.838,-11.02 -7.838,-11.932 0,-0.911 11.361,-2.608 25.246,-3.77 26.247,-2.196 35.696,-6.586 47.026,-21.847 6.748,-9.09 15.589,-67.997 16.156,-107.643 0.386,-27.057 -9.771,-67.114 -19.481,-76.824 -5.025,-5.025 -4.725,-5.245 4.36,-3.18 5.366,1.22 18.259,4.043 28.65,6.272 10.391,2.228 19.029,4.783 19.197,5.678 0.168,0.894 -0.735,19.215 -2.007,40.714 -1.805,30.491 -1.154,44.679 2.957,64.5 6.646,32.053 28.188,102.249 40.908,133.299 l 9.711,23.707 -8.996,7.328 c -4.949,4.032 -17.061,9.895 -26.914,13.03 -14.322,4.557 -18.135,7.247 -19.006,13.406 -1.483,10.481 3.566,14.615 17.224,14.101 14.257,-0.535 28.186,-7.526 48.2,-24.189 17.958,-14.953 19.327,-22.399 8.64,-47.023 -13.576,-31.279 -38.283,-98.784 -47.008,-128.436 -7.731,-26.275 -8.643,-33.788 -6.888,-56.619 4.217,-54.865 4.707,-56.447 19.646,-63.449 17.283,-8.101 22.114,-12.191 32.522,-27.528 9.14,-13.47 11.175,-24.736 4.466,-24.736 -2.252,0 -12.032,6.51 -21.732,14.467 -19.811,16.251 -41.387,23.237 -57.238,18.531 l -9.772,-2.902 16.287,-7.35 c 33.177,-14.973 66.336,-43.818 58.909,-51.246 -3.99,-3.989 -26.542,4.312 -67.918,25.004 -56.256,28.132 -57.307,27.448 -38.52,-24.996 6.99,-19.514 13.73,-43.654 14.979,-53.645 l 2.271,-18.166 19.199,1.74 c 17.178,1.558 20.566,0.797 32.168,-7.244 9.756,-6.76 13.493,-11.915 15.094,-20.81 1.17,-6.503 3.582,-13.657 5.359,-15.897 2.14,-2.683 2.145,-5.459 0.02,-8.142 -1.77,-2.24 -4.174,-13.809 -5.34,-25.709 -3.754,-38.295 -25.265,-87.489 -38.256,-87.489 -10.01,0 -10.686,8.566 -1.865,23.618 13.824,23.589 19.633,49.297 17.656,78.136 -0.962,14.04 -3.529,27.671 -5.705,30.293 -4.096,4.936 -23.101,6.082 -33.396,2.014 -5.507,-2.175 -41.124,-83.811 -41.336,-94.74 -0.05,-2.56 -1.851,-9.523 -4.002,-15.473 -3.114,-8.611 -3.025,-13.309 0.441,-23.033 11.392,-31.962 26.545,-38.876 53.529,-24.426 25.595,13.706 44.887,35.512 61.784,69.83 15.1,30.67 18.454,44.283 24.585,99.772 1.647,14.901 3.898,27.995 5.002,29.099 4.569,4.569 9.109,-6.331 12.045,-28.922 5.43,-41.764 -2.455,-81.26 -23.754,-119 -5.552,-9.837 -10.395,-22.843 -10.763,-28.904 -0.785,-12.928 -13.968,-40.026 -21.908,-45.035 -8.726,-5.504 -10.767,0.2 -4.657,13.014 7.461,15.646 4.685,17.547 -4.037,2.765 -3.805,-6.449 -6.92,-16.687 -6.92,-22.75 v -11.023 l 12.965,8.488 c 8.872,5.809 14.663,12.932 18.342,22.565 7.505,19.651 13.123,23.676 15.832,11.339 3.68,-16.756 -3.522,-34.784 -18.949,-47.425 -13.507,-11.068 -23.924,-28.788 -48.969,-83.301 -10.228,-22.263 -36.972,-52.676 -56.266,-63.983 -13.521,-7.924 -16.369,-8.379 -39.349,-6.296 -42.29,3.832 -55.412,12.003 -69.539,43.296 -16.81,37.236 -18.161,53.867 -10.83,133.375 2.778,30.138 -0.297,48.013 -7.85,45.618 -9.201,-2.918 -37.969,-13.456 -39.551,-14.487 -2.772,-1.806 10.536,-23.336 13.35,-21.597 1.537,0.95 2.795,5.413 2.795,9.918 0,6.056 1.484,7.898 5.699,7.068 4.654,-0.916 5.805,-4.996 6.262,-22.227 0.308,-11.607 1.567,-26.612 2.8,-33.343 1.546,-8.439 0.774,-14.509 -2.49,-19.545 -2.603,-4.019 -5.637,-16.114 -6.742,-26.881 -2.304,-22.453 -10.013,-46.487 -16.598,-51.746 -2.479,-1.98 -6.986,-15.327 -10.015,-29.66 -6.506,-30.784 -39.207,-135.116 -47.477,-151.471 -9.991,-19.759 -35.824,-39.088 -52.24,-39.088 -3.912,0 -12.683,-1.67 -19.49,-3.709 -10,-2.996 -16.559,-2.656 -34.162,1.766 -42.378,10.644 -54.568,20.988 -73.565,62.429 -9.172,20.01 -10.613,27.208 -12.67,63.295 -2.008,35.23 -4.61,52.119 -8.029,52.119 -0.5,0 -9.838,-5.962 -20.752,-13.25 -30.954,-20.67 -51.49,-26.811 -94.91,-28.378 -30.164,-1.089 -43.063,-0.02 -66.221,5.48 -15.818,3.758 -29.161,6.832 -29.652,6.832 -0.491,0 -1.769,-13.558 -2.838,-30.131 -1.146,-17.76 -5.506,-42.169 -10.623,-59.449 -8.431,-28.474 -9.847,-37.389 -7.455,-46.943 0.634,-2.535 -1.976,-5.46 -5.815,-6.516 -3.83,-1.055 -12.92,-9.481 -20.201,-18.725 -16.394,-20.815 -23.285,-25.721 -43.342,-30.861 -8.706,-2.231 -14.478,-4.89 -12.828,-5.91 1.65,-1.02 10.524,-12.104 19.721,-24.629 13.802,-18.797 16.417,-24.479 14.977,-32.545 -0.961,-5.375 -2.36,-16.369 -3.11,-24.432 -3.417,-36.748 -10.745,-55.375 -21.787,-55.375 -1.24,0 -3.027,-2.951 -3.971,-6.558 -1.774,-6.787 -23.148,-17.837 -28.32,-14.641 -1.612,0.996 -6.778,-4.753 -11.48,-12.777 l -8.551,-14.588 -20.135,1.381 c -37.937,2.602 -60.671,7.365 -74.875,15.689 -20.242,11.863 -37.313,31.903 -39.842,46.772 -1.161,6.825 -3.435,17.54 -5.053,23.81 -5.209,20.192 -3.402,49.28 4.047,65.151 3.784,8.062 6.652,18.797 6.373,23.857 -0.429,7.793 0.484,8.885 5.973,7.143 5.94,-1.885 6.198,-1.244 3.09,7.672 -2.434,6.981 -2.329,11.71 0.369,16.752 2.068,3.862 3.273,7.408 2.68,7.878 -2.527,2.002 -80.885,-2.433 -80.885,-4.578 0,-1.299 5.863,-4.663 13.029,-7.478 7.859,-3.087 13.03,-7.249 13.03,-10.487 0,-3.773 1.823,-4.789 6.13,-3.421 9.154,2.905 9.93,-2.871 6.61,-49.123 -1.657,-23.08 -4.344,-61.754 -5.973,-85.94 -3.084,-45.809 -10.419,-84.486 -18.344,-96.732 -4.079,-6.305 -3.887,-8.886 1.633,-21.764 5.24,-12.225 5.538,-15.214 1.822,-18.297 -3.36,-2.789 -7.071,-2.345 -15.259,1.82 l -10.823,5.504 6.924,-7.742 c 15.806,-17.682 18.27,-32.701 7.594,-46.273 -7.725,-9.82 -26.094,-14.41 -37.277,-9.315 -12.878,5.868 -23.597,53.765 -13.844,61.86 2.262,1.877 9.958,3.912 17.101,4.521 l 12.989,1.108 -14.658,7.642 c -14.959,7.799 -18.186,12.642 -35.524,53.334 -3.626,8.51 -7.168,15.473 -7.873,15.473 -2.504,0 -25.007,-38.517 -25.031,-42.838 -0.01,-2.417 -2.737,-8.514 -6.057,-13.549 -5.933,-8.998 -5.907,-9.473 1.531,-27.889 11.803,-29.22 17.577,-55.211 17.577,-79.119 v -21.955 l 80.621,-0.976 c 44.342,-0.538 81.663,-0.229 82.935,0.685 1.272,0.914 3.215,41.223 4.317,89.578 1.102,48.355 2.58,89.751 3.285,91.99 0.705,2.24 3.42,4.073 6.035,4.073 3.341,0 5.458,-5.566 7.121,-18.731 2.785,-22.046 -2.627,-169.988 -6.445,-176.166 -2.101,-3.407 -31.454,-4.076 -148.065,-3.408 -79.994,0.458 -148.507,1.896 -152.252,3.195 -6.592,2.288 -6.877,5.044 -8.972,86.522 -1.191,46.287 -3.797,115.5 -5.793,153.808 -4.296,82.441 -2.682,252.686 2.445,257.813 3.672,3.672 9.551,-95.488 6.002,-101.231 -1.63,-2.636 0.736,-112.555 6.928,-321.867 l 2.058,-69.576 28.129,2.174 c 27.77,2.146 57.063,5.289 57.854,6.207 0.223,0.26 -0.84,15.131 -2.364,33.047 -1.523,17.916 -2.603,65.556 -2.398,105.867 0.458,89.91 0.08,141.555 -2.574,352.607 l -2.078,165.307 -12.598,3.266 c -6.929,1.797 -18.671,4.845 -26.094,6.775 -16.666,4.333 -18.01,2.631 -20.687,-26.207 -8.792,-94.721 -16.829,-123.749 -40.729,-147.092 -20.891,-20.404 -50.557,-30.66 -79.349,-27.433 -30.394,3.406 -58.234,17.694 -67.33,34.554 -3.614,6.698 -22.434,71.374 -37.329,128.284 -6.538,24.981 -13.949,50.354 -16.468,56.384 -6.502,15.561 -27.553,86.74 -27.553,93.162 0,9.367 5.134,5.82 12.268,-8.478 8.677,-17.391 40.48,-119.855 55.972,-180.336 3.137,-12.246 4.188,-13.248 12.279,-11.701 4.868,0.93 11.273,4.684 14.235,8.342 5.169,6.383 5.728,6.426 13.949,1.039 9.98,-6.539 9.733,-7.988 5.273,30.933 -1.779,15.539 -8.363,43.577 -14.63,62.305 -6.267,18.728 -11.395,37.969 -11.395,42.758 0,4.789 -2.366,13.399 -5.258,19.133 -5.514,10.932 -20.422,28.339 -24.269,28.339 -1.236,0 -1.505,-6.596 -0.596,-14.658 1.011,-8.973 0.349,-14.658 -1.709,-14.658 -4.625,0 -10.521,18.044 -10.521,32.246 0,10.753 -2.139,13.414 -25.592,31.949 -14.071,11.12 -34.552,25.56 -45.514,32.09 -3.342,1.991 -3.688,2.119 -5.861,3.602 -0.06,-8.134 -1.696,-15.581 -5.426,-19.637 -8.911,-9.69 -11.975,-14.185 -8.273,-22.992 2.256,-5.368 3.483,-14.294 -5.489,-14.496 -6.988,-0.159 -14.567,-0.227 -19.92,-0.223 v 0 c -13.469,-0.652 -28.61,11.643 -33.187,20.461 -4.482,8.966 -2.939,25.882 4.396,32.838 -6.051,-0.132 -11.839,-0.895 -16.961,-3.035 -15.346,-6.412 -29.123,-6.021 -45.015,1.277 -16.119,7.402 -23.087,15.043 -28.766,31.549 -4.205,12.221 -5.45,13.093 -26.91,18.846 -23.249,6.231 -85.548,9.196 -96.75,4.603 -8.051,-3.3 -3.978,-10.242 26.664,-45.461 55.513,-63.805 70.649,-110.034 47.295,-144.449 l -7.658,-11.285 h 13.545 c 17.092,0 32.853,-10.382 38.197,-25.16 3.156,-8.729 7.598,-12.594 21.58,-18.778 34.251,-15.147 51.242,-33.493 55.463,-59.89 1.685,-10.539 4.108,-14.663 9.916,-16.871 9.038,-3.437 10.214,-12.805 1.881,-14.985 -4.178,-1.092 -6.864,-7.073 -9.57,-21.316 -5.894,-31.01 -30.047,-60.631 -63.987,-78.469 -33.687,-17.705 -86.468,-12.407 -120.857,12.133 -23.937,17.08 -61.061,55.758 -69.719,72.633 l -6.291,12.261 v -20.125 c 0,-11.069 -0.986,-25.955 -2.189,-33.08 -1.437,-8.502 -0.43,-18.137 2.931,-28.035 6.51,-19.178 6.544,-50.342 0.08,-75.246 -2.771,-10.678 -13.031,-33.156 -22.801,-49.953 -13.65,-23.467 -17.772,-33.652 -17.802,-43.977 -0.09,-30.87 -13.871,-62.637 -34.582,-79.709 l -11.334,-9.341 10.082,-4.174 c 26.807,-11.104 34.461,-28.34 15.986,-35.992 -17.849,-7.393 -167.239,-2.001 -185.967,6.713 -17.077,7.945 -14.085,22.79 5.926,29.394 l 11.857,3.914 -10.951,8.563 c -38.467,30.078 -120.395,111.516 -142.168,141.318 l -18.757,25.674 -2.063,-41.754 c -1.134,-22.965 -3.771,-69.606 -5.861,-103.647 -4.95,-80.602 -9.019,-167.331 -13.145,-280.138 -1.834,-50.165 -4.811,-117.593 -6.615,-149.842 -1.804,-32.248 -3.28,-115.802 -3.281,-185.674 0,-69.872 -1.401,-161.487 -3.112,-203.59 -1.71,-42.102 -4.709,-128.588 -6.664,-192.189 -4.033,-131.243 -10.912,-226.693 -18.002,-249.768 -2.655,-8.642 -6.978,-28.747 -9.605,-44.676 -2.627,-15.927 -5.453,-29.636 -6.279,-30.462 -0.23,-0.231 -0.455,-0.335 -0.672,-0.321 z m 2025.244,110.989 c -4.61,0.926 -5.153,7.261 -4.416,51.457 0.462,27.72 2.996,81.918 5.631,120.437 10.02,146.473 11.859,239.895 8.119,412.365 -1.978,91.207 -2.673,223.731 -1.545,294.498 2,125.561 9.825,337.161 12.949,350.174 0.86,3.584 3.888,29.901 6.731,58.483 2.842,28.582 5.891,53.135 6.773,54.562 0.882,1.428 2.242,2.596 3.023,2.596 1.749,0 -0.644,-50.215 -4.888,-102.61 -7.719,-95.287 -10.837,-301.49 -8.742,-578.195 2.133,-281.915 0.833,-351.273 -9.278,-495.131 -2.581,-36.727 -5.684,-89.934 -6.896,-118.236 -1.924,-44.911 -2.873,-51.323 -7.461,-50.4 z m 175.369,11.039 c -1.139,0.645 -2.48,6.919 -4.08,17.527 -3.663,24.277 -0.62,528.083 3.719,615.656 1.908,38.52 5.085,146.993 7.062,241.051 4.635,220.584 13.441,476.759 18.188,529.137 1.227,13.545 3.494,24.627 5.039,24.627 1.544,0 2.755,-1.1 2.691,-2.444 -6.55,-136.902 -10.617,-288.614 -14.342,-535.033 -2.559,-169.305 -5.635,-318.823 -6.838,-332.26 -1.202,-13.437 -3.132,-144.267 -4.289,-290.734 -1.582,-200.337 -3.081,-269.832 -7.15,-267.527 z m -379.916,37.556 c -4.778,1.857 -18.362,16.13 -49.961,51.584 -45.585,51.146 -59.069,67.451 -65.574,79.289 -2.811,5.116 -2.437,5.502 2.678,2.756 8.361,-4.489 114.975,-126.513 115.041,-131.67 0.02,-1.816 -0.591,-2.578 -2.184,-1.959 z m -963.615,17.547 c -79.089,0.104 -89.729,0.759 -105.59,6.514 -19.744,7.163 -24.978,13.051 -22.033,24.783 3.146,12.535 23.794,22.334 47.058,22.334 18.514,0 19.984,0.598 28.28,11.475 6.115,8.017 13.097,12.633 23.187,15.332 13.135,3.513 14.44,4.773 14.44,13.937 0,5.541 1.758,11.832 3.908,13.983 6.05,6.05 11.729,4.67 17.59,-4.274 3.342,-5.1 4.673,-11.61 3.539,-17.283 -1.693,-8.463 -0.383,-9.835 18.66,-19.508 11.264,-5.722 23.294,-10.404 26.732,-10.404 11.448,0 54.897,-13.423 60.836,-18.795 10.563,-9.553 5.878,-20.944 -12.369,-30.066 -16.187,-8.093 -16.83,-8.141 -104.238,-8.028 z m 20.636,12.574 c 14.998,0.03 28.385,0.505 38.026,1.522 53.111,5.602 60.079,12.543 21.42,21.336 -19.932,4.532 -23.498,4.564 -31.725,0.273 -11.102,-5.79 -37.31,-6.211 -66.273,-1.062 v 0 c -25.793,4.585 -78.802,5.422 -87.862,1.388 -10.111,-4.502 -7.899,-10.213 5.612,-14.494 16.322,-5.17 75.81,-9.059 120.802,-8.965 z m -20.238,67.118 c 4.329,0 4.552,0.885 1.231,4.886 -2.231,2.688 -4.609,4.887 -5.286,4.887 -0.675,0 -1.23,-2.199 -1.23,-4.887 0,-2.687 2.378,-4.886 5.285,-4.886 z m 1030.145,14.927 c -5.987,3.7 1.656,407.355 8.722,460.659 0.832,6.269 2.799,99.576 4.371,207.347 1.573,107.771 3.851,197.554 5.065,199.518 1.214,1.963 2.806,3.57 3.539,3.57 3.851,0 1.149,-369.793 -3.213,-439.754 -5.157,-82.711 -9.996,-207.759 -13.391,-346.066 -1.245,-50.771 -3.369,-86.339 -5.093,-85.274 z m -1649.541,31.51 c -13.398,0.02 -25.407,0.194 -35.748,0.52 -65.283,2.053 -81.065,3.748 -78.194,8.394 3.024,4.892 95.241,7.089 481.797,11.481 71.488,0.812 130.732,2.231 131.654,3.154 0.923,0.922 11.069,1.678 22.547,1.678 18.053,0 20.723,-0.765 19.782,-5.653 -1.744,-9.053 -18.724,-10.247 -148.536,-10.447 -66.801,-0.103 -176.007,-2.543 -242.679,-5.422 -57.726,-2.494 -110.429,-3.771 -150.623,-3.705 z m 1422.371,8.922 c -26.481,-0.02 -104.109,5.86 -117.682,8.91 -19.224,4.32 15.967,6.873 55.375,4.018 22.395,-1.623 51.096,-2.992 63.777,-3.045 l 23.057,-0.09 -1.152,129.482 c -0.634,71.216 -2.585,181.522 -4.336,245.123 -1.751,63.602 -3.174,126.999 -3.174,140.883 0,23.318 3.241,31.983 7.648,20.496 3.694,-9.625 10.268,-271.32 10.084,-401.343 -0.149,-105.759 -1.094,-135.188 -4.47,-139.256 -3.218,-3.878 -10.448,-5.136 -29.127,-5.174 z m -658.697,1.318 c -83.426,-0.178 -177.488,3.46 -188.971,8.477 -5.952,2.6 -1.606,3.004 18.162,1.685 14.293,-0.952 91.983,0.508 172.644,3.247 80.662,2.738 177.442,5.453 215.065,6.033 84.436,1.299 251.321,-0.771 274.437,-3.405 9.406,-1.071 17.102,-2.976 17.102,-4.232 0,-2.732 -158.642,-6.604 -270.367,-6.566 -43.894,0 -116.634,-1.656 -161.645,-3.698 -21.993,-0.997 -48.619,-1.481 -76.427,-1.541 z m 786.271,31.34 c -0.88,0.187 -1.818,1.665 -2.822,4.281 -2.297,5.987 4.502,706.115 7.226,744.047 1.68,23.386 5.42,30.439 8.637,16.287 0.917,-4.03 1.063,-125.329 0.326,-269.552 -1.93,-377.984 -4.864,-496.865 -13.367,-495.063 z m -643.203,43.233 c -112.05,0.16 -184.269,3.32 -189.477,8.793 -3.003,3.156 40.029,3.536 204.674,1.814 132.953,-1.392 224.997,-0.969 254.08,1.164 25.083,1.84 74.189,4.34 109.125,5.555 l 63.52,2.209 -0.86,148.554 c -0.925,159.984 -6.051,387.515 -8.896,394.866 -1.979,5.112 -119.262,5.674 -426.522,2.045 -93.042,-1.099 -175.276,-0.856 -182.74,0.539 l -13.572,2.535 -1.916,-138.744 c -1.799,-130.145 -0.477,-189.564 7.578,-340.459 3.218,-60.289 1.898,-73.737 -6.408,-65.231 -3.129,3.204 -7.048,53.459 -13.598,174.358 -5.923,109.339 -0.264,368.331 8.235,376.83 1.105,1.105 74.172,3.037 162.369,4.291 v 0 c 117.616,1.672 408.985,1.548 478.203,-0.201 1.03,-0.03 1.998,-4.813 2.152,-10.635 7.396,-279.951 7.296,-558.503 -0.201,-563.625 -2.105,-1.438 -36.808,-2.336 -77.119,-1.996 -40.311,0.34 -150.248,-0.468 -244.307,-1.797 -45.195,-0.639 -86.972,-0.919 -124.322,-0.865 z m -698.643,13.851 c -142.256,0.257 -279.302,1.431 -285.164,3.291 -32.132,10.198 77.877,12.832 350.774,8.399 205.434,-3.338 238.981,-3.202 270.367,1.101 19.707,2.703 40.645,4.904 46.529,4.942 l 10.699,0.04 -2.171,90.394 c -1.346,56.018 -0.718,118.885 1.65,165.315 3.501,68.639 5.828,99.527 16.975,225.285 2.089,23.57 2.828,47.7 1.644,53.637 -1.741,8.705 -1.362,9.981 1.977,6.644 6.161,-6.159 5.311,-112.401 -1.883,-235.088 -4.339,-73.994 -5.702,-132.566 -4.887,-210.029 l 1.131,-107.42 -19.545,-0.395 c -10.75,-0.216 -42.999,-1.976 -71.664,-3.91 -26.708,-1.801 -174.175,-2.46 -316.432,-2.203 z m -285.408,14.801 c -0.409,0.07 -0.765,0.234 -1.039,0.508 -1.095,1.095 -5.683,31.781 -10.195,68.189 -7.939,64.051 -8.22,72.975 -8.651,275.209 -0.245,114.957 0.776,210.238 2.268,211.735 1.492,1.497 107.766,3.103 236.164,3.57 128.398,0.467 234.574,1.199 235.943,1.629 1.37,0.429 56.338,0.779 122.153,0.779 113.067,0 137.963,-1.92 113.148,-8.727 -25.362,-6.956 -597.945,-12.033 -665.957,-5.904 -18.708,1.688 -34.695,2.383 -35.527,1.551 -0.832,-0.832 0.07,-96.441 1.998,-212.465 2.969,-178.398 4.581,-220.201 10.447,-270.887 4.777,-41.272 5.888,-60.983 3.568,-63.302 -1.389,-1.39 -3.093,-2.086 -4.32,-1.885 z m 1521.639,465.525 c -1.556,0 -2.784,59.733 -2.731,132.741 0.07,92.627 1.113,130.999 3.453,126.98 12,-20.611 11.335,-259.721 -0.722,-259.721 z m -2056.701,26.994 c -22.567,-0.276 -24.373,0.927 -24.373,5.153 0,4.885 4.218,6.685 22.933,9.775 30.961,5.113 52.992,6.48 170.883,10.61 55.539,1.945 118.571,4.606 140.07,5.912 21.499,1.306 42.941,2.615 47.649,2.91 10.74,0.673 18.465,-7.655 13.865,-14.947 -7.685,-12.184 -24.555,-13.847 -157.379,-15.524 -70.894,-0.895 -153.45,-2.325 -183.459,-3.176 -12.837,-0.364 -22.667,-0.62 -30.189,-0.713 z m 1720.41,120.866 c -12.958,0.125 -28.207,0.553 -45.903,1.275 -39.485,1.613 -89.381,2.291 -110.88,1.508 -21.5,-0.783 -57.412,0.285 -79.807,2.375 -22.395,2.089 -42.427,3.937 -44.518,4.111 -8.165,0.674 -19.145,69.352 -25.654,160.473 -4.764,66.695 -6.37,249.036 -2.617,297.24 1.15,14.781 3.119,26.873 4.375,26.873 3.672,0 6.481,-58.06 6.506,-134.148 0.02,-75.182 6.784,-193.866 14.736,-258.51 2.654,-21.575 4.824,-48.865 4.824,-60.643 v -21.414 l 87.137,-2.105 c 47.925,-1.158 124.21,-3.009 169.52,-4.113 58.172,-1.419 82.025,-3.072 81.173,-5.627 -1.772,-5.318 -20.019,-7.671 -58.892,-7.295 z m 125.117,15.91 c -2.42,-1.283 -3.218,22.678 -3.289,93.84 -0.06,54.793 0.917,100.64 2.162,101.884 6.713,6.715 8.265,-15.619 6.855,-98.718 -0.993,-58.54 -2.819,-92.276 -5.222,-96.418 -0.176,-0.304 -0.345,-0.503 -0.506,-0.588 z m -520.475,2.068 c -22.32,0.245 -49.651,1.276 -74.138,3.006 -21.499,1.518 -63.277,1.614 -92.838,0.215 -54.556,-2.583 -101.648,-0.947 -111.035,3.857 -4.512,2.31 -5.423,17.067 -7.157,116.012 -2.326,132.768 1.833,339.509 7.008,348.412 4.692,8.072 4.261,26.22 5.555,-233.416 l 1.127,-226.392 56.322,1.628 c 81.766,2.365 150.28,1.918 208.158,-1.355 l 50.854,-2.875 -1.586,229.32 c -0.873,126.127 -1.77,229.52 -1.992,229.762 -0.224,0.242 -59.773,1.366 -132.332,2.496 -72.56,1.131 -138.862,2.95 -147.338,4.043 -32.135,4.144 -9.907,6.712 63.187,7.299 41.63,0.334 76.494,1.471 77.477,2.527 v 0 c 0.982,1.055 33.99,1.134 73.349,0.174 68.196,-1.663 71.83,-2.075 77.229,-8.742 5.292,-6.535 5.559,-21.203 4.039,-222.61 -0.895,-118.586 -2.398,-223.238 -3.338,-232.56 -1.357,-13.452 -3.105,-17.395 -8.469,-19.098 -4.45,-1.412 -21.761,-1.952 -44.082,-1.707 z m -350.482,3.151 c -34.908,0.113 -102.704,2.789 -121.879,5.416 -7.614,1.043 -13.844,3.273 -13.844,4.955 0,1.821 31.831,3.058 78.705,3.058 h 78.707 l -2.24,142.512 c -2.252,143.319 1.566,291.086 7.916,306.455 1.724,4.172 4.866,7.008 6.983,6.303 5.036,-1.679 9.128,-17.365 7.345,-28.16 -3.4,-20.597 -8.429,-168.649 -8.256,-243.065 0.247,-106.144 -5.29,-193.167 -12.509,-196.637 -1.309,-0.628 -9.292,-0.875 -20.928,-0.837 z m -265.102,0.4 c -25.116,0 -31.167,1.213 -49.58,9.924 -43.036,20.359 -92.172,63.872 -107.213,94.943 -8.55,17.663 -8.62,23.165 -0.521,41.01 4.835,10.653 9.634,15.454 20.287,20.289 15.075,6.842 37.078,8.264 53.77,3.477 9.485,-2.721 11.334,-1.995 19.947,7.814 11.861,13.509 23.68,21.349 37.228,24.695 5.778,1.428 15.567,1.847 21.754,0.93 11.911,-1.764 34.259,-11.983 37.43,-17.113 1.042,-1.686 8.361,0.564 16.34,5.023 17.639,9.859 42.352,11.038 56.478,2.694 29.171,-17.232 26.591,-58.025 -7.644,-120.877 -17.364,-31.879 -43.055,-61.56 -59.186,-68.379 -6.163,-2.606 -22.268,-4.431 -39.09,-4.43 z m 0.338,29.314 c 31.001,0 42.56,4.159 48.112,17.313 5.632,13.342 4.283,54.136 -2.471,74.719 -6.024,18.357 -23.363,40.285 -39.902,50.465 -18.892,11.626 -34.055,9.056 -50.766,-8.604 -8.462,-8.942 -8.831,-10.109 -3.199,-10.109 3.502,0 12.102,-3.897 19.109,-8.659 l 12.74,-8.656 10.254,12.215 c 11.654,13.88 22.102,14.815 30.11,2.695 4.365,-6.607 4.254,-7.504 -1.186,-9.591 -3.3,-1.267 -9.46,-6.414 -13.689,-11.44 -8.833,-10.496 -25.882,-12.343 -39.686,-4.297 -19.68,11.472 -27.611,14.202 -30.064,10.346 -4.495,-7.064 -2.536,-11.928 4.82,-11.981 11.012,-0.07 16.169,-4.68 14.943,-13.347 -0.918,-6.499 -2.837,-7.697 -11.685,-7.295 -9.668,0.438 -10.588,-0.358 -10.588,-9.164 0,-13.622 15.564,-43.754 28.439,-55.059 9.91,-8.7 12.998,-9.551 34.709,-9.551 z m 870.588,10.143 c 1.435,-0.499 3.113,0.29 5.068,2.246 3.027,3.027 3.07,9.754 0.186,29.537 -2.054,14.09 -6.018,30.577 -8.809,36.637 -4.878,10.592 -5.026,9.593 -3.822,-25.9 0.948,-27.932 3.073,-41.022 7.377,-42.52 z m -259.939,6.852 c -3.259,-0.194 -7.316,-0.05 -12.145,0.459 -10.069,1.05 -61.772,2.213 -114.894,2.587 l -96.586,0.676 1.668,75.151 c 0.916,41.332 1.869,124.988 2.119,185.902 0.249,60.914 1.421,112.218 2.603,114.01 1.338,2.027 45,3.728 115.641,4.504 l 113.488,1.246 -0.734,-58.252 c -0.405,-32.039 -2.327,-115.158 -4.274,-184.713 -2.657,-94.941 -2.608,-127.585 0.2,-130.969 5.283,-6.365 2.689,-10.021 -7.086,-10.601 z m -107.53,13.953 h 103.137 v 179.925 32.075 c -0.396,-0.203 -0.816,-0.335 -1.266,-0.34 -0.602,0 -1.243,0.179 -1.906,0.598 -19.873,11.108 -32.323,11.392 -54.935,10.228 -8.007,-1.476 -13.046,12.021 7.681,14.418 20.094,1.899 40.792,-5.075 48.686,-10.76 0.673,-0.484 1.234,-1.021 1.74,-1.578 v 135.287 l -100.152,-0.767 c -97.753,-0.75 -100.152,-0.925 -100.078,-7.284 0.16,-14.004 -0.339,-49.234 -1.026,-88.855 10.942,-8.196 30.751,-13.94 51.504,-7.893 14.997,4.371 23.9,9.743 29.856,15.229 8.139,9.762 22.909,27.368 27.314,35.891 6.296,12.179 3.852,-11.191 -3.043,-23.166 -5.402,-9.385 -12.137,-22.296 -28.383,-30.774 -9.416,-6.168 -27.144,-11.447 -44.31,-11.568 -0.554,0 -1.106,0 -1.658,0 -2.833,0.04 -5.641,0.216 -8.387,0.562 -9.957,1.25 -17.614,4.766 -23.141,8.236 -0.355,-19.43 -0.67,-37.347 -1.111,-57.611 12.954,-16.526 24.657,-28.009 44.937,-35.617 10.733,-3.651 15.928,-9.759 9.702,-9.799 -0.416,0 -0.881,0.02 -1.399,0.08 -8.162,0.849 -41.503,7.472 -53.732,24.922 -1.212,-52.663 -2.529,-101.615 -3.446,-117.691 -1.583,-27.77 -2.167,-51.224 -1.298,-52.119 0.868,-0.896 47.99,-1.629 104.714,-1.629 z m -2.103,8.642 c -2.036,-0.116 -3.681,3.202 -3.856,9.028 -0.294,9.811 6.712,24.914 13.776,32.98 14.127,16.133 44.315,30.865 71.521,40.527 27.206,9.661 15.786,-6.373 9.932,-8.992 -5.853,-2.617 -18.005,-7.927 -33.051,-15.775 -15.045,-7.849 -41.364,-20.411 -53.941,-52.408 -1.412,-3.593 -2.988,-5.28 -4.381,-5.36 z m -519.248,10.449 c -4.991,0.801 -10.127,7.694 -7.899,13.5 2.419,6.304 8.296,5.158 13.168,-2.566 2.459,-3.897 2.288,-6.546 -0.605,-9.439 -1.353,-1.353 -3.001,-1.761 -4.664,-1.495 z m 33.392,2.639 c -5.081,0.767 -7.968,7.582 -5.375,14.34 3.107,8.096 13.389,4.159 13.389,-5.127 0,-5.086 -2.105,-8.46 -5.711,-9.154 -0.806,-0.155 -1.577,-0.168 -2.303,-0.06 z m 945.434,16.559 c 7.433,2.447 6.266,15.097 -2.17,23.533 -10.726,10.725 -18.281,10.692 -18.281,-0.08 0,-9.197 14.22,-25.505 20.451,-23.453 z m 557.957,2.953 c -2.199,0.04 -4.52,0.185 -6.969,0.437 -33.628,3.471 -51.14,21.206 -63.638,64.452 -7.474,25.859 -6.683,42.082 2.05,42.082 2.654,0 4.825,1.222 4.825,2.714 0,7.063 24.66,26.613 37.084,29.399 7.373,1.655 15.358,2.434 17.744,1.734 2.386,-0.7 6.305,-1.273 8.709,-1.273 2.403,0 8.556,-3.522 13.674,-7.828 6.442,-5.421 11.904,-7.332 17.757,-6.213 9.902,1.892 22.315,-9.233 22.274,-19.963 -0.04,-9.551 -18.032,-80.912 -22.518,-89.293 -6.135,-11.464 -15.597,-16.518 -30.992,-16.248 z m -194.463,17.287 c -4.325,0.165 -8.798,0.822 -13.506,1.951 -25.135,6.03 -45.45,28.32 -69.054,75.77 -10.225,20.553 -18.089,39.728 -17.475,42.613 0.648,3.048 12.035,-12.119 27.176,-36.201 14.333,-22.796 30.727,-46.119 36.431,-51.828 12.844,-12.855 30.195,-18.908 45.807,-15.979 l 11.779,2.211 -19.32,7.754 c -12.662,5.082 -23.84,12.681 -32.432,22.049 -14.658,15.981 -53.735,85.535 -53.545,95.306 0.199,10.217 20.342,-15.709 36.399,-46.849 17.886,-34.688 28.164,-46.992 46.414,-55.57 22.837,-10.735 36.105,-9.19 43.617,5.082 8.268,15.707 4.928,18.024 -12.935,8.972 -19.91,-10.089 -27.438,-8.955 -44.83,6.758 -16.616,15.012 -28.648,42.809 -31.561,72.916 -1.718,17.755 -1.351,23.492 1.395,21.795 2.049,-1.266 3.75,-4.048 3.777,-6.182 0.132,-10.3 5.333,-12.774 15.642,-7.443 16.934,8.756 36.561,6.774 53.039,-5.359 7.883,-5.805 17.265,-12.079 20.848,-13.942 4.041,-2.1 6.717,-7.062 7.047,-13.062 0.293,-5.322 2.165,-17.007 4.162,-25.965 5.928,-26.59 -4.153,-60.239 -21.746,-72.582 -12.528,-8.79 -24.155,-12.711 -37.129,-12.215 z m 183.074,6.822 c 25.7,0.363 31.773,3.333 34.608,16.924 1.398,6.704 2.563,21.457 2.586,32.783 0.04,20.022 -0.339,20.948 -13.676,33.389 -10.333,9.638 -16.36,12.764 -24.43,12.666 -20.961,-0.255 -38.402,-16.324 -38.402,-35.383 0,-9.314 0.449,-9.609 11.838,-7.762 9.17,1.489 11.501,0.913 10.346,-2.556 -0.822,-2.464 -5.049,-5.36 -9.395,-6.434 -10.368,-2.562 -9.342,-13.271 2.953,-30.801 8.382,-11.95 10.335,-13.015 23.572,-12.826 z m -16.511,24.227 c -1.792,0 -3.258,2.199 -3.258,4.887 0,2.687 1.466,4.884 3.258,4.884 1.791,0 3.257,-2.197 3.257,-4.884 0,-2.688 -1.466,-4.887 -3.257,-4.887 z m 18.429,3.857 c -1.255,0.409 -2.142,2.048 -2.142,4.287 0,2.986 1.576,4.904 3.502,4.262 1.926,-0.642 3.502,-2.56 3.502,-4.262 0,-1.702 -1.576,-3.622 -3.502,-4.263 -0.482,-0.161 -0.941,-0.16 -1.36,-0.02 z m -555.107,15.918 c 3.66,0.257 6.748,2.127 8.59,5.569 1.707,3.189 4.56,16.308 6.34,29.154 3.052,22.025 2.708,24.655 -6.038,46.144 -5.1,12.533 -11.052,26.165 -13.226,30.293 -2.174,4.129 -6.3,10.536 -9.168,14.239 -4.823,6.237 -5.188,2.188 -4.848,-55.092 0.332,-55.884 0.941,-62.245 6.325,-66.182 4.133,-3.022 8.365,-4.381 12.025,-4.125 z m 381.059,6.826 15.919,11.438 c 15.107,10.853 17.941,17.338 7.581,17.338 -2.836,0 -4.694,3.225 -4.694,8.144 0,4.891 -1.861,8.143 -4.66,8.143 -2.563,0 -5.128,3.299 -5.701,7.33 -0.876,6.157 -2.798,7.188 -12.002,6.451 -8.666,-0.694 -10.559,0.158 -9.057,4.072 1.496,3.899 -0.762,4.95 -10.631,4.95 -18.907,0 -21.854,-6.025 -12.222,-24.989 4.394,-8.651 14.172,-21.837 21.728,-29.302 z m 171.115,6.311 c -10.845,0.384 -28.526,5.781 -28.526,9.322 0,1.586 9.586,2.736 21.303,2.559 17.529,-0.266 21.131,-1.232 20.326,-5.457 -0.537,-2.824 -4.563,-5.641 -8.945,-6.262 -1.199,-0.17 -2.609,-0.217 -4.158,-0.162 z m -643.928,7.807 13.717,27.689 c 11.743,23.704 14.889,27.688 21.861,27.688 6.438,0 9.614,-3.069 15.172,-14.655 l 7.031,-14.656 2.332,12.439 c 4.418,23.547 0.06,61.049 -9.197,79.18 -4.692,9.188 -7.747,17.489 -6.789,18.447 0.958,0.959 -1.173,7.367 -4.736,14.241 -3.564,6.874 -8.34,16.559 -10.616,21.519 -2.905,6.336 -4.893,7.798 -6.675,4.914 -1.718,-2.779 -3.608,-3.039 -5.846,-0.801 -2.238,2.239 -1.769,6.273 1.451,12.481 3.37,6.495 3.82,10.927 1.543,15.182 -4.178,7.806 -4.149,28.276 0.04,30.867 1.792,1.107 3.256,4.125 3.256,6.707 0,3.334 -3.923,4.695 -13.551,4.695 h -13.551 l 2.143,-80.623 c 1.179,-44.342 2.204,-99.676 2.277,-122.967 z m 114.867,2.689 c 0.753,-0.753 3.852,8.757 6.885,21.135 3.033,12.377 5.009,27.471 4.393,33.543 l -1.122,11.039 -2.318,-9.772 c -3.99,-16.816 -9.271,-54.512 -7.838,-55.945 z m 367.328,2.197 c -6.408,0 -11.499,8.164 -8.31,13.325 2.489,4.026 5.9,3.722 10.568,-0.946 5.884,-5.884 4.699,-12.379 -2.258,-12.379 z m 153.475,3.401 c -4.009,0.09 -7.238,1.179 -7.238,3.218 0,1.85 3.297,4.689 7.328,6.309 9.9,3.978 11.466,3.949 14.07,-0.264 1.231,-1.991 0.217,-4.901 -2.252,-6.465 -3.113,-1.97 -7.899,-2.886 -11.908,-2.798 z m -922.863,6.31 c -4.998,-0.02 -9.759,0.937 -12.707,1.998 -15.572,5.606 -20.954,12.801 -21.479,28.059 -0.532,15.452 -5.424,30.646 12.031,38.031 5.939,2.513 12.699,8.323 1.834,-14.83 -4.847,-10.329 -4.162,-28.345 2.785,-35.441 6.949,-7.097 18.889,-7.285 24.227,-5.026 5.337,2.259 12.494,10.737 13.543,4.174 -0.292,-13.304 -10.694,-16.922 -20.234,-16.965 z m -540.11,18.102 c 44.529,-0.773 46.534,4.389 1.125,14.525 -40.804,9.108 -92.269,11.048 -116.531,4.393 -12.163,-3.336 -17.847,-6.331 -15.836,-8.342 1.726,-1.726 34.45,-5.23 72.721,-7.789 24.111,-1.612 43.678,-2.53 58.521,-2.787 z m 460.27,4.601 c -3.968,-0.09 -6.496,2.238 -2.791,7.319 9.592,10.045 15.087,24.514 14.336,35.451 -0.752,10.935 -1.843,17.601 -4.301,27.154 -2.458,9.554 6.462,6.652 10.422,0.57 3.959,-6.083 6.007,-24.882 5.666,-38.398 -0.341,-13.516 -7.852,-21.074 -13.723,-27.617 -2.568,-2.863 -6.524,-4.405 -9.609,-4.479 z m 640.496,4.186 c 1.436,0.12 3.035,1.028 5.109,2.75 3.013,2.5 8.75,4.118 12.75,3.594 4.257,-0.558 8.08,1.147 9.217,4.111 1.069,2.785 4.69,5.064 8.045,5.064 5.442,0 5.842,1.671 3.711,15.473 -1.314,8.51 -1.743,16.154 -0.955,16.986 3.328,3.515 12.601,-6.106 13.551,-14.058 0.567,-4.746 2.033,-8.616 3.257,-8.578 4.7,0.105 9.583,5.123 11.754,12.08 1.243,3.985 6.375,10.174 11.405,13.756 6.724,4.788 8.759,8.531 7.687,14.14 -1.215,6.36 -3.047,7.395 -11.006,6.227 -5.251,-0.771 -10.35,-2.698 -11.33,-4.283 -3.39,-5.486 -7.912,-2.85 -7.912,4.611 0,14.349 15.048,20.389 26.031,10.449 4.407,-3.988 6.387,-4.116 11.036,-0.717 4.754,3.478 5.083,5.677 2.035,13.694 -2.73,7.18 -2.656,11.372 0.298,16.892 5.051,9.436 -1.594,19.772 -8.843,13.756 -6.609,-5.484 -15.129,-1.002 -12.692,6.676 1.162,3.659 -0.329,9.976 -3.494,14.807 -7.799,11.902 -14.492,14.33 -24.957,9.058 -11.331,-5.708 -11.214,-7.735 0.836,-14.592 13.505,-7.685 12.87,-15.625 -1.25,-15.625 -13.551,0 -22.646,-8.717 -14.09,-13.505 5.935,-3.322 7.664,-12.553 2.352,-12.553 -6.105,0 -7.461,-16.084 -2.051,-24.34 6.529,-9.965 6.671,-14.75 0.436,-14.75 -2.647,0 -7.258,-3.735 -10.248,-8.299 -4.426,-6.755 -7.152,-7.92 -14.659,-6.271 l -9.22,2.025 1.347,-21.416 c 0.921,-14.618 0.173,-21.416 -2.355,-21.416 -2.73,0 -2.712,-0.991 0.07,-3.77 1.428,-1.428 2.703,-2.096 4.139,-1.976 z m -670.668,0.154 c -2.659,0.05 -5.651,0.351 -9.037,0.94 -13.678,2.378 -25.56,11.8 -27.057,23.004 -11.941,35.773 32.668,61.509 55.201,36.867 8.363,-9.847 11.164,-35.488 4.664,-46.242 -4.742,-7.85 -9.411,-14.839 -23.771,-14.569 z m -2.219,12.674 c 0.264,0 0.527,0 0.789,0 7.933,0.295 14.322,2.817 17.455,8.893 3.552,6.884 1.977,19.906 0.991,24.748 -1.112,5.447 -8.874,16.055 -16.688,16.582 -6.903,0.464 -16.646,-2.205 -18.973,-8.448 -3.619,-9.712 -4.496,-14.782 -3.638,-22.468 0.928,-8.356 5.231,-14.88 14.564,-18.206 1.787,-0.636 3.654,-1.061 5.5,-1.105 z m 1033.141,10.967 c -6.251,0.07 -13.449,0.698 -21.572,1.883 -48.451,7.062 -63.913,17.018 -81.963,52.775 l -9.977,19.766 -4.351,-12.661 c -8.558,-24.892 -22.836,-37.327 -42.965,-37.417 -14.944,-0.07 -13.385,6.965 3.257,14.695 19.418,9.019 28.622,32.467 30.995,78.959 1.723,33.768 -4.146,108.611 -9.287,118.439 -1.524,2.912 -9.413,8.416 -17.532,12.233 -14.797,6.956 -18.3,11.639 -10.691,14.3 2.902,1.016 2.213,3.516 -2.401,8.709 -5.712,6.431 -5.889,7.728 -1.509,11.063 2.728,2.078 4.435,6.343 3.791,9.478 -2.917,14.187 21.308,2.32 35.259,-17.273 8.06,-11.319 19.386,-88.314 19.409,-131.918 0,-14.422 1.541,-27.75 3.408,-29.617 1.867,-1.867 7.566,-14.577 12.666,-28.246 18.251,-48.922 35.232,-67.115 67.016,-71.797 19.376,-2.855 81.344,8.95 94.953,18.09 22.564,15.153 39.429,49.642 48.664,99.521 6.791,36.683 9.022,44.096 13.746,45.67 7.557,2.519 4.731,-50.923 -4.35,-82.26 -10.144,-35.005 -14.762,-44.08 -31.963,-62.814 -15.793,-17.202 -34.276,-26.618 -52.656,-26.83 -7.166,-0.08 -18.892,-1.563 -26.059,-3.289 -4.332,-1.044 -9.637,-1.53 -15.888,-1.459 z m -520.834,6.383 2.461,12.398 c 1.354,6.819 1.759,19.731 0.898,28.693 -1.508,15.695 -9,30.756 -9,18.092 0,-3.102 -2.199,-6.484 -4.887,-7.515 -6.916,-2.655 -5.747,-16.36 3.02,-35.381 z m -1019.197,17.705 -11.008,9.062 c -12.942,10.657 -17.094,21.631 -10.975,29.004 3.649,4.396 3.359,5.895 -1.887,9.731 -8.082,5.909 -16.969,5.77 -20.377,-0.319 -2.296,-4.103 -4.58,-3.583 -14.82,3.375 -6.658,4.525 -12.105,10.857 -12.105,14.072 0,6.865 16.656,17.166 18.566,11.483 3.252,-9.677 9.465,-13.833 18.08,-12.096 11.397,2.299 11.256,4.988 -0.92,17.444 -8.112,8.298 -9.551,11.958 -8.047,20.47 4.425,25.034 7.295,57.358 5.791,65.225 -0.899,4.704 -0.781,10.775 0.262,13.492 2.827,7.367 11.599,5.967 14.963,-2.389 1.623,-4.031 6.19,-23.908 10.148,-44.171 5.899,-30.196 6.476,-38.188 3.204,-44.303 -6.401,-11.961 -3.253,-22.922 6.921,-24.098 6.982,-0.807 8.919,0.482 9.774,6.514 1.571,11.085 15.435,11.716 25.357,1.154 4.284,-4.56 9.78,-8.291 12.211,-8.291 8.375,0 8.028,-9.48 -0.769,-21.014 -10.163,-13.324 -23.806,-15.908 -26.647,-5.046 -1.323,5.061 -4.343,6.469 -13.539,6.306 l -11.834,-0.207 10.549,-5.252 c 14.644,-7.289 16.206,-15.099 5.76,-28.795 z m 1142.966,1.422 c 9.522,-0.922 13.899,4.739 21.155,21.544 7.77,17.999 22.295,75.237 20.025,78.911 -0.906,1.465 -7.351,5.575 -14.324,9.132 -15.063,7.685 -36.965,8.194 -49.945,1.161 -6.829,-3.7 -8.35,-6.014 -5.7,-8.664 4.625,-4.624 4.666,-14.312 0.07,-17.149 -1.946,-1.204 -5.172,-0.558 -7.166,1.436 -5.847,5.847 -8.894,4.286 -13.58,-6.961 -4.605,-11.053 -5.913,-22.952 -5.359,-48.737 0.328,-15.247 0.42,-15.37 14.174,-18.89 7.614,-1.949 20.714,-5.926 29.111,-8.838 4.615,-1.601 8.361,-2.638 11.535,-2.945 z m 206.793,25.986 c -9.914,-0.02 -22.455,5.568 -31.234,14.732 -8.455,8.825 -24.83,46.793 -24.83,57.571 0,7.152 5.78,5.683 10.199,-2.592 2.153,-4.031 8.399,-11.526 13.881,-16.654 8.859,-8.287 11.659,-9.124 25.17,-7.524 17.358,2.056 20.263,0.572 15.67,-8.01 -2.524,-4.715 -2.132,-6.088 1.742,-6.088 2.75,0 5.002,-2.041 5.002,-4.537 0,-4.967 -6.402,-8.254 -17.369,-8.92 -4.153,-0.252 -2.472,-1.258 4.08,-2.443 13.458,-2.433 16.28,-8.328 6.492,-13.566 -2.484,-1.33 -5.498,-1.962 -8.803,-1.969 z m -208.787,13.107 c -1.406,-0.2 -3.002,0 -4.719,0.655 -5.485,2.104 -7.359,11.403 -3.146,15.615 4.019,4.019 12.261,0.558 13.457,-5.652 1.129,-5.861 -1.374,-10.018 -5.592,-10.618 z m 92.149,3.551 c -0.55,-0.107 -1.055,-0.04 -1.481,0.221 -5.511,3.406 -3.28,14.057 4.014,19.166 5.241,3.671 8.234,4.042 11.4,1.414 5.69,-4.722 5.455,-9.279 -0.478,-9.279 -2.625,0 -6.362,-2.975 -8.307,-6.608 -1.458,-2.725 -3.5,-4.593 -5.148,-4.914 z m -125.348,12.061 c -2.204,0.487 -3.01,2.76 -3.01,7.603 0,6.457 1.432,8.346 5.701,7.524 3.136,-0.604 5.702,-3.99 5.702,-7.524 0,-3.534 -2.566,-6.919 -5.702,-7.523 -1.067,-0.206 -1.956,-0.243 -2.691,-0.08 z m -81.492,6.683 c 1.108,-0.187 1.926,-0.173 2.187,0.09 0.523,0.522 1.262,14.848 1.645,31.836 0.652,28.989 0.28,30.95 -6.039,31.895 -6.204,0.927 -6.817,-0.866 -7.811,-22.803 -1.374,-30.338 -0.29,-37.448 6.092,-39.897 1.42,-0.543 2.818,-0.932 3.926,-1.119 z m -28.178,12.559 c 0.498,0.765 0.397,12.752 -0.223,26.637 v 0 c -0.619,13.884 -2.11,25.148 -3.312,25.027 -7.087,-0.707 -31.261,-9.714 -38.104,-14.197 -9.099,-5.963 -10.568,-11.645 -3.009,-11.645 7.421,0 24.611,-9.313 34.822,-18.865 4.908,-4.592 9.331,-7.723 9.828,-6.957 z m -57.084,48.662 c 2.494,-0.316 7.058,1.603 13.451,6.156 4.785,3.407 15.927,8.302 24.76,10.877 8.833,2.576 16.627,6.385 17.32,8.465 0.871,2.613 -5.313,3.781 -20.017,3.781 -20.302,0 -21.662,-0.5 -29.59,-10.894 -8.482,-11.12 -10.08,-17.858 -5.924,-18.385 z m 269.082,0.861 c 1.958,0.15 3.934,0.576 6.174,1.229 l 10.643,3.103 -14.659,3.78 c -32.646,8.416 -54.535,40.545 -58.931,86.496 -1.402,14.656 -2.644,27.1 -2.756,27.654 -0.113,0.554 -1.669,0.1 -3.461,-1.008 -5.937,-3.669 -10.529,1.987 -4.934,6.078 4.728,3.457 4.266,6.775 -4.808,34.545 -9.522,29.138 -27.843,70.445 -32.53,73.342 v -0.02 c -1.192,0.737 -47.137,2.281 -102.101,3.43 l -99.936,2.09 v -17.395 -17.396 l 95.284,0.961 c 96.471,0.973 115.543,-0.139 106.513,-6.207 -2.874,-1.931 -42.88,-2.809 -102.439,-2.248 l -97.725,0.92 -0.969,-20.328 -0.97,-20.33 71.006,0.04 c 39.052,0.01 83.098,0.96 97.879,2.111 l 26.873,2.092 0.05,10.105 c 0.07,14.371 4.179,20.041 9.7,13.389 3.423,-4.125 3.828,-20.654 2.011,-82.059 l -2.275,-76.892 8.172,5.353 c 4.495,2.946 11.802,5.356 16.238,5.356 4.436,0 8.973,1.466 10.08,3.258 2.783,4.502 15.78,4.09 20.522,-0.651 2.15,-2.15 3.986,-8.381 4.084,-13.846 0.155,-8.838 2.308,-10.976 19.49,-19.378 12.197,-5.965 17.907,-8.02 23.781,-7.573 z m 44.467,25.547 c 4.904,0.508 10.699,2.616 18.158,6.227 9.24,4.472 17.482,12.366 25.459,24.381 13.95,21.01 14.307,24.146 3.858,33.962 l -7.942,7.461 -9.771,-21.55 c -18.134,-39.993 -30.005,-17.73 -13.551,25.412 4.282,11.227 2.862,12.577 -21.059,20.021 -24.064,7.488 -61.136,9.908 -65.562,4.28 -9.904,-12.595 -13.791,-40.664 -7.811,-56.393 2.635,-6.929 5.277,-8.367 15.473,-8.367 14.843,-0.01 29.555,-8.463 42.082,-24.162 6.795,-8.517 12.493,-12.118 20.666,-11.272 z m -41.08,2.871 c 6.191,0 6.193,0.113 0.1,6.848 -3.408,3.766 -10.159,8.896 -15.001,11.4 -11.708,6.055 -13.257,5.753 -9.217,-1.795 4.5,-8.409 16.294,-16.453 24.121,-16.453 z m -196.676,9.342 39.904,1.029 39.905,1.03 0.984,17.101 c 0.541,9.406 -0.192,16.853 -1.629,16.547 -1.437,-0.305 -18.738,-1.585 -38.445,-2.844 -19.708,-1.258 -36.932,-2.474 -38.276,-2.701 -1.343,-0.228 -2.443,-7.108 -2.443,-15.289 z m -114.01,0.43 h 16.453 c 15.696,0 16.672,0.52 21.174,11.297 2.596,6.212 4.721,12.808 4.721,14.658 0,1.966 -8.791,3.361 -21.174,3.361 h -21.174 v -14.658 z m 59.442,0 h 17.511 17.512 v 14.658 14.658 h -12.24 c -11.556,0 -12.536,-0.82 -17.512,-14.658 z m 636.781,3.926 c -2.607,-1.044 -12.113,8.554 -28.754,28.937 -26.891,32.937 -28.101,33.938 -43.719,36.172 -18.382,2.629 -17.631,3.178 -41.148,-29.943 -30.043,-42.313 -41.493,-42.084 -17.629,0.351 8.168,14.525 14.851,28.507 14.852,31.072 0,5.775 12.077,30.146 18.644,37.623 v 0 c 3.693,4.205 9.109,5.294 22.602,4.545 9.759,-0.541 18.881,-2.296 20.271,-3.9 4.926,-5.684 48.009,-81.254 52.174,-91.516 3.352,-8.258 4.271,-12.717 2.707,-13.343 z m 93.816,15.99 c 1.661,0 5.185,0.962 9.662,2.886 4.296,1.846 4.851,2.862 1.629,2.979 -2.687,0.1 -7.084,-1.242 -9.771,-2.979 -2.977,-1.924 -3.18,-2.886 -1.52,-2.886 z m -490.341,7.773 c -6.49,0 -8.591,2.49 -11.981,14.197 -3.457,11.942 -3.331,16.066 0.797,25.946 2.7,6.461 6.684,12.875 8.853,14.254 7.209,4.581 18.331,2.692 21.749,-3.694 9.387,-17.54 -3.314,-50.703 -19.418,-50.703 z m 528.753,1.627 c 5.567,0 16.233,11.717 23.186,25.467 8.291,16.396 4.275,19.696 -6.529,5.365 -5.267,-6.985 -12.14,-15.314 -15.276,-18.508 -6.773,-6.901 -7.38,-12.324 -1.381,-12.324 z m -828.451,3.182 13.844,1.838 c 29.848,3.961 35.018,5.159 35.018,8.115 0,1.687 -5.264,5.266 -11.696,7.953 -6.432,2.688 -12.465,7.836 -13.408,11.443 -0.943,3.608 -4.356,6.559 -7.584,6.559 -3.228,0 -8.187,0.892 -11.021,1.978 -4.353,1.671 -5.153,-1.118 -5.153,-17.955 z m 114.01,6.582 23.617,0.04 c 12.989,0.01 31.311,0.954 40.717,2.084 l 17.102,2.053 v 15.834 c -10e-4,8.702 -1.099,15.508 -2.442,15.123 -1.344,-0.385 -19.668,-1.163 -40.719,-1.731 l -38.275,-1.033 v -16.184 z m 662.889,0.125 c 22.533,-0.04 30.092,2.555 32.224,11.053 1.007,4.012 6.313,12.933 11.789,19.824 8.637,10.867 9.694,14.297 7.963,25.838 -1.568,10.455 -0.59,15.093 4.565,21.646 5.836,7.42 6.298,11.087 4.183,33.229 -2.779,29.097 -8.768,37.725 -34.664,49.937 -18.28,8.621 -30.306,9.432 -47.697,3.219 -37.086,-13.249 -49.954,-32.202 -46.691,-68.768 4.35,-48.753 8.037,-64.723 17.209,-74.517 12.318,-13.155 32.027,-21.423 51.119,-21.461 z m -702.873,0.185 c 1.666,-0.05 3.817,0.09 6.595,0.317 6.719,0.556 11.851,2.111 11.403,3.455 -0.448,1.343 -0.815,8.307 -0.815,15.472 0,14.241 1.57,13.623 -27.051,10.647 l -12.39,-1.289 8.318,-6.543 c 4.938,-3.884 8.321,-9.838 8.321,-14.648 0,-5.53 0.62,-7.273 5.619,-7.411 z m 225.597,2.957 c 1.758,0 4.086,3.548 5.174,7.885 1.089,4.337 1.419,10.569 0.735,13.846 -1.13,5.405 -1.611,5.297 -5.176,-1.158 -4.736,-8.576 -5.163,-20.573 -0.733,-20.573 z m -883.771,13.182 c 3.283,-0.04 7.072,0.223 11.965,0.615 11.246,0.903 26.953,4.575 34.906,8.16 14.499,6.537 45.404,34.751 45.404,41.45 0,2.926 -45.225,27.8 -50.545,27.8 -0.866,0 -1.574,-3.606 -1.574,-8.015 0,-4.409 -2.631,-10.639 -5.848,-13.844 -3.217,-3.205 -7.657,-10.023 -9.867,-15.148 -3.419,-7.93 -5.341,-9.017 -12.883,-7.286 -4.874,1.12 -12.193,2.551 -16.263,3.18 -13.27,2.052 -21,11.957 -19.326,24.762 0.824,6.307 -0.06,17.583 -1.969,25.058 -4.34,17.017 0.806,25.115 14.666,23.081 5.028,-0.738 9.144,-0.228 9.144,1.132 0,4.463 13.243,6.791 17.68,3.108 3.506,-2.91 2.49,-5.58 -5.301,-13.92 -8.482,-9.08 -10.429,-9.827 -16.213,-6.215 -3.615,2.258 -7.271,3.406 -8.125,2.553 -1.972,-1.973 7.574,-20.621 11.936,-23.317 5.563,-3.438 3.631,-10.864 -3.406,-13.097 -5.494,-1.744 -5.97,-2.986 -2.67,-6.961 2.208,-2.661 6.683,-4.142 9.943,-3.289 3.261,0.852 5.928,0.221 5.928,-1.403 0,-1.623 1.518,-2.953 3.373,-2.953 2.244,0 2.159,2.265 -0.252,6.77 -5.41,10.109 -1.638,16.602 8.209,14.131 10.265,-2.577 10.253,-0.522 -0.09,17.134 -8.794,15.006 -7.997,22.216 2.16,19.559 5.82,-1.522 6.149,0.955 6.149,46.445 0,42.415 -0.699,48.683 -5.957,53.442 -6.871,6.217 -12.484,6.28 -46.723,0.517 -32.991,-5.552 -56.366,-13.329 -74.703,-24.857 -25.823,-16.234 -26.843,-18.295 -22.654,-45.764 2.001,-13.12 7.539,-31.903 12.308,-41.736 11.352,-23.406 48.245,-60.113 78.459,-78.063 16.984,-10.089 22.293,-12.911 32.143,-13.029 z m 1000.213,2.738 6.869,30.315 c 3.778,16.673 7.832,38.01 9.008,47.416 1.176,9.406 1.489,17.101 0.697,17.101 -1.688,0 -30.286,-60.396 -33.25,-70.22 -1.446,-4.793 0.64,-9.251 7.326,-15.657 z m -1428.434,0.612 c -1.269,-0.04 -3.163,0.926 -4.82,2.586 -2.866,2.87 -4.119,21.178 -4.369,63.871 l -0.35,59.849 -11.301,13.201 c -22.242,25.985 -38.488,70.643 -38.488,105.799 0,17.91 0.235,18.365 13.844,26.842 7.614,4.743 14.352,9.055 14.972,9.584 0.62,0.528 -1.212,11.247 -4.072,23.82 -5.265,23.151 -6.839,54.232 -3.222,63.657 5.702,14.863 14.7,-2.293 25.742,-49.09 6.664,-28.245 22.251,-81.341 32.726,-111.485 1.023,-2.942 4.784,-0.03 10.942,8.471 17.384,23.999 54.929,32.062 98,21.047 13.437,-3.436 26.772,-7.248 29.632,-8.469 4.469,-1.908 5.501,2.002 7.329,27.752 1.17,16.486 2.129,44.304 2.129,61.817 0,24.976 1.134,32.976 5.263,37.105 6.989,6.989 10.856,5.234 18.131,-8.23 5.391,-9.978 5.889,-16.774 4.48,-61.073 -0.87,-27.415 -2.504,-54.739 -3.624,-60.718 -1.889,-10.068 -0.977,-11.602 12.351,-20.772 15.854,-10.908 31.805,-29.881 31.805,-37.834 0,-7.231 -1.679,-6.684 -25.323,8.248 -19.07,12.044 -21.9,12.942 -28.919,9.186 -8.867,-4.745 -13.065,-1.996 -14.704,9.629 -0.929,6.594 -4.452,8.618 -23.892,13.712 -31.614,8.287 -65.542,11.032 -81.787,6.618 -11.261,-3.061 -15.209,-6.605 -24.907,-22.366 -18.71,-30.41 -23.994,-55.602 -31.507,-150.234 -1.76,-22.164 -4.024,-41.124 -5.032,-42.131 -0.251,-0.252 -0.606,-0.378 -1.029,-0.392 z m 1012.369,15.189 12.215,2.02 c 6.719,1.11 27.349,2.017 45.844,2.054 29.257,0.03 33.491,0.723 32.574,5.317 -0.579,2.904 -6.184,6.936 -12.455,8.959 -6.358,2.05 -12.822,6.919 -14.615,11.006 -2.832,6.455 -5.599,7.33 -23.209,7.33 -10.997,0 -24.575,0.915 -30.174,2.035 l -10.18,2.037 v -20.379 z m 195.733,5.68 -0.957,16.06 c -0.527,8.834 -2.423,16.236 -4.215,16.448 -1.792,0.212 -20.113,-0.406 -40.715,-1.373 l -37.459,-1.758 1.115,-13.03 c 0.613,-7.166 1.62,-13.549 2.237,-14.183 0.616,-0.634 18.869,-1.384 40.558,-1.66 z m -959.535,1.041 7.32,13.027 c 9.665,17.197 10.778,43.509 2.555,60.412 -3.893,8.002 -14.442,18.759 -29.192,29.768 -26.832,20.025 -42.298,28.242 -66.849,35.521 -21.343,6.328 -63.091,7.049 -67.926,1.174 -1.844,-2.239 -4.379,-10.978 -5.635,-19.42 -2.969,-19.947 5.138,-37.242 28.441,-60.668 33.711,-33.887 76.297,-56.539 110.079,-58.551 z m 587.248,0.646 c 2.357,0 10.425,20.796 10.425,26.873 0,0.927 -3.299,2.401 -7.33,3.276 -4.031,0.874 -9.781,2.623 -12.779,3.888 -3.691,1.558 -6.578,0.197 -8.937,-4.212 -9.271,-17.322 -24.18,-21.443 -42.78,-11.825 -5.286,2.734 -9.609,4.237 -9.609,3.342 0,-5.133 53.93,-21.342 71.01,-21.342 z m 14.144,3.307 c 4.344,0.08 12.48,2.374 20.711,6.285 7.167,3.405 18.586,11.068 25.377,17.029 10.539,9.253 13.51,15.089 20.281,39.848 4.364,15.954 8.798,42.338 9.856,58.633 3.761,57.944 11.747,135.398 15.549,150.801 2.471,10.014 5.617,15.638 8.746,15.638 7.303,0 7.501,-17.557 0.67,-59.25 l -5.973,-36.449 28.914,-2.262 c 18.155,-1.42 30.655,-4.004 33.596,-6.945 3.327,-3.327 4.683,-12.589 4.683,-32 v -27.316 l 96.908,-0.953 c 53.3,-0.525 97.385,-0.722 97.965,-0.442 0.58,0.281 -10.414,12.07 -24.431,26.197 -15.34,15.461 -33.92,30.295 -46.672,37.262 -63.772,34.841 -82.784,58.51 -83.365,103.787 -0.229,17.773 -3.067,32.951 -10.414,55.69 -5.555,17.191 -11.895,41.011 -14.092,52.933 -2.197,11.922 -5.029,21.676 -6.291,21.676 -3.795,0 -7.803,-6.564 -25.867,-42.348 -17.265,-34.199 -24.614,-45.818 -61.805,-97.722 -10.912,-15.229 -24.84,-35.176 -30.953,-44.326 -16.288,-24.382 -27.05,-28.474 -70.203,-26.696 -28.077,1.157 -37.17,2.797 -46.717,8.43 -6.52,3.847 -11.856,6.442 -11.856,5.766 0,-4.477 14.398,-37.641 16.342,-37.641 1.324,0 7.67,2.199 14.102,4.887 16.187,6.763 49.501,6.159 65.679,-1.19 14.844,-6.743 32.829,-25.74 39.512,-41.734 2.487,-5.953 5.813,-10.824 7.389,-10.824 4.413,0 7.286,-10.149 4.035,-14.256 -1.593,-2.012 -3.939,-14.61 -5.211,-27.99 -1.273,-13.382 -3.834,-27.308 -5.693,-30.946 -6.869,-13.441 -23.701,-27.783 -38.295,-32.631 -11.608,-3.855 -16.043,-7.382 -19.539,-15.545 -2.488,-5.806 -5.126,-11.658 -5.862,-13.002 -0.922,-1.685 0.318,-2.44 2.924,-2.394 z m 1011.598,1.789 c 0.855,0.727 1.92,4.462 4,11.889 5.31,18.965 3.516,25.239 -3.715,12.998 -3.897,-6.597 -4.785,-12.112 -3.018,-18.723 1.233,-4.61 1.878,-6.891 2.733,-6.164 z m -473.01,3.396 c 3.783,1.111 9.379,12.045 22.363,42.76 25.116,59.416 25.429,61.977 8.969,73.426 -7.147,4.971 -19.125,11.2 -26.617,13.844 -24.006,8.469 -23.044,9.302 -28.334,-24.51 -1.822,-11.645 -6.391,-29.236 -10.152,-39.09 -7.298,-19.116 -19.404,-40.692 -21.6,-38.496 -0.731,0.731 3.745,16.979 9.947,36.106 10.774,33.226 14.743,64.281 8.213,64.281 -5.248,0 -8.019,-7.488 -7.197,-19.453 1.16,-16.891 -10.359,-46.696 -27.127,-70.194 -8.102,-11.354 -14.731,-21.481 -14.731,-22.504 0,-1.022 10.628,-1.904 23.618,-1.964 20.79,-0.09 38.834,-4.26 61.123,-14.11 0.482,-0.213 0.985,-0.254 1.525,-0.1 z m 413.752,1.282 c -3.04,0 -4.887,3.075 -4.887,8.142 0,5.068 1.847,8.145 4.887,8.145 3.04,0 4.885,-3.077 4.885,-8.145 0,-5.067 -1.845,-8.142 -4.885,-8.142 z m -46.147,0.736 c -4.408,-0.7 -8.564,5.085 -6.507,10.445 1.077,2.808 4.203,5.106 6.947,5.106 5.693,0 6.816,-11.516 1.447,-14.834 -0.622,-0.385 -1.257,-0.617 -1.887,-0.717 z m -1510.734,9.264 c -4.843,-0.158 -5.241,2.811 -3.195,10.963 2.759,10.994 15.495,10.63 17.076,-0.489 0.778,-5.47 -1.032,-7.73 -7.482,-9.349 -2.677,-0.672 -4.785,-1.073 -6.399,-1.125 z m -56.689,3.875 c -1.822,0.173 -3.478,0.839 -4.727,2.088 -1.97,1.969 -7.469,3.582 -12.221,3.582 -9.309,0 -28.636,11.587 -32.599,19.545 -1.339,2.687 -4.26,11.067 -6.492,18.623 -3.264,11.044 -3.247,14.717 0.08,18.73 5.878,7.083 9.033,6.299 19.132,-4.758 4.899,-5.363 16.621,-13.594 26.049,-18.293 19.145,-9.54 28.164,-20.438 25.045,-30.263 -1.86,-5.863 -8.807,-9.774 -14.271,-9.254 z m 570.459,3.933 c 0.931,-0.389 0.72,1.948 -0.131,7.748 -0.83,5.652 -2.807,10.276 -4.395,10.276 -4.293,0 -3.495,-7.697 1.508,-14.539 1.489,-2.036 2.459,-3.251 3.018,-3.485 z m 27.304,1.828 c 5.746,-0.09 10.887,1.015 10.887,3.399 0,1.919 -2.251,5.739 -5,8.488 -6.426,6.427 -0.247,15.152 8.717,12.307 8.351,-2.651 7.576,2.438 -1.934,12.699 v 0 c -10.384,11.202 -16.182,11.259 -13.388,0.129 2.432,-9.694 -5.276,-24.086 -12.901,-24.086 -5.821,0 -6.2,-3.823 -0.902,-9.121 2.424,-2.424 8.775,-3.722 14.521,-3.817 z m 493.233,3.188 c 3.519,-0.04 33.131,49.303 39.252,65.412 9.052,23.822 8.679,24.578 -13.321,26.877 -20.389,2.131 -61.175,15.012 -73.871,23.33 -12.488,8.183 -12.08,5.62 1.905,-11.943 17.051,-21.416 31.756,-52.205 38.711,-81.051 2.996,-12.43 6.293,-22.587 7.324,-22.625 z m -1096.328,0.355 c 1.572,-0.08 1.584,1.327 1.584,4.135 0,2.481 -3.614,6.878 -8.03,9.772 -9.091,5.957 -9.607,6.084 -12.601,3.089 -4.127,-4.125 -2.132,-7.144 8.101,-12.25 6.242,-3.112 9.374,-4.669 10.946,-4.746 z m 662.949,10.676 c 13.537,1.102 29.718,7.292 41.426,17.992 8.895,8.131 10.588,11.982 10.588,24.112 0,22.593 -3.555,35.481 -10.268,37.236 -6.816,1.782 -8.115,9.346 -1.959,11.398 4.925,1.642 -10.381,22.836 -21.981,30.436 -10.681,6.999 -53.535,9.856 -61.076,4.072 -5.154,-3.953 -5.367,-7.084 -2.228,-32.595 1.91,-15.523 3.01,-33.736 2.445,-40.471 -0.81,-9.655 0.823,-14.22 7.725,-21.578 4.814,-5.134 9.213,-13.26 9.773,-18.061 1.127,-9.655 12.018,-13.643 25.555,-12.541 z m 1052.64,0.348 6.331,19.545 c 3.481,10.749 8.557,31.803 11.279,46.787 2.721,14.983 4.38,27.809 3.687,28.502 -2.968,2.969 -5.604,-3.929 -5.642,-14.756 -0.02,-6.42 -3.687,-18.051 -8.145,-25.848 -6.365,-11.135 -8.041,-18.475 -7.806,-34.205 z m -1369.572,1.629 c 0.92,0 1.013,12.092 0.207,26.873 -1.794,32.935 -7.693,45.217 -27.857,58.006 v 0 c -8.314,5.272 -16.091,9.586 -17.283,9.586 -1.193,0 -3.032,-8.429 -4.086,-18.731 -1.055,-10.302 -2.924,-26.394 -4.155,-35.762 -1.96,-14.923 -1.476,-17.29 3.909,-19.107 3.38,-1.141 15.472,-6.303 26.871,-11.471 11.398,-5.167 21.477,-9.394 22.396,-9.394 z m 1235.543,3.449 c -0.935,-0.02 -2.222,0.122 -3.904,0.361 -4.152,0.591 -8.039,3.641 -8.637,6.776 -1.537,8.066 8.111,7.24 12.561,-1.075 2.423,-4.527 2.787,-6.008 -0.02,-6.062 z m -1532.369,6.322 c -5.598,0 -16.014,15.323 -13.348,19.637 2.674,4.326 9.229,3.976 13.95,-0.744 5.384,-5.385 4.954,-18.893 -0.602,-18.893 z m 1560.117,0.145 c -1.541,-0.06 -2.964,1.946 -4.072,6.183 -1.804,6.898 -16.565,11.66 -26.436,8.528 -4.358,-1.384 -7.104,0.407 -9.845,6.424 -2.091,4.589 -3.801,9.741 -3.801,11.449 0,4.677 5.197,3.729 9.771,-1.781 5.986,-7.214 34.532,-6.634 38.684,0.785 5.494,9.817 7.197,2.452 3.461,-14.969 -2.298,-10.716 -5.193,-16.527 -7.762,-16.619 z m -1035.57,10.392 c 1.045,-0.01 2.138,0.143 3.258,0.498 8.568,2.72 21.705,20.733 19.435,26.649 -2.887,7.523 -8.51,5.352 -8.51,-3.287 0,-10.598 -5.54,-13.485 -12.974,-6.758 -5.688,5.148 -6.254,5.097 -9.442,-0.859 -4.083,-7.63 0.919,-16.139 8.233,-16.243 z m -241.17,0.866 c -4.853,0 -9.665,10.177 -7.49,15.843 1.125,2.931 4.383,5.328 7.24,5.328 3.898,0 4.94,-2.641 4.174,-10.585 -0.562,-5.823 -2.328,-10.586 -3.924,-10.586 z m 1363.682,9.488 c 0.996,0.479 1.989,3.233 3.92,8.709 2.155,6.115 7.102,16.249 10.99,22.519 3.888,6.271 7.082,16.36 7.082,22.418 0,8.362 2.759,13.608 11.412,21.77 6.271,5.914 11.4,11.584 11.4,12.599 0,3.054 -4.18,1.724 -18.892,-6.009 -20.886,-10.978 -24.455,-15.858 -25.41,-34.758 -0.469,-9.265 -2.543,-20.923 -4.608,-25.908 -2.866,-6.92 -2.824,-10.803 0.176,-16.409 1.935,-3.615 2.934,-5.41 3.93,-4.931 z m -313.428,2.092 c 17.119,0.01 32.607,2.13 45.99,6.357 24.091,7.609 64.052,33.564 70.994,46.111 4.455,8.053 4.146,9.876 -4.318,25.428 -8.277,15.208 -9.087,19.622 -8.791,47.861 0.179,17.109 1.041,34.25 1.914,38.092 1.113,4.898 -3.773,14.287 -16.35,31.416 -9.865,13.437 -25.615,35.367 -35,48.731 -9.385,13.364 -23.27,31.081 -30.855,39.371 -21.453,23.446 -28.338,41.701 -28.809,76.4 -0.327,24.142 -2.143,33.916 -10.291,55.375 -5.441,14.333 -11.526,34.489 -13.519,44.791 -1.994,10.302 -5.149,26.573 -7.012,36.156 l -3.385,17.424 -15.972,-1.533 c -9.482,-0.911 -25.576,0.817 -39.606,4.256 -19.864,4.868 -23.874,5.066 -25.148,1.242 -2.904,-8.71 -19.546,-22.527 -27.133,-22.527 -13.28,0 -31.914,15.562 -40.363,33.709 -16.388,35.197 -5.043,65.232 19.777,52.355 4.907,-2.545 9.228,-4.629 9.602,-4.629 0.372,0 -1.82,9.895 -4.876,21.989 -7.493,29.667 -10.742,71.047 -6.902,87.951 l 3.147,13.842 -16.756,-0.403 c -32.125,-0.772 -122.29,-15.009 -150.854,-23.82 -15.826,-4.881 -30.456,-9.386 -32.509,-10.01 -2.389,-0.726 -4.425,-15.026 -5.645,-39.642 -2.846,-57.443 -8.975,-84.708 -27.605,-122.813 -27.512,-56.267 -87.438,-128.591 -121.563,-146.713 l -11.783,-6.258 11.16,-31.203 c 22.431,-62.716 30.71,-80.988 37.498,-82.763 3.585,-0.938 7.314,-4.745 8.285,-8.461 2.249,-8.599 2.34,-8.583 16.67,2.769 18.759,14.861 123.772,67.548 146.051,73.278 24.864,6.393 56.71,6.493 106.076,0.336 40.395,-5.039 68.283,-10.794 104.678,-21.602 20.972,-6.228 22.653,-6.293 28.381,-1.109 7.613,6.889 16.103,3.981 16.103,-5.518 v -7.186 l 7.539,7.082 c 4.147,3.896 9.154,7.084 11.129,7.084 5.229,0 6.984,-7.225 3.43,-14.123 -3.933,-7.631 -0.895,-10.803 5.369,-5.605 5.816,4.827 11.623,1.906 11.623,-5.846 0,-3.928 11.327,-11.366 37.258,-24.465 34.181,-17.265 66.98,-40.733 66.98,-47.925 0,-1.621 -9.444,2.834 -20.986,9.898 -25.623,15.683 -48.454,27.366 -70.318,35.984 l -16.512,6.508 -4.682,-11.203 c -5.078,-12.155 -26.559,-35.826 -42.303,-46.615 -9.344,-6.404 -10.052,-8.5 -13.943,-41.258 -2.254,-18.98 -8.518,-52.071 -13.92,-73.535 -10.616,-42.182 -9.771,-52.136 4.434,-52.234 3.968,-0.03 20.996,-2.959 37.84,-6.514 19.911,-4.202 38.661,-6.296 55.781,-6.283 z m -1358.506,9.591 c -1.83,0 -9.124,3.836 -16.207,8.524 -7.084,4.688 -15.114,7.666 -17.846,6.617 -4.972,-1.908 -7.025,4.518 -2.795,8.748 4.593,4.593 23.396,1.867 31.592,-4.58 8.396,-6.604 11.854,-19.309 5.256,-19.309 z m 648.344,4.887 c -5.356,0 -8.165,9.035 -5.205,16.748 3.094,8.065 12.474,3.029 12.474,-7.267 0,-6.235 -4.092,-9.481 -7.269,-9.481 z m -30.223,2.447 c -0.666,-0.02 -1.31,0.138 -1.902,0.504 -4.081,2.522 -5.07,12.562 -1.58,16.051 3.688,3.688 10.072,2.402 11.914,-2.398 2.048,-5.338 -3.769,-14.03 -8.432,-14.157 z m -671.258,8.885 c -2.594,-0.5 -6.008,1.582 -8.668,6.551 -8.271,15.456 -38.615,20.732 -34.775,6.047 1.043,-3.989 0.238,-5.908 -2.145,-5.113 -7.168,2.389 -4.228,16.614 4.329,20.943 11.278,5.706 15.957,5.215 30.945,-3.248 9.441,-5.331 13.314,-9.803 14.06,-16.234 0.623,-5.362 -1.151,-8.445 -3.746,-8.946 z m 1706.323,2.838 1.959,9.582 c 1.077,5.27 1.31,14.002 0.517,19.404 l -1.441,9.825 -28.19,1.779 c -43.907,2.77 -74.125,7.966 -88.261,15.178 v 0 c -16.047,8.185 -17.568,8.221 -13.334,0.31 4.44,-8.297 4.275,-20.73 -0.414,-31.021 -2.084,-4.571 -3.039,-9.059 -2.125,-9.973 0.913,-0.914 10.314,2.381 20.888,7.322 15.679,7.326 23.734,8.975 43.656,8.93 26.843,-0.06 43.575,-6.52 58.618,-22.633 z m -144.776,0.488 c 2.156,0 2.595,4.482 1.197,12.215 -3.056,16.905 -4.601,17.36 -4.601,1.358 0,-7.466 1.531,-13.573 3.404,-13.573 z m 346.076,11.827 c 18.744,-1.091 28.419,5.027 49.93,28.046 19.306,20.661 40.344,52.604 40.344,61.258 0,6.557 -15.76,-9.605 -25.555,-26.209 -7.271,-12.325 -8.808,-13.532 -9.656,-7.58 -1.13,7.936 9.213,30.189 17.056,36.699 10.499,8.713 4.549,9.361 -13.605,1.483 -22.76,-9.877 -28.566,-16.235 -31.478,-34.483 -2.344,-14.679 -9.638,-28.693 -14.936,-28.693 -1.944,0 -1.915,3.118 0.08,8.355 1.747,4.596 3.176,14.268 3.176,21.495 0,20.15 8.639,34.654 28.033,47.06 9.426,6.03 18.055,12.447 19.176,14.26 3.131,5.066 -1.582,3.597 -22.096,-6.885 -19.041,-9.73 -21.457,-12.93 -27.982,-37.053 -1.939,-7.166 -9.096,-19.453 -15.905,-27.304 -11.555,-13.325 -13.736,-14.408 -32.798,-16.287 l -20.42,-2.012 14.666,-14.369 c 12.629,-12.372 17.256,-14.72 33.324,-16.901 3.109,-0.421 5.973,-0.725 8.65,-0.88 z m -2066.908,10.976 c 1.314,0 5.496,8.867 9.293,19.707 l 6.904,19.709 -18.779,37.027 c -17.694,34.885 -19.151,36.771 -25.166,32.557 -5.722,-4.007 -6.087,-6.433 -3.508,-23.348 5.342,-35.022 23.818,-85.652 31.256,-85.652 z m 1336.42,6.283 7.756,9.018 7.756,9.016 -11.998,14.716 c -17.451,21.402 -28.546,39.54 -41.287,67.498 -15.053,33.032 -20.691,56.192 -22.567,92.702 -1.757,34.191 -0.413,31.752 12.854,-23.331 10.728,-44.544 29.958,-84.045 61.449,-126.226 l 12.768,-17.102 19.966,-0.07 c 20.255,-0.07 43.027,-7.759 54.948,-18.547 3.178,-2.877 6.678,-4.329 7.779,-3.228 7.717,7.717 23.492,112.593 24.709,164.271 l 0.937,39.815 -34.545,8.259 c -18.999,4.543 -51.983,10.434 -73.292,13.092 v 0 c -50.13,6.253 -85.969,5.844 -110.411,-1.26 -17.822,-5.179 -79.017,-32.992 -131.672,-59.843 -20.076,-10.238 -30.059,-19.788 -17.541,-16.78 9.835,2.364 14.76,-3.647 17.575,-21.453 2.133,-13.496 5.556,-20.094 16.672,-32.144 42.709,-46.298 106.362,-81.228 169.585,-93.059 z m -493.779,11.409 c -0.866,0 -1.713,0.145 -2.514,0.453 -5.561,2.134 -7.225,8.326 -3.293,12.257 3.42,3.421 13.507,2.535 15.938,-1.398 2.813,-4.552 -4.073,-11.335 -10.131,-11.312 z m 876.375,9.769 c 0.982,0.251 0.704,2.843 -0.43,8.787 -2.46,12.899 -2.661,13.282 -5.502,10.442 -3.803,-3.804 -2.339,-13.179 2.713,-17.372 1.586,-1.316 2.629,-2.008 3.219,-1.857 z m -22.278,4.6 c 1.049,0.802 0.713,7.728 -0.386,24.857 -2.039,31.765 -7.83,45.592 -8.836,21.098 -0.945,-22.984 0.344,-32.393 5.707,-41.67 1.76,-3.044 2.886,-4.767 3.515,-4.285 z m 328.182,0.09 c 12.043,0.74 24.206,15.445 38.693,45.639 10.887,22.688 15.477,28.74 27.172,35.83 7.74,4.693 14.118,9.472 14.174,10.621 0.06,1.15 -5.789,4.448 -12.992,7.33 -26.649,10.663 -55.311,4.111 -55.311,-12.644 0,-6.025 -1.986,-7.971 -8.957,-8.774 -7.66,-0.881 -8.807,-2.327 -7.912,-9.98 0.818,-6.992 -0.69,-9.61 -6.884,-11.965 -14.103,-5.362 -17.042,-36.807 -4.54,-48.553 5.633,-5.291 11.083,-7.84 16.557,-7.504 z m -199.996,7.215 c 11.156,0.136 13.101,0.848 8.143,2.979 -9.484,4.075 -33.994,4.075 -27.688,0 2.687,-1.737 11.483,-3.077 19.545,-2.979 z m 52.6,4.285 c 7.928,0.471 13.418,2.934 14.871,7.293 1.546,4.64 -18.499,12.648 -42.994,17.176 -10.538,1.948 -24.386,3.378 -30.776,3.178 -16.224,-0.508 -58.851,-9.684 -58.851,-12.668 0,-1.356 4.392,-4.283 9.759,-6.506 7.467,-3.093 13.164,-3.187 24.244,-0.396 20.5,5.161 29.339,4.606 54.252,-3.418 11.201,-3.608 21.567,-5.129 29.495,-4.659 z m 30.546,25.366 c 8.242,-0.438 13.148,2.436 14.012,8.531 0.968,6.825 0.453,7.13 -5.619,3.338 -11.963,-7.471 -14.664,-0.168 -10.658,28.81 6.822,49.353 7.849,68.432 4.068,75.496 -3.832,7.162 -25.15,14.572 -52.414,18.223 -13.28,1.778 -16.646,0.702 -34.916,-11.17 -21.637,-14.059 -26.937,-20.772 -26.937,-34.127 0,-15.452 -12.613,-45.433 -23.129,-54.978 -15.443,-14.017 -19.32,-6.865 -8.385,15.467 4.792,9.786 8.659,19.719 8.596,22.072 -0.233,8.506 -15.729,-15.073 -21.075,-32.067 -6.155,-19.57 -14.64,-23.792 -14.64,-7.285 0,7.251 -1.27,9.634 -4.481,8.403 -4.929,-1.892 -11.806,10.271 -11.806,20.88 0,16.037 24.07,43.316 41.591,47.137 15.978,3.485 24.98,8.114 37.944,19.512 11.815,10.388 12.177,11.191 4.887,10.889 -12.011,-0.5 -31.889,-5.472 -53.088,-13.278 -18.051,-6.646 -19.62,-8.101 -27.217,-25.226 -5.291,-11.929 -8.657,-26.754 -9.793,-43.137 l -1.733,-24.963 14.292,-15.053 14.289,-15.05 26.06,6.794 c 49.423,12.888 76.981,11.793 121.867,-4.837 7.196,-2.666 13.34,-4.119 18.285,-4.381 z m -1545.804,0.152 c 10.547,-0.504 20.827,1.305 29.715,5.482 19.791,9.303 29.849,23.388 31.502,44.114 1.877,23.534 -17.054,60.041 -51.143,98.623 -14.182,16.05 -28.62,33.843 -32.084,39.539 -5.771,9.489 -6.677,9.894 -10.84,4.851 -3.19,-3.865 -4.418,-13.83 -4.123,-33.474 0.438,-29.126 7.312,-55.745 27.647,-107.051 5.166,-13.036 9.392,-25.128 9.392,-26.873 0,-7.828 -9.029,-1.848 -18.58,12.307 -36.933,54.731 -54.216,130.815 -36.441,160.421 3.764,6.271 9.755,14.569 13.312,18.44 3.557,3.871 5.97,9.227 5.36,11.9 -0.804,3.523 -5.147,1.236 -15.768,-8.302 -18.387,-16.514 -51.521,-32.651 -82.23,-40.051 -13.001,-3.133 -24.129,-6.106 -24.731,-6.608 -1.512,-1.26 42.742,-76.198 61.504,-104.148 15.853,-23.615 43.978,-49.436 66.189,-60.768 9.956,-5.079 20.771,-7.897 31.319,-8.402 z m 1666.324,2.494 c -6.334,0 -9.029,5.349 -6.582,13.059 2.134,6.724 12.782,8.885 16.236,3.295 2.798,-4.527 -4.185,-16.354 -9.654,-16.354 z m -1303.516,20.072 c -0.4,-0.113 -0.862,-0.09 -1.388,0.09 -7.204,2.402 -34.235,74.469 -31.047,82.776 2.885,7.518 7.194,3.042 16.375,-17.012 14.241,-31.106 22.07,-64.153 16.06,-65.852 z m 1218.909,7.215 c 0.998,-0.02 3.034,1.622 6.089,4.998 3.119,3.447 5.188,9.555 4.596,13.575 -0.936,6.358 -1.835,5.704 -6.916,-5.022 -4.208,-8.885 -5.433,-13.52 -3.769,-13.551 z m -1120.684,0.01 c 3.632,0.116 8.139,0.444 13.928,0.916 25.673,2.095 42.224,6.262 38.734,9.752 -4.711,4.712 -30.428,7.072 -40.09,3.68 -8.102,-2.846 -12.916,-2.489 -23.476,1.736 -16.75,6.702 -21.825,1.302 -9.08,-9.66 6.073,-5.224 9.089,-6.773 19.984,-6.424 z m 985.713,6.977 c -4.34,-0.471 -5.196,3.463 -0.375,6.443 1.791,1.107 3.256,9.99 3.256,19.738 0,9.748 1.174,17.723 2.607,17.723 5.886,0 10.424,-8.522 10.424,-19.574 0,-12.6 -4.681,-20.658 -13.846,-23.844 -0.755,-0.263 -1.446,-0.419 -2.066,-0.486 z m 256.457,5.007 c -1.125,-0.03 -2.539,0.279 -4.24,0.932 -2.765,1.061 -5.028,4.907 -5.028,8.547 0,8.663 8.718,8.554 11.479,-0.145 1.932,-6.089 1.165,-9.241 -2.211,-9.334 z m -63.85,0.944 c 0.755,0.02 1.746,1.175 3.045,2.896 3.626,4.807 4.827,10.456 3.563,16.776 -1.834,9.169 -1.53,9.452 8.092,7.527 6.919,-1.384 11.266,-0.472 14.117,2.963 11.888,14.324 42.974,20.534 64.449,12.875 25.218,-8.995 31.063,-5.339 11.611,7.264 -17.111,11.085 -30.75,34.458 -30.75,52.695 0,8.198 -2.772,24.902 -6.16,37.119 v 0 c -6.825,24.615 -11.904,32.528 -15.262,23.779 -1.15,-2.995 -1.185,-10.937 -0.08,-17.646 6.255,-37.916 6.101,-46.2 -1.172,-63.106 -3.953,-9.19 -6.408,-19.692 -5.455,-23.338 1.602,-6.125 1.331,-6.225 -3.572,-1.322 -4.593,4.593 -4.789,7.542 -1.463,21.953 4.817,20.87 4.871,35.035 0.182,48.487 -6.333,18.167 -9.856,6.464 -5.573,-18.516 4.244,-24.749 4.78,-22.364 -11.896,-52.908 l -8.004,-14.658 -0.09,11.591 c -0.05,6.376 2.059,14.439 4.69,17.916 4.94,6.532 6.275,31.229 2.24,41.442 -2.008,5.081 -3.69,4.36 -13.551,-5.815 l -11.258,-11.617 -0.06,-50.353 c -0.05,-35.881 0.09,-46.061 2.359,-46.004 z m -1210.779,12.115 c 1.42,0.09 1.293,1.629 -0.225,5.035 -13.634,30.609 27.058,55.977 48.643,30.324 4.638,-5.512 8.434,-13.963 8.434,-18.781 0,-8.523 0.549,-8.773 20.349,-9.228 12.364,-0.285 21.292,1.015 22.752,3.31 4.517,7.1 2.423,42.838 -4.324,73.813 -3.708,17.02 -7.513,38.389 -8.457,47.486 l -1.717,16.541 -26.976,7.076 c -14.837,3.891 -28.235,7.073 -29.774,7.072 -1.539,0 -3.272,-22.299 -3.85,-49.554 -0.578,-27.254 -1.763,-50.707 -2.634,-52.117 -7.958,-12.877 -15.082,16.234 -15.512,63.394 -0.213,23.348 -1.618,38.148 -3.605,37.951 -1.792,-0.176 -6.922,-1.339 -11.401,-2.584 l -8.144,-2.261 -0.885,-60.715 c -0.755,-51.741 -0.01,-63.242 5.023,-77.809 3.25,-9.402 7.912,-17.762 10.362,-18.578 0.823,-0.274 1.468,-0.406 1.941,-0.375 z m 31.338,0.33 c 11.057,1.566 12.514,19.579 2.17,26.824 -8.84,6.192 -9.257,6.209 -16.561,0.664 -12.124,-9.203 -1.382,-29.722 14.391,-27.488 z m 871.625,2.828 2.224,16.774 c 1.224,9.225 4.189,21.47 6.588,27.213 l 4.362,10.439 -13.504,3.953 c -7.428,2.175 -20.01,7.715 -27.959,12.311 -7.949,4.596 -21.099,14.362 -29.223,21.705 -13.396,12.108 -14.196,12.441 -8.607,3.578 5.469,-8.674 21.755,-30.793 38.513,-52.309 3.177,-4.078 10.689,-15.572 16.692,-25.541 z m 468.752,14.014 c 0.559,0.339 1.048,2.376 1.801,6.314 0.932,4.877 0.519,8.868 -0.918,8.868 -4.335,0 -5.577,-4.515 -3.11,-11.311 1.036,-2.853 1.667,-4.211 2.227,-3.871 z m -1652.547,2.498 c -5.217,0.345 -11.443,2.507 -19.82,6.562 -19.965,9.666 -30.94,27.05 -29.709,47.063 0.902,14.679 0.23,16.048 -14.434,29.324 -15.314,13.865 -19.251,15.425 -48.693,19.303 -18.56,2.444 -20.088,7.088 -3.258,9.902 6.718,1.124 13.681,2.539 15.473,3.147 12.531,4.25 34.708,-5.898 52.119,-23.85 7.166,-7.389 21.091,-17.506 30.945,-22.484 12.727,-6.43 17.916,-10.939 17.916,-15.567 0,-6.804 -7.445,-8.135 -18.73,-3.349 -4.361,1.849 -5.702,0.851 -5.702,-4.252 0,-9.635 5.747,-11.935 26.875,-10.758 17.166,0.957 18.731,0.474 18.731,-5.772 0,-3.902 -2.1,-6.814 -4.914,-6.814 -4.117,0 -4.249,-1.089 -0.815,-6.713 3.499,-5.73 3.173,-7.401 -2.224,-11.402 -4.336,-3.214 -8.543,-4.685 -13.76,-4.34 z m 407.728,15.299 24.854,36.967 c 21.301,31.684 45.172,73.548 45.172,79.22 0,2.829 -10.475,1.376 -26.061,-3.617 -8.062,-2.583 -26.021,-5.312 -39.91,-6.064 -13.888,-0.753 -25.353,-2.185 -25.48,-3.182 -0.127,-0.997 3.488,-18.279 8.035,-38.404 4.546,-20.126 9.421,-42.965 10.83,-50.756 z m -170.125,21.344 c 0.435,-0.122 0.698,-0.07 0.772,0.175 0.588,1.954 2.005,20.146 3.146,40.426 1.142,20.281 2.74,38.604 3.551,40.719 1.063,2.771 -6.495,3.865 -27.064,3.918 -23.916,0.06 -32.232,1.597 -51.34,9.476 -34.675,14.299 -77.142,41.997 -95.963,62.59 -9.257,10.129 -23.152,29.212 -30.877,42.408 l -14.045,23.995 -8.748,-17.883 c -18.323,-37.452 -54.474,-57.933 -116.246,-65.86 -40.696,-5.221 -61.943,-10.545 -63.754,-15.974 -0.578,-1.735 20.582,-3.018 50.307,-3.018 49.154,-0.02 52.234,-0.414 73.476,-9.377 l 22.172,-9.355 14.194,10.191 c 14.22,10.212 31.043,13.619 31.043,6.285 0,-3.04 0.87,-3.04 3.91,0 5.263,5.263 17.23,4.948 21.812,-0.572 2.045,-2.464 9.826,-5.456 17.293,-6.65 13.082,-2.092 23.107,-6.185 30.315,-11.594 20.132,-1.526 38.756,-3.977 42.464,-7.902 8.694,-9.201 3.199,-12.394 -4.591,-12.145 -2.304,0.07 -6.828,0.571 -13.68,1.148 1.089,-1.462 2.093,-3.243 2.992,-5.261 19.486,-3.377 51.745,-24.281 81.256,-52.762 13.141,-12.683 24.562,-22.125 27.605,-22.978 z m -154.75,8.421 c 1.382,0 2.386,0.827 3.006,2.133 1.528,3.216 -0.181,8.722 -2.843,13.34 -4.954,8.596 -7.666,8.559 -9.561,4.877 -1.896,-3.682 -1.985,-10.488 0.947,-14.139 3.607,-4.49 6.432,-6.22 8.451,-6.211 z m 1122.649,13.223 c 11.778,0 41.008,12.149 41.008,17.045 0,1.494 -3.749,10.112 -8.33,19.152 -12.853,25.364 -27.431,78.248 -27.553,99.961 -0.09,16.253 -3.744,18.367 -21.555,12.469 -8.72,-2.887 -24.279,-6.801 -34.574,-8.695 -10.295,-1.895 -27.117,-6.217 -37.383,-9.604 -20.642,-6.81 -24.931,-6.057 -15.381,2.699 14.63,13.414 87.913,37.108 133.373,43.121 44.89,5.939 129.324,-0.845 184.541,-14.83 17.672,-4.475 66.466,-23.677 97.229,-38.261 25.495,-12.087 6.056,-10.259 -26.566,2.498 -55.262,21.609 -63.72,24.111 -92.815,27.47 -42.933,4.958 -130.007,7.864 -155.057,5.174 -20.356,-2.185 -21.868,-2.883 -20.423,-9.429 0.858,-3.889 5.393,-24.585 10.078,-45.991 4.684,-21.405 12.263,-49.03 16.843,-61.386 8.307,-22.411 8.352,-22.46 18.422,-19.922 5.552,1.4 22.555,2.775 37.784,3.054 18.929,0.348 31.093,2.272 38.451,6.082 5.919,3.066 17.645,6.315 26.058,7.221 18.6,2.004 32.047,-5.286 45.424,-24.623 10.362,-14.979 16.414,-16.063 38.01,-6.807 18.426,7.899 19.653,11.266 1.81,4.971 -10.657,-3.76 -15.385,-3.886 -25.201,-0.67 -16.591,5.437 -17.855,14.303 -2.451,17.194 10.841,2.033 11.364,2.638 6.719,7.771 -7.385,8.16 -6.187,12.803 3.92,15.184 4.927,1.16 12.622,5.4 17.101,9.422 4.479,4.021 12.051,9.328 16.827,11.795 4.775,2.465 20.39,12.913 34.699,23.214 14.309,10.302 27.469,18.731 29.244,18.731 1.775,0 4.184,2.494 5.353,5.541 1.471,3.833 -1.432,8.8 -9.423,16.121 -18.605,17.042 -15.133,27.564 5.605,16.984 12.286,-6.268 12.941,-6.308 10.637,-0.674 -4.442,10.861 -3.529,15.79 2.931,15.79 5.106,0 7.643,4.976 13.452,26.33 3.937,14.475 9.993,32.792 13.457,40.705 3.925,8.966 5.502,17.455 4.185,22.531 -1.163,4.479 -0.888,11.538 0.61,15.685 4.248,11.766 3.847,12.316 -16.008,22.028 -24.789,12.125 -45.27,31.787 -66.957,64.285 -19.074,28.582 -41.115,68.876 -47.108,86.119 -4.542,13.069 -8.609,13.122 -56.136,0.738 -18.812,-4.902 -64.253,-13.852 -100.981,-19.89 -58.627,-9.64 -74.038,-10.999 -126.269,-10.961 -51.73,0.02 -59.222,-0.622 -57.428,-4.887 13.075,-31.079 12.984,-57.475 -0.299,-86.906 -4.183,-9.269 -6.761,-17.698 -5.729,-18.731 4.137,-4.136 22.881,-1.545 27.653,3.823 7.234,8.139 15.512,29.445 15.344,39.488 -0.136,8.069 -0.516,7.86 -6.594,-3.654 -12.599,-23.865 -22.435,-7.706 -11.395,18.718 7.817,18.708 31.689,18.537 36.407,-0.261 5.442,-21.685 -12.119,-63.675 -30.245,-72.319 -10.414,-4.964 -12.393,-4.974 -25.89,-0.121 l -14.614,5.256 -15.941,-10.728 c -8.767,-5.901 -22.751,-13.328 -31.074,-16.506 l -15.133,-5.78 2.119,-18.171 c 5.33,-45.693 33.919,-117.386 46.404,-116.37 4.629,0.378 6.044,-2.386 6.838,-13.369 0.872,-12.049 1.988,-13.843 8.61,-13.843 8.804,0 11.556,-5.069 9.265,-17.055 -4.89,-25.58 63.312,-83.926 98.102,-83.926 z m 189.023,4.83 c 1.267,0.145 -0.178,1.757 -3.093,4.979 -3.731,4.122 -10.023,6.478 -17.303,6.478 -13.932,0 -13.135,-0.842 7.221,-7.635 7.93,-2.646 11.909,-3.967 13.175,-3.822 z m 100.578,34.869 c 0.994,0.231 2.971,2.666 6.909,7.533 4.347,5.375 8.6,12.338 9.451,15.473 2.13,7.85 -1.876,7.137 -10.307,-1.838 -3.895,-4.146 -7.066,-11.109 -7.066,-15.472 0,-3.952 0.02,-5.926 1.013,-5.696 z m 87.875,35.317 c 2.004,-0.507 4.565,4.266 10.188,17.496 9.956,23.424 10.134,29.502 0.709,24.185 -3.337,-1.883 -11.111,-2.601 -17.273,-1.601 -14.999,2.434 -17.26,-4.241 -6.745,-19.905 4.478,-6.67 9.524,-14.782 11.211,-18.027 0.637,-1.224 1.243,-1.979 1.91,-2.148 z m -1203.808,1.433 c 0.973,0.126 1.994,0.491 3.123,1.071 3.234,1.661 16.876,3.912 30.312,5.002 23.282,1.887 52.736,9.537 60.725,15.771 2.78,2.169 2.695,6.375 -0.334,16.639 -8.864,30.029 -9.057,32.341 -2.537,30.271 5.152,-1.635 5.811,-0.369 4.711,9.049 -1.575,13.488 6.477,18.35 13.586,8.201 l 4.666,-6.662 2.158,6.797 c 3.318,10.456 14.524,8.733 16.787,-2.582 1.387,-6.934 3.373,-8.99 7.613,-7.881 7.585,1.984 10.278,-5.864 6.516,-18.982 -1.665,-5.807 -2.652,-10.932 -2.193,-11.391 1.349,-1.349 28.115,19.726 28.25,22.242 0.237,4.465 -40.824,35.475 -56.883,42.959 -19.933,9.29 -36.675,13.459 -78.5,19.551 -66.19,9.641 -125.404,8.786 -180.02,-2.602 -36.331,-7.575 -138.751,-54.012 -136.422,-61.853 2.082,-7.004 52.933,-37.975 78.813,-48 14.537,-5.631 35.285,-10.902 46.57,-11.83 19.044,-1.566 20.788,-1.122 27.088,6.887 9.332,11.864 37.702,19.808 60.967,17.074 22.356,-2.628 47.932,-13.483 56.031,-23.78 3.581,-4.552 6.055,-6.327 8.973,-5.951 z m 182.098,73.436 8.328,8.935 c 19.097,20.494 55.737,72.718 69.119,98.518 21.387,41.233 26.982,61.24 30.972,110.752 1.95,24.186 4.37,49.301 5.379,55.81 1.614,10.406 0.669,12.667 -7.814,18.707 -11.591,8.254 -73.615,36.389 -97.313,44.141 -40.298,13.183 -88.553,21.84 -137.791,24.723 -59.565,3.487 -113.508,3.355 -156.355,-0.381 -88.386,-7.707 -105.823,-10.052 -143.328,-19.283 -42.576,-10.48 -60.561,-16.425 -92.457,-30.559 l -19.166,-8.49 1.728,-67.58 c 2.213,-86.438 8.94,-133.883 23.897,-168.551 10.464,-24.255 35.788,-63.375 41.097,-63.48 1.284,-0.03 11.545,5.929 22.803,13.234 40.798,26.471 96.671,51.746 129.594,58.625 67.06,14.009 153.734,10.689 219.662,-8.416 39.131,-11.34 52.002,-18.607 78.617,-44.395 z m 1047.654,0.465 -1.998,16.847 c -2.572,21.679 -9.945,47.053 -12.459,42.881 -2.837,-4.707 -16.394,-54.143 -15.135,-55.193 0.586,-0.489 7.484,-1.71 15.328,-2.713 z m -692.985,104.269 c 3.999,0 7.642,2.782 12.782,8.324 l 8.218,8.862 -10.353,10.681 c -5.695,5.875 -12.046,10.684 -14.113,10.684 -2.067,0 -9.841,4.407 -17.276,9.793 l -13.519,9.791 v -9.897 c 0,-14.539 7.474,-29.976 19.351,-39.97 6.559,-5.519 10.912,-8.276 14.91,-8.268 z m 75.208,19.531 c 12.836,-0.225 20.415,1.347 33.859,5.877 47.808,16.109 68.054,38.42 70.894,78.121 1.446,20.202 0.624,24.108 -9.371,44.545 -15.813,32.336 -48.478,64.067 -84.326,81.913 -29.789,14.828 -37.694,16.82 -34.584,8.714 3.063,-7.982 -11.311,-19.631 -29.652,-24.031 -22.605,-5.422 -25.371,-12.584 -25.246,-65.367 0.103,-43.59 5.039,-69.111 19.215,-99.352 12.572,-26.82 13.386,-27.368 44.207,-29.638 5.86,-0.432 10.724,-0.706 15.004,-0.782 z m 603.374,35.307 c 4.556,0 9,72.751 7.2,117.861 -2.009,50.343 -5.013,57.854 -27.643,69.09 -7.028,3.49 -21.78,6.717 -33.994,7.436 -20.348,1.197 -22.227,0.693 -32.979,-8.844 -6.27,-5.562 -17.996,-13.931 -26.058,-18.6 -8.062,-4.668 -15.185,-8.875 -15.828,-9.349 -0.644,-0.473 1.679,-4.978 5.162,-10.008 3.483,-5.03 14.877,-25.269 25.316,-44.977 21.838,-41.223 39.303,-67.914 52.6,-80.386 7.971,-7.477 38.645,-22.223 46.224,-22.223 z m -661.582,53.637 c -1.344,0.09 -2.471,0.508 -3.277,1.314 -2.344,2.344 -0.115,6.441 7.235,13.307 11.014,10.29 17.811,12.358 21.419,6.519 4.135,-6.689 -15.966,-21.79 -25.377,-21.14 z m 97.631,22.105 c -2.225,-0.04 -5.084,0.644 -9.062,2.032 -5.778,2.014 -13.865,3.662 -17.971,3.662 -8.154,0 -12.652,4.636 -9.478,9.771 1.107,1.792 8.361,3.258 16.119,3.258 16.595,0 32.075,-9.93 25.66,-16.461 -1.449,-1.474 -3.042,-2.226 -5.268,-2.262 z m 74.276,42.455 53.472,2.903 c 35.558,1.93 78.829,7.231 129.161,15.822 41.628,7.105 77.212,12.92 79.074,12.92 1.862,0 5.297,4.03 7.635,8.957 6.871,14.484 24.163,20.75 59.238,21.461 29.9,0.606 31.145,0.943 49.105,13.312 44.851,30.89 69.723,77.682 62.307,117.215 -2.664,14.201 -5.274,14.639 -12.666,2.125 -5.436,-9.203 -17.028,-15.837 -20.902,-11.963 -1.024,1.023 1.285,10.084 5.13,20.133 8.895,23.243 8.788,28.796 -0.679,35 -9.658,6.328 -34.649,10.618 -55.848,9.588 -28.688,-1.394 -87.605,-11.062 -98.525,-16.168 -5.816,-2.719 -18.577,-13.588 -28.358,-24.152 -23.14,-24.994 -28.87,-44.324 -21.261,-71.717 3.994,-14.382 28.476,-38.001 42.244,-40.754 13.144,-2.629 9.081,-7.66 -6.186,-7.66 -12.324,0 -30.576,10.482 -43.332,24.887 -10.138,11.448 -16.461,31.661 -16.703,53.402 -0.194,17.384 1.386,24.188 8.625,37.141 4.875,8.721 8.357,16.363 7.738,16.982 -0.618,0.619 -9.801,-0.51 -20.406,-2.508 -24.457,-4.607 -78.915,-1.683 -128.406,6.897 -40.756,7.064 -122.57,15.34 -125.242,12.668 -0.914,-0.914 0.509,-16.1 3.158,-33.748 6.084,-40.529 6.412,-71.167 0.744,-69.37 -5.473,1.736 -17.613,39.713 -23.529,73.608 -2.645,15.15 -5.329,28.067 -5.967,28.705 -2.119,2.119 -39.403,-5.466 -61.654,-12.543 -26.631,-8.47 -37.557,-18.995 -43.895,-42.281 -10.008,-36.774 -8.529,-99.712 2.937,-124.877 5.172,-11.35 9.139,-10 9.139,3.111 0,18.92 21.877,30.623 39.559,21.16 4.963,-2.656 9.182,-2.26 17.379,1.629 5.953,2.825 12.802,5.117 15.218,5.117 11.289,-0.05 29.634,-7.653 41.436,-17.183 7.142,-5.767 19.124,-14.15 26.627,-18.629 7.503,-4.479 22.641,-17.829 33.639,-29.666 z m 3.457,21.873 c -0.768,0 -12.148,10.627 -25.287,23.616 -13.14,12.989 -30.102,29.131 -37.694,35.871 -7.591,6.74 -13.802,13.702 -13.802,15.472 0,4.839 12.089,3.873 23.158,-1.851 23.843,-12.331 55.021,-49.504 55.021,-65.604 0,-4.128 -0.629,-7.504 -1.396,-7.504 z m -179.506,30.842 c 1.592,0.09 4.278,1.332 6.867,3.291 3.452,2.613 4.811,4.765 3.02,4.803 -4.841,0.08 -13.115,-5.735 -11.071,-7.779 0.244,-0.244 0.653,-0.344 1.184,-0.315 z m 625.178,178.737 c 1.168,-0.226 1.992,0.425 1.992,1.769 0,1.792 -1.465,4.165 -3.256,5.272 -1.792,1.107 -3.258,0.547 -3.258,-1.245 0,-1.791 1.466,-4.164 3.258,-5.271 0.448,-0.277 0.874,-0.45 1.264,-0.525 z" fill="#00B894" transform="translate(294.15241,249.1811) translate(49.868275,-2436.2184) matrix(0.26458333,0,0,0.26458333,-3417.4795,-450.03122)"/>
</svg>