<?xml version="1.0" ?><svg height="310.32748mm" viewBox="0 0 245.88562 310.32748" width="245.88562mm" xmlns="http://www.w3.org/2000/svg">
    <path d="m 287.16563,1932.9283 h 380.3936 v 480.0874 h -380.3936 z" fill="#FFFFFF" transform="translate(254.47855,197.49711) matrix(0.6463979,0,0,0.6463979,-440.10181,-1446.9379)"/>
    <path d="m 379.21559,2393.0674 c -1.52153,-3.965 6.08473,-45.6763 11.04235,-60.5541 12.97794,-38.9467 39.37133,-70.3039 72.09336,-85.6518 7.78148,-3.6498 10.92441,-4.3393 21.8047,-4.7832 11.79431,-0.4812 13.33603,-0.2361 21.34073,3.3934 13.11941,5.9487 24.18557,16.9382 30.78436,30.5713 2.96485,6.1253 5.5193,11.137 5.67656,11.137 0.15726,0 -0.1841,-4.8621 -0.75858,-10.8047 -0.57448,-5.9426 -1.62808,-25.2926 -2.34136,-43 -1.39578,-34.6517 -4.16264,-71.593 -5.34962,-71.4252 -0.4023,0.057 -3.83812,4.8181 -7.63515,10.5805 l -6.90371,10.477 0.76771,10.1508 c 0.76573,10.1247 0.77988,10.1558 5.52156,12.137 7.70903,3.221 9.51872,5.5846 9.51315,12.4246 -0.007,7.7584 -3.5109,13.6271 -9.96723,16.6908 -10.3948,4.9326 -20.20679,-1.32 -19.002,-12.109 0.34056,-3.0497 1.89628,-7.3384 3.45716,-9.5305 2.44016,-3.4268 2.71871,-5.1266 1.98712,-12.1261 l -0.85087,-8.1406 -6.14293,5.7264 c -30.88819,28.7936 -64.42671,30.6762 -99.58239,5.5896 -14.95143,-10.6691 -27.80849,-29.4522 -31.29816,-45.7239 -1.41045,-6.5767 -1.62456,-6.8219 -5.82052,-6.6641 -9.12983,0.3432 -9.87921,-3.3244 -1.44187,-7.0566 l 6,-2.6541 v -9.948 c 0,-13.9874 4.85339,-46.9448 8.69827,-59.0664 6.85813,-21.6214 20.10881,-37.3539 38.96267,-46.2602 5.68649,-2.6862 11.83906,-5.7356 13.6724,-6.7763 19.43746,-11.0339 32.7559,-13.4569 48.31357,-8.7895 7.5791,2.2738 9.1638,2.3982 10.47176,0.8222 2.61339,-3.149 14.41164,-2.3285 22.17946,1.5424 9.69737,4.8324 23.42609,19.9763 33.37697,36.8176 12.56473,21.2651 12.72996,21.6664 37.24451,90.4496 7.67134,21.5244 11.28865,36.0586 16.92398,68 6.18199,35.0399 10.54754,70.7364 9.89811,80.9355 -0.66709,10.4764 -3.28964,14.1964 -13.80619,19.5835 -7.0603,3.6167 -9.47954,4.1184 -21.9355,4.5492 -7.7,0.2663 -16.68374,-0.1313 -19.96386,-0.8837 -3.2801,-0.7523 -6.10832,-1.2234 -6.28492,-1.0468 -0.17658,0.1766 0.81316,4.1929 2.19944,8.925 3.53208,12.057 6.33047,27.4889 8.05108,44.398 1.28007,12.5797 1.19823,14.8776 -0.62921,17.6666 -2.41397,3.6842 -7.4792,4.2423 -10.55825,1.1632 -2.2799,-2.2799 -2.79631,-4.805 -4.89946,-23.9571 -2.11825,-19.2898 -4.51345,-30.8191 -10.61666,-51.1039 -9.66498,-32.1226 -17.07847,-44.0193 -32.20854,-51.6863 -5.08418,-2.5763 -8.38984,-3.2098 -16.74959,-3.2098 -9.1142,0 -11.57649,0.5635 -19.71098,4.5111 -13.443,6.5237 -27.12243,16.6801 -35.52126,26.3729 -19.91306,22.9811 -35.81189,59.2165 -39.71986,90.5266 -0.86426,6.9241 -1.99216,14.0894 -2.50648,15.9227 -1.13562,4.048 -6.45158,5.3384 -7.77583,1.8874 z m 198.89438,-91.969 c 9.24677,-1.1493 9.19186,-0.9791 6.04088,-18.7228 -1.54927,-8.7242 -4.57736,-24.8623 -6.72908,-35.8623 -2.15174,-11 -6.33851,-34.1 -9.30398,-51.3333 -2.96545,-17.2333 -9.23514,-47.2333 -13.93264,-66.6667 -4.69749,-19.4333 -9.72212,-40.4333 -11.16584,-46.6666 -1.87502,-8.0955 -2.65649,-10.0001 -2.73533,-6.6667 -0.0607,2.5667 0.48585,7.0667 1.2146,10 0.72875,2.9333 1.86167,14.0333 2.51761,24.6667 1.19443,19.3627 9.06538,74.7877 15.2425,107.3333 4.83257,25.4615 4.93984,26.2151 6.83054,47.9884 1.7892,20.6045 1.13568,26.4834 -2.59944,23.3835 -2.1979,-1.8241 -2.81804,-5.1996 -5.39606,-29.3719 -1.13407,-10.6333 -3.52851,-27.4333 -5.32098,-37.3333 -3.37138,-18.6205 -7.83813,-51.5769 -9.45258,-69.7426 -0.54879,-6.1749 -1.41366,-9.9206 -2.12612,-9.2082 -0.71247,0.7125 -0.35316,9.8281 0.88329,22.4092 3.63196,36.9557 4.60521,49.8182 5.99697,79.2563 2.20102,46.5549 2.86014,53.4431 5.35239,55.9353 2.22861,2.2287 10.05784,2.4195 24.68327,0.6017 z m 21.24497,-7.4541 c 3.43075,-1.5631 5.54147,-5.4465 4.16812,-7.6686 -0.41747,-0.6755 -2.54776,-13.1308 -4.73399,-27.6786 -2.18621,-14.5477 -4.90974,-31.5504 -6.05229,-37.7838 -1.14255,-6.2333 -2.92768,-16.0102 -3.96696,-21.7264 -3.88019,-21.3418 -9.04011,-39.6283 -22.77205,-80.7031 -17.70548,-52.9604 -20.44499,-58.9432 -11.80868,-25.7892 14.98417,57.523 18.58889,73.1612 24.58104,106.6393 3.63382,20.302 8.70542,48.0128 11.27024,61.5794 2.5648,13.5667 4.6797,26.9167 4.69977,29.6667 0.0409,5.6157 -0.0148,5.5737 4.6148,3.4643 z m -76.57831,-69.131 c 3.08196,-3.0819 3.49419,-8.32 0.82886,-10.532 -2.3177,-1.9235 -8.11054,0.07 -9.31368,3.2056 -1.10906,2.8902 -1.0865,7.9773 0.0404,9.1042 1.72029,1.7203 5.80665,0.86 8.44444,-1.7778 z M 465.4433,2204.211 c 18.11108,-5.4018 42.77736,-28.2595 54.76375,-50.7483 l 4.24726,-7.9687 -15.83884,-15.5283 c -19.1811,-18.8051 -39.4882,-34.3069 -51.17952,-39.0689 -13.7084,-5.5835 -46.71952,-14.3099 -57.61851,-15.2312 -8.62032,-0.7286 -10.06886,-0.5376 -10.82281,1.4271 -2.83764,7.3948 -7.59075,60.754 -5.41181,60.754 0.66628,0 3.0579,-0.5296 5.31472,-1.1768 4.90612,-1.4071 8.54576,0.245 8.54576,3.879 0,2.8795 -4.07347,5.8653 -9.83034,7.2056 -3.55085,0.8267 -3.77324,1.2437 -3.04777,5.7141 2.56367,15.7981 20.34248,36.1988 39.6936,45.5474 15.66912,7.5699 28.00516,9.126 41.18451,5.195 z m -25.24411,-14.1976 c -0.73585,-1.375 -4.09931,-3.7979 -7.47433,-5.3844 -6.50412,-3.0573 -7.1782,-5.5414 -1.84938,-6.8154 3.16167,-0.7558 16.55104,0.7866 18.77854,2.1633 2.05382,1.2693 1.15917,6.661 -1.596,9.6184 -3.33348,3.578 -6.0892,3.7247 -7.85883,0.4181 z m 21.51077,-59.1001 c -2.27946,-2.2794 -1.98021,-5.635 0.80982,-9.0805 2.26394,-2.7959 2.54641,-2.8394 4.66666,-0.7192 3.79434,3.7944 2.18662,11.3997 -2.40981,11.3997 -0.80667,0 -2.18667,-0.72 -3.06667,-1.6 z m -35.84437,-5.8893 c -1.18851,-3.0972 1.23795,-9.0754 3.89096,-9.5863 3.44992,-0.6644 4.61669,5.8381 1.63812,9.1294 -2.87556,3.1774 -4.43563,3.3064 -5.52908,0.4569 z m 104.30582,-4.0419 c 2.0237,-21.596 -2.05406,-44.2503 -9.26567,-51.4759 -9.12324,-9.141 -46.33707,-29.9581 -69.6259,-38.9482 l -9.49678,-3.666 -7.7796,2.2616 c -11.57196,3.3641 -20.1747,8.1738 -27.07424,15.1372 -5.67199,5.7244 -14.81926,20.5853 -14.81926,24.0758 0,0.973 4.04036,1.4801 11.79198,1.4801 12.07713,0 44.20669,5.6852 56.05118,9.918 14.35372,5.1296 39.49401,23.1209 56.79223,40.6425 5.84947,5.9251 11.04827,10.7728 11.55291,10.7728 0.50464,0 1.34755,-4.5891 1.87315,-10.1979 z m -21.47866,-71.2544 c -5.2702,-5.5432 -13.65782,-10.332 -23.41599,-13.369 -12.61154,-3.9252 -12.19792,-2.9947 1.85341,4.1696 7.1611,3.6511 15.2611,8.1061 18,9.9 6.8449,4.483 8.23168,4.2103 3.56258,-0.7006 z m 17.3515,-13.3414 c -4.04306,-7.8184 -15.31512,-17.8892 -21.89126,-19.5582 -7.87465,-1.9986 -8.27248,-1.1658 -1.17224,2.4541 3.18774,1.6252 9.99588,7.2285 15.12922,12.4519 5.13333,5.2234 9.52757,9.3913 9.76498,9.2621 0.2374,-0.1293 -0.58641,-2.2038 -1.8307,-4.6099 z m -29.70983,-8.9905 c -4.84456,-3.7267 -21.43116,-9.7287 -29.06191,-10.5163 -6.58893,-0.68 -17.42565,0.4818 -16.17344,1.7341 0.32721,0.3272 7.13852,1.4253 15.13624,2.4401 8.03801,1.0201 18.41731,3.331 23.20799,5.1672 10.69928,4.1011 10.69373,4.1001 6.89112,1.1749 z" fill="#00B894" transform="translate(254.47855,197.49711) matrix(0.6463979,0,0,0.6463979,-440.10181,-1446.9379)"/>
</svg>