<?xml version="1.0" ?><svg height="117.24461mm" viewBox="0 0 180.04417 117.24461" width="180.04417mm" xmlns="http://www.w3.org/2000/svg">
    <path d="m -1411.9251,-403.18587 c -3.2059,-4.58343 -4.5045,-4.80255 0.061,-9.4225 4.5654,-4.61994 25.9515,-30.49529 27.0877,-31.3718 1.1363,-0.87651 7.7713,-2.77561 9.922,-4.38256 2.1508,-1.60692 7.9133,-7.15817 13.3715,-7.17642 5.4581,-0.0183 29.908,-0.0731 29.908,-0.0731 0,0 -1.6638,-16.61718 2.2319,-21.31017 3.8958,-4.693 19.9071,-12.96932 23.0116,-12.31194 3.1044,0.65739 6.5944,8.98425 10.8554,10.64596 4.2609,1.66172 20.8179,7.88861 20.8179,7.88861 0,0 -18.3019,12.1616 -19.5803,14.46244 -1.2782,2.30082 -2.8812,5.78861 -2.8812,5.78861 0,0 17.9976,2.00869 21.305,3.19561 3.3073,1.18695 15.5221,8.78337 18.5657,10.64596 3.0435,1.86259 3.7537,3.88951 9.5162,4.89386 5.7625,1.00434 8.948,3.5791 6.4929,8.16251 -2.4551,4.58343 -16.3135,30.42224 -17.6324,33.12482 -1.3188,2.70256 -2.5971,7.03035 -3.4087,6.86602 -0.8117,-0.16436 -13.4729,5.47817 -20.4122,7.12163 -6.9393,1.64346 -90.3532,-3.98081 -95.9534,-5.86166 -5.6001,-1.88084 -29.8312,-11.00264 -33.2784,-20.88592 z" fill="#FFFFFF" paint-order="markers stroke fill" transform="translate(73.6619,102.66892) translate(1345.1684,388.5376)"/>
    <path d="m -1305.6035,-374.86503 c -8.3309,-0.57182 -20.3596,-1.60913 -26.7304,-2.30497 -6.3706,-0.69559 -18.1991,-1.26993 -26.2848,-1.27574 -12.8909,0 -17.1489,-1.32872 -24.571,-3.30787 -12.9604,-3.45644 -18.0368,-6.28297 -27.3987,-15.25532 -4.5329,-4.34423 -8.2419,-8.43361 -8.2419,-9.08701 0,-1.62252 3.3424,-6.49499 9.5981,-13.38439 2.8921,-3.18544 8.9993,-10.47086 13.5716,-16.18958 7.6905,-9.61918 8.6983,-10.54183 13.4567,-12.31943 2.8291,-1.05701 5.7449,-2.48605 6.5043,-3.14856 10.436,-9.10461 19.2755,-5.51424 37.5019,-6.66939 2.7348,-0.17334 3.786,0.8363 3.8116,-3.1185 0.039,-6.11165 2.0868,-13.5531 4.9075,-17.65284 4.4981,-6.53782 14.1601,-12.54867 21.6474,-12.62698 3.2138,-0.0329 5.5479,0.82808 6.5537,2.92619 1.9304,4.02775 10.0578,8.87409 18.5298,11.04924 12.218,3.13694 13.9404,5.32098 3.209,12.55867 -3.9707,2.67826 -7.7818,5.30656 -9.9893,7.75677 -5.9397,5.55475 -2.5936,4.58135 3.9005,5.15851 9.6853,0.86078 17.2376,5.46394 22.0535,7.92071 1.9733,1.00674 5.598,3.79866 8.0548,6.20416 3.4743,3.40213 8.1414,4.24487 11.114,4.69066 6.0433,0.90623 6.1466,1.07393 5.1416,8.32677 -0.7848,5.66241 -3.3343,8.20758 -9.2456,17.85834 -6.1753,10.08216 -10.3104,20.00796 -9.1307,21.91689 0.8037,1.30024 -0.8907,4.14861 -2.8132,3.5384 -1.2284,-0.38997 -4.5516,0.23901 -8.2679,2.77558 -2.947,2.01174 -6.6773,4.0361 -8.2889,4.4983 -9.4085,0.25542 -20.7372,-0.29381 -28.5936,-0.83861 z m 32.5941,-6.68082 c 2.7136,-1.01533 4.9341,-2.17161 4.9341,-2.56966 0,-0.3978 -2.3055,-1.62732 -5.1233,-2.73207 -2.8178,-1.10474 -6.5268,-2.93084 -8.2418,-4.05806 -4.1371,-2.71869 -13.8015,-5.24869 -28.6201,-7.49253 -10.3459,-1.56645 -16.1301,-1.82711 -39.2046,-1.76598 -21.5035,0.0581 -27.8135,-0.19449 -30.6926,-1.2184 -8.6012,-3.06118 -13.5015,-3.51883 -20.1739,-1.88369 l -6.2779,1.53841 4.7913,4.33111 c 5.9733,5.39972 14.9866,9.84776 24.8389,12.25829 6.4055,1.56721 12.4417,2.00315 39.1344,2.82553 17.3585,0.53494 33.9982,1.29064 36.9772,1.67959 11.0574,1.4442 22.3559,1.07116 27.6583,-0.91254 z m 11.9634,-10.40543 c 1.0515,-5.26132 2.7109,-8.6233 10.5664,-21.40947 3.8077,-6.19785 6.6113,-13.8485 5.4365,-14.83554 -0.1718,-0.14397 -2.0152,-0.52259 -4.098,-0.84158 -3.5074,-0.53722 -3.788,-0.43114 -3.8019,1.43537 0,1.10853 -1.4389,5.42346 -3.1794,9.58887 -1.7405,4.16566 -4.0997,9.85382 -5.2429,12.6407 -2.0897,5.09538 -6.5931,11.8307 -7.3822,11.04166 -0.2323,-0.23237 0.8664,-3.52211 2.443,-7.30916 2.0903,-5.02087 2.7333,-7.70747 2.3742,-9.91974 -0.3963,-2.44237 -0.2636,-2.84396 0.6816,-2.05973 1.9211,1.59449 3.4393,-0.95547 2.3207,-3.89768 -1.3652,-3.59106 -1.1048,-4.5122 0.7913,-2.79647 1.6215,1.46744 1.7296,1.45001 2.3079,-0.37178 0.3336,-1.05121 0.3649,-2.87427 0.071,-4.051 -0.4179,-1.66571 -0.2399,-2.02486 0.8106,-1.62227 1.0477,0.4021 1.3477,-0.19195 1.3477,-2.66589 0,-7.44479 -9.7476,-13.57041 -27.0829,-17.01978 -6.256,-1.24492 -12.2804,-2.26329 -13.3874,-2.26329 -2.1825,0 -3.5886,2.26304 -4.5327,7.29552 -0.5329,2.84092 1.4825,3.10075 4.9298,4.62173 7.2126,3.18215 5.6661,10.51999 -1.0831,13.89258 -3.6875,1.84275 -14.9572,2.06477 -33.8574,0.66653 -23.2403,-1.71925 -30.9534,-4.71111 -32.0308,-9.00381 -1.2386,-4.936 5.6137,-9.61044 15.2496,-9.32907 5.2224,0.15154 7.1138,0.71258 8.1119,-0.65262 1.3637,-1.86473 4.5248,-9.60318 4.5252,-11.24389 3e-4,-1.38283 -22.256,-1.26556 -28.9698,0.17005 -5.0309,1.07671 -10.4039,4.35736 -12.5834,7.68347 -1.3175,2.01073 -1.294,2.13549 0.4034,2.13549 2.7077,0 2.1698,1.41365 -1.0449,2.74521 -4.3045,1.78315 -8.6038,5.96371 -11.004,10.70043 -1.9595,3.86688 -2.0148,4.28186 -0.611,4.59706 1.0867,0.245 0.5557,0.77565 -1.7986,1.79881 -1.8376,0.79864 -3.3413,1.87358 -3.3413,2.38858 0,0.51499 0.3006,0.88904 0.6684,0.83095 3.1418,-0.49605 2.5247,0.57916 -1.3407,2.33579 -3.5383,1.60787 -5.2792,3.11168 -7.1281,6.15743 -2.5371,4.17956 -3.783,5.07341 -3.783,2.7144 0,-2.34765 3.2506,-7.88503 7.3294,-12.48512 2.1497,-2.42469 5.7617,-7.21547 8.0265,-10.64589 2.2645,-3.43017 5.7504,-7.82188 7.7461,-9.75911 4.2104,-4.08661 4.6672,-5.52802 1.1785,-3.71532 -2.6277,1.36539 -10.036,9.72577 -23.7751,26.83117 -7.8931,9.82729 -8.4536,10.77823 -6.9932,11.8643 1.6751,1.24593 3.7726,1.10878 11.9907,-0.78424 4.4432,-1.02342 6.0108,-0.96433 12.9194,0.48796 6.3439,1.33332 13.8012,1.76825 38.6028,2.25168 27.662,0.53924 32.0337,0.83223 43.6597,2.92781 13.7859,2.48479 18.1572,3.76331 24.7826,7.24855 4.5478,2.3921 15.1556,6.63959 16.7566,6.7093 0.5489,0.0253 1.4586,-2.26227 2.0218,-5.07996 z m -44.9714,-35.19508 c 0.2223,-1.10273 0.6145,-5.25173 0.8697,-9.21987 0.2624,-4.08004 1.2878,-9.41662 2.3599,-12.2823 2.4634,-6.58378 9.526,-14.21548 17.4283,-18.83223 l 6.0733,-3.54838 -5.7927,-0.57662 c -3.186,-0.31724 -7.6686,-1.45835 -9.9613,-2.53606 -4.6164,-2.1701 -10.1196,-7.70395 -10.9497,-11.01086 -0.5018,-2.00012 -0.7726,-2.08675 -4.1474,-1.32853 -6.8377,1.53639 -12.5093,5.95105 -15.7968,12.07263 -2.5602,4.76627 -1.5158,6.75209 -2.72,17.68869 -0.6042,5.48762 -2.0047,9.80622 -3.7998,13.64203 -2.3578,5.0383 -2.9763,6.32274 -9.7165,10.69905 -2.9465,2.94863 -9.2112,4.49717 -2.2479,5.73828 10.975,1.95616 11.2245,1.2753 23.9789,1.38189 13.8644,0.11618 14.021,0.096 14.422,-1.88772 z m 7.2428,-0.14144 c 1.6919,-1.2371 1.6922,-1.28432 0.025,-3.13947 -1.9084,-2.10897 -3.1344,-1.18076 -3.1586,2.39084 -0.025,2.32139 0.7463,2.50299 3.1456,0.74863 z m -49.9376,-4.21871 3.5639,-3.60545 -3.5331,0.60692 c -3.3032,0.56753 -8.4955,2.72601 -8.4955,3.53197 0,0.8244 3.5741,2.61686 4.543,2.57671 0.5775,-0.0253 1.9613,-1.1272 3.9217,-3.11015 z" fill="#00B894" transform="translate(73.6619,102.66892) translate(1345.1684,388.5376)"/>
</svg>