<?xml version="1.0" ?><!-- Created with Inkscape (http://www.inkscape.org/) --><svg height="142.13535mm" id="svg31626" inkscape:version="1.2.1 (0b8a7e5fb6, 2022-09-14, custom)" sodipodi:docname="ban_sign.svg" version="1.1" viewBox="0 0 145.40839 142.13535" width="145.40839mm" xmlns="http://www.w3.org/2000/svg" xmlns:inkscape="http://www.inkscape.org/namespaces/inkscape" xmlns:sodipodi="http://sodipodi.sourceforge.net/DTD/sodipodi-0.dtd" xmlns:svg="http://www.w3.org/2000/svg">
  <sodipodi:namedview bordercolor="#666666" borderopacity="1.0" id="namedview31628" inkscape:current-layer="layer1" inkscape:cx="732.49166" inkscape:cy="549.36874" inkscape:deskcolor="#d1d1d1" inkscape:document-units="mm" inkscape:pagecheckerboard="0" inkscape:pageopacity="0.0" inkscape:showpageshadow="2" inkscape:window-height="1016" inkscape:window-maximized="1" inkscape:window-width="1866" inkscape:window-x="54" inkscape:window-y="27" inkscape:zoom="0.2102413" pagecolor="#ffffff" showgrid="false"/>
  <defs id="defs31623"/>
  <g id="layer1" inkscape:groupmode="layer" inkscape:label="Capa 1" transform="translate(119.26773,-3.182295)">
    <g id="g31603" transform="translate(-2383.356,1001.6946)">
      <path d="m 2337.5552,-995.01348 c -24.3131,-0.15016 -44.4053,12.51368 -53.6918,24.15925 -23.0984,28.87164 -19.1531,73.39856 6.0363,97.223 25.1896,23.82446 71.434,15.22718 93.6764,-3.89227 22.2427,-19.11946 39.8278,-73.22764 -2.2815,-102.69812 -15.133,-10.59095 -30.1004,-14.70763 -43.7394,-14.79186 z m 1.7353,13.76712 c 11.259,0.12381 28.5062,9.06611 28.5062,9.06611 l -30.4648,32.25074 -30.3227,-28.48663 c 6.7966,-4.61946 18.6309,-11.03536 29.5621,-12.66073 0.854,-0.12698 1.765,-0.17999 2.7192,-0.16949 z m 36.7285,19.63084 c 0,0 14.9711,18.17853 13.3077,33.57676 -1.6634,15.39825 -12.2618,31.43839 -12.2618,31.43839 l -30.703,-31.99443 z m -82.7929,3.25096 31.7009,30.15475 -27.9931,36.05775 c 0,0 -14.401,-20.40277 -13.593,-33.02072 0.808,-12.61798 9.8852,-33.19178 9.8852,-33.19178 z m 43.4402,43.50019 28.8494,32.25075 c 0,0 -15.7317,7.05745 -28.1838,7.05745 -12.452,0 -29.1816,-7.91322 -29.1816,-7.91322 z" fill="#00B894" id="path27752" style="fill:#ffffff;stroke-width:1.5;paint-order:markers stroke fill;stop-color:#000000"/>
      <path d="m 2341.1852,-998.50431 c -17.1312,-0.2133 -36.1009,3.8041 -50.1406,16.5384 -13.9751,12.6758 -21.3842,22.7774 -25.3977,37.4926 -4.8884,17.9223 2.2095,46.9684 14.4873,62.7867 14.8583,19.1431 46.7927,31.8302 78.0116,21.7736 11.0597,-3.5626 18.142,-8.6398 26.7591,-16.4504 10.8802,-9.8617 19.8244,-24.5223 22.4118,-36.7372 3.6375,-17.1725 2.4571,-28.9782 -1.5761,-39.0403 -3.5758,-8.9203 -14.2584,-23.4769 -22.8798,-30.6458 -12.6508,-10.5194 -23.3756,-14.9487 -38.2757,-15.6191 -1.1238,-0.05 -2.2579,-0.084 -3.3999,-0.098 z m 2.8838,5.9412 c 1.6297,-0.023 3.2889,-0.023 4.9797,0 9.8011,0.143 22.8373,7.3948 33.0194,16.9385 7.8623,7.3694 14.8509,18.4012 18.1722,27.7514 3.0286,8.5263 4.0655,21.7411 2.2422,32.2008 -3.0233,17.3441 -17.4716,36.622 -33.5189,45.0192 -22.3047,11.6716 -61.3336,10.134 -83.3503,-14.4344 -16.6074,-18.5324 -20.7698,-49.5002 -6.8256,-74.0103 1.1431,-2.009 4.3651,-6.0177 6.9745,-9.0068 16.1118,-18.4568 33.8605,-24.1516 58.3068,-24.4654 z m -5.1707,7.6183 c -5.5266,0.061 -11.2265,1.1954 -17.377,3.3895 -6.849,2.4433 -13.4895,7.22313 -16.7993,9.61228 -2.8526,2.05907 -1.7096,3.02408 -1.1711,3.76542 0.7354,1.01251 30.4892,31.6734 31.7857,31.7061 1.6885,0.043 34.2947,-31.8924 34.9158,-34.197 0.7287,-2.7029 -1.905,-5.0441 -10.3133,-9.17 -7.1172,-3.4922 -13.9354,-5.1855 -21.0408,-5.1063 z m -0.4773,6.9852 c 8.3246,-0.093 17.3609,1.9506 22.3789,5.4181 l 1.9842,1.371 -8.6128,8.4709 c -4.7371,4.6588 -10.6165,10.8064 -13.2607,13.4754 -5.1869,5.23558 -5.248,4.45069 -10.5888,-0.495 -3.2674,-3.02575 -9.1584,-8.3185 -13.0904,-11.7605 -3.9323,-3.4423 -7.1493,-6.5297 -7.1493,-6.8608 0,-1.1286 15.0992,-7.6236 20.4263,-8.7864 2.4417,-0.5331 5.1375,-0.8014 7.9126,-0.8327 z m 36.9377,13.8282 c -0.9201,0.023 -1.6783,0.4939 -2.3128,1.4155 -0.7008,1.0183 -5.3183,6.3041 -10.2618,11.7465 -4.9433,5.4423 -11.2769,12.6889 -14.0756,16.1033 -2.7985,3.4144 -5.0972,6.5213 -5.1074,6.9053 0,0.384 2.0954,2.9946 4.6794,5.8005 2.584,2.806 9.2943,10.4808 14.9119,17.0556 8.8865,10.4016 10.5318,11.9671 12.6647,12.0456 1.9505,0.073 3.0835,-0.6595 5.5449,-3.578 4.2561,-5.047 7.5927,-12.1359 9.6565,-20.5177 1.4253,-5.788 1.6608,-8.6024 1.3018,-15.5217 -0.66,-12.716 -3.8356,-20.8057 -10.8705,-27.6892 -2.6144,-2.5583 -4.5981,-3.7965 -6.1311,-3.7657 z m -81.2685,2.7009 c -0.5706,0 -1.1799,0.2574 -2.0384,0.6861 -2.6626,1.3294 -7.831,12.309 -10.6018,22.5229 -1.7221,6.3475 -2.0384,16.9014 -0.7212,24.0538 1.1853,6.4366 5.6788,15.5135 9.9322,20.0638 5.4451,5.8254 6.2199,5.7655 11.9728,-0.9183 11.7462,-13.6471 26.2419,-31.6507 26.2419,-32.5939 0,-1.7186 -12.9511,-15.6218 -21.1368,-22.6907 -4.2445,-3.6653 -8.8177,-7.6825 -10.1622,-8.9271 -1.6948,-1.5691 -2.5358,-2.2132 -3.4865,-2.1966 z m 82.9971,4.3451 c 1.4999,0.246 6.9511,10.9333 8.0641,16.0963 1.6247,7.5383 1.1585,17.6156 -1.1776,25.4563 -1.7502,5.8736 -6.2633,15.3492 -7.2982,15.3234 -0.1588,0 -4.8641,-5.2554 -10.4599,-11.6703 -5.5958,-6.415 -11.1396,-12.5612 -12.3188,-13.6582 -1.1792,-1.0971 -2.1358,-2.3823 -2.1263,-2.8557 0.023,-0.9892 3.3559,-4.8809 15.8853,-18.5333 4.9104,-5.3506 9.0443,-9.8791 9.1863,-10.0636 0.064,-0.082 0.1453,-0.1112 0.2451,-0.095 z m -82.3133,2.9789 c 1.0226,-0.086 2.9873,1.8532 9.6483,8.6913 5.1456,5.2824 11.1408,11.5055 13.3215,13.8283 l 3.9652,4.2218 -7.2432,8.9156 c -3.9836,4.9029 -9.6168,12.0022 -12.5181,15.7772 -2.9013,3.7751 -5.476,6.8599 -5.722,6.8538 -0.735,-0.023 -6.1688,-9.1082 -7.6124,-12.7341 -0.7378,-1.8528 -1.7239,-6.3713 -2.1921,-10.0412 -0.4679,-3.67 -0.8172,-7.4016 -0.775,-8.2926 0.2812,-5.9356 5.5364,-22.7965 8.2797,-26.5658 0.2707,-0.3718 0.507,-0.6259 0.8481,-0.6543 z m 41.9347,34.4982 c -1.4109,0 -14.369,14.2547 -23.3266,25.6766 -4.5116,5.7531 -8.2022,11.1158 -8.2022,11.9167 0,1.8212 4.8711,4.2584 14.3865,7.1985 12.9502,4.0015 29.0651,3.13 40.3305,-2.1814 4.2377,-1.998 9.0149,-6.0974 9.0149,-7.7357 0,-0.5605 -1.1692,-2.6332 -2.5987,-4.6065 -3.3338,-4.6016 -28.4304,-30.2609 -29.6044,-30.2682 z m -1.0203,7.8963 3.6286,3.5277 c 1.996,1.9401 14.7131,15.53236 19.9063,21.15254 2.7212,2.5972 1.6093,3.24444 -2.323,4.93826 -11.0157,4.7459 -24.5206,5.1716 -38.8515,1.2243 -3.9323,-1.0832 -7.1506,-2.195 -7.1447,-2.4712 0,-0.5544 2.5665,-3.524 15.8267,-18.3537 z" fill="#00B894" id="path1064" sodipodi:nodetypes="ssssssssssssccsssssssccsssssssscscssssssccssscsscssssccsssssssscssscsscsssscsccsscssssccssssssccsccscsc" style="fill:#000000;stroke-width:0.808806"/>
    </g>
  </g>
</svg>