<?xml version="1.0" ?><!-- Created with Inkscape (http://www.inkscape.org/) --><svg height="144.24336mm" id="svg36009" inkscape:version="1.2.1 (0b8a7e5fb6, 2022-09-14, custom)" sodipodi:docname="ban_sign_2.svg" version="1.1" viewBox="0 0 146.16483 144.24336" width="146.16483mm" xmlns="http://www.w3.org/2000/svg" xmlns:inkscape="http://www.inkscape.org/namespaces/inkscape" xmlns:sodipodi="http://sodipodi.sourceforge.net/DTD/sodipodi-0.dtd" xmlns:svg="http://www.w3.org/2000/svg">
  <sodipodi:namedview bordercolor="#666666" borderopacity="1.0" id="namedview36011" inkscape:current-layer="layer1" inkscape:cx="-1193.8663" inkscape:cy="967.93541" inkscape:deskcolor="#d1d1d1" inkscape:document-units="mm" inkscape:pagecheckerboard="0" inkscape:pageopacity="0.0" inkscape:showpageshadow="2" inkscape:window-height="1016" inkscape:window-maximized="1" inkscape:window-width="1866" inkscape:window-x="54" inkscape:window-y="27" inkscape:zoom="0.2102413" pagecolor="#ffffff" showgrid="false"/>
  <defs id="defs36006"/>
  <g id="layer1" inkscape:groupmode="layer" inkscape:label="Capa 1" transform="translate(-390.03622,107.35897)">
    <g id="g32890" transform="translate(-2050.0633,891.84554)">
      <path d="m 2518.0046,-995.67081 c -26.2951,-0.0382 -51.184,15.82566 -57.5965,23.72465 -23.6647,28.85475 -19.8782,77.79818 7.2678,98.02399 27.146,20.22581 74.4757,20.44556 96.0029,-6.89777 21.5276,-27.34331 29.5279,-62.84834 -5.6487,-98.271 -12.0921,-12.17654 -26.2518,-16.55986 -40.0255,-16.57987 z m -3.4132,14.32574 c 16.8865,-0.008 28.0184,9.78339 28.0184,9.78339 l -73.01,79.44683 c -2.5235,1.1091 -29.9349,-37.58335 6.8394,-71.97184 14.1379,-13.22064 27.3275,-17.253 38.1522,-17.25838 z m 40.1407,22.15007 c 0,0 29.4972,38.41802 -0.6413,68.39945 -30.1384,29.98144 -71.8799,9.86554 -71.8799,9.86554 0,0 25.2831,-29.9265 31.1764,-38.19818 5.8933,-8.27168 41.3448,-40.06681 41.3448,-40.06681 z" fill="#00B894" id="path32885" style="fill:#ffffff;stroke-width:1.5;paint-order:markers stroke fill;stop-color:#000000"/>
      <path d="m 2511.4679,-999.0415 c -17.9426,1.4085 -39.5277,9.01098 -52.5762,24.45508 -12.1765,14.4122 -16.4067,25.42774 -18.4394,40.54414 -2.476,18.4116 8.399,46.2642 22.6602,60.3205 17.2588,17.0107 51.5568,25.85068 81.1721,11.75508 10.4917,-4.9935 17.129,-10.72796 24.3503,-19.8446 17.9657,-22.68088 23.9599,-54.42212 9.6686,-78.35338 -15.4658,-25.8981 -42.5837,-40.78062 -66.8356,-38.87682 z m 40.2664,18.73682 c 8.8472,6.15235 17.153,16.2767 21.681,25.1056 4.1295,8.0514 6.9041,21.0127 6.4798,31.6215 -0.704,17.5919 -12.5658,38.4845 -27.273,49.0549 -19.1315,13.7502 -37.7728,16.2656 -60.7097,8.1918 -10.5664,-3.7196 -16.7441,-4.8405 -23.8168,-11.4791 -18.1438,-17.0309 -28.8194,-47.06868 -16.55,-72.4587 19.2413,-39.81759 65.3152,-54.28702 100.1887,-30.036 z m -32.664,-4.1481 c -9.6509,-0.2088 -21.0211,2.8082 -32.8892,8.8334 -7.9721,4.0473 -15.2342,10.1172 -21.0326,17.5787 -4.6197,5.9449 -6.3495,9.3393 -8.2329,16.156 -3.0395,11.0019 -1.912,30.5853 2.2599,39.2612 2.7361,5.6895 8.4251,13.9226 9.8079,14.194 2.3546,0.4619 5.3807,-2.2517 14.4828,-12.9851 11.5542,-13.6256 24.0569,-27.4661 40.0665,-44.3542 7.0964,-7.4858 14.443,-15.5102 16.3262,-17.832 1.8832,-2.3217 4.1547,-4.8814 5.0487,-5.688 0.8941,-0.8065 1.6562,-2.0084 1.6959,-2.6704 0.1634,-2.7903 -9.4858,-8.6319 -18.5006,-11.2012 -2.7894,-0.795 -5.8157,-1.2225 -9.0326,-1.2924 z m -2.572,6.9429 c 2.8974,0 5.5838,0.3368 7.9774,1.0156 5.6314,1.5972 11.534,4.5643 12.0642,6.0633 0.435,1.2301 -2.2609,4.3853 -17.1671,20.0942 -14.4803,15.2598 -28.2397,30.7861 -38.7226,43.6941 -5.0379,6.2035 -9.4613,11.5896 -9.8313,11.9682 -10.0362,-8.0525 -12.7697,-37.0932 -7.4143,-48.078 4.5984,-9.4318 13.3215,-20.893 23.5374,-26.3404 10.2743,-5.4783 20.8643,-8.4292 29.5563,-8.417 z m 37.8994,15.5499 c -2.6897,0.023 -6.0912,3.2873 -13.0577,10.5443 -5.4442,5.6714 -13.7373,14.1816 -18.43,18.9109 -14.4569,14.5699 -26.3026,27.5312 -34.4386,37.6814 -4.2836,5.3439 -8.1348,9.8508 -8.5576,10.0153 -1.0315,0.4017 -1.1742,3.7807 -0.2358,5.5801 0.4157,0.7971 2.9616,2.4113 5.6575,3.5865 12.6547,5.5161 33.8934,6.7868 45.8918,2.7465 16.0432,-5.4592 25.3357,-11.5727 34.3046,-30.5145 8.1442,-17.4716 6.3134,-37.687 -4.8047,-53.0584 -2.5756,-3.561 -4.2375,-5.5085 -6.3295,-5.4921 z m 0.6039,5.7065 c 1.5138,0.2481 7.7064,14.2717 8.9578,20.2855 1.6517,7.939 1.0805,17.5216 -1.5271,25.6006 -5.6977,16.6755 -16.3104,27.1386 -33.3923,32.0987 -10.0914,2.5872 -28.3101,1.3077 -37.6226,-2.6423 v 0 c -2.786,-1.1819 -5.0525,-2.3439 -5.0404,-2.5813 0.045,-0.7732 14.0576,-17.1652 20.7205,-24.2386 3.5749,-3.7953 11.7889,-12.2149 18.2542,-18.7094 6.4652,-6.4945 15.6009,-15.8892 20.3018,-20.8765 4.7007,-4.9876 8.9081,-9.0088 9.3495,-8.9367 z" fill="#00B894" id="path1062" sodipodi:nodetypes="sssssssssssssssscssssssssscsccsssscssccssssssccsccsccsscssscc" style="fill:#000000;stroke-width:0.790546"/>
    </g>
  </g>
</svg>