<?xml version="1.0" ?><!-- Created with Inkscape (http://www.inkscape.org/) --><svg height="127.50076mm" id="svg39303" inkscape:version="1.2.1 (0b8a7e5fb6, 2022-09-14, custom)" sodipodi:docname="ban_sign_line.svg" version="1.1" viewBox="0 0 130.37091 127.50076" width="130.37091mm" xmlns="http://www.w3.org/2000/svg" xmlns:inkscape="http://www.inkscape.org/namespaces/inkscape" xmlns:sodipodi="http://sodipodi.sourceforge.net/DTD/sodipodi-0.dtd" xmlns:svg="http://www.w3.org/2000/svg">
  <sodipodi:namedview bordercolor="#666666" borderopacity="1.0" id="namedview39305" inkscape:current-layer="layer1" inkscape:cx="-156.9625" inkscape:cy="54.699052" inkscape:deskcolor="#d1d1d1" inkscape:document-units="mm" inkscape:pagecheckerboard="0" inkscape:pageopacity="0.0" inkscape:showpageshadow="2" inkscape:window-height="1016" inkscape:window-maximized="1" inkscape:window-width="1866" inkscape:window-x="54" inkscape:window-y="27" inkscape:zoom="0.2102413" pagecolor="#ffffff" showgrid="false"/>
  <defs id="defs39300"/>
  <g id="layer1" inkscape:groupmode="layer" inkscape:label="Capa 1" transform="translate(-116.03486,-135.08857)">
    <path d="m 184.855,135.08967 c -1.3444,-0.009 -2.6822,0.0374 -4.0101,0.14159 -15.719,1.23395 -35.4271,8.70208 -46.8586,22.23223 -10.6675,12.62615 -15.8616,23.13145 -17.6424,36.37453 -2.1691,16.1299 7.3582,40.531 19.852,52.84535 15.1199,14.90262 47.5558,21.90789 73.501,9.55911 9.1915,-4.37467 15.0067,-9.39866 21.3331,-17.3855 15.7391,-19.87011 20.8882,-48.60129 8.3679,-69.56682 -12.7023,-21.27059 -34.3767,-34.05929 -54.5429,-34.20049 z m -1.5984,6.99337 c 10.9606,0.0806 22.042,3.39971 32.0668,10.37094 1.6791,1.16765 3.333,2.50538 4.9387,3.95273 -5.154,5.05701 -34.0612,35.20307 -39.3459,41.07811 -5.4294,6.0359 -33.4053,35.51919 -40.1273,43.5343 -15.1187,-15.10401 -23.6993,-40.60397 -13.2384,-62.2515 11.3256,-23.43709 33.263,-36.84967 55.7061,-36.68458 z m 41.7463,19.07584 c 3.8139,4.24276 7.0866,8.94473 9.3147,13.28911 3.6177,7.05361 6.0485,18.40913 5.6767,27.70322 -0.6167,15.41178 -11.0086,33.71522 -23.8932,42.97567 -16.7605,12.04618 -34.8771,14.67741 -52.7931,8.8129 -7.8868,-2.58163 -13.2047,-5.00709 -18.4056,-9.20874 8.0621,-7.43796 35.3602,-36.22268 41.768,-43.43663 7.0033,-7.88439 35.3309,-37.04707 38.3325,-40.13553 z" fill="#00B894" id="path37287" style="fill:#000000;stroke-width:0.692577"/>
  </g>
</svg>