<?xml version="1.0" ?><svg height="250.15933mm" viewBox="0 0 312.78857 250.15933" width="312.78857mm" xmlns="http://www.w3.org/2000/svg">
    <path d="m 14740.91,19742.992 c -23.626,-0.363 -50.795,7.309 -68.578,24.949 0,0 -19.168,3.956 -8.52,81.825 10.65,77.87 93.581,78.588 93.581,78.588 0,0 64.429,-26.715 68.023,-71.52 3.594,-44.805 -23.696,-84.817 -45.127,-102.428 -8.707,-7.154 -23.214,-11.165 -39.379,-11.414 z m 262.58,94.09 c -29.418,-0.135 -56.541,2.859 -75.31,6.813 -37.539,7.907 -50.983,24.081 -72.016,77.152 -10.516,40.612 11.315,47.799 34.744,54.148 23.428,6.35 125.927,4.672 158.274,17.85 32.347,13.178 32.215,74.876 69.754,80.746 37.538,5.87 69.486,-35.702 79.07,-98.477 9.585,-62.775 -49.52,-109.136 -105.428,-126.267 -27.954,-8.566 -59.669,-11.83 -89.088,-11.965 z m 479.678,452.863 c -6.107,-0.08 -13.795,2.951 -19.053,9.061 -10.516,12.22 -52.847,47.559 -77.207,60.976 19.834,-0.12 35.143,-0.119 15.934,20.58 -19.208,20.699 2.304,16.68 21.074,14.403 18.769,-2.276 55.027,-33.822 55.027,-33.822 0,0 45.473,5.67 65.707,4.951 20.233,-0.719 42.198,-16.772 44.461,-28.033 2.263,-11.261 -42.065,-4.073 -79.205,-8.985 -37.139,-4.912 -19.301,-17.013 -17.172,-29.592 1.065,-6.289 -3.46,-9.464 -9.566,-9.539 z" fill="#FFFFFF" transform="translate(50.560921,-23.087001) matrix(0.26458333,0,0,0.26458333,-3013.6889,-4485.3416) translate(-3313.5291,-2437.8203)"/>
    <path d="m 11699.143,17983.154 c -7.964,-1.432 -20.065,-6.348 -26.891,-10.925 -23.777,-14.473 -9.318,-24.309 -25.517,-33.739 -8.469,-4.533 -36.755,-1.474 -59.738,7.284 -25.365,9.665 -31.209,6.57 -20.168,-2.009 6.362,-4.943 52.902,-17.409 66.761,-17.409 18.297,-0.369 24.823,6.409 33.142,17.298 5.054,6.568 5.698,6.659 16.156,2.29 l 10.892,-4.551 -1.53,-17.229 c -0.842,-9.477 -2.05,-18.908 -2.683,-20.963 -1.859,-6.022 -23.26,-4.334 -71.557,5.646 -37.222,7.694 -53.931,9.509 -98.6,10.715 -34.778,3.825 -47.531,-1.907 -1.493,-6.387 27.114,-2.615 67.451,-8.797 89.636,-13.741 79.681,-17.755 95.613,-15.783 95.613,11.841 0,17.288 5.084,23.96 16.582,21.762 4.797,-0.917 8.917,0.02 10.375,2.392 3.56,5.762 43.019,-2.68 100.729,-21.548 44.063,-14.404 49.131,-15.594 78.478,-15.653 40.228,-0.08 43.579,6.86 67.181,20.619 51.472,19.772 49.458,24.948 21.433,21.671 -15.009,-1.755 -21.446,8.431 -17.803,10.683 1.712,1.058 19.605,3.489 39.764,5.403 35.418,3.361 36.815,3.274 41.471,-2.588 2.651,-3.335 8.852,-8.182 13.782,-10.766 l 8.964,-4.701 -17.927,-0.135 c -22.305,-0.179 -37.834,-4.336 -44.783,-12.015 -7.969,-8.805 -1.022,-16.162 13.098,-13.871 13.818,2.243 49.49,-5.889 65.052,-14.831 6.848,-3.935 18.948,-14.768 26.89,-24.077 7.942,-9.306 19.526,-19.204 25.742,-21.992 7.986,-3.583 13.245,-8.923 17.927,-18.205 7.572,-15.01 17.586,-18.875 22.947,-8.858 2.51,4.688 2.211,8.199 -1.27,14.931 -2.504,4.84 -5.91,9.641 -7.569,10.664 -1.972,1.219 -2.017,3.734 -0.128,7.261 1.925,3.595 1.723,8.48 -0.604,14.645 -1.919,5.086 -2.73,10.007 -1.801,10.937 2.823,2.824 26.17,4.774 60.786,5.076 34.808,0.305 43.324,2.429 43.324,10.801 0,8.713 -14.983,27.813 -24.945,31.803 -5.178,2.073 -22.465,4.057 -38.415,4.403 -23.793,0.521 -31.517,-0.479 -43.016,-5.566 l -14.016,-6.198 -9.83,11.482 c -5.8,6.779 -17.562,15.057 -28.694,20.195 -16.418,7.582 -22.629,8.763 -47.934,9.119 -15.989,0.224 -32.576,1.286 -36.859,2.362 -11.542,2.897 -64.392,-3.68 -84.121,-10.468 -9.45,-3.251 -22.055,-9.286 -28.009,-13.411 l -10.825,-7.503 -23.192,4.789 c -12.755,2.635 -40.173,10.857 -60.928,18.27 -68.867,24.597 -103.083,30.893 -135.877,25 z m 58.229,-16.549 c 19.412,-4.085 56.443,-21.204 60.675,-28.05 0.882,-1.427 -6.286,-0.134 -15.928,2.862 -9.642,3.001 -25.712,6.94 -35.711,8.754 -16.214,2.94 -51.291,16.432 -51.291,19.731 0,2.736 21.565,1.055 42.255,-3.297 z m -42.567,-5.557 13.135,-6.871 -13.551,-3.413 c -10.061,-2.532 -16.136,-2.548 -23.592,-0.07 -14.812,4.951 -16.135,7.465 -6.636,12.61 11.328,6.138 15.108,5.858 30.644,-2.27 z m 406.129,-19.479 c 12.781,-6.519 33.403,-25.196 33.403,-30.252 0,-1.588 2.689,-2.889 5.976,-2.889 3.287,0 5.975,1.924 5.975,4.272 0,7.292 29.162,11.603 51.314,7.587 19.68,-3.569 38.324,-10.144 38.324,-13.519 0,-1.08 -1.852,-1.255 -4.114,-0.388 -6.164,2.367 -67.862,-3.45 -77.307,-7.29 -6.3,-2.558 -8.217,-5.353 -8.217,-11.979 0,-4.753 1.647,-11.279 3.66,-14.501 2.855,-4.572 2.869,-6.653 0.06,-9.462 -5.553,-5.552 -17.132,2.105 -29.763,19.687 -10.668,14.848 -19.716,23.547 -31.972,30.741 -5.3,3.111 -4.117,3.384 7.969,1.835 21.382,-2.738 18.579,4.861 -8.118,22.01 -12.271,7.884 -22.355,15.282 -22.409,16.442 -0.125,2.653 19.014,-4.026 35.219,-12.294 z m -255.412,-7.694 c 41.327,-10.484 55.591,-10.52 70.523,-0.18 9.72,6.736 13.914,7.922 22.397,6.331 5.74,-1.077 11.169,-3.145 12.065,-4.594 3.264,-5.28 -30.918,-21.569 -48.612,-23.162 -21.975,-1.98 -54.281,5.846 -73.069,17.698 -21.527,13.58 -21.501,13.587 16.696,3.897 z m 115.518,4.434 c 0,-1.645 -0.593,-2.99 -1.318,-2.99 -0.724,0 -2.149,1.345 -3.164,2.99 -1.016,1.642 -0.423,2.988 1.318,2.988 1.739,0 3.164,-1.346 3.164,-2.988 z m 67.227,-54.154 c -18.076,-10.042 -42.898,-25.159 -55.158,-33.594 -39.274,-27.018 -133.498,-126.381 -167.184,-176.302 -12.042,-17.844 -16.941,-22.788 -22.585,-22.788 -9.957,0 -26.511,-10.319 -35.536,-22.153 -4.148,-5.439 -13.134,-20.83 -19.968,-34.202 -13.633,-26.67 -24.81,-38.164 -39.529,-40.636 -5.293,-0.89 -37.319,-1.952 -71.169,-2.359 l -61.548,-0.744 -11.656,23.903 c -15.35,31.476 -45.769,63.122 -73.105,76.055 -34.319,16.235 -58.124,12.092 -121.103,-21.083 -21.524,-11.336 -39.976,-20.612 -41.008,-20.612 -1.03,0 -4.055,4.22 -6.72,9.374 -6.766,13.085 -18.174,23.115 -35.643,31.339 -23.328,10.985 -68.03,10.745 -46.406,-0.437 4.984,-2.577 26.983,-7.863 26.98,-8.233 0,-0.367 -8.498,-0.693 -18.88,-0.719 -20.139,-0.05 -48.825,-6.955 -48.825,-15.69 0,-3.62 2.876,-4.531 12.698,-4.013 6.984,0.37 31.333,0.863 37.084,0.522 10.366,-0.596 10.331,-0.637 -3.982,-4.482 -14.969,-4.025 -31.076,-9.485 -36.455,-18.012 -4.792,-7.597 -9.598,-24.159 16.443,-6.123 6.135,4.249 15.986,4.516 19.888,4.516 6.657,0 6.358,-0.738 -4.857,-11.953 -7.569,-7.568 -10.57,-14.895 -11.952,-19.42 -4.624,-15.137 6.475,-18.275 13.562,-3.181 12.408,26.431 50.78,27.977 54.546,24.209 0.67,-0.668 -2.121,-5.674 -6.202,-11.121 -16.428,-21.939 -21.346,-38.293 -11.515,-38.293 8.769,0 19.837,10.414 34.483,32.444 13.114,19.727 14.046,20.455 30.805,24.097 9.505,2.064 33.416,10.866 53.136,19.556 40.026,17.643 54.503,20.897 71.766,16.13 22.817,-6.299 55.237,-34.037 77.315,-66.152 l 11.636,-16.925 -10.579,-11.709 c -5.817,-6.44 -11.447,-15.666 -12.509,-20.502 -3.776,-17.192 9.121,-53.684 27.494,-77.794 8.728,-11.45 33.951,-30.613 40.299,-30.613 2.437,0 7.929,-5.286 12.205,-11.746 4.276,-6.462 13.546,-18.246 20.6,-26.188 16.919,-19.05 50.261,-67.117 60.187,-86.766 4.347,-8.605 17.167,-41.652 28.489,-73.439 11.322,-31.788 24.65,-65.848 29.617,-75.688 6.16,-12.201 8.17,-19.253 6.322,-22.173 -4.422,-6.99 -3.172,-35.461 2.038,-46.443 5.98,-12.599 20.706,-25.397 26.616,-23.129 5.817,2.232 5.561,8.401 -0.761,18.335 -4.646,7.301 -3.971,7.057 6.744,-2.429 20.735,-18.36 40.248,-22.734 40.248,-9.025 0,4.191 -4.369,8.234 -14.38,13.308 -7.91,4.006 -16.313,9.626 -18.674,12.488 -4.931,5.97 -3.927,5.65 17.386,-5.559 17.141,-9.015 40.603,-13.721 43.669,-8.763 3.823,6.188 -1.581,11.299 -16.85,15.942 l -15.632,4.754 16.523,-1.423 c 13.106,-1.13 17.396,-0.373 20.742,3.659 6.833,8.233 0.227,14.803 -16.66,16.569 -8.645,0.905 -21.18,5.327 -30.642,10.808 l -16.012,9.278 16.91,1.402 c 19.472,1.614 28.988,8.247 23.749,16.552 -7.299,11.571 -50.687,11.812 -65.244,0.36 l -7.618,-5.992 -2.61,6.934 c -8.856,23.518 -20.979,57.782 -35.225,99.559 -22.276,65.325 -41.679,99.011 -79.838,138.603 -11.703,12.142 -19.056,21.311 -16.341,20.374 14.268,-4.916 56.764,-8.699 78.414,-6.978 44.985,3.577 74.398,13.502 114.922,38.78 19.512,12.17 46.794,41.857 55.687,60.601 2.626,5.532 5.241,10.062 5.811,10.062 0.57,0 11.167,-15.127 23.548,-33.614 27.824,-41.547 67.619,-87.196 87.243,-100.082 20.088,-13.19 40.702,-19.519 108.996,-33.461 32.044,-6.544 70.364,-15.965 85.154,-20.935 14.79,-4.971 29.244,-9.054 32.12,-9.074 8.991,-0.06 5.88,-6.859 -14.939,-32.637 -33.14,-41.03 -35.248,-45.389 -24.693,-51.039 17.621,-9.429 74.74,49.652 74.74,77.31 0,11.541 -5.483,18.282 -14.868,18.282 -4.776,0 -9.617,1.512 -10.758,3.359 -3.238,5.238 -36.29,19.224 -61.023,25.821 -12.325,3.288 -45.939,10.349 -74.697,15.691 -28.758,5.345 -59.683,12.429 -68.721,15.746 -21.352,7.833 -53.242,38.379 -92.685,88.778 -16.077,20.54 -32.725,40.607 -36.995,44.592 -6.635,6.189 -7.763,9.761 -7.763,24.58 0,17.943 -7.333,41.507 -21.802,70.059 -7.362,14.529 -24.83,33.017 -37.707,39.907 -6.085,3.257 -5.859,3.936 8.354,24.998 15.349,22.745 96.237,110.376 123.403,133.689 22.569,19.368 48.115,36.11 84.453,55.341 l 31.528,16.686 6.275,-14.447 c 3.449,-7.949 10.9,-28.567 16.557,-45.822 10.791,-32.922 16.145,-40.585 25.029,-35.83 15.217,8.143 5.438,53.385 -19.739,91.315 -25.665,46.633 -34.475,33.003 -65.463,15.86 z m -251.431,-265.551 c -2.429,-12.146 4.83,-12.003 15.184,0.303 7.305,8.681 8.226,8.985 14.578,4.824 9.344,-6.122 30.68,-34.311 36.788,-48.601 15.966,-37.358 14.487,-65.496 -4.948,-94.112 -6.352,-9.356 -17.661,-22.389 -25.13,-28.964 -18.132,-15.96 -57.468,-35.341 -86.549,-42.644 -41.507,-10.422 -126.067,-6.638 -147.586,6.606 -15.725,9.679 -32.304,34.362 -41.187,61.325 -6.998,21.24 -7.569,25.603 -4.363,33.34 6.968,16.823 16.405,18.698 89.066,17.708 62.903,-0.857 65.456,-0.659 80.666,6.2 19.903,8.976 28.985,19.409 44.782,51.443 11.158,22.627 24.328,41.535 28.93,41.535 0.859,0 0.755,-4.033 -0.23,-8.963 z m 66.727,196.454 c -22.178,-27.307 -58.809,-91.462 -58.809,-102.999 0,-8.233 5.111,-3.043 13.155,13.363 9.212,18.783 38.721,63.812 54.539,83.221 5.495,6.743 9.991,13.802 9.991,15.686 0,7.296 -9.019,2.867 -18.876,-9.271 z m -599.204,-16.863 c -2.715,-1.718 2.494,-3.72 15.656,-6.01 10.849,-1.891 22.091,-4.262 24.984,-5.272 4.678,-1.632 4.764,-1.336 0.777,2.677 -8.931,8.996 -32.932,13.982 -41.417,8.605 z m 519.542,-28.557 c -6.804,-15.875 -10.431,-28.53 -8.173,-28.53 2.383,0 17.511,39.402 15.789,41.123 -0.854,0.854 -4.281,-4.814 -7.616,-12.593 z m -534.326,-19.768 c -16.336,-3.218 -37.564,-14.821 -38.793,-21.206 -0.819,-4.253 0.71,-4.076 11.676,1.35 17.617,8.714 57.616,10.747 75.694,3.843 18.501,-7.066 35.193,-19.893 49.762,-38.242 9.056,-9.154 12.714,-13.765 9.058,6.281 -7.167,15.119 -21.655,33.319 -53.116,45.09 -16.939,6.337 -32.528,7.166 -54.281,2.884 z m 168.131,-247.731 c -8.28,-1.235 -19.106,-4.339 -24.058,-6.9 -14.699,-7.601 -33.835,-30.848 -45.347,-55.088 -9.012,-18.979 -10.995,-26.793 -12.09,-47.656 -1.584,-30.18 2.243,-45.392 16.283,-64.731 15.574,-21.45 36.371,-30.414 70.039,-30.183 19.866,0.134 28.296,1.566 37.506,6.367 10.318,5.377 12.62,5.651 17.522,2.066 13.509,-9.878 22.41,-1.661 13.708,12.654 -5.155,8.48 -2.596,8.12 5.578,18.412 19.38,25.731 25.501,51.856 25.551,75.36 0,29.721 -6.256,45.654 -25.86,65.853 -19.872,20.478 -46.79,28.619 -78.832,23.846 z m 46.214,-26.891 c 20.99,-10.799 38.852,-38.031 38.991,-59.438 0.06,-9.035 -0.445,-9.654 -4.869,-5.976 -2.713,2.253 -13.133,4.772 -23.156,5.592 l -18.221,1.495 -0.366,17.741 c -0.304,14.742 -1.547,18.696 -7.358,23.402 -9.577,7.754 -22.942,4.801 -33.338,-7.37 -14.239,-16.666 -14.486,-38.523 -0.51,-44.892 4.266,-1.943 7.215,-5.835 7.222,-9.528 0,-3.434 2.676,-10.614 5.932,-15.953 4.617,-7.573 7.947,-9.712 15.125,-9.712 5.062,0 11.855,1.42 15.096,3.155 7.96,4.259 17.618,0.759 17.618,-6.385 0,-3.198 1.552,-8.298 3.448,-11.334 4.525,-7.247 -5.248,-17.059 -5.248,-17.059 -10.516,10.192 -22.598,-4.293 -12.732,-14.181 2.977,-2.985 -20.592,-13.91 -33.479,-13.933 -30.174,-0.05 -60.668,19.779 -67.992,44.225 -7.922,26.44 -1.239,66.035 15.665,92.811 9.2,14.573 26.685,29.726 36.9,31.976 4.489,0.991 9.506,2.212 11.15,2.716 6.739,2.068 30.15,-2.22 40.122,-7.352 z m -65.098,-114.59 c -5.078,-6.118 -0.913,-14.446 6.682,-13.362 4.521,0.645 6.342,3.036 6.342,8.334 0,8.522 -7.668,11.482 -13.024,5.028 z m 29.453,-30.391 c -3.333,-4.016 -3.162,-5.577 1.064,-9.804 6.094,-6.095 15.375,-1.781 15.375,7.147 0,7.272 -11.118,9.069 -16.439,2.657 z m 14.956,100.568 c 1.806,-22.658 6.523,-27.359 27.451,-27.359 16.42,0 26.319,-7.238 26.319,-19.245 0,-10.786 -9.295,-29.209 -10.484,-14.304 -1.473,18.475 -21.434,19.958 -33.064,15.536 -9.908,-3.767 -19.197,3.072 -19.197,14.134 0,4.811 -2.923,8.809 -8.946,12.235 -11.447,6.514 -11.86,17.645 -1.125,30.402 11.991,14.251 17.253,11.102 19.046,-11.399 z m 850.316,-30.472 c 41.469,-39.292 61.215,-91.236 44.742,-141.783 -1.209,-10.433 -4.091,-24.091 12.102,-5.264 22.379,39.596 14.208,129.246 -64.31,165.1 -15.028,0.193 4.75,-15.402 7.466,-18.053 z m 65.035,-16.078 c 1.126,-4.111 10.174,-17.263 12.751,-27.122 5.316,-20.334 10.084,-27.75 10.084,-15.685 0,15.575 -6.451,37.596 -12.605,43.026 -6.182,5.457 -12.252,7.155 -10.23,-0.219 z" fill="#00B894" transform="translate(50.560921,-23.087001) matrix(0.26458333,0,0,0.26458333,-3013.6889,-4485.3416)"/>
</svg>