<?xml version="1.0" ?><svg height="60.086201mm" viewBox="0 0 128.05865 60.086201" width="128.05865mm" xmlns="http://www.w3.org/2000/svg">
    <path d="m -104.98269,-1131.828 123.343091,1.7941 -2.723489,38.1807 -75.309358,1.6705 -0.976339,13.9201 -44.811205,-13.5186 z" fill="#FFFFFF" paint-order="markers stroke fill" transform="translate(-55.76205,-109.57581) translate(163.88319,1243.5776)"/>
    <path d="m -70.541791,-1076.1453 c -14.353011,-3.7754 -33.787319,-9.7287 -35.368919,-10.835 -1.31536,-0.9198 -1.51719,-2.4113 -2.01783,-14.9059 -0.59298,-14.7981 0.23606,-29.1835 1.76331,-30.6026 0.96826,-0.8996 37.431193,-2.2084 68.023285,-1.0689 8.088243,0.3016 24.004406,-0.2144 35.3697053,0.1469 12.722012,0.4043 20.9988947,0.9793 21.5353797,1.496 1.249153,1.2033 1.650563,34.5264 0.467222,38.3797 -1.433693,4.669 -3.745244,5.6454 -12.3237797,5.2058 -3.981328,-0.2041 -20.1486423,-0.3576 -35.9272383,-0.3417 l -28.68852,0.029 0.12968,6.2202 c 0.209273,10.038 0.607242,9.8453 -12.962295,6.2761 z m 8.301357,-8.1868 -0.07784,-3.7339 -7.057296,-0.3534 c -10.050268,-0.5031 -22.848071,-0.1155 -21.433111,0.6499 0.642779,0.3472 5.871847,1.8121 11.620575,3.2551 5.748728,1.4431 11.324308,2.9001 12.390275,3.2377 4.135996,1.3099 4.641348,0.9713 4.557414,-3.0548 z m 76.13119,-20.4264 c 0.147674,-5.1936 0.454294,-12.7552 0.626066,-15.5122 0.171972,-2.757 0.02723,-5.3963 -0.323124,-5.8653 -0.408611,-0.548 -7.3816567,-1.0288 -19.5154077,-1.3457 -10.3838093,-0.2712 -23.3900033,0.328 -28.9027473,0.038 -5.512839,-0.2899 -14.587886,-0.2278 -23.276771,-0.4723 -21.076134,-0.5931 -41.928803,-0.3685 -43.596752,-0.8476 -1.24644,-0.3582 -1.33759,0.47 -1.13005,10.2474 0.12197,5.8505 0.51973,14.0102 0.87924,18.1328 l 0.65337,7.4954 43.574546,-0.8164 c 23.965835,-0.4496 48.2561443,-0.6688 53.9784713,-0.4872 5.722428,0.1815 11.824927,0.3812 13.5619307,0.3965 3.365236,0.03 3.599433,0.8486 3.471228,-10.9634 z" fill="#00B894" transform="translate(-55.76205,-109.57581) translate(163.88319,1243.5776)"/>
</svg>