<?xml version="1.0" ?><svg height="69.808495mm" viewBox="0 0 277.23468 69.808495" width="277.23468mm" xmlns="http://www.w3.org/2000/svg">
    <path d="m 282.15501,-1124.8189 c 8.13234,-6.404 31.71613,-15.8452 48.06214,-18.0409 16.34599,-2.1956 48.46873,2.1591 88.27654,15.5525 39.8078,13.3934 74.77688,12.1492 86.65008,8.5996 11.87321,-3.5496 32.85464,-7.2822 32.85464,-7.2822 l -18.09443,25.7622 31.43147,2.3055 c 0,0 -12.64648,12.8778 -41.78052,16.1784 -29.13403,3.3007 -67.43678,-0.3698 -107.97651,-13.7998 -40.53972,-13.43 -54.93395,-13.9058 -77.17591,-9.8804 -22.24193,4.0253 -35.00972,11.2344 -35.00972,11.2344 l 25.04763,-25.4695 z" fill="#FFFFFF" paint-order="markers stroke fill" transform="translate(58.06797,-110.49769) translate(-337.09827,1256.0161)"/>
    <path d="m 466.15506,-1076.7015 c -20.17504,-2.4457 -41.70028,-7.7289 -64.25737,-15.7711 -30.20188,-10.7679 -40.96681,-12.9443 -59.85012,-12.1005 -14.1393,0.6321 -24.07888,3.5234 -45.49954,10.6067 -4.02031,1.3294 -12.20561,6.7354 -11.72241,0.1233 0.1833,-2.5083 1.06385,-3.6611 6.67318,-8.8769 3.5462,-3.2971 8.94145,-7.9749 11.98946,-10.3951 3.04798,-2.4199 5.56014,-4.6601 5.58255,-4.9776 0.0225,-0.3176 -1.60514,-0.5789 -3.61682,-0.5806 -4.15834,0 -19.20854,-2.0056 -23.53597,-3.2965 -1.80313,-0.5378 -2.88772,-1.3323 -2.88772,-2.1159 0,-2.8864 19.66756,-12.1623 32.77627,-16.3523 13.68368,-4.3739 21.58861,-5.463 36.07842,-4.9715 24.71784,0.8384 38.86718,3.9734 75.57299,16.7437 17.9773,6.2546 34.66183,8.7295 58.9058,8.7385 15.60291,0 17.2417,-0.1353 28.49033,-2.4438 6.56436,-1.3473 14.7072,-3.3129 18.09521,-4.368 9.28348,-2.8908 11.93516,-2.4544 11.93516,1.964 0,2.4193 -5.88854,11.6888 -11.04285,17.3831 -1.97305,2.1798 -3.58732,4.1722 -3.58732,4.4276 0,0.2554 6.20873,0.4645 13.79718,0.4645 7.58844,0 14.34528,0.2095 15.01518,0.4673 2.18807,0.8397 1.30794,3.3074 -2.05454,5.7608 -6.42049,4.6845 -18.00759,11.091 -24.46395,13.5256 -16.28293,6.1403 -41.47367,8.5809 -62.39312,6.0447 z m 43.92906,-7.6881 c 10.75117,-1.9738 19.51835,-4.6898 27.33532,-8.4682 9.4221,-3.9779 5.86164,-3.3785 -2.31002,-3.5982 -5.08206,-0.1375 -11.28341,-0.1659 -13.78088,-0.066 -4.60424,0.1855 -6.62435,-0.6293 -6.62435,-2.6705 0,-0.618 3.09426,-4.4737 6.87615,-8.5683 7.93627,-8.5922 12.72316,-14.6673 12.07116,-15.3193 -0.24983,-0.2497 -3.14244,0.262 -6.42824,1.137 -27.46058,7.3138 -26.78438,7.1877 -41.00948,7.6567 -14.52083,0.4787 -25.8063,-0.3128 -41.58051,-2.9167 -9.0709,-1.4974 -17.34595,-3.9429 -38.5005,-11.378 -21.82168,-7.6696 -44.29087,-11.7757 -64.6808,-11.82 -11.92453,-0.026 -20.47787,1.3766 -31.90258,5.2313 -6.44284,2.1737 -21.95457,8.9831 -21.98011,9.649 -0.0284,0.7334 16.63736,2.2303 24.83282,2.2303 6.67268,0 7.52081,0.1594 8.26811,1.5559 1.03859,1.9406 0.56388,2.7266 -2.66856,4.4188 -2.54737,1.3337 -20.43773,16.5131 -20.02598,16.9915 0.11874,0.1375 3.45251,-0.961 7.40838,-2.4424 3.95593,-1.4814 11.35063,-3.8263 16.43269,-5.2112 9.02764,-2.4599 9.61184,-2.5189 25.41032,-2.5625 21.2761,-0.059 27.23783,1.2459 59.70233,13.0676 16.46774,5.9965 38.32024,11.3658 60.41919,14.5032 14.54453,2.0649 35.67755,-0.1244 42.73554,-1.4203 z" fill="#00B894" transform="translate(58.06797,-110.49769) translate(-337.09827,1256.0161)"/>
</svg>