<?xml version="1.0" ?><svg height="110.59725mm" viewBox="0 0 263.93115 110.59725" width="263.93115mm" xmlns="http://www.w3.org/2000/svg">
    <path d="m -465.5782,-1209.5239 c 8.32297,-4.3736 33.15221,-6.1833 43.03922,-5.6052 9.887,0.5781 27.14738,4.9265 32.42603,13.2464 5.27868,8.3198 2.51365,21.2395 1.70371,26.6184 -0.80995,5.379 -3.63083,10.4564 -8.21124,15.1065 -4.58044,4.65 -12.73583,6.5603 -12.73583,6.5603 0,0 37.22992,14.5534 80.0457,12.241 42.81577,-2.3125 69.80293,-14.3788 69.80293,-14.3788 0,0 -19.10374,-3.1922 -27.31498,-9.7777 -8.21124,-6.5854 -6.00482,-28.579 -3.46324,-34.5361 2.54156,-5.9571 14.24398,-9.0739 22.53901,-10.3809 8.29503,-1.3071 52.81454,-1.0306 52.81454,-1.0306 l -16.45044,11.8891 19.57853,13.4726 -51.86492,2.0862 c 0,0 29.94033,4.2479 30.07997,15.8605 0.13965,11.6126 0.22344,24.2055 -0.0838,28.5288 -0.30724,4.3233 -2.54156,6.7866 -8.07159,9.8028 -5.53003,3.0163 -44.3788,20.8091 -86.94322,21.0856 -42.5644,0.2765 -81.83314,-12.1656 -91.52464,-17.9719 -9.69153,-5.8062 -5.05524,-13.8496 -5.97691,-24.0797 -0.92168,-10.2302 0.53065,-21.1641 5.139,-24.7333 4.60838,-3.5693 9.105,-7.8423 9.105,-7.8423 0,0 -24.18686,-1.4076 -33.43151,-1.1562 -9.24462,0.2513 -13.68541,0.1256 -13.68541,0.1256 l 18.01447,-13.7993 c 0,0 -29.09125,-8.5877 -24.53039,-11.3318 z" fill="#FFFFFF" paint-order="markers stroke fill" transform="translate(-113.40022,-40.947559) translate(583.36027,1258.4788)"/>
    <path d="m -357.1967,-1107.1818 c -10.20491,-0.4697 -20.83467,-2.3088 -34.24233,-5.9247 -15.6025,-4.2075 -22.19716,-6.7229 -29.17519,-11.1287 -7.90875,-4.993 -8.29409,-5.9184 -8.65042,-20.7697 -0.37571,-15.6647 0.0963,-23.3384 1.62668,-26.4391 0.67221,-1.3618 3.2403,-4.1734 5.70706,-6.2484 2.46678,-2.0747 4.49417,-3.9981 4.5052,-4.274 0.0345,-0.833 -9.48557,-0.82 -27.21478,0.037 -15.13051,0.7313 -16.9135,0.6799 -17.95274,-0.5161 -2.17731,-2.5061 -1.62337,-2.7797 8.68226,-9.3087 6.71323,-4.2531 11.84144,-4.9311 3.53773,-7.528 -8.43634,-2.6384 -16.89008,-6.1863 -18.55991,-7.8006 -1.26377,-1.2219 -1.31928,-1.5324 -0.39597,-2.214 3.11169,-2.297 9.71062,-4.4234 19.60128,-6.3157 9.56062,-1.8292 12.33331,-2.0764 20.71323,-1.8472 24.94384,0.6819 37.88692,5.4548 41.54936,15.3221 2.40287,6.4747 2.59418,20.9156 0.41858,31.5892 -0.76413,3.7482 -1.58875,5.2169 -4.83045,8.6028 -2.23933,2.3394 -5.49229,4.7677 -7.61572,5.6855 -2.0388,0.8811 -3.69284,1.8102 -3.67584,2.0647 0.0553,0.8272 14.37721,4.3492 21.96934,5.4028 18.05094,2.5049 38.39253,6.7767 66.83396,4.4245 30.08949,-2.4885 46.89315,-10.3546 47.59185,-11.1533 0.14833,-0.1697 -1.54034,-0.4264 -3.75238,-0.5706 -8.8671,-0.5787 -19.08284,-8.0693 -21.66252,-13.2436 -1.04934,-2.1048 -1.64141,-6.4481 -1.65406,-17.0373 -0.01,-8.2351 0.33358,-13.5061 0.9761,-14.9823 2.52438,-5.7997 10.78886,-9.7674 23.50544,-11.2857 11.17473,-1.3338 50.06969,-1.0606 55.56976,-0.7433 4.55587,0.2628 2.38235,2.29 -0.27809,4.2457 -1.97928,1.455 -5.31823,4.6622 -8.22411,6.252 -2.90598,1.5899 -5.26356,3.0833 -5.23901,3.3188 0.053,0.4635 7.42787,4.9119 15.94183,9.6089 8.31156,4.5854 7.69378,5.4493 -4.47908,6.2625 -5.49346,0.3671 -15.01847,0.7417 -21.1669,0.8323 l -11.17907,0.1651 4.94808,1.5131 c 5.9573,1.8219 11.22976,4.8509 12.22664,7.024 1.35627,2.9573 1.03451,18.3448 1.02456,28.3782 0.11081,5.1112 1.14418,8.8556 -2.4893,12.3822 -8.20898,7.968 -26.32812,13.7696 -52.25021,20.9455 -19.64507,5.4382 -56.80998,5.9845 -72.24086,5.2741 z m 44.62321,-5.3921 c 26.82085,-2.3551 51.20946,-9.4548 66.71997,-18.2495 9.61041,-5.4493 9.58908,-5.4041 9.22462,-19.5924 -0.16612,-6.4679 -0.43079,-11.8723 -0.58803,-12.0098 -0.15806,-0.1382 -2.40748,1.1037 -5.00057,2.7578 -7.19259,4.5889 -18.6342,8.3577 -48.60598,16.0109 -17.0098,4.3433 -39.97956,4.692 -54.80782,3.8491 -23.606,-1.3419 -47.38212,-3.8007 -65.19977,-11.3058 -3.79749,-1.5998 -8.15152,-3.864 -9.67556,-5.0319 l -2.77111,-2.1232 -0.0291,7.0459 c -0.016,3.8751 0.16329,9.9293 0.39878,13.4535 -0.11363,4.8452 0.0241,6.1532 3.85194,8.5633 9.83386,6.1915 38.09215,14.1833 56.04451,15.8503 9.3871,0.8717 34.18602,2.2088 46.72887,1.1075 z m -91.23079,-46.5732 c 5.22426,-2.098 10.4011,-6.0204 11.99793,-9.0898 0.72775,-1.3991 1.54724,-4.8468 1.82117,-7.662 0.56152,-5.7727 0.96866,-17.8837 0.60038,-17.859 -0.13304,0 -1.96782,1.6253 -4.07782,3.5918 -2.10999,1.9665 -7.17833,5.2973 -11.26351,7.4019 -7.63748,3.9349 -13.56515,7.7948 -16.4219,10.693 -2.14574,2.1772 -1.8658,5.6905 0.71686,8.994 2.21545,2.8338 10.83669,7.2239 12.04935,6.1359 0.40743,-0.3657 2.46744,-1.3582 4.57754,-2.2058 z m 155.00641,-2.2298 c 12.62723,-4.1746 13.12564,-10.6815 11.17418,-12.1968 -1.92322,-1.4933 -3.15493,-3.0228 -20.45194,-6.4976 -17.64263,-3.5443 -24.22861,-5.393 -29.10051,-8.1689 l -3.01169,-1.716 0.60777,9.0967 c 0.56558,8.4651 0.59015,9.2033 2.06943,10.8753 2.9364,3.3191 7.53304,7.8845 19.39753,9.9508 3.89849,0.679 7.95062,1.2082 9.34846,1.1724 3.35628,-0.086 4.61423,-0.7463 9.96677,-2.5159 z m 27.65852,-28.8931 c -1.787,-1.3353 -5.49518,-3.5591 -8.24017,-4.9418 -4.95809,-2.497 -6.1975,-4.2514 -4.26173,-6.0325 0.49974,-0.4601 3.90829,-2.3612 7.5746,-4.2249 8.32936,-4.2343 7.8003,-4.4035 -11.06742,-3.5401 -27.67953,1.2666 -40.37471,2.451 -44.00907,4.106 -4.08713,1.861 -7.37437,5.2958 -7.22391,7.5477 0.24422,3.6553 6.76649,7.4319 17.2599,9.9935 4.84381,1.1825 7.12279,1.2278 19.31872,0.3833 7.60468,-0.5301 16.43848,-0.8548 19.63016,-0.7293 3.19177,0.1257 7.70793,0.1468 10.03556,0.047 l 4.23251,-0.1802 z m -183.91874,1.8729 c 13.63929,-8.2624 12.83552,-9.8769 12.68346,-12.1529 -0.14273,-2.1359 -4.07892,-5.746 -8.1577,-7.4817 -11.53919,-4.91 -33.30391,-6.1896 -53.10314,-3.1217 -5.44606,0.8438 -8.55847,2.3426 -8.85709,2.6839 -0.29851,0.3413 3.08408,1.6187 9.45699,3.4853 6.37281,1.8667 12.04103,3.6939 12.596,4.0604 0.55516,0.3663 1.06027,1.4297 1.1226,2.3626 0.12274,1.8373 -2.97567,4.6869 -10.36053,9.5287 -2.33821,1.5329 -4.24757,2.8483 -4.24309,2.9229 0.004,0.074 5.54956,-0.3447 12.32264,-0.9328 12.45441,-1.0812 20.28714,-0.025 25.98334,0.7313 7.31789,0.9723 6.49526,0.3742 10.55652,-2.086 z" fill="#00B894" transform="translate(-113.40022,-40.947559) translate(583.36027,1258.4788)"/>
</svg>