<?xml version="1.0" ?><svg height="63.678871mm" viewBox="0 0 154.0325 63.678871" width="154.0325mm" xmlns="http://www.w3.org/2000/svg">
    <path d="m 335.31041,-1237.7875 c 0.78499,-3.9787 6.28009,-5.4474 14.13023,-4.3319 7.85013,1.1155 14.6054,6.6558 14.6054,6.6558 l -0.062,12.7167 c 0,0 18.81968,6.1725 36.99894,-4.6479 18.17928,-10.8204 32.45413,-19.2052 46.87358,-19.1494 14.41945,0.056 33.21847,11.1736 33.21847,11.1736 0,0 0.13758,23.3446 -0.13224,31.2865 -0.2698,7.9419 -15.25815,8.6298 -19.86495,8.4625 -4.60679,-0.1673 -9.89531,-0.3904 -11.27939,-5.373 -1.38412,-4.9826 -1.2395,-9.0355 -1.2395,-9.0355 0,0 -25.07911,8.329 -41.04796,15.4125 -15.96882,7.0834 -46.21252,8.7009 -58.99996,3.1048 -12.78748,-5.5961 -16.34067,-7.102 -16.11345,-17.3089 0.22725,-10.2068 2.91283,-28.9658 2.91283,-28.9658 z" fill="#FFFFFF" paint-order="markers stroke fill" transform="translate(-58.47192,-73.907425) translate(-271.6824,1322.4676)"/>
    <path d="m 364.03476,-1185.3061 c -16.51,-1.4847 -26.01836,-5.4622 -31.65327,-13.2409 -2.15232,-2.9713 -2.22717,-3.3756 -2.22717,-12.0296 0,-9.5868 1.8527,-27.0212 3.12391,-29.3964 1.04656,-1.9555 4.61151,-3.6968 8.72187,-4.2602 6.71565,-0.9204 21.60384,3.7398 23.54703,7.3706 0.43868,0.8198 0.79767,3.7498 0.79767,6.5112 v 5.0209 l 2.81523,0.528 c 4.86704,0.9132 16.54239,-0.2731 23.03999,-2.341 3.35508,-1.0678 9.31529,-3.5585 13.03023,-5.8935 18.47493,-11.6122 37.0788,-19.3225 58.90579,-13.5786 6.82546,1.7962 13.78094,5.3594 17.1504,8.6317 2.35023,2.2825 2.79814,3.2404 2.8,5.9876 0,1.7988 0.0415,8.2954 0.0895,14.4371 0.0685,8.7581 -0.17243,11.6645 -1.11645,13.4751 -1.62755,4.321 -3.93784,7.2844 -8.1433,9.1143 -1.4823,0.6118 -5.81359,1.2029 -9.62514,1.3136 -11.65952,0.3383 -12.59278,0.1964 -15.07445,-2.2849 -1.94959,-1.9498 -2.25083,-2.8255 -2.25083,-6.5453 0,-2.3616 -0.33352,-4.2942 -0.74111,-4.2942 -1.55095,0 -10.10154,3.5045 -21.95146,8.9969 -14.07366,6.523 -25.51981,10.6166 -32.74812,11.7126 -8.10981,1.2297 -19.82565,1.5442 -28.49033,0.765 z m 27.72034,-6.8949 c 7.19227,-1.1036 13.20089,-3.211 28.87537,-10.128 7.62309,-3.364 16.93223,-7.3546 20.79026,-8.5564 10.34762,-3.2232 22.96723,-5.9246 32.43635,-0.043 7.10707,4.6217 5.56162,1.0432 5.35282,-10.3374 -0.16898,-9.2105 0.6914,-12.5121 -3.21815,-14.9337 -8.1349,-5.0388 -18.6486,-7.8278 -31.83099,-7.3717 -12.2798,0.4249 -19.63288,5.1522 -29.87698,11.4961 -16.37696,10.1418 -27.23223,13.5406 -40.98026,12.7671 -12.17715,-0.6854 -26.92747,-5.3913 -34.13893,-10.8917 l -2.61248,-1.9926 -0.50075,9.8182 c -0.88103,17.2759 -0.74965,19.365 1.39514,22.177 3.56889,4.679 13.33095,7.6776 29.66827,9.1134 4.84744,0.4261 18.66337,-0.2008 24.64033,-1.1173 z m 76.75327,-5.8173 c 4.72071,-0.7007 8.1519,-3.7718 8.565,-5.8691 0.27187,-1.3802 -4.29205,-4.4333 -6.62726,-4.4333 -1.37838,0 -1.53656,0.3492 -1.17297,2.5895 0.23111,1.4242 0.0153,3.345 -0.47823,4.2683 -0.81631,1.5251 -1.30056,1.6333 -5.29131,1.1817 -4.92763,-0.5574 -11.97396,0.8421 -10.09284,2.0046 1.11049,0.6863 6.8228,1.4863 15.09761,0.2583 z m -8.7999,-5.913 c 4.67969,0.2932 5.26678,0.7529 5.19756,-2.5544 -0.0488,-2.3315 -1.57718,-2.817 -6.45637,-2.9887 -2.92497,-0.1029 -7.5084,1.3704 -7.49615,1.7255 l 0.0923,2.6763 c 0,2.8597 0.13009,3.0494 1.73252,2.5284 0.9529,-0.3099 3.55619,-1.5985 6.93015,-1.3871 z m -96.44451,-23.8321 c 0,-1.5698 -0.38029,-1.7374 -4.04254,-1.7854 -2.223,-0.031 -5.13416,-0.6269 -6.46923,-1.3287 -2.09278,-1.0994 -2.48693,-1.1203 -2.85891,-0.1506 -0.5242,1.366 1.1567,2.3342 6.59334,3.7975 5.84508,1.5731 6.77828,1.4997 6.77734,-0.5324 z m -16.69909,-5.8219 c 0.6914,-3.4568 3.54827,-4.3008 8.26449,-2.442 4.29019,1.6911 5.35533,1.8581 5.35533,0.8399 0,-0.9283 -5.30088,-2.9864 -11.23973,-4.3637 -4.42659,-1.0267 -10.20905,-0.7081 -11.5536,0.6365 -0.73413,0.734 0.67561,2.5941 3.77331,4.9787 3.97551,3.0604 4.84695,3.1169 5.4002,0.3506 z" fill="#00B894" transform="translate(-58.47192,-73.907425) translate(-271.6824,1322.4676)"/>
</svg>