<?xml version="1.0" ?><!-- Created with Inkscape (http://www.inkscape.org/) --><svg height="176.73856mm" id="svg72593" inkscape:version="1.1.1 (26b7af14f2, 2022-01-19)" sodipodi:docname="barbecue_1.svg" version="1.1" viewBox="0 0 190.43286 176.73856" width="190.43286mm" xmlns="http://www.w3.org/2000/svg" xmlns:inkscape="http://www.inkscape.org/namespaces/inkscape" xmlns:sodipodi="http://sodipodi.sourceforge.net/DTD/sodipodi-0.dtd" xmlns:svg="http://www.w3.org/2000/svg">
  <sodipodi:namedview bordercolor="#666666" borderopacity="1.0" id="namedview72595" inkscape:current-layer="layer1" inkscape:cx="640.88224" inkscape:cy="473.83133" inkscape:document-units="mm" inkscape:pagecheckerboard="0" inkscape:pageopacity="0.0" inkscape:pageshadow="2" inkscape:window-height="1016" inkscape:window-maximized="1" inkscape:window-width="1866" inkscape:window-x="54" inkscape:window-y="27" inkscape:zoom="0.64052329" pagecolor="#ffffff" showgrid="false"/>
  <defs id="defs72590"/>
  <g id="layer1" inkscape:groupmode="layer" inkscape:label="Capa 1" transform="translate(64.235272,-23.160589)">
    <g id="g34810" transform="matrix(0.26458333,0,0,0.26458333,-12062.684,-426.48437)">
      <path d="m 45382.573,1827.5655 c -4.967,-24.0234 -16.265,-31.845 -0.745,-45.5887 15.519,-13.7436 138.807,-63.5783 160.038,-70.506 21.231,-6.9277 108.638,-6.2572 155.196,-1.1173 46.559,5.1399 273.643,23.4647 293.135,30.9511 19.493,7.4864 38.613,15.5314 34.516,36.3145 -4.097,20.7831 -20.734,135.2684 -71.266,172.9237 -50.532,37.6554 -127.261,48.6507 -232.919,43.846 -105.658,-4.8047 -250.535,4.2368 -298.722,-49.3877 -29.921,-33.2977 -39.233,-117.4356 -39.233,-117.4356 z" fill="#00B894" id="path34669" sodipodi:nodetypes="cssssssssc" style="fill:#ffffff;stroke-width:3.77953;stroke-linecap:round;stroke-linejoin:round;paint-order:markers stroke fill;stop-color:#000000"/>
      <path d="m 45799.564,2363.9051 c -5.518,-6.6472 -18.804,-109.8805 -28.903,-224.5497 -2.511,-28.5319 -5.803,-65.2158 -7.31,-81.5197 -1.506,-16.3041 -2.785,-33.8545 -2.84,-39.0012 l -0.107,-9.3575 -27.42,-1.6617 c -15.08,-0.914 -50.232,-2.3049 -78.117,-3.0908 l -50.695,-1.4291 -3.424,36.1632 c -1.882,19.8898 -5.43,54.1718 -7.881,76.182 -2.452,22.0104 -5.725,53.6814 -7.274,70.3798 -3.066,33.0487 -6.261,42.2657 -14.649,42.2657 -11.274,0 -12.793,-6.5323 -9.387,-40.3801 1.76,-17.4867 3.199,-32.5922 3.199,-33.5678 0,-2.264 -145.468,46.1828 -148.181,49.3503 -1.114,1.3007 -7.221,16.7821 -13.569,34.4034 -12.697,35.2364 -19.875,46.0756 -26.741,40.376 -6.226,-5.1674 -5.325,-11.317 7.486,-51.0338 6.423,-19.9113 20.456,-64.2155 31.189,-98.4539 28.933,-92.3189 43.566,-138.5709 45.113,-142.6045 0.758,-1.9777 -1.252,-4.4308 -4.468,-5.4516 -12.719,-4.0372 -42.236,-25.7213 -50.456,-37.0664 -11.314,-15.62 -20.538,-50.4494 -24.447,-92.3082 -1.721,-18.4277 -5.028,-37.1796 -7.35,-41.6709 -6.423,-12.4176 -5.263,-24.2342 3.146,-32.1368 l 7.373,-6.9242 -16.322,-7.3839 c -17.727,-8.0204 -22.479,-16.1324 -16.777,-28.6462 3.333,-7.311 26.871,-17.7856 47.29,-21.0436 10.681,-1.7041 54.377,7.3843 66.373,13.8056 3.48,1.8622 8.394,1.381 14.965,-1.4654 5.383,-2.3307 23.124,-8.6776 39.43,-14.1043 39.522,-16.5957 81.542,-12.8994 124.503,-10.0951 85.528,5.5829 159.657,15.4498 240.113,18.9532 3.259,0.08 26.975,3.4363 52.698,7.4569 25.724,4.0205 49.446,6.6106 52.716,5.7557 3.353,-0.8773 8.354,0.6275 11.476,3.4534 4.091,3.7008 8.269,4.4948 16.015,3.0419 13.357,-2.506 19.864,0.9016 12.294,6.4378 -5.191,3.7959 -5.194,4.1712 -0.08,9.8188 4.869,5.38 5.122,10.0047 1.282,23.4267 -0.758,2.6499 3.624,5.2565 12.935,7.6941 19.346,5.0646 26.452,12.049 25.341,24.9068 -1.114,12.8645 -10.991,20.6494 -32.282,25.4447 l -15.685,3.5326 -12.675,34.9735 c -6.97,19.2354 -16.872,41.5186 -22.006,49.5181 -13.586,21.1731 -45.414,49.0371 -68.07,59.5925 l -19.48,9.0756 29.102,86.275 c 16.008,47.4511 33.901,103.5905 39.764,124.754 5.862,21.1635 13.185,44.8907 16.274,52.7271 9.634,24.4408 6.172,41.1833 -7.434,35.9618 -4.107,-1.5757 -17.903,-37.2618 -26.993,-69.8298 l -4.682,-16.7708 -28.772,11.2233 c -50.811,19.8196 -93.796,38.6078 -100.993,44.1435 l -7.008,5.3871 5.329,44.7189 c 4.404,36.9442 4.656,45.5301 1.456,49.3863 -4.665,5.6207 -10.216,5.9915 -14.392,0.9617 z m 35.272,-126.5314 c 15.314,-8.0452 43.854,-21.5437 63.419,-29.9967 19.565,-8.4532 36.706,-16.4127 38.096,-17.6877 2.32,-2.1342 -6.993,-35.62 -32.137,-115.5497 -5.385,-17.1191 -12.767,-40.797 -16.4,-52.6174 -3.635,-11.8202 -6.889,-21.4915 -7.234,-21.4915 -0.347,0 -13.852,1.993 -30.014,4.4291 -16.161,2.436 -37.723,4.4369 -47.912,4.4465 l -18.528,0.023 0.08,22.9736 c 0.05,12.6355 1.42,32.9784 3.045,45.2064 2.496,18.7617 17.478,165.9327 17.58,172.6738 0.05,3.3263 0.02,3.3349 29.991,-12.404 z m -385.348,-62.7104 c 12.044,-5.0368 43.244,-16.2976 69.328,-25.0244 l 47.429,-15.867 2.057,-14.2532 c 8.778,-60.8508 15.134,-107.0921 15.407,-112.0771 0.296,-5.4015 -2.181,-6.1111 -27.837,-7.98 -15.491,-1.1281 -37.98,-3.583 -49.979,-5.4554 -11.998,-1.8725 -22.858,-2.2834 -24.13,-0.9132 -1.271,1.37 -8.567,23.1676 -16.213,48.4386 -7.644,25.2713 -20.464,66.6957 -28.487,92.0546 -8.025,25.3591 -14.587,47.0359 -14.587,48.1709 0,3.5203 4.379,2.37 27.012,-7.0938 z m 426.99,-198.0136 c 27.604,-7.1468 48.985,-17.667 70.995,-34.9296 27.661,-21.693 43.394,-49.0162 48.639,-84.469 l 2.045,-13.83 -17.344,-1.8198 c -9.537,-1.0009 -24.509,-3.6486 -33.268,-5.8841 -15.608,-3.9827 -16.19,-3.8965 -29.13,4.3092 -15.107,9.5801 -66.766,30.4366 -88.508,35.7315 -24.909,6.0673 -37.22,21.2813 -40.153,49.6226 -2.904,28.0566 -7.732,31.7758 -40.57,31.2656 -55.11,-0.8562 -280.709,-30.8636 -296.805,-39.4788 -8.21,-4.3928 -12.082,-14.5646 -12.256,-32.1985 -0.08,-7.6383 -3.151,-21.2243 -6.836,-30.1917 -5.632,-13.7124 -8.791,-17.3363 -19.871,-22.7987 -16.463,-8.1165 -21.889,-8.584 -19.225,-1.6573 1.096,2.8534 3.926,16.5265 6.289,30.3848 7.598,44.5732 14.888,64.2195 28.959,78.0489 6.918,6.8001 17.535,14.9161 23.589,18.0353 9.384,4.8332 12.061,5.1103 18.108,1.8739 8.191,-4.3842 13.592,-2.1459 13.592,5.6337 0,4.3176 3.761,6.0887 18.526,8.7202 32.178,5.7348 86.999,9.295 172.95,11.2309 82.741,1.8638 83.288,1.836 84.897,-4.3188 1.208,-4.6175 3.238,-5.7721 7.969,-4.5344 3.492,0.9135 7.519,3.8427 8.947,6.5098 2.285,4.269 6.969,4.5961 39.182,2.7339 20.126,-1.1632 46.8,-4.7586 59.279,-7.9896 z m -106.512,-52.9513 c 0.69,-7.7443 0.955,-14.5066 0.587,-15.027 -0.369,-0.5207 -3.46,0.7945 -6.868,2.9229 -5.256,3.283 -7.433,3.0707 -14.369,-1.4 -21.102,-13.6046 -25.523,-14.7972 -37.033,-9.9881 -8.287,3.4621 -10.387,5.7952 -9.222,10.244 2.654,10.1547 -7.451,10.5222 -18.661,0.6783 -12.081,-10.6068 -23.049,-11.4359 -39.597,-2.993 -13.849,7.0649 -14.823,7.1763 -14.823,1.6981 0,-2.3268 4.973,-8.3297 11.049,-13.3396 13.584,-11.1959 31.845,-12.3962 46.912,-3.0836 6.275,3.8791 10.433,4.9201 11.666,2.9221 3.06,-4.9507 24.343,-14.8761 31.898,-14.8761 3.794,0 12.186,2.727 18.645,6.0596 13.468,6.9493 27.353,5.8627 35.145,-2.7502 4.713,-5.2071 4.415,-5.5557 -6.261,-7.3203 -6.166,-1.0189 -21.883,-1.8586 -34.926,-1.8659 -39.913,-0.024 -260.522,-23.1075 -282.9,-29.6038 -5.599,-1.6252 -10.587,-2.5476 -11.084,-2.0498 -0.497,0.4978 2.047,8.1451 5.65,16.9944 3.607,8.8491 6.665,16.3846 6.799,16.7452 0.133,0.3607 5.506,-1.8898 11.94,-5.0012 6.433,-3.1115 17.698,-6.5004 25.034,-7.5308 12.443,-1.7483 14.013,-1.1768 23.365,8.5077 l 10.022,10.382 8.653,-6.397 c 6.329,-4.6813 12.389,-6.2603 22.584,-5.8871 7.664,0.2806 23.429,0.49 35.037,0.4654 23.324,-0.049 42.628,6.1554 42.628,13.7016 0,4.1382 -3.171,4.495 -24.54,2.7613 -20.633,-1.6743 -25.172,-1.2273 -28.523,2.8098 -5.411,6.519 -11.94,6.0317 -19.947,-1.489 -8.068,-7.5783 -23.853,-5.9235 -32.277,3.3834 -7.503,8.2931 -11.613,7.379 -21.668,-4.822 l -8.814,-10.6929 -20.742,3.4986 c -18.967,3.1991 -20.875,4.1774 -22.299,11.4338 -0.856,4.3645 -0.661,8.8354 0.438,9.9353 4.816,4.8283 243.556,34.1715 282.568,34.73 18.502,0.6501 22.311,4.4056 23.934,-13.7561 z m 92.414,-77.4039 c 17.328,-6.7946 71.866,-38.947 66.063,-38.947 -0.934,0 -12.111,4.7831 -24.836,10.6292 -12.726,5.846 -29.809,13.2766 -37.961,16.5124 -27.937,11.0886 -48.912,21.0986 -48.912,23.3421 0,3.3314 21.748,-2.1654 45.646,-11.5367 z m -49.292,4.5892 c 6.081,-3.7718 36.226,-19.1105 66.986,-34.0863 62.225,-30.2935 110.998,-59.4906 105.28,-63.0242 -4.719,-2.9161 -5.209,-2.7055 -81.172,34.7821 -35.868,17.7014 -84.891,39.9681 -108.94,49.4812 -24.047,9.5132 -43.724,17.8387 -43.724,18.501 0,0.6621 11.366,1.2041 25.258,1.2041 21.231,0 27.014,-1.0924 36.312,-6.8579 z m 30.617,-47.4012 c 55.876,-28.2119 102.123,-52.8902 102.772,-54.8404 2.863,-8.591 -18.746,-2.8913 -46.228,12.1924 -35.717,19.6037 -105.858,52.7928 -154.66,73.1804 -20.38,8.514 -38.322,16.6687 -39.869,18.1212 -1.668,1.5627 5.187,2.641 16.79,2.641 19.496,0 20.176,-0.2883 121.195,-51.2946 z m -143.039,42.7819 c 4.33,-3.0516 51.555,-27.3533 104.952,-54.0033 53.396,-26.6502 97.083,-49.3268 97.083,-50.3925 0,-1.0657 -6.59,-2.8114 -14.641,-3.8798 -13.491,-1.7897 -16.456,-0.929 -37.795,10.9748 -12.737,7.104 -36.494,20.3377 -52.801,29.408 -16.302,9.0704 -54.934,27.3991 -85.848,40.7305 -30.912,13.3314 -57.592,25.1444 -59.286,26.2514 -3.18,2.0779 13.116,5.2992 30.55,6.0387 5.525,0.2343 13.404,-2.0367 17.786,-5.1278 z m 9.774,-38.259 c 41.342,-20.8332 89.057,-45.8228 106.034,-55.5322 30.113,-14.8447 49.254,-20.9845 19.689,-20.2962 -10.853,-0.3606 -15.226,-0.6179 -85.704,34.6125 -62.531,31.2569 -102.373,50.1156 -150.122,71.0609 -7.061,3.0975 -6.784,3.3426 5.927,5.197 7.337,1.0704 16.866,2.1465 21.175,2.3915 4.796,0.2726 36.962,-14.2341 83.001,-37.4335 z m -118.996,25.5666 c 9.226,-5.6577 72.178,-38.2102 171.255,-88.5575 24.353,-12.375 31.828,-17.3947 27.558,-18.5108 -5.57,-1.4563 -46.299,16.1678 -135.08,58.4482 -19.566,9.3172 -46.792,21.5851 -60.505,27.2618 -13.713,5.6769 -30.388,13.172 -37.055,16.656 l -12.121,6.3349 8.893,2.0247 c 16.447,3.7444 26.619,2.7407 37.055,-3.6573 z m -41.311,-10.0369 c 18.587,-11.2905 131.373,-66.6152 170.261,-83.5162 13.042,-5.6689 27.047,-11.7533 31.124,-13.5211 6.646,-2.882 5.499,-6.4689 -11.858,-5.3964 -10.514,0.6496 -21.547,-1.9682 -31.331,3.2808 l -70.939,33.8359 c -45.589,21.7448 -97.993,45.8467 -116.314,53.8487 -18.325,8.0019 -33.332,15.4688 -33.35,16.5934 -0.05,2.0818 13.033,3.9716 33.667,4.8682 8.485,0.3684 15.965,-2.233 28.74,-9.9933 z m -66.889,-1.536 c 3.566,-2.6634 105.944,-53.9588 166.806,-83.5752 40.745,-19.8284 42.946,-21.3166 32.926,-22.2665 -10.979,-1.0408 -22.98,3.9933 -153.784,64.5166 -25.271,11.6928 -54.285,24.6205 -64.474,28.7285 -10.191,4.1076 -18.529,8.471 -18.529,9.6965 0,2.9798 24.02,8.2432 29.644,6.4958 2.447,-0.76 5.781,-2.3779 7.411,-3.5957 z m 523.06,-10.9464 c 2.574,-9.2487 2.282,-11.7177 -1.739,-14.6962 -3.828,-2.8378 -7.054,-2.6332 -15.551,0.9857 -5.897,2.5115 -17.724,7.4574 -26.279,10.991 -8.559,3.5339 -15.562,7.3411 -15.564,8.4605 0,2.5169 13.529,4.2786 37.651,4.9012 l 18.389,0.4742 z m 44.574,3.4584 c 4.01,-4.0771 3.875,-5.0149 -1.267,-8.827 -3.164,-2.346 -9.349,-4.2654 -13.745,-4.2654 -6.613,0 -8.214,1.5334 -9.297,8.9099 -0.719,4.9006 -0.547,9.6713 0.385,10.6017 2.821,2.8222 19.144,-1.5567 23.924,-6.4192 z m -554.019,-32.0074 c 38.163,-18.5549 84.06,-39.9774 101.994,-47.6054 17.937,-7.6281 33.878,-15.1237 35.425,-16.6574 4.946,-4.8965 -17.301,-3.0973 -34.219,2.7675 -22.239,7.7097 -121.308,50.4354 -185.909,80.6068 -19.671,9.9638 12.487,16.0872 21.863,10.323 0.736,-0.6319 22.685,-10.8792 60.846,-29.4345 z m -61.322,-1.6887 c 21.448,-11.332 55.629,-27.7827 75.958,-36.5573 45.772,-19.7548 56.86,-25.5591 49.141,-25.7222 -11.48,-0.2433 -49.456,13.0324 -107.035,37.4189 -63.009,26.6856 -73.347,33.0059 -66.834,40.856 2.104,2.5346 7.469,7.0289 9.105,7.0289 1.636,0 18.216,-11.6923 39.665,-23.0243 z m 547.887,2.3315 c 25.3,-12.2013 31.144,-16.1494 28.54,-19.2855 -1.798,-2.1688 -4.398,-3.9434 -5.771,-3.9434 -2.414,0 -51.665,30.914 -57.397,36.0251 -6.497,5.7966 4.518,1.7251 34.628,-12.7962 z m -549.552,-36.151 24.738,-12.6243 -28.06,-3.8526 c -24.596,-3.3769 -30.072,-3.2674 -44.358,0.8861 -16.246,4.7221 -25.794,11.6165 -20.568,14.8471 1.498,0.926 10.436,3.6924 19.861,6.1474 9.423,2.455 17.824,5.1509 18.664,5.991 2.403,2.4025 3.551,1.9625 29.723,-11.3947 z" fill="#00B894" id="path32555" sodipodi:nodetypes="cssscsscssssssssssssssssscssssscscsssssssssscssscssssscsscssccssssssssccsssssscsssssssssssscssssssssssssssssssssssscssssssssssssssssssssssscssssssssscsssccssssssssssssssssssssssssssssssssccssssssssssscsssssscsscsssssssssssssssscsssssssssssccsssssssssssssscssssss" style="fill:#000000;stroke-width:2.96435"/>
    </g>
  </g>
</svg>