<?xml version="1.0" ?><svg height="109.70184mm" viewBox="0 0 160.15395 109.70184" width="160.15395mm" xmlns="http://www.w3.org/2000/svg">
    <path d="m 22321.025,24627.507 c 0,0 -17.02,92.944 -7.212,125.916 9.809,32.972 33.753,54.174 33.753,54.174 l 0.288,-81.954 27.213,20.857 39.234,-12.029 c 0,0 16.443,-33.924 19.231,-34.703 2.789,-0.779 12.886,12.202 13.463,19.298 0.577,7.097 -2.019,34.617 -2.019,34.617 0,0 19.808,34.962 19.52,48.03 -0.288,13.067 -29.04,41.106 -48.945,42.145 -19.906,1.038 -49.619,-8.222 -49.619,-8.222 0,0 32.214,31.069 48.08,30.376 15.866,-0.692 84.909,3.375 84.909,3.375 0,0 51.061,-17.827 62.504,-50.886 11.443,-33.058 21.252,-109.993 -1.25,-152.397 -22.501,-42.405 -23.847,-49.675 -0.673,-46.04 23.175,3.635 126.931,28.558 157.51,57.463 30.579,28.904 58.946,99.695 58.946,99.695 0,0 -86.929,-10.645 -103.564,14.885 -16.636,25.529 29.329,110.512 29.329,110.512 0,0 -48.946,-28.905 -77.121,-5.106 -28.175,23.799 -11.924,56.684 -11.924,56.684 0,0 -54.522,-39.463 -74.427,-20.77 -19.905,18.693 -27.502,43.79 -59.331,47.165 -31.829,3.375 -78.947,-46.04 -78.947,-46.04 l -20.963,32.107 c 0,0 -28.175,-53.136 -50.773,-51.492 -22.597,1.644 -48.368,28.299 -48.368,28.299 0,0 -14.809,-90.868 -41.926,-100.56 -27.117,-9.693 -57.407,18.346 -57.407,18.346 0,0 11.058,-70.876 53.272,-135.609 42.215,-64.732 88.371,-95.281 87.217,-98.136 z" fill="#FFFFFF" transform="translate(-25.756387,-93.315769) matrix(0.26458333,0,0,0.26458333,-5841.0344,-6418.77)"/>
    <path d="m 25867.652,27050.432 c -6.021,0.06 -10.532,0.839 -12.949,2.371 -4.9,3.102 -3.37,11.513 7.692,42.326 11.158,31.086 15.108,57.934 13.945,94.81 -0.839,26.628 -1.913,31.999 -9.629,48.194 -9.913,20.805 -24.31,38.991 -41.422,52.322 l -11.807,9.197 -13.681,-6.927 c -25.492,-12.906 -63.91,-6.731 -72.27,11.615 -4.637,10.181 0.862,12.45 17.998,7.428 15.568,-4.566 38.384,-3.049 50.01,3.32 10.262,5.622 12.929,5.229 31.797,-4.703 32.422,-17.066 61.248,-55.339 68.781,-91.319 8.991,-42.935 -4.063,-110.161 -28.285,-145.668 -7.262,-10.645 -7.565,-11.918 -2.859,-11.918 10.475,0 83.805,25.861 103.847,36.624 47.319,25.411 83.721,59.596 104.254,97.9 16.317,30.436 20.724,32.222 19.166,7.764 -2.286,-35.905 -24.115,-65.803 -73.476,-100.643 -34.058,-24.039 -59.928,-35.019 -111.121,-47.166 -15.725,-3.73 -29.956,-5.627 -39.991,-5.527 z m -232.654,1.648 c -5.79,-0.228 -14.254,7.13 -37.289,30.147 -46.779,46.741 -92.185,127.988 -105.143,188.15 -6.57,30.504 -7.046,43.463 -1.597,43.463 2.158,0 10.485,-4.417 18.506,-9.815 17.03,-11.46 37.776,-13.696 45.504,-4.906 8.976,10.21 35.751,74.174 35.791,85.522 0.02,5.816 4.419,6.47 7.591,1.129 1.234,-2.076 8.334,-8.384 15.778,-14.018 21.19,-16.039 27.976,-14.682 49.847,9.965 28.387,31.985 30.114,33.667 32.901,31.945 1.451,-0.896 3.496,-5.113 4.541,-9.367 2.345,-9.539 9.131,-20.357 12.771,-20.357 1.491,0 9.349,6.005 17.463,13.343 8.111,7.337 22.621,17.115 32.24,21.731 15.483,7.425 17.698,9.516 19.301,18.203 2.252,12.2 8.214,24.269 12.92,26.164 v 0 c 1.96,0.788 3.778,1.529 4.037,1.656 0.261,0.122 2.469,-0.546 4.908,-1.482 6.074,-2.332 5.563,-13.135 -1.259,-26.506 -5.38,-10.544 -5.418,-11.245 -0.701,-12.735 2.747,-0.866 7.892,-2.732 11.435,-4.15 3.542,-1.415 6.957,-2.574 7.588,-2.574 0.629,0 6.218,8.685 12.418,19.301 12.012,20.565 17.018,24.454 25.594,19.863 12.692,-6.793 8.76,-24.035 -9.475,-41.559 l -9.787,-9.404 5.66,-9.598 c 3.113,-5.276 8.247,-10.977 11.408,-12.67 9.152,-4.898 34.812,-0.775 54.01,8.676 9.571,4.712 19.455,8.567 21.963,8.567 5.643,0 5.781,-7.971 0.271,-15.256 -4.822,-6.376 -5.428,-24.718 -1.085,-32.834 4.906,-9.169 19.874,-13.598 45.947,-13.598 20.445,0 24.768,0.842 29.72,5.795 4.608,4.608 6.62,5.113 9.815,2.461 6.284,-5.213 4.78,-14.376 -4.824,-29.437 -17.888,-28.046 -25.626,-48.11 -24.026,-62.299 0.997,-8.86 3.463,-14.651 7.69,-18.073 9.793,-7.933 35.624,-14.151 59.428,-14.298 19.072,-0.122 21.83,-0.777 21.83,-5.17 0,-9.786 -13.344,-14.992 -37.743,-14.727 -69.025,0.751 -94.851,39.04 -65.25,96.736 l 9.946,19.385 h -14.655 c -33.467,0 -56.775,14.099 -59.73,36.137 -0.849,6.342 -1.853,11.531 -2.234,11.531 -0.381,0 -5.223,-1.893 -10.76,-4.207 -12.654,-5.289 -36.199,-5.432 -46.135,-0.283 -4.164,2.157 -12.235,9.124 -17.935,15.48 -13.394,14.937 -35.705,25.397 -54.127,25.397 -13.51,0 -14.521,-0.58 -27.768,-15.684 -13.636,-15.545 -20.943,-30.214 -21.18,-42.523 -0.137,-7.1 -7.336,-11.346 -11.75,-6.932 -1.56,1.559 -3.547,8.135 -4.416,14.612 -1.209,9.026 -3.13,12.368 -8.224,14.304 -3.655,1.388 -8.07,5.65 -9.809,9.469 -3.148,6.908 -3.273,6.834 -23.1,-13.969 -18.788,-19.711 -20.631,-20.908 -32.035,-20.908 -14.446,0 -20.963,3.04 -34.66,16.127 l -10.307,9.848 -3.128,-12.284 c -16.005,-62.852 -22.056,-75.926 -38.27,-82.699 -14.397,-6.017 -24.266,-4.858 -49.283,5.785 -4.24,1.802 -4.442,0.908 -1.887,-8.343 6.56,-23.757 34.007,-78.93 56.799,-114.178 22.822,-35.297 51.266,-71.261 54.111,-68.416 0.69,0.69 -0.889,12.924 -3.511,27.189 -8.492,46.209 -1.876,88.804 16.203,104.299 12.644,10.838 14.479,5.922 11.586,-31.049 -2.532,-32.369 -2.396,-39.333 1.861,-94.425 2.524,-32.641 2.333,-36.807 -1.799,-39.848 -1.463,-1.077 -2.875,-1.735 -4.496,-1.799 z m 114.67,77.129 c -2.789,0.129 -5.113,1.65 -8.701,5.02 -3.808,3.58 -9.11,11.788 -11.779,18.242 -4.758,11.499 -5.237,11.807 -24.057,15.287 l -19.205,3.551 -11.123,-10.049 c -19.8,-17.888 -26.623,-12.167 -23.916,20.049 1.005,11.974 1.714,31.236 1.588,42.802 -0.194,16.727 1.074,23.604 6.191,33.61 4.166,8.149 7.838,12.248 16.514,18.25 -0.174,4.65 3.84,12.959 8.519,14.121 7.348,1.824 8.112,-2.817 13.989,-1.34 12.574,3.17 41.415,-3.083 53.316,-9.759 13.077,5.963 17.894,-4.617 20.063,-13.121 16.243,-15.264 20.132,-30.626 6.044,-57.651 -8.252,-15.833 -9.451,-20.213 -7.009,-25.573 7.972,-17.495 -0.33,-47.338 -14.536,-52.265 -2.383,-0.827 -4.224,-1.251 -5.898,-1.174 z m -1.822,25.139 c 1.806,-0.03 2.771,2.667 2.771,8.076 0,4.627 -0.944,8.254 -2.101,8.086 -11.241,-1.737 -11.933,-2.652 -7.328,-9.682 2.815,-4.296 5.064,-6.452 6.658,-6.48 z m -78.377,27.703 c 1.634,0 2.187,1.262 1.234,2.806 -0.952,1.541 -2.29,2.803 -2.969,2.803 -0.681,0 -1.236,-1.262 -1.236,-2.803 0,-1.544 1.337,-2.806 2.971,-2.806 z m 50.535,1.603 c 7.282,0.109 16.273,2.185 19.978,4.612 9.415,6.17 24.657,35.832 24.657,47.99 0,12.855 -3.219,14.637 -8.817,4.883 -2.45,-4.271 -6.991,-8.429 -10.093,-9.241 -3.099,-0.809 -19.912,2.124 -37.356,6.522 -17.446,4.397 -32.235,7.482 -32.863,6.853 -2.963,-2.963 -0.43,-30.182 3.521,-37.824 6.965,-13.467 25.16,-24.033 40.973,-23.795 z m -3.975,18.762 c -0.604,0.06 -1.19,0.25 -1.74,0.59 -4.114,2.542 -3.657,17.581 0.578,19.056 6.086,2.124 10.516,-1.128 10.516,-7.72 0,-6.318 -5.124,-12.342 -9.354,-11.926 z m -22.355,2.459 c -0.372,0 -0.759,0.05 -1.16,0.129 -5.718,1.1 -12.139,12.667 -10.051,18.107 2.389,6.225 11.955,4.333 15.307,-3.027 3.639,-7.985 1.477,-15.339 -4.096,-15.209 z m 35.767,46.733 c 8.443,0 14.724,11.927 4.727,14.361 -1.838,0.448 -9.742,3.008 -17.363,3.008 -11.724,0 -13.856,-0.817 -13.856,-5.309 0,-5.993 14.999,-12.06 26.492,-12.06 z" fill="#00B894" transform="translate(-25.756387,-93.315769) matrix(0.26458333,0,0,0.26458333,-5841.0344,-6418.77) translate(-3313.5291,-2437.8203)"/>
</svg>