<?xml version="1.0" ?><svg height="317.5513mm" viewBox="0 0 471.60791 317.5513" width="471.60791mm" xmlns="http://www.w3.org/2000/svg">
    <path d="m 7954.5888,1660.0987 c -2.4881,-0.01 -5.4107,1.4421 -8.4009,4.2152 -2.5222,2.339 -1.7985,3.862 0.3786,5.4532 l -0.064,-0.027 -21.2393,-4.7526 c 0,0 -12.4653,5.0052 -24.899,10.6389 0.1581,-0.1042 0.345,-0.222 0.4943,-0.322 8.6327,-5.7789 32.7442,-12.0541 22.3255,-13.0492 -10.4188,-0.995 -46.0952,-0.8052 -66.8901,6.0836 -20.7949,6.8888 -52.8183,29.7377 -52.8183,29.7377 0,0 -1.9544,4.5165 2.2131,7.6164 4.1675,3.1 33.0845,15.6138 33.0845,15.6138 0,0 18.9665,-19.0963 24.4523,-23.1531 1.045,-0.7728 2.749,-1.8727 4.875,-3.1835 -13.3315,11.0565 -29.3273,26.3366 -29.3273,26.3366 0,0 52.3224,22.4159 56.5346,24.6291 4.2121,2.2133 27.4408,7.6119 27.4408,7.6119 l 71.2051,22.0397 29.1822,8.5619 c 0,0 4.0278,-7.5122 3.086,-15.5411 -0.9419,-8.0289 -12.8456,-36.5646 -20.9559,-50.0089 -7.8299,-12.9796 -32.6481,-31.169 -34.3701,-32.4224 -1.1845,-2.352 -2.1231,-4.0336 -2.6643,-4.705 -1.5999,-1.9846 -7.5459,-5.1323 -12.818,-7.6708 2.2423,0.4225 4.7392,0.6955 4.9522,-0.1315 0.3927,-1.5253 -0.3715,-11.514 -3.2652,-12.9835 -0.7686,-0.3903 -1.6124,-0.5844 -2.5123,-0.5873 z m 20.0126,33.869 c 4.4886,9.1447 11.2923,23.6834 12.6638,30.4747 -3.195,-8.8049 -8.4067,-21.1764 -12.6638,-30.4747 z m -128.1183,123.3726 c -8.4129,2.7231 -22.626,8.0709 -36.1728,13.3077 -19.8891,-1.6928 -224.7025,-1.5399 -239.5346,-1.6507 -2.749,12.0174 3.7236,11.375 6.689,32.2116 2.7948,16.7548 -14.6196,24.3391 -14.1467,50.9612 0.093,5.2327 0.7517,9.343 1.8208,12.5662 -0.015,0.2121 0,0.4365 0.052,0.678 1.58,7.1102 6.8823,9.0227 9.555,9.8635 0.2914,0.086 0.5889,0.1644 0.8912,0.2334 -0.4423,1.0282 -2.1985,5.4162 -2.7233,11.9246 -1.9496,24.1811 15.3628,22.5961 41.3744,23.0238 37.1285,0.6105 160.4856,6.4539 252.8037,1.2335 92.3181,-5.2204 144.3638,-34.3309 156.3823,-46.7165 14.9405,-19.2623 17.0045,-104.5009 -4.4102,-114.6201 -5.9903,-1.5013 -30.4085,-3.9013 -48.4171,-4.2764 -2.2511,-0.047 -7.6006,-0.045 -7.6006,-0.045 -20.072,-0.4302 -40.2679,-0.2846 -60.8457,1.637 -6.1032,0.8737 -38.3902,5.3047 -55.7174,9.6682 z m -87.1748,33.665 c -9.643,3.9568 -21.0746,8.697 -30.8987,12.9449 6.17,-3.2276 12.1311,-6.316 15.1036,-7.4237 1.5403,-0.574 7.8229,-2.7441 15.7951,-5.5212 z m -64.405,43.1724 c -1.7844,1.5297 -4.2924,2.633 -7.1357,3.4466 1.9796,-0.7782 3.733,-1.6576 5.2696,-2.6349 0.6837,-0.2612 1.3038,-0.5319 1.8661,-0.8117 z m -38.1908,7.7321 c -1.3393,1.057 -2.3499,2.5908 -3.1767,4.6324 0,-0.024 0.01,-0.05 0.014,-0.074 0.8776,-2.6811 1.7915,-3.9798 3.1631,-4.5576 z" fill="#FFFFFF" paint-order="markers stroke fill" transform="translate(115.80797,63.496465) translate(-7679.1165,-1719.7897)"/>
    <path d="m 35825.729,11282.797 v 0 c -5.345,0.01 -17.944,5.039 -28,11.17 -18.005,10.98 -19.156,10.972 -76.057,-0.491 -81.266,-16.372 -179.633,-12.752 -243.627,8.967 -84.871,28.803 -213.029,100.629 -224.268,125.69 -9.047,20.174 -5.832,36.883 9.092,47.258 45.498,31.631 227.24,118.854 327.901,157.369 28.705,10.983 43.225,19.561 41.99,24.81 -1.037,4.411 -21.635,49.131 -45.776,99.377 l -43.892,91.356 -71.231,18.179 c -72.898,18.62 -137.441,39.185 -219.599,61.776 l -300.547,-2.362 c -276.177,-2.17 -429.464,-5.567 -538.891,1.836 -82.424,5.576 -36.303,22.513 142.692,19.44 106.238,-1.826 202.615,-1.007 278.472,-0.274 85.833,0.829 179.241,-1.268 249.258,-1.015 89.691,0.326 127.246,-1.944 127.246,2.48 0,3.465 -9.874,9.516 -21.941,13.442 -12.064,3.927 -51.941,21.243 -88.613,38.48 -36.672,17.238 -70.937,31.342 -76.143,31.342 -5.206,0 -19.38,5.313 -31.498,11.808 -16.62,8.907 -24.77,10.345 -33.168,5.85 -14.005,-7.495 -94.034,-7.807 -113.404,-0.443 -7.978,3.034 -16.194,10.833 -18.256,17.33 -3.324,10.47 -9.525,12.004 -54.557,13.498 -49.517,1.643 -51.008,2.111 -58.851,18.508 -7.635,15.966 -9.506,16.652 -36.627,13.439 -15.719,-1.862 -28.58,-2.059 -28.58,-0.437 0,1.62 9.489,6.91 21.084,11.755 27.059,11.307 53.903,5.866 60.822,-12.33 6.222,-16.367 32.382,-23.447 54.943,-14.869 25.582,9.726 38.25,7.242 55.082,-10.801 14.119,-15.135 20.629,-17.236 62.561,-20.218 l 46.802,-3.328 -35.101,11.494 c -41.963,13.741 -61.333,34.147 -61.401,64.603 -0.05,39.36 -40.104,59.2 -115.324,57.127 -56.514,-1.558 -62.263,1.939 -69.027,41.979 -2.093,12.389 -7.176,25.325 -11.297,28.744 -15.973,13.257 -76.837,29.562 -110.978,29.736 -38.263,0.192 -97.079,19.895 -101.721,34.076 -2.022,6.175 1.763,6.942 17.111,3.459 10.839,-2.459 43.37,-4.028 72.293,-3.486 39.199,0.734 62.752,-2.16 92.518,-11.373 54.976,-17.014 68.423,-29.815 73.299,-69.766 5.703,-46.731 3.346,-30.852 53.291,-36.16 81.763,-6.773 134.573,-32.557 135.093,-65.955 0.277,-17.775 24.786,-42.175 47.242,-47.033 26.765,-5.79 69.999,-28.068 83.526,-43.037 6.062,-6.707 13.199,-10.85 15.861,-9.205 2.662,1.645 38.275,-10.279 79.141,-26.498 43.851,-15.202 85.842,-32.462 128.783,-49.905 l 49.334,-18.545 c 44.331,-16.82 54.577,-23.66 135.627,-47.716 56.586,-16.529 92.132,-24.009 92.215,-19.407 0.04,2.071 -7.2,20.048 -16.088,39.948 -15.523,34.753 -17.302,41.915 -39.561,38.222 -40.081,-6.652 -43.113,16.098 -26.689,16.916 18.683,0.93 39.627,0.73 55.441,8.694 19.032,9.586 30.718,12.519 34.563,8.674 3.844,-3.846 3.489,-8.605 -1.051,-14.075 -5.417,-6.527 -1.896,-18.764 16.744,-58.172 12.983,-27.448 27.719,-51.484 32.744,-53.412 5.026,-1.93 20.411,-7.544 32.586,-8.509 64.072,-5.084 120.564,-10.306 174.121,-10.618 52.556,-0.306 123.947,1.662 228.836,15.268 24.468,3.174 56.993,12.962 61.502,5.666 8.096,-13.099 -28.433,-19.204 -76.81,-24.766 -114.029,-18.328 -251.137,-21.731 -379.561,-9.359 -27.041,2.817 -32.774,11.206 5.08,-78.611 14.73,-34.95 22.073,-48.468 26.524,-61.914 0.833,-2.514 5.764,-15.715 9.709,-23.495 7.502,-14.793 19.481,-9.974 41.525,-2.127 112.868,40.175 344.826,107.204 389.459,107.204 24.352,0 29.097,-15.788 22.481,-74.776 -5.998,-53.472 -25.783,-116.375 -50.528,-160.65 -30.839,-55.177 -125.419,-152.525 -178.848,-184.086 -12.18,-7.196 -17.076,-14.632 -17.076,-25.932 0,-18.408 -25.818,-51.856 -40.007,-51.818 z m -11.407,29.851 v 0 c 6.947,0.01 16.323,5.257 16.323,10.911 0,7.43 -6.057,7.573 -17.381,0.41 -4.739,-2.993 -6.822,-7.227 -4.641,-9.409 1.339,-1.337 3.384,-1.917 5.699,-1.914 z m -187.031,0.114 c 9.413,-0.06 17.443,0.429 23.475,1.56 l 21.779,4.086 -70.08,35.08 c -77.287,38.688 -152.57,92.092 -185.711,131.739 -11.835,14.157 -24.251,25.52 -27.592,25.252 -3.34,-0.27 -35.016,-14.313 -70.391,-31.206 -36.238,-17.305 -90.871,-21.921 -39.32,-46.494 44.421,-28.041 150.658,-78.945 197.75,-94.754 42.549,-14.283 109.3,-24.988 150.09,-25.263 z m 101.891,14.162 c 7.435,0.326 15.365,2.4 24.572,6.994 30.831,9.859 33.022,2.989 26.76,36.352 -2.032,14.637 -20.835,79.268 -41.784,143.623 -20.949,64.354 -39.773,118.541 -41.83,120.416 -9.157,8.347 -281.683,-101.12 -285.22,-114.567 -0.847,-3.218 15.095,-19.883 35.427,-37.035 68.352,-57.662 154.201,-109.801 231.872,-140.824 19.883,-7.942 33.845,-15.677 50.203,-14.959 z m 69.48,26.082 c 8.916,0 62.4,30.965 73.209,42.385 13.706,14.479 49.278,81.914 61.531,116.642 4.27,12.1 12.044,51.693 17.276,87.985 5.231,36.291 8.664,77.958 7.631,92.591 l -1.879,26.606 -78.981,-21.789 c -102.269,-28.214 -155.728,-48.8 -152.719,-58.813 1.276,-4.242 11.161,-36.671 21.965,-72.066 31.125,-101.962 48.848,-172.244 48.848,-193.705 0,-10.91 1.404,-19.836 3.119,-19.836 z m 121.709,77.984 c 1.346,-1.345 24.008,20.707 50.361,49.004 68.087,73.109 110.965,167.793 111.379,245.975 0.08,14.433 -2.365,18.895 -10.136,18.517 -15.278,-0.742 -71.479,-14.916 -75.639,-19.076 -1.99,-1.989 -4.647,-16.169 -5.904,-31.512 -7.95,-97.059 -31.826,-191.503 -60.854,-240.709 -6.408,-10.863 -10.552,-20.854 -9.207,-22.199 z m 109.188,530.459 c -3.218,0 -5.85,2.634 -5.85,5.852 0,3.217 2.632,5.849 5.85,5.849 3.217,0 5.851,-2.632 5.851,-5.849 0,-3.218 -2.634,-5.852 -5.851,-5.852 z m -159.012,24.588 c -6.603,0 -13.943,0.288 -22.352,0.822 -24.133,1.533 -59.98,4.158 -66.033,4.452 -105.607,5.124 -218.2,12.604 -315.903,23.913 -71.047,8.223 -154.937,21.43 -221.435,37.339 -45.981,11 -103.754,25.111 -145.879,33.745 -35.364,7.232 -41.249,16.004 -26.222,16.961 18.421,1.174 9.334,21.864 -4.381,21.864 -9.998,0 -33.354,2.753 -33.354,5.971 0,3.218 8.054,5.847 17.897,5.847 25.473,0 15.475,11.506 -10.93,12.578 -17.661,0.717 -23.875,8.691 -10.699,10.569 11.154,1.589 20.557,0.322 19.049,7.191 -0.354,1.609 -1.808,4.106 -2.719,6.184 -12.677,-1.921 -21.105,-2.239 -31.094,-3.244 -10.698,-1.076 -13.901,11.018 -2.64,10.353 7.775,-0.459 21.617,0.79 29.445,1.606 -1.949,3.255 -4.191,6.555 -6.526,9.833 -15.094,-0.984 -21.883,-1.415 -32.384,-0.736 -11.261,0.729 -21.993,3.579 -15.272,8.361 5.332,3.794 29.032,3.844 38.625,3.702 -4.993,5.643 -9.652,10.139 -12.103,10.183 -19.262,0.345 -15.817,0.8 -21.264,0.86 -19.686,0.219 -33.181,6.089 -9.137,10.277 27.346,4.762 24.59,9.613 -10.279,8.978 -13.28,-0.242 -12.468,4.517 2.992,6.909 23.084,3.57 19.831,11.947 -7.49,19.304 -12.968,3.492 -22.308,8.404 -20.756,10.914 5.378,8.702 60.739,5.746 313.453,-16.753 72.399,-6.445 143.276,-12.39 157.506,-13.204 3.283,-0.188 6.406,-0.723 9.412,-1.048 54.194,-5.863 117.082,-1.146 161.426,-5.731 20.521,-2.122 71.286,-6.257 112.818,-9.148 61.975,-4.314 77.514,-7.258 86.678,-16.422 9.64,-9.641 14.307,-10.328 34.152,-5.031 16.561,4.419 24.815,4.298 29.528,-0.415 10.364,-10.364 0.455,-19.253 -21.451,-19.253 -22.503,0 -22.531,-0.04 -14,-18.758 5.342,-11.723 9.581,-13.185 32.88,-11.332 20.585,1.637 26.146,0.294 24.133,-5.83 -1.439,-4.377 -10.97,-8.783 -21.179,-9.791 -26.734,-2.641 -22.895,-12.793 4.837,-12.793 12.871,0 23.403,-2.64 23.403,-5.858 0,-3.218 -7.9,-5.845 -17.553,-5.845 -19.909,0 -19.939,-0.05 -10.892,-19.916 5.485,-12.036 11.416,-14.927 33.64,-16.368 14.84,-0.962 26.192,-4.374 25.227,-7.591 -0.965,-3.219 -10.951,-5.266 -22.194,-4.541 -12.087,0.779 -18.999,-1.008 -16.914,-4.381 1.939,-3.138 13.746,-5.705 26.237,-5.705 12.491,0 24.337,-2.641 26.326,-5.858 2.157,-3.492 -4.977,-5.847 -17.694,-5.847 -14.215,0 -20.505,-2.387 -18.92,-7.166 1.533,-4.598 11.669,-6.524 28.278,-5.381 27.413,1.887 27.098,-7.3 -0.44,-12.778 -10.216,-2.03 -8.453,-2.697 5.85,-2.222 28.845,0.956 26.475,-8.606 -5.232,-21.11 -15.492,-6.108 -28.663,-8.665 -48.471,-8.66 z m 5.193,17.379 c 8.116,0.154 13.408,0.639 13.408,1.635 0,1.455 -11.424,19.217 -25.388,39.482 -13.964,20.265 -38.938,59.53 -55.498,87.254 -16.561,27.724 -34.183,53.788 -39.16,57.92 -4.979,4.131 -28.053,8.323 -51.274,9.314 -23.802,1.017 -53.096,6.329 -80.971,9.604 -33.847,3.976 -178.03,13.822 -233.189,16.152 -31.928,1.348 -77.134,2.728 -124.932,8.444 -39.137,4.679 -110.343,11.301 -158.236,14.713 -47.893,3.411 -93.307,7.76 -100.92,9.67 -16.884,4.238 -17.309,0.113 -2.178,-21.137 2.644,-3.712 4.582,-6.619 5.944,-8.998 17.178,-25.777 40.624,-44.556 51.533,-67.117 8.362,-17.293 12.254,-24.675 21.435,-38.6 19.3,-29.276 26.44,-17.944 174.786,-59.473 66.564,-15.275 103.163,-19.066 173.772,-28.626 102.178,-13.835 275.987,-23.474 348.224,-27.704 8.535,-0.499 58.297,-2.996 82.644,-2.533 z m 157.129,45.789 c -18.239,0 -20.861,1.803 -20.861,14.336 0,7.884 4.607,17.019 10.238,20.299 14.061,8.19 31.647,7.457 43.877,-1.826 21.181,-16.079 4.224,-32.809 -33.254,-32.809 z m -4.195,12.395 c 13.566,0.285 35.988,6.199 35.988,11.257 0,7.14 -29.475,7.111 -40.783,-0.04 -4.729,-2.993 -6.832,-7.214 -4.662,-9.384 1.396,-1.396 4.935,-1.927 9.457,-1.832 z m -39.723,22.709 c -7.377,0 -12.66,9.136 -7.986,13.81 6.588,6.589 13.492,4.012 13.492,-5.035 0,-4.826 -2.478,-8.775 -5.506,-8.775 z m -104.265,6.127 c -5.876,0 -13.189,1.858 -18.938,5.574 -6.659,4.303 -4.19,5.695 10.238,5.76 10.458,0.05 19.014,-2.543 19.014,-5.76 0,-3.716 -4.439,-5.574 -10.314,-5.574 z m -1112.274,30.888 c -9.347,-0.03 -13.334,8.793 -7.189,20.274 9.313,17.402 -6.451,20.933 -44.317,9.925 -34.559,-10.046 -42.791,-8.181 -42.791,9.7 0,10.668 -2.445,11.456 -24.152,7.789 -23.186,-3.918 -25.032,-3.06 -46.113,21.418 -27.662,32.117 -24.968,26.98 -70.916,27.377 -29.518,1.133 -63.467,-1.559 -85.5,-6.782 -35.34,-8.375 -50.032,-5.622 -35.061,6.569 11.113,9.048 51.379,24.977 77.455,30.64 29.747,6.461 81.095,2.117 101.85,-8.615 20.226,-10.459 29.396,-21.502 35.138,-42.316 4.595,-16.654 10.535,-18.62 33.836,-11.192 9.103,2.902 16.413,0.554 24.998,-8.031 8.755,-8.755 14.948,-10.682 22.239,-6.92 33.079,17.072 79.26,10.941 86.371,-11.465 4.143,-13.054 -5.285,-31.762 -18.578,-36.863 -2.67,-1.025 -5.113,-1.502 -7.27,-1.508 z m -165.172,7.711 c -9.544,0.624 -11.546,5.624 -7.498,16.174 4.161,10.845 10.447,11.627 26.104,3.248 16.335,-8.742 13.935,-15.633 -6.492,-18.631 -4.913,-0.721 -8.932,-0.999 -12.114,-0.791 z m 1424.383,0.67 v 0 c -25.042,0.776 -43.041,14.193 -43.041,30.518 0,12.969 23.568,34.575 44.576,40.865 39.005,11.679 66.582,2.594 66.582,-21.936 0,-18.413 -9.384,-32.91 -24.756,-38.248 -9.231,-3.205 -9.124,-1.638 1.225,17.672 13.451,25.096 11.18,31.012 -11.918,31.012 -12.293,0 -17.207,-2.84 -17.207,-9.946 0,-7.736 -1.56,-8.385 -7.02,-2.925 -10.151,10.15 -19.165,8.649 -10.531,-1.754 5.965,-7.187 5.565,-8.776 -2.209,-8.776 -5.221,0 -9.492,3.071 -9.492,6.825 0,3.754 -1.74,5.087 -3.865,2.961 -2.125,-2.125 0.917,-9.146 6.759,-15.602 11.683,-12.909 8.304,-15.009 -9.13,-5.678 -7.124,3.811 -11.315,3.938 -11.315,0.342 0,-8.498 11.637,-15.113 38.129,-16.309 22.031,-0.995 25.817,-7.995 -1.689,-9.005 -1.729,-0.06 -3.432,-0.07 -5.102,-0.02 z m -1469.877,13.74 c -3.654,0.16 -6.49,2.565 -6.49,7.858 0,13.721 -28.405,22.819 -49.729,15.927 -16.018,-5.176 -14.741,-5.732 14.627,-6.359 40.183,-0.858 28.537,-11.987 -12.685,-12.119 -47.402,-0.155 -61.233,14.576 -29.731,31.666 8.849,4.8 29.325,8.831 45.502,8.963 34.803,0.277 56.955,-12.367 54.289,-30.986 -1.323,-9.242 -9.692,-15.215 -15.783,-14.95 z m 1283.525,22.77 c -24.207,0 -27.591,10.011 -4.388,12.982 18.364,2.352 24.865,0.397 24.865,-7.478 0,-3.028 -9.214,-5.504 -20.477,-5.504 z m 102.727,58.502 c -7.378,0 -12.661,9.136 -7.986,13.81 6.588,6.589 13.492,4.012 13.492,-5.035 0,-4.826 -2.478,-8.775 -5.506,-8.775 z m -1180.309,24.234 c -19.28,0.221 -31.07,10.987 -31.07,29.203 0,24.723 -27.597,49.122 -69.193,61.172 -18.254,5.288 -38.453,11.762 -44.889,14.387 -27.002,11.012 33.04,5.068 62.672,-6.205 45.86,-17.446 58.648,-29.461 62.625,-58.836 3.073,-22.698 5.445,-25.79 23.887,-31.123 19.883,-5.75 20.019,-5.983 4.677,-8.037 -3.047,-0.408 -5.954,-0.592 -8.709,-0.561 z m 1056.76,28.42 c -3.028,0 -5.504,2.632 -5.504,5.85 0,3.217 4.103,5.851 9.119,5.851 5.02,0 7.495,-2.634 5.506,-5.851 -1.988,-3.218 -6.093,-5.85 -9.121,-5.85 z m -59.056,1.504 c -3.601,0.514 -7.654,3.676 -9.461,9.1 -1.274,3.821 1.852,6.947 6.947,6.947 5.095,0 9.262,-4.167 9.262,-9.262 0,-5.166 -3.148,-7.299 -6.748,-6.785 z m 110.332,12.357 c -1.683,-0.169 -3.498,0.721 -5.448,2.67 -3.219,3.218 -3.94,8.942 -1.605,12.721 2.83,4.58 6.195,4.92 10.096,1.02 3.219,-3.218 3.941,-8.943 1.605,-12.721 -1.414,-2.289 -2.965,-3.519 -4.646,-3.69 z m -284.602,3.69 c -3.407,0 -6.195,2.632 -6.195,5.849 0,3.218 1.161,5.852 2.58,5.852 1.419,0 4.206,-2.634 6.195,-5.852 1.989,-3.217 0.828,-5.849 -2.58,-5.849 z m 204.42,17.551 c -3.218,0 -5.852,2.631 -5.852,5.849 0,3.218 2.634,5.852 5.852,5.852 3.218,0 5.85,-2.634 5.85,-5.852 0,-3.218 -2.632,-5.849 -5.85,-5.849 z m -96.531,10.822 c -3.057,0 -6.502,2.832 -7.655,6.291 -1.153,3.459 2.292,6.289 7.655,6.289 5.363,0 8.806,-2.83 7.654,-6.289 -1.153,-3.459 -4.597,-6.291 -7.654,-6.291 z m -681.229,12.58 c -7.378,0 -12.661,9.134 -7.986,13.809 6.588,6.588 13.492,4.013 13.492,-5.034 0,-4.826 -2.478,-8.775 -5.506,-8.775 z m -72.82,2.01 c -2.098,-0.353 -3.58,0.938 -3.58,3.494 0,3.408 2.634,6.195 5.851,6.195 3.218,0 5.85,-1.158 5.85,-2.578 0,-1.419 -2.632,-4.208 -5.85,-6.197 -0.804,-0.497 -1.572,-0.797 -2.271,-0.914 z m -38.981,10.756 c -3.158,-0.186 -5.55,2.764 -5.55,7.222 0,5.095 4.167,9.264 9.261,9.264 10.332,0 8.534,-12.595 -2.314,-16.211 -0.478,-0.159 -0.945,-0.249 -1.397,-0.275 z m 274.444,11.535 c -2.859,-0.04 -5.026,3.182 -5.026,7.875 0,5.363 2.831,8.807 6.289,7.654 3.46,-1.153 6.29,-4.597 6.29,-7.654 0,-3.057 -2.83,-6.502 -6.29,-7.655 -0.432,-0.144 -0.855,-0.215 -1.263,-0.22 z m -64.918,1.433 c -6.06,0 -12.575,1.576 -17.912,5.032 -7.082,4.584 -20.775,10.246 -30.428,12.582 -27.32,6.61 -43.879,19.837 -43.879,35.05 0,16.388 9.764,25.401 39.436,36.409 27.505,10.204 68.564,6.872 83.66,-6.789 14.787,-13.387 14.674,-38.943 -0.24,-52.44 -6.435,-5.824 -11.702,-13.953 -11.702,-18.064 0,-7.387 -8.832,-11.775 -18.931,-11.78 z m -156.229,15.219 c -7.377,0 -12.661,9.135 -7.986,13.809 6.588,6.589 13.492,4.014 13.492,-5.033 0,-4.827 -2.478,-8.776 -5.506,-8.776 z m -172.4,2.127 c -4.688,-0.01 -9.128,5.127 -6.131,9.977 1.851,2.995 5.842,5.447 8.869,5.447 6.29,0 7.329,-7.93 1.766,-13.492 -1.351,-1.351 -2.942,-1.928 -4.504,-1.932 z m 290.715,21.274 c 2.01,0 -0.83,7.882 -6.311,17.515 -10.553,18.546 -18.742,22.791 -18.742,9.719 0,-7.75 17.924,-27.234 25.053,-27.234 z m 21.441,0.445 c 2.695,0.355 2.644,6.575 -2.318,18.375 -4.352,10.351 -10.807,19.785 -14.344,20.965 -8.648,2.882 -8.104,-2.028 2.496,-22.526 6.03,-11.659 11.471,-17.169 14.166,-16.814 z m -44.853,0.09 c 0.691,0.149 1.307,0.463 1.814,0.97 1.473,1.473 -1.334,6.016 -6.238,10.078 -5.561,4.615 -8.918,5.059 -8.918,1.18 0,-6.187 8.499,-13.272 13.342,-12.228 z m 71.156,1.039 c 1.343,0.119 3.366,1.877 6.398,4.91 5.093,5.086 7.355,13.252 5.225,18.805 -6.208,16.175 -14.215,11.11 -14.215,-8.991 0,-10.572 0.353,-14.923 2.592,-14.724 z m -14.158,15.976 c 2.542,0 3.244,5.266 1.56,11.701 -1.682,6.436 -5.138,11.702 -7.679,11.702 -2.543,0 -3.244,-5.266 -1.561,-11.702 1.683,-6.435 5.138,-11.701 7.68,-11.701 z m 316.132,0 c -3.399,0 -6.195,2.634 -6.195,5.852 0,3.217 1.161,5.849 2.58,5.849 1.419,0 4.207,-2.632 6.196,-5.849 1.988,-3.218 0.827,-5.852 -2.581,-5.852 z" fill="#00B894" transform="translate(115.80797,63.496465) translate(-7679.1165,-1719.7897) matrix(0.26458333,0,0,0.26458333,-1524.344,-1328.9457)"/>
</svg>