<?xml version="1.0" ?><svg height="321.66492mm" viewBox="0 0 217.38365 321.66492" width="217.38365mm" xmlns="http://www.w3.org/2000/svg">
    <path d="m 32822.557,28930.096 v 0 c -2.465,0.149 -5.85,3.046 -5.85,3.046 -1.18,2.116 -2.277,4.4 -3.312,6.704 -1.616,-1.528 -3.081,-3.02 -4.235,-4.534 -3.743,-4.908 -8.587,-3.895 -3.959,4.026 1.053,1.802 2.711,4.277 4.613,6.941 -2.828,0.721 -5.456,1.316 -7.861,1.49 -6.156,0.447 -7.964,5.057 1.199,5.518 1.2,0.06 2.701,0.07 4.364,0.05 -0.605,1.257 -1.203,2.427 -1.795,3.373 -3.209,5.125 -3.035,13.604 2.023,7.724 1.816,-2.111 4.687,-6.235 7.567,-10.861 5.485,6.884 11.202,12.916 12.738,11.652 2.525,-2.079 -1.841,-11.924 -2.41,-13.179 6.609,-0.865 11.863,-2.129 11.689,-3.717 -0.382,-3.466 -12.834,-5.279 -12.834,-5.279 -1.182,0.147 -2.339,0.335 -3.476,0.545 2.585,-5.029 4.339,-9.475 3.923,-11.467 -0.334,-1.602 -1.263,-2.104 -2.384,-2.037 z m -38.651,1.162 0.01,0.01 c -0.146,-0.02 -0.295,-0.01 -0.445,0 -4.017,0.5 -9.472,12.951 -9.746,21.149 -0.368,11.027 -0.377,66.452 -0.629,91.976 a 51.113773,51.113773 0 0 0 -26.418,10.102 c -22.467,-20.468 -55.799,-50.635 -67.61,-60.107 -18.072,-14.493 -19.527,1.639 -14.353,6.23 4.339,3.851 37.197,37.122 71.33,64.707 a 51.113773,51.113773 0 0 0 -9.731,29.998 51.113773,51.113773 0 0 0 0.354,5.973 c -13.512,3.98 -30.645,8.89 -46.43,13.428 -0.776,-2.755 -2.413,-7.138 -4.443,-11.84 8.782,-0.585 16.998,-1.844 16.834,-3.827 -0.271,-3.258 -10.85,-5.279 -12.205,-5.527 3.054,-5.925 5.007,-10.965 3.603,-11.726 -3.066,-1.662 -11.648,7.539 -11.648,7.539 -0.556,1.054 -1.048,2.116 -1.535,3.166 -2.659,-4.989 -5.319,-8.966 -7.192,-9.76 -1.508,-0.636 -2.445,-0.158 -3.029,0.801 -1.281,2.11 -0.828,6.545 -0.828,6.545 1.067,2.176 2.318,4.376 3.621,6.539 -2.177,0.457 -4.236,0.814 -6.139,0.9 -6.167,0.28 -8.096,4.836 1.051,5.547 2.081,0.16 5.06,0.205 8.332,0.16 -1.017,2.735 -2.024,5.238 -3.252,7.313 -3.139,5.314 -0.381,9.424 5.219,2.156 0.732,-0.952 1.595,-2.179 2.525,-3.557 0.688,1.214 1.307,2.372 1.746,3.397 0.561,1.308 1.387,2.561 2.288,3.625 -15.411,4.435 -29.065,8.392 -35.467,10.429 -17.999,7.322 -3.565,14.044 11.703,9.18 9.572,-3.05 48.329,-15.401 77.172,-25.355 a 51.113773,51.113773 0 0 0 15.754,23.859 c -17.176,22.622 -50.81,72.819 -58.098,83.49 -8.359,12.236 -1.56,19.607 8.248,5.615 8.406,-11.992 47.44,-65.276 59.988,-82.396 a 51.113773,51.113773 0 0 0 22.938,5.436 51.113773,51.113773 0 0 0 28.564,-8.729 c 12.837,14.709 32.283,40.61 38.239,48.932 1.641,2.292 3.422,4.231 5.226,5.849 0.842,1.276 1.807,2.676 2.858,4.149 -2.828,0.721 -5.459,1.318 -7.864,1.492 -6.156,0.447 -7.962,5.054 1.201,5.515 1.2,0.06 2.699,0.07 4.362,0.05 -0.605,1.257 -1.201,2.425 -1.793,3.371 -3.209,5.125 -3.037,13.607 2.021,7.727 1.816,-2.111 4.689,-6.237 7.569,-10.863 5.485,6.884 11.202,12.918 12.738,11.654 2.525,-2.079 -1.841,-11.925 -2.41,-13.18 6.609,-0.865 11.861,-2.132 11.687,-3.72 -0.382,-3.466 -12.834,-5.276 -12.834,-5.276 -0.92,0.114 -1.819,0.259 -2.711,0.414 -0.09,-0.252 -0.181,-0.506 -0.31,-0.773 2.328,-4.65 3.861,-8.694 3.471,-10.565 -0.335,-1.602 -1.264,-2.102 -2.385,-2.035 -2.465,0.149 -5.854,3.049 -5.854,3.049 -0.372,0.667 -0.732,1.354 -1.088,2.049 -2.703,-2.938 -5.982,-6.349 -9.314,-10.297 -5.844,-6.926 -20.796,-29.262 -33.172,-45.975 a 51.113773,51.113773 0 0 0 12.469,-27.24 c 36.657,-1.133 103.54,-3.496 108.467,-5.822 6.799,-3.209 -1.391,-10.38 -17.885,-9.627 -13.661,0.623 -66.653,0.803 -90.694,1.244 a 51.113773,51.113773 0 0 0 -3.519,-12.51 c 18.332,-17.558 40.685,-39.416 49.672,-50.115 16.25,-19.346 36.141,-28.527 33.299,-32.986 -2.841,-4.46 -8.452,-2.624 -20.694,7.935 -4.178,3.604 -14.202,12.827 -25.822,23.547 0.295,-0.592 0.306,-1.649 -0.107,-3.289 -0.68,-2.701 -2.397,-7.426 -4.52,-12.445 8.787,-0.518 17.01,-1.715 16.861,-3.699 -0.245,-3.261 -10.808,-5.364 -12.162,-5.622 3.1,-5.901 5.094,-10.923 3.696,-11.695 -3.053,-1.685 -11.707,7.447 -11.707,7.447 -0.561,1.051 -1.071,2.106 -1.555,3.157 -2.621,-5.01 -5.248,-9.005 -7.115,-9.813 -1.502,-0.65 -2.448,-0.181 -3.039,0.774 -1.298,2.1 -0.879,6.541 -0.879,6.541 1.05,2.184 2.287,4.393 3.574,6.566 -2.18,0.441 -4.244,0.781 -6.147,0.852 -6.168,0.232 -8.131,4.776 1.01,5.556 2.08,0.177 5.059,0.245 8.332,0.225 -1.039,2.727 -2.066,5.221 -3.31,7.287 -3.18,5.289 -0.454,9.42 5.201,2.195 0.74,-0.946 1.612,-2.164 2.553,-3.535 0.679,1.219 1.29,2.381 1.722,3.41 1.595,3.8 5.37,7.207 7.014,6.614 -13.795,12.727 -29.894,27.615 -42.858,39.349 a 51.113773,51.113773 0 0 0 -29.962,-18.365 c 0.03,-29.047 0.08,-75.52 0.191,-98.443 0.05,-11.066 -1.612,-15.276 -3.805,-15.512 z m -157.222,62.185 c -3.483,-0.108 -7.08,11.932 -7.08,11.932 -0.03,1.191 0,2.361 0.03,3.518 -4.599,-3.289 -8.748,-5.672 -10.778,-5.551 -1.634,0.1 -2.262,0.945 -2.359,2.064 -0.211,2.459 2.166,6.235 2.166,6.235 1.923,1.475 4.018,2.889 6.147,4.248 -1.747,1.377 -3.43,2.611 -5.096,3.533 -5.401,2.99 -5.106,7.929 3.404,4.502 1.936,-0.781 4.625,-2.065 7.537,-3.559 0.303,2.902 0.512,5.591 0.334,7.996 -0.452,6.155 3.845,8.613 5.633,-0.386 0.233,-1.178 0.461,-2.659 0.682,-4.307 1.156,0.782 2.229,1.543 3.078,2.266 4.605,3.92 13.019,4.98 7.937,-0.879 -1.825,-2.103 -5.488,-5.547 -9.646,-9.069 7.608,-4.426 14.407,-9.202 13.379,-10.906 -1.69,-2.799 -12.065,0.09 -13.389,0.471 0.104,-6.663 -0.384,-12.045 -1.978,-12.108 z m 331.705,52.887 v 0 c -1.149,-0.09 -2.811,1.28 -4.559,4.893 -0.909,1.879 -2.036,4.637 -3.187,7.701 -2.175,-1.946 -4.14,-3.797 -5.625,-5.697 -3.804,-4.861 -8.637,-3.79 -3.911,4.074 0.62,1.03 1.45,2.277 2.393,3.646 -1.38,0.199 -2.687,0.357 -3.803,0.393 -6.043,0.193 -12.986,5.066 -5.285,5.986 2.765,0.331 7.792,0.416 13.238,0.227 -2.657,8.392 -4.479,16.499 -2.574,17.07 3.134,0.937 8.875,-8.178 9.6,-9.35 4.403,5.005 8.38,8.661 9.601,7.631 2.664,-2.25 -2.771,-13.595 -2.771,-13.595 -0.781,-0.899 -1.585,-1.755 -2.393,-2.582 5.616,-0.658 10.287,-1.68 11.709,-3.135 1.143,-1.171 1.043,-2.223 0.362,-3.117 -1.498,-1.963 -5.795,-3.159 -5.795,-3.159 -2.414,0.201 -4.919,0.565 -7.408,0.991 0.367,-2.194 0.787,-4.241 1.4,-6.043 1.118,-3.287 0.487,-5.819 -0.99,-5.936 z m -334.084,92.156 c -3.485,-0.127 -7.088,11.932 -7.088,11.932 -0.03,1.191 0,2.361 0.03,3.518 -4.599,-3.289 -8.745,-5.67 -10.775,-5.549 -1.634,0.1 -2.265,0.943 -2.362,2.062 -0.211,2.459 2.164,6.233 2.164,6.233 1.923,1.475 4.022,2.889 6.151,4.248 -1.747,1.377 -3.432,2.611 -5.098,3.533 -5.401,2.99 -5.106,7.929 3.404,4.502 1.936,-0.781 4.626,-2.063 7.538,-3.557 0.303,2.902 0.512,5.589 0.334,7.994 -0.452,6.155 3.844,8.615 5.632,-0.384 0.233,-1.178 0.463,-2.661 0.684,-4.309 1.156,0.782 2.227,1.545 3.076,2.268 4.605,3.92 13.02,4.978 7.938,-0.881 -1.825,-2.103 -5.489,-5.547 -9.647,-9.069 7.608,-4.426 14.409,-9.2 13.381,-10.904 -1.69,-2.799 -12.067,0.09 -13.391,0.469 0.104,-6.654 -0.381,-12.03 -1.97,-12.106 z m 92.273,79.313 c -3.485,-0.127 -7.09,11.93 -7.09,11.93 -0.03,1.191 0,2.36 0.03,3.517 -4.599,-3.289 -8.746,-5.673 -10.776,-5.553 -1.634,0.1 -2.264,0.948 -2.361,2.067 -0.211,2.459 2.166,6.232 2.166,6.232 1.923,1.475 4.019,2.889 6.148,4.248 -1.747,1.377 -3.433,2.611 -5.099,3.533 -5.401,2.99 -5.102,7.929 3.408,4.502 1.936,-0.781 4.625,-2.062 7.537,-3.556 0.303,2.902 0.512,5.591 0.334,7.996 -0.452,6.155 3.843,8.612 5.631,-0.387 0.233,-1.178 0.462,-2.66 0.683,-4.308 1.156,0.782 2.226,1.544 3.075,2.267 4.605,3.92 13.023,4.978 7.941,-0.881 -1.825,-2.103 -5.492,-5.544 -9.65,-9.066 7.608,-4.426 14.408,-9.204 13.381,-10.908 -1.69,-2.799 -12.065,0.09 -13.389,0.468 0.104,-6.653 -0.381,-12.025 -1.971,-12.101 z m 419.213,38.869 c -45.403,-0.277 -98.427,25.121 -112.238,58.375 -62.786,151.17 76.769,175.951 138.902,148.49 52.822,-23.346 78.875,-109.049 34.281,-179.013 -12.403,-19.461 -35.475,-27.697 -60.945,-27.852 z m -85.164,243.018 c -34.88,0.285 -49.53,24.308 -54.83,66.47 3.133,16.824 2.297,83.838 -4.178,112.881 -6.475,29.042 -30.705,76.036 -16.293,121.244 14.412,45.208 69.869,73.874 127.309,54.983 57.439,-18.892 76.863,-162.505 68.508,-236.098 -8.355,-73.592 -65.794,-113.632 -109.03,-118.801 -4.053,-0.484 -7.878,-0.709 -11.486,-0.679 z" fill="#FFFFFF" paint-order="markers stroke fill" transform="translate(303.72751,79.945572) matrix(0.26458333,0,0,0.26458333,-8053.4236,-7086.2201) translate(-3313.5291,-2437.8203)"/>
    <path d="m 29901.483,27688.187 c -8.89,-4.576 -27.576,-19.494 -41.525,-33.15 -22.232,-21.759 -25.056,-26.218 -22.882,-36.118 1.364,-6.214 0.679,-13.493 -1.524,-16.183 -4.038,-4.922 -15.91,-44.271 -24.642,-81.672 -2.595,-11.114 -9.179,-34.974 -14.632,-53.028 l -9.914,-32.82 -31.351,-1.873 c -33.722,-2.013 -58.399,-11.705 -76.893,-30.201 -7.927,-7.925 -10.852,-8.939 -13.544,-4.692 -5.728,9.038 -4.131,67.196 3.281,119.478 l 7.004,49.4 -11.2,11.691 c -6.159,6.428 -21.354,16.828 -33.762,23.104 -12.41,6.281 -28.753,15.617 -36.315,20.749 -7.563,5.131 -16.202,9.333 -19.199,9.333 -7.793,0 -11.372,-12.094 -5.629,-19.014 5.996,-7.227 36.142,-22.703 65.91,-33.842 12.273,-4.591 22.315,-10.227 22.315,-12.524 0,-2.301 -3.052,-15.353 -6.777,-29.01 -4.633,-16.965 -6.859,-41.477 -7.035,-77.371 -0.213,-45.813 0.874,-54.998 8.583,-71.76 8.342,-18.143 8.48,-20.069 2.52,-34.339 -8.827,-21.126 -5.09,-58.854 10.395,-104.946 11.24,-33.457 12.519,-42.239 12.519,-85.879 0,-28.914 -1.597,-48.614 -3.944,-48.614 -2.168,0 -9.897,3.631 -17.174,8.068 -16.483,10.047 -47.041,10.652 -66.716,1.314 -21.497,-10.199 -41.144,-45.047 -51.215,-90.838 -2.198,-9.994 -3.511,-10.579 -19.084,-8.491 -14.327,1.921 -17.786,0.855 -24.175,-7.454 -4.103,-5.334 -7.496,-13.385 -7.547,-17.892 -0.06,-4.507 -2.974,-12.312 -6.503,-17.35 -5.767,-8.235 -5.792,-10.099 -0.241,-18.57 3.391,-5.179 5.246,-12.938 4.121,-17.241 -1.464,-5.599 0.932,-9.182 8.415,-12.592 7.911,-3.603 9.992,-6.996 8.542,-13.906 -1.055,-5.028 -3.945,-28.235 -6.415,-51.572 -2.47,-23.34 -8.112,-64.919 -12.53,-92.399 -4.419,-27.482 -7.135,-50.868 -6.035,-51.968 3.872,-3.87 14.78,28.808 22.869,68.502 6.711,32.924 20.021,121.297 20.021,132.924 0,1.658 4.091,4.219 9.093,5.692 12.309,3.622 31.385,25.324 28.613,32.549 -1.231,3.211 -0.243,8.245 2.206,11.189 3.304,3.985 2.386,9.611 -3.592,21.981 -4.416,9.144 -8.032,18.466 -8.032,20.711 0,9.67 29.102,64.25 39.325,73.749 19.481,18.104 32.718,17.604 71.19,-2.69 62.456,-32.943 83.548,-36.787 124.516,-22.693 33.954,11.682 54.177,26.252 66.455,47.876 17.83,31.401 66.48,106.958 79.828,123.979 6.806,8.68 26.049,24.711 42.765,35.624 l 30.39,19.838 28.904,-2.71 c 46.676,-4.375 93.481,13.765 77.293,29.953 -2.617,2.616 -4.212,11.078 -3.544,18.807 1.02,11.848 -0.09,14.052 -7.038,14.052 -4.539,0 -10.176,-3.598 -12.528,-7.99 -2.353,-4.395 -7.983,-9.975 -12.512,-12.399 -8.012,-4.286 -8.066,-4.077 -1.929,7.789 15.638,30.237 0.128,39.228 -19.962,11.566 -6.67,-9.186 -18.243,-20.273 -25.725,-24.642 l -13.596,-7.94 2.813,16.636 c 3.26,19.301 -0.06,33.145 -7.946,33.145 -6.512,0 -8.546,-6.272 -12.054,-37.146 -2.596,-22.853 -2.752,-23.078 -24.908,-35.582 -31.617,-17.842 -55.15,-40.931 -77.208,-75.751 -17.15,-27.076 -19.385,-29.198 -21.783,-20.666 -1.467,5.232 -2.85,24.313 -3.074,42.405 -0.496,40.728 -9.493,91.376 -22.96,129.28 -7.896,22.224 -13.821,31.69 -25.918,41.413 l -15.68,12.603 11.982,35.372 c 6.589,19.457 15.651,50.513 20.136,69.014 4.485,18.502 12.62,43.735 18.076,56.074 5.456,12.337 9.921,24.677 9.921,27.416 0,2.743 15.753,19.705 35.008,37.697 29.989,28.026 34.263,33.609 29.814,38.968 -6.439,7.758 -6.69,7.738 -26.428,-2.423 z m -129.674,-272.623 c 4.943,-1.895 5.807,-5.978 3.855,-18.187 -2.048,-12.812 -1.306,-15.74 3.987,-15.74 3.573,0 7.64,4.547 9.035,10.103 7.541,30.047 37.278,-9.927 52.615,-70.723 10.856,-43.036 10.997,-147.367 0.244,-173.78 -11.601,-28.464 -24.335,-42.207 -57.669,-62.245 -34.531,-20.754 -41.567,-22.021 -59.788,-10.761 -27.343,16.899 -29.843,24.501 -31.441,95.584 -1.403,62.392 -1.84,65.177 -14.549,93.359 -18.877,41.857 -20.465,68.748 -6.035,102.095 12.361,28.567 24.131,38.246 57.424,47.223 21.096,5.69 33.214,6.57 42.328,3.072 z m 115.55,-365.487 c -4.022,-4.444 -9.669,-8.081 -12.549,-8.081 -2.879,0 -6.792,-2.783 -8.695,-6.184 -3.099,-5.538 -5.048,-5.519 -18.681,0.182 -24.345,10.172 -49.088,13.327 -72.142,9.203 -38.021,-6.805 -79.195,-40.023 -87.736,-70.782 -5.826,-20.972 -5.056,-60.605 1.534,-79.077 3.002,-8.427 7.727,-17.928 7.727,-17.928 -11.109,-8.715 -1.46,-16.208 8.036,-12.829 0,0 7.727,-5.819 15.253,-12.438 7.522,-6.617 21.412,-16.162 30.856,-21.208 20.444,-10.923 23.487,-21.323 5.053,-17.274 -10.348,2.272 -17.31,1.707 -17.31,-5.261 0,-4.491 -0.937,-11.468 0.863,-13.887 4.141,-5.563 18.01,-7.01 15.338,-1.445 -3.271,6.812 -3,9.313 6.459,2.159 9.136,-6.91 22.938,-5.733 22.938,0.519 0,5.275 16.864,0.608 21.211,-5.867 1.664,-2.48 1.974,-9.508 0.688,-15.621 -1.282,-6.115 2.626,-8.084 4.584,-8.352 17.066,-2.335 15.953,8.526 15.953,14.031 0,2.928 3.637,6.005 8.083,6.838 4.447,0.834 9.538,4.044 11.315,7.129 1.776,3.086 6.322,5.557 10.103,5.49 6.342,-0.128 6.328,-0.44 -0.214,-4.244 -3.889,-2.265 -7.013,-7.211 -6.943,-10.99 0.273,-14.494 20.08,-29.386 20.08,-15.099 0,3.259 3.831,7.973 8.511,10.479 6.59,3.525 8.006,7.108 6.257,15.853 -2.44,12.187 10.127,29.048 15.352,20.599 1.445,-2.344 12.085,-3.827 23.639,-3.295 19.635,0.899 21.09,1.689 22.285,12.079 1.031,8.95 -0.347,11.112 -7.073,11.112 -4.592,0 -8.349,1.817 -8.349,4.043 0,2.222 1.621,4.039 3.604,4.039 1.978,0 4.753,4.587 6.158,10.195 2.113,8.416 3.856,9.495 10.002,6.207 4.993,-2.673 11.943,-2.501 21.118,0.525 7.521,2.479 16.071,5.128 18.999,5.891 3.188,0.832 4.807,5.784 4.04,12.365 -1.067,9.147 -3.895,11.515 -16.974,14.216 -9.538,1.966 -17.61,1.648 -20.578,-0.819 -6.316,-5.238 -10.205,-1.164 -10.205,10.693 0,7.254 2.234,9.433 9.672,9.433 5.32,0 10.63,2.5 11.806,5.561 1.33,3.466 5.925,4.838 12.197,3.637 12.172,-2.324 20.851,10.622 17.11,25.528 -3.088,12.306 -18.453,13.674 -18.453,1.646 0,-9.451 -1.4,-9.802 -12.179,-3.071 -6.395,3.995 -9.672,3.987 -16.112,-0.03 -4.79,-2.992 -8.082,-3.388 -8.082,-0.972 0,2.243 1.819,4.076 4.041,4.076 2.221,0 4.041,5.019 4.041,11.154 0,6.469 4.501,16.01 10.713,22.712 8.792,9.478 10.061,13.387 7.076,21.766 -7.341,20.583 -15.55,20.463 -35.655,-0.525 -17.64,-18.409 -26.587,-21.174 -26.587,-8.221 0,3.302 4.545,10.906 10.101,16.898 12.294,13.258 12.667,20.773 1.728,34.682 -9.999,12.715 -20.056,13.574 -30.017,2.567 z m -49.398,-36.792 c 14.61,-7.098 19.087,-11.476 19.087,-18.653 0,-5.158 4.547,-16.58 10.106,-25.383 8.551,-13.544 10.102,-20.861 10.102,-47.605 -0.659,-21.537 7.559,-31.628 -15.125,-31.538 -18.216,0.07 -21.999,-9 -9.396,-22.529 14.095,-15.129 10.621,-19.639 -11.936,-15.513 -11.133,2.036 -18.202,1.268 -23.13,-2.516 -6.634,-5.096 -6.508,-5.613 1.997,-8.008 10.734,-3.019 12.215,-13.5 2.023,-14.283 -28.229,-2.163 -43.187,0.832 -60.894,12.195 -29.962,19.227 -39.107,31.238 -39.107,31.238 12.533,8.436 7.11,18.109 -8.584,15.398 -7.706,-1.331 -18.298,63.638 -0.809,95.429 7.944,14.439 34.254,33.89 54.774,40.492 17.219,5.543 49.775,1.536 70.892,-8.724 z m -94.071,-22.632 c -14.04,-5.108 -27.914,-23.204 -32.522,-42.417 -7.23,-30.136 -1.04,-32.753 25.865,-10.944 12.086,9.796 27.623,20.91 34.525,24.697 20.708,11.363 14.494,31.81 -9.478,31.189 -6.781,-0.182 -15.056,-1.31 -18.39,-2.525 z m 10.103,-19.675 c -4.443,-3.353 -12.343,-9.794 -17.55,-14.315 -5.207,-4.52 -10.498,-7.188 -11.763,-5.922 -3.159,3.158 11.357,18.731 21.232,22.771 12.933,5.292 16.838,4.071 8.081,-2.534 z m 16.534,-65.795 c -1.17,-1.898 0.419,-6.898 3.532,-11.115 6.731,-9.117 16.112,-2.985 11.966,7.823 -2.738,7.132 -11.918,9.082 -15.498,3.292 z m -30.677,-38.694 c 0,-3.747 3.455,-6.357 8.421,-6.357 9.848,0 8.457,9.442 -1.683,11.409 -3.989,0.773 -6.738,-1.287 -6.738,-5.052 z m -381.87,-55.698 c 0.08,-7.417 7.163,-17.361 10.192,-14.334 3.533,3.535 -1.769,19.384 -6.484,19.384 -2.074,0 -3.742,-2.274 -3.708,-5.05 z m 64.6,-4.788 c 0,-5.414 2.105,-14.963 4.678,-21.218 3.868,-9.406 4.983,-10.081 6.435,-3.902 2.467,10.489 -2.609,34.958 -7.253,34.958 -2.122,0 -3.86,-4.429 -3.86,-9.838 z m 121.325,-30.369 c -7.729,-18.658 -2.637,-23.39 7.207,-6.698 10.439,17.686 10.603,18.616 3.302,18.616 -3.065,0 -7.793,-5.365 -10.509,-11.918 z m 52.455,-12.57 c 0,-2.352 1.818,-3.155 4.041,-1.782 2.221,1.373 4.04,3.3 4.04,4.28 0,0.982 -1.819,1.782 -4.04,1.782 -2.223,0 -4.041,-1.925 -4.041,-4.28 z m -276.401,-16.937 c 2.668,-6.127 36.515,-31.32 42.074,-31.32 11.778,0 -5.35,18.823 -27.152,29.837 -15.559,7.86 -17.799,8.085 -14.922,1.483 z m 266.417,-31.563 c -18.078,-9.017 -24.893,-14.721 -21.569,-18.046 3.376,-3.376 47.717,17.167 47.717,22.108 0,6.232 -8.007,4.985 -26.148,-4.062 z m -167.839,1.473 c 0,-5.101 21.615,-25.478 27.026,-25.478 8.892,0 5.932,11.045 -5.341,19.914 -10.458,8.222 -21.685,11.106 -21.685,5.564 z m 83.564,-12.565 c -8.233,-9.097 -8.591,-12.913 -1.209,-12.913 8.286,0 16.746,11.633 11.947,16.432 -2.594,2.593 -6.311,1.375 -10.738,-3.519 z m -194.702,-20.998 c -1.373,-2.221 0.444,-4.04 4.043,-4.04 3.594,0 5.413,1.819 4.039,4.04 -1.372,2.226 -3.19,4.044 -4.039,4.044 -0.849,0 -2.668,-1.818 -4.043,-4.044 z m 93.929,-18.555 c -5.604,-5.605 1.936,-9.734 17.785,-9.734 11.202,0 15.747,1.574 14.604,5.053 -1.793,5.465 -27.839,9.23 -32.389,4.681 z m 102.403,-2.031 c -13.958,-5.578 -5.344,-11.827 11.497,-8.339 16.098,3.332 21.993,12.891 7.71,12.503 -5.185,-0.151 -13.827,-2.013 -19.207,-4.164 z m 144.407,-10.463 c 2.92,-1.168 6.406,-1.025 7.749,0.318 1.342,1.342 -1.045,2.301 -5.305,2.125 -4.711,-0.182 -5.669,-1.152 -2.444,-2.443 z m -311.439,-27.841 c -10.844,-5.882 -16.098,-16.627 -6.062,-12.399 2.78,1.17 12.782,4.267 22.227,6.881 9.447,2.612 17.176,6.352 17.176,8.311 0,5.613 -21.102,3.845 -33.341,-2.793 z m 94.12,-2.491 c -8.241,-8.845 -11.021,-19.443 -5.098,-19.443 7.441,0 21.105,13.229 21.105,20.434 0,10.306 -5.817,9.948 -16.007,-0.991 z m 48.339,-1.033 c 0,-3.211 4.49,-10.94 9.976,-17.176 9.876,-11.225 9.978,-11.246 10.106,-1.981 0.06,5.147 -1.755,12.876 -4.059,17.177 -4.877,9.118 -16.023,10.493 -16.023,1.98 z m 80.829,-9.773 c 0,-3.685 52.201,-10.323 55.471,-7.053 1.055,1.055 0.719,3.856 -0.745,6.229 -3.159,5.107 -54.726,5.887 -54.726,0.824 z m -223.539,-65.361 c -7.711,-11.012 -8.627,-16.023 -2.923,-16.023 5.093,0 13.228,15.301 11.267,21.186 -0.84,2.515 -4.592,0.182 -8.344,-5.163 z m 85.172,-2.728 c -8.203,-9.063 -20.621,-37.603 -16.27,-37.398 4.738,0.244 26.163,35.692 24.526,40.6 -0.821,2.463 -4.379,1.084 -8.256,-3.202 z m 97.952,-0.03 c 0,-7.061 13.566,-37.514 16.716,-37.514 5.459,0 4.124,10.524 -3.319,26.129 -6.107,12.808 -13.397,19.002 -13.397,11.385 z m 78.924,-0.954 c -2.672,-4.326 17,-18.774 20.62,-15.149 3.247,3.243 -1.66,10.156 -10.613,14.949 -4.818,2.577 -8.49,2.652 -10.007,0.212 z m -139.545,-54.744 c 0,-3.334 1.818,-6.062 4.042,-6.062 2.223,0 4.041,2.728 4.041,6.062 0,3.334 -1.818,6.063 -4.041,6.063 -2.224,0 -4.042,-2.729 -4.042,-6.063 z" fill="#00B894" transform="translate(303.72751,79.945572) matrix(0.26458333,0,0,0.26458333,-8053.4236,-7086.2201)"/>
</svg>