<?xml version="1.0" ?><svg height="322.29538mm" viewBox="0 0 216.48289 322.29538" width="216.48289mm" xmlns="http://www.w3.org/2000/svg">
    <path d="m 37784.164,28950.352 v 0 c -2.465,0.149 -5.851,3.049 -5.852,3.049 -1.18,2.116 -2.275,4.397 -3.31,6.701 -1.616,-1.528 -3.08,-3.017 -4.234,-4.531 -3.743,-4.908 -8.587,-3.897 -3.959,4.024 1.053,1.802 2.711,4.277 4.613,6.941 -2.828,0.721 -5.456,1.318 -7.861,1.492 -6.156,0.447 -7.964,5.055 1.199,5.516 1.2,0.06 2.7,0.07 4.363,0.05 -0.605,1.257 -1.205,2.427 -1.797,3.373 -3.209,5.125 -3.032,13.604 2.026,7.724 1.816,-2.111 4.686,-6.235 7.566,-10.861 5.485,6.884 11.2,12.916 12.736,11.652 2.525,-2.079 -1.841,-11.924 -2.41,-13.179 6.609,-0.865 11.866,-2.129 11.692,-3.717 -0.382,-3.466 -12.834,-5.279 -12.834,-5.279 -1.182,0.147 -2.34,0.334 -3.477,0.544 2.585,-5.029 4.34,-9.474 3.924,-11.466 -0.334,-1.602 -1.264,-2.104 -2.385,-2.037 z m -38.65,1.162 v 0.01 c -0.146,-0.02 -0.295,-0.01 -0.445,0 -4.017,0.5 -9.47,12.951 -9.744,21.149 -0.368,11.027 -0.379,66.452 -0.631,91.976 a 51.113773,51.113773 0 0 0 -26.418,10.102 c -22.467,-20.468 -55.796,-50.636 -67.607,-60.108 -18.072,-14.493 -19.53,1.64 -14.356,6.231 4.339,3.851 37.197,37.122 71.33,64.707 a 51.113773,51.113773 0 0 0 -9.728,29.998 51.113773,51.113773 0 0 0 0.351,5.973 c -13.512,3.98 -30.642,8.889 -46.427,13.427 -0.776,-2.755 -2.416,-7.137 -4.446,-11.839 8.782,-0.585 16.998,-1.844 16.834,-3.827 -0.271,-3.259 -10.85,-5.279 -12.205,-5.527 3.054,-5.925 5.01,-10.966 3.606,-11.727 -3.066,-1.662 -11.651,7.54 -11.651,7.54 -0.556,1.054 -1.048,2.116 -1.535,3.166 -2.659,-4.989 -5.316,-8.966 -7.189,-9.76 -1.508,-0.636 -2.447,-0.158 -3.031,0.801 -1.281,2.11 -0.829,6.544 -0.829,6.544 1.067,2.176 2.318,4.377 3.621,6.54 -2.177,0.457 -4.233,0.814 -6.136,0.9 -6.167,0.28 -8.096,4.836 1.051,5.547 2.081,0.16 5.06,0.205 8.332,0.16 -1.017,2.735 -2.024,5.237 -3.252,7.312 -3.139,5.314 -0.384,9.425 5.216,2.157 0.732,-0.952 1.598,-2.179 2.528,-3.557 0.688,1.214 1.307,2.372 1.746,3.397 0.561,1.308 1.386,2.561 2.287,3.625 -15.411,4.435 -29.065,8.392 -35.467,10.429 -17.999,7.322 -3.567,14.044 11.701,9.18 9.572,-3.05 48.331,-15.402 77.174,-25.356 a 51.113773,51.113773 0 0 0 15.754,23.86 c -17.176,22.622 -50.812,72.819 -58.1,83.49 -8.359,12.236 -1.559,19.607 8.249,5.615 8.406,-11.992 47.442,-65.276 59.99,-82.396 a 51.113773,51.113773 0 0 0 22.935,5.435 51.113773,51.113773 0 0 0 28.567,-8.728 c 12.837,14.709 32.282,40.609 38.238,48.931 1.641,2.292 3.423,4.232 5.227,5.85 0.842,1.276 1.806,2.676 2.857,4.149 -2.828,0.721 -5.458,1.318 -7.863,1.492 -6.156,0.447 -7.962,5.054 1.201,5.515 1.2,0.06 2.698,0.07 4.361,0.05 -0.605,1.257 -1.203,2.427 -1.795,3.373 -3.209,5.125 -3.034,13.605 2.024,7.725 1.816,-2.111 4.688,-6.238 7.568,-10.863 5.485,6.883 11.2,12.918 12.736,11.654 2.525,-2.079 -1.841,-11.925 -2.41,-13.18 6.609,-0.865 11.864,-2.133 11.69,-3.721 -0.382,-3.466 -12.834,-5.275 -12.834,-5.275 -0.92,0.114 -1.819,0.259 -2.711,0.414 -0.09,-0.252 -0.182,-0.506 -0.311,-0.773 2.328,-4.65 3.862,-8.692 3.471,-10.563 -0.334,-1.602 -1.264,-2.104 -2.385,-2.037 -2.465,0.149 -5.853,3.049 -5.853,3.049 -0.372,0.667 -0.732,1.354 -1.088,2.049 -2.703,-2.938 -5.985,-6.349 -9.317,-10.297 -5.844,-6.926 -20.796,-29.26 -33.172,-45.973 a 51.113773,51.113773 0 0 0 12.469,-27.242 c 36.657,-1.133 103.542,-3.496 108.469,-5.822 6.799,-3.209 -1.393,-10.38 -17.887,-9.627 -13.661,0.623 -66.65,0.803 -90.691,1.244 a 51.113773,51.113773 0 0 0 -3.522,-12.51 c 18.332,-17.558 40.685,-39.416 49.672,-50.115 16.25,-19.346 36.143,-28.527 33.301,-32.986 -2.841,-4.46 -8.451,-2.624 -20.693,7.935 -4.178,3.604 -14.205,12.827 -25.825,23.547 0.295,-0.592 0.308,-1.649 -0.105,-3.289 -0.68,-2.701 -2.399,-7.426 -4.522,-12.445 8.787,-0.518 17.013,-1.716 16.864,-3.7 -0.245,-3.261 -10.808,-5.361 -12.162,-5.619 3.1,-5.901 5.093,-10.925 3.695,-11.697 -3.053,-1.685 -11.707,7.449 -11.707,7.449 -0.561,1.051 -1.073,2.104 -1.557,3.154 -2.621,-5.009 -5.246,-9.004 -7.113,-9.812 -1.502,-0.65 -2.448,-0.182 -3.039,0.773 -1.298,2.1 -0.879,6.541 -0.879,6.541 1.05,2.184 2.285,4.394 3.572,6.567 -2.18,0.441 -4.241,0.78 -6.144,0.851 -6.168,0.232 -8.131,4.777 1.01,5.557 2.08,0.177 5.059,0.245 8.332,0.225 -1.039,2.727 -2.067,5.221 -3.311,7.287 -3.18,5.289 -0.454,9.42 5.201,2.195 0.74,-0.946 1.612,-2.164 2.553,-3.535 0.679,1.219 1.291,2.381 1.723,3.41 1.595,3.8 5.367,7.206 7.011,6.613 -13.795,12.727 -29.891,27.616 -42.855,39.35 a 51.113773,51.113773 0 0 0 -29.963,-18.365 c 0.03,-29.047 0.08,-75.521 0.189,-98.444 0.05,-11.066 -1.609,-15.275 -3.802,-15.511 z m -157.223,62.185 c -3.483,-0.109 -7.08,11.932 -7.08,11.932 -0.03,1.191 0,2.36 0.03,3.517 -4.599,-3.289 -8.745,-5.671 -10.775,-5.55 -1.634,0.1 -2.264,0.945 -2.361,2.064 -0.211,2.459 2.166,6.234 2.166,6.234 1.923,1.475 4.019,2.89 6.148,4.249 -1.747,1.377 -3.432,2.611 -5.098,3.533 -5.401,2.99 -5.103,7.929 3.407,4.502 1.936,-0.781 4.625,-2.065 7.537,-3.559 0.303,2.902 0.512,5.591 0.334,7.996 -0.452,6.155 3.843,8.612 5.631,-0.387 0.233,-1.178 0.462,-2.658 0.683,-4.306 1.156,0.782 2.227,1.542 3.076,2.265 4.605,3.92 13.022,4.981 7.94,-0.878 -1.825,-2.103 -5.491,-5.545 -9.649,-9.067 7.608,-4.426 14.409,-9.204 13.381,-10.908 -1.69,-2.799 -12.066,0.09 -13.39,0.471 0.103,-6.663 -0.383,-12.046 -1.977,-12.108 z m 331.703,52.887 v 0 c -1.149,-0.09 -2.808,1.279 -4.556,4.892 -0.909,1.879 -2.037,4.638 -3.188,7.702 -2.175,-1.946 -4.14,-3.798 -5.625,-5.698 -3.804,-4.861 -8.636,-3.789 -3.91,4.075 0.62,1.03 1.448,2.277 2.391,3.646 -1.38,0.199 -2.685,0.357 -3.801,0.393 -6.043,0.193 -12.986,5.066 -5.285,5.986 2.765,0.331 7.792,0.416 13.238,0.227 -2.657,8.392 -4.479,16.499 -2.574,17.07 3.134,0.937 8.872,-8.178 9.597,-9.35 4.403,5.005 8.383,8.661 9.604,7.631 2.664,-2.25 -2.774,-13.596 -2.774,-13.596 -0.781,-0.899 -1.582,-1.755 -2.39,-2.582 5.616,-0.658 10.287,-1.679 11.709,-3.134 1.143,-1.171 1.042,-2.224 0.361,-3.118 -1.498,-1.963 -5.797,-3.158 -5.797,-3.158 -2.414,0.201 -4.917,0.564 -7.406,0.99 0.367,-2.194 0.785,-4.241 1.398,-6.043 1.118,-3.287 0.487,-5.818 -0.99,-5.935 z m -334.084,92.158 c -3.485,-0.127 -7.088,11.93 -7.088,11.93 -0.03,1.191 0,2.36 0.03,3.517 -4.599,-3.289 -8.746,-5.669 -10.776,-5.548 -1.634,0.1 -2.264,0.943 -2.361,2.062 -0.211,2.459 2.164,6.232 2.164,6.233 1.923,1.474 4.021,2.889 6.15,4.248 -1.747,1.377 -3.431,2.611 -5.097,3.533 -5.401,2.99 -5.106,7.929 3.404,4.502 1.936,-0.781 4.625,-2.063 7.537,-3.557 0.303,2.902 0.512,5.591 0.334,7.996 -0.452,6.155 3.845,8.612 5.633,-0.387 0.233,-1.178 0.462,-2.66 0.683,-4.308 1.156,0.782 2.228,1.544 3.077,2.267 4.605,3.92 13.019,4.979 7.937,-0.88 -1.825,-2.103 -5.488,-5.545 -9.646,-9.067 7.608,-4.426 14.408,-9.202 13.38,-10.906 -1.69,-2.799 -12.066,0.09 -13.39,0.469 0.104,-6.657 -0.382,-12.032 -1.973,-12.104 z m 92.276,79.311 c -3.485,-0.127 -7.09,11.929 -7.09,11.929 -0.03,1.191 0,2.361 0.03,3.518 -4.599,-3.289 -8.745,-5.671 -10.775,-5.551 -1.634,0.1 -2.265,0.946 -2.362,2.065 -0.211,2.459 2.164,6.232 2.164,6.232 1.923,1.475 4.022,2.889 6.151,4.248 -1.747,1.377 -3.434,2.611 -5.1,3.533 -5.401,2.99 -5.104,7.929 3.406,4.502 1.936,-0.781 4.625,-2.062 7.537,-3.556 0.303,2.902 0.512,5.591 0.334,7.996 -0.452,6.155 3.845,8.612 5.633,-0.387 0.233,-1.178 0.463,-2.661 0.684,-4.309 1.156,0.782 2.225,1.545 3.074,2.268 4.605,3.92 13.021,4.978 7.939,-0.881 -1.824,-2.103 -5.49,-5.544 -9.648,-9.066 7.608,-4.426 14.409,-9.204 13.381,-10.908 -1.69,-2.799 -12.065,0.09 -13.389,0.47 0.104,-6.653 -0.381,-12.027 -1.97,-12.103 z m 407.752,49.019 c -45.403,-0.277 -98.254,25.194 -112.239,58.375 -57.194,135.699 76.77,175.951 138.903,148.49 52.822,-23.346 97.93,-125.638 34.281,-179.013 -17.683,-14.828 -35.475,-27.697 -60.945,-27.852 z m -77.165,239.018 c -34.88,0.285 -49.53,24.308 -54.83,66.47 3.133,16.825 2.298,83.838 -4.177,112.881 -6.475,29.042 -30.705,76.037 -16.293,121.245 14.412,45.207 69.868,73.873 127.308,54.982 57.439,-18.892 76.865,-162.505 68.51,-236.098 -8.355,-73.592 -65.795,-113.632 -109.031,-118.801 -4.053,-0.484 -7.879,-0.709 -11.487,-0.679 z" fill="#FFFFFF" paint-order="markers stroke fill" transform="translate(-67.139462,136.95725) matrix(0.26458333,0,0,0.26458333,-8995.3146,-7149.4516) translate(-3313.5291,-2437.8203)"/>
    <path d="m 34859.07,27714.061 c -8.908,-4.586 -27.634,-19.531 -41.61,-33.212 -22.273,-21.806 -25.104,-26.273 -22.923,-36.192 1.367,-6.223 0.677,-13.521 -1.531,-16.211 -4.045,-4.932 -15.938,-44.358 -24.687,-81.835 -2.603,-11.133 -9.199,-35.043 -14.663,-53.128 l -9.934,-32.888 -31.411,-1.874 c -33.786,-2.019 -58.513,-11.728 -77.045,-30.263 -7.942,-7.939 -10.869,-8.956 -13.566,-4.701 -5.743,9.059 -4.143,67.326 3.286,119.711 l 7.018,49.5 -11.221,11.71 c -6.175,6.445 -21.396,16.862 -33.832,23.154 -12.434,6.29 -28.806,15.644 -36.383,20.785 -7.578,5.145 -16.236,9.351 -19.24,9.351 -7.808,0 -11.394,-12.114 -5.636,-19.051 6.004,-7.237 36.213,-22.747 66.039,-33.905 12.297,-4.601 22.355,-10.249 22.355,-12.551 0,-2.302 -3.055,-15.383 -6.791,-29.067 -4.64,-16.998 -6.872,-41.558 -7.045,-77.522 -0.213,-45.904 0.877,-55.106 8.597,-71.897 8.358,-18.18 8.501,-20.108 2.527,-34.409 -8.844,-21.168 -5.099,-58.966 10.414,-105.153 11.264,-33.519 12.546,-42.32 12.546,-86.046 0,-28.97 -1.601,-48.71 -3.952,-48.71 -2.174,0 -9.918,3.638 -17.21,8.084 -16.515,10.071 -47.131,10.675 -66.844,1.318 -21.541,-10.219 -41.227,-45.135 -51.316,-91.018 -2.205,-10.013 -3.52,-10.596 -19.12,-8.503 -14.356,1.925 -17.824,0.856 -24.226,-7.471 -4.109,-5.342 -7.511,-13.409 -7.559,-17.925 -0.06,-4.516 -2.983,-12.339 -6.515,-17.383 -5.782,-8.255 -5.806,-10.122 -0.243,-18.608 3.399,-5.19 5.257,-12.962 4.131,-17.274 -1.467,-5.612 0.929,-9.202 8.43,-12.619 7.927,-3.611 10.013,-7.009 8.558,-13.933 -1.059,-5.036 -3.951,-28.29 -6.426,-51.674 -2.478,-23.385 -8.127,-65.046 -12.555,-92.58 -4.428,-27.533 -7.149,-50.963 -6.046,-52.066 3.878,-3.878 14.808,28.861 22.914,68.633 6.721,32.991 20.056,121.537 20.056,133.184 0,1.664 4.1,4.23 9.111,5.703 12.333,3.629 31.448,25.377 28.672,32.617 -1.236,3.213 -0.243,8.258 2.208,11.21 3.313,3.99 2.393,9.63 -3.596,22.024 -4.428,9.162 -8.048,18.498 -8.048,20.748 0,9.637 29.14,64.369 39.399,74.002 19.713,18.508 31.739,18.082 70.77,-2.505 63.182,-33.328 84.179,-37.188 125.321,-23.036 34.02,11.705 54.283,26.304 66.583,47.969 17.866,31.463 66.61,107.169 79.984,124.225 6.822,8.698 26.103,24.757 42.849,35.69 l 30.449,19.877 28.963,-2.715 c 47.332,-4.434 95.623,14.678 76.721,30.367 -3.821,3.168 -4.951,9.311 -3.435,18.647 1.971,12.154 1.181,13.921 -6.229,13.921 -4.665,0 -10.414,-3.601 -12.771,-8.005 -2.356,-4.404 -7.996,-9.995 -12.533,-12.421 -8.03,-4.298 -8.082,-4.085 -1.932,7.805 15.665,30.294 0.122,39.304 -20.004,11.589 -6.682,-9.205 -18.28,-20.317 -25.772,-24.694 l -13.624,-7.957 2.815,16.67 c 3.268,19.34 -0.06,33.21 -7.96,33.21 -6.523,0 -8.564,-6.281 -12.078,-37.215 -2.599,-22.902 -2.757,-23.124 -24.957,-35.655 -31.676,-17.875 -55.255,-41.011 -77.355,-75.897 -17.186,-27.129 -19.428,-29.255 -21.827,-20.706 -1.473,5.239 -2.858,24.357 -3.079,42.485 -0.502,40.984 -9.527,91.598 -23.179,130.003 -8.084,22.744 -13.909,32.098 -25.926,41.616 l -15.501,12.275 11.966,35.324 c 6.578,19.427 15.64,50.492 20.135,69.03 4.495,18.538 12.643,43.817 18.112,56.181 5.467,12.36 9.94,24.724 9.94,27.472 0,2.746 15.784,19.744 35.074,37.768 30.051,28.08 34.33,33.674 29.875,39.047 -6.453,7.774 -6.706,7.75 -26.482,-2.43 z m -129.928,-273.155 c 4.95,-1.901 5.819,-5.991 3.863,-18.221 -2.053,-12.841 -1.312,-15.774 3.99,-15.774 3.584,0 7.66,4.555 9.057,10.125 7.556,30.102 37.348,-9.949 52.716,-70.865 10.878,-43.119 11.018,-147.655 0.242,-174.119 -11.619,-28.517 -24.377,-42.29 -57.778,-62.364 -34.597,-20.794 -41.652,-22.064 -59.907,-10.781 -27.394,16.931 -29.899,24.548 -31.503,95.768 -1.406,62.516 -1.84,65.307 -14.574,93.541 -18.915,41.938 -20.509,68.885 -6.05,102.298 12.385,28.62 24.18,38.32 57.539,47.316 21.137,5.7 33.279,6.581 42.411,3.076 z m 74.948,-355.665 c -13.975,5.176 -15.834,-7.27 -15.834,-9.824 0,-4.121 -14.398,-3.574 -30.631,1.163 -2.369,0.693 -14.213,-0.513 -26.318,-2.681 -38.746,-6.94 -79.961,-39.991 -88.583,-71.041 -5.834,-21.013 -5.065,-60.728 1.537,-79.235 3.013,-8.44 4.58,-18.768 3.487,-22.95 -1.47,-5.628 0.479,-7.954 7.507,-8.95 6.93,-0.984 9.135,-3.535 8.157,-9.445 -0.738,-4.452 -2.262,-13.664 -3.389,-20.469 -2.548,-15.404 4.024,-21.393 25.237,-22.993 14.01,-1.057 16.09,-2.548 17.22,-12.312 1.427,-12.324 17.69,-23.185 34.719,-23.185 5.548,0 11.34,-2.031 12.873,-4.513 1.695,-2.739 9.184,-3.653 19.057,-2.329 11.116,1.491 18.095,0.355 22.037,-3.587 7.179,-7.182 19.105,-7.428 26.157,-0.543 2.943,2.873 11.729,5.151 19.525,5.062 11.993,-0.151 15.106,1.801 20.247,12.619 4.27,8.987 10.539,14.134 21.11,17.329 15.38,4.647 27.482,17.284 27.482,28.69 0,3.62 6.132,8.601 14.158,11.504 14.274,5.163 22.14,19.306 16.139,29.016 -1.57,2.545 0.464,10.793 4.525,18.334 6.302,11.701 6.666,15.695 2.478,27.275 -5.91,16.342 -6.296,35.132 -1.008,49.041 3.167,8.334 2.147,12.364 -5.458,21.523 -5.147,6.196 -10.596,16.339 -12.108,22.541 -1.552,6.353 -7.122,13.262 -12.764,15.834 -5.956,2.712 -10.038,7.991 -10.074,13.023 -0.09,10.739 -3.751,16.181 -14.857,22.027 -11.398,5.998 -23.664,5.916 -33.501,-0.243 -6.384,-3.987 -9.22,-3.614 -15.449,2.023 -17.417,14.693 -20.462,14.694 -33.678,-2.704 z m -18.394,-39.68 c 12.515,-6.557 32.593,-43.757 26.762,-49.588 -6.029,-6.028 -4.717,-25.01 2.12,-30.683 8.309,-6.894 7.862,-8.783 -6.293,-26.591 -10.359,-13.038 -11.966,-17.912 -9.903,-30.103 3.231,-19.139 -7.736,-30.397 -25.757,-26.44 -14.107,3.098 -37.009,-6.912 -37.009,-16.178 0,-8.892 -6.699,-7.322 -26.3,6.165 -26.628,18.319 -31.023,23.661 -26.476,32.159 4.722,8.822 1.761,12.397 -10.259,12.397 -19.255,0 -22.592,61.426 -5.069,93.277 7.96,14.469 34.321,33.957 54.884,40.574 14.617,4.705 50.147,1.905 63.3,-4.989 z m -88.549,-28.305 c -17.089,-9.451 -25.887,-21.134 -30.549,-40.565 -7.258,-30.254 -1.069,-32.887 25.902,-11.024 12.112,9.815 27.676,20.949 34.592,24.745 20.715,11.365 14.577,31.685 -9.497,31.445 -6.791,-0.06 -15.993,-2.138 -20.448,-4.601 z m 12.148,-17.836 c -4.455,-3.362 -12.367,-9.816 -17.584,-14.344 -5.218,-4.531 -10.523,-7.2 -11.787,-5.937 -3.167,3.168 11.38,18.769 21.271,22.817 12.962,5.305 16.871,4.078 8.1,-2.536 z m 16.567,-65.927 c -1.176,-1.898 0.416,-6.909 3.538,-11.136 6.742,-9.136 16.144,-2.992 11.99,7.838 -2.743,7.146 -11.945,9.102 -15.528,3.298 z m -32.355,-38.675 c 5.395,-8.115 11.621,-10.879 14.952,-5.491 1.315,2.132 1.031,6.214 -0.418,8.404 -2.677,4.045 -5.934,6.222 -9.002,6.36 -6.912,0.311 -8.881,-4.236 -5.532,-9.273 z m -379.006,-59.87 c 0.09,-7.431 7.176,-17.396 10.21,-14.362 3.541,3.541 -1.771,19.425 -6.496,19.425 -2.077,0 -3.748,-2.278 -3.714,-5.063 z m 64.727,-4.798 c 0,-5.421 2.107,-14.988 4.686,-21.259 3.875,-9.424 4.993,-10.101 6.45,-3.909 2.472,10.508 -2.618,35.029 -7.27,35.029 -2.126,0 -3.866,-4.437 -3.866,-9.861 z m 121.564,-30.428 c -7.745,-18.695 -2.646,-23.433 7.222,-6.712 10.456,17.724 10.623,18.654 3.307,18.654 -3.07,0 -7.808,-5.373 -10.529,-11.942 z m 52.555,-12.591 c 0,-2.36 1.822,-3.165 4.051,-1.786 2.226,1.376 4.048,3.304 4.048,4.288 0,0.981 -1.822,1.786 -4.048,1.786 -2.229,0 -4.051,-1.931 -4.051,-4.288 z m -276.942,-16.971 c 2.675,-6.138 36.586,-31.384 42.159,-31.384 11.799,0 -5.363,18.86 -27.208,29.896 -15.586,7.878 -17.833,8.1 -14.951,1.488 z m 266.941,-31.627 c -18.113,-9.035 -24.946,-14.75 -21.614,-18.082 3.383,-3.383 47.814,17.201 47.814,22.152 0,6.244 -8.024,4.999 -26.2,-4.07 z m -168.167,1.479 c 0,-5.114 21.654,-25.532 27.078,-25.532 8.911,0 5.94,11.07 -5.354,19.953 -10.475,8.24 -21.724,11.128 -21.724,5.579 z m 83.724,-12.594 c -8.249,-9.114 -8.604,-12.938 -1.209,-12.938 8.3,0 16.776,11.659 11.972,16.467 -2.6,2.596 -6.323,1.376 -10.763,-3.529 z m -195.08,-21.034 c -1.376,-2.229 0.446,-4.052 4.048,-4.052 3.605,0 5.427,1.823 4.051,4.052 -1.379,2.226 -3.201,4.048 -4.051,4.048 -0.85,0 -2.673,-1.822 -4.048,-4.048 z m 94.112,-18.596 c -5.618,-5.615 1.941,-9.751 17.818,-9.751 11.225,0 15.78,1.576 14.636,5.062 -1.801,5.476 -27.898,9.248 -32.454,4.689 z m 102.605,-2.031 c -13.986,-5.591 -5.358,-11.851 11.519,-8.358 16.129,3.341 22.036,12.919 7.726,12.53 -5.196,-0.151 -13.858,-2.019 -19.245,-4.172 z m 144.69,-10.484 c 2.922,-1.172 6.414,-1.027 7.76,0.319 1.345,1.345 -1.045,2.302 -5.315,2.126 -4.716,-0.182 -5.676,-1.154 -2.445,-2.448 z m -312.049,-27.898 c -10.866,-5.894 -16.129,-16.657 -6.074,-12.421 2.782,1.172 12.804,4.273 22.27,6.891 9.467,2.618 17.211,6.365 17.211,8.327 0,5.628 -21.147,3.857 -33.407,-2.797 z m 94.304,-2.496 c -8.257,-8.862 -11.042,-19.482 -5.108,-19.482 7.456,0 21.146,13.256 21.146,20.475 0,10.329 -5.827,9.967 -16.038,-0.993 z m 48.434,-1.036 c 0,-3.216 4.498,-10.96 9.995,-17.207 9.894,-11.249 9.994,-11.267 10.122,-1.986 0.06,5.159 -1.759,12.904 -4.064,17.21 -4.889,9.135 -16.053,10.517 -16.053,1.983 z m 80.984,-9.788 c 0,-3.696 52.303,-10.347 55.583,-7.067 1.053,1.054 0.716,3.863 -0.751,6.238 -3.164,5.12 -54.832,5.901 -54.832,0.829 z m -223.977,-65.492 c -7.726,-11.03 -8.64,-16.054 -2.925,-16.054 5.099,0 13.254,15.334 11.289,21.229 -0.841,2.52 -4.604,0.182 -8.364,-5.175 z m 85.339,-2.73 c -8.218,-9.084 -20.661,-37.68 -16.303,-37.471 4.747,0.243 26.219,35.758 24.579,40.675 -0.823,2.469 -4.389,1.087 -8.276,-3.204 z m 98.146,-0.03 c 0,-7.079 13.593,-37.591 16.746,-37.591 5.472,0 4.133,10.544 -3.323,26.181 -6.119,12.835 -13.423,19.042 -13.423,11.41 z m 79.077,-0.959 c -2.676,-4.331 17.031,-18.812 20.663,-15.179 3.253,3.252 -1.667,10.18 -10.635,14.978 -4.826,2.585 -8.51,2.657 -10.028,0.213 z m -139.817,-54.854 c 0,-3.341 1.823,-6.074 4.049,-6.074 2.229,0 4.051,2.733 4.051,6.074 0,3.34 -1.822,6.074 -4.051,6.074 -2.226,0 -4.049,-2.734 -4.049,-6.074 z" fill="#00B894" transform="translate(-67.139462,136.95725) matrix(0.26458333,0,0,0.26458333,-8995.3146,-7149.4516)"/>
</svg>