<?xml version="1.0" ?><svg height="126.84839mm" viewBox="0 0 76.252167 126.84839" width="76.252167mm" xmlns="http://www.w3.org/2000/svg">
    <path d="m 45682.57,17050.135 c -15.16,-0.17 -30.961,2.697 -45.721,9.275 -47.233,21.05 -44.866,72.648 -48.598,101.15 -7.462,59.544 28.214,96.32 60.612,105.575 32.399,9.255 71.53,-1.309 95.738,-32.678 24.209,-31.369 24.3,-112.456 10.83,-145.299 -9.26,-22.58 -39.51,-37.65 -72.861,-38.023 z m -75.832,241.052 c -16.37,-0.296 -32.229,2.754 -44.242,12.541 -24.026,19.575 -44.685,60.609 -51.692,100.086 -5.567,36.18 33.208,37.199 58.699,35.711 22.231,-1.297 122.769,11.958 126.5,-1.228 3.731,-13.187 7.827,-48.16 3.641,-81.74 -4.187,-33.581 -17.473,-50.618 -45.594,-57.825 -14.061,-3.604 -30.942,-7.248 -47.312,-7.545 z" fill="#FFFFFF" paint-order="markers stroke fill" transform="translate(-149.38646,76.008942) matrix(0.26458333,0,0,0.26458333,-11890.093,-4564.602)"/>
    <path d="m 45701.08,16964.768 c -5.317,0.235 -12.693,6.845 -12.693,12.236 0,2.073 -2.29,0.495 -5.092,-3.506 -6.334,-9.042 -14.597,-9.399 -16.865,-0.727 -1.862,7.12 -7.492,8.511 -12.836,3.165 -4.412,-4.41 -14.291,-0.552 -14.291,5.585 0,3.22 -2.045,4.129 -6.268,2.79 -6.025,-1.912 -11.577,2.703 -11.68,9.722 -0.03,1.799 -2.994,3.276 -6.591,3.276 -4.295,0 -6.905,2.534 -7.592,7.367 -0.672,4.731 -3.304,7.361 -7.363,7.361 -7.443,0 -8.527,9.172 -1.407,11.906 6.861,2.63 6.113,6.903 -1.638,9.362 -9.127,2.899 -8.666,14.726 0.574,14.726 h 7.113 l -7.113,7.573 c -8.476,9.022 -8.98,13.964 -1.836,17.962 4.253,2.377 4.561,4.297 1.596,9.836 -0.417,0.78 -0.965,2.304 -1.582,4.246 -11.049,24.253 -15.663,73.076 -13.578,96.844 3.803,43.46 18.867,68.513 50.544,84.035 27.101,12.469 70.178,12.247 98.83,-5.23 l 3.717,7.228 c 2.05,3.972 6.338,10.17 9.528,13.77 4.433,5.013 7.032,18.795 11.066,58.898 6.613,65.521 6.614,65.751 0.465,60.647 -2.626,-2.181 -18.239,-25.188 -34.684,-51.125 -16.435,-25.936 -33.799,-49.881 -38.576,-53.209 -14.506,-10.113 -39.18,-16.674 -71.16,-18.922 -34.969,-2.416 -72.976,11.334 -93.488,59.422 -9.044,19.298 -14.532,38.364 -14.635,59.117 0.247,23.378 16.635,6.686 20.449,-14.219 20.415,-58.838 41.777,-85.884 67.842,-85.884 17.206,0 61.402,10.948 77.301,19.148 16.204,8.363 19.05,20.728 17.402,60.328 -0.67,16.221 -0.136,28.441 -0.59,42.01 -0.812,24.285 17.739,21.342 19.772,-1.539 1.142,-14.197 -1.776,-60.229 5.525,-46.776 l 19.436,29.532 c 11.355,17.252 24.373,33.942 29.048,37.007 8.237,5.397 8.711,5.322 15.028,-2.443 6.641,-8.163 6.809,-21.22 1.92,-151.992 -0.137,-3.6 0.88,-16.562 2.261,-28.803 2.236,-19.796 -3.751,-25.779 -14.998,-38.539 2.792,-8.655 5.338,-14.462 7.852,-26.865 21.268,-0.06 30.57,-15.252 2.141,-22.791 v -16.979 c 0,-12.519 -1.398,-24.453 -3.85,-35.422 l 0.104,-0.425 c -2.706,-14.286 -6.905,-27.302 -12.094,-36.153 -4.589,-7.831 -7.313,-16.336 -6.182,-19.291 1.117,-2.903 0.459,-7.172 -1.459,-9.482 -2.419,-2.922 -2.437,-4.851 -0.05,-6.326 5.139,-3.175 4.138,-11.948 -1.865,-16.336 -4.447,-3.252 -4.624,-4.948 -1.117,-10.563 5.718,-9.156 1.835,-17.373 -8.207,-17.373 -7.021,0 -8.285,-1.494 -8.285,-9.816 0,-10.887 -4.504,-13.003 -17.176,-8.07 -4.521,1.759 -5.729,0.503 -5.729,-5.954 0,-4.501 -2.164,-9.014 -4.812,-10.029 -0.648,-0.248 -1.366,-0.344 -2.125,-0.31 z m -21.367,95.521 c 1.435,-0.04 2.695,0.02 4.062,0.02 0.872,2.472 1.629,6.57 1.969,11.2 1.516,20.564 7.574,20.078 23.354,-1.883 1.5,-2.088 2.903,-3.422 4.146,-4.178 1.671,0.762 3.274,1.619 4.822,2.561 0.233,2.3 -0.442,5.641 -2.431,9.631 -3.911,7.838 -4.112,10.909 -0.971,14.695 4.858,5.851 18.443,6.312 20.447,0.695 0.805,-2.25 2.47,-3.161 3.7,-2.027 1.23,1.133 -0.939,8.153 -4.819,15.596 -8.293,15.908 -4.998,23.246 10.426,23.246 5.241,0 7.621,0.559 8.65,3.027 1.303,12.476 0.546,23.526 0.143,31.27 -14.611,-0.528 -15.052,18.57 -3.932,20.636 -1.436,6.641 -2.825,15.074 -6.611,24.086 -4.05,-1.461 -14.174,-1.988 -22.857,-3.289 -9.274,-1.391 -16.28,-0.83 -19.127,1.537 -3.46,2.866 -4.943,2.574 -6.418,-1.26 -2.107,-5.5 -17.707,-7.245 -20.045,-1.828 -0.932,2.159 -4.85,5.789 -11.018,1.356 -5.002,-3.594 -10.639,-1.224 -13.506,2.236 -2.347,2.855 -0.05,8.434 3.891,7.238 4.05,-1.23 7.828,-2.778 10.455,-0.543 6.739,5.734 12.197,1.542 13.396,-0.394 3.217,-5.196 9.97,-4.939 11.797,2.037 2.541,6.602 2.775,9.037 12.336,9.756 14.22,1.069 16.924,6.754 20.383,13.756 -8.834,9.855 -30.468,24.022 -74.885,12.217 -17.342,-4.609 -30.142,-13.95 -39.318,-33.92 -5.824,-12.687 -7.926,-21.387 -9.123,-41.024 0.312,-0.924 0.729,-1.701 1.289,-2.262 4.326,-4.338 4.41,-17.442 0.119,-20.091 -0.837,-0.518 -1.593,-1.949 -2.174,-3.842 0.152,-5.419 0.583,-10.933 1.358,-16.461 0.954,-0.667 2.212,-0.969 3.896,-0.969 9.204,0 10.551,-4.246 6.742,-21.244 -0.761,-3.397 -1.218,-6.599 -1.439,-9.496 1.803,-3.73 3.946,-7.28 6.32,-10.691 0.453,0.861 0.912,1.835 1.381,3.07 7.063,18.58 23.157,13.712 23.227,-7.029 0.03,-7.466 0.816,-14.139 2.068,-18.938 2.326,-1.12 4.798,-2.118 7.359,-3.037 0.205,1.149 0.346,2.397 0.346,3.773 0,11.093 5.558,21.055 11.748,21.055 2.88,0 7.835,-6.884 11.774,-16.361 2.453,-5.901 5.11,-11.051 7.07,-13.93 z m -13.473,68.998 c -0.96,-0.109 -2.145,-0.04 -3.601,0.168 -7.495,1.068 -11.031,9.116 -7.774,17.6 3.774,9.843 15.102,1.674 15.102,-10.891 0,-4.619 -0.846,-6.55 -3.727,-6.877 z m 23.436,0.293 c -4.871,-0.03 -10.25,10.89 -7.895,17.045 1.085,2.829 4.86,5.146 8.377,5.146 5.184,0 6.213,-1.909 5.379,-10.382 -0.567,-5.712 -2.76,-10.956 -4.896,-11.653 -0.318,-0.104 -0.641,-0.154 -0.965,-0.156 z m -41.817,25.795 c -2.414,0.185 -3.082,4.237 0.737,7.914 4.112,3.959 11.445,6.404 16.763,1.389 5.395,-5.087 5.473,-9.532 -0.492,-6.569 -6.175,3.068 -11.794,0.558 -14.113,-1.472 -1.091,-0.956 -2.09,-1.324 -2.895,-1.262 z m 59.639,1.654 c -1.189,-0.369 -3.346,0.456 -6.199,3.037 -3.755,3.397 -8.888,2.264 -12.766,1.25 -6.528,-1.708 -5.955,1.233 -1.64,5.547 3.847,3.856 11.91,4.691 17.199,-0.601 4.678,-4.678 5.388,-8.617 3.406,-9.233 z" fill="#00B894" transform="translate(-149.38646,76.008942) matrix(0.26458333,0,0,0.26458333,-11890.093,-4564.602)"/>
</svg>