<?xml version="1.0" ?><svg height="112.97386mm" viewBox="0 0 76.252167 112.97386" width="76.252167mm" xmlns="http://www.w3.org/2000/svg">
    <path d="m 45195.401,18129.488 c -15.16,-0.17 -30.961,2.697 -45.721,9.275 -47.233,21.05 -44.866,72.648 -48.598,101.15 -7.462,59.544 28.214,96.32 60.612,105.575 32.399,9.255 71.53,-1.309 95.738,-32.678 24.209,-31.369 24.3,-112.456 10.83,-145.299 -9.26,-22.58 -39.51,-37.65 -72.861,-38.023 z m -75.832,241.052 c -16.37,-0.296 -32.229,2.754 -44.242,12.541 -24.026,19.575 -44.685,60.609 -51.692,100.086 -3.132,33.873 36.45,34.785 58.699,35.711 32.256,1.343 122.769,11.958 126.5,-1.228 3.731,-13.187 7.827,-48.16 3.641,-81.74 -4.187,-33.581 -17.473,-50.618 -45.594,-57.825 -14.061,-3.604 -30.942,-7.248 -47.312,-7.545 z" fill="#FFFFFF" paint-order="markers stroke fill" transform="translate(-52.484344,-229.1868) matrix(0.26458333,0,0,0.26458333,-11858.097,-4559.0305)"/>
    <path d="m 45194.572,18097.201 c -9.949,-0.07 -21.136,2.258 -29.465,7.315 -19.92,12.093 -45.596,38.905 -52.355,54.668 -0.03,0.06 -0.05,0.131 -0.08,0.191 -0.735,1.115 -1.533,2.204 -2.182,3.352 -12.598,22.291 -17.939,75.861 -15.724,101.119 3.804,43.46 18.866,68.513 50.542,84.035 27.101,12.469 70.178,12.246 98.831,-5.231 l 3.718,7.229 c 2.05,3.972 6.338,10.169 9.528,13.769 4.433,5.013 7.03,18.796 11.064,58.899 6.613,65.521 6.614,65.748 0.465,60.644 -2.626,-2.181 -18.237,-25.188 -34.682,-51.125 -16.435,-25.936 -33.801,-49.881 -38.578,-53.209 -14.506,-10.113 -39.18,-16.672 -71.16,-18.919 -34.969,-2.416 -72.974,11.333 -93.486,59.421 -9.044,19.298 -14.534,38.365 -14.637,59.118 0.247,23.378 16.635,6.686 20.449,-14.219 20.415,-58.838 41.779,-85.885 67.844,-85.885 17.206,0 61.402,10.947 77.301,19.147 16.204,8.363 19.048,20.73 17.4,60.33 -0.67,16.221 -0.136,28.438 -0.59,42.007 -0.812,24.285 17.739,21.344 19.772,-1.537 1.142,-14.197 -1.776,-60.228 5.525,-46.775 l 19.438,29.529 c 11.355,17.252 24.374,33.945 29.048,37.01 8.237,5.397 8.711,5.322 15.028,-2.443 6.641,-8.163 6.807,-21.221 1.918,-151.993 -0.137,-3.6 0.881,-16.561 2.262,-28.802 2.236,-19.796 -3.752,-25.779 -14.999,-38.539 2.792,-8.655 5.338,-14.465 7.852,-26.868 21.268,-0.06 30.57,-15.252 2.141,-22.791 v -16.976 c 0,-14.924 -1.957,-29.033 -5.381,-41.621 -0.614,-4.848 -1.544,-9.976 -2.248,-12.022 -4.293,-12.462 -4.328,-14.985 -0.266,-19.049 10.255,-10.256 3.226,-23.849 -12.332,-23.849 -6.641,0 -9.16,-1.62 -9.16,-5.891 0,-9.686 -6.957,-13.742 -23.561,-13.742 -11.614,0 -15.707,-1.249 -15.707,-4.795 0,-7.346 -10.745,-11.409 -23.537,-11.502 z m -33.896,55.42 c 9.422,0.08 20.367,2.405 33.201,6.854 10.628,3.683 28.394,7.565 39.48,8.625 12.422,1.187 17.273,1.847 20.452,5.154 15.217,26.717 13.032,54.926 12.234,70.244 -14.611,-0.528 -15.054,18.571 -3.934,20.637 -1.436,6.641 -2.825,15.074 -6.611,24.086 -4.05,-1.461 -14.174,-1.988 -22.857,-3.289 -9.274,-1.391 -16.278,-0.83 -19.125,1.537 -3.46,2.866 -4.945,2.574 -6.42,-1.26 -2.107,-5.5 -17.705,-7.245 -20.043,-1.828 -0.932,2.159 -4.852,5.786 -11.02,1.353 -5.002,-3.594 -10.637,-1.221 -13.504,2.239 -2.347,2.855 -0.05,8.434 3.889,7.238 4.05,-1.23 7.828,-2.778 10.455,-0.543 6.739,5.734 12.199,1.541 13.398,-0.395 3.217,-5.196 9.97,-4.938 11.797,2.038 2.541,6.602 2.775,9.034 12.336,9.753 14.22,1.069 16.924,6.756 20.383,13.758 -8.834,9.855 -30.468,24.02 -74.885,12.215 -17.342,-4.609 -30.144,-13.95 -39.32,-33.92 -7.215,-15.716 -8.778,-24.339 -9.894,-56.654 -0.987,-28.558 4.862,-62.96 29.507,-83.322 5.922,-3.093 12.675,-4.585 20.481,-4.52 z m 18.396,56.02 c -0.96,-0.109 -2.147,-0.04 -3.603,0.168 -7.495,1.068 -11.029,9.113 -7.772,17.597 3.774,9.843 15.1,1.677 15.1,-10.888 0,-4.62 -0.844,-6.55 -3.725,-6.877 z m 23.434,0.291 c -4.871,-0.03 -10.248,10.892 -7.893,17.047 1.085,2.829 4.858,5.144 8.375,5.144 5.184,0 6.215,-1.91 5.381,-10.383 -0.567,-5.712 -2.762,-10.953 -4.898,-11.65 -0.318,-0.104 -0.64,-0.156 -0.965,-0.158 z m -41.817,25.797 c -2.414,0.184 -3.082,4.236 0.737,7.914 4.112,3.959 11.447,6.403 16.765,1.388 5.395,-5.087 5.471,-9.531 -0.494,-6.568 -6.175,3.068 -11.792,0.557 -14.111,-1.473 -1.091,-0.955 -2.092,-1.323 -2.897,-1.261 z m 59.641,1.652 c -1.189,-0.37 -3.348,0.457 -6.201,3.039 -3.755,3.397 -8.886,2.264 -12.764,1.25 -6.528,-1.708 -5.955,1.233 -1.64,5.547 3.847,3.856 11.908,4.69 17.197,-0.602 4.678,-4.678 5.39,-8.618 3.408,-9.234 z" fill="#00B894" transform="translate(-52.484344,-229.1868) matrix(0.26458333,0,0,0.26458333,-11858.097,-4559.0305)"/>
</svg>