<?xml version="1.0" ?><svg height="106.5268mm" viewBox="0 0 76.252281 106.5268" width="76.252281mm" xmlns="http://www.w3.org/2000/svg">
    <path d="m 45194.286,16524.118 c -15.16,-0.17 -30.961,2.697 -45.721,9.275 -47.233,21.05 -44.866,72.648 -48.598,101.15 -7.462,59.544 28.214,96.32 60.612,105.575 32.399,9.255 71.53,-1.309 95.738,-32.678 24.209,-31.369 24.3,-112.456 10.83,-145.299 -9.26,-22.58 -39.51,-37.65 -72.861,-38.023 z m -75.832,241.052 c -16.37,-0.296 -32.229,2.754 -44.242,12.541 -24.026,19.575 -44.685,60.609 -51.692,100.086 -11.936,54.35 186.803,42.452 184.512,20.976 3.437,-24.133 8.514,-34.653 4.328,-68.233 -4.187,-33.581 -17.473,-50.618 -45.594,-57.825 -14.061,-3.604 -30.942,-7.248 -47.312,-7.545 z" fill="#FFFFFF" paint-order="markers stroke fill" transform="translate(7.9236084,117.44569) matrix(0.26458333,0,0,0.26458333,-11918.211,-4486.8283)"/>
    <path d="m 45197.665,16894.488 c 0.454,-13.569 -0.08,-25.787 0.59,-42.008 1.648,-39.6 -1.198,-51.967 -17.402,-60.33 -15.899,-8.2 -60.095,-19.147 -77.301,-19.147 -26.065,0 -47.427,27.047 -67.842,85.885 -3.814,20.905 -20.203,37.596 -20.45,14.218 0.103,-20.753 5.592,-39.819 14.636,-59.117 20.512,-48.088 58.519,-61.838 93.488,-59.422 31.98,2.248 56.654,8.808 71.16,18.921 4.777,3.328 22.142,27.273 38.577,53.209 16.445,25.937 32.056,48.944 34.682,51.125 6.149,5.104 6.149,4.876 -0.464,-60.645 -4.034,-40.103 -6.633,-53.886 -11.066,-58.899 -3.19,-3.6 -7.477,-9.798 -9.527,-13.77 l -3.718,-7.228 c -28.653,17.477 -71.729,17.699 -98.83,5.23 -31.677,-15.522 -46.74,-40.575 -50.544,-84.035 -2.215,-25.258 3.127,-78.828 15.725,-101.119 19.065,-33.735 76.28,-53.446 117.326,-37.58 22.4,8.664 29.533,14.593 41.961,34.902 10.528,17.21 16.983,42.134 16.983,69.624 v 16.977 c 28.429,7.539 19.128,22.731 -2.14,22.791 -2.514,12.403 -5.06,18.212 -7.852,26.867 11.247,12.76 17.234,18.743 14.998,38.539 -1.381,12.241 -2.399,25.202 -2.262,28.802 4.889,130.772 4.722,143.829 -1.919,151.992 -6.317,7.765 -6.79,7.841 -15.027,2.444 -4.675,-3.065 -17.694,-19.757 -29.049,-37.009 l -19.436,-29.53 c -7.301,-13.453 -4.384,32.578 -5.526,46.775 -2.033,22.881 -20.583,25.823 -19.771,1.538 z m 36.007,-181.036 c -3.459,-7.002 -6.163,-12.688 -20.383,-13.757 -9.561,-0.719 -9.795,-3.153 -12.336,-9.755 -1.827,-6.976 -8.58,-7.233 -11.797,-2.037 -1.199,1.936 -6.658,6.129 -13.397,0.395 -2.627,-2.235 -6.406,-0.688 -10.456,0.542 -3.94,1.196 -6.236,-4.382 -3.889,-7.237 2.867,-3.46 8.503,-5.832 13.505,-2.238 6.168,4.433 10.086,0.804 11.018,-1.355 2.338,-5.417 17.937,-3.671 20.044,1.829 1.475,3.834 2.959,4.125 6.419,1.259 2.847,-2.367 9.852,-2.928 19.126,-1.537 8.683,1.301 18.808,1.828 22.858,3.289 3.786,-9.012 5.175,-17.445 6.611,-24.086 -11.12,-2.066 -10.679,-21.164 3.932,-20.636 0.815,-15.641 3.126,-44.727 -13.172,-71.936 -14.46,-24.159 -29.358,-33.029 -60.975,-31.923 -68.965,2.413 -82.682,58.164 -81.208,100.824 1.117,32.315 2.68,40.939 9.895,56.655 9.176,19.97 21.978,29.311 39.32,33.92 44.417,11.805 66.051,-2.361 74.885,-12.216 z m -73.361,-76.179 c -5.092,-4.903 -2.206,-10.475 2.159,-6.653 2.319,2.03 7.938,4.54 14.113,1.472 5.965,-2.963 5.888,1.482 0.493,6.569 -5.318,5.015 -12.653,2.571 -16.765,-1.388 z m 38.298,3.573 c -4.315,-4.314 -4.887,-7.254 1.641,-5.546 3.878,1.014 9.009,2.147 12.764,-1.25 7.608,-6.884 10.278,-1.29 2.793,6.195 -5.289,5.292 -13.351,4.457 -17.198,0.601 z m -32.027,-19.809 c -3.257,-8.484 0.277,-16.531 7.772,-17.599 5.826,-0.829 7.328,0.551 7.328,6.71 0,12.565 -11.326,20.732 -15.1,10.889 z m 26.916,-0.429 c -2.512,-6.565 3.774,-18.557 8.858,-16.888 2.136,0.697 4.331,5.939 4.898,11.651 0.834,8.473 -0.196,10.383 -5.38,10.383 -3.517,0 -7.291,-2.317 -8.376,-5.146 z" fill="#00B894" transform="translate(7.9236084,117.44569) matrix(0.26458333,0,0,0.26458333,-11918.211,-4486.8283)"/>
</svg>