<?xml version="1.0" ?><svg height="108.80531mm" viewBox="0 0 76.252235 108.80531" width="76.252235mm" xmlns="http://www.w3.org/2000/svg">
    <path d="m 45194.374,17028.441 c -15.16,-0.17 -30.961,2.697 -45.721,9.275 -47.233,21.05 -44.866,72.648 -48.598,101.15 -7.462,59.544 28.214,96.32 60.612,105.575 32.399,9.255 71.53,-1.309 95.738,-32.678 24.209,-31.369 24.3,-112.456 10.83,-145.299 -9.26,-22.58 -39.51,-37.65 -72.861,-38.023 z m -75.832,241.052 c -16.37,-0.296 -32.229,2.754 -44.242,12.541 -24.026,19.575 -44.685,60.609 -51.692,100.086 -4.745,36.755 27.917,34.571 58.699,35.711 22.253,0.824 122.769,11.958 126.5,-1.228 3.731,-13.187 7.827,-48.16 3.641,-81.74 -4.187,-33.581 -17.473,-50.618 -45.594,-57.825 -14.061,-3.604 -30.942,-7.248 -47.312,-7.545 z" fill="#FFFFFF" paint-order="markers stroke fill" transform="translate(-48.708675,-8.5210495) matrix(0.26458333,0,0,0.26458333,-11861.602,-4492.5105)"/>
    <path d="m 45163.521,17011.777 c -14.678,-0.06 -20.41,1.518 -30.687,6.35 -30.34,14.263 -46.28,41.213 -59.809,101.16 -5.751,25.467 -12.992,46.158 -23.402,66.869 -29.41,58.462 -39.93,105.53 -29.307,130.928 2.666,6.376 3.694,10.875 3.461,16.037 -5.285,14.363 -8.353,28.869 -8.429,44.309 0.247,23.378 16.637,6.686 20.451,-14.219 8.732,-25.167 17.641,-44.472 27.013,-58.377 3.753,-5.006 7.295,-8.988 10.239,-11.754 l 7.281,-6.84 1.856,17.973 c 2.703,26.198 8.305,36.056 21.199,37.301 12.923,1.249 15.288,-3.532 18.717,-37.838 1.597,-15.973 2.838,-21.555 5.826,-23.133 19.363,3.852 42.419,10.467 53.011,15.93 16.204,8.363 19.051,20.73 17.403,60.33 -0.67,16.221 -0.136,28.439 -0.59,42.008 -0.812,24.285 17.736,21.343 19.769,-1.538 1.142,-14.197 -1.773,-60.228 5.528,-46.775 l 19.435,29.529 c 11.355,17.252 24.374,33.945 29.049,37.01 8.237,5.397 8.711,5.322 15.027,-2.443 6.641,-8.163 6.807,-21.221 1.918,-151.992 -0.137,-3.6 0.881,-16.562 2.262,-28.803 2.236,-19.796 -3.751,-25.779 -14.998,-38.539 2.792,-8.655 5.34,-14.464 7.854,-26.867 21.268,-0.06 30.567,-15.252 2.138,-22.791 v -16.977 c 0,-6.124 -0.366,-12.093 -0.98,-17.906 l 0.17,0.06 c 2.963,-7.714 0.953,-28.167 -0.221,-32.314 -6.145,-21.729 -24.82,-42.58 -48.648,-54.311 -18.351,-9.035 -25.241,-10.532 -54.377,-11.828 -7.38,-0.328 -13.266,-0.531 -18.159,-0.553 z m -6.404,47.313 -6.838,12.457 c -8.622,15.714 -8.571,18.631 0.313,18.631 4.242,0 13.232,-6.318 22.123,-15.545 l 14.974,-15.543 9.161,10.488 c 10.425,11.942 42.535,28.906 48.146,25.436 2.036,-1.267 2.959,-5.253 2.016,-8.856 -1.595,-6.101 -1.159,-6.032 6.316,0.992 3.831,3.598 7.865,9.53 10.221,15.026 2.976,16.109 1.965,30.714 1.467,40.275 -14.611,-0.528 -15.054,18.571 -3.934,20.637 -1.436,6.641 -2.823,15.074 -6.609,24.086 -4.05,-1.461 -14.177,-1.988 -22.86,-3.289 -9.274,-1.391 -16.278,-0.83 -19.125,1.537 -3.46,2.866 -4.945,2.574 -6.42,-1.26 -2.107,-5.5 -17.705,-7.247 -20.043,-1.83 -0.932,2.159 -4.849,5.788 -11.017,1.356 -5.002,-3.594 -10.639,-1.222 -13.506,2.238 -2.347,2.855 -0.05,8.432 3.889,7.236 4.05,-1.23 7.83,-2.776 10.457,-0.541 6.739,5.734 12.197,1.542 13.396,-0.394 3.217,-5.196 9.97,-4.939 11.797,2.037 2.541,6.602 2.775,9.035 12.336,9.754 14.22,1.069 16.924,6.755 20.383,13.757 -8.834,9.855 -30.468,24.02 -74.885,12.215 -10.175,-2.704 -18.748,-7.118 -25.982,-14.271 -6.244,-7.664 -6.219,-20.773 -7.75,-52.149 -2.624,-53.759 1.174,-70.895 20.363,-91.816 z m 20.928,48.504 c -0.96,-0.109 -2.147,-0.04 -3.604,0.168 -7.495,1.068 -11.028,9.113 -7.771,17.597 3.774,9.843 15.1,1.677 15.1,-10.888 0,-4.62 -0.845,-6.55 -3.725,-6.877 z m 23.434,0.291 c -4.871,-0.03 -10.248,10.892 -7.893,17.047 1.085,2.829 4.86,5.144 8.377,5.144 5.184,0 6.213,-1.91 5.379,-10.383 -0.567,-5.712 -2.763,-10.953 -4.899,-11.65 -0.317,-0.104 -0.64,-0.156 -0.964,-0.158 z m -41.815,25.795 c -2.414,0.184 -3.085,4.238 0.734,7.916 4.112,3.959 11.448,6.403 16.766,1.388 5.395,-5.087 5.473,-9.533 -0.492,-6.57 -6.175,3.068 -11.794,0.559 -14.113,-1.471 -1.092,-0.955 -2.09,-1.325 -2.895,-1.263 z m 59.639,1.654 c -1.189,-0.37 -3.348,0.458 -6.201,3.039 -3.755,3.397 -8.886,2.264 -12.764,1.25 -6.528,-1.708 -5.956,1.233 -1.641,5.547 3.847,3.856 11.909,4.69 17.198,-0.602 4.678,-4.678 5.39,-8.618 3.408,-9.234 z m -90.254,102.738 c 0.159,-0.05 0.323,-0.03 0.492,0.06 0.05,0.03 0.19,0.03 0.26,0.05 4.394,3.171 9.186,6.06 14.484,8.656 27.101,12.469 70.177,12.248 98.83,-5.228 l 3.719,7.226 c 2.05,3.972 6.337,10.172 9.527,13.772 4.433,5.013 7.033,18.795 11.067,58.898 6.613,65.521 6.612,65.749 0.463,60.645 -2.626,-2.181 -18.237,-25.188 -34.682,-51.125 -16.435,-25.936 -33.799,-49.881 -38.576,-53.209 -12.898,-8.992 -33.871,-15.154 -60.834,-17.995 -4.412,-2.17 -6.713,-7.042 -6.713,-13.207 0,-4.687 0.847,-8.196 1.963,-8.537 z" fill="#00B894" transform="translate(-48.708675,-8.5210495) matrix(0.26458333,0,0,0.26458333,-11861.602,-4492.5105)"/>
</svg>