<?xml version="1.0" ?><svg height="109.04302mm" viewBox="0 0 82.181152 109.04302" width="82.181152mm" xmlns="http://www.w3.org/2000/svg">
    <path d="m 45659.053,18119.873 c -8.063,0 -14.879,0.435 -18.985,1.49 -16.423,4.223 -42.6,25.006 -56.183,54.567 -13.583,29.56 -52.049,135.355 -52.049,135.355 0,0 -42.664,74.512 -47.418,96.793 -4.754,22.282 12.842,43.565 21.238,49.733 0,0 5.415,-3.746 12.393,-8.721 -4.063,11.122 -7.26,22.659 -9.287,34.078 -3.787,32.767 36.521,33.704 58.699,35.711 36.844,3.334 122.769,11.957 126.5,-1.229 3.731,-13.187 7.827,-48.16 3.641,-81.74 -4.187,-33.581 -17.473,-50.617 -45.594,-57.824 -14.061,-3.604 -30.943,-7.25 -47.313,-7.547 -4.228,-0.08 -8.419,0.08 -12.521,0.512 -1.477,-20.898 -6.129,-54.709 -6.129,-54.709 l 13.422,-8.209 c 12.102,19.706 30.158,32.443 47.353,37.355 32.399,9.255 71.531,-1.308 95.739,-32.677 16.724,-21.672 21.927,-67.062 19.111,-103.891 l 3.609,-2.207 c 0,0 4.57,-13.614 2.1,-28.283 -2.47,-14.669 -31.858,-45.287 -41.49,-50.51 -7.224,-3.917 -42.647,-8.021 -66.836,-8.047 z" fill="#FFFFFF" paint-order="markers stroke fill" transform="translate(-146.42194,-175.77935) matrix(0.26458333,0,0,0.26458333,-11886.588,-4616.5149)"/>
    <path d="m 45676.574,18112.623 c -29.343,-0.157 -35.684,0.853 -50.445,8.01 -30.911,14.984 -53.629,49.271 -71.395,107.748 -13.677,45.022 -25.298,71.868 -48.705,112.514 -26.532,46.075 -31.419,64.486 -23.472,88.41 3.093,9.308 9.073,21.026 13.289,26.037 2.629,3.125 4.786,7.25 6.318,11.744 -0.379,3.752 -0.643,7.534 -0.662,11.391 0.247,23.344 16.585,6.733 20.43,-14.129 0.1,-0.275 0.196,-0.512 0.295,-0.793 10.524,-30.189 22.914,-56.793 26.445,-56.793 1.128,0 1.278,12.883 0.332,28.629 -1.959,32.593 -1.114,36.812 7.402,36.812 13.417,0 37.611,-44.984 41.289,-75.01 0.752,-6.141 1.302,-12.127 1.635,-18.05 20.411,2.508 54.242,11.402 67.764,18.377 16.204,8.363 19.05,20.73 17.402,60.33 -0.67,16.221 -0.136,28.438 -0.59,42.007 -0.812,24.285 17.739,21.344 19.772,-1.537 1.142,-14.197 -1.776,-60.228 5.525,-46.775 l 19.436,29.529 c 11.355,17.252 24.374,33.945 29.049,37.01 8.235,5.397 8.71,5.322 15.027,-2.443 6.641,-8.163 6.809,-21.221 1.92,-151.993 -0.137,-3.6 0.88,-16.561 2.261,-28.802 2.236,-19.796 -3.751,-25.779 -14.998,-38.539 2.792,-8.655 5.338,-14.465 7.852,-26.868 21.268,-0.06 30.57,-15.252 2.141,-22.791 v -11.087 c 1.378,-7.535 5.091,-22.233 5.828,-31.995 1.447,-19.2 0.658,-27.419 -3.471,-36.119 -9.309,-19.615 -24.365,-34.781 -44.547,-44.865 -17.795,-8.892 -22.608,-9.787 -53.127,-9.959 z m 19.434,16.074 c 22.067,0.171 52.029,21.09 63.17,44.1 10.702,22.113 7.831,24.859 -12.946,12.369 -9.819,-5.902 -20.864,-10.765 -24.543,-10.785 -3.679,-0.03 -12.577,-3.38 -19.777,-7.445 -12.04,-6.803 -13.166,-8.631 -14.084,-22.854 -0.97,-15.008 -0.728,-15.455 8.18,-15.385 z m -39.059,0.567 c 15.359,0.987 15.524,1.119 16.531,13.267 0.922,11.151 0.274,12.27 -7.091,12.27 -10.813,0 -37.845,11.778 -47.446,20.672 -13.058,12.097 -26.527,33.862 -35.279,57.009 -10.093,26.702 -11.179,61.378 -3.113,99.411 6.572,30.984 4.53,70.937 -4.914,96.179 -3.696,9.875 -7.162,17.955 -7.705,17.955 -0.545,0 -1.133,-11.217 -1.28,-24.92 -0.299,-25.781 -8.137,-60.158 -13.713,-60.158 -1.75,0 -3.183,1.647 -3.183,3.66 0,2.012 -4.664,8.967 -10.361,15.459 -3.967,4.517 -10.035,14.115 -15.61,24.254 -2.372,3.964 -4.583,8.267 -6.644,12.869 -0.05,0.109 -0.118,0.226 -0.168,0.334 l -12.055,25.653 -4.305,-10.385 c -2.368,-5.713 -4.256,-16.485 -4.236,-23.936 0.07,-14.229 2.358,-19.493 37.963,-87.173 25.126,-47.76 33.617,-68.152 41.853,-100.479 14.496,-56.909 47.162,-94.097 80.756,-91.941 z m 18.756,36 c 5.149,-0.47 8.405,1.311 12.078,5.502 5.13,5.853 18.628,13.3 29.303,17.195 17.075,6.224 30.055,16.676 34.137,26.803 0.967,11.425 0.32,21.525 -0.06,28.734 -14.611,-0.528 -15.052,18.571 -3.932,20.637 -1.436,6.641 -2.825,15.074 -6.611,24.086 -4.05,-1.461 -14.174,-1.988 -22.857,-3.289 -9.274,-1.391 -16.28,-0.83 -19.127,1.537 -3.46,2.866 -4.943,2.574 -6.418,-1.26 -2.107,-5.5 -17.707,-7.245 -20.045,-1.828 -0.932,2.159 -4.85,5.786 -11.018,1.353 -5.002,-3.594 -10.639,-1.221 -13.506,2.239 -2.347,2.855 -0.05,8.434 3.891,7.238 4.05,-1.23 7.828,-2.778 10.455,-0.543 6.739,5.734 12.197,1.541 13.396,-0.395 3.217,-5.196 9.97,-4.938 11.797,2.038 2.541,6.602 2.775,9.034 12.336,9.753 14.22,1.069 16.924,6.756 20.383,13.758 -8.834,9.855 -30.468,24.02 -74.885,12.215 -14.475,-3.847 -25.749,-11.09 -34.429,-24.961 -1.369,-2.98 -2.745,-6.182 -4.157,-9.265 -10.298,-22.495 -10.717,-45.618 -1.285,-70.526 11.739,-30.985 19.005,-39.157 47.115,-53.014 11.245,-4.816 18.285,-7.538 23.434,-8.007 z m -11.508,43.377 c -0.96,-0.109 -2.145,-0.04 -3.601,0.168 -7.495,1.068 -11.031,9.113 -7.774,17.597 3.774,9.843 15.102,1.677 15.102,-10.888 0,-4.62 -0.846,-6.55 -3.727,-6.877 z m 23.436,0.291 c -4.871,-0.03 -10.25,10.892 -7.895,17.047 1.085,2.829 4.86,5.144 8.377,5.144 5.184,0 6.213,-1.91 5.379,-10.383 -0.567,-5.712 -2.76,-10.953 -4.896,-11.65 -0.318,-0.104 -0.64,-0.156 -0.965,-0.158 z m -41.817,25.797 c -2.414,0.184 -3.082,4.236 0.737,7.914 4.112,3.959 11.445,6.403 16.763,1.388 5.395,-5.087 5.473,-9.531 -0.492,-6.568 -6.175,3.068 -11.794,0.557 -14.113,-1.473 -1.091,-0.955 -2.09,-1.323 -2.895,-1.261 z m 58.571,1.607 c -1.242,0.197 -2.991,1.147 -5.131,3.084 -3.755,3.397 -8.888,2.264 -12.766,1.25 -6.528,-1.708 -5.955,1.233 -1.64,5.547 3.847,3.856 11.91,4.69 17.199,-0.602 4.678,-4.678 5.388,-8.618 3.406,-9.234 -0.297,-0.09 -0.654,-0.111 -1.068,-0.05 z m -104.746,90.529 c 0.905,-0.142 2.076,0.139 3.406,0.684 7.258,8.191 16.266,14.88 27.392,20.332 27.101,12.469 70.178,12.246 98.831,-5.231 l 3.716,7.229 c 2.05,3.972 6.338,10.169 9.528,13.769 4.433,5.013 7.032,18.796 11.066,58.899 6.613,65.521 6.614,65.748 0.465,60.644 -2.626,-2.181 -18.239,-25.188 -34.684,-51.125 -16.435,-25.936 -33.799,-49.881 -38.576,-53.209 -14.506,-10.113 -39.18,-16.673 -71.16,-18.919 -3.373,-0.234 -6.775,-0.279 -10.186,-0.188 -0.327,-6.484 -1.024,-12.983 -2.248,-19.605 -1.46,-7.733 -0.913,-12.752 2.45,-13.28 z" fill="#00B894" transform="translate(-146.42194,-175.77935) matrix(0.26458333,0,0,0.26458333,-11886.588,-4616.5149)"/>
</svg>