<?xml version="1.0" ?><svg height="107.03923mm" viewBox="0 0 76.252235 107.03923" width="76.252235mm" xmlns="http://www.w3.org/2000/svg">
    <path d="m 45194.286,17600.824 c -15.16,-0.17 -30.961,2.697 -45.721,9.275 -47.233,21.05 -44.866,72.648 -48.598,101.15 -7.462,59.544 28.214,96.32 60.612,105.575 32.399,9.255 71.53,-1.309 95.738,-32.678 24.209,-31.369 24.3,-112.456 10.83,-145.299 -9.26,-22.58 -39.51,-37.65 -72.861,-38.023 z m -75.832,241.052 c -16.37,-0.296 -32.229,2.754 -44.242,12.541 -24.026,19.575 -44.685,60.609 -51.692,100.086 -6.163,36.454 36.446,34.887 58.699,35.711 30.29,1.122 122.769,11.958 126.5,-1.228 3.731,-13.187 7.827,-48.16 3.641,-81.74 -4.187,-33.581 -17.473,-50.618 -45.594,-57.825 -14.061,-3.604 -30.942,-7.248 -47.312,-7.545 z" fill="#FFFFFF" paint-order="markers stroke fill" transform="translate(-53.742392,-118.89136) matrix(0.26458333,0,0,0.26458333,-11856.545,-4535.3696)"/>
    <path d="m 45193.738,17590.916 c -34.301,0.432 -70.06,17.845 -84.359,43.146 -12.598,22.291 -17.94,75.862 -15.725,101.12 3.804,43.46 18.866,68.513 50.543,84.035 27.101,12.469 70.177,12.246 98.83,-5.231 l 3.719,7.229 c 2.05,3.972 6.337,10.169 9.527,13.769 4.433,5.013 7.033,18.796 11.067,58.899 6.613,65.521 6.612,65.748 0.463,60.644 -2.626,-2.181 -18.237,-25.188 -34.682,-51.125 -16.435,-25.936 -33.799,-49.881 -38.576,-53.209 -14.506,-10.113 -39.18,-16.672 -71.16,-18.92 -34.969,-2.416 -72.977,11.334 -93.489,59.422 -9.044,19.298 -14.533,38.365 -14.636,59.117 0.247,23.378 16.637,6.687 20.451,-14.218 20.415,-58.838 41.777,-85.885 67.842,-85.885 17.206,0 61.402,10.946 77.301,19.146 16.203,8.363 19.05,20.731 17.402,60.331 -0.67,16.221 -0.138,28.438 -0.592,42.007 -0.812,24.285 17.739,21.344 19.772,-1.537 1.142,-14.197 -1.774,-60.228 5.527,-46.775 l 19.435,29.529 c 11.355,17.252 24.374,33.945 29.049,37.01 8.237,5.397 8.711,5.322 15.028,-2.443 6.641,-8.163 6.807,-21.221 1.918,-151.993 -0.137,-3.6 0.88,-16.561 2.261,-28.802 2.236,-19.796 -3.751,-25.779 -14.998,-38.539 2.792,-8.655 5.34,-14.465 7.854,-26.868 21.268,-0.06 30.567,-15.252 2.138,-22.791 v -16.976 c 0,-27.49 -6.454,-52.413 -16.982,-69.623 -12.428,-20.309 -19.561,-26.239 -41.961,-34.903 -10.261,-3.966 -21.533,-5.71 -32.967,-5.566 z m -2.959,20.059 c 31.03,-1.086 45.95,7.527 60.162,30.681 1.206,5.142 1.176,11.022 0.571,15.989 -1.065,8.744 -0.252,12.271 2.828,12.271 2.381,0 5.066,-1.84 5.974,-4.088 0.303,-0.751 0.597,-1.063 0.864,-1.045 0.351,1.22 0.703,2.441 1.002,3.651 0.01,0.176 0.04,0.282 0.04,0.47 0.142,3.944 -1.216,8.08 -3.014,9.194 -5.056,3.125 -3.865,11.451 1.635,11.451 2.583,0 4.016,1.967 4.59,4.81 0.19,7.986 -0.227,15.069 -0.508,20.475 -14.611,-0.528 -15.054,18.571 -3.934,20.637 -1.436,6.641 -2.823,15.074 -6.609,24.086 -4.05,-1.461 -14.177,-1.988 -22.86,-3.289 -9.274,-1.391 -16.278,-0.83 -19.125,1.537 -3.46,2.866 -4.945,2.574 -6.42,-1.26 -2.107,-5.5 -17.705,-7.245 -20.042,-1.828 -0.932,2.159 -4.85,5.786 -11.018,1.353 -5.002,-3.594 -10.639,-1.221 -13.506,2.239 -2.347,2.855 -0.05,8.434 3.889,7.238 4.05,-1.23 7.83,-2.778 10.457,-0.543 6.739,5.734 12.197,1.541 13.396,-0.395 3.217,-5.196 9.97,-4.939 11.797,2.037 2.541,6.602 2.775,9.035 12.336,9.754 14.22,1.069 16.924,6.756 20.383,13.758 -8.834,9.855 -30.468,24.02 -74.885,12.215 -17.342,-4.609 -30.144,-13.95 -39.32,-33.92 -5.799,-12.63 -7.908,-21.283 -9.108,-40.73 0.548,-2.106 1.516,-3.991 2.987,-6.09 6.508,-9.294 6.621,-18.645 0.25,-21.086 -1.743,-0.669 -2.992,-2.573 -3.78,-5.303 1.125,-16.987 5.167,-34.639 14.248,-49.389 0.436,0.447 0.88,1.105 1.366,1.969 1.769,3.151 4.616,5.727 6.328,5.727 4.421,0 3.854,-11.034 -0.807,-15.694 -0.242,-0.242 -0.401,-0.496 -0.582,-0.746 12.447,-14.788 31.592,-25.128 60.41,-26.136 z m -13.049,19.671 c -2.343,-0.01 -4.627,0 -6.789,0.04 -24.145,0.485 -17.402,3.571 -3.003,4.649 12.613,0.945 36.586,0.95 39.736,1.269 3.149,0.316 5.724,-0.896 5.724,-2.693 0,-1.732 -19.266,-3.168 -35.668,-3.268 z m 12.764,13.364 c -18.898,-0.1 -36.566,1.248 -39.265,2.992 -6.269,4.05 57.654,4.05 67.078,0 4.229,-1.815 -5.611,-2.869 -27.813,-2.992 z m -63.646,14.049 c -0.215,0 -0.433,0.04 -0.655,0.115 -0.506,0.161 -1.029,0.492 -1.554,1.017 -2.441,2.445 -2.21,5.749 0.785,11.184 3.721,6.752 4.401,6.976 5.486,1.795 1.545,-7.383 -0.836,-14.214 -4.062,-14.111 z m -5.071,18.392 c -3.92,0 -6.586,9.172 -4.357,14.979 1.697,4.424 2.635,4.507 6.562,0.58 4.473,-4.476 2.904,-15.559 -2.205,-15.559 z m 56.18,3.526 c -0.96,-0.109 -2.147,-0.04 -3.603,0.168 -7.495,1.068 -11.029,9.113 -7.772,17.597 3.774,9.843 15.1,1.677 15.1,-10.888 0,-4.62 -0.845,-6.55 -3.725,-6.877 z m 23.434,0.291 c -4.871,-0.03 -10.248,10.892 -7.893,17.046 1.085,2.829 4.858,5.147 8.375,5.147 5.184,0 6.215,-1.912 5.381,-10.385 -0.567,-5.712 -2.763,-10.953 -4.899,-11.65 -0.317,-0.105 -0.64,-0.156 -0.964,-0.158 z m -41.817,25.796 c -2.414,0.185 -3.082,4.237 0.737,7.915 4.112,3.959 11.447,6.403 16.765,1.388 5.395,-5.087 5.471,-9.531 -0.494,-6.568 -6.175,3.068 -11.792,0.557 -14.111,-1.473 -1.092,-0.955 -2.092,-1.323 -2.897,-1.262 z m 59.641,1.653 c -1.189,-0.37 -3.348,0.457 -6.201,3.039 -3.755,3.397 -8.886,2.264 -12.764,1.25 -6.528,-1.708 -5.956,1.233 -1.641,5.547 3.847,3.856 11.909,4.69 17.198,-0.602 4.678,-4.678 5.39,-8.618 3.408,-9.234 z" fill="#00B894" transform="translate(-53.742392,-118.89136) matrix(0.26458333,0,0,0.26458333,-11856.545,-4535.3696)"/>
</svg>