<?xml version="1.0" ?><svg height="178.92152mm" viewBox="0 0 271.48578 178.92152" width="271.48578mm" xmlns="http://www.w3.org/2000/svg">
    <path d="m 3706.6193,18632.484 c -10.071,-20.248 -2.7856,-36.64 6.0712,-44.289 8.8568,-7.649 168.9937,-85.622 168.9937,-85.622 0,0 28.4989,-25.584 36.6415,-27.898 8.1425,-2.314 30.4988,-3.921 30.4988,-3.921 0,0 433.5888,-275.633 453.0167,-288.682 19.4278,-13.049 306.282,-191.376 306.282,-191.376 0,0 -32.4273,51.682 -65.2832,82.151 -32.856,30.469 -149.423,113.263 -183.636,136.339 -34.213,23.077 -498.9482,319.219 -498.9482,319.219 0,0 -29.856,19.348 -39.2842,17.42 -9.4282,-1.928 -46.284,27.705 -57.5693,37.09 -11.2853,9.385 -92.7108,60.81 -120.3526,60.295 -27.6419,-0.514 -36.4304,-10.726 -36.4304,-10.726 z" fill="#FFFFFF" transform="translate(-84.23925,-269.61667) matrix(0.26458333,0,0,0.26458333,-892.90756,-4486.9422)"/>
    <path d="m 3716.688,18651.959 c -26.6968,-11.825 -32.1276,-53.327 -8.7926,-67.193 50.9039,-30.25 69.5257,-40.157 106.85,-56.851 43.367,-19.394 54.9297,-22.678 54.9297,-15.604 0,5.155 -7.279,11.138 -23.3889,19.226 -14.7331,7.394 -14.0437,12.065 2.0579,13.943 10.6451,1.243 20.9722,14.269 16.0317,20.22 -7.9854,9.623 3.3456,6.613 20.6504,-5.485 l 18.5528,-12.968 -7.5908,-10.232 c -14.6059,-19.691 -27.8031,-35.64 -43.8356,-52.973 -18.9913,-20.531 -21.0284,-30.213 -8.4431,-40.136 8.8379,-6.966 28.3506,-10.962 35.8769,-3.437 3.9043,3.904 1.3814,8.778 -7.2986,7.419 -5.9632,-0.935 -11.596,-0.04 -14.7919,2.343 -4.783,3.57 -3.6878,5.036 14.9351,19.978 l 20.0965,16.122 5.6642,-7.2 c 7.8806,-10.02 19.6837,-15.509 33.3368,-15.509 9.592,0 17.7701,-3.817 47.1584,-22.015 80.9041,-50.089 113.6102,-70.037 156.2592,-95.301 24.7024,-14.634 83.441,-52.184 130.5302,-83.448 125.6116,-83.395 276.2914,-178.956 370.9518,-235.259 22.6146,-13.451 49.7254,-30.732 60.2461,-38.4 11.9602,-8.721 20.1188,-12.955 21.7715,-11.301 3.4946,3.492 -5.0064,25.865 -16.0369,42.2 -13.7647,20.386 -74.2176,80.47 -100.0805,99.468 -23.6423,17.369 -119.289,82.066 -154.4001,104.439 -10.0301,6.392 -37.8161,24.187 -61.7466,39.544 -23.9304,15.359 -94.0377,58.561 -155.7942,96.006 -61.7562,37.445 -126.8107,78.389 -144.5655,90.985 -39.1027,27.745 -104.7022,71.253 -113.4182,75.226 -3.4798,1.586 -7.9143,7.272 -9.8541,12.636 -2.0824,5.759 -6.303,10.809 -10.305,12.331 -3.7279,1.417 -6.7779,3.27 -6.7779,4.119 0,0.85 4.6269,10.67 10.2821,21.824 17.2308,33.989 13.9791,53.11 -11.5789,68.089 -22.4429,13.152 -31.5605,1.327 -17.1092,-22.19 6.1198,-9.957 6.3759,-11.743 3.0393,-21.2 -3.2485,-9.209 -20.3066,-44.887 -22.7481,-47.579 -0.5265,-0.581 -10.1666,7.162 -21.4223,17.206 -30.8715,27.552 -60.3603,47.578 -96.6079,65.609 -27.4581,13.661 -35.4618,16.399 -49.8637,17.053 -9.4357,0.432 -19.6821,-0.336 -22.77,-1.705 z m 40.0011,-17.453 c 3.4738,-1.276 6.3161,-3.733 6.3161,-5.459 0,-4.352 -23.1061,-39.107 -25.9986,-39.107 -3.592,0 -19.7071,8.563 -25.231,13.406 -2.7019,2.37 -4.9126,7.62 -4.9126,11.669 0,20.43 22.8915,29.386 49.8261,19.491 z m 33.0737,-14.948 c 5.354,-2.238 9.7346,-4.931 9.7346,-5.986 0,-2.889 -11.1945,-20.88 -20.3552,-32.71 l -8.116,-10.483 -11.0283,5.628 c -6.0655,3.095 -11.0284,6.354 -11.0284,7.243 0,0.89 5.2039,7.497 11.564,14.681 6.36,7.184 12.8786,15.905 14.4861,19.38 3.4616,7.482 2.5512,7.342 14.7432,2.247 z m 31.6447,-15.185 c 2.7769,-1.761 0.2179,-7.528 -10.5695,-23.818 -14.6405,-22.108 -17.7912,-24.2 -26.6554,-17.72 -4.8221,3.526 -4.2923,4.572 8.1003,15.995 7.2929,6.722 15.0901,15.761 17.3271,20.088 4.3291,8.372 5.9893,9.139 11.7975,5.455 z m 27.3364,-22.144 c -3.0266,-7.886 -24.3643,-37.201 -27.0787,-37.201 -2.5711,0 -13.4242,4.884 -16.2224,7.298 -0.5896,0.511 5.4104,8.02 13.3338,16.689 7.9232,8.67 14.4062,18.259 14.4062,21.311 0,5.404 0.2164,5.418 8.4767,0.539 4.693,-2.773 7.8553,-6.627 7.0844,-8.636 z m 89.3542,-54.396 c 3.0926,-15.461 1.8851,-31.898 -2.8383,-38.642 -3.8969,-5.563 -6.295,-6.329 -15.8254,-5.052 -21.1518,2.839 -21.5565,6.981 -3.0193,30.902 9.0308,11.656 17.2092,21.274 18.1741,21.378 0.965,0.105 2.5441,-3.76 3.5089,-8.586 z m 69.8635,-36.645 c 20.4365,-14.172 49.0355,-34.539 63.5532,-45.255 26.0359,-19.22 54.4095,-38.105 90.0988,-59.965 10.0352,-6.147 40.9836,-25.108 68.7738,-42.136 134.048,-82.134 328.2564,-210.229 376.5364,-248.353 18.1633,-14.342 74.8333,-72.055 79.7209,-81.188 1.7711,-3.309 -7.6404,1.41 -24.5822,12.329 -15.0988,9.729 -42.6109,26.856 -61.1378,38.059 -18.5269,11.201 -40.9785,25.017 -49.8924,30.701 -93.8516,59.847 -211.3909,136.247 -334.6802,217.541 -81.8271,53.956 -155.0924,102.181 -162.8119,107.165 -7.7195,4.984 -25.4043,16.418 -39.2994,25.406 -13.895,8.99 -31.7043,20.275 -39.5758,25.078 -12.6193,7.702 -14.0319,9.491 -11.9457,15.131 l 2.3659,6.394 9.1386,-6.388 c 5.0262,-3.511 24.9288,-17.865 44.2277,-31.895 54.3076,-39.483 102.1021,-71.853 138.5744,-93.852 18.3195,-11.05 60.005,-38.062 92.6343,-60.026 82.8229,-55.752 187.3117,-123.395 230.5592,-149.257 20.0708,-12.003 46.9504,-29.414 59.7325,-38.692 12.782,-9.275 23.9616,-16.145 24.844,-15.263 4.59,4.589 -51.4147,47.411 -100.0154,76.473 -21.336,12.759 -188.4793,123.312 -227.3752,150.393 -14.6671,10.21 -48.1418,31.54 -74.3883,47.394 -26.2462,15.855 -76.7235,48.413 -112.1717,72.352 -35.4481,23.938 -68.6068,45.258 -73.6864,47.382 -8.2527,3.446 -9.2353,5.049 -9.2353,15.049 0,6.154 0.648,11.19 1.4403,11.19 0.7922,0 18.1612,-11.594 38.5977,-25.767 z" fill="#00B894" transform="translate(-84.23925,-269.61667) matrix(0.26458333,0,0,0.26458333,-892.90756,-4486.9422)"/>
</svg>