<?xml version="1.0" ?><svg height="286.63351mm" viewBox="0 0 409.78226 286.63351" width="409.78226mm" xmlns="http://www.w3.org/2000/svg">
    <path d="m 35739.553,16245.092 c -10.952,0.01 -21.235,1.525 -28.264,3.979 -18.269,6.376 -31.13,22.114 -43.201,45.892 -1.447,-0.596 -2.644,-1.282 -4.168,-1.855 -8.224,-3.091 -57.942,-6.166 -66.25,-6.299 -136.39,51.647 -150.829,173.812 -105.673,229.214 43.635,53.534 135.845,31.423 155.277,17.257 41.999,-25.894 79.962,-82.941 84.133,-114.838 11.833,-1.151 23.538,-2.323 32.648,-3.356 28.38,-3.216 43.831,-13.432 39.521,-18.351 -4.309,-4.919 -19.759,-19.677 -21.546,-31.123 -1.787,-11.446 16.397,-63.379 11.982,-92.987 -3.035,-20.356 -30.365,-27.566 -54.459,-27.533 z m -672.373,92.563 c -65.711,11.614 -143.324,41.696 -151.109,95.207 6.074,63.541 119.019,83.82 101.949,83.088 -23.573,-1.082 -47.005,5.093 -75.061,28.837 -28.056,23.744 -55.004,65.728 -80.888,111.319 -17.894,75.639 -28.185,121.042 -33.422,149.431 0,0 -67.596,31.828 -118.112,51.885 -72.31,26.03 -45.45,52.991 -16.113,73.629 29.337,20.639 342.13,208.617 500.799,281.502 158.668,72.886 201.019,55.409 220.646,42.766 19.627,-12.644 116.525,-49.459 157.225,-68.424 37.278,-17.371 306.135,-130.104 354.916,-150.551 l 32.875,0.838 c 0.486,29.852 1.218,59.008 0.469,86.012 27.741,20.514 114.846,-5.063 146.369,-23.395 31.524,-18.331 96.123,-78.562 96.123,-78.562 -12.548,-137.591 -13.027,-244.107 -94.898,-338.299 -29.536,-32.73 -44.148,-82.204 -47.827,-99.988 -3.678,-17.784 -44.039,-63.758 -93.23,-99.61 -29.655,-24.128 -75.321,12.532 -118.547,42.606 -16.773,28.042 -36.656,81.986 -17.82,136.576 25.619,74.25 56.774,87.732 80.222,88.123 17.761,-0.08 31.491,0.428 48.032,9.459 l 14.773,71.546 -262.217,-73.017 c 0.197,-2.223 3.522,-40.828 -0.127,-82.746 -3.757,-43.158 -59.293,-80.905 -111.279,-94.492 -51.985,-13.587 -105.202,-4.242 -128.223,12.91 -22.897,17.061 -43.083,91.705 -43.3,92.51 -59.584,-15.413 -126.196,-32.666 -138.682,-35.66 -16.709,-4.006 -28.704,-4.824 -36.523,-4.643 -7.818,0.182 -11.461,1.365 -11.461,1.365 0.04,-14.313 2.266,-22.905 4.357,-41.906 0,0 -29.658,-12.318 -33.117,-12.318 -1.863,0 -37.573,6.975 -72.481,13.869 -0.7,-6.395 -5.792,-48.73 -22.05,-74.606 -1.67,-2.659 -3.651,-4.94 -5.879,-6.904 41.898,-8.608 59.31,-41.606 72.351,-65.129 41.631,-82.938 -18.929,-116.635 -118.74,-123.228 z" fill="#FFFFFF" paint-order="markers stroke fill" transform="translate(188.78127,-24.804201) matrix(0.26458333,0,0,0.26458333,-9360.3661,-4257.0577)"/>
    <path d="m 35058.982,16183.416 c -5.659,0.05 -11.587,2.863 -14.096,9.441 -4.058,10.641 -15.62,7.489 -18.812,3.151 -4.685,-6.367 -23.583,-5.416 -29.744,2.006 -2.964,3.573 -9.778,9.191 -17.606,4.58 -4.027,-2.372 -15.454,0.425 -16.836,7.461 -2.697,13.736 -10.068,10.646 -17.734,9.375 -9.623,-1.596 -23.045,2.595 -20.055,13.41 4.653,16.83 -10.05,17.198 -18.73,16.375 -8.885,-0.842 -11.793,6.03 -11.793,14.502 0,8.192 -2.537,11.543 -8.737,11.543 -11.79,0 -20.187,11.046 -18.355,24.15 1.144,8.171 -1.006,11.098 -8.975,12.233 -12.66,1.797 -20.246,14.577 -19.052,32.097 1.113,16.343 -0.494,24.518 -10.118,35.461 -6.853,7.81 -14.832,22.476 -3.47,31.34 8.671,6.765 6.033,13.6 3.867,13.6 -8.916,0 -13.145,22.365 -0.787,25.15 9.88,2.227 14.413,13.046 10.601,23.703 -3.499,9.783 4.708,18.293 11.963,15.442 9.747,-3.83 14.793,3.139 16.283,9.628 3.015,13.133 29.108,20.702 44.1,20.702 6.685,0 28.308,-0.79 41.25,-5.522 l 23.527,-8.598 13.627,10.905 c 20.51,16.416 68.838,31.097 93.299,28.34 11.274,-1.27 20.705,-4.881 20.705,-4.881 8.03,15.999 25.915,7.117 20.467,-10.688 1.657,3.402 40.361,-33.785 40.361,-33.785 14.131,1.957 23.238,-4.026 25.336,-12.404 1.904,-7.579 8.133,-21.239 18.768,-18.401 14.58,3.891 20.709,-10.414 18.877,-14.955 -3.837,-9.51 -7.351,-30.505 9.9,-24.101 7.136,2.649 16.983,-12.29 11.358,-16.61 -12.177,-9.349 -0.417,-13.661 5.865,-17.056 17.438,-9.422 15.774,-63.37 2.373,-73.805 -9.048,-7.045 -13.106,-8.079 -3.965,-16.307 10.049,-9.046 -1.124,-27.978 -12.48,-25.638 -8.597,1.772 -14.308,-1.932 -8.393,-9.649 3.337,-4.354 -6.531,-12.997 -11.603,-12.029 -9.615,1.835 -17.209,-3.652 -14.342,-13.912 2.458,-8.798 -10.719,-13.128 -16.998,-11.135 -5.486,1.741 -14.869,2.77 -12.325,-5.355 2.734,-8.735 -17.911,-16.428 -23.683,-14.209 -15.629,6.008 -20.196,1.741 -20.006,-8.227 -5.975,-8.724 -23.661,-11.89 -36.853,-4.693 -9.009,7.093 -21.738,3.065 -24.499,-5.526 -1.432,-4.456 -6.821,-7.161 -12.48,-7.109 z m 687.123,51.967 c -22.793,-0.722 -46.932,7.68 -61.793,24.607 -7.345,8.365 -14.121,17.509 -15.06,20.323 -1.201,3.608 -6.481,3.741 -17.954,0.451 -27.479,-7.883 -48.394,-5.321 -78.195,9.568 -31.276,15.629 -80.548,64.535 -96.443,95.732 -5.041,9.891 -9.225,20.831 -9.225,20.831 -10.078,0.535 -9.842,10.524 -2.984,17.144 -1.456,28.737 0.04,64.493 25.982,98.391 6.576,8.814 13.35,12.355 13.35,12.355 -10.033,19.087 13.318,23.686 22.152,12.36 0,0 6.401,1.966 20.652,5.828 29.876,8.103 45.106,8.22 77.456,0.607 63.177,-14.871 104.099,-56.71 117.687,-120.324 2.366,-11.08 4.376,-12.332 16.041,-10.002 14.246,2.85 52.33,-13.816 56.34,-20.893 7.169,-12.653 7.287,-17.458 -9.02,-23.105 -16.704,-5.824 -18.643,-19.719 -7.265,-51.975 11.26,-31.913 9.203,-57.115 -5.981,-73.373 -11.1,-11.882 -28.012,-17.964 -45.74,-18.525 z m 3.254,20.117 c 4.121,-0.116 8.246,0.833 13.213,2.564 7.981,2.781 16.621,8.997 19.195,13.809 4.285,8.009 3.605,8.339 -8.029,3.914 -6.994,-2.659 -20.633,-3.496 -30.309,-1.859 -9.677,1.634 -24.828,7.883 -33.67,13.881 -20.049,13.605 -17.031,2.541 3.563,-13.063 17.926,-13.581 26.97,-18.991 36.037,-19.246 z m -42.275,4.777 c 1.771,0.301 -1.266,5.147 -9.45,15.332 -8.445,10.506 -16.051,19.106 -16.898,19.106 -7.195,0 11.569,-27.142 22.986,-33.252 1.646,-0.881 2.771,-1.286 3.362,-1.186 z m 50.234,25.715 c 5.491,-0.14 10.445,0.324 14.221,1.522 5.238,1.663 10.888,7.313 12.552,12.556 4.302,13.556 -3.65,19.465 -13.259,9.852 -8.424,-8.42 -37.564,-10.395 -59.079,-4 l -11.63,3.455 10.666,-9.404 c 8.751,-7.713 30.054,-13.561 46.529,-13.981 z m -144.84,8.695 c 14.031,-0.385 29.286,3.32 45.772,11.114 41.241,19.498 63.099,52.594 62.48,94.607 -0.177,12.237 -1.782,25.93 -3.562,30.428 -2.984,7.541 -4.059,7.605 -13.747,0.82 -9.337,-6.539 -10.169,-9.915 -7.464,-30.277 3.754,-28.328 -2.175,-29.493 -16.036,-3.149 -5.718,10.878 -9.266,15.931 -7.882,11.227 1.382,-4.699 3.878,-17.06 5.539,-27.465 4.028,-25.184 -4.363,-19.992 -17.668,10.938 -11.875,27.605 -18.42,24.553 -13.58,-6.328 4.401,-28.052 -1.305,-28.712 -9.051,-1.045 -3.241,11.582 -7.356,21.96 -9.143,23.062 -4.421,2.737 -37.347,-7.635 -37.347,-11.762 0,-1.82 3.264,-11.116 7.252,-20.658 9.955,-23.829 5.903,-24.953 -8.967,-2.488 -12.574,19.008 -21.549,24.05 -21.549,12.113 0,-3.625 7.309,-20.376 16.25,-37.22 8.937,-16.846 14.418,-30.631 12.182,-30.631 -5.184,0 -24.553,25.404 -35.471,46.529 -5.115,9.92 -9.254,13.807 -10.545,9.978 -1.172,-3.467 6.576,-18.915 17.211,-34.328 10.636,-15.416 18.531,-28.832 17.545,-29.818 -4.045,-4.044 -27.284,18.996 -38.555,38.227 -12.319,21.019 -17.517,24.515 -23.076,15.519 -3.572,-5.777 24.011,-36.068 50.975,-55.971 11.598,-8.563 24.406,-13.036 38.437,-13.422 z m 116.197,17.374 c 11.758,0.622 26.805,4.345 33.688,9.533 10.549,7.963 11.997,12.048 10.687,30.359 -1.182,16.528 0.601,23.265 8.141,30.809 12.378,12.374 12.357,12.455 -4.996,18.506 -26.568,9.261 -29.538,7.407 -35.664,-22.262 -3.111,-15.051 -10.958,-35.189 -17.445,-44.746 -6.486,-9.553 -10.782,-18.385 -9.547,-19.621 2.211,-2.211 8.082,-2.952 15.136,-2.578 z m -215.191,62.582 v 0 c 4.364,0.09 10.589,4.638 23.932,14.826 11.282,8.615 33.662,20.343 49.734,26.066 23.571,8.394 37.696,18.519 64.334,12.311 13.118,-2.327 19.65,-0.605 31.887,8.427 h -0.01 l 15.387,11.354 -28.399,14.334 c -21.958,11.082 -28.398,12.753 -28.398,7.363 0,-3.836 -6.019,-13.71 -13.375,-21.941 -16.613,-18.592 -41.449,-20.033 -59.125,-3.426 -11.236,10.569 -13.108,9.486 -11.41,-6.644 2,-18.972 -11.476,-37.638 -30.616,-42.792 -10.199,-2.75 -19.642,-1.603 -23.213,-0.236 -8.07,3.106 -8.075,-1.695 0,-12.334 3.611,-4.756 5.877,-7.379 9.27,-7.308 z m -392.49,3.326 c 3.644,-0.424 7.451,1.72 7,6.658 -0.873,9.563 5.078,11.438 15.873,5.85 14.058,-7.278 26.002,11.08 22.201,31.341 -5.153,27.465 -19.21,54.879 -36.713,71.575 -15.314,14.614 -17.557,14.037 -17.557,14.037 -8.684,-11.172 -21.391,-3.143 -17.627,11.131 0,0 -0.736,3.285 -17.816,3.285 -18.652,0 -33.591,-10.855 -40.023,-29.078 -4.281,-12.129 -12.469,-9.841 -12.469,3.488 0,14.764 -5,14.658 -23.014,-0.5 -21.247,-17.881 -29.092,-31.523 -16.742,-40.162 7.067,-4.944 11.761,-14.052 7.186,-20.971 -3.851,-5.825 3.408,-15.987 10.998,-14.893 9.579,1.38 14.83,-4.802 13.81,-11.517 -0.649,-4.272 7.354,-9.809 11.334,-7.334 5.453,3.391 16.373,2.06 17.863,-7.305 1.138,-7.149 22,-22.329 47.504,-8.197 7.585,4.203 19.376,2.328 22.764,-3.92 1.115,-2.056 3.241,-3.234 5.428,-3.488 z m 394.355,26.506 c 4.651,0.478 9.62,3.098 14.639,8.775 9.793,11.256 11.551,16.235 6.851,27.328 -2.963,6.982 -7.619,13.287 -11.468,16.486 -8.032,6.679 -12.331,6.025 -26.743,0.243 -9.197,-3.699 -10.533,-7.091 -9.304,-23.983 0.983,-12.443 12.073,-30.285 26.025,-28.849 z m 4.215,28.197 c -3.837,0 -10.22,4.227 -11.041,9.984 -1.143,8.058 3.383,10.951 11.041,10.951 7.66,0 9.61,-2.41 8.465,-10.468 -0.815,-5.757 -4.626,-10.467 -8.465,-10.467 z m -400.326,5.428 c -8.539,0 -13.761,10.999 -9.947,20.937 3.4,8.865 9.549,8.887 16.877,0.06 7.059,-8.503 2.936,-20.994 -6.93,-20.994 z m -55.36,4.652 c -7.038,0 -16.213,18.412 -13.335,26.752 3.605,10.436 19.488,6.522 22.519,-5.551 3.229,-12.862 -0.384,-21.201 -9.184,-21.201 z m 529.331,1.812 c 4.495,-0.21 8.519,1.903 15.16,6.856 14.57,10.869 18.189,22.255 10.148,31.945 -3.338,4.022 -11.054,8.446 -23.183,8.446 -19.374,0 -26.743,-7.164 -25.895,-21.655 0,-15.5 4.757,-18.376 14.504,-22.816 3.703,-1.688 6.569,-2.649 9.266,-2.776 z m 346.148,15.112 c -14.728,-0.504 -29.231,3.403 -48.941,12.195 -10.602,4.724 -27.976,10.894 -38.616,13.709 -33.768,8.932 -59.901,42.464 -50.127,64.311 3.097,6.93 3.931,6.408 5.539,-3.479 2.059,-12.645 27.462,-41.873 36.395,-41.873 3.179,0 -1.464,13.166 -10.91,30.957 -13.315,25.075 -16.642,36.739 -17.498,61.381 l -1.051,30.422 -17.678,6.119 c -9.723,3.367 -18.822,7.266 -20.217,8.662 -5.281,5.28 10.944,10.408 25.471,8.053 15.06,-2.445 15.164,-2.326 23.18,26.248 4.432,15.786 14.01,36.921 21.289,46.971 16.794,23.183 52.464,41.73 80.256,41.73 19.633,0 20.886,0.796 23.875,15.121 1.734,8.317 6.317,20.105 10.183,26.195 5.963,9.402 6.18,15.399 1.432,39.553 -2.04,9.685 -2.93,19.768 -5.578,30.274 -3.104,11.562 -14.571,0.06 -18.477,-18.538 -4.752,-22.598 -12.959,-25.525 -42.769,-15.257 -18.871,6.504 -21.312,6.149 -72.981,-10.516 -29.401,-9.484 -72.84,-22.217 -96.525,-28.297 -50.502,-12.959 -60.253,-21.637 -48.904,-43.515 5.764,-11.108 5.873,-14.647 0.701,-22.475 -9.776,-14.807 -27.517,-19.067 -41.432,-9.949 -12.609,8.263 -14.959,20.638 -6.81,35.861 8.781,16.411 -1.38,17.9 -44.188,6.475 -22.618,-6.035 -48.346,-12.25 -57.176,-13.805 -12.285,-2.168 -17.68,-6.318 -22.945,-17.65 -6.184,-13.313 -9.129,-14.957 -29.033,-16.227 -12.302,-0.785 -25.025,0.974 -28.617,3.957 -6.903,5.726 -7.773,4.505 -12.735,-17.873 -2.158,-9.731 -1.228,-10.432 9.914,-7.428 6.765,1.824 19.523,4.905 28.356,6.842 8.83,1.941 33.608,9.822 55.06,17.52 48.086,17.254 80.143,23.183 77.174,14.277 -2.258,-6.772 -2.241,-6.767 -77.174,-27.311 -61.675,-16.909 -83.515,-23.757 -88.488,-27.752 -6.555,-5.269 15.355,-57.355 37.031,-79.421 39.03,-39.732 124.723,-22.742 163.219,-1.704 14.497,8.754 42.262,32.238 52.613,49.397 6.168,11.57 9.963,32.053 9.963,58.291 0,30.591 -1.311,37.852 -6.875,37.852 -14.291,0 -6.108,9.027 12.619,13.91 10.725,2.801 39.114,11 63.084,18.226 41.875,12.622 120.047,32.1 128.832,32.1 2.323,0 4.227,-1.9 4.227,-4.223 0,-5.069 -22.227,-12.115 -110.117,-34.902 l -66.526,-17.252 -0.242,-39.486 c -0.161,-25.774 -2.811,-45.329 -7.629,-56.303 l -3.234,-7.367 c -25.773,-58.711 -94.153,-88.365 -160.879,-90.172 -30.338,-0.822 -58.317,0.432 -91.348,2.511 -6.943,0.437 -22.966,3.988 -36.111,8.122 -55.006,17.296 -88.983,38.262 -113.107,59.982 -14.968,13.476 -20.75,14.417 -30.198,13.912 -33.904,-1.813 -19.409,9.178 4.502,9.178 -11.047,16.274 -15.441,33.533 -21.437,51.986 l -50.469,20.502 c -21.992,8.934 -71.386,27.15 -109.238,41.84 -37.853,14.687 -84.307,30.332 -103.233,34.771 -34.301,8.042 -113.97,41.366 -120.367,50.348 -5.348,7.508 -1.727,13.021 17.502,26.658 40.677,28.854 157.048,79.272 315.986,136.91 184.175,66.789 227.373,83.875 278.116,110 19.14,9.855 37.741,17.885 41.334,17.815 3.596,-0.06 18.921,-6.291 34.062,-13.854 15.141,-7.564 51.273,-23.069 80.295,-34.453 29.019,-11.386 61.789,-24.857 72.818,-29.943 11.028,-5.083 20.474,-8.632 20.983,-7.885 0.513,0.747 5.507,7.984 11.099,16.084 l 10.165,14.725 -17.389,8.822 c -9.559,4.852 -40.505,18.272 -68.76,29.82 -51.878,21.204 -105.849,47.596 -106.914,50.944 -3.879,12.189 36.704,-4.152 50.02,-9.629 13.878,-5.63 42.193,-22.16 62.382,-29.176 20.186,-7.017 48.879,-18.238 63.762,-24.941 14.879,-6.704 28.403,-10.531 30.051,-8.504 1.648,2.023 10.419,13.062 19.496,24.525 22.887,28.905 50.678,47.552 65.371,43.863 13.885,-3.482 53.179,-49.593 70.123,-82.283 l 12.291,-23.717 3.035,23.108 c 9.759,74.301 24.241,51.971 28.862,-44.498 2.413,-50.367 3.763,-56.317 22.964,-101.268 8.702,-19.702 17.791,-41.9 25.094,-63.433 14.286,-42.432 13.083,-43.113 23.174,13.14 8.566,47.784 11.043,51.969 28.885,48.846 31.28,-5.472 47.041,-12.656 71.539,-32.609 13.829,-11.267 25.32,-17.839 25.529,-14.612 0.209,3.227 2.828,36.228 5.817,73.332 5.15,63.945 5.964,67.533 15.636,68.908 8.49,1.212 10.747,-1.454 13.448,-15.851 8.358,-44.546 -12.648,-198.689 -35.323,-259.184 -11.536,-30.784 -46.252,-84.623 -76.009,-117.886 -23.463,-26.224 -30.959,-39.023 -30.959,-52.862 0,-5.464 -6.395,-25.298 -14.209,-44.072 -17.845,-42.863 -50.74,-76.084 -87.385,-88.254 -10.171,-3.379 -19.089,-5.269 -27.926,-5.572 z m -386.912,3.041 c 4.244,0.03 5.814,4.031 5.848,12.281 0.09,16.738 4.314,22.79 20.097,28.789 19.29,7.335 37.662,6.017 50.154,-3.596 6.102,-4.697 25.41,-14.01 42.903,-20.695 l 31.808,-12.158 -16.048,19.535 c -8.824,10.741 -27.664,25.525 -41.862,32.85 -25.521,12.776 -79.477,23.111 -107.236,4.552 1.533,-12.389 -10.134,-19.871 -20.639,-11.361 0,0 -10.719,-5.213 -17.199,-17.74 -10.231,-19.78 -12.867,-25.505 -2.189,-21.242 13.144,5.247 32.037,0.375 39.072,-4.235 7.073,-4.635 11.99,-7.006 15.291,-6.98 z m 29.33,0.201 c -5.725,-0.274 -7.734,1.979 -7.734,8.023 0,5.085 2.619,10.155 5.814,11.272 9.478,3.308 18.012,-1.868 16.465,-9.981 -0.792,-4.156 -6.126,-8.223 -11.859,-9.045 -0.975,-0.138 -1.868,-0.23 -2.686,-0.269 z m 348.238,26.494 c 3.071,-0.05 6.316,0.04 9.615,0.258 13.196,0.865 27.246,3.769 34.379,8.201 25.926,16.1 43.224,36.1 53.608,61.984 5.76,14.359 25.406,49.143 43.652,77.288 73.202,112.917 87.261,143.501 92.358,200.943 2.981,33.572 -3.267,51.751 -8.952,26.06 -6.353,-28.718 -21.676,-71.142 -25.691,-71.142 -5.674,0 -5.405,10.374 0.682,26.379 2.721,7.168 7.695,26.107 11.043,42.094 4.791,22.857 4.877,30.073 0.406,33.781 -4.329,3.593 -6.824,-3.313 -10.481,-28.994 -2.638,-18.544 -8.203,-41.042 -12.361,-49.996 -7.029,-15.123 -7.322,-15.288 -4.111,-2.329 5.983,24.165 4.307,101.311 -2.248,103.51 -4.084,1.371 -5.815,-4.318 -5.815,-19.078 0,-33.089 -29.735,-147.147 -38.381,-147.207 -4.708,-0.04 -4.967,-2.179 7.784,64.389 6.204,32.378 12.528,71.431 14.052,86.783 2.442,24.599 1.669,28.608 -6.539,33.719 -11.277,7.027 -10.365,10.256 -23.174,-81.83 -6.826,-49.071 -12.61,-73.684 -21.878,-93.051 -10.262,-21.449 -12.937,-24.376 -14.434,-15.807 -1.01,5.786 -7.783,13.594 -15.053,17.352 -7.268,3.763 -17.502,12.285 -22.744,18.951 l -9.533,12.117 -2.918,-11.642 c -1.61,-6.403 -0.46,-23.504 2.549,-38.004 5.899,-28.407 3.041,-69.368 -7.299,-104.672 l -6.133,-20.934 13.481,15.854 c 7.416,8.721 16.195,24.424 19.509,34.896 7.755,24.488 14.951,24.302 16.748,-0.428 1.997,-27.422 -11.217,-50.351 -46.306,-80.357 -37.613,-32.166 -58.804,-54.591 -67.53,-71.473 -7.747,-14.974 -3.421,-24.459 4.797,-10.525 12.113,20.543 38.813,46.111 73.647,70.518 20.4,14.297 38.301,24.786 39.773,23.312 4.659,-4.658 -12.544,-20.021 -49.849,-44.514 -36.623,-24.046 -64.076,-54.336 -56.295,-62.117 2.79,-2.79 10.43,-4.149 19.642,-4.289 z m -53.705,25.82 c 2.502,-0.835 9.236,8.137 14.965,19.93 5.734,11.795 20.711,32.326 33.291,45.625 16.142,17.069 24.27,30.278 27.645,44.922 5.558,24.114 6.667,105.235 1.482,108.441 -1.939,1.197 -10.839,3.303 -19.771,4.674 -31.547,4.84 -59.545,-11.134 -76.272,-43.523 -13.689,-26.509 -23.345,-77.818 -19.478,-103.524 3.01,-20.027 29.779,-73.761 38.138,-76.545 z m -906.879,5.872 c -15.567,0.819 -40.779,14.916 -60.064,34.318 -20.217,20.334 -60.706,85.377 -73.686,118.363 -11.755,29.883 -23.623,87.087 -23.623,113.869 0,20.464 -0.275,20.833 -22.797,30.52 -12.54,5.392 -25.181,12.677 -28.089,16.187 -4.102,4.942 -3.819,6.379 1.269,6.379 7.569,0 84.319,-27.961 96.828,-33.521 11.331,-5.036 10.53,-3.465 8.688,8.97 -1.1,7.428 3.86,16.602 9.521,17.206 11.44,1.22 10.553,5.645 86.832,-49.323 33.334,-24.023 62.471,-41.599 71.342,-43.041 14.584,-2.364 14.99,-1.989 14.99,13.957 0,9.013 2.005,17.627 4.455,19.141 5.426,3.355 81.392,-19.295 85.16,-25.393 1.48,-2.392 7.215,-4.349 12.741,-4.349 5.53,0 20.377,-3.85 32.992,-8.551 16.82,-6.263 24.994,-12.512 30.623,-23.406 4.226,-8.176 8.861,-21.674 8.861,-21.674 30.213,-6.759 36.884,-51.621 29.346,-63.07 -0.279,-31.242 -0.534,-31.9 -13.91,-35.809 -14.587,-4.263 -72.284,-4.964 -84.623,-0.592 0,0 -6.534,-3.773 -13.908,-19.01 -5.595,-11.555 -12.527,-20.144 -15.397,-19.08 -2.874,1.063 -4.513,4.773 -3.646,8.241 4.183,16.731 9.122,24.517 10.521,32.855 0,0 -17.445,5.527 -32.559,10.102 -29.371,8.891 -33.74,13.183 -38.375,37.656 -1.617,8.551 -11.418,23.678 -23.513,36.303 -11.407,11.907 -21.797,24.923 -23.088,28.929 -5.681,17.618 -109.99,72.925 -111.863,69.573 -2.5,-4.474 36.797,-125.508 50.451,-152.772 15.788,-31.528 17.271,-49.455 4.088,-49.455 -12.536,0 -18.764,13.719 -54.662,120.414 l -31.041,92.256 -16.856,5.834 c -16.681,5.781 -16.856,5.721 -16.752,-6.543 0.187,-23.723 18.352,-94.731 31.277,-122.275 22.133,-47.175 54.174,-92.777 78.95,-112.36 12.956,-10.241 26.464,-18.619 30.023,-18.619 10.652,0 7.308,-8.79 -4.471,-11.746 -1.785,-0.448 -3.812,-0.601 -6.035,-0.484 z m 899.801,76.494 c -7.323,0 -10.593,17.58 -5.16,27.738 6.053,11.31 13.288,12.242 17.137,2.205 3.226,-8.399 -5.396,-29.943 -11.977,-29.943 z m -420.996,1.011 -9.533,15.569 c -5.246,8.567 -13.283,35.596 -16.084,46.129 l -5.094,19.152 -30.869,-8.828 c -34.969,-10 -42.375,-10.751 -42.375,-4.299 0,2.491 12.009,8.069 26.689,12.395 l 26.686,7.863 -16.186,8.256 c -17.849,9.098 -18.983,8.494 -20.338,7.453 -1.857,-1.425 -16.009,-3.815 -24.451,-7.963 -8.317,-4.086 -18.412,-4.65 -31.349,0.322 7.562,-48.549 90.215,-92.242 122.728,-94.592 z m -231.908,2.817 c 2.382,0.149 5.42,1.405 9.205,3.303 15.185,7.856 14.906,7.062 7.896,22.447 -3.496,7.674 -9.007,11.685 -16.054,11.685 -11.377,0 -12.5,-3.803 -7.903,-26.793 0.591,-6.449 2.084,-9.549 4.69,-10.404 0.651,-0.214 1.372,-0.288 2.166,-0.238 z m -29.434,1.469 c 8.206,1.122 3.567,27.626 3.567,27.626 -14.699,-0.652 -15.275,16.2 -5.338,25.221 0,0 -11.566,70.293 -18.104,70.293 -3.032,0 -8.595,1.184 -12.359,2.629 -5.651,2.168 -6.225,-0.152 -3.276,-13.225 1.964,-8.717 5.321,-18.676 7.454,-22.126 2.134,-3.453 4.539,-18.774 5.349,-34.049 2.133,-40.337 6.849,-54.552 18.672,-56.28 1.517,-0.224 2.862,-0.247 4.035,-0.09 z m -32.974,9.47 c 0.571,0.695 -1.081,15.107 -3.672,32.024 -4.635,30.278 -5.008,30.883 -23.483,38.357 -29.253,11.83 -34.018,12.536 -15.629,2.309 19.997,-11.118 24.911,-17.681 18.235,-24.356 -4.185,-4.188 -26.539,1.812 -51.387,13.787 -1.387,0.671 -0.478,-9.937 2.021,-23.574 l 4.538,-24.793 34.171,-7.51 c 18.792,-4.128 34.634,-6.936 35.206,-6.244 z m 48.496,49.322 c 1.172,0.292 8.363,1.196 9.621,2.454 1.287,1.287 -1.309,13.106 -5.762,26.261 -4.456,13.159 -10.288,24.656 -12.965,25.547 -2.966,0.991 -1.14,-5.582 1.938,-17.662 3.705,-14.539 5.763,-23.732 7.168,-36.6 z m 205.412,41.409 c 8.001,0 13.919,15.324 13.644,35.33 -0.141,10.241 -2.239,21.45 -4.658,24.908 -2.963,4.229 -3.692,-1.133 -2.226,-16.377 1.497,-15.609 0.01,-25.963 -4.77,-33.262 -4.167,-6.359 -4.963,-10.599 -1.99,-10.599 z m -273.283,4.783 c 4.481,0 7.375,1.463 5.564,4.391 -1.558,2.526 -8.392,4.549 -15.182,4.519 -9.655,-0.05 -10.845,-1.04 -5.463,-4.519 4.532,-2.928 10.6,-4.391 15.081,-4.391 z m 185.281,1.471 c 1.281,-0.152 2.412,-0.105 3.566,0.05 1.538,0.204 3.117,0.599 5.139,0.965 8.168,2.819 15.504,5.695 24.525,7.219 l 1.35,30.602 c 0.847,19.222 -5.245,33.276 17.404,31.914 28.678,2.343 41.611,9.843 40.231,23.339 -1.215,11.859 -0.755,12.049 37.769,15.618 40.605,3.761 59.645,-0.118 59.645,-12.145 0,-4.288 11.067,-8.98 32.681,-13.863 66.293,-14.969 66.479,-7.685 0.53,20.732 -28.987,12.487 -62.825,23.344 -82.205,26.369 -38.086,5.949 -58.122,12.642 -54.649,18.262 1.341,2.168 -1.633,18.165 -6.605,35.553 -12.973,45.364 -12.162,60.498 3.574,66.527 16.352,6.27 89.765,0.816 111.265,-8.262 83.104,-35.103 116.846,-41.51 184.67,-35.103 28.169,2.66 30.969,3.858 30.969,13.225 0,5.664 -3.738,14.917 -8.308,20.56 -7.405,9.147 -9.402,9.584 -18.301,4.025 -8.561,-5.346 -12.13,-5.163 -24.955,1.272 -8.227,4.133 -18.576,8.677 -22.991,10.105 -12.15,3.922 -9.741,12.661 2.633,9.557 6.768,-1.7 12.84,-0.05 16.621,4.502 7.536,9.098 20.368,9.232 27.774,0.309 9.222,-11.111 13.762,-8.005 13.764,9.414 0,8.964 4.614,24.312 10.251,34.105 5.637,9.793 9.25,18.683 8.028,19.756 -2.126,1.866 -42.27,18.664 -146.746,61.42 v -0.02 c -26.497,10.843 -50.242,19.48 -52.764,19.17 -2.526,-0.296 -12.847,-4.832 -22.939,-10.088 -19.164,-9.975 -63.085,-27.295 -179.329,-70.718 l -69.207,-25.86 2.01,-20.902 c 2.884,-30.027 -5.151,-35.542 -66.035,-45.357 l -49.902,-8.045 -4.213,-21.596 c -4.973,-25.521 -8.251,-22.927 -35.412,-21.594 -34.718,0 -32.898,-0.38 -28.41,-36.262 2.656,-34.438 2.216,-36.851 -8.737,-47.804 l -11.539,-11.537 40.912,-14.285 c 22.501,-7.856 43.059,-12.955 45.688,-11.331 7.519,4.645 82,-2.885 82,-8.291 0,-4.694 -27.634,-3.033 -64.475,3.879 -29.889,5.609 -7.82,-6.869 40.61,-22.959 l 57.587,-21.826 -2.691,28.486 c -2.702,28.596 -4.821,40.003 5.818,73.866 9.536,30.354 16.024,46.768 28.34,43.547 8.661,-2.264 12.294,4.218 10.973,8.213 -11.931,36.048 -23.64,65.725 -3.258,63.724 0,0 0.64,15.145 1.273,32.365 1.111,30.092 1.778,31.733 17.122,42.159 8.781,5.967 27.445,13.116 41.478,15.9 14.033,2.781 33.102,7.255 42.379,9.935 20.506,5.929 30.121,2.774 35.617,-11.685 4.848,-12.75 13.304,-16.801 35.069,-16.801 18.066,0 61.397,-22.203 61.5,-31.508 0.05,-4.442 -2.944,-5.287 -10.26,-2.916 -5.678,1.841 -15.396,3.279 -21.6,3.25 -6.201,-0.05 -13.876,3.329 -17.056,7.51 -4.446,5.846 -5.826,6.112 -5.93,1.156 -0.124,-5.454 -1.369,-5.423 -8.176,0.207 -4.415,3.654 -15.654,9.228 -24.973,12.387 -13.692,4.632 -18.815,4.595 -26.681,-0.205 -8.562,-5.22 -10.817,-4.614 -18.711,5.018 -8.024,9.793 -11.471,10.653 -32.613,8.148 -24.57,-2.908 -35.813,-8.841 -27.038,-14.264 14.951,-9.24 -1.645,-34.208 -17.199,-25.884 -9.969,5.333 -14.49,-1.765 -14.49,-20.602 0,-4.078 0.133,-13.656 0.133,-13.656 5.619,0.173 12.276,1.12 20.638,-1.117 24.369,-6.519 28.413,-13.918 21.586,-39.489 -4.033,-15.107 -3.738,-20.207 1.51,-26.009 9.828,-10.867 10.19,-64.584 0.531,-79.327 -13.021,-19.876 -27.44,-30.666 -47.808,-35.793 -20.949,-5.279 -18.612,-7.269 -14.487,-30.779 1.503,-8.557 5.362,-17.238 5.362,-17.238 11.143,-6.504 16.325,-8.744 20.168,-9.197 z m 64.877,0.345 c 2.155,0.496 4.177,3.357 7.871,8.992 6.028,9.201 6.827,15.558 3.654,29.061 -3.328,14.154 -6.325,17.549 -16.535,18.74 -12.071,1.404 -12.469,0.733 -12.469,-21.084 0,-16.404 2.399,-24.706 8.817,-30.515 4.222,-3.82 6.507,-5.689 8.662,-5.194 z m 95.541,21.75 c 0.37,-0.286 1.014,-0.279 1.937,0.03 3.162,1.056 7.434,6.458 9.485,12.005 4.976,13.451 2.23,12.732 -7.371,-1.917 -3.789,-5.782 -5.16,-9.257 -4.051,-10.116 z m -25.51,8.354 c 2.209,0 6.937,5.678 10.502,12.619 5.158,10.027 5.418,15.913 1.268,28.676 -4.37,13.444 -7.654,16.293 -20.135,17.498 -13.836,1.331 -14.91,0.435 -14.91,-12.358 0,-14.218 16.148,-46.435 23.275,-46.435 z m 194.955,0.635 c 6.352,-0.563 13.469,3.567 13.469,10.837 0,5.902 -3.527,9.677 -9.889,10.586 -11.566,1.648 -16.565,-4.363 -12.48,-15.003 1.555,-4.055 5.09,-6.082 8.9,-6.42 z m -563.91,1.334 c 24.996,0 25.447,0.21 12.109,5.65 -28.682,11.703 -38.07,12.453 -38.07,3.039 0,-7.506 3.542,-8.689 25.961,-8.689 z m 404.506,16.494 c 2.983,-0.329 5.406,5.145 5.406,15.072 0,8.352 -3.032,19.191 -6.734,24.088 -6.322,8.358 -6.745,7.87 -6.883,-7.922 -0.08,-9.256 1.108,-20.097 2.64,-24.088 1.79,-4.666 3.781,-6.953 5.571,-7.15 z m 30.256,9.662 c 3.459,0.317 8.733,1.993 16.746,4.787 l 15.433,5.379 -15.898,5.742 c -22.129,7.99 -22.773,7.849 -22.776,-5.031 0,-6.525 0.467,-9.91 3.606,-10.733 0.785,-0.205 1.735,-0.25 2.889,-0.144 z m 506.8,1.816 c 1.849,0 5.671,13.259 8.495,29.463 7.063,40.561 6.952,41.547 -3.799,34.83 -11.271,-7.036 -23.637,1.748 -23.637,16.791 0.344,13.837 -20.746,65.197 -22.973,63.975 -1.579,-1.579 -0.614,-18.314 1.692,-38.362 4.578,-33.365 11.765,-74.57 15.197,-80.722 4.846,-8.685 21.504,-25.975 25.025,-25.975 z m -377.121,6.701 c 3.51,1.215 6.057,8.301 6.057,20.711 0,11.356 -1.897,20.647 -4.213,20.647 -2.319,0 -7.48,1.254 -11.471,2.785 -8.772,3.369 -9.649,-8.322 -2.22,-29.629 3.861,-11.073 8.336,-15.73 11.847,-14.514 z m -734.334,10.127 c 2.523,0 -4.134,4.345 -8.281,7.481 -2.367,1.791 -6.391,5.398 -8.914,5.398 -2.526,0 -3.313,-2.064 -1.754,-4.59 1.561,-2.522 16.424,-8.289 18.949,-8.289 z m 693.256,6.498 c 5.087,-0.883 9.022,6.516 8.969,19.139 -0.09,19.473 5.4,24.47 29.918,27.232 22.556,2.545 30.526,-3.213 32.185,-23.261 0.554,-6.686 1.908,-12.155 3.016,-12.155 1.105,0 37.73,11.696 81.391,25.987 76.372,25.003 91.298,33.431 59.998,33.861 -8.052,0.11 -22.895,3.176 -32.992,6.813 -22.456,8.104 -20.647,8.104 -20.647,0 0,-9.773 -24.088,-20.766 -45.492,-20.766 -34.507,0 -35.866,32.149 -1.658,39.217 10.34,2.137 14.092,4.34 9.299,5.461 -4.415,1.033 -8.03,3.493 -8.03,5.472 0,1.978 -24.261,2.66 -53.912,1.514 -53.026,-2.051 -54.604,-1.816 -96.111,14.178 -23.21,8.944 -48.56,19.551 -56.33,23.566 -14.748,7.615 -108.664,13.578 -118.485,7.508 -5.052,-3.125 9.708,-82.044 16.539,-88.424 1.755,-1.638 21.08,-5.308 42.948,-8.154 28.93,-3.761 53.299,-10.938 89.468,-26.344 27.34,-11.648 51.892,-23.835 54.559,-27.08 1.847,-2.247 3.671,-3.46 5.367,-3.754 z m -227.277,2.118 c -13.651,0.261 -15.155,1.085 -7.76,4.265 12.884,5.536 30.949,5.536 27.529,0 -1.559,-2.526 -10.458,-4.437 -19.769,-4.265 z m -88.051,13.439 c 2.522,0 4.588,8.257 4.588,18.354 0,19.559 -1.886,22.83 -6.391,11.093 -4.37,-11.384 -3.263,-29.447 1.803,-29.447 z m 28.633,2.111 c 1.129,-0.646 3.119,0.794 5.922,4.5 3.706,4.897 6.738,12.641 6.738,17.207 0,11.731 -7.563,10.323 -10.873,-2.023 -3.15,-11.76 -3.667,-18.616 -1.787,-19.684 z m -194.846,1.153 c -7.529,0.03 -14.206,0.252 -16.502,0.306 -6.123,0.142 -10.088,23.498 -10.088,23.498 -1.825,19.272 -1.01,25.074 -1.259,30.411 -0.527,11.301 40.135,8.008 46.593,7.919 6.456,-0.09 8.555,-18.377 11.61,-24.078 3.054,-5.701 -0.449,-30.619 -1.95,-34.927 -0.938,-2.694 -15.854,-3.18 -28.404,-3.129 z m 75.555,0.463 c -9.725,0.2 -20.323,6.834 -28.369,20.162 -6.519,10.797 -2.18,20.431 4.929,28.283 5.637,6.232 -1.67,8.645 -1.67,28.752 0,21.909 1.765,29.114 8.028,32.762 11.404,6.641 18.653,2.304 32.244,-2.188 13.187,-4.358 18.45,-18.395 8.918,-41.209 -5.705,-13.648 -9.113,-19.027 -6.115,-24.703 7.127,-13.501 9.481,-23.734 -2.141,-35.326 -4.468,-4.457 -9.989,-6.654 -15.824,-6.533 z m -161.809,1.867 v 0 c 10.785,0.03 17.696,2.809 23.219,8.332 9.185,9.185 9.983,13.526 7.904,42.869 -1.28,17.956 -1.386,35.227 -0.24,38.383 1.369,3.775 12.139,5.734 31.519,5.734 20.118,0 32.509,-6.366 29.512,17.205 0.04,9.463 1.778,19.894 3.863,23.184 2.086,3.29 17.778,7.958 34.87,10.377 17.092,2.423 33.422,5.854 36.283,7.627 2.869,1.775 13.465,4.326 23.562,5.679 17.381,2.323 18.427,3.366 19.776,19.66 1.183,14.325 -0.03,17.206 -7.264,17.206 -4.779,0 -9.763,-1.07 -11.074,-2.381 -1.311,-1.311 -39.334,-14.874 -84.496,-30.139 -45.163,-15.268 -100.699,-37.711 -123.41,-49.875 -22.712,-12.168 -46.453,-23.62 -52.764,-25.451 -12.178,-3.537 -72.932,-39.681 -73.207,-43.563 -0.228,-3.073 70.374,-30.238 95.463,-36.728 21.031,-5.444 35.692,-8.155 46.478,-8.123 z m 94.731,6.355 c 1.985,-0.01 3.509,0.101 4.148,0.391 2.558,1.158 0.496,3.63 -3.228,4.523 -17.99,4.311 -26.215,-1.213 -19.858,-2.957 2.867,-0.786 12.981,-1.927 18.938,-1.957 z m 64.615,4.071 c 3.013,-0.59 6.123,0.25 8.977,3.396 6.008,6.623 6.624,8.892 1.748,14.766 -6.844,8.249 -21.383,9.52 -25.713,2.064 -2.221,-3.824 5.949,-18.457 14.988,-20.226 z m -151.947,0.125 c -4.031,-0.322 -8.914,0.653 -14.217,3.068 -12.013,5.475 -15.432,19.696 -5.68,23.633 14.105,5.692 30.969,-2.468 30.969,-14.987 0,-7.049 -4.353,-11.179 -11.072,-11.714 z m 103.992,10.455 c 0,0 1.29,5.792 0.898,9.345 -0.392,3.555 -2.896,8.125 -2.896,5.139 0,-2.986 0.829,-12.297 1.998,-14.484 z m -115.861,1.527 c 2.079,0 4.159,0.318 5.736,0.955 3.153,1.273 0.572,2.313 -5.736,2.313 -6.307,0 -8.889,-1.04 -5.737,-2.313 1.577,-0.637 3.658,-0.955 5.737,-0.955 z m 90.804,2.086 v 0 c 5.645,0.03 10.754,0.294 11.086,1.168 0.76,1.998 -0.03,20.033 -1.629,21.428 -1.595,1.393 -22.74,-0.332 -24.937,-2.264 -2.202,-1.933 -1.33,-15.886 0.08,-19.994 0,0 8.139,-0.368 15.396,-0.338 z m 443.364,0.578 c -11.355,0.162 -22.75,2.24 -27.444,6.135 -9.191,7.629 -8.34,12.235 4.647,25.222 12.987,12.986 24.916,14.142 44.025,4.26 15.051,-7.784 17.587,-20.628 5.977,-30.263 -4.535,-3.763 -15.85,-5.516 -27.205,-5.354 z m -447.999,5.565 c -0.311,0 -0.627,0.02 -0.945,0.06 -3.262,1.306 -5.453,7.751 -1.211,9.332 4.242,1.582 9.222,-0.631 10.057,-3.508 0.785,-2.695 -3.213,-5.936 -7.901,-5.88 z m 798.436,4.992 c 1.053,-0.04 1.95,0.04 2.701,0.293 3.005,1.012 3.693,4.76 2.795,14.3 0,6.481 0.852,14.592 0.852,14.592 0,0 -8.846,3.883 -14.616,6.061 -17.853,6.738 -17.563,17.537 0.637,23.883 l 14.404,5.019 5.245,27.889 c 2.61,13.887 1.124,28.384 -15.92,32.164 -12.254,2.719 -12.452,4.968 -20.043,-29.051 -4.078,-18.296 -12.484,-44.178 -18.678,-57.519 l -11.256,-24.25 10.186,-3.85 c 5.606,-2.116 18.963,-5.319 29.689,-7.119 6.282,-1.055 10.846,-2.288 14.004,-2.412 z m -359.66,0.718 c 1.927,0.101 4.278,0.568 7.002,1.432 5.272,1.676 8.404,4.959 6.955,7.303 -3.565,5.77 -14.614,5.389 -18.334,-0.637 -3.35,-5.417 -1.402,-8.403 4.377,-8.098 z m -556.276,0.09 c -12.69,1.044 -21.256,9.946 -17.501,19.731 2.884,7.519 24.232,9.304 34.373,2.879 11.101,-7.033 4.136,-21.056 -11.205,-22.557 -1.957,-0.192 -3.853,-0.202 -5.667,-0.05 z m 329.624,1.784 c 3.708,-0.66 7.17,2.149 8.113,8.83 0.726,5.168 -2.563,11.556 -7.535,14.636 -11.397,7.054 -14.257,3.821 -10.162,-11.492 1.924,-7.19 5.876,-11.317 9.584,-11.974 z m 393.275,8.324 c 1.312,-0.06 2.743,0 4.232,0.177 8.932,1.007 19.952,5.694 19.952,9.663 0,1.174 -8.259,2.131 -18.352,2.13 -19.291,0 -24.663,-6.557 -9.35,-11.416 1.014,-0.322 2.206,-0.498 3.518,-0.554 z m -524.309,7.388 c 7.257,0 9.007,27.512 3.918,35.75 -1.663,2.687 -5.998,4.887 -9.632,4.887 -4.776,0 -6.612,-5.725 -6.612,-20.642 0,-15.011 7.474,-19.995 12.326,-19.995 z m 642.539,5.373 c 2.806,0.04 5.195,0.452 6.489,1.252 7.529,4.656 27.479,73.15 28.914,99.276 1.897,34.543 -6.773,32.404 -16.145,-3.979 -4.422,-17.161 -15.009,-45.061 -23.533,-61.998 l -15.492,-30.799 10.773,-2.703 c 2.963,-0.742 6.188,-1.086 8.994,-1.049 z m -335.638,3.502 c -18.537,0.41 -38.285,8.756 -38.285,21.092 0,8.83 12.739,17.164 31.211,20.416 34.742,6.115 53.626,-11.798 34.603,-32.816 -5.72,-6.324 -16.407,-8.938 -27.529,-8.692 z m -459.514,0.295 c -10.778,0 -21.24,11.398 -16.904,18.418 5.454,8.819 22.788,3.07 24.371,-8.09 1.091,-7.67 -0.826,-10.328 -7.467,-10.328 z m 757.893,8.356 c 2.019,-0.146 3.632,-0.09 4.904,0.17 1.697,0.343 2.787,1.033 3.424,2.06 1.869,3.011 9.79,26.126 17.605,51.36 7.812,25.237 15.981,51.608 18.149,58.607 3.761,12.137 2.679,13.377 -23.098,26.387 -14.873,7.509 -27.87,13.646 -28.881,13.646 -1.016,0 -7.005,-11.87 -13.316,-26.381 -11.453,-26.328 -11.459,-26.414 -2.877,-43.402 4.728,-9.364 8.595,-20.079 8.596,-23.816 0,-10.684 -8.988,-13.514 -17.752,-5.582 -7.416,6.71 -8.412,6.1 -13.612,-8.28 -3.086,-8.534 -8.816,-18.172 -12.732,-21.424 -6.066,-5.034 -1.806,-7.448 28.699,-16.25 15.12,-4.365 24.833,-6.656 30.891,-7.095 z m -300.936,1.053 c 10.114,0.259 19.33,4.719 19.33,11.73 0,7.508 -26.036,8.735 -36.707,1.732 -6.118,-4.016 -6.118,-5.02 0,-9.035 4.917,-3.228 11.309,-4.583 17.377,-4.427 z m -181.767,8.949 c 7.367,0 8.719,2.673 7.539,14.906 -1.101,11.428 -3.852,15.256 -11.764,16.377 -7.735,1.101 -10.322,-0.815 -10.322,-7.65 0,-15.309 5.125,-23.633 14.547,-23.633 z m -407.635,18.347 c -4.859,0 -10.795,1.822 -13.194,4.037 -2.395,2.223 -12.44,6.622 -22.316,9.784 -34.876,11.16 -84.014,35.928 -87.07,43.886 -4.101,10.688 -1.999,12.308 40.795,31.282 39.545,17.532 62.046,20.59 71.117,9.662 3.142,-3.786 8.09,-6.887 10.994,-6.887 2.908,0 21.589,-9.288 41.518,-20.643 19.925,-11.356 38.975,-20.65 42.33,-20.65 9.982,0 6.96,-7.961 -6.522,-17.18 -17.739,-12.133 -67.088,-33.291 -77.652,-33.291 z m 7.804,15.2 c 7.691,0.45 14.372,3.761 25.155,9.05 13.857,6.796 25.195,14.279 25.195,16.633 0,2.35 -20.13,14.482 -44.734,26.949 l -44.735,22.668 -34.133,-16.328 -34.136,-16.322 36.851,-16.893 c 42.093,-19.298 57.718,-26.507 70.537,-25.757 z m 1024.11,5.498 c 6.662,2.816 4.167,60.212 -4.172,77.703 -6.415,13.445 -13.457,18.549 -42.441,30.717 -19.112,8.024 -50.239,19.421 -69.165,25.326 -18.926,5.905 -36.851,10.732 -39.834,10.732 -2.984,0 -15.089,-14.04 -20.619,-21.806 -7.416,-10.413 -2.557,-7.931 1.912,-10.887 5.562,-3.681 5.025,-3.659 9.457,2.404 5.719,7.818 7.325,7.66 33.284,-3.297 32.774,-13.833 81.26,-39.072 84.55,-44.017 1.301,-1.954 11.658,-6.46 23.014,-10.004 21.061,-6.574 26.179,-8.136 22.795,-31.41 -0.887,-13.641 -3.115,-23.493 -0.238,-25.272 0.527,-0.325 1.013,-0.377 1.457,-0.189 z m -359.58,25.5 c -7.983,-0.257 -16.496,1.337 -26.311,4.759 -33.565,11.701 -23.612,40.373 14.326,41.272 l 19.496,0.465 -18.351,4.31 c -10.093,2.371 -22.996,3.161 -28.674,1.746 -5.678,-1.414 -10.324,-0.533 -10.324,1.948 0,8.179 17.364,14.01 42.137,14.148 19.439,0.11 22.69,1.13 16.017,5.008 -4.604,2.677 -18.54,4.167 -30.973,3.307 -12.429,-0.863 -22.597,0.03 -22.597,1.982 0,5.905 22.36,12.508 42.359,12.508 26.115,0 18.446,5.103 -13.502,8.988 -24.342,2.963 -25.603,3.658 -15.09,8.303 19.246,8.503 47.899,6.699 61.323,-3.862 13.072,-10.282 15.167,-26.407 9.142,-70.367 -2.392,-17.433 -5.39,-22.766 -15.834,-28.168 -7.707,-3.985 -15.161,-6.09 -23.144,-6.347 z m -569.207,7.058 c -12.442,0.661 -23.613,7.493 -46.043,21.158 -61.716,37.608 -66.706,41.967 -58.826,51.461 6.865,8.269 53.803,33.495 73.662,39.582 6.307,1.935 13.831,3.708 16.722,3.914 4.573,0.344 35.99,-20.845 87.844,-59.248 22.588,-16.727 18.215,-25.835 -19.689,-41.003 -27.515,-11.012 -41.228,-16.524 -53.67,-15.864 z m 559.242,7.297 c 2.574,-0.167 5.24,-0.165 7.945,0.04 23.895,1.796 25.571,10.007 3.393,16.652 -21.548,6.456 -24.051,6.496 -32.86,0.602 -9.966,-6.669 3.506,-16.119 21.522,-17.291 z m -551.234,5.547 c 2.788,0.275 5.456,1.227 8.759,2.586 7.68,3.162 22.739,9.114 33.461,13.23 10.726,4.112 19.461,8.531 19.391,9.811 -0.06,1.284 -19.658,15.238 -43.553,31.012 -23.895,15.771 -46.04,28.547 -49.213,28.375 -6.548,-0.338 -60.828,-30.42 -60.828,-33.709 0,-1.181 19.529,-13.919 43.393,-28.307 30.795,-18.563 40.226,-23.823 48.59,-22.998 z m 300.576,11.9 c 2.375,0 4.318,2.066 4.318,4.588 0,2.522 -3.221,4.588 -7.154,4.588 -3.933,0 -5.878,-2.066 -4.319,-4.588 1.563,-2.522 4.781,-4.588 7.155,-4.588 z m 435.332,10.75 c 1.933,-0.652 3.376,0.522 5.109,3.262 3.227,5.103 7.653,17.083 5.6,19.738 -2.012,2.603 -4.499,3.215 -8.518,4.758 -8.883,3.409 -8.385,2.905 -10.355,-0.951 -1.97,-3.855 -6.409,-11.06 0.105,-19.103 3.703,-4.572 6.126,-7.053 8.059,-7.704 z m -353.018,12.194 c 2.526,0 4.592,2.067 4.592,4.592 0,2.523 -2.066,4.585 -4.592,4.585 -2.522,0 -4.586,-2.062 -4.586,-4.585 0,-2.526 2.064,-4.592 4.586,-4.592 z m 517.617,29.738 c 3.313,3.317 -26.5,51.572 -48.007,77.693 -11.6,14.092 -23.772,25.625 -27.047,25.625 -7.839,0 -53.579,-51.437 -49.129,-55.25 1.896,-1.62 19.193,-8.412 38.443,-15.095 19.253,-6.679 46.008,-17.247 59.455,-23.479 13.448,-6.232 25.276,-10.502 26.285,-9.494 z m -661.015,2.738 c -1.536,-0.06 -3.086,0.02 -4.692,0.244 -7.709,1.083 -16.693,5.626 -31.369,15.557 -53.568,26.933 -84.009,47.142 -88.719,69.434 -3.562,16.864 -4.518,16.04 45.657,39.017 20.341,9.315 40.795,15.8 45.881,14.547 21.458,-5.289 116.658,-43.767 120.712,-48.791 2.436,-3.018 4.143,-17.725 3.795,-32.687 1.703,-29.045 3.986,-24.048 -47.582,-42.52 -22.942,-7.481 -32.936,-14.398 -43.683,-14.801 z m 6.668,12.67 c 5.962,0.594 14.678,3.633 31.205,9.614 52.377,18.953 50.812,22.063 -26.961,53.556 -21.135,8.558 -41.781,15.412 -45.879,15.24 -4.099,-0.176 -19.463,-4.971 -34.143,-10.652 -30.468,-11.79 -30.851,-10.972 17.514,-37.334 17.663,-9.628 37.279,-21.049 43.586,-25.385 5.51,-3.785 8.716,-5.632 14.678,-5.039 z m 64.035,53.033 c 1.434,-0.267 2.393,-0.252 2.742,0.1 1.397,1.397 -4.485,5.497 -13.074,9.115 -64.445,27.136 -94.228,40.602 -97.975,44.301 -5.258,5.193 -2.468,5.764 -40.375,-8.262 -17.033,-6.304 -30.969,-13.181 -30.969,-15.283 0,-2.103 8.774,0.162 19.5,5.031 10.722,4.869 24.037,8.882 29.588,8.952 14.325,0.145 82.135,-21.825 108.512,-35.153 9.177,-4.64 17.75,-8.001 22.051,-8.801 z m -176.408,13.334 c 2.901,0.16 8.185,2.034 13.556,4.946 14.411,7.808 10.026,9.308 -7.142,2.443 -6.043,-2.42 -9.84,-5.547 -8.436,-6.951 0.351,-0.351 1.055,-0.49 2.022,-0.438 z m 108.91,31.2 c 0.778,-0.07 1.216,0 1.316,0.234 0.401,0.926 -4.598,4.34 -14.824,10.637 -10.096,6.218 -19.778,11.375 -21.523,11.445 -6.283,0.282 -8.74,-9.143 -2.856,-10.957 3.314,-1.022 13.044,-4.104 21.623,-6.85 8.533,-2.73 13.929,-4.29 16.264,-4.509 z" fill="#00B894" transform="translate(188.78127,-24.804201) matrix(0.26458333,0,0,0.26458333,-9360.3661,-4257.0577)"/>
</svg>