<?xml version="1.0" ?><svg height="245.54784mm" viewBox="0 0 144.63669 245.54784" width="144.63669mm" xmlns="http://www.w3.org/2000/svg">
    <path d="m 12448.217,4894.0898 c -52.883,0.663 -81.61,26.2375 -87.881,84.0098 -6.271,57.7723 39.276,87.4751 84.822,97.5742 91.588,-14.2575 77.561,-58.3651 81.026,-92.375 3.466,-34.01 -25.083,-89.872 -77.967,-89.209 z m 11.494,216.7051 c -6.296,0.039 -13.181,0.6387 -20.658,2.0078 -47.856,8.7624 -70.631,22.7236 -81.852,69.8028 -7.591,28.9604 12.211,81.9797 18.977,128.4648 6.766,46.4852 -3.464,53.9113 -12.705,70.3965 -9.242,16.4851 -68.156,30.2969 -73.272,45.1484 -5.115,14.8514 24.094,34.752 24.094,34.752 0,0 -45.546,10.6927 -55.447,26.8808 -9.901,16.1881 33.004,31.9324 54.787,38.17 21.783,6.2377 78.716,24.6529 116.011,27.4746 37.295,2.8217 109.905,-13.2188 129.543,-16.9317 19.638,-3.7128 42.74,-14.851 44.555,-30.8906 1.815,-16.0395 8.251,-268.6624 9.572,-301.7812 1.32,-33.1188 -8.911,-66.9808 -21.617,-70.0996 -12.707,-3.1189 -81.191,-7.4258 -81.191,-7.4258 0,0 -16.801,-16.1769 -50.797,-15.9688 z" fill="#FFFFFF" transform="translate(-118.93764,32.815581) matrix(0.26458333,0,0,0.26458333,-2200.4586,-680.58622) translate(-3313.5291,-2437.8203)"/>
    <path d="m 9134.6884,2448.2692 c -4.318,0.032 -8.641,0.4271 -12.933,1.164 -28.138,4.83 -67.899,24.5948 -79.725,62.4258 -17.428,58.9544 1.895,109.0066 67.383,133.3164 20.114,7.4667 48.049,4.5592 66.435,-4.8574 16.204,-8.2987 32.12,-25.6437 38.758,-41.0391 14.557,-33.7598 14.49,-76.2885 -15.613,-116.8496 -17.783,-23.9606 -40.985,-34.3356 -64.305,-34.1601 z m 4.449,15.8496 c 51.179,0.632 82.295,81.8239 58.274,124.0097 -6.744,11.8433 -24.116,28.867 -36.457,34.0235 -19.091,7.9767 -42.407,3.731 -69.457,-12.6465 -26.904,-16.2887 -37.095,-35.4911 -35.223,-66.377 2.737,-45.1646 25.251,-70.2465 69.441,-77.3632 4.604,-1.1764 9.085,-1.7001 13.422,-1.6465 z m 10.918,201.4219 c -9.708,-0.075 -20.323,0.9784 -31.73,3.4218 -49.957,10.7004 -63.835,21.1758 -77.281,58.336 -7.855,21.708 -26.714,52.3069 -81.139,131.6523 -18.928,27.595 -31.806,56.1429 -33.205,73.6094 -1.181,14.7459 -0.698,16.6199 6.002,23.3144 4.007,4.0038 11.434,8.0567 16.506,9.0079 l 9.22,1.7304 -9.463,6.7324 c -11.263,8.0138 -14.395,15.6418 -8.746,21.2911 3.316,3.3154 5.633,3.4979 12.782,1.0058 8.804,-3.0693 14.263,-0.2757 12.201,6.2442 -0.864,2.732 -2.464,3.1788 -43.174,12.0839 -104.272,22.8089 -127.817,30.872 -136.33,46.6797 -5.803,10.7745 1.573,17.6899 15.058,55.8399 21.003,60.0177 43.659,118.617 67.774,181.4531 9.026,25.5625 2.898,27.5413 -17.807,33.6914 -36.818,10.9365 -82.93,28.2221 -84.215,31.5684 -0.821,2.1416 0.185,4.9558 2.235,6.2539 5.745,3.6381 30.283,2.8714 43.027,-1.3438 6.294,-2.082 19.255,-4.9613 28.803,-6.4004 25.397,-3.8282 47.84,-10.948 54.033,-17.1406 4.681,-4.6811 5.216,-7.6758 3.891,-21.7676 -0.846,-8.9862 -4.524,-24.7512 -8.176,-35.0332 -24.296,-67.8683 -53.879,-134.0497 -77.91,-200.0117 l -7.295,-15.7344 6.379,-4.834 c 5.968,-4.5242 34.598,-13.2614 55.785,-17.0234 11.891,-2.1116 36.248,-7.4915 73.131,-16.1523 36.859,-8.6553 44.392,-8.8926 54.472,-1.7149 4.451,3.1688 9.407,5.7617 11.016,5.7617 7.255,0 1.71,4.5173 -11.094,9.0372 -7.711,2.7223 -26.214,10.7722 -41.117,17.8886 -31.288,14.9408 -36.267,20.7615 -40.943,47.8555 -2.42,14.0213 -2.225,21.0014 1.017,36.3086 6.522,30.7922 16.882,53.1065 55.059,118.5898 21.699,37.2202 37.334,66.4031 37.334,69.6836 0,1.3338 -6.99,2.4258 -15.533,2.4258 -20.91,0 -46.173,4.8642 -51.901,9.9941 -6.647,5.9534 -5.976,18.1674 1.278,23.2481 4.703,3.2946 10.445,3.8502 27.375,2.6426 30.943,-2.2072 52.922,-4.465 61.425,-7.7832 9.137,-3.5656 11.909,-13.1954 7.393,-25.6856 -3.314,-9.1648 -41.643,-79.8987 -50.687,-92.9668 -32.065,-46.8276 -59.084,-113.9687 -45.213,-145.1855 2.308,-5.5242 6.353,-10.8006 8.99,-11.7266 2.637,-0.9259 17.445,-7.4882 32.906,-14.582 16.359,-7.5057 36.763,-14.554 48.803,-16.8574 20.531,-3.9283 20.897,-3.8965 48.002,3.9218 15.022,4.3331 30.919,7.9037 35.326,7.9317 17.037,0.1127 20.029,2.3036 20.029,14.6679 0,14.1142 -1.382,14.6024 -41.468,14.6524 -20.458,0.026 -31.06,-1.0684 -34.719,-3.582 -2.898,-1.9904 -12.161,-6.1744 -20.586,-9.2969 -16.351,-6.0595 -28.748,-4.5931 -28.748,3.3984 0,4.731 9.58,14.1485 16.687,16.4043 3.453,1.0959 4.484,3.0166 3.242,6.0391 -1.001,2.4378 -5.492,19.2548 -9.978,37.3711 -9.471,38.2456 -8.608,46.6488 4.922,47.9804 12.584,1.2386 17.124,-6.1128 21.412,-34.6679 2.055,-13.6863 3.736,-29.9936 3.756,-36.2364 0.02,-12.7059 1.983,-13.6041 16.48,-7.5468 5.01,2.0934 22.266,4.412 38.383,5.1582 16.105,0.7455 29.552,1.4387 29.883,1.539 0.331,0.1005 -0.565,3.2527 -1.992,7.0059 -6.338,16.6705 -10.275,76.6755 -10.604,150.0176 -0.111,24.7426 -1.907,76.0573 6.633,79.748 7.895,5.173 12.831,3.7805 18.777,-5.2949 3.622,-5.528 4.575,-16.7595 5.498,-64.9082 0.614,-32.0228 1.845,-83.6188 2.737,-114.6582 l 1.621,-56.4356 19.078,-1.8085 c 10.493,-0.9956 31.094,-4.2779 45.783,-7.293 14.689,-3.0149 28.136,-5.6484 29.881,-5.8516 2.298,-0.2678 3.543,12.5171 4.522,46.3692 1.389,48.088 4.224,92.2057 9.931,154.5859 2.803,30.6317 4.141,36.7424 9.358,42.7324 5.824,6.6873 6.411,6.8082 13.587,2.8379 14.83,-8.2049 5.527,-14.6957 7.135,-32.0469 -0.566,-43.3159 -12.015,-182.1544 -17.011,-206.2988 -3.46,-16.7143 -3.377,-17.8965 1.259,-17.8965 8.392,0 22.337,-15.9233 25.237,-28.8164 4.366,-19.4186 8.768,-167.2406 7.664,-257.3906 -0.953,-77.753 -1.245,-81.6321 -7.284,-96.4414 -10.677,-26.1874 -29.824,-37.7507 -44.959,-27.1504 -8.627,6.0434 -7.577,11.5559 2.151,11.2793 9.568,-0.2719 14.129,4.9692 19.105,21.9531 4.038,13.7824 4.618,130.7584 1.258,253.7149 -2.52,92.2165 -2.211,90.1557 -14.23,95.1777 -33.713,11.2512 -72.705,23.7228 -108.285,23.7519 -5.522,0 -7.423,-1.0394 -7.423,-9.8769 0,-8.0716 4.47,-10.2708 7.076,-3.4805 2.4,15.5879 24.598,7.8907 24.972,-4.9101 0,-2.5031 4.907,-6.8992 11.35,-10.17 28.815,-14.6254 54.28,-38.0333 64.635,-59.414 12.864,-26.5632 14.833,-40.8028 14.623,-105.75 -0.215,-66.2531 -1.238,-75.983 -11.604,-110.3516 -16.362,-54.2539 -50.04,-103.9594 -69.152,-115.1601 -11.124,-6.5192 -26.354,-10.7697 -44.889,-10.9121 z m -9.736,15.4179 c 21.604,-0.065 41.947,6.9588 52.676,19.9746 14.419,17.4935 41.083,61.8505 53.605,104.9688 18.362,151.396 6.146,186.6099 -22.775,209.2949 -12.568,14.8615 -18.185,13.5056 -31.289,2.1641 -6.372,-5.5151 -15.105,-12.5915 -19.406,-15.7246 l -7.821,-5.6954 23.912,1.3243 c 22.586,1.2522 24.226,0.9776 29.582,-4.9766 14.319,-15.9179 20.336,-108.5982 10.631,-163.7598 -9.34,-53.0917 -25.39,-99.4383 -36.926,-106.6269 -10.402,-6.4822 -10.272,1.6179 0.889,55.8926 13.409,65.207 16.843,124.8987 9.434,163.9336 -2.35,12.3807 -5.199,23.3915 -6.332,24.4687 -1.133,1.0772 -13.478,-0.3005 -27.432,-3.0605 -13.954,-2.76 -43.699,-6.5009 -66.1,-8.3145 -37.967,-3.0739 -52.015,-6.4701 -45.171,-10.6992 1.489,-0.9208 5.096,-6.3531 8.013,-12.0703 8.344,-16.3557 7.142,-46.3937 -4.017,-100.3828 -9.923,-48.0065 -10.932,-61.5959 -6.618,-89.1621 5.058,-32.313 20.215,-41.7316 46.7,-53.5391 12.067,-5.3798 25.483,-7.9707 38.445,-8.0098 z m -108.557,108.8516 9.897,48.8594 c 14.689,72.5138 13.016,90.2025 -9.381,99.164 -5.614,2.2462 -12.285,3.8469 -14.826,3.5567 -2.541,-0.2905 -17.841,-1.1927 -33.998,-2.0039 l -29.377,-1.4747 -0.865,-7.5527 c -1.227,-10.7058 14.424,-42.2907 40.591,-81.916 12.125,-18.361 25.627,-39.0643 30.002,-46.0078 z m -3.896,197.5098 c 39.383,0 44.683,0.5797 61.832,6.7656 24.13,8.7044 33.892,14.5664 35.391,21.25 4.137,18.4516 6.467,29.662 6.523,31.4062 0.04,1.1017 -8.948,2.0039 -19.965,2.0039 -21.636,0 -25.651,-3.0717 -10.535,-8.0605 10.095,-3.3318 11.496,-9.1101 3.439,-14.1836 -3.183,-2.0045 -9.66,-1.5227 -23.082,1.7168 -24.675,5.9557 -44.453,5.6644 -58.841,-0.8652 -10.633,-4.825 -11.433,-5.8758 -9.875,-12.9649 2.281,-10.3887 -4.608,-17.4524 -14.995,-15.375 -5.658,1.1317 -8.197,0.2437 -10.246,-3.584 -1.497,-2.7989 -2.722,-5.7686 -2.722,-6.5996 0,-0.8311 19.384,-1.5097 43.076,-1.5097 z" fill="#00B894" transform="translate(-118.93764,32.815581) matrix(0.26458333,0,0,0.26458333,-2200.4586,-680.58622)"/>
</svg>