<?xml version="1.0" ?><svg height="279.30658mm" viewBox="0 0 131.95674 279.30658" width="131.95674mm" xmlns="http://www.w3.org/2000/svg">
    <path d="m 10798.916,4773.4473 c -34.491,-0.7936 -66.224,24.3722 -93.371,67.1816 -8.608,39.5594 -9.131,74.1895 44.869,100.6016 54,26.412 98.348,-27.5865 112.566,-68.6719 14.217,-41.0854 -19.956,-94.0274 -57.13,-98.6055 -2.324,-0.2861 -4.635,-0.4529 -6.934,-0.5058 z m 1.848,220.373 c -77.739,1.2912 -86.35,86.6302 -71.741,149.1973 14.608,62.5672 4.305,126.543 4.436,195.5664 0.13,69.0235 33.129,114.5705 77.738,116.8008 44.609,2.2304 82.956,-34.5129 95.217,-99.4278 12.261,-64.915 -24.52,-240.5242 -29.738,-294.1699 -5.217,-53.6458 -9.912,-59.9845 -75.912,-67.9668 z" fill="#FFFFFF" transform="translate(242.87122,17.944951) matrix(0.26458333,0,0,0.26458333,-2152.8746,-633.14108) translate(-3313.5291,-2437.8203)"/>
    <path d="m 7600.129,3376.4446 c -6.9315,-2.5986 -12.2732,-9.0089 -12.2732,-14.7299 0,-7.3777 1.6222,-8.2469 18.8185,-10.0858 7.8755,-0.8419 17.9634,-3.0511 22.4171,-4.9095 8.7508,-3.6511 41.564,-25.4436 43.757,-29.0611 0.7369,-1.2155 -9.6998,-13.8939 -23.1929,-28.1748 -33.4276,-35.379 -66.3999,-77.375 -107.4861,-146.3708 -20.9006,-35.0985 -37.0034,-97.0344 -30.849,-103.308 1.9473,-1.9849 3.7303,-1.8579 6.4711,0.461 3.8348,3.2442 25.8806,38.9507 25.8806,41.9176 0,2.5908 48.9957,91.8526 76.3873,132.1377 5.6146,8.2575 26.0713,30.914 45.4593,50.3476 39.2114,39.3033 39.5542,40.0134 28.7999,59.628 -18.7354,34.1714 -68.5577,61.7555 -94.1896,52.148 z m -265.1023,1.2521 c -53.188,-17.7941 -89.0249,-43.4217 -78.6091,-56.2154 4.4902,-5.5154 8.5033,-4.8457 28.0312,4.6779 17.5582,8.5624 62.3002,24.7179 76.7915,27.7277 7.6678,1.5926 7.8277,1.4326 9.183,-9.1738 8.0104,-62.6856 13.3006,-92.0593 25.6196,-142.2528 11.3817,-46.3741 17.6,-78.805 29.5873,-107.0731 14.6364,-34.5157 18.1149,-41.7029 31.4795,-65.0392 3.3855,-5.9111 5.7449,-11.0645 5.2434,-11.4518 -0.5014,-0.3872 -5.8825,-4.2729 -11.9578,-8.6344 -31.4561,-22.5841 -49.8252,-80.7695 -43.9826,-139.3204 4.1442,-41.5295 5.6796,-84.5835 2.6016,-84.5835 -1.5414,0 -2.8026,1.5145 -2.8026,3.3655 0,5.6256 -18.0351,31.938 -33.8619,49.4037 -8.217,9.0673 -24.1181,22.9291 -35.3364,30.8041 -30.527,21.4285 -40.4733,29.6732 -43.4648,36.0278 -1.5392,3.2702 -2.7057,19.6426 -2.7057,37.9809 0,34.0006 -1.847,40.0972 -12.1479,40.0972 -7.7852,0 -10.591,-6.6588 -10.2884,-24.416 l 0.2876,-16.8713 -4.5581,6.0091 c -2.5071,3.3047 -7.0165,13.1077 -10.0213,21.7838 -3.0046,8.6761 -6.9707,17.0504 -8.8133,18.6094 -4.515,3.8198 -18.269,0.5483 -19.8652,-4.7252 -0.6896,-2.2788 -2.7563,-7.0147 -4.5927,-10.5246 -3.9018,-7.4581 -1.9575,-19.2444 6.3834,-38.6964 7.0052,-16.3371 41.3606,-51.2595 50.4271,-51.2595 4.3127,0 10.4835,-4.4039 20.1609,-14.388 7.6701,-7.9134 19.8562,-18.892 27.0799,-24.3971 22.7583,-17.3432 52.3646,-53.8519 66.8955,-82.491 l 13.0425,-25.7061 -3.1886,-22.2207 c -5.4874,-38.2425 -6.2299,-70.7126 -2.0148,-95.2875 6.9919,-40.7643 24.6203,-63.9549 49.0352,-72.8312 20.0774,-7.2993 56.8852,-7.1608 79.095,-0.063 53.908,17.2288 49.641,66.6688 57.7109,107.6117 4.9003,25.1103 7.0566,26.4085 24.5788,58.3671 10.5637,19.2675 22.0178,42.351 25.4533,51.2964 8.636,22.4874 25.1889,87.2469 30.6675,119.9797 4.0145,23.9862 6.6554,31.5743 22.3893,64.3324 9.8107,20.4263 20.4376,40.3217 23.6152,44.2119 7.2014,8.8162 7.2745,12.8434 0.3234,17.8066 -2.9997,2.1418 -5.485,6.2995 -5.5229,9.239 -0.09,7.0414 -6.3186,10.8126 -14.4292,8.7374 -7.9009,-2.0215 -21.7333,-20.4347 -28.4353,-37.8515 -2.6479,-6.8815 -4.8718,-10.5048 -4.9421,-8.0522 -0.1843,6.426 6.3943,21.4684 13.6021,31.1015 7.8935,10.5498 6.2275,18.2381 -3.9519,18.2381 -8.1852,0 -16.1601,-9.2201 -25.0094,-28.9139 -4.6932,-10.4448 -5.5387,-16.4694 -5.4234,-38.6475 0.092,-17.6807 1.4077,-29.6319 4.0232,-36.5414 3.6042,-9.5221 3.5457,-12.004 -0.8042,-34.1868 -2.5798,-13.1554 -7.5455,-33.8704 -11.0348,-46.0333 -3.4895,-12.1631 -8.5318,-30.5596 -11.2055,-40.8813 -4.9322,-19.0419 -13.6258,-41.6451 -15.3068,-39.7975 -0.5067,0.5567 0.037,12.2724 1.2073,26.0349 1.1704,13.7626 2.4267,34.163 2.7917,65.8166 0.6276,54.4411 0.3518,58.5664 -5.104,76.3191 -14.4767,47.9687 -46.3338,90.6582 -96.706,93.7301 l -14.4244,0.1051 -8.7265,13.7624 c -14.4466,22.7835 -43.7468,103.7777 -53.0739,133.114 -8.8648,27.8817 -25.0002,86.8834 -29.6179,126.4614 -1.8746,16.0675 -5.5234,70.0666 -18.5941,77.6024 -15.6794,1.6103 -32.9677,2.3415 -46.7834,-1.8275 z m 243.3858,-445.5126 c 5.1686,-16.7797 5.7077,-22.8232 5.2403,-58.7403 -0.9403,-72.2905 -10.2752,-151.9647 -18.7334,-176.7655 -2.6884,-7.8829 -30.371,-48.0676 -58.7891,-90.0475 -11.0753,-16.3609 -13.179,-23.2918 -7.7182,-25.428 6.1956,-2.4236 17.1356,6.6118 35.4717,22.543 l 15.3096,15.3965 -1.7583,-10.0091 c -4.3467,-24.7433 -11.9191,-38.8519 -30.8294,-42.8222 -49.2206,-8.8768 -78.8454,2.2417 -92.3189,42.8222 -11.5659,34.8349 -5.8813,80.7062 7.8367,144.3975 5.4231,25.179 4.7039,76.6708 0.6928,97.5587 -1.5684,8.1663 -2.9336,30.0489 -3.0341,48.6283 -0.1786,32.9728 0.018,34.2483 8.0587,53.3423 9.126,21.6614 16.9844,32.5617 27.4528,38.0802 11.9427,6.2955 15.0192,4.4817 31.1466,-18.3645 27.1424,-38.4504 36.6183,-45.9858 45.9124,-36.5115 5.5738,5.6817 3.4403,11.0095 -16.1845,40.4167 -9.4207,14.1165 -16.451,26.7844 -15.6228,28.1505 53.3652,-10.4726 62.7691,-56.3268 67.8671,-72.6473 z m -131.1036,-408.7829 c -64.8579,-12.3391 -79.4591,-87.6696 -58.678,-136.3145 10.7449,-23.9371 43.2081,-50.7288 66.178,-54.6164 5.4802,-0.9274 12.9467,-3.2421 16.5924,-5.1437 8.213,-4.2841 27.9933,-1.5984 37.176,2.5092 13.573,6.0712 32.5164,19.9113 37.5816,27.1624 26.6374,38.1345 22.0894,97.7092 -10.2264,132.8403 -28.7656,31.2717 -49.4012,39.1791 -88.6236,33.5627 z m 33.865,-24.4579 c 25.5872,-7.2443 45.3713,-31.4801 52.5502,-64.3741 4.9166,-22.5279 3.5729,-37.9186 -4.9061,-56.1888 -4.8912,-10.5404 -8.8675,-14.957 -19.1537,-21.2763 -21.1622,-13.0014 -44.6057,-16.5584 -60.0122,-9.1059 -14.1876,6.863 -36.8279,30.7572 -43.5239,45.9344 -13.5338,35.0389 -12.8469,58.3285 10.2297,84.3738 13.7992,15.5744 41.1127,27.3481 64.816,20.6369 z" fill="#00B894" transform="translate(242.87122,17.944951) matrix(0.26458333,0,0,0.26458333,-2152.8746,-633.14108)"/>
</svg>