<?xml version="1.0" ?><svg height="38.21114mm" viewBox="0 0 65.375198 38.21114" width="65.375198mm" xmlns="http://www.w3.org/2000/svg">
    <path d="m 3228.6802,6812.1124 c 2.4114,-4.6289 9.4078,-7.7075 24.1488,-8.5201 14.7413,-0.8125 25.7167,-1.86 30.67,0.2778 4.9535,2.1381 8.9683,10.3482 5.5353,16.5378 -3.4327,6.1897 -17.9718,14.4531 -32.4636,14.1859 -14.4915,-0.2672 -23.151,-4.554 -26.168,-10.7865 -3.0171,-6.2323 -1.7225,-11.6949 -1.7225,-11.6949 z" fill="#FFFFFF" paint-order="markers stroke fill" transform="translate(-56.664058,-85.347818) translate(-3170.524,-6714.6022)"/>
    <path d="m 3245.5136,6837.0143 c -6.2908,-1.7017 -9.4287,-3.2243 -12.6501,-6.8233 -5.1134,-5.7129 -7.4812,-14.9892 -4.0909,-20.8537 3.1875,-5.5137 7.2329,-6.8225 23.5047,-7.6975 5.8627,-0.3153 13.225,-0.9062 16.3611,-1.3128 9.6463,-1.2508 17.5107,0.6109 20.9348,5.5859 3.5807,5.2025 3.6712,11.2114 1.7161,15.2116 -3.2799,6.7109 -10.7915,11.2901 -22.0239,15.1927 -6.1819,2.1478 -17.1944,2.4709 -23.7518,0.6971 z m 24.6856,-6.5771 c 7.3133,-2.5207 12.5601,-5.6762 15.631,-9.4001 2.0833,-2.5262 2.4216,-3.4107 2.4216,-6.3289 0,-8.4317 -7.9516,-11.8715 -22.4911,-9.7298 -3.019,0.4447 -10.2897,1.0198 -16.1574,1.278 -14.4688,0.6366 -17.7512,2.3036 -18.7245,9.5094 -0.5701,4.2219 0.018,6.0951 2.8862,9.2759 6.8809,7.6161 23.0463,10.0102 36.4342,5.3955 z m -19.1919,-10.096 c -3.5362,-1.4219 -6.7459,-4.0983 -7.2566,-6.051 -0.3828,-1.4634 1.3444,-4.1678 2.2888,-3.5841 0.3664,0.2264 0.5106,0.8169 0.3204,1.312 -0.4199,1.0947 3.0153,4.106 5.4691,4.7944 2.8519,0.7998 10.8307,0.554 14.3011,-0.4404 2.3618,-0.6768 3.8616,-1.697 5.7589,-3.9167 2.766,-3.2356 4.7044,-3.4798 4.7044,-0.5925 0,2.6114 -2.7576,5.9952 -6.3269,7.7637 -4.6269,2.2925 -14.4297,2.6563 -19.2592,0.7146 z" fill="#00B894" transform="translate(-56.664058,-85.347818) translate(-3170.524,-6714.6022)"/>
</svg>