<?xml version="1.0" ?><svg height="83.957619mm" viewBox="0 0 125.61245 83.957619" width="125.61245mm" xmlns="http://www.w3.org/2000/svg">
    <path d="m 17464.789,2139.5703 c -1.699,0.01 -3.415,0.055 -5.139,0.1289 -27.583,1.1792 -89.857,39.6581 -90.271,124.3125 -0.414,84.6545 43.929,86.1447 91.375,89.4961 0,0 29.655,-12.8476 32.482,-38.666 2.827,-25.8183 -9.172,-62.1253 5.172,-116.3066 13.448,-50.7951 -8.139,-59.0972 -33.619,-58.9649 z m 246.99,4.7481 c -8.634,-0.073 -15.972,1.7163 -20.929,5.2851 -19.827,14.2752 -22.718,40.2239 -6.991,63.5723 15.729,23.3485 22.307,51.9987 21.141,72.5625 -4.467,29.1323 3.189,60.5717 63.814,60.0273 60.625,-0.5443 52.897,-100.5307 26.348,-148.3769 -19.912,-35.8849 -57.479,-52.8521 -83.383,-53.0703 z" fill="#FFFFFF" transform="translate(-47.223364,6.4982719) matrix(1,0,0.03501755,1,-4826.7118,-552.66896) matrix(0.26458333,0,0,0.26458333,261.62802,-5.9869561)"/>
    <path d="m 4908.3012,627.97774 c -0.8717,-2.86772 -0.9664,-23.47507 -0.1479,-32.20725 0.295,-3.1486 0.4127,-5.85046 0.2608,-6.00408 -0.1506,-0.15353 -2.7217,0.87744 -5.7122,2.29119 -2.9906,1.41368 -6.5563,2.89431 -7.9239,3.29044 -2.2871,0.66219 -2.4315,1.0172 -1.8018,4.42944 1.0411,5.63909 0.043,10.18972 -3.1032,14.15017 -3.3843,4.26007 -7.4364,6.37772 -12.6999,6.63696 -14.4375,-0.45471 -22.9302,-13.6718 -23.8974,-24.77191 -0.3397,-3.89861 0.2968,-10.20966 1.1406,-13.75819 1.2445,-5.23346 5.5523,-12.222 9.7768,-16.4338 5.5119,-5.49591 10.186,-7.53521 18.2344,-7.95588 6.0376,-0.31516 7.2107,-0.0895 9.2849,1.78996 3.4458,3.1224 4.644,9.82602 3.1175,17.4424 -0.2767,1.37983 2.0981,2.03497 10.3759,2.86253 l 3.976,0.39747 0.3885,-5.04918 c 0.8513,-11.06497 2.2045,-26.92686 3.0915,-28.10978 2.3856,-3.18067 3.1314,3.55148 3.3194,17.30313 l 0.1909,13.99905 1.2145,-11.45328 c 1.3168,-12.41605 3.1909,-20.5796 4.7419,-20.65601 0.6061,-0.0299 0.8448,1.4945 0.6265,4.00551 -0.1936,2.22948 -0.3902,9.04558 -0.4364,15.14696 l -0.083,11.09324 3.7236,0.75845 c 2.0481,0.41718 5.0153,0.95431 6.5942,1.19378 l 2.8706,0.43541 -0.4998,-4.51043 c -0.6674,-6.02026 1.5079,-10.72483 6.1384,-13.27531 3.1667,-1.74431 6.5807,-2.21572 11.1347,-1.20973 15.7772,3.48528 21.3799,15.9746 22.4266,17.80252 4.3598,9.33753 4.9214,20.59045 2.8888,27.60145 -4.1234,14.223 -23.5683,17.26579 -30.9137,6.78856 -1.5022,-2.14282 -2.5862,-3.24855 -2.8481,-7.73163 -0.1069,-1.82947 -0.3208,-5.48841 -0.3208,-5.48841 l -9.8929,-4.22925 c -5.441,-2.32604 -10.2202,-4.36999 -10.6203,-4.542 -0.4004,-0.17209 -0.5779,2.7319 -0.3945,6.45347 0.3824,7.76093 -1.456,28.52294 -2.781,31.34967 -0.8981,1.9154 -0.9046,1.91575 -1.7258,0.085 -0.4536,-1.01072 -0.4939,-18.43846 -1.0484,-27.81345 l -1.0083,-17.04542 -0.8252,8.58815 c -0.4537,4.72355 -1.0431,13.59924 -1.3098,19.7238 -0.5093,11.70335 -1.7281,18.01597 -3.6187,18.74028 -0.6219,0.23823 -1.4791,-0.71293 -1.9051,-2.11403 z m -25.2658,-16.5472 c 2.8723,-2.90514 3.2347,-3.82923 2.9745,-7.5828 -0.1641,-2.35102 -0.7976,-5.41892 -1.4096,-6.81738 -2.1226,-4.8502 -1.6625,-10.23473 1.4803,-17.32216 5.1406,-11.59288 2.9319,-19.48691 -4.9392,-17.65498 -7.8212,1.82034 -14.1022,7.07053 -18.4562,15.90065 -2.3928,4.85276 -4.2601,8.6835 -3.8701,16.95429 0.3186,6.46735 3.204,12.39942 8.4436,17.35986 5.3763,4.4952 11.8773,3.06458 15.7767,-0.83748 z m 84.8475,-2.26445 c 8.1627,-7.89429 5.8793,-22.08415 1.4886,-30.84363 -4.5563,-9.05404 -13.6318,-13.84286 -22.9194,-14.35471 -4.9455,-0.19386 -8.4963,7.41945 -5.8763,11.86777 0.6902,1.172 2.7101,3.60595 4.4888,5.40887 4.5972,4.66017 6.04,8.90387 5.0613,14.88915 -0.8906,5.4485 -1.4208,8.15383 0.1801,11.64827 1.7465,3.8122 9.1006,9.58181 17.5769,1.38428 z m -26.5117,-23.2131 c -1.896,-1.79321 -3.6851,-2.55901 -5.7421,-2.45769 -1.6435,0.0809 -5.1124,-0.38454 -7.7085,-1.03465 -6.097,-1.52637 -6.1616,-1.51556 -6.0371,1.01131 0.089,1.82104 1.0258,2.35874 6.2226,3.57387 3.3646,0.78663 8.2581,2.52488 10.8749,3.86265 l 4.7575,2.43218 0.1936,-2.39141 c 0.129,-1.60392 -0.7137,-3.24919 -2.5607,-4.99626 z m -44.9301,2.84368 c 2.8628,-0.8986 6.8908,-2.12129 8.9507,-2.71711 l 3.7456,-1.08308 -3.8808,0.093 c -2.1345,0.0511 -5.9847,-0.42885 -8.5558,-1.06652 -2.5713,-0.6378 -4.7391,-1.06522 -4.8179,-0.9499 -1.7696,2.59851 -2.6211,7.45468 -1.2958,7.38936 0.3566,-0.0188 2.9909,-0.76719 5.854,-1.66581 z" fill="#00B894" transform="translate(-47.223364,6.4982719) matrix(1,0,0.03501755,1,-4826.7118,-552.66896)"/>
</svg>