<?xml version="1.0" ?><svg height="90.38414mm" viewBox="0 0 108.62112 90.38414" width="108.62112mm" xmlns="http://www.w3.org/2000/svg">
    <path d="m 319.10692,237.47808 c 0,0 -32.03461,-11.74306 -47.75252,-42.59386 -15.71792,-30.85081 -22.25458,-56.85171 -0.57383,-70.1665 21.68074,-13.31479 42.16393,-11.78797 46.55496,-5.09689 4.39104,6.69108 12.34979,18.05244 12.34979,18.05244 0,0 10.05448,-16.72769 25.37321,-19.91606 15.31873,-3.18837 42.78766,-1.57173 47.67767,19.75888 4.89001,21.33062 -1.0229,43.60427 -25.4231,60.78103 -24.4002,17.17676 -58.20618,39.18096 -58.20618,39.18096 z" fill="#FFFFFF" transform="translate(-50.735755,-103.30793) matrix(0.68586778,0,0,0.68586778,-121.85771,27.923946)"/>
    <path d="m 312.88396,237.64768 c -11.3282,-6.4526 -30.7941,-21.5742 -36.2353,-28.1484 -18.4241,-22.2606 -28.4581,-50.4084 -23.9228,-67.109 3.6225,-13.3391 16.4891,-24.801 33.7135,-30.0328 19.0446,-5.7846 32.0552,-1.3572 40.3919,13.7451 l 4.1877,7.5861 5.7008,-6.6182 c 12.2201,-14.1868 33.3761,-19.801 48.5089,-12.873 9.0681,4.1516 17.6438,11.7642 21.2849,18.8947 3.811,7.4629 4.6306,20.8867 1.8577,30.4251 -1.194,4.1072 -5.1771,11.9623 -8.8514,17.4559 -10.5157,15.7223 -22.9015,26.2094 -50.5876,42.8326 -13.3947,8.0424 -24.6494,15.3924 -25.0105,16.3333 -0.9807,2.5557 -2.9628,2.1083 -11.0378,-2.4914 z m 34.6666,-23.7724 c 16.9594,-10.653 24.444,-16.2975 32.6667,-24.6358 22.8084,-23.1291 26.9899,-45.753 11.1082,-60.1012 -15.9579,-14.417 -36.6369,-11.4003 -53.8579,7.8569 -4.3543,4.8692 -8.692,8.8534 -9.6394,8.8538 -0.9473,5e-4 -3.5354,-4.0492 -5.7512,-8.9992 -7.3776,-16.4807 -14.7672,-20.8004 -29.24,-17.0927 -32.2659,8.2662 -40.0098,28.9188 -23.2813,62.0906 8.5588,16.9716 15.4684,24.7573 39.9949,45.0664 6.88024,5.06978 5.326,8.57759 12,3.7024 2.2,-1.607 13.9,-9.1406 26,-16.7412 z m -38.6666,1.9746 c 0,-2.2519 0.6111,-3.3519 1.6666,-3 0.9167,0.3056 1.6667,1.6556 1.6667,3 0,1.3444 -0.75,2.6944 -1.6667,3 -1.0555,0.3518 -1.6666,-0.7482 -1.6666,-3 z m -8.4851,-6.6743 c -0.977,-2.5459 0.3916,-6.2075 1.9581,-5.2394 0.6565,0.4058 1.1936,1.8669 1.1936,3.247 0,3.2255 -2.1556,4.5882 -3.1517,1.9924 z m -8.8278,-11.5479 c 0.011,-1.7111 0.5789,-3.9943 1.2616,-5.0738 1.0693,-1.6909 1.359,-1.6555 2.0923,0.2555 1.1624,3.029 0.3118,6.702 -1.7077,7.3745 -1.0189,0.3392 -1.6587,-0.6543 -1.6462,-2.5562 z m 64.2007,0.1418 c 0.245,-1.6742 1.246,-3.3079 2.2244,-3.6303 1.2086,-0.3984 1.636,0.3894 1.3333,2.4577 -0.245,1.6743 -1.246,3.3079 -2.2244,3.6304 -1.2087,0.3984 -1.636,-0.3894 -1.3333,-2.4578 z m 9.1122,-6.5341 c 0,-4.956 0.4766,-6.7845 1.6666,-6.3936 2.5466,0.8366 2.8484,9.5875 0.4008,11.6188 -1.8226,1.5127 -2.0674,0.894 -2.0674,-5.2252 z m -79.3951,2.2677 c -1.1445,-2.9825 -0.2068,-8.3787 1.3951,-8.028 0.7333,0.1605 1.5302,1.8836 1.7709,3.8291 0.5216,4.2165 -1.9177,7.4518 -3.166,4.1989 z m -3.7423,-7.3361 c -1.2426,-2.0107 0.4928,-9.3423 2.6314,-11.1172 1.4921,-1.2383 1.8304,-0.8035 1.7921,2.3034 -0.056,4.5431 -3.1961,10.7996 -4.4235,8.8138 z m 90.6444,-5.9838 c -0.4422,-1.65 -0.8121,-4.4431 -0.8222,-6.2067 -0.018,-3.1224 0.052,-3.1432 2.6485,-0.7934 3.0705,2.7788 3.6643,10.0001 0.8222,10.0001 -1.0145,0 -2.2063,-1.35 -2.6485,-3 z m -97.6291,-4.1708 c -1.0878,-2.8348 1.3095,-10.4466 3.7811,-12.0057 3.5925,-2.266 4.026,-0.1717 1.4601,7.0529 -2.4393,6.8681 -3.9562,8.3015 -5.2412,4.9528 z m 104.9643,-5.0824 c -2.827,-7.5535 -3.0285,-9.0802 -1.1987,-9.0802 2.9009,0 5.0231,2.896 5.0231,6.8546 0,4.7784 -2.3559,6.1494 -3.8244,2.2256 z m -110.2803,-7.023 c -1.5056,-5.9986 5.0064,-19.6 7.9666,-16.6398 0.9124,0.9124 -4.9694,19.8858 -6.1698,19.9024 -0.536,0.01 -1.3446,-1.4607 -1.7968,-3.2626 z m 115.1929,-2.7295 c -1.7128,-3.7591 -0.8714,-5.3748 2.1877,-4.2009 2.2635,0.8686 2.879,7.5399 0.6956,7.5399 -0.7491,0 -2.0466,-1.5026 -2.8833,-3.339 z" fill="#00B894" transform="translate(-50.735755,-103.30793) matrix(0.68586778,0,0,0.68586778,-121.85771,27.923946)"/>
</svg>