<?xml version="1.0" ?><svg height="83.957619mm" viewBox="0 0 128.99152 83.957619" width="128.99152mm" xmlns="http://www.w3.org/2000/svg">
    <path d="m 5345.0114,532.90692 c -0.4496,0.003 -0.9036,0.0145 -1.3597,0.0341 -7.298,0.312 -23.7747,10.49287 -23.8842,32.89102 -0.1096,22.39817 12.2687,27.75159 24.1763,23.67917 6.978,-2.38648 7.8462,-3.39926 8.5942,-10.23038 0.7479,-6.83109 -2.4268,-16.43731 1.3684,-30.77278 3.5581,-13.43954 -2.1535,-15.63614 -8.895,-15.60113 z m 65.3494,1.25626 c -2.2844,-0.0193 -4.2259,0.45411 -5.5375,1.39835 -5.2459,3.77698 -6.0108,10.64258 -1.8497,16.82018 4.1617,6.17762 5.9021,13.75798 5.5936,19.19882 -1.1819,7.70792 0.8437,16.02627 16.8841,15.88223 16.0404,-0.14402 13.9957,-26.59875 6.9712,-39.25806 -5.2683,-9.49454 -15.2079,-13.98378 -22.0617,-14.04152 z" fill="#FFFFFF" transform="translate(25.028619,-105.92321) translate(-5338.4977,-413.99469)"/>
    <path d="m 5372.7256,601.72495 c -0.9722,-2.86772 -1.7885,-23.47507 -1.2758,-32.20725 0.1848,-3.1486 0.2079,-5.85046 0.051,-6.00408 -0.156,-0.15353 -2.6909,0.87744 -5.6319,2.29119 -2.9411,1.41368 -6.455,2.89431 -7.8087,3.29044 -2.264,0.66219 -2.3959,1.0172 -1.6467,4.42944 1.2386,5.63909 0.3998,10.18972 -2.6077,14.15017 -3.2351,4.26007 -7.2131,6.37772 -12.4675,6.63696 -14.4534,-0.45471 -23.5198,-13.66267 -24.7649,-24.77191 -0.4323,-4.06066 -0.4242,-6.60538 -0.865,-6.73156 -4.5428,-1.30028 -0.9953,-4.38127 0.3922,-4.4497 0,0 0.6763,-0.59232 1.1316,-2.57693 1.1933,-5.20058 5.1244,-12.222 9.2014,-16.4338 5.3194,-5.49591 9.9221,-7.53521 17.9558,-7.95588 6.0266,-0.31516 7.2075,-0.0895 9.3476,1.78996 3.5551,3.1224 4.9881,9.82602 3.7283,17.4424 -0.2285,1.37983 2.1693,2.03497 10.4761,2.86253 l 3.9899,0.39747 0.2117,-5.04918 c 0.4638,-11.06497 1.2616,-26.92686 2.1072,-28.10978 2.2742,-3.18067 3.2558,3.55148 3.9253,17.30313 l 0.6811,13.99905 0.8134,-11.45328 c 0.882,-12.41605 2.4702,-20.5796 4.0186,-20.65601 0.6051,-0.0299 0.8971,1.4945 0.7668,4.00551 -0.1155,2.22948 -0.073,9.04558 0.094,15.14696 l 0.3052,11.09324 3.7502,0.75845 c 2.0627,0.41718 5.0487,0.95431 6.636,1.19378 l 2.8858,0.43541 -0.6577,-4.51043 c -0.8782,-6.02026 1.1323,-10.72483 5.6735,-13.27531 3.1056,-1.74431 6.5031,-2.21572 11.0923,-1.20973 15.8993,3.48528 23.05,17.80252 23.05,17.80252 7.0162,-0.35369 5.8751,4.89967 2.5805,5.85566 0,0 4.1977,10.54502 1.2749,21.74579 -3.7053,14.19981 -22.9637,17.26579 -30.676,6.78856 -1.5773,-2.14282 -2.6999,-3.24855 -3.1188,-7.73163 -0.171,-1.82947 -0.513,-5.48841 -0.513,-5.48841 l -10.041,-4.22925 c -5.5225,-2.32604 -10.3732,-4.36999 -10.7794,-4.542 -0.4064,-0.17209 -0.4822,2.7319 -0.1684,6.45347 0.6541,7.76093 -0.4572,28.52294 -1.6832,31.34967 -0.8311,1.9154 -0.8376,1.91575 -1.723,0.085 -0.4889,-1.01072 -1.1394,-18.43846 -2.0223,-27.81345 l -1.6052,-17.04542 -0.5244,8.58815 c -0.2884,4.72355 -0.5669,13.59924 -0.6192,19.7238 -0.099,11.70335 -1.0971,18.01597 -2.9624,18.74028 -0.6136,0.23823 -1.5041,-0.71293 -1.9791,-2.11403 z m -25.8452,-16.5472 c 2.7705,-2.90514 3.1005,-3.82923 2.7089,-7.5828 -0.2464,-2.35102 -0.9874,-5.41892 -1.6483,-6.81738 -2.2925,-4.8502 -2.0209,-10.23473 0.8737,-17.32216 4.7346,-11.59288 2.2495,-19.48691 -5.5575,-17.65498 -7.7574,1.82034 -13.7344,7.12975 -17.8993,15.90065 -2.8491,5.99951 -2.8598,7.38388 -0.056,7.26473 1.1712,-0.0484 2.7867,0.27403 3.5898,0.7196 1.1696,0.64856 0.9631,1.61165 -1.0751,2.51767 -1.4003,0.62237 -3.3796,0.59627 -4.3863,0.64593 -1.6073,0.0793 -1.7713,0.78599 -1.3483,5.80636 0.545,6.46735 3.6382,12.39942 9.0514,17.35986 5.5338,4.4952 11.9846,3.06458 15.7475,-0.83748 z m -21.0996,-11.42617 c -2.5114,-1.61588 -1.6455,-2.52687 2.9473,-3.10022 2.0279,-0.25303 4.9603,-1.21548 6.5163,-2.13855 2.7026,-1.60343 2.836,-1.59577 2.985,0.17209 0.3765,4.45386 -8.0633,7.88828 -12.4486,5.06668 z m 12.2841,-19.3938 c -0.7334,-1.53406 -0.6853,-2.59224 0.1646,-3.61458 1.5683,-1.88663 3.4924,-0.31358 3.3074,2.70366 -0.1845,3.00665 -2.2153,3.53945 -3.472,0.91092 z m -6.3452,-0.57591 c -0.4392,-1.07746 -0.3672,-2.454 0.1591,-3.059 1.2953,-1.48703 4.4652,1.27531 3.8543,3.35868 -0.6406,2.18409 -3.0764,2.0023 -4.0142,-0.29968 z m 99.9288,29.13143 c 5.4716,-4.53348 4.3964,-14.12608 4.2621,-21.00963 -0.076,-3.87204 -2.3525,-3.97869 -4.9909,-4.32645 -3.734,-0.49195 -4.2969,-2.24279 -1.2999,-4.04326 l 2.4373,-1.46429 c -4.7431,-9.11953 -14.1166,-13.84286 -23.4221,-14.35471 -4.9523,-0.19386 -8.2365,7.41945 -5.4607,11.86777 0.7312,1.172 2.8363,3.60595 4.6782,5.40887 4.7604,4.66017 6.3518,8.90387 5.5827,14.88915 -0.6999,5.4485 -1.1353,8.15383 0.588,11.64827 1.8799,3.8122 8.6998,8.77966 17.6253,1.38428 z m -13.1021,-16.27122 c -0.9548,-0.48626 -1.7978,-1.60889 -1.8727,-2.49491 -0.1141,-1.35108 0.855,-1.65984 6.0094,-1.91413 4.6147,-0.22775 6.1739,0.0242 6.2594,1.01339 0.2794,3.21923 -6.4354,5.41185 -10.3961,3.39565 z m -7.5832,-14.26066 c -1.6747,-1.75987 -1.2616,-4.63291 0.737,-5.12503 1.2477,-0.30733 2.4666,0.31528 2.652,2.51817 0.2816,3.35596 -1.6347,4.45033 -3.389,2.60686 z m 5.3942,0.49145 c -1.2123,-1.06472 -0.9953,-3.80616 0.4064,-5.13369 1.9012,-1.80055 4.7418,0.6605 4.083,3.53768 -0.4445,1.94129 -3.0439,2.86551 -4.4894,1.59601 z m -12.0335,6.82733 c -1.9587,-1.79321 -3.7746,-2.55901 -5.8281,-2.45769 -1.6406,0.0809 -5.1259,-0.38454 -7.7447,-1.03465 -6.1505,-1.52637 -6.2147,-1.51556 -6.0018,1.01131 0.1528,1.82104 1.1085,2.35874 6.3479,3.57387 3.3921,0.78663 8.3464,2.52488 11.0101,3.86265 l 4.8427,2.43218 0.1099,-2.39141 c 0.073,-1.60392 -0.8275,-3.24919 -2.7358,-4.99626 z m -44.8305,2.84368 c 2.8314,-0.8986 6.8165,-2.12129 8.8556,-2.71711 l 3.7077,-1.08308 -3.8776,0.093 c -2.1327,0.0511 -5.9997,-0.42885 -8.5931,-1.06652 -2.5937,-0.6378 -4.7764,-1.06522 -4.8511,-0.9499 -1.6786,2.59851 -2.3601,7.45468 -1.0371,7.38936 0.3559,-0.0188 2.964,-0.76719 5.7956,-1.66581 z" fill="#00B894" transform="translate(25.028619,-105.92321) translate(-5338.4977,-413.99469)"/>
</svg>