<?xml version="1.0" ?><svg height="72.782547mm" viewBox="0 0 76.024895 72.782547" width="76.024895mm" xmlns="http://www.w3.org/2000/svg">
    <path d="m 5082.3939,6164.4868 c -7.3768,-1.6597 -15.1186,-5.7087 -14.3483,-13.2961 0.7699,-7.5875 15.9292,-13.4967 15.9292,-13.4967 0,0 -6.4246,-6.4749 -3.5872,-11.6546 2.8371,-5.18 12.3825,-7.9341 12.3825,-7.9341 0,0 -1.1957,-7.806 2.6752,-13.059 3.8708,-5.2528 12.5854,-6.2741 12.5854,-6.2741 0,0 2.8575,8.0981 5.5933,11.071 2.7361,2.9728 20.6311,12.2018 22.9007,18.7132 2.2699,6.5111 -2.513,12.2018 -2.513,12.2018 0,0 6.3029,6.9307 4.0331,13.4784 -2.2699,6.5476 -14.1862,11.2715 -28.393,11.1622 -14.2065,-0.1095 -27.2579,-0.912 -27.2579,-0.912 z" fill="#FFFFFF" paint-order="markers stroke fill" transform="translate(-149.50027,-196.42651) translate(-4917.2388,-5899.8529)"/>
    <path d="m 5089.2587,6168.1655 c -13.8431,-1.3371 -20.8534,-5.4162 -22.2681,-12.9569 -1.4074,-7.5019 3.216,-15.0412 10.7498,-17.5271 l 3.156,-1.0419 -1.7493,-2.8685 c -0.9621,-1.5779 -1.7507,-3.9513 -1.7528,-5.2737 0,-3.5129 3.9771,-7.6822 9.0619,-9.4882 4.3771,-1.5544 4.4277,-1.6172 4.4277,-5.4539 0,-2.1353 0.5863,-5.016 1.3034,-6.4024 2.5455,-4.9222 11.0845,-10.8996 15.5338,-10.8734 1.0748,0 2.4213,1.7671 4.0836,5.3407 2.6946,5.7905 4.7961,7.6261 12.3616,10.7948 7.0724,2.9624 11.2491,6.6043 13.9814,12.1875 1.9511,3.988 2.2696,5.5694 1.7602,8.7328 -0.3421,2.1253 -1.2265,4.8149 -1.9659,5.9788 -1.2454,1.9604 -1.1773,2.289 0.9289,4.4977 2.9341,3.0759 4.4352,7.1123 3.714,9.987 -1.0498,4.1813 -5.3007,9.7757 -8.5235,11.2153 -8.7219,3.8982 -25.1232,5.0518 -44.8027,3.1514 z m 34.7207,-7.6177 c 5.8756,-1.1757 7.3921,-1.8734 9.9363,-4.5706 3.434,-3.6404 3.3543,-5.9478 -0.3738,-10.8476 -2.65,-3.4826 -2.76,-5.7772 -0.3798,-7.9313 3.1749,-2.8732 1.9281,-8.6516 -2.9786,-13.8087 -1.578,-1.6577 -6.1987,-4.6071 -10.2695,-6.5541 -5.8836,-2.8146 -7.9574,-4.3501 -10.1197,-7.4928 -1.495,-2.1737 -2.7188,-4.9923 -2.7188,-6.2635 0,-1.2716 -0.4251,-2.3119 -0.9445,-2.3119 -1.7676,0 -5.7953,2.5313 -8.4183,5.2907 -2.1528,2.264 -2.6581,3.6396 -2.8504,7.7638 -0.2509,5.3776 -1.1799,6.6143 -7.3429,9.7756 -4.4405,2.277 -5.8681,4.9768 -4.6166,8.7294 0.5634,1.6898 1.8385,3.7253 2.8329,4.5234 2.4098,1.9328 1.5166,3.0642 -3.8158,4.8358 -5.7487,1.9094 -9.9262,6.4881 -9.9262,10.8807 0,3.8537 2.9294,7.981 6.4805,8.3171 3.8617,0.3655 8.1877,0.8899 18.9693,0.9473 14.4266,0.077 21.4336,-0.2618 26.5359,-1.2833 z" fill="#00B894" transform="translate(-149.50027,-196.42651) translate(-4917.2388,-5899.8529)"/>
</svg>