<?xml version="1.0" ?><svg height="166.56236mm" viewBox="0 0 147.36012 166.56236" width="147.36012mm" xmlns="http://www.w3.org/2000/svg">
    <path color="#000" d="m 10570.83,2643.6197 c -2.107,-0.025 -4.065,0.1029 -5.842,0.3847 -25.271,4.0096 -78.754,8.302 -79.465,91.918 0.772,64.222 45.828,91.0948 92.881,88.0332 47.054,-3.0616 70.076,-46.8044 72.031,-101.8418 1.774,-49.8776 -49.09,-76.7939 -77.451,-78.418 -0.734,-0.042 -1.452,-0.068 -2.154,-0.076 z m 37.174,214.1406 c -8.324,-0.065 -17.583,0.3103 -27.868,0.8887 -62.686,3.5255 -92.716,45.3055 -107.39,116.8203 -14.673,71.5149 1.9,173.3886 7.732,274.2988 72.188,26.8359 217.636,-3.8091 217.149,-7.0996 -0.488,-3.2904 -15.387,-252.6155 -22.827,-318.086 -5.816,-51.1486 -22.061,-64.7702 -58.781,-66.6015 -2.57,-0.1283 -5.241,-0.1991 -8.015,-0.2207 z" fill="#FFFFFF" overflow="visible" paint-order="fill markers stroke" transform="translate(-258.183,-51.278344) matrix(0.26458333,0,0,0.26458333,-2474.3087,-644.88381)"/>
    <path d="m 10581.167,2631.1655 c -17.469,0.097 -35.402,5.9275 -54.25,15.9219 -16.561,8.9344 -37.521,32.9819 -42.818,49.1289 -8.715,28.3211 -7.299,56.0929 1.695,82.041 13.727,30.3441 39.946,48.2057 67.644,55.8926 35.914,9.9668 62.647,4.5068 90.985,-32.752 17.674,-23.2394 22.261,-36.2138 23.482,-66.4668 0.996,-24.5982 0.615,-26.8228 -7.951,-46.7382 -10.362,-24.091 -22.283,-37.648 -42.285,-48.0899 -10.909,-5.625 -21.873,-8.4488 -33.016,-8.8808 -1.16,-0.045 -2.321,-0.063 -3.486,-0.057 z m -16.523,23.0625 c 1.802,0 3.629,0.049 5.478,0.1426 8.284,0.4194 17.018,1.7332 26.059,3.7012 43.143,13.5973 65.114,78.9419 38.252,121.4629 -28.007,52.6288 -105.941,46.1638 -128.479,-12.8946 -5.448,-12.2442 -5.905,-56.2457 -0.744,-71.5859 10.773,-30.252 32.395,-40.853 59.434,-40.8262 z m 206.156,88.4571 c -0.953,-0.049 -1.988,0.029 -3.11,0.2246 -14.553,2.536 -14.392,45.7587 0.274,74.4668 8.702,15.6864 5.928,24.5295 9.681,39.6757 8.632,34.8417 5.72,66.3767 1.194,100.5665 -0.458,2.4957 -3.266,35.6965 -13.68,23.3242 -28.413,-27.9911 -50.173,-58.6305 -83.033,-98.9805 -30.351,-24.5873 -44.748,-33.2909 -109.928,-29.4004 -43.635,2.2257 -79.544,27.8066 -123.928,53.3848 -41.468,25.6378 -78.82,56.3854 -111.871,73.0801 -11.576,7.3117 -11.783,13.3876 -0.855,25.041 23.703,25.8571 55.408,48.4439 87.178,73.0117 l 8.197,8.7402 -4.018,3.7168 c -3.403,3.1456 -3.878,5.03 -3.103,12.3184 1.146,10.7823 9.558,25.4999 16.531,28.9199 6.176,3.0289 6.37,3.8359 1.836,7.627 -9.846,8.2305 -17.453,6.0323 -30.176,-8.7227 -6.385,-7.4036 -7.799,-8.1742 -14.594,-7.9434 -6.656,0.2263 -7.612,0.8312 -8.298,5.252 -0.623,4.017 1.285,7.2502 9.734,16.5039 4.322,4.7102 9.959,9.8441 16.168,14.2695 3.316,4.3304 -6.261,4.6503 -12.178,0.4063 -2.933,-2.1038 -8.343,-3.7238 -13.033,-3.9219 -7.785,-0.3177 -10.931,8.549 -5.195,12.543 10.102,11.4527 20.959,7.4185 30.767,14.5429 2.128,2.0838 6.791,3.8978 10.889,4.2344 17.379,1.0732 24.586,-9.617 39.158,-16.9551 0.26,0.3212 0.717,9.301 1.012,19.9532 0.373,12.824 2.822,27.8027 1.363,41.9453 -1.953,9.6058 2.616,19.6593 14.541,21.3242 9.731,0.3821 12.278,-4.3652 12.981,-24.3145 0.654,-23.6213 -2.256,-52.8832 -5.123,-79.4785 -8.877,-67.2933 -11.372,-141.4807 5.627,-207.0625 13.646,-52.65 49.762,-72.8501 103.734,-73.875 35.442,-0.3436 52.584,11.7053 62.693,47.2442 5.116,19.9404 8.19,51.1349 10.043,78.7011 6.179,51.5938 1.872,115.8697 6.789,176.2286 1.219,31.7397 11.953,123.5607 32.139,57.9746 -3.051,-25.8163 -5.289,-53.9557 -5.701,-71.6758 -1.395,-59.7913 -1.935,-110.0848 -7.147,-172.5586 -0.719,-15.4143 -2.103,-35.1696 -5.375,-52.1094 -2.549,-7.5891 1.158,-4.619 8.635,6.9199 15.429,23.8079 52.484,66.7317 64.52,74.7344 7.011,4.6621 15.409,5.1222 18.906,1.0371 8.666,-10.124 18.854,-25.7157 21.183,-42.4941 4.987,-36.4584 4.592,-84.1466 -5.177,-123.4043 -1.193,-6.1166 9.47,-8.0702 17.517,-8.4883 37.779,-6.9055 75.734,-35.7137 63.614,-43.8105 -2.661,-1.7781 -6.924,-1.4525 -3.155,-6.7344 6.831,-7.0679 5.171,-10.2687 4.543,-13.0703 -1.292,-5.7662 -2.291,-4.5072 -23.72,12.9961 -8.207,6.7027 -15.244,12.0373 -15.786,11.6757 -0.542,-0.3621 5.548,-8.9388 13.536,-19.0586 11.84,-15.0049 14.128,-19.6182 12.392,-24.9902 -0.691,-2.1382 -1.306,-3.4982 -2.15,-4.1269 -1.411,-1.0432 -3.466,-0.047 -7.59,2.791 -4.193,2.8821 -9.437,7.9512 -11.652,11.2676 -4.25,6.3623 -29.72,26.3511 -30.299,23.7753 -0.184,-0.828 4.357,-5.8831 10.095,-11.2324 13.427,-12.5233 20.939,-29.8192 14.202,-32.7265 -3.205,-1.3829 -10.871,3.1142 -21.92,12.8652 -20.136,17.7682 -33.395,26.6905 -36.543,24.5879 -1.254,-0.8377 -2.642,-8.6656 -3.086,-17.3965 -0.832,-16.3969 -3.561,-22.9919 -10.244,-23.3359 z m -284.817,162.7968 c 0.878,0.1922 -0.838,3.8056 -5.021,9.5996 -14.833,20.5424 -19.505,46.8661 -22.588,127.1465 -0.824,21.502 -2.151,39.0683 -2.945,39.0371 -0.795,-0.031 -5.389,-4.4019 -10.209,-9.7148 -25.331,-27.618 -53.593,-37.9021 -81.446,-66.4629 -16.398,-12.2974 1.549,-18.9797 26.506,-35.9746 27.835,-18.9527 61.593,-39.6702 91.293,-60.0156 2.422,-2.6136 3.882,-3.7306 4.41,-3.6153 z" fill="#00B894" transform="translate(-258.183,-51.278344) matrix(0.26458333,0,0,0.26458333,-2474.3087,-644.88381)"/>
</svg>