<?xml version="1.0" ?><svg height="162.3833mm" viewBox="0 0 130.7271 162.3833" width="130.7271mm" xmlns="http://www.w3.org/2000/svg">
    <path d="m 4967.005,493.27874 c 0,0 -6.8014,10.44591 -16.0975,6.94817 -9.2962,-3.49771 -8.6739,-22.19166 -8.6739,-22.19166 l 1.4785,-31.95225 c 0,0 -2.5736,-14.10907 -0.9453,-23.44423 1.628,-9.33516 2.7837,-15.64523 13.3138,-19.52111 10.5304,-3.87586 20.3256,0.14181 32.5366,0.0945 12.2111,-0.0473 30.2255,-6.28645 40.7297,-8.22439 10.504,-1.93794 24.3171,3.545 29.5952,9.83147 5.2785,6.28645 5.2785,15.69252 3.8341,19.04844 -1.4443,3.35592 1.628,5.67198 2.8623,9.52421 1.2343,3.85225 -2.022,20.65551 -1.5494,24.4132 0.4728,3.75772 -0.3937,14.91264 -3.7288,21.26999 -3.3351,6.35736 -3.519,13.42372 -8.0095,17.89041 -4.4905,4.4667 -6.6701,10.13868 -15.0733,13.73095 -8.4034,3.59227 -19.6688,9.17041 -19.6688,9.17041 0,0 3.0985,16.06997 1.1027,22.92363 -1.9957,6.85366 -4.1462,6.9705 -11.8697,9.31151 -7.7232,2.34103 -8.9545,-2.38694 -9.086,-8.36618 -0.1313,-5.97924 -5.6198,-8.88614 -4.5956,-16.1652 1.0242,-7.27903 -1.3391,-13.5655 1.2081,-17.98494 2.5471,-4.41942 1.6851,-6.54876 -6.6757,-4.44477 -8.3611,2.10397 -12.4156,-9.04983 -12.4156,-9.04983 z" fill="#FFFFFF" transform="translate(31.47763,9.4332499) translate(-4969.1095,-401.33541)"/>
    <path d="m 4998.2983,553.36382 c -1.2885,-0.65203 -2.9812,-2.32268 -3.7612,-3.71267 -1.2668,-2.25667 -1.2571,-2.86452 0.091,-5.67773 1.4878,-3.10533 1.4695,-3.1846 -1.2829,-5.52193 -3.4433,-2.92427 -4.3769,-8.24862 -2.4307,-13.86241 1.1325,-3.26661 1.1463,-4.18464 0.086,-5.63562 -1.5399,-2.10582 -1.6593,-8.35214 -0.2124,-11.05755 0.9637,-1.80066 0.8599,-1.91042 -1.1855,-1.25286 -6.2718,2.01628 -8.9908,1.71712 -12.5149,-1.37719 -2.1411,-1.87995 -3.6472,-4.20142 -4.022,-6.19977 -0.513,-2.73475 -1.0293,-3.23636 -3.5867,-3.48481 -2.3267,-0.22587 -3.5017,0.31524 -5.3143,2.44755 -6.6525,7.82576 -18.6748,6.57933 -23.757,-2.4632 -1.8021,-3.20614 -2.0199,-4.57352 -1.4566,-9.13678 0.3643,-2.95145 0.5913,-6.86027 0.5042,-8.68629 -0.2555,-5.38128 -0.3335,-10.74008 -0.1909,-13.28005 0.073,-1.30432 -0.1022,-4.77625 -0.3926,-7.71547 -0.3759,-3.81939 -0.1076,-6.15218 0.9389,-8.17671 1.3528,-2.61607 1.3227,-3.11144 -0.3928,-6.47668 -2.1581,-4.23286 -2.367,-8.41024 -0.591,-11.81345 0.8083,-1.54909 1.1054,-4.47308 0.8346,-8.21614 -0.3452,-4.7737 0,-6.74032 1.9623,-11.01552 2.6913,-5.87873 6.3644,-8.53897 16.6867,-12.08659 5.2433,-1.80201 6.7218,-0.82923 13.4037,-0.19059 4.2388,0.40516 12.6704,3.37261 18.4093,3.41728 9.4135,0.0731 12.1772,-3.12026 21.5907,-6.10199 9.6074,-3.04338 10.7398,-4.17849 21.716,-4.18419 11.3761,-0.008 12.1788,0.12422 17.5487,2.84481 4.4141,2.23617 6.0618,3.70997 7.6418,6.83494 1.1081,2.19122 3.1355,5.31639 4.5058,6.9448 3.3393,3.96836 3.6789,9.15015 0.9462,14.4346 -1.3469,2.60421 -1.2931,2.87562 1.0298,5.19852 2.9306,2.93052 3.7911,5.84484 2.95,9.99149 -0.3426,1.68894 -0.5784,5.50164 -0.5241,8.47279 0.062,3.38793 -0.4393,6.22328 -1.3444,7.60466 -1.2651,1.93083 -1.2772,2.66893 -0.097,5.98087 0.7402,2.07802 1.3549,5.05886 1.3665,6.624 0.027,3.72939 -2.8454,9.84821 -5.9782,12.73399 -1.979,1.82298 -2.4966,3.17613 -2.4966,6.52811 0,5.11777 -2.6222,9.73893 -7.0946,12.50299 -1.9632,1.21328 -3.4324,3.0177 -3.7927,4.65741 -1.0651,4.84977 -7.5318,9.58348 -13.0922,9.58348 -2.0475,0 -3.8757,0.70753 -4.9795,1.92742 -0.9594,1.06003 -3.6144,2.39823 -5.9002,2.97384 l -4.1559,1.04646 0.677,3.90334 c 0.3724,2.14682 0.6451,4.33014 0.6061,4.85184 -0.04,0.52175 -0.2925,4.2819 -0.5636,8.35585 -0.2842,4.26738 -0.8293,9.13395 -2.2046,10.90859 -4.7099,6.07757 -14.4986,9.14169 -20.1802,6.55656 z m 11.2739,-7.08815 c 3.4993,-1.79139 5.8505,-5.92707 3.3697,-5.92707 -1.9287,0 -1.74,-2.76726 0.5402,-7.92195 2.0487,-4.631 1.9301,-11.98608 -0.2662,-16.50245 -1.3469,-2.77024 -0.3662,-3.66075 2.562,-2.32661 3.004,1.3688 7.2624,0.0334 12.2147,-3.82993 2.565,-2.00095 3.9347,-2.54093 4.6443,-1.8312 1.9714,1.97151 12.1126,-5.15079 12.1126,-8.50705 0,-0.45267 1.6827,-2.34309 3.7388,-4.201 4.2552,-3.84407 7.1266,-10.32467 6.4918,-14.65051 -0.3124,-2.12776 0.027,-3.18054 1.2245,-3.82254 4.6945,-2.51235 6.8887,-11.19993 4.7297,-18.72731 -0.6418,-2.23811 -0.5202,-3.98615 0.437,-6.27726 0.7298,-1.74643 1.4504,-6.82699 1.6012,-11.29001 0.2608,-7.73432 0.1506,-8.24265 -2.3342,-10.8428 -3.0406,-3.17973 -3.1,-3.72356 -1.1075,-10.12951 1.4737,-4.73813 1.4552,-4.92538 -1.0081,-10.25842 -1.3799,-2.98775 -3.6168,-6.30351 -4.9707,-7.36844 -7.6471,-6.01532 -22.9324,-5.3215 -39.4658,0.42232 -8.5563,2.97252 -12.22,6.40456 -21.591,6.80824 -9.3269,0.40183 -12.0544,-2.4161 -17.2289,-4.107 -17.6729,-5.7745 -30.3361,0.96162 -30.0371,17.26566 0.038,2.0869 0.2848,3.26078 0.548,2.60859 0.7408,-1.83599 1.8096,-1.4126 2.9936,1.18574 0.5942,1.30427 1.7655,2.37143 2.6025,2.37143 2.1871,0 1.1199,2.3155 -1.2269,2.66253 -1.1799,0.17451 -2.5418,-0.52759 -3.4001,-1.75267 -1.4289,-2.0401 -1.4332,-2.04026 -2.463,-0.11615 -1.4829,2.77088 -1.2697,8.8784 0.3926,11.25174 0.7832,1.11814 2.7267,2.31927 4.3188,2.66885 3.4415,0.75584 3.2221,2.71028 -0.3514,3.13364 -3.4603,0.40987 -5.3915,3.55349 -5.3915,8.77631 0,5.35439 2.2463,7.94927 6.0543,6.99359 1.523,-0.38225 2.4829,-0.22963 2.4829,0.39478 0,1.42145 -3.6638,3.23496 -5.2815,2.61423 -3.0016,-1.1518 -2.8636,8.23098 0.1856,12.58325 1.0844,1.54821 2.1949,2.06372 3.7897,1.7588 2.5676,-0.49075 3.0513,1.2588 0.8526,3.08363 -1.0406,0.8634 -2.1436,0.90624 -4.2686,0.16537 l -2.8655,-0.99897 v 4.28166 c 0,2.35484 0.4393,5.10282 0.9766,6.10658 1.4746,2.75497 6.3078,4.90798 9.4624,4.21503 2.9567,-0.64939 10.4296,-8.09694 10.4296,-10.39416 0,-0.78437 -1.2479,-4.10212 -2.7736,-7.37271 -4.7404,-10.16453 -6.5347,-21.02085 -5.8657,-35.49408 0.6501,-14.07101 1.4823,-15.94008 7.5837,-17.03781 1.8849,-0.33907 3.8878,-0.97951 4.4509,-1.42314 0.6195,-0.4882 2.4918,0.25947 4.7429,1.89396 2.0454,1.48526 5.3484,3.22692 7.3395,3.87048 3.1764,1.02645 3.7677,0.9691 4.818,-0.46741 1.0567,-1.44506 1.595,-1.49359 4.5821,-0.41349 4.7203,1.707 11.6391,0.27418 11.641,-2.41069 0,-1.55484 0.5399,-1.84169 3.0145,-1.6047 4.0564,0.38836 12.4363,-3.90207 13.6,-6.96301 1.0059,-2.6458 1.2673,-2.73381 3.9129,-1.31801 1.441,0.7712 3.0161,0.61909 6.4772,-0.62554 3.9871,-1.43368 5.1371,-1.48684 8.968,-0.41435 8.9749,2.51286 11.8343,9.4126 10.1215,24.42375 -0.6088,5.3349 -0.8188,11.87011 -0.4668,14.52285 0.4143,3.12431 0.2366,5.57598 -0.5047,6.96099 -0.6292,1.17593 -1.8777,5.09871 -2.7744,8.71732 -0.957,3.86281 -2.0909,6.48592 -2.7462,6.35331 -0.6138,-0.12423 -1.6028,1.58316 -2.1979,3.79427 -2.1833,8.11611 -6.8781,14.30293 -14.0555,18.52229 -3.8502,2.2635 -5.3635,2.57234 -12.6058,2.57234 -6.8327,0 -8.6748,0.3321 -10.8499,1.95578 -3.325,2.48205 -5.7109,5.8677 -6.4452,9.1459 -0.5109,2.27971 -0.086,2.85064 3.8222,5.14132 4.1127,2.41013 4.2818,2.66089 2.6155,3.88057 -0.9795,0.71728 -2.7217,1.06842 -3.8712,0.78052 -1.7843,-0.44708 -2.1809,-0.0376 -2.7128,2.79714 -0.9266,4.93777 0.113,7.58258 4.2724,10.87723 3.7302,2.60678 3.9477,2.61732 1.7526,6.33772 -1.6601,2.81372 -1.7693,3.51326 -0.6577,4.21702 3.2962,1.17203 6.9406,0.3871 9.3148,-0.78878 z m 38.7349,-71.43221 c -1.6918,-1.00838 -2.3412,-4.68948 -0.8274,-4.68948 2.1874,0 7.7921,3.05903 7.4598,4.07153 -0.4923,1.50012 -4.5224,1.87554 -6.6324,0.61795 z m 3.41,-19.43335 c -0.8107,-2.11295 0.089,-2.59843 3.4445,-1.86116 2.4111,0.52957 2.7534,0.89752 1.8489,1.98745 -1.4762,1.77864 -4.5908,1.70438 -5.2934,-0.12637 z m 1.2536,-17.19162 c -1.5757,-1.57568 -0.4999,-3.18188 2.0035,-2.99113 1.4496,0.11051 3.1274,-0.10325 3.7286,-0.47475 1.7739,-1.09617 2.3224,0.96754 0.6908,2.59899 -1.5192,1.51927 -5.2648,2.02483 -6.4229,0.86689 z m -96.7657,-20.07376 c -1.8363,-2.02916 -2.0592,-5.93371 -0.4316,-7.5614 1.8451,-1.84516 2.6558,-1.32389 2.6558,1.70744 0,1.56514 0.8182,3.66387 1.8182,4.66386 1,0.99991 1.5692,2.06708 1.2649,2.37148 -1.1065,1.1065 -3.7741,0.51283 -5.3073,-1.18138 z m 25.6987,2.13368 c -1.6209,-1.79133 -2.1691,-5.85395 -0.7897,-5.85395 0.4289,0 1.8978,1.70743 3.2643,3.79427 2.1919,3.34822 2.285,3.79436 0.7897,3.79436 -0.932,0 -2.4009,-0.78058 -3.2643,-1.73468 z m 60.7119,-3.30864 c -0.9132,-0.5384 -1.6602,-1.72556 -1.6602,-2.63811 0,-1.28636 0.7992,-1.65708 3.5572,-1.65003 1.9564,0.008 4.731,-0.34071 6.1658,-0.76808 2.0057,-0.59752 2.6085,-0.45843 2.6085,0.60158 0,3.31835 -7.3769,6.3977 -10.6713,4.45464 z m -31.542,-2.3065 c -2.4138,-2.41376 -2.992,-4.73821 -1.4203,-5.70968 0.4996,-0.3086 1.562,0.70304 2.3611,2.24828 0.7991,1.54522 2.3175,3.08398 3.3743,3.41929 1.0567,0.33544 1.6765,1.00596 1.3772,1.49015 -0.9551,1.54524 -3.2941,0.95019 -5.6923,-1.44804 z m 24.1984,-8.98762 c -1.8572,-1.17416 -0.4399,-2.45046 3.5493,-3.1959 3.57,-0.66703 4.0072,0.51871 0.9744,2.64282 -2.4511,1.71698 -2.6453,1.74067 -4.5237,0.55308 z m -46.2832,95.74014 c 4.9546,-1.37598 6.4351,-3.20455 6.4351,-7.94797 0,-6.61967 1.6146,-9.85318 5.972,-11.95833 2.1285,-1.02836 4.6533,-1.86985 5.6108,-1.86985 1.6623,0 1.6674,-0.1175 0.1103,-2.60861 -0.8976,-1.43468 -1.6752,-2.70066 -1.7284,-2.81313 -0.054,-0.11267 -2.2071,0.86396 -4.7868,2.16992 -4.7835,2.42171 -7.9047,6.5276 -7.9827,10.50074 -0.046,2.3333 -5.6173,9.7033 -7.3912,9.77652 -1.6736,0.0691 -1.4735,-3.8608 0.3272,-6.43158 1.6637,-2.37546 1.1296,-6.8037 -0.8195,-6.79332 -0.6421,0 -2.4483,0.85429 -4.0134,1.89093 -3.0105,1.99391 -8.5004,2.54287 -9.4859,0.94856 -1.2062,-1.95218 -2.3713,-0.84157 -2.3713,2.26083 0,3.84553 2.9201,5.28056 4.9317,2.42365 2.4541,-3.48559 3.9534,-2.65449 3.7074,2.05527 -0.2017,3.86768 0.1129,4.6556 2.7534,6.87718 3.3463,2.81572 3.7881,2.89256 8.7327,1.51919 z m 15.1059,-8.16268 c -0.1479,-2.738 0.1828,-5.15945 0.7515,-5.51139 1.2372,-0.76459 2.9091,3.32033 2.9091,7.10713 0,2.02225 0.3673,2.61332 1.3821,2.22395 0.9747,-0.37408 1.2283,-1.41363 0.8605,-3.52749 -0.8347,-4.7979 -2.3044,-9.08905 -3.3305,-9.72322 -1.541,-0.95232 -5.5523,3.51697 -5.5523,6.18632 0,1.34732 -0.4044,3.86024 -0.8988,5.5844 -0.8667,3.02166 -0.8081,3.1241 1.6219,2.83946 2.4044,-0.28172 2.5087,-0.52105 2.2565,-5.17916 z m 13.7942,2.44634 c 1.4679,-0.55805 3.4041,-1.68028 4.303,-2.49364 1.5359,-1.39007 1.4932,-1.58998 -0.7096,-3.32289 -1.2893,-1.01408 -2.3441,-2.66653 -2.3441,-3.67214 0,-1.36267 -0.6642,-1.82758 -2.6085,-1.8258 -2.5779,0 -2.6088,0.075 -2.6088,6.1664 0,3.39011 0.2926,6.16355 0.6499,6.1632 0.3574,-2.6e-4 1.8505,-0.45708 3.3181,-1.01513 z m 12.6324,-10.36834 c 1.1142,-1.56517 1.5703,-2.84575 1.0131,-2.84575 -1.733,0 -1.111,-2.72671 0.8629,-3.78311 1.9293,-1.03243 6.6611,-5.45106 6.6611,-6.22011 0,-0.23715 -1.4654,-0.43113 -3.2562,-0.43113 -2.3705,0 -3.4122,0.49223 -3.8303,1.80975 -0.3159,0.99529 -2.4791,3.56518 -4.8069,5.71093 -4.6717,4.30611 -4.9161,4.94033 -2.7419,7.11453 2.1961,2.19598 3.8277,1.83344 6.0982,-1.35511 z m -51.6975,-4.74291 c 3.3737,-2.23433 8.3043,-2.46909 9.9599,-0.47424 1.4802,1.78326 2.8459,1.83406 2.8459,0.10567 0,-0.74145 -1.3797,-1.57611 -3.1551,-1.90918 -1.7354,-0.32557 -3.9347,-1.16178 -4.8871,-1.8582 -1.4509,-1.06095 -2.1755,-1.04487 -4.4697,0.0995 -3.3003,1.64649 -6.3151,0.93092 -4.6305,-1.09881 0.6018,-0.72521 2.1441,-1.58208 3.427,-1.90399 1.4955,-0.37542 2.3323,-1.2596 2.3323,-2.46463 0,-2.32757 -0.3907,-2.30738 -5.6913,0.29441 -2.5864,1.26947 -4.7881,3.18963 -5.5869,4.8723 -1.217,2.56393 -1.1544,2.90977 0.8166,4.50578 2.755,2.23094 5.4928,2.1799 9.0389,-0.16859 z m 42.0215,-3.22991 c 4.4418,-2.31101 7.071,-5.86974 7.1925,-9.7353 0.1371,-4.32103 -1.7927,-5.50658 -10.2769,-6.3176 -4.0104,-0.0246 -7.2783,-1.87394 -2.8456,1.74877 1.6458,1.34519 4.0709,2.3027 5.883,2.32268 4.1403,0.0454 4.4277,3.38236 0.3681,4.274 -1.5959,0.35052 -3.1511,1.55436 -3.7739,2.92109 -1.3234,2.90447 -2.8262,2.98885 -3.3939,0.19064 -0.2366,-1.17386 -0.709,-3.41488 -1.0465,-4.98002 l -0.6138,-2.84572 -1.8172,2.23943 c -2.339,2.88251 -2.3326,2.9301 1.0344,7.57834 3.075,4.24469 5.0643,4.80236 9.2898,2.60383 z m -20.5602,-7.45553 c 5.7606,-4.39379 7.8787,-8.46306 7.9147,-15.20644 0.027,-4.43095 -0.3442,-5.8346 -1.8115,-6.90873 -1.0126,-0.74151 -2.1616,-1.34815 -2.5534,-1.34815 -0.3917,0 -0.4802,2.8813 -0.1962,6.4029 0.4549,5.65239 0.2527,6.78605 -1.7185,9.67162 -1.2286,1.79781 -3.6182,4.07736 -5.3103,5.06555 -4.6649,2.72451 -4.9618,0.0852 -0.6881,-6.11988 3.0065,-4.36586 3.423,-5.61142 3.0344,-9.07787 -0.2473,-2.20972 -1.178,-5.12872 -2.0677,-6.48649 -1.9529,-2.98062 -3.9244,-2.69348 -10.7832,1.5702 -3.0384,1.88856 -5.6219,2.80603 -7.3353,2.60477 -3.3834,-0.39747 -4.0768,-2.41795 -1.2086,-3.52096 3.8115,-1.46568 12.1715,-8.71968 12.1715,-10.56091 0,-0.96386 -0.8538,-2.02355 -1.8971,-2.35471 -2.6463,-0.83984 -5.6915,0.30358 -5.6915,2.13707 0,2.52139 -3.8905,5.92588 -6.7719,5.92588 -4.7083,0 -6.3041,7.07748 -2.6451,11.72924 1.6443,2.0902 2.7241,2.49939 6.5956,2.49939 6.1849,0 9.4481,-1.59388 10.1179,-4.9421 0.7443,-3.72157 2.0121,-4.18465 3.1638,-1.15544 1.2336,3.24499 0.4471,5.83261 -2.8626,9.41753 -3.3194,3.59543 -4.7521,6.3792 -4.7521,9.23374 0,3.33719 1.7688,4.52065 6.7561,4.52065 3.5964,0 5.2799,-0.61054 8.5396,-3.09686 z m -32.422,-0.15596 c 1.3329,-1.26727 4.7421,-2.88734 7.5759,-3.59992 6.3654,-1.60085 7.0869,-3.12631 1.8723,-3.96013 -2.7956,-0.44705 -4.9645,-1.65449 -7.3882,-4.11334 -7.0941,-7.19664 -13.6431,-8.24523 -9.0285,-1.44548 1.2528,1.84602 2.2775,3.93713 2.2775,4.64686 0,0.84751 1.1638,1.29053 3.3896,1.29053 2.7023,0 3.3256,0.33267 3.0737,1.64035 -0.1748,0.90231 -1.5924,2.05904 -3.1525,2.57054 -3.7225,1.22067 -3.5751,1.0503 -2.8591,3.30616 0.7976,2.51273 1.2845,2.47423 4.2393,-0.33557 z m 72.1074,-4.7143 c 0.4759,-1.2517 1.8389,-2.95771 3.0288,-3.79108 2.0196,-1.41462 2.0583,-1.62058 0.5818,-3.09715 -1.2769,-1.27674 -1.8542,-1.35558 -2.9954,-0.40866 -0.7773,0.64528 -1.5458,2.06915 -1.7074,3.16433 -0.4289,2.90205 -2.4977,3.13897 -3.1939,0.36574 -0.4065,-1.61973 -1.46,-2.57226 -3.2893,-2.97409 -3.0986,-0.68048 -5.1734,-2.76199 -4.2473,-4.26056 0.3498,-0.56571 1.4047,-0.78469 2.3441,-0.48647 1.9269,0.61162 9.3678,-0.84732 10.4557,-2.04997 0.3913,-0.43256 0.9968,-1.99437 1.3453,-3.47072 0.5641,-2.3895 0.4211,-2.61666 -1.3049,-2.06885 -1.3157,0.41744 -2.1269,0.1253 -2.5238,-0.90831 -0.6566,-1.71168 2.0871,-5.24724 4.0723,-5.24724 1.6913,0 0.7854,-6.44214 -1.7279,-12.2904 l -1.8171,-4.22756 -1.7835,2.93276 c -2.3246,3.82264 -9.3036,6.6935 -12.3318,5.07286 -2.8445,-1.52233 -1.9572,-3.2334 2.0116,-3.87846 1.8287,-0.29723 4.7227,-1.53568 6.431,-2.75218 2.7402,-1.95132 2.9139,-2.31905 1.4735,-3.12517 -1.0764,-0.60223 -2.4203,-0.55456 -3.9452,0.14009 -1.2718,0.57953 -3.4931,1.05369 -4.9359,1.05369 -5.2,0 -10.4802,9.17286 -6.221,10.80716 0.8252,0.31673 3.5143,0.57577 5.976,0.57577 2.4614,0 4.9182,0.44273 5.4592,0.98384 0.6758,0.67558 1.786,0.67891 3.5437,0.0108 2.0882,-0.79389 2.6701,-0.68574 3.1584,0.5868 0.364,0.94847 -0.113,2.15285 -1.2197,3.07231 -1.2923,1.07482 -1.7367,2.47565 -1.5372,4.84358 0.3877,4.59599 -2.4652,7.57732 -7.2509,7.57732 -1.9669,0 -4.4046,-0.62678 -5.4172,-1.39271 -3.3049,-2.49961 -8.9556,-1.59077 -8.9556,1.44038 0,2.40429 3.5888,4.69516 7.3557,4.69516 5.1212,0 9.5657,2.33854 10.2473,5.39179 1.3157,5.8951 1.3923,5.99112 4.7757,5.99112 2.5886,0 3.4619,-0.47951 4.1449,-2.27574 z m -73.5045,-18.47383 c 0.6736,-3.06664 3.2205,-5.72419 8.0255,-8.37478 1.7908,-0.98798 3.3901,-2.20246 3.5539,-2.69888 0.164,-0.49653 -1.5824,-1.81844 -3.8801,-2.93766 l -4.178,-2.03497 -1.0658,4.23308 c -0.8091,3.21391 -1.4585,4.15184 -2.6962,3.89554 -1.2368,-0.25625 -1.58,-1.18717 -1.4213,-3.85819 0.2635,-4.43797 -1.3025,-4.54015 -3.1148,-0.20328 -1.6098,3.85311 -0.9599,10.46802 1.2818,13.0456 2.0185,2.32091 2.8037,2.0813 3.495,-1.06657 z m 50.9739,-2.50988 c 1.6066,-0.40097 4.2301,-0.008 6.9986,1.05001 4.2887,1.63793 4.47,1.63516 5.73,-0.0882 2.879,-3.93705 0.3597,-6.70673 -5.2796,-5.80499 -2.049,0.32761 -4.8906,0.15246 -6.3151,-0.38908 -1.7887,-0.68007 -2.8946,-0.68034 -3.5741,0 -0.6792,0.67948 -0.3135,0.98391 1.182,0.98391 3.1635,0 1.953,2.31472 -1.3853,2.64938 -4.8093,0.48206 -5.3495,0.88545 -4.1607,3.10668 0.9569,1.7884 1.2253,1.84529 2.6493,0.5623 0.8717,-0.78526 2.741,-1.71626 4.1549,-2.06904 z m -8.0858,-5.36321 c 1.5658,-1.47095 2.1955,-3.12176 2.1955,-5.75541 0,-3.23986 -0.2339,-3.62687 -1.8973,-3.1547 -1.0433,0.2961 -2.7515,0.78072 -3.7961,1.07703 -1.466,0.41597 -1.7669,1.06488 -1.32,2.84575 0.6628,2.64018 -1.463,3.24305 -3.363,0.9538 -0.8607,-1.03692 -1.7572,-1.13224 -3.8346,-0.40807 -3.4783,1.21263 -4.5552,3.63797 -1.6477,3.71184 1.1573,0.029 3.5985,0.61887 5.4242,1.30972 4.7618,1.80163 5.7803,1.72992 8.239,-0.57996 z" fill="#00B894" transform="translate(31.47763,9.4332499) translate(-4969.1095,-401.33541)"/>
</svg>