<?xml version="1.0" ?><svg height="90.032349mm" viewBox="0 0 88.101059 90.032349" width="88.101059mm" xmlns="http://www.w3.org/2000/svg">
    <path d="m 3205.7586,6711.1498 c 2.7831,-4.4445 4.0386,-7.5329 6.4659,-10.4333 2.4275,-2.9001 6.4243,-4.6138 8.0983,-6.7985 1.674,-2.1846 2.553,-4.8022 5.629,-5.3295 3.0761,-0.5273 7.7007,-2.1471 9.4168,-3.3147 1.7158,-1.1676 3.097,-1.6758 7.0311,-0.772 3.934,0.9041 6.2357,-0.6591 9.1654,-1.1676 2.9297,-0.5086 3.0133,2.4106 6.6125,3.4652 3.5993,1.0546 10.2327,-0.5085 12.1999,0.3956 1.9669,0.9038 0.1045,5.5742 1.8203,5.9131 1.7161,0.3392 4.2061,0.6594 5.1269,2.4485 0.9207,1.7888 2.2391,6.4783 4.1851,7.7965 1.9463,1.3184 4.8967,3.3522 4.6456,5.1789 -0.2511,1.8267 -2.1971,4.5575 -1.6113,6.1206 0.586,1.5632 1.402,7.0432 0.3558,8.3429 -1.0464,1.2993 2.5739,5.725 1.151,7.4012 -1.423,1.6758 -3.9341,2.2032 -2.9925,4.6326 0.9417,2.4294 1.423,5.9888 -0.6278,7.6649 -2.0508,1.6762 -5.1687,3.9923 -5.7335,7.4764 -0.5652,3.484 -7.4915,7.9473 -10.5257,9.0773 -3.0342,1.13 -3.3274,6.309 -6.1105,6.2711 -2.7832,-0.038 -4.2688,-2.8813 -7.2822,-0.4143 -3.0133,2.4672 -2.5738,2.0151 -5.7544,1.1676 -3.1808,-0.8474 -4.9387,-2.8625 -7.7846,-0.885 -2.8458,1.9775 -6.3404,-0.7721 -8.2655,-2.5048 -1.9252,-1.7325 -5.0224,-1.3558 -6.7173,-1.3748 -1.6949,-0.019 -3.3901,-4.482 -4.0804,-6.6101 -0.6906,-2.128 -3.9341,-0.4897 -6.0267,-4.0489 -2.0926,-3.5594 -4.813,-2.241 -7.5123,-6.0452 -2.6995,-3.8042 0.063,-6.535 0.1672,-10.132 0.1048,-3.597 -2.3646,-4.0113 -1.4438,-7.0056 0.9207,-2.9943 2.9297,-3.2956 2.2392,-6.7985 -0.6906,-3.5028 -3.8087,-5.612 -1.8415,-9.7176 z" fill="#FFFFFF" paint-order="markers stroke fill" transform="translate(-18.8732,73.961114) translate(-3182.0634,-6755.2881)"/>
    <path d="m 3244.0815,6766.97 c -1.0597,-1.4494 -1.1949,-1.4091 -3.4774,1.0343 -3.9749,4.255 -9.2287,2.9155 -10.4477,-3.0452 -0.3735,-1.8263 -1.8516,-2.3632 -2.8947,-1.5514 -4.2202,3.2844 -7.5552,1.3739 -8.1219,-4.7769 -0.2397,-2.6016 -0.6434,-4.1664 -3.5828,-4.2325 -2.787,-0.063 -3.2505,-0.3261 -3.9506,-2.4187 -0.6419,-1.9179 -1.1785,-2.3255 -2.8118,-2.1353 -1.1608,0.136 -2.9235,-0.4766 -4.1482,-1.4401 -2.6345,-2.0721 -2.8201,-5.8883 -0.532,-10.931 1.8762,-4.1343 1.945,-4.949 0.3676,-4.3437 -1.7514,0.672 -3.5454,-1.1733 -3.5454,-3.6471 0,-1.1852 1.1204,-3.7018 2.4896,-5.592 1.7175,-2.371 2.1769,-3.541 1.4815,-3.773 -2.0346,-0.6781 -3.9711,-3.3569 -3.9711,-5.4936 0,-2.799 1.6406,-5.1268 5.1353,-7.2867 2.4555,-1.5176 2.7659,-2.0845 2.7659,-5.0497 0,-4.4146 1.3187,-6.0219 5.3887,-6.5678 3.3894,-0.4546 5.7485,-3.1857 6.4634,-5.5177 0.993,-3.2393 5.6776,-5.1365 8.218,-3.4087 1.6939,1.1521 2.6024,-0.5179 3.2418,-1.5892 2.3765,-3.9816 7.3524,-5.0607 10.9208,-2.3293 2.2483,1.7209 3.379,1.0741 5.2111,0 4.1805,-2.1328 7.267,-2.0618 9.4072,0.2161 0.9449,1.0059 1.7181,2.2504 1.7181,2.7656 0,1.2589 2.3161,1.1375 4.7406,-0.2485 1.0866,-0.6211 2.9695,-1.1418 4.1843,-1.1571 2.6041,-0.034 6.0876,3.0952 6.0876,5.467 0,1.0441 0.516,1.6161 1.458,1.6161 2.2031,0 4.0727,2.5652 4.0761,5.5934 -0.3774,2.6129 -1.5701,4.7032 4.3456,6.057 5.7735,1.3213 5.5782,6.2185 3.0789,8.9802 -1.1583,1.28 -1.1583,1.5472 0,3.2011 1.6976,2.4236 1.2816,4.019 -0.3555,6.2328 -1.4648,1.9808 -1.0527,1.2964 0.5895,3.2757 2.0315,2.4485 1.7718,5.2502 -0.9507,7.4209 -2.0842,1.662 -2.1226,1.8163 -0.8887,3.5778 2.0722,2.9588 1.6397,5.328 -1.2525,6.8596 -4.1258,2.1846 -3.6607,4.3241 -2.9491,6.3208 1.0568,2.9654 -2.1373,5.2359 -3.0271,5.2359 -0.8899,0 -3.7041,1.4541 -3.525,2.6738 0.4628,3.1537 -1.3688,4.4003 -5.7416,3.9074 -2.9726,-0.335 -3.5491,-0.1813 -3.5491,0.9453 0,1.717 -3.29,4.8354 -5.2309,4.9584 -0.8169,0.051 -2.2567,-0.1585 -3.1994,-0.4695 -1.3187,-0.4335 -1.8329,-0.1893 -2.2289,1.0585 -0.2832,0.8922 -1.5386,2.1514 -2.79,2.7985 -3.1539,2.0469 -4.6191,1.769 -8.1975,-3.1915 z m 7.2712,-3.6839 c 1.1952,-1.6415 3.1754,-1.8201 6.0183,-0.5248 2.5795,1.1754 4.2246,-0.096 4.558,-3.5241 0.2121,-2.1795 3.5991,-3.4768 5.6083,-3.8051 2.0092,-0.3283 2.507,-0.1372 3.1419,-1.8557 0.6349,-1.7185 2.1822,-3.1048 4.028,-3.4634 3.2077,-0.6232 2.5179,-2.6395 2.3216,-4.3704 -0.3812,-3.36 1.102,-4.5013 3.2051,-5.404 1.9392,-0.8324 2.5015,-2.277 1.6628,-4.1111 -1.6933,-3.7031 -1.4532,-5.6806 0.4247,-6.9958 1.5033,-1.053 1.5183,-1.2331 0.3007,-3.6737 -1.2072,-2.4198 -1.192,-2.6861 0.2644,-4.6658 1.5048,-2.0453 1.5073,-2.1612 0.098,-4.4702 -1.7776,-2.9137 -1.8204,-4.212 -0.198,-6.0047 1.5958,-1.7633 1.7743,-3.7819 -0.6574,-3.8052 -6.0178,-0.058 -6.6437,-4.1298 -6.2649,-7.9674 0.2655,-2.6897 -0.6172,-2.783 -2.6996,-3.2048 -3.4617,-0.7017 -4.2768,-1.371 -4.2768,-3.512 0,-2.4402 -0.951,-2.966 -3.5662,-1.9715 -3.0992,1.1782 -8.1162,-0.3474 -9.2378,-2.8095 -1.0128,-2.2225 -2.6531,-2.4334 -5.8713,-0.7551 -2.5371,1.323 -6.0344,1.3736 -6.9667,0.4608 -3.0179,-2.9544 -6.2922,-0.7228 -7.9177,1.0462 -2.338,2.5444 -3.021,2.8436 -6.6094,2.8436 -3.8057,0 -4.0703,0.1379 -5.3271,2.7871 -1.4567,3.0698 -4.376,5.6995 -7.0806,6.3784 -1.3358,0.3352 -1.851,1.1833 -2.1719,3.5752 -0.3256,2.4279 -1.2387,3.8977 -4.0465,6.5122 -4.0665,3.787 -4.2821,4.6301 -2.0454,8.0072 1.9993,3.0189 2.0033,5.9649 0.018,8.4975 -1.3848,1.7606 -1.4291,2.1106 -0.377,2.9837 0.6554,0.5438 1.0138,1.5609 0.7966,2.2601 -0.2171,0.699 -0.076,1.7793 0.3141,2.4007 0.4501,0.7172 0.2679,2.2317 -0.4982,4.1469 -1.504,3.7582 -1.0264,5.0968 1.9759,5.5373 2.1962,0.3223 2.2949,0.2279 1.527,-1.458 -0.6021,-1.321 -0.5533,-2.1254 0.1813,-3.0111 1.1918,-1.4362 2.3897,-1.578 2.3897,-0.2834 0,0.5093 0.6176,1.6079 1.3724,2.4418 1.2881,1.4235 1.2902,1.5765 0.032,2.496 -1.1497,0.8405 -1.2113,1.3976 -0.4344,3.9285 0.6958,2.2676 1.4093,3.0502 3.0874,3.3857 3.0945,0.6189 4.9584,3 4.8671,6.2177 -0.079,2.7927 1.0197,3.5299 2.7228,1.8268 1.2316,-1.2316 5.8693,1.001 8.0462,3.8739 1.547,2.0416 1.7021,2.0837 2.7409,0.7453 0.6053,-0.7804 2.3685,-1.6243 3.9175,-1.8758 2.2878,-0.3714 3.1595,0.087 5.2868,1.6215 2.6546,1.9148 4.1656,1.1607 5.3394,-0.4515 z m 0.17,-5.3638 c -2.0487,-2.0489 -1.3623,-4.3182 0.8906,-2.9438 1.2865,0.7848 1.7371,0.7095 2.5849,-0.4321 1.4459,-1.9474 2.8277,-1.7176 2.8277,0.4699 0,1.9114 -2.1833,4.4684 -3.8154,4.4684 -0.509,0 -1.6283,-0.7031 -2.4878,-1.5624 z m -22.4717,-1.0578 c -0.7821,-0.572 -1.2946,-1.6981 -1.1388,-2.5026 0.3503,-1.8073 2.2588,-2.575 2.2588,-0.9085 0,0.6665 0.5833,1.5384 1.2962,1.9371 0.7129,0.3991 1.0475,1.1279 0.7435,1.6196 -1.2484,1.2828 -2.468,0.3525 -3.1597,-0.1456 z m 7.8003,-0.8994 c -2.1418,-2.1421 -2.426,-3.5791 -0.9912,-5.014 1.4187,-1.4188 2.1704,-1.1615 3.0026,1.0271 0.5272,1.3873 1.3448,1.9755 2.7457,1.9755 2.7836,0 2.525,-1.9593 -0.4193,-3.1789 -2.8506,-1.1808 -1.9568,-2.8272 1.116,-2.056 4.4215,1.1096 5.9699,5.6674 2.7027,7.9555 -2.5939,1.8168 -5.9195,1.5278 -8.1565,-0.7092 z m -14.0641,-6.617 c -1.63,-1.801 -1.6934,-5.1525 -0.1227,-6.4563 1.2405,-1.0297 1.3552,-0.8481 1.4948,2.3704 0.065,1.5412 0.563,2.0303 2.2585,2.2253 2.3669,0.2723 2.6893,0.8927 1.2247,2.3574 -1.369,1.3688 -3.3505,1.1663 -4.8554,-0.4968 z m 24.4659,-1.1539 c -1.0323,-0.7551 -2.082,-1.7794 -1.6757,-3.3983 0.4887,-1.9471 1.6895,-1.9622 4.246,-1.7486 2.3043,0.1925 2.9174,0.5965 3.1248,2.0608 0.4961,3.5001 -2.7346,5.2507 -5.6951,3.0861 z m 1.8812,-1.6622 c 0,-0.1719 -0.5518,-0.5224 -1.226,-0.7813 -0.7033,-0.2698 -1.0204,-0.1379 -0.7438,0.3107 0.4643,0.7508 1.9698,1.1104 1.9698,0.4706 z m 18.9635,1.2484 c -1.506,-0.4889 -2.3964,-1.8372 -1.8245,-2.7624 0.2429,-0.3931 0.7258,-0.2551 1.0729,0.3065 0.5151,0.8335 0.8601,0.8313 1.8766,-0.018 1.8647,-1.5478 1.5024,-2.6538 -0.7299,-2.2271 -1.3111,0.2506 -1.9753,0.023 -1.9753,-0.6798 0,-0.5816 0.8889,-1.6398 1.9753,-2.3518 1.8346,-1.202 2.1211,-1.1988 4.0202,0.044 1.6604,1.0877 1.9456,1.7358 1.5168,3.4444 -0.8852,3.5274 -3.1457,5.1419 -5.9321,4.2368 z m -35.256,-1.2953 c -0.6449,-1.6803 0.4986,-3.27 1.3667,-1.8999 0.9318,1.4705 0.874,3.0474 -0.1115,3.0474 -0.4482,0 -1.013,-0.5163 -1.2552,-1.1475 z m 26.9596,-2.013 c -0.2687,-0.4347 0.065,-0.7903 0.7434,-0.7903 0.6776,0 1.2319,0.3556 1.2319,0.7903 0,0.4346 -0.3347,0.7901 -0.7434,0.7901 -0.4092,0 -0.9634,-0.3555 -1.2319,-0.7901 z m -6.6297,-5.822 c -0.6547,-0.7886 -0.6915,-1.3106 -0.1171,-1.6651 1.2181,-0.7528 4.1219,0.3512 3.7625,1.4305 -0.4643,1.394 -2.5699,1.5296 -3.6447,0.2346 z m -14.1207,-1.4172 c -1.322,-1.3218 -1.2421,-3.8228 0.1227,-3.8228 0.6055,0 1.3052,0.5332 1.5555,1.1851 0.25,0.6519 1.029,1.1852 1.7306,1.1852 1.7657,0 0.9782,1.9228 -0.9022,2.2033 -0.8403,0.1246 -1.968,-0.2125 -2.506,-0.7508 z m -11.7431,-1.4356 c -1.9578,-1.647 -1.912,-3.112 -1.7223,-5.0609 0.2175,-2.2338 0.5204,-2.4854 3.2631,-2.7111 3.4884,-0.2871 6.8534,1.5332 6.8534,3.7073 -1.5903,4.9997 -4.9698,6.9189 -8.3942,4.0647 z m 4.1263,-2.4736 c 0.1163,-2.1928 -2.5728,-2.818 -3.3701,-2.0208 -0.2523,0.2523 -0.2481,1.0074 0,1.6779 0.9765,1.0949 3.2849,1.9474 3.3701,0.3429 z m 39.2315,2.7236 c -0.5431,-0.2193 -0.9877,-1.0801 -0.9877,-1.913 0,-1.204 0.567,-1.5144 2.7656,-1.5144 1.9019,0 2.7655,0.3613 2.7655,1.1573 0,0.9549 -2.4188,2.9529 -3.3062,2.731 -0.1378,-0.034 -0.6939,-0.2417 -1.2372,-0.4609 z m -58.4702,-1.5803 c -1.3625,-0.5498 -1.2421,-3.8131 0.1851,-4.9968 0.9698,-0.8048 1.302,-0.6313 1.9242,1.0057 0.4138,1.0881 1.1938,2.1254 1.7334,2.3053 0.5395,0.1793 0.7193,0.7505 0.3994,1.2681 -0.5911,0.9563 -2.4522,1.1397 -4.2413,0.4177 z m 29.1802,-2.3543 c -0.884,-1.5796 -0.2951,-4.2358 0.9371,-4.2274 1.0761,0 3.0018,3.8835 2.4072,4.8457 -0.6904,1.117 -2.5674,0.7699 -3.3443,-0.6183 z m 8.024,-1.5213 c -0.2613,-0.6809 -0.073,-1.6397 0.417,-2.1303 0.6627,-0.6628 1.1794,-0.4989 2.0102,0.6369 0.6149,0.841 0.9508,1.7997 0.7466,2.1306 -0.6514,1.0535 -2.6813,0.6461 -3.1738,-0.6372 z m 11.0621,-1.5803 c -0.2614,-0.681 -0.07,-1.6436 0.4254,-2.139 1.1121,-1.112 3.7467,1.1603 2.9115,2.5112 -0.7886,1.2763 -2.79,1.0529 -3.3369,-0.3722 z m -42.7136,-1.3296 c -2.2091,-2.8549 -1.371,-6.9137 1.4276,-6.9137 1.3545,0 1.6069,0.3476 1.2485,1.7185 -0.2838,1.0857 0.021,2.0618 0.8264,2.6511 1.6176,1.1828 0.7996,3.5319 -1.23,3.5319 -0.8295,0 -1.8521,-0.4445 -2.2725,-0.9878 z m 11.3692,-1.9096 c -0.8584,-0.8585 -0.6004,-3.824 0.4215,-4.846 1.7948,-1.7948 2.787,-1.0071 2.787,2.2123 0,2.4457 -0.3033,3.1607 -1.3408,3.1607 -0.7374,0 -1.5777,-0.2372 -1.8677,-0.527 z m 18.0834,-0.986 c -0.2545,-0.4116 -0.1266,-0.9564 0.2858,-1.211 0.4116,-0.2543 0.9566,-0.1265 1.2109,0.2859 0.2545,0.4117 0.1266,0.9565 -0.2858,1.2111 -0.4116,0.2544 -0.9565,0.1265 -1.2109,-0.286 z m 23.6624,-2.4379 c -0.2686,-0.4345 -0.3187,-0.7901 -0.1115,-0.7901 0.2072,0 0.9395,-0.2158 1.6269,-0.4797 0.8201,-0.3145 1.2498,-0.043 1.2498,0.7902 0,1.394 -1.9873,1.7387 -2.7655,0.4796 z m -33.9899,-0.7467 c -0.877,-0.3556 -2.0688,-1.5334 -2.6489,-2.6167 -1.5645,-2.9234 -0.049,-5.328 3.3583,-5.328 4.4317,0 6.8752,4.5636 3.9889,7.4498 -1.3664,1.3665 -2.3056,1.4654 -4.6983,0.4949 z m -23.1371,-1.7817 c -1.8488,-1.8487 -0.543,-5.3728 1.9904,-5.3728 0.717,0 0.8877,0.6158 0.5464,1.9752 -0.3858,1.5371 -0.1924,1.9754 0.8718,1.9754 1.1261,0 1.1939,0.2093 0.3839,1.1852 -1.1874,1.4308 -2.5157,1.5138 -3.7925,0.237 z m 36.6171,-0.5774 c -0.2499,-0.4045 -0.093,-0.9589 0.3485,-1.2319 0.9429,-0.5828 2.3834,0.1568 2.3834,1.224 0,0.9614 -2.1387,0.9676 -2.7319,0 z m -24.3689,-6.8752 c -0.9526,-0.9524 -0.6071,-3.2139 0.6501,-4.2574 1.4913,-1.2374 1.7693,-0.9761 2.0939,1.9691 0.2513,2.2796 -1.3868,3.6455 -2.744,2.2883 z m -9.7316,-3.0079 c -0.5617,-1.4636 0.9737,-3.6039 2.585,-3.6039 1.6199,0 0.8904,4.2766 -0.7848,4.6016 -0.7256,0.1415 -1.5355,-0.3083 -1.8002,-0.9977 z m 30.5113,-2.4187 c 0,-0.7245 0.3822,-1.1896 0.8493,-1.0337 0.4673,0.1548 0.8494,0.6209 0.8494,1.0337 0,0.4129 -0.3821,0.8779 -0.8494,1.0336 -0.4671,0.1569 -0.8493,-0.3094 -0.8493,-1.0336 z m -21.3339,-7.9014 c 0,-0.6518 0.5223,-1.1852 1.1604,-1.1852 0.707,0 0.9827,0.4633 0.7057,1.1852 -0.2502,0.6519 -0.7724,1.1852 -1.1605,1.1852 -0.3881,0 -0.7056,-0.5333 -0.7056,-1.1852 z m 13.8716,0.4662 c -0.2443,-0.3952 -0.2082,-1.334 0.082,-2.0862 0.4913,-1.2803 0.592,-1.2751 1.5829,0.079 0.582,0.7959 1.058,1.7347 1.058,2.0862 0,0.874 -2.1713,0.8104 -2.7213,-0.079 z m 12.3427,-5.2488 c 0.3572,-1.7162 1.7596,-1.8213 2.0803,-0.1567 0.1662,0.8649 -0.2209,1.3827 -1.0348,1.3827 -0.759,0 -1.1947,-0.5111 -1.0455,-1.2269 z" fill="#00B894" transform="translate(-18.8732,73.961114) translate(-3182.0634,-6755.2881)"/>
</svg>