<?xml version="1.0" ?><svg height="176.41252mm" viewBox="0 0 204.56371 176.41252" width="204.56371mm" xmlns="http://www.w3.org/2000/svg">
    <path d="m 11593.705,-446.00243 c -19.748,-55.18157 -45.295,-159.8278 -43.776,-190.77423 1.519,-30.94643 20.438,-58.53731 20.438,-58.53731 0,0 -45.848,-80.41099 -67.806,-141.06113 -21.957,-60.65004 -63.663,-158.58498 -63.663,-158.58498 0,0 -90.869,-72.82982 -120.283,-74.44542 -29.415,-1.6157 -51.51,8.4512 -49.439,40.0191 2.071,31.56787 24.582,58.66146 24.582,58.66146 0,0 35.766,-18.6424 62.005,4.34992 26.239,22.99232 41.153,44.74193 27.205,64.3786 -13.947,19.63668 -49.438,21.37669 -72.087,9.19693 -22.648,-12.17976 -30.519,-29.33079 -36.457,-42.13191 -5.939,-12.80112 -8.839,-24.98087 -8.839,-24.98087 0,0 -25.685,-41.88333 -26.514,-77.67683 -0.829,-35.7935 31.072,-66.6157 55.653,-68.8528 24.581,-2.2371 67.254,14.4169 106.059,42.5049 38.806,28.0878 116.002,67.11264 116.002,67.11264 0,0 48.196,-43.37474 119.04,-43.74754 70.844,-0.3728 143.346,35.1721 143.346,35.1721 0,0 115.035,-65 153.426,-80.9082 38.391,-15.9082 75.401,-10.3155 87.416,2.9828 12.014,13.2982 12.291,47.1032 2.623,58.6615 -9.666,11.5583 -20.576,27.83934 -20.576,27.83934 0,0 20.715,41.26201 -14.5,65.62142 -35.215,24.35941 -69.188,16.28113 -77.749,5.46847 -8.563,-10.81267 -4.833,-35.29635 14.223,-50.95602 19.058,-15.65968 56.897,-26.72081 56.897,-26.72081 0,0 28.586,-41.7591 13.12,-55.803 -15.468,-14.044 -50.544,-4.5985 -73.331,5.5927 -22.786,10.1912 -68.91,39.5219 -81.616,62.63863 -12.704,23.11659 -43.776,115.45889 -58.829,157.5907 -15.053,42.13191 -59.324,139.62512 -59.324,139.62512 0,0 20.38,14.73421 18.171,47.29638 -2.21,32.56216 -16.157,108.25031 -19.195,123.04008 -3.039,14.78967 -6.63,68.35561 -16.157,79.9139 -9.529,11.5583 -20.799,11.26807 -44.51,9.03945 -23.711,-2.22872 -36.968,-2.5767 -51.33,-1.08534 -14.363,1.49137 -14.225,-10.43975 -14.225,-10.43975 z" fill="#FFFFFF" transform="translate(108.26164,4.4881459) matrix(0.25301677,0,0,0.25301677,-2949.7945,278.34782)"/>
    <path d="m 11659.326,-425.59202 c -5.805,-3.1502 -16.55,-4.5824 -31.836,-4.2443 -34.773,0.7689 -42.416,-1.8354 -48.262,-16.4447 -6.105,-15.2548 -24.491,-88.3997 -33.863,-134.6968 -8.887,-43.9192 -7.574,-69.899 4.723,-93.3624 10.055,-19.1883 9.465,-23.2473 -7.044,-48.4282 -16.497,-25.1659 -53.517,-110.7647 -66.206,-153.0819 -6.036,-20.1367 -13.223,-42.6878 -15.971,-50.113 l -4.996,-13.5007 -11.119,8.4823 c -7.832,5.9738 -16.13,8.8973 -28.054,9.8863 -16.712,1.3859 -16.956,1.5559 -18.804,13.1127 -3.813,23.85 -31.974,37.8172 -64.135,31.8091 -17.846,-3.3338 -24.611,-6.8932 -43.833,-23.0598 -19.658,-16.5358 -28.271,-30.7772 -29.393,-48.6131 -0.497,-7.8882 -3.083,-16.7642 -5.747,-19.7243 -8.744,-9.7094 -20.671,-36.92418 -22.947,-52.36088 -9.99,-67.712 42.397,-113.9925 104.916,-92.6898 8.377,2.8544 35.495,18.7543 60.263,35.3335 57.492,38.4865 108.927,70.9064 112.492,70.9064 1.528,0 18.154,-7.9589 36.951,-17.6864 39.766,-20.5799 64.4,-26.7511 107.101,-26.8299 34.508,-0.062 60.649,5.6361 96.79,21.1023 13.728,5.8737 27.02,10.6793 29.542,10.6793 2.521,0 24.243,-10.9999 48.269,-24.4445 88.633,-49.5963 117.9,-60.3689 156.508,-57.6065 26.502,1.8961 39.787,8.7394 47.92,24.6835 11.461,22.4629 7.629,47.4941 -10.081,65.8567 -9.279,9.6208 -9.487,10.4164 -4.58,17.42288 2.98,4.2533 5.144,13.6933 5.144,22.4419 0,12.0732 -1.756,16.9834 -8.756,24.4939 -4.817,5.1664 -13.429,14.5081 -19.143,20.7593 -21.956,24.0264 -54.253,32.8671 -78.028,21.3585 -15.057,-7.2891 -21.423,-17.0085 -21.423,-32.7109 0,-8.6423 -0.828,-9.5265 -7.163,-7.6457 -3.94,1.1698 -18.796,2.9599 -33.016,3.9781 l -25.854,1.8512 -3.974,17.8832 c -6.091,27.3965 -20.045,60.3383 -51.413,121.3529 -15.752,30.6432 -32.149,64.48 -36.437,75.1932 l -7.796,19.4785 9.603,18.253 c 12.357,23.4916 12.722,48.6312 1.485,101.9743 -4.424,21.0124 -12.292,58.9779 -17.483,84.3677 -5.188,25.3901 -10.231,49.6054 -11.203,53.8119 -0.972,4.2063 -6.134,11.7278 -11.473,16.7144 -11.096,10.3669 -27.159,11.9305 -41.674,4.0568 z m -16.705,-14.9348 c 8.756,0.1314 21.129,1.2293 27.495,2.4387 6.676,1.2681 14.301,0.7409 18.011,-1.2443 17.037,-9.1177 36.695,-105.5386 37.073,-181.8227 0.167,-33.1042 -0.829,-41.8657 -5.912,-52.1037 l -6.108,-12.3073 -5.8,11.3054 c -5.499,10.718 -5.518,11.7975 -0.361,20.7843 4.783,8.3316 4.969,11.7641 1.54,28.3567 -2.144,10.3827 -3.044,23.1429 -2.003,28.3564 1.165,5.822 -0.215,14.3063 -3.555,21.9927 -3.274,7.5107 -5.796,22.6965 -6.307,37.9832 -1.642,49.119 -12.211,97.1026 -21.384,97.1026 -5.082,0 3.273,-63.2978 10.019,-75.8995 1.962,-3.6698 3.369,-16.5112 3.121,-28.5369 -0.246,-12.0255 1.263,-25.0644 3.357,-28.9753 2.504,-4.6812 3.094,-13.8343 1.726,-26.7889 -1.258,-11.9173 -0.69,-23.2964 1.442,-28.8535 1.939,-5.0465 2.634,-11.9763 1.548,-15.3994 -1.935,-6.0902 -2.075,-6.0819 -6.612,0.3964 -7.806,11.1444 -15.836,13.8242 -25.874,8.6344 -7.273,-3.7617 -9.587,-7.9998 -12.763,-23.3701 -5.563,-26.9416 -5.043,-84.259 0.898,-98.475 2.627,-6.2863 2.571,-17.86008 4.776,-24.9775 18.354,-59.23525 50.469,-112.04788 85.47,-148.85623 5.979,-6.2285 14.821,-15.72855 23.395,-23.37837 7.127,-6.35871 34.429,-23.8135 57.579,-43.3263 49.489,-41.71568 70.109,-55.60628 103.469,-69.69458 43.421,-18.3383 73.407,-13.2798 82.523,13.9212 4.587,13.6876 1.173,28.524 -9.075,39.4337 -4.888,5.2024 -5.633,7.3963 -2.465,7.2734 6.28,-0.2438 18.938,-16.99 24.045,-31.8127 11.953,-34.6921 -17.44,-56.889 -62.66,-47.3189 -21.442,4.5382 -47.76,16.3381 -81.014,36.3225 -115.537,69.43408 -142.287,81.28308 -197.39,87.43708 -50.575,5.6485 -94.087,-0.191 -166.752,-22.3772 -23.911,-7.3008 -66.205,-29.41678 -97.492,-50.97968 -80.303,-55.342 -89.613,-60.2384 -114.544,-60.2384 -16.308,0 -32.01,9.6917 -41.287,25.4804 -11.48,19.5455 -7.013,78.56748 7.71,101.85178 2.591,4.0974 3.632,3.9093 7.481,-1.3531 3.94,-5.3883 3.486,-8.2175 -3.82,-23.8622 -6.808,-14.57248 -8.298,-22.43538 -8.326,-43.93418 -0.02,-24.0567 0.649,-26.8666 8.347,-34.5734 5.721,-5.727 12.933,-8.9013 22.725,-10.0052 26.903,-3.0322 63.008,16.817 180.61,99.29308 18.386,12.8942 38.689,32.37424 44.379,35.73707 41.259,31.63509 78.218,96.42409 91.791,147.04823 1.49,5.7304 9.812,29.49844 13.613,40.00464 5.883,16.2473 10.2,19.82646 10.269,59.09046 0.07,47.4975 -2.748,64.9472 -10.656,65.6941 -2.495,0.2364 -8.119,0.5967 -12.495,0.8016 -7.667,0.3591 -7.961,1.1629 -7.961,21.8572 0,11.8161 1.409,23.6329 3.133,26.2594 3.557,5.4265 8.051,36.9347 9.309,65.2656 0.466,10.5061 3.035,24.1164 5.71,30.2451 6.833,15.6563 9.018,29.7432 5.456,35.1706 -4.628,7.0525 -12.464,-4.989 -12.464,-19.1523 0,-6.2798 -2.333,-14.7466 -5.182,-18.8149 -3.87,-5.5253 -4.704,-11.4161 -3.3,-23.2828 1.373,-11.5836 0.535,-17.9439 -3.097,-23.4837 -2.736,-4.1786 -4.976,-12.9928 -4.976,-19.5871 0,-6.5943 -2.075,-16.0019 -4.613,-20.9061 -3.233,-6.256 -4.451,-18.1888 -4.074,-39.9927 0.457,-26.535 -0.503,-33.1124 -6.573,-45.0077 l -7.106,-13.9312 -6.722,14.1057 c -9.658,20.2714 -8.168,48.3141 5.748,108.0247 6.323,27.1408 14.415,63.6739 17.977,81.1841 8.933,43.8924 7.34,41.0287 21.177,38.0708 6.536,-1.3971 19.048,-2.4322 27.801,-2.3004 z m -23.904,-218.0367 c -0.05,-24.914 -6.337,-72.3491 -9.756,-73.5294 -12.923,-4.461 -48.362,-48.0898 -67.808,-83.4799 -6.189,-11.2648 -16.831,-39.8222 -23.648,-63.4611 -13.666,-47.3895 -26.56,-71.4928 -42.909,-80.2172 -13.333,-7.1154 -17.294,-7.1459 -10.902,-0.081 8.202,9.0651 20.408,38.1522 31.072,74.0434 18.359,61.8085 61.258,159.1848 87.082,197.6729 17.96,26.771 31.291,44.1783 33.832,44.1783 1.686,0 3.051,-6.8052 3.037,-15.1225 z m 74.546,-16.7333 c 13.298,-17.5207 24.176,-34.7697 24.176,-38.331 0,-3.5614 2.83,-12.0231 6.29,-18.8041 3.457,-6.7808 9.739,-21.4085 13.959,-32.5059 4.216,-11.0976 18.746,-43.8043 32.287,-72.682 13.539,-28.8776 28.849,-66.1268 34.023,-82.7759 5.172,-16.6492 11.452,-34.976 13.954,-40.7263 2.5,-5.7502 4.549,-11.2117 4.549,-12.1367 0,-0.9251 -9.295,6.6317 -20.656,16.7924 -23.121,20.6814 -26.786,27.8858 -36.156,71.065 -14.487,66.7664 -35.267,102.928 -83.271,144.8966 -9.63,8.4197 -18.562,16.8698 -19.849,18.7778 -1.288,1.9081 -2.362,20.303 -2.388,40.8776 -0.02,30.051 0.831,37.4082 4.429,37.4082 2.464,0 15.358,-14.3349 28.653,-31.8557 z m -1.222,-97.8795 c 12.414,-15.3216 28.075,-39.3187 34.804,-53.3267 11.707,-24.3732 31.244,-89.35 27.877,-92.717 -0.886,-0.8863 -8.543,3.22061 -14.422,11.328 -26.615,36.7022 -60.331,86.90972 -72.144,135.2821 -1.694,6.93643 -1.789,16.1878 -3.135,20.1276 -4.852,14.1989 4.644,6.9248 27.02,-20.694 z m -79.768,11.143 c -0.191,-6.9234 -13.43,-35.18513 -16.786,-44.8669 -18.657,-53.8316 -48.217,-100.85707 -77.297,-128.6414 -0.623,0.6237 6.05,21.8307 14.833,47.1269 17.294,49.8143 32.638,79.3772 57.337,110.4628 15.287,19.2402 22.13,24.2118 21.913,15.9186 z m -246.642,-134.3012 c 27.569,-11.5193 11.244,-52.9967 -25.175,-63.9565 l -14.904,-4.4857 6.514,8.2801 c 12.906,16.4054 5.52,21.5539 -17.261,12.035 l -11.817,-4.9376 8.598,11.2724 c 8.343,10.9393 8.875,20.8886 1.117,20.8886 -2.084,0 -10.009,-6.7738 -17.609,-15.0532 -7.603,-8.2793 -13.821,-13.9689 -13.821,-12.6439 0,1.325 4.205,10.7421 9.348,20.9266 7.971,15.7922 11.602,19.5119 24.673,25.2748 18.001,7.9369 35.129,8.7533 50.337,2.3994 z m 598.751,-28.4753 c 20.602,-9.5935 38.422,-25.2243 40.368,-35.4129 0.838,-4.3749 0.286,-7.9544 -1.22,-7.9544 -1.509,0 -2.744,1.9269 -2.744,4.282 0,6.7452 -11.881,15.8287 -17.755,13.5747 -3.561,-1.3658 -4.778,-4.5275 -3.773,-9.7887 1.397,-7.2953 1.082,-7.4878 -5.119,-3.1439 -16.899,11.8368 -24.633,-1.9043 -10.898,-19.3651 6.604,-8.3973 6.652,-8.8168 0.795,-7.0059 -30.227,9.3452 -37.502,14.2932 -46.258,31.454 -8.131,15.936 -7.737,23.7015 1.681,33.1172 10.021,10.0236 23.76,10.0978 44.923,0.2428 z m -535.915,-21.8774 21.089,-7.1633 -9.324,-13.6435 c -5.129,-7.504 -9.382,-15.3836 -9.449,-17.5104 -0.191,-6.3548 -59.961,-49.24548 -88.541,-63.54948 -20.546,-10.2838 -30.272,-13.3313 -42.834,-13.4233 -14.133,-0.1026 -16.812,0.9191 -20.537,7.8405 -9.295,17.2717 3.076,76.81248 14.759,71.03818 8.386,-4.1444 39.219,-2.1671 52.428,3.3625 12.775,5.3476 21.91,12.4431 38.431,29.8478 11.645,12.2693 16.287,12.6071 43.978,3.201 z m 438.456,-8.5241 c 28.947,-5.2464 34.334,-7.238 41.387,-15.3017 7.963,-9.1053 24.389,-22.4916 41.058,-33.46388 4.642,-3.0551 12.918,-5.5623 18.393,-5.5716 8.856,-0.024 10.685,-1.7113 16.564,-15.3763 14.79,-34.3826 -6.115,-42.6464 -57.381,-22.6811 -31.076,12.1031 -49.72,25.674 -67.922,49.43798 -14.618,19.0847 -26.97,40.794 -26.97,47.3986 0,2.0993 -4.112,2.6229 34.871,-4.442 z m -174.293,-29.1408 c 32.87,-6.569 71.411,-21.27038 67.092,-25.59058 -1.428,-1.4274 -19.382,-6.2244 -39.895,-10.66 -40.785,-8.818 -85.145,-10.6071 -114.457,-4.6162 -13.121,2.6817 -61.466,21.8932 -69.191,27.49388 -2.927,2.1239 5.91,7.8732 22.426,14.5881 15.363,6.2454 21.853,6.8906 60.169,5.9811 25.662,-0.6091 55.39,-3.5057 73.856,-7.1963 z" fill="#00B894" transform="translate(108.26164,4.4881459) matrix(0.25301677,0,0,0.25301677,-2949.7945,278.34782)"/>
</svg>