<?xml version="1.0" ?><svg height="123.2971mm" viewBox="0 0 99.709862 123.2971" width="99.709862mm" xmlns="http://www.w3.org/2000/svg">
    <path d="m 184.9543,1294.7287 c -25.32683,-0.9987 -42.85326,-27.2579 -48.49958,-36.3928 -5.64632,-9.1349 -19.71316,-38.4489 -15.56817,-58.0993 4.14499,-19.6504 12.46759,-23.88 12.46759,-23.88 0,0 -2.18672,-1.4393 3.26377,-9.693 5.45049,-8.2538 12.33703,-15.597 8.25732,-22.1471 -4.0797,-6.5501 -10.80305,-7.928 -4.21025,-13.2151 6.59281,-5.2871 15.60081,-0.7369 17.91808,3.0815 2.31728,3.8185 2.44782,21.8533 2.44782,21.8533 l 15.27443,-2.5848 13.47936,-6.5794 c 0,0 -15.79665,-14.8627 -14.52377,-18.358 1.27288,-3.4954 14.16475,2.4379 14.16475,2.4379 0,0 0.71804,-6.3445 4.99357,-7.49 4.27553,-1.1456 3.62278,22.3233 3.62278,22.3233 l 3.72069,-0.7344 c 0,0 6.23381,-14.422 9.36701,-15.3032 3.13321,-0.8811 3.81095,4.4028 2.17568,11.6888 -1.63527,7.286 -4.68878,5.9936 -4.68878,5.9936 l 10.20418,3.648 15.7754,-10.3743 5.58104,5.6102 -10.00614,12.8941 c 0,0 -0.76427,5.9632 7.78679,7.3143 8.55106,1.3512 20.07215,-1.7036 20.95337,3.5247 0.88123,5.2284 -4.21023,11.0736 -9.95448,11.5142 -5.74424,0.4406 -16.35148,-0.9693 -16.35148,-0.9693 l 1.9909,19.8266 c 0,0 8.58373,1.2042 7.93096,7.49 -0.65276,6.2858 -4.83038,13.2177 -4.83038,13.2177 0,0 -0.84858,21.7065 -11.68428,38.0671 -10.83571,16.3606 -24.54351,34.043 -41.05818,35.3354 z" fill="#FFFFFF" transform="translate(53.044197,-42.002462) matrix(0.68586778,0,0,0.68586778,-133.13415,-726.14867)"/>
    <path d="m 174.58158,1298.0506 c -3.0623,-0.9574 -7.5776,-2.983 -10.0341,-4.5013 -5.7558,-3.5572 -21.98051,-20.3989 -27.58952,-28.6387 -5.30079,-7.7869 -15.25678,-28.9745 -18.07611,-38.4682 -4.64114,-15.6284 -1.38577,-35.7466 7.40418,-45.7578 2.12483,-2.4202 3.86332,-5.2821 3.86332,-6.3598 0,-1.0779 2.7,-6.0706 6,-11.0948 6.83622,-10.4084 7.41162,-14.6811 2.66667,-19.801 -3.86424,-4.1695 -4.08942,-6.1296 -1.31954,-11.486 2.51024,-4.8543 5.75239,-6.64 12.05539,-6.64 3.9272,0 5.94841,1.0372 10.08771,5.1765 4.3099,4.31 5.1764,6.081 5.1764,10.5799 0,2.9718 -0.6111,7.0109 -1.3582,8.9757 -1.1565,3.0419 -1.0413,3.4507 0.7758,2.7534 1.1736,-0.4503 4.0348,-0.8432 6.3582,-0.8729 2.633,-0.033 5.8533,-1.4489 8.5489,-3.7566 l 4.3247,-3.7024 -5.9914,-7.019 c -6.9193,-8.1062 -7.7761,-12.8553 -2.6695,-14.7968 3.8435,-1.4613 6.8568,-0.644 10.8523,2.9437 2.8265,2.538 2.8478,2.5304 4.2639,-1.532 1.0612,-3.044 2.2475,-4.0828 4.6627,-4.0828 5.3568,0 6.704,2.9935 5.7107,12.689 -0.4871,4.7544 -0.4189,8.6197 0.1515,8.5897 0.5704,-0.03 2.4326,-3.0301 4.1382,-6.6667 2.3525,-5.0157 3.8171,-6.612 6.0667,-6.612 6.112,0 7.8013,5.5042 4.2776,13.9375 -1.6987,4.0654 -1.6551,4.7294 0.4341,6.6201 2.1321,1.9295 2.7224,1.8016 7.2093,-1.5614 2.6879,-2.0146 5.8265,-5.0129 6.9747,-6.6629 2.6465,-3.8029 4.875,-3.7852 9.3622,0.075 4.8942,4.2098 4.6934,9.3 -0.5815,14.7422 l -4.1558,4.2878 4.2488,2.5098 c 2.936,1.7343 6.5169,2.4502 11.5901,2.3166 8.8568,-0.233 12.1394,2.0949 12.1394,8.609 0,8.075 -10.2296,14.6235 -20.4457,13.0886 l -5.5543,-0.8353 v 5.7696 c 0,5.1207 0.4452,5.9638 3.957,7.4942 2.1763,0.9484 4.4171,2.4484 4.9795,3.3333 2.6628,4.1896 0.1426,20.9423 -3.1505,20.9423 -0.6157,0 -1.1194,1.404 -1.1194,3.12 0,6.6608 -5.5668,24.3676 -11.4164,36.313 -9.7662,19.9436 -23.0605,32.6348 -37.8272,36.1111 -8.9269,2.1016 -9.8768,2.0943 -16.9908,-0.1307 z m 22.8602,-11.9862 c 3.1273,-1.8327 8.6955,-6.6251 12.3738,-10.6498 10.0504,-10.9969 24.3338,-40.5713 24.3338,-50.3844 0,-2.3484 -0.1536,-2.3547 -3.5262,-0.1449 -1.9394,1.2708 -6.88,2.9801 -10.9791,3.7986 -6.9242,1.3826 -7.5363,1.8122 -8.6273,6.0536 -0.6459,2.5111 -2.9053,10.081 -5.0209,16.8222 -4.0988,13.0606 -4.6489,17.09 -2.5132,18.41 2.1603,1.3352 1.5369,2.5625 -2.1773,4.2866 -3.4587,1.6055 -3.4831,1.5788 -2.7401,-3 0.8719,-5.3725 0.5119,-5.5433 -4.0758,-1.9346 -5.6517,4.4456 -5.0879,1.8162 1.2122,-5.6528 4.9775,-5.9011 10.4477,-16.4212 10.4477,-20.0924 0,-0.534 -3.338,1.748 -7.4178,5.071 -4.0798,3.323 -8.0614,5.644 -8.848,5.1579 -0.8872,-0.5483 -0.276,-1.7547 1.6095,-3.1769 1.6719,-1.2611 2.6433,-2.9344 2.1588,-3.7184 -0.5237,-0.8474 0.5609,-1.5976 2.674,-1.8496 5.839,-0.6966 15.4065,-14.9708 10.9154,-16.2854 -0.9672,-0.283 -5.2564,-1.2874 -9.5315,-2.2318 -4.2751,-0.9444 -12.0751,-4.2439 -17.3333,-7.332 l -9.5605,-5.6148 -0.4158,5.3073 c -0.3692,4.7104 0.1556,5.8121 4.6666,9.7977 4.6536,4.1115 4.0661,6.4483 -0.8407,3.3438 -1.315,-0.832 -2.4267,-0.5283 -3.5154,0.9605 -1.3388,1.8309 -1.8492,0.9391 -3.208,-5.6064 -0.8887,-4.2811 -1.268,-9.5232 -0.8428,-11.6492 0.6523,-3.2613 0.2426,-4.0672 -2.6222,-5.1563 -3.592,-1.366 -16.55501,-1.8029 -16.55501,-0.5582 0,1.7865 3.9757,8.165 6.5302,10.4768 2.70071,2.4441 3.94291,8.7902 1.72061,8.7902 -0.5955,0 -2.50441,-1.923 -4.24221,-4.2736 l -3.1596,-4.2734 -1.2411,3.7233 c -0.9274,2.7823 -0.6449,5.0456 1.1175,8.9539 2.5835,5.7293 1.7257,8.5224 -1.3634,4.4392 -1.8135,-2.3971 -1.9467,-2.229 -1.9863,2.5093 -0.025,3.0373 -0.5783,4.7475 -1.3757,4.2547 -1.6463,-1.0175 -1.7806,-14.8995 -0.1538,-15.905 3.2187,-1.9893 3.0408,-19.4284 -0.1982,-19.4284 -3.35744,0 -10.74383,7.5003 -13.85262,14.0662 -3.31378,6.9988 -3.33908,7.279 -1.23011,13.6285 6.02408,18.1368 31.28534,46.2661 46.76804,52.078 5.8199,2.1847 16.0923,0.8173 22.6258,-3.0116 z m -63.70429,-75.0103 c 10.26338,-10.2496 23.86399,-11.0737 43.07849,-2.6104 1.6644,0.7331 2.0163,-0.6547 2.0971,-8.268 0.1048,-9.8769 2.6581,-16.3909 10.116,-25.8077 4.7729,-6.0267 18.8575,-15.4362 24.7642,-16.5443 5.1605,-0.9681 4.6211,-2.3175 -2.3479,-5.8728 -6.1132,-3.1187 -16.7377,-3.4936 -23.0055,-0.8119 -9.9906,4.2747 -16.7551,17.075 -20.1416,38.1132 -1.0917,6.7824 -2.3709,12.7175 -2.8426,13.1892 -0.4717,0.4718 -1.7643,-0.3413 -2.8724,-1.8069 -3.3474,-4.4271 -1.6529,-22.0056 3.2451,-33.6631 l 4.0078,-9.5388 -3.5101,0.6983 c -7.6486,1.5216 -8.8703,1.3013 -8.2866,-1.4943 1.1,-5.2681 0.5801,-18.0631 -0.7896,-19.4328 -0.975,-0.975 -2.5789,-0.217 -5.30151,2.5056 -3.33,3.33 -3.8257,4.7196 -3.3738,9.458 0.7038,7.3802 -1.6679,12.6454 -7.9302,17.6052 -6.12331,4.8498 -6.80056,7.4467 -1.18466,4.5426 7.44736,-3.8515 22.68967,-4.2903 22.68967,-0.6534 0,0.7194 -2.0311,1.3079 -4.5136,1.3079 -14.44381,0 -29.49702,10.7897 -33.35612,23.9087 -2.28552,7.7696 -2.61439,13.6489 -1.23178,22.0213 l 0.86918,5.2633 2.11517,-3.2633 c 1.16334,-1.7948 4.63071,-5.7755 7.70526,-8.8459 z m 98.02879,6.5624 c 4.5556,-2.0197 6.5271,-3.7561 7.1691,-6.3139 1.5092,-6.013 -1.0352,-6.8848 -10.6882,-3.6617 -9.0735,3.0295 -13.6651,2.6665 -20.1681,-1.5944 -2.9525,-1.9345 -3.1289,-1.8425 -4.3833,2.2872 -3.0809,10.1435 -3.0685,11.41 0.1182,12.1055 6.6216,1.4452 21.7786,-0.085 27.9523,-2.8227 z m -29.0704,-24.8952 c 6.8349,-11.6628 17.0271,-16.0249 34.7868,-14.8883 13.2217,0.8463 18.6667,-0.681 18.6667,-5.2357 0,-2.7512 -0.2774,-2.7779 -11.4654,-1.1037 -3.7157,0.556 -6.5416,-0.2119 -12.521,-3.4028 -9.0038,-4.8047 -11.6467,-5.0094 -20.627,-1.5971 -13.6055,5.1697 -23.9562,17.1476 -27.4488,31.7639 -3.0437,12.7378 -2.8428,13.4158 5.0616,17.078 l 6.9993,3.2428 1.5421,-9.9734 c 0.9301,-6.0157 2.9165,-12.3186 5.0057,-15.8837 z m 24.1187,7.83 c 4.9674,-2.0755 4.988,-2.1167 4.3558,-8.696 -0.3494,-3.6359 -0.9614,-6.9369 -1.3602,-7.3356 -2.0569,-2.0569 -12.7324,2.8376 -18.2721,8.3773 l -5.9904,5.9904 3.3008,1.8274 c 4.4254,2.4498 11.8736,2.3821 17.9661,-0.1635 z m 5.7561,-48.0432 c 2.3349,-2.6373 4.2453,-5.3019 4.2453,-5.9213 0,-2.2341 -2.4009,-2.5436 -4.0759,-0.5253 -0.9413,1.1342 -4.4582,3.6719 -7.8154,5.6393 l -6.1039,3.5772 3.9976,0.8549 c 2.1987,0.4701 4.3372,0.9259 4.7523,1.0127 0.4151,0.087 2.6651,-2.0002 5,-4.6375 z m -23.2653,-10.8717 c 0.4402,-1.2834 1.3909,-3.6834 2.1126,-5.3334 0.7216,-1.65 1.0226,-3 0.6688,-3 -0.8153,0 -5.9258,8.3273 -5.9324,9.6667 -0.01,1.9627 2.3651,0.9578 3.151,-1.3333 z m -14.1474,-0.1044 c 1.1785,-0.7482 1.415,-2.9634 0.7974,-7.4694 -0.8426,-6.1476 -0.9486,-6.2785 -2.6281,-3.2493 -0.9626,1.736 -1.7714,4.5645 -1.7973,6.2854 -0.042,2.8121 -0.6649,2.4744 -6.1447,-3.3333 -6.1877,-6.5581 -6.6211,-5.835 -0.9971,1.6635 1.702,2.2693 3.0945,4.8193 3.0945,5.6667 0,1.7498 5.1457,2.0424 7.6753,0.4364 z m -47.44691,-6.4356 c 3.0936,-2.7997 3.1079,-4.46 0.038,-4.46 -2.8077,0 -5.6,2.4599 -5.6,4.9333 0,2.3943 2.6413,2.1695 5.5616,-0.4733 z" fill="#00B894" transform="translate(53.044197,-42.002462) matrix(0.68586778,0,0,0.68586778,-133.13415,-726.14867)"/>
</svg>