<?xml version="1.0" ?><svg height="290.62836mm" viewBox="0 0 111.75578 290.62836" width="111.75578mm" xmlns="http://www.w3.org/2000/svg">
    <path d="m 11323.75,4738.1621 c -2.981,-0.036 -6.038,0.1468 -9.168,0.5723 -50.087,6.8085 -79.434,17.4919 -83.478,87.8066 3.392,42.0245 42.391,93.0881 91.304,95.3184 48.913,2.2304 76.695,-69.0241 75.129,-102.0098 -1.467,-30.9242 -29.072,-81.1411 -73.787,-81.6875 z m 5.383,220.5215 c -4.65,0.01 -9.455,0.1446 -14.42,0.3867 -98.172,12.5542 -90.569,57.0565 -88.352,136.5274 2.217,79.4709 -5.347,146.3813 -2.086,224.3261 3.261,77.9448 17.038,92.5948 92.217,92.7364 75.18,0.1416 94.176,-54.8199 104.219,-110.3438 10.043,-55.524 20.262,-217.2893 1.088,-277.0391 -17.377,-54.1483 -47.715,-66.648 -92.666,-66.5937 z" fill="#FFFFFF" transform="translate(128.4493,69.718947) matrix(0.26458333,0,0,0.26458333,-2191.6338,-674.25468) translate(-3313.5291,-2437.8203)"/>
    <path d="m 8100.619,3371.6291 c -19.2175,-6.1267 -37.8769,-13.8864 -41.1109,-16.1023 -5.8195,-3.9873 -5.8926,-4.7506 -7.0597,-73.6678 -1.232,-72.7429 5.3303,-124.6821 13.7025,-207.8048 2.7204,-27.0117 5.6873,-63.4212 6.7394,-80.9016 l 1.793,-31.7896 -12.6514,7.8323 c -18.4423,11.4173 -61.6123,18.9931 -87.2723,17.6488 -11.3734,-0.5957 -22.5755,-1.9347 -24.8935,-2.9756 -3.8639,-1.7347 1.8742,5.711 2.858,89.3812 1.0562,89.839 6.6803,201.5508 11.3869,230.2859 5.7799,35.2834 0.5944,50.4655 -20.2759,59.3669 -19.1309,8.1597 -39.0499,13.3927 -57.508,15.1081 -13.9542,1.297 -17.7737,0.7962 -21.3716,-2.8015 -10.1954,-10.1956 3.399,-18.0845 49.8908,-28.9522 l 32.3103,-7.5527 0.8264,-8.5348 c 0.4545,-4.6942 -1.546,-22.1028 -4.4456,-38.6861 -6.5152,-37.2605 -5.8189,-65.6829 -9.8613,-150.2432 -3.6814,-77.009 -4.5523,-106.9445 -5.892,-166.5426 l -11.0907,-19.8159 c -7.0833,-12.6559 -11.6466,-25.9731 -14.3524,-50.7804 -0.8918,-8.1746 -1.9685,-14.8629 -2.3923,-14.8629 -0.4241,0 -7.0286,6.2572 -14.6769,13.9047 -14.333,14.332 -28.4619,22.9161 -42.8169,26.0132 -6.4459,1.391 -9.4031,0.6053 -13.6295,-3.6209 -6.854,-6.8543 -4.0237,-17.6077 8.2455,-18.7997 l 7.9542,-2.7728 -8.7668,-4.1395 c -11.761,-5.5533 -12.8927,-12.4745 -2.6249,-16.0538 7.0853,-2.47 7.4966,-3.1652 3.9639,-6.6982 -6.962,-6.9618 -2.628,-9.7625 17.1708,-11.0965 18.1504,-1.2229 19.2209,-1.64 19.8897,-7.7545 0.3891,-3.5541 1.9739,-11.3326 3.5217,-17.2855 2.7327,-10.5084 2.5164,-11.1855 -7.4358,-23.2636 -13.903,-16.8726 -37.5233,-38.5245 -59.7705,-76.2163 -25.0861,-44.5773 -10.2079,-67.1286 11.5047,-93.4425 8.9516,-10.8974 19.5962,-24.3045 23.6545,-29.7938 10.7057,-14.4799 71.7785,-78.5607 87.878,-87.8217 31.9768,-18.3941 74.6329,-25.927 112.569,-22.732 18.4334,1.9128 31.3676,5.1004 56.2155,29.0804 9.6501,9.313 25.688,23.937 35.6396,32.4978 36.5241,31.4191 66.2114,70.0711 75.8004,90.8852 20.2921,39.8653 -14.9518,74.9669 -43.7843,114.5762 -13.0238,16.7897 -28.8877,34.9931 -34.0988,41.4635 l -10.4187,10.9366 7.8033,7.8034 c 9.4295,9.4296 11.0329,9.5229 24.2071,1.4088 5.6865,-3.5026 12.3751,-6.4047 14.8631,-6.4489 6.834,-0.1221 5.5903,9.5167 -2.154,16.6937 l -6.6775,6.1883 12.4935,0.7966 c 11.356,0.7241 12.565,1.4206 13.287,7.655 0.877,7.577 -7.036,15.0104 -16.232,15.2483 -5.035,0.1299 -5.013,0.2949 0.575,4.1925 11.755,8.2 5.628,18.4129 -12.5064,20.8449 l -10.7705,1.4444 11.1471,5.4315 c 13.4569,6.557 17.8218,12.5693 13.7948,19.0016 -7.024,11.2177 -31.9548,4.0081 -54.3696,-15.7215 l -11.27,-9.9199 v 8.7605 c 0,5.2934 -3.0689,13.5996 -7.7546,20.9881 l -7.7545,12.2275 -0.052,47.0836 c -0.029,25.8958 -1.1733,54.6441 -2.5441,63.8849 -8.0577,54.3277 -14.9954,99.9756 -15.5005,190.3838 l -0.53,94.8676 24.7609,8.8551 c 13.6185,4.8703 31.0438,11.0333 38.7225,13.6954 14.8034,5.1322 20.205,10.4919 17.5489,17.4132 -4.9989,5.206 -23.2968,5.8796 -56.4016,-8.2539 z m -14.971,-451.6657 c 1.9606,-3.7153 4.7132,-15.3471 6.1164,-25.8482 1.4036,-10.5014 8.1122,-36.8422 10.9531,-58.1671 9.3798,-70.4055 13.3227,-153.1307 8.3691,-208.0229 -3.1532,-34.9405 -22.1327,-66.972 -36.4626,-81.0191 -17.4062,-17.0621 -24.5909,-19.2031 -58.032,-17.2932 -29.1694,1.6661 -61.7424,7.1854 -70.7011,11.9798 -6.3143,3.3792 -16.9159,25.534 -22.2712,46.5414 -5.9566,23.3643 10.9321,78.231 3.6302,186.4878 -8.2783,122.7336 -4.3864,153.8009 7.1112,170.2158 2.1777,3.1092 8.088,12.056 8.088,14.3589 47.8869,19.6526 115.8892,7.999 143.1989,-39.2332 z m -176.8839,-175.8979 c -3.0115,-61.5082 -10.9051,-90.6092 -8.6246,-122.2294 l 2.0945,-27.0415 -5.8706,7.6553 c -3.2288,4.2104 -12.4925,14.6343 -20.5863,23.1642 -26.0834,27.4905 -46.6681,48.6763 -49.3283,55.0804 -5.8569,14.0998 -2.9711,27.9891 3.477,35.458 18.4394,28.5337 27.921,40.2615 59.5966,76.6603 2.6199,4.543 5.4224,7.8536 6.2277,7.3567 0.8055,-0.4969 14.1865,-32.1546 13.014,-56.104 z m 246.6322,3.4565 c 28.2583,-39.7311 41.1973,-55.212 41.1973,-64.6613 0,-15.8977 -15.453,-30.1686 -52.4462,-67.5859 -13.7701,-13.928 -17.5008,-16.606 -16.2038,-11.6317 4.2223,16.1951 8.4716,95.2677 4.4249,140.5895 -4.8568,54.3973 -4.8733,40.8468 -1.8915,37.6058 1.2425,-1.3504 12.4563,-16.7929 24.9193,-34.3164 z M 7986.63,2488.8545 c -27.9785,-6.5941 -54.8808,-23.4125 -69.7882,-53.1946 -10.0043,-25.5752 -12.509,-53.2701 -4.9125,-81.9113 4.6603,-16.3424 24.6607,-41.1958 40.8593,-50.7732 31.4735,-18.3063 60.752,-24.3854 90.4082,-10.5382 20.3961,9.649 32.839,22.7275 44.1381,46.3933 9.3408,19.564 9.8061,21.7714 9.7784,46.3898 -0.033,30.2776 -4.1049,43.4225 -20.8542,67.3376 -26.8533,38.342 -53.3514,44.8465 -89.6291,36.2966 z m 78.7869,-57.7515 c 25.1733,-43.5423 0.657,-107.9721 -42.9869,-119.8661 -41.6534,-7.3675 -76.3737,-1.327 -89.4517,40.5223 -4.555,15.5309 -2.3705,59.4796 3.5539,71.5006 24.8394,58.1285 102.9654,61.5304 128.8847,7.8432 z" fill="#00B894" transform="translate(128.4493,69.718947) matrix(0.26458333,0,0,0.26458333,-2191.6338,-674.25468)"/>
</svg>