<?xml version="1.0" ?><svg height="66.545456mm" viewBox="0 0 85.344521 66.545456" width="85.344521mm" xmlns="http://www.w3.org/2000/svg">
    <path d="m 4988.2274,6154.1672 c 0,0 -24.0335,6.2744 -23.508,-6.8733 0.5255,-13.1479 26.6261,-19.6114 26.6261,-19.6114 0,0 15.0995,-11.3507 17.0616,-15.2289 1.9619,-3.878 0.8758,-8.45 0.8758,-8.45 0,0 6.2011,1.4504 7.8126,4.4772 1.6116,3.0269 0.6657,18.2558 0.6657,18.2558 0,0 26.5208,4.6032 26.4509,17.9718 -0.07,13.3686 -10.0197,20.1475 -28.3077,21.6924 -18.288,1.5449 -27.677,-12.2336 -27.677,-12.2336 z" fill="#FFFFFF" paint-order="markers stroke fill" transform="translate(244.0282,-136.62134) translate(-5206.6883,-5965.8209)"/>
    <path d="m 5001.3404,6167.3452 c -4.3522,-1.5171 -8.0095,-3.7704 -11.8684,-7.3116 -2.2871,-2.0996 -2.6615,-2.1638 -6.6784,-1.1524 -10.1191,2.5482 -20.1335,-3.0967 -20.1335,-11.3483 0,-3.9966 2.584,-10.6443 5.016,-13.1448 3.5576,-3.6578 12.2631,-6.2973 18.6095,-7.5858 2.625,-0.5324 4.1444,-1.69 6.7593,-5.1509 2.1872,-2.8956 4.9944,-5.2662 7.9879,-6.7464 5.0537,-2.4996 6.6041,-4.7516 6.6041,-9.5931 0,-3.1059 0.068,-3.1638 2.9232,-2.5865 7.1608,1.4457 11.805,8.3679 11.2525,16.7719 l -0.334,5.076 5.1799,0.5857 c 3.9704,0.4493 6.4652,1.4442 10.6818,4.2603 12.0674,8.058 14.0549,19.3016 5.1374,29.0571 -3.1978,3.4986 -5.1739,4.6591 -12.3528,7.253 -9.3048,2.98 -19.4315,4.7285 -28.7845,1.6158 z m 25.7061,-6.1438 c 5.9963,-1.829 7.9534,-2.9017 10.5657,-5.7933 3.6687,-4.0614 4.9195,-8.759 3.3449,-12.5605 -2.2938,-5.5383 -9.7993,-10.3094 -17.8533,-11.3505 -5.1611,-0.9901 -4.6146,0.6252 -5.205,4.0343 -0.4483,2.5892 1.0708,4.9777 3.6176,5.0109 3.2693,0.041 3.9859,1.7364 1.3345,3.1559 -2.6278,1.406 -8.5053,-0.2902 -9.8755,-2.851 -1.2947,-2.418 -0.3535,-9.7981 2.0232,-15.8706 2.5657,-6.5548 1.9896,-13.7559 -1.3688,-17.115 -2.4698,-1.4875 -2.395,-2.1838 -2.395,1.4654 0,3.1756 -0.4865,4.2881 -2.7445,6.2762 -10.0523,8.85 -14.6359,14.0493 -17.0187,19.3056 -4.1936,9.2501 -3.9817,13.3628 0.9763,18.9955 8.1801,9.2934 19.9304,11.7713 34.5986,7.2971 z m -44.5842,-10.7986 c -1.1171,-4.5969 -0.3716,-10.1446 1.9707,-14.6586 1.3358,-2.5751 2.2176,-4.6816 1.9592,-4.6816 -1.576,0 -13.0361,4.5013 -15.0311,7.0246 -6.5443,8.2771 -1.3954,14.7219 6.1089,14.3774 4.9155,-0.2371 5.3884,-0.4332 4.9923,-2.0618 z" fill="#00B894" transform="translate(244.0282,-136.62134) translate(-5206.6883,-5965.8209)"/>
</svg>