<?xml version="1.0" ?><svg height="36.273994mm" viewBox="0 0 61.095222 36.273994" width="61.095222mm" xmlns="http://www.w3.org/2000/svg">
    <path d="m 3229.3636,6859.2461 c 2.1373,-3.0033 6.4871,-4.1002 14.0431,0.1688 7.5557,4.2691 12.768,8.673 21.4301,7.7449 8.662,-0.9279 16.1052,-2.2609 18.8802,3.6785 2.7749,5.9394 2.2312,12.8574 -5.4184,15.5067 -7.6496,2.649 -28.3861,-0.016 -37.6857,-6.7662 -9.2993,-6.7495 -12.1867,-16.5193 -11.2493,-20.3327 z" fill="#FFFFFF" paint-order="markers stroke fill" transform="translate(-136.82947,-131.62152) translate(-3089.5721,-6722.0707)"/>
    <path d="m 3256.5309,6888.8917 c -6.6884,-1.7532 -11.0565,-3.6991 -17.2647,-7.6908 -5.7687,-3.7095 -9.4276,-7.6112 -11.5744,-12.3434 -3.3043,-7.2843 -0.035,-14.1198 7.2176,-15.0927 3.2477,-0.4356 6.4496,1.0298 13.1585,6.0215 4.0676,3.0264 5.4727,3.6722 9.6597,4.4397 2.7665,0.507 8.4342,0.8387 13.017,0.7613 7.0787,-0.1188 8.5046,0.044 11.1462,1.2873 4.2842,2.0137 6.004,4.9979 5.5295,9.5952 -0.6536,6.333 -4.0943,10.6696 -10.328,13.0175 -6.8139,1.3698 -14.5288,1.5057 -20.5614,0 z m 21.2723,-5.1971 c 2.5409,-1.1312 3.4465,-1.9952 4.4822,-4.2776 1.5936,-3.5108 1.6628,-5.7485 0.2411,-7.7786 -1.9696,-2.8117 -5.0158,-3.5554 -12.4146,-3.0308 -7.2478,0.5139 -7.5352,1.4585 -0.6229,2.0469 5.5366,0.4716 6.7956,0.8198 6.7956,1.8804 0,2.7691 -5.7234,3.8184 -11.3253,2.076 -6.8054,-2.1167 -8.0549,-2.8467 -21.5549,-12.5953 -4.0292,-2.9097 -5.7795,-3.779 -7.6087,-3.779 -4.7083,0 -6.0744,3.6341 -3.4242,9.1091 5.6428,11.6564 33.4741,21.6717 45.4317,16.3489 z" fill="#00B894" transform="translate(-136.82947,-131.62152) translate(-3089.5721,-6722.0707)"/>
</svg>