<?xml version="1.0" ?><svg height="126.09787mm" viewBox="0 0 116.89987 126.09787" width="116.89987mm" xmlns="http://www.w3.org/2000/svg">
    <path d="m 4891.6593,485.19588 c 1.9481,-8.45391 4.5633,-15.29868 13.3699,-17.05192 8.8064,-1.7532 25.8855,-4.58718 32.9308,-12.15247 7.0451,-7.56528 9.5536,-10.01498 4.4567,-19.3335 -5.0972,-9.31849 -6.1378,-18.51692 -5.0438,-23.29624 1.0941,-4.77933 9.874,-8.23775 10.3275,-4.20294 0.4538,4.03482 -0.6403,11.7442 5.5777,15.56285 6.2177,3.81868 23.6974,1.58512 28.3943,8.54998 4.6966,6.96487 16.7857,24.64118 4.83,47.50515 -11.9555,22.86396 -41.337,35.92909 -63.7003,31.94229 -22.3631,-3.98679 -29.1148,-13.11314 -29.1148,-13.11314 0,0 -4.59,5.40377 -4.0563,13.37733 0.5339,7.97356 0.7739,9.99096 2.3752,13.32929 1.6012,3.33835 -9.746,10.30726 -10.831,1.73124 -1.0848,-8.57602 -0.1371,-22.69786 3.4388,-28.79812 3.5761,-6.10026 6.6984,-8.93424 6.6984,-8.93424 z" fill="#FFFFFF" transform="translate(-46.596407,-85.45107) translate(-4831.2296,-320.60923)"/>
    <path d="m 4879.576,528.04381 c -2.1307,-4.07136 -2.3821,-20.53265 -0.3875,-25.37435 2.146,-5.2094 5.5932,-10.03169 8.1489,-11.39958 2.149,-1.15003 2.341,-1.80219 2.3469,-7.96938 0,-4.81968 0.4792,-7.43399 1.6805,-9.25582 4.067,-6.16635 12.0457,-9.97235 23.6767,-11.2939 9.73,-1.10559 17.1456,-4.1547 22.294,-9.1669 4.975,-4.84307 5.3665,-8.09175 1.8217,-15.11359 -5.0166,-9.93815 -5.8362,-21.68737 -2.0115,-28.83414 1.8795,-3.51183 3.0986,-2.05769 2.5014,2.98396 -0.8139,6.87345 0.7094,13.5007 5.1517,22.4107 3.3312,6.68148 3.7848,8.30844 3.2315,11.58452 -1.8137,10.73553 -15.6765,19.95925 -32.9603,21.93049 -8.9061,1.0157 -14.6135,3.38186 -18.072,7.49194 -2.3898,2.8401 -2.5772,3.68928 -2.5772,11.6749 0,7.69691 0.25,8.93837 2.3433,11.68406 3.1619,4.14536 13.9518,8.54302 26.0101,10.60063 13.2185,2.25565 21.9149,0.97459 33.765,-4.97413 12.058,-6.05314 19.4325,-12.23756 24.2389,-20.32775 10.225,-17.21141 10.4716,-30.84601 0.8408,-46.49794 -3.5797,-5.81774 -5.4202,-6.66826 -14.4565,-6.68057 -5.1599,-0.008 -7.9676,-0.55036 -11.5584,-2.23696 -5.464,-2.5664 -7.4108,-4.49839 -9.4495,-9.37808 -1.8446,-4.41444 -1.8481,-7.63795 0,-11.18864 2.1105,-4.08164 3.2955,-3.43303 3.2955,1.80397 0,9.04587 6.7902,14.2283 18.7724,14.32742 6.4748,0.0532 11.1035,2.44402 16.6259,8.58634 8.9655,9.97178 11.6549,20.76072 8.7692,35.1791 -1.9586,9.78741 -7.8292,22.32127 -13.1669,28.11204 -7.6063,8.25176 -21.9886,16.94383 -32.6161,19.71195 -16.0453,4.17924 -40.7365,-1.24514 -50.6098,-11.11862 -1.4555,-1.4553 -2.8507,-2.64602 -3.1005,-2.64602 -0.2501,0 -0.9231,1.34431 -1.4959,2.98721 -1.5211,4.36316 -1.2729,13.15276 0.529,18.73167 1.8695,5.78856 1.0231,7.26067 -2.0928,3.64039 -5.1414,-5.97318 -5.6937,-19.63381 -1.0406,-25.73421 1.7991,-2.3589 2.4361,-4.05972 2.0161,-5.38326 -0.9204,-2.90023 -2.5114,-1.79964 -5.6703,3.92283 -2.776,5.02884 -2.8437,5.46396 -2.762,17.72398 0.064,9.78477 -0.1909,12.56868 -1.1613,12.56868 -0.6849,0 -1.9712,-1.3873 -2.8586,-3.08294 z m 72.0584,-43.44539 c -6.9841,-2.133 -11.0937,-9.71147 -8.8889,-16.3921 1.6464,-4.98913 4.5469,-5.79071 15.6821,-4.3339 7.858,1.02814 9.4321,1.53553 11.0185,3.55233 6.0917,7.7445 0.8863,16.44246 -10.5633,17.65033 -2.325,0.24523 -5.5869,0.0307 -7.2484,-0.47666 z m 1.8204,-7.56827 c -2.9699,-2.70139 -5.9136,-3.70514 -5.9136,-2.01642 0,0.99529 2.834,3.51517 4.7429,4.21702 3.6133,1.32866 4.082,0.4477 1.1707,-2.2006 z m 10.9997,0.41312 c 1.7601,-1.23269 2.4149,-1.15673 2.4904,-4.3791 0.1364,-5.81397 -4.5406,-5.32027 -9.3562,-5.72119 -5.7859,-0.48169 -8.851,-0.37029 -9.723,0.35337 -1.9131,1.5877 -1.5407,2.48439 1.0315,2.48439 3.083,0 8.417,3.3949 10.0093,6.37046 1.4972,2.79708 2.5797,2.97116 5.548,0.89207 z m 8.2613,-15.50198 c -1.8556,-3.00259 6.1239,-6.16307 8.8009,-3.48581 1.9887,1.98862 0.7379,3.16212 -4.2134,3.95308 -2.5531,0.40793 -4.1468,0.2455 -4.5875,-0.46727 z m -14.108,-5.43592 c -1.1514,-1.15137 -0.6556,-4.8471 0.7211,-5.37541 2.1614,-0.82942 3.7193,1.72179 2.4733,4.05009 -1.0777,2.01365 -2.0871,2.43255 -3.1944,1.32532 z m 8.3659,-3.20342 c -0.7798,-2.45707 0.7117,-4.23366 2.8618,-3.40869 1.997,0.76644 1.5081,4.7466 -0.6333,5.15455 -0.9473,0.18043 -1.8389,-0.51801 -2.2285,-1.74586 z" fill="#00B894" transform="translate(-46.596407,-85.45107) translate(-4831.2296,-320.60923)"/>
</svg>