<?xml version="1.0" ?><svg height="126.3924mm" viewBox="0 0 116.89999 126.3924" width="116.89999mm" xmlns="http://www.w3.org/2000/svg">
    <path d="m 5288.3876,474.14681 c 1.9481,-8.45391 4.5633,-15.29868 13.3699,-17.05192 8.8064,-1.7532 25.8855,-4.58718 32.9308,-12.15247 7.0451,-7.56528 9.5536,-10.01498 4.4567,-19.3335 -5.0972,-9.31849 -6.1378,-18.51692 -5.0438,-23.29624 1.0941,-4.77933 9.874,-8.23775 10.3275,-4.20294 0.4538,4.03482 -0.6403,11.7442 5.5777,15.56285 6.2177,3.81868 23.6974,1.58512 28.3943,8.54998 4.6966,6.96487 16.7857,24.64118 4.83,47.50515 -11.9555,22.86396 -41.337,35.92909 -63.7003,31.94229 -22.3631,-3.98679 -29.1148,-13.11314 -29.1148,-13.11314 0,0 -4.59,5.40377 -4.0563,13.37733 0.5339,7.97356 0.7739,9.99096 2.3752,13.32929 1.6012,3.33835 -9.746,10.30726 -10.831,1.73124 -1.0848,-8.57602 -0.1371,-22.69786 3.4388,-28.79812 3.5761,-6.10026 6.6984,-8.93424 6.6984,-8.93424 z" fill="#FFFFFF" transform="translate(-55.16751,77.94653) translate(-5219.3179,-472.66323)"/>
    <path d="m 5276.2354,516.70029 c -2.1306,-4.07139 -2.3821,-20.53265 -0.3877,-25.37438 2.146,-5.2094 5.5934,-10.03169 8.1492,-11.39958 2.1489,-1.15 2.3409,-1.80224 2.3468,-7.96945 0,-4.81966 0.4792,-7.43397 1.6806,-9.2558 4.0666,-6.16635 12.0456,-9.97237 23.6766,-11.29393 9.73,-1.10556 17.1454,-4.15469 22.294,-9.16687 4.975,-4.84307 5.3665,-8.09175 1.8218,-15.11359 -5.0167,-9.93815 -5.8365,-21.68739 -2.0116,-28.83414 1.8795,-3.51186 3.0987,-2.05769 2.5015,2.98396 -0.814,6.87342 0.7093,13.5007 5.1516,22.41067 3.331,6.68149 3.7849,8.30847 3.2315,11.58455 -1.8139,10.73551 -15.6764,19.95925 -32.9603,21.93046 -8.9061,1.01573 -14.6135,3.38189 -18.0719,7.49197 -2.3899,2.8401 -2.5773,3.68928 -2.5773,11.67487 0,7.69699 0.25,8.93845 2.3433,11.68414 3.1619,4.14539 13.9518,8.54303 26.0098,10.60064 13.2188,2.25567 21.9149,0.97458 33.7651,-4.97413 12.0582,-6.05315 19.4325,-12.23754 24.2389,-20.32781 10.2252,-17.21141 10.4718,-30.84601 0.841,-46.49794 -3.5797,-5.81774 -5.4202,-6.66826 -14.4567,-6.68057 -5.1597,-0.008 -7.9674,-0.55036 -11.5584,-2.23696 -5.4638,-2.56643 -7.4106,-4.49839 -9.4495,-9.37811 -1.8443,-4.41444 -1.8478,-7.63792 0,-11.18861 2.1107,-4.08164 3.2957,-3.43303 3.2957,1.80397 0,9.04587 6.7902,14.2283 18.7722,14.32739 6.475,0.0532 11.1037,2.44405 16.6261,8.58634 8.9655,9.97181 11.6549,20.76075 8.7695,35.17913 -1.9591,9.78738 -7.8297,22.32135 -13.1674,28.11212 -7.6061,8.25176 -21.9883,16.94383 -32.6159,19.71192 -16.0453,4.17924 -40.7365,-1.24514 -50.61,-11.11862 -1.4552,-1.4553 -2.8505,-2.64602 -3.1003,-2.64602 -0.2501,0 -0.9231,1.34434 -1.4958,2.98724 -1.5211,4.36314 -1.2729,13.15276 0.5289,18.73164 1.8696,5.78859 1.0231,7.26067 -2.093,3.64042 -5.1412,-5.97318 -5.6935,-19.63384 -1.0404,-25.73423 1.7992,-2.3589 2.4361,-4.0597 2.0161,-5.38327 -0.9204,-2.90023 -2.5114,-1.79964 -5.6703,3.92286 -2.776,5.02882 -2.8437,5.46393 -2.762,17.72398 0.065,9.78475 -0.1909,12.56865 -1.1613,12.56865 -0.6849,0 -1.9712,-1.3873 -2.8586,-3.08291 z" fill="#00B894" transform="translate(-55.16751,77.94653) translate(-5219.3179,-472.66323)"/>
</svg>