<?xml version="1.0" ?><svg height="88.794098mm" viewBox="0 0 133.56754 88.794098" width="133.56754mm" xmlns="http://www.w3.org/2000/svg">
    <path d="m 4816.4036,415.84317 c -8.8993,-1.94874 -16.9894,-2.71965 -13.2776,-28.54569 3.7121,-25.826 11.8975,-43.9856 36.9297,-48.46126 25.0323,-4.47564 60.6296,-3.89745 73.9072,-0.34264 13.2776,3.55484 20.0354,12.93444 8.3758,21.99283 -11.6594,9.05838 -36.4539,20.87922 -46.3287,27.86039 -9.8748,6.98119 -39.238,31.351 -59.6064,27.49637 z" fill="#FFFFFF" transform="translate(-38.262595,-104.10295) translate(-4761.0733,-227.77521)"/>
    <path d="m 4816.9595,420.04811 c -6.7921,-1.23307 -11.2744,-3.84593 -14.4497,-8.42307 -4.7164,-5.55129 -2.8001,-10.80138 -2.7316,-18.02302 0.2151,-22.91948 3.9045,-34.60029 14.3513,-45.4436 7.072,-7.34039 12.3438,-9.90255 26.7877,-13.01863 21.1192,-4.55623 63.4519,-4.28753 76.2041,0.4837 12.9645,4.85068 18.7378,13.20739 14.3065,20.70893 -1.9478,3.29729 -9.6751,8.98997 -17.7154,13.05061 -3.5222,1.77885 -8.6445,4.66109 -11.3828,6.40493 -2.7384,1.74388 -10.7416,6.49289 -17.7848,10.55334 -14.7297,8.49164 -17.4116,10.45982 -28.5317,20.9376 -6.4065,6.03655 -9.5337,8.22643 -14.7028,10.29585 -7.2328,2.89551 -16.7178,3.85902 -24.3499,2.47336 z m 23.0155,-10.54643 c 2.8771,-1.34815 8.5377,-5.51728 12.5794,-9.26461 9.5256,-8.83237 13.233,-11.12631 37.6811,-23.31556 21.002,-10.471 23.8536,-12.22235 31.54,-19.37024 5.05,-4.69597 5.6383,-7.27874 2.3598,-10.35875 -5.1699,-4.85686 -14.9268,-7.26677 -32.8183,-8.10605 l -8.8787,-0.41656 -2.4668,5.34124 c -2.0481,4.43493 -2.5536,7.19194 -2.9784,16.24975 -0.4746,10.11145 -0.6126,10.73537 -1.8876,8.53719 -0.8419,-1.45105 -1.5268,-5.9079 -1.765,-11.48339 -0.3313,-7.7561 -0.091,-9.78545 1.613,-13.6378 1.1009,-2.48923 2.0019,-4.685 2.0019,-4.87957 0,-0.94073 -19.7335,0.35335 -29.8801,1.10572 -11.6391,0.86305 -20.9864,3.68721 -26.5901,9.29933 -11.0491,11.10547 -14.5425,21.37798 -14.9426,43.94149 -0.1856,10.40824 0,11.80366 1.7814,14.22865 2.9195,3.95265 7.0838,5.06924 17.934,4.80842 7.9171,-0.19011 10.3508,-0.63332 14.717,-2.67926 z m -25.1832,-4.42054 c 0.7797,-4.24256 1.986,-5.77684 3.4167,-4.34601 0.719,0.71898 0.5951,2.0147 -0.4259,4.45833 -1.9443,4.65356 -3.8534,4.58192 -2.9908,-0.1124 z m 7.1761,2.86492 c -0.051,-1.94355 2.9626,-8.79352 3.8674,-8.79352 1.7335,0 0.7639,4.72982 -1.4959,7.29853 -1.2879,1.46385 -2.3549,2.13658 -2.3715,1.49499 z m 7.5622,-3.33916 c 0,-1.17388 0.9545,-3.62831 2.1169,-5.45436 2.0804,-2.62998 2.8905,-3.22705 3.0884,-1.45032 0.3051,2.73949 -2.7652,9.03898 -4.2847,9.03898 -0.5082,0 -0.9225,-0.96044 -0.9206,-2.1343 z m 7.585,-3.8502 c 0,-1.20454 0.6098,-3.0187 1.3552,-4.03149 1.2909,-1.75396 2.6712,-2.23022 2.6337,-0.50364 -0.045,2.07574 -1.5347,6.72527 -3.0198,6.72527 -0.533,0 -0.9691,-0.98555 -0.9691,-2.19014 z m 7.9615,-5.00174 c 0.3168,-0.82525 0.5757,-1.89241 0.5757,-2.37149 0,-0.47899 0.6402,-0.87093 1.423,-0.87093 0.7824,0 1.4229,0.39194 1.4229,0.87093 0,1.99822 -1.246,3.87191 -2.5746,3.87191 -0.9078,0 -1.2143,-0.5431 -0.847,-1.50042 z m 5.8553,-4.08987 c -0.6929,-1.1215 0.348,-3.89546 1.462,-3.89546 1.1226,0 1.0927,3.53063 -0.038,4.22813 -0.5922,0.16016 -1.1596,0.0699 -1.424,-0.33267 z m -21.6425,-15.41475 c -6.0828,-1.71106 -4.3724,-3.31385 4.2452,-3.97849 4.2915,-0.33081 10.8835,-1.51626 14.649,-2.63413 11.8563,-3.51974 13.0809,-0.26862 1.626,4.31726 -7.0637,2.82779 -15.3371,3.75322 -20.5202,2.29536 z m 11.6902,-14.90985 c -0.6704,-1.25262 -0.5784,-2.26754 0.3159,-3.49092 1.206,-1.64904 2.5139,-1.82539 3.537,0.0861 1.0949,2.04594 0.7692,5.2983 -2.0941,5.17097 -0.4471,-0.0199 -1.2391,-0.79475 -1.7588,-1.76613 z m 17.9528,0.98292 c 0,-1.05491 3.8811,-4.48928 5.8593,-5.18478 0.8747,-0.30763 2.0772,0.0272 2.672,0.74374 0.8359,1.00718 0.6362,1.74826 -0.8793,3.26363 -1.9032,1.90321 -7.652,2.7878 -7.652,1.17741 z m -10.7773,-4.43394 c -0.8158,-2.12561 0.36,-4.78363 2.111,-4.45187 0.8774,0.16617 2.4168,1.66586 2.5878,3.14692 0.2367,2.05226 -0.8267,2.72783 -2.2941,2.72783 -1.0223,0 -2.1043,-0.64031 -2.4047,-1.42288 z" fill="#00B894" transform="translate(-38.262595,-104.10295) translate(-4761.0733,-227.77521)"/>
</svg>