<?xml version="1.0" ?><svg height="101.83601mm" viewBox="0 0 94.474785 101.83601" width="94.474785mm" xmlns="http://www.w3.org/2000/svg">
    <path color="#000" d="m 9142.2178,928.91005 -16.6133,26.1661 c -55.3312,-18.001 -115.0921,19.4597 -112.4727,79.08205 -3.7631,126.1297 170.5651,108.0019 169.0684,0 -10e-5,-23.0506 -9.5798,-45.08325 -26.4844,-60.91215 l 18.2188,-30.707 z" fill="#FFFFFF" overflow="visible" paint-order="fill markers stroke" transform="translate(-98.107797,92.065949) matrix(0.34817918,0,0,0.34817918,-3037.4803,-383.05374)"/>
    <path d="m 9249.0583,835.74225 c -1.5725,0.027 -3.0343,0.779 -3.9668,2.5215 -2.0918,3.9087 -2.1514,10.2773 -0.1309,14.0527 1.0092,1.8858 2.223,3.4297 2.6953,3.4297 1.6221,0 7.724,-7.3352 8.6504,-10.3984 1.5129,-5.0025 -3.2295,-9.6741 -7.248,-9.6055 z m -31.5235,2.0039 c -5.1895,0 -5.1882,-2e-4 -5.0879,5.4668 0.063,3.4265 1.2349,7.0611 3.1426,9.7402 2.3178,3.2551 3.8773,4.1779 6.5371,3.8672 6.9493,-0.8967 7.213,-18.2686 -4.5918,-19.0742 z m 52.1114,18.2051 c -5.8885,-0.095 -12.3643,2.4334 -13.0293,8.3183 0.1485,2.066 1.2747,4.4919 2.5039,5.3907 3.821,2.663 15.2102,-3.6276 15.8925,-9.2559 0,-3.5016 -0.5166,-4.0428 -4.1992,-4.4004 -0.3854,-0.029 -0.7754,-0.046 -1.1679,-0.053 z m -36.1641,5.9062 c -1.3732,0.028 -2.462,0.7664 -3.0645,2.3867 -2.2785,6.5043 10.0612,16.0609 7.0352,25.9122 -1.7016,12.9819 -13.0694,26.7707 -22.1602,26.879 -11.9983,-0.3079 -24.1474,-16.9508 -38.5937,-14.6759 -10.2333,2.5316 -19.6747,4.6511 -22.4746,21.9766 -3.0897,-1.9095 -12.4861,-3.0254 -14.8438,-1.7636 -2.1419,1.1463 -11.3463,14.0288 -13.1054,18.3418 -33.2373,-0.2119 -73.661,1.1957 -99.1817,33.6895 -25.0599,32.69685 -36.4651,97.97475 13.252,134.48225 27.0389,18.3298 61.0498,25.2468 92.6679,12.9511 13.7488,-7.4407 20.7961,-12.153 26.0293,-17.4022 12.327,-12.857 24.97,-36.4061 30.7032,-58.2226 8.3628,-51.67895 -26.594,-70.43745 -17.9278,-80.17575 1.6193,-7.335 6.2164,-15.9151 10.5274,-23.8458 0,-2.1251 -8.5281,-10.2096 -11.8985,-11.2793 -7.6909,-2.7678 7.246,-21.5858 18.4942,-12.2461 8.508,5.5874 21.9682,14.3607 35.7558,10.5547 18.9903,-6.4707 30.7878,-29.237 25.168,-48.5684 -2.9485,-10.1426 -11.4787,-19.0949 -16.3828,-18.9942 z m -30.8965,8.7891 c -2.2071,-0.093 -2.8684,0.6235 -3.8926,2.8711 -3.2485,7.2613 9.6746,12.8602 16.3203,14.666 3.0752,0.6305 6.9855,0.2026 10.3321,-1.1289 5.07,-2.0172 1.3212,-12.7948 -4.666,-13.4141 -4.3514,-0.3993 -7.7692,1.9418 -15.3008,-2.6582 -1.1499,-0.1838 -2.0573,-0.3049 -2.793,-0.3359 z m 66.4941,7.791 c -3.9133,-0.091 -8.1517,0.3666 -8.6953,1.2461 -1.448,2.343 0.9393,8.2631 3.7989,9.418 6.698,2.7053 12.83,0.2297 12.83,-5.1797 0,-2.3175 -0.8529,-4.2191 -2.1093,-4.7012 -1.2448,-0.4776 -3.4762,-0.7287 -5.8243,-0.7832 z m -120.291,58.67 c 3.3883,0.045 13.5567,4.9863 13.5567,6.5879 -0.8812,5.2074 -3.7684,9.0122 -5.9825,13.3829 -5.4394,-4.4311 -8.5906,-5.7501 -15.3496,-10.2695 0,-2.3648 5.8999,-9.7263 7.7754,-9.7013 z m -53.6816,20.7443 c 1.3472,0 2.7242,0.018 4.1367,0.059 15.5225,0.4599 31.1802,-1.6921 50.5195,16.6523 19.0554,16.9528 28.328,38.20135 24.7071,56.61905 -1.9792,34.5312 -10.9498,40.7405 -25.1563,59.6699 -33.1397,33.4941 -86.08,24.9967 -112.9687,-3.3184 -11.0255,-12.9083 -14.6852,-23.8036 -15.1602,-45.121 -0.4052,-18.1845 2.3844,-31.9114 9.3496,-46.00395 4.9878,-10.0916 7.219,-12.964 15.7481,-20.2675 15.4374,-13.2192 28.6155,-18.2502 48.8242,-18.289 z m -50.1211,43.70285 c -12.7266,2.1555 -13.4342,53.2527 -5.6406,63.2401 3.1521,15.4352 31.3734,27.1685 24.4824,7.7442 -9.5177,-10.3547 -8.4579,-47.0014 -4.2402,-58.0585 2.0249,-7.36 -5.0786,-12.9508 -14.6016,-12.9258 z m 2,11.1816 c 1.5696,-0.1857 1.0557,6.1141 0.5937,10.5801 -0.6225,10.1938 -0.218,10.914 -0.3613,18.0938 -0.1134,5.6823 -0.3444,10.3339 -0.5137,10.3339 -4.1048,-8.781 -4.7199,-29.8984 -0.5253,-38.5058 0.3154,-0.3155 0.5824,-0.4754 0.8066,-0.502 z" fill="#00B894" transform="translate(-98.107797,92.065949) matrix(0.34817918,0,0,0.34817918,-3037.4803,-383.05374)"/>
</svg>