<?xml version="1.0" ?><svg height="63.924698mm" viewBox="0 0 60.880615 63.924698" width="60.880615mm" xmlns="http://www.w3.org/2000/svg">
    <path color="#000" d="m 15168.459,5599.317 c 27.411,-160.1968 195.122,-178.0276 196.677,-1.6857 -17.226,127.2683 -198.047,142.3361 -196.677,1.6857 z" fill="#FFFFFF" overflow="visible" paint-order="fill markers stroke" transform="translate(-87.030438,7.4063344) matrix(0.26458333,0,0,0.26458333,-3919.9838,-1453.25)"/>
    <path d="m 15272.808,5464.6072 c -13.403,0.058 -20.76,2.2398 -35.291,9.5722 -37.609,18.9782 -68.831,64.2884 -73.116,106.1081 -1.917,18.711 -3.491,23.0634 -8.349,23.0634 -3.292,0 -7.746,2.1172 -9.894,4.7055 -4.979,5.9985 3.047,13.6137 11.091,10.5268 3.944,-1.5136 6.106,0.613 7.811,7.6833 7.976,33.0823 34.707,65.2331 61.722,74.2252 78.147,23.8495 124.473,-30.4733 144.794,-96.5156 6.591,-22.2404 2.776,-50.6488 -11.011,-82.0363 -16.212,-36.9071 -43.476,-56.0306 -81.606,-57.2385 -2.2,-0.07 -4.236,-0.1022 -6.151,-0.094 z m 1.499,13.1417 c 27.319,-0.8551 55.084,14.9316 67.799,39.8552 15.319,27.2791 25.189,63.28 13.001,92.9798 -14.355,29.753 -32.347,61.5534 -62.731,75.704 -20.357,9.2453 -54.027,6.9895 -72.06,-4.8264 -16.642,-10.9038 -33.293,-31.1269 -37.14,-45.0984 -9.054,-34.9853 -6.636,-60.3191 3.227,-92.1261 19.365,-39.3122 40.601,-57.4339 76.268,-65.0832 3.839,-0.8233 7.734,-1.2828 11.636,-1.4049 z m 7.475,7.3136 c -9.295,-0.2616 -18,3.3447 -26.626,4.1274 -24.131,5.5624 -47.895,30.3521 -45.656,48.5199 3.539,14.1854 11.796,20.899 25.698,20.899 9.026,0 14.943,2.4571 20.718,8.6042 4.445,4.7324 11.683,8.6043 16.086,8.6043 7.929,0 20.877,-4.7206 18.358,8.7185 -0.326,1.7351 6.899,12.5691 11.158,13.9147 4.259,1.3456 9.768,5.3185 12.241,8.8328 2.474,3.5144 8.148,6.3927 12.611,6.3927 10.209,0 25.913,-26.3311 25.913,-43.4515 -2.557,-30.2094 -19.038,-67.9647 -44.419,-76.4098 -7.387,-5.5529 -16.786,-8.4908 -26.082,-8.7522 z m -4.551,8.779 c 1.327,0.075 3.061,0.427 5.324,0.9949 9.376,2.3531 14.554,7.2893 14.554,13.8676 0,1.893 -1.438,5.7147 -3.193,8.49 -2.556,4.0407 -3.909,3.1432 -6.817,-4.5038 -3.448,-9.0711 -4.018,-9.283 -11.293,-4.1878 -8.715,6.1043 -16.449,7.0086 -16.449,1.9225 0,-1.8929 3.098,-3.4417 6.884,-3.4417 4.707,0 6.883,-2.2911 6.883,-7.2531 0,-3.8695 0.541,-5.607 2.911,-5.8684 0.355,-0.039 0.754,-0.044 1.196,-0.021 z m -15.292,1.9427 c 1.875,0.09 2.715,1.132 1.855,3.5493 -2.293,6.4459 -25.024,14.0808 -16.832,1.9695 5.844,-3.1753 11.852,-5.6692 14.977,-5.5188 z m 48.936,14.3113 c 8.205,-0.1346 13.719,8.7051 14.816,10.4797 1.17,1.893 -4.074,5.0416 -7.025,5.0416 -8.302,-3.7598 -9.182,-1.4176 -9.874,5.9087 3.392,7.5023 11.397,0.5642 16.569,0.9411 10.451,-1.3388 5.564,1.372 1.933,3.506 -11.366,6.0903 -41.403,12.2121 -37.109,1.8179 1.933,-3.3241 1.708,-11.1704 12.563,-15.0306 4.871,-4.0284 3.962,-8.5998 6.447,-12.5098 0.57,-0.094 1.133,-0.1455 1.68,-0.1545 z m -69.405,4.9206 c 0.292,-0.049 0.583,-0.04 0.867,0.015 1.895,0.3543 3.588,2.7657 4.739,4.3895 3.247,4.6084 9.848,13.3393 16.644,7.3338 19.862,-17.551 21.894,5.6544 15.071,16.0792 -6.761,10.3301 -1.258,15.3114 16.267,11.0175 10.394,-2.5465 19.49,0.9561 10.48,8.4362 -4.312,3.5801 -6.83,3.6507 -12.127,0.3428 -9.223,-4.7023 -12.049,6.8385 -23.103,2.8636 -5.769,0 -7.32,-14.4467 -2.111,-19.6554 2.745,-2.7444 4.107,-6.4135 3.032,-8.1539 -2.939,-4.7552 -10.495,-3.8144 -15.239,1.9023 -6.193,7.4622 -27.619,10.7791 -31.372,4.8534 -6.536,-10.3186 -3.605,-13.7914 7.011,-8.3018 11.893,6.1503 17.632,1.2567 9.31,-7.9387 -3.594,-3.9717 -4.298,-7.5393 -2.158,-10.9705 0.909,-1.4119 1.813,-2.0645 2.689,-2.2115 z m -15.783,2.3191 c 0,0 6.669,7.371 3.811,8.9269 -2.858,1.5559 -6.881,-5.3388 -3.811,-8.9269 z m 101.026,31.7752 c 5.389,0.089 12.626,2.7581 14.008,5.7878 3.646,6.7899 2.972,31.0104 -13.827,44.6615 -2.839,0 -5.586,-1.1993 -5.586,-3.0922 0,-1.8929 3.185,-4.9112 4.965,-7.4143 14.448,-34.155 2.063,-21.3064 -2.471,-30.2428 -4.28,-8.4356 -2.478,-9.7887 2.911,-9.7 z m -134.886,16.5364 c -6.161,-0.031 -10.969,7.2505 -8.187,15.333 0,6.2822 1.838,8.6043 6.816,8.6043 7.786,0 13.454,-15.518 7.751,-21.2216 -2.125,-1.8767 -4.326,-2.7051 -6.38,-2.7157 z m 127.191,5.9827 c 1.982,-0.1434 3.327,0.551 3.327,2.2989 0,1.2027 -1.442,2.9406 -6.139,7.2934 -9.985,9.2538 -15.815,4.3987 -6.749,-5.6196 3.588,-3.9643 6.258,-3.7335 9.561,-3.9727 z" fill="#00B894" transform="translate(-87.030438,7.4063344) matrix(0.26458333,0,0,0.26458333,-3919.9838,-1453.25)"/>
</svg>