<?xml version="1.0" ?><svg height="211.29425mm" viewBox="0 0 274.57913 211.29425" width="274.57913mm" xmlns="http://www.w3.org/2000/svg">
    <path d="m 9387.8726,-481.35841 c -1.2134,0.0102 -2.5676,0.15626 -4.053,0.44856 -7.3123,1.43898 -9.1032,4.5087 -9.3591,10.51408 0.3413,3.68381 4.285,4.509 10.0413,4.89273 5.7562,0.38373 10.3395,-5.98608 10.5528,-10.36061 0.1699,-3.48595 -2.4217,-5.53463 -7.182,-5.49476 z m -73.3619,18.85777 c -6.0095,-0.006 -11.9063,2.50772 -15.691,6.13037 -6.3746,6.10131 -11.5763,19.41667 -10.681,29.81575 2.5157,6.36993 10.4678,14.02557 19.9336,16.25121 9.4657,2.22563 24.5171,-6.54289 31.5738,-17.13384 7.0567,-10.59096 -4.4771,-24.13637 -13.2819,-31.0627 -3.577,-2.81382 -7.7417,-3.99696 -11.8535,-4.00079 z m -67.9499,37.37239 c -0.8835,0.0203 -1.7629,0.10867 -2.6293,0.26872 -9.2417,1.70719 -20.4285,7.00393 -25.4868,16.00678 -5.0586,9.00284 -10.7333,13.46779 -13.5382,14.78101 -2.8048,1.31322 -14.0249,3.70595 -15.646,4.17287 -1.8322,0.13133 -9.793,3.85233 -12.3383,9.25111 -2.5456,5.39879 -3.2422,15.72919 4.5237,25.94312 7.7663,10.21392 18.5315,7.36892 20.8985,5.53041 2.3672,-1.83849 11.0252,-11.16265 15.2895,-16.41553 4.264,-5.25289 6.0636,-4.04159 13.6514,-2.93264 7.5877,1.10894 17.0404,-2e-5 26.0547,-6.55154 9.0147,-6.5515 10.7981,-24.13436 8.6579,-34.59633 -1.9396,-9.48117 -10.8963,-15.65439 -19.4371,-15.45798 z m 152.2724,24.46569 c -1.0841,-0.01 -2.1316,0.0985 -3.1176,0.3359 -7.888,1.89947 -18.0363,1.45838 -38.2468,5.18056 -20.2107,3.72219 -21.1059,11.18566 -23.1738,18.28468 1.4861,18.06303 10.7722,23.6677 15.8461,27.88873 5.0742,4.22105 21.0637,11.81897 46.3057,-1.66915 25.2417,-13.48812 25.321,-27.04447 22.1444,-36.13888 -2.7796,-7.9576 -12.1695,-13.81441 -19.758,-13.88184 z m -96.3569,0.62271 c -1.7502,-0.0153 -3.6847,0.33652 -5.81,1.19062 -12.3651,4.96932 -16.6499,13.33458 -15.5624,20.22254 2.0891,7.09901 11.853,7.61724 22.3847,5.33404 10.5318,-2.28321 12.9407,-13.58397 12.1946,-16.03985 -0.6178,-2.03377 -4.774,-10.6335 -13.2069,-10.70735 z" fill="#FFFFFF" paint-order="markers stroke fill" transform="translate(360.03965,-130.94605) matrix(1.1009442,0,0,1.1009442,-10459.215,662.9207)"/>
    <path d="m 9206.1022,-292.6169 c -0.3992,-0.74615 -1.239,-4.39068 -1.8659,-8.09895 -0.6268,-3.70826 -2.3243,-11.88756 -3.7717,-18.17617 -1.4478,-6.2886 -3.1309,-14.43516 -3.7404,-18.10352 l -1.1083,-6.66972 -3.1968,-0.39333 c -1.7583,-0.21638 -4.2597,-0.89771 -5.5588,-1.5141 -3.0742,-1.45879 -8.075,-6.59707 -10.1739,-10.45358 -2.337,-4.29372 -3.7743,-11.85482 -3.4451,-18.12435 0.348,-6.63023 2.6799,-11.82511 7.7066,-14.82017 10.7669,-6.41519 18.2013,-0.0701 23.607,8.11412 2.4193,3.6629 4.6436,9.98489 4.7058,16.61096 0.087,9.24803 -3.5885,14.14053 -6.9426,17.29868 l -2.5864,2.4351 0.9802,2.64654 c 0.5391,1.45566 1.854,6.36264 2.9221,10.9044 1.0679,4.54175 2.7806,11.83081 3.806,16.1979 2.7617,11.76111 4.0251,20.60627 3.1715,22.20139 -0.9297,1.73721 -3.5672,1.70495 -4.5093,-0.0554 z m -9.3687,-58.56751 c -0.162,-1.33908 0.061,-1.69142 1.0742,-1.69142 0.7032,0 1.4704,0.31075 1.7052,0.6906 0.3014,0.48783 0.625,0.49222 1.1024,0.0145 0.4773,-0.47729 0.3403,-1.04589 -0.4664,-1.93734 -1.5381,-1.69948 -0.8794,-3.54142 0.9215,-2.57751 2.5623,1.37127 3.5723,-1.40919 1.2689,-3.49363 -1.5099,-1.36664 -0.6763,-2.91782 1.2916,-2.4032 0.8277,0.21643 1.2471,0.007 1.2471,-0.62139 0,-0.54464 -0.8103,-1.10957 -1.9056,-1.32866 -1.3645,-0.27289 -1.9057,-0.74633 -1.9057,-1.6674 0,-1.01562 0.4391,-1.01502 1.9736,-1.28634 3.6536,-0.64601 1.3268,-3.04371 -0.8389,-2.95206 -2.5686,0.1087 -3.1096,-1.53782 -0.8913,-2.72509 1.9457,-1.04126 1.5191,-2.72828 -0.5578,-2.20693 -1.9467,0.48855 -2.6187,-0.7931 -1.2237,-2.33429 0.7651,-0.84558 0.9192,-1.45319 0.4799,-1.89256 -0.4394,-0.43932 -0.9083,-0.33254 -1.4603,0.33266 -0.9086,1.09489 -2.2989,1.28605 -2.8513,0.39213 -0.4658,-0.75362 1.0879,-2.50352 1.6857,-3.25798 0.7921,-0.99965 0.7441,-1.68884 0.303,-2.22049 -0.708,-0.85299 -1.3522,-0.15914 -2.1646,1.00081 -1.1043,1.57658 -2.4183,0.71714 -2.2702,-1.25149 0.26,-3.45571 -2.1432,-3.61455 -2.3961,0.1795 -0.1156,1.735 -1.4815,1.15794 -2.2433,0.11614 -0.4864,-0.66496 -0.8841,-1.5832 -0.8841,-2.04045 0,-0.45725 -0.4388,-0.83138 -0.9752,-0.83138 -0.7905,0 -0.8415,0.2499 -0.2687,1.32005 0.3886,0.726 0.5505,1.72645 0.36,2.22324 -0.4572,1.19107 -2.234,1.15839 -2.6977,-0.05 -0.3886,-1.01273 -2.1353,-1.33618 -2.1353,-0.39543 0,0.30659 0.4287,0.91329 0.9528,1.34822 2.2033,1.82846 0.4439,3.33299 -2.2264,1.90387 -1.9799,-1.05961 -2.1607,0.47579 -0.2494,2.11978 2.0952,1.80228 1.5509,3.20521 -1.0931,2.81712 -1.4673,-0.21536 -1.8305,-0.0301 -1.8305,0.9346 0,0.92353 0.3025,1.10723 1.3009,0.79028 1.7553,-0.55705 3.4262,0.812 2.4406,1.99957 -0.3966,0.47772 -1.2576,0.86858 -1.9135,0.86858 -0.7563,0 -1.1927,0.45021 -1.1927,1.23049 0,1.0515 0.3233,1.17801 2.2231,0.86973 1.7687,-0.28704 2.2234,-0.15198 2.2234,0.66044 0,0.56174 -0.7146,1.48955 -1.5881,2.06182 -2.0073,1.31523 -2.2508,3.19943 -0.277,2.14313 0.9643,-0.51606 1.5424,-0.50968 2.1854,0.0241 1.0959,0.90933 0.5809,2.36841 -1.0142,2.87472 -0.6664,0.2115 -1.2118,0.81676 -1.2118,1.34503 0,0.73676 0.444,0.86298 1.9057,0.54193 2.1753,-0.47777 2.3844,-0.007 0.7941,1.79193 -1.0831,1.22442 -1.0649,1.24536 0.7118,0.81273 1.7484,-0.42578 1.8117,-0.36306 1.5351,1.52084 -0.365,2.4865 0.3613,2.95326 2.0174,1.297 0.7116,-0.71149 1.7056,-1.29357 2.209,-1.29357 1.5579,0 1.7326,1.16332 0.3783,2.51768 -1.5548,1.55479 -1.6311,2.29853 -0.2888,2.81363 1.6166,0.62036 2.0613,0.46218 2.4888,-0.88483 0.5672,-1.78706 2.1211,-1.58103 2.6046,0.34524 0.5288,2.10683 1.903,1.63736 1.6376,-0.55951 z m 147.0524,1.6582 c -6.0403,-6.78239 -11.0665,-14.42607 -11.9074,-23.59649 -1.8911,-20.6223 24.6298,-26.69281 37.1831,-25.99718 12.5534,0.69562 11.006,-1.59029 19.504,-3.91766 13.784,-3.77504 26.0548,1.18268 31.5677,12.71964 4.1772,8.74159 2.9369,19.29525 -2.9047,26.97004 -5.984,7.862 -20.1094,16.84478 -32.5885,21.03202 -10.7537,3.60827 -28.9319,6.17659 -40.8542,-7.21037 z m 39.5866,2.40873 c 9.2571,-2.71718 22.8614,-9.22486 29.9677,-18.96085 4.8754,-7.21699 5.7196,-12.9915 2.9016,-20.58865 -3.9133,-10.54993 -15.735,-14.8012 -25.5644,-11.56893 -7.2888,2.39682 -7.8208,3.02659 -21.7967,3.02505 -13.9758,-0.002 -33.4319,7.24962 -31.9514,21.45995 0.7105,6.81956 5.0095,13.97412 9.3361,18.45575 10.7902,11.17692 24.6779,11.82595 37.1071,8.17768 z m 17.1507,-16.82194 c 0,-0.14589 1.5721,-2.18309 3.4936,-4.52731 2.4349,-2.97054 3.4937,-4.81519 3.4937,-6.08703 0,-2.28963 1.6893,-2.47681 2.5246,-0.27976 1.5047,3.95793 -3.6547,11.06684 -8.0827,11.1366 -0.786,0.0126 -1.4292,-0.0967 -1.4292,-0.2425 z m -184.523,-1.69512 c 3.7665,-5.75286 5.9896,-6.28176 15.9741,-4.6713 6.1453,0.99124 7.5802,1.03337 10.7985,0.31713 7.0059,-1.55918 13.501,-5.98387 16.8394,-11.47161 6.6975,-14.87677 7.9933,-34.25888 -5.9137,-40.01264 -14.0945,-5.72664 -27.385,3.86743 -32.8904,13.58946 -5.6332,9.9478 -10.7755,15.01975 -20.5987,16.55678 -8.3813,1.95566 -3.2609,-1.42306 1.1749,-2.93344 8.7891,-2.95838 11.4714,-8.68667 16.8669,-18.13931 6.4491,-11.29836 24.7369,-17.84564 36.3717,-13.37458 6.5485,2.51645 14.564,6.04217 14.3588,22.26667 -0.1238,9.78565 -1.2553,19.97184 -9.7384,29.47816 -6.583,7.14177 -17.6004,9.95533 -27.945,7.45751 -7.0674,-1.70646 -10.2626,-0.1726 -13.7201,2.87461 -0.8439,0.74381 -3.4675,0.94857 -1.578,-1.93744 z m 63.3756,-11.90079 c -3.5043,-7.84172 6.7327,-20.70841 19.9282,-22.93418 6.0411,-1.01893 10.592,0.062 13.7126,2.73319 11.1066,9.50675 1.6149,27.83623 -14.9155,28.85304 -6.5942,0.40562 -15.3209,-1.03393 -18.7253,-8.65205 z m 25.0492,2.43217 c 6.3718,-2.8185 9.0741,-6.3784 9.0741,-11.95347 0,-8.55326 -10.0628,-12.94388 -19.134,-8.34868 -6.2767,3.17958 -11.356,9.26811 -11.356,13.61227 0,2.7529 0.8956,4.00114 4.5227,6.30221 3.897,2.4723 11.7721,2.65298 16.8932,0.38767 z m 1.0989,-5.1434 c -0.5376,-0.87002 3.1016,-5.97785 4.2592,-5.97785 1.6315,0 1.3329,3.16266 -0.4686,4.96422 -1.8079,1.80788 -3.088,2.15023 -3.7906,1.01363 z m -53.0051,2.02016 c 0,-0.29564 0.475,-0.92985 1.0557,-1.40931 0.5803,-0.47952 1.7086,-2.3462 2.507,-4.14824 1.5971,-3.60523 2.5451,-4.52689 3.586,-3.48605 0.9126,0.91257 -1.0006,5.17975 -3.254,7.25806 -1.8296,1.68726 -3.8947,2.63402 -3.8947,1.78554 z m 50.6536,-31.19246 c -6.1624,-2.08612 -10.7767,-6.50152 -14.8062,-12.69728 -5.9922,-9.21358 0.2345,-25.38051 9.1959,-34.43242 6.086,-6.34239 16.4165,-9.67393 23.8851,-6.44243 12.3675,5.61218 22.1232,16.98474 22.1316,27.23314 0.01,8.20018 -3.0128,12.29747 -7.0024,16.24481 -9.2431,8.20062 -21.2091,13.97258 -33.404,10.09418 z m 12.7606,-4.13379 c 12.5849,-3.24598 23.168,-11.00381 23.2922,-21.58308 0.1333,-11.35567 -11.584,-21.42768 -21.3949,-24.81152 -8.463,-2.91895 -17.2189,2.53381 -23.3406,14.33055 -4.3308,8.34537 -5.4088,16.4168 -3.0461,20.26249 5.66,9.21281 14.871,14.28238 24.4894,11.80156 z m 13.4464,-11.68853 c -0.016,-0.67176 0.7065,-2.06139 1.5703,-3.08772 0.8636,-1.02634 1.8658,-2.64366 2.2271,-3.59403 0.7599,-1.99874 2.1404,-1.86777 2.448,0.23214 0.2943,2.00903 -0.9273,5.0978 -2.9233,6.42241 -1.5611,1.03603 -3.2821,1.73486 -3.3221,0.0272 z m -99.7282,11.75143 c 0,-1.29393 3.0122,-4.69548 5.1257,-5.7885 2.0392,-1.05444 5.6729,-1.24915 5.6729,-0.30389 0,0.34428 -1.6437,1.45644 -3.6524,2.47133 -2.0089,1.01496 -4.197,2.44829 -4.8625,3.18523 -1.4041,1.55473 -2.2837,1.72254 -2.2837,0.43583 z m 149.1224,-51.75881 c -3.3194,-1.11671 -6.4889,-3.06154 -6.4397,-6.97876 0.095,-7.5949 7.5467,-10.50136 12.4387,-10.90317 10.0726,-0.82729 14.0832,6.01579 10.3941,13.50842 -2.6799,5.44306 -10.7206,6.28188 -16.3931,4.37351 z m 9.6921,-2.99686 c 2.9429,-1.13671 4.4349,-3.49153 4.4349,-6.83096 0,-3.19408 -2.3057,-4.84174 -6.7757,-4.84174 -6.1644,0 -9.7556,2.74327 -9.7301,7.43218 0.018,2.37973 0.4674,3.43224 3.1869,4.26688 3.0582,0.59548 6.3335,0.91115 8.884,-0.0264 z m -2.718,-1.88673 c -0.4649,-0.46483 3.554,-4.06909 4.5371,-4.06909 1.2526,0 0.7585,2.43504 -0.7016,3.4577 -1.4441,1.01152 -3.1617,1.28532 -3.8355,0.61139 z" fill="#00B894" transform="translate(360.03965,-130.94605) matrix(1.1009442,0,0,1.1009442,-10459.215,662.9207)"/>
</svg>