<?xml version="1.0" ?><svg height="469.95166mm" viewBox="0 0 277.88724 469.95166" width="277.88724mm" xmlns="http://www.w3.org/2000/svg">
    <path d="m 10338.035,11577.938 c -4.229,0.06 -9.285,0.776 -15.293,2.257 -64.081,15.8 -17.213,76.99 -29.678,92.317 -12.465,15.326 -5.795,56.564 -25.283,137.461 -19.487,80.897 -33.008,280.416 -33.008,280.416 l -25.863,12.312 c 0,0 -8.192,-53.236 -48.732,-50.791 -40.539,2.445 -93.592,68.061 -93.592,68.061 0,0 -11.236,-217.251 -33.533,-267.496 -22.297,-50.244 -25.603,-87.849 -23.145,-126.245 2.458,-38.393 -22.3162,-53.113 -22.3162,-53.113 0,0 42.8272,-66.169 -0.041,-70.14 -1.3397,-0.125 -2.6162,-0.171 -3.8301,-0.141 -37.6319,0.923 -16.1543,73.467 -16.1543,73.467 l -2.457,39.816 c 0,0 -21.1296,83.995 -29.5567,139.295 -3.5424,23.247 -15.4582,105.868 -27.7617,191.49 l -70.0039,35.328 c -0.9446,-6.499 -1.8554,-12.835 -2.3066,-16.834 -4.5646,-40.448 -38.0608,-144.756 -23.7012,-177.277 14.3595,-32.522 -18.9665,-52.962 13.8711,-80.74 32.8375,-27.778 -43.3641,-72.995 -56.707,-17.537 -13.3428,55.459 13.8691,96.855 13.8691,96.855 0,0 -16.6797,79.474 -26.1602,132.246 -9.4805,52.773 -42.6667,318.984 -44.7734,404.147 -2.1068,85.163 -35.3175,434.3 -55.1562,581.242 -19.8389,146.941 -21.8138,242.306 25.1054,285.51 l 0.8223,-1.85 c 9.2278,11.882 25.7871,11.328 65.2715,25.393 66.0933,23.544 904.5791,-11.089 905.4571,-19.78 0.877,-8.689 -6.721,-399.149 -8.652,-454.134 -1.931,-54.984 -24.754,-213.619 -24.754,-213.619 0,0 -19.322,-355.94 -43.725,-504.62 -24.403,-148.679 -78.117,-256.482 -78.117,-256.482 0,0 23.868,-51.305 35.455,-75.953 11.587,-24.648 -52.492,-23.7 -62.324,-2.528 -9.831,21.172 9.845,47.039 2.869,80.481 -6.977,33.442 -30.586,182.057 -30.586,182.057 l -59.992,-19.373 -56.955,-276.346 c 0,0 15.623,-80.263 15.798,-98.75 0.16,-16.753 36.519,-77.011 -4.361,-76.402 z m 101.899,505.343 -21.801,132.307 -22.617,-127.85 z m -542.5688,36.209 c -12.2761,85.65 -24.4882,171.061 -24.4882,171.061 0,0 -15.1478,-85.569 -26.3184,-153.153 z" fill="#FFFFFF" paint-order="markers stroke fill" transform="translate(-26.698939,70.57251) translate(895.26044,-2680.0732) matrix(0.26458333,0,0,0.26458333,-3417.4795,-450.03122)"/>
    <path d="m -686.93821,2609.5019 c -0.69134,0 -1.38136,0.089 -2.05891,0.2539 -7.22976,1.773 -11.33106,14.1719 -7.17497,21.6909 1.37321,2.485 1.18939,3.819 -0.84455,6.1017 -1.82545,2.0501 -2.35437,4.7037 -1.76907,8.8881 0.55744,3.9795 -0.52122,10.1371 -3.24116,18.5002 -5.87777,18.0764 -8.34304,32.8675 -10.00439,59.9984 -0.80609,13.1659 -2.0134,23.9332 -2.68193,23.9284 -0.66919,0 -2.24638,-2.3655 -3.50388,-5.2489 -2.78758,-6.3919 -9.78502,-9.8548 -15.3829,-7.6107 -2.08536,0.8356 -6.65637,4.261 -10.15612,7.6122 l -6.36305,6.0931 -1.11996,-8.0131 c -0.61561,-4.4076 -1.19885,-11.5464 -1.28377,-15.8657 -0.18709,-8.8969 -4.86741,-34.5427 -7.17515,-39.3108 -5.5154,-11.3987 -8.10754,-22.1001 -7.31506,-30.1932 0.70598,-7.2097 2.56756,-9.6612 -0.36067,-13.5408 -4.08694,-5.4133 -6.51488,-5.8332 -3.45265,-5.8118 5.58764,0.044 7.62947,-13.595 2.82014,-18.8295 -3.51898,-3.8302 -6.8215,-4.0171 -11.60072,-0.6563 -5.45366,3.8352 -7.99015,11.5171 -6.01326,18.214 1.07332,3.6288 1.12943,6.9626 0.16476,9.6354 -0.92684,2.5635 -0.90901,5.5154 0.0498,7.9162 1.10446,2.7697 0.73759,6.2006 -1.32967,12.4172 -3.67342,11.0451 -7.82763,31.7403 -10.74996,53.5637 l -2.31168,17.2575 -5.5671,2.664 c -3.06269,1.4646 -5.77953,2.4547 -6.03643,2.2009 -0.25813,-0.2537 -1.79262,-8.486 -3.4138,-18.2937 -2.30596,-13.9552 -4.69468,-19.5422 -3.36764,-23.4138 0.93257,-2.7209 0.38282,-7.9105 0.34276,-11.3043 -0.0441,-3.3934 0.93886,-7.5342 2.17365,-9.2023 3.12631,-4.2214 2.69817,-9.1331 -1.22372,-14.025 -4.23153,-5.2782 -10.76423,-5.5372 -15.32529,-0.6107 -2.98341,3.2228 -3.24519,4.9376 -2.44755,16.0376 0.77109,10.7303 3.52659,16.2958 -1.29982,35.5322 -10.76385,42.904 -13.26958,61.5943 -15.64009,116.6337 -1.90914,44.3215 -4.83785,81.9855 -7.6882,98.8823 -6.31586,37.4432 -10.48612,94.8416 -8.95294,123.2161 -0.11817,10.2922 -0.80103,13.3588 7.90195,17.6991 5.61777,2.8034 11.48803,3.8833 27.5769,5.0715 11.24238,0.8298 29.62727,1.6519 40.85765,1.826 31.33045,0.4861 151.13399,-2.9327 175.50014,-5.0075 21.20174,-1.806 21.73009,-1.9405 23.82503,-6.1369 5.4028,-10.8235 -1.52689,-118.3849 -10.117,-157.0526 -2.70351,-12.1681 -3.43228,-21.9072 -4.16622,-55.5903 -0.94467,-43.3545 -4.49876,-76.8671 -11.84252,-111.6475 -5.1838,-24.5524 -12.92634,-48.881 -17.15393,-53.9056 -1.22691,-1.4574 -1.20824,-2.5588 0.0619,-3.8478 0.98014,-0.9932 1.76363,-2.752 1.74139,-3.9103 0,-1.1579 1.42142,-4.1307 3.2114,-6.6048 3.71444,-5.1357 2.88273,-11.8581 -1.64267,-13.2687 -4.22889,-1.3182 -14.94687,1.5906 -17.13573,4.6514 -2.5881,3.619 -2.37444,8.3552 0.51992,11.5055 2.07494,2.2587 1.86973,4.2917 -1.76907,17.3881 -2.2657,8.1553 -4.91546,20.2061 -5.88659,26.7793 l -1.76427,11.9496 -4.55694,-1.7388 c -2.50722,-0.9566 -4.56697,-2.2158 -4.58039,-2.7991 0,-0.5831 -2.02174,-12.6316 -4.46976,-26.7755 -4.41543,-25.5169 -10.00833,-45.3854 -12.77855,-45.4049 -1.93328,0 -1.72225,3.1824 1.18459,18.0505 1.35143,6.9097 2.21861,12.8037 1.92801,13.0978 -1.15889,1.1739 -18.11202,-1.8767 -18.13876,-3.2639 0,-0.8178 1.71379,-7.9686 3.84616,-15.8897 2.13172,-7.9212 3.71744,-17.1844 3.52199,-20.585 -0.2493,-4.3441 0.60192,-7.2168 2.86359,-9.6598 3.61919,-3.9093 3.19415,-4.0539 -0.46417,-8.356 -3.00837,-3.9846 -3.42413,-5.6642 -2.25914,-9.1648 0.78432,-2.3572 2.61165,-4.4965 4.05541,-4.777 2.53593,-0.4927 8.56467,-1.1151 4.59615,15.9601 -1.50062,6.4576 -0.62603,11.3546 -1.49762,15.5586 -0.59149,2.8541 -1.7123,10.605 3.58673,2.728 2.27791,-3.3867 5.01829,-9.2174 2.84764,-14.6612 -1.41204,-3.5416 -1.13731,-5.0775 1.57802,-8.8319 2.72435,-3.7665 3.0186,-5.4291 1.7138,-9.6959 -1.62118,-5.301 -6.5508,-9.0375 -11.38922,-8.998 z m -88.00187,13.596 c 0.44072,-0.045 0.84184,0.1246 1.19614,0.5075 0.8775,0.9521 0.80525,3.9329 -0.1825,7.4956 -1.29185,4.6629 -2.05346,5.5051 -3.59771,3.98 -2.60114,-2.5689 -2.55263,-6.3056 0.13352,-10.0223 0.88772,-1.2294 1.72102,-1.8887 2.45196,-1.9608 z m 2.12787,20.1455 c 1.9342,0 1.87415,8.1335 -0.1202,16.1662 -1.45876,5.877 -1.20149,8.1233 1.9298,16.9078 2.15273,6.0381 2.97984,10.3402 2.04764,10.6468 -0.86042,0.285 -4.72263,2.1061 -8.58307,4.0532 -3.86033,1.9471 -7.02587,3.1063 -7.03469,2.5757 0,-0.5302 1.69298,-7.6669 3.77983,-15.8577 5.8408,-22.9268 6.09452,-24.4787 4.45326,-27.3232 -1.5572,-2.699 0.65136,-7.1889 3.52649,-7.1688 z m 134.65405,24.495 c 2.86143,0 5.4135,1.2514 1.95287,5.666 l -1.49977,1.9129 c -3.22249,4.1105 -5.13436,2.8156 -6.47115,-0.508 -1.07116,-2.6629 2.69939,-7.0939 6.01805,-7.0709 z m -186.82173,-0.2297 c 1.74732,0.1405 2.78975,1.976 2.83609,4.3241 0.0891,4.5514 -3.07747,6.1503 -5.38516,2.4996 -2.41714,-3.8238 0.98658,-6.9493 2.54907,-6.8237 z m -1.48467,13.8461 c 1.13751,-0.1245 2.18445,1.612 2.24507,4.7017 0.0497,2.5918 -0.17377,4.7104 -0.49908,4.7077 -1.80294,0 -4.43551,-5.0482 -3.6966,-7.0718 0.55472,-1.5207 1.26829,-2.2636 1.95061,-2.3376 z m 185.55709,11.0066 c 0.77851,-0.1604 2.78167,3.9583 4.45156,9.1524 1.66923,5.1935 3.44374,10.6835 3.94272,12.1985 0.78254,2.3758 -0.19591,2.7452 -7.12204,2.6972 l -8.02835,-0.058 0.9384,-5.5742 c 1.5829,-9.4146 4.32957,-18.1111 5.81771,-18.4178 z m -59.62628,0.4951 c 0.39173,-0.1561 0.67576,0.7762 0.74791,3.1106 0.14684,4.8504 3.82863,5.9374 6.07491,1.7931 1.08054,-1.9934 2.67405,-2.3107 7.19823,-1.4334 6.65327,1.29 6.23657,0.4138 9.04509,19.0023 1.49301,9.8829 1.89329,14.5262 1.89329,14.5262 -2.55433,0.8392 -4.72836,6.6658 0.84174,6.7486 l 1.25845,6.9214 c -3.58927,1.4671 -2.9683,6.4639 0.71103,6.253 l 0.89908,5.4834 c -5.68372,-0.045 -4.89396,7.4843 -0.58183,6.4623 1.24474,0 1.95775,1.388 2.32105,2.9813 1.14989,5.0448 1.94003,13.0136 2.67321,18.6453 1.22232,9.3868 3.76595,61.9736 4.47193,92.2929 0.44531,19.0482 -1.37011,32.3134 -5.21271,38.1182 -4.53216,6.8461 -5.76827,14.4565 -3.62313,22.3138 1.49929,5.4928 1.21921,7.2013 -2.29123,14.0675 -2.19815,4.2983 -4.36608,7.8253 -4.81918,7.8222 -0.45321,0 -2.20444,-6.1846 -3.89243,-13.7535 -1.68809,-7.5694 -6.0204,-22.1599 -9.62739,-32.4225 -3.60672,-10.2625 -6.56076,-18.9408 -6.56957,-19.2841 0,-0.3427 0.98914,-0.6165 2.21277,-0.608 2.62695,0 3.77233,-2.8058 2.7008,-6.6547 -1.04245,-3.7438 -5.2279,-3.5181 -6.16048,0.3338 -0.41398,1.7148 -1.33144,2.7618 -2.03348,2.3279 -0.70278,-0.4319 -0.59206,-3.4273 0.2448,-6.6534 1.75265,-6.7472 -0.10658,-33.9656 -2.97458,-43.588 -1.03222,-3.4622 -2.21504,-10.8196 -2.62948,-16.349 -0.41388,-5.5297 -1.70358,-11.5437 -2.86359,-13.3671 -1.48823,-2.3373 -1.80284,-5.627 -1.06741,-11.1595 0.5733,-4.3148 1.58601,-15.9682 2.24966,-25.8961 2.10114,-20.3128 3.84223,-47.6822 5.86126,-64.437 0.71601,-7.6206 2.08217,-13.25 2.93996,-13.5959 z m -66.539,2.4598 c 1.90831,0.1557 1.99463,1.3799 -1.23977,3.757 -2.24103,1.6467 -2.31853,2.3411 -0.50405,4.489 1.1801,1.3973 3.1189,2.5454 4.30866,2.5539 1.18994,0 2.19111,1.4711 2.22676,3.2495 0.0441,1.779 -0.57068,2.8437 -1.34579,2.3649 -2.0089,-1.2407 -5.31115,3.29 -3.95427,5.4268 0.62284,0.9829 2.45909,1.4435 4.08074,1.0291 2.11539,-0.5413 2.96652,0.075 3.00649,2.1903 0.0441,2.0548 -0.70719,2.6486 -2.47495,1.9634 -3.16243,-1.2268 -5.6887,2.5752 -3.46193,5.2115 0.89832,1.0643 2.63436,1.5519 3.85771,1.0874 1.49255,-0.5666 2.24432,0.245 2.28897,2.4658 0.0441,2.2624 -0.92863,3.3018 -3.07563,3.2866 -1.74495,0 -3.12088,1.0252 -3.09432,2.3341 0.0441,1.3087 1.44151,2.3655 3.18608,2.3779 2.14682,0 3.16234,1.0701 3.20681,3.3325 0.0441,2.2207 -0.67698,3.0198 -2.19233,2.4322 -1.24154,-0.4816 -2.95938,0 -3.81633,1.0364 -2.07007,2.5399 0.51681,6.4574 3.5127,5.3199 1.478,-0.5612 2.65547,0.2317 3.19312,2.148 0.94862,3.3805 -1.14547,5.5879 -2.81123,2.9638 -0.74238,-1.1699 -1.72177,-1.1307 -3.22727,0.129 -3.08315,2.5792 -0.90508,5.0294 3.51007,3.9463 3.18064,-0.7798 3.74728,-0.3426 3.81183,2.944 0.0619,3.2349 -0.62415,3.8068 -4.24861,3.5335 -3.37458,-0.2537 -4.31081,0.3606 -4.26277,2.8134 0.0498,2.4515 1.00951,3.0833 4.37537,2.8762 3.6588,-0.2271 4.32423,0.3471 4.3916,3.7575 0.0666,3.3814 -0.29828,3.7095 -2.29357,2.0655 -2.91754,-2.4025 -7.10684,-1.0393 -7.04144,2.2908 0.0619,3.255 4.28557,4.7717 6.98852,2.5098 1.8019,-1.5078 2.33383,0.3249 3.26659,11.2325 0.61243,7.1689 1.00726,14.7998 0.8742,16.9582 -0.3116,5.0419 4.32208,48.6698 6.24775,58.8326 1.26472,6.6747 1.02161,8.38 -1.72984,12.1844 -1.75978,2.4332 -6.66135,15.5172 -10.89475,29.077 -6.89366,22.0809 -8.04176,24.6019 -10.99843,24.1398 -4.44978,-0.6957 -6.1738,4.1668 -2.44032,6.884 2.68249,1.9528 2.6763,2.4767 -0.11138,11.1586 l -2.92429,9.1073 -1.2165,-6.2882 c -0.66863,-3.4597 -1.57906,-8.0884 -2.02466,-10.2856 -0.44559,-2.1973 -2.39706,-6.4509 -4.33605,-9.4524 -2.57572,-3.9873 -3.64857,-8.2083 -3.97754,-15.6681 -1.75123,-39.6932 -2.92335,-50.2465 -6.33734,-57.0483 -3.15924,-6.2938 -3.42366,-8.7247 -3.03895,-27.955 0.43621,-21.9465 2.96191,-56.3313 5.65876,-77.116 1.38174,-10.645 1.9511,-12.065 4.70669,-11.7454 4.10157,0.476 7.29995,-4.2757 4.64466,-6.8985 -1.4628,-1.445 -2.44426,-1.4169 -4.28107,0.1201 -1.95063,1.6316 -2.38599,1.6026 -2.39932,-0.1602 -0.0441,-3.1073 1.8673,-5.2822 4.58245,-5.2634 1.29532,0 2.33607,-1.0436 2.30933,-2.3394 -0.0441,-1.3171 -1.30423,-2.2623 -2.8982,-2.1413 -1.92454,0.1471 -2.57478,-0.5403 -2.00374,-2.1051 0.46605,-1.2766 0.82984,-3.245 0.80751,-4.374 0,-1.1292 1.16949,-1.9457 2.65002,-1.8154 1.48054,0.1292 2.9242,-0.9984 3.20681,-2.508 0.31612,-1.691 -0.4318,-2.7519 -1.9555,-2.7626 -1.42358,0 -2.49699,-1.3474 -2.53255,-3.1575 -0.0441,-1.7276 0.73544,-2.9597 1.71127,-2.7371 0.97611,0.2224 2.08245,-0.4769 2.45664,-1.5542 0.3741,-1.0768 -0.0845,-1.9626 -1.02106,-1.9692 -3.74774,-0.045 -1.45661,-4.6078 3.87864,-7.7552 5.29697,-3.1249 10.76377,-4.6817 13.21806,-4.4787 z m 79.9115,3.8652 c -1.86083,0.044 -3.56224,2.2094 -2.30999,4.1823 0.5992,0.9432 1.71117,1.7187 2.47279,1.7241 2.42577,0 3.49496,-3.3258 1.64717,-5.1509 -0.552,-0.5454 -1.18985,-0.7689 -1.80997,-0.7555 z m -88.70822,2.4547 c -2.43112,0.084 -4.33192,2.2285 -3.05302,4.2435 1.49545,2.3554 3.30984,2.1618 5.5534,-0.5916 1.53767,-1.8869 1.39196,-2.5177 -0.76612,-3.3546 -0.58437,-0.2271 -1.17353,-0.316 -1.73426,-0.2982 z m 77.84772,1.8036 c -2.09399,0 -3.11796,1.0245 -3.07779,3.1185 0.0441,2.0943 1.1085,3.1503 3.20202,3.1645 2.09409,0 3.11787,-1.0266 3.0778,-3.1206 -0.0441,-2.0944 -1.10803,-3.1481 -3.20203,-3.1624 z m -127.22349,0.5321 c 1.20328,0.084 3.08268,9.1466 3.40677,17.4492 0.17818,4.5214 -0.61515,5.9694 -4.44884,8.1494 -4.59887,2.6144 -4.6532,2.6014 -3.99621,-0.8146 0.365,-1.9053 0.94947,-6.287 1.29326,-9.7406 0.60633,-6.0918 1.21397,-8.7832 3.27813,-14.5039 0.13783,-0.3829 0.29378,-0.552 0.46689,-0.5395 z m 139.18799,4.2623 c -2.77426,0 -4.49885,2.553 -3.14236,4.6897 1.76231,2.7756 5.52967,1.7183 5.46559,-1.5331 -0.0441,-1.7276 -1.07877,-3.1477 -2.32323,-3.1566 z m -11.82207,3.5501 c -1.10343,0 -2.47099,0.6522 -3.86925,2.0687 -1.43558,1.964 -1.5981,4.3411 -0.21815,5.6553 2.91266,2.7692 6.59942,-0.719 6.52867,-4.3114 -0.0441,-2.2129 -1.02387,-3.3864 -2.44305,-3.4126 z m -77.84996,0.044 c -2.14832,-0.1201 -4.21736,1.5847 -3.03201,3.4526 1.33275,2.0993 5.12018,2.3397 6.28696,0.3962 0.45854,-0.7626 -0.0797,-2.1413 -1.19615,-3.0609 -0.6156,-0.5074 -1.3425,-0.7496 -2.0588,-0.7897 z m 89.80771,7.6932 c -2.83788,0 -4.34019,4.2757 -2.13932,6.8816 0.9642,1.1427 2.78918,1.6809 4.05803,1.1992 3.01232,-1.1439 1.97728,-7.3703 -1.33472,-8.0216 -0.20033,-0.044 -0.39605,-0.058 -0.58399,-0.058 z m 39.65446,2.5196 c 4.16041,0.1245 13.66141,2.4203 15.71834,4.1145 1.53046,1.2603 1.7365,2.3442 0.65127,3.4437 -1.08523,1.0996 -0.79502,2.4635 0.92676,4.338 1.98196,2.1572 2.15423,3.43 0.81472,6.019 -1.36269,2.6326 -1.21528,3.469 0.74284,4.2286 2.68841,1.0429 3.46307,5.3289 0.95932,5.3115 -2.50515,0 -1.71905,4.959 1.10851,7.017 2.22178,1.6172 2.29431,2.3459 0.5199,5.2669 -1.84422,3.036 -1.66753,3.6638 1.69344,6.0088 3.2923,2.298 3.44327,2.7921 1.23302,4.0279 -3.17032,1.7708 -3.20456,7.5275 -0.0441,7.5493 1.30827,0 2.38205,1.4116 2.41751,3.157 0.0441,1.7277 -0.78253,2.9594 -1.81522,2.7364 -1.03231,-0.2227 -2.1412,0.9307 -2.46341,2.5637 -0.46539,2.3576 0.0891,2.795 2.69573,2.1283 2.43197,-0.6223 3.29811,-0.1114 3.33827,1.9716 0.0441,1.5458 -1.35021,3.1712 -3.06889,3.611 -1.93157,0.4943 -3.09731,2.1198 -3.05743,4.2575 0.0573,2.9051 0.69406,3.3052 3.97528,2.5005 3.84917,-0.9439 3.90809,-0.8169 4.09454,8.6622 0.15576,7.8631 -0.24039,9.4574 -2.15987,8.7125 -3.13569,-1.2161 -6.42188,4.8531 -3.94995,7.2948 1.26529,1.2496 2.2597,1.2104 3.59565,-0.1425 1.01627,-1.0296 2.41217,-1.8695 3.10304,-1.8647 0.69096,0 1.57718,16.241 1.96723,36.0793 0.54965,27.9869 1.2683,37.6329 3.2086,43.0492 3.18908,8.9014 8.38049,93.3191 8.38049,93.3191 l 0.32502,5.5703 c 1.00031,22.6797 1.17484,35.6631 0.78254,35.6603 -0.39164,0 -1.64962,-4.9126 -2.79462,-10.9116 -1.14538,-5.9992 -3.11881,-13.2584 -4.38475,-16.1288 -4.14352,-9.3928 -6.48466,-30.1677 -6.48466,-30.1677 7.5485,-3.4976 3.17445,-12.151 -2.76263,-10.539 0,0 -2.12918,-3.8421 -2.77679,-6.9724 -0.63533,-3.0694 -3.28573,-7.9692 -5.89166,-10.8899 -2.66551,-2.9882 -4.77386,-7.1099 -4.81928,-9.4239 -0.0441,-2.2615 -1.35602,-5.3709 -2.91434,-6.9102 -2.42531,-2.3952 -2.5562,-3.3577 -0.91794,-6.6796 1.05418,-2.1353 1.48776,-5.7388 0.96869,-8.0078 -0.65529,-2.8614 -0.20032,-4.4092 1.47435,-5.0462 2.7523,-1.0449 2.9562,-2.3954 0.85104,-5.6372 -1.17916,-1.8157 -1.92661,-1.8842 -3.7682,-0.3426 -3.1904,2.67 -4.57805,-0.062 -3.44598,-6.7963 0.68645,-4.0819 -0.0535,-7.3717 -2.92599,-13.0016 -2.95009,-5.782 -3.80338,-9.7186 -3.66452,-16.8945 0.22698,-11.7454 -2.12298,-20.0466 -7.20255,-25.449 -3.63298,-3.8641 -3.96946,-5.4291 -4.24184,-19.2909 -0.29388,-15.2598 2.05337,-55.752 4.84667,-83.6913 1.40369,-14.0387 1.78511,-15.2145 4.82867,-14.8868 2.03609,0.2181 3.28393,-0.5476 3.25728,-1.9992 -0.0441,-1.2959 -1.28123,-2.2662 -2.7903,-2.1569 -2.56943,0.1871 -3.82609,-2.621 -2.00139,-4.4698 0.23599,-0.2358 0.91034,-0.3247 1.8705,-0.2981 z m -52.78516,0.2537 c -3.50952,-0.045 -5.26047,3.5936 -2.87795,5.9472 2.3829,2.3536 5.97666,0.556 5.9077,-2.954 -0.0441,-1.87 -1.16002,-2.9803 -3.02975,-2.9932 z m -76.63123,0.3026 c -0.62855,0.077 -1.22494,0.5418 -1.93908,1.4174 -1.02837,1.2616 -1.39815,3.0342 -0.82354,3.9397 1.42452,2.2436 3.27644,2.0802 5.35514,-0.471 1.31596,-1.615 1.20553,-2.5771 -0.45968,-3.9485 -0.84145,-0.6928 -1.50379,-1.0114 -2.13284,-0.9376 z m 138.59499,4.4384 c -0.86408,0.057 -1.71924,0.9574 -2.04061,2.661 -0.26704,1.421 0.61703,2.4425 2.12562,2.4533 1.61725,0 2.36638,-1.0137 2.00148,-2.735 -0.35167,-1.6574 -1.22288,-2.4381 -2.08649,-2.3793 z m -49.42419,5.1464 c -1.86083,0.044 -3.56215,2.2092 -2.3099,4.1817 0.5991,0.9433 1.71118,1.7191 2.47326,1.7246 2.42568,0 3.4944,-3.3259 1.64699,-5.151 -0.55238,-0.5453 -1.19033,-0.7691 -1.81035,-0.7553 z m -12.66831,1.9265 c -1.76982,-0.1161 -3.85274,0.8676 -4.18931,2.8094 -0.38714,2.2277 0.32503,2.7614 3.16554,2.378 2.01471,-0.2715 3.64312,-1.5544 3.61647,-2.8503 -0.0441,-1.4904 -1.21613,-2.2468 -2.5927,-2.3371 z m -75.78929,0.9023 c -0.61843,0.044 -1.29372,0.5735 -2.3416,1.6356 -2.12553,2.1541 -2.13979,2.6606 -0.11139,3.9142 3.43361,2.1212 6.95738,-1.1725 4.44228,-4.151 -0.81191,-0.9612 -1.37189,-1.432 -1.98975,-1.3988 z m 130.41436,1.7976 c -2.91707,0 -4.62664,2.5276 -3.20193,4.7716 1.4657,2.3086 4.5756,1.01 5.12534,-2.1402 0.26273,-1.5132 -0.5475,-2.622 -1.92341,-2.6314 z m -177.11917,-1.1823 c 1.44985,-0.085 1.45125,0.9147 -0.35609,2.9442 -2.51876,2.8267 -2.50928,3.0627 0.20483,4.5839 2.73898,1.5352 2.73588,1.7454 -0.0938,4.9197 -2.92429,3.283 -2.91979,3.3253 0.50846,4.2411 3.99875,1.0683 4.53648,2.9735 1.19831,4.241 -2.78534,1.0577 -1.30199,5.7143 1.82648,5.7362 2.93274,0 2.88189,4.1604 -0.0619,5.2791 -3.45799,1.3127 -2.7707,5.6949 0.89739,5.7202 4.30566,0.044 4.27741,5.6763 -0.0441,6.7794 -3.78425,0.9681 -3.07733,5.0888 0.82138,4.7858 1.5558,-0.1202 2.59786,0.9744 2.63352,2.7671 0.0441,1.6318 -1.00257,2.9584 -2.29789,2.9495 -1.29587,0 -2.33626,1.0435 -2.30952,2.3394 0.0441,1.3086 1.44319,2.3654 3.18814,2.3779 1.72769,0 3.16149,1.0011 3.18373,2.196 0,1.1948 -1.36381,2.5315 -3.08257,2.9714 -1.7184,0.4407 -3.10005,1.9924 -3.07349,3.4499 0.0441,1.4574 1.47313,3.0297 3.20916,3.4936 4.1074,1.0974 4.06789,3.0315 -0.0845,4.0941 -3.78377,0.9683 -3.07695,5.089 0.82129,4.7858 1.82602,-0.1425 2.60059,1.0761 2.66157,4.1894 0.0676,3.5087 -0.5033,4.233 -2.85251,3.6053 -3.5674,-0.9526 -5.90948,3.8501 -2.51857,5.1656 1.24858,0.4839 3.00245,0.4273 3.89683,-0.1247 1.02509,-0.6343 1.764,1.4931 2.00364,5.7626 0.59516,10.6375 1.05859,14.573 2.23099,18.9133 0.73769,2.7292 -0.18241,6.9386 -2.84314,12.9914 -3.38546,7.7029 -3.74238,10.0841 -2.55563,17.0303 1.56245,9.1492 1.65947,15.7307 0.39183,26.5975 -0.85253,7.3179 -1.01918,7.5173 -5.8271,7.0264 -4.31578,-0.4407 -5.00009,0 -5.34594,3.6131 -0.21816,2.2654 1.05905,8.1999 2.83609,13.1875 3.72954,9.0182 3.85368,8.2363 -1.62841,15.5714 -2.67358,3.5763 -6.0674,9.8214 -7.54081,13.879 -1.47359,4.0572 -3.33433,6.973 -4.13385,6.4789 -0.79981,-0.4937 -2.25642,-0.4008 -3.2389,0.2091 -1.25094,0.7737 -1.70188,4.0916 0.21806,5.488 2.58021,1.878 3.29783,0.2448 0.43621,10.5113 -1.67195,5.9985 -4.97888,15.4038 -7.34977,20.8984 -4.04612,9.3776 -7.60958,22.8048 -9.60881,36.2013 v 0 c -0.47853,3.2051 -1.54021,6.2441 -2.36018,6.7511 -3.87508,2.3973 -0.82608,-54.3569 3.17669,-59.1418 1.45567,-1.7402 1.6057,-2.9163 0.46249,-3.6224 -2.53735,-1.5668 -2.17545,-8.2482 0.50133,-9.2644 3.04299,-1.1561 2.96342,-4.1249 -0.11137,-4.1462 -1.62936,0 -2.19196,-1.1343 -1.77133,-3.5457 0.33836,-1.9413 1.4053,-8.7116 2.36958,-15.0466 1.43165,-9.4098 2.3767,-11.7534 5.15978,-12.8005 3.90219,-1.4671 5.34097,-4.5197 5.21271,-11.0581 -0.0573,-3.027 -0.88941,-4.591 -2.4451,-4.602 -3.09348,0 -3.33519,-12.6056 -0.76838,-40.0506 1.04911,-11.2211 1.81748,-24.7936 1.72985,-30.1623 -0.14694,-8.1441 0.33825,-10.0351 2.93263,-11.4196 3.6619,-1.9551 4.01583,-5.9722 0.6419,-7.281 -1.30518,-0.5059 -2.3935,-1.926 -2.41771,-3.1565 -0.0441,-1.2305 1.00801,-2.6361 2.29358,-3.1241 3.15567,-1.1983 2.88319,-4.7239 -0.52658,-6.8154 -2.58022,-1.5825 -2.52852,-1.8835 0.70381,-4.1888 3.96093,-2.8246 4.56772,-6.807 1.04198,-6.8319 -3.76688,-0.044 -2.89296,-5.8147 1.04208,-6.9007 3.28084,-0.9051 3.32935,-1.112 0.72483,-3.1005 -3.63346,-2.7738 -3.54338,-3.8146 0.63925,-7.3958 3.26884,-2.7987 3.3106,-3.1006 0.68543,-5.1295 -3.41567,-2.6402 -3.75928,-7.314 -0.53595,-7.2917 1.29588,0 2.33617,-1.0439 2.30961,-2.3394 -0.0441,-1.2956 -1.08494,-2.3631 -2.35324,-2.372 -2.75634,0 -1.51919,-4.8234 1.74823,-6.7901 1.61359,-0.9712 1.6955,-1.8175 0.33375,-3.4299 -1.27224,-1.506 -1.34392,-3.0391 -0.2448,-5.166 0.86014,-1.6632 1.12802,-3.455 0.59385,-3.9827 -0.53455,-0.5276 -0.14684,-5.248 0.86492,-10.4884 1.51085,-7.8364 2.61138,-9.9243 6.19482,-11.7717 2.7114,-1.3974 4.7155,-2.1184 5.84315,-2.1835 z m 184.48995,1.4521 c -1.44976,-0.062 -2.06049,0.8378 -2.02005,2.9073 0.0441,2.3661 0.88359,3.2206 2.80457,2.8632 1.5054,-0.2805 2.71806,-1.5528 2.69132,-2.8245 -0.0441,-1.2722 -1.28698,-2.5593 -2.80392,-2.8605 -0.24049,-0.05 -0.46483,-0.077 -0.67192,-0.085 z m -27.6877,0.4408 c 0.56673,0 1.43296,0.3648 2.74442,0.9646 2.25688,1.0349 3.51279,2.6455 3.05011,3.9133 -0.4317,1.185 -2.12383,2.1452 -3.75881,2.134 -2.11717,0 -2.99589,-1.1414 -3.05021,-3.9138 -0.0441,-2.2177 0.0713,-3.1226 1.01449,-3.0981 z m -163.50572,4.2886 c -2.36517,0 -3.16291,3.2927 -1.24916,5.1832 1.49434,1.4758 3.70233,-0.2804 3.65072,-2.9055 -0.0441,-1.2445 -1.10578,-2.2688 -2.40156,-2.2777 z m 128.79701,0.8982 c -2.7631,0 -5.92591,4.1774 -4.65592,6.1782 v 0 c 1.36851,2.155 4.50363,2.1177 6.67119,-0.08 2.08142,-2.1086 0.76875,-6.084 -2.01527,-6.1031 z m 14.31305,0.098 c -3.09431,0 -4.34074,2.1841 -3.04796,5.3985 1.39159,3.4592 4.44621,2.2489 4.98535,-1.9757 0.28037,-2.2145 -0.39615,-3.412 -1.93739,-3.4228 z m -116.53564,-0.1335 c 1.98441,0.4183 0.97883,7.2605 -2.01752,10.296 -4.07089,4.1244 -6.20327,3.9271 -6.29175,-0.5845 -0.0666,-3.4059 2.51069,-6.7623 7.27151,-9.468 0.40957,-0.2315 0.75412,-0.3027 1.03776,-0.2447 z m 72.53828,1.8536 c 2.2094,0.1066 3.84316,2.8098 3.93605,7.5476 0.0985,5.1009 -0.59469,6.4445 -4.34553,8.3778 -2.45637,1.2664 -4.91808,1.855 -5.47007,1.3097 -2.05666,-2.0309 -1.10926,-11.2295 1.49264,-14.5049 1.52951,-1.9249 3.06175,-2.7947 4.38691,-2.7302 z m 83.01472,1.9502 c -2.40063,0.077 -3.24782,4.3906 -1.03991,6.5719 1.89198,1.8682 4.42097,0.1335 4.35942,-2.9924 -0.0441,-1.644 -1.30076,-3.2355 -2.81827,-3.5367 -0.17359,-0.044 -0.34276,-0.05 -0.50124,-0.044 z m -128.03099,-0.089 c -0.92366,0 -1.91008,0.3338 -2.74433,1.177 -1.15963,1.1734 -1.61152,2.9114 -1.00782,3.8622 1.6302,2.5675 5.58943,2.1215 6.63676,-0.7475 0.8729,-2.3921 -0.85329,-4.2458 -2.88461,-4.2917 z m 137.30849,1.68 c -1.42546,-0.062 -2.05665,0.828 -2.01734,2.7947 0.0441,2.2476 1.07191,3.2625 3.31941,3.2781 4.02416,0.044 3.46513,-5.1731 -0.64413,-5.9899 -0.23599,-0.05 -0.45452,-0.077 -0.65794,-0.085 z m -25.26297,1.1762 c 1.8612,0 2.23342,1.7012 1.82208,8.2575 -0.54271,8.6495 -1.40717,13.1423 -1.70245,8.8443 -0.0983,-1.3915 -0.68815,-5.8105 -1.31577,-9.8223 -0.91737,-5.8596 -0.68243,-7.2925 1.19614,-7.2795 z m -54.13519,2.9005 c 1.24006,-0.2093 2.07429,1.9213 2.15761,6.1597 0.0666,3.4552 -0.0535,6.2228 -0.27163,6.1493 -0.21806,-0.071 -1.67683,-1.5135 -3.24116,-3.1997 -2.21194,-2.3844 -2.48705,-3.7536 -1.2424,-6.1597 0.96194,-1.8598 1.85314,-2.8244 2.59758,-2.9496 z m 15.91642,0.1514 c -2.13941,-0.1781 -4.42173,1.761 -4.36871,4.4555 0.0441,2.0833 1.09321,3.1981 3.03416,3.2118 3.41249,0.044 5.6325,-4.4572 3.33321,-6.7285 -0.58934,-0.5823 -1.28557,-0.8787 -1.99866,-0.9388 z m -86.29727,0.044 c -1.77,-0.116 -3.85283,0.8675 -4.1893,2.8097 -0.38733,2.2272 0.32484,2.7609 3.16544,2.3777 2.0148,-0.2716 3.64537,-1.5545 3.61863,-2.8502 -0.0441,-1.4906 -1.21838,-2.2463 -2.59477,-2.3372 z m 40.47303,1.5339 c 1.00426,-0.054 1.52464,1.7228 2.73768,6.8283 0.62001,2.6104 -0.0498,3.5509 -2.91933,4.0812 -3.19171,0.5902 -3.7393,0.072 -3.81183,-3.6128 -0.0441,-2.366 0.95087,-5.1679 2.2156,-6.2256 0.76602,-0.6409 1.32159,-1.0462 1.77788,-1.0711 z m 59.69788,0.5613 c -0.45807,-0.044 -0.91296,0.068 -1.32732,0.3251 -0.68073,0.4228 -1.20908,2.1385 -1.17793,3.815 0.0713,3.6751 4.49378,4.1136 5.78572,0.5743 0.76424,-2.094 -1.29541,-4.5866 -3.28047,-4.7134 z m -141.90501,-0.799 c -1.33641,-0.1019 -2.92298,0.8827 -3.25729,2.8138 -0.365,2.0963 0.28946,2.7414 2.3812,2.3513 1.58338,-0.2938 2.86058,-1.5878 2.83384,-2.8716 -0.0441,-1.473 -0.91849,-2.2124 -1.95775,-2.2935 z m 182.07451,4.1017 c -0.9322,0.045 -1.94979,0.6028 -2.82727,1.83 -1.44884,2.0269 -1.54548,3.4237 -0.33376,4.8558 2.26617,2.6835 6.16001,1.0466 6.08926,-2.5592 -0.0535,-2.6496 -1.37245,-4.1635 -2.92598,-4.1266 z m -127.01651,0.9936 c -1.33642,-0.102 -2.92335,0.8828 -3.25757,2.8139 -0.3651,2.0962 0.28937,2.7411 2.38111,2.3512 1.58384,-0.2938 2.85824,-1.5878 2.8315,-2.8717 -0.0441,-1.4731 -0.91559,-2.2124 -1.95504,-2.2934 z m 137.88142,1.6935 c -3.14142,0 -4.33944,3.0145 -2.07271,5.2531 1.71606,1.6951 4.36825,0.2716 4.8723,-2.6161 0.3072,-1.7629 -0.60407,-2.622 -2.79959,-2.637 z m -192.25841,0.2314 c -3.05368,0 -4.60684,2.5987 -3.36764,5.6793 1.34393,3.3417 4.77659,1.8807 5.30457,-2.2566 0.28045,-2.2146 -0.39615,-3.412 -1.93693,-3.4227 z m 127.30184,0.8875 c -3.04486,0 -6.25177,4.0987 -4.87669,6.2648 0.60548,0.9535 2.26626,1.5188 3.6921,1.2567 3.29238,-0.6068 4.37771,-7.4992 1.18459,-7.5215 z m -104.17827,0 c 0.7435,-0.094 0.97404,1.1498 0.92731,4.2029 -0.0441,2.9127 -0.53915,7.4117 -1.09734,9.999 -0.88903,4.1158 -1.12004,3.6569 -1.84966,-3.6797 -0.54937,-5.523 -0.17359,-8.9379 1.09734,-10.0018 0.3695,-0.3115 0.67436,-0.4892 0.92235,-0.5204 z m 17.66464,1.1677 c -1.54997,0.067 -3.37242,1.5811 -3.68506,4.1199 -0.46737,3.7967 -0.1735,4.0074 3.5658,2.5872 1.35603,-0.5145 2.43949,-2.3241 2.40382,-4.0224 -0.0441,-1.9069 -1.07857,-2.735 -2.28456,-2.6847 z m 99.5339,2.4057 c -1.87537,0.044 -3.44945,2.4763 -2.41761,5.0417 0.54628,1.3577 1.74373,2.4738 2.66147,2.48 2.54382,0 3.6967,-4.6648 1.64719,-6.6893 -0.60624,-0.5991 -1.26596,-0.8475 -1.89105,-0.8324 z m -36.54851,1.367 c 2.17365,0.089 2.37266,1.5202 0,4.0121 -2.04061,2.1568 -1.8203,5.1986 -1.09499,5.6469 0.72464,0.4479 1.05361,2.902 0.72905,5.4523 -0.44906,3.529 0.20474,5.0622 2.74218,6.4234 3.92404,2.1058 4.46441,8.3788 1.22381,14.2271 -1.19173,2.1512 -2.29207,3.3807 -2.44313,2.7321 -0.15126,-0.649 -0.46653,-1.8884 -0.69932,-2.7538 -0.23138,-0.8652 -0.53857,-2.9877 -0.68101,-4.7159 -0.14253,-1.7286 -0.96513,-3.1467 -1.82884,-3.1531 -0.93792,0 -1.45464,6.157 -1.29269,15.3028 0.19592,10.8585 -0.20023,14.6244 -1.36165,12.9464 -0.90142,-1.3022 -1.57277,-7.81 -1.49302,-14.4618 0.0797,-6.652 -0.28496,-12.5208 -0.81472,-13.0421 -2.05843,-2.0331 -4.25255,9.6834 -4.02098,21.4671 0.17359,8.8608 -0.47149,13.5051 -2.26804,16.3194 -3.64857,5.7152 -0.4319,8.0555 4.19821,3.0542 4.20441,-4.5419 7.19683,-4.9047 11.15456,-1.3578 5.82804,5.2227 8.13043,-1.0082 2.82005,-7.6313 -2.2688,-2.8307 -3.26518,-6.392 -3.37683,-12.0729 -0.15585,-7.8619 -0.0845,-7.991 2.88948,-5.2297 2.08874,1.9404 3.36051,5.7963 4.04415,12.2596 0.54853,5.186 1.78333,13.3225 2.74452,18.0793 0.96053,4.7575 1.93683,15.6174 2.1669,24.133 0.38292,14.1531 0.18259,15.3827 -2.35127,14.3311 -1.5237,-0.6329 -4.01478,-1.5143 -5.53464,-1.9595 -2.23324,-0.6544 -2.79856,-2.6031 -2.94691,-10.1539 -0.28486,-14.4133 -4.37856,-19.165 -10.54747,-12.2406 -2.11043,2.3696 -2.88508,5.8859 -2.90281,13.1937 0,7.5496 -0.81511,10.9842 -3.28254,14.1843 -3.91964,5.0832 -2.83215,7.8246 1.89545,4.7747 5.60754,-3.6168 14.07707,-4.4146 20.0711,-1.8887 5.32098,2.2422 5.59778,2.8173 13.59985,28.0977 4.49303,14.1942 10.22883,35.3621 12.74656,47.04 4.31899,20.0337 4.7841,21.2338 8.25588,21.2578 2.02373,0 4.17073,-1.0309 4.77115,-2.3219 0.60004,-1.2919 2.93095,-6.5753 5.17817,-11.7422 5.45085,-12.5308 12.6534,-23.9837 16.30994,-25.9362 4.87454,-2.6022 8.80694,-0.1335 17.30143,10.8637 6.06299,7.8493 9.10608,13.7633 12.30726,23.9181 2.33823,7.4194 6.92387,21.6354 10.19027,31.5913 5.83827,17.7919 9.88167,34.4105 11.95792,49.1576 1.00773,7.1616 0.89026,7.4665 -2.88253,7.4403 -3.72232,-0.045 -4.05438,-0.7261 -6.14875,-12.999 -2.66476,-15.6124 -10.34021,-37.5599 -15.85918,-45.3431 -6.71388,-9.467 -18.10798,-17.1775 -25.58752,-17.3142 -10.04578,-0.1826 -17.69262,10.3004 -24.34504,33.3839 -3.61825,12.5543 -3.905,15.5759 -2.87081,30.2095 l 1.14988,16.2603 -6.1463,-0.043 -6.14444,-0.045 -0.45545,-37.3017 c -0.36049,-29.4376 -1.02021,-39.4545 -3.14235,-47.5252 -3.72766,-14.175 -8.69923,-24.638 -15.46547,-32.8057 -2.63098,-3.1757 -6.82695,-7.938 -16.68497,-7.45 -10.01951,0.4967 -10.93743,1.984 -16.77693,7.7572 -8.56964,8.4722 -22.34149,38.0955 -25.03777,53.855 -1.11733,6.532 -3.03286,15.9889 -4.25564,21.0142 -1.22242,5.0254 -2.47824,16.8518 -2.79022,26.2834 v 0 l -0.56851,17.1477 -5.09523,-0.045 -5.09298,-0.044 1.41476,-6.6636 c 2.22696,-10.494 -0.23597,-49.3894 -3.60727,-56.9305 -3.97951,-8.9061 -8.77214,-13.4312 -14.26671,-13.4694 -3.6631,-0.044 -6.82863,2.2235 -15.01011,10.6659 -12.70472,13.109 -19.17905,26.0745 -21.2054,42.474 -1.71126,13.851 -3.85424,20.3894 -6.67776,20.3694 -6.54696,-0.044 -2.23418,-30.2528 7.55422,-52.9165 3.35123,-7.7585 7.84181,-19.6624 9.97906,-26.4538 6.55982,-20.843 13.4441,-34.4189 19.28678,-38.0339 11.67053,-7.2199 15.21494,-4.1325 23.37417,20.3698 2.43413,7.3099 5.21506,13.5589 6.17925,13.8847 3.12903,1.0582 17.10101,-32.4357 28.21664,-67.6421 9.96601,-31.5895 10.76244,-35.1129 9.73284,-43.4119 -0.93979,-7.5742 -0.57705,-9.9777 2.24085,-14.898 3.0168,-5.2684 3.15623,-6.5469 1.37066,-12.5182 -1.52249,-5.1117 -1.58038,-7.9474 -0.24039,-12.2516 1.03981,-3.3421 1.27317,-8.9342 0.5778,-13.8719 -0.87702,-6.2245 -0.38742,-10.9303 1.98046,-19.0174 l 3.14685,-10.7482 -3.60436,-3.7821 c -6.97389,-6.7757 1.59351,-3.1571 5.11109,-6.6079 0.97761,-0.99 0.0535,-2.4692 -2.64328,-4.2326 -5.09344,-3.3307 -5.33421,-5.1843 -0.66019,-5.0862 1.94396,0.044 5.90282,-0.4097 8.77139,-1.1165 1.1419,-0.2805 2.08687,-0.4006 2.81113,-0.3695 z m 51.27338,0.9789 c -1.4842,-0.077 -2.92147,0.9985 -3.20418,2.508 -0.37842,2.0178 0.54664,2.2324 3.31002,2.7698 1.9784,0.3828 2.164,-0.4478 1.87031,-1.9908 -0.29387,-1.5429 -1.22917,-3.2484 -1.97615,-3.287 z m 37.21367,2.7578 c -1.78558,-0.2048 -3.49768,2.3837 -2.38787,5.1428 1.06309,2.6429 4.39104,2.5886 5.18522,-0.084 0.24039,-0.8084 -0.24931,-2.5298 -1.08805,-3.8243 -0.50968,-0.7862 -1.11414,-1.165 -1.7093,-1.2332 z m -138.49129,-0.9433 c -1.11339,-0.071 -2.22123,0.2938 -2.79951,1.2548 -0.69678,1.1596 -0.88369,2.7145 -0.41416,3.4549 v 0 c 1.19933,1.8889 5.65351,0.8169 6.39299,-1.538 0.54534,-1.7379 -1.32563,-3.0552 -3.18149,-3.1717 z m 126.01177,1.2793 c -1.29579,0 -2.55076,1.5723 -2.78843,3.5142 -0.33385,2.7168 0.34276,3.5354 2.92645,3.5536 2.58538,0 3.22727,-0.7915 2.78805,-3.5141 -0.31611,-1.9457 -1.63057,-3.5448 -2.92607,-3.5537 z m -98.48967,-0.609 c 0.94955,-0.062 1.16245,1.9952 1.28171,8.0627 0.1019,5.1407 1.04254,10.1504 2.10469,11.1993 1.49424,1.476 1.19427,1.8922 -1.35011,1.8748 -2.06566,0 -3.64688,-1.3282 -4.28821,-3.5633 -1.84703,-6.4331 -1.32702,-14.8972 1.03495,-16.8732 0.50396,-0.4228 0.90057,-0.6793 1.21697,-0.7003 z m -81.05894,0.3338 c -2.06162,0.044 -4.13958,1.6222 -4.0996,3.6589 0.0441,1.323 1.38576,2.4135 3.02046,2.4251 3.3164,0.045 5.54045,-4.0294 3.05509,-5.5638 -0.60454,-0.3741 -1.28922,-0.532 -1.97595,-0.5202 z m 124.61249,1.4646 c -1.29541,0 -2.55516,1.636 -2.80185,3.6543 -0.34717,2.8459 0.19141,3.5507 2.41556,3.1362 3.44363,-0.6414 3.79221,-6.7664 0.38723,-6.7905 z m -12.06537,0.5694 c 0.68196,-0.1647 1.08871,1.4798 1.75959,5.7657 0.62585,4.001 0.75814,7.9054 0.29378,8.6769 -0.89879,1.4963 -3.65691,1.9058 -4.00953,0.5952 -1.06871,-3.9716 -0.62753,-11.5358 0.80262,-13.7735 0.47507,-0.7431 0.84269,-1.1899 1.15251,-1.2643 z m -73.27248,1.1913 c -3.05388,0 -4.60695,2.5987 -3.36764,5.6793 1.34392,3.3417 4.77874,1.8835 5.30663,-2.2544 0.28045,-2.2145 -0.39624,-3.4142 -1.93899,-3.4249 z m 100.26961,2.9745 c -1.53345,0.071 -2.24665,1.4731 -2.19176,4.2522 0.0441,1.8322 1.19867,2.888 3.19743,2.9018 3.65832,0.045 4.30509,-5.4272 0.80496,-6.785 -0.695,-0.2716 -1.29916,-0.3917 -1.81063,-0.3694 z m 14.47201,1.8746 c -1.81439,0.089 -2.94016,2.0437 -1.96433,4.4697 0.54609,1.3574 1.74354,2.4738 2.66148,2.4799 2.69986,0 3.69707,-4.8819 1.29495,-6.3652 -0.70505,-0.4361 -1.38709,-0.6143 -1.9921,-0.5844 z m 39.93707,2.6273 c -0.71095,0.044 -1.70808,0.4674 -3.02037,1.2992 -1.24766,0.7912 -1.71202,2.4961 -1.09734,4.0248 1.4219,3.5345 4.85671,2.2489 5.40158,-2.021 0.28928,-2.2704 -0.0985,-3.3525 -1.28387,-3.303 z m -194.60911,-1.2817 c -0.77907,-0.077 -1.52783,0.5565 -2.56015,1.9859 -1.17736,1.6306 -1.75788,3.5693 -1.28827,4.3092 1.41204,2.2244 5.41565,1.5469 6.37413,-1.0782 0.49288,-1.3502 0.0441,-3.2964 -1.0234,-4.3252 -0.55595,-0.5414 -1.03495,-0.8449 -1.50231,-0.8917 z m 54.59542,1.011 c -1.76991,-0.116 -3.85283,0.8677 -4.18874,2.8097 -0.38743,2.2272 0.32474,2.761 3.16497,2.3776 2.01471,-0.2715 3.64538,-1.5544 3.61863,-2.8501 -0.0441,-1.4906 -1.21838,-2.2462 -2.59486,-2.3372 z m 125.7514,1.956 c -1.87537,0.044 -3.45171,2.4786 -2.41986,5.044 0.54571,1.3573 1.74372,2.4738 2.66166,2.48 2.54353,0 3.69867,-4.6652 1.64925,-6.6893 -0.60624,-0.5991 -1.26605,-0.8499 -1.89105,-0.8347 z m -54.93827,-0.1513 c -0.71274,0.044 -1.47933,0.3383 -2.21729,0.9553 -1.83015,1.5308 -1.96723,2.5235 -0.57743,4.169 2.40729,2.8503 4.47239,2.7496 5.57592,-0.2717 1.01683,-2.7862 -0.64236,-4.9732 -2.7812,-4.8504 z m -86.89073,1.9751 c -2.95264,0 -4.54596,2.6073 -3.36315,5.5479 1.05193,2.6153 2.45599,2.8389 5.53961,0.8833 2.63567,-1.672 1.0326,-6.4089 -2.17646,-6.4312 z m 103.17974,2.8775 c -0.6753,0 -1.35903,0.5756 -2.45187,1.6826 -1.35499,1.3729 -2.04239,3.5395 -1.52998,4.8135 1.24015,3.0823 6.73922,3.0034 7.87652,-0.1114 0.49637,-1.3589 -0.17358,-3.5328 -1.49029,-4.8321 -1.06131,-1.0478 -1.72863,-1.5697 -2.40438,-1.5509 z m 13.7634,2.6491 c -2.09363,0 -3.11796,1.0249 -3.07781,3.1187 0.0441,2.094 1.10841,3.1477 3.20241,3.1624 2.09353,0 3.12003,-1.0244 3.07996,-3.1182 -0.0441,-2.0945 -1.11057,-3.1483 -3.20456,-3.1629 z M -827.9647,2789.52 c -0.95969,0.044 -2.02682,0.5048 -2.99494,1.4859 -1.99783,2.0237 -2.05403,2.8709 -0.32945,4.9137 1.58883,1.8808 2.58633,2.0477 4.19607,0.7007 1.16179,-0.9719 2.09484,-2.6994 2.07269,-3.8387 -0.0441,-2.13 -1.34439,-3.3122 -2.94475,-3.2616 z m 193.65486,1.7183 c -1.59098,0 -2.71234,1.92 -1.7046,4.4258 0.54637,1.3573 1.68142,2.4732 2.52148,2.479 2.70024,0 3.54789,-3.1824 1.48804,-5.621 -0.76114,-0.9015 -1.58159,-1.2886 -2.30492,-1.2838 z m -140.72463,-0.1336 c -2.98566,-0.08 -4.0753,2.7115 -1.71155,5.0463 1.86562,1.8425 5.97038,0.3651 5.9214,-2.13 -0.0441,-1.284 -1.63996,-2.5695 -3.5887,-2.8594 -0.21374,-0.044 -0.42308,-0.053 -0.62115,-0.057 z m 127.91126,3.9837 c -1.40397,0.1114 -2.87382,1.5225 -3.19481,4.1297 -0.32952,2.6692 0.34717,3.5199 2.81555,3.5372 2.44435,0 3.23177,-0.9797 3.1721,-4.0197 -0.0497,-2.5779 -1.38831,-3.7602 -2.79284,-3.6472 z m -52.91381,0.7674 c -0.56167,-0.044 -0.87693,0.077 -0.87159,0.3251 0,0.893 4.489,3.7437 9.9376,6.3354 11.01231,5.2386 17.80145,6.4535 13.7313,2.4564 -2.84097,-2.7897 -18.86303,-8.9566 -22.79731,-9.1169 z m -60.99723,0.08 c -0.6023,-0.045 -1.61378,0.1423 -3.06888,0.5675 -5.85215,1.7183 -26.6145,14.0941 -27.29879,16.2713 -0.84654,2.6928 2.07991,1.5349 18.05817,-7.1482 9.85492,-5.3553 14.9189,-9.534 12.3095,-9.6906 z m 15.67696,0.3115 c 0.95228,0.071 1.29813,3.2158 1.02387,9.3309 -0.76622,17.1091 -2.90721,20.9859 -2.89389,5.2453 0,-8.2688 0.69123,-14.2299 1.67242,-14.5499 0.0676,-0.044 0.13343,-0.044 0.19582,-0.044 z m -45.18188,-0.2626 c -1.73603,-0.068 -2.98518,1.5136 -2.93094,4.2765 0.0713,3.5235 3.58316,4.063 6.12622,0.9425 1.32084,-1.6213 1.1771,-2.5988 -0.60267,-4.0644 -0.91427,-0.753 -1.80378,-1.1243 -2.59261,-1.1546 z m 157.39113,6.2001 c -0.365,0 -0.71573,0.044 -1.02162,0.138 -2.74038,1.0408 -2.83825,6.2572 -0.13793,7.2707 v 0 c 1.08749,0.4096 2.95752,-0.1913 4.15675,-1.3305 1.7456,-1.6605 1.78163,-2.5432 0.187,-4.4293 -0.82082,-0.9714 -2.09043,-1.5946 -3.19087,-1.6508 z m -195.95041,0.1424 c -1.33641,-0.1019 -2.92335,0.885 -3.25767,2.8162 -0.36499,2.0957 0.28928,2.7408 2.37887,2.3512 1.58384,-0.2937 2.86067,-1.5878 2.83393,-2.8717 -0.0441,-1.473 -0.91568,-2.2152 -1.95513,-2.2957 z m 181.78213,4.3572 c -3.02487,0 -3.94769,5.5012 -1.20279,7.1964 v 0 c 1.17155,0.7256 2.71937,0.7203 3.44092,0 1.99031,-2.0165 0.38732,-7.1657 -2.23813,-7.1838 z m 27.62082,2.548 c -2.62357,0 -4.349,2.2103 -2.85467,3.6864 1.91366,1.8902 5.21054,1.051 5.16419,-1.3145 -0.0441,-1.2959 -1.06478,-2.363 -2.30952,-2.3719 z m -209.67899,1.6779 c -2.99458,0 -4.36824,4.4127 -2.07045,6.6823 1.79225,1.7698 5.32896,-0.7044 5.27023,-3.6877 -0.0441,-1.9262 -1.1649,-2.9803 -3.19978,-2.9946 z m 129.9149,1.0162 c -0.94111,0.08 -1.32037,3.7194 -1.54116,6.6814 -0.94064,12.6236 0.83828,48.8928 2.62254,54.8551 0.94984,3.1753 4.72874,3.7166 5.75795,0.8248 0.38273,-1.0772 0.11138,-13.2691 -0.60491,-27.0937 -0.92292,-17.7974 -2.58285,-26.5438 -3.84664,-30.6499 -1.0554,-3.4304 -1.82283,-4.6653 -2.38778,-4.6177 z m 66.34148,2.1029 c -1.21359,-0.044 -1.73209,1.5453 -0.77062,3.9353 0.8257,2.053 1.51047,2.2614 2.88019,0.8739 1.36794,-1.3876 1.34524,-2.267 -0.0985,-3.693 -0.76435,-0.7551 -1.45915,-1.1014 -2.01078,-1.1162 z m -53.39243,4.7646 c -0.52657,-0.044 -1.06018,0.4006 -1.59895,1.2726 -2.4452,3.9611 1.01543,59.6344 3.99846,64.3333 1.01307,1.5954 1.25975,1.6187 4.44208,0.4097 3.05997,-1.1619 2.93667,-11.4467 -0.49008,-40.9623 -1.91365,-16.4837 -4.06958,-24.9532 -6.35151,-25.0542 z m 43.23125,1.2655 c -2.75822,0 2.62948,4.0665 9.52642,7.2231 9.76795,4.4707 13.35497,5.0231 10.4758,1.6141 -1.61772,-1.9155 -17.24054,-8.818 -20.00222,-8.8372 z m -185.26716,0.2804 c -3.20821,-0.044 -4.62617,4.6947 -1.92313,6.398 1.47219,0.9271 2.84548,0.5407 4.08084,-1.1472 2.14204,-2.9264 1.19651,-5.2275 -2.15771,-5.2508 z m 65.22548,2.0259 c -2.18576,0 -2.71956,7.4035 -2.22892,30.9984 0.40506,19.4315 0.90949,23.956 2.6869,23.9685 4.55524,0.044 5.62977,-11.8851 3.06842,-34.0543 -1.32834,-11.498 -2.91529,-20.908 -3.5264,-20.9126 z m -12.64739,4.0457 c -0.49673,-0.044 -1.02078,0.6531 -1.55541,2.1355 -1.70442,4.727 -2.75015,48.8133 -1.24691,52.5509 0.58541,1.4553 2.29892,2.4162 3.80752,2.1358 2.43628,-0.4523 2.74751,-3.0488 2.77425,-23.2607 0.0441,-19.9069 -1.6284,-33.4307 -3.77945,-33.5615 z m 102.3076,2.7818 c -0.26253,0 -0.53895,0.1868 -0.8394,0.4909 -1.30039,1.3177 -0.0441,58.1866 1.38924,62.422 v 0 c 1.04442,3.1054 1.42715,3.2299 3.4945,1.1355 2.00232,-2.029 2.05036,-6.4451 0.35167,-32.2675 -1.59764,-24.2574 -2.56539,-31.8837 -4.39141,-31.7809 z m -154.07594,0.7428 c -0.21374,0 -0.45,0.05 -0.7087,0.098 -1.5736,0.2939 -3.08539,1.8238 -3.35824,3.4019 -0.36059,2.0723 0.29828,2.7207 2.36459,2.3353 1.57418,-0.2939 3.08587,-1.8238 3.35873,-3.4019 0.31611,-1.8132 -0.15145,-2.537 -1.65638,-2.4315 z m 8.77119,3.0333 c -1.81259,0 -16.75056,10.4399 -19.76033,13.8257 -4.36204,4.9073 -2.14119,4.0665 9.93318,-3.7611 9.46619,-6.1371 13.27727,-10.0404 9.82715,-10.0646 z m 30.2595,0.8619 c -0.34717,0.071 -0.68506,0.4406 -1.0858,1.092 -1.56508,2.5405 -0.94055,50.606 0.67895,52.2055 0.6053,0.5983 1.84648,0.8422 2.75812,0.544 2.38206,-0.7804 2.15058,-47.2176 -0.25812,-51.5747 -0.92282,-1.6689 -1.51666,-2.3861 -2.09362,-2.2668 z m 143.52235,3.4922 c -2.46781,0 -3.33724,7.3238 -1.30207,11.0055 2.80982,5.0838 5.37343,1.5822 3.93343,-5.3738 -0.63974,-3.0921 -1.8234,-5.6258 -2.63136,-5.6317 z m -80.30015,1.2874 c -1.0719,-0.094 -2.21784,0 -3.39071,0.2805 -5.42917,1.3314 -5.25418,5.2733 0.27154,6.1462 8.94769,1.4138 10.0774,1.2474 9.50766,-1.3897 -0.62237,-2.878 -3.17266,-4.7623 -6.38849,-5.0387 z m 89.44638,3.3591 c -1.37517,-0.2358 -2.80766,2.9114 -3.47807,9.1333 -0.89251,8.2865 2.53067,46.4082 4.43729,49.4117 1.50062,2.3634 4.96265,1.3191 5.69809,-1.7178 0.68598,-2.8303 -1.86214,-35.2229 -3.93353,-50.006 -0.61862,-4.4142 -1.65412,-6.6395 -2.72378,-6.8212 z m 12.26344,2.4225 c -1.05671,-0.3159 -2.0499,0.5997 -2.43357,3.2199 -0.59431,4.0554 0.52264,63.8614 2.44745,65.7624 2.0757,2.0503 3.78106,1.0234 5.36903,-3.2336 1.93374,-5.1849 -0.87167,-55.5305 -2.56502,-61.5976 -0.63964,-2.2916 -1.761,-3.8357 -2.81789,-4.1511 z m -198.36802,15.6348 c -2.70623,0.2893 -4.27263,10.1078 -4.9025,30.5982 -0.55998,18.2243 -0.33395,20.8069 1.80378,20.8221 1.34336,0 3.20418,-1.4574 4.13592,-3.2585 2.37622,-4.5927 1.94968,-47.2648 -0.4808,-48.0933 -0.19131,-0.067 -0.37391,-0.089 -0.5564,-0.067 z m 168.77331,7.9265 c 0.29378,-0.044 0.6645,1.083 1.29766,3.085 0.82121,2.5968 1.1284,7.7697 0.68328,11.4951 -0.58982,4.9292 -0.077,7.8676 1.88832,10.7906 1.9782,2.9447 2.46658,5.7892 1.83145,10.6588 -0.64958,4.9781 -0.2494,7.1479 1.5891,8.6631 5.88678,4.8477 1.0203,20.4713 -6.36042,20.4201 -1.74852,0 -5.05911,0.6856 -7.35644,1.5497 -4.16152,1.5652 -4.17392,1.5491 -3.25288,-4.3408 0.50837,-3.2513 3.02441,-9.0304 5.59197,-12.8409 4.49209,-6.6652 4.56921,-7.0905 2.0589,-11.2205 -2.91792,-4.8021 -3.51129,-12.8202 -1.45605,-19.6626 0.75045,-2.4991 1.79843,-8.0751 2.3282,-12.39 0.52469,-4.276 0.77803,-6.1766 1.15691,-6.2076 z m -182.29538,-0.094 c -1.59097,0.3739 -2.29339,6.5767 -3.12143,24.0406 -0.66544,14.0351 -0.4577,22.4566 0.60501,24.3792 1.81232,3.2786 3.96497,3.7959 5.45901,1.3101 1.45558,-2.423 -0.0938,-47.5492 -1.68631,-49.1229 -0.47459,-0.4686 -0.88903,-0.693 -1.25628,-0.607 z m 32.15044,1.4458 c 1.104,-0.2627 2.07044,4.0879 2.2521,12.0743 0.15135,6.6953 1.15063,15.0072 2.21776,18.4695 2.41892,7.8481 2.64186,24.066 0.365,26.3741 -2.25971,2.2903 -2.03123,9.4115 0.37841,11.7923 1.49424,1.4761 1.00782,1.8913 -2.19027,1.8687 -2.26138,0 -5.04531,0.2982 -6.1876,0.7002 -2.71054,0.9504 -7.70256,-5.8453 -7.79639,-10.6133 -0.0441,-2.3466 1.70179,-5.0481 4.71372,-7.2873 4.22449,-3.1397 4.65451,-4.1903 3.66892,-8.9502 -0.83592,-4.0413 -0.37841,-6.3489 1.8265,-9.2076 2.78842,-3.6159 2.80766,-4.3368 0.36508,-13.7928 -1.57014,-6.0705 -2.1973,-12.2396 -1.6058,-15.7597 0.62106,-3.6913 1.33248,-5.5106 1.99473,-5.6682 z m 43.16257,12.7531 c -3.67371,-0.044 -5.67707,5.5397 -3.09423,8.5978 2.82231,3.3418 6.31802,1.0747 6.218,-4.0326 -0.0676,-3.4442 -0.82354,-4.549 -3.12377,-4.5652 z m 76.49065,5.9465 c -0.97714,0.068 -2.08789,0.9446 -3.16993,2.7083 -1.14989,1.8722 -1.09069,3.6891 0.20032,6.2816 1.0006,2.0063 2.23277,4.8767 2.73982,6.3774 v 0 c 0.56448,1.6715 1.84873,2.3748 3.31735,1.8174 2.56324,-0.9735 3.02385,-2.5279 1.2651,-4.2653 -0.5974,-0.5904 -1.18854,-3.7153 -1.31361,-6.9449 -0.15585,-3.9688 -1.4142,-6.0897 -3.04355,-5.9745 z m -89.09686,1.0322 c -2.68662,0 -5.34059,7.268 -3.92686,10.7827 1.27637,3.1726 3.36191,3.254 6.33059,0.2449 2.76751,-2.8037 0.97977,-11.0056 -2.40373,-11.0293 z m -13.02927,6.9761 c -3.07827,0 -4.60197,5.8846 -2.24103,8.6801 2.68795,3.1825 4.6898,1.4155 4.58255,-4.0446 -0.0582,-2.9621 -0.89879,-4.6252 -2.34152,-4.6355 z m 115.38811,2.7236 c -2.35897,-0.05 -4.80943,5.2038 -3.59321,8.2264 0.56486,1.4044 2.17,2.342 3.56787,2.0816 2.99008,-0.5574 3.41033,-9.2383 0.49457,-10.2244 -0.15585,-0.054 -0.3116,-0.08 -0.46923,-0.084 z m -99.75468,6.3086 c -2.6977,-0.1869 -7.10469,1.9679 -6.07772,3.5858 1.34392,2.1162 6.65777,2.0699 7.94333,-0.068 0.56138,-0.9353 0.40056,-2.2756 -0.36068,-2.9792 -0.35158,-0.3252 -0.88444,-0.4947 -1.50682,-0.5374 z m 45.97332,1.5607 c -6.95287,-0.3161 -13.95959,4.4419 -18.15256,12.1163 l -2.36244,4.3242 c -4.99287,9.1387 -8.51927,17.8196 -6.90567,19.4133 v 0 c 2.29028,2.2621 5.0957,0.3471 10.6535,-7.2642 11.19022,-15.3297 19.55438,-15.392 26.54853,-0.2002 4.1591,9.0331 7.97308,11.091 11.81484,6.3764 2.5303,-3.1045 -1.49396,-13.9192 -6.82066,-23.7922 -3.99574,-7.4066 -9.37001,-10.7256 -14.7777,-10.9726 z m 43.79019,1.9365 c -2.76732,0.085 -5.46013,2.1666 -4.44649,4.687 1.09152,2.7123 7.78486,3.1999 9.30058,0.6766 0.56673,-0.9424 -0.0498,-2.7817 -1.37329,-4.0878 -0.94768,-0.9363 -2.22227,-1.3136 -3.4808,-1.2758 z m 58.91815,9.0558 c -1.60289,-0.054 -3.03511,0.8613 -2.99729,2.783 0.0441,1.555 -0.72953,3.6223 -1.68837,4.5941 -0.96026,0.9714 -1.29588,2.8766 -0.75008,4.2343 0.54609,1.3573 2.70333,2.4799 4.79648,2.4947 4.17692,0.045 6.52998,-5.5615 4.66971,-11.0942 -0.65305,-1.9422 -2.42699,-2.9594 -4.03045,-3.0119 z m -150.35634,0.649 c -0.31601,-0.045 -0.69978,0 -1.14585,0.085 -1.53308,0.2893 -3.08624,1.4707 -3.4503,2.6304 -0.42308,1.3483 0.34267,1.9208 2.12769,1.5861 1.53354,-0.2894 3.08633,-1.4714 3.45049,-2.6304 0.31592,-1.0116 -0.0441,-1.5875 -0.98203,-1.6702 z m 90.77153,2.4458 c -0.53201,0 -1.05999,0.1113 -1.52286,0.3961 -0.86726,0.5364 -1.1571,1.6377 -0.64423,2.4457 1.21622,1.9137 5.46474,1.9329 5.42907,0 -0.0441,-1.5906 -1.66575,-2.8285 -3.26198,-2.8642 z m 69.89274,0.7567 c -0.60454,0.08 -1.07941,1.3131 -1.97323,4.0255 -1.27233,3.8528 -1.24249,5.7247 0.11138,7.3299 1.37488,1.6279 2.33514,1.7219 3.93109,0.3873 2.68783,-2.2471 2.62234,-6.2463 -0.16468,-9.9754 -0.88726,-1.1878 -1.43653,-1.8275 -1.90709,-1.7665 z m -222.00435,0.2092 c -0.33835,0 -0.66422,0.062 -0.96429,0.1736 -2.45505,0.9321 -4.47914,10.223 -3.01812,13.855 1.12896,2.8048 5.96681,3.1633 8.47047,0.6272 1.88016,-1.9048 0.78385,-10.2324 -1.76916,-13.4304 -0.61918,-0.7754 -1.70798,-1.2375 -2.7189,-1.2268 z m 213.13202,17.9112 c -3.96365,-0.044 -5.13399,1.4758 -2.88235,3.6997 1.64708,1.627 5.61467,0.552 6.32617,-1.7133 0.38714,-1.2302 -0.89663,-1.9686 -3.44382,-1.9864 z m -212.66512,4.7992 c -3.26246,-0.044 -4.20714,1.6194 -2.11905,3.6819 1.48382,1.4654 4.08572,0.4901 4.80558,-1.7998 0.32493,-1.0395 -0.8592,-1.8692 -2.68653,-1.8821 z m 106.33364,4.9814 c 1.62569,-0.044 2.08779,0.6912 2.58538,2.4657 0.64067,2.2836 1.77985,2.926 4.12268,2.3266 4.66164,-1.1929 7.78307,4.5648 3.24341,5.9831 -4.5148,1.4102 -2.70351,4.7569 2.29826,4.2462 2.27969,-0.2314 4.15956,0.3117 4.17739,1.2073 0,0.896 -0.9869,1.6239 -2.23146,1.6149 -3.11711,0 -4.67242,3.0231 -2.5926,5.0776 1.21791,1.2032 2.40419,1.1158 4.09716,-0.3027 1.80867,-1.5136 2.39313,-1.5339 2.41987,-0.089 0,1.047 -1.52689,3.1927 -3.43876,4.7682 -2.82503,2.3267 -3.09253,3.2477 -1.43353,4.9126 1.67241,1.6782 2.66692,1.6685 5.49373,-0.058 1.89854,-1.1585 2.97721,-1.591 2.39668,-0.9608 -0.58005,0.6299 -0.33393,2.9515 0.54534,5.1567 1.41776,3.555 1.31174,3.7718 -0.92731,1.928 -2.10911,-1.7374 -2.94334,-1.6538 -5.07422,0.5053 -3.29736,3.3403 -0.20924,7.4309 3.35591,4.447 2.78937,-2.334 6.32074,1.331 4.93684,5.1228 -0.51559,1.4126 -0.25371,3.4477 0.58673,4.5223 1.35189,1.7326 1.73246,8.9949 1.13871,21.7905 -0.1247,2.7359 -1.29504,4.4154 -3.45311,4.9674 -3.63243,0.93 -3.43268,6.8967 0.20482,6.1022 3.6511,-0.7977 4.77424,3.2144 5.09523,18.1788 0.3071,14.4564 0.28919,14.5289 -3.616,14.5017 -3.58166,-0.044 -3.93878,-0.6231 -4.0602,-6.8071 -0.18709,-9.5727 -3.45349,-24.7962 -6.22015,-28.9917 -2.87269,-4.3564 -7.89896,-4.6395 -10.00721,-0.5644 -0.86135,1.6643 -1.41918,10.4931 -1.23968,19.6204 l 0.32503,16.595 -5.38788,-0.044 c -5.13118,-0.044 -5.33019,-0.2448 -4.23013,-4.3541 0.63513,-2.3734 1.51695,-9.61 1.95982,-16.0825 0.95049,-13.8897 -1.18272,-19.6328 -7.30839,-19.6754 -6.01044,-0.044 -12.48487,14.6371 -13.16289,29.8409 l -0.51991,11.6777 -9.2152,-0.062 -9.21781,-0.062 -0.0983,-4.9809 c -0.12029,-6.2345 3.60437,-29.1813 6.52857,-40.1957 1.69513,-6.3859 1.76944,-8.8149 0.32062,-10.5288 -2.19599,-2.5998 -0.92911,-5.4999 2.39218,-5.4768 3.2101,0.044 4.45157,-4.2383 2.05872,-7.0708 -1.64342,-1.9467 -1.44714,-2.3475 1.15485,-2.3291 1.7276,0 3.99265,-1.0225 5.0334,-2.2999 2.58013,-3.1662 0.73938,-7.315 -2.67104,-6.0204 -2.07345,0.7874 -2.44286,0.4007 -1.66304,-1.7371 0.552,-1.5122 1.00031,-3.0457 0.9914,-3.4068 0,-0.3605 0.9611,-0.6513 2.15095,-0.6426 1.18995,0 3.08446,-1.1157 4.20976,-2.4966 1.73388,-2.1282 1.60843,-2.8272 -0.81416,-4.5904 -2.69798,-1.9636 -2.65491,-2.1884 0.76565,-3.9859 4.52597,-2.378 6.11966,-4.7294 5.06098,-7.4688 -1.48814,-3.8524 7.83478,-13.7949 14.48355,-15.445 2.07353,-0.5144 3.46869,-0.8134 4.44452,-0.8362 z m 108.01994,2.7937 c -1.29588,0 -2.34377,0.6908 -2.32594,1.5551 0,0.8639 1.0902,1.5788 2.38561,1.5877 1.29589,0 2.34377,-0.6914 2.32595,-1.555 0,-0.864 -1.09021,-1.5789 -2.38562,-1.5878 z m -116.42352,4.0255 c -0.74293,-0.1292 -1.86523,0.2938 -3.40235,1.2692 -1.17521,0.746 -1.65553,2.114 -1.06713,3.0409 1.41881,2.2342 5.65624,0.5389 5.60155,-2.241 -0.0441,-1.2504 -0.38743,-1.9377 -1.13207,-2.0691 z m -100.72834,-1.0269 c -1.77798,0 -3.05453,-0.3294 -3.33678,3.3172 -0.0666,0.8615 1.04874,1.5763 2.2933,1.5848 1.24418,0 2.68521,-0.6863 3.20212,-1.5464 1.01167,-2.4128 -0.37841,-3.3431 -2.15864,-3.3556 z m 110.61123,5.6807 c -1.8764,0 -2.33842,0.8461 -1.61499,2.9976 0.55772,1.659 0.28937,3.4656 -0.6006,4.0149 -2.61832,1.6198 -1.39375,33.9595 1.54105,40.6885 2.68212,6.1487 6.89376,7.5261 10.28757,3.3614 1.4143,-1.7354 1.61191,-6.1286 0.72043,-16.0934 -1.37245,-15.328 -3.68695,-24.2712 -7.16849,-27.71 -1.28425,-1.2691 -1.93055,-3.4174 -1.43513,-4.7739 0.59788,-1.6386 0,-2.4728 -1.72984,-2.4851 z m 73.63787,2.4251 c -4.45419,-0.077 -8.29314,2.9759 -12.61999,9.5922 -8.16956,12.4919 -4.87051,21.1314 3.97959,10.4233 5.25155,-6.3537 10.16512,-6.0728 15.58538,0.893 7.88817,10.1369 11.99283,6.1983 7.76618,-7.4497 -2.13772,-6.9026 -3.64865,-9.0269 -8.15041,-11.4573 -2.38252,-1.2866 -4.53609,-1.9668 -6.56075,-2.0015 z m -152.42004,-0.4852 c -1.6786,0.097 -3.38274,1.2122 -5.46116,3.2216 -5.46201,5.28 -15.01161,20.9939 -14.94105,24.5836 0.0441,1.6792 1.41054,2.5515 4.0556,2.5698 3.17125,0.044 4.46451,-1.1961 6.2043,-5.8456 3.38443,-9.0446 4.45099,-10.5293 7.92278,-11.0256 4.05137,-0.5797 9.25339,4.808 10.60941,10.9894 0.75316,3.4344 1.79129,4.5802 3.79081,4.1877 4.53582,-0.8895 3.19809,-12.2935 -2.36019,-20.1308 -4.29224,-6.0532 -7.02277,-8.7139 -9.8205,-8.5501 z m 68.53382,1.697 c -2.47025,0 -4.63358,3.7023 -7.67451,12.3846 -1.87631,5.3587 -4.41318,10.3475 -5.63785,11.0879 -1.74054,1.0514 -1.79167,1.6164 -0.23148,2.5792 3.16366,1.9542 0.63026,9.3094 -3.77758,10.9673 -6.08344,2.288 -4.61895,5.6552 2.10019,4.8272 1.07735,-0.1334 1.98638,1.084 2.01753,2.7057 0.0441,1.6211 0.53764,3.4237 1.12483,4.0037 1.84159,1.8188 11.0794,1.2171 12.69636,-0.8272 0.84888,-1.0736 1.85051,-6.5442 2.22658,-12.1557 0.37391,-5.6117 1.06131,-15.1678 1.5206,-21.2362 0.69087,-9.1261 0.38733,-11.3991 -1.74851,-13.1586 -0.93576,-0.7711 -1.79214,-1.1798 -2.61531,-1.1779 z m 80.96473,32.0364 c 0.96514,-0.044 2.08603,0.3205 3.73846,0.953 7.30491,2.8082 12.28577,7.9896 10.17216,10.584 -2.11895,2.6006 -0.50884,4.4155 3.94779,4.4467 3.87141,0.044 8.48549,10.1375 11.08776,24.2978 1.39018,7.5681 1.22953,8.7629 -1.42837,10.6321 -3.48522,2.4507 -2.58961,6.079 1.79168,7.2494 2.14644,0.5734 3.07554,2.1901 3.14018,5.4668 0.0797,4.1574 -0.53473,4.7535 -5.77858,5.5868 -3.22877,0.5129 -8.25597,0.9134 -11.17305,0.9113 h -5.30475 l 0.89467,-6.3728 c 1.89413,-13.4941 -6.08748,-26.0207 -12.93048,-20.2947 -2.08292,1.7427 -2.37088,4.3323 -1.59406,14.3527 l 0.94767,12.2261 -8.8198,-0.062 -8.82205,-0.062 0.87206,-14.521 c 1.28734,-21.4231 4.81392,-35.5332 9.39685,-37.6081 3.63861,-1.6474 5.0987,-5.8696 2.03835,-5.8911 -2.59485,0 -1.84703,-2.2066 2.59918,-7.6166 2.44707,-2.9771 3.61638,-4.1862 5.22433,-4.2609 z m -151.86765,-0.8039 c 0.72193,0 1.35284,0.4557 2.1807,1.2734 1.97793,1.9544 2.08564,2.882 0.55434,4.7613 -1.55888,1.9129 -1.30742,2.7036 1.39863,4.392 2.57215,1.605 3.33198,3.6704 3.44364,9.3661 0.0985,5.0463 -0.57771,7.5819 -2.19233,8.1949 -1.28547,0.4879 -2.31787,1.9924 -2.29113,3.3426 0.0441,1.3498 1.11675,2.8691 2.42249,3.3752 1.30517,0.5066 2.39097,1.8514 2.4132,2.9914 -4.51526,2.0415 -3.61872,7.1724 0,8.2376 0,0 0.1201,2.9514 0.90847,8.5983 0.634,4.5386 1.21002,10.5506 1.26529,13.3581 0.1019,4.6665 -0.30279,5.1002 -4.7642,5.069 -4.02952,-0.044 -4.69365,-0.5098 -3.80742,-2.7734 0.59038,-1.5072 1.69297,-7.4972 1.68856,-13.3371 0,-6.9227 -0.19142,-13.7073 -3.4504,-18.1745 -1.85858,-2.5459 -3.21489,-2.0027 -6.53082,0.1737 -5.1946,3.4116 -7.57571,12.1144 -6.35152,23.2174 l 1.01449,9.2019 -8.48858,-0.058 c -4.66831,-0.044 -8.49543,-0.4771 -8.50424,-0.9864 0,-0.5094 2.02446,-0.405 4.20037,-1.5878 2.3341,-1.2701 2.48404,-5.154 -0.0441,-6.1445 -4.11847,-1.6199 -3.48015,-5.4695 0.90151,-5.4388 2.06735,0 4.11228,-0.9461 4.54586,-2.1333 0.90273,-2.4736 -1.83099,-5.7016 -4.84734,-5.7225 -1.12257,0 -2.07616,-1.7454 -2.11622,-3.8634 -0.11138,-5.633 14.4035,-34.1844 20.74301,-40.8025 3.05809,-3.1927 4.51733,-4.5179 5.72106,-4.5308 z m 100.23997,1.6079 c -1.7593,-0.1162 -5.02805,3.178 -4.10167,4.6366 0.48829,0.7693 1.5754,1.4028 2.41546,1.4085 1.86111,0 3.66442,-4.4538 2.33035,-5.7714 -0.17368,-0.1692 -0.39183,-0.2582 -0.64414,-0.2716 z m 53.56443,5.5265 c -0.75083,-0.045 -1.43231,0.5463 -2.58098,1.7094 -2.98022,3.0195 -3.14629,14.9042 -0.24921,17.7665 1.09067,1.0773 3.39954,1.7655 5.1322,1.5288 4.62646,-0.6327 5.1473,-15.0644 0.68777,-19.0607 -1.41879,-1.2714 -2.23915,-1.9123 -2.99054,-1.944 z m -157.03889,2.9785 c -1.82517,0.1426 -3.16375,1.6297 -4.49697,5.2352 -1.07013,2.8942 -0.65081,7.7255 -0.32944,10.5336 0.29829,2.6277 1.39252,3.5019 3.01728,4.4853 4.86863,2.9465 8.1036,-0.8204 7.9407,-9.1096 -0.14252,-7.2054 -3.08858,-11.3803 -6.13026,-11.1445 z m 54.7888,3.4949 c -1.92885,0 -3.24979,0.9909 -3.22304,2.448 0.0441,1.4628 1.11122,2.2708 2.65453,1.9809 3.9249,-0.7368 4.39545,-4.4022 0.56851,-4.4289 z m 48.14482,0.4853 c -0.55696,0 -1.22287,0.1335 -1.96901,0.4139 -1.37592,0.5227 -2.04774,1.6676 -1.49517,2.5409 1.31352,2.0678 3.51795,2.0398 4.77996,-0.062 1.04977,-1.7468 0.35617,-2.9041 -1.31578,-2.8962 z m -111.53263,4.428 c -0.69491,-0.072 -1.45746,0.356 -1.90222,1.0955 -0.59338,0.9874 0.0497,2.5417 1.52737,3.254 1.15879,0.5578 2.18219,-0.528 2.4208,-1.6835 0.2403,-1.1557 -0.26713,-2.4897 -2.04595,-2.666 z m 179.73251,2.7946 c -2.14344,-0.1602 -3.88764,1.7459 -2.49333,3.9415 1.29672,2.0432 7.19861,2.3553 7.15854,0.3782 0,-0.7576 -1.13468,-2.2903 -2.48883,-3.4057 -0.70213,-0.5778 -1.4614,-0.861 -2.17638,-0.9144 z m -25.23754,0.7785 c -1.74467,0 -3.12284,1.0252 -3.09609,2.334 0.0441,1.3088 1.44318,2.3661 3.18814,2.3781 1.74504,0 3.12067,-1.0253 3.09393,-2.334 -0.0441,-1.3088 -1.44103,-2.366 -3.18598,-2.3781 z m -43.84114,1.4588 c -0.86624,-0.044 -1.77001,0.102 -2.62019,0.4229 -2.06857,0.7854 -2.15274,1.3831 -0.4714,3.3738 2.31796,2.7449 6.45923,2.505 7.37979,-0.4274 0.56898,-1.8129 -1.68893,-3.2895 -4.2882,-3.3702 z m -112.35403,5.0592 c -2.18792,0.991 -3.53174,2.5085 -2.98341,3.3726 1.52783,2.406 7.11407,1.9154 8.04674,-0.7238 0.90677,-2.5646 -2.6202,-3.8351 -5.06333,-2.6488 z m 59.93705,-1.5189 c -0.88941,0.067 -1.60036,0.3205 -1.89546,0.8107 -0.44737,0.7443 -0.33835,2.1025 0.2448,3.0196 1.3337,2.1002 7.38027,1.3433 8.1112,-1.0155 0.4866,-1.5692 -3.79137,-3.0173 -6.45932,-2.8148 z m 125.77448,3.3089 c -2.13988,0 -4.32029,1.4031 -3.39738,2.8566 1.26642,1.9943 5.06454,2.094 6.22456,0.1647 0.48125,-0.801 0.11137,-1.9249 -0.81641,-2.4997 -0.58793,-0.3649 -1.29757,-0.5193 -2.01077,-0.5198 z m -28.03498,0 c -2.08461,0.1513 -4.42472,1.8064 -4.38926,3.62 v 0 c 0.0573,2.9135 5.75992,2.8534 6.8278,-0.072 0.46173,-1.2645 0.22266,-2.6807 -0.53586,-3.1481 -0.54093,-0.3338 -1.20777,-0.4522 -1.90268,-0.4006 z m -97.98777,6.9262 c -2.29451,0.044 -2.86341,1.6207 -0.94787,3.5131 1.5571,1.5381 5.36415,0.5845 5.30006,-1.3275 -0.0441,-0.8635 -1.49706,-1.8068 -3.26386,-2.0953 -0.39615,-0.068 -0.76031,-0.094 -1.08833,-0.089 z m -63.42442,-0.2493 c -0.53202,0 -1.0599,0.1114 -1.52285,0.3962 -0.8668,0.5364 -1.15918,1.6382 -0.64649,2.4457 1.21622,1.9136 5.46707,1.9328 5.43142,0.044 -0.0441,-1.591 -1.66576,-2.8285 -3.26208,-2.8638 z m 192.46313,2.52 c -3.69529,-0.045 -5.20735,2.8134 -2.77641,5.2142 1.54331,1.5246 2.81113,1.3171 4.90418,-0.8031 2.86988,-2.9074 2.15855,-4.3808 -2.12777,-4.4111 z m -33.45251,1.4876 c -0.31602,-0.044 -0.69753,-3e-4 -1.14312,0.085 -1.53356,0.2893 -3.08672,1.4707 -3.45077,2.6304 -0.42309,1.3484 0.34266,1.9208 2.12542,1.586 1.53365,-0.2893 3.08672,-1.4712 3.45086,-2.6308 0.31612,-1.011 -0.0441,-1.5868 -0.98239,-1.6698 z m -99.60962,5.5441 c -0.94017,-0.072 -1.04028,0.5889 -1.00735,2.2404 0.0441,1.2959 1.06477,2.363 2.30942,2.3717 3.32214,0.044 4.34779,-2.6277 1.45164,-3.7511 -1.32262,-0.513 -2.1897,-0.8188 -2.75371,-0.861 z" fill="#00B894" transform="translate(-26.698939,70.57251) translate(895.26044,-2680.0732)"/>
</svg>