<?xml version="1.0" ?><svg height="188.43982mm" viewBox="0 0 74.807236 188.43982" width="74.807236mm" xmlns="http://www.w3.org/2000/svg">
    <path color="#000" d="m 7473.7798,3662.7037 c -32.209,3.8444 -60.0678,-17.6422 5.2749,-44.7059 -3.4083,-13.7742 2.2226,-23.8944 16.1477,-31.6642 l 6.5075,-540.9116 c -71.174,26.9382 -107.6509,-83.4708 -4.0723,-71.8835 41.0079,4.5877 90.378,11.1034 132.2969,-2.4394 86.1453,-27.8306 74.3255,87.8308 -0.4866,91.2519 8.3334,175.0917 18.9766,350.2784 8.581,524.5995 13.0963,7.4691 30.5023,27.0781 20.2524,31.174 41.0295,22.0457 67.9628,41.2785 8.5945,43.2899 z" fill="#FFFFFF" overflow="visible" paint-order="fill markers stroke" transform="translate(130.982,106.82977) matrix(0.26458333,0,0,0.26458333,-2096.5367,-889.19106)"/>
    <path d="m 7652.3851,3668.5842 c -63.3067,-2.5406 -134.7506,3.2135 -190.1727,-1.0306 -24.0848,-1.6669 -29.2194,-8.3243 -28.2424,-24.4741 3.9806,-17.2794 23.5359,-25.1706 37.8353,-27.3117 l 2.6239,-0.3576 c -4.0622,-3.9105 -5.8571,-8.5606 -5.4272,-12.4075 1.9216,-14.2993 11.3735,-16.1408 23.4084,-19.1443 l 0.4159,-8.9052 c 0.452,-9.6766 0.5224,-21.4093 0.4193,-52.4602 1.1828,-50.9602 -4.3098,-100.4602 -3.6848,-152.1517 0.1271,-8.6239 0.1639,-43.0333 0.082,-76.4656 -0.082,-33.4323 -1.6882,-61.1332 -1.4386,-61.5576 0.2493,-0.4244 0.7946,-9.6567 1.212,-20.5165 4.1179,-97.392 9.6046,-137.218 8.8444,-152.2419 -0.9736,-1.8668 -1.7733,-4.3089 -1.7773,-5.4267 -1.7037,-3.8407 -9.3811,1.0273 -14.1479,1.3109 -40.04,8.2687 -52.8197,-21.5122 -53.4631,-50.5964 -0.046,-5.7699 0.2507,-7.0178 3.5316,-14.8664 2.4711,-5.9113 14.8834,-18.19 21.5611,-21.329 16.3618,-6.5754 32.5755,-4.3557 43.6726,-2.0824 30.0878,1.2399 63.4504,4.2416 91.175,4.3679 16.7938,-0.058 34.2448,-3.0984 45.7031,-7.962 6.5301,-2.7717 20.0413,-6.082 24.5655,-6.0186 9.05,0.1266 22.4408,6.7726 30.0202,14.8992 10.3821,12.765 14.7978,34.8007 10.0658,50.046 -1.1637,3.5133 -4.1479,9.6152 -6.6315,13.5597 -13.2384,18.5984 -24.4541,29.1866 -52.2857,30.5758 -8.8244,0 -9.0712,0.076 -8.5015,2.6132 0.3228,1.4374 1.3938,14.5791 2.3798,29.2038 0.9861,14.6248 2.011,26.9433 2.2774,27.3742 0.4605,0.7449 1.032,8.0201 2.376,30.2415 0.3283,5.4299 1.0864,16.9283 1.6845,25.5522 1.1395,16.4293 1.9083,33.8195 2.9524,66.7841 0.3439,10.8598 0.893,22.6195 1.2202,26.1329 0.8812,9.4645 1.8729,27.9516 1.7132,31.9402 -0.077,1.9165 0.4131,13.415 1.0885,25.5521 3.8507,69.2097 3.5244,153.4857 -0.751,193.9645 -1.0121,9.5821 -2.0045,18.99 -2.2054,20.9064 -0.2008,1.9164 -0.6655,9.2336 -1.0323,16.2604 -0.3669,7.0269 -0.9474,14.9647 -1.2901,17.6393 -0.5326,4.1578 -0.2558,5.0597 1.908,6.2176 13.2299,2.6167 22.247,16.752 20.2289,20.8743 -0.9497,1.5366 2.6027,5.7926 4.8349,5.7926 12.4124,7.1349 25.6421,13.769 34.1089,23.6892 9.8478,11.538 13.8929,26.452 -4.3292,30.2601 -15.9742,3.3383 -33.3952,1.4851 -46.528,1.5479 z m 33.2223,-31.061 c -13.2124,-12.1645 -37.4172,-15.221 -48.1282,-15.702 -16.6531,-0.7209 -34.7298,-1.6427 -34.7298,-1.7707 -33.1487,-3.8624 -69.6714,-4e-4 -104.2107,1.1645 -14.7005,2.9681 -56.5876,11.919 -50.8446,27.1332 0,1.7917 0.9346,2.527 3.7746,2.9695 6.1181,0.9533 20.279,1.9733 33.9729,2.4471 56.067,-0.4644 117.2858,0.9918 167.2001,-0.6374 34.8461,1.5314 53.8558,3.6289 32.9657,-15.6042 z m -38.6385,-30.5207 c 0.9768,-0.9768 -1.357,-4.0359 -4.2672,-5.5933 -2.7712,-1.4831 -17.8115,-4.6993 -24.2725,-5.1904 -31.8402,-2.4204 -86.1639,-0.1506 -118.6753,0.8314 -11.2893,0.341 -12.6728,2.3718 -15.4286,4.9606 -1.6648,1.5642 -2.8716,3.6508 -2.6817,4.6371 0.3035,1.5753 5.5697,0.067 43.3037,0.1907 38.8165,0.1262 48.5349,-3.0531 73.7371,-1.1696 4.1521,0.3105 13.1604,0.7051 20.0183,0.8771 6.8577,0.172 12.7016,0.5457 12.9862,0.8302 0.8522,0.8521 14.3852,0.521 15.28,-0.3738 z m -19.1028,-35.1473 c 0.08,-6.0686 0.288,-12.4711 0.4627,-14.2279 0.1745,-1.7567 0.8763,-9.2047 1.5593,-16.5508 0.6833,-7.3463 1.8394,-19.6288 2.5692,-27.2944 2.3692,-24.8833 1.9417,-140.6941 -0.6798,-184.0921 -0.2507,-4.1521 -0.7404,-13.2987 -1.0882,-20.3255 -0.3477,-7.0268 -0.9001,-16.4347 -1.2274,-20.9063 -0.7394,-10.1015 -3.2809,-75.8067 -3.0549,-78.9796 0.091,-1.2774 -0.3612,-7.8108 -1.0047,-14.5181 -0.6436,-6.7076 -1.4616,-17.4221 -1.8179,-23.8102 -0.3564,-6.3879 -0.8601,-13.1825 -1.1196,-15.099 -0.2593,-1.9164 -0.7563,-8.1883 -1.1046,-13.9375 -0.348,-5.7492 -1.1325,-15.6798 -1.7429,-22.0677 -0.6106,-6.3881 -1.6741,-18.6707 -2.3637,-27.2946 -1.9,-23.762 -2.3345,-27.1948 -3.602,-28.4557 -0.7801,-0.7763 -0.9804,-0.5836 -0.6037,0.5807 0.31,0.9581 0.8716,9.429 1.2476,18.8241 0.3763,9.395 0.9497,17.7739 1.2742,18.6196 0.3244,0.8457 0.7956,16.4172 1.0469,34.6031 0.2513,18.1861 0.7694,36.2015 1.1512,40.0344 1.5348,15.4057 1.7478,355.377 0.344,368.9021 0.142,11.8251 -1.3982,23.5852 -2.432,35.9758 3.1092,0.3787 7.0904,0.7707 8.8471,0.8711 l 3.194,0.1824 z m -23.2856,6.0977 c 0.9199,-8.3941 0.8898,-17.362 1.547,-23.963 1.2498,-12.0324 2.8022,-41.075 2.4251,-144.7396 -0.4703,-129.3328 -1.1879,-201.0079 -2.2793,-227.6468 -0.314,-7.6656 -0.8793,-24.9134 -1.256,-38.3283 -0.3768,-13.4149 -1.1825,-30.14 -1.7903,-37.1667 -0.6079,-7.0269 -1.3951,-19.3094 -1.7495,-27.2945 -0.3545,-7.985 -0.8749,-15.2361 -1.1567,-16.1134 -0.4123,-1.2844 -2.6031,-1.4278 -11.2371,-0.7362 -5.8988,0.4727 -11.6534,0.8299 -12.7882,0.7941 -2.2311,-0.071 -2.215,0.6785 0.4365,20.1206 0.6099,4.4717 1.6221,13.3568 2.2494,19.7449 0.6274,6.3881 1.3825,12.9213 1.6781,14.5183 0.2955,1.597 0.8043,7.085 1.1305,12.1954 3.302,51.7126 4.102,68.5563 4.6616,98.1437 1.3199,69.7841 1.8605,89.3537 3.0486,110.3389 1.2556,22.1808 1.9043,127.4368 1.2134,196.868 -0.216,21.7194 -0.3404,40.8971 -0.2762,42.6171 0.1048,2.8121 0.614,3.1722 5.0529,3.5719 2.7149,0.2445 5.8509,0.5359 6.9688,0.6475 1.545,0.1543 2.054,-0.7026 2.1214,-3.5719 z m -89.044,4.5409 c 6.1356,-0.2185 11.3708,-0.6126 11.6336,-0.8755 1.0596,-1.0596 4.5509,-95.5554 4.6629,-125.0391 0.037,-9.7422 0.4941,-17.7128 1.0157,-17.7122 0.8982,6e-4 0.3065,-56.9734 -0.9168,-88.2707 -1.3577,-34.7361 -2.0403,-63.484 -2.3527,-99.084 -1.9737,-29.2706 0.3211,-60.8257 0.4286,-85.7775 0.2443,-67.576 0.953,-94.9616 2.5055,-96.8321 1.2021,-1.4487 0.6542,-1.7358 -3.6649,-1.9201 -12.5081,-0.534 -11.8689,-0.7245 -12.8127,3.8189 -2.967,14.2848 -4.2295,21.7616 -4.8829,28.9188 -2.8096,27.4153 -2.9028,53.7459 -4.2799,81.0857 -0.4216,8.5046 -0.9201,17.1285 -1.1078,19.1642 -3.0635,92.9544 0.1555,177.1627 0.8905,318.6855 -0.2682,0.5136 -0.5715,11.2068 -0.674,23.7629 -0.1315,16.0934 -0.7046,28.3026 -1.9426,33.0553 -2.0387,7.8272 -2.137,8.9494 -0.707,8.0656 0.5769,-0.3566 6.069,-0.8273 12.2046,-1.0457 z m 61.3937,-3.3926 c 0.309,-0.8057 0.6289,-15.8323 0.7107,-33.3922 0.082,-17.56 0.723,-37.6766 1.4246,-44.7035 1.2111,-12.128 0.665,-128.2868 -0.6716,-142.8599 -0.293,-3.1941 -0.8133,-14.9539 -1.1561,-26.1329 -0.7096,-23.1315 -1.536,-47.3744 -2.3362,-68.5264 -0.3021,-7.985 -0.6276,-24.7101 -0.7231,-37.1667 -0.9602,-56.2022 -6.4833,-107.1734 -12.5765,-158.0559 -1.3297,-6.0293 -18.326,-0.9051 -18.7264,-0.1409 -0.8271,11.5812 -1.1489,23.502 -1.8562,68.764 -1.7464,111.7446 -1.1356,183.0135 2.0709,241.5843 0.858,15.6723 0.98,35.1237 0.3569,56.9118 -0.5203,18.2059 -1.0358,37.6046 -1.1452,43.1081 -0.885,20.4146 -1.9306,40.5771 -2.2817,57.3585 -0.4513,22.3582 -0.8951,44.6583 -0.9861,45.2972 -0.1461,1.0264 6.4156,-1.9091 31.9412,-0.8125 3.4521,0.1482 5.5949,-0.2954 5.9548,-1.233 z m -23.6733,-528.6883 c 14.4615,-1.7231 31.2438,-2.922 43.8147,-5.3082 5.9584,-1.237 6.1867,-1.4172 4.845,-3.8295 -1.3197,-2.3731 -1.5281,-2.9251 -1.9434,-5.1449 -0.6139,-3.2808 -2.1749,-3.8098 -7.7648,-2.6313 -3.1456,0.6632 -8.5941,1.4199 -12.1074,1.6814 -3.5135,0.2616 -6.3881,0.56 -6.3881,0.6633 0,0.4335 -35.8716,1.7383 -47.7906,1.7383 -10.7359,0 -13.3325,-0.3495 -15.2064,-2.0469 -2.1901,-1.9838 -2.324,-1.905 -4.3354,2.5559 -1.1416,2.5313 -3.0479,5.6463 -4.2364,6.9219 -2.8433,3.0521 -1.4165,3.8761 10.0113,5.7819 5.3571,0.8935 24.898,0.7118 41.1015,-0.3819 z m 96.2714,-1.9071 c 15.262,-5.2508 32.3428,-23.5503 34.589,-37.0567 1.6108,-13.7142 -1.0897,-33.3398 -16.0862,-38.1139 -4.3364,-1.1974 -11.6899,-0.7825 -15.3388,0.8651 -2.9477,1.3311 -24.4158,7.8094 -29.0365,8.7622 -7.9822,1.6459 -12.6426,1.9744 -33.1672,2.3374 -24.8251,0.3169 -51.6499,-2.781 -69.6223,-3.5107 -9.9015,-0.3968 -19.619,-1.2162 -21.5947,-1.8211 -14.1281,-4.2495 -22.9798,-3.6959 -33.9726,1.5057 -21.6498,12.526 -27.2601,32.5468 -12.8923,53.4812 5.0217,6.9322 7.3961,8.1692 16.6547,8.6767 7.0181,0.3846 8.9362,0.053 12.8458,-2.2269 11.0294,-6.4295 17.5134,-24.7071 12.2222,-34.4541 -0.5642,-1.0393 -1.8972,-3.8552 -2.9625,-6.2578 -1.182,-2.6656 -2.9718,-4.6277 -4.5926,-5.0345 -3.3288,-0.8354 -8.2309,2.2573 -10.4838,6.6139 -3.8883,5.0268 0.2666,19.9782 2.915,15.0741 0.737,-1.3773 1.1801,-3.6596 0.9845,-5.0718 0.058,-6.5004 10.767,3.1434 11.3171,5.4638 1.0302,5.4917 -1.4525,10.203 -6.074,11.5259 -18.6974,5.9917 -25.529,-12.9481 -25.8086,-24.0277 -0.1373,-6.6811 2.3539,-12.4399 7.6894,-17.7755 18.413,-14.6977 44.147,5.8582 42.7302,27.1457 0.8663,4.14 1.8609,7.8132 2.2105,8.1627 1.1348,1.1349 25.1441,0.4264 48.3169,-1.4256 28.2989,-2.2619 32.6952,-2.8266 34.9695,-4.4928 2.1532,-1.5773 5.0258,-6.9946 6.1135,-11.5289 4.5924,-11.2128 19.0241,-19.6432 29.9819,-16.5687 7.5671,2.2774 10.3629,4.0049 15.1145,9.3389 5.343,5.998 9.0995,13.2756 9.8884,19.1571 0.4965,3.702 -0.1206,6.1918 -2.9685,11.977 -4.6756,9.4974 -8.7896,11.6507 -19.6388,10.2796 -0.7913,-0.1007 -3.7642,-3.3778 -6.6065,-7.284 -5.0186,-6.897 -6.0094,-11.0182 -3.5898,-14.933 1.5361,-2.4855 12.4411,-0.4742 14.7025,2.7117 0.8219,1.1579 2.7695,-5.8952 2.3062,-8.3519 -4.9948,-12.6287 -16.5409,-7.6698 -22.7204,0.381 -5.3277,7.3816 -6.8859,18.9325 -3.6114,26.7698 4.8609,10.1396 15.2741,13.2136 20.8257,12.6749 4.4747,-0.4495 10.9502,-1.7853 14.39,-2.9688 z" fill="#00B894" transform="translate(130.982,106.82977) matrix(0.26458333,0,0,0.26458333,-2096.5367,-889.19106)"/>
</svg>