<?xml version="1.0" ?><svg height="126.67519mm" viewBox="0 0 132.84232 126.67519" width="132.84232mm" xmlns="http://www.w3.org/2000/svg">
    <path d="m 37911.297,28105.811 c -5.216,0 -9.673,0.276 -12.92,0.871 -20.783,3.807 -78.078,12.993 -86.998,56.527 -1.005,27.589 -13.058,65.633 13.703,94.352 26.762,28.719 84.973,27.147 112.654,3.228 27.681,-23.919 33.752,-98.574 33.752,-98.574 0,0 20.967,-15.063 19.496,-32.774 -1.241,-14.944 -51.521,-23.582 -79.687,-23.63 z m 192.601,84.48 c -16.818,0 -33.624,3.029 -49.091,9.5 -54.994,23.009 -73.11,40.72 -79.916,69.936 -19.312,58.101 49.017,44.527 81.113,51.48 32.095,6.952 45.337,37.987 48.555,69.934 3.219,31.947 8.092,45.686 25.933,49.162 17.841,3.476 77.527,-5.462 105.76,-50.403 28.233,-44.941 3.955,-103.29 -25.289,-147.9 -21.02,-32.063 -64.084,-51.727 -107.065,-51.709 z m 124.35,281.592 c -1.121,0.03 -1.917,0.284 -2.297,0.781 -3.035,3.973 -4.873,31.617 -4.873,31.617 l -15.635,37.823 c 9.932,43.948 68.423,20.36 78.907,7.863 10.484,-12.497 -3.864,-47.259 -14.807,-58.35 -9.576,-9.704 -33.444,-19.979 -41.295,-19.734 z" fill="#FFFFFF" paint-order="markers stroke fill" transform="translate(132.94497,15.712551) matrix(0.26458333,0,0,0.26458333,-9255.6801,-6804.8048) translate(-3313.5291,-2437.8203)"/>
    <path d="m 34896.74,26128.264 c -14.563,-12.522 -15.62,-34.589 -2.338,-48.769 6.791,-7.249 7.782,-11.28 4.299,-17.482 -5.648,-10.056 2.684,-32.314 14.459,-38.615 6.322,-3.384 9.373,-2.361 13.716,4.586 3.069,4.919 9.809,8.945 14.972,8.945 14.195,0 32.679,16.588 32.679,29.337 0,6.06 2.158,15.045 4.79,19.968 7.183,13.418 -2.256,31.615 -22.225,42.835 -22.475,12.632 -45.083,12.331 -60.352,-0.805 z m 49.155,-14.337 c 15.47,-7.337 26.932,-23.582 12.108,-17.156 -14.286,6.195 -35.403,7.352 -44.578,2.443 -10.094,-5.403 -15.543,-0.656 -11.459,9.984 2.468,6.429 9.994,10.047 23.28,11.185 3.278,0.267 12.571,-2.62 20.649,-6.456 z m 0.434,-35.142 c 13.757,-13.754 11.92,-20.869 -6.358,-24.607 -7.703,-1.574 -16.999,-5.35 -20.66,-8.391 -5.576,-4.624 -6.656,-3.996 -6.656,3.856 0,6.434 2.776,9.381 8.838,9.381 11.571,0 11.243,6.168 -0.753,14.131 -5.602,3.722 -8.255,8.541 -6.37,11.587 5.345,8.651 20.099,5.903 31.959,-5.957 z m -179.058,46.973 c -8.89,-5.714 -2.523,-18.105 9.343,-18.184 23.578,-0.165 20.84,-7.083 -12.128,-30.657 -18.204,-13.022 -42.27,-33.477 -53.472,-45.458 -17.942,-19.18 -20.087,-23.555 -17.962,-36.644 2.333,-14.396 2.072,-14.71 -8.323,-9.974 -14.393,6.555 -13.514,17.672 2.87,36.333 8.652,9.854 12.31,17.548 10.053,21.147 -1.948,3.11 -2.973,9.135 -2.273,13.387 1.481,9.001 -16.27,10.783 -30.655,3.083 -7.82,-4.182 -8.406,-3.519 -5.856,6.63 2.87,11.445 -0.389,13.924 -10.154,7.72 -7.269,-4.621 -18.912,-38.557 -18.912,-55.126 0,-17.334 24.885,-40.783 66.458,-62.631 16.743,-8.798 31.423,-17.585 32.623,-19.524 1.201,-1.943 -4.332,-13.174 -12.291,-24.96 -11.854,-17.545 -17.944,-22.281 -33.643,-26.146 -11.945,-2.94 -22.452,-9.144 -27.864,-16.446 -7.799,-10.521 -8.153,-13.932 -3.473,-33.148 6.199,-25.46 17.714,-39.637 51.307,-63.168 35.301,-24.727 62.668,-32.93 99.547,-29.838 56.747,4.756 91.611,29.212 110.637,77.62 4.429,11.265 14.095,32.199 21.479,46.517 8.453,16.385 13.429,32.66 13.429,43.908 0,37.929 -34.951,82.15 -72.966,92.316 -10.917,2.92 -19.846,7.252 -19.846,9.625 0,2.374 4.226,13.051 9.393,23.72 12.868,26.581 6.61,32.826 -19.96,19.915 -10.677,-5.185 -26.609,-10.779 -35.408,-12.429 -8.796,-1.65 -17.024,-4.666 -18.279,-6.7 -4.498,-7.275 16.927,-14.004 36.188,-11.363 10.578,1.449 19.23,1.549 19.23,0.233 0,-8.161 -10.826,-16.871 -18.27,-15.599 -15.165,2.592 -41.236,-8.189 -44.816,-25.204 -2.162,-10.282 -6.898,-10.188 -21.214,-7.897 -22.318,3.568 -48.287,16.02 -48.287,23.153 0,11.748 46.283,48.011 95.019,74.447 43.74,23.724 46.872,42.999 7.859,48.353 -11.617,1.595 -26.092,3.811 -32.166,4.931 -6.076,1.121 -13.826,0.267 -17.217,-1.928 z m -98.592,-97.467 c -2.966,-4.755 -6.253,-7.784 -7.3,-6.74 -1.891,1.896 7.741,15.378 10.99,15.378 0.936,0 -0.722,-3.89 -3.69,-8.638 z m 179.89,-42.492 c 22.478,-3.792 45.1,-17.34 48.888,-29.275 1.614,-5.092 2.897,-17.642 -0.201,-27.028 -7.319,-22.175 10.206,-29.126 13.325,-8.411 2.993,19.876 15.154,8.655 15.265,-17.726 0.07,-16.739 -18.622,-65.345 -25.103,-65.276 -1.957,0 -10.517,6.587 -19.026,14.585 -19.885,18.699 -75.31,60.509 -80.213,60.509 -2.068,0 -3.758,9.895 -3.758,21.987 0,19.957 1.223,22.617 13.258,28.842 16.139,8.341 17.157,15.465 2.21,15.465 -6.078,0 -11.051,1.843 -11.051,4.098 0,4.831 12.672,8.63 22.099,6.624 3.647,-0.775 14.584,-2.753 24.307,-4.394 z m -68.5,-45.918 c 0,-14.973 -28.88,-48.8 -41.662,-48.8 -6.892,0 -6.665,1.695 2.229,16.574 5.45,9.116 11.579,18.463 13.621,20.771 2.042,2.309 3.713,8.774 3.713,14.365 0,7.895 2.466,10.163 11.048,10.163 9.298,0 11.051,-2.074 11.051,-13.073 z m 56.23,-65.967 c 38.191,-32.013 54.257,-48.48 54.257,-55.609 0,-3.519 -7.457,-14.228 -16.573,-23.789 -41.547,-43.578 -139.21,-41.958 -186.571,3.099 -24.508,23.315 -29.609,59.343 -9.357,66.092 4.364,1.455 4.542,-0.167 0.79,-7.179 -6.268,-11.716 -6.109,-14.064 0.955,-14.064 3.192,0 11.518,5.97 18.505,13.259 8.285,8.649 17.075,13.26 25.278,13.26 15.779,0 42.402,10.941 54.672,22.47 l 9.353,8.792 12.365,-16.736 c 16.593,-22.468 45.691,-52.927 61.398,-64.259 18.552,-13.395 10.368,-0.939 -21.638,32.944 -14.583,15.441 -31.489,33.756 -37.57,40.707 -10.52,12.037 -10.58,12.395 -1.221,7.528 5.403,-2.81 21.313,-14.743 35.357,-26.515 z m -343.504,-27.186 c 0,-2.516 3.093,-9.291 6.868,-15.058 5.028,-7.67 5.496,-11.334 1.751,-13.646 -7.492,-4.632 -21.668,-37.822 -21.782,-50.993 -0.298,-36.501 23.81,-75.479 57.126,-92.312 37.691,-19.046 126.108,-20.484 146.111,-2.376 16.104,14.572 10.302,42.101 -11.431,54.262 -5.763,3.226 -5.739,5.587 0.23,19.84 8.904,21.308 8.581,25.296 -3.188,39.588 -5.466,6.64 -13.659,17.277 -18.207,23.641 -4.549,6.363 -17.369,17.338 -28.487,24.389 -16.67,10.571 -24.997,12.822 -47.419,12.822 -14.965,0 -33.559,-2.215 -41.325,-4.923 -11.604,-4.045 -15.524,-3.65 -22,2.211 -8.932,8.085 -18.234,9.387 -18.234,2.555 z m 109.092,-26.755 c 22.121,-12.384 24.409,-17.283 4.41,-17.283 -37.934,0 -83.197,-20.527 -101.04,-51.757 -4.782,-8.369 -5.272,-10.04 -8.412,2.045 -2.803,15.189 -0.339,29.413 7.776,41.817 7.521,-12.611 26.084,12.593 11.508,14.437 -9.934,1.256 42.972,34.695 85.758,10.741 z m 27.362,-42.144 c 12.597,-2.518 13.811,-4.259 13.811,-19.762 0,-15.465 -1.293,-17.335 -14.356,-20.72 -22.676,-5.873 -20.89,-16.838 3.281,-20.15 26.037,-3.57 37.592,-9.894 37.592,-20.576 0,-13.326 -14.492,-18.02 -62.229,-20.157 -32.547,-1.46 -47.36,-0.346 -56.174,4.229 -15.48,8.025 -41.808,30.605 -42.064,43.568 -0.217,10.998 30.509,43.561 47.767,49.677 18.938,6.712 49.936,8.378 72.372,3.891 z" fill="#00B894" transform="translate(132.94497,15.712551) matrix(0.26458333,0,0,0.26458333,-9255.6801,-6804.8048)"/>
</svg>