<?xml version="1.0" ?><svg height="176.88239mm" viewBox="0 0 175.63614 176.88239" width="175.63614mm" xmlns="http://www.w3.org/2000/svg">
    <path color="#000" d="m 22056.908,22692.535 c 6.176,-21.279 74.385,-8.273 111.577,-12.409 l 1.369,-41.208 24.947,3.22 12.558,37.315 243.016,-7.853 -4.316,-41.303 22.737,0.189 5.789,42.156 127.472,-2.274 3.789,610.923 -532.411,-12.22 -10.737,-54.187 -91.26,-18.678 c 109.054,-170.797 85.68,-410.945 85.47,-503.671 z" fill="#FFFFFF" overflow="visible" paint-order="fill markers stroke" transform="translate(-287.89028,154.965) matrix(0.26458333,0,0,0.26458333,-5522.0757,-6139.6342)"/>
    <path d="M 499.34961 0 C 493.75861 0.02 487.50158 1.4844844 485.26758 3.5214844 C 483.59958 5.0424844 485.64014 11.205953 488.11914 12.126953 C 496.66814 15.306953 497.80586 16.788203 497.75586 24.658203 C 497.68586 34.778203 499.50573 49.285406 502.92773 65.941406 C 505.58373 78.861406 505.61859 79.933391 503.55859 84.275391 C 502.35459 86.812391 500.38945 88.884766 499.18945 88.884766 C 497.30145 88.884766 497.01031 86.958734 497.07031 74.552734 C 497.11031 66.669734 496.67156 51.220703 496.10156 40.220703 C 495.08756 20.677703 494.98342 20.155125 491.48242 17.328125 C 487.79742 14.354125 479.40614 12.043078 477.86914 13.580078 C 476.89614 14.554078 477.25573 29.671891 478.42773 37.087891 L 479.19531 41.955078 L 468.10352 42.097656 C 462.00052 42.177656 444.81797 42.414 429.91797 42.625 C 394.48097 42.926 356.40181 43.640031 319.00781 46.332031 C 285.10781 48.677031 245.3257 49.139125 244.0957 47.203125 C 243.5197 46.296125 243.03539 42.134125 243.02539 37.953125 C 241.40239 26.229125 242.6057 18.432312 235.9707 14.695312 C 225.3417 9.2953126 215.64719 7.6757188 200.74219 9.6367188 C 193.64019 10.788719 196.43659 40.68525 197.30859 52.03125 C 197.69359 52.65925 196.78983 52.7855 195.29883 52.3125 C 192.43883 51.4055 183.13881 51.352484 143.00781 52.021484 C 131.23081 52.198484 116.61448 49.012406 103.52148 53.566406 C 86.750485 58.716406 81.568344 69.492703 81.402344 83.220703 C 81.030344 99.345703 81.122313 100.4237 83.695312 110.2207 C 84.946312 114.9877 86.235594 122.1877 86.558594 126.2207 C 86.881594 130.2537 87.508125 134.45273 87.953125 135.55273 C 88.904125 137.89973 89.106797 141.09313 90.841797 181.57812 C 92.239797 214.19112 91.536625 269.5677 89.640625 276.2207 C 89.013625 278.4207 88.134453 284.41973 87.689453 289.55273 C 85.753453 311.89573 84.269531 323.3863 82.394531 330.5293 C 79.557531 341.3343 78.637844 346.40214 78.839844 350.11914 C 78.939844 351.89614 78.138453 356.99517 77.064453 361.45117 C 75.990453 365.90817 74.451531 373.15273 73.644531 377.55273 C 71.317531 390.23373 71.014578 391.72372 68.892578 400.88672 C 66.296578 412.09972 63.306578 423.1817 61.517578 428.2207 C 60.736578 430.4207 59.453016 434.61973 58.666016 437.55273 C 57.879016 440.48673 56.682812 443.25413 56.007812 443.70312 C 55.331813 444.15112 54.880906 444.75211 55.003906 445.03711 C 55.407906 445.97511 53.513875 453.4707 51.671875 458.2207 C 50.677875 460.7877 48.799047 466.48672 47.498047 470.88672 C 46.197047 475.28672 44.356156 480.3877 43.410156 482.2207 C 42.463156 484.0537 41.683594 486.31228 41.683594 487.23828 C 41.683594 488.16528 41.130797 489.96528 40.466797 491.23828 C 39.802797 492.51228 37.634437 497.4537 35.648438 502.2207 C 27.261438 522.1927 17.841625 543.17491 4.890625 563.12891 C -0.88037493 570.74991 -1.3627187 573.6868 2.4882812 577.8418 C 4.3572812 579.8588 6.3615 582.35086 6.9375 583.38086 C 7.6605 584.67086 11.176391 585.38288 18.275391 585.67188 C 27.789391 586.05987 31.519797 586.46353 42.341797 588.26953 C 44.541797 588.63853 48.606953 589.19948 51.376953 589.52148 C 54.146953 589.84348 56.984594 590.46058 57.683594 590.89258 C 58.382594 591.32458 62.716453 591.92366 67.314453 592.22266 C 71.912453 592.52166 79.273828 593.38934 83.673828 594.15234 C 88.073828 594.91434 92.123828 595.54688 92.673828 595.54688 C 93.223828 595.54688 93.673828 599.35786 93.673828 604.00586 L 93.673828 612.45703 L 89.076172 612.29883 C 86.548172 612.20883 84.049484 611.70769 83.521484 611.17969 C 81.856484 609.51369 77.673828 610.14064 77.673828 612.05664 C 77.673828 613.06664 76.746234 614.66161 75.615234 615.59961 C 74.188234 616.78361 73.985219 617.73327 74.949219 618.69727 C 75.714219 619.46127 76.341797 621.12363 76.341797 622.39062 C 76.341797 626.09662 82.756484 630.2207 88.521484 630.2207 C 91.418484 630.2207 93.673828 630.87008 93.673828 631.70508 C 93.673828 632.62108 92.030797 632.94025 89.341797 632.53125 C 84.055797 631.72825 80.341797 633.47658 80.341797 636.76758 C 80.341797 639.18058 84.887359 640.88672 91.318359 640.88672 C 92.773359 640.88672 97.273406 643.91047 101.31641 647.60547 C 108.20641 653.90247 109.09986 654.3207 115.50586 654.2207 C 125.43786 654.0717 150.81619 655.30867 154.86719 656.13867 C 156.77619 656.52967 166.8918 656.99583 177.3418 657.17383 C 224.6418 658.05283 274.46083 665.19219 327.67383 664.24219 C 411.91983 666.21419 495.07781 670.46417 583.00781 666.95117 C 617.42481 666.83617 631.8257 667.59203 651.9707 668.33203 C 658.1477 669.55003 659.98855 665.22156 657.81055 654.60156 C 654.45255 638.22656 651.96244 599.14873 652.64844 573.55273 C 653.06644 557.97573 652.97792 510.5537 652.41992 452.2207 C 652.06192 414.8307 653.56641 366.66973 655.69141 347.55273 C 656.73041 338.21273 657.20263 323.62673 658.14062 271.55273 C 658.55662 248.45273 659.18311 219.9537 659.53711 208.2207 C 659.89011 196.4877 660.57745 168.5877 661.06445 146.2207 C 661.67345 119.4197 664.25833 86.720046 663.61133 55.248047 C 664.22433 53.824047 663.47167 50.5975 661.63867 46.8125 C 658.97167 41.3025 658.31855 40.770641 655.18555 41.556641 C 653.26855 42.037641 651.25498 43.134188 650.70898 43.992188 C 650.03298 45.056187 649.70336 44.884125 649.69336 43.453125 C 649.66336 40.286125 644.39683 36.000875 637.67383 33.671875 C 626.08183 30.051875 613.6878 36.423188 538.3418 41.617188 C 512.9528 42.440187 515.00781 43.959 515.00781 24.375 C 515.00781 4.3560003 513.68764 1.6885625 503.05664 0.2265625 C 501.89564 0.066562502 500.63961 -0.0049999999 499.34961 0 z M 217.71289 26.460938 C 220.59589 26.420938 223.20477 26.800688 223.50977 27.304688 C 224.47777 28.900687 228.08545 78.913719 228.31445 93.886719 C 228.33445 94.958719 226.74056 95.43275 223.85156 95.21875 L 219.35742 94.886719 L 217.6582 72.886719 C 216.7232 60.786719 215.76534 49.386734 215.52734 47.552734 C 213.99334 35.732735 213.64089 33.188969 213.08789 30.042969 C 212.50989 26.750969 212.79689 26.530937 217.71289 26.460938 z M 607.83398 55.576172 L 609.52344 69.902344 C 610.45444 77.781344 611.8215 88.728516 612.5625 94.228516 C 613.3035 99.728516 614.19597 114.27755 614.54297 126.56055 L 615.17578 148.89453 L 610.75781 149.07812 C 608.32781 149.16812 605.13983 149.17789 603.67383 149.08789 C 602.20683 148.99789 591.40683 148.96806 579.67383 149.03906 C 553.92383 149.18306 554.16984 149.1885 548.33984 148.1875 C 545.77384 147.7465 513.52383 147.35812 476.67383 147.32812 C 433.06483 147.64812 368.48683 147.4175 312.67383 148.6875 C 310.32483 148.5655 269.61481 149.52539 219.00781 150.90039 C 203.97381 151.30839 187.77381 151.93602 183.00781 152.29102 C 170.70481 153.20902 129.96481 153.86805 124.00781 153.24805 C 116.49981 152.40305 117.09066 152.78986 108.84766 150.38086 C 107.39966 150.22786 106.32769 142.70467 104.92969 122.88867 C 104.56769 117.75567 104.01222 111.15666 103.69922 108.22266 C 102.81122 99.702656 97.708203 68.203109 114.1582 66.912109 C 118.4032 67.902109 149.95078 68.995859 163.67578 68.630859 C 170.27578 68.454859 180.77481 68.308359 187.00781 68.318359 L 198.3418 68.330078 L 198.67773 72.941406 C 198.86273 75.479406 199.00977 79.923406 199.00977 82.816406 C 199.00977 89.577406 202.51492 106.47214 210.54492 108.49414 C 218.30092 110.51214 238.95828 113.127 246.73828 108.625 C 248.65028 106.713 248.81352 98.125062 247.10352 89.289062 C 246.42252 85.770063 245.53195 77.188656 245.12695 70.222656 L 244.39062 57.556641 L 246.96289 60.890625 L 249.5332 64.222656 L 280.60547 63.976562 C 297.69347 63.840563 314.97481 63.408672 319.00781 63.013672 C 335.71081 61.381672 354.8608 60.824172 415.3418 60.201172 C 450.3588 59.840172 479.04938 59.997781 479.10938 60.550781 C 479.16937 61.104781 479.48064 65.681609 479.80664 70.724609 C 480.69164 82.508609 478.15066 97.710094 490.22266 99.746094 C 497.44566 101.41409 495.93725 100.53813 502.90625 100.57812 C 509.46325 100.61812 511.56614 100.05273 514.61914 97.427734 C 524.87714 88.724734 521.49197 76.755625 518.79297 60.890625 C 518.44397 59.343625 519.85481 58.830953 525.00781 58.626953 C 528.67481 58.480953 537.07578 58.0015 543.67578 57.5625 C 550.27578 57.1245 567.41186 56.497922 581.75586 56.169922 L 607.83398 55.576172 z M 340.35547 72.988281 C 330.75247 73.258281 322.88287 87.677203 320.29688 97.783203 C 318.51188 109.4652 315.49422 124.55742 325.82422 131.48242 C 344.86422 144.24842 357.06128 124.97147 358.61328 102.23047 C 359.27928 92.464469 356.63294 86.062391 352.21094 80.275391 C 348.13594 74.942391 344.11247 72.883281 340.35547 72.988281 z M 425.29883 73.195312 C 417.54981 73.145423 408.41368 78.71675 405.26367 85.134766 C 404.02036 88.624857 405.07256 92.351808 407.36719 93.851562 C 410.35419 95.677566 414.25607 94.735045 416.08203 91.748047 C 426.75205 82.593048 426.54248 92.62757 421.23047 99.892578 C 417.68947 104.65059 412.91812 109.24438 409.45312 112.52539 C 407.13412 114.72141 404.84855 116.76687 402.43555 119.46484 C 401.18747 120.71197 400.10855 122.33702 399.4375 124.04492 C 398.2193 123.54426 396.92882 123.15619 395.58789 123.0918 C 386.95289 122.4448 383.74505 120.90681 374.74805 121.00781 C 377.29105 118.22581 383.08256 114.61244 386.10156 111.02344 C 397.65656 99.416438 397.6055 89.348328 391.5625 81.111328 C 388.1734 77.557683 383.47945 75.540868 379.51367 75.390625 C 372.56567 75.221625 365.08681 78.638125 361.63281 84.578125 C 360.42571 94.185544 369.22377 90.574762 372.10156 87.902344 C 374.68256 85.172344 381.80898 86.201313 382.20898 90.195312 C 383.02398 94.369312 380.8133 99.966797 377.0293 104.4668 C 372.4323 109.6468 357.43102 119.93775 358.91602 127.59375 C 360.50602 135.85975 368.99956 132.84856 371.60156 132.85156 C 380.79456 132.86156 389.98283 133.224 399.17383 133.25 C 400.20611 133.11128 400.93053 132.86141 401.65625 132.61328 C 402.15791 132.8873 402.72974 133.12198 403.38086 133.30859 C 412.44685 132.93971 422.83713 131.8752 431.86914 132.74219 C 442.94716 132.39334 440.51718 117.24845 415.36719 120.56445 C 418.69419 117.37045 423.61705 113.09579 427.24805 108.2168 C 431.67705 102.2648 439.88648 94.353448 438.77148 86.064453 C 438.39731 83.287445 437.2365 80.546995 435.27148 78.583984 C 432.65632 75.183619 428.70165 73.267464 425.29883 73.195312 z M 302.55664 76.054688 C 294.80764 76.004688 285.67148 81.576141 282.52148 87.994141 C 281.27816 91.484255 282.33056 95.21117 284.625 96.710938 C 287.612 98.536937 291.51384 97.594422 293.33984 94.607422 C 304.00984 85.452422 303.79833 95.486953 298.48633 102.75195 C 294.94533 107.50995 290.17594 112.10377 286.71094 115.38477 C 284.39194 117.58077 282.10441 119.62622 279.69141 122.32422 C 275.71741 126.29522 273.45467 134.10897 280.63867 136.16797 C 289.70467 135.79897 300.09495 134.73456 309.12695 135.60156 C 320.20495 135.25256 317.775 120.10783 292.625 123.42383 C 295.952 120.22983 300.87486 115.95517 304.50586 111.07617 C 308.93486 105.12417 317.14234 97.212828 316.02734 88.923828 C 315.65334 86.146828 314.49234 83.406359 312.52734 81.443359 C 309.91217 78.042971 305.95948 76.126854 302.55664 76.054688 z M 337.29883 90.199219 C 340.10483 90.381219 342.61581 94.070125 343.25781 95.328125 C 344.73781 98.229125 344.92311 110.89872 344.41211 114.01172 C 343.47611 119.71772 335.56292 130.90677 330.41992 122.13477 C 324.96392 112.82877 328.1875 100.76564 333.4375 92.681641 C 334.6865 90.757641 336.02383 90.116219 337.29883 90.199219 z M 109.86719 160.33203 L 109.86719 160.34375 C 110.49419 160.73075 111.00977 161.83964 111.00977 162.80664 C 111.00977 165.81464 114.16361 167.38377 121.72461 168.13477 C 133.18761 169.27377 159.85577 169.43912 173.00977 168.45312 C 179.60977 167.95813 189.50977 167.24519 195.00977 166.86719 C 210.19977 165.82419 255.40236 164.69512 296.69336 164.32812 L 333.71484 163.99805 L 333.06641 168.11133 C 331.14041 180.39333 330.67191 186.31661 329.87891 208.22461 L 329.00977 232.22461 L 320.34375 232.41602 C 298.92475 232.89102 279.36998 233.1632 275.95898 233.0332 L 272.23828 232.89062 L 272.99414 217.22461 C 274.55814 184.81661 273.88762 173.76891 270.26562 172.37891 C 266.94263 171.10391 266.04728 175.31361 264.36328 200.22461 C 263.05328 219.60661 262.32584 226.07528 260.96484 230.36328 C 260.07284 233.17828 262.80775 232.97205 222.34375 233.24805 L 198.34375 233.41211 L 197.41211 225.48438 C 196.90211 221.12438 195.75247 211.55861 194.85547 204.22461 C 193.95947 196.89161 193.17523 187.29062 193.11523 182.89062 C 192.98623 173.39063 192.03667 171.54813 187.26367 171.57812 C 179.93367 171.61812 179.77528 172.18761 180.61328 195.72461 C 180.86428 202.78361 181.7273 209.38263 182.5293 210.39062 C 183.3313 211.39862 184.38414 216.79486 184.86914 222.38086 L 185.75586 232.53906 L 180.62695 233.35742 C 177.80695 233.80842 162.93889 234.2232 147.58789 234.2832 C 118.19189 234.3932 114.21645 234.57261 112.93945 235.84961 C 111.14745 237.64261 110.88575 244.92575 112.59375 245.46875 C 115.19975 246.29775 132.14377 247.70797 139.00977 247.66797 C 142.30977 247.64797 153.28434 247.56242 163.40234 247.48242 C 176.60834 247.37642 182.38128 247.81883 183.86328 249.04883 C 185.60528 250.49383 185.79259 253.16116 185.05859 266.16016 C 184.58059 274.62916 183.60086 283.43738 182.88086 285.73438 C 182.16086 288.03237 181.71467 290.43236 181.88867 291.06836 C 182.14567 292.00636 181.53386 296.35861 179.75586 306.22461 C 179.68586 306.59161 179.17905 307.60742 178.62305 308.48242 C 177.67705 309.97042 176.2668 319.84098 176.2168 325.33398 C 176.2068 326.67798 175.6693 329.15298 175.0293 330.83398 C 173.8833 333.84898 173.61544 333.88377 154.77344 333.50977 C 115.97144 332.73877 111.00977 332.45902 111.00977 331.04102 C 111.00977 330.26602 109.73097 330.91161 108.16797 332.47461 C 105.15997 335.48161 105.31423 339.43691 108.61523 343.87891 C 110.53423 346.46091 118.25638 347.14175 152.10938 347.71875 L 171.21484 348.04492 L 170.33789 352.80273 C 169.85589 355.41873 168.18881 361.45861 166.63281 366.22461 C 165.07781 370.99161 163.95472 375.88747 164.13672 377.10547 C 164.32072 378.32447 163.86877 379.69248 163.13477 380.14648 C 162.39977 380.60048 161.39253 384.56889 160.89453 388.96289 C 160.39753 393.35689 159.47098 397.27302 158.83398 397.66602 C 158.19698 398.06002 157.67578 400.40681 157.67578 402.88281 C 157.67578 405.35881 157.09667 408.90753 156.38867 410.76953 L 155.10156 414.1543 L 138.4375 413.73438 L 121.77344 413.31641 L 121.93945 417.78906 C 122.11545 422.47006 124.25119 425.27119 127.24219 424.74219 C 129.25019 424.38719 146.80566 426.13827 149.34766 426.94727 C 150.66866 427.36727 150.63092 428.53558 149.16992 432.51758 C 148.15192 435.28958 145.69875 443.25861 143.71875 450.22461 C 141.73775 457.19161 139.52764 464.46472 138.80664 466.38672 C 138.08564 468.30972 137.68592 472.20873 137.91992 475.05273 C 138.52792 482.46573 141.70111 481.76259 144.66211 473.55859 C 145.98611 469.89159 147.59242 465.69161 148.23242 464.22461 C 148.87342 462.75861 151.30386 456.15859 153.63086 449.55859 C 155.95786 442.95859 158.86856 435.32375 160.10156 432.59375 L 162.34375 427.62891 L 193.40234 427.82031 C 210.48534 427.92531 224.68984 428.37336 224.96484 428.81836 C 225.55784 429.77836 223.13787 440.66586 221.67188 443.63086 C 221.10788 444.77086 219.65345 450.17086 218.43945 455.63086 C 217.22545 461.09086 215.6077 467.35859 214.8457 469.55859 C 214.0837 471.75859 212.88087 475.50763 212.17188 477.89062 C 210.74688 482.54462 206.08127 488.9765 206.32227 496.0625 L 204.30664 500.89062 L 186.65625 500.89062 C 169.19325 500.90062 128.21177 498.97497 105.00977 497.04297 C 88.957766 495.70697 86.557156 496.21275 87.660156 500.71875 C 88.995156 506.16975 91.540609 507.84508 99.224609 508.33008 C 103.13961 508.57708 110.24377 509.1448 115.00977 509.5918 C 119.77677 510.0378 128.17578 510.5865 133.67578 510.8125 C 139.17578 511.0375 151.47677 511.67356 161.00977 512.22656 C 170.54377 512.77856 182.68223 513.29672 187.99023 513.38672 C 196.87723 513.53072 197.57712 513.74938 196.82812 516.10938 C 196.38113 517.51937 195.49066 519.31938 194.84766 520.10938 C 192.33666 523.19237 184.34375 535.86372 184.34375 536.76172 C 184.34375 537.28372 182.48961 539.47686 180.22461 541.63086 C 175.47161 546.14886 172.34375 551.60214 172.34375 555.36914 C 172.34375 556.81114 171.74372 558.18859 171.01172 558.43359 C 170.27872 558.67759 169.11864 560.83933 168.43164 563.23633 C 167.67264 565.87633 167.66216 567.29694 168.41016 566.83594 C 177.49316 582.04894 172.97747 566.8843 184.98047 546.5293 C 185.46647 544.8713 187.4725 542.6802 189.4375 541.6582 C 195.5235 538.4912 200.99791 531.57277 207.75391 518.50977 L 210.01367 514.13867 L 222.50977 514.50977 C 238.04777 515.20077 257.35175 517.5943 275.34375 516.4043 C 280.30375 515.8033 281.37766 516.50636 279.22266 518.94336 C 278.60766 519.64036 277.31928 522.31291 276.36328 524.87891 C 275.40728 527.44591 273.00734 531.04591 271.02734 532.87891 C 269.04834 534.71291 265.7598 540.11291 263.7168 544.87891 C 259.0948 555.66691 249.22877 576.90491 245.13477 584.87891 C 242.39477 590.21591 239.35337 592.71536 237.60938 591.06836 C 237.27838 590.75636 224.40977 590.10419 209.00977 589.61719 C 193.60977 589.13019 178.90975 588.51505 176.34375 588.24805 C 173.77675 587.98105 166.50736 587.38764 160.19336 586.93164 C 153.88036 586.47564 147.10853 585.81303 145.14453 585.45703 C 141.53653 584.80303 125.16177 583.40552 119.00977 583.22852 C 117.17677 583.17852 109.07677 582.27266 101.00977 581.22266 C 92.943766 580.17166 84.242781 579.05428 81.675781 578.73828 C 77.609781 578.23928 68.22875 576.91581 54.34375 574.88281 C 40.56575 572.86581 31.412781 571.27003 29.675781 570.58203 C 28.575781 570.14603 27.138422 569.91245 26.482422 570.06445 C 25.827422 570.21545 23.594578 569.96477 21.517578 569.50977 L 17.740234 568.67969 L 20.242188 565.11328 C 24.365187 559.23528 31.576719 547.15291 33.511719 542.87891 C 34.506719 540.67891 36.159594 537.37987 37.183594 535.54688 C 38.207594 533.71288 40.359797 529.21287 41.966797 525.54688 C 43.573797 521.87988 46.948797 514.97989 49.466797 510.21289 C 53.896797 501.82689 59.571313 486.57648 63.820312 471.64648 C 64.952312 467.66948 66.954578 461.96947 68.267578 458.98047 C 77.010578 438.24247 82.784328 411.50387 87.861328 389.54688 C 88.218328 386.61288 89.314969 381.21287 90.292969 377.54688 C 91.270969 373.87988 93.060438 365.47891 94.273438 358.87891 C 96.112437 348.87491 97.098891 343.87089 98.337891 338.21289 C 98.417891 337.84689 99.229672 331.24687 100.13867 323.54688 C 101.04867 315.84688 102.6607 304.74591 103.7207 298.87891 C 106.6507 282.66991 108.47147 246.02389 108.60547 200.58789 C 108.67547 178.05989 109.24119 159.94503 109.86719 160.33203 z M 461.56055 162.3457 L 461.56641 162.34766 C 468.16241 162.33766 474.98183 162.33766 481.67383 162.34766 C 508.44083 162.39766 531.33197 162.42797 532.54297 162.41797 C 534.13597 162.40797 534.92816 163.94552 535.41016 167.97852 C 536.28716 175.31552 535.88117 239.12278 534.95117 240.05078 C 533.66417 241.33678 510.58886 241.84583 501.00586 240.79883 C 495.87286 240.23783 486.87286 239.41375 481.00586 238.96875 C 462.68786 237.57875 462.05992 237.37458 461.16992 232.51758 C 460.73692 230.15358 460.3943 221.01875 460.4043 212.21875 C 460.4343 194.78375 459.22569 187.58211 455.67969 184.03711 C 453.50369 181.86011 453.24862 181.90856 450.89062 184.97656 C 448.88563 187.58556 448.35397 190.81973 448.16797 201.55273 C 448.03997 208.88573 447.88984 216.68477 447.83984 218.88477 C 447.78984 221.08477 448.14386 225.97309 448.63086 229.74609 L 449.51367 236.60547 L 441.92773 236.0625 C 437.75473 235.7655 427.2528 235.29172 418.5918 235.01172 C 409.9308 234.73072 402.578 234.23325 402.25 233.90625 C 401.923 233.57925 398.93428 233.72256 395.61328 234.22656 C 392.29228 234.72956 389.35789 234.78566 389.08789 234.34766 C 388.81689 233.90966 388.82166 229.95078 389.09766 225.55078 C 389.43166 220.24078 388.91631 216.09475 387.57031 213.21875 C 385.20931 208.17475 384.76584 208.04686 381.08984 211.38086 C 379.24984 213.04986 375.283 214.17444 369.125 214.77344 C 358.692 215.78744 358.69598 216.90775 369.08398 204.21875 C 380.50198 190.27175 382.97667 182.88655 377.51367 179.06055 C 373.91767 176.54055 371 177.64634 371 181.52734 C 371 185.86534 364.68877 196.5412 360.13477 199.9082 C 355.41877 203.3952 348.33398 214.11853 348.33398 217.76953 C 348.33398 219.22753 349.83397 221.82973 351.66797 223.55273 C 354.35197 226.07373 356.49797 226.69242 362.66797 226.73242 C 366.88397 226.76242 372.18236 226.32839 374.44336 225.77539 C 378.35536 224.81939 378.55469 224.96813 378.55469 228.82812 L 378.55469 232.88477 L 368.44336 232.99219 C 362.88236 233.05219 354.52605 233.19922 349.87305 233.32422 C 345.21905 233.44922 341.18802 233.19195 340.91602 232.75195 C 340.64402 232.31195 341.55541 220.91097 342.94141 207.41797 C 344.32741 193.92497 345.19323 178.53575 344.86523 173.21875 L 344.26953 163.55273 L 373.30078 163.3125 C 389.26878 163.1815 409.23302 162.89292 417.66602 162.66992 C 423.99102 162.50392 441.77355 162.3767 461.56055 162.3457 z M 545.44141 162.88672 L 554.55859 163.13086 C 559.57159 163.26486 574.98083 163.6712 588.79883 164.0332 C 602.61683 164.3952 614.13539 164.90688 614.40039 165.17188 C 614.66439 165.43587 614.94195 170.43153 615.00195 176.26953 C 615.07195 182.10953 615.24448 191.0877 615.39648 196.2207 C 615.86248 211.8917 615.02533 236.07044 613.98633 237.02344 C 612.49733 238.38844 548.64698 239.79252 547.83398 238.47852 C 547.44498 237.84852 547.19539 225.98237 547.27539 212.10938 C 547.35539 198.23638 546.9835 181.48672 546.4375 174.88672 L 545.44141 162.88672 z M 424.7207 175.30273 C 420.3427 175.13673 416.40614 176.82113 415.49414 180.45312 C 414.27414 185.31212 419.25544 190.20752 423.02344 187.85352 C 425.48344 186.31752 425.67383 186.54003 425.67383 190.95703 L 425.67383 195.7168 L 419.97656 194.86328 C 415.33256 194.16628 413.84659 194.48856 411.93359 196.60156 C 408.80259 200.06156 410.15405 210.24675 413.87305 211.21875 C 416.96005 212.02575 416.94536 212.59619 413.69336 219.74219 L 411.05273 225.55273 L 413.84375 227.88672 C 415.37975 229.16972 417.24905 230.2207 417.99805 230.2207 C 420.12605 230.2207 428.15669 221.14489 431.05469 215.46289 C 434.42069 208.86589 434.36647 204.79308 430.85547 200.33008 C 427.84347 196.50008 427.97938 195.97792 432.60938 193.66992 C 434.24937 192.85192 436.4643 190.62847 437.5293 188.73047 C 439.2943 185.58647 439.21356 184.92091 436.60156 181.25391 C 433.91856 177.48491 429.0977 175.46873 424.7207 175.30273 z M 301.54297 178.70508 C 298.35397 178.35608 296.64845 186.86641 295.56445 206.69141 C 294.80345 220.62941 294.97538 224.0542 296.48438 225.0332 C 297.50437 225.6942 299.54081 226.08153 301.00781 225.89453 C 304.17781 225.48953 305.29611 219.7537 306.41211 198.2207 C 307.05711 185.7787 306.8578 183.8663 304.5918 181.0293 C 303.4468 179.5963 302.43597 178.80308 301.54297 178.70508 z M 500.67188 179.16016 C 499.60788 179.09016 498.86753 179.75027 497.64453 181.32227 C 493.49053 186.66227 489.67383 197.16872 489.67383 203.26172 C 489.67383 208.59372 490.29581 209.8707 495.00781 214.2207 C 498.44281 217.3927 500.3418 220.30902 500.3418 222.41602 C 500.3418 224.21602 501.05945 226.40711 501.93945 227.28711 C 505.06345 230.41111 508.40434 229.06772 510.40234 223.88672 C 511.46234 221.13672 513.53872 216.53897 515.01172 213.66797 C 517.51672 208.79097 517.54656 208.28895 515.47656 206.00195 C 512.99656 203.26095 507.51103 202.71105 506.70703 205.12305 C 505.91303 207.50505 503.00781 205.09259 503.00781 202.05859 C 503.00781 200.58959 503.96195 196.47411 505.12695 192.91211 C 507.72295 184.97611 507.26942 182.09648 503.10742 180.02148 C 502.06342 179.50148 501.30987 179.20116 500.67188 179.16016 z M 569.09375 180.1582 C 568.70775 180.1382 568.35583 180.20839 568.04883 180.40039 C 567.32683 180.84639 565.87903 183.26158 564.83203 185.76758 C 563.11003 189.89058 563.17959 190.88958 565.55859 196.26758 C 567.00459 199.53658 570.95398 205.60686 574.33398 209.75586 L 580.47852 217.30078 L 575.54297 222.35547 C 570.70597 227.30947 570.65189 227.47745 572.83789 230.81445 C 575.45589 234.80945 576.38727 234.93645 582.07227 232.06445 C 596.41827 224.81645 596.75816 216.99598 583.41016 201.33398 C 579.76216 197.05398 577.24677 192.62009 576.75977 189.62109 C 576.05477 185.27709 571.79175 180.3152 569.09375 180.1582 z M 340.59766 244.68359 L 356.13672 245.05664 C 364.68272 245.26264 372.8748 245.64997 374.3418 245.91797 C 376.9248 246.38897 377.00033 247.39948 376.86133 276.64648 C 376.63233 324.99448 376.31556 331.24564 373.97656 333.18164 C 371.14456 335.52764 335.3815 335.59572 333.4375 333.26172 C 332.6935 332.36772 332.41236 329.06673 332.81836 325.92773 C 333.22336 322.78873 333.93353 315.11972 334.39453 308.88672 C 335.51753 293.68272 335.89892 292.78789 339.04492 297.96289 C 342.03492 302.87889 341.92789 302.84814 346.96289 300.24414 C 349.51089 298.92614 351.09956 296.81416 351.72656 293.91016 C 352.24356 291.51416 353.89825 287.1537 355.40625 284.2207 C 359.19225 276.8587 359.11402 274.80027 354.91602 271.69727 C 350.40102 268.35827 342.18917 269.15669 340.95117 273.05469 C 340.51517 274.42869 339.55536 275.55273 338.81836 275.55273 C 337.50736 275.55273 338.22733 256.85312 339.86133 248.45312 L 340.59766 244.68359 z M 283.94531 245.32227 L 283.94531 245.32617 C 287.77931 245.30617 292.57531 245.36648 298.57031 245.39648 L 326.3418 245.54883 L 325.98047 254.21484 C 325.63147 262.60884 323.88977 287.13786 322.38477 304.88086 C 321.98077 309.64786 321.41014 317.94055 321.11914 323.31055 C 320.82914 328.68055 320.31833 333.34573 319.98633 333.67773 C 319.65433 334.00973 314.34736 334.29055 308.19336 334.31055 C 302.04036 334.33055 292.80783 334.35109 287.67383 334.37109 C 282.54083 334.39109 273.96419 334.56277 268.61719 334.75977 C 263.27019 334.95677 258.70098 334.75998 258.45898 334.33398 C 258.11298 333.71598 261.82245 306.49981 263.56445 296.88281 C 263.76345 295.78281 264.36534 290.68378 264.90234 285.55078 C 265.43934 280.41778 266.47989 274.26867 267.21289 271.88867 C 267.94589 269.50667 268.58086 263.8057 268.63086 259.2207 C 268.75586 247.0267 267.33231 245.40727 283.94531 245.32227 z M 389.88086 246.04492 L 408.10742 246.89062 C 418.13442 247.35562 429.64083 247.90528 433.67383 248.11328 C 437.70783 248.32028 443.03472 248.5785 445.51172 248.6875 L 450.01367 248.88672 L 449.36719 255.59375 C 447.78719 275.56475 447.1268 295.04273 446.3418 315.55273 C 445.1868 322.51973 444.26688 329.6827 444.29688 331.4707 C 444.32687 333.2587 443.59969 335.20116 442.67969 335.78516 C 440.77569 336.99416 437.12166 337.22422 436.09766 336.19922 C 435.55266 335.65522 409.91431 334.55158 391.19531 334.26758 L 388.05273 334.2168 L 389.13281 301.88281 C 389.72681 284.09881 390.13687 264.25992 390.04688 257.79492 L 389.88086 246.04492 z M 259.34766 246.22266 L 258.42383 251.88867 C 257.91483 255.00467 256.62845 264.45272 255.56445 272.88672 C 254.49945 281.31972 253.43041 289.71973 253.19141 291.55273 C 252.95241 293.38673 251.94136 302.98672 250.94336 312.88672 C 249.90136 323.21872 248.41131 331.61752 247.44531 332.60352 C 245.63331 334.45152 244.89261 334.51022 225.47461 334.32422 C 218.39761 334.25422 211.79859 334.3837 210.80859 334.5957 C 209.81859 334.8167 204.05781 334.79564 198.00781 334.55664 C 185.26181 334.04964 185.73416 334.90256 188.91016 318.22656 C 191.61516 304.02156 195.12067 280.06756 195.63867 272.22656 C 195.88067 268.56056 196.51492 261.23136 197.04492 255.94336 L 198.00977 246.33203 L 228.67773 246.28125 L 259.34766 246.22266 z M 597.13477 249.17578 C 609.73077 249.17578 613.71281 249.56292 613.75781 250.54492 C 614.03481 256.15692 613.42495 278.60323 612.87695 282.99023 C 612.51695 285.86723 611.66719 294.81972 610.99219 302.88672 C 610.31719 310.95272 609.16097 321.75272 608.41797 326.88672 C 606.50597 340.11372 605.92797 344.55772 605.04297 352.88672 C 603.48397 367.54872 599.84081 386.45784 597.00781 394.58984 C 595.92881 397.68684 595.03539 401.57828 595.02539 403.23828 C 595.01539 404.89828 594.45144 407.29827 593.77344 408.57227 C 593.09644 409.84527 591.82055 413.7377 590.93555 417.2207 C 589.51755 422.8087 588.91698 423.54045 585.83398 423.43945 C 583.91298 423.37945 580.55219 422.79067 578.36719 422.13867 C 562.36219 422.02767 539.6005 421.43411 522.9375 421.16211 C 519.4605 420.65211 519.00781 420.05691 519.00781 416.00391 C 519.00781 413.48391 519.83756 409.80227 520.85156 407.82227 C 521.86556 405.84127 523.12158 401.07166 523.64258 397.22266 C 524.16358 393.37266 525.13483 389.88756 525.79883 389.47656 C 526.46383 389.06556 527.00781 387.29311 527.00781 385.53711 C 527.00781 383.78211 527.57267 380.9672 528.26367 379.2832 C 528.95467 377.5982 530.53253 369.17445 531.76953 360.56445 L 534.01758 344.91016 L 545.62891 345.07227 C 554.62791 345.19727 558.03902 344.70925 560.79102 342.90625 C 567.70402 338.37725 563.85044 336.47864 548.14844 336.68164 C 542.45044 336.75164 537.53175 336.38156 537.21875 335.85156 C 536.90675 335.32056 537.16878 331.16905 537.80078 326.62305 C 543.24178 287.54205 545.0958 271.62559 545.4668 260.80859 C 545.8528 249.53559 544.97123 249.8155 581.49023 249.3125 C 587.77723 249.2225 592.93577 249.17878 597.13477 249.17578 z M 528.16602 249.39062 C 533.40602 249.35063 536.64622 251.15172 535.69922 254.13672 C 535.24922 255.55572 534.37586 262.90475 533.75586 270.46875 C 532.81786 281.93575 530.05867 302.1257 526.13867 326.2207 C 525.72167 328.7877 525.4075 331.894 525.4375 333.125 C 525.4875 335.07 523.7343 335.37141 512.0293 335.44141 C 504.6243 335.48141 495.81612 335.73981 492.45312 336.00781 C 485.64913 336.55081 472.04595 335.98769 463.25195 334.80469 L 457.49414 334.03125 L 458.32031 317.125 C 458.77431 307.827 459.37811 299.01973 459.66211 297.55273 C 459.94611 296.08673 460.58889 284.98672 461.08789 272.88672 C 461.58689 260.78672 462.16314 250.5877 462.36914 250.2207 C 462.57614 249.8537 470.45495 249.96952 479.87695 250.47852 C 504.27595 251.79452 514.7238 251.69522 522.3418 250.07422 C 524.4518 249.62522 526.41902 249.40462 528.16602 249.39062 z M 214.95117 268.06445 C 211.02517 267.95745 210.49744 271.08286 213.77344 276.38086 C 217.22544 281.96686 216.51566 287.87672 210.72266 301.76172 C 207.12266 310.39172 206.91597 311.66106 208.54297 315.03906 C 209.53197 317.09306 211.84083 319.19027 213.67383 319.69727 C 215.50783 320.20527 217.12648 320.68391 217.27148 320.75391 C 218.43248 321.33691 224.4777 313.35784 228.0957 306.46484 C 231.5957 299.79484 232.55036 296.32883 232.69336 289.79883 C 232.97636 276.86783 228.52175 270.8255 216.84375 268.3125 C 216.14475 268.1625 215.51217 268.08045 214.95117 268.06445 z M 280.65039 269.30469 C 279.26139 269.34469 278.57566 269.79384 278.22266 270.71484 C 277.54066 272.49284 280.84134 279.17827 283.27734 280.94727 C 283.82634 281.34627 283.10587 284.04627 281.67188 286.94727 C 280.23788 289.84827 278.75777 294.66053 278.38477 297.64453 C 277.81277 302.20553 278.35469 303.95553 281.80469 308.64453 C 286.53369 315.07553 290.36805 315.80541 296.49805 311.44141 C 302.90005 306.88241 305.40878 300.28866 304.42578 290.59766 C 303.96278 286.03766 304.06811 280.99467 304.66211 279.38867 C 305.45911 277.23467 305.01594 275.69286 302.96094 273.50586 C 300.66594 271.06286 299.38536 270.71973 295.69336 271.55273 C 293.22836 272.10573 290.71537 272.10673 290.10938 271.55273 C 289.50238 270.99773 286.74828 270.13944 283.98828 269.64844 C 282.57028 269.39644 281.48439 269.27869 280.65039 269.30469 z M 144.26172 271.62891 C 143.66872 271.59891 143.2043 272.14428 142.4043 273.23828 C 141.4733 274.51128 140.04828 275.55273 139.23828 275.55273 C 136.17728 275.55273 128.42516 283.90386 126.28516 289.50586 C 124.48016 294.23386 124.34445 296.19563 125.56445 299.89062 C 127.51245 305.79462 133.61942 311.5837 139.23242 312.8457 C 142.22642 313.5197 144.65083 313.24591 146.67383 312.00391 C 148.86083 310.68091 153.9138 313.12766 156.3418 304.22266 C 159.4278 303.24366 159.79522 299.81177 157.19922 296.25977 C 155.47322 293.90077 155.08523 293.88886 148.61523 296.00586 C 139.27123 299.06186 139.00078 298.96369 139.05078 292.55469 C 139.27078 283.52269 144.22055 285.66294 147.68555 278.21094 C 149.49055 276.21594 149.41044 275.73003 146.89844 273.45703 C 145.57644 272.26103 144.85372 271.65886 144.26172 271.63086 L 144.26172 271.62891 z M 487.59766 272.22656 C 485.83466 272.35356 484.42392 273.65947 481.54492 277.23047 C 476.98292 282.88747 469.67383 298.30644 469.67383 302.27344 C 469.67383 303.44444 471.51848 306.80042 473.77148 309.73242 C 477.22748 314.22842 478.47948 314.97423 481.77148 314.49023 C 491.98548 312.85223 486.15298 302.41555 491.70898 293.18555 C 498.04298 282.55355 499.61056 277.02306 496.60156 275.91406 C 495.35856 275.45606 494.04083 274.68045 493.67383 274.18945 C 493.30783 273.69945 491.44992 272.91717 489.54492 272.45117 C 488.81192 272.27217 488.18466 272.18356 487.59766 272.22656 z M 418.59766 272.88672 C 414.54266 272.88672 414.07266 273.27827 413.97266 276.69727 C 413.82366 281.92327 409.61555 294.21681 403.81055 306.38281 C 398.70255 317.08981 398.67695 318.6047 403.50195 325.2207 C 406.10095 328.7857 409.5305 329.91872 411.5625 327.88672 C 412.1125 327.33672 413.20419 326.88672 413.99219 326.88672 C 414.77919 326.88672 416.36281 324.31773 417.50781 321.17773 C 419.83981 314.78073 422.58125 314.21245 425.28125 319.56445 C 428.12125 325.19245 435.17102 321.74736 437.04102 313.81836 C 437.59402 311.47236 438.15988 309.25272 438.29688 308.88672 C 438.43487 308.51972 439.02719 305.90712 439.61719 303.07812 C 440.59119 298.40513 440.33961 297.64602 436.84961 294.79102 C 434.73661 293.06302 432.2018 291.63156 431.2168 291.60156 C 429.8478 291.56156 429.63183 290.05422 430.29883 285.19922 C 431.12083 279.22722 430.93053 278.66423 427.14453 275.86523 C 424.84053 274.16123 421.18166 272.88672 418.59766 272.88672 z M 569.68555 274.67969 C 569.41655 274.68969 569.16912 274.73025 568.95312 274.78125 C 562.78713 276.32825 559.47486 286.41472 563.00586 292.88672 C 564.00586 294.71972 565.02172 297.96466 565.26172 300.09766 C 565.85172 305.33266 567.73644 307.29869 572.77344 307.92969 C 575.10144 308.22169 577.43789 308.55683 577.96289 308.67383 C 579.06289 308.91883 591.67773 297.95777 591.67773 296.75977 C 591.67773 296.32177 592.48928 294.97939 593.48828 293.77539 C 595.05328 291.88939 594.96027 291.45634 592.82227 290.65234 C 591.45627 290.13934 589.68195 288.83962 588.87695 287.76562 C 588.07095 286.68763 586.77214 286.2065 585.99414 286.6875 C 585.21614 287.1685 583.63737 287.20081 582.48438 286.75781 C 580.90738 286.15281 580.71227 285.34781 581.69727 283.50781 C 583.54527 280.05481 583.59398 280.12864 577.45898 276.93164 C 574.61798 275.44964 571.56355 274.58169 569.68555 274.67969 z M 514.04688 283.55273 C 511.23188 283.55273 508.72587 285.34289 503.67188 290.96289 C 500.00688 295.03889 496.95672 299.08889 496.88672 299.96289 C 496.81672 300.83789 496.30033 303.20847 495.73633 305.23047 C 495.03733 307.73547 495.4327 310.42306 496.9707 313.66406 C 498.5087 316.90406 499.86456 318.1763 501.22656 317.6543 C 502.32556 317.2323 504.52523 316.88305 506.11523 316.87305 C 508.14923 316.87305 509.68959 315.38105 511.30859 311.87305 C 512.57459 309.13105 515.71892 303.28672 518.29492 298.88672 C 523.36592 290.22172 524.03644 287.55273 521.14844 287.55273 C 520.12744 287.55273 518.94544 286.65273 518.52344 285.55273 C 518.09544 284.43873 516.11587 283.55273 514.04688 283.55273 z M 521.34375 345.03711 L 521.34375 345.04102 C 522.40875 345.04102 523 345.08086 523 345.13086 C 523 345.36186 521.18361 353.9498 518.97461 364.2168 C 516.76461 374.4838 514.0485 387.38281 512.9375 392.88281 C 511.8265 398.38281 510.33986 404.72456 509.63086 406.97656 C 508.92186 409.22856 508.32836 412.52855 508.31836 414.31055 C 508.30836 416.09155 507.85269 418.25423 507.30469 419.11523 C 506.62669 420.18123 500.91678 420.67211 489.42578 420.66211 C 480.14078 420.65211 472.32845 420.42611 472.06445 420.16211 C 471.80045 419.89711 466.50487 419.51645 460.29688 419.31445 C 454.08788 419.11145 448.65084 418.44789 448.21484 417.83789 C 447.77884 417.22889 447.90028 413.91266 448.48828 410.47266 C 449.07528 407.03066 450.83634 394.3168 452.40234 382.2168 C 453.96734 370.1168 455.65348 357.21583 456.14648 353.54883 L 457.04492 346.88281 L 469.02344 346.69336 C 475.61344 346.58936 490.45781 346.10042 502.00781 345.60742 C 510.66981 345.23542 518.14675 345.02211 521.34375 345.03711 z M 358.98633 346.79102 C 366.58033 346.82102 372.97319 347.12195 373.99219 347.75195 C 376.14419 349.08195 375.83159 385.06073 373.55859 397.55273 C 372.62459 402.68673 371.81758 409.38355 371.76758 412.43555 C 371.67758 417.66055 370.8185 420.23058 369.5625 419.01758 C 369.2575 418.72258 358.01889 418.18331 344.58789 417.82031 C 331.15689 417.45631 319.85375 416.84298 319.46875 416.45898 C 319.08475 416.07398 319.83567 409.66766 321.13867 402.22266 L 323.50781 388.6875 L 327.69141 393.67383 C 329.99441 396.41683 332.52645 398.26239 333.31445 397.77539 C 334.11245 397.28239 335.96505 398.95669 337.49805 401.55469 C 340.35005 406.38869 342.69603 407.19566 347.08203 404.84766 C 349.47103 403.56966 353.67383 397.04328 353.67383 394.61328 C 353.67383 393.62628 349.8768 391.71637 343.9668 389.73438 C 341.7228 388.98238 341.74078 388.64981 344.30078 383.63281 C 345.78878 380.71381 346.99805 377.55242 346.99805 376.60742 C 346.98805 374.15442 339.65002 370.30223 336.54102 371.11523 C 333.78502 371.83623 325.67383 381.06061 325.67383 383.47461 C 325.67383 384.25161 325.18494 384.88672 324.58594 384.88672 C 323.98794 384.88672 324.56423 379.6377 325.86523 373.2207 C 327.16823 366.8037 328.25711 359.40239 328.28711 356.77539 C 328.31711 354.14739 328.7918 351.54805 329.3418 350.99805 C 329.8918 350.44805 330.3418 349.31637 330.3418 348.48438 C 330.3418 347.40638 346.33033 346.73402 358.98633 346.79102 z M 412.3418 346.82031 C 425.9088 346.78031 438.32269 346.98734 439.92969 347.27734 C 443.46569 347.91734 445.04419 353.53256 443.11719 358.60156 C 442.38419 360.52956 441.40445 367.08302 440.93945 373.16602 C 440.47545 379.24902 438.90136 389.62656 437.44336 396.22656 C 435.98536 402.82656 434.78758 410.1775 434.76758 412.5625 C 434.74758 414.9485 434.17719 417.24788 433.49219 417.67188 C 432.07119 418.55187 390.32195 419.27042 386.50195 418.48242 C 384.18695 418.00542 384.07028 417.08369 384.98828 406.42969 C 386.57428 388.02369 387.16273 377.24255 387.42773 361.56055 L 387.67383 346.89453 L 412.3418 346.82031 z M 276.50977 346.97656 L 276.51562 346.98242 C 278.94262 346.98242 281.64711 346.98414 284.66211 346.99414 C 300.25311 347.05414 313.76269 347.20213 314.67969 347.32812 C 316.65669 347.60012 317.02162 362.2942 315.14062 365.9082 C 314.47863 367.1822 313.26336 374.22364 312.44336 381.55664 C 311.62236 388.88964 310.07405 398.19061 308.99805 402.22461 C 307.92305 406.25761 307.03539 411.2038 307.02539 413.2168 L 307.00586 416.87891 L 287.33984 416.78906 C 276.52284 416.73906 265.12186 416.22262 262.00586 415.64062 C 258.88886 415.05763 256.33789 414.94744 256.33789 415.39844 C 256.33789 416.63244 241.83408 416.89483 241.08008 415.67383 C 240.72008 415.09283 241.28022 411.37892 242.32422 407.41992 C 245.39722 395.76992 248.52525 383.08966 249.03125 380.22266 C 249.28925 378.75566 250.37727 374.25566 251.44727 370.22266 C 252.51827 366.18866 253.79988 360.18867 254.29688 356.88867 C 254.79387 353.58867 255.44986 349.98867 255.75586 348.88867 C 256.16886 347.39867 259.51777 346.99456 276.50977 346.97656 z M 230.98242 347.43164 C 240.89042 347.40164 242.39023 347.74375 243.24023 348.59375 C 244.80023 350.15375 242.53452 367.5033 240.60352 368.7793 C 239.95552 369.2073 239.33656 372.11052 239.22656 375.22852 C 239.11756 378.34652 238.46811 381.94652 237.78711 383.22852 C 237.10611 384.51052 234.98522 392.12439 233.07422 400.15039 C 231.16422 408.17639 229.46869 414.84189 229.30469 414.96289 C 228.08569 415.86889 221.90705 416.68048 221.24805 416.02148 C 220.79605 415.56848 208.55778 415.02545 194.05078 414.81445 C 179.54378 414.60345 167.26186 414.39008 166.75586 414.33008 C 166.25086 414.27008 166.63338 411.67559 167.60938 408.55859 C 168.58537 405.44259 170.11772 399.29258 171.01172 394.89258 C 171.90572 390.49258 173.46733 384.62828 174.48633 381.86328 C 177.13533 374.53128 179.11742 368.31042 179.23242 361.23242 C 179.93642 358.47842 180.94942 354.42656 181.48242 352.22656 L 182.44922 348.22656 L 202.39648 347.85547 C 216.06848 347.60147 225.03842 347.44964 230.98242 347.43164 z M 123.29688 353.60547 C 122.51188 353.60547 121.61645 353.68603 120.56445 353.83203 C 116.14445 354.42503 114.4987 355.56552 110.9707 360.47852 C 106.3697 366.88552 101.7218 377.71881 100.7168 384.38281 C 100.3518 386.80481 101.01188 390.31969 102.29688 392.80469 C 104.28287 396.64469 104.92391 396.9792 108.75391 396.1582 C 114.22991 394.9842 115.00781 394.48205 115.00781 392.12305 C 115.00781 390.42005 116.84828 386.24258 123.48828 372.89258 C 124.40028 371.05858 126.53442 367.08078 128.23242 364.05078 L 131.32031 358.54102 L 128.60742 355.83008 C 127.00242 354.22408 125.64987 353.58547 123.29688 353.60547 z M 277.85156 359.81641 C 271.67456 359.70241 268.91233 362.52663 264.86133 370.51562 C 261.01233 378.10562 260.8918 381.81656 264.3418 386.22656 C 265.7758 388.05956 266.95852 390.03228 266.97852 390.61328 C 266.99852 391.19428 267.75783 392.52345 268.67383 393.56445 C 269.59083 394.60545 272.74083 395.46438 275.67383 395.48438 C 280.25383 395.50437 282.09775 394.52911 288.71875 388.53711 C 292.95975 384.70011 297.34394 379.7757 298.46094 377.5957 C 300.31594 373.9737 300.29159 373.48631 298.18359 371.94531 C 293.83359 368.76331 287.15647 368.34741 284.10547 371.06641 L 281.31055 373.55859 L 283.49023 369.29297 C 285.37923 365.60097 286.3778 361.03327 285.3418 360.82227 C 282.3498 360.21427 279.90956 359.85341 277.85156 359.81641 z M 467.32227 362.72656 C 466.25927 362.82656 465.23687 363.32553 463.79688 364.26953 C 461.89588 365.51453 460.31883 367.51389 460.29883 368.71289 C 460.27883 369.91189 458.78252 373.89259 456.97852 377.55859 C 452.77752 386.10059 452.66483 393.45264 456.67383 397.68164 C 458.32383 399.42264 460.00992 400.86109 460.41992 400.87109 C 463.56692 400.97109 472.76297 385.75052 476.29297 374.60352 C 478.32897 368.17352 477.39794 366.2058 471.08594 363.5918 C 469.48894 362.9298 468.38527 362.62756 467.32227 362.72656 z M 141.66992 365.40234 L 141.66992 365.4082 C 138.45692 365.3282 137.25777 365.99816 135.75977 368.28516 C 131.93277 374.12516 133.66381 383.15833 139.00781 385.23633 C 140.10781 385.66433 141.35144 386.06109 141.77344 386.12109 C 143.12044 386.30609 148.82862 379.60206 148.01562 378.78906 C 147.58663 378.36006 148.12589 375.87744 149.21289 373.27344 C 151.62789 367.49444 150.47273 366.00242 143.17773 365.48242 C 142.62973 365.44242 142.12892 365.41234 141.66992 365.40234 z M 202.95312 366.50391 C 200.48013 366.48391 198.45045 368.35056 195.18945 372.85156 C 190.88245 378.79756 190.93938 381.69558 195.48438 387.89258 C 196.96437 389.90858 198.82991 391.55859 199.62891 391.55859 C 202.34891 391.55859 207.00781 387.41705 207.00781 384.99805 C 207.00781 383.67205 208.14802 381.13528 209.54102 379.36328 C 212.39102 375.74028 213.70583 369.64552 211.67383 369.47852 C 210.94083 369.41852 208.72977 368.58405 206.75977 367.62305 C 205.29577 366.90905 204.07712 366.51191 202.95312 366.50391 z M 619.57812 372.62109 C 619.68212 372.56109 619.80464 372.76595 619.93164 373.25195 C 620.26964 374.54995 620.24786 376.34995 619.88086 377.25195 C 619.51586 378.15495 619.23563 377.09258 619.26562 374.89258 C 619.28562 373.51758 619.40613 372.71409 619.57812 372.62109 z M 409.39062 374.79492 C 402.43863 374.65292 392.43338 387.05797 395.48438 393.54297 C 396.34937 395.38097 398.4478 396.99902 400.3418 397.29102 C 405.1358 398.03102 404.89439 398.17728 410.65039 390.86328 C 418.53339 380.84628 419.65942 378.35992 416.73242 377.41992 C 415.41742 376.99792 413.03259 376.02572 411.43359 375.26172 C 410.79759 374.95772 410.10962 374.80992 409.39062 374.79492 z M 568.37891 378.80273 C 567.50591 378.80273 566.34028 379.42288 565.61328 380.29688 C 564.03628 382.19787 557.06844 381.60717 554.14844 379.32617 C 553.19444 378.58017 551.85617 378.89969 550.57617 380.17969 C 549.45017 381.30469 547.90372 382.22656 547.13672 382.22656 C 546.36972 382.22656 544.76712 384.1082 543.57812 386.4082 C 541.74013 389.9602 541.68373 391.08395 543.17773 393.87695 C 544.67373 396.67195 545.65605 397.06753 549.74805 396.51953 C 553.41505 396.02753 554.91845 396.4502 556.06445 398.2832 C 556.89245 399.6092 558.94505 400.91745 560.62305 401.18945 C 564.13805 401.75945 566.11583 400.6238 571.67383 394.8418 C 575.91083 390.4348 579.00781 385.73398 579.00781 383.70898 C 579.00781 382.62298 573.05942 379.80289 568.73242 378.83789 C 568.62142 378.80789 568.50391 378.79664 568.37891 378.80664 L 568.37891 378.80273 z M 619.88867 378.89258 L 620.76172 390.22656 C 621.24272 396.45956 621.11266 406.35956 620.47266 412.22656 C 618.75466 427.96756 618.67897 460.17373 620.29297 488.55273 C 623.94197 552.68073 625.6457 582.02258 626.4707 594.89258 C 626.8937 601.49258 627.42058 609.89259 627.64258 613.55859 C 627.86458 617.22559 628.97528 625.32559 630.11328 631.55859 C 631.25128 637.79259 632.3697 644.99259 632.5957 647.55859 C 633.0027 652.17059 632.9418 652.23172 627.3418 652.63672 C 624.2248 652.86272 621.65867 652.86272 621.63867 652.63672 C 621.61867 652.41172 621.28348 642.62558 620.89648 630.89258 C 620.50848 619.15858 619.93605 607.45858 619.62305 604.89258 C 619.31105 602.32558 618.74233 591.82559 618.36133 581.55859 C 617.98033 571.29259 617.1288 558.69259 616.4668 553.55859 C 615.8058 548.42559 615.16783 537.62559 615.04883 529.55859 C 614.79683 512.36359 614.28089 501.05058 612.46289 472.89258 C 611.72989 461.52558 611.11961 445.18508 611.09961 436.58008 C 611.07961 427.97508 610.69237 419.43828 610.23438 417.61328 C 609.77638 415.78828 610.35081 411.13172 611.50781 407.26172 C 612.66381 403.39172 615.02205 395.42559 616.74805 389.55859 L 619.88867 378.89258 z M 480.80273 380.36914 C 477.06673 380.36914 474.44862 383.88803 470.51562 391.95703 C 465.27263 402.71203 464.82644 405.23788 467.27344 410.42188 C 469.46744 415.07087 477.08316 415.59159 478.41016 411.18359 C 478.89916 409.55759 481.89631 402.98889 485.07031 396.58789 C 489.21631 388.23089 490.39777 384.66073 489.25977 383.92773 C 485.68877 381.62673 483.04373 380.36714 480.80273 380.36914 z M 237.00781 428.38867 L 250.3418 428.73242 C 257.6748 428.92142 272.51713 429.0857 283.32812 429.0957 C 294.13912 429.0957 303.30427 429.63158 303.69727 430.26758 C 304.63927 431.79158 301.95964 448.42069 300.30664 451.30469 C 299.59564 452.54469 297.18041 460.75859 294.94141 469.55859 C 287.08741 500.43359 285.93653 503.55859 282.39453 503.55859 C 280.65153 503.55859 278.39486 503.87758 277.38086 504.26758 C 276.36486 504.65658 275.13548 504.57589 274.64648 504.08789 C 273.84248 503.28389 252.43605 502.41587 227.37305 502.17188 C 222.07405 502.12188 217.46781 501.63475 217.13281 501.09375 C 216.79881 500.55275 218.05292 495.63597 219.91992 490.16797 C 221.78692 484.69997 224.08339 477.22559 225.02539 473.55859 C 225.96739 469.89259 227.75605 463.29258 228.99805 458.89258 C 230.24105 454.49258 232.55281 445.82962 234.13281 439.64062 L 237.00781 428.38867 z M 320.22852 429.0332 C 320.91052 428.9832 321.64483 429.1013 322.42383 429.4043 C 323.45483 429.7993 334.20441 430.23128 346.31641 430.36328 C 361.38941 430.52728 368.3418 431.07298 368.3418 432.08398 C 368.3418 435.16198 359.91064 475.52158 355.43164 493.89258 C 353.29464 502.65458 352.76098 503.57088 349.70898 503.67188 C 335.44398 504.14987 330.71892 504.16419 330.29492 503.74219 C 330.02692 503.47219 323.62527 503.31281 316.07227 503.38281 C 308.51927 503.45281 301.6382 503.0703 300.7832 502.5293 C 299.6152 501.7913 299.72928 499.72066 301.23828 494.22266 C 302.34428 490.19466 304.11869 483.29844 305.17969 478.89844 C 306.23969 474.49844 308.63305 465.30194 310.49805 458.46094 C 312.36305 451.61894 314.22663 442.74233 314.64062 438.73633 C 315.26862 432.64533 317.27152 429.24606 320.22852 429.03906 L 320.22852 429.0332 z M 391.52344 431.06055 L 391.52344 431.0625 C 397.91344 431.0425 408.02553 431.19627 424.01953 431.44727 L 431.0293 431.55859 L 430.18945 439.22656 C 429.25145 447.77856 427.8978 454.93658 425.7168 462.89258 C 424.9128 465.82558 423.95494 469.72559 423.58594 471.55859 C 422.74794 475.72559 419.19778 487.34058 417.67578 490.89258 C 417.04778 492.35858 416.17237 495.74406 415.73438 498.41406 C 415.20238 501.66106 414.09577 503.48755 412.38477 503.93555 C 410.97877 504.30055 409.56223 504.33762 409.24023 504.01562 C 408.91823 503.69263 399.28603 503.43945 387.83203 503.43945 C 376.37903 503.43945 367.00781 503.20334 367.00781 502.90234 C 367.00781 501.24334 370.01948 487.73062 371.02148 484.89062 C 371.66848 483.05763 372.56086 478.59842 373.00586 474.98242 C 373.45086 471.36642 374.04798 468.02941 374.33398 467.56641 C 375.01998 466.45641 380.58641 435.47414 380.56641 432.86914 C 380.56641 431.58014 380.87244 431.08555 391.52344 431.06055 z M 449.54883 432.33203 C 450.30583 432.31203 451.13681 432.31156 452.00781 432.35156 C 467.22281 432.97456 499.80267 434.2207 501.13867 434.2207 C 502.52667 434.2207 498.92014 455.13105 496.99414 458.24805 C 496.57214 458.92905 495.36083 464.15342 494.29883 469.85742 C 490.63283 489.54642 488.71902 496.63505 485.79102 501.37305 C 482.91402 506.02305 482.67687 506.1225 474.42188 506.0625 L 465.98633 506.00195 L 465.22461 501.29688 C 464.76761 498.48188 465.28339 494.37712 466.52539 491.07812 C 467.66239 488.04513 468.90516 483.91248 469.28516 481.89648 C 469.87716 478.75848 469.5332 478.23047 466.9082 478.23047 C 464.3562 478.23047 465.67877 476.42428 474.75977 467.48828 C 480.76377 461.58128 485.67578 455.95719 485.67578 454.99219 C 485.67578 453.97619 483.4308 452.87877 480.3418 452.38477 C 473.7948 451.33777 468.26062 454.52566 458.26562 465.09766 C 447.69263 476.28166 447.80739 476.037 450.40039 481.5 C 452.25739 485.415 452.40552 487.25848 451.22852 491.89648 C 450.10552 496.32048 450.20183 498.34102 451.67383 501.29102 L 453.54883 505.05078 L 440.94336 504.67383 C 434.01236 504.46783 428.34742 503.98266 428.35742 503.59766 C 428.35742 503.21166 430.16919 497.19747 432.36719 490.23047 C 435.78019 479.41147 439.96838 461.95247 444.35938 440.23047 C 444.95337 437.29747 445.48859 434.7465 445.55859 434.5625 C 445.62859 434.3795 445.67578 433.74911 445.67578 433.16211 C 445.67578 432.72111 447.27978 432.40594 449.55078 432.33594 L 449.54883 432.33203 z M 515.40039 434.07227 L 544.86914 434.88672 C 574.67514 435.70872 585.04328 437.05561 583.98828 439.97461 C 583.67328 440.84661 582.39077 445.75958 581.13477 450.89258 C 577.55677 465.36858 570.79078 481.45028 565.80078 497.23828 C 564.40378 500.34728 562.87334 504.61003 562.40234 506.70703 C 561.93234 508.80503 560.43517 513.00502 559.07617 516.04102 C 557.71817 519.07602 556.28091 522.75956 555.87891 524.22656 C 552.84491 535.31456 544.51056 556.46655 537.22656 571.56055 C 532.66756 580.99055 529.90945 594.80594 513.43945 594.08594 C 511.73445 594.01594 499.0918 594.37572 485.3418 594.88672 C 471.5918 595.39872 460.3418 595.47741 460.3418 595.06641 C 460.3418 594.65441 462.1418 591.48072 464.3418 588.01172 C 466.5418 584.54272 468.3418 581.04137 468.3418 580.23438 C 468.3418 579.42738 470.39616 574.91984 472.91016 570.21484 C 475.42416 565.50984 477.20133 561.21116 476.86133 560.66016 C 476.52133 560.11016 477.67678 557.38442 479.42578 554.60742 C 481.17478 551.82942 483.41716 547.15956 484.41016 544.22656 C 485.40316 541.29256 487.08263 538.16348 488.14062 537.27148 C 489.19762 536.37948 491.32419 531.87948 492.86719 527.27148 L 495.67578 518.89258 L 502.3418 519.09766 C 506.0088 519.20966 513.99866 518.99772 520.09766 518.63672 C 529.90266 518.04872 531.31697 517.63861 532.29297 515.09961 C 532.89997 513.51961 532.90473 511.70255 532.30273 511.06055 C 531.19973 509.88455 529.93081 509.71503 510.00781 508.08203 C 501.90581 507.41803 499.00781 506.68745 499.00781 505.31445 C 499.00781 503.66145 500.58777 498.05356 505.50977 482.22656 L 506.96094 477.56055 L 506.43359 483.30469 C 505.93459 488.74569 506.15011 489.16386 510.53711 491.25586 L 515.16992 493.46484 L 529.85547 478.52148 C 539.08347 469.13148 544.37847 462.73736 544.10547 461.31836 C 543.53747 458.36836 535.20327 456.12898 532.07227 458.08398 C 530.34927 459.16098 529.52052 459.05702 528.72852 457.66602 C 526.67152 454.05502 519.34342 454.62278 514.10742 458.80078 C 509.24842 462.67778 509.24447 462.67908 510.10547 459.45508 C 510.57947 457.68008 511.96555 451.24239 513.18555 445.15039 L 515.40039 434.07227 z M 632.67383 439.5625 C 633.22383 439.5625 633.67383 444.03963 633.67383 449.51562 C 633.67383 454.99062 634.26056 469.84063 634.97656 482.51562 C 635.69356 495.18962 636.53947 510.80956 636.85547 517.22656 C 637.17447 523.64356 636.99022 528.89258 636.44922 528.89258 C 634.99722 528.89258 632.45972 502.59656 632.13672 484.22656 C 631.56072 451.37156 631.70183 439.5625 632.67383 439.5625 z M 250.98242 440.10547 C 246.88742 439.97747 245.26077 441.78459 242.00977 448.05859 C 236.88377 457.94759 236.65233 462.742 241.11133 466.875 C 243.10033 468.718 245.41972 470.22656 246.26172 470.22656 C 247.10372 470.22656 249.69072 466.07786 252.01172 461.00586 C 254.33272 455.93386 256.85419 451.39778 257.61719 450.92578 C 258.38019 450.45478 259.00781 448.08034 259.00781 445.65234 C 259.00781 441.62834 258.58967 441.17466 254.26367 440.47266 C 253.00567 440.26866 251.92842 440.13447 250.98242 440.10547 z M 100.4375 445.86328 L 100.4375 445.86914 C 97.0765 445.95914 95.055656 447.0013 91.222656 450.2793 C 82.871656 457.4213 82.265781 464.28848 89.800781 466.39648 C 91.564781 466.89048 93.717938 467.35773 94.585938 467.42773 C 97.284937 467.65473 109.78836 448.5657 108.06836 446.8457 C 107.65736 446.4347 104.91375 446.00177 101.96875 445.88477 C 101.42475 445.86477 100.9175 445.85328 100.4375 445.86328 z M 331.51758 446.90625 L 331.51758 446.91016 C 330.27158 446.88016 328.96569 447.06959 327.67969 447.55859 C 323.33669 449.20959 316.73645 459.15542 318.68945 461.10742 C 319.48645 461.90042 319.81473 463.37767 319.42773 464.38867 C 319.00873 465.47967 319.59128 466.22656 320.86328 466.22656 C 323.38128 466.22656 323.49156 466.82933 321.60156 470.36133 C 319.61956 474.06333 321.07061 477.47306 325.34961 479.16406 C 330.43861 481.17206 333.67383 481.19089 333.67383 479.21289 C 333.67383 478.29089 336.32255 474.30637 339.56055 470.35938 C 345.73355 462.83438 346.15141 459.55469 340.94141 459.55469 C 337.24041 459.55469 335.44444 457.25283 337.52344 455.17383 C 341.15044 451.54583 336.91458 447.06125 331.51758 446.90625 z M 119.33789 447.0332 C 117.53389 447.0632 115.94825 447.29773 115.15625 447.80273 C 112.46225 449.52073 106.27398 458.23338 105.08398 461.98438 C 104.41798 464.08137 105.31766 466.00228 108.59766 469.48828 C 113.70466 474.91428 113.97375 474.99958 116.46875 471.89258 C 119.87175 467.65358 128.3418 451.47198 128.3418 449.20898 C 128.3418 447.91198 123.30689 446.9702 119.33789 447.0332 z M 181.19727 448.38477 C 176.38527 448.37477 172.82075 450.70664 169.71875 455.80664 C 166.80175 460.60464 167.26705 462.64159 171.74805 464.68359 C 173.54105 465.50059 175.00781 467.12311 175.00781 468.28711 C 175.00781 469.45111 178.00783 466.6647 181.67383 462.0957 C 189.84283 451.9177 190.1498 449.4202 183.3418 448.5332 C 182.6008 448.4332 181.88527 448.38677 181.19727 448.38477 z M 598.57422 448.41406 L 599.45898 458.85547 C 600.70198 473.56147 600.55653 482.81928 599.01953 486.86328 C 598.29253 488.77628 597.67477 501.26714 597.63477 514.61914 C 597.56477 542.07714 595.30287 605.13689 593.92188 618.21289 C 593.26088 624.46389 592.43341 626.97281 590.94141 627.25781 C 589.80541 627.47481 588.60444 627.40547 588.27344 627.10547 C 587.94244 626.80647 574.4748 626.08405 558.3418 625.49805 C 542.2088 624.91305 525.1088 624.25987 520.3418 624.04688 C 515.5748 623.83488 466.9748 623.32978 412.3418 622.92578 C 307.2098 622.14778 249.64481 621.26639 231.00781 620.15039 C 216.25581 619.26639 182.29173 618.06766 176.42773 618.22266 C 170.47073 618.37966 125.74167 615.75584 116.63867 614.71484 L 109.60352 613.91016 L 109.83984 606.01758 L 110.07422 598.125 L 118.76758 598.88086 C 146.72358 601.30886 202.78883 604.12273 251.67383 605.55273 C 268.76083 606.05873 290.8397 606.93166 315.7207 608.72266 C 321.5617 608.74266 345.2418 609.14252 368.3418 609.60352 C 436.4438 610.96252 473.38145 610.5568 506.06445 608.0918 C 521.46445 606.9538 533.34878 610.73887 537.30078 600.79688 C 540.07278 596.28088 542.94645 591.90427 543.68945 591.07227 C 546.48345 587.94427 549.28489 582.763 550.21289 579 C 550.74089 576.857 552.29978 573.67383 553.67578 571.92383 C 555.05178 570.17483 557.18783 565.62636 558.42383 561.81836 C 559.65983 558.00936 561.75313 552.79256 563.07812 550.22656 C 565.63212 545.28056 571.07028 531.35055 573.48828 523.56055 C 576.77928 512.95855 584.95753 488.85658 588.64453 478.89258 C 590.81453 473.02658 593.93898 463.76831 595.58398 458.32031 L 598.57422 448.41406 z M 398.29883 450.73242 C 394.15883 450.79242 390.59856 451.06561 389.60156 451.59961 C 384.56056 454.29661 380.6817 466.22656 384.8457 466.22656 C 385.8557 466.22656 387.43438 467.13795 388.35938 468.25195 C 389.72437 469.89695 389.66353 470.71094 388.01953 472.58594 C 386.90653 473.85494 385.0287 476.80367 383.8457 479.13867 C 381.7107 483.35567 381.72653 483.40706 386.01953 486.78906 C 388.39653 488.66206 390.94083 490.00448 391.67383 489.77148 C 392.40783 489.53948 394.99773 486.69708 397.42773 483.45508 C 399.85873 480.21208 402.55873 476.65578 403.42773 475.55078 C 406.56973 471.55878 415.48244 452.92284 414.64844 452.08984 C 413.70744 451.14884 405.19883 450.63642 398.29883 450.73242 z M 265.57422 459.62891 C 263.57022 459.56891 260.57097 461.58738 256.16797 465.85938 C 248.99397 472.81837 248.24231 475.86566 252.57031 480.47266 C 256.51531 484.67266 261.05678 484.44058 263.92578 479.89258 C 265.19778 477.87558 267.86642 474.61262 269.85742 472.64062 C 273.70242 468.83263 274.92062 465.25614 273.26562 462.61914 C 272.71063 461.73014 271.43659 461.32398 270.43359 461.70898 C 269.43159 462.09298 268.21447 461.76937 267.73047 460.98438 C 267.19147 460.11438 266.48522 459.65691 265.57422 459.62891 z M 186.00781 466.04297 C 185.45781 465.94197 184.31289 467.22167 183.46289 468.88867 C 182.61189 470.55567 181.24197 472.3357 180.41797 472.8457 C 179.42897 473.4557 180.13152 474.98503 182.47852 477.33203 C 184.43652 479.29003 186.86595 480.89258 187.87695 480.89258 C 190.24695 480.89258 195.00391 473.11656 195.00391 469.22656 C 195.00391 466.78056 194.26881 466.22656 191.00781 466.22656 C 188.80781 466.22656 186.55781 466.14697 186.00781 466.04297 z M 361.80469 515.46875 L 384.4043 515.625 C 396.8353 515.715 407.00781 516.29016 407.00781 516.91016 C 407.00781 517.53016 406.25689 518.82983 405.33789 519.79883 C 404.41989 520.76783 402.27136 525.16055 400.56836 529.56055 C 393.63636 547.39055 386.10694 564.03277 377.71094 583.50977 C 376.17094 585.67277 374.32337 589.11897 373.60938 591.16797 L 372.3125 594.89258 L 353.99023 594.89258 C 343.91523 594.89258 329.07381 594.5195 321.00781 594.0625 C 312.94081 593.6065 297.04083 592.82712 285.67383 592.32812 C 274.30783 591.83013 263.09958 591.13325 260.76758 590.78125 L 256.52539 590.14062 L 260.23242 581.18359 C 262.27142 576.25659 265.23259 569.4098 266.80859 565.9668 C 268.38559 562.5228 269.67945 558.9228 269.68945 557.9668 C 269.69945 557.0098 270.91758 554.72658 272.39258 552.89258 C 276.18058 548.18458 283.71717 535.24612 288.45117 525.32812 C 291.88917 518.12313 293.00022 516.87883 296.07422 516.79883 C 334.06622 515.80283 349.67383 515.62641 349.67383 516.19141 C 349.67383 517.91641 339.91269 537.80714 338.05469 539.86914 C 336.31369 541.80014 336.26033 542.52373 337.73633 544.30273 C 338.77833 545.55873 338.99286 546.79813 338.25586 547.32812 C 337.56986 547.82212 336.2588 549.57656 335.3418 551.22656 C 334.4248 552.87656 332.92381 555.57656 332.00781 557.22656 C 331.09081 558.87656 329.95628 560.52658 329.48828 560.89258 C 329.02028 561.25958 327.66089 563.65956 326.46289 566.22656 C 325.26489 568.79256 322.80795 573.29256 321.00195 576.22656 C 316.97895 582.76156 316.67744 588.96298 320.27344 591.20898 C 322.53744 592.62298 323.24239 592.30605 325.77539 588.74805 C 329.94539 582.89305 334.76634 573.03387 335.77734 568.29688 C 336.25534 566.05788 337.29498 563.42722 338.08398 562.44922 C 339.49898 560.69622 339.99723 558.37306 340.49023 551.28906 C 340.67723 548.59306 341.61698 547.4863 344.20898 546.9043 C 348.37798 545.9683 356.58933 533.02083 359.73633 522.42383 L 361.80469 515.46875 z M 425.99414 516.10156 C 427.00014 516.10156 428.27578 516.16144 429.92578 516.27344 C 433.82178 516.53544 446.89733 517.12408 458.98633 517.58008 C 471.07533 518.03708 481.1235 518.56491 481.3125 518.75391 C 481.3025 530.99591 467.48945 545.76003 455.56445 578.33203 C 454.52545 579.48903 453.67383 581.39636 453.67383 582.56836 C 453.67383 583.74136 452.25548 585.81664 450.52148 587.18164 C 448.78648 588.54564 446.94664 590.98933 446.43164 592.61133 C 445.91664 594.23333 445.08594 595.58914 444.58594 595.61914 C 430.69894 596.52414 384.3418 595.7813 384.3418 594.6543 C 384.3418 594.1903 385.74875 591.95455 387.46875 589.68555 C 390.41275 585.80255 393.56331 578.13492 401.19531 556.29492 C 402.97531 551.19892 406.51369 543.89736 409.05469 540.06836 C 411.59569 536.24036 413.67383 532.50553 413.67383 531.76953 C 413.67383 531.03353 415.04856 528.73511 416.72656 526.66211 C 418.40556 524.58911 420.46855 521.2977 421.31055 519.3457 C 422.38155 516.8657 422.97814 516.12756 425.99414 516.10156 z M 58.833984 521.04102 L 58.828125 521.04297 C 57.908125 521.00297 56.773453 521.0633 55.314453 521.1543 L 49.005859 521.55859 L 49.005859 526.89258 C 49.005859 532.12258 45.536656 541.33006 42.972656 542.91406 C 42.258656 543.35606 41.673828 545.17508 41.673828 546.95508 C 41.673828 549.29508 43.188813 551.14772 47.132812 553.63672 C 50.133812 555.53172 53.432844 556.75928 54.464844 556.36328 C 55.496844 555.96728 56.341797 556.34308 56.341797 557.20508 C 56.341797 558.06408 58.259516 560.74411 60.603516 563.16211 C 62.947516 565.58011 65.498484 567.54688 66.271484 567.54688 C 67.988484 567.53688 76.430859 551.76297 76.380859 548.66797 C 76.310859 544.22197 74.559953 542.024 69.501953 540 C 66.663953 538.865 64.34375 537.84433 64.34375 537.73633 C 64.34375 537.62833 64.881969 535.65556 65.542969 533.35156 C 66.484969 530.06856 66.1925 528.25308 64.1875 524.95508 C 62.4115 522.03608 61.593984 521.14502 58.833984 521.04102 z M 156.88477 524.28906 C 154.78677 524.18206 151.32437 525.82506 149.48438 528.16406 C 147.74038 530.38106 145.97141 530.89989 140.81641 530.71289 C 133.63941 530.45289 131.63452 531.6788 125.47852 540.0918 C 120.52652 546.8608 120.3765 553.51927 125.0625 558.57227 C 129.5445 563.40627 131.46883 563.17959 133.67383 557.55859 C 134.68083 554.99159 135.68616 552.89258 135.91016 552.89258 C 137.36216 552.89258 143.00781 559.05758 143.00781 560.64258 C 143.00781 561.70758 144.30091 563.69936 145.87891 565.06836 C 149.00891 567.78336 149.74363 567.96091 152.89062 566.75391 C 154.04662 566.30991 154.65133 565.39661 154.23633 564.72461 C 153.82133 564.05361 154.95205 561.759 156.74805 559.625 C 162.68805 552.565 166.07416 543.94856 165.16016 538.22656 C 164.68516 535.26256 164.90778 532.69961 165.67578 532.22461 C 167.77078 530.93061 164.65412 526.22656 161.70312 526.22656 C 160.30613 526.22656 158.82897 525.68158 158.41797 525.01758 C 158.13197 524.55458 157.58377 524.32506 156.88477 524.28906 z M 95.007812 525.23438 L 95.007812 525.23828 C 94.479813 525.21828 93.90225 525.23859 93.28125 525.30859 C 86.24525 526.05659 84.439906 527.51378 80.878906 535.30078 C 78.105906 541.36278 77.745734 543.31911 78.927734 545.91211 C 79.723734 547.66111 80.030328 549.64327 79.611328 550.32227 C 78.447328 552.20527 86.708578 551.79362 88.267578 549.89062 C 100.40058 535.08563 102.92581 525.50437 95.007812 525.23438 z M 316.1543 529.23828 C 312.7283 529.42028 310.5467 532.25356 306.8457 540.22656 L 303.13281 548.22656 L 303.64648 541.37695 C 304.15048 534.66395 304.07828 534.50784 300.11328 533.71484 C 297.20428 533.13284 294.98498 533.6753 292.20898 535.6543 C 287.85998 538.7503 286.35391 543.01598 287.37891 549.33398 C 287.80191 551.93698 287.33898 554.63364 286.20898 556.18164 C 283.92198 559.30964 283.75545 567.77694 285.93945 569.96094 C 288.52845 572.54994 294.9982 571.86342 297.5332 568.73242 L 299.82227 565.90625 L 302.29102 569.67188 L 304.75781 573.43555 L 309.73047 567.83008 C 312.46547 564.74808 315.74644 559.97656 317.02344 557.22656 C 318.30044 554.47656 320.11288 551.32656 321.04688 550.22656 C 321.98087 549.12656 323.50078 545.66897 324.42578 542.54297 C 326.52678 535.43897 324.49572 530.76586 318.76172 529.50586 C 317.80472 529.29586 316.9453 529.19728 316.1543 529.23828 z M 636.3418 530.22656 C 637.0748 530.22656 637.67383 532.02656 637.67383 534.22656 C 637.67383 536.42656 637.0748 538.22656 636.3418 538.22656 C 635.6088 538.22656 635.00781 536.42656 635.00781 534.22656 C 635.00781 532.02656 635.6088 530.22656 636.3418 530.22656 z M 215.0918 532.12305 C 212.6718 532.06305 211.68077 532.71736 210.38477 534.56836 C 209.26077 536.17336 208.3418 538.86673 208.3418 540.55273 C 208.3418 542.23873 205.99591 548.28333 203.12891 553.98633 C 200.26191 559.68933 197.71094 565.34473 197.46094 566.55273 C 197.19394 567.84673 198.89561 570.1483 201.59961 572.1543 C 204.12561 574.0273 206.55977 575.55859 207.00977 575.55859 C 208.13077 575.55859 216.3418 563.7945 216.3418 562.1875 C 216.3418 560.0725 217.33864 560.64428 222.30664 565.61328 C 226.97264 570.27928 227.06319 570.30727 230.24219 567.94727 C 232.01219 566.63427 235.60847 561.24184 238.23047 555.96484 C 242.15147 548.07384 242.76422 545.76684 241.69922 542.96484 C 240.60922 540.09884 239.5657 539.55859 235.0957 539.55859 C 231.2187 539.55859 228.95752 538.69256 226.72852 536.35156 C 224.83252 534.35956 221.54373 532.86048 218.05273 532.39648 C 216.86373 532.23848 215.8988 532.14205 215.0918 532.12305 z M 373.55469 533.74414 C 370.16969 533.55814 366.79325 536.23638 360.15625 543.10938 C 350.16325 553.45937 349.08219 555.71598 351.11719 561.95898 C 352.92519 567.50398 354.37394 568.84305 358.58594 568.87305 C 360.42694 568.88305 361.83964 569.99458 362.43164 571.89258 C 362.94664 573.54258 364.03552 575.33405 364.85352 575.87305 C 367.31952 577.49805 368.86897 577.04858 372.54297 573.64258 C 376.68597 569.80058 385.67383 555.3918 385.67383 552.5918 C 385.67383 551.5188 384.49378 549.57162 383.05078 548.26562 C 381.07178 546.47463 380.7438 545.29847 381.7168 543.48047 C 383.7478 539.68647 383.31242 538.63344 378.48242 535.64844 C 376.63242 534.50444 375.09269 533.82914 373.55469 533.74414 z M 637.02344 540.68945 C 637.09344 540.72945 637.17577 540.90556 637.25977 541.22656 C 637.59577 542.50956 637.59577 544.60858 637.25977 545.89258 C 636.92477 547.17558 636.64844 546.12559 636.64844 543.55859 C 636.64844 541.63359 636.80444 540.56345 637.02344 540.68945 z M 605.5957 614.99023 C 606.2327 615.08023 607.08473 618.58053 607.55273 623.14453 C 608.22873 629.74153 608.01842 632.2758 606.73242 633.0918 C 602.28942 635.9098 601.49677 633.7533 603.75977 625.0293 C 604.78077 621.0943 605.31512 617.39655 604.95312 616.81055 C 604.59113 616.22455 604.82666 615.41853 605.47266 615.01953 C 605.51266 614.98953 605.5527 614.98023 605.5957 614.99023 z M 116.04492 630.51758 L 116.04492 630.51953 C 117.94792 630.51953 120.25698 630.60997 122.83398 630.79297 C 129.16298 631.24497 139.59081 631.74334 146.00781 631.90234 C 152.42381 632.06134 157.67383 632.50095 157.67383 632.87695 C 157.67383 633.42395 165.94183 633.38639 179.67383 632.77539 C 185.48983 632.51839 196.33984 633.33525 196.33984 634.03125 C 282.73884 636.34125 333.9008 635.52858 397.3418 637.14258 C 461.2138 637.15258 467.00781 637.33942 467.00781 639.35742 C 467.00781 641.34442 463.65083 641.57145 432.67383 641.68945 C 413.79083 641.75945 391.1418 642.23223 382.3418 642.74023 C 348.0348 644.66723 311.20956 645.14081 274.72656 641.50781 C 261.31456 641.15481 245.24081 640.57952 239.00781 640.22852 C 225.30381 639.45752 194.19881 638.22272 180.00781 637.88672 C 174.32381 637.75272 169.67383 637.26092 169.67383 636.79492 C 169.67383 636.32892 165.62383 635.99664 160.67383 636.05664 C 155.72383 636.11664 148.07383 635.78912 143.67383 635.32812 C 139.27383 634.86713 129.83903 634.04972 122.70703 633.51172 C 114.98003 632.92772 110.0573 632.014 110.5293 631.25 C 110.8253 630.772 112.87392 630.51858 116.04492 630.51758 z M 605.85156 646.22266 C 608.70856 646.22266 610.01097 651.14563 607.41797 652.14062 C 606.33897 652.55162 605.05445 652.77862 604.56445 652.64062 C 604.07445 652.50163 598.27383 652.05162 591.67383 651.64062 L 579.67383 650.89258 L 591.67383 648.55664 C 598.27383 647.27164 604.65356 646.22266 605.85156 646.22266 z M 570.76758 650.5293 C 576.38458 650.5493 579.00781 650.85475 579.00781 651.46875 C 579.00781 652.39275 573.5138 652.91875 563.3418 652.96875 C 554.7248 653.00875 541.82383 653.35342 534.67383 653.73242 C 527.32483 654.12242 521.67383 653.89875 521.67383 653.21875 C 521.67383 652.55675 524.82383 651.91787 528.67383 651.79688 C 532.52383 651.67588 545.4248 651.23155 557.3418 650.81055 C 562.9488 650.61255 567.39658 650.5193 570.76758 650.5293 z" fill="#00B894" transform="translate(-287.89028,154.965) matrix(0.26458333,0,0,0.26458333,-5522.0757,-6139.6342) translate(21958.927,22619.222)"/>
</svg>