<?xml version="1.0" ?><svg height="442.77805mm" viewBox="0 0 634.38556 442.77805" width="634.38556mm" xmlns="http://www.w3.org/2000/svg">
    <path d="m 1689.5371,1.0917969 c 0,0 -29.6555,92.4909101 -44.1367,120.8085931 -14.4812,28.31768 -35.7559,61.54297 -35.7559,61.54297 -40.1361,2.89614 -134.0848,60.01506 -114.2402,122.60352 19.8446,62.58845 112.7217,57.27826 151.7852,86.40039 39.0633,29.12212 95.1997,72.24323 213.8203,68.62304 118.6206,-3.62018 216.6817,-63.07194 246.7168,-81.41406 30.035,-18.34215 116.1186,-101.28385 47.914,-150.4375 -58.8005,-42.37641 -133.9958,-55.60663 -153.6523,-58.45703 1.3769,-1.20116 2.783,-2.54757 4.4316,-4.03125 7.1927,-6.47323 5.3446,-15.29959 0.8125,-28.61133 -4.532,-13.31175 -28.9067,-15.48249 -37.8808,-10.06445 -8.974,5.41804 -16.0314,14.85414 -12.4688,28.42969 1.193,4.54599 2.9358,7.81774 5.1914,10.33789 l -32.332,-3.02539 -80.6836,-148.736333 z" fill="#FFFFFF" paint-order="markers stroke fill" transform="translate(242.83951,95.814595) matrix(3.4819669,0,0,3.4819669,-1618.0063,-78.0041) scale(0.26458333)"/>
    <path d="m 518.53357,108.62818 c -1.14434,-0.4845 -3.53303,-2.23775 -5.14208,-3.77414 -1.1067,-1.05676 -1.64451,-1.30637 -2.82223,-1.30982 -2.45533,-0.007 -8.25295,-1.684 -10.14193,-2.93314 -2.15703,-1.426418 -4.4238,-4.040984 -4.72381,-5.448635 -0.12498,-0.586402 -0.35485,-1.066176 -0.51082,-1.066176 -0.35133,0 -0.70746,1.308546 -0.71384,2.622924 -0.009,1.773097 -2.35737,2.525672 -4.83687,1.549833 -1.92504,-0.757624 -2.13138,-1.827437 -0.28356,-1.470184 1.21916,0.235693 1.22936,0.227181 0.82465,-0.688197 -0.45822,-1.036331 -0.15543,-1.652248 0.48684,-0.99037 0.69624,0.717496 0.98435,0.484205 0.62035,-0.502352 -0.45458,-1.232214 -0.45028,-1.248754 0.32378,-1.248754 0.36732,0 0.76793,0.268803 0.89024,0.597346 0.4034,1.083262 0.44136,0.970604 2.69593,-7.997359 0.70312,-2.796774 1.91734,-4.658724 3.63502,-5.574102 1.55787,-0.830153 1.79483,-0.06441 0.39973,1.291614 -1.72543,1.677155 -2.43766,4.367341 -2.19918,8.30656 0.21992,3.632461 1.24633,6.078339 3.50728,8.357633 1.5808,1.593618 3.31823,2.269709 7.26077,2.825349 l 1.86457,0.26277 -1.24979,-2.343098 c -1.65442,-3.101718 -2.98936,-7.214529 -3.21578,-9.907508 -0.18259,-2.171655 0.26225,-2.196609 0.84162,-1.157156 0.32004,0.574222 0.42429,1.90293 0.77322,2.928316 0.98002,2.880031 3.39895,7.928397 4.35586,9.090726 0.47551,0.57761 1.03783,0.9336 1.25557,0.79494 0.43825,-0.27913 1.22721,-1.76658 1.60316,-3.022568 0.20892,-0.697936 0.11501,-0.817983 -0.64004,-0.817983 -1.26182,0 -1.49123,-0.662053 -0.38026,-1.097338 1.10768,-0.433997 0.84123,-0.953868 -1.13365,-2.21167 -1.45916,-0.929342 -1.73987,-0.744918 -1.2173,0.799876 0.53382,1.57808 0.50172,1.782032 -0.28053,1.782032 -1.20438,0 -2.14259,-2.727656 -2.50091,-7.270991 -0.23336,-2.958917 -0.51206,-4.398886 -1.0245,-5.293983 -0.79813,-1.394017 -0.56812,-1.770552 0.69141,-1.131727 1.0148,0.514677 2.09564,2.557639 2.09641,3.962457 0,0.7315 0.27602,1.13722 1.05414,1.551874 0.57947,0.308798 1.57166,1.024912 2.20486,1.591363 0.85453,0.764395 1.67093,1.091042 3.16735,1.267294 3.06211,0.360561 5.36779,1.350137 5.50883,2.364291 0.17223,1.238603 -0.77597,2.072147 -3.13206,2.75344 -1.15489,0.333922 -2.10066,0.803184 -2.10175,1.042762 -0.006,1.234718 -0.86476,3.326131 -1.8336,4.463271 -1.52601,1.7911 -0.8994,2.23176 1.38695,0.97536 1.90997,-1.04956 2.66368,-0.92304 1.90997,0.32062 -0.43726,0.72161 -0.3914,0.74204 1.39111,0.61967 2.22645,-0.15281 2.72976,0.53041 0.97067,1.31768 -1.14614,0.51292 -1.15238,0.52725 -0.23601,0.5411 2.43897,0.0369 2.96552,1.45045 0.55803,1.49808 l -1.49931,0.0298 1.1721,0.52748 c 0.64467,0.29011 1.10868,0.72665 1.03114,0.97013 -0.17928,0.56287 -1.60705,0.69743 -2.66175,0.25084 z m -0.72894,-14.225916 c 0.75011,-0.23158 1.36384,-0.536998 1.36384,-0.678675 0,-0.141667 -1.11125,-0.665763 -2.46945,-1.164653 -1.95615,-0.718516 -2.46944,-0.799701 -2.46944,-0.390529 0,0.315053 -0.17201,0.41114 -0.44097,0.246266 -0.24254,-0.148654 0.11465,0.309313 0.79375,1.017678 1.45016,1.512724 1.45729,1.514868 3.22227,0.969913 z m -6.23327,-3.590982 c -1.39872,-1.476181 -1.82375,-1.420893 -1.43231,0.186361 0.14482,0.594544 0.51798,0.917048 1.18096,1.020585 0.53312,0.08327 1.12056,0.17588 1.30545,0.205838 0.18493,0.02978 -0.28941,-0.605817 -1.0541,-1.412784 z m -63.03483,15.372948 c -0.55956,-0.66107 -1.33473,-2.07237 -1.33473,-2.43006 0,-0.60586 1.10782,-0.0645 1.73987,0.85023 1.17468,1.70005 0.831,3.04023 -0.40514,1.57983 z m 86.8534,-0.28048 c -0.30646,-0.38052 -0.31298,-0.97929 -0.0258,-2.35935 0.2117,-1.01717 0.38488,-1.92317 0.38488,-2.0133 0,-0.0902 -0.71437,-0.16388 -1.5875,-0.16388 -1.09139,0 -1.5875,-0.15218 -1.5875,-0.48697 0,-0.58761 1.47521,-1.330771 2.6416,-1.330771 1.01579,0 1.1473,-0.190132 1.44106,-2.083348 l 0.2279,-1.468618 -2.59627,-0.154404 c -3.08279,-0.1833 -5.07157,-1.071297 -6.17023,-2.755068 -1.20611,-1.848388 -1.37703,-3.729568 -0.49992,-5.501356 0.68683,-1.387402 0.70037,-1.568744 0.19241,-2.581002 -0.3005,-0.598799 -0.62043,-1.088754 -0.71103,-1.088754 -0.0906,0 -1.70091,1.331093 -3.57857,2.957969 -2.8997,2.51244 -3.60412,2.956258 -4.67696,2.946736 -1.47845,-0.01309 -3.20332,-0.639154 -3.20332,-1.162663 0,-0.538926 1.61688,-0.862739 3.08327,-0.617524 1.23025,0.205735 1.41097,0.08481 4.55116,-3.04576 1.85028,-1.844678 3.56961,-3.260048 3.96003,-3.260048 0.66742,0 2.51665,1.890454 2.51665,2.572716 0,0.539369 1.06179,0.38584 1.27405,-0.184207 0.10647,-0.285931 -0.0747,-1.102532 -0.40262,-1.814649 -0.50112,-1.08828 -0.73064,-1.259987 -1.43937,-1.076686 -0.46376,0.119974 -0.84317,0.06214 -0.84317,-0.128507 0,-0.437532 1.17524,-1.549957 1.63745,-1.549957 0.51304,0 2.06929,1.814947 2.80554,3.27194 l 0.643,1.272415 0.23679,-1.875615 c 0.251,-1.988282 0.83421,-3.115207 2.07603,-4.011571 1.10881,-0.800351 1.26502,-0.327193 0.33591,1.017493 -0.74535,1.078685 -0.8026,1.501893 -0.72845,5.383278 0.0599,3.133015 -0.0454,4.389796 -0.41074,4.904288 -0.74009,1.042112 -1.30387,0.379987 -1.30383,-1.531191 0,-1.664676 -0.0254,-1.70464 -1.07245,-1.672683 -1.63812,0.04998 -1.8143,0.468252 -1.20784,2.867674 0.48095,1.902769 0.48207,2.198655 0.0102,2.684869 -0.4718,0.486245 -0.60921,0.472796 -1.24678,-0.121788 -0.39409,-0.367549 -0.71653,-0.915563 -0.71653,-1.217849 0,-0.302254 -0.0952,-0.451454 -0.21156,-0.331552 -0.11635,0.119892 -0.025,0.800598 0.20306,1.512611 0.36354,1.135107 0.63951,1.361813 2.24003,1.84002 1.25416,0.374752 2.3222,0.457895 3.41291,0.26565 l 1.5875,-0.279789 0.20546,-6.273779 c 0.19452,-5.940413 0.53047,-7.739604 1.22799,-6.576507 0.1531,0.255282 0.35069,3.050675 0.43913,6.211978 0.0928,3.317954 0.30403,5.747838 0.49968,5.747838 0.63602,0 4.76017,-4.554238 5.60306,-6.18741 1.66836,-3.232482 0.76204,-10.721492 -1.38239,-11.422921 -0.46683,-0.152694 -1.53519,0.221687 -3.12212,1.09402 -2.25908,1.241849 -2.56089,1.313687 -4.74645,1.130202 -2.60463,-0.21871 -4.64831,-0.971511 -5.89763,-2.172418 -1.12963,-1.085879 -2.17534,-3.271126 -2.17534,-4.54587 0,-0.909854 -0.18838,-1.105737 -1.43298,-1.490001 -1.04309,-0.322071 -1.39965,-0.609743 -1.31043,-1.057312 0.0926,-0.464903 0.43282,-0.590071 1.39481,-0.513142 1.12928,0.09027 1.31301,-0.01896 1.63502,-0.970748 0.89197,-2.636743 4.16688,-6.097739 8.7841,-5.741769 1.40143,0.108045 1.54217,-0.308355 1.36938,-1.017936 -0.23823,-0.978116 0.41889,-1.95345 1.4176,-2.104062 0.40979,-0.06183 1.0238,-0.39965 1.36451,-0.750761 0.47456,-0.48909 1.08253,-0.613196 2.59941,-0.53064 1.84672,0.100579 2.00413,0.181053 2.33965,1.197237 0.19788,0.599202 0.70881,1.417184 1.13538,1.817741 1.39785,1.312481 1.20693,2.728676 -0.54722,4.059625 -1.09023,0.827216 -1.30451,1.17503 -1.0831,1.758299 0.79728,2.100693 0.11691,6.274624 -1.20731,7.406341 -0.83609,0.714559 -0.73812,0.933484 0.649,1.450377 1.2168,0.453412 3.00052,2.884204 3.00052,4.088965 0,0.396846 2.93342,4.916036 3.7218,5.73373 0.0734,0.07616 0.67607,-0.126837 1.33918,-0.451083 1.55995,-0.76287 2.90382,-0.918799 2.78832,-0.323597 -0.0485,0.249935 0.14993,0.454433 0.44098,0.454433 0.84225,0 0.61492,0.5671 -0.44098,1.100059 l -0.97014,0.489697 1.20668,0.204859 c 2.00618,0.340652 1.65559,0.977694 -0.75329,1.368728 -2.07253,0.336427 -2.14294,0.378307 -1.07865,0.641618 1.37481,0.340136 1.93132,0.941048 1.51476,1.635676 -0.25023,0.41721 -0.55422,0.431349 -1.69595,0.07884 -2.03394,-0.627994 -2.95726,-1.53148 -4.11406,-4.02568 -1.00591,-2.168852 -1.5821,-2.378976 -1.60393,-0.584939 -0.0307,2.5357 -4.56844,8.491849 -7.63468,10.021515 -1.44967,0.723174 -1.53977,0.856267 -1.54432,2.280644 -0.004,0.831946 -0.0984,1.872492 -0.21287,2.312312 -0.19614,0.753778 -0.0816,0.805913 1.99662,0.908873 1.67188,0.08285 2.29877,0.268109 2.59412,0.766709 0.30624,0.51701 0.26116,0.75589 -0.211,1.11799 -0.36826,0.28244 -0.52779,0.74679 -0.41254,1.20098 0.28596,1.12688 -0.85827,1.39787 -1.84968,0.43807 l -0.8127,-0.78682 0.20567,1.30597 c 0.29196,1.8542 -0.03,2.56668 -0.93479,2.06771 -0.5474,-0.30189 -0.71078,-0.76014 -0.71078,-1.99373 0,-0.88095 -0.15875,-1.70282 -0.35277,-1.82639 -0.19403,-0.12357 -0.35366,0.0712 -0.35476,0.43299 -0.004,1.24649 -0.7185,3.31239 -1.21383,3.50827 -0.27309,0.10797 -0.68129,-0.0331 -0.90717,-0.3136 z m 3.10716,-31.407218 c 2.59356,-1.377632 4.66027,-4.257075 4.66027,-6.49289 0,-2.057977 -0.75061,-3.484024 -2.53503,-4.816106 -1.81927,-1.358104 -4.47356,-1.677443 -7.28323,-0.488604 -2.27647,0.963256 -2.36937,1.759751 -1.85177,3.1528 l 0.37941,1.021089 0.85351,-1.021089 c 0.83585,-0.999968 1.52536,-1.323727 3.43966,-0.920912 3.5857,0.75452 4.02191,0.568121 3.48858,4.125837 -0.49759,3.319118 -1.31766,5.119988 -2.52702,5.549266 -1.4339,0.508968 -2.79865,-0.01525 -3.25032,-1.24828 -0.27231,-0.743455 -0.63348,-1.074245 -1.17288,-1.074245 -0.77568,0 -1.88813,-0.858152 -1.88813,-1.456477 0,-0.172655 0.13603,-0.692671 0.30226,-1.155574 0.39885,-1.110601 -1.07873,-4.17455 -1.66317,-3.448841 -1.17952,1.464629 -0.71145,5.657533 0.79434,7.11533 1.89798,1.837516 5.91415,2.401339 8.25352,1.158696 z M 529.18736,69.2296 c -0.12915,-0.346793 -0.0602,-0.8105 0.15324,-1.030446 0.28223,-0.290836 0.45212,-0.227943 0.62287,0.230632 0.12915,0.346794 0.0602,0.810501 -0.15325,1.030447 -0.28222,0.290836 -0.45212,0.227943 -0.62286,-0.230633 z m 8.1946,1.963159 c 0.50359,-1.087446 0.64432,-1.780549 0.41981,-2.06717 -0.21714,-0.27714 -0.20303,-0.690743 0.0394,-1.157614 0.68481,-1.318655 0.47787,-1.582779 -1.03385,-1.319572 -0.92767,0.161525 -1.41111,0.110195 -1.41111,-0.149818 0,-0.217504 -0.47964,-0.395497 -1.06589,-0.395497 -0.8128,0 -1.16783,0.230561 -1.49517,0.970893 -0.33909,0.76694 -0.33751,1.002406 0.008,1.120917 0.51907,0.178322 0.59341,1.54366 0.084,1.54366 -0.19403,0 -0.35278,0.2454 -0.35278,0.545325 0,0.339302 0.33316,0.545325 0.88195,0.545325 0.61408,0 0.88194,0.198748 0.88194,0.654386 0,0.902291 0.73367,1.575546 1.58009,1.449934 0.44023,-0.06533 0.9918,-0.721205 1.46396,-1.740769 z m 7.51371,-9.118215 c 1.24298,-1.224104 1.22806,-2.029112 -0.0411,-2.214443 -0.64502,-0.09419 -0.81531,-0.346865 -0.81531,-1.209748 0,-0.794755 -0.14358,-1.049347 -0.52916,-0.938421 -0.29105,0.08368 -0.89645,0.141276 -1.34532,0.12793 -0.5551,-0.01638 -0.92188,0.262301 -1.14678,0.871931 -0.25065,0.679294 -0.5014,0.840417 -1.03596,0.665588 -0.54293,-0.177591 -0.70528,-0.06513 -0.70528,0.48846 0,0.490718 0.49527,0.966235 1.55896,1.496875 0.85743,0.427742 1.74999,1.014948 1.98346,1.304846 1.05247,0.73453 1.6298,-0.155442 2.07649,-0.593018 z m -94.29652,42.837276 c -0.11699,-0.4499 -0.21489,-1.12431 -0.21753,-1.4987 -0.004,-0.564 0.0859,-0.60312 0.52435,-0.22816 0.56421,0.48253 0.7405,2.54484 0.21753,2.54484 -0.1714,0 -0.40736,-0.3681 -0.52435,-0.81798 z m 2.24709,0.47154 c 0,-0.67979 0.81376,-2.17241 1.08885,-1.99718 0.35425,0.22562 -0.34215,2.34362 -0.77058,2.34362 -0.17504,0 -0.31827,-0.1559 -0.31827,-0.34644 z m 18.93514,-4.2888 c -0.0861,-0.14996 -0.2649,-0.94807 -0.39737,-1.77357 l -0.24084,-1.500873 -2.10072,-0.244915 c -1.15538,-0.134701 -2.75213,-0.481772 -3.54835,-0.77131 -0.79621,-0.289486 -1.49479,-0.526343 -1.55236,-0.526343 -0.0576,0 -0.28342,0.558125 -0.50186,1.240283 -0.39201,1.223991 -1.18075,1.864269 -1.80601,1.466041 -0.4518,-0.287713 -0.39885,-1.768872 0.10386,-2.905875 0.35517,-0.803329 0.33383,-1.013309 -0.13011,-1.280917 -0.82941,-0.47832 -1.54746,-2.463624 -1.0693,-2.956372 0.27894,-0.287456 0.72411,-0.0911 1.60951,0.710045 2.2141,2.003359 4.81637,2.795867 9.21925,2.807563 4.40471,0.01165 6.33688,-0.648996 7.16629,-2.45067 0.56395,-1.225011 1.12399,-0.976128 1.12399,0.499518 0,0.674852 -0.3355,1.431425 -0.88653,1.999288 -0.80571,0.830308 -0.83602,0.965658 -0.3325,1.48455 0.30473,0.314033 0.698,1.10314 0.55388,1.377552 -0.52965,1.008425 -1.95769,0.234807 -2.4859,-0.328793 -0.44919,-0.479284 -0.98615,-0.826268 -1.20805,-0.757449 -0.22186,0.06884 -0.82529,0.219946 -1.34098,0.335808 -0.8884,0.199593 -0.91818,0.275718 -0.56769,1.452562 0.20341,0.683024 0.27312,1.501707 0.1549,1.819217 -0.21822,0.586 -1.47679,0.80349 -1.76311,0.30466 z m 10.22784,-2.878101 c -0.45032,-0.464068 -0.23075,-3.040525 0.43625,-5.118494 1.65396,-5.152852 3.27053,-10.693111 3.15489,-10.812281 -0.0696,-0.07173 -1.51462,1.18113 -3.21116,2.784088 -2.13209,2.014457 -3.08462,3.167991 -3.08462,3.735421 0,1.274084 -1.45161,3.216487 -3.00327,4.018651 -2.12633,1.099266 -8.36048,1.013062 -11.24218,-0.155445 -2.25803,-0.915594 -4.54618,-2.819466 -5.37595,-4.473063 -1.01964,-2.031936 0.5363,-10.844187 2.70743,-15.33379 0.57143,-1.181677 1.03897,-2.169759 1.03897,-2.195759 0,-0.02617 -1.1417,-0.02545 -2.53707,0 l -2.53711,0.04854 -1.87492,2.075826 c -1.63252,1.807455 -1.82457,2.172778 -1.48542,2.825855 0.50542,0.973222 -0.45619,2.191359 -1.15852,1.467577 -0.23422,-0.24136 -0.64356,-0.438841 -0.90966,-0.438841 -0.66573,0 -1.24078,-0.693979 -1.72058,-2.076475 -0.45826,-1.320407 0.0274,-2.136678 0.92938,-1.5622 0.27527,0.175335 0.64488,0.22681 0.82136,0.114399 0.17648,-0.112399 0.43131,-0.0203 0.56629,0.204859 0.15463,0.257828 0.86747,-0.259642 1.9269,-1.39885 0.92482,-0.994451 1.59368,-1.954512 1.48637,-2.133443 -0.10732,-0.178941 -0.63499,-0.423867 -1.1726,-0.544305 -0.53761,-0.120448 -3.94887,-0.864624 -7.58058,-1.653711 -7.84389,-1.704309 -23.15609,-6.381603 -26.42797,-8.072763 -1.24857,-0.645328 -1.29674,-0.644308 -1.89861,0.04112 -0.33964,0.386737 -0.9141,0.800206 -1.27657,0.918758 -0.36246,0.118552 -0.65903,0.429895 -0.65903,0.691825 0,0.261981 -0.2563,0.695545 -0.56957,0.963483 -0.48928,0.418436 -0.67781,0.357439 -1.33739,-0.432771 -0.4223,-0.505948 -0.99943,-1.013103 -1.28251,-1.126997 -0.68112,-0.274079 -1.54912,-3.18923 -1.09037,-3.661944 0.39922,-0.411429 2.50955,0.427206 2.52704,1.004189 0.006,0.201149 0.39403,0.652675 0.86208,1.003426 0.70235,0.526343 1.00852,0.563792 1.75281,0.214309 0.49599,-0.232879 0.9018,-0.619699 0.9018,-0.859534 0,-0.239866 0.55358,-1.04102 1.23017,-1.78029 1.21145,-1.323756 5.63361,-8.762992 8.9246,-15.013543 3.23223,-6.138975 10.07294,-22.557851 12.61354,-30.274669 0.8235,-2.5012905 2.07001,-6.0377682 2.77004,-7.8588472 0.91325,-2.37578196 1.27276,-3.87083247 1.27276,-5.2928391 0,-2.2169877 0.58617,-3.3622869 1.61082,-3.1473906 0.60154,0.1261573 0.67169,0.4214555 0.59306,2.4962302 l -0.0892,2.35315151 9.75877,1.2212389 c 9.87899,1.23628459 24.31346,1.95063719 27.39141,1.35557869 l 1.28714,-0.2488419 -0.20838,-1.56669288 c -0.23968,-1.80209662 0.29203,-3.12985112 1.25335,-3.12985112 1.03836,0 1.49345,0.9019501 1.68991,3.34923017 0.15839,1.97308203 0.59612,3.10632413 3.1998,8.28430073 5.6539,11.2438666 15.74158,28.5500996 20.55424,35.2625026 1.07587,1.500544 2.81217,3.996114 3.85847,5.545742 1.04627,1.549617 2.10196,2.817487 2.34591,2.817487 0.24398,0 0.53287,0.148839 0.64195,0.330759 0.38957,0.649552 -0.23524,1.444884 -1.68388,2.14348 -2.14496,1.034362 -16.45998,5.628369 -22.8145,7.321672 -9.91834,2.642988 -17.36686,4.708014 -17.50857,4.854092 -0.0768,0.07914 0.10065,0.736292 0.39423,1.460363 0.80959,1.996866 0.66767,4.787787 -0.3968,7.801631 -0.51368,1.454448 -0.83909,2.742238 -0.72309,2.86178 0.11599,0.119531 0.73395,-0.321855 1.37326,-0.980889 1.65357,-1.704567 3.80929,-3.252917 4.52892,-3.252917 0.97529,0 1.06574,0.909226 0.31433,3.159922 -1.09076,3.267128 -1.59339,3.395171 -1.39566,0.355584 0.0586,-0.900105 -0.0141,-0.981507 -0.57997,-0.650357 -0.35581,0.208167 -1.28192,0.945882 -2.05803,1.639315 -1.38,1.233049 -1.39556,1.273394 -0.70556,1.829302 1.47316,1.186871 2.18175,1.098709 3.96145,-0.492861 0.92565,-0.827803 2.00049,-2.112543 2.38855,-2.855019 0.90022,-1.722344 2.86727,-2.794012 4.18257,-2.278675 0.56109,0.219833 0.84688,0.554445 0.73353,0.858874 -0.10213,0.274296 0.0597,0.708561 0.35952,0.965008 0.6798,0.581414 0.71546,1.831477 0.0522,1.831477 -0.33066,0 -0.47586,0.384707 -0.44097,1.168373 0.0728,1.636655 -0.88237,1.752518 -1.82323,0.221182 -0.50793,-0.826711 -0.77879,-1.02652 -0.88624,-0.653839 -0.38217,1.325126 -3.41902,13.649585 -3.41578,13.862111 0.004,0.130733 0.87535,-0.248852 1.94074,-0.843509 1.24231,-0.693391 2.19132,-0.998077 2.64583,-0.849424 0.98267,0.321412 0.93042,1.8454 -0.085,2.479433 -5.46057,3.409526 -6.23735,3.787731 -6.73216,3.277784 z m -6.83846,-6.790486 c 1.69951,-0.732078 2.11156,-1.407837 1.73327,-2.842478 -0.17589,-0.667072 -0.51819,-1.166219 -0.76066,-1.109221 -1.3499,0.317383 -1.8119,-2.015179 -1.03163,-5.208438 0.32756,-1.340544 0.29158,-1.86871 -0.2153,-3.160283 -0.69208,-1.763421 -1.09343,-7.112846 -0.5904,-7.868482 0.57082,-0.857431 1.01966,-0.145016 1.47478,2.340775 0.52338,2.85843 1.02849,2.667896 1.30659,-0.492861 0.24436,-2.776884 0,-3.753012 -1.33594,-5.320127 -2.999,-3.519979 -8.49154,-0.848734 -11.54709,5.615766 -1.65311,3.497471 -3.68335,11.115112 -3.40875,12.79001 0.35504,2.165657 3.27251,4.519335 6.69089,5.397923 1.80739,0.4645 6.47598,0.377905 7.68424,-0.142584 z m 3.67658,-6.021372 0.77753,-1.016916 -1.36476,-0.920798 c -1.45796,-0.983682 -2.13053,-0.797362 -2.13053,0.590184 0,0.671472 1.28093,2.429771 1.73718,2.384582 0.11169,-0.01123 0.55298,-0.477732 0.98058,-1.037052 z m -14.425,-15.962697 c 0,0 0.75074,-0.988663 1.6239,-1.818095 2.0798,-1.975627 3.4707,-2.655756 5.89414,-2.882246 l 2.04639,-0.191225 -1.34257,-1.00223 c -1.97202,-1.472153 -2.77505,-2.701852 -3.22594,-4.940141 -0.22133,-1.09875 -0.50842,-1.946876 -0.63792,-1.884704 -0.12951,0.06214 -0.81612,0.344063 -1.52577,0.626459 -1.01744,0.404926 -1.46473,0.904217 -2.11536,2.361251 -1.18258,2.648368 -3.80132,7.463484 -4.81104,8.846063 l -0.8629,1.181522 1.18841,-0.0082 c 1.04528,-0.07428 2.6868,-0.174023 3.76866,-0.288454 z m -2.71876,-6.743993 c 2.33461,-4.654612 2.33916,-4.939595 0.0792,-4.950858 -1.33195,-0.0062 -2.23372,-0.321268 -2.23372,-0.779338 0,-0.182867 0.41247,-0.974788 0.91659,-1.759835 0.66287,-1.032219 1.03576,-2.313177 1.34708,-4.627416 0.23675,-1.76004 0.61197,-3.545752 0.83379,-3.968196 0.75025,-1.428778 3.14286,-2.039469 5.79734,-1.479675 1.2947,0.273028 1.3202,0.255715 2.16881,-1.47004 0.4723,-0.960464 2.53838,-5.787864 4.59133,-10.727582 2.05296,-4.939697 4.94796,-11.481105 6.43333,-14.536459 1.48537,-3.055354 3.4442,-7.191146 4.35296,-9.1906611 l 1.65227,-3.6354806 -8.13774,-0.04184 C 475.02909,5.50755 469.70024,5.3026499 467.66295,5.0752945 462.86531,4.5398934 454.85237,3.000458 451.26273,1.9245237 c -1.55439,-0.4659022 -2.92541,-0.7355093 -3.0467,-0.599129 -0.1213,0.1363802 -1.29453,3.6016891 -2.6072,7.7006915 -3.42949,10.7091148 -10.27103,27.3273458 -13.92269,33.8184228 -2.91976,5.190074 -6.4645,10.727746 -8.2099,12.825636 -0.96526,1.16019 -1.69719,2.166306 -1.62651,2.235784 0.0707,0.06946 2.19225,0.782904 4.71461,1.585325 2.52236,0.802453 7.44361,2.368187 10.93611,3.479438 3.4925,1.111261 8.56052,2.531134 11.26228,3.155274 2.70175,0.62414 5.87675,1.503923 7.05555,1.955048 l 2.14328,0.820198 0.78915,-0.944604 c 0.43404,-0.519551 1.76285,-2.885955 2.95291,-5.258687 z m 21.79172,1.185273 c 3.41891,-1.021017 6.50303,-1.94229 6.85355,-2.047311 0.44277,-0.132629 0.55496,-0.370527 0.36753,-0.779338 -0.14838,-0.323637 -0.37476,-4.023969 -0.50303,-8.222942 -0.12831,-4.198984 -0.40866,-11.969813 -0.62304,-17.268526 -0.3157,-7.803486 -0.66947,-20.278052 -0.74701,-26.3394601 -0.0173,-1.3463245 -8.61677,16.1241131 -12.1599,24.7034951 -1.32125,3.199226 -3.10585,7.406712 -3.96578,9.350012 -1.28062,2.89388 -1.49416,3.666859 -1.18004,4.271687 0.47575,0.91611 0.78937,0.92691 1.55638,0.05349 1.11436,-1.268932 3.35243,-1.464491 6.64284,-1.099513 6.03642,0.66957 6.96139,5.115776 6.30361,9.418975 -0.23819,1.499636 -0.95732,3.513203 -0.95732,3.513203 1.79541,1.025287 1.56111,2.544149 -0.65173,1.54977 0,0 -0.87087,0.574094 -1.29209,1.183724 -0.97924,1.417183 -3.9159,2.833852 -5.88398,2.838438 -0.92283,0.0041 -1.43446,0.146397 -1.3021,0.367105 2.51944,0.529125 6.49868,-1.181748 7.54211,-1.492809 z m -5.11613,-1.221182 c 0,0 -0.30904,-0.443754 -0.40964,-0.557944 -0.93091,-1.056702 -1.48717,-2.000206 -1.48717,-2.734128 0,-0.472219 0.34074,-0.30517 1.41213,0.692299 0.92463,0.860884 1.75825,1.314739 2.41476,1.314739 1.1817,0 2.46315,-1.378722 2.46315,-1.378722 -1.05611,-0.730647 -0.12486,-1.480138 1.04091,-1.166118 0,0 0.11816,-0.302357 0.57921,-1.489743 0.59982,-1.544898 0.31736,-5.513091 -0.12103,-5.967162 -0.13759,-0.142543 -1.68195,0.599427 -4.11492,0.311314 -2.49746,-0.29575 -2.6718,1.944143 -4.78243,1.115274 -0.77667,-0.305008 -0.18457,-0.852227 1.63453,-1.271755 1.5742,-0.363045 1.86238,-0.539977 1.53722,-0.943738 -0.62406,-0.774896 -0.14294,-0.932608 1.39588,-0.457483 1.44582,0.446394 3.94892,0.207363 3.94892,-0.377112 0,-0.177261 -0.48895,-0.681108 -1.08652,-1.119618 -1.25413,-0.920283 -4.61917,-1.101914 -6.78261,-0.366096 -2.52053,0.857215 -4.8097,4.621202 -4.82311,7.930396 -0.008,1.880087 0.008,1.908633 1.05057,1.908633 1.24714,0 1.47172,0.956486 0.32703,1.392853 -0.71113,0.271101 -0.71357,0.300111 -0.0882,1.052366 1.36882,1.646538 4.52331,2.888804 5.89132,2.111745 z m 0.98905,-5.007697 c 0.16729,-1.208326 1.34747,-1.314553 1.34747,-0.121242 0,0.703646 -0.18098,0.935515 -0.73011,0.935515 -0.5545,0 -0.70298,-0.195801 -0.61736,-0.814273 z m 3.17313,-0.877568 c 0.0722,-0.648388 0.35257,-1.075078 0.7584,-1.15444 0.51989,-0.101713 0.62174,0.07203 0.52917,0.902651 -0.0722,0.648389 -0.35257,1.075079 -0.7584,1.15444 -0.51989,0.101713 -0.62174,-0.07203 -0.52917,-0.902651 z m -10.6451,0.07894 c 0,-0.409718 0.35288,-0.568368 1.2641,-0.568368 1.59396,0 1.4725,0.858184 -0.14474,1.0228 -0.82712,0.0842 -1.11936,-0.03452 -1.11936,-0.454432 z m 1.1237,-2.658776 c 0.1548,-0.841066 3.10963,-1.156985 3.10963,-0.332459 0,0.635188 -0.74757,0.968677 -2.17138,0.968677 -0.81453,0 -1.02863,-0.14517 -0.93825,-0.636218 z m 23.16755,5.913836 c 1.87099,-0.492572 6.4051,-1.93218 10.07583,-3.199113 l 6.67402,-2.303511 -1.95403,-1.136446 c -1.0747,-0.625047 -3.9195,-3.004364 -6.32174,-5.287337 l -4.36775,-4.150909 -3.28933,-0.780471 c -1.80912,-0.429236 -3.63686,-0.780461 -4.06167,-0.780461 h -0.77234 l 0.13346,8.910882 c 0.10692,7.140877 0.0379,9.031908 -0.34756,9.520297 -0.42291,0.535875 -0.40188,0.578848 0.17417,0.356058 0.36032,-0.139348 2.18595,-0.656385 4.05694,-1.148989 z m -28.76483,-5.03804 c 1.12363,-0.678604 1.7659,-1.459436 2.61013,-3.173195 l 1.11979,-2.27308 -0.71614,-0.941223 c -1.02778,-1.35088 -2.02022,-1.822584 -3.86539,-1.837269 -2.14622,-0.01711 -2.64368,0.623563 -2.95426,3.804384 -0.13667,1.399665 -0.55316,3.263098 -0.92552,4.140996 l -0.67701,1.596156 1.95901,-0.208353 c 1.13312,-0.12052 2.58734,-0.587824 3.44939,-1.108416 z m 49.42389,-1.550895 c 0.89048,-0.352132 0.65754,-0.802896 -0.81496,-1.57704 -2.23654,-1.175823 -8.07578,-6.019259 -11.79346,-9.782236 -6.90556,-6.98975 -9.67892,-11.736604 -12.45687,-21.321133 l -0.84293,-2.90838 0.14881,2.90838 c 0.26292,5.13863 3.79638,14.314483 7.17034,18.620271 1.71461,2.188153 7.45053,8.008262 10.32765,10.479224 1.67484,1.438382 6.09148,3.801581 7.10494,3.801581 0.32914,0 0.84956,-0.09924 1.15648,-0.220667 z m -6.26872,-10.183638 c -4.59388,-6.880905 -14.22933,-23.425721 -18.07729,-31.040147 -1.73553,-3.4342382 -1.95125,-2.6382368 -0.71625,2.642937 2.41957,10.346822 5.49441,16.612522 11.3344,23.096436 2.34188,2.600128 8.98398,8.565841 9.24155,8.300449 0.0718,-0.07399 -0.73032,-1.4238 -1.78241,-2.999675 z m -13.3929,-3.283998 c -1.49239,-2.159329 -3.10839,-5.446274 -4.69967,-9.559209 l -1.20311,-3.109704 0.19537,4.36258 c 0.10746,2.399412 0.28536,5.459208 0.39536,6.799504 l 0.19999,2.436964 1.64154,0.243514 c 0.90287,0.133887 2.27655,0.358305 3.05266,0.498643 0.77611,0.140327 1.4617,0.218049 1.52354,0.172675 0.0618,-0.04545 -0.43572,-0.875641 -1.10568,-1.844967 z m -66.57516,42.934731 c -0.42602,-0.710333 -0.66397,-1.405518 -0.52879,-1.544825 0.3352,-0.345444 2.37733,2.056658 2.11721,2.490408 -0.37302,0.621965 -0.80118,0.367074 -1.58842,-0.945583 z m 2.36248,1.018874 c -0.15846,-0.269926 -1.29268,-4.094674 -1.29268,-4.359118 0,-0.07554 0.15988,-0.03524 0.35528,0.08904 0.89431,0.569563 2.16902,4.542748 1.45746,4.542748 -0.198,0 -0.43202,-0.122705 -0.52006,-0.272668 z m 1.39754,-0.28455 c -0.36845,-0.989503 -0.2471,-3.382155 0.18552,-3.657688 0.67551,-0.430225 1.39674,1.015422 1.28506,2.575808 -0.10982,1.534396 -1.0457,2.222882 -1.47058,1.08188 z m 67.64799,-2.683127 c -2.40111,-1.123689 -4.36877,-4.412849 -4.36877,-7.302948 0,-1.73267 1.26002,-4.479267 2.70115,-5.88798 1.40833,-1.376653 3.19991,-2.061604 6.12518,-2.341753 2.24084,-0.214639 1.99736,0.34338 2.28714,-0.441986 0.4645,-1.25908 2.15247,-1.235216 1.79615,0.386585 -0.25297,1.151433 0.25319,1.272157 1.09333,2.171572 1.28683,1.377632 2.55937,4.047156 2.56791,5.386864 0.0127,2.006791 -0.78821,3.835764 -2.36499,5.400437 -3.10211,3.078304 -6.77806,4.06079 -9.8371,2.629209 z m 10.09512,-8.728489 c 0,-1.307968 -1.84954,-3.901336 -3.48382,-4.884956 -1.0976,-0.6606 -3.96868,-1.035238 -4.41459,-0.576076 -0.10798,0.111246 -0.0346,0.806534 0.16344,1.545073 0.27894,1.041061 0.53845,1.342872 1.15461,1.342872 1.03085,0 1.64147,0.651377 1.64147,1.751065 0,0.689795 0.14669,0.839036 0.68274,0.694597 0.37549,-0.101198 0.97528,0.02731 1.3329,0.285282 0.55908,0.403565 0.99476,0.543686 2.65867,0.855019 0.14552,0.02731 0.26458,-0.428545 0.26458,-1.012876 z m -2.99861,-2.573087 c -0.11991,-0.199943 -0.12421,-0.519974 -0.01,-0.711199 0.29019,-0.483885 1.24424,-0.04813 1.24424,0.568326 0,0.581281 -0.90875,0.686415 -1.23472,0.142873 z m -3.54679,-1.485848 c -0.36354,-0.606219 0.45413,-1.301321 0.94079,-0.799804 0.40707,0.419498 0.15229,1.195012 -0.39261,1.195012 -0.17113,0 -0.41779,-0.177849 -0.54818,-0.395208 z m 17.62517,9.665251 c -0.318,-0.500137 -1.03604,-2.414324 -1.59562,-4.253736 -1.26439,-4.156001 -1.38656,-7.544298 -0.31192,-8.651746 l 0.70555,-0.72709 h -2.12774 c -1.59823,0 -2.18006,0.140513 -2.338,0.564627 -0.36301,0.974891 0.51985,4.466839 2.02134,7.994959 1.55776,3.66045 1.64314,4.645089 0.41836,4.825257 -0.6526,0.09605 -0.93899,-0.239248 -1.70794,-1.999505 -2.17124,-4.9705 -3.35604,-9.918751 -2.80405,-11.711047 0.13007,-0.422331 0.66213,-0.9995 1.18241,-1.282596 l 0.9459,-0.514739 -0.97014,-0.383656 c -0.60727,-0.240196 -0.97014,-0.653479 -0.97014,-1.105037 0,-0.422187 1.53847,-2.366558 3.70967,-4.688423 2.04033,-2.181908 4.16729,-4.618038 4.72655,-5.413669 1.30038,-1.849913 3.1973,-2.646223 6.29938,-2.644482 1.71655,0 2.68108,0.194245 3.4823,0.69772 1.22548,0.770104 2.55644,0.635517 4.62115,-0.46719 1.77965,-0.950457 2.33994,-2.106 2.10132,-4.333705 -0.39451,-3.683215 -1.21702,-5.662511 -3.09319,-7.443533 -1.7387,-1.650506 -2.19139,-2.840406 -1.22591,-3.222207 0.40831,-0.161474 0.62601,-0.753056 -0.20008,-2.466475 -1.33518,-2.769346 0.3265,-3.024881 1.57783,-0.354295 0.76035,1.622753 2.04025,2.027046 2.51904,1.228695 0.44287,-0.738477 1.24971,-0.324637 2.11225,1.083416 1.12145,1.830704 1.12865,3.29017 0.0229,4.644348 -1.22269,1.112078 -0.61689,1.873635 -0.17639,3.332205 0.89707,2.970264 0.89348,5.597186 -0.01,7.103149 -0.69688,1.161963 -3.65728,3.104913 -4.73089,3.104913 -0.74045,0 -0.73127,0.05843 0.34117,2.171984 0.98679,1.944794 1.01131,3.023078 0.073,3.209326 -0.40676,0.08069 -1.12092,-0.69602 -2.25256,-2.449805 -1.49465,-2.316352 -1.77087,-2.567955 -2.81915,-2.567955 -1.26129,0 -1.93047,-0.627809 -1.1792,-1.106315 0.72274,-0.460285 -1.19059,-0.83445 -3.12074,-0.610248 -2.20786,0.256447 -3.10198,1.346829 -3.42001,4.170613 -0.26042,2.312312 0.21523,5.796778 1.08367,7.938692 0.60469,1.491454 0.43818,2.426206 -0.37497,2.10465 -0.29842,-0.118006 -0.54254,-0.03349 -0.54254,0.187876 0,0.221368 -0.50659,0.402452 -1.12575,0.402452 -1.04824,0 -1.07953,0.03494 -0.4543,0.50598 0.57051,0.429895 0.60067,0.593894 0.20062,1.09065 -0.25897,0.321556 -0.79075,0.58465 -1.18177,0.58465 -0.65423,0 -0.69275,0.159567 -0.48278,2.000463 0.12549,1.100245 0.86713,3.65336 1.64815,5.673599 1.10715,2.86381 1.33011,3.784784 1.01198,4.179858 -0.58124,0.72171 -0.93056,0.633229 -1.58916,-0.402628 z m 1.24932,-16.31672 c -0.3762,-0.876444 -0.86832,-2.815498 -1.09364,-4.309024 l -0.40968,-2.715485 -2.27828,2.691999 c -1.25303,1.480624 -2.22038,2.743228 -2.14969,2.805822 0.0707,0.06255 0.93737,0.385944 1.92592,0.718588 0.98852,0.332655 2.32904,1.009064 2.97893,1.503202 1.64384,1.249805 1.81233,1.135685 1.02644,-0.695102 z m -93.05517,12.101782 c -0.45205,-0.815519 -0.71674,-1.591106 -0.58821,-1.723549 0.31709,-0.326792 2.36572,2.075784 2.20188,2.582279 -0.27705,0.856555 -0.82426,0.565317 -1.61367,-0.85873 z m 2.29182,0.155775 c -0.12935,-0.133278 -0.23014,-0.828556 -0.22397,-1.545072 0.0105,-1.224248 0.0424,-1.260203 0.52917,-0.597027 0.84683,1.153791 0.57655,3.050789 -0.3052,2.142099 z m 2.11469,-0.753523 c -0.25697,-0.428484 0.15983,-2.276027 0.51348,-2.276027 0.41615,0 0.4013,2.081278 -0.0168,2.347536 -0.18062,0.115027 -0.40415,0.08285 -0.49672,-0.07152 z M 419.01939,71.11888 c -0.19441,-0.52692 -0.63877,-1.122597 -0.98746,-1.323715 -0.88087,-0.50802 -0.34081,-0.936205 0.55657,-0.441272 0.96809,0.533906 1.47828,1.566054 1.09227,2.209681 -0.23938,0.399134 -0.38658,0.300183 -0.66138,-0.444694 z m 1.83911,0.255283 c -0.46394,-0.846663 -0.729,-3.305371 -0.39359,-3.651 0.33652,-0.346784 1.07425,2.441478 0.92222,3.485548 -0.12514,0.859503 -0.14492,0.865686 -0.52863,0.165452 z m 1.30148,-0.272297 c 0.008,-1.255442 0.57185,-2.004493 1.09923,-1.461023 0.32802,0.338066 0.33323,0.656891 0.0223,1.360289 -0.50371,1.13925 -1.12871,1.195413 -1.12148,0.100785 z M 522.67466,47.449552 c -1.61177,-0.46818 -3.3491,-1.543011 -4.19809,-2.597191 -0.24907,-0.309272 -0.44965,-0.544618 -0.44965,-0.544618 -1.69694,0.554312 -2.14031,-0.651628 -0.66465,-1.415086 0.18119,-0.09374 -0.49659,-1.20229 -0.49314,-2.988475 0.005,-2.358881 0.10425,-4.408686 -0.21604,-4.409087 -0.24253,-2.58e-4 -0.44097,-0.213186 -0.44097,-0.473127 0,-0.666958 0.11302,-1.577476 1.4599,-1.345118 0.44331,0.07648 0.93474,-0.37539 0.5468,-0.999758 -0.54831,-0.882466 -0.20446,-1.832975 1.54591,-1.312425 0.8671,0.257872 1.01261,-0.111008 1.13274,-0.58445 0.15511,-0.611278 1.17203,-2.438186 3.84136,-0.945519 3.20922,1.794567 5.12741,1.613941 6.9602,3.662994 1.56873,1.753827 1.82979,4.857419 1.41908,7.793098 -0.33182,2.371897 -1.52244,4.095189 -3.65626,5.291984 -2.13818,1.199309 -4.57231,1.510148 -6.78719,0.866778 z m 2.84381,-2.614164 c 1.04546,-1.137155 0.8212,-1.142414 -1.11051,-0.0041 -1.36959,0.806822 -1.43725,0.904949 -0.62667,0.908875 0.6864,-0.152025 1.32966,-0.461513 1.73718,-0.904775 z m 2.85013,0.167121 c 1.65784,-0.871611 2.79114,-2.598974 2.79301,-4.257034 0,-0.997397 -0.12757,-1.181532 -0.82575,-1.181532 -0.48853,0 -1.43348,-1.905015 -2.6241,-2.978713 -2.10044,-1.894196 -2.48028,-2.081638 -2.87712,-1.419946 -0.1312,0.218781 -0.65652,0.313374 -1.16734,0.210238 -0.51082,-0.103135 -1.84538,0.07296 -2.96566,0.391323 -2.32325,0.66024 -2.84127,2.353625 -2.34262,4.938491 0.27951,1.448811 0.3882,1.575143 1.26319,1.468298 0.99378,-0.121355 1.1137,0.732611 0.0995,1.406559 0,0 0.35805,0.425536 0.83529,0.870632 0.97395,0.908288 2.05249,0.539287 4.17696,-1.429107 0.97356,-0.902001 1.94518,-1.640035 2.15921,-1.640035 0.48937,0 0.5225,3.144103 0.0364,3.453705 -0.36996,0.23561 -0.49018,0.908865 -0.16235,0.908865 0.10474,0 0.82536,-0.333809 1.60137,-0.741744 z m -5.66151,-5.622416 c 0.25693,-0.270643 0.7557,-0.35762 1.08641,0.04987 0.24873,0.30648 0.27661,0.755459 0.10056,1.025967 -0.42032,0.645819 -1.09583,0.707063 -1.36927,0.12767 -0.19458,-0.4123 -0.0668,-0.941083 0.1823,-1.203509 z m -3.26834,0.446229 c 0.0688,-0.368054 0.40063,-0.752845 0.68903,-0.752845 0.37809,0 0.72932,0.371996 0.71962,0.720124 -0.0156,0.558419 -0.33842,0.832216 -0.72442,0.908816 -0.47146,0.09356 -0.77503,-0.390267 -0.68423,-0.876095 z" fill="#00B894" transform="translate(242.83951,95.814595) matrix(3.4819669,0,0,3.4819669,-1618.0063,-78.0041)"/>
</svg>