<?xml version="1.0" ?><svg height="199.43388mm" viewBox="0 0 193.28403 199.43388" width="193.28403mm" xmlns="http://www.w3.org/2000/svg">
    <path d="m 42821.624,27213.623 c 0,0 -18.364,11.63 -32.239,-13.221 -13.875,-24.851 -6.121,-26.932 -0.408,-42.725 5.713,-15.792 54.547,-106.627 72.367,-133.192 17.819,-26.565 70.87,-103.567 82.432,-121.808 11.563,-18.24 126.642,-32.441 126.642,-32.441 l 2.584,-23.627 c 0,0 -34.143,-0.979 -6.121,-29.626 28.021,-28.646 90.05,-24.361 93.859,0.368 3.808,24.728 -17.445,37.184 -17.445,37.184 l 5.61,10.927 79.249,-6.474 c 0,0 129.825,278.245 128.465,303.586 -1.36,25.341 -35.231,30.115 -35.231,30.115 l -31.967,122.053 41.081,23.26 7.481,-26.565 -21.764,-8.937 35.487,-37.044 -20.388,-14.74 47.201,-48.6 33.871,66.474 -16.323,8.324 18.364,24.974 -26.39,9.181 7.21,17.262 -13.331,9.426 -9.114,19.832 c 0,0 20.404,-1.836 29.11,4.162 8.706,5.999 13.875,16.159 1.36,24.484 -12.514,8.325 -25.981,20.567 -57.267,30.605 -31.287,10.038 -183.637,35.624 -183.637,35.624 0,0 -41.161,42.981 -113.256,42.998 -72.139,0.02 -88.128,-9.143 -100.239,-23.596 0,0 -98.007,7.286 -143.713,-7.772 -45.705,-15.058 -80.936,-57.17 -31.83,-87.897 49.106,-30.728 59.852,-23.872 59.852,-23.872 z" fill="#FFFFFF" paint-order="markers stroke fill" transform="translate(205.49908,-210.97946) matrix(0.28277973,0,0,0.28277973,-12291.6,-7365.6953)"/>
    <path d="m 42953.342,27480.665 c -4.928,-5.002 -6.902,-5.147 -22.973,-1.662 -39.53,8.568 -119.383,-2.348 -156.487,-21.39 -25.147,-12.906 -37.487,-33.081 -32.427,-53.026 3.352,-13.216 23.16,-30.676 47.038,-41.462 22.667,-10.242 32.771,-12.245 32.424,-6.432 -0.1,1.729 -1.451,3.068 -2.996,2.977 -1.544,-0.09 -13.192,5.853 -25.885,13.211 -28.899,16.754 -40.628,33.095 -35.139,48.958 4.866,14.062 18.171,22.328 55.338,34.368 26.869,8.705 38.772,10.798 72.977,12.829 22.739,1.357 46.553,1.087 53.675,-0.6 12.05,-2.851 13.151,-2.544 18.738,5.237 5.848,8.145 6.609,8.307 51.414,10.876 25.011,1.434 55.371,1.93 67.464,1.099 28.71,-1.97 67.545,-18.313 77.044,-32.42 5.032,-7.474 9.452,-10.108 18.275,-10.89 40.965,-3.636 84.854,-10.852 127.998,-21.042 56.464,-13.34 65.179,-16.6 76.619,-28.659 4.512,-4.755 10.635,-8.502 13.61,-8.322 2.976,0.188 8.217,-1.489 11.655,-3.698 5.258,-3.384 5.639,-4.844 2.414,-9.239 -2.107,-2.869 -8.41,-7.704 -14.4,-7.86 -13.76,-0.359 -15.707,-1.726 -19.992,-3.27 -4.564,-1.491 -2.769,-10.079 -1.183,-13.572 1.256,-2.773 2.494,-8.51 2.747,-12.748 0.302,-5.079 2.882,-8.438 7.57,-9.862 l 7.111,-2.159 -6.737,-4.14 c -13.469,-8.277 -2.459,-19.436 17.974,-18.219 11.566,0.689 9.496,-3.713 -5.782,-12.296 -7.558,-4.245 -13.629,-9.574 -13.494,-11.844 0.333,-5.578 7.144,-11.279 13.12,-10.982 2.681,0.141 6.924,-0.891 9.426,-2.273 3.626,-2.005 1.79,-7.252 -9.052,-25.882 -7.484,-12.854 -14.692,-23.011 -16.021,-22.574 -2.845,0.935 -37.029,37.188 -37.16,39.411 -0.05,0.836 5.177,2.275 11.615,3.197 16.857,2.416 15.865,9.437 -3.717,26.338 -9.203,7.943 -16.819,15.501 -16.923,16.796 -0.09,1.295 4.102,2.61 9.343,2.924 10.966,0.652 14.943,8.131 8.871,16.68 -4.772,6.714 -5.588,13 -1.395,10.741 1.65,-0.885 5.101,0.756 7.671,3.652 5.896,6.645 4.985,28.744 -1.269,30.726 -6.241,1.977 -8.136,-1.006 -7.492,-11.8 0.45,-7.587 -0.459,-8.888 -5.089,-7.258 -14.417,5.074 -20.336,4.349 -21.73,-2.663 -1.488,-7.488 -17.07,-18.524 -22.229,-15.744 -1.738,0.935 -3.321,4.335 -3.512,7.55 -0.499,8.383 -4.236,15.592 -7.966,15.371 -1.765,-0.119 -12.111,3.34 -22.995,7.653 -10.883,4.314 -35.634,11.691 -55.005,16.395 -19.368,4.701 -36.061,9.569 -37.091,10.814 -1.032,1.245 -9.671,3.253 -19.198,4.46 -9.908,1.254 -19.083,4.436 -21.433,7.437 -8.364,10.662 -16.474,16.533 -30.655,22.195 -17.157,6.848 -32.332,6.03 -165.849,-8.941 -65.713,-7.37 -86.982,-10.786 -92.435,-14.842 -9.118,-6.783 -13.41,-33.105 -18.229,-111.768 l -3.598,-58.732 -12.316,-1.671 c -10.793,-1.464 -13.506,-3.637 -21.913,-17.575 -11.825,-19.601 -16.001,-28.712 -2.804,-47.018 5.66,-7.847 11.566,-20.197 13.123,-27.442 2.887,-13.427 13.23,-33.992 21.149,-42.057 2.414,-2.46 7.925,-12.447 12.243,-22.194 4.321,-9.749 11.311,-21.402 15.535,-25.895 4.223,-4.492 11.02,-14.69 15.104,-22.661 4.082,-7.97 11.219,-18.905 15.855,-24.298 4.637,-5.391 11.93,-17.698 16.205,-27.347 9.481,-21.393 43.425,-65.197 56.824,-75.172 10.528,-7.838 21.558,-7.793 81.644,-20.405 28.796,-6.045 38.08,-7 39.107,-11.079 0.883,-3.52 -1.445,-6.697 -6.618,-9.026 -10.815,-4.867 -12.207,-11.355 -5.184,-24.133 7.453,-13.556 25.848,-24.296 44.3,-25.86 7.849,-0.664 20.504,-2.83 28.125,-4.811 12.331,-3.206 15.042,-2.946 24.699,2.362 19.43,10.68 22.681,35.864 6.605,51.149 -9.529,9.065 -5.636,11.975 9.017,6.738 14.558,-5.199 41.797,-9.218 56.547,-8.336 19.406,1.155 34.019,24.777 59.881,96.792 15.501,43.161 38.927,101.381 48.069,119.467 1.81,3.578 6.952,16.263 11.429,28.186 19.099,50.87 22.004,61.066 19.302,67.75 -1.493,3.687 -3.166,8.605 -3.719,10.93 -1.344,5.655 -14.51,17.898 -25.122,23.357 -7.105,3.655 -9.678,8.49 -14.918,28.024 -3.484,12.98 -10.03,36.771 -14.551,52.867 -4.519,16.093 -8.313,30.867 -8.431,32.83 -0.117,1.963 5.505,7.071 12.49,11.353 11.442,7.014 13.211,7.333 17.837,3.226 4.627,-4.107 4.354,-4.603 -2.769,-5.028 -9.165,-0.549 -15.137,-6.171 -14.681,-13.829 0.165,-2.948 9.633,-12.709 21.014,-21.693 l 20.693,-16.334 -11.784,-0.789 c -11.08,-0.742 -11.751,-1.375 -11.2,-10.595 0.47,-7.883 5.35,-18.305 23.972,-35.264 18.033,-13.058 16.011,-29.76 32.521,-15.855 9.721,8.185 31.191,51.542 33.317,62.784 0.995,5.265 -0.259,8.416 -4.084,10.269 -4.979,2.409 -4.774,3.448 2.077,10.604 12.99,13.561 8.026,27.189 -9.522,26.143 -7.047,-0.421 -7.401,0.711 -2.84,9.083 4.122,7.572 -2.076,15.864 -11.443,15.306 -4.776,-0.283 -12.735,9.695 -13.139,16.478 -0.02,0.585 5.533,0.654 12.371,0.141 10.399,-0.769 13.684,0.487 20.053,7.664 4.189,4.719 7.408,12.079 7.153,16.355 -0.502,8.441 -14.23,20.034 -23.093,19.506 -2.908,-0.166 -9.86,4.268 -15.45,9.872 -8.569,8.591 -16.634,11.803 -51.499,20.521 -48.036,12.012 -112.8,23.705 -140.04,25.282 -15.719,0.912 -20.845,2.776 -29.701,10.8 -13.834,12.535 -53.219,35.449 -75.764,34.229 -34.933,-1.891 -114.317,9.487 -130.269,-17.331 z m 75.764,-78.266 c 0.91,-3.543 -0.141,-5.123 -2.894,-4.383 -2.371,0.637 -4.953,3.65 -5.732,6.697 -0.91,3.543 0.141,5.121 2.894,4.381 2.371,-0.635 4.952,-3.649 5.732,-6.695 z m 41.642,-28.71 c 2.948,-20.36 4.808,-37.642 4.129,-38.405 -0.678,-0.763 -4.179,-1.586 -7.778,-1.826 -10.043,-0.671 -14.538,-5.306 -16.59,-17.099 -1.277,-7.33 -2.77,2.283 -4.668,30.079 -1.539,22.467 -4.007,46.196 -5.491,52.726 l -2.697,11.875 13.867,-0.166 13.865,-0.165 z m -24.135,17.757 c 1.212,-7.722 3.092,-10.07 7.84,-9.787 7.359,0.44 9.522,9.912 3.688,16.148 -7.427,7.936 -13.266,4.716 -11.528,-6.361 z m 6.418,-29.329 c -1.085,-1.222 -1.774,-5.521 -1.533,-9.558 0.343,-5.752 2.155,-7.234 8.396,-6.86 4.377,0.259 8.652,2.662 9.5,5.338 2.752,8.686 -10.514,17.67 -16.363,11.08 z m -56.09,9.722 c 0.679,-17.199 0.749,-31.817 0.166,-32.481 -0.59,-0.666 -3.434,2.759 -6.321,7.612 -3.744,6.291 -5.142,14.662 -4.873,29.188 0.455,24.735 1.441,29.197 6.158,27.931 2.456,-0.659 4.047,-11.186 4.878,-32.25 z m 16.547,21.509 c -1.565,-21.166 8.141,-88.06 14.971,-103.162 7.819,-17.294 19.637,-27.227 31.546,-26.518 8.567,0.512 21.357,11.369 20.971,17.808 -0.399,6.721 5.869,-1.379 8.138,-10.516 2.16,-8.691 -1.819,-19.815 -27.836,-77.869 l -30.358,-67.729 -7.141,12.155 c -24.063,40.944 -89.278,54.416 -118.308,24.436 -9.049,-9.344 -17.327,-30.439 -16.711,-42.593 11.625,-50.006 38.35,-73.353 74.91,-69.074 14.809,1.665 28.493,4.795 30.409,6.954 1.915,2.159 5.209,4.028 7.318,4.152 2.433,0.143 0.699,-7.91 -4.746,-22.053 l -8.579,-22.281 -5.048,9.013 c -6.143,10.965 -19.399,17.294 -34.36,16.402 -14.239,-0.849 -23.18,-10.507 -22.419,-24.212 0.528,-9.518 -0.357,-8.759 -12.886,11.064 -7.402,11.705 -25.239,48.269 -39.641,81.25 -14.403,32.981 -30.946,69.438 -36.764,81.013 -10.368,20.63 -10.51,21.407 -7.134,39.018 1.894,9.881 3.685,22.24 3.978,27.466 l 0.534,9.496 5.735,-11.063 c 11.117,-21.442 39.075,-14.901 51.095,11.95 5.486,12.254 6.338,12.946 8.382,6.811 1.252,-3.756 2.567,-11.426 2.927,-17.046 l 0.652,-10.215 40.975,2.443 c 28.666,1.708 44.167,4.007 51.606,7.65 5.846,2.86 10.616,5.631 10.6,6.153 -0.02,0.52 1.127,16.635 2.537,35.807 1.412,19.174 1.779,48.542 0.816,65.262 -1.646,28.553 -0.732,40.444 3.122,40.675 0.907,0.05 1.225,-5.639 0.709,-12.647 z m -18.7,-150.133 c -4.73,-5.662 -5.677,-10.014 -3.919,-17.979 4.864,-22.064 25.516,-28.711 37.15,-11.955 9.797,14.105 6.556,27.295 -8.329,33.903 -12.552,5.57 -17.615,4.764 -24.902,-3.969 z m 13.413,-11.218 c 0.1,-1.628 -1.238,-3.043 -2.968,-3.146 -1.729,-0.1 -3.276,2.017 -3.436,4.714 -0.166,2.696 1.175,4.111 2.968,3.144 1.793,-0.963 3.339,-3.085 3.436,-4.712 z m 16.179,-6.737 c 0.165,-2.594 -1.134,-4.803 -2.863,-4.904 -1.729,-0.1 -3.272,1.934 -3.426,4.528 -0.165,2.593 1.134,4.8 2.863,4.904 1.729,0.1 3.269,-1.935 3.426,-4.528 z m -8.965,-8.424 c 0.09,-1.729 -1.226,-3.227 -2.956,-3.331 -1.729,-0.1 -3.228,1.226 -3.333,2.956 -0.09,1.729 1.228,3.229 2.958,3.332 1.729,0.09 3.229,-1.228 3.331,-2.957 z m -138.662,16.441 c -7.483,-4.19 -12.815,-16.019 -12.161,-26.979 0.56,-9.397 11.873,-16.677 24.719,-15.912 21.966,1.311 30.539,29.209 12.767,41.552 -9.494,6.593 -15.387,6.904 -25.325,1.339 z m 6.05,-14.882 c 0.09,-1.729 -2.02,-3.274 -4.715,-3.435 -2.696,-0.166 -4.113,1.175 -3.147,2.968 0.967,1.792 3.088,3.339 4.715,3.436 1.627,0.1 3.042,-1.24 3.147,-2.969 z m 18.863,1.124 c 0.09,-1.729 -1.312,-3.231 -3.142,-3.342 -1.831,-0.118 -2.54,1.268 -1.574,3.061 0.966,1.793 2.379,3.297 3.142,3.342 0.763,0.05 1.472,-1.332 1.574,-3.061 z m -23.018,-10.837 c -0.966,-1.793 -3.088,-3.339 -4.713,-3.435 -1.628,-0.1 -3.045,1.237 -3.147,2.967 -0.1,1.729 2.018,3.276 4.713,3.436 2.698,0.166 4.113,-1.175 3.147,-2.968 z m 16.559,-7.624 c -3.005,-3.387 -5.929,1.269 -3.56,5.667 1.791,3.324 2.53,3.372 3.784,0.251 0.86,-2.142 0.758,-4.8 -0.236,-5.906 z m -12.388,-3.893 c -3.006,-3.387 -5.929,1.267 -3.56,5.667 1.789,3.322 2.53,3.369 3.784,0.249 0.858,-2.14 0.756,-4.799 -0.236,-5.907 z m 45.23,32.692 c -7.783,-12.655 -2.294,-29.834 12.189,-38.134 10.468,-6 17.623,-2.651 26.888,12.579 7.341,12.069 7.455,13.141 2.335,21.747 -6.127,10.294 -11.345,12.614 -26.367,11.718 -7.356,-0.438 -11.929,-2.844 -15.045,-7.91 z m 32.599,-6.228 c 0.808,-2.012 -0.772,-3.793 -3.51,-3.956 -2.738,-0.166 -5.112,1.942 -5.275,4.679 -0.331,5.555 6.494,4.989 8.785,-0.723 z m -21.149,-3.616 c 0.166,-2.698 -1.197,-4.099 -3.019,-3.119 -1.824,0.982 -2.58,3.15 -1.679,4.82 2.435,4.521 4.369,3.822 4.698,-1.701 z m 4.545,-9.317 c 3.005,-2.666 -0.415,-10.987 -3.773,-9.179 -1.603,0.865 -3.039,3.612 -3.189,6.104 -0.273,4.628 3.388,6.248 6.962,3.075 z m 12.092,-5.095 c 0.142,-2.492 -1.094,-5.49 -2.759,-6.662 -1.665,-1.171 -3.201,0.782 -3.413,4.342 -0.213,3.563 1.028,6.56 2.757,6.662 1.729,0.09 3.267,-1.85 3.415,-4.342 z m -27.539,167.403 c -0.566,-10.68 -2.454,-19.503 -4.195,-19.607 -1.958,-0.117 -2.735,5.426 -2.036,14.516 0.621,8.088 0.914,18.329 0.649,22.759 -0.34,5.693 0.558,7.128 3.069,4.901 2.268,-2.013 3.174,-10.153 2.513,-22.569 z m 14.88,9.14 c -0.827,-16.238 -3.775,-24.719 -6.82,-19.615 -2.445,4.099 1.881,35.884 4.91,36.065 1.515,0.1 2.376,-7.313 1.91,-16.45 z m 16.122,10.426 c -0.812,-3.953 -1.221,-11.787 -0.909,-17.409 0.312,-5.62 -0.848,-10.304 -2.577,-10.408 -3.463,-0.213 -6.139,28.871 -2.986,32.426 4.252,4.791 7.871,2.214 6.472,-4.609 z m 17.574,-10.599 c 0.614,-10.274 -0.166,-19.571 -1.707,-20.662 -4.395,-3.092 -5.501,1.258 -5.301,20.847 0.247,23.882 5.583,23.74 7.008,-0.19 z m 122.817,19.326 c 7.5,-3.26 17.838,-9.034 22.968,-12.83 5.132,-3.795 11.361,-6.779 13.843,-6.63 3.387,0.188 4.309,-2.691 3.692,-11.613 -0.45,-6.534 -0.869,-23.094 -0.928,-36.797 -0.05,-13.703 -0.692,-25.573 -1.408,-26.377 -0.713,-0.806 -4.419,1.309 -8.237,4.697 -3.818,3.389 -8.254,6.082 -9.86,5.986 -6.789,-0.404 -12.17,-11.354 -11.457,-23.311 0.609,-10.21 2.95,-14.613 12.069,-22.706 9.791,-8.691 12.716,-9.688 21.74,-7.411 21.548,5.436 25.965,16.343 27.577,68.111 0.692,22.236 1.563,40.902 1.936,41.478 1.26,1.945 26.902,-5.113 27.042,-7.446 0.07,-1.27 -1.936,-3.249 -4.471,-4.4 -2.534,-1.151 -4.464,-4.5 -4.29,-7.443 0.388,-6.48 9.877,-16.326 15.417,-15.996 6.85,0.409 13.647,10.545 11.252,16.78 -2.34,6.089 2.485,8.514 6.259,3.146 1.191,-1.691 3.51,-16.816 5.157,-33.612 3.961,-40.432 9.794,-61.821 21.371,-78.344 7.042,-10.049 11.856,-13.761 18.334,-14.124 11.71,-0.657 16.774,4.715 20.705,21.952 l 3.272,14.353 9.978,-30.534 c 5.487,-16.793 9.503,-31.087 8.926,-31.768 -0.977,-1.153 -26.752,7.21 -106,34.383 -37.206,12.758 -74.27,20.727 -91.603,19.692 l -12.074,-0.718 -1.883,30.65 c -1.862,30.296 -7.489,68.354 -14.8,100.086 -2.197,9.541 -2.598,16.41 -0.965,16.507 1.539,0.1 8.939,-2.499 16.438,-5.761 z m 92.917,-73.095 c -9.348,-4.129 -15.933,-16.245 -15.232,-28.017 0.466,-7.807 3.366,-12.092 12.898,-19.037 6.763,-4.93 15.291,-8.783 18.953,-8.565 10.542,0.628 17.201,11.648 16.098,26.646 -1.564,21.289 -17.724,35.599 -32.717,28.973 z m 3.135,-18.561 c 0.1,-1.729 -1.227,-3.228 -2.956,-3.33 -1.729,-0.1 -3.229,1.225 -3.33,2.955 -0.1,1.729 1.225,3.229 2.955,3.333 1.729,0.09 3.229,-1.228 3.331,-2.958 z m 16.939,-19.497 c 0.142,-2.594 -1.134,-4.803 -2.863,-4.904 -1.729,-0.09 -3.269,1.934 -3.425,4.528 -0.142,2.593 1.133,4.8 2.864,4.904 1.729,0.09 3.271,-1.935 3.424,-4.528 z m -44.216,-18.414 c -3.242,-10.229 9.512,-20.543 18.009,-14.564 1.815,1.276 5.566,-0.538 8.337,-4.032 8.922,-11.251 20.788,-5.317 13.401,6.702 -2.077,3.382 -6.926,5.962 -10.772,5.733 -3.846,-0.236 -8.93,2.308 -11.294,5.638 -5.058,7.116 -15.494,7.425 -17.681,0.523 z m 10.849,-4.086 c 0.1,-1.731 -0.436,-3.18 -1.197,-3.227 -0.763,-0.05 -2.346,1.279 -3.517,2.945 -1.172,1.666 -0.633,3.119 1.197,3.227 1.833,0.118 3.416,-1.216 3.517,-2.945 z m 35.524,-13.66 c 0.416,-6.985 2.029,-9.342 6.22,-9.094 3.113,0.189 7.196,2.067 9.071,4.181 4.736,5.336 -1.744,15.189 -9.676,14.715 -4.77,-0.284 -6.05,-2.521 -5.615,-9.802 z m -302.514,132.629 c -0.81,-3.952 -0.924,-16.739 -0.251,-28.411 0.692,-12.026 -0.141,-21.307 -1.922,-21.414 -3.402,-0.212 -7.018,43.01 -4.314,51.547 2.499,7.883 8.15,6.385 6.487,-1.722 z m -36.525,-5.332 c 0.142,-3.895 -1.965,-22.757 -4.703,-41.913 -4.919,-34.413 -5.098,-34.872 -14.906,-38.046 -6.99,-2.264 -11.549,-6.785 -15.412,-15.292 -6.328,-13.936 -7.049,-11.732 -3.935,12.039 1.233,9.421 2.759,31.358 3.39,48.75 1.287,35.544 3.638,39.657 23.315,40.831 10.366,0.617 12.012,-0.239 12.251,-6.369 z m -25.789,-6.007 c -1.085,-1.221 -1.732,-6.231 -1.439,-11.131 0.442,-7.434 1.845,-8.83 8.49,-8.433 9.456,0.564 12.352,7.186 6.97,15.946 -3.85,6.264 -10.215,7.905 -14.021,3.618 z m -2.714,-37.098 c -4.514,-6.15 -0.166,-14.611 7.259,-14.167 7.628,0.453 10.446,8.688 4.975,14.535 -5.164,5.518 -7.975,5.433 -12.234,-0.368 z m 183.268,42.931 c 0.314,-5.275 -0.451,-5.729 -4.571,-2.706 -2.724,1.999 -5.064,5.541 -5.202,7.867 -0.142,2.471 1.755,3.595 4.571,2.705 2.653,-0.841 4.994,-4.38 5.202,-7.866 z m -141.738,-20.94 c -0.854,-2.568 -1.643,-1.866 -2.012,1.786 -0.335,3.308 0.297,5.209 1.406,4.226 1.105,-0.982 1.379,-3.687 0.606,-6.012 z m 146.451,-5.163 c 0.311,-5.265 -0.943,-6.938 -4.385,-5.847 -2.814,0.891 -5.059,5.483 -5.39,11.008 -0.482,8.072 0.165,8.942 4.384,5.85 2.723,-2 5.148,-6.953 5.391,-11.011 z m 121.943,18.602 c 0.1,-1.729 -1.225,-3.229 -2.955,-3.332 -1.729,-0.1 -3.229,1.228 -3.333,2.957 -0.1,1.729 1.228,3.229 2.958,3.331 1.729,0.09 3.228,-1.227 3.33,-2.956 z m -180.544,-26.554 c 12.647,-8.78 16.005,-27.511 7.399,-41.261 l -6.7,-10.703 -2.343,9.304 c -1.29,5.117 -1.146,12.613 0.317,16.654 3.99,11.028 -7.684,23.613 -22.257,23.994 -9.038,0.236 -12.367,-1.427 -17.42,-8.703 -5.13,-7.391 -5.744,-11.533 -3.442,-23.249 1.541,-7.84 3.634,-16.692 4.649,-19.669 1.999,-5.85 12.9,-6.866 14.384,-1.339 0.588,2.193 3.614,2.556 8.627,1.035 9.245,-2.809 6.489,-5.157 -10.609,-9.04 -11.327,-2.575 -13.37,-2.06 -18.345,4.63 -6.87,9.234 -11.691,29.729 -9.603,40.81 3.487,18.494 38.151,29.477 55.343,17.537 z m 179.722,13.883 c 1.172,-1.665 0.634,-3.118 -1.197,-3.227 -1.831,-0.118 -3.413,1.217 -3.517,2.946 -0.1,1.729 0.437,3.182 1.197,3.227 0.763,0.05 2.346,-1.281 3.517,-2.946 z m -269.27,-26.308 c -0.744,-2.213 -1.564,-0.487 -1.821,3.837 -0.258,4.322 0.352,6.134 1.351,4.022 1.002,-2.107 1.212,-5.646 0.47,-7.859 z m 148.179,1.599 c 2.941,-6.485 -1.096,-10.318 -5.06,-4.807 -4.212,5.856 -4.328,9.116 -0.335,9.354 1.783,0.119 4.212,-1.939 5.395,-4.547 z m 121.694,0.98 c -3.355,-6.93 -8.573,-1.152 -6.076,6.728 1.174,3.702 2.683,4.292 5.218,2.041 2.362,-2.095 2.651,-5.059 0.858,-8.769 z m 86.997,9.834 c 0.09,-1.627 -1.946,-3.085 -4.54,-3.24 -4.862,-0.289 -6.469,3.337 -3.137,7.091 2.361,2.66 7.441,0.118 7.677,-3.851 z m -288.268,-21.529 c 1.056,-4.162 0.853,-9.499 -0.453,-11.859 -1.515,-2.735 -2.649,-0.02 -3.125,7.499 -0.861,13.474 0.764,15.453 3.578,4.36 z m -10.831,-6.175 c -0.852,-2.568 -1.644,-1.866 -2.012,1.788 -0.333,3.306 0.297,5.207 1.405,4.224 1.108,-0.982 1.38,-3.688 0.607,-6.012 z m 324.393,23.285 c 5.368,-2.965 14.129,-27.561 15.244,-42.783 0.687,-9.425 0.19,-10.056 -5.858,-7.275 -3.636,1.676 -9.334,2 -12.664,0.722 -5.507,-2.116 -6.144,-0.786 -7.072,14.786 -0.561,9.411 -2.169,21.479 -3.572,26.818 -2.133,8.122 -1.586,9.758 3.347,10.011 3.245,0.166 8.004,-0.857 10.575,-2.279 z m -382.944,-29.97 c 0.303,-5.079 -0.573,-6.043 -3.294,-3.626 -2.04,1.809 -2.849,4.885 -1.801,6.834 2.938,5.456 4.642,4.384 5.095,-3.208 z m 358.368,22.335 c 0.1,-1.545 -1.907,-3.749 -4.441,-4.9 -4.682,-2.122 -6.53,1.127 -2.936,5.174 2.825,3.185 7.181,3.021 7.377,-0.274 z m -172.342,-20.868 c 0.09,-1.295 -1.936,-2.48 -4.529,-2.637 -4.815,-0.285 -6.839,6.274 -3.201,10.376 1.987,2.236 7.361,-3.144 7.73,-7.739 z m -36.817,-1.41 c 1.111,-3.407 0.69,-5.479 -0.935,-4.602 -1.625,0.876 -3.078,3.631 -3.227,6.123 -0.387,6.508 1.805,5.707 4.162,-1.521 z m 121.801,5.688 c 0.141,-2.389 -1.104,-5.303 -2.769,-6.475 -1.725,-1.215 -3.241,1.413 -3.519,6.102 -0.28,4.686 0.913,7.474 2.768,6.474 1.793,-0.966 3.378,-3.71 3.52,-6.101 z m -240.617,-33.827 c 0.07,-5.507 1.748,-10.896 3.753,-11.974 2.004,-1.077 18.003,-0.901 35.558,0.393 35.405,2.613 41.447,6.19 37.345,22.102 -1.196,4.633 -0.856,9.352 0.756,10.486 1.769,1.242 3.398,-5.812 4.112,-17.807 l 1.186,-19.866 -45.951,-3.712 c -41.632,-3.361 -45.789,-3.21 -44.269,1.596 0.927,2.917 1.25,14.036 0.726,24.709 -0.822,16.647 -0.416,18.317 2.858,11.744 2.098,-4.214 3.865,-12.165 3.926,-17.671 z m 52.066,21.009 c 0.1,-1.729 -1.934,-3.272 -4.53,-3.425 -2.594,-0.165 -4.8,1.134 -4.902,2.864 -0.1,1.729 1.935,3.268 4.528,3.425 2.594,0.141 4.801,-1.135 4.904,-2.864 z m 275.807,7.924 c -1.235,-3.893 -2.638,-4.394 -5.414,-1.931 -2.776,2.464 -2.71,4.74 0.255,8.776 4.526,6.168 7.874,1.724 5.159,-6.845 z m -361.774,-26.978 c -0.887,-2.803 -2.879,-5.175 -4.424,-5.267 -3.295,-0.189 -4.056,6.487 -1.616,14.19 1.51,4.762 2.093,4.864 4.689,0.807 1.632,-2.546 2.24,-6.923 1.351,-9.73 z m 186.547,14.954 c 4.817,-4.276 5.429,-8.511 1.267,-8.76 -1.671,-0.09 -4.718,2.558 -6.775,5.906 -4.121,6.704 -0.78,8.436 5.508,2.854 z m 54.042,3.853 c 0.09,-1.729 -1.227,-3.23 -2.956,-3.332 -1.729,-0.09 -3.229,1.227 -3.333,2.956 -0.09,1.729 1.228,3.229 2.957,3.333 1.729,0.09 3.23,-1.228 3.332,-2.957 z m -264.019,-17.132 c 0.05,-0.763 -1.281,-2.345 -2.946,-3.517 -1.665,-1.171 -3.118,-0.633 -3.227,1.198 -0.119,1.833 1.217,3.415 2.946,3.517 1.729,0.09 3.179,-0.437 3.227,-1.198 z m 184.073,6.272 c 1.092,-1.549 0.598,-3.794 -1.094,-4.984 -1.693,-1.191 -3.21,0.05 -3.371,2.738 -0.328,5.522 1.51,6.447 4.465,2.246 z m 86.65,2.582 c 0.05,-3.3 -7.229,-13.841 -9.669,-13.987 -3.737,-0.213 -2.762,11.918 1.105,13.753 5.836,2.769 8.519,2.842 8.564,0.236 z m 21.38,-3.26 c -0.852,-2.567 -1.641,-1.868 -2.012,1.786 -0.333,3.305 0.299,5.207 1.405,4.223 1.108,-0.982 1.382,-3.687 0.607,-6.009 z m 97.105,3.464 c -1.852,-7.319 -7.403,-9.396 -7.791,-2.911 -0.266,4.474 5.934,12.7 8.115,10.764 0.746,-0.663 0.602,-4.197 -0.324,-7.853 z m -391.332,-26.388 c 0.189,-3.273 -1.717,-6.892 -4.252,-8.043 -4.706,-2.135 -7.327,6.939 -3.315,11.462 3.684,4.148 7.213,2.553 7.567,-3.419 z m 18.886,0.79 c 0.213,-3.461 -1.042,-6.374 -2.771,-6.477 -1.729,-0.1 -3.312,2.643 -3.517,6.101 -0.212,3.458 1.039,6.371 2.768,6.475 1.729,0.1 3.312,-2.641 3.52,-6.099 z m 179.212,10.684 c 0.212,-3.493 -1.722,-6.413 -4.342,-6.569 -4.786,-0.286 -6.845,6.265 -3.244,10.323 3.748,4.223 7.213,2.509 7.586,-3.754 z m 11.097,-0.917 c 0.19,-3.17 -1.389,-6.46 -3.508,-7.308 -2.44,-0.978 -4.034,1.528 -4.35,6.839 -0.317,5.31 0.968,7.991 3.508,7.308 2.204,-0.59 4.162,-3.669 4.35,-6.839 z m 71.985,3.504 c -2.161,-12.232 -3.113,-13.564 -8.461,-11.87 -3.91,1.238 -3.699,3.089 1.238,10.979 7.422,11.856 9.203,12.076 7.223,0.891 z m -274.216,-25.025 c 0.165,-2.594 -2.013,-4.855 -4.819,-5.023 -4.177,-0.248 -4.444,0.593 -1.467,4.647 1.996,2.721 4.167,4.981 4.819,5.019 0.652,0.05 1.313,-2.05 1.467,-4.643 z m 387.042,17.709 c 0.302,-5.078 -0.574,-6.043 -3.295,-3.626 -2.039,1.809 -2.849,4.885 -1.8,6.834 2.938,5.457 4.642,4.385 5.095,-3.208 z m 24.927,5.272 c 0.1,-1.729 -1.226,-3.227 -2.955,-3.33 -1.73,-0.09 -3.23,1.226 -3.334,2.955 -0.1,1.732 1.229,3.229 2.958,3.333 1.729,0.1 3.229,-1.229 3.331,-2.958 z m 0.751,-12.576 c 0.1,-1.729 -0.437,-3.18 -1.2,-3.227 -0.763,-0.05 -2.345,1.281 -3.517,2.946 -1.172,1.665 -0.631,3.118 1.199,3.227 1.831,0.118 3.414,-1.217 3.518,-2.946 z m -14.96,-13.698 c 0.188,-3.358 -0.901,-6.178 -2.445,-6.27 -3.693,-0.213 -7.689,8.769 -5.615,12.622 2.478,4.601 7.649,0.521 8.06,-6.352 z m 12.647,-0.452 c 0.253,-4.221 -0.904,-8.633 -2.57,-9.805 -1.767,-1.244 -3.266,1.876 -3.602,7.488 -0.315,5.289 0.84,9.701 2.57,9.806 1.729,0.09 3.352,-3.268 3.602,-7.489 z m -142.146,-9.893 c 23.649,-5.14 37.889,-9.579 95.605,-29.799 76.925,-26.947 93.698,-33.325 106.25,-40.405 l 12.763,-7.197 -9.79,-3.452 c -7.539,-2.657 -11.13,-2.376 -15.618,1.224 -3.206,2.57 -18.851,9.156 -34.766,14.632 -15.915,5.476 -32.689,13.019 -37.274,16.762 -12.255,10 -34.772,15.674 -49.815,12.551 -10.264,-2.131 -13.838,-1.481 -18.834,3.418 -4.42,4.334 -10.085,5.816 -19.985,5.226 -7.599,-0.454 -18.345,1.186 -23.882,3.642 -10.909,4.843 -28.241,2.677 -35.892,-4.484 -2.442,-2.284 -23.079,-48.664 -45.858,-103.064 -22.78,-54.4 -47.023,-111.314 -53.876,-126.473 -6.853,-15.159 -17.681,-39.587 -24.064,-54.284 -6.383,-14.698 -12.352,-26.769 -13.27,-26.824 -2.609,-0.165 -32.039,43.936 -50.636,75.864 -9.282,15.934 -17.854,29.62 -19.054,30.417 -4.883,3.243 -71.969,125.624 -83.744,152.769 -18.097,41.728 -18.385,43.077 -9.3,43.621 10.152,0.604 13.28,-4.536 50.051,-82.264 31.727,-67.069 68.432,-135.549 88.055,-164.291 8.92,-13.066 12.423,-15.825 19.562,-15.397 6.721,0.399 11.456,4.44 20.868,17.808 11.709,16.628 37.134,74.974 54.83,125.811 10.977,31.541 60.225,145.244 66.165,152.755 5.656,7.155 5.268,7.139 31.509,1.434 z m -325.851,-87.608 c 24.039,-51.511 66.508,-133.283 75.503,-145.376 3.091,-4.152 12.768,-19.196 21.505,-33.425 22.298,-36.317 29.98,-48.077 39.393,-60.297 4.515,-5.861 7.508,-11.445 6.648,-12.413 -0.858,-0.966 -2.632,-0.35 -3.943,1.372 -1.309,1.722 -10.991,13.883 -21.513,27.024 -10.523,13.141 -21.17,29.096 -23.658,35.458 -2.489,6.361 -9.9,18.46 -16.469,26.887 -6.568,8.428 -14.283,20.874 -17.141,27.659 -2.858,6.787 -8.873,16.212 -13.365,20.949 -4.493,4.736 -10.172,13.851 -12.619,20.258 -2.45,6.406 -10.352,20.526 -17.563,31.375 -7.839,11.795 -14.226,25.727 -15.887,34.648 -1.528,8.206 -6.647,19.944 -11.379,26.086 -5.615,7.289 -8.858,15.491 -9.343,23.639 -1.025,17.19 2.865,12.513 19.831,-23.844 z m 348.508,50.943 c 6.482,0.421 11.872,-0.706 11.981,-2.506 0.1,-1.8 -1.762,-3.387 -4.155,-3.529 -5.65,-0.338 -8.029,-12.541 -3.79,-19.442 2.755,-4.485 -0.731,-8.811 -21.075,-26.13 -13.406,-11.415 -24.748,-20.358 -25.2,-19.874 -0.452,0.486 -3.57,10.566 -6.93,22.399 -4.495,15.841 -5.344,23.49 -3.223,28.994 8.286,15.702 12.576,21.047 25.868,20.252 8.105,-0.511 20.039,-0.584 26.524,-0.166 z m 14.773,-17.388 c -3.004,-3.387 -5.929,1.269 -3.56,5.667 1.791,3.324 2.53,3.369 3.787,0.249 0.857,-2.141 0.756,-4.799 -0.236,-5.907 z m 63.793,-4.151 28.328,-11.721 -2.469,-10.724 c -3.302,-14.332 -48.799,-52.643 -57.801,-48.667 -11.722,5.175 -23.587,-6.525 -20.359,-20.07 1.746,-7.313 -0.212,-9.886 -16.788,-22.073 -21.867,-16.08 -34.007,-17.114 -38.233,-3.26 -7.448,24.416 -10.382,31.404 -13.115,31.241 -4.373,-0.26 -3.132,-10.039 3.17,-25.002 9.216,-21.872 5.797,-35.847 -14.074,-57.521 -9.345,-10.191 -21.086,-21.249 -26.091,-24.572 l -9.102,-6.043 -4.091,31.064 c -2.252,17.083 -3.173,32.774 -2.046,34.864 1.127,2.091 0.141,6.895 -2.176,10.676 -3.722,6.06 -1.993,12.276 14.634,52.613 10.371,25.161 19.692,45.803 20.713,45.873 1.023,0.07 4.148,-7.842 6.944,-17.587 3.703,-12.881 4.148,-18.089 1.642,-19.097 -1.896,-0.759 -3.257,-4.566 -3.026,-8.456 0.269,-4.531 -6.659,-15.052 -19.29,-29.283 -10.841,-12.217 -18.747,-23.064 -17.571,-24.111 2.152,-1.909 32.281,25.323 41.64,37.64 2.762,3.636 5.136,5.501 5.274,4.148 0.143,-1.353 3.15,-0.683 6.688,1.493 5.143,3.161 5.987,5.979 4.187,14.01 -2.157,9.627 -1.35,10.692 18.902,24.92 11.636,8.173 22.647,17.597 24.466,20.936 4.665,8.566 8.001,7.779 8.584,-2.026 0.867,-14.55 9.686,-47.8 12.628,-47.623 3.703,0.212 1.468,36.7 -3.028,49.454 -2.338,6.633 -2.497,13.18 -0.479,19.67 4.306,13.86 17.043,13.67 51.939,-0.766 z m -267.499,-19.81 c 24.846,-8.68 47.41,-32.593 48.532,-51.428 1.354,-22.708 -20.731,-53.545 -42.191,-58.91 -17.869,-4.466 -37.487,-1.237 -47.179,7.763 -22.992,21.357 -31.967,62.439 -17.798,81.471 8.545,11.479 16.3,16.945 29.954,21.114 14.05,4.29 16.385,4.29 28.682,0 z m -44.918,-26.395 c -6.393,-7.202 -8.421,-12.348 -7.325,-18.579 1.277,-7.271 3.186,-8.676 12.229,-9.001 20.202,-0.719 25.427,2.782 24.609,16.492 -0.4,6.742 -1.722,14.445 -2.935,17.119 -3.565,7.854 -16.949,4.819 -26.578,-6.031 z m 35.42,-4.307 c 0.838,-14.064 1.846,-16.082 9.191,-18.382 13.328,-4.18 26.115,-2.268 27.171,4.063 1.428,8.573 -8.587,21.73 -20.063,26.362 -15.818,6.381 -17.329,5.263 -16.299,-12.043 z m -36.25,-32.681 c -0.883,-12.3 3.126,-22.332 11.767,-29.438 13.684,-11.256 21.679,-10.142 23.375,3.262 0.739,5.842 0.63,14.71 -0.244,19.706 -1.502,8.596 -2.469,9.078 -18.151,9.045 -9.109,-0.02 -16.645,-1.177 -16.747,-2.575 z m 43.485,-0.466 c -3.196,-3.599 -0.678,-28.932 3.075,-30.955 4.822,-2.595 17.254,1.775 22.79,8.012 2.551,2.876 4.35,10.081 3.998,16.01 -0.633,10.619 -0.847,10.768 -14.267,9.967 -7.494,-0.447 -14.512,-1.812 -15.596,-3.034 z m 336.124,61.568 c 6.386,-2.233 14.202,-7.543 17.37,-11.802 4.16,-5.592 7.597,-7.164 12.374,-5.658 5.936,1.874 6.552,0.986 6.007,-8.638 -0.461,-8.114 -2.663,-11.724 -9.041,-14.823 -4.637,-2.254 -14.188,-10.706 -21.223,-18.785 -14.527,-16.679 -21.037,-15.945 -22.138,2.502 -0.355,5.938 -2.646,17.134 -5.093,24.875 -3.133,9.904 -3.496,14.745 -1.226,16.341 1.774,1.248 3.969,6.204 4.875,11.013 1.914,10.158 2.67,10.366 18.095,4.975 z m -27.192,-43.168 c 4.938,-21.154 4.888,-22.684 -0.93,-29.242 -3.379,-3.806 -5.972,-9.749 -5.767,-13.207 0.213,-3.459 -0.758,-6.357 -2.14,-6.44 -1.384,-0.1 -11.044,-7.9 -21.463,-17.374 -16.476,-14.979 -19.907,-16.855 -26.315,-14.384 -6.414,2.473 -7.669,5.553 -9.686,23.813 -1.625,14.713 -1.169,21.493 1.524,22.711 2.112,0.955 3.6,5.777 3.304,10.716 -0.462,7.791 2.958,11.625 25.881,28.991 14.529,11.008 27.309,19.277 28.399,18.376 1.091,-0.902 4.33,-11.684 7.193,-23.96 z m -71.909,-26.455 c -0.891,-1.006 -4.018,-1.068 -6.944,-0.141 -4.423,1.401 -4.69,2.553 -1.569,6.805 3.385,4.611 4.075,4.625 6.947,0.142 1.752,-2.738 2.459,-5.802 1.566,-6.806 z m 130.67,13.938 c -0.902,-3.09 -7.129,-19.434 -13.837,-36.322 -6.707,-16.885 -14.207,-35.791 -16.666,-42.01 l -4.469,-11.311 -3.358,25.042 c -3.812,28.432 -3.172,42.346 1.966,42.847 1.939,0.189 9.562,6.322 16.935,13.623 14.329,14.19 22.153,17.464 19.429,8.131 z m -130.467,-69.03 c 4.052,-28.559 2.354,-32.004 -29.034,-58.846 -24.411,-20.877 -20.259,-25.002 5.334,-5.299 28.21,21.719 27.298,21.891 28.931,-5.475 1.398,-23.457 1.322,-23.724 -7.075,-25.214 -5.585,-0.991 -9.95,-4.704 -12.761,-10.856 -5.958,-13.034 -27.686,-35.894 -29.19,-30.714 -0.658,2.259 0.453,13.787 2.466,25.622 3.684,21.69 1.575,29.934 -7.564,29.568 -1.951,-0.07 -6.785,2.119 -10.74,4.883 -6.904,4.825 -7.128,6.125 -5.718,33.061 1.061,20.207 3.064,29.966 7.174,34.941 3.137,3.798 5.514,10.066 5.284,13.93 -0.326,5.464 4.484,10.146 21.622,21.038 l 22.04,14.01 2.914,-8.336 c 1.605,-4.585 4.447,-19.127 6.317,-32.313 z m 80.532,43.364 c 0.09,-1.628 -1.186,-3.916 -2.854,-5.088 -1.665,-1.172 -3.158,0.07 -3.318,2.77 -0.166,2.696 1.121,4.985 2.85,5.089 1.73,0.1 3.225,-1.144 3.322,-2.771 z m -229.256,-30.223 c -0.562,-2.093 -2.669,-4.467 -4.683,-5.275 -2.253,-0.902 -3.04,0.492 -2.048,3.624 1.853,5.846 8.281,7.422 6.731,1.651 z m 232.802,-7.472 c 3.16,-17.225 3.321,-23.589 0.625,-24.671 -10.925,-4.379 -16.654,-26.506 -8.064,-31.132 1.793,-0.967 3.382,-3.796 3.531,-6.285 0.142,-2.493 -1.146,-4.616 -2.875,-4.721 -1.729,-0.09 -3.311,2.643 -3.519,6.102 -0.367,6.165 -11.323,8.667 -13.328,3.043 -0.496,-1.389 -9.064,-9.57 -19.042,-18.175 -34.595,-29.845 -34.205,-38.493 0.538,-12.019 31.896,24.3 35.987,20.764 21.598,-18.681 -14.269,-39.128 -16.826,-45.138 -27.019,-63.561 l -9.867,-17.838 -7.576,22.72 c -7.006,21.017 -7.237,23.375 -3.071,31.497 4.397,8.567 3.097,20.093 -3.056,27.116 -2.67,3.044 -3.055,23.972 -1.051,57.034 0.514,8.492 2.194,12.877 4.65,12.142 7.312,-2.19 12.925,5.306 12.266,16.377 -0.599,10.002 1.206,12.468 20.424,27.889 11.591,9.305 23.213,16.795 25.826,16.647 3.447,-0.19 5.918,-6.64 9.01,-23.484 z m -146.585,2.42 c 0.05,-0.723 -0.648,-3.605 -1.533,-6.402 -2.278,-7.186 -7.156,-6.631 -7.604,0.864 -0.213,3.494 1.722,6.414 4.341,6.57 2.594,0.165 4.754,-0.309 4.796,-1.032 z m -88.299,-22.088 c 4.756,-22.295 6.274,-50.663 2.75,-51.329 -9.772,-1.845 -13.737,-7.753 -13.04,-19.441 0.69,-11.57 -0.765,-13.734 -24.267,-36.046 -13.75,-13.054 -25.559,-23.768 -26.242,-23.809 -0.683,-0.05 -1.739,5.723 -2.348,12.808 -0.888,10.321 1.947,18.801 14.254,42.657 8.447,16.376 21.111,43.254 28.139,59.723 7.03,16.472 13.864,30.013 15.189,30.093 1.325,0.07 3.829,-6.518 5.565,-14.656 z m -101.394,-0.307 c 2.548,-3.624 -3.143,-7.703 -7.486,-5.365 -3.645,1.964 -1.672,7.758 2.73,8.021 1.524,0.1 3.665,-1.103 4.756,-2.656 z m -3.82,-13.066 c 0.09,-1.729 -1.226,-3.229 -2.955,-3.33 -1.729,-0.09 -3.229,1.226 -3.334,2.955 -0.09,1.729 1.229,3.229 2.958,3.333 1.729,0.1 3.23,-1.228 3.331,-2.958 z m 19.051,-2.019 c 0.1,-1.729 -1.225,-3.229 -2.954,-3.331 -1.729,-0.1 -3.23,1.226 -3.332,2.955 -0.09,1.729 1.227,3.23 2.956,3.334 1.729,0.1 3.229,-1.229 3.33,-2.958 z m 164.907,-13.952 c 1.544,-25.923 1.356,-26.837 -5.509,-26.658 -21.295,0.558 -26.899,-1.828 -33.319,-14.19 -3.487,-6.716 -8.887,-14.553 -12.001,-17.414 -3.916,-3.605 -5.877,-11.003 -6.371,-24.045 -0.772,-20.372 -4.965,-34.817 -5.983,-20.607 -0.317,4.39 -3.147,15.899 -6.293,25.575 -5.696,17.52 -5.689,17.632 1.915,26.197 7.227,8.144 7.477,11.787 1.638,23.773 -1.61,3.298 1.441,7.251 10.209,13.23 6.876,4.69 20.809,15.68 30.962,24.42 10.15,8.743 19.515,16.045 20.804,16.228 1.292,0.19 3.066,-11.744 3.948,-26.509 z m 89.86,27.563 c 0.165,-2.593 -1.134,-4.8 -2.863,-4.904 -1.73,-0.1 -3.272,1.935 -3.425,4.528 -0.166,2.594 1.134,4.803 2.863,4.904 1.729,0.1 3.268,-1.934 3.425,-4.528 z m -266.967,-20.648 c 0.09,-1.729 -0.435,-3.182 -1.199,-3.227 -0.762,-0.05 -2.345,1.28 -3.517,2.946 -1.171,1.665 -0.633,3.116 1.198,3.227 1.833,0.117 3.416,-1.217 3.518,-2.946 z m 20.674,-21.572 c -12.054,-25.159 -15.699,-28.971 -19.387,-20.287 -1.285,3.031 -6.175,10.96 -10.867,17.623 -4.689,6.661 -8.598,12.935 -8.685,13.941 -0.1,1.004 7.301,1.687 16.422,1.517 11.75,-0.213 18.331,1.218 22.581,4.93 11.215,9.798 11.199,5.784 -0.07,-17.724 z m 316.773,23.546 c 0.05,-1.299 -1.153,-4.563 -2.674,-7.258 -2.237,-3.96 -2.856,-3.544 -3.237,2.173 -0.257,3.891 0.945,7.155 2.674,7.259 1.729,0.09 3.184,-0.874 3.237,-2.174 z m -234.296,-48.676 c -0.88,-6.704 -6.486,-6.619 -8.314,0.118 -0.764,2.814 0.848,4.952 3.869,5.131 3.239,0.189 4.904,-1.777 4.445,-5.256 z m 78.91,-3.184 c 10.457,-6.092 11.005,-7.21 10.143,-20.693 -0.501,-7.839 -0.983,-28.983 -1.073,-46.983 l -0.165,-32.732 -15.241,0.889 c -28.454,1.663 -28.645,2.003 -20.545,36.686 3.867,16.559 8.221,38.872 9.672,49.585 1.452,10.716 3.43,19.527 4.395,19.583 0.964,0.05 6.728,-2.792 12.809,-6.335 z m -30.353,-7.307 c 0.1,-1.714 -2.457,-22.1 -5.688,-45.3 -5.477,-39.337 -9.237,-49.841 -18.143,-50.702 -1.494,-0.141 -2.038,3.684 -1.204,8.505 0.833,4.822 3.273,23.282 5.421,41.02 2.206,18.227 6.256,35.918 9.314,40.685 5.606,8.741 9.976,11.2 10.3,5.792 z m -48.479,-34.259 c 8.084,-35.056 8.996,-34.18 -28.044,-26.951 l -31.633,6.175 21.26,17.488 c 11.694,9.618 23.033,19.654 25.201,22.299 5.927,7.226 7.784,4.554 13.216,-19.011 z m 151.759,16.444 c 1.218,-2.687 1.533,-6.157 0.697,-7.709 -2.557,-4.743 -10.942,-0.212 -11.318,6.121 -0.43,7.217 7.526,8.407 10.621,1.588 z m -223.774,-25.151 c 0.354,-5.941 -2.541,-8.412 -7.878,-6.721 -3.522,1.117 -3.81,2.518 -1.24,6.019 4.249,5.792 8.792,6.141 9.118,0.699 z m 215.022,4.507 c 5.454,-3.789 9.229,-10.222 11.178,-19.057 1.617,-7.332 3.926,-16.469 5.125,-20.303 1.995,-6.357 1.118,-7.006 -9.963,-7.389 -6.683,-0.237 -20.029,0.749 -29.658,2.176 -15.404,2.284 -17.684,3.58 -18.957,10.793 -1.16,6.554 1.706,11.303 14.305,23.729 8.667,8.541 16.652,15.585 17.746,15.649 1.094,0.07 5.693,-2.454 10.224,-5.598 z m -78.153,-66.073 c 7.557,-2.031 18.012,-3.892 23.232,-4.136 8.207,-0.38 9.714,-1.857 11.127,-10.892 2.896,-18.527 -13.302,-29.722 -28.422,-19.642 -5.772,3.848 -5.857,4.292 -0.884,4.68 9.836,0.764 5.622,11.504 -5.844,14.893 -23.496,6.946 -37.896,-0.692 -15.84,-8.402 6.204,-2.167 11.311,-4.495 11.351,-5.171 0.166,-2.686 -27.527,0.418 -38.634,4.33 -10.768,3.792 -17.951,13.233 -14.684,19.3 0.707,1.311 6.803,1.977 13.55,1.476 7.33,-0.541 13.054,0.557 14.223,2.726 2.667,4.954 14.351,5.27 30.825,0.838 z" fill="#00B894" transform="translate(205.49908,-210.97946) matrix(0.28277973,0,0,0.28277973,-12291.6,-7365.6953)"/>
</svg>