<?xml version="1.0" ?><svg height="270.40378mm" viewBox="0 0 315.76425 270.40378" width="315.76425mm" xmlns="http://www.w3.org/2000/svg">
    <path d="m -6660.0312,360.80664 c -11.8428,20.0439 -25.7675,39.78191 -27.8497,60.43945 -2.1258,7.7315 -9.4013,2.8193 -17.4941,3.86914 -7.0991,0.90639 -15.77,3.40493 -16.0156,19.18946 0.1977,36.08872 24.9419,2.15147 10.7168,33.20898 -4.3572,-2.88238 -11.3157,-1.30152 -15.1739,-2.49219 -11.963,-3.6919 -15.4276,4.1123 -19.2597,13.02149 -3.8321,8.90919 0.1757,18.51369 17.2695,22.17383 l 1.0313,0.24218 c 0,0 0.6911,0.15507 1.6425,0.32813 l -6.4257,15.43359 1.9414,29.75977 1.1445,17.56641 2.0977,-0.33204 2.414,12.83008 -27.0566,-0.008 c 11.5281,53.31381 22.4424,50.88735 104.9511,53.79297 82.5087,2.90563 105.4922,-53.73438 105.4922,-53.73438 l -22.6504,-0.006 c 0.8574,-11.38044 2.3982,-47.75662 -0.078,-56.67187 -2.7638,-9.94911 -13.6897,-2.6611 -15.875,-8.9082 -2.1853,-6.24712 3.6524,-6.3086 3.6524,-6.3086 0,0 13.7663,-9.31066 10.5527,-18.50781 -3.2137,-9.19715 -18.832,-5.89844 -18.832,-5.89844 l -5.7852,-7.23047 6.7344,-11.76172 c 0,0 14.0257,6.03368 21.0957,-11.55078 7.0701,-17.58447 -6.5567,-20.1875 -6.5567,-20.1875 0,0 8.015,-0.97069 0.6954,-15.00781 -7.3196,-14.03712 -18.315,-0.75626 -14.5782,-9.875 3.7368,-9.11874 3.2572,-11.8497 -9.5117,-18.03711 -15.76,-7.63677 -19.1395,15.59094 -15.1308,20.875 -9.8188,-3.77614 -8.0009,-5.99216 -13.4961,-13.83594 -5.0294,-7.17914 -9.4267,-8.96641 -10.75,-9 -9.2633,-0.23508 -24.959,10.91407 -24.959,10.91407 l -0.4883,-13.34571 c 10.5223,7.26198 9.3699,-10.17312 7.8594,-22.99414 -0.089,-0.75473 -10.4891,-8.04344 -11.3242,-7.95117 z m -167.5723,40.83984 -21.5899,22.91016 20.6016,39.00781 c -14.7895,8.12257 -6.0091,171.26062 -9.0137,255.08203 -21.3599,5.26722 -24.1008,20.15892 -29.4511,33.70313 -18.951,4.84334 -19.8553,20.17732 -22.5235,34.48437 -15.7943,3.62561 -35.8187,31.84302 -16.5254,39.4004 l 161.9258,2.87695 c 21.5819,-3.24061 8.4626,-35.62466 -21.123,-47.31641 6.8374,-25.71716 -11.7193,-32.06384 -34.5176,-35.08203 11.2061,-2.7983 16.3866,-24.78585 -18.0547,-25.80078 l 0.6016,-260.43359 13.5136,-42.25196 c -19.809,9.34553 -18.6197,-7.63771 -23.8437,-16.58008 z m -158.3496,92.00196 c -1.0306,-0.0199 -2.1174,0.0361 -3.2637,0.17383 -27.7575,3.33538 -18.5249,38.44148 5.6641,40.48046 15.8148,-8.57402 18.5527,-40.24823 -2.4004,-40.65429 z m -50.6875,104.40625 -14.2285,2.07812 0.2617,2.15039 c -19.8993,0.92232 -35.7906,20.01401 -35.791,43.44336 -5e-4,24.01881 16.698,43.49024 37.2968,43.49024 20.5989,7e-5 37.2974,-19.47138 37.2969,-43.49024 -3e-4,-17.29319 -8.6573,-32.22642 -21.1933,-39.23437 2.662,-6.23916 -3.6426,-8.4375 -3.6426,-8.4375 z m 52.3633,4.6914 c -6.4741,0.38739 -16.3764,6.97273 -18.5997,15.8086 -1.0193,7.65699 7.1543,20.06865 17.0977,21.79101 9.9435,1.72235 17.1219,-10.74681 19.3477,-17.58008 2.2258,-6.83325 -10.2361,-19.52496 -16.6016,-20.01171 -0.3978,-0.0304 -0.8125,-0.0336 -1.2441,-0.008 z m 0.3418,49.67774 c -8.0467,-0.13431 -15.9034,8.4778 -15.2598,14.375 0.6865,6.29034 -2.6014,30.2728 -2.8926,40.55078 l 6.2774,0.6543 -95.5469,0.67968 c 5.864,19.37047 15.7276,53.13397 104.1543,51.63477 88.4267,-1.49928 97.9551,-53.07422 97.9551,-53.07422 l -77.459,0.55078 c -0.1028,-6.77045 -0.4805,-24.34038 -1.7852,-33.6582 -1.6226,-11.58846 -5.2635,-20.12488 -13.834,-21.56641 -0.5356,-0.0901 -1.0729,-0.13753 -1.6093,-0.14648 z" fill="#FFFFFF" paint-order="markers stroke fill" transform="translate(-8.4273765,65.654272) matrix(0.565755,0,0,0.565755,1226.3066,377.21212) translate(4946.0726,-1138.2098)"/>
    <path d="m -6660.2031,355.42773 c -0.9115,0.025 -1.8788,0.12671 -2.9043,0.31055 -5.4385,0 -13.5158,13.16053 -14.6153,23.8125 l -0.6835,6.62891 -6.7481,2.98047 c -17.2773,7.63106 -20.3589,9.07004 -25.4336,11.88281 -5.5897,3.0983 -13.6953,7.06044 -16.8789,8.25195 -0.9946,0.37225 -2.7577,1.22336 -3.918,1.89063 -1.1604,0.66727 -3.0584,1.74881 -4.2187,2.40234 -26.3552,14.46329 -49.6814,24.71716 -76.5156,37.68359 -0.9887,0 0.1187,-5.35481 3.1445,-15.21679 2.1654,-7.05782 2.4612,-7.41211 6.7851,-8.10352 3.079,-1.48645 2.4616,-7.83488 -1.9296,-9.9707 -11.8643,-3.06702 -16.2977,-6.8501 -17.6914,-15.09961 -0.8066,-4.77372 -4.1776,-8.26953 -7.9727,-8.26953 -1.1394,0 -3.6196,2.56757 -5.6211,5.82031 -5.7425,9.07022 -12.3987,13.59823 -20.332,19.93164 -1.5189,2.8379 -0.9944,7.99917 3.3086,8.01367 2.4995,0.008 4.0437,2.12989 10.7539,14.76758 4.3098,8.11712 8.0036,15.38995 8.207,16.16211 -0.6134,2.51159 -8.332,4.10248 -10.6035,5.64453 -36.8135,16.53257 -87.3964,39.6712 -128.2676,59.32422 7.4225,-7.49019 4.4184,-20.69795 -0.1562,-25.9082 -6.952,-7.91795 -18.5972,-10.85688 -25.3868,-6.40821 -6.8047,4.45862 -17.5278,22.0639 -8.25,31.03711 1.4455,3.48953 13.3354,12.27208 8.1036,16.86524 -13.7464,21.87661 -26.2447,43.04287 -38.7149,64.83594 2.2333,0.91373 4.3869,2.07326 6.4317,3.46289 14.9724,-24.95612 30.6211,-49.62853 43.7871,-68.25196 2.8624,-0.48853 3.4325,-0.18238 3.9023,0.30469 26.1425,45.70843 54.0322,98.95792 84.5957,146.05469 3.0515,6.64136 7.9356,11.10775 5.1797,12.31445 -2.2327,0.97749 -3.4078,0.97766 -8.7246,1.71094 -17.9511,2.4605 -74.2997,7.72438 -115.2383,3.48828 -0.5478,-0.59223 -29.586,-1.7231 -56.3496,-2.19336 -5.4702,-0.0961 -9.9473,-0.51962 -9.9473,-0.94141 0,-0.4217 1.4767,-2.92597 3.2813,-5.5664 2.7057,-3.95879 4.3998,-6.81202 8.4765,-14.44922 -1.8142,-1.57148 -3.5021,-3.33198 -5.0429,-5.25977 -1.4594,2.62088 -2.785,5.00436 -4.2735,7.67383 -8.8373,16.8633 -9.266,17.48047 -12.164,17.48047 -4.5899,0 -7.632,8.93323 -4.8301,14.18164 9.7507,22.25032 21.4369,34.49911 46.3965,42.41797 4.5838,1.33617 10.2799,2.67132 12.6582,2.9668 20.6175,2.56141 26.1828,3.16729 35.668,3.88086 34.9637,2.4577 81.6315,-4.40283 104.1015,-29.08789 4.7582,-7.35954 11.3553,-14.29174 15.6367,-25.91993 3.2919,-10.36399 -3.2756,-21.37301 -7.0742,-27.75 -24.0697,-40.40857 -49.2965,-86.1019 -80.9668,-136.60937 -5.2117,-8.34887 -2.6558,-11.974 1.2266,-12.67383 39.6269,-17.57054 63.962,-32.98255 110.5371,-50.8125 8.5993,-3.97407 18.9709,-8.44141 19.5976,-8.44141 0.3362,0 0.2794,4.20316 -0.125,9.3418 -3.039,39.02077 2.311,81.59 -1.5019,119.04883 -0.3701,3.3153 -0.9149,30.13592 -1.2109,59.60156 -0.2962,29.46565 -0.797,53.83193 -1.1114,54.14649 -0.3146,0.31447 -3.3576,1.55248 -6.7636,2.75195 -11.978,4.2182 -19.3852,15.76153 -16.625,27.40039 -8.9216,7.93106 -20.5686,8.2115 -25.5372,25.26758 -1.3055,3.9436 -1.1002,7.0625 0.7559,11.50195 0.7978,1.90851 -3.7832,3.03247 -6.0332,2.31836 -14.2131,0.38798 -16.6601,21.00461 -27.7324,34.37305 -3.4102,2.96521 -5.6562,9.85393 -3.1621,11.92383 v 0 c 87.1794,5.74615 153.0857,1.46544 200.6836,1.79492 l 10.252,-1.32422 c 5.7346,-7.7741 -20.0055,-36.44434 -24.6543,-41.4961 -10.3244,-10.50513 -6.6902,-10.60979 -13.0762,-10.33203 -5.6014,0.24359 -5.8682,0.11744 -5.0625,-2.41015 3.9261,-12.44312 -6.8467,-28.18369 -27.8359,-32.67188 5.4158,-14.35732 -10.3991,-26.47743 -20.9453,-26.77734 -1.9714,-0.0561 -3.7941,-0.44214 -4.0508,-0.85742 -2.87,-90.30916 0.954,-155.49458 2.7812,-241.09766 -0.1479,-7.09127 0.4868,-11.56086 0.4688,-13.05273 -0.3368,-3.77426 28.9823,-13.15862 38.291,-19.46289 0.3315,-0.40561 11.4518,-6.07785 24.7129,-12.60547 13.2612,-6.52753 25.1973,-12.46003 26.5234,-13.18164 10.8302,-5.89294 25.3641,-12.75483 35.5293,-17.00782 -4.5604,6.24849 -5.8015,15.3487 -2.5762,21.375 2.3115,4.31917 9.3839,4.61398 7.545,0.31446 -4.9755,-11.63459 -1.2202,-19.15625 9.5644,-19.15625 4.9114,0 7.2548,1.05589 9.9531,4.48632 1.941,2.46763 3.5293,5.89202 3.5293,7.60938 0,2.07589 0.8548,2.79423 2.5528,2.14258 3.1526,-1.20979 3.3288,-5.64335 1.6601,-10.19336 1.4519,0.12138 2.9805,-0.40349 4.3145,-1.58789 0.066,3.55066 0.9292,3.25645 5.791,-1.60547 5.9142,-5.91407 12.7247,-5.57972 18.9629,0.93164 4.1513,4.33311 4.5552,5.45228 2.4473,6.78516 -1.3884,0.87784 -3.0794,1.60719 -3.7579,1.62109 -1.9797,0.0419 -6.6683,10.18171 -5.5468,11.99609 1.5501,2.50819 4.2265,1.97509 4.2265,-0.84179 0,-6.24908 14.8931,-8.15353 20.4336,-2.61328 3.3212,3.32123 4.0517,7.15963 3.459,18.15625 -0.2118,3.93084 0.548,5.60456 2.8086,6.18945 1.7038,0.44075 3.6749,0.88938 4.3809,0.99805 0.7054,0.10865 1.0892,-2.29219 0.8515,-5.33594 -0.3404,-4.36099 0.1711,-5.43549 2.418,-5.06446 4.288,0.70808 5.3103,-2.48173 1.623,-5.06445 -1.7849,-1.25006 -4.4151,-5.07422 -5.8457,-8.49805 -2.9281,-7.00815 -8.7735,-11.53641 -15.9355,-12.34374 -3.4674,-0.39083 -4.6788,-1.36042 -4.2969,-3.44141 0.6645,-3.62076 -3.599,-10.27832 -8.7363,-13.64453 -3.9553,-2.59153 -10.8904,-1.17891 -16.1699,1.98047 0.3407,-0.87625 0.6659,-1.80444 0.916,-2.76172 1.1194,-4.28647 0.9277,-6.05958 -1.2988,-12.05664 -3.1887,-8.53859 -4.5005,-25.1953 -18.1719,-24.82032 z m -0.8867,12.86133 c 4.8973,0.26617 9.5535,9.20864 4.0468,8.62891 -3.8782,-0.97334 -7.7343,0.16378 -7.7343,2.28125 0,1.67695 -2.9344,3.34306 -4.0039,2.27344 -0.7969,-0.79693 1.4683,-7.44318 3.7382,-10.9668 1.1916,-1.68508 2.5819,-2.29133 3.9532,-2.2168 z m -2.108,22.67603 c 2.8684,0.0395 3.4449,-0.0504 6.6314,0.78686 l -0.1138,6.94905 c -0.046,2.80577 -3.3404,-2.12302 -5.6694,-3.08772 -4.3738,-1.81161 -17.6845,0.50579 -12.8747,-1.41063 5.0002,-1.99231 6.9208,-3.30783 12.0265,-3.23756 z m 70.2251,1.42163 c -3.8527,-0.10323 -7.6388,0.93405 -10.5097,3.38476 -4.1844,3.57219 -2.0078,3.89401 4.5136,2.2168 11.163,-2.53169 18.6108,3.96644 14.877,12.98047 -1.1044,2.66808 -1.5062,5.66317 -0.8926,6.65625 2.9606,4.79003 9.461,-2.7796 9.375,-10.91797 -0.088,-8.3476 -8.8872,-14.09321 -17.3633,-14.32031 z m -56.1718,14.73242 c -2.4136,-0.043 -3.424,4.98917 -0.5,11.22852 0.3148,0.66182 0.6428,1.3272 0.9629,1.99023 -8.1952,-0.16876 -17.1211,5.19941 -17.1211,11.88867 0,5.68169 3.1082,6.93819 4.9804,2.01367 3.1549,-8.2978 13.6859,-7.70355 18.3223,-1.58984 0.5412,1.03886 1.0933,2.07984 1.6445,3.12109 0.3731,1.12151 0.5872,2.34384 0.584,3.66797 -0.01,3.41665 -1.3944,5.46891 -5.125,7.5918 -2.8121,1.60023 -5.8728,4.90666 -6.8008,7.34766 -2.2388,5.88736 -2.1498,15.65022 0.1543,17.07421 1.0135,0.6257 1.3803,2.96789 0.8184,5.20704 -0.7878,3.13931 1.842,6.64689 6.8632,3.3903 0,0 1.4272,1.87615 5.4454,3.27571 4.1898,1.45962 9.2735,2.06716 11.9199,1.42383 4.6108,-1.12082 4.6104,-1.11962 1.3594,2.54883 -4.2403,4.78473 -2.4493,6.3645 4.1269,3.64062 7.1973,-2.98126 12.9027,-0.23898 14.4844,6.96289 0.9099,4.14323 0.5347,5.84218 -1.5449,7.00586 -3.8594,2.15989 -7.8535,10.4971 -7.8535,16.39453 0,11.60899 1.6897,14.90579 9.0937,17.75391 v 0 c 9.1307,3.51226 10.5106,3.52821 17.5136,0.20508 2.7588,-1.30913 5.049,-2.90765 6.879,-4.69531 6.4658,11.23187 12.6102,22.40577 18.1093,33.45312 -0.3099,5.36072 -0.6801,9.76626 -0.7676,12.99219 -4.5154,0.086 -9.0302,0.1733 -13.8242,0.23828 0.5419,-4.78185 -0.071,-11.21561 -1.9726,-17.75781 -4.8444,-16.66377 -13.25,-21.50884 -27.2012,-15.67969 -4.5158,1.88681 -5.9213,3.64766 -6.8477,8.58594 -1.4877,7.93019 -2.532,18.50706 -2.7695,25.16992 -3.2578,0.0128 -6.5674,0.0179 -9.8711,0.0254 -0.1354,-2.47985 -0.46,-6.77964 -1.1543,-16.2168 -0.9716,-13.20343 -0.7696,-16.56969 0.9668,-16.17773 3.6268,0.81867 5.1827,-10.26253 4.0918,-29.13867 -1.1718,-20.27757 -2.945,-24.16744 -12.8164,-28.11719 -7.7865,-3.11558 -14.0358,-3.43415 -18.668,-0.95508 -2.7828,1.48942 -3.6062,0.89705 -5.6875,-4.08398 -1.3384,-3.20366 -3.7108,-6.53872 -5.2714,-7.41211 -4.2559,-2.38175 -17.6195,0.20266 -20.461,3.95703 -2.7958,3.69398 -3.4333,14.31055 -0.8594,14.31055 0.9366,0 1.7012,-1.14986 1.7012,-2.55469 0,-4.15716 6.4464,-9.36524 11.5918,-9.36524 3.9338,0 5.3086,1.19491 7.7578,6.7461 2.2453,5.08883 2.5354,7.57218 1.1797,10.10547 -0.9887,1.84712 -1.7969,4.91471 -1.7969,6.8164 0,2.87928 -6.2835,8.50909 -7.4726,6.69531 -0.2032,-0.30999 -1.713,-2.70791 -3.3535,-5.32812 -3.4787,-5.55624 -12.3553,-11.39725 -17.336,-11.40625 -9.1506,0.027 -18.4042,8.69687 -13.5566,-0.006 2.9161,-5.1012 3.2597,-15.31696 0.7051,-20.92383 -2.2817,-5.00807 -9.9732,-9.72656 -15.8555,-9.72656 -5.1753,0 -18.0547,5.25652 -18.0547,7.36914 0,0.80198 -1.5332,3.40784 -3.4062,5.78906 -3.7227,4.73254 -4.4765,14.01237 -1.5782,19.42774 1.261,2.35562 2.4844,5.15774 2.4844,5.15774 -2.7909,5.40631 0.9737,8.98811 4.8321,4.32626 0,0 2.829,1.33168 7.9999,1.8285 6.5436,0.6288 9.2132,0.0273 13.5469,-3.0586 l 5.3965,-3.84375 -2.9062,5.62305 c -2.0261,3.91754 -2.6677,8.13574 -2.1133,13.90625 0.4377,4.55561 0.1275,8.69623 -0.6895,9.20117 -2.2203,1.37221 0.052,4.08789 3.4199,4.08789 1.6197,0 5.9509,1.5332 9.625,3.40625 3.6738,1.87307 9.1741,3.4043 12.2227,3.4043 7.6004,0 16.8246,-9.2508 18.375,-18.42773 0.9864,-5.83749 1.6312,-6.61315 4.8516,-5.83594 2.0425,0.49292 5.246,2.27621 7.1191,3.96289 3.9408,3.54875 16.421,6.74274 21.3301,5.45898 2.5646,-0.67064 3.3613,-0.0254 3.3613,2.72461 0,4.10523 -1.7713,4.41608 -9.4141,1.65235 -7.5082,-2.71495 -13.9242,-0.63268 -17.955,5.82812 -3.0855,4.94565 -3.3123,7.25594 -2.2969,23.36719 0.5014,7.95462 1.1125,13.66298 1.9082,17.42383 -1.2388,-0.003 -2.4667,-0.008 -3.7051,-0.0117 0.094,-5.85001 -2.6968,-19.48185 -5.2969,-24.50977 -4.9549,-9.58178 -15.1728,-12.4666 -26.8632,-7.58203 -11.4165,4.77011 -15.565,15.33637 -11.0762,28.21289 0.7871,2.25805 1.5783,3.44314 2.289,3.69922 -4.4666,-0.0241 -9.0034,-0.045 -13.3613,-0.0703 0.3515,-2.0669 0.1837,-6.28807 -0.4922,-13.33008 -1.7724,-18.47042 -1.7025,-42.57609 0.1387,-47.67773 1.0309,-2.85639 0.7481,-3.83204 -1.1074,-3.83204 -3.7348,0 -7.5605,5.22015 -8.7637,11.95508 -0.4759,2.66372 -0.1135,9.9397 0.6485,18.16407 -2.6275,5.83706 -5.1919,11.52167 -8.1192,18.07226 -1.9382,3.8578 -3.5234,7.57271 -3.5234,8.25391 0,0.68129 -1.1611,2.86825 -2.5801,4.86133 -5.7549,7.12689 -13.6374,5.55906 -7.6934,21.02734 1.555,13.85813 14.3615,30.07131 27.2168,38.10156 29.9711,13.06003 121.1594,12.97585 148.9688,1.94531 15.6736,-6.21686 25.8202,-24.82998 36.2265,-42.37304 8.1749,-8.23341 -4.1037,-19.55682 -10.4003,-26.17188 -0.2955,-0.67236 -0.6103,-1.3562 -0.9141,-2.0332 0.033,-0.24807 0.072,-0.46457 0.1035,-0.71875 3.2991,-27.00312 -2.9867,-45.74428 -15.4004,-45.91992 -4.9791,-0.0704 -4.8307,0.94795 0.8516,5.85351 4.2051,3.63043 4.6311,4.23738 4.7304,20.86133 -4.0637,-7.7919 -8.5106,-15.77945 -13.166,-23.85742 1.0129,-6.91457 -2.641,-14.07603 -10.7226,-18.1875 -4.2717,-7.10313 -8.6091,-14.19679 -12.9688,-21.27734 1.5053,0.49542 3.7329,0.79296 6.3789,0.79296 11.0059,0 15.9571,-5.34105 15.9571,-17.21484 0,-12.43444 -5.9004,-20.24609 -15.2911,-20.24609 -8.6977,0 -15.7874,6.67927 -9.6074,9.05078 1.2906,0.49526 3.2072,0.0409 4.2578,-1.00977 1.4118,-1.41185 2.4011,-1.21449 1.0999,1.70434 -1.5602,3.4998 1.1018,4.48557 3.1794,1.74879 1.244,-1.63895 2.6669,-2.98047 3.1621,-2.98047 0.4944,0 0.7938,1.34152 0.6641,2.98047 -0.13,1.63892 0.7072,2.79315 1.8613,2.56445 2.7703,-0.54844 4.818,7.88513 2.7227,11.20703 -3.0529,4.83976 -7.0827,6.38647 -10.7227,4.11328 -2.8139,-1.75731 -3.6093,-1.61735 -4.8847,0.86328 -0.4647,0.90217 -0.7683,2.00249 -0.8828,3.00782 -3.163,-5.12968 -6.3188,-10.25561 -9.4278,-15.30664 0.019,-9.09292 -5.2361,-19.1295 -13.1933,-21.69532 -2.823,-4.71836 -5.5764,-9.37362 -8.1836,-13.9082 -0.5951,-2.08614 -1.5668,-3.80329 -2.9903,-5.29102 -2.5982,-4.61732 -5.0967,-9.15456 -7.3632,-13.50781 -1.6712,-3.36308 -3.3198,-4.77828 -4.584,-4.80078 z m -178.295,4.48438 c 4.483,7.78721 11.5723,13.91992 11.5723,13.91992 -3.0426,7.95177 -4.3702,21.50161 -8.8945,28.16015 -2.7169,-2.11729 -14.4534,-21.71561 -16.4121,-27.93554 3.2106,-3.0323 7.7685,-8.72225 13.7343,-14.14453 z m 257.0938,8.74414 c -0.3655,0.0128 -0.7345,0.0872 -1.0977,0.22656 -1.8534,0.71119 -1.7766,1.64623 0.4043,4.97461 3.1807,4.85457 5.6993,5.31247 5.6993,1.03515 0,-3.47887 -2.4473,-6.32621 -5.0059,-6.23632 z m -137.6328,1.30859 c -2.2957,-0.14662 -4.1377,0.44632 -6.9004,1.875 -7.3683,3.81023 -13.9884,15.96204 -8.7406,30.98835 -1.9089,0.19088 -5.2062,8.35877 1.903,5.35482 0,0 1.6963,1.19097 2.2751,2.12753 1.4171,2.2928 5.959,2.17218 5.959,-0.1582 0,-1.02292 -1.5311,-3.80826 -3.4043,-6.18945 -4.0206,-5.11156 -4.4142,-14.01084 -0.916,-20.77539 2.9868,-5.77599 5.5959,-6.9336 15.6289,-6.9336 8.9323,0 8.5217,-2.42923 -0.8867,-5.24804 -2.0003,-0.59931 -3.5406,-0.95305 -4.918,-1.04102 z m 87.2988,7.99219 c -2.6332,0 -3.3825,2.00803 -1.4648,3.92578 1.3604,1.3604 4.0195,-0.17706 4.0195,-2.32422 0,-0.88127 -1.1498,-1.60156 -2.5547,-1.60156 z m 8.5137,0 c -1.4048,0 -2.5547,1.14991 -2.5547,2.55468 0,1.40479 1.1499,2.55274 2.5547,2.55274 1.4049,0 2.5547,-1.14796 2.5547,-2.55274 0,-1.40477 -1.1498,-2.55468 -2.5547,-2.55468 z m 36.9082,3.53906 c -3.1514,0.10293 -6.1657,1.17212 -8.6035,3.44336 -4.7358,4.4119 -3.8789,5.6005 2.334,3.23828 5.9734,-2.27097 10.0736,-0.96897 14.4414,4.58398 4.9631,6.30938 7.1583,16.49731 -2.584,19.2461 -8.2734,2.33433 -6.1387,6.91498 -5.8867,7.44726 0.9016,1.90472 2.1149,1.07227 4.6992,1.07227 2.989,0 5.5452,1.35435 7.0254,3.72461 2.1188,3.39255 2.5104,3.47543 4.3847,0.91211 1.5671,-2.14286 2.5327,-2.34231 4.043,-0.83203 1.4939,1.49372 2.4686,1.50003 3.9414,0.0273 1.4725,-1.47267 1.209,-3.09298 -1.0644,-6.5625 -2.6056,-3.97668 -2.6467,-4.46634 -0.3067,-3.56836 4.3857,1.68295 5.1757,-2.15241 1.2949,-6.2832 -1.9711,-2.09822 -3.5839,-5.54004 -3.5839,-7.64844 0,-10.72206 -10.6807,-19.10958 -20.1348,-18.80078 z m -106.7559,0.79883 c -2.9471,-0.0605 -5.9812,0.76398 -9.2617,2.4375 -4.4549,2.27271 -7.6589,5.6747 -10.1074,10.73242 -4.1717,8.6177 -4.3848,12.38348 -1.0313,18.25 1.3384,2.34132 3.3782,3.88826 3.4112,6.46372 -3.5827,5.90228 3.8131,6.76375 5.9199,3.35479 0.5239,-0.84742 2.9759,1.11747 6.5693,1.59946 12.4814,1.67412 25.8184,-9.56992 25.8184,-21.76563 0,-5.47826 -1.1777,-7.85737 -6.5449,-13.22461 -5.1879,-5.18786 -9.8616,-7.74689 -14.7735,-7.84765 z m 0.6426,7.51758 c 10.5557,-0.4503 18.1277,12.80155 7.293,22.48242 -4.9227,4.39853 -15.4011,6.27043 -13.8614,3.52734 1.8045,-3.21482 -2.6522,-6.66502 -5.2206,-3.10617 -5.72,-2.52066 -3.6444,-13.58762 2.5585,-18.92312 3.0849,-2.65345 6.2749,-3.85439 9.2305,-3.98047 z m -34.5234,0.0644 c -1.483,0 -2.6953,1.21246 -2.6953,2.69531 0,1.48287 0.9092,2.39221 2.0214,2.02149 3.1574,-1.05245 3.6808,-4.7168 0.6739,-4.7168 z m 8.373,0 c -1.4049,0 -2.5547,1.14793 -2.5547,2.55273 0,1.4048 1.1498,2.55469 2.5547,2.55469 1.4049,0 2.5527,-1.14989 2.5527,-2.55469 10e-5,-1.4048 -1.1478,-2.55273 -2.5527,-2.55273 z m 74.5567,8.63086 c 3.5294,6.27762 7.1783,12.58455 10.9199,18.91601 -0.3674,0.6949 -0.806,1.37807 -1.3321,2.04688 -6.2182,7.90527 -17.8839,4.87921 -22.1738,-5.75195 -2.9131,-7.21931 5.2119,-14.41404 12.586,-15.21094 z m -57.4786,1.82226 c -0.8812,0 -2.6054,2.23141 -2.6054,3.16797 0,0.93651 1.1943,1.70313 2.6543,1.70313 1.4603,0 2.985,-2.41309 2.4062,-3.34961 -0.5788,-0.93656 -1.5739,-1.52149 -2.4551,-1.52149 z m 6.959,1.94727 c -0.3871,0.0345 -0.8212,0.31143 -1.332,0.82227 -1.0302,1.0302 -1.3635,3.20182 -0.7402,4.82617 0.8242,2.14791 1.6455,2.4423 3.0078,1.08008 1.0302,-1.03017 1.3616,-3.2018 0.7383,-4.82618 -0.5153,-1.34242 -1.0287,-1.95982 -1.6739,-1.90234 z m 42.0078,5.42187 c -0.2225,-0.0191 -0.4469,0.0326 -0.666,0.16797 -0.8385,0.51815 -1.5254,2.04502 -1.5254,3.39453 0,2.50754 2.0284,3.26272 3.8555,1.43555 1.3432,-1.34304 -0.1063,-4.86444 -1.6641,-4.99805 z m 6.3223,0.90821 c -0.9363,0 -1.7012,1.14989 -1.7012,2.55469 0,1.40478 0.7649,2.55273 1.7012,2.55273 0.9366,0 1.7031,-1.14795 1.7031,-2.55273 0,-1.4048 -0.7665,-2.55469 -1.7031,-2.55469 z m -189.3906,5.15429 c 1.2853,0.0557 1.8398,1.02452 1.8398,3.00391 -0.5158,46.12064 2.6076,96.79537 -3.1543,144.66602 -0.466,18.56558 -0.9299,35.65398 -1.0312,37.97461 -0.1013,2.32072 -0.2858,18.40212 -0.4102,35.73632 -0.1921,26.76029 -0.4997,31.62179 -2.0351,32.21094 -0.9946,0.38165 -1.8476,0.30453 -1.8946,-0.17187 -2.5408,-78.14525 -1.3723,-156.35458 0.2559,-230.43164 l 0.1504,-19.48438 1.873,-2.02148 c 1.9653,-1.01631 3.4066,-1.52576 4.4063,-1.48243 z m 222.6241,0.15534 c -0.7545,0.11389 -4.2056,0.0572 -2.9465,3.70116 0.3868,1.11965 0.8584,1.32473 1.9825,0.95015 1.1238,-0.37464 2.7557,-1.62078 2.6857,-2.29979 -0.092,-0.89076 -0.2349,-2.57594 -1.7217,-2.35152 z m 9.4599,1.91888 c -1.1282,-0.0503 -2.5467,0.89197 -3.1387,2.66797 -0.3707,1.11212 0.5404,2.02344 2.0234,2.02344 1.4827,0 2.6953,-1.21441 2.6953,-2.69727 0,-1.31556 -0.7026,-1.95505 -1.58,-1.99414 z m 31.1816,0.13672 c 0.4633,-0.12285 1.1514,0.66124 1.6367,1.92578 1.1514,3.00052 0.1695,3.52921 -1.5097,0.8125 -0.6173,-0.99885 -0.7568,-2.1806 -0.3106,-2.62695 0.056,-0.0558 0.1174,-0.0938 0.1836,-0.11133 z m -55.5586,10.19532 c 0.9316,1.55521 1.8751,3.11494 2.8125,4.67187 -2.2089,-0.68994 -4.9123,-1.52753 -6.6713,0.0322 1.2657,-1.55148 2.5748,-2.49502 3.8588,-4.70409 z m -120.2793,3.49023 c 0.3831,0.0269 0.7846,0.12381 1.2031,0.29687 1.5673,0.64808 7.0639,1.66455 12.2149,2.25977 8.54,0.98691 9.4123,1.48027 9.8887,5.5957 0.3622,3.1286 -1.129,6.39374 -4.8594,10.64258 -6.5813,7.49565 -14.2815,8.33505 -20.0567,2.1875 -5.7922,-6.16539 -4.1375,-21.38555 1.6094,-20.98242 z m 162.584,3.44922 c -6.5661,0.0628 -16.0585,4.2573 -17.291,8.14062 -1.507,4.74817 -0.3003,5.26519 5.373,2.30664 6.2622,-3.26609 9.1966,-3.2531 13.9219,0.0566 4.7033,3.29437 4.8759,9.4556 0.3789,13.52539 -1.8732,1.69515 -3.4062,4.11344 -3.4062,5.37305 0,3.60688 4.3757,2.68716 10.0878,-2.11914 4.1469,-3.4895 5.2383,-5.74806 5.2383,-10.83789 0,-7.82593 -4.9848,-14.73234 -11.6992,-16.20703 -0.786,-0.17263 -1.6655,-0.24725 -2.6035,-0.23828 z m -162.7871,7.85351 c -0.9364,0 -1.7031,1.14794 -1.7031,2.55274 0,1.40483 0.7667,2.55469 1.7031,2.55469 0.9366,0 1.7012,-1.14986 1.7012,-2.55469 0,-1.4048 -0.7646,-2.55274 -1.7012,-2.55274 z m 5.959,1.70118 c -2.6592,0 -3.3773,2.01531 -1.418,3.9746 1.9594,1.9593 3.9727,1.23912 3.9727,-1.41992 0,-1.40478 -1.1499,-2.55468 -2.5547,-2.55468 z m -260.168,3.9082 c 1.1648,0.038 2.4373,0.31462 3.9434,0.6543 6.0472,1.36393 10.416,4.42512 10.416,7.29882 0,3.12398 -2.3113,2.82802 -5.918,-0.75781 -3.7145,-3.69315 -9.9243,-3.23526 -12.4453,2.89453 -4.6162,10.28262 4.4153,19.50226 -0.8242,15.54102 -10.9673,-8.29173 -4.0482,-19.43176 -0.6895,-23.02735 1.9324,-2.06855 3.5762,-2.66682 5.5176,-2.60351 z m 343.4453,1.20117 c 6.2605,0 7.5855,0.60161 8.4512,3.83203 2.0648,7.70422 1.1463,17.02265 -1.9063,19.33985 -3.478,2.6402 -12.076,3.02493 -15.75,0.70507 -4.3089,-2.72094 -4.8171,-13.80679 -0.9062,-19.77539 2.1595,-3.29574 4.1457,-4.10156 10.1113,-4.10156 z m 13.9727,4.05859 c 0.2035,-0.009 0.426,0.0545 0.6601,0.19922 0.9365,0.57881 1.7032,1.77303 1.7032,2.6543 0,0.88127 -0.7667,1.60156 -1.7032,1.60156 -0.9366,0 -1.7031,-1.19424 -1.7031,-2.65429 0,-1.09521 0.4323,-1.77378 1.043,-1.80079 z m -19.6778,1.12696 c -1.4826,0.0199 -3.5,2.2024 -3.5,4.27929 0,1.34954 0.6831,2.45508 1.5196,2.45508 1.7261,0 4.0781,-5.18735 2.8906,-6.375 -0.2537,-0.25373 -0.568,-0.36396 -0.9102,-0.35937 z m 6.8164,1.625 c -2.2992,0 -3.8926,3.10465 -2.6367,5.13672 h 0.01 c 0.5883,0.95178 1.7826,1.28885 2.6543,0.75 2.0624,-1.27824 2.0485,-5.88672 -0.024,-5.88672 z m 48.375,1.79297 c 4.0475,6.71363 8.0517,13.42343 11.9668,20.11718 -0.7247,0.86062 -1.6072,1.72815 -2.6777,2.62891 -7.3759,6.2064 -11.7891,5.76455 -11.7891,-1.18164 0,-2.51491 -0.8515,-3.09755 -3.5097,-2.40234 -4.6417,1.21378 -5.8166,-2.26584 -3.3203,-9.83008 1.9079,-5.78109 5.4325,-8.96849 9.33,-9.33203 z m -105.1211,0.59961 c 0.4565,0.004 0.9178,0.0523 1.3829,0.14843 2.2983,0.47531 6.1458,1.27576 8.5488,1.77735 5.1485,1.07466 10.029,10.90352 8.2754,16.66601 -2.2084,7.25717 -9.2403,12.66849 -9.2403,7.11133 0,-1.40481 -1.1478,-2.55273 -2.5527,-2.55273 -1.4047,0 -2.5547,1.14792 -2.5547,2.55273 0,1.40482 -0.5749,2.49382 -1.2773,2.41992 -3.3012,-0.3475 -8.3125,-2.70703 -8.3125,-2.70703 1.7545,-1.58993 0.1169,-5.15328 -2.1953,-3.85937 -1.2523,0.70076 -0.8555,-1.76312 -1.6035,-3.78516 -2.9429,-7.95518 2.683,-17.83569 9.5292,-17.77148 z m -283.5585,3.88867 c 0.4568,-0.0407 0.8209,0.3972 1.1855,1.34765 0.4414,1.15 0.206,2.68663 -0.5234,3.41602 -0.9643,0.96447 -1.5454,0.75705 -2.1289,-0.76367 -0.4413,-1.15 -0.206,-2.68858 0.5234,-3.41797 0.3617,-0.36164 0.6692,-0.55763 0.9434,-0.58203 z m 384.4472,5.98242 c -1.0132,-0.0217 -1.6738,1.14212 -1.6738,3.0625 0,2.19471 0.8628,3.40057 2.1289,2.97851 1.1706,-0.39022 2.1289,-1.72981 2.1289,-2.97851 0,-1.24873 -0.9583,-2.59027 -2.1289,-2.98047 -0.1583,-0.0528 -0.3103,-0.0789 -0.4551,-0.082 z m -94.4746,0.50781 c -0.9366,0 -1.9487,1.72481 -2.248,3.83203 -0.3745,2.63622 0.3275,3.83008 2.248,3.83008 1.9204,0 2.6205,-1.19386 2.2461,-3.83008 -0.2991,-2.10722 -1.3095,-3.83203 -2.2461,-3.83203 z m 102.1856,0.41406 c -0.9382,0.0703 -1.8865,1.05303 -2.2715,2.90235 -0.3213,1.5427 0.616,2.64258 2.2519,2.64258 1.7538,0 2.5894,-1.11465 2.2305,-2.97852 -0.3456,-1.7946 -1.2728,-2.63667 -2.2109,-2.56641 z m -111.5664,0.88672 c -0.9262,0.0904 -1.6875,0.99892 -1.6875,2.81446 0,2.09158 1.1,3.54687 2.6796,3.54687 1.5856,0 2.4531,-1.15763 2.127,-2.83789 -0.4659,-2.40293 -1.9284,-3.63968 -3.1191,-3.52344 z m 75.5742,2.48438 c 0.6032,-0.0669 0.9286,2.49959 0.8945,7.2832 -0.037,5.1509 -0.6466,10.84186 -1.3535,12.64649 -1.1915,3.04176 -1.3677,3.06356 -2.4317,0.29101 -1.2869,-3.35395 0.2479,-15.83231 2.4297,-19.74805 0.1678,-0.30106 0.3218,-0.45721 0.461,-0.47265 z m -20.2149,17.5 c 8.5907,0 11.0563,4.91823 12.8574,25.65234 0.5207,5.99462 1.1539,11.65317 1.6993,15.62696 -8.0019,0.008 -16.0526,0.006 -24.1563,-0.01 0.1189,-3.10693 0,-7.57316 -0.3672,-13.5293 -1.3474,-22.0253 0.705,-27.74023 9.9668,-27.74023 z m 48.8438,12.33398 c 8.2533,-0.007 11.9383,7.57489 13.2129,25.97852 0.072,1.04603 0.1492,1.86041 0.2265,2.71094 -7.2202,0.0765 -14.6286,0.13566 -22.2539,0.17578 0.02,-2.68989 -0.018,-6.14463 -0.018,-10.55274 0,-6.90502 -3.7866,-17.25543 5.0079,-17.85351 1.3718,-0.3013 2.6451,-0.45799 3.8242,-0.45899 z m -89.0332,2.99024 c 8.5958,0 11.7997,4.20474 13.1386,17.23828 0.3356,3.26658 0.7498,6.44013 1.1016,8.66406 -11.3103,-0.0381 -22.1832,-0.0955 -33.1387,-0.1543 1.1592,-0.4361 1.9911,-3.69694 2.0137,-9.27539 0.037,-9.29719 7.392,-16.47265 16.8848,-16.47265 z m -40.6504,6.14453 c 1.023,7.39179 2.1873,13.79248 3.1894,16.41797 0.4544,1.19064 1.0543,2.26911 1.67,3.09765 -1.8786,-0.011 -3.9438,-0.0202 -5.7969,-0.0312 l -7.4453,-0.10742 z m 134.6894,29.56055 c 18.8423,-0.0688 34.7334,0.2784 44.0332,1.52148 -4.0743,11.64998 -20.4905,27.84194 -31.0351,34.05273 -20.9149,11.48416 -61.4151,5.90751 -87.5332,6.72461 -40.9728,-3.18447 -54.0497,-6.53114 -62.9434,-16.10742 -6.8424,-7.3675 -12.3673,-18.28092 -11.3359,-22.39062 l 0.7715,-3.06836 19.5742,0.64843 c 31.2761,0.93441 87.0158,-1.22952 128.4687,-1.38085 z m -135.7695,7.90039 c -4.3367,0 -6.6084,8.41835 -3.5801,13.26757 1.0217,1.63323 2.2529,2.15244 3.918,1.64258 1.3354,-0.40895 2.4457,-0.81133 2.4687,-0.89453 0.022,-0.0834 0.7489,-2.22407 1.6153,-4.75781 1.3932,-4.07417 1.3336,-4.8753 -0.5274,-6.93164 -1.1573,-1.27894 -2.91,-2.32617 -3.8945,-2.32617 z m 14.5996,5.96484 c -1.7779,0.10788 -3.7049,2.66408 -4.6269,7.59766 -0.7658,4.0984 -0.5999,4.52148 1.7793,4.52148 4.1931,0 6.7904,-1.98426 6.5839,-5.0293 -0.3293,-4.85767 -1.9584,-7.19772 -3.7363,-7.08984 z m 15.4414,5.09766 c -0.091,-0.0102 -0.1825,-0.01 -0.2754,0.002 -0.4457,0.0554 -0.9202,0.35853 -1.5449,0.87695 -2.2767,1.88953 -2.5912,8.63142 -0.5,10.72266 1.837,1.8367 2.7859,1.82328 4.2598,-0.0605 2.3765,-3.03745 2.5169,-6.93024 0.3476,-9.60937 -1.0115,-1.24913 -1.6466,-1.86017 -2.2871,-1.93164 z m 13.7578,4.23632 c -2.8166,0.26052 -4.5871,4.44005 -2.9629,9.86133 1.3738,4.58574 1.4419,4.62793 4.7325,2.98633 4.45,-2.22 5.4768,-7.33933 2.1816,-10.88086 -1.1671,-1.25428 -2.3276,-1.86935 -3.375,-1.9668 -0.1964,-0.0183 -0.3884,-0.0174 -0.5762,0 z m -211.5371,96.81836 c 3.3372,0 -3.5562,11.52011 -12.0586,20.15235 -12.4023,12.15618 -33.4612,15.23482 -51.9179,18.83984 -16.1417,3.29073 -47.3402,2.47255 -63.8926,-1.72461 0,-0.60616 0.7293,-1.10156 1.6211,-1.10156 2.3741,0 5.6113,-4.01485 5.6113,-6.95899 0,-1.40272 -1.3563,-4.07327 -3.0156,-5.93359 -2.8924,-3.24333 -3.0876,-3.29085 -4.752,-1.13867 -0.9545,1.23455 -2.1072,5.21356 -2.5605,8.8418 -0.7498,6.00094 -1.0551,6.52862 -3.3848,5.8457 -1.4085,-0.41329 -3.6675,-0.0842 -5.8222,-0.47656 -5.058,-1.00651 -4.3644,0.82196 -1.6973,-3.55664 1.8389,-1.66421 3.9322,-7.15894 3.0625,-10.19141 -1.2459,-4.34397 -1.9728,-5.16169 -5.543,-6.23828 -2.3723,-0.71546 -2.7475,-0.15316 -4.0293,6.02148 -1.0239,4.92679 -1.051,7.17361 -0.098,8.12696 0.7248,0.72478 2.5234,3.06727 2.5234,3.59765 -0.5841,2.89378 -15.9558,-4.58014 -18.3848,-5.86523 -8.1295,-3.94496 -18.5289,-15.65947 -21.5156,-24.98828 0.6903,-0.69015 4.8677,-0.76047 10.5742,-0.17774 5.1888,0.52985 10.1125,0.84407 10.9414,0.69922 1.9578,-0.34205 1.9008,0.4561 -0.3769,5.25586 -1.086,2.28872 -1.7252,6.19611 -1.5078,9.22461 0.3406,4.74406 0.658,5.22193 3.2715,4.93359 5.1415,-0.56736 10.8652,-10.44051 8.5546,-14.75781 -0.769,-1.43463 -1.0872,-2.91857 -0.7089,-3.29687 0.7861,-0.78617 17.2889,-0.50499 23.6191,0.40234 49.6507,0.37505 78.9309,0.3885 116.0859,-3.30273 5.0338,-0.75425 11.462,-1.77148 15.4004,-2.23243 z m 85.1914,15.26953 c 4.6939,0 15.2829,5.24372 15.7539,7.80079 8.2222,18.18565 -53.6597,6.88556 -55.5175,7.31835 -3.1752,-0.64204 -2.5421,-4.49506 1.4921,-9.08984 4.2773,-4.87146 10.3898,-6.36174 15.3926,-3.75195 4.7253,2.46493 15.8982,2.29699 17.7735,-0.26758 0.809,-1.10643 3.1034,-2.00977 5.1054,-2.00977 z m -48.7754,32.10352 c 0.8754,-0.0132 1.6431,0.035 2.2579,0.12305 29.8067,5.64398 68.9082,-2.20641 82.4824,3.20312 7.196,6.33096 8.0188,8.75639 5.4824,16.10156 -0.3188,2.46077 -7.5221,3.60907 -35.7012,5.03711 -16.4891,0.78608 -75.2067,5.35306 -72.7109,-7.68554 0.6867,-13.58015 12.0619,-16.68654 18.1894,-16.7793 z m 99.0469,32.55859 c 2.0172,-0.0174 3.8538,0.0531 5.2266,0.22461 5.5332,0.69123 7.3062,1.55573 10.7617,5.24219 5.2268,5.57617 14.523,18.36369 15.043,20.69336 0.4679,2.09639 -10.0931,3.60395 -15.3672,2.19336 -39.2259,2.42488 -91.1181,6.71483 -161.8438,-0.91406 -1.315,-4.83927 8.1753,-11.71449 8.1973,-16.6543 4.0095,-8.52664 6.3141,-10.40856 9.2051,-7.51758 0.7729,0.77297 15.8092,1.24672 40.9297,1.29102 43.838,0.0772 56.9032,-0.55805 77.5429,-3.77344 3.0753,-0.47909 6.9428,-0.75614 10.3047,-0.78516 z" fill="#00B894" transform="translate(-8.4273765,65.654272) matrix(0.565755,0,0,0.565755,1226.3066,377.21212) translate(4946.0726,-1138.2098)"/>
    <path d="m -2094.6486,-545.16946 c -0.8839,0.0674 -1.7684,0.6896 -3.281,1.91434 -2.4003,1.94374 -3.9329,2.30313 -5.7249,1.34412 -3.9496,-2.11378 -5.3978,0.0354 -5.1049,7.57591 0.2991,7.70139 -0.9792,13.26465 -3.0503,13.26465 -0.7229,0 -1.2014,1.39238 -1.0635,3.09554 0.5165,6.37553 -0.1112,9.29112 -2.0004,9.29112 -3.0618,0 -12.5403,11.66031 -14.3282,17.62735 -3.7496,12.51534 -1.2964,21.22215 8.5129,30.23579 7.6159,6.99816 11.2652,8.56704 19.9672,8.56704 12.7187,0 24.9637,-9.32543 27.2487,-20.75005 0.4643,-2.32167 1.4991,-3.83422 2.3625,-3.45305 0.8455,0.37338 4.014,1.41118 7.0418,2.30807 l 5.5078,1.62921 -0.4618,16.4507 c -0.5311,18.90277 0.1853,23.47017 3.5934,22.81375 3.005,-0.57872 4.0686,-5.69051 4.2723,-20.5464 0.3274,-23.87113 9.2655,-35.232 19.9354,-25.34357 5.5115,5.10795 6.3811,8.95141 6.3811,28.23998 0,12.86253 0.4688,17.8783 1.7198,18.38313 5.3954,2.17706 6.5398,-1.80529 6.5303,-22.74132 0,-16.68984 -0.2905,-18.79254 -3.1767,-23.56047 -4.6598,-7.69733 -9.8228,-10.57388 -18.9989,-10.58547 -5.7077,-0.007 -8.6607,0.72962 -11.3004,2.8059 -1.9656,1.5462 -6.54,3.1531 -10.1645,3.57526 -5.7048,0.66446 -6.9871,0.33373 -9.5581,-2.46649 -4.3287,-4.71412 -14.2332,-25.08799 -14.2332,-29.27634 0,-1.97331 -0.7274,-4.74408 -1.6111,-6.15938 -1.3025,-2.08551 -1.0376,-3.53227 1.3803,-7.63023 1.6408,-2.78101 2.9824,-6.49377 2.9824,-8.25024 0,-3.57204 -3.2618,-6.9835 -5.4082,-5.65706 -0.7688,0.47513 -2.876,-0.1052 -4.6841,-1.2898 -1.5165,-0.99368 -2.4014,-1.47944 -3.2857,-1.41199 z m 47.2071,3.78794 c -2.7789,-0.10334 -4.2654,0.52949 -6.354,2.28094 -2.6937,2.25871 -4.654,2.91084 -0.2941,3.71556 3.8696,1.09053 3.8573,1.311 -0.3441,6.3042 -2.4218,2.42596 -2.9965,5.38255 -4.2558,8.2629 -6.0436,-0.58468 -7.4482,4.20607 -0.9049,5.81522 0.6192,0.15224 0.5923,3.0033 1.1014,5.40023 1.0818,5.09503 3.832,8.57716 9.5671,12.11966 6.643,4.10333 15.7419,3.41896 22.1756,-1.66998 7.1894,-5.68669 11.5266,-13.10439 11.5358,-19.72271 0,-4.46003 -0.9053,-6.24051 -5.3537,-10.47234 -6.4958,-6.17929 -15.2012,-10.49589 -23.5967,-11.69876 -1.2837,-0.18398 -2.3502,-0.30044 -3.2766,-0.33492 z m -46.492,4.17718 c 2.6408,-0.10636 3.9565,2.0188 1.9596,4.81527 -0.931,1.30389 -2.2956,3.76378 -3.032,5.46698 -0.7366,1.7032 -1.5075,3.08901 -1.7153,3.07742 -1.6185,-0.0901 -3.8865,-2.73013 -5.1095,-5.94667 -1.872,-4.92415 -1.8567,-6.82809 0.044,-5.65254 0.8293,0.51243 3.0116,0.13161 4.847,-0.8508 1.1013,-0.58943 2.1248,-0.87421 3.005,-0.90966 z m 52.5427,5.8969 c 3.9785,-0.37922 8.9768,1.07744 13.4305,6.15007 3.5112,3.99895 3.9565,7.65064 2.1635,12.31636 -2.0914,6.94622 -9.0205,11.91803 -16.8927,11.2851 -10.9981,-0.88426 -10.4802,-12.82881 -10.4802,-12.82881 4.3509,0.009 2.918,-4.01996 1.8312,-5.10628 -2.3129,-2.31295 0.8463,-7.93692 5.933,-10.56737 1.3586,-0.70253 2.6881,-1.12267 4.0142,-1.24907 z m -2.8014,7.77053 c -1.6445,0.0514 -3.0688,2.19314 -2.2085,4.43512 0.4554,1.18637 1.4856,2.15873 2.2901,2.15873 2.2293,0 3.3185,-4.11251 1.5568,-5.87429 -0.5211,-0.5211 -1.0902,-0.7367 -1.6384,-0.71956 z m 8.6123,1.60206 c -1.1145,1.11477 -1.6528,3.0011 -1.1947,4.19528 0.4583,1.19417 1.7186,2.1723 2.7968,2.1723 2.7207,0 4.0155,-4.06725 2.0501,-6.43545 -1.0709,-1.12285 -2.3365,-0.98172 -3.6522,0.0679 z m -58.9871,10.69862 c 0.4796,0.10149 1.1421,0.83363 2.3081,2.26281 3.6736,4.5025 10.9883,24.14281 10.9836,29.48907 0,6.58474 -4.6393,13.21093 -11.3773,16.26966 -8.749,3.9716 -13.7213,3.17453 -22.6418,-3.62957 -11.3497,-8.65688 -11.5043,-23.33898 -0.3622,-34.82025 4.9427,-5.09293 6.1367,-5.64348 12.2148,-5.64348 5.1405,0 6.9599,-0.56959 7.6755,-2.40763 0.4252,-1.09213 0.7199,-1.6222 1.1993,-1.52061 z m 60.5973,0.1761 c -4.153,2.29136 -5.9697,1.85398 -8.8118,1.14556 -3.8353,-0.95586 -5.614,-0.94344 -4.841,2.13584 0.4998,3.82033 8.2242,3.29273 10.5182,2.73115 7.218,-1.26953 7.0959,-5.99663 3.1346,-6.01255 z m -65.4941,6.5852 c -0.371,-0.0524 -0.8237,0.49346 -1.6338,1.59303 -1.1625,1.57851 -2.1996,1.90057 -3.1225,0.97752 -0.9232,-0.92305 -2.5915,0.3748 -5.0416,3.91015 -4.1639,6.00845 -4.5701,8.86892 -1.6021,11.33221 1.1354,0.94235 2.0636,3.20607 2.0636,5.0325 0,2.85657 -0.3709,3.12186 -2.661,1.89624 -3.5524,-1.90118 -4.2178,-1.80092 -4.2178,0.62908 0,1.12904 1.2375,2.82437 2.7516,3.76985 1.6722,1.0444 2.7515,3.2094 2.7515,5.51675 0,4.39668 2.0963,5.09121 3.1543,1.04542 0.396,-1.51397 1.3943,-2.75159 2.2222,-2.75159 0.8279,0 1.507,1.23762 1.507,2.75159 0,3.57785 2.7966,3.56921 3.7336,-0.0139 0.3981,-1.52222 2.215,-3.14059 4.0369,-3.59788 7.109,-1.78423 7.0418,-8.71853 -0.1321,-13.41852 -4.4046,-2.88601 -4.006,-8.02833 0.7105,-9.14178 3.2437,-0.76572 3.2484,-0.78702 0.4662,-2.78327 -1.5421,-1.10645 -3.2704,-3.25155 -3.8423,-4.76549 -0.4843,-1.28216 -0.7739,-1.92989 -1.1449,-1.98223 z m 1.7967,22.03532 c 0.5974,0.066 1.3762,0.57504 2.3262,1.52515 1.1822,1.18218 1.2084,2.10898 0.1043,3.43948 -2.3399,2.81931 -3.9283,2.16352 -3.9283,-1.62019 0,-2.33858 0.5024,-3.45427 1.4981,-3.34444 z m -6.3584,0.53857 c 0.083,0.0308 0.1715,0.16173 0.2669,0.39824 0.3819,0.94622 0.3819,2.49325 0,3.4395 -0.3818,0.9462 -0.6923,0.17262 -0.6923,-1.71975 0,-1.41943 0.1761,-2.21077 0.4254,-2.11799 z" fill="#00B894" transform="translate(-8.4273765,65.654272) matrix(0.565755,0,0,0.565755,1226.3066,377.21212)"/>
</svg>