<?xml version="1.0" ?><svg height="167.17004mm" viewBox="0 0 170.58351 167.17004" width="170.58351mm" xmlns="http://www.w3.org/2000/svg">
    <path color="#000" d="m 13546.89,3285.354 -67.669,29.4375 9.969,39.3751 -64.771,-23.2558 c -50.321,80.2963 -70.814,74.2728 -112.797,152.0295 -50.478,93.4903 49.69,119.8297 91.774,72.0988 24.855,-28.1895 91.368,-192.111 91.368,-192.111 0,0 50.8,224.2983 145.377,172.3176 90.972,-49.9996 -93.251,-249.8917 -93.251,-249.8917 z m 161.543,401.2876 -19.572,57.0401 73.623,-41.6162 c 0.446,-0.09 -27.15,0.3335 -54.051,-15.4239 z m -451.774,47.731 c 0,0 -20.28,15.1499 -53.545,13.781 l 77.783,39.243 z" fill="#FFFFFF" overflow="visible" paint-order="fill markers stroke" transform="translate(-26.205875,35.136635) matrix(0.26458333,0,0,0.26458333,-3456.4746,-875.4724)"/>
    <path d="m 13313.931,3807.6425 c -1.27,-1.2695 -17.754,-8.1231 -31.24,-12.9873 -35.641,-12.5481 -71.846,-29.5013 -104.138,-40.245 -13.035,-4.0751 -15.666,-6.1474 -15.666,-12.3438 0,-4.1856 1.046,-6.3761 3.953,-8.281 7.133,-4.6728 12.145,-4.4813 23.035,0.8792 19.006,9.3563 39.346,8.4661 54.616,-2.3896 6.425,-4.569 8.973,-8.4719 20.038,-30.699 21.941,-40.9701 35.284,-82.0844 57.826,-121.9612 0.278,-0.4709 -2.186,-2.3053 -5.475,-4.0766 -9.593,-5.1661 -19.681,-16.5792 -23.519,-26.6094 -7.638,-19.9567 -2.413,-44.2163 16.834,-78.1695 33.295,-49.0432 65.572,-91.099 104.4,-135.0789 l 7.844,-8.7255 9.847,0.8926 c 7.501,0.6803 14.336,3.1101 28.694,10.2001 10.364,5.1189 19.261,8.8926 19.768,8.3861 1.477,-1.4767 -4.889,-20.7098 -8.281,-25.0227 -3.514,-4.467 -2.551,-10.5481 1.671,-10.5481 1.466,0 4.2,-1.3475 6.07,-2.9947 18.877,-11.5901 40.576,-18.3956 60.207,-30.3833 4.031,-2.5017 7.837,-4.5485 8.454,-4.5485 2.988,0 49.496,66.2599 60.765,86.5713 13.649,22.4362 28.123,45.7538 41.041,67.0306 14.11,23.1658 20.733,36.8807 24.137,49.9811 3.354,12.8916 3.23,17.2352 -0.872,31.0121 -5.281,14.0502 -11.724,22.5303 -24.173,31.1686 l -3.693,2.4797 4.105,8.5069 c 2.257,4.6785 4.103,8.9275 4.103,9.4416 24.59,40.4615 37.875,121.4207 78.652,130.104 7.976,2.8852 11.778,3.4174 17.314,2.4239 9.033,-1.6211 22.318,-6.3816 35.856,-12.848 14.033,-6.7018 21.443,-5.2383 21.508,4.2463 0.02,2.9434 -2.752,5.0304 -14.403,10.8408 -7.935,3.9576 -19.874,10.2942 -26.531,14.0815 -6.657,3.7871 -12.332,6.8857 -12.611,6.8857 -0.28,0 -5.222,2.8399 -10.983,6.3109 -5.762,3.4709 -21.234,11.7033 -34.384,18.2943 -13.15,6.5909 -33.808,17.1078 -45.905,23.3709 -12.097,6.263 -23.145,11.3873 -24.553,11.3873 -3.253,0 -6.925,-4.7772 -6.993,-9.1009 -0.03,-2.4086 2.8,-4.8847 10.254,-8.9506 12.225,-6.6675 31.647,-20.8251 37.715,-27.4933 2.375,-2.6119 8.173,-10.4109 12.883,-17.3311 8.523,-12.5241 8.552,-12.6085 6.153,-18.3498 -22.079,-44.111 -44.998,-92.7747 -60.258,-135.0976 -1.473,-4.2502 -3.248,-7.8634 -3.945,-8.0294 -12.341,1.0965 -25.76,3.936 -36.837,1.7487 -28.897,-5.8643 -42.244,-19.2986 -62.264,-62.6692 -11.413,-24.7288 -13.998,-31.345 -25.503,-65.2587 -13.573,-40.0044 -15.507,-45.2229 -16.759,-45.2229 -0.509,0 -2.308,5.3799 -3.998,11.9551 -3.234,12.5749 -11.942,34.9656 -24.847,63.8977 -4.248,9.523 -12.53,28.4451 -18.402,42.0491 -11.24,26.0267 -21.271,45.7629 -27.414,53.9169 -17.904,23.7814 -44.482,37.0655 -71.373,35.6766 l -10.627,-0.5488 -9.342,20.6123 c -13.669,31.4244 -28.422,64.3581 -41.773,91.1814 -14.782,29.6707 -16.491,34.0211 -16.491,42.0268 0,4.9115 1.198,11.4508 2.66,14.5317 5.063,10.669 30.497,31.2483 47.771,38.6534 7.038,3.0162 9.523,6.3792 7.881,10.6599 -0.523,1.3603 -1.061,2.4734 -1.195,2.4734 -0.137,0 -2.599,0.6741 -5.472,1.4982 -2.873,0.8239 -5.634,1.0886 -6.135,0.5877 z m -56.815,-45.4006 c -1.891,-3.0589 -3.617,-7.9214 -3.836,-10.8052 -0.467,-6.1274 -1.664,-6.4176 -7.963,-1.9321 -2.558,1.8215 -6.938,3.7692 -9.736,4.3286 -2.797,0.5596 -5.085,1.5456 -5.085,2.1916 0,1.1966 28.361,12.9294 29.457,12.1861 0.33,-0.2242 -0.946,-2.9104 -2.837,-5.969 z m 476.319,-55.9234 c 0,-0.7424 -0.939,-1.3498 -2.087,-1.3498 -1.147,0 -4.855,-1.484 -8.239,-3.298 -3.385,-1.8139 -6.802,-3.2978 -7.593,-3.2978 -0.793,0 -1.861,3.1535 -2.377,7.008 -0.512,3.8544 -1.46,8.7676 -2.106,10.918 -1.132,3.7731 -0.762,3.6903 10.614,-2.3604 6.483,-3.4487 11.788,-6.8775 11.788,-7.62 z m -361.715,-138.9924 c 23.121,-10.828 34.306,-25.9863 57.219,-77.5492 19.669,-44.2576 28.68,-64.3808 34.204,-76.3682 2.637,-5.725 5.256,-12.4034 5.82,-14.8408 0.562,-2.4372 3.226,-11.3345 5.919,-19.7714 2.693,-8.4369 4.543,-16.2284 4.112,-17.3142 -1.358,-3.4257 -41.751,-23.0147 -45.105,-21.8743 -1.673,0.5689 -7.123,6.2955 -12.112,12.7256 -4.988,6.43 -10.702,13.6427 -12.697,16.0286 -8.935,10.6834 -21.515,26.1443 -24.469,30.0734 -1.78,2.3645 -6.455,8.2673 -10.393,13.1175 -6.394,7.8788 -6.834,8.9458 -4.123,10.0135 4.907,1.931 44.291,1.5929 60.133,-0.5166 8.029,-1.0686 15.118,-1.422 15.754,-0.785 5.037,5.0379 -22.235,10.9733 -50.421,10.9733 -16.003,0 -20.352,-0.5575 -25.727,-3.2979 -3.557,-1.8139 -6.584,-3.298 -6.725,-3.298 -0.143,0 -7.255,9.461 -15.809,21.0243 -29.567,39.9733 -40.631,63.3789 -41.149,87.0544 -0.317,14.422 6.184,25.7015 21.565,37.4282 5.278,4.0238 6.667,4.297 18.651,3.6678 10.475,-0.55 15.311,-1.7885 25.353,-6.491 z m -55.306,-15.5711 c -1.363,-0.8631 -1.852,-2.6252 -1.202,-4.3218 1.041,-2.7113 1.273,-2.7085 4.324,0.054 4.618,4.1795 2.123,7.5892 -3.122,4.2677 z m 64.754,-5.8618 c -0.562,-1.4667 -0.524,-3.1649 0.09,-3.7739 1.395,-1.3951 6.833,1.9237 6.394,3.9028 -0.592,2.6795 -5.438,2.5829 -6.478,-0.1287 z m -3.792,-21.3406 c -1.379,-1.6623 -1.417,-2.6447 -0.13,-3.4401 1.913,-1.1823 6.602,1.8862 6.602,4.3196 0,2.2787 -4.34,1.6887 -6.472,-0.8795 z m 19.174,-20.1526 c -2.598,-2.5967 -1.055,-5.7686 2.554,-5.256 2.04,0.2897 3.709,1.6299 3.709,2.9778 0,2.6199 -4.342,4.1995 -6.263,2.2782 z m -8.302,-6.6528 c -1.898,-1.8975 -1.201,-3.8477 1.373,-3.8477 1.362,0 2.474,1.1131 2.474,2.4735 0,2.575 -1.95,3.2715 -3.847,1.3742 z m -41.224,-19.7878 c -2.219,-2.2182 -1.011,-5.4966 2.022,-5.4966 3.133,0 5.756,3.7645 3.909,5.6103 -1.313,1.3147 -4.565,1.2524 -5.931,-0.1142 z m 71.805,-7.4549 c -3.093,-3.0936 -2.374,-4.9201 1.711,-4.34 2.042,0.2897 3.711,1.5779 3.711,2.863 0,3.1394 -2.954,3.9443 -5.422,1.477 z m -30.581,-9.0348 c -2.118,-2.1184 -1.105,-5.3955 1.373,-4.4441 1.362,0.5221 2.474,1.983 2.474,3.2462 0,2.4245 -1.999,3.0468 -3.847,1.1979 z m 21.986,-5.4967 c 0,-3.7377 1.71,-4.2262 4.617,-1.3192 2.907,2.9071 2.417,4.617 -1.318,4.617 -2.2,0 -3.299,-1.0991 -3.299,-3.2978 z m 220.071,79.0345 c 5.457,-2.0416 12.776,-6.7502 18.204,-11.7108 10.995,-10.0495 15.054,-20.82 13.127,-34.8444 -1.887,-13.7395 -7.732,-24.8007 -42.187,-79.8427 -7.822,-12.495 -15.524,-25.5264 -17.116,-28.9587 -2.662,-5.7373 -7.629,-10.3076 -9.342,-8.5955 -1.591,1.5913 -32.822,4.2167 -50.497,4.2451 -15.488,0.025 -19.427,-0.473 -21.973,-2.7774 -1.708,-1.5445 -3.104,-3.344 -3.104,-3.9994 0,-0.6551 16.141,-1.6404 35.866,-2.1894 43.558,-1.2126 40.232,-0.7722 38.063,-5.0401 -1.889,-3.715 -16.43,-25.9928 -17.849,-27.3456 -0.475,-0.4535 -4.325,-6.0187 -8.553,-12.3674 -4.231,-6.3484 -10.345,-15.2484 -13.589,-19.7776 -3.244,-4.5292 -6.145,-8.9744 -6.446,-9.8782 -0.301,-0.9037 -7.578,1.8242 -16.173,6.0619 -8.593,4.238 -17.809,8.2328 -20.48,8.8774 -2.67,0.6446 -8.453,2.971 -12.851,5.1693 -9.269,4.6333 -9.464,2.036 2.279,30.1595 4.736,11.3368 11.046,27.6617 14.023,36.2776 2.978,8.6159 7.268,20.8595 9.536,27.2082 2.265,6.3484 7.614,21.5602 11.883,33.8039 16.82,48.2365 36.908,83.0456 52.515,91.0083 17.251,8.8002 29.816,10.0708 44.664,4.516 z m -20.023,-14.094 c -1.032,-2.6916 2.42,-5.9914 4.758,-4.5468 2.213,1.3673 1.466,5.1551 -1.22,6.1858 -1.48,0.5688 -2.952,-0.113 -3.538,-1.639 z m 26.143,-34.6778 c 0.321,-1.6593 1.938,-3.278 3.598,-3.5977 2.179,-0.4194 2.856,0.2573 2.436,2.4356 -0.319,1.6592 -1.939,3.2783 -3.597,3.5976 -2.178,0.4196 -2.856,-0.2572 -2.437,-2.4355 z m -50.335,-19.5191 c -1.147,-2.9805 4.758,-6.7348 6.402,-4.0732 1.549,2.5045 -0.372,6.5213 -3.116,6.5213 -1.292,0 -2.772,-1.1016 -3.286,-2.4481 z m -31.863,-18.3303 c -0.897,-2.3397 1.746,-5.5107 4.651,-5.5799 1.596,-0.038 3.205,5.0045 2.146,6.7196 -1.498,2.4247 -5.7,1.7203 -6.797,-1.1397 z m 17.091,-16.5639 c -2.266,-2.2653 -1.09,-5.7645 1.751,-5.217 1.589,0.3058 2.887,1.5968 2.887,2.8693 0,2.6034 -2.909,4.0761 -4.638,2.3477 z m 5.994,-23.0117 c -1.165,-3.0401 2.822,-6.2087 5.033,-3.998 1.8,1.7997 0.148,6.6379 -2.266,6.6379 -0.964,0 -2.208,-1.188 -2.767,-2.6399 z m -38.046,-1.75 c -3.252,-1.3125 -2.403,-5.1729 1.403,-6.381 4.215,-1.3377 6.916,0.9897 5.483,4.7237 -1.056,2.7493 -3.01,3.2204 -6.886,1.6573 z m 48.172,-18.7932 c -0.651,-1.0561 -0.164,-2.568 1.087,-3.3597 3.486,-2.2077 5.041,-1.7678 4.455,1.2593 -0.664,3.4217 -3.953,4.6689 -5.542,2.1004 z m -195.343,-103.3205 c -1.36,-0.5066 -6.368,-2.3566 -11.13,-4.1108 -4.761,-1.7544 -8.657,-3.9024 -8.657,-4.7733 0,-2.8129 7.057,-4.3068 12.266,-2.5963 17.075,5.607 19.063,6.608 19.063,9.5878 0,2.2857 -1.161,3.0405 -4.533,2.9437 -2.495,-0.07 -5.648,-0.5445 -7.009,-1.0511 z m 141.815,-59.795 c -2.026,-1.2802 -0.994,-3.0636 5.708,-9.8686 8.904,-9.0383 12.457,-10.3581 12.374,-4.5958 -0.07,4.2951 -2.181,7.2784 -8.824,12.406 -5.359,4.1354 -5.813,4.2364 -9.258,2.0584 z m -117.566,-14.2137 c -3.361,-6.0453 -6.11,-11.6216 -6.11,-12.3918 0,-0.7699 1.984,-1.898 4.408,-2.5065 3.597,-0.9028 5.113,-0.2264 8.238,3.6787 6.153,7.6879 7.413,20.7013 2.102,21.724 -1.642,0.3163 -4.672,-3.3657 -8.638,-10.5044 z m 63.234,-8.8544 c -1.371,-0.8475 -1.713,-2.9981 -0.997,-6.2655 1.521,-6.9194 10.461,-20.5692 12.906,-19.7072 2.958,1.0417 2.113,9.2456 -1.844,17.9356 -3.601,7.9038 -6.517,10.2306 -10.065,8.0371 z" fill="#00B894" transform="translate(-26.205875,35.136635) matrix(0.26458333,0,0,0.26458333,-3456.4746,-875.4724)"/>
</svg>