<?xml version="1.0" ?><svg height="100.24339mm" viewBox="0 0 69.670502 100.24339" width="69.670502mm" xmlns="http://www.w3.org/2000/svg">
    <path d="m 20.535951,-81.104112 c -1.841764,-2.035349 -3.189896,-5.836356 -2.608421,-7.35318 0.3116,-0.810398 -0.223097,-1.529911 -1.497939,-2.017401 -2.974366,-1.13716 -5.030364,-3.842279 -5.112543,-6.726327 -0.05689,-2.12276 -0.496782,-2.666818 -2.4889616,-3.10437 -3.110892,-0.68324 -5.176388,-4.55718 -4.759219,-8.92658 0.279982,-2.94074 0.118189,-3.26169 -1.647746,-3.26169 -1.077621,0 -2.88840298,-1.00342 -4.025424,-2.22983 -1.973236,-2.12927 -2.274067,-3.09407 -2.45864,-7.88276 -0.06382,-1.64298 -0.588407,-2.16574 -2.384663,-2.37456 -1.701456,-0.19783 -2.741137,-1.12554 -3.9767944,-3.54807 -1.87272,-3.67043 -2.145744,-5.87542 -0.727471,-5.87542 0.653547,0 0.621294,-0.39072 -0.103003,-1.26407 -0.577056,-0.69524 -1.91762,-1.26408 -2.978176,-1.26408 -4.888177,0 -8.583057,-9.5203 -4.82055,-12.42129 1.772867,-1.36678 0.828622,-2.21384 -2.536983,-2.27609 -2.363814,-0.0436 -3.004715,-0.58881 -5.016474,-4.26366 -2.392256,-4.37142 -2.955422,-7.52933 -1.502357,-8.4272 0.463286,-0.28644 0.842513,-0.88087 0.842513,-1.32096 0,-0.44003 -0.730012,-0.34402 -1.623086,0.2135 -4.185338,2.61373 -8.967338,-3.45762 -8.586206,-10.90125 0.115015,-2.25511 2.461763,-2.56879 3.151955,-0.42131 1.465686,4.56255 2.40112,6.26424 3.8744,7.05283 2.41247,1.29119 3.05083,0.0215 0.831109,-1.65303 -1.545961,-1.16604 -1.7027,-1.64083 -0.830474,-2.51601 0.872834,-0.87518 0.695219,-1.36634 -0.941758,-2.60304 -2.152703,-1.62655 -1.812026,-3.44094 0.645318,-3.44094 2.554685,0 5.754687,4.40852 7.742449,10.66443 1.219835,3.83994 2.286715,5.88698 2.938357,5.63707 1.492858,-0.57288 4.596156,3.77503 4.596156,6.4397 0,3.71151 1.758342,7.68582 4.475454,10.11303 1.8360764,1.6409 2.6754134,3.29557 3.0344264,5.98457 0.328639,2.46255 0.922126,3.74469 1.76022,3.79974 0.695246,0.0455 1.729238,0.14095 2.297457,0.21155 1.838589,0.22823 3.99510202,4.55458 4.44952402,8.92727 0.307181,2.9566 0.78816798,4.18977 1.56998498,4.02348 3.013551,-0.64107 6.851914,3.39796 6.851914,7.21022 0,0.99444 1.3354846,2.53819 3.3498106,3.87129 4.512733,2.98605 6.187625,5.72157 5.757201,9.4037 -0.253445,2.17269 -0.05686,2.87008 0.727498,2.56948 0.590947,-0.2269 2.251816,0.57762 3.689826,1.787843 2.515394,2.116754 2.603236,2.411979 2.303727,7.759959 -0.171185,3.057607 -0.484716,6.119193 -0.696383,6.803438 -0.246592,0.79725 0.296333,1.348007 1.511829,1.533384 2.126192,0.324425 2.376488,1.040144 0.884767,2.531687 -1.468967,1.469039 -4.420394,1.238789 -5.962624,-0.465053 z m -2.113544,-16.521321 c -0.216138,-0.397108 -0.686382,-0.247886 -1.044126,0.331568 -0.360256,0.582168 -1.444201,0.846233 -2.423212,0.590195 -2.112275,-0.552399 -2.191915,-0.319304 -0.477203,1.395413 1.163585,1.163767 1.447377,1.148598 2.815722,-0.15049 0.836825,-0.794533 1.344983,-1.769576 1.128819,-2.166686 z m -9.2081346,-8.126477 c -0.497417,-1.90161 1.3083106,-2.32375 2.9440176,-0.68823 1.590199,1.59046 1.957414,0.34857 0.508794,-1.72027 -0.889899,-1.27052 -1.63949,-1.62706 -2.298091,-1.09324 -0.5378446,0.43573 -1.5946176,0.92783 -2.3486536,1.09355 -1.046003,0.23 -1.202134,0.75074 -0.659209,2.19753 0.881063,2.34657 2.458641,2.52594 1.853142,0.21066 z m -6.551057,-15.00943 c -0.50501,-1.31179 -0.615606,-1.30376 -1.405017,0.10239 -0.47087898,0.83929 -0.60930898,2.16656 -0.30781598,2.94953 0.50561798,1.31179 0.61560598,1.30377 1.40501698,-0.10239 0.471514,-0.83928 0.609917,-2.16656 0.307816,-2.94953 z m -7.203334,-11.00736 c -0.0254,-1.15227 -0.225002,-1.10999 -1.264074,0.26425 -1.610439,2.12914 -1.593373,3.50104 0.02514,2.15645 0.695245,-0.57705 1.252087,-1.6663 1.2369,-2.4207 z m -9.0684624,-12.91075 c -0.705352,-0.70523 -1.017587,-0.72817 -1.017587,-0.075 0,0.51834 -0.243337,1.63704 -0.54102,2.48606 -0.515117,1.47018 -0.46646,1.47378 1.017587,0.0749 1.21666,-1.14715 1.335485,-1.69146 0.54102,-2.48599 z m -6.542219,-15.69936 -0.62066,-2.25643 -0.651642,2.92867 c -0.746416,3.35283 -0.09922,5.14371 1.090903,3.01753 0.441167,-0.78834 0.522685,-2.44876 0.181399,-3.68977 z m 49.065021,79.346498 c -0.309034,-0.309004 -0.561975,-1.362292 -0.561975,-2.340686 0,-0.978329 -0.612246,-2.653607 -1.361282,-3.722762 -1.70471,-2.433973 -0.501914,-4.092755 1.998398,-2.754921 2.454804,1.313879 3.951023,5.420979 2.774686,7.618256 -0.968375,1.809777 -1.863196,2.186597 -2.849827,1.200113 z" fill="#00B894" transform="translate(37.497593,179.9109)"/>
</svg>