<?xml version="1.0" ?><svg height="383.57977mm" viewBox="0 0 243.15822 383.57977" width="243.15822mm" xmlns="http://www.w3.org/2000/svg">
    <path d="m -3933.3926,9672.9023 c -29.3953,0.1883 -66.3941,4.5148 -84.541,11.4766 -30.5635,11.7252 -94.4043,51.2988 -94.4043,51.2988 0,0 5.9177,20.6668 4.2891,32.5391 -1.6286,11.8719 -45.9262,40.6965 -58.6836,52.3242 -12.7574,11.6277 -18.2949,24.6713 -4.2891,35.9082 14.0058,11.2369 62.2668,-14.0706 79.6387,-27.4082 0,0 28.9352,34.4928 37.3496,43.7266 8.4144,9.2337 71.8195,30.5348 82.0254,38.1562 10.2058,7.6214 18.0788,13.9241 32.9531,3.2246 14.8747,-10.6994 9.3365,-37.815 16.2852,-78.1211 6.9486,-40.306 -14.5489,-93.2168 -14.5489,-93.2168 0,0 29.0444,-17.1482 40.6075,-28.3847 11.563,-11.2369 15.6327,-25.2091 4.5039,-35.6153 -4.521,-4.2276 -21.073,-6.037 -41.1856,-5.9082 z m 363.8047,159.1934 c -12.7359,0.322 -33.0254,75.3691 -33.0254,75.3691 l -26.4375,15.0489 c 0,0 -34.309,-63.2201 -44.6777,-50.4688 -10.3688,12.7514 5.5371,78.2676 5.5371,78.2676 0,0 -18.5306,9.1416 -46.7051,48.666 -28.1749,39.5245 -17.2278,108.8635 -16.2988,134.4025 0.9294,25.539 -2.6785,116.516 -20.5391,140.162 -17.8601,23.646 -33.4941,31.805 -33.4941,31.805 0,0 -14.4256,-21.535 -22.6231,-39.514 -8.197,-17.979 -55.0996,-68.301 -55.0996,-68.301 l 14.0215,-150.689 c 0,0 19.9765,-51.8866 -4.0723,-83.4963 -24.0491,-31.6097 -69.9746,-7.8653 -69.9746,-7.8653 0,0 -24.2119,-4.4825 -57.0742,-5.4179 -32.8622,-0.9359 -70.5,25.7421 -70.5,25.7421 0,0 -31.8642,-3.5163 -39.9531,-3.7128 -8.0884,-0.1958 -24.3755,4.6919 -36.3184,26.9199 -15.9178,39.5953 11.4134,64.2713 30.3047,79.7573 18.8916,15.489 29.3161,-4.201 41.4219,0.147 12.1058,4.349 48.1299,103.16 50.8984,120.553 2.7689,17.392 6.135,36.494 -2.0625,45.679 -8.197,9.185 -26.3964,52.768 -26.3964,52.768 0,0 -14.1154,2.442 -31.5958,8.061 -17.4803,5.619 -45.9251,20.421 -53.5253,18.71 -7.5999,-1.709 -30.4011,-0.731 -42.3985,4.204 -11.9973,4.934 -36.8206,17.568 -58.1972,61.529 -21.3771,43.961 -19.2573,116.32 -10.7344,167.033 8.5232,50.712 -2.551,186.288 6.9492,174.709 9.5002,-11.578 61.942,-122.823 65.1992,-160.639 3.2572,-37.813 1.627,-63.463 1.627,-63.463 0,0 48.6953,49.736 75.9472,63.709 27.2516,13.972 195.3374,52.796 301.3047,52.307 105.967,-0.488 193.2799,-84.329 203.4317,-124 10.1514,-39.671 7.0061,-213.21 2.2832,-235.098 -4.7229,-21.886 -3.1504,-82.125 -3.1504,-82.125 0,0 69.8683,31.756 100.9746,29.606 31.1059,-2.149 40.3878,-48.075 24.9707,-72.356 -15.4175,-24.281 -40.836,-111.171 -57.7188,-154.0659 -16.8831,-42.8958 -49.8339,-56.5274 -49.8339,-56.5274 0,0 4.2333,-34.8338 3.039,-52.373 -1.1943,-17.5393 -2.7676,-45.3643 -15.5039,-45.043 z" fill="#FFFFFF" paint-order="markers stroke fill" transform="translate(20.789116,26.973487) translate(4545.185,-2113.8728) matrix(0.26458333,0,0,0.26458333,-3417.4795,-450.03122)"/>
    <path d="m -4333.8203,9588.4297 c -5.3428,-0.4324 -8.5059,3.6855 -6.1641,13.3203 2.5913,10.6492 9.6222,92.4531 9.5371,110.8262 -0.038,5.7445 1.7821,13.868 4.0196,18.0527 2.4041,4.4912 7.8065,6.6334 13.2441,6.9063 6.4233,56.2699 24.3869,181.2161 41.0762,296.6758 -6.1081,1.753 -6.9726,6.014 -7.6582,17.293 -0.4502,7.399 -2.7255,15.365 -5.0567,17.697 -4.9753,4.976 -5.7104,27.664 -0.9882,30.582 1.7862,1.106 2.4366,6.254 1.4453,11.438 -1.2246,6.411 0.1375,10.173 4.2617,11.756 3.3309,1.277 6.0605,4.641 6.0605,7.468 0,6.611 7.4265,11.563 17.8164,14.057 6.9298,48.328 12.4326,87.413 14.2539,103.203 2.1789,18.895 9.1972,68.296 18.4219,131.506 -8.3478,14.884 -14.9996,31.279 -18.914,47.803 -5.2944,22.354 -5.7022,37.03 -2.9122,104.834 4.9274,119.781 4.2136,200.437 -1.9062,214.941 -4.122,9.767 -4.218,13.327 -0.4785,17.832 6.7098,8.084 9.4631,7.233 26.5722,-8.223 15.159,-13.694 30.1221,-41.117 42.4083,-74.462 6.3632,42.87 12.9399,87.15 17.6386,119.291 -11.7951,31.825 -22.7969,87.483 -22.7969,116.9 0,23.19 0.5673,24.825 9.377,27.035 5.1583,1.296 11.6762,1.473 14.4844,0.395 6.0676,-2.329 9.9297,-19.344 9.9297,-43.772 0,-4.597 0.3827,-9.528 0.9511,-14.609 1.3985,15.566 26.5434,4.805 24.9356,-13.787 -0.4675,-5.409 -3.5461,-25.746 -7.4824,-50.951 10.4439,-26.728 24.9338,-55.619 43.0703,-84.913 25.5896,-41.336 39.2106,-70.119 47.5898,-100.554 4.2977,-15.617 8.2707,-22.933 12.9531,-23.848 6.1191,-1.198 6.5024,0.746 4.0899,20.648 -3.2168,26.542 -9.6372,268.59 -7.2266,272.577 2.3985,3.973 20.8036,3.398 27.5391,-0.86 4.8408,-3.059 5.6328,-23.123 5.6328,-142.849 v -139.291 l 13.1367,2.619 c 7.2284,1.439 29.4713,3.659 49.4356,4.931 19.9612,1.276 37.2237,3.251 38.3613,4.389 1.135,1.137 -6.4054,28.161 -16.7617,60.049 -16.8178,51.788 -26.1887,101.446 -19.0703,101.062 1.3598,-0.07 6.6988,-2.547 11.8593,-5.498 15.4727,-8.844 17.4522,-6.333 3.92,4.963 -19.2881,16.101 -8.7266,26.003 14.7714,13.85 10.0804,-5.21 12.0944,-4.921 29.7637,4.244 18.0575,9.368 19.3998,9.54 28.4238,3.625 11.8092,-7.737 12.0208,-15.595 0.6875,-25.689 -8.5322,-7.6 -8.5848,-8.025 -1.8769,-14.733 10.4719,-10.472 24.12,-8.712 33.7812,4.356 14.0758,19.038 32.5603,11.48 27.5645,-11.264 -1.6297,-7.421 -0.781,-13.691 2.3613,-17.481 4.1446,-4.989 3.5855,-6.974 -3.6035,-12.796 -4.6798,-3.791 -10.8466,-5.992 -13.7051,-4.897 -5.5377,2.126 -16.9648,-16.045 -16.9648,-26.984 0,-3.415 4.3276,-20.395 9.6133,-37.729 9.1483,-29.995 10.1357,-31.517 20.4179,-31.517 9.8979,0 10.9737,1.34 12.7989,15.957 1.0953,8.775 3.7683,75.087 5.9336,147.359 2.1671,72.274 4.9185,141.541 6.1132,153.93 3.5861,37.24 12.4989,74.796 18.8848,79.592 5.0396,3.781 25.8851,3.046 30.8457,-1.088 0.7465,-0.625 -1.3179,-13.474 -4.5898,-28.555 -8.6563,-39.911 -9.582,-52.556 -13.6817,-186.986 -2.0466,-67.108 -4.76,-136.428 -6.0273,-154.047 l -2.3067,-32.037 18.2891,-4.684 c 10.0577,-2.579 31.3698,-10.377 47.3633,-17.328 15.9938,-6.953 29.7301,-11.549 30.5234,-10.211 0.7945,1.337 3.4999,12.569 6.0117,24.959 2.5115,12.389 12.2477,46.177 21.6387,75.084 16.8178,51.773 17.0999,53.476 18.8203,113.73 1.2756,44.614 -0.036,75.843 -4.8437,115.375 -5.3273,43.79 -5.689,55.304 -1.8653,59.911 6.5186,7.856 25.2352,7.305 29.5352,-0.868 7.9094,-15.019 16.5753,-118.034 14.582,-173.259 -2.1804,-60.317 -3.5989,-66.294 -40.6621,-171.203 l -19.8965,-56.317 24.5352,-32.158 c 13.4955,-17.686 26.5369,-37.89 28.9785,-44.893 8.3486,-23.954 16.5348,-108.907 14.5664,-151.215 l -1.8867,-40.546 17.3906,-8.092 c 22.7199,-10.57 51.8975,-40.57 66.9688,-68.854 6.6168,-12.42 19.7084,-29.572 29.0937,-38.115 23.1625,-21.079 22.9653,-31.739 -1.4394,-77.221 -10.1757,-18.965 -25.5959,-55.6 -34.2676,-81.412 -8.6733,-25.809 -19.851,-56.2216 -24.8438,-67.5798 -8.5511,-19.4533 -37.6159,-52.5567 -46.1425,-52.5567 -4.7619,0 -4.9199,1.7748 1.7812,-20.3086 3.0758,-10.137 5.5918,-24.0138 5.5918,-30.8339 0,-18.9245 -14.0905,-53.181 -23.0449,-56.0254 -0.9627,-0.3062 -1.9522,-0.4644 -2.961,-0.4844 -15.1317,-0.3062 -34.7988,30.5173 -39.8203,63.9922 -2.0742,13.8304 -4.7477,18.9042 -11.623,22.0351 -4.9119,2.2383 -9.4774,3.3738 -10.1426,2.5215 -0.6618,-0.8511 -7.265,-14.5027 -14.668,-30.3359 -13.0669,-27.9406 -23.4854,-39.0853 -31.6367,-33.836 -16.8521,10.8484 -23.0429,60.8104 -11.0176,88.9063 6.358,14.8509 6.3328,15.0771 -2.2324,20.5801 -15.2848,9.8203 -31.7047,29.8187 -42.5644,51.8375 -10.4663,21.223 -15.2213,53.264 -13.7715,92.772 0.974,26.572 0.1702,67.532 -1.3594,69.06 -0.8137,0.818 -9.546,2.245 -19.3984,3.18 -21.0595,4.917 -21.8488,-5.046 -31.8418,-22.195 -7.6566,-13.141 -20.5835,-44.031 -28.7246,-68.641 -12.8058,-38.712 -14.1421,-45.789 -9.9102,-52.494 16.8866,-26.747 6.4369,-58.8734 -25.0156,-76.9082 -23.3087,-13.3697 -40.6554,-14.6561 -59.7246,-4.4356 -9.8041,5.2559 -15.066,6.1337 -20.0391,3.3516 -3.9984,-2.236 -16.148,-9.5194 -32.0508,-8.0586 -14.7609,1.3538 -37.3464,2.8621 -50.1953,3.3496 -19.5277,0.7401 -26.6059,9.2874 -35.3691,17.6836 -10.4546,10.0161 -10.5312,10.0268 -27.3867,3.9649 -15.8079,-5.6856 -17.8131,-5.6453 -30.9942,0.6113 -18.0888,8.5822 -29.4843,24.7512 -31.7773,45.0824 -2.4858,22.041 4.7403,41.459 22.6601,60.896 l 15.0918,16.375 -2.4355,45.887 c -2.6207,49.325 -4.9468,62.785 -10.8496,62.785 -4.9047,0 -36.7176,-23.435 -62.8594,-46.303 -14.9265,-13.056 -20.7805,-20.878 -20.9219,-27.906 -0.102,-5.371 -2.0425,-10.382 -4.3125,-11.139 -2.5119,-0.837 -3.3692,-7.009 -2.1953,-15.771 2.5633,-19.087 -4.0445,-37.842 -18.0469,-51.256 -4.9277,-4.72 -8.7705,-7.409 -13.2519,-8.928 -2.679,-15.443 -5.5377,-30.965 -8.6192,-46.3474 -27.1888,-135.7266 -40.9341,-259.9487 -40.9746,-275.8242 0.344,-0.5794 0.5714,-1.2721 0.9297,-1.8145 6.6962,-10.137 6.6286,-11.2206 -3.1426,-50.2129 -5.4928,-21.9205 -12.2831,-44.2952 -15.0879,-49.7207 -7.0064,-13.5484 -17.4783,-21.626 -24.3476,-22.1816 z m 419.791,71.7285 c -6.3549,-0.1776 -14.878,0.2034 -27.3633,0.9453 -22.9452,1.3637 -33.8769,1.7314 -58.4794,8.6559 -7.2322,2.0356 -34.909,-9.2705 -65.6163,6.3578 -20.4438,10.4047 -19.0092,23.0393 -32.8222,33.3095 -6.0941,3.7543 -7.1273,4.332 -12.377,8.4952 -15.179,12.0404 -16.9694,14.7904 -12.1992,18.7461 3.0708,2.5511 6.5273,13.9468 6.5273,18.7109 0,8.4144 -4.9222,14.1787 -43.0761,50.4883 -29.9173,28.4738 -34.7744,46.6783 -14.8692,55.748 17.1678,7.8221 41.2996,3.3407 62.8516,-11.6757 13.6127,-9.4836 16.1511,-6.4284 10.4511,12.5898 -2.5277,8.4714 -3.7257,16.2923 -2.6425,17.3789 4.6272,4.6235 13.8887,-3.3887 15.9746,-13.8184 3.5138,-17.5706 9.5197,-9.0337 6.7285,9.5684 -2.0633,13.7632 -1.4601,16.5625 3.5742,16.5625 4.001,0 6.0586,-3.2726 6.0586,-9.6426 v -9.6406 l 10.3242,7.2598 c 17.7559,12.4857 34.0621,19.6006 53.2715,23.2441 13.7212,2.6015 21.7694,6.9497 30.9688,16.7266 11.9614,12.7132 21.8183,17.164 21.8183,9.8574 0,-1.9208 3.6367,-4.0335 8.0742,-4.6953 4.4406,-0.6588 11.2788,-5.5127 15.1993,-10.7832 10.8733,-14.6253 22.2862,-61.5364 24.3808,-100.2305 1.0337,-19.0987 -1.5469,-33.4707 -1.5469,-33.4707 30.8591,-0.8916 16.6638,-16.7845 -4.9101,-17.7441 0,0 -2.8895,-4.689 -6.1758,-11.0469 -5.7687,-11.156 -5.6653,-11.7561 2.9648,-17.25 4.9191,-3.131 15.2827,-11.8776 23.0254,-19.4356 11.1614,-10.8944 14.0801,-16.5613 14.0801,-27.373 0,-11.2974 -2.0948,-14.9674 -12.2031,-21.3711 -6.8334,-4.3272 -11.4004,-6.1724 -21.9922,-6.4668 z m -13.3613,16.0508 c 18.3677,0.3976 31.1749,4.3154 34.1094,11.9629 3.0017,7.8168 -13.4893,29.5505 -28.1876,37.1504 -10.5702,5.4652 -11.8232,5.3073 -22,-2.8164 -7.9086,-6.3156 -10.2707,-10.8721 -8.8398,-17.0645 1.8206,-7.8811 0.7326,-8.4294 -16.2852,-8.3164 -35.3075,0.2608 -59.672,8.8776 -83.5136,29.5312 -24.3224,21.0709 -35.4624,41.9229 -39.8047,74.5157 -2.8808,21.6109 -9.0712,28.1246 -40.1328,42.2207 -18.392,8.349 -33.3455,9.5577 -39.6875,3.2168 -7.4502,-7.451 5.0048,-25.3181 23.0312,-33.0449 8.8218,-3.7815 22.394,-14.2412 30.1602,-23.2403 13.3149,-15.428 23.4645,-20.2975 17.793,-37.3613 -7.3044,-21.9742 -6.1042,-15.4543 17.2929,-30.4609 48.3319,-30.9986 115.6549,-47.1672 156.0645,-46.293 z m -81.8867,54.5762 c 27.3275,0 39.6832,4.3781 55.7168,19.7578 14.8108,14.208 15.9394,16.5742 15.9394,16.5742 -23.1965,4.3782 -27.154,18.939 4.5801,17.668 0,0 2.675,6.32 3.7109,20.8632 0.6531,9.1684 -0.3869,20.1512 -2.3144,24.4024 -11.8696,26.205 -13.5217,28.4087 -19.7481,26.4316 -4.5554,-1.4445 -7.0869,0.645 -8.7344,7.2168 -4.083,16.2675 -20.3107,16.6621 -25.9335,0.6289 -2.2251,-6.3413 -13.9161,1.2204 -13.9161,9.0039 0,8.8154 -0.048,8.8223 -23.0097,1.752 -21.3313,-6.5703 -43.059,-29.1877 -46.7051,-48.625 -8.9034,-47.4652 21.5371,-95.6738 60.4141,-95.6738 z m 14.9843,20.6464 c -8.8497,0 -13.0496,12.1189 -5.4297,19.0762 6.33,5.7797 12.6562,3.2011 12.8868,-8.1269 0.17,-8.4201 -1.7216,-10.9493 -7.4571,-10.9493 z m -29.7461,4.5547 c -1.9519,-0.3082 -3.8249,0.9536 -4.9707,2.3282 -3.6582,4.3884 -4.6033,13.923 -0.834,17.2539 4.3858,3.8747 10.0917,2.5029 13.4649,-1.836 1.6758,-2.1554 1.8036,-7.6951 0.3281,-13.5019 -0.8951,-2.5102 -6.0039,-4.2149 -6.0039,-4.2149 v 0 c 0,0 -1.3325,0.074 -1.9825,-0.029 z m 46.5547,10.2168 c -1.62,0.2749 -3.3995,1.7816 -4.7558,4.7324 -0.9774,2.1268 -1.6764,5.905 -7.3203,6.459 -11.9358,1.1713 -3.4991,9.948 1.5156,9.5274 9.3906,-0.7881 13.493,-5.7725 14.6367,-12.8047 0.7034,-4.3249 -0.5999,-7.0894 -2.5313,-7.7871 -0.4829,-0.1744 -1.0049,-0.2186 -1.5449,-0.127 z m -60.375,14.1641 c -3.5531,0.6984 -3.1266,6.4507 2.4395,12.0176 6.9925,6.9913 17.3195,5.3314 22.0722,-3.5528 3.9171,-7.3183 3.5267,-7.8538 -4.2304,-5.8242 -4.6972,1.2272 -11.6446,0.5717 -15.4434,-1.4609 -2.0258,-1.0844 -3.6534,-1.4125 -4.8379,-1.1797 z m 83.5977,11.166 c -1.4192,-0.1776 -2.6934,0.087 -3.5664,0.9609 -0.9903,0.9914 -0.7357,4.5779 0.5644,7.9707 2.9877,7.7859 12.8242,8.1071 12.8242,0.42 0,-4.2596 -5.565,-8.8138 -9.8222,-9.3516 z m -14.8379,1.1445 c -7.3058,1.2174 -3.9512,18.2949 5.3223,20.086 7.2306,1.4842 8.2671,-1.97 3.0585,-10.1973 -2.5613,-4.0479 -4.4097,-9.8667 -8.3808,-9.8887 z m -11.6445,4.2325 c -0.3069,0.015 -0.6059,0.2307 -0.9161,0.4902 -2.5455,2.1237 -4.6976,6.9349 -5.6406,10.6894 -1.1803,4.7052 -0.8842,10.5927 0.6582,13.0879 2.1234,3.4352 3.8039,3.2278 6.9238,-0.8613 6.0507,-5.1928 -0.1503,-23.3613 -0.1503,-23.3613 v 0 c 0,0 -0.5747,-0.1158 -0.873,-0.045 z m -13.8497,2.2128 c -6.441,-0.1398 -14.6732,20.0423 -12.3339,28.0918 l 1.0898,3.75 c 2.2991,7.9008 8.4671,3.5885 10.1172,-4.621 1.4033,-6.9801 8.0767,-27.0673 1.1269,-27.2208 z m -63.3359,21.75 c -5.9225,0.5674 -0.2304,10.68 17.5957,28.5586 21.7591,21.8257 23.5596,22.8105 26.711,14.5957 3.9617,-10.3196 -4.5123,-23.6945 -21.2129,-33.4824 -11.8039,-6.9169 -19.5403,-10.012 -23.0938,-9.6719 z m 488.3418,25.2227 c 0.81,0.1784 1.5701,1.0782 2.4043,2.5684 4.0997,7.3236 4.843,40.3386 1.0469,46.4765 -1.3943,2.256 -4.5414,3.9698 -7,3.8008 -16.2471,-1.0756 -17.6316,-10.1916 -5.7461,-37.8203 4.1956,-9.7538 6.5576,-14.2515 8.4629,-14.959 0.2858,-0.106 0.562,-0.1259 0.832,-0.066 z m -367.3945,42.6348 c 0.4225,-0.053 0.6771,0.2085 0.7051,0.8593 0.072,1.6532 -2.4514,7.9886 -5.6016,14.0782 -6.2408,12.0661 -9.291,13.9923 -9.291,5.8652 0,-4.7977 11.2285,-20.4444 14.1875,-20.8027 z m 268.5937,-7.2559 c 0.5012,-0.1814 1.1531,0.1401 1.9668,1.0566 3.857,4.3416 17.3159,39.9555 21.9121,57.9786 4.1723,16.3797 14.443,19.2918 20.5723,5.8379 l 4.4375,-9.7403 9.8184,9.4082 c 11.6481,11.1595 53.4322,32.0625 64.0878,32.0625 6.7098,0 7.2269,-1.6631 4.9512,-15.8828 l -2.539,-15.8867 9.0664,5.998 c 10.8472,7.1774 18.0138,25.0242 38.9882,97.1054 l 15.8418,54.438 -11.6191,3.031 c -28.9999,7.563 -52.7854,23.054 -65.8066,42.849 -9.8117,14.918 -14.0358,18.649 -17.6993,15.61 -19.415,-16.116 -58.974,-99.647 -63.5586,-134.217 -2.9079,-21.915 -7.3763,-25.026 -10.1308,-7.053 -5.9048,38.517 14.9967,100.699 49.5351,147.36 l 13.8926,18.773 -2.0996,33.783 0.8445,32.217 c -32.9602,16.415 -65.3643,20.185 -91.1726,20.967 -23.7483,0.681 -46.8481,-0.343 -51.3359,-2.275 -8.0425,-3.467 -7.831,-4.274 14.4414,-54.598 14.4083,-32.555 23.789,-59.526 25.8613,-74.375 1.79,-12.815 5.0662,-34.28 7.2851,-47.703 6.4268,-38.9 10.551,-67.17 14.7266,-100.9006 2.377,-19.1902 6.029,-33.0903 9.375,-35.6661 4.741,-3.6529 4.2596,-7.7616 -3.5859,-30.5019 -7.6789,-22.2599 -11.5645,-48.3949 -8.0567,-49.6758 z m 79.6465,36.6035 c 3.7142,-0.6085 11.6754,3.98 15.836,10.2559 3.0806,4.6462 4.9699,8.3012 4.2031,8.1035 -5.2819,-1.2983 -22.0391,-13.3726 -22.0391,-15.8867 0,-1.4884 0.7622,-2.2693 2,-2.4727 z m -18.1172,7.4414 c 3.7221,0 31.1289,18.2971 31.1289,20.7832 0,2.3879 -0.09,2.3535 -15.7129,-5.8965 -13.5613,-7.1633 -21.5622,-14.8867 -15.416,-14.8867 z m -290.8086,28.0899 c 9.6964,0.2381 20.8164,5.6536 33.0821,16.1543 15.3683,13.1558 15.6281,13.7774 13.4511,32.1643 -1.2211,10.313 -3.5541,20.085 -5.1816,21.715 -1.6309,1.628 -7.8807,-6.426 -13.8867,-17.897 -6.0087,-11.4738 -18.2553,-26.9923 -27.2207,-34.4882 -13.9692,-11.6768 -15.3221,-13.9867 -9.4571,-16.1543 2.9061,-1.0745 5.9807,-1.5731 9.2129,-1.4941 z m -82.3828,4.4551 c 12.2604,0.1549 23.9793,2.35 32.6348,6.8261 24.7328,12.7858 37.3223,25.1825 48.6933,47.9374 14.9095,29.83 14.7941,38.412 -0.5859,43.774 -6.5802,2.294 -13.1305,2.884 -14.5527,1.308 -1.4242,-1.574 -6.2558,-13.846 -10.7383,-27.269 -9.1147,-27.29 -26.1486,-61.241 -26.375,-52.5629 -0.079,3.0981 4.8983,23.1289 11.0684,44.5139 6.1655,21.383 10.3965,40.207 9.3964,41.826 -2.1543,3.482 -46.9199,14.395 -65.7129,16.02 -14.5224,1.693 -19.8911,5.911 -5.0742,13.326 8.7942,4.402 17.5721,-2.51 42.8946,-6.621 16.5365,-2.689 31.1453,-3.809 32.4628,-2.491 1.3183,1.317 3.1502,30.075 4.0762,63.91 1.5689,57.292 1.1999,61.774 -5.3633,65.27 -3.8774,2.065 -18.2023,4.943 -31.8339,6.397 -26.0939,4.629 -24.7464,3.001 -27.2813,-21.737 -2.9949,-29.247 -12.6213,-58.446 -30.127,-91.42 -11.3109,-21.299 -12.4618,-25.854 -9.0175,-35.73 5.6791,-16.294 1.6218,-59.982 -7.2344,-77.8811 -6.8682,-13.8784 -6.9915,-15.5996 -1.459,-20.2851 11.7577,-9.9598 33.6953,-15.3702 54.1289,-15.1113 z m 299.0449,16.3027 c 0.6645,0.064 0,1.9051 -1.3535,5.5879 -1.5254,4.1306 -3.6985,12.0913 -4.8301,17.6914 -1.1293,5.5975 -6.0023,12.7685 -10.8261,15.9275 -4.8223,3.162 -13.2337,13.362 -18.6875,22.668 -16.5827,28.296 -14.3545,18.947 3.9082,-16.418 9.473,-18.337 20.8205,-36.4991 25.2187,-40.3592 3.9213,-3.4408 5.9055,-5.1607 6.5703,-5.0976 z m -405.7617,7.4687 c 17.1421,0 28.7206,11.2178 32.5274,31.5191 1.2374,6.591 1.7031,17.89 1.039,25.102 -1.1739,12.709 -1.5072,12.964 -10.5996,8.211 -5.1613,-2.698 -18.5401,-4.552 -29.7324,-4.121 -19.3678,0.749 -20.6187,0.223 -25.8477,-10.813 -11.0989,-23.44 6.1895,-49.8981 32.6133,-49.8981 z m 524.1778,28.8811 c -1.4922,0 -2.9241,0.463 -4.1543,1.484 -5.4906,4.556 -6.1461,14.716 -2.7305,19.692 8.942,13.026 18.0499,4.277 18.3613,-6.092 0.2192,-7.275 -5.009,-15.122 -11.4765,-15.084 z m -28.2832,2.338 c -1.7376,0.164 -3.667,1.041 -5.6719,2.705 -5.6122,4.658 -7.4315,19.175 -2.9649,23.64 6.31,6.31 16.2696,-2.827 16.2696,-14.92 0,-6.619 -2.4132,-10.683 -5.9629,-11.355 -0.5325,-0.101 -1.0907,-0.125 -1.6699,-0.07 z m -102.9883,14.757 c 6.5352,-1.189 -2.3309,27.222 -12.6426,38.176 -5.9977,6.371 -12.7668,14.963 -15.0391,19.09 -2.2756,4.131 -4.1974,5.355 -4.25,2.723 -0.1625,-6.788 25.0838,-56.049 30.4141,-59.344 0.5767,-0.355 1.0818,-0.566 1.5176,-0.645 z m -381.2032,36.618 c 2.0671,0 3.7559,1.688 3.7559,3.752 0,2.067 -1.6888,3.757 -3.7559,3.757 -2.064,0 -3.7519,-1.69 -3.7519,-3.757 0,-2.064 1.6879,-3.752 3.7519,-3.752 z m 190.5645,5.736 v 0 0 c 2.5882,-0.174 4.0648,0.721 5.2734,2.627 1.6672,2.627 12.2168,25.374 9.9786,56.451 -1.4858,20.633 1.595,62.82 -16.4004,65.986 -4.0751,1.135 -8.2558,4.182 -12.5528,4.356 -1.6467,0 -4.1304,-22.385 -5.5156,-49.746 -1.3859,-27.358 -3.515,-54.294 -4.7305,-59.852 -1.957,-8.951 -0.585,-10.787 11.9903,-16.041 5.6587,-2.364 9.3619,-3.608 11.9531,-3.781 z m 186.3164,10.072 v 0 c 0.257,-0.14 0.4652,-0.147 0.6152,0 1.0693,1.069 0.8196,8.98 -0.5546,17.576 -1.4125,8.845 -7.3974,21.694 -13.7832,29.598 l -11.2891,13.969 2.6348,-11.264 c 3.3845,-14.469 18.521,-47.756 22.3769,-49.883 z m -366.5547,8.17 c 0.6111,-0.06 1.1784,-0.04 1.7168,0.05 2.1536,0.355 3.8512,1.899 6.0899,4.793 8.9994,11.631 33.2287,65.969 37.6972,84.535 6.2404,25.925 5.5345,72.374 -1.1836,77.949 -2.9858,2.476 -8.1658,12.754 -11.5156,22.836 -5.5979,16.856 -6.9072,18.184 -16.1621,16.385 -12.415,-2.413 -39.325,6.837 -55.2734,18.998 -7.9741,6.083 -13.1727,7.845 -15.6895,5.328 -6.6342,-6.634 -33.8217,-4.471 -51.5137,4.092 -10.159,4.918 -20.2164,13.215 -29.6074,23.445 -5.1401,-37.498 -9.3285,-66.973 -10.8652,-74.507 -1.6445,-8.063 -6.3094,-59.845 -15,-127.032 10.2425,-0.517 12.5404,1.627 19.5703,11.887 8.8082,12.857 54.9029,55.168 73.0586,67.065 16.0384,10.507 29.0533,5.817 38.9023,-14.032 7.2597,-14.625 9.0716,-25.665 10.8789,-66.289 2.1234,-47.751 2.3613,-48.83 11.7852,-53.123 3.0484,-1.39 5.2782,-2.206 7.1113,-2.377 z m 222.7481,34.215 5.8593,11.264 c 21.0539,40.474 35.6788,61.26 46.1485,65.595 10.9701,4.543 11.1288,4.976 5.7676,15.344 -9.055,17.511 -7.0226,35.346 5.6796,49.811 10.489,11.947 10.784,13.101 4.6914,18.334 -13.4146,11.513 -15.8867,11.401 -15.8867,-0.715 0,-18.328 -12.6264,-38.515 -39.4883,-63.127 l -24.8203,-22.746 5.875,-17.301 c 3.2304,-9.517 5.9369,-26.111 6.0215,-36.881 z m 355.873,2.324 c 2.722,0 5.3102,0.259 7.1055,0.729 3.5864,0.941 -0.2347,1.675 -8.4922,1.635 -8.2594,-0.04 -11.1958,-0.813 -6.5273,-1.711 2.3353,-0.445 5.1916,-0.658 7.914,-0.643 z m -20.3379,3.5 c 1.3557,0.212 -1.7507,3.097 -9.5898,8.338 -7.0171,4.695 -17.8249,16.425 -24.0196,26.074 -11.6231,18.111 -14.8374,20.569 -18.7148,14.295 -2.8864,-4.668 26.2978,-36.514 39.9199,-43.558 5.87,-3.035 9.751,-4.693 11.5508,-5.075 0.375,-0.08 0.6599,-0.104 0.8535,-0.07 z m 30.5,12.582 c 5.6164,-0.04 10.0072,0.903 11.584,2.959 7.765,10.129 13.3026,29.495 11.0273,38.565 -3.5278,14.051 -18.8065,19.732 -45.4238,16.894 -28.4655,-3.032 -39.4199,-6.575 -39.4199,-12.736 0,-6.857 21.5159,-33.209 31.2754,-38.309 8.8305,-4.614 21.597,-7.327 30.957,-7.373 z m -0.5234,25.438 h 0.01 c -6.435,0.639 -11.5968,14.859 -7.2832,21.839 1.4188,2.297 5.3827,3.638 8.8047,2.979 8.7303,-1.684 8.5392,-23.071 -0.2285,-24.76 -0.4381,-0.09 -0.8718,-0.1 -1.3008,-0.06 z m -18.4434,6.719 c -2.6649,-0.178 -6.09,1.661 -9.4863,5.753 -3.7255,4.497 -3.7006,6.789 0.1133,11.387 6.6255,7.986 12.8126,4.948 14.2265,-6.982 0.7537,-6.372 -1.4191,-9.931 -4.8457,-10.158 z m -249.1367,20.775 c 3.2183,0.06 2.9484,3.276 1.1406,14.351 -1.4101,8.622 -5.9708,23.705 -10.1347,33.512 -4.1617,9.807 -9.8347,17.832 -12.6055,17.832 -6.3923,0 -12.8086,-11.818 -12.8086,-23.594 0,-11.744 19.4404,-38.548 29.9551,-41.296 1.92,-0.502 3.3801,-0.827 4.4531,-0.805 z m 178.6484,9.5 v 0 c 4.7614,0.204 15.957,9.878 15.957,13.791 0,5.41 -13.319,16.57 -16.2617,13.629 -3.4522,-3.452 -3.185,-27.561 0.3027,-27.42 z m -304.9199,3.266 c 2.2813,0.415 5.9932,4.071 8.2754,9.078 2.1823,4.789 10.9565,16.783 19.502,26.652 13.1663,15.216 34.0507,49.865 34.0507,56.496 0,6.524 -7.7731,0.388 -9.8144,-7.75 -1.3463,-5.363 -8.1123,-17.172 -15.0371,-26.242 -17.9422,-23.509 -38.9746,-53.699 -38.9746,-55.949 0,-1.333 0.4259,-2.051 1.1172,-2.26 0.2592,-0.08 0.5549,-0.09 0.8808,-0.02 z m -3.5351,10.283 v 0 c 0.3174,0.05 0.5206,0.172 0.5879,0.373 0.7271,2.182 11.4264,19.725 23.7734,38.982 12.3496,19.26 21.9818,37.452 21.4043,40.428 -2.4605,12.682 -10.605,6.761 -21.1816,-15.399 -12.8028,-26.832 -32.4873,-55.531 -38.084,-55.531 -6.5726,0 -4.0611,9.784 9.6347,37.498 7.3546,14.882 14.916,31.115 16.8028,36.078 3.2579,8.567 2.6993,9.022 -11.1602,9.022 -14.2481,0 -14.659,-0.379 -17.2812,-15.957 -1.4756,-8.776 -6.694,-25.036 -11.5938,-36.133 -4.8998,-11.1 -8.9062,-20.652 -8.9062,-21.228 0,-3.52 31.2152,-18.89 36.0039,-18.135 z m 338.9023,3.678 c 1.5594,-0.148 3.6748,0.479 6.7559,1.65 5.1016,1.943 19.3062,3.527 31.5605,3.527 12.2566,0 22.2832,1.115 22.2832,2.473 0,1.358 -6.6665,11.108 -14.8125,21.67 -15.4904,20.076 -27.7482,30.567 -47.8867,40.978 -17.1836,8.888 -18.6133,8.151 -21.2344,-10.97 -1.991,-14.536 -0.9567,-19.026 6.7071,-29.098 4.984,-6.551 10.198,-16.454 11.5839,-22.006 1.3932,-5.588 2.4442,-7.98 5.043,-8.224 z m -387.8476,18 c 6.4747,0.249 15.5858,19.596 22.0722,47.398 4.9274,21.129 4.8167,22.074 -3.541,29.924 l -8.6289,8.107 -6.0781,-20.029 c -5.353,-17.641 -22.0237,-68.538 -24.4766,-51.938 -0.076,1.031 3.1496,12.696 7.1699,25.914 4.0207,13.22 8.4077,35.199 9.7539,48.84 2.0776,21.086 1.3719,26.123 -4.6855,33.602 l -7.1231,8.803 -5.2871,-10.713 c -3.5304,-7.158 -5.7776,-28.469 -6.7636,-64.211 l -1.4746,-53.498 h 11.3066 c 6.2203,0 13.6442,-0.897 16.5,-1.992 0.4067,-0.155 0.8242,-0.223 1.2559,-0.207 z m -56.5665,0.32 c 2.3294,0 5.0184,0.257 8.2911,0.697 15.0364,2.016 15.2623,2.271 12.3457,13.818 -8.513,33.7 -7.4554,87.288 2.2168,112.495 2.7307,7.115 -2.3243,7.676 -17.9024,1.978 l -10.1133,-3.703 0.7286,-49.676 c 0.6047,-41.183 1.9191,-51.486 7.6738,-60.263 4.7395,-7.229 5.3457,-10.056 1.9101,-8.913 -14.4132,4.807 -28.2478,58.723 -23.7675,92.627 l 2.289,17.325 -7.7265,-9.385 c -22.3189,-27.103 -19.2131,-72.924 6.6582,-98.215 6.6485,-6.5 10.4085,-8.789 17.3964,-8.785 z m 392.1485,40.916 c 6.4135,0.447 7.6457,16.375 7.6914,75.709 0.061,69.751 -7.7851,137.889 -18.2324,158.367 -13.1301,25.736 -44.1682,50.988 -79.4043,64.607 -43.2246,16.706 -63.4044,22.542 -65.6094,18.975 -1.0159,-1.647 -5.2761,-20.487 -9.4688,-41.873 -9.9091,-50.549 -10.4424,-52.02 -18.8164,-52.02 -5.184,0 -8.2676,4.306 -11.3789,15.864 -3.9416,14.631 -3.5379,25.364 2.6114,69.549 l 2.2187,15.955 h -32.3359 c -17.788,0 -32.3379,-1.005 -32.3379,-2.235 0,-1.231 2.7351,-11.651 6.0781,-23.154 7.951,-27.355 5.2368,-48.43 -11.4219,-88.678 l -13.2734,-32.072 21.1406,-19.85 c 23.8863,-22.425 39.4052,-51.944 45.9688,-87.451 3.7636,-20.361 6.1777,-24.308 26.916,-44.045 l 22.7793,-21.676 20.8476,6.059 c 15.3578,4.469 30.9113,6.592 58.8457,4.385 39.8719,-3.15 59.7862,-11.461 77.1817,-16.416 z m -459.252,32.293 c 7.9752,0 8.9629,1.682 8.9629,15.234 0,8.377 -1.8625,22.617 -4.1347,31.647 -4.9501,19.651 -1.1074,34.021 15.9843,59.828 20.8335,31.45 57.6261,50.172 106.5782,54.226 l 28.707,2.381 9.1894,22.528 c 15.9765,39.166 17.256,50.789 8.6739,78.582 -7.406,23.986 -7.9534,24.642 -19.668,23.986 -59.9339,-3.367 -89.3401,-8.002 -117.4609,-18.524 l -20.3633,-7.621 v -48.783 c 0,-26.83 -1.7475,-52.052 -3.8848,-56.045 -5.8651,-10.959 -25.3604,-9.833 -29.75,1.721 -1.8788,4.938 -2.4833,12.547 -1.3457,16.902 1.1407,4.357 0.8885,20.571 -0.5625,36.032 -2.5504,27.251 -2.8778,27.979 -10.6641,23.812 -14.5424,-7.782 -48.2789,-42.219 -56.3769,-57.549 -17.7453,-33.594 -6.3423,-91.343 26.6953,-135.181 16.0955,-21.358 46.1243,-43.176 59.4199,-43.176 z m 218.0352,11.176 c 7.2752,0.185 12.4336,1.494 12.4336,4.121 0,9.644 -19.6042,61.21 -28.2207,74.234 -5.1946,7.849 -14.3298,17.883 -20.2969,22.293 l -10.8516,8.021 -13.4902,-22.648 c -7.4192,-12.457 -13.4902,-24.011 -13.4902,-25.678 0,-1.666 4.3643,-12.564 9.6972,-24.218 7.5047,-16.385 12.999,-22.869 24.2559,-28.614 9.8287,-5.014 27.8378,-7.82 39.9629,-7.511 z m -302.0274,3.941 c 4.0513,0.132 6.6036,1.341 6.6036,3.75 0,2.115 -4.646,5.598 -10.3262,7.744 -23.2672,8.79 -40.728,33.597 -56.125,81.211 -2.3373,-17.495 -4.5192,-33.671 -6.6758,-49.578 10.7392,-15.437 23.7118,-27.745 38.6621,-35.371 10.1945,-5.203 21.1092,-7.976 27.8613,-7.756 z m 96.7364,20.566 7.0195,11.264 c 17.8662,28.67 45.376,43.842 79.2168,43.672 l 21.2441,-0.113 10.0684,20.531 c 5.5393,11.292 10.0703,21.338 10.0703,22.326 v 0.04 c 0,6.631 -53.855,-3.877 -73.9746,-14.433 -26.1211,-13.708 -53.7006,-51.103 -53.6602,-72.789 z m -105.0918,0.299 c 2.1581,-0.06 0.049,4.379 -7.2617,17.332 -16.7184,29.622 -27.8082,66.185 -35.6368,118.854 -1.768,-13.358 -3.2403,-24.435 -5.039,-37.963 13.6528,-50.777 30.1736,-89.196 44.3926,-96.805 1.6323,-0.874 2.8256,-1.396 3.5449,-1.418 z m -79.5449,66.223 c 3.4733,23.653 6.9096,47.061 10.7148,72.769 -1.4649,6.873 -2.9402,13.338 -4.3945,20.774 -4.8601,24.852 -9.5669,45.92 -10.4649,46.818 -2.5205,2.517 -6.4932,-41.6 -6.4082,-71.353 0.06,-24.769 3.843,-48.139 10.5528,-69.008 z m 46.7675,68.617 6.875,15.02 c 8.394,18.335 8.7996,39.883 1.5293,81.162 -0.9925,5.638 -2.3355,11.714 -3.6035,17.713 -2.1521,-16.117 -4.9472,-37.154 -7.8828,-59.356 0.2683,-4.902 0.5264,-11.057 0.7656,-15.117 z m -31.1406,37.258 c 3.2614,21.99 6.4981,43.837 9.7852,65.953 -2.9783,27.587 -6.4555,55.291 -9.3926,70.441 -4.0891,21.102 -8.8627,40.917 -10.6055,44.032 -4.0857,7.298 -2.0325,-82.671 2.9512,-129.284 1.8418,-17.233 4.4119,-34.307 7.2617,-51.142 z m 53.582,9.471 21.0957,19.941 c 11.6021,10.967 29.2504,24.953 39.2207,31.074 17.9645,11.032 18.1123,11.285 16.4375,28.028 -2.2703,22.689 -13.9025,51.968 -35.0546,88.226 -15.2682,26.176 -26.1107,45.501 -34.4082,61.471 -8.4299,-52.505 -17.214,-106.453 -19.6446,-122.76 -0.2079,-1.397 -0.7965,-5.805 -1.123,-8.139 5.1507,-21.976 9.0515,-44.658 10.8906,-66.765 z m 314.7344,109.607 v 0 c 6.3957,0.06 10.9121,0.891 10.9121,2.181 0,1.721 -5.025,14.904 -11.164,29.299 -12.553,29.436 -14.0333,45.793 -5.6114,62.075 5.5956,10.823 5.4825,11.226 -4.2793,14.937 -7.9687,3.03 -11.499,2.49 -17.1679,-2.641 -6.7151,-6.079 -7.772,-6.088 -17.8887,-0.113 -11.8073,6.974 -15.3307,7.803 -15.0234,3.537 0.1133,-1.548 8.138,-26.47 17.8359,-55.379 l 17.6289,-52.558 17.834,-1.147 c 2.4525,-0.158 4.7922,-0.22 6.9238,-0.197 z" fill="#00B894" transform="translate(20.789116,26.973487) translate(4545.185,-2113.8728) matrix(0.26458333,0,0,0.26458333,-3417.4795,-450.03122)"/>
</svg>