<?xml version="1.0" ?><svg height="198.75851mm" viewBox="0 0 297.12396 198.75851" width="297.12396mm" xmlns="http://www.w3.org/2000/svg">
    <path d="m 43729.73,16243.062 c -8.245,3.454 -34.117,57.954 -34.117,57.954 l -16.347,0.511 c 0,0 -23.03,-65.627 -35.823,-55.265 -12.794,10.363 -14.955,86.293 -14.955,86.293 -23.892,20.308 -62.246,58.825 -55.013,86.355 0,0 -16.489,19.19 -59.704,38.891 -43.214,19.702 -191.337,2.176 -243.933,-7.803 -52.597,-9.978 -123.959,17.654 -123.959,17.654 0,0 -80.458,-2.431 -117.418,0.512 -36.96,2.942 -83.161,36.845 -105.479,65.758 -22.318,28.913 -90.549,140.213 -113.009,171.557 -18.168,38.996 66.271,-11.965 66.271,-11.965 0,0 4.408,6.397 10.094,6.269 5.686,-0.127 52.596,-39.787 52.596,-39.787 0,0 20.897,10.874 27.578,2.43 6.681,-8.444 25.588,-34.158 25.588,-34.158 0,0 25.444,-20.468 32.552,-30.319 7.107,-9.851 89.557,-86.738 89.557,-86.738 0,0 -9.809,67.932 21.039,120.512 30.847,52.581 83.301,27.377 83.301,27.377 0,0 2.7,14.456 17.484,43.369 14.784,28.913 36.959,5.885 36.959,5.885 l 13.221,-41.706 20.754,1.28 40.799,70.363 26.582,-48.359 35.539,6.269 20.043,53.219 25.588,-37.611 24.591,-4.862 14.756,47.258 c 0,0 -31.672,22.849 -33.094,47.412 -1.421,24.563 31.702,52.965 31.702,52.965 0,0 -17.058,26.098 -23.881,49.51 -6.824,23.411 16.488,28.678 63.771,27.174 47.283,-1.503 35.735,-23.849 33.176,-38.817 -2.559,-14.968 -34.543,-43.624 -21.75,-48.613 12.794,-4.99 17.201,-58.978 9.098,-73.307 -8.102,-14.328 -35.112,-22.9 -35.112,-22.9 l 16.631,-31.856 c 0,0 12.937,-10.745 46.485,-24.05 33.549,-13.305 83.87,-57.827 92.683,-70.364 8.814,-12.538 58.427,-61.278 70.649,-90.033 12.222,-28.754 -14.924,-67.707 -14.924,-67.707 0,0 108.18,3.453 129.502,-5.758 21.323,-9.211 34.685,-37.611 34.685,-37.611 0,0 -31.7,-21.108 -62.832,-31.855 -31.131,-10.746 -87.424,-75.352 -87.424,-75.352 0,0 -6.256,-73.434 -14.5,-69.981 z m -440.798,495.969 c -20.417,-0.04 -54.868,17.251 -56.942,40.006 -2.369,26.007 24.674,47.702 51.819,55.629 0,0 12.261,-2.735 28.023,-7 15.762,-4.265 28.586,-24.664 26.371,-44.227 -2.215,-19.563 -23.848,-37.316 -41.515,-43.296 -2.209,-0.748 -4.84,-1.106 -7.756,-1.112 z m -5.354,112.252 c -2.814,0.07 -5.197,0.309 -6.98,0.674 -14.268,2.921 -25.704,13.119 -24.467,40.424 1.236,27.304 33.532,32.45 60.935,37.039 35.697,1.02 42.599,-12.565 36.469,-43.809 -5.363,-27.339 -46.258,-34.836 -65.957,-34.328 z" fill="#FFFFFF" paint-order="markers stroke fill" transform="translate(144.84516,-22.064443) matrix(0.26458333,0,0,0.26458333,-10590.591,-3624.8501) translate(-3313.5291,-2437.8203)"/>
    <path d="m 39980.576,14532.673 c -1.164,-1.163 -14.112,-4.2 -28.771,-6.746 -27.628,-4.798 -55.536,-18.125 -59.48,-28.402 -5.641,-14.702 7.444,-25.93 30.219,-25.93 16.048,0.551 10.762,-0.137 8.548,-16.292 -1.228,-8.958 -2.233,-18.12 -2.233,-20.36 0,-2.239 -5.422,-6.031 -12.048,-8.427 -15.38,-5.561 -32.086,-24.555 -37.503,-42.64 -2.325,-7.755 -8.095,-19.187 -9.686,-19.232 0,0 -3.353,14.789 -10.137,77.071 -5.187,47.639 -7.038,56.318 -12.218,57.305 -12.956,2.468 -14.465,-12.463 -7.61,-75.393 4.712,-40.9 9.731,-88.742 17.158,-124.906 2.647,-12.653 8.09,-29.787 12.095,-38.077 8.668,-17.943 8.95,-20.776 2.062,-20.776 -7.25,0 -28.026,42.622 -38.657,79.301 -6.262,21.611 -10.441,49.863 -14.435,97.567 -6.086,72.662 -9.153,86.458 -19.231,86.458 -12.166,0 -14.823,-12.487 -12.274,-57.684 5.359,-95.04 14.963,-140.756 39.952,-190.177 l 10.202,-20.173 -19.868,-19.592 c -25.451,-25.092 -32.8,-46.127 -31.139,-89.146 l 1.14,-29.58 -13.161,13.58 c -20.447,21.098 -30.459,17.598 -23.507,-8.216 4.487,-16.66 23.605,-36.078 39.057,-39.667 5.177,-1.201 13.551,-7.613 18.612,-14.249 l 9.2,-12.063 -37.921,0.05 c -105.742,0.184 -145.275,29.769 -217.363,162.741 -11.378,20.989 -27.549,45.874 -35.933,55.298 -19.784,22.236 -12.113,22.017 20.049,-0.571 24.337,-17.09 32.063,-19.118 32.063,-8.416 0,9.085 5.896,5.38 22.667,-14.251 17.432,-20.405 29.219,-24.806 32.529,-12.145 2.962,11.323 8.937,6.336 20.192,-16.853 10.817,-22.28 24.792,-33.758 30.285,-24.871 1.78,2.881 6.032,-3.184 12.186,-17.374 8.609,-19.847 11.913,-23.51 20.024,-22.191 1.493,0.237 4.092,-3.189 5.78,-7.628 1.688,-4.437 5.722,-10.273 8.969,-12.966 8.305,-6.892 13.195,1.293 10.443,17.474 -2.965,17.445 -11.081,28.887 -18.759,26.448 -4.758,-1.511 -7.787,1.38 -12.579,12.011 -7.668,17.005 -17.296,26.293 -24.421,23.557 -3.737,-1.433 -7.226,2.322 -11.834,12.742 -7.602,17.185 -29.903,38.288 -37.413,35.404 -2.826,-1.082 -6.125,-5.079 -7.331,-8.882 -1.965,-6.188 -3.195,-5.572 -11.726,5.867 -11.218,15.047 -37.069,33.293 -47.165,33.293 -3.902,0 -9.685,-2.344 -12.853,-5.212 -5.148,-4.658 -8.26,-3.884 -29.224,7.247 -27.654,14.686 -45.573,15.534 -47.459,2.252 -0.792,-5.593 3.966,-13.635 15.8,-26.702 9.314,-10.283 21.824,-27.222 27.796,-37.639 5.975,-10.418 18.278,-32.042 27.342,-48.052 49.165,-86.856 92.282,-127.387 152.07,-142.96 22.499,-5.859 86.055,-6.939 108.075,-1.835 12.426,2.883 15.636,2.122 29.295,-6.923 8.437,-5.591 24.276,-12.219 35.199,-14.731 28.589,-6.578 104.29,-4.682 154.119,3.861 65.044,11.149 98.755,12.492 144.866,5.769 53.492,-7.802 67.917,-12.023 62.672,-18.343 -4.987,-6.009 -5.914,-5.272 22.954,-18.299 35.138,-15.855 43.112,-14.177 23.215,4.888 -5.793,5.551 -10.533,12.023 -10.533,14.388 0,6.478 -20.608,22.593 -40.376,31.575 -45.532,20.687 -124.169,25.359 -200.128,11.895 -61.984,-10.989 -113.733,-14.083 -147.462,-8.819 -40.468,6.314 -44.402,8.613 -57.829,33.803 -10.428,19.568 -11.958,25.953 -13.404,55.999 -1.053,21.867 -0.08,38.604 2.728,47.127 4.809,14.57 28.529,40.492 37.053,40.492 8.563,0 36.186,-20.737 61.897,-46.466 12.996,-13.006 24.45,-22.315 25.453,-20.69 4.888,7.905 -10.148,39.82 -25.742,54.645 -5.967,5.673 -10.847,11.279 -10.847,12.456 0,1.18 9.922,1.511 22.051,0.74 24.474,-1.559 64.281,6.902 143.842,30.575 53.916,16.044 80.72,21.405 107.003,21.405 30.364,0 70.992,-9.735 99.271,-23.783 l 26.333,-13.082 1.024,-29.132 c 0.761,-21.711 2.338,-29.637 6.188,-31.115 7.621,-2.925 15.12,4.917 17.664,18.467 1.23,6.565 3.497,11.934 5.032,11.934 4.132,0 34.736,-34.856 40.653,-46.3 5.469,-10.573 10.267,-12.577 13.145,-5.485 2.301,5.672 8.563,-2.513 11.415,-14.923 3.618,-15.734 4.843,-18.033 8.429,-15.815 5.003,3.091 4.3,33.418 -1.019,43.904 -2.449,4.827 -7.207,8.792 -10.578,8.808 -3.686,0.05 -10.288,7.323 -16.595,18.367 -9.474,16.59 -10.14,19.76 -7.012,33.321 1.901,8.245 3.497,32.511 3.544,53.924 0.106,52.418 9.027,141.817 16.98,170.359 4.766,17.103 9.914,26.654 19.567,36.308 15.937,15.936 16.824,31.085 1.923,32.818 -6.942,0.808 -12.658,-2.847 -24.856,-15.889 -13.277,-14.193 -17.129,-21.696 -23.773,-46.319 -11.289,-41.843 -17.606,-101.86 -17.735,-168.479 l -0.105,-57.597 -7.489,6.688 c -7.384,6.594 -7.463,7.982 -5.501,97.973 2.262,103.696 7.492,141.112 23.344,166.968 13.677,22.309 15.494,29.632 8.974,36.152 -8.026,8.028 -13.675,4.268 -33.242,-22.125 -24.816,-33.474 -28.163,-50.869 -30.651,-159.249 -1.802,-78.537 -2.557,-86.845 -7.682,-84.549 -3.128,1.404 -17.945,6.823 -32.929,12.047 -22.398,7.808 -28.792,11.779 -35.949,22.328 l -8.708,12.832 8.295,3.154 c 4.563,1.736 11.826,8.866 16.142,15.85 3.525,5.705 7.309,10.936 7.309,10.936 0,0 5.726,-0.987 4.893,-4.195 -2.229,-8.578 8.109,-11.59 9.584,-4.884 1.495,6.797 9.129,18.239 4.696,-0.772 -3.346,-14.35 7.415,-14.193 10.678,-4.774 4.022,11.609 5.008,22.599 5.939,3.953 0.317,-6.347 9.381,-8.272 9.587,5.023 0.136,8.786 -0.693,33.064 -7.073,37.008 -1.878,1.162 -3.415,5.854 -3.415,10.428 0,4.571 -5.586,19.028 -12.411,32.123 -10.983,21.071 -11.942,24.942 -8.334,33.651 2.241,5.414 3.318,17.721 2.391,27.354 -1.301,13.556 -0.558,17.516 3.286,17.516 10.723,0 39.251,11.471 41.208,16.566 2.818,7.342 -4.24,15.033 -13.793,15.033 -4.321,0 -13.793,-4.028 -21.048,-8.953 -14.609,-9.914 -16.102,-10.046 -68.541,-6.106 -21.624,1.625 -36.46,4.221 -35.883,6.28 1.082,3.868 47.048,2.599 58.669,-1.619 8.837,-3.21 27.573,1.635 33.376,8.629 8.709,10.491 -10.733,21.145 -23.633,12.953 -2.383,-1.517 -17.64,-1.39 -33.901,0.276 -37.584,3.856 -58.316,-0.724 -58.316,-12.879 0,-4.492 3.136,-12.155 6.97,-17.029 6.281,-7.984 6.425,-9.317 1.47,-13.43 -4.085,-3.391 -5.201,-9.574 -4.337,-24.018 1.108,-18.522 0.555,-19.997 -11.592,-30.967 -7.018,-6.338 -14.712,-16.245 -17.103,-22.017 -2.62,-6.319 -6.939,-10.496 -10.862,-10.496 -3.584,0 -9.111,-3.927 -12.25,-8.75 -6.9,-10.6 -10.028,-31.245 3.889,-18.038 4.187,1.606 3.924,-0.361 2.088,-7.671 -2.048,-8.16 5.968,-13.448 8.447,-7.011 5.517,14.327 5.088,9.212 5.304,-1.095 0.172,-8.222 6.939,-6.105 11.234,2.095 l 5.156,9.837 1.911,-14.253 c 2.186,-16.3 10.644,-29.198 24.611,-37.532 9.603,-5.73 10.17,-9.651 4.192,-29.056 -2.236,-7.252 -15.073,-4.948 -19.576,3.51 -7.791,14.644 -25.84,34.106 -31.686,34.17 -3.191,0.05 -7.515,-4.282 -9.608,-9.591 -2.094,-5.311 -6.989,-15.162 -10.876,-21.89 -3.889,-6.728 -7.07,-14.931 -7.07,-18.225 0,-6.836 -1.622,-8.076 -14.644,-11.183 -8.215,-1.962 -9.651,-0.99 -11.591,7.844 -2.799,12.745 -21.938,39.065 -28.408,39.065 -7.328,0 -31.178,-32.015 -40.368,-54.19 -8.063,-19.452 -17.34,-26.056 -17.34,-12.345 0,8.097 -8.634,26.535 -16.768,35.812 -5.004,5.707 -4.522,6.146 6.743,6.146 6.673,0 13.553,1.375 13.553,1.375 3.415,-10.742 15.093,-5.16 13.939,4.155 0,0 14.791,7.895 22.035,13.227 16.673,12.274 23.696,25.832 23.696,45.753 0,17.775 -10.67,33.566 -29.123,43.112 -14.451,7.325 -13.008,4.59 0.821,10.407 6.354,2.67 14.135,4.832 17.293,4.8 6.865,-0.08 24.937,-15.547 33.461,-28.658 5.869,-9.029 5.843,-9.548 -0.667,-13.032 -8.139,-4.358 -11.081,-22.581 -13.519,-30.166 -3.396,-10.566 4.932,-12.437 7.674,-5.33 5.873,15.22 11.555,17.705 11.283,-5.656 -0.09,-7.355 9.978,-6.44 9.791,0 -0.729,25.088 2.732,19.89 8.027,4.3 1.11,-3.267 8.593,-4.17 9.471,2.273 0.878,6.443 -2.983,21.589 -5.759,34.534 -4.352,20.29 -25.806,47.325 -40.476,51.009 -9.778,2.454 -10.117,3.998 -2.678,12.219 3.081,3.402 7.639,12.11 10.127,19.351 6.346,18.457 1.175,31.344 -16.113,40.163 -7.512,3.831 -13.658,8.345 -13.658,10.027 0,5.551 17.242,7.521 45.318,5.18 33.516,-2.796 45.969,-0.311 45.969,9.172 0,8.4 -14.581,12.934 -25.674,7.984 -4.901,-2.186 -12.027,-2.22 -19.724,-0.106 -6.627,1.831 -22.05,2.257 -34.269,0.948 -21.466,-2.298 -32.686,-8.184 -32.686,-17.15 0,-2.52 -9.809,-6.186 -23.7,-8.85 -39.051,-7.497 -46.2,-8.285 -52.647,-5.802 -5.511,2.123 -5.574,2.705 -0.589,5.501 11.926,6.699 35.601,10.007 42.184,5.896 5.172,-3.231 8.348,-2.588 16.203,3.271 11.141,8.308 14.441,18.34 7.484,22.749 -5.667,3.589 -8.124,3.812 -10.947,0.987 z m 239.258,-49.228 c 9.172,-1.836 10.973,-3.819 10.973,-12.082 0,-12.113 5.316,-16.147 10.209,-7.742 3.315,5.694 3.631,5.596 3.729,-1.156 0.105,-6.585 -17.749,-35.372 -24.879,-40.138 -5.141,-3.434 -39.394,1.809 -40.861,6.256 -0.84,2.544 1.541,4.39 5.659,4.39 16.447,0 11.215,16.242 -5.872,18.225 -10.099,1.169 -13.219,8.294 -9.727,22.209 1.537,6.125 5.04,8.645 13.477,9.693 20.315,2.522 26.137,2.575 37.292,0.342 z m -203.246,-7.642 c 16.024,-7.837 16.606,-13.643 3.021,-30.101 -12.685,-15.368 -28.537,-23.262 -46.709,-23.262 -23.044,0 -31.957,16.289 -21.856,39.941 7.576,17.743 42.208,24.834 65.544,13.422 z m 149.957,-51.928 c 0.621,-1.867 -3.537,-6.149 -9.238,-9.517 -5.751,-3.397 -12.337,-11.562 -14.783,-18.332 -4.835,-13.367 -8.11,-15.242 -11.447,-6.544 -2.559,6.667 9.301,27.191 20.076,34.738 7.889,5.527 13.477,5.401 15.392,-0.345 z m -210.056,-15.123 c 3.542,-2.243 1.686,-4.076 -7.049,-6.96 -26.864,-8.866 -43.296,-33.895 -40.639,-61.905 2.033,-21.424 6.083,-30.093 18.688,-40.01 l 9.209,-7.244 -10.51,-11.968 c -5.78,-6.586 -13.308,-19.302 -16.731,-28.26 -3.421,-8.956 -7.961,-15.718 -10.086,-15.026 -5.469,1.786 -18.631,39.344 -21.577,61.582 -1.294,9.767 -2.915,21.244 -2.915,21.244 4.057,0.212 7.08,2.749 6.436,6.748 -1.774,11.019 3.605,8.642 4.251,6.603 2.681,-8.468 18.893,-12.774 9.372,12.839 -5.179,13.932 0.913,38.982 13.705,50.771 13.282,12.244 37.537,18.117 47.846,11.586 z m 300.503,-12.076 c 10.083,-17.206 11.431,-30.986 3.657,-37.434 -4.505,-3.74 -5.266,-2.652 -5.266,7.52 0,6.541 -3.16,17.79 -7.02,24.995 -13.138,24.51 -5.427,28.905 8.629,4.919 z m -42.59,-0.08 c 18.877,-7.887 29.263,-29.624 22.89,-47.907 -2.177,-6.243 -7.516,-11.108 -7.516,-11.108 -7.413,3.428 -13.923,-3.877 -10.057,-11.304 -4.334,-3.33 -13.489,-8.834 -13.489,-0.503 0,2.829 -3.067,6.784 -6.814,8.79 -5.507,2.947 -8.186,1.893 -12.448,-4.266 -1.873,-2.707 -5.82,-8.707 -8.463,-4.908 -15.205,11.597 -22.669,24.116 -22.773,40.581 0,8.845 3.026,17.954 5.083,21.798 7.131,13.325 32.731,17.54 53.587,8.827 z m -6.739,-42.182 c -2.841,-7.408 1.148,-12.716 9.551,-12.716 5.303,0 6.78,1.954 5.938,7.863 -1.312,9.177 -12.484,12.679 -15.489,4.853 z m -212.025,27.623 c 12.318,-6.37 17.485,-15.11 17.485,-29.577 0,-12.029 -0.78,-12.529 -10.296,-6.586 -9.562,5.972 -17.79,-1.885 -17.79,-16.982 0,-4.796 0.02,-7.919 0.935,-11.511 0.656,-2.583 -6.148,-5.229 -9.765,-6.603 -23.279,-8.847 -44.813,5.053 -49.184,28.355 -6.301,33.592 35.76,59.894 68.615,42.904 z m -40.923,-35.052 c -1.217,-3.167 -0.527,-7.444 1.529,-9.5 5.351,-5.351 15.487,-0.461 14.088,6.793 -1.556,8.082 -12.805,10.033 -15.617,2.707 z m 5.993,-19.18 c -5.814,-3.592 -2.431,-14.196 4.532,-14.196 2.749,0 5.864,2.254 6.923,5.008 2.549,6.641 -5.341,12.969 -11.455,9.188 z m 245.444,-39.652 c 0.05,-1.448 -5.451,-2.633 -12.211,-2.633 -13.84,0 -14.757,1.935 -6.504,13.719 l 5.785,8.261 6.425,-8.358 c 3.534,-4.595 6.462,-9.541 6.505,-10.989 z m -88.502,-5.485 c 0.772,-2.315 -1.814,-4.169 -5.814,-4.169 -5.051,0 -6.583,1.62 -5.127,5.414 2.299,5.994 8.774,5.256 10.941,-1.245 z m -77.002,-13.114 c 2.241,-4.916 4.074,-9.406 4.074,-9.977 0,-1.778 -28.7,-9.725 -30.093,-8.332 -1.943,1.944 15.816,27.254 19.123,27.254 1.551,0 4.655,-4.026 6.896,-8.945 z m -85.702,-14.986 c 5.659,-8.028 9.248,-15.636 7.976,-16.908 -1.269,-1.269 -10.417,-3.089 -20.326,-4.042 l -18.019,-1.73 2.588,11.895 c 6.984,32.089 11.526,33.85 27.781,10.785 z m 394.065,-101.296 c -1.287,-1.285 -2.341,-8.395 -2.341,-15.799 0,-10.931 1.267,-13.459 6.744,-13.459 4.656,0 7.468,3.302 9.087,10.678 3.008,13.688 -5.993,26.08 -13.49,18.58 z m 66.664,-49.447 c -2.718,-9.172 -4.295,-17.793 -3.505,-19.157 4.577,-7.911 22.275,14.714 22.275,28.476 0,4.979 -2.236,7.36 -6.915,7.36 -5.217,0 -8.129,-4.1 -11.855,-16.679 z m -70.053,3.926 c -4.184,-4.184 -2.725,-17.164 2.736,-24.321 4.508,-5.909 5.68,-6.114 8.816,-1.548 5.269,7.678 2.807,26.082 -3.652,27.301 -2.991,0.567 -6.546,-0.08 -7.9,-1.432 z m 86.071,-14.246 c -1.775,-3.497 -7.568,-18.454 -12.877,-33.24 -9.585,-26.698 -9.756,-26.906 -25.527,-30.88 -24.223,-6.096 -46.074,-31.768 -27.043,-31.768 2.815,0 22.825,4.917 44.47,10.923 47.007,13.048 87.967,15.002 118.85,5.67 23.502,-7.102 40.61,-19.194 35.038,-24.769 -2.07,-2.067 -3.763,-6.604 -3.763,-10.08 0,-4.663 -2.725,-6.32 -10.401,-6.32 -28.99,0 -57.95,-18.994 -94.618,-62.058 -20.385,-23.939 -34.802,-31.612 -68.405,-36.415 -25.487,-3.642 -32.125,-8.843 -17.703,-13.872 8.59,-2.997 11.31,-6.997 16.302,-23.958 7.755,-26.34 17.851,-39.248 30.699,-39.248 15.231,0 19.407,8.21 20.131,39.575 0.611,26.562 1.146,28.297 10.533,34.203 5.438,3.424 22.528,19.239 37.977,35.146 19.365,19.945 34.443,31.966 48.56,38.712 11.26,5.382 23.11,12.071 26.333,14.865 3.223,2.794 11.926,6.006 19.338,7.139 15.742,2.406 23.386,7.799 23.386,16.5 0,6.564 -6.659,10.477 -17.843,10.477 -4.231,0 -6.733,2.433 -6.733,6.549 0,10.807 -13.116,24.116 -30.195,30.638 -10.22,3.903 -18.47,6.68 -18.47,6.68 -6.393,23.083 -17.215,20.745 -17.956,2.602 l -21.549,0.522 c -5.245,29.87 -15.963,7.18 -16.623,-1.947 0,0 -14.857,-2.912 -30.591,-2.912 h -8.107 l 7.044,20.861 c 3.876,11.473 6.538,25.285 5.914,30.691 -1.327,11.547 -11.405,15.107 -16.171,5.714 z m -13.072,-250.226 c 2.52,-14.917 -0.35,-29.503 -5.213,-26.498 -3.671,2.27 -21.095,33.1 -21.095,37.326 0,1.688 5.392,3.068 11.981,3.068 11.218,0 12.129,-0.882 14.327,-13.896 z m -104.859,247.277 c -2.754,-7.173 8.15,-33.89 13.159,-32.25 5.527,1.815 7.036,26.52 1.991,32.597 -5.449,6.565 -12.561,6.402 -15.15,-0.35 z m -26.78,-24.355 c 0,-8.622 11.652,-30.175 15.605,-28.861 10.507,3.497 2.425,34.006 -9.009,34.006 -3.628,0 -6.596,-2.315 -6.596,-5.145 z m -31.599,-106.505 c 0,-3.76 38.646,-35.331 51.988,-42.472 11.845,-6.338 14.407,4.548 3.755,15.95 -15.43,16.521 -55.743,35.701 -55.743,26.522 z m 157.587,-11.43 c -4.302,-11.713 2.693,-20.466 9.642,-19.128 3.887,0.747 6.566,6.819 6.566,12.301 0,10.009 -12.986,15.599 -16.208,6.827 z m 29.846,-1.349 c -3.142,-8.189 0.05,-17.593 6.354,-18.809 6.973,-1.343 14.225,10.517 11.22,18.348 -2.657,6.92 -14.972,7.242 -17.574,0.461 z m -162.854,-32.903 c 0,-2.048 6.364,-7.302 14.148,-11.676 9.936,-5.585 13.506,-9.571 11.99,-13.392 -9.069,-22.846 -3.216,-57.089 14.643,-85.637 15.044,-24.052 23.326,-25.819 31.375,-6.699 14.333,34.056 15.15,64.076 1.744,64.076 -7.163,0 -8.848,-3.666 -12.511,-27.21 -2.344,-15.07 -6.025,-18.575 -11.057,-10.533 -1.512,2.415 -2.789,20.824 -2.841,40.908 0.03,20.793 6.035,33.345 -12.441,42.938 -15.878,8.242 -35.038,12.194 -35.038,7.225 z" fill="#00B894" transform="translate(144.84516,-22.064443) matrix(0.26458333,0,0,0.26458333,-10590.591,-3624.8501)"/>
</svg>