<?xml version="1.0" ?><svg height="101.89067mm" viewBox="0 0 144.87074 101.89067" width="144.87074mm" xmlns="http://www.w3.org/2000/svg">
    <path d="m -119.68644,107.89361 c -0.84204,-0.6889 -1.02976,-1.15774 -1.19552,-2.9859 l -0.19667,-2.16871 -3.56698,-0.005 c -7.69215,0.28241 -6.66781,-4.08628 -1.15594,-4.068738 2.71111,0.01191 3.93219,-0.115914 4.20072,-0.439287 0.26992,-0.325041 0.26111,-1.590702 -0.0306,-4.409705 -0.22508,-2.17461 -0.3914,-7.843203 -0.3696,-12.596865 0.0217,-4.753716 0.0151,-11.937154 -0.0151,-15.963213 -0.0529,-7.092103 -0.0768,-7.320147 -0.7675,-7.320147 -0.95658,0 -2.07987,-0.629444 -2.0682,-1.158928 0.005,-0.235717 0.64019,-1.116859 1.4111,-1.958102 l 1.40169,-1.529503 0.0614,-8.524664 c 0.0338,-4.688549 0.0952,-9.000887 0.13647,-9.58297 0.23807,-3.356598 0.58774,-14.936935 0.5326,-17.63886 -0.0356,-1.74625 0.10735,-4.668837 0.31777,-6.494674 0.42233,-3.6650083 0.78891,-4.2346297 2.73738,-4.253812 0.89643,-0.00873 1.17956,0.1582473 1.32598,0.7825317 0.22022,0.9388475 -0.0135,21.0298773 -0.37758,32.4555373 -0.16804,5.274257 -0.13505,8.025712 0.0963,8.025712 1.05783,-1.533684 3.03837,-2.805615 4.10083,-4.17113 1.25687,-1.640522 7.79306,-8.580332 13.593335,-14.432702 3.426725,-3.214899 2.708593,-5.500899 7.068238,-5.500899 1.801363,0 2.799107,1.161071 3.2335,1.526936 1.560909,1.314741 2.030095,1.765909 3.701282,3.559202 0.978403,1.049867 2.161382,2.464488 2.628847,3.143594 0.467466,0.679079 0.938451,1.314078 1.046613,1.411101 0.108188,0.09702 0.634021,0.851085 1.168532,1.675686 0.534511,0.824627 1.094132,1.499314 1.243568,1.499314 0.149437,0 0.571791,-0.515937 0.938557,-1.146519 0.366765,-0.630608 0.759089,-1.22592 0.871828,-1.322917 0.258022,-0.222064 2.723515,-3.599813 3.99124,-5.468063 0.526626,-0.776102 1.556147,-2.071978 2.287772,-2.879698 1.468412,-1.621102 4.041326,-4.534985 6.671575,-7.555654 0.942843,-1.082781 2.90486,-3.497474 4.360069,-5.365962 1.455208,-1.868487 2.82485,-3.4034937 3.043608,-3.4111667 0.218784,-0.00767 0.606107,-0.2649273 0.860716,-0.5717116 0.336603,-0.4055534 0.853916,-0.5088467 1.89529,-0.37846 2.67036,0.3343804 3.006566,0.6219031 4.834757,4.1343263 3.348832,6.433952 5.63507,11.371765 6.500416,14.039559 1.172422,3.614526 3.700118,9.974764 4.22529,10.63183 0.232622,0.291042 0.614071,1.12448 0.847698,1.852084 0.233601,0.727604 0.571209,1.322916 0.750226,1.322916 0.179044,0 1.178322,-0.833437 2.220648,-1.852083 3.725572,-3.640931 4.343215,-3.936788 6.218584,-2.978547 0.60809,0.3107 0.84812,0.689769 0.77306,1.220788 -0.0599,0.423571 0.15473,1.369404 0.47694,2.101797 0.32221,0.732419 0.71096,1.649148 0.86389,2.037212 1.08736,2.759155 2.64059,6.409029 2.85242,6.702769 4.27032,8.705268 7.318,16.057298 11.26146,23.389273 0.6791,1.268068 1.39115,2.288593 1.58237,2.267876 0.19118,-0.02064 0.48331,-0.563351 0.64915,-1.20576 0.42871,-1.660683 0.9064601,-2.100976 2.1481501,-1.979824 1.07895,0.105304 1.09085,0.128879 1.37285,2.719811 3.54991,20.734047 -1.08509,16.285157 -8.1195601,10.232311 -1.23942,-1.138688 -2.35821,-2.005304 -6.08248,-4.711462 -1.15187,-0.837009 -1.42825,-1.254813 -1.42825,-2.159053 0,-1.025895 0.1334,-1.158558 1.56946,-1.560618 1.18583,-0.332026 1.84655,-0.342821 2.70303,-0.04426 1.48344,0.517128 1.6686,0.260985 0.72954,-1.009174 -0.42278,-0.571844 -0.7687,-1.132787 -0.7687,-1.246558 0,-0.113744 -0.69749,-1.667986 -1.54995,-3.453871 -1.79986,-3.761237 -3.55526,-7.598251 -5.32461,-11.33557 -0.68162,-1.43883 -1.23933,-2.708037 -1.23933,-2.820458 0,-0.112448 -1.1728,-2.62517 -2.6062,-5.58382 -1.433412,-2.958676 -2.717091,-5.745956 -2.85261,-6.193975 -0.231035,-0.763826 -0.410925,-0.650055 -2.886816,1.825863 -2.502535,2.502509 -2.708222,2.631017 -3.938376,2.460202 -1.983581,-0.275458 -2.179717,-0.388303 -2.182072,-1.255554 0,-0.442648 -0.239315,-1.259522 -0.529166,-1.81528 -0.289825,-0.555757 -0.526971,-1.232588 -0.526971,-1.504103 0,-0.271489 -0.153749,-0.769276 -0.341683,-1.106197 -1.08622,-1.947518 -3.892868,-8.86309 -3.899509,-9.608369 -0.0042,-0.485087 -0.318293,-1.278863 -0.697706,-1.763924 -0.379439,-0.48506 -0.693393,-1.009094 -0.697706,-1.16451 -0.01905,-0.683499 -4.523396,-10.88271 -6.392915,-14.475302 -0.862886,-1.658144 -0.842566,-1.671452 -4.484794,2.939812 -1.455896,1.843273 -3.455458,4.147556 -4.443465,5.12064 -0.988034,0.973085 -2.510764,2.719335 -3.383889,3.880538 -0.873125,1.16123 -2.023348,2.587572 -2.556007,3.169655 -0.532686,0.582084 -0.969248,1.167739 -0.970148,1.301459 0,0.133721 -0.63029,0.969487 -1.39864,1.857243 -0.76835,0.887782 -1.649942,2.147146 -1.959081,2.798603 -0.309139,0.651457 -1.267989,2.011495 -2.130769,3.022256 -0.986261,1.155435 -1.573054,2.187284 -1.580436,2.779104 -0.0064,0.517737 -0.321363,1.312915 -0.699796,1.767073 -0.579755,0.695748 -0.897229,0.789966 -2.016734,0.598619 -1.101248,-0.188251 -1.540033,-0.54094 -2.563389,-2.060469 -0.679106,-1.008327 -1.294632,-1.992074 -1.367816,-2.18612 -0.07321,-0.194019 -0.417989,-0.670269 -0.766181,-1.058333 -0.348218,-0.388038 -1.735957,-2.254567 -3.083904,-4.147846 -2.301875,-3.233128 -4.996259,-5.895154 -5.974662,-5.90288 -0.238072,-0.0026 -0.707813,0.433123 -1.043887,0.966708 -0.336074,0.533585 -2.125689,2.482982 -3.976899,4.332022 -5.246552,5.240417 -10.033792,10.271972 -10.421382,10.953327 -0.48413,0.851006 -4.57091,5.39361 -6.61905,7.357268 l -1.68019,1.610863 -0.0837,12.347205 c -0.075,11.062758 0.5243,31.197788 0.94906,31.885043 0.0907,0.146738 1.24481,0.294137 2.56469,0.327501 4.20312,0.08427 7.75811,0.265748 11.57197,0.228309 13.887929,-0.158273 17.744099,-0.153141 26.438043,0.03514 5.033566,0.109035 9.240441,0.247385 9.348602,0.307446 0.181795,0.100938 35.185932,0.03268 60.9517941,-0.118904 4.85172004,-0.228732 9.57355,-0.431191 13.89269,-0.207301 5.4155199,-1.049073 9.9571999,4.85632 1.43648,5.07878 -0.63807,-0.13049 -5.2387,-0.17552 -10.22357996,-0.10006 -12.24471014,0.18534 -66.78406214,0.1755 -69.21206414,-0.0124 -1.06717,-0.0826 -9.48092,-0.23937 -18.697231,-0.3483 -9.21631,-0.10893 -18.185684,-0.21564 -19.931934,-0.23709 -1.74625,-0.0214 -4.16907,-0.0241 -5.38403,-0.006 l -2.20904,0.0331 0.19722,1.49931 c 0.10848,0.8246 0.25808,1.90063 0.33248,2.39117 0.117,0.77153 -0.0511,0.95007 -1.24584,1.32292 -1.84344,0.57533 -2.1073,0.54215 -3.27301,-0.41156 z" fill="#00B894" transform="translate(130.17521,-6.7942109)"/>
</svg>