<?xml version="1.0" ?><svg height="101.36371mm" viewBox="0 0 141.11011 101.36371" width="141.11011mm" xmlns="http://www.w3.org/2000/svg">
    <path d="m -175.75242,50.348015 c -1.31342,-0.67778 -1.57591,-0.95041 -1.69317,-1.758497 -0.0782,-0.538559 -0.50086,-0.70276 -2.24536,-0.872225 -2.54265,-0.247015 -3.55547,-0.831295 -4.49773,-2.594716 -0.68988,-1.291035 -0.68996,-1.308127 -0.009,-1.809221 0.42971,-0.316415 0.95824,-0.406453 1.4111,-0.240401 1.07175,0.393013 4.95982,0.325517 4.94278,-0.08578 -1.01711,-18.215346 -0.16642,-34.2778827 -1.04655,-52.7402957 -0.41059,-8.0580183 -0.55198,-34.9017153 -0.21231,-40.3048513 0.0314,-0.500062 0.37238,-0.617352 1.79457,-0.617352 3.10438,0 2.96087,-0.944774 3.02104,19.887591 0.0287,9.91981 0.22841,20.57601 0.44389,23.6804453 0.21547,3.104463 0.33514,10.645088 0.26596,16.756963 -0.0692,6.1118747 -0.0222,11.8029557 0.10419,12.6468707 l 0.23,1.534398 1.46675,-1.534398 c 0.80674,-0.843915 2.93891,-2.883746 4.73821,-4.533 1.79927,-1.649227 4.18205,-3.871727 5.29505,-4.938871 4.27331,-4.0972587 7.95441,-7.4283097 10.91589,-9.8777957 1.05561,-0.873125 2.41903,-2.06991502 3.02985,-2.65951202 1.84512,-1.78117498 2.85639,-2.08687498 4.40859,-1.33278598 0.73369,0.35647298 1.54625,1.11064198 1.83079,1.69925998 0.28138,0.58208402 1.59945,2.27877702 2.92907,3.77044502 l 2.41749,2.712111 1.17983,-1.301009 c 8.38338,-8.712941 18.08369,-19.0489683 26.44341,-26.4364263 1.52498,-1.787339 2.66266,-2.471314 4.41918,-3.174894 2.56278,-1.039494 5.038699,2.585826 11.039396,13.8500383 0.82796,1.554216 1.886982,3.184314 2.353363,3.62249 l 0.847989,0.796634 1.028674,-0.879607 c 0.565785,-0.483764 1.274048,-1.082014 1.573927,-1.329426 3.800557,-3.1354713 4.807717,-3.9979863 5.154317,-4.4141763 0.22434,-0.269372 0.9588,-0.916331 1.63211,-1.437693 1.45841,-1.129294 7.18818,-5.945822 8.19055,-6.885093 0.38806,-0.363643 1.26119,-1.079791 1.94027,-1.591442 3.14492,-2.554154 6.1278,-4.987342 7.40833,-6.064726 0,-0.489029 -0.63833,-0.735541 -0.88233,-0.340756 -0.34049,0.550941 -2.29267,-0.981393 -2.29267,-1.799617 0,-0.380947 0.27782,-0.784913 0.61738,-0.897731 0.33954,-0.112818 1.59954,-0.663469 2.79998,-1.223672 1.20044,-0.560175 2.31169,-1.021185 2.46944,-1.02444 0.15777,-0.0032 1.39808,-0.558747 2.75627,-1.234387 1.35818,-0.67564 2.73825,-1.228593 3.06681,-1.228778 1.88105,-1.053941 4.9721,-1.545696 4.63976,1.535668 -1.07733,6.186038 -1.44262,9.170776 -2.47523,11.683444 -0.62537,2.153232 -2.25806,5.15194 -4.28289,3.347349 -0.90411,-0.842327 -0.97372,-2.081053 -0.28213,-5.020176 0.7084,-3.01035 0.1804,-3.013049 -3.42209,-0.01746 -2.18257,1.814856 -5.15879,4.089558 -5.91696,4.52231 -0.59428,0.339223 -4.08162,3.291973 -5.23396,4.431639 -0.30646,0.303107 -1.35096,1.170781 -2.32108,1.928177 -1.61613,1.261719 -3.12092,2.565003 -6.6308,5.7428873 -1.20627,1.092148 -5.22198,4.056645 -7.379948,5.448009 -1.483307,0.810948 -3.132084,1.152869 -4.435713,0.654553 -1.301141,-0.505566 -1.804934,-0.943398 -2.320872,-2.017157 -1.721194,-2.843054 -3.399367,-5.601652 -4.593458,-7.8978123 -0.854948,-1.649254 -2.044885,-3.871754 -2.644295,-4.938898 -0.59942,-1.067144 -1.19941,-2.178394 -1.33332,-2.469436 -0.4809,-1.045183 -0.8985,-0.927338 -2.69981,0.761895 -1.00565,0.94308 -2.38408,2.185802 -3.06318,2.761562 -10.01946,8.0929953 -26.91824,30.818508 -28.46885,28.92634 -0.68223,0.0093 -2.08151,-2.150401 -2.5704,-3.9672417 -0.90826,-1.792208 -3.21451,-5.512118 -4.41368,-6.609318 -0.43627,-0.362056 -0.76004,-0.231749 -1.86473,0.75057 -0.73522,0.653759 -2.03716,1.744318 -2.89316,2.423398 -0.85601,0.679106 -2.12032,1.790356 -2.80959,2.469462 -0.68926,0.67908 -1.61306,1.4856877 -2.05285,1.7924197 -0.43979,0.306758 -2.51534,2.211758 -4.61234,4.233333 -2.09699,2.021602 -4.99153,4.764537 -6.43232,6.095445 -1.44076,1.33088 -3.95298,3.679772 -5.58265,5.219752 l -2.9631,2.799954 0.0865,5.716349 c 0.0475,3.143991 0.19032,6.430724 0.31724,7.303849 l 0.23079,1.5875 2.82224,-0.107103 c 1.5522,-0.05892 9.64845,-0.148722 17.99166,-0.199575 13.82162,-0.08424 20.48918,0.0326 37.04167,0.648996 7.5262,0.280273 14.02837,0.521177 18.435398,0.683075 4.973081,-0.466857 9.9949,0.119777 14.196528,0.127609 8.1034,0.0066 25.46321,0.318108 33.42503,0.599889 2.13315,0.07549 2.79096,0.252651 3.96875,1.068864 0.77647,0.538083 1.41179,1.078653 1.41179,1.201261 0,0.122608 -0.4131,0.830792 -0.91795,1.573769 -0.78369,1.153315 -1.05452,1.318785 -1.85208,1.131545 -2.50553,-0.58825 -9.78077,-0.941178 -22.62997,-1.097758 -6.11188,-0.07448 -14.44625,-0.232228 -18.520835,-0.350497 -4.074584,-0.118295 -10.027709,-0.273552 -13.229171,-0.345043 -3.20145,-0.07149 -6.8527,-0.214815 -8.11389,-0.318532 -1.26119,-0.10369 -7.37307,-0.285326 -13.58194,-0.403648 -6.2089,-0.118322 -12.32077,-0.277786 -13.58196,-0.354383 -3.54518,-0.215318 -27.05645,-0.142769 -29.63333,0.09144 -1.26117,0.114644 -3.27332,0.225293 -4.47146,0.245904 -2.0302,0.03498 -2.19043,0.09768 -2.35532,0.922126 -0.0973,0.486568 -0.64294,1.229171 -1.21251,1.650281 -0.9589,0.70893 -1.11101,0.72671 -2.05438,0.23985 z" fill="#00B894" transform="translate(184.70725,50.681858)"/>
</svg>