<?xml version="1.0" ?><svg height="120.89588mm" viewBox="0 0 123.2804 120.89588" width="123.2804mm" xmlns="http://www.w3.org/2000/svg">
    <path color="#000" d="m 8104.7763,5469.4256 c 0,120.5952 -83.8192,226.9303 -204.9208,226.9303 -121.1015,0 -242.0098,-106.1065 -242.0098,-226.7017 0,-120.5951 106.5554,-218.5855 227.6569,-218.5855 121.1015,0 219.2737,97.7617 219.2737,218.3569 z" fill="#FFFFFF" overflow="visible" paint-order="fill markers stroke" transform="translate(262.73419,-108.78956) matrix(0.26458333,0,0,0.26458333,-2286.0664,-1279.2731)"/>
    <path d="m 7844.8924,5699.6993 c -11.7082,-0.8254 -46.2797,-11.525 -48.3996,-14.9793 -0.5864,-0.9556 -1.6233,-1.7374 -2.3041,-1.7374 -0.6808,0 -5.7232,-2.1 -11.2054,-4.6667 -5.4822,-2.5667 -10.5892,-4.6667 -11.3489,-4.6667 -36.9942,-18.396 -74.8129,-58.4443 -90.941,-90.3635 -5.4494,-9.8105 -10.4341,-18.1932 -15.6571,-27.9102 -2.9394,-5.4682 -6.8106,-14.6809 -6.8106,-16.208 0,-0.902 -1.4573,-6.2625 -3.2386,-11.9124 -7.2157,-22.8872 -9.6983,-53.9948 -6.1402,-76.939 4.8417,-31.2209 5.7015,-35.1491 9.6358,-44.0199 12.3132,-42.1403 43.1757,-77.1988 64.6453,-102.6076 17.4124,-12.4232 34.2142,-26.0773 50.7549,-35.4128 39.2528,-18.128 83.7054,-25.0762 128.4466,-20.8611 66.8404,7.1911 91.5951,16.2469 140.118,50.3074 20.4566,15.6286 37.9518,36.7584 47.9994,58.386 13.8245,29.5312 18.8788,45.7914 21.178,78.4119 1.6761,20.0171 2.0541,37.7333 0.8629,45.1294 -10.6819,63.8237 -9.0542,104.5582 -73.8134,176.2201 -2.0801,1.3381 -4.8271,3.7244 -6.1045,5.3028 -22.4309,22.688 -32.1509,22.2179 -59.0048,33.8988 -45.7248,11.9093 -87.3893,8.0824 -128.6727,4.6282 z m 149.7689,-32.2186 c 2.073,-1.7408 4.173,-3.173 4.6667,-3.1827 0.4937,-0.01 4.1977,-3.0018 8.231,-6.649 4.0334,-3.6472 7.7834,-6.6392 8.3334,-6.649 0.55,-0.01 1,-0.5576 1,-1.2175 0,-0.6598 -5.3924,1.4402 -11.983,4.6667 -6.5907,3.2266 -12.7707,5.8665 -13.7334,5.8665 -0.9626,0 -2.3203,0.4775 -3.017,1.0611 -2.3504,1.9691 -8.229,4.7783 -17.9333,6.2373 -1.8333,0.2756 -5.1333,0.843 -7.3333,1.2609 -29.8757,6.054 -54.9504,6.353 -80.195,5.1937 -19.9193,-3.6967 -41.9538,-4.0894 -92.24,-24.79 -2.1628,-1.7836 -4.1806,0.8254 -4.2113,5.4453 -0.016,2.3858 1.3991,3.7165 6.313,5.9374 3.4833,1.5743 6.9866,2.7364 7.7851,2.5825 0.7984,-0.1539 2.5437,0.9269 3.8784,2.4016 1.915,2.1161 8.8622,5.0587 14.0031,5.9312 0.3667,0.062 1.2667,0.4712 2,0.9088 4.4743,2.67 44.9674,11.5805 72.2652,15.9019 42.4446,-0.1683 80.421,-8.0457 102.1704,-20.9067 z m -23.7689,-19.2017 c 2.2,-0.892 5.7045,-1.7831 7.7878,-1.9802 2.0833,-0.1972 4.4533,-1.0241 5.2667,-1.8374 0.8133,-0.8134 2.4088,-1.4878 3.5455,-1.4986 32.1548,-12.3365 61.381,-39.6428 68.7356,-47.4972 16.4921,-19.0105 29.1429,-52.9745 31.8387,-74.4829 0.3573,-2.9333 1.0602,-8.435 1.5619,-12.2259 l 0.9121,-6.8925 -16.4908,-0.1747 c -9.07,-0.096 -20.0909,-0.3929 -24.4909,-0.6595 -4.4,-0.2667 -17.9,-0.896 -30,-1.3984 -35.5469,-0.1905 -76.9792,-5.204 -104.6666,-6.5283 -4.4,-0.2081 -9.8222,-0.8199 -12.0493,-1.3595 -3.559,-0.8623 -4.2854,-0.5239 -6,2.7955 -1.0729,2.0771 -3.6633,5.5765 -5.7565,7.7765 -3.5462,3.7272 -13.1238,15.6872 -20.8609,26.0502 -18.2674,19.0027 -31.2786,40.6097 -46.0448,59.9497 -2.5347,3.2999 -6.1997,8.3999 -8.1445,11.3333 -1.9447,2.9333 -6.3167,8.6333 -9.7155,12.6666 -7.4681,8.8625 -13.4285,16.8509 -13.4285,17.9978 0,1.3385 18.3796,9.2633 29.3333,12.6477 5.5,1.6993 11.2,3.6095 12.6667,4.2448 46.9065,12.3027 92.4153,18.4535 136,1.073 z m -198,-1.3841 c 0,-3.5184 -2.3333,-7.9123 -4.2016,-7.9123 -0.7926,0 -4.3638,-2.1455 -7.9361,-4.7678 -3.5722,-2.6222 -7.5526,-4.5522 -8.8453,-4.2888 -1.4639,0.2982 -3.2408,-0.9502 -4.7115,-3.3103 -1.2986,-2.084 -4.1448,-4.804 -6.3249,-6.0445 -2.1801,-1.2404 -3.9675,-2.6853 -3.9722,-3.2109 0,-0.5255 -1.9584,-2.93 -4.3417,-5.3433 -7.7175,-7.8145 -21,-23.2334 -21,-24.3777 0,-0.6123 -0.8875,-2.0941 -1.9723,-3.2927 -1.0847,-1.1986 -5.0487,-7.2458 -8.809,-13.4382 -12.1964,-20.0851 -15.8638,-26.6159 -15.8772,-28.2735 0,-0.558 -1.1372,-3.558 -2.517,-6.6667 -7.0093,-15.7912 -10.9166,-34.4563 -13.0454,-62.3188 -0.9078,-11.8807 -0.8936,-12.3581 0.9523,-32 1.8833,-20.0405 2.3489,-23.7689 3.3699,-26.9859 0.5655,-1.7817 0.3557,-2.3753 -0.6252,-1.7691 -0.8119,0.5018 -1.4761,2.257 -1.4761,3.9003 0,1.6434 -0.6783,3.6663 -1.5073,4.4953 -0.829,0.829 -1.7428,5.599 -2.0308,10.6 -0.2879,5.001 -1.1111,12.0927 -1.8292,15.7594 -1.8952,9.6758 -0.6179,36.2025 2.6323,54.6667 2.8552,16.2202 8.8591,36.9654 10.9334,37.7777 0.6242,0.2445 1.1349,1.3063 1.1349,2.3596 0,2.0324 12.904,27.3812 14.5199,28.523 0.5238,0.3701 1.93,2.773 3.1249,5.3395 2.1187,4.5513 25.733,34.6302 34.5865,44.0549 2.4394,2.5969 9.8354,8.9324 16.4354,14.079 21.3235,16.6279 23.3333,17.6998 23.3333,12.4451 z m 10.5876,-27.5881 c 1.7898,-2.745 4.8347,-6.7909 6.7664,-8.9909 4.9446,-5.6316 21.3127,-28.4989 21.3127,-29.7754 12.3179,-14.923 22.8958,-28.8779 36.3581,-46.0939 3.497,-4.4718 8.2574,-10.8305 10.5787,-14.1305 2.3212,-3.3 4.5855,-6.3 5.0316,-6.6667 0.4461,-0.3667 5.277,-6.0077 10.7353,-12.5357 l 9.9242,-11.869 0.176,-8.9702 c 0.097,-4.9336 -0.2942,-12.1926 -0.8689,-16.131 -2.8733,-19.6885 -3.9329,-134.9375 -1.3669,-148.6727 0.9729,-5.2075 0.847,-41.0607 -0.1679,-47.8214 -15.7109,-6.6316 -63.6016,1.9606 -82.4002,14 -9.1669,4.62 -17.5336,10.4075 -26,15.2919 -14.7794,8.4919 -38.5038,31.6903 -42.7593,41.8113 -0.9042,2.1505 -2.3168,4.3257 -3.1389,4.8339 -1.3631,0.8424 -4.24,5.8688 -13.3077,23.2508 -16.2999,31.2454 -24.083,61.4202 -24.6273,95.4788 -0.2829,17.6963 0.9115,28.201 5.7609,50.6666 1.9744,9.1471 7.5744,23.8559 12.4371,32.6667 2.226,4.0333 5.5301,10.0333 7.3426,13.3333 1.8125,3.3 4.3448,7.2 5.6274,8.6667 1.2825,1.4667 3.0989,4.1666 4.0363,6 6.2904,12.3025 37.1918,43.8568 43.1364,44.0478 0.8208,0.026 3.2925,1.5234 5.4925,3.3267 2.2,1.8033 4.6,3.2776 5.3333,3.2763 0.7333,0 2.7977,-2.2484 4.5876,-4.9934 z m 310.012,-140.9575 c 0.4532,-5.8849 1.1488,-13.4682 1.5457,-16.8516 0.6214,-5.2972 0.3636,-6.2452 -1.8558,-6.8256 -1.4176,-0.3707 -3.7068,-0.042 -5.0871,0.7304 -1.3802,0.7725 -3.7154,1.5918 -5.1893,1.8208 -7.2333,1.1237 -22.2616,2.999 -30.0131,3.7452 -4.7667,0.4589 -9.5667,1.1807 -10.6667,1.604 -1.1,0.4233 -4.3212,0.9519 -7.1582,1.1747 -2.8371,0.2227 -6.1371,0.8212 -7.3334,1.3299 -2.3487,0.9987 -5.1738,1.4471 -15.5084,2.4611 -3.6667,0.3597 -9.9667,1.3002 -14,2.0898 -4.0333,0.7896 -11.4531,2.0252 -16.4885,2.7457 -5.0353,0.7205 -9.8353,1.7355 -10.6666,2.2554 -2.1875,1.368 -4.3044,1.7072 -15.9873,2.5612 -12.1959,0.8916 -17.1572,2.0245 -17.8403,4.0737 -0.3376,1.013 0.9603,1.1422 4.1798,0.4161 2.5681,-0.5792 4.8914,-0.8311 5.1627,-0.5598 0.8107,0.8107 11.6352,2.0345 22.3069,2.522 5.5,0.2512 13.3,0.7939 17.3333,1.206 6.5466,0.669 17.0887,1.2345 52.4626,2.8145 5.7544,0.2571 10.6579,0.6627 10.8966,0.9014 0.2388,0.2387 10.0301,0.4455 21.7586,0.4596 l 21.3244,0.026 0.8241,-10.7 z m -164.2663,-10.5768 c 1.2833,-0.015 2.3333,-0.3493 2.3333,-0.7422 0,-0.3928 1.65,-0.7697 3.6667,-0.8375 2.0167,-0.068 6.0667,-0.5829 9,-1.1447 6.958,-1.3325 10.334,-1.8038 20,-2.7916 4.4,-0.4497 9.2,-1.3175 10.6667,-1.9284 1.4666,-0.611 8.9666,-1.7925 16.6666,-2.6256 7.7,-0.8331 15.8,-2.0206 18,-2.6389 4.4324,-1.2457 32.7588,-5.8371 49.3334,-7.9964 14.092,-1.8358 17.1223,-2.3014 27.0878,-4.1617 l 8.4211,-1.572 -0.4987,-12.1754 c -0.4896,-11.9519 -1.9539,-21.8579 -6.5591,-33.6088 -3.0126,-10.1231 -8.1715,-19.072 -15.314,-29.138 -1.1115,-3.4925 -5.1721,-1.4366 -12.3938,4.0487 -3.5888,2.726 -7.3419,5.576 -8.3404,6.3334 -0.9984,0.7574 -3.5945,3.0271 -5.7692,5.0437 -2.1746,2.0167 -4.8465,3.6667 -5.9374,3.6667 -27.0831,18.948 -46.182,33.8219 -83.8074,59.1456 -0.2445,0.55 -0.9972,1 -1.6727,1 -1.4784,0 -17.8629,11.17 -22.5496,15.3729 -1.8333,1.6441 -5.2833,3.9732 -7.6666,5.1758 -5.2964,2.6724 -5.5988,3.8299 -0.6667,2.5522 2.0167,-0.5225 4.7167,-0.9625 6,-0.9778 z m -12.3333,-14.297 c 8.4333,-5.5957 16.5333,-11.1475 18,-12.3374 36.8707,-25.3121 70.1649,-46.2585 105.5516,-72.5057 6.9667,-5.1622 13.7969,-10.6638 15.1782,-12.2257 1.3813,-1.562 3.0356,-2.5162 3.6761,-2.1203 0.6405,0.3959 1.4976,-0.1483 1.9047,-1.2092 1.1482,-2.9921 -8.2786,-16.5896 -18.6796,-26.944 -10.126,-10.0806 -23.5363,-20.1962 -33.7333,-25.4456 -20.3589,-9.8464 -39.1488,-21.733 -57.2311,-24.5003 -5.5,-0.8305 -10.6,-1.9763 -11.3333,-2.5461 -1.7607,-1.3682 -13.8567,-3.6465 -24.6667,-4.6461 -4.7666,-0.4408 -11.5721,-1.1214 -15.1233,-1.5124 -5.9331,-0.6533 -5.3199,-0.1236 -4.5659,2.252 7.9723,39.9064 1.8476,77.5014 1.8316,107.9147 -0.01,46.1447 1.4409,87.1402 3.0552,86.3786 0.4413,-0.2082 7.7024,-4.9569 16.1358,-10.5525 z" fill="#00B894" transform="translate(262.73419,-108.78956) matrix(0.26458333,0,0,0.26458333,-2286.0664,-1279.2731)"/>
</svg>