<?xml version="1.0" ?><svg height="338.53067mm" viewBox="0 0 191.21869 338.53067" width="191.21869mm" xmlns="http://www.w3.org/2000/svg">
    <path d="m 16683.814,2416.4395 c -24.515,-0.267 -66.236,16.4105 -83.431,41.0195 -18.975,27.1546 -16.954,108.8982 -12.444,147.3906 4.511,38.4924 5.056,82.8635 42.383,102.1797 0,0 44.249,30.5149 95.186,28.2754 50.936,-2.2396 82.432,-50.8105 89.508,-71.7363 7.076,-20.926 -32.196,-55.8496 -32.196,-55.8496 0,-1e-4 21.387,-20.7159 28.153,-53.6094 6.765,-32.8935 -23.487,-51.3692 -23.487,-51.3692 0,0 -14.231,-53.8201 -24.185,-65.9277 -9.954,-12.1075 -49.847,-15.4652 -72.477,-19.7344 -2.121,-0.4002 -4.474,-0.611 -7.01,-0.6386 z m -51.13,333.373 -28.774,41.2227 c -19.603,-3.7271 -60.337,16.0452 -76.357,32.8418 -16.02,16.7967 -39.428,84.332 -39.428,84.332 l 71.606,32.1519 c -15.358,25.1661 -36.64,193.6916 -26.219,222.3832 10.475,28.8417 66.279,68.0235 66.279,68.0235 0,0 -21.052,108.7444 -24.473,155.7051 -3.422,46.9607 -5.445,212.6171 -5.445,212.6171 0,0 122.324,-1.0484 122.404,-2.2382 0.08,-1.1898 15.864,-331.1758 15.864,-331.1758 l 48.759,2.1699 -9.955,322.0762 123.803,-5.3887 c 0,0 -8.492,-290.3906 -11.291,-312.1562 -2.8,-21.7657 -9.02,-37.9325 0.701,-50.25 9.72,-12.3175 43.082,-101.8999 42.071,-141.5821 -1.012,-39.6821 -39.981,-169.0644 -39.981,-169.0644 l 34.061,-42.7598 c 0,0 -3.189,-19.6669 -13.532,-42.9023 -10.343,-23.2355 -48.992,-39.6118 -78.154,-48.92 -29.162,-9.3081 -42.227,-19.7363 -42.227,-19.7363 0,0 -4.82,12.7378 -7.542,26.0352 -2.723,13.2974 -20.764,46.9609 -20.764,46.9609 l -30.096,-62.2891 z" fill="#FFFFFF" paint-order="markers stroke fill" transform="translate(-19.225149,35.842524) translate(-898.26844,-215.55376) matrix(0.26458333,0,0,0.26458333,-3417.4795,-450.03122)"/>
    <path d="m 960.20114,517.16909 c -1.1971,-0.82323 -2.0882,-2.94921 -1.9796,-4.7263 0.1455,-2.42658 1.175,-3.50471 4.1463,-4.34306 4.4964,-1.26902 4.6777,-1.60163 2.323,-4.25983 -3.7867,-4.2744 -0.5372,-62.04132 4.884,-86.8324 l 2.3279,-10.64392 -4.5354,-2.66782 c -5.5724,-3.28181 -13.1147,-12.49841 -13.9758,-17.07718 -1.1438,-6.09512 0.96743,-22.85657 2.6446,-28.62794 1.05729,-3.63827 3.63771,-7.65671 4.16103,-4.64513 0.25488,1.46679 0.65454,6.80242 0.38479,13.66655 -0.45199,11.50151 1.49033,13.96961 6.82038,14.89303 10.04947,1.74106 28.85832,2.89566 40.27186,1.60831 10.8502,-1.2245 20.8793,-3.84779 35.4718,-9.27974 8.5178,-3.17211 8.0593,-1.04031 4.9491,-23.03379 -1.6569,-11.71681 -4.9318,-22.85308 -13.3562,-45.40964 -4.7612,-12.74663 -1.2109,-12.66428 5.9534,0.13764 2.0299,3.62954 4.0718,6.62239 4.5372,6.64946 0.4643,0.0291 1.6694,-1.10606 2.6765,-2.52145 5.1837,-7.28179 -6.9344,-22.03016 -17.0266,-20.72534 -2.5129,0.32474 -4.7408,-0.5913 -7.7499,-3.18957 -2.322,-2.00377 -4.5526,-3.66272 -4.9539,-3.68687 -0.4024,-0.0292 -0.8727,2.29564 -1.0453,5.15754 -0.3315,5.47648 -3.4436,13.0801 -5.8913,14.39743 -2.6758,1.43896 -6.2628,-2.14927 -8.1465,-8.14924 -1.0306,-3.27483 -2.229,-5.96302 -2.666,-5.97291 -0.43734,0 -2.24074,2.79993 -4.00874,6.24354 -3.5717,6.95588 -6.131,8.40036 -11.0044,6.21122 l -3.2807,-1.47358 -0.011,7.44358 c -0.011,7.12263 -5.1205,23.23429 -7.8244,24.68663 -0.56342,0.3035 -1.62502,1.66069 -11.03442,-0.15917 -2.7069,-0.5235 -4.2957,3.1043 -8.1709,12.62557 -6.4894,15.94958 -13.3329,43.17511 -11.2273,44.65946 1.2146,0.85697 5.8381,15.01405 7.1451,21.88291 1.1167,5.87689 -5.5493,5.10809 -8.8544,-1.01992 l -1.9901,-3.69182 -0.4044,6.05032 c -0.6358,9.56112 -3.5007,9.2681 -5.9497,-0.6076 l -1.1418,-4.6003 -1.2682,4.733 c -2.3285,8.69513 -7.7538,9.40661 -7.2427,0.95008 0.2781,-4.60407 0.2597,-4.62154 -2.5248,-2.3937 -2.2627,1.81114 -2.9917,1.89815 -3.7721,0.44696 -1.7953,-3.33884 3.2051,-13.51048 10.0826,-20.51583 3.01,-3.06444 4.2337,-5.82072 5.2786,-11.89052 1.9709,-11.43979 6.8648,-24.83882 13.6814,-37.45829 3.2794,-6.0698 4.2644,-8.97624 5.17,-10.76874 0.9055,-1.79165 -2.4548,-2.34045 -5.1992,-4.0544 -4.6934,-2.93262 -4.9521,-3.43284 -4.325,-8.37709 0.8377,-6.59738 6.9329,-18.55484 11.8044,-23.15601 4.0969,-3.8699 10.6428,-6.62997 15.1662,-6.39339 2.1397,0.10943 4.1118,-1.53672 7.20412,-6.0186 4.5858,-7.54252 4.2386,-6.17339 12.5974,-4.88982 12.04934,1.8478 16.32094,5.33679 20.25224,16.53621 0.9858,2.81128 3.5608,-2.4519 3.6644,-7.49508 0.1668,-7.94089 0.321,-8.22985 5.437,-10.01363 7.1342,-2.48769 8.9966,-1.91473 12.288,3.77795 2.4789,4.28719 3.9155,5.35746 8.3578,6.22782 8.8453,1.73548 17.1305,13.30882 16.6856,23.31198 -0.1446,3.14592 0.9256,4.71728 5.674,8.35671 6.5633,5.03359 12.1117,7.83439 13.3487,6.73793 1.2312,-1.09064 1.7983,-14.82024 1.1876,-28.76721 -0.3868,-8.82987 -1.2196,-13.3874 -2.9344,-16.04357 -5.5038,-8.5255 -8.1904,-13.58323 -8.0905,-15.23432 0.16,-2.62999 4.5645,-1.84577 7.0461,1.25359 3.3331,4.16003 4.3267,3.42906 4.7446,-3.4919 0.4536,-7.51342 1.5571,-10.37155 3.9476,-10.22693 2.6062,0.15685 4.1641,4.56014 3.7929,10.71929 -0.4054,6.70097 0.7821,5.82362 4.7384,-3.50268 1.8594,-4.38583 3.787,-7.12087 4.9678,-7.049 2.156,0.12978 2.1997,5.69356 0.087,11.01318 -1.044,2.63 -0.4583,2.35588 3.4852,-1.63071 5.0036,-5.06065 7.8102,-4.96666 7.4952,0.25403 -0.1023,1.63538 -1.43,4.38089 -2.9589,6.09891 -3.0149,3.39123 -3.9263,6.0765 -1.2594,3.7151 2.6749,-2.37043 7.5987,-1.4765 7.429,1.3505 -0.1754,2.89945 -11.6024,9.92517 -17.8672,10.63693 -4.3441,0.49352 -4.1813,0.62621 -4.2955,4.71844 -0.5382,19.33993 -2.7447,39.81212 -6.2291,42.89984 -5.2681,4.66693 -14.2918,1.33972 -26.5312,-9.78288 -5.4914,-4.98993 -6.0681,-2.24034 -2.0564,9.80411 2.0826,6.25314 4.8183,18.35202 6.0796,26.88624 2.7319,12.23186 2.4829,14.92325 -1.0527,26.05749 -1.842,5.7954 -5.2585,13.23695 -7.592,16.53797 l -4.2462,6.00027 3.3049,31.497 c 3.9466,37.60959 4.3121,61.54866 0.9558,62.40069 -6.6564,1.68891 -6.6186,1.92723 0.6982,4.43734 8.2635,2.83572 11.0206,5.90772 8.4564,9.42408 -3.585,4.91514 -27.6833,-0.10767 -33.1248,-6.90351 -1.4928,-1.86438 -3.8128,-2.77374 -7.6693,-3.00741 -3.0413,-0.18303 -5.847,-0.92389 -6.2358,-1.64498 -1.3971,-2.6003 -1.0973,-60.57528 0.3754,-72.19927 l 1.5036,-11.88761 -3.4116,-0.20661 -3.4116,-0.20456 -0.3821,19.72491 c -1.3776,71.78228 -0.7434,67.39266 -9.87864,68.37272 -2.9928,0.32271 -5.182,1.27368 -5.2419,2.28109 -0.3393,5.60451 -25.06472,12.92588 -30.65752,9.07722 z m 24.13312,-18.98318 c 11.0325,-1.41538 11.7576,-1.70144 11.9388,-4.70476 0.2113,-3.49889 0.3278,-3.46311 -8.5786,-2.6943 -3.3991,0.29273 -8.8145,0.70188 -12.032,0.90731 -5.00252,0.31922 -5.87612,0.79703 -6.02822,3.30422 -0.1737,2.8849 0.7094,4.78712 2.1967,4.72513 0.4169,-0.009 6.04272,-0.70973 12.50332,-1.5376 z m 55.43214,-3.34583 c 3.2942,0.19788 3.7054,-0.21708 3.9333,-3.99998 l 0.2549,-4.22288 -12.9038,-0.7493 -12.9035,-0.75048 -0.3189,5.26696 c -0.1754,2.89887 0,5.63187 0.3963,6.07476 0.8466,0.95708 6.3734,0.37712 11.8499,-0.52349 3.2168,-0.4167 6.5625,-1.24662 9.6918,-1.09559 z m -42.98324,-9.79742 0.1552,-6.42744 c 0.077,-3.53468 0.7484,-18.94331 1.4811,-34.24368 l 1.3301,-27.81684 -11.3592,-4.18504 c -6.2481,-2.30176 -11.6722,-3.91007 -12.0523,-3.57368 -2.22602,1.97205 -7.76952,66.11695 -6.50502,75.27738 0.5718,4.14926 0.6204,4.17546 6.68802,3.7119 7.1917,-0.52814 12.8108,-1.54516 20.2621,-2.7426 z m 46.51314,-5.30391 c 0.5041,-0.44872 -0.039,-12.41199 -1.2119,-26.58274 -1.1692,-14.17161 -2.3023,-29.53689 -2.5168,-34.14562 -0.2142,-4.60874 -0.7717,-8.4024 -1.2417,-8.43063 -0.4682,-0.0291 -2.0436,0.66142 -3.5027,1.53382 -1.4572,0.87065 -5.4709,2.45656 -8.9171,3.52101 l -6.2697,1.93713 -0.7493,12.40529 c -1.2324,20.39275 -1.6616,51.20331 0.187,51.31476 7.6985,-0.78132 16.2474,1.9479 24.2222,-1.55302 z m -19.1827,-71.52243 c 3.9958,-1.55215 9.2805,-4.32589 11.742,-6.16584 4.7989,-3.5859 11.4533,-13.81282 11.7065,-17.99438 0.1492,-2.46528 -0.098,-2.4583 -7.2798,0.2133 -20.5994,7.6598 -42.32404,9.61817 -64.90584,5.84807 -7.02202,-1.17328 -12.98532,-1.94005 -13.24982,-1.70435 -1.1876,1.05079 7.8768,10.84442 11.8585,12.8124 19.92252,9.84398 36.74396,12.18996 50.12846,6.9908 z m -52.36416,-84.235 c 0.8483,-0.47228 2.3821,-4.23278 3.40492,-8.35788 1.6238,-6.545 1.5888,-8.23188 -0.2753,-13.24306 -4.26102,-11.45318 -13.41762,-9.42409 -21.64052,4.79526 -2.8435,4.91894 -5.2187,9.73719 -5.2777,10.70677 -0.078,1.22827 1.7489,1.90309 6.0174,2.22959 3.3668,0.26189 8.1077,1.37493 10.5333,2.48099 5.3892,2.45744 5.331,2.44695 7.2379,1.38833 z m 21.46702,-34.7439 c 4.3984,-6.56334 3.6567,-8.01742 -4.3558,-8.53509 -3.906,-0.25608 -5.2003,0.37421 -7.5782,3.67232 -3.66701,4.25825 -2.52176,4.21944 1.7051,7.1846 2.5147,1.76457 4.982,3.25067 5.4835,3.30392 0.5019,0.0486 2.6366,-2.47897 4.7454,-5.62575 z m -4.47012,-17.6132 c -14.7873,-6.35266 -17.00794,-9.55344 -18.72974,-26.10887 -0.9597,-9.22359 -4.72776,-15.32249 -7.21136,-15.56401 -0.6108,-0.0582 -0.8503,1.94762 -0.5343,4.45975 0.6524,5.19043 -1.7168,6.31511 -2.6641,1.26611 -1.0606,-5.65107 0.346,-9.18692 3.5319,-8.88051 2.7833,0.26772 2.9238,-0.15102 3.5501,-10.53334 0.637,-10.54293 2.4061,-15.713 7.06852,-20.65521 0.9538,-1.01033 2.2357,-3.91298 2.8481,-6.44898 1.4757,-6.09221 5.4096,-9.07051 11.6918,-8.8485 2.7826,0.10009 4.5547,0.7563 5.242,0.90267 5.99614,-3.14796 11.22274,-0.98384 14.34824,3.1238 1.3485,1.77302 2.0554,3.2175 2.6475,4.42832 6.4918,0.39284 14.1591,10.52752 13.7017,18.10962 -0.1156,1.85944 0.9908,4.00871 2.7239,5.29926 3.9963,2.97802 6.5247,10.96459 6.0091,15.95075 -0.3163,3.0624 -1.1772,4.78128 -1.1772,4.78128 3.4125,0.83458 2.8483,6.52464 -1.0498,6.28894 -3.9205,-0.2357 -4.2317,1.13341 -1.0054,4.42744 1.3165,1.34467 2.9161,4.4228 3.5551,6.84152 1.0249,3.87398 0.701,5.10139 -2.731,10.36078 -4.7872,7.33418 -10.0657,10.9731 -14.8045,13.0953 -5.1867,2.32183 -18.9018,1.1853 -27.01056,-2.29612 z m 26.98816,-4.58183 c 2.566,-2.27556 2.4371,-2.33463 -7.9313,-3.67814 -6.1842,-0.80082 -11.20824,-2.12046 -12.15334,-3.19161 -1.3467,-1.52393 0.3597,-1.73256 10.27724,-1.25446 19.5213,0.93931 26.5161,-3.41247 19.0405,-11.84892 -2.7641,-3.11886 -3.7666,-3.44536 -9.2069,-2.98501 -8.2998,0.70305 -20.77024,5.54342 -23.41284,9.08973 -2.6089,3.50181 -3.2866,11.1616 -1.1633,13.13249 4.1501,3.85157 20.48004,4.34015 24.54994,0.73592 z m -30.24754,-11.0385 c 0,-4.8855 4.0902,-7.95166 11.40284,-11.97871 2.2511,-1.23904 2.0574,-1.42615 -1.79344,-1.72762 -5.5562,-0.43328 -12.1358,-7.5559 -12.9482,-14.01448 -1.3282,-10.56243 7.8448,-18.53912 18.84144,-16.38112 3.911,0.76589 4.7146,2.27614 4.96,1.65575 1.7663,-4.47808 12.254,-5.77038 15.0905,-4.09688 -2.0757,-12.04854 -7.1459,-14.35029 -17.1245,-15.61523 -8.28034,-1.03652 -11.06274,0.0291 -11.06274,0.0291 -0.8017,2.64658 -3.6092,2.45859 -4.1764,1.19918 -2.9754,0.52554 -11.7752,5.26522 -13.7899,13.1645 -1.4028,5.50063 -1.1641,16.08518 0.6837,17.46099 1.397,1.03825 4.1521,10.07851 3.9612,12.99659 -0.078,1.29521 -0.916,0.81623 -2.5168,-1.4474 l -2.3896,-3.38046 0.5768,3.91938 c 1.71452,11.65023 3.3883,18.19022 5.2456,20.51031 2.9726,3.71189 5.0395,3.48027 5.0395,-2.28895 z m 29.96904,-16.93954 c 0.3393,-0.29943 -0.7822,-1.09442 -2.096,-1.90309 -1.8662,-1.14768 -2.5709,-1.05746 -4.3751,0.80867 -1.271,1.31557 -2.3267,2.63406 -2.3442,2.93058 -0.038,0.62913 7.8993,-1.02575 8.8153,-1.83616 z m -11.1352,-3.7314 c 5.7538,-4.97248 5.8827,-9.27683 2.6533,-14.27259 -4.2578,-6.58661 -9.8661,-6.73007 -15.69764,-2.90934 -2.856,1.87195 -4.343,3.99707 -3.9932,8.78331 0.4431,6.0669 4.8892,11.22561 9.84404,11.52505 1.7237,0.10382 5.0123,-1.24167 7.1935,-3.12643 z m -10.19314,-8.24236 c -0.9675,-1.09354 0.3189,-3.03824 1.9467,-2.9396 0.6682,0.0389 1.16134,0.94427 1.09644,2.00872 -0.1172,1.99534 -1.67614,2.4714 -3.04314,0.93088 z m 31.10824,4.45568 c 0.9367,-0.64193 1.6269,-3.82568 1.7626,-6.09017 0.3238,-5.35542 -5.0392,-11.40399 -10.3713,-11.69761 -6.4769,-0.36258 -7.7828,1.13603 -4.8627,6.82784 1.5276,2.97832 2.5913,7.0976 1.395,11.58993 -0.3288,1.23614 1.2573,1.73257 4.0398,1.61618 2.7647,-0.40535 5.7409,-0.67365 8.0366,-2.24617 z m -9.326,-7.31846 c -0.2452,-1.16921 0.8267,-2.96084 2.3032,-1.92055 0.7543,0.53107 1.0694,1.45205 1.0008,2.22668 -0.068,0.77375 -0.5218,1.40084 -1.3052,1.34467 -1.3697,-0.099 -1.7575,-0.49817 -1.9988,-1.6508 z m -30.46664,-35.62328 c 2.3626,-0.82292 3.3621,-1.34759 3.9313,-2.20368 1.8478,-2.78626 1.0663,-2.73387 -0.7222,-2.84241 -2.923,-0.17635 -6.7213,1.80124 -7.7346,4.02907 -1.079,2.37247 -1.203,3.0141 4.5255,1.01702 z m 19.25064,-1.76835 c -0.9896,-1.85828 -3.1546,-3.23614 -4.8869,-3.34176 -1.7325,-0.10273 -4.45574,0.93379 -5.32264,3.02108 -0.2723,0.65706 3.97004,0.31893 6.14094,0.45074 2.3023,0.13852 4.4848,0.65241 4.0686,-0.13006 z" fill="#00B894" transform="translate(-19.225149,35.842524) translate(-898.26844,-215.55376)"/>
</svg>