<?xml version="1.0" ?><svg height="103.93986mm" viewBox="0 0 164.08084 103.93986" width="164.08084mm" xmlns="http://www.w3.org/2000/svg">
    <path color="#000" d="m 9573.2333,4171.7655 c -8.3493,10e-5 -15.1175,6.3408 -15.117,14.1621 -5e-4,7.8213 6.7677,14.162 15.117,14.1621 8.3493,-1e-4 15.1175,-6.3408 15.117,-14.1621 5e-4,-7.8213 -6.7677,-14.162 -15.117,-14.1621 z m 95.17,98.8301 c -7.2078,0.065 -13.0227,7.1708 -13.023,15.9141 -3e-4,8.7902 5.8743,15.9162 13.121,15.916 7.2467,2e-4 13.1213,-7.1258 13.121,-15.916 -5e-4,-8.7895 -5.8749,-15.9143 -13.121,-15.9141 -0.033,-2e-4 -0.067,-2e-4 -0.1,0 z m 131.26,19.8516 c -7.0716,0.023 -12.7912,5.4949 -12.791,12.2363 9e-4,6.7573 5.7476,12.2347 12.836,12.2344 7.0876,-8e-4 12.8331,-5.4778 12.834,-12.2344 2e-4,-6.7573 -5.7456,-12.2355 -12.834,-12.2363 -0.013,0 -0.027,0 -0.04,0 z m -429.551,3.166 c -10.1355,0.058 -18.3139,6.6488 -18.314,14.7597 2e-4,8.1517 8.2583,14.7598 18.445,14.7598 10.1867,0 18.4448,-6.6081 18.445,-14.7598 -2.4934,-13.9805 -7.6741,-12.7236 -18.576,-14.7597 z m 110.623,41.7558 c -8.4745,0.043 -15.3204,6.5239 -15.32,14.5039 9e-4,8.01 6.8975,14.5028 15.404,14.502 8.5058,-3e-4 15.4011,-6.4927 15.402,-14.502 3e-4,-8.01 -6.8954,-14.5036 -15.402,-14.5039 -0.027,-10e-5 -0.053,-10e-5 -0.08,0 z" fill="#FFFFFF" overflow="visible" paint-order="fill markers stroke" transform="translate(-11.537995,65.90717) matrix(0.26458333,0,0,0.26458333,-2441.1924,-1150.8634)"/>
    <path d="m 9290.0033,4483.5188 c 0.196,-3.5999 0,-9.6754 -0.424,-13.5012 -0.764,-6.8055 -0.872,-6.9528 -5.023,-6.8084 -7.491,0.2608 -12.58,-1.5004 -13.423,-4.6451 -2.234,-13.4521 -1.138,-11.7925 8.893,-12.2355 4.242,-0.1856 7.873,-0.5662 8.068,-0.8461 0.871,-1.2486 -1.927,-65.6023 -3.268,-75.1756 -2.665,-19.0287 -3.693,-31.726 -3.726,-46 -0.03,-15.5248 -0.01,-14.5812 -0.878,-36 -1.229,-22.8745 -1.911,-40.3824 -1.863,-67.3333 0.895,-8.8 1.539,-20.8 1.432,-26.6667 -0.309,-16.9679 -1.376,-54.474 -1.612,-56.6666 -0.118,-1.1 -0.05,-9.3757 0.154,-18.3903 0.302,-13.475 0.748,-16.5763 2.507,-17.4356 3.953,-1.9315 10.114,-1.4624 13.341,1.0159 2.958,2.2718 3.245,3.5612 3.774,16.9676 0.314,7.98 0.712,44.809 0.884,81.8424 0.178,38.4429 0.977,74.1984 1.861,83.3333 0.852,8.8 1.564,25.75 1.581,37.6667 0.02,11.9166 0.488,21.6666 1.045,21.6666 0.558,0 2.667,-1.5329 4.688,-3.4066 5.961,-5.5271 34.637,-24.1034 38.772,-25.1157 3.18,-0.7785 3.654,-1.4158 2.88,-3.8715 -8.981,-18.3045 13.233,-25.6025 25.814,-22.5468 4.247,0.7395 5.737,2.3969 8.026,2.7569 8.824,1.3883 13.456,9.1778 13.494,17.6745 0.01,2.6634 0.445,3.8412 1.057,2.8771 1.526,-2.4009 8.969,-1.3234 19.589,2.8357 12.413,4.8612 15.266,6.2245 20,9.5604 2.2,1.55 7.6,3.8474 12,5.1053 4.4,1.2579 9.042,2.8519 10.316,3.5422 4.125,2.2367 12.88,1.4371 16.913,-1.5448 2.169,-1.6039 5.803,-2.8 8.507,-2.8 4.384,0 5.001,-0.5374 8.655,-7.5333 2.164,-4.1434 6.021,-11.4334 8.572,-16.2 2.55,-4.7667 6.267,-12.5667 8.259,-17.3334 1.993,-4.7666 5.041,-11.6666 6.775,-15.3333 1.733,-3.6667 6.814,-15.3667 11.291,-26 4.478,-10.6333 8.963,-20.8333 9.968,-22.6667 1.005,-1.8333 2.701,-5.1333 3.77,-7.3333 8.737,-17.9906 9.199,-19.2748 8.338,-23.1955 -1.044,-18.6169 11.573,-26.6631 28.404,-24.2934 7.351,1.162 11.326,3.8692 14.394,9.8016 1.634,3.1599 1.628,4.277 -0.05,8.2856 l -1.936,4.6333 12.322,12.3842 c 22.869,26.4018 37.012,44.8959 50.5,58.4379 3.715,3.4433 5.064,3.9108 9.462,3.2782 7.726,-1.1116 13.254,0.4219 18.571,5.1522 3.913,3.481 4.964,5.5232 5.701,11.0748 0.768,5.7911 1.328,6.8034 3.751,6.7844 2.571,-0.019 15.423,0.8374 33.515,2.2367 3.666,0.2835 6.666,0.6262 6.666,0.7614 0,0.2755 31.263,1.708 40.868,1.8726 4.233,0.072 7.048,-0.6611 8.873,-2.313 6.857,-6.2051 24.079,-7.5541 26.99,-2.1142 0.75,1.4006 2.237,2.5465 3.305,2.5465 3.44,0 9.964,8.0725 9.964,12.3296 0,10.6459 -10.39,20.3845 -21.157,19.8308 -3.204,-0.1648 -8.604,-1.7655 -12,-3.5571 -5.774,-3.0456 -7.256,-4.4282 -13.207,-12.3243 -2.01,-2.667 -3.74,-3.1255 -13.636,-3.6154 -47.396,-2.3466 -51.17,-2.6303 -67.087,-5.0454 -10.874,-1.6498 -11.847,-1.6097 -12.995,0.5347 -1.457,2.7236 -14.366,7.8471 -19.77,7.8471 -18.169,-3.5539 -14.647,-15.1569 -10.528,-25.9022 l -4.961,-4.5874 c -9.425,-8.9852 -15.887,-16.0632 -22.126,-24.2368 -2.497,-3.2715 -5.739,-7.2534 -7.203,-8.8486 -1.465,-1.5953 -3.267,-3.6935 -4.006,-4.6627 -7.634,-10.0166 -15.741,-19.7401 -18.85,-22.609 -2.094,-1.9323 -5.999,-5.9857 -8.678,-9.0076 -3.33,-3.7561 -5.559,-5.2302 -7.046,-4.6596 -1.197,0.4591 -4.405,0.992 -7.129,1.1844 -6.911,0.4879 -6.954,0.5005 -6.954,2.052 0,0.764 -1.143,2.6164 -2.541,4.1165 -1.398,1.5001 -4.383,6.425 -6.634,10.9442 -2.25,4.5193 -5.303,10.0168 -6.783,12.2168 -1.48,2.2 -2.695,4.9272 -2.7,6.0603 -0.01,3.2152 -12.213,30.1177 -26.275,57.9397 -7.041,13.9334 -13.904,27.5363 -15.249,30.2288 -1.345,2.6924 -4.255,6.1833 -6.465,7.7574 -4.022,2.8637 -5.244,5.3472 -2.631,5.3472 3.37,0 9.278,8.3205 9.278,13.0658 0,3.8219 -4.864,9.3072 -11.053,12.4644 -13.254,6.7621 -32.383,-2.4246 -33.465,-16.0719 -0.09,-1.0977 -3.465,-2.8325 -8.149,-4.1843 -7.88,-2.2747 -20.247,-7.602 -23.612,-10.1713 -2.298,-1.755 -15.382,-7.2384 -20.388,-8.5446 -8.785,-2.2923 -14.57,-5.0485 -15.367,-7.3218 -0.591,-1.6841 -1.132,-1.9197 -1.826,-0.7954 -1.585,2.5641 -11.492,7.1234 -16.804,7.7337 -3.031,0.3481 -7.054,-0.4075 -10.585,-1.9885 -7.045,-3.1541 -3.582,-4.8505 -44.751,21.9228 -4.4,2.8615 -9.65,5.9286 -11.667,6.8158 -4.046,1.7803 -4.27,3.0547 -2.428,13.8304 1.525,8.9213 2.578,24.5278 3.594,53.2449 0.429,12.1 1.166,22.3718 1.64,22.8263 1.186,1.1385 10.463,2.4605 11.312,1.612 1.414,-1.4139 116.995,-0.1913 157.549,1.6668 8.8,0.4032 34,0.6132 56,0.4667 22,-0.1467 43.3,-0.229 47.333,-0.1833 35.522,0.403 46.274,0.1833 81.334,-1.6611 31.31,-1.6473 50.451,-1.9768 124.866,-2.1498 45.864,-0.1066 78.73,-0.7169 82.556,-1.533 5.203,-1.1096 7.021,-0.9643 10.007,0.7997 2.007,1.1856 4.542,2.1556 5.634,2.1556 2.324,0 3.603,2.7764 3.603,7.8216 0,2.6389 -1.14,4.2772 -4.261,6.1205 -3.989,2.3562 -7.885,2.5237 -61,2.6208 -127.22,0.8883 -222.148,6.0864 -365.405,2.7491 -21.634,-0.538 -64.135,-1.0564 -94.448,-1.1521 l -55.114,-0.1739 0.833,13.5539 c 1.767,19.0155 -21.711,21.7085 -20.915,6.3373 z m 196.395,-126.808 c 5.042,-2.9778 5.495,-4.5702 2.817,-9.8847 -1.874,-3.7201 -3.042,-4.4852 -7.23,-4.7353 -3.72,-0.2223 -5.335,0.3401 -6.333,2.2046 -2.131,3.9812 -1.563,9.1217 1.327,12.0115 3.251,3.2509 4.509,3.3048 9.419,0.4039 z m -114.529,-38.0705 c 3.923,-2.0465 9.593,-6.4914 10.79,-8.4585 0.488,-0.8021 0.3,-3.584 -0.417,-6.1819 -1,-3.6202 -2.156,-4.8903 -4.95,-5.4381 -4.925,-0.9652 -16.329,1.5689 -17.193,3.8203 -0.953,2.4842 1.79,10.3598 5.053,14.5082 3.139,3.9901 2.662,3.8658 6.717,1.75 z m 430.777,-11.4093 c 2.971,-2.5519 3.018,-7.7092 0.08,-8.8365 -1.489,-0.5714 -3.569,0.4523 -6.138,3.0208 -3.297,3.2968 -3.659,4.3074 -2.394,6.6721 1.602,2.9919 4.287,2.7197 8.451,-0.8564 z m -130.327,-16.2783 c 0.47,-1.4782 0.148,-4.8249 -0.714,-7.437 -6.062,-1.2172 -13.197,3.4731 -8.403,9.2357 0.488,0.4889 2.548,0.8889 4.576,0.8889 2.527,0 3.957,-0.8464 4.541,-2.6876 z m -94.012,-100.2716 c 7.411,-6.3049 0.69,-16.4092 -4.994,-10.5183 -5.701,-0.8221 -9.999,6.5415 -7.042,12.066 4.204,3.7493 10.088,2.9034 12.036,-1.5477 z" fill="#00B894" transform="translate(-11.537995,65.90717) matrix(0.26458333,0,0,0.26458333,-2441.1924,-1150.8634)"/>
</svg>