<?xml version="1.0" ?><svg height="149.88062mm" viewBox="0 0 90.567017 149.88062" width="90.567017mm" xmlns="http://www.w3.org/2000/svg">
    <path d="m 11519.367,28080.916 c -0.751,0.01 -1.508,0.04 -2.271,0.1 -24.438,1.74 -15.297,25.791 -15.297,25.791 0,0 -37.623,-5.856 -55.381,-5.065 -17.757,0.792 -48.964,3.244 -52.832,39.162 -3.868,35.917 45.447,44.067 45.447,44.067 l 10.11,101.185 c -6.348,7.668 -12.095,15.955 -16.987,24.76 -11.805,5.571 -29.396,14.849 -37.635,24.108 -12.99,14.597 -1.685,40.251 -1.685,40.251 0,0 -30.722,14.956 -32.932,44.489 -2.809,37.536 35.11,32.986 35.11,32.986 0,0 19.167,11.31 38.757,15.291 19.59,3.981 25.911,-20.599 25.911,-20.599 l 3.009,-3.29 c 13.598,6.673 30.113,10.541 49.569,9.805 25.933,-0.98 46.419,-7.567 61.656,-18.646 l 0.217,2.966 c 0,0 12.496,39.939 38.265,34.821 25.769,-5.119 35.321,-27.174 35.321,-27.174 0,0 46.902,-18.83 43.883,-48.846 -3.019,-30.015 -38.899,-29.006 -38.899,-29.006 0,0 3.3,-34.122 -8.426,-50.867 -6.202,-8.857 -28.209,-12.23 -47.593,-13.463 -7.214,-15.786 -15.329,-22.648 -15.329,-22.648 l 10.901,-84.098 c 0,0 80.611,-40.428 78.853,-59.099 -1.758,-18.67 -22.769,-28.322 -41.406,-35.68 -18.636,-7.357 -70.148,-1.108 -70.148,-1.108 0,0 -16.913,-20.491 -40.188,-20.189 z m 21.215,415.828 c -1.436,0 -2.899,0.04 -4.389,0.11 -95.313,4.492 -119.438,69.308 -127.757,126.957 31.851,19.573 62.155,15.081 100.423,13.476 38.268,-1.604 108.032,-10.055 108.032,-10.055 0,0 14.164,-130.689 -76.309,-130.488 z" fill="#FFFFFF" transform="translate(91.396577,20.511732) matrix(0.26458333,0,0,0.26458333,-2219.1654,-6803.119) translate(-3313.5291,-2437.8203)"/>
    <path d="m 8138.4993,26197.482 c -3.748,-4.514 2.386,-47.674 10.244,-72.081 5.925,-18.402 20.652,-33.958 32.152,-33.958 7.457,0 8.971,-1.316 10.536,-9.149 1.008,-5.032 1.256,-9.726 0.55,-10.43 -2.701,-2.704 -29.952,8.475 -44.436,18.231 -8.339,5.616 -18.403,15.104 -22.36,21.085 -7.954,12.016 -24.62,58.692 -24.62,68.948 0,9.592 -5.314,11.227 -7.548,2.324 -5.572,-22.207 5.546,-67.8 22.114,-90.672 19.165,-26.458 59.129,-44.714 98.36,-44.933 66.057,-0.37 95.709,23.842 100.71,82.238 3.194,37.279 1.333,57.33 -5.67,61.078 -4.483,2.398 -6.994,1.968 -11.313,-1.939 -4.53,-4.102 -5.548,-9.014 -5.548,-26.776 0,-29.256 -5.051,-56.434 -12.611,-67.85 -8.436,-12.743 -28.555,-22.159 -52.028,-24.351 l -19.332,-1.807 v 13.212 c 0,18.998 -1.982,22.373 -13.151,22.373 -25.424,0 -34.418,13.399 -39.287,58.518 -4.053,37.548 -8.145,46.324 -16.762,35.939 z m 24.527,-9.247 c -5.607,-5.605 -5.652,-7.337 -0.378,-14.441 3.34,-4.497 5.221,-4.98 9.413,-2.415 6.579,4.028 8.221,11.72 3.672,17.201 -4.454,5.368 -7.064,5.297 -12.707,-0.345 z m 2.138,-34.933 c -4.143,-10.788 11.785,-20.328 19.141,-11.466 1.982,2.389 2.757,7.012 1.722,10.274 -2.37,7.468 -18.11,8.37 -20.863,1.192 z m 6.427,-24.078 c -3.687,-5.969 1.531,-15.003 8.127,-14.062 8.843,1.259 8.862,14.999 0.02,16.259 -3.434,0.488 -7.102,-0.499 -8.151,-2.197 z m 114.892,-86.959 c -12.306,-2.917 -19.857,-9.905 -23.885,-22.112 -1.777,-5.381 -4.002,-9.785 -4.949,-9.785 -0.945,0 -10.179,3.385 -20.518,7.52 -22.599,9.043 -53.346,10.059 -76.053,2.517 -8.009,-2.661 -14.801,-4.378 -15.097,-3.818 -0.295,0.563 -2.535,4.93 -4.975,9.708 -7.164,14.013 -30.268,13.464 -45.852,-1.095 -5.703,-5.327 -10.035,-7.314 -12.513,-5.742 -9.729,6.17 -31.192,-0.962 -37.31,-12.398 -4.982,-9.31 -4.31,-37.282 1.152,-47.826 2.606,-5.034 9.578,-13.138 15.491,-18.013 9.931,-8.188 10.703,-9.92 10.105,-22.701 -0.752,-15.994 6.784,-30.811 18.345,-36.078 3.985,-1.816 7.245,-4.911 7.245,-6.881 0,-5.498 19.717,-21.551 26.47,-21.551 4.571,0 5.51,-1.208 3.937,-5.066 -1.134,-2.787 -3.183,-26.414 -4.552,-52.502 -1.37,-26.087 -2.859,-47.737 -3.314,-48.105 -0.454,-0.372 -9.516,-3.529 -20.142,-7.019 -20.348,-6.683 -26.187,-12.252 -29.725,-28.362 -2.968,-13.521 6.643,-33.332 20.555,-42.369 17.099,-11.107 31.797,-14.172 62.569,-13.044 27.037,0.99 27.964,0.814 29.569,-5.584 2.602,-10.38 18.172,-18.595 31.482,-16.61 14.678,2.189 26.787,8.65 32.473,17.325 4.008,6.118 5.593,6.63 12.332,3.991 12.787,-5.01 49.488,-4.191 66.159,1.475 55.806,18.962 57.824,59.928 4.285,87.059 -13.656,6.918 -33.263,12.186 -40.269,10.819 -2.699,-0.528 -3.62,6.535 -3.62,27.742 0,15.649 -1.861,35.576 -4.137,44.284 -4.094,15.666 -4.056,15.916 3.437,23.795 6.372,6.699 9.971,7.963 22.658,7.963 13.592,0 15.957,0.995 23.911,10.054 9.614,10.95 14.895,25.982 14.921,42.467 0,9.637 0.836,10.689 9.643,12.341 18.65,3.498 31.903,26.382 26.878,46.404 -2.789,11.114 -19.08,28.02 -32.885,34.127 -7.643,3.381 -12.307,7.344 -12.307,10.457 0,8.365 -8.798,18.209 -21.375,23.922 -12.908,5.862 -15.704,6.111 -30.139,2.691 z m 25.501,-19.897 c 6.486,-3.453 11.215,-8.751 13.246,-14.836 2.424,-7.269 5.783,-10.361 14.477,-13.328 36.594,-12.486 40.806,-56.224 5.415,-56.224 -13.994,0 -13.942,0.09 -12.999,-20.671 1.135,-24.967 -10.678,-45.926 -25.888,-45.926 -8.064,0 -8.271,0.346 -5.677,9.392 4.421,15.417 3.253,63.216 -1.918,78.39 -2.534,7.44 -10.351,19.916 -17.372,27.723 -7.02,7.809 -12.763,16.148 -12.763,18.532 0,2.385 3.781,8.383 8.4,13.328 9.856,10.552 20.081,11.608 35.079,3.62 z m -178.257,-3.778 c 7.335,-3.343 10,-8.222 4.489,-8.222 -5.898,0 -26.747,-21.797 -33.392,-34.911 -3.847,-7.592 -9.477,-14.244 -12.791,-15.111 -8.697,-2.273 -10.449,-9.946 -3.62,-15.857 3.94,-3.412 6.93,-11.599 9.174,-25.121 1.83,-11.034 4.599,-22.436 6.149,-25.337 4.885,-9.125 -4.736,-6.244 -13.355,4 -7.153,8.5 -7.646,10.665 -5.918,25.94 1.9997,19.366 -3.7076,19.461 -9.579,23.904 -6.304,3.981 -13.53,10.186 -16.055,13.794 -6.211,8.867 -6.089,33.56 0.195,40.509 5.161,5.701 16.902,7.121 19.821,2.4 3.259,-5.278 10.413,-3.008 17.657,5.603 9.36,11.12 24.003,14.43 37.22,8.409 z m 101.791,-23.513 c 32.566,-16.631 46.885,-37.756 49.561,-73.113 l 1.635,-21.624 h -7.548 c -13.295,0 -39.548,-11.762 -58.83,-26.359 -14.93,-11.3 -21.009,-14.179 -29.927,-14.179 -9.488,0 -12.09,1.433 -17.083,9.409 -5.307,8.48 -17.636,19.784 -29.327,26.889 -2.389,1.453 -10.207,3.326 -17.374,4.164 -12.88,1.505 -13.06,1.678 -15.629,14.968 -3.369,17.419 -1.169,22.748 9.393,22.748 16.254,0 20.028,15.601 5.463,22.583 -9.748,4.671 -7.766,9.777 9.556,24.603 24.007,20.55 70.302,25.134 100.11,9.911 z m -42.77,0.428 c -7.911,-2.899 -12.394,-9.67 -9.499,-14.352 0.894,-1.449 6.163,-2.634 11.708,-2.634 10.727,0 28.552,-7.816 43.675,-19.153 5.071,-3.8 11.912,-6.907 15.201,-6.907 9.562,0 7.888,14.522 -2.981,25.897 -16.383,17.142 -39.496,23.964 -58.104,17.149 z m 25.244,-74.396 c -2.447,-7.709 4.108,-21.21 9.769,-20.12 3.229,0.623 4.549,4.229 4.549,12.42 0,9.629 -1.037,11.69 -6.264,12.435 -4.16,0.593 -6.867,-1.002 -8.054,-4.735 z m -29.444,-1.767 c -0.964,-2.515 0.432,-7.905 3.101,-11.982 3.996,-6.095 5.616,-6.777 9.15,-3.843 6.555,5.437 3.921,18.346 -3.971,19.467 -3.927,0.556 -7.227,-0.895 -8.28,-3.642 z m -48.605,-38.879 c 6.212,-4.563 14.453,-11.73 18.312,-15.925 l 7.02,-7.631 h -13.672 c -15.243,0 -23.683,6.467 -29.794,22.831 -2.972,7.959 -2.767,9.018 1.737,9.018 2.808,0 10.187,-3.73 16.397,-8.293 z m 137.068,-12.481 c -9.601,-19.05 -9.829,-19.199 -25.162,-16.558 -7.562,1.303 -18.876,3.173 -25.146,4.158 l -11.399,1.79 9.718,6.155 c 5.344,3.383 20.246,10.407 33.116,15.611 26.719,10.802 29.2,9.334 18.873,-11.156 z m -49.45,-29.947 c 18.092,-2.388 33.866,-4.944 35.055,-5.68 1.19,-0.734 3.088,-17.126 4.214,-36.426 3.2876,-39.08 1.3918,-46.902 21.5972,-56.39 21.546,-9.988 54.4238,-26.036 58.0658,-32.842 7.098,-13.266 -10.839,-28.394 -44.69,-37.684 -15.473,-4.245 -46.478,-4.07 -53.483,0.304 -4.718,2.947 -6.704,2.508 -12.268,-2.702 -12.682,-11.88 -33.272,-16.08 -39.869,-8.129 -2.915,3.51 -1.57,6.143 7.607,14.892 6.131,5.846 9.694,11.142 7.918,11.773 -1.776,0.629 -10.245,-1.642 -18.821,-5.045 -19.683,-7.814 -54.694,-10.476 -74.679,-5.682 -21.304,5.111 -35.015,18.512 -35.015,34.224 0,12.61 2.94,16.835 18.366,26.366 6.955,4.299 12.407,5.563 18.63,4.318 7.159,-1.43 9.599,-0.49 13.125,5.065 5.077,8.001 10.685,47.276 10.685,74.845 0,10.631 0.868,20.194 1.93,21.257 3.37,3.371 47.563,2.038 81.632,-2.464 z m -24.928,-6.223 c -2.419,-5.911 -1.902,-68.213 0.651,-78.42 3.271,-13.069 6.836,-5.962 8.713,17.373 2.643,32.817 0.951,63.664 -3.573,65.16 -1.988,0.656 -4.594,-1.195 -5.791,-4.113 z m -31.768,-8.808 c -2.818,-10.096 -2.11,-71.678 0.88,-76.516 4.356,-7.048 6.591,7.54 6.796,44.376 0.195,35.74 -2.967,48.996 -7.676,32.14 z m 64.651,-5.423 c -4.78,-12.456 -0.231,-70.704 5.523,-70.704 4.883,0 7.198,13.538 7.198,42.11 0,26.154 -1.533,33.174 -7.24,33.174 -2.048,0 -4.515,-2.061 -5.481,-4.58 z" fill="#00B894" transform="translate(91.396577,20.511732) matrix(0.26458333,0,0,0.26458333,-2219.1654,-6803.119)"/>
</svg>