<?xml version="1.0" ?><svg height="169.06984mm" viewBox="0 0 120.13313 169.06984" width="120.13313mm" xmlns="http://www.w3.org/2000/svg">
    <path d="m 8914.6712,26408.047 c -14.391,0.02 -27.242,0.307 -34.07,0.83 -18.21,1.397 -61.667,1.583 -70.979,48.979 -9.312,47.395 27.211,80.359 27.211,80.359 l -14.38,43.018 c 1.0807,43.224 8.8331,75.212 48.007,93.674 34.131,3.986 52.779,8.565 73.356,-2.608 31.788,-24.84 46.5425,-54.11 50.595,-99.633 l -8.691,-60.711 c 0,0 10.76,-23.837 16.658,-48.14 5.897,-24.303 -4.862,-50.842 -23.693,-53.447 -11.769,-1.631 -40.029,-2.351 -64.014,-2.321 z m 49.516,278.901 c -32.296,0.279 -77.613,4.695 -99.418,13.564 -29.073,11.826 -46.974,54.101 -48.422,92.557 -1.449,38.457 3.727,109.689 3.727,109.689 l 87.861,-7.219 c -34.083,14.936 -68.889,35.718 -89.285,57.412 -30.201,41.615 30.002,62.296 66.732,70.397 36.73,8.101 114.02,-15.738 122.401,-41.158 8.381,-25.42 6,-70.209 -0.829,-85.946 -1.293,-2.98 -2.687,-5.859 -4.392,-8.48 l 38.512,-3.164 c 0,0 -0.931,-131.291 -3.414,-150.193 -2.483,-18.902 -20.797,-43.113 -46.87,-46.372 -6.518,-0.814 -15.838,-1.181 -26.603,-1.087 z" fill="#FFFFFF" transform="translate(-57.10605,-43.221056) matrix(0.26458333,0,0,0.26458333,-2249.567,-6940.7319)"/>
    <path d="m 8877.1183,27032.164 c -19.646,-4.496 -58.534,-26.249 -69.805,-39.051 -17.184,-19.518 -8.404,-45.4 23.513,-69.322 l 14.581,-10.928 -1.595,-18.062 c -1.396,-15.824 -10.308,-38.401 -15.16,-38.401 -3.607,0 2.374,30.21 6.994,35.313 14.861,16.423 -20.43,23.299 -91.262,17.789 -17.074,-1.33 -24.623,-3.109 -25.758,-6.068 -2.686,-7.003 5.281,-9.299 32.537,-9.373 14.334,-0.04 32.901,-0.89 41.262,-1.896 l 15.201,-1.825 v -22.76 c 0,-22.524 -0.09,-22.761 -7.455,-22.761 -5.079,0 -12.77,5.069 -24.149,15.925 -18.078,17.245 -29.395,20.593 -34.891,10.324 -1.649,-3.08 -2.997,-15.365 -2.997,-27.296 0,-19.223 1.173,-23.946 10.28,-41.422 5.656,-10.848 12.952,-22.567 16.216,-26.041 l 5.935,-6.318 -7.529,-18.819 c -8.521,-21.297 -9.536,-32.366 -3.186,-34.803 7.025,-2.697 11.749,0.61 17.189,12.034 10.026,21.057 28.644,47.406 30.717,43.473 2.709,-5.133 5.528,-28.4 3.441,-28.4 -0.917,0 -4.003,2.113 -6.854,4.695 -5.529,5.001 -14.09,3.624 -14.09,-2.27 0,-7.423 32.468,-34.797 52.871,-44.577 23,-11.02 28.711,-11.992 33.888,-5.75 4.902,5.905 1.731,9.54 -11.87,13.615 -22.844,6.843 -33.279,23.967 -38.84,63.739 -1.813,12.961 -1.52,13.719 7.047,18.15 9.158,4.734 10.28,7.37 13.412,31.482 1.195,9.184 0.604,15.388 -1.731,18.2 -4.296,5.175 4.747,15.751 28.82,33.7 l 15.553,11.598 26.431,-8.938 c 60.419,-20.427 78.909,-21.146 91.439,-3.549 5.264,7.395 6.728,7.968 12.901,5.056 6.683,-3.153 6.998,-4.632 7.795,-36.644 1.787,-71.753 1.231,-81.697 -5.776,-103.298 -8.24,-25.393 -19.081,-39.163 -34.956,-44.404 -13.572,-4.479 -17.128,-8.212 -11.319,-11.891 11.029,-6.984 33.515,-0.09 53.733,16.476 15.161,12.422 31.444,44.418 43.331,85.148 9.896,33.899 11.113,79.444 2.937,110.027 -7.651,28.62 -26.137,64.153 -45.542,87.541 -9.603,11.572 -19.248,23.217 -21.432,25.877 -2.185,2.66 -19.379,9.646 -38.212,15.525 -38.705,12.083 -68.257,14.98 -93.615,9.18 z m 26.774,-22.746 c -5.824,-5.822 1.284,-13.82 14.103,-15.871 6.456,-1.033 12.363,-3.507 13.127,-5.498 0.765,-1.989 11.728,-5.296 24.364,-7.349 12.637,-2.052 22.974,-4.799 22.974,-6.106 0,-1.305 -1.258,-2.374 -2.792,-2.374 -1.538,0 -4.233,-2.688 -5.993,-5.976 -5.37,-10.035 1.584,-15.265 17.749,-13.352 l 13.501,1.599 1.766,-10.68 c 0.971,-5.875 1.781,-14.559 1.798,-19.302 l 0.02,-8.623 -8.68,10.53 c -11.592,14.064 -38.587,30.739 -75.424,46.597 -28.338,12.198 -42.484,16.398 -70.799,21.014 l -11.58,1.89 8.683,4.612 c 16.004,8.503 28.839,11.975 44.73,12.101 11.919,0.09 14.963,-0.689 12.442,-3.212 z m -39.117,-35.556 c 0.377,-0.333 -1.903,-7.97 -5.067,-16.975 -3.166,-9.005 -5.755,-18.36 -5.755,-20.788 0,-8.056 -6.739,-4.593 -22.276,11.449 -16.813,17.358 -18.765,23.439 -8.85,27.582 5.21,2.178 39.192,1.151 41.948,-1.268 z m 29.716,-8.976 c 0,-3.396 -14.565,-30.018 -17.373,-31.753 -1.652,-1.022 0.278,5.564 4.289,14.633 4.012,9.069 7.293,16.977 7.293,17.577 0,0.597 1.303,1.087 2.895,1.087 1.593,0 2.896,-0.695 2.896,-1.544 z m 137.322,-16.703 c 20.584,-35.284 33.082,-89.118 29.035,-125.081 -3.315,-29.44 -5.901,-26.411 -9.886,11.58 -3.105,29.619 -3.131,37.795 -0.13,43.389 6.86,12.815 2.108,16.965 -17.396,15.195 l -17.297,-1.568 2.158,7.687 c 1.187,4.226 2.158,20.267 2.158,35.644 0,15.377 0.961,27.363 2.136,26.633 1.176,-0.728 5.33,-6.793 9.23,-13.479 z m -107.82,3.476 c 5.605,-2.999 4.787,-4.367 -13.868,-23.163 -10.902,-10.988 -20.923,-19.976 -22.268,-19.976 -1.347,0 3.18,10.421 10.056,23.16 12.701,23.527 15.476,25.654 26.08,19.979 z m 43.353,-23.717 c 14.797,-11.288 25.593,-26.335 25.593,-35.675 0,-9.651 -9.465,-13.635 -27.136,-11.42 -14.221,1.78 -52.553,13.74 -56.409,17.596 -2.233,2.233 37.239,38.756 42.057,38.918 1.868,0.07 9.019,-4.176 15.895,-9.419 z m -199.934,-121.454 c -0.578,-6.094 0.97,-8.711 6.701,-11.323 7.738,-3.524 9.046,-7.055 4.982,-13.46 -1.954,-3.079 -2.935,-3.079 -5.444,0 -5.846,7.171 -18.144,39.819 -18.015,47.823 0.13,7.753 0.356,7.623 6.327,-3.531 3.412,-6.369 5.863,-15.149 5.449,-19.509 z m 347.138,88.497 c -21.991,-1.376 -28.955,-3.282 -28.955,-7.927 0,-6.336 6.921,-7.497 44.392,-7.45 37.954,0.04 46.035,2.179 40.723,10.732 -3.357,5.406 -20.863,6.854 -56.16,4.645 z m -248.435,-30.478 c -2.485,-2.484 -3.475,-21.06 -3.475,-65.243 0,-72.948 1.538,-79.475 20.044,-85.018 6.494,-1.946 11.807,-5.286 11.807,-7.423 0,-7.48 5.349,-3.801 7.285,5.009 2.271,10.344 1.383,11.599 -11.046,15.617 l -9.268,2.997 -0.413,60.806 c -0.466,69.127 -3.616,84.573 -14.934,73.255 z m 26.453,-6.853 c -2.414,-6.29 3.713,-12.203 8.097,-7.818 3.707,3.707 1.412,12.357 -3.279,12.357 -1.692,0 -3.861,-2.045 -4.818,-4.539 z m 61.763,-28.549 c -2.419,-6.304 5.691,-11.939 10.928,-7.593 5.27,4.372 2.655,11.724 -4.172,11.724 -2.843,0 -5.886,-1.859 -6.756,-4.131 z m -61.607,-2.893 c -2.634,-6.867 1.095,-13.798 6.826,-12.695 3.204,0.617 5.074,3.616 5.074,8.137 0,8.255 -9.138,11.753 -11.9,4.558 z m 62.757,-34.736 c -4.495,-5.417 -1.642,-10.36 5.979,-10.36 4.329,0 5.584,1.614 4.895,6.29 -1.155,7.856 -6.172,9.735 -10.874,4.07 z m -62.786,-2.982 c -2.017,-5.256 0.912,-10.272 6,-10.272 4.429,0 7.114,5.544 5.262,10.858 -1.731,4.959 -9.283,4.566 -11.262,-0.586 z m -2.065,-29.576 c -3.315,-3.317 -2.109,-14.897 1.69,-16.222 6.734,-2.35 10.858,1.362 10.858,9.777 0,6.191 -1.385,8.376 -5.31,8.376 -2.918,0 -6.176,-0.869 -7.238,-1.931 z m 63.942,-4.172 c -7.566,-4.289 -6.238,-13.757 2.489,-17.733 6.497,-2.961 8.125,-2.662 11.622,2.117 4.853,6.636 4.113,9.847 -3.412,14.789 -3.92,2.575 -7.171,2.827 -10.699,0.827 z m -41.904,-52.532 c -1.54,-1.991 -3.5,-5.606 -4.358,-8.037 -0.941,-2.669 -8.503,-5.852 -19.108,-8.042 -23.244,-4.801 -35.824,-10.291 -47.922,-20.915 l -9.994,-8.775 -1.883,8.57 c -3.783,17.224 -18.211,19.366 -14.776,2.193 1.41,-7.053 1.039,-8.216 -1.734,-5.44 -1.943,1.942 -5.875,3.529 -8.741,3.529 -7.547,0 -6.587,-10.168 2.026,-21.461 8.764,-11.489 9.172,-14.523 1.387,-10.358 -6.49,3.475 -11.522,1.649 -11.522,-4.181 0,-2.094 3.374,-9.844 7.498,-17.222 4.122,-7.377 9.305,-22.057 11.517,-32.622 2.208,-10.566 5.997,-22.232 8.417,-25.925 5.398,-8.235 1.444,-19.245 -10.589,-29.483 -9.86,-8.387 -13.916,-20.724 -14.025,-42.644 -0.05,-9.538 -0.195,-22.016 -0.321,-27.73 -0.684,-30.011 33.817,-57.569 72.157,-57.628 10.002,0 22.928,1.952 28.719,4.371 8.435,3.525 13.707,3.811 26.499,1.448 59.713,-11.038 82.741,3.86 82.717,53.509 -0.02,22.816 -3.9,35.735 -14.383,47.776 -2.577,2.963 -3.091,7.569 -1.617,14.479 1.188,5.574 0.977,14.565 -0.472,19.979 -1.63,6.105 -1.567,12.156 0.174,15.927 1.54,3.344 7.047,14.847 12.242,25.564 7.208,14.872 8.675,20.413 6.2,23.397 -2.513,3.027 -1.294,5.783 5.387,12.183 9.653,9.249 10.871,14.395 4.03,17.021 -5.198,1.996 -8.49,0.543 -17.836,-7.872 -6.492,-5.844 -6.516,-5.844 -6.516,-0.07 0,7.302 10.48,17.29 22.566,21.502 13.182,4.598 12.137,11.358 -1.755,11.358 -8.449,0 -12.964,-2.007 -19.234,-8.552 l -8.194,-8.552 -8.779,12.172 c -10.84,15.026 -13.731,17.388 -34.551,28.212 -10.822,5.624 -16.65,10.464 -16.65,13.825 0,10.119 -10.962,15.743 -16.569,8.499 z m -6.595,-42.8 c 0,-9.56 8.782,-10.61 15.74,-1.885 l 6.126,7.683 11.507,-5.822 c 14.238,-7.203 18.593,-10.664 26.776,-21.267 9.38,-12.152 8.157,-15.344 -6.727,-17.577 -24.727,-3.707 -40.323,-10.083 -53.422,-21.834 -7.166,-6.43 -17.99,-13.04 -24.053,-14.693 -10.159,-2.769 -11.781,-2.337 -20.731,5.521 -5.338,4.688 -13.733,10.901 -18.656,13.809 -10.765,6.359 -10.961,8.948 -2.022,26.574 8.93,17.608 15.67,23.484 34.33,29.931 20.996,7.254 31.132,7.111 31.132,-0.44 z m -40.519,-13.788 c -9.392,-7.607 -6.11,-16.489 5.076,-13.738 11.133,2.737 21.535,9.972 20.198,14.049 -1.916,5.837 -17.922,5.639 -25.274,-0.311 z m 62.717,0.367 c -4.715,-4.715 -1.062,-9.679 9.436,-12.823 17.486,-5.241 25.955,0.174 15.936,10.204 -4.529,4.528 -21.691,6.3 -25.372,2.619 z m 51.225,-61.24 c 0.228,-11.151 -0.49,-21.186 -1.592,-22.3 -1.103,-1.114 -6.017,0.829 -10.919,4.321 -11.306,8.051 -37.837,17.449 -49.257,17.449 -21.544,0 -0.567,12.611 33.226,19.973 12.738,2.777 24.281,4.099 25.647,2.94 1.364,-1.159 2.666,-11.231 2.895,-22.383 z m -133.132,-17.97 c -6.177,-5.97 -11.736,-10.391 -12.353,-9.823 -0.618,0.57 -1.309,9.408 -1.539,19.643 l -0.414,18.607 12.768,-8.784 12.769,-8.787 z m 59.709,-14.583 c 0,-6.584 -1.312,-8.514 -5.792,-8.514 -6.543,0 -7.025,2.165 -2.899,13.014 3.605,9.486 8.691,6.851 8.691,-4.5 z m -23.165,3.238 c 0,-5.681 -4.895,-10.717 -7.694,-7.917 -2.274,2.273 1.883,13.538 4.995,13.538 1.485,0 2.699,-2.53 2.699,-5.621 z m 46.551,-5.238 c 0.13,-4.38 0.658,-10.243 1.19,-13.029 1.112,-5.807 -5.725,-6.893 -9.114,-1.449 -2.224,3.573 -1.655,16.049 0.925,20.27 2.964,4.85 6.791,1.684 6.999,-5.792 z m -68.394,-1.457 c -0.94,-2.452 -5.196,-5.123 -9.458,-5.94 l -7.75,-1.48 8.277,7.121 c 8.764,7.538 11.748,7.637 8.931,0.299 z m 87.368,-27.364 c -0.791,-0.791 -2.691,-0.662 -4.222,0.284 -1.754,1.084 -1.559,6.276 0.533,14.044 l 3.312,12.321 0.907,-12.605 c 0.497,-6.935 0.258,-13.257 -0.53,-14.044 z m 28.111,1.503 c 1.265,-4.839 0.45,-5.541 -4.795,-4.134 -3.475,0.932 -7.296,1.712 -8.49,1.734 -1.195,0.02 -2.172,4.827 -2.172,10.677 v 10.64 l 6.966,-6.544 c 3.832,-3.598 7.653,-9.167 8.491,-12.373 z m -68.137,-6.52 c 8.452,-2.25 16.922,-5.366 18.821,-6.926 1.901,-1.559 10.985,-3.765 20.188,-4.905 31.703,-3.924 44.037,-20.41 41.941,-56.062 -0.931,-15.871 -2.213,-19.459 -9.049,-25.337 -6.904,-5.94 -10.969,-6.85 -30.627,-6.85 -20.229,0 -22.828,0.623 -24.179,5.793 -2.064,7.898 -10.791,7.392 -31.304,-1.812 -21.84,-9.803 -42.803,-8.804 -60.451,2.875 -19.085,12.628 -23.678,22.507 -22.637,48.689 1.091,27.466 6.664,36.394 27.153,43.501 17.493,6.068 49.466,6.539 70.144,1.034 z" fill="#00B894" transform="translate(-57.10605,-43.221056) matrix(0.26458333,0,0,0.26458333,-2249.567,-6940.7319)"/>
</svg>