<?xml version="1.0" ?><svg height="169.23013mm" viewBox="0 0 120.01102 169.23013" width="120.01102mm" xmlns="http://www.w3.org/2000/svg">
    <path d="m 10377.644,26378.856 c -14.391,0.02 -27.242,0.307 -34.07,0.83 -18.21,1.397 -61.667,1.583 -70.979,48.979 -9.312,47.395 27.211,80.359 27.211,80.359 l -14.38,43.018 c 1.081,43.224 8.833,75.212 48.007,93.674 34.131,3.986 52.779,8.565 73.356,-2.608 31.788,-24.84 46.543,-54.11 50.595,-99.633 l -8.691,-60.711 c 0,0 10.76,-23.837 16.658,-48.14 5.897,-24.303 -4.862,-50.842 -23.693,-53.447 -11.769,-1.631 -40.029,-2.351 -64.014,-2.321 z m 49.516,278.901 c -32.296,0.279 -77.613,4.695 -99.418,13.564 -29.073,11.826 -46.974,54.101 -48.422,92.557 -1.449,38.457 3.727,109.689 3.727,109.689 l 87.861,-7.219 c -34.083,14.936 -68.889,35.718 -89.285,57.412 -30.201,41.615 30.002,62.296 66.732,70.397 36.73,8.101 114.02,-15.738 122.401,-41.158 8.381,-25.42 6,-70.209 -0.829,-85.946 -1.293,-2.98 -2.687,-5.859 -4.392,-8.48 l 38.512,-3.164 c 0,0 -0.931,-131.291 -3.414,-150.193 -2.483,-18.902 -20.797,-43.113 -46.87,-46.372 -6.518,-0.814 -15.838,-1.181 -26.603,-1.087 z" fill="#FFFFFF" transform="translate(-283.1969,33.966287) matrix(0.26458333,0,0,0.26458333,-2411.2069,-7010.1377)"/>
    <path d="m 10337.985,26366.639 c -20.551,0.258 -42.898,8.089 -57.129,21.479 -11.879,11.176 -20.277,31.764 -17.627,43.222 1.177,5.097 1.903,15.728 1.617,23.621 -0.674,18.496 3.752,31.566 13.481,39.844 4.273,3.636 9.36,10.177 11.308,14.539 3.062,6.857 2.681,9.392 -2.857,18.775 -9.175,15.551 -9.07,50.438 0.234,74.938 0.57,1.5 1.152,2.948 1.742,4.367 -9.606,18.831 6.286,28.319 13.748,32.106 0,0 -4.974,5.867 4.373,16.082 7.869,8.598 20.616,4.199 24.489,2.582 0.638,0.361 1.298,0.747 1.91,1.086 0.621,1.517 1.299,3.031 2.174,4.474 -9.344,-1.072 -25.659,5.652 -45.229,18.85 -16.228,10.948 -34.525,29.347 -34.525,34.717 0,5.334 8.852,6.346 14.088,1.607 2.852,-2.582 5.935,-4.695 6.851,-4.695 2.087,0 -0.728,23.268 -3.439,28.404 -1.927,3.659 -19.004,-20.063 -29.973,-41.645 -5.894,-11.597 -11.724,-16.244 -17.564,-14.005 -6.695,2.568 -5.847,13.278 2.746,34.761 l 7.457,18.641 -7.283,8.652 c -4.005,4.76 -11.28,16.795 -16.161,26.739 -7.218,14.701 -8.933,21.93 -9.171,38.681 -0.354,24.681 3.239,32.969 14.293,32.969 5.725,0 11.96,-4.051 22.127,-14.375 13.375,-13.579 27.959,-21.953 31.707,-18.207 0.931,0.932 1.695,11.721 1.695,23.973 v 22.279 l -15.201,1.826 c -8.362,1.003 -26.929,1.853 -41.262,1.893 -27.256,0.08 -35.224,2.37 -32.539,9.375 1.137,2.961 8.685,4.737 25.758,6.066 28.853,2.245 70.108,1.942 81.754,-0.6 11.819,-2.581 15.956,-10.064 9.507,-17.189 -4.777,-5.277 -10.546,-35.312 -6.783,-35.312 3.74,0 12.074,19.523 15.115,35.404 l 3.172,16.58 -18.65,16.478 c -10.26,9.063 -21.106,20.495 -24.098,25.405 -7.969,13.071 -7.159,31.075 1.881,41.82 11.215,13.327 49.528,35.16 69.389,39.543 21.282,4.695 42.103,5.111 59.355,1.186 28.302,-6.437 68.642,-20.233 73.326,-25.077 19.069,-19.719 42.336,-52.171 51.666,-72.062 16.108,-34.351 20.868,-55.25 21.043,-92.309 0.125,-28.057 -1.004,-35.639 -9.519,-63.699 -16.963,-55.904 -35.527,-83.183 -64.981,-95.49 -6.587,-2.752 -13.532,-4.194 -19.433,-4.242 -4.59,-0.04 -8.546,0.768 -11.207,2.455 -5.81,3.676 -2.257,7.41 11.316,11.888 15.794,5.215 26.25,18.471 34.828,44.161 7.314,21.9 7.791,30.38 5.907,104.984 -0.787,31.133 -0.987,31.986 -8.299,35.437 -4.119,1.946 -7.66,3.226 -7.856,2.844 -13.825,-26.382 -31.686,-26.921 -100.142,-3.027 l -21.908,7.644 -15.739,-11.73 c -23.721,-17.686 -33.275,-28.678 -29.199,-33.59 2.074,-2.497 2.716,-9.397 1.699,-18.201 -2.786,-24.114 -3.963,-26.964 -13.177,-31.729 -8.568,-4.429 -8.86,-5.183 -7.049,-18.144 2.914,-20.826 9.686,-42.556 15.502,-49.74 2.895,-3.574 12.252,-9.31 20.8,-12.745 10.26,-4.123 15.558,-7.312 16.375,-10.226 1.654,0.596 3.553,1.069 5.778,1.379 8.527,1.188 15.306,-2.466 18.293,-4.473 2.198,0.113 4.425,0.188 6.67,0.213 0.912,1.807 1.999,3.649 2.949,4.877 7.164,5.134 15.123,3.441 16.267,-5.76 1.944,-0.206 3.839,-0.458 5.706,-0.734 2.526,1.941 7.255,4.249 14.396,2.586 11.35,-2.643 15.078,-15.731 15.078,-15.731 0,0 14.101,-0.78 20.848,-10.822 7.373,-10.973 4.82,-23.687 2,-31.48 3.166,-6.86 5.61,-14.471 7.408,-22.959 5.522,-26.038 5.461,-44.699 -0.195,-58.831 -3.314,-8.284 -3.848,-14.002 -1.967,-21.048 1.421,-5.32 1.611,-14.236 0.424,-19.811 -1.475,-6.909 -0.961,-11.513 1.617,-14.474 10.494,-12.058 14.357,-24.955 14.357,-47.778 -0.02,-49.542 -20.998,-63.306 -81.502,-53.488 -14.576,2.365 -20.084,2.082 -28.586,-1.471 -7.667,-3.203 -16.633,-4.65 -25.974,-4.533 z m -9.572,17.715 c 0.866,-0.02 1.741,-0.02 2.623,0 9.066,0.226 18.899,2.604 28.459,7.054 19.092,8.887 29.374,9.351 31.447,1.418 1.352,-5.169 3.951,-5.791 24.18,-5.791 19.614,0 23.729,0.915 30.572,6.803 6.607,5.683 8.118,9.681 9.176,24.305 1.915,26.472 -6.46,47.244 -21.34,52.937 -3.317,1.269 -12.985,3.191 -21.489,4.27 -8.504,1.079 -18.309,3.829 -21.791,6.107 -3.478,2.28 -16.397,6.074 -28.709,8.428 -12.314,2.356 -22.599,4.119 -22.857,3.924 -0.258,-0.2 -7.211,-1.348 -15.453,-2.553 -34.502,-5.047 -47.268,-19.014 -47.268,-51.76 0,-26.346 9.634,-40.277 35.797,-51.726 4.93,-2.157 10.59,-3.291 16.653,-3.422 z m 112.839,104.377 c 1.898,0 1.911,1.261 0.801,4.373 -1.061,2.979 -3.886,7.695 -6.279,10.482 -2.395,2.787 -5.457,5.067 -6.803,5.067 -3.02,0 -3.292,-17.342 -0.273,-17.412 1.195,-0.02 5.121,-0.831 8.728,-1.797 1.712,-0.459 2.964,-0.715 3.826,-0.713 z m -30.291,2.445 c 0.76,0.04 1.708,1.247 2.748,3.959 0.898,2.322 1.21,9.181 0.706,15.244 l -0.918,11.024 -3.122,-13.75 c -2.073,-9.137 -1.356,-16.589 0.586,-16.477 z m -18.265,11.686 c 2.32,0 3.13,4.261 2.431,13.031 -1.357,17.08 -7.363,17.995 -9.478,1.447 -1.058,-8.263 1.966,-14.478 7.047,-14.478 z m -83.403,9.22 7.75,1.483 c 4.262,0.815 8.519,3.485 9.459,5.937 2.817,7.338 -0.162,7.239 -8.927,-0.299 z m 56.424,2.362 c 4.48,0 5.793,1.927 5.793,8.513 0,11.35 -5.083,13.983 -8.687,4.5 -4.127,-10.85 -3.648,-13.013 2.894,-13.013 z m -23.314,3.039 c 2.713,-0.09 5.943,4.098 5.943,8.715 0,3.091 -1.211,5.619 -2.697,5.619 -3.112,0 -7.268,-11.264 -4.994,-13.539 0.525,-0.525 1.122,-0.774 1.748,-0.795 z m -42.709,11.009 c 1.69,-0.02 4.081,1.781 7.357,4.934 4.398,4.232 14.878,10.928 23.289,14.881 27.365,12.855 72.398,8.75 99.299,-9.053 6.183,-4.089 11.818,-7.437 12.522,-7.437 3.828,0 4.685,20.192 1.634,38.447 -5.618,33.623 -16.205,49.914 -38.986,59.977 l -11.58,5.117 -6.055,-7.377 c -6.917,-8.433 -15.664,-7.208 -15.664,2.193 0,7.548 -10.135,7.693 -31.133,0.44 -18.804,-6.495 -25.344,-12.27 -34.839,-30.75 -5.807,-11.302 -7.722,-20.019 -8.723,-39.711 -1.157,-22.736 -0.84,-31.613 2.879,-31.661 z m 114.726,73.413 c -3.096,0.07 -6.901,0.714 -11.273,2.023 -10.498,3.145 -14.153,8.105 -9.438,12.82 3.681,3.681 20.845,1.912 25.373,-2.615 7.515,-7.508 4.628,-12.441 -4.662,-12.228 z m -82.248,0.646 c -7.955,-0.03 -9.333,7.232 -1.177,13.834 7.351,5.953 23.354,6.149 25.269,0.309 1.336,-4.071 -9.016,-11.045 -20.285,-13.662 -1.396,-0.324 -2.67,-0.477 -3.807,-0.481 z m 29.553,70.994 c -1.04,-0.03 -1.795,1.152 -1.795,3.86 0,2.042 -5.505,5.623 -12.232,7.963 -7.465,2.595 -13.661,7.079 -15.885,11.494 -5.049,10.021 -5.283,133.385 -0.262,138.406 11.347,11.345 14.584,-4.209 14.338,-68.914 -0.116,-31.054 0.446,-58.652 1.254,-61.328 0.806,-2.677 5.3,-5.71 9.988,-6.739 10.652,-2.338 12.406,-5.129 10.024,-15.974 -1.166,-5.306 -3.696,-8.718 -5.43,-8.768 z m 65.104,32.871 c -0.912,0 -1.828,0.145 -2.725,0.43 -8.411,2.669 -11.216,13.201 -4.77,17.914 5.787,4.231 15.039,0.818 17.885,-6.596 2.137,-5.57 -4.01,-11.803 -10.39,-11.748 z m -65.452,7.817 c -5.653,0 -7.24,1.482 -7.24,6.756 0,3.718 0.871,7.627 1.932,8.687 1.063,1.062 4.317,1.93 7.236,1.93 3.967,0 5.313,-2.193 5.313,-8.686 0,-7.334 -1.129,-8.687 -7.241,-8.687 z m -120.087,34.748 h 10e-4 c 1.335,0 3.286,2.702 4.334,6.004 1.774,5.588 -4.638,13.908 -10.925,14.172 -1.194,0.05 -2.223,4.328 -2.293,9.502 v 0 c -0.07,5.175 -2.616,13.969 -5.669,19.544 l -5.551,10.135 -0.129,-8.164 c -0.136,-9.178 16.459,-51.193 20.223,-51.193 z m 121.794,0.935 c -1.321,-0.114 -2.618,0.264 -3.664,1.309 -1.738,1.737 -2.374,5.196 -1.416,7.691 2.175,5.672 9.461,5.929 11.578,0.41 1.656,-4.315 -2.536,-9.067 -6.498,-9.41 z m 63.815,1.957 c -6.931,0 -10.219,4.382 -7.875,10.491 2.475,6.454 11.69,3.566 12.769,-4.002 0.697,-4.873 -0.52,-6.489 -4.894,-6.489 z m 95.1,20.84 c 0.546,0.05 1.113,1.422 1.818,3.776 1.434,4.777 2.399,23.023 2.15,40.546 -0.483,33.861 -4.557,50.652 -21.033,86.643 -4.427,9.672 -10.527,20.586 -13.551,24.252 -5.5,6.642 -5.5,6.569 -5.5,-21.719 0,-15.61 -0.968,-31.838 -2.156,-36.064 -2.115,-7.538 -1.939,-7.659 9.234,-6.158 15.875,2.129 26.219,-0.93 26.219,-7.758 0,-3.06 -1.3,-6.373 -2.892,-7.358 -3.811,-2.355 -3.431,-19.796 1.173,-53.564 2.235,-16.396 3.335,-22.702 4.538,-22.596 z m -158.059,11.447 c -5.122,-0.121 -8.247,6.376 -5.777,12.811 2.763,7.197 11.902,3.695 11.902,-4.559 0,-4.522 -1.871,-7.518 -5.076,-8.138 -0.358,-0.07 -0.708,-0.106 -1.049,-0.114 z m 62.502,6.579 c -4.377,0.05 -8.485,4.398 -6.67,9.125 0.871,2.273 3.912,4.13 6.754,4.13 6.828,0 9.442,-7.348 4.172,-11.722 -1.309,-1.087 -2.797,-1.549 -4.256,-1.533 z m -63.791,28.341 c -3.46,0.108 -6.456,4.614 -4.647,9.33 0.957,2.498 3.13,4.54 4.821,4.54 4.692,0 6.987,-8.65 3.281,-12.356 -1.096,-1.096 -2.302,-1.55 -3.455,-1.514 z m 233.142,31.245 c -37.854,0 -44.757,1.156 -44.757,7.492 0,4.66 7.054,6.579 28.953,7.869 41.35,2.438 51.407,2.011 55.011,-2.332 2.878,-3.466 2.878,-5.222 0,-8.69 -2.845,-3.427 -11.093,-4.339 -39.207,-4.339 z m -156.158,1.955 c 8.507,-0.04 14.775,1.294 16.602,4.111 6.671,10.289 -6.298,31.652 -27.242,44.873 -6.072,3.833 -12.044,6.925 -13.268,6.855 -1.228,-0.06 -11.351,-8.516 -22.498,-18.787 -22.984,-21.174 -23.131,-20.568 7.152,-30.281 13.676,-4.387 28.317,-6.717 39.254,-6.771 z m -86.763,27.351 c 0.04,-0.01 0.1,-0.01 0.158,0 v 0 c 1.84,0.238 11.114,8.253 21.533,18.67 l 20.209,20.209 -8.436,4.979 -8.431,4.982 -13.367,-23.594 c -7.353,-12.978 -12.655,-24.311 -11.778,-25.187 0.03,-0.03 0.07,-0.05 0.112,-0.06 z m 117.087,7.014 v 10.433 c 0,5.738 -0.798,14.424 -1.775,19.303 -1.738,8.684 -2.065,8.841 -15.299,7.274 -16.192,-1.917 -23.144,3.307 -17.769,13.349 1.759,3.285 4.454,5.977 5.992,5.977 1.535,0 2.791,1.3 2.791,2.892 0,1.591 -2.173,2.897 -4.828,2.897 -13.617,0 -41.498,6.755 -41.498,10.051 0,2.117 -5.155,4.355 -12.205,5.302 -13.724,1.839 -21.545,9.275 -16.346,15.536 2.601,3.136 0.288,3.805 -12.357,3.609 -16.991,-0.271 -23.518,-1.912 -42.866,-10.783 l -12.828,-5.881 11.385,-1.762 c 29.806,-4.606 45.522,-9.099 73.185,-20.91 36.398,-15.546 64.114,-32.653 75.739,-46.756 z m -129.38,14.056 c 0.954,0.435 5.417,7.533 10.359,16.524 8.943,16.267 10.957,24.966 3.777,16.316 -3.844,-4.632 -15.557,-31.561 -14.281,-32.836 0.03,-0.03 0.08,-0.03 0.145,0 z m -25.358,2.913 c 0.313,-0.02 0.555,0.04 0.713,0.195 2.061,2.061 15.234,39.973 14.217,40.916 -0.342,0.32 -9.092,1.452 -19.444,2.517 -14.401,1.485 -20.163,0.942 -24.535,-2.318 -5.186,-3.866 -5.331,-4.966 -1.595,-11.949 4.872,-9.101 25.947,-28.992 30.644,-29.361 z" fill="#00B894" transform="translate(-283.1969,33.966287) matrix(0.26458333,0,0,0.26458333,-2411.2069,-7010.1377)"/>
</svg>