<?xml version="1.0" ?><svg height="57.578762mm" viewBox="0 0 29.019936 57.578762" width="29.019936mm" xmlns="http://www.w3.org/2000/svg">
    <path d="m 2265.9114,795.97161 c 0.7894,-4.68654 3.5141,-8.07826 8.6961,-8.12412 5.182,-0.0458 8.6579,5.39698 8.6961,8.04389 0.038,2.64692 -3.6541,8.58245 -3.6541,8.58245 0,0 7.6775,25.78169 7.4865,29.44842 -0.191,3.66673 -3.5905,6.51989 -12.8722,5.9355 -9.2818,-0.58438 -11.5227,0.11459 -10.3641,-6.24491 1.1587,-6.35947 7.3338,-28.85254 7.3338,-28.85254 0,0 -5.7804,-4.31988 -5.3221,-8.78869 z" fill="#FFFFFF" paint-order="markers stroke fill" transform="translate(-146.94644,-54.928738) translate(-2114.2304,-730.55988)"/>
    <path d="m 2264.9211,841.9042 c -1.4289,-0.46888 -2.8897,-2.01083 -3.4091,-3.59839 -1.2316,-3.76339 1.1078,-17.30039 4.1359,-23.93451 l 2.3526,-5.1542 c -3.6208,0.387 -4.7791,-4.67779 -0.4037,-5.06402 0,0 -2.0045,-1.23473 -3.1896,-3.00835 -4.3571,-6.52068 0.5825,-15.15191 9.3123,-15.63962 3.3119,-0.18503 6.5586,1.20814 9.1238,3.11109 4.2434,3.14787 3.4532,12.16089 -0.7918,14.71248 0,0 5.46,2.62189 0.6133,4.64919 -0.499,0.15441 0.4037,2.83317 2.0059,5.95305 3.5083,6.83056 5.9938,16.87818 5.4518,22.03607 -0.3163,3.00667 0,5.10957 -2.3389,6.16837 -3.3521,1.50992 -19.0984,1.00405 -22.8622,-0.23119 z m 18.9246,-6.78226 c -0.1318,-1.64741 -2.2666,-2.5544 -9.0998,-2.27331 -5.2062,0.21429 -8.7024,-0.90287 -8.6789,2.48688 0.029,2.88553 2.9319,2.36251 8.6715,2.25221 2.9539,-0.0567 9.3547,0.63281 9.1072,-2.46578 z m -1.1242,-6.89995 c 0.2521,-0.41145 -0.1117,-3.03508 -0.8104,-5.83035 -0.6985,-2.79524 -1.7272,-7.28466 -2.2856,-9.97646 -0.7583,-3.65682 -1.3974,-4.75702 -2.5273,-4.35171 -0.8316,0.29837 -2.352,0.52406 -3.3784,0.50151 -1.9326,-0.0424 -3.9259,5.63947 -6.2997,15.55247 -1.6805,7.01686 0.4927,4.53769 6.9483,4.67939 4.3413,0.0954 8.1002,-0.1633 8.3531,-0.57485 z m -3.116,-27.72923 c 3.9663,-3.08877 0.7403,-9.97817 -4.7114,-10.09784 -6.5375,-0.14352 -9.4619,6.35475 -4.313,9.99791 3.0857,2.18352 6.7016,1.90888 9.0244,0.1 z" fill="#00B894" transform="translate(-146.94644,-54.928738) translate(-2114.2304,-730.55988)"/>
</svg>