<?xml version="1.0" ?><svg height="95.85701mm" viewBox="0 0 35.717186 95.85701" width="35.717186mm" xmlns="http://www.w3.org/2000/svg">
    <path d="m 2091.2958,838.53267 c -2.425,-0.63736 -6.6312,-1.52578 -4.4852,-14.96788 2.146,-13.44213 6.1966,-37.74363 6.1966,-37.74363 0,0 -3.435,-1.71363 -3.3491,-6.7351 0.086,-5.02148 -2.9255,-8.7683 -1.316,-12.28331 1.6096,-3.51504 5.0139,-6.31547 5.0139,-6.31547 l -1.6095,-9.19319 4.8285,1.62232 4.335,-4.46138 3.6482,4.77041 4.3564,-3.22535 1.0301,9.84983 c 1.1285,-0.98435 4.3462,9.03923 0.7296,14.07946 -1.804,2.51406 -1.4593,9.40562 -2.1031,11.18246 -0.6438,1.77683 5.2363,32.34991 6.3952,36.54091 1.1588,4.191 -0.3649,18.40566 -0.3649,18.40566 z" fill="#FFFFFF" paint-order="markers stroke fill" transform="translate(17.858634,-55.722496) translate(-2101.0613,-691.33264)"/>
    <path d="m 2090.2192,842.01492 c -4.4106,-1.23129 -5.6683,-2.74719 -6.6434,-6.57178 -1.0173,-3.99035 0.3125,-8.16771 0.8273,-11.61681 0.5194,-3.48001 2.14,-10.72414 3.6257,-16.09449 1.486,-5.37037 3.0098,-12.27511 3.3868,-15.34388 0.6016,-4.89708 0.432,-5.74561 -1.3852,-6.93662 -1.6174,-1.06029 -1.9403,-2.06007 -1.4759,-4.57238 0.3584,-1.93749 0.049,-3.99691 -0.7781,-5.18193 -1.6776,-2.40294 -3.6102,-10.76528 2.5525,-15.27731 1.1156,-0.81655 -0.9525,-3.05301 -1.1224,-6.38397 -0.1719,-3.35212 1.1898,-7.02499 3.9612,-4.53695 2.9143,2.61642 3.6815,0.83449 4.4791,-0.65985 1.198,-2.24402 4.6636,-2.67139 6.1616,0.47605 1.2869,2.70448 1.272,0.91069 1.7773,0.039 1.0617,-1.83218 4.4777,-1.14982 5.5958,1.05467 0.573,1.12951 0.8978,3.82863 0.7222,5.99803 -0.1776,2.16939 -0.5867,2.68454 0,3.4383 2.1821,2.76138 2.9989,9.39321 1.0036,13.94397 -0.962,2.1942 -1.6943,4.39898 -1.321,5.53086 0.3509,1.06407 0.1461,2.96335 -0.4572,4.22059 -1.4539,3.03356 0.1948,12.67475 4.5499,26.60001 2.8587,9.14154 3.326,12.10494 3.2294,20.48573 -0.074,6.5485 -0.536,10.20455 -1.3882,11.02357 -1.5247,1.46486 -22.373,1.74363 -27.3107,0.36518 z m 22.2131,-10.60785 -11.6231,-0.0951 c -11.3895,-0.0931 -11.6239,-0.0487 -11.6737,2.21615 -0.049,2.2743 0.1375,2.31553 11.5689,2.56645 l 11.6196,0.25497 c 2.0151,0.0576 1.8842,-4.68738 0.1089,-4.94243 z m 0.1891,-5.52376 c 0.275,-0.26184 -0.1146,-5.18116 -1.2462,-9.83694 -3.4378,-14.14233 -5.1452,-19.5545 -5.4128,-24.31519 -0.1891,-3.34944 -0.6125,-4.01498 -1.6908,-3.77325 -2.7513,0.61295 -4.4596,0.81801 -8.0893,-0.0201 l -0.7202,7.95912 c -0.3997,4.41557 -1.1385,9.99328 -2.6004,14.38959 -1.3103,3.94128 -2.8204,9.25318 -3.355,11.8042 l -0.9723,4.63819 5.1744,0.0934 c 6.6031,0.11946 13.1732,1.52362 18.9126,-0.93962 z m -9.0877,-43.46341 c 2.1623,-0.59653 3.9396,-1.44363 3.9494,-1.88248 0,-0.43883 -1.3978,-0.33914 -3.1273,0.22144 -1.7297,0.5607 -5.372,0.706 -8.0941,0.32284 -2.7222,-0.38314 -4.0569,-0.0751 -4.0678,0.40829 -0.046,2.15977 5.495,2.54205 11.3398,0.92983 z m 4.1273,-17.39224 c -1.1122,-2.63375 -3.8383,-3.20416 -8.8737,-2.81552 -4.2059,0.32458 -7.1406,2.9282 -7.2299,7.00328 -0.092,4.12969 2.2855,6.18914 7.5639,6.19152 7.1912,0.003 10.845,-4.92109 8.5397,-10.37928 z m -4.47,-7.71343 c 4.5172,0.0848 4.8031,-0.0662 4.8584,-2.59107 0.057,-2.65151 0.034,-2.66111 -2.0807,-0.82987 -2.1007,1.81888 -2.1701,1.81092 -3.7884,-0.43568 -1.6126,-2.39282 -1.4676,-2.56483 -3.0175,-0.19996 -1.0167,1.55108 -1.9982,1.91569 -3.8147,1.41712 -2.6571,-0.7292 -2.7637,-0.61962 -1.8576,1.90615 0.408,1.13713 1.313,1.52092 2.7542,1.16781 1.1806,-0.28929 4.3064,-0.48478 6.9463,-0.43442 z" fill="#00B894" transform="translate(17.858634,-55.722496) translate(-2101.0613,-691.33264)"/>
</svg>