<?xml version="1.0" ?><svg height="134.68866mm" viewBox="0 0 341.93234 134.68866" width="341.93234mm" xmlns="http://www.w3.org/2000/svg">
    <path d="m 2160.8171,1092.9245 c 47.334,-28.4737 94.5851,-56.9962 144.8334,-83.755 63.2844,6.0274 124.3384,17.7305 186.0852,27.6706 l 5.2373,5.1002 -55.5957,48.239 -61.7735,50.3697 -11.6247,-1.265 -98.5385,-18.8733 -39.984,-7.2346 -69.5089,-10.5977 c -0.2423,-4.9246 -1.0726,-8.2989 0.8694,-9.6539 z" fill="#FFFFFF" paint-order="markers stroke fill" transform="translate(95.619816,-63.4154) translate(-2252.3644,-944.6958)"/>
    <path d="m 2370.3112,1142.0824 c -0.9713,-1.0552 -83.5181,-17.6329 -111.2214,-22.3369 -8.5598,-1.4533 -19.6249,-3.4513 -24.589,-4.4394 -4.9643,-0.9884 -14.4644,-2.3243 -21.1109,-2.9681 -14.0674,-1.3632 -24.7657,-2.9993 -36.6743,-5.6087 -4.6847,-1.0265 -10.3613,-1.9432 -12.6147,-2.0365 -2.2532,-0.094 -4.8108,-0.7684 -5.6833,-1.4996 -1.3552,-1.1356 -2.0249,-5.4371 -1.4872,-9.5569 0.1563,-1.2002 17.0012,-11.4629 30.0062,-18.2814 4.1661,-2.1847 22.5853,-13.0255 40.9313,-24.0912 41.5563,-25.0653 62.1351,-36.7739 70.9448,-40.365 l 6.8378,-2.7875 22.1595,2.069 c 12.1874,1.1379 29.1707,3.0615 37.7402,4.2742 25.3005,3.581 58.7027,8.764 74.8491,11.6141 8.2815,1.4619 22.286,3.8908 31.1219,5.3979 21.8419,3.7249 25.8285,4.9755 26.8871,8.4346 1.0373,3.3892 -0.3949,4.9253 -13.9701,14.9738 -5.3179,3.9364 -18.2916,15.132 -28.8308,24.879 -10.5389,9.7468 -24.5803,22.2356 -31.203,27.7527 -44.2374,36.8534 -42.3395,35.4885 -48.9561,35.2157 -2.5999,-0.1069 -4.9117,-0.3942 -5.1371,-0.6398 z m 2.7854,-4.4831 c 0.7024,-1.0389 -1.2418,-1.6703 -8.9621,-2.9106 -10.4717,-1.6823 -48.6917,-9.0186 -64.2025,-12.3236 -13.2338,-2.8199 -54.787,-9.541 -55.4147,-8.9632 -0.6135,0.5651 4.3254,1.5717 16.7158,3.4061 9.3748,1.3881 18.9879,3.1919 51.6724,9.6966 4.9643,0.988 15.3445,3.0482 23.0669,4.5789 7.7224,1.5304 18.5511,3.7521 24.0629,4.9377 12.8363,2.7601 12.3051,2.6959 13.0613,1.5781 z m 8.0947,0.3039 c 0.3659,-0.541 0.1847,-1.0035 -0.4038,-1.0278 -0.5878,-0.025 -1.0878,0.4104 -1.1105,0.9653 -0.023,0.5553 0.1587,1.0178 0.4036,1.0278 0.2432,0.01 0.7446,-0.4245 1.1107,-0.9653 z m 17.9346,-14.1748 c 27.795,-23.1344 63.8845,-54.4023 67.9612,-58.8812 4.1483,-4.5573 -1.2872,-0.1424 -33.4622,27.1828 -7.4977,6.3677 -19.7307,16.5588 -27.1839,22.6471 -20.4291,16.6877 -24.3112,20.185 -22.5146,20.2837 0.8802,0.037 7.7194,-5.0063 15.1995,-11.2324 z m -47.5527,1.0678 c 1.6324,-1.4656 5.5365,-4.6724 8.6758,-7.1265 l 5.7076,-4.4614 -5.9944,-0.8452 c -3.2973,-0.4649 -9.9268,-1.6137 -14.7326,-2.5532 l -8.7376,-1.7077 -7.4475,6.7095 c -4.0958,3.6901 -7.3143,6.8394 -7.1524,6.9981 0.1626,0.1588 5.714,1.2911 12.3365,2.5163 6.6227,1.2252 12.2231,2.4178 12.4451,2.6496 0.8677,0.9058 2.0462,0.3817 4.8995,-2.1795 z m -55.6778,-15.1708 c 3.9465,-2.8912 7.4531,-5.6671 7.7924,-6.1689 0.6726,-0.9945 -1.923,-1.7535 -10.4345,-3.0517 -9.5884,-1.4622 -16.0423,-3.2872 -15.9913,-4.5219 0.026,-0.6559 3.8084,-3.2747 8.4034,-5.8193 5.4962,-3.0445 7.9071,-4.8901 7.0473,-5.3955 -0.7191,-0.4223 -5.1551,-1.2416 -9.8579,-1.8204 -9.5253,-1.1723 -13.0624,-1.9933 -13.0197,-3.0225 0.014,-0.3803 3.254,-2.5755 7.1968,-4.8779 3.9429,-2.3028 7.0053,-4.4773 6.8053,-4.8325 -0.2004,-0.3554 -4.35,-1.3862 -9.2227,-2.2907 l -8.8593,-1.6447 -9.2403,4.5181 -9.2401,4.5177 8.3949,1.5508 c 10.6317,1.9637 13.168,2.7205 13.1186,3.9147 -0.043,1.0228 -9.367,7.6694 -13.3706,9.5302 -1.3245,0.6153 -2.2617,1.2769 -2.0829,1.4696 0.1782,0.1938 5.0719,1.0887 10.8739,1.9904 5.8022,0.9015 10.8589,1.9487 11.237,2.327 1.0593,1.0591 -0.2144,2.2857 -8.487,8.1752 -4.2122,2.9987 -7.5006,5.5096 -7.3078,5.5799 1.2477,0.4546 23.9501,4.6743 26.2452,4.8778 2.0289,0.181 4.8448,-1.2293 9.9993,-5.0054 z m -82.5637,-1.5467 c -0.6718,-0.3057 -2.034,-0.3776 -3.0263,-0.162 -0.9929,0.2142 -0.4433,0.4648 1.2214,0.5538 1.6645,0.098 2.4769,-0.087 1.8049,-0.3916 z m 187.1516,3.3196 5.179,-4.8422 -2.9891,-0.1524 c -1.6446,-0.067 -7.0314,-1.166 -11.9715,-2.4195 l -8.9816,-2.2788 -3.6739,2.6851 c -2.0204,1.4767 -4.7939,3.7919 -6.1633,5.1441 l -2.4894,2.4586 3.3692,0.7318 c 4.4002,0.9563 16.726,2.9727 19.9859,3.2702 1.8287,0.1673 4.0296,-1.1444 7.7353,-4.6088 z m -196.9558,-5.1013 c -6.0789,-1.4608 -18.1532,-3.0618 -17.5026,-2.3208 0.6254,0.7122 13.5938,2.9181 18.48,3.1435 2.4849,0.1024 2.3094,-0.034 -0.9774,-0.8227 z m -19.302,-3.462 c -0.6716,-0.3057 -2.0337,-0.3775 -3.0266,-0.162 -0.9924,0.2142 -0.4426,0.4648 1.2222,0.554 1.6641,0.098 2.4764,-0.087 1.8045,-0.3916 z m 55.5344,-2.8492 8.4656,-5.4515 -3.3664,-0.8376 c -1.8517,-0.4606 -7.1426,-1.3106 -11.7574,-1.8888 l -8.3903,-1.0515 -5.6819,5.1669 c -3.1249,2.8419 -5.6942,5.4689 -5.7093,5.8381 -0.022,0.5453 5.6023,1.7146 16.7554,3.4832 0.6703,0.105 5.0282,-2.26 9.6843,-5.2588 z m -70.6108,0.1994 c -0.6825,-0.309 -1.8178,-0.3558 -2.5236,-0.1041 -0.7055,0.2518 -0.1476,0.5039 1.2409,0.5611 1.388,0.057 1.9651,-0.1483 1.2827,-0.457 z m 174.9321,0.8149 c 4.4526,-2.867 7.7394,-5.343 7.3047,-5.5022 -0.4351,-0.1585 -6.5656,-1.3852 -13.6239,-2.7244 -7.0579,-1.3391 -13.1415,-2.7711 -13.5188,-3.1825 -0.6514,-0.7104 0.46,-1.7119 7.6243,-6.8692 1.7021,-1.225 2.7803,-2.5688 2.3963,-2.986 -0.3842,-0.4173 -5.5501,-1.6953 -11.4799,-2.8406 l -10.7817,-2.0823 -3.6275,2.151 c -1.995,1.1826 -5.6167,3.377 -8.0479,4.8758 l -4.4206,2.7251 8.8147,1.0607 c 9.3289,1.1225 15.9008,2.7745 16.702,4.1985 0.267,0.4726 -2.9894,3.237 -7.234,6.1429 -8.7539,5.9935 -8.5906,6.3489 3.2239,7.0364 3.6062,0.2087 9.0313,1.0562 12.0557,1.8803 3.0248,0.8243 5.7286,1.4605 6.0085,1.4138 0.2801,-0.046 4.152,-2.4303 8.6042,-5.2973 z m -159.4426,-4.4349 c 0.32,-0.4729 3.9358,-2.7022 8.0354,-4.9544 l 7.4539,-4.0943 -9.7571,-1.7127 -9.7564,-1.713 -9.3696,4.946 -9.3693,4.9461 7.8749,1.4612 c 10.1623,1.8854 14.167,2.1868 14.8882,1.1211 z m 200.4009,-1.6572 c 3.1162,-2.4739 5.5351,-4.6399 5.3755,-4.8133 -0.1594,-0.1727 -5.6222,-1.4406 -12.1384,-2.8154 l -11.8476,-2.4999 -5.3115,4.7142 -5.3119,4.7143 4.9606,0.9187 c 2.7286,0.5051 7.435,1.6122 10.4585,2.4602 7.8599,2.2043 7.6008,2.2544 13.8148,-2.6788 z m -161.0863,-5.8119 c 0.02,-0.479 4.0334,-3.4734 8.9197,-6.6546 l 8.8841,-5.7839 -3.3107,-0.6492 c -1.8209,-0.3558 -6.0483,-1.0233 -9.3944,-1.4812 l -6.0835,-0.8318 -9.7739,6.4456 -9.7737,6.4453 6.9733,1.4189 c 8.9453,1.82 13.5138,2.1876 13.5591,1.0909 z m 203.0045,0.2665 8.0469,-6.2364 -14.8738,-2.337 c -15.0976,-2.3722 -11.4726,-3.8082 -16.7126,0.3089 -2.7569,2.1662 -9.2803,7.4316 -9.2553,7.8809 0.024,0.4494 7.9517,2.0848 12.6595,3.2516 4.6394,1.1499 11.0809,3.5651 14.192,1.4565 4.0514,-3.4822 2.3216,-1.2604 5.9433,-4.3245 z m -61.1919,-6.5268 c 0.019,-0.4627 2.6623,-2.4962 5.8742,-4.5183 3.212,-2.0222 5.3513,-3.8624 4.7543,-4.089 -0.5969,-0.2281 -6.056,-1.6275 -12.1321,-3.113 -7.4815,-1.8293 -11.0616,-2.3368 -11.0931,-1.5725 -0.025,0.6203 -2.6081,2.8084 -5.7395,4.862 -3.1312,2.0535 -5.7139,4.0032 -5.7398,4.3322 -0.012,0.3297 4.3539,1.4705 9.7322,2.5359 12.0585,2.3894 14.3,2.6332 14.3438,1.5627 z m -134.3631,-15.1964 c 3.8084,-2.2832 6.5538,-4.3933 6.1012,-4.6895 -0.4529,-0.2966 -4.1132,-1 -8.1334,-1.5646 l -7.3097,-1.0265 -6.7152,3.9914 c -3.6935,2.1953 -6.7309,4.3705 -6.7498,4.8341 -0.02,0.4632 2.7975,1.1207 6.259,1.4608 3.462,0.3404 7.043,0.7371 7.9586,0.8816 0.9156,0.1432 4.7806,-1.6043 8.5893,-3.8873 z m 98.8789,-5.1727 -9.845,-1.338 c -12.7782,-1.7366 -14.2155,-2.2996 -14.5213,-3.6771 -0.126,-0.5612 2.9062,-2.9386 6.735,-5.2835 3.829,-2.3446 6.9898,-4.5549 7.024,-4.9115 0.066,-0.6795 -17.5222,-3.1586 -19.9414,-2.811 -0.7679,0.1118 -8.5955,4.5007 -11.4094,6.4259 -5.7277,3.9197 -1.7292,3.4841 8.0853,4.6633 2.4182,0.2905 6.1895,0.5065 8.3583,1.5998 0.5149,0.2596 -4.4678,3.6403 -8.9799,6.5628 l -8.2033,5.3142 4.7228,0.3723 c 6.8357,0.5423 16.462,2.6307 17.5474,3.8089 0.5994,0.6513 2.281,0.023 4.7008,-1.7575 4.8053,-3.3805 10.4651,-6.3737 15.7267,-8.9686 z m 81.7401,8.9943 c 3.3244,-2.6165 8.5271,-6.2519 8.4088,-6.6961 -0.1196,-0.4443 -7.4326,-0.914 -13.1005,-2.4267 l -11.2125,-2.1696 -6.8213,5.4713 c -4.2111,3.3777 -7.6071,6.1845 -7.459,6.3475 0.2988,0.3292 20.2859,3.8411 23.459,4.1456 1.1082,0.1056 3.4011,-2.0558 6.7255,-4.672 z m -129.9122,-16.5067 c 0.4851,0.02 0.8991,-0.3816 0.9201,-0.8926 0.038,-0.9167 -8.2299,-2.4454 -17.0589,-3.1537 -3.8789,-0.3118 -5.6306,0.2947 -12.1114,4.1905 -4.167,2.5052 -8.2422,4.7789 -9.0554,5.0532 -3.4902,1.177 -0.8676,2.1375 9.2711,3.3946 l 10.8144,1.3413 8.1689,-4.9846 c 4.4933,-2.7417 8.5661,-4.9687 9.0512,-4.9487 z m 78.3684,7.7989 c 3.6141,-2.4926 7.1868,-5.249 8.5806,-6.0772 2.4624,-1.4638 1.054,-1.8546 -7.7504,-3.3546 -12.5319,-2.1349 -12.1597,-2.1838 -18.6311,2.4586 -3.1873,2.2869 -6.9542,4.7106 -8.371,5.3856 -3.1357,1.4951 -2.6083,1.7278 8.7648,3.8671 4.7851,0.9003 10.3502,2.3175 10.4566,2.3921 0.1063,0.072 3.3365,-2.1789 6.9505,-4.6716 z m 95.5412,1.3897 c 2.2599,-2.1314 3.6764,-3.9017 3.148,-3.9345 -0.5294,-0.022 -5.4766,-0.9044 -10.9949,-1.9377 -5.5187,-1.0331 -10.9722,-1.9313 -12.1198,-1.9963 -2.2417,-0.1271 -10.9508,5.4907 -10.3017,6.6448 0.2163,0.3823 5.1595,1.1627 10.988,1.7341 5.8281,0.5715 11.3782,1.5383 12.3329,2.1486 2.4791,1.5836 2.428,1.603 6.9475,-2.659 z m -56.0157,-8.1227 c 2.7408,-2.1043 7.3583,-5.091 6.5199,-5.3796 -0.7351,-0.2539 -7.5685,-1.5308 -12.5268,-2.659 -12.8212,-2.9166 -13.1449,-3.7532 -3.458,-8.9319 3.0184,-1.6138 4.2161,-2.6813 3.0726,-2.7387 -4.0676,-0.2048 -19.6898,-4.1708 -19.6558,-4.9899 0.02,-0.479 2.6287,-2.4426 5.7975,-4.3636 6.903,-4.1841 6.4068,-4.7443 -5.4042,-6.0979 -8.2662,-0.9475 -8.661,-0.8914 -13.438,1.9057 -5.4341,3.1821 -6.2849,4.8441 -2.558,4.9976 3.5267,0.1454 10.0712,1.8021 15.3556,3.2303 0.8515,0.2301 -1.9316,2.9016 -4.8526,5.2344 l -4.541,3.6268 9.1254,2.1659 c 5.0192,1.1911 9.4022,2.6574 9.7402,3.258 0.3375,0.6009 -1.3607,2.7049 -3.7746,4.6757 l -6.4002,4.8615 7.2932,1.4617 c 4.0108,0.8038 11.4549,2.3278 12.2799,2.5453 4.0591,1.0699 3.409,0.2804 7.4249,-2.8023 z m -123.7745,-16.6382 c -0.6991,-0.4298 -4.4713,-1.0074 -8.3826,-1.2829 -6.6405,-0.4686 -7.532,-0.265 -13.4663,3.0685 -3.4951,1.9634 -6.3709,3.9595 -6.3906,4.436 -0.02,0.4761 1.6659,0.9812 3.7455,1.1224 2.0795,0.1404 4.894,0.6165 6.254,1.0563 1.8758,0.6066 4.5307,-0.2166 10.9921,-3.4091 5.4725,-2.704 8.0643,-4.4889 7.2479,-4.9912 z m 215.5068,5.3956 c 2.3007,-2.6441 -10.5656,6.7259 -14.1767,10.3243 -1.7018,1.6963 0.4417,0.4693 4.7635,-2.7267 4.3224,-3.1958 8.5582,-6.6148 9.4132,-7.5976 z m -141.2387,3.4819 c 1.9405,-1.8585 7.0467,-4.1294 8.8422,-6.6684 -0.2859,-0.3139 -5.5965,-1.3481 -11.8019,-2.2982 -6.9074,-1.0574 -10.0672,-1.8598 -9.8303,-2.4986 0.213,-0.574 3.405,-2.6685 7.2388,-4.8212 3.8336,-2.1527 8.1971,-4.298 7.7281,-4.6154 -0.4692,-0.3173 -6.8079,-1.3104 -10.9589,-1.8598 l -7.5477,-0.9986 -8.684,4.5673 -8.6841,4.5673 6.4936,1.0934 c 14.1068,2.3753 17.9696,1.3194 7.4488,6.6975 -2.7408,1.401 -5.892,3.7899 -5.9065,4.1432 -0.013,0.3534 4.1511,1.3926 9.2575,2.3095 5.1062,0.917 9.9596,1.8349 10.7852,2.04 0.8261,0.206 1.7697,0.4369 2.0972,0.5149 0.3278,0.076 2.4717,-1.1038 3.522,-2.1729 z m 85.9294,2.7201 c 1.9688,-1.7092 3.5918,-3.3976 3.6064,-3.7512 0.014,-0.3538 -4.6806,-1.571 -10.4339,-2.7051 l -10.4606,-2.0625 -3.6492,3.3604 c -2.007,1.8482 -3.2701,3.6168 -2.8073,3.9298 0.4632,0.3132 4.8175,1.2193 9.676,2.0136 4.8589,0.7941 9.0159,1.6339 9.2381,1.8661 0.726,0.7593 1.2064,0.4957 4.8305,-2.6511 z m -126.504,-14.0478 c 1.751,-0.6421 3.1976,-1.508 3.2146,-1.924 0.016,-0.4162 -3.6948,-1.237 -8.2482,-1.8239 -4.5539,-0.5869 -9.0184,-1.5026 -9.921,-2.0348 -1.1203,-0.6601 -2.0607,-0.5031 -2.9604,0.4945 -0.7259,0.8044 -3.5535,2.5999 -6.2843,3.9904 -5.8114,2.9586 -5.1368,3.9986 2.9349,4.5279 3.0502,0.2004 6.8963,0.7187 8.5468,1.153 2.193,0.5764 3.8804,0.2493 6.2677,-1.2133 1.7966,-1.1013 4.6995,-2.5277 6.4499,-3.1698 z m 170.2448,7.7337 5.6663,-4.0615 -2.7635,-0.7558 c -1.5199,-0.4158 -7.3452,-1.52 -12.9449,-2.4541 -11.3158,-1.8873 -12.1205,-1.6719 -19.1232,5.1177 l -2.9949,2.9039 8.8999,1.0198 c 4.8951,0.5609 10.0297,1.2038 11.4105,1.4284 1.3813,0.226 3.3372,0.5106 4.3472,0.6357 1.0099,0.1243 4.3859,-1.6006 7.5026,-3.8341 z m -47.2733,-12.8436 c 0.8114,-0.6432 -15.0098,-4.6391 -19.0229,-4.8045 -1.8934,-0.078 -15.7764,7.3889 -15.8225,8.5102 -0.012,0.3145 4.8228,1.6683 10.7455,3.008 l 10.769,2.4365 6.2413,-4.2389 c 3.4323,-2.3311 6.6229,-4.5413 7.0896,-4.9113 z m -127.2429,-11.4478 c -10.4818,-1.8663 -11.3169,-1.7821 -17.7683,1.7938 -3.4144,1.8928 -5.9834,3.5015 -5.7086,3.5748 12.1027,3.2289 12.0164,3.2316 20.7564,-0.6888 l 8.241,-3.6965 z m 30.4816,-4.9313 c -9.3551,-1.1557 -9.7009,-1.1206 -15.0355,1.5171 -4.9273,2.4367 -5.2333,2.7709 -3.1378,3.4256 1.2775,0.3991 4.3649,0.8479 6.8612,0.9975 2.4964,0.1488 5.4127,0.6558 6.4805,1.1252 1.3854,0.6088 3.7272,-0.1097 8.1745,-2.5147 l 6.2325,-3.3682 z" fill="#00B894" transform="translate(95.619816,-63.4154) translate(-2252.3644,-944.6958)"/>
</svg>