<?xml version="1.0" ?><svg height="69.280853mm" viewBox="0 0 42.070095 69.280853" width="42.070095mm" xmlns="http://www.w3.org/2000/svg">
    <path d="m 2215.5999,776.92663 h 33.4467 l -0.5365,15.89194 -7.189,2.2072 c 0,0 6.9744,41.84044 6.5299,43.63379 -0.4446,1.79337 -17.1219,2.42795 -21.6438,2.27618 -4.5219,-0.15174 -12.2168,-0.0414 -11.2051,-4.17988 1.0117,-4.13854 5.1657,-41.37142 5.1657,-41.37142 0,0 -9.1277,-2.67237 -7.7942,-5.72105 1.3336,-3.04872 3.2263,-12.73676 3.2263,-12.73676 z" fill="#FFFFFF" paint-order="markers stroke fill" transform="translate(-104.54215,-37.915283) translate(-2105.8998,-735.79287)"/>
    <path d="m 2212.9485,840.64409 c -1.2524,-3.6244 3.2479,-34.69816 5.0369,-42.26807 0.4157,-1.7585 -1.0425,-1.07917 -3.4283,-2.10895 -4.3814,-1.89082 -4.753,-5.35714 -3.4664,-12.97008 0.7291,-6.40729 0.4621,-8.96083 7.7573,-9.15277 5.018,-0.13207 13.5792,-0.49211 17.4664,-0.42863 9.8328,0.16071 14.1679,1.22957 15.0227,2.19349 0.6618,0.74636 1.1903,4.56531 1.1746,8.48659 -0.029,6.34535 -0.2991,7.38478 -2.4884,9.44944 -1.3527,1.2759 -3.2882,2.2697 -4.3012,2.20836 -2.4947,-0.15097 -2.4296,0.76917 0.9322,13.19603 3.4595,12.78839 5.4649,26.48287 4.3803,29.91217 -1.0958,3.46368 -6.5243,4.29491 -23.5335,3.60343 -11.6875,-0.4753 -14.1056,-0.82798 -14.5526,-2.12101 z m 24.9845,-2.53767 c 5.786,0.35025 7.4373,0.12921 7.5058,-1.00465 0.149,-2.45072 -1.288,-2.73156 -14.4449,-2.82426 -11.7921,-0.0831 -12.7246,0.0562 -12.8374,1.91792 -0.1118,1.85676 0.3472,1.98708 6.1186,1.73475 3.432,-0.15011 9.5779,-0.0708 13.6579,0.17619 z m -3.6457,-7.94835 c 5.2913,-0.0516 9.8394,-0.40382 10.1067,-0.78306 0.2664,-0.37927 -0.7984,-6.64017 -2.368,-13.9132 -1.57,-7.273 -2.9998,-14.53919 -3.1774,-16.14703 -0.3125,-2.82993 -0.4692,-2.91221 -4.9088,-2.57522 -2.5225,0.19137 -6.0387,0.1378 -7.8209,0.15241 -3.1161,0.0258 -3.2327,-0.21744 -3.5103,3.00007 -0.666,7.72303 -3.1487,26.27431 -3.615,28.04281 -0.8371,3.17419 -0.8062,3.20966 2.4124,2.7661 1.7934,-0.24723 7.5897,-0.49137 12.8813,-0.54282 z m -2.189,-38.10119 c 17.342,0.53139 14.0424,-0.006 14.4767,-7.17884 0.348,-5.75271 0.2377,-6.09302 -1.9197,-5.9187 -1.7129,0.13837 -2.3578,0.88674 -2.5606,2.97097 -0.3277,3.36874 -1.0777,4.15653 -3.0877,3.24249 -0.9075,-0.41287 -1.4458,-1.92397 -1.3353,-3.74965 0.1576,-2.58934 -0.2005,-3.0814 -2.3368,-3.21066 -2.2142,-0.13407 -2.5485,0.28247 -2.7376,3.40977 -0.1403,2.33581 -0.7846,3.74214 -1.8681,4.08439 -2.0773,0.65616 -3.5079,-1.70592 -2.8181,-4.65294 0.4246,-1.8137 0.057,-2.27456 -1.9019,-2.39322 -2.2025,-0.13322 -2.3884,0.16701 -2.0031,3.23427 0.3011,2.39743 -0.049,3.72733 -1.1989,4.57078 -2.3451,1.7181 -3.6821,0.27617 -3.4409,-3.71069 0.1461,-2.41301 -0.2521,-3.49917 -1.3029,-3.56286 -1.1901,-0.0719 -1.598,1.30953 -1.9103,6.46556 -0.2779,4.57503 0.2464,6.37191 1.1262,6.42276 0.6935,0.0401 5.9447,-0.29536 12.359,-0.0988 z" fill="#00B894" transform="translate(-104.54215,-37.915283) translate(-2105.8998,-735.79287)"/>
</svg>