<?xml version="1.0" ?><svg height="210.31609mm" viewBox="0 0 298.85965 210.31609" width="298.85965mm" xmlns="http://www.w3.org/2000/svg">
    <path d="m 40420.762,18851.143 c -17.655,-0.335 -29.418,14.513 -29.418,14.513 0,0 -20.511,-16.816 -40.414,-12.279 -19.902,4.536 -23.379,33.555 -23.379,33.555 0,0 -25.64,-8.682 -39.459,13.375 -13.818,22.057 22.683,33.32 22.683,33.32 0,0 -15.468,26.985 -19.9,89.324 -4.433,62.339 52.145,85.883 98.73,96.051 77.525,-9.699 103.25,-65 103.25,-65 0,0 25.205,-2.815 35.547,-15.721 10.343,-12.906 -9.82,-36.136 -9.82,-36.136 0,0 29.375,-45.21 21.988,-66.094 -7.388,-20.884 -43.457,-9.541 -43.457,-9.541 0,0 14.341,-26.282 -2.867,-42.16 -17.208,-15.879 -43.629,4.068 -43.629,4.068 0,0 -6.606,-34.338 -26.248,-36.998 -1.227,-0.166 -2.43,-0.255 -3.607,-0.277 z m 329.549,54.818 c -11.826,-0.368 -22.895,1.746 -32.249,6.879 -49.886,27.376 -75.96,57.489 -82.478,110.129 7.388,112.242 74.657,124.286 139.58,119.437 64.922,-4.85 96.122,-72.82 93.775,-135.629 -1.906,-51.031 -67.383,-99.222 -118.628,-100.816 z m -708.952,7.484 c -35.58,-0.143 -66.366,22.384 -87.55,66.869 0,0 -25.205,93.627 10.515,137.428 35.721,43.802 83.436,35.901 123.155,27.453 39.718,-8.447 77.522,-57.88 74.22,-113.023 -3.303,-55.143 -40.934,-96.754 -89.431,-113.258 -10.609,-3.61 -20.946,-5.429 -30.909,-5.469 z m 397.539,252.957 c -2.546,0.04 -5.148,0.158 -7.804,0.346 -84.999,6.023 -122.719,32.85 -135.842,75.635 -13.124,42.784 -3.998,209.23 -3.998,209.23 v 0 c 0,0 27.115,10.481 42.064,8.369 14.949,-2.112 5.477,46.227 5.477,46.227 l 154.267,-0.08 3.129,-39.342 c 0,0 25.551,7.743 30.678,1.016 5.128,-6.726 21.208,-169.809 19.383,-203.52 -1.768,-32.658 -28.412,-99.23 -107.354,-97.883 z m 270.811,18.868 c -26.623,-0.221 -50.862,5.983 -64.844,19.71 -24.857,24.403 -30.42,81.895 -30.42,81.895 l -15.295,0.313 c 0,-10e-4 -1.304,214.157 0.26,218.146 l 14.08,3.756 c 0,0 -2.26,17.676 29.897,22.291 32.158,4.614 173.47,13.063 173.47,4.014 0,-9.048 41.201,-173.823 40.506,-241.168 -0.695,-67.345 -39.458,-80.33 -84.912,-97.303 -19.886,-7.426 -42.035,-11.483 -62.742,-11.654 z m -603.043,0.488 c -7.465,0.04 -15.705,0.404 -24.781,1.094 -48.41,3.676 -71.614,28.94 -77.09,72.82 -5.475,43.88 4.693,191.631 17.555,227.14 41.979,9.074 71.877,-5.396 71.877,-5.396 l 3.65,20.023 140.709,-18.771 -18.774,-202.975 -34.503,-3.597 c 0,0 -9.735,-59.445 -20.077,-73.367 -8.403,-11.313 -26.216,-17.151 -58.566,-16.971 z" fill="#FFFFFF" paint-order="markers stroke fill" transform="translate(-83.386293,7.0882585) matrix(0.26458333,0,0,0.26458333,-9579.5343,-4321.5666) translate(-3313.5291,-2437.8203)"/>
    <path d="m 37503.315,17097.574 c -6.654,-3.874 -6.747,-16.16 -0.393,-50.893 l 4.852,-26.526 -22.082,-25.63 -22.084,-25.633 -3.788,9.108 c -2.085,5.009 -7.051,10.593 -11.041,12.409 -7.756,3.537 -8.783,7.332 -12.444,45.976 1.617,26.013 -2.57,46.136 -18.488,45.74 -14.905,-0.371 -10.353,1.191 -65.07,0.114 -44.794,-0.882 -59.385,-2.189 -68.22,-6.107 -19.509,-5.541 -11.238,-28.282 -11.238,-45.269 0,-33.046 -0.804,-40.597 -4.495,-42.01 -6.071,-2.331 -5.684,-9.94 0.69,-13.507 4.904,-2.743 4.898,-3.212 -0.06,-8.707 -5.104,-5.637 -4.337,-15.659 1.204,-15.659 5.426,0 2.445,-10.016 -5.045,-16.955 -8.503,-7.882 -8.399,-12.434 0.406,-17.292 9.445,-5.216 10.216,-7.917 10.305,-36.176 0.118,-33.304 1.987,-41.42 9.15,-39.544 5.541,1.448 8.715,-5.043 8.794,-17.993 0.135,-21.29 6.847,-37.396 22.759,-54.581 29.627,-31.997 60.175,-38.633 127.224,-27.625 53.812,8.829 67.478,16.073 97.005,51.406 15.965,19.104 45.845,95.482 52.311,133.715 5.213,30.819 7.206,95.134 3.502,112.973 -7.28,35.07 -29.309,41.522 -55.906,16.375 l -9.357,-8.85 -1.664,6.963 c -0.914,3.827 -2.614,13.546 -3.776,21.595 -1.904,13.17 -9.637,25.967 -15.549,25.731 -1.235,-0.03 -4.606,-1.467 -7.489,-3.148 z m -94.112,-48.455 c 0.936,-5.358 2.594,-19.374 3.687,-31.147 l 1.987,-21.41 -9.097,-1.999 c -15.694,-3.448 -14.804,-19.612 1.081,-19.612 3.822,0 7.781,-1.348 8.801,-2.996 1.019,-1.646 -1.013,-2.996 -4.514,-2.996 -21.792,0 -24.604,-21.38 -3.211,-24.437 12.202,-1.743 10.221,-7.565 -3.78,-11.089 -9.113,-2.294 -13.737,-5.224 -14.828,-9.399 -1.969,-7.528 7.755,-15.007 19.508,-15.007 h 8.323 v -23.975 c 0,-13.185 -1.012,-24.073 -2.248,-24.2 -1.237,-0.117 -27.868,-0.599 -59.184,-1.056 -31.314,-0.459 -58.957,-1.723 -61.43,-2.809 -3.867,-1.699 -4.35,2.319 -3.462,28.777 0.856,25.522 2.004,31.665 6.742,36.116 7.348,6.899 7.249,13.101 -0.284,17.809 -7.444,4.649 -7.711,8.293 -0.6,8.293 11.379,0 16.796,13.754 8.22,20.873 -2.833,2.35 -3.773,6.593 -2.677,12.075 1.336,6.691 0.282,9.204 -5.053,12.062 -6.481,3.468 -6.67,4.704 -4.884,31.914 1.024,15.571 2.644,29.579 3.603,31.129 0.989,1.599 25.556,2.825 56.673,2.825 h 54.928 z m 161.797,-19.477 c 2.838,-17.95 -3.411,-99.142 -9.042,-117.491 -4.092,-13.336 -5.333,-15.135 -6.291,-9.119 -0.657,4.123 -4.925,30.346 -9.483,58.277 l -8.289,50.787 13.461,14.391 c 7.403,7.915 14.452,14.392 15.664,14.392 1.211,0 3.002,-5.057 3.98,-11.237 z m -49.322,-92.804 c 11.845,-79.375 6.723,-119.762 -18.518,-145.982 -14.597,-15.163 -26.955,-19.588 -76.978,-27.563 -27.672,-4.412 -36.016,-4.704 -50.108,-1.748 -31.844,6.679 -54.87,29.988 -61.31,62.058 -1.837,9.155 -2.814,17.066 -2.166,17.583 0.65,0.513 11.965,-0.08 25.151,-1.359 39.847,-3.814 93.237,-3.249 96.673,1.026 1.656,2.057 3.961,18.048 5.12,35.53 l 2.111,31.785 9.35,4.174 c 6.237,2.785 10.117,7.169 11.657,13.165 3.137,12.228 47.66,63.272 50.525,57.924 1.172,-2.192 4.994,-23.158 8.493,-46.593 z m -474.603,143.103 c -21.068,-2.426 -30.303,-6.705 -33.035,-15.31 -1.085,-3.42 -1.015,-20.305 0.157,-37.516 l 2.136,-31.296 -11.064,-10.433 c -6.083,-5.738 -12.317,-10.435 -13.848,-10.435 -1.529,0 -2.802,8.428 -2.828,18.732 -0.04,22.163 -3.267,29.282 -11.039,24.438 -2.893,-1.804 -6.013,-6.475 -6.936,-10.377 -1.284,-5.442 -3.734,-7.122 -10.5,-7.208 -14.306,-0.181 -17.976,-11.424 -17.652,-54.052 0.242,-32.237 1.683,-41.565 13.908,-90.092 15.243,-60.509 26.204,-85.668 45.195,-103.74 28.363,-26.989 65.972,-37.173 127.783,-34.597 45.384,1.894 62.107,7.066 79.697,24.656 14.719,14.717 23.145,35.144 31.456,76.246 4.838,23.917 5.794,41.507 5.818,106.699 0.02,80.978 -0.601,85.255 -12.558,85.255 -3.793,0 -5.395,2.284 -5.395,7.689 0,10.742 -5.192,19.281 -11.725,19.281 -9.729,0 -13.062,-7.695 -11.667,-26.96 l 1.301,-17.99 h -8.357 -8.358 l 0.675,38.207 c 0.979,55.613 5.918,51.784 -66.105,51.285 -32.495,-0.226 -67.171,-1.343 -77.059,-2.482 z m 86.153,-20.095 35.212,-1.902 v -32.401 c 0,-29.333 -0.569,-32.705 -5.996,-35.607 -8.232,-4.406 -7.517,-11.555 1.499,-14.985 9.015,-3.427 9.73,-10.577 1.497,-14.982 -6.658,-3.565 -7.964,-14.81 -2.368,-20.404 2.833,-2.834 2.208,-4.615 -2.871,-8.174 -7.23,-5.066 -6.149,-12.209 2.254,-14.877 5.609,-1.78 7.837,-12.169 9.649,-44.947 l 0.83,-14.982 -67.425,-1.5 c -43.245,-0.96 -68.216,-0.423 -69.626,1.5 -1.212,1.647 -2.222,14.121 -2.248,27.718 l -0.03,24.724 h 10.12 c 19.264,0 22.956,16.987 4.959,22.824 -14.129,4.583 -15.256,10.139 -2.061,10.139 15.679,0 25.657,12.528 16.199,20.339 -2.061,1.702 -8.466,4.442 -14.237,6.089 -6.935,1.983 -8.328,3.089 -4.112,3.268 8.053,0.34 14.343,7.707 11.935,13.982 -1.014,2.637 -5.883,6.319 -10.824,8.184 l -8.983,3.389 v 34.259 34.256 l 30.716,-2.003 c 16.893,-1.103 46.559,-2.861 65.926,-3.907 z m 81.913,-150.072 c 4.089,-49.401 2.371,-89.43 -4.725,-110.048 -10.459,-30.408 -18.881,-41.851 -36.613,-49.75 -14.321,-6.376 -20.2,-7.068 -60.802,-7.162 -48.861,-0.117 -64.306,3.287 -85.012,18.703 -22.658,16.867 -38.482,75 -35.175,129.227 0.943,15.493 2.33,28.782 3.078,29.532 0.748,0.747 5.152,0.117 9.791,-1.439 8.242,-2.739 8.471,-3.421 10.339,-31.028 1.052,-15.526 4.171,-33.807 6.935,-40.627 2.956,-17.892 26.56,-14.399 68.509,-13.783 50.535,-1.102 66.726,0.826 80.717,3.15 24.429,4.057 17.231,18.381 17.231,39.802 0,32.079 0.519,35.433 5.723,37.085 10.8,3.427 12.815,9.055 6.241,17.413 -6.301,8.011 -5.291,9.406 7.807,10.792 2.064,0.226 4.287,-11.68 5.956,-31.867 z m -430.274,161.375 c -10.319,-1.771 -16.291,-40.435 -18.063,-52.745 -2.514,-17.775 -5.702,-29.079 -9.357,-33.158 -3.05,-3.4 -5.544,-7.703 -5.544,-9.562 0,-7.183 -6.434,-6.591 -23.852,2.204 -20.15,10.169 -20.357,10.726 -14.964,39.902 2.225,12.027 2.193,18.729 -0.117,23.025 -7.597,14.196 -18.321,3.171 -23.936,-24.613 l -3.474,-17.186 -11.034,4.856 c -31.754,13.977 -49.647,19.026 -67.36,19.01 -25.608,-0.02 -38.095,-4.123 -50.014,-16.421 -8.865,-9.146 -10.147,-12.397 -9.956,-25.191 0.478,-31.731 51.915,-119.698 103.732,-177.401 30.429,-33.884 50.202,-49.895 76.857,-62.227 15.203,-7.038 20.052,-7.697 57.07,-7.771 35.16,-0.06 42.289,0.765 54.47,6.361 21.392,9.835 37.463,39.213 42.841,78.314 l 2.139,15.564 h 13.278 c 11.026,0 13.707,1.142 15.797,6.743 3.352,8.989 17.253,106.803 22.868,160.932 3.706,35.723 3.804,44.001 0.565,47.242 -5.766,5.767 -59.468,18.026 -94.874,21.658 -18.3,0.533 -40.599,3.292 -57.072,0.464 z m 85.403,-27.742 c 47.234,-9.349 45.074,-7.101 44.283,-46.081 -0.555,-27.221 -7.77,-95.891 -14.57,-138.651 l -1.573,-9.897 -32.6,1.69 c -17.931,0.93 -44.49,3.699 -59.018,6.159 -43.772,7.399 -39.904,4.786 -39.904,26.984 v 19.421 h 20.375 c 19.9,0 27.569,3.027 27.569,10.873 0,8.493 -9.541,13.103 -27.931,13.493 l -18.515,0.397 20.39,2.369 c 11.212,1.306 22.403,4.043 24.864,6.086 6.236,5.174 4.022,15.642 -4.05,19.185 -7.637,3.349 -8.943,7.53 -2.356,7.53 6.993,0 11.41,10.857 7.441,18.278 -2.623,4.9 -5.464,5.993 -12.842,4.949 -5.213,-0.733 -12.019,-2.431 -15.13,-3.771 -5.068,-2.178 -5.475,-1.374 -3.926,7.787 0.951,5.618 3.368,21.781 5.375,35.914 1.882,26.565 2.869,25.739 27.9,24.458 13.34,-0.682 37.737,-3.911 54.218,-7.173 z m -222.186,-56.605 c 16.618,-6.668 31.024,-13.43 32.014,-15.03 0.988,-1.6 0.791,-9.966 -0.439,-18.593 -3.11,-21.834 -2.969,-123.675 0.203,-140.048 1.433,-7.417 2.283,-13.81 1.891,-14.209 -1.914,-1.941 -53.201,69.864 -69.62,97.461 -23.657,39.767 -41.098,79.867 -38.772,89.138 0.981,3.902 5.321,8.218 9.982,9.919 16.714,6.106 33.622,3.849 64.749,-8.638 z m 78.348,-36.91 c 17.46,-9.717 17.998,-10.388 18.622,-23.19 0.352,-7.25 0.929,-16.552 1.279,-20.671 0.352,-4.122 -0.412,-15.109 -1.697,-24.418 -2.023,-14.645 -1.556,-17.706 3.471,-22.733 6.672,-6.671 44.577,-16.791 81.706,-21.814 14.005,-1.895 26.04,-4.021 26.743,-4.726 2.602,-2.597 -5.395,-36.47 -11.855,-50.21 -10.291,-21.893 -17.266,-24.387 -68.297,-24.415 -22.163,-0.455 -38.152,-5.221 -53.009,10.979 -11.089,12.088 -15.104,23.876 -19.398,56.943 -4.841,37.27 -2.929,134.408 2.642,134.297 0.997,-0.02 9.904,-4.539 19.793,-10.042 z m -150.706,-199.862 c -10.979,-2.356 -21.601,-10.604 -21.601,-16.774 0,-2.438 -3.393,-4.029 -8.587,-4.029 -4.722,0 -12.139,-2.797 -16.481,-6.211 -6.561,-5.161 -7.874,-8.575 -7.777,-20.227 0.06,-7.794 3.217,-21.19 7.094,-30.176 6.188,-14.339 6.514,-17.04 2.894,-23.972 -8.012,-15.358 -3.287,-31.661 15.554,-53.676 7.309,-8.535 10.3,-14.956 10.3,-22.111 0,-15.125 19.369,-45.294 43.351,-67.529 22.281,-20.653 69.637,-46.434 92.935,-50.59 6.56,-1.169 15.999,-4.609 20.978,-7.645 12.558,-7.659 25.627,-7.317 27.729,0.725 1.403,5.359 3.428,6.087 13.954,5.022 24.066,-2.435 41.514,8.464 31.965,19.968 -4.087,4.927 1.712,7.699 16.092,7.699 12.391,0 22.496,9.875 17.769,17.37 -2.528,4.007 -1.032,7.594 7.357,17.627 10.339,12.368 7.861,10.953 7.861,10.953 27.973,-11.717 27.493,7.794 10.683,14.563 0,1.438 3.371,9.269 7.492,17.401 14.586,28.783 7.914,79.269 -14.937,113.048 -25.705,37.997 -78.244,61.79 -114.724,51.957 -10.639,-2.867 -13.903,-2.67 -19.396,1.179 -3.632,2.543 -11.153,4.625 -16.712,4.625 -5.56,0 -14.148,2.877 -19.087,6.391 -11.012,7.842 -32.283,10.608 -44.062,5.73 -7.297,-3.024 -10.006,-2.818 -16.165,1.216 -10.932,7.164 -23.351,9.853 -34.479,7.466 z m 198.407,-55.036 c 5.078,-2.161 17.77,-10.249 28.2,-17.978 15.648,-11.593 20.57,-17.479 28.14,-33.66 13.334,-28.488 14.754,-54.45 4.232,-77.43 -7.126,-15.564 -6.468,-13.758 -13.279,-12.047 -8.029,2.013 -12.463,-6.374 -6.315,-12.518 7.248,-7.251 -15.42,-29.382 -47.337,-46.221 -15.78,-8.327 -19.468,-9.071 -40.287,-8.145 -23.642,1.049 -35.516,6.691 -35.516,16.876 0,12.984 -13.306,47.334 -21.513,55.543 -6.02,6.021 -9.506,11.386 -7.555,15.223 22.864,44.975 30.834,102.831 33.642,109.238 9.145,20.868 52.509,21.781 77.588,11.119 z m -31.496,-23.685 c -17.376,-9.177 -30.508,-29.896 -30.902,-48.76 -0.247,-11.739 1.051,-14.871 9.154,-22.115 10.457,-9.344 36.813,-16.563 77.429,-21.203 22.035,-2.517 24.419,-2.254 29.965,3.3 4.692,4.695 5.988,9.832 5.842,23.174 -0.293,26.853 -11.968,44.952 -41.714,64.669 -15.2,10.077 -31.875,10.388 -49.774,0.935 z m -32.687,-107.931 c 0,-10.687 25.322,-22.64 35.928,-16.964 9.367,5.013 6.368,8.783 -12.032,15.136 -19.715,6.806 -23.896,7.125 -23.896,1.828 z m 56.938,-25.474 c 0,-8.905 10.188,-15.987 21.444,-14.908 12.975,1.245 13.241,8.735 0.426,12.054 -5.274,1.367 -10.41,3.813 -11.412,5.433 -3.12,5.046 -10.458,3.237 -10.458,-2.579 z m 736.395,178.971 c -7.914,-5.909 -8.865,-5.967 -22.257,-1.406 -18.062,6.158 -60.039,6.218 -83.432,0.117 -33.911,-8.832 -59.306,-31.032 -75.191,-65.725 -13.014,-28.435 -13.041,-76.099 -0.03,-106.435 1.289,-3.011 -1.034,-6.17 -7.038,-9.578 -13.112,-7.443 -9.234,-15.613 6.41,-13.514 9.748,1.307 12.458,0.384 17.425,-5.927 5.401,-6.866 5.503,-8.053 1.261,-14.527 -6.632,-10.122 -4.182,-19.902 6.33,-25.276 4.945,-2.526 9.576,-4.955 10.291,-5.394 0.715,-0.439 -0.226,-2.322 -2.086,-4.184 -3.667,-3.665 -1.766,-19.572 3.073,-25.733 3.529,-4.495 19.061,-4.994 21.716,-0.7 3.842,6.215 7.954,-0.978 6.128,-10.72 -1.506,-8.03 -0.718,-10.599 4.028,-13.14 8.764,-4.69 20.381,-3.826 22.491,1.675 2.425,6.317 9.438,0.905 11.985,-9.252 2.65,-10.546 13.446,-12.95 19.878,-4.425 5.137,6.812 5.171,6.814 7.141,0.601 2.546,-8.019 18.167,-13.774 26.006,-9.58 3.134,1.676 5.804,6.037 5.935,9.686 0.133,3.65 0.945,4.863 1.811,2.698 0.867,-2.166 4.988,-5.238 9.158,-6.822 9.379,-3.565 21.756,3.449 21.756,12.328 0,3.259 0.337,5.905 0.749,5.88 0.412,-0.02 6.145,-1.988 12.735,-4.363 6.595,-2.375 13.622,-4.377 15.617,-4.451 5.416,-0.201 15.849,12.155 15.849,18.76 0,5.447 0.418,5.498 7.387,0.933 16.15,-10.583 28.349,-3.449 23.967,14.012 -1.665,6.639 -1.078,7.229 5.89,5.893 9.98,-1.906 16.694,3.791 16.694,14.162 0,7.143 0.975,8.023 7.51,6.773 4.131,-0.79 9.524,0.238 11.989,2.283 5.16,4.279 5.919,15.322 1.368,19.873 -2.146,2.146 -2.146,5.637 0,11.284 2.176,5.721 2.138,9.99 -0.136,14.223 -2.501,4.671 -2.161,7.233 1.499,11.276 2.605,2.876 4.731,8.687 4.731,12.916 0,4.224 2.024,8.46 4.498,9.407 6.61,2.538 5.558,18.001 -1.668,24.543 -4.247,3.844 -5.622,7.737 -4.419,12.522 1.26,5.03 -0.354,8.889 -5.847,13.983 -6.63,6.144 -7.019,7.508 -3.073,10.781 6.285,5.218 5.64,16.054 -1.335,22.364 -4.187,3.79 -5.375,7.668 -4.181,13.638 2.075,10.38 -7.386,20.951 -18.755,20.951 -6.264,0 -7.385,1.042 -5.654,5.247 5.131,12.46 4.767,15.711 -2.572,23.054 -5.59,5.585 -10.813,7.66 -19.304,7.66 -9.51,0 -12.267,1.372 -15.055,7.492 -3.824,8.393 -15.713,10.246 -22.068,3.445 -3.162,-3.384 -5.267,-3.14 -12.854,1.486 -13.206,5.871 -18.536,4.912 -26.351,-0.794 z m -42.07,-23.707 c 7.911,-1.704 21.783,-6.802 30.828,-11.327 14.862,-7.44 16.636,-9.376 18.427,-20.13 1.409,-8.452 0.725,-13.316 -2.368,-16.802 -3.272,-3.684 -3.918,-9.558 -2.598,-23.666 0.963,-10.32 2.37,-19.764 3.128,-20.988 0.757,-1.224 -1.985,-4.426 -6.092,-7.119 -9.153,-5.994 -9.803,-17.394 -1.47,-25.728 3.294,-3.297 5.992,-6.793 5.992,-7.769 0,-0.976 -2.698,-5.205 -5.992,-9.393 -3.297,-4.191 -5.994,-10.809 -5.994,-14.709 0,-4.954 -1.708,-7.085 -5.673,-7.085 -5.896,0 -9.311,-5.511 -9.311,-15.02 0,-3.444 -2.524,-5.904 -6.666,-6.498 -3.669,-0.529 -8.237,-4.111 -10.148,-7.965 -2.12,-4.267 -4.27,-5.73 -5.498,-3.746 -3.496,5.661 -16.212,3.674 -19.837,-3.098 -6.85,-12.797 -43.7,-1.38 -69.856,21.644 -11.858,10.438 -13.411,13.151 -11.886,20.774 1.474,7.375 0.572,9.213 -5.686,11.592 -5.479,2.083 -8.338,6.398 -10.851,16.376 -1.878,7.447 -3.411,14.296 -3.411,15.212 0,0.919 19.253,1.671 42.784,1.671 49.021,0 53.933,1.78 59.229,21.446 7.869,29.225 -11.152,60.49 -42.46,69.788 -8.631,2.561 -17.806,4.72 -20.392,4.792 -8.382,0.234 18.797,12.919 35.756,16.681 21.059,4.677 32.178,4.913 50.045,1.067 z m -39.627,-146.952 c -3.854,-12.146 16.286,-24.589 20.791,-12.847 2.547,6.63 -5.995,19.054 -13.097,19.054 -3.157,0 -6.605,-2.782 -7.694,-6.207 z m -32.71,-10.875 c -2.531,-6.592 7.67,-20.374 15.081,-20.374 7.049,0 9.014,9.011 4.004,18.373 -4.453,8.317 -16.189,9.547 -19.085,2.001 z m -341.801,153.883 c -38.911,-5.737 -61.794,-33.642 -76.578,-77.206 -6.482,-19.107 -6.854,-40.35 -1.181,-67.522 1.733,-8.297 0.944,-9.916 -6.584,-13.525 -12.997,-6.228 -11.008,-12.83 4.195,-13.929 10.575,-0.767 13.51,-2.401 17.23,-9.591 5.76,-11.138 5.794,-10.986 -2.923,-13.173 -8.945,-2.243 -13.62,-10.189 -14.138,-24.029 -0.697,-18.491 12.89,-31.584 32.975,-31.775 6.435,-0.06 9.152,-2.475 13.57,-12.053 3.057,-6.628 9.347,-13.956 14.085,-16.407 12.163,-6.286 30.517,-5.613 39.503,1.457 7.431,5.846 7.551,5.846 19.018,0 25.98,-13.247 54.874,-3.291 55.125,18.989 l 0.08,8.387 17.544,-1.984 c 26.174,-2.96 35.645,4.32 39.228,30.155 1.63,11.755 1.935,12.02 15.77,13.609 7.759,0.892 14.612,2.241 15.227,2.998 8.328,10.225 11.12,18.297 11.12,32.157 0,17.62 -4.442,28.432 -16.196,39.412 -9.293,8.681 -9.456,10.808 -2.082,27.276 8.981,20.064 0.08,35.87 -22.938,40.79 -5.446,1.164 -11.32,6.455 -17.372,15.656 -25.744,30.823 -65.575,60.496 -134.678,50.308 z m 49.044,-27.331 c 35.097,-7.439 58.543,-25.412 69.588,-47.059 15.439,-30.265 14.279,-86.345 -2.424,-117.032 -15.62,-28.698 -46.799,-48.032 -77.06,-47.781 -36.877,0.305 -58.876,13.833 -75.039,46.144 -9.519,19.031 -10.278,22.083 -6.205,25.062 7.232,5.29 5.469,12.339 -3.904,15.608 -7.299,2.547 -8.822,5.037 -10.487,17.192 -3.248,23.691 -2.24,36.393 4.174,52.666 12.555,31.849 28.084,47.735 55.408,54.148 15.919,3.738 23.603,5.788 45.949,1.052 z m -46.275,-19.248 c -15.636,-3.98 -33.793,-15.845 -41.686,-27.231 -13.263,-19.138 -8.321,-47.766 9.925,-57.512 17.704,-9.452 102.114,0.372 112.457,13.093 12.803,15.748 -4.483,54.574 -29.15,65.471 -14.801,6.54 -38.821,9.419 -51.546,6.179 z m 8.044,-122.982 c -2.117,-1.309 -3.393,-5.597 -2.836,-9.531 1.386,-9.797 15.546,-10.31 16.925,-0.615 1.053,7.406 -7.99,13.916 -14.089,10.146 z m 35.5,-3.449 c -4.671,-8.725 4.161,-18.995 12.497,-14.53 6.376,3.411 7.366,11.833 2.02,17.176 -5.353,5.355 -10.763,4.37 -14.517,-2.646 z m 112.867,79.807 c 2.445,-6.374 -1.89,-12.404 -5.182,-7.208 -3.533,5.577 -3.316,11.558 0.421,11.558 1.702,0 3.844,-1.959 4.761,-4.35 z m 8.365,-58.812 c 5.665,-6.732 7.758,-12.63 7.758,-21.874 0,-15.705 -3.95,-19.847 -18.928,-19.847 -10.729,0 -11.577,0.58 -9.866,6.743 1.027,3.707 3.516,15.171 5.527,25.47 2.01,10.302 4.578,18.731 5.703,18.731 1.127,0 5.538,-4.148 9.806,-9.223 z m -211.859,-63.879 9.28,-13.166 -8.671,-1.734 c -15.736,-3.147 -23.393,5.045 -19.438,20.792 2.685,10.709 8.383,8.924 18.829,-5.892 z m 174.516,-18.48 c -1.968,-2.37 -7.733,-4.312 -12.812,-4.312 h -9.23 l 11.846,12.173 11.844,12.169 0.966,-7.858 c 0.531,-4.321 -0.645,-9.798 -2.614,-12.172 z m -116.898,-21.309 c 0.726,-0.619 -0.846,-3.29 -3.492,-5.939 -6.958,-6.957 -19.28,-2.853 -26.376,8.78 -3.238,5.314 -5.897,10.597 -5.901,11.742 0,1.758 31.824,-11.221 35.769,-14.583 z m 63.11,-3.979 c -3.328,-6.216 -15.418,-7.997 -25.977,-3.826 -4.107,1.626 -1.718,3.06 9.494,5.706 20.443,4.827 20.093,4.864 16.483,-1.88 z m -269.875,31.54 c -13.873,-7.545 -18.56,-31.314 -7.046,-35.734 6.664,-2.558 5.011,-8.787 -5.701,-21.498 -24.799,-29.419 -25.621,-35.069 -6.305,-43.345 13.981,-5.994 37.208,-8.03 37.208,-3.26 0,1.445 -6.742,5.526 -14.985,9.075 -8.24,3.542 -14.983,7.644 -14.983,9.11 0,1.47 6.126,9.843 13.609,18.613 13.324,15.608 34.73,33.327 31.34,55.445 -0.968,6.314 -11.351,16.015 -18.727,15.883 -3.708,-0.06 -10.194,-1.995 -14.41,-4.289 z m 364.132,-32.91 c -11.458,-11.457 -8.747,-30.638 4.974,-35.212 4.478,-1.493 -3.042,-16.51 -18.915,-37.791 -12.592,-16.879 -13.079,-24.525 -1.56,-24.525 3.863,0 15.97,-5.395 26.9,-11.988 10.93,-6.593 21.948,-11.986 24.482,-11.986 8.689,0 34.679,60.34 34.679,80.514 0,19.892 -16.65,28.054 -29.446,14.436 -8.213,-8.74 -8.551,-23.896 -0.7,-31.212 5.751,-5.357 5.735,-5.618 -1.275,-22.87 -3.902,-9.597 -7.626,-17.983 -8.277,-18.631 -0.89,-0.892 -23.954,9.614 -34.893,15.894 -0.644,0.37 4.367,7.854 11.141,16.634 15.555,20.161 21.495,34.355 21.495,51.349 0,10.463 -1.464,14.439 -6.661,18.077 -9.136,6.399 -13.372,5.879 -21.944,-2.689 z" fill="#00B894" transform="translate(-83.386293,7.0882585) matrix(0.26458333,0,0,0.26458333,-9579.5343,-4321.5666)"/>
</svg>