<?xml version="1.0" ?><svg height="186.41359mm" viewBox="0 0 54.060688 186.41359" width="54.060688mm" xmlns="http://www.w3.org/2000/svg">
    <path d="m 88.998144,792.46087 25.344046,-21.61693 22.19317,20.01416 -12.74052,30.94592 19.13363,189.00438 -33.65067,33.4847 -30.595505,-27.2472 c 0,0 6.082507,-108.19078 6.767474,-117.27319 0.684967,-9.0824 10.411607,-83.01561 10.411607,-83.01561 z" fill="#FFFFFF" paint-order="markers stroke fill" transform="translate(78.627794,37.833911) matrix(0.66401497,0,0,0.66401497,-127.4564,-547.67821)"/>
    <path d="m 102.35819,1044.7985 c -3.708952,-2.4935 -11.093842,-9.2919 -16.410852,-15.1077 -9.84528,-9.9375 -9.51968,-8.7101 -10.54538,-21.6632 -1.04648,-13.2159 11.1811,-158.9542 14.93466,-178.00359 1.90342,-9.65988 1.97506,-11.94837 0.45979,-14.69105 -0.98716,-1.78683 -2.2304,-6.43284 -2.76277,-10.32431 -0.53234,-3.89159 -1.26052,-7.09766 -1.61815,-7.12465 -0.35762,-0.027 -4.44659,3.67022 -7.82781,5.32352 -3.38123,1.6533 -5.08805,0.24543 -5.05171,-0.2362 0.10947,-1.45037 23.7343,-24.57609 30.794352,-30.14379 3.61722,-2.85265 7.66701,-5.10434 8.99956,-5.0038 1.33252,0.10052 5.86822,3.11061 10.07934,6.68897 4.21109,3.57837 13.08202,9.21746 19.71317,12.53135 10.66944,5.33203 12.02789,6.40618 11.8068,9.33645 -0.22646,3.00168 -0.74595,3.25972 -5.55674,2.76026 -2.91877,-0.30345 -6.54329,-1.07764 -8.0544,-1.72135 -2.25922,-0.9624 -2.9579,-0.53787 -3.93163,2.38856 -0.65131,1.95746 -3.57716,7.75416 -6.50188,12.88145 -4.32963,7.59037 -5.1264,9.96826 -4.28823,12.79754 1.62953,5.50039 8.4657,59.15949 10.08347,79.14795 0.80846,9.98913 3.46641,35.22734 5.90652,56.08494 4.94805,42.29535 4.97969,48.78585 0.26972,55.34495 -6.38868,8.8969 -27.57897,30.5352 -31.67932,32.3492 -1.34669,0.5957 -4.44183,-0.6733 -8.81851,-3.6155 z m 30.06715,-29.0943 c 6.50588,-6.3094 6.77511,-5.5811 3.46518,-31.71345 -1.71519,-13.75633 -4.08515,-36.32531 -5.26655,-50.15318 -1.18141,-13.82797 -3.18458,-36.95313 -4.45151,-51.38936 -1.26693,-14.43624 -3.49205,-42.69698 -3.85448,-51.5369 -0.14621,-7.71576 0.85622,-8.78348 -6.39182,-7.6504 -5.81071,0.90838 -16.115652,-0.62014 -16.674362,-0.0661 -2.9139,2.88954 -5.94238,37.22002 -11.08733,106.52788 -3.09449,41.68532 -5.41566,78.33821 -5.15826,81.45081 0.42494,5.1389 1.61154,6.7736 12.90429,17.7767 10.924032,11.3604 10.666622,14.0052 21.183712,2.7867 4.81107,-5.1317 11.71008,-12.3465 15.33113,-16.0327 z m -14.0912,-200.45357 c 1.33348,-1.14 4.89094,-6.83177 7.90547,-12.64836 l 5.48095,-10.57561 -4.03333,-3.22841 c -2.21832,-1.77563 -6.25583,-5.67143 -8.97222,-8.65727 -7.3156,-9.10747 -6.93412,-3.77961 -16.01862,3.72961 l -11.079752,9.15847 2.77675,10.19861 c 2.72549,10.01052 2.88734,10.24266 8.771022,12.58015 6.74369,2.67916 11.59244,2.50105 15.16973,-0.55719 z" fill="#00B894" transform="translate(78.627794,37.833911) matrix(0.66401497,0,0,0.66401497,-127.4564,-547.67821)"/>
</svg>