<?xml version="1.0" ?><svg height="186.41359mm" viewBox="0 0 54.060658 186.41359" width="54.060658mm" xmlns="http://www.w3.org/2000/svg">
    <path d="m 323.99,795.8308 25.34405,-21.61693 22.19317,20.01416 -12.74052,30.94592 19.13363,189.00435 -33.65067,33.4847 -30.5955,-27.2472 c 0,0 6.0825,-108.19075 6.76747,-117.27316 0.68497,-9.0824 10.41161,-83.01561 10.41161,-83.01561 z" fill="#FFFFFF" paint-order="markers stroke fill" transform="translate(-37.151888,54.194083) matrix(0.66401497,0,0,0.66401497,-167.41,-565.83026)"/>
    <path d="m 336.89092,1047.497 c -3.70894,-2.4934 -11.09386,-9.2919 -16.41087,-15.1077 -9.84541,-9.9375 -9.51975,-8.71 -10.54535,-21.6633 -1.04657,-13.21574 11.18107,-158.95404 14.9346,-178.00344 1.90346,-9.65988 1.97504,-11.94837 0.45979,-14.69104 -0.98717,-1.78684 -2.23035,-6.43284 -2.76278,-10.32432 -0.53232,-3.89158 -1.26048,-7.09766 -1.61816,-7.12464 -0.35758,-0.027 -4.29317,2.901 -7.67434,4.5543 -3.38129,1.6534 -5.24145,1.01465 -5.2051,0.53293 0.10946,-1.45028 23.73425,-24.576 30.79435,-30.1437 3.61717,-2.85265 7.66696,-5.10434 8.99947,-5.00381 1.33261,0.10052 5.86831,3.11062 10.07942,6.68899 4.21109,3.57836 13.08202,9.21745 19.71318,12.53134 10.66945,5.33194 12.02789,6.40618 11.8068,9.33645 -0.22647,3.00157 -0.74596,3.25972 -5.55675,2.76026 -2.91877,-0.30345 -6.54328,-1.07764 -8.05439,-1.72135 -2.25923,-0.96241 -2.9579,-0.53797 -3.93164,2.38857 -0.65131,1.95744 -3.57715,7.75405 -6.50187,12.88144 -4.32963,7.59036 -5.12641,9.96816 -4.28823,12.79744 1.62951,5.50049 8.46568,59.1596 10.08346,79.14805 0.80848,9.98915 3.46641,35.22735 5.90652,56.08494 4.94806,42.29529 4.9797,48.78579 0.26972,55.34499 -6.38868,8.8968 -27.57896,30.5352 -31.67933,32.3491 -1.34668,0.5958 -4.44182,-0.6732 -8.8185,-3.6155 z m 27.20391,-26.0951 c 10.81824,-10.8813 9.89712,-7.2515 7.94667,-21.56418 -3.00782,-22.07176 -7.05545,-61.59429 -8.71298,-85.07635 -0.9133,-12.93867 -2.51785,-32.19458 -3.56568,-42.79064 -1.04782,-10.59616 -2.18849,-25.09889 -2.53482,-32.22815 0,0 -1.1598,-17.16693 -3.51162,-14.05007 -2.63478,3.49188 -18.91439,-0.96867 -19.99873,0.29257 -2.5351,2.94866 -5.93738,38.0733 -11.04441,105.69112 -3.05901,40.54386 -5.43461,76.9027 -5.27212,80.798 0.29036,6.9617 0.46902,7.2428 10.48162,16.4854 5.60243,5.1716 11.19958,10.708 12.43815,12.303 2.24258,2.888 2.27682,2.8733 8.24472,-3.5312 3.29603,-3.5371 10.28417,-10.8854 15.5292,-16.3295 z m -29.57756,8.7359 c -0.43134,-0.832 -0.0955,-2.1049 0.7464,-2.8286 1.78432,-1.5339 5.88631,1.6305 4.5302,3.4948 -1.13552,1.5611 -4.33115,1.1577 -5.2766,-0.6662 z m 12.23261,0.056 c -0.40414,-0.4701 -0.64872,-1.9955 -0.54353,-3.3898 0.23573,-3.1243 4.62505,-2.3521 4.99815,0.8795 0.25388,2.1989 -3.09828,4.088 -4.45462,2.5103 z m -8.96947,-11.3373 c -2.25513,-1.0254 -1.7807,-4.0893 0.75065,-4.8477 1.21916,-0.3653 2.37112,0.2612 2.73933,1.4906 0.75261,2.512 -1.20571,4.3958 -3.48998,3.3571 z m -15.55556,-3.0173 c -0.43143,-0.832 -0.12425,-2.0801 0.68241,-2.7736 1.80389,-1.5509 4.27418,0.06 4.07805,2.6596 -0.16888,2.2385 -3.61637,2.321 -4.76046,0.114 z m 34.36281,0.4906 c 0.36079,-1.3265 1.54525,-2.3448 2.63211,-2.2628 2.84991,0.215 2.14681,4.0472 -0.80509,4.3881 -1.80263,0.208 -2.30327,-0.3743 -1.82702,-2.1253 z m -12.00595,-10.1034 c -0.36527,-1.2192 0.26154,-2.3712 1.49062,-2.7393 2.55465,-0.7655 5.09309,1.803 3.68932,3.7327 -1.46393,2.0126 -4.45094,1.4397 -5.17994,-0.9934 z m -13.87069,-4.4368 c 0.25708,-3.40716 4.62856,-2.68864 5.03451,0.8276 0.1869,1.6186 -0.58312,2.2806 -2.48584,2.137 -1.90278,-0.1435 -2.69222,-1.0619 -2.54867,-2.9646 z m 27.94054,2.9778 c -1.8763,-2.6426 -0.39545,-4.81288 3.10379,-4.5489 1.98761,0.15 2.5083,0.934 2.0304,3.0571 -0.80312,3.5679 -3.17148,4.2561 -5.13419,1.4918 z M 324.0104,991.51961 c -0.90502,-3.02044 0.70669,-4.40591 2.58438,-2.22175 1.10862,1.28956 1.05763,2.03323 -0.21484,3.12669 -1.27198,1.0936 -1.83569,0.87838 -2.36993,-0.90496 z m 24.86293,1.88793 c -1.0374,-1.46109 -0.89666,-2.269 0.5776,-3.31575 1.4892,-1.05735 2.29681,-0.89432 3.42229,0.69074 1.46087,2.05755 0.55153,4.79669 -1.54001,4.63888 -0.59856,-0.0452 -1.70551,-0.9514 -2.45988,-2.01387 z m -12.57412,-6.56453 c -0.84185,-2.80969 1.41529,-4.69181 3.6646,-3.05565 1.91567,1.39288 0.67673,5.47824 -1.60918,5.30577 -0.77716,-0.0586 -1.70208,-1.07139 -2.05538,-2.25062 z m 23.10218,-2.9635 c -0.43129,-0.8326 -0.1242,-2.08073 0.68246,-2.77421 1.80397,-1.55087 4.27425,0.0603 4.07813,2.65966 -0.1689,2.23853 -3.6164,2.321 -4.76054,0.11395 z m -32.78724,-4.58635 c -1.77371,-2.0632 -0.39615,-5.82412 2.06516,-5.63841 3.03996,0.22936 4.26414,3.42974 2.04255,5.3397 -1.83584,1.57826 -2.93871,1.65851 -4.10771,0.29871 z m 22.0537,1.59473 c -2.60957,-1.16453 -1.57569,-4.50691 1.32636,-4.28796 1.46252,0.11035 2.59407,1.06278 2.51457,2.11649 -0.17447,2.31232 -1.65255,3.14798 -3.84093,2.17147 z m -7.85526,-12.55778 c -0.45071,-0.52429 -0.73341,-2.09401 -0.62822,-3.48825 0.27339,-3.6235 4.72494,-2.09165 4.97797,1.71298 0.19278,2.89881 -2.45489,3.97937 -4.34975,1.77527 z m 14.51435,-0.73018 c -0.4533,-0.87447 -0.15139,-2.16823 0.67094,-2.87516 1.92161,-1.65201 5.96983,0.22074 5.07816,2.34921 -0.90773,2.16675 -4.71778,2.51528 -5.7491,0.52595 z m -31.64835,-6.47322 c -0.43132,-0.83211 -0.12425,-2.08024 0.68241,-2.77372 1.80399,-1.55087 4.27428,0.0603 4.07815,2.65976 -0.16888,2.23844 -3.61647,2.32099 -4.76056,0.11396 z m 25.21139,-5.33552 c 0.0828,-1.09689 1.04792,-1.92663 2.1448,-1.84387 1.09688,0.0828 1.92662,1.04791 1.84386,2.1448 -0.0828,1.09688 -1.04792,1.92662 -2.1448,1.84385 -1.09688,-0.0828 -1.92662,-1.04791 -1.84386,-2.14478 z m -16.59227,-1.9629 c -0.45329,-0.87449 -0.1514,-2.16823 0.67092,-2.87518 1.92164,-1.65201 5.96993,0.22075 5.07825,2.34923 -0.90772,2.16676 -4.71781,2.51528 -5.74917,0.52595 z m 24.0927,-8.83672 c 0.13376,-1.77276 1.087,-2.59227 2.85974,-2.45852 1.77274,0.1338 2.59224,1.08701 2.45848,2.85978 -0.13374,1.77266 -1.08699,2.59216 -2.85973,2.45842 -1.77274,-0.1338 -2.59224,-1.08702 -2.45849,-2.85968 z m -13.24538,-1.66794 c 0.0836,-1.10796 1.33229,-1.90518 2.80958,-1.79371 1.47728,0.11143 2.59223,1.087 2.50863,2.19496 -0.0836,1.10795 -1.33229,1.90515 -2.80957,1.7937 -1.47729,-0.11143 -2.59224,-1.08701 -2.50864,-2.19495 z m -16.63221,-2.03993 c -0.43132,-0.8321 -0.0954,-2.10494 0.74643,-2.82875 1.78436,-1.5339 5.88632,1.63048 4.53021,3.49483 -1.13557,1.56109 -4.33117,1.15762 -5.27664,-0.66608 z m 9.40719,-8.53363 c 0.2281,-3.0232 3.60775,-3.37122 4.4796,-0.46128 0.67033,2.23738 -0.40672,3.44286 -2.90747,3.25418 -0.97503,-0.0736 -1.68248,-1.33035 -1.57213,-2.7929 z m 12.06635,-0.42669 c 0.15109,-2.00251 0.89948,-2.66809 2.50825,-2.23051 1.2611,0.34306 2.22644,1.50467 2.14519,2.58161 -0.0812,1.07684 -1.20996,2.08057 -2.50825,2.23041 -1.65622,0.19124 -2.29628,-0.579 -2.14519,-2.58151 z m 7.29981,-8.14056 c 0.10333,-1.36942 1.02391,-1.95571 2.4581,-1.56571 2.76177,0.75122 2.40702,3.09747 -0.52629,3.48087 -1.22348,0.16001 -2.02818,-0.63779 -1.93181,-1.91516 z m -25.58772,-3.4906 c -1.41443,-1.64518 -0.73418,-3.17534 1.34202,-3.01869 1.09688,0.0828 1.92662,1.04792 1.84386,2.1448 -0.15665,2.0762 -1.77145,2.51916 -3.18588,0.87389 z m 12.53704,-0.75792 c 0.10709,-1.41936 0.74995,-2.8685 1.42859,-3.22035 1.69472,-0.87858 4.36133,3.1303 3.17085,4.76697 -1.63298,2.24491 -4.80503,1.17824 -4.59944,-1.54662 z m 9.09472,-11.88424 c -1.47903,-2.08298 -0.45121,-3.58801 2.30821,-3.37981 0.97501,0.0736 1.68246,1.33035 1.57212,2.79279 -0.23146,3.06778 -1.93592,3.32568 -3.88033,0.58702 z m -14.62477,-3.43173 c 0.24447,-3.24018 3.31678,-2.54777 3.71203,0.83655 0.15545,1.33117 -0.59106,2.18463 -1.82927,2.0912 -1.23329,-0.093 -2.00598,-1.29458 -1.88276,-2.92775 z m 5.39713,-8.74883 c -0.86321,-1.66516 1.75683,-3.05278 3.44519,-1.82468 1.41759,1.03119 0.261,3.34904 -1.60101,3.20854 -0.64494,-0.0487 -1.47482,-0.67146 -1.84418,-1.38386 z m 10.47139,0.0896 c -0.95824,-3.19824 1.70716,-5.24903 3.51428,-2.70385 1.09754,1.54584 0.93955,2.32858 -0.70583,3.4968 -1.72953,1.22806 -2.2467,1.08203 -2.80845,-0.79295 z m -22.44984,-2.53951 c -0.43132,-0.83211 -0.0414,-2.15152 0.86654,-2.93202 1.24785,-1.07275 1.90507,-0.9287 2.69244,0.59005 1.11249,2.14607 0.32332,4.0885 -1.60211,3.94323 -0.64487,-0.0487 -1.52555,-0.76925 -1.95687,-1.60126 z m 8.2783,-11.29309 c 0.23917,-3.16999 2.30769,-3.37273 3.2236,-0.31596 0.91611,3.05769 0.80783,3.29441 -1.4299,3.12557 -1.10795,-0.0835 -1.90516,-1.33231 -1.7937,-2.80961 z m 11.55627,-0.0558 c -1.38435,-1.61031 -0.68059,-3.13498 1.37545,-2.97986 1.09688,0.0828 1.95185,0.71347 1.89993,1.40161 -0.12649,1.67654 -2.2933,2.72058 -3.27538,1.57825 z m -19.75153,-4.30341 c -0.92288,-1.78017 1.74089,-4.58231 3.28705,-3.45759 2.0349,1.48019 1.4604,4.88251 -0.79569,4.71228 -1.0538,-0.0795 -2.1749,-0.64415 -2.49136,-1.25469 z m 12.47183,-7.25975 c -0.36934,-0.7125 -0.0351,-1.62534 0.7427,-2.02857 1.66064,-0.8609 3.99044,0.56653 3.85498,2.36193 -0.12206,1.61779 -3.72146,1.35675 -4.59772,-0.33286 z m -8.44125,-4.07212 c 0.0828,-1.09688 1.04792,-1.92663 2.1448,-1.84386 1.09688,0.0828 1.92662,1.04792 1.84386,2.1448 -0.0828,1.09689 -1.04792,1.92662 -2.1448,1.84386 -1.09688,-0.0828 -1.92662,-1.04792 -1.84386,-2.1448 z m 18.21298,1.17921 c -1.60305,-1.8647 -0.66992,-3.19837 2.09199,-2.98999 1.54726,0.1168 2.48503,0.88838 2.12451,1.74809 -0.79423,1.89401 -3.07763,2.56653 -4.2165,1.2419 z m -11.52804,-9.27371 c -0.86327,-1.66516 1.75675,-3.05277 3.4452,-1.82467 1.4176,1.03108 0.26101,3.34903 -1.60099,3.20854 -0.64497,-0.0487 -1.47486,-0.67147 -1.84421,-1.38387 z m -9.62528,-3.03717 c 0.77994,-2.86734 4.67422,-2.9875 4.45919,-0.1376 -0.082,1.08692 -1.26646,2.10509 -2.6321,2.26279 -1.80267,0.20816 -2.30327,-0.37426 -1.82709,-2.12519 z m 19.23768,1.40534 c -1.46913,-1.70887 -0.52685,-4.46047 1.47576,-4.30938 1.09689,0.0828 1.92929,1.01262 1.84979,2.06632 -0.16759,2.22128 -2.17838,3.57755 -3.32555,2.24306 z m -14.02787,-10.73522 c -0.86318,-1.66507 1.75685,-3.05277 3.44524,-1.82466 1.41754,1.03116 0.26097,3.34902 -1.60103,3.20853 -0.64497,-0.0487 -1.47487,-0.67136 -1.84421,-1.38387 z m 10.76032,-3.9391 c -0.95744,-3.1957 2.31091,-5.8443 3.78504,-3.06743 0.60661,1.14277 0.88338,2.62531 0.61502,3.29452 -0.88803,2.21456 -3.71219,2.06876 -4.40005,-0.22716 z m -11.29968,-8.3446 c -0.43143,-0.832 -0.0415,-2.1514 0.86654,-2.93191 1.24774,-1.07276 1.90507,-0.9287 2.69233,0.59003 1.1126,2.14609 0.32333,4.08842 -1.602,3.94315 -0.64497,-0.0487 -1.52556,-0.76915 -1.95687,-1.60127 z m 16.89903,-15.74109 c 1.33348,-1.14002 4.89094,-6.8317 7.90547,-12.64839 l 5.48094,-10.57561 -4.03333,-3.2284 c -2.21832,-1.77563 -6.25583,-5.67134 -8.97221,-8.65727 -7.31565,-9.10731 -6.93417,-3.77951 -16.01865,3.72961 l -11.07974,9.15846 2.77666,10.19872 c 2.72559,10.01042 2.88738,10.24255 8.7711,12.58005 6.74364,2.67914 11.59247,2.50105 15.16976,-0.55717 z m -6.58902,-4.75843 c 0.11145,-1.47729 1.08698,-2.59226 2.19494,-2.50867 1.10796,0.0835 1.90516,1.33232 1.7937,2.80961 -0.11145,1.47731 -1.087,2.59227 -2.19496,2.50868 -1.10797,-0.0835 -1.90515,-1.33231 -1.79368,-2.80962 z m -11.45969,-1.61344 c -0.80199,-2.67672 0.48786,-3.77319 3.02654,-2.57279 2.55388,1.20767 2.4055,3.22081 -0.29409,4.0307 -1.21154,0.36298 -2.36923,-0.25498 -2.72946,-1.45768 z m 16.80283,-4.2233 c -1.80101,-2.09503 -0.39189,-5.82379 2.12897,-5.63359 3.39379,0.25605 4.52743,2.6433 2.33374,4.91461 -1.9148,1.98246 -3.19866,2.18935 -4.46271,0.71898 z m -10.80731,-3.10089 c -0.90492,-3.02043 0.70669,-4.40592 2.58438,-2.22176 1.10872,1.28958 1.05773,2.03325 -0.21384,3.12678 -1.27208,1.0936 -1.83569,0.87839 -2.37003,-0.90497 z m -9.42893,-6.33725 c 0.17715,-2.34792 3.00856,-1.72302 3.64432,0.80426 0.22396,0.89018 -0.54012,1.54706 -1.69803,1.4597 -1.15781,-0.0874 -2.03365,-1.10614 -1.94629,-2.26396 z m 20.90292,-3.08038 c -1.07427,-2.0722 0.42568,-3.04159 2.8976,-1.8727 1.14076,0.53944 1.65627,1.55521 1.14557,2.25728 -1.20927,1.66242 -3.07392,1.48514 -4.0432,-0.38428 z m -10.17413,-2.87932 c -1.80828,-2.1034 -0.47559,-6.05655 1.83037,-5.42938 1.26107,0.34295 2.20697,1.76214 2.10198,3.15368 -0.19957,2.64518 -2.48003,3.96496 -3.93235,2.2757 z" fill="#00B894" transform="translate(-37.151888,54.194083) matrix(0.66401497,0,0,0.66401497,-167.41,-565.83026)"/>
</svg>