<?xml version="1.0" ?><svg height="188.07661mm" viewBox="0 0 157.6675 188.07661" width="157.6675mm" xmlns="http://www.w3.org/2000/svg">
    <path d="m 1352.1101,72.396107 c -0.6547,-0.0028 -1.2031,0.0815 -1.6035,0.26665 -2.5628,1.184935 -13.1434,7.363493 -13.3548,12.568742 -0.1645,4.045455 3.2079,7.835057 7.522,11.687142 -5.9558,5.520889 -8.9493,14.892019 -8.0517,28.947589 1.4747,23.0934 20.319,22.53385 27.2666,23.47763 15.0423,-1.20923 21.1379,-18.58155 21.4984,-33.23983 0.2851,-11.5887 -6.3543,-21.573402 -16.7747,-24.518397 -0.3454,-5.562298 -1.1833,-12.052814 -3.1998,-13.844633 -3.1345,-2.785121 -9.767,-5.329618 -13.3025,-5.344893 z m 33.6403,77.439713 c -2.5396,-0.14719 -5.6938,2.98708 -7.443,5.67098 -1.999,3.06733 -9.2412,8.81961 -9.2412,8.81961 0,0 -21.171,-10.14594 -24.6776,-10.70632 -3.5066,-0.56038 -4.0641,2.94945 -2.2944,6.34121 1.7697,3.39175 4.2612,4.9842 4.2612,4.9842 0,0 -4.2943,0.53135 -4.8514,3.65765 -0.5571,3.12631 -5.4068,3.89233 -6.7505,6.25182 -1.3436,2.35949 -4.161,15.83831 -4.161,15.83831 0,0 -10.7177,2.18218 -11.7992,4.27622 -1.0814,2.09404 -5.9305,34.74322 -6.0942,37.39772 -0.1639,2.65442 -1.4103,11.73985 -1.4103,11.73985 l 9.1767,7.96231 c 0,0 3.5724,-10.67664 3.5068,-17.28319 -0.065,-6.60654 3.4411,-30.52526 3.4411,-30.52526 l 4.9816,-3.48093 c 0,0 -1.1801,14.95433 9.0775,17.60875 7.549,1.95353 29.8225,1.23816 29.8225,1.23816 0,0 1.0154,23.47739 2.5884,26.89862 1.5731,3.42123 7.6688,6.54637 7.6688,6.54637 l -0.6222,-33.8584 c 0,0 21.9899,-0.55921 22.6126,-8.13904 0.6227,-7.57983 -4.7523,-34.77397 -8.5866,-38.07726 -3.8343,-3.30327 -7.1778,-5.42602 -7.1778,-5.42602 0,0 -0.1966,-2.5361 -1.1142,-3.89279 -0.9176,-1.35669 -2.359,-2.71456 -2.359,-2.71456 0,0 5.1454,-9.52639 2.4908,-10.8536 -0.3318,-0.1659 -0.6826,-0.25338 -1.0454,-0.27441 z" fill="#FFFFFF" paint-order="markers stroke fill" transform="translate(492.8719,-74.597287) translate(-1760.6935,5.4260205)"/>
    <path d="m 1354.944,69.171494 c -6.9017,0.0394 -16.3059,5.184947 -19.3766,11.123356 -2.1311,4.120587 -0.5134,11.517132 2.9203,13.354737 1.5372,1.481295 2.0182,1.98352 2.3564,2.329056 -2.3871,2.620584 -4.2973,5.943847 -5.5046,10.071227 -3.2013,10.94475 -2.9675,21.09475 0.3861,28.08097 4.6068,9.59724 11.9212,16.89976 22.2926,18.30741 3.2997,0.44779 5.5635,0.94309 5.5635,0.94309 1.1114,4.23473 5.9917,2.8938 5.6989,-1.37097 3.8203,-2.18238 7.159,-4.80518 10.0847,-8.37158 9.4111,-10.0612 9.954,-24.22069 7.5778,-35.95233 -2.4933,-9.008858 -5.8991,-15.149754 -14.5841,-18.017503 -1.4192,-1.901518 -0.6453,-4.454698 -1.5348,-7.347355 -1.3981,-4.666657 -8.5803,-11.707024 -13.101,-12.841597 -0.858,-0.215358 -1.7932,-0.314138 -2.7792,-0.308511 z m -1.8345,5.472017 c 1.5502,0 4.3781,6.811377 4.0287,9.704835 -0.1714,1.422029 -1.1512,3.159411 -2.2624,4.094329 -1.2037,0.229877 -2.3878,0.540239 -3.5486,0.917253 -4.1106,-1.102381 -6.2476,-9.679306 -1.5343,-12.980604 1.3628,-0.954703 2.8555,-1.735813 3.3166,-1.735813 z m 4.3889,0 c 1.6094,0 9.8878,8.29235 9.8878,9.904828 0,0.685422 -1.5058,1.245916 -3.3456,1.245916 -2.4409,0 -3.3496,-0.52689 -3.3496,-1.950786 0,-1.07325 -0.998,-3.582192 -2.2133,-5.575372 -1.2484,-2.04933 -1.675,-3.624586 -0.9793,-3.624586 z m -12.8799,4.865339 c 0.4507,0.04175 0.4656,1.094118 0.4843,3.603915 0.011,2.394906 0.4846,5.093301 1.0562,5.997048 0.6841,1.083719 0.5832,1.932673 -0.2971,2.492359 -2.0558,1.306823 -2.8313,1.064398 -4.083,-1.274341 -1.808,-3.377979 -1.3611,-7.345621 1.0759,-9.550839 0.8225,-0.744524 1.3398,-1.205234 1.6666,-1.263488 h 8e-4 c 0.034,-0.0063 0.066,-0.0071 0.096,-0.0047 z m 17.4646,14.079243 c 7.7895,-0.03571 15.3622,3.786492 18.4325,12.864847 0.9025,2.6685 1.5138,5.31379 1.8562,7.90288 -3.2307,0.64858 -13.1535,0.35341 -15.6791,-0.66662 -1.8614,-0.7518 -2.6554,-2.57921 -3.7228,-8.57106 -0.7463,-4.18852 -1.5757,-8.428271 -1.8443,-9.421647 -0.2611,-0.966066 0.1344,-1.660372 0.9575,-2.1084 z m -6.8823,1.148769 c 1.8014,0.062 2.1493,1.73451 2.1493,5.447728 v 5.46995 l -8.0838,5.8813 c -10.3007,7.49358 -10.9977,8.15643 -7.5272,7.16493 1.5331,-0.43803 5.9244,-2.73456 9.7576,-5.10305 4.1929,-2.59101 6.9686,-3.7348 6.9686,-2.87165 0,0.78906 -4.4517,3.7823 -9.892,6.65075 -4.5084,2.37701 -8.5615,4.37354 -10.1001,4.99556 -0.3634,-6.44494 1.091,-13.8542 3.7548,-18.28984 2.6604,-4.429925 7.2802,-7.689504 12.4499,-9.321907 0.048,-0.0055 0.097,-0.01154 0.1426,-0.01499 0.1333,-0.01005 0.2603,-0.01287 0.3803,-0.0088 z m 4.5863,21.334098 c 0.6437,-0.0191 0.8675,0.67045 1.2289,2.05156 0.6954,2.65955 -3.6066,6.61704 -11.5926,10.66395 -3.8152,1.93321 -6.7242,2.81054 -8.7075,2.63445 -0.1945,-0.42134 -0.3876,-0.83261 -0.5849,-1.27485 -0.5806,-1.30125 -1.0053,-2.8066 -1.2868,-4.43591 1.1887,-0.63307 3.2474,-1.35945 6.6508,-2.54868 3.971,-1.38751 8.716,-3.58903 10.5456,-4.89168 2.0397,-1.45235 3.1029,-2.17974 3.7465,-2.19884 z m 6.2989,0.19895 c 0.059,-0.002 0.1225,-0.002 0.1896,0.002 0.6448,0.0344 1.6656,0.32796 3.1559,0.84749 1.9373,0.67537 6.0337,1.05402 9.1023,0.8413 2.0276,-0.14049 3.3176,-0.21865 4.1398,-0.10698 0.075,1.9574 -0.01,3.87101 -0.247,5.72576 -0.3759,0.0447 -0.8276,0.0534 -1.3813,0.0372 -5.0896,-0.14928 -14.5863,-3.38552 -15.2864,-5.2095 -0.5507,-1.43505 -0.5594,-2.10637 0.3271,-2.13733 z m -0.8692,7.60109 4.7082,2.69183 c 2.6526,1.51665 6.5346,2.70031 8.8899,2.70578 0.8533,0.003 1.648,0.0425 2.3115,0.10748 -1.4924,4.54947 -4.0153,8.55749 -7.4476,11.72125 -2.5557,2.35565 -4.9731,4.28294 -5.3723,4.28294 -0.532,-1.9741 -5.3982,-3.55532 -6.2234,1.61799 -10.1823,-0.62835 -14.8018,-3.55057 -18.9673,-10.84068 0.4245,-0.11664 0.919,-0.185 1.448,-0.185 3.7089,0 12.5504,-4.53289 17.0635,-8.74882 z m 7.1417,9.42062 c -1.475,0 -2.7471,0.43094 -3.6215,1.04024 -2.529,1.85199 0.5611,4.62155 3.4499,3.55637 2.0561,-0.78901 2.1983,-4.59661 0.1716,-4.59661 z m -16.2595,1.85828 c -0.7692,-0.0447 -1.5085,0.14011 -2.0071,0.63872 -0.594,0.59392 -0.7843,1.85127 -0.4227,2.79363 0.8453,2.20294 5.236,1.66342 5.6859,-0.69867 0.2715,-1.4256 -1.564,-2.63534 -3.2561,-2.73368 z m 29.7119,12.63437 c -2.4233,0.19126 -5.9422,2.78067 -10.6511,7.81451 l -6.4182,6.86056 -2.7554,-1.78025 c -5.2173,-3.37116 -20.8128,-9.99447 -25.5142,-10.83552 -2.3768,-0.42526 -2.8778,-0.13862 -2.8778,1.64745 0,2.61149 1.9346,7.34155 4.0271,9.84694 1.3486,1.61468 1.3244,2.05714 -0.2026,3.74448 -0.9524,1.05246 -1.7316,2.43327 -1.7316,3.06855 0,0.63527 -0.8238,1.40671 -1.8309,1.71411 -4.2464,1.29597 -31.2293,5.04479 -45.5471,6.32829 -13.5471,1.21444 -15.969,1.72072 -19.5363,4.0814 -6.6395,4.39388 -6.6015,8.28278 0.1147,11.75588 3.6354,1.87992 21.3369,5.98822 33.5928,7.79642 7.7652,1.29477 9.6748,-0.69407 9.047,2.26601 -0.3447,2.06403 -4.5886,24.89793 -6.5412,34.59838 -2.3203,11.52749 -2.2732,7.35562 3.0572,13.43645 6.2053,8.06419 8.9396,8.33259 12.2028,1.19733 1.9978,-4.36798 2.3205,-7.20996 2.6624,-23.45645 0.3497,-16.61338 0.7625,-20.35779 1.2108,-20.16055 3.1912,1.40416 3.1967,-2.62783 3.1967,-3.44062 0,-1.00176 0.7579,-1.43841 1.5792,-0.1974 1.6922,2.55695 4.6188,0.57674 3.6122,-1.13895 -0.3269,-0.55719 -0.1747,-1.24121 1.511,-0.5116 2.3017,0.99621 4.4297,0.17448 3.636,-2.32957 2.1102,-0.97329 3.8962,-1.81069 9.4831,-4.06229 4.859,-1.95824 8.9789,-3.5605 9.1555,-3.5605 0.1767,0 -1.0317,1.55915 -0.5074,2.29288 0.9469,1.32533 1.9172,1.91986 6.7856,-1.48363 2.0844,-1.4572 1.9253,-1.05266 0.3881,1.07694 -1.4907,2.06521 -3.1547,3.11992 -2.7978,4.48345 0.8805,3.36351 4.1706,1.16895 5.84,-0.35295 0.7891,-0.71941 0.6308,0.23986 -0.8372,1.71049 -4.0951,4.10251 -0.8067,6.94642 0.7147,5.06687 0,0 0.65,1.25627 0.3034,19.59985 -0.3587,18.9794 -0.2749,19.99992 1.9368,23.57841 1.2714,2.05721 4.0212,4.90195 6.1102,6.32153 4.3259,2.93953 6.2654,3.23625 7.0911,1.08471 0.3157,-0.82291 -0.1718,-9.18077 -1.0837,-18.57304 -2.6117,-26.89866 -2.8837,-30.15806 -2.5166,-30.13922 0.1896,0.01 5.524,5.03568 11.8545,11.16831 13.3882,12.96982 22.771,20.20552 26.2,20.20552 2.9047,0 5.7144,-2.5553 5.7144,-5.19662 0,-6.31901 -9.6019,-30.3403 -19.3777,-48.47714 -7.0827,-13.14034 -10.6055,-17.47955 -14.1903,-17.47955 -1.2126,0 -2.4532,-1.03421 -3.0158,-2.51406 -0.5258,-1.38285 -1.4788,-2.83747 -2.1177,-3.23237 -0.8467,-0.5232 -0.8363,-1.11037 0.039,-2.16472 2.0311,-2.44732 2.9811,-8.57424 1.6185,-10.4376 -0.6577,-0.89948 -1.5325,-1.30806 -2.6339,-1.22112 z m -1.7095,4.92114 c 1.1638,0 -2.3998,8.47441 -5.1273,12.19306 -1.7531,2.39011 -3.9894,5.8038 -4.9698,7.5861 -1.9995,3.63523 -5.5821,4.32216 -8.3111,1.59318 -0.9062,-0.90617 -5.598,-3.63822 -10.4262,-6.07094 -6.1424,-3.09492 -9.2001,-5.29474 -10.1818,-7.32566 -0.7717,-1.59638 -1.2017,-3.10351 -0.956,-3.34914 0.752,-0.75213 12.1846,3.52494 18.3529,6.86573 6.7825,3.6736 8.9638,3.91795 10.267,1.15083 0.8961,-1.90261 10.5401,-12.64316 11.3523,-12.64316 z m 0.8408,10.47223 c 1.3714,-0.0156 0.8582,2.01345 -1.7937,7.08898 -3.5997,6.88953 -6.3653,10.21006 -7.276,8.73641 -0.7461,-1.20713 7.6223,-15.80891 9.0697,-15.82539 z m -39.903,3.98684 c 0.7598,-0.0465 1.8174,0.52137 3.7533,1.83503 2.0586,1.39706 4.266,2.54713 4.9051,2.54713 0.639,0.004 2.5745,0.94277 4.301,2.08618 3.5611,2.35848 2.1834,2.53943 -4.8674,0.64027 -6.8626,-1.84846 -10.7862,-4.55506 -9.2635,-6.38979 0.3666,-0.44182 0.7156,-0.69094 1.1715,-0.71882 z m 42.9472,3.95015 c 0.6776,-0.0451 1.5073,0.28999 2.6428,1.1591 2.2554,2.70072 5.2967,8.47003 7.0032,13.28446 0.387,1.09186 1.6171,7.58472 2.7337,14.42858 1.1165,6.84393 1.1139,12.86984 1.5409,13.56091 1.024,1.65674 3.1171,2.60137 3.3352,-3.55067 l 0.4915,-9.6821 4.1062,10.36834 c 2.2586,5.70265 4.4018,11.94153 4.7625,13.86431 0.3607,1.92278 0.4859,3.47859 0.278,3.45662 -0.2079,-0.022 -2.2615,-1.6868 -4.5635,-3.70053 -2.302,-2.01365 -8.5692,-6.9743 -13.9268,-11.02413 -5.3577,-4.0498 -9.9143,-7.91723 -10.126,-8.59433 -0.2118,-0.6771 -0.6918,-3.96428 -1.0666,-7.30498 -0.5303,-4.72623 -1.403,-6.89612 -3.9326,-9.77718 -2.2423,-2.55374 -2.947,-4.11046 -2.2717,-5.01726 0.5386,-0.7231 2.8263,-3.99818 5.0844,-7.2776 1.6623,-2.15317 2.4181,-4.09425 3.9088,-4.19354 z m -45.5625,4.11551 c 1.8867,0.0462 4.0901,0.77546 6.7427,2.01022 3.1311,1.45747 6.7246,2.65245 7.9856,2.6603 5.3722,0.0239 2.7315,1.99034 -6.2503,4.65449 -5.3048,1.57355 -11.5287,3.45721 -13.8307,4.1858 -2.3845,0.75471 -5.0859,0.97273 -6.2782,0.50642 -1.151,-0.45015 -3.5052,-0.8514 -5.2317,-0.89142 -1.7265,-0.04 -5.9645,1.25738 -9.4175,2.88303 -4.6981,2.21181 -7.0685,2.7716 -9.4175,2.22313 -1.7265,-0.40314 -8.7892,-1.79842 -15.6952,-3.1006 -6.906,-1.30209 -13.4635,-2.83447 -14.5722,-3.40547 -1.9064,-0.98176 -1.8685,-1.11532 0.6976,-2.4598 1.4923,-0.78195 9.6979,-2.14041 18.2346,-3.01842 8.5366,-0.87801 18.9685,-2.06028 23.1825,-2.62775 12.2311,-1.64716 12.3911,-1.61363 11.9094,2.50682 -0.6247,5.34318 0.7973,8.63602 4.532,0.15555 1.999,-4.53912 4.2643,-6.3594 7.4089,-6.2823 z m 27.1544,4.71289 c 0.7472,-0.0288 1.6653,0.47592 2.5673,1.5627 0.7279,0.87714 1.1384,1.76027 0.9126,1.96266 -0.2259,0.20232 -1.4699,0.69346 -2.7647,1.09142 -2.0181,0.62036 -2.3544,0.34009 -2.3544,-1.96268 0,-1.69816 0.6784,-2.61706 1.6392,-2.6541 z m -5.132,3.78685 c 0.4611,0.0366 0.7731,0.19831 0.9498,0.48421 1.0103,1.63468 -0.5021,2.58766 -6.351,4.00182 -2.8775,0.69578 -8.0945,2.40768 -11.5926,3.80442 -7.4246,2.96448 -8.0602,2.84521 -8.785,2.30581 -0.4757,-0.35402 -2.0104,-1.56498 -2.6944,-2.2624 0.7698,-0.31238 2.4042,-1.03109 4.9444,-1.68465 10.4249,-2.68222 16.2586,-4.37656 19.913,-5.78311 1.6637,-0.64038 2.8473,-0.9271 3.6158,-0.8661 z m -37.9279,12.20752 c 0.2045,-0.0377 0.7098,0.20757 1.5792,0.67283 1.1946,0.63936 2.172,1.61673 2.172,2.17196 0,1.79627 -1.9863,1.07064 -3.1812,-1.1622 -0.5983,-1.11776 -0.833,-1.63412 -0.57,-1.68259 z m -6.0023,3.44269 c 0.4835,-0.0472 1.0812,0.57542 1.8449,1.74097 0.6059,0.92475 1.1394,1.81677 1.7766,2.95332 0.3001,2.04543 -0.4981,5.34708 -1.0898,12.11862 -0.5948,6.80549 -1.3744,16.49236 -1.7322,21.52583 -0.3578,5.03355 -0.9656,9.34636 -1.3508,9.58446 -0.3853,0.2381 -2.2509,-0.95201 -4.1455,-2.64485 -3.9186,-3.09241 -2.8204,-3.70963 -0.7183,-13.77021 1.4993,-5.88079 2.9979,-14.92988 3.3305,-20.10939 0.5104,-7.94788 1.0211,-11.29501 2.0846,-11.39875 z m 56.2602,2.127 c 1.2318,-0.0782 1.5241,1.16435 2.0107,6.52415 0.3462,3.81316 0.9418,14.58459 1.3234,23.93652 0.3817,9.35186 0.4618,17.0031 0.1783,17.0031 -0.2835,0 -1.3971,-0.97391 -2.4748,-2.16472 -2.4017,-2.65396 -3.4418,-11.76323 -3.532,-30.93506 -0.059,-12.60775 0.098,-13.78487 1.9058,-14.25754 0.2176,-0.0569 0.4126,-0.0953 0.5886,-0.10645 z" fill="#00B894" transform="translate(492.8719,-74.597287) translate(-1760.6935,5.4260205)"/>
</svg>