<?xml version="1.0" ?><svg height="169.38379mm" viewBox="0 0 157.66769 169.38379" width="157.66769mm" xmlns="http://www.w3.org/2000/svg">
    <path d="m 145.11133,847.32031 c -1.18034,-0.0142 -2.38594,0.0369 -3.61524,0.1543 -19.66875,1.87911 -31.15261,15.21966 -29.27343,44.64648 1.87918,29.42682 25.89112,28.71339 34.74414,29.91602 19.16764,-1.54088 26.93517,-23.67715 27.39453,-42.35547 0.43066,-17.51093 -11.5449,-32.14842 -29.25,-32.36133 z m 29.71289,75.34375 c -3.23604,-0.18755 -7.25546,3.8066 -9.48438,7.22656 -2.54734,3.90855 -11.77539,11.23829 -11.77539,11.23829 0,0 -26.97703,-12.92851 -31.44531,-13.64258 -4.46827,-0.71406 -5.17883,3.75812 -2.92383,8.08008 2.25501,4.32194 5.42969,6.35156 5.42969,6.35156 0,0 -5.47173,0.67645 -6.18164,4.66015 -0.70991,3.98371 -6.88942,4.96021 -8.60156,7.9668 -1.71214,3.00658 -5.30274,20.18164 -5.30274,20.18164 0,0 -13.657086,2.78088 -15.035154,5.44922 -1.378067,2.66834 -7.556829,44.27182 -7.765625,47.65432 -0.208796,3.3824 -1.796875,14.959 -1.796875,14.959 l 11.69336,10.1464 c 0,0 4.552252,-13.605 4.46875,-22.0234 -0.0835,-8.4184 4.384764,-38.89648 4.384764,-38.89648 l 6.34766,-4.43554 c 0,0 -1.50323,19.05522 11.56752,22.43762 9.61938,2.4893 38.00084,1.578 38.00084,1.578 0,0 1.29438,29.9159 3.29882,34.2754 2.00446,4.3595 9.77149,8.3418 9.77149,8.3418 l -0.79297,-43.1445 c 0,0 28.02101,-0.7125 28.81445,-10.3711 0.79343,-9.65862 -6.05554,-44.31035 -10.9414,-48.51957 -4.88587,-4.2092 -9.14649,-6.91406 -9.14649,-6.91406 0,0 -0.25065,-3.23217 -1.41992,-4.96094 -1.16927,-1.72876 -3.00586,-3.45898 -3.00586,-3.45898 0,0 6.55636,-12.13887 3.17383,-13.83008 -0.42281,-0.2114 -0.86974,-0.32281 -1.33203,-0.34961 z" fill="#FFFFFF" paint-order="markers stroke fill" transform="translate(150.56695,-275.23183) matrix(0.78477512,0,0,0.78477512,-169.8358,-386.88014)"/>
    <path d="m 165.24058,1056.3651 c -2.66195,-1.8089 -6.16546,-5.4336 -7.78558,-8.055 -2.8182,-4.5599 -2.92498,-5.86 -2.46797,-30.0445 0.44169,-23.37433 -0.38667,-24.97571 -0.38667,-24.97571 -1.93872,2.39502 -6.12894,-1.22859 -0.91068,-6.45622 1.8706,-1.87395 2.07219,-3.0965 1.06667,-2.1798 -2.12718,1.93929 -6.31984,4.73564 -7.44174,0.44968 -0.4548,-1.73748 1.66538,-3.08134 3.56497,-5.71294 1.95882,-2.71365 2.16173,-3.22909 -0.49432,-1.37224 -6.20353,4.3369 -7.43982,3.57982 -8.64648,1.89102 -0.66804,-0.93496 0.87185,-2.92222 0.64676,-2.92222 -0.22511,0 -5.47511,2.0416 -11.66667,4.5369 -7.11918,2.8691 -9.39485,3.93649 -12.08382,5.1767 1.01135,3.19078 -1.70038,4.23804 -4.63322,2.96862 -2.148,-0.92971 -2.34227,-0.0584 -1.9257,0.6516 1.28268,2.18622 -2.44606,4.7095 -4.6023,1.45131 -1.04653,-1.58136 -2.01236,-1.02473 -2.01236,0.25177 0,1.0357 -0.007,6.17346 -4.07336,4.38421 -0.57125,-0.25134 -1.09746,4.51972 -1.543021,25.68932 -0.43572,20.7021 -0.84674,24.3237 -3.39232,29.8896 -4.15822,9.0921 -7.6424,8.7502 -15.54954,-1.5257 -6.792277,-7.7485 -6.852155,-2.4323 -3.895499,-17.1212 2.48805,-12.3608 7.895617,-41.45737 8.334867,-44.08747 0.800011,-3.77188 -1.633415,-1.23739 -11.528248,-2.88726 -15.61716,-2.3041 -38.1734,-7.539 -42.80579,-9.9345 -8.55819,-4.4256 -8.60649,-9.3814 -0.14603,-14.9803 4.5456,-3.0081 7.63142,-3.6527 24.89387,-5.2002 18.24448,-1.6355 52.627391,-6.4129 58.038401,-8.0643 1.28333,-0.3917 2.33333,-1.3744 2.33333,-2.1839 0,-0.8095 0.99299,-2.5691 2.20666,-3.9102 1.94578,-2.1501 1.97626,-2.7141 0.25781,-4.7716 -2.66637,-3.1925 -5.13113,-9.2197 -5.13113,-12.5474 0,-2.2759 0.63796,-2.6412 3.66666,-2.0993 5.99066,1.0717 25.86331,9.5113 32.5115,13.807 l 3.51148,2.269 8.17827,-8.7426 c 8.72772,-9.33 14.24676,-12.069 16.92858,-8.4013 1.73624,2.3744 0.52544,10.1818 -2.06268,13.3003 -1.11501,1.3435 -1.12848,2.0917 -0.0496,2.7584 0.81419,0.5032 2.02847,2.3566 2.69842,4.1187 0.71693,1.8857 2.29821,3.2038 3.84341,3.2038 4.56793,0 9.05653,5.5291 18.08167,22.2732 12.45682,23.1109 24.69229,53.72003 24.69229,61.77203 0,3.3657 -3.58057,6.6215 -7.28189,6.6215 -4.36939,0 -16.32486,-9.2203 -33.38478,-25.7471 -8.06666,-7.8145 -14.86442,-14.21833 -15.10612,-14.23063 -0.46778,-0.024 -0.12106,4.12874 3.20695,38.40443 1.16203,11.9681 1.78355,22.6181 1.38116,23.6667 -1.05205,2.7416 -3.52391,2.3635 -9.03621,-1.3822 z m 2.39708,-29.0445 c -0.4863,-11.9167 -1.24506,-25.6422 -1.68614,-30.50113 -0.70857,-7.8054 -1.0944,-8.7579 -3.31268,-8.1778 -2.30341,0.6023 -2.5039,2.1023 -2.42828,18.16773 0.11494,24.4297 1.4403,36.0371 4.50071,39.4189 1.37325,1.5174 2.79241,2.7589 3.15369,2.7589 0.36127,0 0.25898,-9.75 -0.2273,-21.6666 z m -74.919151,7.3283 c 0.4559,-6.4139 1.448966,-18.7569 2.2068,-27.4288 0.754057,-8.62867 1.771379,-12.83634 1.388976,-15.44275 -0.81199,-1.44824 -1.491878,-2.58432 -2.263976,-3.76268 -3.114092,-4.75268 -4.06107,-2.4252 -5.007,12.30593 -0.4238,6.6 -2.33374,18.131 -4.2443,25.6246 -2.678516,12.8197 -4.077369,13.6062 0.91582,17.5467 2.41425,2.1571 4.79122,3.6738 5.28214,3.3704 0.49094,-0.3034 1.26563,-5.7994 1.72154,-12.2134 z m 118.870681,-16.7831 c -0.45964,-2.4501 -3.19047,-10.4001 -6.06851,-17.6667 l -5.23278,-13.21193 -0.62587,12.33758 c -0.27801,7.83925 -2.94541,6.63545 -4.25018,4.52435 -0.5442,-0.8806 -0.54055,-8.55923 -1.96333,-17.28013 -1.42276,-8.7208 -2.9903,-16.9943 -3.48344,-18.3856 -2.1745,-6.1348 -6.05008,-13.4861 -8.92406,-16.9275 -4.6299,-3.54388 -5.26691,-0.12431 -8.34786,3.8665 -2.87742,4.1788 -5.79318,8.3517 -6.47944,9.2731 -0.86056,1.1555 0.0377,3.1395 2.8949,6.3936 3.22336,3.6712 4.33536,6.4358 5.01108,12.4582 0.47764,4.2569 1.08918,8.4458 1.35898,9.3086 0.26982,0.8628 6.07632,5.7909 12.90335,10.95133 6.82703,5.1605 14.81277,11.482 17.74611,14.0479 2.93333,2.566 5.5501,4.6879 5.81505,4.7154 0.26495,0.028 0.1056,-1.9546 -0.354,-4.4047 z M 104.12813,985.03407 c 0,-0.7075 -1.24541,-1.9529 -2.76758,-2.7676 -2.532111,-1.3551 -2.641561,-1.2456 -1.28643,1.2865 1.52271,2.8452 4.05401,3.77 4.05401,1.4811 z m -6.000001,-13.2854 c 2.200001,0.051 5.200001,0.5619 6.666671,1.1355 1.51925,0.5942 4.96148,0.3166 8,-0.6451 2.93333,-0.9284 10.86396,-3.3285 17.62363,-5.3336 11.44513,-3.3948 14.81,-5.9008 7.96435,-5.9313 -1.60672,-0.01 -6.18573,-1.5326 -10.17555,-3.3898 -9.01359,-4.1957 -13.95674,-3.81097 -18.03222,5.4434 -4.75889,10.80624 -6.57148,6.61044 -5.77544,-0.1981 0.61388,-5.2505 0.41044,-5.2932 -15.174961,-3.1943 -5.36973,0.7231 -18.66316,2.2301 -29.54096,3.3489 -10.8778,1.1188 -21.33366,2.8494 -23.23525,3.8458 -3.26983,1.7132 -3.31807,1.8833 -0.88885,3.1343 1.41272,0.7276 9.76858,2.6804 18.56858,4.3396 8.8,1.6593 17.8,3.4371 20,3.9508 2.99327,0.6989 6.01346,-0.014 12,-2.8324 4.4,-2.0715 9.8,-3.7247 12,-3.6737 z m 27.895391,4.6692 c 4.45753,-1.7798 11.10462,-3.9614 14.77128,-4.848 7.45299,-1.802 9.3801,-3.0163 8.09275,-5.0993 -0.60047,-0.9715 -2.42511,-0.8189 -5.81715,0.4867 -4.65664,1.7923 -12.09021,3.95129 -25.37417,7.3691 -3.23689,0.83281 -5.32,1.7487 -6.30096,2.14675 0.8716,0.88869 2.82748,2.43185 3.4336,2.88295 0.92355,0.68735 1.73385,0.8393 11.19465,-2.9382 z m 32.62795,-10.8974 c 0.28784,-0.2579 -0.23563,-1.3833 -1.16325,-2.501 -2.6269,-3.1653 -5.36008,-2.456 -5.36008,1.3909 0,2.9343 0.42844,3.2915 3,2.501 1.65,-0.5071 3.2355,-1.1331 3.52333,-1.3909 z m 12.85744,-16.8223 c 3.37917,-6.4675 4.03341,-9.0528 2.28589,-9.0329 -1.84428,0.021 -12.50797,18.6273 -11.55733,20.1655 1.16056,1.8778 4.68457,-2.3536 9.27144,-11.1326 z m -32.04744,4.289 c -2.2,-1.457 -4.66627,-2.653 -5.4806,-2.6579 -0.81434,0 -3.62694,-1.4653 -6.25023,-3.2455 -3.94676,-2.6783 -5.02939,-2.9238 -6.27529,-1.4225 -1.94034,2.3379 3.05956,5.7867 11.80428,8.1421 8.98452,2.42 10.7396,2.1891 6.20184,-0.8162 z m 20.39535,-1.4626 c 1.24922,-2.2711 4.099,-6.6211 6.33282,-9.6667 3.4756,-4.7385 8.01672,-15.5373 6.53379,-15.5373 -1.03497,0 -13.32389,13.6864 -14.46571,16.1108 -1.66068,3.526 -4.44013,3.2144 -13.08274,-1.4667 -7.85988,-4.257 -22.42847,-9.707 -23.38679,-8.7486 -0.313,0.313 0.23545,2.2334 1.21876,4.2676 1.25097,2.5879 5.147,5.3911 12.974,9.3348 6.15237,3.0999 12.13095,6.5811 13.28571,7.7358 3.47734,3.4774 8.04224,2.6025 10.59016,-2.0297 z m -13.28107,-24.3427 c 0,0 -2.8849,-0.6309 -7.08943,-1.2015 -13.21586,-1.7937 -22.5356,-11.0987 -28.40593,-23.328 -4.27322,-8.9022 -4.57141,-21.83644 -0.49215,-35.78281 4.86915,-16.64686 18.6952,-23.04915 32.45166,-23.17312 22.54793,0.81049 28.98974,9.67033 33.30404,25.25896 3.02793,14.94907 2.33629,32.99147 -9.65584,45.81197 -3.72805,4.5445 -7.98202,7.8871 -12.85006,10.668 0.37312,5.4344 -5.84617,7.1426 -7.26229,1.7465 z m -1.90928,-8.1333 c 1.05147,-6.5921 7.25188,-4.5773 7.92977,-2.0618 0.50866,0 3.58924,-2.456 6.84578,-5.4577 10.88149,-10.0302 14.60841,-26.71 8.71177,-44.14528 -7.86511,-23.25567 -38.91482,-19.46099 -48.78791,-3.0208 -4.926,8.20253 -6.60908,24.38758 -2.67204,33.21168 6.69738,15.0109 11.89108,20.4815 27.97263,21.4739 z m -10.72134,-10.7245 c -0.46076,-1.2008 -0.21848,-2.8025 0.5384,-3.5593 2.03309,-2.0331 7.21009,0.027 6.70681,2.6693 -0.57336,3.0099 -6.16801,3.6971 -7.24521,0.89 z m 19.20008,-5.416 c 1.11426,-0.7764 2.73472,-1.3255 4.61417,-1.3255 2.58258,0 2.40193,4.8519 -0.21811,5.8573 -3.68109,1.3573 -7.61867,-2.1719 -4.39606,-4.5318 z" fill="#00B894" transform="translate(150.56695,-275.23183) matrix(0.78477512,0,0,0.78477512,-169.8358,-386.88014)"/>
</svg>