<?xml version="1.0" ?><svg height="234.4146mm" viewBox="0 0 147.93565 234.4146" width="147.93565mm" xmlns="http://www.w3.org/2000/svg">
    <path d="m 36618.926,14952.371 c -4.54,0.08 -9.325,0.525 -14.364,1.391 -53.741,9.235 -81.697,69.086 -98.207,96.435 0,0 -15.721,54.817 -9.209,82.344 6.512,27.528 45.585,60.621 96.959,67.369 51.373,6.749 92.946,-31.318 99.524,-54.346 6.577,-23.028 -6.514,-79.087 -6.514,-79.087 0,0 65.188,6.569 69.266,-1.245 4.079,-7.814 -54.793,-28.65 -54.793,-28.65 0,0 -7.171,-28.357 -12.762,-40.789 -5.067,-11.267 -26.017,-44.216 -69.9,-43.422 z m -84.539,261.994 c -45.387,0.218 -84.441,33.461 -104.586,60.887 0,0 -9.181,21.763 -26.151,57.578 -16.971,35.815 -47.229,151.784 -21.773,214.238 25.456,62.454 110.377,64.289 166.881,45.405 56.504,-18.884 40.124,-41.853 32.691,-114.016 -7.433,-72.163 32.401,-126.838 52.727,-164.607 20.325,-37.768 0.921,-63.757 -60.451,-91.047 -13.425,-5.97 -26.63,-8.499 -39.338,-8.438 z" fill="#FFFFFF" paint-order="markers stroke fill" transform="translate(-82.174071,-79.828901) matrix(0.26458333,0,0,0.26458333,-8638.7036,-3229.4847) translate(-3313.5291,-2437.8203)"/>
    <path d="m 33050.645,13389.544 c -22.282,-4.88 -48.55,-16.253 -67.232,-29.105 -48.263,-33.208 -19.718,-58.45 89.874,-79.474 57.199,-10.973 89.086,-20.373 124.103,-36.589 31.889,-14.768 35.121,-18.607 27.529,-32.702 -9.311,-17.292 -24.316,-28.615 -37.923,-28.615 -6.458,0 -17.589,-2.063 -24.74,-4.586 -7.151,-2.522 -15.963,-4.587 -19.583,-4.587 -12.655,0 -49.488,-20.438 -65.264,-36.211 -23.282,-23.282 -28.291,-39.413 -28.291,-91.086 0,-62.326 13.941,-122.206 42.78,-183.75 20.665,-44.099 45.672,-70.566 83.159,-88.016 28.275,-13.164 72.428,-9.667 108.338,8.578 20.723,10.531 63.142,39.61 82.205,56.356 8.407,7.386 26.858,19.074 40.996,25.973 45.605,22.247 67.257,18.346 79.479,-14.323 6.352,-16.978 14.4,-72.604 11.244,-77.714 -0.901,-1.454 -5.844,-3.489 -10.988,-4.516 -10.572,-2.115 -45.816,-34.687 -45.816,-42.342 0,-2.633 -2.752,-5.509 -6.114,-6.39 -6.716,-1.754 -8.094,-11.113 -3.028,-20.576 4.065,-7.593 34.158,-27.467 41.565,-27.446 3.189,0 10.88,4.478 17.09,9.937 6.211,5.458 14.302,12.044 17.98,14.635 5.561,3.92 7.105,9.076 9.157,30.578 8.415,88.19 -2.474,146.131 -31.841,169.426 -10.796,8.565 -13.679,9.329 -35.166,9.328 -21.7,0 -25.518,-1.046 -52.453,-14.327 -15.976,-7.878 -35.986,-20.462 -44.466,-27.963 l -15.416,-13.636 -3.823,20.318 c -2.105,11.176 -8.462,29.479 -14.13,40.676 -12.487,24.667 -16.231,22.507 49.527,28.56 32.105,2.955 50.869,6.174 60.294,10.343 18.523,8.192 44.461,32.736 44.461,42.068 0,10.531 -6.975,9.086 -26.205,-5.433 -9.221,-6.963 -17.075,-12.123 -17.451,-11.467 -0.377,0.656 -3.834,7.467 -7.681,15.138 -14.432,28.759 -64.861,41.569 -64.861,16.476 0,-5.619 -2.699,-8.875 -10.405,-12.55 -11.554,-5.51 -17.56,-15.507 -15.06,-25.07 1.784,-6.819 -0.296,-7.678 -26.854,-11.105 l -14.095,-1.819 -6.17,14.649 c -11.316,26.843 -11.491,48.151 -0.749,91.314 5.25,21.09 9.105,42.548 8.567,47.686 -0.964,9.223 -0.675,9.424 23.486,16.419 28.726,8.315 104.218,37.318 126.43,48.574 26.679,13.519 34.384,27.969 23.33,43.75 -6.013,8.586 -76.3,61.18 -132.675,99.279 -30.848,20.847 -42.608,30.346 -39.19,31.657 2.685,1.03 22.372,2.794 43.75,3.917 32.094,1.689 39.448,2.966 42.195,7.339 2.577,4.099 2.11,6.514 -2.074,10.701 -8.906,8.921 -65.166,9.444 -90.923,0.846 -48.762,-16.274 -47.093,-21.27 23.042,-68.965 21.863,-14.868 60.896,-42.836 86.738,-62.152 42.112,-31.474 46.426,-35.529 41.573,-39.076 -16.565,-12.114 -139.591,-59.165 -154.697,-59.165 -3.581,0 -11.988,4.95 -18.684,10.999 -6.698,6.05 -16.756,12.914 -22.356,15.253 l -10.183,4.254 10.52,15.632 c 8.327,12.378 10.52,18.666 10.52,30.201 0,20.223 -7.31,28.169 -40.789,44.352 -39.26,18.976 -65.653,27.105 -128.919,39.702 -30.272,6.029 -64.547,14.576 -76.164,18.998 -19.607,7.46 -20.705,8.353 -15.291,12.416 17.471,13.111 52.988,26.585 79.224,30.055 25.443,3.362 35.234,13.082 24.243,24.073 -5.736,5.733 -20.397,5.829 -45.649,0.3 z m 108.553,-235.242 c 0,-0.679 -11.296,-9.968 -25.105,-20.641 -13.809,-10.671 -29.011,-23.404 -33.786,-28.293 -10.264,-10.514 -10.228,-21.206 0.07,-22.669 8.389,-1.193 21.497,6.588 55.755,33.084 52.906,40.92 53.426,41.208 66.948,37.159 16.569,-4.966 42.427,-28.75 44.754,-41.167 1.113,-5.932 -1.24,-22.479 -6.013,-42.284 -10.999,-45.645 -10.49,-64.344 3.032,-111.516 1.671,-5.83 0.27,-6.661 -14.448,-8.58 -52.832,-6.887 -103.712,-21.188 -115.901,-32.575 -10.783,-10.072 -11.408,-19.678 -2.418,-37.298 16.263,-31.876 62.932,-84.802 74.78,-84.802 12.938,0 12.485,11.382 -1.021,25.557 -29.586,31.05 -57.733,74.463 -51.998,80.198 2.5,2.5 67.52,16.389 92.489,19.758 13.456,1.816 27.493,4.034 31.195,4.931 5.552,1.343 8.641,-1.363 17.658,-15.458 15.2,-23.761 22.377,-52.02 17.414,-68.58 -5.632,-18.801 -16.235,-29.144 -44.345,-43.266 -18.518,-9.305 -30.631,-13.268 -44.332,-14.511 -16.921,-1.534 -20.902,-0.7 -38.856,8.139 -29.898,14.72 -49.98,36.071 -66.716,70.943 -29.609,61.693 -45.14,124.706 -45.863,186.085 -0.435,37.051 -0.16,38.725 8.623,54.6 10.596,19.131 23.705,30.789 48.751,43.356 15.867,7.963 29.324,11.556 29.324,7.83 z m 105.495,-386.123 c -28.661,-6.414 -44.815,-14.37 -57.251,-28.192 -13.497,-15 -32.957,-23.401 -32.957,-14.225 0,2.351 -3.561,8.507 -7.916,13.681 -8.747,10.396 -20.429,12.378 -28.724,4.872 -3.972,-3.597 -6.882,-3.853 -14,-1.232 -12.937,4.763 -25.416,-0.707 -27.704,-12.141 -1.728,-8.637 -1.968,-8.737 -10.637,-4.412 -12.861,6.414 -19.397,4.155 -20.496,-7.09 -0.644,-6.602 1.395,-12.243 6.707,-18.557 l 7.634,-9.071 -9.002,-7.898 c -9.712,-8.524 -11.398,-18.185 -5.451,-31.239 3.009,-6.603 5.565,-7.789 16.819,-7.789 14.893,0 15.935,-1.901 7.153,-13.064 -3.364,-4.275 -6.116,-10.653 -6.116,-14.174 0,-9.001 11.391,-19.63 18.63,-17.381 18.286,5.679 18.986,5.775 16.843,2.309 -2.405,-3.894 11.212,-23.447 18.198,-26.127 7.334,-2.815 13.463,1.304 15.891,10.68 2.787,10.755 8.059,12.843 9.361,3.703 0.522,-3.661 3.073,-8.421 5.672,-10.577 3.991,-3.314 5.977,-2.395 12.811,5.922 4.449,5.412 9.029,9.829 10.178,9.813 1.146,0 8.944,-11.379 17.326,-25.255 28.834,-47.734 47.752,-60.801 90.974,-62.831 31.594,-1.486 46.338,3.088 66.203,20.531 11.468,10.067 22.289,33.356 26.303,56.605 2.049,11.888 2.306,12.083 25.013,18.988 30.998,9.425 43.83,21.872 32.359,31.391 -5.222,4.334 -18.241,4.878 -46.806,1.959 l -21.987,-2.25 5.935,11.641 c 3.364,6.599 5.935,17.824 5.935,25.913 0,11.261 1.401,15.201 6.65,18.684 8.297,5.508 5.638,14.673 -4.261,14.688 -5.373,0 -8.26,3.131 -12.555,13.582 -8.264,20.089 -27.966,36.698 -52.54,44.289 -19.048,5.882 -48.263,7.821 -64.192,4.254 z m -19.051,-41.635 c -1.243,-11.038 -0.161,-14.703 6.756,-22.927 12.148,-14.437 34.387,-20.206 61.311,-15.907 22.298,3.564 29.852,6.566 40.197,15.978 6.603,6.006 13.222,5.24 13.222,-1.531 0,-1.941 -3.663,-6.448 -8.138,-10.019 -9.749,-7.772 -7.398,-13.615 5.475,-13.615 h 9.21 c -0.485,-9.698 -1.12,-38.79 -8.461,-43.534 l -92.74,-9.662 c -8.529,-0.368 -7.69,0.687 -12.106,7.597 -7.742,12.114 -43.505,48.383 -49.624,50.323 -7.451,2.368 -7.201,11.606 0.763,28.057 5.996,12.387 24.092,28.376 32.114,28.376 2.317,0 3,-4.447 2.021,-13.136 z m 104.173,-68.086 c -2.408,-6.274 2.543,-15.099 8.472,-15.099 6.605,0 5.573,18.007 -1.105,19.294 -2.95,0.569 -6.264,-1.319 -7.367,-4.195 z m -36.009,-1.029 c -2.73,-4.424 1.193,-17.949 5.714,-19.682 7.799,-2.992 12.417,3.166 9.212,12.281 -3.08,8.758 -11.503,12.934 -14.926,7.401 z m 110.208,-35.472 c -3.188,-2.414 -14.271,-7.21 -24.628,-10.657 -17.593,-5.853 -20.532,-5.995 -44.657,-2.163 l -25.824,4.105 32.109,3.755 c 17.656,2.064 36.921,4.915 42.807,6.332 5.887,1.419 14.143,2.679 18.346,2.797 7.289,0.208 7.377,0 1.847,-4.169 z m -111.927,-21.335 c 34.479,-2.281 62.9,-4.266 63.163,-4.405 0.817,-0.435 -2.375,-13.339 -7.252,-29.305 -9.32,-30.526 -34.433,-46.408 -69.004,-43.633 -24.184,1.943 -40.714,10.316 -57.207,28.981 -10.011,11.329 -27.548,42.171 -27.548,48.445 0,4.864 23.449,4.844 97.848,-0.09 z" fill="#00B894" transform="translate(-82.174071,-79.828901) matrix(0.26458333,0,0,0.26458333,-8638.7036,-3229.4847)"/>
</svg>