<?xml version="1.0" ?><svg height="302.67679mm" viewBox="0 0 151.3933 302.67679" width="151.3933mm" xmlns="http://www.w3.org/2000/svg">
    <path d="m 37169.59,16087.24 c -38.93,0.589 -95.152,27.126 -111.002,67.391 -19.508,49.558 12.315,102.85 38.326,120.158 0,0 11.931,21.815 60.184,13.322 48.253,-8.493 69.869,-41.214 77.478,-83.799 7.61,-42.584 -7.193,-98.365 -41.506,-113.183 -6.433,-2.778 -14.496,-4.025 -23.48,-3.889 z m -127.076,231.643 c -20.05,-1.09 -58.042,17.821 -81,61.246 0,0 -19.805,42.363 -41.942,101.383 -22.137,59.021 -18.126,202.586 24.211,268.33 42.337,65.745 87.719,59.394 87.719,59.394 l 48.701,52.297 c 0,0 20.892,16.187 40.401,33.619 19.508,17.432 72.913,20.047 116.634,0.125 43.721,-19.923 26.257,-155.671 21.553,-207.345 -4.704,-51.674 3.596,-103.721 19.092,-126.383 15.496,-22.662 43.997,-4.731 56.172,22.289 12.176,27.02 17.987,89.028 30.3,118.289 12.314,29.261 29.829,21.606 61.016,8.842 31.186,-12.765 33.068,-41.59 33.483,-88.531 0.415,-46.943 -43.031,-82.555 -65.583,-105.217 -22.552,-22.662 -63.472,-82.301 -75.957,-98.616 -11.029,-14.411 -25.966,-22.882 -32.884,-38.073 -2.208,-15.473 -39.386,-38.018 -74.79,-42.173 -9.782,-31.604 -49.222,-17.498 -65.271,-15.63 -16.049,1.867 -52.99,17.306 -52.99,17.306 0,0 -26.427,-16.684 -45.106,-20.668 -1.167,-0.249 -2.423,-0.412 -3.759,-0.484 z" fill="#FFFFFF" paint-order="markers stroke fill" transform="translate(83.669797,-12.908603) matrix(0.26458333,0,0,0.26458333,-8968.3042,-3597.3541) translate(-3313.5291,-2437.8203)"/>
    <path d="m 33701.335,14784.797 c -45.19,-9.4 -68.599,-17.486 -72.677,-25.109 -3.57,-6.669 -2.98,-9.628 29.536,-148.351 21.687,-92.505 27.554,-139.167 24.09,-191.544 l -2.52,-38.124 -21.02,-12.392 c -26.111,-15.398 -41.909,-38.108 -54.718,-78.647 -11.732,-37.141 -24.303,-112.496 -24.305,-145.694 0,-86.016 59.499,-229.106 108.038,-259.815 22.764,-14.403 58.203,-15.349 79.75,-2.13 12.948,7.942 14.58,7.719 14.58,7.719 6.274,-2.997 33.382,-12.883 47.702,-15.339 23.13,-3.966 27.14,-3.745 35.914,2.003 12.637,8.283 9.263,13.626 -8.608,13.626 -14.179,0 -58.307,7.772 -63.333,10.873 -4.081,2.518 18.734,28.407 35.458,42.342 8.103,6.75 23.558,16.387 34.345,21.414 16.95,7.902 19.465,10.443 18.502,18.71 -1.492,12.815 -15.873,14.363 -38.876,4.19 -22.817,-10.091 -23.967,-9.881 -24.069,4.443 -0.02,6.688 -5.065,30.574 -11.152,53.082 -6.091,22.509 -10.533,41.461 -9.876,42.117 0.66,0.657 11.085,-7.459 23.174,-18.036 12.087,-10.579 35.961,-28.541 53.053,-39.911 34.049,-22.661 33.661,-21.633 19.084,-50.518 -10.887,-21.573 -32.337,-43.322 -53.121,-53.855 -15.672,-7.94 -17.656,-10.05 -12.282,-13.055 22.219,-12.436 77.221,34.834 88.655,76.19 l 3.43,12.406 27.207,0.609 c 32.84,0.738 46.455,5.463 52.222,18.127 6.87,15.074 -0.281,19.019 -20.47,11.308 -9.172,-3.504 -20.58,-5.803 -25.354,-5.112 -7.925,1.151 -7.346,2.144 6.701,11.406 15.925,10.505 23.191,23.432 16.776,29.848 -2.428,2.428 -11.785,-2.83 -27.316,-15.343 -12.993,-10.472 -25.392,-18.939 -27.552,-18.819 -2.161,0.122 -0.603,2.229 3.463,4.678 4.067,2.454 13.019,9.875 19.893,16.492 10.032,9.66 12.264,14.451 11.315,24.294 -1.714,17.806 -12.797,18.649 -19.957,1.514 -4.758,-11.386 -14.893,-21.004 -22.14,-21.004 -1.165,0 -2.115,4.005 -2.115,8.901 0,12.665 -8.934,32.423 -29.556,65.368 -19.924,31.824 -23.951,42.579 -30.603,81.714 -3.657,21.523 -3.612,30.299 0.226,44.007 4.285,15.297 5.309,16.42 9.631,10.535 4.437,-6.04 5.191,-5.656 9.132,4.643 2.36,6.173 3.368,15.872 2.237,21.551 -1.13,5.68 0.612,20.744 3.872,33.481 3.299,12.873 5.176,31.04 4.227,40.914 -1.81,18.833 -11.995,38.62 -17.978,34.921 -1.967,-1.216 -3.579,-16.088 -3.579,-33.044 0,-26.497 -2.189,-37.133 -15.544,-75.557 -13.547,-26.828 -15.258,-46.726 -11.21,-74.97 6.86,-47.832 13.857,-66.007 37.897,-98.433 12.214,-16.47 26.597,-38.615 31.964,-49.206 9.293,-18.341 9.44,-19.498 3.013,-24.196 -3.71,-2.713 -8.288,-3.979 -10.173,-2.815 -44.616,27.577 -102.349,78.976 -107.998,96.154 -2.075,6.317 -3.968,54.322 -4.213,107.04 -0.397,85.441 -1.164,96.682 -7.212,105.913 -3.722,5.679 -8.972,11.172 -11.667,12.208 -3.856,1.478 -3.024,8.321 3.92,32.208 17.113,58.855 20.469,121.03 10.601,196.387 -5.489,41.944 -14.815,92.976 -18.966,103.79 -1.493,3.889 8.167,5.707 43.773,8.229 36.951,2.619 46.467,4.477 49.754,9.715 3.142,5.013 2.571,7.974 -2.536,13.083 -12.922,12.92 -90.253,3.724 -111.181,-13.222 -15.662,-10.067 -4.322,-26.251 -0.588,-43.995 24.088,-114.528 27.18,-186.952 11.435,-267.71 -5.714,-29.314 -6.017,-29.599 -26.367,-24.944 l -17.367,3.974 1.961,43.424 c 2.269,50.164 -4.526,104.956 -21.393,172.526 -5.908,23.667 -15.122,64.08 -20.474,89.807 -5.351,25.725 -10.543,49.44 -11.536,52.698 -1.519,4.97 4.619,6.623 38.193,10.289 41.113,4.491 58.797,11.33 56.691,21.933 -2.697,13.578 -14.321,15.467 -49.813,8.086 z m 47.779,-437.555 c 17.218,-7.846 21.593,-33.193 13.839,-80.169 -2.381,-14.407 -3.657,-45.811 -2.843,-69.788 l 1.481,-43.596 h -12.438 c -17.367,0 -29.384,-9.079 -40.153,-30.332 -11.737,-23.16 -16.674,-52.911 -19.306,-116.352 -2.436,-58.659 1.19,-91.007 10.395,-92.778 9.685,-1.867 13.795,17.535 18.057,85.292 2.14,33.959 5.512,69.841 7.5,79.736 4.527,22.548 13.847,42.513 21.155,45.319 7.914,3.037 20.021,-4.333 20.021,-12.188 0,-3.637 5.894,-30.613 13.096,-59.95 13.74,-55.953 15.734,-78.826 8.988,-103.12 -7.756,-27.939 -33.018,-51.429 -60.448,-56.208 -14.881,-2.595 -41.933,6.585 -49.903,16.933 -8.108,10.524 -38.648,84.822 -51.749,125.895 -19.814,62.117 -23.928,102.149 -15.972,155.386 11.498,76.909 26.278,120.726 48.134,142.704 7.968,8.011 15.453,13.598 16.632,12.42 1.18,-1.179 0.293,-10.764 -1.962,-21.298 -6.188,-28.848 -5.43,-37.493 3.281,-37.493 9.427,0 16.822,14.271 23.075,44.544 l 4.886,23.657 17.115,-2.029 c 9.41,-1.115 21.614,-4.079 27.119,-6.585 z m 81.669,130.202 c -19.297,-7.92 -38.227,-25.929 -32.878,-31.278 1.387,-1.386 9.648,0.691 18.364,4.615 21.707,9.772 81.566,10.09 99.155,0.529 21.832,-11.873 32.355,-66.525 24.847,-129.042 -2.286,-19.026 -2.732,-19.646 -14.104,-19.646 -12.27,0 -29.807,-9.624 -26.701,-14.65 0.991,-1.603 9.616,-1.73 19.163,-0.281 l 17.361,2.636 -3.194,-28.466 c -1.758,-15.655 -3.092,-43.623 -2.961,-62.144 0.253,-35.79 6.851,-55.517 23.677,-70.731 6.145,-5.556 6.923,-8.256 3.549,-12.32 -11.725,-14.127 20.426,-18.352 44.52,-5.849 18.397,9.548 30.527,33.381 34.961,68.702 1.89,15.053 4.395,30.387 5.564,34.075 2.565,8.082 15.712,8.738 32.722,1.628 14.234,-5.947 46.587,-40.568 49.773,-53.262 3.051,-12.155 -8.969,-30.725 -44.113,-68.148 -16.042,-17.085 -36.246,-42.978 -44.894,-57.538 -8.65,-14.56 -23.831,-35.337 -33.732,-46.17 -9.901,-10.832 -18.005,-20.749 -18.005,-22.032 0,-4.613 28.296,9.611 38.761,19.482 5.886,5.552 19.235,22.676 29.674,38.052 10.437,15.377 32.084,40.716 48.103,56.31 35.878,34.929 46.498,56.112 50.226,100.184 2.701,31.994 2.733,31.848 -15.667,74.97 -10.316,24.18 -18.929,6.256 -9.573,-19.932 5.961,-16.685 13.39,-54.017 11.187,-56.22 -1.055,-1.055 -6.679,4.954 -12.504,13.353 -14.323,20.675 -36.981,33.511 -59.146,33.511 -21.5,0 -22.345,4.737 -6.219,34.95 13.28,24.886 13.284,24.923 3.932,24.923 -11.763,0 -27.888,-24.523 -28.646,-43.56 -0.36,-9.031 -2.571,-18.734 -4.917,-21.559 -2.347,-2.826 -6.055,-15.012 -8.239,-27.078 -7.059,-38.953 -10.672,-49.096 -21.678,-60.881 -15.372,-16.454 -24.16,-15.059 -36.365,5.767 -13.148,22.438 -15.898,60.997 -7.565,106.148 19.51,105.726 16.363,174.562 -9.771,213.624 -16.799,25.111 -74.472,33.826 -114.667,17.328 z m 249.872,-191.532 c -3.116,-3.118 0.695,-20.392 5.102,-23.118 2.042,-1.259 5.174,0 6.96,2.864 2.428,3.856 4.419,2.084 7.885,-7.005 5.456,-14.303 9.512,-15.471 12.493,-3.595 2.651,10.574 -3.876,28.835 -10.336,28.907 -2.621,0.02 -8.178,0.964 -12.35,2.084 -4.167,1.123 -8.557,1.059 -9.754,-0.14 z m -212.669,-29.909 c -2.636,-3.174 -5.67,-13.572 -6.744,-23.103 -2.611,-23.156 6.14,-20.829 13.743,3.651 5.978,19.249 2.004,30.3 -6.999,19.452 z m 10.777,-44.268 c -4.547,-9.976 -0.252,-40.525 5.992,-42.59 5.088,-1.684 7.082,46.026 2.051,49.133 -2.173,1.345 -5.792,-1.6 -8.043,-6.543 z m 21.096,-28.541 c -2.836,-4.588 0.935,-34.893 6.045,-48.581 3.118,-8.354 3.682,-8.52 8.179,-2.37 4.322,5.912 5.601,4.566 12.213,-12.836 4.061,-10.689 8.992,-18.884 10.956,-18.207 5.165,1.77 3.573,17.688 -3.436,34.407 -4.653,11.091 -7.722,14.038 -13.129,12.624 -5.96,-1.558 -7.352,0.758 -8.939,14.855 -2.007,17.793 -7.539,27.147 -11.889,20.108 z m 76.514,-197.534 c -7.142,-2.6 -26.193,-20.243 -26.193,-24.262 0,-1.672 3.124,-3.042 6.937,-3.042 8.638,0 26.74,16.346 26.74,24.146 0.234,8.104 -2.431,4.998 -7.484,3.158 z m -32.695,-45.621 c -14.898,-7.417 -26.502,-15.172 -25.792,-17.229 2.074,-6.006 31.704,-2.905 44.684,4.675 11.914,6.957 17.292,17.97 11.347,23.244 -1.734,1.54 -15.343,-3.269 -30.239,-10.69 z m -47.757,-30.328 c -4.117,-1.768 -12.856,-3.333 -19.426,-3.479 -14.507,-0.317 -18.986,-5.951 -8.99,-11.299 17.012,-9.105 48.996,-0.54 48.996,13.119 0,5.936 -8.949,6.658 -20.58,1.659 z m -100.605,-50.926 c -31.432,-11.587 -56.505,-39.857 -62.217,-67.163 -13.442,-64.263 10.841,-112.179 68.111,-134.881 75.541,-29.942 123.988,-1.356 129.165,76.208 2.545,38.188 -3.59,69.859 -17.342,89.478 -7.003,9.993 -10.794,15.101 -10.794,15.101 6.188,15.294 -6.631,22.957 -14.502,15.086 -5.148,-5.148 -7.31,-5.05 -21.228,0.989 -22.909,9.945 -50.112,12.953 -71.193,5.182 z m 62.249,-24.111 c 9.525,-2.644 15.929,-5.621 15.929,-5.621 -2.202,-12.957 10.642,-14.088 16.092,-8.658 0,0 6.01,-4.35 14.95,-20.799 4.803,-8.841 6.26,-21.512 6.299,-54.797 0.05,-41.016 -0.488,-44.119 -10.242,-58.865 -20.162,-30.487 -49.64,-37.071 -89.488,-19.989 -40.3,17.276 -60.676,48.134 -59.89,90.711 0.538,29.151 4.864,42.41 18.653,57.174 22.64,24.244 51.101,31.009 87.697,20.844 z m 19.233,-38.817 c -3.471,-9.051 1.193,-17.117 9.898,-17.117 6.351,0 7.625,1.959 6.666,10.261 -1.327,11.507 -12.935,16.311 -16.564,6.856 z m -30.161,-8.071 c -4.93,-7.68 12.14,-23.362 18.082,-17.421 3.367,3.369 3.399,6.696 0.121,13.887 -6.535,8.45 -12.32,12.7 -18.203,3.534 z m -56.616,-43.47 c -5.683,-5.292 -5.607,-11.913 -0.551,-30.125 4.521,-16.285 11.721,-18.095 17.911,-4.502 6.731,14.768 8.822,30.704 0.751,35.567 -7.078,4.266 -12.36,4.415 -18.111,-0.94 z m 9.293,-18.664 c -1.194,-2.985 -2.08,-2.099 -2.259,2.26 -0.169,3.946 0.72,6.154 1.963,4.91 1.244,-1.241 1.377,-4.469 0.296,-7.17 z" fill="#00B894" transform="translate(83.669797,-12.908603) matrix(0.26458333,0,0,0.26458333,-8968.3042,-3597.3541)"/>
</svg>