<?xml version="1.0" ?><svg height="321.40549mm" viewBox="0 0 185.84291 321.40549" width="185.84291mm" xmlns="http://www.w3.org/2000/svg">
    <path d="m 36665.078,17507.799 c -3.747,-0.13 -7.279,-0.01 -10.226,0.465 -11.789,1.917 0,12.593 0,12.593 0,0 -24.263,1.096 -35.139,9.241 -10.876,8.146 12.32,11.775 12.32,11.775 0,0 -27.075,6.708 -37.039,18.344 -20.659,29.6 0.352,39.26 0.352,39.26 l -11.408,24.298 -34.907,189.686 c 0,0 -18.665,150.555 -32.888,216.541 -14.223,65.985 20.308,199.94 37.953,242.242 17.646,42.302 92.26,39.152 146.033,25.736 53.773,-13.416 52.935,-96.992 53.391,-126.22 0.457,-29.228 -12.293,-189.451 -10.924,-216.899 1.369,-27.448 34.025,-111.878 37.295,-123.173 3.271,-11.294 23.122,-65.028 21.373,-90.491 -1.75,-25.463 -30.424,-121.087 -46.168,-152.027 -15.744,-30.939 -53.62,-74.677 -60.465,-76.799 -5.134,-1.591 -18.312,-4.184 -29.553,-4.572 z m -291.787,24.551 c -9.76,-0.05 -20.931,1.149 -33.824,3.769 -58.94,11.978 -69.239,52.618 -75.418,95.395 15.686,33.651 45.314,101.401 130.019,75.562 84.705,-25.838 60.267,-102.513 43.789,-133.883 -12.872,-24.507 -29.711,-40.66 -64.566,-40.843 z m -37.641,222.755 c -36.28,-0.137 -57.652,28.067 -81.306,66.467 -23.654,38.4 -47.689,172.629 -44.647,230.537 3.043,57.908 11.486,139.843 106.483,142.991 94.996,3.149 90.282,-108.013 76.211,-151.752 -14.071,-43.74 3.882,-110.956 3.802,-192.274 -0.08,-81.318 -21.602,-90.835 -60.543,-95.969 z" fill="#FFFFFF" paint-order="markers stroke fill" transform="translate(80.961743,-0.35493337) matrix(0.26458333,0,0,0.26458333,-8781.9,-3965.764) translate(-3313.5291,-2437.8203)"/>
    <path d="m 32975.843,16202.201 c -35.648,-3.432 -55.439,-11.579 -62.826,-25.862 -4.741,-9.169 -4.162,-13.74 5.969,-47.208 35.12,-116.007 51.998,-213.631 51.998,-300.779 0,-45.631 -1.06,-56.744 -5.882,-61.563 -14.182,-8.633 -27.123,-19.032 -37.123,-28.588 -36.095,-34.656 -40.757,-48.029 -42.314,-121.357 -1.475,-69.318 3.999,-113.294 21.89,-175.875 15.205,-53.187 29.637,-83.284 49.963,-104.194 24.4,-25.109 40.666,-32.138 70.899,-30.651 27.768,1.366 46.222,11.684 56.521,31.593 5.683,10.993 33.605,25.452 56.245,29.126 10.841,1.759 12.93,0.505 20.742,-12.475 19.078,-31.691 50.068,-73.489 51.438,-69.377 2.772,8.322 -7.526,32.636 -25.741,60.772 -10.179,11.72 -15.613,35.171 -27.358,42.96 -10.609,7.036 -29.985,4.61 -51.761,-6.339 -7.717,-3.878 -14.032,-6.118 -14.032,-4.972 0,3.191 60.557,31.759 67.157,31.683 12.488,-0.14 84.472,-153.357 90.456,-192.521 4.67,-30.576 15.711,-51.623 36.321,-69.241 19.485,-16.652 33.778,-21.384 45.559,-15.077 11.6,6.208 7.954,16.602 -6.305,17.986 -6.52,0.634 -13.604,3.263 -15.747,5.843 -3.066,3.697 0.686,4.362 17.648,3.136 16.416,-1.189 22.7,-0.169 26.421,4.321 8.425,10.152 2.908,15.34 -16.738,15.75 -10.151,0.196 -22.649,2.762 -27.773,5.673 -9.119,5.175 -8.938,5.312 8.435,6.428 13.573,0.875 18.755,3.014 22.013,9.105 3.586,6.702 2.933,9.043 -4.135,14.763 -4.616,3.74 -13.226,6.8 -19.132,6.8 -17.813,0 -40.113,11.061 -47.916,23.765 -3.983,6.48 -15.599,32.833 -25.819,58.558 -27.58,69.436 -59.203,129.818 -69.258,132.24 -12.352,2.972 -35.84,-2.605 -57.443,-13.636 -22.613,-11.545 -23.763,-10.43 -23.713,22.964 0,11.667 -2.851,45.242 -6.371,74.614 -5.413,45.188 -5.664,56.706 -1.633,74.841 9.238,41.575 15.467,88.922 13.134,99.869 -2.595,12.186 -12.256,27.431 -29.039,45.822 l -10.945,11.992 5.986,16.075 c 9.68,25.978 13.845,57.666 17.293,131.587 3.386,72.506 2.098,93.083 -10.689,170.745 -4.238,25.725 -7.704,49.552 -7.704,52.947 0,5.26 6.892,6.567 46.687,8.863 49.155,2.835 57.112,5.913 52.537,20.325 -3.541,11.153 -16.114,12.84 -65.907,8.84 -39.251,-3.152 -45.659,-4.647 -54.244,-12.661 -9.259,-8.645 -9.613,-10.361 -7.23,-35.282 1.375,-14.405 6.168,-43.873 10.651,-65.484 7.215,-34.778 8.044,-49.165 7.218,-125.251 -0.828,-76.332 -4.985,-137.535 -10.6,-156.081 -1.512,-4.991 -4.003,-5.63 -12.026,-3.096 -5.566,1.76 -16.432,4.25 -24.151,5.529 -7.717,1.28 -13.988,3.516 -13.931,4.967 0.05,1.448 1.661,18.632 3.573,38.186 6.932,71.007 -15.155,210.866 -51.98,329.135 -4.136,13.289 -6.674,25.012 -5.634,26.048 1.034,1.038 19.684,2.874 41.44,4.083 32.476,1.801 40.458,3.426 44.592,9.082 6.167,16.416 -2.727,19.562 -14.013,22.165 -10.309,2.377 -18.795,0 -35.673,-1.611 z m 44.793,-461.425 c 24.081,-7.247 39.891,-19.617 47.881,-37.465 7.475,-16.698 7.237,-23.704 -2.94,-85.802 -5.182,-31.633 -5.41,-44.404 -1.624,-91.68 2.419,-30.206 4.38,-71.182 4.362,-91.052 l -0.02,-36.128 -21.514,-12.02 c -28.231,-15.77 -34.615,-21.728 -34.615,-32.306 0,-10.959 1.695,-10.923 27.705,0.581 11.636,5.145 21.95,9.353 22.918,9.353 5.223,0 0.439,-12.596 -8.646,-22.76 -13.031,-14.584 -38.079,-18.803 -56.151,-9.457 -33.672,17.411 -54.072,53.491 -74.647,132.012 -13.395,51.117 -13.566,52.702 -13.824,128.468 -0.253,72.922 0.168,77.677 8.584,96.27 8.768,19.394 39.917,52.671 44.765,47.823 2.421,-2.421 2.892,-5.559 3.925,-26.221 0.961,-19.205 19.177,-3.33 19.177,16.711 0,19.692 6.353,22.199 34.683,13.673 z m 546.388,442.226 c -2.143,-2.672 -7.369,-11.753 -11.613,-20.182 -13.748,-27.298 -36.801,-42.181 -80.194,-51.772 l -10.287,-2.275 v 28.382 c 0,32.477 -4.016,42.859 -16.572,42.859 -11.515,0 -13.366,-5.793 -13.366,-41.9 v -30.06 l -21.45,2.681 c -36.47,4.555 -59.18,15.427 -86.941,41.618 -13.949,13.156 -27.262,23.919 -29.581,23.919 -8.99,0 -3.553,-18.884 10.585,-36.771 26.511,-33.54 41.738,-42.176 92.991,-52.744 l 31.087,-6.411 0.72,-120.234 c 0.621,-104.111 0.02,-118.878 -4.426,-110.135 -18.565,36.419 -56.81,46.414 -117.863,30.801 -34.059,-8.711 -57.291,-18.705 -68.441,-29.434 -24.756,-23.831 -55.746,-160.143 -51.622,-227.081 6.214,-100.935 9.69,-128.745 24.53,-196.394 12.245,-55.807 26.936,-103.617 35.191,-114.525 7.698,-10.167 7.356,-7.032 -9.536,87.659 -37.052,207.71 -34.653,304.697 10.388,419.778 10.096,41.963 60.307,37.418 96.433,38.322 33.755,0.536 50.385,-3.995 60.729,-16.559 7.412,-9.002 23.46,-98.056 23.556,-130.709 0.05,-17.256 -2.777,-69.742 -6.278,-116.626 -5.416,-40.526 -8.67,-77.224 2.463,-116.005 4.859,-16.913 18.14,-52.642 29.514,-79.399 17.796,-41.86 20.885,-52.681 22.159,-77.569 1.954,-38.131 -5.696,-71.228 -30.697,-132.834 -30.972,-76.319 -47.793,-98.226 -86.78,-113.023 -16.024,-6.083 -16.755,-6.874 -8.318,-8.993 20.771,-5.212 53.234,11.933 69.171,36.535 5.798,8.956 12.638,19.413 15.198,23.241 3.833,5.733 4.303,1.675 2.654,-22.975 -1.1,-16.464 -2.585,-38.856 -3.299,-49.758 -0.743,-11.353 -3.876,-22.674 -7.33,-26.489 -12.027,-13.289 -2.442,-37.884 14.761,-37.884 19.127,0 31.439,26.431 19.034,40.868 -4.066,4.734 -4.625,20.026 -2.807,77.005 l 2.654,68.98 14.585,0.969 c 19.934,1.325 42.059,-15.232 54.459,-37.189 14.273,-25.274 18.339,-35.93 8.047,-42.414 -7.38,-4.649 -9.296,-12.707 -5.942,-25.16 4.725,-17.554 15.913,-20.968 31.623,-17.519 19.61,4.307 23.825,22.735 9.924,43.391 -4.695,6.977 -10.535,19.439 -12.977,27.689 -10.752,36.313 -43.284,63.155 -76.1,62.784 l -17.163,-0.196 8.473,21.073 c 24.397,60.678 25.693,118.053 3.789,167.578 l -13.488,30.499 -0.09,92.986 c -0.05,51.144 -1.711,109.591 -3.684,129.885 -4.219,43.381 -5.551,380.411 -1.667,422.043 l 2.666,28.606 22.909,4.446 c 32.888,6.378 51.204,15.478 70.983,35.257 18.953,18.95 29.589,39.778 27.865,54.551 -1.24,10.626 -14.144,14.886 -20.621,6.811 z m -121.305,-681.225 c -0.427,-32.72 -0.924,-35.606 -3.374,-19.646 -2.598,16.913 -0.813,57.999 2.518,57.999 0.746,0 1.132,-17.26 0.856,-38.353 z m -155.904,220.756 c -4.861,-5.855 -9.928,-25.239 -6.601,-25.239 4.022,0 20.564,20.196 20.689,25.258 0.169,6.058 -9.058,6.044 -14.088,0 z m 16.66,-5.888 c -5.959,-6.581 -8.574,-19.351 -3.966,-19.351 5.535,0 23.965,16.025 23.965,20.839 0,7.585 -12.638,6.649 -19.999,-1.488 z m -48.197,-10.932 c -27.936,-31.861 -40.313,-152.578 -22.538,-219.84 4.35,-16.466 8.865,-38.169 10.032,-48.231 2.704,-23.333 28.035,-99.307 42.98,-128.914 11.214,-22.216 33.347,-51.129 36.625,-47.851 0.909,0.909 -1.056,6.885 -4.365,13.281 -13.804,26.692 -45.808,129.394 -54.656,175.386 -4.356,22.641 -3.048,71.244 2.576,95.753 3.522,15.357 -5.563,11.359 -16.655,-7.327 l -8.71,-14.679 2.248,33.677 c 1.237,18.524 3.266,42.365 4.509,52.979 2.234,19.08 2.418,19.313 16.247,20.632 7.694,0.732 27.445,0.722 43.889,0 l 29.9,-1.357 2.671,-77.276 c 2.747,-79.394 8.81,-113.715 19.93,-141.622 17.333,-43.5 5.605,59.076 5.675,99.163 0.142,81.616 -3.001,123.532 -7.014,144.8 -10.682,56.608 -15.968,66.481 -27.898,52.104 -3.429,-4.129 -3.675,-6.655 -0.82,-8.421 2.242,-1.385 4.66,-13.989 5.374,-28.009 l 1.293,-25.489 -18.708,3.037 c -26.232,4.258 -52.973,3.15 -59.747,-2.472 -10.842,-8.997 -7.014,21.355 5.486,43.503 6.174,10.944 11.226,20.761 11.226,21.821 0,4.699 -14.352,1.306 -19.55,-4.622 z m 163.062,-253.622 c -1.308,-3.409 -1.093,-21.617 0.476,-40.465 1.572,-18.849 2.705,-41.363 2.523,-50.029 -0.444,-20.76 5.63,-23.777 12.888,-6.402 5.274,12.62 5.264,16.96 -0.07,46.108 -3.247,17.702 -5.902,36.713 -5.896,42.25 0,11.846 -6.49,17.442 -9.907,8.538 z m -2.418,-135.951 c -15.113,-19.818 -16.349,-22.982 -8.986,-22.982 6.592,0 27.362,22.289 30.509,32.743 4.433,14.712 -6.713,9.657 -21.523,-9.761 z m -393.269,-32.24 c -21.464,-7.649 -54.337,-31.544 -64.263,-46.706 -31.523,-48.163 -15.363,-114.394 34.25,-140.377 18.913,-9.905 25.479,-11.341 51.914,-11.341 29.107,0 31.004,0.542 49.468,14.095 21.159,15.535 39.168,40.949 46.352,65.425 4.047,13.779 6.06,15.902 15.082,15.902 18.881,0 18.383,16.27 -0.61,20.069 -9.514,1.902 -10.989,3.868 -10.989,14.656 0,15.265 -17.06,43.253 -33.503,54.959 -24.74,17.616 -60.43,23.036 -87.701,13.318 z m 54.886,-24.645 c 17.905,-4.97 39.647,-23.911 46.625,-40.612 5.108,-12.226 4.149,-14.235 4.149,-14.235 -11.619,-2.007 -15.429,-12.781 -10.649,-15.942 3.088,-2.039 6.876,-3.737 8.419,-3.769 4.831,-0.09 2.925,-12.53 -4.385,-28.634 -9.731,-21.424 -30.771,-43.683 -49.115,-51.954 -13.512,-6.095 -17.976,-6.41 -36.259,-2.576 -28.548,5.989 -61.067,25.805 -69.097,42.108 -15.48,31.445 -2.182,75.798 29.205,97.394 30.804,21.193 52.695,26.112 81.107,18.22 z m -4.468,-90.518 c -3.699,-9.755 1.42,-18.31 9.176,-15.334 6.16,2.362 10.683,14.622 7.373,19.98 -4.096,6.624 -13.25,4.056 -16.549,-4.646 z m 26.275,-5.815 c -4.582,-8.562 0.719,-17.513 8.585,-14.492 7.631,2.927 8.071,21.241 0.511,21.241 -3.016,0 -7.109,-3.036 -9.096,-6.749 z m 294.367,110.259 c -18.409,-8.411 -23.584,-17.443 -9.996,-17.443 13.353,0 33.309,11.468 33.309,19.138 0,8.569 -1.013,8.496 -23.313,-1.695 z m -40.303,-29.28 c -7.204,-2.025 -15.5,-6.019 -18.438,-8.88 -4.62,-4.496 -4.46,-5.539 1.187,-7.706 9.504,-3.645 46.723,0.926 53.529,6.579 5.118,4.245 4.519,5.391 -4.935,9.429 -12.618,5.388 -14.122,5.416 -31.343,0.578 z m -82.324,-113.083 c 0,-2.848 6.835,-11.352 15.187,-18.898 13.942,-12.597 16.78,-13.629 34.613,-12.599 14.274,0.829 19.426,2.613 19.426,6.738 0,4.174 -4.483,5.639 -17.518,5.718 -14.043,0.08 -20.493,2.492 -32.521,12.161 -16.764,13.471 -19.187,14.34 -19.187,6.88 z m 55.194,-38.752 c -34.615,-2.172 -24.302,-12.043 12.696,-12.148 12.425,-0.02 18.023,1.632 19.646,5.864 3.278,8.541 2.978,9.127 -4.277,8.344 -3.601,-0.389 -16.23,-1.316 -28.065,-2.06 z" fill="#00B894" transform="translate(80.961743,-0.35493337) matrix(0.26458333,0,0,0.26458333,-8781.9,-3965.764)"/>
</svg>