<?xml version="1.0" ?><svg height="89.674355mm" viewBox="0 0 79.321869 89.674355" width="79.321869mm" xmlns="http://www.w3.org/2000/svg">
    <path color="#000" d="m 39867.648,8225.7344 c -53.846,-0.6052 -80.906,39.1713 -114.904,96.3222 -25.073,62.4147 19.941,111.5025 108.5,134.7266 88.56,23.224 139.437,-8.3148 158.498,-69.6738 19.061,-61.3591 -34.603,-133.4058 -114.804,-155.5742 -13.785,-3.8103 -26.114,-5.6752 -37.29,-5.8008 z m -35.08,250.5781 a 18.382015,15.230198 0 0 0 -18.382,15.2305 18.382015,15.230198 0 0 0 18.382,15.2285 18.382015,15.230198 0 0 0 18.381,-15.2285 18.382015,15.230198 0 0 0 -18.381,-15.2305 z m -40.146,41.3574 a 8.2427378,8.1074705 0 0 0 -8.145,8.1074 8.2427378,8.1074705 0 0 0 8.244,8.1075 8.2427378,8.1074705 0 0 0 8.243,-8.1075 8.2427378,8.1074705 0 0 0 -8.243,-8.1074 8.2427378,8.1074705 0 0 0 -0.1,0 z" fill="#FFFFFF" overflow="visible" paint-order="fill markers stroke" transform="translate(-104.77119,-5.7473772) matrix(0.27719173,0,0,0.27719173,-9993.1524,-1595.5308) translate(-3313.5291,-2437.8203)"/>
    <path d="m 36471.917,6096.8842 c -8.112,-7.7549 -3.567,-14.5609 -1.772,-19.4432 1.317,-3.5814 7.744,-7.1245 13.369,-5.7123 10.869,2.7278 13.994,14.168 6.352,23.2506 -5.302,6.3012 -12.761,7.0927 -17.949,1.9049 z m 7.555,-10.284 c -0.203,-0.9046 -2.395,-1.9197 -4.525,-2.2486 -3.405,-0.5254 -3.488,0.4009 -1.435,2.8747 2.436,2.9367 3.055,2.126 4.5,2.1382 0.949,0.01 1.774,-1.3588 1.46,-2.7643 z m 25.8,-13.0208 c -11.012,-4.79 -14.085,-18.2866 -6.723,-29.5227 4.479,-6.836 16.499,-13.61 23.887,-13.4622 8.061,0.1616 19.175,7.2186 22.991,14.6007 9.42,18.2123 -18.374,37.8582 -40.155,28.3842 z m 20.686,-18.0355 c 0.991,-0.9904 -1.269,-3.6899 -5.889,-7.0361 -6.965,-5.0468 -7.649,-5.2168 -9.698,-2.4134 -3.293,4.5027 -2.804,12.3396 0.82,13.1333 3.612,0.7918 12.512,-1.4281 14.767,-3.6838 z m -47.066,-64.1524 c -29.323,-20.9259 -51.884,-44.8899 -49.309,-77.7459 3.465,-44.2164 39.198,-98.7418 78.619,-122.2972 28.004,-16.7334 60.057,-17.916 88.105,-9.2561 40.795,12.5956 65.44,29.3205 91.618,61.8609 12.53,15.5781 19.564,30.031 24.343,50.0168 7.39,30.9129 1.868,72.972 -12.407,94.5252 -12.041,18.179 -40.158,36.8368 -66.737,41.6616 -52.409,9.5135 -112.515,-8.9946 -154.232,-38.7653 z m 157.651,17.4164 c 14.244,-4.5428 36.116,-19.1288 42.922,-28.6247 11.311,-15.782 18.469,-47.457 13.697,-71.9311 -10.96,-56.206 -53.774,-90.3655 -99.448,-107.0027 -68.626,-24.9979 -129.051,25.9625 -148.322,93.7993 -6.535,23.0049 0.87,46.9313 19.135,63.6241 33.35,30.4806 70.085,46.9862 120.547,54.1635 12.497,1.778 40.018,-0.3759 51.469,-4.0284 z" fill="#00B894" transform="translate(-104.77119,-5.7473772) matrix(0.27719173,0,0,0.27719173,-9993.1524,-1595.5308)"/>
</svg>