<?xml version="1.0" ?><svg height="175.82036mm" viewBox="0 0 164.7624 175.82036" width="164.76241mm" xmlns="http://www.w3.org/2000/svg">
    <path color="#000" d="m 34428.151,5181.2122 c -60.552,0.6664 -127.703,30.5536 -193.167,64.087 0,0 -116.539,74.1066 -141.635,128.0284 -25.095,53.9219 -46.74,123.6527 30.585,228.8142 77.325,105.1614 262.876,86.5288 337.378,68.1786 74.502,-18.3503 182.883,-85.1179 209.39,-205.3832 26.508,-120.2653 -75.757,-200.7243 -154.023,-257.0457 -26.905,-19.3605 -56.811,-27.0284 -88.528,-26.6793 z m 72.062,526.7977 c -17.238,3e-4 -31.212,14.63 -31.212,32.6769 0,18.0469 13.974,32.6766 31.212,32.6769 17.238,-3e-4 31.212,-14.63 31.212,-32.6769 0,-18.0469 -13.974,-32.6766 -31.212,-32.6769 z m 88.248,88.4493 c -4.819,0.028 -7.052,-0.67 -11.802,2.3384 -10.27,6.5034 -20.421,23.5566 -16.119,30.3487 4.301,6.7914 16.113,7.0254 26.382,0.5226 10.27,-6.5036 18.76,-20.021 14.458,-26.8128 -2.141,-3.3818 -7.732,-6.4266 -12.919,-6.3969 z" fill="#FFFFFF" overflow="visible" paint-order="fill markers stroke" transform="translate(-72.731194,61.588646) matrix(0.26458333,0,0,0.26458333,-8938.217,-1430.6845)"/>
    <path d="m 34555.156,5830.4302 c -2.202,-5.7432 2.738,-23.8341 8.796,-32.1946 4.779,-6.5995 7.266,-8.1781 14.628,-9.2821 10.204,-1.53 20.935,1.3731 26.078,7.056 4.363,4.821 2.9,19.1805 -2.913,28.5852 -9.899,10.9261 -39.33,23.0808 -46.589,5.8355 z m 26.309,-5.5033 c 9.634,-4.9816 13.829,-19.6203 6.001,-20.5957 -8.477,-1.0562 -20.007,3.7622 -21.85,19.2095 -0.664,5.5559 7.586,5.6581 15.849,1.3862 z m -100.922,-47.0634 c -25.065,-9.9651 -25.671,-45.1386 -1.253,-72.7422 12.142,-13.7259 37.401,-6.9858 52.925,14.122 13.127,17.8498 4.245,45.4853 -18.342,57.0678 -8.034,4.1206 -24.897,4.906 -33.33,1.5524 z m 30.012,-23.3503 c 10.386,-10.3852 10.578,-18.5074 0.681,-28.6977 -10.676,-10.992 -15.602,-11.3843 -24.999,-1.9897 -12.028,12.0277 -12.584,30.477 -1.086,36.035 9.281,4.4876 17.244,2.8115 25.404,-5.3476 z m -206.706,-59.9946 c -43.281,-4.3727 -93.898,-17.8741 -124.284,-33.1522 -32.702,-16.4421 -71.621,-50.4806 -90.932,-79.5263 -27.827,-43.4301 -36.349,-93.6461 -28.988,-145.0387 7.739,-48.2964 30.5,-88.6984 72.848,-129.2944 41.918,-35.9732 77.813,-57.5189 123.711,-83.7809 50.492,-28.5656 71.25,-36.9938 111.626,-45.3284 34.861,-4.4171 65.758,-6.5308 100.399,1.9483 33.284,8.3613 66.675,25.1542 98.439,49.5093 62.402,47.8471 90.969,91.4251 107.567,164.0926 13.177,57.7 3.392,106.9631 -31.726,159.715 -36.268,54.4778 -94.729,95.2344 -174.182,121.4316 -60.245,17.5942 -104.209,25.1355 -164.478,19.4241 z m 93.293,-20.6375 c 56.529,-9.9482 115.943,-33.0042 159.835,-62.0257 26.301,-17.3906 59.555,-50.8461 74.313,-74.7642 28.665,-46.4573 36.049,-87.5188 24.775,-137.7848 -11.839,-66.5439 -49.486,-116.7455 -103.035,-156.757 -47.982,-36.028 -93.618,-52.0945 -147.971,-52.0945 -38.632,0 -59.067,6.6135 -149.068,48.2435 -43.437,20.0929 -80.482,44.691 -109.62,72.7917 -26.946,25.984 -42.972,47.0497 -55.193,72.5451 -24.241,56.9946 -24.802,118.5023 -1.712,166.9731 19.293,40.0268 63.232,80.3561 108.571,99.6486 64.194,22.7954 129.985,34.0403 199.105,23.2242 z" fill="#00B894" transform="translate(-72.731194,61.588646) matrix(0.26458333,0,0,0.26458333,-8938.217,-1430.6845)"/>
</svg>