<?xml version="1.0" ?><svg height="125.15842mm" viewBox="0 0 75.882248 125.15842" width="75.882248mm" xmlns="http://www.w3.org/2000/svg">
    <path color="#000" d="m 771.11258,5203.2204 c -30.8953,-21.6985 -59.2462,-49.1761 -23.3835,-119.7236 35.8628,-70.5475 121.885,-107.7294 155.9304,-83.7411 34.0455,23.9883 24.1104,103.8041 -67.1216,194.6327 74.7546,-18.5365 181.12762,32.3455 157.2008,130.1719 -29.574,120.9147 -99.2871,130.1017 -143.3887,122.3599 -44.1015,-7.7417 -91.7167,-34.7831 -86.0222,-126.593 5.6944,-91.81 27.2605,-104.6765 27.2605,-104.6765 z" fill="#FFFFFF" overflow="visible" paint-order="fill markers stroke" transform="translate(-106.07668,-10.42519) matrix(0.26458333,0,0,0.26458333,-85.247511,-1308.4298)"/>
    <path d="m 869.37938,4984.6525 c -36.2923,-0.2789 -83.7752,15.3502 -115.5156,64.3164 -5.2324,7.4689 -17.5814,33.8998 -20.461,43.7928 -1.2807,4.4 -3.4539,11.3006 -4.8281,15.334 -9.2858,27.6998 -8.1318,62.9663 14.5195,87.5137 7.1526,7.3662 19.9756,15.124 25.7129,15.5547 2.5746,0.1933 4.0751,1.4491 5.5118,4.6152 1.7814,3.9256 1.7539,4.6423 -0.2832,7.334 -5.4101,7.1487 -8.0427,13.614 -11.3731,27.9356 -3.3592,14.445 -3.5642,17.3251 -3.8047,53.1601 -0.1371,23.6296 -0.2907,70.0126 8.9356,97.5859 35.7341,71.3612 139.9983,60.4866 168.4726,42.6407 42.3295,-25.9846 53.5013,-79.6792 64.98442,-113.0059 38.3113,-83.9839 -57.77842,-158.3306 -144.40632,-146.209 -5.8638,1.7062 -4.4518,-0.5934 -0.2402,-3.289 2.9386,-1.8808 14.6577,-11.2977 20.7734,-20.3067 1.8156,-2.6745 5.6891,-8.162 8.6075,-12.1953 12.8498,-17.7758 26.7818,-36.619 36.9316,-57.334 5.344,-11.2629 9.4355,-25.3147 10.2774,-35.2987 1.6461,-19.5212 -0.7324,-49.0214 -21.7872,-62.3828 -9.2495,-5.6941 -24.3032,-9.6255 -42.0273,-9.7617 z m 18.3066,18.6777 c 26.5453,-0.2229 41.1772,38.8555 15.4278,85.4315 -4.6437,9.728 -11.8438,21.2972 -11.8438,19.0293 0,-0.2804 2.1141,-5.7548 4.6992,-12.166 9.7645,-24.2156 11.9946,-40.311 7.3165,-52.8202 -4.6932,-12.549 -13.5465,-18.6834 -25.918,-17.959 -7.4476,0.436 -10.7966,2.9501 -9.4746,7.1153 1.1072,3.4885 8.0435,7.3727 13.2676,7.4277 3.1579,0.033 4.1142,0.7953 5.0703,4.041 1.4719,4.9963 0.2846,20.0462 -2.3985,30.4003 -9.4117,50.2986 -83.1849,166.8289 -112.6855,110.2715 -1.7307,-8.07 -0.9785,-30.6127 1.2011,-36.0059 5.837,-26.9537 20.2942,-91.1958 70.0059,-124.0995 2.4991,-1.1162 9.0325,-5.386 13.582,-8.8769 2.0501,-1.5732 19.4139,-9.1937 24.7618,-10.8672 2.4033,-0.6028 4.7386,-0.903 6.9882,-0.9219 z m -62.291,11.166 c 0.3781,0.035 0.541,0.312 0.541,0.8086 0,1.1688 -0.5063,2.125 -1.1269,2.125 -34.3223,28.2682 -71.3999,99.8419 -71.4649,158.9999 v 0 c 0.4642,3.4833 0.514,6.332 0.1094,6.332 -1.5937,0 -8.1122,-12.7921 -9.7657,-19.166 -2.2265,-8.5836 -2.1653,-24.0051 0.1446,-36.834 1.949,-10.8251 9.4872,-34.4022 14.3359,-44.8398 12.3378,-26.0684 23.8306,-40.577 46.2578,-54.8261 3.9423,-2.3834 7.3937,-4.334 7.6699,-4.334 0.2761,0 3.5035,-2.1555 7.1719,-4.791 3.4291,-2.4635 5.2972,-3.5517 6.1289,-3.4746 z m 50.4453,185.2929 c 4.6112,-0.019 9.4196,0.2041 14.4082,0.7207 52.2891,5.4144 83.6867,37.3403 94.9493,75.5859 1.9554,11.0608 2.3213,25.4712 0.8593,33.8672 -6.2716,18.2587 -7.7062,29.7147 -22.9394,42.3984 -6.2479,5.866 -11.8477,8.284 -11.8477,5.1153 0,-2.3698 -4.9115,-3.9477 -9.8125,-3.1524 -3.8312,0.6218 -4.8535,1.3896 -4.8535,3.6485 0,1.5743 0.9148,4.1688 2.0332,5.7656 1.91,2.7269 1.8091,3.0222 -1.6601,4.8398 -3.5516,1.8609 -3.8535,1.7538 -7.8672,-2.7578 -2.2956,-2.5804 -4.8879,-7.1728 -5.7598,-10.207 -0.8717,-3.0343 -2.7464,-8.0612 -4.166,-11.1699 -3.9467,-8.7825 -6.5354,-22.8092 -8.5469,-32.3184 -0.2008,-6.2853 -19.8636,-18.666 -29.1562,-25.9219 -8.1833,-5.4374 -16.6027,-12.0976 -18.711,-14.8007 -4.1384,-5.3055 -9.4695,-8.1123 -16.7988,-8.8438 -4.0017,-0.3993 -4.8022,0.019 -5.877,3.0703 -0.9487,2.6932 -0.5976,4.9088 1.4786,9.3321 4.488,9.5608 9.1458,21.2387 12.4179,31.1347 1.6975,5.1333 4.7797,12.9434 6.8496,17.3555 2.0699,4.412 3.7637,8.7403 3.7637,9.6191 0,1.6787 5.2566,5.1365 7.0371,4.6289 0.5705,-0.1627 5.7962,3.6114 11.6133,8.3848 8.5639,7.0014 18.108,14.0962 28.334,21.2129 3.6576,3.508 7.1112,5.7554 8.1992,5.3379 1.0338,-0.3966 2.2458,-0.1284 2.6934,0.5957 1.0084,1.6319 -5.1798,3.6807 -16.545,5.4766 -45.3381,6.0767 -97.7519,-8.471 -112.9726,-71.2774 -8.1812,-22.0629 -8.1072,-49.5352 0.1758,-66.1387 1.1721,-2.3494 2.1308,-5.0099 2.1308,-5.9121 0,-1.9483 13.1933,-15.2832 15.1211,-15.2832 0.7342,0 2.2817,-0.8396 3.4395,-1.8652 7.1183,-6.3053 29.7316,-18.3075 62.0097,-18.4414 z m 0.5977,25.1484 c -25.2675,-0.1326 -50.277,8.0903 -70.6797,26.2637 -12.9434,15.4343 -20.086,36.1708 -12.4883,36.2578 5.4569,0.062 12.3987,-4.4452 13.3223,-8.6504 1.1715,-5.3336 2.6883,-6.0362 5.9629,-2.7617 5.6649,5.5442 7.2931,8.7235 14.0097,7.2656 5.3184,0 8.8034,-5.4789 7.3106,-9.414 -1.5181,-4.0018 -3.2972,-4.8141 -11.707,-5.3477 -4.0454,-0.2568 -7.6676,-0.7789 -8.0489,-1.1602 13.6002,-20.7499 50.4839,-26.8763 79.1504,-21.4082 42.1049,9.9617 60.4099,27.7846 69.1211,78.4903 0.033,28.8465 12.8721,9.4366 13.3946,-8.4082 0.5282,-14.2849 0.2276,-17.7266 -2.209,-25.2539 -1.5516,-4.7932 -3.2062,-9.0142 -3.6758,-9.3809 -0.4696,-0.3667 -2.7783,-4.268 -5.1309,-8.668 -6.9455,-12.9901 -24.8424,-30.3278 -37.5,-36.3281 -16.1344,-7.4036 -33.5438,-11.4053 -50.832,-11.4961 z m 50.3203,44.0742 c -1.2951,0.01 -2.7844,0.2369 -4.4883,0.6856 -3.1968,0.8419 -4.334,1.896 -4.334,4.0176 0,3.6008 4.9825,9.0468 8.2754,9.0468 1.3619,0 2.8395,0.952 3.2852,2.1133 0.4456,1.1614 2.077,2.6227 3.625,3.2481 3.8187,1.543 4.195,1.5325 8.0859,-0.2403 1.8679,-0.8511 3.3965,-2.5692 3.3965,-3.8183 0,-2.6857 -6.2611,-9.3028 -8.8027,-9.3028 -0.9741,0 -2.3735,-1.1249 -3.1094,-2.5 -1.177,-2.1991 -3.0844,-3.2649 -5.9336,-3.25 z m -55.7109,23.0489 c 0.3991,-0.037 0.9123,0.297 1.2949,0.8945 0.5102,0.7965 2.127,1.834 3.5937,2.3066 1.4666,0.4725 4.5479,2.5041 6.8457,4.5137 2.2977,2.0096 5.8769,5.0043 7.9551,6.6543 4.0061,3.1808 2.8193,3.5377 -4.8008,1.4453 -2.5667,-0.7048 -6.016,-1.2519 -7.666,-1.2129 -1.65,0.038 -3,-0.696 -3,-1.6328 0,-0.9367 -1.1909,-4.0396 -2.6465,-6.8945 -1.4556,-2.8551 -2.3232,-5.5148 -1.9277,-5.9102 0.099,-0.099 0.2185,-0.1516 0.3516,-0.164 z m -96.5528,20.4297 c 0.3814,0.037 0.8448,1.0375 1.3653,3.1113 1.4661,5.8416 13.5676,29.455 18.1855,35.4863 25.8245,33.3491 56.273,45.1253 101.9453,45.8027 19.0275,-1.1656 37.3419,-6.6415 54.6133,-14.8593 4.4,-2.0048 9.9884,-5.1222 12.4199,-6.9258 2.4314,-1.8037 4.7207,-2.9785 5.0879,-2.6113 0.6281,0.6283 -1.4521,5.4321 -12.3457,28.4941 -6.3869,13.5216 -12.0827,18.8407 -21.5996,26 -22.754,20.0204 -114.322,26.1932 -148.2344,-29.1953 -2.3307,-4.2338 -5.3224,-11.5966 -6.6484,-16.3633 -2.4128,-8.6739 -5.0469,-34.342 -5.791,-56.4082 -0.2712,-8.038 0.1629,-12.6132 1.0019,-12.5312 z m 123.0332,13.6738 c 0.1317,0 0.2298,0.033 0.2891,0.1015 1.2468,1.4414 5.4531,14.7985 5.4531,17.3165 0,2.7036 -1.4444,2.2134 -6.666,-2.2598 -2.5666,-2.1988 -6.018,-4.3384 -7.668,-4.7559 -1.65,-0.4176 -2.9876,-1.1446 -2.9746,-1.6152 0.048,-1.7153 9.5917,-8.8106 11.5664,-8.7871 z m -58.0566,16.8555 c -4.4253,-0.1162 -8.7444,2.4366 -11.2031,6.2109 -4.6957,6.8945 32.2882,20.1117 23.0429,3.5976 -2.8823,-6.9064 -7.4145,-9.6924 -11.8398,-9.8085 z" fill="#00B894" transform="translate(-106.07668,-10.42519) matrix(0.26458333,0,0,0.26458333,-85.247511,-1308.4298)"/>
</svg>