<?xml version="1.0" ?><svg height="105.68594mm" viewBox="0 0 94.07019 105.68594" width="94.07019mm" xmlns="http://www.w3.org/2000/svg">
    <path d="m 831.3754,4614.1409 c -24.7331,-5.3257 -74.5028,-16.5235 -93.6217,-77.1552 -19.1189,-60.6317 -64.4882,-140.1766 17.9808,-225.7984 82.469,-85.6218 179.429,-52.6431 179.429,-52.6431 0,0 25.947,-23.6928 47.9489,-19.6643 22.0018,4.0284 8.4972,43.9716 8.4972,43.9716 0,0 41.1966,21.303 51.1354,83.232 9.9387,61.929 19.8775,117.3629 -3.6417,151.4342 -23.5192,34.0712 -102.4983,123.73 -207.7279,96.6232 z" fill="#FFFFFF" transform="translate(-27.115242,-15.726147) matrix(0.26458333,0,0,0.26458333,-159.22377,-1103.0975)"/>
    <path d="m 839.37986,4626.687 c -13.993,-3.029 -46.369,-15.283 -56.773,-21.488 -10.89,-6.496 -28.134,-22.04 -33.372,-30.084 -8.98,-13.789 -31.266,-68.707 -37.867,-93.315 -6.29,-23.443 -7.19,-30.565 -7.087,-56.047 0.123,-30.765 2.659,-43.468 14.212,-71.227 13.141,-31.574 54.606,-71.782 92.301,-89.503 35.105,-16.503 62.069,-21.027 99.433,-16.684 23.671,2.752 23.843,2.736 31.357,-2.984 20.888,-15.903 45.33104,-21.401 55.24804,-12.426 7.694,6.963 10.418,18.655 7.262,31.185 -2.435,9.674 -2.272,11.168 1.516,13.866 20.839,14.842 43.803,51.164 46.194,73.065 0.63,5.768 2.862,25.404 4.962,43.635 2.522,21.918 3.492,44.861 2.862,67.724 -0.894,32.405 -1.368,35.382 -7.556,47.42 -22.207,43.191 -54.447,75.643 -95.18104,95.803 -5.548,2.746 -19.546,8.708 -31.106,13.249 -19.175,7.532 -23.475,8.325 -49.041,9.044 -15.413,0.434 -32.227,-0.121 -37.364,-1.233 z m 85.237,-27.724 c 39.231,-15.493 73.48304,-39.451 96.30704,-67.366 19.392,-23.72 22.935,-33.186 24.529,-65.55 0.991,-20.128 0.643,-26.584 -1.37,-25.34 -1.485,0.918 -2.7,3.061 -2.7,4.763 0,1.702 -4.285,11.654 -9.52,22.114 -17.639,35.244 -54.978,66.126 -101.83404,84.225 -34.481,13.318 -47.602,16.404 -69.539,16.357 -25.321,-0.05 -46.267,-4.85 -70.227,-16.078 -16.299,-7.639 -23.746,-13.061 -40.265,-29.321 -11.146,-10.972 -20.527,-19.949 -20.847,-19.949 -2.668,0 24.42,55.012 30.852,62.656 7.393,8.785 33.626,26.467 51.159,34.48 17.162,7.845 32.952,10.13 64.414,9.322 22.489,-0.577 26.554,-1.433 49.041,-10.313 z m -36.291,-57.257 c 6.765,-2.039 9.62,-4.343 10.63,-8.578 1.259,-5.272 1.597,-5.412 3.766,-1.567 2.264,4.011 3.187,3.921 18.378,-1.797 19.969,-7.516 22.829,-9.733 19.816,-15.361 -1.257,-2.35 -2.287,-4.867 -2.287,-5.593 0,-2.803 5.457,-1.139 8.095,2.467 3.207,4.388 8.964,3.081 17.383,-3.947 4.27104,-3.565 4.97504,-5.352 2.92004,-7.408 -3.72904,-3.728 -3.39204,-6.445 0.794,-6.445 1.926,0 3.503,1.05 3.503,2.335 0,11.168 28.985,-18.554 39.22,-40.218 13.446,-28.458 17.704,-46.988 17.857,-77.715 0.14,-26.758 -0.195,-28.728 -7.253,-43.622 -10.553,-22.277 -23.974,-35.862 -45.954,-46.515 -56.05404,-27.168 -121.64004,-23.963 -176.67604,8.635 -31.183,18.47 -48.015,37.33 -64.933,72.759 -8.232,17.239 -8.673,19.392 -9.428,46.064 -0.902,31.9 1.107,41.143 12.767,58.717 12.915,19.465 36.641,43.378 41.275,41.599 2.899,-1.112 3.965,-0.291 3.965,3.053 0,3.393 4.072,6.4 15.764,11.641 26.54,11.898 23.937,14.281 23.937,-21.911 0,-36.123 5.387,-78.028 11.365,-88.384 2.223,-3.854 7.145,-9.053 10.935,-11.556 3.79,-2.502 14.246,-13.334 23.238,-24.071 21.843,-26.086 41.722,-44.941 47.381,-44.941 6.673,0 7.43,5.359 7.467,52.843 0.02,33.514 -0.745,44.19 -3.692,51.244 -4.873,11.665 -24.81,37.231 -47.217,60.551 -29.857,31.074 -33.721,35.689 -32.087,38.331 2.102,3.402 37.212,2.966 49.071,-0.61 z m -122.508,-43.559 c 0,-1.284 1.637,-2.335 3.639,-2.335 2.004,0 2.992,1.051 2.198,2.335 -0.793,1.285 -2.432,2.335 -3.641,2.335 -1.208,0 -2.196,-1.05 -2.196,-2.335 z m -15.187,-11.687 c -1.69,-2.737 4.293,-5.566 8.682,-4.104 1.933,0.645 1.186,1.962 -2.118,3.73 -3.366,1.801 -5.603,1.929 -6.564,0.374 z m 231.90204,-19.139 c 2.179,-2.179 3.426,-2.179 5.605,0 2.179,2.18 1.557,2.803 -2.803,2.803 -4.359,0 -4.981,-0.623 -2.802,-2.803 z m -236.36304,-1.669 c -1.167,-1.817 -2.61,-10.914 -3.207,-20.217 -3.207,-49.976 33.77,-104.356 90.309,-132.813 30.693,-15.449 71.961,-19.996 96.575,-10.641 6.757,2.568 14.485,4.67 17.173,4.67 7.545,0 36.12804,21.454 45.94804,34.484 17.951,23.82 22.258,41.124 18.084,72.675 -3.245,24.543 -7.006,30.181 -7.105,10.659 -0.244,-46.621 -12.849,-75.771 -42.74204,-98.833 -11.584,-8.937 -22.576,-12.576 -22.576,-7.473 0,1.193 -3.668,6.059 -8.152,10.813 -6.804,7.214 -8.734,8.16 -11.677,5.718 -1.937,-1.609 -3.524,-4.485 -3.524,-6.392 0,-2.122 -1.359,-2.945 -3.503,-2.122 -4.003,1.536 -5.058,-6.614 -1.168,-9.018 10.409,-6.433 -13.439,-7.86 -39.552,-2.367 -41.172,8.661 -86.081,43.102 -105.316,80.764 -7.419,14.529 -14.385,39.27 -15.942,56.621 -1.017,11.358 -2.189,15.709 -3.625,13.472 z m 183.421,-152.625 c -3.117,-3.117 -7.388,0.05 -5.766,4.269 1.049,2.738 2.055,2.893 4.668,0.725 2.114,-1.756 2.515,-3.577 1.098,-4.994 z m -169.028,146.146 c -2.249,-0.588 -4.088,-2.112 -4.088,-3.387 0,-3.321 12.296,-1.421 13.443,2.077 0.962,2.927 -1.727,3.303 -9.355,1.31 z m 227.10704,-35.755 c 0,-1.285 2.041,-2.336 4.533,-2.336 2.494,0 5.183,1.051 5.976,2.336 0.82,1.324 -1.142,2.335 -4.533,2.335 -3.286,0 -5.976,-1.051 -5.976,-2.335 z m -217.89704,-3.829 c -0.822,-0.821 -0.995,-2.299 -0.387,-3.284 1.436,-2.323 10.444,0.02 10.444,2.714 0,2.368 -7.817,2.81 -10.057,0.57 z m 17.09,-33.484 c -2.015,-3.767 -1.816,-4.366 1.086,-3.253 1.957,0.751 3.556,2.829 3.556,4.618 0,4.562 -1.745,4.049 -4.642,-1.365 z m 200.80704,2.283 c 4.57,-2.953 9.342,-2.953 9.342,0 0,1.285 -2.889,2.319 -6.422,2.3 -5.004,-0.03 -5.649,-0.536 -2.92,-2.3 z m -177.36504,-25.469 c -1.348,-2.521 -2.452,-5.703 -2.452,-7.072 0,-4.522 3.876,-2.587 6.542,3.267 3.175,6.966 -0.545,10.427 -4.09,3.805 z m 151.678,-4.483 c 0,-2.55 5.55704,-5.077 11.16604,-5.077 4.849,0 1.131,3.605 -5.912,5.733 -2.90404,0.877 -5.25404,0.584 -5.25404,-0.656 z m -20.932,-23.76 c 0.09,-4.743 6.078,-12.362 8.917,-11.336 1.261,0.455 -0.244,3.98 -3.344,7.833 -3.389,4.213 -5.611,5.61 -5.573,3.503 z m -84.122,-5.254 c 0.04,-4.249 0.47,-4.584 2.3,-1.752 2.927,4.528 2.927,7.006 0,7.006 -1.284,0 -2.319,-2.364 -2.3,-5.254 z m -9.51,187.991 c 5.162,-7.385 15.709,-21.101 23.44,-30.479 7.733,-9.379 14.059,-18.022 14.059,-19.208 0,-1.186 -3.116,-1.533 -6.924,-0.772 -18.372,3.675 -39.783,-9.202 -39.783,-23.928 0,-4.363 -1.05,-7.932 -2.334,-7.932 -1.473,0 -2.324,15.742 -2.303,42.619 0.03,37.855 1.078,53.128 3.655,53.128 0.445,0 5.03,-6.042 10.19,-13.428 z m 30.25,-63.902 c 4.103,-1.43 7.104,-3.674 6.666,-4.985 -0.881,-2.643 -37.233,-16.095 -38.923,-14.404 -2.99,2.99 4.261,14.268 11.507,17.899 9.596,4.809 10.95,4.906 20.75,1.49 z m 15.173,-15.105 c 5.084,-13.253 -4.255,-24.336 -20.5,-24.321 -9.291,0 -24.79,7.061 -24.79,11.28 0,1.523 32.273,14 42.37,16.381 0.827,0.195 2.14,-1.308 2.92,-3.34 z m 14.239,-80.01 c -0.737,-0.736 -11.735,9.109 -24.44,21.877 -12.707,12.768 -22.745,23.572 -22.308,24.009 0.436,0.436 4.518,-0.235 9.07,-1.492 11.023,-3.043 24.106,0.133 31.646,7.68 l 6.053,6.062 0.659,-28.399 c 0.362,-15.619 0.05,-29 -0.68,-29.737 z m 78.63604,-97.865 c 1.696,-11.943 0,-14.601 -9.311,-14.535 -4.722,0.03 -12.78904,2.123 -17.92604,4.642 l -9.342,4.581 9.606,-1.291 c 9.63704,-1.294 10.38504,-0.925 19.09304,9.441 4.428,5.269 6.854,4.395 7.88,-2.838 z" fill="#00B894" transform="translate(-27.115242,-15.726147) matrix(0.26458333,0,0,0.26458333,-159.22377,-1103.0975)"/>
</svg>