<?xml version="1.0" ?><svg height="196.1151mm" viewBox="0 0 280.76645 196.1151" width="280.76645mm" xmlns="http://www.w3.org/2000/svg">
    <path d="m 1119.3768,2667.0436 c -2.4037,-0.043 -4.9643,0.2816 -7.6914,1.0586 -29.089,8.2879 -20.7567,33.5459 -15.1289,46.3066 5.6277,12.7606 22.5098,56.3711 22.5098,56.3711 l 52.1855,-23.5468 c 0,0 -2.2662,-49.0054 -3.9472,-54.6622 -1.6811,-5.6568 -13.9595,-4.2094 -15.1289,3.0918 -1.0598,6.6168 -9.5631,-28.2012 -32.7989,-28.6191 z m 170.0411,22.7129 c -2.7628,-0.075 -5.5036,0.1207 -8.1993,0.625 -28.7535,5.3789 -37.395,27.6954 -41.6757,64.2578 -5.0884,30.4565 22.5306,86.0626 78.8261,75.3047 56.2955,-10.7579 52.1811,-77.4135 38.7735,-96.3125 -12.1506,-17.1273 -41.0179,-43.1499 -67.7246,-43.875 z m -131.4532,114.6621 -106.7812,20.3242 23.4609,132.4082 -58.5449,29.3379 47.2891,118.5938 114.0898,24.2714 112.7012,-70.4453 -115.9551,-22.7734 -35.7754,-84.2461 34.498,-7.8926 c 3e-4,0 0.5845,-16.9706 -1.0234,-25.5215 -1.608,-8.551 -12.3522,-77.5504 -13.1562,-82.6152 -0.8039,-5.0647 -0.8028,-31.4414 -0.8028,-31.4414 z m 157.9239,45.8691 c -0.9884,-0.028 -1.9907,-0.024 -3.0079,0.01 -32.5496,1.0903 -66.4731,22.1682 -72.1269,47.3184 -5.6538,25.1503 -8.7226,80.1771 -8.4844,126.1367 4.5997,28.2963 55.4111,25.4194 96.4414,23.166 41.0303,-2.2533 47.6538,-25.0038 47.4922,-36.7793 -0.1615,-11.7755 -2.8276,-105.109 -7.916,-117.248 -4.9295,-11.7597 -21.759,-41.7329 -52.3984,-42.6036 z m 188.8808,9.3985 c -19.0285,0.3339 -35.3076,12.4635 -45.3633,27.6191 -14.1344,24.5687 4.9278,47.6836 4.9278,47.6836 0,0 -25.4421,27.4041 -32.2266,34.1641 -6.7846,6.7601 -34.6498,8.2135 -41.1113,19.8437 -6.4615,11.6302 5.3302,40.5592 41.1914,54.8789 35.8611,14.3196 68.4915,-40.6322 79.3144,-62.2207 10.823,-21.5885 0.3223,-27.6211 0.3223,-27.6211 0,0 24.4726,-4.7981 34.084,-19.3359 9.6114,-14.5377 5.9774,-59.7504 -21.3223,-71.0898 -6.8249,-2.8349 -13.4735,-4.0332 -19.8164,-3.9219 z m 153.0039,124.5215 c -1.6923,-0.039 -3.6655,0.1792 -6.0078,0.6699 -9.3691,1.9626 -72.0455,20.5712 -77.457,24.7871 -5.4115,4.2159 -2.6658,11.4836 0.7265,19.334 3.3923,7.8503 12.4391,43.8327 13.1661,46.7402 4.1192,5.4517 9.691,-6.2525 13.164,-3.1269 3.473,3.1257 12.5996,-2.834 12.5996,-2.834 0,0 7.2692,-2.8358 10.7422,0.1445 3.4731,2.9802 17.2852,-12.793 17.2852,-12.793 0,0 9.2071,-5.0886 19.707,-5.0156 10.4999,0.073 7.6743,-9.8857 9.4512,-5.0156 1.7769,4.8701 17.6066,-0.8724 17.9297,-3.3438 0.3231,-2.4714 -18.1723,-46.9568 -21.3223,-52.6992 -2.3625,-4.3068 -4.9074,-6.7318 -9.9844,-6.8476 z" fill="#FFFFFF" transform="translate(-53.89651,57.236175) matrix(0.41208446,0,0,0.41208446,-363.06971,-1152.8837)"/>
    <path d="m 1160.5268,3132.705 c -4.0333,-1.024 -20.5333,-4.5909 -36.6667,-7.9264 -60.7667,-12.5635 -66.9468,-14.713 -68.0826,-23.6796 -0.4496,-3.549 -8.2879,-22.7072 -17.5814,-42.9721 -6.6633,-14.5298 -21.984,-53.9266 -23.7266,-61.0126 -0.4976,-2.0236 -1.4361,-4.0076 -2.0855,-4.409 -2.1558,-1.3323 2.4598,-7.8752 8.7343,-12.3812 7.1214,-5.1142 35.4395,-18.8773 55.3945,-26.9227 15.7153,-6.3361 35.6311,-11.709 47.6752,-12.8619 8.2187,-0.7867 8.3862,-0.7353 12.7788,3.9222 4.7666,5.0541 13.2075,20.6257 18.2489,33.6652 1.7011,4.4 3.2836,8.2416 3.5167,8.5369 0.233,0.2953 1.7821,-1.2002 3.4424,-3.3234 1.6603,-2.1231 9.1713,-10.6139 16.6911,-18.8685 8.8818,-9.7495 18.6314,-22.6006 27.8249,-36.6766 7.7839,-11.9176 19.2242,-28.1754 25.4231,-36.1284 6.1988,-7.9531 11.0776,-14.6108 10.8417,-14.7949 -0.2358,-0.1841 -6.1288,1.1136 -13.0955,2.8838 -20.6818,5.2553 -35.2838,2.3317 -47.0322,-9.4167 -8.1864,-8.1864 -18.618,-35.3039 -15.6874,-40.78 0.8141,-1.521 2.0251,-2.7655 2.6911,-2.7655 0.6661,0 4.6471,6.15 8.8467,13.6667 8.8892,15.9103 11.3942,19.0095 18.1776,22.488 10.8638,5.571 12.4201,5.3717 63.6709,-8.1536 18.6541,-4.9229 43.3952,-8.5246 58.6769,-8.542 10.1476,-0.012 12.3265,0.4592 20.6667,4.4649 7.7432,3.7189 12.0344,4.7674 25.3231,6.1871 34.6933,3.7065 54.0699,1.6493 71.3835,-7.5788 8.3403,-4.4453 24.7724,-17.097 41.189,-31.713 11.1655,-9.9409 42.2306,-44.2232 48.4214,-53.4361 2.2359,-3.3274 5.5244,-7.6322 7.3076,-9.5661 2.7549,-2.9875 2.9968,-3.9094 1.6087,-6.1321 -2.648,-4.24 -0.3758,-9.255 6.7424,-14.8816 3.6347,-2.8731 7.3269,-5.4633 8.2048,-5.7559 1.2013,-0.4004 1.0497,-2.7078 -0.6127,-9.3257 -3.4468,-13.722 -9.8544,-44.9784 -10.8079,-52.7218 -0.7065,-5.737 -0.4984,-7 1.1532,-7 4.3561,0 6.4631,5.5312 15.999,42 l 5.5783,21.3333 h 8.583 c 9.4567,0 11.9163,0.9458 11.9163,4.5821 0,3.4659 -2.9308,5.4452 -10.9673,7.4066 l -7.0327,1.7164 7.1026,0.1475 c 5.9661,0.1238 7.7262,0.7711 11,4.0449 3.044,3.0439 3.8974,5.098 3.8974,9.3802 0,3.0155 0.969,6.9617 2.1534,8.7692 1.9836,3.0274 1.9821,3.5478 -0.019,6.6026 -1.1951,1.8239 -4.5641,4.5361 -7.4867,6.0271 -3.5733,1.823 -5.3138,3.6017 -5.3138,5.4305 0,1.4958 2.67,15.1336 5.9333,30.3062 7.4007,34.4096 13.7688,66.8822 20.7063,105.5867 2.9575,16.5 7.4266,37.5 9.9314,46.6667 2.5048,9.1667 5.2528,20.161 6.1066,24.4319 0.9738,4.871 2.1307,7.5484 3.104,7.1836 8.764,-3.2847 27.055,-7.7023 30.5131,-7.3695 3.8618,0.3716 4.3719,0.8815 4.3719,4.3706 0,3.5253 -0.5734,4.0753 -5.3333,5.1148 -15.2379,3.328 -78,24.4568 -78,26.2586 0,4.3281 16.6331,-0.1365 59.7563,-16.0397 10.034,-3.7004 20.7304,-7.6284 23.7696,-8.729 3.2979,-1.1942 5.8012,-3.0535 6.2086,-4.6112 1.3538,-5.177 8.3642,-2.4416 9.29,3.6248 0.226,1.4808 4.3818,10.4338 9.2351,19.8954 4.8533,9.4617 9.7796,20.4595 10.9473,24.4395 1.9052,6.4936 1.9149,7.5545 0.094,10.3334 -3.7948,5.7916 -10.0868,2.7519 -11.8902,-5.7443 -0.8214,-3.8692 -1.1228,-4.0641 -4.1239,-2.6666 -2.0687,0.9633 -2.995,2.2824 -2.5654,3.6532 1.5642,4.9915 -2.8717,8.9383 -7.3514,6.5408 -1.8361,-0.9827 -2.6381,-0.7796 -3.2533,0.8237 -0.5471,1.4256 -1.9016,1.9204 -4.1039,1.4994 -2.4248,-0.4635 -3.5046,0.056 -4.1152,1.9798 -0.6343,1.9984 -1.7321,2.4754 -4.6961,2.0404 -2.6487,-0.3888 -3.8682,0 -3.8682,1.2432 0,2.5977 -3.6864,3.6473 -6.017,1.7131 -1.6427,-1.3633 -1.983,-1.1881 -1.983,1.0209 0,3.6881 -3.6482,6.5348 -6.2618,4.8862 -1.1211,-0.7072 -4.9668,-10.2724 -8.546,-21.2561 -3.5793,-10.9836 -7.0369,-20.7845 -7.6835,-21.7796 -0.7362,-1.1329 -2.2348,-1.4732 -4.0084,-0.9103 l -2.8325,0.899 3.3096,4.3392 c 4.9271,6.4597 12.409,23.441 14.7216,33.4126 2.2605,9.7471 1.2034,14.0689 -3.4412,14.0689 -3.1481,0 -4.1983,-2.4081 -7.2686,-16.6667 -2.1026,-9.7646 -8.4365,-28.2393 -11.1006,-32.3785 -0.606,-0.9415 -2.0831,-1.3353 -3.2824,-0.8751 -1.8922,0.7261 -1.545,2.0985 2.6256,10.3785 5.9284,11.77 9.7682,22.7128 9.7682,27.8381 0,2.1335 0.6586,5.1095 1.4635,6.6135 1.1124,2.0785 1.0324,3.1656 -0.3333,4.5308 -2.5702,2.5694 -4.5475,0.802 -7.5956,-6.7892 l -2.6708,-6.6514 0.2348,5.8115 c 0.1989,4.9253 -0.3266,6.2374 -3.4465,8.6045 -3.3102,2.5115 -3.8875,2.5866 -5.7288,0.7454 -1.1261,-1.1262 -4.6936,-11.5222 -7.9276,-23.1022 -3.234,-11.58 -6.216,-21.3907 -6.6267,-21.8014 -0.4107,-0.4107 -1.4192,-0.074 -2.241,0.7475 -2.0436,2.0436 1.2434,14.7744 8.0115,31.0286 3.8468,9.2384 4.9251,13.2597 4.0134,14.9661 -1.5251,2.8543 -4.2997,2.996 -6.9411,0.3547 -3.7718,-3.7719 -11.5451,-31.4604 -11.5451,-41.1237 0,-2.3674 -0.8915,-5.5772 -1.9812,-7.1328 -1.2811,-1.8291 -1.8673,-5.3491 -1.6591,-9.9622 0.3196,-7.0804 0.3718,-7.1609 6.9812,-10.7815 3.6625,-2.0063 12.3591,-5.8513 19.3257,-8.5445 6.9667,-2.6932 12.8194,-5.005 13.006,-5.1372 0.1867,-0.1323 -0.2203,-1.9877 -0.9044,-4.1233 -5.5011,-17.1739 -12.9559,-49.5038 -18.1124,-78.5495 -7.2681,-40.9395 -21.079,-112.2978 -25.3542,-131.0001 -0.5867,-2.5666 -1.555,-3 -6.7032,-3 -7.9109,0 -14.0453,-2.6883 -18.175,-7.9651 l -3.3554,-4.2874 -3.5947,6.1339 c -12.6603,21.6032 -50.7855,62.1179 -75.6705,80.4132 -25.1932,18.5218 -47.4426,22.868 -86.8157,16.9586 l -6.3463,-0.9525 4.7203,7.8388 c 2.5962,4.3114 6.5938,13.5437 8.8836,20.5164 3.94,11.9974 4.1967,14.057 4.785,38.3927 l 0.6217,25.7152 4.4271,1.8498 c 2.4349,1.0174 7.1014,4.3148 10.3699,7.3276 l 5.9428,5.4779 9.4723,-2.6249 c 9.0964,-2.5208 20.1365,-7.7056 20.1365,-9.4569 0,-0.4611 -1.855,-2.6006 -4.1221,-4.7545 -6.2117,-5.9012 -9.1679,-12.8355 -10.773,-25.2696 -1.2024,-9.3146 -1.9044,-11.3872 -4.0922,-12.0816 -7.9704,-2.5297 -19.3079,-17.8844 -17.7598,-24.0525 1.1135,-4.4366 2.6991,-3.9787 6.305,1.821 l 3.1088,5 0.6666,-8.6667 c 0.6291,-8.1778 0.8547,-8.6667 4,-8.6667 2.6281,0 3.3639,0.7052 3.4779,3.3334 0.3413,7.8674 0.8411,8.3745 2.4614,2.4971 2.3447,-8.5049 3.1762,-9.6711 5.5128,-7.732 1.0909,0.9054 1.9222,4.1535 1.9787,7.7314 l 0.097,6.1701 2.545,-7.1674 c 4.976,-14.0141 8.4936,-13.6635 8.4469,0.8419 -0.03,9.3094 -2.1936,18.1291 -5.3327,21.7389 -1.5253,1.7539 -1.4854,3.9326 0.254,13.898 2.3333,13.3678 4.2758,17.8905 9.423,21.9393 l 3.5844,2.8195 5.2321,-5.4451 c 3.9741,-4.1359 6.0814,-5.3465 8.7642,-5.0351 5.8944,0.6842 5.062,4.478 -2.677,12.2015 -3.9058,3.898 -8.5577,9.0627 -10.3376,11.4772 -1.7799,2.4146 -5.5085,6.0362 -8.2858,8.0481 l -5.0497,3.6579 9.8121,4.8495 c 12.5943,6.2244 21.8691,14.6181 27.196,24.6123 4.9152,9.2219 5.4466,13.5635 1.6601,13.5635 -1.6985,0 -4.1538,-2.6 -7.2401,-7.6666 -2.5685,-4.2167 -6.6619,-9.5716 -9.0965,-11.8999 -4.6038,-4.4027 -23.3407,-16.4335 -25.5937,-16.4335 -0.7093,0 -2.2826,-0.8986 -3.4962,-1.9969 -1.9612,-1.7748 -3.011,-1.7622 -9.4384,0.114 -13.5309,3.9496 -19.4206,8.6325 -21.8477,17.3711 -0.6777,2.4398 -0.3239,2.7336 2.615,2.1717 2.8891,-0.5522 4.9875,1.0484 13.9935,10.6743 8.2812,8.8511 12.2153,11.9817 18.0157,14.3359 4.0816,1.6565 7.7388,2.6941 8.1272,2.3057 0.3884,-0.3884 -1.1331,-3.9654 -3.3813,-7.9488 -4.4875,-7.9514 -5.2371,-14.4129 -1.9851,-17.1118 4.5234,-3.7541 17.7705,7.5931 26.1897,22.4337 l 3.98,7.0155 7.9544,-4.3488 c 6.0692,-3.3183 10.264,-7.1928 17.7003,-16.3489 9.1608,-11.2793 18.0733,-24.124 18.0733,-26.047 0,-0.4721 -1.5394,-1.5597 -3.4208,-2.4169 -2.6632,-1.2135 -3.3276,-2.3682 -3,-5.214 0.3761,-3.2672 1.022,-3.699 6.0812,-4.0651 4.9054,-0.3551 5.7714,-0.8887 6.492,-4 0.4573,-1.9747 1.6806,-4.9505 2.7184,-6.6129 2.8524,-4.5692 7.1292,-1.8166 7.1292,4.5885 v 4.8055 l 6.5627,-0.7773 c 7.8839,-0.9337 17.1089,-5.416 26.6203,-12.9343 6.5143,-5.1492 6.8722,-5.7222 4.9211,-7.8781 -2.314,-2.557 -2.9246,-15.4214 -0.8849,-18.6427 1.456,-2.2996 5.4475,-0.9667 5.4475,1.8191 0,3.0983 2.3609,2.4401 3.4365,-0.9581 0.5223,-1.65 2.0702,-5.6173 3.4398,-8.8161 2.1692,-5.066 2.7629,-5.5899 4.6041,-4.0619 1.4572,1.2094 1.897,3.0895 1.416,6.0535 -0.6469,3.9863 -0.438,4.282 2.8696,4.0619 3.2661,-0.2174 3.5563,0.1637 3.4373,4.5132 -0.1094,4.0015 0.3111,4.7375 2.6667,4.6667 2.2659,-0.068 2.8053,0.7259 2.8425,4.1841 0.025,2.3474 0.4541,4.6763 0.9531,5.1753 3.1586,3.1586 -8.815,11.2233 -16.6632,11.2233 -3.4679,0 -5.9351,1.4064 -11.2952,6.4387 -8.5429,8.0205 -20.9329,14.209 -32.8143,16.39 l -9.1072,1.6717 -3.786,7.4164 c -2.0824,4.0791 -5.3342,9.4831 -7.2263,12.0089 -1.892,2.5258 -3.4533,5.8258 -3.4694,7.3333 -0.088,8.2396 -8.3489,18.3198 -22.9681,28.0264 -7.6195,5.0591 -33.566,15.5521 -47.6693,19.2779 -8.2028,2.167 -9.2732,2.1656 -20,-0.026 -21.9082,-4.4755 -35.44,-10.7467 -42.5449,-19.7173 -5.3899,-6.8053 -9.3891,-15.7472 -9.4258,-21.0751 -0.063,-9.1358 4.567,-6.3762 13.7841,8.2161 4.6126,7.3024 10.5356,11.2504 22.0774,14.7157 12.9079,3.8755 13.0293,3.6816 1.7506,-2.7977 -13.5872,-7.8053 -20.9121,-13.9703 -25.8497,-21.7561 -4.2884,-6.762 -4.7599,-10.1157 -1.6657,-11.8473 1.8427,-1.0312 1.9965,-3.1868 1.1547,-16.1766 -1.0579,-16.321 -1.7996,-17.6233 -8.1635,-14.3324 -4.6821,2.4212 -8.0266,6.0406 -10.9072,11.8037 -4.291,8.585 -8.7648,6.2983 -12.515,-6.397 -5.667,-19.1836 -4.2438,-24.0399 4.2201,-14.4 l 4.1914,4.7737 5.2045,-4.702 c 2.8625,-2.5861 7.6386,-5.3574 10.6135,-6.1584 l 5.4089,-1.4565 -0.05,-6.9486 c -0.1058,-14.8267 -2.5551,-40.6539 -4.5789,-48.2819 -3.1124,-11.7309 -10.3537,-26.2266 -15.8445,-31.7174 -9.004,-9.004 -28.2378,-18.09 -32.9525,-15.5667 -1.3196,0.7062 -6.5448,1.2841 -11.6116,1.2841 -9.8247,0 -18.7854,2.4958 -30.7763,8.572 -14.668,7.4328 -25.7149,23.0966 -30.7868,43.6534 -2.303,9.3345 -2.8427,15.4926 -2.8045,32 0.064,27.6526 -4.4284,71.3182 -8.5512,83.1167 -5.9878,18.5072 -6.6176,-6.5305 -6.3886,-16.0088 1.6387,-53.5408 2.4641,-86.7533 2.1659,-87.159 -0.199,-0.2708 -2.0402,2.3417 -4.0916,5.8055 -13.387,22.6035 -22.0066,34.1161 -35.1443,46.9399 -13.6088,13.2838 -22.6439,21.0997 -25.4861,22.0471 -0.835,0.2783 1.5237,7.9258 5.7416,18.6152 l 7.1589,18.1428 8.6666,0.8732 c 55.2884,5.5701 101.3334,14.4413 101.3334,19.5232 0,0.6946 1.3945,0.9129 3.0989,0.4851 4.0335,-1.0123 6.8108,2.2489 5.6965,6.6889 -0.9735,3.8786 -12.748,12.0983 -49.224,34.363 -32.8365,20.0431 -45.5775,27.383 -54.1314,31.1841 -3.9746,1.7662 -8.0586,4.3992 -9.0756,5.8511 -2.2356,3.1919 -10.4722,3.4011 -21.6978,0.5513 z m 46.4466,-24.9772 c 15.8877,-10.486 38.9367,-25.3172 51.2201,-32.9581 12.2833,-7.641 22.3333,-14.2212 22.3333,-14.6226 0,-1.4644 -65.0103,-12.7876 -66.2575,-11.5405 -1.2815,1.2815 1.7615,6.1197 4.0601,6.4553 2.7339,0.3991 2.6823,0.5915 -1.1359,4.2347 -5.0197,4.7895 -19.9294,14.87 -31.5137,21.3065 -5.9228,3.2908 -8.7874,5.6771 -8.6667,7.2197 0.1332,1.7019 -0.6861,2.2065 -3.135,1.9306 -3.2842,-0.3699 -12.018,3.4458 -12.018,5.2507 0,0.5155 1.3439,1.1291 2.9864,1.3634 1.6657,0.2377 3.2006,1.5489 3.4707,2.9651 0.4482,2.3495 -0.1602,2.4787 -8.1527,1.7324 -8.5811,-0.8013 -8.6916,-0.7681 -17.0644,5.1277 -8.9287,6.2871 -10.9438,7.1176 -9.7553,4.0205 0.5163,-1.3454 -0.9074,-2.4056 -4.7943,-3.5702 -4.7462,-1.4218 -6.0563,-1.3447 -9.2558,0.5452 -4.0452,2.3896 -6.3309,1.6251 -3.8997,-1.3042 2.2338,-2.6915 0.8679,-3.3082 -8.4457,-3.813 -4.6324,-0.2511 -8.3112,-0.6412 -8.1752,-0.8669 0.136,-0.2258 0.6501,-1.4605 1.1426,-2.7438 0.4925,-1.2834 1.8225,-2.3334 2.9556,-2.3334 1.1331,0 4.5189,-1.8172 7.524,-4.0383 3.0051,-2.221 12.9068,-8.8782 22.0037,-14.7936 12.2151,-7.943 16.0501,-11.0655 14.6667,-11.9413 -1.5801,-1.0004 -1.5603,-1.2139 0.1268,-1.3643 1.1,-0.098 2.6174,-0.1115 3.372,-0.03 0.7546,0.082 7.8091,-3.6805 15.6767,-8.3606 l 14.3046,-8.5092 11.6567,0.6946 c 13.9747,0.8327 13.6135,-0.814 -0.6929,-3.1592 l -10.3171,-1.6912 -14.6667,6.9027 c -16.4649,7.7492 -86.9787,46.1452 -93.4937,50.9091 -2.2066,1.6135 -2.1929,1.7529 0.2445,2.4786 1.4204,0.4229 14.5826,2.9361 29.2492,5.5847 35.2025,6.3573 48.2196,9.2407 62.6667,13.8809 6.6,2.1198 12.201,3.9102 12.4466,3.9787 0.2456,0.069 13.4456,-8.4549 29.3333,-18.941 z m -31.7799,-8.8303 c 0,-2.5882 11.3646,-10.7688 25.9882,-18.707 15.7599,-8.5551 21.3451,-9.7928 21.3451,-4.7302 0,2.0996 -4.5359,4.9929 -21.3333,13.6075 -20.3409,10.432 -26,12.5715 -26,9.8297 z m -33.2794,3.6453 c 2.1703,-1.6045 3.946,-3.3389 3.946,-3.8541 0,-2.0286 -10.0554,-2.2054 -13.2106,-0.2322 l -3.2106,2.0079 3.2106,2.4683 c 4.0857,3.141 4.5132,3.123 9.2646,-0.3899 z m -16.1302,-4.9785 3.2571,-2.5034 -5.186,-1.4319 c -4.4026,-1.2156 -5.7915,-1.0485 -9.1947,1.1063 l -4.0088,2.5381 3.9377,0.8767 c 2.1657,0.4822 4.5376,1.0769 5.2709,1.3215 2.2788,0.7602 2.5787,0.6636 5.9238,-1.9073 z m -50.8506,-7.9059 c 4.1764,-2.8244 14.7935,-9.2127 23.5935,-14.1963 8.8,-4.9835 22.6,-12.8379 30.6667,-17.4541 8.0666,-4.6162 19.3334,-10.6025 25.0372,-13.3028 10.8587,-5.1408 11.2991,-5.8785 7.5087,-12.5783 -0.9602,-1.6973 -1.1377,-1.6553 -1.1721,0.2772 -0.054,3.0421 -7.3015,7.1218 -34.8999,19.6458 -12.7273,5.7755 -29.5907,13.8992 -37.4742,18.0524 l -14.3336,7.5515 0.8373,5.2366 c 0.9787,6.1205 -0.9648,6.9822 -4.2927,1.9032 -1.2013,-1.8333 -2.9589,-3.3333 -3.9059,-3.3333 -0.9756,0 -1.4663,-1.0113 -1.1322,-2.3334 0.6094,-2.4109 -12.2708,-33.3217 -26.5292,-63.6666 -9.3225,-19.8406 -9.4042,-19.9663 -12.2543,-18.8726 -1.8341,0.7038 -1.581,1.8893 1.8589,8.7035 2.1902,4.3388 6.1781,13.2018 8.8621,19.6956 2.6839,6.4937 8.9436,20.5189 13.9103,31.1671 4.9668,10.6482 10.4383,23.6982 12.159,29 1.7207,5.3018 3.3171,9.6397 3.5477,9.6397 0.2305,0 3.8363,-2.3109 8.0127,-5.1352 z m 84.2602,0.9384 c 4.2637,-2.6071 4.4364,-2.944 2,-3.9013 -4.3885,-1.7243 -8.6933,-1.3703 -12.7943,1.0522 -4.6524,2.7482 -4.8811,3.9995 -0.8724,4.7716 5.7857,1.1144 7.0375,0.9081 11.6667,-1.9225 z m -17.5662,-4.0713 4.7486,-2.9348 -4.2436,-1.0996 c -3.2397,-0.8396 -5.5196,-0.4486 -9.6383,1.6525 -2.9671,1.5137 -5.0381,3.3292 -4.6023,4.0344 1.4003,2.2658 8.8449,1.3701 13.7356,-1.6525 z m 37.5662,-9.2504 c 0,-0.565 -2.0779,-1.4172 -4.6175,-1.8936 -3.4937,-0.6554 -5.7651,-0.1569 -9.3333,2.0483 -2.5938,1.6031 -4.7159,3.1485 -4.7159,3.4344 0,0.2859 1.95,1.0546 4.3333,1.7083 3.4206,0.9382 5.3865,0.6136 9.3334,-1.5407 2.75,-1.5011 5,-3.1916 5,-3.7567 z m -20.2817,-2.111 6.1932,-3.6294 -4.1325,-1.1852 c -3.4072,-0.9772 -5.2129,-0.552 -10.2885,2.4225 -8.0729,4.731 -8.6744,6.0216 -2.8067,6.0216 2.8637,0 7.3711,-1.4826 11.0345,-3.6295 z m -69.7183,-10.5295 c 8.8,-5.2208 27.4037,-14.9975 41.3416,-21.726 l 25.3416,-12.2337 -10.0836,-20.9406 c -5.546,-11.5174 -12.9576,-27.9251 -16.4703,-36.4616 l -6.3867,-15.5208 -3.538,1.846 c -1.9459,1.0152 -4.3214,1.8496 -5.2789,1.8541 -1.6878,0.01 -79.0209,30.3793 -80.1584,31.481 -0.3113,0.3014 5.5067,12.9934 12.929,28.2043 7.4222,15.211 15.3636,32.4143 17.6475,38.2298 4.9687,12.6511 6.5377,15.7247 7.7464,15.1742 0.5004,-0.2279 8.1098,-4.6859 16.9098,-9.9067 z m 102.6688,5.8257 c 2.5473,-1.65 4.6389,-3.3715 4.648,-3.8256 0.01,-0.454 -2.1946,-1.1843 -4.897,-1.6229 -3.6701,-0.5956 -6.0565,-0.091 -9.4309,1.9946 -5.2973,3.2739 -4.1571,5.0562 4.0298,6.2992 0.5602,0.085 3.1028,-1.1953 5.6501,-2.8453 z m -16.9798,-5.2199 c 4.3593,-2.6942 4.5082,-3.005 2.2358,-4.6666 -3.285,-2.4021 -3.9785,-2.2929 -9.5703,1.5068 l -4.8372,3.287 3.2413,1.2952 c 1.7827,0.7123 3.4705,1.3331 3.7507,1.3796 0.2801,0.046 2.6109,-1.2144 5.1797,-2.802 z m 34.4952,-6.5607 c 5.0746,-3.1363 4.8817,-4.627 -0.7591,-5.866 -2.8302,-0.6216 -5.1629,-0.019 -8.6349,2.2308 -5.3381,3.4588 -5.8523,4.6093 -2.4569,5.4966 4.8174,1.259 7.4784,0.841 11.8509,-1.8614 z m -17.638,-3.7945 3.8796,-2.5576 -4.7176,-0.885 c -5.626,-1.0554 -14.8029,2.7509 -11.5691,4.7985 3.0579,1.9363 8.2786,1.3657 12.4071,-1.3559 z m 442.0609,-13.0023 c -0.9123,-2.7991 -3.4003,-9.6758 -5.529,-15.2814 -3.2755,-8.6255 -4.2706,-10.0874 -6.4742,-9.5112 -1.4322,0.3746 -2.6039,0.8809 -2.6039,1.1254 0,0.2444 2.0805,3.8981 4.6234,8.1194 2.5429,4.2213 5.9213,10.8729 7.5076,14.7814 3.2514,8.0109 5.015,8.5568 2.4761,0.7664 z m 18.6981,-4.0893 c -4.1029,-14.6245 -8.7427,-27.4807 -10.0689,-27.8995 -0.68,-0.2148 -1.9896,0.087 -2.9103,0.671 -1.2682,0.8042 -0.7263,2.8185 2.2363,8.3117 3.3973,6.2991 5.6622,11.4888 10.8739,24.9168 2.3852,6.1452 2.3099,2.7007 -0.131,-6 z m -13.9998,-11.2488 c -4.0651,-12.3907 -4.9182,-13.7743 -7.809,-12.665 -1.6374,0.6284 -0.8402,3.0196 4.2437,12.729 3.4429,6.5755 6.4718,11.745 6.7309,11.488 0.259,-0.2571 -1.1655,-5.4555 -3.1656,-11.552 z m -42.1202,3.0636 c -0.8215,-2.3563 -1.7269,-4.0509 -2.0121,-3.7657 -0.2852,0.2851 0.1536,2.4464 0.975,4.8027 0.8214,2.3564 1.7269,4.051 2.012,3.7658 0.2852,-0.2852 -0.1535,-2.4465 -0.9749,-4.8028 z m -6.5186,0.5185 c 0,-1.1 -0.5811,-2 -1.2915,-2 -0.7103,0 -0.9461,0.9 -0.524,2 0.4221,1.1 1.0033,2 1.2915,2 0.2882,0 0.524,-0.9 0.524,-2 z m 65.8907,-13.2455 c -1.7744,-7.5263 -2.9371,-10.0878 -4.5789,-10.0878 -3.8312,0 -3.7059,1.1654 1.2107,11.2553 2.6428,5.4239 5.0169,9.6498 5.2757,9.3909 0.2589,-0.2588 -0.5995,-5.0101 -1.9075,-10.5584 z m -263.9688,-0.4211 c -6.6362,-13.4627 -7.4886,-16.3309 -6.5633,-22.085 0.4937,-3.0699 1.8251,-7.0404 2.9585,-8.8232 1.9588,-3.081 1.8699,-3.3944 -1.7948,-6.3278 l -3.8556,-3.0862 -1.1697,15.4004 c -1.0269,13.5192 -0.8802,16.0426 1.2007,20.6573 2.0093,4.4557 8.5755,10.4987 11.4909,10.5753 0.4704,0.012 -0.5496,-2.8275 -2.2667,-6.3108 z m 279.3963,-1.3334 c -5.7308,-14.9628 -4.7798,-13.7156 -9.2657,-12.1518 -4.3839,1.5282 -4.6883,2.1048 -2.7191,5.1518 0.8616,1.3334 1.2993,1.4445 1.3129,0.3334 0.043,-3.5007 2.84,-1.3954 7.5289,5.6666 2.678,4.0334 5.0265,7.3334 5.2188,7.3334 0.1924,0 -0.7417,-2.85 -2.0758,-6.3334 z m -528.4812,-32.4859 c -5.2496,-14.3456 -13.7158,-33.1807 -14.9145,-33.1807 -1.7118,0 -23.1127,5.5707 -34.2558,8.9169 -9.1774,2.7559 -11.6667,4.0275 -11.6667,5.9599 0,3.3055 0.4933,3.2176 14.845,-2.6446 18.2762,-7.4652 24.1748,-9.1729 24.8357,-7.1903 0.2978,0.8936 1.6922,1.6247 3.0984,1.6247 1.9802,0 4.7181,4.5055 12.1378,19.9733 5.2695,10.9853 9.7876,19.7667 10.0402,19.5141 0.2526,-0.2526 -1.6015,-6.0906 -4.1201,-12.9733 z m -88.1703,-3.349 c 12.4493,-5.3401 16.0937,-7.4823 16.4225,-9.6533 0.3955,-2.6126 -0.4111,-2.4455 -12.6667,2.6237 -7.199,2.9777 -18.6722,8.043 -25.496,11.2562 -11.4224,5.3786 -12.292,6.0568 -10.9593,8.547 1.4187,2.6509 1.5997,2.6189 9.0735,-1.6028 4.1943,-2.3692 14.826,-7.396 23.626,-11.1708 z m 436.1212,-20.0268 c -9.3472,-2.8694 -24.8474,-12.4538 -26.6023,-16.4493 -0.8106,-1.8456 -3.432,-6.1245 -5.8252,-9.5087 -5.0643,-7.161 -8.3604,-15.7382 -8.3604,-21.7555 0,-2.3966 -1.4088,-6.1496 -3.2404,-8.6322 -3.4573,-4.6861 -3.2571,-8.1259 0.4729,-8.1259 1.6035,0 2.9881,-2.2447 4.664,-7.5611 3.1795,-10.0865 12.6158,-20.104 23.807,-25.2734 7.295,-3.3696 9.8256,-3.8322 20.9632,-3.8322 6.9667,0 14.6167,0.4977 17,1.106 l 4.3333,1.1059 0.01,-7.1059 c 0.01,-11.6177 7.085,-19.7726 17.1593,-19.7726 7.7786,0 15.7083,12.0529 12.219,18.5727 -1.7493,3.2686 -7.6268,5.0141 -10.59,3.1449 -3.089,-1.9485 -2.6053,-4.983 0.8731,-5.477 3.4299,-0.4872 3.6322,-1.296 1.1439,-4.574 -4.2759,-5.6328 -14.1439,0.1198 -14.1439,8.2453 0,2.8398 0.9228,3.8861 4.6006,5.216 6.2282,2.2521 10.3573,7.5186 18.3645,23.4231 6.452,12.8155 6.8011,14.0581 7.4113,26.3824 1.078,21.7732 -3.0341,31.4999 -17.3618,41.0676 -9.0831,6.0655 -26.5282,12.0425 -34.7501,11.9061 -3.0788,-0.051 -8.5433,-0.9971 -12.1433,-2.1022 z m 26.524,-11.6537 c 22.2505,-8.0765 27.9581,-17.2479 24.8117,-39.8695 -1.0885,-7.8258 -2.9929,-13.391 -7.9901,-23.3491 -3.6085,-7.1909 -7.599,-13.9358 -8.8677,-14.9887 -1.5954,-1.3241 -6.783,-2.0676 -16.8231,-2.4113 -12.6729,-0.4337 -15.5702,-0.1036 -22.8129,2.5995 -15.3134,5.7152 -27.0131,21.8389 -21.7146,29.9255 2.6297,4.0134 2.6623,7.1378 0.085,8.1268 -2.3004,0.8828 -2.6323,6.8638 -0.5448,9.8156 1.0834,1.5319 1.5749,1.6033 2.1001,0.3052 2.4376,-6.0252 17.4292,-7.3533 27.778,-2.4609 17.6765,8.3566 19.48,22.2661 4.0222,31.0221 -4.1509,2.3513 -4.6076,2.9825 -2.5413,3.512 6.0484,1.55 14.358,0.7274 22.4976,-2.2272 z m -11.282,-34.782 c -1.8472,-2.2257 -0.7381,-6.8122 1.8913,-7.8212 2.6712,-1.025 6.6569,2.3558 5.7041,4.8386 -1.3359,3.4814 -5.7447,5.2126 -7.5954,2.9826 z m -20.9506,-10.8838 c -1.1318,-2.9495 1.2227,-6.3907 4.7295,-6.9123 3.8822,-0.5774 5.128,3.1818 2.1463,6.4765 -2.8844,3.1872 -5.7503,3.3688 -6.8758,0.4358 z m -5.1988,34.6785 c 0.7493,-1.9525 -2.3148,-5.6711 -4.7694,-5.7882 -1.9411,-0.092 -1.981,3.4234 -0.064,5.6243 2.5302,2.9044 3.7655,2.9463 4.8332,0.1639 z m 15.945,-1.6378 c 3.1215,-3.4491 1.6753,-6.0506 -6.2835,-11.3034 -9.8969,-6.5319 -11.9285,-6.9096 -16.4114,-3.0512 -4.1927,3.6086 -3.6549,5.9165 0.8205,3.5213 5.6947,-3.0477 17.3823,4.5188 17.3823,11.2532 0,2.756 1.7675,2.5908 4.4921,-0.4199 z m -325.0466,2.2514 c -0.3058,-0.9777 -0.9215,-6.2775 -1.3684,-11.7775 -0.4468,-5.5 -2.6398,-19 -4.8732,-30 -4.5233,-22.278 -7.1702,-43.5143 -8.6124,-69.0979 -0.9309,-16.5133 -1.06,-17.0738 -3.7777,-16.3944 -1.5476,0.3869 -7.3138,1.3696 -12.8138,2.1837 -21.108,3.1247 -83.6421,15.1728 -84.809,16.3397 -0.2922,0.2922 0.6581,3.9882 2.1117,8.2134 4.023,11.6931 6.3365,24.5885 8.7467,48.7555 1.2068,12.1 3.3328,27.9851 4.7244,35.3003 2.0122,10.5773 2.192,13.6384 0.8782,14.9518 -1.0162,1.0158 -2.3672,1.2093 -3.5102,0.5026 -2.2293,-1.3783 -5.9886,-22.2089 -8.0767,-44.7547 -2.1164,-22.8505 -5.0516,-40.8821 -8.8654,-54.462 -2.4193,-8.6142 -2.9248,-12.2627 -1.8745,-13.5283 2.7054,-3.2598 45.0466,-13.6055 73.3414,-17.9203 4.7667,-0.7269 13.9426,-2.2197 20.391,-3.3173 14.0994,-2.3999 19.0389,-1.3279 17.7394,3.8499 -0.4485,1.7867 0.4063,14.2277 1.8995,27.6466 3.1189,28.0282 4.185,34.8402 8.6177,55.0647 4.4495,20.3013 6.4415,37.549 5.0704,43.902 -1.1396,5.2801 -3.9112,7.829 -4.9391,4.5422 z m -83.8069,-7.9 c -3.689,-2.1477 -1.7158,-3.3523 4.5172,-2.7579 5.2044,0.4964 5.4748,0.6987 3.1781,2.3781 -2.9591,2.1638 -4.5003,2.2399 -7.6953,0.3798 z m -6.3053,-11.601 c 0,-1.1871 10.6093,-4.2765 14.6858,-4.2765 4.0465,0 3.1525,2.2297 -1.5514,3.8695 -4.8675,1.6968 -13.1344,1.953 -13.1344,0.407 z m 40.6667,-6.1738 c -11.7495,-5.2662 -15.6159,-16.1445 -10.0755,-28.3477 2.7438,-6.0434 6.0501,-8.2732 17.1354,-11.5561 11.0226,-3.2643 15.6737,-1.1651 21.235,9.5842 7.3449,14.1967 5.3913,22.8103 -6.5198,28.7458 -7.7171,3.8456 -15.4583,4.4051 -21.7751,1.5738 z m 15.5479,-5.5471 4.0823,-2.111 -6.4739,-4.2361 c -6.1987,-4.056 -6.5396,-4.6038 -8.0218,-12.8879 -0.8513,-4.7585 -1.2695,-9.1023 -0.9292,-9.6529 1.6716,-2.7047 -4.2166,-0.5282 -7.527,2.7821 -4.8713,4.8713 -6.5151,14.0866 -3.5393,19.8411 3.8272,7.4011 14.4621,10.3742 22.4089,6.2647 z m 9.9879,-9.2693 c 0.8933,-2.3278 -3.7781,-15.5893 -5.7193,-16.2364 -0.7011,-0.2337 -2.4467,2.7177 -3.879,6.5586 -1.4323,3.8409 -2.7621,7.324 -2.9551,7.7402 -0.3476,0.7495 6.7698,3.4361 10.0594,3.7971 0.9397,0.1031 2.062,-0.7337 2.494,-1.8595 z m -9.5504,-19.3099 c -1.2435,-2.012 -7.3188,-1.5773 -7.3188,0.5236 0,1.0083 0.3795,3.7306 0.8433,6.0496 l 0.8432,4.2163 3.2209,-4.7399 c 1.7715,-2.607 2.8566,-5.3293 2.4114,-6.0496 z m -57.9854,30.8544 c 0,-1.5264 12.3578,-6.8308 15.9138,-6.8308 5.3467,0 2.6614,3.5418 -4.3644,5.7565 -7.9103,2.4935 -11.5494,2.832 -11.5494,1.0743 z m 0,-9.3154 c 0,-1.6629 15.7554,-8.4906 17.337,-7.5132 3.1246,1.9312 0.8058,4.1506 -6.6145,6.3311 -8.9613,2.6333 -10.7225,2.8275 -10.7225,1.1821 z m -0.6022,-9.4112 c -0.4456,-0.7209 2.3165,-2.2393 6.138,-3.3742 7.8211,-2.3226 11.7975,-2.6232 11.7975,-0.8918 0,2.6518 -16.5067,6.578 -17.9355,4.266 z m -2.0645,-7.9595 c 0,-1.4665 8.5018,-4.9511 15.0998,-6.1889 3.8632,-0.7248 4.9002,-0.4989 4.9002,1.067 0,1.3311 -2.8392,2.6995 -8.6074,4.1484 -9.8955,2.4857 -11.3926,2.6136 -11.3926,0.9735 z m -2.0548,-17.5668 c -0.4834,-0.7821 -0.6069,-1.694 -0.2745,-2.0265 0.808,-0.8079 31.2599,-7.6373 50.1366,-11.244 10.9653,-2.095 15.5431,-2.4904 16.6,-1.4335 0.9179,0.9179 0.9894,1.9035 0.1927,2.6563 -1.3051,1.2333 -58.7766,13.4698 -63.2637,13.4698 -1.3817,0 -2.9078,-0.64 -3.3911,-1.4221 z m -0.6119,-7.9113 c 0,-1.5086 -0.8889,-2.6666 -2.0469,-2.6666 -1.6385,0 -1.7601,-0.5359 -0.6097,-2.6854 1.2861,-2.4032 0.9355,-8.3525 -0.883,-14.9813 -0.352,-1.2833 -0.027,-2.3333 0.7227,-2.3333 0.7495,0 1.7687,2.25 2.265,5 1.318,7.3044 1.6637,7.4708 6.5707,3.1624 7.0927,-6.2275 9.6353,-6.4761 13.9067,-1.3596 l 3.6706,4.3968 7.202,-6.6406 c 14.4404,-13.3148 18.5951,-16.5591 21.2058,-16.5591 1.7739,0 2.6628,0.8902 2.6628,2.6667 0,3.0646 0.4952,3.209 4.2018,1.2253 3.7225,-1.9922 4.7238,-0.458 1.8056,2.7665 -2.855,3.1548 -7.1059,3.5049 -8.1919,0.6749 -0.4221,-1.1 -1.1533,-1.9912 -1.6248,-1.9804 -0.4716,0.011 -6.2574,4.802 -12.8574,10.6471 -13.4255,11.8899 -16.7996,12.9942 -20.3953,6.675 -1.2493,-2.1953 -2.6031,-3.9953 -3.0087,-4 -1.631,-0.019 -11.9389,8.3277 -12.0706,9.7736 -0.078,0.8533 -0.032,3.2014 0.1005,5.218 0.133,2.0167 -0.4034,3.6667 -1.192,3.6667 -0.7887,0 -1.4339,-1.2 -1.4339,-2.6667 z m 153.4301,-14.1798 c -1.5456,-1.965 -2.8179,-5.6372 -2.8871,-8.3333 -0.2247,-8.7592 0.3135,-16.1663 1.4667,-20.1874 1.316,-4.5887 0.9292,-4.8395 -2.518,-1.6328 -3.5103,3.2653 -8.5612,7.0039 -9.4295,6.9796 -1.8869,-0.053 -3.8265,-2.4966 -6.6196,-8.3403 -2.9383,-6.1473 -2.9993,-10.306 -0.1511,-10.306 0.7564,0 1.3752,-2.0789 1.3752,-4.6197 0,-3.2552 0.7877,-5.0414 2.6667,-6.047 1.6953,-0.9073 2.6666,-2.7917 2.6666,-5.1736 0,-2.0605 1.1402,-4.7782 2.5338,-6.0394 3.1752,-2.8736 4.5095,-7.4536 2.1713,-7.4536 -0.9415,0 -2.4588,0.9 -3.3717,2 -2.2147,2.6684 -9.9287,2.5475 -12.675,-0.1988 -1.3189,-1.3189 -1.8979,-3.3197 -1.4468,-5 0.4136,-1.5407 0.7602,-4.1661 0.7702,-5.8342 0.012,-1.9989 1.1548,-3.4651 3.3516,-4.3004 2.0348,-0.7736 3.3333,-2.3148 3.3333,-3.9565 0,-1.8 1.6531,-3.4675 5,-5.0435 3.8104,-1.7942 5,-3.1448 5,-5.6771 0,-2.9593 -0.5835,-3.3415 -5.3333,-3.4936 -2.9334,-0.094 -6.0834,-0.2439 -7,-0.3333 -2.4379,-0.2379 -2.0493,-8.0608 0.6687,-13.4618 2.4011,-4.7713 7.6138,-7.1306 14.9979,-6.7883 6.6353,0.3077 13.7587,0.1066 14.2681,-0.4028 1.3335,-1.3335 -5.7116,-12.727 -9.1115,-14.7354 -4.5389,-2.6812 -4.657,-3.8839 -1.1574,-11.7952 2.7604,-6.2403 6.1035,-8.7431 8.4905,-6.3562 0.7573,0.7574 2.4141,1.3771 3.6818,1.3771 1.2676,0 3.1994,0.8946 4.2928,1.9881 1.3411,1.3411 3.3248,1.7207 6.0952,1.1666 4.4799,-0.8959 5.0282,-2.4938 2.1564,-6.2843 -2.4752,-3.2669 -1.4129,-5.5555 4.1842,-9.0147 4.0337,-2.4929 5.055,-2.6403 7.8677,-1.135 1.7777,0.9515 3.2322,2.2074 3.2322,2.791 0,0.5836 1.182,1.6937 2.6266,2.4668 2.2858,1.2234 2.9753,0.7223 5.3143,-3.8626 3.3601,-6.5864 4.2439,-7.1189 10.0172,-6.0358 3.3666,0.6316 5.45,2.1381 7.4647,5.398 1.5371,2.487 3.3224,4.5219 3.9674,4.5219 0.645,0 4.6033,-2.7943 8.7963,-6.2095 4.193,-3.4153 8.8664,-6.4131 10.3853,-6.662 1.5188,-0.2488 5.7616,-0.9895 9.4282,-1.6461 9.9542,-1.7823 16.9329,-0.2429 19.0651,4.2056 3.4464,7.1908 -4.4643,14.2284 -16.0651,14.2919 -2.0166,0.011 -3.6666,0.5783 -3.6666,1.2607 0,2.0926 5.8243,2.2844 9.0257,0.2972 2.3032,-1.4297 6.5708,-1.7322 17.872,-1.2665 13.6544,0.5625 15.0528,0.8666 17.4176,3.787 2.8296,3.4944 2.4675,8.8641 -0.9491,14.0786 -1.7651,2.6938 -2.808,2.9039 -12.314,2.4802 -8.433,-0.3759 -9.9133,-0.164 -7.8736,1.1267 1.3815,0.8742 4.1323,2.9093 6.1127,4.5224 2.2453,1.8288 4.645,2.6598 6.3748,2.2074 1.9853,-0.5192 3.4073,0.2411 5.0014,2.6739 1.9192,2.9291 2.5923,3.1771 4.8667,1.7925 2.236,-1.3611 3.0155,-1.1482 5.0997,1.3933 1.3531,1.65 3.564,3.0092 4.9131,3.0204 3.7494,0.031 5.176,1.452 8.064,8.0311 2.9198,6.6517 2.1973,11.466 -1.9123,12.7421 -1.301,0.4039 -3.4073,1.2906 -4.6806,1.9704 -1.2734,0.6798 -3.3734,1.2452 -4.6667,1.2564 -5.2523,0.046 -6.2286,1.9419 -4.3867,8.5205 1.6475,5.884 1.9124,6.1258 6.712,6.1258 9.5864,0 10.1141,8.3137 0.6404,10.091 -2.5578,0.4798 -4.6505,1.5952 -4.6505,2.4787 0,1.7765 8.8895,10.0969 10.7875,10.0969 0.6584,0 3.9005,2.6653 7.2048,5.9227 4.8498,4.7812 6.0077,6.8225 6.0077,10.5911 0,3.0103 -0.8703,5.2872 -2.4505,6.4106 -1.3479,0.9583 -2.8222,4.0667 -3.2764,6.9077 -1.3231,8.2761 -4.3044,10.5983 -12.5235,9.7545 -6.7264,-0.6905 -6.9399,-0.6065 -7.7422,3.0468 -2.0957,9.5415 -12.392,10.897 -17.9017,2.3567 -3.0529,-4.7324 -3.3856,-4.8966 -6.0022,-2.9622 -16.4521,12.1623 -25.6917,15.7185 -40.7701,15.6921 -10.5573,-0.018 -20.1927,-2.2964 -32.3334,-7.6441 -1.6685,-0.735 -2.3333,-0.4307 -2.3333,1.0679 0,2.8527 -4.1529,4.8563 -10.0659,4.8563 -3.9294,0 -5.782,-0.9544 -9.2928,-4.7874 -4.1685,-4.5509 -4.4296,-4.6468 -5.2878,-1.943 -1.2145,3.8267 -12.7373,14.7304 -15.5668,14.7304 -1.2429,0 -3.5034,-1.581 -5.0233,-3.5132 z m 93.7817,-19.2226 c 7.9683,-2.9813 19.2286,-11.1445 25.8843,-18.7649 5.6764,-6.4993 11.9753,-20.4841 12.4873,-27.7245 0.4058,-5.7393 0.2958,-5.9219 -4.25,-7.0574 -8.1637,-2.039 -8.4588,-2.2248 -6.7694,-4.2604 0.8421,-1.0146 3.6097,-2.2347 6.1502,-2.7113 2.5405,-0.4766 4.6192,-1.4257 4.6192,-2.1091 0,-0.6833 -1.4799,-5.1742 -3.2887,-9.9796 -4.0945,-10.878 -10.5645,-20.6966 -19.2652,-29.2361 -6.2837,-6.1672 -6.9079,-6.4695 -9.972,-4.8296 -4.2476,2.2732 -9.5432,0.8935 -12.2137,-3.1821 -2.0971,-3.2006 -2.1334,-3.2051 -8.0911,-0.9971 -5.4867,2.0336 -6.2914,2.0419 -9.675,0.1 -3.5499,-2.0373 -3.8527,-1.9732 -7.9468,1.685 -5.2648,4.7041 -11.1468,5.0131 -15.2818,0.8029 -2.7766,-2.8272 -3.1906,-2.8848 -7.1878,-1 -4.7911,2.2592 -7.2507,6.3554 -5.6043,9.3334 0.6082,1.1 2.6301,7.7984 4.4933,14.8854 3.5711,13.5837 3.306,17.358 -1.5997,22.7788 -3.2155,3.553 -14.4504,3.2508 -16.4267,-0.442 -1.8989,-3.5482 0.2591,-13.4033 5.3772,-24.5556 3.9688,-8.6479 5.617,-14.0667 4.2241,-13.8871 -0.4813,0.062 -2.8077,2.3656 -5.1696,5.119 -10.8652,12.6659 -11.263,41.7007 -0.8724,63.6646 6.4812,13.7001 24.0225,27.8849 41.0963,33.2326 8.4022,2.6317 20.9258,2.2618 29.2823,-0.8648 z m -25.8643,-9.2109 c -4.6307,-1.5984 -8.9535,-4.3097 -11.7685,-7.3814 -4.1001,-4.474 -4.2991,-5.0834 -2.5359,-7.7635 1.0523,-1.5997 4.1898,-3.673 6.9722,-4.6075 7.3947,-2.4834 21.8786,-2.4523 26.6735,0.057 4.3447,2.2741 9.9808,7.1872 9.9729,8.6936 -0.016,2.9865 -6.0441,10.0499 -9.9814,11.695 -6.0444,2.5255 -10.466,2.3669 -19.3328,-0.6936 z m 16.638,-7.2112 c 2.4162,-1.7668 2.406,-1.8722 -0.3242,-3.3333 -3.3045,-1.7685 -21.6613,-2.0543 -21.6613,-0.3373 0,0.6444 1.65,1.8107 3.6667,2.5919 8.2479,3.1949 14.8899,3.586 18.3188,1.0787 z m -26.5569,-48.2707 c -2.4358,-2.4358 -2.651,-5.0417 -0.715,-8.6591 3.5194,-6.5761 11.2162,0.7918 8.061,7.7165 -1.6147,3.544 -4.3886,3.8999 -7.346,0.9426 z m 22.6667,-1.3334 c -2.4075,-2.4075 -2.65,-5.6054 -0.7949,-10.4846 1.5992,-4.2063 4.5356,-4.3903 7.2907,-0.4568 5.2643,7.5159 -0.3928,17.0445 -6.4958,10.9414 z m -47.6896,-4.7368 c 0.2231,-1.9243 -0.4398,-5.5243 -1.4731,-8 l -1.8788,-4.5013 -1.5195,5.3334 c -2.4482,8.5936 -2.052,11.5923 1.4657,11.0927 2.1065,-0.2991 3.1209,-1.4682 3.4057,-3.9248 z m -112.6733,37.1654 c -3.9535,-4.3406 -5.3484,-7.5278 -6.4188,-14.6667 -0.5223,-3.4833 -1.4996,-6.3333 -2.1718,-6.3333 -0.6722,0 -4.786,1.5 -9.1418,3.3333 -9.1769,3.8626 -16.6502,4.3701 -17.8617,1.2131 -0.4474,-1.1662 -0.491,-2.6424 -0.097,-3.2804 0.3944,-0.638 -1.1009,-4.7612 -3.3228,-9.1627 -4.9272,-9.7607 -10.435,-23.4689 -18.1862,-45.2631 -7.3682,-20.7173 -7.8346,-29.0828 -2.0611,-36.9735 2.0926,-2.86 4.9426,-6.2071 6.3333,-7.438 4.2224,-3.7373 15.1714,-7.8004 23.3129,-8.6514 6.6888,-0.6991 8.4548,-0.3607 13.4574,2.5787 6.4431,3.7858 9.7735,7.8158 15.0283,18.1857 l 3.5866,7.078 2.991,-2.8099 c 6.9288,-6.5093 16.647,-0.7986 19.2434,11.308 1.7513,8.166 4.3641,33.2415 4.5065,43.2505 0.1555,10.9187 -0.8804,13.0004 -7.3447,14.761 -20.4178,5.5608 -19.8877,4.9757 -15.5862,17.204 2.9695,8.4416 3.3649,14.7685 1.0667,17.0667 -2.3408,2.3408 -4.261,1.9743 -7.3343,-1.4 z m 11.5671,-43.2036 c 9.3822,-2.6085 8.8073,0.068 6.1445,-28.6018 -0.9947,-10.7096 -2.4976,-20.7596 -3.3398,-22.3333 -3.0754,-5.7464 -8.1042,-2.4213 -8.1042,5.3585 0,5.1317 -2.7763,8.0965 -6.3754,6.8082 -0.9398,-0.3364 -4.6316,-6.7053 -8.2041,-14.1531 -8.2481,-17.1954 -11.0473,-19.9434 -20.1076,-19.7393 -14.2163,0.3203 -26.3371,10.3924 -24.7336,20.553 0.6521,4.1319 17.5186,56.2945 22.0921,68.3237 l 1.2917,3.3976 16.6513,-8.6899 c 9.1582,-4.7795 20.2665,-9.6951 24.6851,-10.9236 z" fill="#00B894" transform="translate(-53.89651,57.236175) matrix(0.41208446,0,0,0.41208446,-363.06971,-1152.8837)"/>
</svg>