<?xml version="1.0" ?><svg height="133.27051mm" viewBox="0 0 227.95729 133.27051" width="227.95729mm" xmlns="http://www.w3.org/2000/svg">
    <path d="m 2795.7365,2609.7231 c -0.6824,0.05 -1.5913,0.447 -2.4831,0.9875 -2.8535,1.7295 -136.3969,78.1937 -140.5024,82.2554 -4.1056,4.0617 -3.5234,6.7871 -0.3788,12.4473 4.5714,3.0922 9.9579,4.9787 16.7132,0.7074 6.7554,-4.2714 22.0318,-13.1416 27.8844,-19.1687 5.8526,-6.0271 23.1576,-16.3529 23.1576,-16.3529 l 5.6966,5.3822 -38.3537,42.38 -0.4077,10.482 146.3548,9.4809 41.501,-58.6754 -2.6494,-9.8004 -112.8588,-10.7672 c 1.2215,-1.0329 2.37,-2.0362 3.3693,-2.9699 9.172,-8.5689 26.8057,-31.6173 31.5809,-39.5049 3.2831,-5.4228 2.8774,-6.9932 1.3761,-6.8833 z" fill="#FFFFFF" paint-order="markers stroke fill" transform="translate(-120.09763,-17.682526) translate(-2527.725,-2589.4614)"/>
    <path d="m 2797.6839,2607.1496 c -1.4214,-0.1245 -5.6938,1.8018 -12.3716,5.5749 -5.6106,3.1703 -13.2048,7.2389 -16.8761,9.041 -3.6716,1.8018 -10.6556,5.647 -15.5205,8.5454 -4.865,2.8982 -17.7242,10.2279 -28.5752,16.2875 -40.7062,22.7308 -46.0759,25.8429 -58.7452,34.0532 -7.1402,4.6274 -14.0035,9.7001 -15.2521,11.2721 -4.7367,5.964 -2.5188,15.1084 4.3226,17.8231 1.2137,0.4815 4.2078,1.08 6.6534,1.3302 3.6168,0.3699 5.5864,0 10.554,-1.9505 5.288,-2.0822 8.4273,-4.3288 23.3862,-16.7422 9.503,-7.8859 17.6109,-14.324 18.0176,-14.3069 0.4068,0.024 2.0667,-0.9168 3.6887,-2.0762 1.6218,-1.1594 3.199,-2.0866 3.5054,-2.0598 0.3064,0.026 1.7189,1.9569 3.1384,4.2899 2.6966,4.4317 6.3105,7.392 7.9906,6.5449 4.169,-2.1021 25.86,-19.2268 32.3872,-25.5696 16.0605,-15.6067 33.0339,-39.1884 35.2086,-48.9174 0.6237,-2.7899 0.541,-2.9615 -1.512,-3.1396 z m -3.8053,6.0599 c 0.6497,0.056 -4.312,8.0113 -8.8786,14.2347 -4.3715,5.9569 -16.3782,19.4214 -23.1987,26.0137 -2.6557,2.5671 -10.3058,9.0022 -16.9997,14.301 -6.6938,5.2989 -12.5668,9.596 -13.0511,9.548 -0.4845,-0.047 -2.4285,-2.193 -4.3194,-4.7681 -1.8911,-2.5751 -3.8867,-4.7217 -4.4359,-4.7694 -0.5491,-0.047 -2.4595,0.8178 -4.2448,1.9224 l -3.2467,2.0088 -2.9763,-4.7402 c -1.6373,-2.6073 -2.8152,-4.9585 -2.6174,-5.224 0.1974,-0.2658 6.8849,-4.1678 14.8596,-8.6714 7.9746,-4.5034 20.1951,-11.6817 27.1563,-15.9517 6.9613,-4.2698 16.0478,-9.5605 20.1931,-11.7583 4.145,-2.1977 10.628,-5.8394 14.4069,-8.0919 3.779,-2.2525 7.0872,-4.0767 7.3527,-4.0536 z m -88.8998,51.3995 c 0.505,0.045 4.0228,6.8646 4.8824,9.4663 0.1245,0.3788 -0.6046,1.1692 -1.6205,1.7569 -4.7275,2.7347 -14.8606,9.9304 -23.603,16.7596 -5.3716,4.196 -11.7703,8.4242 -14.5259,9.5993 -3.9488,1.6841 -5.8457,2.017 -9.569,1.6742 -5.4054,-0.4974 -6.8977,-1.3575 -8.3111,-4.7893 -1.0123,-2.4579 -0.9778,-2.5462 1.8746,-4.7903 5.9586,-4.6878 49.0672,-29.8334 50.8725,-29.6767 z m 67.6247,-5.5262 c -4.3144,-0.1448 -6.2825,3.2423 -3.2993,3.5068 26.2895,2.3312 64.7895,5.8018 81.3093,7.8388 13.2413,1.6327 18.7484,2.5829 18.6928,3.227 -0.045,0.5019 -1.5429,2.726 -3.332,4.9418 -1.7894,2.2158 -5.8456,7.9707 -9.014,12.7877 -3.1685,4.8171 -9.9241,14.8675 -15.0123,22.3347 -5.0882,7.4669 -9.3638,13.8343 -9.5013,14.1494 -0.1363,0.3149 -20.6005,-1.0264 -45.4748,-2.9812 -46.5947,-3.6614 -54.9378,-3.8024 -80.8626,-4.0021 -8.2151,-0.064 -15.5048,0.049 -16.1989,0.2484 -0.6944,0.1997 -1.2337,0.033 -1.1987,-0.3732 0.092,-1.0628 16.6446,-19.0862 29.4873,-33.2955 1.8064,-1.9986 -2.1138,-2.7054 -4.3127,-0.6959 -9.9591,9.1011 -16.1608,15.6434 -23.2823,24.5822 -5.4263,6.8024 -6.0213,5.0132 -5.3885,12.866 0.4093,5.0717 0.6248,5.5894 2.5321,6.0995 43.2,2.8975 86.7294,6.3205 129.9972,8.1747 7.0052,0.2838 13.0507,0.8301 13.4347,1.2146 1.4296,1.4317 2.675,0.7714 5.1133,-2.7117 1.3772,-1.9674 5.9501,-7.9509 10.1623,-13.2971 4.2122,-5.3463 11.6119,-16.0283 16.4438,-23.737 4.8318,-7.7089 9.4748,-14.8553 10.3162,-15.8808 0.8415,-1.0254 1.8547,-2.6606 2.2523,-3.6337 0.8774,-2.1479 -0.228,-9.4867 -1.639,-10.8806 -2.902,-2.8667 -64.8719,-9.2624 -101.2249,-10.4828 z m -79.129,16.0849 c -0.3689,0.035 -0.758,0.1316 -1.161,0.3043 -2.0124,0.8621 -2.9213,2.913 -1.9271,4.3473 1.13,1.6301 3.2742,1.6512 4.999,0.049 2.2231,-2.0657 0.672,-4.9402 -1.9109,-4.7008 z m 127.9481,-4.2168 c -2.341,0.023 -3.6251,1.1809 -4.5312,2.3325 -1.8612,2.3655 -1.0687,3.1201 1.505,1.4341 1.9511,-1.2783 2.207,-1.2677 4.6702,0.1809 1.8251,1.0734 2.5587,2.0655 2.4506,3.3123 -0.1363,1.572 -0.4025,1.6817 -2.2781,0.9361 -1.1678,-0.4643 -2.6395,-1.1032 -3.2711,-1.4188 -0.6316,-0.3158 -1.6898,-0.2925 -2.3503,0.052 -1.0106,0.5261 -1.0496,0.8445 -0.246,2.0039 0.7176,1.0353 2.0624,1.4155 5.4071,1.5283 4.8265,-0.01 4.2075,1.5858 4.9441,-2.7161 0.4983,-3.619 -3.795,-7.564 -6.3003,-7.6452 z m -34.2465,0.5617 c -1.7087,0 -3.6969,0.3093 -5.47,0.9383 -1.8827,0.668 -2.1263,1.1892 -2.4844,5.3138 -0.2691,3.101 -0.031,5.0099 0.7415,5.9282 1.4179,1.6874 9.6663,1.7431 11.2548,0.075 1.4681,-1.5407 1.2879,-9.8239 -0.246,-11.3012 -1.237,-0.7663 -2.6668,-0.9447 -3.7959,-0.9541 z m -0.7322,2.8136 c 2.6038,0.2256 2.6379,0.282 2.3329,3.797 -0.2756,3.1738 -0.5064,3.55 -2.0927,3.4053 -1.3213,-0.1198 -2.0521,-0.9982 -2.8202,-3.3879 -0.5701,-1.7741 -0.8166,-3.41 -0.5489,-3.6349 1.0508,-0.6801 1.9395,-0.2841 3.1289,-0.1795 z m 20.1463,2.3999 c -0.4368,0.023 -0.8473,0.054 -1.2193,0.1245 -2.6599,0.5022 -6.9337,4.8657 -6.5077,6.6438 0.1316,0.5461 2.9861,2.233 6.3444,3.7481 3.3581,1.5151 6.5061,2.804 6.996,2.8656 2.7225,0.3414 5.4799,-8.655 3.3099,-10.7989 -1.5062,-1.4879 -5.8641,-2.6839 -8.9233,-2.5834 z m -25.5324,0.3846 c 0.1175,0.024 0.2953,0.3584 0.6074,1.0201 0.3846,0.8161 0.5219,2.0861 0.3055,2.8225 -0.3591,1.2226 -0.4317,1.2085 -0.8382,-0.1645 -0.2449,-0.8259 -0.383,-2.096 -0.3067,-2.8223 -0.016,-0.2978 0.1627,-0.7244 0.232,-0.8558 z m -10.5994,1.7102 c -1.9971,-0.1782 -4.0834,0.3701 -7.2223,1.5668 -3.2044,1.2219 -3.5533,1.6153 -3.7796,4.2496 -0.1363,1.5964 0.3828,4.176 1.1554,5.7323 1.8607,4.2918 2.2462,2.833 7.0766,2.8534 7.5752,0.023 8.0352,-0.6998 7.6405,-6.7105 -0.1157,-1.7624 -2.2727,-7.4598 -4.8706,-7.6916 z m 36.9676,0.1901 c 1.3937,0.1057 2.2603,1.2245 3.3518,3.9171 0.9128,2.2515 1.0028,3.1623 0.3007,3.0474 -1.0153,-0.1668 -8.465,-3.1755 -8.9999,-3.636 -0.5475,-0.4716 2.081,-2.6574 3.7505,-3.1187 0.6093,-0.1691 1.1326,-0.2453 1.5969,-0.2091 z m 63.5975,0.4418 c 0.2021,0.2396 -0.045,0.8583 -0.5456,1.3746 -0.502,0.5162 -5.4038,8.098 -10.8934,16.8484 -5.4895,8.7501 -11.9054,18.4662 -14.2568,21.5907 -2.3514,3.1242 -5.5791,7.7871 -7.172,10.3615 -1.5929,2.5747 -3.0274,4.6693 -3.1884,4.6552 -0.1621,-0.024 -0.3903,-0.9841 -0.5106,-2.1566 -0.1715,-1.6797 2.0366,-5.2591 10.414,-16.8705 5.8486,-8.1063 12.4197,-17.4598 14.602,-20.7852 5.1615,-7.8661 11.0865,-15.5703 11.5508,-15.0181 z m -58.5412,1.1286 c 0.4617,0.04 0.8085,0.4302 0.7705,0.8661 -0.038,0.4361 -0.2256,0.7792 -0.4185,0.7625 -0.1927,-0.024 -0.5388,-0.4068 -0.7705,-0.8661 -0.2326,-0.4597 -0.042,-0.8027 0.4185,-0.7625 z m -44.1411,2.1883 c 1.9208,0.082 2.9138,1.322 3.3377,4.0557 0.4765,3.0733 -1.1871,2.6973 -4.0884,-0.9267 l -2.2885,-2.8585 2.1578,-0.2357 c 0.3133,-0.033 0.607,-0.047 0.8814,-0.035 z m -104.6647,11.1873 c -1.9176,0.2279 -3.6656,2.6637 -2.8855,4.4848 0.8661,2.0213 3.1355,2.1432 5.1448,0.2763 1.9008,-1.7658 1.1956,-4.087 -1.434,-4.7169 -0.274,-0.066 -0.5513,-0.078 -0.8253,-0.045 z m 98.8707,-7.8591 c 0.2944,0.024 0.719,0.1316 1.2778,0.3161 3.0176,0.9949 3.9561,2.151 2.4003,2.9553 -1.6569,0.8565 -2.1165,0.7808 -2.925,-0.4756 -1.3488,-2.0965 -1.6367,-2.8571 -0.7531,-2.7958 z m 31.1049,1.7779 c -1.6514,0.035 -3.5632,0.5837 -6.4645,1.6601 -4.1772,1.5501 -5.1906,2.2699 -5.3217,3.782 -0.1951,2.2435 3.128,6.2492 6.2229,7.5019 1.2291,0.4976 3.8456,0.9768 5.8152,1.0656 3.485,0.1574 3.6483,0.054 6.1075,-3.9089 2.9549,-4.7602 2.6586,-6.5314 -1.457,-8.6866 -1.8592,-0.9733 -3.2507,-1.4498 -4.9024,-1.4141 z m 1.659,3.465 c 0.301,0 0.6487,0.101 1.0841,0.2481 2.9977,1.0179 3.2364,1.7903 1.4771,4.7823 -1.2689,2.158 -2.0943,2.7311 -3.7293,2.5892 -2.9577,-0.2569 -3.0686,-0.6598 -1.2767,-4.5642 1.0715,-2.3343 1.5415,-3.0787 2.4448,-3.0554 z m -5.21,0.1856 c 0.1598,0 0.2768,0.024 0.3382,0.092 0.1926,0.2303 -0.2045,1.4719 -0.8838,2.7608 -1.0012,1.9017 -1.4792,2.1773 -2.5356,1.4594 -0.716,-0.4864 -1.2731,-1.216 -1.2381,-1.6204 0.068,-0.7864 3.2079,-2.6324 4.3193,-2.6919 z m -36.1518,2.7013 c -3.6377,1.5257 -8.6138,5.7952 -8.7635,7.5195 -0.1692,1.9367 1.6362,5.4409 5.2473,7.8224 3.0549,1.7941 4.3648,1.6219 6.5389,0.4886 5.7691,-3.0072 6.65,-3.4626 8.5025,-5.5025 2.7612,-3.0404 0.2881,-7.4641 -5.4315,-9.7171 -2.1499,-0.864 -4.1438,-1.4167 -6.0937,-0.6109 z m 2.7157,2.2779 c 0.7839,0.068 4.5787,2.8787 5.3091,3.9323 0.719,1.0372 0.371,1.5723 -1.9983,3.0742 -1.5779,1.0003 -3.1922,1.791 -3.5872,1.757 -0.3947,-0.035 -0.5475,-2.0246 -0.3393,-4.4233 0.2092,-2.3984 0.485,-4.3515 0.6157,-4.3402 z m -3.1231,0.9267 -0.2484,2.9088 c -0.1363,1.6 -0.5148,3.4544 -0.8393,4.121 -0.7061,1.4508 -1.3902,1.4729 -2.558,0.082 -1.2376,-1.4731 -0.9573,-2.397 1.4888,-4.9035 z m 21.2817,5.2219 c -4.6469,4.1627 -4.9104,6.6962 -0.95,9.1235 3.066,1.8794 10.9253,2.839 12.4893,1.525 1.1998,-1.0083 2.0652,-9.1084 1.1598,-10.8574 -0.3376,-0.6523 -2.4952,-1.6237 -4.7938,-2.1578 -5.3416,-1.3592 -3.8144,-1.298 -7.9053,2.3667 z m 5.3591,-0.8254 c 0.419,-0.1058 1.3166,0.2161 2.8085,0.9361 1.5856,0.7656 1.9211,1.4797 1.7301,3.6805 -0.1292,1.5012 -0.5019,3.2748 -0.8266,3.9415 -0.3245,0.6668 -1.4099,1.142 -2.4121,1.055 -1.6563,-0.1433 -1.7611,-0.433 -1.1472,-3.1802 0.3715,-1.662 0.333,-3.8223 -0.087,-4.8008 -0.4246,-0.9914 -0.4852,-1.5259 -0.066,-1.6321 z m 24.6663,0.08 c -0.8934,0.047 -1.9479,0.4768 -3.8938,1.3267 -8.0097,3.4988 -8.5435,5.6294 -2.3782,9.4898 1.8328,1.1477 3.8276,2.1299 4.4324,2.1823 1.2935,0.1128 5.1516,-3.2133 6.968,-6.0051 1.6996,-2.612 1.0793,-4.3069 -2.2081,-6.0284 -1.2956,-0.6783 -2.0269,-1.0125 -2.9203,-0.9653 z m -27.224,1.3944 c 0.273,0.023 0.3959,0.3656 0.5924,1.0492 0.2279,0.79 0.024,2.3187 -0.4782,3.3973 -1.0078,2.2186 -2.0542,2.6776 -3.5357,1.5492 -1.2609,-0.9601 -0.3443,-3.39 1.9305,-5.1155 0.795,-0.6032 1.2179,-0.9023 1.491,-0.8802 z m 28.2673,1.4747 c 0.2806,0.056 0.611,0.3595 0.9047,0.9421 0.2519,0.4995 0.077,1.227 -0.3858,1.6168 -0.5504,0.4625 -0.9442,0.1269 -1.1307,-0.9664 -0.188,-1.1004 0.1456,-1.6872 0.6118,-1.5925 z m -3.39,0.5177 c 0.5275,0.028 1.2038,2.9645 1.0748,4.6678 -0.1034,1.3579 -2.6303,1.0299 -4.38,-0.5689 -1.4056,-1.2846 -1.3901,-1.3443 0.6833,-2.7198 1.1655,-0.7733 2.3449,-1.3937 2.6219,-1.3791 z m -108.0087,19.716 c 1.4505,0.023 3.2798,0.082 5.5713,0.1692 6.047,0.235 17.2667,0.6382 24.9333,0.8964 20.5963,0.8728 45.1712,2.4083 60.3771,3.3983 13.3251,0.8715 30.0202,1.7769 35.6564,2.6477 14.1358,1.9607 7.2557,2.0192 -3.6642,1.5133 -31.1802,-1.6529 -67.5169,-3.0702 -97.4686,-4.0292 -8.5416,-0.3 -18.8457,-0.6593 -22.8976,-0.7984 -4.0708,-0.141 -7.3402,-0.5692 -7.3062,-0.9597 0.033,-0.3886 -0.094,-1.2444 -0.2822,-1.9014 -0.2138,-0.7468 0.7289,-1.005 5.0807,-0.9374 z" fill="#00B894" transform="translate(-120.09763,-17.682526) translate(-2527.725,-2589.4614)"/>
</svg>