<?xml version="1.0" ?><svg height="96.838661mm" viewBox="0 0 80.608986 96.838661" width="80.608986mm" xmlns="http://www.w3.org/2000/svg">
    <path d="m 2877.6453,2377.4912 c -0.5834,-0.9438 1.6006,-2.8645 2.3758,-2.0895 0.3102,0.3103 0.5641,1.0782 0.5641,1.7067 0,1.2771 -2.2098,1.5648 -2.9399,0.3828 z m -2.6777,-17.314 c -0.8063,-1.3051 0.9448,-2.8287 2.5455,-2.2144 0.7699,0.2956 1.1162,1.0642 0.8229,1.8281 -0.5848,1.5246 -2.5274,1.7472 -3.3684,0.3863 z m 9.1941,-2.2046 c 0.1676,-0.8678 0.8771,-1.5776 1.5779,-1.5776 1.8373,0 1.5717,2.4903 -0.304,2.8517 -1.1456,0.221 -1.4946,-0.1284 -1.2739,-1.2741 z m -4.4337,-7.5776 c 0,-0.7072 0.5784,-1.2856 1.2857,-1.2856 0.707,0 1.2855,0.5784 1.2855,1.2856 0,0.7072 -0.5785,1.2857 -1.2855,1.2857 -0.7073,0 -1.2857,-0.5785 -1.2857,-1.2857 z m -11.1425,-4.7143 c 0,-1.2909 0.4474,-1.7537 1.4999,-1.5508 0.8249,0.1579 1.4998,0.8567 1.4998,1.5508 0,0.6944 -0.6749,1.3924 -1.4998,1.5512 -1.0525,0.2015 -1.4999,-0.26 -1.4999,-1.5512 z m 8.0916,-2.6534 c -0.3193,-0.5168 -0.024,-1.5003 0.6659,-2.1859 1.0906,-1.0905 1.3806,-1.0849 2.3182,0.044 0.5893,0.7101 0.8227,1.6938 0.5184,2.186 -0.7242,1.1721 -2.7664,1.146 -3.5025,-0.044 z m -9.494,-8.9127 c -0.7818,-2.037 1.8817,-4.5825 3.3056,-3.1586 0.7611,0.7611 0.8059,1.4579 0.1602,2.4835 -1.282,2.0324 -2.8284,2.3337 -3.4647,0.6751 z m 9.1164,-0.4334 c 0,-0.9522 0.5714,-1.7143 1.2854,-1.7143 0.7144,0 1.2859,0.7621 1.2859,1.7143 0,0.9522 -0.5715,1.7142 -1.2859,1.7142 -0.714,0 -1.2854,-0.762 -1.2854,-1.7142 z m 5.2059,-0.3522 c -0.686,-0.8269 -0.7194,-1.3851 -0.1049,-1.7649 1.1968,-0.7395 2.6132,0.2016 2.6132,1.7391 0,1.5738 -1.2132,1.5861 -2.5082,0.027 z m -8.4897,-5.7856 c 0.1554,-1.1025 0.8623,-2.0048 1.5695,-2.0048 1.8588,0 1.6028,3.344 -0.2838,3.7071 -1.2171,0.2356 -1.5059,-0.1482 -1.2857,-1.7023 z m -5.7161,-1.5761 c -0.6989,-1.1311 0.3259,-2.736 1.345,-2.1064 1.041,0.6435 1.0344,2.9633 0,2.9633 -0.4435,0 -1.0448,-0.3856 -1.3362,-0.8569 z m 11.726,-3.6429 c 0.1507,-1.0607 0.8522,-1.9286 1.5596,-1.9286 0.7069,0 1.409,0.8679 1.5594,1.9286 0.2114,1.4843 -0.1482,1.9285 -1.5594,1.9285 -1.4111,0 -1.7706,-0.4442 -1.5596,-1.9285 z m -11.8446,-1.9286 c -0.6814,-1.7757 0.2435,-3.8569 1.7144,-3.8569 1.6719,0 2.509,2.5261 1.3139,3.9656 -1.2735,1.5345 -2.4133,1.4936 -3.0283,-0.1091 z m 6.7017,-3.2141 c 0.1506,-1.0607 0.8526,-1.9286 1.5596,-1.9286 0.707,0 1.4089,0.8679 1.5596,1.9286 0.2114,1.4842 -0.1481,1.9283 -1.5596,1.9283 -1.411,0 -1.7705,-0.4441 -1.5596,-1.9283 z m -5.2937,-4.4953 c -0.5848,-0.7047 -0.8643,-2.0412 -0.6213,-2.9702 0.3031,-1.1596 -0.077,-1.8537 -1.2154,-2.2149 -3.4962,-1.1096 -10.5564,-9.2522 -12.2295,-14.1048 -0.8941,-2.5926 -1.6988,-4.8138 -1.7885,-4.9354 -0.09,-0.1215 -4.1772,0.9444 -9.0839,2.3693 -9.7977,2.8453 -23.9678,4.8847 -27.6022,3.9725 -2.6049,-0.6536 -3.1085,-2.7736 -0.8183,-3.444 0.8248,-0.2405 4.9711,-1.2374 9.2139,-2.2136 4.2429,-0.976 11.6358,-3.1187 16.4293,-4.7617 6.6307,-2.2722 10.1162,-2.9857 14.5712,-2.9833 8.0399,0 26.4992,3.1418 30.9063,5.2524 10.3045,4.9346 10.753,15.0746 0.9795,22.1545 -6.1748,4.473 -16.4781,6.6057 -18.7411,3.8792 z m 5.139,-11.8762 c 0,-5.9043 -3.8675,-10.0645 -10.4996,-11.2939 -3.7203,-0.6898 -3.8523,-0.3543 -1.4134,3.5919 1.6565,2.6801 9.7758,9.6702 11.2703,9.7028 0.3535,0 0.6427,-0.8928 0.6427,-2.0008 z m 7.7009,-3.1785 c 0,-1.2063 -0.5969,-2.9419 -1.3422,-3.8571 -1.2408,-1.5224 -1.3136,-1.5304 -0.8574,-0.095 0.2743,0.8635 0.5044,3.1777 0.5119,5.1426 0,2.6225 0.233,3.2307 0.844,2.2869 0.457,-0.707 0.8368,-2.2725 0.8437,-3.4789 z m 7.7273,-0.7622 c 0,-1.3344 -0.7733,-3.3363 -1.7188,-4.4493 l -1.7189,-2.0234 0.8617,2.4128 c 0.474,1.3271 0.8617,3.5677 0.8617,4.979 0,1.4926 0.3588,2.3444 0.8573,2.0363 0.4713,-0.2913 0.857,-1.6213 0.857,-2.9554 z" fill="#00B894" transform="translate(-49.047231,8.148106) translate(-2764.7229,-2289.5484)"/>
</svg>