<?xml version="1.0" ?><svg height="130.15701mm" viewBox="0 0 129.72978 130.15701" width="129.72978mm" xmlns="http://www.w3.org/2000/svg">
    <path d="m 2705.0955,2352.9191 c -0.9216,-9.3753 -2.2291,-15.0275 6.0446,-20.506 8.2741,-5.4786 41.2409,-13.735 41.2409,-13.735 0,0 -5.8304,-25.5023 -5.8518,-30.46 -0.021,-4.9577 1.1576,-6.7324 3.5798,-7.0025 2.422,-0.2701 7.738,5.9801 8.7453,11.0343 1.0075,5.0541 3.6441,26.2932 3.6441,26.2932 0,0 21.0704,1.0224 29.8588,3.3951 8.7884,2.3728 35.3033,12.3075 35.3033,21.4706 0,9.1631 -3.0223,17.5352 -6.7947,25.6566 -3.7727,8.1214 -15.6046,27.5857 -43.8989,31.9454 -28.294,4.3597 -48.6574,-5.575 -54.3589,-12.7897 -5.7018,-7.2148 -13.9756,-17.6317 -17.5125,-35.302 z" fill="#FFFFFF" paint-order="markers stroke fill" transform="translate(-170.4699,57.527683) translate(-2530.8585,-2331.0262)"/>
    <path d="m 2746.5421,2402.6805 c -8.198,-1.5518 -12.3295,-3.2189 -18.7003,-7.5451 -7.0833,-4.81 -13.1173,-11.8958 -17.8672,-20.9806 -11.0451,-21.1256 -11.4559,-32.5085 -1.5316,-42.4329 6.2716,-6.2718 22.5769,-12.8769 34.5293,-13.9877 3.3573,-0.3122 6.284,-0.8585 6.504,-1.2141 0.2204,-0.3559 -0.9812,-5.9598 -2.6686,-12.4531 -3.3489,-12.8859 -3.7734,-18.0677 -1.7931,-21.8972 2.3733,-4.5892 5.4054,-4.7194 10.1466,-0.4361 4.6259,4.1791 7.0512,10.8027 8.0576,22.0056 0.4366,4.8565 0.9982,10.022 1.2485,11.4786 l 0.4549,2.6491 10.371,0.088 c 10.7409,0.09 17.2502,1.3509 30.6988,5.9417 14.283,4.8758 20.9611,9.2618 23.8472,15.662 1.5885,3.5229 1.5964,3.9793 0.1876,10.8598 -2.5391,12.392 -13.2208,31.3318 -22.0353,39.0713 -4.5722,4.0141 -17.1187,10.5094 -23.6509,12.2437 -7.7786,2.0652 -29.0714,2.5987 -37.7974,0.9472 z m 35.4091,-4.427 c 11.5767,-2.0638 23.8964,-10.9772 32.3905,-23.4346 3.5896,-5.2646 10.0749,-17.6597 9.2396,-17.6597 -0.2827,0 -2.2162,1.1709 -4.296,2.6019 -4.983,3.4284 -18.3543,10.0466 -23.9085,11.8337 -12.9653,4.1714 -28.8882,5.6988 -43.2657,4.1505 -17.4755,-1.8823 -26.6183,-4.4643 -36.1663,-10.2138 -2.8358,-1.7076 -5.312,-2.9487 -5.5026,-2.7577 -0.5416,0.5414 3.7867,9.8919 7.3558,15.8905 6.5758,11.0526 14.5464,16.5567 28.1325,19.4276 7.9261,1.675 27.0502,1.7606 36.0207,0.1602 z m 2.3885,-29.9334 c 15.8893,-3.5028 29.1381,-8.8051 29.1381,-11.661 0,-4.4414 -6.9736,-11.3974 -15.2313,-15.1931 -5.8071,-2.6689 -6.6314,-4.2166 -1.766,-3.315 8.0181,1.4855 16.4066,7.5057 19.2529,13.8173 l 1.5717,3.4851 2.9084,-2.8192 c 1.5997,-1.5505 3.566,-4.2042 4.3696,-5.8975 1.3464,-2.8378 1.3497,-3.3116 0.04,-6.0556 -1.7536,-3.6774 -7.0997,-7.1467 -17.3113,-11.234 -11.8956,-4.7611 -31.1697,-9.2889 -39.8236,-9.3552 l -2.2815,-0.025 1.3833,7.2845 c 1.1339,5.9696 1.8316,7.6632 3.8656,9.3823 2.7965,2.3638 5.9361,7.9796 5.9361,10.6181 0,0.962 0.383,1.9856 0.8507,2.2747 1.2743,0.7877 4.4472,-2.7889 4.4472,-5.0131 0,-1.4707 0.2478,-1.6941 1.0215,-0.9208 1.6728,1.6726 -0.266,6.5548 -3.4566,8.705 -1.5507,1.0451 -6.0905,2.8576 -10.1257,3.8859 -6.1691,1.5721 -16.5883,2.4722 -23.5323,-3.7824 -1.4108,-1.2707 1.4794,-2.588 2.8931,-1.4502 0.7074,0.5694 1.4132,0.9013 1.4132,-2.764 0,-1.962 0.7945,-5.1249 1.7657,-7.0287 1.9884,-3.8973 2.2232,-8.3759 0.7904,-15.0572 l -0.9754,-4.5486 -4.9845,0.5947 c -20.2927,2.4213 -35.6375,10.3073 -39.4424,20.2702 -1.2696,3.3238 -1.2907,4.1229 -0.1803,6.7732 2.1572,5.149 5.9332,8.7202 12.9499,12.2482 19.0917,9.5993 41.1778,11.9183 64.5123,6.7741 z m -49.0051,-2.8046 c -5.6468,-2.8682 -7.948,-8.106 -5.0036,-13.7996 1.8074,-3.4951 3.0055,-2.8408 1.7391,1.2857 -1.3199,4.3003 -0.098,6.9391 4.5881,9.8963 1.9788,1.2493 3.3611,2.6544 3.0717,3.1226 -0.7053,1.1414 -1.2848,1.0747 -4.3953,-0.505 z m 12.6412,-4.3263 c -10.11,-2.8145 -13.4622,-9.0843 -7.8525,-14.6936 3.281,-3.281 5.5904,-3.4187 2.5602,-0.1527 -6.186,6.6672 -2.2028,11.8017 12.518,13.508 11.0644,1.2825 28.2533,-0.5221 35.2574,-10.8766 2.5999,-4.0327 4.2831,-3.1215 2.4291,1.3153 -2.0985,5.0227 -9.5936,9.4723 -19.2318,11.6211 -8.5695,2.4044 -18.1093,1.3862 -25.6804,-0.7215 z m 45.6159,-4.0609 c -0.3121,-0.5052 0.8559,-2.4942 2.5956,-4.4198 1.7395,-1.9257 3.1691,-4.394 3.1762,-5.4853 0,-1.605 0.1779,-1.731 0.8698,-0.6596 0.4706,0.7285 0.8618,2.1648 0.8694,3.192 0.025,3.4491 -6.1747,9.5346 -7.511,7.3727 z m -81.0672,-1.4407 c -1.0694,-1.0696 -0.6224,-2.0177 2.6696,-5.6617 5.283,-5.8475 18.3405,-11.5561 28.9703,-12.6654 6.5806,-0.6865 9.4405,0.6535 4.3393,2.0336 -1.9009,0.5144 -5.8404,1.5802 -8.7541,2.3687 -8.0678,2.1833 -17.23,6.819 -21.4861,10.8705 -3.874,3.6879 -4.6775,4.1158 -5.739,3.0543 z m 72.6982,-17.5122 c -1.6997,-0.6545 -4.0079,-1.2204 -5.1292,-1.2576 -3.5414,-0.1179 -1.1158,-1.8329 2.5906,-1.8329 4.1084,0 6.9535,1.2771 6.9535,3.1217 0,1.5312 -0.3642,1.5286 -4.4149,-0.031 z m -28.6738,11.4973 c 0.025,-2.1722 0.5091,-4.4357 1.1038,-5.0301 0.8523,-0.8528 1.0806,-0.1053 1.0806,3.538 0,5.3512 0.7475,5.9324 6.5142,5.0676 5.8702,-0.8802 7.0225,-2.0519 5.7129,-5.8102 -0.5904,-1.6951 -2.5605,-5.3828 -4.3779,-8.195 -3.9984,-6.188 -6.3451,-15.4237 -8.2361,-32.413 -1.8479,-16.6038 -4.6156,-24.8202 -7.9324,-23.5474 -2.5143,0.9648 -2.4447,4.6042 0.2667,13.9267 2.6577,9.1378 6.5321,27.2593 7.6264,35.6682 0.4768,3.6635 0.1877,5.2413 -1.6984,9.2714 -2.7714,5.9219 -3.0615,11.4891 -0.5978,11.4757 0.2832,0 0.5253,-1.78 0.538,-3.9519 z m -30.7202,-36.308 c -1.1897,-1.1898 -0.6668,-3.6896 0.897,-4.2906 1.1605,-0.4459 -0.2154,-1.5186 -5.5185,-4.3065 -12.4462,-6.5414 -14.5689,-8.7389 -14.5689,-15.0812 0,-3.4521 3.7641,-8.5073 7.9442,-10.669 5.7329,-2.9644 15.013,-3.817 15.013,-1.3789 0,0.4377 -1.2915,1.0414 -2.8698,1.3416 -7.1831,1.3661 -10.6492,2.6743 -13.0658,4.9318 -3.0091,2.8106 -3.4863,6.8574 -1.0618,8.9977 1.7696,1.5622 14.5743,8.0538 17.8804,9.065 2.1398,0.6545 2.16,0.6219 0.6621,-1.057 -1.5638,-1.7529 -2.0024,-3.9317 -0.9945,-4.94 0.7699,-0.7697 6.4596,2.2639 9.4403,5.0334 3.7658,3.4988 3.0155,6.3398 -2.4857,9.4099 -4.6462,2.593 -10.1781,4.0375 -11.272,2.9438 z m 47.6493,-4.2781 c -1.9757,-1.9758 -1.8932,-2.7641 0.4626,-4.4141 1.3158,-0.9217 4.0068,-1.3809 8.1675,-1.3939 17.9408,-0.056 22.5595,-13.3379 7.0787,-20.3573 -6.4576,-2.928 -8.2917,-3.2787 -6.6217,-1.2666 1.6402,1.9763 -1.2545,2.7722 -3.751,1.0314 -7.3491,-5.1243 -7.3772,-5.9429 -0.2792,-8.1802 5.3146,-1.6752 8.4989,-1.2039 6.679,0.9888 -0.5996,0.723 -1.7374,1.3486 -2.5277,1.3909 -0.7901,0.043 1.5431,0.7577 5.1853,1.59 8.0328,1.8355 9.8593,2.7831 12.8029,6.6426 6.403,8.3948 3.6788,17.3395 -6.9291,22.7513 -5.0986,2.6011 -18.1024,3.3821 -20.2673,1.2171 z" fill="#00B894" transform="translate(-170.4699,57.527683) translate(-2530.8585,-2331.0262)"/>
</svg>