<?xml version="1.0" ?><svg height="160.60388mm" viewBox="0 0 130.23969 160.60388" width="130.23969mm" xmlns="http://www.w3.org/2000/svg">
    <path d="m 68.124612,1435.921 c 0.920433,-9.112 7.505065,-19.6574 13.452475,-25.01 5.94741,-5.3525 26.161523,-12.1705 37.206713,-13.6678 11.04516,-1.4976 45.2782,-3.2499 58.73067,1.338 13.45245,4.5879 16.63856,16.2168 16.46156,26.0932 -0.17701,9.8766 -6.54923,40.4622 -20.17871,48.3952 -13.62949,7.933 -31.96733,15.2289 -47.82709,14.4645 -15.85974,-0.7646 -27.117333,-3.0268 -39.649375,-15.6115 C 73.788812,1459.338 68.124612,1435.921 68.124612,1435.921 Z" fill="#FFFFFF" paint-order="markers stroke fill" transform="translate(73.929169,7.3104338) translate(-2539.5696,-2597.6813) translate(2398.7881,1260.5215)"/>
    <path d="m 2508.1996,2749.1133 c -0.7979,-0.2986 -4.6036,-2.0283 -8.4573,-3.8437 -11.5477,-5.44 -20.4491,-14.1059 -26.7568,-26.0485 -3.3336,-6.311 -7.1125,-21.3719 -7.3178,-25.1007 -0.4798,-8.7154 5.4426,-14.3021 12.192,-21.4961 3.4891,-3.7191 10.8835,-7.6167 13.7249,-7.2346 2.8427,0.242 0.117,2.0563 -1.7614,3.0371 -10.9845,5.7342 -18.0041,16.502 -17.1524,25.4011 0.7655,7.9983 12.2506,15.3853 26.4199,16.993 4.4664,0.5068 6.2125,0.4419 6.2717,-0.2335 0.1149,-1.3158 -1.1533,-3.2333 -3.3254,-5.0255 -1.5402,-1.2709 -2.1667,-1.4094 -3.6886,-0.8157 -2.2868,0.8918 -3.198,1.9299 -2.8713,3.2701 0.1448,0.5892 -0.1363,0.8591 -0.6458,0.6246 -1.4219,-0.6525 -1.0839,-4.4435 0.5223,-5.8587 1.8697,-1.6474 5.9562,-1.9226 8.0645,-0.5433 0.9119,0.5968 2.2779,2.0136 3.0353,3.1489 1.2817,1.9209 1.5727,2.0233 4.1969,1.4755 3.7115,-0.7747 8.3826,0.5896 9.5842,2.7996 l 0.9284,1.7074 6.6916,-0.5828 c 7.7992,-0.6795 25.7246,-4.3818 31.5077,-6.5076 9.4993,-3.4919 24.9987,-14.5513 28.0432,-20.0101 2.6923,-4.8275 1.9496,-9.8928 -2.2441,-15.3024 -6.0369,-7.7869 -23.6235,-11.8274 -43.5638,-10.009 -7.0243,0.6405 -11.0297,0.083 -10.3234,-1.4384 1.5323,-3.2998 12.9017,-5.1045 26.1865,-4.1566 16.0487,1.1452 25.6854,4.6312 31.7707,11.4924 4.509,5.0845 6.1194,9.7012 6.572,18.8407 0.429,8.6673 -0.924,17.4316 -4.4322,28.7085 -3.8783,12.4671 -11.1786,21.0024 -24.1974,28.291 -13.1286,7.3501 -25.2521,10.4138 -40.6565,10.2742 -7.4421,-0.067 -15.8005,-0.9148 -18.3176,-1.8568 z m 29.1932,-4.0148 c 8.8337,-1.2139 17.3023,-4.0649 27.3262,-9.1994 14.0233,-7.183 20.6901,-17.7606 25.2736,-40.0988 l 1.0616,-5.1734 -5.2046,4.4951 c -14.7122,12.7073 -33.2983,19.2742 -61.3917,21.6919 -10.268,0.8835 -13.4267,0.8492 -22.3973,-0.2431 -11.4836,-1.3982 -16.3376,-2.9061 -23.5528,-7.3155 l -4.4141,-2.6977 1.2227,3.31 c 4.1884,11.3396 14.6799,24.2827 24.1977,29.8523 8.6155,5.0417 24.2136,7.2565 37.8787,5.3786 z m -20.0492,-33.4459 c 0.8473,-0.6727 -1.8074,-1.9682 -4.7367,-2.3115 -2.0652,-0.2424 -3.7312,0.082 -5.0264,0.9775 l -1.9373,1.3397 5.6545,0.1532 c 3.11,0.083 5.8306,0.022 6.0459,-0.1575 z m 5.7527,-6.1879 c -0.2489,-0.3126 -2.7091,-0.8758 -5.4669,-1.2512 -7.9158,-2.694 -13.0206,-6.2596 -17.6458,-14.226 l -3.0221,2.8085 c -0.9597,0.8919 -2.0692,3.1673 -2.5516,4.9675 -0.6756,2.5214 -1.127,3.1434 -1.9648,2.7078 -3.1176,-1.6206 -1.6172,-8.8252 2.3825,-11.4381 l 3.1708,-2.3429 c -3.7955,-12.1744 -3.1991,-23.3682 -2.0079,-36.593 l -2.897,-0.2046 c -2.0855,-0.147 -3.0914,-0.6128 -3.5922,-1.6642 -0.5881,-1.2341 -0.2547,-1.7544 2.1521,-3.3597 2.6482,-1.7662 2.7867,-2.0251 1.9767,-3.6882 -3.3279,-6.8329 -5.9302,-12.8729 -9.3682,-21.7446 -2.1727,-5.6067 -5.7021,-13.9152 -7.8431,-18.4631 -2.1408,-4.5481 -3.6547,-8.7261 -3.3643,-9.2849 1.0887,-2.0943 2.9841,-1.6806 5.3436,1.1662 2.9809,3.5968 9.1817,15.539 11.8168,22.7591 1.1184,3.0638 3.8371,9.5981 6.0415,14.5206 2.9471,6.5805 4.3189,8.8628 5.1803,8.6202 2.6666,-0.7506 4.6819,-0.6167 5.6338,0.3746 1.2934,1.347 1.0569,3.4484 -0.5033,4.47 -1.64,1.0738 -0.6857,2.2326 1.8137,3.986 3.6686,2.5736 15.6711,10.6862 20.0491,16.3794 6.7381,8.7621 11.9822,17.6391 11.5245,21.8334 -0.104,0.9612 0.3628,1.9509 1.0734,2.27 2.9143,1.3095 4.3182,2.5633 4.9111,4.386 0.9302,2.8589 -0.2002,3.6337 -2.0765,1.4226 -2.2245,-2.6214 -6.312,-2.9222 -9.1377,-0.6725 -1.9224,1.5308 -2.072,1.9428 -1.6076,4.4272 l 0.5123,2.7395 -2.4519,-0.2783 c -2.9159,-0.3308 -4.5481,1.0123 -4.8897,4.023 -0.2408,2.1212 -1.9884,2.8598 -3.1914,1.3493 z m -12.0274,-13.8978 c -6.5826,-8.3569 -8.8633,-11.6197 -10.6776,-19.6123 -0.6445,-2.8402 -0.9778,-5.7525 -1.5899,-8.3255 0.3952,9.895 1.65,19.5154 6.2174,25.7426 3.0697,4.0841 8.8903,9.518 11.199,9.78 0.4984,0.056 -1.8185,-3.3566 -5.1489,-7.5848 z m 12.3577,5.3848 c -0.4535,-0.8002 -3.167,-5.3066 -6.0295,-10.0141 -7.5842,-12.4713 -10.091,-17.5247 -13.5446,-27.3031 -2.7741,-7.8547 -3.081,-8.3983 -3.0094,-5.3341 0.1198,5.0802 1.7149,13.5695 3.5572,18.9209 2.3839,6.9243 8.8059,16.8692 13.9884,21.6623 4.3841,4.0545 6.7036,5.0066 5.0379,2.0681 z m 0.2433,-7.5447 c -3.1299,-8.498 -6.4505,-15.5631 -11.6374,-24.7617 -8.7209,-15.4659 -10.5091,-16.65 -5.474,-3.6249 2.5011,6.4706 17.9514,34.5344 19.0833,34.6629 0.1939,0.022 -0.6926,-2.8023 -1.9719,-6.2763 z m 5.0999,-1.7224 c -1.6291,-7.0782 -7.5071,-18.9094 -13.3859,-26.9433 -4.3872,-5.9954 -5.6953,-6.0076 -1.6785,-0.021 4.1298,6.1609 9.8347,17.1181 13.1771,25.3082 1.2127,2.9714 2.3086,5.3196 2.4357,5.2187 0.1256,-0.1003 -0.1199,-1.7066 -0.5484,-3.568 z m 5.6765,-2.5725 c -0.2566,-3.5342 -5.3089,-12.568 -10.5164,-18.8039 -5.5519,-6.6481 -8.9405,-9.0796 -4.7767,-3.427 4.4347,6.0203 9.8299,15.5445 11.9865,21.1601 2.0272,5.2783 3.65,5.8038 3.3066,1.0708 z m 26.6304,5.1973 c -1.3315,-4.582 -4.4823,-6.266 -9.1601,-4.8957 -1.1879,0.3478 -1.3178,-0.049 -0.9827,-3.0035 0.4824,-4.2508 -0.355,-6.9295 -2.5841,-8.2673 -2.4981,-1.499 -4.166,-1.513 -6.5264,-0.053 -3.0625,1.8926 -3.3606,0.042 -0.3763,-2.3331 5.3581,-4.2659 12.9826,0 13.323,7.4695 0.1341,2.932 0.3048,3.1601 2.5605,3.4162 1.3293,0.1511 3.2012,1.0489 4.1596,1.9962 1.7287,1.7083 1.7474,1.7109 2.3767,0.3032 1.2339,-2.7605 5.317,-4.7357 8.9399,-4.3245 4.2495,0.4821 7.608,4.1047 6.8485,7.387 -0.5675,2.4507 -1.6907,2.3759 -2.6465,-0.1767 -1.6391,-4.3761 -5.3793,-5.4638 -8.9662,-2.6079 -1.4359,1.1433 -2.6688,3.0337 -3.2145,4.9289 -1.0889,3.7824 -2.6794,3.8508 -3.7514,0.162 z" fill="#00B894" transform="translate(73.929169,7.3104338) translate(-2539.5696,-2597.6813)"/>
</svg>