<?xml version="1.0" ?><svg height="136.02992mm" viewBox="0 0 245.26912 136.02992" width="245.26912mm" xmlns="http://www.w3.org/2000/svg">
    <path d="m 2792.3076,2452.7299 c -0.6824,0.05 -1.5913,0.447 -2.4831,0.9875 -2.8535,1.7295 -134.4348,75.2074 -138.5403,79.2691 -4.1056,4.0617 -3.5234,6.7871 -0.3788,12.4473 4.5714,3.0922 9.9579,4.9787 16.7132,0.7074 6.7554,-4.2714 20.9065,-11.7134 26.7591,-17.7405 5.8526,-6.0271 24.1675,-16.4827 24.1675,-16.4827 l 6.5334,7.6414 -37.8344,42.0424 -0.4077,10.482 163.4944,8.9096 39.2503,-56.1305 -2.6494,-9.8004 -132.826,-11.3905 c 1.2215,-1.0329 2.37,-2.0362 3.3693,-2.9699 9.172,-8.5689 28.6812,-33.2013 33.4564,-41.0889 3.2831,-5.4228 2.8774,-6.9932 1.3761,-6.8833 z" fill="#FFFFFF" paint-order="markers stroke fill" transform="translate(-32.15777,-2.4596445) translate(-2613.9244,-2446.0871)"/>
    <path d="m 2795.1246,2448.5523 c -1.4135,-0.1228 -5.6624,1.7922 -12.3039,5.5447 -5.5797,3.1529 -13.1327,7.1993 -16.7839,8.9913 -3.6513,1.7924 -10.5974,5.6165 -15.4357,8.4989 -4.8383,2.8824 -17.6273,10.1721 -28.4192,16.1984 -40.4836,22.607 -45.8242,25.7019 -58.424,33.8674 -7.1014,4.6022 -13.9274,9.6468 -15.1691,11.2107 -4.7106,5.9314 -2.5048,15.0256 4.2992,17.7254 1.207,0.4791 4.1847,1.0742 6.6168,1.3228 3.5971,0.3681 5.5558,0 10.4965,-1.9396 5.2592,-2.0708 8.3812,-4.305 23.2584,-16.6508 9.4511,-7.8428 17.5146,-14.2457 17.9193,-14.2286 0.4045,0.024 2.0554,-0.9118 3.6685,-2.0649 1.6129,-1.1532 3.1815,-2.0751 3.4863,-2.0488 0.3047,0.025 1.7093,1.9464 3.1212,4.2668 2.6819,4.4073 6.2762,7.3513 7.9469,6.509 4.1464,-2.0907 25.7186,-19.1218 32.2104,-25.4299 15.9727,-15.5215 32.8534,-38.9744 35.0164,-48.6503 0.6201,-2.7747 0.5379,-2.945 -1.5041,-3.1225 z m -3.7841,6.027 c 0.646,0.057 -4.2887,7.9675 -8.8304,14.1569 -4.3475,5.9242 -16.2888,19.3154 -23.0717,25.8717 -2.6416,2.5532 -10.2496,8.953 -16.907,14.2227 -6.6574,5.2701 -12.4982,9.5436 -12.98,9.4959 -0.4819,-0.047 -2.415,-2.1811 -4.2957,-4.7421 -1.8807,-2.5611 -3.8655,-4.6959 -4.4118,-4.7434 -0.546,-0.047 -2.446,0.8134 -4.2214,1.9121 l -3.2292,1.9977 -2.9599,-4.7144 c -1.6284,-2.5928 -2.7997,-4.931 -2.6029,-5.1955 0.1972,-0.2641 6.847,-4.145 14.7781,-8.6238 7.9313,-4.4788 20.085,-11.618 27.0082,-15.8648 6.9231,-4.2465 15.9601,-9.5083 20.0825,-11.6939 4.1225,-2.1856 10.5701,-5.8078 14.3284,-8.0477 3.7582,-2.2403 7.0487,-4.0545 7.3128,-4.0314 z m -88.4146,51.1186 c 0.5025,0.045 4.001,6.8273 4.8558,9.4146 0.1229,0.3768 -0.6012,1.163 -1.6115,1.7474 -4.7016,2.7195 -14.7795,9.8761 -23.4741,16.6679 -5.3422,4.1735 -11.7059,8.3781 -14.4466,9.5469 -3.9271,1.6748 -5.8138,2.0062 -9.5167,1.6651 -5.376,-0.4947 -6.8601,-1.3499 -8.2656,-4.7631 -1.0069,-2.4445 -0.9724,-2.5322 1.8644,-4.764 5.9261,-4.6624 48.799,-29.6707 50.5943,-29.5148 z m 68.9912,-3.1404 c -11.2854,-0.5168 -10.4324,2.8738 -6.6761,3.1445 28.7536,2.0724 83.6136,7.1169 101.0812,9.2709 13.1689,1.6236 18.6461,2.5688 18.5904,3.2094 -0.043,0.4993 -1.534,2.711 -3.3135,4.9147 -1.7794,2.2037 -5.8136,7.9272 -8.9647,12.718 -3.1513,4.7907 -9.8699,14.7863 -14.9304,22.2125 -5.0601,7.4261 -9.3128,13.7586 -9.4493,14.072 -0.1356,0.3135 -20.488,-1.0204 -45.2263,-2.9647 -46.3403,-3.6415 -71.2597,-4.9691 -97.0431,-5.1675 -8.1697,-0.062 -15.42,0.05 -16.1102,0.247 -0.6906,0.1972 -1.227,0.03 -1.192,-0.3711 0.093,-1.0571 16.9963,-18.9392 29.4661,-33.3389 1.6362,-1.8895 -0.8452,-3.9005 -4.4291,-0.4669 -9.6886,9.2822 -16.0726,15.5581 -23.1552,24.4478 -4.4994,4.543 -5.8389,6.8392 -5.359,12.7959 0.407,5.0439 0.6213,5.5588 2.5183,6.0661 3.2738,0.8755 50.9588,4.1385 59.7636,4.0892 4.3718,-0.024 22.6932,1.0264 40.7136,2.3352 18.0206,1.3088 38.4648,2.6106 45.4314,2.8929 6.9671,0.2824 12.9797,0.8257 13.3617,1.2081 1.4216,1.4239 2.6603,0.7672 5.0852,-2.6969 1.3697,-1.9568 5.9176,-7.9076 10.107,-13.2246 4.189,-5.3169 11.5483,-15.9404 16.3539,-23.6074 4.8054,-7.6668 9.4226,-14.7741 10.2596,-15.7939 0.8371,-1.0197 1.8449,-2.6461 2.2401,-3.614 0.8727,-2.1362 -0.2258,-9.4349 -1.63,-10.8209 -3.0668,-3.0297 -81.6404,-9.9156 -117.4932,-11.5574 z m -80.4325,13.6413 c -0.367,0.034 -0.7538,0.131 -1.1548,0.3026 -2.0013,0.8576 -2.9051,2.8974 -1.9165,4.3235 1.1238,1.6215 3.2565,1.6423 4.9716,0.05 2.2112,-2.0542 0.6686,-4.913 -1.9003,-4.6749 z m 76.5252,-5.5971 c -3.5563,-0.1311 -5.0729,0.3647 -9.6536,2.1542 -4.2825,1.6734 -8.1699,3.9713 -11.7161,6.9276 -6.3572,5.3 -11.9983,13.6264 -12.4048,18.3089 -0.2384,2.745 0.1902,3.6392 3.5478,7.417 4.4934,5.0544 5.7338,5.9337 11.1677,7.9143 4.9822,1.8157 14.9669,2.8709 17.3812,1.8365 2.1342,-0.9142 3.1483,-1.8774 11.2676,-10.6912 14.0748,-15.2788 14.3682,-16.0239 9.5631,-24.2602 -4.5364,-7.7756 -5.6956,-8.5075 -14.7287,-9.2917 -1.8274,-0.1593 -3.2389,-0.2714 -4.4242,-0.3154 z m 0.4846,3.6337 c 0.436,-0.024 0.8506,0 1.2395,0.024 l 2.4173,0.2093 -2.5775,2.1658 c -6.536,5.4922 -11.5186,24.2416 -8.4521,31.8058 l 1.3473,3.323 -5.7265,-0.5764 c -12.3663,-1.2443 -19.9444,-6.1026 -19.3953,-12.4304 0.1973,-2.2833 3.1337,-6.8581 8.0375,-12.5263 5.077,-5.8689 16.5689,-11.7298 23.1098,-11.9946 z m 8.9429,0.5879 2.2817,1.4423 c 2.5422,1.6069 6.213,7.529 6.7539,10.8942 0.2761,1.7198 -0.2792,2.9318 -2.5927,5.6568 -5.6451,6.6493 -9.0363,9.7393 -9.5017,8.6576 -0.2439,-0.5669 -0.7316,-4.6223 -1.0839,-9.0124 -1.0212,-12.7224 -1.7127,-10.6458 -1.6615,4.9902 0.024,6.9224 -0.1831,8.5093 -1.2082,9.3718 -1.6921,1.4217 -1.8216,0.6978 -1.8563,-10.421 -0.046,-14.4325 -0.1569,-13.9962 4.6494,-18.0352 z m 40.2672,4.5125 c -1.8722,0.6641 -2.1146,1.1826 -2.4706,5.2846 -0.2677,3.0839 -0.032,4.9825 0.7372,5.8959 1.4104,1.6782 9.6137,1.7334 11.1934,0.075 1.46,-1.5328 1.281,-9.7705 -0.2447,-11.2397 -2.5864,-1.6238 -6.5494,-0.9393 -9.2153,-0.016 z m 34.9931,0.8285 c -1.851,2.3525 -1.064,3.1026 1.4958,1.4259 1.9404,-1.2713 2.195,-1.2608 4.6447,0.1806 1.8151,1.0672 2.5458,2.0542 2.4383,3.2942 -0.1355,1.5633 -0.4004,1.6723 -2.2657,0.9307 -1.1614,-0.4616 -2.626,-1.0969 -3.2544,-1.4109 -0.6282,-0.3138 -1.6793,-0.291 -2.3364,0.05 -1.005,0.5231 -1.0439,0.84 -0.2445,1.9931 0.7136,1.0295 2.1469,2.2678 5.4732,2.3804 4.8005,-0.01 4.0892,0.7167 4.8215,-3.562 0.412,-2.4033 0.1449,-3.1459 -1.6987,-4.7165 -2.5378,-1.9182 -6.7915,-3.3357 -9.0738,-0.5655 z m -32.28,0.9956 c 3.7884,-0.1875 4.5104,1.5784 4.319,3.8194 -0.274,3.1564 -0.5036,3.5307 -2.0813,3.3867 -1.3139,-0.1214 -2.0409,-0.9928 -2.8046,-3.3693 -0.5669,-1.7645 -0.8122,-3.3912 -0.546,-3.6152 0.1337,-0.112 0.5489,-0.1878 1.1129,-0.2212 z m 22.0353,2.4279 c -0.4346,0.024 -0.843,0.055 -1.2129,0.1241 -2.6453,0.4996 -6.8956,4.8392 -6.4719,6.6078 0.1309,0.5429 2.9684,2.2208 6.3084,3.7275 3.3401,1.5072 6.4718,2.7886 6.959,2.8501 2.7074,0.3394 5.4489,-8.6079 3.2905,-10.7402 -1.4978,-1.4795 -5.8308,-2.6691 -8.8731,-2.5692 z m 44.1676,0.363 c 0.1997,0.2383 -0.043,0.8536 -0.5424,1.367 -0.4991,0.5135 -5.3745,8.0538 -10.8339,16.7561 -5.4597,8.7026 -11.8403,18.3655 -14.1788,21.4732 -2.3384,3.1071 -5.5487,7.7445 -7.133,10.305 -1.584,2.5603 -3.0109,4.6435 -3.171,4.6295 -0.1592,-0.024 -0.388,-0.9789 -0.508,-2.1448 -0.1709,-1.6705 2.0255,-5.2304 10.3575,-16.7784 5.8166,-8.0619 12.3518,-17.3642 14.522,-20.6716 5.1334,-7.8232 11.026,-15.4853 11.4876,-14.936 z m -69.5607,0.024 c 0.1161,0.024 0.2939,0.3565 0.6042,1.0146 0.3826,0.8117 0.519,2.0746 0.3039,2.807 -0.3573,1.2161 -0.4295,1.2019 -0.8337,-0.1616 -0.2437,-0.8215 -0.381,-2.0846 -0.305,-2.8071 0.062,-0.5858 0.1162,-0.8745 0.2306,-0.8521 z m -11.9584,1.6975 c -1.5331,0.1337 -3.4245,0.6691 -5.7658,1.5618 -3.187,1.2151 -3.5341,1.6063 -3.7591,4.226 -0.1355,1.5879 0.3806,4.1534 1.1491,5.7011 1.8506,4.2682 2.234,2.8175 7.0379,2.8379 7.5336,0.024 8.3967,-0.7366 7.5989,-6.6739 -0.6654,-4.952 -1.9454,-7.3294 -4.8442,-7.6418 -0.4347,-0.047 -0.9057,-0.047 -1.4168,0 z m 38.1827,0.1925 c 1.386,0.1066 2.2477,1.2178 3.3336,3.8958 0.9077,2.2392 0.9971,3.1449 0.299,3.0306 -1.01,-0.1639 -8.4202,-3.1582 -8.9522,-3.6163 -0.5443,-0.4688 2.0709,-2.6429 3.7313,-3.1013 0.6061,-0.1688 1.1265,-0.2441 1.5883,-0.2092 z m 5.0286,1.5619 c 0.4593,0.041 0.8039,0.4274 0.7664,0.8614 -0.038,0.4335 -0.2259,0.7749 -0.4164,0.7582 -0.1924,-0.024 -0.5358,-0.4046 -0.7662,-0.8614 -0.2306,-0.4569 -0.044,-0.7982 0.4162,-0.7582 z m -81.3557,0.9946 c 0.05,-0.4947 0.3793,3.8679 0.2457,8.3862 -0.1522,5.1638 -0.1354,10.2056 0.038,11.2038 0.1854,1.0688 -0.038,1.7845 -0.546,1.7403 -1.1172,-0.097 -2.6785,-3.1852 -3.1003,-6.1323 -0.3304,-2.3073 2.0031,-13.2554 3.237,-15.1864 0.045,-0.069 0.1188,0.059 0.1255,0 z m -105.1078,6.4691 c -1.9069,0.2283 -3.6456,2.6492 -2.8694,4.4606 0.8611,2.0099 3.1182,2.1312 5.1165,0.2747 1.8905,-1.7563 1.189,-4.0646 -1.4259,-4.691 -0.2727,-0.065 -0.5487,-0.075 -0.8212,-0.046 z m 142.5634,-5.2876 c 1.9102,0.084 2.8981,1.315 3.3196,4.0338 0.4739,3.0563 -1.1797,2.6815 -4.0662,-0.9219 l -2.2761,-2.8429 2.1464,-0.2353 c 0.3113,-0.034 0.6035,-0.047 0.8763,-0.035 z m -5.7623,3.3102 c 0.2929,0.024 0.7152,0.1309 1.2707,0.3143 3.0013,0.9895 3.9347,2.1392 2.3873,2.9392 -1.6476,0.8519 -2.1048,0.7765 -2.909,-0.4731 -1.3414,-2.0851 -1.6275,-2.8414 -0.749,-2.7804 z m 30.935,1.7682 c -1.6425,0.035 -3.5437,0.5806 -6.4291,1.6512 -4.1545,1.5414 -5.1623,2.2571 -5.2926,3.7611 -0.1927,2.2312 3.1109,6.2149 6.1889,7.461 1.2223,0.4946 3.8246,0.9716 5.7833,1.0596 3.4659,0.1569 3.6286,0.053 6.0744,-3.8876 2.9386,-4.7341 2.6426,-6.4957 -1.4505,-8.639 -1.849,-0.9679 -3.232,-1.4419 -4.8744,-1.4063 z m 1.6487,3.4459 c 0.2995,0 0.6463,0.1 1.0794,0.2469 2.9813,1.0123 3.2187,1.7803 1.4692,4.7561 -1.2622,2.1462 -2.0831,2.7163 -3.709,2.575 -2.9413,-0.2552 -3.0531,-0.656 -1.2709,-4.539 1.0658,-2.3217 1.5331,-3.0621 2.4313,-3.039 z m -5.1801,0.1853 c 0.1568,0 0.2752,0.024 0.336,0.091 0.1926,0.2283 -0.2045,1.4638 -0.8788,2.7456 -0.9958,1.8913 -1.4712,2.1656 -2.5218,1.4517 -0.7122,-0.4839 -1.2662,-1.2095 -1.2314,-1.6117 0.069,-0.7821 3.1903,-2.6181 4.296,-2.677 z m -33.4685,2.2007 v 0 c -0.8634,-0.088 -1.545,0.091 -2.486,0.4848 -3.6178,1.5172 -8.5665,5.7636 -8.7156,7.4784 -0.1664,1.9261 3.0267,6.6052 5.2188,7.7797 3.3844,1.8134 2.9458,0.9422 5.5908,-0.3348 2.9774,-1.4375 7.5255,-2.6227 9.3683,-4.6519 2.7462,-3.0239 0.2866,-7.4232 -5.4019,-9.6638 -1.6669,-0.6569 -2.7114,-1.0067 -3.5744,-1.0934 z m 0.2138,2.7511 c 0.7797,0.066 4.5537,2.863 5.2801,3.911 0.7152,1.0313 0.3689,1.5635 -1.9872,3.0572 -1.5693,0.9948 -3.1747,1.7815 -3.5676,1.7475 -0.3927,-0.034 -0.5444,-2.0137 -0.3373,-4.3991 0.2068,-2.3853 0.4823,-4.3277 0.612,-4.3166 z m -3.106,0.9218 -0.247,2.8928 c -0.1355,1.591 -0.512,3.4356 -0.8348,4.0987 -0.7021,1.4427 -1.3826,1.4646 -2.544,0.083 -1.2309,-1.4648 -0.9522,-2.3836 1.4807,-4.8767 z m 21.1654,5.1932 c -4.6213,4.1401 -4.8834,6.6596 -0.9448,9.0737 3.0496,1.8691 10.8656,2.8237 12.4211,1.5166 1.1933,-1.0027 2.0543,-9.0584 1.1536,-10.7979 -0.3359,-0.649 -2.4817,-1.6149 -4.7676,-2.146 -5.3125,-1.3519 -3.7936,-1.291 -7.8623,2.3536 z m 5.33,-0.821 c 0.4167,-0.1038 1.3092,0.214 2.7933,0.9312 1.5766,0.7613 1.9104,1.4717 1.7204,3.6603 -0.1309,1.4933 -0.4991,3.257 -0.8219,3.9199 -0.3227,0.6633 -1.4024,1.1359 -2.3988,1.0494 -1.6476,-0.1427 -1.7517,-0.4305 -1.141,-3.163 0.3696,-1.6526 0.331,-3.8015 -0.086,-4.7743 -0.4226,-0.9861 -0.4826,-1.5179 -0.066,-1.6235 z m 24.5316,0.082 c -0.8885,0.047 -1.9384,0.4741 -3.8738,1.3195 -7.9656,3.4797 -8.497,5.5986 -2.3651,9.438 1.8229,1.1414 3.8065,2.118 4.4082,2.1705 1.2864,0.112 5.1245,-3.196 6.931,-5.9724 1.6904,-2.5978 1.0735,-4.2837 -2.196,-5.9956 -1.2886,-0.6745 -2.0157,-1.0069 -2.9043,-0.96 z m -27.0752,1.3867 c 0.2715,0.024 0.3936,0.3637 0.5888,1.0436 0.2258,0.7855 0.024,2.3059 -0.4751,3.3786 -1.0024,2.2067 -2.0431,2.6631 -3.5169,1.5408 -1.2536,-0.9548 -0.342,-3.3714 1.9201,-5.0875 0.7907,-0.6 1.2114,-0.8974 1.4831,-0.8755 z m 28.1129,1.4669 c 0.279,0.057 0.6066,0.3573 0.8984,0.9367 0.2506,0.497 0.078,1.2205 -0.3836,1.6082 -0.5473,0.4599 -0.9378,0.1255 -1.1237,-0.9614 -0.1877,-1.0943 0.145,-1.6778 0.6089,-1.5835 z m -3.3717,0.5146 c 0.5246,0.028 1.1974,2.9484 1.069,4.6426 -0.1026,1.3504 -2.616,1.0242 -4.3559,-0.5659 -1.3981,-1.2774 -1.384,-1.337 0.6781,-2.705 1.1593,-0.7691 2.3333,-1.386 2.6088,-1.3717 z m -143.9539,16.0722 c 1.4426,0.024 3.262,0.081 5.541,0.1687 6.0139,0.2331 17.1722,0.6348 24.7971,0.8917 7.6245,0.2567 22.5735,1.0348 33.2191,1.7288 10.6454,0.694 30.1975,1.9715 43.45,2.8382 13.2524,0.8667 28.6815,2.2844 34.2868,3.1503 l 10.1915,1.5745 -12.661,-0.5867 c -6.9634,-0.3222 -26.1658,-1.5134 -42.672,-2.647 -16.5063,-1.1336 -35.7338,-2.0489 -42.7265,-2.0336 -6.993,0.024 -19.6644,-0.2162 -28.1594,-0.5136 -8.495,-0.2983 -18.7425,-0.6558 -22.7726,-0.7941 -4.0485,-0.1378 -7.3001,-0.5661 -7.2663,-0.9544 0.034,-0.3865 -0.093,-1.2377 -0.2805,-1.8909 -0.214,-0.7429 0.725,-0.9999 5.0528,-0.9324 z" fill="#00B894" transform="translate(-32.15777,-2.4596445) translate(-2613.9244,-2446.0871)"/>
</svg>