<?xml version="1.0" ?><svg height="104.06084mm" viewBox="0 0 151.7148 104.06084" width="151.7148mm" xmlns="http://www.w3.org/2000/svg">
    <path d="m 2892.1281,2579.0091 c -3.1446,-5.6602 -3.727,-8.3855 0.3786,-12.4472 4.1055,-4.0617 135.6873,-77.5397 138.5408,-79.2692 2.8536,-1.7295 5.882,-1.9916 1.1065,5.8961 -4.7752,7.8876 -24.284,32.52 -33.456,41.0889 -9.1718,8.569 -29.4084,22.3526 -29.4084,22.3526 l -9.5216,-11.137 c 0,0 -18.315,10.4557 -24.1676,16.4828 -5.8526,6.0271 -20.0035,13.4692 -26.7589,17.7406 -6.7553,4.2713 -12.142,2.3846 -16.7134,-0.7076 z" fill="#FFFFFF" paint-order="markers stroke fill" transform="translate(-256.37993,-20.961126) translate(-2630.5241,-2461.0715)"/>
    <path d="m 3036.7653,2482.0383 c -1.4214,-0.1245 -5.6938,1.8018 -12.3716,5.5749 -5.6106,3.1703 -13.2048,7.2389 -16.8761,9.041 -3.6716,1.8018 -10.6556,5.647 -15.5205,8.5454 -4.865,2.8982 -17.7242,10.2279 -28.5752,16.2875 -40.7062,22.7308 -46.0759,25.8429 -58.7452,34.0532 -7.1402,4.6274 -14.0035,9.7001 -15.2521,11.2721 -4.7367,5.964 -2.5188,15.1084 4.3226,17.8231 1.2137,0.4815 4.2078,1.08 6.6534,1.3302 3.6168,0.3699 5.5864,0 10.554,-1.9505 5.288,-2.0822 8.4273,-4.3288 23.3862,-16.7422 9.503,-7.8859 17.6109,-14.324 18.0176,-14.3069 0.4068,0.024 2.0667,-0.9168 3.6887,-2.0762 1.6218,-1.1594 3.199,-2.0866 3.5054,-2.0598 0.3064,0.026 1.7189,1.9569 3.1384,4.2899 2.6966,4.4317 6.3105,7.392 7.9906,6.5449 4.169,-2.1021 25.86,-19.2268 32.3872,-25.5696 16.0605,-15.6067 33.0339,-39.1884 35.2086,-48.9174 0.6237,-2.7899 0.541,-2.9615 -1.512,-3.1396 z m -3.8053,6.0599 c 0.6497,0.056 -4.312,8.0113 -8.8786,14.2347 -4.3715,5.9569 -16.3782,19.4214 -23.1987,26.0137 -2.6557,2.5671 -10.3058,9.0022 -16.9997,14.301 -6.6938,5.2989 -12.5668,9.596 -13.0511,9.548 -0.4845,-0.047 -2.4285,-2.193 -4.3194,-4.7681 -1.8911,-2.5751 -3.8867,-4.7217 -4.4359,-4.7694 -0.5491,-0.047 -2.4595,0.8178 -4.2448,1.9224 l -3.2467,2.0088 -2.9763,-4.7402 c -1.6373,-2.6073 -2.8152,-4.9585 -2.6174,-5.224 0.1974,-0.2658 6.8849,-4.1678 14.8596,-8.6714 7.9746,-4.5034 20.1951,-11.6817 27.1563,-15.9517 6.9613,-4.2698 16.0478,-9.5605 20.1931,-11.7583 4.145,-2.1977 10.628,-5.8394 14.4069,-8.0919 3.779,-2.2525 7.0872,-4.0767 7.3527,-4.0536 z m -88.8998,51.3995 c 0.505,0.045 4.0228,6.8646 4.8824,9.4663 0.1245,0.3788 -0.6046,1.1692 -1.6205,1.7569 -4.7275,2.7347 -14.8606,9.9304 -23.603,16.7596 -5.3716,4.196 -11.7703,8.4242 -14.5259,9.5993 -3.9488,1.6841 -5.8457,2.017 -9.569,1.6742 -5.4054,-0.4974 -6.8977,-1.3575 -8.3111,-4.7893 -1.0123,-2.4579 -0.9778,-2.5462 1.8746,-4.7903 5.9586,-4.6878 49.0672,-29.8334 50.8725,-29.6767 z m -11.5043,10.5587 c -0.3689,0.035 -0.758,0.1316 -1.161,0.3043 -2.0124,0.8621 -2.9213,2.913 -1.9271,4.3473 1.13,1.6301 3.2742,1.6512 4.999,0.049 2.2231,-2.0657 0.672,-4.9402 -1.9109,-4.7008 z m -29.798,18.7893 c -1.9176,0.2279 -3.6656,2.6637 -2.8855,4.4848 0.8661,2.0213 3.1355,2.1432 5.1448,0.2763 1.9008,-1.7658 1.1956,-4.087 -1.434,-4.7169 -0.274,-0.066 -0.5513,-0.078 -0.8253,-0.045 z" fill="#00B894" transform="translate(-256.37993,-20.961126) translate(-2630.5241,-2461.0715)"/>
</svg>