<?xml version="1.0" ?><svg height="130.78719mm" viewBox="0 0 200.0316 130.78719" width="200.0316mm" xmlns="http://www.w3.org/2000/svg">
    <path d="m 15207.705,21041.691 c -1.129,7.185 51.691,10.015 88.464,5.516 36.773,-4.5 65.804,-24.966 65.804,-24.966 0,0 2.661,-10.233 20.725,-5.371 18.064,4.863 132.513,25.529 171.938,14.724 39.425,-10.805 60.163,-4.024 75.801,-14.89 15.638,-10.865 7.493,-32.928 11.203,-55.426 3.709,-22.498 -1.259,-31.428 59.465,-80.126 60.723,-48.698 77.255,-72.793 63.788,-94.202 -13.468,-21.41 -29.757,-10.741 -36.37,-3.048 -6.613,7.692 -27.096,20.03 -27.096,20.03 0,0 17.822,-37.594 20.806,-72.212 2.984,-34.618 -3.548,-111.33 -37.176,-102.331 -33.628,9 -23.467,26.273 -21.693,40.134 1.774,13.862 -1.209,57.625 -9.838,57.915 -8.629,0.29 -53.627,-8.419 -53.627,-8.419 0,0 25.402,-66.478 27.741,-84.767 2.338,-18.289 -1.874,-37.079 -23.809,-40.345 -21.934,-3.266 -28.628,14.588 -31.45,24.676 -2.822,10.087 -8.145,51.6 -36.611,63.575 -28.467,11.975 1.774,-3.411 -19.274,-8.418 -21.048,-5.008 -45.482,10.886 -45.482,10.886 0,0 4.355,-25.619 13.951,-55.883 9.596,-30.264 13.225,-54.576 -3.226,-61.979 -16.451,-7.403 -44.353,2.468 -48.788,14.297 -4.435,11.83 -14.919,43.328 -14.919,43.328 0,0 -18.709,-10.959 -23.305,-31.208 -4.597,-20.248 -10.968,-19.45 -27.016,-16.039 -16.047,3.411 -25.886,14.66 -18.144,41.295 7.742,26.635 50.321,84.768 56.611,102.912 6.29,18.143 0.08,57.132 -30.967,59.22 -19.549,1.316 -52.623,9.215 -55.556,21.87 l -18.548,-29.103 c 0,0 16.532,-26.127 19.919,-40.351 3.386,-14.225 -3.387,-37.159 -28.225,-37.014 -24.838,0.146 -46.611,19.523 -54.676,33.24 -8.064,13.716 -21.37,22.063 -21.37,22.063 0,0 -1.613,-55.956 -4.112,-67.132 -2.5,-11.177 -12.051,-24.957 -36.728,-18.788 -24.676,6.169 -27.015,33.022 -27.821,41.585 -0.807,8.564 -47.821,-3.846 -62.175,-1.669 -14.355,2.177 -28.225,18.507 -12.984,33.53 15.242,15.023 23.467,18.361 24.919,30.844 1.451,12.483 -0.726,12.556 -24.838,17.636 -24.112,5.08 -48.305,19.668 -44.111,36.868 4.193,17.2 19.273,19.958 47.175,17.345 27.903,-2.612 45.16,-12.265 53.95,-0.871 8.79,11.395 12.338,20.902 -6.29,30.482 -18.628,9.58 -59.353,1.814 -68.707,22.643 -9.355,20.829 -1.936,45.795 17.419,49.351 19.354,3.557 39.111,-11.975 55.884,-16.184 16.774,-4.209 12.016,8.346 12.016,8.346 0,0 -39.031,42.529 -19.273,62.415 19.757,19.885 34.998,14.37 55.078,8.418 20.08,-5.951 37.221,5.342 31.548,35.598 z" fill="#FFFFFF" transform="translate(-176.66275,-188.60645) matrix(0.26458333,0,0,0.26458333,-3796.9615,-5249.9197)"/>
    <path d="m 15203.657,21032.894 c -2.713,-19.738 -8.641,-22.883 -30.916,-16.409 -22.699,6.599 -30.973,5.83 -44.773,-4.166 -20.634,-14.948 -25.007,-34.023 -13.406,-58.499 12.277,-25.905 27.01,-35.775 53.396,-35.775 12.345,0 15.926,1.3 22.99,8.365 4.601,4.603 8.366,10.373 8.366,12.826 0,5.801 -12.15,8.786 -19.58,4.81 -9.054,-4.844 -26.803,-3.623 -36.067,2.484 -10.717,7.065 -21.598,24.925 -21.617,35.48 -0.02,9.686 14.537,24.762 23.901,24.759 3.376,0 12.912,-2.576 21.193,-5.723 8.282,-3.149 18.837,-5.722 23.455,-5.722 8.923,0 22.402,9.969 23.218,17.173 1.3,11.486 -0.588,25.208 -4.139,30.064 -3.591,4.912 -4.137,4.04 -6.021,-9.667 z m 350.979,-1.3 c -5.309,-6.397 -9.106,-43.565 -9.536,-93.334 -0.384,-44.7 0.04,-48.715 7.407,-70.306 4.297,-12.592 9.661,-25.749 11.922,-29.237 6.056,-9.34 5.169,-9.834 -5.909,-3.297 -5.575,3.288 -10.017,4.518 -10.017,2.773 0,-6.352 20.116,-25.128 38.339,-35.785 16.379,-9.578 18.382,-11.653 15.843,-16.4 -2.227,-4.158 -1.864,-5.836 1.543,-7.144 2.449,-0.94 6.143,-0.307 8.211,1.41 7.112,5.902 34.367,-28.721 32.854,-41.736 -0.742,-6.381 -2.857,-8.244 -11.72,-10.326 -18.79,-4.418 -29,-0.533 -43.642,16.606 -21.118,24.719 -50.832,40.372 -57.171,30.115 -0.996,-1.612 1.315,-2.861 5.3,-2.861 8.294,0 31.389,-17.469 42.692,-32.294 4.358,-5.715 11.018,-19.14 14.803,-29.834 3.785,-10.695 10.83,-30.392 15.654,-43.775 11.13,-30.871 11.691,-48.937 1.823,-58.805 -7.858,-7.857 -12.237,-8.558 -22.955,-3.675 -5.588,2.546 -8.38,7.183 -11.639,19.32 -6.109,22.756 -17.688,44.729 -28.637,54.34 -8.962,7.87 -9.284,8.832 -6.551,19.595 2.602,10.25 1.734,13.989 -9.188,39.645 -10.737,25.218 -12.33,31.917 -14.506,61.054 -1.346,18 -3.644,33.924 -5.105,35.385 -5.766,5.766 -8.879,-1.908 -8.832,-21.771 0.07,-26.679 5.919,-53.731 17.186,-79.4 10.182,-23.195 9.963,-35.061 -0.822,-44.769 -10.362,-9.325 -12.931,-9.936 -22.005,-5.244 -10.592,5.477 -16.027,15.617 -23.014,42.935 -6.141,24.015 -13.853,40.533 -22.628,48.468 -9.169,8.292 -10.04,3.808 -2.26,-11.624 8.629,-17.116 13.549,-46.211 13.236,-78.28 -0.258,-26.357 0.82,-31.073 14.202,-62.097 10.926,-25.332 11.422,-37.557 1.887,-46.517 -5.961,-5.599 -8.868,-6.291 -19.646,-4.673 -14.982,2.244 -22.918,9.693 -29.15,27.361 -2.456,6.961 -6.543,14.948 -9.078,17.753 -5.874,6.488 -1.771,12.136 12.148,16.728 10.458,3.454 13.459,12.215 5.261,15.362 -18.83,7.225 -39.524,-11.099 -50.253,-44.494 -7.069,-21.999 -10.177,-24.738 -24.105,-21.243 -3.781,0.948 -8.846,5.534 -11.252,10.187 -6.992,13.52 0.957,40.448 19.108,64.726 3.646,4.878 14.68,19.479 24.519,32.447 17.806,23.47 17.887,23.667 17.887,42.701 0,15.754 -1.277,21.005 -7.257,29.804 -3.994,5.875 -9.146,10.684 -11.448,10.684 -5.786,0 -5.249,-3.609 1.884,-12.678 10.482,-13.324 6.556,-27.359 -16.065,-57.446 -31.178,-41.465 -47.623,-82.058 -43.071,-106.322 2.958,-15.769 15.059,-27.062 30.914,-28.849 17.423,-1.964 25.637,3.338 30.492,19.679 2.032,6.85 5.579,16.96 7.879,22.47 3.942,9.438 4.414,9.706 8.166,4.633 2.19,-2.963 5.449,-12.455 7.243,-21.092 4.718,-22.732 16.973,-35.345 36.124,-37.187 33.003,-3.171 47.632,28.315 31.283,67.328 -7.413,17.69 -16.038,45.197 -16.038,51.15 0,2.389 3.669,1.2 10.419,-3.381 13.336,-9.05 26.027,-8.989 39.562,0.193 8.565,5.813 11.531,6.58 14.844,3.832 9.491,-7.876 15.733,-20.653 22.132,-45.29 7.614,-29.31 12.188,-35.966 27.973,-40.694 9.252,-2.773 12.779,-2.465 22.63,1.979 14.773,6.661 19.863,16.529 19.863,38.509 0,18.976 -6.938,42.8 -20,68.673 l -8.203,16.251 15.518,-1.288 c 20.348,-1.688 32.252,3.324 37.451,15.766 3.602,8.625 3.462,10.899 -1.353,21.688 -7.661,17.177 -30.238,41.016 -52.141,55.055 -16.427,10.529 -19.795,14.252 -26.585,29.384 -19.985,44.532 -25.243,100.737 -15.123,161.709 4.042,24.358 4.392,31.762 1.652,35.063 -5.492,4.747 -8.018,3.822 -10.949,0.387 z m -201.75,-12.882 c -6.226,-6.881 -5.977,-15.914 1.075,-38.741 4.454,-14.422 8.312,-20.917 16.51,-27.799 10.102,-8.482 34.696,-19.81 43.021,-19.814 6.09,0 41.507,-14.643 46.998,-19.425 3.068,-2.672 5.008,-8.434 5.008,-14.869 0,-10.824 -5.912,-18.645 -19.32,-25.559 -8.794,-4.533 -8.097,-8.846 1.432,-8.831 26.11,0.02 44.857,35.42 29.268,55.239 -7.348,9.342 -30.414,20.304 -55.938,26.585 -40.352,9.93 -48.851,18.468 -51.833,52.051 -2.277,25.657 -6.807,31.568 -16.221,21.163 z m 183.136,3.248 c -3.224,-3.225 -1.963,-6.602 2.463,-6.602 2.361,0 4.293,1.214 4.293,2.695 0,3.608 -4.47,6.193 -6.756,3.907 z m 52.479,-5.256 c -5.547,-6.684 1.248,-12.843 7.391,-6.702 3.795,3.796 3.847,4.891 0.361,7.784 -3.168,2.628 -4.869,2.392 -7.752,-1.082 z m 41.936,0 c -3.021,-7.867 -1.926,-27.607 2.594,-46.777 3.163,-13.423 3.466,-19.258 1.142,-22.057 -3.529,-4.253 -0.914,-10.806 3.277,-8.218 1.474,0.912 3.438,-0.675 4.361,-3.53 8.241,-25.47 19.399,-38.915 45.116,-54.356 31.151,-18.704 59.671,-41.75 68.269,-55.165 6.905,-10.774 8.056,-14.994 6.663,-24.469 -1.657,-11.289 -9.904,-21.467 -17.393,-21.467 -5.807,0 -20.243,13.255 -43.546,39.986 -25.937,29.748 -40.371,40.157 -55.676,40.157 -17.523,0 -30.912,-8.867 -30.912,-20.477 0,-1.558 3.508,-0.07 7.795,3.295 14.659,11.53 37.8,1.679 61.66,-26.249 14.584,-17.073 29.044,-53.529 33.414,-84.249 2.508,-17.631 -0.335,-56.068 -5.593,-75.659 -5.839,-21.743 -21.379,-28.675 -35.32,-15.754 -7.204,6.674 -7.573,8.398 -7.573,35.228 0,21.201 -1.103,29.594 -4.441,33.769 -4.354,5.446 -6.425,0.829 -4.826,-5.053 0.897,-3.299 1.638,-10.927 -0.82,-22.582 -4.877,-23.135 -3.667,-38.029 3.823,-47.038 22.46,-27.022 54.809,-17.976 65.366,18.281 3.065,10.523 4.735,27.123 4.791,47.636 0.09,34.398 -4.139,53.299 -16.755,74.826 -7.416,12.654 -7.676,15.417 -0.832,8.833 16.522,-15.898 32.2,-20.537 45.442,-13.45 14.14,7.567 18.59,37.24 8.542,56.938 -7.484,14.667 -32.556,36.23 -65.776,56.564 -14.955,9.153 -32.537,21.917 -39.069,28.361 -10.201,10.066 -12.33,14.335 -15.108,30.287 -1.779,10.214 -3.31,26.193 -3.4,35.51 -0.243,24.892 -3.439,39.625 -8.821,40.661 -2.533,0.488 -5.412,-1.214 -6.394,-3.782 z m -222.183,-8.492 c 0,-2.362 1.932,-4.293 4.293,-4.293 2.361,0 4.293,1.931 4.293,4.293 0,2.361 -1.932,4.294 -4.293,4.294 -2.361,0 -4.293,-1.933 -4.293,-4.294 z m -159.799,-1.411 c -12.721,-3.008 -26.269,-16.268 -26.152,-25.6 -0.446,-5.58 1.114,-5.963 5.826,0.348 6.92,9.271 22.48,14.916 34.087,12.367 10.778,-2.369 22.964,-16.667 22.964,-26.947 0,-10.049 2.263,-12.23 8.962,-8.645 13.044,6.981 0.969,37.366 -18.522,46.616 -10.756,5.103 -12.851,5.247 -27.165,1.861 z m 238.986,-1.929 c -3.005,-3.005 -2.225,-11.866 1.23,-14.002 4.453,-2.753 12.298,5.991 10.225,11.396 -1.771,4.613 -8.024,6.036 -11.455,2.606 z m 125.117,-5.109 c -2.052,-5.345 0.946,-10.156 6.327,-10.156 5.847,0 8.599,8.614 3.735,11.695 -5.69,3.602 -8.239,3.213 -10.062,-1.539 z m -149.921,-1.569 c 0,-1.574 1.363,-2.862 3.031,-2.862 1.666,0 2.235,1.288 1.262,2.862 -0.972,1.575 -2.338,2.863 -3.031,2.863 -0.696,0 -1.262,-1.288 -1.262,-2.863 z m -71.556,-8.587 c 0,-1.573 1.288,-2.861 2.864,-2.861 1.573,0 2.861,1.288 2.861,2.861 0,1.576 -1.288,2.864 -2.861,2.864 -1.576,0 -2.864,-1.288 -2.864,-2.864 z m 123.179,-1.305 c -4.291,-5.171 -1.535,-10.143 5.62,-10.143 2.962,0 6.218,1.344 7.234,2.988 1.897,3.07 -3.375,11.324 -7.234,11.324 -1.187,0 -3.718,-1.877 -5.62,-4.169 z m -101.696,-15.842 c -2.106,-3.409 3.3,-11.474 7.69,-11.474 3.801,0 1.605,12.192 -2.435,13.522 -1.825,0.601 -4.188,-0.321 -5.255,-2.048 z m 178.871,-1.456 c 0,-2.361 1.933,-4.293 4.294,-4.293 2.362,0 4.293,1.932 4.293,4.293 0,2.362 -1.931,4.294 -4.293,4.294 -2.361,0 -4.294,-1.932 -4.294,-4.294 z m -100.177,-1.432 c 0,-1.573 1.288,-2.861 2.862,-2.861 1.575,0 2.863,1.288 2.863,2.861 0,1.574 -1.288,2.862 -2.863,2.862 -1.574,0 -2.862,-1.288 -2.862,-2.862 z m 127.52,-2.618 c -0.924,-1.49 -0.457,-3.465 1.034,-4.386 1.492,-0.921 3.465,-0.455 4.388,1.034 0.921,1.493 0.455,3.468 -1.037,4.388 -1.49,0.921 -3.464,0.456 -4.385,-1.036 z m -98.714,-7.178 c -4.444,-5.354 -1.625,-10.238 5.908,-10.238 4.28,0 5.521,1.593 4.841,6.214 -1.142,7.767 -6.101,9.624 -10.749,4.024 z m -452.887,-12.707 c -11.377,-5.779 -22.421,-25.882 -22.421,-40.816 0,-21.858 25.807,-39.771 51.132,-35.493 9.377,1.584 11.5,0.65 21.275,-9.36 9.373,-9.597 10.273,-11.606 6.576,-14.674 -3.252,-2.7 -7.932,-2.842 -19.451,-0.588 -59.559,11.65 -86.892,3.946 -85.836,-24.19 0.524,-13.905 4.163,-19.299 19.773,-29.307 15.201,-9.745 32.954,-14.674 43.528,-12.085 8.885,2.176 11.3,8.698 3.219,8.698 -15.122,0 -45.942,21.114 -45.942,31.474 0,6.844 5.715,8.668 33.275,10.616 31.978,2.259 37.375,0.528 41.068,-13.188 8.131,-30.199 64.301,-55.195 95.105,-42.323 11.298,4.721 20.226,16.282 12.573,16.282 -2.325,0 -5.021,-1.288 -5.995,-2.861 -2.598,-4.206 -24.063,-3.487 -40.268,1.348 -15.896,4.744 -33.665,18.131 -39.794,29.982 -3.649,7.058 -3.531,8.967 1.086,17.577 3.456,6.445 7.936,10.229 13.458,11.368 9.904,2.046 21.155,8.718 21.155,12.55 0,1.513 4.984,-2.113 11.077,-8.063 11.383,-11.115 24.473,-15.911 43.776,-16.038 8.805,-0.07 12.311,-2.136 21.838,-12.959 6.24,-7.088 14.271,-20.711 17.845,-30.267 7.176,-19.19 15.808,-26.992 27.404,-24.775 6.476,1.236 8.14,-0.107 12.811,-10.402 7.483,-16.478 7.233,-37.277 -0.54,-45.053 -5.185,-5.181 -8.622,-5.873 -24.281,-4.875 -15.11,0.962 -19.653,2.515 -26.466,9.042 -4.525,4.334 -9.753,12.975 -11.619,19.2 -3.666,12.236 -11.295,18.789 -25.087,21.548 -10.251,2.05 -26.723,-5.259 -26.723,-11.858 0,-3.385 1.2,-3.68 5.536,-1.359 3.046,1.629 8.337,2.962 11.759,2.962 5.435,0 5.934,-0.996 3.937,-7.87 -1.258,-4.329 -2.501,-17.591 -2.761,-29.473 -0.453,-20.569 -4.123,-33.133 -11.029,-37.744 -5.379,-3.594 -24.5,-2.398 -33.14,2.072 -13.633,7.049 -16.304,26.759 -5.655,41.718 6.904,9.695 12.741,36.682 10.16,46.97 -2.706,10.781 -5.943,6.955 -10.127,-11.963 -4.433,-20.057 -10.351,-30.837 -19.127,-34.836 -9.982,-4.547 -33.642,-7 -47.428,-4.916 -20.543,3.106 -21.335,4.817 -9.727,20.977 9.19,12.792 13.829,29.493 8.14,29.306 -1.18,-0.04 -10.196,-7.672 -20.034,-16.964 -12.434,-11.74 -17.89,-19.023 -17.89,-23.872 0,-20.043 27.32,-31.296 62.392,-25.699 10.549,1.685 21.435,3.974 24.191,5.087 4.205,1.701 5.008,0.409 5.008,-8.079 0,-17.925 21.35,-36.32 42.126,-36.292 11.066,0.02 25.38,9.426 31.07,20.43 3.744,7.241 4.341,13.015 2.753,26.603 -2.787,23.819 -2.605,30.307 0.951,33.863 3.284,3.286 4.108,1.802 7.481,-13.452 3.007,-13.595 20.844,-29.057 39.914,-34.602 19.556,-5.685 32.816,-4.28 46.209,4.896 21.576,14.784 21.002,36.354 -1.947,73.358 -2.818,4.544 -3.061,7.019 -0.831,8.476 1.733,1.135 4.703,5.011 6.604,8.618 l 3.453,6.555 8.553,-7.195 c 20.86,-17.556 51.077,-16.28 79.848,3.368 17.069,11.654 28.621,29.74 28.621,44.798 0,12.239 -11.018,33.232 -20.21,38.509 -5.609,3.22 -8.364,7.571 -9.572,15.131 -2.106,13.166 -13.051,26.514 -28.536,34.796 -16.762,8.967 -64.058,9.237 -79.067,0.45 -10.43,-6.107 -19.661,-20.979 -19.898,-32.059 -0.193,-9.119 4.487,-7.991 7.941,1.916 5.721,16.411 12.601,20.264 36.18,20.264 26.595,0 49.602,-7.948 60.516,-20.912 l 7.698,-9.14 -15.449,-2.308 c -14.82,-2.887 -30.594,-3.335 -38.292,-16.034 -9.025,-15.211 -23.206,-28.885 -29.959,-28.885 -3.381,0 -9.306,3.409 -13.165,7.574 -6.838,7.375 -7.02,7.41 -7.02,1.29 0,-3.456 4.508,-10.927 10.018,-16.6 10.83,-11.152 12.957,-22.748 6.696,-36.494 -2.569,-5.638 -5.433,-7.289 -12.644,-7.289 -8.876,0 -9.467,0.689 -12.41,14.406 -5.75,26.814 -22.518,51.925 -39.375,58.969 -5.139,2.149 -16.45,3.904 -25.133,3.904 -13.263,0 -17.232,1.288 -24.788,8.039 -10.551,9.428 -9.836,15.336 3.733,30.79 7.015,7.99 10.684,9.829 19.614,9.829 12.513,0 17.304,4.221 7.71,6.79 -21.035,5.64 -38.921,-2.943 -49.943,-23.962 -13.385,-25.527 -28.565,-29.537 -47.396,-12.522 -14.354,14.039 -11.934,10.334 -32.064,8.509 -18.226,-1.651 -21.456,-1.177 -28.219,4.143 -11.271,8.868 -10.653,24.856 1.497,38.695 9.668,11.011 8.645,10.861 35.23,5.17 4.575,-1.931 8.269,-1.585 0.548,4.613 -11.877,9.533 -25.636,11.839 -36.8,6.167 z m 330.962,-81.742 c 10.894,-4.551 18.701,-17.041 18.701,-29.916 0,-26.601 -53.958,-50.594 -78.709,-35.003 -11.751,7.404 -29.621,23.8 -24.33,22.323 6.105,-1.704 24.912,8.344 29.819,15.932 2.278,3.523 5.049,10.268 6.162,14.991 3.323,21.629 34.302,17.091 48.357,11.673 z m 216.91,76.429 c -5.775,-2.071 -4.102,-9.392 2.146,-9.392 3.147,0 5.723,1.855 5.723,4.124 0,4.978 -3.028,7.005 -7.869,5.268 z m -102.479,-9.642 c -2.949,-4.772 3.686,-10.245 7.634,-6.296 3.301,3.303 1.236,9.408 -3.186,9.408 -1.389,0 -3.389,-1.399 -4.448,-3.112 z m 66.261,-10.751 c -0.99,-1.603 -0.406,-3.776 1.298,-4.83 4.401,-2.72 7.241,1.004 3.569,4.68 -2.057,2.054 -3.659,2.103 -4.867,0.15 z m 42.188,-2.072 c -0.947,-2.466 -0.254,-5.955 1.541,-7.749 4.027,-4.027 13.571,4.203 10.547,9.097 -2.858,4.624 -10.106,3.815 -12.088,-1.348 z m -92.553,-12.687 c 0,-1.575 1.932,-2.863 4.294,-2.863 2.36,0 4.293,1.288 4.293,2.863 0,1.574 -1.933,2.862 -4.293,2.862 -2.362,0 -4.294,-1.288 -4.294,-2.862 z m -27.906,-16.207 c -1.967,-0.794 -3.577,-3.913 -3.577,-6.928 0,-3.909 2.01,-5.487 6.985,-5.487 8.587,0 11.843,4.574 7.222,10.142 -3.63,4.375 -4.802,4.624 -10.63,2.273 z m 110.91,-2.397 c 0,-2.385 2.544,-4.293 5.725,-4.293 3.18,0 5.723,1.908 5.723,4.293 0,2.385 -2.543,4.294 -5.723,4.294 -3.181,0 -5.725,-1.909 -5.725,-4.294 z m -85.865,-12.88 c 0,-4.199 1.908,-5.725 7.155,-5.725 5.248,0 7.157,1.526 7.157,5.725 0,4.197 -1.909,5.725 -7.157,5.725 -5.247,0 -7.155,-1.528 -7.155,-5.725 z m 140.792,0.715 c 0.53,-2.755 2.862,-5.008 5.18,-5.008 2.318,0 4.649,2.253 5.179,5.008 0.677,3.514 -0.868,5.01 -5.179,5.01 -4.311,0 -5.856,-1.496 -5.18,-5.01 z m 35.632,-11.288 c -3.224,-3.224 -1.962,-6.6 2.463,-6.6 2.36,0 4.293,1.21 4.293,2.691 0,3.612 -4.47,6.195 -6.756,3.909 z m -162.112,-10.893 c 0,-2.362 1.931,-4.294 4.293,-4.294 2.361,0 4.293,1.932 4.293,4.294 0,2.36 -1.932,4.293 -4.293,4.293 -2.362,0 -4.293,-1.933 -4.293,-4.293 z m -30.208,-1.681 c -1.059,-1.711 -0.603,-4.433 1.013,-6.047 3.61,-3.611 9.158,-0.563 9.158,5.033 0,4.819 -7.366,5.554 -10.171,1.014 z m 183.89,-4.444 c -2.288,-2.286 0.299,-6.755 3.907,-6.755 1.481,0 2.692,1.931 2.692,4.293 0,4.426 -3.376,5.687 -6.599,2.462 z m 31.328,-5.88 c -3.224,-3.224 -1.964,-6.601 2.463,-6.601 2.361,0 4.293,1.213 4.293,2.694 0,3.609 -4.47,6.194 -6.756,3.907 z m -86.982,-7.315 c 0.657,-1.969 2.911,-3.579 5.01,-3.579 2.098,0 4.352,1.61 5.009,3.579 0.708,2.127 -1.32,3.576 -5.009,3.576 -3.69,0 -5.718,-1.449 -5.01,-3.576 z m 101.449,-3.979 c -2.286,-2.286 0.298,-6.755 3.907,-6.755 1.481,0 2.693,1.932 2.693,4.294 0,4.426 -3.379,5.686 -6.6,2.461 z m -262.448,-11.048 c 0,-2.949 1.877,-4.351 5.011,-3.748 6.032,1.161 5.652,6.241 -0.565,7.535 -2.593,0.54 -4.446,-1.037 -4.446,-3.787 z m 250.843,-3.417 c -3.422,-3.423 -1.848,-9.463 2.462,-9.463 2.361,0 4.294,1.855 4.294,4.124 0,4.782 -4.086,8.009 -6.756,5.339 z m -189.564,-7.677 c -2.426,-6.32 0.8,-9.546 5.173,-5.173 2.581,2.582 2.593,4.181 0.04,6.727 -2.546,2.547 -3.787,2.177 -5.219,-1.554 z m 118.087,2.031 c -3.293,-3.295 -2.084,-6.681 2.385,-6.681 2.361,0 4.293,1.933 4.293,4.294 0,4.471 -3.385,5.68 -6.678,2.387 z m -86.398,-9.632 c -1.112,-1.799 -0.676,-4.617 0.97,-6.264 3.847,-3.847 12.816,-0.491 11.25,4.209 -1.592,4.786 -9.691,6.146 -12.22,2.055 z m 108.665,-11.607 c -1.058,-1.713 -0.603,-4.433 1.011,-6.05 3.613,-3.61 9.16,-0.56 9.16,5.037 0,4.819 -7.365,5.551 -10.171,1.013 z m -193.046,-27.112 c 0,-2.454 1.288,-3.664 2.864,-2.693 1.573,0.973 2.861,2.981 2.861,4.462 0,1.483 -1.288,2.693 -2.861,2.693 -1.576,0 -2.864,-2.007 -2.864,-4.462 z m 131.662,-1.263 c 0,-1.573 1.933,-2.861 4.294,-2.861 2.362,0 4.293,1.288 4.293,2.861 0,1.576 -1.931,2.864 -4.293,2.864 -2.361,0 -4.294,-1.288 -4.294,-2.864 z m 81.666,-2.709 c -2.516,-4.071 0.693,-8.739 6.01,-8.739 2.507,0 3.944,2.012 3.409,4.772 -1.116,5.749 -6.83,8.155 -9.419,3.967 z m -14.282,-2.816 c -1.956,-3.164 2.561,-6.58 5.203,-3.937 2.72,2.722 2.214,6.601 -0.863,6.601 -1.481,0 -3.434,-1.198 -4.34,-2.664 z m 13.801,-21.645 c -0.992,-2.585 -0.432,-6.071 1.247,-7.746 4.36,-4.363 12.622,-0.377 11.485,5.539 -1.269,6.588 -10.442,8.177 -12.732,2.207 z m -193.705,-0.438 c -4.051,-4.051 -1.758,-9.599 3.966,-9.599 4.003,0 5.633,1.554 5.008,4.772 -1.021,5.267 -5.907,7.895 -8.974,4.827 z m -72.899,-4.316 c 1.486,-4.459 7.89,-5.238 8.113,-0.99 0.09,1.574 -1.997,3.308 -4.622,3.851 -2.983,0.618 -4.293,-0.455 -3.491,-2.861 z m 136.762,0.442 c 0,-1.575 2.006,-2.863 4.462,-2.863 2.454,0 3.667,1.288 2.693,2.863 -0.973,1.574 -2.98,2.862 -4.461,2.862 -1.482,0 -2.694,-1.288 -2.694,-2.862 z m -117.352,-17.173 c 0,-1.576 1.933,-2.864 4.294,-2.864 2.362,0 4.293,1.288 4.293,2.864 0,1.573 -1.931,2.861 -4.293,2.861 -2.361,0 -4.294,-1.288 -4.294,-2.861 z m 238.996,0 c -0.975,-1.576 0.313,-2.864 2.861,-2.864 2.548,0 3.836,1.288 2.862,2.864 -0.973,1.573 -2.261,2.861 -2.862,2.861 -0.601,0 -1.889,-1.288 -2.861,-2.861 z m -184.067,-5.01 c 0.53,-2.755 2.86,-5.009 5.178,-5.009 2.318,0 4.649,2.254 5.179,5.009 0.677,3.513 -0.867,5.01 -5.179,5.01 -4.311,0 -5.856,-1.497 -5.178,-5.01 z m 74.377,-10.884 c 1.295,-6.217 6.373,-6.597 7.537,-0.565 0.603,3.132 -0.8,5.009 -3.751,5.009 -2.749,0 -4.327,-1.851 -3.786,-4.444 z m -132.167,-19.885 c 0,-2.947 1.876,-4.351 5.008,-3.748 6.035,1.162 5.655,6.241 -0.564,7.535 -2.594,0.541 -4.444,-1.037 -4.444,-3.787 z m 138.762,1.34 c -1.112,-1.799 -0.676,-4.615 0.97,-6.262 3.847,-3.846 12.816,-0.492 11.25,4.208 -1.592,4.785 -9.691,6.145 -12.22,2.054 z m -191.713,-8.494 c -1.142,-1.851 -0.788,-4.65 0.785,-6.224 1.909,-1.908 3.556,-1.743 4.94,0.499 1.142,1.848 0.79,4.649 -0.786,6.222 -1.908,1.909 -3.554,1.744 -4.939,-0.497 z m 184.611,-8.587 c 0,-1.576 1.288,-2.864 2.864,-2.864 1.573,0 2.861,1.288 2.861,2.864 0,1.574 -1.288,2.862 -2.861,2.862 -1.576,0 -2.864,-1.288 -2.864,-2.862 z m -186.04,-17.173 c 0,-1.576 1.288,-2.864 2.861,-2.864 1.574,0 2.862,1.288 2.862,2.864 0,1.573 -1.288,2.861 -2.862,2.861 -1.573,0 -2.861,-1.288 -2.861,-2.861 z m 204.645,-5.725 c 0.973,-1.574 2.983,-2.862 4.464,-2.862 1.481,0 2.691,1.288 2.691,2.862 0,1.573 -2.007,2.861 -4.46,2.861 -2.456,0 -3.667,-1.288 -2.695,-2.861 z m -142.573,-4.71 c -3.731,-3.733 -1.949,-6.739 3.994,-6.739 3.332,0 5.464,1.501 4.831,3.399 -1.394,4.181 -6.172,5.991 -8.825,3.34 z m -90.147,-6.953 c 0.564,-1.694 2.25,-3.079 3.744,-3.079 1.496,0 3.181,1.385 3.746,3.079 0.564,1.691 -1.12,3.076 -3.746,3.076 -2.623,0 -4.308,-1.385 -3.744,-3.076 z m -4.995,-17.208 c -2.499,-4.042 3.019,-9.559 7.06,-7.059 1.711,1.055 3.111,3.777 3.111,6.046 0,4.82 -7.365,5.551 -10.171,1.013 z m 100.806,1.202 c -3.293,-3.293 -2.084,-6.678 2.385,-6.678 2.362,0 4.294,1.932 4.294,4.293 0,4.47 -3.386,5.678 -6.679,2.385 z m 14.373,-11.388 c -3.734,-3.733 -1.952,-6.738 3.994,-6.738 3.33,0 5.464,1.501 4.831,3.398 -1.396,4.184 -6.175,5.991 -8.825,3.34 z m -13.417,-12.463 c 0,-1.574 1.288,-2.862 2.861,-2.862 1.574,0 2.862,1.288 2.862,2.862 0,1.573 -1.288,2.861 -2.862,2.861 -1.573,0 -2.861,-1.288 -2.861,-2.861 z" fill="#00B894" transform="translate(-176.66275,-188.60645) matrix(0.26458333,0,0,0.26458333,-3796.9615,-5249.9197)"/>
</svg>