<?xml version="1.0" ?><svg height="184.00044mm" viewBox="0 0 175.60112 184.00044" width="175.60112mm" xmlns="http://www.w3.org/2000/svg">
    <path color="#000" d="m 8809.3794,1930.1164 c -13.2164,-48.9304 -13.1373,-141.8057 88.7161,-140.5236 101.8534,1.282 86.8168,127.8458 73.8378,149.569 -12.979,21.7231 0.8258,29.2378 18.9145,6.7662 27.0845,-33.6471 39.2045,-124.629 -22.7924,-171.7194 l 18.9145,-28.4182 c 39.1024,-4.0953 83.6114,-5.5717 31.8144,-53.7024 l 18.598,-21.4382 c 57.248,25.199 139.942,-10.9692 19.864,-58.3319 -34.369,-17.4235 -12.24,-56.6697 36.721,-49.8563 65.194,18.9879 70.452,-57.8533 6.336,-51.3776 -32.516,6.9288 -22.516,-16.8665 -13.295,-40.0987 18.746,-34.7634 -39.468,-55.4181 -62.521,6.1965 -20.2498,47.0065 4.473,133.2599 -61.6678,140.2181 -46.3794,-1.0607 -9.4995,30.6448 1.4246,52.1355 28.3336,12.4981 -11.2562,57.1378 -27.066,90.5248 -19.4673,-9.9244 -49.6855,-5.4699 -84.2842,4.8432 -6.8198,-25.8095 -43.9878,-48.0222 -4.9067,-79.2716 14.5346,-24.8467 7.931,-39.5817 -24.3752,-42.0217 -20.3968,6.9112 -43.0739,-56.2544 -29.5984,-126.92 17.2938,-41.0025 -25.0043,-106.0343 -56.2686,-28.8454 -3.0139,12.1922 -5.4334,24.8241 -38.4622,14.8144 -36.195,-8.9786 -74.4566,47.5657 -1.3453,47.5772 34.8276,7.2876 36.0821,22.4852 2.295,45.939 -51.3222,23.0556 -27.2483,58.4006 17.8066,45.2269 56.3177,-9.6973 45.1197,51.5604 27.4616,53.8448 -45.1424,15.1596 -15.6617,25.2032 22.001,34.6858 43.1682,-7.2424 50.5861,51.9162 33.0014,61.5369 -13.4427,10.5465 -51.5988,82.2483 -18.5354,138.8888 15.1244,25.9095 45.4848,30.8539 27.4117,-0.2421 z" fill="#FFFFFF" overflow="visible" paint-order="fill markers stroke" transform="translate(-26.014637,86.009942) matrix(0.34817918,0,0,0.34817918,-2985.6492,-585.00367)"/>
    <path d="m 8962.2605,1950.8904 c 1.8021,-5.8995 6.2371,-17.9606 9.8559,-26.8023 14.556,-35.5631 2.3556,-88.3538 -25.4793,-110.2489 -18.5781,-14.6135 -55.3502,-24.0884 -73.3987,-18.9122 -23.0532,6.6116 -45.4881,23.9345 -56.5978,43.7022 -14.1327,25.1453 -14.8668,67.9279 -1.5537,90.4926 12.2782,20.8098 8.1306,30.4202 -11.0501,25.6061 -18.1524,-4.5559 -24.8014,-10.6539 -32.9935,-30.2603 -8.1945,-19.6123 -9.0154,-69.3687 -1.5189,-92.0482 2.9462,-8.9128 11.6918,-24.3287 19.4349,-34.2575 11.1793,-14.3358 13.6173,-21.4694 11.841,-34.6489 -3.3271,-24.6891 -10.1858,-30.2454 -36.5943,-29.6439 -47.4508,1.0809 -68.5995,-38.5365 -23.8746,-44.7232 14.9636,-2.0699 18.2492,-18.7506 7.058,-35.831 -8.2484,-12.5883 -11.0463,-12.8085 -53.7684,-4.231 -13.0109,2.6121 -30.2786,-11.9171 -29.5663,-25.9152 0.7818,-15.3613 5.6325,-18.38 18.3507,-26.4092 26.0552,-16.4494 44.3688,-20.3579 34.6063,-32.5894 -3.9754,-4.981 -13.7632,-7.7734 -26.2597,-7.7734 -21.1539,0 -40.9992,-10.4786 -40.9992,-21.648 0,-3.743 2.7149,-16.3806 10.3321,-24.9056 11.3777,-12.734 20.6377,-12.7935 35.6966,-12.3032 10.0814,0.328 21.3727,1.3699 25.0912,2.3148 4.4865,1.1399 8.3352,-4.6357 11.4373,-17.1626 8.951,-36.1441 36.1418,-45.7893 61.7131,-21.891 18.0967,13.0754 13.8361,19.0816 9.0068,39.3302 -10.7173,44.9374 -11.5616,57.1941 -5.8127,84.3734 10.3374,48.8719 13.1058,52.936 36.0593,52.936 18.101,0 21.0739,1.6403 27.6752,15.2705 8.2154,16.9635 6.0935,23.7932 -12.9185,41.5762 -14.8682,13.9076 -15.5309,23.6421 -2.7183,39.931 5.3008,6.7387 8.0491,14.1742 8.9702,16.1366 3.6565,7.7906 3.1526,9.7645 11.1879,5.6219 5.9495,-3.0671 23.6133,-5.3969 39.3635,-4.9665 l 28.6372,0.7825 17.844,-28.5464 c 9.8144,-15.7006 17.844,-31.4021 17.844,-34.8923 0,-3.4902 -5.0872,-11.1249 -11.3047,-16.966 -15.7664,-14.8118 -30.5884,-37.6914 -27.3457,-47.0799 2.9319,-8.4887 10.4156,-10.7041 18.7202,-10.7041 34.4623,0 53.3012,-16.8192 53.3012,-47.5869 0,-7.572 2.1391,-19.3933 4.7536,-26.2697 2.614,-6.8763 5.933,-24.6529 7.375,-39.5035 1.443,-14.8506 7.377,-35.6438 13.187,-46.2073 9.515,-17.298 12.62,-19.3542 31.25,-20.696 35.293,-2.5417 48.978,20.8948 30.482,52.2043 -9.484,16.0562 -3.985,23.2932 14.95,19.6735 5.942,-1.1357 18.598,1.1922 28.126,5.1732 21.19,8.8537 27.267,25.9936 15.556,43.8687 -11.265,17.1909 -27.431,22.1048 -53.502,16.2622 -25.34,-5.6788 -35.125,-3.5362 -43.247,9.4687 -9.123,14.6085 -2.657,22.7505 24.967,31.4395 24.905,7.8334 45.63,24.5808 51.689,41.7682 1.993,5.6533 -0.965,12.6071 -8.619,20.261 -13.06,13.0599 -37.826,15.48 -64.227,6.2763 -12.792,-4.459 -16.746,-4.0567 -23.159,2.3563 -7.133,7.1331 -6.302,9.1995 10.706,26.6176 14.934,15.2937 17.359,20.1866 12.755,25.7346 -9.382,11.3049 -31.016,15.3333 -41.451,13.7001 -14.3246,-2.2421 -25.1502,2.8146 -27.7603,9.8 -1.865,4.9911 -4.4565,8.9689 -10.9119,15.9102 57.5272,47.0813 47.9332,99.5886 36.7322,138.6253 -10.769,35.4566 -22.7898,49.1364 -43.1761,49.1364 -8.1874,0 -9.4236,-1.9651 -6.7477,-10.7265 z m 24.7475,-8.4067 c 9.2777,-10.8355 19.8391,-51.1102 19.9853,-76.2128 0.119,-20.8649 -13.0336,-50.3511 -32.2072,-72.1885 -10.5462,-12.0114 -22.9321,-19.2341 -43.84,-25.5645 -27.739,-8.3988 -30.7462,-8.4382 -62.4907,-0.8194 -39.8742,9.5697 -67.5521,29.7355 -80.8362,58.8964 -15.3345,33.6613 -10.0104,106.1761 8.3118,113.207 10.9247,4.1924 11.5397,2.2005 5.7713,-18.6926 -2.8128,-10.1852 -4.3068,-34.4903 -3.3214,-54.0112 1.4612,-21.5641 3.9173,-37.4165 24.6793,-56.2136 28.2453,-25.5722 49.906,-32.1475 84.3702,-25.6115 38.8869,7.3748 64.4157,27.3243 79.2477,61.9287 9.5742,22.3374 5.8104,63.788 -7.8998,87.0032 -11.1918,18.9497 -5.666,24.508 8.2297,8.2788 z m -151.3307,-181.1663 c 4.6749,-3.0688 5.4743,-3.0407 2.1839,-8.2698 -1.7929,-2.8489 -7.907,-12.7068 -11.4996,-23.8672 -6.4163,-19.9312 -6.2595,-20.6315 8.8366,-39.4164 19.7672,-24.5974 17.1351,-40.4246 -6.0954,-36.6548 -21.6569,3.5144 -31.2849,-5.9572 -38.5074,-37.8827 -12.3449,-54.5681 -13.1039,-71.5729 -4.4236,-99.1109 10.5524,-33.4765 4.8784,-50.2976 -16.9668,-50.2976 -15.7807,0 -21.101,6.9803 -25.9918,34.1026 -4.1241,22.8684 -27.6784,32.0295 -41.0202,15.954 -8.1749,-9.8502 -20.7286,-8.9518 -30.8267,2.2061 -13.7337,15.1754 -6.4116,22.3391 25.8192,25.2618 31.6591,2.8707 43.1459,9.0977 43.1459,23.3892 0,11.7268 -20.6853,32.5706 -32.3232,32.5706 -4.906,0 -14.0001,5.4074 -20.2091,12.0165 -10.5824,11.2644 -10.7865,12.5189 -3.2618,20.0438 6.853,6.8531 10.3503,7.1874 23.9066,2.2854 23.0175,-8.3232 34.5844,-7.1238 48.0696,4.9845 11.3009,10.1469 15.1186,17.6825 13.3618,43.8922 -0.5969,8.9063 -3.7237,16.8908 -17.3444,16.8908 -9.0221,0 -17.5794,1.9022 -19.0162,4.2271 -5.2379,8.4749 10.4127,14.5216 34.9476,13.5023 22.268,-0.9251 26.4356,0.4776 36.6362,12.332 6.3305,7.3568 11.5097,17.1893 11.5097,21.8502 0,14.4331 6.8415,18.0173 19.0691,9.9903 z m 133.4844,-10.7566 c 6.6308,-14.2704 9.0593,-15.4972 33.371,-16.8555 35.2616,-1.97 38.7296,-6.8553 19.1796,-27.0248 -15.9569,-16.4635 -16.0098,-16.667 -6.956,-26.671 16.947,-18.7263 25.275,-20.4986 52.629,-11.2007 24.521,8.3352 25.637,8.3288 35.061,-0.2002 5.354,-4.8451 9.734,-12.7989 9.734,-17.6751 0,-9.6561 -25.771,-27.7483 -39.566,-27.777 -12.553,-0.024 -35.089,-12.7526 -38.549,-21.7691 -4.014,-10.4606 6.152,-30.1161 21.417,-41.4075 11.825,-8.7471 13.529,-8.8183 35.171,-1.4707 20.333,6.9033 23.904,6.9614 33.692,0.5479 6.022,-3.9456 12.361,-11.6244 14.088,-17.0642 5.087,-16.0289 -5.651,-23.7347 -33.076,-23.7347 -13.599,0 -28.714,-2.9168 -33.59,-6.4818 -8.58,-6.2737 -8.522,-7.036 1.799,-23.7355 6.183,-10.0041 10.025,-22.8046 9.145,-30.4647 -1.238,-10.7751 -4.155,-13.4694 -15.82,-14.6119 -12.239,-1.1988 -16.193,1.518 -27.412,18.8316 -7.939,12.2525 -13.148,26.9072 -13.205,37.1556 -0.177,30.9541 -12.414,93.1835 -20.8654,106.0812 -6.4311,9.8148 -13.962,13.6173 -32.9592,16.6412 -16.0901,2.5611 -25.1108,6.4471 -26.0285,11.2128 -0.7723,4.0114 8.2112,17.3289 19.9635,29.5944 29.9124,27.3739 19.361,25.5862 -0.7828,58.5527 -18.1886,29.7667 -20.9174,37.032 -15.2549,40.6147 10.0447,6.3548 10.9615,5.8146 18.8147,-11.0878 z" fill="#00B894" transform="translate(-26.014637,86.009942) matrix(0.34817918,0,0,0.34817918,-2985.6492,-585.00367)"/>
</svg>