<?xml version="1.0" ?><svg height="187.80638mm" viewBox="0 0 175.04164 187.80638" width="175.04164mm" xmlns="http://www.w3.org/2000/svg">
    <path d="m 33171.196,26300.635 c 16.999,-31.837 97.349,-107.665 112.976,-126.651 15.627,-18.986 111.473,-35.159 111.473,-35.159 l -45.84,-50.981 c 0,0 140.123,-174.509 146.634,-183.767 6.511,-9.259 30.473,-15.588 54.434,0 23.962,15.587 41.282,18.283 41.282,18.283 0,0 -5.079,-83.914 -4.558,-99.267 0.521,-15.353 114.296,-142.233 114.296,-142.233 0,0 116.553,57.747 110.433,82.827 -6.121,25.081 -114.078,131.497 -114.078,131.497 l -99.752,35.98 31.905,44.652 -167.991,196.893 -61.857,-23.44 -18.583,108.591 -118.122,119.672 c 0,0 -26.558,-0.13 -51.822,-19.585 -25.264,-19.454 -40.83,-57.312 -40.83,-57.312 z" fill="#FFFFFF" paint-order="markers stroke fill" transform="translate(-56.110094,26.623404) matrix(0.26458333,0,0,0.26458333,-8718.2648,-6818.7045)"/>
    <path d="m 33703.893,25670.859 c -14.532,0.216 -70.865,54.337 -105.295,101.162 -22.093,30.05 -25.585,46.269 -19.695,91.545 1.23,9.458 2.134,18.111 2.601,24.42 -7.212,-9.499 -16.586,-23.047 -21.59,-35.176 -8.859,-21.473 -2.834,-34.867 -10.039,-33.592 -7.206,1.276 -25.632,-4.357 -21.144,13.395 3.382,13.377 17.43,36.772 35.873,57.816 -8.294,-4.735 -21.949,-9.606 -30.424,-10.848 -15.29,-2.24 -15.71,-2.085 -33.008,12.147 -25.606,21.065 -136.23,153.798 -152.234,182.658 -5.353,9.649 -4.793,11.664 9.205,31.879 -18.936,-9.181 -44.424,-17.596 -51.684,-14.078 -10.033,4.862 -4.168,17.781 16.67,21.531 13.46,2.423 23.259,9.763 34.619,15.449 -1.988,0.414 -4.099,0.83 -6.316,1.233 -31.908,5.798 -56.852,18.478 -82.899,42.136 -29.472,26.765 -58.094,57.651 -76.478,82.518 -7.942,10.741 -16.81,22.357 -19.707,25.811 -2.897,3.451 -4.507,7.646 -3.578,9.322 0.931,1.677 -0.175,4.082 -2.453,5.346 -6.501,3.604 -3.726,11.425 10.605,29.908 32.555,41.978 61.967,62.039 77.961,53.172 4.023,-2.23 8.058,-2.718 8.965,-1.082 v 0 c 2.475,4.463 7.011,1.069 41.568,-31.108 35.905,-33.431 74.822,-73.815 85.53,-88.744 7.555,-10.537 18.058,-63.938 17.574,-86.119 6.837,16.91 13.436,34.153 17.256,45.926 5.094,15.697 24.387,11.946 21.609,1.25 -1.91,-7.354 -10.169,-34.73 -18.754,-53.743 12.875,5.942 30.847,10.117 38.5,8.077 8.658,-2.307 106.151,-107.294 144.658,-155.782 27.659,-34.822 33.525,-52.641 23.36,-70.976 -2.124,-3.831 -5.172,-8.204 -8.117,-11.817 l 66.476,9.842 c 0,0 9.096,2.445 13.348,-9.992 4.253,-12.437 4.155,-13.129 -26.362,-14.861 -17.546,-0.996 -32.629,-1.912 -43.705,-3.719 5.166,-1.23 11.447,-2.668 19.17,-4.436 60.782,-13.905 58.278,-12.284 107.963,-69.757 70.509,-81.56 68.344,-76.918 49.078,-105.118 -7.26,-10.624 -19.927,-23.936 -29.476,-30.98 -17.378,-12.809 -67.939,-34.786 -79.629,-34.615 z m 2.93,12.578 c 0.198,0 0.344,0.08 0.433,0.246 0.714,1.286 9.67,6.722 19.906,12.08 10.237,5.358 24.718,13.506 32.182,18.107 l 13.566,8.368 -4.097,8.402 c -6.129,12.578 3.355,24.228 16.101,19.773 7.747,-2.71 11.082,-1.685 16.993,5.223 6.628,7.743 6.677,9.191 0.503,14.648 -3.768,3.331 -8.957,8.115 -11.531,10.627 -6.861,6.7 -30.203,6.028 -34.472,-0.992 -3.03,-4.981 -3.443,-4.374 -2.706,3.979 l 0.87,9.861 -11.426,-1.416 c -6.281,-0.78 -10.662,-0.05 -9.733,1.629 0.929,1.675 3.486,3.131 5.68,3.236 6.034,0.285 7.683,5.46 2.633,8.26 -2.452,1.36 -3.719,3.809 -2.813,5.443 0.908,1.638 4.248,1.536 7.422,-0.224 14.727,-8.164 10.118,2.896 -12.474,29.935 -28.248,33.814 -33.81,37.307 -80.647,50.619 -18.474,5.248 -37.224,11.475 -41.68,13.823 -4.447,2.352 -9.384,-3.886 -11.134,-4.867 -4.22,-2.366 -7.296,-66.145 -3.748,-79.961 3.555,-13.835 24.133,-41.542 62.156,-83.692 16.555,-18.351 33.938,-38.278 38.627,-44.283 4.107,-5.246 8.002,-8.863 9.389,-8.824 z m -1.618,23.972 c -1.442,0.05 -2.933,0.36 -4.429,0.977 -11.881,4.901 -16.497,21.182 -7.627,26.906 7.634,4.929 22.736,-2.167 24.498,-11.509 1.724,-9.135 -4.653,-16.628 -12.442,-16.374 z m -0.722,10.907 c 1.502,0.03 2.538,0.791 2.808,2.244 1.246,6.666 -7.587,12.609 -10.617,7.144 -1.53,-2.759 -0.05,-6.088 3.6,-8.111 1.59,-0.882 3.04,-1.301 4.209,-1.277 z m 74.732,13.359 c 0.705,0.04 1.5,0.181 2.383,0.434 v 0 c 4.165,1.199 5.096,2.855 3.918,6.967 -1.177,4.113 -2.68,4.443 -6.32,1.392 -5.389,-4.524 -4.916,-9.077 0.01,-8.789 z m -131.662,44.729 c -1.287,0.1 -3.231,3.256 -5.414,9.435 -2.19,6.202 -3.886,7.662 -6.35,5.465 -6.326,-5.641 -8.816,0.02 -3.908,8.871 4.496,8.109 4.184,8.954 -3.724,10.092 -11.628,1.672 -12.044,5.613 -0.975,9.215 6.028,1.957 9.807,5.635 11.203,10.871 2.678,10.057 7.658,7.481 9.016,-4.666 0.968,-8.653 1.482,-9.075 7.119,-5.891 8.176,4.617 10.343,2.799 9.562,-8.013 -0.541,-7.492 -1.699,-8.969 -6.593,-8.391 -5.032,0.597 -5.181,-0.338 -0.973,-6.117 6.251,-8.59 3.704,-14.12 -3.16,-6.858 -4.969,5.256 -5.087,5.119 -4.332,-5.111 0.447,-6.046 -0.184,-9.002 -1.471,-8.902 z m 55.856,8.615 c -1.09,-0.06 -2.379,0.244 -3.606,0.924 -4.599,2.549 -3.961,6.785 1.242,8.277 3.692,1.061 6.848,-4.203 4.77,-7.951 -0.427,-0.77 -1.317,-1.191 -2.406,-1.25 z m -12.19,72.625 c -1.01,0.02 -2.128,0.328 -3.318,0.988 -4.256,2.36 -5.105,5.328 -2.746,9.586 2.361,4.26 4.85,4.969 8.037,2.303 5.842,-4.887 3.484,-12.999 -1.973,-12.877 z m -66.48,9.863 c -2.328,-0.05 -3.467,1.306 -4.428,4.654 -1.31,4.57 -0.44,5.797 4.277,6.022 v -0.01 c 8.007,0.38 10.415,-8.019 2.916,-10.17 -1.077,-0.306 -1.984,-0.48 -2.759,-0.496 z m -108.719,27.885 c 2.951,-0.114 6.204,1.138 11.166,2.803 20.402,6.849 75.943,45.668 86.435,60.41 10.632,14.941 17.429,4.305 -63.046,98.689 -33.586,39.389 -65.607,78.307 -71.159,86.483 -11.935,17.584 -18.176,21.793 -22.025,14.851 -1.546,-2.79 -16.752,-13.175 -33.787,-23.076 -31.985,-18.595 -56.607,-38.74 -59.988,-49.08 -1.169,-3.574 2.672,-11.499 9.681,-19.977 16.053,-19.421 90.476,-112.159 112.645,-140.373 18.556,-23.617 23.586,-30.479 30.078,-30.73 z m -2.725,20.158 c -2.558,0.161 -5.838,4.58 -14.713,16.938 -16.517,22.989 -17.303,31.059 -1.447,14.783 9.471,-9.748 11.756,-11.002 15.029,-8.254 2.124,1.784 6.5,1.778 9.725,-0.01 3.225,-1.788 7.543,-2.311 9.59,-1.164 v 0.01 c 2.048,1.148 5.282,0.227 7.187,-2.041 1.908,-2.274 5.368,-5.185 7.688,-6.471 2.319,-1.286 3.105,-4.345 1.744,-6.799 -1.36,-2.453 -4.482,-3.346 -6.936,-1.986 -2.452,1.36 -5.622,0.373 -7.043,-2.189 -1.777,-3.206 -4.02,-3.142 -7.181,0.203 -3.276,3.466 -6.015,3.381 -9.522,-0.297 -1.645,-1.724 -2.789,-2.807 -4.129,-2.723 z m 59.141,31.723 c -6.733,-0.317 -10.259,28.301 -4.746,38.465 4.389,8.083 3.657,10.768 -6.434,23.644 -6.264,7.988 -10.673,15.81 -9.801,17.383 2.256,4.07 40.696,-38.31 38.53,-42.481 -0.985,-1.897 -4.225,-3.108 -7.2,-2.689 -8.032,1.129 -9.448,-4.301 -2.498,-9.574 4.754,-3.606 5.014,-6.798 1.186,-14.584 -2.699,-5.481 -6.765,-10.056 -9.037,-10.164 z m -73.229,17.207 c -16.289,0.187 -35.333,14.496 -32.293,25.914 1.216,4.561 -1.186,12.985 -5.631,19.748 -5.563,8.466 -6.756,14.218 -4.228,20.373 2.916,7.095 2.053,9.39 -5.006,13.305 -11.109,6.157 -21.074,18.077 -18.697,22.363 1.207,2.179 4.969,0.869 10.592,-3.682 4.799,-3.885 14.059,-8.481 20.582,-10.211 25.89,-6.871 38.565,-22.917 16.076,-20.353 -6.11,0.695 -11.948,-0.254 -12.977,-2.11 -1.029,-1.855 3.204,-10.267 9.407,-18.695 9.971,-13.543 10.603,-16.043 5.505,-21.496 -5.121,-5.471 -4.788,-6.72 2.959,-11.014 12.603,-6.987 19.708,-7.236 23.266,-0.82 1.717,3.098 4.456,4.887 6.092,3.981 4.408,-2.444 -3.94,-15.613 -10.707,-16.889 -1.599,-0.302 -3.255,-0.434 -4.94,-0.414 z m 31.686,21.125 c -1.244,0.02 -2.559,0.365 -3.891,1.103 -2.817,1.561 -3.314,4.008 -1.183,5.797 2.035,1.702 2.031,6.091 0,9.754 -2.032,3.666 -1.846,9.997 0.412,14.072 3.956,7.134 3.397,7.803 -15.219,18.125 -10.632,5.893 -18.61,12.019 -17.725,13.614 0.882,1.592 -1.257,7.197 -4.757,12.453 -3.498,5.26 -5.64,10.865 -4.756,12.459 v 0 c 2.389,4.311 11.436,-1.987 15.264,-10.629 2.016,-4.555 9.958,-11.23 19.961,-16.776 18.734,-10.386 26.625,-22.321 21.212,-32.086 -1.917,-3.455 -2.646,-9.885 -1.621,-14.287 1.76,-7.528 -2.297,-13.672 -7.689,-13.599 z m -26.963,14.644 c -0.902,0.04 -2.034,0.608 -3.357,1.717 -2.602,2.183 -4.332,6.098 -3.846,8.707 0.568,3.033 2.591,3.309 5.617,0.772 2.601,-2.18 4.331,-6.099 3.846,-8.704 -0.32,-1.705 -1.1,-2.539 -2.26,-2.492 z m 11.703,6.834 c -1.031,-0.03 -2.146,0.585 -3.215,1.86 -1.932,2.301 -2.85,5.379 -2.039,6.84 0.81,1.461 3.479,1.543 5.932,0.183 2.452,-1.36 3.371,-4.439 2.039,-6.84 -0.736,-1.327 -1.685,-2.01 -2.717,-2.043 z m -97.666,25.858 c -1.192,0.07 -3.093,1.3 -5.689,4.006 -8.657,9.021 -21.299,28.521 -21.522,33.189 -0.108,2.324 2.5,5.278 5.797,6.563 4.708,1.832 5.198,2.777 2.287,4.39 -2.51,1.392 -1.597,4.547 2.817,9.752 4.564,5.376 5.503,8.917 3.121,11.758 -1.876,2.236 -2.647,5.445 -1.713,7.131 v 0 c 0.936,1.687 3.356,2.11 5.392,0.959 6.224,-3.551 8.532,-10.438 5.893,-17.573 -1.387,-3.742 -1.935,-9.915 -1.217,-13.716 0.728,-3.81 -0.911,-9.235 -3.619,-12.073 -3.864,-4.052 -3.129,-7.829 3.418,-17.546 6.495,-9.641 8.086,-17.024 5.039,-16.842 z m 86.83,45.17 c -1.906,-0.03 -5.41,1.659 -10.515,5.457 -6.167,4.586 -14.231,12.735 -17.922,18.109 -7.055,10.271 -22.453,15.608 -26.092,9.045 -2.591,-4.674 -13.848,4.848 -12.725,10.766 0.647,3.404 2.142,3.526 4.776,0.39 3.014,-3.596 4.867,-2.691 8.724,4.264 v 0 c 5.219,9.414 8.669,9.611 11.243,0.642 1.235,-4.316 2.029,-4.755 3.568,-1.978 2.386,4.305 12.157,-0.542 13.994,-6.939 0.719,-2.516 7.178,-11.039 14.348,-18.942 11.257,-12.402 14.799,-20.755 10.605,-20.814 z m -127.289,69.257 c 7.319,0.1 7.715,4.746 8.123,16.026 0.739,20.409 -3.981,62.49 -8.627,76.916 -3.673,11.413 -12.625,17.147 -18.433,11.81 -1.812,-1.666 -1.099,-4.247 1.586,-5.736 2.691,-1.491 3.43,-3.524 1.648,-4.523 -1.778,-0.997 -1.014,-4.163 1.703,-7.037 7.107,-7.518 2.741,-12.516 -5.17,-5.918 -7.493,6.249 -8.013,5.964 -8.166,-4.457 -0.151,-10.09 -6.079,-6.75 -6.625,3.73 -0.302,5.796 -1.848,7.531 -6.01,6.744 -4.204,-0.794 -4.912,0.2 -2.822,3.969 2.136,3.852 0.959,5.392 -5.053,6.603 -6.927,1.397 -7.063,1.886 -1.175,4.182 5.777,2.252 5.894,3.639 0.882,10.412 -7.297,9.863 -5.001,14.843 3.27,7.102 5.358,-5.011 6.475,-4.831 8.043,1.299 2.156,8.436 8.159,6.393 8.189,-2.791 0.03,-6.248 7.6,-8.601 10.551,-3.278 0.819,1.476 -18.533,24.159 -43.002,50.406 v 0 c -24.469,26.25 -46.074,49.705 -48.008,52.125 -2.889,3.616 -5.148,1.581 -12.619,-11.474 -10.374,-18.092 -39.637,-47.685 -57.58,-58.235 -6.663,-3.919 -11.828,-7.789 -11.478,-8.601 0.348,-0.813 7.358,-9.251 15.578,-18.75 11.211,-12.953 16.264,-16.889 20.228,-15.752 12.241,3.51 25.91,-11.187 25.629,-27.563 -0.16,-9.527 26.292,-35.089 34.02,-32.873 5.924,1.698 5.733,9.463 -0.256,10.303 -2.708,0.383 -3.183,3.054 -1.184,6.66 1.835,3.31 4.479,5.387 5.875,4.614 1.394,-0.773 3.171,1.738 3.948,5.587 1.739,8.625 5.16,7.207 6.96,-2.888 0.98,-5.494 2.33,-6.769 4.956,-4.688 6.071,4.807 9.293,0.252 5.13,-7.256 -2.605,-4.698 -2.096,-9.093 1.514,-13.048 5.196,-5.688 5.031,-5.811 -3.685,-2.586 -6.52,2.412 -9.342,1.824 -9.891,-2.061 -0.419,-2.989 -1.073,-5.999 -1.453,-6.684 -1.762,-3.179 37.833,-21.947 56.439,-26.75 13.709,-3.538 21.958,-5.605 26.965,-5.541 z m -18.252,12.438 c -5.276,0.09 -11.051,4.911 -12.767,12.268 -1.728,7.408 -0.979,9.486 4.14,11.482 v 0 c 12.73,4.965 23.809,-10.269 15.088,-20.74 -1.764,-2.118 -4.059,-3.054 -6.457,-3.012 z m -67.111,87.121 c -5.702,-0.273 -9.558,13.22 -4.578,16.012 v 0 c 2.694,1.509 5.032,0.283 7.884,-4.139 4.533,-7.025 3.27,-11.564 -3.306,-11.875 z m -51.432,19.484 c -0.585,-0.156 -1.285,1.301 -2.447,4.278 -2.231,5.721 -3.288,6.161 -7.119,2.949 -6.934,-5.823 -10.3,-1.718 -5.576,6.803 3.436,6.197 2.96,7.889 -2.539,8.996 -5.77,1.163 -5.928,2.511 -1.069,9.078 3.137,4.244 6.323,8.244 7.078,8.896 0.752,0.648 2.429,3.657 3.727,6.682 3.164,7.384 5.892,5.301 7.883,-6.014 l 1.65,-9.357 6.4,6.84 v 0 c 3.578,3.823 8.481,5.685 11.125,4.219 3.557,-1.972 3.245,-4.206 -1.261,-9.02 -4.548,-4.862 -4.825,-7.043 -1.153,-9.078 2.887,-1.6 3.288,-3.984 0.991,-5.91 -2.113,-1.773 -3.176,-5.56 -2.36,-8.41 1.098,-3.836 -0.272,-4.212 -5.254,-1.45 -5.631,3.122 -7.003,2.45 -8.322,-4.101 -0.7,-3.475 -1.171,-5.245 -1.756,-5.401 z m -67.517,30.223 c 3.482,0.553 26.992,20.103 36.218,30.674 13.313,15.254 13.454,21.512 0.176,7.801 -5.189,-5.357 -15.174,-15.306 -22.189,-22.106 -7.014,-6.804 -13.483,-13.716 -14.371,-15.361 -0.42,-0.778 -0.332,-1.087 0.166,-1.008 z m 124.412,9.748 c -0.374,0 -0.762,0.03 -1.16,0.08 -6.904,0.974 -8.738,5.14 -3.549,8.051 4.682,2.627 8.905,0.392 9.15,-4.842 0.09,-1.937 -1.825,-3.284 -4.441,-3.291 z" fill="#00B894" transform="translate(-56.110094,26.623404) matrix(0.26458333,0,0,0.26458333,-8718.2648,-6818.7045)"/>
</svg>