<?xml version="1.0" ?><svg height="381.71115mm" viewBox="0 0 324.63806 381.71115" width="324.63806mm" xmlns="http://www.w3.org/2000/svg">
    <path d="m 865.02024,-595.83653 -33.16993,14.39258 9.73829,17.71094 -21.19727,9.38867 -3.39453,-4.80469 -40.29688,-7.61914 -11.00586,62.76758 15.07813,1.99023 7.88281,18.04883 -13.53515,3.07617 0.78125,18.87696 -68.13868,32.03906 11.50391,31.38086 54.68164,-19.5 -10.67773,113.78125 -31.16016,5.73047 14.31836,62.17578 100.44531,-21.12695 8.22071,20.00195 29.17187,-8.52344 -3.32813,-20.00195 13.64649,-5.34766 3.2168,23.59961 45.38867,6.61524 16.42383,-94.36524 -16.06055,-2.57226 -3.34961,-3.96094 -37.19141,-5.82813 -0.73632,13.70899 -38.55469,9.38867 -23.99024,-97.55859 57.8086,-5.83008 -20.66211,32.06445 25.21875,16.94531 30.45898,-43.98046 -11.1914,-7.88086 30.02148,-2.49219 -6.36719,-38.27539 -11.45898,-19.04102 -19.38867,21.56836 -10.94532,-19.4375 -16.21679,21.42774 -10.3418,-17.48829 -16.55078,20.48438 -14.07227,-13.02734 -3.12695,14.5957 -8.48828,0.60351 -0.32227,-5.38671 2.79297,-28.34375 21.95703,10.93554 4.64649,-26.67578 27.67578,13.86914 0.0918,-29.84765 18.78125,14.58984 -3.92969,-22.6543 -22.13672,-50.11523 -11.54883,6.49219 z m 152.32806,29.03321 c -9.8755,0.20914 -19.79306,3.25218 -27.52924,10.48437 -20.62991,19.28582 -20.33906,47.01093 -10.1113,59.96289 18.99578,20.72069 44.50834,10.05895 62.49404,0.49805 17.9857,-9.5609 23.3657,-40.07195 13.877,-54.65625 -5.9305,-9.11519 -22.2713,-16.63763 -38.7305,-16.28906 z m 27.5469,87.4414 c -0.944,0.0331 -1.8556,0.12533 -2.7285,0.28125 -13.9666,2.49471 -28.9457,12.23379 -29.6387,21.97266 0,0 9.9439,21.54062 20.9355,40.03125 10.9916,18.49063 4.6511,19.93602 -5.957,43.34765 -10.6082,23.41163 -3.5105,29.11183 16.8984,38.57227 20.409,9.46044 41.3152,-0.2387 60.8653,-30.01367 19.5501,-29.77497 -4.9975,-69.64357 -15.17,-86.20508 -9.5366,-15.52642 -31.0454,-28.483 -45.205,-27.98633 z m -225.41207,101.05078 15.97656,58.71094 -25.32617,6.33398 z m 95.93359,155.1211 c 0,0 -27.7637,7.40954 -38.92383,11.78906 -8.61627,3.38125 1.15235,10.2793 1.15235,10.2793 l -137.3086,1.96093 -6.60742,31.07227 3.45508,8.92578 194.20898,-5.48437 -3.17968,-22.40625 102.2421,25.60742 36.7949,-20.60352 z m -58.73437,74.56445 -10.66993,32.66211 155.24208,5.92969 -10.74404,-35.21094 z" fill="#FFFFFF" paint-order="markers stroke fill" transform="translate(228.89487,58.501215) matrix(0.77297748,0,0,0.77297748,-774.9977,404.84728)"/>
    <path d="m 983.14296,-106.93333 c -4.4,-0.5991 -36.5,-1.6366 -71.3333,-2.3058 -34.83327,-0.669 -64.38327,-1.6548 -65.66667,-2.1906 -3.8718,-1.6166 -3.4954,-6.4247 1.8175,-23.2168 6.0523,-19.12952 4.6977,-17.9138 18.9801,-17.035 47.48297,2.9218 74.25107,3.7446 98.31497,3.0222 25.3919,-0.7623 27.6092,-0.6435 29.6281,1.5874 2.3193,2.5628 11.59274,29.7234 11.59274,33.9535 0,1.3796 -0.6212,3.6689 -1.3803,5.0873 -1.5272,2.8536 -7.03454,3.129 -21.95314,1.0978 z m 12.6463,-8.852 c -0.07,-3.4436 -3.7331,-4.5654 -22.7352,-6.9626 -11.3178,-1.4277 -22.21053,-1.9372 -25.14393,-2.2103 -2.9333,-0.2732 -1.17197,-1.4797 4.85173,-1.603 6.0237,-0.124 16.9874,0.4621 24.3638,1.3009 7.3764,0.8388 13.7121,1.2247 14.0792,0.8575 1.8413,-1.8413 -1.5146,-4.8552 -6.4775,-5.8172 -3.0714,-0.5953 -27.7844,-1.2103 -54.9177,-1.3664 -45.59487,-0.2624 -50.09107,-0.4967 -59.33327,-3.0908 -9.5815,-2.6893 -6.68835,-3.68547 0.33805,-2.72937 4.0333,0.5489 27.42855,1.96907 55.66192,2.03087 31.7539,0.069 53.4946,0.6578 57,1.5429 6.1433,1.5511 6.6648,0.9079 4.8262,-5.9525 l -0.8039,-3 -44.8445,-0.041 c -30.6452,-0.028 -49.91057,-0.6528 -60.84447,-1.9721 -24.529,-2.9596 -22.635,-3.4757 -25.2356,6.8772 -1.2245,4.8749 -3.1012,10.9572 -4.1704,13.5161 l -1.944,4.6527 27.0083,-0.6648 c 31.41107,-0.7732 79.09067,0.9533 96.34167,3.4887 14.3419,2.1077 22.0074,2.5066 21.9796,1.1438 z m -252.32297,-39.98562 c -7.3778,-0.4627 -7.7541,-0.6668 -9.6666,-5.2442 -1.0945,-2.6193 -1.99,-7.0513 -1.99,-9.8486 0,-5.773 4.6667,-26.455 6.3489,-28.1372 1.9192,-1.9192 14.9171,-3.7114 36.9844,-5.0996 28.9829,-1.8232 139.80737,-1.7603 146.44627,0.083 4.396,1.2207 5.4958,2.3412 7.8444,7.9926 2.4357,5.861 3.1816,6.5778 6.8871,6.6196 5.4777,0.061 13.1434,1.8305 56.9585,13.1422 l 36.80304,9.5014 11.5019,-4.637 c 15.6642,-6.3149 22.767,-10.0694 21.3841,-11.3034 -0.6372,-0.5687 -9.5586,-2.6699 -19.8253,-4.6694 -26.6619,-5.1922 -60.67704,-14.0465 -95.54954,-24.8717 -18.01138,-4.84606 -23.00553,-11.80629 -40,-6.08762 -24.95247,8.39672 -33.27997,10.58242 -34.74297,9.11952 -1.0593,-1.0592 -1.0091,-2.0058 0.1824,-3.4415 2.045,-2.4641 18.732,-7.99272 32.42787,-10.74362 9.96278,-3.57374 18.17043,0.0123 28,2.6219 51.1088,13.56862 83.07044,21.51282 107.68224,26.76482 28.9366,6.1748 32,7.5712 32,14.5868 0,5.6412 -13.482,14.0058 -33.239,20.6225 -7.9943,2.6773 -8.8935,2.7319 -13.3334,0.8069 -2.6185,-1.1352 -12.2609,-3.9136 -21.4276,-6.174 -9.16664,-2.2605 -28.54564,-7.6742 -43.06434,-12.0306 -14.5187,-4.3564 -26.6125,-7.9207 -26.8752,-7.9207 -0.2626,0 -0.1637,1.2 0.2199,2.6667 0.3835,1.4666 1.1127,2.6666 1.6203,2.6666 0.5076,0 1.973,0.7678 3.2564,1.7063 2.2122,1.6176 2.1942,2.0308 -0.3466,7.9581 -3.082,7.1902 -3.0695,7.1855 -22.1438,8.2507 -97.64267,5.4524 -146.10717,6.87 -174.34337,5.0993 z m 88.3434,-8.3764 c 82.66987,-2.876 118.66167,-7.0034 52.6667,-6.0395 -34.5015,0.5039 -75.0374,1.8363 -128.3334,4.2184 -9.7166,0.4343 -17.6666,1.3007 -17.6666,1.9255 0,2.4449 20.7231,2.4217 93.3333,-0.104 z m -78.6667,-7.9579 c 13.3319,-2.0679 61.8574,-4.1345 120.2232,-5.1203 29.08951,-0.4912 53.29957,-1.3033 53.80017,-1.8045 0.5007,-0.5012 0.4865,-1.5971 -0.032,-2.4353 -0.6226,-1.0074 -5.3012,-1.4247 -13.8002,-1.2312 -7.072,0.161 -25.45817,-0.4336 -40.85817,-1.3215 -25.3678,-1.4624 -46.6075,-1.172 -57.3334,0.7841 -2.7634,0.504 -3.5878,0.2979 -2.6666,-0.6665 3.6131,-3.7832 61.1443,-5.8141 80.6666,-2.8477 10.51331,1.5974 32.33117,0.3001 31.61557,-1.88 -0.2692,-0.8198 -7.4562,-1.64024 -14.048,-1.72568 -14.75429,-0.19123 -13.03085,-2.93967 1.7658,-3.22742 11.43139,-0.22231 11.8073,-0.6259 8,-2.3723 -3.2159,-1.4752 -21.18596,-1.9678 -91.66937,-2.5133 l -84.66894,-0.29746 c -2.96967,-0.0104 -2.22356,1.841 -2.29196,3.46576 -0.0905,2.14927 -0.104,8.7816 -1.0968,14.8132 -1.7858,10.8494 -1.7755,10.9601 0.961,10.3456 1.5213,-0.3416 6.6661,-1.226 11.4327,-1.9655 z m 333.33341,-15.3468 c -1.0265,-2.6997 -2.1757,-3.3333 -6.0457,-3.3333 -5.8517,0 -4.9519,-2.2336 1.3783,-3.4212 2.5148,-0.4718 5.2733,-1.7024 6.1301,-2.7347 2.3129,-2.7869 5.2039,0.2052 5.2039,5.3857 0,7.091 -4.482,9.8496 -6.6666,4.1035 z m -19.4054,-11.3805 c -2.1379,-1.4024 -6.4401,-2.9328 -9.5606,-3.4007 -7.5064,-1.1257 -5.9483,-3.2188 2.3961,-3.2188 3.6333,0 7.7492,-0.7139 9.1463,-1.5864 3.2728,-2.044 6.7569,0.5528 6.7569,5.0361 0,4.7732 -4.0532,6.2434 -8.7387,3.1698 z m -40.9779,-4.7806 c -0.5225,-0.5225 -0.9501,-2.3346 -0.9501,-4.0269 0,-2.0907 -1.3217,-3.7604 -4.1239,-5.2095 -5.5393,-2.8644 -4.207,-3.7356 2.2493,-1.4706 3.7782,1.3253 6.0471,1.4494 8.2646,0.4518 2.3839,-1.0725 3.5441,-0.8877 5.2712,0.8394 2.0638,2.0638 2.0283,2.465 -0.5219,5.8957 -2.6391,3.5504 -8.2281,5.4813 -10.1892,3.5201 z m -34.11994,-16.37762 c -1.0101,-0.639 -4.1601,-0.8504 -7,-0.4694 -5.3806,0.7217 -7.3368,-1.4558 -2.6455,-2.9447 1.3849,-0.4396 4.1705,-2.3307 6.1903,-4.2025 0.2016,-5.93835 3.49362,-3.53 7.1328,0.057 2.7282,2.7283 3.1615,3.9343 2.0477,5.7 -1.777,2.8171 -3.386,3.3398 -5.7253,1.8596 z m 54.02104,-0.7946 c -0.4221,-1.1 -1.5363,-2.0271 -2.476,-2.0602 -0.9397,-0.033 -3.5085,-0.9153 -5.7085,-1.9606 -3.9564,-1.8796 -4.0824,-3.0052 2.1818,-2.2351 5.0721,0.6236 6.4849,1.496 6.4849,-0.0961 0,-1.0935 0.8203,-2.6691 1.823,-3.5012 2.7724,-2.3008 4.5878,0.9344 3.8456,6.8532 -0.4608,3.6745 -1.2575,5 -3.0052,5 -1.308,0 -2.7235,-0.9 -3.1456,-2 z m -302.43001,-13.6667 c -1.0957,-1.2833 -2.7,-7.1333 -3.5652,-13 -0.8651,-5.8667 -3.3545,-18.1667 -5.5319,-27.3333 -2.1774,-9.1667 -3.966,-17.7167 -3.9748,-19 -0.01,-1.4391 -1.0379,-2.3334 -2.6826,-2.3334 -1.4667,0 -2.6667,-0.5569 -2.6667,-1.2376 0,-1.9446 13.004,-6.3076 24.1473,-8.1014 l 10.1473,-1.6335 0.8584,-12.2121 c 0.4722,-6.7168 2.0315,-19.4026 3.4653,-28.1907 1.4337,-8.7881 3.5354,-25.5739 4.6703,-37.3016 1.1349,-11.7277 2.3707,-22.6731 2.7462,-24.3231 0.3755,-1.65 0.1981,-3 -0.3941,-3 -0.5922,0 -7.3537,2.4423 -15.0254,5.4273 -7.6717,2.985 -18.9795,7.3006 -25.1283,9.5903 -7.46447,1.88606 -8.8255,7.0704 -13.6667,1.0916 -1.3678,-1.6892 -2.5123,-4.0548 -2.5434,-5.2569 -0.031,-1.2021 -1.7761,-7.2817 -3.878,-13.5103 -2.1019,-6.2286 -3.5411,-11.7786 -3.1982,-12.3333 1.5462,-2.5018 3.4779,-0.259 8.6061,9.9913 7.50441,16.1027 6.15796,12.08907 20.5724,5.6773 7.7879,-3.4759 19.0438,-7.9003 25.0132,-9.8319 l 10.8533,-3.512 3.2211,-16.3334 c 2.7425,-13.9067 3.5909,-16.3333 5.7105,-16.3333 2.8287,0 3.3721,-2.4116 0.7684,-3.4108 -0.9465,-0.3632 -12.4268,4.4918 -25.5117,10.7889 -35.8154,17.236 -50.137,22.8469 -50.0843,19.6219 0.023,-1.3979 16.8925,-10.7866 31.9652,-17.7899 6.9565,-3.2322 17.6804,-8.2938 23.8309,-11.248 l 11.1826,-5.3713 0.1692,-9.2456 c 0.30356,-7.55999 -2.22831,-8.59024 4.8358,-10.5216 2.5666,-0.7018 4.9105,-1.4681 5.2086,-1.7029 0.2981,-0.2348 -0.5324,-2.8094 -1.8455,-5.7213 -2.2202,-4.9235 -2.959,-5.4209 -10.542,-7.098 -7.6345,-1.6884 -8.18015,-2.06109 -8.5569,-5.8461 -0.31125,-3.127 7.59902,-47.14901 10.43516,-62.94535 0.65288,-3.63628 1.84371,-2.97159 3.14344,-2.84325 1.37063,0.13534 36.6473,5.5846 39.059,6.1846 1.5961,0.397 3.8454,1.7644 4.9986,3.0387 1.9838,2.192 2.483,2.1384 9.2627,-0.9941 l 7.166,-3.3109 -3.2856,-7.1767 c -2.7234,-5.9486 -2.9928,-7.5295 -1.5746,-9.2384 3.0421,-3.6655 12.2945,-9.3702 22.2938,-13.7455 9.0359,-3.9538 9.9924,-4.1214 12.8476,-2.2506 1.6967,1.1117 4.4194,4.7781 6.0506,8.1477 2.8957,5.9816 3.0399,6.0777 6.1055,4.0691 5.6628,-3.7105 6.9257,-2.6268 14.4704,12.4169 10.27291,20.4836 15.90817,35.0668 18.70887,48.4151 3.527,16.8101 1.2332,19.847 -8.41026,11.1347 -2.8264,-2.5535 -5.52811,-4.2535 -6.00381,-3.7778 -0.4758,0.4757 -0.8683,3.6149 -0.8724,6.9761 0,3.3611 -0.6323,8.3611 -1.396,11.1111 -1.9501,7.0219 -5.4648,6.5775 -17.4395,-2.205 -11.0243,-8.0855 -10.8236,-8.159 -12.3922,4.5383 -2.186,17.694 -2.9139,18.1956 -15.5295,10.7009 -4.9692,-2.9522 -9.38,-5.3676 -9.8018,-5.3676 -0.4218,0 -0.793,3.45 -0.825,7.6667 -0.032,4.2167 -0.5513,10.2167 -1.1543,13.3333 -0.9737,5.0336 -0.8183,5.6667 1.3914,5.6667 2.1245,0 2.4877,-1.0637 2.4877,-7.2864 0,-5.9578 0.4935,-7.5506 2.7067,-8.735 2.3127,-1.2378 3.7166,-0.5653 9.6438,4.6197 6.833,5.9773 8.9828,7.16 8.9828,4.9417 0,-0.6196 2.3869,-4.8196 5.3043,-9.3333 6.9272,-10.7178 9.1841,-10.7494 14.8033,-0.2067 2.3452,4.4 4.684,8 5.1975,8 0.5134,0 1.6753,-1.65 2.5819,-3.6667 0.9065,-2.0166 3.4853,-6.5476 5.7304,-10.0687 5.45291,-8.5519 8.37087,-8.1304 13.74347,1.9852 2.2152,4.1708 4.4006,7.9561 4.8564,8.412 0.4558,0.4558 4.3131,-3.4067 8.5717,-8.5832 4.2585,-5.1766 8.7698,-9.4119 10.0251,-9.4119 1.2552,0 3.8411,1.8526 5.7464,4.1169 7.1455,8.492 9.7469,15.0924 13.4147,34.0371 4.5085,23.2868 4.1815,24.436 -7.0221,24.6755 -12.6016,0.2694 -14.9531,0.3654 -14.9531,0.6105 5.44705,3.91423 9.31788,6.53876 4,11.1393 -0.55389,0.47918 -2.781,4.4629 -6.1801,8.2901 l -6.1801,6.9584 3.6781,3.1638 c 3.6748,3.1609 3.6807,3.1614 6.5135,0.5182 5.3808,-5.0207 9.4474,-4.9385 20.2687,0.4097 5.4691,2.703 11.2362,6.6626 12.8159,8.7991 5.1322,6.9418 22.2537,10.409 33.33734,6.7511 5.8368,-1.9263 13.8246,-10.2108 21.713,-22.5194 l 6.2271,-9.7163 -4.5833,-6.9503 c -2.5208,-3.8227 -5.5797,-8.9004 -6.7976,-11.2837 -1.2179,-2.3834 -2.3955,-4.3334 -2.6169,-4.3334 -0.2214,0 -4.0941,1.5 -8.6059,3.3334 -11.67344,4.7433 -22.90234,4.5894 -33.95234,-0.4653 -4.5673,-2.0892 -9.4357,-5.0767 -10.8189,-6.6389 -2.314,-2.6134 -2.3356,-2.909 -0.2696,-3.7018 1.2349,-0.4739 7.0123,0.4957 12.8386,2.1547 12.3581,3.5188 18.1842,3.1296 29.75574,-1.9879 6.9446,-3.0712 7.7051,-3.7891 6.998,-6.6063 -2.2869,-9.1117 4.7877,-18.7418 18.5623,-25.2675 7.3188,-3.4672 8.9488,-3.7295 20.1434,-3.2415 10.8004,0.4708 13.3199,1.0942 22.2395,5.5025 14.4178,7.1257 23.8684,17.8313 34.2314,38.7774 10.7278,21.6835 12.5082,29.2318 11.7225,49.7011 -0.7984,20.8004 -3.3968,26.6735 -17.8929,40.4435 -10.9172,10.3702 -20.97,15.9285 -30.8158,17.0382 -5.5369,0.6242 -6.3842,1.2744 -12.1419,9.3187 -3.4044,4.7563 -10.2176,14.1209 -15.1406,20.8104 -12.2664,16.6677 -16.6141,24.7421 -14.2151,26.3996 3.3073,2.2849 30.3594,0.049 50.4993,-4.1727 10.6345,-2.23333 20.8793,-6.02472 23.3017,-3.63647 1.9645,1.9367 26.0317,17.47047 26.0317,19.49077 0,0.5985 -0.9191,1.8511 -2.0424,2.7832 -3.0173,2.5043 -11.0238,-0.2925 -19.0897,-6.6683 -9.0874,-8.12734 -9.6711,-4.4756 -21.775,-1.4188 -42.2005,10.6579 -70.5668,8.3228 -70.3912,-5.7945 0.063,-5.0516 9.7133,-21.1367 22.8909,-38.1535 7.0986,-9.1666 12.7942,-17.2596 12.6569,-17.9844 -0.1372,-0.7248 -2.9495,-2.2832 -6.2495,-3.463 -3.3,-1.18 -6.999,-2.5816 -8.2199,-3.1147 -3.0561,-1.3345 -10.3921,5.5321 -26.6902,24.9825 -17.89774,21.3596 -19.26734,24.9706 -10.22384,26.9568 6.09164,1.3379 9.13394,3.4903 9.13394,6.462 0,2.2804 -0.7789,2.4606 -7.86194,1.8183 -15.8222,-1.4347 -20.421,-7.3893 -14.7516,-19.1008 3.7142,-7.6725 21.47794,-30.2491 32.55584,-41.3764 l 8.1169,-8.1531 -2.6963,-3.6149 c -5.8674,-7.8664 -2.8907,-19.528 10.7855,-42.2533 4.3983,-7.3085 5.7667,-13.5633 3.3008,-15.0873 -0.6696,-0.4138 -4.5114,3.9485 -8.5374,9.694 -11.7601,16.7829 -18.5199,21.2314 -34.09054,22.4342 -6.7847,0.5241 -10.6055,0.053 -16.5493,-2.0417 -6.9662,-2.455 -7.809,-2.5123 -8.55,-0.5814 -0.4981,1.298 0.1829,2.8643 1.728,3.9746 4.3329,3.1137 9.8833,8.6172 9.8833,9.7997 0,1.7265 -3.9804,5.3156 -5.8952,5.3156 -0.9376,0 -4.2722,-1.8599 -7.4103,-4.1331 -5.1417,-3.7246 -6.0266,-3.9613 -8.9536,-2.3949 -3.9684,2.1239 -7.529,0.3537 -8.1836,-4.0684 -0.3399,-2.296 -1.0868,-2.8223 -3.2156,-2.2656 -3.3508,0.8763 -7.675,-1.2124 -7.675,-3.7071 0,-0.9946 -1.644,-2.221 -3.6533,-2.7254 -4.2881,-1.0763 -5.6228,-2.8074 -5.6837,-7.3722 -0.03,-2.2177 -1.7914,-4.7836 -5.2641,-7.6666 -2.8707,-2.3834 -5.7099,-4.3263 -6.3093,-4.3176 -1.3562,0.02 -11.0896,13.9074 -11.0896,15.8229 0,0.7704 -1.0892,1.9837 -2.42036,2.6963 -5.2158,2.7913 -19.39421,-3.2934 -22.88861,-9.8227 -0.9946,-1.8584 -2.5665,-3.3789 -3.4932,-3.3789 -2.7414,0 -3.4555,-4.8099 -1.4206,-9.5688 1.0421,-2.4372 4.9996,-8.5502 8.7944,-13.5845 3.7948,-5.0343 6.7186,-9.3076 6.4974,-9.4963 -0.2213,-0.1888 -11.2024,0.3302 -24.4024,1.1532 l -24,1.4964 0.4014,3.3333 c 0.2207,1.8333 2.4328,10.8333 4.9158,20 2.483,9.1667 7.3103,27.7667 10.7274,41.3333 3.4171,13.5667 6.6881,25.1698 7.2689,25.7847 0.5808,0.6149 8.3229,-0.5465 17.2046,-2.5812 l 16.14861,-3.6992 0.018,-4.7521 c 0.011,-2.6138 0.38,-6.1022 0.8222,-7.7522 1.0279,-3.8357 4.89796,-3.8794 21.82626,-0.2466 6.9666,1.495 14.9006,3.064 17.631,3.4865 2.9065,0.4499 5.2507,1.6648 5.6551,2.9309 0.441,1.3807 2.2615,2.1971 5.0356,2.2579 8.5196,0.1869 11.6783,1.6648 11.6783,5.4637 0,3.2766 -2.7276,18.9703 -5.1987,29.9116 -0.6273,2.7779 -0.4927,8.0712 0.3193,12.5511 1.3216,7.2912 1.2318,7.8616 -1.5249,9.692 -2.5592,1.6993 -2.93,3.1448 -2.9368,11.4489 0,5.2272 -0.59,13.0598 -1.3016,17.4056 -0.8882,5.4239 -0.8513,8.435 0.1178,9.6027 0.7765,0.9356 1.0218,2.9299 0.5452,4.4317 -1.0731,3.381 -3.3139,3.4311 -28.6656,0.6406 -28.43467,-3.1299 -30.68797,-4.4184 -30.68797,-17.5476 0,-7.4454 -0.3033,-8.4951 -2.3333,-8.075 -1.8189,0.3763 -2.211,1.5003 -1.7783,5.0978 0.3052,2.5382 0.6052,7.0097 0.6666,9.9368 0.1107,5.2756 0.033,5.3609 -8.9767,9.8273 -11.427,5.6648 -24.7593,7.2752 -28.9361,3.4953 -1.4532,-1.3152 -2.6455,-3.0481 -2.6496,-3.8512 0,-0.8029 -0.6493,-3.7714 -1.4338,-6.5965 -1.2773,-4.6001 -1.7987,-5.0688 -4.9925,-4.4863 -6.9226,1.2623 -63.7703,12.9204 -79.2379,16.2496 -18.6412,4.0124 -17.4237,3.9488 -19.9073,1.0399 z m 21.5788,-10.9985 c 9.3584,-2.3118 61.7245,-13.2311 75,-15.6391 2.0167,-0.3657 3.6667,-1.1187 3.6667,-1.6729 0,-1.8808 -6.6656,-33.9735 -8.9615,-43.147 l -2.2836,-9.1241 -5.3775,0.8448 c -10.0761,1.5832 -15.2135,3.4519 -15.853,5.7665 -0.35,1.267 -1.9312,11.6036 -3.5137,22.9703 -4.2076,30.2201 -3.5481,28.5129 -11.3929,29.4957 -3.6398,0.456 -9.0178,1.5027 -11.9511,2.3259 -7.4008,2.0771 -17.4157,1.8824 -21.8784,-0.4253 -6.4824,-3.3523 -7.431,-7.9928 -5.6735,-27.7539 0.8522,-9.5824 1.277,-17.6951 0.944,-18.028 -0.8946,-0.8947 -19.9152,1.0608 -21.83,2.2443 -1.2404,0.7665 -0.516,4.4138 2.9614,14.9113 2.5319,7.6432 5.971,20.0487 7.6425,27.5677 2.4188,10.8812 3.4602,13.5479 5.1031,13.0672 1.1353,-0.3321 7.1642,-1.8636 13.3975,-3.4034 z m 108.0862,1.1677 c 4.1501,-1.7853 6.5805,-3.6581 6.5805,-5.0707 0,-5.3944 -8.8753,-40.1297 -16.2003,-63.4032 -7.8568,-24.9629 -21.596,-82.1848 -23.2578,-96.8654 -0.4672,-4.1269 -1.2715,-8.1865 -1.7875,-9.0213 -0.5159,-0.8348 -4.1967,-1.6582 -8.1796,-1.8299 l -7.2415,-0.312 -1.1378,18.3752 c -1.0554,17.044 -0.936,18.8794 1.6478,25.3333 1.532,3.8271 5.451,17.4581 8.7088,30.2915 3.2577,12.8333 6.6194,25.1333 7.4702,27.3333 1.2888,3.3321 19.9777,75.7981 19.9777,77.4632 0,1.5041 7.6173,0.202 13.4195,-2.294 z m -16.0345,-47.7393 c -1.9177,-3.5832 -0.3499,-6.7632 3.3345,-6.7632 3.6694,0 5.6325,4.4993 3.2274,7.3973 -2.2247,2.6807 -4.9277,2.4195 -6.5619,-0.6341 z m 87.50207,29.9034 c 4.2684,-20.9494 4.7874,-19.4474 -5.8871,-17.0377 -4.95,1.1173 -15.6,3.9239 -23.6667,6.2367 l -14.66656,4.205 -0.3915,8.0866 c -0.2811,5.8058 0.152,8.5374 1.5356,9.6858 1.7872,1.4832 27.15506,4.054 36.13856,3.6624 3.9343,-0.1714 3.9609,-0.2284 6.9377,-14.8388 z m -160.55377,0.5059 c 12.13105,-2.07258 11.66234,1.7769 11.6767,-9.7855 0,-4.4296 0.9264,-14.0537 2.0491,-21.387 1.1226,-7.3334 3.5252,-23.2334 5.3389,-35.3334 1.8137,-12.1 3.9162,-23.8 4.6722,-26 2.2266,-6.4797 10.6777,-78.8384 10.6139,-90.8755 -0.014,-2.6892 -0.858,-2.9306 -13.0153,-3.7234 -7.15,-0.4663 -15.3806,-1.3916 -18.2903,-2.0564 -2.9097,-0.6647 -5.4007,-1.0891 -5.5355,-0.9433 -0.4674,0.5057 -3.0997,35.054 -4.5918,60.2653 -0.8246,13.9333 -2.6402,33.1333 -4.0347,42.6667 -1.3945,9.5333 -2.5558,23.0333 -2.5806,30 -0.025,6.9666 -0.9147,22.2666 -1.9774,34 -2.5338,27.975 -2.5949,26.4288 1.0103,25.5965 6.32849,-0.52042 8.62472,-0.88699 14.6645,-2.424 z m -6.84141,-6.90719 c -2.75991,-3.03984 -2.06629,-5.50041 0.60331,-8.17011 4.9098,-4.9098 13.1537,-0.1659 9.9887,5.748 -1.2385,2.314 -4.22232,4.56788 -6.653,4.1568 -1.48171,-0.25059 -3.1038,-0.81477 -3.93901,-1.73469 z m 16.73031,-160.48761 c -2.6046,-2.6046 1.8174,-9.7777 6.0276,-9.7777 2.2429,0 3.8505,5.3212 2.4169,8 -1.3674,2.5548 -6.5717,3.6505 -8.4445,1.7777 z m 117.39547,147.6761 c 12.3103,-3.6672 25.2323,-7.3656 28.7156,-8.2189 3.4834,-0.8533 6.3334,-2.0571 6.3334,-2.6749 0,-0.6179 -1.23,-6.3967 -2.7333,-12.8418 -1.5033,-6.445 -2.96837,-16.3896 -3.5327,-22.0746 -1.07745,-10.85407 -1.65427,-10.17853 -7.48487,-8.97774 -12.6962,2.61475 -62.615,13.25554 -63.197,13.83754 -0.3643,0.3643 2.344,8.95 6.0184,19.0795 3.6745,10.1293 7.3735,21.0172 8.2199,24.1952 1.079,4.0509 2.0979,5.5636 3.4087,5.0605 1.0283,-0.3945 11.94171,-3.7177 24.25187,-7.3848 z m 11.2367,-28.561 c -3.4223,-4.1236 2.564,-9.3792 6.3597,-5.5835 1.5833,1.5833 1.7301,2.6201 0.6204,4.3824 -1.9053,3.0255 -5.021,3.5616 -6.9801,1.2011 z m -92.63687,-11.9992 c 0.2264,-0.2264 -0.9224,-6.5128 -5.7678,-31.5603 -1.2058,-6.2333 -2.6326,-12.5333 -3.1706,-14 -1.1054,-3.0132 -0.9063,-4.0221 -4.6034,23.3333 -1.2389,9.1667 -2.5682,18.8527 -2.9539,21.5243 l -0.7014,4.8577 8.4801,-1.959 c 4.6641,-1.0776 8.5867,-2.0658 8.717,-2.196 z m 124.58737,-4.1616 c 1.8411,-6.2534 1.8722,-7.3652 0.2243,-7.9975 -3.6778,-1.4113 -7.3414,-0.8047 -6.6125,1.0951 0.3862,1.0061 1.1185,4.6061 1.6274,8 0.5089,3.3937 1.3072,6.1693 1.7739,6.1678 0.4668,0 1.8109,-3.2708 2.9869,-7.2654 z m -35.5157,-15.1194 c 1.067,-0.6573 -9.6258,-4.168 -12.9559,-4.2536 -0.55,-0.015 -1,1.5424 -1,3.459 0,3.4014 0.1515,3.4621 6.3334,2.5369 3.4833,-0.5213 6.9135,-1.3053 7.6225,-1.7423 z m 145.37754,-5.6126 c 6.6494,-6.8098 9.2897,-7.0228 8.2582,-0.6667 -0.4165,2.5667 -0.345,4.6611 0.1589,4.6541 3.2259,-0.044 15.6068,-9.0525 22.3531,-16.2644 9.2816,-9.9221 10.9506,-14.3338 12.0982,-31.9802 1.0307,-15.8482 -1.1149,-24.7018 -10.8563,-44.7974 -11.0275,-22.7488 -23.3152,-34.4241 -40.4822,-38.4648 -11.4669,-2.699 -17.276,-2.2474 -26.3576,2.0489 -12.675,5.9964 -14.7062,10.4772 -9.7326,21.4705 3.1216,6.8995 12.1622,21.3043 13.3817,21.3216 1.0687,0.015 8.3853,-16.3647 10.5761,-23.6769 2.0039,-6.6882 4.1685,-8.8404 7.7486,-7.7041 5.7496,1.8248 4.7933,7.9568 -4.515,28.9507 l -5.8111,13.1065 3.2406,5.6678 c 1.9821,3.4666 3.2468,7.8102 3.2566,11.1847 0.017,5.7692 -2.7793,10.6981 -15.5336,27.3817 -7.2225,9.4476 -7.5976,14.293 -1.6636,21.492 5.9031,7.1616 14.4496,11.2646 23.9427,11.4946 3.8383,0.093 5.7107,-0.8902 9.9373,-5.2186 z m -160.6667,-39.9044 c 0,-2.298 9.21186,-16.7007 16.62646,-25.9951 8.4366,-10.5756 8.366,-10.9595 -3.171,-17.2387 l -6.4858,-3.53 -13.48487,17.4642 c -7.4166,9.6053 -13.4848,18.2523 -13.4848,19.2155 0,2.4738 7.5213,8.5055 11.7694,9.4389 1.9602,0.4305 4.16391,0.983 4.89731,1.2276 2.4533,0.8184 3.3333,0.6646 3.3333,-0.5824 z m -62.66671,-40.067 c 4.7667,-0.6885 19.6912,-2.1799 33.1655,-3.3141 24.0221,-2.0221 24.58731,-2.1399 29.04641,-6.055 5.35316,-4.7002 9.80636,-5.0556 17.05276,-1.3612 4.3087,2.1967 6.7609,2.4964 14.838,1.8137 5.3219,-0.4499 10.3352,-1.2253 11.1406,-1.7231 1.3422,-0.8295 0.4573,-7.4547 -3.3739,-25.2603 l -0.6896,-3.2047 -22.9232,0.8457 c -12.6078,0.4651 -32.52317,1.73 -44.25657,2.8107 -11.7333,1.0808 -29.8781,2.1423 -40.3218,2.359 -18.943,0.393 -18.9885,0.4015 -19,3.5366 -0.01,2.3123 0.5425,2.9301 2.0851,2.3382 1.1531,-0.4425 3.3389,-0.1397 4.8573,0.6729 2.6025,1.3928 2.7112,2.2335 1.8967,14.6619 l -0.864,13.1844 4.34,-0.026 c 2.3871,-0.014 8.2401,-0.5898 13.0067,-1.2783 z m -12.3276,-12.362 c -0.9928,-2.6998 0.3702,-5 2.9628,-5 2.5926,0 3.9991,2.3002 3.0573,5 -0.3197,0.9167 -1.6672,1.6667 -2.9943,1.6667 -1.3271,0 -2.6887,-0.75 -3.0258,-1.6667 z m 97.02287,-11.1618 c -3.5139,-3.514 -1.9945,-6.5048 3.3047,-6.5048 3.5174,0 4.7495,0.6197 5.1268,2.5785 0.2731,1.4182 -0.5834,3.3682 -1.9033,4.3333 -3.0935,2.2621 -3.91,2.2112 -6.5282,-0.407 z m -117.55107,-9.5048 c 1.1734,-7.099 1.0499,-16.3334 -0.2185,-16.3334 -0.5908,0 -3.1074,1.5 -5.5923,3.3334 -6.6434,4.9013 -10.0706,4.3955 -13.3154,-1.9649 -2.5044,-4.909 -3.0205,-5.2377 -7.0271,-4.4751 -5.357,0.34689 -4.47513,2.31153 -3.9724,6.7466 0.57274,4.97511 0.8752,5.4873 3.0314,4.3333 4.0576,-2.1715 5.1755,-1.5702 9.3463,5.0267 3.5007,5.5373 4.7121,6.4339 9.6373,7.1331 3.0983,0.4399 6.0047,0.8899 6.4587,1 0.4541,0.1101 1.1975,-2.0497 1.652,-4.7997 z m 17.352,-3.7108 c 3.3938,-0.509 6.1705,-1.2884 6.1705,-1.732 0,-1.9071 -14.1177,-14.8906 -16.1915,-14.8906 -1.9688,0 -2.1889,1.0538 -1.6016,7.6667 0.8753,9.8553 1.4162,11.4299 3.6339,10.5789 1,-0.3837 4.595,-1.1141 7.9887,-1.623 z m 24.7514,-3.208 c 1.5865,-1.0039 1.6156,-1.5712 0.1701,-3.3129 -2.3189,-2.7941 -3.6298,-2.6504 -4.4505,0.4878 -1.0261,3.9237 0.7214,5.0771 4.2804,2.8251 z m 31.7116,-3.2626 c 0.5629,-0.5629 -4.587,-10.152 -5.4522,-10.152 -0.1516,0 -2.6121,2.7953 -5.4679,6.2117 -6.30989,7.54816 -7.05164,6.40349 2.5247,5.4152 4.2443,-0.4381 8.0222,-1.1018 8.3954,-1.4749 z m 23.89757,-1.8391 c 1.6973,-1.0913 -1.5467,-10.9795 -3.60196,-10.9795 -0.6197,0 -2.9843,2.7 -5.25481,6 -4.08037,6.40926 -6.58295,6.00857 1.60261,5.98 3.1519,-0.011 6.41626,-0.4613 7.25416,-1 z m 33.4742,-2.1994 c 0.8341,-0.8341 -5.2242,-12.7801 -6.4813,-12.7801 -1.2687,0 -10.3874,9.6134 -12.3659,13.0368 -1.0368,1.7939 0.024,1.9346 8.5886,1.1386 5.3743,-0.4995 9.9907,-1.1274 10.2586,-1.3953 z m -108.12287,-15.0166 c -0.3425,-0.3425 -3.1764,0.9893 -6.2975,2.9596 l -5.6746,3.5822 5.2153,4.3916 5.2154,4.3915 1.0821,-7.3511 c 0.5951,-4.043 0.8018,-7.6312 0.4593,-7.9738 z m -27.5414,9.4742 c 1.1,-0.9295 5.6,-3.7503 10,-6.2685 4.4,-2.5181 14.9,-8.9661 23.3333,-14.3287 32.6156,-20.74 40.9958,-25.7806 52.3029,-31.4593 6.4334,-3.2311 11.69501,-6.3187 11.69231,-6.8613 0,-0.5426 -1.8523,-5.7866 -4.11041,-11.6533 -2.2581,-5.8666 -5.9637,-15.7666 -8.2348,-22 -2.2711,-6.2333 -4.2439,-11.5058 -4.384,-11.7166 -0.4741,-0.7133 -7.266,2.8041 -7.266,3.763 0,0.5234 0.8373,3.3249 1.8607,6.2254 1.0234,2.9006 2.0734,8.2166 2.3333,11.8135 0.4551,6.2956 0.3045,6.6195 -4.0332,8.6756 -2.4782,1.1747 -9.5325,3.8783 -15.6762,6.0079 -13.8488,4.8006 -14.9934,4.3553 -19.8266,-7.7124 l -1.98,-4.9437 -6.9431,3.6103 -6.9431,3.6104 0.3506,8 c 0.3959,9.033 -1.8614,29.8116 -3.9424,36.2897 -0.7579,2.3593 -3.184,5.8093 -5.3913,7.6666 -3.6803,3.0968 -5.0676,3.377 -16.7203,3.377 -14.5481,0 -14.0795,-0.975 -6.2612,13.0285 4.6528,8.3337 5.3428,8.6756 9.8395,4.8759 z m 55.1186,-18.8307 0.8251,-8.2597 -7.9718,4.7488 c -4.3846,2.6119 -7.9719,5.0127 -7.9719,5.3352 0,0.5502 13.83,7.0236 14.1467,6.6216 0.081,-0.1024 0.518,-3.9031 0.9719,-8.4459 z m 30.9006,-10.0737 c 0.4671,-3.1167 0.6538,-7.9032 0.415,-10.6367 l -0.4342,-4.97 -9.8095,5.4274 -9.8094,5.4275 8.4761,5.1622 c 4.6619,2.8391 8.8894,5.1833 9.3944,5.2092 0.5051,0.026 1.3005,-2.5029 1.7676,-5.6196 z m -81.7998,-0.4407 c 3.2931,-0.7662 3.7023,-1.6694 5.6,-12.3596 3.4011,-19.1599 3.9102,-26.2924 2.2381,-31.3589 -1.783,-5.4024 -1.2965,-5.1927 -20.6678,-8.9083 -13.3621,-2.5629 -14.7443,-2.619 -16.1788,-0.6572 -0.8628,1.1799 -2.3195,9.1157 -3.2372,17.6351 -0.9177,8.5195 -2.69,20.1971 -3.9385,25.9502 -1.2485,5.7531 -1.9172,10.833 -1.4859,11.2888 0.9113,0.9632 32.4106,-0.3664 37.6701,-1.5901 z m -14.0201,-13.1874 c -0.7703,-2.0074 2.3035,-6.0386 4.6044,-6.0386 2.1558,0 2.9253,3.9167 1.1822,6.017 -2.1018,2.5326 -4.8192,2.5427 -5.7866,0.022 z m 111.76617,-2.3719 c -1.2309,-5.8414 -2.30286,-6.7079 -5.37046,-4.3413 -2.53371,1.9547 -2.50661,2.0808 1.146,5.3383 4.84886,4.3244 5.32216,4.2127 4.22446,-0.997 z m -36.42957,-33.2897 c 1.2935,-0.4312 0.4691,-4.2262 -3.2853,-15.1238 -2.7567,-8.0014 -5.5356,-15.0715 -6.1753,-15.7112 -1.2435,-1.2435 -7.3355,0.3981 -17.7242,4.7762 -7.54419,3.06313 -6.99735,1.56576 -2.887,8.1717 1.8857,3.0306 5.427,9.7101 7.8696,14.8435 2.4425,5.1333 4.7964,9.6881 5.2309,10.1217 0.4345,0.4336 4.0423,-0.852 8.0172,-2.8571 3.975,-2.005 8.0043,-3.9045 8.9541,-4.221 z m -12.1494,-2.9796 c -2.5627,-3.0878 -1.1383,-6.7307 2.6318,-6.7307 2.4796,0 3.4284,0.802 3.765,3.1825 0.6672,4.719 -3.5047,7.033 -6.3968,3.5482 z m 140.31057,77.4075 c -3.1,-1.0114 -7.8014,-3.1163 -10.4476,-4.6776 l -4.8113,-2.8388 -3.9881,3.3558 c -7.4519,6.2704 -11.0626,2.2577 -4.3102,-4.7903 l 3.4731,-3.6252 -4.4636,-9.067 c -3.8911,-7.9039 -4.4285,-10.2314 -4.1892,-18.1439 0.8389,-27.7415 27.8171,-48.9935 60.22734,-47.444 9.7244,0.4649 12.7115,1.1709 17.954,4.2432 12.1562,7.124 21.8468,25.1033 20.2194,37.5138 -2.1971,16.7555 -15.2308,33.5728 -32.3028,41.6802 -8.6093,4.0886 -11.7977,4.8846 -20.9402,5.2278 -6.6394,0.2493 -12.9509,-0.3019 -16.42084,-1.434 z m 33.10184,-9.8832 c 15.2703,-7.2878 26.1937,-21.7089 27.5196,-36.3312 0.5973,-6.5869 0.1824,-8.5342 -3.1054,-14.575 -10.3412,-19.0001 -30.7115,-23.933 -53.1127,-12.8617 -15.92654,7.8713 -25.04854,21.4361 -25.16494,37.4216 -0.065,8.855 1.6337,12.9668 8.7123,21.0946 9.7107,11.1501 28.26924,13.3087 45.15114,5.2517 z m -33.06364,-10.4641 c -1.1959,-3.1162 2.52394,-9.1242 5.64914,-9.1242 3.4918,0 4.2219,5.4183 1.1827,8.7766 -2.8438,3.1424 -5.70364,3.2879 -6.83184,0.3476 z m -14.5493,-9.0273 c -0.4016,-1.0466 -0.5328,-3.2966 -0.2915,-5 0.3256,-2.2975 1.2993,-3.0969 3.7722,-3.0969 4.075,0 5.23,4.5794 1.9757,7.8338 -2.671,2.6709 -4.4986,2.7591 -5.4564,0.2631 z" fill="#00B894" transform="translate(228.89487,58.501215) matrix(0.77297748,0,0,0.77297748,-774.9977,404.84728)"/>
</svg>