<?xml version="1.0" ?><svg height="381.71115mm" viewBox="0 0 324.63812 381.71115" width="324.63812mm" xmlns="http://www.w3.org/2000/svg">
    <path d="m -178.46976,-607.77906 -33.16993,14.39258 9.73829,17.71094 -21.19727,9.38867 -3.39453,-4.80469 -40.29688,-7.61914 -11.00586,62.76758 15.07813,1.99023 7.88281,18.04883 -13.53515,3.07617 0.78125,18.87696 -68.13868,32.03906 11.50391,31.38086 54.68164,-19.5 -10.67773,113.78125 -31.16016,5.73047 14.31836,62.17578 100.44531,-21.12695 8.22071,20.00195 29.17187,-8.52344 -3.32813,-20.00195 13.64649,-5.34766 3.2168,23.59961 45.38867,6.61524 16.423829,-94.36524 -16.060549,-2.57226 -3.34961,-3.96094 -37.19141,-5.82813 -0.73632,13.70899 -38.55469,9.38867 -23.99024,-97.55859 57.8086,-5.83008 -20.66211,32.06445 25.21875,16.94531 30.45898,-43.98046 -11.1914,-7.88086 30.021479,-2.49219 -6.367189,-38.27539 -11.45898,-19.04102 -19.38867,21.56836 -10.94532,-19.4375 -16.21679,21.42774 -10.3418,-17.48829 -16.55078,20.48438 -14.07227,-13.02734 -3.12695,14.5957 -8.48828,0.60351 -0.32227,-5.38671 2.79297,-28.34375 21.95703,10.93554 4.64649,-26.67578 27.67578,13.86914 0.0918,-29.84765 18.78125,14.58984 -3.92969,-22.6543 -22.13672,-50.11523 -11.54883,6.49219 z m 152.328119,29.03321 c -9.87549,0.20914 -19.79308,3.25218 -27.5293,10.48437 -20.62991,19.28582 -20.33906,47.01093 -10.11132,59.96289 18.99581,20.72069 44.50844,10.05895 62.4941397,0.49805 17.9857003,-9.5609 23.3656503,-40.07195 13.8769503,-54.65625 -5.9304303,-9.11519 -22.27132,-16.63763 -38.73047,-16.28906 z m 27.5468797,87.4414 c -0.94398,0.0331 -1.85561,0.12533 -2.72852,0.28125 -13.9665197,2.49471 -28.9456797,12.23379 -29.6386697,21.97266 0,0 9.94396,21.54062 20.93555,40.03125 10.9915897,18.49063 4.6511097,19.93602 -5.95704,43.34765 -10.60815,23.41163 -3.51049,29.11183 16.8984397,38.57227 20.4089203,9.46044 41.3151603,-0.2387 60.8652403,-30.01367 19.55008,-29.77497 -4.99752,-69.64357 -15.16993,-86.20508 -9.53663,-15.52642 -31.0455,-28.483 -45.2050703,-27.98633 z m -225.4121087,101.05078 15.97656,58.71094 -25.32617,6.33398 z m 95.93359,155.1211 c 0,0 -27.7637,7.40954 -38.92383,11.78906 -8.61627,3.38125 1.15235,10.2793 1.15235,10.2793 l -137.3086,1.96093 -6.60742,31.07227 3.45508,8.92578 194.20898,-5.48437 -3.17968,-22.40625 102.242179,25.60742 36.79492,-20.60352 z m -58.73437,74.56445 -10.66993,32.66211 155.242189,5.92969 -10.74414,-35.21094 z" fill="#FFFFFF" paint-order="markers stroke fill" transform="translate(124.84527,65.278356) matrix(0.77297748,0,0,0.77297748,134.7191,407.31345)"/>
    <path d="m -59.147567,-118.89138 c -4.4,-0.5991 -36.499997,-1.6366 -71.333393,-2.3058 -34.8333,-0.669 -64.3833,-1.6548 -65.6666,-2.1906 -3.8718,-1.6166 -3.4954,-6.4247 1.8174,-23.2168 6.0523,-19.1295 4.6978,-17.9138 18.9801,-17.035 47.483,2.9218 74.2512,3.7446 98.315093,3.0222 25.3919,-0.7623 27.6092,-0.6435 29.6281,1.5874 2.3193,2.5628 11.5927,29.7234 11.5927,33.9535 0,1.3796 -0.6212,3.6689 -1.3803,5.0873 -1.5272,2.8536 -7.0345,3.129 -21.9531,1.0978 z m 12.6463,-8.852 c -0.07,-3.4436 -3.7331,-4.5654 -22.7352,-6.9626 -11.3178,-1.4277 -22.696936,-1.46758 -25.630336,-1.74068 -2.9333,-0.2732 -0.685561,-1.94932 5.338136,-2.07262 6.0237,-0.124 16.9874,0.4621 24.3638,1.3009 7.3764,0.8388 13.7121,1.2247 14.0792,0.8575 1.8413,-1.8413 -1.5146,-4.8552 -6.4775,-5.8172 -3.0714,-0.5953 -27.7844,-1.2103 -54.917793,-1.3664 -45.5949,-0.2624 -51.31243,0.37504 -60.55463,-2.21906 -9.5814,-2.6893 -5.97297,-3.83878 1.05343,-2.88268 4.0334,0.5489 27.9345,1.25064 56.1679,1.31244 31.753993,0.069 53.494693,0.6578 57.000093,1.5429 6.1433,1.5511 6.6648,0.9079 4.8262,-5.9525 l -0.8039,-3 -44.844497,-0.041 c -30.645296,-0.028 -49.910696,-0.6528 -60.844596,-1.9721 -24.529,-2.9596 -22.635,-3.4757 -25.2355,6.8772 -1.2246,4.8749 -3.1013,10.9572 -4.1705,13.5161 l -1.944,4.6527 27.0083,-0.6648 c 31.4111,-0.7732 79.090793,0.9533 96.341793,3.4887 14.3419,2.1077 22.0074,2.5066 21.9796,1.1438 z m -252.322993,-39.9856 c -7.3779,-0.4627 -7.7542,-0.6668 -9.6667,-5.2442 -1.0945,-2.6193 -1.99,-7.0513 -1.99,-9.8486 0,-5.773 4.6667,-26.455 6.3489,-28.1372 1.9192,-1.9192 14.9171,-3.7114 36.9845,-5.0996 28.9829,-1.8232 139.8073,-1.7603 146.4462,0.083 4.396,1.2207 5.4958,2.3412 7.8444,7.9926 2.4357,5.861 3.1816,6.5778 6.8871,6.6196 5.4778,0.061 13.143496,1.8305 56.958593,13.1422 l 36.803,9.5014 11.50190012,-4.637 c 15.66419988,-6.3149 22.76699988,-10.0694 21.38409988,-11.3034 -0.6372,-0.5687 -9.5586,-2.6699 -19.82529988,-4.6694 -26.66190012,-5.1922 -60.67700012,-14.0465 -95.54949712,-24.8717 -18.011396,-4.84603 -23.005616,-11.80627 -40.000096,-6.0876 -24.9525,8.3967 -33.28,10.5824 -34.743,9.1195 -1.0592,-1.0592 -1.0091,-2.0058 0.1824,-3.4415 2.0451,-2.4641 18.732,-7.9927 32.4279,-10.7436 9.96278,-3.57374 18.17043,0.0123 28,2.6219 51.108893,13.5686 83.070493,21.5128 107.6822932,26.7648 28.9365998,6.1748 31.9999998,7.5712 31.9999998,14.5868 0,5.6412 -13.482,14.0058 -33.2389998,20.6225 -7.9943002,2.6773 -8.8935002,2.7319 -13.3334002,0.8069 -2.6185,-1.1352 -12.2609,-3.9136 -21.4276,-6.174 -9.1666,-2.2605 -28.5456,-7.6742 -43.0643,-12.0306 -14.518697,-4.3564 -26.612593,-7.9207 -26.875193,-7.9207 -0.2627,0 -0.1637,1.2 0.2198,2.6667 0.3836,1.4666 1.1127,2.6666 1.6203,2.6666 0.5077,0 1.9731,0.7678 3.2564,1.7063 2.212296,1.6176 2.194296,2.0308 -0.3465,7.9581 -3.0821,7.1902 -3.0696,7.1855 -22.1439,8.2507 -97.6426,5.4524 -146.1072,6.87 -174.3433,5.0993 z m 88.3433,-8.3764 c 82.6699,-2.876 118.661796,-7.0034 52.6667,-6.0395 -34.5015,0.5039 -75.0374,1.8363 -128.3333,4.2184 -9.7167,0.4343 -17.6667,1.3007 -17.6667,1.9255 0,2.4449 20.7231,2.4217 93.3333,-0.104 z m -78.6666,-7.9579 c 13.3318,-2.0679 61.8574,-4.1345 120.2232,-5.1203 29.0894,-0.4912 53.2995,-1.3033 53.8001,-1.8045 0.5007,-0.5012 0.4865,-1.5971 -0.032,-2.4353 -0.6226,-1.0074 -5.3012,-1.4247 -13.8002,-1.2312 -7.072,0.161 -25.4582,-0.4336 -40.8582,-1.3215 -25.3678,-1.4624 -46.6075,-1.172 -57.3334,0.7841 -2.7634,0.504 -3.5878,0.2979 -2.6666,-0.6665 3.6131,-3.7832 61.1443,-5.8141 80.6666,-2.8477 10.5133,1.5974 32.3312,0.3001 31.6156,-1.88 -0.2692,-0.8198 -5.07409,-1.79529 -12.45673,-1.7594 -14.23725,0.0692 -15.21391,-3.24546 0.17453,-3.1937 11.43349,0.0385 11.8073,-0.6259 8,-2.3723 -3.2159,-1.4752 -21.186,-1.9678 -91.6693,-2.5133 l -87.6694,-0.6784 0.7084,3.8467 c 0.3896,2.1156 -0.104,8.7816 -1.0968,14.8132 -1.7858,10.8494 -1.7755,10.9601 0.961,10.3456 1.5213,-0.3416 6.6661,-1.226 11.4327,-1.9655 z m 333.333393,-15.3468 c -1.0265,-2.6997 -2.1757,-3.3333 -6.0457,-3.3333 -5.8517,0 -4.9519,-2.2336 1.3783,-3.4212 2.5148,-0.4718 5.2733,-1.7024 6.1301,-2.7347 2.3129,-2.7869 5.2039,0.2052 5.2039,5.3857 0,7.091 -4.482,9.8496 -6.6666,4.1035 z m -19.4054,-11.3805 c -2.1379,-1.4024 -6.4401,-2.9328 -9.5606,-3.4007 -7.5063999,-1.1257 -5.9482999,-3.2188 2.3961,-3.2188 3.6333,0 7.7492,-0.7139 9.1463,-1.5864 3.2728,-2.044 6.7569,0.5528 6.7569,5.0361 0,4.7732 -4.0532,6.2434 -8.7387,3.1698 z m -40.9779,-4.7806 c -0.5225,-0.5225 -0.9501,-2.3346 -0.9501,-4.0269 0,-2.0907 -1.3217,-3.7604 -4.1239,-5.2095 -5.5393,-2.8644 -4.207,-3.7356 2.2493,-1.4706 3.7782,1.3253 6.0471,1.4494 8.2646,0.4518 2.3839002,-1.0725 3.5441002,-0.8877 5.2712002,0.8394 2.0638,2.0638 2.0283,2.465 -0.5219,5.8957 -2.6391,3.5504 -8.2281002,5.4813 -10.1892002,3.5201 z m -34.1199,-16.3776 c -1.0101,-0.639 -4.1601,-0.8504 -7,-0.4694 -5.3806,0.7217 -7.3368,-1.4558 -2.6455,-2.9447 1.3849,-0.4396 4.1705,-2.3307 6.1903,-4.2025 0.341578,-6.57364 3.592251,-3.47759 7.1328,0.057 2.7282,2.7283 3.1615,3.9343 2.0477,5.7 -1.777,2.8171 -3.386,3.3398 -5.7253,1.8596 z m 54.0210001,-0.7946 c -0.4221,-1.1 -1.5363,-2.0271 -2.476,-2.0602 -0.93969998,-0.033 -3.5084999,-0.9153 -5.7084999,-1.9606 -3.9564,-1.8796 -3.9309,-1.8919 2.3333,-1.1218 5.0720999,0.6236 6.3333999,0.3827 6.3333999,-1.2094 0,-1.0935 0.8203,-2.6691 1.823,-3.5012 2.7724,-2.3008 4.5877999,0.9344 3.8456,6.8532 -0.4608,3.6745 -1.2575,5 -3.0052,5 -1.308,0 -2.7235,-0.9 -3.1456,-2 z m -302.4300931,-13.6667 c -1.0957,-1.2833 -2.7,-7.1333 -3.5652,-13 -0.8651,-5.8667 -3.3545,-18.1667 -5.5319,-27.3333 -2.1773,-9.1667 -3.966,-17.7167 -3.9748,-19 -0.01,-1.4391 -1.0379,-2.3334 -2.6826,-2.3334 -1.4666,0 -2.6666,-0.5569 -2.6666,-1.2376 0,-1.9446 13.0039,-6.30764 24.1472,-8.10144 l 10.1473,-1.6335 0.8585,-12.2121 c 0.4721,-6.7168 2.0314,-19.4026 3.4652,-28.1907 1.4337,-8.78811 3.5354,-25.5739 4.6703,-37.3016 1.1349,-11.7277 2.3707,-22.6731 2.7462,-24.3231 0.3755,-1.65 0.1982,-3 -0.3941,-3 -0.5922,0 -7.3536,2.4423 -15.0254,5.4273 -7.6717,2.985 -18.9794,7.3006 -25.1283,9.5903 -7.46447,1.88606 -8.8255,7.0704 -13.6667,1.0916 -1.3678,-1.6892 -2.5123,-4.0548 -2.5434,-5.2569 -0.031,-1.2021 -1.7761,-7.2817 -3.878,-13.5103 -2.1018,-6.2286 -3.541,-11.7786 -3.1982,-12.3333 1.5462,-2.5018 3.4779,-0.259 8.6061,9.9913 7.50439,16.10262 6.158,12.08913 20.5724,5.6773 7.7879,-3.4759 19.0438,-7.9003 25.0132,-9.8319 l 10.8533,-3.512 3.2211,-16.3334 c 2.7425,-13.9067 3.5909,-16.3333 5.7105,-16.3333 2.8288,0 3.3721,-2.41161 0.7684,-3.41081 -0.9465,-0.3632 -12.4268,4.49181 -25.5117,10.78891 -35.8154,17.236 -50.137,22.8469 -50.0843,19.6219 0.023,-1.3979 16.8926,-10.7866 31.9652,-17.7899 6.9565,-3.2322 17.6804,-8.2938 23.8309,-11.24801 l 11.1827,-5.3713 0.1691,-9.24559 c 0.30356,-7.55999 -2.22831,-8.59024 4.8358,-10.5216 2.5667,-0.7018 4.9105,-1.4681 5.2086,-1.7029 0.2981,-0.2348 -0.5324,-2.8094 -1.8455,-5.7213 -2.2202,-4.9235 -2.9589,-5.4209 -10.542,-7.098 -7.6345,-1.6884 -8.1801,-2.0611 -8.5569,-5.8461 -0.6225,-6.254 9.46728,-66.50001 14.24697,-65.71342 1.35902,0.22365 35.97893,5.50941 38.39073,6.10941 1.596,0.397 3.8454,1.7644 4.9986,3.0387 1.9837,2.192 2.4829,2.1384 9.2627,-0.9941 l 7.1659,-3.3109 -3.2856,-7.1767 c -2.7233,-5.9486 -2.9928,-7.5295 -1.5746,-9.2384 3.0422,-3.6655 12.2945,-9.3702 22.2938,-13.7455 9.036,-3.9538 9.9925,-4.1214 12.8476,-2.2506 1.6967,1.1117 4.4195,4.7781 6.0506,8.1477 2.8957,5.9816 3.0399,6.0777 6.1055,4.0691 5.6628,-3.7105 6.9257,-2.6268 14.4704,12.4169 10.2729,20.48361 15.9082,35.06681 18.7089,48.41511 3.527,16.8101 1.2332,19.847 -8.4103,11.1347 -2.8264,-2.5535 -5.5281,-4.2535 -6.0038,-3.7778 -0.4758,0.4757 -0.8683,3.6149 -0.8724,6.9761 0,3.3611 -0.6323,8.3611 -1.396,11.1111 -1.9501,7.0219 -5.4648,6.5775 -17.4395,-2.205 -11.0243,-8.0855 -10.8236,-8.159 -12.3922,4.5383 -2.186,17.694 -2.9139,18.1956 -15.5295,10.7009 -4.9692,-2.9522 -9.38,-5.3676 -9.8018,-5.3676 -0.4218,0 -0.793,3.45 -0.8249,7.6667 -0.032,4.2167 -0.5514,10.2167 -1.1544,13.3333 -0.9737,5.03359 -0.8182,5.66669 1.3914,5.66669 2.1245,0 2.4877,-1.0637 2.4877,-7.28639 0,-5.9578 0.4935,-7.5506 2.7067,-8.735 2.3127,-1.2378 3.7166,-0.5653 9.6438,4.6197 6.833,5.9773 8.9828,7.16 8.9828,4.9417 0,-0.6196 2.3869,-4.8196 5.3043,-9.3333 6.9273,-10.7178 9.1841,-10.7494 14.8033,-0.2067 2.3452,4.4 4.684,8 5.1975,8 0.5134,0 1.6753,-1.65 2.5819,-3.6667 0.9065,-2.0166 3.4853,-6.5476 5.7304,-10.0687 5.4529,-8.5519 8.3709,-8.1304 13.7435,1.9852 2.2152,4.1708 4.4006,7.9561 4.8564,8.412 0.4558,0.4558 4.3131,-3.4067 8.5717,-8.5832 4.2585,-5.1766 8.7699,-9.4119 10.0251,-9.4119 1.2552,0 3.8411,1.8526 5.7464,4.1169 7.145596,8.492 9.746996,15.0924 13.414793,34.0371 4.5085,23.2868 4.1815,24.436 -7.022097,24.6755 -12.601696,0.2694 -14.953196,0.3654 -14.953196,0.6105 1.14151,3.85507 7.93521,5.60822 4,11.1393 -0.42459,0.59677 -2.781,4.4629 -6.1801,8.2901 l -6.1801,6.9584 3.6781,3.1638 c 3.6748,3.1609 3.6807,3.1614 6.5135,0.5182 5.3809,-5.0207 9.447496,-4.9385 20.268793,0.4097 5.4691,2.703 11.2362,6.6626 12.8159,8.7991 5.1322,6.9418 22.2537,10.409 33.3373,6.7511 5.8368,-1.9263 13.8246,-10.2108 21.713,-22.5194 l 6.2271,-9.7163 -4.5833,-6.9503 c -2.5208,-3.8227 -5.5797,-8.9004 -6.7976,-11.2837 -1.2179,-2.3834 -2.3955,-4.3334 -2.6169,-4.3334 -0.2214,0 -4.0941,1.5 -8.6059,3.3334 -11.6734,4.7433 -22.9023,4.5894 -33.9523,-0.4653 -4.5673,-2.0892 -9.4357,-5.0767 -10.8189,-6.6389 -2.314,-2.6134 -2.3356,-2.909 -0.2696,-3.7018 1.2349,-0.4739 7.0123,0.4957 12.8386,2.1547 12.3581,3.5188 18.1842,3.1296 29.7557,-1.9879 6.9446,-3.0712 7.7051,-3.7891 6.998,-6.6063 -2.2869,-9.11171 4.7877,-18.7418 18.5623,-25.2675 7.3188002,-3.4672 8.9488002,-3.7295 20.1434001,-3.2415 10.8003999,0.4708 13.3198999,1.0942 22.2394999,5.5025 14.4178,7.1257 23.8684,17.83129 34.2314,38.7774 10.7278,21.6835 12.5082,29.2318 11.7225,49.7011 -0.7984,20.80039 -3.3968,26.67349 -17.8929,40.4435 -10.9172,10.3702 -20.97,15.9285 -30.8158,17.0382 -5.5369,0.6242 -6.3842,1.2744 -12.1419,9.3187 -3.4044,4.7563 -10.2175999,14.1209 -15.1405998,20.81044 -12.2664002,16.6677 -16.6141002,24.7421 -14.2151002,26.3996 3.3073,2.2849 30.3594,0.049 50.4993,-4.1727 10.6334,-2.2293 19.586558,-3.3389 21.041346,-3.7201 6.252171,-1.63828 28.292054,17.5541 28.292054,19.5744 0,0.5985 -0.9191,1.8511 -2.0424,2.7832 -3.0173,2.5043 -11.0238,-0.2925 -19.0897,-6.6683 -9.087365,-8.12734 -9.671163,-4.47565 -21.775,-1.4188 -42.20051363,10.65785 -70.5668,8.3228 -70.3912,-5.7945 0.063,-5.0516 9.7133,-21.1367 22.8909002,-38.15354 7.09859992,-9.1666 12.7941999,-17.2596 12.6568999,-17.9844 -0.1372,-0.7248 -2.9495,-2.2832 -6.24949998,-3.463 -3.29999992,-1.18 -6.99899992,-2.5816 -8.21989992,-3.1147 -3.0561002,-1.3345 -10.3921002,5.5321 -26.6902002,24.9825 -17.8977,21.35964 -19.2673,24.97064 -10.2238,26.95684 6.0916,1.3379 9.1339,3.4903 9.1339,6.462 0,2.2804 -0.7789,2.4606 -7.8619,1.8183 -15.8222,-1.4347 -20.421,-7.3893 -14.7516,-19.1008 3.7142,-7.67254 21.4779,-30.24914 32.5558,-41.37644 l 8.1169,-8.1531 -2.6963,-3.61491 c -5.8674,-7.8664 -2.8907,-19.528 10.7855002,-42.25329 4.3983,-7.3085 5.7667,-13.5633 3.3008,-15.0873 -0.6696,-0.4138 -4.5114002,3.9485 -8.5374002,9.694 -11.7601,16.7829 -18.5199,21.2314 -34.0905,22.4342 -6.7847,0.5241 -10.6055,0.053 -16.5493,-2.0417 -6.9662,-2.455 -7.809,-2.5123 -8.55,-0.5814 -0.4981,1.298 0.1829,2.8643 1.728,3.9746 4.3329,3.1137 9.8833,8.61719 9.8833,9.79969 0,1.7265 -3.9804,5.3156 -5.8952,5.3156 -0.9376,0 -4.2722,-1.8599 -7.4103,-4.1331 -5.1417,-3.7246 -6.0266,-3.9613 -8.9536,-2.3949 -3.9684,2.1239 -7.528997,0.3537 -8.183597,-4.0684 -0.3399,-2.29599 -1.0868,-2.82229 -3.2156,-2.26559 -3.3508,0.8763 -7.675096,-1.2124 -7.675096,-3.7071 0,-0.9946 -1.644,-2.221 -3.6533,-2.7254 -4.2881,-1.0763 -5.6228,-2.8074 -5.6837,-7.3722 -0.03,-2.2177 -1.7914,-4.7836 -5.2641,-7.6666 -2.8707,-2.3834 -5.7099,-4.3263 -6.3093,-4.3176 -1.3562,0.02 -11.0896,13.9074 -11.0896,15.8229 0,0.7704 -1.0892,1.9837 -2.4204,2.6963 -5.2158,2.7913 -19.3942,-3.2934 -22.8886,-9.8227 -0.9945,-1.8584 -2.5665,-3.3789 -3.4931,-3.3789 -2.7415,0 -3.4556,-4.8099 -1.4207,-9.5688 1.0421,-2.4372 4.9996,-8.5502 8.7944,-13.5845 3.7948,-5.0343 6.7186,-9.3076 6.4974,-9.4963 -0.2213,-0.1888 -11.2023,0.3302 -24.4023,1.1532 l -24,1.4964 0.4013,3.3333 c 0.2207,1.8333 2.4328,10.8333 4.9158,20 2.483,9.1667 7.3103,27.7667 10.7275,41.33329 3.4171,13.56671 6.688,25.16981 7.2688,25.78471 0.5808,0.6149 8.3229,-0.5465 17.2046,-2.5812 l 16.1486,-3.6992 0.018,-4.7521 c 0.011,-2.6138 0.38,-6.1022 0.8222,-7.75221 1.0279,-3.8357 4.898,-3.8794 21.8263,-0.2466 6.9666,1.49501 14.9006,3.06401 17.631,3.48651 2.906596,0.4499 5.250796,1.6648 5.655196,2.9309 0.441,1.3807 2.2615,2.1971 5.0356,2.2579 8.519597,0.1869 11.678297,1.6648 11.678297,5.4637 0,3.2766 -2.7276,18.9703 -5.1987,29.9116 -0.6273,2.77794 -0.4927,8.07124 0.3193,12.55114 1.3216,7.2912 1.2318,7.8616 -1.5249,9.692 -2.5592,1.6993 -2.93,3.1448 -2.9368,11.4489 0,5.2272 -0.59,13.0598 -1.3016,17.4056 -0.888197,5.4239 -0.851297,8.435 0.1178,9.6027 0.7765,0.9356 1.0218,2.9299 0.5452,4.4317 -1.0731,3.381 -3.313897,3.4311 -28.665693,0.6406 -28.4347,-3.1299 -30.688,-4.4184 -30.688,-17.5476 0,-7.4454 -0.3033,-8.4951 -2.3333,-8.075 -1.8189,0.3763 -2.211,1.5003 -1.7783,5.0978 0.3052,2.5382 0.6052,7.0097 0.6666,9.9368 0.1107,5.2756 0.033,5.3609 -8.9766,9.8273 -11.4271,5.6648 -24.7594,7.2752 -28.9362,3.4953 -1.4532,-1.3152 -2.6455,-3.0481 -2.6496,-3.8512 0,-0.8029 -0.6493,-3.7714 -1.4337,-6.5965 -1.2773,-4.6001 -1.7988,-5.0688 -4.9926,-4.4863 -6.9226,1.2623 -63.7703,12.9204 -79.2379,16.2496 -18.6412,4.0124 -17.4236,3.9488 -19.9072,1.0399 z m 21.5789,-10.9985 c 9.3583,-2.3118 61.7244,-13.2311 75,-15.6391 2.0166,-0.3657 3.6666,-1.1187 3.6666,-1.6729 0,-1.8808 -6.6656,-33.9735 -8.9615,-43.14704 l -2.2836,-9.1241 -5.3774,0.8448 c -10.0762,1.5832 -15.2136,3.4519 -15.853,5.7665 -0.35,1.267 -1.9312,11.60364 -3.5138,22.97034 -4.2075,30.2201 -3.5481,28.5129 -11.3929,29.4957 -3.6398,0.456 -9.0178,1.5027 -11.9511,2.3259 -7.4008,2.0771 -17.4157,1.8824 -21.8784,-0.4253 -6.4824,-3.3523 -7.431,-7.9928 -5.6735,-27.7539 0.8523,-9.5824 1.2771,-17.6951 0.944,-18.028 -0.8946,-0.8947 -19.9152,1.0608 -21.83,2.2443 -1.2404,0.7665 -0.516,4.4138 2.9614,14.9113 2.5319,7.6432 5.971,20.0487 7.6425,27.5677 2.4188,10.8812 3.4602,13.5479 5.1032,13.0672 1.1352,-0.3321 7.1641,-1.8636 13.3975,-3.4034 z m 108.0861,1.1677 c 4.1501,-1.7853 6.5805,-3.6581 6.5805,-5.0707 0,-5.3944 -8.8753,-40.1297 -16.2003,-63.40324 -7.8568,-24.9629 -21.596,-82.1848 -23.2578,-96.8654 -0.4672,-4.1269 -1.2715,-8.1865 -1.7875,-9.0213 -0.5159,-0.8348 -4.1967,-1.6582 -8.1796,-1.8299 l -7.2414,-0.312 -1.1379,18.3752 c -1.0554,17.044 -0.936,18.8794 1.6478,25.3333 1.5321,3.8271 5.451,17.45809 8.7088,30.2915 3.2578,12.8333 6.6194,25.1333 7.4703,27.3333 1.2887,3.3321 19.9776,75.79814 19.9776,77.46324 0,1.5041 7.6173,0.202 13.4195,-2.294 z m -16.0345,-47.7393 c -1.9177,-3.5832 -0.3499,-6.7632 3.3345,-6.7632 3.6695,0 5.6325,4.4993 3.2274,7.3973 -2.2247,2.6807 -4.9277,2.4195 -6.5619,-0.6341 z m 87.502196,29.9034 c 4.2684,-20.9494 4.7874,-19.4474 -5.887196,-17.0377 -4.95,1.1173 -15.6,3.9239 -23.6667,6.2367 l -14.6666,4.205 -0.3915,8.0866 c -0.2811,5.8058 0.152,8.5374 1.5356,9.6858 1.7872,1.4832 27.1551,4.054 36.1387,3.6624 3.9343,-0.1714 3.9609,-0.2284 6.937696,-14.8388 z m -160.553796,0.5059 11.6666,-1.7317 0.01,-8.0538 c 0,-4.4296 0.9264,-14.0537 2.0491,-21.387 1.1227,-7.3334 3.5252,-23.23344 5.3389,-35.33344 1.8138,-12.1 3.9162,-23.80001 4.6722,-26.00001 2.2266,-6.4797 10.6778,-78.83839 10.6139,-90.87549 -0.014,-2.6892 -0.8579,-2.9306 -13.0153,-3.7234 -7.15,-0.4663 -15.3806,-1.3916 -18.2903,-2.0564 -2.9097,-0.6647 -5.4006,-1.0891 -5.5355,-0.9433 -0.4674,0.5057 -3.0997,35.054 -4.5918,60.2653 -0.8246,13.9333 -2.6402,33.13329 -4.0347,42.66669 -1.3945,9.53331 -2.5557,23.03331 -2.5806,30.00001 -0.025,6.9666 -0.9147,22.26664 -1.9774,34.00004 -2.5338,27.975 -2.5948,26.4288 1.0103,25.5965 1.65,-0.3808 8.25,-1.4717 14.6667,-2.424 z m -6.1267,-7.6108 c -2.7549,-3.0443 -2.7811,-4.7968 -0.1115,-7.4665 4.9098,-4.9098 13.1537,-0.1659 9.9887,5.748 -1.2385,2.314 -4.1878,4.1568 -6.653,4.1568 -0.5597,0 -2.0106,-1.0972 -3.2243,-2.4383 z m 16.0155,-159.78404 c -2.6046,-2.6046 1.8174,-9.7777 6.0276,-9.7777 2.2429,0 3.8505,5.3212 2.4169,8 -1.3673,2.5548 -6.5717,3.6505 -8.4445,1.7777 z m 117.3955,147.67614 c 12.3103,-3.6672 25.2323,-7.3656 28.7157,-8.2189 3.483396,-0.8533 6.333396,-2.0571 6.333396,-2.6749 0,-0.6179 -1.23,-6.3967 -2.7333,-12.84184 -1.503296,-6.445 -3.093096,-16.3786 -3.532796,-22.0746 l -0.7995,-10.3563 -4.8006,0.8861 c -12.7473,2.353 -64.4998,13.748 -65.0818,14.33 -0.3643,0.3643 2.344,8.95 6.0185,19.07954 3.6744,10.1293 7.3734,21.0172 8.2198,24.1952 1.079,4.0509 2.0979,5.5636 3.4087,5.0605 1.0283,-0.3945 11.9417,-3.7177 24.2519,-7.3848 z m 11.2367,-28.56104 c -3.4223,-4.1236 2.564,-9.3792 6.3597,-5.5835 1.5833,1.5833 1.7301,2.6201 0.6204,4.3824 -1.9053,3.0255 -5.021,3.5616 -6.9801,1.2011 z m -92.6369,-11.9992 c 0.2264,-0.2264 -0.9224,-6.5128 -5.7678,-31.56031 -1.2058,-6.2333 -2.6326,-12.5333 -3.1706,-14 -1.1054,-3.01319 -0.9063,-4.02209 -4.6034,23.33331 -1.2389,9.1667 -2.5681,18.8527 -2.9539,21.5243 l -0.7014,4.8577 8.4802,-1.959 c 4.664,-1.0776 8.5866,-2.0658 8.7169,-2.196 z m 124.587493,-4.1616 c 1.8411,-6.2534 1.8722,-7.3652 0.2243,-7.9975 -3.6778,-1.4113 -7.341397,-0.8047 -6.612497,1.0951 0.3862,1.0061 1.1185,4.6061 1.6274,8 0.5089,3.3937 1.307197,6.1693 1.773897,6.1678 0.4668,0 1.8109,-3.2708 2.9869,-7.2654 z m -35.515793,-15.1194 c 1.067,-0.6573 -9.6258,-4.168 -12.9559,-4.2536 -0.55,-0.015 -1,1.5424 -1,3.459 0,3.4014 0.1515,3.4621 6.3334,2.5369 3.4833,-0.5213 6.9135,-1.3053 7.6225,-1.7423 z m 145.377593,-5.6126 c 6.6494,-6.80981 9.2897,-7.02281 8.2582,-0.6667 -0.4165,2.5667 -0.345,4.6611 0.1589,4.6541 3.2749,-0.045 15.6624,-9.11201 22.6421,-16.57331 9.3902,-10.03809 10.6642,-13.44199 4.1858,-11.18359 -2.4152,0.842 -10.5724,1.194 -19.9337,0.8603 -15.7755,-0.5626 -15.9023,-0.5932 -28.6881999,-6.9404 -7.0634,-3.5064 -12.9673999,-6.1748 -13.1198999,-5.9296 -0.1526,0.2452 -2.8032,3.8701 -5.8903002,8.0553 -7.0171,9.51309 -7.353,14.33869 -1.4929,21.44789 5.9031002,7.16161 14.4496001,11.26461 23.9427,11.49461 3.8383,0.093 5.7107,-0.8902 9.9373,-5.2186 z m 29.3333,-31.8918 c 5.5667,-0.1336 12.421,-4.665 13.4882,-8.9173 0.7033,-2.802 0.716784,-5.35172 -2.436741,-5.52237 -4.034008,-0.2183 -3.833702,-2.76908 0.110841,-3.85803 2.9378,-0.8111 3.1061,-1.3474 2.3708,-7.5559 -0.4354,-3.6755 -2.0674,-10.5169 -3.6269,-15.2031 -2.7232,-8.1832 -2.9964,-8.5044 -6.9053,-8.1193 -4.7467,0.4678 -6.7951,-2.7127 -2.4747,-3.8425 3.7013,-0.9679 3.5274,-2.2755 -1.5637,-11.7564 -3.0604,-5.6994 -5.1753,-8.1247 -7.3538,-8.4337 -2.244,-0.3182 -2.8578,-1.0647 -2.3056,-2.8045 1.3359,-4.20891 -13.1961,-15.8632 -23.4455,-18.8026 -3.1589,-0.906 -3.7401,-0.6088 -4.4662,2.284 -0.6901,2.7495 -1.1745,3.0434 -2.7973,1.6966 -1.0793999,-0.8959 -1.8046999,-2.5988 -1.6116999,-3.7843 0.2876,-1.7664 -0.973,-2.1555 -6.9824,-2.1555 -7.1764999,0 -7.3412999,0.086 -7.7056999,4 -0.7294,7.83689 -4.3232002,15.2898 -7.7926002,16.1605 -3.526,0.885 -8.5017,-2.4513 -8.5017,-5.70051 0,-0.9863 -0.6,-1.7933 -1.3333,-1.7933 -2.1493,0 -1.4852,5.53491 1.4397,12.00001 3.1469,6.9554 12.1662,21.3045 13.4020002,21.3216 0.9844,0.014 9.86349992,-20.3097 11.1845999,-25.6003 1.1622,-4.65411 3.8342,-6.82361 7.1198,-5.78071 5.7817999,1.835 4.7728999,8.13951 -4.6622,29.13261 -5.63229998,12.5318 -5.8295999,13.3761 -3.83669998,16.4175 1.62029998,2.4729 2.85389998,3.0173 5.39339998,2.3799 3.6792,-0.9234 4.3647999,0.9131 1.2927,3.4627 -1.2021,0.9976 -2,3.9143 -2,7.3105 0,3.8579 -1.0785,7.2399 -3.3993,10.6598 -1.86949998,2.7549 -3.2183,5.1898 -2.99719998,5.411 0.2211,0.2211 1.96909998,0.7952 3.88449998,1.276 2.8408,0.713 3.6223,0.3396 4.2408,-2.0258 0.9577,-3.662 3.8797999,-2.114 3.3349999,1.7666 -0.6836999,4.8696 8.9686,7.6574 24.2695,7.0094 6.9667,-0.2951 14.4667,-0.5796 16.6667,-0.6326 z m -20.6667,-5.0756 c 0,-0.6542 0.9177,-2.3542 2.0392,-3.7778 1.9748,-2.5064 2.0274,-2.4862 1.6667,0.6408 -0.3438,2.9794 -3.7059,5.8254 -3.7059,3.137 z m 15.9605,-8.4398 c -2.3628,-4.4149 -0.853,-5.6787 3.0841,-2.5818 3.654,2.8743 3.7722,5.3223 0.257,5.3223 -1.0309,0 -2.5344,-1.2332 -3.3411,-2.7405 z m -29.2419,-2.8443 c -3.1356,-3.3657 -3.4632,-5.0819 -0.97,-5.0819 2.4686,0 7.8014,5.2375 6.869,6.7462 -1.2223,1.9777 -2.9637,1.4864 -5.899,-1.6643 z m 36.6322,-11.7203 c -1.1646,-1.8845 3.0074,-8.3763 4.7078,-7.3254 2.025,1.2515 1.4887,4.0236 -1.2595,6.5107 -1.7358,1.5709 -2.8223,1.8276 -3.4483,0.8147 z m -16.6417,-5.6949 c 0.042,-2.9532 2.7702,-7.6667 4.4379,-7.6667 1.3392,0 0.9977,5.2383 -0.5272,8.0877 -1.8654,3.4855 -3.9627,3.2597 -3.9107,-0.421 z m -15.7964,-5.8854 c 0.5625,-6.8395 4.4207,-7.2464 4.4207,-0.4662 0,3.4309 -0.6341,4.7705 -2.4207,5.1146 -2.0535,0.3954 -2.3568,-0.3096 -2,-4.6484 z m -14.9126999,-8.8561 c 0,-2.2922 3.4700999,-6.2585 5.4754999,-6.2585 1.632,0 -0.5521,4.2405 -3.4026999,6.6062 -1.7233,1.4303 -2.0728,1.3716 -2.0728,-0.3477 z m 26.3333999,-13.032 c -3.0914,-1.8005 -2.9708,-3.8932 0.2242,-3.8932 3.974,0 6.7758,1.4373 6.7758,3.476 0,2.1598 -3.6362,2.3765 -7,0.4172 z m -48.0642,-3.4018 c -1.3186,-1.3186 1.604,-5.8247 3.7777,-5.8247 2.3606002,0 2.5599002,2.8599 0.3531,5.0667 -1.7946,1.7945 -2.8928,1.9961 -4.1308,0.758 z m 38.3284,-11.5239 c -1.061,-2.765 -0.3075,-6.36741 1.4024,-6.70461 1.8588,-0.3665 2.5335,5.73701 0.8233,7.44721 -0.9811,0.9811 -1.6498,0.758 -2.2257,-0.7426 z m -25.4707998,-11.02501 c -0.4343,-1.13159 -0.4299,-2.41709 0.01,-2.85659 0.9496999,-0.9497 4.8635999,2.06339 4.8635999,3.74399 0,2.0122 -4.0430999,1.2759 -4.8731999,-0.8874 z m -136.4601932,79.48651 c 0,-2.298 9.2119,-16.7007 16.6265,-25.9951 8.4366,-10.5756 8.366,-10.9595 -3.171,-17.2387 l -6.4858,-3.53 -13.4849,17.4642 c -7.4166,9.6053 -13.4848,18.2523 -13.4848,19.2155 0,2.4738 7.5213,8.5055 11.7694,9.4389 1.9602,0.4305 4.1639,0.983 4.8973,1.2276 2.4533,0.8184 3.3333,0.6646 3.3333,-0.5824 z m -62.6666,-40.067 c 4.7666,-0.6885 19.6911,-2.1799 33.1654,-3.3141 24.0221,-2.0221 24.5873,-2.1399 29.0464,-6.055 5.3532,-4.7002 9.8064,-5.0556 17.0528,-1.3612 4.3087,2.1967 6.7609,2.4964 14.838,1.8137 5.3219,-0.4499 10.335296,-1.2253 11.140696,-1.7231 1.3422,-0.8295 0.4573,-7.4547 -3.3739,-25.26031 l -0.6896,-3.2047 -22.923296,0.8457 c -12.6078,0.4651 -32.5232,1.73 -44.2565,2.8107 -11.7334,1.0808 -29.8782,2.1423 -40.3218,2.359 -18.9431,0.393 -18.9886,0.4015 -19,3.53661 -0.01,2.3123 0.5424,2.9301 2.085,2.3382 1.1531,-0.4425 3.3389,-0.1397 4.8573,0.6729 2.6025,1.3928 2.7112,2.2335 1.8968,14.6619 l -0.8641,13.1844 4.3401,-0.026 c 2.387,-0.014 8.24,-0.5898 13.0067,-1.2783 z m -12.3276,-12.362 c -0.9929,-2.6998 0.3701,-5 2.9627,-5 2.5926,0 3.9991,2.3002 3.0573,5 -0.3197,0.9167 -1.6671,1.6667 -2.9942,1.6667 -1.3271,0 -2.6888,-0.75 -3.0258,-1.6667 z m 97.0228,-11.1618 c -3.5139,-3.514 -1.9945,-6.5048 3.3047,-6.5048 3.5174,0 4.7496,0.6197 5.1268,2.5785 0.2731,1.4182 -0.5833,3.3682 -1.9032,4.3333 -3.0936,2.2621 -3.9101,2.2112 -6.5283,-0.407 z m -117.551,-9.50481 c 1.1733,-7.099 1.0498,-16.33339 -0.2185,-16.33339 -0.5909,0 -3.1075,1.5 -5.5924,3.3334 -6.6434,4.9013 -10.0706,4.3955 -13.3154,-1.9649 -2.5044,-4.909 -3.0205,-5.2377 -7.0271,-4.4751 -5.55673,0.40819 -4.40156,2.61556 -3.9724,6.7466 0.521,4.9808 0.8752,5.48729 3.0314,4.3333 4.0576,-2.1715 5.1755,-1.5702 9.3463,5.02669 3.5008,5.53731 4.7122,6.43391 9.6373,7.13311 3.0983,0.4399 6.0047,0.8899 6.4588,1 0.454,0.1101 1.1974,-2.0497 1.652,-4.79971 z m 17.352,-3.7108 c 3.3937,-0.509 6.1704,-1.2884 6.1704,-1.732 0,-1.90709 -14.1177,-14.89059 -16.1914,-14.89059 -1.9688,0 -2.189,1.0538 -1.6017,7.6667 0.8753,9.85529 1.4162,11.42989 3.6339,10.57889 1.0001,-0.3837 4.595,-1.1141 7.9888,-1.623 z m 202.170493,-1.1802 c 0,-1.04 0.3642,-2.83999 0.8093,-3.99999 0.888,-2.3141 -1.626,-2.818 -4.6136,-0.9249 -1.4074,0.8919 -1.4704,1.7674 -0.2865,3.97959 1.7265,3.226 4.0908,3.7723 4.0908,0.9453 z m -177.419093,-2.0278 c 1.5864,-1.00389 1.6155,-1.57119 0.17,-3.31289 -2.3188,-2.7941 -3.6298,-2.6504 -4.4505,0.4878 -1.026,3.92369 0.7215,5.07709 4.2805,2.82509 z m 31.7115,-3.26259 c 0.5629,-0.5629 -4.587,-10.152 -5.4522,-10.152 -0.1516,0 -2.6121,2.7953 -5.4679,6.2117 -6.30989,7.54816 -7.05164,6.40349 2.5247,5.4152 4.2444,-0.4381 8.0223,-1.1018 8.3954,-1.4749 z m 23.8976,-1.8391 c 1.6973,-1.0913 -1.5467,-10.9795 -3.602,-10.9795 -0.6197,0 -2.9843,2.7 -5.2548,6 -4.08037,6.40925 -6.58296,6.00857 1.6026,5.98 3.1519,-0.011 6.4163,-0.4613 7.2542,-1 z m 33.4742,-2.1994 c 0.8341,-0.8341 -5.2242,-12.7801 -6.4812,-12.7801 -1.2688,0 -10.3875,9.6134 -12.366,13.0368 -1.0368,1.7939 0.024,1.9346 8.5886,1.1386 5.3743,-0.4995 9.9907,-1.1274 10.2586,-1.3953 z m -108.1229,-15.0166 c -0.3425,-0.3425 -3.1764,0.9893 -6.2974,2.9596 l -5.6747,3.5822 5.2153,4.3916 5.2154,4.3915 1.0821,-7.3511 c 0.5951,-4.043 0.8018,-7.6312 0.4593,-7.9738 z m -27.5414,9.4742 c 1.1,-0.9295 5.6,-3.7503 10,-6.2685 4.4,-2.5181 14.9,-8.9661 23.3334,-14.3287 32.6155,-20.74 40.9957,-25.7806 52.3028,-31.4593 6.4334,-3.2311 11.695,-6.3187 11.6923,-6.8613 0,-0.5426 -1.8523,-5.7866 -4.1104,-11.6533 -2.2581,-5.86661 -5.9637,-15.76661 -8.2348,-22.00001 -2.2711,-6.2333 -4.2439,-11.5058 -4.384,-11.7166 -0.4741,-0.7133 -7.2659,2.8041 -7.2659,3.763 0,0.5234 0.8373,3.3249 1.8606,6.2254 1.0234,2.9006 2.0734,8.2166 2.3334,11.8135 0.455,6.2956 0.3044,6.6195 -4.0332,8.67561 -2.4782,1.1747 -9.5326,3.8783 -15.6763,6.0079 -13.8488,4.8006 -14.9933,4.3553 -19.8266,-7.71241 l -1.98,-4.9437 -6.9431,3.6103 -6.9431,3.61041 0.3506,8 c 0.3959,9.033 -1.8614,29.8116 -3.9424,36.2897 -0.7579,2.3593 -3.1839,5.8093 -5.3913,7.6666 -3.6802,3.0968 -5.0676,3.377 -16.7203,3.377 -14.5481,0 -14.0795,-0.975 -6.2611,13.0285 4.6528,8.3337 5.3427,8.6756 9.8394,4.8759 z m 55.1186,-18.8307 0.8251,-8.2597 -7.9718,4.7488 c -4.3845,2.6119 -7.9719,5.0127 -7.9719,5.3352 0,0.5502 13.8301,7.0236 14.1467,6.6216 0.081,-0.1024 0.5181,-3.9031 0.9719,-8.4459 z m 30.9006,-10.0737 c 0.4671,-3.1167 0.6538,-7.9032 0.415,-10.6367 l -0.4342,-4.97 -9.8094,5.4274 -9.8095,5.4275 8.4761,5.1622 c 4.6619,2.8391 8.8894,5.1833 9.3944,5.2092 0.5051,0.026 1.3005,-2.5029 1.7676,-5.6196 z m -81.7998,-0.4407 c 3.2931,-0.7662 3.7023,-1.6694 5.6,-12.3596 3.4012,-19.1599 3.9102,-26.2924 2.2381,-31.3589 -1.7829,-5.40241 -1.2965,-5.19271 -20.6678,-8.90831 -13.3621,-2.5629 -14.7443,-2.619 -16.1788,-0.6572 -0.8627,1.1799 -2.3194,9.11571 -3.2371,17.63511 -0.9177,8.5195 -2.6901,20.1971 -3.9386,25.9502 -1.2485,5.7531 -1.9172,10.833 -1.4859,11.2888 0.9113,0.9632 32.4107,-0.3664 37.6701,-1.5901 z m -14.0201,-13.1874 c -0.7703,-2.0074 2.3035,-6.0386 4.6045,-6.0386 2.1557,0 2.9252,3.9167 1.1821,6.017 -2.1018,2.5326 -4.8191,2.5427 -5.7866,0.022 z m 111.7662,-2.3719 c -1.2309,-5.8414 -2.3029,-6.7079 -5.3705,-4.3413 -2.5337,1.9547 -2.5066,2.0808 1.146,5.3383 4.8489,4.3244 5.3222,4.2127 4.2245,-0.997 z m -36.4296,-33.28971 c 1.2935,-0.4312 0.4691,-4.2262 -3.2853,-15.1238 -2.7567,-8.0014 -5.5355,-15.0715 -6.1753,-15.7112 -1.2435,-1.2435 -7.3355,0.3981 -17.7242,4.7762 -7.54419,3.06313 -6.99735,1.56576 -2.887,8.1717 1.8857,3.0306 5.427,9.7101 7.8696,14.8435 2.4425,5.1333 4.7965,9.68811 5.2309,10.12171 0.4345,0.4336 4.0423,-0.852 8.0172,-2.85711 3.975,-2.005 8.0043,-3.9045 8.9541,-4.221 z m -12.1494,-2.9796 c -2.5627,-3.0878 -1.1382,-6.7307 2.6318,-6.7307 2.4796,0 3.4285,0.802 3.765,3.1825 0.6673,4.719 -3.5046,7.033 -6.3968,3.5482 z m 140.310693,77.40751 c -3.1,-1.0114 -7.8014,-3.1163 -10.4476,-4.6776 l -4.8113,-2.8388 -3.9881,3.3558 c -7.4519,6.2704 -11.0626,2.2577 -4.3102,-4.7903 l 3.4731,-3.6252 -4.4636,-9.067 c -3.8911,-7.9039 -4.4285,-10.2314 -4.1892,-18.1439 0.2457,-8.1248 1.5717,-12.5816 6.7495,-22.6845 0.2819,-0.55 -0.4375,-1 -1.5986,-1 -2.7485,0 -2.8098,-5.7603 -0.085,-8.02141 1.4095,-1.1698 1.7817,-2.9823 1.2234,-5.9582 -0.8469,-4.5143 1.7851,-8.6871 5.4794,-8.6871 1.388,0 1.6544,-1.0848 1.0314,-4.2001 -1.0165,-5.0824 1.8928,-7.7999 8.3503,-7.7999 3.4556,0 4.4286,-0.643 5.1157,-3.3805 0.9329,-3.717 5.6647,-6.1676 9.8137,-5.0826 1.4626,0.3825 3.0625,0.043 3.5552,-0.7541 1.5663,-2.5343 8.5153,-1.691 10.0747,1.2227 1.488088,3.5284 3.728872,3.37461 4.2983,0 0.238393,-1.41279 8.511247,-4.80022 9.4721,0.3278 0.7919304,4.22649 3.5351416,4.00592 7.1446002,2.5918 2.64251363,-1.03529 5.3181149,0.0707 5.9539999,2.0205 0.5707209,1.74997 1.9706544,4.70991 5.5946,4.107 2.2537099,-0.37495 4.1098999,2.8638 4.4888999,4.3128 0.4207,1.6091 1.8221,2.6346 3.6001,2.6346 3.5354,0 6.1111,2.3603 6.1111,5.6 0,1.4589 0.9816,2.4 2.5034,2.4 3.9108,0 8.029593,4.27773 5.0864,8.6779 -2.175413,3.25232 -2.461452,4.27978 1.0181,4.65541 5.261322,0.56797 5.739996,11.23252 0.864309,12.00109 -2.241646,0.35337 -2.730602,4.64231 -1.671609,5.33231 0.736717,0.48002 2.184,1.5392 2.8993,3.4206 1.6615,4.3701 -0.3058,8.2623 -4.7384,9.3748 -2.5001,0.6275 -3.2948,1.7071 -3.2948,4.4758 0,3.4874 -3.4791,8.0621 -6.1313,8.0621 -0.69,0 -3.6428,3.0196 -6.5617,6.7103 -6.1317999,7.7533 -11.4477999,11.7006 -22.6402998,16.811 -9.5990002,4.3829 -25.8333002,5.5977 -34.9696002,2.6169 z m 27.2486,-7.457 c 8.9784002,-3.1557 17.72100012,-8.674 17.72100012,-11.1855 0,-1.218 -1.61649992,-1.7507 -4.99999992,-1.6478 -4.7034,0.1431 -5.0248,-0.1049 -5.4179002,-4.1812 -0.2893,-3.0005 -1.1095,-4.3397 -2.6666,-4.3538 -3.9281,-0.036 -5.9333,-2.2234 -6.773,-7.3896 -0.6929,-4.263 -1.5201,-5.2569 -5.4793,-6.5831 -4.09,-1.3699 -4.715,-2.178 -5.0844,-6.5736 -0.3853,-4.5851 -0.6996,-4.9417 -3.694,-4.1902 -4.6174,1.1589 -8.5515,-1.3235 -8.5515,-5.3959 0,-3.1467 -0.3138,-3.3189 -4.3333,-2.3768 -2.3834,0.5585 -5.8334,1.084 -7.6667,1.1677 -2.6592,0.1215 -4.1088,1.6907 -7.1672,7.7589 -14.4522,28.6742 12.4442,56.0816 44.1129,44.9509 z m -27.2104,-12.8903 c -1.1959,-3.1162 2.5239,-9.1242 5.6491,-9.1242 3.4918,0 4.2219,5.4183 1.1827,8.7766 -2.8438,3.1424 -5.7036,3.2879 -6.8318,0.3476 z m -14.5493,-9.0273 c -0.4016,-1.0466 -0.5328,-3.2966 -0.2915,-5 0.3256,-2.2975 1.2993,-3.0969 3.7722,-3.0969 4.075,0 5.23,4.5794 1.9757,7.8338 -2.671,2.6709 -4.4986,2.7591 -5.4564,0.2631 z" fill="#00B894" transform="translate(124.84527,65.278356) matrix(0.77297748,0,0,0.77297748,134.7191,407.31345)"/>
</svg>