<?xml version="1.0" ?><svg height="68.108131mm" viewBox="0 0 93.111839 68.108131" width="93.111839mm" xmlns="http://www.w3.org/2000/svg">
    <path color="#000" d="m 3944.414,-463.9157 c -0.7591,-10.6744 17.1745,-13.9194 26.5683,-16.652 9.3938,-2.7326 265.7774,-53.7132 265.7774,-53.7132 9.2514,6.78887 34.6825,123.85419 42.0541,164.57324 2.0624,11.39189 3.8178,24.49998 -13.8727,25.85673 0,0 -246.7581,55.39583 -264.6389,53.71323 -17.8807,-1.6827 -19.1671,-9.6497 -27.2324,-25.533 -8.0654,-15.8834 -28.6558,-148.245 -28.6558,-148.245 z" fill="#FFFFFF" overflow="visible" paint-order="fill markers stroke" transform="translate(-53.281929,-50.475315) matrix(0.26458333,0,0,0.26458333,-987.60642,193.68533)"/>
    <path d="m 3982.4215,-291.82037 c -13.6786,-10.32109 -16.2883,-17.05546 -26.8392,-69.3269 -3.5654,-17.65443 -10.3295,-47.24877 -15.0311,-65.76565 -7.5636,-29.78648 -8.0155,-34.94807 -3.9054,-44.78238 6.8025,-19.22872 27.8509,-17.46965 42.5453,-19.2055 44.4374,-5.16819 94.0685,-15.12656 175.3314,-35.18114 65.1115,-16.06837 72.8346,-17.29739 82.7849,-13.1746 15.9684,6.61391 21.3959,17.48602 24.6029,49.26539 3.0634,30.40032 7.5318,51.71165 17.6534,84.21095 12.108,38.86786 6.6772,68.91564 -12.7864,70.76677 -5.6907,0.54091 -27.541,5.00003 -48.5609,9.90942 -104.5735,24.42221 -136.5453,31.24138 -166.7729,35.57335 -55.2949,7.92329 -55.4963,7.91644 -69.022,-2.28971 z m 58.5989,-9.4406 c 57.6207,-5.83917 221.6885,-46.02961 225.1938,-55.1642 0.9448,-2.46472 0.3868,-10.60287 -1.2439,-18.085 -5.7182,-26.60457 -10.1165,-50.02141 -15.7244,-77.01093 -1.9565,-9.37535 -6.2721,-9.63282 -46.6654,-2.78409 -67.1424,8.6134 -135.3206,31.50319 -196.3037,43.55387 -35.0812,6.85667 -44.1317,10.97979 -41.8528,19.06648 1.0902,3.87527 5.1276,21.11744 8.9679,38.31575 11.4614,51.33857 16.3292,58.80991 36.3592,55.79133 5.7333,-0.8637 19.8037,-2.52135 31.2693,-3.68321 z m -33.9717,-10.86894 c -6.922,1.12669 -7.5402,-12.4697 -9.6596,-18.0103 -1.4803,-3.87786 1.3517,-5.41948 3.6765,-5.82038 4.9505,-0.85535 31.8082,-10.94646 38.0585,-7.08431 1.9974,1.23545 3.6339,7.43074 3.6339,13.76739 0,9.78461 -1.4419,11.8115 -9.5543,13.44902 -9.023,2.05129 -16.2507,1.78622 -26.155,3.69858 z m 23.3273,-16.63451 c -0.7686,-2.15964 -5.7166,-3.6061 -10.9971,-3.21456 -10.9126,0.80966 -13.7663,2.66905 -10.9903,7.16359 2.7877,4.5084 23.6648,0.75853 21.9874,-3.94903 z m -33.0353,-21.06046 c -6.8134,1.16218 -7.9746,-6.10658 -8.47,-11.36165 -0.4971,-5.25499 -2.04,-13.05372 -3.4334,-17.32997 -2.9289,-8.99317 2.811,-10.70496 32.8506,-16.75331 14.2342,-2.86637 42.4752,-8.17382 62.5394,-11.75561 50.7471,-9.0585 53.864,-8.86394 59.0642,3.6929 6.4383,19.96853 3.3808,23.79142 -10.4857,25.85415 -10.3947,2.28302 -39.2222,8.90771 -64.064,14.72173 -51.6953,12.09854 -65.0481,12.42827 -68.0011,12.93176 z m 101.008,-27.41716 c 30.7421,-7.89848 32.9233,-9.03844 31.7972,-16.62441 -0.6633,-4.47958 -1.7543,-11.62395 -2.2405,-12.13813 -0.827,-0.87114 -57.2789,11.57216 -92.7703,17.5759 -24.6472,4.16958 -38.2597,9.07245 -36.0226,14.91112 1.0735,2.7952 1.9531,7.05758 1.9531,9.47259 0,5.71679 50.1357,-1.08466 97.2831,-13.19707 z m 69.8356,-21.27382 c -8.2034,-8.73261 -9.5685,-20.39934 -2.9915,-25.53487 6.5837,-5.13862 57.0217,-9.91627 61.5178,-11.89538 7.602,-3.34412 13.3665,29.77526 9.2209,30.84508 -1.0424,0.269 -10.5409,2.71015 -21.7283,4.32854 -11.1917,1.61873 -24.4709,4.5455 -29.515,6.50397 -7.7139,2.99603 -10.3295,2.32237 -16.5039,-4.24734 z m 35.5156,-9.57769 c 19.4778,-3.91135 24.294,-5.65431 20.4114,-13.79747 -2.4636,-3.58079 -5.1832,-2.47064 -27.4236,0.32656 -21.6557,4.88851 -25.4567,6.32629 -23.2404,12.10239 2.4468,6.37106 4.8126,6.47799 30.2526,1.36852 z m -126.1974,-57.57128 c 34.6493,-9.20268 75.4678,-17.40457 140.0531,-28.14227 9.19,-1.52809 15.1138,-3.99665 17.8338,-4.61926 8.5017,-1.94569 -1.0626,-28.95159 -13.088,-26.98434 -5.1451,0.84265 -40.4485,6.29604 -85.1341,16.69457 -102.7272,23.90637 -123.8207,28.48144 -149.7986,32.49262 -30.3487,4.68634 -34.9458,7.60869 -34.9458,22.21856 0,11.86054 0.2088,12.03706 14.7671,11.94918 37.7694,-3.34998 74.797,-14.20129 110.3125,-23.60906 z" fill="#00B894" transform="translate(-53.281929,-50.475315) matrix(0.26458333,0,0,0.26458333,-987.60642,193.68533)"/>
</svg>