<?xml version="1.0" ?><svg height="174.65369mm" viewBox="0 0 209.83662 174.65369" width="209.83662mm" xmlns="http://www.w3.org/2000/svg">
    <path d="m 1003.1075,118.64056 c -4.62154,-0.0513 -9.62534,1.01521 -14.61504,3.02842 -16.8088,6.78101 -20.5756,20.79361 -20.6809,33.66823 -0.448,15.64852 12.3293,25.15579 30.5601,26.27022 18.23094,1.11442 27.84744,-20.27158 25.87154,-41.51577 -1.3893,-14.93732 -10.1901,-21.32939 -21.1357,-21.4511 z m 134.8155,33.37692 -64.8885,24.91926 -0.1582,4.67069 3.2935,18.13824 7.7452,39.40546 66.8858,-3.36789 -1.1395,-48.86774 -62.7166,1.78144 55.9842,-25.32248 z m -132.6792,40.3397 c -3.937,0.0347 -8.72634,1.30943 -14.72314,3.80789 -15.9916,6.66247 -25.2653,19.34765 -26.6615,35.37558 -1.3962,16.02766 3.2475,30.49085 4.3011,43.21492 1.4555,14.02821 52.05174,3.44567 59.77094,1.99946 7.7193,-1.44621 7.2719,-3.22421 6.1386,-7.06517 -1.1324,-3.84122 -9.0365,-56.05065 -14.5954,-67.09939 -3.4743,-6.90536 -7.669,-10.2915 -14.2306,-10.23329 z" fill="#FFFFFF" transform="translate(106.98372,13.799716) translate(-1050.4139,-121.08665)"/>
    <path d="m 966.16428,273.88857 c -3.9498,-9.588 -5.584,-19.5605 -5.5744,-34.019 0.026,-21.665 2.4187,-28.9129 12.8186,-38.6413 7.1395,-6.6788 15.3166,-10.8565 23.9483,-12.2354 10.66692,-1.7041 16.49272,-0.026 22.34562,6.4581 5.5037,6.0919 9.9503,18.6078 11.2588,31.6904 0.344,3.4366 0.8382,6.2483 1.0988,6.2483 0.2598,0 2.7136,-1.2814 5.4514,-2.8479 3.8097,-2.1798 6.2727,-4.6699 10.4988,-10.6167 7.3966,-10.4076 10.6734,-17.1518 13.0931,-26.9488 3.7454,-15.1644 9.2571,-22.9396 19.6145,-27.6691 5.838,-2.6657 15.1387,-3.9801 17.7645,-2.5108 1.2607,0.7056 3.8146,-0.097 11.0037,-3.4524 5.1492,-2.4037 13.408,-5.9531 18.3525,-7.8867 7.3132,-2.8596 9.2477,-3.3024 10.3684,-2.3723 2.0256,1.6812 7.0233,10.865 7.0233,12.9061 0,2.5876 -2.7595,4.0473 -22.9183,12.1216 -10.0511,4.0256 -20.9824,8.6147 -24.2917,10.1971 -5.8478,2.7965 -5.9111,2.8636 -2.2454,2.3886 10.4888,-1.3589 40.6692,-3.348 47.1479,-3.1074 10.3976,0.3865 10.1346,-0.3625 10.2521,29.2059 l 0.092,23.3775 -3.3248,0.8595 c -4.1507,1.0728 -16.9797,2.5349 -29.6784,3.3821 -8.5852,0.5727 -9.8819,0.889 -11.3605,2.7685 -2.2573,2.8693 -10.8269,5.9421 -16.5729,5.9421 -4.22,0 -5.2683,0.4549 -10.3793,4.5055 -6.6493,5.2693 -10.8507,7.4907 -19.1079,10.1011 -7.8057,2.4681 -11.5643,3.0652 -19.4512,3.0901 -6.4664,0.025 -6.4682,0.025 -6.4682,2.6195 0,1.4296 -0.6457,3.1353 -1.4349,3.7901 -1.8857,1.5653 -3.6757,-0.181 -4.7838,-4.667 -0.6814,-2.7578 -1.7047,-3.7218 -6.8785,-6.4797 -8.896,-4.7421 -12.394,-7.7418 -18.2339,-15.6361 -5.1653,-6.9827 -16.27482,-27.9973 -17.18492,-32.5075 -0.2571,-1.2771 -0.1053,-2.9102 0.3398,-3.6296 1.7314,-2.8014 5.1703,1.6052 12.93932,16.5814 8.642,16.6593 13.6487,23.0414 21.373,27.2459 l 4.8156,2.6205 -0.6446,-5.8997 c -3.6483,-33.4146 -6.9244,-45.4625 -14.0666,-51.7333 -3.9016,-3.426 -6.3711,-4.0526 -13.66122,-3.4674 -11.2257,0.9011 -25.1376,10.214 -29.2937,19.6097 -4.1816,9.4532 -5.4653,31.2899 -2.6976,45.8904 2.458,12.967 1.6996,20.1268 -1.3483,12.7281 z m 94.90562,-17.0312 c 4.1823,-1.3824 10.0458,-4.2814 13.5905,-6.7199 5.6245,-3.869 6.2036,-4.5583 5.9175,-7.0467 -0.1758,-1.5172 -0.9406,-3.457 -1.7028,-4.3115 -1.767,-1.9803 -5.871,-28.7413 -6.181,-40.3065 -0.2177,-8.1411 -0.9359,-11.2878 -1.9369,-8.4914 -0.2546,0.7092 -1.7684,5.0385 -3.3656,9.6209 -3.7634,10.7972 -5.1455,13.4251 -11.7146,22.2722 -5.7184,7.7014 -9.2428,10.6046 -18.058,14.876 -5.9364,2.8765 -5.8296,2.5622 -4.3583,12.8389 1.2034,8.4047 1.5831,9.5052 3.476,10.0756 3.6549,1.1011 17.2542,-0.4681 24.3332,-2.8076 z m 54.5351,-22.5606 c 12.2164,-0.5513 23.9838,-1.3044 26.15,-1.6737 l 3.9381,-0.6713 0.3122,-5.8921 0.3124,-5.8922 -3.5521,0.5647 c -4.2345,0.6734 -26.6917,2.129 -46.4742,3.0125 l -14.2257,0.6356 0.5759,4.2002 c 0.3164,2.3101 0.7646,4.3889 0.9951,4.6199 0.231,0.2309 1.7191,-0.6735 3.3071,-2.0097 3.2735,-2.7544 7.1418,-3.1849 8.0214,-0.8929 0.3938,1.0266 -0.3076,2.291 -2.1118,3.8081 -1.4936,1.2561 -1.977,2.0305 -1.0809,1.7322 0.8914,-0.2968 11.6159,-0.9903 23.8325,-1.5413 z m -5.5507,-12.943 c 28.104,-2.2582 35.6897,-3.1061 36.3189,-4.059 0.3742,-0.5667 0.6864,-1.8244 0.6944,-2.795 0.025,-1.7104 -0.824,-1.7457 -27.0623,-1.1399 -26.3151,0.6071 -38.6606,1.2207 -39.3974,1.9575 -0.1967,0.1967 -0.066,2.0999 0.294,4.2271 l 0.6532,3.8681 8.927,-0.6016 c 4.9094,-0.3309 13.7169,-0.9867 19.5722,-1.4572 z m -21.059,-9.0234 c 0.1888,-0.382 0.1705,-3.1377 -0.036,-6.1241 l -0.3783,-5.4297 -4.9984,0.4144 c -2.7492,0.2282 -5.1652,0.5887 -5.3696,0.8015 -0.2046,0.2125 0.046,2.7818 0.5538,5.7094 l 0.9252,5.3225 h 4.4815 c 2.4649,0 4.6355,-0.3121 4.8232,-0.694 z m 30.9144,-0.8023 10.3185,-0.5257 -0.4924,-5.7002 c -0.271,-3.135 -0.5405,-5.7147 -0.5988,-5.7322 -1.1427,-0.3469 -38.5453,1.1315 -38.9519,1.5394 -0.4772,0.4789 0.4903,6.1126 1.8283,10.6458 0.3101,1.0506 3.2897,1.0263 27.8963,-0.2282 z m 27.1721,-6.9504 v -6.5956 l -2.893,0.5786 c -1.591,0.3184 -5.189,0.5786 -7.9957,0.5786 h -5.1031 l 0.6133,5.2166 c 0.3372,2.869 0.8358,5.5768 1.1077,6.017 0.2719,0.4401 3.5942,0.8003 7.3827,0.8003 h 6.8881 z m -66.4183,-5.9784 c 0.5175,-0.5175 -2.5145,-4.0883 -3.4713,-4.0883 -0.6875,0 -0.5606,3.2961 0.1549,4.0111 0.761,0.7613 2.5904,0.8038 3.317,0.077 z m 6.1352,-3.7462 c -2.0027,-2.1316 -6.3666,-3.0536 -6.3666,-1.3451 0,1.53 4.9043,4.4599 6.6857,3.9942 1.6518,-0.432 1.6357,-0.5683 -0.3191,-2.6491 z m 10.0662,1.6704 c 0.8338,-0.5292 0.3898,-1.305 -1.5823,-2.7628 -4.7775,-3.5323 -9.3546,-2.2701 -4.9229,1.3576 2.7075,2.2162 4.5881,2.6224 6.5052,1.4052 z m 9.4799,-0.8554 c 0,-1.2457 -6.0732,-4.8599 -8.1506,-4.8599 -2.8162,0 -2.5125,1.0428 0.9954,3.4137 2.9232,1.976 7.1682,2.8336 7.1552,1.4462 z m 8.5546,-3.0358 c -3.0148,-2.7423 -8.6896,-3.8417 -9.881,-1.9144 -0.9296,1.5044 5.3349,4.688 9.2015,4.6759 h 3.7026 l -3.0231,-2.75 z m 12.1208,2.1918 c 1.251,-1.2508 -5.8615,-5.06 -8.8999,-4.7665 l -2.9747,0.2877 3.6861,2.5455 c 3.534,2.4408 6.8891,3.2329 8.1885,1.9333 z m 8.9533,-3.0905 c -2.3042,-1.9393 -4.2427,-2.7343 -6.7114,-2.752 -1.9092,-0.025 -3.4659,0.2875 -3.4592,0.6693 0.029,1.6887 6.2441,4.747 9.7077,4.7777 l 3.7027,0.031 z m 7.4055,-0.4626 c -2.1187,-2.1858 -3.9849,-3.2401 -5.7358,-3.2401 -1.4274,0 -2.5846,0.3124 -2.5719,0.6943 0.048,1.3806 6.9729,5.7179 9.1835,5.7513 2.2301,0.033 2.2171,-0.025 -0.8758,-3.2055 z m 3.1851,-2.5861 c -0.3315,-0.8636 -1.1518,-1.236 -2.003,-0.9094 -1.2567,0.4821 -1.2257,0.7115 0.2415,1.7834 1.9728,1.4426 2.5431,1.16 1.7625,-0.874 z m -65.0338,-3.6155 c 2.5891,-2.7719 2.6609,-3.039 1.1201,-4.1656 -2.3427,-1.7132 -2.6213,-1.5813 -4.361,2.0672 -2.8213,5.9164 -1.266,6.9232 3.2409,2.0984 z m -4.1394,-4.0911 c -0.8878,-0.8877 -3.5272,1.5319 -2.856,2.6181 0.3343,0.541 1.1517,0.3198 2.0174,-0.5457 0.8006,-0.8005 1.178,-1.7331 0.8386,-2.0724 z m 20.4528,-6.8325 c 3.1296,-5.0347 2.9633,-5.3115 -1.9572,-3.2556 -3.6052,1.5061 -5.1245,4.4424 -3.3835,6.5397 1.698,2.046 2.231,1.7182 5.3407,-3.2841 z m 4.0959,1.7951 c 1.7226,-0.7849 6.1468,-7.0723 7.9838,-11.3457 0.1836,-0.4249 -1.3271,0.073 -3.3546,1.1083 -2.6802,1.3675 -4.1516,2.9658 -5.391,5.8558 -0.9377,2.1862 -1.8582,4.2872 -2.0455,4.6691 -0.4648,0.9467 0.2623,0.8724 2.8073,-0.2875 z m 8.3025,-3.6916 c 1.1695,-0.5337 2.9924,-2.3041 4.051,-3.934 1.0587,-1.6302 2.6917,-4.1445 3.6292,-5.5875 l 1.7042,-2.6242 -3.5814,1.4966 c -1.9698,0.823 -3.6572,1.5872 -3.7492,1.6982 -0.7643,0.9202 -4.9513,9.9216 -4.6151,9.9216 0.2388,0 1.3918,-0.437 2.5613,-0.9707 z m 15.3897,-7.1594 c 0.6766,-0.8741 2.0443,-3.1634 3.0405,-5.0868 l 1.8107,-3.4965 -2.5775,0.6125 c -1.4178,0.337 -3.3028,1.243 -4.1891,2.013 -1.5575,1.3532 -6.2567,8.7648 -6.2567,9.8683 0,1.0083 6.9338,-2.3092 8.1721,-3.9105 z m 7.6166,-2.0526 c 1.5935,0 3.5414,-5.054 2.5978,-6.7398 -1.4087,-2.5171 -2.425,-1.9033 -4.4578,2.692 -2.2771,5.1478 -2.2937,5.325 -0.4306,4.6099 0.8053,-0.3093 1.836,-0.5621 2.2906,-0.5621 z m -147.45502,20.0437 c -3.4297,-1.1688 -7.8233,-3.4007 -9.7637,-4.9603 -3.4009,-2.7331 -3.6261,-2.7835 -6.2612,-1.4018 -3.0726,1.611 -9.7971,1.7414 -13.6796,0.2655 -3.6671,-1.3945 -9.8816,-6.5927 -9.8816,-8.2655 0,-0.7782 1.0805,-2.5425 2.4012,-3.9209 l 2.4012,-2.5065 -2.1698,-0.6622 c -5.891,-1.7982 -7.0598,-6.2806 -2.5144,-9.6414 l 2.8955,-2.1406 -2.8955,-2.2661 c -1.5925,-1.2464 -2.8953,-3.0455 -2.8953,-3.9981 0,-1.9445 3.291,-4.6136 5.6891,-4.6136 2.4982,0 7.3341,-4.6293 9.1251,-8.7345 3.8322,-8.7863 13.9374,-18.0863 23.2589,-21.4062 10.1342,-3.6095 24.06082,-0.6446 30.16912,6.4227 1.1304,1.3079 3.213,2.6511 4.6284,2.9846 10.3155,2.4323 14.9792,10.9231 12.2499,22.3011 l -1.2325,5.1374 3.0931,2.5242 c 3.3353,2.7225 3.178,4.6561 -0.3788,4.6561 -1.866,0 -2.2375,0.5885 -2.7747,4.397 -0.9436,6.6914 -4.7233,13.586 -11.0206,20.1031 -4.0464,4.1875 -6.7662,6.182 -9.3973,6.8911 -5.9984,1.6161 -14.22202,1.1608 -21.04652,-1.1651 z m 17.89912,-5.243 c 1.8331,-0.5091 4.0617,-1.7311 4.9525,-2.7153 1.5741,-1.7399 1.4154,-1.8891 -5.6468,-5.3176 -6.92012,-3.3595 -7.28012,-3.6877 -7.54672,-6.8794 -0.56,-6.6979 7.94382,-11.8755 16.40522,-9.9885 2.3319,0.5204 5.1554,1.5431 6.2746,2.2728 1.1189,0.7299 2.2424,0.9901 2.497,0.5788 0.4505,-0.7293 0.6954,-7.0336 0.563,-14.505 -0.087,-4.8861 -4.7106,-14.6766 -7.9276,-16.7841 -2.5062,-1.6422 -2.5577,-1.6344 -3.9558,0.6174 -3.164,5.0939 -12.11542,12.6275 -19.50842,16.4178 -4.199,2.153 -8.2184,3.9144 -8.9321,3.9144 -0.7138,0 -2.1265,1.5623 -3.1397,3.4715 -1.0129,1.9092 -3.2703,5.325 -5.0163,7.5912 -3.5534,4.6114 -3.4319,6.1459 0.941,11.879 5.8801,7.7094 20.1457,12.1956 30.04012,9.447 z m 12.1141,-34.4638 c 0.1916,-1.9765 0.8432,-3.1058 1.91,-3.3079 1.2979,-0.2467 1.6202,0.3508 1.6202,3.0009 0,2.7247 -0.3371,3.3077 -1.9103,3.3077 -1.5964,0 -1.8624,-0.4926 -1.6199,-3.0007 z m -8.1283,-0.2573 c -0.8334,-3.3204 1.5906,-5.9727 3.7904,-4.1471 2.172,1.8026 1.4335,5.9443 -1.125,6.3082 -1.5607,0.223 -2.1968,-0.2938 -2.6654,-2.1611 z m 8.6158,23.2135 c 3.1923,-4.9292 3.5664,-7.576 1.2461,-8.8179 -3.7328,-1.9975 -10.7104,-2.2528 -13.6769,-0.5004 -2.9749,1.7573 -5.22792,4.7329 -4.48892,5.9286 0.2572,0.4144 2.96412,1.6644 6.01762,2.7778 3.0535,1.1134 5.7985,2.4235 6.1001,2.9115 1.0383,1.6803 2.7582,0.8566 4.802,-2.2996 z" fill="#00B894" transform="translate(106.98372,13.799716) translate(-1050.4139,-121.08665)"/>
</svg>