<?xml version="1.0" ?><svg height="676.79211mm" viewBox="0 0 762.59186 676.79211" width="762.59186mm" xmlns="http://www.w3.org/2000/svg">
    <path d="m 3282.8915,2873.5423 c 16.9762,-9.8102 37.6158,-17.3688 37.6158,-17.3688 l 14.7423,1.7693 1.3404,-34.4157 134.4694,-1.3671 1.0721,21.6305 19.6567,-4.503 3.3954,-60.7099 -10.2751,-2.5731 c 0,0 24.6602,-29.1087 25.5537,-32.6467 0.8935,-3.5383 0,-18.977 -0.089,-22.6758 -0.089,-3.6989 1.787,-7.6391 1.787,-7.6391 l 8.3987,0.4022 0.1788,18.9767 c 0,0 6.3437,2.8144 11.8832,1.6084 5.5396,-1.2062 15.9936,-5.3073 15.9936,-5.3073 l 29.3063,-43.2607 39.3134,25.9726 11.1683,-2.734 2.9485,-12.3833 11.4366,-3.6988 12.9556,12.2224 131.4318,-27.2592 c 0,0 2.5019,-22.1129 2.8591,-28.2242 0.3574,-6.1111 11.8835,-7.7996 11.8835,-7.7996 l 13.2233,62.2376 13.7599,4.1011 1.0721,-11.5793 6.88,-1.6081 0.6252,16.3232 14.7426,18.2533 -0.8935,84.2701 13.1342,-4.8247 5.2715,-11.2575 4.1101,-1.1255 4.4674,3.7793 1.8765,-11.3379 7.3265,-3.3774 2.9486,10.6143 33.3269,-7.3174 16.9762,50.4175 -2.5911,51.141 c 17.7498,6.4438 17.3224,13.4747 19.9247,40.6876 1.4198,14.8472 12.3119,18.9103 15.5504,29.5636 4.0087,13.1872 -1.0846,29.499 7.7235,68.0328 0.9854,4.311 8.9533,5.0393 8.9533,5.0393 0,0 3.0192,3.3396 16.3322,18.3764 13.3128,15.0368 21.9756,99.2311 28.409,126.9726 6.4331,27.7416 0.8935,66.6605 -9.1136,68.2686 -10.0071,1.6081 -33.5058,-0.4022 -46.8188,0.1609 -13.3128,0.5627 -36.9901,14.6346 -50.7497,23.7209 -13.7597,9.0866 -66.4755,13.3483 -84.5238,15.68 -18.0483,2.3321 -118.9231,13.7504 -123.9264,2.9753 -5.0035,-10.7749 4.7353,-10.2926 -22.8732,-0.4824 -27.6087,9.81 -45.0318,20.2634 -56.2004,21.5501 -11.1686,1.2864 -93.4585,9.6491 -112.5792,4.7442 -19.1206,-4.9051 -29.1274,-9.3279 -29.1274,-9.3279 l 0.9827,-26.0527 c 0,0 -22.2478,-6.1918 -37.973,-9.8906 -15.7253,-3.6989 -51.9962,-50.1926 -57.3572,-58.6357 -5.3607,-8.4428 -23.4984,-29.2692 -44.3167,-40.0444 -20.8182,-10.7749 -43.325,-17.0062 -43.4145,-29.4697 -0.089,-12.4637 -39.749,-16.3752 -41.8404,-65.1898 2.9118,-41.187 -5.8353,-100.2957 9.6732,-132.888 3.493,-7.3408 -0.5171,-47.7331 -2.0172,-70.5165 z" fill="#FFFFFF" paint-order="markers stroke fill" transform="translate(276.2133,189.8961) translate(-3551.4488,-2830.1892)"/>
    <path d="m 3498.1315,3297.5902 c 3.1429,-26.7765 5.9345,-40.438 10.3709,-50.7454 3.1314,-7.2761 4.8436,-13.9818 4.8971,-19.1792 0.046,-4.3952 1.4231,-20.9377 3.0618,-36.7606 3.6018,-34.7712 12.5251,-70.2106 23.1352,-91.8831 5.2687,-10.7618 6.6378,-15.1891 6.1055,-19.7463 -0.3762,-3.2308 -1.3253,-6.2694 -2.1072,-6.7524 -0.782,-0.4835 -1.4217,-2.3699 -1.4217,-4.1921 0,-6.6296 -10.2169,-20.5547 -17.8889,-24.3816 -4.1003,-2.0456 -5.3924,-1.8181 -15.7107,2.7663 -6.8588,3.0477 -10.9503,5.7569 -10.4937,6.948 1.1264,2.9344 -2.4025,5.1132 -10.3277,6.3772 -4.7363,0.7552 -8.5022,2.6196 -11.2708,5.579 -5.1486,5.5037 -13.2202,27.5951 -11.9427,32.6862 0.8754,3.4876 1.1789,3.5678 5.3182,1.4085 8.9396,-4.6634 13.9165,-2.1937 18.713,9.2855 1.3518,3.2362 2.4691,8.2441 2.4826,11.1297 0,4.2265 3.0613,12.8513 3.1474,8.9247 0,-0.6134 2.2204,-0.3489 4.9043,0.5859 7.9562,2.7732 9.7611,7.3622 11.234,28.5633 1.3982,20.118 0.97,23.9104 -2.6994,23.9104 -2.5782,0 -2.4576,1.1668 -2.237,-21.6591 0.154,-15.8643 -0.1859,-18.1136 -3.306,-22.0829 -3.059,-3.8891 -4.2057,-4.2963 -9.5536,-3.3929 -8.0163,1.7551 -6.0881,0.9338 -7.0019,-6.6858 -1.55,-12.9221 -6.2784,-25.2289 -9.8998,-25.7649 -3.5334,-0.5228 -12.2823,5.5623 -10.9943,7.6467 1.4171,2.2929 -1.0145,6.4095 -3.7858,6.4095 -4.6611,0 -14.5142,7.9258 -16.8736,13.5735 -1.8049,4.3195 -1.8973,6.4814 -0.444,10.3352 1.6605,4.3999 2.3418,4.7787 7.0215,3.9007 9.8744,-1.8525 19.6849,7.8053 19.6849,19.3785 0,2.6469 1.1861,3.795 4.6351,4.4849 3.6888,0.7376 5.1391,2.3282 7.1044,7.7912 3.667,10.1937 7.9027,38.2076 6.0565,40.0538 -2.6387,2.6381 -4.5151,-0.046 -5.5753,-7.9693 -1.6971,-12.6892 -5.4634,-32.128 -6.573,-33.9225 -1.6328,-2.6428 -3.5985,-1.9849 -4.5128,1.5105 -1.2976,4.9627 -5.9284,4.0281 -5.9387,-1.1988 0,-6.3904 -3.119,-16.7468 -5.9916,-19.9785 -3.1756,-3.5723 -6.4203,-3.5252 -15.1571,0.2175 -6.1145,2.6209 -7.5665,4.2466 -11.0659,12.3865 -2.215,5.1536 -6.4116,17.8297 -9.3248,28.1689 -6.5413,24.4636 -7.8084,16.6638 -4.9343,0.249 3.6522,-20.7159 11.322,-40.19 15.6537,-43.8231 1.7542,-1.4706 2.6684,-4.043 2.3663,-6.6563 -0.6977,-6.0337 -10.8105,-9.98 -21.9951,-8.5823 -10.1012,1.2619 -11.3277,0 -14.383,-14.5838 -2.6165,-12.5048 -5.6623,-16.2923 -13.4753,-16.754 -3.0768,-0.1814 -6.2653,-0.6892 -7.0862,-1.1272 -2.3283,-1.2424 4.0407,-3.2045 10.8053,-3.3287 8.1831,-0.1498 14.3818,6.0751 17.8182,17.8944 l 2.5842,8.8904 6.7188,-0.4962 6.7192,-0.4956 0.4767,-10.7302 c 0.7703,-17.3371 -1.8846,-26.1948 -9.7465,-32.5221 -7.4093,-7.6092 -12.4768,-4.966 -22.6692,-4.2755 -15.3673,1.0415 -16.426,0.8992 -26.3981,-3.5484 -5.7141,-2.5481 -15.7832,-5.8824 -22.3761,-7.4092 -16.6625,-3.8593 -17.7317,-4.4155 -11.267,-5.8667 7.7939,-1.7492 22.8811,1.0719 36.471,6.8202 10.2812,4.3486 12.8558,4.8156 22.376,4.0576 15.7137,-1.2508 20.5411,-0.05 27.8897,6.941 5.2885,5.0306 6.997,5.8447 9.4792,4.5165 2.741,-1.4666 16.9906,-0.9022 26.5315,1.0514 2.2263,0.4558 3.5963,-0.046 3.5973,-1.292 0,-3.8379 9.1735,-21.2126 13.1077,-24.8326 2.269,-2.0871 7.9503,-4.4439 13.396,-5.5571 5.2011,-1.0629 10.2704,-3.0278 11.2653,-4.3666 0.9949,-1.3387 6.8697,-4.8821 13.0548,-7.8741 10.4601,-5.0597 11.4302,-5.255 13.8884,-2.7967 1.4534,1.4534 3.9249,2.6427 5.4916,2.6427 3.5982,0 9.6717,5.5888 15.2748,14.0546 3.0159,4.5578 4.5926,9.4032 5.1525,15.8352 0.4441,5.0975 0.9683,9.4454 1.1653,9.6619 0.1994,0.2175 4.5233,-2.8401 9.6133,-6.7925 5.0903,-3.9529 9.754,-7.1869 10.3633,-7.1869 1.9011,0 0.1317,-19.5177 -2.6626,-29.3862 -2.0622,-7.2807 -3.7667,-10.0796 -7.5402,-12.3807 -6.3297,-3.8594 -7.7944,-3.7608 -13.1771,0.8881 l -4.4845,3.8732 4.0613,1.5544 c 2.2335,0.8549 5.019,2.7083 6.1892,4.1183 1.8862,2.2725 1.4734,2.5638 -3.6294,2.5638 -6.5036,0 -18.6085,-4.3444 -18.6085,-6.678 0,-0.845 -2.1922,-4.7227 -4.8717,-8.6173 -4.0766,-5.9249 -5.7198,-7.0807 -10.0691,-7.0807 -2.8583,0 -6.0655,0.8686 -7.1265,1.9296 -3.2829,3.2829 -7.0614,-2.3419 -7.9259,-11.7994 -0.989,-10.8163 -2.4284,-12.5062 -10.6531,-12.5062 -8.1885,0 -11.4003,2.3632 -12.6874,9.3338 -0.5419,2.9363 -2.3621,8.4509 -4.0448,12.2548 -3.0513,6.8987 -3.0768,6.9141 -10.0003,6.008 -10.4811,-1.3713 -19.4041,-4.2511 -20.1552,-6.5041 -0.522,-1.5649 2.1986,-1.7732 12.2284,-0.9369 11.2371,0.9374 13.0323,0.7289 13.9324,-1.6174 0.5687,-1.4811 0.526,-3.2013 -0.095,-3.8229 -1.8933,-1.8952 -24.9837,-2.8914 -26.3433,-1.1363 -0.6837,0.8826 -2.5331,5.0529 -4.1092,9.2669 -2.0053,5.361 -3.6327,7.5013 -5.4192,7.1269 -3.478,-0.7294 -2.6997,-5.93 2.9327,-19.5837 3.7332,-9.0508 5.1054,-16.0736 7.1827,-36.7605 1.4123,-14.0647 2.9631,-27.5075 3.4465,-29.8719 0.7329,-3.5855 0.082,-4.7127 -3.9322,-6.7873 -3.6098,-1.8669 -5.8565,-2.0904 -9.0008,-0.8946 -5.3242,2.0241 -9.9826,-0.2854 -11.3201,-5.6167 -0.9414,-3.7499 -8.077,-7.141 -15.0807,-7.1663 -4.7944,0 -9.5456,-4.8406 -9.5456,-9.6896 0,-2.5869 -0.6605,-4.7041 -1.4678,-4.7041 -0.8069,0 -2.4906,-0.3943 -3.7405,-0.8721 -1.897,-0.7282 -2.4385,4.2519 -3.2693,30.0847 -1.0175,31.6282 -1.7419,36.9209 -4.9051,35.8326 -1.2741,-0.4394 -1.6397,-9.0424 -1.2496,-29.4073 l 0.5519,-28.7886 -7.5593,-1.9032 c -4.1573,-1.0471 -10.2459,-3.2744 -13.53,-4.9498 l -5.9713,-3.0463 -1.0063,7.3422 c -0.5536,4.0381 -1.0049,17.131 -1.0026,29.0954 v 21.7529 l 9.1789,4.7952 c 10.4311,5.4489 29.1722,22.9536 29.1722,27.2478 0,1.5693 -0.3851,2.4696 -0.8522,2.0012 -0.4685,-0.4686 -12.2655,4.7523 -26.2157,11.6022 -27.1271,13.3208 -34.1427,15.8646 -43.7891,15.8787 -8.4161,0 -6.8974,-3.0577 3.2112,-6.4936 4.4482,-1.5119 15.3922,-6.5278 24.3201,-11.1462 8.9284,-4.6184 20.8066,-9.12 26.0475,-11.0835 5.9297,-2.2213 11.5811,-1.6536 5.9541,-5.4371 -10.4475,-7.0251 -26.3202,-17.3973 -30.0553,-18.8744 -2.2942,-0.9074 -8.3965,-2.662 -13.5603,-3.899 -9.9837,-2.3916 -23.0633,-9.2021 -20.5983,-10.7252 0.8111,-0.5014 5.3728,0.1271 10.1372,1.3936 4.7638,1.2676 10.9477,2.3139 13.7411,2.3243 4.9524,0 5.1018,-0.1904 5.9695,-8.3721 0.4896,-4.6149 1.0811,-17.2342 1.3143,-28.0428 l 0.4259,-19.6522 -3.996,1.0135 c -13.8201,3.5052 -30.3678,6.4514 -30.3678,5.4067 0,-1.9476 25.4531,-9.4707 32.0432,-9.4707 2.0366,0 3.1189,-1.0919 3.1189,-3.1464 0,-1.7852 -0.8645,-2.8755 -1.998,-2.5209 -6.6586,2.085 -30.5029,5.8036 -32.442,5.0598 -1.7917,-0.6873 -2.3204,-4.1803 -2.3204,-15.3251 0,-7.9389 -0.2311,-14.4349 -0.518,-14.4349 -0.2854,0 -6.3265,2.5172 -13.4263,5.594 -13.9011,6.0243 -18.0217,6.8144 -18.0217,3.455 0,-1.1767 8.8369,-6.6373 19.6373,-12.1351 15.2214,-7.7477 20.8823,-9.8726 25.1732,-9.4486 l 5.5354,0.5478 1.1078,-16.7095 c 1.2291,-18.5447 2.2379,-24.0465 4.4091,-24.0465 0.8032,0 1.9168,1.4384 2.4746,3.1963 1.1538,3.6353 -4.9805,3.3064 75.1194,4.0313 41.8882,0.3806 48.3089,0.1135 50.8016,-2.0976 2.6214,-2.3252 3.127,-2.2576 6.2155,0.8309 2.2336,2.233 3.6291,6.1416 4.1577,11.6426 0.7955,8.2787 0.7969,8.281 5.7217,7.2959 2.7091,-0.5417 5.4054,-1.5113 5.9907,-2.1541 0.5859,-0.643 1.4059,-13.179 1.8223,-27.8585 0.7439,-26.2084 0.6966,-26.6982 -2.6128,-27.1708 -6.3242,-0.9029 -4.822,-6.6399 4.9886,-19.0509 16.6548,-21.0694 16.2324,-20.1634 16.748,-35.926 1.2591,-12.6212 -4.4779,-13.8767 7.499,-14.7335 8.522,-0.6098 9.691,0.8437 9.7235,12.0907 0.046,9.6579 0.1453,9.7045 14.164,5.8065 l 9.2957,-2.5842 11.4578,-20.5738 c 6.9616,-12.5006 11.4573,-22.4204 11.4573,-25.2809 0,-6.5123 2.6673,-12.9076 5.3833,-12.9076 2.8302,0 4.2066,3.4519 4.2066,10.5517 0,5.0736 0.8889,6.065 11.5873,12.9198 6.3732,4.0833 14.2677,9.51 17.5429,12.059 4.3733,3.4032 7.3454,4.501 11.1882,4.1309 5.0139,-0.4826 5.2101,-0.7571 4.6995,-6.572 -0.6374,-7.2525 1.4366,-10.1507 8.6978,-12.1559 7.5706,-2.0901 17.3263,1.8507 19.8873,8.034 1.3525,3.2646 3.0197,4.5963 5.7557,4.5963 3.8904,0 5.4938,-2.2169 6.1701,-8.5316 0.204,-1.9006 0.4622,-4.0104 0.5741,-4.6886 0.1135,-0.6779 1.9994,-2.0506 4.1935,-3.0504 3.296,-1.502 4.5454,-1.3139 7.1923,1.0809 1.7615,1.5944 3.203,4.2256 3.203,5.8476 0,3.9643 1.6211,3.8247 29.8288,-2.5625 13.3294,-3.0182 34.1867,-7.0387 46.3503,-8.9347 12.1632,-1.8956 23.0139,-3.7137 24.1132,-4.0399 1.3283,-0.3943 1.9975,-4.0226 1.9975,-10.8321 0,-15.9893 1.1316,-19.4139 7.4019,-22.4041 3.021,-1.4407 6.9436,-2.6191 8.7168,-2.6191 4.7667,0 7.8311,8.9791 8.5945,25.1809 0.358,7.6416 1.5668,18.481 2.6812,24.088 1.6437,8.2691 2.7388,10.4652 5.8001,11.6292 5.4263,2.0627 6.7595,1.7953 6.7872,-1.3625 0.046,-4.3576 1.9531,-6.2996 7.3694,-7.4745 7.3504,-1.5939 10.7754,2.3763 9.4834,10.992 -0.9332,6.2241 1.012,5.8057 6.4742,14.3896 2.547,4.0026 8.186,8.2835 7.641,12.0079 l -1.3186,37.5674 -1.1412,41.7853 5.712,-0.6669 c 3.8886,-0.4539 5.7511,-1.5038 5.8345,-3.2888 0.2582,-5.5205 1.3396,-8.7435 3.3676,-10.0297 3.3775,-2.1416 10.3351,-1.5857 12.4784,0.9967 2.4661,2.9716 4.8093,1.6754 4.8093,-2.6603 0,-2.5014 -0.7647,-3.089 -3.195,-2.4533 -4.8603,1.2708 -5.5694,-1.8313 -1.4262,-6.2414 4.7648,-5.0718 9.5436,-4.3553 12.671,1.8998 l 2.4556,4.911 10.3306,-3.4644 c 8.6688,-2.9068 10.2541,-3.997 9.8535,-6.7747 -0.5876,-4.0733 3.7093,-14.7674 5.9333,-14.7674 2.3984,0 4.984,5.6185 6.4846,14.0915 0.7293,4.1169 3.6027,13.9587 6.3848,21.8699 6.9563,19.7777 10.0697,33.7636 8.2788,37.1879 -0.7965,1.5232 -1.7638,13.0239 -2.1493,25.5577 l -0.7009,22.7882 5.3045,3.1298 c 8.8163,5.202 5.1974,8.7449 -4.9805,4.8753 -4.0222,-1.5291 -4.0997,-1.4235 -4.0997,5.5943 0,5.048 -0.6552,7.1525 -2.2263,7.1525 -3.085,0 -4.4134,-4.252 -3.2562,-10.4203 1.0471,-5.5803 0.5895,-6.1697 -6.013,-7.7464 -4.1092,-0.9809 -4.3249,-0.7217 -4.7946,5.7729 -0.3443,4.7603 -1.2112,6.7999 -2.8893,6.7999 -1.7876,0 -2.4333,-2.0034 -2.5378,-7.8796 -0.109,-6.1965 -0.7929,-8.1355 -3.1965,-9.0777 -4.9614,-1.9451 -5.4538,-1.6529 -5.4538,3.241 0,6.277 -1.4761,9.7208 -4.1664,9.7208 -1.6092,0 -2.2267,-2.2382 -2.2267,-8.0729 0,-7.7619 -0.222,-8.1659 -5.7665,-10.4829 -3.1719,-1.3252 -6.1983,-1.978 -6.7251,-1.4507 -0.5274,0.5269 -0.9891,10.8022 -1.0263,22.834 -0.054,18.2645 0.3308,21.9542 2.3452,22.3534 1.938,0.3851 2.2961,-0.9831 1.8212,-6.9539 -0.4033,-5.0603 0.1044,-7.871 1.5834,-8.8094 2.9657,-1.8787 14.6188,-1.7814 19.7393,0.1678 6.9521,2.643 18.1,12.9482 26.6075,24.5963 14.9326,20.4447 14.8524,20.4504 -26.5912,2.0373 -8.5135,-3.7825 -17.0594,-6.2094 -25.5729,-7.2629 -21.2442,-2.6281 -44.0918,-12.126 -35.8098,-14.8869 2.8138,-0.9379 1.9105,-51.6883 -1.0213,-57.3579 -1.4694,-2.8414 -2.6219,-9.2283 -2.3265,-17.3184 0.4032,-11.0873 1.6817,-12.5352 -1.7361,-13.3276 l -14.6463,-4.4277 c -9.0077,-2.7228 -17.9751,-5.5853 -19.9214,-6.3795 -1.9468,-0.7938 -3.8338,-0.931 -4.1936,-0.3035 -0.5014,0.872 2.998,90.811 3.6041,92.6405 0.073,0.2175 2.2105,0.3987 4.7504,0.3987 4.9283,0 12.9509,5.3284 10.9884,7.2982 -0.6465,0.6492 -5.6814,0.086 -11.1879,-1.2505 -5.5069,-1.3369 -12.4743,-2.5063 -15.4836,-2.5983 -6.1407,-0.1857 -9.061,-2.2222 -7.2947,-5.0805 0.7811,-1.2636 3.3465,-1.5635 7.5847,-0.8858 l 6.4043,1.0245 -1.0074,-17.2342 c -0.5546,-9.4789 -1.4689,-30.6847 -2.0325,-47.1233 l -1.0035,-25.6534 c -0.2536,-6.5209 -2.6632,-5.3476 -4.8322,-5.913 -7.4293,-1.9354 -10.9314,-2.2467 -9.802,2.2535 1.2219,4.8678 -3.7372,18.4453 -6.7364,18.4453 -1.1993,0 -2.1807,-1.4384 -2.1807,-3.1962 0,-1.7584 -0.7189,-3.1968 -1.5984,-3.1968 -0.8788,0 -1.5979,0.5816 -1.5979,1.293 0,0.7109 -1.0139,2.6794 -2.2529,4.3738 -2.211,3.0237 -2.3157,3.0246 -5.5944,0.059 -1.8462,-1.6709 -3.3408,-2.1973 -3.3408,-1.1771 0,1.0153 -1.5225,1.8457 -3.383,1.8457 -2.596,0 -3.1886,-0.7433 -2.5471,-3.1963 0.5282,-2.0197 0.05,-3.1966 -1.3007,-3.1966 -1.1748,0 -2.3663,1.6182 -2.6473,3.5958 -0.6727,4.7382 -5.158,4.6384 -5.8336,-0.1316 -0.4834,-3.4155 -0.6959,-3.4957 -2.5466,-0.9654 -1.1099,1.5187 -4.1985,2.9998 -6.8624,3.2915 -4.6787,0.5118 -4.879,0.2672 -5.8616,-7.1403 -0.5596,-4.2182 -0.561,-9.9544 0,-12.7466 l 1.0154,-5.0769 -10.1885,1.0187 c -5.6034,0.561 -10.2813,1.0988 -10.3949,1.1954 -0.1135,0.095 -0.5332,19.0777 -0.9328,42.18 l -0.7267,42.004 9.1354,-1.0334 c 10.5132,-1.1893 18.5717,1.4023 10.5893,3.4057 -5.2315,1.3129 -48.1514,-0.069 -53.4204,-1.7171 -1.9776,-0.6193 -3.5959,-1.8648 -3.5959,-2.7677 0,-1.0797 4.8442,-1.2753 14.1581,-0.5723 l 14.1585,1.0687 1.1059,-22.8157 c 0.6084,-12.5489 1.8017,-31.0145 2.6512,-41.0356 0.85,-10.0207 1.3529,-18.3974 1.1182,-18.6148 -0.2357,-0.2174 -5.8214,0.989 -12.4142,2.6812 -6.5929,1.6921 -22.0562,4.5188 -34.363,6.2807 -12.3068,1.7624 -29.2085,4.5809 -37.5598,6.2636 -18.9702,3.8214 -41.0169,7.4492 -53.5425,8.8092 -8.6875,0.9438 -106.1139,17.1685 -148.1069,24.6652 -17.9132,3.1977 -43.8885,10.4833 -47.2827,13.2624 -1.0992,0.8993 -1.998,3.0186 -1.998,4.7099 0,2.5431 1.1739,3.0835 6.7927,3.1284 3.7359,0.046 13.3488,0.4032 21.3621,0.8332 13.7152,0.734 14.62,0.5858 15.4338,-2.5249 1.1221,-4.2915 3.1749,-4.1704 8.6139,0.5083 3.7915,3.2611 4.1269,4.1808 2.3188,6.3594 -1.4479,1.7445 -2.9422,2.1037 -4.743,1.1406 -4.412,-2.3597 -56.1722,-2.7439 -56.1722,-0.4169 0,0.7186 4.1358,2.5837 9.1902,4.1455 5.0547,1.5612 11.5688,4.2098 14.476,5.8857 2.9073,1.6758 6.9913,3.0472 9.076,3.0472 4.5813,0 8.8134,3.8922 8.8134,8.1056 0,1.8503 1.1181,3.1029 2.7967,3.1347 1.5386,0.046 6.5966,1.3641 11.2399,2.9684 7.702,2.6604 9.1739,2.7121 16.7821,0.5898 l 8.339,-2.3263 0.2491,-10.2319 c 0.1361,-5.6274 -0.3534,-10.2319 -1.0873,-10.2319 -0.7354,0 -1.5672,-1.6182 -1.848,-3.5959 -0.4349,-3.0522 -1.3573,-3.5287 -6.1049,-3.1499 -5.2808,0.4212 -5.4204,0.308 -2.4914,-1.9981 1.7062,-1.3442 4.0571,-2.4438 5.2237,-2.4438 1.1672,0 5.68,-1.8607 10.0289,-4.135 8.6919,-4.5447 14.7954,-4.3159 20.243,0.7597 2.0804,1.9383 4.0803,2.4638 6.2096,1.6311 1.7275,-0.6751 5.2984,-1.2555 7.9357,-1.2895 4.5559,-0.059 4.6402,0.054 1.6922,2.2854 -1.7062,1.2907 -5.3022,2.364 -7.9916,2.3856 -4.0067,0.046 -5.4099,1.0861 -7.7798,5.8427 -2.4655,4.9491 -2.5647,6.1295 -0.6732,8.0204 1.2196,1.2196 11.8706,4.3589 23.6685,6.9758 16.0822,3.5668 22.1608,5.6056 24.2867,8.1468 3.1817,3.8037 1.8877,3.6245 43.5145,6.0419 16.7025,0.97 32.1658,2.1141 34.3631,2.5417 2.1977,0.4304 16.942,1.4461 32.7649,2.263 15.823,0.817 33.852,2.3329 40.0647,3.369 11.1393,1.8575 11.4267,1.8158 20.7775,-2.9943 25.4496,-13.0924 24.6392,-12.9222 53.6732,-11.2693 37.847,2.1543 34.9352,1.182 51.5783,17.2202 7.9819,7.6915 16.3104,15.099 18.5077,16.4609 6.7611,4.1898 63.6341,10.8474 92.7484,10.8579 13.2808,0 50.1746,3.5982 56.1775,5.4721 1.1617,0.3624 4.0899,1.0926 6.5073,1.6223 2.4172,0.5296 4.3952,1.7426 4.3952,2.6953 0,3.6693 -92.2083,-2.6238 -133.4565,-9.1087 -7.9116,-1.2436 -19.0924,-2.8557 -24.7734,-2.2435 -13.2339,1.4262 -17.9534,-7.9353 -26.4242,-16.8216 -9.3819,-12.3646 -15.1181,-16.7209 -29.5681,-18.3058 -28.0633,-3.0771 -33.1385,-3.2583 -34.8053,-1.2405 -0.9608,1.163 -1.8361,18.2618 -2.1591,42.1738 l -0.5428,40.2169 6.1615,0.9845 c 3.3884,0.5414 8.1786,2.0274 10.6446,3.3028 3.5189,1.8195 5.5708,1.9394 9.5341,0.558 5.7684,-2.0109 2.9584,-2.3594 59.967,7.4352 47.5043,8.1613 49.4704,8.2297 107.8839,3.7572 21.8514,-1.6736 23.6773,-1.5884 31.9658,1.4919 17.1411,6.37 39.2012,16.5909 42.2657,19.5833 5.062,4.9428 2.1357,4.8803 -5.2998,-0.1135 -11.0867,-7.4465 -36.8547,-16.0717 -47.291,-15.8307 -11.4057,0.2627 -11.2562,1.5721 1.6374,14.298 l 12.1183,11.9616 -0.5169,-5.5467 c -0.7934,-8.5181 3.384,-7.7056 9.5074,1.848 6.447,10.0596 5.153,12.2928 -2.209,3.812 l -5.4517,-6.2803 1.0163,5.0814 c 0.9038,4.5192 0.6134,5.0812 -2.6238,5.0812 -3.4916,0 -12.0328,-7.7356 -25.2741,-22.8913 -3.3401,-3.8224 -6.2301,-5.7669 -7.7219,-5.1948 -1.3112,0.5035 -12.437,0.9153 -24.7238,0.9153 -14.3468,0 -21.989,0.5664 -21.3607,1.5835 0.5381,0.8706 10.4691,6.4093 22.0693,12.3077 17.7634,9.0324 22.8558,12.503 32.2797,21.9981 11.959,12.0486 19.004,21.5814 20.7247,28.0419 0.8962,3.3657 0,2.8621 -5.6641,-3.1967 -20.9551,-22.3995 -29.1373,-30.0721 -36.8485,-34.5515 -4.7176,-2.741 -14.3314,-8.4159 -21.3638,-12.6112 -19.1674,-11.4348 -19.269,-11.47 -40.7565,-14.266 -10.9879,-1.4298 -22.1358,-3.024 -24.7731,-3.5428 -4.4843,-0.8826 -4.2107,-0.4168 4.2225,7.2144 10.4036,9.4123 20.1904,23.3715 23.7792,33.9163 1.3713,4.0295 4.8168,10.1426 7.6561,13.5854 6.7361,8.1663 10.8057,19.3355 13.1028,35.956 1.023,7.4015 2.4918,18.095 3.2644,23.7627 1.0397,7.6304 2.6785,11.9865 6.3141,16.7821 9.3262,12.3017 17.5791,36.2997 17.5791,51.1166 0,11.363 -2.4442,7.7893 -8.1596,-11.929 -6.0283,-20.799 -10.2458,-30.6277 -15.0981,-35.1862 -5.1384,-4.8273 -6.5684,-9.9433 -9.4684,-33.8773 -2.5846,-21.3317 -5.3315,-31.8196 -10.7818,-41.1641 -1.7946,-3.0769 -5.7837,-10.2691 -8.8645,-15.983 -12.4346,-23.0593 -24.8968,-37.6631 -37.9304,-44.4481 -8.6587,-4.5079 -35.6685,-8.7285 -59.9357,-9.3664 -10.988,-0.29 -23.5747,-1.1834 -27.9699,-1.9875 -4.395,-0.8048 -9.8312,-1.1074 -12.0803,-0.6725 -2.2484,0.4351 -9.4407,0.068 -15.9824,-0.8123 -7.094,-0.9558 -15.2471,-1.0514 -20.2021,-0.2356 -11.8058,1.9405 -28.3089,10.6374 -37.8842,19.9645 -4.5125,4.3954 -11.249,10.7179 -14.9704,14.0501 -3.7213,3.3323 -8.1795,8.8292 -9.9069,12.2148 -4.0621,7.9625 -14.1771,16.5561 -23.6903,20.1275 -7.6246,2.8621 -29.9883,17.6181 -33.967,22.4123 -1.9681,2.3713 -1.4988,2.5094 5.1323,1.5154 8.8771,-1.3316 15.4106,1.5686 20.6606,9.1704 1.9822,2.8702 3.817,5.4982 4.0775,5.8404 0.2583,0.3397 3.6639,-2.9273 7.5638,-7.2648 5.14,-5.7167 11.1973,-9.9198 22.0203,-15.2788 8.2117,-4.0667 16.0527,-7.7351 17.4246,-8.1529 1.3718,-0.4167 3.4021,-3.7893 4.5115,-7.4926 1.3271,-4.4291 5.1232,-9.8744 11.0913,-15.9105 4.9909,-5.0471 11.9751,-12.6434 15.5217,-16.8804 6.2141,-7.4247 6.8036,-7.7296 16.2905,-8.4159 9.0063,-0.6511 9.9722,-1.0829 11.3644,-5.0761 1.2556,-3.6008 3.0188,-4.7063 10.081,-6.3193 14.7901,-3.3778 18.9483,-3.7961 18.9483,-1.9069 0,0.9756 -2.0696,1.7734 -4.599,1.7734 -2.5294,0 -5.4946,1.0786 -6.5888,2.3975 -1.0942,1.3185 -4.4051,2.3976 -7.3577,2.3976 -4.5568,0 -5.5132,0.6638 -6.3309,4.3951 -1.8259,8.3336 -1.9006,8.391 -10.9305,8.391 -12.3912,0 -16.2542,1.8812 -18.6274,9.0715 -1.1024,3.3405 -5.7834,10.0376 -10.4017,14.8835 -4.6189,4.8453 -9.6193,11.8664 -11.1121,15.6024 -2.7538,6.8905 -3.4785,7.3838 -10.0533,6.8428 -9.0935,-0.7479 -37.9598,22.3819 -45.3728,36.3566 -3.5981,6.7831 -6.3014,5.4478 -10.7627,-5.3154 -8.078,-19.49 -23.915,-20.5861 -28.9911,-2.0071 -10.1248,37.061 -13.6411,59.778 -15.163,97.968 -0.5952,14.9381 -1.7302,28.8634 -2.5217,30.9456 -0.7919,2.0823 -3.9706,6.7429 -7.064,10.3569 -6.5943,7.7037 -9.7412,17.7429 -11.1049,35.4262 -1.3764,17.8505 -2.2574,21.5768 -5.1018,21.5768 -2.0478,0 -2.2756,-1.5231 -1.376,-9.1902 z m -58.2142,-170.7211 c 2.0457,-6.1973 12.6226,-15.0791 17.9573,-15.0791 2.3817,0 2.8348,-0.6674 1.8993,-2.7971 -0.676,-1.5381 -1.5394,-5.409 -1.9195,-8.6023 -0.8387,-7.0531 -3.7066,-8.623 -18.6769,-10.2263 l -10.828,-1.1595 1.3714,3.8009 c 0.7543,2.0903 1.3678,10.9929 1.3633,19.7836 0,12.3094 0.545,16.43 2.3975,17.9295 3.6494,2.9541 4.396,2.5309 6.4356,-3.6497 z m 152.2447,-71.5987 c 2.441,-1.8046 6.1978,-6.2834 8.348,-9.9527 2.1501,-3.6693 8.2415,-10.1726 13.5364,-14.4517 8.054,-6.5094 9.6279,-8.5972 9.6329,-12.7793 0,-6.0039 -2.9807,-8.7962 -10.7674,-10.0615 -4.8577,-0.7896 -6.0257,-1.7724 -7.1185,-5.9894 -1.1217,-4.3303 -2.2235,-5.1993 -7.7821,-6.1385 -10.611,-1.7926 -15.0115,1.1223 -22.0915,14.6333 l -6.196,11.8252 3.0066,5.897 c 1.6536,3.2435 3.0128,8.802 3.0204,12.3522 0,3.5501 0.4635,10.1991 1.0135,14.7759 l 0.9994,8.3212 4.9801,-2.5756 c 2.7391,-1.4162 6.9775,-4.0516 9.4182,-5.8561 z m -46.4197,-33.9298 c 5.4439,-4.9184 7.1111,-5.5984 11.6395,-4.749 5.7315,1.0752 7.5058,-0.652 14.1724,-13.7988 4.1818,-8.247 9.1961,-12.502 16.7274,-14.1942 8.787,-1.9744 17.8816,1.0669 20.6851,6.9163 1.1589,2.4177 3.3839,4.3957 4.945,4.3957 1.5613,0 6.1231,1.6626 10.1373,3.6947 6.3037,3.1917 7.7024,3.4 10.2602,1.5295 2.713,-1.9843 2.9223,-4.4048 2.4919,-28.868 -0.2582,-14.6862 -0.8626,-29.6502 -1.3439,-33.2529 l -0.8743,-6.5507 -21.8315,-1.061 c -12.0067,-0.5842 -37.2942,-2.12 -56.1938,-3.4134 -18.8997,-1.2935 -44.7918,-2.4252 -57.5382,-2.5145 -17.5143,-0.1226 -22.004,-0.546 -18.3804,-1.7302 5.766,-1.8842 53.1321,-0.6375 100.6918,2.6504 18.4602,1.2763 38.059,2.3359 43.5531,2.3544 8.9352,0.046 9.9894,-0.3035 9.9894,-3.1631 0,-2.2354 -1.0814,-3.2108 -3.5963,-3.244 -1.9776,-0.046 -13.6651,-1.1053 -25.9719,-2.3988 -12.3068,-1.293 -48.25,-3.0876 -79.8734,-3.9874 -31.6238,-0.8997 -58.1335,-2.272 -58.9109,-3.049 -2.0455,-2.0461 17.6633,-3.8329 32.6812,-2.9636 13.1759,0.763 18.8921,-1.0908 8.2529,-2.6766 -29.0218,-4.3244 -43.5976,-10.4343 -43.5976,-18.2739 0,-3.7645 -1.8091,-5.2092 -4.4657,-3.5671 -1.3061,0.8075 -1.7103,4.8863 -1.2705,12.8302 0.6057,10.9341 -1.4007,21.6004 -5.4955,29.2181 -1.3728,2.5539 -5.5344,58.5965 -4.4332,59.6978 0.2899,0.2899 6.2685,0.6682 13.289,0.8445 8.86,0.222 14.6723,-0.4831 19.0013,-2.3061 8.8704,-3.735 17.5445,-4.8278 21.5037,-2.7087 4.6956,2.513 8.2208,9.9653 8.2208,17.3782 v 6.2264 l 6.7927,-0.1498 c 7.9189,-0.1722 13.9813,3.6214 18.2591,11.4297 1.5653,2.8565 3.1347,5.1942 3.4877,5.1942 0.3533,0 3.5007,-2.5833 6.9956,-5.7405 z m -72.2956,-19.6043 c 0,-2.4361 -1.6496,-3.1438 -9.1898,-3.9424 -5.0547,-0.5355 -11.528,-1.447 -14.3846,-2.0257 -4.5105,-0.9138 -5.1947,-0.622 -5.1947,2.2177 0,3.0066 0.8938,3.2476 11.1068,2.9966 7.0888,-0.1768 11.8296,0.4485 13.1058,1.7247 2.8417,2.8398 4.5565,2.4746 4.5565,-0.9709 z m 179.8067,-6.6209 c 5.11,-1.7578 12.0554,-3.1964 15.4338,-3.1964 h 6.1429 v -24.7736 c 0,-24.6248 0,-24.773 -3.5959,-24.7743 -4.004,0 -24.8877,-4.1713 -29.2229,-5.835 -2.4149,-0.9265 -2.6455,-0.3489 -1.752,4.3825 0.5658,2.9968 1.4841,17.1367 2.041,31.4213 0.5569,14.2848 1.1585,25.9722 1.3369,25.9722 0.1768,0 4.5062,-1.4384 9.6162,-3.1967 z m 63.132,-1.1087 c 0.9577,-0.8974 2.0651,-67.6172 1.1226,-67.6172 -0.3623,0 -7.4132,3.1234 -15.673,6.9404 -19.3182,8.9283 -21.5934,9.7538 -19.3142,7.0078 0.9618,-1.1594 9.2998,-5.6714 18.529,-10.0262 23.024,-10.8643 21.6975,-13.708 -1.8456,-3.956 l -18.7802,7.7789 -0.1,27.4812 c -0.1045,29.3062 0.5228,31.8751 7.8042,31.9258 1.9151,0 4.561,0.7507 5.8794,1.6379 2.2453,1.51 20.5366,0.5519 22.376,-1.1726 z m -39.9569,-56.9949 c 0,-1.4947 -5.7442,-3.2453 -18.5788,-5.6613 -10.2188,-1.9242 -18.9862,-3.0909 -19.4838,-2.5933 -2.446,2.446 5.068,5.5965 17.2823,7.2466 7.4705,1.009 13.8835,2.1357 14.2514,2.503 1.6011,1.6012 6.5289,0.4727 6.5289,-1.495 z m -228.5541,-17.8146 c 0,-2.6861 -1.9381,-2.9294 -9.7897,-1.2291 l -5.394,1.1685 6.393,1.002 c 3.5162,0.5514 6.9327,1.1046 7.592,1.2292 0.6591,0.127 1.1987,-0.8523 1.1987,-2.1706 z m 433.3817,-13.9849 c 0.1363,-8.1315 0.7339,-43.0734 0.8179,-58.1629 0.4629,-12.4315 -0.2582,-10.8643 -11.4542,-14.5395 -13.8037,-4.5315 -10.9019,-5.6189 -12.4464,8.2556 -1.9593,17.599 -3.1097,55.1686 -1.9694,64.323 0.9999,8.0277 1.2002,8.2969 6.9236,9.2882 3.2417,0.5613 7.692,2.0301 9.8898,3.2637 7.4554,4.1844 7.9738,3.4026 8.2387,-12.4281 z m -497.8109,-4.985 c -0.4212,-1.101 -3.8994,-2.9336 -7.7269,-4.0731 -3.8273,-1.1394 -9.6994,-3.3893 -13.0492,-4.9994 -5.507,-2.1321 -6.4027,-5.5961 -5.594,1.312 0.4304,3.6974 1.9274,4.7251 11.6843,8.0346 6.1535,2.0867 11.9072,4.4921 12.7862,5.3451 1.8022,1.7487 3.1722,-2.3037 1.8996,-5.6192 z m -45.8524,-17.1301 c 7.2276,-2.2915 12.5877,-3.0129 17.6156,-2.37 8.0066,1.0232 14.3503,-1.982 14.3503,-6.798 0,-2.2105 -3.5882,-3.4469 -18.7802,-6.4727 -10.3287,-2.0571 -20.3979,-4.1072 -22.3759,-4.5557 -3.4858,-0.7904 -3.596,-0.4439 -3.596,11.3583 0,6.6952 0.5396,12.164 1.1989,12.1527 0.6592,0 5.8734,-1.5029 11.5873,-3.3146 z m 122.8389,1.9124 c 1.3601,-0.8622 1.5632,-1.7483 0.5438,-2.3786 -2.1914,-1.3541 -6.9155,0.5746 -5.8055,2.3704 1.0974,1.7756 2.4687,1.7773 5.2617,0 z m 471.5328,-17.4504 c 0.1045,-4.6665 0.9859,-13.6193 1.9595,-19.8956 1.7044,-10.9839 1.5463,-12.2062 -4.2162,-32.6296 -3.2923,-11.6701 -6.5968,-20.8409 -7.3427,-20.3796 -0.7461,0.4606 -6.8628,9.2527 -13.5921,19.5366 -6.7297,10.2844 -13.5105,20.5642 -15.0683,22.8441 -2.4164,3.5369 -2.7023,6.5035 -1.9466,20.2139 l 0.8852,16.069 9.2233,1.8145 c 5.0729,0.9981 13.4232,3.5302 18.5568,5.627 l 9.333,3.812 1.0093,-4.2642 c 0.5555,-2.345 1.0946,-8.0817 1.1988,-12.7481 z m -17.048,6.7583 c -1.6342,-2.9205 0.7845,-19.5834 3.2974,-22.7154 3.0122,-3.7549 5.1054,0.9515 4.8757,10.9613 -0.2765,12.0586 -4.5578,18.2141 -8.1731,11.7541 z m -13.7865,-8.0677 c -1.2676,-3.3031 0.5962,-18.3604 2.5841,-20.8782 0.8264,-1.0465 2.5286,-1.509 3.7832,-1.0279 2.3663,0.9084 3.3112,16.7641 1.3102,21.9795 -1.2682,3.3046 -6.4,3.2557 -7.6775,-0.073 z m 15.041,-41.3513 c 0,-2.6992 0.7326,-4.0181 1.9975,-3.5963 1.0991,0.367 1.9979,1.9847 1.9979,3.5963 0,1.6115 -0.8988,3.2299 -1.9979,3.5959 -1.2649,0.4215 -1.9975,-0.8966 -1.9975,-3.5959 z m -524.3886,32.1026 c 9.3139,-3.0009 23.6506,-6.6838 31.8593,-8.1835 12.2244,-2.233 15.7778,-3.5592 19.6341,-7.3291 5.2817,-5.1634 8.0722,-5.723 10.9918,-2.2055 2.0879,2.5159 6.0019,3.0605 10.2579,1.4271 1.8825,-0.722 2.5281,-3.2211 2.5281,-9.7851 0,-8.0195 -0.24,-8.6176 -2.644,-6.6218 -2.1443,1.7792 -14.3682,2.1789 -64.7304,2.1144 l -57.9341,-0.154 c -3.5802,0 -2.3601,4.6194 -2.6613,7.5048 -0.5287,5.062 -0.7308,8.1908 0.1994,8.765 2.8941,1.7885 9.2373,-0.7091 10.2993,-4.0554 1.5036,-4.7371 9.357,-4.329 11.6041,0.603 2.331,5.116 0.6795,16.9816 -2.3636,16.9816 -1.6845,0 -2.225,-1.6498 -1.9635,-5.9936 0.4997,-8.2986 0.1856,-9.9889 -1.8553,-9.9889 -0.9731,0 -1.3886,0.9912 -0.9238,2.2022 1.3823,3.6027 -2.2902,5.7892 -9.7249,5.7892 -6.2843,0 -6.9326,0.3534 -6.4727,3.5161 0.4439,3.0722 2.5285,3.9537 16.4934,6.9825 8.7907,1.906 16.9933,3.5606 18.2283,3.6757 1.2351,0.118 9.8658,-2.2454 19.1793,-5.2469 z m -1.4462,-8.7942 c 0,-7.0369 -2.0491,-8.4599 -4.7951,-3.3299 -1.3899,2.5977 -3.3463,3.1966 -10.4448,3.1966 -10.0959,0 -11.6339,-2.4256 -2.5154,-3.9664 3.4651,-0.5853 7.8348,-2.7705 9.8681,-4.9351 7.6151,-8.1056 15.2901,-2.8059 12.8953,8.9038 -1.6345,7.9925 -5.0081,8.0807 -5.0081,0.1317 z m 8.3811,0.4032 c -3.3018,-1.331 -0.5328,-3.7331 4.3036,-3.7331 2.4778,0 5.4399,-1.1263 6.5821,-2.5027 2.8047,-3.3798 10.2131,-7.0873 14.1616,-7.0873 3.0545,0 6.5284,4.1967 6.5284,7.8864 0,2.5915 -4.3261,2.033 -5.3726,-0.6941 -1.3611,-3.5469 -3.667,-2.9503 -9.2632,2.3977 -4.8115,4.5981 -11.2662,6.0206 -16.9399,3.7331 z m 103.6035,-14.9771 c 1.7045,-0.9124 3.0918,-3.3326 3.0918,-5.3944 0,-8.8461 1.9169,-13.4622 6.017,-14.4917 5.4144,-1.3586 8.3865,1.8336 9.5109,10.2175 0.8116,6.0486 1.2927,6.6507 4.9682,6.2131 3.7161,-0.4439 4.1266,-1.2494 4.7178,-9.2748 0.7041,-9.5563 2.4093,-12.7863 6.7513,-12.7863 4.1442,0 6.0806,3.1804 6.8277,11.2118 0.6597,7.0921 3.016,9.3791 6.9721,6.7669 1.5159,-1.0013 5.9074,-57.5894 4.5926,-59.1792 -0.2038,-0.2446 -2.2656,0.2764 -4.5849,1.1595 -3.8814,1.4755 -4.2194,2.339 -4.242,10.8329 0,5.0765 -0.5926,10.1244 -1.2871,11.2177 -0.6942,1.0932 -4.6293,2.6169 -8.7449,3.3857 -9.541,1.7828 -11.3528,-0.073 -9.8513,-10.0832 1.1409,-7.6065 -0.7316,-12.0726 -5.061,-12.0726 -1.6836,0 -2.202,2.9589 -2.202,12.5691 0.2364,9.9987 2.2198,12.265 -7.4913,13.5957 -9.2771,1.2718 -10.5126,-0.2265 -9.2477,-11.2271 0.9369,-8.1423 -0.1812,-10.9635 -3.5031,-8.8386 -2.1461,1.3732 -3.8849,57.832 -1.7808,57.832 0.8005,0 2.8464,-0.7443 4.5467,-1.654 z m 406.4867,-30.0626 c 2.4188,-3.8192 4.0951,-7.2461 3.7259,-7.6158 -0.3714,-0.3715 -7.1978,1.6432 -15.1738,4.4729 l -14.5019,5.1445 -0.536,9.6633 c -0.4959,8.9497 -0.1812,10.0171 4.2701,14.458 4.7635,4.1735 6.8688,-0.1813 11.3119,-7.1923 4.0155,-6.3359 8.4853,-15.1118 10.9038,-18.9306 z m -324.8418,19.0126 c 3.1301,-0.095 4.1287,-8.6702 5.3692,-46.1066 0.6089,-18.3706 1.4289,-25.3925 3.2983,-28.2459 1.3686,-2.0884 2.8959,-7.7458 3.3937,-12.5713 0.7552,-7.317 0.3398,-9.57 -2.5104,-13.5709 -1.8787,-2.6386 -6.2399,-10.3198 -9.6917,-17.0689 l -6.2757,-12.2715 -3.5153,6.939 c -1.9337,3.816 -7.3758,12.2434 -12.0944,18.7266 -8.5137,11.6988 -8.5787,11.8756 -8.5787,23.4634 0,10.8915 0.3036,11.3847 3.5964,12.1863 1.8912,0.4607 4.5823,-1.7428 4.3409,5.8204 l -0.9474,29.9152 -0.2038,35.2248 10.5914,-1.1793 c 5.8254,-0.6482 11.7772,-1.2161 13.2266,-1.2613 z m -6.3853,-44.5573 c 0.3035,-8.7995 1.0931,-16.5377 1.7524,-17.1953 2.6231,-2.6154 3.5964,1.8812 3.5964,16.6177 0,13.7225 -0.3263,15.4873 -2.9513,16.0007 -2.7406,0.5359 -2.9118,-0.5673 -2.3975,-15.4231 z m -9.8351,-6.6698 c 0,-7.1931 0.5641,-9.5894 2.2573,-9.5894 1.3831,0 2.6702,2.4478 3.3253,6.3255 1.2659,7.4922 -0.1089,12.8537 -3.2928,12.8537 -1.7329,0 -2.2898,-2.3314 -2.2898,-9.5898 z m 0.5514,-34.4327 c -0.8929,-2.3273 0.2311,-13.2329 1.4946,-14.496 0.3218,-0.3216 2.8697,-1.0416 5.6623,-1.6001 5.0589,-1.0117 5.0779,-0.9904 5.0779,5.6825 0,3.6838 -0.7443,8.089 -1.6545,9.7892 -1.9903,3.7188 -9.2289,4.146 -10.5803,0.6244 z m 7.0337,-8.3245 c 0.2854,-4.3839 -0.046,-5.3474 -1.1743,-3.5927 -1.8479,2.8275 -2.1425,9.5913 -0.4167,9.5863 0.6591,-10e-4 1.3754,-2.699 1.5914,-5.9936 z m 204.9772,84.9631 v -8.1401 l -18.5654,-1.9836 c -11.1977,-1.1964 -19.1443,-1.4044 -20.0246,-0.5246 -0.8028,0.8027 -0.1676,5.3624 -0.435,10.1902 -0.491,8.9759 2.2472,7.2978 19.0416,7.3498 17.5051,0.054 19.9466,3.1149 19.9721,-6.8917 z m 93.9044,-1.5391 c -0.7515,-9.3625 -1.9439,-13.6882 -3.2428,-11.7645 -1.2551,1.8593 0.9472,22.2428 2.4033,22.2428 1.0901,0 1.3851,-3.6825 0.8395,-10.4783 z m -273.1485,7.8903 c 4.2648,-0.8529 4.7251,-1.4084 3.3274,-4.0199 -1.8549,-3.4659 -0.6181,-42.7648 1.8416,-58.5077 1.047,-6.7002 3.2204,-12.4373 6.6219,-17.4766 2.7845,-4.1264 4.3026,-7.7558 3.3734,-8.0652 -0.9287,-0.3081 -4.3063,-1.8975 -7.5049,-3.528 l -5.8154,-2.9652 v 8.2187 c 0,10.3619 -2.5081,19.5105 -6.047,22.1568 -2.4192,1.8089 -2.7346,5.6831 -2.7346,33.6108 0,17.3616 0.4485,31.5664 0.999,31.5664 0.5492,0 3.2258,-0.4441 5.9477,-0.9901 z m 263.9624,-3.1921 c 0,-1.8998 -0.9523,-2.3288 -3.5964,-1.6202 -1.9776,0.5302 -4.3153,0.9846 -5.1943,1.0098 -0.8788,0.046 -0.5196,0.7436 0.7993,1.5957 3.7172,2.4022 7.9914,1.8753 7.9914,-0.9853 z m -232.5502,-2.6917 17.5813,-3.6025 0.231,-23.2216 0.2311,-23.2209 -7.8514,1.6876 c -9.38,2.5613 -6.9964,-1.0528 -6.918,-10.0161 l 0.073,-8.5075 -4.8696,0.873 c -2.678,0.4803 -7.9421,1.3464 -11.6975,1.9251 -3.7552,0.5785 -7.1582,1.5866 -7.5619,2.2398 -0.4031,0.6534 -0.046,9.01 0.827,18.57 0.872,9.7115 1.0124,23.906 0.3169,32.1661 -0.8326,9.9077 -0.6986,14.7719 0.4078,14.7469 0.9075,0 9.5618,-1.6586 19.2313,-3.6399 z m -8.4784,-18.2993 c 0.4122,-6.4398 1.0243,-7.6685 4.0268,-8.0952 2.6462,-0.3761 3.7911,0.4992 4.5368,3.4699 1.4485,5.7706 0.1949,9.8526 -2.9434,9.5976 -1.5046,-0.1226 -2.7355,0.4167 -2.7355,1.1988 0,0.7815 -0.7589,1.4208 -1.6859,1.4208 -1.014,0 -1.492,-3.0256 -1.1988,-7.5919 z m 224.1391,-17.9809 c 0.3081,-19.7786 1.0642,-38.1742 1.6781,-40.8784 1.0801,-4.7607 0.8431,-5.0234 -7.4198,-8.2355 -4.6944,-1.8256 -9.7592,-3.8118 -11.2546,-4.4143 -2.3442,-0.9446 -2.5928,-0.3126 -1.8005,4.5683 1.1132,6.8587 -2.5345,20.1907 -5.5242,20.1907 -5.6817,0 -8.3361,-3.2958 -8.3361,-10.3504 0,-3.8728 -0.6193,-7.4243 -1.3755,-7.8918 -4.0562,-2.5067 -10.7407,-37.5226 -12.3213,-64.5434 -0.6185,-10.5724 -1.6556,-20.082 -2.3048,-21.1327 -0.6492,-1.0506 -2.5548,-1.4738 -4.2338,-0.9411 -2.798,0.888 -2.9988,2.3139 -2.4057,17.0817 0.492,24.6064 -3.5166,19.0754 -22.1109,22.251 -19.2953,3.3227 -59.691,12.3693 -103.3019,23.1344 -17.1006,4.2211 -22.2388,6.1841 -27.727,10.5946 -6.5688,5.0466 -5.187,7.3572 -10.2359,1.0248 -1.9328,-2.4238 -5.0928,-4.3892 -7.0572,-4.3892 -3.5108,0 -3.5235,0.077 -0.9407,5.994 4.0926,9.3714 4.397,12.8646 1.5065,17.276 -3.9189,5.9807 -2.6092,6.9516 5.9687,4.4249 7.4499,-2.1946 7.6262,-2.3908 6.6806,-7.4301 -0.8409,-4.4834 -0.059,-6.2123 5.8449,-12.919 6.7609,-7.2338 4.7259,-10.0813 11.2996,-2.7241 3.3309,3.7277 4.4843,6.6645 4.4843,11.417 0,6.1693 0.1586,6.3608 4.3953,5.348 6.8326,-1.6334 7.2157,-2.1916 6.2816,-9.1551 -0.8124,-6.0558 -0.3941,-6.9919 5.7075,-12.7969 6.476,-5.8263 4.8835,-8.3888 10.2759,-1.6502 2.374,2.9672 3.6941,6.7516 3.6991,10.6067 0,5.3455 0.444,5.9933 4.054,5.9933 4.202,0 7.6385,-4.8956 4.2329,-6.0306 -3.3997,-1.1335 -1.9789,-7.5126 3.0255,-13.5835 2.7011,-3.2769 5.9192,-5.9581 7.1511,-5.9581 3.1876,0 7.5543,9.2282 6.4491,13.6306 -1.2984,5.173 0.4351,8.7454 4.2435,8.7454 2.8877,0 3.1464,-0.7702 2.4201,-7.2113 -0.6877,-6.1041 -0.082,-8.3136 3.939,-14.3845 2.613,-3.9453 5.6939,-7.1734 6.846,-7.1734 3.2965,0 11.0877,14.3262 8.9524,16.4615 -1.4843,1.4842 -2.5891,7.5687 -1.3595,7.4858 0.222,0 6.7794,-1.331 14.5765,-2.925 19.0779,-2.5285 17.6077,-7.2886 29.5869,-22.6215 15.0323,-19.2399 19.3687,-23.4348 19.3687,-18.7376 0,5.5935 -19.5277,36.7585 -26.9361,42.9883 -5.8178,4.8921 -9.1051,5.8925 -23.1027,7.0283 l -13.8925,1.1272 -0.2357,6.5729 c -0.1316,3.615 -0.308,8.0116 -0.3987,9.7694 -0.1179,2.3259 -1.8349,3.6094 -6.301,4.7126 l -6.138,1.5159 0.9681,8.0734 c 0.5328,4.4409 1.0906,14.5472 1.24,22.4585 l 0.272,14.3846 h 20.3336 c 11.1831,0 19.9583,-0.5986 19.5008,-1.3392 -1.5096,-2.443 -0.5895,-65.5161 0.9792,-67.084 0.9676,-0.9683 1.8528,0.4485 2.4224,3.8772 1.4856,8.9415 3.8016,58.2938 2.9456,62.7705 -0.6468,3.3852 -0.1855,4.1658 2.4557,4.1658 1.7887,0 4.3734,0.4304 5.7429,0.956 2.0882,0.8013 2.4325,-0.4169 2.1289,-7.5335 -0.2899,-6.8479 0.1586,-8.5962 2.3224,-9.0429 2.0937,-0.4305 2.9296,1.0774 3.7957,6.8547 0.7168,4.7783 0.4725,8.0458 -0.6869,9.2057 -2.845,2.8451 -2.1157,4.3552 2.1041,4.3552 3.3135,0 4.1037,-1.0235 5.2445,-6.7927 1.8508,-9.3588 5.7734,-9.154 6.8363,0.3579 0.7521,6.7284 1.1756,7.2625 7.1923,9.0674 10.0025,3.0011 11.6538,2.7392 10.803,-1.7122 -0.9732,-5.0913 2.2861,-14.7708 5.3728,-15.9557 6.3668,-2.4428 11.7945,6.371 11.7945,19.154 0,5.1608 0.6854,7.0197 2.7966,7.5841 6.9014,1.8444 7.0976,5.1385 7.4556,-16.0612 z m -105.4492,7.8782 c -0.5819,-0.9415 -0.5918,-4.822 0,-8.623 1.0129,-6.7565 3.2705,-8.7463 10.0085,-8.823 3.3443,-0.046 4.3447,10.6949 1.4133,15.169 -2.705,4.1282 -9.4266,5.4705 -11.4006,2.277 z m 8.8608,-10.4086 c 0,-7.2216 -3.773,-6.6713 -4.4965,0.6557 -0.3715,3.7472 0.1498,5.0714 1.9975,5.0714 1.8014,0 2.499,-1.5988 2.499,-5.7271 z m 79.9626,-3.7713 c -1.93,-3.6066 0.8114,-11.2792 4.0304,-11.2792 2.7877,0 4.3132,7.4524 2.2965,11.2208 -2.1411,4.0001 -4.207,4.0196 -6.3269,0.059 z m -9.6383,-3.8753 c 0,-5.1948 2.2689,-8.8646 4.2532,-6.8797 0.4644,0.4644 0.9561,3.2071 1.0924,6.0954 0.1813,3.8424 -0.5024,5.406 -2.549,5.8262 -2.242,0.4608 -2.7966,-0.5395 -2.7966,-5.0419 z m -40.4565,-0.444 c -1.356,-1.356 -1.4662,-29.7151 -0.1271,-33.2001 0.5336,-1.3904 1.9466,-2.528 3.14,-2.528 3.5419,0 5.4851,5.5808 5.3891,15.4782 -0.1317,13.6674 -4.487,24.1639 -8.4006,20.2499 z m 13.0515,-4.4373 c -2.1732,-4.7698 0.09,-21.9333 3.0211,-22.9019 4.3497,-1.4381 7.1162,17.0181 3.5501,23.6816 -2.2245,4.1563 -4.4422,3.8931 -6.5712,-0.7797 z m 2.1141,-44.4348 c -4.2778,-4.2778 -0.4912,-14.3201 3.9954,-10.5965 1.1639,0.9658 2.1159,3.378 2.1159,5.3601 0,4.758 -3.5489,7.7989 -6.1113,5.2364 z m -118.0338,86.0013 13.0456,-3.5486 1.0606,-6.2849 c 0.5836,-3.4568 1.5541,-18.332 2.1561,-33.0559 0.8957,-21.8907 0.7041,-26.7669 -1.051,-26.7471 -4.1359,0.046 -5.7081,2.4392 -6.8108,10.3647 -1.8381,13.2111 -1.6554,12.9976 -11.3369,13.2522 -10.9997,0.6548 -8.7724,1.0312 -8.7724,-9.4154 0,-9.2654 -0.1408,-9.6025 -3.596,-8.541 -1.978,0.608 -3.6665,1.1962 -3.7522,1.3067 -1.0103,1.3015 -3.8397,25.4894 -3.8397,32.8262 v 9.6337 l 6.5091,-1.5894 c 8.2896,-1.0225 5.5291,1.7824 5.9686,9.4857 0.6216,10.9078 -0.4168,14.0923 -3.706,11.3627 -1.4431,-1.1975 -2.3785,-4.7258 -2.3785,-8.9705 0,-5.931 -0.4871,-6.9966 -3.1969,-6.9966 -2.8954,0 -3.1963,1.0656 -3.1963,11.3151 v 11.3151 l 4.9257,-1.0819 c 2.7088,-0.5948 10.7959,-2.679 17.971,-4.6308 z m 3.3121,-11.1715 c -1.5457,-4.0276 0.1044,-12.5781 2.7425,-14.2298 1.419,-0.8881 3.9361,-1.0684 5.5942,-0.4034 2.8225,1.1368 2.7855,1.3017 -0.582,2.6006 -2.9055,1.1204 -3.596,2.6242 -3.596,7.831 0,6.2716 -2.4243,8.7196 -4.1587,4.1993 z m 32.2324,2.2455 h 5.4901 l 0.3443,-18.7796 c 0.1903,-10.3293 0.1812,-21.657 0,-25.1733 -0.1993,-3.5161 -0.3716,-9.4974 -0.385,-13.2917 -0.046,-6.2105 -0.3807,-6.848 -3.5825,-6.393 -3.1976,0.4544 -3.6371,1.6341 -4.3556,11.6933 -0.7851,10.997 -0.8875,11.2141 -5.9935,12.7173 l -5.1942,1.5291 v 20.4079 20.4074 l 4.0997,-1.5589 c 2.2548,-0.8572 6.5702,-1.5585 9.5898,-1.5585 z m -4.7276,-7.3232 c -2.0951,-5.4589 -0.9836,-11.7365 2.3979,-13.5464 4.4836,-2.3995 8.6136,0.9908 4.2234,3.4672 -1.8181,1.0262 -2.7966,3.5076 -2.7966,7.0931 0,5.7225 -2.1353,7.3893 -3.8247,2.9861 z M 3513.8,2783.211 c 0.6582,-4.3222 0.7797,-9.6555 0.2718,-11.8519 -0.8971,-3.8673 -0.9986,-3.8954 -3.1936,-0.8935 -2.9458,4.0282 -3.1767,22.2387 -0.2718,21.2697 1.0986,-0.367 2.5358,-4.2022 3.194,-8.5243 z m 25.1764,-4.676 c 0.7607,-9.1155 -0.9765,-18.3659 -3.4492,-18.3659 -1.3854,0 -2.6671,10.7057 -2.5444,21.2473 0.073,6.1253 0.6016,7.5647 2.6422,7.1783 1.8866,-0.3579 2.7605,-2.9807 3.3514,-10.0597 z m -32.7647,-11.973 c 3.2262,-4.395 6.4416,-7.9914 7.1444,-7.9914 0.7031,0 2.4564,1.7982 3.8967,3.996 3.6579,5.5831 8.2962,5.0987 11.4861,-1.1988 6.0123,-11.8682 9.4387,-12.6471 15.1304,-3.4378 1.8475,2.9897 4.131,5.4353 5.0746,5.4353 0.9438,0 0.4306,-1.4184 -1.1371,-3.152 -2.8859,-3.189 -2.8543,-12.5917 0.077,-22.2006 1.1272,-3.6978 1.0054,-3.7481 -5.8751,-2.4223 -9.1522,1.7626 -20.3423,1.2192 -23.168,-1.126 -1.3777,-1.143 -2.2385,-4.9582 -2.2385,-9.9196 0,-12.7595 -1.8925,-7.4759 -2.2762,6.355 -0.3942,14.2604 -2.2141,18.6505 -13.9465,33.6644 -7.4277,9.5059 -7.6172,9.9893 -3.9188,9.9893 2.8161,0 5.5024,-2.2008 9.7528,-7.9915 z m 139.7651,-8.0901 c 3.1886,-1.3972 4.9506,-5.0947 5.7018,-10.9169 0.5227,-4.0507 1.2843,-8.9826 1.6926,-10.9608 0.8078,-3.9124 0.3308,-4.0856 -7.1103,-2.5969 l -4.9946,0.9985 v 11.7876 c -0.046,5.2981 -1.3966,14.3642 4.7105,11.6885 z m 31.9278,-9.969 c 0.7688,-2.0211 1.9042,-8.4087 2.524,-14.1949 l 1.1262,-10.5199 -4.1612,0.7957 c -4.0889,0.7819 -4.1619,1.0293 -4.1619,14.1946 0,13.3733 1.8345,17.1904 4.6729,9.7245 z m 28.554,-13.7902 c 0.3578,-11.5262 0,-14.6572 -1.5985,-14.1258 -1.4371,0.4762 -2.1996,5.1616 -2.5216,15.4912 -0.3581,11.5263 0,14.6573 1.5983,14.1263 1.4371,-0.4764 2.1995,-5.1616 2.5218,-15.4917 z m 22.0705,8.2501 c 0.965,-0.6455 2.1859,-5.9158 2.7133,-11.712 0.5275,-5.7954 1.1762,-11.5165 1.4423,-12.7135 0.4303,-1.9373 -1.344,-2.3922 -6.7095,-1.7217 -1.8461,0.231 -2.2426,27.3837 -0.3986,27.346 0.6591,0 1.9885,-0.5526 2.9535,-1.1988 z m -79.2713,-17.0769 c 0,-3.48 -2.0336,-4.0889 -4.1865,-1.2537 -2.9675,3.9076 -2.6999,4.9991 0.9899,4.0344 1.7582,-0.4598 3.1966,-1.7111 3.1966,-2.7807 z m 172.5184,-6.5884 c -2.86,-3.4469 -3.469,-1.8069 -1.2953,3.4898 1.5105,3.6812 2.0321,4.0345 2.5738,1.7429 0.3717,-1.5801 -0.1993,-3.9351 -1.2785,-5.2327 z m -208.3088,1.5829 c -0.5338,-1.3904 -0.97,-3.4409 -0.97,-4.5558 0,-1.5886 -11.9708,-10.5471 -17.8559,-13.363 -0.5908,-0.2809 0.839,3.074 3.1774,7.4592 2.5407,4.7647 6.1891,8.9415 9.0655,10.3785 6.2889,3.142 7.7646,3.1602 6.583,0.082 z m 65.8091,-3.6181 c 0.984,-2.9525 -2.0917,-2.133 -5.2999,1.4118 -2.8991,3.2035 -2.8851,3.2335 0.8685,1.8453 2.099,-0.7765 4.093,-2.2422 4.4314,-3.2571 z m 25.8749,-1.7826 c 1.2931,-0.818 1.8154,-2.0226 1.1609,-2.6777 -0.6553,-0.6548 -2.4067,0.046 -3.8928,1.5114 -2.8887,2.8887 -1.1593,3.6271 2.7319,1.1663 z m -65.8663,-6.8554 c 2.0882,-2.5959 0.557,-12.7081 -1.8062,-11.9321 -2.186,0.7177 -3.4142,13.9301 -1.2948,13.9301 0.8217,0 2.2173,-0.8993 3.101,-1.998 z m 91.4849,0.3987 c 0,-0.8788 -0.6765,-1.5983 -1.5038,-1.5983 -0.8272,0 -1.9485,0.7195 -2.4917,1.5983 -0.5432,0.879 0.1361,1.5984 1.504,1.5984 1.3701,0 2.4915,-0.7194 2.4915,-1.5984 z m 101.7506,-9.9893 c -0.4442,-1.0987 -0.8065,-0.1995 -0.8065,1.9979 0,2.1978 0.3623,3.0966 0.8065,1.9979 0.4439,-1.099 0.4439,-2.8969 0,-3.9958 z m -259.3711,568.6698 c -1.6065,-4.1862 2.609,-50.1888 5.9141,-64.5379 4.2112,-18.2832 3.6431,-57.3066 -1.0108,-69.4346 -1.8308,-4.771 3.5216,-3.174 5.4766,1.6339 5.2971,13.0271 6.8834,46.4513 2.597,54.7396 -5.3249,10.2965 -7.1412,22.0185 -5.7797,37.2919 0.7185,8.0594 0.8744,20.7599 0.3443,28.2232 -0.7929,11.2053 -1.4484,13.6618 -3.7622,14.1026 -1.5408,0.2946 -3.2424,-0.6148 -3.7812,-2.0187 z m 228.8957,-9.4282 c 0.7925,-7.7359 0.4608,-11.0576 -1.3972,-13.9849 -1.3398,-2.1112 -2.9167,-6.3559 -3.504,-9.4327 -0.5875,-3.0766 -2.5267,-10.1258 -4.3098,-15.6644 -2.3205,-8.795 -1.9364,-9.9794 -10.5871,-9.5898 -8.9002,0.4008 -7.1426,8.5009 -6.9145,17.5404 0.2854,11.2432 -0.2401,18.3159 -1.5395,20.7424 -1.901,3.5525 -2.0139,3.5709 -3.2054,0.521 -0.679,-1.7384 -1.2857,-11.4505 -1.3474,-21.583 -0.1317,-21.6371 -2.5502,-42.9966 -5.7294,-50.6051 -1.5539,-3.7196 -4.1201,-6.1852 -8.2202,-7.8981 -11.0781,-4.629 -15.9299,-4.61 -23.0338,0.09 -5.7991,3.8373 -6.3849,4.8028 -5.4629,9.0004 0.9286,4.2275 0.6287,4.7013 -2.9734,4.7013 -5.4096,0 -13.266,9.6887 -16.3224,20.1284 -1.3107,4.4781 -3.4935,9.5124 -4.8508,11.1883 -2.2663,2.798 -2.3985,2.1705 -1.6215,-7.6971 0.4649,-5.9087 2.0356,-13.1009 3.4899,-15.9823 3.3453,-6.6287 10.2118,-14.0304 13.0163,-14.0304 1.1811,0 3.9368,-3.2464 7.9705,-8.0686 6.4589,-7.7214 10.7815,-8.2938 20.1348,-7.5432 5.5273,0.4439 12.3477,1.9948 15.1561,3.4472 6.7854,3.509 11.5964,13.3625 12.8849,26.3906 0.5218,9.0584 -1.0656,15.8684 8.5094,12.9925 8.4876,-2.5492 13.4902,-0.5773 16.9637,7.5229 1.7951,4.1875 3.774,10.3531 4.3974,13.7026 0.7964,4.2814 1.7863,5.8235 3.3345,5.1942 1.211,-0.4919 3.1288,-1.273 4.2619,-1.7356 3.0708,-1.2532 16.8701,8.5094 19.6635,13.9111 3.0463,5.8912 2.4379,16.498 -0.9459,16.498 -1.5518,0 -3.0853,-2.8197 -4.3472,-7.9913 -2.543,-10.4241 -12.9909,-21.0766 -18.028,-18.3811 -3.5555,1.9028 -3.5658,2.0289 -1.6926,19.916 1.443,13.7738 0.9835,16.8451 -2.5194,16.8451 -1.833,0 -2.0705,-1.9564 -1.2314,-10.1462 z m -146.3811,-11.4143 c -1.2994,-1.5657 -2.4457,-12.9089 -3.3468,-33.1096 -1.1548,-25.9032 -1.8325,-31.3643 -4.3153,-34.7789 -5.7555,-7.9159 -5.8078,-8.4746 -0.5338,-5.7476 9.7793,5.0575 12.1774,13.0562 14.4041,48.0475 1.6306,25.6163 -0.1361,32.9033 -6.2082,25.5886 z m 286.279,-17.9967 c -0.9827,-2.4176 -3.1805,-9.9007 -4.8844,-16.629 -3.3317,-13.158 -9.6791,-27.1706 -14.8733,-32.8366 -1.7724,-1.9332 -2.8132,-4.5808 -2.3134,-5.8838 1.0492,-2.7347 -3.9212,-24.5788 -7.5601,-33.2244 -1.3574,-3.2249 -6.1784,-12.2154 -10.7135,-19.9789 -14.4362,-24.7134 -20.3771,-35.6945 -19.2694,-35.618 1.4023,0.096 21.9443,29.6874 28.6585,41.2822 6.9812,12.0548 11.5766,27.3127 11.5766,38.4376 0,7.8289 0.5894,9.6461 4.1287,12.7232 5.8739,5.1073 12.9487,21.2189 15.8718,36.1444 1.3774,7.0324 2.8489,14.4044 3.2693,16.3824 1.0773,5.0634 -1.7433,4.484 -3.8908,-0.7991 z m -104.1101,-32.7651 c 0,-1.9776 -0.3897,-5.3941 -0.844,-7.5918 -0.6909,-3.3576 0.2492,-4.7916 1.4298,-2.1053 2.6236,5.9662 2.7374,13.2935 1.0653,13.2935 -0.8964,0 -1.6389,-1.6182 -1.6511,-3.5964 z m 164.1124,0.9324 c -0.096,-0.8232 -1.0008,-3.2828 -0.9216,-5.9934 0,-7.1795 0.7707,-7.9163 2.2943,-2.6219 1.5445,5.3665 1.53,4.3512 1.0633,7.1538 -0.8757,5.2614 -2.1669,3.7844 -2.436,1.4615 z m -409.4827,-19.6118 c 1.4694,-9.0176 8.1012,-21.7309 14.8639,-28.4936 11.5118,-11.5114 21.512,-9.2334 26.4948,6.0352 2.2471,6.8865 1.9744,15.9652 -0.4799,15.9652 -0.6374,0 -2.0708,-3.0567 -3.1854,-6.7926 -3.4482,-11.5576 -6.1621,-15.5835 -10.5032,-15.5835 -6.1086,0 -16.127,10.2608 -22.4389,22.9832 -4.4567,8.9818 -5.4581,10.2222 -4.7513,5.8861 z m 233.7009,-25.1678 c -7.4714,-23.7714 -16.9217,-47.2822 -20.5642,-51.1591 -1.905,-2.0283 -5.1226,-3.6873 -7.1506,-3.6873 -2.5176,0 -3.9428,-1.14 -4.4956,-3.596 -0.444,-1.9781 -2.283,-11.0292 -4.0838,-20.1134 -5.381,-27.1407 -13.2126,-43.8405 -23.6492,-50.4293 -3.261,-2.0582 -6.9032,-4.9165 -8.0947,-6.3519 -3.4382,-4.143 12.4323,3.2494 17.9387,8.3553 9.487,8.7979 16.7468,25.5836 20.1564,46.6049 3.1329,19.3131 3.0718,19.1372 6.6257,19.1372 4.94,0 11.7138,7.7469 15.4088,17.623 3.5606,9.5169 13.967,51.5006 13.7473,54.0924 -0.7365,8.6872 -3.4027,-2.7258 -5.8388,-10.4758 z m 169.5894,-0.505 c -0.6126,-3.0768 -1.5599,-10.2691 -2.1053,-15.9825 -1.5572,-16.3224 -11.079,-53.6959 -18.2927,-71.8032 -3.6158,-9.076 -6.2453,-16.8305 -5.8434,-17.2329 1.5014,-1.5014 15.4831,29.6013 19.1963,42.7028 5.546,19.5676 9.2452,43.7902 8.6625,56.7218 -0.4167,9.2908 -0.6928,10.2396 -1.6174,5.594 z m -320.1961,-61.4612 c -2.158,-2.1576 -3.9231,-4.6747 -3.9231,-5.5939 0,-0.9189 -1.1213,-1.6709 -2.4917,-1.6709 -1.3704,0 -2.0473,-0.719 -1.5043,-1.5984 1.6959,-2.7438 7.9273,-1.7493 10.018,1.5984 1.9939,3.1927 5.9229,4.0322 10.5536,2.2552 1.3492,-0.5173 4.7389,-4.5038 7.533,-8.8581 2.7939,-4.3543 7.1079,-8.9651 9.5857,-10.2468 5.3687,-2.7763 14.1875,-3.0195 19.626,-0.5419 3.4885,1.5893 4.4423,1.2083 8.5935,-3.4382 3.8274,-4.2836 5.9047,-5.2541 11.5222,-5.3836 5.6754,-0.1316 7.4134,0.584 10.119,4.1631 2.7093,3.5845 2.9163,4.7431 1.215,6.7926 -3.0423,3.6657 -6.3314,3.0029 -8.0934,-1.6318 -2.0522,-5.3973 -6.9426,-4.1052 -13.7063,3.6213 -4.8703,5.5639 -5.0275,5.6156 -9.0593,2.9738 -2.6703,-1.7493 -6.5136,-2.5145 -11.0047,-2.1905 -5.9256,0.4258 -7.3563,1.2699 -10.12,5.9591 -1.7701,3.0037 -5.8307,8.2185 -9.0239,11.5877 -7.0898,7.4815 -13.8146,8.228 -19.8393,2.2029 z m 325.6016,-36.5363 c -6.023,-6.4113 -4.2561,-9.2329 3.5537,-5.6741 4.1917,1.9097 6.3818,5.4715 4.8689,7.9189 -1.5341,2.4824 -4.7992,1.6119 -8.4226,-2.2448 z m -674.1889,-13.503 c 1.6459,-2.663 9.3659,-4.9107 20.556,-5.9843 13.9581,-1.3398 19.6915,-5.266 26.8277,-18.3691 5.7764,-10.6066 13.115,-17.0759 21.2188,-18.7042 3.3931,-0.6818 4.2393,-1.5947 3.596,-3.8799 -0.4621,-1.6436 -1.2486,-4.4268 -1.7475,-6.1851 -1.4665,-5.1694 3.4438,-3.8527 5.6697,1.5204 1.0746,2.5942 3.7019,5.8627 5.8385,7.2626 4.6293,3.0332 3.3842,6.2036 -2.0298,5.1684 -5.8766,-1.1232 -19.4905,7.8999 -23.5706,15.6227 -9.7135,18.3833 -15.9522,22.2478 -36.1458,22.3891 -7.4722,0.054 -15.2937,0.686 -17.3819,1.4082 -2.3885,0.8258 -3.4382,0.7339 -2.8311,-0.2492 z m 123.3019,-12.9819 c -10.708,-1.317 -5.6687,-3.3802 8.2556,-3.3802 7.5973,0 10.2151,0.5374 9.7354,1.998 -0.7603,2.3161 -6.6904,2.7718 -17.991,1.3822 z m -26.3153,-11.2666 c -0.9098,-1.7002 -1.6546,-5.2409 -1.6546,-7.8686 0,-2.7641 -1.684,-6.7787 -3.9955,-9.526 -6.1044,-7.2547 -4.7562,-9.3207 2.1362,-3.2737 6.5598,4.4005 5.7711,9.2785 6.568,15.369 1.1393,8.6016 -0.1181,10.7846 -3.0541,5.2993 z m 294.8267,-4.8997 c 0.5432,-0.8789 2.7434,-1.5985 4.8894,-1.5985 2.1456,0 3.9013,0.7196 3.9013,1.5985 0,0.8789 -2.2,1.5984 -4.8894,1.5984 -2.8523,0 -4.4775,-0.6661 -3.9013,-1.5984 z m -402.3419,-24.021 c 3.3399,-3.0382 6.9367,-4.7481 9.989,-4.7481 2.6236,0 4.7698,0.367 4.7698,0.8191 0,0.8663 -17.2693,8.8038 -18.9786,8.7236 -0.55,-0.046 1.3487,-2.1832 4.2198,-4.7946 z m 568.5634,-21.8894 c -63.1103,-6.1318 -82.971,-8.4513 -84.374,-9.8545 -1.7729,-1.7728 3.1206,-1.5114 28.4342,1.5182 7.0323,0.8413 24.6534,2.6264 39.1576,3.966 14.5047,1.3397 29.9679,3.0468 34.3634,3.7944 l 7.9911,1.3583 -9.5894,-0.082 c -5.2745,-0.046 -12.4668,-0.3578 -15.9829,-0.7018 z m -579.7766,-18.372 c -6.8108,-3.9474 -7.644,-6.0445 -2.3975,-6.0361 4.6474,0 14.4366,5.9613 13.1707,8.0102 -1.4593,2.3608 -4.143,1.8692 -10.7732,-1.9741 z m 474.2901,-10.8371 c -9.7621,-12.187 -15.261,-12.8082 -29.851,-12.9764 -9.0748,-0.1044 -18.6569,-0.7105 -21.2941,-1.3473 -9.4661,-2.2863 0.479,-3.7106 20.2299,-2.8969 15.92,-1.452 20.5366,2.1076 31.1645,12.6013 11.2026,11.0614 16.3321,17.4046 14.0741,17.4046 -0.5346,0 -6.9803,-5.7538 -14.3234,-12.7866 z m 51.4893,-22.2228 c -3.2977,-5.583 -3.3897,-6.5462 -0.6228,-6.5462 2.5715,0 9.0687,6.658 9.0687,9.2935 0,3.6943 -5.7443,1.8259 -8.4459,-2.7473 z m 9.126,-1.0267 c -0.5849,-3.1174 -0.5587,-6.1733 0.059,-6.7899 1.6663,-1.6663 5.6555,4.5192 5.6555,8.7684 0,5.9908 -4.5115,4.4288 -5.7134,-1.9785 z m -67.0396,-12.8088 c 3.58,-2.7061 7.432,-2.4786 8.4228,0.4965 0.4566,1.3719 -1.2546,1.9821 -5.4617,1.9473 -5.7882,-0.05 -5.9517,-0.1812 -2.9611,-2.4438 z m -18.9813,-0.4303 c -1.5503,-2.5087 5.4838,-6.6636 11.282,-6.6636 6.7927,0 8.2732,2.7646 2.6322,4.9143 -7.3933,2.8176 -12.8314,3.5013 -13.9142,1.7493 z m -16.9488,-3.1642 c 0,-2.7134 8.1228,-8.2941 12.0717,-8.2941 4.5749,0 8.7059,1.5368 8.7059,3.238 0,0.7141 -3.0568,2.0221 -6.7927,2.9073 -3.7364,0.8848 -8.4109,2.1057 -10.3891,2.7129 -2.1379,0.6569 -3.5958,0.4258 -3.5958,-0.5641 z m -80.557,-3.0767 c -1.8372,-1.8367 -0.9361,-9.637 1.3305,-11.518 1.8299,-1.5186 2.6446,-1.2269 4.0839,1.4629 0.9895,1.8481 1.3719,4.705 0.85,6.3487 -1.0017,3.1568 -4.6538,5.3175 -6.2644,3.7064 z m 12.1505,-0.7421 c -2.2318,-2.2317 -2.5576,-6.0738 -0.5155,-6.0738 0.7714,0 2.3232,1.1097 3.4485,2.4656 2.5952,3.127 -0.1,6.4417 -2.933,3.6082 z m -24.2942,-1.9911 c 0,-1.9274 -0.9849,-2.2975 -4.0599,-1.526 -2.7519,0.6905 -5.0574,0.1181 -7.1548,-1.7814 -3.363,-3.0436 -2.6593,-6.3292 1.0508,-4.9057 1.2645,0.4852 3.7527,0 5.5294,-1.0895 2.6817,-1.6365 3.5657,-1.5218 5.198,0.675 1.4715,1.9799 2.6862,2.2452 4.8178,1.0524 4.1455,-2.3201 5.2817,-0.1632 2.5126,4.7707 -2.7482,4.8962 -7.8939,6.7244 -7.8939,2.8045 z m -30.9393,-7.6785 c -3.686,-8.7857 2.4724,-11.9915 6.953,-3.6194 1.1191,2.0916 1.6025,4.9306 1.0738,6.3083 -1.607,4.1875 -5.7194,2.8098 -8.0268,-2.6889 z m -21.0485,1.482 c -3.2621,-2.1878 -30.1741,-5.0706 -64.2868,-6.8864 -10.7687,-0.5731 -19.5793,-1.6591 -19.5793,-2.4139 0,-2.2839 39.8195,-1.5322 54.3418,1.0256 16.5366,2.9128 23.496,3.0324 24.3676,0.4168 0.5206,-1.5622 1.6124,-1.5448 5.1824,0.082 3.6409,1.6586 4.7667,1.6664 5.7725,0.046 1.6043,-2.5951 9.1586,-0.118 11.6255,3.812 2.4999,3.9837 -1.0313,7.3961 -4.5936,4.4395 -1.9187,-1.5924 -2.9816,-1.6532 -4.3833,-0.2537 -2.4039,2.4039 -4.5696,2.3364 -8.4468,-0.2627 z m 31.2346,-0.6828 c 0,-1.5385 0.6166,-3.73 1.3402,-4.8707 1.8534,-2.9218 5.4433,1.5304 4.086,5.0677 -1.3346,3.4782 -5.4569,3.3283 -5.4262,-0.1947 z m -131.0832,-6.7926 c 3.1695,-2.0487 10.0565,-2.0487 8.7902,0 -0.5432,0.8788 -3.2829,1.587 -6.0877,1.5733 -3.881,0 -4.5269,-0.3941 -2.7025,-1.5733 z m 110.6807,-13.1858 c 0.367,-1.099 1.6251,-1.9981 2.7972,-1.9981 1.172,0 2.4307,0.8991 2.7967,1.9981 0.3987,1.1884 -0.7368,1.9975 -2.7967,1.9975 -2.0601,0 -3.1932,-0.8091 -2.7972,-1.9975 z m 52.3438,-5.9939 c 0,-0.8789 1.4384,-1.5979 3.1963,-1.5979 1.7583,0 3.1969,0.719 3.1969,1.5979 0,0.8793 -1.4386,1.5984 -3.1969,1.5984 -1.7579,0 -3.1963,-0.7191 -3.1963,-1.5984 z m -55.9397,-1.4118 c 0,-1.8847 6.0953,-3.3965 9.0783,-2.2521 1.9378,0.7435 1.983,1.1625 0.2447,2.2634 -2.8193,1.7875 -9.3239,1.7797 -9.3239,0 z m 52.743,-6.5073 c 0,-1.8421 10.8892,-4.1005 12.4152,-2.5746 0.5925,0.593 0,1.7469 -1.2732,2.5646 -3.0893,1.9542 -11.142,1.9614 -11.142,0 z m -50.7455,-1.3518 c -1.9776,-0.299 -3.5958,-1.1299 -3.5958,-1.8504 0,-1.6789 10.7379,-3.7299 12.8132,-2.4474 4.3734,2.703 -1.5286,5.4549 -9.2174,4.2978 z m 50.7455,-8.2022 c 0,-2.1641 5.8639,-3.6879 9.6129,-2.4981 1.771,0.5623 2.8077,1.6894 2.3034,2.5054 -1.1983,1.9382 -11.9163,1.9319 -11.9163,0 z" fill="#00B894" transform="translate(276.2133,189.8961) translate(-3551.4488,-2830.1892)"/>
</svg>