<?xml version="1.0" ?><svg height="152.33792mm" viewBox="0 0 162.79201 152.33792" width="162.79201mm" xmlns="http://www.w3.org/2000/svg">
    <path d="m 33558.367,13701.545 c -27.92,-0.5 -187.833,27.573 -223.853,44.18 -37.183,17.142 -20.465,23.16 -17.325,50.787 0,0 23.099,72.578 52.176,137.406 29.077,64.829 93.514,106.773 130.596,125.1 37.081,18.327 56.33,6.838 82.672,-28.084 26.342,-34.921 37.992,-87.532 37.992,-114.612 0,-27.081 -26.544,-163.667 -30.799,-178.894 -4.256,-15.227 -9.422,-33.28 -29.178,-35.742 -0.617,-0.08 -1.38,-0.125 -2.281,-0.141 z m 114.537,205.021 c -21.681,10.213 -61.296,91.634 -72.947,134.944 -11.651,43.31 -6.382,132.577 6.08,178.623 12.462,46.045 58.457,33.461 150.654,1.365 92.196,-32.095 137.382,-157.374 149.135,-201.961 11.752,-44.587 3.952,-50.42 -5.572,-50.787 -9.523,-0.365 -107.394,1.642 -137.586,-4.74 -30.192,-6.383 -66.664,-36.838 -89.764,-57.444 z" fill="#FFFFFF" transform="translate(-57.8098,-91.125924) translate(-8754.0891,-3530.6096) scale(0.26458333)"/>
    <path d="m 8895.1805,3772.8916 c -1.6183,-0.7046 -3.3303,-2.4132 -3.9296,-3.9217 -5.5372,-13.9369 -8.2661,-29.3152 -7.3382,-41.3507 0.315,-4.083 0.3374,-7.4237 0.05,-7.4237 -0.2875,0 -1.5864,0.8369 -2.8863,1.8596 -6.0293,4.7423 -14.4243,4.1942 -25.87,-1.6896 -4.7518,-2.4425 -8.9705,-5.8056 -15.5589,-12.4035 -8.0605,-8.0721 -9.5362,-10.0938 -13.6248,-18.6659 -2.5217,-5.2874 -5.8973,-13.4651 -7.5013,-18.1725 -2.9112,-8.5439 -6.6225,-24.6445 -6.6225,-28.7294 0,-2.7437 3.0474,-5.1329 12.5247,-9.8205 9.4349,-4.6665 20.4683,-7.7123 35.5219,-9.8056 14.4617,-2.0111 22.7729,-1.1003 26.2013,2.871 2.1275,2.4648 5.8856,13.444 9.7036,28.3479 l 2.1685,8.4657 h 3.9175 c 6.4176,0 6.4965,3.4043 0.1373,5.9023 -2.8219,1.1085 -3.6367,1.8686 -3.2063,2.9906 0.3176,0.8274 0.6022,4.299 0.632,7.7146 0.045,5.1892 0.2376,5.9187 1.1642,4.4368 6.0697,-7.8659 5.5633,-10.2646 12.0195,-4.0247 4.8156,4.6802 15.2236,10.3834 21.738,11.9115 2.5331,0.5942 11.8764,1.1489 20.7632,1.2323 18.5766,0.1743 18.2142,0 19.3069,8.7564 1.8321,14.6629 -9.149,38.1624 -24.3992,52.2146 -7.6188,7.0201 -18.8368,14.146 -26.5218,16.847 -10.2982,3.6197 -23.1634,4.7332 -28.3899,2.4575 z m 20.5594,-7.5644 c 7.3812,-1.9227 16.7959,-7.1153 25.4665,-14.0459 14.5488,-11.6292 26.752,-30.9295 27.9178,-47.8818 0.095,-5.0495 1.1828,-7.2098 -3.8523,-5.0625 -4.3597,1.8594 -19.799,1.8676 -28.1079,0.579 -8.2267,-1.2759 -19.2131,-7.2574 -25.3504,-13.9107 -3.4354,-3.724 -4.2818,-1.8977 -5.8819,0.079 -5.1636,6.3801 -10.639,23.4086 -12.1496,29.1863 -3.5062,13.4104 -2.5249,49.0067 1.4275,51.7785 1.7339,1.2162 14.8608,0.7542 20.5303,-0.7223 z m 0.3131,-13.2987 c -0.8541,-0.3483 -2.4626,-1.7939 -3.5746,-3.2129 -2.9317,-3.7409 -6.6594,-5.3365 -12.4667,-5.3365 -2.8124,0 -5.3737,-0.4209 -5.6915,-0.9354 -0.9196,-1.4879 3.0748,-7.7482 6.3962,-10.0238 6.3027,-4.3188 18.3633,-1.6706 21.384,4.6952 0.8578,1.8071 2.2131,4.4888 2.2131,5.5398 0,2.3126 -1.7257,6.5258 -3.584,8.7508 -1.4753,1.7662 -2.3507,1.4708 -4.6765,0.5228 z m 2.0314,-11.0744 c -0.5847,-1.8514 -3.9811,-4.9278 -6.4748,-4.8837 -2.8967,0.05 -8.8148,2.5624 -6.3067,2.6762 2.396,0.1082 8.0689,3.4766 10.3519,5.5646 4.9854,4.5595 3.3946,-0.3023 2.4296,-3.3571 z m -20.502,-16.74 c -1.2807,-0.2112 -2.9267,-0.589 -3.658,-0.8387 -2.6915,-0.9195 1.3781,-3.2712 6.5916,-3.8095 4.0645,-0.4195 5.4157,-0.2007 6.699,1.0821 3.2668,3.2667 -1.2719,4.9468 -9.6326,3.5661 z m 32.881,-2.3578 c -0.5095,-0.6573 -1.2056,-1.9742 -1.5465,-2.9267 -0.5106,-1.4251 -1.2094,-1.6212 -3.9494,-1.1072 -2.8816,0.5407 -3.2855,0.3989 -3.0054,-1.0552 0.4749,-2.4663 5.1895,-4.464 8.1104,-3.4368 3.1838,1.1197 5.578,5.364 4.2311,7.5003 -1.3322,2.1123 -2.7121,2.4811 -3.8402,1.0256 z m -20.0046,-7.3751 c -1.1516,-1.7345 -1.5679,-1.8348 -3.2499,-0.7843 -2.2207,1.3868 -4.97,0.6647 -4.97,-1.3055 0,-0.739 1.2893,-2.4286 2.8654,-3.7546 4.3552,-3.6646 8.3409,-3.13 10.7018,1.4353 2.5804,4.9899 -2.2934,9.0085 -5.3473,4.4091 z m -29.6404,-0.4116 c 2.305,-2.8074 5.8119,-8.1814 7.7935,-11.942 3.201,-6.0755 3.6556,-7.7728 4.081,-15.2268 0.264,-4.614 0.1927,-10.3008 -0.1584,-12.6377 -0.5869,-3.9128 -0.867,-4.2718 -3.5435,-4.5371 -3.9465,-0.3913 -4.3877,-2.4492 -0.8144,-3.798 3.7404,-1.4118 3.719,-2.5125 -0.3728,-19.1767 -1.7928,-7.3015 -3.2596,-14.0375 -3.2596,-14.9689 0,-2.169 -3.3462,-2.8586 -13.8537,-2.8549 -14.5158,0 -33.4608,4.1995 -46.6492,10.3272 -9.768,4.5382 -9.4356,2.2831 -3.0759,20.8698 5.3099,15.5177 11.8196,29.1695 17.4571,36.61 7.637,10.0791 19.0577,18.1234 30.0013,21.132 7.1222,1.9581 7.8538,1.7339 12.3951,-3.7969 z m -16.2987,-16.6938 c -7.1557,-2.5302 -11.6242,-9.7424 -11.6363,-18.7813 0,-6.8709 2.112,-9.3284 3.281,-3.8016 1.8995,8.9803 15.1626,13.2378 23.6801,7.6011 2.5375,-1.6793 4.2604,-2.2149 5.6773,-1.7653 1.8158,0.5763 1.9866,1.1383 1.593,5.2354 -0.9473,9.8572 -11.7327,15.3524 -22.5951,11.5117 z m 11.2312,-5.5435 c 1.6722,-1.2527 1.5623,-1.3163 -1.4634,-0.8453 -2.0531,0.3194 -5.3442,-0.1901 -8.839,-1.3707 -6.242,-2.1073 -7.3791,-1.9993 -3.7802,0.3588 4.6232,3.0291 11.3364,3.9146 14.0826,1.8572 z m -14.4908,-29.3796 c 0,-2.4243 3.1987,-5.5881 5.6494,-5.5881 3.1749,0 5.5268,1.7741 5.5268,4.1689 0,2.9327 -1.1737,3.5558 -4.1466,2.2015 -1.8536,-0.8446 -2.6802,-0.8475 -3.5157,0 -1.6915,1.6914 -3.5139,1.292 -3.5139,-0.7704 z m 21.9174,-1.8129 c -0.3361,-0.5433 -1.6329,-0.7312 -2.8821,-0.4179 -1.8507,0.4647 -2.2712,0.2191 -2.2712,-1.3271 0,-2.3948 2.3784,-4.8241 4.7232,-4.8241 2.3541,0 5.7177,3.4114 5.3365,5.4126 -0.3413,1.7912 -3.9835,2.65 -4.9064,1.1565 z" fill="#00B894" transform="translate(-57.8098,-91.125924) translate(-8754.0891,-3530.6096)"/>
</svg>