<?xml version="1.0" ?><svg height="147.64677mm" viewBox="0 0 219.91196 147.64677" width="219.91196mm" xmlns="http://www.w3.org/2000/svg">
    <path d="m 8464.6758,3514.1156 c 7.0099,-21.7474 29.7217,-49.7348 70.5062,-46.8442 40.7842,2.8906 53.3254,36.4064 60.0549,44.0912 6.7294,7.6851 22.511,26.7298 37.3462,14.7781 14.8354,-11.9521 17.7921,-21.8393 27.5296,-29.318 9.7372,-7.4784 16.288,-0.8715 16.288,-0.8715 l -2.1921,19.4305 c 0,0 -5.9137,-5.6436 -12.8214,7.0884 -6.908,12.7318 -17.7668,33.034 -39.2806,28.9737 -21.5138,-4.0605 -29.6452,-15.0489 -29.6452,-15.0489 0,0 4.2825,27.2531 -1.8608,37.6221 -6.1431,10.369 -29.083,33.9532 -64.1321,34.022 -35.0491,0.069 -47.3956,-15.4363 -53.6824,-25.8538 -6.287,-10.4174 -9.4316,-44.8484 -9.4316,-44.8484 z" fill="#FFFFFF" transform="translate(49.647205,-74.470032) translate(-8509.4048,-3389.6326)"/>
    <path d="m 8526.2033,3464.1061 c -13.9873,0.1214 -23.4958,3.8016 -34.1678,9.6069 -23.7067,12.8962 -36.2504,44.015 -31.1528,71.5337 0.8838,6.9965 2.5531,16.9541 5.6166,26.5212 l 3.0764,6.7096 c -0.1954,0.7672 -0.053,2.0833 0.5319,3.9482 1.3061,4.1669 10.8708,14.8397 17.8597,18.5634 10.4288,5.3751 23.4438,10.8718 35.2264,10.753 30.4187,0.4098 60.9374,-16.4889 68.8271,-33.7448 1.0758,-2.3528 3.1028,-9.5595 3.2818,-11.7559 0.7078,-8.6741 1.0906,-15.852 1.4494,-23.4285 0.7291,0.5177 1.9396,1.4979 3.494,2.899 2.073,1.8688 6.9604,4.8375 10.8594,6.5976 6.3255,2.8557 8.0415,3.2026 15.9359,3.2224 10.7681,0.026 16.4164,-1.5777 21.4176,-6.086 4.7106,-4.2457 10.9188,-13.7484 13.2758,-20.3194 2.414,-6.7309 4.8101,-9.1502 10.899,-11.0014 8.3432,-2.5801 6.2603,-5.1013 6.5485,-14.2795 0,-5.6269 2.2707,-9.937 -2.9906,-12.1544 -4.2902,-2.3361 -11.716,-2.0982 -16.8949,0.5418 -3.2681,1.6658 -5.6695,4.1791 -10.2103,10.6835 -13.0123,18.6393 -23.3857,24.3113 -34.6247,18.9344 -8.372,-4.0048 -16.5592,-12.9532 -30.786,-33.6495 -2.7442,-3.9919 -16.5148,-15.0504 -22.3809,-17.9726 -6.868,-3.4215 -15.152,-5.1338 -28.8062,-5.9538 -2.1975,-0.132 -4.2871,-0.1874 -6.2853,-0.1689 z m -0.2112,5.2208 c 21.6626,0.084 32.1091,4.2592 44.1394,17.6427 12.0788,13.4374 19.6134,29.0416 19.6208,40.6331 0,14.1125 -6.5671,31.4916 -15.3683,40.6129 -5.906,6.1205 -16.3485,14.1237 -26.0669,17.09 -5.2138,1.5912 -10.1385,2.2121 -19.5432,2.4597 -18.2649,0.481 -26.0263,-3.8267 -40.224,-11.1242 -30.237,-15.5414 -26.1865,-67.3466 -3.0845,-89.3317 14.2518,-13.5628 21.8526,-18.0545 40.5267,-17.9825 z m -7.9168,1.4449 c -7.5367,-0.2349 -18.4909,8.4108 -18.7298,14.4897 -0.3092,7.8604 1.6484,11.5775 7.7777,14.7722 4.6889,2.4441 12.8721,2.764 17.5906,0.6877 10.2063,-4.4915 13.6892,-13.434 8.9618,-23.1011 -2.6115,-5.341 -8.467,-6.6267 -15.6003,-6.8485 z m 3.6181,4.8307 c 9.8084,0.026 12.4447,13.2328 0.7339,18.7163 -6.0393,2.828 -11.2279,2.2073 -15.4939,-1.9889 -3.5928,-3.5342 -3.5672,-5.9438 0.1108,-10.3549 4.0443,-4.8503 8.9407,-6.3828 14.6495,-6.3725 z m 36.4395,8.7572 c -5.9575,0.1135 -13.5174,4.8974 -15.7804,11.187 -1.4401,4.0025 -1.2366,6.3891 0.9493,11.1445 2.2419,4.8769 5.859,7.8855 12.4736,10.3768 5.4402,2.049 13.3378,1.7232 16.8419,-0.6945 8.8612,-6.114 6.7236,-22.1222 -3.6195,-27.105 -2.1397,-1.0309 -4.7029,-2.5373 -5.6971,-3.3467 -1.3741,-1.1186 -3.182,-1.5996 -5.1678,-1.5621 z m 0.161,4.9946 c 7.9427,0 16.0631,13.7959 11.704,19.884 -0.6405,0.8944 -2.8407,1.8412 -4.8896,2.1038 -10.1263,1.2976 -20.3732,-7.5609 -17.0819,-14.7682 1.6181,-3.5434 6.8471,-7.2196 10.2675,-7.2196 z m 112.4137,6.8651 c 3.5257,-0.1294 2.6975,2.3607 2.1568,8.5811 -0.712,7.0601 0,8.8134 -4.4856,9.4161 -4.8354,0.7788 -3.795,1.1494 -4.4244,-3.9236 -1.2038,-9.2511 -0.8176,-12.0701 1.7981,-13.1174 1.314,-0.5262 3.5434,-0.9562 4.9551,-0.9562 z m -181.4031,2.4882 c -3.3249,0.1082 -6.452,0.9232 -8.2744,2.2799 -5.9672,4.4426 -9.2236,13.3183 -9.2236,17.3111 0,6.1448 4.1218,13.0231 9.7791,16.3178 1.0243,0.5967 4.2256,1.0985 7.1132,1.1146 4.4128,0.026 5.9612,-0.4791 9.7134,-3.1582 11.4146,-8.15 11.6087,-25.5539 0.3548,-31.8979 -2.6146,-1.4739 -6.1377,-2.0748 -9.4625,-1.9673 z m 171.0334,2.3958 c 0.7682,0.103 0.7701,2.6086 0.509,7.5879 -0.3116,5.9384 -0.9512,9.3752 -2.0616,11.0656 -0.8857,1.3485 -2.5975,4.5482 -3.8035,7.1106 -1.2059,2.5621 -3.2902,6.043 -4.6316,7.7352 -3.6794,4.6409 -2.1867,2.9135 -3.5608,-2.0368 -1.8676,-8.5206 -1.4956,-11.3837 2.0164,-15.5034 1.7258,-2.0244 4.6176,-6.1272 6.4255,-9.1173 2.8047,-4.6411 4.3383,-6.944 5.1066,-6.8418 z m -170.4442,2.4856 c 5.5028,-0.3026 10.9647,2.5109 10.7847,9.2471 -0.1795,6.7252 -2.0368,11.4827 -6.03,14.0818 -1.7253,1.1228 -4.6536,1.9903 -6.7777,1.9782 -5.0068,-0.029 -10.6754,-5.6106 -10.1651,-11.4408 0.4197,-4.7977 6.5591,-12.8328 9.8443,-13.5485 0.7717,-0.1689 1.5579,-0.2745 2.3438,-0.3178 z m 40.093,2.7912 c -1.4267,0.2403 -2.8963,2.3174 -2.259,4.0656 0.6914,1.898 2.372,1.5521 3.7651,-0.7735 0.7031,-1.1735 0.6542,-1.9705 -0.1742,-2.8417 -0.3868,-0.4073 -0.8572,-0.5306 -1.333,-0.4504 z m -12.2074,0.8937 c -1.3005,0.4559 -1.937,3.1859 -1.2086,5.1842 v 0 c 0.6627,1.8187 3.2739,1.8316 3.9344,0.026 0.6764,-1.8559 -1.3334,-5.6929 -2.7258,-5.2048 z m 22.1639,3.0165 c -1.8129,0.3474 -3.7424,2.9156 -2.6904,4.7079 0.3062,0.5216 1.4562,0.8123 2.5553,0.6468 2.1231,-0.3203 3.2366,-3.3322 1.7938,-4.8513 -0.4635,-0.4884 -1.0546,-0.6193 -1.6587,-0.5034 z m -8.6481,4.8797 c -2.9705,-0.2059 -5.7066,0.9774 -8.8622,3.7164 -2.9772,2.584 -3.4257,3.5268 -3.4257,7.1842 0,4.5533 2.456,8.8567 5.9495,10.4244 4.8278,2.1661 12.053,-1.1975 14.2006,-6.6098 2.7121,-6.8355 0.9293,-12.0656 -4.79,-14.0533 -1.0666,-0.3707 -2.0822,-0.5932 -3.0722,-0.6619 z m 65.7095,4.5842 c 0.1267,0 2.7475,2.0589 5.8215,4.573 4.7626,3.8945 5.5894,5.035 5.5894,7.7093 0,1.7261 0.2664,5.1863 0.5919,7.689 0.3258,2.5025 0.2218,4.5409 -0.2323,4.5308 -1.1788,-0.026 -9.0009,-5.3011 -10.2934,-6.9413 -0.8839,-1.1218 -2.2664,-17.569 -1.4763,-17.5608 z m -85.3755,0.09 c -0.6225,-0.026 -1.1977,0.447 -1.9359,1.3834 -0.9248,1.1737 -0.9248,1.769 0,2.9425 1.4505,1.8404 3.1752,1.8794 4.5746,0.103 0.8319,-1.0555 0.7371,-1.7266 -0.4176,-2.9428 -0.9288,-0.9779 -1.5985,-1.4713 -2.2211,-1.4869 z m 16.0861,0.9739 c 0.9716,-0.09 2.1456,0.2112 3.8035,0.876 2.8792,1.1526 3.2264,4.8072 0.6864,7.2278 -1.9924,1.8987 -5.8262,2.1289 -7.4245,0.4461 -1.5671,-1.6502 -1.3902,-5.2596 0.3466,-7.0886 0.8483,-0.8932 1.6165,-1.3723 2.588,-1.4613 z m 17.3248,1.8815 c -2.2886,0 -3.1704,1.716 -1.7844,3.4748 1.3523,1.7158 2.0511,1.7836 3.4323,0.3287 1.4309,-1.5066 0.4359,-3.8035 -1.6479,-3.8035 z m 25.5212,1.8048 c -1.9633,-0.1479 -4.0922,0 -6.3832,0.4638 -6.1964,1.2376 -10.0379,3.6028 -12.7983,7.8815 -1.8258,2.8301 -2.1238,4.3402 -1.835,9.2878 0.4987,8.5341 4.6963,13.5306 12.8433,15.2867 4.459,0.961 8.9882,0.1927 13.9823,-2.3713 7.9507,-4.0819 11.0601,-13.1388 7.2524,-21.1242 -2.7747,-5.8189 -7.1711,-8.9798 -13.0615,-9.4243 z m 71.0888,1.2524 c 0.9914,0.2059 0.932,2.5138 2.0329,7.288 1.1927,7.7587 1.165,8.4947 -0.3805,10.2934 -0.9155,1.0652 -3.767,2.5946 -6.337,3.3982 -7.9766,2.4945 -8.3903,2.2997 -10.1939,-4.8281 -2.2192,-8.7701 -2.1915,-8.8691 2.8731,-10.2361 2.4557,-0.6626 6.3292,-2.5048 8.6086,-4.0941 1.8295,-1.3118 2.8023,-1.9449 3.3968,-1.8213 z m -73.2921,3.5798 c 5.8912,0.045 10.8486,4.5002 9.367,12.8228 -0.5085,2.1144 -1.9647,4.5303 -3.4106,5.6602 -3.2757,2.5603 -11.4437,3.2203 -14.8403,1.1993 -4.6456,-2.7641 -5.4321,-10.3667 -1.5404,-14.8883 3.0196,-3.2622 6.8896,-4.8217 10.4243,-4.794 z m 42.2472,1.352 c 0.3237,-0.103 0.9774,0.026 2.0804,0.3384 1.4929,0.4264 4.1815,1.0513 5.974,1.3889 3.1034,0.584 3.2879,0.8475 3.8542,5.5007 0.3271,2.6881 0.8973,6.1019 1.2661,7.5853 0.5946,2.3924 0.4216,2.6868 -1.5267,2.6083 -3.2723,-0.132 -8.6275,-1.9097 -9.3234,-3.0954 -0.3358,-0.5721 -0.8987,-3.4695 -1.2509,-6.4379 -0.3521,-2.9687 -0.8799,-6.0556 -1.1734,-6.8608 -0.2165,-0.5951 -0.2244,-0.9251 0.1003,-1.0275 z m -97.246,2.7981 c -2.2759,0 -3.1521,1.7218 -1.7693,3.4761 1.3071,1.6587 4.2422,1.8903 5.1145,0.4039 0.8316,-1.4169 -1.2925,-3.88 -3.3452,-3.88 z m 29.8311,0.074 c -0.7353,-0.063 -1.5022,0.1664 -2.0767,0.7722 -0.6845,0.7213 -0.6111,1.4996 0.2456,2.5867 1.6209,2.0568 4.191,1.4555 4.191,-0.9807 0,-1.3544 -1.1352,-2.2736 -2.3602,-2.3782 z m -13.9728,5.0274 c -0.2614,-0.042 -0.5185,-0.04 -0.7669,0 -1.9283,0.3913 -2.5645,3.7124 -0.9208,4.809 1.9414,1.2958 4.2607,1.0207 4.8417,-0.5742 0.5832,-1.6006 -1.3342,-3.9518 -3.154,-4.2443 z m -30.812,1.7926 c -6.901,-0.3248 -15.7039,3.6131 -19.7217,9.7519 -4.5596,6.9662 1.0082,17.0668 12.4094,22.5129 12.1144,5.7867 23.2566,-1.716 23.2566,-15.6602 0,-2.8219 -0.8409,-4.7418 -3.6385,-8.3071 -2.0014,-2.5502 -4.8301,-5.4635 -6.2866,-6.4749 -1.63,-1.1315 -3.7187,-1.7141 -6.0192,-1.8226 z m 0.341,5.8555 c 5.6629,0 7.8469,1.9357 8.5882,7.6111 0.7195,5.5089 -0.4472,9.3842 -3.4203,11.3603 -4.5353,3.0141 -8.0671,2.7023 -14.1352,-1.2469 -3.5804,-2.3303 -6.1636,-5.9736 -6.1636,-8.693 0,-4.1377 8.2001,-9.0315 15.1309,-9.0315 z m 35.3099,2.2538 c -6.3376,0 -12.7175,7.085 -14.2811,15.8622 -1.1403,6.4007 3.5555,12.3254 11.9632,15.0942 4.9267,1.6226 5.4439,1.6371 10.5172,0.292 5.308,-1.4076 10.0392,-6.0474 11.5376,-11.314 1.4927,-5.2467 0.7047,-8.2973 -3.3683,-13.0451 -3.493,-4.0711 -10.1892,-6.8893 -16.3686,-6.8893 z m 58.5255,4.6453 c -1.1843,5.8416 -0.04,13.0367 -3.2607,17.8581 -11.5043,17.2546 -28.9239,28.7777 -56.6917,32.0629 -22.1975,2.6263 -48.6432,-10.672 -58.9197,-22.8049 -1.0175,-1.2012 -2.1751,-2.5154 -2.3742,-3.2538 -4.4534,-16.5009 -0.7896,-6.8775 6.4408,0.04 19.3333,18.3068 50.373,21.3579 69.4547,17.0544 14.076,-3.1743 29.7595,-14.9802 36.5036,-24.0095 2.5653,-3.4347 6.3461,-10.9368 8.8472,-16.9468 z m -56.513,0.2588 c 5.1353,-0.1215 6.9384,1.1666 9.8266,6.356 2.1783,3.9144 2.3002,4.6277 1.1938,7.0042 -0.6777,1.4555 -2.2789,3.4532 -3.5595,4.4395 -4.709,3.6266 -12.6261,2.7165 -17.0737,-1.9975 -4.2465,-4.5006 -0.6484,-15.5604 9.6128,-15.8022 z" fill="#00B894" transform="translate(49.647205,-74.470032) translate(-8509.4048,-3389.6326)"/>
</svg>