<?xml version="1.0" ?><svg height="328.54199mm" viewBox="0 0 234.89635 328.54199" width="234.89635mm" xmlns="http://www.w3.org/2000/svg">
    <path d="m 8050.9151,3480.5514 c -0.1114,-15.3247 4.3477,-32.8062 26.6428,-39.4277 22.2954,-6.6212 30.1265,0.4265 32.7461,2.0569 2.6197,1.6301 12.9035,13.4935 12.9035,13.4935 l 14.3523,-4.5398 c 0,0 -0.418,-15.0235 24.3853,-21.6199 24.8037,-6.5963 38.9888,18.51 42.0267,29.7463 3.0377,11.2364 1.3835,29.8546 -7.0789,31.6021 -8.4624,1.7476 -19.4524,9.7065 -19.4524,9.7065 l 4.7656,24.6798 21.2702,-0.513 c 0,0 -1.8455,-4.2272 3.8676,-5.8827 5.7132,-1.6553 9.4316,1.2398 9.4316,1.2398 l 16.7931,-6.3563 c 0,0 0.1392,-4.2387 2.1739,-4.7152 2.0343,-0.4768 8.5836,-1.806 8.5836,-1.806 l 3.8737,2.458 26.8825,-16.1227 2.3966,65.9633 -28.1755,-9.8568 -2.0066,6.3204 -12.4296,-0.602 -2.5048,-4.9757 -15.358,0.5233 -5.2406,5.882 -5.6573,-2.1569 -1.9865,-3.7108 -19.9464,1.7293 -0.5853,15.1993 -24.4689,3.5864 c 0,0 5.0988,5.2607 4.5413,12.2584 -0.5572,6.9975 -7.4131,15.6255 -7.4131,15.6255 l 19.341,-0.1254 0.7806,14.6973 -58.079,3.0099 -1.3658,-14.547 11.9592,-8.8284 c 0,0 -1.5436,-2.2577 -0.059,-10.2333 1.4846,-7.9756 8.3886,-10.81 8.3886,-10.81 l -42.0126,0.473 -1.0631,-4.9485 c 0,0 -8.4442,-0.953 -8.1656,-5.7435 0.2786,-4.7906 6.4934,-7.5745 6.4934,-7.5745 l -1.8394,-5.9693 -18.3097,1.555 -4.9329,-8.7032 -8.6952,-2.8591 -7.9148,-10.9355 36.1892,-4.4339 2.0193,-14.7029 c 0,0 -29.7778,2.7064 -38.0667,-29.106 z" fill="#FFFFFF" transform="translate(173.6262,-3.4368955) translate(-8220.4693,-3424.1024)"/>
    <path d="m 8139.575,3754.9296 c -0.354,-3.931 0.2896,-32.7095 1.1978,-53.5558 0.8231,-18.8953 0.812,-25.0072 -0.05,-26.8966 -0.9145,-2.007 -0.8577,-2.7287 0.3179,-4.0276 0.9929,-1.0969 1.4385,-3.5595 1.453,-8.0283 0.026,-6.1721 1.1241,-22.6792 2.4082,-36.016 l 0.6054,-6.2864 h -6.5256 c -4.1194,0 -6.8577,0.429 -7.4261,1.164 -0.9847,1.273 -7.7135,17.9275 -13.4109,33.1941 -1.9866,5.3228 -3.6121,11.0645 -3.6121,12.7594 0,1.7878 -0.5937,3.4143 -1.4142,3.8734 -1.6522,0.9246 -4.3856,8.2939 -18.729,50.4931 -5.8268,17.1424 -11.1895,31.7635 -11.9173,32.4911 -1.9605,1.9605 -4.2615,0.6288 -4.2615,-2.466 0,-1.4642 1.2817,-7.24 2.8486,-12.8352 2.7934,-9.9769 16.6951,-52.0813 20.9424,-63.4283 l 2.1547,-5.7568 -2.2326,-1.4631 c -2.8584,-1.8728 -2.0648,-4.0593 1.6088,-4.4328 2.7401,-0.2788 2.9713,-0.7105 9.1305,-17.05 3.4753,-9.2202 7.189,-18.7546 8.2521,-21.1879 l 1.9333,-4.4239 -2.5281,-0.026 c -4.3779,-0.026 -5.1161,-1.1283 -4.9735,-7.435 0.071,-3.1841 0.367,-6.1713 0.6552,-6.6381 0.2886,-0.4667 -1.9148,0.2429 -4.8961,1.5795 -2.9816,1.3354 -6.4065,2.8156 -7.6112,3.2898 -1.2046,0.4741 -4.498,3.1152 -7.3183,5.8692 -3.1831,3.1076 -8.8739,7.0306 -15.0029,10.3423 -12.7695,6.8994 -16.4642,8.2188 -19.1118,6.8254 -2.0518,-1.0797 -3.3695,-2.556 -3.3951,-3.8042 -0.04,-1.9095 7.6566,-8.7514 14.8456,-13.1982 15.1177,-9.3514 22.2735,-12.3101 23.7996,-9.8404 0.3564,0.5766 2.1052,0.026 4.4791,-1.4438 2.1416,-1.3142 8.3994,-4.677 13.906,-7.4731 l 10.0117,-5.0833 v -5.4503 c 0,-4.2602 0.5024,-6.1905 2.3005,-8.8398 l 2.3002,-3.3898 h -18.5809 c -13.3996,1.174 -18.8779,3.9384 -19.1736,-2.3614 -0.3801,-1.5144 -1.7221,-2.8336 -3.7411,-3.6771 -5.6869,-2.376 -6.4469,-8.4469 -1.6574,-13.2367 3.8232,-3.823 2.3992,-5.0912 -4.9691,-4.4254 -3.4676,0.3133 -6.888,0.7545 -7.6003,0.9802 -2.2603,0.7162 -5.5746,-2.262 -6.1945,-5.5665 -0.551,-2.9367 -0.8831,-3.1878 -4.8067,-3.63 -5.1649,-0.5821 -8.1045,-2.6862 -12.1025,-8.6618 -1.6891,-2.5252 -3.5128,-5.1203 -4.0524,-5.7671 -0.5397,-0.6466 -0.7453,-1.5571 -0.4576,-2.0231 0.7915,-1.2804 11.6514,-3.5122 25.1392,-5.1667 6.6346,-0.8137 12.1486,-1.5695 12.2534,-1.6793 0.1056,-0.1109 0.3318,-1.8647 0.5047,-3.9001 l 0.3142,-3.7005 -4.1335,-0.7057 c -6.8302,-1.1658 -19.8663,-7.9121 -24.5977,-12.729 -6.322,-6.4366 -8.34,-11.7309 -8.7994,-23.0866 -0.4868,-12.0377 0.9024,-16.4729 7.741,-24.7118 9.4222,-11.3515 20.7188,-16.5927 35.7193,-16.5722 15.8168,0.026 23.2854,3.7694 32.2659,16.1909 1.8124,2.5067 1.9383,2.5368 4.6567,1.1086 1.5368,-0.8071 4.1208,-1.7195 5.7423,-2.0273 1.9861,-0.377 3.1139,-1.2205 3.4566,-2.5851 1.0066,-4.0115 6.2262,-10.8309 11.0809,-13.9883 18.9193,-12.3043 40.2757,-7.5309 51.5607,9.8733 3.5249,5.4364 6.879,14.156 7.7972,19.7856 0.8963,5.4962 -0.3786,17.5587 -2.3559,22.2914 -3.0086,7.2006 -10.6754,13.3616 -19.3061,15.514 -2.4331,0.607 -4.4239,1.2683 -4.4239,1.4702 0,0.2007 0.8382,3.3917 1.8628,7.0887 1.0243,3.6968 1.8625,7.8826 1.8625,9.3016 v 2.5798 h 8.6727 c 8.4985,0 8.7126,-0.055 10.6783,-2.7132 2.5376,-3.4322 7.1006,-4.5991 9.4985,-2.4293 1.5323,1.3868 1.9977,1.4079 4.361,0.198 1.4555,-0.7453 5.0696,-2.1141 8.032,-3.0415 3.428,-1.0735 5.2253,-2.1041 4.9447,-2.8357 -0.6629,-1.7273 1.2976,-2.9254 7.381,-4.5099 6.7415,-1.7559 6.5105,-1.7572 8.3059,0.037 1.3396,1.3395 1.8634,1.1243 5.8873,-2.4191 5.1382,-4.5244 13.2781,-9.4723 18.3208,-11.1366 7.2376,-2.3887 8.2347,1.5753 9.8251,39.0589 0.9839,23.1965 0.6191,30.5982 -1.5497,31.4304 -1.4745,0.5657 -6.5435,-1.2216 -18.111,-6.3854 -4.4217,-1.9739 -8.2717,-3.5888 -8.5557,-3.5888 -0.2841,0 -0.6479,1.3619 -0.8084,3.0267 0.1426,4.1076 -1.8699,2.9941 -5.4141,2.9207 -8.1035,-0.169 -13.2299,-1.3544 -13.7051,-3.1723 -0.3007,-1.1497 -1.7796,-1.7661 -5.2317,-2.1809 -7.872,-0.9459 -9.0035,-0.793 -9.0035,1.2155 0,2.15 -3.3319,4.7095 -6.1309,4.7095 -1.095,0 -3.5349,-1.0478 -5.422,-2.3282 -2.9405,-1.9956 -4.4785,-2.3285 -10.7559,-2.3285 h -7.3247 l -1.1532,6.7521 c -1.5222,10.3982 -4.5566,9.3078 -13.0886,10.1891 -5.322,0.5333 -10.1519,1.099 -10.733,1.2571 -0.6803,0.1848 -0.227,1.9642 1.2728,4.9947 2.7984,5.6543 2.4029,11.0682 -1.1957,16.3712 -1.2543,1.848 -2.2802,3.4774 -2.2802,3.6208 0,0.1425 2.7222,-0.132 6.0491,-0.6094 8.3416,-1.1993 10.4066,-0.529 11.5994,3.7658 1.4129,5.0883 1.2323,12.8251 -0.3297,14.1216 -0.7649,0.6347 -2.3481,0.8242 -3.8127,0.4567 -2.4946,-0.6262 -2.4993,-0.6175 -1.1289,2.0553 0.7569,1.4763 4.5244,11.2757 8.3722,21.7766 8.6049,23.4818 8.8662,24.0523 11.1813,24.3995 1.0301,0.1531 2.3348,1.0388 2.8992,1.9652 0.8126,1.3335 0.6767,1.9446 -0.6536,2.9333 -1.5967,1.1872 -1.5191,1.6809 1.5665,9.9573 1.7857,4.7898 5.8458,16.4618 9.0228,25.9381 3.1767,9.4763 8.0441,23.0827 10.8161,30.2363 5.3204,13.7296 5.8518,17.5333 2.5154,18.0093 -1.7139,0.2455 -2.7303,-1.4319 -7.7186,-12.7333 -3.1596,-7.1581 -9.2442,-22.7917 -13.5213,-34.7411 -11.7913,-32.9426 -12.1435,-33.7935 -14.1325,-34.1567 -2.9365,-0.5365 -3.602,-1.7796 -2.2775,-4.2547 1.0417,-1.9464 0.9818,-2.8852 -0.4013,-6.3051 -0.8939,-2.2102 -4.4917,-12.0743 -7.9948,-21.9205 -3.5032,-9.8459 -6.8254,-18.7538 -7.3825,-19.7948 -0.9005,-1.6824 -1.6048,-1.8274 -6.3334,-1.3044 -2.9261,0.3237 -5.6168,0.8527 -5.9793,1.1753 -0.8379,0.7458 -3.5321,32.4407 -3.5321,41.5524 0,3.7808 0.4193,7.1331 0.9314,7.4496 1.3134,0.8118 1.1563,3.3137 -0.3168,5.049 -1.2152,1.4312 -2.4166,18.5902 -4.276,61.0758 -0.7041,16.0835 -2.0236,20.9551 -5.6757,20.9551 -1.0114,0 -1.8861,-0.5238 -1.9436,-1.164 z m -69.1363,-127.6077 c 2.9946,-1.673 7.4372,-4.0828 9.8729,-5.3553 2.4357,-1.2725 5.3692,-3.0523 6.5192,-3.9558 3.4468,-2.7065 -0.3031,-1.052 -12.8101,5.6523 -12.5432,6.7233 -12.507,6.7003 -10.4895,6.7003 0.8046,0 3.913,-1.3688 6.9075,-3.0415 z m 56.6932,-13.9033 c 1.9002,-0.866 2.8435,-0.8612 4.2556,0.026 1.3652,0.8524 6.8942,0.976 22.3284,0.4984 20.109,-0.622 20.5087,-0.673 20.236,-2.5819 -0.2672,-1.8689 -0.6727,-1.9286 -10.0574,-1.4819 -5.3785,0.2561 -17.4278,0.4657 -26.7766,0.4657 h -16.9974 l 5e-4,2.0957 c 8e-4,2.4259 2.94,2.838 7.0109,0.9831 z m 28.3806,-6.7656 c 8.9641,-0.7682 16.8224,-1.4055 17.4626,-1.4164 1.7698,-0.029 1.3897,-2.6204 -0.4657,-3.1738 -3.9397,-1.1748 -13.8733,-0.7735 -17.1997,0.6949 -5.51,2.4319 -17.0222,2.0782 -22.4926,-0.6912 l -4.384,-2.2197 -4.9946,2.7052 c -4.1372,2.2409 -4.9059,3.0442 -4.4783,4.68 0.4977,1.9029 0.8752,1.9536 10.3853,1.3963 5.4276,-0.3182 17.2028,-1.2071 26.167,-1.9753 z m -2.1263,-10.4415 c 7.0169,-3.3298 8.8857,-12.5965 3.6057,-17.8797 -2.2369,-2.2382 -3.2084,-2.4792 -11.1669,-2.7704 -8.5051,-0.3113 -8.7905,-0.2535 -11.7417,2.3836 -2.4941,2.2282 -3.1073,3.5617 -3.4952,7.5985 -0.5393,5.6119 0.7923,8.9 4.3988,10.8621 3.3853,1.8419 14.3527,1.726 18.3993,-0.1954 z m -13.5522,-4.5886 c -3.0635,-2.1455 -2.3649,-5.8225 1.6133,-8.4947 3.8932,-2.615 6.058,-2.682 8.4773,-0.264 2.4917,2.4916 2.348,5.187 -0.4234,7.9588 -2.6525,2.6524 -6.5602,2.9753 -9.6672,0.7989 z m 5.483,-5.4978 c -0.074,-1.3826 -2.1566,-1.1286 -2.64,0.3216 -0.2614,0.7835 0.1637,1.1325 1.1357,0.9313 0.8543,-0.1768 1.5315,-0.7407 1.5043,-1.2529 z m -17.2788,-15.8292 c 21.2797,-1.3549 38.2333,-2.6749 48.4293,-3.7707 5.8152,-0.376 4.6451,-0.267 4.9207,-5.8176 0.4673,-9.4142 -2.6471,-49.2464 -4.0249,-51.4754 -0.1954,-0.3165 -2.7823,-0.2534 -5.7481,0.1373 -2.9658,0.3926 -12.2217,1.1738 -20.5686,1.7364 -8.3469,0.5625 -21.1295,1.8136 -28.4057,2.7799 -7.2764,0.9662 -17.211,2.0502 -22.0773,2.4087 -8.349,0.6151 -11.1759,1.4634 -11.1759,3.3536 0,1.1125 4.4283,1.0267 12.0603,-0.2349 7.4789,-1.235 15.9673,-0.4098 18.6562,1.8136 2.9494,2.4394 5.8756,11.8856 5.1601,16.6574 -1.2891,8.5959 -8.6695,13.2714 -22.1644,14.0409 -7.8139,0.4454 -8.235,0.5766 -7.8089,2.4333 0.2481,1.0792 0.9998,5.6634 1.6711,10.1865 1.5975,6.7521 -1.7292,8.637 4.9725,7.6985 2.0634,-0.2891 13.8098,-1.1661 26.1036,-1.9488 z m -20.6668,-6.6497 c -0.7091,-1.8475 0.8274,-4.53 2.5943,-4.53 1.7031,0 2.2171,3.0007 0.8055,4.7014 -1.4715,1.7733 -2.677,1.7125 -3.3998,-0.1716 z m 8.7469,0.9351 c -1.287,-1.287 -0.6191,-4.021 1.2233,-5.0068 2.0909,-1.1191 3.2095,0.3501 2.6155,3.4347 -0.335,1.7398 -2.702,2.7089 -3.8388,1.5721 z m 8.8184,-2.2685 c 0.4145,-2.7985 3.1192,-4.4825 4.6847,-2.9173 1.5655,1.5656 -0.1188,4.2703 -2.9172,4.6847 -1.6849,0.2508 -2.017,-0.082 -1.7675,-1.7674 z m 18.2356,-0.57 c -3.1628,-0.8438 -1.5597,-2.0275 4.6567,-3.4386 8.1507,-1.8501 23.26,-3.6765 24.9742,-3.0186 1.8467,0.7083 1.6753,3.1229 -0.2938,4.1474 -0.8963,0.4665 -6.4496,1.1265 -12.3402,1.4666 -5.8907,0.34 -11.7581,0.7666 -13.0388,0.948 -1.2804,0.1821 -3.0616,0.1346 -3.9581,-0.1056 z m -5.8532,-8.6352 c -4.507,-1.8269 -4.261,-5.327 -4.5178,-21.2017 -0.1769,-11.0186 -3.4606,-12.0017 6.4524,-14.2151 3.2108,-0.7167 9.1109,-1.5209 13.4648,-2.3134 18.2311,-3.3185 19.6124,-2.499 22.447,13.3186 1.0277,5.7351 1.7411,12.3726 1.5853,14.7499 -0.2534,3.8822 -0.6154,4.4939 -3.5429,6.0013 -2.1302,1.0972 -8.0103,2.1756 -16.9705,3.1128 -15.3369,1.6038 -16.2474,1.6302 -18.9183,0.5476 z m 20.0561,-7.052 c 4.8661,-0.3068 9.8531,-0.7653 11.082,-1.0191 2.8913,0.1162 1.674,-2.7157 1.6292,-11.0603 -0.3329,-5.8296 -1.0138,-11.6733 -1.5128,-12.9862 -1.0879,-2.8615 -1.5584,-2.8773 -20.0461,-0.6777 -12.0347,1.4317 -13.0234,1.6947 -12.8391,3.4136 0.1109,1.0243 0.4657,5.215 0.7907,9.3129 0.3249,4.0981 0.9992,9.0763 1.4984,11.0634 0.9261,4.8075 1.1189,3.5886 5.7288,3.0622 2.6517,-0.3031 8.8026,-0.8018 13.6689,-1.1088 z m -66.8795,16.786 c -0.4253,-3.643 -1.556,-4.2766 -2.3327,-1.3071 -0.631,2.4129 0.124,4.5667 1.603,4.5667 0.7204,0 0.9768,-1.1442 0.7297,-3.2596 z m 156.3961,-20.6439 c 0.1716,-5.0374 0.1875,-14.2209 0.1004,-20.4091 -0.14,-10.0748 0.8815,-11.6168 -5.3323,-10.3219 -5.0741,0.9238 -5.1224,-0.354 -5.1224,4.5525 0,1.9934 0.4176,6.4287 0.9282,9.8562 0.5103,3.4275 1.0465,11.2615 1.1912,17.4082 l 0.264,11.1759 3.2324,0.4657 c 4.0263,0.58 4.3116,-0.1874 4.738,-12.7275 z m 27.689,-15.1356 c -0.1769,-15.8369 -0.6262,-29.0974 -0.9969,-29.4675 -0.3704,-0.3704 -5.6092,2.6088 -11.6416,6.62 -6.0322,4.0113 -11.0765,7.3569 -11.2093,7.4346 -0.132,0.077 0.3913,5.5482 1.1643,12.1567 0.773,6.6084 1.4171,14.7423 1.4314,18.0748 l 0.026,6.0596 9.5204,3.8367 c 5.2362,2.1102 10.0846,3.8914 10.7744,3.9582 1.0333,0.1003 1.1972,-4.9527 0.9314,-28.6731 z m -61.6067,16.92 c -0.7044,-13.8756 -2.2572,-22.585 -4.0271,-22.585 -0.8738,0 -1.1669,0.7031 -0.8733,2.0954 1.1215,5.3215 2.5241,25.291 1.98,28.1919 -0.5441,2.8997 -0.3931,3.2408 1.4338,3.2408 2.0175,0 2.0352,-0.132 1.4866,-10.9431 z m -8.3248,5.8392 c 0.132,-0.1056 -0.077,-4.9722 -0.4657,-10.8153 l -0.7072,-10.6239 -8.382,-0.4906 c -4.6103,-0.27 -8.5186,-0.4129 -8.6851,-0.3178 -0.4288,0.2455 1.7727,22.0591 2.3147,22.9358 0.3654,0.5914 15.1141,-0.045 15.9253,-0.6882 z m -116.9116,-5.0952 c -0.14,-1.2424 -0.4304,-2.4362 -0.6474,-2.6532 -0.4044,-0.4047 -16.3295,1.7714 -16.3295,2.2313 0,0.1399 0.3815,1.258 0.8475,2.4835 0.845,2.2229 0.8664,2.226 8.6148,1.2128 7.4338,-0.9721 7.7566,-1.1128 7.5146,-3.2744 z m 144.6249,3.499 c 0.4303,-0.4466 -1.0323,-28.6216 -1.5104,-29.0997 -0.235,-0.235 -3.4977,0.4694 -7.2516,1.5642 l -6.8249,1.9911 0.6019,4.2478 c 0.3311,2.3361 0.8588,8.3205 1.1727,13.2985 l 0.5708,9.0507 6.4836,-0.3838 c 3.5658,-0.2112 6.6071,-0.5119 6.7579,-0.6688 z m -128.5391,-2.1896 c 13.8109,-1.4963 18.367,-6.7531 14.9002,-17.1912 -2.0191,-6.0786 -3.187,-6.7972 -17.3633,-6.5158 -8.6717,0.1716 -11.6844,-0.1267 -10.6937,2.5611 0.2725,1.4087 1.2042,7.0594 2.0703,12.5572 1.4655,9.3013 1.7113,9.9681 3.5366,9.5951 1.079,-0.2218 4.4764,-0.6732 7.5499,-1.0064 z m -3.5812,-8.646 c -3.565,-3.9397 -1.0594,-8.5161 4.8949,-8.9404 6.9184,-0.4929 10.0201,4.8273 5.0799,8.7131 -3.049,2.3984 -7.9098,2.5091 -9.9748,0.227 z m 7.2215,-3.7478 c 0.2701,-0.4369 -0.079,-1.5734 -0.7754,-2.5259 -1.075,-1.47 -1.4929,-1.5439 -2.7643,-0.4889 -2.234,1.854 -1.8359,3.809 0.7756,3.809 1.2503,0 2.4943,-0.3575 2.7641,-0.7942 z m -30.6492,3.0764 c 9.3599,-0.8176 9.7813,-1.009 9.7649,-4.4404 -0.026,-5.4762 -0.032,-5.4775 -16.1912,-4.0057 -8.0676,0.735 -14.9205,1.5885 -15.2291,1.8971 -0.7324,0.7323 4.352,6.0921 6.7542,7.1198 1.0243,0.4385 3.3293,0.6175 5.1221,0.3979 1.7928,-0.2192 6.1935,-0.6555 9.7791,-0.9687 z m 52.155,-28.412 c 8.7078,-1.1162 15.9794,-2.1619 16.1587,-2.3237 1.415,-1.2765 -2.1287,-1.7722 -10.9004,-1.5249 -9.2247,0.2587 -10.3509,0.4773 -10.8647,2.0954 -0.3152,0.9932 -1.3382,1.8055 -2.2733,1.8055 -1.8744,0 -2.8309,-1.7561 -2.8309,-5.1984 0,-2.4291 -1.3569,-3.0508 -2.1494,-0.985 -0.2675,0.6969 -3.1414,3.0592 -6.3862,5.2496 l -5.8999,3.9825 4.6564,-0.5359 c 2.5614,-0.2947 11.7816,-1.4489 20.4897,-2.5651 z m -27.9007,-3.7678 c 7.4295,-2.7797 14.1201,-9.758 19.2161,-20.0424 5.1792,-10.4518 5.4986,-16.542 1.3015,-24.8251 -6.3735,-12.5785 -12.8111,-17.1069 -26.4756,-18.6236 -7.9812,-0.8857 -9.9919,-0.8058 -15.2024,0.6048 -7.4428,2.0146 -13.7365,6.6251 -19.5794,14.3432 -5.0509,6.6713 -6.3196,10.4327 -6.327,18.7533 0,11.5109 4.3283,19.9827 12.7647,24.9269 11.7696,6.8976 24.1669,8.655 34.3021,4.8629 z m -14.5813,-21.0865 c -3.6094,-0.5022 -7.406,-4.9643 -8.0016,-9.404 -0.443,-3.3032 -0.1557,-4.1364 2.263,-6.5546 5.9572,-5.9575 15.6165,-4.3185 18.4619,3.1324 1.3406,3.5101 1.3517,4.267 0.1056,7.2468 -1.8876,4.5178 -6.3889,6.4751 -12.8299,5.5794 z m 6.1103,-6.1417 c 1.4243,-1.0415 1.5993,-1.9745 1.0367,-5.69 -0.5053,-3.3389 -2.2033,-3.9836 -5.1057,-3.6393 -5.1084,0.6056 -7.4921,5.0181 -3.7979,8.7123 2.1516,2.1516 5.4178,2.4077 7.8669,0.617 z m 78.7472,26.3522 c 0,-0.3474 -2.2596,-0.8646 -5.0215,-1.1497 -2.762,-0.2848 -7.5922,-1.5565 -10.7341,-2.8256 l -5.7124,-2.3071 0.5621,3.3938 c 0.3088,1.8664 0.685,3.8129 0.8355,4.3251 0.3081,1.0491 20.0704,-0.3654 20.0704,-1.4365 z m -36.322,-3.3145 c 9.0283,-0.8606 9.3134,-0.9961 9.3134,-4.4249 0,-3.9431 -0.7022,-4.5947 -3.1236,-2.8987 -2.1279,1.4905 -17.3657,1.9995 -17.3657,0.5802 0,-1.0298 6.3294,-2.8963 12.1675,-3.5877 4.3734,-0.518 4.558,-0.6466 3.1527,-2.1994 -0.8208,-0.9069 -2.4845,-4.0952 -3.6971,-7.085 -2.7641,-6.8154 -4.6248,-7.4292 -6.0709,-2.0022 -0.5888,2.2092 -2.7243,7.2075 -4.746,11.1076 -3.324,6.412 -3.5648,7.335 -2.5159,9.6371 1.0386,2.2794 1.5058,2.484 4.4616,1.9538 1.8161,-0.3257 5.6068,-0.812 8.424,-1.0808 z m 53.4076,-6.7373 c 5.737,-2.5468 10.4526,-8.2677 11.8082,-14.3252 1.9507,-8.7162 0.734,-17.7514 -2.9275,-25.9241 -10.9898,-24.5293 -43.2607,-28.4363 -54.6616,-5.568 -3.4127,6.8455 -4.0096,21.5638 -1.5652,28.9231 2.9979,9.0265 12.9323,16.4143 24.9705,18.5701 6.7093,1.2015 17.7585,0.3738 22.3756,-1.6759 z m -23.1391,-19.0954 c -3.4558,-1.579 -6.985,-7.6827 -6.985,-12.0802 0,-3.9212 4.0461,-8.5385 8.301,-9.4731 3.9764,-0.8736 10.2171,1.1273 13.3788,4.289 2.5376,2.5375 2.7247,3.1714 2.3324,7.9012 -0.5668,6.835 -3.3612,9.7908 -9.7265,10.2879 -2.5928,0.2033 -5.6935,-0.1901 -7.3007,-0.9248 z m 9.9385,-5.8827 c 2.7393,-2.479 2.1506,-6.5797 -1.4633,-10.1936 -3.121,-3.5545 -4.8674,-3.3133 -7.9382,-0.7553 -3.6644,3.0832 -3.71,6.2008 -0.1426,9.7677 3.0914,3.0912 6.9115,3.564 9.5447,1.1812 z m -42.0695,-0.6571 c 0,-0.697 0.2748,-3.2734 0.6109,-5.7254 l 0.6111,-4.4585 -2.7047,0.6788 c -1.4876,0.3733 -2.8575,0.8316 -3.0444,1.0185 -0.8876,0.8876 2.042,9.7538 3.2229,9.7538 0.7173,0 1.3042,-0.5703 1.3042,-1.2672 z" fill="#00B894" transform="translate(173.6262,-3.4368955) translate(-8220.4693,-3424.1024)"/>
</svg>