<?xml version="1.0" ?><svg height="440.91638mm" viewBox="0 0 245.89655 440.91638" width="245.89655mm" xmlns="http://www.w3.org/2000/svg">
    <path d="m -394.35219,528.23893 c -7.18289,-0.0419 -19.68613,2.97605 -19.68613,2.97605 0,6.09378 -0.47811,17.42017 5.48338,17.75137 5.9616,0.33118 16.92818,-3.97413 18.65778,-6.45801 1.7296,-2.48382 2.50204,-9.306 0.29404,-12.98215 -0.552,-0.91903 -2.35487,-1.27329 -4.74907,-1.28726 z m -51.11316,11.15643 -13.54232,14.00897 c 1.7664,4.8021 2.02479,9.9025 8.57519,9.3395 6.55029,-0.563 9.71467,-2.5835 10.78177,-7.3525 1.0672,-4.76911 -5.81464,-15.99597 -5.81464,-15.99597 z m 32.13964,17.71827 c -2.95731,-0.1313 -6.90424,0.797 -9.63042,0.8284 -1.21159,0.014 -2.27234,0.1776 -3.04994,0.5369 -3.1105,1.4375 -2.52249,7.1269 -5.64978,8.7762 -3.1273,1.6494 -4.36926,6.1827 -2.26756,7.6807 -0.31714,5.3914 -3.25246,2.5893 -4.3801,12.5977 -0.5196,6.5467 7.47904,8.7109 10.33684,13.5252 9.43329,7.3143 15.23897,12.4213 21.76663,18.3173 1.288,2.9475 26.75399,8.0812 31.75878,5.4317 5.0047,-2.6495 16.1548,-13.2145 17.8108,-20.898 1.656,-7.6834 1.43481,-25.2362 -9.08988,-32.754 -3.6179,-2.5843 -8.03112,-3.458 -12.26592,-3.4923 -13.59829,-1.7378 -26.72262,0.6947 -32.79386,-9.9927 -0.6841,-0.3518 -1.55981,-0.5133 -2.54559,-0.5571 z m 56.43635,72.3134 c -17.37965,6.84201 -28.42374,8.08905 -39.92262,22.624 -2.4315,4.1965 -1.0328,27.7869 -1.7322,34.5312 -0.6995,6.7443 -6.02866,22.5113 -1.59887,22.4514 4.4298,-0.06 15.25489,-7.5836 15.25489,-7.5836 0.7174,5.75007 2.60679,6.83933 -1.3193,23.4513 -12.12188,1.83785 -31.43322,11.40176 -42.98188,18.545 0.1774,0.1626 0.40391,0.3372 0.6258,0.5105 -2.27809,0.3053 -6.059,0.8722 -6.8156,1.4113 -1.0869,0.7744 -1.67504,1.2772 -1.08624,6.0865 0.17515,4.29009 1.49807,5.24285 -1.53789,7.7673 -4.21179,2.6594 -15.08656,12.8534 -16.80156,14.4684 -0.059,-0.097 -0.14788,-0.217 -0.19068,-0.3018 0,0 -12.06844,3.5761 -11.56054,10.2438 0.3811,5.0041 5.25401,4.1633 9.001,5.6482 -0.5865,0.1229 -1.13972,0.3106 -1.55442,0.5152 -1.6456,0.8121 -17.46427,24.1724 -18.68517,25.6295 0,0 0.3063,0.2697 0.339,0.2987 -1.8004,-0.01 -7.61665,0.1791 -10.11825,3.1155 -2.96939,3.4858 -0.4388,6.2278 4.1057,9.5044 10.29504,9.90557 -9.08464,23.44121 -17.4835,32.49268 0,0 -4.80045,2.43442 -5.57505,7.75602 -0.77459,5.3215 4.44149,5.7633 11.36159,8.0868 6.92009,2.3238 4.13127,8.8999 10.74146,10.666 6.61019,1.7661 7.97954,2.324 8.23774,9.1328 0.2582,6.8088 8.90791,2.3702 12.6261,1.65 3.7183,-0.7204 5.93878,7.3664 11.85147,10.8986 5.9132,3.5322 7.7728,-2.4633 9.5803,2.6024 1.8075,5.066 5.73252,6.4837 12.00702,2.9978 6.27449,-3.4856 9.24389,-0.6738 14.04668,3.3698 4.8027,4.0434 11.8518,-4.3688 16.24139,-4.5548 4.3895,-0.1857 3.51185,8.1333 6.40374,10.341 2.892,2.2077 6.97167,-5.461 10.12187,-4.485 3.15009,0.9761 9.94101,4.7408 13.1687,-0.3948 3.2276,-5.1355 9.94087,-5.0428 15.95717,-0.9762 6.01629,4.0666 7.38524,-1.7662 10.71614,-5.2518 3.3309,-3.4859 4.82841,-0.3949 9.1922,2.6262 4.3637,3.0206 8.72706,0.6967 10.94766,-2.4867 2.22059,-3.1837 6.71346,-0.395 10.12186,1.65 3.4084,2.0449 7.4369,-4.4619 10.0707,-5.3914 2.6337,-0.9295 6.04231,1.9752 7.3334,1.464 1.2911,-0.5114 10.1213,-6.2049 12.4194,-6.1118 2.2981,0.093 7.6433,2.0448 8.9085,-1.3942 1.2652,-3.4393 6.58451,-5.0892 6.37791,-7.227 -10.46413,-6.16867 -16.42023,-13.46888 -16.73128,-36.7207 2.8957,-0.1495 7.90571,-5.1855 7.97781,-10.1043 0.078,-5.2751 -6.79132,-6.6694 -6.79132,-6.6694 2.50463,2.4702 -4.97952,-8.39771 -0.22221,-1.5895 l -7.81295,-10.23728 c -3.83692,-5.7952 -11.96614,-5.02104 -6.80786,-10.20542 1.7029,-2.2047 3.64477,-2.9305 6.81147,-2.9843 3.16659,-0.054 5.01853,-5.6728 2.56883,-9.1948 -14.48449,-12.23439 -18.94848,-29.71157 -20.6654,-45.5233 l -23.66161,-35.1384 c -2.53227,1.26776 -4.88527,-0.90143 -0.85731,-1.8934 1.0303,-1.4904 10.56171,-34.2449 8.28012,-54.3146 -8.09836,-32.08591 -20.63855,-45.32746 -30.88391,-41.8018 z" fill="#FFFFFF" paint-order="markers stroke fill" transform="translate(67.575392,-70.24944) translate(443.29378,-429.89924)"/>
    <path d="m -397.65925,500.14874 c -2.60835,4.4e-4 -5.39475,3.40341 -5.77432,7.05228 -0.3556,3.41538 -0.96061,3.91874 -5.40071,4.4881 -7.32775,0.93939 -10.28246,5.48672 -10.21746,15.72255 0.1313,20.56159 8.02748,29.7123 20.17293,23.37791 2.02,-1.05355 4.76068,-1.91565 6.09058,-1.91565 3.9146,0 7.54683,-4.62834 7.54683,-9.61647 0,-2.46839 0.57054,-4.48809 1.26814,-4.48809 3.21037,0 14.3322,5.17885 21.3341,9.93427 15.5487,10.55903 22.28696,21.80308 23.25646,38.81107 0.5758,10.09664 0.25855,12.02565 -4.11965,25.01449 -4.47495,13.27567 -5.01152,14.1949 -9.45782,16.20315 -2.5926,1.17085 -6.53492,2.50323 -8.76122,2.96054 -2.2262,0.45751 -7.34512,2.81702 -11.37502,5.24361 -4.02995,2.42666 -8.29862,4.41265 -9.48572,4.41265 -2.3327,0 -11.66008,5.65089 -16.64033,10.08104 -5.0351,4.47938 -20.77048,2.7546 -33.40313,-3.66179 -9.29275,-4.71989 -13.03172,-8.85563 -18.55649,-20.52382 -7.31878,-15.45701 -10.00611,-28.32244 -9.50071,-45.48507 0.2361,-8.01544 0.85878,-15.00145 1.38338,-15.52412 0.5246,-0.52253 2.01217,0.008 3.30625,1.17874 4.6559,4.21369 14.42457,1.73835 17.63407,-4.46795 2.711,-5.24267 2.25153,-9.32532 -1.96835,-17.48162 -4.40057,-8.50581 -9.11825,-12.36604 -14.91124,-12.20184 -3.5415,0.10038 -4.20718,-0.39417 -4.84828,-3.59978 -1.3307,-6.65291 -8.50078,-4.09064 -8.50078,3.03806 0,2.90031 -0.4739,3.53616 -2.2443,3.01015 -6.6106,-1.96379 -8.84603,-2.04516 -11.08821,-0.40359 -4.1684,3.05123 -1.82497,8.20839 4.50411,9.91257 2.8877,0.77717 6.05505,1.10504 7.03885,0.72761 2.6134,-1.00278 2.18515,0.88858 -0.77515,3.42356 -3.20608,2.74483 -3.26681,6.19833 -0.17621,10.01489 2.16838,2.67778 2.32941,4.78851 1.75131,22.90455 -0.5522,17.30532 -0.28507,21.34462 2.01021,30.4214 3.1202,12.33863 10.13705,28.08968 15.56805,34.9467 6.90649,8.72025 31.30789,18.87656 43.99679,18.31258 4.512,-0.20054 4.4345,0.60408 -0.55345,5.75055 -4.5946,4.7403 -4.09644,6.98116 0.83406,3.75068 4.24495,-2.78157 4.05334,-1.30544 -0.63666,4.89272 -5.39965,7.13644 -4.76627,9.97347 1.02268,4.58009 3.2731,-3.04923 4.14187,-3.19743 4.14187,-0.70642 0,1.02178 -2.01929,3.39862 -4.48759,5.28133 -6.81295,5.19649 -5.71297,7.04358 2.2438,3.76773 1.56218,-0.64311 2.24379,-0.32688 2.24379,1.03973 0,1.81239 -1.34461,3.09834 -10.25778,9.81077 -2.82485,2.12778 -2.94362,2.5165 -0.99942,3.2737 1.3583,0.52896 3.52817,-0.18118 5.64514,-1.8464 3.93358,-3.09416 4.50538,-2.97495 3.53518,0.73484 -0.3814,1.45809 -2.95515,3.92196 -5.71955,5.47564 -8.17005,4.59183 -6.01997,6.49937 3.51038,3.11453 1.5852,-0.56294 0.99106,0.61613 -1.80454,3.5817 -2.2921,2.43167 -4.16719,4.82618 -4.16719,5.32164 0,2.11026 5.49529,0.65082 8.36849,-2.22209 3.12985,-3.12991 5.10288,-2.62511 3.72948,0.95395 -0.8376,2.18272 0.88698,3.7134 2.70888,2.4045 0.6716,-0.48227 3.49871,-3.70926 6.28231,-7.17114 5.90805,-7.34742 7.14207,-6.18921 3.19102,2.99517 -2.6224,6.09586 -3.08983,6.50753 -7.44813,6.53293 -5.81145,0.0352 -12.53552,3.05383 -23.46007,10.53321 -4.68105,3.20468 -10.73082,6.54269 -13.44362,7.41712 -6.65605,2.14503 -8.13749,3.52297 -8.13749,7.56698 0,1.88827 0.72109,4.1742 1.60249,5.07979 2.1931,2.25264 -6.8347,10.26702 -19.23345,17.07441 -5.113,2.80718 -9.1107,5.83578 -9.4325,6.59133 -2.6024,6.11007 0.63796,9.50948 3.49126,12.0742 2.7253,2.4495 2.90312,3.01479 1.15962,3.68401 -1.1329,0.43477 -3.17041,2.96801 -4.52841,5.62963 -2.6369,5.16878 -6.03648,8.23729 -15.61196,14.09113 -13.51998,8.26508 -12.81345,15.11775 2.03811,19.80345 2.2225,0.70126 2.25397,0.91041 0.35037,2.33784 -1.1497,0.86215 -4.84467,5.60644 -8.21087,10.54302 -4.62678,6.7853 -7.52833,9.64682 -11.89023,11.72487 -3.1736,1.51208 -6.49149,3.41022 -7.37319,4.21783 -3.098,2.83894 -1.31258,13.05635 2.75642,15.7732 0.7758,0.5181 3.01587,0.94749 4.97747,0.96169 3.2684,0.0181 3.54124,0.39327 3.26854,4.44263 -0.4246,6.30557 3.2517,10.05999 9.1674,9.36428 2.48228,-0.29177 5.37901,-0.77272 6.43681,-1.06815 1.4427,-0.40342 2.0836,0.89611 2.5647,5.20175 0.4851,4.34327 1.3595,6.09596 3.59358,7.20421 2.9324,1.45454 2.90115,1.52905 -4.57853,10.94145 -4.14188,5.21192 -9.74979,11.25676 -12.46229,13.43278 -5.56538,4.47024 -5.56214,8.20156 0.014,8.20156 5.08628,0 9.62147,-2.90689 17.30437,-11.09544 3.86908,-4.12325 8.46169,-7.7884 10.20557,-8.14473 1.7441,-0.35622 3.77609,-1.86113 4.51549,-3.34398 1.2429,-2.49307 1.56484,-2.54955 4.27312,-0.75137 2.6331,1.74802 3.37879,1.72973 7.3887,-0.18242 5.12584,-3.02906 5.43616,-1.46924 6.78253,2.98948 1.0877,3.63011 2.4101,5.33689 4.5527,5.87458 3.01055,0.75558 10.06117,-2.04041 11.65717,-4.62246 0.4957,-0.80216 2.8823,0.51084 5.9247,3.25923 5.69405,5.14453 7.76095,5.11288 14.89315,-0.23047 4.66915,-3.49842 6.72362,-3.03861 6.72362,1.50481 0,3.09144 4.19116,7.0497 7.46466,7.0497 0.9704,0 3.59088,-1.65988 5.48493,-3.9827 4.92913,-6.04488 7.21588,2.48256 13.44208,2.70009 1.18528,0.0414 4.10029,-2.06107 6.47609,-4.58008 3.58843,-4.07501 3.55299,-5.18318 7.6972,-1.9234 6.073,4.77706 13.39496,2.33423 16.24966,-5.42137 0.4203,-1.14355 0.96258,-1.16802 2.10478,-0.0977 1.197,1.12165 1.18677,3.23161 -0.0434,9.48521 -1.443,7.33443 -1.37936,8.19073 0.72244,9.72757 2.69635,1.97172 7.07915,0.2701 7.07915,-2.74867 0,-2.48777 0.83189,-2.3734 5.16144,0.70952 1.9988,1.42305 6.12695,4.01274 9.1736,5.75469 l -0.007,10e-4 c 8.95045,5.11703 15.95788,3.55693 14.93448,-3.32486 -0.3016,-2.02642 -3.18601,-4.29634 -10.27379,-8.08478 -5.41977,-2.89699 -10.22005,-5.64367 -10.66705,-6.10402 -0.9303,-0.95765 2.04709,-6.21564 3.51969,-6.21564 0.53549,0 2.1281,1.15431 3.53828,2.5647 3.3688,3.36858 5.41763,3.23488 10.04022,-0.65474 3.17976,-2.67565 4.38583,-3.00663 7.13961,-1.95957 4.1762,1.58766 7.06777,0.62059 10.62984,-3.55585 2.49848,-2.92936 3.17177,-3.12265 6.15053,-1.76527 5.0561,2.30369 7.90769,1.8551 10.68927,-1.68155 1.387,-1.76296 3.17222,-3.20549 3.9672,-3.20549 0.7953,0 2.11074,-1.45914 2.92334,-3.2427 1.2363,-2.7135 1.06002,-3.81216 -1.08056,-6.73189 -1.407,-1.91892 -4.4281,-4.33013 -6.7138,-5.35781 -2.92958,-1.31722 -3.98212,-2.53308 -3.56722,-4.12016 0.324,-1.23834 -0.21731,-2.92027 -1.20251,-3.73776 -1.0544,-0.87513 -1.79623,-3.92669 -1.81023,-7.42022 -0.0108,-3.26355 -0.54964,-6.77126 -1.19734,-7.79487 -0.8646,-1.36655 0.0169,-2.90002 3.31659,-5.77019 3.3606,-2.92308 4.66903,-5.23885 5.18883,-9.18239 0.64688,-4.90916 0.36888,-5.52216 -4.02869,-8.87646 -2.5982,-1.98154 -6.47157,-6.14338 -8.60775,-9.24853 -2.13627,-3.10481 -5.70207,-6.75398 -7.92354,-8.10855 -4.1679,-2.542 -3.89197,-2.90018 1.93838,-2.52336 3.6053,0.23323 4.0326,-0.47202 5.4684,-9.02839 0.6375,-3.79849 0.0884,-5.53367 -3.17707,-10.04176 -2.17138,-2.99736 -5.13721,-8.55776 -6.59081,-12.35635 -1.45368,-3.79849 -4.61114,-9.20635 -7.01714,-12.01684 -3.7794,-4.41545 -4.16123,-5.45215 -2.80655,-7.62124 1.2139,-1.94361 1.23127,-3.6374 0.0734,-7.5029 -2.2767,-7.5986 -13.8115,-26.06636 -19.58485,-31.35571 l -5.13457,-4.70514 2.6448,-7.8512 c 5.88074,-17.45708 8.68056,-40.29565 6.45077,-52.62108 -1.93959,-10.72232 -7.46864,-23.88978 -12.83281,-30.56454 l -4.22093,-5.25394 2.24069,-8.05636 c 1.23248,-4.43086 3.62082,-12.19706 5.30872,-17.25786 5.19395,-15.57426 3.50961,-34.48123 -4.26434,-47.85806 -8.37237,-14.40757 -30.98366,-30.53025 -45.96877,-32.77733 -3.76841,-0.56521 -6.11265,-1.63164 -6.51795,-2.96571 -0.3481,-1.14567 -1.48693,-4.04268 -2.53111,-6.43785 -1.33,-3.05103 -1.49282,-4.75966 -0.54622,-5.70611 1.84008,-1.84009 1.7135,-7.24917 -0.1695,-7.24917 -0.8361,0 -2.86272,1.26097 -4.5036,2.80241 l -2.98328,2.80293 0.81752,-4.08502 c 0.45158,-2.25833 0.28031,-4.0841 -0.38137,-4.08502 z m 5.3945,33.65738 c 0.31005,-0.0168 0.67488,0.16384 1.08108,0.56999 0.45077,0.45082 0.8201,2.1324 0.8201,3.7362 0,4.48313 -2.20503,4.81867 -2.8484,0.43357 -0.41985,-2.86002 0.0171,-4.6893 0.94722,-4.73976 z m -10.54871,0.27647 c 0.55835,0.0235 1.39496,0.50282 2.84273,1.45159 3.56838,2.33787 3.40662,6.19204 -0.38448,9.17205 v -5.2e-4 c -2.2389,1.75978 -7.49423,2.16363 -8.34833,0.6413 -0.29668,-0.52906 -0.91874,-2.54856 -1.38234,-4.48809 -0.7421,-3.10494 -0.47341,-3.52589 2.24999,-3.52589 1.7011,0 3.43305,-0.88587 3.84835,-1.96835 0.3353,-0.87366 0.61575,-1.30561 1.17408,-1.28209 z m -41.70081,19.40605 c 2.58208,-0.0513 1.90521,2.63534 -1.79989,5.54953 -4.029,3.16927 -4.79085,3.2505 -6.87968,0.73432 -1.3039,-1.57124 -1.22666,-1.9234 0.42064,-1.9234 1.1093,0 2.47844,-0.7734 3.04219,-1.71875 0.5639,-0.94547 2.32366,-2.04567 3.91036,-2.44482 0.50257,-0.12638 0.93751,-0.18956 1.30638,-0.19688 z m 22.68544,0.11937 c -2.94652,-0.0732 -6.3544,3.21073 -12.09177,10.87789 -3.8342,5.12372 -4.95249,11.70421 -2.14819,12.63902 1.0488,0.34963 0.4009,1.93096 -1.9234,4.69325 -4.17087,4.9568 -4.39783,7.2362 -0.93586,9.3984 2.5498,1.59234 2.54785,1.62078 -0.25735,3.73672 -2.46957,1.86261 -2.60065,2.40447 -1.03818,4.28708 1.2308,1.48383 2.90984,1.93042 5.38624,1.43505 1.9788,-0.3956 3.59771,-0.15686 3.59771,0.53072 0,0.68768 -1.11253,1.25005 -2.47271,1.25005 -3.41769,0 -6.50297,3.40819 -6.50297,7.18406 0,4.08358 3.25604,5.28822 6.45904,2.38952 1.3841,-1.25267 2.51664,-1.87932 2.51664,-1.39268 0,0.48674 1.15432,0.26756 2.5647,-0.48731 3.7694,-2.01717 3.14128,-0.46695 -1.92339,4.74803 -4.7758,4.9173 -5.83632,9.84666 -2.40192,11.16469 2.21907,0.85149 5.60741,-1.2349 5.60741,-3.45354 0,-1.48597 7.58466,-8.61239 9.16636,-8.61239 1.6151,0 -0.206,3.57787 -2.2133,4.34806 -1.0034,0.38505 -1.82418,1.394 -1.82418,2.24224 0,0.84814 -0.9571,2.59962 -2.127,3.89226 -1.7528,1.93701 -1.86282,2.92895 -0.62683,5.64204 2.07488,4.55336 5.44006,3.52803 8.29045,-2.52543 1.71138,-3.63455 2.71482,-4.57828 3.75842,-3.53467 1.0435,1.04361 0.96835,2.27525 -0.28215,4.61161 -1.3836,2.58601 -1.39732,3.55911 -0.0729,5.15472 h -5.1e-4 c 2.85869,3.44442 6.53407,1.94968 7.27707,-2.95899 0.4333,-2.86228 1.11436,-2.89564 6.98666,-0.34675 6.28445,2.57381 12.19566,2.45639 19.3983,0.56947 13.94366,-3.87266 24.41645,-14.07677 26.98905,-29.0499 0.83926,-4.88453 -0.076,-9.10487 -0.076,-9.10487 5.31519,-2.13085 3.14572,-7.28503 -0.82785,-6.91431 -4.96633,-10.4684 -7.45141,-16.16637 -17.75034,-21.27725 -9.65177,-4.67882 -23.62838,-6.61415 -29.63695,-4.10363 -2.5465,1.06421 -4.63021,1.42813 -4.63021,0.80925 0,-2.61788 -4.30784,-5.31719 -7.29051,-4.56871 -1.9308,0.48461 -3.80437,0.042 -5.03587,-1.18959 -1.324,-1.32401 -2.56845,-2.05084 -3.90777,-2.08411 z m -1.18184,7.45536 c 0.72288,-0.0106 1.46229,0.31886 2.08463,1.06867 1.09288,1.31657 2.75298,1.75165 4.76198,1.24747 2.48149,-0.62273 2.99815,-0.32574 2.64635,1.52032 -0.2555,1.33984 -1.76547,2.44391 -3.62975,2.65358 -6.72919,0.7567 -8.8192,1.65563 -9.6051,4.13205 -0.8319,2.62083 -1.36806,2.84109 -4.16616,1.71204 -2.54728,-1.02778 -1.87158,-2.9298 1.60301,-4.5129 1.76298,-0.80318 3.20549,-2.45135 3.20549,-3.66231 0,-2.46571 1.50919,-4.13561 3.09955,-4.15892 z m 26.62008,8.0548 c 1.1126,0 2.7409,0.86516 3.6189,1.92288 2.0194,2.43316 5.64114,2.47264 7.62434,0.0832 1.316,-1.58576 2.54084,-1.87329 7.53029,0.72399 4.09081,2.12948 12.07419,7.73791 14.11387,13.06845 1.0827,3.10603 1.6123,3.78478 1.6123,3.78478 -5.7299,1.44546 -3.46686,6.1461 1.13275,5.75366 0.15325,0.0603 0.24851,6.66195 -2.12442,11.89953 -2.37164,5.2346 -10.88277,8.30322 -17.71623,5.18986 -1.7993,-0.82003 -3.6508,-1.11078 -4.115,-0.64647 -1.61856,1.61854 5.29735,6.99605 12.86382,7.2347 -7.77389,7.65968 -20.93064,6.92659 -28.236,1.52084 -3.6425,-2.77814 -3.98427,-3.51452 -2.63498,-5.67511 2.04018,-3.2669 -0.45697,-6.36609 -3.25717,-4.04213 -0.9762,0.81019 -2.15496,1.09342 -2.61896,0.62942 -1.4531,-1.45332 -0.92314,-2.98069 1.03456,-2.98069 2.7258,0 4.77579,-4.62074 4.45399,-10.04022 -0.4411,-7.43025 -0.0571,-9.19375 2.00246,-9.19375 2.6034,0 2.43011,-3.70676 -0.32039,-6.85126 -1.2342,-1.41099 -1.51772,-2.14 -0.62994,-1.62058 0.8877,0.51972 2.76319,0.5799 4.16719,0.13436 2.9083,-0.92324 3.54801,-6.82339 1.01441,-9.35705 -1.1967,-1.19665 -1.08899,-1.53841 0.48421,-1.53841 z m -12.09435,2.83342 c 0.48039,-0.0259 0.3002,0.87087 -0.45217,2.83135 -0.4282,1.11556 -1.2937,2.0283 -1.9234,2.0283 -1.7736,0 -1.35345,-2.07775 0.77825,-3.84679 0.78285,-0.64977 1.30909,-0.9973 1.59732,-1.01286 z m -11.54659,1.30535 c 0.0902,-0.007 0.1809,-0.007 0.27182,0.003 0.48494,0.0524 0.972,0.35825 1.37563,0.99735 0.6642,1.05203 1.03674,2.45397 0.82786,3.11506 v 10e-4 c -0.6914,2.18682 -3.41012,2.2511 -4.23592,0.0992 -0.80811,-2.10587 0.40689,-4.10372 1.76061,-4.21576 z m -7.08018,5.78724 v 5.2e-4 c 1.16257,0.0314 2.22261,0.74784 3.96461,2.36316 1.8347,1.70125 4.2553,3.09335 5.379,3.09335 2.5308,0 9.6146,3.57733 9.5896,4.84157 -0.0106,0.5108 -0.56387,1.78934 -1.22887,2.84117 -0.9631,1.52333 -1.53348,1.58871 -2.80138,0.32091 -2.0677,-2.06439 -5.30759,-2.05707 -4.56509,0.014 0.31599,0.88153 0.0555,2.6127 -0.5793,3.8468 v -0.004 c -0.7459,1.45016 -2.65003,2.24379 -5.38313,2.24379 -5.81258,0 -6.73478,-1.43557 -2.15801,-3.36 4.8935,-2.05747 6.67721,-7.77191 3.21583,-10.30273 -3.36499,-2.46079 -7.51328,-2.13024 -10.17458,0.81029 -1.2613,1.39384 -2.78677,2.22898 -3.38997,1.85621 -1.608,-0.99388 2.27592,-6.34019 5.75882,-7.92716 0.94039,-0.42842 1.67492,-0.65651 2.37247,-0.63769 z m 54.6039,0.84181 c -2.44916,0.1806 -4.79832,2.33259 -3.12746,5.75572 0.7454,1.94229 3.21702,2.89303 3.12332,0 -0.0979,-3.02275 2.713,-2.54591 3.9269,-2.09806 2.89501,1.06841 0.52892,-3.20897 -2.87838,-3.61218 -0.34253,-0.0567 -0.6945,-0.0713 -1.04438,-0.0455 z m -9.57461,6.79132 c -0.37469,0.0237 -0.73051,0.0936 -1.05368,0.21756 -2.2686,0.87055 -3.97991,6.0309 -2.69131,8.11578 1.2739,2.06121 3.37269,1.66381 3.49436,-0.88625 0.0707,-1.48169 0.70574,-3.47279 2.86856,-2.24431 1.16542,0.66196 2.66585,-0.68381 2.94555,-1.51774 0.58616,-1.74611 -2.94061,-3.85082 -5.56348,-3.68504 z m -43.70741,1.69395 c 1.2342,-0.0108 2.24379,0.55732 2.24379,1.26246 0,1.56384 -0.1443,1.56384 -2.56418,0 -1.64359,-1.06237 -1.59721,-1.24826 0.32039,-1.26246 z m 74.9055,42.67233 c 0.48222,-0.0141 0.87502,0.071 1.06247,0.25838 0.3748,0.375 -0.46553,5.97372 -1.86758,12.44214 v 5.2e-4 c -2.589,11.94331 -5.08525,17.72026 -3.60805,8.34987 0.4445,-2.82075 0.80869,-8.4652 0.82269,-12.54238 0.0104,-5.48918 0.52754,-7.60976 1.99264,-8.17211 0.5441,-0.20899 1.11564,-0.3223 1.59783,-0.33642 z m -11.20035,2.81172 c 1.18123,0.0785 1.03532,1.8613 0.41755,8.85062 -1.0987,12.42956 -1.78075,13.44019 -5.45445,8.07909 -1.6555,-2.41592 -4.36255,-5.85258 -6.01565,-7.63622 l -3.00602,-3.24322 4.75062,-2.39623 c 2.61255,-1.31813 6.05646,-2.80064 7.65276,-3.29438 0.72035,-0.22277 1.26147,-0.38583 1.65519,-0.35966 z m 18.47278,5.32112 c 0.51306,0.0317 1.27868,0.5401 1.94768,1.34617 1.8498,2.22886 1.49511,2.4391 -1.21904,0.72244 -1.0377,-0.65602 -1.55274,-1.52659 -1.14464,-1.93477 0.10198,-0.102 0.24498,-0.14442 0.416,-0.13384 z m -39.85028,3.93826 c 0.29772,0.003 0.51372,0.0719 0.61805,0.22273 0.4483,0.64808 3.34795,4.48566 6.44405,8.52764 3.0961,4.04186 5.4044,7.56405 5.1294,7.82691 -0.7048,0.67266 -20.3755,-10.83933 -20.3755,-11.92433 0,-1.42332 6.09993,-4.67164 8.184,-4.65295 z m 38.20593,1.0418 c 0.40204,0.01 1.11352,0.42005 2.17507,1.38079 1.32215,1.19645 3.17237,2.00716 4.11137,1.80144 2.5481,-0.55819 8.68245,17.88064 9.13485,27.45827 0.5028,9.55521 -0.86426,20.62622 -2.2469,28.12439 -3.07855,16.63936 -3.92438,18.47923 -10.49393,22.83064 -2.10224,1.39252 -3.74368,2.35089 -5.04982,2.97502 -4.08984,2.1592 -9.43058,2.17908 -13.42502,2.13578 -8.14115,-0.0891 -19.58667,-2.78772 -20.91087,-4.93045 -0.3846,-0.62243 0.43943,-3.64273 1.83193,-6.71121 3.9202,-8.63898 3.27459,-16.2512 -3.23856,-38.18734 -3.2046,-10.79295 -5.57993,-20.27803 -5.27823,-21.07675 0.643,-1.70196 1.40387,0.0545 3.39772,7.84449 0.8873,3.46622 2.11821,5.44979 3.38171,5.44979 1.6252,0 1.81982,-0.98672 1.07074,-5.42086 -0.82947,-4.9104 -0.71987,-5.25738 1.16943,-3.68969 1.1867,0.98505 2.08566,3.63314 2.08566,6.14587 0,5.43378 1.97891,9.37566 4.70721,9.37566 1.6984,0 1.91444,-1.00713 1.25264,-5.83634 -0.5088,-3.71182 -0.33882,-5.55093 0.46663,-5.05292 0.6968,0.43051 1.26711,3.63353 1.26711,7.11791 0,4.61131 0.49423,6.33553 1.81643,6.33553 0.999,0 2.1069,-0.72105 2.4629,-1.60248 0.3555,-0.88163 0.69227,0.82235 0.74827,3.78633 0.167,8.88161 3.69763,14.20293 8.26203,12.45144 1.921,-0.73731 4.66173,-5.98463 4.66173,-8.92556 0,-2.43246 1.82557,-2.37527 3.89795,0.12196 0.9062,1.09178 2.85219,1.81298 4.32429,1.603 2.10087,-0.30041 2.76426,-1.45211 3.08456,-5.35574 0.2243,-2.73529 -0.28339,-6.64182 -1.12809,-8.68113 -1.4567,-3.51646 -7.17108,-9.27795 -10.20506,-10.28929 -1.42177,-0.47382 -0.39866,-4.90668 1.13274,-4.90668 0.4576,0 1.59803,1.73067 2.53473,3.84628 1.8193,4.11046 5.33404,5.24657 5.33404,1.72444 0,-1.16773 -1.47107,-4.0527 -3.26957,-6.41046 -2.32385,-3.04719 -2.93818,-4.87969 -2.12338,-6.33605 0.949,-1.69547 1.61401,-1.257 3.85661,2.54403 1.8414,3.12087 3.34357,4.34964 4.68757,3.83388 3.0973,-1.18853 2.33348,-4.79348 -1.86862,-8.8191 -3.24718,-3.11114 -4.82384,-6.68422 -3.61787,-6.65489 z m -51.51881,17.55448 c 0.70505,0 1.28209,1.66943 1.28209,3.70985 0,2.04043 1.72989,10.55137 3.84369,18.91306 2.1139,8.36183 3.84628,15.81769 3.84628,16.5685 0.002,0.75078 -2.03551,2.33747 -4.52737,3.52588 -6.0539,2.88669 -7.42473,2.73668 -6.59185,-0.72399 2.7863,-11.57543 3.42055,-19.31798 2.19935,-26.84435 -1.6663,-10.26238 -1.68277,-15.14895 -0.0522,-15.14895 z m 59.24289,5.34283 c -1.89851,0.0669 -3.2465,1.96489 -2.35903,4.27777 0.4945,1.2891 1.92162,1.94068 3.69642,1.68879 3.42545,-0.48633 3.79658,-3.40623 0.68213,-5.37073 -0.69285,-0.43711 -1.38668,-0.61812 -2.01952,-0.59583 z m -27.18697,4.91494 c 0.7055,0 1.28261,1.11986 1.28261,2.48874 0,1.36875 -0.57711,2.84555 -1.28261,3.28145 -0.7271,0.44939 -1.28209,-0.62775 -1.28209,-2.48873 0,-1.80457 0.57709,-3.28146 1.28209,-3.28146 z m 7.0745,4.55838 c 0.0773,0.007 0.16523,0.30006 0.25735,0.90899 0.2943,1.94909 0.28653,4.83405 -0.0181,6.41098 -0.3043,1.57712 -0.54937,-0.0178 -0.53537,-3.54397 0.007,-2.42408 0.1261,-3.79144 0.2961,-3.776 z m -20.94239,2.58589 c -1.0578,0 -2.80086,1.81233 -2.80086,2.87011 0,1.05782 0.8656,2.8081 1.9234,2.8081 1.0578,0 3.15647,0.36003 3.37343,-2.32079 0.20617,-2.54753 -1.43817,-3.35742 -2.49597,-3.35742 z m 45.92433,3.72174 c -1.9803,0.0201 -3.20549,0.76824 -3.20549,1.95647 0,1.16973 1.13,1.88197 2.8851,1.82107 1.4274,0.10772 2.22071,-0.84547 2.30063,-1.82107 0.0799,-0.97561 -0.55353,-1.97366 -1.98024,-1.95647 z m -36.65978,1.95647 c -2.61645,0 -3.85675,3.86228 -1.6738,5.21208 1.124,0.69479 2.44217,0.45383 3.54397,-0.6475 1.9973,-1.99648 0.94523,-4.56458 -1.87017,-4.56458 z m -1.18442,9.17773 c -0.77003,-0.0321 -1.5511,0.21323 -2.16163,0.82372 -0.75148,0.75142 -1.00313,2.31331 -0.55913,3.47059 1.02635,2.6749 5.13544,1.96299 5.70404,-0.98857 0.35076,-1.82164 -1.28922,-3.23518 -2.98328,-3.30574 z m 30.99191,3.79925 c -1.61472,-0.0794 -2.12339,0.5631 -2.12339,2.41019 0,2.11104 0.6647,2.64831 2.8851,2.33319 1.5867,-0.2254 2.88509,-1.2754 2.88509,-2.33319 0,-1.05771 -1.29839,-2.1083 -2.88509,-2.33371 -0.27755,-0.0394 -0.53104,-0.0651 -0.76171,-0.0765 z m -11.95173,0.47697 c -0.6132,-0.0173 -1.28178,0.35025 -2.29908,1.094 -1.4683,1.07394 -2.08122,2.56541 -1.58492,3.85919 1.0196,2.65603 3.92,2.71393 6.0725,0.12041 1.3538,-1.63163 1.31419,-2.32297 -0.22221,-3.8592 -0.7953,-0.79506 -1.35309,-1.19708 -1.96629,-1.2144 z m -16.10703,8.72299 c -0.8018,0.0521 -1.76893,0.58134 -2.81068,1.62315 -1.6694,1.66928 -1.79324,2.50584 -0.58704,3.95893 2.2812,2.74882 5.61154,1.54719 5.61154,-2.02468 0,-2.40451 -0.87747,-3.64414 -2.21382,-3.5574 z m 27.29291,6.0327 c -2.8178,0 -4.4646,1.93078 -3.28093,3.84628 1.47788,2.39114 5.77019,1.4376 5.77019,-1.28209 0,-1.68356 -0.85526,-2.56419 -2.48926,-2.56419 z m -15.90342,1.43661 c -1.61477,-0.0796 -2.12338,0.56258 -2.12338,2.40967 0,2.11093 0.66459,2.64852 2.88509,2.33319 1.5868,-0.22541 2.8851,-1.2754 2.8851,-2.33319 0,-1.05792 -1.2983,-2.10747 -2.8851,-2.33267 -0.27756,-0.0394 -0.53103,-0.0656 -0.76171,-0.077 z m -12.6721,5.25497 c -2.38179,-0.12361 -4.77708,2.23244 -3.95738,4.36821 0.9818,2.55863 6.03646,1.69176 6.57376,-1.12706 0.2357,-1.23633 -0.4871,-2.59874 -1.6061,-3.02824 -0.33033,-0.12675 -0.67,-0.19525 -1.01028,-0.21291 z m 15.0301,3.85403 c -0.8694,0.0357 -1.82366,0.38465 -2.70578,1.11673 -1.8385,1.52564 -1.85631,2.04284 0.79943,3.99045 0.94932,0.6962 4.46503,-0.32143 4.74286,-1.53323 0.51145,-2.23077 -0.92358,-3.65244 -2.83651,-3.57395 z m -37.08043,4.24574 c 1.64847,0.0315 2.71674,0.91482 4.99505,3.1197 5.57188,5.39229 12.61146,8.29321 24.37525,8.71834 10.8993,0.39388 21.37748,-3.93378 26.48831,-6.11384 1.783,0 5.48933,4.88066 12.32224,15.78456 1.98261,3.16382 4.73155,6.92547 6.20066,11.14299 1.24554,3.57566 -14.69887,2.64872 -18.94872,2.56987 -3.03775,-0.0661 -8.1168,0.4736 -11.29388,1.16324 -6.48452,1.4076 -14.40528,1.39157 -20.08663,0.85111 -9.65564,-0.91844 -16.27061,-2.11234 -25.19019,-5.29735 -3.58962,-1.28178 -22.34124,-9.15849 -26.72654,-11.54193 -4.65085,-2.52828 -5.75427,-2.32051 -3.1228,0.58704 4.15538,4.59172 30.81945,16.77829 41.3861,18.91513 12.54035,2.53638 37.70872,2.50439 54.25612,-0.0682 6.93335,-1.07791 12.669,-1.41186 13.3134,-0.77566 1.7791,1.75717 -0.23537,5.50964 -2.49287,4.64313 -1.3158,-0.50491 -2.71044,0.52367 -4.15634,3.06441 -2.2305,3.91979 -6.23215,5.04214 -8.80515,2.4691 -2.06725,-2.06719 -10.45127,-0.0915 -11.32747,2.6696 l -5.2e-4,5.2e-4 c -1.16508,3.6706 -3.43378,3.74 -9.98853,0.30696 -5.6802,-2.9748 -6.28765,-3.05569 -8.42275,-1.12345 -2.93045,2.6522 -3.94183,2.58999 -7.86928,-0.48214 -3.8331,-2.99828 -9.33073,-3.30362 -11.54038,-0.6413 -2.5079,3.0219 -4.66049,2.28836 -7.52357,-2.56419 -2.24267,-3.80153 -3.35046,-4.4881 -7.24246,-4.4881 -2.52705,0 -6.34967,0.90748 -8.49457,2.01642 -3.5778,1.85013 -4.09577,1.83929 -6.27507,-0.13281 -1.3063,-1.18224 -2.74759,-3.84454 -3.20239,-5.91592 -0.7869,-3.58212 -1.11896,-3.74787 -6.79751,-3.39307 -5.9069,0.36891 -5.97712,0.32616 -6.6182,-4.01113 -0.58467,-3.9558 -1.20252,-4.51985 -6.32262,-5.77019 -7.67795,-1.87521 -7.83687,-3.89618 -0.46302,-5.89835 3.3756,-0.91632 9.93141,-4.39233 14.56811,-7.72407 10.00035,-7.18575 14.18989,-9.44135 21.02559,-11.31869 1.79329,-0.49254 2.99155,-0.78059 3.98063,-0.76171 z m -11.13317,5.95416 c -0.62377,0.0611 -1.20235,0.56224 -1.96267,1.31981 -1.1541,1.15423 -1.7493,3.00871 -1.3224,4.1212 0.427,1.11252 1.96638,2.02313 3.42098,2.02313 3.517,0 4.71998,-3.52278 2.09858,-6.14433 -0.94174,-1.00211 -1.61072,-1.38094 -2.23449,-1.31981 z m 14.41359,2.62774 c -2.86413,-0.2623 -5.53478,4.17468 -3.16466,6.54534 1.0407,1.04134 1.01645,1.04072 3.52795,0.077 2.18735,-0.83908 2.76896,-5.02363 0.86196,-6.20221 -0.40293,-0.24903 -0.81607,-0.38266 -1.22525,-0.42013 z m 51.13435,0.34779 c -1.0483,0 -2.11008,1.06205 -2.36006,2.36006 -0.33,1.71353 0.19212,2.23587 1.90582,1.90583 2.8059,-0.54043 3.20259,-4.26589 0.45424,-4.26589 z m -10.29601,1.89962 c -0.59932,0.0267 -1.28241,0.21252 -1.94769,0.47181 -1.82268,0.71041 -2.38417,1.89326 -1.46348,3.84938 1.2496,1.70144 2.56813,1.70997 4.37803,0.20773 1.1662,-0.96784 0.9168,-2.03759 0.86713,-2.93935 -0.0681,-1.2364 -0.83498,-1.63399 -1.83399,-1.58957 z m -30.1594,2.76624 c -0.74992,-0.0328 -1.50947,0.22471 -2.13269,0.84801 -0.7515,0.75152 -1.01941,2.27091 -0.59531,3.37602 1.1689,3.04598 5.98103,2.56684 5.98103,-0.59531 0,-2.07918 -1.60336,-3.55656 -3.25303,-3.62872 z m 14.27613,1.71049 c -0.50484,-0.0134 -1.04976,0.0757 -1.61076,0.29094 -1.8089,0.69406 -2.33857,4.46782 -0.83767,5.96863 1.2617,1.26171 3.20652,0.38203 4.79712,-2.1699 1.27367,-2.04333 -0.16121,-4.03164 -2.34869,-4.08967 z m -45.56828,1.95854 c -2.8178,0 -4.46525,1.9313 -3.28145,3.84679 1.47765,2.39114 5.77019,1.4376 5.77019,-1.28209 0,-1.68357 -0.85464,-2.5647 -2.48874,-2.5647 z m 13.9516,1.55184 c -1.53221,0.0479 -2.85773,2.04379 -2.0562,4.13257 0.4241,1.10529 1.38422,2.00918 2.13372,2.00918 2.07675,0 3.09402,-3.83024 1.45262,-5.47151 -0.4855,-0.48549 -1.0194,-0.68621 -1.53014,-0.67024 z m 61.5487,1.01286 c -2.2677,0 -4.20332,2.98676 -2.82722,4.36252 1.4326,1.43281 5.19098,0.77382 5.88388,-1.03146 0.8531,-2.22331 -0.16346,-3.33106 -3.05666,-3.33106 z m -14.4415,2.72283 c -1.56878,-0.0752 -2.15129,0.53098 -2.15129,2.10323 0,1.34208 0.40459,2.84478 0.89917,3.33933 1.701,1.70085 4.87103,0.1306 4.87103,-2.41277 0,-1.66502 -0.9991,-2.6891 -2.8851,-2.95693 -0.26559,-0.0377 -0.50967,-0.0621 -0.73381,-0.0729 z m -22.5025,2.40606 c -3.06908,0 -4.52564,1.93959 -3.48764,4.64416 1.0967,2.8582 5.17802,1.57975 5.65599,-1.77199 0.30798,-2.15795 -0.23125,-2.87217 -2.16835,-2.87217 z m -14.33814,2.59725 c -1.34041,-0.0464 -2.99648,0.65956 -3.76928,2.51509 -1.27034,3.05015 6.52544,5.97685 6.81922,1.49552 0.16453,-2.50974 -1.32656,-3.95091 -3.04994,-4.01061 z m 62.18173,0.36019 c -0.89782,-0.0208 -1.77769,0.30227 -2.52336,0.91725 -1.10599,0.91215 -0.85597,3.56931 -0.0419,4.10208 2.74754,1.79741 9.50611,0.14022 5.19606,-3.87263 -0.81719,-0.76084 -1.73302,-1.12585 -2.63085,-1.1467 z m -109.1861,2.28306 c 0.50349,0.12585 0.86336,0.94433 0.88935,3.09439 0.0343,2.82075 0.48598,5.76367 1.00408,6.53965 1.8542,2.7766 7.03693,4.58421 11.01483,3.84111 3.6533,-0.68251 4.2728,-0.30205 6.5965,4.04988 3.36825,6.30869 8.70866,7.1222 14.54071,2.21485 4.5784,-3.85249 6.07292,-3.44667 7.26312,1.97249 0.4643,2.1136 1.97869,4.45026 3.36569,5.19245 4.59691,2.70741 9.01084,2.17543 12.46797,-1.46348 2.2447,-2.40942 2.35921,-2.38295 5.96656,1.38235 4.3113,4.50018 9.42108,5.0243 12.78113,1.31103 2.2764,-2.51506 2.30326,-2.51506 5.50096,0 1.7671,1.39029 4.50025,2.52801 6.07302,2.52801 3.44088,0 9.61698,-4.58932 9.61698,-7.14582 0,-2.56581 1.76188,-2.27703 4.48758,0.73484 1.2764,1.41039 3.8539,2.56419 5.7273,2.56419 3.3559,0 9.01857,-4.05685 9.01857,-6.46111 0,-3.48611 4.25525,-0.42922 7.65535,5.49941 1.85413,3.23325 2.97856,5.49022 3.43958,7.18767 l 0.0346,-0.0739 c 0.70559,2.09244 3.03611,6.08985 3.63182,7.33908 4.51061,6.35697 -4.98135,11.43908 -14.05134,12.71292 -1.47651,0.20738 -4.91925,0.52773 -7.7127,1.96164 -6.0591,3.11062 -7.86364,3.25041 -8.84804,0.68471 -1.2008,-3.1292 -5.86708,-2.30185 -7.22953,1.28209 -1.096,2.88238 -1.9289,3.20601 -8.26255,3.20601 -9.66051,0.7766 -19.0832,0.54446 -27.57093,-0.17363 -6.43905,-0.36597 -12.92454,-2.23454 -18.97145,-2.48874 -4.8537,-0.20404 -9.94823,-3.11511 -9.94823,-5.67252 0,-1.68316 -0.99164,-2.70535 -2.88509,-2.9745 -1.9406,-0.27554 -2.8851,0.24946 -2.8851,1.60301 0,2.40262 -0.23899,2.43283 -4.36149,0.55448 -1.7598,-0.80187 -3.37364,-2.67694 -3.58634,-4.16718 -0.2781,-1.94878 -1.46654,-2.82881 -4.23334,-3.1347 -2.11568,-0.23403 -6.95576,-2.83067 -10.75541,-5.77019 -10.94005,-8.46267 -11.24595,-8.7685 -9.44025,-9.44541 2.32745,-0.8726 1.96548,-5.45741 -0.50592,-6.40582 -1.25958,-0.48348 -2.75291,0.0721 -3.70881,1.37925 -1.4656,2.00461 -1.8367,1.88814 -4.41265,-1.387 -2.61474,-3.32383 -2.65654,-3.66655 -0.59428,-4.86533 1.22,-0.7093 3.6985,-2.51714 5.50715,-4.01785 4.73902,-3.14576 8.35138,-8.13666 11.62979,-12.12639 0.60009,-0.62104 1.24731,-1.1878 1.75079,-1.06195 z m 73.59138,0.0398 c -2.03273,-0.0408 -4.10264,2.2172 -3.65043,4.97231 0.42256,2.57455 4.53748,1.81494 5.61878,0.0372 1.23326,-2.02748 1.25279,-2.86255 -0.0238,-4.13877 -0.58895,-0.58892 -1.26701,-0.85715 -1.94458,-0.87075 z m -78.39263,8.31836 c -1.4682,-0.0564 -2.58328,0.78371 -3.22461,1.85001 -0.85511,1.42179 -0.86828,3.24511 0.24598,3.87987 1.19821,0.68261 3.1281,0.94376 4.3527,0.47387 1.98642,-0.76239 4.65913,-3.90418 0.20722,-5.82393 -0.56341,-0.24297 -1.0919,-0.361 -1.58129,-0.37982 z m 12.87156,8.27753 c -0.84403,0.0333 -1.68201,0.34469 -2.33526,0.99787 -0.7239,0.72392 -0.95366,2.26128 -0.51056,3.41581 1.1655,3.03735 6.5872,1.99297 6.5872,-1.26865 0,-1.94486 -1.88451,-3.21819 -3.74138,-3.14503 z m -10.41073,1.38183 c -0.74992,-0.0328 -1.50941,0.22472 -2.13269,0.84801 -0.7515,0.75152 -1.01951,2.27083 -0.59531,3.37602 1.1689,3.04587 5.98051,2.56696 5.98051,-0.59531 0,-2.0791 -1.60269,-3.55652 -3.25251,-3.62872 z m -23.35,2.90525 c 2.472,0.0971 4.62635,2.17143 12.58218,10.05313 13.60395,13.47722 29.99866,24.94733 40.20891,28.1311 11.96545,3.7309 27.23532,6.1743 38.61367,6.1743 10.54135,0.002 39.40912,-3.11677 41.64552,-4.49895 0.683,-0.42199 4.85207,-1.33979 9.26507,-2.03915 4.41295,-0.69926 10.84248,-2.73355 14.28698,-4.52066 5.53685,-2.87231 6.48381,-3.02845 8.16591,-1.34617 2.2235,2.22328 1.03005,4.92843 -2.0407,4.62711 -4.3002,-0.42179 -5.42614,0.15562 -6.66781,3.42201 -0.9507,2.50138 -1.82581,3.10021 -3.49436,2.39365 -3.9397,-1.66845 -7.29524,-0.83193 -9.78184,2.4381 -2.21845,2.918 -2.66817,3.03392 -5.23637,1.35134 -3.77118,-2.47101 -10.04028,-0.30811 -12.07936,4.16718 -1.37017,3.00751 -1.69874,3.12591 -3.70314,1.33687 -3.32595,-2.96883 -8.62298,-3.16656 -11.64218,-0.43408 -2.5901,2.34388 -2.87303,2.49723 -6.72104,-1.04283 -4.26875,-3.92735 -6.28062,-1.36099 -8.12353,0.48628 -3.93704,3.94606 -6.38926,4.32111 -8.92866,1.49086 -2.93375,-3.24173 -8.41415,-4.15654 -11.5874,-1.93373 -3.6627,2.56519 -5.22954,2.24551 -6.89364,-1.40663 -1.9026,-4.1768 -6.14971,-4.16065 -10.53321,0.0382 -3.96725,3.80103 -6.41066,3.27298 -8.69146,-1.87947 -1.80845,-4.0859 -7.74416,-6.93245 -10.63656,-5.10098 -2.91755,1.84758 -4.99297,1.33368 -4.99297,-1.23662 0,-3.56496 -3.4076,-5.75992 -9.08265,-5.84822 -4.409,-0.0692 -5.30826,-0.62395 -7.27036,-4.48242 -1.6873,-3.31835 -3.50349,-4.75015 -7.36854,-5.81101 -5.50363,-1.51043 -5.58961,-1.687 -4.00183,-8.16591 1.24604,-5.08464 -1.46078,-8.37068 -8.37106,-10.16114 -5.63518,-1.46022 -5.49393,-4.41737 0.27595,-5.78207 1.1211,-0.26514 1.98048,-0.45248 2.80448,-0.42013 z m 44.9957,0.95704 c -2.44475,0.009 -3.88819,3.59787 -1.70635,4.94647 2.3932,1.4792 5.3083,0.0333 4.8395,-2.40089 -0.219,-1.13726 -1.40307,-2.26186 -2.63137,-2.49803 -0.17112,-0.033 -0.33878,-0.0481 -0.50178,-0.0476 z m 101.19176,2.8019 c -0.76871,-0.0433 -1.65788,0.34168 -2.53421,1.21801 -1.0695,1.07365 -1.56064,2.58458 -1.08314,3.35742 1.5102,2.44361 5.84564,1.63977 5.84564,-1.08365 0,-2.1579 -0.9471,-3.4196 -2.22829,-3.49178 z m -86.65983,1.00976 c -1.56872,-0.0752 -2.15077,0.53142 -2.15077,2.10374 0,1.34198 0.40425,2.8445 0.89865,3.33882 1.701,1.70095 4.87102,0.13072 4.87102,-2.41277 0,-1.66502 -0.99899,-2.68858 -2.88509,-2.95641 -0.26558,-0.0377 -0.50968,-0.0626 -0.73381,-0.0734 z m 14.64562,3.79356 c -0.89332,-0.0192 -1.80348,0.38839 -2.04173,1.14774 -0.41088,1.30956 -0.27081,2.67776 0.32039,3.04322 1.6258,1.00474 3.98191,-1.01528 3.66283,-2.77761 -0.17164,-0.9482 -1.04817,-1.39416 -1.94149,-1.41335 z m 54.56825,0.0496 c -1.61469,-0.0795 -2.12339,0.5631 -2.12339,2.41019 0,2.11096 0.66418,2.64872 2.88458,2.33319 1.5868,-0.22541 2.8851,-1.27538 2.8851,-2.33319 0,-1.05792 -1.2983,-2.10768 -2.8851,-2.33319 -0.27755,-0.0394 -0.53052,-0.0657 -0.76119,-0.077 z m -99.55672,1.76889 c -3.60205,0 -5.24823,4.09252 -2.38745,5.93555 2.9614,1.90758 5.57589,0.61903 5.57589,-2.74763 0,-2.54083 -0.64734,-3.18792 -3.18844,-3.18792 z m 14.16296,0.6413 c -2.81785,0 -4.46525,1.9313 -3.28145,3.8468 1.4779,2.39125 5.77019,1.43706 5.77019,-1.28261 0,-1.68379 -0.85484,-2.56419 -2.48874,-2.56419 z m 59.56949,0.20567 c -0.70365,-0.0402 -1.37981,0.0867 -1.93269,0.4284 -1.99977,1.23593 -1.53079,4.23479 0.87281,5.58002 2.8939,1.61945 5.52679,0.46706 5.52679,-2.41845 0,-1.84452 -2.35596,-3.46928 -4.46691,-3.58997 z m -19.46186,1.73788 c -2.86082,0.11513 -5.06862,3.89647 -2.81791,6.60839 0.8289,0.99863 2.42602,1.64093 3.54862,1.4273 2.51395,-0.47872 3.50103,-6.11623 1.30793,-7.47138 -0.68303,-0.42216 -1.37842,-0.59088 -2.03864,-0.56431 z m -83.5086,0.62012 c 0.6359,0 0.25816,1.28257 -0.83974,2.84996 -4.47808,6.39322 -1.2965,12.82141 6.45336,13.03796 4.68545,0.13092 5.05638,0.42592 5.65546,4.4974 0.406,2.75978 1.9204,5.30907 4.1305,6.9541 6.97436,4.63291 11.96747,-6.13601 12.777,3.01118 0.3296,3.98065 1.04272,5.08765 3.92327,6.09472 2.8643,1.00108 4.19529,0.63219 7.39387,-1.63349 1.79404,-1.27068 4.1413,-1.56356 4.64106,0.971 1.62514,8.24234 11.27708,11.09643 16.57263,4.90203 2.8464,-3.32953 3.12375,-1.94159 3.5941,0.40617 0.50885,2.5399 1.72891,3.96603 3.85041,4.49844 3.34265,0.83888 10.39239,-2.13 11.51867,-4.85139 0.4825,-1.16519 1.35288,-0.86116 3.05408,1.06712 4.3357,4.91375 7.57403,5.94646 11.79773,3.76256 2.0772,-1.07426 4.13278,-2.52864 4.56768,-3.23236 0.4712,-0.76249 2.28978,-0.17088 4.50153,1.46451 3.5281,2.60833 3.87302,2.63785 6.98407,0.59945 1.7999,-1.1794 3.27267,-2.7081 3.27267,-3.39721 0,-2.20339 3.17475,-1.34187 4.83175,1.31155 2.2844,3.65803 5.9703,3.17182 9.71775,-1.2821 3.6947,-4.39088 5.42971,-4.72992 8.76329,-1.71307 2.0413,1.84727 2.78999,1.90117 5.58519,0.40566 1.7753,-0.95023 3.57202,-3.09841 3.99252,-4.77439 0.5528,-2.20209 1.34319,-2.80295 2.85047,-2.16834 1.1472,0.48298 3.95225,0.97142 6.23425,1.08366 4.95135,0.24561 6.33483,1.47343 9.42113,8.36641 1.29719,3.78956 4.20326,5.69864 -0.80564,4.44107 -2.34235,-0.58792 -3.14761,-0.27398 -3.14761,1.22732 0,2.55375 -4.28746,4.91416 -7.02076,3.8654 -1.1565,-0.44381 -2.761,0.054 -3.6189,1.12292 -2.0539,2.55903 -9.59433,5.02374 -10.56473,3.45354 -1.1626,-1.88109 -4.44004,-1.41503 -4.44004,0.63149 0,2.39186 -4.9774,3.95712 -6.797,2.13733 -2.1811,-2.18107 -4.74338,-1.66681 -4.74338,0.95188 0,3.15366 -9.52807,6.25162 -12.25817,3.98581 -2.18595,-1.814 -5.69319,-0.71841 -5.69319,1.77922 0,1.02209 -1.79499,2.10876 -4.16719,2.52232 -6.2094,1.5287 -12.79952,2.1826 -18.75647,2.17351 -3.6633,0 -5.28599,-0.54808 -5.28599,-1.78593 0,-2.0045 -3.45414,-3.73676 -5.24464,-2.63033 -0.6416,0.39651 -1.16633,1.55263 -1.16633,2.56883 0,1.01631 -0.72141,1.76054 -1.60301,1.6552 -7.04145,-0.84418 -9.57677,-1.55594 -11.41687,-3.20756 -1.1663,-1.04676 -4.34003,-2.08529 -7.05228,-2.30735 -7.4008,-0.60616 -11.98377,-2.80762 -11.98377,-5.75624 0,-3.54723 -4.38492,-5.76724 -6.73912,-3.41271 -1.5291,1.5289 -2.88207,1.20393 -9.34517,-2.24638 -5.34835,-2.85515 -7.77423,-4.97131 -8.29923,-7.23986 -0.619,-2.6745 -1.50463,-3.21285 -5.34593,-3.25045 -2.5321,-0.0242 -5.38992,-0.63293 -6.35052,-1.35289 -16.83886,-12.62127 -21.62142,-16.41121 -21.62142,-17.1328 0,-0.47567 1.79748,-2.55958 3.99408,-4.63073 2.19668,-2.07138 5.12296,-6.36296 6.50296,-9.53637 2.6433,-6.07894 5.79044,-10.25777 7.72562,-10.25777 z m 118.53696,1.43764 c -1.61475,-0.0794 -2.12391,0.5631 -2.12391,2.41019 0,2.11096 0.6646,2.6482 2.8851,2.33267 1.5868,-0.2254 2.88509,-1.27496 2.88509,-2.33267 0,-1.05792 -1.29829,-2.10843 -2.88509,-2.33371 -0.27756,-0.0394 -0.53064,-0.0652 -0.76119,-0.0765 z m -63.4783,1.10587 c -1.38762,0.052 -2.75745,0.90458 -2.75745,2.37247 0,1.29296 0.38442,2.7354 0.85472,3.20549 2.4663,2.46628 5.84866,-0.42848 4.61936,-3.95325 -0.33518,-0.96082 -1.18883,-1.47356 -2.12494,-1.59732 -0.19502,-0.0258 -0.39346,-0.0348 -0.59169,-0.0274 z m 85.73275,0.0233 c -1.35987,0.0676 -2.5802,0.86852 -2.5802,2.34921 0,1.29296 0.38494,2.7354 0.85524,3.20549 2.0542,2.05454 6.19271,-0.76542 5.14181,-3.50366 -0.5576,-1.45311 -2.05698,-2.11863 -3.41685,-2.05104 z m 11.20397,0.67024 c -0.34264,0.0312 -0.66977,0.13454 -0.9617,0.31316 -1.41853,0.86793 -2.5647,2.50722 -2.5647,3.61425 0,1.53802 1.0909,1.51893 4.68757,1.59163 3.0902,0.0625 2.80191,-2.43945 1.79059,-3.93516 -0.75851,-1.12175 -1.92386,-1.67753 -2.95176,-1.58388 z m -81.38005,1.10226 c -1.85545,-0.1266 -4.42577,1.9678 -3.47885,3.50004 0.97578,1.57916 4.06961,1.42362 5.10821,-0.25683 0.4739,-0.76685 0.24382,-2.01168 -0.51108,-2.76675 -0.30002,-0.30001 -0.6901,-0.44725 -1.11828,-0.47646 z m 57.96701,6.12934 c -2.08191,0.23273 -2.77897,2.34199 -1.01234,4.10879 1.49375,1.49381 4.87102,0.26507 4.87102,-1.77198 0,-1.04837 -1.2983,-2.09031 -2.8851,-2.31562 -0.35081,-0.0498 -0.67617,-0.0544 -0.97358,-0.0212 z m -33.43931,0.0822 c -0.81357,0.029 -1.68114,0.35103 -2.48356,1.01699 -1.46157,1.21306 -1.57378,2.01578 -0.46768,3.34863 2.2646,2.72872 6.26991,2.18469 6.26991,-0.85111 0,-2.22494 -1.52875,-3.57838 -3.31867,-3.51451 z m -15.274,2.27221 c -3.67868,0 -5.00561,3.14635 -2.41846,5.7335 1.30834,1.02318 2.95157,1.8865 4.83692,0 2.5873,-2.58715 1.26024,-5.7335 -2.41846,-5.7335 z m 29.35635,0.68006 c -1.68135,0.0785 -3.0701,1.10544 -3.0701,2.55643 0,0.92354 0.72154,1.9306 1.60301,2.23811 2.33908,0.81586 4.80797,-0.36462 4.80797,-2.29908 0,-0.92354 -0.72099,-1.93112 -1.60249,-2.23863 -0.58482,-0.20397 -1.17794,-0.283 -1.73839,-0.25683 z m -42.64701,2.03554 c -2.18113,0.15031 -3.32273,2.56991 -1.73219,5.01003 0.9041,1.38713 2.79234,1.25466 3.86798,1.25057 2.27143,-0.009 1.87098,-5.08173 -0.47129,-5.98052 -0.60013,-0.23029 -1.16116,-0.31476 -1.6645,-0.28008 z m -71.57444,1.70222 c -0.2339,0.0297 -0.45843,0.10376 -0.66353,0.23048 -0.5626,0.34778 -1.02267,1.46374 -1.02267,2.47995 0,2.17579 3.30416,2.48078 4.57646,0.42219 0.8458,-1.36853 -1.25336,-3.34025 -2.89026,-3.13262 z m 105.59407,1.73219 c -2.07026,0.008 -4.01916,2.25543 -3.05563,4.76767 0.69468,1.81125 5.17471,1.9867 6.4518,-0.61702 0.44568,-0.90863 -0.2325,-2.45812 -1.3224,-3.36258 -0.6635,-0.55065 -1.38369,-0.79076 -2.07377,-0.78807 z m -93.51936,0.41031 c -1.14838,-0.10031 -2.22053,0.85822 -2.22053,2.96261 0,2.48191 0.65748,3.30006 2.65358,3.30006 2.0155,0 2.55479,-0.69099 2.24379,-2.87218 -0.3041,-2.13093 -1.52845,-3.29018 -2.67684,-3.39049 z m -29.81006,6.56343 c 1.59088,0.0802 3.26774,1.60895 6.49262,4.95112 2.7876,2.88896 10.55043,9.15837 17.25011,13.93145 38.41559,27.36969 73.87545,35.77463 111.55495,26.44179 18.847,-4.66815 36.63481,-9.82523 46.78836,-13.56506 9.17625,-3.37974 11.76311,-3.87575 14.26631,-2.73524 3.3935,1.54598 3.72986,2.92474 1.65726,6.79752 -1.09225,2.04103 -2.22272,2.45272 -5.13612,1.87017 -4.65815,-0.93176 -10.13271,1.43934 -10.13271,4.38888 0,3.03651 -2.80146,3.86726 -5.75676,1.70636 -3.09535,-2.26337 -6.94615,-1.17412 -10.41745,2.94659 -2.61715,3.10727 -2.8469,3.14805 -6.65075,1.1808 -4.4997,-2.32681 -7.34155,-1.64212 -11.52385,2.77606 -3.07335,3.10554 -6.55756,4.05737 -11.18278,0.8475 -4.279,-2.96971 -7.58221,-0.34737 -9.14001,1.87688 -2.3719,3.38626 -3.90755,3.43001 -4.95163,0.14056 -1.15987,-3.65488 -6.5502,-4.70246 -9.6697,-1.87947 -1.382,1.25074 -2.51251,2.97949 -2.51251,3.84163 0,0.86235 -0.92605,2.33598 -2.05775,3.27525 -1.7725,1.47095 -2.5281,1.15352 -5.4498,-2.28927 -3.5761,-4.21419 -7.63892,-6.08385 -9.83247,-4.52478 -0.7215,0.51292 -2.32176,2.51942 -3.55586,4.45864 -2.7953,4.39271 -4.73151,4.43809 -8.69301,0.20309 -4.67605,-4.99909 -6.75843,-5.7458 -11.27373,-4.04162 -3.6145,1.36431 -4.22143,1.23099 -6.00738,-1.31878 -3.3007,-4.7124 -6.50258,-5.7962 -10.12083,-3.42563 -3.8491,2.52197 -5.27284,1.79687 -6.27094,-3.19309 -0.4233,-2.11713 -2.25748,-4.79412 -4.12068,-6.01513 -2.88825,-1.89235 -3.97895,-1.97541 -7.79952,-0.59377 -5.1516,1.86283 -7.42455,0.67123 -8.74314,-4.58473 -0.7421,-2.95687 -1.30359,-3.23389 -5.25497,-2.59261 -4.9586,1.0772 -4.70204,-0.93523 -5.14232,-4.67671 -0.6249,-5.32396 -3.01138,-7.61049 -7.09208,-6.79442 -3.1231,0.62476 -3.54778,0.25812 -4.29018,-3.69952 -0.85108,-4.53622 -4.76931,-8.31267 -8.62479,-8.31267 -3.6223,0 -4.03228,-2.46988 -0.85008,-5.12216 1.8215,-1.51799 3.00689,-2.33203 4.24419,-2.26963 z m 18.4614,1.36064 c -0.4569,-0.006 -0.88828,0.14835 -1.24798,0.50798 -0.7803,0.78054 -1.03441,2.63108 -0.56431,4.11241 1.0045,3.165 4.27242,3.57189 5.38572,0.67076 0.8629,-2.24842 -1.59323,-5.26702 -3.57343,-5.29115 z m 13.43484,4.74958 c -2.6505,0 -3.17114,2.23491 -1.02164,4.38423 v 5.1e-4 c 2.49285,2.49307 3.92541,2.57011 4.81211,0.25942 0.7668,-1.99787 -1.39307,-4.64416 -3.79047,-4.64416 z m 12.8974,0.14831 c -2.20185,0.003 -2.36732,1.35313 -0.26251,3.45819 1.9185,1.91832 4.21524,1.29244 4.21524,-1.14877 0,-0.99892 -1.29839,-2.00082 -2.88509,-2.22622 -0.39701,-0.0564 -0.75307,-0.0836 -1.06764,-0.0832 z m 132.17695,4.98057 c -1.9522,0 -2.63005,2.71266 -1.06815,4.27416 1.6255,1.62564 2.99155,0.84499 2.99155,-1.70945 0,-1.4247 -0.8549,-2.56471 -1.9234,-2.56471 z m -113.22668,2.81224 c -0.64248,0.0179 -1.24252,0.23069 -1.70067,0.68884 -1.1715,1.17128 -1.13287,1.98536 0.16743,3.55224 1.9746,2.37906 5.76967,2.03712 5.76967,-0.51986 0,-2.07668 -2.309,-3.77495 -4.23643,-3.72122 z m -12.99817,3.59926 c -2.818,0 -4.46546,1.93119 -3.28146,3.84679 1.4777,2.39117 5.77019,1.43718 5.77019,-1.28261 0,-1.68367 -0.85518,-2.56418 -2.48873,-2.56418 z m 116.60838,0 c -2.8177,0 -4.15943,3.0216 -2.20813,4.97282 1.7369,1.73708 4.35419,1.87004 5.34179,0.27182 1.2259,-1.98329 -0.72296,-5.24464 -3.13366,-5.24464 z m -12.65297,1.28209 c -2.9405,0 -4.56918,1.91471 -3.33158,3.91759 1.2481,2.01931 4.99293,0.86681 5.48493,-1.68827 0.293,-1.52172 -0.39015,-2.22932 -2.15335,-2.22932 z m -13.63328,1.28209 c -1.9314,0 -2.63589,2.70719 -1.10329,4.23954 1.1967,1.19665 3.02669,-0.24937 3.02669,-2.39159 0,-1.01631 -0.8656,-1.84795 -1.9234,-1.84795 z m -58.89356,0.0894 c -0.84852,0.0405 -1.69241,0.35911 -2.35128,1.01803 -0.9429,0.9426 -0.8406,1.95997 0.339,3.38119 2.232,2.68914 5.76967,1.90229 5.76967,-1.28313 0,-1.94758 -1.89066,-3.20525 -3.75739,-3.11609 z m 19.57296,0.2279 c -2.30281,-0.0706 -5.10955,2.17996 -4.14031,3.74809 1.0297,1.66624 5.9554,0.78657 6.6027,-1.17926 0.29007,-0.88123 -0.39329,-1.95561 -1.51877,-2.38745 -0.29582,-0.11358 -0.61462,-0.17129 -0.94362,-0.18138 z m 23.85333,0.41496 c -1.25696,0.0886 -2.14778,1.75335 -1.35703,3.81424 0.6744,1.75736 1.18094,1.85988 2.75074,0.55707 1.4933,-1.23917 1.58815,-2.00127 0.42375,-3.40445 -0.59906,-0.72182 -1.24612,-1.00712 -1.81746,-0.96686 z m -125.18823,1.94923 c 0.5022,-0.0972 1.07976,0.25703 1.99006,1.01234 1.3184,1.09435 3.55823,1.46449 5.95623,0.98496 3.6677,-0.73346 3.84369,-0.56882 3.84369,3.59564 0,5.16198 3.03678,8.68369 7.03626,8.15971 3.2214,-0.4223 7.06831,2.21714 7.06831,4.84932 0,0.95521 1.36496,2.63097 3.03289,3.7238 2.36365,1.54902 3.81502,1.68973 6.58047,0.63821 3.2593,-1.23897 3.90829,-0.92854 7.96644,3.81268 3.5338,4.12845 5.28194,5.16145 8.73074,5.16145 2.37165,0 4.69822,-0.62478 5.17022,-1.38855 0.5093,-0.82399 1.83625,0.21819 3.26285,2.56418 1.9022,3.12818 3.2779,3.94833 6.5903,3.93413 2.3025,-0.0109 4.99708,-0.53379 5.98878,-1.16168 1.283,-0.81221 2.99152,0.1186 5.92212,3.22564 2.2651,2.40183 5.08818,4.36666 6.27403,4.36666 3.1673,0 9.29526,-3.4489 10.16786,-5.72265 1.0176,-2.65187 2.81474,-2.48143 7.08122,0.67283 4.4481,3.28872 9.76992,2.29676 12.16102,-2.26705 1.74177,-3.886 1.73213,-3.06855 3.83955,0.14831 3.1455,4.80059 8.60093,4.48924 13.00283,-0.74207 3.02761,-4.1119 3.0981,-4.2543 7.2564,-1.79782 4.78148,2.82451 11.73301,1.80934 14.48181,-2.11512 1.81095,-2.58549 2.06196,-2.62021 4.30516,-0.59015 4.7306,4.28109 12.31916,1.22925 14.69936,-5.91126 0.3487,-1.04615 1.21204,-0.82395 2.74144,0.70538 3.19935,3.1993 7.85182,2.77017 10.81587,-0.99787 2.3232,-2.95329 2.7156,-3.05556 4.5806,-1.19063 2.5735,2.57355 2.63489,6.48289 0.11679,7.44916 -2.6019,0.99845 -2.43027,4.62992 0.3204,6.7691 2.10458,1.6365 2.05092,1.90777 -0.86093,4.37131 -1.7078,1.44467 -4.30431,2.53432 -5.77019,2.42207 -4.61757,-0.35511 -5.87096,0.0281 -5.87096,1.79627 0,2.85416 -15.63383,9.31614 -36.54403,15.10451 -12.5848,3.48388 -16.45348,3.95849 -35.90271,4.40128 -24.71817,0.56283 -36.17508,-1.01517 -35.52238,-4.89221 0.52097,-3.09418 -2.86137,-4.12017 -7.39387,-2.24276 -3.1226,1.29337 -4.74387,1.18286 -9.54877,-0.65215 -3.1833,-1.21573 -6.72727,-3.64374 -7.87497,-5.39554 -1.643,-2.50771 -2.83409,-3.03523 -5.59914,-2.48202 -3.6604,0.73214 -11.6365,-3.06522 -11.6365,-5.53971 0,-0.71547 -0.89416,-1.30121 -1.98696,-1.30121 -1.0928,0 -3.74273,-0.90714 -5.88543,-2.0159 -3.0053,-1.86971 -5.92989,-3.91921 -8.85837,-5.75055 -1.7292,-1.09395 -5.86194,-3.67731 -9.18394,-5.74074 -3.4332,-2.13248 -6.20059,-4.87026 -6.41149,-6.34225 -0.2523,-1.76123 -1.63191,-3.86371 -3.80081,-4.10104 -6.48878,-0.71003 -2.16733,-5.88472 -0.62373,-7.26261 3.9911,-3.56255 5.97284,-9.22953 6.75204,-10.56989 0.6101,-1.0498 1.03724,-1.59827 1.53944,-1.69551 z m 114.00235,2.66806 c -2.08899,-0.15262 -3.96292,1.80631 -2.90732,3.51451 1.2582,2.03586 4.16397,1.70229 5.03897,-0.57826 0.4384,-1.14256 -0.0794,-2.29273 -1.23145,-2.73471 -0.29929,-0.11486 -0.60178,-0.17973 -0.9002,-0.20154 z m -44.09085,0.40462 c -0.60535,-0.0104 -1.2711,0.35474 -2.2779,1.09089 -1.3098,0.95774 -1.97023,2.40619 -1.46813,3.21841 1.1585,1.87535 5.46415,1.92202 6.60735,0.0718 0.4777,-0.77284 0.0529,-2.22087 -0.94413,-3.21789 -0.76638,-0.76667 -1.31184,-1.15285 -1.91719,-1.16324 z m 64.97381,2.58021 c -1.0385,0 -2.08287,1.00962 -2.32027,2.24379 -0.3034,1.57429 0.38917,2.24431 2.32027,2.24431 1.9312,0 2.62389,-0.67002 2.32079,-2.24431 -0.2376,-1.23417 -1.28249,-2.24379 -2.32079,-2.24379 z m -33.90336,1.9234 c -2.26515,0 -3.71386,2.11025 -2.64066,3.84679 1.3945,2.25629 4.4881,1.37253 4.4881,-1.28209 0,-1.41048 -0.83134,-2.5647 -1.84744,-2.5647 z m -99.32003,0.27543 c -0.5883,-0.051 -1.17553,0.27789 -2.00453,0.96583 -1.5268,1.26729 -1.6577,2.07982 -0.5488,3.41582 0.80008,0.96432 2.21626,1.75338 3.14606,1.75338 2.78228,0 3.56726,-2.67089 1.41696,-4.82141 -0.83188,-0.8319 -1.42139,-1.26264 -2.00969,-1.31362 z m 85.78029,1.00614 c -2.7988,0 -3.54835,3.28011 -0.9617,4.20801 2.1693,0.77822 3.5264,-0.13018 3.5264,-2.36006 0,-1.01631 -1.1542,-1.84795 -2.5647,-1.84795 z m 33.96744,0.21032 c -2.08202,0.23283 -2.77863,2.342 -1.01183,4.1088 1.4939,1.49391 4.87102,0.26581 4.87102,-1.77147 0,-1.04804 -1.29829,-2.09063 -2.88509,-2.31614 -0.35083,-0.0498 -0.67667,-0.0544 -0.9741,-0.0212 z m -9.78183,4.91857 c -3.11107,0 -4.2837,3.14432 -2.3735,5.78621 0.67874,0.93874 1.67036,1.08986 2.58123,0.91157 0.91091,-0.17829 1.74113,-0.68623 2.09652,-1.06454 2.55366,-2.71839 1.09953,-5.63324 -2.30425,-5.63324 z m -92.599,4.23333 c -0.2701,0.002 -0.51115,0.0594 -0.70435,0.1788 -1.5485,0.95704 -2.05787,5.10981 -0.55087,6.27352 1.94868,1.50469 3.5142,-0.16041 4.3279,-1.13326 1.3651,-1.63215 1.29518,-2.34195 -0.36122,-3.99821 -0.8295,-0.83007 -1.90126,-1.32615 -2.71146,-1.32085 z m -13.02712,1.09761 c -0.76998,-0.0321 -1.55112,0.21369 -2.16162,0.82424 -0.7515,0.75152 -1.00262,2.31293 -0.55862,3.47007 1.0266,2.67514 5.13504,1.96292 5.70352,-0.98857 0.3507,-1.82166 -1.28928,-3.23519 -2.98328,-3.30574 z m -23.43164,2.78846 c 2.1763,-0.0539 4.19768,1.45626 10.89908,6.37739 3.78048,2.7764 6.37298,5.58967 6.01358,6.52621 -0.9091,2.36884 3.06061,5.40603 4.79661,3.67006 0.9532,-0.95338 5.03081,0.94876 13.72939,6.40426 6.8055,4.26797 17.56684,10.21441 23.91379,13.21418 9.83635,4.64886 14.54413,6.35061 28.72228,10.3818 1.3579,0.38607 1.06914,1.28235 -1.18546,3.68246 -4.92118,3.75428 -7.26537,1.95143 -10.19008,-0.0966 -5.20385,-3.67365 -5.8915,-3.75095 -10.7611,-1.2113 -5.21645,2.72058 -6.4731,2.42166 -8.1163,-1.93115 -1.4908,-3.95022 -3.6312,-4.66191 -12.253,-4.07675 -3.26022,0.22145 -3.52803,-0.1235 -3.54603,-4.57337 -0.011,-2.64731 -0.53661,-5.63039 -1.16841,-6.62853 -1.52208,-2.40434 -9.43581,-2.05025 -13.48599,0.60358 -3.6232,2.37389 -5.84203,1.56467 -5.84203,-2.13114 0,-3.47738 -5.82793,-8.61324 -10.84171,-9.55394 -3.5519,-0.66625 -4.11758,-1.3024 -4.11758,-4.62917 0,-4.71719 -2.35516,-6.47439 -7.64914,-5.70663 -4.6008,0.66739 -6.88279,-1.03505 -6.88279,-5.13405 0,-2.11499 1.14628,-3.22819 4.44728,-4.31757 1.50718,-0.49739 2.52971,-0.84519 3.51761,-0.86971 z m 49.02078,5.89214 c -1.69126,0.0937 -3.2357,0.96502 -3.79253,2.71922 -0.4584,1.44424 -0.1376,3.46398 0.7121,4.4881 2.00354,2.41399 4.22308,2.17565 6.90965,-0.15348 4.01535,-3.48084 0.16654,-6.80647 -3.098,-7.0466 -0.24516,-0.018 -0.48961,-0.0226 -0.73122,-0.007 z m -14.47353,1.37563 c -2.2049,0 -4.19035,3.31735 -3.16725,5.9247 1.0231,2.60737 4.13013,2.49547 5.47873,0.97307 1.3485,-1.52241 0.069,-6.89777 -2.31148,-6.89777 z m 160.87441,2.82464 c -0.23174,-0.0173 -0.46445,-0.0143 -0.69246,0.0114 -0.60804,0.0685 -1.182,0.29782 -1.61282,0.72864 -0.7373,0.73731 -0.9335,1.9999 -0.43563,2.80552 1.13278,1.83306 4.76131,1.22318 5.47511,-0.92036 0.4601,-1.38185 -1.11198,-2.50396 -2.7342,-2.62516 z m -133.66677,3.81062 c -0.36536,0.018 -0.73705,0.0923 -1.10381,0.23306 -2.3454,0.89988 -2.56353,4.20643 -0.33693,5.10511 2.59357,1.04634 3.13571,0.94133 4.66741,-0.90434 1.5981,-1.92559 -0.66934,-4.55976 -3.22667,-4.43383 z m 108.89568,1.3379 c -1.45032,0.0956 -2.94815,1.23763 -2.94815,2.88561 0,1.08874 1.10864,1.9637 2.48874,1.9637 3.0535,0 4.10481,-1.47745 2.68511,-3.77444 -0.50243,-0.81292 -1.35566,-1.13221 -2.2257,-1.07487 z m 13.8808,3.69641 c -2.58237,-0.12975 -4.204,2.5754 -2.51612,4.60902 0.9828,1.18417 2.01667,1.25817 3.85092,0.27647 2.9336,-1.57013 2.49715,-4.18049 -0.80615,-4.82089 -0.18,-0.0349 -0.35649,-0.0559 -0.52865,-0.0646 z m -97.46847,0.0569 c -3.85049,-0.008 -5.30369,3.37432 -2.09651,5.71954 1.6701,1.22101 2.99075,1.32358 4.77335,0.36949 3.5062,-1.87663 2.36556,-5.5516 -1.87534,-6.04097 -0.27735,-0.032 -0.54479,-0.0475 -0.8015,-0.0481 z m 57.97373,1.29914 c -1.95456,0.12933 -3.34983,2.11054 -2.5275,4.25349 0.629,1.63912 1.32492,1.77983 3.37602,0.68213 3.092,-1.65474 3.33518,-3.6486 0.57413,-4.70824 -0.4903,-0.18816 -0.97159,-0.25723 -1.42265,-0.22738 z m -29.45557,0.11162 c -1.64175,0.0616 -3.01532,1.359 -3.01532,3.49178 0,1.90674 0.83884,2.60449 3.13004,2.60449 4.0363,0 5.40735,-2.2702 2.8913,-4.78627 -0.9393,-0.9394 -2.02097,-1.34695 -3.00602,-1.31 z m -42.82633,3.53157 c -2.8269,0 -4.27649,1.99971 -3.29799,4.54959 0.8515,2.21895 3.56525,2.42539 5.5671,0.42323 1.9699,-1.96967 0.59979,-4.97282 -2.26911,-4.97282 z m 85.81492,0.67128 c -1.4435,-0.085 -3.16016,0.73054 -3.46594,2.3182 -0.3506,1.8208 0.22143,2.2525 2.54713,1.9234 1.6496,-0.23363 2.9993,-1.29047 2.9993,-2.34818 0,-1.21664 -0.95777,-1.8273 -2.08049,-1.89342 z m -29.61473,1.14411 c -0.49312,-0.0318 -0.994,0.0368 -1.48001,0.22325 -2.7286,1.04676 -2.67898,5.19612 0.0801,6.74015 h 5.2e-4 c 2.8676,1.60484 5.5268,0.47543 5.5268,-2.34714 0,-2.45803 -1.99057,-4.47857 -4.1274,-4.61626 z m 82.38463,1.51102 c 0.899,-0.0215 1.39127,0.2618 1.76527,0.76895 1.9072,2.58623 6.44376,4.88084 9.65006,4.88084 1.4567,0 2.64842,0.57685 2.64842,1.28209 0,0.70511 -1.13363,1.28209 -2.51923,1.28209 -1.3857,0 -3.11551,1.11414 -3.84421,2.47582 -1.0518,1.96509 -2.05307,2.27196 -4.85397,1.48725 -4.59455,-1.28708 -10.41572,0.35961 -12.67519,3.58583 -1.6624,2.37329 -2.11544,2.42628 -6.18154,0.7276 -4.12875,-1.72521 -4.60447,-1.65042 -8.06772,1.26349 -2.5683,2.1612 -4.23889,2.74348 -5.52886,1.92701 -3.0412,-1.92402 -5.95983,-1.38723 -10.98073,2.02003 -3.97407,3.00721 -4.23567,3.71974 -7.69979,0.46509 -2.37648,-2.23244 -3.96086,-2.62648 -8.24756,-2.05155 -2.91805,0.39144 -6.56362,1.89318 -8.10079,3.33726 -2.7374,2.57179 -2.86851,2.57737 -6.40426,0.25787 l -3.61012,-2.36833 8.77466,-1.4888 c 18.7726,-3.18468 36.33548,-8.15804 50.97208,-14.43375 8.98018,-3.85042 12.92583,-5.37157 14.90348,-5.41879 z m -38.5842,0.5209 c -2.4311,0 -3.51215,3.6776 -1.6335,5.55625 1.3184,1.31854 2.53434,1.02715 4.22714,-1.01234 1.93915,-2.33677 0.67931,-4.54391 -2.59364,-4.54391 z m -73.94329,0.32401 v 5.2e-4 c -3.00172,0.16702 -4.10707,3.09989 -1.37666,5.83013 1.79805,1.79817 1.54416,1.75098 4.12636,0.76017 2.8712,-1.10166 2.51968,-5.30415 -0.52452,-6.27042 -0.56981,-0.18085 -1.10528,-0.28249 -1.5999,-0.31523 -0.21639,-0.0143 -0.42517,-0.018 -0.62528,-0.005 z m 48.00533,3.81631 c -2.43502,0.0438 -5.28335,2.95103 -4.14961,4.78524 1.3493,2.18331 6.34782,1.04645 6.84402,-1.5565 0.2358,-1.23634 -0.52408,-2.61383 -1.68878,-3.06079 -0.31821,-0.1221 -0.65775,-0.1742 -1.00563,-0.16795 z m -30.40486,2.27066 c -2.88228,0 -4.34528,1.98051 -3.35948,4.54908 v -0.005 c 0.9179,2.39736 3.88966,2.39472 5.87716,0 1.9224,-2.31625 0.68802,-4.54391 -2.51768,-4.54391 z m -0.39119,14.66215 c 9.30525,-0.0459 16.62831,0.38697 16.27291,0.9617 -0.3553,0.57493 -1.46445,1.0449 -2.46445,1.0449 -0.9999,0 -2.76291,1.44285 -3.91811,3.20601 -2.51495,3.83828 -3.98378,3.99316 -7.49308,0.78858 -4.67254,-4.26634 -8.18664,-4.6458 -11.43496,-0.87023 -3.5492,4.12527 -4.20011,2.84954 -5.95829,-0.92243 l -1.92288,-4.12533 z" fill="#00B894" transform="translate(67.575392,-70.24944) translate(443.29378,-429.89924)"/>
</svg>