<?xml version="1.0" ?><svg height="190.52048mm" viewBox="0 0 179.78468 190.52048" width="179.78468mm" xmlns="http://www.w3.org/2000/svg">
    <path d="m 8217.0941,3240.1795 c 0,0 44.5175,-27.9132 52.9439,-33.7177 8.4265,-5.8041 59.1148,-32.8133 62.2586,-35.2634 3.1438,-2.45 15.9454,14.3214 17.2744,17.2673 1.3287,2.9458 -58.6613,33.8341 -58.6613,33.8341 l -51.3366,28.2048 5.542,8.5752 66.9255,-23.8006 49.4893,-15.7213 10.7923,28.5549 c 0,0 16.9826,59.2683 17.6308,62.2432 0.6482,2.975 0.227,5.8045 -5.6391,7.0586 -5.8663,1.2541 -119.5858,34.341 -119.5858,34.341 0,0 -7.448,-4.2216 -11.1595,-14.2322 -5.6871,-15.339 -19.1758,-52.9986 -19.1758,-52.9986 l -4.6021,-8.8961 c 0,0 -19.3329,-26.6512 -12.6966,-35.4492 z" fill="#FFFFFF" transform="translate(105.17608,-18.748129) translate(-8318.4787,-3146.6312)"/>
    <path d="m 8257.7626,3353.8044 c -1.0494,-1.1526 -2.6374,-4.4006 -3.5284,-7.2177 -0.8912,-2.8175 -3.8222,-10.9899 -6.5134,-18.1612 -11.9574,-31.8628 -15.3841,-41.4368 -15.3957,-43.0152 -0.026,-3.3085 -1.1162,-5.7143 -2.7903,-6.152 -1.1067,-0.2894 -4.2926,-5.76 -9.1354,-15.6862 -6.9937,-14.3341 -7.4092,-15.5274 -6.9784,-20.0458 0.4528,-4.7465 0.5383,-4.8605 7.1262,-9.4958 6.7806,-4.7708 21.6103,-14.4499 50.9065,-33.2253 15.9248,-10.206 60.5924,-33.0049 63.1545,-34.5184 5.1617,-3.0489 7.4147,2.211 10.7374,6.5155 7.1835,9.3063 7.6357,10.1221 8.404,15.1566 0.7598,4.9804 0,5.6071 -17.4096,14.1533 -7.2584,3.5656 -23.2555,11.8983 -35.5492,18.5173 -12.2935,6.619 -30.2252,16.1249 -39.8481,21.1243 -15.8492,8.2344 -17.438,9.2786 -16.8812,11.093 0.3382,1.1017 0.6848,2.0901 0.7703,2.1968 0.084,0.1056 13.1304,-4.4468 28.9886,-10.1184 15.8583,-5.6712 41.2919,-14.539 56.5194,-19.7058 29.9702,-10.1693 30.6972,-10.2812 34.3795,-5.2945 0.9454,1.2807 2.9228,5.7798 4.3938,9.9985 1.471,4.2185 3.1572,8.2516 3.7472,8.9623 0.5898,0.711 1.018,3.4104 0.7173,4.1939 -0.3007,0.7836 0.1188,1.6284 1.1666,3.682 4.3706,8.5666 10.2327,27.6892 16.4536,53.6711 2.1606,9.0244 2.3045,10.6033 1.2548,13.7838 -1.8976,6.76 -11.4539,6.8357 -16.541,8.1431 -17.2519,4.4207 -59.8621,17.2759 -77.0816,23.255 -12.0268,4.1757 -34.4695,10.2852 -37.7822,10.2852 -0.7571,0 -2.2355,-0.9427 -3.2852,-2.0954 z m 16.0301,-6.289 c 4.3996,-1.0259 12.9025,-3.5941 18.8956,-5.7074 5.9931,-2.1134 19.9072,-6.6629 30.9203,-10.1102 11.0131,-3.4476 25.2625,-7.9636 31.6653,-10.0357 6.4031,-2.0722 15.6233,-4.6826 20.4894,-5.8012 11.4975,-2.6426 11.4441,-2.6231 10.9259,-3.9745 -0.2455,-0.636 -0.9829,-3.5661 -1.6418,-6.5116 -0.8644,-3.8613 -1.6255,-5.355 -2.7293,-5.355 -0.8421,0 -6.119,1.6704 -11.7263,3.7116 -5.6077,2.0415 -20.8825,7.0921 -33.9445,11.2235 -41.3697,13.0852 -56.9998,18.2583 -67.2183,22.2468 l -9.9412,3.8803 1.4138,4.1493 c 1.6576,4.8647 1.7519,4.8813 12.8911,2.2841 z m -6.0643,-6.1024 c 0,-0.2843 2.3667,-1.5636 5.2596,-2.843 3.8085,-1.6843 5.5409,-2.0449 6.2788,-1.3071 0.7379,0.7379 0.6357,1.2646 -0.3702,1.9085 -2.938,1.8805 -11.1682,3.5326 -11.1682,2.2416 z m 5.4418,-7.9525 c 6.3223,-2.4647 33.1448,-11.6611 59.6053,-20.4365 26.4608,-8.7751 48.4539,-16.2841 48.8737,-16.6867 1.3641,-1.3074 -0.3509,-7.4937 -2.0775,-7.4937 -1.7917,0 -18.2817,5.1277 -57.8259,17.9816 -15.1109,4.9118 -32.7131,10.5896 -39.1159,12.6172 -16.1284,5.1073 -27.0089,9.4119 -27.0089,10.6846 0,0.59 0.7334,2.8607 1.63,5.0458 1.1816,2.8806 2.0138,3.8075 3.0267,3.3711 0.7683,-0.3311 6.57,-2.6184 12.8925,-5.0834 z m -13.9247,-3.0508 c 1.7796,-2.1444 9.4185,-4.6807 10.5848,-3.5146 0.7289,0.7289 -0.1399,1.5354 -3.1059,2.8808 -4.9474,2.2445 -9.1083,2.5972 -7.4789,0.6338 z m -1.0262,-5.1266 c 2.6976,-1.3625 27.8901,-9.4306 29.4469,-9.4306 0.3023,0 -8.6465,-23.3472 -9.1957,-23.9919 -0.1135,-0.1346 -2.0534,0.4288 -4.3103,1.2495 -2.2569,0.8208 -8.7136,3.0952 -14.3482,5.0543 -5.6345,1.9589 -11.3549,3.9893 -12.7116,4.5123 l -2.4668,0.9507 2.2949,6.3453 c 2.6398,7.2988 6.9073,17.0557 7.4599,17.0557 0.2059,0 1.9304,-0.7854 3.8309,-1.7453 z m -8.1864,-18.6746 c 0,-1.1423 5.9775,-4.0503 10.4777,-5.0971 3.9711,-0.9237 3.2826,2.0273 -0.8789,3.766 -4.8856,2.0415 -9.5988,2.6949 -9.5988,1.3311 z m 73.6557,-3.3053 4.2713,-1.4919 -1.0933,-5.7853 c -0.6014,-3.182 -2.0631,-9.0415 -3.248,-13.021 -1.9456,-6.5333 -2.3446,-7.1761 -4.1091,-6.6183 -4.5709,1.4449 -38.0286,14.2268 -38.5164,14.7144 -0.2939,0.2941 1.6978,5.7309 4.4262,12.0815 l 4.9606,11.5468 14.5187,-4.9672 c 7.9855,-2.7318 16.4409,-5.6385 18.79,-6.459 z m -33.6081,-12.4822 c 0,-0.9721 8.1167,-4.5786 12.096,-5.3743 2.1564,-0.4314 2.8053,-0.227 2.8053,0.8855 0,0.9013 -1.9436,2.1735 -5.1573,3.376 -5.3801,2.013 -9.744,2.5115 -9.744,1.1128 z m -23.919,3.2369 c 26.327,-10.0513 73.6179,-27.4307 101.3269,-35.4178 2.7264,-0.7857 2.7493,-0.026 1.3251,1.0045 -0.4428,0.3181 -8.1344,3.2174 -20.9989,7.2782 -12.8645,4.0612 -23.5595,7.6579 -23.7664,7.9929 -0.206,0.335 0.8374,3.5012 2.3208,7.0359 1.4834,3.5345 3.1757,9.1817 3.7607,12.5493 l 1.0639,6.123 23.6093,-7.5251 c 12.9854,-4.1388 23.8858,-7.8012 24.2229,-8.1384 1.0116,-1.0116 -8.7701,-37.2333 -10.569,-39.1381 -0.9692,-1.0259 -49.4236,14.5837 -71.3914,22.999 -20.5144,7.8585 -51.6905,17.2284 -57.3235,17.2284 -2.4626,0 -2.1849,1.5856 1.8549,10.5893 l 2.758,6.1473 4.2992,-1.843 c 2.3644,-1.0135 10.243,-4.1121 17.5075,-6.8854 z m -19.8539,-4.7111 c 0,-0.8628 2.2474,-2.0537 6.1517,-3.2596 7.4383,-2.2974 8.0386,-2.3261 7.654,-0.3643 -0.198,1.0079 -2.3816,2.1167 -6.3551,3.2268 -7.4194,2.073 -7.4506,2.0746 -7.4506,0.3971 z m 89.4083,-13.5749 c 0,-1.1856 7.7068,-4.5986 11.9997,-5.3138 5.1691,-0.8615 3.0991,1.7902 -3.2222,4.1274 -6.1459,2.2725 -8.7775,2.6281 -8.7775,1.1864 z m -79.6585,-0.5085 c 1.7688,-0.4438 2.6852,-2.2746 5.458,-10.9048 1.8329,-5.7043 3.1933,-10.5104 3.0233,-10.6804 -0.169,-0.169 -2.2461,0.1795 -4.6134,0.7748 -3.2897,0.8282 -4.3043,1.5151 -4.3043,2.9135 0,1.8275 -3.169,14.9739 -4.3539,18.0614 -0.4918,1.282 -0.2735,1.4966 1.0191,1.0006 0.905,-0.3472 2.602,-0.8715 3.7712,-1.1651 z m -21.563,-3.3232 c 2.5932,-1.3649 3.2036,-2.295 4.4405,-6.7677 1.915,-6.9253 -2.0358,-14.7101 -8.7533,-17.2482 -2.5357,-0.9581 -12.7454,-1.4185 -12.7454,-0.575 0,0.2297 1.4209,2.848 3.1572,5.821 1.7366,2.9726 4.7375,8.6531 6.6687,12.6229 1.9314,3.9698 3.8911,7.2178 4.3546,7.2178 0.4639,0 1.7588,-0.4818 2.8777,-1.0708 z m -3.3985,-4.2069 c -1.7469,-1.7466 0.029,-7.7611 2.2928,-7.7611 1.1492,0 3.6055,2.8555 3.6055,4.191 0,2.672 -4.2338,5.2346 -5.8983,3.5701 z m -6.199,-12.8716 c -1.4879,-1.7926 -0.5489,-4.2026 1.6373,-4.2026 2.6239,0 4.0189,1.8393 2.9331,3.8678 -1.1115,2.0769 -3.0094,2.2161 -4.5704,0.3348 z m 58.789,12.4138 c 1.9803,-0.5932 3.6004,-1.5016 3.6004,-2.0182 0,-0.517 2.3401,-5.5148 5.2003,-11.106 2.8602,-5.5916 4.9925,-10.3742 4.7386,-10.6282 -0.2535,-0.2534 -2.785,0.2709 -5.6248,1.1659 l -5.1631,1.6275 -3.7662,10.6136 c -2.0719,5.8374 -3.7668,10.7958 -3.7668,11.0189 0,0.6209 0.8699,0.4984 4.7816,-0.6735 z m 32.7717,-11.5817 c 2.9563,-1.0074 4.3568,-2.0069 4.3568,-3.1094 0,-0.8936 2.0994,-5.9175 4.6652,-11.1643 l 4.6649,-9.5394 -3.0017,0.6592 c -9.1915,2.0188 -9.2092,2.0365 -13.0226,13.0773 -1.9309,5.5902 -3.5194,10.4784 -3.5305,10.8626 -0.029,1.0127 0.9889,0.8764 5.8679,-0.786 z m 31.9512,-10.7503 c 2.2393,-0.5637 4.0712,-1.4494 4.0712,-1.9679 0,-0.5185 1.7337,-4.8959 3.8526,-9.7274 4.413,-10.0626 4.1498,-11.5529 -1.7271,-9.7786 -3.3922,1.0241 -3.6992,1.48 -8.3,12.3204 -3.2123,7.5695 -4.3169,11.0801 -3.3723,10.7177 0.7725,-0.2965 3.2366,-1.0003 5.4756,-1.5642 z m -94.6506,-5.6072 c 1.994,-1.2247 2.7829,-2.1658 2.0318,-2.4237 -0.6756,-0.2324 -5.3611,-1.9888 -10.4122,-3.9044 l -9.1843,-3.4824 -2.8592,1.8103 c -1.5726,0.9958 -2.857,2.0835 -2.8541,2.4174 0,0.4723 17.4956,7.1933 19.5527,7.5127 0.2561,0.04 1.9328,-0.8284 3.7253,-1.9299 z m 24.3216,-13.5057 c 2.5025,-1.362 4.5501,-2.7261 4.5501,-3.0313 0,-0.632 -20.6882,-8.4625 -22.3585,-8.4625 -1.1901,0 -8.3234,4.8053 -8.3559,5.629 0,0.2785 3.6474,1.692 8.1294,3.1411 4.4819,1.4491 9.197,3.1952 10.4774,3.88 2.9834,1.5959 2.3124,1.6986 7.5575,-1.1563 z m 31.2857,-17.3145 c 3.2198,-1.6648 5.8534,-3.2364 5.8526,-3.4927 0,-0.2561 -5.432,-2.6918 -12.0696,-5.4126 l -12.0682,-4.9468 -6.0699,3.55 c -3.3388,1.9523 -6.0784,3.7736 -6.0881,4.0471 0,0.2735 3.8589,1.6706 8.5969,3.1047 4.7383,1.434 10.0819,3.3652 11.8747,4.2913 1.7926,0.9264 3.4526,1.7295 3.6884,1.7849 0.2349,0.055 3.0634,-1.2614 6.2832,-2.9259 z m 30.3131,-15.721 3.8887,-1.9839 -2.895,-1.0431 c -1.5925,-0.5737 -7.1557,-2.9016 -12.3634,-5.1736 l -9.4684,-4.1306 -6.1077,3.012 c -3.3594,1.6563 -5.9273,3.1923 -5.7069,3.4127 0.2218,0.2218 5.3883,1.696 11.4835,3.2787 6.0953,1.5826 11.7269,3.2548 12.5147,3.716 2.2612,1.3243 4.4701,1.0465 8.6545,-1.0882 z" fill="#00B894" transform="translate(105.17608,-18.748129) translate(-8318.4787,-3146.6312)"/>
</svg>