<?xml version="1.0" ?><svg height="291.52209mm" viewBox="0 0 179.04356 291.52209" width="179.04356mm" xmlns="http://www.w3.org/2000/svg">
    <path color="#000" d="m 17909.076,8143.8628 c -15.929,0.4359 -34.865,4.3719 -59.796,14.3044 15.394,19.1456 -17.471,89.4318 -95.935,83.4637 -21.923,48.556 -31.568,94.7111 -8.12,154.1559 l 40.336,142.9483 c -27.415,28.5369 -33.551,58.2928 -7.608,89.8814 l -35.005,112.8175 34.046,19.8605 c 0,0 -15.023,62.1428 51.938,76.6946 23.721,5.155 56.308,6.8677 90.65,5.5131 l 6.544,301.255 c -68.715,6.7925 -120.936,40.1635 -120.936,59.6338 0,21.7466 70.029,29.7903 150.558,29.7903 80.525,0 145.807,-17.6225 145.807,-39.369 0,-20.193 -60.563,-47.1332 -133.688,-50.8851 l -6.587,-303.5006 c 49.256,-5.4509 96.414,-17.0285 121.225,-34.1012 49.272,-33.8974 32.145,-115.5591 20.353,-130.4531 -11.798,-14.8941 -44.897,-119.161 -44.897,-119.161 0,0 46.962,-32.1367 148.466,61.1346 38.673,35.5388 186.137,43.7618 192.426,-90.9248 8.758,-187.5243 -151.97,-151.3381 -177.816,-113.1265 l 21.83,35.9207 c 26.353,-35.003 150.929,-40.7281 122.506,63.6888 -19.329,70.9935 -106.142,93.5198 -174.188,36.7402 -55.267,-46.1141 -146.749,-64.2887 -146.918,-62.5923 0,0 72.721,-228.4229 4.757,-257.139 -69.184,-29.2301 -78.366,-65.8069 -71.522,-71.224 -23.682,-7.0668 -41.878,-16.051 -68.426,-15.3262 z" fill="#FFFFFF" overflow="visible" paint-order="fill markers stroke" transform="translate(80.869185,105.16031) matrix(0.26458333,0,0,0.26458333,-4771.3746,-2259.0324)"/>
    <path d="m 17853.225,9239.9276 c -49.212,-7.2738 -72.688,-29.3925 -56.193,-52.9443 4.109,-5.863 26.522,-17.3158 49.807,-25.4505 81.184,-28.362 72.306,-19.891 72.306,-69.0034 0,-39.2901 -10.403,-229.3198 -12.675,-231.5949 -0.545,-0.5286 -21.165,-3.7284 -45.85,-7.1081 -75.08,-10.2801 -94.055,-22.8119 -94.055,-62.1139 0,-19.7009 -11.34,-36.168 -24.908,-36.168 -4.284,0 -7.787,-2.5967 -7.787,-5.7704 0,-9.0392 33.185,-105.2533 38.575,-111.8279 3.057,-3.7327 -1.183,-11.6413 -11.585,-21.6059 -15.003,-14.3714 -16.103,-17.8367 -12.828,-40.4316 4.381,-30.2388 10.974,-43.7857 21.312,-43.7857 5.825,0 7.089,-4.5644 4.899,-17.7103 -5.134,-30.8371 -25.121,-87.7501 -35.971,-102.4229 -8.501,-11.5019 -10.435,-23.3013 -10.376,-63.2762 0.11,-75.8919 12.78,-120.0335 32.625,-113.7908 4.823,1.5165 21.596,-3.1988 37.279,-10.4784 32.238,-14.9682 54.499,-43.3204 43.976,-56.0047 -22.288,-26.8515 100.044,-39.2252 141.829,-14.3464 0.981,0.5857 2.491,7.4661 3.346,15.2896 2.218,20.2045 16.359,33.5994 47.153,44.6734 33.83,12.1645 54.493,39.8601 58.155,77.9365 2.758,28.7047 -10.087,96.0685 -26.086,136.7759 -5.335,13.5873 -10.56,31.8997 -11.612,40.6938 -1.799,15.0831 -0.545,16.2264 22.369,20.1591 28.63,4.9175 66.078,22.5667 113.803,53.6392 45.965,29.9303 93.064,38.8857 124.293,23.6342 31.879,-15.5676 57.539,-76.7072 45.491,-108.3927 -9.127,-24.0178 -60.504,-31.3286 -95.341,-13.5682 -11.754,5.9942 -23.279,10.8986 -25.601,10.8986 -4.081,0 -22.396,-36.082 -23.094,-45.5088 -0.163,-2.5519 10.648,-10.5215 24.092,-17.7102 29.301,-15.6738 83.668,-18.0307 109.367,-4.742 36.843,19.0508 60.373,85.875 53.447,151.7686 -4.937,46.9855 -21.58,69.5756 -69.719,94.6484 -28.428,14.8068 -37.698,17.1386 -56.689,14.2608 -34.215,-5.1861 -83.957,-26.7751 -109.193,-47.3942 -28.303,-23.1258 -50.024,-34.3623 -75.756,-39.1898 -30.07,-5.6405 -30.331,5.4608 -1.498,63.765 39.687,80.2563 46.074,157.9639 14.588,177.4359 -7.875,4.8711 -20.452,14.4118 -27.945,21.2016 -14.059,12.7416 -67.01,29.2639 -93.782,29.2639 -14.887,0 -15.199,0.6474 -15.084,31.3335 0.109,25.1256 12.468,219.8979 17.743,279.2769 0.926,10.4348 -1.657,14.0308 -11.051,15.3648 -11.634,1.6522 -12.293,-0.1581 -12.91,-35.4205 -0.73,-41.7863 -3.014,-94.5383 -8.931,-206.0905 -3.967,-74.8456 -4.289,-76.3251 -16.996,-78.1223 -11.923,-1.686 -12.702,-0.376 -9.793,16.3479 1.744,9.9989 4.708,69.6758 6.589,132.6153 1.879,62.9395 5.737,122.0307 8.571,131.3141 9.297,30.4223 -8.321,49.1321 -27.186,28.8807 -9.352,-10.0397 -12.572,-10.4833 -34.065,-4.695 -33.768,9.0921 -64.672,25.9191 -64.672,35.2112 0,12.7552 24.142,25.0107 55.437,28.1419 63.391,6.3435 209.694,-17.0259 215.497,-34.4217 2.606,-7.8143 -49.381,-33.8663 -76.12,-38.1462 -20.561,-3.2914 -26.321,-9.3521 -13.548,-14.2543 11.052,-4.2401 70.187,16.6051 93.924,33.1078 11.989,8.3341 22.527,20.1504 23.422,26.2586 1.421,9.7553 -4.212,12.5186 -46.32,22.7164 -65.026,15.7481 -167.702,23.8201 -214.675,16.8771 z m 142.211,-408.3049 c 38.521,-8.4737 66.41,-21.9351 88.551,-42.7416 17.165,-16.1267 20.413,-22.7307 20.304,-41.254 -0.218,-36.2825 -9.918,-68.1277 -38.248,-125.5906 -43.949,-89.1539 -47.023,-125.3455 -17.76,-209.2435 16.642,-47.7125 20.2,-65.4968 20.435,-102.1336 0.327,-50.8278 -5.34,-60.9346 -44.51,-79.3713 -12.653,-5.9539 -31.737,-20.4932 -42.412,-32.3094 -18.048,-19.9756 -20.042,-20.8518 -28.413,-12.4822 -7.514,7.5129 -15.911,8.3985 -50.803,5.355 l -41.802,-3.6461 -7.139,17.2415 c -6.735,16.263 -5.677,20.1358 18.67,68.2096 30.598,60.4088 53.904,148.2379 65.293,246.0191 4.245,36.4347 9.253,68.7293 11.133,71.7668 1.995,3.2288 14.332,4.2298 29.699,2.4097 24.266,-2.8745 26.549,-2.1225 29.742,9.8109 10.67,39.8704 -7.406,70.1419 -41.883,70.1419 h -18.746 l -9.852,52.323 c -8.393,44.5405 -11.683,53.0169 -22.13,56.9894 -10.506,3.9949 -37.028,2.4217 -116.305,-6.8988 -12.163,-1.4299 -13.437,0.1472 -11.917,14.7464 2.338,22.3716 10.97,29.6164 45.23,37.9626 35.381,8.6197 128.897,10.1673 162.863,2.6952 z m -103.793,-68.6705 c 19.971,-3.9938 24.315,-12.3955 29.889,-57.8139 3.167,-25.773 2.414,-31.3334 -4.223,-31.3334 -5.717,0 -10.076,11.2038 -14.931,38.3897 -3.776,21.1145 -8.73,39.5462 -11.019,40.9592 -6.773,4.1878 -11.738,-8.424 -6.119,-15.5583 2.844,-3.6151 5.357,-10.2513 5.575,-14.7469 0.839,-17.2154 4.653,-36.1436 8.56,-42.4627 2.872,-4.6493 -1.373,-6.581 -14.473,-6.581 -20.086,0 -77.064,-17.8683 -89.265,-27.9942 -4.147,-3.4401 -8.277,-5.2923 -9.182,-4.1158 -6.528,8.4823 -25.339,71.8495 -25.339,85.3496 0,16.9823 3.766,19.4628 54.492,35.8909 12.256,3.9697 56.226,3.979 76.035,0 z m 85.058,-111.5559 c 12.075,-5.7605 16.429,-11.9826 17.721,-25.3105 1.265,-13.1224 -0.49,-17.6726 -6.812,-17.6726 -4.888,0 -8.522,4.6477 -8.522,10.8986 0,5.9943 -2.453,10.8987 -5.45,10.8987 -2.997,0 -5.449,-3.6784 -5.449,-8.174 0,-12.2337 -9.188,-9.8507 -12.621,3.2728 -3.558,13.6053 -14.625,8.8236 -14.625,-6.319 0,-5.8172 -2.453,-10.5771 -5.45,-10.5771 -2.997,0 -5.449,4.9044 -5.449,10.8986 0,5.9943 -2.163,10.8987 -4.812,10.8987 -2.648,0 -6.097,-4.9044 -7.666,-10.8987 -3.826,-14.6428 -23.52,-14.2488 -27.389,0.5482 -3.21,12.2675 -14.626,9.4617 -14.626,-3.5944 0,-11.7236 -9.204,-9.4774 -12.479,3.0462 -4.048,15.4973 -14.768,13.5202 -14.768,-2.7246 0,-16.3725 -13.808,-18.471 -17.928,-2.7247 -4.048,15.4973 -14.768,13.5203 -14.768,-2.7246 0,-16.7463 -11.165,-17.7201 -21.083,-1.8381 -6.577,10.5248 -5.988,12.856 5.499,21.7994 7.072,5.5076 27.573,14.6984 45.556,20.4245 38.068,12.1204 105.585,12.055 131.121,-0.1253 z m 348.418,-30.6263 c 20.8,-10.3416 51.768,-39.5608 51.768,-48.8464 0,-3.9453 -6.054,-7.1048 -13.623,-7.1048 -10.898,0 -13.624,2.7246 -13.624,13.6233 0,7.4927 -2.452,13.6231 -5.449,13.6231 -2.997,0 -5.449,-2.4521 -5.449,-5.4492 0,-2.9971 -2.736,-5.4493 -6.082,-5.4493 -3.405,0 -4.834,4.8046 -3.236,10.8931 3.607,13.7934 -4.73,19.4933 -11.313,7.7342 -6.916,-12.3623 -25.324,-7.4557 -27.427,7.3124 -2.375,16.6389 -11.885,15.5044 -11.885,-1.4179 0,-10.8986 -2.724,-13.6233 -13.623,-13.6233 -8.228,0 -13.623,3.1095 -13.623,7.8526 0,15.8072 -11.111,14.2281 -14.37,-2.0419 -3.994,-19.9717 -5.4,-20.3079 -18.631,-4.4483 l -10.228,12.2609 -0.327,-19.0725 c -0.327,-17.0389 -1.128,-18.0557 -7.597,-9.5363 -9.988,13.1562 -14.211,11.9411 -14.211,-4.087 0,-14.8744 -5.101,-17.2421 -15.259,-7.0841 -5.084,5.0859 -6.538,3.9464 -6.538,-5.1277 0,-14.735 -8.654,-20.563 -13.149,-8.8536 -4.131,10.7613 25.519,38.2046 64.579,59.7713 45.306,25.0161 72.682,27.2879 109.324,9.0714 z m -540.048,-21.0223 c 4.136,-10.7781 -0.327,-18.581 -10.654,-18.581 -8.49,0 -9.732,5.1027 -4.544,18.6268 4.239,11.043 10.952,11.0229 15.198,-0.054 z m 136.815,-47.1899 c -11.192,-134.9978 -32.189,-207.4337 -88.61,-305.7424 -6.682,-11.6376 -12.055,14.1894 -12.131,58.2781 l -0.109,48.1604 21.242,-3.5878 c 27.093,-4.5779 30.543,1.28 19.655,33.353 -8.958,26.3855 -7.248,32.2865 10.289,35.5022 13.16,2.4125 17.231,10.678 25.077,50.9346 3.504,17.9828 8.686,43.2245 11.514,56.0925 3.226,14.6951 3.221,26.8264 0,32.6189 -5.884,10.5167 -5.411,11.9689 -20.075,-61.3569 -11.209,-56.044 -15.045,-62.775 -35.791,-62.775 -16.669,0 -16.757,-0.1471 -13.182,-23.1595 7.319,-47.1114 8.022,-45.1519 -15.448,-43.0735 l -21.269,1.8833 3.777,-63.0947 3.77,-63.0954 -17.927,3.4146 c -22.354,4.2576 -24.245,5.8847 -16.202,13.9284 12.959,12.958 4.735,118.4815 -10.784,138.4548 -2.872,3.6903 -0.741,15.6117 5.346,29.9712 14.168,33.4146 23.317,72.8643 25.628,110.4416 1.084,17.6579 3.994,34.1317 6.474,36.6079 6.343,6.3425 70.519,19.6551 98.812,20.4964 l 23.672,0.7041 z m -98.757,-1.1013 c -1.667,-4.3523 -1.45,-10.4828 0.49,-13.6233 6.343,-10.2691 13.781,-5.9996 13.781,7.913 0,14.7726 -9.361,18.5173 -14.276,5.7103 z m -3.885,-39.3145 c -2.001,-1.9977 -3.636,-8.3326 -3.636,-14.0772 0,-14.1322 13.161,-9.0992 15.367,5.876 1.684,11.4571 -4.293,15.6384 -11.731,8.2012 z m -17.39,-51.2704 c -4.081,-12.8658 -0.615,-18.7276 7.946,-13.4369 7.143,4.4173 7.743,24.7459 0.73,24.7459 -2.795,0 -6.697,-5.0892 -8.676,-11.309 z m -18.942,-37.7347 c 0,-12.9922 8.371,-14.4549 13.041,-2.279 4.676,12.1798 4.305,13.1775 -4.866,13.1775 -4.539,0 -8.175,-4.8438 -8.175,-10.8985 z m 600.759,122.6093 c 2.023,-10.5847 0.327,-13.6232 -7.536,-13.6232 -6.206,0 -10.147,3.8809 -10.147,9.9901 0,20.5679 13.901,23.4239 17.683,3.6331 z m -246.553,-5.4493 c 0,-15.5839 -6.349,-17.4983 -16.692,-5.0341 -5.907,7.1185 -5.786,9.4371 0.693,13.5399 12.49,7.9021 15.999,6.0362 15.999,-8.5058 z m -42.816,-2.65 c 8.087,-0.054 15.863,-3.8755 17.727,-8.7401 5.373,-13.9944 -2.228,-20.2045 -12.904,-10.5444 -8.964,8.1107 -9.94,7.8393 -13.459,-3.7317 -3.777,-12.419 -3.832,-12.4064 -10.557,2.6353 -7.078,15.8351 -14.281,14.6254 -14.281,-2.3994 0,-5.4945 -2.453,-9.9901 -5.45,-9.9901 -6.147,0 -7.215,16.2955 -1.973,29.9646 2.332,6.0814 7.259,8.0431 14.986,5.9691 6.332,-1.699 17.994,-3.1224 25.911,-3.1633 z m 293.484,-27.3212 c 0,-5.9942 -2.191,-10.8985 -4.867,-10.8985 -6.125,0 -11.835,14.1741 -7.47,18.5395 6.56,6.5599 12.337,2.9808 12.337,-7.641 z m -6.387,-63.2151 c -7.89,-7.8934 -8.403,-7.3828 -5.869,5.8699 1.984,10.3695 4.452,12.838 8.643,8.6442 4.196,-4.1937 3.4,-8.3385 -2.774,-14.5141 z m -68.711,-26.5306 36.609,0.169 -11.678,-12.4288 c -21.863,-23.2745 -96.965,-13.3333 -96.965,12.8353 0,6.6558 3.504,7.4034 17.711,3.778 9.743,-2.486 34.183,-4.4445 54.323,-4.3523 z m -551.856,-61.4724 c 7.057,-25.4124 7.488,-81.374 0.66,-85.5939 -9.231,-5.7049 -13.46,9.9248 -15.771,58.2563 -2.451,51.2703 4.812,64.4141 15.111,27.3376 z m 177.179,-183.0874 c 19.127,-13.9857 4.676,-21.6382 -34.026,-18.0236 -47.697,4.4537 -53.299,11.2675 -16.451,19.9957 27.535,6.5211 39.503,6.0536 50.477,-1.9721 z" fill="#00B894" transform="translate(80.869185,105.16031) matrix(0.26458333,0,0,0.26458333,-4771.3746,-2259.0324)"/>
</svg>