<?xml version="1.0" ?><svg height="310.38986mm" viewBox="0 0 346.27408 310.38986" width="346.27408mm" xmlns="http://www.w3.org/2000/svg">
    <g paint-order="markers stroke fill">
        <path d="m 44982.26,124.35742 c -34.497,0.0936 -85.648,25.17744 -101.352,72.1582 -21.649,64.7706 12.773,82.9395 47.858,98.6543 62.733,3.2012 99.111,-33.32151 112.045,-76.53711 12.935,-43.2157 -12.167,-84.65009 -44.938,-92.77539 -4.096,-1.01565 -8.685,-1.51337 -13.613,-1.5 z m -3.623,219.53711 c -13.594,0.26602 -29.014,1.80298 -46.153,3.6582 -68.553,7.4209 -78.252,32.7393 -81.97,55.875 -3.719,23.1356 -16.979,139.25111 -19.243,162.09571 -2.263,22.8447 -26.998,97.78134 -33.466,138.52344 -6.467,40.7421 8.246,55.72752 45.756,66.64062 0,0 8.893,4.0742 46.564,5.5293 37.672,1.455 86.984,-62.85846 101.859,-95.59766 14.874,-32.7392 63.379,-215.34983 56.75,-279.08203 -4.971,-47.79915 -29.316,-58.44063 -70.097,-57.64258 z m -472,572.52149 c -5.643,-0.16434 -11.262,0.0471 -16.817,0.66992 -44.436,4.9821 -96.054,27.46772 -121.789,44.70312 -25.734,17.2353 -42.49,15.61937 -64.783,15.88867 -22.293,0.2693 -82.291,5.38728 -101.592,26.79687 -19.301,21.4095 -14.029,60.1758 -14.029,60.1758 0,0 -110.872,13.9627 -116.887,57.2402 -3.93,28.2747 -0.448,49.4163 16.908,56.5528 17.355,7.1365 159.791,55.4761 190.762,66.3828 l 16.166,-5.5625 c 0,0 7.132,45.4015 65.334,28.3008 58.201,-17.1007 516.652,-102.5777 533.709,-106.6172 17.056,-4.0396 169.668,-35.9509 239.24,-56.2832 69.573,-20.3323 51.619,-34.4717 43.539,-76.8868 -8.079,-42.41506 -87.227,-71.4985 -153.658,-69.748 -66.43,1.7504 -112.214,10.23286 -170.715,24.50586 -58.501,14.273 -193.015,46.87694 -193.015,46.87694 0,0 -12.239,-38.48206 -44.219,-67.19726 -27.982,-25.12571 -68.654,-44.64849 -108.154,-45.79882 z" fill="#FFFFFF" transform="translate(164.87568,-35.645128) matrix(0.26458333,0,0,0.26458333,-10896.99,648.98548) translate(-3313.5291,-2437.8203)"/>
        <path d="m 41678.344,-2317.9629 c -3.939,-0.2486 -8.128,-0.2251 -12.627,0.035 -33.02,1.91 -57.543,13.88 -80.303,39.1953 -10.618,11.8086 -11.66,16.375 -11.66,16.375 -13.875,-3.9622 -21.909,-4.7483 -23.536,-1.4863 -2.474,4.9606 -3.124,7.03 4.041,12.5879 7.691,5.9639 8.065,7.6888 4.492,20.5566 -5.79,20.862 -4.637,44.3718 3,61.1953 7.246,15.9575 17.285,24.2216 38.733,31.877 18.715,6.6789 36.042,6.1997 61.418,-1.6973 48.012,-14.9434 74.305,-47.9017 77.834,-97.5625 1.641,-23.0864 0.81,-28.2682 -6.787,-42.4082 -4.76,-8.8592 -15.667,-21.6338 -24.413,-28.1523 -8.825,-6.5773 -18.377,-9.7698 -30.193,-10.5156 z m -21.18,12.1856 c 33.495,-1.1473 63.139,25.4338 62.856,62.5019 -0.315,40.3325 -14.058,62.6289 -48.719,79.0254 -38.997,18.4499 -80.454,11.8681 -94.012,-14.9258 -4.853,-9.5908 -5.9,-31.763 -2.339,-49.5586 1.565,-7.8342 4.282,-11.1855 9.062,-11.1855 8.356,0 12.417,-9.0941 6.982,-15.6406 -5.645,-6.8047 21.836,-35.6343 42.688,-44.7793 7.819,-3.4298 15.753,-5.1728 23.482,-5.4375 z m -37.541,30.2129 c -2.505,-0.053 -4.612,0.1997 -5.131,0.3613 -12.298,3.8332 -13.171,19.1291 -3.203,14.2773 6.674,-3.2487 9.801,-1.2786 14.188,0.4688 8.87,3.5332 10.71,-9.0698 1.656,-13.6367 -2.104,-1.0614 -5.005,-1.4181 -7.51,-1.4707 z m 52.395,3.4297 c -7.331,0 -17.699,10.2522 -14.918,14.7519 1.168,1.8901 5.074,2.5008 8.68,1.3555 3.604,-1.1443 7.592,-0.4053 8.859,1.6426 3.312,5.3637 11.521,4.5855 13.781,-1.3067 2.279,-5.9352 -8.206,-16.4433 -16.402,-16.4433 z m -9.518,63.2734 c -2.322,-0.5957 -7.037,1.1569 -13.812,5.3437 -13.758,8.5028 -37.913,9.9344 -50.848,3.0117 -4.313,-2.3129 -8.672,-3.3703 -9.683,-2.3574 -3.359,3.3565 3.157,10.1154 14.513,15.0586 21.892,9.5268 50.827,3.5219 59.295,-12.3086 2.789,-5.2091 2.858,-8.1523 0.535,-8.748 z m -9.945,100.9258 v 0 c -13.312,0.4809 -28.346,2.3642 -45.287,5.6054 -33.696,6.4472 -44.514,12.0225 -61.899,31.9102 -33.752,38.6069 -60.505,100.9361 -31.714,73.8906 l 8.931,-8.3926 v 16.5215 c 0,16.6999 4.831,24.282 11.328,17.7852 1.947,-1.9486 5.098,-16.2232 7.002,-31.7227 5.004,-40.7474 5.673,-42.8394 18.358,-57.2851 16.883,-19.229 30.36,-23.433 81.437,-25.4004 50.957,-1.9629 61.102,0.5482 71.576,17.7226 25.056,36.7613 14,65.3443 -1.394,147.7461 -14.596,78.1326 -22.997,108.3184 -47.709,168.2364 -16.76,40.6426 -18.221,42.8911 -27.143,41.8164 -8.015,-0.9666 -11.337,1.8491 -22.173,18.7929 l -12.75,19.9278 -25.84,-0.022 c -34.709,-0.026 -51.865,-5.2597 -67.903,-20.7129 -16.017,-15.4354 -16.875,-24.5468 -6.554,-69.3672 3.915,-17.0001 13.422,-64.7996 15.177,-83.9121 1.755,-19.1125 -4.815,-15.8752 -7.746,-7.9414 -0.935,2.5307 -5.34,17.6543 -8.859,33.4043 -3.522,15.7499 -10.482,40.7167 -15.467,55.4824 -10.784,31.9358 -12.453,64.0505 -3.842,73.8906 4.354,4.9731 6.276,16.8005 7.625,46.9532 1.575,35.1323 3.127,42.9453 12.08,60.8535 7.316,14.6311 12.592,20.8732 18.327,21.6875 10.048,1.4266 10.291,-4.1215 1.097,-24.9063 -6.883,-15.5634 -18.776,-78.3609 -14.795,-78.1347 1.136,0.064 10.923,3.232 21.75,7.041 10.828,3.8089 28.949,6.9769 40.27,7.0429 11.321,0.064 20.584,0.7403 20.584,1.5039 0,0.7635 -10.433,22.9115 -23.182,49.2188 -16.165,33.3557 -34.039,80.8094 -59.062,156.8105 -19.736,59.94 -30.149,101.5848 -35.881,115.4414 -4.221,10.2053 -35.153,-14.8791 -37.986,-16.8105 -36.661,-25.0317 -45.546,-28.1497 -43.698,-15.336 1.275,8.8482 65.473,63.4676 74.737,63.5879 3.069,0.04 8.312,-1.9426 11.652,-4.4043 8.69,-6.403 36.492,-77.6391 66.512,-170.4218 19.766,-61.0942 32.201,-92.4442 52.525,-132.4414 23.185,-45.6245 28.521,-53.5585 41.275,-61.3496 17.806,-10.8762 26.089,-24.5053 50.057,-82.3809 23.595,-56.974 32.481,-89.0959 44.158,-159.6484 5.176,-31.2726 11.829,-68.9405 14.783,-83.7051 6.501,-32.5061 3.009,-56.69 -12.117,-83.8965 -13.872,-24.9531 -38.302,-36.1265 -78.238,-34.6836 z m 57.223,56.08 c -9.506,-0.1379 -9.975,0.9398 -26.297,60.711 -17.504,64.102 -34.613,115.2943 -39.559,118.3496 -5.86,3.6236 -39.111,-16.7234 -64.728,-39.6113 -14.4,-12.8656 -35.432,-29.4039 -46.735,-36.7481 -12.034,-7.822 -20.562,-15.9484 -20.582,-19.6172 -0.02,-3.4449 -2.25,-6.2636 -4.965,-6.2636 -2.711,0 -7.236,-3.4741 -10.054,-7.7188 -6.385,-9.6151 -20.686,-7.0463 -33.807,6.0742 -7.183,7.1853 -12.366,8.8028 -28.201,8.8028 -10.669,0 -26.927,2.5551 -36.125,5.6777 -13.033,4.4257 -17.326,4.7066 -19.449,1.2695 -3.656,-5.9142 -14.188,-1.5295 -14.188,5.9063 0,4.8329 -0.977,5.1089 -5.324,1.5019 -7.902,-6.5587 -16.126,-1.6495 -16.262,9.6934 -0.09,8.4918 -0.649,9.0352 -3.759,3.6914 -7.838,-13.4538 -21.188,-2.7886 -21.188,16.9258 0,5.9573 -6.496,17.1418 -17.926,30.8769 -18.562,22.3052 -81.187,125.6114 -123.46,203.6582 -13.326,24.6091 -39.214,72.1273 -57.525,105.5957 -18.313,33.4683 -35.13,64.8777 -37.381,69.7989 -4.423,9.6878 -24.187,25.6622 -47.607,38.4804 -11.982,6.5575 -20.401,8.0634 -45.282,8.1074 -36.062,0.063 -71.193,7.594 -91.83,19.6895 -16.315,9.5599 -26.429,28.5968 -26.429,49.7402 0,10.8541 -1.528,12.6786 -15.204,18.1504 -25.726,10.2947 -26.422,21.6018 -1.089,17.8028 13.332,-1.9994 15.525,-1.3739 17.166,4.8945 1.072,4.1003 5.513,7.7007 10.345,8.3848 10.137,1.4333 10.193,2.9332 2.955,78.0957 -3.543,36.794 -5.735,48.7441 -7.558,41.166 -1.413,-5.8734 -7.055,-30.0079 -12.538,-53.6328 -13.244,-57.0568 -15.047,-39.4615 -3.182,31.08 11.163,66.3938 14.858,78.887 22.873,77.3555 4.93,-0.9434 6.33,-8.1079 8.375,-42.8926 3.807,-64.7541 13.283,-141.65 20.981,-170.2832 3.845,-14.2957 6.991,-27.9436 6.991,-30.3281 0,-8.9408 -10.125,10.7067 -18.557,36.0176 -9.803,29.4233 -14.955,29.3428 -18.121,-0.2813 -1.703,-15.9176 -1.288,-17.0019 6.481,-17.0019 12.191,0 14.152,-6.5124 4.924,-16.336 -7.829,-8.3362 -7.892,-8.9002 -1.724,-15.7148 12.974,-14.3376 36.375,-19.8496 84.269,-19.8496 26.972,-10e-4 51.345,1.916 61.364,4.8301 15.614,4.5394 42.441,22.7875 42.441,28.8672 0,8.1398 -33.316,12.8488 -93.068,13.1523 -60.384,0.3078 -62.681,0.5855 -63.739,7.6914 -0.948,6.382 1.411,7.7144 17.567,9.9356 43.206,5.9429 110.03,2.27 133.386,-7.334 5.743,-2.3602 6.33,-1.5399 4.184,5.8496 -4.835,16.6404 -14.926,25.9553 -37.867,34.9668 -20.281,7.9665 -27.916,8.9991 -62.481,8.4551 -21.655,-0.3398 -45.816,-1.0669 -53.689,-1.6153 -10.731,-0.7459 -14.32,0.3385 -14.32,4.3262 0,11.5051 19.578,16.1562 68.009,16.1562 46.449,0 46.585,-0.025 73.801,-13.33 31.802,-15.5469 39.228,-24.9121 41.098,-51.8516 0.745,-10.7173 2.241,-20.9256 3.332,-22.6855 1.086,-1.761 -0.423,-7.8423 -3.358,-13.5137 -5.45,-10.5408 -16.273,-19.0744 -37.15,-29.293 l -11.768,-5.7598 17.409,-11.2793 c 9.572,-6.2033 21.818,-12.9556 27.211,-15.0058 14.269,-5.4243 62.702,-4.5638 82.752,1.4707 17.191,5.1738 66.187,36.2046 66.187,41.918 0,5.7719 -15.97,17.2309 -94.408,67.7402 -48.393,31.1622 -122.404,70.5145 -146.781,78.043 -28.18,8.7047 -38.104,9.1193 -56.998,2.3808 -12.276,-4.3827 -13.509,-4.2808 -12.518,1.0508 3.088,16.5831 45.861,23.2588 81.861,12.7754 38.932,-11.3363 125.85,-62.423 165.819,-97.4648 11.602,-10.1712 28.172,-22.6417 36.824,-27.7129 l 15.734,-9.2207 6.682,8.2539 c 6.387,7.886 6.987,7.9737 13.57,2.0175 9.222,-8.3461 11.694,-7.8587 11.694,2.3047 0,8.3108 -0.613,8.4873 -23.247,6.67 -20.919,-1.6794 -24.701,-0.9018 -37.775,7.75 -28.572,18.9045 -50.934,69.3198 -51.344,115.7343 1.724,20.0448 4.076,22.4021 -14.937,25.9649 -7.961,1.4919 -22.636,2.4003 -32.297,5.332 -22.608,6.8577 -20.693,7.3405 -27.506,-6.9453 -7.796,-16.3468 -19.045,-23.1938 -39.365,-23.9629 -29.367,-1.1111 -67.035,29.3156 -67.035,54.1465 0,13.4726 -2.264,14.5325 -18.672,8.7441 -13.668,-4.823 -28.476,-4.9475 -31.442,-3.5996 -0.996,0.4527 -7.863,4.1627 -6.439,8.2676 2.675,7.7057 30.948,19.775 47.678,18.334 9.098,-0.7845 14.728,1.3012 22.17,8.2129 5.485,5.0944 13.194,11.0403 17.129,13.2129 h -0.01 c 11.78,6.499 27.9,4.7253 47.974,-5.2793 20.202,-10.0674 32.529,-25.5253 32.549,-40.8262 0.01,-8.569 1.873,-9.495 31.336,-15.5957 17.227,-3.5673 34.183,-8.0054 37.682,-9.8613 4.926,-2.614 8.758,-0.9767 16.984,7.248 14.178,14.1776 38.498,21.7278 73.541,22.8301 26.697,0.8397 33.307,-6.0486 45.296,-15.166 18.918,-14.3884 31.181,-42.2844 33.914,-74.8965 2.083,-24.8276 2.923,-26.8163 16.813,-39.7734 14.411,-13.4417 14.64,-14.0474 15.912,-42.0352 l 1.289,-28.3965 18.437,-4.2793 c 17.141,-3.9777 18.783,-3.7633 23.35,3.0469 7.234,10.7935 16.137,9.652 13.285,-1.7031 -2.715,-10.8155 5.955,-15.8532 16.234,-9.4336 8.714,5.442 10.313,5.2339 10.313,-1.3379 0,-3.0145 2.508,-6.4438 5.574,-7.6211 4.512,-1.7312 4.002,-2.939 -2.683,-6.332 -6.675,-3.3885 -9.035,-3.1684 -12.297,1.1503 -2.217,2.9395 -10.271,5.6058 -17.895,5.9258 -7.625,0.32 -17.89,2.2002 -22.809,4.1797 -4.924,1.9784 -14.945,4.6928 -22.268,6.0313 -12.574,2.2972 -13.59,1.7715 -18.27,-9.4258 -2.724,-6.5211 -13.107,-21.6529 -23.072,-33.627 l -18.117,-21.7715 12.664,-22.8906 c 6.963,-12.5909 25.341,-42.4879 40.838,-66.4394 15.498,-23.9504 44.411,-77.1064 64.256,-118.1231 75.205,-155.4558 81.969,-172.3787 82.049,-205.4531 0.04,-13.2662 3.239,-17.0299 10.279,-26.1406 6.915,-8.9488 13.543,-2.7224 44.893,22.8203 49.22,46.3351 91.208,64.7627 107.23,47.0586 11.604,-12.8215 55.884,-157.1231 56.098,-182.8301 0.835,-10.1397 -4.642,-16.1456 -9.791,-16.252 z m -276.926,109.5743 c 5.702,-0.2899 7.095,1.4212 8.48,6.7168 1.559,5.965 3.973,7.5155 9.463,6.08 11.914,-3.1149 8.659,1.937 -12.961,20.1133 -16.213,13.6318 -21.224,16.7716 -33.601,11.8125 -7.892,-2.7756 -32.321,-14.1534 -22.367,-16.291 8.137,0 11.873,-3.4479 11.873,-11.2148 0,-6.8399 12.436,-13.2201 31.814,-16.3184 3.018,-0.4825 5.398,-0.8018 7.299,-0.8984 z m 37.332,27.1425 c 4.101,-0.6105 6.06,3.9828 7.494,13.5411 1.292,8.6131 0.64,22.0078 -1.449,29.7636 -4.564,16.9515 -109.163,223.9193 -132.363,261.9082 -9.018,14.7646 -27.664,44.107 -41.43,65.2051 -13.77,21.0981 -25.839,38.1865 -26.822,37.9746 -0.985,-0.2107 -13.066,-4.5184 -26.848,-9.5742 -31.151,-11.429 -79.961,-13.0399 -105.596,-3.4844 -17.679,6.5906 -39.373,11.0143 -39.373,8.0274 0,-1.0427 6.118,-11.0696 13.596,-22.2813 17.481,-26.209 36.268,-58.6506 68.808,-118.8223 14.373,-26.5775 38.964,-70.8755 54.647,-98.4375 58.779,-103.3091 80.056,-134.2304 92.363,-134.2304 4.169,0 8.381,-3.5989 10.389,-8.8809 6.397,-12.3656 10.505,-4.5087 18.533,-6.9843 4.278,2.8036 10.43,7.8757 14.004,10.2831 11.571,7.7954 35.333,15.7368 48.645,12.1563 6.289,-1.6927 17.467,-9.9352 25.052,-18.4766 10.005,-11.2613 16.249,-17.0769 20.35,-17.6875 z m 293.269,402.7793 c -5.3,-1.7445 -9.884,14.5741 -6.529,23.2325 2.259,5.8204 2.811,5.7568 7.682,-0.8614 5.959,-8.0989 5.333,-20.236 -1.153,-22.3711 z m -577.252,2.8457 c 23.325,-0.1865 68.867,10.0523 75.874,17.0567 2.556,2.5577 1.253,7.6763 -4.2,16.498 v 0 c -4.346,7.0342 -8.193,12.791 -8.545,12.791 -0.352,0 -11.092,-6.9964 -23.869,-15.5488 -12.776,-8.5525 -32.089,-18.9391 -42.916,-23.0801 l -19.685,-7.5312 z m 380.702,0.584 c -1.342,-0.3969 -2.153,0.8627 -3.2,3.5528 -6.818,17.5099 41.054,76.9062 75.633,93.8378 19.724,9.4803 24.094,7.4268 7.119,22.1036 -7.561,6.5354 -21.608,14.4965 -31.218,17.6875 -18.613,6.1823 -21.266,9.8723 -11.205,15.5879 6.679,3.7946 17.135,2.268 35.58,-5.1954 12.148,-4.9156 42.302,-30.98 47.863,-41.373 4.767,-8.9022 0.354,-17.4863 -8.981,-17.4863 -4.397,0 -17.914,-4.9569 -30.041,-11.0157 -20.335,-10.1622 -44.147,-32.7542 -75.168,-71.3125 -3.168,-3.9369 -5.041,-5.9897 -6.382,-6.3867 z m 102.33,9.9668 z m 0,0 c -4.537,0.01 -4.407,9.4315 0.25,18.1309 4.459,8.3328 10.613,9.0984 10.613,1.3183 0,-7.6044 -6.613,-19.4453 -10.863,-19.4492 z m 41.67,3.5762 c -5.594,0 -10.429,9.6442 -7.342,14.6426 4.228,6.84 12.33,3.1005 12.33,-5.6914 0,-5.2632 -2.054,-8.9512 -4.988,-8.9512 z m -417.623,28.6367 c 5.009,0 24.561,26.257 32.377,43.4843 4.555,10.0376 7.09,23.4652 7.15,37.752 0.06,17.9534 -1.458,23.9206 -7.979,31.3652 -12.566,13.4588 -11.631,12.2316 -17.002,-4.2734 -4.269,-10.0135 -13.551,-25.6367 -23.058,-30.1328 -8.324,-3.7891 -8.912,-5.7442 -8.434,-27.7129 0.501,-22.9982 9.726,-50.4824 16.946,-50.4824 z m 169.914,22.0527 c -0.553,-0.1345 -1.233,-0.066 -2.043,0.2012 -2.626,0.8651 -5.312,5.2508 -5.969,9.7461 -0.814,5.5523 0.332,7.6679 3.578,6.5976 2.626,-0.8651 5.313,-5.25 5.971,-9.7441 0.609,-4.165 0.116,-6.3971 -1.537,-6.8008 z m 301.939,10.2656 c -0.965,0.046 -2.217,1.6066 -4.508,4.7188 -2.674,3.6368 -4,8.8729 -2.943,11.6347 1.061,2.7618 3.417,5.0196 5.237,5.0196 4.888,0 7.782,-9.8233 4.998,-17.002 -1.142,-2.9488 -1.82,-4.4171 -2.784,-4.3711 z m 36.483,7.8418 v 0 c -4.41,0.01 -7.975,5.7717 -5.533,12.1347 2.239,5.8337 2.791,5.8522 8.377,0.2657 4.668,-4.6696 5.03,-6.9266 1.656,-10.3008 -1.466,-1.4675 -3.029,-2.1043 -4.5,-2.1016 z m -1075.955,9.3867 c -0.818,0.4618 -1.295,2.1609 -1.295,5.2793 0,8.0294 7.345,46.5809 11.206,58.8243 2.064,6.5442 6.095,11.6328 9.218,11.6328 6.762,0 4.898,-15.4412 -6.211,-51.4043 -4.932,-15.9668 -10.462,-25.7173 -12.918,-24.3321 z m 999.741,11.9629 c -1.381,0.4491 -2.356,2.2498 -2.356,4.711 0,3.2804 1.733,5.3887 3.85,4.6836 2.116,-0.705 3.847,-2.8133 3.847,-4.6836 0,-1.8702 -1.731,-3.9774 -3.847,-4.6836 -0.53,-0.1763 -1.034,-0.1775 -1.494,-0.027 z m -928.551,3.7813 c -3.038,-0.9886 -2.286,3.6551 2.348,14.4629 10.978,25.6088 44.644,153.5217 48.728,185.1308 1.399,10.8277 3.259,20.8948 4.134,22.3711 2.946,4.9675 7.83,2.7384 10.172,-4.6445 3.826,-12.0513 -5.176,-55.0259 -25.833,-123.3242 -19.244,-63.6364 -30.826,-91.157 -39.549,-93.9961 z m -139.197,1.3906 c -0.722,-0.2259 -1.131,-0.05 -1.15,0.5859 -0.08,2.5434 7.701,19.4582 17.288,37.586 9.59,18.1266 22.543,45.039 28.786,59.8047 6.241,14.7645 13.669,32.0799 16.51,38.4785 6.03,13.5895 12.438,15.2622 12.438,3.2461 0,-23.125 -37.86,-102.8219 -61.002,-128.4043 -5.722,-6.3266 -10.703,-10.6191 -12.87,-11.2969 z m 564.935,14.6758 c 4.111,-0.3814 8.302,0.6351 10.467,3.2441 3.361,4.0527 2.834,6.1757 -2.553,10.2539 -3.74,2.8291 -7.806,5.1918 -9.041,5.2578 -4.119,0.2085 -10.929,-10.262 -8.855,-13.6152 1.841,-2.9803 5.871,-4.7593 9.982,-5.1406 z m 249.893,4.5508 c -1.967,0 -3.578,1.6115 -3.578,3.58 0,1.9685 1.611,3.5782 3.578,3.5782 1.969,0 3.58,-1.6097 3.58,-3.5782 0,-1.9685 -1.611,-3.58 -3.58,-3.58 z m -268.649,8.2265 c 1.796,0.2581 3.559,2.3042 6.848,6.3653 5.409,6.68 6.043,10.0942 3.078,16.5976 -4.505,9.8887 -10.204,10.4039 -18.135,1.6406 -7.693,-8.5028 -7.468,-12.4244 1.164,-20.2343 3.421,-3.0973 5.25,-4.6272 7.045,-4.3692 z m 53.91,8.2578 c 1.466,-0.1221 2.947,-0.078 4.537,0.1153 2.123,0.2582 4.44,0.7843 7.18,1.541 7.141,1.9718 16.459,7.9587 20.707,13.3047 6.878,8.6573 7.53,12.8849 5.965,38.6504 -1.944,32.0118 -7.827,51.6072 -23.301,67.7676 -7.431,7.759 -16.148,16.0566 -28.316,16.0566 -27.724,0 -35.886,-17.0897 -32.406,-67.8516 2.356,-34.4007 11.137,-52.8373 30.298,-63.6054 6.683,-3.7557 10.94,-5.6121 15.336,-5.9786 z m -458.292,9.2852 c -2.386,-0.4102 -5.983,-0.3615 -10.789,0.2832 -28.398,3.8089 -41.724,20.8814 -45.154,57.8398 -2.195,23.6613 6.261,40.1502 25.604,49.9219 7.875,3.9778 14.826,8.4382 15.453,9.9102 0.622,1.4708 4.36,6.7843 8.31,11.8047 7.75,9.8534 23.521,12.3109 31.002,4.832 5.947,-5.9484 5.389,-26.3156 -0.899,-32.6016 -2.857,-2.8567 -11.258,-6.3323 -18.667,-7.7226 -15.053,-2.8236 -33.822,-11.5694 -37.831,-17.627 -4.362,-6.5962 -3.063,-33.851 2.217,-46.4883 3.563,-8.5304 9.092,-13.5135 19.687,-17.7539 14.511,-5.8053 18.227,-11.1678 11.067,-12.3984 z m 968.434,4.1602 c 0,-10e-5 0,0 0,0 z m 0,0 c -3.773,0.1329 -6.577,8.5412 -4.172,14.8125 1.133,2.9527 3.721,5.3692 5.75,5.3692 4.75,0 4.822,-16.7726 0.08,-19.7032 -0.564,-0.3487 -1.121,-0.4957 -1.658,-0.4785 z m -584.397,1.8555 10.291,9.8633 c 8.818,8.4455 9.971,11.6899 8.04,22.5859 -3.226,18.2083 -5.631,19.2554 -18.866,8.207 l -11.795,-9.8457 6.166,-15.4043 z m 350.854,26.7676 c -0.784,0.3717 -1.012,1.9332 -1.012,4.8418 0,3.8509 1.074,8.0736 2.387,9.3867 3.998,3.9976 8.351,2.6707 8.351,-2.5449 0,-2.7111 -2.415,-6.9362 -5.369,-9.3868 -2.23,-1.8509 -3.573,-2.6685 -4.357,-2.2968 z m -932.051,2.5566 c -0.844,0.1312 -1.535,0.4495 -2.057,0.9707 -1.382,1.3826 1.417,5.1135 6.219,8.2891 15.898,10.5143 63.37,61.1411 73.436,78.3222 5.447,9.2939 13.761,27.5239 18.476,40.5098 4.713,12.987 10.271,25.663 12.352,28.1699 4.94,5.9496 9.816,5.7891 12.193,-0.4043 3.2,-8.3384 -18.133,-57.7007 -35.39,-81.8828 -25.41,-35.6085 -72.564,-75.9426 -85.229,-73.9746 z m 659.334,1.1113 c -1.909,-0.022 -3.934,0.7385 -5.943,2.4063 -12.377,10.2705 -20.855,40.1586 -13.487,47.5293 10.126,10.1259 29.795,-11.0289 29.815,-32.0762 0.01,-10.6945 -4.658,-17.793 -10.385,-17.8594 z m 306.109,0.1407 c -1.282,0.3296 -2.187,2.3951 -2.187,5.4355 0,4.0528 1.609,7.3711 3.576,7.3711 1.968,0 3.58,-2.3213 3.58,-5.1582 0,-2.8368 -1.612,-6.154 -3.58,-7.3711 -0.492,-0.304 -0.961,-0.3873 -1.389,-0.2773 z m -396.083,9.6835 c 2.027,-0.2365 4.859,2.0203 9.095,6.7032 3.565,3.9369 8.647,7.1582 11.295,7.1582 2.965,0 4.813,4.1308 4.813,10.7402 0,12.3073 -1.409,12.7579 -16.024,5.1367 -13.306,-6.9381 -15.538,-10.5065 -13.441,-21.4765 1.011,-5.2947 2.233,-8.0252 4.262,-8.2618 z m 522.312,6.9434 c -13.265,0.3543 -30.435,1.6638 -44.301,3.7344 -13.78,2.0578 -31.924,4.243 -40.318,4.8554 -8.395,0.6135 -17.257,2.7303 -19.688,4.7032 -2.433,1.9728 -14.087,5.4879 -25.9,7.8105 -33.036,6.4957 -62.608,15.0821 -64.941,18.8535 -2.71,4.386 27.906,1.4759 63.15,-6.0019 27.614,-5.859 54.625,-11.2289 115.592,-22.9746 19.277,-3.714 36.057,-7.7591 37.286,-8.9883 1.746,-1.7467 -7.616,-2.3465 -20.88,-1.9922 z m -1129.312,24.8164 c -4.142,0 -2.903,3.4031 4.882,13.4219 5.733,7.3829 15.654,22.686 22.041,34.0058 11.019,19.5379 21.822,27.0094 21.822,15.0938 0,-17.9633 -34.74,-62.5215 -48.745,-62.5215 z m 600.855,5.1016 c 0.905,-0.907 6.316,0.7858 12.023,3.7617 5.709,2.9758 12.393,5.4316 14.854,5.4316 2.46,0.012 4.471,3.9185 4.471,8.6797 0,4.7611 0.979,11.2026 2.175,14.3164 2.601,6.7826 -0.894,7.0834 -12.912,1.1074 -8.409,-4.1819 -24.207,-29.7008 -20.611,-33.2968 z m -536.623,9.2148 c -5.575,0 -5.391,0.4283 9.928,23.2676 12.514,18.6629 19.731,36.3726 22.756,55.8477 1.343,8.6584 4.067,20.9764 6.05,27.375 4.012,12.9438 7.123,14.2978 13.948,6.0742 6.209,-7.4833 -0.303,-42.8512 -12.446,-67.5938 -9.818,-19.9992 -32.158,-44.9707 -40.236,-44.9707 z m 406.894,0.4668 c 1.622,0 3.246,0.2477 4.477,0.7442 2.462,0.9931 0.446,1.8046 -4.477,1.8046 -4.921,0 -6.933,-0.8115 -4.472,-1.8046 1.229,-0.4965 2.851,-0.7442 4.472,-0.7442 z m -14.128,3.1133 c 2.003,0 -1.955,4.9152 -8.791,10.9199 -6.841,6.0047 -14.057,16.0707 -16.038,22.3711 -1.979,6.3004 -4.104,15.4812 -4.724,20.4024 -0.969,7.6973 -1.495,8.032 -3.778,2.3925 -6.067,-14.9952 -2.724,-25.0273 13.518,-40.5918 8.893,-8.5216 17.811,-15.4941 19.813,-15.4941 z m 304.841,7.1582 c -3.38,0 -15.091,19.1802 -15.091,24.7148 0,6.5498 10.24,4.3831 14.191,-3.0019 4.363,-8.1486 4.924,-21.7129 0.9,-21.7129 z m 46.948,0.5 c -1.976,-0.6005 -5.516,1.1409 -11.129,5.0723 -7.308,5.1209 -7.955,5.0664 -7.955,-0.668 0,-5.037 -2.074,-4.2562 -10.739,4.0469 -5.907,5.6582 -10.738,11.5962 -10.738,13.1972 0,4.9024 9.595,3.2311 14.352,-2.5 3.973,-4.7887 5.024,-4.6864 9.175,0.8946 6.289,8.4553 17.207,2.0233 18.77,-11.0586 0.649,-5.4409 0.239,-8.3839 -1.736,-8.9844 z m 20.55,3.0801 c -7.159,0 -10.026,6.941 -4.957,12.0078 3.836,3.8354 9.947,0.5482 11.225,-6.0391 0.779,-4.0241 -1.263,-5.9687 -6.268,-5.9687 z m -358.396,0.5117 c 2.027,-0.2236 4.299,-0.1798 7.019,0.029 15.515,1.195 18.088,4.3301 18.168,22.0683 0.07,17.5231 -4.14,25.0907 -19.115,34.3438 -21.845,13.5012 -34.521,7.6847 -34.521,-15.8398 0,-12.6339 2.269,-18.392 11.308,-28.6856 7.179,-8.1762 11.058,-11.2453 17.141,-11.916 z m 0.33,17.3867 c -8.956,0 -12.085,5.4543 -9.361,16.3106 2.269,9.0391 13.834,12.1767 18.293,4.9629 4.305,-6.9671 -1.702,-21.2735 -8.932,-21.2735 z m -281.473,8.6934 c -0.577,-0.075 -1.185,0.091 -1.828,0.4883 -4.911,3.0343 -3.952,60.2266 1.094,65.2714 9.105,9.103 10.998,3.8304 9.084,-25.2343 -1.821,-27.6435 -4.312,-39.9976 -8.35,-40.5254 z m 403.442,4.7031 c -3.559,-0.059 -4.13,3.8492 1.601,9.582 4.86,4.8593 15.887,7.9767 15.887,4.4922 0,-0.6411 -3.856,-4.7897 -8.57,-9.2187 -3.571,-3.3545 -6.783,-4.8198 -8.918,-4.8555 z m -32.453,10.5273 c -0.894,-0.021 -1.53,0.1035 -1.83,0.4043 -1.234,1.2336 1.451,5.0877 5.97,8.5645 8.323,6.4042 32.399,9.4068 25.934,3.2344 -4.928,-4.7058 -23.817,-12.0524 -30.074,-12.2032 z" fill="#00B894" transform="translate(164.87568,-35.645128) matrix(0.26458333,0,0,0.26458333,-10896.99,648.98548)"/>
    </g>
</svg>