<?xml version="1.0" ?><svg height="336.04617mm" viewBox="0 0 227.93292 336.04617" width="227.93292mm" xmlns="http://www.w3.org/2000/svg">
    <path d="m 41511.343,-1780.1499 c -22.811,0.5908 -47.076,11.8553 -62.348,47.1035 -30.546,70.4966 2.975,96.4098 29.32,121.8516 0,0 68.967,39.2262 104.151,-27.332 35.184,-66.5582 1.401,-109.8005 -17.504,-124.6875 -9.453,-7.4435 -30.809,-17.5263 -53.619,-16.9356 z m 224.574,94.3242 c -28.288,-0.1919 -62.668,25.0482 -78.881,62.0293 -21.618,49.3082 0.09,76.7977 24.242,90.3457 33.696,17.565 71.594,1.6548 99.076,-35.0507 27.482,-36.7055 9.627,-83.2581 -19.08,-108.1485 -7.177,-6.2225 -15.928,-9.1118 -25.357,-9.1758 z m -296.496,106.6368 c -41.525,-0.015 -64.809,55.2152 -81.449,87.1504 -20.48,39.3047 -54.438,162.9701 -42.973,260.5625 11.466,97.5924 77.107,88.9279 102.576,84.832 77.019,-17.8014 74.13,-35.4459 63.277,-103.6582 -10.852,-68.2123 18.643,-158.8727 32.209,-196.2871 13.566,-37.4143 20.392,-86.251 -41.836,-122.7989 -11.668,-6.8527 -22.222,-9.7973 -31.804,-9.8007 z m 291.877,79.2089 c -8.543,0.1993 -17.446,2.4732 -26.719,6.4278 -29.673,12.6546 -45.075,26.0722 -60.742,82.8633 0,0 -7.789,20.8299 2.101,94.3984 9.89,73.5684 -9.627,88.2188 -4.9,134.6914 4.726,46.4725 12.492,78.978 81.219,62.7774 68.728,-16.2006 87.259,-94.5564 91.898,-160.9571 4.639,-66.4006 -9.364,-152.4142 -31.682,-187.1504 -15.343,-23.8812 -32.382,-33.4891 -51.175,-33.0508 z" fill="#FFFFFF" transform="translate(-26.477821,8.1635616) matrix(0.26458333,0,0,0.26458333,-10866.575,520.83587)"/>
    <path d="m 41771.132,-1999.3608 c -3.218,0.037 -7.174,0.2211 -12.002,0.5312 -13.57,0.8714 -25.51,2.2022 -26.273,3.1875 -5.311,6.8619 -2.825,19.7749 -4.317,41.9864 -2.634,39.127 -3.005,40.4275 -11.91,41.7773 -11.008,1.6689 -14.98,7.1201 -15.07,20.6309 0.194,13.7673 14.36,25.8598 28.51,16.2695 12.173,-8.5267 17.586,-34.7735 15.48,-75.043 -1.035,-34.4531 -2.817,-34.5359 12.281,-35.4668 17.759,0 25.969,-3.0756 25.969,-9.7324 0,-3.0487 -3.014,-4.253 -12.668,-4.1406 z m 219.418,11.2851 v 0 c -1.186,-0.1224 -2.52,-0.1149 -3.992,0.047 -5.749,0.6296 -12.26,2.2582 -14.465,3.6211 -5.673,3.5055 -22.705,4.6676 -38.256,1.6152 -13.837,-2.4478 -9.278,11.3086 -10.656,26.6309 -2.856,17.8755 -3.863,21.5257 -10.549,48.9316 -4.993,17.7985 -7.772,22.4884 -12.457,21.0332 -7.482,-2.3246 -12.991,1.1597 -18.558,11.7383 -5.848,11.1124 -5.402,18.2461 1.578,25.2265 7.305,7.3035 9.114,7.3078 19.492,0.039 11.222,-7.8596 18.667,-23.1588 26.738,-54.9414 6.705,-26.3935 6.849,-26.5886 22.992,-31.3555 8.935,-2.6383 16.974,-4.0679 17.864,-3.1777 0.889,0.8901 0.113,12.1785 -1.725,25.0859 -2.881,20.2454 -4.486,23.6326 -11.719,24.6602 -8.441,1.1992 -19.67,13.5697 -19.67,21.6699 0,2.4003 3.166,8.2776 7.041,13.0606 6.093,7.5251 8.294,8.125 16.354,4.4531 5.12,-2.3339 12.988,-11.8334 17.48,-21.1113 7.073,-14.6068 8.076,-22.4938 7.498,-58.8067 -0.561,-35.2603 0.3,-42.479 5.403,-45.3359 8.989,-5.031 7.906,-12.2288 -0.393,-13.086 z m -36.551,21.2911 c 20.096,0 21.777,5.7966 3.86,13.2832 -17.79,7.4334 -20.692,6.8812 -20.692,-3.9317 0,-8.5897 1.371,-9.3515 16.832,-9.3515 z m -681.074,62.2304 c -4.598,1.1182 -9.074,5.7689 -9.074,10.6075 0,2.206 -5.166,10.2829 -11.484,17.9472 -15.668,19.0083 -5.937,22.6903 8.855,42.9336 11.185,15.9497 23.089,34.3863 26.447,40.9707 7.258,14.2196 7.98,27.8757 1.432,27.0254 -10.678,-1.3868 -14.025,0.734 -14.025,8.8828 0,4.7319 2.017,10.623 4.486,13.0918 6.624,6.6246 15.909,5.4699 23.506,-2.9238 5.35,-5.9108 6.215,-11.002 4.279,-25.125 -2.61,-19.0303 -12.77,-36.7348 -38.424,-66.9258 -10.03,-11.8054 -22.01,-17.1761 -6.736,-27.9121 l 9.449,-8.8731 14.652,16.6915 c 11.087,12.6294 14.698,19.9631 14.811,30.1386 0.177,15.0474 11.22,28.1261 20.678,24.4961 15.812,-6.0668 9.811,-24.9176 -20.53,-64.5019 -10.28,-13.4132 -18.691,-26.6322 -18.691,-29.375 0,-2.7433 -2.319,-5.8769 -5.154,-6.9649 -1.399,-0.5367 -2.945,-0.5563 -4.477,-0.1836 z m 246.813,80.3887 c -3.311,0.04 -6.207,0.8319 -6.901,2.4043 -2.097,4.771 -1.582,11.1689 -10.922,4.7559 -2.44,-2.8619 -4.797,-10.5793 -15.49,-3.7442 -10.758,6.8758 0.362,10.7509 -6.289,20.0977 -2.952,1.4465 -5.669,-1.0063 -8.644,-3.3223 -3.698,-2.8781 -7.097,-2.7439 -11.395,4.3164 -4.297,7.0604 2.148,7.5562 -2.299,11.6485 -4.447,4.0922 -6.346,-3.1045 -12.092,3.1464 -3.505,3.8131 -2.648,8.8597 0.25,15.8301 8.149,7.5411 -8.663,31.8312 -12.363,47.8711 -7.659,33.2022 -9.895,63.444 9.742,90.9395 9.578,13.4511 26.482,25.8153 44.526,32.5703 8.288,3.1026 22.747,4.465 37.361,3.5195 19.147,-1.2383 27.09,-3.8295 40.324,-13.1582 9.064,-6.3883 17.848,-15.0742 17.848,-15.0742 14.77,13.7257 31.705,-1.405 11.379,-18.0645 11.637,-33.0635 12.863,-58.4374 9.322,-77.9863 -0.977,-5.3959 -2.538,-10.6042 -4.471,-15.6465 7.396,-4.4752 17.314,-14.0904 9.551,-20.4433 -4.019,-3.2892 -3.599,-6.5643 -0.619,-10.961 4.208,-6.2095 2.228,-13.5127 -8.875,-9.7187 -7.842,2.6796 -10.279,-1.797 -8.357,-5.1914 1.923,-3.3943 -1.331,-10.0494 -6.582,-11.5137 -5.25,-1.4642 -7.914,3.1948 -10.354,-1.7969 -2.441,-4.9917 4.511,-8.6522 0.961,-10.4492 -3.549,-1.797 -10.797,-5.5904 -15.086,0.7324 -4.29,6.3229 -4.668,-0.6427 -3.336,-7.498 1.331,-6.8552 -9.246,-10.6889 -14.338,-6.0137 -3.611,5.9981 -17.088,16.8984 -11.127,-1.2988 0.463,-3.9934 -6.206,-6.0176 -11.724,-5.9512 z m 268.818,63.957 c -0.376,0.039 -0.765,0.1239 -1.17,0.2598 -6.47,2.1772 -7.703,11.0791 -12.131,8.1973 -4.43,-2.8814 -3.229,-9.6822 -10.33,-6.4493 -7.102,3.2333 -7.563,8.3608 -13.453,5.6211 -5.891,-2.7391 -5.893,-7.5986 -10.892,-4.7363 -4.999,2.8622 -2.049,9.0905 -6.875,11.7149 -4.826,2.6245 -3.502,-3.3023 -8.663,-4.3887 -10.374,-2.1838 -10.528,7.6039 -9.711,14.7012 -0.235,0.1031 -0.538,0.2007 -0.763,0.3046 -26.472,5.5102 1.078,20.4774 -12.987,21.7832 -3.39,0.063 -7.824,-2.0379 -9.669,-0.5722 -4.189,3.3281 -6.33,5.8852 -2.512,12.4687 2.679,4.6188 2.453,6.6559 -1.147,10.4258 -3.6,3.7699 -7.113,0.1642 -11.388,4.6543 -4.79,5.0305 -1.351,14.6905 4.976,16.4805 -5.143,4.6202 -12.225,11.893 -18.683,19.709 -12.297,14.8818 -16.597,17.6913 -25.627,16.7441 -8.778,-0.9207 -10.852,0.3101 -10.852,6.4395 0,4.1675 2.769,9.1272 6.156,11.0214 4.713,2.6377 6.244,9.467 6.545,29.1758 0.488,32.0954 9.766,46.9125 37.424,59.793 24.503,11.4097 43.745,11.0824 68.588,-2.0957 5.628,5.7627 12.059,6.8258 14.727,1.5742 3.071,-6.0458 8.221,-3.3107 8.029,2.332 -0.192,5.6427 7.134,9.9319 11.42,3.627 3.087,-4.5403 8.988,-6.3826 9.248,-3.4863 0.424,4.7141 0.689,11.8995 5.607,12.6132 5.608,0.814 5.796,-8.9337 9.233,-6.7089 3.437,2.2248 -2.189,6.8809 4.49,8.5625 8.381,2.1102 10.285,-0.8819 11.195,-6.5332 0.922,-5.7246 8.502,-0.4592 8.489,4.1386 0.686,5.1115 13.91,3.9664 13.367,-1.3515 -1.08,-7.1691 2.307,-10.442 4.625,-6.5352 3.922,5.0218 6.059,9.0251 12.043,-0.066 2.744,-4.1688 -4.022,-4.2115 0.259,-10.5605 4.281,-6.3489 9.67,3.0158 12.745,-0.4571 3.075,-3.473 2.877,-10.9809 0.525,-13.8027 -2.351,-2.8217 1.917,-10.2098 7.826,-8.3106 5.909,1.8993 11.529,-9.247 6.645,-16.1386 -4.884,-6.8916 -0.886,-8.0056 5.023,-11.4785 5.909,-3.473 12.071,-0.5388 13.488,-9.2793 0.988,-6.0947 -8.018,-11.5578 -3.677,-14.2168 4.342,-2.659 3.007,-8.9102 2.351,-12.5899 -1.227,-6.8778 -7.31,-3.5678 -10.062,-6.8672 -3.931,-4.7124 -1.958,-8.3803 2.203,-8.8144 4.16,-0.4341 4.099,-5.1013 2.23,-9.334 -1.869,-4.2326 -4.89,-2.9781 -7.603,-4.1719 -2.713,-1.1938 -4.193,-6.085 1.535,-8.4726 5.728,-2.3877 7.417,-3.2991 6.531,-7.3184 -2.13,-9.6623 -8.025,-5.0822 -9.431,-8.6621 -1.688,-4.2977 -5.09,-6.0494 -2.557,-8.3828 2.532,-2.3334 0.783,-11.0156 -0.906,-13.5117 -1.609,-2.3787 -2.552,-8.146 -10.983,-3.4786 -5.803,3.2124 -9.222,0.1949 -10.217,-4.6035 -0.57,-3.7213 9.529,-5.2521 6.161,-11.8691 -7.366,-14.4695 -16.116,-0.2296 -19.204,-8.0469 -3.086,-7.8177 8.327,-5.2444 0.667,-13.7754 -7.667,-8.5311 -15.396,2.2755 -14.249,-3.4648 1.469,-7.3541 0.584,-7.4623 -7.421,-10.6582 -8.004,-3.1959 -5.839,5.7063 -10.807,1.8828 -4.969,-3.8229 -1.481,-9.8529 -8.977,-10.0059 -7.497,-0.1525 -13.213,6.0391 -13.213,6.0391 0,0 -2.541,-9.6533 -8.191,-9.0684 z m -278.113,15.2305 c 5.485,-0.2337 12.029,0.6435 20.312,3.1387 26.976,5.6502 47.268,1.9758 54.608,27.9843 6.801,24.4169 -5.568,60.4629 -7.528,60.3497 -8.229,-0.4754 -15.622,11.3921 -12.711,15.957 1.269,1.9895 -8.009,7.7736 -14.316,12.498 -13.48,10.0989 -21.394,5.563 -28.461,-16.3105 -4.899,-15.1711 -5.548,-15.7211 -10.572,-9.0078 -3.383,4.5188 -4.69,12.31 -3.553,21.1758 1.978,15.4215 -0.94,17.0632 -16.191,9.0976 -20.556,-10.7368 -29.549,-18.5139 -35.213,-30.4551 -5.594,-11.7143 -12.016,-42.4731 -3.778,-45.5625 21.433,-8.0381 19.207,-29.6936 35.635,-40.8007 6.425,-4.2014 12.626,-7.6751 21.768,-8.0645 z m 54.892,55.5391 c -0.878,-0.1296 -1.85,-0.043 -2.904,0.3086 -7.235,2.4119 -13.715,10.6902 -10.924,17.9648 2.469,6.4309 9.441,4.3453 13.879,0.6231 7.639,-6.4092 6.109,-17.9816 -0.05,-18.8965 z m 152.217,13.2656 c 1.32,1.8281 2.803,3.5305 5.029,4.418 6.965,1.2055 10.047,-5.3038 12.592,2.291 2.545,7.5947 -7.769,9.523 -5.224,15.0683 2.545,5.5454 12.459,2.6524 12.459,2.6524 0,0 3.079,10.0061 -3.485,12.6582 -6.564,2.6522 -2.678,12.4168 1.742,13.0195 4.421,0.6028 14.387,6.2561 9.377,9.8848 -9.646,6.9865 -6.035,16.2929 -6.035,16.2929 2.206,12.7001 8.21,8.1004 12.59,12.4297 4.116,2.9966 -0.421,8.9555 -5.119,8.8672 -4.168,-0.035 -5.606,11.1114 -1.281,14.8633 4.003,3.4732 3.048,6.5174 -3.905,14.6211 -19.564,15.2658 -35.841,15.9472 -63.302,4.2383 -18.912,-8.0639 -23.922,-17.9317 -11.897,-17.9317 12.431,0 26.672,-8.1915 26.672,-15.3418 0,-10.1575 -5.799,-11.6442 -20.865,-5.3496 -18.87,7.8848 -20.281,7.4315 -20.201,-6.4277 0.155,-22.7291 29.134,-70.6265 48.785,-81.4863 4.102,-2.267 8.097,-3.7596 12.068,-4.7676 z m -19.984,28.6367 c -5.309,0.2577 -11.024,6.6462 -11.024,14.4024 0,8.8765 10.399,7.881 16.346,-1.5645 2.963,-4.7073 2.862,-7.6362 -0.375,-10.875 -1.453,-1.4533 -3.177,-2.0488 -4.947,-1.9629 z m -251.953,62.3828 c -20.607,0.089 -47.305,10.2569 -61.215,23.3125 -31.305,29.39 -71.123,136.5131 -81.674,219.7461 -11.985,94.5196 -4.094,146.3762 27.389,180.0332 10.608,11.3405 22.51,19.864 31.498,22.5567 7.945,2.3807 14.443,5.9787 14.443,7.9961 0,2.0174 -3.347,23.2135 -7.441,47.1015 -14.411,84.0936 -33.011,131.65474 -56.207,143.73244 -11.029,5.742 -18.5,6.42961 -48.569,4.46094 -19.546,-1.27951 -46.01,-4.72044 -58.812,-7.64454 -34.866,-7.9639 -36.147,-6.75764 -33.6,31.59766 2.267,34.1406 16.077,81.839 27.283,94.2207 8.327,9.2 18.927,9.07545 23.932,-0.28125 3.08,-5.7533 1.859,-12.38689 -5.514,-29.90429 -12.821,-30.4593 -21.397,-67.462 -15.615,-67.375 2.39,0.0359 19.496,2.55545 38.012,5.59765 59.111,9.712 81.046,6.02787 105.599,-17.73633 24.214,-23.435 43.315,-87.50888 48.727,-163.43558 l 2.779,-38.9785 14.698,-0.2988 c 13.523,-0.2752 15.52,1.0459 24.974,16.5332 14.083,23.0657 38.62,85.3663 47.881,121.5703 17.055,66.67688 28.313,158.04909 24.494,198.80079 -3.587,38.3084 -1.241,45.03837 17.451,50.07227 16.325,4.3959 55.756,2.06757 78.108,-4.61133 15.115,-4.5165 29.926,-16.77127 29.926,-24.75977 0,-5.7005 -2.628,-5.64106 -72.944,1.61524 -36.05,3.7203 -20.517,-16.93439 -22.812,-49.55078 -0.764,-106.8513 -29.901,-224.47162 -73.535,-296.85552 -13.217,-21.9242 -14.024,-24.6592 -8.262,-28.0546 39.952,-23.5396 45.156,-34.2186 39.164,-80.3321 -2.397,-18.4364 -4.478,-45.4513 -3.162,-47.5801 51.56,-3.0476 102.292,-12.0371 146.92,-31.5957 9.714,56.2059 -24.065,102.0566 2.836,173.8575 l 11.164,28.7226 -16.948,28.9512 c -9.32,15.9234 -22.318,40.4485 -28.88,54.5 -10.459,22.3909 -11.661,28.162 -9.748,46.69336 2.825,27.3799 24.041,70.17185 57.839,116.66015 14.21,19.5448 30.355,43.34116 35.877,52.88086 8.201,14.16992 13.504,17.04653 -1.461,27.02149 -6.327,5.3216 -18.579,11.56796 -27.228,13.88086 -8.652,2.3125 -17.831,5.92882 -20.404,8.0371 -5.976,4.9099 -5.982,15.06263 0,21.04493 l -0.01,0.002 c 12.851,12.8507 65.002,-10.09872 82.197,-36.16992 13.287,-20.1455 8.223,-33.11297 -38.039,-97.41797 -35.86,-49.8448 -51.379,-76.43436 -58.578,-100.35156 -5.095,-16.936 -4.901,-18.2636 6.172,-41.9238 18.224,-38.9449 48.085,-89.1935 54.457,-91.6387 15.032,-5.7677 19.102,-2.6968 21.324,16.0743 3.103,26.1841 23.678,94.6996 36.746,122.35929 14.325,30.3184 28.602,42.62417 49.387,42.57617 22.352,-0.0502 48.661,-16.53743 80.074,-50.17383 14.561,-15.58913 27.473,-28.34373 28.697,-28.34373 4.21,0 2.214,23.12927 -4.011,46.49217 -6.882,25.8291 -5.25,35.80078 5.865,35.80078 18.227,0 37.297,-52.93133 30.306,-84.12685 -6.633,-29.5936 -16.134,-43.315 -30.384,-43.0528 -10.045,0.1848 -24.319,21.1645 -49.666,47.0332 -43.024,43.90694 -46.931,46.95313 -58.77,45.82223 -11.265,-1.0756 -14.021,-3.72489 -24.605,-23.65429 -6.557,-12.34404 -18.678,-43.48424 -26.94,-69.20114 -22.416,-69.7852 -22.165,-64.3447 -3.416,-73.5742 64.593,-31.7996 83.505,-79.2387 83.309,-208.8438 -0.107,-64.3275 -0.925,-73.3451 -8.649,-95.0214 -6.315,-17.7205 -9.672,-16.6746 -7.201,-28.5996 2.472,-11.9249 -6.048,-29.8626 -15.857,-43.1543 -0.15,-0.2028 -0.232,-0.2412 -0.408,-0.4297 -16.285,-17.4555 -20.816,-24.2064 -44.135,-23.8653 -12.919,0.1891 -15.101,8.3618 -16.192,10.127 -48.334,-3.6148 -79.602,41.4316 -95.523,85.5566 -5.976,22.2358 -7.649,24.6962 -19.576,28.7793 -7.174,2.4553 -20.476,4.5607 -29.563,4.6758 -15.41,0.1969 -18.943,-0.5855 -40.261,-23.5293 l -23.151,-24.9141 5.617,-13.4257 c 10.512,-24.7375 7.897,-58.43 -6.775,-87.3614 -11.377,-22.4266 -14.449,-25.5248 -36.385,-36.6543 -17.856,-9.0611 -28.811,-12.1362 -43.015,-12.0742 z m -7.151,13.7852 c 7.882,0.2236 21.447,5.5588 34.246,13.4668 27.075,16.7316 41.762,42.0519 41.762,71.9961 0,20.2987 -4.711,29.3283 -9.156,17.541 -1.352,-3.5887 -15.304,-38.5711 -24.453,-57.3692 -12.111,-24.8857 -43.524,-14.2665 -13.395,42.2676 l 29.338,55.0547 -12.174,36.6113 c -8.088,24.3108 -12.839,40.9786 -14.14,61.4707 -0.99,15.5981 -2.388,27.4789 -1.729,32.6817 -6.623,1.391 -8.593,-1.8123 -12.91,-8.7246 -7.441,-11.9131 -33.769,-16.905 -57.486,-10.8985 -16.6,4.2051 -22.477,2.5791 -21.037,21.1543 -11.436,14.278 0.369,16.4243 11.22,21.1309 11.211,4.8629 11.337,5.1599 2.483,5.3535 -13.598,0.2963 -20.451,5.2418 -14.203,10.2481 2.67,2.1383 8.468,4.9945 12.89,6.3476 12.313,3.7685 58.063,-4.6504 69.213,-12.7363 9.894,-7.1744 9.93,-7.1722 11.871,1.0625 1.073,4.542 3.116,27.3139 4.547,43.2695 2.962,33.0445 1.86,35.4068 -23.389,50.2031 -15.9,9.3192 -17.01,11.3759 -28.603,-4.5976 -17.855,-20.6539 -25.747,-12.9164 -15.108,14.8105 1.782,4.6384 -0.08,5.8733 -8.402,5.5723 -52.168,-1.8872 -79.887,-39.4937 -79.887,-108.3789 0,-70.9318 8.143,-118.07 33.905,-196.2832 25.014,-75.9447 52.553,-112.162 84.597,-111.2539 z m 289.436,76.6504 c 1.752,-0.059 3.278,0.1332 4.514,0.6074 4.591,1.7622 2.387,5.6852 0.634,18.1914 -1.232,8.7957 -2.889,18.0963 -3.681,20.668 -1.308,4.2472 -4.535,5.8056 -7.938,7.9062 0,0 2.329,-9.5893 1.156,-15.4551 -3.234,-16.1805 -14.578,-11.3188 -19.808,9.5215 -2.387,9.5113 -5.35,18.926 -6.582,20.9219 -3.833,6.1981 -39.194,26.5791 -41.012,23.6367 -3.611,-5.8454 11.91,-42.0432 24.746,-57.707 12.376,-15.1048 35.709,-27.8759 47.971,-28.291 z m 17.342,65.4687 c 1.792,0 3.51,0.3793 5.101,1.2305 4.279,2.2904 14.645,3.6682 23.033,3.0625 13.287,-0.9595 15.698,0.09 18.7,8.1484 7.104,19.059 10.66,47.9007 10.828,87.9258 0.337,77.7625 -13.332,140.8205 -35.944,165.8516 -11.839,13.1043 -40.846,30.1972 -61.343,36.1465 -7.744,2.2469 -8.576,1.6426 -6.02,-4.3711 1.63,-3.8379 3.785,-11.7716 4.787,-17.6309 2.69,-15.7516 -9.134,-11.8752 -23.31,7.6426 -16.586,22.8356 -24.824,-1.752 -30.137,-29.0528 -6.729,-34.5781 13.767,-65.4726 9.422,-126.7871 -1.11,-15.6683 -2.098,-22.3047 -2.098,-22.3047 21.954,-17.437 55.196,-72.6775 58.36,-91.7714 0,0 16.079,-18.1211 28.621,-18.0899 z m -230.516,22.6016 c 2.285,0.7232 8.628,9.4125 16.377,17.3847 27.155,27.9407 43.181,33.1871 83.434,27.3243 l 19.638,-2.8594 3.002,29.2246 c -38.994,30.8598 -97.923,35.4165 -116.59,37.3945 -9.8,1.0384 -29.423,1.1192 -29.423,1.1192 l 1.859,-30.1953 c 1.579,-25.6408 13.253,-66.6831 20.982,-79.1895 0.153,-0.2471 0.395,-0.3064 0.721,-0.2031 z m 168.715,17.3867 c 0.527,1.9483 -7.569,12.7173 -13.865,21.9824 -11.317,16.6532 -16.696,17.7595 -16.696,3.4317 0,-8.3504 2.706,-11.8225 13.09,-16.7735 7.797,-3.7173 16.945,-10.5888 17.471,-8.6406 z m -273.703,90.2773 c 1.695,0 3.389,0.2586 4.676,0.7774 2.571,1.0378 0.467,1.8887 -4.676,1.8887 -5.142,0 -7.249,-0.8509 -4.68,-1.8887 1.286,-0.5188 2.985,-0.7774 4.68,-0.7774 z m -159.623,43.6563 c -3.134,0.1324 -4.905,11.9446 -3.752,28.0039 2.578,34.9966 12.453,59.8639 29.429,74.1484 6.099,5.1305 14.423,9.3301 18.502,9.3301 8.915,0 6.25,-5.4214 -8.931,-18.1953 -14.45,-12.1608 -19.434,-36.7441 -26.198,-68.9004 -3.35,-17.5268 -6.613,-24.4897 -9.05,-24.3867 z m -35.67,25.8066 c -3.867,-0.1777 -6.847,14.6867 -4.963,34.5782 2.652,26.9115 5.854,36.4813 16.156,48.291 3.139,3.6003 10.629,6.5468 16.643,6.5468 19.906,1.8027 6.726,-4.9151 -2.252,-15.4023 -9.608,-11.2269 -15.009,-22.5773 -16.828,-41.5879 -2.206,-23.0493 -5.749,-32.2875 -8.756,-32.4258 z m 782.498,108.8965 c -1.602,0.792 1.14,6.4135 8.42,20.7305 8.4,16.5147 10.501,24.8721 9.068,35.9961 -1.022,7.9683 -0.977,16.8061 0.111,19.6387 3.507,9.136 11.71,5.4863 15.745,-7.0059 6.828,-21.1336 -6.815,-56.241 -25.805,-66.4043 -4.048,-2.1663 -6.574,-3.4302 -7.535,-2.9551 z m -54.02,14.1875 c -5.165,0 -3.566,3.3914 7.26,15.375 18.104,20.0395 24.387,35.8007 24.387,61.1875 0,15.5238 1.347,20.6934 5.392,20.6934 7.907,0 10.304,-5.8631 10.557,-25.8672 0.406,-31.1902 -26.395,-71.3887 -47.596,-71.3887 z" fill="#00B894" transform="translate(-26.477821,8.1635616) matrix(0.26458333,0,0,0.26458333,-10866.575,520.83587)"/>
    <path d="M41303.299-1239.9728c38.446 9.8493 150.853.7662 168.845-4.7941 17.992-5.5602 8.448-16.5025 8.448-16.5025 0 0-58.165 10.4154-97.781 9.9554-48.149-.5591-80.722-1.9821-80.722-1.9821zM41646.771-1241.1228c26.513 6.7739 72.797 6.6728 92.12 5.7628 19.322-.9099 69.764-13.5477 69.764-13.5477l-7.977 18.6029c0 0-22.468 13.8511-65.158 12.6379-34.811-.9894-89.311-8.9982-89.311-8.9982z" fill="#00B894" transform="translate(-26.477821,8.1635616) matrix(0.26458333,0,0,0.26458333,-10866.575,520.83587)"/>
</svg>