<?xml version="1.0" ?><svg height="283.20642mm" viewBox="0 0 208.34213 283.20642" width="208.34213mm" xmlns="http://www.w3.org/2000/svg">
    <path color="#000" d="m 41278.314,-906.4043 c -90.543,14.2681 -223.878,14.1589 -237.453,136.8535 0,0 23.403,46.9861 67.576,46.3496 44.173,-0.6365 76.067,-35.9922 76.067,-35.9922 0,0 13.373,18.6326 55.103,19.3848 41.729,0.7523 76.707,-38.1921 88.281,-83.4434 11.574,-45.2513 -49.574,-83.1523 -49.574,-83.1523 z m -236.371,19.8613 c -7.227,0.012 -15.558,3.6676 -23.957,12.5664 -14.146,14.9873 -8.424,42.4746 -8.424,42.4746 0,0 -9.516,-1.9682 -23.34,29.916 -13.824,31.8842 18.325,35.3554 38,33.3301 18.068,-8.7957 39.479,-106.5894 30.67,-113.707 -3.578,-2.8915 -8.004,-4.5883 -12.949,-4.5801 z m 229.82,182.3555 c -28.558,0.079 -67.918,6.583 -80.136,18.7304 -15.641,15.5487 -19.459,40.916 -19.459,40.916 0,0 -1.547,2.5374 -23.643,-10.3925 -22.096,-12.9299 -68.289,-16.5302 -76.564,-10.3926 0,0 -25.733,28.6418 -18.004,64.1582 7.73,35.5164 54.377,118.0058 54.377,118.0058 0,0 -24.631,28.8533 -44.381,58.0684 -8.936,5.576 -17.453,12.0531 -24.447,19.4961 -29.916,31.8339 -33.826,75.2879 -47.739,107.3672 -13.913,32.0794 -60.834,54.1742 -102.117,71.4414 -41.283,17.2672 -81.383,50.4929 -74.017,71.9336 0,0 45.521,-31.1469 89.75,-10.8027 40.919,18.8221 74.654,33.8805 119.574,6.0566 44.92,-27.824 52.892,-4.0689 135.998,-26.7404 64.972,-17.7247 70.092,-65.3651 77.646,-92.8077 19.449,-8.7408 47.367,-23.8852 96.243,-95.1707 54.649,-79.7074 39.737,-233.0659 28.916,-278.4843 -10.821,-45.4185 -46.375,-45.3372 -71.381,-49.92 -5.471,-1.0024 -12.619,-1.4849 -20.616,-1.4628 z" fill="#FFFFFF" overflow="visible" paint-order="fill markers stroke" transform="translate(-37.513692,-69.47745) matrix(0.26458333,0,0,0.26458333,-10742.097,320.68957)"/>
    <path d="m 41243.774,-949.3888 c -7.208,0.3968 -14.326,2.385 -24.093,6.1172 -18.685,7.1402 -33.772,20.5622 -44.946,39.9864 -3.481,6.0528 -6.528,11.3088 -6.771,11.6777 -0.242,0.3707 -5.718,-1.5875 -12.166,-4.3516 -29.39,-12.5978 -47.401,-10.8735 -72.121,6.9121 l -13.184,9.4844 -8.154,-4.8125 c -17.026,-10.0468 -37.879,-3.5288 -50.826,15.8848 -4.78,7.1678 -6.08,12.2412 -6.08,23.7187 0,13.7723 -0.481,14.966 -8.438,21.0352 -16.069,12.2565 -22.936,36.7612 -14.744,52.6035 2.045,3.954 8.306,9.5293 13.912,12.3906 9.353,4.7704 11.316,4.9475 23.793,2.1563 7.479,-1.6727 14.763,-3.4904 16.189,-4.0371 1.425,-0.546 3.907,8.6346 8.198,15.2558 14.729,22.2666 37.032,38.2952 66.492,36.3164 24.751,-1.0493 43.149,-7.8131 65.824,-24.9726 8.375,-6.337 15.882,-10.4655 16.68,-9.1719 0.8,1.2929 7.152,5.2938 14.119,8.8887 14.712,7.3415 52.055,6.5506 71.49,-2 26.771,-12.6823 47.51,-35.2356 56.916,-61.8926 1.886,-5.346 5.737,-21.472 7.215,-32.2637 3.406,-24.883 -2.528,-43.4135 -14.141,-65.8769 -13.975,-27.0291 -32.679,-42.3616 -60.525,-49.6133 -10.13,-2.6376 -17.43,-3.8319 -24.639,-3.4356 z m 29.998,58.3555 4.121,10.7891 c 6.049,15.8371 21.36,32.033 35.096,37.123 6.364,2.3567 11.892,4.5032 12.285,4.7696 0.393,0.2657 -0.359,7.1415 -1.668,15.2773 -4.97,30.8531 -25.157,57.8234 -52.734,70.4473 v -0.01 c -23.19,10.6152 -44.934,9.4439 -65.637,-3.5391 -12.391,-7.7709 -15.594,-14.0851 -10.179,-20.0683 6.122,-6.7655 2.824,-13.0681 -5.924,-11.3184 -6.574,1.315 -7.214,0.6762 -11.307,-11.3164 -2.386,-6.9933 -4.851,-23.1637 -5.48,-35.9433 -1.217,-24.7167 -1.862,-24.7469 24.181,-23.2305 23.257,-0.01 26.648,-0.6344 41.479,-7.6328 8.883,-4.193 20.565,-11.6136 25.961,-16.4864 z m -227.328,12.2031 c 1.365,0 3.117,1.6506 3.891,3.668 0.774,2.0173 1.025,3.6699 0.56,3.6699 -0.465,0 -2.216,-1.6526 -3.89,-3.6699 -1.755,-2.1145 -1.993,-3.668 -0.561,-3.668 z m 112.416,2.5098 c 4.746,0.1395 3.799,4.2111 1.492,15.2188 -1.761,8.4075 -3.216,19.6869 -3.216,25.0664 -0.02,11.085 5.584,37.0746 10.922,50.6797 3.35,8.5373 3.269,9.2729 -1.272,11.7031 -5.605,2.9991 -6.477,11.7305 -1.369,13.6914 1.912,0.7331 5.764,0.1095 8.559,-1.3848 8.827,-4.7251 5.626,1.572 -5.311,10.4473 -5.716,4.6384 -16.446,11.4969 -23.844,15.2383 -29.941,14.3606 -61.392,9.9587 -83.765,-17.4649 -4.664,-5.9295 -4.658,-6.1688 0.646,-23.6347 14.541,-47.8708 47.922,-87.2639 81.531,-96.2129 7.883,-2.099 12.78,-3.4314 15.627,-3.3477 z m -131.42,7.2715 c 1.345,0 2.446,1.1012 2.446,2.4453 0,1.3466 -1.101,2.4473 -2.446,2.4473 -1.344,0 -2.445,-1.1007 -2.445,-2.4473 0,-1.3441 1.101,-2.4453 2.445,-2.4453 z m -6.461,12.2383 c 2.459,0.5299 5.752,2.8115 7.959,6.1797 2.231,3.4041 3.523,6.72 2.875,7.3691 -1.592,1.5921 -14.154,-8.4296 -14.154,-11.293 0,-1.1553 0.46,-1.8611 1.211,-2.1777 0.563,-0.2375 1.29,-0.2548 2.109,-0.078 z m -1.019,19.5508 c 1.266,0 2.981,1.1012 3.812,2.4472 0.832,1.3447 -0.204,2.4453 -2.3,2.4453 -2.098,0 -3.813,-1.1006 -3.813,-2.4453 0,-1.346 1.035,-2.4472 2.301,-2.4472 z m 227.967,2.3281 c -3.305,-0.033 -7.257,1.1499 -11.897,3.5488 -7.465,3.8589 -9.499,9.6144 -4.16,11.7676 1.681,0.6766 4.524,0.7701 6.314,0.2051 1.793,-0.5671 5.158,-1.0293 7.481,-1.0293 2.323,0 6.318,-1.532 8.879,-3.4043 3.955,-2.8922 4.166,-3.9943 1.39,-7.336 -2.045,-2.4669 -4.703,-3.7185 -8.007,-3.7519 z m -50.711,7.1543 c -12.339,0 -23.603,12.1046 -14.254,15.3164 3.763,1.2928 16.562,-2.1662 19.724,-5.3281 3.537,-3.5359 0,-9.9883 -5.47,-9.9883 z m -59.475,5.1914 c -8.54,0 -13.48,6.3048 -7.06,8.6523 2.439,0.8932 7.06,3.6347 10.267,6.0957 11.433,8.7724 20.114,1.2707 10.231,-8.6132 -3.81,-3.8098 -8.903,-6.1348 -13.438,-6.1348 z m -107.34,7.4433 c 4.555,0.089 3.778,1.0475 -4.183,5.1485 -5.38,2.7715 -15.558,10.6652 -22.619,17.539 -14.253,13.8749 -16.712,12.6332 -5.536,-2.7968 7.733,-10.6743 23.007,-20.0739 32.338,-19.8907 z m -5.75,14.5645 c 1.271,0 -3.064,5.7783 -9.633,12.8398 -6.571,7.0614 -11.958,13.6632 -11.988,14.6719 -0.08,3.364 -4.933,1.8896 -4.933,-1.498 0,-3.6496 22.827,-26.0137 26.554,-26.0137 z m 6.373,12.9141 c 0.48,0.047 0.787,0.4081 0.936,1.0683 0.469,2.0745 -1.291,6.6549 -3.912,10.1797 -2.621,3.5235 -7.292,6.7801 -10.381,7.2363 -5.097,0.7521 -4.734,-0.1932 3.912,-10.1816 5.002,-5.7785 8.005,-8.4449 9.445,-8.3027 z m 376.227,2.1933 c -5.588,0.6399 -6.833,1.9377 -6.617,6.9024 0.148,3.4224 -1.736,7.5203 -4.28,9.3086 -6.964,4.8971 -5.667,7.9194 9.104,21.2089 10.162,9.141 13.22,13.3693 11.967,16.5508 -1.387,3.5275 -3.381,2.1403 -11.41,-7.9472 -15.633,-19.6336 -25.855,-14.8329 -13.03,6.1191 14.793,24.1696 14.798,24.1904 8.52,34.6172 -12.581,20.8864 -22.517,35.0781 -24.557,35.0781 -1.187,0 -6.793,-5.0285 -12.459,-11.1758 -13.455,-14.5973 -25.142,-24.9739 -49.064,-31.5254 -16.983,-4.651 -23.594,-5.183 -50.131,-4.0273 -47.271,2.0573 -70.619,8.0645 -94.776,31.6973 l -14.863,14.541 -18.629,-6.2539 c -10.408,-3.494 -25.169,-9.0395 -35.718,-9.7403 -17.18,-1.1387 -21.914,-2.7269 -33.985,5.6289 -21.24,14.7027 -28.902,61.8289 -14.969,96.1739 l 7.938,19.5664 -6.297,7.4843 c -16.563,19.6915 -18.751,44.8961 -10.297,57.7989 5.023,7.6646 15.506,13.2383 24.897,13.2383 5.633,0 7.804,1.5483 10.168,7.2558 1.652,3.9915 5.084,7.9155 7.63,8.7227 2.545,0.8085 4.629,2.2999 4.629,3.3164 0,1.0159 -12.257,7.8747 -21.177,15.7539 -30.342,27.2838 -53.427,60.1316 -65.92,101.0957 -13.384,37.9356 -15.302,51.1576 -28.242,63.4219 -18.867,17.8859 -32.564,25.7397 -90.334,51.8125 -23.847,10.7621 -63.78,32.5073 -71.176,61.9843 -2.18,8.6881 -4.246,22.8418 -1.014,22.8418 7.151,8.5847 38.294,-32.0858 97.555,-10.998 9.1,4.5938 5.394,-0.8882 12.406,6.7051 -49.613,52.114999 -103.888,90.322199 -157.342,129.085899 -21.507,14.0322999 -25.776,26.4098999 -23.324,30.377 2.726,4.4115 6.72,3.0201 27.916,-9.7286001 11.267,-6.7747 20.908,-11.8985999 21.424,-11.3828 0.515,0.5172 -3.475,14.0399 -8.869,30.0528001 -11.263,33.4388 -12.474,48.2986 -4.741,58.1328 7.1,8.7994 33.387,1.5842 25.893,-13.1778 -4.596,-8.8891 -2.851,-14.6752 7.676,-48.1015 4.024,-12.7775001 9.035,-27.5472 10.996,-33.4961 3.577,-10.8502 9.593,-15.8178 23.631,-27.0703 41.544,-33.4309 63.412,-57.011199 104.015,-91.630899 l 8.86,1.6817 c 30.808,5.8452 54.64,-0.8727 71.935,-17.4454 16.011,-15.3396 14.21,-25.4457 -2.297,-12.8789 -18.431,13.8451 -40.572,23.2782 -66.728,17.7598 49.647,-45.9091 86.625,-70.9551 131.336,-138.293 3.197,-6.9998 9.87,7.6702 56.387,-0.2363 6.783,-2.8094 8.007,-2.6949 10.031,0.9199 1.268,2.2674 4.583,6.2431 7.367,8.836 2.784,2.5936 4.461,6.1525 3.723,7.9101 -0.737,1.7568 -9.96,15.5251 -20.491,30.5977 -33.921,48.5435 -92.505,135.804 -106.382,158.449199 -7.418,12.1048 -22.316,36.3145 -33.108,53.7988 -22.537,36.518 -47.427,72.9846 -50.232,79.3867 -2.187,4.9922 -6.798,8.2687 -37.455,19.2442 -36.254,12.9777 -58.084,29.950201 -57.088,40.255801 -0.145,15.9843 42.448,-3.4952 55.887,-8.0937 l 47.068,-16.105501 c 9.809,-5.4108 13.133,-18.3735 19.66,-27.6074 63.986,-105.8039 122.319,-204.401899 198.959,-312.029299 4.525,-6.5344 5.548,-13.8265 11.379,-14.6758 4.436,-0.6455 9.45,0.5574 17.23,-0.6679 l 14.145,-2.2247 12.477,23.4415 c 30.353,57.0062 28.836,98.7923 -64.016,170.433499 -53.588,43.3925 -77.077,68.2424999 -74.58,101.5684 1.172,15.6437 6.7,35.4573 18.599,32.6641 2.613,-0.6134 3.42,-4.8484 3.42,-22.4942 0,-27.0211 3.354,-33.2307001 11.629,-21.5234 20.928,29.6016 61.294,50.4795 76.336,39.4805 6.459,-4.7226 9.367,-15.9122 0.563,-15.9122 -13.586,2e-4 -40.334,-15.9288 -55.217,-32.8808001 -12.663,-14.4222 -16.731,-15.3535 -0.881,-28.8300999 7.094,-7.2281 17.702,-17.3024 31.152,-27.9531 53.58,-42.9732 127.213,-99.992899 70.893,-202.296899 -5.009,-10.6431 -6.621,-15.3579 -8.859,-20.7715 -0.886,-2.1407 15.276,-5.5097 18.337,-5.5097 0.854,0 1.551,2.4797 1.551,5.5097 0,16.5564 30.235,99.8767 50.075,137.9961 24.449,46.975699 45.598,77.221299 73.257,104.765599 25.323,25.2182999 54.707,43.5628 85.334,58.6641 8.82,4.3504 10.649,6.7951 10.559,7.5156 -0.257,2.1868 -37.75,26.2326 -45.6,29.2383 -4.035,1.5448 -13.305,4.1684 -21.761,5.252 -4.452,0.5953 -23.185,14.0784 -13.45,22.0234 6.651,4.8635 30.72,3.8818 46.123,-1.8809 15.652,-5.8559 71.359,-49.1839 72.612,-55.6894 1.238,-6.4335 -5.88,-11.945 -22.705,-19.918 -21.079,-9.9864001 -63.29,-40.5038 -81.18,-56.8691 -49.823,-45.5804 -94.16,-127.678799 -122.738,-222.705099 -8.482,-28.2045 -13.96,-28.5658 -3.387,-33.5684 37.487,-17.7371 73.285,-112.0189 84.877,-192.875 7.431,-51.8308 2.884,-125.9529 -4.524,-139.7929 -4.612,-8.6201 1.232,-4.6491 8.52,5.789 16.265,23.2903 25.864,38.5622 40.293,64.0997 19.317,34.1927 23.139,38.3505 34.359,37.4062 7.127,-0.5998 9.364,-2.2217 12.805,-9.2852 12.63,-25.9206 10.756,-98.6772 -4.461,-173.2246 -3.331,-16.3233 -3.303,-18.4892 0.318,-24.0156 2.189,-3.3411 5.567,-10.5721 7.508,-16.0703 3.121,-8.8478 3.091,-10.6615 -0.277,-15.8008 -2.091,-3.1928 -4.863,-5.1509 -6.158,-4.3496 -1.296,0.8 -3.019,-0.2652 -3.824,-2.3672 -0.846,-2.1972 -4.354,-3.8242 -8.256,-3.8242 -4.732,0 -7.178,-1.4795 -8.069,-4.8887 -1.29,-4.9319 -10.012,-6.8614 -12.537,-2.7754 -1.938,3.1343 -12.19,1.3985 -19.316,-3.2714 -3.436,-2.2504 -9.345,-3.7373 -13.131,-3.3028 z m 23.437,72.791 c 0.511,-0.053 1.105,0.179 1.727,0.8008 v -0.01 c 0.812,0.8127 1.011,2.8681 0.445,4.5665 -0.829,2.4945 -1.402,2.4925 -2.943,0 -1.53,-2.4747 -0.759,-5.1993 0.771,-5.3575 z m -172.464,18.8985 c 3.755,0.6738 5.897,3.9708 7.664,11.0097 1.269,5.0566 0.528,7.1022 -3.311,9.1563 -2.72,1.4563 -8.436,2.6465 -12.703,2.6465 -6.39,0 -7.468,-0.7546 -6.104,-4.2793 0.91,-2.3534 2.246,-7.2002 2.967,-10.7696 0.88,-4.3668 3.218,-6.8534 7.149,-7.6035 1.655,-0.3168 3.086,-0.3848 4.338,-0.1601 z m 22.906,1 c 2.275,-0.1632 5.741,0.1104 9.808,0.666 -2.263,13.5264 -8.025,47.7466 -13.513,78.3105 l -6.844,-27.9824 c -0.27,-2.2223 -0.461,-4.9727 -0.832,-6.3144 -2.256,-8.1711 -1.878,-9.4055 4.783,-15.627 7.772,-7.2609 9.959,-20.6528 4.297,-26.3144 -1.674,-1.6742 -0.595,-2.5307 2.301,-2.7383 z m -44.205,0.5468 c 1.391,0.3694 0.175,3.5248 -4.369,14.086 -5.882,13.6765 -4.309,18.0059 7.492,20.5976 l 6.853,1.5059 c -2.669,0.3173 -5.521,26.8265 -6.359,43.5742 -10.364,-26.4127 -22.606,-58.7182 -27.133,-73.0019 1.357,-0.4743 2.554,-1.0415 4.043,-1.4551 7.8,-2.1677 15.557,-4.3791 17.238,-4.918 1.017,-0.3252 1.771,-0.5118 2.235,-0.3887 z m 184.287,1.4551 c 0.995,0.063 1.99,0.629 3.246,1.4512 7.308,4.7828 24.994,7.3605 27.1,3.9512 3.834,-6.2031 5.851,-1.307 10.226,24.8008 3.321,19.8206 4.57,39.1318 4.465,69.0839 -0.08,23.4228 -1.277,44.241 -2.736,47.6856 -2.947,6.9546 -1.767,8.5437 -27.87,-37.4981 -6.736,-11.8829 -19.446,-31.3492 -28.246,-43.2578 -8.798,-11.9066 -16.041,-22.3608 -16.111,-23.2285 -0.06,-0.8695 6.194,-11.343 13.902,-23.2773 10.05,-15.5604 13.038,-19.9005 16.024,-19.711 z m -112.936,2.1406 c 7.923,1.9205 16.069,4.2469 22.739,6.918 4.401,1.7627 8.646,7.0614 12.968,16.1875 10.856,22.9313 13.211,23.8423 -0.433,33.9883 -14.669,10.9085 -40.178,25.6528 -57.02,33.375 2.853,-11.1864 5.844,-21.9655 8.793,-29.5527 6.378,-16.4047 10.978,-46.3593 12.953,-60.9161 z m -106.615,9.0723 c 3.784,9.0607 23.417,56.1599 37.607,91.4551 l -14.998,0.8965 -4.177,-8.7656 c -2.299,-4.8216 -11.262,-17.6882 -21.487,-26.9844 -10.735,-9.7599 -25.948,-17.4154 -10.611,-41.1446 4.53,-7.0079 8.798,-11.8505 13.666,-15.457 z m -116.799,17.7227 c 1.618,-0.07 3.641,0.085 6.326,0.2988 18.823,1.5002 46.717,11.8959 66.131,24.6465 17.004,11.171 46.192,39.0521 46.192,44.125 0,4.8571 -30.128,-6.3769 -68.651,-25.5996 -28.066,-14.0047 -34.056,-15.7791 -34.056,-10.086 0,10.9216 58.106,43.699 93.306,52.6348 17.84,4.5282 17.971,4.6212 19.717,14.0078 2.917,15.6888 -0.591,39.4679 -8.348,56.5781 -8.04,17.7298 -7.767,24.5327 0.799,19.9473 5.284,-2.8259 5.286,-2.8133 3.582,18.2031 -2.416,29.7689 -7.069,45.7136 -21.494,73.6758 -6.938,13.449 -16.842,32.7055 -22.008,42.793 -5.541,10.8231 -10.634,25.3591 -12.427,35.459 l -3.039,17.1191 -13.428,0.418 c -7.386,0.2291 -17.829,-0.5898 -23.209,-1.8223 -15.368,-3.5273 -12.957,-3.8815 -7.557,-11.459 10.055,-16.2682 14.782,-28.0849 13.211,-33.0371 -2.683,-8.4514 -17.172,-6.044 -25.461,10.1914 -12.069,23.6316 -12.678,23.9501 -25.947,13.6113 -14.033,-10.9328 -17.828,-19.7619 -17.828,-41.4843 0,-30.4764 2.37,-35.2072 42.644,-85.1289 10.795,-13.3813 10.952,-13.4693 29.344,-16.1836 21.338,-3.1495 40.024,-12.954 41.281,-21.6621 1.005,-6.9584 -1.843,-6.8118 -17,0.8691 -18.161,9.2029 -17.239,5.539 1.2,-4.7715 21.095,-11.7971 33.874,-27.2224 26.388,-31.8496 -1.144,-0.7063 -5.819,1.5086 -10.39,4.9238 -15.407,11.509 -17.606,11.7155 -9.789,0.9239 11.638,-16.0642 15.749,-34.1953 7.755,-34.1953 -1.337,0 -6.75,6.3263 -12.031,14.0605 -10.343,15.1479 -16.966,21.8678 -28.484,28.8906 -5.759,3.5124 -4.852,1.9661 4.213,-7.1875 12.373,-12.4941 27.358,-39.7443 25.931,-47.1523 -0.492,-2.5548 -2.948,-4.5078 -5.67,-4.5078 -3.427,0 -7.471,4.9007 -14.123,17.1191 -5.127,9.4148 -13.068,20.8911 -17.65,25.502 l -8.328,8.3828 5.902,-12.0528 c 7.396,-15.1013 8.062,-27.9472 1.449,-27.9472 -3.294,0 -6.165,3.8388 -10.066,13.4511 -3.002,7.397 -6.157,13.4307 -7.01,13.3907 -2.733,-0.1005 -21.81,-44.8948 -26.066,-61.2071 -5.632,-21.5781 -3.952,-47.1025 4.137,-62.7578 4.489,-8.6946 5.698,-10.9214 10.552,-11.1308 z m 172.418,5.5468 c 1.014,0 2.627,7.9577 3.586,17.6856 0.905,9.1881 3.281,19.855 5.418,25.041 l 4.656,20.9512 c -6.332,1.5431 -13.488,2.8612 -21.06,3.5703 -0.01,-0.027 -0.02,-0.049 -0.03,-0.076 0,-7.8577 0.153,-25.6915 1.271,-33.666 1.11,-4.3198 2.099,-9.8034 2.621,-15.375 0.934,-9.9714 2.526,-18.1309 3.539,-18.1309 z m 104.856,33.6446 c 1.817,-0.5445 2.681,0.3708 3.865,2.3652 3.258,5.4878 2.682,73.4033 -0.916,108.0254 -6.867,66.0776 -28.521,132.3326 -58.162,177.9531 -20.119,30.9667 -31.784,35.651 -68.699,43.2696 -23.845,4.9214 -32.709,5.9652 -32.709,3.0586 0,-1.0087 4.655,-5.9716 12.785,-15.918 15.117,-18.4943 17.219,-25.3698 8.156,-26.6699 -5.06,-0.7265 -7.721,-5.4274 -25.621,18.7988 -3.778,5.1155 -18.537,27.0365 -20.006,26.5449 -1.468,-0.4895 -4.757,-4.9088 -7.305,-9.8203 -4.098,-7.8936 -4.305,-10.5076 -1.802,-22.5605 1.556,-7.4979 10.74,-29.2743 20.408,-48.3887 22.565,-44.6138 26.61,-60.1742 25.928,-99.7754 -0.473,-27.428 0.03,-31.528 5.246,-42.5781 4.674,-9.9024 5.877,-16.8775 6.345,-36.6817 l 0.578,-24.4531 15.924,-1.2676 c 3.189,8.1764 5.691,14.7942 6.174,16.7852 2.575,10.603 16.288,15.0067 20.795,6.2578 1.98,-3.8427 4.866,-15.5921 8.182,-29.2988 0.833,-0.2666 2.233,-0.505 2.937,-0.7696 16.396,-6.1702 53.462,-27.0509 68.313,-38.4824 4.996,-3.8461 7.766,-5.8501 9.584,-6.3945 z m -92.614,48.7324 c -0.08,0.2548 -0.199,0.7446 -0.265,0.8926 -1.679,3.7621 -3.591,11.4633 -6.172,11.0664 -1.825,-0.2806 -4.101,-6.0652 -5.955,-10.0899 4.191,-0.5413 8.232,-1.0235 12.392,-1.8691 z m -200.212,29.209 c 4.828,1.9272 17.271,33.7201 15.484,40.8398 -1.459,5.8126 -2.796,6.5274 -12.203,6.5274 -12.259,0 -18.267,-4.6878 -18.227,-14.2364 0.03,-6.9768 10.094,-30.6346 14.088,-33.1035 0.248,-0.1531 0.534,-0.1558 0.858,-0.027 z m -33.848,175.6426 c 0.664,0.6666 0.37,5.126 -0.485,12.4961 -3.122,24.5192 8.034,42.2456 36.389,60.7851 -48.468,60.0015 -87.044,97.2932 -137,138.6074 -1.157,0 -6.69,-1.6017 -16.375,-6.2441 -29.618,-14.1938 -55.827,-15.5331 -78.418,-4.0078 -5.616,2.8574 -10.213,4.218 -10.213,3.0039 0,-1.2142 8.73,-10.9939 19.397,-21.7324 20.3,-20.4368 30.769,-26.7558 77.244,-46.6446 25.798,-11.0391 36.707,-17.6252 56.521,-34.1152 17.389,-14.4707 25.852,-29.3138 39.776,-69.7656 8.284,-24.0654 12.056,-33.494 13.164,-32.3828 z" fill="#00B894" transform="translate(-37.513692,-69.47745) matrix(0.26458333,0,0,0.26458333,-10742.097,320.68957)"/>
</svg>