<?xml version="1.0" ?><svg height="320.91794mm" viewBox="0 0 289.5022 320.91794" width="289.5022mm" xmlns="http://www.w3.org/2000/svg">
    <path d="m 36984.93,-1741.3906 c -3.325,-0.1555 -6.271,0.4188 -8.483,2.0703 -11.797,8.8077 7.619,17.5215 7.619,17.5215 0,0 -71.84,8.2357 -76.548,20.0429 -4.708,11.8072 31.687,19.3301 31.687,19.3301 0,0 -7.407,21.4719 -10.846,28.9942 -3.441,7.5223 -2.168,30.8505 -3.49,48.1328 0,0 8.569,43.6589 31.951,61.8457 23.383,18.1869 58.353,14.6639 97.659,-19.377 39.306,-34.0408 19.625,-108.8847 19.625,-108.8847 0,0 -6.4,-35.3725 -22.006,-51.9883 -15.606,-16.6158 -31.213,-2.6192 -31.213,-2.6192 0,0 -21.547,-14.3946 -35.955,-15.0683 z m -530.313,67.457 c -6.282,-0.1662 -12.789,0.3748 -19.287,1.9551 -34.657,8.428 -61.571,40.1487 -83.84,52.3594 -22.269,12.2107 -53.903,28.3362 -85.316,19.9082 -10.913,-7.1672 -22.858,6.9693 -12.535,22.6308 10.324,15.6615 41.293,24.5533 50.511,22.3633 9.217,-2.1899 28.538,-6.5703 28.538,-6.5703 0,0 3.538,22.6311 20.056,17.123 16.517,-5.5081 36.354,-32.6504 36.354,-32.6504 0,0 10.692,10.5501 23.08,3.5821 12.388,-6.968 22.933,-33.3797 37.828,-37.4942 14.896,-4.1145 23.006,-1.1289 23.006,-1.1289 0,0 -24.628,34.5094 -3.539,69.4825 21.09,34.973 48.519,44.8608 82.734,41.1445 34.215,-3.7163 73.592,-39.8177 78.68,-68.4199 5.088,-28.6023 -25.956,-95.8267 -58.77,-99.543 -32.814,-3.7163 -67.25,9.9531 -67.25,9.9531 0,0 -23.026,-13.9752 -50.25,-14.6953 z m 619.487,165.6992 c -14.62,0.033 -30.412,7.0937 -47.225,15.0742 -29.889,14.1876 -35.921,22.2822 -35.498,43.9922 2.449,22.9878 31.554,103.8264 34.305,164.9571 2.751,61.1307 -28.556,69.1728 -48.5,112.0214 -19.944,42.8487 0.211,67.5574 34.65,82.6973 34.439,15.1398 105.312,-14.0458 123.986,-36.1367 18.674,-22.0908 46.183,-127.2591 38.512,-222.2402 -7.671,-94.9812 -45.725,-118.8672 -68.314,-144.8145 -9.883,-11.3519 -20.545,-15.5767 -31.916,-15.5508 z m -563.448,34.8711 c -35.018,0.2085 -62.517,36.9659 -81.459,81.9473 -20.204,47.9801 -20.083,124.9926 -16.691,167.1328 3.392,42.1401 4.424,48.1806 -9.217,61.5859 -13.642,13.4052 -50.216,6.3041 -79.121,8.295 -28.906,1.9909 -44.835,5.1748 -60.025,15.5937 24.56,2.9249 94.308,30.3242 124.541,65.8281 30.233,35.504 75.758,76.34901 134.38,69.5137 58.623,-6.8354 114.959,-36.6317 134.426,-67.6894 19.467,-31.0576 0.885,-32.1205 -23.744,-40.084 -24.629,-7.9635 -59.578,-62.1081 -70.049,-80.9551 -10.471,-18.8469 -23.89,-62.7122 -6.562,-97.3535 17.329,-34.6412 22.933,-103.1277 18.656,-119.0547 -4.276,-15.927 -19.613,-59.1948 -58.031,-64.3047 -2.401,-0.3194 -4.769,-0.469 -7.104,-0.4551 z m 364.973,50.4707 c -13.609,0.1429 -2.96,20.3447 9.82,37.1074 0,0 17.846,2.9868 22.565,-8.2285 4.719,-11.2152 -8.998,-24.7524 -28.391,-28.4687 -1.515,-0.2904 -2.841,-0.4223 -3.994,-0.4102 z m -75.932,72.6153 c -12.274,0.055 -23.986,2.6798 -28.47,9.1543 -10.249,14.7989 10.397,44.9935 43.8,52.957 44.834,-11.1489 26.843,-42.1395 20.649,-52.293 -3.484,-5.7113 -20.197,-9.8892 -35.979,-9.8183 z" fill="#FFFFFF" transform="translate(126.98894,-6.4228255) matrix(0.26458333,0,0,0.26458333,-9699.9977,525.45249)"/>
    <path d="m 38074.111,-1920.8047 c -4.166,-0.1733 -5.955,7.1415 -6.129,15.8067 -0.506,25.2646 -1.04,23.8379 -7.242,54.6933 -3.935,15.6375 -5.521,17.4961 -14.914,17.4961 -5.782,0 -13.158,2.6458 -16.388,5.8789 -8.359,8.3577 -7.47,29.9355 1.603,39.0098 6.629,6.4405 13.946,7.9585 26.225,3.7129 5.078,-2.7165 9.354,-14.0187 15.332,-40.5332 l 8.289,-36.7676 18.09,-3.7051 c 9.95,-2.0379 18.089,-2.4227 18.089,-0.8555 2.289,25.3542 -6.443,24.1797 -6.443,24.1797 -25.41,3.4802 -28.898,17.5777 -23.984,30.043 3.515,7.7153 6.504,9.2186 16.427,8.2617 10.989,-1.0605 20.397,-2.3832 23.875,-24.043 2.984,-18.5806 6.489,-29.3786 6.686,-51.9394 0.25,-26.672 4.309,-32.3898 -24.789,-31.7949 -13.789,-1.0287 -27.171,-3.9751 -29.738,-6.5469 -1.946,-1.9488 -3.6,-2.8387 -4.989,-2.8965 z m -420.431,10.543 c -1.421,-0.016 -3.169,1.7631 -6.594,5.3222 -26.512,27.5421 -31.316,34.7311 -27.568,41.2325 6.649,11.5282 18.755,42.5443 18.755,48.041 0,2.9154 -2.342,5.3008 -5.209,5.3008 -10.776,0 -13.277,23.6696 -3.56,34.3066 6.076,6.6517 11.49,8.0556 22.9,1.0176 16.438,-10.1398 8.774,-51.7886 -14.66,-84.6973 -8.959,-12.5812 -11.565,-9.1354 0.875,-18.3476 4.955,-3.8087 10.247,-6.9628 11.758,-7.0079 5.597,-0.1692 25.809,45.2976 22.135,49.7833 -2.938,3.5828 -12.426,19.9722 -0.983,33.3613 2.681,3.1373 14.694,3.4333 23.102,-1.0664 15.034,-8.0466 5.821,-44.9781 -19.465,-78.0215 -6.918,-9.0384 -14.504,-19.7366 -16.857,-23.7734 -2.114,-3.6229 -3.209,-5.4349 -4.629,-5.4512 z m -325.94,0.022 c -3.996,0.7648 -5.896,9.4412 -4.365,13.4336 2.24,5.8312 -3.896,52.4616 -8.598,64.4668 -1.307,3.3433 -6.544,6.0781 -11.634,6.0781 -20.224,0 -31.225,24.1226 -17.778,38.9824 3.406,3.7624 9.88,6.8398 14.385,6.8398 19.688,0 35.533,-37.4612 35.533,-84.0097 2.391,-21.6473 1.7,-31.6266 15.797,-27.166 16.007,5.5806 38.119,2.202 39.514,-5.1563 0.923,-4.8853 -3.944,-6.4123 -26.537,-8.3223 -15.217,-1.2863 -30.736,-3.5152 -34.481,-4.9531 -0.652,-0.2503 -1.265,-0.3026 -1.836,-0.1933 z m 759.858,18.1757 c 1.112,0.048 2.502,0.3265 4.228,0.7891 4.629,1.2406 14.223,2.2786 21.32,2.3066 8.52,0.034 11.647,1.3101 9.202,3.7559 -2.037,2.0376 -11.633,4.7913 -21.323,6.1191 -16.497,2.2612 -17.617,1.8784 -17.617,-6.0117 0,-5.1843 0.851,-7.1039 4.19,-6.959 z m -41.594,81.6993 c 2.056,0 3.738,1.6849 3.738,3.7422 0,2.0572 -1.682,3.7402 -3.738,3.7402 -2.06,0 -3.742,-1.683 -3.742,-3.7402 0,-2.0573 1.682,-3.7422 3.742,-3.7422 z m -748.348,3.7422 c 2.18,0 3.961,1.683 3.961,3.7402 0,2.0576 -0.74,3.7402 -1.648,3.7402 -0.907,0 -2.688,-1.6826 -3.961,-3.7402 -1.271,-2.0572 -0.529,-3.7402 1.648,-3.7402 z m 255.237,2.6718 c -11.64,-0.615 -12.845,4.8791 -8.858,20.3535 2.301,8.9377 5.239,23.4047 6.524,32.1485 2.048,13.9151 1.458,15.8965 -4.721,15.8965 -16.371,0 -21.612,20.6133 -8.561,33.666 8.744,8.7447 14.696,9.3685 24.063,2.5195 5.99,-4.381 6.578,-9.3118 5.015,-42.082 -0.974,-20.4154 -3.145,-40.3252 -4.822,-44.2422 -2.798,-6.523 -1.485,-3.3473 12.971,-1.4082 22.682,3.0423 17.668,-9.0216 -6.299,-14.3438 -6.392,-1.4195 -11.433,-2.3027 -15.312,-2.5078 z m 287.33,91.7598 c -9.019,-0.107 -14.916,3.9482 -14.916,11.6094 0,7.797 -3.024,9.2917 -30.862,15.2675 -38.194,8.1996 -43.953,11.1984 -43.953,22.8907 0,9.8688 18.246,24.0853 30.947,24.1133 6.015,0.013 6.122,0.7976 1.125,8.4316 -10.105,16.1842 -11.248,38.6098 -13.201,54.4434 -10.115,5.3948 -23.636,15.5589 -19.021,21.121 2.884,3.4723 8.231,5.5322 11.887,4.5762 4.969,-1.2992 7.766,1.6455 11.07,11.6602 5.679,17.2071 35.108,46.6183 52.008,51.9746 46.501,14.739 95.443,-9.5581 116.882,-58.0254 6.105,-13.7979 6.923,-21.3222 4.899,-45.0781 -1.335,-15.6836 -2.46,-34.407 -2.49,-41.6075 -0.101,-21.9837 -2.969,-29.5013 -17.311,-45.375 -15.977,-17.6851 -28.333,-23.5973 -38.242,-18.2949 -4.857,2.5989 -8.039,2.2245 -10.957,-1.291 -2.261,-2.7251 -10.749,-7.9486 -18.863,-11.6074 -7.056,-3.1818 -13.591,-4.7444 -19.002,-4.8086 z m 0.939,16.625 c 4.006,-0.8521 20.229,7.2206 23.402,12.3555 3.238,5.2376 -1.883,4.4663 -14.007,-2.1114 -5.66,-3.0694 -10.289,-7.2545 -10.289,-9.2988 0,-0.5207 0.322,-0.8236 0.894,-0.9453 z m 60.846,22.1758 c 1.702,-0.3807 4.692,2.3965 8.867,8.2597 9.626,13.514 8.723,14.8577 -3.391,5.0489 -4.635,-3.7529 -7.671,-9.0959 -6.746,-11.8731 0.277,-0.8312 0.702,-1.3086 1.27,-1.4355 z m -72.559,1.8574 c 3.836,0.2684 0.959,1.666 -10.228,6.7461 -8.489,3.8553 -16.583,8.8671 -17.989,11.1387 -2.78,4.5013 -3.588,4.5494 -16.359,0.9531 -4.749,-1.3379 -8.901,-4.1166 -9.227,-6.1738 -0.648,-4.1036 29.984,-12.211 47.79,-12.6504 2.711,-0.067 4.735,-0.1032 6.013,-0.014 z m 20.363,13.002 c 24.34,0.6055 51.578,25.2607 67.336,46.789 6.932,13.4186 7.25,49.4657 0.09,62.666 -11.702,21.5751 -35.117,40.3167 -60.646,43.9492 -10.088,1.4354 -14.428,-3.5369 -7.123,-9.5996 2.958,-2.4525 8.203,-11.8672 11.66,-20.9218 5.852,-15.3187 5.859,-17.1171 0.111,-25.8887 -10.825,-16.2789 -18.277,-1.3877 -29.818,11.1465 -9.771,11.3155 -20.002,20.5722 -22.734,20.5722 -4.691,0 -16.87,-25.993 -16.87,-34.0156 8.733,-5.4349 8.003,-19.113 -0.09,-17.8828 0,0 -3.814,-5.8271 2.875,-26.8437 7.603,-23.897 24.963,-42.6752 44.998,-48.6778 3.316,-0.9743 6.733,-1.3795 10.21,-1.2929 z m -540.712,14.8964 c -34.454,-0.1783 -50.905,7.4928 -85.739,39.9825 -13.208,12.321 -30.881,25.5218 -39.275,29.3339 -17.495,7.947 -49.504,9.2275 -64.123,2.5664 -8.587,-3.9134 -10.642,-3.5616 -15.139,2.586 -11.508,15.7385 -1.449,45.2234 20.518,60.1504 15.371,10.4453 43.129,12.4414 54.758,3.9375 6.32,-4.6209 8.152,-4.0515 16.824,5.2304 7.404,7.9258 12.128,9.9583 19.756,8.5 9.695,-1.8533 36.31,-27.2491 36.31,-34.6464 0,-2.0128 3.942,0.7254 9.914,1.9199 9.297,1.8594 14.36,-3.9198 31.139,-20.6113 10.709,-10.6537 20.19,-18.6517 21.068,-17.7735 0.878,0.878 -0.396,10.2212 -2.828,20.7637 -8.113,35.1488 9.907,67.7642 47.287,85.582 14.844,7.076 23.462,8.6706 41.541,7.6836 28.433,-1.5525 68.057,-20.0129 82.909,-38.6269 8.799,-11.0266 12.496,-12.836 26.257,-12.836 10.844,-3e-4 16.716,-1.8265 18.186,-5.6582 3.473,-9.0538 -6.28,-17.6146 -18.09,-15.8808 -9.932,1.4574 -10.502,0.7701 -10.502,-12.6348 0,-31.6552 -25.017,-77.2224 -52.32,-95.2891 -19.081,-12.5024 -39.622,-12.1684 -65.633,-4.0644 -10.655,3.7589 -18.927,9.0517 -19.805,6.414 -3.158,-9.478 -25.501,-16.4858 -53.013,-16.6289 z m 3.74,18.9063 c 13.374,-0.011 25.586,4.4283 31.756,6.0137 9.539,2.4508 10.358,3.5372 5.459,7.2539 -3.168,2.404 -6.732,7.514 -12.534,15.2089 -5.805,7.6951 -11.767,13.2386 -13.257,12.3184 -1.489,-0.9202 -8.977,0.2514 -16.639,2.6035 -12.756,3.9144 -26.998,16.8416 -38.604,35.0371 -4.441,6.9612 -4.671,6.9637 -10.109,0.1094 -7.4,-9.3344 -15.19,-5.7212 -22.961,10.6582 -3.509,7.3956 -9.903,15.9123 -14.207,18.9277 -12.346,8.6484 -17.381,6.263 -17.381,-8.2343 0,-10.3094 -11.257,-11.6497 -26.185,-3.1172 -18.709,10.6953 -50.829,3.7682 -59.739,-12.8848 -6.786,-12.6767 -4.777,-14.822 10.041,-10.7305 35.305,9.7479 73.737,-3.4626 110.938,-38.1328 31.11,-28.9923 43.713,-35.0032 73.422,-35.0312 z m 94.099,5.4824 c 13.634,-1.5406 27.012,1.6993 33.825,8.5039 14.278,14.2623 10.828,11.748 -8.067,15.5098 -27.09,-9.6424 -31.885,0.862 -24.953,7.7949 3.334,3.3303 -2.946,5.3774 -19.58,13.3613 -12.543,6.0202 -29.277,18.4459 -39.369,29.2344 -9.654,10.3202 -18.146,18.7656 -18.873,18.7656 -3.672,0 7,-33.7912 15.75,-49.8691 11.777,-21.6408 23.066,-30.9478 47.783,-40.1211 4.367,-1.6209 8.94,-2.6661 13.484,-3.1797 z m 405.274,3.3945 c -7.521,0 -11.356,17.3887 -5.414,24.5508 4.194,5.0499 5.441,5.0835 10.254,0.2676 6.705,-6.7042 3.172,-24.8184 -4.84,-24.8184 z m -355.104,31.5606 c 5.303,-0.036 7.223,3.9634 12.008,16 14.252,35.8442 4.947,63.3519 -24.328,80.3848 -10.781,6.2748 -11.173,6.1968 -24.693,-4.9473 -7.99,-6.585 -13.77,-14.7329 -13.86,-19.4688 -0.115,-7.9658 -5.11,-10.3991 -10.482,-3.2968 -3.94,13.5345 1.526,25.1322 6.803,31.6347 6.994,8.617 6.931,9.5528 0.933,10.9903 -16.769,4.0202 -57.018,-11.8428 -61.82,-24.3653 -8.125,-21.1703 50.705,-68.5305 100.891,-83.375 6.967,-2.061 11.367,-3.5351 14.548,-3.5566 z m 0.366,38.2558 c -4.851,-0.4498 -9.973,5.1409 -9.973,12.9356 0,4.397 2.649,7.0234 7.082,7.0234 8.776,0 13.233,-10.3851 7.451,-17.3535 -1.357,-1.6341 -2.944,-2.4555 -4.56,-2.6055 z m 389.564,2.5254 c 1.54,0.5672 -1.456,6.4773 -8.83,16.1446 -9.454,12.3943 -17.902,15.8119 -22.139,8.957 -1.206,-1.9543 1.638,-5.5314 6.326,-7.9492 4.685,-2.4178 12.31,-7.8446 16.938,-12.0606 4.225,-3.8486 6.781,-5.4321 7.705,-5.0918 z m 88.617,70.0118 c -19.529,-0.1279 -58.287,9.111 -75.863,18.082 -24.225,12.364 -27.998,19.1849 -27.561,49.8574 0.213,14.9806 2.111,33.1196 4.213,40.3066 2.104,7.1874 3.826,13.3753 3.826,13.752 0,0.3768 -14.313,1.2291 -31.804,1.8945 -30.53,1.1615 -31.795,0.8839 -31.795,-6.9199 0.01,-12.1364 -17.318,-30.411 -32.961,-34.7558 -7.583,-2.1057 -29.45,-3.8516 -48.592,-3.8516 -29.601,-0.018 -40.499,1.8759 -72.941,12.664 -20.977,6.9758 -46.558,13.7671 -56.842,15.0938 -21.693,2.7974 -54.672,-4.6124 -80.426,-18.0703 -110.39,-57.6852 -105.099,-55.39 -121.871,-52.875 -41.212,6.1803 -78.912,53.5742 -96.826,121.7207 -9.825,37.3773 -11.881,112.2844 -4.049,147.4863 5.803,26.0821 5.856,29.5381 0.57,37.6016 -7.195,10.9851 -13.734,11.9592 -58.371,8.6992 -42.27,-3.0871 -68.906,1.2669 -84.199,13.7617 -23.98,16.7514 -8.902,24.4032 20.02,27.7422 38.925,6.2432 53.053,16.7686 122.158,91.00391 16.364,17.578 27.512,25.96327 41.146,30.94727 10.287,3.75969 20.206,8.14088 22.041,9.73828 3.697,3.2215 -15.755,35.59585 -28.093,46.75195 -17.204,15.5541 -66.832,2.18296 -96.135,-25.90234 -6.829,-6.5438 -18.229,-22.83805 -25.332,-36.21094 -18.729,-35.26353 -25.018,-42.50813 -34.323,-39.55473 -11.273,3.5778 -30.23,35.25789 -40.554,67.77348 -10.437,32.8673 -11.255,47.50459 -3.026,54.33399 10.093,8.3763 17.807,-0.77326 24.18,-28.68946 6.583,-28.8256 18.242,-61.3457 21.996,-61.3457 1.35,0 6.905,9.67997 12.342,21.50977 14.841,32.2899 32.997,51.13562 64.051,66.48242 60.786,30.0435 98.005,17.76758 122.056,-40.25782 l 8.559,-20.64648 28.488,-1.85742 c 35.184,-2.2951 83.625,-17.56493 108.213,-34.11133 l 18.512,-12.45508 21.375,23.89844 c 21.932,24.52289 45.573,60.4162 49.172,74.6582 1.465,5.8025 -2.968,14.24131 -16.047,30.53711 -9.942,12.3854 -28.756,42.02208 -41.813,65.85938 -13.054,23.8372 -25.278,43.33984 -27.16,43.33984 -1.882,0 -16.635,-12.62469 -32.787,-28.05469 -16.151,-15.4301 -32.175,-28.05468 -35.611,-28.05468 -9.808,0 -11.571,11.00772 -4.01,25.04882 7.95,14.7649 50.423,55.72793 64.369,62.08203 8.582,3.9103 10.49,2.99645 22.024,-10.56445 6.943,-8.165 27.228,-37.15025 45.074,-64.41015 17.848,-27.26 33.646,-49.5625 35.107,-49.5625 5.382,0 7.732,28.56777 6.68,81.14257 -0.884,44.192 -0.09,54.56927 4.414,57.41407 6.365,3.91778 11.226,3.31375 20.557,-1.46485 4.057,-2.7791 11.842,-6.13789 17.302,-7.46289 13.926,-3.3803 46.224,-29.76579 57.746,-47.17969 19.366,-29.2652 -3.031,-43.62327 -23.031,-14.76367 -9.802,14.1455 -37.568,40.79297 -42.508,40.79297 -1.173,5e-4 -2.13,-18.93643 -2.13,-42.08203 0,-23.1455 -2.399,-55.43501 -5.325,-71.75391 l -5.32,-29.66992 33.869,-32.45117 c 18.63,-17.8485 48.877,-42.48732 67.217,-54.75391 45.79,-30.63059 111.722,-62.53689 128.383,-62.12889 14.138,0.3461 37.406,4.7612 37.406,7.0976 0,0.7906 -5.699,9.4358 -12.666,19.2129 -35.124,49.29402 -63.395,127.39097 -61.404,169.61527 1.036,21.9525 1.974,24.30823 11.513,28.86523 21.498,10.2704 62.53,-10.97223 154.85,-80.17382 22.985,-17.23011 42.583,-31.32813 43.551,-31.32813 4.031,0 7.523,14.75527 9.65,40.75977 1.723,21.0831 3.874,28.64882 9.043,31.79492 5.512,3.3573 8.133,2.47807 14.027,-4.70313 5.676,-6.9184 7.239,-14.61335 7.209,-35.53515 -0.06,-40.2039 -17.541,-73.46289 -38.625,-73.46289 -3.016,0 -15.96,7.99497 -28.761,17.76757 -87.107,66.488 -147.505,107.36719 -153.324,103.77149 -4.311,-2.6652 3.232,-43.07226 13.615,-72.91016 11.253,-32.3443 29.186,-68.65739 46.982,-95.11717 11.58,-17.223 13.895,-18.7372 35.254,-23.0391 47.199,-9.5064 68.641,-28.0632 86.779,-75.1015 22.988,-59.6254 27.835,-87.1017 25.953,-147.1407 -0.934,-29.8314 -1.044,-66.8007 -1.044,-66.8007 -1.047,-3.7622 3.031,-5.6493 14.783,-5.6973 21.489,-0.088 28.349,-7.7208 28.349,-22.3067 0,-12.9147 -15.102,-28.5089 -74.334,-76.7597 -57.176,-46.5752 -60.712,-48.8172 -77.16,-48.9238 z m -2.586,15.6621 c 5.158,-0.1609 8.515,1.5911 15.034,5.0996 30.79,16.5738 64.785,76.6232 74.248,131.1562 5.784,33.3497 5.919,76.8645 1.441,111.0684 -14.08,8.3776 -37.166,20.88 -56.549,25.3926 -30.286,7.051 -68.193,0.4183 -77.892,-17.9356 1.248,-5.135 2.458,-10.3386 3.476,-16.3965 4.104,-24.43 3.873,-32.9329 -1.744,-64.1367 -6.458,-35.8615 -6.454,-36.0208 1.701,-52.0098 4.503,-8.821 12.241,-26.8176 17.201,-39.9941 4.96,-13.1767 5.47,-21.3973 6.901,-31.1973 2.755,-18.8659 -13.229,-34.186 -19.832,-24.8027 -9.433,23.0093 -10.896,34.9769 -25.961,80.5957 l -5.225,-13.2949 c -0.994,-2.2004 -2.004,-4.9815 -2.98,-8.1113 11.53,-27.7168 14.648,-47.8553 15.439,-68.2618 8.561,-3.7446 18.781,-7.7399 28.914,-10.7988 13.714,-4.1395 20.671,-6.2122 25.828,-6.373 z m -74.821,28.8867 c 5.42,-4.5938 -2.727,25.0908 -3.262,19.8107 -1.294,-10.8703 -2.67,-15.2315 3.262,-19.8107 z m -488.194,3.1406 c 2.146,0.2249 4.471,0.8605 7.17,2.0098 15.547,6.6215 25.627,17.8185 38.55,42.8242 12.857,24.8781 9.916,29.0573 -5.097,7.2383 -14.605,-21.2276 -36.989,-40.8606 -44.856,-39.3457 -11.912,2.2944 -8.494,14.9524 12.727,47.1269 11.797,17.8871 25.403,38.5051 30.238,45.8164 4.836,7.3113 8.793,15.281 8.793,17.711 0,2.4302 -4.294,19.172 -9.537,37.205 -12.689,43.6328 -12.953,74.6487 -0.895,104.502 8.001,19.8089 13.626,22.8058 -9.845,27.3242 -19.956,3.8417 -87.923,8.3278 -101.709,5.2227 -6.629,-1.4933 -8.415,-5.7911 -11.155,-26.836 -6.08,-46.698 -4.045,-138.1286 3.717,-167.2011 14.207,-53.1956 34.19,-83.9536 62.158,-97.2246 8.467,-4.0182 13.3,-7.0479 19.741,-6.3731 z m 73.006,45.1328 17.425,13.3008 c 26.289,20.0677 62.166,29.6619 102.307,27.3594 26.321,-1.5099 40.132,-4.8177 72.986,-17.4844 44.013,-16.9694 64.032,-18.7424 71.319,-6.3125 3.1,5.2881 2.963,7.4484 -0.555,8.7285 -8.868,3.2263 -5.241,23.533 6.256,35.0313 14.25,14.2487 36.569,14.9192 61.176,1.8359 13.248,-7.044 23.723,-9.2989 46.379,-9.9766 28.931,-0.8658 29.278,-0.7651 30.417,8.7754 1.361,11.3872 -18.324,52.5918 -32.169,67.3438 -12.978,13.8242 -24.371,13.1508 -69.885,-4.1309 l -37.317,-14.1679 1.079,-14.9278 c 1.967,-27.2156 -16.546,-38.4923 -63.512,-38.6914 -18.862,-0.08 -26.536,2.6967 -72.151,26.0957 -41.03,20.9906 -73.835,36.6422 -116.759,-8.4043 -9.716,-11.0651 -11.692,-16.4359 -11.692,-31.7695 0,-10.1487 -1.192,-23.8873 -2.65,-30.5293 z m 581.537,0.6797 13.869,10.9844 c 21.122,16.7299 25.28,19.761 17.83,21.7793 -17.475,4.7342 -18.435,-0.8903 -23.152,-12.2246 z m -280.575,15.1836 c 0.316,-0.3155 1.346,0.4947 3.192,2.3281 2.557,2.5376 3.706,5.5552 2.556,6.7071 -1.153,1.1517 -3.242,-0.9241 -4.648,-4.6133 -1.015,-2.6656 -1.415,-4.1064 -1.1,-4.4219 z m -105.49,71.3672 c 0.366,-0.8348 1.734,0.4546 3.938,4.2461 2.188,3.7549 3.184,7.6152 2.218,8.5781 -0.961,0.9631 -2.8,-0.9851 -4.082,-4.3281 -1.805,-4.7034 -2.44,-7.6614 -2.074,-8.4961 z m 33.869,2.7012 c 1.178,0.5769 2.902,6.7484 4.321,18.0957 1.094,8.7438 0.625,15.8984 -1.039,15.8984 -1.66,0 -3.604,-8.3342 -4.317,-18.5215 -0.773,-11.0307 -0.142,-16.0496 1.035,-15.4726 z m -55.738,4.8437 c 1.487,-0.7308 2.483,4.3153 2.231,11.2129 -0.991,26.3464 17.417,40.3809 52.962,40.3809 14.013,0 20.45,-1.8572 25.051,-7.2305 6.102,-7.1273 6.439,-7.107 23.342,1.4355 33.475,16.9165 74.051,29.2751 87.711,26.7129 13.878,-2.6041 37.584,-25.2844 49.76,-47.6093 6.642,-20.7165 6.664,1.3772 7.953,16.3593 3.254,37.825 -2.811,52.0003 -24.75,82.0449 -25.69,35.1831 -30.636,56.2079 -21.406,91.0059 1.7,6.4133 -3.72,10.1504 -37.983,26.1836 -21.981,10.2869 -56.893,29.9216 -77.586,43.6328 -20.69,13.71092 -52.142,38.48561 -69.892,55.0547 l -32.272,30.125 -13.394,-21.70117 c -7.367,-11.9357 -26.304,-33.96377 -42.082,-48.95117 l -28.686,-27.24806 10.477,-21.9238 c 9.819,-20.5421 10.088,-22.3561 4.269,-28.7832 -3.414,-3.7725 -15.344,-9.7403 -26.515,-13.2617 -14.987,-4.7238 -22.362,-9.5674 -28.124,-18.4688 -4.295,-6.6358 -15.335,-22.1657 -24.537,-34.5098 -18.668,-25.048 -31.898,-55.8383 -31.818,-74.0175 0.06,-11.4606 13.278,-69.616 16.58,-72.918 0.867,-0.8661 7.205,2.7192 14.084,7.9668 20.349,15.5199 44.431,24.7098 64.996,24.7988 15.575,0.067 26.116,-3.4682 57.981,-19.4414 21.42,-10.7371 40.161,-20.1191 41.648,-20.8496 z m -524.279,100.8633 c -10.623,-0.1522 -24.552,5.8482 -37.039,16.5371 -8.562,7.3303 -15.573,14.9013 -15.573,16.8242 0,1.9229 6.315,-0.4727 14.03,-5.3222 7.715,-4.8497 23.108,-11.8197 34.209,-15.4903 16.507,-5.4581 19.007,-7.3324 13.718,-10.291 -2.63,-1.4719 -5.804,-2.2071 -9.345,-2.2578 z m 789.084,5.4961 c 17.804,21.8377 61.71,21.9758 89.312,18.207 21.035,-2.8719 36.269,-9.5705 45.871,-15.125 -0.204,0.6158 -0.36,1.4091 -0.57,2.002 -14.207,40.0644 -33.454,79.766 -44.016,90.8047 -5.934,6.1998 -19.568,13.3548 -33.853,17.7675 -1.958,0.6048 -4.011,0.9495 -6.004,1.4746 2.286,-8.2671 1.322,-16.5917 -4.426,-17.9082 -8.635,-1.9779 -17.677,12.2505 -26.832,22.8711 -10.432,0.5313 -20.618,0.084 -29.76,-1.6816 -12.79,-2.47 -30.923,-26.7368 -30.923,-41.3867 0,-14.1284 9.915,-34.9572 24.447,-51.3672 7.142,-8.0641 12.452,-16.276 16.754,-25.6582 z m 175.261,22.1562 c -1.588,0.8635 -3.39,6.2411 -4.818,17.0078 -1.386,10.4373 -9.1,34.2466 -17.146,52.9102 -8.046,18.6636 -13.76,35.3468 -12.694,37.0723 4.317,6.9846 15.854,-5.3161 25.828,-27.5352 7.263,-16.1898 11.099,-31.8684 12.274,-50.1816 1.259,-19.6099 -0.796,-30.7125 -3.444,-29.2735 z m 43.34,4.625 c -2.406,0.3405 -4.319,5.5099 -5.761,15.7071 -1.31,9.2581 -4.471,22.325 -7.024,29.0371 -2.531,6.7121 -3.69,14.6796 -2.529,17.7051 3.145,8.1984 12.282,2.9168 17.736,-10.254 6.001,-14.4844 8.938,-36.0152 2.447,-47.6347 -1.805,-3.2302 -3.425,-4.7648 -4.869,-4.5606 z m -983.746,0.9141 c -5.278,0.1534 -10.735,0.6865 -15.904,1.6562 -21.753,4.0809 -56.906,43.2975 -56.906,63.4864 0,10.444 6.62,6.0183 16.683,-11.1563 13.82,-23.5796 34.072,-36.0765 62.934,-38.8379 17.187,-1.6442 23.252,-3.6889 23.252,-7.8359 0,-4.8174 -14.224,-7.7726 -30.059,-7.3125 z m 163.531,33.0195 c 2.542,0.6005 5.784,3.6871 14.78,7.4375 23.919,11.0033 81.31,9.2879 111.301,-1.5468 25.304,-9.1413 28.89,-0.8832 48.015,19.9277 15.327,14.9649 34.453,30.5683 42.504,34.6758 16.502,8.4181 17.998,14.8574 7.463,32.1328 -14.561,23.8797 -46.751,40.09393 -102.426,51.59373 -32.905,6.7966 -35.536,6.82288 -60.597,0.61328 -36.533,-9.0527 -55.788,-23.56437 -88.999,-67.07621 -21.975,-28.7928 -71.345,-58.3454 -97.72,-58.4941 -32.962,-0.3721 1.525,-8.9762 44.648,-5.5703 49.9,3.9412 62.998,1.2219 70.446,-6.2168 6.201,-6.1925 8.044,-8.0771 10.585,-7.4766 z" fill="#00B894" transform="translate(126.98894,-6.4228255) matrix(0.26458333,0,0,0.26458333,-9699.9977,525.45249) translate(-858.32211,-40.879228)"/>
</svg>