<?xml version="1.0" ?><svg height="351.2561mm" viewBox="0 0 225.92596 351.2561" width="225.92596mm" xmlns="http://www.w3.org/2000/svg">
    <path d="m 23866.584,8523.0469 c -3.576,-0.01 -6.966,0.039 -10.139,0.1367 -50.756,1.5651 -92.904,29.8081 -108.968,49.332 -16.063,19.5239 -28.152,49.3307 -31.049,63.7129 -2.899,14.3823 44.049,-9.0156 44.049,-9.0156 0,0 0.632,43.4545 -3.094,69.3125 -3.727,25.8584 -23.765,77.6503 -14.822,106.7871 8.943,29.1371 44.751,33.4223 28.294,46.5996 -16.456,13.177 -38.883,46.2305 -59.584,89.8984 -20.7,43.6687 -43.09,362.4551 -43.169,424.9024 -0.08,62.4469 -21.186,294.5756 -33.854,336.8281 -12.669,42.2521 -4.72,41.5817 6.293,47.9902 11.012,6.4086 52.911,10.6559 82.141,20.045 29.229,9.3895 56.953,13.5527 86.295,-2.0235 29.34,-15.5762 16.89,-61.8847 16.89,-61.8847 0,0 85.781,1.9387 103.918,-2.6836 18.137,-4.6224 93.898,19.1516 131.49,21.2383 37.593,2.0866 29.063,-29.3605 3.891,-122.584 -25.172,-93.2236 -39.114,-392.7633 -37.707,-495.0782 1.408,-102.3148 -50.324,-251.6132 -50.324,-251.6132 0,0 94.928,-52.093 116.705,-86.1485 21.777,-34.055 -18.631,-163.57 -49.35,-199.5625 -28.8,-33.7432 -124.262,-46.0697 -177.906,-46.1894 z m 327.422,21.8144 c -13.756,0.088 -22.283,0.877 -22.283,0.877 l -4.721,75.539 c 80.63,1.4446 136.053,17.3338 195.723,56.5899 59.67,39.2564 91.771,143.0898 91.771,143.0898 0,0 13.973,-56.5045 -6.516,-114.3691 -20.488,-57.865 -55.987,-103.6643 -122.455,-136.293 -45.697,-22.4322 -101.257,-25.6276 -131.519,-25.4336 z" fill="#FFFFFF" paint-order="markers stroke fill" transform="translate(103.04922,100.86167) translate(-2934.9996,-1904.5089) matrix(0.26458333,0,0,0.26458333,-3417.4795,-450.03122)"/>
    <path d="m 2907.4122,2153.3984 c -1.1446,-1.1036 -4.4494,-6.0602 -7.3443,-11.0147 l -5.2633,-9.0083 1.0231,-15.526 c 0.5631,-8.5394 1.15,-18.4029 1.3042,-21.9185 0.3445,-7.8481 2.2266,-10.6411 5.0049,-7.4271 2.4939,2.8853 3.0763,11.2207 1.9609,28.0705 l -0.9049,13.6673 6.0469,9.8689 c 4.8766,7.9588 5.8207,10.3008 4.8766,12.1003 -1.6249,3.0981 -4.2429,3.5618 -6.7041,1.1876 z m 23.0906,-9.3132 c -2.0297,-1.051 -5.0505,-3.1781 -6.7125,-4.7266 -3.0009,-2.7966 -3.0224,-2.934 -3.0862,-19.6305 -0.035,-9.248 -0.1405,-22.4437 -0.2296,-29.3235 -0.1234,-9.4191 0.264,-12.7127 1.575,-13.3351 3.5255,-1.6747 4.321,2.2926 5.8699,29.2794 l 1.5449,26.9199 4.3064,2.7883 c 4.7607,3.0825 5.7756,6.5199 2.5358,8.5891 -1.5429,0.9854 -3.1093,0.8342 -5.8037,-0.561 z m 33.8895,-3.4764 c -0.4994,-1.0515 -0.7483,-3.6246 -0.5533,-5.7177 0.1953,-2.0932 1.4043,-42.9074 2.6862,-90.6976 1.2822,-47.7905 2.5433,-91.7529 2.802,-97.6937 0.2605,-5.9411 0.2331,-11.0048 -0.055,-11.2534 -0.2879,-0.2468 -1.4827,2.8624 -2.6511,6.912 -2.2832,7.9138 -5.342,12.696 -8.2645,12.9216 -3.1291,0.2397 -8.865,-2.7504 -12.1435,-6.3335 l -3.1455,-3.4375 0.2948,30.6172 c 0.6495,67.8022 2.8662,90.117 12.3797,124.6257 1.8518,6.7177 3.4816,13.7016 3.6219,15.5195 0.5781,7.4954 -5.8914,11.5889 -15.4672,9.7867 -5.5808,-1.0505 -12.0156,-4.4641 -12.1691,-6.455 -0.097,-1.2463 2.5287,-1.2867 15.4441,-0.24 5.1331,0.4162 5.1838,0.3833 4.9075,-3.1969 -0.1542,-1.9896 -1.4357,-8.1545 -2.8495,-13.6994 -6.5953,-25.8674 -9.1376,-43.6231 -10.7839,-75.311 -0.8798,-16.941 -1.4045,-38.4573 -1.1657,-47.8139 0.2399,-9.3568 0.035,-22.5823 -0.485,-29.3902 -0.874,-11.7742 -1.1362,-12.701 -5.3706,-18.9899 l -4.4513,-6.6114 0.082,15.1528 c 0.055,10.2919 1.2307,23.6429 3.6617,41.6159 4.3793,32.3847 4.2257,35.2595 -2.2767,42.6335 l -4.8928,5.5488 1.3974,18.1125 c 0.7685,9.9622 0.9756,19.5452 0.46,21.296 -1.213,4.1202 -5.4008,4.5784 -7.1876,0.7863 -1.1642,-2.471 -2.089,-17.1182 -2.016,-31.9269 l 0.035,-5.251 -6.1278,1.311 c -3.3698,0.7211 -6.2028,1.3917 -6.2954,1.49 -0.093,0.1 -0.082,9.4501 0.035,20.7812 0.2399,25.8289 0.064,28.0894 -2.2365,29.1824 -5.5241,2.6238 -7.0686,-6.233 -6.2384,-35.774 0.3084,-11.041 0.035,-17.3638 -0.7901,-18.0696 -0.8237,-0.7057 -1.2274,-0.4733 -1.1544,0.6644 0.062,0.9624 -0.2296,7.2335 -0.6501,13.9359 -0.42,6.7026 -0.8645,22.2903 -0.9879,34.6398 -0.1233,12.3494 -0.482,29.2921 -0.7965,37.6505 -0.6424,17.0651 -0.7064,17.1902 -10.7351,20.9652 -7.1972,2.7095 -13.2074,2.4339 -20.4508,-0.9373 -2.7673,-1.2882 -7.9937,-2.4913 -11.6139,-2.6736 -8.5164,-0.4294 -12.9386,-2.3712 -15.1003,-6.6298 -1.9092,-3.7611 -1.5592,-6.9055 2.0476,-18.4054 2.7088,-8.6376 4.3546,-26.8184 6.2813,-69.3894 1.5016,-33.1759 4.658,-78.012 6.9559,-98.7982 2.152,-19.4691 7.6735,-34.9291 16.1166,-45.1249 l 5.8096,-7.0158 -4.5364,-4.304 c -3.8486,-3.6513 -4.5994,-5.1718 -4.9524,-10.0287 -0.2296,-3.1489 0.6863,-9.6303 2.0336,-14.4034 2.5145,-8.9069 4.8657,-20.9116 4.6725,-23.8545 -0.086,-1.3045 -0.4535,-1.3219 -1.7334,-0.082 -0.8931,0.866 -3.1625,1.5171 -5.0426,1.4472 -7.8096,-0.2914 -4.6751,-13.6282 5.7097,-24.2944 7.9372,-8.1528 14.2541,-10.2801 31.7725,-10.7015 34.4757,-0.8284 50.8199,8.1312 59.0521,32.3722 3.9416,11.6063 5.1294,26.5891 2.6478,33.3999 -3.0499,8.3698 -13.4751,17.2224 -25.929,22.0179 l -4.8829,1.88 2.1388,4.1819 c 1.1763,2.3002 3.3032,9.5707 4.7258,16.1567 4.2334,19.5935 4.0654,19.2187 11.8319,26.4089 3.9969,3.7004 7.6867,6.6957 8.1998,6.6563 1.0701,-0.082 7.0525,-17.377 9.4466,-27.3093 1.2474,-5.1755 1.2644,-7.1683 0.075,-8.782 -0.8463,-1.1479 -1.6148,-3.0711 -1.7073,-4.2735 -0.093,-1.2027 -0.7723,-2.7036 -1.5098,-3.3353 -1.8858,-1.6158 -0.685,-4.727 2.8977,-7.5056 l 3.0504,-2.3664 -3.0694,-0.4885 c -2.231,-0.3546 -3.1314,-1.2887 -3.2955,-3.4186 -0.216,-2.7886 1.1365,-3.8063 8.1043,-6.1013 1.175,-0.3871 3.4296,-42.1772 3.4447,-63.8509 0,-10.2031 2.1114,-15.837 5.1201,-13.7083 1.0112,0.7154 1.8865,1.9247 1.9454,2.6876 0.068,0.9056 3.1442,1.1997 8.8579,0.8473 16.8319,-1.0382 37.7934,6.4311 48.7677,17.3773 11.2132,11.1845 19.5698,30.6374 19.7327,45.9349 0.097,9.0525 -2.2159,18.1146 -4.8897,19.163 -0.6767,0.264 -2.8024,-4.1466 -4.7239,-9.8045 -6.7762,-19.9523 -17.1185,-33.3794 -30.8664,-40.0731 -8.8084,-4.2886 -25.0453,-8.1222 -32.1551,-7.592 -3.4817,0.2605 -6.2895,0.8786 -6.2395,1.3749 0.051,0.4962 0,11.4356 -0.1234,24.3093 l -0.2159,23.4071 2.777,2.2135 c 2.2241,1.7731 2.8767,3.5845 3.2791,9.1012 0.8743,11.9831 -0.9563,18.3095 -5.8991,20.3922 -0.5827,0.2468 -2.0765,36.5354 -3.3195,80.6445 -1.2433,44.1093 -2.4735,87.5826 -2.7335,96.6073 -0.2606,9.0247 -0.5968,22.694 -0.7483,30.3765 -0.1507,7.6822 -0.6808,15.2273 -1.1756,16.7662 -1.0451,3.249 -5.0989,4.0328 -6.4243,1.2421 z m -86.4087,-7.7841 4.5247,-2.2284 -0.089,-11.1508 c -0.4733,-59.5473 4.5051,-129.1431 11.4455,-159.9968 2.8455,-12.6505 9.3144,-33.86 12.6522,-41.4833 1.7542,-4.006 4.152,-11.3955 5.3287,-16.4207 2.0853,-8.9043 3.5852,-10.9927 4.8187,-6.7093 0.3326,1.1602 1.3471,2.6117 2.2509,3.2256 0.904,0.6139 2.7308,4.0339 4.0593,7.5999 2.5093,6.7345 9.2376,17.0273 9.0563,13.8545 -0.2742,-4.7869 -5.4731,-22.0926 -7.3805,-24.5655 -1.9956,-2.5868 -2.0059,-2.9216 -0.1406,-4.5202 1.1085,-0.9498 4.7454,-2.8247 8.0817,-4.1665 8.9997,-3.6192 19.4215,-12.0174 21.4367,-17.2746 3.2859,-8.5716 -0.5239,-30.5932 -7.1746,-41.4715 -6.1966,-10.1358 -19.4565,-16.8779 -38.553,-19.6018 -17.9708,-2.5633 -29.179,0.1749 -38.1201,9.3164 -3.2599,3.333 -7.8145,10.794 -8.5098,13.9416 -0.5616,2.5394 -0.3977,2.5976 2.9274,1.0409 2.0353,-0.9532 4.0081,-3.1375 4.6738,-5.1752 1.1551,-3.5363 4.8246,-7.3834 7.1481,-7.4937 0.6827,-0.035 0.3503,0.5574 -0.7393,1.31 -2.5638,1.7721 -3.7707,8.6556 -3.1115,17.7482 0.5869,8.0931 0.1645,10.5441 -4.1723,24.1724 -1.6679,5.2424 -2.9114,11.1032 -2.763,13.0237 0.3119,4.0553 4.9726,8.2709 12.0595,10.9094 6.7067,2.4974 6.3656,4.3893 -0.7885,4.3736 -6.0302,0 -14.8274,13.4736 -18.8733,28.9357 -2.6906,10.2812 -3.2397,14.8771 -5.14,43.0114 -2.831,41.9103 -3.2252,48.4422 -4.7329,78.3903 -1.6501,32.7721 -4.7943,60.6976 -7.9643,70.7313 -5.0153,15.8738 -4.4778,16.9751 8.5883,17.6015 4.9408,0.2365 10.4074,1.2144 12.1476,2.1717 3.1396,1.7279 8.1747,3.1599 11.0367,3.1394 0.8196,0 3.5266,-1.0137 6.0149,-2.2392 z m 22.9074,-243.8261 c -4.8614,-0.1611 -10.0969,-0.826 -11.6349,-1.4745 -4.8229,-2.0328 -8.5953,-5.5992 -8.8053,-8.3244 -0.3223,-4.172 8.3323,-16.8787 15.0496,-22.0967 1.457,-1.1319 3.9565,-5.2105 5.554,-9.0638 8.066,-19.4561 16.2229,-26.0247 28.3392,-22.822 6.6145,1.7487 13.3009,10.839 17.2855,23.501 2.2285,7.0816 2.3362,8.5012 1.0971,14.4354 -1.82,8.7142 -5.8008,13.9689 -14.2246,18.7782 -6.1699,3.522 -9.1512,4.4921 -20.8353,6.7775 -1.6429,0.3222 -6.9641,0.4518 -11.825,0.2879 z m 16.9377,-8.7066 c -0.3393,-0.8048 -1.6483,-1.3857 -2.9092,-1.2916 -1.3347,0.1032 -2.5614,-0.8208 -2.9347,-2.2041 -0.353,-1.3067 -1.4282,-2.7516 -2.39,-3.2109 -2.3177,-1.1068 -2.3886,-3.0904 -0.1165,-3.2658 0.9942,-0.075 1.7456,-0.9532 1.6688,-1.9479 -0.2057,-2.667 2.365,-2.3949 3.3137,0.3507 0.9515,2.7533 3.0115,3.0392 2.8072,0.39 -0.2125,-2.7558 2.3798,-2.3519 3.374,0.5254 0.8305,2.4028 0.9523,2.4158 2.2975,0.2433 1.311,-2.1172 1.4924,-2.1421 2.3558,-0.3256 0.6128,1.2903 1.698,1.6606 3.1482,1.0743 2.5182,-1.0187 3.1875,0.998 0.8785,2.646 -0.8381,0.5981 -1.8083,2.2009 -2.1563,3.5619 -0.486,1.9006 0,1.636 2.1259,-1.1414 1.5169,-1.9882 2.6548,-4.9578 2.5283,-6.5983 -0.1267,-1.6408 0.8656,-6.2744 2.2051,-10.297 4.6545,-13.9813 3.5199,-22.1289 -3.9328,-28.2423 -3.2312,-2.6505 -4.4552,-2.9504 -8.3153,-2.0373 -5.7185,1.3532 -9.9916,6.8602 -14.9036,19.2072 -1.9968,5.0186 -4.9298,10.5342 -6.5181,12.2569 l -2.8881,3.1321 3.8345,3.7426 c 2.1086,2.0583 4.3546,5.68 4.9911,8.0485 0.8902,3.314 2.0528,4.6172 5.0436,5.6534 4.9168,1.7035 7.2825,1.6051 6.4924,-0.2708 z m 2.2211,-16.006 c -2.7389,-1.696 -2.6173,-5.2976 0.2502,-7.4052 2.5326,-1.8615 4.7277,0.4682 4.5975,4.8791 -0.1066,3.5788 -1.7577,4.4394 -4.8479,2.5261 z m -9.5638,-7.6269 c -3.4451,-2.9518 -0.8949,-11.8161 3.497,-12.1546 5.1147,-0.3946 7.2332,6.201 3.4207,10.6506 -2.5394,2.9644 -4.6721,3.4279 -6.9177,1.504 z m 14.9797,-2.1654 c -2.8885,-3.5144 -1.722,-10.0202 1.943,-10.8369 5.2002,-1.1596 8.7451,6.5099 5.0186,10.8591 -2.368,2.764 -4.6771,2.7565 -6.9616,-0.035 z m -2.1357,26.1599 c 0.8414,-0.9823 -0.581,-4.0812 -1.8293,-3.9848 -0.5149,0.041 -1.1359,1.1791 -1.3803,2.5318 -0.4209,2.3281 1.6548,3.2675 3.2096,1.453 z m -11.9955,145.7692 c 2.1944,-0.9453 4.3431,-2.3393 4.7746,-3.0969 1.343,-2.358 0.4837,-6.8975 -1.652,-8.7275 -2.4158,-2.0698 -1.969,-7.2968 0.8379,-9.8055 1.4917,-1.3336 2.362,-1.3648 4.4689,-0.161 2.1933,1.2528 2.6383,2.5426 2.7489,7.9707 0.11,5.3192 0.3919,6.1747 1.5821,4.7883 0.8885,-1.0341 1.3101,-5.6466 1.0891,-11.9083 -0.3223,-9.1218 -0.5896,-10.2028 -2.4888,-10.0564 -3.4873,0.2707 -13.233,8.3107 -13.0438,10.7632 0.322,4.1627 -3.2775,4.235 -5.1723,0.103 -0.5014,-1.0935 -2.6334,-2.7169 -4.7375,-3.6071 -3.6568,-1.5471 -3.8173,-1.5108 -3.637,0.8238 0.1031,1.3428 1.4228,3.4998 2.9317,4.7923 2.0739,1.7768 2.661,3.3272 2.4067,6.3523 -0.1851,2.2011 0.1337,6.2083 0.7102,8.9044 1.1587,5.4265 2.3624,5.8017 9.1813,2.8633 z m -16.4572,-2.3972 c -0.4589,-0.932 -0.7226,-0.6246 -0.6721,0.7845 0.045,1.2747 0.3856,1.9651 0.7554,1.5335 0.3695,-0.4315 0.3324,-1.4745 -0.082,-2.318 z m 6.2343,-34.2107 c -0.3085,-3.9787 -1.0563,-7.195 -1.6658,-7.148 -1.796,0.137 -2.8966,11.4444 -1.2767,13.1158 2.7002,2.7862 3.4937,1.177 2.9425,-5.9678 z m 13.0058,2.0285 c 2.315,-1.8461 5.2987,-3.4406 6.6306,-3.5434 2.2889,-0.1783 2.3385,-0.7219 0.9066,-9.9499 -0.8332,-5.3695 -1.7364,-9.9525 -2.0068,-10.1842 -0.2708,-0.2331 -3.5246,0.1749 -7.2312,0.9025 l -6.7395,1.3241 0.3256,4.2041 c 0.3517,4.5563 0.3583,4.557 10.2631,1.2425 2.5432,-0.8511 3.1256,-0.6176 3.2747,1.3131 0.2022,2.6118 -4.0843,5.4924 -8.7018,5.8484 -2.7449,0.2126 -2.9238,0.661 -2.4922,6.2563 0.257,3.3151 0.7122,6.0089 1.0145,5.9854 0.3016,-0.035 2.4432,-1.5529 4.7578,-3.3989 z m -14.4282,-15.4864 c -0.459,-0.9319 -0.7226,-0.6245 -0.6721,0.7846 0.044,1.2747 0.3855,1.965 0.7554,1.5335 0.3695,-0.4316 0.3325,-1.4749 -0.082,-2.3181 z m 14.504,-14.3758 c 4.8338,-1.6215 5.2286,-2.0668 4.9568,-5.5882 l -0.2947,-3.8262 -6.537,1.7262 c -4.896,1.2928 -6.4972,2.2415 -6.3787,3.7795 0.086,1.1294 -0.1066,2.9368 -0.426,4.0167 -0.7078,2.3774 1.3478,2.3516 8.68,-0.11 z m 0.9309,-14.5446 c 3.7659,-1.3657 4.3855,-2.1064 4.1638,-4.9786 -0.2502,-3.2346 -0.4974,-3.3525 -5.9797,-2.8418 -6.3369,0.5895 -7.4127,1.5719 -7.0638,6.4469 0.2673,3.738 1.7337,3.9646 8.8797,1.3735 z m 4.4171,-14.1758 c 2.3766,-2.7743 0.048,-21.2747 -2.6526,-21.0666 -0.8151,0.062 -9.2043,21.3346 -9.0751,23.01 0.089,1.1782 10.5362,-0.5527 11.7277,-1.9434 z m -0.5083,-25.5482 c -0.079,-1.0337 -0.6616,-1.5023 -1.2929,-1.0416 -0.6318,0.4613 -1.1089,1.3487 -1.0608,1.9726 0.048,0.6242 0.6303,1.0928 1.2932,1.0416 0.6632,-0.051 1.1403,-0.9388 1.0605,-1.9726 z m 131.1624,-46.3307 c -2.3067,-8.6789 -9.3738,-22.2626 -14.9558,-28.7482 -8.6347,-10.0324 -29.9893,-18.7174 -46.6824,-18.9865 -8.346,-0.1337 -7.4323,-1.105 -8.7509,9.2942 -0.2057,1.6215 -0.6135,3.7531 -0.9061,4.7368 -0.4285,1.4379 1.4858,1.7755 9.7674,1.7209 10.7723,-0.072 22.3893,2.736 32.2534,7.7911 11.6255,5.9579 22.5663,17.7006 27.1225,29.1099 1.0335,2.5881 2.256,5.2225 2.7164,5.8542 1.5335,2.1022 1.2078,-4.1038 -0.5645,-10.7724 z m -141.0513,257.058 c -2.231,-1.3905 -2.2823,-1.6329 -0.5251,-2.4754 3.3948,-1.6273 8.7825,-0.8221 9.3846,1.4022 0.7147,2.6393 -5.1985,3.3556 -8.8595,1.0732 z" fill="#00B894" transform="translate(103.04922,100.86167) translate(-2934.9996,-1904.5089)"/>
</svg>