<?xml version="1.0" ?><svg height="217.40945mm" viewBox="0 0 150.25699 217.40945" width="150.25699mm" xmlns="http://www.w3.org/2000/svg">
    <path d="m 783.69867,5742.1016 9.3691,175.6211 28.2032,6.1406 -4.3672,89.6523 -47.8535,6.877 -9.0957,59.6055 c 0,0 -35.664,-46.5042 -69.5977,-41.5918 -33.9336,4.9124 -63.3174,49.7779 -62.1348,76.5507 1.1827,26.7729 25.1134,93.4912 31.3907,140.8965 6.2773,47.4052 3.458,122.8937 1.1836,142.7891 -2.2744,19.8954 -3.9134,61.9783 50.8535,67.9551 54.7669,5.9768 92.7034,-33.4861 102.8926,-49.6153 10.1892,-16.1292 33.0253,-101.9336 33.0253,-101.9336 l 232.71293,8.9239 5.1856,-297.5293 -40.1192,-2.211 c 0,0 9.421,-94.7655 6.5098,-93.7011 -2.9112,1.0643 -34.1152,-5.3223 -34.1152,-5.3223 l -7.916,-177.666 z m -139.9948,74.8723 c -14.3217,0.089 -43.2955,1.0266 -66.0989,11.8699 -40.5749,42.9021 -36.4813,99.3128 -16.4668,147.373 20.0145,48.0602 72.9626,44.6216 102.9843,30.6211 30.0218,-14.0005 61.4972,-61.2421 56.2207,-95.875 -9.1097,-57.2972 -36.0175,-93.6389 -76.6393,-93.989 z" fill="#FFFFFF" transform="translate(-359.54412,-140.75954) matrix(0.26458333,0,0,0.26458333,218.96569,-1375.4653)"/>
    <path d="m 674.89528,6548.3842 c -5.615,-5.615 -4.942,-13.5317 3.986,-46.8867 4.345,-16.23 7.66,-29.5689 7.367,-29.6418 -0.292,-0.073 -6.239,-4.3372 -13.212,-9.4761 -14.193,-10.4593 -28.294,-37.96 -28.325,-55.2409 0,-5.8095 2.46,-26.7679 5.49,-46.5744 7.735,-50.5568 3.351,-87.4917 -18.911,-159.299 -15.469,-49.9 -16.601,-55.814 -15.324,-80.1079 2.077,-39.5514 19.251,-71.6116 45.815,-85.5284 14.578,-7.6377 46.19,-5.932 64.796,3.4962 8.829,4.4741 16.983,9.6382 18.118,11.4758 4.491,7.2672 7.862,2.5528 9.919,-13.8725 3.031,-24.1835 9.85,-31.3396 32.393,-33.9894 l 18.384,-2.1605 v -37.2548 -37.2546 h -11.075 c -21.968,3.0789 -17.818,-6.3862 -19.399,-95.0597 l -0.998,-82.5683 c -0.5,-14.26 4.988,-17.4444 10.17,-17.3115 17.535,-1.6611 10.66,1.1345 113.6317,2.1109 102.74102,0.974 107.79802,1.3123 114.11902,7.6371 7.455,7.4614 10.41,28.3099 17.067,120.4352 3.928,54.374 4.044,54.92 11.691,54.92 19.793,0 29.701,26.1984 26.109,69.0437 l -1.867,22.2575 12.715,2.1483 c 6.994,1.1813 14.644,4.4727 17.002,7.3139 6.235,7.5115 6.211,285.5417 -0.03,303.1911 -4.632,13.1081 -11.649,16.9703 -29.627,16.3095 -6.044,-0.2213 -24.11,-1.3537 -28.887,1.0416 -4.778,2.3948 -8.872,9.0633 -20.363,11.2625 -11.49,2.1992 -25.70702,6.295 -31.59402,9.1017 -20.458,9.7559 -54.579,-2.1865 -60.963,-21.3362 -0.964,-2.8924 -12.163,-4.8165 -35.838,-6.157 l -34.436,-1.9501 -3.508,26.1976 c -2.179,16.2723 -7.314,34.3323 -13.554,47.6672 -9.456,20.2064 -32.4517,47.5075 -49.1547,58.3585 -6.566,4.2647 -6.99,6.0825 -4.177,17.8632 6.976,29.2085 2.978,47.5426 -10.367,47.5426 -8.843,0 -13.204,-11.7033 -12.013,-32.2353 0.985,-16.9894 0.514,-18.5114 -5.48,-17.7173 -3.607,0.4781 -14.171,1.7774 -23.476,2.8874 l -16.918,2.0185 -6.784,27.0444 c -9.932,39.6303 -12.111,44.2325 -20.932,44.2325 -4.193,0 -9.394,-1.7707 -11.557,-3.9345 z m 79.412,-103.1118 c 38.928,-14.6148 70.9057,-57.1345 78.7797,-104.7539 l 2.221,-13.4332 -26.9087,-2.0751 c -33.179,-2.5585 -48.092,-5.5286 -48.092,-21.6007 1.505,-29.0608 -0.73,-58.8085 -2.718,-87.1669 l -2.018,-29.5093 -45.226,-44.2637 c -43.767,-42.8358 -59.449,-62.9204 -52.488,-67.2228 1.797,-1.1103 5.112,-0.9022 7.366,0.4628 7.356,4.4549 46.299,35.0596 65.011,51.0909 10.057,8.6179 19.279,15.6691 20.491,15.6691 4.916,0 1.865,-54.1544 -3.691,-65.5125 -7.986,-16.3298 -29.894,-27.6824 -53.691,-27.8231 -23.387,-0.1378 -33.828,6.8684 -46.154,30.9742 -14.401,28.1635 -12.853,48.4013 8.625,112.7708 9.702,29.0799 19.598,61.7253 21.987,72.5453 6.829,30.9134 5.417,93.1754 -2.854,125.7808 -8.257,32.5531 -6.807,44.7291 6.125,51.4166 5.08,2.6266 9.813,4.7758 10.519,4.7758 0.705,0 3.051,-5.902 5.212,-13.1154 6.346,-21.1772 20.061,-16.884 20.061,6.2793 0,4.9619 0.912,9.9338 2.026,11.0482 2.671,2.6713 19.39,-0.3201 35.417,-6.3372 z M 1072.183,6197.3893 c 1.201,-61.7643 3.077,-123.6317 4.169,-137.4833 2.716,-24.6571 -2.031,-25.2185 -32.484,-25.794 -30.427,-0.575 -76.49402,-1.4097 -76.88302,-1.3212 -0.389,0.089 -1.694,14.2057 -2.9,31.3717 0.411,34.2713 -3.501,31.2022 -35.36,30.9872 -34.859,2.3963 -33.159,-0.1435 -35.664,-32.7777 -1.375,-17.9047 -2.85,-32.8531 -3.279,-33.2185 -0.429,-0.3654 -25.863,-1.2083 -56.52,-1.8733 -43.1717,-0.9362 -55.6667,-0.2847 -55.4127,2.8897 0.179,2.2542 0.549,34.5815 0.82,71.8382 l 0.492,67.74 18.852,18.4661 c 33.6517,32.9598 66.2517,60.4172 94.7587,79.8117 l 27.923,18.9965 40.239,-2.2357 c 42.46302,-2.3592 46.92302,-1.1281 42.81602,11.8145 -1.63,5.1354 -4.99802,6.5391 -15.78602,6.5784 -10.063,0.037 -12.404,0.8965 -8.796,3.2285 2.705,1.7481 24.25002,3.2011 47.87702,3.2289 l 42.957,0.048 2.181,-112.2987 z m -55.308,54.3078 c -10.82,-0.5559 -24.46902,-1.8193 -30.32902,-2.8072 -17.96,-1.4789 -10.657,-10.3555 -10.657,-28.1513 0,-19.6191 1.048,-26.0093 4.099,-25.0027 2.477,0.8169 4.49,8.776 5.086,20.1135 0.577,10.9539 2.624,19.2593 4.919,19.9572 2.161,0.6577 15.36402,2.0388 29.34102,3.0694 l 25.41,1.8738 v -13.0735 c 0,-12.6516 -0.356,-13.0733 -11.018,-13.0733 -17.419,0 -41.12102,-3.9385 -41.44302,-6.7623 -1.455,-12.735 42.23202,-5.4127 47.61002,-6.2847 10.528,-1.7066 13.741,12.0685 13.391,25.0409 -0.607,22.4415 1.899,23.1519 -5.656,25.1738 -10.517,2.883 -21.983,0.3841 -30.753,-0.073 z m -10.657,-19.5927 c -9.21902,-3.7201 -3.186,-7.9132 9.662,-6.7156 16.731,1.5591 21.363,9.007 5.366,8.628 -6.011,-0.1426 -12.773,-1.0028 -15.028,-1.9124 z m 1.639,-39.5186 c -10.79802,-0.897 -15.57402,-2.7466 -15.57402,-6.0322 0,-3.7789 5.938,-4.7385 29.31602,-4.7385 26.213,0 37.539,3.0926 31.917,8.7151 -2.455,2.4542 -27.361,3.5755 -45.659,2.0556 z m -123.81302,111.3643 c -0.03,-1.3526 -8.273,-8.1758 -18.337,-15.1634 -10.063,-6.9872 -32.055,-25.8565 -48.87,-41.9319 -16.8167,-16.0755 -31.2567,-28.064 -32.0927,-26.6414 -1.333,2.2671 -2.332,21.2382 -3.592,68.1625 l -0.351,13.115 45.9037,1.7812 c 25.245,0.9795 48.484,2.086 51.64,2.4591 3.157,0.3727 5.72,-0.4286 5.699,-1.7811 z m 35.087,-244.2701 c -1.261,-26.6693 -1.404,-27.065 -10.253,-28.1153 l -8.976,-1.0651 2.368,22.3773 c 2.024,19.1413 3.446,29.5428 4.514,33.0336 0.137,0.4507 3.26,0.8195 6.937,0.8195 6.294,0 6.612,-1.594 5.41,-27.05 z m 28.342,11.4758 c 1.103,-8.5659 2.993,-21.209 4.201,-28.0954 l 2.195,-12.5212 -12.01,1.0454 c -6.605,0.5749 -11.979,2.1519 -11.941,3.5045 0.04,1.3524 0.07,13.5249 0.07,27.05 0,23.6575 0.295,24.5909 7.741,24.5909 6.766,0 7.992,-1.9592 9.746,-15.5742 z m 84.30702,-68.2172 c 2.329,-2.8053 4.903,-16.6734 5.722,-30.8182 1.314,-22.6987 0.768,-26.0883 -4.652,-28.8781 -3.376,-1.7384 -36.38602,-4.1045 -73.35502,-5.258 -36.968,-1.1536 -81.096,-3.581 -98.063,-5.3938 -16.967,-1.813 -31.406,-2.7392 -32.086,-2.0582 -0.682,0.6811 0.03,10.6526 1.571,22.159 l 2.809,20.9203 4.102,-14.3376 4.1,-14.3378 26.488,2.3106 c 30.686,2.6766 44.646,6.8945 39.581,11.9595 -1.861,1.8614 -2.669,9.7293 -1.795,17.4841 0.982,8.7129 0.148,14.9904 -2.181,16.4303 -4.903,3.03 -62.959,-4.4325 -68.3,-8.7797 -3.116,-2.5356 -4.099,-0.8807 -4.099,6.9027 v 10.2377 l 36.887,0.4091 c 37.811,0.4196 153.28702,4.5117 156.98102,5.5629 1.131,0.322 3.962,-1.7097 6.29,-4.5148 z m -152.61502,-25.0973 c -24.052,-4.6893 -31.979,-4.7202 -33.56,-0.1303 -1.059,3.0704 5.027,4.0017 24.27,3.7127 l 25.684,-0.3856 -16.394,-3.1963 z m 16.23,-12.1401 c -4.781,-4.5918 -47.379,-8.3189 -47.379,-4.1452 0,3.4031 11.932,5.4962 37.542,6.5864 7.884,0.3354 11.734,-0.6196 9.837,-2.4412 z M 1003.139,5902.298 c 1.035,-7.6643 0.106,-80.9574 -0.973,-117.5329 0.281,-35.0865 2.333,-29.8057 -35.80902,-28.4791 l -34.728,0.9253 -1.64,16.394 -1.639,16.3938 h -34.427 -34.427 l -1.008,-18.0332 c -0.555,-9.9183 -2.03,-18.9695 -3.279,-20.1137 -1.25,-1.144 -16.129,-3.1155 -33.067,-4.381 -35.7837,-5.6279 -30.6027,0.3364 -28.1967,33.2287 1.429,19.5414 3.483,56.186 4.565,81.4328 l 1.967,45.903 73.7727,1.9486 c 40.575,1.0713 74.226,1.6021 74.78,1.1789 0.553,-0.423 -4.942,-3.513 -12.212,-6.8666 -7.269,-3.3534 -13.255,-7.4851 -13.301,-9.1819 -0.04,-1.6965 12.398,-14.9757 27.655,-29.5092 18.108,-15.1075 21.339,-34.1761 37.999,-14.0004 9.76,11.8193 10.007,12.8082 5.081,20.3258 -2.847,4.3461 -10.564,12.0344 -17.147,17.0854 -6.584,5.0508 -15.083,12.134 -18.887,15.7407 l -6.916,6.5576 19.673,1.9078 c 10.82,1.0493 22.06,2.156 24.978,2.4592 12.95402,0.4013 6.73402,-10.1621 7.18602,-13.3836 z m -187.42702,-53.5449 c 1.449,-35.2679 3.731,-37.4417 39.295,-37.4417 13.976,0 26.323,1.4754 27.437,3.2787 1.294,2.0937 -8.71,3.279 -27.676,3.279 -29.557,0 -29.703,0.039 -29.703,8.2593 0,6.8537 1.256,7.9872 7.377,6.6593 17.44,-3.7828 33.108,-3.0208 30.329,1.4752 -1.114,1.8035 -10.023,3.279 -19.795,3.279 h -17.769 l 0.642,14.7544 0.642,14.7546 h 18.96 c 14.667,0 18.959,1.1136 18.959,4.9182 0,3.9405 -4.955,4.9183 -24.927,4.9183 h -24.928 z m 50.332,15.0093 c -2.325,-3.7622 1.24,-32.1362 4.897,-38.9712 3.142,-5.8726 7.666,29.0719 4.747,36.6754 -2.401,6.2559 -6.581,7.2511 -9.644,2.2958 z m -33.273,-10.6464 c 0.792,-5.2875 3.701,-7.6834 10.266,-8.4583 6.933,-0.8182 8.714,0.081 7.326,3.699 -1.009,2.629 -0.179,6.4352 1.844,8.4583 2.719,2.7185 0.518,3.6782 -8.432,3.6782 -10.702,0 -11.983,-0.8584 -11.004,-7.3772 z m 134.689,25.4843 c 16.667,-15.1386 18.835,-18.3883 15.198,-22.7718 -3.727,-4.4901 -5.354,-3.5813 -13.35,7.4571 -5.009,6.9137 -12.654,15.3846 -16.991,18.8239 -10.303,8.1714 -14.1,14.4933 -8.59,14.2999 2.361,-0.083 13.041,-8.0969 23.733,-17.8091 z m -80.098,-114.8314 c 0,-10.055 -1.015,-11.4757 -8.197,-11.4757 -6.815,0 -8.197,1.5664 -8.197,9.2898 0,10.848 2.139,13.6616 10.383,13.6616 4.683,0 6.011,-2.5336 6.011,-11.4757 z m 29.509,-0.3824 c 0,-6.497 -1.659,-7.8146 -9.836,-7.8146 -8.119,0 -9.837,1.3357 -9.837,7.6503 0,9.9587 1.753,11.4048 11.553,9.5313 5.936,-1.1346 8.12,-3.6547 8.12,-9.367 z m -376.9521,173.0186 c -0.586,-5.2434 -5.969,-2.5392 -7.799,-17.7394 -2.947,-24.4843 0.635,-68.2238 38.7414,-94.317 40.17,-27.5053 108.616,-29.1434 125.539,23.125 l 20.573,-9.7295 c 15.913,-7.5258 21.989,-8.9715 26.825,-6.3836 10.782,5.7703 5.932,16.8045 -11.1,25.2566 l -15.314,7.5998 c 7.765,15.2847 12.306,32.2747 13.138,49.4142 0.273,8.3898 2.21,8.8349 9.228,9.2148 23.93,4.5509 11.408,15.7276 -8.08,16.3384 -2.117,0 -7.413,15.8101 -11.705,24.9719 -10.478,22.3705 -25.063,40.9337 -59.286,52.9856 -89.518,29.4415 -116.144,-39.439 -120.7604,-80.7368 z m 114.3234,64.9266 c 22.46,-10.7007 48.144,-33.874 51.236,-61.4902 -15.936,-0.9796 -17.607,-16.8884 4.113,-19.3973 1.911,-17.3809 -5.48,-42.5116 -13.897,-43.5568 -2.277,0 -16.518,5.7011 -31.648,12.6698 -19.419,9.9459 -79.117,33.9315 -98.136,40.9571 -12.721,3.1016 1.102,42.8703 11.409,56.5377 20.587,27.2998 61.136,21.3568 76.923,14.2797 z m -28.126,-20.8158 c -3.409,-5.9544 1.399,-14.344 10.063,-9.3693 5.353,3.0736 12.319,5.7212 10.064,9.3693 -1.239,2.0048 -5.768,3.6454 -10.064,3.6454 -4.295,0 -8.891,-1.6 -10.063,-3.6454 z m 13.316,-52.6159 c -2.954,-7.6959 0.04,-16.4315 6.038,-17.5852 5.993,-1.1543 11.485,12.5155 7.572,18.8467 -3.106,5.026 -11.496,4.2484 -13.61,-1.2615 z m 29.436,-16.5854 c -2.901,-7.5582 1.414,-15.3641 7.821,-14.1491 3.47,0.658 6.158,4.6507 6.785,10.0786 0.839,7.2723 -0.276,8.9888 -5.842,8.9888 -3.782,0 -7.726,-2.2133 -8.764,-4.9183 z m -88.075,-7.857 c 56.314,-25.8389 68.689,-29.0809 100.465,-49.367 -35.718,-55.2893 -110.383,-17.7237 -124.141,19.5676 -5.013,13.5893 -8.147,42.4018 -3.281,39.9081 1.353,-0.6932 17.941,-5.9715 26.957,-10.1087 z" fill="#00B894" transform="translate(-359.54412,-140.75954) matrix(0.26458333,0,0,0.26458333,218.96569,-1375.4653)"/>
</svg>