<?xml version="1.0" ?><svg height="34.219604mm" viewBox="0 0 135.8083 34.219604" width="135.8083mm" xmlns="http://www.w3.org/2000/svg">
    <path d="m 279.5734,5448.2163 -1.9301,-55.0244 196.4966,-47.6279 292.8147,9.6376 -1.0584,60.0673 -151.0459,43.7057 z" fill="#FFFFFF" transform="translate(-306.29228,-134.0807) matrix(0.26458333,0,0,0.26458333,236.31665,-1278.2359)"/>
    <path d="m 267.01988,5453.9463 c 2.698,-16.6297 -12.285,-62.7206 9.469,-66.8437 3.426,-0.6268 17.438,-4.5579 31.136,-8.7366 36.414,-11.1079 126.261,-34.4961 164.247,-38.3373 42.159,-4.263 234.38,-1.3985 254.561,2.0303 8.434,1.4329 30.083,0.7059 37.626,4.4423 13.537,6.7048 9.516,8.8125 12.987,32.6365 1.937,13.2754 -0.667,30.2796 -0.485,33.8147 0.279,5.4053 -7.849,9.1598 -51.121,23.6185 -100.429,33.5564 -105.19,33.9734 -310.441,27.1932 -128.054,-4.2297 -146.853,-5.4769 -147.979,-9.8179 z m 182.511,-12.1689 142.599,3.5108 1.735,-19.0752 c 1.554,-17.0703 1.108,-18.9198 -4.235,-17.5948 -23.109,5.7294 -93.083,6.6606 -193.869,2.5802 l -112.207,-4.5427 -0.592,15.1947 c -0.716,18.366 1.16,20.8181 14.029,18.3347 5.467,-1.0553 74.11,-0.3386 152.54,1.5925 z m 238.52,-12.9987 68.023,-22.5186 0.617,-15.8226 c 0.338,-8.7022 0.01,-15.8458 -0.723,-15.8745 -0.737,-0.028 -19.741,4.554 -42.233,10.1836 -22.492,5.6294 -54.295,13.1214 -70.676,16.6482 l -29.781,6.4125 0.409,19.1684 c 0.399,18.5554 1.496,24.1329 4.777,24.2607 0.86,0.034 32.175,-10.0724 69.587,-22.4577 z m -210.35,-36.2547 c 28.009,-0.9108 70.84,-1.2127 95.182,-0.6704 42.181,0.9391 45.153,-3.3107 82.997,-10.6732 84.03,-16.3477 76.915,-22.9107 50.996,-21.7109 -50.53,2.3388 -116.714,5.2351 -175.401,0.3477 -60.623,-5.0485 -64.248,-5.0099 -73.295,0.7761 -5.234,3.3477 -35.324,11.3786 -66.865,17.8461 -31.542,6.4679 -59.348,12.5343 -61.793,13.4818 -5.938,2.3009 84.636,2.6694 148.179,0.6028 z" fill="#00B894" transform="translate(-306.29228,-134.0807) matrix(0.26458333,0,0,0.26458333,236.31665,-1278.2359)"/>
</svg>