<?xml version="1.0" ?><svg height="94.940384mm" viewBox="0 0 141.28279 94.940384" width="141.28279mm" xmlns="http://www.w3.org/2000/svg">
    <path d="m -1753.2181,4674.8917 -16.6969,-234.1644 177.6719,-62.7072 333.9375,20.4208 -10.275,204.7855 -181.0969,111.7362 c 0,0 -241.5695,1.7339 -303.5406,-40.0709 z" fill="#FFFFFF" transform="translate(-46.531219,28.571406) matrix(0.26458333,0,0,0.26458333,518.00658,-1184.1914)"/>
    <path d="m -1565.2652,4718.3016 c -129.501,-8.423 -175.243,-24.5764 -196.981,-32.841 -4.53,-1.722 -7.64,-9.6716 -4.091,-13.9494 3.358,-4.0452 0.841,-13.2432 -2.189,-45.2738 -3.837,-40.5507 -7.243,-93.2335 -7.761,-146.812 -0.158,-16.1916 -1.931,-32.0978 -3.943,-35.347 -4.96,-8.0112 -1.869,-9.7137 45.525,-25.0738 57.044,-18.4883 126.904,-45.7392 132.068,-50.0249 4.446,-3.6896 110.797,0.8941 269.742,9.7828 83.661,4.6786 84.997,3.2836 83.06,34.0342 -9.845,156.3326 -10.11,172.4414 -2.888,175.2128 6.703,2.5719 6.209,15.4732 -0.82,21.4098 -3.156,2.6657 -21.968,14.2131 -41.805,25.661 -19.836,11.4481 -51.558,29.9091 -70.494,41.0245 -18.934,11.1156 -41.804,24.3958 -50.82,29.5114 -9.018,5.1157 -18.323,11.9982 -20.679,15.2946 -3.768,5.2716 -8.903,5.9355 -42.625,5.5107 -21.086,-0.2656 -62.757,-6.6537 -85.299,-8.1199 z m 108.539,-24.1851 c -5.627,-38.5677 -18.108,-154.0294 -14.779,-184.5239 2.73,-25.0139 2.239,-27.2161 -17.557,-28.514 -73.531,-4.5779 -168.803,-13.6902 -219.409,-21.1842 -28.852,-4.273 -53.741,-6.9807 -55.306,-6.017 -1.565,0.9634 -1.877,8.5658 -0.693,16.8937 1.184,8.3281 5.126,51.2907 8.761,95.4724 3.636,44.1819 7.456,69.1822 8.489,81.1874 -0.431,25.2009 3.629,23.1589 24.229,27.9562 32.608,9.9412 201.435,24.5491 242.397,23.9857 5.706,-0.8511 24.403,0.2271 23.868,-5.2563 z m -96.149,-19.5262 c -39.618,-4.0649 -35.837,-11.5148 6.7,-13.2006 31.632,-1.2538 37.537,-5.2991 11.476,-7.8636 -12.623,-1.242 -28.976,-2.9991 -36.34,-3.9044 -12.139,-1.4925 -13.363,-0.9778 -13.115,5.5182 0.384,10.0889 -7.266,11.5928 -9.697,1.9065 -3.408,-13.5793 -3.326,-36.6463 0.133,-37.7217 1.803,-0.5608 4.474,3.9903 5.936,10.1133 l 2.656,11.1327 43.246,-1.4978 c 23.786,-0.8236 43.886,-2.0797 44.668,-2.7909 4.766,-4.3385 -9.13,-7.7149 -39.955,-9.7078 -26.643,-1.7222 -35.24,-3.38 -35.24,-6.7947 0,-7.141 14.712,-10.9117 42.57,-10.9117 30.143,0 36.121,1.7135 36.121,10.3501 0,3.5032 2.37,10.9511 5.265,16.5508 5.641,10.9082 4.552,29.1589 -2.228,37.3283 -4.123,4.9678 -23.741,5.439 -62.197,1.4933 z m -162.676,-114.3009 c -4.698,-3.0235 -14.237,-21.9924 -14.237,-28.3103 0,-2.7947 -2.551,-3.4307 -3.278,-5.0811 -5.106,-11.5855 27.479,-22.676 70.493,-36.4297 37.41,-11.9615 42.362,-12.1258 39.649,-1.3159 -1.125,4.4863 -0.309,10.9414 1.817,14.3444 6.911,11.0664 -10.413,23.4484 -50.588,36.1563 -20.963,6.6307 -35.141,12.8365 -35.141,15.3807 0,5.5216 -4.286,8.1064 -8.715,5.2556 z m 46.415,-32.5181 c 32.228,-12.5451 40.14,-19.4304 31.852,-27.7179 -3.5,-3.4995 -48.065,7.2565 -71.804,17.3297 -13.543,5.7473 -13.675,5.963 -9.851,16.0955 4.573,12.117 3.783,12.2077 49.803,-5.7073 z m 266.346,147.4857 c 14.843,-10.3656 48.41,-32.6261 74.592,-49.4674 l 47.605,-30.6209 v -40.5643 c 0,-22.3104 1.411,-55.008 3.137,-72.661 6.06,-62.0101 6.13,-66.5242 1.027,-66.5242 -6.636,0 -47.844,16.7835 -95.97,39.0875 -22.542,10.4468 -49.837,22.6001 -60.658,27.007 -24.037,6.4869 -19.457,14.4665 -18.69,37.3547 0.541,16.138 3.07,47.0473 5.619,68.6874 8.463,71.8622 11.413,98.322 11.422,102.4621 0.02,6.6738 3.587,5.022 31.916,-14.7609 z m -2.69,-223.4203 24.298,-12.4397 -43.97,-2.067 c -24.185,-1.137 -73.48,-4.2214 -109.547,-6.8548 -99.992,-7.3003 -147.027,-7.4498 -169.921,-0.5403 -10.503,3.1701 -18.605,6.2554 -18.003,6.857 0.601,0.6012 40.179,4.1504 87.951,7.8872 163.627,12.7989 178.603,14.16 185.185,16.8309 11.598,4.7057 19.174,3.0405 44.007,-9.6733 z m 76.084,-37.9392 c 25.04,-11.7462 25.449,-12.5272 6.179,-11.7903 -104.904,-9.6765 -169.326,-6.6169 -263.693,-12.9518 -6.44,-0.4323 -64.779,22.266 -68.241,25.7282 -1.459,1.459 27.259,3.0323 63.817,3.496 36.56,0.4638 82.701,1.9779 102.538,3.3645 19.837,1.3865 58.368,2.744 85.627,3.0162 l 49.561,0.4952 z" fill="#00B894" transform="translate(-46.531219,28.571406) matrix(0.26458333,0,0,0.26458333,518.00658,-1184.1914)"/>
</svg>