<?xml version="1.0" ?><svg height="152.67287mm" viewBox="0 0 196.72433 152.67287" width="196.72433mm" xmlns="http://www.w3.org/2000/svg">
    <path d="m -1429.858,5099.9473 c -78.5538,-0.1523 -95.3339,43.7056 -108.293,82.75 -8.9657,57.7686 -7.4442,139.4416 105.0391,129.8105 112.4834,-9.6311 88.4043,-120.1797 88.4043,-120.1797 0,0 7.9105,-89.086 -77.3535,-92.2265 -2.6645,-0.098 -5.2629,-0.1494 -7.7969,-0.1543 z m -107.0664,221.0703 c -6.7812,-0.075 -12.5392,0.5711 -16.2324,1.8535 -14.7729,5.1296 -54.6708,20.4144 -93.6387,77.3633 -38.9678,56.949 -34.8955,143.1055 -33.9649,253.5488 6.514,13.7138 26.9862,19.4722 88.6368,10.7832 61.6507,-8.6889 83.9843,-30.6738 83.9843,-30.6738 0,0 -0.2328,-0.5241 0.2325,-32.9766 0.4653,-32.4526 10.3534,-92.4371 36.0605,-157.1328 25.7072,-64.6958 9.6542,-79.3511 -4.5371,-100.1836 -10.6435,-15.6243 -40.1974,-22.3563 -60.541,-22.582 z m 270.3281,190.8574 -182.9746,48.9942 0.1172,51.2949 335.3555,15.3886 155.17377,-50.7714 -4.4199,-57.8926 z" fill="#FFFFFF" transform="translate(-35.441412,-103.58027) matrix(0.26458333,0,0,0.26458333,484.04596,-1243.5859)"/>
    <path d="m -1444.1394,5091.6641 v 0 c -1.105,-0.017 -2.237,-0.016 -3.412,0 -3.131,0.052 -6.566,0.225 -10.61,0.4689 -33.348,2.0106 -62.813,28.7388 -79.836,57.3217 -23.386,39.2674 -26.459,107.3337 14.077,144.1521 42.527,38.6282 107.277,41.261 152.446,8.2246 9.862,-7.5172 17.959,-20.751 29.843,-18.2984 13.177,2.7191 33.318,-10.9484 9.154,-15.7814 -9.404,-1.8804 -10.817,-3.4693 -8.784,-9.8587 3.724,-16.9093 4.578,-30.9221 6.189,-48.3907 l 26.855,-1.3536 c 28.005,-1.4117 34.385,-5.0821 31.045,-17.8478 -1.58,-6.0446 -5.45,-7.188 -33.949,-6.8217 -23.023,0.2958 -19.382,-0.3797 -22.417,-8.3596 -6.396,-38.8855 -34.763,-69.8626 -85.716,-79.339 -10.703,-2.9256 -17.147,-4.0016 -24.885,-4.1205 z m -5.814,19.5721 c 48.323,0.3889 92.696,22.0202 96.474,72.12 -2.308,3.7342 -146.669,3.2451 -164.805,-0.2478 -24.336,-4.6872 3.66,-48.8222 37.635,-63.4532 9.222,-3.9713 21.748,-8.4912 30.696,-8.419 z m -61.794,93.1503 c 23.138,-0.019 59.445,5.3078 94.893,6.8237 15.108,0.5178 50.298,0.8712 60.728,1.6363 1.037,11.2357 -1.529,31.3198 -3.505,41.612 -1.043,5.4353 -2.484,6.7824 -6.602,6.3445 -13.238,-1.4076 -16.663,-0.7615 -20.948,0.6 -6.137,1.9468 -6.149,7.5446 -4.594,11.0671 3.15,7.1372 26.736,1.2908 18.38,9.9263 -8.185,8.4569 -28.469,20.8136 -54.855,25.3924 -66.07,8.748 -116.886,-49.3447 -105.57,-99.204 3.759,-3.077 11.555,-4.1898 22.073,-4.1983 z m 142.132,20.6288 c -2.76,-0.09 -5.166,0.5433 -7.294,3.119 -7.024,9.4787 -3.857,18.1213 4.915,19.3162 7.544,1.0274 13.348,-21.4269 3.586,-22.3553 -0.409,-0.039 -0.813,-0.067 -1.207,-0.08 z m -25.916,4.145 c -4.617,0.018 -8.959,5.8987 -8.959,14.3601 0,6.0776 2.037,8.585 6.979,8.585 8.59,0 13.262,-12.8752 7.284,-20.0779 -1.647,-1.9842 -3.497,-2.8743 -5.304,-2.8672 z m -77.856,26.4737 v 0.01 c -0.147,0.027 -0.227,0.1561 -0.227,0.3993 0,0.1147 -0.227,-0.01 -0.336,0 -1.748,0.174 -2.757,2.7829 -2.745,7.7965 0.02,10.7498 10.607,27.4178 19.58,31.5935 7.782,3.6215 18.804,4.2819 23.349,-1.2841 5.906,-7.1786 6.432,-6.5249 -13.172,-16.4121 -8.453,-4.2625 -17.377,-10.9613 -19.828,-14.8865 -2.246,-3.5959 -5.364,-6.987 -6.453,-7.2046 -0.06,-0.013 -0.12,-0.016 -0.168,-0.011 z m -61.741,59.0563 c -9.191,-0.023 -18.449,1.1756 -27.369,3.5593 -55.809,14.9149 -101.668,67.2928 -123.13,141.9772 -12.666,44.0772 -13.338,178.1234 -0.992,198.0988 1.115,1.8038 4.572,2.7834 7.682,2.177 4.91,-0.9572 5.747,-11.83 6.339,-82.3455 0.688,-82.042 2.926,-100.0175 17.369,-139.5094 13.827,-37.8115 38.254,-71.548 63.553,-87.7827 9.445,-6.061 18.119,-11.022 19.277,-11.022 1.158,0 3.248,5.2824 4.639,11.7368 3.647,16.8939 15.041,37.9981 22.744,42.1198 3.645,1.9504 10.101,2.6385 14.348,1.5277 7.636,-1.9969 7.661,-1.8383 2.128,14.3992 -6.903,20.2575 -5.587,36.2352 3.121,37.8867 7.901,1.4986 15.627,-15.5169 19.169,-42.2079 1.37,-10.3399 3.492,-18.278 4.716,-17.641 1.222,0.637 6.717,3.4061 12.206,6.1561 8.902,4.4604 9.739,6.3999 7.766,17.9399 -1.786,10.4226 -31.255,80.4954 -36.499,86.7854 -4.362,5.2297 -48.587,-56.8103 -55.218,-77.4591 -2.552,-7.944 -5.89,-21.5659 -7.246,-43.2073 -1.237,-19.7498 -18.547,-14.1353 -20.367,4.9581 -2.728,28.6168 8.469,52.748 17.205,69.9062 7.822,15.3655 36.238,58.0486 49.837,74.8623 6.264,7.7443 7.363,14.6695 7.74,48.7449 0.505,45.4511 2.862,57.2346 11.789,58.9539 13.041,2.5114 16.818,-5.9646 16.818,-37.7312 0,-16.6371 1.002,-38.5952 2.602,-38.5952 1.6,0 16.735,14.0398 23.576,19.2423 2.01,1.5282 4.13,3.0475 6.305,4.5648 0.85,13.6007 3.575,28.2512 2.286,36.1932 0.941,3.6284 15.163,5.1149 94.271,7.9685 7.687,2.5447 15.831,5.1223 24.52,7.7453 23.418,7.07 57.812,13.9727 76.451,-0.1556 18.961,-4.496 32.709,-2.4942 53.003,-1.8227 125.87,6.6713 93.363,5.735 145.446,-10.1516 43.64,-13.3108 116.12898,-39.1722 115.84998,-44.5774 -0.182,-3.5352 2.422,-20.5401 0.485,-33.8155 -3.471,-23.824 0.548,-25.9311 -12.988,-32.6359 -7.543,-3.7364 -29.19295,-3.009 -37.62698,-4.442 -20.181,-3.4288 -212.401,-6.2945 -254.56,-2.0315 -21.274,2.1513 -42.804,4.1744 -78.115,12.997 -20.402,6.3035 -68.576,-60.422 -97.991,-91.222 -16.448,-16.6991 -17.296,-19.033 -18.949,-40.0351 -3.856,-48.9604 -42.368,-72.0077 -82.19,-72.1098 z m -12.88,15.1301 c 2.262,-0.1053 4.728,2.0265 5.813,5.212 1.239,3.6403 6.148,9.9554 10.913,14.0365 l 8.661,7.4218 -8.801,8.2675 -8.798,8.2654 -5.597,-8.5418 c -7.186,-10.9684 -9.138,-32.3548 -3.144,-34.475 0.311,-0.1098 0.631,-0.1713 0.953,-0.1864 z m 53.988,20.8563 c 3.217,0 10.958,11.3102 10.958,16.0107 0,3.5042 -5.579,2.241 -10.109,-2.2896 -5.197,-5.1971 -5.726,-13.7215 -0.849,-13.7211 z m 36.66,90.3261 c 1.226,-0.03 6.786,6.8494 12.357,15.2899 20.249,27.8975 55.636,64.27 68.764,74.2499 -18.317,4.8308 -34.655,9.4276 -45.891,12.8549 -13.698,4.1787 -27.71,8.1097 -31.136,8.7365 -1.163,0.2205 -2.215,0.5683 -3.176,1.0178 -8.248,-4.9465 -17.369,-10.6799 -27.572,-17.3849 -5.299,-4.795 -6.448,-9.2611 -4.876,-18.9516 2.259,-13.924 27.961,-75.7253 31.53,-75.8125 z m 203.091,80.1706 c 9.615,-0.1017 25.677,1.1517 55.989,3.6759 58.687,4.8874 124.872,1.9907 175.402,-0.3481 25.91803,-1.1998 33.03198,5.3645 -50.998,21.7122 -37.844,7.3624 -40.814,11.611 -82.995,10.6719 -24.342,-0.5422 -67.175,-0.2391 -95.183,0.6717 -63.543,2.0665 -154.117,1.6967 -148.179,-0.6042 2.445,-0.9475 30.251,-7.0137 61.792,-13.4816 31.542,-6.4675 61.631,-14.4979 66.865,-17.8456 4.523,-2.8931 7.692,-4.3504 17.307,-4.4522 z m 280.48098,18.4211 c 0.733,0.028 1.062,7.1734 0.724,15.8755 l -0.617,15.8224 -68.02198,22.5192 c -37.412,12.3853 -68.728,22.4911 -69.589,22.4576 -3.28,-0.1279 -4.377,-5.7065 -4.776,-24.2619 l -0.41,-19.1687 29.782,-6.412 c 16.38,-3.5268 48.184,-11.0183 70.676,-16.6477 22.49203,-5.6297 41.49498,-10.2127 42.23198,-10.1844 z m -446.35098,33.1479 86.146,3.4876 c 100.786,4.0804 170.76,3.149 193.869,-2.5804 5.343,-1.325 5.789,0.5255 4.235,17.5959 l -1.736,19.0744 -113.019,-2.781 c -5.84,-0.302 -11.601,-0.5349 -17.202,-0.5223 h -3.975 l -8.403,-0.2069 c -5.416,-0.1333 -10.634,-0.247 -15.939,-0.3685 l 11.032,-6.7275 c 8.751,-5.3342 11.668,-9.4617 10.834,-15.3308 -2.051,-8.5049 -13.442,-7.2786 -43.589,5.9696 -26.979,8.2321 -25.297,8.1028 -50.354,0.086 -16.332,-4.7112 -30.203,-7.6122 -51.899,-17.6962 z m -26.763,21.3518 c 6.37,3.5763 13.391,7.1552 21.203,10.7619 -3.689,0.081 -6.217,0.1967 -7.065,0.3604 -10.931,2.1095 -13.921,0.6186 -14.138,-11.1223 z" fill="#00B894" transform="translate(-35.441412,-103.58027) matrix(0.26458333,0,0,0.26458333,484.04596,-1243.5859)"/>
</svg>