<?xml version="1.0" ?><svg height="174.38443mm" viewBox="0 0 187.51653 174.38443" width="187.51653mm" xmlns="http://www.w3.org/2000/svg">
    <path d="m -5889.1719,275.0918 c -0.1143,-0.009 -0.2306,-0.008 -0.3476,0.002 -7.491,0.63715 -5.916,36.79102 -5.916,36.79102 0,0 -1.8634,-17.78237 -5.5547,-26.86915 -3.6913,-9.08679 -9.5363,-10.74731 -10.7305,-4.68945 -1.1943,6.05786 -2.2813,41.91602 -2.2813,41.91602 l -19.3242,-20.12696 c 0,0 -7.2203,3.1756 0.9766,22.17969 8.1968,19.00408 24.8086,36.39453 24.8086,36.39453 l 0.1621,40.06055 c 0,0 -19.5414,-4.88464 -23.0156,2.3457 -3.4742,7.23034 21.2246,17.78125 21.2246,17.78125 0,0 -28.8786,0.78221 -30.6699,6.40039 -1.7914,5.61818 33.2207,9.67383 33.2207,9.67383 0,0 -29.367,7.37609 -28.2813,12.75 1.0857,5.37392 28.7695,5.13086 28.7695,5.13086 0,0 -6.6761,5.37306 -4.8847,9.08594 1.7913,3.71288 16.7186,4.0056 29.8554,0.78125 13.1367,-3.22435 36.4629,-19.14453 36.4629,-19.14453 l 50.6641,0.14062 c 0,0 -0.3271,12.84927 5.3184,13.53321 5.6456,0.68393 11.7265,-12.89844 11.7265,-12.89844 0,0 0.3788,32.24396 6.4043,32.58594 6.0255,0.34198 9.9883,-11.67579 9.9883,-11.67579 0,0 4.1805,16.02406 9.5547,14.85157 5.3741,-1.1725 7.3281,-27.50391 7.3281,-27.50391 0,0 4.3439,11.72327 11.4551,10.55078 7.1112,-1.1725 0.543,-36.05273 0.543,-36.05273 0,0 11.8336,9.96601 17.0449,7.76758 5.2112,-2.19844 -0.9777,-12.65322 -10.3145,-25.94141 -9.3369,-13.28819 -18.1855,-18.66211 -18.1855,-18.66211 l -2.9863,-48.26758 c 0,0 28.0114,2.1493 26.9257,-3.22461 -1.0857,-5.37391 -16.0683,-10.45508 -16.0683,-10.45508 0,0 18.2394,-0.5363 18.4023,-5.8125 0.1628,-5.2762 -13.9512,-7.47461 -13.9512,-7.47461 0,0 15.4176,-3.61659 14.8204,-8.50195 -0.5971,-4.88537 -32.8965,-9.62305 -32.8965,-9.62305 0,0 19.5429,-8.69673 19,-13.43554 -0.5428,-4.73881 -48.0972,2.73712 -54.3399,4.93554 -6.2426,2.19843 -16.6699,11.01954 -16.6699,11.01954 l -49.5019,0.41211 c 0,0 -1.3018,-5.08147 -3.5274,-6.15625 -2.2257,-1.07479 -9.8809,8.84179 -9.8809,8.84179 0,0 -3.4187,-27.79751 -6.9472,-26.57617 -3.5284,1.22134 -9.3906,34.53906 -9.3906,34.53906 0,0 -1.7891,-36.83554 -8.9903,-37.3789 z m 37.8692,51.05859 53.5234,4.05469 24.3809,30.6582 1.5546,33.44922 c 0,0 -12.2011,9.66294 -14.0468,15.52539 -1.8456,5.86245 -2.1719,8.79297 -2.1719,8.79297 l -56.6719,2.73633 -25.1347,-25.0625 c 0,0 -7.0018,0.0492 -4.6133,-19.34571 2.3885,-19.39492 13.7342,-18.02778 18.1855,-28.38476 4.4513,-10.35698 4.9942,-22.42383 4.9942,-22.42383 z m 33.4746,15.25391 a 22.48756,19.242569 11.720053 0 0 -20.418,14.81836 22.48756,19.242569 11.720053 0 0 8.3145,19.11914 c -5.3485,9.12692 -15.2642,26.03244 -15.7012,26.57617 -4.1416,10.19385 5.3391,8.12796 7.2851,5.29883 1.569,-2.28079 13.4197,-19.50066 18.8926,-27.45313 a 22.48756,19.242569 11.720053 0 0 25.2481,-14.40429 22.48756,19.242569 11.720053 0 0 -18.1114,-23.41016 22.48756,19.242569 11.720053 0 0 -5.5097,-0.54492 z" fill="#FFFFFF" paint-order="markers stroke fill" transform="translate(109.63326,-29.224451) matrix(0.81087108,0,0,0.81087108,698.2357,732.34431) translate(4946.0726,-1138.2098)"/>
    <path d="m -943.44657,-867.11526 c -1.7645,-0.057 -3.3734,1.5726 -4.7949,4.8769 -0.8363,1.9439 -1.7162,4.9731 -1.9571,6.7305 -0.2409,1.7574 -0.6329,3.1933 -0.8711,3.1933 -0.2384,-9e-4 -1.3628,-1.7802 -2.498,-3.9531 -4.2448,-8.1233 -11.5685,-9.983 -14.1934,-3.6035 -1.6048,3.8999 -2.1422,18.3114 -1.123,30.0937 0.4178,4.8296 0.6767,8.8644 0.5761,8.9649 -0.1003,0.1003 -2.0114,-2.583 -4.246,-5.961 -8.1568,-12.3306 -11.7403,-14.6567 -18.2989,-11.8808 -5.0286,2.1285 -6.371,6.3219 -4.4375,13.8691 1.5918,6.2137 5.4544,15.4846 8.7793,21.0684 2.9191,4.9024 11.6322,14.9633 15.0352,17.3613 1.1012,0.7759 2.9981,3.4743 4.2168,5.9961 2.1701,4.4917 2.2128,4.7755 2.0879,13.9356 -0.1317,9.6563 0.8648,20.572 2.0859,22.8535 0.3832,0.7162 1.4405,1.3027 2.3496,1.3027 1.9343,0 2.7683,-1.7241 3.9981,-8.2695 1.0304,-5.4847 0.5732,-24.5729 -0.6426,-26.8067 -1.8497,-3.3988 -8.0603,-10.1317 -10.7422,-11.6464 -5.2512,-2.9658 -14.3169,-18.1991 -18.584,-31.2266 -2.3323,-7.121 -2.6279,-10.8007 -0.9512,-11.8887 1.813,-1.1762 2.9954,-0.1859 8.7989,7.3711 7.7565,10.1003 10.0524,12.6309 11.457,12.6309 0.7073,0 1.5073,-0.5555 1.7773,-1.2344 0.2701,-0.679 0.7152,-10.6789 0.9903,-22.2207 0.5289,-22.2024 0.8493,-24.1419 3.5156,-21.3125 2.7863,2.9567 7.1419,17.5323 8.2129,27.4844 0.6193,5.756 1.6092,8.6893 3.2226,9.5527 1.5192,0.8131 4.104,-0.1798 4.2774,-1.6426 0.056,-0.4714 0.15,-8.316 0.207,-17.4336 0.099,-15.4968 0.4879,-19.7519 1.8047,-19.7519 0.2955,0 0.8877,0.8723 1.3164,1.9394 1.9924,4.958 3.0114,11.8862 3.3965,23.1035 0.2264,6.5957 0.6977,12.5477 1.0488,13.2266 0.7841,1.5157 4.3102,1.6448 5.7442,0.2109 0.5623,-0.5624 1.2467,-3.1799 1.5215,-5.8183 1.0997,-10.5551 5.043,-29.8399 6.1015,-29.8399 2.1573,0 2.2739,16.9734 0.1934,28.2168 -1.308,7.0693 -1.2371,8.7169 0.4355,10.2305 1.1553,1.0457 1.7276,1.1364 3.1328,0.4961 1.3327,-0.6071 2.1311,-2.0894 3.5528,-6.5898 2.0925,-6.624 6.5729,-15.5937 7.5019,-15.0196 0.3425,0.2118 0.6231,5.8993 0.6231,12.6407 0,12.7905 -0.7357,18.2658 -3.6465,27.164 -2.0433,6.2462 -4.2943,9.266 -11.8242,15.8594 -8.6411,7.5665 -9.5875,9.5293 -9.5235,19.7637 0.051,8.2527 1.0578,11.8599 3.7871,13.5644 1.1816,0.738 1.6134,0.5607 3.1914,-1.3144 1.7711,-2.1045 1.8215,-2.4364 1.6993,-11.1094 -0.079,-5.605 0.1752,-9.5009 0.6816,-10.4473 0.4443,-0.8301 2.9539,-2.9373 5.5762,-4.6816 9.2447,-6.1493 12.7724,-11.2453 16.1054,-23.2598 1.8612,-6.7084 1.971,-6.8963 3.7559,-6.5488 1.0108,0.1969 11.5816,0.5716 23.4922,0.834 8.2563,0.1818 20.4396,-3.0628 24.2695,4.4375 3.7876,5.7371 13.7889,18.3238 17.0957,21.5156 l 2.8399,2.7422 -0.023,9.6035 c -0.013,5.282 0.3374,12.8077 0.7774,16.7246 l 0.8008,7.1211 -4.5957,4.6855 c -5.1415,5.2437 -7.6058,9.6351 -11.1993,19.959 -3.2882,9.4467 -5.4453,20.186 -5.8632,29.1856 -0.389,8.378 0.096,9.928 3.9121,12.5 5.0713,3.4175 10.2547,1.1366 13.9707,-6.1504 l 1.2578,-2.4688 0.3672,10.5938 c 0.3353,9.6926 0.5292,10.9284 2.2832,14.5137 3.3649,6.8775 7.556,7.3051 11.459,1.1699 1.164,-1.8295 2.3037,-3.3279 2.5332,-3.3379 0.2296,-0.01 0.8152,1.3127 1.3007,2.9336 1.2253,4.0893 2.7854,6.251 5.3028,7.3476 2.6354,1.1478 2.6967,1.1516 4.8984,0.3145 0.9792,-0.3722 2.402,-1.895 3.1621,-3.3848 1.483,-2.9068 3.6133,-12.1408 3.6133,-15.6601 0,-2.3671 0.7522,-2.7305 2.1543,-1.041 2.7501,3.3138 9.7922,4.2366 12.5703,1.6484 0.873,-0.8132 1.8856,-2.2608 2.25,-3.2188 0.9815,-2.5816 0.796,-11.6402 -0.4004,-19.5781 -1.5409,-10.2231 -1.6559,-9.8926 2.4512,-7.1289 6.6886,4.5011 11.1942,4.696 12.793,0.5547 1.6441,-4.2587 -0.8538,-13.9318 -5.6289,-21.7969 -1.1465,-1.8883 -3.5889,-5.9741 -5.4258,-9.0781 -4.7663,-8.0535 -6.281,-9.8539 -11.6387,-13.8379 -4.6977,-3.4933 -4.7747,-3.6061 -5.5293,-7.9394 -1.0647,-6.1139 -4.3008,-33.2327 -4.3008,-36.043 0,-0.6146 3.0536,-0.8232 11.4629,-0.7832 10.0443,0.048 11.7351,-0.1099 13.6602,-1.2754 2.2787,-1.3795 4.5039,-4.4769 4.5039,-6.2676 0,-1.8464 -2.8828,-4.7554 -6.5606,-6.6191 l -3.6015,-1.8262 4.834,-1.5078 c 8.7921,-2.7444 9.9693,-7.5023 2.6835,-10.8379 l -4.0019,-1.832 2.8594,-1.2149 c 5.7543,-2.444 7.5906,-7.7204 4.1211,-11.8437 -2.6813,-3.1865 -11.832,-5.7953 -23.2598,-6.6328 l -2.8223,-0.2071 2.1172,-0.9765 c 1.1639,-0.5369 3.7936,-1.7082 5.8438,-2.6016 2.9897,-1.3025 3.9455,-2.1469 4.83,-4.2637 1.3924,-3.3326 0.8476,-7.0234 -1.3632,-9.2343 -3.5015,-3.5016 -17.7117,-3.5564 -35.4317,-0.1368 -16.304,3.1463 -31.3011,10.0436 -35.2519,16.2129 l -1.4102,2.2032 -5.291,-0.375 c -6.4195,-0.4539 -37.8113,0.5756 -40.0313,1.3125 -1.2534,0.4161 -1.5878,0.2591 -1.5878,-0.7442 0,-2.2803 -2.8027,-7.1233 -4.5938,-7.9394 -2.3748,-1.082 -5.0204,0 -6.5469,2.6855 -0.6628,1.1651 -1.3985,2.1231 -1.6347,2.1231 -0.2363,0 -0.6036,-2.6156 -0.8164,-5.8165 -0.409,-6.1563 -1.6658,-9.9975 -4.502,-13.7558 -3.7202,-4.9298 -8.9107,-1.977 -11.1621,6.3496 -0.7081,2.6189 -1.5215,4.7617 -1.8086,4.7617 -0.2873,0 -0.7432,-1.1705 -1.0117,-2.6015 -0.6261,-3.3371 -3.9381,-9.8905 -6.2617,-12.3887 -1.1638,-1.2513 -2.2792,-1.8934 -3.3379,-1.9277 z m 152.5566,14.1406 c 2.518,0.01 3.4754,0.2179 3.7559,0.6718 0.9609,1.5546 -2.1461,3.3582 -9.7715,5.6719 -13.5511,4.1117 -15.621,5.2778 -15.1582,8.5449 0.2273,1.6047 0.4774,1.6589 10.1094,2.17 14.4434,0.7666 29.9369,4.5173 29.1074,7.0468 -0.6547,1.9959 -5.8908,2.771 -21.3477,3.1582 -8.554,0.2143 -15.9143,0.7022 -16.4004,1.0879 -1.2935,1.0264 -1.0757,3.9059 0.3516,4.6387 0.679,0.3485 4.8858,0.8236 9.3477,1.0547 7.3782,0.3825 17.9421,2.4575 23.2793,4.5742 1.5661,0.621 1.6196,0.7563 0.4882,1.2129 -1.8658,0.7522 -14.2794,0.779 -24.9687,0.053 -8.2009,-0.5572 -9.5261,-0.4925 -11.1094,0.545 -2.2931,1.5024 -2.4005,4.2977 -0.2109,5.4824 0.873,0.4723 5.106,1.0979 9.4062,1.3906 4.3003,0.2924 10.3983,1.1913 13.5508,1.9961 7.0755,1.8066 14.3959,4.9151 14.0313,5.959 -0.4564,1.3069 -13.3139,0.6482 -25.379,-1.3008 -13.5504,-2.1889 -18.1619,-2.3077 -19.789,-0.5098 -1.751,1.9348 -1.4826,2.6951 2.2832,6.461 4.8262,4.826 7.9834,10.5334 7.7031,13.9258 -0.1975,2.3909 -0.4366,2.6819 -2.3691,2.8711 -1.6143,0.1579 -3.4611,-0.6625 -7.4082,-3.293 -7.8077,-5.2036 -8.6445,-6.0863 -23.2266,-24.4297 -5.4984,-6.9165 -6.0832,-7.4063 -8.8105,-7.4063 -1.1954,0 -5.8792,-0.7679 -10.4082,-1.707 -10.905,-2.2614 -19.1621,-2.8299 -27.4825,-1.8906 -3.7548,0.4231 -7.3255,0.5797 -7.9355,0.3457 -0.9299,-0.3569 -1.1094,-1.9093 -1.1094,-9.6035 v -9.1778 l 1.9395,0.4961 c 1.0669,0.2719 11.3871,0.6601 22.9336,0.8633 18.6268,0.3278 21.1917,0.2399 22.75,-0.7812 1.1772,-0.7713 1.7558,-1.7993 1.7558,-3.1192 0,-1.7429 0.5887,-2.2594 5.1153,-4.4863 14.4639,-7.1155 31.8606,-11.5276 48.5664,-12.3164 2.8253,-0.1334 4.8993,-0.2032 6.4101,-0.1992 z m -83.457,51.6758 c -9.1848,0.2044 -15.9888,6.1564 -19.4883,16.4316 -2.0772,6.1235 -1.2434,16.9125 6.6953,23.0996 0.4274,0.1963 -2.0718,4.3351 -5.5527,9.1992 -3.4807,4.8641 -7.5245,10.6921 -8.9863,12.9492 -2.0264,3.1288 -2.5854,4.7334 -2.336,6.754 0.615,5.0634 7.7322,8.0021 12.6406,5.2207 1.3705,-0.7766 4.4854,-5.3757 9.2715,-13.6895 3.9641,-6.8864 7.1632,-12.8887 7.1075,-13.3398 -0.073,-0.5663 0.8992,-0.747 3.1367,-0.586 8.9211,0.6418 17.7595,-2.346 21.8398,-7.8047 3.3104,-4.6985 4.5334,-9.7898 4.0645,-14.6875 -0.8954,-9.35 -7.9588,-17.9852 -18.4493,-21.7832 -3.5565,-1.2621 -6.8817,-1.8318 -9.9433,-1.7636 z m 2.2012,5.7695 c 2.0782,-0.046 4.1431,0.2056 5.9179,0.832 7.3813,2.8386 14.7181,10.1862 15.7852,18.5156 0.4173,3.2594 -0.1237,6.6692 -2,10.0176 -3.4486,4.4202 -12.0823,6.7712 -18.8067,5.1211 -5.3185,-1.3053 -11.5863,-4.8896 -14.791,-8.459 -6.215,-7.0368 -2.7018,-15.0707 2.9453,-22.1836 1.7425,-2.1947 6.3772,-3.7421 10.9493,-3.8437 z m 62.0722,3.2715 c 0.8412,0.021 2.3424,0.2699 4.7071,0.6816 4.3697,0.761 4.4511,0.8169 3.9375,2.6465 -0.6919,2.4644 -0.4364,37.5499 0.3066,42.0781 0.5431,3.31 0.7805,3.6221 3.8594,5.0938 7.1611,3.4228 13.1792,11.1046 21.3906,27.3027 1.7558,3.4638 3.1934,7.0422 3.1934,7.9512 v 1.6523 l -2.7461,-1.4004 c -3.2333,-1.6494 -7.7319,-6.6549 -8.2579,-9.1894 -1.0286,-4.9561 -4.6298,-7.1192 -6.2949,-3.7793 -0.806,1.6166 -0.1658,9.4915 2.0742,25.4765 1.9675,14.0403 1.296,19.1588 -2.1406,16.3067 -1.7017,-1.4123 -2.2352,-3.3604 -3.4336,-12.543 -1.4997,-11.4921 -2.7129,-14.8984 -5.3027,-14.8984 -0.681,0 -1.5595,0.3957 -1.9531,0.8808 -0.3935,0.4849 -1.2268,6.7541 -1.8516,13.9317 -0.6248,7.1778 -1.3196,15.1147 -1.543,17.6367 -0.2233,2.5218 -0.7419,6.0139 -1.1523,7.7598 -0.8429,3.5861 -1.7466,4.9732 -2.2598,3.4687 -1.3903,-4.0759 -1.7406,-8.4017 -1.6836,-20.7519 0.079,-16.9443 -0.9505,-22.2427 -4.0918,-21.0371 -1.1104,0.4259 -2.1554,5.6356 -2.7324,13.6289 -0.7028,9.7349 -5.2372,25.3964 -7.3535,25.3964 -1.3027,0 -1.6718,-3.8975 -2.2773,-23.9843 -0.8572,-28.4485 -0.7449,-27.4474 -3.0098,-26.5782 -1.9509,0.7486 -3.2965,3.8177 -5.3613,12.2325 -2.8048,11.4309 -6.3845,19.2832 -8.7911,19.2832 -1.5408,0 -1.7485,-1.7025 -1.0468,-8.5996 2.3314,-22.9158 11.6161,-47.9167 18.0722,-48.6661 1.2306,-0.1429 2.334,-0.916 2.9942,-2.0976 0.9432,-1.6881 0.8571,-3.2104 -0.8809,-15.5195 -1.0598,-7.5061 -1.9182,-13.995 -1.9062,-14.42 0.012,-0.4248 1.8134,0.1303 4.0019,1.2344 4.3481,2.1929 9.1792,2.6306 12.2461,1.1113 2.6635,-1.3198 5.1111,-6.5964 4.6055,-9.9277 -0.4893,-3.2239 -2.4251,-7.1999 -4.9883,-10.2461 -1.3044,-1.5501 -1.7321,-2.1503 -0.3301,-2.1152 z m -59.914,0.6308 c -3.5472,-0.1307 -5.5491,0.9646 -8.2071,1.9942 -7.7573,3.2567 -10.1521,14.5522 -3.1113,20.4336 6.5165,5.4438 15.3248,7.4836 21.4629,4.9902 4.9163,-1.9977 6.8497,-7.2915 6.4219,-12.2559 -0.1945,-2.2565 -0.8761,-4.443 -1.9883,-6.2226 -2.4975,-3.9962 -4.5502,-7.0221 -10.4336,-8.3535 -1.6076,-0.3639 -2.9621,-0.5424 -4.1445,-0.586 z m 0.7089,3.0801 c 0.2837,0.01 0.568,0.032 0.8536,0.064 6.0441,0.5358 9.7188,5.6862 10.2578,11.5136 0.076,0.8327 0.089,1.6787 0.037,2.5274 -0.2335,3.7256 -2.5625,5.5422 -7.127,5.5625 -4.5161,0.02 -10.4232,-1.6803 -13.1035,-3.7715 -7.3521,-6.0743 0.2892,-16.2155 9.082,-15.8965 z m -2.9218,3.5156 c -3.2504,0.1321 -6.0102,2.0637 -6.711,4.6973 -0.7057,2.6522 -0.275,4.8654 1.1641,5.9883 1.735,1.3536 3.4258,1.083 3.7266,-0.5957 0.7611,-4.2479 1.875,-6.4591 3.5878,-7.1211 1.2697,-0.4904 1.7586,-1.1472 1.6133,-1.7188 -0.1864,-0.7351 -1.4203,-1.3293 -3.3808,-1.25 z m -9.9825,26.1758 c 0.4687,-0.023 0.9241,0.2605 1.4668,0.7715 0.3199,0.301 0.5179,0.6299 0.543,1.0957 v 0 c 0.075,1.3972 -1.3963,4.0444 -5.7207,10.9922 -2.2018,3.5381 -4.7359,7.7866 -5.6309,9.4414 -1.8537,3.4271 -2.6039,3.996 -4.8672,3.6934 -3.8665,-1.0559 1.5946,-5.6946 2.5,-8.2149 2.337,-3.7794 5.6451,-9.3124 7.3535,-12.2949 2.2308,-3.895 3.3264,-5.4339 4.3574,-5.4844 z m -59.3007,6.7422 c -0.8021,0 -1.5486,0.08 -2.2325,0.252 -2.289,0.5745 -4.6013,4.2606 -4.6113,7.33 0,2.3652 2.1678,7.3572 3.9922,9.1817 0.5556,0.5554 0.8899,1.1317 0.7422,1.2793 -0.1475,0.1476 -3.8928,-1.0286 -8.3223,-2.6133 -13.8175,-4.9436 -26.0213,-6.3019 -32.039,-3.5645 -3.5286,1.6052 -4.5436,2.8208 -5.0703,6.0664 -0.3849,2.3713 -0.1526,2.8184 3.0332,5.8809 1.8968,1.8236 5.6164,4.4575 8.2656,5.8516 l 4.8164,2.5351 -8.1231,0.4629 c -8.7181,0.4979 -11.1896,1.1227 -13.6796,3.4551 -1.7746,1.6623 -2.1417,5.7707 -0.6817,7.6172 3.0942,3.9133 9.5129,6.615 19.0801,8.0293 l 5.7637,0.8515 -6.3496,0.9258 c -9.2854,1.3536 -14.3325,4.1138 -15.375,8.4063 -1.3059,5.3776 4.3439,8.1783 19.4316,9.6308 4.696,0.4521 4.7473,0.4782 3.7031,1.9688 -0.5822,0.8313 -1.0586,2.1752 -1.0586,2.9863 0,1.9356 3.3791,5.1162 6.7989,6.4004 2.0823,0.7819 4.8869,0.938 11.8945,0.6602 11.965,-0.4744 17.4857,-1.6531 28.6933,-6.129 8.6169,-3.4414 11.6515,-5.1331 20.6739,-11.5195 l 3.5136,-2.4863 8.4786,-0.043 c 16.6022,-0.083 28.8956,-1.0566 31.3066,-2.4805 1.2182,-0.7197 2.2148,-1.5221 2.2148,-1.7832 0,-1.1732 -6.4542,-1.6872 -21.1621,-1.6972 -8.7297,0 -16.4316,-0.2767 -17.1152,-0.6074 -1.5912,-0.7702 -7.6062,1.6279 -13.2734,5.291 -2.3064,1.4907 -5.3813,3.3093 -6.8321,4.041 -5.4576,2.7528 -20.3833,8.0162 -25.5195,9 -10.8815,2.0842 -21.9121,2.5818 -21.9121,0.9883 0,-1.498 10.5378,-4.8894 22.0469,-7.0957 4.5788,-0.8777 6.0564,-2.4204 4.4375,-4.6348 -1.1041,-1.5104 -0.043,-1.4812 -24.0157,-0.6328 -11.2842,0.3993 -16.6249,0.3154 -19.5742,-0.3027 -2.231,-0.4675 -4.0566,-1.0923 -4.0566,-1.3907 0,-0.7325 3.7182,-1.8366 13.4023,-3.9746 13.7571,-3.0373 22.0955,-4.5527 25.084,-4.5527 3.6268,0 5.592,-1.3383 4.9492,-3.3633 -0.8421,-2.6532 -5.1738,-3.4676 -25.0508,-4.7168 -10.4104,-0.6541 -15.587,-1.286 -18.3378,-2.2363 -5.4361,-1.8782 -5.3136,-2.8556 0.4433,-3.5293 6.0247,-0.705 32.6168,-0.7878 36.9746,-0.1152 6.4567,0.9968 7.4856,-2.9191 1.4981,-5.7032 -1.8369,-0.8542 -8.3984,-2.9623 -14.5821,-4.6836 -11.4264,-3.1811 -16.7659,-5.3741 -20.414,-8.3867 -3.4937,-2.8849 -2.0341,-3.474 7.5937,-3.0586 7.7565,0.3346 9.7633,0.7324 21.7793,4.3164 7.279,2.1712 14.808,4.7445 16.7305,5.7188 5.2911,2.6813 7.6884,2.2202 6.8027,-1.3086 -0.2193,-0.8739 -3.1324,-4.7449 -6.4726,-8.6016 -3.3399,-3.8566 -6.3648,-7.5477 -6.7227,-8.2031 -1.9788,-3.6235 4.9158,-1.1468 14.5723,5.2363 6.409,4.2364 11.7319,8.6936 21.0195,17.5977 5.0932,4.8828 6.8066,5.164 31.582,5.164 19.6009,0 21.0058,-0.085 22.4043,-1.3496 1.3992,-1.2652 1.4192,-1.43 0.3164,-2.6484 -2.4173,-2.6713 -6.0376,-3.0566 -28.6894,-3.0566 h -21.7422 l -2.5957,-2.8887 c -1.4277,-1.589 -4.8947,-5.4531 -7.7051,-8.586 -10.0975,-11.256 -22.9688,-19.1613 -30.7226,-19.1816 z" fill="#00B894" transform="translate(109.63326,-29.224451) matrix(0.81087108,0,0,0.81087108,698.2357,732.34431)"/>
</svg>