<?xml version="1.0" ?><svg height="292.74246mm" viewBox="0 0 244.16214 292.74246" width="244.16214mm" xmlns="http://www.w3.org/2000/svg">
    <path d="m 36791.578,15789.12 c 11.976,-15.849 61.843,0.459 61.843,0.459 0,0 18.23,-26.135 27.505,-36.279 9.275,-10.144 4.579,-8.347 -5.283,-64.56 -9.863,-56.213 66.805,-235.312 220.962,-278.529 154.157,-43.216 326.63,-22.612 394.962,27.156 68.332,49.767 153.453,229.606 147.934,261.833 -5.518,32.228 5.753,88.652 5.753,88.652 0,0 36.045,8.136 28.883,43.85 -7.162,35.715 -6.46,190.667 -3.642,217.294 2.818,26.628 6.222,98.901 -72.206,97.95 -78.429,-0.951 -133.963,-27.155 -133.963,-27.155 0,0 9.158,212.911 5.518,221.365 -3.64,8.453 -31.466,48.499 -73.263,38.778 -41.797,-9.721 -55.417,-16.906 -75.493,-0.317 -20.077,16.589 -76.433,5.283 -90.288,6.128 -13.854,0.846 -21.955,20.076 -68.449,11.623 -46.493,-8.453 -65.279,-31.276 -86.999,-25.042 -21.721,6.234 -57.061,12.257 -68.567,-7.291 -11.506,-19.547 -29.704,-24.196 -29.704,-24.196 0,0 -37.453,5.494 -35.34,-23.775 2.113,-29.268 15.615,-201.5 15.615,-201.5 0,0 -89.851,17.008 -133.057,13.521 -43.206,-3.487 -56.473,-11.623 -50.251,-53.043 6.223,-41.42 26.3,-169.59 21.016,-206.995 -5.283,-37.405 -18.83,-54.825 -3.486,-79.927 z" fill="#FFFFFF" paint-order="markers stroke fill" transform="translate(-62.975943,-32.489655) matrix(0.26458333,0,0,0.26458333,-9664.5033,-4019.1911)"/>
    <path d="m 37155.979,16418.049 c -8.595,-1.656 -24.634,-8.568 -35.638,-15.359 -22.275,-13.749 -32.79,-14.986 -57.063,-6.715 -27.173,9.258 -55.206,-0.824 -69.46,-24.979 -6.496,-11.013 -8.78,-12.258 -22.488,-12.258 -10.894,0 -17.964,-2.328 -24.719,-8.137 -8.192,-7.049 -9.669,-11.405 -11.007,-32.479 -0.848,-13.384 0.951,-50.308 4,-82.049 3.05,-31.742 5.543,-68.231 5.543,-81.086 v -23.373 l -18.433,6.193 c -21.147,7.107 -65.207,13.783 -90.971,13.783 h -17.609 l 2.097,13.166 c 8.926,56.052 12.12,178.978 4.839,186.258 -5.714,5.717 -13.345,5.296 -20.442,-1.124 -4.523,-4.095 -5.508,-9.382 -4.231,-22.688 0.916,-9.543 0.5,-54.685 -0.924,-100.317 l -2.594,-82.963 -9.251,-3.337 c -5.09,-1.832 -12.181,-7.336 -15.763,-12.231 -9.316,-12.735 -8.718,-55.362 1.573,-111.94 7.259,-39.915 8.31,-56.584 8.376,-132.83 5.125,-32.224 -14.547,-74.119 11.545,-97.43 13.822,-12.348 32.107,-13.62 48.873,-3.397 l 11.189,6.822 9.064,-15.467 c 10.701,-18.259 31.517,-36.632 48.041,-42.396 7.281,-2.541 11.239,-5.964 10.325,-8.929 -4.864,-15.773 -0.184,-50.909 11.808,-88.654 15.768,-49.632 28.834,-70.169 54.627,-85.837 18.92,-11.494 19.91,-11.689 48.783,-9.619 41.653,2.986 64.855,14.744 80.836,40.955 15.587,25.567 6.349,86.316 -17.205,113.18 -5.367,6.117 -8.761,11.507 -8.761,11.507 4.947,11.645 -6.012,16.893 -16.064,9.869 0,0 -11.399,7.385 -19.125,10.803 -9.429,4.171 -22.366,6.143 -39.385,5.998 l -25.343,-0.21 10.423,18.462 c 6.03,10.688 10.42,23.623 10.42,30.709 0,19.791 -9.788,47.064 -20.777,57.887 -7.139,7.03 -10.946,15.067 -12.669,26.732 -1.356,9.172 -1.429,16.677 -0.158,16.677 6.576,0 30.704,-15.178 32.347,-20.347 6.807,-21.417 29.443,-42.851 45.25,-42.851 4.303,0 9.828,-2.418 12.279,-5.37 3.692,-4.45 3.094,-6.817 -3.499,-13.835 -6.976,-7.428 -7.476,-9.835 -4.069,-19.612 2.139,-6.128 3.026,-12.537 1.975,-14.238 -1.05,-1.701 -0.335,-5.249 4.931,-7.648 4.93,-12.912 11.881,-7.348 10.756,-0.241 1.605,2.849 11.465,3.611 12.405,-1.241 1.216,-6.283 8.786,-4.762 8.881,0.339 0.08,3.96 4.04,5.373 12.635,6.376 23.31,2.72 18.981,-6.004 -10.996,-22.156 -18.878,-10.17 -30.82,-7.239 -39.512,9.703 -4.735,9.227 -7.086,11.236 -8.587,7.329 -3.542,-9.233 9.482,-28.59 21.569,-32.055 9.258,-2.657 14.741,-1.277 34.219,8.611 25.782,13.087 36.423,25.047 30.585,34.374 -1.993,3.184 -7.584,6.268 -12.424,6.852 -6.849,0.83 -9.722,4.137 -12.953,14.923 -4.057,13.543 -8.489,16.144 -24.06,14.122 -7.641,-0.993 -6.746,22.72 1.196,31.612 8.063,9.03 5.759,17.598 -8.345,31.012 -10.249,9.751 -14.325,17.253 -17.793,32.753 -2.475,11.057 -5.972,21.013 -7.771,22.127 -14.259,8.811 17.161,11.549 54.448,4.748 39.618,-7.229 53.703,-18.164 38.101,-29.572 -7.592,-5.553 -15.07,-2.828 -15.07,5.491 0,12.997 -8.937,16.881 -37.411,16.263 -17.998,-0.393 -27.441,-2.046 -28.418,-4.977 -0.914,-2.739 1.867,-4.39 7.399,-4.39 4.875,0 9.838,-1.58 11.031,-3.51 1.196,-1.93 -0.424,-3.51 -3.594,-3.51 -3.173,0 -5.085,-1.975 -4.253,-4.39 0.832,-2.415 5.704,-4.326 10.825,-4.25 6.657,0.105 9.312,-1.654 9.312,-6.146 0,-3.942 -2.615,-6.28 -7.023,-6.28 -3.861,0 -7.021,-2.315 -7.021,-5.146 0,-7.878 12.698,-13.379 20.835,-9.024 9.466,5.067 14.398,4.532 12.155,-1.314 -1.986,-5.172 2.012,-6.989 23.186,-10.543 l 12.289,-2.065 v -32.476 c 0,-30.322 0.859,-34.222 12.937,-58.809 7.118,-14.482 13.791,-29.121 14.834,-32.528 3.057,-10.009 19.072,-14.083 56.494,-14.373 37.371,-0.289 50.908,3.698 50.908,14.997 0,3.557 2.268,8.35 5.04,10.651 2.771,2.299 10.223,16.319 16.561,31.152 9.496,22.233 11.515,31.438 11.494,52.423 l -0.05,25.456 h 20.447 c 11.244,0 26.014,2.325 32.821,5.169 9.943,4.155 13.782,4.326 19.533,0.879 6.146,-3.689 7.913,-3.181 12.516,3.605 2.947,4.345 8.216,7.9 11.71,7.9 9.288,0 30.53,13.756 46.082,29.845 13.936,14.412 23.953,39.194 23.953,59.254 0,6.222 3.399,14.277 8.252,19.552 11.397,12.387 19.16,34.111 21.962,61.468 l 2.37,23.12 12.673,-2.357 c 6.971,-1.295 22.154,-4.879 33.74,-7.965 l 21.066,-5.609 9.643,-28.75 c 13.417,-40.005 18.886,-103.479 13.659,-158.533 -6.112,-64.373 -22.585,-118.115 -38.88,-126.836 -17.214,-9.211 -62.506,1.79 -68.841,16.721 -1.396,3.292 -3.653,28.129 -5.017,55.193 -1.564,31.083 -4.271,52.423 -7.341,57.932 -4.764,8.537 -4.916,8.353 -7.278,-8.835 -4.84,-35.193 -3.403,-99.974 2.496,-112.4 8.853,-18.66 29.943,-31.018 55.741,-32.661 35.841,-2.28 54.466,12.461 67.761,53.64 l 6.76,20.929 20.758,0.34 c 25.69,0.421 33.811,5.4 43.396,26.606 6.928,15.328 7.189,18.504 3.326,40.621 -2.944,16.861 -3.573,53.41 -2.12,122.947 1.825,87.234 1.333,102.047 -4.15,125.056 -7.686,32.265 -15.957,46.801 -34.359,60.381 l -14.277,10.533 -2.367,49.155 c -1.304,27.035 -2.826,69.376 -3.382,94.089 -0.821,36.607 -2.109,46.037 -6.949,50.877 -5.369,5.369 -6.846,5.433 -15.341,0.664 -8.608,-4.832 -9.332,-6.899 -8.564,-24.542 2.202,-50.596 7.929,-140.219 9.815,-153.564 l 2.109,-14.923 h -21.656 c -24.734,0 -80.101,-14.343 -98.055,-25.403 l -11.828,-7.284 1.832,82.174 c 1.159,51.923 3.671,90.213 6.82,104.003 6.987,30.575 3.195,37.953 -30.208,58.772 -33.237,20.716 -47.504,23.07 -75.775,12.497 -25.061,-9.371 -35.67,-7.744 -52.012,7.979 -10.141,9.756 -14.288,11.215 -35.252,12.4 -16.46,0.93 -27.894,-0.384 -37.213,-4.279 -17.803,-7.439 -31.839,-7.099 -43.459,1.051 -11.737,8.231 -32.584,10.97 -53.232,6.996 z m 47.341,-22.266 12.176,-5.088 0.74,-36.165 c 0.408,-19.892 0.809,-80.407 0.888,-134.475 0.158,-96.057 4.863,-153.33 13.05,-158.389 2.051,-1.269 2.259,3.121 0.542,11.458 -1.532,7.431 -2.175,54.59 -1.429,104.798 0.747,50.206 1.503,117.589 1.682,149.738 l 0.327,58.453 15.799,2.549 c 8.69,1.401 25.28,2.744 36.866,2.989 24.363,0.511 22.799,5.356 16.297,-50.466 -7.386,-63.386 -8.654,-199.864 6.475,-231.727 8.225,-17.323 2.439,38.619 2.215,96.551 -0.237,57.931 0.932,120.88 2.575,139.881 2.879,33.327 3.252,34.454 10.533,31.831 4.15,-1.496 17.946,-2.823 30.652,-2.949 l 23.104,-0.237 -0.967,-108.843 c -0.724,-81.498 1.597,-110.657 4.458,-93.473 1.453,8.731 0.938,39.14 1.238,67.14 0.303,28.002 2.396,71.451 4.651,96.554 l 4.099,45.642 11.579,1.114 c 14.077,1.351 38.501,-12.016 50.901,-27.86 7.373,-9.419 8.126,-12.732 5.401,-23.702 -1.744,-7.012 -4.551,-47.509 -6.236,-89.992 -3.315,-83.479 -0.211,-156.113 9.153,-214.171 3.116,-19.312 6.407,-48.433 7.318,-64.715 l 1.657,-29.603 -11.445,9.63 c -17.513,14.736 -50.885,30.285 -76.678,35.725 -42.898,9.048 -139.757,13.027 -232.153,9.533 -74.527,-2.818 -88.133,-4.205 -101.82,-10.388 -15.268,-6.897 -37.395,-24.556 -34.454,-27.497 0.793,-0.793 11.634,2.723 24.092,7.808 21.218,8.663 28.091,9.469 108.669,12.734 96.672,3.916 207.867,-0.742 244.016,-10.222 27.852,-7.305 80.06,-36.689 74.703,-42.048 -1.116,-1.114 -9.779,1.901 -19.251,6.702 -25.106,12.721 -68.936,18.741 -94.616,12.995 -21.73,-4.864 -39.833,-18.97 -39.833,-31.041 0,-12.508 13.622,-25.003 33.584,-30.807 10.494,-3.049 19.081,-6.859 19.081,-8.463 0,-2.823 -41.553,-9.127 -43.552,-6.609 -0.545,0.687 -4.002,10.591 -7.686,22.008 -6.396,19.842 -7.392,20.964 -22.493,25.401 -22.575,6.633 -75.046,5.79 -96.554,-1.551 -15.018,-5.125 -18.823,-8.398 -26.333,-22.657 -7.636,-14.501 -10.217,-16.668 -19.857,-16.676 -10.525,0 -10.878,0.421 -7.021,8.603 2.231,4.739 7.998,9.606 12.817,10.814 13.361,3.36 17.574,8.422 17.574,21.124 0,24.213 -33.888,37.875 -94.797,38.217 -36.253,0.211 -41.703,-0.595 -53.364,-7.845 -14.485,-9.008 -19.588,-19.517 -13.205,-27.204 5.637,-6.796 15.265,-6.688 12.645,0.132 -1.309,3.405 1.569,7.091 8.226,10.533 13.253,6.852 13.414,6.807 11.497,-3.221 -0.896,-4.681 0.271,-14.269 2.591,-21.3 5.314,-16.102 3.023,-18.438 -9.443,-9.635 -5.422,3.829 -19.734,11.923 -31.802,17.99 -21.3,10.705 -27.868,17.949 -16.268,17.949 4.202,0 5.1,2.051 3.46,7.899 -8.377,29.856 -16.158,103.783 -16.158,153.517 0,70.134 -5.029,132.053 -15.813,194.674 -4.684,27.207 -7.154,50.691 -5.503,52.342 1.646,1.645 8.3,3.244 14.788,3.552 l 11.795,0.561 4.026,-108.209 c 2.215,-59.514 5.174,-115.603 6.575,-124.64 5.348,-34.48 7.95,-0.874 8.382,108.206 0.524,133.24 1.303,141.196 14.938,152.669 11.926,10.032 31.018,14.485 40.458,9.432 6.012,-3.218 7.07,-11.112 10.97,-81.952 2.373,-43.115 4.479,-97.352 4.679,-120.525 0.211,-23.172 1.928,-58.695 2.631,-78.998 0.906,-26.172 5.32,-50.215 7.348,-12.307 1.211,22.64 1.534,251.65 -0.833,275.634 -0.74,7.496 0.745,8.934 10.167,9.851 l 11.03,1.071 2.168,-55.493 c 2.757,-70.629 5.766,-148.25 9.832,-163.892 2.307,-8.869 5.727,-3.431 4.464,17.111 -0.951,15.45 -2.752,67.844 -4.006,116.433 l -2.275,88.346 10.209,8.997 c 25.114,22.136 57.669,29.156 84.054,18.13 z m 423.112,-260.069 c 21.656,-11.199 27.555,-42.775 27.547,-147.437 0,-84.756 4.158,-134.578 13.032,-155.81 5.193,-12.421 5.103,-12.824 -4.548,-20.552 -9.537,-7.634 -36.178,-11.423 -36.178,-5.143 0,1.527 2.533,20.882 5.63,43.012 3.952,28.263 5.182,56.425 4.132,94.655 1.232,57.493 -23.207,144.812 -71.762,162.635 -33.961,10.82 -57.492,10.971 -83.087,0.535 -5.543,-2.262 -6.249,-1.048 -5.267,9.072 0.977,10.038 2.868,12.136 13.424,14.914 48.992,12.882 116.222,14.905 137.077,4.119 z m -721.197,-17.688 c 14.801,-3.057 30.627,-4.626 35.167,-3.486 6.046,1.516 8.258,0.592 8.258,-3.445 0,-4.755 -3.987,-5.195 -28.966,-3.186 -32.326,2.602 -51.267,-1.048 -69.368,-13.366 -20.745,-14.12 -26.051,-24.769 -28.984,-58.185 -8.458,-96.356 -7.939,-104.245 12.326,-188.052 10.604,-43.846 10.739,-45.371 4.361,-50.031 -9.893,-7.237 -31.086,-6.075 -38.493,2.106 -5.994,6.625 -5.999,8.503 -0.08,44.539 8.176,49.84 5.693,120.761 -6.681,190.806 -10.093,57.137 -11.133,74.724 -4.737,80.007 14.62,12.07 65.086,13.061 117.206,2.293 z m 657.312,-36.76 c 10.07,-4.332 17.606,-8.579 16.745,-9.438 -0.859,-0.861 -13.151,0.158 -27.315,2.265 -22.965,3.415 -42.711,2.33 -69.56,-3.824 -3.163,-0.726 -5.654,1.896 -6.391,6.734 -1.733,11.367 10.022,15.186 41.648,13.532 17.1,-0.895 33.084,-4.198 44.873,-9.269 z m -615.643,-1.43 c 0,-1.809 -5.209,-4.637 -11.576,-6.288 -6.955,-1.801 -12.708,-6.054 -14.407,-10.644 -2.562,-6.928 -5.43,-7.676 -30.554,-7.966 -20.068,-0.237 -32.252,-2.354 -44.107,-7.681 l -16.381,-7.362 3.439,9.861 c 4.174,11.971 11.531,18.939 29.627,28.05 11.357,5.719 19.828,6.78 48.849,6.119 19.31,-0.439 35.11,-2.28 35.11,-4.089 z m 552.984,-27.831 c 0,-12.358 -6.448,-44.663 -11.288,-56.549 l -4.245,-10.425 -2.417,8.671 c -1.328,4.766 -2.573,21.703 -2.765,37.635 l -0.351,28.965 h 10.533 c 8.732,0 10.533,-1.419 10.533,-8.297 z m -546.625,-30.838 c 3.339,-17.661 5.414,-32.771 4.611,-33.574 -2.905,-2.905 -20.403,37.503 -22.27,51.425 -1.664,12.395 -1.029,14.262 4.838,14.262 5.727,0 7.673,-4.875 12.821,-32.113 z m -26.899,-0.132 c 3.708,-10.391 13.504,-25.882 22.833,-36.11 20.139,-22.074 28.079,-45.36 18.12,-53.134 -3.503,-2.733 -9.53,-4.313 -13.391,-3.512 -3.862,0.803 -16.178,3.528 -27.372,6.056 -23.652,5.343 -29.19,3.231 -38.635,-14.738 -7.676,-14.602 -5.923,-47.207 5.179,-96.291 7.997,-35.357 13.035,-44.046 20.392,-35.18 3.71,4.471 3.824,11.147 0.572,34.409 -2.218,15.873 -4.032,42 -4.029,58.063 0,32.581 -1.604,31.399 26.648,19.594 10.591,-4.424 11.623,-6.314 13.651,-25.037 1.209,-11.136 3.908,-30.685 5.999,-43.441 4.616,-28.133 -0.511,-54.44 -13.651,-70.055 -7.139,-8.487 -11.386,-10.328 -23.813,-10.328 -12.9,0 -16.716,1.815 -25.956,12.337 -20.429,23.268 -30.669,50.127 -44.555,116.859 -8.197,39.399 -9.087,50.256 -7.626,93.107 0.912,26.68 3.166,50.016 5.006,51.859 1.844,1.841 18.249,5.517 36.46,8.169 18.209,2.649 34.135,4.987 35.389,5.195 1.253,0.211 5.203,-7.813 8.777,-17.822 z m 511.577,-111.395 c 12.882,-7.963 17.15,-17.869 7.702,-17.869 -2.802,0 -6.47,2.46 -8.15,5.467 -7.436,13.287 -59.414,20.587 -78.044,10.962 -6.81,-3.518 -8.661,-7.049 -8.261,-15.75 0.285,-6.167 -0.505,-11.204 -1.756,-11.199 -5.838,0.05 -25.095,14.473 -25.095,18.817 0,13.314 23.12,19.89 65.328,18.578 29.456,-0.914 37.656,-2.444 48.276,-9.006 z m -318.999,-7.336 c 1.196,-1.93 -0.99,-3.51 -4.85,-3.51 -3.863,0 -8,1.58 -9.193,3.51 -1.193,1.933 0.99,3.513 4.853,3.513 3.861,0 7.998,-1.58 9.19,-3.513 z m 271.226,-4.887 c -9.258,-7.028 -7.394,-12.666 4.193,-12.666 6.677,0 12.252,2.741 15.765,7.755 3.768,5.38 6.554,6.636 9.093,4.1 5.772,-5.775 0,-15.368 -9.238,-15.368 -6.059,0 -8.4,-1.956 -8.4,-7.02 0,-7.173 -3.752,-9.109 -8.506,-4.39 -1.458,1.448 -6.857,2.633 -11.994,2.633 -7.594,0 -9.145,1.438 -8.284,7.679 0.7,5.064 -1.691,9.227 -7.021,12.231 -7.833,4.416 -7.649,4.624 5.96,6.747 23.765,3.708 25.363,3.56 18.432,-1.701 z m -180.083,-5.878 c -2.052,-22.557 -7.216,-29.734 -2.931,-51.975 1.814,-9.077 4.524,-11.584 15.8,-14.62 13.421,-3.613 18.754,-10.414 8.168,-10.414 -2.994,0 -10.104,-2.412 -15.8,-5.356 -15.336,-7.932 -13.392,-18.012 7.318,-37.998 19.299,-18.623 23.07,-18.433 33.464,1.669 7.002,13.54 6.285,25.422 -1.986,32.908 -9.485,8.582 -8.879,15.8 1.325,15.8 4.592,0 10.185,2.214 12.434,4.921 4.843,5.838 6.691,41.906 2.852,55.644 -2.57,9.187 -2.117,9.653 9.419,9.653 8.521,0 12.648,-1.822 13.901,-6.143 12.871,-44.35 12.958,-69.226 0.382,-107.129 -5.28,-15.908 -10.193,-31.036 -10.92,-33.619 -0.985,-3.508 -5.096,-4.053 -16.234,-2.154 -18.536,3.157 -62.422,3.136 -72.415,-0.05 -6.425,-2.038 -7.455,-0.961 -7.455,7.792 0,5.585 -4.066,21.885 -9.034,36.223 -11.508,33.206 -10.357,59.475 3.876,88.546 8.571,17.501 11.094,20.034 19.981,20.034 6.309,0 7.889,1.094 7.87,-1.637 z m 42.964,-5.911 c -0.03,-5.312 1.201,-18.741 2.741,-29.843 1.999,-14.391 1.659,-20.189 -1.19,-20.189 -2.196,0 -3.994,3.065 -3.994,6.815 0,8.847 -5.325,11.926 -15.998,9.248 -9.909,-2.486 -11.478,-11.281 -2.435,-13.643 3.381,-0.882 0.842,-1.788 -5.641,-2.012 -8.753,-0.303 -11.302,0.856 -9.903,4.497 1.034,2.702 2.988,16.132 4.339,29.846 l 2.457,24.937 h 14.844 c 13.864,0 14.838,-0.637 14.78,-9.656 z m -125.327,-4.39 c 0,-1.93 -2.37,-3.51 -5.267,-3.51 -2.896,0 -5.266,1.58 -5.266,3.51 0,1.933 2.37,3.513 5.266,3.513 2.897,0 5.267,-1.58 5.267,-3.513 z m -136.93,-92.917 c 0,-12.453 -1.553,-16.508 -7.555,-19.721 -6.691,-3.581 -7.254,-3.294 -4.921,2.51 1.448,3.605 3.476,12.479 4.505,19.72 2.594,18.23 7.971,16.537 7.971,-2.509 z m 241.444,1.632 c 1.606,0 4.819,1.896 7.136,4.214 3.276,3.275 4.213,2.559 4.213,-3.226 0,-17.066 -3.376,-19.004 -16.144,-9.267 -12.3,9.385 -15.252,17.09 -7.555,19.734 2.412,0.827 5.522,-1.411 6.91,-4.974 1.385,-3.566 3.834,-6.481 5.44,-6.481 z m -129.08,-15.436 c -5.18,-5.182 -12.021,3.028 -9.006,10.81 2.357,6.083 2.71,6.062 7.502,-0.453 3.366,-4.572 3.863,-7.997 1.504,-10.357 z m -19.686,6.341 c 2.572,-6.709 -0.585,-12.887 -5.146,-10.067 -4.176,2.583 -4.289,15.65 -0.131,15.65 1.725,0 4.1,-2.513 5.279,-5.583 z m -128.667,-58.498 c -2.098,-9.169 -4.961,-16.674 -6.362,-16.674 -2.562,0 2.328,26.494 5.983,32.405 3.958,6.407 4.1,0.53 0.379,-15.731 z m 291.779,9.161 c 11.868,-1.243 21.579,-3.794 21.579,-5.674 0,-5.022 -69.099,-1.62 -74.379,3.663 -4.963,4.963 16.672,5.787 52.8,2.011 z m -306.262,-12.229 c -1.206,-6.032 -2.193,-15.512 -2.193,-21.066 0,-5.551 -1.58,-10.093 -3.513,-10.093 -3.842,0 -4.663,21.667 -1.298,34.232 3.289,12.271 9.527,9.538 7.004,-3.073 z m 73.071,-16.236 c -5.746,-12.94 -5.812,-34.493 -0.106,-39.217 4.561,-3.787 5.791,-3.75 7.055,0.21 0.843,2.631 3.289,10.518 5.44,17.525 5.746,18.725 15.342,26.322 26.709,21.142 6.597,-3.004 9.395,-5.382 9.395,-5.382 -6.861,-11.531 5.244,-17.321 13.238,-10.798 0,0 1.341,-0.783 8.859,-9.702 19.87,-23.565 28.507,-65.558 17.761,-86.34 -3.184,-6.156 -6.328,-11.194 -6.989,-11.194 -0.658,0 -11.576,6.96 -24.255,15.463 -12.681,8.503 -32.247,18.822 -43.475,22.933 -45.708,16.724 -51.114,21.898 -57.049,54.606 -3.621,19.952 -3.413,21.332 4.118,27.054 8.455,6.423 15.913,8.608 32.01,9.374 8.326,0.398 9.567,-0.563 7.302,-5.666 z m 31.536,-58.29 c -2.936,-7.652 5.048,-20.445 11.934,-19.118 3.963,0.764 5.906,4.59 5.906,11.624 0,8.205 -1.719,10.728 -7.915,11.607 -4.606,0.656 -8.756,-1.066 -9.925,-4.113 z m 32.47,2.404 c -3.786,-3.784 -2.685,-16.977 1.788,-21.45 5.133,-5.133 13.425,0.721 13.425,9.474 0,9.614 -9.835,17.356 -15.213,11.976 z m -93.557,-41.671 c 6.349,-11.094 16.248,-25.53 22.001,-32.084 5.754,-6.554 9.82,-12.558 9.032,-13.345 -0.787,-0.785 -8.01,1.516 -16.049,5.116 -24.516,10.976 -40.41,38.222 -45.479,77.955 -3.687,28.898 1.745,31.786 10.838,5.764 4.466,-12.781 13.311,-32.315 19.657,-43.406 z m 40.144,-16.777 c 14.573,-13.161 26.494,-25.406 26.494,-27.212 0,-1.806 -5.449,-3.284 -12.108,-3.284 -13.611,0 -19.994,6.763 -41.977,44.479 -13.074,22.427 -17.709,39.064 -5.704,20.473 3.74,-5.793 18.723,-21.297 33.295,-34.456 z m 33.914,0.624 c 13.446,-7.989 23.892,-16.184 23.215,-18.214 -0.674,-2.03 -5.796,-5.214 -11.378,-7.073 -8.364,-2.789 -10.799,-2.257 -13.825,3.013 -2.022,3.518 -8.811,12.244 -15.086,19.388 -19.362,22.046 -16.105,22.596 17.074,2.886 z m 474.714,376.138 c -8.958,-3.608 -41.316,-41.806 -60.957,-71.957 -23.223,-35.646 -23.86,-36.357 -30.986,-34.493 -8.023,2.099 -21.535,-8.542 -21.535,-16.96 0,-3.303 -3.16,-7.008 -7.02,-8.235 -4.398,-1.395 -7.023,-5.311 -7.023,-10.477 0,-8.221 -12.305,-40.432 -15.447,-40.432 -0.908,0 -5.622,1.509 -10.475,3.355 -7.639,2.905 -10.098,1.844 -18.293,-7.9 -5.209,-6.19 -13.827,-13.089 -19.157,-15.333 -20.065,-8.445 -14.583,-30.198 13.108,-52.017 21.093,-16.619 50.351,-12.835 50.211,6.493 -0.03,4.111 -1.44,9.659 -3.133,12.334 -1.904,3.008 -1.104,9.599 2.104,17.269 3.647,8.732 4.181,14.604 1.801,19.826 -5.238,11.494 9.69,28.568 23.689,27.099 21.542,-2.259 45.813,25.89 45.813,53.134 0,8.145 4.498,18.275 14.465,32.589 18.728,26.888 44.868,57.637 49.005,57.637 6.815,0 3.399,-74.548 -5.47,-119.376 -10.354,-52.334 -10.835,-62.653 -3.073,-65.634 9.072,-3.479 13.156,5.443 27.363,59.764 10.783,41.224 13.313,57.25 13.74,87.011 0.782,28.845 -7.789,78.758 -38.73,66.303 z m -152.152,-197.682 c -0.106,-8.55 -6.441,-14.891 -10.657,-10.675 -2.971,2.97 -2.963,5.891 0.03,11.481 4.026,7.523 10.728,7.015 10.628,-0.806 z m -29.435,-30.514 c 2.823,0 6.043,2.37 7.155,5.267 3.391,8.842 9.221,5.856 7.378,-3.784 -1.554,-8.137 -0.859,-8.83 6.894,-6.884 7.468,1.873 8.318,1.204 6.351,-4.995 -1.862,-5.864 -0.869,-7.002 5.477,-6.283 10.26,1.164 12.608,-6.404 3.503,-11.278 -9.359,-5.009 -23.236,1.912 -38.346,19.123 -11.505,13.103 -12.832,16.392 -8.421,20.871 1.448,1.469 3.139,-0.637 3.755,-4.682 0.616,-4.045 3.431,-7.355 6.254,-7.355 z m 258.642,-17.261 c -8.911,-10.349 -21.988,-20.539 -32.661,-25.453 -20.405,-6.845 -17.488,-11.151 -15.386,-31.017 6.151,-58.14 -0.632,-88.243 -27.689,-122.865 -33.74,-43.181 -76.693,-49.964 -119.487,-18.873 -24.923,18.109 -37.337,46.293 -39.991,90.8 -1.954,32.731 -2.301,33.832 -13.893,44.01 -7.371,6.472 -15.779,10.438 -22.125,10.438 -12.218,0 -18.685,-8.9 -13.04,-17.943 2.786,-4.461 2.676,-8.619 -0.405,-15.381 -5.938,-13.037 -22.636,-11.384 -25.214,2.494 -1.601,8.632 -21.35,27.32 -28.871,27.32 -1.606,0 -4.418,-3.95 -6.254,-8.779 -5.032,-13.235 -23.428,-12.985 -41.331,0.563 l -11.489,8.692 -11.837,-7.317 c -13.927,-8.606 -25.003,-6.065 -36.328,8.334 -3.913,4.972 -10.325,9.04 -14.257,9.04 -9.608,0 -19.146,-10.02 -16.308,-17.132 4.93,-12.345 6.018,-59.143 1.681,-72.283 -5.989,-18.143 -25.788,-39.17 -47.215,-50.143 -13.485,-6.907 -24.684,-9.485 -46.385,-10.683 -24.984,-1.377 -31.009,-0.476 -47.559,7.099 -23.526,10.77 -42.583,27.228 -53.913,46.564 -14.963,25.533 -26.128,63.878 -26.51,91.048 -0.466,33 -2.533,38.569 -18.272,49.21 -10.546,7.129 -14.785,8.264 -20.152,5.391 -11.958,-6.399 -17.619,-23.239 -19.786,-58.851 -2.602,-42.725 5.685,-79.319 28.394,-125.42 15.947,-32.37 50.182,-76.425 72.546,-93.354 27.405,-20.745 90.657,-62.171 106.837,-70.716 88.522,-46.749 183.148,-72.422 279.386,-56.802 63.393,10.289 130.292,38.375 173.535,68.915 71.759,50.679 113.83,118.26 133.749,198.308 10.639,42.757 6.19,122.236 -7.755,144.155 -14.401,12.358 -26.872,-3.482 -32.015,-9.369 z m -273.92,-120.2 c -6.291,-6.289 -16.558,3.102 -10.876,9.948 3.55,4.279 4.89,4.216 9.549,-0.44 4.121,-4.123 4.439,-6.396 1.327,-9.508 z m -113.802,2.665 c 1.43,-7.416 -5.198,-12.93 -12.274,-10.212 -4.982,1.909 -6.396,12.239 -2.246,16.389 4.356,4.356 13.219,0.585 14.52,-6.177 z m 58.98,-4.535 c 3.821,-15.225 -12.484,-21.013 -21.016,-7.463 -2.855,4.535 -2.244,7.595 2.586,12.93 7.697,8.505 15.507,6.188 18.43,-5.467 z m -14.52,-57.287 c 0,-6.435 -2.112,-9.079 -7.915,-9.901 -8.627,-1.227 -13.525,6.304 -10.031,15.413 1.27,3.307 5.283,5.064 10.031,4.39 5.803,-0.825 7.915,-3.468 7.915,-9.902 z m -33.974,-18.725 c 0.658,-3.386 -1.106,-5.853 -4.182,-5.853 -6.522,0 -10.459,5.724 -7.37,10.72 3.175,5.137 10.185,2.185 11.552,-4.867 z m 102.439,1.169 c 0,-4.681 -2.338,-7.022 -7.02,-7.022 -4.682,0 -7.023,2.341 -7.023,7.022 0,4.682 2.341,7.023 7.023,7.023 4.682,0 7.02,-2.341 7.02,-7.023 z m -191.159,-17.861 c 3.618,-5.854 -4.521,-12.566 -9.364,-7.723 -4.053,4.05 -1.517,11.541 3.908,11.541 1.704,0 4.158,-1.719 5.456,-3.818 z m 116.761,-44.46 c -1.427,-7.399 -7.657,-6.933 -9.245,0.693 -0.664,3.181 1.274,5.453 4.645,5.453 3.618,0 5.34,-2.301 4.6,-6.146 z m 88.444,-6.143 c 3.491,-4.211 3.462,-6.36 -0.158,-10.71 -3.979,-4.792 -5.135,-4.824 -9.688,-0.271 -5.206,5.206 -3.663,16.247 2.272,16.247 1.754,0 5.159,-2.37 7.561,-5.266 z m 88.367,245.409 c -10.091,-5.029 -22.438,-14.509 -27.439,-21.066 -5.003,-6.559 -9.601,-12.544 -9.601,-12.544 -14.95,1.73 -23.061,-5.584 -8.017,-18.498 0,0 -3.545,-12.678 -3.058,-29.428 1.04,-35.865 5.132,-50.53 19.71,-70.653 19.633,-27.104 59.348,-35.863 90.226,-19.895 30.472,15.758 49.94,53.832 49.94,97.668 0,30.912 -4.74,45.434 -19.652,60.21 -25.388,25.155 -59.56,30.424 -92.109,14.206 z m 66.476,-19.897 c 16.982,-11.344 24.216,-27.883 24.158,-55.227 -0.05,-23.921 -3.494,-34.159 -10.112,-30.067 -6.575,4.063 -18.125,-1.627 -21.543,-10.612 -1.772,-4.661 -5.901,-8.476 -9.176,-8.476 -3.276,0 -8.785,-2.56 -12.242,-5.691 -5.841,-5.287 -7.052,-5.048 -17.048,3.366 -10.855,9.132 -21.106,9.226 -21.106,0.184 0,-7.189 -6.206,-5.954 -10.509,2.088 -2.057,3.839 -7.655,7.966 -12.445,9.166 -8.292,2.083 -9.245,3.94 -13.817,26.949 -0.679,3.426 0.264,11.671 2.102,18.32 3.012,10.912 3.804,11.298 3.804,11.298 12.305,-2.606 23.281,3.964 8.024,17.536 0,0 6.004,7.552 18.188,16.474 12.995,9.516 25.219,4.324 34.333,-14.586 4.392,-9.116 9.564,-14.894 13.327,-14.894 8.505,0 8.068,16.119 -0.835,30.72 l -6.957,11.413 h 9.961 c 5.48,0 15.331,-3.587 21.893,-7.971 z m -89.794,-58.585 c -6.24,-6.442 -1.93,-18.623 7.397,-17.708 3.622,0.355 4.919,2.891 4.15,9.385 -1.172,9.914 -6.417,13.62 -11.547,8.323 z m 23.602,-2.622 c -2.412,-0.896 -4.387,-5.446 -4.387,-10.112 0,-10.03 11.934,-12.024 15.552,-2.596 2.61,6.796 -4.692,15.107 -11.165,12.708 z m -244.306,77.37 c -3.497,-3.497 -2.828,-22.238 0.793,-22.238 3.805,0 7.399,8.672 7.399,17.843 0,6.747 -3.802,8.785 -8.192,4.395 z m 46.967,-9.761 c -3.102,-3.737 -3.157,-6.865 -0.211,-12.35 4.816,-8.998 10.602,-6.191 10.602,5.14 0,10.414 -4.898,13.814 -10.381,7.21 z m 41.977,-1.82 c 0,-9.258 13.303,-16.679 16.228,-9.05 3.189,8.307 -1.169,15.949 -9.095,15.949 -4.748,0 -7.133,-2.304 -7.133,-6.899 z" fill="#00B894" transform="translate(-62.975943,-32.489655) matrix(0.26458333,0,0,0.26458333,-9664.5033,-4019.1911)"/>
</svg>