<?xml version="1.0" ?><svg height="292.94437mm" viewBox="0 0 244.19092 292.94437" width="244.19092mm" xmlns="http://www.w3.org/2000/svg">
    <path d="m 38877.68,16929.954 c 11.976,-15.849 61.843,0.459 61.843,0.459 0,0 18.23,-26.135 27.505,-36.279 9.275,-10.144 4.579,-8.347 -5.283,-64.56 -9.863,-56.213 66.805,-235.312 220.962,-278.529 154.157,-43.216 352.341,-36.442 420.673,13.326 68.332,49.767 127.742,243.436 122.223,275.663 -5.518,32.228 5.753,88.652 5.753,88.652 0,0 36.045,8.136 28.883,43.85 -7.162,35.715 -6.46,190.667 -3.642,217.294 2.818,26.628 6.222,98.901 -72.206,97.95 -78.429,-0.951 -133.963,-27.155 -133.963,-27.155 0,0 9.158,212.911 5.518,221.365 -3.64,8.453 -31.466,48.499 -73.263,38.778 -41.797,-9.721 -55.417,-16.906 -75.493,-0.317 -20.077,16.589 -76.433,5.283 -90.288,6.128 -13.854,0.846 -21.955,20.076 -68.449,11.623 -46.493,-8.453 -65.279,-31.276 -86.999,-25.042 -21.721,6.234 -57.061,12.257 -68.567,-7.291 -11.506,-19.547 -29.704,-24.196 -29.704,-24.196 0,0 -37.453,5.494 -35.34,-23.775 2.113,-29.268 15.615,-201.5 15.615,-201.5 0,0 -89.851,17.008 -133.057,13.521 -43.206,-3.487 -56.473,-11.623 -50.251,-53.043 6.223,-41.42 26.3,-169.59 21.016,-206.995 -5.283,-37.405 -18.83,-54.825 -3.486,-79.927 z" fill="#FFFFFF" paint-order="markers stroke fill" transform="translate(108.46445,103.92556) matrix(0.26458333,0,0,0.26458333,-10389.704,-4455.3595)"/>
    <path d="m 42675.689,18884.188 v 0 c -25.262,-0.03 -48.965,1.682 -63.697,5.155 -21.901,5.164 -107.832,39.493 -142.641,56.986 -16.352,8.218 -79.432,49.972 -106.839,70.717 -22.364,16.929 -56.598,60.983 -72.545,93.353 -22.712,46.103 -30.996,82.7 -28.397,125.422 3.106,51.025 13.952,67.011 39.637,57.254 0,0 12.449,0.175 13.131,-31.005 0.59,-26.968 11.208,-57.695 16.963,-74.176 13.534,-38.755 33.599,-69.621 71.021,-84.792 56.153,-16.041 122.506,7.086 137.909,60.434 4.43,15.346 2.492,48.918 2.492,48.918 -0.738,6.879 -1.729,12.73 -3.039,16.014 -2.839,7.112 6.7,17.133 16.308,17.133 3.929,0 10.344,-4.07 14.254,-9.042 11.326,-14.399 22.405,-16.94 36.33,-8.332 l 11.836,7.317 11.488,-8.693 c 17.906,-13.548 36.3,-13.799 41.332,-0.565 1.835,4.83 4.65,8.783 6.254,8.783 7.52,0 27.27,-18.69 28.873,-27.322 2.576,-13.878 19.274,-15.531 25.215,-2.494 3.17,6.96 3.227,10.856 0.236,15.646 -3.026,4.845 -2.893,7.865 0.549,12.573 5.427,7.421 24.363,5.555 38.653,-3.809 8.448,-5.535 9.064,-7.775 9.064,-33.07 0,-26.643 8.622,-61.361 18.065,-72.739 3.094,-3.729 2.926,-7.003 -0.7,-13.779 -3.47,-6.488 -3.742,-10.48 -1.009,-14.801 2.576,-4.076 2.624,-8.368 0.156,-13.8 -2.809,-6.183 -2.208,-9.405 2.785,-14.922 3.502,-3.868 9.281,-7.037 12.844,-7.037 3.897,0 6.478,-2.516 6.478,-6.319 0,-8.524 6.781,-14.746 16.074,-14.746 4.203,0 9.61,-2.371 12.014,-5.267 5.601,-6.747 13.957,-6.692 23.734,0.158 6.035,4.229 9.357,4.56 15.063,1.506 5.709,-3.055 9.168,-2.7 15.736,1.603 4.629,3.033 11.304,5.512 14.83,5.512 3.526,0 11.958,6.032 18.733,13.402 6.776,7.368 15.006,14.43 18.289,15.688 3.281,1.259 5.967,5.556 5.967,9.545 0,3.992 2.507,11.081 5.57,15.755 3.051,4.677 4.508,10.22 3.209,12.321 -1.298,2.099 -0.554,5.996 1.656,8.658 4.755,5.73 2.882,31.158 -2.801,38.004 -2.791,3.366 -2.953,8.369 -0.541,16.785 4.943,17.232 4.246,37.893 -1.984,58.877 -5.377,18.389 -3.451,25.423 17.693,33.752 11.599,5.675 25.42,16.466 34.299,26.775 16.358,18.997 24.405,21.355 32.026,9.379 13.943,-21.919 18.217,-101.352 7.752,-144.156 -9.153,-37.45 -28.597,-88.89 -40.76,-107.844 -12.598,-19.631 -61.575,-67.279 -92.987,-90.465 -42.598,-31.436 -110.199,-58.281 -173.537,-68.914 -20.965,-3.524 -47.784,-5.307 -73.045,-5.339 z m 75.024,127.628 c 1.356,0.04 2.64,1.245 4.629,3.641 3.624,4.351 3.652,6.5 0.158,10.711 h -0.01 c -2.405,2.896 -5.808,5.266 -7.562,5.266 -5.933,0 -7.48,-11.041 -2.274,-16.246 2.276,-2.278 3.704,-3.41 5.059,-3.372 z m -88.217,15.207 c 1.934,-0.145 3.849,1.588 4.561,5.288 0.74,3.845 -0.981,6.146 -4.598,6.146 -3.372,0 -5.308,-2.272 -4.647,-5.453 0.795,-3.813 2.749,-5.836 4.684,-5.981 z m 199.18,19.235 c -2.105,0.107 -3.956,0.939 -5.854,2.515 -2.87,2.391 -6.802,3.351 -8.74,2.155 -4.347,-2.688 -17.85,5.354 -17.85,10.631 0,2.122 -3.628,6.532 -10.166,5.681 -6.928,-0.902 -14.139,9.731 -7.269,13.252 4.331,2.22 5.225,9.127 1.373,9.549 -8.336,0.914 -9.095,16.431 -0.104,21.107 4.47,2.325 0.484,10.811 -2.781,15.801 -8.798,13.445 -16.539,48.943 -15.539,71.258 0.519,11.586 3.863,19.924 3.863,19.924 -15.042,15.299 -11.84,26.846 7.051,19.113 0,0 5.766,6.709 10.77,13.266 5.003,6.559 17.349,16.039 27.437,21.066 33.032,16.461 68.405,10.643 92.863,-15.271 17.509,-18.549 23.246,-49.153 15.491,-82.606 -2.491,-10.738 -2.072,-15.262 1.799,-19.541 2.77,-3.06 6.003,-10.397 7.183,-16.301 1.672,-8.355 0.564,-11.846 -4.992,-15.738 -4.577,-3.205 -6.12,-6.651 -4.303,-9.592 4.182,-6.77 -3.807,-29.216 -11.074,-31.117 -3.45,-0.901 -6.272,-4.615 -6.272,-8.254 0,-3.636 -2.314,-6.613 -5.142,-6.613 -2.828,0 -6.889,-3.256 -9.02,-7.24 -2.533,-4.732 -6.66,-6.876 -11.921,-6.186 -4.427,0.579 -10.558,-1.028 -13.62,-3.572 -3.874,-3.212 -7.432,-3.58 -11.677,-1.205 -4.008,2.246 -8.852,2.164 -14.121,-0.238 -2.919,-1.33 -5.28,-1.949 -7.385,-1.842 z m -316.729,21.129 c 4.162,0.119 8.062,4.994 5.348,9.384 -1.298,2.099 -3.751,3.819 -5.455,3.819 -5.422,0 -7.957,-7.491 -3.908,-11.541 1.211,-1.211 2.627,-1.702 4.015,-1.662 z m 89.887,20.222 c 3.077,0 4.841,2.469 4.182,5.856 -1.366,7.051 -8.377,10.002 -11.553,4.865 -3.089,-4.996 0.847,-10.721 7.371,-10.721 z m 99.602,0 c 4.682,0 7.021,2.342 7.021,7.024 0,4.682 -2.339,7.025 -7.021,7.025 -4.682,0 -7.024,-2.343 -7.024,-7.025 0,-4.682 2.342,-7.024 7.024,-7.024 z m -72.411,14.612 v 0 c 0.953,-0.106 1.974,-0.09 3.053,0.06 5.801,0.824 7.914,3.468 7.914,9.905 0,6.433 -2.113,9.075 -7.914,9.9 -4.748,0.674 -8.764,-1.084 -10.033,-4.391 -3.057,-7.973 0.309,-14.731 6.98,-15.476 z m -236.617,6.931 v 0 c -13.346,-0.279 -17.45,1.985 -31.64,10.606 -25.793,15.668 -38.859,36.206 -54.627,85.838 -11.992,37.745 -16.671,72.881 -11.807,88.654 0.914,2.965 -3.045,6.387 -10.326,8.928 -16.524,5.764 -37.34,24.137 -48.041,42.396 l -9.065,15.467 -11.189,-6.822 c -16.766,-10.223 -35.051,-8.952 -48.873,3.396 -26.092,23.311 -6.42,65.208 -11.545,97.432 -0.07,76.246 -1.116,92.915 -8.375,132.83 -10.291,56.578 -10.89,99.204 -1.574,111.939 3.582,4.895 10.673,10.399 15.763,12.231 l 9.252,3.338 2.596,82.963 c 1.424,45.632 1.838,90.773 0.922,100.316 -1.277,13.306 -0.293,18.593 4.23,22.688 7.097,6.42 14.728,6.842 20.442,1.125 7.281,-7.28 4.088,-130.206 -4.838,-186.258 l -2.098,-13.166 h 17.61 c 25.764,0 69.823,-6.677 90.97,-13.784 l 18.434,-6.193 c 0.6,35.639 -2.49,73.452 -5.44,104.516 -3.05,31.744 -4.848,68.666 -4,82.051 1.337,21.074 2.816,25.431 11.008,32.478 6.757,5.809 13.826,8.139 24.717,8.139 13.709,0 15.992,1.244 22.488,12.256 14.254,24.158 42.289,34.237 69.461,24.978 24.274,-8.271 34.788,-7.033 57.063,6.715 11.005,6.794 27.043,13.705 35.638,15.359 v 0.01 c 20.648,3.976 41.494,1.235 53.231,-6.994 11.62,-8.15 25.658,-8.488 43.459,-1.051 9.319,3.894 20.753,5.206 37.213,4.277 20.964,-1.185 25.114,-2.642 35.252,-12.398 16.342,-15.724 26.952,-17.352 52.013,-7.98 28.271,10.572 42.537,8.218 75.774,-12.498 33.405,-20.818 37.196,-28.195 30.209,-58.772 -3.149,-13.791 -5.661,-52.08 -6.82,-104 l -1.833,-82.178 11.829,7.287 c 17.954,11.057 73.323,25.401 98.058,25.401 h 21.653 l -2.11,14.922 c -1.886,13.348 -7.612,102.973 -9.814,153.566 -0.766,17.643 -0.04,19.709 8.564,24.541 8.495,4.769 9.971,4.706 15.34,-0.664 4.84,-4.84 6.129,-14.27 6.953,-50.875 0.556,-24.716 2.075,-67.054 3.379,-94.09 l 2.369,-49.154 14.274,-10.535 c 18.402,-13.58 26.674,-28.116 34.363,-60.379 5.48,-23.012 5.971,-37.822 4.146,-125.057 -1.453,-69.536 -0.822,-106.088 2.122,-122.949 3.862,-22.117 3.601,-25.29 -3.327,-40.621 -9.582,-21.205 -17.703,-26.185 -43.396,-26.606 l -20.758,-0.339 -6.76,-20.93 c -11.631,-36.029 -27.347,-51.819 -55.105,-53.674 v 0 c -3.965,-0.266 -8.176,-0.248 -12.656,0.04 -25.798,1.641 -46.886,13.999 -55.741,32.658 -5.896,12.426 -7.337,77.21 -2.498,112.403 2.363,17.185 2.516,17.372 7.28,8.832 3.07,-5.509 5.777,-26.849 7.341,-57.932 1.364,-27.064 3.619,-51.901 5.016,-55.193 6.334,-14.93 51.631,-25.932 68.842,-16.721 16.295,8.721 32.767,62.464 38.879,126.836 5.227,55.054 -0.242,118.528 -13.659,158.535 l -9.642,28.748 -21.066,5.61 c -11.587,3.086 -26.77,6.671 -33.741,7.966 l -12.674,2.358 -2.369,-23.123 c -2.802,-27.354 -10.564,-49.079 -21.961,-61.469 -4.853,-5.274 -8.252,-13.328 -8.252,-19.551 0,-20.057 -10.017,-44.84 -23.953,-59.254 -15.552,-16.087 -36.794,-29.841 -46.082,-29.841 -3.491,0 -8.764,-3.556 -11.711,-7.901 -4.603,-6.786 -6.369,-7.296 -12.515,-3.607 -5.751,3.45 -9.591,3.275 -19.534,-0.877 -6.807,-2.844 -21.576,-5.172 -32.82,-5.172 h -20.445 l 0.03,-25.455 c 0.02,-20.984 -1.996,-30.191 -11.494,-52.424 -6.335,-14.833 -13.786,-28.849 -16.559,-31.15 -2.77,-2.302 -5.041,-7.095 -5.041,-10.653 0,-11.297 -13.537,-15.286 -50.908,-14.996 -37.421,0.289 -53.437,4.362 -56.494,14.371 -1.04,3.41 -7.717,18.048 -14.834,32.531 -12.079,24.585 -12.937,28.488 -12.937,58.807 v 32.479 l -9.182,1.541 v -0.06 l -3.189,0.535 c -21.174,3.554 -25.172,5.371 -23.186,10.543 2.243,5.846 -2.69,6.382 -12.156,1.315 -8.137,-4.355 -20.834,1.145 -20.834,9.023 0,2.831 3.16,5.147 7.021,5.147 4.408,0 7.022,2.337 7.022,6.279 0,4.492 -2.654,6.251 -9.311,6.146 -5.121,-0.08 -9.994,1.835 -10.826,4.25 -0.832,2.415 1.083,4.391 4.256,4.391 3.17,0 4.788,1.58 3.592,3.51 -1.193,1.93 -6.156,3.51 -11.031,3.51 -5.532,0 -8.311,1.649 -7.397,4.388 0.977,2.931 10.42,4.586 28.418,4.979 28.474,0.618 37.408,-3.267 37.408,-16.264 0,-8.319 7.479,-11.043 15.071,-5.49 15.602,11.408 1.518,22.343 -38.1,29.572 -37.287,6.801 -68.708,4.063 -54.449,-4.748 1.799,-1.114 5.296,-11.07 7.771,-22.127 3.468,-15.5 7.544,-23.003 17.793,-32.754 14.104,-13.414 16.407,-21.982 8.344,-31.012 -7.942,-8.892 -8.836,-32.606 -1.195,-31.613 15.571,2.022 20.003,-0.578 24.06,-14.121 3.231,-10.786 6.104,-14.094 12.953,-14.924 4.84,-0.584 10.433,-3.667 12.426,-6.851 5.838,-9.327 -4.806,-21.286 -30.588,-34.373 -19.478,-9.888 -24.961,-11.269 -34.219,-8.612 -12.087,3.465 -25.108,22.822 -21.566,32.055 1.501,3.907 3.851,1.899 8.586,-7.328 8.692,-16.942 20.632,-19.873 39.51,-9.703 29.977,16.152 34.306,24.876 10.996,22.156 -8.595,-1.003 -12.553,-2.417 -12.633,-6.377 -0.1,-5.101 -7.667,-6.623 -8.883,-0.34 -0.94,4.852 -10.799,4.091 -12.404,1.242 1.125,-7.107 -5.824,-12.671 -10.754,0.241 -5.266,2.399 -5.984,5.947 -4.934,7.648 1.051,1.701 0.165,8.11 -1.974,14.238 -3.407,9.777 -2.908,12.184 4.068,19.612 6.593,7.018 7.192,9.386 3.5,13.836 -2.451,2.952 -7.976,5.369 -12.279,5.369 -15.807,0 -38.443,21.434 -45.25,42.851 -1.643,5.169 -25.772,20.348 -32.348,20.348 -1.271,0 -1.198,-7.506 0.158,-16.678 1.723,-11.665 5.531,-19.702 12.67,-26.732 10.989,-10.823 20.776,-38.096 20.776,-57.887 0,-7.086 -4.39,-20.021 -10.42,-30.709 l -10.422,-18.463 25.342,0.211 c 17.019,0.145 29.957,-1.827 39.386,-5.998 7.726,-3.418 19.125,-10.803 19.125,-10.803 10.052,7.024 21.01,1.776 16.063,-9.869 0,0 3.395,-5.391 8.762,-11.508 23.554,-26.864 32.792,-87.612 17.205,-113.179 -15.981,-26.211 -39.183,-37.969 -80.836,-40.955 -7.218,-0.518 -12.695,-0.893 -17.143,-0.987 z m 19.444,20.537 c 6.659,0 12.109,1.48 12.109,3.286 0,1.806 -11.923,14.05 -26.496,27.211 -14.572,13.159 -29.555,28.664 -33.295,34.457 -12.005,18.591 -7.367,1.954 5.707,-20.473 21.983,-37.716 28.364,-44.481 41.975,-44.481 z m -25.206,1.807 c 0.914,-0.162 1.513,-0.159 1.709,0.04 0.788,0.787 -3.279,6.792 -9.033,13.346 -5.753,6.554 -15.651,20.99 -22,32.084 -6.346,11.091 -15.19,30.625 -19.656,43.406 -9.093,26.022 -14.527,23.134 -10.84,-5.764 5.069,-39.733 20.963,-66.979 45.479,-77.955 6.029,-2.7 11.601,-4.669 14.341,-5.154 z m 47.657,2.512 c 2.033,-0.443 4.732,0.12 8.914,1.515 5.582,1.859 10.703,5.043 11.377,7.073 0.677,2.03 -9.769,10.226 -23.215,18.215 -33.179,19.71 -36.436,19.159 -17.074,-2.887 6.275,-7.144 13.064,-15.871 15.086,-19.389 1.513,-2.635 2.88,-4.084 4.912,-4.527 z m 382.56,11.537 v 0 c 13.037,0.971 19.792,3.793 28.824,12.043 6.488,5.927 12.917,10.775 14.284,10.775 1.366,0 2.987,3.554 3.603,7.899 0.617,4.345 4.433,9.353 8.481,11.131 4.044,1.777 9.068,7.307 11.164,12.289 2.093,4.98 6.565,13.258 9.939,18.39 5.809,8.85 5.812,9.805 0.05,18.598 -3.339,5.098 -11.122,12.35 -17.291,16.113 v 0.01 c -6.172,3.763 -15.541,6.853 -20.824,6.853 h -9.604 l 6.957,-11.412 c 8.903,-14.602 9.341,-30.718 0.836,-30.718 -3.763,0 -8.936,5.776 -13.328,14.89 -9.114,18.912 -21.337,24.105 -34.332,14.588 -12.184,-8.921 -17.541,-17.699 -17.541,-17.699 7.769,-8.569 5.791,-19.015 -6.627,-17.008 0,0 -2.842,0.296 -5.76,-10.277 -1.872,-6.778 -1.993,-18.264 -0.287,-27.096 1.628,-8.432 3.033,-16.403 3.113,-17.709 0.395,-6.118 22.498,-12.842 38.34,-11.662 z m -348.629,5.211 v 0 c 0.661,0 3.805,5.039 6.989,11.195 10.746,20.782 2.11,62.775 -17.76,86.34 -7.518,8.919 -8.859,9.701 -8.859,9.701 -7.994,-6.523 -20.1,-0.732 -13.239,10.799 0,0 -2.797,2.377 -9.394,5.381 -11.367,5.18 -20.963,-2.416 -26.709,-21.141 -2.151,-7.007 -4.597,-14.894 -5.44,-17.525 -1.264,-3.96 -2.495,-3.998 -7.056,-0.211 -5.706,4.724 -5.637,26.277 0.109,39.217 h 0.01 c 2.265,5.103 1.025,6.064 -7.301,5.666 -16.097,-0.766 -23.555,-2.951 -32.01,-9.374 -7.531,-5.722 -7.74,-7.102 -4.119,-27.054 5.935,-32.708 11.341,-37.882 57.049,-54.606 11.228,-4.111 30.795,-14.43 43.476,-22.933 12.679,-8.503 23.596,-15.463 24.254,-15.463 z m 176.666,3.65 c 6.525,-0.275 12,5.553 9.61,15.067 -2.923,11.654 -10.733,13.971 -18.43,5.468 -4.829,-5.335 -5.44,-8.393 -2.586,-12.927 3.199,-5.082 7.491,-7.444 11.406,-7.608 z m -59.027,8.746 c 0.856,-0.09 1.691,-0.07 2.488,0.05 4.782,0.752 8.242,5.245 7.172,10.807 -1.303,6.762 -10.168,10.533 -14.523,6.178 -4.15,-4.151 -2.734,-14.48 2.246,-16.389 0.884,-0.34 1.761,-0.551 2.617,-0.647 z m 118.307,6.133 c 1.758,-0.103 3.58,0.489 5.152,2.061 3.113,3.112 2.796,5.384 -1.328,9.508 -4.656,4.655 -5.998,4.716 -9.547,0.439 -4.263,-5.134 0.448,-11.699 5.723,-12.008 z m 109.006,2.481 c -3.436,0.573 -6.42,3.577 -6.42,8.593 0,4.668 1.973,9.219 4.388,10.114 6.47,2.399 13.773,-5.911 11.164,-12.707 -1.808,-4.714 -5.696,-6.573 -9.132,-6 z m -18.239,3.621 c -5.919,0 -10.928,11.994 -7.396,17.709 3.876,6.272 10.375,1.591 11.549,-8.326 0.766,-6.491 -0.511,-9.383 -4.153,-9.383 z m -338.017,19.881 c -1.499,0.04 -2.979,0.633 -4.262,1.916 -4.473,4.473 -5.575,17.667 -1.789,21.451 5.378,5.38 15.213,-2.363 15.213,-11.977 0,-6.564 -4.664,-11.499 -9.162,-11.39 z m -26.588,1.843 c -6.886,-1.327 -14.87,11.467 -11.934,19.119 1.169,3.047 5.322,4.77 9.928,4.114 6.196,-0.879 7.914,-3.403 7.914,-11.608 0,-7.034 -1.945,-10.861 -5.908,-11.625 z m 188.728,43.305 c -1.722,0.229 -3.661,1.943 -5.466,5.316 -2.947,5.485 -2.893,8.61 0.208,12.346 h 0.01 c 5.482,6.607 10.379,3.208 10.379,-7.207 0,-7.081 -2.26,-10.832 -5.129,-10.455 z m 49.178,3.688 c -4.975,-0.696 -12.455,5.215 -12.455,12.158 0,4.593 2.383,6.9 7.131,6.9 7.926,0 12.285,-7.642 9.096,-15.953 -0.731,-1.906 -2.114,-2.873 -3.772,-3.105 z m -100.609,1.501 c -3.618,0 -4.29,18.742 -0.793,22.239 4.39,4.39 8.193,2.352 8.193,-4.395 0,-9.174 -3.595,-17.844 -7.4,-17.844 z m -259.543,13.993 c 1.933,0 3.513,4.54 3.513,10.091 0,5.554 0.986,15.035 2.192,21.067 2.523,12.611 -3.715,15.345 -7.004,3.074 -3.365,-12.565 -2.543,-34.232 1.299,-34.232 z m 445.509,12.607 c -8.225,0.75 -17.284,4.114 -25.193,10.346 -27.692,21.819 -33.174,43.572 -13.109,52.017 5.33,2.243 13.952,9.141 19.158,15.332 8.198,9.743 10.654,10.805 18.293,7.901 4.853,-1.846 9.567,-3.354 10.476,-3.354 3.141,0 15.446,32.209 15.446,40.43 0,5.167 2.626,9.082 7.023,10.478 3.863,1.227 7.022,4.933 7.022,8.235 0,8.419 13.509,19.06 21.533,16.961 7.125,-1.864 7.763,-1.154 30.986,34.492 19.642,30.151 51.999,68.349 60.957,71.957 30.944,12.451 39.51,-37.452 38.729,-66.301 -0.426,-29.761 -2.957,-45.79 -13.737,-87.013 -14.209,-54.322 -18.294,-63.242 -27.365,-59.764 -7.763,2.981 -7.277,13.3 3.074,65.633 8.869,44.829 12.284,119.377 5.469,119.377 -4.134,0 -30.278,-30.749 -49.006,-57.637 -9.967,-14.315 -14.463,-24.446 -14.463,-32.59 0,-27.244 -24.272,-55.391 -45.814,-53.131 -13.998,1.469 -28.926,-15.607 -23.689,-27.099 2.381,-5.224 1.846,-11.097 -1.801,-19.829 -3.204,-7.671 -4.008,-14.26 -2.104,-17.267 1.693,-2.675 3.103,-8.226 3.133,-12.336 0.09,-12.08 -11.309,-18.087 -25.018,-16.838 z m -431.683,4.945 c 1.401,0 4.265,7.505 6.363,16.674 3.721,16.261 3.579,22.138 -0.379,15.731 -3.655,-5.911 -8.546,-32.405 -5.984,-32.405 z m 431.631,2.151 c 2.853,-0.213 5.474,0.293 7.814,1.545 9.106,4.875 6.757,12.443 -3.502,11.279 -6.346,-0.719 -7.338,0.42 -5.476,6.285 1.967,6.198 1.116,6.867 -6.352,4.992 -7.752,-1.946 -8.447,-1.252 -6.891,6.885 1.841,9.641 -3.988,12.628 -7.382,3.785 -1.111,-2.896 -4.332,-5.267 -7.155,-5.267 -2.822,0 -5.637,3.311 -6.254,7.355 -0.616,4.045 -2.306,6.15 -3.755,4.68 -4.41,-4.479 -3.082,-7.768 8.423,-20.871 11.332,-12.908 21.971,-20.028 30.53,-20.668 z m -140.354,15.761 c 6.567,-0.205 12.748,-0.214 17.668,0.01 6.56,0.304 10.879,1.029 10.879,2.285 0,1.88 -9.712,4.436 -21.58,5.676 -36.128,3.776 -57.763,2.952 -52.799,-2.012 2.97,-2.97 26.133,-5.345 45.832,-5.963 z m 34.76,18.223 c 5.902,-0.483 8.398,0.48 9.137,3.11 0.727,2.584 5.641,17.713 10.92,33.623 12.577,37.903 12.49,62.776 -0.381,107.125 -1.254,4.321 -5.38,6.144 -13.901,6.144 -11.537,0 -11.99,-0.464 -9.42,-9.654 3.842,-13.735 1.991,-49.803 -2.851,-55.641 -2.247,-2.707 -7.843,-4.924 -12.436,-4.924 -10.204,0 -10.809,-7.217 -1.324,-15.798 8.271,-7.487 8.988,-19.369 1.986,-32.909 -10.393,-20.103 -14.163,-20.292 -33.46,-1.67 -20.713,19.987 -22.657,30.067 -7.321,37.998 5.698,2.947 12.808,5.356 15.799,5.356 10.589,0 5.254,6.803 -8.168,10.418 -11.276,3.037 -13.985,5.54 -15.799,14.617 -4.284,22.234 1.891,31.423 2.93,51.975 l 0.18,2.002 c 0.245,2.719 -1.726,1.728 -8.036,1.728 -8.884,0 -11.409,-2.534 -19.98,-20.037 -14.234,-29.071 -15.384,-55.339 -3.877,-88.545 4.972,-14.338 9.037,-30.638 9.037,-36.223 0,-8.753 1.028,-9.827 7.453,-7.789 9.994,3.187 53.879,3.208 72.414,0.05 2.785,-0.475 5.131,-0.796 7.098,-0.957 z m -355.611,9.51 v 0 c 12.425,0 16.675,1.842 23.814,10.328 13.14,15.615 18.265,41.922 13.648,70.055 -2.091,12.756 -4.789,32.305 -5.998,43.441 -2.028,18.723 -3.059,20.613 -13.65,25.037 -28.252,11.805 -26.65,12.987 -26.65,-19.594 0,-16.062 1.813,-42.189 4.031,-58.062 3.252,-23.262 3.136,-29.939 -0.574,-34.41 -7.357,-8.866 -12.392,-0.177 -20.389,35.18 -11.102,49.084 -12.858,81.689 -5.182,96.291 9.445,17.969 14.983,20.081 38.635,14.738 11.194,-2.528 23.511,-5.254 27.373,-6.057 3.861,-0.801 9.888,0.781 13.391,3.514 9.959,7.774 2.018,31.059 -18.121,53.133 -9.329,10.228 -19.124,25.72 -22.832,36.111 -3.574,10.009 -7.525,18.032 -8.778,17.822 -1.254,-0.208 -17.179,-2.546 -35.388,-5.195 -18.211,-2.652 -34.617,-6.329 -36.461,-8.17 -1.84,-1.843 -4.094,-25.179 -5.006,-51.859 -1.461,-42.851 -0.57,-53.709 7.627,-93.108 13.886,-66.732 24.126,-93.589 44.555,-116.857 9.239,-10.522 13.055,-12.338 25.953,-12.338 z m 454.468,4.535 v 0 c 3.566,0.408 7.15,5.576 7.229,11.988 0.1,7.821 -6.601,8.331 -10.627,0.805 -2.992,-5.591 -3.002,-8.51 -0.03,-11.48 1.053,-1.054 2.239,-1.447 3.427,-1.313 z m -395.939,10.469 c 0.685,-0.35 2.497,0.474 5.842,2.265 6.002,3.213 7.554,7.268 7.554,19.721 0,19.046 -5.376,20.74 -7.97,2.51 -1.029,-7.241 -3.058,-16.116 -4.506,-19.721 -1.166,-2.902 -1.606,-4.425 -0.92,-4.775 z m 102.562,3.805 v 0 c 3.625,-0.615 5.76,4.848 3.51,10.718 -1.179,3.07 -3.554,5.582 -5.279,5.582 -4.158,0 -4.045,-13.065 0.131,-15.648 0.57,-0.352 1.118,-0.564 1.636,-0.652 z m 19.184,2.787 c 1.322,-0.163 2.719,0.293 4.014,1.589 2.359,2.36 1.862,5.786 -1.504,10.358 -4.792,6.515 -5.145,6.536 -7.502,0.453 -2.261,-5.836 1.024,-11.912 4.992,-12.4 z m 139.123,2.951 c 4.106,-0.309 5.424,4.449 5.424,15.117 0,5.783 -0.937,6.499 -4.213,3.223 -2.317,-2.317 -5.528,-4.213 -7.137,-4.213 -1.606,0 -4.054,2.917 -5.439,6.482 -1.388,3.566 -4.495,5.802 -6.91,4.973 -7.697,-2.644 -4.746,-10.35 7.554,-19.735 4.788,-3.652 8.257,-5.661 10.721,-5.847 z m -420.422,17.668 h 0.01 c 7.46,-0.409 15.23,1.11 20.176,4.728 6.378,4.66 6.244,6.186 -4.36,50.032 -20.265,83.807 -20.784,91.696 -12.326,188.052 2.933,33.416 8.238,44.066 28.983,58.186 18.101,12.318 37.043,15.967 69.369,13.365 24.979,-2.009 28.965,-1.569 28.965,3.186 0,4.037 -2.212,4.961 -8.258,3.445 -4.54,-1.14 -20.365,0.429 -35.166,3.486 -52.12,10.768 -102.585,9.777 -117.205,-2.293 -6.396,-5.283 -5.357,-22.871 4.736,-80.008 12.374,-70.045 14.858,-140.964 6.682,-190.804 -5.919,-36.036 -5.914,-37.914 0.08,-44.539 3.704,-4.091 10.853,-6.428 18.314,-6.836 z m 820.18,10.299 c 8.403,0.753 19.18,3.829 24.545,8.125 9.651,7.726 9.739,8.127 4.549,20.548 -8.877,21.232 -13.034,71.054 -13.034,155.811 0,104.662 -5.89,136.237 -27.546,147.436 -20.855,10.786 -88.085,8.766 -137.077,-4.118 -10.557,-2.776 -12.449,-4.876 -13.425,-14.914 -0.983,-10.12 -0.276,-11.334 5.267,-9.072 25.598,10.438 49.125,10.285 83.086,-0.535 18.733,-5.97 37.71,-23.933 40.934,-31.971 8.208,-20.463 24.892,-67.221 30.828,-130.666 3.562,-38.077 -0.175,-66.388 -4.131,-94.654 -3.096,-22.13 -5.631,-41.485 -5.631,-43.012 0,-1.569 1.667,-2.508 4.313,-2.916 1.985,-0.306 4.521,-0.314 7.322,-0.06 z m -383.316,31.802 c 2.847,0 3.188,5.8 1.187,20.19 -1.541,11.102 -2.77,24.531 -2.74,29.842 0.06,9.022 -0.917,9.656 -14.781,9.656 h -14.844 l -2.457,-24.938 c -1.351,-13.714 -3.305,-27.142 -4.34,-29.841 -1.398,-3.645 1.151,-4.802 9.904,-4.5 6.483,0.224 9.021,1.131 5.643,2.013 -9.045,2.365 -7.476,11.155 2.433,13.641 10.673,2.678 16,-0.4 16,-9.248 0,-3.747 1.795,-6.815 3.995,-6.815 z m 67.25,24.53 c 9.291,-0.441 41.105,4.695 41.105,7.164 0,1.606 -8.584,5.414 -19.08,8.466 -19.963,5.803 -33.584,18.295 -33.584,30.803 0,12.071 18.104,26.178 39.836,31.041 25.677,5.749 69.508,-0.275 94.613,-12.996 9.472,-4.8 18.135,-7.815 19.252,-6.699 5.356,5.356 -46.851,34.745 -74.703,42.047 -36.149,9.48 -147.344,14.137 -244.014,10.222 -80.58,-3.266 -87.453,-4.071 -108.672,-12.732 -12.458,-5.088 -23.299,-8.601 -24.089,-7.811 -2.941,2.941 19.183,20.601 34.451,27.497 13.69,6.183 27.294,7.571 101.82,10.388 92.396,3.495 189.254,-0.485 232.156,-9.533 25.79,-5.44 59.162,-20.987 76.676,-35.725 l 11.443,-9.628 -1.656,29.601 c -0.909,16.285 -4.203,45.402 -7.318,64.715 -9.364,58.061 -12.469,130.695 -9.153,214.172 1.685,42.482 4.492,82.979 6.235,89.994 2.726,10.968 1.972,14.279 -5.401,23.699 -12.4,15.844 -36.823,29.214 -50.898,27.86 l -11.58,-1.114 -4.1,-45.642 c -2.254,-25.103 -4.348,-68.552 -4.648,-96.555 -0.303,-27.999 -1.926,-58.017 -3.608,-66.707 -1.933,-9.988 -2.702,24.239 -2.091,93.041 l 0.97,108.844 -23.105,0.236 c -12.708,0.127 -26.501,1.456 -30.654,2.949 -7.281,2.622 -7.654,1.496 -10.532,-31.83 -1.643,-19.002 -2.813,-81.947 -2.576,-139.879 0.223,-57.932 3.791,-116.056 -2.215,-96.554 -10.382,33.713 -13.861,168.341 -6.474,231.726 6.504,55.823 8.067,50.977 -16.299,50.467 -11.586,-0.243 -28.175,-1.587 -36.865,-2.988 l -15.799,-2.547 -0.326,-58.453 c -0.179,-32.149 -0.935,-99.533 -1.68,-149.741 -0.748,-50.209 -0.107,-97.367 1.426,-104.798 1.717,-8.334 1.51,-12.724 -0.539,-11.457 -8.187,5.059 -12.92,62.335 -13.051,158.388 -0.08,54.069 -0.481,114.584 -0.889,134.475 l -0.74,36.168 -12.176,5.088 v -0.01 c -26.386,11.025 -58.941,4.002 -84.054,-18.133 l -10.209,-8.998 2.275,-88.342 c 1.253,-48.592 3.056,-100.985 4.004,-116.431 1.264,-20.545 0.883,-24.834 -1.424,-15.965 -4.065,15.644 -10.114,92.112 -12.871,162.742 l -2.166,55.492 -11.033,-1.072 c -9.422,-0.916 -10.903,-2.353 -10.166,-9.85 2.366,-23.984 4.896,-253.707 2.316,-276.232 -4.622,-40.289 -6.167,-13.368 -8.832,12.906 -1.245,20.276 -2.419,55.825 -2.629,78.998 -0.2,23.173 -2.307,77.41 -4.679,120.524 -3.899,70.84 -4.959,78.735 -10.971,81.953 -9.44,5.053 -28.531,0.602 -40.457,-9.434 -13.635,-11.473 -14.413,-19.425 -14.94,-152.666 -0.429,-109.083 -3.033,-142.685 -8.379,-108.207 -1.403,9.04 -4.363,65.129 -6.578,124.643 l -4.025,108.205 -11.795,-0.559 c -6.486,-0.308 -13.14,-1.905 -14.789,-3.555 -1.648,-1.648 0.82,-25.13 5.508,-52.339 6.73,-45.797 12.094,-87.974 13.84,-128.194 1.11,-21.571 1.865,-43.511 1.865,-66.539 0,-49.734 7.783,-123.661 16.16,-153.517 1.64,-5.848 0.743,-7.899 -3.459,-7.899 -11.6,0 -5.034,-7.244 16.266,-17.949 12.068,-6.067 26.38,-14.161 31.802,-17.99 12.466,-8.803 14.756,-6.467 9.442,9.635 -2.32,7.031 -3.486,16.62 -2.59,21.302 1.917,10.028 1.755,10.071 -11.498,3.219 -6.657,-3.442 -9.534,-7.128 -8.225,-10.533 2.62,-6.82 -7.009,-6.927 -12.646,-0.131 -6.383,7.687 -1.28,18.195 13.205,27.203 11.661,7.25 17.114,8.057 53.367,7.846 60.909,-0.342 94.797,-14.004 94.797,-38.217 0,-12.702 -4.215,-17.765 -17.576,-21.125 -4.819,-1.208 -10.586,-6.075 -12.817,-10.814 -2.806,-5.953 -3.327,-7.779 0.619,-8.342 l 0.11,0.103 c 1.482,-0.223 3.468,-0.31 6.394,-0.31 9.643,0 12.224,2.173 19.86,16.675 7.51,14.261 11.314,17.534 26.334,22.661 21.506,7.339 73.976,8.181 96.55,1.547 15.102,-4.434 16.098,-5.559 22.497,-25.401 3.681,-11.418 7.138,-21.321 7.683,-22.008 0.25,-0.314 1.118,-0.491 2.446,-0.554 z m 76.656,7.211 c 1.885,0.468 3.072,2.845 3.072,6.88 0,5.064 2.34,7.022 8.402,7.022 9.235,0 15.007,9.593 9.235,15.367 -2.538,2.536 -5.323,1.282 -9.092,-4.098 -3.51,-5.016 -9.085,-7.757 -15.766,-7.757 -11.586,0 -13.45,5.638 -4.189,12.666 6.929,5.262 5.33,5.409 -18.432,1.701 -13.612,-2.122 -13.797,-2.329 -5.963,-6.742 5.332,-3.005 7.722,-7.17 7.024,-12.233 -0.864,-6.239 0.69,-7.681 8.281,-7.681 5.138,0 10.535,-1.185 11.994,-2.633 1.188,-1.18 2.314,-1.943 3.334,-2.313 0.765,-0.278 1.471,-0.335 2.1,-0.179 z m -276.156,10.339 c 2.896,0 5.265,1.58 5.265,3.51 0,1.933 -2.369,3.514 -5.265,3.514 -2.898,0 -5.268,-1.581 -5.268,-3.514 0,-1.93 2.371,-3.51 5.268,-3.51 z m 227.078,3.579 c 1.251,0 2.041,5.032 1.757,11.199 -0.401,8.697 1.451,12.23 8.26,15.748 18.631,9.627 70.608,2.325 78.045,-10.963 1.68,-3.007 5.349,-5.465 8.151,-5.465 9.451,0 5.178,9.906 -7.704,17.869 -10.619,6.565 -18.819,8.093 -48.275,9.006 -42.206,1.309 -65.326,-5.266 -65.326,-18.58 0,-4.345 19.254,-18.784 25.092,-18.814 z m -235.442,17.488 c 3.86,0 6.046,1.58 4.85,3.51 -1.192,1.933 -5.329,3.513 -9.19,3.513 -3.863,0 -6.046,-1.58 -4.853,-3.513 1.193,-1.93 5.33,-3.51 9.193,-3.51 z m 370.365,86.289 4.247,10.428 c 4.84,11.884 11.287,44.188 11.287,56.546 0,6.878 -1.8,8.297 -10.532,8.297 h -10.533 l 0.35,-28.966 c 0.192,-15.931 1.437,-32.865 2.767,-37.633 z m -527.291,2.457 c 0.289,-0.14 0.526,-0.129 0.707,0.05 0.803,0.803 -1.272,15.913 -4.611,33.574 -5.148,27.238 -7.093,32.113 -12.82,32.113 -5.867,0 -6.5,-1.867 -4.836,-14.262 1.749,-13.051 17.238,-49.381 21.56,-51.478 z m -127.287,52.355 16.381,7.362 c 11.855,5.327 24.038,7.444 44.106,7.681 25.124,0.29 27.992,1.037 30.554,7.965 1.699,4.59 7.452,8.844 14.407,10.645 6.367,1.651 11.576,4.48 11.576,6.289 0,1.809 -15.8,3.649 -35.11,4.088 -29.021,0.661 -37.492,-0.4 -48.849,-6.119 -18.096,-9.111 -25.453,-16.078 -29.627,-28.049 z m 652.641,30.428 c 26.849,6.154 46.597,7.237 69.56,3.824 14.166,-2.109 26.456,-3.128 27.317,-2.267 0.858,0.858 -6.678,5.107 -16.748,9.441 -11.789,5.069 -27.773,8.371 -44.873,9.266 -31.625,1.654 -43.379,-2.165 -41.647,-13.533 0.738,-4.835 3.229,-7.458 6.391,-6.731 z" fill="#00B894" transform="translate(108.46445,103.92556) matrix(0.26458333,0,0,0.26458333,-10389.704,-4455.3595) translate(-3313.5291,-2437.8203)"/>
</svg>