<?xml version="1.0" ?><svg height="194.41322mm" viewBox="0 0 241.54913 194.41322" width="241.54913mm" xmlns="http://www.w3.org/2000/svg">
    <path d="m 10474.916,23077.246 c 37.757,-37.693 108.671,-15.277 117.079,-1.856 8.409,13.421 4.442,-14.992 41.883,-28.127 37.44,-13.135 128.026,-7.852 188.311,42.119 60.285,49.971 92.013,148.342 104.864,190.318 12.85,41.976 -33.95,76.67 -81.544,83.809 -47.593,7.138 -99.946,-13.278 -101.056,-53.826 -1.111,-40.548 -1.111,-60.822 -49.021,-81.096 -47.911,-20.274 -74.246,-69.531 -74.246,-69.531 0,0 -41.089,93.231 -94.235,84.95 -53.146,-8.281 -92.172,-20.702 -89.793,-67.532 2.38,-46.83 8.567,-71.673 37.758,-99.228 z" fill="#FFFFFF" transform="translate(-149.10039,48.069726) matrix(0.26458333,0,0,0.26458333,-2580.71,-6106.0979)"/>
    <path d="m 11180.863,23628.122 c -12.711,-4.633 -42.844,-32.49 -46.042,-42.561 -1.456,-4.592 -4.238,-5.462 -17.467,-5.462 -8.654,0 -30.689,2.542 -48.965,5.649 -18.393,3.125 -53.877,6.395 -79.481,7.323 -54.805,1.987 -56.582,1.341 -68.771,-24.97 -6.414,-13.85 -9.769,-29.638 -17.74,-83.533 -9.186,-62.118 -19.405,-113.823 -23.355,-118.197 -1.746,-1.933 -14.167,0.438 -42.403,8.097 -22.095,5.992 -47.679,3.548 -68.01,-6.502 -8.75,-4.324 -16.532,-7.694 -17.291,-7.489 -3.505,0.944 -125.433,22.899 -143.054,25.759 -10.909,1.771 -22.002,4.805 -24.651,6.743 -4.477,3.273 -4.195,4.433 3.987,16.323 12.025,17.478 44.211,51.83 69.445,74.122 11.49,10.151 33.366,31.381 48.609,47.181 15.244,15.801 34.246,34.386 42.227,41.306 16.321,14.144 17.926,20.524 8.051,32.005 -6.101,7.092 -8.086,7.582 -35.72,8.812 -40.298,1.792 -76.886,-1.403 -76.886,-6.712 0,-6.116 15.041,-11.147 44.995,-15.049 14.85,-1.935 26.998,-4.548 26.998,-5.809 0,-1.258 -1.144,-2.29 -2.544,-2.29 -1.398,0 -16.246,-15.887 -32.993,-35.306 -16.75,-19.418 -39.396,-44.027 -50.329,-54.686 -21.141,-20.621 -46.872,-52.707 -59.04,-73.624 -7.229,-12.429 -9.79,-30.614 -5.271,-37.444 5.021,-7.589 25.156,-13.445 90.171,-26.229 38.335,-7.539 72.435,-14.316 75.781,-15.062 5.861,-1.304 5.931,-1.715 1.937,-11.274 -2.855,-6.831 -3.955,-17.821 -3.538,-35.29 0.843,-35.287 -2.648,-40.556 -35.971,-54.298 -11.075,-4.566 -24.778,-11.981 -30.455,-16.474 -14.354,-11.371 -31.889,-47.359 -23.072,-47.359 1.213,0 7.132,5.092 13.152,11.316 12.55,12.973 30.601,22.971 50.064,27.729 17.952,4.39 28.209,9.632 39.343,20.107 16.175,15.219 18.217,21.773 17.476,56.089 -0.638,29.545 -0.376,31.129 6.503,39.304 4.153,4.934 13.814,11.031 22.973,14.497 20.252,7.663 48.247,6.312 67.997,-3.284 12.633,-6.138 13.177,-6.867 11.553,-15.526 -1.316,-7.016 -0.638,-9.492 2.982,-10.881 2.847,-1.095 6.006,0 8.051,2.803 5.051,6.908 8.283,5.73 19.155,-6.969 12.684,-14.82 12.707,-21.584 0.235,-66.074 -13.189,-47.041 -32.666,-85.474 -56.198,-110.889 l -18.229,-19.691 -32.023,0.634 c -41.693,0.827 -42.288,0.762 -41.223,-4.502 0.932,-4.602 15.512,-11.047 33.541,-14.829 5.772,-1.21 11.377,-3.084 12.457,-4.164 5.455,-5.455 -27.783,-21.151 -66.082,-31.204 -38.487,-10.102 -85.26,-10.758 -105.735,-1.481 -7.252,3.285 -13.865,7.74 -14.693,9.899 -0.828,2.161 2.347,9.634 7.054,16.612 13.762,20.39 20.131,41.87 18.388,62.006 -0.818,9.456 -4.032,22.182 -7.144,28.28 -6.385,12.514 -26.64,38.16 -39.805,50.399 -9.604,8.927 -34.829,22.725 -46.839,25.622 -6.923,1.668 -7.614,2.984 -7.614,14.426 0,15.847 -3.91,23.302 -12.219,23.302 -10.646,0 -14.245,-6.819 -10.669,-20.216 3.66,-13.708 2.737,-15.777 -7.042,-15.797 -11.954,-0.02 -26.069,-4.849 -39.942,-13.645 -20.611,-13.07 -28.136,-10.453 -61.396,21.351 -30.221,28.9 -46.484,38.379 -58.203,33.924 -9.271,-3.525 -13.84,-13.733 -11.567,-25.842 3.474,-18.52 46.832,-76.138 79.182,-105.222 11.684,-10.504 14.78,-15.365 18.223,-28.58 10.806,-41.485 22.968,-55.478 78.615,-90.438 19.583,-12.305 55.231,-7.528 78.952,10.579 l 12.758,9.738 9.191,-9.744 c 14.855,-15.752 45.619,-26.309 76.83,-26.363 25.719,-0.05 78.713,9.489 99.918,17.976 10.122,4.052 25.828,13.801 36.474,22.637 l 18.699,15.52 22.622,-4.66 c 49.818,-10.264 97.035,-18.515 144.46,-25.244 27.414,-3.889 56.384,-8.362 64.379,-9.941 l 14.538,-2.87 v -24.813 c 0,-14.666 1.541,-28.501 3.77,-33.834 7.351,-17.595 21.159,-24.516 15.284,-7.659 -1.523,4.365 -2.381,13.995 -1.91,21.397 l 0.855,13.459 9.328,-22.89 c 10.117,-24.819 17.892,-36.645 24.102,-36.645 4.628,0 5.049,3.855 1.2,11.043 -2.618,4.895 -11.316,38.799 -9.951,38.799 0.352,0 6.639,-8.764 13.957,-19.478 12.913,-18.899 21.091,-26.478 24.687,-22.881 3.088,3.086 1.772,10.143 -4.93,26.439 -3.602,8.756 -6.052,15.92 -5.448,15.92 0.604,0 6.146,-3.655 12.312,-8.121 12.065,-8.739 26.623,-13.277 30.363,-9.465 1.272,1.297 -13.805,19.094 -33.502,39.553 -19.697,20.456 -35.811,38.289 -35.811,39.626 0,1.339 5.617,1.593 12.485,0.563 8.357,-1.254 13.85,-0.74 16.614,1.554 11.582,9.612 -1.242,18.774 -29.296,20.929 -17.685,1.361 -21.836,0.783 -29.572,-4.106 -4.949,-3.127 -8.999,-7.573 -8.999,-9.881 0,-5.387 -1.239,-5.298 -18.734,1.35 -8.021,3.049 -50.389,11.121 -94.154,17.939 -87.559,13.642 -108.893,17.389 -111.001,19.496 -0.775,0.775 2.502,5.442 7.281,10.372 11.092,11.443 31.851,47.813 40.628,71.171 9.913,26.388 23.686,82.512 23.686,96.521 0,16.658 -6.024,27.885 -25.159,46.904 l -16.359,16.258 8.258,22.624 c 9.838,26.956 14.155,45.871 23.503,102.987 14.469,88.397 13.407,85.853 35.814,85.794 9.275,-0.02 31.814,-1.299 50.089,-2.834 18.275,-1.532 54.392,-3.958 80.26,-5.386 50.753,-2.801 54.946,-2.015 65.059,12.197 15.267,21.452 38.134,39.109 54.486,42.074 7.865,1.424 11.907,5.254 11.983,11.354 0.124,9.337 -31.191,13.943 -49.472,7.276 z m -794.998,-380.147 c 10.516,-9.053 21.536,-17.75 24.489,-19.331 3.802,-2.035 5.655,-6.515 6.361,-15.386 1.128,-14.181 0.02,-15.097 -7.563,-6.285 -40.379,46.896 -48.474,57.458 -44.041,57.458 0.898,0 10.237,-7.406 20.754,-16.456 z m 153.84,-24.28 c 13.329,-4.625 13.454,-4.772 5.34,-6.246 -5.836,-1.062 -8.565,-3.311 -9.172,-7.564 -1.208,-8.465 11.938,-14.678 31.046,-14.678 13.948,0 15.792,-0.756 21.973,-9.001 26.256,-35.018 23.799,-68.874 -7.251,-99.923 -28.852,-26.331 -58.487,-35.497 -102.264,-4.019 -13.578,10.599 -26.917,37.83 -28.989,59.175 l -1.591,16.386 9.488,-9.001 c 5.221,-4.949 12.191,-8.998 15.491,-8.998 7.421,0 12.264,8.051 8.688,14.441 -2.256,4.031 -1.326,4.405 7.435,2.982 10.875,-1.765 16.032,2.369 13.424,10.762 -1.08,3.477 0.511,4.874 6.292,5.539 6.17,0.708 7.74,2.291 7.74,7.8 0,5.43 -2.904,8.479 -13.549,14.228 -12.824,6.926 -13.231,7.487 -7.613,10.492 6.971,3.732 7.871,13.486 1.47,15.943 -2.455,0.941 -8.147,-0.465 -12.651,-3.125 -8.353,-4.934 -13.58,-4.59 -7.182,0.473 12.045,9.533 41.054,11.565 61.875,4.334 z m -127.144,-174.774 c -2.521,-2.785 -4.583,-6.23 -4.583,-7.657 0,-1.427 -6.216,-4.801 -13.813,-7.499 -7.848,-2.787 -19.465,-10.245 -26.895,-17.264 -7.196,-6.798 -14.501,-12.357 -16.231,-12.357 -1.731,0 -8.18,-3.647 -14.331,-8.102 -16.329,-11.829 -22.101,-28.359 -18.085,-51.805 3.372,-19.685 14.29,-40.743 23.677,-45.67 5.899,-3.092 5.956,-3.009 1.452,2.077 -15.692,17.715 -21.181,54.939 -10.65,72.213 2.975,4.877 9.198,10.826 13.836,13.225 8.332,4.308 8.429,4.277 8.429,-2.724 0,-16.525 16.533,-41.024 33.784,-50.061 18.288,-9.582 41.036,-0.485 40.92,16.359 -0.145,19.974 -16.531,42.806 -37.342,52.013 -6.844,3.025 -12.441,6.034 -12.441,6.687 0,1.558 13.562,8.417 21.459,10.853 4.682,1.443 6.231,0.81 6.231,-2.545 0,-7.557 12.812,-18.059 22.026,-18.059 10.085,0 19.509,8.5 19.509,17.595 0,9.711 -11.918,21.172 -22.02,21.172 -9.412,0 -10.732,3.952 -3.856,11.549 4.295,4.745 4.234,5.065 -0.956,5.065 -3.044,0 -7.6,-2.28 -10.12,-5.065 z m 20.544,-32.454 c -0.367,-4.703 -9.794,-2.776 -10.751,2.198 -0.748,3.885 0.234,4.401 5.013,2.633 3.269,-1.211 5.85,-3.383 5.738,-4.831 z m -38.626,-32.922 c 9.566,-6.501 17.526,-19.013 19.487,-30.629 0.768,-4.546 -0.802,-5.683 -8.763,-6.356 -13.405,-1.132 -30.174,15.579 -32.418,32.308 -1.429,10.646 -1.075,11.43 5.111,11.43 3.655,0 11.117,-3.038 16.583,-6.753 z m 92.79,37.011 c -16.184,-12.73 -6.133,-39.296 20.038,-52.967 23.063,-12.05 58.505,-10.311 58.505,2.87 0,5.889 -5.177,11.533 -10.583,11.533 -3.136,0 -3.257,-0.823 -0.594,-4.034 7.916,-9.537 -9.161,-13.067 -31.231,-6.455 -14.758,4.422 -32.355,21.136 -32.355,30.73 0,16.724 21.292,16.433 56.766,-0.774 31.904,-15.48 56.729,-41.148 56.754,-58.681 0.02,-10.355 -13.416,-20.886 -29.771,-23.343 -32.144,-4.826 -88.117,12.365 -112.133,34.441 -4.186,3.849 -7.612,5.612 -7.612,3.912 0,-1.696 4.672,-6.954 10.383,-11.687 30.689,-25.426 96.579,-40.782 124.656,-29.051 26.393,11.028 30.26,28.691 11.902,54.331 -12.59,17.578 -23.25,26.321 -46.516,38.144 -35.392,17.984 -55.281,21.201 -68.209,11.031 z" fill="#00B894" transform="translate(-149.10039,48.069726) matrix(0.26458333,0,0,0.26458333,-2580.71,-6106.0979)"/>
</svg>