<?xml version="1.0" ?><svg height="208.02583mm" viewBox="0 0 231.77194 208.02583" width="231.77194mm" xmlns="http://www.w3.org/2000/svg">
    <path d="m -378.39773,2599.8051 c -21.37654,1.9876 -31.31574,15.9831 -32.01458,34.8393 -0.15866,5.2292 9.7783,20.8236 14.17484,24.4176 12.60497,4.719 21.4533,6.2416 32.55202,2.6231 5.67425,-1.7634 7.02144,-6.2452 9.71569,-9.662 2.69428,-3.4165 2.40857,-20.353 1.3472,-26.8557 -0.9287,-5.6899 -15.23186,-25.421 -25.77517,-25.3623 z m 85.95806,33.6745 c -0.12582,6e-4 -0.25455,0.01 -0.38705,0.021 -4.23995,0.4305 -5.41995,3.1988 -6.67918,6.5267 -0.0797,1.5351 3.06054,4.5623 5.89783,4.7057 2.83726,0.1433 5.96151,-3.1561 5.88181,-4.2318 -0.0772,-1.0423 -0.81277,-7.0391 -4.71341,-7.0218 z m 7.15977,21.7015 v 0 c -0.0446,3e-4 -0.0893,0 -0.13487,0 -2.91698,0.1291 -4.27184,1.5925 -4.31964,4.4328 0.65352,2.0227 1.97658,4.9922 4.8457,5.5661 2.86915,0.5737 3.65014,-2.3095 3.49075,-4.562 -0.15689,-2.217 -1.07108,-5.4623 -3.88194,-5.44 z m -156.95372,2.4102 c -0.84173,0.01 -2.02661,0.3944 -2.88975,0.9322 -1.10482,0.6884 -0.57801,2.2942 -0.0341,3.8391 0,0 4.26659,0.1529 5.2524,-0.153 0.98583,-0.3058 -0.95185,-4.2371 -1.7167,-4.5279 -0.16731,-0.064 -0.37616,-0.092 -0.61184,-0.09 z m 121.65665,5.5697 c -0.32828,0 -0.63554,0.052 -0.9095,0.1633 -1.59394,0.6456 -4.16002,3.5007 0.032,6.011 0,0 2.35908,1.879 4.22403,1.836 1.86494,-0.043 2.8373,-2.8833 1.45056,-5.0209 -1.14841,-1.7698 -3.21539,-2.9891 -4.79713,-2.9894 z m -72.53562,2.4241 c -1.50545,7e-4 -3.00248,0.2029 -4.45503,0.6558 -1.87782,0.6244 -11.43066,4.9966 -16.90077,13.6302 -5.47015,8.6332 -8.65421,48.3108 -7.91942,60.912 0.7348,12.6013 3.15692,31.9763 3.15692,31.9763 -7.70059,4.1256 -16.48606,16.6401 -1.1157,21.8457 5.10277,1.543 28.5345,7.0166 60.00823,10.1395 31.4737,3.1226 68.1056,-3.0234 80.50154,-11.6825 17.06663,-11.9218 21.93053,-32.7563 35.67844,-44.0495 5.02099,1.3223 10.69506,-0.9843 15.14482,-4.6948 4.44947,-3.7108 -0.24485,-14.0784 -1.02061,-15.952 -0.77549,-1.8735 1.42885,-1.9105 1.42885,-1.9105 0,0 5.18445,-0.551 8.8992,-4.3351 3.715,-3.784 1.42872,-6.5033 0.12247,-12.2711 -1.30624,-5.7679 -7.75611,-5.0695 -7.75611,-5.0695 0,0 0.61253,-11.9403 -5.46995,-20.5739 -6.0825,-8.6333 -14.81858,-3.6368 -20.65611,0.1473 -5.83755,3.7841 -11.26701,12.1238 -11.26701,12.1238 0,0 -12.49175,-0.4781 -12.2468,-2.572 0.24495,-2.0942 -3.42873,-3.1228 -3.42873,-3.1228 0,0 -0.24496,-1.6162 -0.0408,-4.4452 0.20409,-2.8289 -7.7153,-3.1962 -7.7153,-3.1962 0,0 -2.24536,-5.0328 -2.89853,-8.7436 -0.65315,-3.7105 -8.32781,-3.7106 -11.06289,-2.094 -2.73505,1.6163 -2.73523,9.0372 -2.73523,9.0372 0,0 -4.65358,-0.6242 -6.73551,0.478 -2.08191,1.1023 -3.30625,3.0122 -3.30625,3.0122 0,0 -9.3075,0.2207 -10.28723,2.6821 -0.97972,2.4616 0.48971,3.0494 -2.65359,3.3434 -3.14327,0.2939 -8.98084,4.5553 -8.98084,4.5553 l -34.16794,33.7995 c 0,0 1.42838,-15.1366 2.65306,-28.436 1.22464,-13.2993 -3.46959,-20.4629 -4.36769,-22.1527 -0.59486,-1.1195 -4.77358,-5.7852 -7.6109,-8.9059 -3.68692,-2.3187 -8.27823,-4.133 -12.79457,-4.131 z m -50.41915,14.4565 c -1.15217,0.01 -1.76676,1.117 -2.56056,2.6045 -1.03682,1.9425 -0.74782,1.8202 2.97449,3.0442 0,0 2.83861,-4.3599 0.81597,-5.3237 -0.47405,-0.2258 -0.87719,-0.327 -1.2299,-0.325 z m 10.97815,11.3977 c -0.33845,0 -0.60457,0.1634 -0.74001,0.5685 -0.57791,1.7286 -0.88377,5.3228 1.73374,5.858 0,0 3.39922,-2.0495 2.60036,-3.5026 -0.6116,-1.1125 -2.48852,-2.9156 -3.59409,-2.9239 z" fill="#FFFFFF" paint-order="markers stroke fill" transform="translate(232.92411,82.618836) translate(214.94723,-2680.1623)"/>
    <path d="m -382.02231,2597.5459 c -2.0892,-0.042 -3.87205,0.458 -7.32514,1.5776 -1.81714,0.5892 -3.52503,1.3075 -5.13922,2.1627 -5.56364,2.6044 -9.88233,6.7412 -12.83849,12.3145 -0.86039,1.6219 -9.09228,3.3444 -12.47211,5.7676 -3.37983,2.4232 -7.23562,5.9622 -8.56847,7.8636 -1.33282,1.9015 -2.84614,3.4221 -3.36258,3.3781 -1.88192,-0.1587 -4.74975,3.476 -4.75475,6.028 -0.004,1.9286 -0.78383,2.9961 -2.95744,4.0499 -2.33911,1.1341 -2.83787,1.8929 -2.40399,3.6582 0.37123,1.5103 -0.0511,2.6896 -1.3131,3.6639 -1.53528,1.185 -1.75791,2.1988 -1.27072,5.7939 0.50742,3.7448 0.35438,4.3381 -1.08676,4.2168 -1.31344,-0.1108 -1.57061,0.4357 -1.18701,2.5192 0.26934,1.4633 0.16233,3.4905 -0.23771,4.5042 -0.9046,2.2928 0.52575,5.3811 2.25258,4.8643 0.70684,-0.2117 1.82785,-1.4938 2.49132,-2.8495 0.71163,-1.4555 1.38475,-1.9568 1.64124,-1.2257 0.2391,0.6817 -0.69603,3.0729 -2.07791,5.3144 -1.38184,2.2416 -2.24945,4.5235 -1.92804,5.0705 0.32143,0.5472 -0.29996,2.1616 -1.3808,3.5884 -2.07979,2.7455 -2.51806,5.1329 -1.12241,6.1133 0.46341,0.3253 0.8116,2.6484 0.7736,5.1614 -0.0795,5.2627 0.64516,6.9316 3.10007,7.1386 2.17146,0.1832 2.90318,-1.5745 2.90318,-6.9758 0,-2.3146 0.42045,-4.1725 0.93431,-4.1295 1.4385,0.1213 2.20241,-4.1797 1.11828,-6.2972 -1.09005,-2.1288 -0.44597,-3.5003 1.9668,-4.1864 0.90115,-0.2561 1.89114,-1.6415 2.19987,-3.0783 0.30878,-1.4371 0.977,-3.221 1.48466,-3.9641 0.50766,-0.7428 1.6604,-2.5141 2.56212,-3.9362 3.04841,-4.8074 12.59813,-16.1422 14.26786,-16.9349 0.91219,-0.4334 -0.10843,1.1802 -2.26808,3.5853 -6.5766,7.3237 -9.82087,12.9824 -12.72894,22.2023 -3.40487,10.7951 -5.20091,21.2357 -3.93412,22.8689 0.49983,0.6445 1.05085,2.6391 1.22473,4.4323 0.41332,4.2652 3.18797,6.3717 5.14284,3.9036 0.75991,-0.9592 1.30746,-3.2702 1.21646,-5.1356 -0.0909,-1.8655 0.15255,-4.0817 0.54105,-4.9253 0.47056,-1.0217 -0.005,-2.305 -1.42523,-3.8447 l -2.13114,-2.311 3.48661,-2.5032 c 2.84164,-2.0399 3.48609,-3.1323 3.48609,-5.9071 0,-1.8724 0.69524,-4.1143 1.54513,-4.9816 0.84984,-0.8673 1.88876,-3.3855 2.30838,-5.5961 0.41961,-2.2109 2.27213,-6.4639 4.11655,-9.45 5.24329,-8.4905 6.42231,-9.526 3.95428,-3.4743 -1.23922,3.0382 -2.76586,8.2668 -3.39204,11.619 -0.62621,3.3521 -2.16233,8.2383 -3.41375,10.8577 -0.28904,0.6051 -0.5768,1.2742 -0.86248,1.9844 -5.73196,11.998 -7.99718,30.294 -6.44973,53.4794 1.07187,16.0604 2.74832,26.0705 5.23327,31.2477 1.33679,2.785 1.25325,2.9989 -2.8975,7.4161 -2.35061,2.502 -4.27364,5.0928 -4.27364,5.7578 0,1.9619 2.36839,1.5804 5.8937,-0.9545 1.81153,-1.3001 9.06228,-7.5125 16.11271,-13.8048 18.59997,-16.5995 25.28767,-22.2874 26.13019,-22.2209 0.4101,0.032 -0.7631,1.61 -2.60708,3.5057 -4.39159,4.5142 -5.148,6.9448 -2.96623,9.5281 1.66799,1.9746 2.66334,2.0828 42.78292,4.6411 22.59144,1.4408 45.41118,2.398 50.71215,2.6846 6.15411,0.3327 9.02163,0.7035 12.98009,-3.4112 4.48607,-4.6632 14.96598,-16.828 18.71823,-21.7273 l 3.03238,-3.959 v 5.8529 c 0,5.0671 0.35989,6.2839 2.68045,9.0641 2.17944,2.6113 3.60617,3.3741 7.63261,4.0788 4.28268,0.7493 5.89564,0.4811 11.92847,-1.9849 7.51801,-3.073 9.2444,-5.1259 9.2444,-10.9931 0,-4.4058 -1.88801,-8.0189 -6.61975,-12.667 -2.51546,-2.4709 -4.8031,-3.8642 -6.50193,-3.9982 -3.39129,-0.2402 -9.75217,2.1921 -12.07213,4.6168 -2.78885,2.9147 -3.59221,2.1438 -1.42162,-1.3637 1.07509,-1.7373 1.80694,-4.3448 1.63763,-5.8343 -0.25801,-2.269 -0.80438,-2.779 -3.46956,-3.2463 -1.7398,-0.3043 -3.76079,-0.1047 -4.49068,0.4439 -1.98446,1.4902 -3.31866,0.013 -3.31866,-3.6747 0,-3.48 -2.69092,-7.3123 -5.27823,-7.5164 -2.19658,-0.1729 -8.07961,2.0042 -8.07961,2.9906 0,0.4737 2.12551,0.8253 4.72322,0.7813 4.48267,-0.077 4.75592,0.052 5.36454,2.5249 0.4758,1.9335 0.11869,3.1199 -1.3839,4.6008 -1.11371,1.0978 -2.0252,2.5047 -2.0252,3.1269 0,1.373 3.46712,1.7895 4.2938,0.5173 0.89434,-1.3766 2.38538,-0.9526 2.38538,0.678 0,0.7943 -0.53671,2.2812 -1.19269,3.3037 -0.99337,1.5487 -0.93357,2.0717 0.35708,3.1331 1.36315,1.1207 0.62359,2.3184 -6.14484,9.9529 -7.11717,8.0275 -7.9508,8.658 -11.11715,8.4082 -1.88265,-0.148 -4.3601,0.3127 -5.50561,1.0248 -1.22151,0.7581 -3.01132,0.9883 -4.3279,0.554 -1.46947,-0.4849 -3.03901,-0.16 -4.54443,0.94 -1.71074,1.2504 -2.85585,1.4248 -4.47156,0.6831 -1.21624,-0.5535 -3.117,-0.7052 -4.31912,-0.3405 -2.94203,0.893 -5.82598,4.0436 -5.21156,5.6932 0.4223,1.1338 -5.34351,1.0089 -34.81958,-0.754 -19.42916,-1.1622 -35.85883,-2.6105 -36.0779,-2.8468 -0.21921,-0.2362 1.52691,-1.8836 3.44836,-4.0318 l 3.93465,-4.4881 10.75076,-0.4817 c 5.82688,-0.261 11.12632,-1.1622 12.63644,-1.7962 2.49048,-1.0472 2.73068,-1.0045 2.58382,0.4557 -0.32039,3.1867 0.0829,4.8571 1.55701,6.4472 1.63015,1.759 7.68373,2.6052 9.89087,1.3829 0.89409,-0.4951 2.04836,-0.233 3.31349,0.7529 4.29295,3.3457 11.24525,2.0476 16.07448,-3.0009 2.92556,-3.0582 4.13485,-3.227 6.85384,-0.956 4.55362,3.8032 17.52581,1.8867 23.96495,-3.5408 10.69204,-9.0118 10.87237,-30.5195 0.3514,-41.8704 -6.24326,-6.7357 -10.65079,-8.8421 -19.96674,-9.604 -7.21435,-0.5792 -13.26933,0.9165 -17.40669,4.5811 -2.94274,-0.4054 -5.73037,1.3474 -7.78609,3.7574 -1.91955,2.2998 -2.43553,3.1917 -5.58416,2.4324 -2.07835,-0.5011 -3.10071,-0.547 -4.5191,-1.0046 0.88343,-1.2036 1.54323,-1.7116 2.85564,-2.7957 2.32666,-1.9219 2.44476,-3.6908 0.31264,-4.6772 -1.0756,-0.4976 -2.77003,0.3162 -5.2002,2.4975 l -3.97443,3.3336 -4.21008,-2.1781 c -3.46593,-1.793 -7.22742,-4.9556 -16.28221,-14.7893 -9.6681,-10.5 -14.41531,-13.7757 -14.99082,-11.9486 l -0.65784,0.5819 c -3.4391,3.0433 -5.09315,3.1472 -9.41079,0.5906 -4.63191,-2.7428 -5.71852,-3.8699 -4.4111,-4.579 0.14014,-0.06 0.24554,-0.1402 0.31987,-0.2372 0.8849,-0.8679 -0.18592,-2.5694 -1.91771,-2.7156 -0.78088,-0.066 -2.68418,0.4277 -4.22972,1.0965 -2.36695,1.0261 -2.81016,1.0062 -2.81016,-0.1255 0,-0.739 1.06632,-1.9524 2.36936,-2.696 1.33361,-0.7614 3.79326,-0.4569 6.69934,0.3928 0.2969,0.1623 0.59007,0.3283 0.89297,0.4847 8.49722,4.3864 20.75219,4.6507 29.6292,0.7519 2.43651,-1.07 3.13442,-1.4038 3.84265,-1.6862 4.85169,5.1548 8.1691,0.3397 4.58525,-3.7827 0,0 0.34128,-0.4619 2.38384,-3.481 2.47335,-3.6559 2.865,-5.128 3.81217,-14.3123 1.22353,-11.8636 0.10597,-16.8251 -6.15518,-27.3234 -4.99545,-8.3762 -10.96561,-12.675 -20.57962,-14.8192 -1.67194,-0.3729 -2.97992,-0.6508 -4.09691,-0.8263 -0.83774,-0.1315 -1.56806,-0.2058 -2.26446,-0.2196 z m 3.22254,6.3505 c 0.0574,0 0.119,0 0.18448,0.01 1.9823,0.2033 5.00073,1.6877 5.00073,2.4593 0,0.4817 2.13959,3.9343 4.75475,7.6719 2.61512,3.7375 5.36463,7.7042 6.11022,8.8149 1.18695,1.7681 2.58523,2.1989 4.40484,1.2523 1.14302,-0.5943 0.68312,-1.6114 1.32417,-1.831 0.98075,-0.336 2.68606,7.6394 2.88132,9.5952 0.89985,9.0134 -1.61496,18.8211 -4.28501,21.6664 -0.0279,-0.05 -0.0591,-0.097 -0.093,-0.1421 -1.05201,-1.3829 -4.88872,-0.1848 -4.13825,2.6727 -0.65826,0.4723 -1.85394,1.1243 -6.21564,2.3849 -4.67633,1.3515 -11.48929,1.668 -16.7106,0.5162 -2.75232,-1.2415 -5.94849,-3.2401 -9.46299,-5.9391 l -2.85771,-2.1947 4.7625,0.6449 c 4.25846,0.5752 4.7935,0.4261 5.05809,-1.4103 0.34372,-2.3854 -1.46164,-3.7038 -6.96288,-5.0834 -8.04811,-2.0187 -8.80032,-2.391 -9.90069,-4.8989 -0.99936,-2.2774 -0.93907,-2.4526 0.58239,-1.6805 4.34197,2.2032 8.70369,3.897 12.41372,4.8209 3.67037,0.9134 4.04781,0.8236 4.04781,-0.9597 0,-2.3467 -2.44739,-4.2653 -9.60562,-7.5297 -5.69263,-2.5965 -9.78209,-6.4089 -8.68267,-8.0952 0.47035,-0.7213 2.349,-0.056 6.23838,2.2077 3.06101,1.7821 6.13867,3.2886 6.83886,3.3476 0.70016,0.059 1.55332,1.0142 1.89601,2.1228 0.8752,2.8326 4.72241,4.7962 6.62026,3.3812 2.30067,-1.7151 1.71583,-4.4072 -1.63814,-7.536 -1.70252,-1.5884 -5.37325,-5.3296 -8.15712,-8.3147 -2.78387,-2.985 -5.71286,-5.4825 -6.50865,-5.5495 -0.79562,-0.067 -1.25938,-0.6422 -1.03043,-1.2775 0.22895,-0.6355 1.07826,-0.9826 1.88723,-0.7741 2.40799,0.625 13.94594,9.7016 16.55712,13.0251 1.71501,2.1828 3.26509,3.1522 5.31338,3.3253 2.71331,0.2289 2.85568,0.063 2.31252,-2.699 -0.3184,-1.6187 -2.19323,-5.0289 -4.16668,-7.5778 -3.52924,-4.5582 -11.61987,-12.2649 -13.86995,-13.2122 -0.88756,-0.3738 -0.87914,-0.7862 0.0362,-1.8185 1.01259,-1.1419 2.73693,0.2891 11.90574,9.8806 10.4682,10.9505 14.09437,13.3833 15.32464,10.281 1.23817,-3.1218 -1.41475,-8.3021 -7.02282,-13.7118 -4.72102,-4.5536 -6.79306,-7.6442 -5.30666,-7.8357 0.0496,-0.01 0.10279,-0.01 0.1602,-0.01 z m 85.81078,28.5393 c -2.66349,0.09 -5.31936,2.3801 -6.41769,5.6214 -1.19768,3.5346 -0.30627,6.3543 2.62103,8.2909 4.69902,3.1083 11.67629,-0.023 11.67629,-5.241 0,-2.9175 -4.6944,-8.4499 -7.34736,-8.6594 -0.17717,-0.014 -0.35471,-0.018 -0.53227,-0.012 z m -1.26865,3.8272 v 5e-4 c 0.16178,0 0.33347,0.01 0.51624,0.024 v -6e-4 c 0.20887,0.02 0.43222,0.056 0.67231,0.1044 3.24393,0.6435 5.00499,3.4056 3.56516,5.5914 -0.57502,0.8731 -2.4004,1.6146 -4.0566,1.649 -3.57857,0.074 -4.7525,-1.9751 -3.11557,-5.4384 0.6348,-1.344 1.28602,-1.91 2.41846,-1.9301 z m -0.74156,2.1068 v 0.01 c -0.35354,0.042 -0.60565,0.5784 -0.60565,1.4056 0,1.0805 0.4297,1.9983 0.95447,2.0397 0.52478,0.041 0.95394,-0.5437 0.95394,-1.2997 0,-0.7562 -0.42916,-1.6739 -0.95394,-2.0397 -0.0656,-0.046 -0.12976,-0.076 -0.19172,-0.094 -0.0542,-0.016 -0.10659,-0.019 -0.1571,-0.017 z m -64.02142,4.4111 v 0 c -1.01125,0.032 -1.76321,1.1318 -2.17609,2.697 -0.56101,2.1261 -0.0433,3.1461 1.38648,3.0799 1.14622,-0.053 1.88772,-0.9063 2.10788,-2.4252 0.2431,-1.6771 -0.3702,-3.263 -1.11259,-3.3435 -0.0697,-0.01 -0.13826,-0.01 -0.20568,-0.01 z m -10.21333,2.8314 c -1.63849,-0.074 -3.45263,3.3087 -2.62361,5.2183 0.27279,0.6282 1.21874,1.1089 2.10168,1.0676 2.25555,-0.1044 2.98677,-5.4804 0.84646,-6.2234 -0.1069,-0.037 -0.21527,-0.057 -0.32453,-0.062 z m -59.14729,1.9482 -1.50999,2.2019 c -1.63833,2.3883 -4.22496,3.5657 -3.5574,1.6195 0.22517,-0.6563 1.45741,-1.7847 2.73833,-2.5073 z m 142.82177,7.3954 v 5e-4 c -5.10944,0 -6.984,6.3935 -2.93263,10.7647 2.85732,3.0828 4.2907,3.2651 7.54786,0.9602 4.8249,-3.4147 2.08495,-11.2165 -4.11086,-11.7053 -0.17146,-0.014 -0.33955,-0.02 -0.50437,-0.02 z m -149.29838,0.5317 c 0.1802,0.019 0.28577,0.1173 0.28577,0.3003 0,0.4879 -0.57731,1.6281 -1.28312,2.5337 -0.94128,1.2079 -1.47452,1.3214 -2.0004,0.4263 -0.39431,-0.6714 -0.56677,-1.3004 -0.38344,-1.3984 0.18343,-0.098 1.08313,-0.6888 1.99988,-1.3131 0.57295,-0.3902 1.08099,-0.5803 1.38131,-0.5488 z m 149.2033,2.2273 c 1.27513,0.1231 3.01398,1.513 3.22047,3.3099 0.31807,2.7697 -1.53046,3.9443 -3.71605,2.3647 -1.21589,-0.9089 -2.0401,-2.0539 -1.64693,-3.5321 0.30205,-1.1357 0.92878,-2.2458 2.14251,-2.1425 z m -158.53916,1.3834 c 0.1156,3e-4 0.24915,0.01 0.40049,0.021 0.81901,0.069 1.7357,0.545 2.03709,1.0583 0.9543,1.6246 -1.11948,1.9187 -2.34921,0.3328 -0.83739,-1.0798 -0.89754,-1.4138 -0.0884,-1.4118 z m 157.54956,0.9513 c -0.24662,0.021 -0.47851,0.1456 -0.59428,0.508 -0.0635,0.1987 -0.0184,0.7006 0.12609,0.9162 0.23988,0.3579 0.60733,0.6966 1.2516,0.2951 0.71698,-0.4469 0.37796,-1.4794 -0.0997,-1.6108 -0.17582,-0.048 -0.43705,-0.13 -0.68367,-0.1085 z m -33.27394,2.6722 c -2.27998,-0.1804 -5.2648,2.6798 -5.2648,5.0442 0,0.6706 0.85886,2.1459 1.90841,3.2783 3.30366,3.5643 9.54102,2.5924 9.54102,-1.4867 0,-2.9113 -3.34823,-6.6119 -6.18463,-6.8358 z m 0.0517,1.912 c 1.5664,0.1241 3.58935,3.7672 2.78175,5.0101 -0.82775,1.274 -2.91327,0.922 -4.18114,-0.7059 -1.30887,-1.6803 -0.40943,-4.4468 1.39939,-4.3042 z m -76.99478,3.4774 1.06815,2.129 c 2.96252,5.9043 12.08545,9.0252 16.76849,5.7366 l 1.60455,-1.127 c 0.28725,0.3093 0.57214,0.6446 0.83768,1.0573 3.92518,6.1002 5.11754,14.0685 4.10517,25.9886 -0.4471,5.2637 -0.82951,13.5743 -0.85111,18.467 -0.038,8.8945 -0.0383,8.8964 -3.28455,11.5456 -3.12162,2.5475 -1.98691,1.7945 -3.30574,2.6598 -14.62689,-2.4356 -20.64061,-6.5897 -20.64061,-15.3526 0,-5.1069 2.58551,-21.7211 4.81728,-30.9573 1.07616,-4.454 0.56425,-8.574 -1.08107,-8.7038 -2.96462,-0.2336 -10.20462,21.5579 -11.83907,35.6345 -1.42582,12.2797 3.47037,20.3464 14.80478,24.3918 3.16375,1.1292 4.89001,1.1104 7.06779,1.635 -0.69596,1.4389 -28.16293,24.9249 -28.59051,24.4637 -0.26991,-0.2914 -1.1916,-3.7595 -2.04793,-7.706 -2.05524,-9.473 -2.35326,-46.9724 -0.45062,-56.7035 2.18157,-11.1578 4.78241,-18.7123 7.79022,-22.6271 2.11426,-2.7519 9.15297,-8.2288 13.2271,-10.5316 z m 98.47151,1.3518 c -4.05157,-0.034 -7.71064,3.2283 -7.71064,7.3148 0,2.8509 -0.30079,3.2306 -2.42828,3.0629 -1.33579,-0.1062 -3.39783,0.6982 -4.58215,1.7854 -1.51667,1.3923 -3.32236,1.8971 -6.10763,1.7094 -6.20399,-0.4196 -10.21841,4.5317 -6.72776,8.2977 1.87775,2.0259 2.91861,1.5359 2.27687,-1.0717 -0.48326,-1.9638 -0.1422,-2.6164 1.73477,-3.3239 1.28475,-0.4852 3.33378,-0.5507 4.55321,-0.1483 1.21943,0.4023 2.64609,0.8667 3.17087,1.0325 0.52474,0.1658 1.17131,-0.9448 1.43609,-2.4686 0.38133,-2.1933 1.03883,-2.7903 3.15846,-2.8665 1.47236,-0.053 3.2761,0.4482 4.00854,1.1137 2.10143,1.9101 3.18191,0.5488 2.68304,-3.3797 -0.56688,-4.4642 1.26923,-7.0551 4.80178,-6.7763 4.3663,0.3445 6.33449,3.171 6.33449,9.0982 0,4.599 0.19341,5.1319 1.66967,4.5961 0.91835,-0.3333 2.95772,-0.5417 4.53202,-0.4605 2.84168,0.1471 3.18408,0.8022 2.26085,4.3393 -0.22812,0.874 0.62916,1.6147 2.43086,2.1001 3.14815,0.8479 4.34346,2.9623 2.06654,3.6566 -0.83077,0.2532 -1.51051,1.0585 -1.51051,1.7896 v 5e-4 c 0,1.7585 1.4158,1.7962 3.27112,0.087 1.90569,-1.7554 1.92013,-4.4452 0.0331,-6.1603 -0.8065,-0.733 -1.40116,-2.0132 -1.32136,-2.8448 0.0798,-0.832 0.0954,-2.0431 0.0351,-2.6918 -0.14653,-1.5729 -4.53542,-4.7288 -7.11275,-5.116 -1.55568,-0.2333 -2.1325,-1.0257 -2.35076,-3.2298 -0.37275,-3.7623 -4.66977,-8.2146 -8.91728,-9.2387 -0.2914,-0.07 -0.58305,-0.1223 -0.87385,-0.156 v 5e-4 c -0.27263,-0.032 -0.54432,-0.049 -0.81442,-0.051 z m 28.01328,0.03 c -1.68586,-0.1322 -1.8331,2.3909 -0.18242,3.1264 0.65597,0.2925 1.56311,0.2223 2.0159,-0.1555 1.08984,-0.9095 -0.098,-2.8339 -1.83348,-2.9709 z m 27.72337,9.849 c -6.53767,0.019 -13.69681,4.5854 -19.79621,13.0524 -5.33593,7.4076 -4.70221,11.0044 2.31459,13.1408 3.07668,0.9364 3.74268,0.6607 9.91412,-4.1129 l 6.61562,-5.1175 0.47749,11.4975 c 0.28375,6.8386 0.9266,11.9823 1.58647,12.6917 2.47394,2.66 3.18378,-0.03 3.18378,-12.0608 0,-17.0043 -2.53571,-20.3146 -10.51977,-13.7314 l -3.84628,3.1719 -3.31246,-2.0454 c -1.82171,-1.1246 -3.31194,-2.2923 -3.31194,-2.5947 0,-1.1582 6.37121,-6.0447 10.00404,-7.6724 5.08323,-2.2775 10.07436,-1.8278 12.66486,1.1421 3.46666,3.9741 4.26188,7.7844 4.70617,22.5552 0.2373,7.8895 0.63093,14.9731 0.87489,15.7427 1.00277,3.1558 3.45581,-1.5186 4.47828,-8.5354 0.57544,-3.9489 1.46338,-7.1471 1.97352,-7.107 0.51011,0.041 1.71302,0.8459 2.6727,1.79 2.21474,2.1791 2.25754,7.0924 0.093,10.6929 -1.95529,3.2531 -1.15627,4.5801 2.03399,3.3786 3.10172,-1.1686 4.81254,-8.4427 3.01635,-12.825 -1.43645,-3.5044 -4.06886,-6.2211 -6.6952,-6.9097 -1.51015,-0.3959 -2.14901,-1.9763 -3.35897,-8.307 -1.67964,-8.7883 -3.50577,-12.3227 -7.9468,-15.3809 -2.03157,-1.3991 -4.23123,-2.1892 -6.52363,-2.3989 -0.42983,-0.039 -0.86279,-0.058 -1.29863,-0.057 z m -201.63007,2.8618 v 0 c 0.45151,0 0.92781,0.17 1.28571,0.5581 0.60966,0.6613 0.42635,1.1641 -0.52865,1.45 -0.8042,0.2406 -1.69715,0.038 -1.98438,-0.4511 -0.48106,-0.8192 0.19473,-1.4667 1.0356,-1.5482 0.0631,-0.01 0.12722,-0.01 0.19172,-0.01 z m 79.0267,8.9783 4.53254,4.7511 c 2.49264,2.6132 5.92711,5.5623 7.63261,6.5541 1.7055,0.9916 3.84007,1.8769 3.84007,1.8769 0,0 -4.46255,4.8788 -8.94312,9.2481 l -8.14679,7.9442 0.5426,-10.3622 c 0.29843,-5.6995 0.54209,-12.5338 0.54209,-15.1877 z m -66.59284,2.4262 c 0.0665,0.01 0.13528,0.024 0.20568,0.054 0.56314,0.2351 1.02422,0.8352 1.02422,1.3328 0,0.4979 -0.46108,1.0186 -1.02422,1.1601 -0.56314,0.1401 -1.02371,-0.4596 -1.02371,-1.3327 0,-0.7637 0.3526,-1.2598 0.81803,-1.2134 z m 169.78551,1.9978 c 0.60407,-0.017 1.63314,0.631 3.65042,2.1249 2.10992,1.5628 3.83594,2.9513 3.83594,3.0893 0,0.5969 -2.55961,0.7843 -4.46277,0.324 -2.65863,-0.643 -4.49834,-2.9974 -3.77342,-4.8292 0.17796,-0.4497 0.3874,-0.6987 0.74983,-0.709 z m -43.48985,0.2982 c 0.7563,0 1.55156,0.038 2.38538,0.1039 6.29739,0.4967 7.73863,0.95 11.21844,3.5274 5.42608,4.0191 9.35947,10.0531 10.78848,16.5514 1.02397,4.6562 0.96161,6.2703 -0.4439,11.5182 -1.98811,7.423 -4.99751,11.3366 -10.39574,13.5196 -4.4338,1.7941 -13.90619,2.4483 -15.67863,1.0852 -1.53524,-1.181 -1.86725,-8.1069 -0.50385,-10.5162 2.68359,-4.7424 0.0256,-11.7488 -4.59558,-12.1134 -1.04952,-0.083 -1.90841,-0.7566 -1.90841,-1.4971 0,-1.9998 -5.53478,-6.7234 -8.11682,-6.9272 -2.06998,-0.1635 -2.17736,-0.4089 -1.37459,-3.1445 1.19502,-4.0726 2.21715,-4.8076 4.6271,-3.3275 1.49742,0.9194 1.87371,1.8077 1.45625,3.438 -0.30963,1.2091 -0.0991,2.5224 0.46818,2.9177 0.58152,0.4052 1.03147,0.025 1.03147,-0.8707 0,-1.1449 0.4092,-1.6569 0.61598,-1.9793 3.98996,2.8506 6.70222,3.1791 7.90391,1.8258 1.03875,-1.1695 0.97212,-1.8465 -0.39739,-4.0447 -2.00163,-3.2128 -0.85921,-4.205 4.37699,-3.8189 7.62032,0.5692 15.17065,10.1248 15.17065,19.1998 0,6.0641 -2.95884,9.564 -9.78131,11.5709 -5.38682,1.5845 -6.62963,2.9744 -3.699,4.1357 2.29963,0.9114 8.34035,-1.0147 11.41325,-3.6386 5.55424,-4.7427 7.41957,-13.6439 4.41575,-21.07 -1.77344,-4.3844 -3.56123,-6.6236 -8.45529,-10.5906 -4.31344,-3.4967 -10.31602,-4.4681 -14.97945,-2.4246 -1.57449,0.6896 -2.41348,0.6593 -3.11764,1.2449 -0.81921,-0.5303 -1.76641,-1.2561 -2.49494,-1.987 1.38777,-1.368 4.7765,-2.7224 10.07071,-2.6872 z m -37.42924,10.8107 c 1.10645,0.5098 5.42081,1.1694 6.50864,1.4888 -0.84134,0.3633 -1.30055,0.3719 -2.16317,1.3431 -0.60006,0.6759 -2.25993,1.1359 -3.68867,1.0232 -2.43329,-0.1919 -5.75572,2.0295 -5.75572,3.8478 0,0.4466 -4.95156,5.2817 -11.00346,10.7451 -6.05187,5.4632 -11.23178,9.9149 -11.51041,9.8929 -0.2786,-0.024 5.57227,-6.4303 13.00179,-14.24 7.42952,-7.8102 14.15564,-13.6821 14.611,-14.1009 z m 8.85062,4.5785 c 0.16232,-0.01 0.33147,-0.01 0.50643,0.01 v 6e-4 c 1.39969,0.095 3.18524,0.8442 5.05912,2.2272 2.06385,1.5232 3.14798,1.8322 4.0504,1.1545 1.85877,-1.3961 5.81503,1.9017 6.18567,5.1562 0.26197,2.3006 0.74457,2.7186 3.49849,3.0169 5.45657,0.5934 6.76755,5.6744 2.05931,7.982 -3.14417,1.5411 -3.67936,3.2052 -1.37356,4.272 2.47361,1.1444 1.36245,5.7533 -1.495,6.2007 -1.67756,0.2628 -2.39296,1.0229 -2.40916,2.5616 -0.0142,1.3246 -0.95484,2.6301 -2.38486,3.3088 v -5e-4 c -3.50691,1.6647 -6.17828,1.1671 -9.33897,-1.742 -2.73874,-2.5204 -2.94353,-2.5656 -6.38617,-1.3989 -3.92084,1.3289 -6.19652,0.7782 -6.19652,-1.5001 0,-2.21 4.04687,-3.0272 11.92072,-2.4061 5.1148,0.4036 7.43351,0.179 8.52506,-0.8263 3.48071,-3.206 -0.0502,-5.4908 -8.30389,-5.3733 l -5.9402,0.084 2.38538,-1.7446 c 1.31192,-0.9594 4.10261,-2.0622 6.20169,-2.4505 5.92281,-1.0957 6.2022,-1.2215 6.2022,-2.8024 0,-3.9254 -9.01827,-4.5721 -14.86369,-1.0666 -3.93189,2.3581 -4.34695,2.4191 -3.6003,0.5323 0.3074,-0.7769 2.40418,-2.3485 4.65967,-3.4923 5.75633,-2.9194 6.87465,-4.3417 5.00176,-6.3624 -1.98767,-2.1445 -6.19553,-1.4972 -11.17916,1.7198 l -3.8716,2.4991 v -2.7513 c 0,-3.5912 2.04109,-5.0645 5.56142,-4.0137 2.27819,0.6802 2.86947,0.4845 3.2892,-1.0873 0.28824,-1.0792 1.10031,-1.6425 2.23656,-1.7027 z m 77.38287,7.9551 c 0.19151,0 0.4042,0.014 0.63872,0.032 1.36806,0.1082 2.48771,0.5782 2.48771,1.0449 0,0.4666 -0.84481,1.7955 -1.87689,2.9528 -1.49935,1.6812 -1.8836,1.7837 -1.9079,0.5101 -0.0174,-0.8766 -0.29227,-2.2933 -0.61081,-3.1487 -0.38223,-1.0261 -0.0714,-1.4102 1.26917,-1.3911 z m -91.71895,1.3327 c 0.4119,0.06 0.57148,0.6536 0.8077,1.6134 0.75396,3.0636 -1.23337,11.4521 -2.82825,11.9383 -3.61256,0.9412 -6.9578,1.4555 -13.48083,1.3601 2.99965,-2.765 6.59575,-6.7297 9.81594,-9.9808 3.61155,-3.6462 4.99894,-5.0305 5.68544,-4.931 z m 108.63213,6.8379 c 1.6658,0.071 2.60538,0.7441 4.48965,2.684 3.4903,3.5932 5.57692,7.5533 5.57692,10.5854 0,1.2376 -0.63048,3.0334 -1.40095,3.9915 -1.3527,1.6816 -1.4022,1.6596 -1.4366,-0.6465 -0.10382,-6.9518 -3.96803,-13.6548 -8.07651,-14.0089 -1.08175,-0.095 -2.58125,-0.6076 -3.3321,-1.1421 -1.00818,-0.7176 -0.4305,-1.0733 2.20969,-1.3601 0.77847,-0.085 1.41463,-0.1273 1.9699,-0.1033 z m -6.98924,4.3232 c 1.79619,0.035 3.48657,1.5445 5.78466,3.3502 3.7279,2.9292 4.16925,11.3764 0.72864,13.1294 v 5e-4 c -0.95468,0.4359 -3.07196,0.6865 -4.70462,0.5576 -6.96146,-0.5491 -10.43643,-10.5291 -5.31027,-15.2512 1.30806,-1.2966 2.42388,-1.8073 3.50159,-1.7865 z m 3.2551,3.8799 v 0 c -1.13243,0.047 -2.30278,0.5676 -3.37395,1.5544 -2.58339,2.3797 -2.40074,5.1692 0.47697,7.2818 2.20963,1.6223 2.56112,1.6497 4.77077,0.3762 4.26835,-2.409 1.75328,-8.6852 -1.39113,-9.2036 -0.15983,-0.013 -0.32089,-0.015 -0.48266,-0.01 z m -2.18591,2.928 c 0.0602,0 0.12086,-2e-4 0.1819,0.01 0.7324,0.098 1.49242,1.0887 1.49242,2.2438 0,0.7561 -0.38352,1.3444 -0.85215,1.3074 -1.05312,-0.083 -2.07885,-2.6395 -1.33428,-3.3254 0.1566,-0.1443 0.33152,-0.2178 0.51211,-0.2315 z m -34.4811,10.313 c 2.47498,0.1958 2.18025,0.9143 -2.2164,5.4023 -4.62276,5.4967 -6.31459,3.5823 -13.72578,3.4768 -8.52413,-0.1214 -10.10678,-0.3596 -9.73481,-1.4521 0.24431,-0.7186 1.57601,-1.8554 2.959,-2.526 2.25252,-1.0934 2.79571,-1.0319 5.21415,0.5876 2.90381,1.9446 4.27577,1.6647 5.3237,-1.0852 0.5307,-1.3915 1.31288,-1.5827 3.92173,-0.9535 2.71546,0.6548 3.51203,0.4195 4.77593,-1.4097 0.83426,-1.2076 2.4013,-2.1255 3.48248,-2.0402 z m -81.61621,14.5521 c -2.10819,-0.1659 -26.30175,28.7415 -26.30175,31.4265 0,2.1907 2.82469,0.4291 7.36854,-4.5951 19.29342,-21.3335 22.94936,-26.5146 18.93321,-26.8314 z m -18.10225,0.4801 c -2.39946,-0.1891 -22.51129,21.5612 -22.51129,24.3453 0,3.1501 7.72937,-3.3743 19.03036,-16.0621 4.85294,-5.4485 5.9622,-8.0875 3.48093,-8.2832 z m 36.36625,1.9151 c -1.69799,-0.1346 -7.57934,5.6924 -16.7721,16.6155 -7.68522,9.132 -8.30729,10.1151 -7.17062,11.3415 1.03662,1.1184 4.62333,-1.6218 9.63507,-7.3619 15.54207,-17.8 17.31877,-20.3576 14.30765,-20.5951 z m 18.05988,2.7523 v 10e-4 c -3.20939,0.086 -24.46052,22.4842 -24.46052,25.984 0,3.4113 4.97254,-0.4961 17.12402,-13.456 8.48753,-9.0522 9.67859,-11.0085 7.5892,-12.4649 -0.0647,-0.045 -0.14917,-0.066 -0.2527,-0.064 z m 22.86838,2.0712 c -1.58019,-0.1726 -4.92556,2.8722 -11.84269,10.3513 -12.50368,13.5202 -13.85916,15.3075 -13.11755,17.2987 0.48361,1.2984 1.64093,0.6805 5.89525,-3.1471 9.42276,-8.4772 20.55983,-21.0889 20.21737,-22.8942 -0.18601,-0.9805 -0.53406,-1.5412 -1.15238,-1.6087 z" fill="#00B894" transform="translate(232.92411,82.618836) translate(214.94723,-2680.1623)"/>
</svg>