<?xml version="1.0" ?><svg height="154.25726mm" viewBox="0 0 241.8694 154.25726" width="241.8694mm" xmlns="http://www.w3.org/2000/svg">
    <path d="m 43151.617,2582.3594 c -29.079,0.3748 -13.088,6.5512 -33.953,24.6191 -25.68,22.2373 -21.039,78.2684 -28.268,120.1211 1.079,79.3357 41.864,52.5346 100.778,52.4375 59.701,-0.098 71.215,-68.0706 62.043,-112.2539 -9.171,-44.1832 -34.098,-73.3159 -78.229,-82.541 -8.274,-1.7297 -15.66,-2.4693 -22.371,-2.3828 z m 452.725,8.7597 c -18.212,0.3813 -34.246,6.2044 -46.088,11.4356 -18.947,8.3699 -35.272,30.4965 -44.127,47.0137 0,0 26.616,-17.7631 33.393,-25.0645 6.778,-7.3014 25.281,-13.1342 28.542,-12.6445 3.265,0.4897 53.181,26.4003 65.252,31.6094 12.07,5.2089 53.971,17.6298 54.268,8.414 0.296,-9.2158 -24.39,-40.9577 -56.545,-54.2695 -12.058,-4.9919 -23.768,-6.7229 -34.695,-6.4942 z m -509.106,21.7598 c -6.494,-2.0728 -36.484,50.7149 -36.484,50.7149 0.108,25.2476 -3.885,239.0735 11.113,233.4414 14.998,-5.6322 4.317,-160.0304 2.914,-180.9082 -0.701,-10.4389 26.759,-91.5467 23.428,-102.0704 -0.208,-0.6577 -0.538,-1.0395 -0.971,-1.1777 z m 480.664,4.1484 c -13.132,-0.636 -18.463,11.9997 -30.707,25.1055 -13.06,13.9796 -33.835,20.4354 -35.814,31.0313 -1.978,10.596 -0.991,58.9907 9.15,77.6894 14.439,26.6235 4.255,51.1096 89.293,55.6953 85.038,4.5856 93.893,-98.2132 92.953,-116.0215 -0.94,-17.8084 -14.988,-19.3669 -42.197,-28.2265 -27.208,-8.8597 -64.754,-42.3382 -79.941,-44.9649 -0.949,-0.1641 -1.861,-0.2662 -2.737,-0.3086 z m -73.394,132.1094 c -2.259,0.1152 -3.906,34.6087 -0.885,40.5625 3.118,6.1459 10.382,16.2703 19.975,14.3164 9.592,-1.9539 15.236,-10.9785 15.236,-10.9785 -18.869,-17.7982 -31.737,-41.5646 -34.105,-43.8027 -0.07,-0.07 -0.148,-0.1014 -0.221,-0.098 z m -340.373,65.0098 c -21.547,-0.2094 -43.336,2.3396 -65.186,12.9726 l -15.752,109.7305 166.491,-4.8555 c 0,0 10.68,-73.5104 5.716,-85.3574 -4.963,-11.8469 -41.324,-29.6165 -69.81,-31.5586 -7.122,-0.4855 -14.277,-0.8618 -21.459,-0.9316 z m 452.717,31.3945 c -25.18,0.243 -57.155,3.5161 -70.155,12.1621 -18.908,12.576 -16.696,50.908 -18.631,67.2852 0,0 25.975,4.5466 35.489,4.7597 9.513,0.2131 140.566,-0.5332 140.566,-0.5332 0,0 0.357,-24.8312 -7.894,-44.2636 -8.25,-19.4323 -31.777,-35.1354 -51.672,-38.084 -6.217,-0.9215 -16.258,-1.4366 -27.703,-1.3262 z m -149.893,90.3535 c -10.841,16.7997 -4.67,199.1016 -4.67,199.1016 0,0 40.896,-1.8123 135.555,-0.1426 94.659,1.6697 183.275,-3.8828 183.275,-3.8828 0,0 9.513,-53.9988 10.342,-74.6035 0.829,-20.6047 -6.756,-116.1192 -6.756,-116.1192 l -84.65,-2.4707 z m -131.6,2.0235 -309.564,2.1347 c 0,0 3.669,79.3364 4.424,123.5196 0.756,44.1832 20.178,80.0156 20.178,80.0156 l 283.775,-8.5449 z" fill="#FFFFFF" paint-order="markers stroke fill" transform="translate(82.106057,-70.75176) matrix(0.26458333,0,0,0.26458333,-11438.47,-609.4878)"/>
    <path d="m 43150.073,2571.0109 c -10.549,0.2748 -17.42,2.7287 -33.453,10.0992 -39.359,18.0946 -58.804,42.3668 -68.546,85.5629 -4.27,18.9295 -6.987,124.5764 -4.157,161.5233 1.037,13.5367 0.478,14.7326 -9.681,20.6246 -57.271,33.22 -111.261,93.1956 -112.494,124.9702 -0.739,19.0557 6.379,29.8321 33.145,50.1791 14.958,11.3696 24.589,20.9602 24.458,24.3553 -0.12,3.0804 2.541,8.3014 5.914,11.6016 3.374,3.3005 6.069,7.6742 5.993,9.7212 -0.269,6.927 13.579,17.6189 24.728,19.0904 10.916,1.4409 11.106,1.7318 12.419,19.0268 1.708,22.4911 5.622,33.3249 14.451,40.0354 8.354,6.3486 27.993,7.5691 77.55,4.8193 19.171,-1.0632 56.392,-3.1389 82.715,-4.6134 26.324,-1.4745 66.689,-2.9036 89.707,-3.1747 23.018,-0.2711 43.713,-1.5456 45.99,-2.833 2.751,-1.5573 5.076,-13.575 6.937,-35.8952 l 3.025,-30.4154 9.948,-2.9489 c 21.132,-6.2643 25.639,-45.5631 9.487,-81.239 -5.714,-12.6216 -14.13,-12.193 -19.663,-15.9008 -4.926,-3.3012 -4.008,-22.5459 -4.008,-22.5459 -0.47,-10.6098 -2.922,-24.4883 -13.084,-24.8851 0,0 -4.666,-7.0128 -7.31,-15.3073 -6.768,-21.2227 -31.947,-57.0208 -50,-71.0838 l -15.262,-11.888 0.921,-49.969 c 1.102,-59.8428 4.902,-83.3368 4.902,-83.3368 12.461,1.4821 19.868,-13.2718 8.664,-19.1877 -4.717,-2.4909 -8.937,-2.4773 -8.937,-2.4773 0.633,-17.1511 -19.654,-58.032 -30.736,-70.0075 -17.632,-19.0559 -45.08,-31.9589 -71.372,-33.5503 -4.809,-0.2911 -8.734,-0.4418 -12.251,-0.3502 z m 463.001,16.4951 c -14.79,0.061 -31.049,3.0064 -49.595,8.8767 -44.359,14.0401 -64.875,39.7445 -69.153,86.6452 l -2.156,23.6486 -8.866,-0.3458 c -4.997,-0.1946 -9.971,1.7243 -11.39,4.3927 -3.757,7.064 2.744,14.4502 13.071,14.8525 9.109,0.3547 9.102,0.3981 6.215,20.7753 -1.591,11.2314 -5.601,27.6496 -8.915,36.4852 -7.426,19.8115 -4.367,26.7229 7.423,16.7624 l 7.595,-6.4171 -1.5,10.5977 c -0.825,5.8282 -0.685,11.5878 0.31,12.7984 v 0 c 3.261,3.9685 9.858,2.6199 14.234,-2.9094 3.074,-3.8862 4.608,-4.2797 5.395,-1.3879 2.005,7.3627 12.542,4.8245 17.132,-4.1274 l 4.415,-8.6178 -0.955,8.5626 c -1.243,11.0669 3.483,14.3096 11.666,8.0045 5.585,-4.3026 8.473,-4.3965 20.746,-0.6833 22.407,6.7804 55.4,4.3549 79.138,-5.8166 11.137,-4.7724 20.079,-7.4899 19.876,-6.0395 -0.204,1.4503 2.476,2.7483 5.959,2.8839 5.278,0.2056 6.633,-1.873 8.134,-12.4695 2.118,-14.9543 5.874,-16.2997 8.9,-3.1894 2.385,10.3215 14.962,21.8158 20.587,18.8102 5.643,-3.0173 5.415,-10.5035 -0.643,-20.9812 -3.062,-5.3007 -4.585,-10.4712 -3.378,-11.491 1.207,-1.0198 4.99,4.023 8.407,11.2067 7.51,15.7964 10.979,18.6484 17.262,14.1863 6.778,-4.816 4.966,-12.7995 -7.035,-30.9763 -11.96,-18.114 -15.713,-26.6373 -13.633,-30.972 0.802,-1.6711 6.485,6.8995 12.633,19.0479 11.381,22.5024 16.825,26.4285 24.016,17.3184 3.216,-4.0734 0.413,-12.1157 -13.779,-39.5728 -10.361,-20.0431 -18.02,-39.5358 -18.308,-46.5886 -0.655,-16.1126 -9.142,-44.724 -17.302,-58.3193 -9.123,-15.1973 -32.801,-32.5906 -54.276,-39.8721 -10.107,-3.4267 -20.721,-5.1253 -32.224,-5.0782 z m -420.61,14.3623 c 20.269,10.7424 26.439,15.8382 32.84,27.1395 10.682,18.861 13.812,47.4417 13.812,47.4417 -9.258,1.071 -11.474,14.7644 -4.12,19.0754 5.065,2.9688 6.099,6.9018 5.549,21.0915 -0.624,16.0774 -1.77,18.542 -14.624,31.4453 -7.672,7.6996 -20.812,17.1489 -29.204,21.0003 -28.183,12.5927 -74.389,7.9456 -96.68,-12.6116 -3.654,-3.9491 -4.328,-15.0872 -3.258,-53.9119 1.339,-48.5294 0.808,-49.4512 11.623,-67.5421 8.363,-13.9887 18.663,-24.3296 40.172,-37.3407 19.703,-9.9733 34.297,-0.8269 43.89,4.2126 z m 431.671,2.3026 c 0.718,0 1.992,0.1797 3.803,0.5262 5.357,1.0262 14.225,4.1485 19.708,6.9371 14.726,7.4906 2.905,5.827 -14.494,-2.0393 -8.334,-3.7689 -11.173,-5.4192 -9.017,-5.424 z m -30.665,4.6134 c 2.612,0.1018 7.424,1.5236 10.696,3.1619 3.746,1.8775 4.188,2.9115 1.193,2.7948 -2.611,-0.1017 -7.423,-1.5256 -10.692,-3.164 -3.748,-1.8776 -4.191,-2.9093 -1.197,-2.7927 z m -34.339,1.409 c 1.835,0.072 2.687,0.5389 1.888,1.0399 -0.802,0.5008 -6.085,3.2584 -11.746,6.1264 l -10.289,5.2141 8.403,-6.2559 c 4.621,-3.4408 9.907,-6.1962 11.744,-6.1245 z m 16.111,13.6048 c 40.327,24.183 65.61,41.3355 107.959,56.7682 11.5,4.0261 12.481,5.4235 12.928,18.4156 0.652,18.9509 -4.894,35.8603 -18.647,56.8402 -14.078,21.4829 -28.24,32.0313 -50.399,37.5421 -37.856,9.4149 -74.121,-3.5908 -92.751,-33.2639 -12.849,-20.4631 -14.397,-28.7859 -6.676,-35.9271 8.011,-7.4109 6.706,-15.0035 -2.882,-16.7773 -5.854,-1.0826 -7.312,-4.1481 -7.945,-16.6966 -1.881,-21.1569 0.08,-16.0049 17.517,-29.0218 10.057,-7.5078 22.257,-19.1888 27.11,-25.9574 6.045,-8.4303 10.929,-14.1411 13.786,-11.922 z m -488.435,3.7689 c 0.23,-0.1152 0.408,-0.1133 0.531,0.019 0.779,0.8427 -2.979,11.086 -8.348,22.7637 -11.136,24.2135 -16.912,32.0615 -13.187,17.9169 2.858,-10.8563 17.562,-38.9724 21.004,-40.6996 z m 588.599,13.263 c 2.625,0.1208 5.207,1.0899 6.414,2.5572 4.379,5.3251 0.774,6.4567 -7.632,2.3937 -6.45,-3.1187 -6.634,-3.7597 -1.37,-4.7768 0.836,-0.1616 1.714,-0.2143 2.588,-0.1741 z m -535.342,19.222 c -11.077,-0.4913 -12.393,9.5533 -2.262,17.2675 9.223,7.024 16.251,5.5945 17.93,-3.6458 1.59,-8.7438 -3.395,-13.076 -15.668,-13.6217 z m 54.266,0.1337 c -2.026,0.2505 -4.48,1.1646 -7.258,2.8351 -8.098,4.8669 -10.734,11.0685 -6.604,15.5316 4.583,4.9539 14.08,2.1622 17.803,-5.2331 4.361,-8.6669 2.133,-13.8851 -3.941,-13.1336 z m 375.178,15.9411 c -4.782,-0.1863 -6.837,2.2681 -8.794,10.5087 -1.537,6.467 -1.034,11.8823 1.26,13.5856 6.042,4.4874 11.179,3.6808 15.383,-2.4148 5.269,-7.6513 0.307,-21.3619 -7.849,-21.6795 z m -358.531,0.028 c -4.356,0.051 -13.769,8.9851 -11.86,12.3571 0.992,1.7542 4.813,0.3447 8.627,-3.1854 3.765,-3.4841 5.899,-7.357 4.745,-8.6072 -0.369,-0.3975 -0.889,-0.5716 -1.512,-0.5645 z m 391.472,2.8521 c -7.347,-0.2863 -12.204,10.1141 -8.832,18.908 3.529,9.2065 15.978,7.9379 18.78,-1.9142 2.502,-8.7969 -2.115,-16.6888 -9.948,-16.9938 z m -478.985,3.2086 c -0.75,0.073 -1.371,0.2935 -1.806,0.6961 -1.352,1.2508 0.237,4.4109 3.534,7.0221 7.078,5.6105 10.016,6.0313 12.836,1.8419 2.204,-3.274 -9.318,-10.0694 -14.564,-9.5601 z m 25.468,27.2775 c -6.928,-0.2919 -5.077,10.3767 4.507,16.0685 v 0 c 11.329,6.7288 32.328,7.5093 41.585,1.5469 12.152,-7.827 7.151,-12.1532 -15.139,-13.1039 -11.214,-0.4788 -23.566,-2.1286 -27.446,-3.6669 -1.35,-0.5356 -2.517,-0.8008 -3.507,-0.8425 z m 471.916,31.2245 c -3.205,-0.3412 -8.286,1.0482 -15.257,4.1657 -5.863,2.6224 -15.856,3.994 -23.133,3.1747 -7.049,-0.7934 -13.522,0.038 -14.392,1.8462 -2.036,4.2416 6.472,13.2817 14.389,15.2918 14.279,3.6255 40.906,-7.849 42.382,-18.2628 0.539,-3.8025 -0.786,-5.8744 -3.989,-6.2156 z m -114.424,20.2023 c 0.265,-0.1234 0.486,0.3648 0.622,1.5365 v 0 c 0.362,3.1242 -0.298,7.4138 -1.468,9.5324 -1.176,2.1182 -1.485,-0.4384 -0.667,-5.6809 0.505,-3.2767 1.07,-5.1822 1.511,-5.388 z m -444.76,3.6904 c 0.572,0.5921 1.948,4.8005 4.616,13.1251 3.054,9.5352 6.208,24.3424 7.008,32.9053 2.173,23.2683 -4.498,19.1727 -7.625,-4.6813 -1.441,-10.9999 -3.141,-25.7512 -3.778,-32.7801 -0.558,-6.1367 -0.791,-9.1612 -0.221,-8.569 z m 171.644,7.7075 c 0.483,0.6475 -0.173,10.919 -1.456,22.8252 -2.328,21.5881 -2.358,21.6417 -10.604,19.0692 -33.074,-10.3192 -69.075,-12.8382 -96.74,-6.7674 -10.17,2.2314 -19.85,4.007 -21.512,3.9429 -1.664,-0.064 -2.772,-6.556 -2.467,-14.4239 0.305,-7.868 0.91,-14.2658 1.345,-14.2202 0.436,0.047 11.485,3.0818 24.391,7.2597 36.758,11.8992 66.337,6.7524 96.465,-12.5076 5.333,-3.4947 10.095,-5.8254 10.578,-5.1779 z m 287.508,12.1914 c 1.741,0.068 2.913,1.1932 2.608,2.4999 -0.309,1.3065 -2.19,5.1878 -4.182,8.6262 -3.209,5.54 -3.516,5.2563 -2.609,-2.4977 0.56,-4.8127 2.442,-8.6958 4.183,-8.6284 z m -373.498,41.6736 c 2.776,-0.1399 6.49,-0.09 11.159,0.091 9.718,0.377 16.84,1.9221 15.824,3.4314 -2.672,3.9678 -19.655,5.9171 -27.029,2.0034 -7.451,-3.955 -6.593,-5.1912 0.05,-5.5258 z m -23.1,2.971 c 4.044,0.3457 6.831,3.1163 13.354,10.1649 8.07,8.7222 9.662,12.1218 6.222,13.2906 -5.288,1.798 -28.401,0.6198 -36.597,-1.8653 -3.305,-1.0016 -5.39,-4.7041 -5.214,-9.2565 0.234,-6.0307 2.8,-8.2324 12.517,-10.7378 4.412,-1.1373 7.291,-1.8033 9.718,-1.5959 z m 487.437,5.0973 c -21.719,-0.2915 -43.834,3.3969 -66.138,11.0901 -30.069,10.3714 -54.261,31.8469 -90.29,80.1516 -51.097,68.5026 -51.536,94.3652 -20.668,138.6723 4.905,7.0404 17.292,9.3381 16.651,15.2793 l -0.583,23.2455 c -0.375,14.9421 2.419,35.1385 2.533,38.5011 0.28,8.2835 8.193,8.2223 30.674,7.5399 48.785,-1.4807 97.498,0.6131 136.661,1.4537 110.198,2.3186 159.588,-0.4211 169.318,-9.3925 3.697,-3.4106 5.794,-14.1442 7.548,-42.4206 1.919,-30.9208 -0.377,-36.0344 6.583,-37.3145 l 10.604,-5.4734 c 23.32,-12.037 35.917,-61.586 -7.625,-89.5886 -12.648,-8.1332 -14.916,-12.3721 -16.22,-30.278 -0.469,-6.4166 -2.574,-8.2529 -10.736,-9.3626 -7.421,-1.0095 -11.739,-4.1734 -16.05,-11.765 -8.527,-15.0176 -23.199,-29.0591 -47.921,-45.8585 -33.044,-22.4559 -68.143,-33.9939 -104.341,-34.4798 z m -402.978,0.3374 c 7.434,0.2884 5.866,5.2931 -3.865,12.3549 -7.239,5.2527 -30.143,8.4218 -29.976,4.1466 0.101,-2.5976 29.002,-16.6892 33.841,-16.5015 z m 19.442,13.6641 0.585,32.7207 c 0.318,17.9958 0.958,34.7114 1.421,37.1473 0.638,3.3686 -4.497,4.4741 -21.454,4.6176 -12.263,0.1035 -39.95,0.923 -61.533,1.8208 -54.932,2.2858 -52.101,2.6904 -48.031,-6.8756 1.878,-4.4188 3.83,-18.7336 4.337,-31.8123 l 0.924,-23.7802 11.828,2.8563 c 17.956,4.3361 29.575,3.1039 37.759,-4.0086 6.801,-5.9098 8.345,-6.4684 14.68,-1.3667 16.261,13.0946 33.028,9.9735 48.356,-2.2876 z m 365.203,3.8899 c 4.564,0.039 10.612,0.319 17.045,0.8318 l 23.393,1.8653 -14.581,6.5128 c -8.017,3.5822 -16.861,6.4581 -19.653,6.3875 -5.551,-0.1386 -17.211,-12.3216 -14.338,-14.9799 0.491,-0.4539 3.57,-0.6564 8.134,-0.6175 z m -23.341,3.7965 c 3.775,-0.1055 6.682,2.6439 10.4,9.5473 7.736,14.3543 20.327,17.5593 39.348,10.0141 7.911,-3.1387 17.582,-8.6662 21.491,-12.2827 4.729,-4.3765 9.201,-5.8195 13.371,-4.3164 6.271,2.2572 6.271,2.2706 -0.467,12.0536 -3.711,5.3865 -11.538,12.1281 -17.394,14.9819 h -0.02 c -18.617,9.0742 -45.106,4.259 -65.006,-11.8158 -11.38,-9.1923 -12.654,-15.9257 -3.404,-17.9656 0.581,-0.1278 1.138,-0.2014 1.677,-0.2164 z m 98.724,8.3801 c 2.058,-0.171 5.604,2.5022 10.284,7.8878 5.931,6.8267 22.474,50.1154 19.839,51.9192 -0.507,0.3477 -28.167,1.2512 -61.468,2.0097 -68.013,1.5488 -98.252,0.8265 -101.254,-2.4193 -3.271,-3.5353 -0.08,-20.1549 3.469,-35.0721 6.424,-26.9807 10.19,-27.4766 21.634,-12.4892 17.13,22.4304 51.898,29.9067 76.974,20.5534 10.642,-3.9687 28.229,-21.8494 28.506,-28.9814 0.08,-2.1779 0.781,-3.3055 2.016,-3.4081 z m -626.553,0.9782 1.836,17.3036 c 1.01,9.5171 1.178,23.675 0.375,31.4601 -1.341,13.001 -2.268,14.2852 -11.353,15.7651 -16.87,2.7477 -17.378,3.772 -18.685,37.4529 l -1.225,31.5597 -11.306,4.2167 c -6.217,2.3194 -11.36,5.721 -11.436,7.5588 -0.07,1.8378 -1.917,3.2701 -4.104,3.1854 -5.117,-0.2009 -39.274,-29.161 -41.25,-34.9744 -4.5,-13.2442 36.638,-66.1015 74.607,-95.8614 z m 233.811,16.1131 9.797,13.418 c 5.39,7.3803 12.135,17.7515 14.993,23.0481 l 5.194,9.6323 -18.052,-0.7004 c -15.786,-0.6124 -17.526,-1.2875 -13.858,-5.3731 2.833,-3.1557 3.826,-10.4117 3.059,-22.3499 z m 237.258,13.295 -1.549,14.2668 c -1.519,13.9927 -1.781,14.2769 -13.51,14.791 -6.577,0.2884 -11.908,-0.7014 -11.854,-2.2006 0.06,-1.4991 6.139,-8.1549 13.51,-14.791 z m 202.956,3.1004 c 2.858,0.1109 21.75,21.1318 21.636,24.073 -0.05,1.2281 -4.204,2.0711 -9.235,1.876 -8.018,-0.3111 -9.492,-1.9433 -11.886,-13.1953 -1.505,-7.0624 -1.734,-12.8004 -0.515,-12.7537 z m -234.088,39.6564 c 46.875,-0.9914 227.497,6.0238 266.459,5.9847 20.078,-0.9376 30.273,-0.872 29.489,9.5821 -0.173,5.0855 0.416,12.4732 1.312,16.4166 1.284,5.6619 -0.146,7.765 -6.799,10.0035 -10.662,3.5869 -11.139,11.4924 -0.999,16.5949 9.872,4.9696 9.795,11.2759 -0.169,13.3692 -11.073,2.3271 -13.838,11.2877 -5.684,18.4304 3.68,3.2226 9.749,5.9621 13.483,6.2092 6.171,0.4084 10.303,7.2114 -3.896,8.603 -16.222,1.5899 -14.091,18.3788 -3.043,21.6114 7.853,2.298 7.988,2.9046 6.422,28.6695 -0.882,14.4768 -2.578,27.7685 -3.769,29.5375 -4.606,6.8447 -34.196,8.8822 -121.598,8.3738 v 0 c -49.895,-0.29 -146.847,0.2254 -172.42,-0.437 -13.02,-0.4403 -11.188,2.6983 -11.696,-9.6534 -1.302,-31.6556 -3.029,-41.6296 8.797,-41.1709 20.137,0.7812 29.269,-14.8932 13.661,-23.445 -6.584,-3.6078 -6.595,-3.7945 -0.483,-7.2893 8.001,-4.5751 8.047,-8.0933 0.206,-15.9879 -7.563,-7.594 -8.295,-5.9264 1.904,-8.0703 6.004,-1.2618 8.288,-3.8124 8.509,-9.5007 0.376,-9.6919 -9.383,-15.849 -21.639,-13.6514 -14.338,2.5701 -14.2,-4.2671 0.25,-12.6244 7.231,-4.1819 13.219,-9.5566 13.317,-11.9431 0.269,-6.9483 -8.002,-12.3893 -17.688,-11.6334 -8.521,0.6648 -8.97,0.011 -9.333,-13.6429 0.09,-15.6463 0.863,-14.0285 15.407,-14.3361 z m -286.189,1.6841 c 19.863,-0.1664 82.114,0.5865 103.1,0.629 22.167,0.045 28.822,-3.1454 28.39,20.766 0.761,18.66 3.827,22.9654 -4.599,25.3583 -16.832,4.7804 -11.942,17.0698 -3.097,17.9316 10.054,0.9796 11.776,5.2698 -2.764,7.8272 -12.504,2.1993 -9.854,19.2766 6.075,18.7444 9.142,-0.3054 11.812,4.7562 1.035,5.6229 -14.615,1.1754 -10.546,16.4166 -1.095,16.8697 5.822,0.2791 11.174,4.4868 1.448,7.9749 -6.708,2.4053 -9.323,12.8311 1.971,15.0416 5.545,1.0853 1.596,13.4865 0.964,29.7998 -1.016,26.1689 -1.047,26.1905 -37.581,24.9475 -12.24,-0.4161 -41.649,0.6118 -65.353,2.2833 -23.704,1.6716 -67.5,4.2224 -97.326,5.6703 v 0 c -58.363,2.8335 -56.093,2.8543 -69.88,-0.6664 -8.114,-2.0721 -10.14,-5.0866 -15.675,-23.3133 l -6.36,-20.9345 6.882,-4.866 c 5.163,-3.6525 6.445,-6.9276 5.141,-13.1358 -0.957,-4.5489 -0.27,-9.1017 1.529,-10.1182 5.409,-3.0603 4.132,-13.7328 -2.08,-17.3735 -4.079,-2.3977 -5.267,-5.7699 -3.971,-11.3702 1.274,-5.4896 0.234,-8.651 -3.346,-10.186 -4.791,-2.0589 -4.776,-2.641 0.225,-7.7543 7.33,-7.4936 5.365,-16.4636 -4.191,-19.1094 -6.463,-1.7898 -4.687,-3.9596 -6.002,-15.6789 -0.88,-7.8369 -1.489,-20.1336 -1.329,-27.3262 -2.496,-15.5432 3.892,-11.6409 23.689,-12.2425 53.227,-1.6174 102.35,-4.9423 144.206,-5.3913 z m 255.8,25.5224 c 0.802,-0.2687 0.988,1.274 0.861,4.8893 -0.124,3.9352 -1.658,7.1001 -3.408,7.0327 -3.982,-0.1545 -3.851,-3.5281 0.372,-9.5367 0.99,-1.4097 1.693,-2.224 2.175,-2.3853 z m 203.667,5.6238 c -4.875,-0.4662 -9.824,5.9476 -14.14,18.649 -9.749,28.7034 -8.629,82.076 1.874,89.3296 6.58,4.5429 14.663,3.5398 17.877,-2.2176 4.379,-7.853 3.69,-98.1519 -0.786,-102.979 -1.582,-1.706 -3.2,-2.6266 -4.825,-2.782 z m -524.847,4.4374 c -2.068,0.097 -4.185,1.1787 -6.375,3.2044 -6.13,5.6732 -6.112,2.0879 -0.161,32.0628 6.601,33.2645 14.401,62.6704 18.018,67.9218 1.615,2.34 6.646,3.9682 11.19,3.6182 11.63,-0.8967 12.364,-10.9329 3.578,-49.0671 -9.23,-40.0648 -17.288,-58.1588 -26.25,-57.7401 z m 463.764,-0.1335 c -5.483,0.9168 -6.864,2.8139 -7.049,11.8391 -0.307,15.3073 13.252,89.9217 17.304,95.2058 7.238,9.4443 21.653,3.2389 22.148,-9.5346 0.452,-11.6431 -14.142,-68.203 -19.327,-83.9076 -3.707,-11.2258 -8.467,-14.3733 -13.076,-13.6027 z m -398.055,4.8106 c -4.37,0.059 -10.383,9.04 -14.763,22.577 -5.842,18.044 -7.396,63.2315 -2.398,69.7511 5.891,7.6865 15.535,6.7819 19.887,-1.8653 4.709,-9.354 3.88,-86.6708 -0.965,-89.9302 -0.547,-0.3685 -1.137,-0.541 -1.761,-0.5326 z m 42.136,11.1389 c -0.769,-0.2026 -1.635,-0.1612 -2.598,0.1188 -17.301,5.0304 -30.809,66.5583 -18.217,82.9845 5.354,6.9873 12.121,6.1634 15.648,-1.9056 1.694,-3.8742 5.032,-21.2951 7.421,-38.7133 3.798,-27.6641 3.131,-41.0666 -2.254,-42.4844 z m 236.285,60.6535 c 1.103,0.088 2.042,0.4169 2.549,0.9655 1.016,1.0969 -0.894,1.7771 -4.238,1.5088 -3.7,-0.2963 -4.422,-1.0785 -1.846,-1.9947 1.165,-0.4149 2.432,-0.5679 3.535,-0.4796 z m 34.857,34.7455 c -3.442,-0.04 -8.037,2.6425 -10.428,5.3048 -5.623,6.2649 -1.819,13.0367 4.573,8.1382 8.414,-6.4511 9.86,1.5523 -0.494,8.9893 -9.631,6.9175 -9.048,10.2941 -7.372,11.2958 4.803,2.8708 13.205,2.4858 18.546,2.7142 11.083,0.4299 15.295,-0.5628 14.477,-3.4165 -0.635,-2.2135 -4.357,-6.2177 -8.203,-5.3414 -14.802,3.3722 -9.721,-0.5423 -3.271,-5.5217 2.462,-1.9006 5.395,-9.0956 4.979,-13.148 -1.984,-5.6423 -3.574,-9.0941 -12.807,-9.0147 z m 26.809,2.2298 c -1.517,0.8556 -4.325,1.4994 -3.168,6.5992 0.902,3.9748 1.478,11.8772 1.279,17.5603 -0.284,8.1994 2.681,10.9374 7.725,11.1331 7.721,0.2996 3.765,-6.8547 2.68,-23.8757 -0.588,-9.2282 -3.386,-14.3097 -8.516,-11.4169 z m -431.544,2.7347 c -4.964,2.0685 -6.584,18.7227 -1.428,32.5437 1.741,4.6656 6.229,5.509 8.82,3.1119 5.11,-4.7291 0.279,-38.8518 -7.392,-35.6556 z m -24.162,0.7393 c -9.464,-0.3672 -14.813,3.9346 -15.982,10.6605 -1.11,6.3901 2.143,7.3488 5.57,4.2649 5.094,-4.5856 12.552,-4.755 12.379,-0.2823 -0.07,1.7656 -6.816,9.0095 -10.429,11.8682 -3.611,2.8577 -6.641,7.0264 -6.73,9.2608 -0.09,2.3728 3.331,4.2888 23.421,2.641 16.506,-1.3538 11.639,-11.5403 3.954,-10.5082 -15.265,2.0499 -9.796,1.0134 -0.583,-11.701 5.65,-7.7969 -1.928,-15.8287 -11.6,-16.2039 z" fill="#00B894" transform="translate(82.106057,-70.75176) matrix(0.26458333,0,0,0.26458333,-11438.47,-609.4878)"/>
</svg>