<?xml version="1.0" ?><svg height="287.38602mm" viewBox="0 0 133.07428 287.38602" width="133.07428mm" xmlns="http://www.w3.org/2000/svg">
    <path d="m 43707.043,1366.2793 c -61.321,1.1037 -94.699,56.762 -100.611,124.6133 -6.103,70.04 29.928,90.9979 76.119,96.084 65.637,7.2275 104.268,-51.379 111.027,-103.8204 6.759,-52.4413 -15.354,-114.2731 -80.514,-116.8124 -2.036,-0.079 -4.043,-0.1001 -6.021,-0.065 z m 9.877,252.4824 c -52.89,0.6496 -78.219,13.8782 -98.758,48.1895 0,0 -25.076,55.5002 -18.383,205.7968 6.693,150.2967 22.377,162.1068 111.948,166.1817 89.571,4.0748 109.979,-70.8084 114.31,-123.7813 4.331,-52.9729 -14.427,-174.908 -18.168,-226.1093 -3.74,-51.2012 -38.059,-70.927 -90.949,-70.2774 z" fill="#FFFFFF" paint-order="markers stroke fill" transform="translate(-20.208798,99.907192) matrix(0.26458333,0,0,0.26458333,-11472.793,-457.2628)"/>
    <path d="m 43516.102,1350.6916 c -2.22,0.33 -4.894,0.7462 -8.162,2.8125 -3.226,2.0405 -4.604,10.5944 -5.469,33.9707 -1.37,31.9206 2.424,33.4623 -14.31,29.7597 -10.726,-1.209 -14.301,-0.339 -19.352,4.7129 -3.408,3.4079 -9.063,5.8193 -12.572,5.3594 -7.052,-0.9242 -9.538,1.9205 -14.92,17.0781 -8.117,22.8511 0.158,59.991 14.182,63.6582 5.732,1.499 6.09,2.9762 4.392,18.0313 -1.017,9.0197 -3.169,42.6712 -4.783,74.7793 -2.488,49.4534 -2.257,61.0261 1.502,75.7011 8.382,32.7249 24.309,44.9941 54.81,42.2285 19.907,-1.8051 37.616,-11.3722 70.317,-37.9941 11.4,-9.2795 21.044,-16.5261 21.435,-16.1035 0.391,0.422 -1.817,13.2849 -4.904,28.584 -7.928,39.2927 -13.505,188.653 -8.568,229.4746 4.027,33.3086 12.395,68.1331 20.461,85.1758 3.476,7.3447 6.313,21.8098 7.488,38.1777 1.038,14.4938 4.397,44.8726 7.463,67.5078 3.065,22.6354 7.616,60.1875 10.113,83.4492 2.499,23.262 17.361,120.1692 21.211,141.1046 4.041,30.5193 9.245,28.1257 -14.783,42.8675 -22.981,14.1416 -67.318,43.2902 -68.231,44.7701 -0.923,1.4801 -0.935,4.6048 -0.04,6.9434 v 0 c 3.882,10.1151 33.045,1.042 74.194,-23.0821 12.726,-7.4614 26.226,-16.8527 30.001,-20.871 6.668,-7.095 6.81,-8.3293 4.961,-42.709 -1.048,-19.4714 -4.482,-48.1571 -7.638,-63.7461 -7.508,-37.0989 -10.661,-57.808 -16.344,-107.4004 -2.585,-22.5458 -7.154,-55.4865 -10.156,-73.2012 -7.756,-45.7667 -8.425,-58.8494 -2.928,-57.416 24.993,8.0427 80.596,12.3931 129.59,-5.9414 5.304,-2.8386 5.582,-2.2648 3.973,8.1914 -11.343,73.6877 -11.818,81.7159 -11.928,204.6211 -0.11,113.162 0.301,123.744 5.086,131.0508 5.525,8.4379 82.05,48.9004 92.484,48.9004 3.044,0 7.211,-2.0173 9.256,-4.4805 7.798,-9.3982 -0.811,-17.1477 -40.498,-36.459 -34.102,-16.5948 -38.263,-19.4398 -39.822,-27.2265 -2.842,-14.2172 -1.925,-208.787 1.15,-243.6719 1.561,-17.7147 4.199,-47.7776 5.861,-66.8067 2.791,-31.9848 4.006,-36.6285 16.071,-61.4882 18.838,-38.8164 23.092,-67.8801 21.082,-144.0137 -1.324,-50.1618 -4.332,-82.7536 -12.295,-133.2246 -2.69,-17.0535 3.445,-4.6011 14.428,29.2793 10.892,33.6085 25.948,97.8783 38.334,163.6425 l 7.933,42.1309 -13.348,26.6797 c -17.459,34.8969 -18.228,38.1639 -10.763,45.6289 8.211,8.2119 15.72,3.9619 21.783,-12.3281 5.291,-15.0301 4.674,-12.7371 2.967,1.6738 -0.922,7.7838 -3.555,19.4803 -5.852,25.9902 -2.297,6.5099 -4.178,15.0548 -4.178,18.9903 0,10.573 11.285,7.8008 19.799,-4.8653 l 6.826,-10.1523 -1.964,12.2988 c -1.634,10.2091 -1.08,12.6378 3.248,14.2988 3.481,1.3363 6.873,-0.05 10.213,-4.1738 3.276,-4.0471 7.07,-5.633 11.005,-4.6035 4.296,1.1231 7.453,-0.6319 11.075,-6.1562 4.238,-6.4691 4.793,-12.2167 3.416,-35.3047 -1.355,-22.6977 -3.09,-30.2315 -9.803,-42.5684 -4.489,-8.2444 -11.639,-17.9184 -15.895,-21.498 -6.784,-5.7097 -8.186,-10.083 -11.41,-35.627 -5.059,-40.1033 -21.888,-118.3433 -34.234,-159.1504 -18.629,-61.5722 -51.889,-120.6155 -74.424,-132.1113 -19.556,-9.977 -44.709,-14.5614 -79.316,-14.4551 -65.042,0.1998 -100.675,11.8562 -151.836,49.6641 -36.476,26.9563 -46.185,32.2207 -59.424,32.2207 -11.639,0 -17.381,-5.5446 -22.623,-21.8477 -3.693,-11.4908 -2.466,-79.4325 2.543,-140.5742 0.534,-18.3462 -1.176,-22.4706 15.637,-27.2031 27.117,-7.6334 37.384,-31.6102 38.706,-57.6323 0.388,-7.6342 -0.497,-20.9117 -9.865,-30.7513 -1.89,-10.0001 1.685,-66.6565 -12.358,-64.5695 z m 190.807,3.7167 c -20.613,-0.3909 -38.924,4.1071 -60.026,14.2598 -17.294,7.2402 -28.497,22.7636 -27.369,39.7754 0.479,4.5505 -2.212,14.8286 -5.98,22.8398 -3.769,8.0115 -8.994,23.2942 -11.614,33.9629 -4.117,16.7746 -4.605,18.6592 -4.605,18.6592 -23.215,3.4299 -20.554,19.9081 -2.451,18.7117 0,0 0.712,3.2867 1.748,12.0373 4.669,39.4218 34.095,71.7249 68.85,79.1193 38.718,8.2375 77.489,-3.5676 106.296,-28.9747 23.526,-20.7499 34.756,-56.5979 34.756,-110.9629 0,-64.987 -18.505,-88.0908 -78.037,-97.4356 -7.571,-1.1884 -14.697,-1.8618 -21.568,-1.9922 z m -2.364,30.6114 c 0.85,7.3994 1.401,12.8953 12.069,12.76 6.443,-0.081 15.561,-4.1361 17.984,-6.2483 10.605,-9.2435 6.764,1.5347 11.184,13.3242 7.175,19.1347 16.037,28.6413 24.676,26.4727 5.163,-1.2957 7.536,0.2114 11.058,7.0215 5.859,11.2937 5.85,43.5511 0,66.0078 -8.044,30.884 -20.991,47.1738 -50.517,60.7187 -16.002,7.3408 -29.623,9.4398 -42.477,10.1348 -44.036,2.381 -74.698,-37.0289 -75.705,-73.7945 24.785,-7.6778 10.625,-20.405 2.679,-18.4797 0.862,-11.2761 9.41,-44.6374 15.932,-57.4094 7.953,-15.5729 23.109,-36.7754 26.406,-36.7754 1.431,0 1.855,1.2107 0.94,2.6914 -2.728,4.4128 6.61,11.5471 12.943,9.8906 3.23,-0.8447 11.728,-6.6881 18.883,-12.9863 11.105,-7.6005 12.131,-19.1179 13.945,-3.3281 z m 15.166,59.9004 c -8.835,1.0541 -20.236,14.4183 -17.775,20.834 2.306,6.006 14.799,3.0302 22.732,-5.4141 8.29,-8.8229 5.758,-16.6981 -4.957,-15.4199 z m -51.558,0.7558 c -1.321,0.2095 -2.617,0.7826 -3.834,1.793 -5.4,4.4804 -5.32,5.3006 1.617,16.6797 6.447,10.5744 9.313,11.5841 14.643,5.1621 7.267,-8.7578 -3.177,-25.1009 -12.426,-23.6348 z m 57.56,23.3321 c -5.934,1.1794 -15.826,5.8263 -15.826,8.3007 0,3.6963 10.235,2.4768 16.274,-1.9394 3.125,-2.284 4.77,-5.063 3.656,-6.1758 -0.586,-0.5861 -2.125,-0.5787 -4.104,-0.1855 z m -66.16,1.7285 c -4.252,0 -2.49,5.4981 2.692,8.3984 7.23,4.045 11.53,0.2686 5.072,-4.4531 -2.967,-2.1699 -6.462,-3.9453 -7.764,-3.9453 z m 54.094,22.2968 c -2.338,0.2017 -6.105,1.5195 -12.557,4.0626 -8.165,3.2176 -19.957,5.8496 -26.207,5.8496 -19.781,0 -27.356,6.2686 -14.039,11.6211 22.837,9.1795 62.497,-4.0192 56.787,-18.8985 -0.737,-1.9229 -1.646,-2.8364 -3.984,-2.6348 z m 11.09,139.1153 c 9.046,0.3732 17.364,1.1734 23.859,2.4512 27.197,5.3509 36.64,10.9644 41.707,24.7871 12.238,33.3966 23.156,129.7176 23.086,203.709 -0.06,65.2998 -3.936,89.4174 -19.295,120.0488 -12.293,24.5218 -27.054,35.9194 -54.656,42.1972 -21.453,4.8791 -61.885,5.7283 -79.324,1.6661 -6.612,-1.5401 -14.581,-7.1572 -22.455,-15.8243 -10.37,-11.4172 -13.214,-17.5021 -18.932,-40.5019 -6.141,-24.7012 -6.821,-35.0142 -7.777,-118.0449 -1.034,-89.7671 2.244,-140.798 11.193,-174.2891 4.104,-15.3557 18.061,-33.0574 31.041,-39.375 10.721,-5.2177 44.415,-7.9438 71.553,-6.8242 z" fill="#00B894" transform="translate(-20.208798,99.907192) matrix(0.26458333,0,0,0.26458333,-11472.793,-457.2628)"/>
</svg>