<?xml version="1.0" ?><svg height="174.54562mm" viewBox="0 0 122.9326 174.54562" width="122.9326mm" xmlns="http://www.w3.org/2000/svg">
    <path color="#000" d="m 14926.592,6842.6094 c -44.689,2e-4 -80.916,37.3872 -80.916,83.5066 0,46.1194 36.227,83.5063 80.916,83.5064 44.688,-1e-4 80.915,-37.387 80.916,-83.5064 0,-46.1194 -36.228,-83.5064 -80.916,-83.5066 z m 0.443,212.8426 c -61.169,-0.5176 -76.921,22.7227 -77.099,42.8672 -0.116,13.1593 0.593,43.7521 1.225,68.6526 -21.142,21.3974 -33.04,50.5621 -33.041,80.9925 0,62.9148 49.834,113.9184 111.31,113.9187 61.476,-3e-4 111.313,-51.0039 111.311,-113.9187 0,-24.8166 0.331,-64.7148 -14.303,-84.503 0.518,-21.5085 -7.305,-26.7048 -7.338,-39.7239 -0.09,-36.9676 -19.803,-66.0161 -86.003,-68.1616 -2.069,-0.067 -4.088,-0.1072 -6.062,-0.1237 z" fill="#FFFFFF" overflow="visible" paint-order="fill markers stroke" transform="translate(-147.59183,-76.655299) matrix(0.2881372,0,0,0.2881372,-4092.0098,-1892.632)"/>
    <path d="m 18375.715,420.25781 c -4.147,-0.0588 -8.339,0.2239 -12.586,0.83789 -26.862,3.88357 -41.953,10.25429 -61.424,25.9336 -3.988,3.21205 -7.688,6.88719 -11.09,10.91015 -66.836,12.54715 -47.412,32.59573 -34.6,30.49945 13.303,-2.17676 18.005,-2.90179 18.005,-2.90179 0,0 -28.419,5.80505 -23.182,24.90234 1.556,5.67386 10.486,5.90718 15.859,5.50977 -1.05,10.75114 -0.429,21.49204 2.125,31.49805 9.116,35.71438 31.667,57.90487 72.729,71.55664 32.11,10.67579 66.625,0.41345 94.263,-28.02539 7.994,-8.22463 15.846,-18.49038 17.45,-22.81446 5.41,-14.5733 5.959,-15.01047 18.828,-14.90625 18.045,0.14604 18.819,-8.30494 1.308,-14.30273 -9.108,-3.12005 -9.292,-3.41853 -9.88,-15.9082 -0.169,-3.5813 -0.387,-6.98475 -0.649,-10.25586 2.727,-0.1 4.851,-0.8247 9.406,1.29492 8.444,3.92815 17.173,-15.00559 5.438,-19.12696 -7.968,-2.79827 -15.483,-8.09273 -19.545,-11.24023 -0.08,-0.29912 -0.163,-0.60441 -0.248,-0.90039 3.385,1.81633 9.259,4.62019 15,5.63672 8.73,1.54552 12.807,-17.90279 -14.67,-29.49414 -11.804,-4.97969 -13.651,-5.7719 -18.256,-7.72656 -3.587,-3.77241 -7.677,-7.39906 -12.34,-11.0254 -16.851,-13.10573 -33.966,-19.69666 -51.941,-19.95117 z m 0.736,18.98438 c 11.999,0.024 17.027,1.22474 25.455,5.37304 13.714,6.75173 27.005,19.42107 31.395,29.92774 3.803,9.10172 9.205,47.5959 7.357,52.41406 -0.897,2.33966 -4.772,3.35666 -12.224,3.20703 -6.001,-0.12055 -11.489,0.36093 -12.198,1.07032 -2.687,2.68661 4.041,10.81863 10.942,13.2246 3.955,1.37849 7.191,4.05886 7.191,5.95899 0,5.36942 -16.899,26.56393 -28.662,35.94531 -5.834,4.65296 -16.269,10.59609 -23.189,13.21094 -14.66,5.53888 -16.445,5.58826 -33.827,0.94336 -49.149,-13.1335 -67.662,-40.73642 -58.554,-87.31446 6.409,-32.78698 19.752,-51.41705 47.369,-66.13671 11.96,-6.37427 16.524,-7.43773 33.344,-7.76368 2.028,-0.0392 3.887,-0.0638 5.601,-0.0605 z m -34.662,51.14648 c -0.591,0.0109 -1.196,0.0503 -1.814,0.1211 -5.956,0.68194 -6.844,1.85751 -7.508,9.93359 -0.507,6.16452 0.591,10.63662 3.347,13.68359 7.822,8.64161 15.725,4.94508 18.639,-8.71093 1.856,-8.68485 -3.81,-15.18079 -12.664,-15.02735 z m 49.789,0.59961 c -0.334,-0.002 -0.662,0.0112 -0.982,0.0371 -8.961,0.72453 -12.095,12.21565 -3.826,20.48438 6.876,6.87706 11.438,5.88763 15.892,-3.45313 4.511,-9.45762 2.32,-14.0825 -7.889,-16.64453 -1.125,-0.28277 -2.192,-0.41824 -3.195,-0.42383 z m -79.596,66.94922 c -2.121,-0.0349 -3.763,0.2369 -4.443,0.91602 -3.712,3.71324 13.085,17.96953 26.412,22.41601 15.217,5.07692 19.5,4.96241 19.5,-0.52539 0,-3.03423 -3.559,-6.26968 -10.695,-9.72461 -5.884,-2.8479 -11.286,-6.12882 -12.002,-7.28906 -1.752,-2.8332 -12.406,-5.68875 -18.772,-5.79297 z m 66.207,94.98633 c -18.616,0.0904 -38.427,2.07313 -55.677,5.92969 -25.987,5.80895 -35.183,9.32634 -40.205,15.37695 -1.631,1.96568 -6.107,4.26505 -9.952,5.10937 -3.844,0.84432 -9.707,3.85786 -13.029,6.69727 -8.598,7.35003 -57.408,62.0366 -70.117,78.55859 -31.998,41.60012 -30.174,38.71201 -44.578,70.55274 -3.341,7.38836 -4.634,11.64204 -9.053,29.78515 -2.351,9.65321 1.797,29.98006 7.502,36.75977 7.282,8.65468 21.544,12.46823 31.297,8.36719 6.548,-2.75338 42.096,-24.48083 62.586,-38.25196 4.651,-3.12658 7.116,-4.96183 13.279,-8.83984 -3.909,33.28978 0.393,59.13409 19.483,86.91016 20.262,27.08529 47.175,46.57333 74.8,54.17189 l 11.307,3.1094 v 28.1406 c 0,30.154 2.43,39.7162 10.523,41.418 2.721,0.5722 7.088,1.4915 9.706,2.0449 9.967,2.1078 15.009,1.4284 16.404,-2.2071 0.795,-2.0708 1.445,-17.964 1.445,-35.3183 v -31.5547 l 10.115,-3.1934 c 29.042,-9.16583 48.858,-23.43251 69.684,-50.1777 17.833,-22.90007 26.413,-48.47728 24.072,-71.74414 -3.519,-35.00162 -7.056,-43.39793 -21.482,-50.98242 -8.866,-4.66102 -12.159,-0.42272 -7.17,9.22656 23.436,59.88872 -2.532,112.07741 -57.072,135.91797 -14.825,8.16908 -17.408,8.03871 -19.389,-0.98047 -1.909,-8.68975 -1.095,-9.58234 13.779,-15.05664 6.24,-2.29708 16.714,-7.86341 23.27,-12.37305 31.367,-19.06225 50.019,-57.7711 35.635,-99.66601 l -4.998,-14.2793 6.181,-5.35547 c 10.217,-8.85234 15.912,-7.07719 26.738,8.33008 19.094,27.17634 37.771,45.11004 56.756,54.49219 30.594,15.12042 44.004,11.32678 48.641,-13.77149 2.697,-14.60444 -1.233,-45.01978 -7.397,-57.23633 -16.626,-32.9585 -48.084,-68.01924 -95.025,-105.9121 -12.063,-9.73804 -21.97,-19.87035 -24.543,-25.09766 -6.904,-14.02683 -25.089,-27.55076 -45.002,-33.47656 -12.474,-3.71205 -29.897,-5.51444 -48.514,-5.42383 z m 6.383,16.46289 c 14.676,-0.20964 26.049,1.48408 32.969,5.0625 3.992,2.06489 7.54,3.60667 7.881,3.42578 0.341,-0.18089 4.635,1.35128 9.543,3.40234 6.094,2.54625 8.926,5.23886 8.926,8.48828 0,2.61725 2.675,7.64854 5.947,11.17969 5.332,5.75255 5.951,8.4265 5.951,25.7461 0,15.278 0.689,19.73711 4.787,26.27734 18.983,11.51402 18.977,10.7771 19.014,-10.37891 0,-11.58219 1.206,-17.40884 3.42,-16.99414 0.737,0.13842 1.589,0.96988 2.543,2.51368 0.815,1.32054 8.643,8.17716 17.394,15.23828 22.287,17.98172 34.182,29.43385 43.477,41.85742 4.406,5.89041 8.665,11.246 9.467,11.90039 0.8,0.65461 5.249,8.15184 9.882,16.66015 9.992,18.34513 14.844,40.57183 11.809,54.08399 -3.936,17.50843 -4.776,17.97485 -19.156,10.67578 -7.979,-4.04909 -19.484,-13.61513 -30.899,-25.69141 -21.453,-22.69675 -31.147,-39.18263 -29.521,-50.20703 1.542,-10.45483 -7.107,-25.0561 -18.697,-31.57031 -7.264,-5.43433 -14.976,-7.54287 -23.957,-8.70703 -6.957,-0.90345 -13.019,-2.58318 -13.465,-3.73242 -0.448,-1.14914 -6.874,-6.1976 -14.282,-11.2168 -28.107,-19.04798 -76.326,-19.28663 -117.273,-0.58594 -13.777,6.29216 -17.33,10.47611 -15.408,18.13477 0.965,3.84534 0.5,5.97656 -1.297,5.97656 -5.949,0 -18.715,12.16616 -18.715,17.83594 0,3.13159 -1.961,7.09416 -4.355,8.80469 -7.247,5.17383 -11.766,14.35352 -13.471,27.35547 l -1.617,12.34179 -37.28,23.14258 c -20.505,12.72893 -41.884,25.58789 -47.507,28.57813 l -10.227,5.43945 -2.496,-6.41602 c -8.528,-21.90884 11.098,-68.11655 47.705,-112.32226 18.732,-22.61976 58.381,-67.70197 62.107,-70.6211 3.107,-2.43353 3.757,0.43435 5.026,22.10743 1.204,20.59439 2.234,25.47539 5.951,28.21874 2.471,1.82444 5.388,2.43966 6.482,1.36719 1.096,-1.07236 2.468,-13.57483 3.045,-27.7832 0.793,-19.51637 2.234,-28.27944 5.891,-35.83399 5.742,-11.86108 7.798,-12.66658 50.703,-19.80273 14.873,-2.47371 28.287,-3.78793 39.703,-3.95117 z m -11.095,83.28906 c 18.27,0.13003 34.125,4.77546 47.109,13.9043 6.427,4.51824 6.435,4.55949 2.381,12.71289 -4.646,9.3425 -5.79,9.8233 -10.319,4.33789 -4.775,-5.78511 -20.512,-12.15303 -34.664,-14.02539 -9.142,-1.2098 -15.412,-0.53564 -24.091,2.58594 -11.561,4.15701 -11.889,4.13984 -22.68,-1.08399 -6.022,-2.91542 -12.052,-4.6202 -13.397,-3.78906 -1.345,0.83114 -2.445,0.46266 -2.445,-0.81836 0,-1.28102 5.088,-3.94693 11.305,-5.92188 16.918,-5.37399 32.591,-8.00329 46.801,-7.90234 z m 81.023,23.34961 c 2.105,0.0354 4.577,0.60906 8.131,1.67383 17.17,5.14465 23.319,15.71893 7.683,13.21875 -12.166,-1.94554 -24.847,2.43521 -32.142,11.10547 -7.579,9.00763 -9.517,8.81848 -7.643,-0.75196 1.84,-9.38987 7.636,-17.51451 16.145,-22.63281 2.685,-1.61589 4.64,-2.45957 6.943,-2.5957 0.288,-0.017 0.582,-0.0226 0.883,-0.0176 z m -134.82,6.80078 c 8.943,0 12.351,2.6815 12.351,9.71485 0,2.71732 -1.494,2.57313 -11.756,-1.13477 -11.821,-4.27136 -12.12,-8.58008 -0.595,-8.58008 z m 52.81,4.45703 7.735,0.74805 c 7.018,0.67661 7.675,1.40715 7.08,7.88477 -2.945,31.96531 -3.144,59.14465 -0.483,65.56836 4.709,11.3695 17.627,18.70636 52.903,30.03906 5.368,1.72501 5.242,4.93328 -0.569,14.46484 -5.381,8.82555 -4.706,8.56789 -13.558,5.14063 -3.685,-1.4263 -13.583,-3.29982 -22,-4.16407 -14.481,-1.48695 -15.408,-1.95335 -17.209,-8.70703 -2.309,-8.65479 -7.887,-13.09375 -16.455,-13.09375 -6.622,0 -9.241,4.50997 -9.311,16.02344 -0.02,3.58593 -1.77,5.65827 -5.387,6.38672 -2.944,0.59319 -9.104,1.78776 -13.685,2.6543 -23.979,4.53567 -26.138,3.58074 -31.112,-13.75977 -1.939,-6.76131 -1.651,-7.02376 17.547,-15.96289 10.734,-4.99785 23.468,-10.73034 28.295,-12.74024 7.559,-3.1464 9.297,-5.39372 12.496,-16.16796 2.373,-7.99452 3.713,-21.86931 3.713,-38.41407 z m 35.387,16.96289 c 1.222,0 4.481,3.82657 7.24,8.50196 3.274,5.54966 6.45,8.22001 9.156,7.6914 9.334,-1.82324 25.174,29.78411 23.786,47.47071 -0.231,2.94515 -1.533,5.27186 -2.891,5.16796 -6.507,-0.49844 -35.425,-11.57547 -37.039,-14.1875 -2.669,-4.3171 -2.901,-54.64453 -0.252,-54.64453 z m -103.248,0.12891 c 7.55,-0.14223 16.033,4.3459 22.865,12.69141 4.688,5.72858 10.189,3.95033 14.447,-4.66797 1.747,-3.53824 4.251,-6.55188 5.561,-6.69727 3.209,-0.35665 4.324,13.52985 2.352,29.33985 -1.912,15.32211 -9.214,23.58723 -25.315,28.66992 -5.697,1.7983 -11.696,4.28035 -13.332,5.51367 -3.47,2.61518 -3.681,0.33994 -1.469,-15.79883 0.829,-6.04298 2.494,-10.38043 3.703,-9.63281 1.209,0.74739 4.817,0.70539 8.014,-0.0977 12.873,-3.23091 2.064,-18.33485 -20.205,-28.22851 -9.826,-4.36579 -10.251,-4.91399 -6.094,-7.95313 2.801,-2.04834 6.042,-3.07398 9.473,-3.13867 z m 162.408,0.56836 c 1.137,0.0466 2.255,0.24709 3.365,0.59961 5.851,1.85646 5.676,5.8418 -0.254,5.8418 -5.749,0 -21.498,7.29979 -21.498,9.96289 0,1.06669 -1.072,1.9375 -2.382,1.9375 -4.138,0 -2.596,-3.66862 4.168,-9.91602 5.924,-5.47321 10.859,-8.19503 15.457,-8.42187 0.383,-0.0188 0.765,-0.0195 1.144,-0.004 z m -173.797,30.25195 c 0.148,0.0196 0.261,0.0684 0.34,0.14844 -11.547,9.57479 -9.458,57.20122 1.608,74.55469 5.219,10.69834 11.384,17.90033 26.007,30.38086 10.541,8.99728 22.646,17.62794 26.901,19.17968 7.259,2.64829 7.736,3.52153 7.736,14.24219 0,13.48613 -1.989,14.06737 -20.232,5.91211 -32.261,-14.42127 -55.033,-37.35199 -63.073,-63.50976 -2.614,-8.50843 -4.805,-18.68236 -4.867,-22.60938 -0.771,-16.65529 -3.325,-27.74969 1.414,-42.81055 12.306,-9.38476 21.956,-15.78014 24.166,-15.48828 z m 97.188,87.89453 c 0.308,-10e-4 0.702,0.009 1.172,0.0274 v 0.006 c 2.821,0.12883 8.359,0.63218 14.238,1.31445 19.704,2.28673 18.938,5.63753 -4.184,18.35742 -9.186,5.05328 -9.962,5.13914 -11.304,1.27344 -1.969,-5.66651 -2.381,-20.59717 -0.577,-20.94141 0.125,-0.024 0.347,-0.0357 0.655,-0.0371 z m -35.922,4.03907 c 2.881,0.11369 3.342,2.48051 3.183,8.05664 -0.239,8.46039 -0.676,8.53457 -11.378,1.9707 l -8.331,-5.10937 8.331,-2.89454 c 3.866,-1.34527 6.465,-2.09172 8.195,-2.02343 z" fill="#00B894" transform="translate(-147.59183,-76.655299) matrix(0.2881372,0,0,0.2881372,-4092.0098,-1892.632) matrix(0.91825467,0,0,0.91825467,-1938.6339,6448.6505)"/>
</svg>