<?xml version="1.0" ?><svg height="177.83803mm" viewBox="0 0 122.9326 177.83803" width="122.9326mm" xmlns="http://www.w3.org/2000/svg">
    <path color="#000" d="m 18554.356,1196.4128 c -48.668,2e-4 -88.12,40.7155 -88.12,90.9406 0,50.225 39.452,90.9402 88.12,90.9403 48.666,-10e-5 88.118,-40.7153 88.119,-90.9403 0,-50.2251 -39.453,-90.9404 -88.119,-90.9406 z m 0.482,231.7904 c -66.614,-0.5637 -83.769,24.7455 -83.962,46.6833 -0.127,14.3308 0.645,47.647 1.334,74.7642 -23.024,23.3023 -35.982,55.0633 -35.983,88.2027 0,68.5156 54.271,124.0597 121.219,124.06 66.949,-3e-4 121.223,-55.5444 121.221,-124.06 0,-27.0258 0.36,-70.4759 -15.577,-92.0257 0.564,-23.4232 -7.955,-29.0821 -7.991,-43.2602 -0.1,-40.2585 -21.566,-71.893 -93.659,-74.2295 -2.253,-0.073 -4.452,-0.1167 -6.602,-0.1347 z" fill="#FFFFFF" overflow="visible" paint-order="fill markers stroke" transform="translate(-134.31825,-63.726577) matrix(0.26458333,0,0,0.26458333,-4713.5511,-247.20871)"/>
    <path d="m 18839.41,1145.6387 c -13.515,0.1164 -28.501,2.7264 -46.656,7.6113 v 0 c -33.741,2.663 -61.36,37.5411 -67.104,65.207 -14.429,90.2737 9.747,85.6858 -1.236,120.92 -9.969,29.9706 -13.163,43.368 -18.912,79.3574 -0.03,4.0307 -0.03,7.7488 -0.03,11.3027 0.646,2.3433 1.697,3.6628 3.027,4.2695 -17.533,18.6159 -49.783,55.1249 -59.777,68.1172 -31.998,41.6001 -30.174,38.7121 -44.578,70.5528 -3.341,7.3884 -4.634,11.642 -9.053,29.7851 -2.351,9.6532 1.797,29.98 7.502,36.7598 7.282,8.6546 21.544,12.4683 31.297,8.3672 6.548,-2.7533 42.096,-24.4809 62.586,-38.252 4.651,-3.1266 7.116,-4.9617 13.279,-8.8398 -3.909,33.2898 0.392,59.134 19.482,86.9101 20.262,27.0853 47.176,46.5733 74.801,54.1719 l 11.307,3.1094 v 28.1406 c 0,30.154 2.43,39.7162 10.523,41.418 2.721,0.5722 7.087,1.4915 9.705,2.0449 9.967,2.1078 15.01,1.4285 16.405,-2.207 0.795,-2.0708 1.445,-17.9641 1.445,-35.3184 v -31.5547 l 10.115,-3.1933 c 29.042,-9.1658 48.858,-23.4326 69.684,-50.1778 17.833,-22.9001 26.413,-48.4773 24.072,-71.7441 -3.519,-35.0017 -7.056,-43.3979 -21.482,-50.9824 -8.866,-4.661 -12.159,-0.4228 -7.17,9.2265 23.436,59.8887 -2.533,112.0774 -57.073,135.918 -14.825,8.169 -17.407,8.0387 -19.388,-0.9805 -1.909,-8.6898 -1.095,-9.5823 13.779,-15.0566 6.24,-2.2971 16.714,-7.8635 23.27,-12.3731 31.367,-19.0622 50.018,-57.7711 35.634,-99.666 l -4.998,-14.2793 6.182,-5.3554 c 10.217,-8.8523 15.912,-7.0773 26.738,8.33 19.094,27.1763 37.771,45.11 56.756,54.4922 30.594,15.1204 44.004,11.3268 48.641,-13.7715 2.697,-14.6044 -1.233,-45.0198 -7.397,-57.2363 -16.626,-32.9585 -48.084,-68.0193 -95.025,-105.9121 -4.025,-3.2487 -7.769,-6.5283 -11.121,-9.668 2.449,-0.3236 5.013,-2.0963 7.529,-5.8535 0.168,-4.411 0.999,-23.2547 -1.291,-26.9863 1.666,-46.6206 -1.372,-90.2248 -17.031,-141.6328 -11.86,-38.9369 5.057,-67.2279 -31.254,-103.7871 -22.215,-14.6479 -40.655,-21.3777 -63.18,-21.1836 z m 14.361,33.5918 c 1.75,0.5711 3.522,1.2966 5.409,2.1621 -0.206,0.4629 -0.401,0.9198 -0.631,1.3984 -7.885,16.385 -8.799,39.0307 -1.776,40.5703 4.05,0.8879 6.584,1.7095 10.635,-16.3086 1.511,-6.7218 3.378,-12.9944 5.182,-17.748 1.692,1.2437 3.334,2.5475 4.91,3.9004 -0.407,1.3969 -0.87,2.9145 -1.395,4.5683 -5.399,16.9952 -5.4,19.1869 -0.03,24.961 5.374,5.7759 6.231,5.3697 9.764,-4.6153 1.54,-4.3521 2.867,-8.9873 3.49,-12.0117 1.449,2.13 2.634,4.2367 3.481,6.2637 3.803,9.1017 9.205,47.596 7.357,52.4141 -0.897,2.3397 -4.773,3.3566 -12.225,3.207 -6.001,-0.1206 -11.488,0.3609 -12.197,1.0703 -2.687,2.6866 4.041,10.8186 10.942,13.2246 3.955,1.3785 7.191,4.0588 7.191,5.959 0,5.3694 -16.899,26.5639 -28.662,35.9453 -5.834,4.6529 -16.27,10.5961 -23.19,13.2109 -14.66,5.5389 -16.444,5.5883 -33.826,0.9434 -49.149,-13.1335 -67.663,-40.7364 -58.555,-87.3145 3.296,-16.8583 8.432,-29.9667 16.391,-40.7324 -0.02,1.484 -0.492,4.1237 -1.244,8.1621 -1.648,8.8488 -0.689,12.7035 3.59,14.4668 4.282,1.7666 6.79,2.1179 12.463,-11.664 7.003,-17.0127 19.245,-37.2317 25.865,-40.9453 0.537,-0.2025 1.071,-0.3931 1.603,-0.5704 0.1,-0.012 0.202,-0.033 0.297,-0.033 1.723,0 -1.177,9.1418 -6.447,20.3145 -10.026,21.2613 -6.465,26.4316 2.389,26.4316 2.865,0 5.847,-4.4965 6.627,-9.9902 1.497,-10.5394 14.731,-30.728 17.498,-27.7539 0.892,0.9577 -0.843,9.2473 -3.856,18.4219 -3.012,9.1762 -0.906,10.7699 0.297,14.1367 3.468,9.7113 13.344,4.8133 14.531,-7.209 0.847,-8.5787 8.081,-25.1632 14.121,-34.8359 z m -52.472,48.9863 c -0.591,0.011 -1.197,0.05 -1.815,0.1211 -5.956,0.6819 -6.843,1.8575 -7.507,9.9336 -0.507,6.1645 0.591,10.6367 3.347,13.6836 7.822,8.6416 15.725,4.945 18.639,-8.711 1.856,-8.6848 -3.81,-15.1808 -12.664,-15.0273 z m 49.789,0.5996 c -0.334,0 -0.663,0.011 -0.983,0.037 -8.961,0.7245 -12.095,12.2156 -3.826,20.4844 6.876,6.877 11.439,5.8877 15.893,-3.4531 4.511,-9.4576 2.32,-14.0826 -7.889,-16.6446 -1.125,-0.2828 -2.192,-0.4182 -3.195,-0.4238 z m -79.596,66.9492 c -2.121,-0.035 -3.763,0.2369 -4.443,0.916 -3.712,3.7133 13.085,17.9696 26.412,22.4161 15.217,5.0769 19.5,4.9624 19.5,-0.5254 0,-3.0342 -3.559,-6.2696 -10.695,-9.7246 -5.884,-2.8479 -11.286,-6.1289 -12.002,-7.2891 -1.752,-2.8332 -12.406,-5.6888 -18.772,-5.793 z m 109.098,46.0059 c -10.398,23.5256 -11.04,36.673 -9.262,47.6699 -10.16,-0.014 -21.848,1.2532 -33.629,1.3106 -18.616,0.09 -38.428,2.073 -55.678,5.9296 -0.221,0.05 -0.393,0.093 -0.613,0.1426 1.656,-14.05 0.44,-35.1129 -2.713,-49.2129 6.751,3.4369 14.185,6.501 22.366,9.2207 26.62,8.8509 54.891,3.2979 79.529,-15.0605 z m 34.945,8.2187 c 2.591,10.5438 -2.051,35.4436 -6.402,53.1934 -1.568,-1.2487 -3.173,-2.4554 -4.836,-3.5859 3.373,-19.8819 8.717,-41.2205 11.238,-49.6075 z m -174.713,6.625 c 0.303,0.01 0.592,0.1941 0.869,0.5703 2.337,4.4892 -0.169,18.0426 -8.037,43.4297 -1.774,5.7269 -3.467,11.7095 -5.023,17.5743 -1.422,0.5573 -2.921,1.2766 -4.373,2.0683 6.158,-31.2138 12.46,-63.751 16.564,-63.6426 z m 192.076,18.377 c 0.885,0.01 1.088,12.8704 -2.072,53.1894 0.113,0.4912 0.252,0.9749 0.383,1.461 -1.445,-2.9343 -3.364,-6.0628 -5.641,-9.2285 2.544,-1.2904 4.247,-3.3405 4.123,-5.9883 -0.865,-2.9181 -0.489,-8.975 1.135,-17.5156 -0.191,-10.5829 1.241,-21.9237 2.072,-21.918 z m -175.968,2.207 c 0.06,-0.011 0.129,-0.01 0.187,0.01 1.799,0.4897 0.585,15.8988 -2.109,26.7285 -5.067,1.8589 -8.485,3.7225 -10.977,5.8769 4.282,-14.5268 9.262,-27.8909 12.211,-32.121 0.264,-0.2973 0.491,-0.4563 0.688,-0.4903 z m 87.152,30.0156 c 14.676,-0.2096 26.049,1.4841 32.969,5.0625 3.992,2.0649 7.54,3.6067 7.881,3.4258 0.341,-0.1809 4.635,1.3514 9.543,3.4024 6.094,2.5463 8.925,5.2389 8.925,8.4883 0,2.6173 2.676,7.6485 5.948,11.1796 5.332,5.7526 5.951,8.4265 5.951,25.7461 0,15.278 0.689,19.7372 4.787,26.2774 18.983,11.5141 18.977,10.7771 19.014,-10.3789 0,-11.5822 1.206,-17.4089 3.42,-16.9942 0.737,0.1384 1.588,0.9699 2.542,2.5137 0.815,1.3205 8.644,8.1771 17.395,15.2383 22.287,17.9817 34.182,29.4338 43.477,41.8574 4.406,5.8904 8.664,11.246 9.466,11.9004 0.8,0.6546 5.25,8.1519 9.883,16.6602 9.992,18.3451 14.844,40.5717 11.809,54.0839 -3.936,17.5084 -4.776,17.9749 -19.156,10.6758 -7.979,-4.0491 -19.484,-13.6151 -30.899,-25.6914 -21.453,-22.6968 -31.147,-39.1826 -29.521,-50.207 1.542,-10.4548 -7.108,-25.0561 -18.698,-31.5703 -7.264,-5.4343 -14.976,-7.5429 -23.957,-8.7071 -6.957,-0.9034 -13.019,-2.5832 -13.465,-3.7324 -0.448,-1.1492 -6.873,-6.1976 -14.281,-11.2168 -28.107,-19.048 -76.326,-19.2865 -117.273,-0.5859 -13.777,6.2922 -17.33,10.476 -15.408,18.1347 0.965,3.8454 0.5,5.9766 -1.297,5.9766 -5.949,0 -18.715,12.1661 -18.715,17.8359 0,3.1316 -1.962,7.0942 -4.356,8.8047 -7.247,5.1738 -11.765,14.3535 -13.47,27.3555 l -1.617,12.3418 -37.28,23.1426 c -20.505,12.729 -41.885,25.5878 -47.508,28.5781 l -10.226,5.4395 -2.496,-6.4161 c -8.528,-21.9088 11.098,-68.1165 47.705,-112.3222 18.732,-22.6197 58.381,-67.7019 62.107,-70.6211 3.107,-2.4335 3.757,0.4343 5.026,22.1074 1.204,20.5944 2.234,25.4754 5.951,28.2188 2.471,1.8244 5.388,2.4396 6.482,1.3671 1.096,-1.0724 2.468,-13.5748 3.045,-27.7832 0.793,-19.5164 2.234,-28.2793 5.891,-35.8339 5.742,-11.8612 7.798,-12.6667 50.703,-19.8028 14.873,-2.4737 28.287,-3.7879 39.703,-3.9512 z m -11.096,83.2891 c 18.27,0.13 34.126,4.7754 47.11,13.9043 6.427,4.5182 6.435,4.5595 2.381,12.7129 -4.646,9.3425 -5.79,9.8233 -10.319,4.3379 -4.775,-5.7852 -20.512,-12.1531 -34.664,-14.0254 -9.142,-1.2098 -15.413,-0.5357 -24.092,2.5859 -11.561,4.157 -11.888,4.1398 -22.679,-1.084 -6.022,-2.9154 -12.052,-4.6202 -13.397,-3.789 -1.345,0.8311 -2.445,0.4626 -2.445,-0.8184 0,-1.281 5.088,-3.9469 11.305,-5.9219 16.918,-5.374 32.59,-8.0033 46.8,-7.9023 z m 81.024,23.3496 c 2.105,0.035 4.577,0.609 8.131,1.6738 17.17,5.1447 23.319,15.7189 7.683,13.2188 -12.166,-1.9456 -24.847,2.4353 -32.142,11.1055 -7.579,9.0077 -9.517,8.8184 -7.643,-0.752 1.84,-9.3899 7.636,-17.5145 16.145,-22.6328 2.685,-1.6159 4.64,-2.4596 6.943,-2.5957 0.288,-0.017 0.582,-0.023 0.883,-0.018 z m -134.821,6.8008 c 8.943,0 12.352,2.6815 12.352,9.7148 0,2.7173 -1.494,2.5732 -11.756,-1.1347 -11.821,-4.2713 -12.121,-8.5801 -0.596,-8.5801 z m 52.811,4.457 7.734,0.7481 c 7.018,0.6767 7.675,1.4071 7.08,7.8847 -2.945,31.9653 -3.143,59.1447 -0.482,65.5684 4.709,11.3695 17.626,18.7064 52.902,30.0391 5.368,1.725 5.243,4.9332 -0.568,14.4648 -5.381,8.8255 -4.707,8.5679 -13.559,5.1406 -3.685,-1.4263 -13.583,-3.2997 -22,-4.164 -14.481,-1.4869 -15.408,-1.9534 -17.209,-8.7071 -2.309,-8.6548 -7.887,-13.0937 -16.455,-13.0937 -6.622,0 -9.24,4.5099 -9.31,16.0234 -0.02,3.5859 -1.77,5.6583 -5.387,6.3867 -2.944,0.5932 -9.104,1.7878 -13.685,2.6543 -23.979,4.5357 -26.138,3.5809 -31.112,-13.7597 -1.939,-6.7613 -1.651,-7.0238 17.547,-15.9629 10.734,-4.9979 23.468,-10.7303 28.295,-12.7402 7.559,-3.1465 9.297,-5.3938 12.496,-16.168 2.373,-7.9946 3.713,-21.8694 3.713,-38.4141 z m 35.387,16.9629 c 1.222,0 4.481,3.8267 7.24,8.502 3.274,5.5497 6.45,8.2201 9.156,7.6914 9.334,-1.8232 25.173,29.7841 23.785,47.4707 -0.231,2.9451 -1.532,5.2719 -2.89,5.1679 -6.507,-0.4983 -35.425,-11.5754 -37.039,-14.1874 -2.669,-4.3171 -2.901,-54.6446 -0.252,-54.6446 z m -103.248,0.1289 c 7.55,-0.1422 16.033,4.3459 22.865,12.6914 4.688,5.7286 10.189,3.9504 14.447,-4.6679 1.747,-3.5382 4.251,-6.5519 5.561,-6.6973 3.209,-0.3567 4.323,13.5298 2.351,29.3398 -1.912,15.3221 -9.213,23.5873 -25.314,28.67 -5.697,1.7983 -11.696,4.2803 -13.332,5.5136 -3.47,2.6152 -3.681,0.3399 -1.469,-15.7988 0.829,-6.043 2.494,-10.3805 3.703,-9.6328 1.209,0.7474 4.817,0.7057 8.014,-0.098 12.873,-3.2309 2.064,-18.3349 -20.205,-28.2285 -9.826,-4.3658 -10.251,-4.9139 -6.094,-7.9531 2.801,-2.0483 6.042,-3.0741 9.473,-3.1387 z m 162.408,0.5684 c 1.137,0.047 2.255,0.247 3.365,0.5996 5.851,1.8564 5.676,5.8418 -0.254,5.8418 -5.749,0 -21.498,7.2998 -21.498,9.9629 0,1.0666 -1.073,1.9375 -2.383,1.9375 -4.138,0 -2.596,-3.6686 4.168,-9.916 5.924,-5.4732 10.859,-8.1951 15.457,-8.4219 0.383,-0.019 0.766,-0.019 1.145,0 z m -173.797,30.2519 c 0.148,0.02 0.261,0.068 0.34,0.1485 -11.547,9.5748 -9.459,57.2013 1.607,74.5547 5.219,10.6984 11.385,17.9003 26.008,30.3808 10.541,8.9973 22.645,17.6279 26.9,19.1797 7.259,2.6483 7.737,3.5215 7.737,14.2422 0,13.4861 -1.99,14.0673 -20.233,5.9121 -32.261,-14.4213 -55.032,-37.352 -63.072,-63.5098 -2.614,-8.5084 -4.805,-18.6822 -4.867,-22.6093 -0.771,-16.6553 -3.325,-27.7498 1.414,-42.8106 12.306,-9.3848 21.956,-15.7802 24.166,-15.4883 z m 97.188,87.8946 c 0.308,-10e-4 0.701,0.01 1.171,0.027 v 0.01 c 2.821,0.1289 8.36,0.6321 14.239,1.3144 19.704,2.2867 18.938,5.6376 -4.184,18.3575 -9.186,5.0533 -9.963,5.1391 -11.305,1.2734 -1.969,-5.6665 -2.38,-20.5971 -0.576,-20.9414 0.125,-0.024 0.347,-0.036 0.655,-0.037 z m -35.922,4.039 c 2.881,0.1137 3.342,2.4806 3.183,8.0567 -0.239,8.4604 -0.677,8.5346 -11.379,1.9707 l -8.33,-5.1094 8.33,-2.8945 c 3.866,-1.3452 6.466,-2.0918 8.196,-2.0235 z" fill="#00B894" transform="translate(-134.31825,-63.726577) matrix(0.26458333,0,0,0.26458333,-4713.5511,-247.20871) translate(-271.76436,29.55388)"/>
</svg>