<?xml version="1.0" ?><svg height="145.95374mm" viewBox="0 0 122.97023 145.95374" width="122.97023mm" xmlns="http://www.w3.org/2000/svg">
    <path color="#000" d="m 14267.738,6882.9414 c -27.487,-0.013 -57.956,16.6251 -77.834,54.7248 -49.329,91.9241 88.628,169.6893 133.225,48.5998 23.117,-62.7685 -12.511,-103.3044 -55.391,-103.3246 z m 186.716,187.6975 c -31.129,-0.034 -69.759,63.0163 -87.037,122.5834 -13.203,149.851 75.737,56.5225 100.034,18.9771 24.297,-37.5452 25.124,-131.3654 -6.876,-140.6898 -2,-0.5828 -4.046,-0.8684 -6.121,-0.8707 z m -200.797,0.6871 c -26.022,-0.9906 -56.915,18.8678 -64.393,35.2526 -13.295,29.1285 -25.123,34.9019 -26.865,122.6176 -1.742,87.7156 37.041,98.6933 37.041,98.6933 0,0 95.542,8.1691 114.247,-4.7038 18.705,-12.8726 -13.386,-0.6598 -22.281,-19.6388 -8.893,-18.9788 3.208,-95.0587 0.824,-180.6291 -1.043,-37.4368 -18.334,-50.8212 -38.573,-51.5918 z" fill="#FFFFFF" overflow="visible" paint-order="fill markers stroke" transform="translate(7.7272964,43.111425) matrix(0.2881372,0,0,0.2881372,-4076.5493,-2009.9067)"/>
    <path d="m 17631.113,410.83203 c -15.205,-0.0833 -28.189,10.46636 -31.775,17.9082 -50.165,-7.87709 -59.405,6.90692 -58.889,25.82227 -30.062,1.01893 -19.926,24.84508 -30.605,38.36523 -22.913,14.48724 -29.766,56.57903 -3.553,76.85352 -10.912,2.26641 -13.518,33.97242 15.986,46.84766 -1.523,30.86414 33.611,39.22697 50.69,28.2832 1.312,-0.79265 2.485,-1.66043 3.553,-2.58008 26.433,20.16446 65.875,15.41388 91.388,3.67383 15.547,-7.84826 30.728,-22.26483 39.002,-37.04102 4.414,-7.87984 6.187,-9.11433 12.199,-8.49609 4.705,0.48407 8.473,-0.86552 11.379,-4.07617 5.223,-5.7716 3.571,-11.40419 -4.213,-14.36328 -5.45,-2.07263 -5.601,-2.6903 -3.207,-13.16016 3.365,-14.70322 -1.375,-55.69522 -8.029,-69.44141 -1.286,-2.65637 -2.799,-5.17074 -4.498,-7.55078 13.991,-4.04116 11.538,-18.5654 7.666,-33.99414 -10.61,-36.82598 -34.08,-27.74408 -55.062,-27.54297 -10.185,-14.41585 -21.628,-19.45084 -32.032,-19.50781 z m 27.319,69.48047 c 1.296,0.0713 2.577,0.18041 3.828,0.36719 24.209,4.48122 34.36,16.31657 38.414,44.78906 5.016,35.23097 2.388,51.66602 -8.258,51.66602 -12.939,0 -16.456,5.56422 -8.227,13.01171 4.624,4.18523 4.6,4.33598 -2.242,14.2793 -7.84,11.39597 -20.676,23.30287 -30.718,28.4961 -23.069,11.30623 -48.918,5.90199 -66.838,-9.69141 -0.262,-9.19361 -4.398,-19.34651 -10.467,-28.24219 4.61,-12.64011 7.07,-24.85439 -6.285,-33.9375 19.156,-9.43632 40.845,-6.7216 40.855,-37.85156 22.06,3.64996 46.395,3.61457 49.938,-42.88672 z m 21.781,51.86133 c -0.7,0.007 -1.5,0.0741 -2.406,0.17969 -5.345,0.62205 -6.852,2.37029 -8.661,10.06445 -1.833,7.8023 -1.499,9.81488 2.061,12.41797 5.587,4.08547 7.628,2.51891 10.584,-8.13086 3.276,-11.78998 3.32,-14.58318 -1.578,-14.53125 z m 189.279,132.32422 c -10.101,-0.0345 -22.728,2.81717 -36.14,8.5039 -9.273,3.93105 -12.455,4.3524 -16.032,2.11914 -6.636,-4.14438 -15.154,-3.38027 -19.824,1.7793 -2.413,2.66745 -6.28,4.18273 -9.293,3.64258 -10.446,-1.87203 -12.296,1.95544 -12.383,25.61914 -0.07,20.82592 -0.588,23.06955 -8.924,38.91406 -4.863,9.24787 -8.843,18.0315 -8.843,19.51758 0,1.48619 -1.48,3.55881 -3.287,4.60547 -3.661,2.11847 -20.201,16.2262 -35.018,29.86719 -11.244,10.35268 -14.093,10.79907 -23.686,3.70703 l -7.058,-5.21875 0.342,-32.26563 c 0.525,-49.62741 -5.898,-68.38405 -28.371,-82.83789 -12.786,-8.2231 -14.94,-8.79602 -36.35,-9.6875 -21.684,-0.90312 -23.427,-0.60112 -36.889,6.39063 -17.872,9.28206 -19.078,10.32184 -32.773,28.2539 -8.23,10.77457 -12.963,20.23878 -17.254,34.50977 -12.514,41.61318 -13.963,51.19559 -13.996,92.25195 -0.03,40.2983 2.421,57.27854 10.635,73.7793 14.793,29.72291 22.693,42.42258 30.713,49.37305 6.999,6.06563 9.939,6.59098 14.019,2.50976 4.357,-4.35674 3.412,-11.04268 -2.031,-14.37891 -12.499,-7.66018 -27.721,-41.07521 -33.35,-73.20312 -3.685,-21.04307 -0.855,-76.64819 5.113,-100.42188 6.537,-26.03275 23.367,-61.16423 33.333,-69.57617 16.472,-13.9066 38.632,-21.12527 49.207,-16.02734 2.273,1.09577 8.416,4.04093 13.652,6.54492 19.049,9.10989 23.724,32.24985 19.914,98.5625 -1.391,24.21605 -3.052,44.56425 -3.691,45.21875 -2.966,3.03794 -28.787,-40.17252 -34.278,-57.36328 -5.628,-17.61875 -7.613,-21.17578 -11.822,-21.17578 -6.023,0 -7.319,6.09262 -4.709,22.12695 3.412,20.9688 18.485,50.22894 35.807,69.51367 l 14.974,16.66993 0.233,30.92968 c 0.193,25.87017 1.01,32.47922 4.992,40.41602 8.991,17.92161 28.901,25.37937 41.635,15.5957 6.339,-4.87011 5.961,-5.26891 -7.875,-8.31055 -10.07,-2.21398 -15.792,-16.73294 -15.858,-40.23437 -0.05,-16.90925 0.348,-18.52895 4.113,-16.91992 18.032,7.70331 38.226,9.77819 57.715,5.92773 9.757,-1.92789 11.449,-1.52816 19.037,4.4961 19.193,15.23411 31.666,17.85701 47.207,9.92773 14.708,-7.5026 36.086,-34.11554 56.25,-70.02148 l 6.465,-11.51172 5.535,5.19922 c 3.045,2.85988 14.459,10.35571 25.366,16.65625 10.904,6.30064 22.673,13.69168 26.152,16.42578 3.481,2.73399 7.763,4.93786 9.52,4.89648 4.712,-0.11162 10.625,-5.22817 12.302,-10.64453 1.255,-4.05214 -2.283,-6.84616 -24.049,-19.00586 -14.036,-7.84118 -30.605,-16.62761 -36.824,-19.52539 -12.515,-5.83302 -13.036,-7.10581 -7.402,-18.10156 5.276,-10.29932 7.647,-11.3957 16.574,-7.66602 11.018,4.60385 16.667,0.0311 18.76,-15.18359 1.737,-12.62972 -2.989,-24.03711 -9.959,-24.03711 -1.922,0 -3.055,-1.33835 -2.516,-2.97461 0.557,-1.69191 6.006,-3.29577 12.633,-3.7207 6.41,-0.411 13.02,-1.88191 14.69,-3.26758 4.038,-3.35147 3.886,-11.45508 -0.215,-11.45508 -1.786,0 -6.054,-2.20733 -9.483,-4.9043 -3.428,-2.69696 -9.998,-5.51486 -14.599,-6.26171 -12.266,-1.99041 -10.734,-6.89802 2.925,-9.375 18.883,-3.424 7.129,-18.93353 -12.482,-16.47266 -8.898,1.11657 -9.886,0.62107 -15.109,-7.5918 -3.074,-4.8333 -4.681,-9.10871 -3.571,-9.5 7.126,-2.51161 8.818,-5.07403 5.774,-8.74219 -3.784,-4.55955 -10.73,-6.83672 -19.643,-6.86718 z m -14.09,21.05468 c 2.177,0.0611 4.191,1.17717 7.53,3.55469 5.701,4.0602 11.672,16.41155 11.726,24.2793 0.03,3.52985 -4.929,1.69632 -6.429,-2.37891 -4.518,-12.2747 -21.782,-20.63494 -27.206,-13.17383 -1.783,2.45466 -7.092,7.35977 -11.796,10.9004 -13.76,10.35486 -19.672,7.68484 -7.51,-3.39258 7.882,-7.18026 18.406,-14.08357 27.615,-18.11328 2.588,-1.1329 4.378,-1.72331 6.07,-1.67579 z m -55.326,47.14844 c 0.05,-0.012 0.1,-0.002 0.129,0.0293 0.506,0.50694 -1.374,5.0643 -4.18,10.12695 -2.806,5.06265 -6.221,10.27509 -7.589,11.58399 -1.37,1.30911 0.511,-3.24836 4.177,-10.12696 3.44,-6.44888 6.656,-11.43307 7.463,-11.61328 z m 23.496,9.76758 c 1.949,0.2911 1.315,6.31692 -2.154,17.92383 -2.727,9.12492 -4.13,10.72557 -9.482,10.82031 -8.008,0.14081 -7.901,-2.57892 0.623,-16.02148 5.564,-8.77274 9.294,-12.97952 11.013,-12.72266 z m 28.682,2.62109 c 0.451,0.0977 0.32,2.04777 -0.399,5.78125 -2.455,12.77032 -5.944,19.67421 -4.209,8.33008 0.802,-5.23602 2.435,-11.12633 3.633,-13.08984 0.444,-0.7273 0.77,-1.06591 0.975,-1.02149 z m -71.943,24.82227 c 0.395,0 0.25,3.17774 -0.321,7.0625 -1.04,7.09008 -7.658,15.5322 -7.658,9.76953 0,-2.81109 6.646,-16.83203 7.979,-16.83203 z m 80.627,21.41992 c 1.392,0 1.159,1.51065 -0.547,3.56836 -1.631,1.96362 -3.332,3.57031 -3.786,3.57031 -0.453,0 -0.208,-1.60669 0.545,-3.57031 0.754,-1.96351 2.459,-3.56836 3.788,-3.56836 z m -47.252,0.30664 c 3.98,0.058 8.083,1.55652 12.828,4.44922 l 7.773,4.73828 -3.732,8.92969 c -2.054,4.91149 -5.602,12.13185 -7.887,16.04492 -5.015,8.58673 -22.653,21.47921 -26.301,19.22461 -1.437,-0.88875 -2.615,-7.7645 -2.615,-15.2793 0,-7.5148 -1.284,-14.94872 -2.856,-16.51953 -11.903,-11.9029 -21.925,17.21849 -12.318,35.79492 3.714,7.18331 3.658,7.6421 -1.455,11.78125 -7.325,5.93147 -11.615,5.39273 -13.076,-1.64257 -0.68,-3.27241 -1.826,-8.77145 -2.549,-12.21875 -1.369,-6.5251 5.165,-44.62062 8.721,-50.84961 1.667,-2.92098 2.305,-2.62184 3.508,1.64843 0.917,3.25226 4.063,5.78847 8.351,6.73047 5.487,1.20479 8.689,0.0243 15.772,-5.81445 5.807,-4.78629 10.718,-7.09217 15.836,-7.01758 z m -71.362,16.60352 c 1.241,-0.0568 1.372,1.24176 0.321,3.91406 -3.715,9.44498 -3.966,37.60645 -0.438,48.93555 2.639,8.46562 2.843,11.67371 0.783,12.30273 -16.313,4.98228 -36.482,2.23517 -50.365,-6.86133 -5.679,-3.72184 -5.973,-5.01479 -5.973,-26.46875 0,-12.40505 0.503,-22.55468 1.118,-22.55468 0.614,0 5.192,2.12404 10.169,4.71875 11.178,5.82572 22.173,3.5473 34.245,-7.09375 5.113,-4.50758 8.545,-6.81952 10.14,-6.89258 z m 84.194,51.75195 c 0.362,-0.0214 0.554,0.0587 0.554,0.25195 0,1.21666 -6.005,8.69855 -13.345,16.62696 -14.054,15.1801 -21.443,17.89809 -30.551,11.23828 -4.061,-2.96911 -3.817,-3.49671 3.711,-8.05078 16.69,-10.09804 36.132,-19.85947 39.631,-20.06641 z" fill="#00B894" transform="translate(7.7272964,43.111425) matrix(0.2881372,0,0,0.2881372,-4076.5493,-2009.9067) matrix(0.91825467,0,0,0.91825467,-1938.6339,6448.6505)"/>
</svg>