<?xml version="1.0" ?><svg height="290.76706mm" viewBox="0 0 205.82735 290.76706" width="205.82735mm" xmlns="http://www.w3.org/2000/svg">
    <path d="m 47325.66,3177.1035 c -8.351,0 -16.977,0.9974 -25.724,3.2442 -55.983,14.379 -102.553,64.0938 -113.7,98.9824 -18.455,98.2008 68.119,111.2408 148.006,98.0879 10.127,-1.6674 19.029,-4.9119 26.858,-9.3418 4.375,17.603 12.876,71.6013 35.568,91.1699 22.767,19.633 39.267,5.1409 31.652,-10.4941 -7.616,-15.6349 15.945,-83.958 17.928,-121.0821 1.983,-37.1241 -4.206,-47.3344 -25.465,-53.1172 0,0 -3.186,-0.4269 -8.072,-0.6445 2.531,-20.1013 1.789,-37.5294 -0.07,-45.8535 -4.807,-21.5372 -41.886,-50.9288 -86.983,-50.9512 z m -44.596,263.7793 c -36.557,0.5834 -72.797,14.7573 -84.671,35.4063 -12.222,21.2529 -58.485,110.7421 -83.114,168.9843 -71.224,-0.454 -171.904,-1.1191 -171.904,-1.1191 -13.376,42.8026 -53.012,67.2138 -21.057,91.8477 31.955,24.6338 199.531,42.6921 282.143,38.9023 82.611,-3.7898 145.529,-23.5196 213.773,-21.959 68.244,1.5605 119.274,-101.6559 114.815,-103.5508 -1.531,-0.6507 -78.391,-1.4594 -169.682,-2.2578 5.058,-30.7546 13.375,-83.8112 16.102,-118.0137 3.963,-49.7135 -27.743,-78.9166 -71.34,-86.3847 -8.175,-1.4003 -16.628,-1.9901 -25.065,-1.8555 z" fill="#FFFFFF" paint-order="markers stroke fill" transform="translate(-68.511652,144.55738) matrix(0.26458333,0,0,0.26458333,-11457.815,-207.69367) translate(-3313.5291,-2437.8203)"/>
    <path d="m 47179.346,2676.5039 c -4.309,0.6002 -0.692,5.8581 11.099,16.707 17.198,15.8245 19.873,16.8828 19.873,7.8614 0,-7.6024 -13.663,-21.048 -24.033,-23.6504 -3.188,-0.8003 -5.503,-1.1181 -6.939,-0.918 z m 390.078,6.6738 c -4.932,0.3522 -10.683,3.5973 -20.459,9.8399 -22.04,14.0741 -50.295,27.9946 -69.746,34.3633 -8.789,2.8775 -18.363,7.8659 -21.278,11.0859 -4.996,5.5125 -4.992,6.5086 0.02,17.0762 7.591,15.993 30.255,34.1258 50.691,41.8379 22.591,8.5255 38.084,9.5839 40.471,-2.045 1.053,-7.4197 0.03,-8.0402 -34.078,-20.5527 -7.915,-2.9047 -19.789,-9.9451 -26.383,-15.6465 -15.492,-11.7219 -10.915,-10.6807 5.531,-15.4609 9.639,-2.8018 18.485,-5.0938 19.662,-5.0938 1.177,0 7.844,4.8818 14.817,10.8496 15.46,13.2345 32.593,17.482 38.412,9.5235 5.949,-8.1385 2.508,-12.8116 -16.168,-21.9492 -21.167,-8.7102 -16.024,-8.917 1.015,-20.0801 12.275,-8.2397 14.878,-14.5758 25.764,-4.7578 20.126,18.1585 45.143,22.4692 45.143,7.7793 0,-6.0113 -3.124,-9.366 -14.01,-15.045 -7.705,-4.0202 -18.47,-10.6968 -23.92,-14.8359 -5.173,-3.2308 -10.452,-7.248 -15.484,-6.8887 z m -446.678,22.7129 c -82.973,0 -91.066,3.8182 -70.432,33.2071 16.346,23.2774 60.22,75.6963 70.832,84.625 v 0 c 7.823,6.5822 10.993,7.5917 15.789,5.0253 8.987,-4.8106 7.369,-10.9883 -6.959,-26.5312 l -12.959,-14.0586 6.348,-11.5566 c 3.493,-6.3557 8.684,-18.752 11.537,-27.5469 l 5.186,-15.9922 20.48,-1.3027 c 15.448,-0.9835 21.534,-2.7455 24.768,-7.166 3.633,-4.9745 3.635,-6.8316 0,-12.2813 -4.08,-6.1173 -7.134,-6.4219 -64.594,-6.4219 z m -105.935,17.2188 c -0.354,0.061 -0.702,0.2379 -1.026,0.539 -4.693,4.3616 1.956,24.2476 11.203,33.4922 5.202,5.2038 11.538,9.461 14.076,9.461 5.128,0 4.831,-0.6632 -10.064,-22.5176 -5.522,-8.104 -10.675,-16.5096 -11.451,-18.6797 -0.579,-1.628 -1.679,-2.4792 -2.738,-2.2949 z m 78.113,6.1328 c 15.521,0 28.221,0.8331 28.221,1.8516 0,1.0183 -2.941,11.5255 -6.532,23.3496 -3.591,11.8243 -6.773,21.498 -7.072,21.498 -0.296,0 -10.056,-10.507 -21.689,-23.3496 -21.918,-23.6636 -25.98,-23.3496 7.072,-23.3496 z m 237.941,25.6367 c -1.671,-0.2971 -3.167,0.5548 -4.47,2.584 -3.515,5.474 -2.465,11.0154 13.255,69.8496 6.862,25.6848 11.131,43.0304 18.625,47.998 9.745,6.46 28.293,-5.2436 34.903,-7.8516 33.353,-13.1777 42.416,-18.4205 42.416,-24.541 0,-10.3303 -10.528,-10.3398 -37.362,-0.035 -38.015,18.7599 -26.544,11.7632 -37.125,-22.0098 -12.46,-41.8695 -22.999,-64.7087 -30.242,-65.9961 z m -72.549,36.6309 c -4.205,0 -7.119,5.6754 -4.822,9.3906 h 0.02 c 1.077,1.7401 3.258,2.3582 4.853,1.373 3.763,-2.3371 3.738,-10.7636 -0.05,-10.7636 z m 198.293,9.3515 c -5.272,-0.026 -1.796,9.2951 5.649,15.1524 7.626,6.0004 16.924,6.0125 16.924,0.023 0,-2.8642 -18.282,-15.1528 -22.573,-15.1758 z m -215.599,37.3477 c -4.862,0 -6.176,3.6832 -2.594,7.2656 3.582,3.5824 7.264,2.266 7.264,-2.5957 0,-2.5686 -2.102,-4.6699 -4.67,-4.6699 z m 222.222,0 c -9.592,0 -11.221,2.7179 -5.222,8.7168 4.013,4.0125 15.71,5.0476 19.07,1.6875 3.848,-3.85 -4.874,-10.4043 -13.848,-10.4043 z m 32.756,34.541 c -1.418,-0.401 -3.797,0.4333 -7.088,2.5176 -2.359,1.4947 -3.281,4.3496 -2.048,6.3437 2.996,4.8492 9.208,2.4955 10.459,-3.9648 0.554,-2.8577 0.1,-4.4955 -1.323,-4.8965 z m -251.215,7.0273 c -2.464,-0.3352 -5.322,2.8927 -5.322,7.252 0,3.9576 0.868,4.1498 4.639,1.0215 2.55,-2.116 3.852,-5.1139 2.896,-6.6602 -0.614,-0.9935 -1.391,-1.5015 -2.213,-1.6133 z m 154.944,2.1309 c -4.469,-0.1443 -10.019,0.9033 -14.342,3.2168 -4.969,2.6596 -5.479,4.2272 -2.527,7.7832 7.119,8.578 24.724,3.5461 24.724,-7.0664 0,-2.453 -3.386,-3.7893 -7.855,-3.9336 z m 124.377,9.5801 c -0.426,-0.037 -0.938,0.036 -1.522,0.2305 -2.246,0.7492 -4.697,3.2018 -5.447,5.4492 -0.777,2.3351 0.39,3.5011 2.725,2.7226 2.247,-0.7491 4.699,-3.1998 5.449,-5.4472 0.583,-1.7514 0.07,-2.8456 -1.205,-2.9551 z m -262.727,5.873 c -4.467,0 -15.72,12.9955 -13.861,16.0039 2.265,3.6644 16.853,-6.456 16.853,-11.6914 0,-2.3717 -1.348,-4.3125 -2.992,-4.3125 z m -81.383,6.2266 c -5.303,0 -21.081,25.49 -29.664,47.6699 -14.448,37.3352 -10.351,24.9757 -41.463,-7.1758 -26.764,-28.2423 -31.347,-31.8771 -35.673,-28.2851 -2.732,2.2666 -4.967,5.7481 -4.967,7.7383 0,3.7398 38.691,56.4474 51.763,70.5117 9.564,10.2933 9.323,16.1502 -1.951,47.0351 -9.16,25.0998 -11.532,39.8498 -7.121,44.2618 1.222,1.218 5.774,1.8033 10.119,1.2968 11.045,-1.2882 14.978,-10.6363 41.703,-99.1582 21.54,-71.3469 24.119,-83.8945 17.254,-83.8945 z m 219.991,3.1133 c -4.383,0 -7.967,1.401 -7.967,3.1133 0,1.7125 2.718,3.1132 6.043,3.1132 3.323,0 6.907,-1.4007 7.967,-3.1132 1.09,-1.7657 -1.525,-3.1133 -6.043,-3.1133 z m -117.42,7.4258 c -18.852,0.7312 -37.477,11.3302 -43.186,28.6308 -8.173,24.7592 4.47,43.933 37.94,57.5469 20.39,8.2933 23.49,12.4295 19.937,26.5879 -3.108,12.3887 -12.893,19.9101 -25.902,19.9101 -19.504,0 -32.886,-5.4323 -43.19,-17.5351 -11.384,-13.3709 -19.836,-12.752 -19.836,1.4512 0,11.9614 10.591,24.8762 26.221,31.9746 16.96,7.7023 51.806,7.9811 64.443,0.5156 10.148,-5.9945 24.52,-31.9685 24.52,-44.2598 -0.02,-15.7285 -11.182,-27.9661 -35.678,-39.1289 -12.684,-5.7808 -24.555,-13.299 -26.379,-16.7051 -4.551,-8.5039 0.575,-20.8175 9.682,-23.2558 15.329,-4.1049 23.116,-2.0545 33.705,8.873 11.171,11.5247 20.791,14.0179 23.803,6.1699 2.667,-6.9506 -4.67,-22.36 -14.643,-30.7519 -8.733,-7.3485 -20.126,-10.4622 -31.437,-10.0234 z m 269.357,8.7324 c -2.674,0.2305 -5.591,1.9119 -6.572,4.8574 -0.761,2.2828 1.383,3.8926 5.189,3.8926 3.823,0 6.487,-2.0103 6.487,-4.8985 0,-2.861 -2.43,-4.0821 -5.104,-3.8515 z m -66.857,25.3203 c -5.149,0.2288 -12.045,7.5556 -23.309,24.041 -12.567,18.3911 -15.317,20.8505 -19.707,17.6231 -2.809,-2.0628 -12.889,-9.705 -22.402,-16.9825 -19.124,-14.6285 -30.744,-17.2046 -30.744,-6.8144 0,3.9041 8.713,14.7259 22.242,27.625 25.511,20.2084 21.389,22.6787 6.224,48.9511 -15.918,27.5825 -20.364,45.4919 -12.121,48.8184 9.627,3.8843 13.415,0.062 30.362,-30.6387 7.085,-12.8373 13.882,-23.3398 15.101,-23.3398 1.221,0 11.502,7.7051 22.848,17.123 21.599,17.9278 27.325,20.0801 33.529,12.6036 6.265,-7.5503 0.733,-16.4026 -21.875,-35.002 -27.796,-17.9798 -18.171,-26.4061 -6.902,-49.1133 10.255,-20.6474 13.7,-30.551 11.416,-32.834 -1.425,-1.425 -2.946,-2.1368 -4.662,-2.0605 z m 61.418,5.625 c -4.438,0.3825 -11.25,3.5231 -11.25,6.0332 0,4.0094 11.612,3.6675 14.136,-0.416 1.128,-1.8262 1.317,-4.0563 0.418,-4.9551 -0.611,-0.6112 -1.825,-0.7896 -3.304,-0.6621 z m 91.215,85.8926 c -1.01,0.1259 -1.984,0.4215 -2.893,0.9082 -8.35,4.469 -14.048,20.6957 -9.283,26.4375 8.514,10.2594 28.017,1.3762 28.017,-12.7618 0,-8.0528 -8.774,-15.4651 -15.841,-14.5839 z m -655.049,1.1836 c -8.596,-0.2563 -16.849,0.6508 -23.547,2.8613 -16.448,5.4287 -16.196,12.5619 1.826,51.3906 7.766,16.7348 20.485,45.9818 28.266,64.9922 7.778,19.0103 16.348,37.0151 19.048,40.0117 5.629,6.2497 21.889,7.067 28.967,1.4571 24.401,-19.3446 39.218,-79.7916 25.959,-105.9102 -8.639,-17.0181 -25.856,-36.0372 -40.277,-44.4883 -10.633,-6.231 -25.916,-9.8874 -40.242,-10.3144 z m 0.552,19.6015 c 9.683,1.3588 22.156,4.8559 27.657,8.2559 20.777,12.8407 36.836,42.7567 33.574,62.5488 -0.948,5.761 -5.55,18.8802 -10.223,29.1543 l -8.496,18.6797 -4.705,-9.3399 c -2.589,-5.1371 -9.181,-20.6208 -14.65,-34.4082 -5.466,-13.7876 -17.538,-36.3771 -25.373,-51.0175 -10.347,-19.3362 -16.141,-26.449 2.216,-23.8731 z m 613.323,23.7285 c -1.394,-0.026 -24.16,21.1902 -50.592,47.1465 -49.108,48.2218 -55.126,57.35 -42.613,64.6387 2.998,1.7452 6.559,3.2136 7.918,3.2676 7.953,0.305 91.37,-89.861 94.552,-102.2032 1.77,-6.8591 -2.459,-12.7212 -9.265,-12.8496 z m -98.653,3.0664 c -9.494,0 -13.286,7.2284 -5.447,10.3907 2.139,0.8635 4.125,1.681 4.414,1.8164 0.288,0.135 2.74,-0.6033 5.449,-1.6426 8.675,-3.3293 5.651,-10.5645 -4.416,-10.5645 z m -358.226,20.584 c -2.033,-0.2579 -4.829,1.2699 -7.883,4.6446 -4.206,4.6485 -8.163,5.927 -14.428,4.6738 -10.396,-2.0786 -11.219,2.1798 -1.713,8.8379 3.804,2.6654 8.707,4.8476 10.895,4.8476 5.39,0 16.432,-11.3867 16.432,-16.9414 0,-3.7622 -1.27,-5.8045 -3.303,-6.0625 z m 262.49,1.7149 c -0.571,0.1427 -0.777,1.1037 -0.777,2.9199 0,2.5686 1.681,6.3514 3.736,8.4062 4.079,4.0791 11.655,4.8012 19.359,1.8457 8.431,-3.2363 5.406,-7.4511 -5.349,-7.4511 -5.651,0 -11.955,-1.6816 -14.01,-3.7364 -1.454,-1.4529 -2.388,-2.127 -2.959,-1.9843 z m 87.953,5.7207 c -2.569,0 -4.67,1.4011 -4.67,3.1133 0,1.7123 2.101,3.1132 4.67,3.1132 2.568,0 4.672,-1.4009 4.672,-3.1132 0,-1.7122 -2.104,-3.1133 -4.672,-3.1133 z m -68.494,28.0215 c -4.639,0 -7.324,1.3405 -6.227,3.1132 1.058,1.7125 3.862,3.1133 6.227,3.1133 2.368,0 5.169,-1.4008 6.227,-3.1133 1.095,-1.7727 -1.585,-3.1132 -6.227,-3.1132 z m 175.154,3.5195 c -0.481,0.028 -0.911,0.2177 -1.281,0.5879 -0.929,0.9287 1.297,9.8407 4.949,19.8047 3.65,9.9643 7.247,19.8692 7.989,22.0097 1.675,4.8172 6.69,5.0507 9.537,0.4453 4.573,-7.3981 -13.976,-43.2728 -21.194,-42.8476 z m -481.043,7.3398 c -9.608,-0.756 -13.369,3.5306 -7.898,9.002 3.743,3.7438 18.017,0.6412 18.017,-3.916 0,-2.6015 -3.982,-4.6033 -10.119,-5.086 z m 469.116,23.4766 c 4.534,9.9963 6.334,20.578 6.384,37.5312 0.04,12.9853 1.026,24.5663 2.196,25.7364 4.81,4.8106 8.749,-5.6404 8.445,-22.4082 -0.411,-22.5393 -3.281,-39.167 -12.939,-48.9819 -14.05,-14.279 -8.278,-1.1182 -4.086,8.1225 z m -267.633,-4.9219 c -21.179,0.2453 -42.677,4.8702 -61.33,14.2793 l -15.037,9.0196 -9.083,-8.2802 c -9.585,-8.7384 -17.612,5.4507 -3.823,19.3585 0,0 -0.311,-1.4933 -16.651,16.3474 -23.883,26.0794 -33.867,40.8396 -37.568,55.5391 -2.321,9.217 -5.641,14.0896 -11.366,16.6992 -32.315,14.7228 -56.744,59.0724 -56.744,103.0117 0,11.7374 -1.887,16.5817 -10.365,26.5879 -19,22.4268 -43.239,61.1109 -59.178,94.4492 -24.786,51.8447 -23.414,78.1533 4.076,78.1133 11.36,-0.017 21.735,-7.3458 66.588,-47.0508 50.575,-44.7696 62.455,-54.7166 60.828,-50.9257 -0.715,1.6672 -8.423,17.0406 -17.13,34.164 -8.71,17.1237 -21.96,46.8627 -29.446,66.086 l -13.611,34.9511 -68.596,-0.062 c -68.439,-0.062 -151.099,5.3913 -151.099,9.9668 0,4.8405 23.403,6.598 59.638,4.4785 20.391,-1.1935 72.757,-1.1712 116.365,0.049 l 79.292,2.2187 -6.583,11.4386 c 0,0 -9.543,0.6181 -13.594,0.3088 -17.556,-1.3405 -23.796,1.6501 -35.966,10.8683 -7.524,5.6989 -22.39,20.1408 -36.559,29.189 -29.134,18.6045 -35.21,26.1623 -27.355,34.0176 4.339,4.3399 14.99,5.2012 72.689,5.8711 37.182,0.4315 78.815,1.9859 92.512,3.4551 48.412,5.1924 53.729,4.6958 59.008,-5.5157 2.578,-4.9824 5.824,-9.5362 7.213,-10.1191 1.392,-0.5828 14.049,-15.4569 28.131,-33.0527 29.679,-37.0862 29.877,-36.5133 -12.627,-36.4903 -14.982,0.01 -29.201,1.8376 -29.201,0.8184 4.323,-12.7881 24.927,-11.7266 35.595,-11.7266 5.261,0 18.499,2.0729 29.42,4.6055 24.31,5.6377 75.996,12.8543 123.399,17.2285 41.129,3.7954 55.204,1.0962 58.283,-11.1777 l 1.892,-7.543 70.493,-0.047 c 38.77,-0.026 72.381,-1.2439 74.691,-2.707 2.307,-1.4634 3.686,-5.2942 3.062,-8.5137 -1.081,-5.5777 -4.727,-5.7996 -77.375,-4.6797 l -76.24,1.1758 -5.662,-11.8769 c -5.66,-11.8678 -40.062,-66.62 -73.238,-116.5645 -20.716,-31.1866 -53.205,-64.9864 -69.975,-72.8008 -19.521,-9.0974 -51.755,-9.863 -90.463,-2.1504 -49.08,9.7793 -64.07,18.6672 -122.023,72.3536 -37.85,35.0655 -73.941,64.8652 -78.555,64.8652 -9.892,0 26.831,-82.4412 56.014,-125.7461 14.618,-21.691 17.756,-24.6514 26.879,-25.3398 5.681,-0.4287 13.588,-3.8425 17.574,-7.586 4.649,-4.3681 7.985,-5.6054 9.314,-3.457 3.768,6.0977 15.981,3.4733 24.27,-5.2149 9.328,-9.7777 14.791,-22.4153 14.791,-34.2148 v -8.1231 l 7.004,6.4043 c 24.812,22.6866 90.186,30.2705 133.547,15.4903 l 20.685,-7.0528 1.953,17.25 c 5.688,50.2658 46.182,86.4282 85.102,75.9981 9.193,-2.4637 8.852,-7.6852 -1.104,-16.9531 -7.393,-6.8799 -7.951,-9.0618 -6.312,-24.67 0.99,-9.4179 5.247,-30.434 9.459,-46.7011 12.558,-48.4824 14.896,-65.9596 11.094,-82.9278 -3.664,-16.3498 -9.994,-25.2548 -20.922,-29.4336 -5.335,-2.0403 -7.004,-5.1618 -7.004,-13.0976 0,-16.0323 -8.549,-37.5047 -20.486,-51.4492 -18.88,-22.057 -53.292,-33.815 -88.59,-33.4063 z m 320.785,1.7188 c -1.712,0 -3.113,1.4008 -3.113,3.1133 0,1.7123 1.401,3.1132 3.113,3.1132 1.711,0 3.111,-1.4009 3.111,-3.1132 0,-1.7125 -1.4,-3.1133 -3.111,-3.1133 z m -688.674,1.6582 c -1.974,0.2406 -4.118,1.664 -4.926,4.0879 -0.874,2.6192 0.549,3.7857 3.797,3.1132 2.855,-0.5915 5.117,-2.4769 5.028,-4.1894 -0.122,-2.3106 -1.925,-3.2523 -3.899,-3.0117 z m -17.656,10.7949 c -8.791,0 -33.458,22.8146 -41.313,38.2129 -8.355,16.376 -10.171,37.8698 -4.869,57.5664 4.227,15.6927 3.795,16.8626 -3.183,31.1328 -8.203,16.7752 -9.018,48.5185 -1.447,65.4961 9.514,20.7538 8.513,3.9348 6.687,-5.6055 -4.294,-22.2147 -3.315,-37.8784 3.277,-52.4043 7.325,-14.6832 6.364,-13.9946 14.363,-7.0058 20.509,16.1336 49.161,1.3477 41.266,-21.2969 -5.765,-16.542 -21.5,-20.476 -39.059,-9.7695 -12.088,7.3712 -13.488,5.0878 -13.488,-22.0137 0,-22.7524 4.826,-32.681 27.373,-56.3203 14.583,-15.2879 16.147,-17.9922 10.393,-17.9922 z m 425.759,8.1892 c 19.294,6.1323 14.583,4.5807 17.251,26.1077 2.681,23.69 10.216,49.0522 17.712,59.5859 7.75,10.8966 7.553,12.6312 -3.923,34.166 -16.614,31.1697 -45.568,51.5421 -83.473,58.7305 -15.737,2.984 -35.421,3.7674 -42.152,1.6777 -1.711,-0.5317 -11.257,-2.6429 -21.209,-4.6914 -27.532,-5.6662 -49.315,-28.3507 -52.41,-54.584 -1.032,-8.7339 -0.225,-9.5274 12.908,-12.6914 15.497,-3.733 19.812,-11.2574 9.592,-16.7265 -3.494,-1.8697 -9.883,-2.5129 -14.198,-1.4297 -10.227,2.5655 -10.182,-2.1488 0.211,-23.0059 9.135,-18.3309 38.116,-45.9596 43.043,-41.0332 1.686,1.6862 5.764,3.0664 9.061,3.0664 4.924,0 5.676,-1.5778 4.222,-8.8476 -1.551,-7.7593 -0.473,-9.5591 9.057,-14.0098 33.033,-13.8337 64.018,-15.7985 94.308,-6.3147 z m -70.826,0.8808 c -5.774,1.7337 -7.759,4.4192 -7.954,7.2757 -0.329,4.8241 1.766,7.2929 6.25,7.9336 8.819,1.2597 16.801,-6.8777 11.656,-12.633 -1.607,-1.7975 -5.855,-3.8068 -9.952,-2.5763 z m -180.865,7.0589 c -6.262,-0.9809 -8.425,2.5532 -4.168,6.8106 3.029,3.027 10.609,1.0883 10.559,-2.7012 -0.02,-1.7122 -2.898,-3.5621 -6.391,-4.1094 z m 229.097,6.8669 c -6.476,-0.076 -10.761,4.5575 -11.791,9.902 -0.794,4.1211 2.204,7.5768 9.235,7.5768 11.052,0 18.054,-8.8304 12.606,-14.2783 -1.22,-1.2198 -3.928,-3.129 -10.05,-3.2005 z m 52.1,5.9163 c 1.884,0.6284 6.693,7.4874 10.684,15.2422 5.41,10.5114 6.988,17.9776 6.199,29.3379 l -1.058,15.2402 -6.67,-14.0117 c -8.159,-17.1342 -14.229,-47.4998 -9.155,-45.8086 z m -96.796,52.8145 c -3.712,-0.1072 -8.114,0.5862 -14.53,2.0429 -17.842,4.0508 -31.917,13.178 -28.599,18.545 2.728,4.4155 1.912,4.4857 15.896,-1.3575 7.36,-3.0752 18.219,-4.5243 29.18,-3.8925 13.821,0.7971 17.453,0.043 17.453,-3.6211 0,-2.5454 -4.061,-6.5743 -9.025,-8.9532 -3.645,-1.7472 -6.664,-2.6565 -10.375,-2.7636 z m 135.193,13.8574 c 1.331,-0.2987 3.121,0.2687 5.328,1.8828 3.846,2.8114 6.293,9.5038 7.297,19.9512 0.831,8.6468 -0.01,18.3379 -1.871,21.5371 -3.087,5.3148 -3.402,5.145 -3.543,-1.9668 -0.09,-4.281 -2.717,-13.407 -5.838,-20.2813 -5.246,-11.5438 -5.366,-20.227 -1.373,-21.123 z m -499.051,7.1582 c 9.84,0 16.611,10.6173 11.047,17.3223 -7.003,8.4375 -30.969,3.4299 -30.969,-6.4708 0,-5.5765 9.683,-10.8515 19.922,-10.8515 z m 491.574,17.3027 c 0.692,-0.6164 1.476,0.1802 2.592,2.1758 6.636,11.8551 6.523,42.0395 -0.312,82.8457 -4.016,23.9666 -6.074,45.7735 -4.909,51.9844 h -10e-4 c 2.265,12.0724 2.03,12.328 -5.965,6.4804 -5.31,-3.8812 -5.608,-7.5542 -3.719,-45.9218 1.854,-37.6117 4.98,-65.3871 10.273,-91.2617 0.749,-3.6568 1.349,-5.6864 2.041,-6.3028 z m -249.277,10.1465 c 1.861,0.2713 3.132,3.9253 5.947,13.0957 2.613,8.5222 3.943,15.3855 2.948,15.25 -5.253,-0.7145 -9.59,-3.7771 -9.59,-6.7734 0,-1.8627 -2.114,-5.7228 -4.696,-8.5762 -4.203,-4.6441 -4.104,-5.7225 0.944,-10.291 2.002,-1.8122 3.33,-2.8679 4.447,-2.7051 z m 239.529,8.3535 -2.328,9.3399 c -1.282,5.137 -3.145,32.1949 -4.14,60.1269 l -1.811,50.7852 -7.006,-6.543 c -5.84,-5.4536 -6.984,-9.7543 -6.894,-25.877 0.156,-28.1738 7.731,-66.2819 15.463,-77.8144 z m -24.519,31.1348 -1.963,12.4531 c -1.082,6.8493 -2,19.809 -2,28.7988 -0.02,8.9898 -1.196,16.3438 -2.613,16.3438 -2.632,0 -9.875,-27.1839 -9.875,-37.0547 0,-2.9956 3.701,-8.8427 8.226,-12.9941 z m -89.918,92.9238 c 17.096,0.4793 33.196,4.8975 45.875,13.8184 26.844,18.8883 32.142,50.0665 21.273,125.1718 l -7.213,49.8438 -9.58,-0.498 c -32.172,-1.6733 -70.692,-13.1562 -80.752,-17.8165 -24.152,-11.1885 -46.022,-6.3793 -70.484,4.3125 -14.809,6.4741 -27.154,11.0404 -30.824,11.1263 -13.284,0.3108 -37.67,-0.5074 -37.67,-1.4173 0,-0.9102 6.213,-16.0767 13.804,-33.705 15.875,-36.8486 39.337,-81.4705 54.057,-102.793 21.46,-31.0862 63.901,-49.0975 101.514,-48.043 z m 93.791,71.9883 c 0.792,-0.027 2.02,1.6379 3.967,4.3535 10.036,13.998 63.188,104.6021 64.351,107.0369 3.748,7.8481 -17.01,5.4553 -39.814,5.4553 h -41.461 l 5.543,-39.6953 c 3.05,-21.8324 5.682,-48.8014 5.822,-59.9317 0.169,-12.4255 0.272,-17.1731 1.592,-17.2187 z m -202.572,129.8848 c 0.928,0.1017 1.628,0.3417 2.027,0.7421 1.275,1.2777 -7.644,9.0395 -11.502,12.5312 0,0 -3.153,-0.034 -9.287,-0.034 -9.35,0 -8.279,1.5151 -4.972,-2.4668 4.142,-4.9899 17.231,-11.4847 23.734,-10.7728 z m 34.765,3.2695 c 0.503,0.1244 0.191,1.2637 -0.662,3.4883 -1.079,2.8107 -3.318,5.355 -3.318,5.355 -2.671,0 -12.414,0.7653 -11.702,0.2808 5.707,-1.9978 10.373,-7.0035 15.682,-9.1241 z m 61.356,15.8499 c 22.459,-0.6135 -14.611,25.1774 -20.901,31.6657 l -30.183,31.1348 h -80.057 c -83.629,0 -109.717,-1.355 -109.904,-5.711 -0.07,-1.429 10.828,-10.6812 24.205,-20.5605 13.377,-9.8792 27.717,-21.67 31.869,-26.2012 7.341,-8.0119 10.769,-7.7758 37.597,-7.3118 0.29,7.1874 10.975,6.5215 21.833,0.1861 7.216,0.099 17.266,0.1493 17.266,0.1493 -5.594,7.1883 7.7,11.7249 22.335,-0.6 l 16.04,-0.1728 c -2.329,7.2851 13.505,7.2655 23.734,-1.6684 16.503,0.4531 28.934,-0.4437 46.166,-0.9144 z m 133.621,21.2302 c -2.778,0.1302 -6.366,0.5035 -11.137,1.0058 -71.701,7.5507 -113.746,18.7968 -126.152,33.7442 -5.529,6.6616 3.474,12.5895 22.502,14.8164 15.948,1.8666 22.06,1.3779 42.384,-3.3965 5.994,-1.408 26.311,-4.8518 45.145,-7.6524 18.837,-2.8006 36.699,-5.8056 39.695,-6.6777 6.762,-1.9677 6.976,-10.9804 0.557,-23.3945 -3.643,-7.0421 -4.662,-8.8361 -12.994,-8.4453 z m -7.916,13.5898 c 6.7,-0.2549 10.215,0.2497 11.447,1.4824 5.273,5.2702 -2.934,8.7521 -26.02,11.0391 -11.185,1.1079 -29.178,3.9874 -39.986,6.4004 -24.789,5.534 -24.462,5.555 -26.33,-1.5899 -1.903,-7.2825 -0.628,-7.6435 50.334,-14.25 13.971,-1.8111 23.855,-2.8271 30.555,-3.082 z m -99.856,14.5606 c 2.675,0.2305 5.593,1.9119 6.574,4.8574 0.759,2.2827 -1.385,3.8926 -5.189,3.8926 -3.825,0 -6.488,-2.0103 -6.488,-4.8985 0,-2.861 2.429,-4.0821 5.103,-3.8515 z" fill="#00B894" transform="translate(-68.511652,144.55738) matrix(0.26458333,0,0,0.26458333,-11457.815,-207.69367) translate(-3313.5291,-2437.8203)"/>
</svg>