<?xml version="1.0" ?><svg height="114.18393mm" viewBox="0 0 127.90947 114.18393" width="127.90947mm" xmlns="http://www.w3.org/2000/svg">
    <path d="m 1620.8295,1439.8328 c 10e-5,64.5069 -58.3345,111.8304 -122.075,119.8995 -66.5936,8.4302 -110.0214,-50.4229 -110.0214,-114.9298 0,-64.5069 39.5712,-108.7309 106.6962,-108.7309 67.1251,0 125.4002,39.2544 125.4002,103.7612 z" fill="#FFFFFF" transform="translate(-85.723813,57.092009) matrix(0.49206594,0,0,0.49206594,-595.70851,-712.69655)"/>
    <path d="m 1484.1602,1332.3516 c -7.7201,0.02 -14.4557,0.5094 -18.043,1.5 -3.3,0.9113 -12.2298,4.6997 -19.8438,8.4179 -17.3151,8.456 -26.7009,16.9169 -38.3359,34.5625 -10.4877,15.9058 -14.0122,23.636 -19.1934,42.0879 -3.2854,11.7005 -3.9503,16.5051 -3.9023,28.2051 0.063,15.2147 0.4892,18.0241 5.7422,37.7734 8.6481,32.5133 21.6839,52.9646 42.2207,66.2383 8.8505,5.7203 21.7343,10.5164 32.4863,12.0918 26.83,3.9313 60.1224,-2.2078 84.8262,-15.6426 18.3006,-9.9524 37.7268,-26.8273 52.9766,-46.0175 10.4698,-13.1752 15.7095,-22.5062 21.0292,-37.4512 l 4.3497,-12.2227 6.2578,-1.5879 c 7.6647,-1.9456 10.0527,-3.8075 10.0527,-7.8339 0,-4.2763 -4.5972,-7.1963 -9.959,-6.3262 l -4.3398,0.7031 -1.4922,-10.0312 c -2.9433,-19.7893 -11.6198,-34.893 -30.4746,-53.045 -22.3592,-21.5257 -46.5804,-32.797 -84.3047,-39.2324 -8.5745,-1.4627 -20.127,-2.2146 -30.0527,-2.1894 z m 0.2168,10.9433 c 5.8882,0.077 12.5856,0.7351 19.8378,1.9863 15.9712,2.7556 30.5684,6.528 30.5684,7.9004 0,0.6148 -6.8987,3.4084 -15.332,6.2071 -19.0155,6.3105 -20.1782,6.3926 -19.1719,1.3613 0.8762,-4.3811 -1.3478,-5.4719 -11.2109,-5.5039 -3.1432,-0.01 -10.8795,-1.3134 -17.1914,-2.8965 -10.2687,-2.5755 -11.2154,-3.0684 -9.0118,-4.6797 4.1338,-3.0227 11.6979,-4.5039 21.5118,-4.375 z m -28.7598,8.4824 c 0.7998,0.022 1.4161,0.4134 2.1953,1.0899 2.8309,2.4574 19.6482,7.5844 28.2031,8.5976 5.414,0.6412 6.5062,1.2875 7.752,4.5879 1.2007,3.1811 2.2165,3.8392 5.9004,3.8282 2.447,-0.01 7.4485,-1.4089 11.1152,-3.1153 3.6667,-1.7064 10.7264,-4.4516 15.6875,-6.1015 4.9611,-1.65 9.9136,-3.8942 11.0059,-4.9864 2.2937,-2.2937 7.3379,-1.0747 18.3066,4.4219 l 6.334,3.1738 v 10.7051 c 0,10.6376 -0.027,10.7217 -4.1973,12.9785 -6.2108,3.3611 -12.6666,9.197 -15.8222,14.3028 -2.7131,4.39 -2.7382,4.9113 -0.8907,19.2109 2.3899,18.4986 4.0845,21.4238 12.418,21.4238 5.5819,0 6.6169,-0.5477 11.8848,-6.2851 5.5219,-6.0141 5.8774,-6.1859 8.2929,-4 5.4277,4.912 12.3145,1.4066 12.3145,-6.2696 0,-6.5489 3.8073,-9.3509 11.3125,-8.3222 8.3616,1.1461 16.6875,5.5891 16.6875,8.9043 0,1.9922 -0.9018,2.6386 -3.6758,2.6386 -6.3965,0 -12.3683,2.3968 -17.4766,7.0118 -2.7225,2.4596 -9.9409,7.4368 -16.041,11.0625 -12.224,7.2655 -20.149,14.9842 -20.125,19.5976 0.034,6.4536 3.9624,17.2734 8.5274,23.4922 4.0338,5.4952 4.791,7.6116 4.791,13.3906 0,3.7753 -0.8245,8.8385 -1.832,11.25 -3.0857,7.385 -24.219,21.4927 -42.7832,28.5625 -3.5671,1.3585 -10.5628,2.1175 -20.7188,2.2442 -12.3739,0.1544 -16.748,0.7569 -22.666,3.123 -4.0333,1.6126 -8.5333,2.85 -10,2.75 -8.309,-0.5636 -19.7603,-3.3525 -27.5899,-6.7207 -5.5544,-2.3895 -6.5154,-3.4333 -8.2128,-8.9023 -3.9634,-12.7695 -12.4587,-34.4464 -16.2598,-41.4903 -4.5061,-8.3504 -11.0324,-13.3711 -17.3789,-13.3711 -4.6317,0 -5.0259,-0.5609 -6.582,-9.373 -0.7379,-4.1786 -0.2062,-5.4159 4.7402,-11.0352 3.064,-3.4809 8.2062,-8.1402 11.4258,-10.3554 7.2092,-4.96 10.3752,-10.6645 9.5078,-17.1309 -0.6362,-4.7436 -0.5372,-4.8569 9.4824,-10.7832 13.8704,-8.2038 18.0146,-13.933 20.1895,-27.914 1.6397,-10.5407 1.6009,-10.963 -1.2559,-14.004 -1.6201,-1.7245 -6.4983,-4.7293 -10.8398,-6.6777 -4.3417,-1.9484 -7.8926,-3.7996 -7.8926,-4.1152 0,-1.3896 10.6143,-10.1396 17.0273,-14.0352 3.9617,-2.4065 5.8057,-3.396 7.1387,-3.3594 z m 110.5,14.1211 c 1.169,0.012 11.316,7.1505 17.8281,12.5411 10.2184,8.4585 29.4247,33.9795 27.2266,36.1777 -0.2551,0.255 -2.847,-0.09 -5.7598,-0.7656 -12.4646,-2.8899 -21.9609,0.6492 -21.9609,8.1836 0,2.0022 -0.3654,4.59 -0.8106,5.75 -0.8983,2.341 -5.2371,2.8565 -6.5234,0.7753 -2.044,-3.3074 -7.9761,-1.2402 -13.4004,4.668 -4.2196,4.5959 -6.4607,6 -9.5762,6 -3.4857,0 -4.3665,-0.7479 -6.1562,-5.2207 -1.1485,-2.8705 -2.4958,-10.6204 -2.9942,-17.2226 -0.8732,-11.5671 -0.7799,-12.1654 2.5664,-16.4473 1.91,-2.444 6.9429,-6.2434 11.1836,-8.4434 9.858,-5.1142 7.8281,-3.1363 7.711,-15.0019 0,-6.0507 0.2994,-10.9942 0.666,-10.9942 z m -138,6.836 10,4.9336 c 8.9074,4.3948 10.72,2.2245 9.625,12.2461 -0.2059,4.0222 -0.9754,9.1829 -1.711,11.4687 -1.8409,5.7211 -9.5499,13.1032 -20.1816,19.3242 -7.1531,4.1856 -9.9353,3.1726 -8.1719,11.6856 0.7322,6.1823 0.5516,6.6474 -4.2949,10.9785 -2.7837,2.4876 -7.9206,7.2495 -11.414,10.582 -7.6985,7.344 -8.1434,6.6041 -6.5098,-10.8105 1.6814,-17.9246 9.0299,-38.6805 18.8359,-53.1934 4.317,-6.3892 9.1937,-12.8763 10.836,-14.416 z m 85.1777,20.6328 c -2.2473,0.1586 -4.2221,2.4007 -7.7441,5.1328 -3.5523,2.7554 -5.9026,5.106 -9.4414,9.1562 -2.3928,2.7387 -0.2916,8.8836 4.3047,5.7696 5.1706,-3.5032 10.1712,-8.5085 13.0742,-9.9356 2.903,-1.427 7.2117,-6.0222 3.2109,-8.8984 -1.3054,-0.9384 -2.3828,-1.2967 -3.4043,-1.2246 z m -49.6504,5.664 c -4.2994,-0.1681 -8.6842,6.1986 -5.166,8.0079 4.0208,2.0678 13.1715,5.8875 19.4531,9.4336 4.5835,2.5875 7.5785,0.2162 5.4375,-4.1543 -2.1409,-4.3704 -13.2125,-10.1985 -17.9121,-12.7832 -0.5874,-0.3231 -1.1983,-0.4799 -1.8125,-0.504 z m 39.1543,17.5293 c -4.138,0 -6.4473,11.0352 -3.0254,14.4571 0.9115,0.9115 3.1615,1.4824 5,1.2676 2.7137,-0.3171 3.4227,-1.2239 3.7676,-4.8184 0.4679,-4.8771 -2.7064,-10.9063 -5.7422,-10.9063 z m -25.4179,2.8282 c -0.2678,0 -0.541,0.044 -0.8184,0.1504 -2.9318,1.1251 -5.5486,11.049 -3.7832,14.3476 1.6003,2.9903 5.3079,3.5047 7.7383,1.0742 3.6374,-3.6374 0.8791,-15.5061 -3.1367,-15.5722 z m 128.9531,13.0898 c 1.8469,-0.01 3.8622,0.3186 6.1875,0.9414 2.3293,0.6238 2.9751,1.624 2.668,4.1387 -0.3359,2.7499 -1.8607,3.8427 -8.9239,6.3926 -10.3618,3.7408 -13.4075,6.342 -11.2773,9.6347 1.1625,1.797 3.1523,2.2512 8.9785,2.0489 4.1162,-0.143 7.4844,0.3203 7.4844,1.0293 0,3.0963 -8.3791,19.3362 -14.5567,28.2148 -3.7053,5.3255 -10.6125,13.8822 -15.3496,19.0156 l -8.6133,9.334 0.7774,-8.9101 c 0.7347,-8.4282 0.5612,-9.1834 -3.2149,-14 -5.7869,-7.3815 -6.8862,-9.9421 -7.875,-18.3555 -0.8549,-7.2735 -0.7236,-7.7169 3.6387,-12.3027 2.489,-2.6164 8.7261,-7.4622 13.8594,-10.7696 5.1334,-3.3075 11.8705,-8.3351 14.9707,-11.1718 3.9366,-3.6019 7.1829,-5.2253 11.2461,-5.2403 z m -118.6094,25.6504 c -10.0769,-0.057 -27.2655,4.3661 -34.123,8.8926 -11.7347,7.7454 -17.7445,14.1565 -14.6348,19.1347 1.958,3.135 3.0706,2.7667 10.3301,-3.4296 8.7376,-7.4577 16.1839,-11.0618 27.5215,-13.3223 15.7957,-2.9242 38.0259,-3.2679 47.9687,25.9434 2.8259,4.718 8.8041,8.7111 9.0215,1.8281 0.1873,-5.9325 -9.7796,-20.754 -13.3594,-25.2735 -6.7528,-8.5252 -15.4265,-12.5568 -30.8086,-13.7011 -0.6034,-0.045 -1.2442,-0.068 -1.916,-0.072 z m -86.6894,25.6484 c 2.1331,0.051 5.978,1.2441 8.7421,2.9688 1.647,1.0277 4.7292,5.3061 6.8477,9.5078 3.7749,7.4872 14.8262,35.7216 14.8262,37.8789 0,4.822 -14.0584,-10.4456 -21.0215,-22.8301 -4.4857,-7.9781 -10.9785,-23.8451 -10.9785,-26.8281 0,-0.5076 0.6143,-0.7202 1.584,-0.6973 z m 100.3613,63.6778 c 2.0418,0 3.2695,0.227 2.7207,0.7851 -0.7333,0.7456 -5.5327,1.7406 -10.666,2.211 -6.6885,0.6128 -8.7016,0.4634 -7.1016,-0.5274 2.1228,-1.3145 10.555,-2.4606 15.0469,-2.4687 z" fill="#00B894" transform="translate(-85.723813,57.092009) matrix(0.49206594,0,0,0.49206594,-595.70851,-712.69655)"/>
</svg>