<?xml version="1.0" ?><svg height="280.21298mm" viewBox="0 0 212.96237 280.21298" width="212.96237mm" xmlns="http://www.w3.org/2000/svg">
    <path color="#000" d="m 12596.021,2186.1262 a 52.555314,147.48291 7.1163755 0 0 -46.028,52.1686 36.654793,104.58922 10.500494 0 0 -5.625,-2.5263 36.654793,104.58922 10.500494 0 0 -54.734,93.6351 h -13.008 c -3.287,0 -5.931,2.6452 -5.931,5.9309 0,3.2856 2.644,5.9307 5.931,5.9307 h 10.953 a 36.654793,104.58922 10.500494 0 0 18.456,100.1391 36.654793,104.58922 10.500494 0 0 23.553,-13.8724 52.555314,147.48291 7.1163755 0 0 32.598,51.4613 52.555314,147.48291 7.1163755 0 0 70.24,-140.3415 c 166.359,-26.8066 334.47,-19.034 503.333,3.5721 -11.546,77.5745 1.236,143.0665 29.848,148.5572 13.878,2.6634 29.779,-9.4219 44.414,-33.7546 15.469,0.9441 35.225,-42.8007 44.771,-99.1369 8.714,-51.4123 11.637,-106.5723 -12.605,-109.756 2.85,-25.9327 -9.714,-51.3672 -24.8,-54.2625 -1.284,-0.2466 -2.59,-0.3676 -3.914,-0.3628 -28.646,0.1078 -61.055,58.0004 -75.158,133.4831 -183.242,-35.4042 -348.897,-33.0462 -503.942,-7.9023 a 52.555314,147.48291 7.1163755 0 0 -36.127,-132.8472 52.555314,147.48291 7.1163755 0 0 -2.225,-0.1156 z m 318.433,293.0363 a 62.06933,71.664814 34.353004 0 0 -62.479,37.8738 62.06933,71.664814 34.353004 0 0 17.071,92.3104 62.06933,71.664814 34.353004 0 0 90.726,-30.5486 62.06933,71.664814 34.353004 0 0 -17.072,-92.3105 62.06933,71.664814 34.353004 0 0 -28.246,-7.3251 z m 38.586,160.3424 c -10.441,-0.023 -23.09,1.0588 -38.195,2.5347 -60.419,5.904 -75.093,15.4856 -73.901,61.0872 23.842,127.9012 -0.17,151.0381 -8.993,175.3967 -8.824,24.3584 -6.958,56.7342 60.834,60.2468 69.966,3.625 80.097,-30.467 86.713,-49.633 6.618,-19.1661 12.473,-148.2896 14.679,-200.4425 1.655,-39.115 -9.812,-49.1217 -41.137,-49.1899 z" fill="#FFFFFF" overflow="visible" paint-order="fill markers stroke" transform="translate(159.57535,152.05268) matrix(0.26458333,0,0,0.26458333,-3457.1633,-729.45045)"/>
    <path d="m 13062.249,3220.6452 c -10.07,-5.3374 -9.564,-0.682 -19.372,-39.0847 -8.644,-30.8956 -42.279,-147.3198 -51.406,-174.5984 -8.747,-25.1397 -17.144,-49.548 -26.83,-72.9008 -1.688,-4.042 -2.65,-4.9389 -4.046,-3.7791 -40.946,22.0623 -94.694,20.2037 -125.912,-2.7148 -1.865,0 -13.077,41.271 -18.656,68.6657 -8.343,57.785 -24.365,125.5726 -21.2,185.9013 1.294,10.2542 1.214,10.7934 -2.135,14.1416 -2.453,2.4524 -2.979,3.7914 -1.782,4.5316 -0.245,11.4753 -46.906,34.3729 -54.541,28.6533 -7.757,-7.7563 -6.42,-9.1494 21.985,-22.9203 18.417,-8.9283 24.499,-12.8932 19.778,-12.8932 -2.006,0 -0.623,-47.8143 2.047,-70.8116 8.566,-56.0448 17.175,-125.5538 34.905,-187.7652 5.772,-19.9089 5.854,-20.4831 3.404,-24.2207 -11.168,-30.0421 42.11,-50.0987 18.881,-173.5441 -2.381,-19.1633 -2.938,-38.1624 -3.381,-57.4087 l -17.997,-36.0275 c -45.307,-80.5735 -77.152,-170.6508 -104.423,-246.3165 -2.857,-7.8679 -6.497,-18.4897 -8.085,-23.6038 -6.319,-20.3394 -8.958,-25.9425 -11.862,-25.1846 -6.302,1.6448 -11.135,-0.7946 -13.884,-7.0067 l -2.66,-6.0141 -7.537,1.2343 c -4.145,0.6787 -12.042,1.8862 -17.549,2.6833 -14.967,2.166 -14.285,1.6124 -14.455,11.7483 -4.285,25.5602 -26.589,98.2432 -41.472,115.7619 -6.398,8.3623 -23.298,16.3033 -32.755,16.9289 -11.878,-0.3238 -19.034,-3.6747 -23.288,-11.4443 -22.214,-40.5731 -24.1,-108.1933 -17.231,-149.4911 3.654,-19.6812 6.618,-42.0494 10.664,-58.6521 1.932,-7.868 3.817,-15.5929 4.189,-17.1665 0.373,-1.5735 -3.17,4.8031 -7.871,14.1705 -5.024,10.0126 -9.471,21.2137 -10.788,27.1801 -1.233,5.5818 -2.823,11.4364 -3.534,13.0099 -0.709,1.5737 -2.438,9.9423 -3.843,18.5969 -2.676,16.5049 -3.653,59.0799 -1.606,70.0964 0.582,3.1473 1.688,12.3466 2.452,20.443 1.536,16.2528 3.453,21.7585 8.328,23.901 8.049,3.5372 -2.424,10.7259 -15.63,10.7295 -9.121,0.343 -19.433,-1.3628 -22.626,-18.1152 -2.959,-15.5369 -4.213,-49.6271 -3.364,-68.9075 l 0.632,-14.3837 -5.789,-1.5588 c -3.183,-0.8575 -6.444,-2.7823 -7.243,-4.2774 -3.704,-6.9195 -0.274,-10.922 10.638,-12.4177 6.929,-0.9498 6.663,-0.3247 11.983,-17.669 8.607,-28.0632 18.201,-78.342 52.507,-78.6796 2.469,0 4.048,-1.6042 6.435,-6.5361 12.392,-43.6141 42.036,-47.4725 69.115,-33.2289 5.497,3.7346 13.627,12.5083 16.302,17.5917 2.837,5.3927 7.561,21.3383 9.093,30.6961 1.824,11.1469 1.887,46.2224 0.112,62.2888 -0.694,6.2943 -1.106,11.6421 -0.915,11.8837 0.943,1.1882 31.604,-5.8181 33.678,-7.6955 3.066,-2.7748 12.761,-4.4686 12.761,-2.2295 0,0.8896 1.609,1.6176 3.576,1.6176 2.815,0 3.576,-0.7262 3.576,-3.4119 0,-3.7488 4.563,-7.4724 10.119,-8.2573 2.881,-0.4069 3.55,0.188 3.93,3.4983 l 0.458,3.9887 4.942,-3.0549 c 5.546,-3.4274 9.162,-2.8613 9.162,1.4343 0,2.3294 0.742,2.7521 3.934,2.2433 2.164,-0.3448 11.016,-0.9638 19.671,-1.3756 98.127,-2.2329 205.824,-5.1199 298.155,7.134 13.805,1.937 15.108,1.9112 17.606,-0.3498 5.592,-5.0617 15.042,-3.1683 13.198,2.6445 -0.637,2.0064 -0.118,2.6591 2.112,2.6591 1.628,0 2.798,-0.752 2.601,-1.6713 -0.196,-0.9191 1.022,-2.3927 2.709,-3.2746 1.686,-0.8817 3.939,-2.2553 5.007,-3.0524 3.308,-2.4705 10.769,-2.4438 11.723,0.042 0.506,1.3203 2.567,2.2341 5.04,2.2341 4.735,0 6.667,3.0852 4.485,7.1622 -2.063,3.8539 -2.079,3.8351 5.601,6.3865 7.808,2.5927 9.92,5.631 6.526,9.3819 -2.14,2.364 -2.601,2.3571 -9.165,-0.137 -7.258,-2.7576 -8.68,-2.4832 -8.68,1.6764 0,2.6066 1.919,3.0913 19.227,4.8562 7.798,0.7953 9.326,-0.315 9.363,-6.8043 0.03,-4.6026 6.967,-32.4887 12.194,-48.9868 8.9,-28.0909 19.764,-52.5572 27.568,-62.0903 12.584,-15.3716 17.765,-19.5432 28.211,-22.7154 14.893,-4.5236 17.233,-4.8071 24.527,-2.9706 14.896,3.7511 24.398,22.9343 22.38,45.184 -0.797,8.7945 -0.785,8.8271 3.326,9.8023 23.902,-0.388 19.794,63.7835 14.973,86.4353 -0.832,3.887 -0.437,5.9242 1.767,9.1089 3.488,5.0353 2.038,10.7436 -3.387,13.3438 -2.81,1.3466 -4.128,3.814 -6.111,11.4476 -6.888,18.5115 -22.36,85.2235 -38.035,88.7928 -28.413,11.1003 -34.911,-14.2234 -37.44,-39.0067 -0.607,-7.0812 -1.568,-17.883 -2.134,-24.0042 -1.129,-12.2028 1.116,-39.4886 4.675,-56.8212 5.558,-19.3391 23.292,-85.4627 50.608,-88.8903 4.999,-4.6632 2.579,-42.8672 -9.135,-42.7191 -11.724,0.148 -25.751,20.3446 -31.38,30.6186 -33.606,67.2526 -43.159,144.4133 -30.245,208.2594 4.54,19.9927 7.302,25.8319 14.114,29.8516 8.11,4.7846 6.172,8.7946 -4.251,8.7946 -3.807,0 -5.621,-1.0821 -8.99,-5.3645 -5.539,-7.0372 -9.468,-15.14 -11.622,-23.9614 -0.959,-3.934 -2.352,-9.4058 -3.094,-12.1596 -9.66,-42.7489 -4.465,-102.1389 4.453,-136.6752 5.24,-19.3863 20.152,-61.3075 25.294,-71.1104 0.309,-0.5902 0,-1.0729 -0.695,-1.0729 -2.373,0 -13.43,25.7723 -21.021,48.9989 -19.375,37.2731 -33.953,201.9626 15.609,207.0816 6.746,-1.5215 11.769,-5.6283 14.224,-11.6302 0.659,-8.343 19.348,-7.6921 13.735,-0.8437 0,3.1042 -12.963,16.7379 -18.694,19.662 -39.773,12.5916 -47.945,-37.5574 -52.98,-65.1392 -2.7,-15.0731 -3.341,-23.7471 -3.38,-45.7773 -0.03,-14.949 0.268,-29.7209 0.654,-32.8264 l 0.704,-5.6461 -12.802,-1.848 -12.802,-1.8482 -4.046,3.8778 c -4.666,4.4682 -7.596,3.6014 -10.948,-3.2381 l -1.994,-4.0711 -4.214,11.3557 c -27.706,74.6395 -40.302,113.4859 -56.099,173.0067 -12.242,37.8189 -19.223,74.9585 -32.464,116.1223 -0.426,6.2151 9.795,2.7148 8.883,43.3955 4.37,57.1377 -2.712,158.8237 -14.536,208.6747 -3.674,13.0241 -5.203,19.1471 -14.519,26.7889 2.544,7.2534 7.195,14.0623 8.934,21.5606 29.331,75.4508 54.854,160.2139 71.514,223.6237 5.844,22.288 8.63,31.4588 10.962,36.0878 2.034,4.0367 12.595,11.6264 26.25,18.8637 15.957,8.4579 21.453,12.7079 21.453,16.592 -3.758,22.3035 -45.776,-11.0996 -49.091,-13.0739 z m -110.165,-301.031 5.972,-3.485 c -2.828,-7.5496 -11.241,-20.6273 -7.62,-23.8109 11.273,-5.0919 11.119,5.7121 16.375,9.4994 13.436,-40.8446 14.846,-78.4016 18.818,-119.45 1.836,-18.9906 1.768,-93.2026 -0.1,-112.9868 -1.573,-16.6165 -3.029,-18.4909 -15.81,-20.3433 -25.896,-2.1085 -112.925,-2.3626 -119.926,25.3245 -6.145,24.2978 5.756,85.2967 5.054,123.7415 -0.821,42.8506 -2.233,49.8061 -15.458,76.1971 -10.257,19.8152 -12.335,32.471 5.564,44.8119 35.424,19.7504 77.46,17.6641 107.134,0.5016 z m 23.179,-283.4786 c 2.947,0.2749 3.669,-0.6394 5.392,-6.8355 1.093,-3.9338 3.507,-12.3026 5.362,-18.5969 7.723,-26.9041 14.831,-53.9644 23.12,-80.8253 12.925,-46.2208 25.801,-96.7855 41.213,-135.1858 2.155,-5.3654 7.162,-19.0722 14.02,-38.3827 2.187,-6.1527 2.543,-8.7613 1.363,-9.9422 -1.149,-1.1484 -2.039,-1.1633 -3.15,-0.052 -3.112,3.1121 -13.874,-4.5848 -12.267,-8.7733 0.581,-1.5135 -0.487,-2.3321 -3.774,-2.8912 -10.369,-1.7638 -26.304,-3.676 -30.122,-3.6148 -2.244,0.036 -10.612,-0.5763 -18.597,-1.3608 -91.574,-2.2101 -167.521,-4.2195 -259.855,-0.8166 -2.754,0.2975 -7.441,0.5867 -10.415,0.6426 -5.481,0.1035 -5.797,0.4341 -7.411,7.7566 -0.83,3.7712 -1.323,4.0374 -6.556,3.5386 -3.112,-0.2969 -5.659,-0.3729 -5.659,-0.1693 30.731,100.6443 69.451,199.0346 117.304,287.9584 4.697,9.7195 9.576,19.3459 14.521,28.9402 l 3.826,-3.5778 c 47.375,-21.4447 85.755,-22.2125 131.685,-17.8117 z m -119.907,-29.8743 c -13.545,-11.3968 -20.063,-27.7235 -20.093,-50.3212 -0.02,-16.6505 2.542,-26.4148 10.852,-41.373 l 4.931,-8.8732 -3.251,-1.7322 c -6.283,-3.3478 -12.55,-9.1578 -12.55,-11.6354 0,-4.0956 8.318,-3.1156 15.636,1.8417 3.483,2.3611 6.704,3.7548 7.152,3.097 1.58,-2.3139 16.611,-12.7314 21.725,-15.0563 9.749,-4.4325 22.859,-6.3443 41.32,-6.026 20.176,0.3477 24.628,1.8718 35.048,11.9982 8.383,8.146 10.948,12.0861 15.504,23.8153 11.18,28.7696 -0.675,64.7041 -29.702,90.038 -28.747,20.5802 -58.549,26.9059 -86.572,4.2271 z m 79.821,-17.6087 c 9.552,-9.704 19.679,-24.5194 17.945,-26.2531 -0.325,-0.3258 -3.204,1.8185 -6.396,4.765 -3.19,2.9467 -7.855,6.11 -10.36,7.0295 -28.172,11.4311 -80.618,25.1082 -85.158,-9.8791 l -2.277,-5.111 -0.505,3.9843 c -0.279,2.1915 0.865,8.1014 2.538,13.1333 19.913,45.2077 58.051,38.7005 84.213,12.3311 z m 9.202,-36.4691 c 9.376,-9.7841 9.048,-10.5819 -4.402,-10.7607 -19.881,-3.342 -51.328,-4.433 -77.315,-8.536 -1.84,-0.9956 -3.516,-1.5971 -3.728,-1.3367 -0.213,0.2605 0.178,5.9454 0.868,12.6332 0.689,6.6877 0.897,13.6408 0.462,15.4511 -1.239,5.1551 4.096,11.346 11.903,13.811 24.511,4.2876 55.975,-4.752 72.212,-21.2619 z m 15.554,-25.5201 c -0.512,-13.0695 -8.424,-29.1409 -18.151,-36.8712 -5.533,-4.3968 -7.83,-5.2513 -7.83,-2.9126 0,1.5786 -4.312,0.9373 -8.396,-1.2484 -4.593,-2.458 -18.375,-1.7707 -29.359,1.4639 -12.25,3.6082 -14.926,5.5888 -7.547,5.5888 10.981,0 20.367,7.0893 19.305,14.5803 -0.606,4.2818 -5.187,3.7154 -8.811,-1.0898 -1.984,-2.6278 -3.972,-3.4767 -8.143,-3.4767 -3.035,0 -5.915,0.6438 -6.402,1.4305 -2.263,3.6623 -9.299,-0.289 -9.299,-5.2226 0,-2.3711 -0.216,-2.3493 -2.855,0.2885 -2.36,2.3611 -2.624,3.6522 -1.529,7.4733 1.095,3.8182 0.884,4.8548 -1.217,5.9798 -1.722,0.9209 -3.112,0.8042 -4.3,-0.3603 -1.375,-1.3477 -2.508,-0.7899 -5.218,2.5704 -3.419,4.2355 -4.851,10.3159 -2.019,8.5659 32.201,4.1896 60.541,5.9953 91.527,9.1975 5.114,0.5317 9.564,0.7775 9.89,0.5463 0.326,-0.2313 0.485,-3.1581 0.354,-6.5036 z m -17.44,-9.8835 c -3.281,-4.0835 -3.933,-4.3377 -6.976,-2.7095 -4.202,2.2489 -9.467,0.1796 -10.88,-4.2769 -1.232,-3.876 0.438,-5.5775 6.9,-7.035 8.048,-1.815 17.235,4.9804 18.808,13.9123 0.665,3.773 0.351,4.623 -1.708,4.6195 -1.389,0 -4.154,-2.032 -6.144,-4.5104 z m -389.392,-49.4881 c -1.212,-1.3768 -3.856,-5.7222 -5.877,-9.6561 -3.959,-7.7024 -4.654,-7.3992 -2.321,1.0078 0.809,2.9148 3.146,6.6163 5.192,8.2257 4.559,3.5868 5.963,3.7841 3.006,0.4226 z m 40.683,-18.4024 c 8.907,-31.3189 24.531,-58.7278 30.383,-91.3913 0.488,-3.1472 1.246,-7.5223 1.682,-9.7225 l 0.794,-4.0002 -7.638,1.071 c -7.566,1.0608 -16.784,1.1231 -17.786,0.1201 -0.285,-0.286 -0.694,-2.066 -0.908,-3.9557 -0.357,-3.1402 0.288,-3.5366 7.479,-4.607 4.328,-0.644 17.525,-2.7394 29.326,-4.6561 11.802,-1.9167 24.838,-3.9101 28.969,-4.4298 7.387,-0.9296 7.51,-1.0236 7.51,-5.7675 0,-5.4876 -1.586,-5.8878 -12.876,-3.2465 -6.133,1.435 -18.037,3.6607 -25.758,4.816 -1.972,0.2949 -7.785,1.5103 -12.917,2.7006 -8.891,2.0618 -19.086,2.2879 -20.91,0.4633 -2.565,-2.5644 1.748,-5.2403 11.93,-7.4016 6.148,-1.305 11.82,-2.5634 12.609,-2.7968 0.911,-0.2706 1.391,-14.8613 1.323,-40.3036 -0.09,-35.5469 -0.42,-40.9673 -2.995,-49.8932 -5.042,-17.4794 -13.218,-29.592 -21.356,-31.6343 -15.28,-3.8349 -32.255,26.1426 -48.377,85.4358 -8.348,30.7013 -11.4,58.8278 -9.294,85.6759 1.083,13.8135 1.292,15.7227 4.062,37.1941 3.718,28.805 11.064,54.8576 17.092,60.6224 7.165,10.0509 22.865,-0.9563 27.656,-14.2931 z m -8.579,-107.0343 c -4.117,-2.316 -7.351,-6.5242 -7.411,-9.6392 -0.127,-6.725 15.656,-16.3823 19.876,-12.1618 2.515,2.5152 1.768,4.3996 -2.764,6.9785 -5.64,3.2094 -6.001,9.2367 -0.635,10.5837 2.342,0.5881 3.49,1.7493 3.207,3.246 -0.555,2.9382 -7.779,3.5225 -12.273,0.9928 z m 630.31,103.4258 c 5.08,-1.9013 3.471,-6.1377 -2.549,-6.7118 -5.495,-0.5242 -10.316,-5.0845 -13.867,-13.1205 -1.779,-4.023 -2.248,-11.7529 -2.386,-39.3397 -0.09,-18.8831 0.33,-36.8104 0.948,-39.8383 0.69,-3.3767 0.601,-5.1831 -0.225,-4.6721 -0.741,0.4583 -2.184,8.3327 -3.205,17.4986 -1.503,13.4772 -1.52,21.7077 -0.09,43.0264 1.818,27.1597 4.088,38.014 9.066,43.3576 5.531,3.3535 8.57,1.1913 12.31,-0.2002 z m -715.612,-14.3218 c -1.136,-2.7186 -2.469,-10.0593 -2.962,-16.3133 -0.492,-6.2537 -1.531,-14.911 -2.308,-19.2384 -0.777,-4.3275 -1.858,-17.2022 -2.4,-28.6109 -0.845,-17.77 -1.107,-19.4101 -1.824,-11.4442 -8.383,83.8889 12.734,83.7408 9.494,75.6068 z m 722.291,-1.1997 c 4.321,-6.9909 20.755,-61.5391 20.755,-68.8893 0,-0.8637 -1.705,-1.0794 -4.199,-0.5314 -3.166,0.6955 -4.925,0.1962 -7.152,-2.0321 -1.625,-1.6249 -3.293,-2.9061 -3.706,-2.847 -2.367,0.3382 -3.814,-1.4316 -4.784,-5.8546 -1.462,-6.664 0.03,-12.2546 3.127,-11.7141 1.551,0.2707 2.408,-0.5349 2.408,-2.2617 0,-4.6205 5.938,-6.6723 13.674,-4.7244 3.686,0.9282 6.924,1.4662 7.194,1.195 0.272,-0.2709 1.546,-6.8981 2.833,-14.7274 9.318,-27.3828 2.822,-88.4733 -15.967,-49.4669 -1.343,2.855 -4.463,9.3751 -6.934,14.4893 -7.791,16.1231 -12.969,32.3353 -16.674,52.2146 -2.091,11.2103 -2.765,77.9699 -0.878,86.8593 1.645,7.749 7.652,12.5819 10.303,8.2907 z m 10.742,-81.5189 c 0,-0.7643 2.091,-2.0187 4.648,-2.7873 l 4.65,-1.3977 -5.711,0.2838 c -4.163,0.207 -5.839,0.9622 -6.185,2.7875 -0.261,1.3768 0.217,2.5033 1.062,2.5033 0.844,0 1.536,-0.6253 1.536,-1.3896 z m -753.894,-11.3682 c 0,-0.7223 0.39,-2.3318 0.867,-3.5763 0.562,-1.4628 0.09,-2.2628 -1.346,-2.2628 -2.785,0 -4.31,2.3651 -3.27,5.0754 0.876,2.2791 3.749,2.8646 3.749,0.7637 z m 592.792,-12.2263 c 2.864,-4.3677 2.88,-5.0571 0.13,-5.0571 -1.755,0 -4.972,5.1521 -4.972,7.961 0,1.8579 2.838,0.1566 4.842,-2.9039 z m -17.255,-2.3759 c 0.457,-1.7478 0.555,-3.625 0.217,-4.1717 -0.338,-0.5465 -4.653,-1.4914 -9.587,-2.0995 -4.934,-0.6081 -9.94,-1.3172 -11.118,-1.5757 -4.357,-0.9542 -48.444,-4.7094 -64.374,-5.4831 -82.949,-4.0284 -213.278,-3.2796 -239.616,1.3767 -0.787,0.1392 -3.201,0.351 -5.364,0.4709 -3.505,0.1941 -3.934,0.7667 -3.934,5.2519 0,4.4623 0.365,4.9593 3.218,4.3753 18.323,-3.752 109.909,-5.5828 193.48,-3.8678 30.294,0.6218 80.45,3.6942 103.714,6.3535 9.048,1.0341 20.07,2.0304 24.493,2.2135 7.242,0.3004 8.123,0.018 8.871,-2.844 z m -360.957,-3.3965 c 0,-4.0532 -0.545,-5.0069 -2.86,-5.0069 -2.188,0 -2.862,0.9537 -2.862,4.0531 0,4.4789 0.948,5.9607 3.816,5.9607 1.226,0 1.906,-1.7882 1.906,-5.0069 z" fill="#00B894" transform="translate(159.57535,152.05268) matrix(0.26458333,0,0,0.26458333,-3457.1633,-729.45045)"/>
</svg>