<?xml version="1.0" ?><svg height="208.28857mm" viewBox="0 0 166.60378 208.28857" width="166.60378mm" xmlns="http://www.w3.org/2000/svg">
    <path color="#000" d="m 13712.555,2203.3806 c -1.382,-0.011 -2.767,0 -4.155,0.011 l 1.293,58.804 c 31.556,5.4324 76.751,-7.0426 114.047,-30.8846 -28.343,-18.7623 -68.345,-27.7236 -111.185,-27.9268 z m -83.102,46.629 a 26.940809,39.234062 7.7144184 0 0 -29.553,35.4304 26.940809,39.234062 7.7144184 0 0 21.431,42.4957 26.940809,39.234062 7.7144184 0 0 31.964,-35.2628 26.940809,39.234062 7.7144184 0 0 -21.43,-42.4949 26.940809,39.234062 7.7144184 0 0 -2.412,-0.1684 z m 1.059,94.9692 c -14.472,0.1918 -29.125,11.8279 -23.79,18.295 l 11.496,129.9572 c 11.357,4.9293 36.949,-2.4901 53.488,-16.7515 0,0 -10.961,-112.7911 -26.516,-126.4303 -4.232,-3.7114 -9.443,-5.1397 -14.678,-5.0704 z m 8.869,246.5539 c -148.882,95.3088 -206.619,241.7796 -304.948,373.9385 246.883,46.9698 190.687,-48.9687 605.046,9.6244 -93.201,-127.7461 -183.736,-324.4925 -300.098,-383.5629 z" fill="#FFFFFF" overflow="visible" paint-order="fill markers stroke" transform="translate(-65.361695,181.79444) matrix(0.26458333,0,0,0.26458333,-3459.5563,-761.6758)"/>
    <path d="m 13939.479,2975.0953 c -78.298,-92.9899 -148.176,-241.4226 -231.759,-328.0085 -14.372,-14.3694 -36.277,-30.632 -43.804,-32.5215 -2.114,-0.5304 -4.307,-2.4216 -4.872,-4.2024 -1.273,-4.0127 -17.263,-11.6114 -21.564,-10.2468 -5.016,1.5918 -21.45,12.7486 -29.293,19.887 l -7.28,6.6252 7.28,3.144 c 4.003,1.7294 8.726,4.7604 10.494,6.7356 3.169,3.5413 3.17,3.6232 0.1,5.8719 -4.72,3.4515 -9.706,2.7702 -17.94,-2.4512 l -7.46,-4.7321 -26.418,25.8602 c -82.857,101.0203 -153.762,186.3047 -215.723,284.5137 -15.081,23.9039 -15.886,28.0619 -27.685,23.5744 -15.844,-6.0274 155.171,-238.242 231.495,-319.3815 14.568,-14.4202 23.374,-24.3208 22.849,-25.6896 -0.47,-1.2248 0.617,-3.8279 2.417,-5.7848 1.799,-1.9566 4.571,-7.5617 6.157,-12.4555 1.588,-4.8939 4.523,-13.2659 6.527,-18.6046 6.9,-18.3986 12.128,-35.6465 16.668,-55.005 5.768,-24.5857 6.106,-31.3887 1.806,-36.3455 -3.026,-3.4895 -3.283,-5.9724 -3.283,-31.7426 2.279,-31.9712 -8.734,-54.0183 -8.897,-84.2183 v -14.7938 l -8.552,-5.4286 c -14.433,-9.1624 -30.099,-25.3171 -34.287,-35.3581 -9.114,-21.8365 -5.17,-61.5103 9.103,-91.5788 3.477,-7.3276 6.26,-16.1762 7.025,-22.3378 1.267,-10.2203 5.232,-18.7427 8.719,-18.7427 1.022,0 5.662,1.3902 10.311,3.0893 4.648,1.6991 9.92,2.705 11.714,2.2358 4.474,-1.1702 8.432,2.4082 7.144,6.4615 -2.058,6.4841 -16.073,17.3338 -22.391,17.3338 -1.361,0 -2.97,1.9657 -3.572,4.3682 -17.727,26.8745 -26.472,71.4561 -15.515,98.1398 3.833,8.4067 10.911,15.6149 19.286,19.6424 4.746,2.2813 6.124,2.2176 16.955,-0.7842 6.484,-1.7968 15.675,-3.2671 20.423,-3.2671 4.747,0 9.922,-0.6902 11.498,-1.5338 2.107,-1.1284 4.203,-0.5938 7.923,2.0223 2.782,1.9559 5.267,4.3667 5.522,5.3577 0.873,3.3934 38.578,36.2165 41.604,36.2165 0.587,0 1.269,-5.9023 1.515,-13.1161 0.353,-10.3539 -0.338,-15.3794 -3.292,-23.8625 -2.056,-5.9105 -4.656,-11.7084 -5.777,-12.8841 -2.645,-2.7725 -2.573,-4.3031 0.314,-6.7 1.895,-1.5724 1.974,-2.5777 0.405,-5.1495 -1.682,-2.7545 -1.353,-3.6352 2.373,-6.3768 10.659,-7.8423 10.986,-8.3745 11.843,-19.2719 0.455,-5.7837 1.998,-23.9063 3.431,-40.2727 1.433,-16.3661 2.13,-33.8384 1.548,-38.827 -2.165,-18.5662 -2.618,-17.1699 5.549,-17.0712 14.915,0.1801 27.048,1.4238 39.632,4.0625 14.481,3.0366 36.355,9.3066 38.832,11.1305 4.12,3.0371 25.924,9.7948 31.601,9.7948 4.878,0 6.917,0.8807 8.842,3.8166 3.55,5.4181 2.085,7.5881 -9.33,13.8256 -32.337,17.6675 -39.26,20.5919 -53.764,22.711 -9.386,1.3715 -40.27,3.9335 -49.342,4.0933 -3.729,0.065 -4.325,1.7967 -4.653,13.482 -0.167,5.9553 -0.731,13.223 -1.252,16.1504 -0.673,3.7668 -0.148,6.2101 1.797,8.3588 2.252,2.4889 2.403,3.681 0.834,6.6123 -1.423,2.6589 -1.443,3.8674 -0.08,4.7128 2.213,1.3672 0.544,6.5264 -3.023,9.3495 -2.029,1.6061 -1.464,1.6451 2.871,0.1974 4.45,-1.4862 5.848,-1.3508 7.971,0.7716 4.119,4.1186 0.382,10.2221 -7.57,12.3632 -9.296,2.5031 -9.866,7.5621 -3.648,32.3339 5.96,23.7419 5.436,32.4148 -1.959,32.4148 -8.679,14.2825 -8.506,97.3914 -10.355,113.2886 -1.319,11.3435 -6.134,4.9737 -9.302,3.7579 -4.35,-39.2757 2.39,-77.4931 4.432,-125.9444 l -6.745,-4.8534 c -7.153,-5.1444 -7.153,-5.1444 -16.815,-13.4466 -3.429,-2.9466 -6.512,-5.0825 -6.848,-4.7463 -0.335,0.3362 1.086,6.0232 3.16,12.6377 5.944,18.9612 14.812,68.3733 14.449,80.5014 -0.138,4.5946 -1.621,9.0408 -4.318,12.9424 -4.745,6.8644 -4.527,1.4121 -2.95,73.8909 l 1.126,51.7695 4.044,0.493 c 10.851,4.3807 25.285,3.1161 35.137,9.876 5.789,4.1507 3.808,11.4713 -3.104,11.4713 -1.602,0 -2.912,0.2885 -2.912,0.6411 0,0.3527 7.132,7.8147 15.848,16.5824 87.964,98.697 128.972,186.3284 201.745,286.8096 24.956,34.3325 28.931,40.9097 27.484,45.4718 -1.29,4.0644 -9.031,4.2776 -12.47,0.3434 z m -316.732,-385.8475 c 8.047,-3.7575 9.741,-4.0006 17.734,-2.5466 4.86,0.8841 10.865,2.6572 13.346,3.9403 l 4.511,2.3326 0.188,-25.5218 c 0.428,-58.5131 -0.643,-71.6308 -5.84,-71.6282 -0.895,5e-4 -5.457,1.4564 -10.138,3.2357 -4.681,1.779 -9.856,3.2347 -11.5,3.2347 -2.54,0 -3.289,2.213 -5.005,14.755 -2.61,20.6307 -9.619,42.6013 -15.297,59.4184 l -8.907,26.3036 6.005,-4.6848 c 3.303,-2.5765 10.01,-6.5541 14.903,-8.8389 z m 18.555,-100.5125 c 5.838,-2.1188 13.122,-5.5713 16.188,-7.6723 9.165,-6.2807 9.867,-8.9198 7.38,-27.7764 -6.256,-47.4744 -9,-59.5756 -19.984,-88.1588 -4.869,-12.669 -5.375,-13.3459 -9.197,-12.3249 -2.224,0.594 -6.912,1.64 -10.42,2.3243 -3.506,0.6843 -7.334,2.5568 -8.507,4.1613 -5.587,7.6403 -6.848,24.282 -2.972,39.2386 4.772,18.417 9.118,50.7365 8.807,65.4939 -0.329,15.6079 2.39,28.5667 5.995,28.5667 1.153,0 6.873,-1.7335 12.71,-3.8524 z m 104.127,-234.8444 c 23.422,-1.2144 35.888,-5.12 56.084,-17.5713 l 6.471,-3.9897 -9.333,-4.1412 c -21.06,-9.3455 -47.824,-16.2016 -70.529,-18.068 l -12.351,-1.0155 -0.296,24.2217 -0.294,24.2218 7.574,-1.4376 c 4.167,-0.7907 14.369,-1.7897 22.674,-2.2202 z m -130.77,76.7176 c -10.557,-4.2095 -19.392,-19.137 -20.657,-34.9024 -0.982,-12.2304 3.707,-26.5531 11.204,-34.2207 6.492,-6.6389 18.921,-14.7445 23.076,-15.0491 1.85,-0.1355 4.455,-0.3555 5.79,-0.4889 8.122,-0.8116 18.427,10.2211 20.972,22.4532 0.958,4.6053 1.481,4.9363 7.019,4.4449 5.04,-0.4474 5.982,-0.033 5.982,2.6349 0,1.9922 -1.799,3.911 -4.854,5.176 -3.194,1.3235 -4.875,3.1873 -4.92,5.4542 -0.112,5.6724 -5.509,25.74 -8.326,30.9463 -2.749,5.0875 -8.485,10.6629 -14.011,13.6203 -4.015,2.1487 -15.809,2.1106 -21.275,-0.069 z m 18.387,-9.6255 c 6.424,-5.0538 12.009,-15.768 13.638,-26.1708 1.3,-8.2948 1.156,-9.3023 -1.334,-9.3023 -3.444,0 -7.077,-4.1081 -5.66,-6.4003 0.574,-0.9288 2.535,-1.6888 4.36,-1.6888 3.826,0 3.486,-2.8277 -1.84,-15.2532 -3.369,-7.8617 -7.129,-10.67 -10.189,-7.6107 -1.008,1.008 -3.341,1.8326 -5.185,1.8326 -9.195,0 -21.885,18.0044 -21.885,31.0529 0,5.744 0.337,6.2676 3.406,5.2937 2.575,-0.8176 4.895,0.3746 9.526,4.8974 6.432,6.2814 9.35,6.3011 14.497,0.098 3.269,-3.938 8.163,-3.1901 8.163,1.2476 0,4.7931 -5.779,10.1307 -12.507,11.5535 -6.766,1.4308 -17.266,-4.225 -19.972,-10.7589 -2.857,-6.8966 -3.811,-4.184 -1.608,4.5688 4.339,17.227 16.314,24.7223 26.59,16.6407 z m -20.521,-42.1209 c -1.226,-4.6899 1.626,-9.8648 5.073,-9.2012 1.93,0.3717 2.723,2.1652 2.723,6.1644 0,4.5139 -0.685,5.7377 -3.43,6.1294 -2.406,0.3435 -3.709,-0.5781 -4.366,-3.0926 z m 16.693,-4.5813 c 0,-1.7271 -0.728,-3.5901 -1.618,-4.1401 -3.392,-2.096 -1.6,-5.6621 2.847,-5.6621 5.186,0 9.14,5.0756 7.638,9.8079 -1.379,4.3381 -8.867,4.3334 -8.867,-0.011 z" fill="#00B894" transform="translate(-65.361695,181.79444) matrix(0.26458333,0,0,0.26458333,-3459.5563,-761.6758)"/>
</svg>