<?xml version="1.0" ?><svg height="184.96422mm" viewBox="0 0 191.80473 184.96422" width="191.80473mm" xmlns="http://www.w3.org/2000/svg">
    <path color="#000" d="m 10917.245,2251.894 c -16.981,-0.1159 -37.451,9.1531 -66.086,24.5501 -23.752,25.9376 -28.656,42.7667 -16.801,77.5088 13.195,38.668 67.703,33.9875 92.787,9.7752 21.757,-21.0008 48.372,-68.4288 23.51,-95.3222 -10.488,-11.3455 -21.02,-16.4272 -33.41,-16.5119 z m -112.401,124.4966 c -10.109,-0.064 -23.083,3.8621 -39.191,13.5708 -45.661,27.5209 -95.665,103.3507 -79.283,207.1089 12.341,78.1583 105.633,28.738 94.929,-6.4527 -10.701,-35.1909 -1.14,-106.2528 37.315,-145.177 21.816,-22.0807 20.734,-68.8279 -13.77,-69.05 z" fill="#FFFFFF" overflow="visible" paint-order="fill markers stroke" transform="translate(91.920314,-89.365254) matrix(0.26458333,0,0,0.26458333,-2887.794,-494.72535)"/>
    <path d="m 11274.434,2213.9777 c -54.783,55.5208 -121.353,112.1162 -168.743,158.7673 -6.356,6.3249 -12.399,11.8318 -13.608,12.3995 -0.532,0.2509 -1.711,1.4649 -2.617,2.6986 -2.249,3.0626 -8.391,8.9477 -10.573,10.1313 -2.326,1.476 -6.978,7.7406 -9.058,8.2279 -0.831,0.1727 -1.51,0.6386 -1.51,1.036 0,2.0631 -1.603,1.1386 -6.041,-3.4837 -3.177,-3.3097 -5.685,-5.3978 -7.471,-6.2177 -3.358,-1.5427 -5.707,-3.1402 -5.707,-3.8813 0,-0.3769 1.336,-0.4265 3.98,-0.1471 2.191,0.2313 4.847,0.4657 5.905,0.5212 3.485,0.1825 6.273,0.94 9.334,2.5353 3.459,1.8024 4.627,1.9138 7.602,0.7232 2.48,-0.9925 3.382,-2.5946 3.382,-6.0176 0,-5.1748 -2.31,-7.4059 -7.667,-7.4059 -2.93,0 -5.405,-1.2919 -3.722,-1.9442 0.532,-0.2063 1.767,-0.203 2.745,0.011 0.978,0.2104 3.671,0.3434 5.985,0.296 3.565,-0.073 4.611,0.1291 6.86,1.3263 2.882,1.5345 5.489,1.8075 6.945,0.7265 1.412,-1.0494 3.13,-4.8202 3.13,-6.8742 0,-2.6581 -2.584,-4.8734 -6.256,-5.3604 -3.182,-0.4224 -8.274,-1.6574 -9.205,-2.2331 -15.355,-1.9074 -40.126,0.9382 -50.661,10.3316 -4.427,4.1514 -6.317,4.7675 -15.545,5.0683 -49.136,1.3855 -102.792,36.3304 -142.924,35.7435 -7.184,-0.4862 -28.533,-3.1584 -27.149,-9.3615 0,0 0.776,-4.772 0.782,-6.5829 -1.072,-12.2843 -9.736,-23.2917 -19.527,-28.8259 -36.953,-25.561 -82.683,23.5371 -98.888,43.3754 -36.169,51.7914 -48.44,103.1854 -44.388,165.8351 0.365,4.515 1.747,14.1971 2.25,15.7618 3.849,32.3893 32.07,47.6309 48.535,47.8524 3.653,0.028 5.332,1.1185 5.831,3.7864 0.213,1.1348 0.689,2.3105 1.061,2.6126 13.119,43.3229 -44.382,63.4967 -104.375,107.1522 -0.775,1.0171 -1.649,1.8493 -1.942,1.8493 -19.933,12.0374 7.6,18.6763 15.256,24.3405 2.422,1.9639 7.964,4.4036 13.337,5.8738 l 2.471,0.6763 -2.401,1.9893 c -1.322,1.0941 -3.298,2.9711 -4.393,4.1715 -28.761,32.1051 -37.291,36.2926 -87.549,96.5402 -0.243,0.972 -0.584,2.3408 -0.757,3.0421 -0.289,1.1663 0.387,3.1661 1.656,4.9026 1.543,2.1088 5.732,-0.4108 13.128,-7.8933 3.542,-3.5865 8.578,-8.4978 11.189,-10.9139 2.61,-2.4161 5.147,-4.8624 5.637,-5.436 20.67,-24.1431 45.13,-49.7821 66.372,-70.3751 74.434,-62.7894 145.859,-134.5511 199.844,-187.263 18.114,-17.6784 21.033,-20.4226 24.887,-23.3938 35.773,-31.1182 73.701,-67.5124 102.207,-97.2761 5.577,-5.7901 11.858,-12.3802 13.957,-14.6452 11.019,-9.7206 18.878,-20.4533 30.749,-29.0295 1.194,-0.8213 5.014,-4.3541 8.488,-7.8506 26.658,-24.8989 54.03,-51.5479 77.73,-74.3175 37.696,-34.5045 77.199,-74.3645 111.682,-104.8791 8.747,-8.8655 19.203,-17.0654 27.979,-26.2782 10.15,-8.4416 18.441,-16.6677 27.272,-25.4805 6.404,-11.0632 -2.819,-19.7943 -15.491,-6.9342 z m -454.652,110.0323 c -0.794,12.8392 2.308,20.8284 7.88,32.5373 32.778,68.8782 139.522,17.112 138.358,-56.7097 -0.167,-3.3149 -0.07,-4.7465 0.243,-5.2938 12.362,-5.6644 26.908,-15.5647 10.281,-19.8865 -7.323,3.5415 -11.305,5.6255 -12.073,6.316 -0.797,0.7155 -1.078,0.62 -2.564,-0.8671 -5.691,-16.4274 -13.118,-23.6863 -25.146,-29.8667 -49.272,-25.3168 -110.919,23.7575 -116.979,73.7705 z m 118.638,-58.4816 c 3.462,3.3671 4.433,4.7972 7.826,11.5315 2.13,4.2283 4.039,8.4443 4.24,9.3687 0.516,2.3547 0.06,2.7405 -8.916,7.5031 -10.175,6.0862 0.12,13.9398 6.075,9.3388 l 3.684,-1.6271 c 0.205,15.2041 -7.302,28.1286 -13.97,36.6493 l -4.393,-1.0483 c -10.679,-4.0003 -13.75,-3.024 -26.323,3.7887 -9.981,4.7727 -5.144,9.1169 1.336,8.9286 5.683,0.2252 15.587,-9.7365 21.641,-3.4105 0.291,0.2771 -0.372,1.4526 -1.598,2.8314 -21.42,20.9798 -44.235,34.1791 -72.037,21.197 -2.599,-1.2441 -3.951,-2.3574 -5.75,-4.741 -23.122,-18.8723 -18.529,-56.3373 6.253,-81.9857 27.021,-27.9685 60.754,-37.4442 81.932,-18.3245 z m -15.042,2.9906 c -3.142,1.4119 -8.214,2.3989 -8.259,5.8488 2.446,1.1899 9.811,10.6508 9.062,12.467 2.948,1.5241 9.118,-0.4455 10.463,-2.9714 1.445,-3.7151 -3.865,-15.2041 -11.266,-15.3444 z m -45.938,30.4483 c 0.56,10.1835 1.96,13.1852 7.099,15.2284 3.798,1.5099 5.935,1.3063 7.931,-0.756 4.344,-4.4878 4.272,-7.763 -0.517,-23.2007 -2.519,-8.1229 -4.692,-14.262 -6.735,-15.1233 -9.983,-1.4742 -8.085,18.128 -7.778,23.8516 z m -17.987,-2.5861 c -3.803,8.0946 -9.676,22.9503 -6.465,32.1888 4.668,6.9141 13.092,3.6701 17.313,-0.4792 7.595,-7.7768 3.097,-25.6792 -0.02,-34.4309 -2.961,-10.9794 -8.645,-1.6616 -10.835,2.7213 z m 24.494,-10.1139 c 0.817,0 1.224,2.1087 2.292,9.0866 1.14,6.1838 -0.48,7.6033 -1.89,3.2301 -0.998,-4.5148 -0.643,-8.131 -0.402,-12.3167 z m -20.137,19.6217 c 5.523,4.4863 2.253,25.1159 -4.148,18.3993 -1.059,-2.8133 2.33,-18.3142 4.148,-18.3993 z m -49.09,78.1865 c 17.98,9.5114 7.621,32.2665 5.068,41.7264 -0.53,2.0751 -1.514,4.5457 -2.185,5.4907 -0.671,0.945 -1.89,3.0335 -2.707,4.6412 -0.816,1.6078 -1.84,3.0602 -2.275,3.2271 -1.146,0.4396 -3.18,-1.6641 -6.743,-6.9738 -3.673,-5.4738 -5.948,-10.845 -6.856,-16.1986 -0.651,-3.8327 -0.66,-3.8486 -3.368,-5.3291 -3.493,-1.9105 -7.983,-2.5357 -9.776,-1.3619 -2.188,1.4337 -2.106,7.602 0.156,11.8285 11.933,30.7151 22.2,29.2465 18.755,31.6274 -26.258,32.022 -32.506,66.4426 -35.766,101.3391 -1.166,14.4267 -1.181,14.5347 -2.204,15.6581 -0.555,0.6081 -1.381,1.9667 -1.834,3.0196 -8.008,9.9483 -16.506,22.0623 -22.106,31.8421 -6.355,12.5426 11.141,13.4406 16.133,4.3928 1.146,-2.8404 11.788,-20.8791 14.13,-17.8226 2.031,18.6766 -14.08,40.9735 -34.102,44.1081 -80.403,12.5879 -43.526,-185.7886 14.287,-227.8141 1.468,-1.3591 2.952,-2.7601 3.295,-3.1138 16.533,-14.1355 39.748,-28.2378 58.098,-20.2872 z m 202.641,12.3151 c 14.171,-0.062 37.45,6.2883 39.982,22.3062 -4.758,6.3703 -9.24,7.2368 -14.49,13.4332 -1.137,1.4257 -5.707,5.8142 -7.664,7.3609 l -1.946,1.5372 -0.918,-1.4005 c -0.505,-0.7702 -1.339,-1.3996 -1.856,-1.3996 -0.517,0 -1.534,-0.6332 -2.26,-1.4069 -1.293,-1.3746 -1.301,-1.4448 -0.372,-3.0648 1.324,-2.3078 1.189,-4.0762 -0.479,-6.2636 -1.496,-1.9604 -3.981,-2.9846 -7.254,-2.9898 -1.002,0 -2.237,-0.2242 -2.745,-0.494 -31.978,-7.777 -66.064,10.3374 -92.355,23.2539 -22.007,10.3552 -54.327,26.2362 -78.772,12.6431 -0.619,-0.3947 -2.435,-1.1004 -4.037,-1.5676 -3.274,-0.9555 -12.803,-5.7913 -15.242,-7.7365 l -1.599,-1.2749 0.963,-1.8429 c 2.854,-5.3646 10.083,-15.2622 10.278,-21.242 0,-0.5895 0.478,-1.6551 1.065,-2.3681 1.037,-1.2612 1.108,-1.2708 2.608,-0.3525 5.759,3.5222 15.491,6.3227 27.439,7.8951 46.971,5.3356 86.206,-26.2474 125.774,-31.7152 9.271,-1.8782 14.833,-3.1596 23.88,-3.3105 z m -20.114,41.296 c 8.144,3.3786 25.873,7.0346 27.149,11.4327 0,0.2214 -1.306,1.6921 -2.901,3.2674 -1.595,1.5753 -3.139,2.8644 -3.432,2.8604 -0.292,0 -1.643,-1.3695 -3.003,-3.0383 -1.358,-1.6686 -4.078,-4.1001 -6.04,-5.4037 -1.298,-1.5033 -12.404,-6.6021 -12.629,-8.7581 0,-0.2196 0.371,-0.3345 0.856,-0.3604 z m -26.889,16.7344 c 6.859,1.7951 17.594,2.9677 18.677,9.5865 0.206,1.3433 1.207,4.1991 2.226,6.3458 1.555,3.2716 2.164,4.0153 3.767,4.5945 1.162,0.4203 1.911,1.0573 1.911,1.625 0,0.5136 -1.535,2.289 -3.412,3.9454 -5.142,4.5364 -11.964,11.3843 -11.964,12.0087 0,0.3036 -1.544,2.1397 -3.432,4.0805 -32.347,30.5464 -58.862,63.081 -92.736,88.329 -4.437,3.1918 -10.362,8.3553 -10.362,9.0316 0,0.3588 -0.781,1.1463 -1.736,1.7511 -1.379,0.8729 -1.998,0.981 -3.002,0.5236 -9.981,-2.6627 -19.105,5.9766 -24.099,13.3254 v 0 c -0.758,1.2005 -1.622,2.1823 -1.921,2.1823 -0.684,0 -0.698,-1.3704 -0.03,-2.6158 9.523,-24.0935 20.845,-49.1871 23.038,-74.5362 0.257,-3.6244 0.364,-6.7713 0.236,-6.9942 0.03,-13.3082 -9.432,-39.9059 -36.997,-21.1037 -1.041,0.9924 -2.881,2.3981 -4.089,3.1235 -13.759,8.4854 -22.337,18.2295 -33.224,28.8813 -4.542,4.4238 -4.678,4.5085 -5.129,3.1845 -0.276,-0.8075 -0.209,-2.6365 0.163,-4.5006 -1.177,-11.9484 1.864,-49.1766 30.202,-75.3495 3.431,1.3119 5.689,3.9878 9.356,5.2237 29.191,23.7185 72.704,15.1276 97.748,-1.1036 13.463,-6.6925 31.658,-15.137 44.803,-11.5388 z m 30.366,0.9145 c 0.851,0.095 3.252,1.6462 4.554,3.0237 1.672,1.7661 2.643,3.9921 2.643,6.0521 0,0.8947 -0.766,2.1681 -2.118,3.52 -2.356,2.3561 -3.008,2.3347 -2.1,-0.07 0.451,-1.1925 0.436,-2.0716 -0.05,-3.4395 -0.366,-1.0104 -0.664,-2.1296 -0.664,-2.4871 0,-0.3576 -0.618,-1.9268 -1.369,-3.4878 -0.754,-1.5609 -1.271,-2.9373 -1.15,-3.0583 0.05,-0.051 0.14,-0.068 0.262,-0.053 z m -151.292,66.836 c 5.534,32.6365 -17.854,84.0588 -44.813,120.2242 -12.377,20.5914 -0.02,17.6405 -1.581,20.9074 -0.669,1.338 -6.036,6.8683 -12.347,12.7204 -15.081,15.347 -32.172,30.9067 -45.25,43.1776 -13.451,13.0684 -10.506,12.6092 -46.127,41.6436 -15.525,-8.2122 -26.078,9.0045 -37.825,15.3419 -3.391,1.7128 -5.597,2.0513 -7.235,1.1093 -2.273,-1.5535 -9.399,-3.6946 -10.265,-5.6177 -0.1,-0.3066 2.357,-2.445 5.467,-4.7524 32.76,-27.6001 81.507,-47.7146 100.283,-82.3299 5.387,-13.0622 8.99,-24.224 0.152,-35.8311 -0.652,-0.8288 -1.105,-1.7485 -1.006,-2.044 0.1,-0.2957 1.561,-0.9748 3.25,-1.5098 4.526,-1.4335 6.755,-3.0535 13.682,-9.9478 37.45,-30.5057 17.967,-43.0107 20.459,-64.8709 8.104,-9.5833 16.065,-20.9939 26.002,-29.6147 8.065,-9.5064 34.915,-32.5058 37.154,-18.6061 z" fill="#00B894" transform="translate(91.920314,-89.365254) matrix(0.26458333,0,0,0.26458333,-2887.794,-494.72535)"/>
</svg>