<?xml version="1.0" ?><svg height="184.96399mm" viewBox="0 0 191.80476 184.96399" width="191.80476mm" xmlns="http://www.w3.org/2000/svg">
    <path color="#000" d="m 10917.245,2251.894 c -16.981,-0.1159 -37.451,9.1531 -66.086,24.5501 -23.752,25.9376 -28.656,42.7667 -16.801,77.5088 13.195,38.668 67.703,33.9875 92.787,9.7752 21.757,-21.0008 48.372,-68.4288 23.51,-95.3222 -10.488,-11.3455 -21.02,-16.4272 -33.41,-16.5119 z m -112.401,124.4966 c -10.109,-0.064 -23.083,3.8621 -39.191,13.5708 -45.661,27.5209 -95.665,103.3507 -79.283,207.1089 12.341,78.1583 105.633,28.738 94.929,-6.4527 -10.701,-35.1909 -1.14,-106.2528 37.315,-145.177 21.816,-22.0807 20.734,-68.8279 -13.77,-69.05 z" fill="#FFFFFF" overflow="visible" paint-order="fill markers stroke" transform="translate(117.13999,121.02008) matrix(0.26458333,0,0,0.26458333,-2913.0136,-705.11086)"/>
    <path d="m 14329.299,4018.5762 c -3.046,0.1003 -6.994,1.968 -11.35,6.3886 -54.783,55.5205 -121.354,112.1148 -168.744,158.7657 -6.356,6.3249 -12.398,11.8307 -13.607,12.3984 -0.532,0.2509 -1.712,1.4655 -2.618,2.6992 -2.249,3.0626 -8.39,8.9473 -10.572,10.1309 -2.326,1.476 -6.978,7.7412 -9.058,8.2285 -0.831,0.1727 -1.51,0.6378 -1.51,1.0352 0,2.0631 -1.603,1.1379 -6.041,-3.4844 -3.177,-3.3097 -5.685,-5.3969 -7.471,-6.2168 -3.358,-1.5427 -5.707,-3.1398 -5.707,-3.8809 0,-0.3769 1.335,-0.4278 3.979,-0.1484 2.191,0.2313 4.848,0.466 5.906,0.5215 3.485,0.1825 6.273,0.9398 9.334,2.5351 3.459,1.8024 4.626,1.9152 7.601,0.7246 2.48,-0.9925 3.383,-2.5945 3.383,-6.0175 0,-5.1748 -2.311,-7.4063 -7.668,-7.4063 -2.93,0 -5.405,-1.293 -3.722,-1.9453 0.532,-0.2063 1.768,-0.2023 2.746,0.012 0.978,0.2104 3.67,0.3443 5.984,0.2969 3.565,-0.073 4.61,0.129 6.859,1.3262 2.882,1.5345 5.49,1.8075 6.946,0.7265 1.412,-1.0494 3.131,-4.821 3.131,-6.875 0,-2.6581 -2.584,-4.8724 -6.256,-5.3594 -3.182,-0.4224 -8.274,-1.6586 -9.205,-2.2343 -15.355,-1.9074 -40.127,0.9386 -50.662,10.332 -4.427,4.1514 -6.317,4.7676 -15.545,5.0684 -49.136,1.3855 -102.792,36.331 -142.924,35.7441 -7.184,-0.4862 -28.533,-3.1582 -27.149,-9.3613 0,0 0.776,-4.7731 0.782,-6.584 -0.97,-11.1098 -8.154,-21.1593 -16.76,-27.0762 4.592,-4.0585 7.744,-7.11 9.533,-8.9082 39.182,49.1762 131.705,-0.4297 130.621,-69.1894 -0.167,-3.3149 -0.07,-4.7457 0.242,-5.293 12.362,-5.6644 26.909,-15.5649 10.282,-19.8867 -7.323,3.5415 -11.307,5.6239 -12.075,6.3144 -0.797,0.7155 -1.076,0.6199 -2.562,-0.8672 -5.038,-14.543 -11.444,-21.8969 -21.192,-27.6816 l 1.125,0.025 c 0,0 -0.257,-26.907 -20.828,-26.4648 -1.371,0.029 -2.832,0.1801 -4.39,0.4687 -23.109,4.2818 -95.36,28.5299 -114.414,63.6934 -5.76,6.673 -11.107,14.5958 -16.077,24.1875 -9.134,17.6293 -48.919,36.6989 -65.392,42.3574 -12.333,4.2366 -22.57,29.0791 18.473,15.043 13.09,-4.4766 15.248,-9.2375 28.003,-19.002 12.756,-9.7645 12.027,0.9682 3.377,5.9824 -8.651,5.0142 -42.082,26.0823 -51.173,31.2285 -9.09,5.1462 -2.119,22.6291 11.81,15.7676 3.314,-1.6326 7.374,-3.9151 11.746,-6.498 -7.891,7.5513 -14.403,15.009 -18.763,20.3476 -36.169,51.7914 -48.441,103.1863 -44.389,165.836 0.365,4.515 1.747,14.197 2.25,15.7617 3.849,32.3893 32.07,47.63 48.535,47.8515 3.653,0.028 5.333,1.1193 5.832,3.7871 0.213,1.1348 0.689,2.3112 1.061,2.6133 13.119,43.3229 -44.382,63.4969 -104.375,107.1524 -0.775,1.0171 -1.649,1.8496 -1.942,1.8496 -19.933,12.0374 7.6,18.6756 15.256,24.3398 2.422,1.9639 7.963,4.4029 13.336,5.8731 l 2.471,0.6758 -2.401,1.9902 c -1.322,1.0941 -3.297,2.9715 -4.392,4.1719 -28.761,32.1051 -37.291,36.2914 -87.549,96.539 -0.243,0.972 -0.585,2.3417 -0.758,3.043 -0.289,1.1663 0.387,3.1658 1.656,4.9023 1.543,2.1088 5.731,-0.41 13.127,-7.8925 3.542,-3.5865 8.579,-8.498 11.19,-10.9141 2.61,-2.4161 5.146,-4.8619 5.636,-5.4355 20.67,-24.1431 45.132,-49.782 66.374,-70.375 74.434,-62.7894 145.858,-134.5518 199.843,-187.2637 18.114,-17.6784 21.033,-20.4234 24.887,-23.3946 35.773,-31.1181 73.701,-67.5116 102.207,-97.2753 5.577,-5.7901 11.858,-12.3796 13.957,-14.6446 11.019,-9.7206 18.879,-20.455 30.75,-29.0312 1.194,-0.8213 5.012,-4.3531 8.486,-7.8496 26.658,-24.8989 54.031,-51.5488 77.731,-74.3184 37.696,-34.5045 77.198,-74.3643 111.682,-104.8789 8.746,-8.8655 19.204,-17.0645 27.98,-26.2773 10.15,-8.4416 18.44,-16.6677 27.271,-25.4805 4.203,-7.2602 1.675,-13.5158 -4.14,-13.3242 z m -370.072,48.1093 c 8.39,0.7378 16.15,3.9092 22.707,9.8282 3.462,3.3671 4.433,4.7969 7.826,11.5312 2.13,4.2283 4.039,8.4448 4.24,9.3692 0.516,2.3547 0.06,2.7393 -8.916,7.5019 -10.175,6.0862 0.121,13.9409 6.076,9.3399 l 3.684,-1.627 c 0.205,15.2041 -7.303,28.1277 -13.971,36.6484 l -4.393,-1.0488 c -10.679,-4.0003 -13.749,-3.0236 -26.322,3.7891 -9.981,4.7727 -5.144,9.118 1.336,8.9297 5.683,0.2252 15.587,-9.7381 21.641,-3.4121 0.291,0.2771 -0.372,1.4532 -1.598,2.832 -21.42,20.9798 -44.235,34.1794 -72.037,21.1973 -2.599,-1.2441 -3.951,-2.3586 -5.75,-4.7422 -19.187,-15.6607 -19.276,-44.1195 -4.594,-68.0098 8.538,-5.4276 20.741,-11.3543 32.674,-17.4023 -1.888,5.884 -1.068,14.9471 -0.875,18.541 0.56,10.1835 1.959,13.1853 7.098,15.2285 3.798,1.5099 5.935,1.3064 7.931,-0.7559 4.344,-4.4878 4.272,-7.7634 -0.517,-23.2011 -2.02,-6.5142 -3.818,-11.7442 -5.504,-14.0079 13.344,-7.0005 25.117,-14.0379 29.264,-20.5293 z m 7.666,12.8184 c -3.142,1.4119 -8.215,2.3978 -8.26,5.8477 2.446,1.1899 9.811,10.6525 9.062,12.4687 2.948,1.5241 9.118,-0.4467 10.463,-2.9726 1.445,-3.7151 -3.864,-15.2035 -11.265,-15.3438 z m -39.432,17.7481 c 0.817,0 1.225,2.108 2.293,9.0859 1.14,6.1838 -0.481,7.6037 -1.891,3.2305 -0.998,-4.5148 -0.643,-8.1307 -0.402,-12.3164 z m -17.432,2.2402 c -2.689,0 -5.631,4.9968 -7.068,7.873 v 0 c -3.803,8.0946 -9.676,22.951 -6.465,32.1895 4.668,6.9141 13.091,3.6708 17.312,-0.4785 7.595,-7.7768 3.098,-25.68 -0.02,-34.4317 -1.018,-3.7741 -2.357,-5.15 -3.766,-5.1523 z m -2.705,17.3808 c 5.523,4.4863 2.253,25.117 -4.148,18.4004 -1.059,-2.8133 2.33,-18.3153 4.148,-18.4004 z m -46.869,79.545 c 14.832,10.1653 5.287,31.3311 2.848,40.3691 -0.53,2.0751 -1.515,4.5452 -2.186,5.4902 -0.671,0.945 -1.89,3.033 -2.707,4.6407 -0.816,1.6078 -1.84,3.0616 -2.275,3.2285 -1.146,0.4396 -3.179,-1.6649 -6.742,-6.9746 -3.673,-5.4738 -5.948,-10.8456 -6.856,-16.1992 -0.651,-3.8327 -0.661,-3.8477 -3.369,-5.3282 -3.493,-1.9105 -7.982,-2.5371 -9.775,-1.3633 -2.188,1.4337 -2.106,7.6036 0.156,11.8301 11.933,30.7151 22.199,29.2461 18.754,31.627 -26.258,32.022 -32.506,66.4414 -35.766,101.3379 -1.166,14.4267 -1.18,14.5348 -2.203,15.6582 -0.555,0.6081 -1.381,1.9666 -1.834,3.0195 -8.008,9.9483 -16.507,22.064 -22.107,31.8438 -6.355,12.5426 11.14,13.4403 16.132,4.3925 1.146,-2.8404 11.789,-20.8787 14.131,-17.8222 2.031,18.6766 -14.079,40.9728 -34.101,44.1074 -80.403,12.5879 -43.526,-185.789 14.287,-227.8145 19.581,8.1718 45.753,-7.8593 63.613,-22.0429 z m 200.42,10.957 c 14.171,-0.062 37.45,6.2887 39.982,22.3066 -4.758,6.3703 -9.24,7.2372 -14.49,13.4336 -1.137,1.4257 -5.707,5.8127 -7.664,7.3594 l -1.945,1.5391 -0.918,-1.4024 c -0.505,-0.7702 -1.341,-1.3984 -1.858,-1.3984 -0.517,0 -1.533,-0.6326 -2.259,-1.4063 -1.293,-1.3746 -1.3,-1.4464 -0.371,-3.0664 1.324,-2.3078 1.189,-4.0762 -0.479,-6.2636 -1.496,-1.9604 -3.981,-2.9831 -7.254,-2.9883 -1.002,0 -2.238,-0.2244 -2.746,-0.4942 -31.978,-7.777 -66.064,10.3374 -92.355,23.2539 -22.007,10.3552 -54.327,26.2357 -78.772,12.6426 -0.619,-0.3947 -2.435,-1.1011 -4.037,-1.5683 -3.274,-0.9555 -12.803,-5.7912 -15.242,-7.7364 l -1.598,-1.2754 0.963,-1.8417 c 2.854,-5.3646 10.082,-15.2624 10.277,-21.2422 0,-0.5895 0.478,-1.6542 1.065,-2.3672 1.037,-1.2612 1.109,-1.2718 2.609,-0.3535 5.759,3.5222 15.49,6.3221 27.438,7.8945 46.971,5.3356 86.207,-26.2471 125.775,-31.7149 9.271,-1.8782 14.832,-3.1596 23.879,-3.3105 z m -20.113,41.2969 c 8.144,3.3786 25.872,7.0335 27.148,11.4316 0,0.2214 -1.305,1.6923 -2.9,3.2676 -1.595,1.5753 -3.139,2.8653 -3.432,2.8613 -0.292,0 -1.644,-1.3702 -3.004,-3.039 -1.358,-1.6686 -4.077,-4.1007 -6.039,-5.4043 -1.298,-1.5033 -12.406,-6.6018 -12.631,-8.7579 0,-0.2196 0.373,-0.3334 0.858,-0.3593 z m -33.391,15.8769 c 2.263,0.027 4.442,0.2952 6.496,0.8574 v 0 c 6.859,1.7951 17.593,2.9672 18.676,9.586 0.206,1.3433 1.207,4.199 2.226,6.3457 1.555,3.2716 2.165,4.0145 3.768,4.5937 1.162,0.4203 1.91,1.0573 1.91,1.625 0,0.5136 -1.535,2.289 -3.412,3.9454 -5.142,4.5364 -11.963,11.3853 -11.963,12.0097 0,0.3036 -1.545,2.1393 -3.433,4.0801 -32.347,30.5464 -58.861,63.0821 -92.735,88.3301 -4.437,3.1918 -10.363,8.3549 -10.363,9.0312 0,0.3588 -0.781,1.1452 -1.736,1.75 -1.379,0.8729 -1.998,0.9809 -3.002,0.5235 -9.981,-2.6627 -19.104,5.9773 -24.098,13.3261 -0.758,1.2005 -1.623,2.1817 -1.922,2.1817 -0.684,0 -0.697,-1.3699 -0.03,-2.6153 9.523,-24.0935 20.844,-49.186 23.037,-74.5351 0.257,-3.6244 0.364,-6.7732 0.236,-6.9961 0.03,-13.3082 -9.431,-39.9057 -36.996,-21.1035 -1.041,0.9924 -2.882,2.3996 -4.09,3.125 -13.759,8.4854 -22.337,18.229 -33.224,28.8808 -4.542,4.4238 -4.678,4.5076 -5.129,3.1836 -0.276,-0.8075 -0.208,-2.6359 0.164,-4.5 -1.177,-11.9484 1.863,-49.1767 30.201,-75.3496 3.431,1.3119 5.688,3.9887 9.355,5.2246 29.191,23.7185 72.704,15.1277 97.748,-1.1035 11.36,-5.6468 26.088,-12.5413 38.309,-12.3965 z m 36.867,1.7715 c 0.851,0.095 3.253,1.6459 4.555,3.0235 1.672,1.766 2.643,3.9927 2.643,6.0527 0,0.8947 -0.768,2.1676 -2.12,3.5195 -2.356,2.3561 -3.007,2.3344 -2.099,-0.07 0.451,-1.1925 0.437,-2.0716 -0.05,-3.4395 -0.366,-1.0104 -0.664,-2.1288 -0.664,-2.4863 0,-0.3576 -0.618,-1.9273 -1.369,-3.4883 -0.754,-1.5609 -1.272,-2.9376 -1.151,-3.0586 0.05,-0.05 0.137,-0.066 0.254,-0.053 z m -155.84,62.4844 c 2.391,0.037 4.058,1.311 4.547,4.3515 5.534,32.6365 -17.853,84.0593 -44.812,120.2247 -12.377,20.5914 -0.02,17.6393 -1.58,20.9062 -0.669,1.338 -6.037,6.8686 -12.348,12.7207 -15.081,15.347 -32.172,30.9068 -45.25,43.1777 -13.451,13.0684 -10.506,12.6102 -46.127,41.6446 -15.525,-8.2122 -26.077,9.0044 -37.824,15.3418 -3.391,1.7128 -5.598,2.0513 -7.236,1.1093 -2.273,-1.5534 -9.398,-3.696 -10.264,-5.6191 -0.1,-0.3066 2.357,-2.4445 5.467,-4.7519 32.76,-27.6001 81.507,-47.7148 100.283,-82.3301 5.387,-13.0622 8.988,-24.223 0.15,-35.8301 -0.652,-0.8288 -1.105,-1.7494 -1.006,-2.0449 0.1,-0.2957 1.561,-0.9748 3.25,-1.5098 4.526,-1.4335 6.757,-3.053 13.684,-9.9473 37.45,-30.5057 17.967,-43.0108 20.459,-64.871 8.104,-9.5833 16.065,-20.9945 26.002,-29.6153 6.301,-7.4269 24.067,-23.088 32.605,-22.957 z" fill="#00B894" transform="translate(117.13999,121.02008) matrix(0.26458333,0,0,0.26458333,-2913.0136,-705.11086) translate(-3043.5143,-1810.9846)"/>
</svg>