<?xml version="1.0" ?><svg height="158.63461mm" viewBox="0 0 154.81093 158.63461" width="154.81093mm" xmlns="http://www.w3.org/2000/svg">
    <path color="#000" d="m 11086.698,3025.3015 c -24.675,-0.094 -52.691,9.8463 -73.176,32.5557 -70.412,109.4704 48.007,137.4249 93.409,107.5076 52.52,-34.6092 48.523,-83.4455 31.45,-115.5039 -8.271,-15.5283 -28.503,-24.4711 -51.683,-24.5594 z m -200.936,46.372 c -9.871,0.093 -20.494,1.5895 -31.772,4.8281 -99.016,28.4342 -165.136,180.9213 -155.886,243.1602 13.751,119.6394 151.786,76.9294 133.686,13.1763 -10.257,-36.1304 57.46,-154.3343 105.986,-167.8193 53.969,-14.9977 22.35,-94.0396 -52.014,-93.3453 z m 278.26,56.5224 c 0,0 -16.706,37.9092 3.94,32.9878 19.632,-4.6795 -3.94,-32.9878 -3.94,-32.9878 z" fill="#FFFFFF" overflow="visible" paint-order="fill markers stroke" transform="translate(311.01964,-84.610785) matrix(0.26458333,0,0,0.26458333,-3113.8821,-713.7114)"/>
    <path d="m 11081.329,3017.2839 c -7.201,-0.059 -14.749,0.706 -22.549,2.4436 -24.594,5.8947 -50.461,17.5685 -70.032,56.2946 -20.669,33.5509 -6.975,72.3974 23.707,95.2499 18.861,14.0459 53.509,19.1924 77.256,8.6543 1.158,-0.6009 2.996,-1.1185 4.085,-1.151 2.86,-0.072 3.45,5.5521 6.384,8.3076 0.887,1.0297 1.421,1.1744 3.304,0.896 4.984,-0.7935 8.878,-7.212 6.639,-12.8314 -1.782,-3.1158 -0.312,-5.032 5.08,-6.6241 10.306,-7.3138 29.358,-23.2151 36.078,-42.6611 6.833,-23.8961 10.902,-48.7089 -7.195,-78.847 -11.643,-16.5954 -34.512,-29.5016 -62.757,-29.7314 z m 3.798,14.4683 c 5.157,-0.046 9.676,0.4273 15.935,1.3965 9.997,1.5883 23.313,7.1681 31.907,17.5282 19.19,23.1304 9.27,67.3996 -11.429,89.1719 -0.421,0.1615 -1.309,-0.2151 -1.973,-0.8374 -2.855,-2.6738 -9.715,-3.2729 -11.821,-1.0319 -0.656,0.6989 -1.192,1.7583 -1.192,2.3536 0,0.9642 1.924,7.1843 2.997,9.6839 0.585,1.4455 -3.925,2.7233 -4.924,3.717 -2.412,1.6597 -4.323,2.0916 -4.927,1.1141 -3.629,-4.7822 -14.874,-3.3334 -14.285,3.6784 0.866,2.0836 0.564,4.1125 -0.763,5.157 -3.658,2.6434 -6.494,1.9965 -7.012,-2.5387 -4.141,-21.187 -29.25,-43.6997 -46.245,-53.2635 -6.803,-3.1086 -9.303,2.8133 -1.719,10.5582 -0.1,1.7154 -12.083,3.9006 -14.904,7.1469 -4.321,4.2092 -8.537,15.8544 -2.299,20.8263 10.121,9.66 23.939,3.7702 36.046,0.6369 1.384,-0.7412 5.774,0.5627 6.78,2.0143 4.068,5.8892 7.936,12.2432 8.071,20.1674 -13.194,7.7642 -38.749,-3.1539 -48.927,-14.0654 -35.667,-36.5697 -10.517,-102.857 50.926,-121.7059 8.807,-1.1008 14.602,-1.6628 19.758,-1.7078 z m 11.279,10.0509 c -0.235,0 -0.48,0.011 -0.731,0.021 -3.451,0.1537 -3.665,0.2445 -4.684,1.9917 -0.606,1.0408 -1.103,2.9932 -1.152,4.5246 -0.07,1.8626 -0.461,3.1611 -1.301,4.2093 -2.425,3.165 -8.188,11.1728 -12.617,10.8801 -2.106,-3.0707 12.03,-13.5257 13.061,-16.9539 -0.386,-1.9454 -11.207,4.4927 -12.871,5.5711 -2.815,1.3169 -4.046,2.3577 -6.639,5.6066 -15.957,19.4559 17.509,29.4185 31.049,-10.3967 0,-0.7851 0.147,-1.9466 0.317,-2.5812 0.53,-1.9774 -0.906,-2.9122 -4.432,-2.8725 z m -210.762,20.4223 c -25.866,0.1002 -50.642,11.6337 -71.774,27.0706 -2.567,1.6991 -5.33,3.6103 -6.141,4.2472 -0.809,0.637 -2.373,1.7756 -3.472,2.5306 -59.516,41.5958 -89.571,91.8534 -109.238,160.3443 -5.186,18.0594 -7.537,34.7635 -6.277,54.3632 3.174,46.4234 15.323,74.1817 50.025,83.7498 2.763,0.5184 3.515,1.6224 3.921,5.7569 0.192,1.9631 0.719,5.7938 1.169,8.5119 11.801,72.1743 -39.923,118.2585 -111.018,159.5553 -9.464,5.9544 -20.801,14.0111 -32.661,18.3705 -11.726,4.408 -6.698,18.585 4.888,17.8242 17.606,-0.2087 36.75,2.2533 55.05,0.3049 5.957,-0.245 27.498,-5.5989 10.179,-15.3051 -11.095,-4.0373 -24.533,2.3271 -37.479,-0.1711 -0.244,-1.3935 9.765,-6.0225 11.101,-7.4029 74.421,-40.0851 132.045,-100.932 113.239,-175.6468 -1.805,-5.4402 -1.556,-8.326 0.624,-7.1967 19.214,4.332 42.802,2.6135 59.077,-5.564 l 2.712,-0.9588 c 40.949,45.2752 43.89,152.0355 -1.962,211.9864 -5.905,5.6497 -1.474,11.8247 7.696,12.0657 1.27,-0.2324 4.594,-0.2572 7.383,-0.054 14.03,0.9709 30.382,-1.4348 45.43,-0.1939 9.971,-0.1295 23.72,-14.4391 7.851,-14.0887 -12.935,1.6703 -29.53,2.0528 -45.103,0.37 2.808,-7.3264 19.011,-40.9725 25.533,-78.304 5.29,-53.5387 5.369,-98.2852 -34.623,-138.8868 -1.707,-1.5872 -1.773,-2.3447 -0.383,-4.3195 5.55,-8.1579 8.05,-14.6235 7.033,-30.4747 0.07,-10.6347 0.372,-21.313 0.683,-23.7292 5.92,-38.7112 37.903,-124.6312 85.697,-141.9296 0.201,0.3254 0.41,1.8432 0.465,3.3727 1.713,42.4503 7.666,85.416 6.508,128.9478 -1.314,28.6737 -1.916,58.9121 -3.099,82.6429 0,8.3562 -1.385,22.5217 -2.49,25.7128 -4.809,13.1174 -17.553,33.9885 -18.148,46.3179 1.386,4.0488 6.727,4.5198 8.056,0.7101 2.818,-6.7699 9.507,-15.2018 15.693,-20.0757 4.287,7.3532 -12.697,28.1632 -16.364,34.1169 -5.106,8.2939 -2.888,14.9292 3.855,8.7026 1.037,-2.0777 3.892,-5.1536 4.783,-5.1536 0.891,0 0.231,1.8601 -1.695,4.7836 -5.113,8.0093 1.838,14.5277 8.856,3.3665 17.335,-18.1181 23.015,-43.6718 15.084,-73.588 -1.009,-2.3084 -1.097,-3.4252 -0.9,-11.2565 0.737,-31.7426 -0.123,-62.5391 2.419,-93.8084 -0.209,-3.4688 -0.209,-5.6226 0,-16.4737 0.71,-39.7337 -6.726,-81.5053 -7.755,-121.3569 l 0.171,-6.0401 2.084,-1.9217 c 13.734,-12.5785 34.006,-23.9883 26.724,-47.1607 -5.587,-14.1488 -10.98,-44.6915 -57.992,-60.4268 -1.715,-0.9338 -9.07,-2.7664 -14.277,-3.5577 -3.731,-0.4743 -7.448,-0.6933 -11.143,-0.6789 z m 6.523,16.4232 c 1.91,-3e-4 3.902,0.013 5.994,0.033 25.659,0.2427 77.666,54.2188 43.567,71.984 -1.409,1.3845 -2.912,2.5168 -3.344,2.5168 -1.197,0 -1.875,-2.0315 -2.578,-7.718 -0.541,-4.3388 -1.679,-9.3332 -1.881,-14.0935 -0.51,-12.1194 -19.225,-10.6019 -14.74,3.4162 1.991,7.5468 1.635,18.3043 3.136,26.6321 l 0.313,4.1184 -6.195,3.2579 c -59.298,33.1359 -97.688,111.365 -95.544,184.0911 l -0.08,17.1205 c -1.554,0.5933 -3.107,1.1867 -4.661,1.7801 -15.39,-8.0341 -30.355,-15.028 -48.386,-19.0324 -5.65,-0.7764 -5.749,-0.7704 -6.99,0.3965 -2.827,2.6558 -2.067,6.1889 1.74,8.0906 10.983,5.4967 25.289,11.8827 38.301,17.3971 2.252,0.5258 1.834,1.7562 -0.824,2.4301 -20.384,7.7644 -42.381,4.4359 -66.074,-4.0462 -15.769,-6.1268 -27.579,-32.8827 -30.407,-54.4355 -2.322,-86.3195 45.297,-163.0149 95.52,-201.8488 1.661,-1.6885 3.638,-3.4831 4.393,-3.9882 0.755,-0.5048 2.4,-1.7189 3.657,-2.6979 46.531,-32.286 56.434,-35.4014 85.073,-35.404 z m 192.722,22.0608 c -2.61,0.071 -4.345,1.8191 -3.045,6.9001 1.881,3.7724 5.349,12.8526 3.718,16.4921 0.734,1.4703 1.94,2.4066 5.342,4.1467 14.708,6.6093 18.841,-12.4441 3.089,-23.7285 -2.064,-1.8167 -6.146,-3.8905 -9.104,-3.8104 z m 77.398,17.5774 c -3.244,0.3187 -3.965,14.9646 -7.009,22.5967 -7.665,16.7941 9.078,37.0886 22.148,17.7904 3.869,-8.7269 -2.419,-23.196 -9.313,-31.5228 -2.635,-6.58 -4.456,-8.9988 -5.826,-8.8643 z m -125.034,9.0871 c 3.292,0.03 6.213,4.9585 8.347,7.755 -0.395,0.8028 -28.18,8.011 -22.639,0.4409 2.138,-4.034 9.013,-7.7863 14.292,-8.1959 z m 128.163,12.5193 c 1.47,0.093 2.938,6.0746 3.765,7.5806 1.523,3.2344 1.564,14.626 -3.962,7.7896 -1.777,-2.244 -1.829,-2.4522 -1.754,-7.0866 0.06,-2.6263 0.37,-5.6633 0.729,-6.7487 0.398,-1.1252 0.81,-1.5608 1.222,-1.5349 z" fill="#00B894" transform="translate(311.01964,-84.610785) matrix(0.26458333,0,0,0.26458333,-3113.8821,-713.7114)"/>
</svg>