<?xml version="1.0" ?><svg height="178.31828mm" viewBox="0 0 154.81087 178.31828" width="154.81087mm" xmlns="http://www.w3.org/2000/svg">
    <path color="#000" d="m 11086.698,3025.3015 c -24.675,-0.094 -52.691,9.8463 -73.176,32.5557 -70.412,109.4704 48.007,137.4249 93.409,107.5076 52.52,-34.6092 48.523,-83.4455 31.45,-115.5039 -8.271,-15.5283 -28.503,-24.4711 -51.683,-24.5594 z m -200.936,46.372 c -9.871,0.093 -20.494,1.5895 -31.772,4.8281 -99.016,28.4342 -165.136,180.9213 -155.886,243.1602 13.751,119.6394 151.786,76.9294 133.686,13.1763 -10.257,-36.1304 57.46,-154.3343 105.986,-167.8193 53.969,-14.9977 22.35,-94.0396 -52.014,-93.3453 z m 278.26,56.5224 c 0,0 -16.706,37.9092 3.94,32.9878 19.632,-4.6795 -3.94,-32.9878 -3.94,-32.9878 z" fill="#FFFFFF" overflow="visible" paint-order="fill markers stroke" transform="translate(13.692519,-63.486449) matrix(0.26458333,0,0,0.26458333,-2816.5551,-715.15205)"/>
    <path d="m 12322.342,4401.7285 c -16.288,0.6148 -24.373,40.4158 -55.643,57.2266 -59.767,32.1294 3.313,32.0648 25.301,17.2656 13.193,-8.879 24.114,-8.8098 33.252,-7.1211 -8.125,2.8352 -17.258,7.7488 -23.357,11.8633 -0.794,0.8004 -2.46,2.0868 -3.704,2.8555 -3.707,2.2966 -13.333,12.7617 -16.88,18.3535 -3.846,5.8105 -5.592,12.4412 -5.086,16.9746 -3.206,4.6761 -6.296,9.8814 -9.243,15.7109 -20.669,33.5509 -6.975,72.3975 23.707,95.25 18.861,14.0459 53.509,19.1924 77.256,8.6543 1.158,-0.6009 2.995,-1.1179 4.084,-1.1504 2.86,-0.072 3.451,5.5512 6.385,8.3067 0.887,1.0297 1.422,1.1749 3.305,0.8965 4.984,-0.7935 8.877,-7.2127 6.638,-12.8321 -1.782,-3.1158 -0.311,-5.0309 5.081,-6.623 10.306,-7.3138 29.358,-23.2161 36.078,-42.6621 2.153,-7.5323 4.03,-15.1553 5.027,-23.0078 1.403,-0.2058 2.869,-0.8695 4.389,-2.0957 0.616,-14.8492 -3.253,-33.1511 -10.616,-46.045 -5.314,-9.3055 -12.022,-17.8526 -19.226,-23.9883 -17.005,-14.3788 -38.471,-21.9714 -59.914,-22.9707 8.096,-24.9225 2.339,-44.9185 -11.365,-56.9843 -2.716,-2.3913 -5.746,-4.4698 -9.04,-6.2149 -2.305,-1.2216 -4.429,-1.7376 -6.429,-1.6621 z m 44.844,100.2813 c 2.936,-0.042 5.47,0.8987 7.394,3.373 4.862,7.3951 -1.288,11.6063 9.149,16.8145 5.908,2.9487 11.169,-10.9576 11.818,-10.6875 0.1,0.042 0.203,0.1018 0.303,0.1777 3.119,2.3564 6.104,20.5631 9.853,24.5254 5.998,13.1878 13.792,-7.6949 12.985,-4.7715 -0.144,4.4522 0.815,10.3107 2.597,15.6992 -1.296,19.0906 -9.616,39.0304 -21.512,51.543 -0.421,0.1615 -1.308,-0.2136 -1.972,-0.8359 -2.855,-2.6738 -9.715,-3.2742 -11.821,-1.0332 -0.656,0.6989 -1.193,1.7582 -1.193,2.3535 0,0.9642 1.925,7.1859 2.998,9.6855 0.585,1.4455 -3.925,2.7231 -4.924,3.7168 -2.412,1.6597 -4.323,2.0908 -4.927,1.1133 -3.629,-4.7822 -14.875,-3.3341 -14.286,3.6777 0.866,2.0836 0.566,4.1137 -0.761,5.1582 -3.658,2.6434 -6.496,1.9962 -7.014,-2.539 -4.141,-21.187 -29.249,-43.6999 -46.244,-53.2637 -6.803,-3.1086 -9.303,2.8137 -1.719,10.5586 -0.1,1.7154 -12.083,3.9002 -14.904,7.1465 -4.321,4.2092 -8.537,15.8542 -2.299,20.8261 10.121,9.66 23.938,3.7701 36.045,0.6368 1.384,-0.7412 5.775,0.564 6.781,2.0156 4.068,5.8892 7.936,12.2418 8.071,20.166 -13.194,7.7642 -38.748,-3.1529 -48.926,-14.0644 -23.399,-23.9907 -20.623,-60.7707 1.402,-88.5567 10.133,2.1733 27.346,-11.6386 29.113,-12.6406 10.982,7.9926 31.268,-10.6147 43.993,-10.7949 z m -0.625,8.5312 c -0.147,-0.03 -0.465,0.1117 -0.653,0.1192 -3.451,0.1537 -3.664,0.2449 -4.683,1.9921 -0.606,1.0408 -1.104,2.9921 -1.153,4.5235 -0.07,1.8626 -0.461,3.1608 -1.301,4.209 -2.425,3.165 -8.188,11.1735 -12.617,10.8808 -2.106,-3.0707 12.032,-13.5269 13.063,-16.9551 -0.386,-1.9454 -11.207,4.4939 -12.871,5.5723 -2.815,1.3169 -4.048,2.3566 -6.641,5.6055 -15.957,19.4559 17.509,29.4187 31.049,-10.3965 0,-0.7851 0.148,-1.9455 0.318,-2.5801 0.53,-1.9774 -0.905,-2.9127 -4.431,-2.873 0,-0.059 -0.03,-0.088 -0.08,-0.098 z m -202.684,10.5195 c -25.866,0.1002 -50.641,11.6335 -71.773,27.0704 -2.567,1.6991 -5.33,3.6111 -6.141,4.248 -0.809,0.637 -2.374,1.7763 -3.473,2.5313 -59.516,41.5958 -89.571,91.8528 -109.238,160.3437 -5.186,18.0594 -7.535,34.7636 -6.275,54.3633 3.174,46.4234 15.321,74.1819 50.023,83.75 2.763,0.5184 3.516,1.6213 3.922,5.7558 0.192,1.9631 0.72,5.7937 1.17,8.5118 11.801,72.1743 -39.925,118.2598 -111.02,159.5566 -9.464,5.9544 -20.8,14.0097 -32.66,18.3691 -11.726,4.408 -6.697,18.5851 4.889,17.8243 17.606,-0.2087 36.749,2.2531 55.049,0.3047 5.957,-0.245 27.498,-5.5985 10.179,-15.3047 -11.095,-4.0373 -24.532,2.3282 -37.478,-0.17 -0.244,-1.3935 9.763,-6.0239 11.099,-7.4043 74.421,-40.0851 132.047,-100.9316 113.241,-175.6464 -1.805,-5.4402 -1.557,-8.3246 0.623,-7.1953 19.214,4.332 42.803,2.613 59.078,-5.5645 l 2.711,-0.959 c 40.949,45.2752 43.891,152.0354 -1.961,211.9863 -5.905,5.6497 -1.475,11.8254 7.695,12.0664 1.27,-0.2324 4.594,-0.2578 7.383,-0.055 14.03,0.9709 30.382,-1.4343 45.43,-0.1934 9.971,-0.1295 23.72,-14.4402 7.851,-14.0898 -12.935,1.6703 -29.53,2.0538 -45.103,0.371 2.808,-7.3263 19.011,-40.9731 25.533,-78.3046 5.29,-53.5387 5.369,-98.2852 -34.623,-138.8868 -1.707,-1.5872 -1.773,-2.3455 -0.383,-4.3203 5.55,-8.1579 8.05,-14.6234 7.033,-30.4746 0.07,-10.6347 0.373,-21.3123 0.684,-23.7285 5.92,-38.7112 37.901,-124.6313 85.695,-141.9297 0.201,0.3254 0.41,1.8436 0.465,3.3731 1.713,42.4503 7.668,85.4154 6.51,128.9472 -1.314,28.6737 -1.917,58.9118 -3.1,82.6426 0,8.3562 -1.385,22.5218 -2.49,25.7129 -4.809,13.1174 -17.554,33.989 -18.149,46.3184 1.386,4.0488 6.728,4.5206 8.057,0.7109 2.818,-6.7699 9.507,-15.2023 15.693,-20.0762 4.287,7.3532 -12.698,28.1635 -16.365,34.1172 -5.106,8.2939 -2.887,14.9278 3.856,8.7012 1.037,-2.0777 3.892,-5.1524 4.783,-5.1524 0.891,0 0.231,1.8597 -1.695,4.7832 -5.113,8.0093 1.837,14.5284 8.855,3.3672 17.335,-18.1181 23.015,-43.6717 15.084,-73.5879 -1.009,-2.3084 -1.095,-3.4265 -0.898,-11.2578 0.737,-31.7426 -0.124,-62.5393 2.418,-93.8086 -0.209,-3.4688 -0.209,-5.6215 0,-16.4726 0.71,-39.7337 -6.725,-81.5058 -7.754,-121.3574 l 0.17,-6.0391 2.084,-1.9219 c 13.734,-12.5785 34.006,-23.9897 26.724,-47.1621 -5.587,-14.1488 -10.98,-44.6905 -57.992,-60.4258 -1.715,-0.9338 -9.07,-2.7673 -14.277,-3.5586 -3.731,-0.4743 -7.448,-0.6921 -11.143,-0.6777 z m 6.514,16.4239 v 0 c 1.91,-3e-4 3.903,0.013 5.995,0.033 25.659,0.2427 77.665,54.2192 43.566,71.9844 -1.409,1.3845 -2.912,2.5156 -3.344,2.5156 -1.197,0 -1.875,-2.0303 -2.578,-7.7168 -0.541,-4.3388 -1.679,-9.3335 -1.881,-14.0938 -0.51,-12.1194 -19.225,-10.6021 -14.74,3.416 1.991,7.5468 1.636,18.3031 3.137,26.6309 l 0.312,4.1191 -6.193,3.2579 c -59.298,33.1359 -97.689,111.3657 -95.545,184.0918 l -0.08,17.1191 c -1.554,0.5933 -3.106,1.1878 -4.66,1.7812 -15.39,-8.0341 -30.356,-15.0288 -48.387,-19.0332 -5.65,-0.7764 -5.749,-0.7704 -6.99,0.3965 -2.827,2.6558 -2.067,6.1901 1.74,8.0918 10.983,5.4967 25.289,11.8821 38.301,17.3965 2.252,0.5258 1.834,1.7558 -0.824,2.4297 -20.384,7.7644 -42.382,4.4372 -66.075,-4.0449 -15.769,-6.1268 -27.578,-32.8828 -30.406,-54.4356 -2.322,-86.3195 45.297,-163.0157 95.52,-201.8496 1.661,-1.6885 3.637,-3.4832 4.392,-3.9883 0.755,-0.5048 2.401,-1.7182 3.658,-2.6972 46.531,-32.286 56.434,-35.4017 85.073,-35.4043 z m 192.732,22.0605 c -2.61,0.071 -4.345,1.8194 -3.045,6.9004 1.881,3.7724 5.348,12.8527 3.717,16.4922 0.734,1.4703 1.942,2.4064 5.344,4.1465 14.708,6.6093 18.84,-12.4441 3.088,-23.7285 -2.064,-1.8167 -6.146,-3.8907 -9.104,-3.8106 z m 77.398,17.5781 c -3.244,0.3187 -3.965,14.9637 -7.009,22.5958 -7.665,16.7941 9.078,37.0892 22.148,17.791 3.869,-8.7269 -2.418,-23.1967 -9.312,-31.5235 -2.635,-6.58 -4.457,-8.9978 -5.827,-8.8633 z m -125.035,9.086 c 3.292,0.03 6.214,4.9593 8.348,7.7558 -0.395,0.8028 -28.18,8.0115 -22.639,0.4414 2.138,-4.0339 9.012,-7.7876 14.291,-8.1972 z m 128.164,12.5195 c 1.47,0.093 2.937,6.0741 3.764,7.5801 1.523,3.2344 1.565,14.6274 -3.961,7.791 -1.777,-2.244 -1.829,-2.4535 -1.754,-7.0879 0.06,-2.6263 0.37,-5.6626 0.729,-6.748 0.398,-1.1252 0.81,-1.5611 1.222,-1.5352 z" fill="#00B894" transform="translate(13.692519,-63.486449) matrix(0.26458333,0,0,0.26458333,-2816.5551,-715.15205) translate(-1278.2339,-1458.8356)"/>
</svg>