<?xml version="1.0" ?><svg height="297.59863mm" viewBox="0 0 188.80225 297.59863" width="188.80225mm" xmlns="http://www.w3.org/2000/svg">
    <path d="m 5218.2241,2333.6838 c -18.4293,-0.049 -33.5096,4.0586 -40.0644,13.6777 -14.9823,21.9867 -16.3307,25.6327 -33.4727,27.5762 -17.142,1.9436 -25.1074,24.7227 -25.1074,24.7227 0,0 -23.8905,7.1036 -34.0137,22.0449 -10.1232,14.9412 4.9942,43.123 4.9942,43.123 0,0 -13.7677,13.4819 -12.418,28.6661 1.3498,15.1843 14.1738,53.9355 14.1738,53.9355 0,0 43.0562,12.147 54.6641,9.4746 11.6079,-2.6725 33.8125,-13.3828 33.8125,-13.3828 0,0 59.6315,29.6437 102.6348,-4.0547 43.0033,-33.6984 47.7285,-72.8379 47.7285,-72.8379 0,0 20.7849,2.7932 22.1347,-25.9961 1.3497,-28.7892 -16.1294,-69.5837 -58.3769,-89.0195 -23.7642,-10.9326 -52.9947,-17.867 -76.6895,-17.9297 z m 163.5236,253.8673 c 0,0 -36.5781,27.8187 -7.8283,77.0155 28.7499,49.1968 100.4219,21.7442 100.4219,21.7442 53.3033,-17.1875 73.2658,-29.2664 72.6188,-78.472 -44.7467,-109.0874 -109.2955,-99.2641 -165.2124,-20.2877 z m -181.5177,-3.8419 c -53.8566,0.081 -105.1156,53.825 -120.9395,108.0098 -16.602,56.8497 -20.5173,140.423 0.6739,228.7343 21.1912,88.3113 63.7091,80.294 117.4296,91.834 37.7933,10.3253 43.7318,-4.8584 64.2481,-24.5371 20.5164,-19.6788 -4.4543,-83.8167 -9.9883,-113.6992 -5.534,-29.8825 19.3027,-169.335 26.8613,-198.9746 7.5587,-29.6395 -13.6343,-85.3946 -70.3242,-90.9824 -2.6573,-0.262 -5.3122,-0.3888 -7.9609,-0.3848 z m 232.6269,141.6816 c -0.8667,-0.012 -1.7077,-9e-4 -2.5175,0.033 -25.9154,1.0933 -43.327,17.2501 -59.1192,47.8614 -4.7242,90.6193 17.4564,65.9244 35.7696,132.2851 14.1077,51.1211 -12.2836,55.9978 -23.3516,118.5567 -11.068,62.5588 20.9212,60.4951 73.9668,67.6621 53.0456,7.1669 102.3121,-27.6956 116.3496,-100.7012 14.0374,-73.0057 -27.8057,-176.6229 -44.6777,-210.3926 -16.3448,-32.7143 -69.5496,-54.9413 -96.42,-55.3047 z" fill="#FFFFFF" transform="translate(-413.59888,188.86479) matrix(0.26458333,0,0,0.26458333,-885.71945,-804.08485)"/>
    <path d="m 5226.9915,2325.2524 c -27.9138,-0.3909 -52.8696,9.444 -66.9082,33.1836 -1.5109,4.5381 -5.1407,6.2657 -13.1582,6.2657 -16.4918,0 -33.7363,12.3093 -35.0332,25.0058 -0.6507,6.3685 -2.9142,10.3399 -5.8906,10.3399 -22.3199,6.6793 -43.8243,30.9222 -28.8594,52.4902 5.0533,5.436 2.7546,13.3139 -1.5488,14.7383 -24.1153,9.529 -15.5877,35.3748 -3.6055,47.0097 8.6834,8.2778 8.3379,19.5041 8.3379,27.2559 0,14.4718 6.8581,19.0433 25.0059,16.6719 10.8315,-1.4151 16.3697,-1.0296 18.9043,2.7812 5.8867,8.8506 28.1309,4.7299 33.3066,-2.209 6.0545,-8.117 4.4496,-14.5775 -5.5019,-12.8125 -5.9649,1.0582 -12.7456,-0.5887 -19.0196,-4.621 -7.718,-4.9606 -11.3627,-5.5683 -17.4824,-2.9102 -11.0192,4.7861 -18.265,1.0471 -18.293,-9.4356 -0.012,-4.9151 -3.0354,-13.2743 -6.7187,-18.5761 -9.1204,-13.1281 -8.4744,-18.9736 3.3711,-30.5254 11.9165,-11.6208 12.5875,-16.2591 3.168,-21.8672 -5.1254,-3.0512 -6.6715,-6.8216 -5.9004,-14.3984 0.8115,-7.9723 2.6779,-21.0612 17.4609,-24.6289 14.8686,-3.5884 18.1206,-13.1794 18.1504,-17.0957 0.096,-12.0396 7.6043,-17.2574 27.6523,-18.9649 17.7466,-0.4617 19.6042,-4.6252 29.295,-17.8633 32.9735,-46.627 118.6132,-7.946 147.8242,33.9082 11.7196,16.792 10.217,40.5128 8.9453,50.7285 -1.5795,12.6891 -19.7895,6.4122 -27.791,-6.5156 -3.9148,-6.3251 -8.4999,-11.5 -10.1875,-11.5 -1.6875,0 -7.8136,-4.3234 -13.6133,-9.6074 -9.2984,-8.4706 -12.1466,-9.3636 -24.0781,-7.5449 -10.8019,1.6464 -14.4293,0.8922 -17.9824,-3.7403 -4.2711,-5.5681 -5.4775,-5.5123 -29.8145,1.375 -16.037,4.5386 -29.0206,6.411 -35.3105,5.0938 -9.2128,-1.9287 -10.593,-0.9396 -18.6778,13.3984 -4.8015,8.5151 -12.2814,20.1406 -16.623,25.8321 -8.9881,11.7826 -8.8344,28.7715 0.5176,57.0058 6.5843,19.8787 31.8509,44.5381 50.455,49.2422 20.5783,5.203 43.6085,4.356 64.5625,-2.373 10.7418,-3.4495 21.9004,-8.5332 21.9004,-8.5332 4.7292,1.7965 9.2926,12.3092 19.6289,5.8886 3.6054,-2.2396 -1.2953,-13.5761 -2.4336,-13.5761 -1.1387,0 4.7733,-6.5234 13.1368,-14.4961 13.8379,-13.1914 29.1445,-41.7189 29.1445,-54.3164 0,-2.369 10.2567,2.9152 16.1836,-11.0118 8.0837,-18.9951 6.2928,-54.9122 -10.5,-76.582 -27.729,-36.4049 -78.4739,-61.8999 -122.0196,-62.5098 z m 9.9219,96.2676 c 3.1935,-0.033 4.7368,1.3981 7.4629,4.2696 3.269,3.4437 10.2146,5.9179 16.6191,5.9179 6.051,0 15.2965,2.0939 20.545,4.6543 5.2484,2.5606 12.1953,5.4058 15.4394,6.3242 3.2604,0.923 5.8985,4.781 5.8985,8.6231 0,3.8231 2.946,11.4918 6.5449,17.043 6.3918,9.8593 6.3997,10.3907 0.3418,22.873 -3.411,7.0281 -10.2235,16.7683 -15.1367,21.6445 -7.1583,7.1036 -10.1949,8.2213 -15.2871,5.6231 -12.5566,-6.4061 -17.944,-4.1472 -15.6934,6.5801 1.8538,8.8361 0.9399,10.2692 -9.1231,14.2773 -13.8634,5.5221 -41.7822,8.4527 -51.9492,5.4551 -35.8687,-10.5764 -57.2372,-62.4305 -36.4394,-88.4239 4.5074,-5.6337 9.6859,-13.9824 11.5078,-18.5507 2.7229,-6.8268 5.0372,-8.0641 13.0058,-6.9493 5.332,0.7462 18.3401,-1.4261 28.9043,-4.8261 9.3238,-3.0005 14.166,-4.501 17.3594,-4.5352 z m -35.1328,53.3711 c -5.0535,0.072 -10.7901,5.7325 -15.7129,16.959 -7.0517,16.0818 -5.5924,26.0988 5.3184,36.5 7.9408,7.5697 12.7662,9.3926 24.8672,9.3926 22.9544,0 26.298,-6.5469 11.3789,-22.2891 -6.6054,-6.9698 -13.0127,-17.7701 -14.2383,-23.998 -2.1891,-11.124 -6.56,-16.6374 -11.6133,-16.5645 z m 50.457,1.8008 c -6.9787,0 -14.9696,11.0461 -11.6718,16.1328 2.9621,4.5689 6.6579,3.9009 15.2871,-2.7598 8.4188,-6.4988 6.5601,-13.373 -3.6153,-13.373 z m -301.3652,7.7832 c -1.0525,0.054 -2.3217,0.8439 -4.084,2.2383 -4.4269,3.5023 -5.086,8.6075 -3.5742,27.6621 1.0194,12.8516 1.3186,23.3672 0.666,23.3672 -0.6523,0 -3.6403,-8.3147 -6.6387,-18.4766 -8.3417,-28.2722 -8.2307,-28.0597 -12.5078,-23.9824 -2.0778,1.9804 -3.6436,8.0066 -3.4843,13.3906 0.1934,6.4856 -1.3367,9.7891 -4.5372,9.7891 -14.5743,0 -0.8415,39.0964 26.7364,65.8242 21.1658,15.7866 22.9493,20.035 21.1347,44.6973 -3.3926,46.0968 2.4977,92.7302 14.7032,116.4277 13.6426,26.4875 24.6591,31.3661 46.2187,20.4629 8.2328,-4.1633 20.1522,-13.3438 26.4902,-20.4024 13.2151,-14.7177 16.2863,-14.3557 11.3594,1.3418 -5.7739,18.3971 -7.9236,89.128 -3.4609,113.9493 5.6459,31.4034 20.0484,87.8543 24.3848,95.5781 1.9961,3.5551 4.8981,16.0982 6.4492,27.875 5.0071,38.0141 27.1105,104.2669 36.4472,109.248 8.8027,4.6963 17.2813,-2.0223 17.2813,-13.6933 0,-10.0735 -13.9892,-55.3183 -20.9473,-67.7461 -2.8845,-5.1521 -2.4416,-5.7816 2.8692,-4.084 40.743,13.0231 70.5618,22.8123 71.582,23.5039 0.6918,0.4686 -3.5895,7.7844 -9.5156,16.2559 -51.785,74.0275 -94.2827,220.7798 -94.4825,326.2832 -0.035,18.9981 -0.9471,34.541 -2.0253,34.541 -1.0785,0 -8.3711,-5.0054 -16.2051,-11.125 -14.9846,-11.7052 -40.3622,-24.0304 -49.7285,-24.1485 -12.5326,-0.1597 -9.5161,18.8245 4.498,28.3028 3.4747,2.3501 14.9895,11.5698 25.5879,20.4883 21.9992,18.5124 38.614,26.3517 50.043,23.6171 14.2305,-3.4048 17.709,-13.6014 21.4863,-62.955 7.2501,-94.721 27.5688,-177.152 65.709,-266.5821 24.5159,-57.4851 43.9496,-89.4306 63.5273,-104.4296 9.2273,-7.0691 19.7127,-18.2757 23.3028,-24.9024 6.4763,-11.9545 6.4727,-12.3909 -0.5899,-56.2305 -3.9148,-24.3007 -7.7972,-48.5223 -8.6269,-53.8242 l -1.5098,-9.6387 10.8262,12.8047 c 5.9537,7.0423 19.4544,21.1394 30,31.3282 16.3119,15.7591 20.9879,18.5253 31.3379,18.5253 14.356,0 26.1315,-10.2292 36.0664,-31.33 3.5365,-7.5108 7.7022,-13.6563 9.2578,-13.6563 4.5545,0 13.5873,20.7539 15.834,36.3789 2.6688,18.5607 -3.5367,43.2556 -17.6211,70.1192 -22.4114,42.7453 -23.4455,72.3085 -3.2071,91.6015 l 11.0293,10.5137 -13.5175,16.9941 c -26.3724,33.1588 -40.9949,73.0024 -44.5625,121.4219 -2.2785,30.9241 2.2318,95.2945 9.0839,129.6504 4.1597,20.8552 1.1107,26.1709 -13.1718,22.9727 -8.8221,-1.9755 -33.9925,2.915 -38.8535,7.5488 -1.865,1.7781 -2.4123,6.9524 -1.2149,11.5 2.0882,7.9324 3.1724,8.2832 26.5508,8.2519 29.6163,-0.022 48.3963,-4.594 53.0683,-12.916 2.4211,-4.3136 2.3789,-12.4068 -0.1386,-26.3672 -5.9101,-32.7715 -13.8269,-96.1234 -14.0039,-112.0488 -0.4383,-39.6899 8.0522,-70.144 38.2109,-137.039 10.4029,-23.0743 10.6255,-23.295 23.3125,-23.295 7.0443,0 16.9208,1.491 21.9473,3.3125 l 9.1386,3.3125 -3.0214,87.461 c -1.6614,48.104 -2.6624,123.609 -2.2246,167.791 0.7082,71.4387 1.4342,80.7777 6.5449,84.3496 8.0798,5.6472 12.5616,5.0294 19.9453,-2.7461 6.0567,-6.3772 6.576,-15.9986 9.1387,-169.4121 1.4942,-89.4567 3.0093,-162.8795 3.3691,-163.1621 0.3593,-0.2839 5.5842,-1.5237 11.6094,-2.7539 l 10.9531,-2.2364 v 21.9434 c 0.011,36.5918 10.0099,107.1552 18.6953,131.8887 4.4782,12.7515 15.0698,38.6468 23.5371,57.5449 8.4673,18.8979 14.9425,37.3827 14.3887,41.0781 -0.6998,4.6694 -8.1125,10.1782 -24.293,18.0528 -26.4347,12.8652 -32.5418,19.2407 -25.8242,26.957 6.7008,7.6968 20.9938,6.1503 42.8691,-4.6387 43.565,-21.4864 47.272,-35.8759 21.9844,-85.3476 -8.9538,-17.5159 -20.3043,-41.969 -25.2226,-54.3399 -10.658,-26.8097 -25.9141,-108.7622 -25.9141,-139.209 0,-21.5087 0.1113,-21.7648 16.3555,-38 23.6091,-23.5965 38.2533,-58.1425 40.2441,-94.9414 1.4834,-27.424 1.6849,-27.9808 10.7969,-29.8886 28.6863,-6.0063 40.5937,-50.6022 24.2812,-90.9336 -9.1142,-22.535 -48.1412,-80.5787 -65.8144,-97.8848 -18.1409,-17.7646 -58.8834,-40.0737 -84.7012,-46.3789 -26.5067,-6.4736 -62.9823,-4.2774 -75.4531,4.543 -4.9285,3.4861 -13.5125,14.8775 -19.0742,25.3125 -9.7315,18.2585 -10.1164,20.6008 -10.2149,62.3476 -0.087,36.3546 -1.3218,46.7616 -7.6347,64.2656 -11.1236,30.8414 -12.1344,31.8653 -22.4043,22.668 -14.9505,-13.3892 -32.951,-41.061 -35.5606,-54.666 -2.4395,-12.7175 -2.0978,-13.3953 11.0274,-21.8906 15.7616,-10.2019 26.0253,-26.6905 26.0253,-41.8125 0,-5.8589 -6.175,-34.8021 -13.7226,-64.3164 -22.2529,-87.0189 -43.0979,-121.3247 -82.1895,-135.2676 -16.7811,-5.9853 -22.3787,-6.4199 -52.082,-4.0254 -31.8488,2.5672 -33.9627,3.2155 -49.1367,15.0684 -9.3511,7.3048 -25.3136,26.2966 -38.9141,46.2949 -12.683,18.6493 -28.4335,41.1361 -35,49.9726 -14.734,19.8269 -45.3724,49.8067 -50.9023,49.8067 -9.3651,0 -18.877,-44.3931 -26.3184,-122.8379 -1.4179,-14.947 -1.212,-15.3214 12.7071,-23.0977 28.1457,-15.724 52.2898,-51.5751 41.5976,-61.7676 -6.5948,-6.2868 -12.7445,-3.2566 -23.9453,11.7969 -5.2185,7.0134 -10.7237,12.752 -12.2324,12.752 -3.7857,0 -9.854,-14.7845 -16.7266,-40.7442 -3.7713,-14.246 -7.6434,-22.2426 -11.0762,-22.873 -7.2174,-1.3249 -10.5876,17.2254 -6.375,35.0996 1.8001,7.6356 2.7704,14.3636 2.1563,14.9492 -1.9099,1.8205 -11.9863,-28.9483 -11.9863,-36.5996 0,-3.9884 -1.5435,-11.1183 -3.4278,-15.8437 -1.8549,-4.651 -3.0085,-6.6187 -4.7617,-6.5352 z m 331,5.5762 c -5.2137,-0.1916 -11.0038,4.888 -12.1289,12.1289 -0.9034,5.8135 0.2998,6.9588 6.3984,6.0976 10.1274,-1.4301 16.2223,-10.7612 10.5567,-16.1621 -1.4165,-1.3503 -3.0884,-2.0005 -4.8262,-2.0644 z m -81.7637,3.8808 c 1.3319,0.028 2.6623,1.3374 3.6231,4.2442 1.0594,3.2047 4.0814,9.6644 6.7168,14.3554 2.6356,4.6908 4.7929,9.3908 4.7929,10.4434 0,3.3043 -4.9634,2.1009 -12.7343,-3.0879 -4.7971,-3.2031 -7.4903,-8.3348 -7.4903,-14.2695 0,-7.1154 2.5491,-11.7382 5.0918,-11.6856 z m 267.1289,27.0508 c -25.248,-0.057 -51.9073,10.9457 -73.4765,32.8496 -12.6731,12.8699 -21.0633,18.8457 -26.461,18.8457 -6.109,0 -7.9043,1.6752 -7.9043,7.377 0,4.0574 1.6233,8.998 3.6055,10.9804 2.6672,2.6672 2.5462,8.9255 -0.4648,24.0743 -3.5687,17.9531 -3.3901,22.512 1.4511,37.0879 6.8657,20.6705 27.9316,44.3085 45.1231,50.6308 9.1426,3.3617 20.658,4.2624 40.0723,3.1348 22.8595,-1.3282 30.9473,-3.4143 50.2636,-12.961 40.2169,-19.8762 63.084,-54.2179 57.7969,-86.7988 -2.2671,-13.9714 -15.2702,-39.8334 -27.9824,-55.6523 -15.8332,-19.7022 -38.3058,-29.5151 -62.0235,-29.5684 z m 3.8731,13.207 c 17.2366,0 38.7149,19.1265 51.5137,45.8731 11.4348,23.8957 14.6485,34.3105 10.5859,34.3105 -1.6625,0 -3.8869,-3.9691 -4.9414,-8.8203 -2.2992,-10.5752 -7.438,-18.9759 -10.0254,-16.3886 -1.0272,1.0272 -0.5629,5.3154 1.0312,9.5293 5.1612,13.6417 7.8382,41.3378 3.9961,41.3378 -1.9297,0 -3.5078,-2.8857 -3.5078,-6.414 0,-3.5281 -1.443,-6.4141 -3.207,-6.4141 -1.7642,0 -3.2299,6.1337 -3.2559,13.6309 -0.027,7.4972 -1.11,15.1506 -2.4062,17.0078 -4.7835,6.8548 -25.712,17.3706 -44.1074,22.1621 -34.3967,8.9591 -56.8549,4.7828 -71.8028,-13.3516 -15.7822,-19.1466 -16.8807,-58.675 -1.707,-61.4062 9.7798,-1.7601 11.6246,-5.2879 7.5,-14.3399 -3.4772,-7.6322 -2.7265,-9.7521 8.166,-23.0449 14.4349,-17.616 44.0788,-33.6719 62.168,-33.6719 z m 2.6308,12.8301 c -1.7639,0 0.183,3.6077 4.3262,8.0176 4.143,4.4103 8.9763,8.0195 10.7403,8.0195 1.7641,0 -0.183,-3.6092 -4.3262,-8.0195 -4.1429,-4.4099 -8.9762,-8.0176 -10.7403,-8.0176 z m -16.4648,3.3438 c -1.7954,0.075 3.2318,5.8442 11.1699,12.8203 16.4754,14.4789 16.0352,14.2597 16.0352,8.0058 0,-4.7871 -21.2759,-21.0743 -27.2051,-20.8261 z m -19.0332,22.5195 c -2.6984,-0.1667 -6.2502,1.424 -9.6602,4.834 -6.038,6.0381 -6.2614,8.4925 -1.2343,13.5195 4.8363,4.8363 15.4375,-3.8446 15.4375,-12.6406 0,-3.6207 -1.8445,-5.5462 -4.543,-5.7129 z m -28.6016,7.5059 c -0.7552,-0.053 -1.1945,0.9953 -1.5859,3.0273 -0.5939,3.0833 0.6464,7.6864 2.7559,10.2285 6.5097,7.8439 9.7859,1.6586 3.8886,-7.3418 -2.5931,-3.9574 -4.0877,-5.8461 -5.0586,-5.914 z m 55.086,5.8339 c -6.691,-0.2496 -15.5254,9.1135 -15.5254,17.4219 0,9.8838 10.6437,10.123 17.459,0.3926 6.3283,-9.0351 6.3488,-15.0033 0.06,-17.416 -0.6341,-0.2434 -1.3019,-0.3727 -1.9941,-0.3985 z m -267.5938,6.5 c 9.9925,0.026 16.8803,1.7251 27.5235,6.0899 32.0258,13.1335 46.4432,37.4157 43.6914,73.584 -1.8341,24.1085 -21.9549,128.7798 -26.3086,136.8613 -3.5124,6.5196 -17.7186,14.459 -25.8711,14.459 -2.4571,0 -5.8142,3.3789 -7.461,7.5078 -2.3801,5.9683 -8.5971,9.0276 -30.3339,14.9277 -21.4593,5.825 -29.4638,9.7258 -37.2051,18.1309 -10.315,11.1993 -14.8909,25.8617 -13,41.666 0.921,7.698 2.6044,9.2634 9.5469,8.875 6.3731,-0.3569 9.6586,1.9913 13.4824,9.6387 5.9917,11.9828 17.9638,13.9592 19.5683,3.2305 0.8242,-5.5097 1.5853,-26.2787 11.7969,-6.4278 9.5349,18.5354 20.2371,12.6457 12.5801,-17.7324 -3.557,-14.1117 -0.5427,-32.6034 3.2441,-34.8906 6.7962,-4.1036 30.334,-3.9963 30.334,0.1406 0,1.8108 3.7928,4.6677 8.4277,6.3476 6.8974,2.4998 8.4485,5.2556 8.5469,15.1836 0.067,6.6713 2.8957,27.3109 6.2852,45.8672 3.3895,18.5564 5.5497,34.7757 4.8027,36.043 -0.747,1.2678 -5.7197,1.4733 -11.0508,0.457 -8.5143,-1.6237 -10.8048,-0.2422 -18.8535,11.3516 -8.6067,12.398 -10.11,13.1816 -24.7285,12.9082 -19.2216,-0.3581 -56.9118,-9.7082 -71.8359,-17.8203 -14.7736,-8.0308 -26.581,-31.4065 -40.3594,-79.8945 -10.3624,-36.4676 -10.9647,-41.6079 -11.0938,-94.7891 -0.1159,-48.2297 1.0017,-60.8035 7.8418,-88.3633 9.3756,-37.7772 19.0152,-58.6507 39.1036,-84.6641 21.701,-28.1015 34.4912,-36.2358 60.0449,-38.1914 4.275,-0.327 7.9503,-0.5045 11.2812,-0.4961 z m 295.0137,9.2559 c -1.6143,-0.07 -3.0184,0.2645 -3.8926,1.1387 -1.1874,1.1874 0.6409,4.2054 4.0625,6.707 7.9074,5.7833 11.4082,5.7693 11.4082,-0.045 0,-3.7515 -6.735,-7.5893 -11.5781,-7.7988 z m -11.6504,9.1875 c -1.5765,0 0.2162,4.3291 3.9844,9.6211 6.3263,8.8843 12.8301,12.6475 12.8301,7.4238 0,-3.3218 -13.5377,-17.0449 -16.8145,-17.0449 z m -34.8828,6.7031 c -2.4529,0.061 -3.0661,3.5768 0.3164,7.6524 4.5057,5.4289 19.3066,6.7183 19.3066,1.6816 0,-1.7639 -2.5961,-3.209 -5.7714,-3.209 -3.1751,0 -7.4812,-1.7073 -9.5684,-3.7949 -1.672,-1.672 -3.1682,-2.3578 -4.2832,-2.3301 z m -21.2695,28.6211 c -19.7734,-0.043 -27.5434,5.0106 -13.3926,8.711 5.0955,1.3324 6.2179,3.475 4.7929,9.1523 -1.2781,5.0917 -0.099,8.4387 3.7696,10.6914 15.2574,8.8858 39.3086,-1.8578 39.3086,-17.5586 0,-8.6521 -7.164,-10.9361 -34.4785,-10.9961 z m -141.3887,80.8164 c 0.065,-0.01 0.1399,-0.01 0.2226,0.01 0.5517,0.096 1.4848,0.7279 2.5372,1.7773 1.6839,1.6788 5.8255,15.8851 9.205,31.5703 l 6.1446,28.5196 -11.6075,9.2363 c -12.301,9.7898 -20.3199,11.8588 -20.2343,5.2207 0.028,-2.2091 3.0605,-19.8059 6.7402,-39.1035 3.6795,-19.2977 6.6895,-35.8553 6.6895,-36.793 0,-0.2637 0.1086,-0.4038 0.3027,-0.4336 z m 139.4883,6.6758 c 2.7299,0.029 5.9345,0.2712 9.9082,0.6621 21.0968,2.0758 29.7715,5.9558 58.7187,26.2715 24.4737,17.1758 31.3892,28.9332 47.3965,80.5859 11.2732,36.3761 17.2129,64.6912 17.2129,82.0528 v 11.9004 l -21.8594,3.9316 c -12.0221,2.1624 -36.5838,3.4102 -54.582,2.7734 -19.1988,-1.2849 -29.5936,-5.555 -40.5078,9.7696 -10.8937,15.2964 -15.7463,33.8835 -11.0371,42.2715 6.0462,10.7699 14.44,5.8968 24.4941,-14.2227 11.366,-22.7446 14.8803,-22.5147 5.7559,0.377 -4.5355,11.3784 -7.3814,29.7172 -9.1914,59.2539 l -2.6192,42.7754 -13.4844,0.8769 c -10.0521,0.6543 -15.7613,-0.9818 -22.4355,-6.4277 -20.8927,-17.0468 -21.6502,-36.1894 -2.998,-75.6778 7.3307,-15.52 15.0844,-38.3516 17.2304,-50.7382 5.1566,-29.767 -1.122,-53.5629 -24.1855,-91.6582 -15.6754,-25.8921 -17.2515,-30.3859 -18.9551,-54.0821 -2.2887,-31.8305 4.1251,-50.8386 21.3906,-63.3926 7.6362,-5.5523 11.5584,-7.39 19.7481,-7.3027 z m 138.5156,93.3184 c 1.0977,-0.1113 6.7637,9.7343 12.875,22.4179 14.1159,29.2979 20.467,56.4659 15.8848,67.9551 -6.2619,15.7007 -9.6688,12.0941 -13.6582,-14.4629 -2.1872,-14.5602 -6.8374,-37.2661 -10.334,-50.457 -3.4972,-13.1909 -5.6856,-24.6265 -4.8614,-25.4121 0.026,-0.025 0.058,-0.037 0.094,-0.041 z m -0.877,136.8008 -1.8828,19.7753 c -3.3545,35.2634 -30.3889,78.9652 -57.1269,92.3457 -5.0059,2.5055 -12.2119,4.5547 -16.0117,4.5547 -6.596,0 -6.9082,-1.8164 -6.9082,-40.164 0,-37.616 0.4157,-40.166 6.5429,-40.166 3.5984,-10e-5 7.4793,-1.4455 8.625,-3.2129 1.1457,-1.7671 5.7008,-3.2129 10.1211,-3.2129 8.6536,0 18.5313,-10.6574 18.5313,-19.9942 0,-3.8701 2.5798,-5.7129 8.0039,-5.7129 4.403,0 12.9778,-0.9467 19.0547,-2.1054 z m -381.3847,217.9394 c -0.4345,0.012 -0.8362,0.13 -1.209,0.3496 -10.1497,5.9801 9.1284,61.5286 33.4941,96.5117 l 11.7422,16.8614 -6.9219,10.5937 c -3.8073,5.8264 -12.3166,15.4079 -18.9101,21.2949 -12.2602,10.9466 -15.2647,21.8428 -7.9453,28.8203 5.8596,5.5859 7.1128,5.1516 25.8105,-8.9375 19.3749,-14.5996 34.0474,-36.264 36.5352,-53.9453 1.5315,-10.8851 -0.1565,-14.3758 -16.6875,-34.539 -10.1149,-12.3372 -23.4312,-31.1072 -29.5899,-41.711 -14.8089,-25.4972 -22.119,-35.4076 -26.3183,-35.2988 z" fill="#00B894" transform="translate(-413.59888,188.86479) matrix(0.26458333,0,0,0.26458333,-885.71945,-804.08485)"/>
</svg>