<?xml version="1.0" ?><svg height="275.16547mm" viewBox="0 0 230.58189 275.16547" width="230.58189mm" xmlns="http://www.w3.org/2000/svg">
    <path d="m 8326.0918,7696.0312 c -43.7052,0.5626 -76.1353,28.6373 -94.7266,68.4336 -19.191,41.0801 3.2544,89.5771 26.4571,117.2891 26.5638,25.5653 84.6752,10.3418 116.4433,-13.7598 31.7681,-24.1016 46.6254,-66.0582 44.8906,-106.6503 -1.7348,-40.5922 -42.9357,-64.0108 -88.7988,-65.2793 -1.4332,-0.04 -2.8558,-0.049 -4.2656,-0.031 z m -109.8613,203.9844 c -38.5152,0.5444 -63.2707,40.4077 -89.8711,98.4239 -29.3521,64.018 -28.0041,291.3823 -26.6563,327.3671 1.3478,35.9849 41.7809,61.053 81.3164,56.4707 16.3489,-2.125 90.4393,-44.0179 85.5078,-24.9335 -12.7292,24.1245 -26.8063,142.7257 -23.5117,213.7519 l 19.4707,9.7051 c 0,0 -11.2304,12.1297 -17.6699,28.9765 -6.4395,16.8468 20.663,48.6531 67.3867,67.1172 46.7237,18.4642 222.6869,31.8074 283.7871,21.5645 61.1003,-10.2428 45.4219,-34.0342 63.9473,-30.7285 18.5254,3.3057 27.5557,19.0019 66.9414,18.8672 39.3856,-0.1348 132.6836,-24.2583 132.6836,-45.6875 0,-21.4292 16.3201,-69.1405 24.5566,-128.4414 8.2365,-59.3009 53.6145,-178.4415 61.7012,-293.4043 8.0868,-114.9628 -71.4326,-186.259 -110.8183,-198.5235 -19.3834,-6.0358 -45.8543,-10.7565 -67.7637,-14.0039 -3.8151,-13.0338 -10.0633,-23.4672 -14.293,-29.2129 -6.7719,-9.1992 -41.6543,-43.4668 -41.6543,-43.4668 0,0 -59.2868,-14.0277 -74.875,-13.9707 -15.5882,0.057 -28.875,13.7988 -28.875,13.7988 0,0 -15.7175,-2.7597 -22.6172,0.92 -6.8997,3.6797 -10.7324,19.2031 -10.7324,19.2031 0,0 -10.7317,5.4046 -20.123,13.3965 -9.1071,7.75 -7.6054,10.8873 4.3359,36.1308 -7.5182,1.5553 -25.2681,5.854 -41.1836,14.5098 -20.816,11.3211 -51.9672,33.559 -79.6719,84.3691 -27.7048,50.81 -34.8906,174.5332 -34.8906,174.5332 l -111.8672,60.1094 c 0,0 -10.0337,-32.0766 -11.5312,-55.2578 -1.4976,-23.1812 16.0228,-105.5282 28.3027,-149.8691 12.28,-44.3409 29.2005,-117.5236 22.6113,-146.2305 -6.5892,-28.707 -55.708,-75.7436 -101.5332,-84.3691 -4.2961,-0.8087 -8.4257,-1.1717 -12.4101,-1.1153 z" fill="#FFFFFF" transform="translate(-205.98886,-115.66133) matrix(0.26458333,0,0,0.26458333,-1058.2391,-1266.5743) translate(-3313.5291,-2437.8203)"/>
    <path d="m 5013.137,5224.2043 c -9.1704,0.1182 -14.1949,1.8402 -24.3262,5.6933 -35.5145,13.507 -65.9352,54.0107 -73.5937,97.9883 -6.5585,44.5346 -3.6687,69.2187 8.4472,96.8653 8.5023,19.5887 21.7603,34.43 37.8243,42.3418 16.848,8.2979 49.0037,7.1205 73.5293,-2.6915 18.8476,-7.5401 21.1173,-10.565 24.7382,-5.6132 2.1387,2.9248 11.5676,9.7292 14.8848,9.0703 4.7856,-0.9502 9.3966,-2.1773 4.4609,-15.8457 -3.6721,-10.1692 -5.2115,-11.3782 -2.6621,-13.5996 25.6209,-28.2829 31.3868,-48.5816 38.3008,-79.0957 1.8715,-10.1239 3.4043,-18.8519 3.4043,-19.3946 0,-0.5424 4.8039,-0.9843 10.6758,-0.9843 12.9689,0 29.9145,-13.0308 29.7695,-22.8907 -0.1216,-8.2563 -4.6137,-14.1611 -17.834,-23.4414 -11.4988,-8.0715 -13.0058,-12.9258 -4.0097,-12.9258 5.7462,0 12.5859,-8.2331 12.5859,-15.1503 0,-1.6965 -3.5023,-7.2462 -7.7832,-12.334 -10.046,-11.9389 -41.6001,-20.4345 -95.1367,-25.6114 -16.5018,-1.5956 -26.1429,-2.4728 -33.2754,-2.3808 z m -22.4883,55.6191 c 9.35,0.275 18.8146,5.1945 30.2754,14.6895 7.7519,6.4226 17.7114,14.1227 22.1309,17.1133 8.9351,6.0457 25.2957,7.2456 30.3203,2.2207 2.2684,-2.2684 6.2773,-0.4463 13.1738,5.9961 9.0696,8.4723 9.7434,10.4088 7.9062,22.7539 0.3735,16.6989 -13.19,70.9027 -31.9785,81.6172 -7.5321,-3.8578 -20.0883,-1.964 -14.7754,12.8457 -12.7162,9.2621 -38.8004,19.976 -69.7461,15.7089 -17.2916,-2.3843 -39.6256,-33.6717 -43.7089,-60.8379 -0.1154,-0.7676 -0.2209,-1.5326 -0.3067,-2.2929 -0.066,-0.5897 -0.1222,-1.1427 -0.1758,-1.6914 l -0.2695,0.2011 c -0.994,-5.5998 -1.5922,-12.0333 -1.957,-20.1757 -1.5875,-35.4327 4.4506,-52.5837 25.0273,-71.084 13.0381,-11.7221 23.4874,-17.3762 34.084,-17.0645 z m 51.9043,79.0489 c -8.7543,-0.5458 -18.9241,18.1852 -12.3535,24.7558 4.4151,4.4151 13.5833,1.7539 18.1914,-5.2793 5.3954,-8.234 3.7013,-16.1035 -4.1113,-19.1015 -0.5657,-0.217 -1.143,-0.3386 -1.7266,-0.375 z m 25.9492,12.5761 c -9.3996,-0.283 -16.4681,13.2316 -12.6484,19.4121 2.6741,4.3266 8.3493,5.0982 14.1465,-0.6992 7.0502,-7.0502 6.0807,-18.4848 -1.4981,-18.7129 z m -101.6445,18.0117 c -2.1734,-0.1789 -4.3062,3.1789 -5.0938,9.9317 -1.5515,13.3017 5.0611,32.2359 14.2227,40.7265 4.8041,4.605 22.4916,2.4426 26.3008,0.6993 14.9664,-6.8493 11.9771,-13.3578 -7.4082,-12.0879 -6.5652,0.4302 -9.915,-1.7878 -14.8047,-9.8047 -3.4759,-5.6989 -7.1923,-14.9832 -8.2598,-20.6328 -1.0891,-5.763 -3.0394,-8.6743 -4.957,-8.8321 z m -61.4824,63.6543 c -13.2896,0.081 -26.8566,3.7898 -40.752,12.1348 -31.0972,19.1945 -61.3784,85.3647 -78.2051,170.8906 -7.8139,39.7161 -8.3474,47.8211 -8.2187,125.1153 0.2037,122.8336 4.226,155.1042 17.9141,143.7441 4.3774,-3.6329 5.017,-14.7336 5.041,-87.209 0.04,-122.873 7.3565,-187.7847 28.5195,-253.0195 16.3254,-50.3229 33.8754,-77.5977 56.9863,-88.5645 16.4989,-7.8294 26.6049,-6.0856 56.0742,9.6739 40.3192,21.562 59.1073,47.3376 65.168,89.4062 3.3215,23.0561 -1.0932,59.0187 -7.75,63.1328 -4.4607,2.757 -29.3266,-19.3379 -47.2305,-41.9687 -20.7686,-26.2512 -33.2539,-46.9104 -42.705,-70.6641 -8.7197,-21.9156 -11.7097,-26.5098 -17.2559,-26.5098 -5.0914,0 -8.6808,10.7496 -8.1758,24.4883 0.4618,12.5658 12.8653,40.6032 25.6582,57.9981 5.1112,6.9498 15.7755,21.4985 23.6973,32.3301 7.9216,10.8318 24.0397,27.4814 35.8184,36.998 11.7784,9.5166 21.416,17.7261 21.416,18.2441 0,0.5179 -4.1828,11.9385 -9.295,25.379 -21.4116,56.2947 -32.9671,127.5301 -24.0742,148.4082 2.7398,6.4324 6.4209,11.6953 8.1797,11.6953 6.2784,0 13.0765,-19.4365 16.0977,-46.0235 4.0052,-35.2482 10.779,-68.1772 20.2968,-98.6621 4.2262,-13.536 8.3299,-25.6546 9.1192,-26.9316 0.7891,-1.2771 21.0648,7.3999 45.0566,19.2832 l 43.6211,21.6055 -1.8808,14.6835 c -7.1913,56.1428 -13.2838,91.6846 -16.3496,95.3789 -1.9677,2.3709 -14.4256,8.1323 -27.6836,12.8028 -72.5534,25.5599 -108.9876,62.212 -128.7793,129.5469 -5.5755,18.9688 -7.1381,33.8563 -8.3379,79.4902 -1.5233,57.9343 0.8461,77.6211 10.5039,87.2793 2.8472,2.8485 7.4081,4.1365 10.8105,3.0566 5.7193,-1.8151 5.7119,-1.4663 -0.2187,12.3692 -7.6992,17.9619 -2.4943,18.75 6.4922,0.9824 7.5216,-14.8706 36.7525,-57.4258 50.8789,-74.0703 18.2133,-21.4599 64.6324,-65.4961 69.041,-65.4961 6.9507,0 5.3239,6.0153 -3.6465,13.4922 -26.3963,22.0006 -33.6179,29.6496 -40.1309,42.5019 -9.1725,18.1006 -14.7318,38.5509 -12.2441,45.0332 3.5516,9.2558 13.0728,5.7244 17.4277,-6.4629 l 4.0996,-11.4765 1.5586,13.7871 c 2.1859,19.3264 10.8739,20.7584 17.8711,2.9453 l 5.0957,-12.9727 4.211,8.0372 c 2.3159,4.4202 5.4679,8.0351 7.0058,8.0351 6.8987,0 12.5996,-10.5907 12.5996,-23.4101 0,-7.4851 1.6041,-17.5598 3.5645,-22.3887 l 3.5644,-8.7793 2.1739,9.6289 c 3.0114,13.3292 5.6879,16.8808 12.7129,16.8809 8.0362,0 8.0174,-13.7438 -0.055,-39.4844 -6.5391,-20.8571 -5.3028,-31.6266 6.2207,-54.2735 4.6798,-9.1974 9.4026,-12.5823 27.4277,-19.6543 30.5314,-11.9785 59.1878,-16.0003 82.0137,-11.5097 25.2958,4.9766 124.5714,33.4488 127.7656,36.6426 1.4412,1.4413 1.8132,5.708 0.8262,9.4824 -1.712,6.5464 -11.7635,13.0565 -60.3789,39.1113 -9.4345,5.0562 -21.3638,12.3295 -26.5098,16.1641 -6.2622,4.6665 -15.5586,7.5266 -28.1113,8.6465 -31.8001,2.8387 -61.6668,21.7528 -56.3262,35.6699 1.4675,3.8246 3.6667,3.1325 11.8164,-3.7246 13.725,-11.549 14.0691,-5.9904 0.9766,15.7519 -12.1621,20.1976 -13.0264,23.9893 -6.6758,29.2598 3.478,2.8862 8.419,-1.3584 25.2344,-21.6836 11.5005,-13.9007 21.4023,-24.7791 22.0078,-24.1738 0.6051,0.6051 -3.7309,10.703 -9.6387,22.4414 -10.2509,20.3675 -13.4588,33.01 -8.4023,33.1152 1.2865,0.027 7.5924,-5.9393 14.0156,-13.2559 l 11.6797,-13.3027 -4.6602,13.6465 c -5.5762,16.3265 -5.8758,22.2187 -1.1289,22.2187 4.1614,0 12.9338,-9.6649 21.8125,-24.0312 3.493,-5.6514 6.9555,-10.2754 7.6934,-10.2754 0.7382,0 0.4428,5.6135 -0.6543,12.4746 -2.8253,17.6687 2.932,15.8769 12.5254,-3.8984 5.4698,-11.2747 8.5762,-24.1824 9.9785,-41.4512 l 2.0371,-25.0801 20.6582,-9.7773 c 11.3617,-5.3781 24.4616,-12.2777 29.1094,-15.3321 4.6477,-3.0559 9.5402,-4.462 10.873,-3.1289 3.6181,3.6181 4.8464,65.8615 1.793,90.8731 -1.7854,14.623 -3.9396,21.5632 -6.5215,21.0215 -6.2203,-1.305 -8.4109,9.0157 -2.6035,12.2656 3.3702,1.886 5.1582,6.9446 5.1582,14.584 0,6.433 1.6878,13.3807 3.7461,15.4394 15.3507,15.3505 21.9676,-18.4364 22.7832,-116.334 0.5733,-68.8311 1.1403,-75.8551 7.0625,-87.3242 8.1536,-15.792 28.1601,-35.0106 52.1797,-50.1289 10.292,-6.4781 27.1054,-18.5443 37.3652,-26.8144 23.5314,-18.9685 42.4978,-25.518 69.0078,-23.8301 24.2804,1.5464 25.1618,-3.2985 1.752,-9.6133 -8.8684,-2.3921 -16.1211,-5.7781 -16.1211,-7.5234 0,-1.7453 3.4459,-9.0596 7.6621,-16.2539 18.6016,-31.7408 29.724,-77.0748 29.75,-121.2539 0.011,-19.9582 0.7975,-22.4718 10.9258,-34.8321 6.0354,-7.3655 10.916,-16.8199 10.916,-21.1465 0,-9.7831 -11.6499,-19.3179 -27.1543,-22.2265 -28.3756,-8.1767 -55.5518,-15.6532 -83.877,-22.3379 l -1.6699,-16.3281 c -1.1714,-11.4485 -0.3277,-18.2467 2.8223,-22.7442 2.4712,-3.5279 5.3875,-10.7792 6.4805,-16.1133 1.8173,-8.8686 2.8991,-9.6058 12.6464,-8.6152 20.2862,3.7726 48.0362,12.1245 63.5489,23.6328 31.5137,24.0625 61.1971,71.2138 69.5039,110.4024 8.1989,38.6812 4.2762,113.6414 -9.2676,177.0976 -2.6247,12.2972 -11.3029,44.5772 -19.2852,71.7324 -7.9824,27.1559 -17.0262,59.8987 -20.0976,72.7637 -9.9463,41.6608 -29.0355,154.8657 -27.0059,160.1543 2.3742,6.1872 9.4701,6.6967 14.1836,1.0176 1.8828,-2.2686 9.7139,-35.6016 17.4004,-74.0723 7.6867,-38.4703 19.5228,-88.8917 26.3027,-112.0488 6.7798,-23.157 16.049,-54.7047 20.5997,-70.1055 24.1595,-81.7597 33.3046,-176.8932 22.0898,-229.8066 -4.6946,-22.1488 -22.1765,-62.962 -32.7012,-76.3418 -39.4522,-50.1552 -68.8555,-68.2827 -121.7988,-73.6699 -23.2564,-3.5709 -32.4683,-10.0598 -35.877,-24.6348 -2.2944,-9.8106 -13.2948,-21.1387 -20.5273,-21.1387 -2.7311,0 -6.4668,-3.9801 -8.3027,-8.8437 -1.8358,-4.8639 -8.7111,-12.9324 -15.2774,-17.9317 -10.5968,-8.0682 -14.3284,-9.0643 -33.2109,-8.8515 -11.7001,0.1315 -21.2735,-0.7079 -21.2735,-1.8653 0,-1.1571 -5.6132,-4.6366 -12.4746,-7.7304 -6.0226,-2.7155 -9.2523,-4.0719 -12.5078,-4.0586 -3.2556,0.013 -6.5378,1.3969 -12.6699,4.1621 -6.9855,3.15 -14.6923,8.568 -17.125,12.041 -3.4587,4.9381 -5.2441,5.4923 -8.1934,2.543 -2.0743,-2.0743 -8.3529,-3.7715 -13.9531,-3.7715 -11.2003,0 -16.6406,6.5207 -16.6406,19.9473 0,6.5169 -2.0968,8.4477 -12.1113,11.1445 -6.6614,1.7938 -13.6174,5.0743 -15.4571,7.291 -5.7816,6.9663 -7.8279,29.4253 -3.6093,39.6094 3.2983,7.9632 3.0671,11.6643 -1.4688,23.541 -2.6438,6.923 -4.47,10.4822 -6.5664,11.8867 -4.0142,-0.764 -10.7384,-0.434 -10.9199,4.2559 -0.2578,2.5224 5.185,10.2847 8.4414,12.7051 1.0931,3.8067 -1.9707,6.6578 -1.9707,14.8261 v 19.8985 h -16.293 c -19.1152,0 -26.8378,6.0196 -33.1992,25.8789 -4.9986,15.6058 -24.4303,29.3571 -34.1406,24.1601 -6.0879,-3.2581 -6.2101,-4.137 -1.9961,-14.2226 15.0041,-35.9099 41.9972,-88.5835 80.5683,-106.209 20.481,-9.359 14.4456,-14.762 1.293,-12.9981 -20.7743,2.786 -42.2835,17.5527 -63.3086,45.3614 l -17.2285,22.7871 -14.6055,-8.4317 c -25.6759,-14.82 -48.7723,-33.113 -59.916,-47.457 -5.9576,-7.6689 -16.7019,-21.1156 -23.8789,-29.8828 -7.1769,-8.7671 -18.7517,-25.3003 -25.7207,-36.7402 -33.5658,-33.9439 -68.186,-61.4522 -104.9277,-61.2286 z m 426.5761,39.8614 c 6.1347,0.042 14.7024,0.7233 28.6114,1.7968 32.1318,2.48 41.8284,7.5077 51.664,26.7872 3.8969,7.6387 8.4173,12.2128 12.0703,12.2128 6.6486,0 9.627,5.8379 9.627,18.8731 0,6.4444 2.734,11.029 9.6055,16.1094 8.8399,6.5355 9.4738,8.2223 7.9648,21.1464 -0.9019,7.7242 -2.584,22.79 -3.7383,33.4805 -1.5183,14.0587 -4.1135,21.6096 -9.3769,27.2891 -13.7755,14.8637 -26.9159,10.3985 -19.2832,-14.7617 6.1243,-20.1875 8.9295,-49.0361 2.2539,-66.4551 -9.1489,-16.4893 -17.6836,-21.5406 -32.1836,-31.4082 -22.1982,-17.0683 -35.315,-33.4934 -55.9883,-31.6211 -7.8886,0.7142 -19.2168,4.2125 -30.8535,9.0293 -10.6346,3.553 -20.63,8.6737 -29.5879,15.0293 -5.1077,3.1893 -9.5779,6.3971 -12.877,9.4199 -12.1397,11.1226 -13.0625,11.3677 -13.0625,3.4863 0,-3.2864 5.5366,-10.3605 12.3047,-15.7207 6.768,-5.3605 13.1776,-12.495 14.2442,-15.8554 1.3557,-4.2712 4.7443,-6.1114 11.2578,-6.1114 5.1244,0 15.6919,-2.9031 23.4844,-6.4531 10.1723,-4.6338 13.6387,-6.3428 23.8632,-6.2734 z m -4.5195,32.2715 c 15.5539,-0.067 35.1649,9.3863 57.1543,27.7441 16.3033,13.6104 25.4624,32.694 23.8418,49.6777 -0.4908,5.148 -0.8397,7.8031 -2.7207,9.1739 -1.9585,1.1912 -5.3893,1.2695 -11.8125,1.2695 -12.9242,0 -14.0063,-0.6522 -16.4023,-9.8984 -3.0697,-11.8465 -19.097,-22.8497 -33.2852,-22.8497 -4.4254,0 -7.3501,0.6802 -8.6836,1.6758 -2.6529,1.6329 -0.6679,4.2602 6.4746,6.0528 12.9438,3.2487 20.1934,12.8573 20.1934,26.7675 0,6.3635 -0.106,9.6239 -2.0039,10.9493 -1.9881,1.0705 -5.6739,0.4493 -12.5157,-0.8672 -6.5462,-1.2594 -6.7108,-1.8257 -2.3398,-8.0664 8.6984,-12.4185 4.1384,-23.8418 -5.2852,-18.0664 -1.0229,0.5917 -2.1029,1.3784 -3.2343,2.4023 -3.9482,3.5728 -5.769,8.3091 -4.9141,12.7812 0.6235,3.2621 0.3066,6.0225 -0.6738,6.8477 -0.1071,0.04 -0.2172,0.068 -0.336,0.068 -3.5938,0 -3.4142,-13.2762 0.3125,-23.0782 2.8798,-7.5742 0.6475,-11.6128 -2.9765,-9.3359 -1.2388,0.6677 -2.6591,2.093 -4.1074,4.4121 -1.7886,2.8641 -3.4037,4.7019 -4.7481,5.5488 -2.2425,1.1849 -3.6426,-0.6236 -3.6426,-5.4687 0,-16.8626 -18.0352,-31.336 -39.0488,-31.336 -9.3995,0 -9.9583,-4.3246 -1.3398,-10.3613 0.3135,-0.2195 0.6178,-0.4178 0.9218,-0.6074 5.1827,-3.0631 10.0068,-1.494 35.4082,9.9609 16.6387,7.5036 34.3447,13.6582 39.3477,13.6582 5.2179,0.01 7.5042,-0.5857 6.6855,-1.8828 1.0023,-1.5826 -1.9209,-3.9192 -8.4023,-5.4101 -1.7781,-0.409 -4.804,-1.3235 -8.5234,-2.5352 -4.5109,-1.6453 -9.9695,-3.5251 -16.3516,-5.6406 -15.036,-5.3828 -31.5434,-11.7219 -35.4746,-13.8535 -0.9599,-0.9522 -1.2375,-1.8302 -0.8594,-2.6758 0.1833,-0.3333 0.4368,-0.673 0.7539,-1.0059 0.3066,-0.292 0.679,-0.5834 1.1309,-0.875 2.6889,-1.7347 13.72,1.0348 30.7461,7.7188 26.8976,10.5597 43.5724,14.942 47.0273,12.4512 0.6534,-0.3299 0.9981,-0.8207 0.9981,-1.4883 0,-3.4967 -25.6064,-13.885 -48.3321,-19.6074 -5.9291,-1.493 -10.637,-3.4395 -13.6679,-5.5625 -0.5625,-1.8223 2.3635,-3.791 8.6113,-6.379 3.6821,-1.5252 7.7191,-2.2898 12.0742,-2.3085 z m -57.2832,46.2519 c 1.6838,0.023 3.7454,0.5291 6.3242,1.5762 6.052,3.9652 6.9949,6.1766 4.5684,10.7109 -1.6818,3.1426 -3.0567,8.6128 -3.0567,12.1563 0,2.9573 -0.236,4.723 -1.2617,5.4863 -1.5297,0.7387 -4.4771,-0.1822 -10.1172,-2.4492 -7.8827,-3.1685 -8.5428,-7.0707 -3.5937,-21.2676 1.554,-3.9813 3.4323,-6.2641 7.1367,-6.2129 z m 24.293,12.7481 c 0.4662,0.01 1.1796,0.8796 2.2558,2.5449 1.6628,2.573 3.0444,6.1641 3.0704,7.9804 0.058,3.9908 -2.8949,8.3228 -6.1329,10.4258 -1.8947,1.139 -3.8542,1.5047 -5.3457,0.5625 -3.231,-2.0413 -3.0744,-3.3623 0.7793,-6.5605 2.6541,-2.2028 4.849,-6.9912 4.875,-10.6406 0.018,-2.4438 0.1426,-3.8437 0.4981,-4.3125 z m -260.8809,5.7714 7.7539,11.3457 c 7.9163,11.5799 45.4217,41.1088 66.3262,52.2207 6.3809,3.3919 11.6016,7.0746 11.6016,8.1817 0,1.1071 -2.8722,8.5063 -6.3829,16.4433 -3.5109,7.937 -7.3698,14.3681 -8.5761,14.2911 -1.2063,-0.077 -20.8992,-9.1518 -43.7617,-20.1661 -35.3528,-17.032 -41.287,-20.9072 -39.6954,-25.9218 1.0292,-3.2428 4.3152,-17.2577 7.3028,-31.1446 z m 217.0117,6.2364 c 0.5905,0.04 1.1719,1.4439 2.2168,4.2461 4.1334,11.0848 44.2176,21.8407 53.666,15.3808 0.7356,-0.445 1.3277,-0.9726 1.7188,-1.6055 0.1224,-0.198 0.2576,-0.3415 0.4004,-0.4589 1.3964,-0.5495 3.5068,2.022 5.6016,7.0039 4.4115,10.4916 19.5938,18.9902 33.9238,18.9902 4.3666,0 10.6127,1.6701 13.8808,3.7109 7.1575,4.47 15.8047,-1.0802 15.8047,-10.1445 0,-5.8882 4.1407,-10.2169 7.0196,-7.3379 0.9087,0.9085 -0.1669,8.9397 -2.3907,17.8477 -2.2237,8.9077 -4.9461,22.749 -6.0488,30.7578 -6.5403,20.2198 -13.6353,34.3181 -29.6875,40.4238 -26.5438,10.0965 -49.1002,3.6024 -69.8437,-5.9062 -13.9365,-6.377 -21.9303,-21.4817 -27.377,-33.795 -2.9531,-6.6761 -5.9545,-18.02 -7.4102,-27.4453 -0.1096,-1.995 -0.2255,-3.9155 -0.3789,-5.6074 -0.8272,-9.1227 -1.0684,-14.1101 -0.1992,-16.582 0.8743,-1.318 2.4408,-1.5137 4.9922,-1.5137 0.3616,0 0.7099,-0.019 1.0527,-0.047 3.6671,0.5485 6.3877,-1.665 7.3868,-4.7168 0.8799,-2.0023 0.7955,-4.3569 -0.4844,-6.5273 -0.5584,-1.1526 -1.3789,-2.2579 -2.5098,-3.2363 -3.493,-3.0217 -4.8188,-5.936 -3.291,-9.6856 0.8163,-2.0034 1.3575,-3.2492 1.8281,-3.7246 0.043,-0.011 0.086,-0.03 0.1289,-0.027 z m 9.5723,21.8457 c -5.1594,0.1535 -4.8733,2.7905 4.2031,7.3984 10.7294,5.447 16.4914,3.2789 18.3321,2.4473 7.9308,-3.5831 3.4822,-5.7429 -2.9668,-4.9571 -4.3463,0.5296 -10.0171,-3.723 -13.2305,-4.289 -2.0281,-0.3573 -3.7894,-0.5534 -5.2344,-0.5977 -0.3914,-0.012 -0.7595,-0.012 -1.1035,0 z m 139.5781,9.58 c 1.0755,0.078 2.2514,0.7651 3.5352,2.0489 2.7534,2.7529 2.7756,6.5377 0.092,15.498 -1.9536,6.5205 -5.795,14.6357 -8.5352,18.0332 -1.1316,1.4032 -1.9953,2.4071 -2.6367,2.8887 -1.6487,0.8425 -1.3999,-3.1105 -0.1406,-15.5703 1.3592,-13.4476 3.4064,-20.8598 6.3359,-22.6465 0.4314,-0.1991 0.8805,-0.286 1.3496,-0.252 z m -70.8027,15.1778 c -1.4765,0.055 -0.7165,1.2802 1.6855,4.209 4.6742,5.6992 23.7631,7.1885 26.9082,2.0996 1.1085,-1.7936 -1.796,-3.1321 -6.8339,-3.1621 -4.8185,-0.023 -12.2685,-0.968 -16.5567,-2.0996 -2.6253,-0.6928 -4.3171,-1.0801 -5.2031,-1.0469 z m -107.75,23.1738 c 2.6939,0.074 9.6088,30.0832 26.3828,45.127 0,0 2.6506,6.0098 2.6797,24.8632 0,23.0634 -0.4056,24.4011 -10.2852,33.9766 l -29.623,33.582 c -2.8918,5.4221 -8.0217,14.2431 -13.8906,23.7735 -9.0055,14.624 -20.3383,31.347 -25.1836,37.1621 l -8.8106,10.5723 1.2598,-50.6661 c 0.6929,-27.8669 2.0628,-51.471 3.0449,-52.4531 0.1228,-0.1228 0.3427,-0.168 0.6465,-0.1406 2.1264,0.1916 8.4224,3.912 15.1777,9.0683 7.7202,5.8934 14.3517,7.3023 25.9942,11.7735 11.1404,6.9936 17.7601,-13.5605 4.8105,-18.8946 -4.2332,-3.18 -7.4824,-6.0319 -9.2871,-8.1484 l 12.7227,0.8731 c 23.1383,3.4976 26.8902,-18.6473 10.5019,-20.9883 -10.0519,-0.7621 -21.6436,-8.9475 -1.2383,-11.4238 17.3279,-2.1029 16.003,-19.7904 -11.6523,-22.5704 l -32.6445,-3.2812 1.9043,-10.1367 c 1.0474,-5.5748 3.7473,-14.6967 6,-20.2715 3.2636,-8.0753 5.7389,-10.0529 12.9218,-10.1289 v 0.1816 c 0.04,-2e-4 0.076,0 0.1172,0 5.0458,0.3371 13.7211,-1.2336 18.4512,-1.8496 z m 50.3242,2.5977 c -0.5611,0.02 -1.1164,0.1411 -1.6777,0.3847 -2.7568,1.3423 -0.6107,7.6669 5.8281,13.6035 3.8595,3.5581 9.8252,7.1639 13.2559,8.0118 6.0676,1.5003 27.5025,0.1276 40.9785,-2.6231 1.5466,-0.3157 2.9351,-0.8909 4.1445,-1.6445 5.2572,-3.057 7.2501,-9.5171 3.4668,-14.0762 -2.6621,-3.2067 -6.379,-3.1533 -19.3769,0.2754 -15.3518,4.0498 -28.3074,3.0755 -43.711,-3.2852 -1.022,-0.4327 -1.9731,-0.68 -2.9082,-0.6464 z m 183.8242,2.7246 c 29.7927,2.8496 51.556,13.7977 86.2754,17.748 10.1572,1.0884 18.9524,3.4541 19.5449,5.2559 0.5923,1.8015 -4.0858,9.3055 -10.3945,16.6758 -10.6532,12.4458 -11.6363,15.3234 -13.793,40.3867 -3.6178,42.0401 -10.4326,68.3798 -27.166,104.9902 -14.8848,32.5656 -15.9055,33.9319 -28.0625,37.5215 -6.9386,2.0486 -16.6016,6.4856 -21.4726,9.8613 -19.5078,13.5197 -18.7438,14.8178 -11.6035,-19.709 5.8521,-28.2989 5.0816,-49.1406 -3.4649,-68.5507 8.2141,-16.8972 21.2343,-39.364 38.7734,-51.6621 17.2963,-12.1279 3.9745,-12.6358 -8.1074,-5.6602 -6.8093,3.9315 -20.5925,7.3676 -36.7187,45.8262 -2.0803,-3.3921 -4.4158,-6.7784 -7.0098,-10.1895 3.4225,-19.4476 9.6678,-40.9959 18.6621,-52.7734 12.8213,-16.7887 8.8978,-22.8515 -2.9609,-11.2012 -8.7668,8.6128 -18.0198,23.9408 -24.2285,50.0078 -1.1296,-2.7187 -1.8262,-5.1793 -1.8262,-6.8984 0,-9.0153 -8.8164,-17.9668 -17.6953,-17.9668 -9.3636,0 -16.3681,-9.6508 -18.2735,-25.1777 -1.5821,-12.8944 21.5505,-14.5213 33.75,-27.629 5.5274,-6.345 6.6016,-14.0532 6.0625,-20.8945 1.5645,-0.4276 3.5598,-0.7956 6.1329,-1.2148 6.5195,-1.0622 13.4679,-3.5445 15.4394,-5.5157 1.9594,-1.9595 4.2702,-3.0758 8.1367,-3.2304 z m -194.4843,45.914 c 21.3578,18.0946 68.7563,25.6381 97.6484,14.2852 13.0954,-5.4718 14.9792,-4.227 17.8223,11.7676 2.4042,13.5245 2.4465,13.5129 -24.7129,6.955 -21.6313,-5.2229 -47.205,-5.8586 -68.9668,-1.7128 -8.3821,1.5964 -14.8713,2.8697 -17.8731,4.0293 -4.8323,1.8672 -5.1269,0.5881 -5.1269,-16.2754 0,-10.4756 0.4881,-19.0489 1.209,-19.0489 z m -134.9434,13.3204 c 1.436,0.024 3.0945,0.8078 5.0957,2.0781 5.4994,3.4908 16.4957,25.7881 14.3945,29.1875 -0.9506,1.5383 -2.6589,17.7085 -3.7968,35.9336 -1.1378,18.2252 -3.472,33.3411 -5.1875,33.5937 -1.7152,0.2516 -9.0828,-0.066 -16.3731,-0.707 -16.0922,-1.4148 -15.9648,-0.269 -6.6113,-58.9336 5.0464,-31.6499 7.3498,-41.2396 12.4785,-41.1523 z m 176.0195,36.9023 c 23.0217,0 71.1209,9.6568 85.4727,17.1601 9.7799,5.1128 22.3403,18.4061 30.9336,32.7403 5.1254,8.5496 6.5566,16.1047 6.5566,34.8515 0.013,26.4982 -10.2727,76.7018 -17.5547,85.6895 -4.3514,5.3703 -4.5507,5.1225 -2.8925,-3.5859 0.9798,-5.146 3.3525,-28.6371 5.2753,-52.2012 2.7617,-33.8492 2.6698,-44.8422 -0.4433,-52.3574 -2.1671,-5.232 -5.4721,-9.0027 -7.3438,-8.3789 -5.1431,1.7144 -10.6425,23.9859 -13.0429,52.8203 -2.7886,33.5014 -16.9734,89.035 -25.9688,101.6679 -3.8808,5.4503 -8.7149,9.7202 -10.7422,9.4864 -2.0273,-0.2326 -17.7219,-5.1726 -34.875,-10.9785 -17.1536,-5.8057 -45.9226,-14.164 -63.9336,-18.5743 -18.0109,-4.4101 -34.701,-8.6249 -37.0879,-9.3652 -2.937,-0.9111 -0.1841,-5.1832 8.5157,-13.2148 22.3334,-20.6178 25.6318,-32.6171 24.6992,-89.8555 -1.1306,-69.3671 3.383,-75.9043 52.4316,-75.9043 z m -83.7793,71.6641 c 0.078,-0.01 0.1547,-9e-4 0.2305,0.01 2.3159,0.3793 3.8008,9.8029 3.8008,26.6739 0,30.0774 -5.8458,45.3793 -26.4746,69.289 -14.0865,16.3272 -25.0198,17.9363 -28.0528,4.127 -2.3258,-10.5895 0.8715,-17.5893 26.4707,-57.9258 9.7975,-15.438 18.8104,-31.2266 20.0274,-35.086 1.4763,-4.6821 2.8344,-6.9805 3.998,-7.0859 z m -100.7734,10.9472 c 11.1561,0.061 20.8769,0.7863 22.0215,2.1348 0.4765,0.5619 1.81,13.0761 2.9629,27.8105 l 2.0957,26.7891 -24.5489,26.4336 c -13.5017,14.5379 -27.714,31.9556 -31.5839,38.7051 -3.87,6.7498 -14.6468,17.7666 -23.9473,24.4824 -35.4606,25.6048 -76.6317,72.2152 -105.6055,119.5586 -6.5612,10.7207 -12.4311,19.4922 -13.0449,19.4922 -1.8474,0 -1.0169,-39.0929 1.9551,-92.0039 4.2703,-76.0255 15.4124,-107.4917 50.457,-142.4903 23.0363,-23.0063 60.4539,-43.7247 88.6094,-49.0644 6.8809,-1.305 19.4727,-1.9085 30.6289,-1.8477 z m 34.8066,96.4473 c 1.4583,-0.014 1.8438,1.687 -0.045,4.7422 -1.1307,1.8294 -3.5489,3.3261 -5.373,3.3261 -2.0682,0 -1.8313,-1.7898 0.6289,-4.7539 1.8712,-2.2548 3.6548,-3.3036 4.789,-3.3144 z m 2.9453,33.0195 c -2.573,0 -4.6777,1.4039 -4.6777,3.1192 0,1.7153 2.1047,3.1171 4.6777,3.1171 2.5731,0 4.6778,-1.4018 4.6778,-3.1171 0,-1.7153 -2.1047,-3.1192 -4.6778,-3.1192 z m 38.3985,0.3418 c -0.7385,-0.035 -1.6442,0.018 -2.7227,0.1758 -3.9157,0.5731 -7.659,2.686 -8.3203,4.6953 -0.766,2.3281 1.1419,3.0382 5.2617,1.9609 8.0036,-2.093 10.9502,-6.5871 5.7813,-6.832 z m 47.3672,9.0137 c -1.7153,0 -3.1172,1.4038 -3.1172,3.1191 0,1.7154 1.4019,3.1191 3.1172,3.1192 1.7151,0 3.1191,-1.4038 3.1191,-3.1192 0,-1.7153 -1.4039,-3.1192 -3.1191,-3.1191 z m -76.0215,0.3555 c -4.0317,0.108 -9.5852,2.2073 -10.5391,5.1035 -0.7062,2.1443 0.1221,3.8984 1.8399,3.8984 5.7882,0 12.9883,-3.7644 12.9883,-6.7891 0,-1.6262 -1.8701,-2.2775 -4.2891,-2.2128 z m 45.0176,2.7636 c -3.532,0 -6.42,1.4039 -6.42,3.1192 0,1.7155 2.0205,3.1191 4.4922,3.1191 2.4718,0 5.3616,-1.4036 6.4219,-3.1191 1.06,-1.7153 -0.9623,-3.1192 -4.4941,-3.1192 z m -85.4121,4.3848 c -1.0306,0.01 -2.2666,0.7002 -3.9336,2.084 -2.4204,2.0087 -4.4004,4.8837 -4.4004,6.3886 0,3.454 3.4429,3.4229 8.9765,-0.082 2.3639,-1.4972 3.2907,-4.3515 2.0606,-6.3418 -0.8475,-1.3702 -1.6724,-2.0542 -2.7031,-2.0488 z m 188.246,14.3281 c -4.176,0 -5.5649,1.4957 -4.3437,4.6778 0.9874,2.573 3.7491,4.6777 6.1387,4.6777 2.3894,0 4.3457,-2.1047 4.3457,-4.6777 0,-2.5741 -2.7622,-4.6778 -6.1407,-4.6778 z m -84.5644,3.5039 c -1.0835,-0.045 -2.3177,0.1531 -3.4434,0.6035 -2.4879,0.9955 -1.7486,1.7351 1.8848,1.8848 3.2875,0.1352 5.1283,-0.6026 4.0918,-1.6387 -0.5182,-0.5185 -1.4498,-0.805 -2.5332,-0.8496 z m 65.8516,5.8516 c -7.7035,0 -7.9687,2.3833 -1.1075,9.9648 3.3267,3.6756 6.3134,4.6932 8.211,2.795 4.569,-4.5689 0.01,-12.7598 -7.1035,-12.7598 z m -166.9532,3.1191 c -2.573,0 -4.6777,1.4037 -4.6777,3.1192 0,1.7153 2.1047,3.1191 4.6777,3.1191 2.573,0 4.6797,-1.4038 4.6797,-3.1191 0,-1.7152 -2.1067,-3.1192 -4.6797,-3.1192 z m 63.9356,6.2383 c -1.7155,0 -3.1192,1.4041 -3.1192,3.1192 0,1.7156 1.4037,3.1191 3.1192,3.1191 1.7153,0 3.1191,-1.4034 3.1191,-3.1191 0,-1.7151 -1.4038,-3.1192 -3.1191,-3.1192 z m -54.3946,18.7129 c -0.7564,0 -2.2427,1.4023 -3.3027,3.1172 -1.0601,1.7157 -0.4415,3.1191 1.375,3.1191 1.8166,0 3.3027,-1.4034 3.3027,-3.1191 0,-1.715 -0.6185,-3.1172 -1.375,-3.1172 z m 193.252,32.3047 c -3.3141,0.1047 -5.695,7.5122 -3.5449,13.1152 2.398,6.2492 8.1523,2.807 8.1523,-4.8769 0,-3.2278 -1.4132,-6.7426 -3.1406,-7.8106 -0.5011,-0.3097 -0.9934,-0.4426 -1.4668,-0.4277 z m -335.3398,17.5957 c -1.7155,0 -3.1192,2.1049 -3.1192,4.6777 0,2.5731 1.4037,4.6778 3.1192,4.6778 1.7152,0 3.1191,-2.1047 3.1191,-4.6778 0,-2.5728 -1.4039,-4.6777 -3.1191,-4.6777 z m 143.4628,3.1191 c -1.7152,0 -3.1171,1.404 -3.1171,3.1192 0,1.7153 1.4018,3.1172 3.1171,3.1172 1.7153,0 3.1192,-1.4019 3.1192,-3.1172 0,-1.7152 -1.4039,-3.1192 -3.1192,-3.1192 z m 164.0196,13.6094 c -2.4989,-0.01 -4.8654,2.7331 -3.2676,5.3184 0.9869,1.5969 3.1144,2.9023 4.7285,2.9023 3.3529,0 3.9046,-4.2266 0.9395,-7.1914 -0.7201,-0.7201 -1.5675,-1.0271 -2.4004,-1.0293 z m 30.9043,11.3398 c -4.8699,0 -6.1862,3.6891 -2.5977,7.2774 3.5885,3.5889 7.2774,2.271 7.2774,-2.5996 0,-2.5728 -2.1066,-4.6778 -4.6797,-4.6778 z m -344.625,12.4766 c -1.7152,0 -3.1192,2.1047 -3.1192,4.6777 0,2.5729 1.404,4.6778 3.1192,4.6778 1.7153,0 3.1191,-2.1049 3.1191,-4.6778 0,-2.573 -1.4038,-4.6777 -3.1191,-4.6777 z m 323.875,3.1172 c -4.9488,0 -6.8445,9.8767 -2.4199,12.6113 6.288,3.8864 13.368,-2.8334 8.7929,-8.3457 -1.9463,-2.3454 -4.814,-4.2656 -6.373,-4.2656 z m -205.5879,0.7656 c -1.6072,0.072 -2.8926,1.2425 -2.8926,3.6524 0,2.7157 2.2236,4.9394 4.9395,4.9394 2.7162,0 4.3822,-1.6661 3.7031,-3.7031 -1.0843,-3.2528 -3.6836,-4.9807 -5.75,-4.8887 z m -96.8945,5.9512 c -1.524,-0.021 -2.6797,1.6975 -2.6797,4.1992 0,2.8588 1.5096,4.695 3.3535,4.0801 1.8442,-0.6143 3.3515,-2.4507 3.3515,-4.0801 0,-1.6297 -1.5073,-3.466 -3.3515,-4.0801 -0.2305,-0.077 -0.456,-0.1161 -0.6738,-0.1191 z m 39.4238,5.7578 c -4.6976,0 -6.4108,6.5851 -2.6836,10.3125 2.9108,2.9107 7.3613,-0.6063 7.3613,-5.8164 0,-2.4719 -2.1047,-4.4961 -4.6777,-4.4961 z m -92.0039,6.2383 c -1.7155,0 -3.1192,1.4041 -3.1192,3.1191 0,1.7157 1.4037,3.1192 3.1192,3.1192 1.7152,0 3.1191,-1.4035 3.1191,-3.1192 0,-1.715 -1.4039,-3.1191 -3.1191,-3.1191 z m 23.4238,8.5566 c -1.7184,0.1287 -3.4548,1.9273 -4.1602,5.3145 -0.5882,2.8256 1.1307,4.8418 4.127,4.8418 3.2123,0 4.7415,-2.0431 4.084,-5.457 -0.633,-3.2867 -2.3325,-4.828 -4.0508,-4.6993 z m 27.7031,3.918 c -4.4806,0 -5.9447,6.7176 -2.2656,10.3965 2.2714,2.2715 10.3945,2.8773 10.3945,0.7754 0,-4.9802 -4.504,-11.1719 -8.1289,-11.1719 z m 288.8203,6.2383 c -1.7153,0 -3.1191,2.1875 -3.1191,4.8613 0,2.676 1.4038,3.9957 3.1191,2.9356 1.7152,-1.0598 3.1192,-3.2477 3.1192,-4.8614 0,-1.6145 -1.404,-2.9355 -3.1192,-2.9355 z m 24.7129,15.9746 c -0.1504,-0.014 -0.2977,-0.012 -0.4394,0.01 -1.8904,0.2323 -2.9439,3.1616 -1.3653,7.2753 1.0157,2.6469 3.2932,4.8125 5.0625,4.8125 3.9613,0 4.0389,-3.2287 0.2207,-9.2656 -1.179,-1.8645 -2.4254,-2.7333 -3.4785,-2.8281 z m -86.7011,0.4316 c -0.1396,-0.01 -0.2778,-8e-4 -0.4141,0.01 -1.6964,0.1656 -3.0918,1.8308 -3.0918,5.1562 0,3.8307 2.013,6.4961 4.9063,6.4961 2.9041,0 4.4952,-2.1219 3.8984,-5.1992 -0.8004,-4.1261 -3.2043,-6.3734 -5.2988,-6.4629 z m 38.7812,9.7793 c -1.7227,-0.1047 -2.2374,2.337 -0.5918,6.625 1.0575,2.7535 3.4042,4.0956 5.2149,2.9766 2.261,-1.3977 2.1292,-3.4377 -0.4219,-6.5117 -1.6995,-2.0478 -3.1676,-3.0271 -4.2012,-3.0899 z m 57.5137,23.7149 c -1.7156,0 -3.1192,2.1049 -3.1192,4.6777 0,2.5732 1.4036,4.6797 3.1192,4.6797 1.7152,0 3.1191,-2.1065 3.1191,-4.6797 0,-2.5728 -1.4039,-4.6777 -3.1191,-4.6777 z" fill="#00B894" transform="translate(-205.98886,-115.66133) matrix(0.26458333,0,0,0.26458333,-1058.2391,-1266.5743)"/>
</svg>