<?xml version="1.0" ?><svg height="105.52883mm" viewBox="0 0 107.21789 105.52883" width="107.21789mm" xmlns="http://www.w3.org/2000/svg">
    <path d="m 34980.602,11730.416 c 1.163,-21.943 1.618,-46.589 38.118,-51.139 36.501,-4.55 278.356,5.55 300.701,3.731 22.345,-1.82 53.79,6.096 57.734,36.671 3.943,30.574 2.648,281.006 4.569,297.476 1.921,16.47 5.359,62.059 -32.355,59.693 -37.714,-2.366 -305.857,-2.093 -335.28,-2.548 -29.423,-0.455 -35.793,-9.555 -36.4,-44.861 -0.607,-35.306 0.841,-259.954 2.913,-299.023 z" fill="#FFFFFF" paint-order="markers stroke fill" transform="translate(98.258572,26.452995) matrix(0.26458333,0,0,0.26458333,-9352.7351,-3116.2803)"/>
    <path d="m 35181.072,12058.09 c -1.063,-1.06 -1.932,-6.044 -1.932,-11.072 0,-11.741 -5.701,-11.958 -7.047,-0.269 -0.607,5.285 -2.98,8.877 -5.863,8.877 -3.161,0 -4.798,-3.081 -4.713,-8.877 0.1,-5.989 -1.53,-8.877 -4.97,-8.877 -3.425,0 -5.054,2.881 -4.967,8.788 0.07,5.851 -1.762,9.167 -5.522,9.92 -4.401,0.881 -5.65,-1.06 -5.65,-8.787 0,-7.662 -1.423,-9.921 -6.255,-9.921 -4.8,0 -6.115,2.036 -5.648,8.751 0.419,6.047 -1.137,9.11 -5.042,9.918 -4.561,0.947 -5.648,-1.096 -5.648,-10.598 0,-9.487 -1.096,-11.554 -5.647,-10.649 -3.767,0.751 -5.311,3.527 -4.636,8.33 0.625,4.428 -1.055,7.998 -4.36,9.267 -6.473,2.483 -11.738,-4.672 -9.274,-12.598 1.288,-4.134 -0.05,-5.647 -4.974,-5.647 -5.64,0 -6.393,1.362 -4.631,8.387 1.767,7.04 1.128,8.187 -3.972,7.132 -4.06,-0.842 -5.822,-3.626 -5.309,-8.39 0.702,-6.51 -1.753,-8.463 -7.945,-6.323 -1.285,0.445 -1.891,4.205 -1.346,8.359 0.767,5.855 -0.339,7.279 -4.929,6.339 -4.292,-0.878 -5.662,-3.614 -4.986,-9.971 0.801,-7.557 -0.245,-8.76 -7.614,-8.76 -7.538,0 -8.298,0.961 -6.477,8.216 1.135,4.519 1.161,9.673 0.07,11.455 -3.186,5.156 -11.109,-3.319 -11.109,-11.886 0,-8.035 -8.264,-14.241 -18.961,-14.241 -10.886,0 -11.32,-6.551 -0.7,-10.56 12.138,-4.582 12.941,-8.806 1.673,-8.806 -10.593,0 -9.652,-10.799 1.077,-12.329 8.741,-1.247 9.702,-7.037 1.169,-7.037 -3.333,0 -7.855,-2.162 -10.046,-4.803 -4.142,-4.989 -4.476,-4.704 11.264,-9.62 8.569,-2.677 5.156,-8.17 -5.079,-8.17 -14.251,0 -11.871,-10.903 2.685,-12.31 13.241,-1.28 13.507,-5.642 0.503,-8.242 -13.873,-2.774 -10.39,-9.163 7.797,-14.3 11.102,-3.134 15.074,-5.858 15.074,-10.334 0,-9.901 5.333,-10.259 11.581,-0.782 l 5.829,8.848 1.874,-7.828 c 2.658,-11.114 8.584,-11.785 13.929,-1.581 l 4.583,8.743 2.362,-9.351 c 2.994,-14.418 12.313,-10.768 13.848,-0.348 1.91,12.964 8.885,9.634 11.04,-2.278 1.719,-9.487 8.7,-9.802 11.036,-0.497 2.474,9.863 9.615,10.959 12,1.845 2.909,-11.128 14.171,-7.451 12.358,4.033 -0.218,1.331 0.9,2.421 2.469,2.421 3.396,0 5.904,-11.266 6.787,-22.898 0.636,-8.372 -2.91,-8.619 -42.279,-11.913 l -42.327,-3.541 -7.988,9.494 c -9.56,11.361 -23.624,12.648 -33.235,3.038 -9,-9 -8.058,-18.262 2.98,-29.298 11.307,-11.308 20.601,-11.973 30.38,-2.172 7.03,7.042 8.41,7.183 45.849,4.668 61.42,-4.125 66.036,-1.797 66.036,33.314 0,14.437 1.099,19.482 4.035,18.511 2.857,-0.944 4.534,-14.452 5.75,-46.263 0.941,-24.711 1.149,-46.744 0.459,-48.962 -0.907,-2.924 -11.571,-4.035 -38.744,-4.035 -34.851,0 -36.986,0.353 -30.317,5.023 10.111,7.083 9.644,22.259 -0.896,29.163 -7.475,4.899 -8.663,4.899 -16.136,0 -9.468,-6.2 -9.814,-9.891 -2.92,-30.971 6.408,-19.591 10.647,-20.819 61.034,-17.669 27.716,1.731 37.142,3.449 38.515,7.025 0.997,2.602 2.754,28.214 3.907,56.916 1.583,39.517 3.185,52.831 6.596,54.845 2.68,1.583 3.704,5.178 2.53,8.877 -1.269,3.996 -0.455,6.197 2.28,6.165 11.746,-0.145 13.106,-5.185 15.762,-58.446 2.304,-46.215 1.992,-53.482 -2.518,-58.466 -4.728,-5.222 -4.672,-6.219 0.692,-12.145 8.405,-9.288 20.257,-8.344 24.966,1.992 3.316,7.275 2.97,9.182 -2.489,13.719 -5.892,4.897 -6.277,8.93 -5.454,57.304 0.491,28.957 -0.535,55.764 -2.314,60.443 -2.414,6.347 -6.786,9.315 -17.829,12.097 -9.167,2.307 -14.633,5.48 -14.633,8.494 0,3.941 4.342,4.592 23.989,3.6 13.196,-0.666 25.178,-2.397 26.628,-3.844 1.453,-1.448 3.135,-16.125 3.743,-32.618 0.84,-22.796 -0.121,-32.365 -4.033,-39.92 -6.725,-13.004 -6.485,-17.279 1.44,-25.788 7.405,-7.945 15.532,-9.01 23.14,-3.029 9.448,7.427 9.816,17.108 1.044,27.534 -7.747,9.206 -8.171,11.711 -8.171,48.386 0,28.138 -1.161,39.644 -4.267,42.22 -2.348,1.949 -17.236,3.968 -33.085,4.486 -26.705,0.871 -28.731,1.408 -27.7,7.342 0.612,3.519 1.36,6.664 1.66,6.984 1.136,1.215 66.949,-5.246 69.498,-6.822 2.336,-1.445 5.739,-34.053 7.77,-74.453 0.603,-11.973 1.392,-12.984 10.862,-13.902 12.786,-1.239 17.795,9.194 9.054,18.855 -4.592,5.072 -5.43,12.092 -4.963,41.555 0.777,48.749 0.823,48.708 -53.036,48.708 -36.773,0 -40.344,0.515 -40.344,5.838 0,3.21 -2.133,8.657 -4.74,12.104 -2.607,3.445 -4.786,10.104 -4.841,14.796 -0.1,8.071 -6.902,14.256 -11.085,10.075 z m 1.297,-75.275 c 0,-19.426 0.364,-36.408 0.807,-37.739 0.443,-1.332 -25.338,-3.372 -57.292,-4.534 -31.954,-1.162 -64.806,-3.002 -73.005,-4.091 l -14.909,-1.976 0.385,41.209 0.382,41.205 71.816,0.623 71.816,0.619 z m -143.632,-103.325 c 0,-2.491 -2.542,-5.018 -5.648,-5.616 -5.562,-1.072 -7.862,5.776 -3.43,10.211 3.384,3.384 9.078,0.501 9.078,-4.595 z m 59.712,-38.506 c 0,-1.777 -1.452,-3.23 -3.226,-3.23 -1.777,0 -3.23,1.453 -3.23,3.23 0,1.774 1.453,3.226 3.23,3.226 1.774,0 3.226,-1.452 3.226,-3.226 z m 206.57,189.036 c 0,-2.545 2.905,-5.549 6.456,-6.674 4.701,-1.492 6.456,-4.883 6.456,-12.484 0,-5.737 -1.438,-11.872 -3.198,-13.629 -9.833,-9.833 -7.172,-65.188 3.653,-76.014 4.304,-4.304 6.057,-9.731 5.384,-16.681 -0.852,-8.783 -2.423,-10.453 -10.68,-11.353 -5.326,-0.581 -11.136,-2.494 -12.913,-4.254 -4.773,-4.727 7.304,-12.445 19.485,-12.445 14.215,0 20.862,8.567 20.862,26.883 0,10.997 1.828,16.906 6.756,21.835 6.093,6.09 6.648,9.772 5.648,37.405 -0.981,27.163 -1.934,31.32 -8.369,36.529 -4.631,3.745 -7.262,9.41 -7.262,15.619 0,5.357 -2.283,12.024 -5.071,14.812 -6.532,6.531 -27.207,6.873 -27.207,0.451 z m 31.956,-78.299 c 0.31,-19.33 -3.42,-27.597 -9.644,-21.373 -4.955,4.955 -4.338,49.792 0.729,52.949 5.821,3.626 8.501,-5.866 8.915,-31.576 z m -41.978,-95.765 c -8.942,-4.44 -11.741,-16.265 -5.599,-23.665 4.456,-5.369 -2.535,-12.823 -57.086,-60.851 -19.036,-20.975 -42.716,-17.48 -71.383,-17.918 -51.597,-0.789 -51.644,-1.036 -78.185,21.523 -20.412,17.349 -26.253,24.183 -26.253,30.717 0,17.383 -22.683,25.451 -35.505,12.626 -7.207,-7.206 -8.074,-13.539 -3.113,-22.805 2.561,-4.786 6.812,-6.244 18.235,-6.244 14.396,0 15.72,-0.859 39.427,-25.594 26.734,-26.159 25.802,-26.885 56.369,-27.848 17.512,-1.237 42.869,-1.252 56.348,-0.02 22.382,2.029 26.338,3.527 45.624,17.285 27.448,19.581 71.143,58.126 73.496,64.834 1.009,2.886 4.798,8.533 8.419,12.554 12.842,14.266 -3.362,34.075 -20.794,25.418 z m 10.022,-14.972 c 0,-1.777 -1.453,-3.23 -3.227,-3.23 -1.774,0 -3.227,1.453 -3.227,3.23 0,1.774 1.453,3.226 3.227,3.226 1.774,0 3.227,-1.452 3.227,-3.226 z m -266.282,-35.731 c 0,-2.491 -2.542,-5.018 -5.648,-5.616 -5.562,-1.07 -7.862,5.779 -3.43,10.213 3.384,3.382 9.078,0.499 9.078,-4.597 z m 80.468,-13.65 c -6.243,-3.493 -5.856,-19.809 0.598,-25.166 3.706,-3.075 16.41,-4.36 43.83,-4.43 34.563,-0.1 39.095,0.554 43.2,6.163 5.641,7.708 5.767,11.959 0.55,18.686 -3.234,4.171 -11.92,5.415 -43.796,6.267 -21.869,0.586 -41.84,-0.1 -44.382,-1.52 z m 56.234,-10.792 c 10.913,-1.14 19.835,-2.956 19.828,-4.035 0,-1.077 -15.255,-2.031 -33.89,-2.118 -18.633,-0.1 -33.879,0.76 -33.879,1.883 0,6.822 12.702,7.955 47.941,4.27 z m 153.596,3.847 c -2.852,-4.353 -4.306,-10.683 -3.232,-14.067 1.496,-4.711 -2.796,-10.252 -18.291,-23.61 -11.133,-9.598 -22.498,-19.184 -25.253,-21.3 -3.101,-2.384 -22.767,-4.437 -51.642,-5.388 -25.65,-0.845 -64.065,-2.506 -85.367,-3.685 0,0 -24.16,-1.337 -36.24,-2.005 -6.545,-0.363 -18.059,10.681 -25.891,18.536 -11.628,11.662 -23.401,20.39 -23.401,22.479 0,2.092 -3.012,7.631 -6.689,12.308 -12.399,15.763 -35.27,8.741 -35.27,-10.828 0,-7.057 2.677,-10.845 11.532,-16.319 9.824,-6.071 12.779,-6.562 19.913,-3.311 7.882,3.59 9.07,1.997 29.618,-17.091 8.544,-7.937 17.928,-21.22 25.85,-21.036 l 164.42,3.501 c 8.9,-0.629 11.041,0.521 17.898,5.318 10.282,7.192 36.502,29.097 45.257,37.25 8.754,8.153 18.553,15.66 21.773,16.682 3.219,1.021 6.756,5.451 7.86,9.842 4.558,18.163 -22.431,28.618 -32.845,12.724 z m 16.33,-11.455 c -1.096,-1.777 -3.362,-3.23 -5.032,-3.23 -1.671,0 -3.036,1.453 -3.036,3.23 0,1.774 2.263,3.227 5.03,3.227 2.77,0 4.135,-1.453 3.038,-3.227 z m -305.013,-19.557 c 0,-1.671 -3.082,-3.038 -6.851,-3.038 -5.701,0 -6.18,0.808 -2.861,4.807 4.03,4.856 9.712,3.822 9.712,-1.769 z" fill="#00B894" transform="translate(98.258572,26.452995) matrix(0.26458333,0,0,0.26458333,-9352.7351,-3116.2803)"/>
</svg>