<?xml version="1.0" ?><svg height="176.39478mm" viewBox="0 0 287.59674 176.39478" width="287.59674mm" xmlns="http://www.w3.org/2000/svg">
    <path d="m 34470.781,12874.237 c -23.865,0.218 -111.911,35.245 -119.735,44.811 -19.261,23.545 -26.786,77.129 -12.983,114.686 13.803,37.556 67.253,57.201 114.762,70.346 0,0 122.87,-25.93 105.934,-115.384 -9.791,-51.718 -53.1,-114.778 -87.978,-114.459 z m -916.034,152.454 6.164,180.029 c 0,0 12.758,7.748 23.223,7.678 10.464,-0.06 370.982,1.871 370.982,1.871 l -1.793,-175.129 z m 942.806,121.442 c -10.019,-0.24 -20.934,1.412 -32.851,4.771 -47.669,13.434 -61.472,33.079 -64.361,87.969 -2.889,54.891 17.334,143.727 40.287,211.906 110.748,3.034 192.605,-24.845 186.345,-54.746 -6.26,-29.901 -38.039,-138.671 -60.509,-191.684 -16.854,-39.759 -38.853,-57.499 -68.911,-58.216 z m -366.701,107.617 c -112.673,-0.348 -167.246,1.3 -167.246,1.3 l -145.982,141.422 c -1.527,17.196 375.666,30.762 375.666,30.762 l 166.441,-147.771 c 0,0 -116.206,-25.365 -228.879,-25.713 z" fill="#FFFFFF" paint-order="markers stroke fill" transform="translate(12.241337,-138.63882) matrix(0.26458333,0,0,0.26458333,-8887.3473,-3244.4075)"/>
    <path d="m 33816.278,13410.886 c -4.436,-2.308 -6.4,-6.497 -6.115,-13.038 0.341,-7.737 6.681,-15.798 32.151,-40.846 32.719,-32.183 105.981,-95.785 118.712,-103.063 8.222,-4.7 116.009,-5.596 174.51,-1.451 l 35.503,2.513 10.501,-20.03 c 8.331,-15.891 9.883,-21.418 7.506,-26.752 -1.648,-3.697 -2.781,-9.716 -2.517,-13.373 0.373,-5.172 2.53,-6.502 9.691,-5.985 8.006,0.578 9.091,-0.367 8.286,-7.224 -0.745,-6.34 0.577,-7.992 6.721,-8.415 6.195,-0.424 7.589,-2.216 7.356,-9.444 -0.197,-6.092 1.207,-8.813 4.422,-8.581 4.496,0.325 28.463,-33.188 25.873,-36.181 -0.683,-0.792 -12.699,-2.314 -26.701,-3.388 -51.321,-3.923 -81.635,18.623 -98.551,73.318 -12.132,39.229 -19.411,44.809 -58.269,44.684 -30.694,-0.102 -52.36,-8.41 -75.003,-28.769 -9.764,-8.78 -19.028,-16.053 -20.585,-16.165 -1.557,-0.113 -3.23,5.313 -3.717,12.056 -1.314,18.196 -6.424,21.746 -32.16,22.345 -17.034,0.396 -23.67,1.971 -27.348,6.491 -6.221,7.646 -18.941,6.736 -26.401,-1.886 -4.102,-4.741 -8.97,-6.56 -16.542,-6.187 -5.902,0.293 -33.303,0.55 -60.892,0.572 -27.591,0.03 -68.41,0.781 -90.712,1.683 -22.3,0.899 -50.49,0.918 -62.639,0.04 -19.732,-1.425 -22.831,-0.782 -29.004,5.998 -8.871,9.743 -27.166,9.332 -32.48,-0.728 -2.153,-4.073 -7.044,-6.98 -12.39,-7.366 -5.1,-0.368 -12.732,-4.682 -18.057,-10.202 -9.169,-9.511 -9.226,-9.865 -9.93,-63.013 -0.393,-29.395 -1.692,-61.899 -2.892,-72.233 -1.198,-10.333 -1.194,-26.34 0,-35.57 2.777,-21.298 6.867,-23.109 54.607,-24.188 91.409,-2.063 328.6,6.823 347.414,13.016 12.963,4.266 17.96,26.926 19.019,86.23 0.384,21.482 1.462,42.89 2.398,47.573 2.214,11.06 42.455,42.642 62.956,49.408 20.589,6.795 58.145,6.588 67.043,-0.366 3.766,-2.944 9.757,-13.263 13.311,-22.926 14.825,-40.318 37.136,-66.189 67.766,-78.579 16.908,-6.84 22.495,-7.408 53.74,-5.443 33.329,2.095 35.07,2.552 39.333,10.202 4.1,7.364 3.803,9.464 -3.667,25.951 -4.469,9.866 -6.81,18.494 -5.202,19.176 1.609,0.68 7.47,4.791 13.027,9.135 14.745,11.522 14.081,23.509 -2.327,42.059 l -12.946,14.638 4.407,19.53 4.408,19.531 49.714,3.142 c 31.186,1.97 50.891,4.499 52.869,6.785 3.71,4.287 -6.347,18.336 -31.008,43.313 -8.926,9.038 -16.325,17.795 -16.445,19.461 -0.457,6.324 24.574,0.464 42.171,-9.872 l 18.314,-10.756 -1.055,-16.414 c -4.092,-63.712 -0.591,-92.642 14.189,-117.251 7.021,-11.689 13.546,-16.589 40.154,-30.167 27.169,-13.863 34.824,-16.291 52.845,-16.764 54.593,-1.433 79.862,25.819 107.785,116.235 31.771,102.87 38.925,148.981 23.29,150.077 -10.828,0.761 -15.197,-8.914 -29.156,-64.542 -18.946,-75.511 -37.496,-134.174 -47.56,-150.412 -14.282,-23.042 -24.169,-28.387 -54.327,-29.365 -22.74,-0.739 -28.201,0.343 -45.66,9.036 -28.889,14.387 -34.646,25.056 -36.965,68.493 -0.996,18.651 -0.746,37.582 0.556,42.071 2.295,7.916 2.739,7.656 14.848,-8.7 11.118,-15.014 25.389,-42.89 35.933,-70.178 2.352,-6.089 6.146,-9.628 10.682,-9.966 24.902,-1.85 3.891,61.763 -37.899,114.736 -7.948,10.074 -14.443,20.608 -14.434,23.412 0.02,2.803 4.53,23.543 10.051,46.088 15.791,64.507 15.523,79.956 -1.329,76.763 -7.963,-1.509 -9.291,-4.757 -20.862,-51.044 -6.797,-27.188 -12.853,-50.146 -13.462,-51.015 -0.607,-0.871 -3.697,-0.02 -6.865,1.898 -25.499,15.413 -52.06,20.808 -72.328,14.692 -15.593,-4.705 -10.664,-7.538 -74.741,42.972 -28.19,29.195 -42.805,26.984 -80.641,22.939 -41.997,-4.488 -183.585,-12.071 -290.552,-15.559 -24.86,-0.811 -48.14,-3.004 -51.735,-4.873 z m 63.149,-14.904 c 21.217,-0.204 59.196,-0.542 84.397,-0.754 39.293,-0.331 198.642,9.531 223.888,13.855 6.853,1.174 15.989,-4.649 48.338,-30.814 21.937,-17.743 39.998,-33.8 40.134,-35.681 0.135,-1.881 -1.949,-6.227 -4.633,-9.659 -4.08,-5.222 -5.511,-5.556 -8.75,-2.054 -3.145,3.402 -7.575,3.268 -23.59,-0.705 -14.916,-3.701 -21.884,-4.087 -28.619,-1.586 -12.173,4.52 -9.536,6.118 13.728,8.328 21.029,1.997 26.438,5.671 18.483,12.555 -4.131,3.575 -7.99,3.27 -26.876,-2.135 -19.326,-5.521 -22.982,-5.782 -29.572,-2.114 -4.134,2.303 -9.388,4.156 -11.673,4.12 -4.411,-0.07 -25.146,19.931 -23.104,22.289 3.223,3.726 38.121,5.14 42.881,1.739 4.378,-3.131 5.565,-2.789 7.022,2.017 0.964,3.183 0.07,8.014 -1.982,10.739 -3.989,5.293 -23.164,4.717 -50.986,-1.532 -17.38,-3.902 -18.28,-10.496 -3.142,-23.041 11.02,-9.129 13.203,-13.695 6.671,-13.943 -3.79,-0.152 -31.517,28.461 -32.78,33.819 -0.315,1.358 -0.856,3.734 -1.191,5.283 -1.084,5.021 -13.275,5.325 -18.895,0.471 -5.042,-4.353 -3.714,-6.135 16.856,-22.653 21.955,-17.633 22.167,-17.946 12.673,-18.662 -7.801,-0.584 -12.67,2.437 -25.352,15.765 -16.693,17.547 -28.091,24.515 -33.59,20.543 -5.189,-3.748 -3.355,-11.734 3.091,-13.477 7.161,-1.938 31.496,-21.648 31.792,-25.752 0.128,-1.773 -11.839,-3.195 -29.036,-3.456 -25.824,-0.391 -29.087,-1.046 -27.843,-5.606 0.966,-3.535 4.951,-4.972 12.625,-4.56 25.697,1.385 30.036,-0.3 9.918,-3.849 -11.422,-2.013 -22.612,-2.474 -24.864,-1.021 -4.98,3.213 -10.632,-0.362 -10.193,-6.446 0.424,-5.865 6.103,-8.646 10.767,-5.276 2.043,1.477 10.332,2.653 18.417,2.616 8.084,-0.04 20.055,0.159 26.598,0.432 24.093,1.016 16.068,-3.913 -9.364,-5.749 -24.144,-1.743 -26.251,-2.423 -25.824,-8.337 0.31,-4.29 2.609,-6.281 6.902,-5.971 3.542,0.255 6.334,1.92 6.206,3.702 -0.19,2.631 47.451,5.85 54.746,3.699 0.908,-0.269 13.395,0.691 27.744,2.124 18.679,1.873 27.198,1.456 29.992,-1.461 2.141,-2.241 8.009,-8.509 13.036,-13.929 8.741,-9.429 10.116,-9.789 31.655,-8.234 31.057,2.242 28.889,-5.14 -3.15,-10.725 -23.357,-4.069 -23.668,-4.023 -33.02,4.84 -5.192,4.921 -10.529,11.674 -11.856,15.012 -3.678,9.22 -11.982,14.21 -15.972,9.597 -2.397,-2.77 -2.023,-6.333 1.377,-13.116 2.568,-5.122 3.877,-12.618 2.908,-16.658 l -1.758,-7.342 -74.625,-3.257 c -91.686,-4.001 -125.963,-3.874 -127.974,0.476 -0.848,1.836 -20.271,20.251 -43.16,40.925 -38.36,34.644 -92.846,90.479 -93.21,95.518 -0.08,1.176 3.289,1.531 7.502,0.792 4.212,-0.74 25.018,-1.509 46.238,-1.713 z m -22.222,-16.473 c -0.933,-3.076 3.009,-9.073 10.113,-15.379 13.821,-12.276 40.53,-18.112 51.414,-11.238 3.57,2.255 10.029,4.358 14.356,4.67 10.241,0.739 15.311,8.163 13.201,19.336 -1.98,10.491 -12.249,13.437 -14.806,4.249 -3.507,-12.608 -6.298,-14.09 -17.557,-9.317 -6.009,2.547 -18.468,4.009 -28.384,3.332 -14.196,-0.974 -17.964,-0.119 -19.156,4.316 -1.829,6.814 -7.118,6.834 -9.181,0.03 z m 105.641,-8.562 c -4.125,-11.11 -0.871,-13.521 24.326,-18.014 15.856,-2.829 22.33,-2.716 28.201,0.486 4.191,2.288 10.949,4.4 15.017,4.694 9.076,0.655 18.738,12.255 15.665,18.81 -3.23,6.892 -10.648,5.364 -15.477,-3.188 l -4.147,-7.343 -7.513,6.501 c -9.009,7.796 -25.563,7.462 -35.611,-0.714 -6.596,-5.366 -7.128,-5.313 -9.257,0.948 -3.029,8.904 -7.406,8.052 -11.204,-2.18 z m -37.591,-22.513 c -4.601,-5.318 -1.072,-14.167 5.461,-13.695 5.008,0.361 6.281,2.199 5.129,7.396 -1.591,7.183 -7.028,10.415 -10.59,6.299 z m 26.93,-0.425 c 0.565,-7.83 9.163,-11.789 13.233,-6.093 1.97,2.754 2.538,6.454 1.263,8.219 -3.411,4.725 -14.87,3.044 -14.496,-2.126 z m -49.555,-5.222 c -2.584,-4.949 8.361,-11.066 12.089,-6.759 1.759,2.032 2.11,5.199 0.783,7.037 -2.912,4.032 -10.708,3.863 -12.872,-0.278 z m 46.072,-13.778 c -8.732,-2.296 -20.587,-4.481 -26.347,-4.856 -11.577,-0.765 -13.006,-4.047 -4.402,-10.167 4.421,-3.142 5.905,-3.122 6.736,0.09 0.781,3.032 12.784,4.969 45.329,7.318 24.345,1.757 45.068,4.122 46.049,5.258 0.984,1.135 0.859,4.038 -0.271,6.451 -2.407,5.134 -40.939,2.783 -67.092,-4.095 z m 59.117,-14.445 c -1.568,-1.813 -19.121,-4.756 -39.008,-6.544 -27.389,-2.46 -36.083,-4.272 -35.852,-7.476 0.344,-4.764 11.849,-10.897 14.563,-7.762 2.515,2.908 61.733,6.825 66.392,4.392 6.103,-3.189 13.019,1.598 12.51,8.661 -0.255,3.534 -3.375,7.724 -6.932,9.309 -7.906,3.524 -8.132,3.512 -11.673,-0.58 z m 63.328,-23.076 c -1.73,-0.726 -8.51,-2.623 -15.069,-4.214 -13.17,-3.19 -14.334,-7.337 -4.828,-17.182 6.876,-7.117 33.269,-10.974 40.243,-5.879 2.231,1.632 5.495,3.254 7.249,3.602 1.756,0.345 4.987,0.983 7.18,1.411 2.193,0.43 3.871,2.41 3.727,4.405 -0.166,2.305 -3.716,2.665 -9.779,0.991 -5.369,-1.483 -9.618,-1.26 -9.745,0.509 -0.125,1.727 1.946,3.298 4.601,3.49 2.656,0.191 4.725,1.794 4.597,3.567 -0.127,1.77 -1.634,3.117 -3.352,2.993 -1.713,-0.123 -2.441,2.009 -1.611,4.739 1.16,3.83 -0.958,4.726 -9.285,3.928 -5.934,-0.573 -12.202,-1.631 -13.928,-2.36 z m 6.107,-17.366 c 0.128,-1.769 -4.029,-3.526 -9.237,-3.902 -5.206,-0.376 -10.468,0.701 -11.689,2.391 -1.322,1.832 2.416,3.412 9.234,3.904 6.302,0.455 11.564,-0.621 11.692,-2.393 z m -114.655,2.036 c -0.889,-1.7 1.594,-5.598 5.514,-8.664 7.037,-5.502 7.105,-5.475 5.432,2.134 -1.77,8.045 -8.163,11.857 -10.946,6.53 z m 20.837,-2.437 c 0.453,-6.268 8.945,-11.645 12.289,-7.777 2.245,2.591 -5.87,14.815 -9.656,14.541 -1.707,-0.123 -2.892,-3.167 -2.633,-6.764 z m 15.969,2.947 c 0.382,-5.303 16.388,-15.441 19.215,-12.172 2.829,3.268 -9.502,17.653 -14.804,17.27 -2.615,-0.188 -4.6,-2.484 -4.411,-5.098 z m 20.34,0.926 c -1.012,-3.335 0.789,-6.969 4.65,-9.384 8.302,-5.2 12.943,0.201 7.535,8.766 -4.941,7.816 -9.927,8.069 -12.185,0.618 z m 93.726,8.654 c -1.389,-2.656 0.819,-6.366 5.889,-9.897 10.36,-7.22 13.068,-0.343 3.222,8.179 -5.237,4.529 -7.426,4.944 -9.111,1.718 z m 18.746,-3.782 c 0.856,-3.193 4.245,-6.125 7.53,-6.517 4.312,-0.512 5.537,0.904 4.411,5.1 -0.856,3.193 -4.245,6.125 -7.531,6.517 -4.311,0.511 -5.536,-0.905 -4.41,-5.1 z m 53.677,43.319 11.193,-6.481 -19.699,-3.506 c -36.773,-6.548 -42.262,-6.09 -54.149,4.522 l -10.903,9.73 31.185,1.107 c 25.842,0.917 33.101,0 42.373,-5.372 z m 75.583,-7.684 c -2.668,-3.083 -13.499,-6.74 -26.281,-8.87 -21.663,-3.61 -21.729,-3.598 -17.913,3.623 3.326,6.296 6.781,7.463 26.28,8.87 20.083,1.45 21.972,1.067 17.914,-3.623 z m 60.764,-15.074 c 11.903,-10.769 21.013,-20.305 20.244,-21.193 -0.766,-0.885 -16.47,-2.699 -34.897,-4.029 -30.199,-2.18 -33.427,-1.854 -32.75,3.299 0.626,4.773 3.819,5.8 19.342,6.208 17.889,0.474 18.438,0.732 14.553,6.883 -2.221,3.514 -6.464,5.973 -9.43,5.46 -2.965,-0.512 -8.304,-0.927 -11.864,-0.926 -6.076,0 -6.145,0.296 -1.147,4.691 2.928,2.578 5.226,6.044 5.106,7.71 -0.208,2.883 5.701,11.22 8.077,11.391 0.621,0.05 10.866,-8.729 22.766,-19.498 z m -117.494,-1.902 c 3.12,-3.255 10.815,-4.074 27.141,-2.895 27.645,1.996 25.809,-3.563 -2.362,-7.148 -17.347,-2.206 -20.66,-1.612 -30.588,5.6 -9.237,6.699 -10.061,8.151 -4.84,8.528 3.462,0.25 8.253,-1.591 10.649,-4.085 z m 37.432,-46.642 c -2.046,-11.654 -2.928,-12.454 -8.975,-8.13 -2.77,1.982 -7.849,2.479 -11.286,1.109 -4.353,-1.734 -7.425,-0.636 -10.115,3.622 -4.451,7.047 -0.966,9.031 19.564,11.135 11.97,1.228 12.34,0.961 10.812,-7.736 z m -618.955,-48.779 c 27.271,0.161 72.198,-0.273 99.836,-0.965 66.265,-1.663 205.01,0.431 213.2,3.216 5.734,1.953 6.566,0.717 7.416,-11.054 0.935,-12.958 0.71,-13.271 -10.121,-14.053 -6.092,-0.44 -12.078,0.585 -13.299,2.275 -3.468,4.803 -14.748,2.735 -16.492,-3.025 -2.479,-8.179 4.696,-11.805 22.605,-11.418 9.108,0.196 17.329,-0.31 18.269,-1.12 2.555,-2.214 1.496,-90.164 -1.304,-108.115 l -2.431,-15.599 -85.819,-5.254 c -97.966,-5.999 -290.583,-9.095 -295.601,-4.754 -2.169,1.878 -1.515,10.81 1.858,25.306 6.12,26.306 8.331,57.299 7.674,107.525 -5.905,47.944 20.582,36.831 54.209,37.035 z m -39.231,-21.102 c -0.918,-3.023 -1.39,-28.905 -1.052,-57.517 0.337,-28.612 0.302,-57.14 -0.08,-63.397 -0.381,-6.259 0.772,-13.39 2.557,-15.851 4.417,-6.084 37.797,-6.679 107.231,-1.913 73.891,5.072 69.741,1.172 72.468,68.136 1.771,43.487 -0.817,71.128 -7.079,75.606 -6.761,4.832 -83.1,6.634 -133.285,3.147 -33.529,-2.32 -39.336,-3.499 -40.764,-8.211 z m 112.435,-3.192 54.201,0.03 0.656,-9.085 c 0.631,-8.739 0.01,-9.154 -16.204,-10.895 -9.271,-0.995 -21.074,-1.813 -26.225,-1.823 -9.839,0 -20.749,-8.645 -20.217,-16.007 0.506,-7.019 -4.761,-5.331 -9.295,2.977 -4.83,8.849 -18.899,12.547 -25.101,6.598 -2.31,-2.22 -4.84,-7.662 -5.619,-12.095 -1.878,-10.698 -9.425,-10.783 -15.462,-0.173 -4.097,7.2 -7.149,8.521 -19.389,8.39 -10.615,-0.115 -13.164,-0.95 -9.463,-3.061 2.785,-1.598 8.183,-2.701 11.992,-2.453 4.476,0.303 9.573,-3.369 14.391,-10.337 4.103,-5.934 9.685,-10.627 12.398,-10.431 5.517,0.398 17.014,12.399 16.654,17.383 -0.47,6.516 8.439,3.568 16.052,-5.314 8.972,-10.463 18.411,-11.17 24.017,-1.798 2.46,4.114 10.661,8.227 22.61,11.34 29.55,7.698 27.96,8.744 27.305,-17.957 -0.317,-12.927 -1.497,-24.648 -2.624,-26.047 -1.125,-1.399 -6.693,-1.568 -12.368,-0.374 -7.347,1.545 -11.897,0.833 -15.788,-2.465 -4.53,-3.843 -6.62,-3.943 -12.226,-0.593 -8.87,5.306 -10.469,4.999 -17.154,-3.304 l -5.639,-7.001 -5.943,7.784 c -7.73,10.124 -16.681,9.223 -23.989,-2.419 -4.695,-7.476 -6.715,-8.583 -10.222,-5.591 -2.646,2.259 -13.142,3.097 -26.634,2.123 -21.557,-1.556 -22.219,-1.361 -20.727,5.785 0.847,4.065 1.164,25.354 0.706,47.305 l -0.833,39.916 22.968,-0.218 c 12.634,-0.122 47.362,-0.208 77.172,-0.193 z m -21.002,-101.332 c 6.975,-11.395 12.924,-11.398 19.262,-0.01 3.553,6.38 5.948,7.847 9.116,5.58 2.647,-1.891 12.501,-1.704 25.638,0.484 22.663,3.78 22.668,3.777 20.588,-12.733 l -1.227,-9.727 -48.657,-5.289 c -26.764,-2.909 -61.819,-5.29 -77.902,-5.29 h -29.241 l 1.681,13.463 1.683,13.465 15.295,-0.461 c 8.413,-0.254 19.645,-2.171 24.966,-4.26 13.443,-5.282 16.904,-4.474 22.29,5.203 6.114,10.985 9.577,10.895 16.508,-0.426 z m 118.258,104.02 c -0.905,-2.985 0.01,-6.86 2.032,-8.61 5.26,-4.552 14.23,0.603 12.467,7.162 -1.961,7.307 -12.405,8.352 -14.499,1.448 z m 42.001,-0.475 c -0.873,-2.871 0.957,-7.421 4.067,-10.109 5.232,-4.527 6.009,-4.471 10.537,0.761 6.106,7.057 2.447,15.683 -6.382,15.045 -3.654,-0.263 -7.355,-2.826 -8.222,-5.697 z m 33.216,-1.163 c -0.954,-3.139 0.614,-7.542 3.619,-10.141 4.772,-4.129 5.766,-4.057 9.894,0.715 5.608,6.479 1.861,15.965 -6.084,15.391 -3.159,-0.228 -6.505,-2.912 -7.429,-5.965 z m -79.688,-42.393 c -3.287,-3.796 -5.825,-8.976 -5.642,-11.511 0.335,-4.645 17.393,-16.766 23.024,-16.359 4.746,0.342 12.874,12.193 12.445,18.145 -0.483,6.689 -12.536,17.446 -19.024,16.977 -2.656,-0.191 -7.517,-3.455 -10.803,-7.252 z m 16.331,-12.372 c -1.559,-6.112 -8.416,-7.601 -8.827,-1.918 -0.202,2.804 1.926,5.262 4.729,5.465 2.804,0.202 4.646,-1.393 4.098,-3.547 z m 35.642,11.425 c -8.536,-11.938 11.027,-27.613 24.132,-19.335 6.692,4.228 7.134,16.464 0.791,21.951 -5.718,4.95 -20.633,3.385 -24.923,-2.616 z m 16.664,-8.469 c 0.06,-0.78 -1.282,-2.42 -2.972,-3.641 -1.694,-1.223 -3.189,-0.69 -3.325,1.186 -0.135,1.876 1.204,3.514 2.976,3.642 1.769,0.128 3.265,-0.405 3.321,-1.187 z m 35.767,6.598 c -6.668,-7.706 -3.147,-18.519 7.52,-23.096 13.41,-5.75 22.645,-0.259 21.694,12.907 -0.993,13.758 -20.299,20.49 -29.214,10.189 z m 13.102,-11.159 c 0.121,-1.667 -1.165,-4.031 -2.855,-5.253 -1.693,-1.222 -3.241,0.04 -3.44,2.798 -0.2,2.76 1.087,5.122 2.859,5.249 1.77,0.128 3.316,-1.129 3.436,-2.794 z m -111.676,-33.136 c -8.935,-3.038 -9.639,-17.331 -1.212,-24.622 6.153,-5.328 8.367,-5.607 15.122,-1.92 9.191,5.017 9.869,17.42 1.354,24.79 -5.602,4.848 -6.02,4.895 -15.264,1.752 z m 11.564,-14.543 c 0.06,-0.78 -1.282,-2.42 -2.972,-3.641 -1.692,-1.222 -3.186,-0.689 -3.321,1.187 -0.136,1.876 1.202,3.514 2.972,3.642 1.77,0.128 3.265,-0.406 3.321,-1.188 z m 28.633,15.791 c -8.925,-10.313 1.39,-28.378 15.618,-27.351 8.132,0.587 17.318,10.42 16.774,17.955 -0.877,12.155 -24.162,18.908 -32.392,9.396 z m 15.92,-13.306 c -0.981,-8.189 -8.424,-9.842 -8.991,-1.995 -0.285,3.952 1.595,6.854 4.581,7.07 2.996,0.216 4.799,-1.854 4.41,-5.075 z m 37.336,9.477 c -6.154,-7.112 -5.521,-12.514 2.17,-18.527 11.443,-8.947 33.124,-2.936 32.267,8.945 -0.498,6.898 -13.56,16.174 -21.926,15.57 -4.3,-0.31 -9.93,-3.006 -12.511,-5.988 z m 15.284,-13.228 c 0.127,-1.77 -1.216,-3.323 -2.987,-3.451 -1.769,-0.128 -3.322,1.216 -3.45,2.986 -0.128,1.772 1.216,3.323 2.986,3.45 1.77,0.128 3.323,-1.214 3.451,-2.985 z m 493.3,25.163 c -11.217,-4.853 -27.01,-14.034 -35.093,-20.404 -8.085,-6.367 -16.206,-11.686 -18.051,-11.819 -1.842,-0.133 -9.696,4.443 -17.453,10.169 -26.161,19.311 -34.553,4.614 -9.308,-16.305 l 15.764,-13.065 -7.531,-19.657 c -6.94,-18.108 -7.327,-22.969 -4.914,-61.817 2.993,-48.149 1.875,-57.337 -6.72,-55.275 -3.245,0.778 -8.926,-1.465 -12.724,-5.022 -6.614,-6.194 -6.645,-6.778 -0.864,-16.223 6.648,-10.858 15.198,-15.792 26.01,-15.012 6.539,0.472 6.764,0 2.636,-5.474 -6.829,-9.063 -7.882,-28.029 -1.945,-35.029 4.932,-5.813 5.281,-5.776 24.111,2.575 15.867,7.038 19.165,7.665 19.45,3.707 0.19,-2.622 -3.159,-6.679 -7.441,-9.017 -7.902,-4.313 -9.051,-8.39 -4.877,-17.295 4.323,-9.219 26.857,-2.755 35.158,10.082 2.854,4.411 3.558,2.756 3.896,-9.147 0.371,-13.011 1.222,-14.588 8.05,-15.056 4.476,-0.308 10.4,2.477 14.317,6.725 7.441,8.076 11.086,6.829 11.872,-4.068 0.651,-9.015 9.243,-16.821 17.829,-16.201 3.552,0.256 10.239,4.833 14.86,10.173 l 8.403,9.711 6.302,-11.884 c 4.54,-8.563 8.261,-11.728 13.307,-11.33 9.517,0.757 13.017,3.917 18.421,16.651 2.904,6.84 7.016,11.026 11.126,11.323 4.483,0.323 7.814,4.326 10.659,12.807 4.035,12.026 2.692,27.581 -4.733,54.75 -2.532,9.266 -1.198,12.318 13.342,30.491 22.767,28.452 29.291,46.579 28.529,79.289 -0.917,39.269 -11.51,64.93 -36.423,88.225 -26.24,24.534 -51.12,33.643 -88.134,32.264 -21.957,-0.815 -31.504,-2.78 -47.831,-9.842 z m 90.754,-17.206 c 33.531,-13.296 55.264,-42.568 61.032,-82.203 2.676,-18.366 2.257,-26.587 -2.086,-41.158 -7.508,-25.171 -27.14,-49.419 -42.705,-52.744 -9.692,-2.072 -12.68,-1.389 -15.843,3.615 -5.011,7.934 -16.789,11.433 -23.822,7.077 -3.738,-2.318 -7.667,-2.081 -12.398,0.748 -3.807,2.276 -9.542,3.25 -12.745,2.16 -3.336,-1.134 -8.901,0.687 -13.043,4.271 -7.813,6.761 -17.219,7.375 -26.182,1.712 -4.114,-2.598 -6.837,-2.353 -9.958,0.9 -5.029,5.241 -20.567,4.801 -29.487,-0.834 -4.982,-3.146 -7.264,-2.824 -11.321,1.609 -8.524,9.311 -9.737,71.868 -1.824,93.943 18.395,51.306 88.209,81.596 140.382,60.904 z m -132.885,-69.845 c -6.116,-7.594 -7.483,-22.583 -2.023,-22.189 12.108,0.874 24.395,20.185 16.944,26.63 -5.594,4.84 -8.029,4.116 -14.921,-4.441 z" fill="#00B894" transform="translate(12.241337,-138.63882) matrix(0.26458333,0,0,0.26458333,-8887.3473,-3244.4075)"/>
</svg>