<?xml version="1.0" ?><svg height="205.30434mm" viewBox="0 0 212.63229 205.30434" width="212.63229mm" xmlns="http://www.w3.org/2000/svg">
    <g transform="translate(11.066098,-33.419261) matrix(1.1213465,0,0,1.1213465,2473.3024,815.22815)">
        <ellipse cx="-2122.0862" cy="-604.43872" fill="#fff" paint-order="markers stroke fill" rx="92.153214" ry="89.246918"/>
        <path d="m -2146.7154,-515.22147 c -20.3928,-4.49397 -39.3225,-13.74542 -49.1458,-27.01748 -28.909,-35.87647 -21.941,-85.28629 -4.6546,-113.42179 10.5731,-16.68927 21.7876,-25.49462 45.2372,-35.51912 30.6732,-11.70822 72.9537,-5.75 96.1054,12.64179 11.6383,9.79075 17.1076,13.73137 26.5048,38.14472 5.6784,14.75203 6.684,19.44559 6.766,31.57943 0.1681,24.86502 -9.723,48.21311 -28.3089,66.82367 -7.5148,7.52488 -12.3686,11.04928 -23.3124,16.92749 -13.4141,7.20512 -28.178,10.43177 -49.6672,10.8548 -11.5583,0.22753 -14.6121,0.0689 -19.5245,-1.01351 z m 26.8321,-7.6157 c 10.0158,-0.83003 23.4611,-3.43959 29.519,-5.72923 4.6113,-1.74287 12.6539,-5.89822 18.1066,-9.35507 4.4982,-2.85173 10.4396,-7.79933 10.2363,-8.5243 -0.1014,-0.36183 -1.7891,-1.36115 -3.7502,-2.2207 l -3.5659,-1.56281 -0.7921,1.73826 c -0.5397,1.18466 -1.2433,1.67373 -2.2091,1.53563 -1.1686,-0.16708 -1.3853,-0.62617 -1.2355,-2.6175 0.2063,-2.74166 0.4395,-2.60216 -10.3481,-6.18965 -7.9906,-2.65734 -8.3995,-2.62813 -8.9217,0.6373 -0.5401,3.37724 -1.7891,4.52146 -3.5389,3.24194 -1.2439,-0.90958 -1.2391,-1.1124 0.1804,-7.69538 0.8018,-3.71865 1.2479,-6.95773 0.9912,-7.19798 -0.2567,-0.24023 -1.1044,-0.62864 -1.8839,-0.86309 -1.338,-0.40245 -1.465,-0.0138 -2.2696,6.94492 -0.9132,7.89659 -1.452,9.17426 -3.3539,7.95268 -0.8496,-0.54567 -1.168,-1.64431 -1.137,-3.92373 l 0.043,-3.16585 h -4.0091 c -3.6653,0 -13.0047,0.81069 -20.2005,1.75348 -2.8153,0.36884 -2.8831,0.43841 -2.7404,2.81261 0.099,1.65295 -0.2255,2.67602 -1.0124,3.18702 -2.0013,1.29992 -3.7651,-1.13472 -5.0453,-6.96454 -0.6329,-2.88282 -1.9622,-8.63257 -2.9539,-12.77722 -1.7391,-7.26857 -1.872,-7.54361 -3.7471,-7.75829 -1.3555,-0.15519 -1.8687,0.0522 -1.6952,0.68507 0.3046,1.11124 3.3333,10.91367 6.1525,19.9124 2.0932,6.68148 2.1803,9.05261 0.3062,8.33344 -1.3617,-0.52251 -2.6715,-4.0234 -4.846,-12.95183 -2.5033,-10.27869 -4.7145,-17.35771 -4.9999,-16.00718 -0.1301,0.61571 0.8417,6.47302 2.1597,13.01624 2.6325,13.07017 3.1669,17.55849 2.1265,17.86233 -0.3781,0.11043 -1.7993,-5.32426 -3.1722,-12.13113 -3.3093,-16.40767 -4.1833,-19.70388 -5.3238,-20.07792 -0.7222,-0.23691 -0.8432,0.0897 -0.4879,1.31817 3.8002,13.14021 6.5359,27.42114 5.6801,29.65131 -0.6723,1.75187 -3.1487,1.33253 -3.9069,-0.66157 -0.5379,-1.41484 -0.9699,-1.66716 -2.2095,-1.29065 -4.6019,1.39776 -11.2458,4.74336 -17.53,8.82745 -3.8958,2.53188 -7.2516,4.43515 -7.4573,4.22948 -1.7077,-1.70775 11.1122,-11.53222 18.8077,-14.41322 2.9281,-1.0962 5.6661,-2.25094 6.0845,-2.56612 0.5554,-0.41833 0.5222,-2.06315 -0.123,-6.09213 -1.0748,-6.71246 -3.1197,-15.86361 -3.701,-16.56259 -0.2339,-0.28113 -1.6322,0.10422 -3.1075,0.85633 -3.2669,1.66556 -6.0047,1.73924 -8.5591,0.23032 -2.2464,-1.32699 -4.4432,-5.02076 -5.0635,-8.51427 -0.3909,-2.20104 -0.6326,-2.43233 -2.3102,-2.21046 -8.3135,1.09945 -8.4307,1.0937 -10.1241,-0.4971 -2.2751,-2.13732 -3.292,-5.6812 -2.8524,-9.94033 l 0.3721,-3.60535 -2.0866,0.59842 c -2.2307,0.63977 -4.3396,-0.0972 -5.8289,-2.037 -2.0503,-2.6705 -0.5567,-11.98522 2.646,-16.50095 1.0427,-1.47015 1.1039,-2.11664 0.432,-4.56577 -0.5918,-2.1571 -0.5862,-3.5089 0.023,-5.54125 0.9967,-3.32701 4.3501,-8.04478 6.8316,-9.61128 1.601,-1.01061 1.875,-1.66215 1.9467,-4.62794 0.1497,-6.19368 4.3261,-11.96224 8.6605,-11.96224 1.3819,0 2.9171,-0.78234 4.7051,-2.39773 3.3518,-3.02812 6.0776,-3.18601 8.7563,-0.5072 1.0398,1.03978 2.0353,2.32456 2.2121,2.85507 0.2667,0.80025 0.8627,0.82831 3.4981,0.16469 5.3311,-1.34239 7.7266,-1.04235 10.3969,1.30217 3.3919,2.97812 6.0926,8.76451 5.753,12.32596 -0.2681,2.81055 -0.268,2.81073 1.8105,2.36798 7.5484,-1.6079 8.9126,-0.93845 8.9227,4.37885 0,1.9158 0.1889,3.48423 0.4116,3.48539 0.2227,0.002 1.9182,-0.45696 3.7678,-1.01806 4.6437,-1.40871 6.2177,-1.2989 9.5738,0.66797 3.6627,2.14648 5.7779,6.22929 5.7779,11.15298 0,2.12579 0.3485,3.73429 0.8809,4.06538 2.3675,1.47221 3.9145,4.5767 3.9145,7.85541 0,4.5021 -1.2565,7.14041 -5.2322,10.98599 -4.3183,4.17707 -8.6749,6.0807 -14.2717,6.23621 -4.2351,0.11767 -4.413,0.19554 -5.4591,2.38927 -0.5947,1.24721 -2.5263,3.81232 -4.2922,5.70026 -3.1268,3.34279 -3.1874,3.48977 -2.3172,5.61609 0.4916,1.20091 1.9833,5.72869 3.315,10.06173 1.3317,4.33303 2.4682,7.9436 2.5254,8.02348 0.057,0.0799 3.173,-0.4922 6.9237,-1.27128 6.9819,-1.45021 17.0725,-2.00636 20.2379,-1.11543 1.704,0.47964 1.7986,0.35273 2.4617,-3.3059 0.6679,-3.68521 0.6446,-3.79131 -0.7445,-3.3783 -0.7888,0.23452 -3.1297,0.59892 -5.202,0.80978 -4.5277,0.46071 -6.3877,-0.69021 -8.7455,-5.41129 -2.0011,-4.0068 -1.237,-6.50991 2.655,-8.69734 1.721,-0.96728 2.6227,-1.90294 2.398,-2.48847 -0.5335,-1.39026 0.993,-5.23777 2.6169,-6.59593 0.78,-0.65235 2.4543,-1.19636 3.7209,-1.2089 2.251,-0.0223 2.2927,-0.0757 1.8596,-2.38443 -0.9584,-5.10873 2.6513,-9.61524 7.7269,-9.64678 2.328,-0.0144 3.9505,-0.5359 6.0447,-1.94254 3.6347,-2.44143 7.7893,-3.0753 10.125,-1.54482 2.6211,1.71742 4.0178,4.96528 3.5627,8.28519 -0.3726,2.71797 -0.299,2.86107 1.7918,3.48115 6.8915,2.0438 7.0525,13.9369 0.2327,17.18899 -2.3084,1.10082 -2.3263,1.14489 -2.0165,4.9579 0.3655,4.50003 -1.0745,7.44237 -4.7346,9.67395 -3.3479,2.04129 -6.3245,1.79939 -8.1442,-0.66187 -0.8248,-1.11556 -1.7083,-1.89926 -1.9636,-1.74156 -0.2551,0.15772 -0.5156,1.65514 -0.579,3.32762 l -0.1149,3.04086 4.467,0.77789 c 2.4568,0.42785 7.1396,1.68692 10.4061,2.79796 3.2666,1.11102 6.0335,1.92572 6.1487,1.81043 0.1154,-0.11528 0.6224,-1.40161 1.1267,-2.85851 1.1116,-3.21076 2.6945,-4.41151 4.4035,-3.34027 1.9758,1.23861 1.7819,3.2967 -0.5232,5.55024 l -2.13,2.08255 4.6576,2.56014 4.6576,2.56014 3.0321,-3.33047 c 10.0078,-10.99266 18.3278,-28.57593 21.0166,-44.41594 1.3729,-8.08811 1.0124,-20.89156 -0.7723,-27.42109 -1.8206,-6.6614 -5.9058,-16.78411 -6.7735,-16.78411 -0.4414,0 -2.3584,0.77532 -4.2601,1.72294 -3.4992,1.74375 -5.2005,4.01113 -6.0401,8.04991 -0.3631,1.74735 -0.6188,1.88045 -3.2895,1.71267 -2.8791,-0.18088 -2.897,-0.16734 -3.1054,2.33492 -0.3214,3.86178 -1.5308,4.44277 -5.6022,2.69129 -3.1322,-1.34741 -3.5977,-1.38557 -5.6515,-0.46313 -3.4174,1.53499 -4.6796,2.79311 -5.6713,5.65319 l -0.9077,2.61805 -0.7459,-1.94139 c -2.0923,-5.44523 6.5142,-12.05015 12.7932,-9.81798 1.2632,0.44905 1.657,0.24267 2.1846,-1.14511 0.82,-2.15676 3.3878,-4.5647 4.8678,-4.5647 0.6279,0 2.0213,-1.39173 3.0965,-3.09272 1.9532,-3.09017 7.2107,-6.49821 10.0244,-6.49821 1.6803,0 1.8411,-1.34748 -0.6299,-6.2917 -7.7497,-15.50585 -18.5974,-22.67061 -35.0662,-30.92224 -34.3423,-12.39543 -65.6224,-11.53044 -95.286,7.95429 -10.3493,6.95457 -22.6296,23.9064 -28.0175,38.67601 -3.1534,8.64384 -3.2374,9.08041 -1.7488,9.08041 1.9241,0 4.8232,1.92158 5.6557,3.74873 1.1213,2.46105 1.0285,6.18516 -0.1791,7.18743 -1.3686,1.13579 -2.4257,0.31208 -2.4379,-1.89946 -0.016,-2.96505 -1.5184,-5.26883 -3.4354,-5.26883 -1.5304,0 -1.7433,0.3607 -2.223,3.76786 -1.3504,21.85567 0.8099,54.89993 20.7399,72.61007 11.061,11.16657 26.8552,19.01616 44.8718,22.30112 5.9447,1.08389 12.0541,1.1696 22.379,0.31395 z m 16.0988,-8.67851 c -0.9243,-0.92417 -0.434,-4.28341 0.7192,-4.92879 1.0548,-0.59028 1.0744,-0.84802 0.1899,-2.50064 -0.8764,-1.63768 -0.8614,-1.93364 0.1353,-2.66242 0.6167,-0.45097 1.2249,-1.73017 1.3514,-2.84268 0.1866,-1.6395 0.5547,-2.02273 1.9429,-2.02273 1.3617,0 1.7573,0.38844 1.9305,1.89554 0.1199,1.04255 0.5228,1.70716 0.8953,1.4769 1.2352,-0.76342 4.0248,0.37435 4.0248,1.64159 0,3.09944 -4.3892,4.02171 -5.4804,1.15156 -0.7804,-2.05245 -1.6829,-2.29727 -1.1647,-0.31595 0.228,0.87206 -0.1415,1.86872 -0.9836,2.65324 -1.1136,1.03757 -1.1732,1.32384 -0.342,1.64282 0.5537,0.21247 1.185,-0.0783 1.4029,-0.64609 0.6349,-1.65483 3.4456,-0.87257 3.7153,1.03404 0.2049,1.44887 0.01,1.59531 -1.7841,1.33217 -1.7027,-0.2499 -2.1265,0.002 -2.7397,1.62626 -0.6857,1.81652 -2.6911,2.58713 -3.813,1.46518 z m -4.3068,-6.01861 c -0.5623,-1.46511 0.2868,-2.43053 2.1374,-2.43053 2.0189,0 2.7864,1.10398 1.6877,2.42773 -1.0662,1.28474 -3.3325,1.28639 -3.8251,0.003 z m -8.4499,-0.68017 c -1.1231,-1.35325 -0.6326,-4.08479 0.7818,-4.35427 0.6527,-0.12435 1.657,0.5449 2.3076,1.53783 0.929,1.41798 0.9874,1.9561 0.3019,2.78218 -1.0736,1.29349 -2.3356,1.30624 -3.3913,0.0343 z m -5.3881,-3.28476 c 0.2303,-1.61423 2.3168,-2.46475 3.3969,-1.38467 1.0761,1.07618 -0.1415,2.91907 -1.9289,2.91907 -1.3556,0 -1.644,-0.30138 -1.468,-1.5344 z m 7.7382,-1.23234 c -0.2685,-0.43454 0.017,-1.29475 0.6333,-1.91159 0.8623,-0.86229 1.3956,-0.9486 2.3075,-0.37339 0.6523,0.41147 1.186,1.17694 1.186,1.70106 0,1.17923 -3.4566,1.66832 -4.1268,0.58392 z m 7.9196,-0.28605 c -1.0195,-1.22838 -0.3712,-2.42774 1.3123,-2.42774 1.154,0 2.0881,1.25088 2.0881,2.79629 0,0.99919 -2.4893,0.7294 -3.4004,-0.36855 z m -11.6639,-2.07648 c -1.1198,-1.34944 -0.39,-3.09152 1.2952,-3.09152 0.7401,0 1.5322,-0.58808 1.7604,-1.30685 0.8364,-2.63543 4.473,-2.46021 4.473,0.21553 0,1.70125 -1.1868,3.14652 -2.5838,3.14652 -0.5167,0 -1.4018,0.46242 -1.967,1.02759 -1.291,1.29099 -1.9121,1.29282 -2.9778,0.009 z m -5.4628,-0.66379 c -1.017,-1.22541 -0.3723,-2.42773 1.3018,-2.42773 1.5097,0 3.0713,1.72063 2.4597,2.71026 -0.6416,1.03817 -2.7999,0.87607 -3.7615,-0.28253 z m 3.1527,-4.82546 c -0.6456,-1.68246 0.3027,-3.17229 1.8763,-2.94775 1.0116,0.14433 1.5202,0.78086 1.671,2.09142 0.1844,1.60328 -0.035,1.88392 -1.4682,1.88392 -0.9266,0 -1.8622,-0.46242 -2.0791,-1.02759 z m -57.9829,-2.39773 c -0.7824,-0.78243 -1.3701,-2.28355 -1.3701,-3.4996 0,-1.88916 -0.1805,-2.08416 -1.5994,-1.72802 -2.1754,0.54597 -5.8149,-0.5851 -7.7587,-2.41115 -1.8763,-1.76274 -2.0652,-4.41269 -0.4761,-6.68133 1.027,-1.46628 1.4877,-1.576 5.2031,-1.23909 l 4.0764,0.36963 -0.4154,-2.21431 c -0.5822,-3.10315 0.7546,-6.42681 3.0656,-7.62184 2.7838,-1.43954 4.2849,-1.25364 6.1772,0.76494 1.4595,1.55702 1.6557,2.38721 1.6184,6.85065 -0.042,5.05133 -0.033,5.07894 1.7778,5.07894 2.3803,0 4.0877,1.96103 4.0877,4.69509 0,1.75265 -0.3721,2.33091 -1.8646,2.89835 -1.2942,0.49208 -2.3517,0.4869 -3.4575,-0.0169 -2.1247,-0.96804 -2.0423,-1.01064 -2.5544,1.32101 -0.4159,1.89313 -3.171,4.80377 -4.5471,4.80377 -0.3261,0 -1.2092,-0.61655 -1.9629,-1.37012 z m 3.0096,-3.82389 c 0.7044,-1.83591 0.4637,-3.02677 -0.6118,-3.02677 -0.6851,0 -1.0276,0.68507 -1.0276,2.05519 0,2.19612 0.9528,2.76078 1.6394,0.97158 z m 7.5818,-5.52907 c -1.4727,-1.0769 -3.4841,-1.2074 -4.0672,-0.26388 -0.4496,0.72744 3.7263,2.08645 4.712,1.53344 0.3396,-0.19059 0.049,-0.7619 -0.6448,-1.26956 z m -12.3311,-0.47593 c 1.5817,-1.15665 0.7897,-1.69197 -3.3414,-2.2582 -2.8495,-0.39056 -3.1397,-0.30039 -3.1397,0.97584 0,2.22265 4.0887,3.03166 6.4811,1.28236 z m 5.4007,-5.07129 c 0.489,-3.05846 -0.1055,-5.80823 -1.1792,-5.45432 -0.7481,0.24658 -1.8062,7.10047 -1.191,7.71558 0.9722,0.97226 2.0118,-0.0195 2.3702,-2.26126 z m 112.1417,8.78421 c -0.9004,-1.68253 -0.2285,-3.47495 1.3027,-3.47495 0.6505,0 1.1826,-0.46242 1.1826,-1.0276 0,-0.56518 -0.2191,-1.0276 -0.4869,-1.0276 -0.2679,0 -0.8709,0.46242 -1.3398,1.0276 -0.4692,0.56518 -1.384,1.0276 -2.033,1.0276 -1.7298,0 -3.6827,-2.4525 -3.255,-4.08787 0.2876,-1.09996 0.035,-1.39266 -1.2005,-1.39266 -2.1409,0 -3.5903,-1.81328 -2.6468,-3.31148 1.0499,-1.66737 2.4651,-1.71325 4.1594,-0.13485 1.9585,1.82456 3.8018,1.76489 4.6421,-0.15026 0.3719,-0.84777 1.3306,-1.63477 2.1305,-1.74889 2.1816,-0.31128 2.6482,1.81606 0.913,4.16306 -1.7094,2.31212 -1.2651,3.31743 0.6858,1.55185 2.2133,-2.00295 3.2628,-0.95872 3.1831,3.16704 -0.062,3.19239 -0.2574,3.68335 -1.5422,3.86649 -0.8093,0.11536 -1.6281,0.809 -1.8197,1.54139 -0.4522,1.72892 -2.9521,1.73611 -3.8753,0.0111 z m -9.5062,-3.39165 c -0.5039,-0.31943 -0.8122,-1.31662 -0.6851,-2.21597 0.173,-1.22309 0.6605,-1.63519 1.9346,-1.63519 1.937,0 2.6689,1.87172 1.3522,3.45824 -0.9474,1.1415 -1.3296,1.19922 -2.6017,0.39292 z m 6.4165,-9.64242 c -0.7599,-1.22948 0.3476,-3.55284 1.5802,-3.31544 1.5283,0.29431 1.5328,3.53183 0.01,3.82599 -0.6242,0.12022 -1.3377,-0.10953 -1.5856,-0.51055 z m 12.1494,-4.99007 c -0.4629,-0.58332 -0.4215,-1.63175 0.1276,-3.22116 1.1742,-3.39916 2.4323,-3.49347 2.4323,-0.18233 0,3.00281 -1.4002,4.86444 -2.5599,3.40349 z m 0.9705,-20.6573 c -0.4275,-1.11435 1.6141,-5.39884 2.617,-5.49157 1.1667,-0.10789 1.191,3.01058 0.036,4.77172 -1.2356,1.88589 -2.115,2.12439 -2.654,0.71985 z m 10.8795,-3.08952 c -0.6929,-1.12121 0.3651,-4.17807 1.4461,-4.17807 0.7079,0 0.9345,0.62979 0.782,2.17372 -0.216,2.1877 -1.4363,3.28543 -2.2281,2.00435 z m -22.6112,-2.9792 c 0.9466,-3.08793 3.0451,-4.42479 3.0451,-1.93996 0,2.24051 -0.7752,3.48137 -2.1747,3.48137 -1.076,0 -1.2491,-0.3064 -0.8704,-1.54141 z m 12.636,-11.34391 c 0,-0.68155 0.4404,-1.83761 0.9786,-2.56899 0.8852,-1.20274 1.0212,-1.22036 1.423,-0.18447 0.4904,1.26441 -0.699,3.99266 -1.7406,3.99266 -0.3636,0 -0.661,-0.55764 -0.661,-1.2392 z m -41.104,-3.45009 c 0,-0.69517 0.6167,-1.82192 1.3702,-2.5039 1.6388,-1.48305 1.7894,-4.62089 0.2935,-6.11666 -1.3975,-1.39756 -1.8023,-1.36105 -3.9901,0.35994 -2.6309,2.06947 -3.732,0.91165 -3.31,-3.48054 0.2541,-2.64399 0.092,-3.504 -0.7192,-3.81528 -1.1889,-0.45621 -5.9455,1.77458 -7.3231,3.43436 -0.8309,1.00121 -1.0504,0.97163 -2.4336,-0.32775 -0.8362,-0.78555 -2.4084,-1.66434 -3.4938,-1.95288 -1.2793,-0.34008 -2.0493,-1.04203 -2.1892,-1.99567 -0.332,-2.2644 2.6594,-2.71705 5.7816,-0.87485 l 2.4988,1.4743 1.5521,-1.45817 c 0.8537,-0.80198 2.8225,-1.62854 4.3752,-1.8368 3.3027,-0.44299 5.1995,0.84098 5.8906,3.98732 0.305,1.38869 0.8503,1.98416 1.817,1.98416 2.5299,0 5.365,2.25353 6.1558,4.89313 0.8895,2.96869 0.4559,5.16358 -1.5152,7.66928 -1.7061,2.16909 -4.7606,2.52839 -4.7606,0.56001 z m -17.9156,-29.73526 c -1.2507,-1.60134 -2.6639,-3.3189 -3.1403,-3.8168 -0.4764,-0.49789 -0.8661,-1.51953 -0.8661,-2.27029 0,-1.32801 0.077,-1.32204 2.8473,0.2202 1.9799,1.10231 2.9329,1.33483 3.1284,0.76327 1.2928,-3.78018 6.3823,-6.01065 6.331,-2.77464 -0.03,1.85146 -1.6948,9.00685 -2.3391,10.04932 -1.0437,1.68884 -3.7025,0.72049 -5.9612,-2.17106 z m 17.4938,-7.20369 c -0.4203,-0.27681 -1.4247,-1.80611 -2.2319,-3.39843 -0.8072,-1.59232 -2.3901,-3.57704 -3.5174,-4.41049 -4.0813,-3.01742 -1.8907,-4.9009 3.1214,-2.68381 l 3.2156,1.42243 2.3386,-2.05337 c 1.4852,-1.30397 3.0879,-2.05334 4.3916,-2.05334 3.2629,0 3.2792,1.75894 0.045,4.86632 -2.0381,1.9583 -2.831,3.2751 -2.831,4.7011 0,3.02284 -2.4546,4.97774 -4.5322,3.60959 z m -33.5799,-9.92295 c -1.9703,-2.64298 -3.8212,-4.16558 -6.9805,-5.74256 -5.2702,-2.63049 -5.3336,-2.69239 -4.1812,-4.08091 1.7546,-2.11413 10.9239,0.20133 13.6088,3.43654 1.2256,1.47662 1.7491,1.35798 2.6405,-0.59821 0.42,-0.92175 1.9068,-2.94135 3.3041,-4.48803 2.0836,-2.30613 2.9202,-2.77501 4.6501,-2.60578 3.2932,0.32217 2.8991,1.9794 -1.6106,6.77458 -2.2722,2.41605 -4.289,5.08647 -4.4817,5.93424 -0.1927,0.84777 -0.5104,2.31209 -0.706,3.25406 -0.6234,3.00276 -3.1743,2.23304 -6.2435,-1.88393 z m 44.8904,94.778 c 2.8623,-2.6739 3.1366,-6.90928 0.5813,-8.97846 -2.0319,-1.64525 -1.1142,-3.1977 2.2232,-3.76156 4.1077,-0.69398 6.4681,-2.96476 6.3782,-6.1359 -0.097,-3.41888 -2.2308,-5.57345 -6.2589,-6.31922 l -3.1939,-0.59136 -0.072,-3.4109 c -0.039,-1.87599 -0.1166,-3.79625 -0.1713,-4.26723 -0.2077,-1.78767 -3.8642,-0.58661 -8.6174,2.83055 -1.5992,1.14975 -1.9209,1.17871 -2.9745,0.26789 -2.3964,-2.07181 -4.3299,-1.97401 -6.48,0.32776 -1.6947,1.81404 -1.9662,2.5895 -1.7267,4.9294 0.1563,1.5272 0.5425,3.36493 0.8582,4.08386 0.5236,1.19269 0.3454,1.27006 -2.035,0.88377 -1.4349,-0.23285 -3.1821,-0.11659 -3.8828,0.25836 -1.7048,0.91242 -1.6501,4.191 0.097,5.77152 1.3338,1.20705 1.8875,3.69223 0.8563,3.84296 -0.2825,0.0413 -1.5472,0.16096 -2.8103,0.26589 -1.2632,0.10494 -2.7902,0.68435 -3.3934,1.28757 -1.0057,1.00565 -0.9799,1.25391 0.3103,2.98816 1.8944,2.54638 6.9077,3.01752 9.5972,0.90194 2.3768,-1.86955 3.9576,-1.77739 4.8976,0.2855 0.8242,1.80894 2.2773,2.38148 6.6331,2.61358 2.2338,0.11903 2.8965,0.48915 3.634,2.02951 1.1596,2.42192 2.881,2.38979 5.5502,-0.10359 z m -79.8719,-13.06884 c 1.7693,-1.12205 3.2169,-2.32219 3.2169,-2.66697 0,-1.32424 2.1218,-1.33142 5.8535,-0.0198 6.0831,2.13803 8.9932,1.4001 13.7104,-3.4766 2.0949,-2.16578 4.2707,-4.59708 4.8351,-5.40286 1.0514,-1.50115 3.0037,-2.00812 3.0037,-0.78003 0,0.99954 3.3471,0.83789 7.3665,-0.35579 4.0724,-1.20934 9.6284,-5.3541 11.7254,-8.74699 2.6163,-4.23339 1.4154,-9.43663 -2.3263,-10.07929 -1.9712,-0.33858 -2.0605,-0.52009 -2.7786,-5.64615 -0.4637,-3.31056 -1.2098,-5.81346 -1.9901,-6.67563 -1.5215,-1.68123 -5.4694,-1.83518 -9.0198,-0.35171 -5.3395,2.23098 -7.0875,1.09892 -7.0875,-4.58994 v -3.97338 h -5.4565 c -6.3355,0 -6.457,-0.11068 -7.1917,-6.55601 -0.2607,-2.28705 -1.161,-5.36984 -2.0006,-6.85066 l -1.5267,-2.69238 -5.5948,0.15023 -5.5947,0.15022 -1.8128,-2.37669 c -2.2324,-2.92682 -4.1788,-3.04499 -6.7061,-0.40712 -1.1391,1.18892 -2.599,1.96957 -3.6834,1.96957 -2.1917,0 -4.0197,2.10981 -4.9545,5.71836 -0.3809,1.47053 -1.0127,3.90502 -1.4039,5.40997 -0.4849,1.8652 -1.3027,3.04394 -2.5691,3.70276 -3.6023,1.87426 -6.9956,6.90855 -6.9956,10.37878 0,0.99793 0.4919,2.85101 1.0932,4.11795 1.0272,2.16461 1.0122,2.41873 -0.2474,4.21392 -2.2701,3.23509 -4.0531,10.72689 -2.9632,12.45038 0.4043,0.63911 1.2026,0.79787 2.4447,0.48613 1.0145,-0.25462 2.4281,-0.27768 3.1415,-0.0512 1.1366,0.36074 1.2491,0.89378 0.9093,4.30932 -0.2446,2.4596 -0.046,4.90873 0.5369,6.63794 0.9056,2.68416 0.9875,2.73773 3.9991,2.61643 1.6911,-0.0681 4.2036,-0.32988 5.5833,-0.58171 2.1629,-0.39477 2.6578,-0.23035 3.5903,1.19279 0.5948,0.90787 1.5254,3.12554 2.0679,4.92816 1.1058,3.67424 2.7898,5.88818 4.4788,5.88818 0.6215,0 2.5775,-0.91805 4.3468,-2.04011 z m -0.582,-10.60247 c -0.9248,-0.92484 -1.6815,-1.98562 -1.6815,-2.35729 0,-1.27206 1.3799,-1.52971 2.4519,-0.45778 0.5891,0.5892 2.1282,1.07128 3.42,1.07128 2.6553,0 3.2333,1.53359 1.0237,2.71616 -2.0577,1.10124 -3.3888,0.85301 -5.2141,-0.97237 z m 30.6535,-10.78666 c -1.1681,-1.16819 -1.018,-2.13997 0.2551,-1.6514 0.5925,0.22735 1.6715,0.0953 2.3978,-0.29335 0.9975,-0.53384 1.3205,-0.48296 1.3205,0.20799 0,1.10733 -1.3601,2.55884 -2.3978,2.55884 -0.4144,0 -1.1235,-0.36994 -1.5756,-0.82208 z m -43.6629,-4.27788 c -0.9921,-0.99207 -1.508,-2.10895 -1.2657,-2.74026 0.4651,-1.21188 1.4041,-1.4081 1.7515,-0.36596 0.1283,0.38481 1.3871,0.74305 2.7974,0.79606 2.167,0.0815 2.5641,0.33305 2.5641,1.62477 0,2.76867 -3.3691,3.16358 -5.8473,0.68539 z m 19.9973,-7.79897 c -1.8596,-2.05486 -1.4034,-2.81224 1.4352,-2.38276 3.3117,0.50104 3.951,1.12813 2.5641,2.515 -1.4546,1.45455 -2.5975,1.41677 -3.9993,-0.13224 z m -23.5697,-8.69916 c -1.411,-0.99488 -2.0839,-3.66352 -1.1573,-4.5901 0.2112,-0.21124 1.1221,0.35395 2.024,1.25594 0.902,0.90202 2.1391,1.64001 2.749,1.64001 1.6045,0 0.9578,2.35475 -0.7111,2.58933 -0.7497,0.10538 -2.0568,-0.29744 -2.9046,-0.89518 z m 12.8374,-1.02324 c -1.078,-2.01439 -0.4888,-2.43293 3.0309,-2.15298 2.4713,0.19653 3.1424,0.51211 3.1424,1.47776 0,2.36018 -4.98,2.90488 -6.1733,0.67522 z m 6.3396,-13.10966 c -0.9843,-0.98437 -1.113,-2.39014 -0.2668,-2.91317 1.0742,-0.66384 4.9447,1.23289 4.7386,2.3221 -0.2486,1.31399 -3.3402,1.72262 -4.4718,0.59107 z" fill="#00B894"/>
    </g>
</svg>