<?xml version="1.0" ?><svg height="138.82191mm" viewBox="0 0 208.02863 138.82191" width="208.02863mm" xmlns="http://www.w3.org/2000/svg">
    <path d="m -5939.5469,-9.5957031 c -1.4831,0.026896 -3.2905,0.3096831 -5.5097,0.9316406 -17.7542,4.97566 -14.1728,8.97029375 -14.4454,12.9648437 6.9693,4.34494 13.704,13.4190948 16.9356,15.5214848 3.2316,2.10239 18.5332,-2.417969 18.5332,-2.417969 0,0 4.0489,11.703175 15.3789,7.603515 11.33,-4.099669 17.0929,-13.454366 18.0273,-18.5351558 0.9345,-5.08078 1.8691,-14.0157218 -7.0859,-11.1074218 -8.955,2.90831 -14.7461,5.7910156 -14.7461,5.7910156 0,0 -4.7981,-6.9481269 -14.1035,-2.4980469 -8.1422,3.8938113 -2.6027,-8.4421757 -12.9844,-8.2539062 z m -54.7031,6.5917969 c -11.6241,-0.2329487 -18.125,7.3730468 -18.125,7.3730468 0,0 -6.1526,0.6313469 -13.3945,4.3105469 -7.2418,3.6792005 -4.711,23.8964845 -4.711,23.8964845 0,0 -7.4359,6.937847 -9.9277,15.873047 -2.4919,8.9352 6.4246,15.593234 6.0352,19.552734 -0.3893,3.9596 5.2949,23.792444 13.0429,23.652344 7.748,-0.1402 29.9395,0.841797 29.9395,0.841797 l 7.748,17.238286 c 0,-1e-5 0.1309,1.10812 0.6055,2.80664 -0.324,0.18534 -0.6763,0.37412 -0.9941,0.55859 -11.2911,6.5524 -30.3292,25.15707 -35.9747,31.28906 2.6086,10.23165 54.119,14.22611 103.4493,14.68164 49.3303,0.45554 88.1862,-5.32469 105.6289,-13.69922 17.4428,-8.37448 5.4129,-3.22386 10.3965,-8.30468 4.9835,-5.0808 -3.8555,-15.90821 -3.8555,-15.90821 l -3.5821,-12.08984 c 0,0 -18.4541,-0.31515 -23.5156,-3.46875 -5.0615,-3.1536 -21.0254,2.94336 -21.0254,2.94336 0,0 -6.7357,-3.57454 -19.039,-6.02735 -5.5149,-1.09944 -15.4817,-2.714871 -26.5625,-3.972651 3.3738,-7.455301 7.1039,-16.951203 5.7715,-20.203125 -2.2971,-5.6064 -15.6524,-5.326172 -15.6524,-5.326172 0,0 -0.6616,-8.724925 -7.0469,-9.390625 -6.3853,-0.6658 -12.6933,11.001953 -12.6933,11.001953 0,0 -3.5037,-2.487228 -6.3848,-1.611328 -2.8812,0.876 -2.1797,9.390625 -2.1797,9.390625 0,0 -12.6143,-0.666956 -12.9648,3.152344 -0.2287,2.492708 2.3704,7.536401 6.3515,12.318359 -9.3175,1.477631 -17.5527,4.04663 -24.7793,7.04883 -0.024,-0.0494 -0.1445,-0.30469 -0.1445,-0.30469 l -12.459,-17.169921 c 0,0 6.0732,-3.994416 14.0938,-7.603516 8.0205,-3.6091 11.8758,-16.783391 15.7304,-27.400391 3.8546,-10.617099 -10.3574,-17.029296 -10.3574,-17.029296 0,0 1.2463,-5.713025 -1.6738,-14.578125 -2.92,-8.8651 -14.873,-8.619141 -14.873,-8.619141 0,0 -1.3634,-13.6298063 -14.4844,-15.0664062 -0.8201,-0.089794 -1.6177,-0.1407201 -2.3926,-0.15625 z m 165.707,37.3398442 c -6.3254,0.272489 -11.3125,12.992187 -11.3125,12.992187 0,0 -9.0713,-5.079129 -13.5488,-1.855469 -4.4775,3.22366 -6.2695,11.001953 -6.2695,11.001953 0,0 -19.3888,-2.452343 -19.4278,7.779297 -0.039,10.23164 14.5603,18.115607 26.9805,18.816406 0,0 12.1867,4.027996 22.6602,0.103516 10.4734,-3.92447 -0.6231,-8.09375 -0.6231,-8.09375 0,0 4.0495,3.76e-4 14.3672,-4.589844 10.3177,-4.59022 -7.7871,-11.107422 -7.7871,-11.107422 0,0 2.6085,-0.80624 5.334,-7.74414 2.7254,-6.93789 -1.1292,-14.120755 -8.3711,-16.958984 -0.6789,-0.266085 -1.3476,-0.371939 -2.002,-0.34375 z" fill="#FFFFFF" paint-order="markers stroke fill" transform="translate(-221.04521,66.38715) matrix(0.7921412,0,0,0.7921412,1090.4787,848.03158) translate(4946.0726,-1138.2098)"/>
    <path d="m -930.32167,-982.74615 c -0.5844,-1.3465 -0.6794,-2.8311 -0.2113,-3.2993 1.3864,-1.3863 2.504,0.561 1.8659,3.2513 -0.5657,2.385 -0.6392,2.3871 -1.6546,0.048 z m 19.7531,-5.0607 c 0,-1.5018 0.6143,-2.7305 1.3651,-2.7305 0.751,0 1.3653,1.2287 1.3653,2.7305 0,1.5018 -0.6143,2.7305 -1.3653,2.7305 -0.7508,0 -1.3651,-1.2287 -1.3651,-2.7305 z m 16.3826,-0.7964 c 0,-4.2768 3.2061,-3.8088 3.8493,0.562 0.2896,1.969 -0.2836,2.9649 -1.7066,2.9649 -1.3938,0 -2.1427,-1.2326 -2.1427,-3.5269 z m -185.32823,-4.9655 c -3.0717,-1.4814 -3.7152,-3.2295 -3.2472,-8.82035 0.1371,-1.6379 -0.9937,-5.0168 -2.513,-7.5087 -1.6188,-2.6552 -2.7643,-6.9194 -2.7674,-10.3014 -0.01,-7.1282 3.7635,-10.1298 12.8958,-10.2679 4.1067,-0.062 6.9198,-0.911 8.3854,-2.5305 4.9496,-5.4692 18.2936,-3.6192 20.3372,2.8197 0.5115,1.6115 1.5383,2.7273 2.2818,2.4796 1.5567,-0.5191 1.5293,-1.068 -0.4467,-8.915 -1.3366,-5.3082 -1.8317,-5.8021 -5.8162,-5.8021 -2.3954,0 -5.4875,-0.828 -6.8714,-1.8398 -2.121,-1.551 -3.1461,-1.5254 -6.5304,0.1628 -5.6476,2.8174 -14.0564,1.4238 -18.7934,-3.1144 -4.9513,-4.7437 -8.7066,-14.6281 -7.7641,-20.436 0.6039,-3.7216 0.037,-5.1735 -3.2541,-8.3261 -3.1395,-3.0078 -3.9791,-4.9956 -3.9555,-9.365 0.036,-6.6366 4.1659,-16.3379 7.9654,-18.7107 2.2837,-1.4263 2.6186,-2.7317 2.0329,-7.924 -1.3586,-12.0432 5.3205,-22.4778 14.2256,-22.2245 2.6271,0.075 5.1196,-1.1515 7.5283,-3.7035 9.2625,-9.8136 21.5261,-10.7304 29.349,-2.1941 2.462,2.6865 4.8429,6.7176 5.2911,8.9582 0.7154,3.5772 1.3889,4.0736 5.5273,4.0736 3.3884,0 5.834,1.1214 8.7033,3.9906 3.4393,3.4394 3.9906,5.0237 3.9906,11.4695 0,7.1035 0.2404,7.6207 4.7896,10.3048 2.6343,1.5543 5.476,4.3325 6.315,6.1739 1.92953,4.2349 0.5566,11.805 -2.9491,16.2619 -1.4821,1.8841 -2.6947,4.6709 -2.6947,6.1931 0,4.8908 -2.5013,9.5612 -7.799,14.5621 -5.6671,5.3495 -9.5717,6.868 -14.0255,5.4544 -4.3314,-1.3747 -3.1397,-6.6179 1.7061,-7.5059 5.6818,-1.0412 12.9194,-7.4895 14.0174,-12.4889 0.5264,-2.3967 2.1122,-6.2518 3.5239,-8.567 3.9324,-6.4486 3.3643,-12.1782 -1.6233,-16.375 -2.3101,-1.9439 -4.7675,-3.5344 -5.4608,-3.5344 -0.6933,0 -1.2604,-3.6861 -1.2604,-8.1913 0,-10.1344 -2.7716,-13.6522 -10.7561,-13.6522 -4.6465,0 -5.5124,-0.5241 -7.0669,-4.277 -3.2294,-7.7962 -7.8821,-12.1056 -13.0702,-12.1056 -5.0332,0 -15.5243,4.6318 -15.5243,6.8539 0,0.7356 -2.1159,1.3375 -4.7021,1.3375 -3.0021,0 -6.087,1.191 -8.5326,3.2944 -3.3386,2.8714 -3.8183,4.2299 -3.736,10.5805 0.052,4.0071 0.586,8.6745 1.1868,10.3719 0.928,2.6213 0.4855,3.2975 -2.9392,4.4914 -4.4763,1.5604 -8.5944,8.6099 -8.5603,14.6537 0.028,4.964 1.3297,6.7227 5.8079,7.8467 5.1881,1.3021 5.7015,2.743 3.0034,8.429 -2.223,4.6847 -2.2126,5.2173 0.2183,11.054 3.7613,9.0314 7.1876,10.8815 22.2072,11.9917 9.4618,0.6995 12.5748,0.5397 11.865,-0.6087 -0.5291,-0.8563 -2.1099,-1.5568 -3.5129,-1.5568 -1.403,0 -3.8546,-1.6577 -5.4482,-3.6836 -2.4612,-3.1288 -3.7865,-3.6289 -8.8012,-3.3205 -5.0453,0.3102 -6.3349,-0.1854 -8.8709,-3.4092 -1.6883,-2.1464 -2.7922,-5.2302 -2.561,-7.1547 0.4805,-3.9999 3.8193,-5.6889 3.8193,-1.932 0,6.1204 7.8924,7.8871 13.1534,2.9446 3.7576,-3.53 7.9446,-2.5651 6.6444,1.5312 -1.5173,4.7808 0.4705,8.198 4.7691,8.198 5.0016,0 9.5635,-5.5848 9.5635,-11.7078 0,-5.4664 2.0624,-7.0679 5.3131,-4.1258 5.6535,5.1162 10.1269,-0.2823 7.1974,-8.686 -2.4807,-7.1163 3.6974,-7.068 6.6466,0.052 2.9613,7.1492 -1.1925,17.6415 -6.9842,17.6415 -3.0935,0 -6.7119,3.5926 -6.7119,6.664 0,1.3052 2.7079,5.5457 6.0177,9.4232 3.3098,3.8775 6.2797,7.834 6.5998,8.7923 0.4569,1.3677 2.6116,1.2031 10.0235,-0.7661 11.0309,-2.9307 11.5767,-3.2922 8.4358,-5.5889 -2.2808,-1.6677 -3.08,-4.453 -2.6236,-9.1436 0.2764,-2.8418 7.34053,-5.8078 11.03733,-4.6345 2.4272,0.7704 2.8311,0.3249 2.8311,-3.1219 0,-4.9066 2.9414,-7.6357 6.882,-6.385 2.0708,0.6573 3.4624,0.1475 4.7965,-1.757 1.0335,-1.4757 4.0055,-3.692 6.6044,-4.9252 5.7768,-2.7413 10.9049,-0.9814 13.8748,4.7618 1.3534,2.6172 2.683,3.5091 4.5164,3.0297 3.2787,-0.8574 10.5819,2.8467 12.4333,6.3061 3.4494,6.4452 0.047,15.093 -5.9376,15.093 -1.9508,0 -2.2804,-1.1014 -1.9403,-6.4848 1.19225,-3.7614 1.20958,-6.4848 -6.4164,-6.4848 -6.7175,0 -6.837,-0.074 -7.5087,-4.6369 -1.2965,-8.8063 -7.5353,-9.1841 -12.5073,-0.7571 -2.3483,3.9801 -3.4913,4.7611 -6.0339,4.123 -2.8083,-0.7048 -3.1813,-0.2505 -3.5609,4.3375 -0.4525,5.4693 -1.1719,5.7436 -9.6392,3.6756 -4.49403,-1.0976 -5.09843,1.5842 -1.3653,6.0571 2.2426,2.687 2.9755,2.7738 11.9457,1.4161 12.1121,-1.8333 23.9118,-0.7953 47.1,4.1438 20.3777,4.3403 20.2997,4.3539 24.7152,-4.3012 2.5351,-4.9693 2.5475,-5.2773 0.2416,-6.0092 -7.9035,-2.5084 -13.3185,-5.7054 -17.4962,-10.3295 -3.8667,-4.2799 -4.7301,-6.3179 -4.7301,-11.1637 0,-8.2192 3.2134,-10.8567 14.0707,-11.5487 7.8559,-0.5006 8.4696,-0.7766 8.6572,-3.8938 0.4537,-7.5407 9.1829,-12.6941 15.8601,-9.3631 5.1863,2.5872 4.5844,2.7815 6.2582,-2.0201 2.6916,-7.7211 11.3051,-8.7045 18.9128,-2.1593 3.1883,2.7431 3.7979,4.3062 3.6903,9.4623 -0.071,3.397 -1.0936,7.6488 -2.2728,9.4483 -2.0501,3.1289 -1.9735,3.3727 1.7523,5.5736 5.4387,3.2126 6.4002,7.1776 2.6966,11.1199 -1.6438,1.7498 -4.4664,3.5522 -6.2724,4.0055 -1.9681,0.494 -3.2835,1.8227 -3.2835,3.3169 0,5.4128 -9.9354,9.6342 -22.8503,9.7088 -5.2681,0.031 -6.0988,0.5306 -9.2979,5.5981 -1.9321,3.0607 -3.8181,6.3602 -4.1912,7.3325 -1.352,3.5231 3.7516,3.4067 9.2171,-0.2103 4.1653,-2.7563 7.2258,-3.6555 12.4428,-3.6555 6.0276,0 7.3749,0.536 10.458,4.1609 3.3765,3.9701 3.922,4.1318 11.8884,3.5248 7.571,-0.5769 8.5576,-0.3393 10.5804,2.5488 1.2271,1.7518 2.2309,5.1279 2.2309,7.5025 0,3.0989 0.9634,4.9488 3.4131,6.5539 2.5774,1.6887 3.413,3.4203 3.413,7.0727 0,6.3944 -1.8792,9.61205 -7.2078,12.34215 -2.4181,1.2388 -4.809,2.8927 -5.3131,3.6754 -1.1982,1.8601 -9.5016,-0.6078 -19.1858,-5.7019 -12.8343,-6.75115 -29.98573,-18.30335 -27.8558,-22.04115 0.88851,-1.5593 7.2685,-0.3478 12.6283,6.6556 4.62229,6.0397 15.9337,8.0334 20.5935,9.7175 8.4244,3.0445 8.4975,3.047 12.965,0.4378 2.4712,-1.4432 4.7089,-3.7455 4.9729,-5.1163 0.4161,-2.1605 -0.1597,-2.3723 -4.326,-1.5907 -6.202,1.1634 -7.565,-1.01 -3.8145,-6.0828 3.9248,-5.3087 3.8404,-10.513 -0.1805,-11.124 -2.9967,-0.4552 -9.8704,0.5672 -15.3587,2.2845 -2.012,0.6296 -3.0898,0.029 -4.0957,-2.2832 -1.1728,-2.6952 -2.3468,-3.1309 -8.3274,-3.0903 -5.5399,0.038 -7.8621,0.8045 -11.3678,3.7544 -5.6896,4.7876 -8.6441,4.9036 -7.4872,0.294 0.7273,-2.8977 0.3837,-3.413 -2.2751,-3.413 -1.7225,0 -4.5618,1.3434 -6.3096,2.9854 -2.4886,2.338 -3.5365,2.6267 -4.8321,1.3311 -1.2954,-1.2955 -1.2849,-2.2456 0.049,-4.3816 2.0242,-3.2412 2.6346,-2.9531 -13.3759,-6.3128 -8.3322,-1.7485 -17.3789,-2.4095 -32.0827,-2.3442 -17.4757,0.078 -22.3798,0.6021 -33.44783,3.5772 -15.3432,4.1242 -34.2532,12.2051 -36.1782,15.4603 -4.1002,6.9333 -20.7487,22.44975 -24.0877,22.44975 -2.8911,0 -0.4815,-3.54015 8.3136,-12.21385 l 9.4824,-9.3516 -2.9976,-5.9412 c -2.7791,-5.508 -3.3922,-5.9411 -8.4091,-5.9411 -5.0918,0 -5.4145,0.242 -5.461,4.0956 0.6344,6.5609 -2.7179,5.5326 -8.5816,3.6288 -5.0861,-1.6513 -8.5326,-3.2702 -8.5326,3.69 0,5.9923 2.5795,10.7778 6.3148,11.7152 3.6734,0.9221 4.2409,2.8165 1.1939,3.9858 -3.1354,1.2032 -2.4388,3.4518 1.3652,4.40645 4.0672,1.0209 4.4529,4.0037 0.7724,5.9735 -3.1648,1.6938 -3.9555,1.6686 -7.9398,-0.253 z m 49.3774,-40.11885 c 1.1878,-0.4558 2.1595,-1.4383 2.1595,-2.1834 0,-2.3992 -9.9513,-17.5622 -11.2433,-17.1315 -1.7148,0.5716 -1.4998,1.8097 2.0153,11.611 3.156,8.7999 3.4311,9.0997 7.0685,7.7039 z m 143.34733,-22.1224 c 7.1754,-1.2746 7.9189,-4.0551 1.2321,-4.6072 -3.6484,-0.3012 -5.3275,-1.1393 -5.6457,-2.8179 -0.3442,-1.8168 0.4706,-2.3909 3.4018,-2.3966 4.7712,-0.01 14.1862,-2.526 16.4978,-4.4098 2.2302,-1.8174 -1.683,-5.0328 -6.2015,-5.0957 -4.6484,-0.064 -5.1195,-3.5655 -1.1194,-8.3193 6.2914,-7.477 3.4941,-17.6633 -4.8507,-17.6633 -2.5972,0 -7.9805,6.7644 -7.9805,10.028 0,3.262 -2.6543,4.1163 -5.313,1.7101 -6.7489,-6.1075 -15.5204,1.7798 -10.5002,9.4416 3.4339,5.2408 2.542,6.2573 -2.7506,3.1346 -5.6821,-3.3525 -15.4671,-4.0197 -18.7693,-1.2798 -6.4081,5.317 1.5535,16.2838 13.9801,19.2573 8.5761,2.0519 8.7443,1.9203 16.2405,-12.7057 2.375,-4.6339 5.9092,-10.2683 7.8538,-12.5209 3.15692,-3.0367 6.81731,-7.9277 5.44672,-1.5077 -0.4479,2.0979 -6.13232,10.3893 -9.30092,16.9264 -3.1686,6.5372 -5.9658,12.3464 -6.216,12.9096 -0.5555,1.2497 6.7345,1.2062 13.995,-0.084 z m -107.0076,53.0356 c -2.7423,-2.7423 -3.8453,-8.2411 -1.653,-8.2411 1.6306,0 7.0641,6.0437 7.0641,7.8574 0,2.954 -2.6528,3.1421 -5.4111,0.3837 z m -41.54323,-3.2241 c -2.1725,-1.7384 -3.7084,-3.8637 -3.4131,-4.723 0.7231,-2.1039 9.4109,3.4199 9.4109,5.9836 0,2.6876 -1.4428,2.3843 -5.9978,-1.2606 z m 54.60913,-3.0808 c -0.4559,-1.1877 -0.8287,-3.768 -0.8287,-5.7339 0,-4.7128 2.3847,-2.3675 3.5581,3.4991 0.9086,4.5433 -1.1856,6.258 -2.7294,2.2348 z m -47.02693,-5.4134 c -1.8854,-4.138 -2.0524,-7.4445 -0.3762,-7.4445 1.6469,0 5.6179,6.2386 5.6179,8.8258 0,3.3472 -3.5085,2.4226 -5.2417,-1.3813 z m 58.48523,0.1759 c 0,-1.8158 0.3729,-4.2732 0.8286,-5.461 1.5256,-3.9754 3.267,-2.2157 3.267,3.3014 0,3.9441 -0.5689,5.4609 -2.0478,5.4609 -1.2557,0 -2.0478,-1.2769 -2.0478,-3.3013 z m -43.85533,-10.7013 c 0.7792,-7.9339 3.5368,-4.4108 3.8622,-2.7213 0.3254,1.6895 0.3254,4.454 0,6.1435 -0.3254,1.6894 -4.8399,6.5321 -3.8622,-3.4222 z m 157.99703,-45.496 c -0.4559,-1.1877 -0.8288,-3.9739 -0.8288,-6.1915 0,-2.2176 -0.9881,-5.54 -2.1957,-7.3831 -2.0398,-3.1132 -2.0246,-3.4168 0.2152,-4.2763 1.6595,-0.6367 3.377,0.1982 5.5114,2.6795 2.7597,3.2084 3.5524,3.447 7.213,2.1709 4.7217,-1.6459 10.4959,-1.1838 10.2502,0.8202 -0.092,0.7481 -2.5414,2.5925 -5.4439,4.0987 -2.9024,1.5062 -6.0862,4.4266 -7.0751,6.4898 -1.9702,4.1106 -6.3314,5.0185 -7.6463,1.5918 z m -221.27563,-24.1486 c 1.2498,-9.2277 3.9648,-14.4012 8.1029,-15.4397 5.2632,-1.3211 7.1736,0.9 2.4739,2.876 -4.5408,1.9093 -6.8213,8.5374 -4.4572,12.9547 1.8958,3.5424 2.2739,7.139 -2.4383,8.7816 -6.5408,2.9289 -4.416,-3.7478 -3.6813,-9.1726 z m 44.1589,-6.1158 c -0.096,-0.5631 -0.2497,-3.1741 -0.3412,-5.8022 -0.1692,-4.8566 -1.534,-5.5589 -7.6752,-3.9496 -1.5232,0.3991 -1.9719,-0.4979 -1.7519,-3.5017 0.399,-5.4461 -3.0398,-8.9313 -8.8125,-8.9313 -5.2963,0 -5.6598,-3.105 -0.4528,-3.8675 5.5482,-0.8124 9.7419,1.1334 12.4933,5.7966 1.7309,2.9338 4.0942,4.8507 6.5977,5.3514 4.751,0.9501 7.5607,7.3014 5.559,12.5662 -1.1697,3.0767 -5.2034,4.7558 -5.6164,2.3381 z m 60.95983,-9.9828 c -2.2347,-0.665 -5.0569,-2.5268 -6.2717,-4.1372 -1.8372,-2.4357 -2.6886,-2.6713 -5.0624,-1.4008 -7.203,3.8549 -16.2212,0.834 -20.14153,-6.7468 -1.1412,-2.2071 -3.1721,-4.0128 -4.513,-4.0128 -2.8287,0 -7.616,-4.9311 -8.4086,-7.2205 -1.9495,-5.6308 4.3162,-13.3298 10.4296,-15.1642 8.95716,-2.6877 14.92013,-1.6185 19.72163,3.1832 3.3775,3.3773 4.7604,3.8849 8.7998,3.2294 3.5215,-0.5715 5.5226,-0.1171 7.5444,1.7125 2.6755,2.4212 2.9634,2.383 10.3945,-1.3796 6.0771,-3.0772 8.373,-3.6131 11.2077,-2.6162 4.6693,1.6421 7.489,7.6284 6.3794,13.5433 -0.7977,4.2521 -10.8906,17.8015 -14.7984,19.8664 -3.2754,1.7307 -11.2921,2.3305 -15.2814,1.1433 z m 19.198,-15.0732 c 5.0232,-6.0123 5.9157,-10.7702 2.5452,-13.5674 -1.7502,-1.4526 -3.3864,-1.2288 -9.4788,1.2963 -6.39747,2.8421 -6.11429,3.9756 -11.3604,0.097 -3.7816,-2.7958 -4.2233,-2.8379 -8.2011,-0.7809 -5.7372,2.9668 -6.2937,2.8192 -8.5305,-2.2628 -2.1401,-4.8623 -6.0457,-6.0642 -14.53163,-4.4722 -9.5625,1.7938 -13.4191,10.5714 -5.8103,13.2239 2.2754,0.7932 5.0464,3.2004 6.1576,5.3493 3.44093,6.6539 11.96983,8.8947 17.61193,4.6274 4.1336,-3.1266 7.3208,-2.3877 9.7207,2.2534 2.1163,4.0922 2.4739,4.2318 9.1926,3.5862 7.89736,-0.2373 8.54745,-4.3729 12.6847,-9.3502 z m 64.9571,-4.9788 c -2.2511,-5.751 -2.4438,-8.8728 -0.5878,-9.5221 0.9277,-0.3245 2.4195,1.0177 3.3149,2.9829 1.1555,2.536 2.2507,3.2857 3.7739,2.5832 1.1803,-0.5444 4.6033,-1.0289 7.6069,-1.0766 7.3998,-0.1178 7.6108,3.613 0.2718,4.8058 -2.8539,0.4639 -5.895,1.5495 -6.7578,2.4123 -2.697,2.697 -6.0918,1.7236 -7.6219,-2.1855 z m -24.0547,-4.7782 c -0.2933,-0.9386 -0.9229,-4.0459 -1.3991,-6.9051 -0.4761,-2.8592 -2.0599,-6.2211 -3.5194,-7.4708 -3.223,-2.7597 -3.3984,-4.3959 -0.4711,-4.3959 1.2006,0 3.9137,1.8531 6.0294,4.118 l 3.8468,4.1179 6.5785,-3.4979 c 7.9927,-4.2498 14.6034,-4.1429 15.229,0.2462 0.3464,2.4302 -0.7336,3.3192 -6.2643,5.1562 -3.6756,1.2208 -8.4329,4.0463 -10.5718,6.2787 -4.0278,4.2042 -8.5293,5.3239 -9.458,2.3527 z" fill="#00B894" transform="translate(-221.04521,66.38715) matrix(0.7921412,0,0,0.7921412,1090.4787,848.03158)"/>
</svg>