<?xml version="1.0" ?><svg height="96.67141mm" viewBox="0 0 72.109673 96.67141" width="72.109673mm" xmlns="http://www.w3.org/2000/svg">
    <path color="#000" d="m 5791.7276,4794.6654 c -0.8811,-0.03 -1.8314,0.049 -2.8526,0.2455 -16.3399,3.1476 -13.3914,83.8519 -13.3914,83.8519 0,0 -46.0123,-26.9012 -53.7724,-10.7206 -7.76,16.1806 52.5705,47.9529 52.5705,47.9529 0,0 17.9276,-60.9395 23.3923,-78.989 5.1233,-16.9214 7.2689,-41.8802 -5.9464,-42.3407 z m -161.3765,151.4176 v 206.7773 h 271.3506 V 4946.083 Z" fill="#FFFFFF" overflow="visible" paint-order="fill markers stroke" transform="translate(-4.5458604,-136.03153) matrix(0.26458333,0,0,0.26458333,-1484.9932,-1130.658)"/>
    <path d="m 5732.4362,5073.7031 c 0.9273,-10.226 -0.5365,-27.6974 7.2903,-41.0476 5.4572,-9.3086 12.4366,-19.2868 15.5095,-22.1737 11.3912,-10.7015 13.5127,-16.8118 14.2624,-41.0779 0.3866,-12.5144 -0.102,-28.8518 -1.0846,-36.3053 -1.5862,-12.0251 -2.8012,-14.5179 -10.7835,-22.1239 -11.4896,-10.948 -22.0084,-18.801 -32.3784,-24.1726 -14.1047,-7.3063 -15.6727,-20.6419 -3.1861,-27.0989 8.6888,-4.4932 22.816,-2.6776 35.8503,4.6074 5.3259,2.9767 10.0516,5.4122 10.5016,5.4122 0.4501,0 0.1827,-13.9853 -0.5939,-31.0784 -0.7766,-17.093 -0.7645,-33.6586 0.027,-36.8122 2.9871,-11.9011 30.9481,-19.3405 39.0488,-10.3894 5.673,6.2686 6.5515,17.7598 2.4423,31.9452 -2.0307,7.0107 -4.4889,13.7218 -5.4626,14.9136 -1.7557,2.1493 -10.8359,24.9203 -9.9372,24.9203 0.2576,0 4.5049,-1.9504 9.4385,-4.334 17.4746,-8.4428 33.8705,-3.7056 32.5964,9.4178 -0.6222,6.4082 -1.841,7.3076 -19.539,14.419 -10.3814,4.1714 -21.2832,9.884 -24.2259,12.6945 -5.7002,5.4441 5.4024,8.3147 -9.0843,63.6915 -1.7852,6.8242 -1.1931,21.128 -1.1931,21.128 h 5.5113 c 6.4205,0 12.9319,8.345 10.8152,13.8607 -0.8115,2.115 0.1943,5.3935 2.4041,7.835 2.7875,3.0802 9.3856,11.5666 9.1744,20.7275 -0.3451,14.9694 -5.2704,32.4964 -12.0017,41.52 -5.3321,7.1478 -29.976,21.1225 -41.5789,23.5781 -21.8994,9.0497 -25.4597,4.1864 -23.8229,-14.0569 z m 36.3027,-3.7526 c 17.1776,-8.7816 25.0586,-24.7159 27.402,-44.4974 1.6415,-13.8569 -4.2481,-20.6832 -7.2026,-22.934 -4.7395,-3.6103 -6.2169,-3.4145 -7.6551,1.0146 -0.6772,2.0858 -4.8872,5.3354 -9.3556,7.2214 -6.6012,2.7863 -10.2575,7.0249 -19.5011,22.6076 -13.292,22.4073 -10.9906,42.547 -1.4566,42.547 3.3618,0 11.3578,-2.6816 17.769,-5.9592 z m 0.4817,-175.232 c 0,-8.2809 -11.6499,-19.8644 -24.1556,-24.0182 -9.8088,-3.2578 -11.2962,-3.293 -14.2524,-0.3369 -2.9561,2.9562 -2.3578,3.8958 5.7328,9.0032 4.9683,3.1363 13.4524,9.0756 18.8534,13.1982 11.67,8.9081 13.8218,9.2434 13.8218,2.1537 z m 17.3359,-24.9957 c 0,-1.1919 -0.9752,-2.167 -2.167,-2.167 -1.1919,0 -2.1671,0.9751 -2.1671,2.167 0,1.1919 0.9752,2.167 2.1671,2.167 1.1918,0 2.167,-0.9751 2.167,-2.167 z m 4.3104,-32.7808 c 8.5842,-18.6235 10.9856,-33.6512 5.7017,-35.6788 -4.8351,-1.8554 -14.051,4.5665 -16.7755,11.6897 -2.4147,6.3127 -0.4541,39.434 2.3342,39.434 0.8913,0 4.8242,-6.9502 8.7396,-15.4449 z m 39.3789,120.0162 c -8.7099,-4.2098 -9.6023,-6.2881 -27.4325,-5.5391 -11.1632,0.4689 -15.3758,-3.4956 -10.2619,-9.6573 3.6747,-4.4276 29.2056,-4.3395 37.7776,0.1305 5.1529,2.6869 8.4022,2.8927 16.9007,1.07 13.3455,-2.862 23.3101,-2.8886 23.3101,-0.063 0,1.2069 -5.1195,4.4622 -11.3767,7.234 -6.2571,2.7719 -12.715,6.6602 -14.3507,8.6407 -8.0035,5.8357 -7.2648,1.7126 -14.5666,-1.8166 z m -200.4918,-8.8381 c 0,-4.1073 1.8842,-5.0035 9.2301,-8.8023 9.8312,-5.0839 32.8682,-2.193 47.4096,3.0361 9.5583,3.4371 12.4687,3.6672 18.5529,1.4671 10.1374,-3.6657 31.3968,-4.8317 37.4886,-2.0561 8.8578,4.036 6.2538,8.1347 -5.1776,8.1495 -5.6612,0.011 -13.0862,1.47 -16.5,3.2505 -7.9383,4.1401 -25.8676,4.1447 -39.497,0.011 -15.3083,-4.644 -30.3184,-6.9303 -40.6247,-1.6724 -3.9873,1.2935 -10.7663,0.8343 -10.8819,-3.3832 z m 259.1225,1.2259 c -1.2161,-3.1688 2.5449,-9.7238 5.579,-9.7238 4.1185,0 8.9299,5.8518 7.6194,9.2668 -1.775,4.6254 -11.47,4.9611 -13.1984,0.457 z" fill="#00B894" transform="translate(-4.5458604,-136.03153) matrix(0.26458333,0,0,0.26458333,-1484.9932,-1130.658)"/>
</svg>