<?xml version="1.0" ?><svg height="58.049412mm" viewBox="0 0 72.519295 58.049412" width="72.519295mm" xmlns="http://www.w3.org/2000/svg">
    <path color="#000" d="M4805.2124 4945.5986H5076.5615800000005V5152.37402H4805.2124z" fill="#FFFFFF" overflow="visible" paint-order="fill markers stroke" transform="translate(62.217528,-122.72887) matrix(0.26458333,0,0,0.26458333,-1332.8718,-1182.454)"/>
    <path d="m 4907.9274,5109.5822 c -0.6709,-1.7485 -0.774,-4.4301 -0.2292,-5.9592 0.5448,-1.5291 -0.4158,-5.563 -2.1346,-8.9643 -2.3488,-4.6482 -2.9478,-12.7393 -2.4114,-32.5779 0.6289,-23.2539 1.3734,-27.6743 6.2583,-37.1556 6.9183,-13.4276 19.618,-22.3996 34.1417,-24.1197 9.4948,-1.1244 11.2937,-0.6145 17.5252,4.9691 13.0801,11.7195 13.566,36.2356 1.2403,62.5635 -11.2634,24.0587 -32.8496,44.3958 -47.1431,44.415 -3.315,0 -6.5762,-1.4224 -7.2472,-3.1709 z m 40.337,-45.5079 c 3.7221,-7.9074 6.7039,-18.6731 7.5471,-27.2489 1.2222,-12.4294 0.825,-14.9001 -3.2215,-20.0446 -2.5385,-3.2272 -6.1592,-5.8676 -8.046,-5.8676 -5.7327,0 -17.4889,10.4029 -23.6642,20.9402 -5.0593,8.633 -5.8588,12.4444 -6.0075,28.639 -0.096,10.4484 1.6384,22.4586 2.7795,27.5736 l 2.9511,8.8929 10.7543,-9.9064 c 6.5565,-6.0396 13.1559,-15.0085 16.9072,-22.9782 z m 43.3162,-100.502 c -10.2759,-8.4106 -15.9377,-11.1676 -22.9339,-11.1676 -3.2622,0 -7.7632,-1.658 -10.0024,-3.6845 -3.5921,-3.2507 -4.888,-3.3366 -11.0056,-0.7293 -8.5168,3.6299 -17.102,3.6651 -29.0949,0.1194 -11.8923,-3.5161 -22.7519,-1.3628 -31.5183,6.2495 -9.7608,8.4758 -12.3,8.9047 -22.1652,3.7431 -7.2982,-3.8184 -12.7772,-4.5713 -34.6717,-4.7641 -20.8476,-0.1835 -27.7157,-2.9929 -27.7157,-5.4472 0,-7.3615 28.2108,-8.3184 54.5241,-4.0487 12.7317,2.0658 14.5873,1.8362 23.8368,-2.9484 13.3513,-6.9066 25.4147,-8.5333 38.3895,-5.1763 8.4154,2.1772 12.4629,2.2056 19.3143,0.1356 15.1322,-4.5719 26.5534,-3.6827 32.7888,2.5527 3.7035,3.7035 6.8726,5.0704 9.6858,4.1775 2.4759,-0.7859 6.1782,-2.1719 10.5282,0.5166 7.3333,4.5322 8.998,2.4356 20.6052,0.4602 15.2234,-2.5909 25.3168,-4.511 43.4089,-2.5509 13.1764,1.4276 19.2347,2.7134 19.2347,6.4781 0,3.9919 -5.6806,3.8735 -24.5246,4.3436 -24.352,0.6075 -32.2829,2.887 -39.9381,11.4786 -7.1024,7.9712 -9.2896,8.0017 -18.7459,0.2621 z" fill="#00B894" transform="translate(62.217528,-122.72887) matrix(0.26458333,0,0,0.26458333,-1332.8718,-1182.454)"/>
</svg>