<?xml version="1.0" ?><svg height="64.570297mm" viewBox="0 0 72.049911 64.570297" width="72.049911mm" xmlns="http://www.w3.org/2000/svg">
    <path color="#000" d="m 5300.7036,4917.506 c -0.3335,-0.012 -0.6742,-0.011 -1.0243,0.017 -5.3972,0.3555 -6.0496,14.2552 -5.2904,28.5601 h -142.2207 v 206.7773 h 271.3507 v -206.7775 h -110.1351 c -1.2079,-16.9601 -4.406,-28.2636 -12.6802,-28.577 z" fill="#FFFFFF" overflow="visible" paint-order="fill markers stroke" transform="translate(8.7359581,-104.15987) matrix(0.26458333,0,0,0.26458333,-1371.7661,-1194.6308)"/>
    <path d="m 5251.7294,5110.6868 c -9.506,-4.6125 -12.4681,-13.8171 -11.0186,-34.2388 1.523,-21.4556 5.0482,-32.9717 14.6099,-47.7279 8.5507,-13.1961 16.5372,-19.0672 27.7806,-20.4224 12.3687,-1.4908 13.782,-2.8199 12.6121,-11.8594 -1.4748,-11.3944 -7.5679,-43.0489 -10.553,-54.8237 -2.179,-8.5957 -2.0005,-11.5871 1.1907,-19.9432 9.2867,-24.3167 35.9676,-11.4936 34.1413,16.4086 -0.3682,5.6267 -0.1235,5.7651 6.2594,3.5401 3.8859,-1.3547 12.2153,-1.7289 20.0711,-0.9016 7.3856,0.7777 20.7419,1.7662 29.6808,2.1965 19.7106,0.9492 41.0275,-0.7788 44.7151,1.5405 4.1305,2.5977 3.3448,11.8352 -1.0835,12.7387 -7.2494,1.4791 -22.5331,2.7248 -24.5242,-0.8332 -2.7296,-4.8775 -13.0225,-4.468 -19.6987,0.7835 -7.3092,5.7495 -13.688,5.4679 -21.304,-0.9406 -6.3052,-5.3054 -15.4968,-5.8032 -20.2525,-1.0967 -1.1322,1.1206 -4.3014,2.0373 -7.0426,2.0373 -4.6979,0 -4.9841,0.8222 -4.9841,14.3173 0,12.852 0.3881,14.1396 3.7923,12.5813 2.0856,-0.9548 8.1431,-1.7904 13.4611,-1.8571 8.0939,-0.1009 10.0934,0.7241 12.2744,5.0678 4.8204,9.6003 1.0265,13.9901 -20.8134,24.0819 -1.7621,0.8143 -3.797,4.3809 -4.5221,7.9259 -0.725,3.545 -3.3188,9.3027 -5.764,12.795 -2.5288,3.612 -5.5086,13.2169 -6.9107,22.2767 -1.3558,8.7598 -3.9549,18.8079 -5.7756,22.3289 -7.7071,14.9039 -35.3958,36.6471 -46.2999,36.3581 -3.0442,-0.081 -7.5631,-1.1307 -10.0419,-2.3335 z m 24.1855,-19.3105 c 12.3575,-8.5021 19.6255,-16.226 25.0187,-26.5879 6.0862,-11.6934 4.4014,-17.9899 -1.9385,-7.2446 -3.6918,6.257 -6.0391,8.0807 -9.7271,7.5568 -4.7089,-0.6689 -4.8408,-1.3517 -4.216,-21.8186 0.7349,-24.0715 -0.2712,-25.1757 -12.7625,-14.0041 -11.0505,9.8832 -16.3817,20.4991 -19.1033,38.0402 -3.1448,20.2687 -3.0668,21.3126 1.9666,26.3461 5.8736,5.8736 9.4769,5.4765 20.7621,-2.2879 z m 37.3402,-74.0444 c -0.3725,-2.5245 -1.6524,-4.9019 -2.8443,-5.2833 -2.9643,-0.9484 -11.9321,15.2104 -11.8597,21.3695 0.054,4.6074 0.6434,4.359 7.7199,-3.254 4.8325,-5.1989 7.4113,-9.937 6.9841,-12.8322 z m -5.1156,-58.5621 c -0.4022,-12.2163 -0.787,-23.918 -0.8552,-26.0038 -0.1649,-5.0477 -3.6748,-4.8537 -5.0166,0.2774 -2.1086,8.0627 2.7791,47.9379 5.8758,47.9379 0.4,0 0.3982,-9.9952 0,-22.2115 z m -89.7641,-7.149 c -9.4146,-6.6463 -20.5125,-6.8851 -40.0162,-0.861 -15.2192,4.7007 -24.1089,3.9152 -26.4099,-2.0813 -2.1165,-5.5154 5.4794,-7.6615 28.1713,-12.1233 17.9291,-3.5252 21.9068,-3.6787 31.0058,-1.1965 5.8932,1.6076 19.4021,2.6696 31.0245,2.4389 28.2951,-0.5616 39.0056,1.1676 39.0056,6.2973 0,5.2495 -3.1183,6.2002 -16.2522,4.9545 -7.5581,-0.7168 -14.9104,0.352 -24.3102,3.5338 -7.4114,2.5087 -13.7498,4.5136 -14.0854,4.4551 -0.3355,-0.058 -3.9956,-2.4963 -8.1333,-5.4175 z" fill="#00B894" transform="translate(8.7359581,-104.15987) matrix(0.26458333,0,0,0.26458333,-1371.7661,-1194.6308)"/>
</svg>