<?xml version="1.0" ?><svg height="62.643772mm" viewBox="0 0 64.555435 62.643772" width="64.555435mm" xmlns="http://www.w3.org/2000/svg">
    <path color="#000" d="m 20282.402,4118.7741 a 101.24731,103.1903 0 0 1 -101.247,103.1903 101.24731,103.1903 0 0 1 -101.248,-103.1903 101.24731,103.1903 0 0 1 101.248,-103.1904 101.24731,103.1903 0 0 1 101.247,103.1904 z" fill="#FFFFFF" overflow="visible" paint-order="fill markers stroke" transform="translate(170.32244,25.348818) matrix(0.26458333,0,0,0.26458333,-5479.9509,-1080.7593)"/>
    <path d="m 20207.03,3988.9546 c -11.121,-0.062 -21.538,1.7412 -34.264,5.2498 -15.382,4.241 -31.801,10.1988 -36.485,13.2391 -4.684,3.0406 -13.368,5.5277 -19.297,5.5277 -15.33,0 -38.489,17.0923 -45.324,33.4522 -6.374,15.2509 -4.466,28.0792 4.174,28.0792 2.36,0.3254 5.036,1.4859 7.723,2.6045 -5.913,13.4915 -9.768,31.7746 -10.222,41.0736 -6.448,0.5867 -7.005,11.0834 2.164,11.0122 0.664,19.1418 11.02,41.0637 20.603,55.9153 3.971,5.8302 15.12,16.9814 19.66,19.6631 0.564,0.3337 3.045,1.8371 5.512,3.3409 38.998,23.7819 90.66,24.8893 129.238,-5.4362 1.447,4.1097 4.698,5.8048 8.592,9.5911 2.488,2.4882 6.773,4.5225 9.523,4.5225 5.758,0 6.821,-13.8021 1.322,-17.1999 -8.184,-5.0592 0.523,-13.2333 11.717,-10.9948 12.859,2.572 13.574,0.8029 4.978,-12.318 -7.086,-10.8133 -4.96,-11.9358 7.344,-3.8743 5.819,3.8126 10.388,4.4289 14.286,1.9238 4.273,-2.7455 4.562,-4.4424 1.135,-6.6653 -3.312,-2.1482 -3.607,-7.2511 -1.053,-18.265 5.478,-23.6305 4.375,-79.0106 -2.003,-100.4871 -7.021,-23.6397 -26.231,-44.3343 -46.54,-50.1361 -23.026,-6.5784 -38.486,-9.7391 -52.783,-9.8183 z m -16.946,10.5497 c 0.145,0 0.289,-3e-4 0.433,0.01 1.912,0.086 3.597,0.826 4.378,2.0903 1.25,2.0227 -1.29,3.6787 -5.645,3.6787 -9.285,0 -10.223,-2.1396 -2.274,-5.1899 1.019,-0.3909 2.089,-0.5809 3.108,-0.5874 z m 21.787,1.9295 c 1.991,0 4.687,1.7326 5.994,3.8478 1.307,2.1149 -0.32,3.8453 -3.617,3.8453 -3.298,0 -5.998,-1.7304 -5.998,-3.8453 0,-2.1152 1.631,-3.8478 3.621,-3.8478 z m 48.308,8.977 c 0.563,0.01 1.216,0.2101 1.91,0.639 2.115,1.3072 3.847,3.139 3.847,4.0716 0,0.9328 -1.732,1.6976 -3.847,1.6976 -2.115,0 -3.846,-1.8339 -3.846,-4.0741 0,-1.3998 0.677,-2.2229 1.7,-2.3241 0.08,-0.01 0.156,-0.01 0.236,-0.01 z m -53.623,17.3955 c 15.261,1.7291 27.938,6.5579 38.068,14.0097 -3.625,-0.965 -8.537,-2.4143 -15.223,-4.4403 -12.266,-3.7159 -20.248,-7.1845 -22.845,-9.5694 z m -43.625,2.8093 c 4.248,2.5904 9.17,5.8091 14.144,9.299 11.404,7.9991 25.25,15.3221 38.618,20.8146 -3.097,1.0082 -6.49,2.9729 -9.511,6.0421 -5.016,4.2867 -13.589,9.5027 -20.866,15.2704 -3.816,2.5462 -9.341,9.015 0.879,10.5761 3.342,0.1381 5.416,0.1923 5.118,4.0981 -1.342,20.3624 18.306,16.7261 12.351,-2.2516 -1.736,-8.9469 -5.84,-4.3349 -8.887,-3.5656 0,-0.7674 1.349,-1.7824 7.151,-5.3813 7.924,-4.964 13.941,-10.9387 21.38,-16.9695 1.257,-1.5536 1.954,-2.9227 2.197,-4.0865 11.142,3.8817 21.394,6.1943 28.894,6.1943 9.053,0 14.291,4.008 17.716,15.8834 2.12,9.3218 3.102,19.5373 2.948,30.5057 -1.347,18.0456 -5.569,39.6729 -19.857,59.3944 -21.02,30.8989 -76.572,43.4707 -113.677,25.8923 -1.324,-0.3775 -3.056,-1.2528 -3.85,-1.9447 -1.546,-4.0583 -10.945,-32.5896 -0.787,-21.6733 18.02,18.195 24.144,9.345 31.186,-10.0422 0.103,-2.2977 4.489,-8.2025 7.196,-4.164 5.049,6.271 4.212,4.6633 7.878,7.2862 8.681,5.28 24.39,-26.8629 25.823,-16.03 4.067,30.7113 23.56,0.7981 22.891,12.1223 -0.534,9.0801 11.868,7.1091 12.061,-8.5842 -0.907,-9.5054 -8.472,-13.6643 -18.414,-6.3366 -2.662,1.9677 -6.178,5.0419 -6.877,-0.837 0,-2.0613 -2.188,-8.0794 -3.417,-9.3981 -8.081,-7.6205 -18.558,1.6948 -24.127,7.688 -6.046,6.0791 -7.269,6.7062 -9.115,4.6664 -12.437,-10.994 -19.934,-2.7651 -23.859,6.613 -2.143,4.7687 -4.685,19.1671 -13.106,10.0437 -3.969,-3.4635 -25.884,-21.2371 -23.511,0.2172 0.477,6.1712 1.279,14.2164 4.337,22.1669 -1.127,1.1271 -10.034,-6.0322 -14.952,-12.0184 -4.925,-5.9958 -11.563,-18.8101 -14.691,-28.3628 -1.864,-5.717 -3.773,-14.5394 -5.09,-22.5789 -0.885,-2.3039 0.874,-2.6821 16.474,-3.5414 14.825,-1.3795 14.405,-13.8785 -2.555,-11.1472 -7.343,0.1562 -13.536,0.1495 -13.762,-0.014 1.931,-38.383 25.961,-74.7011 71.669,-85.8459 z m -63.679,3.118 c 0.06,-0.01 0.112,-0.01 0.164,0.01 0.104,0.016 0.193,0.06 0.265,0.1323 1.247,1.248 -1.503,7.3698 -6.111,13.6035 -4.61,6.2335 -8.379,13.1328 -8.379,15.3335 0,2.2005 -1.731,4.0017 -3.846,4.0017 -2.116,0 -3.845,-1.3291 -3.845,-2.9531 0,-5.1665 18.078,-29.8423 21.752,-30.123 z m 105.899,6.2725 c 0.174,-0.01 0.351,-0.01 0.529,0 2.864,0.073 6.332,1.3392 8.753,3.7604 2.132,2.1316 11.565,6.2877 20.96,9.2349 12.079,3.7883 14.267,5.3789 7.468,5.4337 -12.513,0.1 -42.301,-10.4752 -42.301,-15.0181 0,-2.2125 1.984,-3.3385 4.591,-3.4109 z m -79.695,32.6617 c -9.728,-0.208 -2.688,14.3817 7.036,13.5028 7.07,-0.6391 18.676,6.9384 26.103,9.6117 11.509,3.7927 13.691,-1.3095 6.57,-8.2838 -7.702,-7.5417 -24.314,-10.8362 -36.136,-14.2583 -1.381,-0.3717 -2.567,-0.551 -3.573,-0.5724 z m 22.25,24.0499 c -4.023,0.1142 -5.855,2.9626 -4.35,7.2312 2.323,19.3185 18.516,12.7247 14.209,2.8675 -1.983,-4.1158 -0.639,-8.2641 -8.004,-9.9763 -0.66,-0.099 -1.28,-0.1387 -1.855,-0.1224 z" fill="#00B894" transform="translate(170.32244,25.348818) matrix(0.26458333,0,0,0.26458333,-5479.9509,-1080.7593)"/>
</svg>