<?xml version="1.0" ?><svg height="69.158455mm" viewBox="0 0 64.003777 69.158455" width="64.003777mm" xmlns="http://www.w3.org/2000/svg">
    <path d="m 39283.207,10300.474 c -35.228,-0.277 -77.012,13.075 -88.793,56.832 -20.944,77.789 13.954,109.947 52.404,124.617 22.385,17.852 74.026,1.196 118.574,-31.217 44.548,-32.412 18.505,-98.433 -13.853,-127.654 -14.157,-12.784 -40.934,-22.363 -68.332,-22.578 z" fill="#FFFFFF" paint-order="markers stroke fill" transform="translate(-130.74929,-35.230185) matrix(0.26458333,0,0,0.26458333,-10232.393,-2673.8137)"/>
    <path d="m 39251.863,10253.11 c 2.908,5.438 2.254,7.487 -2.984,9.338 -34.568,12.199 -39.431,12.777 -50.689,20.361 -30.184,20.336 -18.077,42.41 -12.298,44.721 -25.712,10.189 -19.285,48.502 -9.661,45.639 -7.735,38.074 5.838,83.409 29.618,101.598 9.342,7.146 23.619,18.554 35.09,21.548 31.459,8.21 54.18,2.2 75.875,-4.449 14.531,-4.524 20.479,-11.231 22.626,-8.726 9.638,11.245 24.598,3.241 14.914,-8.992 0,0 5.436,-2.642 15.134,-12.043 7.134,-6.915 15.707,-19.737 19.051,-28.491 3.344,-8.754 8.416,-16.812 11.275,-17.91 7.17,-2.751 9.749,-25.783 2.25,-51.768 10.099,-2.452 13.439,-25.143 -10.912,-43.57 20.148,-11.626 -12.999,-42.229 -45.562,-49.148 -9.678,-2.056 -16.33,-7.16 -16.33,-7.16 14.942,-6.623 0.969,-28.069 -24.539,-12.082 -9.367,7.351 -4.179,0.711 -18.313,-6.864 -11.769,-9.174 -43.313,-9.476 -34.545,7.998 z m 46.311,109.946 c 6.845,17.924 16.999,26.045 28.726,22.976 4.796,-1.252 9.138,1.025 12.903,6.772 3.122,4.765 10.648,10.722 16.724,13.238 12.53,5.192 20.69,-6.855 15.785,8.314 -7.914,24.479 -29.072,40.597 -32.898,39.058 -12.314,-11.183 -22.886,1.173 -15.856,8.868 -1.671,2.901 -17.788,8.44 -29.407,10.852 -41.874,8.696 -56.678,-4.391 -73.702,-19.887 -5.768,-5.416 -12.927,-15.689 -15.912,-22.832 -6.904,-16.515 -7.367,-54.406 -0.668,-54.406 2.62,0 14.83,-6.627 27.142,-14.721 20.816,-13.693 22.569,-14.218 25.067,-7.488 3.451,9.308 14.36,9.244 26.287,-0.139 13.754,-11.664 9.476,-7.191 15.809,9.395 z m -1.729,47.828 c -1.561,-0.02 -3.332,0.336 -5.275,1.082 -5.914,2.269 -8.235,16.673 -3.459,21.449 5.8,5.801 16.222,-2.555 16.222,-13.006 0,-6.094 -2.805,-9.475 -7.488,-9.525 z m 26.201,6.093 c -3.373,3.369 -3.742,9.781 -2.496,13.03 2.889,7.541 11.425,7.59 17.633,0.111 3.979,-4.796 4.657,-11.439 -0.489,-16.586 -4.915,-5.717 -10.643,-0.545 -14.648,3.445 z m -85.154,0.649 c -3.788,0.43 -7.873,2.867 -13.738,7.48 -13.064,10.276 -10.007,13.007 5.896,5.266 l 12.514,-6.092 -10.291,9.381 c -5.664,5.157 -10.297,10.249 -10.297,11.313 0,3.088 12.176,-2.15 23.902,-10.287 10.186,-7.067 10.413,-7.781 3.967,-12.495 -4.675,-3.418 -8.165,-4.996 -11.953,-4.566 z m 21.363,17.139 c -5.747,0.2 -24.022,12.041 -22.306,16.511 1.257,3.275 6.538,0.202 8.423,-0.754 13.123,-6.812 17.883,-11.417 15.606,-15.099 -0.3,-0.486 -0.902,-0.689 -1.723,-0.66 z m 0.596,12.375 c -2.058,0 -4.785,1.686 -6.057,3.744 -1.272,2.061 -0.627,3.746 1.434,3.746 2.058,0 4.783,-1.685 6.055,-3.746 1.272,-2.058 0.629,-3.744 -1.432,-3.744 z m 23.893,11.041 c -2.06,-0.109 -4.326,2.611 -5.036,6.045 -0.809,3.909 0.592,5.616 3.743,4.566 5.828,-1.943 6.85,-10.313 1.293,-10.611 z" fill="#00B894" transform="translate(-130.74929,-35.230185) matrix(0.26458333,0,0,0.26458333,-10232.393,-2673.8137)"/>
</svg>