<?xml version="1.0" ?><svg height="89.078514mm" viewBox="0 0 70.196953 89.078514" width="70.196953mm" xmlns="http://www.w3.org/2000/svg">
    <path d="m 9467.8859,2491.573 c 15.183,-39.7502 42.69,-80.7426 103.323,-84.5579 60.633,-3.8153 79.858,77.5484 80.056,109.5792 0.197,32.0308 -38.549,73.6443 -85.281,74.2654 -46.732,0.6211 -102.337,-19.7864 -98.098,-99.2867 z" fill="#FFFFFF" transform="translate(101.62228,-59.026218) matrix(0.2760722,0,0,0.2760722,-2706.1583,-597.18536)"/>
    <path d="m 9569.9068,2376.9662 c -15.574,-0.1503 -21.484,1.3505 -38.207,9.6981 -33.127,16.5362 -63.755,52.1105 -71.95,83.5723 -1.624,6.2359 -3.269,18.3542 -3.655,26.9287 -0.818,18.1472 -3.365,22.6749 -12.759,22.6749 -7.781,0 -11.879,7.2429 -6.909,12.2125 1.83,1.8307 8.059,4.6757 13.84,6.3224 l 10.512,2.9943 -0.971,16.873 c -0.533,9.2793 -3.401,27.0739 -6.375,39.5458 -6.163,25.8396 -9.905,65.2778 -7.212,76.0075 1.244,4.9574 4.047,7.5184 8.901,8.1323 l 7.088,0.8975 c 5.331,32.507 35.923,7.8154 35.923,7.8154 7.245,-2.558 10.399,-6.9639 11.973,-16.7317 1.481,-9.183 2.965,-11.0663 9.315,-11.8033 9.61,-1.1154 12.938,-5.2111 14.114,-17.3698 2.242,-19.1804 0.02,-25.992 -0.478,-39.5244 0,-8.2301 0,-8.2343 12.047,-5.4895 6.627,1.5108 20.977,2.3321 31.89,1.8249 16.156,-0.7508 19.841,-0.1319 19.841,3.3305 -1.91,10.5939 -1.245,21.2907 0.712,33.6173 2.339,6.3588 6.894,9.0482 12.42,7.3314 3.452,-1.0727 5.081,0.9796 6.413,8.0723 1.978,10.5481 13.498,22.9005 24.39,26.1555 3.897,1.1647 8.024,3.5408 9.169,5.2795 11.128,26.2624 31.931,2.8185 31.931,2.8185 4.868,-2.1401 5.796,-5.6985 6.566,-25.1679 0.492,-12.472 -1.056,-39.8962 -3.443,-60.9424 -5.9,-52.0442 -7.436,-69.021 -10.127,-111.9637 -2.146,-34.2648 -3.043,-38.3971 -12.809,-58.9333 -8.435,-17.736 -13.379,-24.2464 -25.109,-33.0584 -17.526,-13.1686 -42.001,-20.878 -67.041,-21.1202 z m -37.158,85.7014 c 14.744,0.023 30.307,0.4989 42.827,1.5056 44.641,3.5892 39.952,-2.3257 39.047,49.2438 l -0.782,44.4548 -13.763,8.5051 c -10.878,6.7228 -17.414,8.6288 -31.18,9.0875 -18.947,0.6316 -24.229,-0.094 -46.087,-6.3204 -14.298,-4.0733 -35.105,-20.7327 -35.105,-28.1065 0,-1.8531 4.013,-4.5198 8.918,-5.9263 20.827,-5.9731 17.689,-21.7863 -4.61,-23.234 l -13.535,-0.8804 1.364,-21.2378 c 0.749,-11.682 2.506,-22.3829 3.904,-23.7781 2.135,-2.1309 24.43,-3.3517 49.002,-3.3133 z m 26.141,12.2851 c -0.413,-0.011 -0.837,0.018 -1.272,0.079 -7.122,1.0144 -9.841,11.7091 -4.589,18.0381 4.806,5.7904 10.515,5.0782 12.627,-1.5743 2.754,-8.6799 -0.591,-16.4269 -6.766,-16.5431 z m -34.336,2.371 c -5.834,0 -10.637,11.2602 -7.186,16.8451 1.019,1.6475 4.253,2.9965 7.186,2.9965 6.983,0 9.447,-4.3604 7.299,-12.9171 -1.104,-4.4 -3.765,-6.9245 -7.299,-6.9245 z m 72.054,63.1804 c -9.68,0.044 -30.334,5.8246 -31.691,9.8994 -0.634,1.9018 1.823,4.639 5.461,6.0826 3.638,1.4437 8.529,2.2004 10.867,1.6791 2.339,-0.521 7.618,-1.6934 11.733,-2.6043 8.268,-1.8302 12.756,-9.5287 8.207,-14.078 -0.693,-0.6929 -2.343,-0.9888 -4.577,-0.9788 z" fill="#00B894" transform="translate(101.62228,-59.026218) matrix(0.2760722,0,0,0.2760722,-2706.1583,-597.18536)"/>
</svg>