<?xml version="1.0" ?><svg height="64.986664mm" viewBox="0 0 68.111099 64.986664" width="68.111099mm" xmlns="http://www.w3.org/2000/svg">
    <path color="#000" d="m 19267.066,4920.9918 c -6.761,-78.9697 62.571,-119.5802 108.947,-118.4766 46.378,1.1045 90.867,29.4774 105.058,81.3234 22.999,84.0235 -90.083,123.7397 -93.415,119.6999 -17.662,45.526 -29.966,42.5203 -49.437,-3.6327 -23.156,14.3454 -68.912,-52.728 -71.153,-78.914 z" fill="#FFFFFF" overflow="visible" paint-order="fill markers stroke" transform="translate(-78.7695,-0.69052807) matrix(0.26458333,0,0,0.26458333,-5017.0497,-1268.0238)"/>
    <path d="m 19350.042,5031.8396 c -2.969,-3.4584 -6.469,-10.1813 -7.823,-15.0265 -0.388,-1.3869 -1.008,-2.8333 -1.377,-3.2128 -20.016,-5.7477 -30.709,-8.8302 -48.298,-29.3289 -36.324,-32.8828 -39.837,-79.7032 -23.218,-118.5468 0.685,-1.525 1.245,-3.2115 1.245,-3.748 5.578,-13.596 18.281,-27.8669 26.868,-36.4998 8.08,-8.123 17.057,-15.5062 27.023,-19.4903 48.163,-27.059 129.373,-0.3638 153.168,45.5947 5.766,11.1389 10.757,21.275 11.063,35.7318 0.02,2.0329 0.231,4.072 0.482,4.5302 0.6,1.0962 3.733,1.1988 12.266,0.3996 14.758,-5.8472 20.926,5.1985 10.784,10.0663 -4.871,4.6353 -13.583,2.7546 -20.989,4.0114 -3.861,24.5723 -11.35,45.5278 -24.333,63.4957 -16.202,20.0701 -45.398,40.8141 -70.161,38.1589 -5.901,-0.9644 -7.631,-0.4088 -8.083,2.5987 -0.813,5.4129 -1.487,8.0759 -3.327,13.1181 -7.365,19.2638 -22.862,22.5645 -35.29,8.1477 z m 15.505,-8.9861 c 2.27,-2.6416 3.127,-5.1397 4.166,-8.588 l -1.384,-1.1726 c -0.762,-0.6449 -2.59,-2.6202 -4.063,-4.3902 -2.435,-2.9212 -2.848,-3.8155 -4.503,-9.7221 -1.712,-6.1083 -1.817,-6.9459 -1.731,-13.735 0.105,-8.3453 0.08,-8.3845 -4.684,-6.4719 -2.888,1.1598 -3.047,1.3881 -1.778,2.5588 0.654,0.6044 0.885,1.9292 0.97,5.5957 -2.086,9.2175 5.208,46.3388 13.007,35.9253 z m -25.98,-37.0765 c 0,-1.4416 -1.468,-1.5376 -4.061,-0.2666 -1.438,0.7051 -4.009,1.6451 -5.716,2.0877 -12.091,-0.4063 -10.39,-6.9834 -2.039,-12.1631 34.369,-17.4871 74.53,-18.401 113.215,-15.2105 8.555,0.7572 10.055,0.6932 10.055,-0.4272 10.064,-16.608 20.153,-31.7473 20.699,-50.8465 v -1.9755 l -2.877,-0.2104 c -4.031,-0.7008 -10.331,-4.5298 -10.523,-9.875 1.455,-6.3972 5.003,-2.7674 9.154,-3.6955 1.314,-0.3084 5.962,-0.2595 6.481,-0.1911 4.15,-7.6668 -3.046,-29.7006 -14.006,-42.0699 -50.674,-53.3551 -131.532,-50.022 -163.8,3.3918 -8.97,13.6551 -16.065,26.8883 -18.738,44.1706 -1.898,13.5517 0.167,28.8432 5.682,42.0993 0.994,2.3903 1.808,4.5308 1.808,4.7572 0,0.5172 3.602,6.8267 4.964,8.6983 0.562,0.7696 1.287,1.9218 1.611,2.5589 4.841,9.5178 18.365,24.3471 26.595,29.1609 4.115,2.3572 16.33,11.2962 20.148,11.5795 0.368,-3.2959 1.255,-9.5452 1.348,-11.5729 z m -27.818,-84.6805 c 3.501,-4.094 11.887,-14.3859 8.672,-15.2978 -2.49,-0.6987 -4.032,-3.4815 -6.501,-4.3218 -6.427,-2.19 -4.665,-10.1829 0.32,-9.6594 5.966,0.6258 10.928,5.8971 15.891,6.8263 6.823,-3.722 15.644,-24.7509 21.74,-20.9794 2.648,1.3853 8.175,4.6572 5.179,8.5963 -3.742,4.4641 -6.235,8.9979 -10.029,13.9074 -0.879,1.1257 -1.886,2.5998 -2.241,3.2756 -0.828,1.5819 -0.381,1.9459 4.841,3.9443 7.734,2.96 12.771,5.7589 14.813,8.2306 2.991,4.0421 -0.216,8.8244 -4.368,6.6256 -6.783,-2.3203 -15.621,-7.4745 -22.084,-7.1571 -3.379,1.026 -10.618,7.8386 -12.929,12.7108 -1.096,2.3913 -3.688,4.0375 -6.898,4.3795 -5.169,0.661 -9.843,-7.8791 -6.406,-11.0809 z m 90.02,-10.1926 c 1.665,-2.3729 5.49,-7 6.418,-8.1773 -3.001,-1.8012 -8.003,-6.0495 -12.251,-8.4542 -9.277,-5.254 -7.676,-13.1643 -0.03,-11.8091 5.829,1.7649 12.137,5.8263 17.783,9.3348 1.449,0.9076 2.063,0.5734 3.379,-1.8404 3.761,-6.1132 10.089,-13.8987 15.828,-16.5933 10.238,-2.822 10.831,6.5007 6.43,12.8035 -1.794,3.1721 -8.833,9.0031 -9.002,12.0071 4.549,3.2922 7.841,3.8294 11.124,7.5397 8.463,4.729 -0.107,10.3373 -6.466,7.2778 -2.52,-1.2384 -7.829,-3.5196 -10.461,-3.9121 -3.288,0.2481 -10.618,8.7125 -11.473,13.645 -0.506,3.1925 -0.574,3.2816 -3.38,4.4085 -14.032,3.2607 -11.311,-11.3652 -7.896,-16.23 z m -3.615,103.2606 c 15.995,-2.0662 26.602,-9.961 37.863,-18.7429 3.617,-2.8146 5.323,-4.7725 4.756,-5.4597 -11.527,-0.4031 -25.217,1.4137 -41.581,1.9007 -3.872,0.1566 -5.317,0.5059 -6.026,2.9883 -0.691,2.4142 -2.071,11.1402 -2.738,17.3092 -0.299,2.7523 0.906,3.0647 7.726,2.0044 z m -21.967,-16.5568 c 0,-2.2468 -0.4,-2.7013 -1.486,-1.6908 -0.691,0.6426 -0.483,8.5497 0.14,9.3038 0.687,0.8335 1.346,-5.3988 1.346,-7.613 z" fill="#00B894" transform="translate(-78.7695,-0.69052807) matrix(0.26458333,0,0,0.26458333,-5017.0497,-1268.0238)"/>
</svg>