<?xml version="1.0" ?><svg height="65.003113mm" viewBox="0 0 62.578033 65.003113" width="62.578033mm" xmlns="http://www.w3.org/2000/svg">
    <path color="#000" d="m 21999.759,4913.4179 a 109.55128,113.50668 0 0 1 -109.551,113.5069 109.55128,113.50668 0 0 1 -109.551,-113.5069 109.55128,113.50668 0 0 1 109.551,-113.5065 109.55128,113.50668 0 0 1 109.551,113.5065 z" fill="#FFFFFF" overflow="visible" paint-order="fill markers stroke" transform="translate(-12.513588,57.057603) matrix(0.26458333,0,0,0.26458333,-5748.7183,-1324.0299)"/>
    <path d="m 21841.554,5021.3792 c -64.903,-32.2437 -86.035,-112.6577 -47.777,-174.34 1.572,-2.4556 3.264,-5.2379 3.761,-6.1822 10.437,-17.1992 22.528,-26.3292 37.859,-36.4469 7.309,-4.8446 22.064,-11.8473 26.7,-12.6719 80.442,-19.0651 155.225,50.4648 148.763,130.8596 -1.454,35.5111 -18.278,61.8129 -45.299,86.065 -1.181,1.0567 -3.54,2.688 -5.239,3.6262 -19.074,11.8716 -36.846,19.6832 -59.761,21.2701 -21.393,3.2412 -45.762,-5.8382 -59.007,-12.1799 z m 57.979,-6.3796 c 6.362,-0.8865 10.336,-1.686 20.351,-4.098 1.946,-0.4694 7.755,-2.4464 9.185,-3.1264 0.755,-0.36 3.074,-1.278 5.151,-2.0401 2.079,-0.7622 4.642,-2.0841 5.696,-2.9367 l 1.918,-1.5504 -0.973,-4.6257 c -1.254,-5.9655 -2.626,-8.0823 -5.237,-8.0823 -2.316,0 -2.498,0.4145 -3.164,7.2126 -0.503,5.1378 -0.828,7.2897 -1.137,7.5766 -1.322,1.2183 -5.409,2.04 -7.75,1.5569 -4.054,-0.8366 -6.156,-4.1985 -6.262,-10.0165 -0.09,-4.6799 -0.677,-5.6127 -3.562,-5.6324 -1.716,0 -3.57,3.305 -3.57,6.3867 0,2.4049 -2.153,3.9844 -5.494,4.0308 -4.438,0.06 -6.294,-1.6937 -6.664,-6.3017 -0.265,-3.3263 -0.733,-4.2843 -4.164,-8.5279 -3.513,-4.3487 -3.862,-5.0852 -3.862,-8.1382 0,-3.6675 0.774,-4.6045 3.821,-4.6218 2.282,0 3.999,-1.6471 3.999,-3.8054 0,-3.0324 1.437,-5.0849 3.883,-5.543 5.324,-0.9989 9.947,1.4626 12.221,6.5062 0.681,1.5133 1.705,2.9289 2.272,3.1465 1.229,0.4714 2.918,-0.7729 2.918,-2.1492 0,-1.979 3.622,-4.3035 6.742,-4.3263 3.246,-0.032 5.066,0.7047 7.683,3.0762 3.336,3.0231 5.47,2.7959 6.003,-0.638 0.115,-0.7258 0.817,-1.7477 1.565,-2.2721 0.749,-0.524 1.361,-1.3644 1.361,-1.8674 0,-2.668 10.908,-1.5402 13.644,1.4104 1.323,1.4273 2.052,1.6862 3.817,1.3555 1.464,-0.2752 3.102,0.04 4.987,0.9459 2.506,1.212 2.937,1.7961 4.047,5.5002 0.683,2.2795 1.47,4.1446 1.749,4.1446 1.478,0 9.049,-11.0902 11.563,-16.9343 0.349,-0.8134 0.929,-1.661 1.289,-1.8828 16.06,-22.257 12.507,-67.766 4.307,-86.8218 -34.649,-71.326 -87.675,-67.9582 -123.88,-62.291 -3.11,0.6523 -16.629,7.3187 -21.937,10.8164 -2.425,1.5978 -6.237,4.4508 -8.472,6.3397 -7.494,6.337 -20.223,19.2143 -20.899,21.1439 -0.367,1.0509 -1.73,3.2149 -3.028,4.8082 -4.089,5.0251 -10.601,19.542 -13.471,30.0297 -0.465,1.7008 -1.113,3.6098 -1.441,4.2433 -0.931,1.8046 -2.1,12.643 -2.098,19.4534 -0.28,38.7282 22.999,90.1398 58.575,102.265 11.35,3.7755 25.39,6.8418 34.579,7.5515 2.999,0.2332 2.816,0.2506 13.738,-1.2714 z m 33.726,-52.449 c -0.209,-0.3421 -1.323,-0.8104 -2.471,-1.0397 -2.561,-0.5128 -3.979,-1.8012 -7.112,-6.4676 -1.999,-2.9784 -2.328,-3.9482 -1.862,-5.4955 2.378,-7.8905 3.237,-10.1916 3.989,-10.6702 0.474,-0.3017 0.862,-0.9205 0.862,-1.374 0,-1.3313 5.342,-6.1286 8.297,-7.451 4.271,-1.9119 7.282,-1.7497 12.333,0.6634 9.066,4.3321 12.464,11.0819 8.608,17.0949 -3.471,5.412 -7.651,10.4876 -8.975,10.9013 -0.756,0.2345 -2.456,1.1555 -3.778,2.0439 -2.502,1.6808 -9.209,2.8978 -9.891,1.7945 z m -73.523,-57.8121 c 2.553,-20.2959 5.176,-26.689 13.36,-32.5693 6.029,-4.3311 8.392,-5.2102 14.005,-5.2102 16.217,0.7904 29.511,22.6311 28.38,36.7551 -0.295,2.2639 -0.579,4.5584 -0.629,5.1001 -6.121,10.2843 -20.668,21.9696 -32.492,21.9665 -12.696,-2.5558 -23.952,-12.1139 -22.624,-26.0422 z m 82.716,13.145 c -5.55,-5.6974 -3.888,-11.1013 -5.733,-17.4113 -0.563,-1.8715 -0.701,-3.5299 -0.345,-4.1654 0.323,-0.5801 0.567,-1.7792 0.54,-2.665 0.654,-10.3495 11.865,-21.8135 20.871,-21.8743 4.014,0 12.061,2.2256 13.185,3.6471 9.027,7.5072 10.654,11.8122 13.439,19.223 1.672,4.4656 1.299,10.6681 -0.824,13.7081 -7.353,24.0329 -28.674,19.7838 -41.133,9.5378 z m 18.166,69.8937 c -0.205,-0.336 -1.139,-0.611 -2.071,-0.611 -1.188,0 -1.895,0.5289 -2.368,1.7747 -1.045,2.7475 -0.122,3.2132 2.462,1.2422 1.296,-0.9881 2.185,-2.0716 1.977,-2.4059 z" fill="#00B894" transform="translate(-12.513588,57.057603) matrix(0.26458333,0,0,0.26458333,-5748.7183,-1324.0299)"/>
</svg>