<?xml version="1.0" ?><svg height="63.601486mm" viewBox="0 0 57.048679 63.601486" width="57.048679mm" xmlns="http://www.w3.org/2000/svg">
    <path d="m 10047.978,2754.1907 c 16.367,-42.3488 41.05,-73.4719 85.994,-76.7386 44.944,-3.2668 75.303,17.8185 91.208,37.716 15.906,19.8974 30.887,94.9136 -12.341,135.1242 -43.228,40.2106 -115.561,24.2926 -143.016,-16.4525 -27.455,-40.7451 -27.125,-60.702 -21.845,-79.6491 z" fill="#FFFFFF" transform="translate(3.5778701,-102.00283) matrix(0.24344777,0,0,0.24344777,-2442.4845,-545.05667)"/>
    <path d="m 10148.957,2657.9256 c -10.331,-0.3858 -56.782,3.0979 -73.615,28.15 -11.336,16.8739 -32.457,41.2743 -37.913,64.3857 -3.821,16.1833 -6.111,20.5319 -11.842,22.4797 -10.363,3.524 -9.699,14.2604 1.146,18.4797 6.366,2.4767 9.13,6.0086 10.298,13.1593 0.878,5.3761 5.217,17.4846 9.641,26.9069 4.425,9.422 8.776,21.8575 9.67,27.6319 3.367,21.7749 27.011,43.4301 57.453,52.6195 28.716,14.9442 52.756,4.5749 74.879,-7.2305 21.589,-11.522 39.891,-29.5563 42.437,-41.8155 1.228,-5.9223 6.15,-19.5684 10.937,-30.3238 7.519,-16.8921 8.879,-24.1274 9.996,-53.1271 1.176,-30.6442 0.626,-34.9516 -6.355,-49.4076 -17.585,-36.4131 -63.671,-70.673 -96.732,-71.9082 z m 39.988,36.7699 c 20.06,14.8945 34.435,30.7388 39.988,48.4631 5.762,19.7714 3.715,63.7536 -9.882,82.2239 -1.193,-0.073 -6.439,-7.1995 -11.658,-15.8376 -5.224,-8.6439 -15.616,-19.9009 -23.109,-25.0362 -15.6,-10.6906 -43.895,-16.825 -53.111,-11.5151 -3.122,1.7986 -9.581,3.1299 -14.353,2.96 -10.89,-0.3879 -37.201,15.4693 -44.027,26.5337 -5.989,9.709 -10.35,9.2694 -12.641,-1.2727 -1.215,-5.5833 0.287,-8.9525 5.928,-13.3318 8.979,-6.9648 7.504,-15.0943 -3.305,-18.2196 -8.277,-2.3938 -8.573,-4.7472 -3.253,-25.861 4.901,-19.4471 19.136,-39.9854 35.175,-50.756 11.437,-7.6792 13.894,-8.2138 23.652,-5.1416 8.792,2.7678 15.564,5.4534 32.785,0.5851 23.326,-7.7971 22.342,-5.7589 37.811,6.2058 z m -28.596,35.9835 c -0.737,-0.026 -1.486,0.01 -2.239,0.093 -8.341,0.9343 -8.645,10.0948 -6.207,17.196 1.138,3.3117 4.39,5.0063 8.729,4.5469 5.346,-0.5658 7.22,-3.0317 8.253,-10.8576 1.033,-7.8373 -3.386,-10.8093 -8.536,-10.9784 z m -48.609,2.6325 c -0.628,-0.037 -1.286,0 -1.971,0.1 -6.825,1.0514 -9.776,12.8762 -4.819,19.3018 2.544,3.2973 5.003,3.7143 9.346,1.5852 9.614,-4.7136 6.872,-20.4346 -2.556,-20.9874 z m 17.619,54.4148 c 4.99,0.067 10.917,2.5625 18.209,6.521 19.325,9.4739 25.051,13.3556 34.25,25.1619 12.551,12.1989 4.915,24.3741 -19.303,30.7787 -18.075,4.7803 -31.543,4.828 -47.082,0.1698 -14.684,-4.4029 -31.737,-18.2075 -31.477,-25.4846 0.207,-5.8294 15.348,-21.2675 30.017,-30.6087 6.453,-4.6864 10.981,-6.5974 15.386,-6.5381 z m 38.736,26.1047 c -3.093,-0.093 -10.326,1.0433 -17.375,2.7806 -13.815,3.4053 -31.661,2.2377 -47.259,-3.0917 -8.433,-2.8818 -9.555,3.9289 -1.82,11.0455 16.769,15.4261 41.51,18.9426 62.89,8.9391 7.657,-3.5824 11.693,-6.6771 12.871,-10.1872 1.493,-3.2318 -4.934,-9.0718 -9.307,-9.4863 z" fill="#00B894" transform="translate(3.5778701,-102.00283) matrix(0.24344777,0,0,0.24344777,-2442.4845,-545.05667)"/>
</svg>