<?xml version="1.0" ?><svg height="64.257385mm" viewBox="0 0 71.188126 64.257385" width="71.188126mm" xmlns="http://www.w3.org/2000/svg">
    <path d="m 13125.391,5061.8184 -27.92,21.125 -28.746,-6.6075 -16.596,28.2442 -34.123,7.5371 13.906,41.1797 -19.232,11.9101 c 0,0 6.205,17.0302 21.664,22.1485 0,0 5.324,-16.0055 13.441,-21.4961 8.117,-5.4905 23.472,-16.9377 27.867,-26.709 4.394,-9.7712 7.859,-12.6085 13.702,-8.793 5.842,3.8154 9.099,9.9105 15.82,9.6778 6.722,-0.2326 9.67,-17.8203 15.719,-22.2872 6.049,-4.4669 12.252,-8.888 19.232,-8.2832 6.98,0.6049 -1.294,19.3567 9.357,24.5215 10.651,5.1648 22.905,-5.3966 32.004,0.094 9.1,5.4905 11.168,35.7812 11.168,35.7812 0,0 11.322,-5.3975 20.215,0 8.892,5.3975 -0.154,23.543 -0.154,23.543 0,0 17.887,5.9096 17.474,13.7266 -0.414,7.817 -6.668,44.9949 -19.335,57.7441 -12.667,12.7491 -16.596,15.6348 -16.596,15.6348 0,0 9.512,13.3533 18.818,9.1191 9.307,-4.2342 33.969,-35.4551 33.969,-35.4551 l 12.305,-35.9218 -6.67,-25.4981 11.478,-21.543 -19.439,-17.3554 -2.276,-39.1328 -44.101,-7.1192 -7.291,-33.1289 -34.949,4.2344 z m 8.937,55.1855 c -2.169,0.049 -4.614,0.8081 -6.922,2.3262 -6.152,4.0481 -20.525,27.0332 -20.525,27.0332 0,0 -18.096,-9.9103 -20.164,-9.8633 -2.068,0.047 -11.168,16.1914 -11.168,16.1914 0,0 -13.08,2.4664 -19.543,10.8418 -6.463,8.3754 -14.219,54.9512 -14.219,54.9512 9.874,65.1886 41.57,58.8146 80.76,62.2578 39.19,3.4433 70.416,-12.9824 85.41,-30.6172 14.993,-17.6349 10.031,-39.7363 10.031,-39.7363 l -11.84,-10.6563 0.207,-20.6582 c 0,0 -20.319,-5.2114 -24.3,-8.7012 -3.981,-3.4897 -2.377,-26.7089 -2.377,-26.7089 0,0 -22.698,0.3723 -32.987,-3.6758 -10.289,-4.0481 -5.481,-11.7248 -5.74,-17.541 -0.161,-3.6352 -3.008,-5.5252 -6.623,-5.4434 z" fill="#FFFFFF" transform="translate(-132.2274,134.93821) matrix(0.26458333,0,0,0.26458333,-2432.3804,-827.48584) translate(-3313.5291,-2437.8203)"/>
    <path d="m 13128.303,5055.3242 c -8.52,-0.062 -16.396,2.6708 -19.574,8.4043 -6.86,12.3744 -9.206,13.2429 -22.297,8.2559 -9.674,-3.6849 -13.759,-3.9072 -19.584,-1.0684 -7.647,3.7271 -12.789,10.6076 -14.264,19.084 -0.934,5.3638 -5.902,7.179 -16.822,6.1465 -10.692,-1.0106 -24.171,6.5875 -26.797,15.1055 -2.305,7.4765 -1.483,11.9266 10.406,27.9511 3.596,4.8464 3.975,10.938 -2.525,14.2871 -16.036,8.2619 -12.747,28.4554 5.564,36.3106 9.707,4.1643 10.244,14.0094 1.008,18.4824 -8.604,4.1664 -9.767,12.6054 -2.08,15.0781 3.8,1.2216 6.609,5.3942 8.314,12.3457 5.702,23.2471 18.001,40.0757 36.448,49.8731 15.914,8.4518 16.804,8.7304 36.367,11.4511 21.733,3.0227 55.657,-0.1107 73.883,-6.8242 11.227,-4.1356 14.768,-4.3426 18.025,-1.0527 10.537,10.6434 31.252,7.718 35.162,-4.9668 1.089,-3.5335 3.355,-5.4653 5.6,-4.7734 6.031,1.8591 16.019,-8.0492 16.908,-16.7735 0.49,-4.8149 2.939,-9.3772 6.529,-12.1679 3.839,-2.984 6.178,-7.581 7.051,-13.8575 0.718,-5.1658 3.19,-11.0226 5.492,-13.0156 6.217,-7.4267 6.322,-17.6663 -1.998,-20.3887 -3.826,-1.2033 -8.32,-3.7804 -9.986,-5.7265 -2.567,-3.0001 -1.88,-4.1908 4.512,-7.8301 10.164,-5.7867 13.499,-17.5126 7.82,-27.4883 -3.717,-6.5274 -6.194,-8.5417 -15.244,-9.3515 -9.491,-0.8492 -10.51,-5.7735 -4.635,-15.9473 7.389,-12.7971 5.85,-14.8597 0.883,-22.0391 -7.496,-10.8326 -19.333,-16.4134 -30.799,-14.5195 -14.839,2.4512 -19.286,-0.01 -16.479,-9.1172 1.495,-4.8496 0.766,-10.8553 -1.937,-15.9687 -6.6,-12.482 -20.19,-14.8805 -37.699,-6.6543 -6.633,3.1164 -7.434,2.9425 -11.711,-2.5606 -5.405,-6.9529 -15.886,-10.6134 -25.541,-10.6836 z m 0.801,13.0547 c 6.241,-0.044 13.131,3.7432 17.605,8.9219 6.456,7.795 11.524,9.0676 21.232,5.3301 4.435,-1.7072 10.629,-2.3142 13.764,-1.3477 4.739,1.4609 5.393,3.5861 3.887,12.5957 -3.086,18.4506 8.414,28.6756 28.504,25.3477 7.095,-1.1752 15.558,-0.8868 18.808,0.6406 5.224,2.4554 5.63,4.7446 3.494,19.7383 -2.745,19.2769 0.403,25.3267 14.123,29.9668 3.392,1.1471 5.57,4.7471 1.52,6.9375 -10.014,5.4164 -12.724,16.1388 -7.174,26.6367 3.328,6.2951 3.53,9.1332 0.774,10.9355 -4.896,3.2006 -4.234,10.7245 1.281,14.5489 6.134,4.2541 3.827,10.7724 -4.871,10.4785 -4.202,-0.142 -7.091,4.0395 -5.752,11.2168 2.172,11.6396 -0.866,9.7732 -7.156,11.8125 -8.795,2.8513 -13.539,10.2737 -18.455,16.6035 -1.499,1.9097 -4.663,2.8763 -7.03,2.1465 -3.927,-1.2107 -3.76,-1.6489 1.908,-5.0176 15.682,-10.5014 20.741,-30.7046 23.895,-41.2988 9.047,-30.1876 8.445,-36.2848 -5.52,-40.5899 -6.88,-2.1212 -7.513,-3.2515 -5.496,-9.7969 4.777,-15.4952 -1.785,-23.9725 -14.873,-19.2167 -8.958,3.255 -9.752,2.2657 -7.754,-9.6817 3.32,-19.8479 -8.659,-31.2012 -25.914,-24.5586 -4.421,1.7022 -10.829,2.5581 -14.238,1.9004 -5.316,-1.0255 -5.928,-2.5025 -4.295,-10.3789 3.809,-18.3718 -7.06,-24.8337 -25.433,-15.1191 -9.621,5.0862 -11.904,7.7936 -14.971,17.7421 -3.817,12.3807 -8.718,14.2279 -12.649,4.7657 -4.759,-11.4577 -20.657,-8.0485 -26.992,5.9648 -9.255,20.4726 -25.781,17.7918 -33.041,36.0625 -3.547,8.9271 -9.834,7.9689 -14.072,1.7969 -3.494,-5.0878 -3.951,-6.7138 6.844,-11.9688 17.591,-8.5634 6.072,-22.8827 1.111,-30.4609 -7.845,-12.3883 -8.48,-14.8213 -4.547,-17.3926 2.531,-1.6546 8.474,-1.7873 13.309,-0.2968 5.946,1.8333 11.437,1.2653 17.195,-1.7793 7.109,-3.7585 11.245,-6.1602 11.332,-16.7696 0.105,-12.8518 6.1,-12.627 15.576,-7.5293 15.065,8.104 25.424,2.8821 32.125,-10.6816 2.629,-5.8181 7.091,-8.1706 11.946,-8.2051 z m 3.964,52.7949 c 2.798,-0.1888 3.805,1.2553 2.907,4.168 -0.756,2.4511 -0.374,7.56 0.849,11.3535 2.685,8.3248 15.668,13.1832 28.871,10.8047 10.831,-1.9509 13.525,0.7414 10.514,10.5078 -4.414,14.3192 4.069,22.8395 23.445,23.5488 2.983,0.1091 3.605,3.0562 2.272,10.7637 -1.536,8.8742 -0.834,11.069 4.291,13.3985 8.959,4.0726 10.495,11.2848 5.707,26.8164 -4.356,14.1306 -11.892,22.3469 -27.166,29.623 -13.352,6.3605 -38.372,12.0557 -54.842,12.4824 -23.35,0.6048 -48.094,-5.1664 -59.449,-13.8652 -8.093,-6.1997 -20.784,-27.7665 -19.256,-32.7227 0.327,-1.0611 5.107,-2.018 10.623,-2.1269 11.134,-0.2199 20.867,-8.2537 17.564,-14.5 -1.397,-2.6435 -5.636,-3.543 -15.347,-3.2578 -7.379,0.2163 -13.62,0.3299 -13.869,0.2539 3.001,-22.2913 8.986,-40.6255 19.99,-45.8711 7.332,-3.4746 11.978,-7.6639 13.318,-12.0098 2.059,-6.6779 8.594,-7.5531 10.203,-1.3672 1.336,5.1332 12.883,7.0728 19.928,3.3477 5.027,-2.6576 7.728,-6.9339 10.922,-17.2949 3.046,-9.8806 5.452,-13.8454 8.525,-14.0528 z m -32.461,55.7207 c -2.264,-0.067 -4.877,1.2955 -7.435,4.1739 -3.683,4.1439 -4.337,6.5736 -2.779,10.3222 4.959,11.9411 18.898,5.6843 16.361,-7.3437 -0.9,-4.6193 -3.235,-7.0666 -6.147,-7.1524 z m 31.62,4.2735 c -4.49,0.2773 -7.352,4.7222 -7.762,12.4316 -0.443,8.3218 10.168,13.0655 14.303,6.3945 4.215,-6.8019 2.421,-16.6171 -3.364,-18.4003 -0.787,-0.2426 -1.541,-0.3828 -2.258,-0.4258 -0.313,-0.019 -0.62,-0.018 -0.919,0 z m 20.716,65.7617 c -4.533,-0.013 -11.247,0.8574 -20.757,2.4902 -20.713,3.5561 -25.939,7.7955 -16.756,13.5938 12.367,7.8094 41.602,2.5313 44.881,-8.1035 1.69,-5.4849 0.189,-7.9596 -7.368,-7.9805 z" fill="#00B894" transform="translate(-132.2274,134.93821) matrix(0.26458333,0,0,0.26458333,-2432.3804,-827.48584) translate(-3313.5291,-2437.8203)"/>
</svg>