<?xml version="1.0" ?><svg height="121.05268mm" viewBox="0 0 71.413155 121.05268" width="71.413155mm" xmlns="http://www.w3.org/2000/svg">
    <path color="#000" d="m 19710.93,4066.3178 c 23.364,-120.2683 74.421,-104.1361 109.035,-107.585 34.615,-3.4489 93.587,14.563 90.245,104.6925 -4.053,109.3041 -191.244,136.6228 -199.28,2.8925 z" fill="#FFFFFF" overflow="visible" paint-order="fill markers stroke" transform="translate(55.616829,-106.72014) matrix(0.26458333,0,0,0.26458333,-5258.6765,-934.56822)"/>
    <path d="m 19830.594,3935.5781 c -24.722,0.051 -62.399,9.169 -83.451,21.1909 -38.309,21.8768 -68.922,87.5117 -68.647,119.8621 0.834,97.6202 2.21,132.9193 -10.016,188.8851 l -2.057,53.5537 c -2.61,67.975 -2.095,72.3753 8.629,73.8076 6.982,0.9321 8.511,-0.8537 8.033,-9.3863 -0.399,-7.0675 1.249,-10.2943 5.002,-9.7933 3.329,0.4446 5.04,5.3314 4.23,12.0691 -0.07,9.8355 14.625,13.2805 14.663,-16.8687 1.782,-13.3495 3.898,-17.2622 8.977,-16.5842 6.743,0.9003 7.186,-3.3147 2.991,-28.5492 -1.42,-8.5427 2.956,9.7592 8.303,12.6739 3.562,1.9418 2.953,-16.37 2.98,-16.8696 0.03,-0.4994 -1.604,-14.4575 -3.626,-31.019 -7.575,-52.7491 -5.656,-112.5583 -2.154,-161.7056 3.726,3.8289 8.057,7.7339 13.128,11.8945 28.86,23.0004 60.547,29.2883 97.189,24.054 9.874,-0.8022 18.848,-3.1648 26.952,-6.7667 -0.984,20.8361 -1.866,32.0872 -1.445,48.6209 1.309,51.4966 41.632,83.8265 44.782,104.4871 -2.699,46.3343 20.718,40.1671 18.761,19.8028 24.501,17.712 1.296,-48.8875 0.362,-73.3048 3.688,-64.4443 1.571,-126.298 -4.493,-131.2649 -2.927,-2.3988 -2.786,-8.6751 0.418,-18.3965 9.064,-19.8474 9.249,-23.11 12.686,-49.7427 1.443,-10.9765 0.232,-24.8656 -3.231,-38.0528 2.589,-1.9721 4.53,-4.9784 0.365,-9.0968 -0.762,-0.7122 -2.006,-1.1653 -3.474,-1.4288 -3.17,-10.6873 -5.397,-19.9037 -5.164,-21.6502 1.892,-14.1681 -41.793,-41.8994 -77.703,-49.3249 -1.034,-0.2137 -2.127,-0.3944 -3.274,-0.5441 v 0 c -2.917,-0.3809 -6.185,-0.5591 -9.716,-0.5519 z m -28.281,30.6295 c 11.776,4.9561 35.717,11.6216 56.763,15.6655 l 25.783,4.9538 c 1.77,1.7473 3.448,3.6 5.007,5.5734 1.447,2.1361 5.09,9.5723 7.937,16.2089 2.297,5.3529 2.172,5.9407 -1.462,6.8659 -3.698,0.9417 -11.594,3.9859 -12.959,4.9969 -2.407,1.7819 -2.636,2.6129 -1.47,5.3157 3.193,7.1004 9.489,8.1643 16.317,5.9338 4.414,-1.526 4.67,-1.5537 5.381,-0.5817 1.667,2.3979 0.436,6.3784 1.552,9.0402 4.739,29.1346 -6.9,60.7373 -21.099,77.8807 -44.811,54.1126 -132.151,33.3687 -157.767,-14.5361 2.092,-21.8065 6.915,-45.8261 13.115,-67.9404 3.021,6.6426 9.686,13.1713 16.539,16.877 5.258,4.5804 9.962,9.4439 12.789,15.6956 3.469,3.5615 11.888,-2.3892 14.135,-5.6952 7.481,-10.1352 12.59,-20.1832 15.511,-32.9245 1.323,-13.2934 -4.459,-17.8837 -10.66,-21.0618 -8.05,-3.5065 -14.131,-1.9204 -20.273,5.0193 -2.03,2.2959 -4.108,4.1905 -4.616,4.2107 -4.942,-0.047 -7.282,-4.5629 -14.875,-1.1 -1.184,0.4306 -2.248,0.9085 -3.208,1.4244 4.138,-12.5406 8.639,-23.9794 13.215,-33.3947 1.517,-1.2052 3.068,-2.3975 4.666,-3.5739 10.562,-7.2685 24.58,-12.4167 39.679,-14.8535 z m 60.847,22.1304 c -3.218,0.028 -6.608,1.6477 -10.625,4.7854 -3.056,2.6966 -4.69,2.959 -6.661,1.0702 -2.178,-2.0479 -6.674,-1.9767 -9.97,-1.2873 -4.194,1.387 -7.1,6.1921 -7.1,11.7397 0.07,10.9239 10.4,23.2788 15.313,33.9721 5.737,12.7335 24.031,-9.3892 29.22,-17.0144 7.697,-12.1166 9.431,-20.2152 -3.671,-31.0649 -2.185,-1.4947 -4.305,-2.22 -6.506,-2.2008 z m 0.413,12.8653 c 0.844,-0.018 1.738,0.8542 2.72,3.1013 -0.231,9.2359 -8.497,18.1967 -15.849,22.5256 -1.703,-0.3314 -7.993,-15.7161 -9.399,-20.0241 -0.91,-4.4819 2.423,-1.8814 3.961,3.385 1.191,2.8503 5.176,4.1557 9.84,3.2229 3.352,-0.7195 5.715,-12.1451 8.727,-12.2107 z m -81.468,16.8314 c 0.463,-0.01 0.857,0.062 1.154,0.2214 5.862,0.9219 6.358,9.4933 1.696,16.4027 -1.525,2.258 -8.558,16.3139 -12.056,22.1137 -5.415,-4.5518 -4.64,-6.8752 -11.75,-13.2008 -2.581,-2.3291 -12.268,-11.7934 -7.258,-16.1915 3.793,-2.9162 6.527,2.5063 12.203,2.5954 2.628,0.228 6.039,0.6621 6.169,-4.5733 0,-3.4902 6.6,-7.3172 9.842,-7.3676 z m -80.761,46.7944 c 0.09,2.9869 0.32,6.0347 0.715,9.1508 0.291,2.7565 0.619,5.3794 0.991,7.8895 -5.851,22.4851 -7.074,16.3768 -1.706,-17.0403 z m 40.961,11.0973 c -2.167,-0.017 -3.943,1.3486 -4.208,5.0567 0.306,3.9038 1.371,9.231 2.15,10.741 6.241,12.7932 12.691,18.602 29.194,22.5174 6.041,1.0201 21.517,1.4656 14.344,-7.7064 -0.695,-0.4494 -9.546,-2.0941 -15.764,-2.9291 -10.118,-1.4068 -11.51,-13.6136 -17.207,-21.7268 -1.34,-2.9458 -5.341,-5.9274 -8.509,-5.9528 z m 141.315,93.7477 c 2.302,0.3075 4.317,8.6278 4.476,18.4906 0.328,20.4218 -5.215,48.3724 -8.266,41.6718 -3.876,-8.513 -0.586,-60.7467 3.79,-60.1624 z m -202.292,122.7646 c 0.03,0 0.06,0.01 0.09,0.011 0.52,0.158 1.013,1.9767 1.6,5.2524 1.056,5.8941 1.551,14.9044 1.095,20.0217 -0.454,5.1173 -2.677,9.0566 -4.937,8.7547 -2.261,-0.3018 -2.753,-9.3104 -1.094,-20.0199 1.49,-9.6093 2.412,-13.9942 3.255,-14.0198 z m -1.505,39.7138 v 0 c 0.658,0.068 1.46,1.5599 2.599,4.2963 3.623,8.7019 0,26.6176 -4.249,20.9786 -1.465,-1.9486 -1.846,-9.2393 -0.846,-16.2014 0.864,-6.0281 1.49,-8.8992 2.366,-9.0685 0.05,-0.01 0.09,-0.011 0.13,-0.01 z" fill="#00B894" transform="translate(55.616829,-106.72014) matrix(0.26458333,0,0,0.26458333,-5258.6765,-934.56822)"/>
</svg>