<?xml version="1.0" ?><svg height="58.154022mm" viewBox="0 0 57.35601 58.154022" width="57.35601mm" xmlns="http://www.w3.org/2000/svg">
    <path color="#000" d="m 19490.196,4082.8513 a 91.604715,99.796977 0 0 1 -91.605,99.7968 91.604715,99.796977 0 0 1 -91.604,-99.7968 91.604715,99.796977 0 0 1 91.604,-99.7971 91.604715,99.796977 0 0 1 91.605,99.7971 z" fill="#FFFFFF" overflow="visible" paint-order="fill markers stroke" transform="translate(-1.1874188,-16.053015) matrix(0.26458333,0,0,0.26458333,-5100.2672,-1035.0882)"/>
    <path d="m 19369.155,4190.3648 c -36.366,-7.3546 -61.996,-37.5632 -68.541,-66.3334 -1.419,-5.8513 -3.032,-11.8059 -3.129,-17.8559 0,-2.7138 -0.826,-4.0124 -2.841,-4.462 -10.889,-0.7636 -17.341,-6.8631 -11.135,-12.442 5.81,-4.7601 7.362,-1.2154 12.069,-1.6725 2.983,-0.8237 2.548,-8.3132 2.742,-11.547 1.974,-20.4802 10.029,-41.3984 23.956,-58.882 35.287,-44.3008 76.286,-47.9404 104.336,-42.3246 37.137,7.4349 64.423,49.2226 68.846,84.9425 7.797,48.4426 -2.688,88.1603 -40.904,114.1948 -24.851,16.9295 -57.001,22.125 -85.399,16.3821 z m 111.184,-110.3362 c -7.488,-90.4451 -76.762,-120.928 -135.138,-63.8369 -16.662,16.2964 -23.69,37.4841 -27.878,56.736 -1.745,8.0416 -1.099,14.7818 1.464,15.2456 0.625,0.1131 1.647,0.667 2.273,1.2309 7.5,3.5902 5.602,9.7896 -0.28,11.0284 -1.788,0.3455 -3.496,0.6774 -5.278,1.0237 -0.03,7.688 2.321,14.8209 3.266,22.3131 13.691,40.9982 50.848,51.6316 67.211,52.2327 62.61,2.2998 96.538,-42.0485 94.36,-95.9735 z m -117.669,64.3483 c -4.872,-4.0575 -1.189,-7.7246 3.452,-7.8262 23.297,-0.5096 35.814,-5.2417 39.095,1.0271 4.443,8.4847 -1.806,9.7276 -9.061,10.475 -11.873,1.2228 -23.988,4.2363 -33.486,-3.6759 z m 47.965,-85.1998 c -1.887,-8.3373 0.664,-17.3849 9.945,-13.8137 6.778,2.6078 5.815,6.2558 5.85,13.4662 0,2.9169 -1.545,4.7309 -3.035,5.7926 -3.523,2.1097 -11.705,-0.7777 -12.76,-5.4451 z m -61.456,-9.0185 c 0.107,-6.0186 2.603,-7.8575 7.291,-7.8984 4.402,0.203 9.055,3.991 8.694,9.7665 -0.146,4.3044 -0.855,6.963 -3.939,8.0584 -8.286,2.2899 -11.97,-2.0814 -12.046,-9.9265 z" fill="#00B894" transform="translate(-1.1874188,-16.053015) matrix(0.26458333,0,0,0.26458333,-5100.2672,-1035.0882)"/>
</svg>