<?xml version="1.0" ?><svg height="78.75811mm" viewBox="0 0 72.957191 78.75811" width="72.957191mm" xmlns="http://www.w3.org/2000/svg">
    <path color="#000" d="m 19897.332,4933.6245 c -20.175,59.2818 -86.927,95.999 -136.232,79.0114 -49.304,-16.9864 -62.488,-81.2435 -42.314,-140.5259 20.175,-59.2823 76.499,-93.5693 125.803,-76.5825 53.701,10.8408 86.263,91.2422 52.743,138.097 z" fill="#FFFFFF" overflow="visible" paint-order="fill markers stroke" transform="translate(-197.86665,-118.615) matrix(0.24951201,0,0,0.24951201,-4710.6764,-1066.4892)"/>
    <path d="m 19808.351,4749.6883 c -6.681,-0.036 -13.349,3.1485 -19.087,9.5569 -4.865,5.4319 -13.642,10.9825 -19.502,12.3326 -5.86,1.3505 -13.696,5.9813 -17.416,10.2935 -3.72,4.3121 -10.7,7.842 -15.509,7.842 -17.195,0 -45.32,20.4274 -36.026,38.647 -13.427,27.2897 -9.893,39.1628 -1.236,71.0569 v 0.2339 c -0.13,0.4394 -0.27,0.8956 -0.424,1.3725 -5.001,16.9328 3.675,22.0026 -16.828,20.969 -6.384,0.2915 -14.86,8.4899 -5.786,14.4372 4.729,2.1481 16.334,1.0873 19.498,3.1329 0.911,0.666 2.097,4.9333 2.855,10.2816 0.191,1.2788 0.418,2.5412 0.678,3.7898 -5.052,3.4326 -9.179,8.3926 -2.445,17.4978 -5.781,-2.0216 -3.71,15.4191 -3.71,21.8684 0,3.5601 -3.029,8.8004 -6.73,11.6454 -6.354,4.884 -13.349,14.791 -5.723,25.5637 8.178,11.5522 24.611,17.8288 24.611,9.4009 0,-2.7719 3.087,-3.559 7.8,-1.9902 5.452,1.8158 18.112,1.1877 23.011,-5.1635 7.131,-4.6727 9.744,-7.1748 10.701,-14.2316 20.155,8.6289 35.549,9.6029 56.625,6.8531 11.554,-1.7587 22.652,-5.4659 33.098,-10.6853 -4.144,23.527 22.209,21.7412 19.645,29.992 -2.993,8.1786 5.497,12.0095 12.731,5.7453 4.889,-4.2324 6.575,-4.3062 7.845,-0.3463 1.931,6.0174 14.909,6.7336 18.282,1.0084 1.308,-2.2186 5.65,-4.0354 9.649,-4.0354 4,0 8.851,-2.9564 10.779,-6.57 5.323,-9.9779 9.651,0.6353 4.431,10.8666 -2.383,4.674 -3.322,9.5566 -2.088,10.8519 3.854,4.0421 26.821,4.6881 35.534,0.9984 v 0 c 12.706,-5.3808 15.039,-19.1056 5.541,-32.5824 -4.449,-6.3129 -8.088,-14.3335 -8.088,-17.8228 0,-3.49 4.826,-13.836 1.336,-22.0863 -13.003,-8.7435 -13.637,-17.5431 -13.167,-21.5588 1.065,-9.0917 -6.266,-18.6691 -17.814,-23.2754 -11.707,-4.6694 -12.116,-23.8146 -0.668,-31.3151 6.002,-3.9324 7.016,-6.5215 3.847,-9.8455 -1.214,-1.2746 -3.668,-4.7443 -5.072,-8.6707 0.05,-0.1845 0.106,-0.3685 0.164,-0.551 3.483,-2.797 19.275,-4.8829 6.253,-11.991 -1.198,0.015 -2.686,-0.2136 -4.01,-0.5562 10.796,-15.7569 -0.334,-30.6515 -11.168,-33.1982 -0.183,-0.5636 -0.363,-1.1181 -0.539,-1.6677 2.197,-1.5023 4.778,-4.732 4.499,-11.6619 2.106,-24.345 5.182,-32.2737 -24.095,-48.7651 -6.926,-1.3628 -15.569,-5.9266 -19.207,-10.1451 -4.213,-4.8824 -11.748,-7.6702 -20.735,-7.6702 -10.084,0 -16.694,-2.8796 -23.147,-10.0856 -5.795,-6.4712 -12.489,-9.7288 -19.171,-9.7664 z m -1.973,13.8008 c 3.877,0 7.769,2.2685 8.651,5.0425 1.015,3.1935 -2.157,5.0431 -8.651,5.0431 -6.496,0 -9.67,-1.8496 -8.656,-5.0431 0.881,-2.774 4.778,-5.0425 8.656,-5.0425 z m 43.995,14.121 c 1.99,0 4.689,1.8144 5.996,4.0334 1.307,2.2185 -0.322,4.0338 -3.62,4.0338 -3.297,0 -5.994,-1.8153 -5.994,-4.0338 0,-2.219 1.628,-4.0334 3.618,-4.0334 z m 34.6,19.7669 c 3.924,0.1309 11.776,4.8199 11.776,8.4877 0,2.984 -2.459,2.9224 -8.021,-0.1996 -4.411,-2.4772 -7.083,-5.4881 -5.935,-6.6918 0,-1.1754 0.87,-1.637 2.18,-1.5928 z m -54.179,18.5642 c 4.716,2.7979 19.671,2.8289 24.238,6.5934 24.935,20.5532 27.437,28.5767 33.441,59.7781 -1.115,0.081 -2.201,0.1744 -3.17,0.3237 -8.388,1.0092 -11.73,-0.1407 -11.73,-4.0359 0,-2.8342 -1.95,-11.9796 -5.296,-14.8361 -17.853,-26.6585 -45.965,-24.0381 -62.206,-2.7627 -4.166,4.3794 -6.305,14.261 -8.264,21.3044 -1.368,0.9587 -1.468,0.9673 -2.724,0.2345 -0.522,-0.3048 -1.111,-1.3827 -1.308,-2.3964 -1.49,-7.2157 -6.272,-18.6373 -11.62,-23.7865 -0.894,-0.4622 -2.562,-1.4754 -3.708,-2.2532 -17.391,-10.3112 -37.177,-7.5573 -50.698,17.0958 -1.753,0 -0.123,-4.1966 6.515,-16.7579 5.27,-9.977 8.988,-15.4247 13.273,-19.451 7.838,-7.3799 15.719,-19.071 27.691,-23.157 16.098,-5.4941 41.227,-4.0379 55.566,4.1068 z m 6.152,40.7305 c 6.351,-0.091 12.208,2.7384 15.525,8.2747 7.456,9.8036 13.577,20.9762 4.544,32.5891 -2.598,2.901 -9.975,8.0872 -13.833,9.7217 -1.249,0.5295 -4.195,1.1024 -6.546,1.2711 -5.955,0.2466 -14.26,-4.0941 -18.91,-8.4328 -4.232,-3.5348 -6.851,-10.7414 -6.535,-17.9892 0.192,-4.4227 0.416,-5.2694 2.136,-8.0657 5.288,-11.637 14.918,-17.2441 23.619,-17.3689 z m -75.468,4.438 c 5.172,-0.01 10.079,2.9483 14.773,7.1544 7.686,8.9262 8.876,18.2889 4.932,29.7883 -8.704,17.3245 -24.048,22.49 -40.297,12.7837 -4.109,-2.6819 -4.547,-3.292 -6.829,-9.5286 -1.895,-5.76 -1.253,-18.9626 4.927,-25.9862 3.557,-4.043 11.662,-10.5233 16.3,-12.7388 2.107,-1.0126 4.171,-1.4698 6.194,-1.4728 z m 60.927,10.9911 c -5.575,0.268 -6.228,6.972 -6.446,9.7282 -0.541,6.9206 0.313,10.5684 3.464,14.7917 2.605,3.4509 7.397,0.4692 10.879,-1.8279 2.338,-2.614 2.68,-11.1335 1.596,-17.2519 -0.819,-3.802 -6.247,-5.4243 -9.493,-5.4401 z m -70.014,10.2556 c 0.106,4.728 0,8.301 2.947,11.4894 2.197,2.3704 6.348,3.6729 8.047,3.4186 4.495,-0.6723 6.295,-5.0103 6.432,-11.7427 -1.129,-14.4086 -17.593,-13.1808 -17.426,-3.1653 z m 45.856,10.8498 c 1.539,0.036 2.283,0.9887 3.607,3.9447 1.819,4.0638 8.588,15.0741 13.342,18.3032 5.629,3.775 11.74,6.2459 18.66,7.2357 15.297,2.5863 33.532,-12.417 40.286,-24.2278 0,-0.2949 0.636,-0.9536 1.413,-1.463 4.312,-2.3207 10.845,-1.3246 16.898,-1.4694 0.447,33.9837 -12.495,70.4178 -44.039,92.5427 -39.124,26.7303 -83.156,26.8363 -113.504,-6.7887 -3.15,-3.5355 -15.039,-17.6857 -16.635,-23.1696 -2.888,-9.9281 -3.268,-11.7537 -3.37,-16.1422 l -0.104,-4.4968 c 2.692,-0.7141 5.483,-1.467 8.237,-1.5488 10.889,-0.6855 8.923,-16.7422 -2.781,-14.4335 l -5.8,0.1641 -0.371,-1.4791 c -0.501,-2 0.87,-11.3998 2.111,-16.3137 1.325,-5.2587 2.69,-8.3905 3.53,-8.1102 0.377,0.1254 1.221,1.874 1.878,3.8852 1.77,5.4221 5.358,16.6442 8.192,19.2154 20.989,16.92 40.647,11.8996 56.428,-4.4962 6.172,-4.4256 7.086,-20.0466 10.813,-21.0482 0.457,-0.075 0.854,-0.1132 1.209,-0.1038 z m 60.95,42.9134 c -11.706,-0.2359 -57.891,5.9264 -85.597,12.7379 -7.83,1.9403 -14.405,1.5458 -13.134,12.6859 0.66,5.9048 2.884,10.4873 7.297,15.0323 4.863,5.01 8.747,7.5562 16.057,10.525 6.965,2.8291 10.865,3.7542 19.029,4.5074 16.07,1.4452 28.495,-6.9767 44.642,-16.0847 3.9,-0.9089 13.321,-10.1315 17.468,-17.1056 6.101,-8.2804 2.232,-22.1371 -5.762,-22.2982 z m -11.662,12.1398 c 1.842,0 2.13,0.1708 2.13,1.2915 -2.017,7.9198 -5.603,11.0572 -10.175,14.5005 -13.689,10.2839 -23.191,16.1223 -42.889,14.6749 -7.801,-1.3864 -21.954,-7.4973 -22.438,-16.0454 0.966,-1.922 3.151,-1.3633 5.097,-2.0054 18.44,-6.0843 38.8,-5.7565 60.464,-10.8998 3.125,-0.8312 6.64,-1.5163 7.811,-1.5163 z m 69.166,8.0422 c 0.746,0.02 1.464,0.1591 2.129,0.4266 9.106,3.6664 5.974,13.3743 -4.315,13.3743 -5.289,0 -9.614,-1.453 -9.614,-3.2277 0,-5.2697 6.586,-10.7271 11.8,-10.5732 z m -187.978,48.1005 c -0.812,2.604 -3.662,4.5441 -7.039,4.5441 -4.003,0 -8.277,-2.7241 -9.495,-6.0523 -1.197,-15.7285 13.683,-0.8326 16.534,1.5082 z m 204.407,-5.8094 c 1.573,0.082 2.536,1.92 2.536,5.6009 0,5.4116 -11.798,15.3907 -14.655,12.3945 -0.692,-0.727 1.007,-5.1303 3.778,-9.7845 3.286,-5.5199 6.317,-8.3168 8.341,-8.2109 z m 9.907,36.0599 c 4.505,0 7.405,8.5839 5.11,15.1277 -3.06,8.7314 -8.633,5.4772 -8.633,-5.0434 0,-5.5467 1.585,-10.0843 3.523,-10.0843 z" fill="#00B894" transform="translate(-197.86665,-118.615) matrix(0.24951201,0,0,0.24951201,-4710.6764,-1066.4892)"/>
</svg>