<?xml version="1.0" ?><svg height="65.762154mm" viewBox="0 0 97.123604 65.762154" width="97.123604mm" xmlns="http://www.w3.org/2000/svg">
    <path d="m 11088.507,2815.4266 c 8.611,-35.0366 27.106,-82.4069 88.717,-85.4085 61.61,-3.0016 95.387,41.1489 96.721,84.3716 1.334,43.2227 -47.967,109.3665 -103.816,110.8946 -55.85,1.528 -85.382,-50.0991 -81.622,-109.8577 z" fill="#FFFFFF" transform="translate(-393.67032,-14.743928) matrix(0.26458333,0,0,0.26458333,-2515.3966,-696.48494)"/>
    <path d="m 11132.166,2926.9021 -13.452,-6.8216 -13.453,7.8599 c -14.159,7.8141 -36.774,13.1009 -40.504,0.2945 -3.24,-11.1232 -12.486,-2.7257 -18.633,-1.8716 -10.105,1.404 -19.968,-4.5379 -19.933,-15.1454 0.02,-6.663 -6.038,-5.2007 -10.869,-5.2007 -18.32,0 -25.566,-26.105 -16.566,-59.6868 20.539,-76.644 50.359,-130.4917 80.484,-145.3307 11.335,-5.5841 16.66,-6.2318 54.271,-6.6009 22.938,-0.2252 48.888,-1.7386 57.669,-3.3633 46.472,-8.5984 83.692,1.7878 109.945,30.6781 11.256,12.3874 36.905,53.5891 42.292,67.9369 9.882,26.3191 14.462,54.9416 17.922,80.539 3.169,23.4465 -5.337,41.0762 -27.173,41.2088 -8.808,0 -12.315,1.0812 -12.315,3.7967 0,6.057 -15.838,17.7278 -24.058,17.7278 -4.127,0 -10.84,-2.6251 -14.919,-5.8336 -5.992,-4.7128 -8.259,-5.2196 -11.798,-2.6367 -7.508,5.4791 -21.443,11.1608 -27.372,11.1608 -3.12,0 -9.217,-3.5427 -13.547,-7.8725 -11.025,-11.8712 -8.611,-7.4915 -23.551,0.2137 -27.063,12.5636 -50.693,10.9257 -74.44,-1.0524 z m 65.886,-15.5252 c 18.836,-9.4127 50.552,-45.5373 58.098,-61.2053 6.157,-12.7816 6.032,-32.7926 -0.332,-53.3893 -6.056,-19.5954 -11.216,-27.9837 -17.215,-27.9837 -2.532,0 -7.447,-3.0279 -10.923,-6.7283 -6.307,-6.7129 -6.333,-6.7162 -11.337,-1.3454 -7.866,8.4442 -17.549,6.2686 -32,-7.1896 l -7.016,-6.5343 -3.29,7.9425 c -7.4,17.8659 -24.14,24.6572 -30.834,12.5098 -1.631,-2.9597 -3.251,-5.8688 -3.599,-6.4646 -0.35,-0.5958 -3.132,2.0899 -6.182,5.9683 -3.051,3.8785 -8.815,8.6175 -12.807,10.5311 -9.797,4.6957 -19.198,28.1032 -19.307,48.0755 l -0.08,15.0613 8.481,0.241 c 14.047,0.3993 16.428,12.4028 3.124,15.7424 -5.586,1.4018 -6.361,2.7817 -4.901,8.721 2.282,9.2777 12.693,31.632 19.439,37.737 23.547,17.2697 45.864,20.3214 70.681,8.3106 z m -34.271,-23.2851 c -5.979,-2.4122 -4.858,-9.1845 5.953,-10.5975 12.073,-1.5778 19.317,-5.1398 25.169,-10.1213 14.943,-12.7192 19.198,-16.3707 22.83,-12.7397 9.588,9.5888 -19.49,35.4087 -39.448,35.0281 -6.128,-0.1171 -12.655,-0.8231 -14.504,-1.5696 z m -15.72,-77.6246 c -1.826,-7.2711 0.125,-13.727 8.599,-14.7631 6.361,-0.7777 8.899,8.3275 5.477,17.4827 -2.522,6.7479 -12.171,4.8735 -14.076,-2.7196 z m 43.204,1.2274 c -3.755,-11.0116 1.35,-17.3907 6.62,-17.3907 6.914,0 11.699,5.3672 9.191,14.3204 -1.753,6.257 -13.789,8.9977 -15.811,3.0703 z" fill="#00B894" transform="translate(-393.67032,-14.743928) matrix(0.26458333,0,0,0.26458333,-2515.3966,-696.48494)"/>
</svg>