<?xml version="1.0" ?><svg height="72.827362mm" viewBox="0 0 87.124283 72.827362" width="87.124283mm" xmlns="http://www.w3.org/2000/svg">
    <path color="#000" d="m 20621.453,4427.8035 c -53.057,3e-4 -96.069,47.902 -96.069,106.9917 0,59.0896 43.012,106.9909 96.069,106.9912 53.057,3e-4 96.069,-47.9011 96.069,-106.9912 0,-59.09 -43.011,-106.9921 -96.069,-106.9917 z m 146.265,78.8993 c -0.907,0.01 -1.612,0.088 -2.055,0.2456 0,0 18.415,32.5743 28.896,18.954 9.5,-12.3433 -18.073,-19.2645 -26.841,-19.1996 z m -257.77,30.5282 c -13.076,5.9946 -35.019,24.9479 -26.302,32.8821 8.719,7.9342 26.302,-32.8821 26.302,-32.8821 z" fill="#FFFFFF" overflow="visible" paint-order="fill markers stroke" transform="translate(77.409602,96.144607) matrix(0.26458333,0,0,0.26458333,-5494.4665,-1266.0705)"/>
    <path d="m 20614.79,4421.7691 c -18.154,0.1343 -33.497,7.0739 -46.286,16.5177 -24.001,11.5684 -45.726,31.3762 -57.045,72.5618 -1.856,6.7476 -3.46,12.8215 -4.884,18.4424 -1.38,0.8696 -2.646,1.8124 -3.598,2.5114 -2.637,1.6903 -12.357,10.143 -20.381,17.7234 -8.939,8.5114 -13.008,13.8656 -2.163,24.2954 5.425,5.4366 11.939,3.995 17.898,-0.2655 -0.312,4.6289 -0.322,8.8484 -0.1,12.9596 1.308,27.6322 10.198,58.3362 13.373,86.0813 3.305,27.6298 38.911,37.9452 42.701,-2.0804 -1.482,-21.1719 -3.798,-37.8793 -6.092,-51.9859 4.431,4.345 9.504,8.3076 15.317,11.6971 17.047,9.9387 35.277,18.7137 54.327,19.9369 29.27,1.8796 51.888,-7.4706 68.393,-22.494 4.196,34.1131 4.321,72.4108 30.673,63.1282 15.599,-11.5922 15.465,-43.7887 13.015,-71.7573 -0.115,-25.1444 3.13,-59.9949 1.5,-92.4953 1.552,-0.1941 3.112,-0.3294 4.691,-0.3836 7.603,-0.3893 11.842,-9.8514 -0.39,-12.0151 -1.722,-0.083 -3.638,-0.154 -5.204,-0.1979 -1.477,-15.364 -4.353,-29.8044 -9.573,-41.9441 -1.376,-4.7339 -7.87,-13.3627 -17.89,-23.7696 -13.632,-13.8084 -46.862,-26.6667 -75.614,-26.4656 -2.058,0.014 -4.094,0.096 -6.097,0.248 -2.232,-0.1826 -4.426,-0.2646 -6.579,-0.2489 z m 34.257,24.1416 c 16.918,3.9532 29.627,26.1809 46.963,34.5289 0.277,0.1473 0.59,0.377 0.915,0.6474 4.979,7.8223 8.984,17.2859 10.232,27.2961 0.888,5.1058 0.514,5.6678 -4.347,6.5156 -16.983,2.9618 -15.522,2.3558 -15.522,6.4306 0.02,6.4777 9.204,8.6278 15.279,7.9916 2.314,-0.3442 4.344,-0.4877 4.51,-0.3202 -0.713,17.6749 -2.147,21.324 -4.899,34.6494 -0.697,-1.7762 -1.434,-3.4682 -2.606,-5.0093 -11.379,-32.4543 -87.413,-28.7502 -118.065,2.5804 -11.191,14.3212 -22.863,30.3879 -16.004,50.9243 0.746,1.9899 1.355,3.8428 1.355,4.1181 -11.321,-8.2079 -18.759,-17.8541 -23.711,-27.8586 -1.856,-12.1142 -2.863,-22.9045 -1.897,-34.7511 3.939,9.5331 15.407,13.277 24.473,6.0728 4.49,-2.9943 5.769,-6.5958 6.276,-17.6625 0.283,-5.9219 2.294,-23.3984 -3.411,-27.7148 -7.148,-4.8124 -12.128,2.0568 -16.917,10.627 -1.922,4.0331 -5.144,7.5693 -7.719,11.381 3.074,-13.5962 8.722,-29.4479 18.133,-50.1105 2.271,-4.9135 15.032,-18.6062 17.955,-19.2678 1.258,-0.284 4.002,-1.2037 6.098,-2.0429 18.544,-7.1066 45.184,-12.2743 62.909,-19.0255 z m 75.46,17.963 c -2.073,0.039 -3.602,0.6474 -4.175,2.3416 -0.104,0.6858 0.355,2.5887 1.021,4.2289 2.267,5.5826 10.202,11.6614 18.603,14.2484 6.713,2.0847 42.057,18.5385 34.001,-1.3681 -1.452,-2.5861 -2.683,-3.7866 -6.594,-6.4314 -7.764,-5.2325 -17.946,-9.6954 -27.87,-10.617 -5.08,-0.4779 -11.025,-2.4771 -14.986,-2.4024 z m -53.172,20.5568 c -5.602,-0.024 -6.311,0.105 -10.406,1.8855 -11.904,5.3323 -5.998,19.573 4.772,10.0213 7.467,-6.623 10.51,-1.9783 14.203,-1.968 11.2,5.1992 10.105,-6.2421 -0.284,-9.0401 -1.51,-0.5798 -4.294,-0.8821 -8.285,-0.8987 z m -82.367,2.8558 c -4.02,-0.074 -8.091,0.8838 -11.646,2.7185 -6.844,4.1164 -11.773,7.7974 -6.347,16.9813 3.837,5.1949 8.67,-1.8838 10.935,-3.8329 2.808,-2.9308 9.821,-4.8715 12.649,-3.4999 0.543,0.2631 2.137,1.0308 3.543,1.7058 4.624,1.9279 9.851,1.6349 7.953,-4.401 -3.818,-6.562 -10.384,-9.5488 -17.087,-9.6718 z m 178.173,15.0398 c -3.905,0.04 -6.993,1.505 -6.2,6.3073 3.681,8.4416 11.654,20.5029 25.758,23.1224 1.556,0.2862 3.105,0.1482 8.202,-0.7307 10.971,-2.043 10.489,-12.3473 1.965,-18.0578 -1.374,-1.0062 -3.234,-2.3939 -4.132,-3.0839 -3.509,-2.6063 -11.017,-4.1131 -15.461,-5.6543 -2.608,-0.8662 -6.687,-1.9389 -10.132,-1.903 z m 6.584,9.3631 c 1.293,0.049 4.402,0.9278 8.569,2.4546 0.849,0.3122 11.399,3.6525 5.618,5.3914 -3.908,1.1707 -5.637,0.786 -10.435,-2.3232 -2.405,-1.5589 -4.412,-3.9636 -4.412,-5.289 0,-0.1746 0.229,-0.2503 0.66,-0.2338 z m -212.875,18.3499 c 0.884,0.3387 0.95,0.9943 0.623,6.2019 -0.642,10.252 -1.824,14.1449 -4.881,16.0749 -3.761,2.3743 -4.765,2.3579 -7.034,-0.1132 -2.321,-2.5278 -2.543,-4.3803 -1.08,-9.0211 1.639,-4.6337 8.657,-10.0988 12.372,-13.1425 z m -57.957,14.6504 c -0.47,2.1378 -0.907,4.1956 -1.303,6.166 -1.181,2.0687 -2.59,4.3969 -3.952,6.4822 -0.466,0.6917 -10.057,11.1902 -12.374,8.0158 -1.527,-5.5646 9.268,-11.8517 14.166,-18.1277 0.541,-0.6447 2.076,-2.3851 3.463,-2.5363 z m 149.977,5.0884 c 14.502,0.1602 27.705,4.0977 36.017,12.7364 0.309,1.2497 0.919,3.5504 1.353,5.1126 0.875,3.1426 0.474,7.7278 -0.909,10.4031 -9.551,17.4611 -38.756,6.2173 -53.016,5.9788 -18.76,-0.8988 -35.517,15.7964 -50.603,30.6247 -4.162,3.9629 -5.333,4.1133 -6.974,0.8936 -15.99,-37.7641 34.036,-66.192 74.132,-65.7492 z m -12.556,47.5257 c 11.852,-0.033 26.524,8.5413 40.441,2.7685 1.874,-0.4588 3.983,-1.0109 4.687,-1.2265 2.007,-0.6154 1.59,0.8656 -1.136,4.0376 -17.501,20.019 -53.753,34.8166 -82.353,31.296 -2.586,-0.7576 -5.571,-1.6008 -6.632,-1.8738 -1.061,-0.2731 -2.212,-0.9571 -2.557,-1.5204 -0.514,-0.8422 -0.343,-1.2705 0.968,-2.4099 13.355,-11.4467 22.611,-27.0229 42.998,-30.7602 1.162,-0.213 2.358,-0.3079 3.584,-0.3113 z" fill="#00B894" transform="translate(77.409602,96.144607) matrix(0.26458333,0,0,0.26458333,-5494.4665,-1266.0705)"/>
</svg>