<?xml version="1.0" ?><svg height="91.348473mm" viewBox="0 0 62.739147 91.348473" width="62.739147mm" xmlns="http://www.w3.org/2000/svg">
    <path color="#000" d="m 21994.717,4083.8893 a 95.350514,97.659577 0 0 1 -95.35,97.6596 95.350514,97.659577 0 0 1 -95.35,-97.6596 95.350514,97.659577 0 0 1 95.35,-97.6596 95.350514,97.659577 0 0 1 95.35,97.6596 z" fill="#FFFFFF" overflow="visible" paint-order="fill markers stroke" transform="translate(-394.23158,57.769475) matrix(0.27234584,0,0,0.27234584,-5539.6709,-1141.7506)"/>
    <path d="m 21953.839,4173.5752 c -10.467,15.6048 -83.556,28.0986 -115.22,5.3978 -4.205,-3.3515 -14.496,-11.0275 -14.496,-10.1994 7.327,33.0573 14.295,66.7774 10.136,94.8361 -3.415,34.4354 -19.615,66.1919 -46.144,42.5003 8.595,-88.6286 -5.645,-173.0756 16.301,-249.3064 16.763,-58.2328 58.854,-66.7923 93.742,-75.8451 27.788,-4.1095 64.891,8.3997 78.929,21.9768 9.029,8.9532 14.881,16.377 16.122,20.4499 11.369,24.3646 18.288,46.3871 18.288,73.5975 l 3.418,2.2381 c 8.283,4.941 0.354,10.9161 -5.783,12.6428 -15.429,61.5799 1.635,152.4363 -17.438,201.8111 -34.208,13.9627 -30.201,-50.542 -37.855,-140.0995 z m 26.746,-57.0239 c 0.388,-1.3633 0.332,-5.524 0.332,-5.524 -0.505,0.1945 -1.945,0.096 -3.201,-0.2274 -10.873,-2.7118 -15.336,-12.8375 -6.085,-17.792 3.287,-1.7138 7.769,-1.8971 10.577,-0.4324 3.222,1.6803 6.547,0.4715 6.626,-2.4079 0.03,-0.567 0.187,-3.6406 0.381,-6.8309 -0.195,-17.2808 -5.722,-33.361 -14.408,-48.316 -1.068,-1.8129 -2.901,-3.7753 -4.089,-4.3785 -15.622,-7.1821 -27.073,-26.3058 -42.319,-29.707 -15.972,5.8083 -39.978,10.2542 -56.688,16.3684 -1.888,0.7219 -4.362,1.5129 -5.495,1.7574 -2.635,0.5689 -14.133,12.3492 -16.18,16.5766 -20.803,42.6859 -27.473,83.5611 -21.516,108.8114 2.584,4.0618 8.501,10.2949 11.392,11.9996 0.644,0.38 3.06,1.8498 5.37,3.266 5.869,3.9633 11.661,5.2273 16.125,7.0705 53.715,22.3585 114.631,-13.8112 119.178,-50.2338 z m -127.651,23.4428 c -6.191,-2.9671 -1.236,-13.5163 5.227,-11.4118 1.422,0.4698 4.078,2.3372 5.902,4.1503 7.667,6.589 20.441,11.2013 31.995,9.0151 9.184,-2.373 13.648,7.6043 -3.988,12.3559 -14.072,3.8771 -28.277,-3.568 -39.136,-14.1095 z m 46.68,-57.8172 c -4.828,-11.8075 4.13,-20.1871 10.531,-16.4234 3.273,0.5221 4.035,1.102 5.498,4.1834 2.4,5.0594 1.677,10.1877 -1.898,13.453 -7.887,6.4541 -12.939,0.9301 -14.131,-1.213 z m 43.505,-11.4229 c -0.973,-6.3716 2.623,-6.9678 6.898,-9.4366 8.998,-3.2969 16.205,10.0319 10.907,16.6656 -2.342,2.7488 -3.315,3.2106 -6.813,3.2327 -7.299,-0.3393 -10.506,-5.4262 -10.992,-10.4617 z m -16.185,-29.4266 c 3.74,0.1989 5.629,2.2554 6.79,6.6881 1.162,4.4328 -2.13,10.8077 -6.564,10.7616 -4.788,-0.05 -6.098,-6.066 -6.279,-10.1466 -0.237,-5.3634 3.647,-7.431 6.053,-7.3031 z" fill="#00B894" transform="translate(-394.23158,57.769475) matrix(0.27234584,0,0,0.27234584,-5539.6709,-1141.7506)"/>
</svg>