<?xml version="1.0" ?><svg height="83.931061mm" viewBox="0 0 72.109116 83.931061" width="72.109116mm" xmlns="http://www.w3.org/2000/svg">
    <path color="#000" d="m 21568.531,4919.9442 c 0,60.4774 -46.26,91.2355 -103.97,91.2352 -57.709,-2e-4 -96.799,-42.7187 -96.799,-103.1957 0,-60.4767 46.783,-109.5028 104.492,-109.503 57.71,-4e-4 96.277,60.9864 96.277,121.4635 z" fill="#FFFFFF" overflow="visible" paint-order="fill markers stroke" transform="translate(-207.36207,-11.707065) matrix(0.22002949,0.0310739,-0.0310739,0.22002949,-4418.3766,-1754.179) translate(476.94653,187.2118)"/>
    <path d="m 21875.642,4936.6468 c -2.93,-0.079 -5.59,0.3062 -7.992,1.0335 -0.428,0.1294 -0.846,0.2717 -1.257,0.4217 -14.457,5.2925 -18.879,23.2094 -15.994,24.6927 -31.52,-7.0229 -52.499,14.1414 -54.061,46.484 -12.789,9.2323 -48.374,40.4977 -18.524,61.2207 -26.567,32.5713 -21.244,57.4831 2.649,62.3743 -31.905,28.416 -32.751,85.7579 1.862,95.0262 -4.143,35.1596 -8.479,70.1345 40.951,70.9713 0.284,42.213 63.54,16.2842 43.437,-17.8575 34.931,64.8273 107.666,11.1379 72.849,-6.5343 46.511,-7.5879 33.789,-38.8853 13.085,-44.6452 10.397,-5.4739 10.826,-7.0317 10.433,-15.1674 52.6,-7.9353 84.171,-40.6113 89.173,-89.6141 0.173,-2.919 0.67,-6.0551 1.106,-6.9697 3.633,-3.8516 8.685,-2.1026 13.09,-5.1285 9.903,-2.9552 4.838,-20.4106 -4.514,-18.7559 -3.219,0.6157 -4.999,0.5304 -8.241,0.9969 -1.188,-23.3546 -11.555,-46.2712 -22.459,-64.8869 34.459,-25.7552 -24.18,-72.4962 -49.744,-70.4733 -9.077,-14.352 -22.525,-8.5429 -36.047,-2.3889 -15.39,-13.7434 -27.465,-25.4241 -52.86,-16.0087 -6.431,-3.2453 -12.061,-4.6605 -16.942,-4.7909 z m 111.603,80.4786 c 2.757,1.7654 5.303,3.5179 7.753,5.2305 -0.223,0.3542 -0.516,0.7495 -0.898,1.2272 -8.535,5.6579 -33.444,29.5184 -43.147,30.7594 -10.051,1.2399 -23.644,10.6603 -31.917,15.8597 -1.447,0.7726 -3.259,2.1153 -4.028,2.9833 -3.034,3.4278 -6.317,6.6229 -6.805,6.6195 -0.532,0 -7.14,4.1838 -10.506,6.6513 -9.455,6.7712 -18.366,11.0606 -27.789,16.8486 0.18,-0.6125 0.377,-1.2302 0.562,-1.8441 33.433,-24.9997 68.283,-60.9946 63.374,-81.1373 21.89,6.7969 37.621,17.3811 53.401,-3.1981 z m 18.929,16.3728 c 0.2,0.016 0.371,0.068 0.505,0.1548 20.032,20.7978 24.11,46.9759 27.772,62.1362 1.388,1.7474 0.04,3.9346 -2.893,4.6959 -3.443,0.8701 -7.498,-0.4501 -10.753,3.291 -3.141,3.6086 -5.018,10.0833 2.37,13.5106 7.858,3.6466 8.936,-0.495 8.989,7.4021 -5.618,34.0274 -30.477,57.2607 -73.333,63.6921 -35.568,2.301 -69.657,-4.4877 -87.095,-26.8632 -2.594,-3.3319 -7.246,-10.7268 -7.252,-11.5259 0,-0.3285 -0.583,-1.2535 -1.297,-2.0802 -0.416,-8.2405 0.493,-17.3887 2.38,-27.0033 0.764,-0.475 1.312,-0.7762 1.444,-0.7752 11.669,-6.5442 24.004,-15.1747 35.294,-21.518 1.817,-1.0095 4.796,-2.8225 6.622,-4.0298 1.826,-1.2062 3.835,-2.1914 4.467,-2.187 5.734,7.7646 14.476,43.1186 40.795,23.7389 12.209,-7.0001 11.075,-32.431 13.103,-47.2106 l 0.256,-7.2375 c 5.011,-2.0646 33.444,-28.3744 38.626,-28.1909 z m -4.94,28.2051 c -0.886,0 -2.04,0.2143 -3.756,0.5862 -4.669,1.0116 -7.573,6.8969 -7.144,14.479 0.163,2.8663 2.55,7.4697 4.691,9.0506 0.745,0.5508 3.106,0.9717 5.403,0.9611 7.437,-0.032 10.014,-3.5882 9.076,-12.5259 -0.468,-4.4596 -1.681,-7.1538 -4.706,-10.4665 -1.352,-1.4823 -2.087,-2.0838 -3.564,-2.0845 z" fill="#00B894" transform="translate(-207.36207,-11.707065) matrix(0.22002949,0.0310739,-0.0310739,0.22002949,-4418.3766,-1754.179)"/>
</svg>