<?xml version="1.0" ?><svg height="74.80304mm" viewBox="0 0 62.06435 74.80304" width="62.06435mm" xmlns="http://www.w3.org/2000/svg">
    <path d="m 9477.4029,2904.2902 c -24.817,-3.306 -78.369,-16.4568 -83.43,-93.5981 -5.061,-77.1413 29.307,-105.7938 56.328,-120.7812 27.021,-14.9875 88.41,-19.616 109.063,28.0647 20.654,47.6807 11.592,110.2753 -16,138.6339 -27.593,28.3586 -41.634,39.5993 -65.961,47.6807 z" fill="#FFFFFF" transform="translate(145.18099,-104.71752) matrix(0.26458333,0,0,0.26458333,-2623.6357,-591.18211)"/>
    <path d="m 9446.7718,2907.725 c -6.6978,-3.0399 -16.044,-8.2794 -20.7688,-11.6438 -12.3082,-8.7644 -28.7769,-35.677 -34.8867,-57.0119 -3.5239,-12.3042 -6.8943,-18.7625 -10.2492,-19.6398 -7.9368,-2.0755 -9.603,-10.5085 -3.1146,-15.7626 4.6046,-3.7287 5.951,-9.0698 7.1683,-28.4383 1.6177,-25.743 6.4981,-40.6498 17.6448,-53.8969 3.895,-4.629 7.0817,-9.4257 7.0817,-10.6589 0,-1.2336 -6.3802,-2.856 -14.1782,-3.6052 -17.1406,-1.6471 -28.0811,-10.424 -28.0811,-22.5276 0,-6.5851 1.8318,-8.8701 9.77,-12.1868 5.3736,-2.2452 12.9804,-4.0822 16.9036,-4.0822 5.7168,0 7.1339,-1.3887 7.1339,-6.9895 0,-9.0671 8.4034,-11.2516 34.0958,-8.8638 19.2072,1.7854 19.4327,1.7266 19.4327,-5.0554 0,-26.2745 42.1118,-21.4568 68.3222,7.8159 4.3998,4.9139 5.4654,5.0594 9.8603,1.3462 7.9868,-6.748 13.3715,-3.1363 21.8877,14.6815 4.4127,9.2323 9.1828,16.7862 10.6007,16.7862 8.4922,0 22.7835,10.6343 29.3506,21.8406 6.2216,10.6166 7.3816,15.8913 7.1988,32.7366 -0.1204,11.0444 -2.6992,28.6488 -5.7322,39.1207 -5.1367,17.7356 -5.2315,20.414 -1.3855,39.1064 3.9352,19.1251 3.8661,20.4129 -1.4702,27.4455 -4.0515,5.3397 -7.9527,7.2714 -14.1152,6.9904 -5.6001,-0.2557 -9.072,1.1913 -10.14,4.2259 -0.8929,2.5379 -3.4358,10.1055 -5.651,16.8168 -7.4291,22.5103 -20.7738,29.4878 -32.4424,16.9629 l -5.637,-6.0506 -9.9499,7.5892 c -24.3438,18.5678 -46.8939,22.8213 -68.6491,12.9485 z m 44.7299,-24.9274 c 28.9099,-18.5558 60.5716,-58.3519 67.7357,-85.1382 2.8858,-10.7891 2.5124,-16.6109 -2.5828,-40.2717 -6.7277,-31.2428 -16.5849,-49.6421 -30.6539,-57.2188 -8.7808,-4.7288 -9.7832,-4.6773 -28.9234,1.4872 -10.9047,3.5121 -28.7504,7.1339 -39.6569,8.0482 -19.4616,1.6317 -20.0637,1.9224 -32.4075,15.6517 -14.4705,16.0949 -21.7906,36.7007 -20.4556,57.5821 l 0.8642,13.5196 16.9037,1.4088 c 14.3928,1.1993 17.0275,2.2742 17.7371,7.2364 1.0083,7.0514 -9.2204,12.4845 -23.5042,12.4845 -8.2457,0 -9.7279,0.9779 -9.7279,6.4184 0,3.5301 4.3105,15.4128 9.5787,26.406 17.8744,37.2976 47.5204,50.0833 75.0928,32.3858 z m -34.8256,-36.193 c -5.9815,-1.5503 -5.2731,-10.3812 0.8977,-11.1892 21.0005,-2.7497 25.9831,-4.8829 39.2354,-16.7979 15.1197,-13.5938 22.7125,-14.6235 22.7125,-3.0799 0,7.4188 -13.5678,21.5675 -27.3287,28.4987 -8.5543,4.3087 -24.384,5.4534 -35.5169,2.5683 z m 36.551,-75.972 c -3.3027,-3.3027 -2.0172,-13.5735 2.5074,-20.0333 9.7223,-13.8803 22.0743,-2.8097 15.2494,13.6672 -3.2625,7.8763 -12.82,11.3029 -17.7568,6.3661 z m -45.5055,-9.2626 c -2.2314,-7.0298 6.3319,-20.387 12.3406,-19.2492 5.5842,1.0576 7.6032,15.1198 2.9722,20.6998 -4.8167,5.8039 -13.2643,5.0036 -15.3128,-1.4506 z" fill="#00B894" transform="translate(145.18099,-104.71752) matrix(0.26458333,0,0,0.26458333,-2623.6357,-591.18211)"/>
</svg>