<?xml version="1.0" ?><svg height="60.127575mm" viewBox="0 0 70.078079 60.127575" width="70.078079mm" xmlns="http://www.w3.org/2000/svg">
    <path color="#000" d="m 21583.689,4915.882 a 104.49237,109.50332 0 0 1 -104.493,109.5037 104.49237,109.50332 0 0 1 -104.492,-109.5037 104.49237,109.50332 0 0 1 104.492,-109.503 104.49237,109.50332 0 0 1 104.493,109.503 z" fill="#FFFFFF" overflow="visible" paint-order="fill markers stroke" transform="translate(-11.418295,-66.169347) matrix(0.26458333,0,0,0.26458333,-5636.4422,-1204.3099)"/>
    <path d="m 21460.881,5028.7025 c -0.854,-0.3373 -4.201,-0.9716 -7.436,-1.4065 -9.183,-1.235 -12.151,-2.0263 -18.291,-4.8738 -3.143,-1.4583 -6.077,-2.6516 -6.521,-2.6516 -1.425,0 -8.502,-3.9196 -11.323,-6.272 -1.505,-1.2547 -3.811,-3.1164 -5.125,-4.1396 -3.645,-2.8356 -9.198,-7.5786 -9.616,-8.2122 -6.911,-7.5284 -14.454,-15.6209 -18.15,-23.3946 -5.99,-7.9009 -10.847,-17.0579 -13.771,-25.8325 -1.135,-3.4637 -1.82,-3.9066 -3.476,-2.2481 -2.454,2.4569 -8.799,6.1423 -10.577,6.1423 -2.742,0 -8.918,-3.8123 -9.86,-6.0857 -1.13,-2.7307 -0.212,-7.5459 1.782,-9.3456 0.892,-0.8047 3.294,-1.9811 5.34,-2.6145 2.045,-0.633 5.583,-1.7186 7.861,-2.4121 l 4.145,-1.2609 -0.149,-11.2654 c -3.633,-45.3306 27.432,-89.9111 61.927,-107.146 5.062,-2.5406 7.077,-3.3393 16.943,-6.7152 8.484,-2.903 21.67,-5.5817 31.64,-6.4287 51.32,-4.9278 80.562,15.5842 96.602,48.2952 7.37,10.2221 9.323,22.6582 14.804,33.3228 0.406,0.7573 1.064,4.39 1.464,8.0712 0.4,3.6812 1.132,8.3222 1.627,10.3134 l 0.899,3.6206 3.083,-0.4435 c 1.694,-0.2425 4.922,-0.7857 7.172,-1.2042 7.489,-1.3929 9.798,0.1777 9.119,6.2004 -0.365,3.2485 -0.683,3.6966 -4.306,6.102 -2.151,1.4281 -5.897,3.5886 -8.324,4.8011 -2.427,1.2122 -4.793,2.9605 -5.261,3.8846 -0.467,0.9243 -1.016,4.0863 -1.219,7.0275 -6.068,53.2223 -45.121,91.208 -108.627,95.4576 -3.027,0.9263 -20.442,1.4826 -22.378,0.7151 z m 112.953,-98.4523 c 0,-7.9531 -4.528,-1.3032 -12.611,-5.3336 -3.58,-3.229 -4.037,-6.7952 -2.863,-10.4641 3.052,-4.1314 7.74,-2.4891 11.383,-3.3897 3.104,-0.7875 4.544,-3.0003 3.09,-4.7504 -0.714,-0.8629 -2.334,-10.4893 -2.243,-13.3398 -4.632,-16.2717 -13.85,-38.49 -26.654,-49.0429 -1.131,-0.6987 -4.76,1.0347 -7.037,3.3612 -1.176,1.2022 -3.435,2.9142 -5.019,3.8051 -7.943,6.126 -16.847,11.4509 -24.548,17.4744 l -4.932,3.8739 -0.321,7.29 c -2.247,14.8994 -1.229,40.5048 -14.176,47.6415 -27.94,19.7047 -36.924,-15.8401 -42.926,-23.6194 -0.667,0 -2.797,1.006 -4.735,2.2338 -1.937,1.2288 -5.098,3.0767 -7.024,4.1063 -8.033,4.2937 -13.534,7.4853 -14.403,8.3527 -0.509,0.5091 -1.176,0.925 -1.482,0.925 -0.307,0 -1.997,0.953 -3.755,2.1166 -1.759,1.1641 -4.693,2.9213 -6.52,3.9045 -1.826,0.983 -4.997,2.8754 -7.047,4.2047 -2.05,1.3296 -3.953,2.4171 -4.228,2.4171 -0.274,0 -2.24,1.1712 -4.367,2.6028 -2.127,1.4317 -4.297,2.6035 -4.819,2.6035 -2.184,0 -2.68,1.9248 -1.559,6.0429 1.99,7.2942 5.018,15.1311 6.45,16.6876 0.778,0.8439 1.415,1.8132 1.415,2.1532 0,0.8047 4.862,8.2192 7.578,11.5564 16.968,20.8396 16.997,20.8652 33.561,28.6738 6.318,2.9778 9.48,3.9548 14.637,4.5228 1.841,0.203 5.02,0.6372 7.065,0.9638 64.92,16.1565 115.541,-26.8725 118.09,-77.5737 z m -42.581,-33.6987 c -2.25,-1.577 -4.738,-6.1975 -4.89,-9.0831 -0.399,-7.6331 2.709,-13.5797 7.648,-14.6316 4.844,-1.0316 5.454,-0.9169 7.724,1.4565 3.172,3.3148 4.433,6.0205 4.896,10.5086 0.928,8.9948 -1.818,12.5935 -9.675,12.6786 -2.427,0.027 -4.919,-0.3791 -5.703,-0.9286 z m -140.923,23.9374 c 13.346,-9.0969 25.234,-13.772 38.108,-22.6063 3.574,-2.509 10.583,-6.7692 11.144,-6.7732 0.516,0 4.006,-3.2414 7.236,-6.7152 0.818,-0.8797 2.742,-2.2446 4.276,-3.033 8.776,-5.2952 23.202,-14.8783 33.828,-16.1983 4.366,-0.5148 7.018,-1.9642 12.467,-6.8095 1.226,-1.0915 3.737,-2.7791 5.578,-3.7499 1.84,-0.972 4.968,-3.0845 6.95,-4.696 6.737,-5.5113 15.009,-9.496 20.801,-16.0306 1.657,-1.9709 1.829,-2.6013 1.173,-4.3265 -0.962,-2.5304 -2.72,-4.4961 -5.139,-5.7473 -35.904,-11.6716 -65.332,-6.2667 -97.354,12.2449 -14.648,5.5714 -43.923,36.5507 -45.667,88.5318 0.283,0 3.254,-1.8404 6.599,-4.09 z" fill="#00B894" transform="translate(-11.418295,-66.169347) matrix(0.26458333,0,0,0.26458333,-5636.4422,-1204.3099)"/>
</svg>