<?xml version="1.0" ?><svg height="61.270176mm" viewBox="0 0 57.810188 61.270176" width="57.810188mm" xmlns="http://www.w3.org/2000/svg">
    <path d="m 8074.1259,16023.521 c -0.2234,-65.338 54.172,-107.658 90.473,-97.908 36.301,9.751 88.127,40.611 98.85,93.687 10.723,53.075 -34.2844,116.841 -82.766,125.25 -77.7716,13.489 -111.1565,-86.245 -106.557,-121.029 z" fill="#FFFFFF" transform="translate(-40.642534,23.075536) matrix(0.26458333,0,0,0.26458333,-2093.2119,-4235.1411)"/>
    <path d="m 8131.782,16139.075 c -32.6837,-16.131 -55.1977,-45.389 -63.5806,-82.624 -3.9394,-17.5 -4.2256,-28.493 -1.1882,-45.641 11.0575,-78.099 60.5814,-95.736 99.0255,-90.279 26.5316,4.408 61.7586,25.153 77.2185,45.472 4.9987,6.571 7.6415,8.249 13.1092,8.327 8.0657,0.109 10.8398,4.823 5.9947,10.176 -3.0455,3.365 -2.8728,4.762 2.1188,17.118 2.989,7.4 6.8585,14.497 8.5989,15.769 2.0459,1.496 2.5298,3.34 1.3691,5.219 -0.9875,1.598 -1.5231,10.427 -1.1905,19.621 0.5463,15.097 1.1276,17.138 6.0018,21.078 6.5844,5.321 5.2046,11.29 -2.6103,11.29 -3.2513,0 -5.8127,1.433 -6.5323,3.653 -11.5145,35.521 -43.7123,65.115 -77.7536,71.467 -23.0064,4.2 -40.8277,-0.991 -60.581,-10.646 z m 65.0633,-10.204 c 23.7897,-8.902 35.9155,-20.304 32.117,-30.202 -1.0387,-2.708 -2.2226,-2.708 -9.9107,0 -9.0965,3.208 -14.4037,1.594 -14.4037,-4.381 0,-5.321 -4.3249,-5.328 -10.6377,-0.01 -8.4831,7.14 -11.6295,6.774 -16.7697,-1.938 -2.3702,-4.016 -5.1233,-7.303 -6.1179,-7.303 -0.9945,0 -5.017,2.818 -8.939,6.261 -8.332,7.315 -9.7103,7.646 -9.7103,2.329 0,-4.973 15.3581,-19.025 20.7936,-19.025 4.0729,0 6.1016,1.649 11.3194,9.201 2.594,3.756 3.0389,3.787 7.6978,0.523 8.8778,-6.218 18.6247,-3.327 18.6247,5.525 0,3.011 0.8899,3.59 3.6524,2.375 8.1031,-3.559 19.4639,-3.519 23.4462,0.09 3.7735,3.415 4.151,3.13 9.2874,-7.006 2.9446,-5.81 5.3539,-11.523 5.3539,-12.694 0,-1.171 -3.2871,-3.502 -7.3046,-5.179 -7.0176,-2.934 -10.1044,-9.322 -4.6957,-9.719 1.4349,-0.11 5.4262,-0.339 8.8698,-0.521 l 6.2609,-0.33 v -13.913 c 0,-7.655 -0.6436,-14.559 -1.4303,-15.345 -0.7867,-0.786 -3.5783,0.08 -6.2035,1.915 -6.4222,4.498 -9.5497,4.207 -11.2154,-1.04 -1.034,-3.259 0.3727,-6.203 5.4814,-11.475 6.0306,-6.222 6.6229,-7.794 4.8345,-12.833 -1.5847,-4.468 -3.3756,-5.744 -8.0482,-5.744 -7.1006,0 -9.1465,-4.024 -4.6003,-9.048 2.9722,-3.283 2.6261,-4.378 -4.0888,-12.922 -12.1417,-15.452 -23.8156,-24.679 -43.9875,-34.769 -29.9056,-14.959 -47.2183,-14.525 -71.6531,1.79 -22.0909,14.753 -34.5993,40.108 -36.886,74.774 -2.1004,31.84 9.3678,62.579 31.5514,84.57 23.275,21.649 54.9045,38.089 87.312,26.044 z m 11.2551,-100.42 c -2.3838,-1.412 -8.151,-1.745 -15.1306,-0.872 -13.4719,1.684 -15.2709,-1.61 -3.554,-6.506 6.5563,-2.74 7.1851,-3.53 4.1573,-5.223 -1.962,-1.099 -4.3924,-1.487 -5.4011,-0.863 -2.7445,1.696 -7.1281,-4.56 -5.7364,-8.186 2.6745,-6.97 26.6768,-0.941 35.4237,8.899 7.9109,8.898 0.37,18.751 -9.7589,12.751 z m -2.4089,-39.195 c -10.8046,-6.82 -20.9398,-16.438 -19.1933,-18.216 1.9654,-2.001 18.4578,6.309 23.4328,11.807 1.887,2.084 3.1136,5.27 2.7261,7.076 -0.6192,2.887 -1.4641,2.807 -6.9656,-0.667 z" fill="#00B894" transform="translate(-40.642534,23.075536) matrix(0.26458333,0,0,0.26458333,-2093.2119,-4235.1411)"/>
</svg>