<?xml version="1.0" ?><svg height="61.371887mm" viewBox="0 0 68.009003 61.371887" width="68.009003mm" xmlns="http://www.w3.org/2000/svg">
    <path color="#000" d="m 21625.594,4540.0102 a 107.45791,111.38728 0 0 1 -107.457,111.3873 107.45791,111.38728 0 0 1 -107.458,-111.3873 107.45791,111.38728 0 0 1 107.458,-111.3873 107.45791,111.38728 0 0 1 107.457,111.3873 z" fill="#FFFFFF" overflow="visible" paint-order="fill markers stroke" transform="translate(-60.237609,-141.20631) matrix(0.26458333,0,0,0.26458333,-5601.3601,-1029.0841)"/>
    <path d="m 21413.943,4481.8337 c 6.423,-8.6816 12.113,-20.0331 19.08,-27.3319 34.708,-37.7935 112.75,-42.8791 151.704,-7.2797 20.424,18.2678 32.056,42.5828 42.643,64.7825 2.543,5.299 4.33,10.8153 5.167,15.9547 0.471,2.887 1.935,3.2802 6.868,1.8435 4.463,-1.2997 9.908,-1.355 11.885,-0.1212 1.162,0.7254 3.467,5.4842 3.88,8.0126 0.463,2.8285 -3.496,5.5945 -9.332,6.5205 -1.682,0.2662 -3.406,0.7742 -3.833,1.1278 -0.425,0.3541 -1.986,0.8946 -3.468,1.2016 l -2.693,0.5584 -0.208,5.4654 c -1.101,17.1694 -3.83,31.0049 -13.375,45.3058 -15.22,18.9933 -31.754,31.1261 -51.673,41.2333 -92.571,57.8379 -216.673,-51.9518 -156.645,-157.2733 z m 149.86,141.1114 c 2.486,-1.5112 4.81,-2.7475 5.16,-2.7475 11.941,-7.0833 26.417,-18.1279 34.416,-27.476 1.407,-1.7 3.135,-3.7093 3.84,-4.4647 1.695,-1.8148 3.553,-4.6211 3.553,-5.3659 0,-0.3271 -0.892,0.1543 -1.98,1.0716 -1.5,1.2608 -2.878,1.6946 -5.667,1.782 -2.846,0.086 -3.967,0.4522 -4.917,1.5942 -1.161,1.3995 -1.512,1.4425 -6.524,0.7999 -4.79,-0.6138 -5.471,-0.5506 -7.113,0.6532 -1.493,1.0965 -2.433,1.2461 -5.322,0.8486 -8.014,-1.0999 -6.545,-8.4023 -8.158,-7.6637 -1.696,2.6412 -2.653,6.3773 -5.483,7.7065 -2.034,0.8708 -3.334,0.9684 -6.192,0.4679 -2.857,-0.5003 -3.787,-0.4306 -4.42,0.3322 -1.33,1.6033 -5.581,3.3328 -7.566,3.0786 -1.024,-0.1313 -2.633,-1.1538 -3.574,-2.2715 -1.674,-1.9904 -1.725,-2.0028 -2.472,-0.6069 -1.101,2.0558 -4.778,4.0936 -7.394,4.0966 -11.445,-0.6285 -8.996,-10.767 -7.087,-18.2017 9.061,-19.7786 35.267,-28.8987 51.851,-26.0597 7.205,1.2604 8.949,0.962 6.688,-1.1439 -0.831,-0.7731 -1.692,-2.3164 -1.914,-3.4288 -0.222,-1.1122 -0.691,-2.1997 -1.042,-2.4162 -0.35,-0.2172 0.412,-1.4119 1.692,-2.6559 2.191,-2.1281 2.632,-2.2665 7.424,-2.3286 4.674,-0.058 16.712,-1.9153 23.811,-3.6676 2.987,-0.7369 3.493,-1.6192 2.26,-3.927 -3.678,-14.5858 -7.763,-29.6791 -15.659,-41.245 -29.299,-44.898 -92.683,-73.3236 -147.122,-29.6918 -10.728,7.7003 -15.98,15.7967 -23.152,25.3182 -20.252,28.3462 -20.053,74.498 -1.118,102.8065 36.711,62.6501 97.579,55.3262 133.181,34.8064 z m -19.371,-96.782 c -1.103,-0.6741 -3.166,-2.5129 -4.585,-4.0871 -2.462,-2.7336 -2.568,-3.0483 -2.359,-7.0312 0.139,-2.6551 0.577,-4.4091 1.204,-4.8288 4.119,-2.7559 6.475,-3.2477 9.102,-1.9006 5.058,3.344 8.183,7.5759 7.71,11.8296 -1.189,5.6191 -7.432,8.2023 -11.072,6.0181 z m 34.879,-13.3133 c -1.627,-1.7404 -1.712,-2.2217 -1.257,-7.1939 0.312,-3.4229 1.33,-4.8487 4.362,-6.1158 3.041,-1.2713 5.547,-1.0776 8.771,0.6789 2.94,1.6008 3.896,3.0897 5.26,8.1847 0.786,2.9438 0.437,5.1604 -0.779,6.7848 -4.836,4.6059 -12.365,1.866 -16.357,-2.3387 z m 38.747,48.5828 c 0.493,-1.8698 0.91,-5.0583 0.927,-7.0858 0.03,-3.505 -0.05,-3.6641 -1.516,-3.2333 -0.849,0.2499 -3.52,0.753 -5.933,1.1207 -5.93,0.9032 -7.633,1.3705 -7.633,2.0955 0,0.337 0.329,0.6127 0.73,0.6127 0.402,0 2.333,0.7865 4.294,1.7471 3.513,1.7233 6.654,5.297 6.654,7.5736 0,2.2814 1.619,0.4324 2.478,-2.8299 z" fill="#00B894" transform="translate(-60.237609,-141.20631) matrix(0.26458333,0,0,0.26458333,-5601.3601,-1029.0841)"/>
</svg>