<?xml version="1.0" ?><svg height="92.787186mm" viewBox="0 0 73.639557 92.787186" width="73.639557mm" xmlns="http://www.w3.org/2000/svg">
    <path color="#000" d="m 19010.336,4771.2052 c 36.931,17.0041 78.399,95.6207 7.239,166.7286 -71.16,71.1086 -157.534,4.0852 -156.981,-67.0781 4.846,-137.8546 112.813,-116.655 149.742,-99.6505 z" fill="#FFFFFF" overflow="visible" paint-order="fill markers stroke" transform="translate(-41.494046,-109.57034) matrix(0.26458333,0,0,0.26458333,-4946.1931,-1146.7309)"/>
    <path d="m 19082.993,5098.3286 c -6.337,-3.0896 -7.398,-7.441 -5.872,-13.9658 11.548,-49.3771 38.102,-105.2409 33.405,-148.352 -0.468,-1.6385 -2.464,-1.2063 -3.121,0.6753 -4.872,6.2667 -14.998,11.2949 -21.617,8.8395 -5.488,-2.5795 -4.774,-4.378 -5.495,-7.5858 -0.302,-1.3439 -0.679,-2.5732 -0.837,-2.7322 -0.159,-0.1595 -1.599,0.7461 -3.2,2.0112 -5.887,5.8911 -17.944,1.2205 -18.197,-6.5579 0,-0.9892 0.509,-2.9915 1.135,-4.4492 0.624,-1.4576 1.136,-3.1751 1.136,-3.8168 0,-1.059 -0.24,-1.133 -2.615,-0.8078 -5.156,1.0933 -7.812,-1.4785 -8.747,-2.0401 -3.353,2.9565 -8.604,9.9943 -11.317,13.7815 -14.426,20.1456 -43.124,33.5296 -67.832,37.7929 -41.787,7.2097 -87.297,-11.1274 -107.494,-57.0712 -9.368,-21.3115 -13.236,-50.93 -10.215,-68.3764 5.275,-31.626 15.905,-53.5111 32.121,-67.4614 8.141,-6.9342 19.455,-12.806 27.703,-16.9566 37.911,-19.2226 61.634,-14.4465 91.353,-3.1747 8.718,1.7625 15.286,7.438 22.675,11.2553 15.29,11.7347 24.503,19.3041 32.339,34.6864 1.449,2.8689 2.641,3.1024 6.192,1.2146 5.503,-3.0641 17.674,-4.7489 16.009,4.6914 -0.657,1.8845 -11.641,8.3267 -15.531,9.4821 1.227,13.3524 4.347,23.416 1.903,45.7005 -0.941,2.6655 -0.759,3.4422 0.804,3.4422 0.569,0 1.951,0.3833 3.073,0.8516 19.683,4.8336 30.823,14.5873 42.713,25.2789 8.139,7.4894 9.69,13.2555 13.042,23.0067 1.464,4.2363 2.2,10.688 2.918,25.5627 -2.102,46.4787 -9.061,50.801 -16.051,80.3164 -5.619,23.7241 -14.184,49.3355 -18.436,68.516 -1.691,7.0395 -6.873,7.5956 -11.944,6.2427 z m -55.108,-182.498 c 3.902,-6.305 6.768,-12.5136 9.507,-18.5901 1.966,-4.3519 5.328,-12.9937 5.328,-13.6994 0,-1.0878 -1.291,-0.9828 -2.905,0.2369 -3.201,1.2043 -8.917,6.6203 -11.021,7.2667 -6.107,10.3026 -24.551,8.238 -21.02,-1.0893 1.557,-3.2801 6.411,-8.1777 11.285,-11.3886 6.117,-4.4152 13.785,-8.7767 21.105,-10.3822 7.031,-1.4392 8.457,-2.4809 8.355,-6.1006 1.041,-9.1135 1.693,-18.6782 0.835,-27.8983 -0.374,-3.4019 -1.647,-8.0357 -2.4,-8.7365 -0.298,-0.2778 -1.693,-0.3348 -3.099,-0.1274 -9.575,0.7797 -12.873,-7.7253 -3.696,-11.3164 2.615,-0.9994 3.142,-2.3831 1.585,-4.1547 -2.549,-4.7576 -6.053,-8.3486 -8.546,-13.1571 -2.72,-5.3616 -5.992,-8.7234 -17.021,-17.4939 -1.492,-1.1849 -6.036,-3.8259 -10.097,-5.8683 -6.204,-3.2453 -14.912,-7.4423 -21.543,-8.5294 -20.004,-5.125 -42.755,-5.2111 -59.406,5.359 -9.303,5.5486 -20.698,10.3046 -27.552,17.9184 -19.324,17.8083 -30.538,38.941 -30.226,78.6297 0.515,12.3439 3.76,28.0111 8.48,39.6205 13.313,31.6684 48.62,51.6106 77.623,51.3344 27.712,-0.4078 58.278,-15.7377 74.429,-41.8334 z m -55.209,-99.994 c -2.091,-1.4948 -4.373,-5.3911 -4.373,-7.4638 0,-0.5383 -0.528,-2.661 -1.172,-4.7169 -2.436,-7.8053 0.03,-8.2584 6.387,-9.2752 2.866,-0.4918 5.691,0.5647 7.288,2.7252 1.069,1.4479 1.446,2.959 1.882,7.5647 0.642,6.7652 0.293,9.2375 -1.589,11.2679 -1.922,2.0748 -5.438,2.0321 -8.423,-0.1019 z m 35.968,-14.6433 c -1.946,-3.9253 -2.323,-9.0377 -0.915,-12.4096 11.292,-10.1997 14.045,3.9707 15.316,11.3041 1.062,14.2433 -10.781,13.5818 -14.401,1.1055 z m 87.652,101.3588 c 2.509,-1.32 2.745,-2.7552 0.455,-2.7552 -1.433,0 -3.475,1.8245 -3.475,3.1043 0,0.529 1.732,0.3292 3.02,-0.3491 z m -30.433,-17.3099 c 1.644,-1.1319 2.987,-2.2822 2.987,-2.5564 0,-0.2742 -0.895,-0.5413 -1.988,-0.5932 -1.093,-0.052 -2.407,-0.1161 -2.919,-0.1428 -0.628,-0.032 -1.18,0.7849 -1.696,2.5091 -0.42,1.4061 -0.768,2.6201 -0.773,2.6986 -0.04,0.6432 1.906,-0.2054 4.389,-1.9153 z" fill="#00B894" transform="translate(-41.494046,-109.57034) matrix(0.26458333,0,0,0.26458333,-4946.1931,-1146.7309)"/>
</svg>