<?xml version="1.0" ?><svg height="67.632538mm" viewBox="0 0 52.99622 67.632538" width="52.99622mm" xmlns="http://www.w3.org/2000/svg">
    <path color="#000" d="m 18244.214,3640.3749 a 83.330859,79.45987 0 0 0 -83.212,79.4594 83.330859,79.45987 0 0 0 22.299,54.1021 c -5.334,14.7101 -13.387,48.5061 3.25,58.5772 15.747,9.5314 51.888,-22.012 64.167,-33.453 a 83.330859,79.45987 0 0 0 76.945,-79.2263 83.330859,79.45987 0 0 0 -83.331,-79.4594 83.330859,79.45987 0 0 0 -0.118,0 z" fill="#FFFFFF" overflow="visible" paint-order="fill markers stroke" transform="translate(181.13473,39.789333) matrix(0.27714535,0,0,0.27714535,-5209.708,-1037.0569)"/>
    <path d="m 18190.011,3839.3272 c -12.329,-6.2865 -17.329,-11.752 -21.026,-22.9873 -0.476,-1.4453 0.879,-6.6496 3.012,-11.5653 2.814,-6.4883 3.57,-10.0803 2.763,-13.1075 -2.021,-7.5763 -1.966,-13.0372 0.162,-16.0755 2.652,-3.7866 2.659,-5.3284 0.03,-5.3284 -2.488,0 -12.23,-10.4759 -13.52,-14.5399 -0.609,-1.9249 -3.399,-3.5193 -8.391,-4.799 -10.824,-2.7742 -11.997,-7.3322 -2.093,-8.1309 4.948,-0.3989 4.988,-0.7522 2.348,-20.485 -1.808,-35.2334 16.632,-60.1985 44.711,-77.5017 5.935,-3.5883 21.612,-7.8872 28.226,-9.6925 5.057,-1.38 7.397,-0.3315 4.612,-2.0533 -3.153,-1.9481 -7.296,-13.3936 -7.33,-20.2438 -0.826,-20.651 36.153,-16.285 38.639,-4.8766 0.619,6.2768 -5.557,11.2987 -13.115,10.6634 -6.108,-0.5132 -7.723,-4.9177 -1.827,-4.9808 1.925,-0.021 4.168,-1.2359 4.989,-2.701 -12.014,-11.2268 -24.444,1.1414 -17.854,15.5335 l 3.373,6.6866 c 36.884,-1.3899 67.902,14.195 83.685,42.9869 11.942,22.0411 17.006,49.6751 12.174,66.4358 -11.098,33.3845 -32.562,54.3528 -67.386,58.7916 -6.827,0.7705 -8.03,1.5242 -13.534,8.4791 -3.321,4.1983 -8.379,8.8094 -11.239,10.2468 -2.86,1.4373 -7.905,5.5562 -11.209,9.1528 -11.551,12.5665 -27.49,16.5686 -40.194,10.092 z m 20.927,-10.741 c 2.775,-1.7158 5.047,-3.7388 5.047,-4.4959 0,-2.1755 -3.941,-1.6023 -5.995,0.8715 -1.025,1.2365 -3.85,2.248 -6.276,2.248 -7.634,0 -12.861,-4.0876 -17.205,-13.4565 l -1.751,-3.7772 -0.121,4.923 c -0.327,13.2101 14.548,20.9509 26.301,13.6871 z m 14.899,-21.6772 c 1.374,-7.3198 -0.347,-8.2701 -3.089,-1.707 -2.792,6.6836 -2.796,7.0219 -0.09,7.0219 1.31,0 2.579,-2.1201 3.177,-5.3149 z m -17.672,-2.2121 c 1.583,-2.534 1.511,-3.1783 -0.444,-3.9282 -2.604,-0.9993 -8.606,3.6252 -7.348,5.6611 1.448,2.3415 5.862,1.36 7.792,-1.7329 z m 36.394,-9.2007 c 5.282,-12.7522 -0.877,-32.1924 -11.836,-34.1788 -17.371,-3.1494 -50.429,3.1782 -46.122,21.8031 0.784,2.0443 1.585,1.9586 6.523,-0.6987 8.512,-4.5814 22.222,-7.4913 28.559,-6.062 6.101,1.376 9.135,4.7082 14.578,16.0077 2.084,4.3271 4.361,7.8676 5.062,7.8676 0.7,0 2.156,-2.1325 3.236,-4.7389 z m 75.449,-69.4413 c -0.112,-15.3824 -0.71,-19.6795 -4.151,-29.7138 -18.618,-48.0432 -70.497,-65.3882 -114.687,-37.9596 -19.393,12.0371 -45.982,42.4906 -30.321,77.8233 0.631,0.637 3.656,0.1099 6.723,-1.1717 6.158,-2.5729 8.441,-1.9735 8.441,2.2164 0,2.6662 -6.835,9.5667 -10.779,10.8812 -1.446,0.4817 -1.218,2.1439 0.954,6.9594 1.569,3.4797 3.387,6.6564 4.039,7.0594 0.651,0.4031 3.737,-0.952 6.858,-3.0113 8.952,-5.909 17.802,-8.3567 30.212,-8.3553 9.612,0 12.971,0.7274 21.167,4.5771 5.358,2.5166 10.959,6.0565 12.448,7.8663 4.096,4.9776 8.182,14.924 9.361,22.7826 1.015,6.7682 1.215,6.9989 5.339,6.1741 37.436,-10.151 54.563,-38.8717 54.396,-66.1281 z m -134.605,0.9025 c -1.79,-1.9777 -2.431,-4.7843 -2.106,-9.2137 0.926,-12.582 10.208,-11.0076 10.208,1.7314 0,10.2936 -3.028,13.0901 -8.102,7.4823 z m 31.707,1.8019 c -4.405,-1.1355 -6.381,-16.3359 -2.453,-18.8607 5.997,-3.8538 11.75,4.3367 9.451,13.4539 -1.43,5.6739 -2.564,6.5498 -6.998,5.4068 z" fill="#00B894" transform="translate(181.13473,39.789333) matrix(0.27714535,0,0,0.27714535,-5209.708,-1037.0569)"/>
</svg>