<?xml version="1.0" ?><svg height="63.74675mm" viewBox="0 0 85.782555 63.74675" width="85.782555mm" xmlns="http://www.w3.org/2000/svg">
    <path d="m 9368.6911,4905.984 c -54.516,0 -101.8531,49.5472 -98.7894,105.2534 5.099,92.7135 41.7634,112.5235 96.2794,112.5235 54.517,0 102.4766,-42.4722 101.1426,-112.5235 -0.219,-11.496 -2.229,-22.5431 -5.754,-32.8398 27.263,-11.8324 54.9139,-21.461 62.8869,-24.1473 14.67,-4.9419 33.498,-19.6267 25.261,-32.3344 -7.021,-10.8322 -73.5234,20.6901 -93.3114,32.0078 -17.383,-28.7281 -52.2561,-47.9397 -87.7151,-47.9397 z" fill="#FFFFFF" transform="translate(-216.40038,-366.51353) matrix(0.26458333,0,0,0.26458333,-2227.2164,-928.38751)"/>
    <path d="m 12675.479,7342.9512 c -46.884,-0.3304 -85.289,24.4689 -101.2,78.2226 -4.784,16.7589 -1.339,15.1907 -4.748,17.6485 -17.64,7.8382 -35.238,25.9973 -12.963,35.0664 10.288,4.1883 3.304,8.7086 -0.83,18.1894 -6.298,14.4451 3.231,32.4206 13.489,31.2657 6.289,-0.7082 9.508,2.3212 16.736,15.7519 10.174,18.8998 30.533,33.7028 51.955,39.7383 53.782,15.1526 117.181,-3.5491 141.66,-59.7363 1.525,-5.2503 3.969,-10.3028 3.969,-10.3028 27.496,2.4877 30.73,-24.1836 4.391,-26.7851 0,0 2.224,-19.066 0.806,-32.1739 -2.465,-22.7916 -0.252,-24.6356 5.914,-25.2539 14.296,-1.4326 57.305,-20.7325 66.049,-29.6386 13.152,-13.3947 12.825,-23.7126 -1.031,-32.4161 -11.852,-7.4444 -38.024,-0.3711 -70.268,18.9883 l -16,9.6074 -12.146,-12.248 c -23.083,-22.8572 -43.968,-33.0529 -76.299,-35.5234 -3.197,-0.2443 -6.359,-0.3784 -9.484,-0.4004 z m 0.486,19.705 c 11.447,-0.057 23.369,2.1445 35.203,7.0372 18.684,8.3563 43.268,32.1918 37.83,36.6777 -5.255,4.3354 -66.508,14.6977 -105.535,17.8535 -18.596,1.5038 -37.257,3.3044 -41.469,4.002 -10.491,1.7377 -9.459,-4.1614 4.914,-28.1348 13.652,-22.3994 39.803,-37.2907 69.057,-37.4356 z m 175.535,14.8106 c 4.377,0.1256 4.505,3.8695 -0.217,7.416 -3.823,2.8711 -13.916,8.6237 -23.748,12.3711 -39.807,15.1728 -43.411,10.9767 -7.367,-8.5762 11.639,-6.3123 22.927,-9.3707 27.631,-10.6738 1.455,-0.4032 2.691,-0.5661 3.701,-0.5371 z m -99.148,54.0195 c 1.13,0.021 2.015,0.088 2.617,0.2051 7.751,1.5076 8.937,3.7018 10.355,19.207 2.154,23.5074 -1.748,34.5655 -11.92,33.7832 -17.334,-1.3331 -21.532,17.1363 -4.634,20.4024 7.164,1.3845 8.948,3.3146 7.771,8.4004 -9.618,35.1809 -54.065,50.5245 -87.021,49.4101 -41.957,-1.4189 -59.7,-16.7995 -76.686,-58.7773 -0.06,-7.8211 2.095,-23.1227 5.955,-36.1621 1.922,-6.4926 7.936,-8.8808 12.944,-2.7448 3.074,3.7672 16.746,5.3934 22.295,-2.3475 6.01,-8.3834 13.55,-18.8624 19.637,-19.0313 15.781,-1.721 32.11,-4.1641 50.515,-7.1108 20.229,-3.2389 40.256,-5.3777 48.172,-5.2344 z m -26.586,11.1172 c -0.916,0.029 -1.767,0.1619 -2.475,0.336 -4.622,1.1362 -8.138,13.3896 -5.951,20.7324 2.003,6.7156 13.74,7.1186 16.844,0.5781 1.533,-3.2327 1.854,-12.6659 -0.545,-17.3594 -1.799,-3.5201 -5.127,-4.3736 -7.873,-4.2871 z m -39.291,3.2442 c -3.41,0.081 -6.89,2.6578 -8.631,7.8652 -1.578,4.7216 -1.156,10.4868 0.99,13.5176 8.474,11.973 19.097,4.0099 16.322,-12.2364 -1.046,-6.1249 -4.818,-9.2387 -8.681,-9.1464 z" fill="#00B894" transform="translate(-216.40038,-366.51353) matrix(0.26458333,0,0,0.26458333,-2227.2164,-928.38751) translate(-3310.3913,-2448.8337)"/>
</svg>