<?xml version="1.0" ?><svg height="86.858078mm" viewBox="0 0 79.913361 86.858078" width="79.913361mm" xmlns="http://www.w3.org/2000/svg">
    <path d="m 9935.4909,2409.3929 c -36.403,-4.1793 -34.156,9.9092 -32.658,18.2005 1.498,8.2914 24.269,20.5598 15.43,27.9748 -8.838,7.415 -34.155,22.7169 -34.155,22.7169 0,0 -21.422,7.2802 -21.048,16.4479 0.375,9.1677 -4.194,20.9643 -4.194,20.9643 0,0 -35.279,-9.4374 -32.807,-25.9526 2.471,-16.5152 13.407,-37.1425 13.407,-37.1425 0,0 -37.376,-10.381 -37.451,-30.2667 -0.08,-19.8857 29.287,-35.9291 29.287,-35.9291 0,0 -22.321,-18.2679 -18.651,-33.9743 3.67,-15.7063 22.77,-31.6149 22.77,-31.6149 0,0 -4.194,-48.265 8.464,-68.2181 12.659,-19.9531 63.667,-26.8289 81.044,-36.2662 17.378,-9.4372 51.009,-14.2907 65.839,-12.0662 14.8311,2.2245 37.3771,63.2298 51.6081,70.7797 14.231,7.5498 38.799,15.5041 41.346,39.9062 2.547,24.4022 -22.021,88.1039 -22.021,88.1039 0,0 20.073,26.1547 15.804,37.5469 -4.269,11.3922 -19.774,33.0979 -19.774,33.0979 0,0 15.505,17.6613 12.434,30.1994 -3.071,12.5381 -30.935,26.9636 -32.283,8.4261 -1.348,-18.5375 -37.751,-15.7738 -54.3791,-49.0065 -16.628,-33.2327 -12.434,-42.7374 -21.347,-48.8717 -8.914,-6.1342 -26.665,-5.0557 -26.665,-5.0557 z" fill="#FFFFFF" transform="translate(42.224581,-4.1959667) matrix(0.26458333,0,0,0.26458333,-2633.6925,-576.93553)"/>
    <path d="m 9848.998,2515.9043 c 0,-1.0743 -4.9309,-4.1769 -10.9576,-6.8946 -19.7221,-8.8934 -23.7652,-22.5478 -11.8677,-40.0797 3.724,-5.4876 6.1589,-10.9678 5.4108,-12.178 -0.748,-1.2103 -5.4882,-2.9751 -10.5337,-3.9217 -30.5247,-5.7264 -35.6605,-33.9327 -10.4101,-57.1733 l 12.1681,-11.1995 -7.0841,-7.0841 c -5.4198,-5.42 -7.0842,-9.7591 -7.0842,-18.4706 0,-11.6071 3.5832,-18.9243 15.7158,-32.0923 6.3597,-6.9024 6.7834,-9.052 6.2953,-31.9307 -0.6534,-30.6274 2.8901,-44.2406 14.3224,-55.0228 10.3867,-9.7957 47.8996,-24.1367 73.9796,-28.2815 9.6189,-1.5288 20.0449,-4.4451 23.1693,-6.4808 3.124,-2.0357 13.0129,-5.2155 21.9749,-7.0668 32.4375,-6.6996 53.0182,7.0307 69.5912,46.4287 10.046,23.8794 10.932,25.0249 27.864,36.0013 9.619,6.2352 20.133,14.2215 23.364,17.7469 17.54,19.1401 15.085,52.7104 -6.163,84.2616 -5.021,7.4558 -9.129,15.0437 -9.129,16.8618 0,1.818 3.632,9.033 8.072,16.0334 11.901,18.7666 11.133,30.2337 -2.942,43.8928 l -11.014,10.6882 5.562,7.0703 c 11.778,14.9736 8.664,38.8113 -5.07,38.8113 -4.695,0 -5.087,-1.3155 -3.608,-12.1077 1.413,-10.3025 0.591,-13.6501 -5.508,-22.4516 -8.313,-11.995 -7.593,-15.9097 5.672,-30.8409 10.429,-11.7387 10.065,-16.7163 -2.25,-30.8367 -13.862,-15.8924 -13.043,-21.5205 8.579,-58.9856 5.688,-9.8559 8.505,-18.9647 9.569,-30.9414 1.407,-15.8298 0.931,-17.8346 -7.066,-29.7537 -8.543,-12.09 -6.716,-12.807 -19.054,-13.7406 -10.909,-0.8213 -20.395,-8.6034 -25.773,-21.1444 -17.58,-40.9887 -26.0662,-51.583 -44.683,-55.7817 -13.6613,-3.081 -28.9862,0.3954 -65.6519,14.8938 -44.9296,17.7657 -59.9082,25.2538 -64.4834,32.2362 -2.1922,3.3458 -5.0433,15.5697 -6.3356,27.1642 -2.8672,25.7246 -7.9517,42.2281 -17.215,55.8783 -8.7988,12.9658 -9.1578,24.2171 -0.944,29.5989 3.3429,2.1905 8.1732,7.5291 10.7338,11.8638 5.072,8.5864 3.521,11.5197 -7.9495,15.0338 -8.6569,2.6519 -19.6249,16.9231 -19.6249,25.5351 0,9.2284 6.4777,15.1469 19.0353,17.3919 11.7381,2.0986 21.3232,10.512 21.3232,18.716 0,3.3503 -3.7534,11.1952 -8.3407,17.4332 -4.5873,6.2378 -7.6732,13.0808 -6.8575,15.2064 1.2836,3.3446 20.319,14.8705 24.5593,14.8705 0.827,0 0.744,-3.0269 -0.1837,-6.7263 -2.6577,-10.5897 0.87,-19.8971 8.2426,-21.7475 3.6163,-0.9077 8.0813,-3.4649 9.9218,-5.6825 2.7198,-3.2773 2.5133,-4.4986 -1.1022,-6.522 -16.8633,-9.4369 -17.4316,-23.838 -1.5608,-39.5518 12.7365,-12.6104 12.5892,-13.7951 -4.3172,-34.7294 -10.2301,-12.6239 -14.2028,-28.1745 -17.6295,-43.1058 -16.0977,1.9012 -16.3076,-13.0204 -1.0558,-19.0066 0,0 0.9625,-3.4602 3.5626,-19.4712 4.7961,-29.5343 15.8733,-51.3587 32.0661,-63.1783 18.0894,-13.2038 41.0805,-21.1276 60.6822,-20.9138 13.8801,0.1513 18.8755,1.6803 32.9249,10.0779 19.4537,11.6277 45.1449,37.5614 50.9329,51.4143 7.903,18.9143 9.785,37.9482 6.286,63.5545 -2.721,19.9099 -4.725,25.9246 -11.629,34.896 -19.576,25.4402 -20.715,27.5636 -19.903,37.1149 0.83,9.7765 3.586,12.0719 22.997,19.1563 10.908,3.981 11.587,12.1384 1.88,22.6119 -6.101,6.5832 -6.456,8.0201 -3.196,12.9304 2.017,3.0382 6.567,5.9665 10.11,6.5072 7.79,1.1887 10.617,5.1554 10.671,14.9727 0.04,7.2627 -8.048,18.1613 -13.479,18.1613 -1.516,0 -3.511,-3.7687 -4.432,-8.3748 -1.226,-6.1288 -4.007,-9.349 -10.369,-12.0072 -21.5632,-11.0845 -36.7573,-15.4665 -49.3443,-51.7568 -3.0842,-4.3313 -6.8685,-11.1913 -8.4093,-15.2443 -2.4709,-6.4993 -3.8284,-7.1793 -11.502,-5.7625 -4.785,0.8834 -14.8085,0.6291 -22.2744,-0.5652 -7.4659,-1.1942 -15.0331,-1.6852 -16.8162,-1.091 -4.9697,1.6566 -3.8526,8.1875 1.9298,11.2823 9.3054,4.9799 13.6625,11.1225 13.6625,19.2606 0,9.9945 -10.6504,21.21 -20.1412,21.21 -10.1433,0 -11.5831,-7.2948 -3.0092,-15.245 10.1733,-9.0256 7.8305,-5.9768 -1.1388,-16.1922 -5.4841,-6.2461 -7.7217,-11.0225 -6.5222,-13.9231 4.4227,-10.6945 4.4642,-13.832 0.1836,-13.832 -2.4399,0 -4.3496,2.1874 -4.3496,4.982 0,2.7401 -3.6323,8.7829 -8.0717,13.4283 -10.1646,10.6363 -10.1736,15.3419 -0.038,20.5826 15.9907,8.2693 12.7387,29.4259 -5.4329,35.3445 -8.5929,2.7987 -14.8249,11.7604 -8.1782,11.7604 4.1497,0 3.5557,8.886 -1.1934,17.8538 0,0 -15.3408,17.1257 -20.1355,-1.6303 z m 166.815,-60.9055 c -4.349,-5.8948 -11.842,-7.0637 -17.7578,-12.8959 -7.4286,-7.4286 -9.1479,-11.2213 -9.1479,-20.1793 0,-6.0672 -0.6654,-11.0314 -1.4789,-11.0314 -4.0473,0 -17.3552,8.5906 -17.3552,11.2032 0,1.6464 4.843,8.2473 10.7624,14.6689 5.9192,6.4216 10.7622,13.4844 10.7622,15.6947 0,4.2118 14.9912,9.6011 20.8522,7.496 1.849,-0.6646 3.363,-2.8949 3.363,-4.9562 z m -39.4898,-63.4284 c 30.4138,-15.4115 40.5118,-39.0391 40.2898,-68.767 -0.125,-16.6781 -4.672,-32.9864 -9.198,-32.9864 -1.3,0 -2.364,1.2107 -2.364,2.6907 0,4.1924 -5.7816,3.1706 -11.4166,-2.0179 -2.8127,-2.5898 -12.4757,-7.7355 -21.4736,-11.435 -14.433,-5.9341 -17.1832,-8.311 -23.3492,-20.1792 -3.8439,-7.3991 -7.2392,-13.9047 -7.545,-14.457 -0.3057,-0.5523 -6.0062,3.7935 -12.6678,9.6574 -6.6618,5.8638 -19.9688,14.1857 -29.5714,18.4928 -16.9565,7.6057 -17.5407,8.2031 -20.2913,20.7438 -4.8824,22.2583 -3.1183,28.0744 -3.1183,28.0744 14.1328,-0.7464 14.3083,11.8862 -4.0518,19.2386 0,0 5.2125,17.0389 12.0883,32.0125 17.4457,32.3609 64.1095,32.8159 92.6689,18.9323 z m -49.2989,-21.8282 c -11.2477,-5.6905 -8.4062,-11.1229 6.7264,-12.8602 7.3991,-0.8493 16.7051,-3.1274 20.6802,-5.0621 8.9515,-4.3569 15.6423,-2.0864 15.6423,5.3083 0,3.9769 -3.31,7.0996 -11.4347,10.7876 -13.3318,6.0516 -22.2447,6.5665 -31.6142,1.8264 z m -20.6211,-65.3086 c -1.7524,-4.5663 -3.0321,-17.6712 7.7096,-17.3071 7.1286,0.2417 6.9514,11.0501 5.4699,16.7157 -1.5507,5.929 -10.9691,6.3516 -13.1795,0.5914 z m 27.1227,0.5658 c -0.8501,-2.2158 -1.1476,-6.8409 -0.6605,-10.2783 0.6568,-4.6361 2.3612,-7.6419 7.3513,-7.6419 5.8935,0 7.8295,2.7514 7.8295,11.0025 0,7.723 -1.9339,9.379 -6.9085,10.0853 -3.5366,0.5022 -6.7104,-0.8186 -7.6118,-3.1676 z m 53.7804,-42.4813 c -6.4957,-7.3182 -33.3548,-24.7401 -35.2381,-22.8568 -1.8026,1.8025 9.6609,18.345 15.1796,21.9048 4.2481,2.7405 14.5791,5.8334 21.4039,6.4081 2.7568,0.2322 2.3926,-1.2449 -1.3454,-5.4561 z m -79.7882,-7.5005 c 11.4147,-8.2691 16.1339,-13.6307 11.9971,-13.6307 -3.0357,0 -23.5963,14.7457 -26.013,18.6563 -3.2153,5.2024 2.9466,2.993 14.0159,-5.0256 z m 140.5819,183.5578 c 0,-5.7232 -2.105,-8.9321 -8.233,-12.5518 -16.009,-9.4567 -16.081,-28.2765 -0.195,-51.1143 9.223,-13.2606 9.632,-14.8557 10.601,-41.3706 0.554,-15.1681 1.813,-27.5783 2.798,-27.5783 3.695,0 8.482,22.0708 8.482,39.1044 0,19.812 -3.486,28.4494 -17.937,44.4452 -11.383,12.5995 -10.859,21.5223 1.565,26.6687 12.781,5.2943 17.805,12.4275 14.789,21.0021 -3.671,10.4399 -11.87,11.4033 -11.87,1.3946 z" fill="#00B894" transform="translate(42.224581,-4.1959667) matrix(0.26458333,0,0,0.26458333,-2633.6925,-576.93553)"/>
</svg>