<?xml version="1.0" ?><svg height="111.64997mm" viewBox="0 0 69.598152 111.64997" width="69.598152mm" xmlns="http://www.w3.org/2000/svg">
    <path color="#000" d="m 28483.525,8628.8567 c -3.713,-1.7245 -7.454,-3.0636 -11.19,-3.9651 -47.823,-11.5376 -79.114,7.1343 -114.661,95.85 -1.191,83.8117 63.745,123.4673 114.623,119.0965 50.879,-4.3708 57.888,-27.3406 77.169,-73.7653 17.779,-42.7958 -22.13,-116.865 -65.941,-137.2161 z" fill="#FFFFFF" overflow="visible" paint-order="fill markers stroke" transform="translate(-81.609021,9.9793026) matrix(0.26458333,0,0,0.26458333,-7407.9118,-2286.9854)"/>
    <path d="m 31760.975,11043.832 c -1.879,-0.02 -4.026,0.03 -6.664,0.147 -4.584,0.195 -8.027,1.086 -22.032,5.703 -5.14,2.61 -10.458,6.355 -15.763,10.9 -33.728,22.337 -62.228,59.348 -65.092,102.982 -0.744,17.102 -15.159,169.615 -23.338,203.075 -8.179,33.46 -7.645,52.929 -7.645,52.929 -1.322,15.615 19.089,30.858 30.821,8.403 11.732,-22.455 19.368,-27.139 19.92,-13.621 0.448,10.984 -10.311,28.776 -10.67,34.142 -1.681,25.149 21.721,23.713 38.006,-9.592 17.01,-34.787 14.953,-62.755 18.093,-47.066 3.139,15.689 13.168,17.178 23.959,-5.65 7.642,-16.165 11.019,-76.488 7.004,-102.106 56.522,18.767 106.721,-23.565 126.899,-73.9 2.755,-11.393 4.789,-21.923 4.078,-34.303 0.315,-5.468 0.474,-6.004 2.109,-7.016 2.222,-1.382 3.01,-3.259 2.705,-6.457 -0.308,-3.216 -1.929,-5.251 -4.736,-5.939 -1.973,-0.484 -2.241,-0.864 -2.361,-3.332 -2.37,-30.271 -20.991,-60.259 -46.069,-81.08 -16.199,-13.449 -26.182,-23.822 -69.224,-28.219 z m -17.321,25.971 c 24.522,18.571 78.842,33.961 98.869,39.203 6.332,12.311 16.283,38.108 15.342,50.623 -0.159,0.384 -2.038,1.143 -4.191,1.678 -8.696,2.156 -10.884,2.933 -13.164,4.677 -6.17,4.737 4.233,12.12 10.976,10.235 2.383,-0.474 4.642,-0.575 5.02,-0.229 0.938,6.219 1.325,11.949 0.144,18.184 -6.408,33.872 -47.722,74.254 -81.191,74.613 -19.201,1 -35.952,-4.451 -52.16,-20.205 -13.67,-15.43 -30.182,-25.242 -35.188,-48.686 -5.284,-17.879 -5.099,-28.603 -1.597,-43.24 6.021,-28.526 22.288,-57.651 47.437,-79.97 2.103,-2.306 5.78,-4.681 9.703,-6.883 z m 81.44,53.019 c -9.678,0.333 -19.197,7.514 -20.59,18.366 0.719,5.507 5.579,9.103 9.642,7.759 2.185,-0.761 3.161,-1.644 3.979,-3.621 1.691,-4.086 4.575,-7.147 7.762,-8.26 2.515,-0.877 3.284,-0.784 5.535,0.666 1.44,0.928 3.198,2.74 3.906,4.026 2.191,3.971 4.589,4.256 7.199,0.859 2.645,-3.441 0.52,-10.738 -4.478,-15.371 -1.111,-0.942 -2.292,-1.723 -3.52,-2.355 -2.966,-1.529 -6.209,-2.18 -9.435,-2.069 z m -66.994,2.063 c -4.219,0.122 -8.016,1.34 -10.391,3.902 -8.399,3.865 -13.665,12.87 -11.49,19.645 2.508,6.431 11.751,3.321 14.283,-0.276 3.434,-5.126 10.639,-9.397 14.85,-8.802 3.056,0.431 6.937,3.245 8.953,6.49 2.628,3.947 5.584,0.447 7.252,-2.114 1.966,-7.116 -3.385,-12.962 -10.543,-16.173 -4.058,-1.821 -8.696,-2.794 -12.914,-2.672 z m 36.3,63.836 c -18.104,0 -35.876,1.112 -50.757,0.947 -3.397,0.728 -19.148,0.606 -20.75,-0.162 -2.475,-1.187 -10.411,3.49 -10.485,6.183 -0.136,4.806 2.191,13.029 5.028,17.768 10.05,16.805 24.569,28.883 44.556,34.775 32.249,6.817 56.379,-13.186 65.834,-37.009 1.848,-3.886 11.118,-21.348 -1.033,-20.793 -10.548,-1.314 -21.53,-1.711 -32.393,-1.709 z m 23.311,11.029 c 1.124,0.539 -5.74,14.11 -8.053,15.93 -4.724,3.872 -9.096,9.666 -15.711,11.951 -12.645,6.829 -32.965,7.878 -47.373,-1.428 -5.428,-3.53 -17.129,-15.384 -17.916,-22.117 26.496,-5.494 54.993,0.888 80.901,-3.332 3.063,0.645 5.527,-0.823 8.152,-1.004 z" fill="#00B894" transform="translate(-81.609021,9.9793026) matrix(0.26458333,0,0,0.26458333,-7407.9118,-2286.9854) translate(-3313.5291,-2437.8203)"/>
</svg>