<?xml version="1.0" ?><svg height="67.749901mm" viewBox="0 0 70.080078 67.749901" width="70.080078mm" xmlns="http://www.w3.org/2000/svg">
    <path d="m 9624.2619,5087.4047 c 2.094,-40.1253 10.856,-77.6686 10.856,-77.6686 0,0 -18.455,-4.8151 -6.979,-27.4946 11.476,-22.6795 20.47,-48.4294 20.47,-48.4294 l 94.677,-23.8659 68.855,26.3781 8.917,18.004 45.516,16.4688 1.628,59.525 8.84,33.3563 -7.366,47.7316 -29,27.2853 -28.302,-1.4655 c 0,0 -49.393,45.1497 -118.946,28.7507 -69.554,-16.3991 -69.166,-78.5758 -69.166,-78.5758 z" fill="#FFFFFF" transform="translate(-11.073051,-310.08338) matrix(0.24292956,0.01182759,-0.01182759,0.24292956,-2260.5758,-996.20195)"/>
    <path d="m 9625.5613,5123.7686 c -2.887,-5.582 -6.8411,-10.2758 -6.8411,-10.2758 -23.9713,1.8952 -25.2014,-17.9715 -5.2721,-24.2159 0.8573,-17.5876 0.1544,-36.0665 5.7362,-55.4908 4.7689,-16.0567 4.7689,-18.2168 0,-23.4859 -8.5833,-9.4853 -6.5405,-24.5614 4.7991,-35.4269 7.8144,-7.4865 10.0506,-12.5458 10.0506,-22.7381 0,-10.3612 2.3167,-15.4245 11.0456,-24.1545 13.2744,-13.2753 29.9334,-18.3929 59.9495,-18.4177 12.327,0 23.348,-1.5266 24.486,-3.369 1.138,-1.8425 7.897,-3.3501 15.016,-3.3501 9.709,0 15.3136,2.354 22.4176,9.4113 8.073,8.024 11.575,9.2062 23.752,8.0194 17.214,-1.6777 29.544,5.2683 35.81,20.1743 3.327,7.9078 6.795,10.5671 14.951,11.4601 30.594,3.3494 44.69,28.1695 36.825,64.8447 -3.178,14.8192 -2.904,18.0432 1.998,23.4609 6.45,7.1268 7.588,28.027 1.902,34.8808 -2.817,3.3921 -2.794,6.737 0.1,13.0631 5.646,12.394 1.801,21.8652 -17.056,42.0275 -15.561,16.6351 -17.717,17.8409 -29.348,16.4139 -10.573,-1.2973 -14.463,0.1658 -24.677,9.2805 -63.0471,42.4915 -149.3236,35.2909 -185.6444,-32.1118 z m 127.4048,32.439 c 26.7316,-7.2179 41.7346,-14.6367 52.1546,-25.7907 8.586,-9.1918 9.136,-10.9759 4.744,-15.3687 -5.239,-5.2389 -14.1248,-17.378 3.9945,-28.8189 1.6323,-1.0307 -3.8135,-7.0887 -3.5825,-20.3111 0.359,-20.7138 -0.643,-25.1997 -7.249,-32.416 -4.216,-4.6068 -8.159,-12.7236 -8.762,-18.0379 -0.952,-8.3908 -2.641,-9.7798 -12.822,-10.5568 -7.887,-0.6015 -13.759,-3.6089 -17.93,-9.183 -5.611,-7.4952 -7.3016,-7.9519 -17.6636,-4.7717 -16.141,4.9541 -34.125,-3.6821 -36.936,-17.7387 -2.601,-13.0035 -6.835,-12.6834 -26.0214,1.9667 -29.7323,22.7014 -45.1927,52.8394 -46.5043,90.6502 l -0.6784,19.5992 11.0808,1.0642 c 14.9227,1.4334 15.1308,16.1149 6.2063,18.8839 l -10.9731,3.4046 9.8876,14.4325 c 11.1838,16.3243 24.0235,24.3858 45.1902,31.1541 23.0763,7.3798 34.0093,7.7393 55.8643,1.8381 z m -57.7916,-16.2373 c -12.3345,-5.9497 -8.6585,-9.3122 10.1816,-9.3122 11.103,0 22.624,-2.5013 30.86,-6.7002 17.242,-8.7913 22.5086,-8.583 21.172,0.8375 -2.176,15.3135 -41.856,24.9926 -62.2136,15.1749 z m -52.968,-64.5786 c -2.3358,-3.5477 -0.1503,-18.2503 7.8757,-8.6081 8.3638,10.0479 12.468,-0.2802 16.5176,0.9165 5.051,1.4926 9.3378,4.1362 1.0562,11.1322 -4.5554,3.8483 -20.4689,4.1243 -25.4495,-3.4406 z m 49.4504,0.9929 c -3.8921,-3.893 -1.9661,-9.3658 2.9983,-10.9971 4.6001,-1.5115 9.4887,3.6706 22.2283,-4.9895 11.3833,-7.7381 13.3281,3.4266 2.4691,11.6714 -7.367,5.5917 -22.4055,9.6066 -27.6957,4.3152 z m -42.9364,-20.9105 c -3.3142,-8.6408 0.2941,-16.9232 7.8445,-18.0017 5.5253,-0.7896 7.9149,1.061 9.4928,7.3475 1.1609,4.6215 1.1258,9.9959 -0.075,11.9432 -7.0747,7.3007 -13.161,7.8187 -17.2623,-1.289 z m 102.8206,1.8907 c -4.47,-1.2493 -8.819,-4.3468 -9.666,-6.8838 -1.226,-3.6837 1.706,-4.1681 14.563,-2.406 17.9476,2.4604 19.9556,3.4963 16.7666,8.6556 -2.422,3.9218 -9.191,4.1201 -21.6636,0.6342 z m -58.1782,-2.5033 c -4.2162,-4.2163 -2.5202,-20.5867 2.3243,-22.4461 7.5629,-2.9022 16.1669,5.5811 14.8829,14.6751 -1.136,8.0512 -12.0135,12.9636 -17.2072,7.771 z m 45.2732,-15.2788 c 0.832,-2.5216 7.787,-4.8542 16.267,-5.4546 17.7946,-1.26 14.3596,4.1498 -4.802,7.561 -9.91,1.7644 -12.575,1.2747 -11.465,-2.1064 z m -82.8248,-18.7251 c 7.4575,-7.5485 61.9768,-14.4277 61.9768,-7.8201 0,3.961 -9.889,6.1555 -40.2022,8.9197 -16.9428,1.5453 -24.0336,1.1872 -21.7746,-1.0996 z m 13.0129,-18.1342 c -1.7085,-2.7633 5.3797,-4.6175 29.7023,-7.7712 10.1236,-1.3126 15.9126,-0.7932 15.9126,1.4284 0,5.6525 -42.3986,11.5479 -45.6149,6.3428 z m 183.4165,112.0212 c 12.716,-12.3338 16.242,-21.864 9.608,-25.9639 -5.51,-3.4047 -3.806,-13.6257 3.35,-20.1014 9.435,-8.5383 8.427,-19.9594 -2.46,-27.8899 -8.636,-6.2913 -8.923,-7.3254 -5.026,-18.106 5.172,-14.2956 5.31,-33.1946 0.325,-44.1354 -4.355,-9.5564 -18.252,-15.4003 -36.625,-15.4003 -11.538,0 -12.84,-0.9466 -14.998,-10.8884 -3.058,-14.0998 -6.123,-15.8004 -28.576,-15.8621 -15.554,-0.043 -19.996,-1.4522 -26.5466,-8.4268 -7.882,-8.3882 -18.106,-10.9642 -21.531,-5.4235 -1.002,1.6237 -13.53,4.0237 -27.837,5.3335 -40.1905,3.6798 -57.2916,14.6391 -53.5327,34.3062 1.1382,5.9519 -1.2538,11.5823 -8.3547,19.6698 -5.4725,6.2322 -9.3043,13.2408 -8.5152,15.5747 0.809,2.3943 3.8141,-0.3457 6.8996,-6.2861 10.4678,-20.169 53.1831,-44.7486 77.762,-44.7486 9.204,0 11.656,1.3346 11.656,6.342 0,3.4882 -2.638,7.3649 -5.862,8.615 -5.432,2.1056 -5.369,2.6358 0.837,7.2083 6.206,4.5705 11.772,4.432 29.162,-0.7246 3.437,-1.0194 9.8636,2.2812 16.1606,8.2979 10.264,9.8083 10.704,9.9035 24.029,5.202 17.5229,-8.2099 16.078,13.3982 16.078,13.3982 0,20.3594 5.463,28.7163 18.772,28.7163 10.93,0 13.863,8.8579 6.93,20.937 -7.442,12.9706 -7.146,26.7387 0.684,31.6288 9.018,5.6317 11.937,25.3304 5.578,37.6301 -9.347,18.0726 -5.799,18.3962 12.033,1.0972 z m -27.245,-14.2384 c 0,-1.8426 -2.349,-3.3501 -5.224,-3.3501 -2.872,0 -4.289,1.5075 -3.151,3.3501 1.139,1.8428 3.488,3.3504 5.222,3.3504 1.733,0 3.153,-1.5076 3.153,-3.3504 z" fill="#00B894" transform="translate(-11.073051,-310.08338) matrix(0.24292956,0.01182759,-0.01182759,0.24292956,-2260.5758,-996.20195)"/>
</svg>