<?xml version="1.0" ?><svg height="63.487694mm" viewBox="0 0 65.221786 63.487694" width="65.221786mm" xmlns="http://www.w3.org/2000/svg">
    <path color="#000" d="m 18133.963,4051.4076 c 19.748,-56.8765 60.698,-95.5692 117.07,-89.8951 56.373,5.674 88.886,61.9698 68.982,116.1516 -19.902,54.1819 -36.963,96.348 -103.595,91.0077 -66.634,-5.3403 -102.206,-60.3877 -82.457,-117.2642 z" fill="#FFFFFF" overflow="visible" paint-order="fill markers stroke" transform="translate(75.700152,-172.3633) matrix(0.26458333,0,0,0.26458333,-4864.5116,-868.58294)"/>
    <path d="m 18241.362,3934.2883 c -22.91,3.2451 -55.223,11.1244 -64.732,33.1226 -22.039,15.5917 -35.686,39.1723 -46.977,67.3977 -1.065,2.506 -1.222,2.6235 -3.88,2.9167 -8.626,0.8638 -13.638,-2.0451 -20.441,1.1184 -8.457,3.9324 -9.865,13.3713 9.797,13.3896 3.955,-0.2243 10.413,0.2089 10.612,0.5301 0.183,0.2945 0,2.1781 -0.398,4.1863 -12.496,68.4758 33.31,118.5769 96.529,117.2636 31.668,-0.6579 68.686,-14.1323 92.599,-45.1935 31.128,-43.8946 24.164,-91.8169 6.143,-126.7863 20.751,-6.5593 37.5,-24.2894 13.639,-33.3288 -24.684,-9.3515 -29.527,-7.4343 -29.527,-7.4343 0,0 4.603,-15.8053 -19.898,-16.7315 -24.504,-0.926 -30.087,3.0822 -30.087,3.0822 0,0 9.569,-13.7791 -13.379,-13.5328 z m -8.598,35.9151 c 3.502,-0.01 7.098,0.1301 10.761,0.4121 11.592,1.2984 22.833,4.5644 32.975,9.0569 35.74,15.8312 53.295,69.4984 27.067,119.9061 -12.194,25.2427 -34.543,53.9205 -83.73,55.4216 -40.367,1.2318 -86.337,-22.7781 -74.108,-104.0559 l 1.988,0.1874 c 13.264,1.0437 14.613,-13.2498 2.271,-14.6946 2.094,-13.9392 15.463,-32.6461 24.447,-42.8092 14.21,-14.1018 30.827,-21.047 47.655,-23.0224 3.445,-0.2541 7.01,-0.3993 10.674,-0.402 z m -48.74,32.249 c -3.635,0 -7.679,1.3089 -12.014,4.6091 -5.585,3.9825 -10.571,14.5596 -7.654,17.1992 1.73,1.6403 3.288,6.1479 9.301,1.1632 6.541,-8.0793 12.319,-10.8178 20.372,-3.4948 6.328,5.0713 9.413,-0.1889 7.334,-6.4449 -2.428,-5.6754 -8.733,-13.0295 -17.339,-13.0318 z m 71.696,2.3866 c -3.449,-0.07 -6.955,0.6625 -10.191,2.1684 -7,3.577 -14.727,10.958 -10.077,19.5024 3.761,5.6678 8.38,2.3229 11.196,-1.6725 7.251,-9.2063 16.196,-8.7601 19.84,4.184 1.674,8.1925 10.534,0.6478 9.129,-7.3544 -2.633,-11.2146 -11.081,-16.6473 -19.897,-16.8279 z m 19.73,48.2531 c -3.882,0.078 -13.887,1.6228 -21.223,1.9694 -34.244,2.5051 -63.984,2.3597 -101.122,0.076 -5.035,-0.6775 -5.016,4.0378 -3.969,10.7702 -0.392,38.8842 34.526,73.6314 73.307,65.0157 30.006,-7.0324 44.14,-38.5373 52.415,-63.6477 4.016,-2.6446 8.789,-14.5097 0.592,-14.1843 z m -21.857,15.1163 c 2.628,-0.3411 4.689,-0.3716 4.985,-0.075 -1.105,19.9289 -18.714,39.6251 -34.625,45.7509 -17.203,6.6233 -48.301,1.3637 -62.413,-44.1948 -0.144,-1.3734 0.05,-1.738 1.026,-1.8764 30.694,4.0356 64.97,4.0755 91.027,0.3953 z" fill="#00B894" transform="translate(75.700152,-172.3633) matrix(0.26458333,0,0,0.26458333,-4864.5116,-868.58294)"/>
</svg>