<?xml version="1.0" ?><svg height="57.640011mm" viewBox="0 0 60.920403 57.640011" width="60.920403mm" xmlns="http://www.w3.org/2000/svg">
    <path d="m 10377.219,2762.456 c 10.935,-33.8603 19.584,-73.7254 87.171,-79.6746 67.588,-5.9492 91.867,32.1367 97.984,74.1147 6.116,41.9779 -7.414,120.1514 -90.632,117.2602 -83.218,-2.8912 -101.257,-16.1796 -94.523,-111.7003 z" fill="#FFFFFF" transform="translate(-85.956453,53.010479) matrix(0.26458333,0,0,0.26458333,-2146.7253,-586.11375) translate(-1924.5055,-653.69116)"/>
    <path d="m 10451.75,2885.7527 c -42.517,-5.3692 -63.313,-14.1331 -77.436,-32.6322 -7.144,-9.3571 -7.856,-12.5333 -8.728,-38.9584 -0.523,-15.824 0.454,-35.3185 2.17,-43.3211 2.313,-10.7859 2.304,-15.0553 -0.04,-16.5017 -3.836,-2.3708 -11.547,-10.3042 8.336,-17.7944 6.197,-2.9013 7.327,-10.4433 -1.837,-8.4368 -7.213,1.5796 -11.279,-12.7928 12.764,-19.0522 13.692,-19.9284 38.521,-29.5642 57.782,-33.0178 6.146,-1.1019 18.573,-3.4875 27.614,-5.3013 33.461,-6.712 61.679,2.2739 80.003,25.4754 6.495,8.2245 15.405,17.4681 19.8,20.5416 8.683,6.0731 9.719,9.8898 5.047,18.619 -2.599,4.8567 -1.55,7.0436 7.245,15.0995 10.865,9.9519 11.651,16.0194 2.255,17.4125 -4.885,0.7244 -5.9,3.5272 -7.294,20.1669 -2.816,33.5855 -16.015,56.1295 -44.643,76.2513 -28.993,17.6689 -48.022,19.2527 -69.843,22.1187 z m 54.059,-29.9358 c 30.32,-18.2577 43.324,-42.8366 45.797,-75.5161 1.352,-17.8856 0.886,-21.3252 -3.192,-23.6085 -3.941,-2.2049 -4.154,-3.4216 -1.22,-6.9576 2.978,-3.5877 2.321,-5.3481 -4.036,-10.8159 -8.282,-7.1244 -9.507,-11.123 -4.099,-13.3751 2.541,-1.0583 3.187,-5.3423 -1.397,-5.4301 -9.19,-0.1761 -5.134,-8.434 -5.047,-9.8439 0.235,-3.7926 -9.186,-10.5125 -15.324,-13.677 -3.011,-1.5514 -10.675,-3.6144 -17.033,-4.5839 -9.875,-1.5055 -11.505,-1.0544 -11.177,3.0924 0.423,5.322 -14.125,8.3664 -42.221,8.8351 -19.693,0.3288 -18.707,-4.4739 1.398,-6.7977 27.515,-3.1806 35.04,-6.7654 10.476,-4.9913 -34.381,2.4835 -40.725,7.3069 -59.46,45.2012 -10.096,20.4198 -10.414,22.012 -11.367,56.8428 -0.807,29.4511 -0.642,42.1621 3.065,47.8214 10.545,16.0931 32.365,23.261 71.652,23.5384 25.791,0.1824 27.272,-0.1508 43.185,-9.7342 z m -82.696,-25.9598 c -8.72,-5.3898 -5.25,-7.8496 13.968,-9.9031 10.373,-1.1083 25.657,-4.3513 33.964,-7.207 20.451,-7.0293 26.031,-6.8158 24.902,0.9528 -1.557,10.7257 -17.213,17.2176 -44.02,18.2545 -13.974,0.5403 -25.96,-0.332 -28.814,-2.0972 z m -19.791,-26.9585 c -3.853,-3.8524 -1.641,-12.7942 4.423,-17.8886 12.518,-9.3257 17.785,-15.4387 27.424,-8.0883 9.429,5.0462 6.2,11.1538 -11.652,22.0374 -5.747,2.6459 -15.954,7.7866 -20.195,3.9395 z m 63.746,-31.3904 c 9.855,1.2427 20.959,-4.0414 23.473,-1.528 2.759,2.7591 -13.496,10.4565 -23.332,5.6208 -4.4,-2.1635 -1.695,-4.2887 -0.141,-4.0928 z m -55.725,-8.6568 c -6.093,-3.853 -4.086,-8.8801 2.86,-7.1632 9.8,2.4223 12.453,3.1911 19.726,-0.2238 3.518,-1.6518 8.671,0.6265 3.851,5.9915 -4.066,4.5253 -19.849,5.5622 -26.437,1.3955 z m 53.118,-1.9583 c -4.046,-4.0458 -1.511,-6.5373 4.99,-4.9053 3.994,1.0021 10.597,-0.1468 15.82,-2.7528 11.111,-5.5428 14.529,-3.0205 5.654,4.1734 -6.367,5.1627 -22.644,7.3057 -26.464,3.4847 z m -44.375,-11.0785 c -3.354,-3.3532 -1.954,-14.1411 2.292,-17.6649 5.826,-4.8352 12.608,-1.4417 12.608,6.3086 0,9.8615 -9.304,16.9527 -14.9,11.3563 z m 49.292,-8.2957 c -3.242,-6.8766 0.329,-16.9493 9.032,-16.0682 9.076,0.9191 8.686,10.8887 3.961,16.5822 -4.48,5.3973 -10.408,4.9702 -12.993,-0.514 z m 35.455,-3.811 c 0,-1.5368 3.069,-2.794 6.82,-2.794 3.751,0 7.597,1.2572 8.546,2.794 1.008,1.6298 -1.833,2.7938 -6.819,2.7938 -4.701,0 -8.547,-1.2571 -8.547,-2.7938 z m 6.851,-16.4372 c 6.955,-1.7455 13.33,-3.8899 15.067,-1.6903 2.353,2.9791 -5.47,3.1627 -14.003,5.749 -4.088,1.2389 -10.893,3.6683 -12.105,1.1213 -1.289,-2.71 6.601,-4.0659 11.041,-5.18 z m -92.065,-8.7077 c 0.974,-1.5759 14.519,-2.7941 31.063,-2.7941 18.846,0 28.718,0.999 27.609,2.7941 -0.974,1.5755 -14.519,2.7937 -31.063,2.7937 -18.844,0 -28.718,-0.999 -27.609,-2.7937 z" fill="#00B894" transform="translate(-85.956453,53.010479) matrix(0.26458333,0,0,0.26458333,-2146.7253,-586.11375) translate(-1924.5055,-653.69116)"/>
</svg>