<?xml version="1.0" ?><svg height="63.18129mm" viewBox="0 0 62.602524 63.18129" width="62.602524mm" xmlns="http://www.w3.org/2000/svg">
    <path d="m 8355.2053,4905.6625 -60.6305,74.4563 c 0,0 7.0111,124.5747 88.2746,123.4329 81.2634,-1.1418 101.6295,-67.185 99.7598,-132.8676 -1.8698,-65.6827 -127.4039,-65.0216 -127.4039,-65.0216 z" fill="#FFFFFF" transform="translate(-18.591565,-400.05816) matrix(0.25508657,0,0,0.25508657,-2089.7142,-846.80328)"/>
    <path d="m 8380.059,4888.2336 c -10.2713,0.623 -19.3325,2.4611 -25.0595,5.5489 -53.8563,29.0414 -75.858,62.3403 -86.7106,131.2368 -5.1601,32.7641 -3.9392,82.6087 2.2607,92.2621 4.0723,6.3403 16.9311,13.3814 30.5749,16.7411 20.197,4.9726 37.0065,-1.3208 47.8928,-17.9313 3.2071,-4.8938 4.3648,-5.0238 14.0781,-1.5669 16.5767,5.8993 48.7448,2.8994 68.2133,-6.3623 l 16.3227,-7.7633 10.3598,9.2993 c 12.5962,11.3075 21.8888,11.4226 33.6241,0.4145 15.3518,-14.3997 20.0685,-29.2948 18.6098,-58.7768 -1.3714,-27.7318 -8.6782,-65.562 -15.8394,-81.9926 -24.9695,-57.2936 -27.5616,-60.3637 -62.7134,-74.2696 -14.0109,-5.543 -34.4933,-7.8783 -51.6133,-6.8399 z m -27.4625,33.5236 c 0.7629,-0.041 6.4127,3.5183 12.5511,7.9098 13.3799,9.5721 67.4679,29.8595 88.5143,33.1996 14.41,2.2866 15.2197,2.9088 19.2437,14.7781 2.3094,6.815 3.5277,16.4827 2.7099,21.4848 -1.4209,8.6745 -2.1145,9.1085 -15.0513,9.3867 -13.65,0.2935 -142.4914,0.2115 -146.5717,-0.093 -1.2036,-0.09 -2.5018,-5.9456 -2.8829,-13.012 -0.5562,-10.3137 0.4328,-13.2742 5.0201,-15.007 15.0889,-5.7005 30.1355,-27.692 33.5537,-49.0421 0.838,-5.2411 2.1482,-9.5631 2.9131,-9.6044 z m 72.2564,50.3171 c -7.3803,0.398 -17.1859,9.3778 -16.8591,15.438 0.3447,6.3912 5.1305,9.8617 7.5341,5.4616 2.4899,-4.5622 11.6704,-4.1871 16.155,0.6603 4.8131,5.2026 12.7879,3.7033 13.6466,-2.5648 0.7769,-5.6508 -13.987,-19.3451 -20.4766,-18.9951 z m -60.1103,-0.4472 c -7.8436,0.423 -17.028,11.5251 -16.6131,19.219 0.2432,4.5109 8.1706,4.7862 10.8385,0.4792 1.8066,-2.9157 7.8985,-7.6688 13.648,-2.6706 8.9028,7.7409 13.2238,0.7172 13.0261,-2.9493 -0.3323,-6.1614 -11.4063,-14.5903 -20.8995,-14.0783 z m -40.5655,50.4976 c 3.6058,-0.1945 5.88,1.6062 6.0282,4.7623 0.1205,2.7914 -0.8775,7.0529 -2.2293,9.4697 -1.9684,3.5182 -3.1587,2.8208 -5.9591,-3.5005 -4.5867,-10.3439 -4.581,-10.368 2.1602,-10.7315 z m 18.9144,3.1011 c 2.6058,-0.2599 12.6373,-0.076 24.2568,0.4737 13.2801,0.6284 34.0207,0.8988 46.0872,0.6011 39.0057,-0.9632 38.152,-1.567 34.0846,24.051 -1.9991,12.6056 -2.7764,22.2456 -12.0587,29.3986 -22.6894,18.2349 -56.1768,21.4014 -83.047,5.9189 -15.4116,-9.3833 -15.5031,-19.967 -12.9237,-41.2724 1.2119,-10.0242 2.5467,-18.589 2.9614,-19.0328 0.047,-0.056 0.2719,-0.1008 0.6434,-0.1383 z m 120.8387,0.9903 c 3.1884,-0.172 5.8626,1.3195 5.9271,3.3145 -0.999,4.2744 -3.0544,8.1393 -5.1455,11.1781 l -5.2789,7.553 -0.6462,-10.8676 c 0.4473,-6.5771 0.136,-10.8218 5.1435,-11.178 z m -104.0963,9.2082 c -15.891,-0.072 -11.0067,6.3542 -3.0289,7.0638 16.9035,1.5035 57.0884,1.3463 74.8776,0.9633 9.1026,-0.1959 13.8954,-1.6634 9.0651,-5.6605 -3.0629,-2.5342 -55.5419,-3.7386 -80.9138,-2.3666 z m -4.0178,18.794 c -7.9746,0.204 -9.7867,5.8893 -0.2403,6.922 12.2723,1.3275 78.3998,1.3749 82.6635,0.011 2.5035,-0.801 5.5888,-5.4724 -0.1388,-5.8057 -15.8115,-0.9203 -35.7775,-1.526 -67.4828,-0.7146 z m 11.7338,18.079 c -10.771,0.1987 -10.0761,6.3426 0.6628,7.4065 9.0713,0.6338 38.7714,-0.071 43.1139,-0.4011 14.2913,-1.0853 11.5011,-8.3679 4.005,-7.6662 -8.2146,-0.4402 -37.6975,0.2261 -47.7817,0.6608 z" fill="#00B894" transform="translate(-18.591565,-400.05816) matrix(0.25508657,0,0,0.25508657,-2089.7142,-846.80328)"/>
</svg>