<?xml version="1.0" ?><svg height="62.328171mm" viewBox="0 0 58.838219 62.328171" width="58.838219mm" xmlns="http://www.w3.org/2000/svg">
    <path d="m 8474.8049,16020.41 c 24.238,-67.651 40.769,-98.812 84.665,-96.098 43.896,2.714 92.117,14.173 116.578,88.961 24.461,74.788 -61.066,159.528 -110.547,151.888 -49.481,-7.639 -104.435,-28.95 -90.696,-144.751 z" fill="#FFFFFF" transform="translate(-49.199899,-24.020455) matrix(0.24336031,0,0,0.24336031,-2010.9176,-3848.4427)"/>
    <path d="m 8546.374,16165.741 c -19.0671,-4.313 -37.7206,-14.075 -51.8004,-27.11 -23.1076,-21.394 -30.9291,-45.201 -28.9928,-88.251 1.3824,-30.734 4.6939,-44.947 16.0101,-68.714 16.4958,-34.649 30.509,-50.26 58.0503,-64.671 38.5207,-15.473 90.5226,11.68 113.5986,36.796 13.3684,14.773 29.955,45.564 33.8427,62.826 2.2706,10.081 3.2089,11.417 8.8383,12.567 8.9597,1.833 11.1511,3.627 11.1511,9.127 0,5.744 -3.2999,8.858 -10.4348,9.845 -4.7537,0.658 -5.3472,1.898 -6.6766,13.952 -2.9781,27.002 -12.9692,45.102 -39.2883,71.177 -33.4121,29.164 -63.6308,41.319 -104.2982,32.456 z m 86.7274,-39.053 c 26.0805,-22.751 37.3501,-41.862 39.8781,-67.624 l 1.2533,-12.771 -8.1026,-1.916 c -10.5275,-2.49 -11.1101,-8.738 -1.2345,-13.238 6.0636,-2.764 6.7321,-3.864 5.7072,-9.391 -2.2562,-12.168 -19.9048,-44.187 -31.2915,-56.77 -19.6497,-21.715 -54.4948,-36.102 -87.4317,-36.102 -19.1448,0 -25.4256,2.93 -38.7621,18.081 -10.6757,12.128 -28.3681,47.878 -32.3651,65.399 -4.7034,20.617 -6.2663,51.31 -3.4606,67.965 4.8514,28.8 18.6831,48.395 42.9947,60.909 43.1784,18.572 77.8194,15.546 112.8148,-14.542 z m 6.548,-26.679 c -2.7953,-7.406 -3.4388,-7.536 -10.3654,-2.087 -2.9186,2.296 -7.2181,4.175 -9.5546,4.175 -5.7054,0 -10.7458,-7.677 -10.7458,-16.365 v -7.088 l -7.1652,5.465 c -9.0519,6.904 -14.7382,6.926 -19.2276,0.08 l -3.5321,-5.391 -6.0132,6.435 c -6.6726,7.139 -15.8818,8.577 -21.156,3.304 -4.2674,-4.269 -7.0676,-3.931 -8.6461,1.043 -2.0108,6.336 -7.3058,5.199 -7.2966,-1.566 0.016,-6.936 7.1583,-19.304 11.1585,-19.304 1.5839,0 5.4204,1.999 8.5255,4.441 l 5.6458,4.441 6.7352,-6.528 c 8.1555,-7.904 16.1394,-8.527 21.5268,-1.678 3.7688,4.791 3.8903,4.804 10.0647,1.054 3.4374,-2.087 8.3628,-3.799 10.9455,-3.805 6.3182,-0.01 13.0436,7.089 13.0436,13.777 0,4.394 0.7026,5.135 3.6523,3.855 8.5897,-3.726 17.885,-3.627 20.7008,0.226 5.226,7.146 2.4833,21.783 -4.0818,21.783 -1.018,0 -2.9145,-2.818 -4.2143,-6.261 z m 10.0304,-80.399 c -7.3705,-3.405 -20.201,-3.879 -29.8729,-1.104 -20.8457,5.978 -14.5026,-12.719 7.4228,-21.88 9.1824,-3.836 16.4578,-3.908 17.8898,-0.177 1.5205,3.963 -2.5257,7.509 -8.9007,7.804 -2.927,0.141 -0.686,1.022 4.9798,1.971 10.9729,1.836 21.0032,7.848 21.0032,12.589 0,3.94 -5.0245,4.259 -12.522,0.797 z m -133.1545,-2.32 c -4.725,-4.724 5.0402,-12.572 20.1817,-16.217 7.3938,-1.781 5.8877,-3.58 -4.3972,-5.252 -11.7797,-1.914 -10.4803,-7.295 1.955,-8.097 14.763,-0.951 35.0659,11.534 35.0659,21.565 0,6.935 -2.9125,7.961 -14.6304,5.149 -9.6579,-2.318 -22.5238,-1.138 -33.484,3.068 -1.779,0.683 -3.89,0.586 -4.691,-0.216 z" fill="#00B894" transform="translate(-49.199899,-24.020455) matrix(0.24336031,0,0,0.24336031,-2010.9176,-3848.4427)"/>
</svg>