<?xml version="1.0" ?><svg height="97.267586mm" viewBox="0 0 81.813927 97.267586" width="81.813927mm" xmlns="http://www.w3.org/2000/svg">
    <path color="#000" d="m 20215.11,4774.2948 c 36.929,17.0045 78.399,95.6206 7.238,166.729 -71.16,71.1088 -157.533,4.0854 -156.98,-67.078 4.846,-137.855 112.812,-116.6551 149.742,-99.651 z" fill="#FFFFFF" overflow="visible" paint-order="fill markers stroke" transform="translate(-256.42013,41.333342) matrix(0.26458333,0,0,0.26458333,-5041.8555,-1293.9718)"/>
    <path d="m 20139.437,4734.3823 c -13.202,-0.031 -23.726,1.0116 -34.436,4.1124 -13.771,3.986 -27.851,11.3719 -48.33,24.2427 -18.061,11.3526 -31.138,37.2983 -31.679,62.8585 -0.491,23.2218 13.04,78.9082 24.554,101.044 5.366,10.3168 6.427,15.501 3.798,18.5544 -2.72,3.1598 -1.994,4.7779 2.852,6.3558 4.42,1.4403 8.666,-0.424 13.273,-5.8273 9.744,-11.4239 12.091,-10.8831 8.107,1.8673 -4.835,15.4717 -3.679,17.0459 8.048,10.9591 10.206,-5.2968 20.762,0.4984 14.199,7.7946 -4.408,4.9003 0.255,18.4134 5.81,16.8397 2.652,-0.7516 6.25,-3.9571 7.994,-7.1256 1.837,-3.2291 3.641,-5.4511 4.737,-7.9048 17.719,7.3573 37.355,9.3156 56.23,6.0585 24.707,-4.263 53.405,-17.6475 67.832,-37.7925 2.711,-3.7879 7.963,-10.825 11.316,-13.7815 0.935,0.5611 3.591,3.1328 8.746,2.0396 2.374,-0.3256 2.614,-0.2518 2.614,0.8078 0,0.6416 -0.51,2.3592 -1.135,3.8167 -0.625,1.4582 -1.135,3.4601 -1.135,4.4498 0.252,7.7778 12.31,12.4483 18.198,6.5567 1.6,-1.2649 3.04,-2.17 3.198,-2.0111 0.161,0.1591 0.537,1.3888 0.839,2.7329 0.722,3.2077 0,5.0057 5.493,7.585 6.62,2.4556 16.746,-2.5727 21.619,-8.8394 0.656,-1.8816 2.653,-2.3127 3.121,-0.6747 4.698,43.1107 -21.856,98.975 -33.406,148.3515 -1.526,6.5247 -0.464,10.8769 5.872,13.9664 5.071,1.3535 10.253,0.7954 11.944,-6.2434 4.253,-19.1799 12.817,-44.7918 18.436,-68.5155 6.99,-29.5159 13.95,-33.8375 16.051,-80.3164 -0.717,-14.8747 -1.454,-21.3265 -2.917,-25.5626 -3.352,-9.7512 -4.904,-15.5175 -13.043,-23.0069 -11.89,-10.6914 -23.03,-20.4456 -42.713,-25.2788 -1.121,-0.4688 -2.503,-0.8522 -3.072,-0.8522 -1.564,0 -1.745,-0.7755 -0.804,-3.4415 2.443,-22.2841 -0.676,-32.3482 -1.903,-45.7006 3.888,-1.155 14.873,-7.5986 15.53,-9.4822 1.664,-9.4403 -10.506,-7.7559 -16.009,-4.6918 -3.551,1.8878 -4.741,1.6549 -6.191,-1.214 -3.542,-6.9506 -7.365,-12.3045 -11.902,-17.1697 0.99,-0.7024 1.97,-1.3174 2.932,-1.7434 8.335,-2.3614 6.793,-15.7112 -3.373,-29.2226 -10.907,-14.4936 -37.751,-25.2585 -52.54,-21.0691 -5.718,1.6202 -14.751,1.505 -20.071,-0.2559 -5.32,-1.7603 -22.729,-3.2321 -38.684,-3.2699 z m -12.969,9.7257 c 0.269,0 0.54,0.015 0.813,0.046 8.47,0.8786 8.132,3.2744 -0.826,5.8115 -4.2,1.1899 -7.087,0.2283 -6.416,-2.136 0.421,-1.478 1.852,-2.6782 3.673,-3.2867 0.135,-0.046 0.275,-0.088 0.416,-0.1274 v 0 c 0.739,-0.2043 1.532,-0.3134 2.34,-0.3074 z m -22.126,8.0699 c 1.682,-0.089 3.298,1.1279 3.785,2.9789 0.558,2.1151 -1.591,4.5838 -4.773,5.4848 -3.18,0.9012 -5.207,-0.3853 -4.503,-2.8576 0.704,-2.4727 2.848,-4.9425 4.768,-5.4865 0.241,-0.068 0.482,-0.1068 0.723,-0.1196 z m 116.613,1.6295 c 4.177,-0.092 27.396,19.1143 28.738,24.2002 0.428,1.6243 -0.891,3.4264 -2.932,4.0044 -2.04,0.5779 -4.183,-0.7503 -4.764,-2.9504 -0.58,-2.2012 -6.036,-8.0709 -12.125,-13.0456 -6.088,-4.9748 -10.354,-10.3461 -9.479,-11.935 0.06,-0.092 0.124,-0.1596 0.22,-0.2044 0.05,-0.027 0.1,-0.04 0.156,-0.051 0.05,-0.01 0.12,-0.02 0.186,-0.02 z m -56.791,10.7103 c 8.439,0.04 17.02,1.2918 25.146,3.3743 6.632,1.0867 15.341,5.2841 21.544,8.5296 3.084,1.5513 6.439,3.4436 8.532,4.7856 4.705,4.1935 9.208,8.7232 13.347,13.383 1.312,1.744 2.662,2.6793 4.037,3.036 0.423,0.6937 0.82,1.4051 1.202,2.1573 2.493,4.8086 5.997,8.3997 8.544,13.1568 1.558,1.7719 1.031,3.1558 -1.584,4.1547 -9.177,3.5909 -5.879,12.0966 3.697,11.3173 1.406,-0.2078 2.801,-0.1514 3.098,0.126 0.753,0.7006 2.026,5.3359 2.401,8.7374 0.858,9.2201 0.207,18.7853 -0.837,27.8989 0.104,3.6191 -1.323,4.6597 -8.354,6.1001 -7.319,1.6053 -14.986,5.9675 -21.103,10.3821 -4.875,3.2109 -9.73,8.1086 -11.286,11.3887 -3.531,9.3272 14.912,11.3918 21.02,1.0891 2.103,-0.6462 7.819,-6.0628 11.019,-7.2666 1.615,-1.2201 2.907,-1.3251 2.907,-0.2375 0,0.7059 -3.361,9.348 -5.328,13.6999 -2.739,6.0768 -5.605,12.2854 -9.508,18.5897 -16.15,26.0959 -46.717,41.4262 -74.429,41.8339 -14.181,0.1345 -29.868,-4.566 -43.756,-13.1062 -0.165,-0.3421 -0.324,-0.6763 -0.498,-1.0297 -8.887,-6.9581 -17.389,-15.1803 -24.466,-23.9612 -2.889,-3.585 -5.275,-6.7244 -7.282,-9.6738 -0.571,-1.1716 -1.113,-2.3576 -1.62,-3.5634 -4.72,-11.6088 -7.966,-27.2772 -8.482,-39.6205 -0.104,-13.411 1.111,-24.6978 3.506,-34.4593 1.503,-0.9147 3.231,-1.6317 5.21,-2.1924 17.727,-5.0216 47.737,-28.4359 66.485,-51.8735 5.218,-6.5231 10.482,-12.5431 14.535,-16.735 0.766,-0.015 1.533,-0.027 2.303,-0.02 z m -104.175,9.8765 c 0.851,0.021 1.557,0.6629 1.879,1.8878 0.59,2.2404 -0.596,4.5471 -2.636,5.125 -2.04,0.5779 -3.913,0.287 -4.159,-0.6457 -0.246,-0.9327 0.943,-3.2383 2.64,-5.1235 0.555,-0.6188 1.131,-1.0036 1.673,-1.1616 v 0 c 0.08,-0.02 0.153,-0.04 0.23,-0.055 0.126,-0.02 0.251,-0.031 0.373,-0.031 z m 159.491,13.9111 c -1.866,-0.01 -4.153,1.0186 -6.977,3.5689 -1.408,3.3714 -1.031,8.4837 0.916,12.4086 3.619,12.4763 15.462,13.1388 14.398,-1.1049 -0.952,-5.4997 -2.738,-14.8467 -8.337,-14.8726 z m -97.392,0.4876 c 1.718,0 3.071,0.7421 3.508,2.4014 1.199,4.5437 -24.75,23.259 -36.847,26.579 -6.572,1.8027 -4.881,-0.3852 5.772,-7.4751 8.286,-5.5143 16.291,-12.2485 17.785,-14.9629 1.698,-3.0833 4.71,-5.2978 7.453,-6.153 0.17,-0.053 0.341,-0.102 0.509,-0.1447 0.634,-0.1601 1.248,-0.2442 1.82,-0.2447 z m 57.803,8.5617 c -0.527,-0.011 -1.063,0.027 -1.6,0.1167 -6.358,1.0162 -8.822,1.4693 -6.388,9.2747 0.646,2.0559 1.174,4.1781 1.174,4.7162 0,2.0739 2.283,5.9698 4.373,7.4645 2.983,2.1339 6.5,2.1761 8.423,0.1015 1.881,-2.0301 2.23,-4.5024 1.589,-11.2671 -0.435,-4.6062 -0.812,-6.1178 -1.882,-7.5658 -1.298,-1.7552 -3.406,-2.7816 -5.689,-2.8407 z m 88.827,87.6857 c 0.51,0.027 1.825,0.089 2.918,0.1418 1.094,0.052 1.988,0.3196 1.988,0.5937 0,0.2748 -1.344,1.425 -2.988,2.5565 -2.483,1.7098 -4.427,2.5584 -4.389,1.9147 0,-0.078 0.353,-1.2919 0.774,-2.6981 0.515,-1.7241 1.067,-2.54 1.697,-2.5086 z m 32.807,17.8466 c 2.29,0 2.052,1.4352 -0.454,2.7553 -1.289,0.6783 -3.02,0.878 -3.02,0.3486 0,-1.2803 2.04,-3.1039 3.474,-3.1039 z" fill="#00B894" transform="translate(-256.42013,41.333342) matrix(0.26458333,0,0,0.26458333,-5041.8555,-1293.9718)"/>
</svg>