<?xml version="1.0" ?><svg height="75.934204mm" viewBox="0 0 69.507477 75.934204" width="69.507477mm" xmlns="http://www.w3.org/2000/svg">
    <path d="m 8151.9215,5038.0405 a 98.250069,93.745087 0 0 1 -98.2501,93.7451 98.250069,93.745087 0 0 1 -98.2501,-93.7451 98.250069,93.745087 0 0 1 98.2501,-93.7451 98.250069,93.745087 0 0 1 98.2501,93.7451 z" fill="#FFFFFF" transform="translate(10.563253,-361.1758) matrix(0.24698436,0.0101877,-0.00951712,0.26438712,-1917.6325,-1022.7522)"/>
    <path d="m 7931.738,5210.1992 c -2.3296,-1.7966 -5.1326,-7.0969 -6.2296,-11.778 -10.6043,-77.2702 -10.9892,-143.3542 15.348,-198.5032 40.7848,-86.9111 134.7698,-101.0584 202.0739,-30.4172 5.5877,5.865 9.8506,12.9335 9.8506,12.9335 15.9023,-3.3034 23.1775,11.7315 19.5679,25.8183 -1.6436,6.4193 -5.274,8.2828 -4.506,12.0317 1.134,5.6044 2.9916,10.9937 2.9916,10.9937 5.5101,-0.233 21.1728,-2.464 23.2064,2.9131 5.2105,13.7772 -11.7678,17.6601 -23.1854,20.3138 0,0 -1.2274,16.5963 8.0405,39.826 13.373,33.5221 23.9958,67.9734 23.0118,74.6346 -1.0365,7.0159 -7.6818,9.9343 -14.2269,6.2469 -2.3813,-1.3412 -5.17,-0.3623 -6.6993,2.3506 -1.9127,3.3968 -4.7045,3.902 -10.3594,1.8754 -6.0603,-2.1713 -8.2451,-1.5941 -10.0554,2.6581 -3.3829,7.9509 -11.7266,8.7839 -15.9657,1.5949 -2.5673,-4.3527 -4.1698,-5.1172 -5.6332,-2.6851 -1.1251,1.8706 -5.0362,2.9591 -8.6935,2.4189 -5.1683,-0.7637 -7.5136,-4.2434 -10.5352,-15.6279 -2.1384,-8.0548 -4.2566,-18.366 -4.7069,-22.9131 -0.4523,-4.5472 -1.5314,-8.3726 -2.4011,-8.5011 -0.8699,-0.1285 -8.9413,2.0052 -17.9392,4.7411 -34.415,10.4652 -57.0495,7.8259 -91.2757,-10.6437 -9.8133,-5.2959 -18.217,-9.3502 -18.6738,-9.0099 -0.459,0.3404 2.5305,14.1378 6.6437,30.6614 8.6898,34.9188 7.4436,48.9042 -4.2022,47.1838 -4.6879,-0.6925 -8.1122,-3.7565 -9.9118,-8.8701 -2.5333,-7.2006 -2.8665,-6.5543 -4.2681,8.2566 -1.374,14.5202 -2.1333,16.065 -7.8744,16.0359 -7.4019,-0.037 -10.6532,-11.9431 -13.3193,-48.7905 -1.6144,-22.2927 -9.2716,-75.2103 -8.6965,-60.0937 1.2699,33.3639 3.6369,88.9139 4.0686,95.4367 0.6143,9.2869 -8.2919,14.4237 -15.4444,8.9085 z m 141.2918,-84.7544 c 22.7339,-5.0882 45.764,-17.1904 57.7326,-32.0315 9.9276,-12.3101 13.0824,-26.8458 14.0428,-33.905 -13.0807,1.0868 -19.244,-12.5561 -8.5521,-19.5234 -19.745,4.377 -22.4775,1.0601 -31.8329,-10.7786 l -9.8767,-12.627 -3.8473,12.6428 c -2.7309,8.9655 -6.5947,12.5499 -15.1438,17.1944 -10.203,5.5429 -14.2416,3.2687 -26.4161,5.9038 -14.7815,3.1992 -21.7205,-7.5971 -28.2027,-17.3309 -16.8652,-25.3252 -20.3316,-22.8137 -27.4382,20.1028 -6.6731,40.2976 -9.4551,40.4245 0.319,48.3315 21.6201,17.4909 53.1063,27.8641 79.2154,22.0211 z m 54.3279,-139.9628 c -1.9852,-0.9025 -8.5904,-14.3946 -14.1835,-5.7788 -3.1988,4.9275 -13.765,-0.09 -14.6502,-2.1435 -2.2982,-5.334 -6.0234,-4.7214 -8.6392,1.4198 -1.3417,3.1564 -4.8096,5.2144 -7.9927,4.7441 -3.0897,-0.4564 -7.5966,-3.7884 -10.0108,-7.4038 -5.8147,-8.7051 -9.0663,-8.8185 -10.3159,-0.3594 -1.4772,9.9989 -8.9051,10.2438 -17.4659,0.5751 -9.7506,-11.014 -10.6888,-10.8139 -8.7583,1.8652 1.0924,7.1785 0.5252,11.4984 -1.7239,13.1734 -5.8317,4.3293 -11.6317,-1.7847 -13.432,-14.1588 -0.9551,-6.5735 -3.0773,-12.1495 -4.7147,-12.3913 -3.1157,-0.4603 3.293,9.0255 -1.0635,25.9318 l -2.5301,9.8185 c 21.9086,-7.5256 104.4359,-10.7798 115.4807,-15.2923 z" fill="#00B894" transform="translate(10.563253,-361.1758) matrix(0.24698436,0.0101877,-0.00951712,0.26438712,-1917.6325,-1022.7522)"/>
</svg>