<?xml version="1.0" ?><svg height="55.815178mm" viewBox="0 0 59.640587 55.815178" width="59.640587mm" xmlns="http://www.w3.org/2000/svg">
    <path color="#000" d="m 18544.336,3712.1356 c 19.748,-56.8765 60.7,-95.5693 117.071,-89.8951 56.372,5.6741 88.884,61.9697 68.982,116.1515 -19.904,54.1819 -36.963,96.3481 -103.596,91.0079 -66.633,-5.3404 -102.205,-60.3878 -82.457,-117.2643 z" fill="#FFFFFF" overflow="visible" paint-order="fill markers stroke" transform="translate(-20.0726,-149.74122) matrix(0.25107978,0,0,0.25107978,-4627.3687,-757.31984)"/>
    <path d="m 18535.716,3717.678 c 0.401,-2.0081 0.58,-3.8922 0.398,-4.1869 -0.198,-0.321 -6.655,-0.7539 -10.611,-0.5296 -19.662,-0.018 -18.254,-9.4574 -9.797,-13.3899 6.804,-3.1635 11.814,-0.2546 20.442,-1.1185 2.657,-0.2931 2.812,-0.4103 3.879,-2.9161 14.111,-35.2796 31.903,-63.3058 65.166,-77.5402 24.937,-10.6709 66.578,-3.6919 87.515,6.0854 47.013,21.9556 78.359,99.6686 31.514,165.7226 -23.912,31.0612 -60.307,44.4787 -91.976,45.1366 -72.602,-4.1312 -109.025,-48.7876 -96.53,-117.2634 z m 178.225,42.6289 c 21.299,-41.7962 8.673,-104.0753 -27.067,-119.9065 -30.861,-13.6697 -71.89,-15.9903 -102.066,13.9551 -8.984,10.1633 -22.352,28.8708 -24.446,42.8101 12.341,1.4446 10.993,15.7381 -2.271,14.6945 l -1.988,-0.1879 c -21.799,64.3156 33.643,109.1148 74.011,107.8829 49.185,-1.501 71.633,-34.0054 83.827,-59.2482 z m -154.432,-33.6709 c -1.047,-6.7324 -1.066,-11.4471 3.971,-10.7696 37.136,2.2828 66.877,2.4285 101.121,-0.077 7.335,-0.3467 17.34,-1.8919 21.223,-1.9698 8.195,-0.3256 3.425,11.5392 -0.594,14.1838 -8.273,25.1104 -21.865,51.3209 -51.872,58.3534 -38.78,8.6156 -70.137,-24.5293 -73.849,-59.7213 z m 75.418,43.0373 c 15.91,-6.1258 32.92,-20.8824 34.026,-40.8112 -0.298,-0.2973 -2.36,-0.2665 -4.985,0.075 -31.348,4.5767 -60.682,-1.1251 -89.029,-0.3945 -0.971,0.1386 -1.169,0.5028 -1.025,1.876 9.685,34.1421 38.182,47.5806 55.385,40.9573 z m 41.934,-79.9239 c -3.644,-12.9441 -12.588,-13.3905 -19.84,-4.1843 -2.815,3.9954 -7.433,7.3409 -11.196,1.6732 -4.651,-8.5445 3.077,-15.9259 10.078,-19.5028 11.505,-5.3547 26.424,-0.9438 30.087,14.6593 1.405,8.0022 -7.456,15.5471 -9.129,7.3546 z m -102.132,-4.7609 c -2.917,-2.6396 2.07,-13.2167 7.654,-17.1991 14.605,-11.1167 25.901,0.3515 29.353,8.4233 2.08,6.2559 -1.006,11.5157 -7.334,6.4444 -8.054,-7.3229 -13.83,-4.5845 -20.371,3.4949 -6.013,4.9846 -7.571,0.4768 -9.302,-1.1635 z" fill="#00B894" transform="translate(-20.0726,-149.74122) matrix(0.25107978,0,0,0.25107978,-4627.3687,-757.31984)"/>
</svg>