<?xml version="1.0" ?><svg height="78.275581mm" viewBox="0 0 69.169449 78.275581" width="69.169449mm" xmlns="http://www.w3.org/2000/svg">
    <path d="m 10323.179,5111.6388 c 0,0 -44.06,5.2952 -59.346,-51.3574 -15.286,-56.6525 9.7,-74.834 9.7,-74.834 0,0 -11.74,-17.3451 4.108,-40.5318 15.85,-23.187 40.356,-27.0129 40.356,-27.0129 0,0 -7.082,-20.9166 8.503,-36.3011 15.586,-15.3845 62.935,-8.4079 62.935,-8.4079 l 16.361,32.5955 c 0,0 26.768,-22.8681 40.13,-15.3261 13.362,7.5421 -9.465,35.3078 -9.465,35.3078 0,0 29.768,9.1838 46.734,26.9446 16.966,17.7608 22.243,46.6324 20.915,57.6505 -1.329,11.0183 -6.738,24.4621 -6.738,24.4621 0,0 -1.068,67.7587 -37.603,89.7273 -59.13,34.8402 -104.085,41.1107 -136.59,-12.9166 z" fill="#FFFFFF" transform="translate(-377.40932,-310.11221) matrix(0.26458333,0,0,0.26458333,-2334.897,-977.83097)"/>
    <path d="m 10370.869,5162.1227 c -26.431,-4.6654 -41.969,-15.6066 -53.177,-37.4504 -4.636,-9.0297 -7.759,-11.5705 -15.707,-12.7783 -21.893,-3.327 -42.294,-29.0663 -48.132,-60.7278 -4.702,-25.5176 -3.355,-37.0324 6.401,-54.7299 6.201,-11.246 7.444,-16.1885 5.223,-20.7515 -1.603,-3.2943 -2.127,-10.2995 -1.167,-15.5671 2.242,-12.2818 20.712,-35.2979 32.533,-40.5403 7.88,-3.4946 9.013,-5.3533 8.211,-13.4569 -1.095,-11.0548 6.09,-23.5482 17.979,-31.2692 6.8,-4.4146 14.105,-5.7453 37.044,-6.7469 31.969,-1.3957 41.733,1.9904 48.337,16.7683 3.708,8.2975 3.917,8.3582 11.574,3.3273 4.987,-3.2763 11.574,-4.8888 18.268,-4.472 17.008,1.0589 23.287,12.6908 16.278,30.1401 -4.232,10.5307 -4.209,10.9164 0.634,10.4369 2.134,-0.2112 10.243,3.5486 18.023,8.3547 29.208,18.0459 49.21,69.0997 34.548,88.1872 -8.14,10.5983 -1.487,44.408 -1.487,44.408 10.569,3.6689 7.186,30.3628 -7.203,23.0763 -5.638,22.2133 -33.857,47.2549 -50.831,57.9034 -24.372,14.8416 -51.596,20.4338 -77.349,15.8881 z m 66.656,-39.1813 c 16.885,-10.0394 44.044,-38.2774 43.369,-45.0964 -0.163,-1.6477 -3.179,-5.3573 -6.7,-8.2434 -7.925,-6.4977 -2.842,-15.5958 8.192,-14.6329 4.908,0.4283 5.037,1.3119 3.842,-10.7613 -1.401,-14.1567 -11.391,-34.1727 -20.251,-40.5913 -7.492,-5.424 -34.416,-12.6962 -49.884,-13.473 -10.955,-0.5496 -13.349,0.6469 -27.789,13.8888 -8.694,7.9701 -26.161,26.3736 -38.814,40.8968 -21.381,24.539 -22.938,27.2158 -22.007,37.8588 1.376,15.6616 8.841,33.6197 17.377,41.7629 3.906,3.7252 14.413,8.5909 23.353,10.8125 22.638,5.6272 45.992,1.4418 69.312,-12.4215 z m -63.897,-4.1599 c -14.443,-11.8403 -9.404,-17.853 17.235,-20.5696 17.231,-1.7572 22.192,2.6946 17.146,15.3834 -3.176,7.9853 -5.228,9.3888 -15.17,10.3731 -8.393,0.8309 -13.579,-0.5693 -19.211,-5.1869 z m 54.661,-66.6709 c -3.572,-2.9267 -3.186,-10.6176 0.895,-17.874 3.099,-5.5076 8.176,-4.956 11.636,-2.6179 5.338,3.6048 3.334,12.6767 -0.862,17.7963 -3.423,4.1735 -8.452,5.3352 -11.669,2.6956 z m -28.157,-2.4964 c -3.24,-3.2016 -3.582,-5.7753 -1.552,-11.7211 2.801,-8.211 11.61,-8.6385 14.353,-1.6905 4.011,10.1584 -5.166,20.9566 -12.801,13.4116 z m -87.441,50.3316 c -0.321,-3.2494 0.55,-8.6404 1.931,-11.9798 1.995,-4.8144 1.418,-6.718 -2.778,-9.1936 -8.999,-5.3045 -4.28,-17.7543 15.727,-41.4923 24.115,-28.6148 41.558,-44.6658 60.594,-55.7698 14.419,-8.409 16.588,-8.894 34.878,-7.7997 10.729,0.6414 23.694,2.458 28.81,4.0368 11.756,3.6267 28.37,17.3948 36.913,30.5922 3.622,5.5977 7.204,10.1165 7.958,10.0418 0.756,-0.075 0.857,-5.3154 0.231,-11.6462 -0.955,-9.6462 -2.339,-11.8363 -8.557,-13.521 -7.829,-2.1222 -10.511,-9.9369 -5.503,-16.0448 2.213,-2.7001 1.802,-5.7376 -1.65,-12.1871 -3.644,-6.8093 -5.805,-8.1214 -10.427,-6.3257 -3.208,1.2459 -8.417,3.2404 -11.577,4.4329 -3.478,1.3127 -8.713,0.212 -13.271,-2.7904 -11.343,-8.3295 -2.9,-18.2496 3.681,-23.7667 l -6.597,-0.6358 c -3.631,-0.3496 -10.405,-0.033 -15.053,0.7035 -11.762,1.8635 -14.401,-6.9874 -3.672,-12.3137 9.538,-4.737 19.577,-15.8334 19.059,-21.0685 -0.766,-7.7323 -9.547,-6.1037 -22.551,4.1823 -17.565,13.8922 -26.211,13.7597 -27.615,-0.4235 -0.705,-7.1176 -2.103,-9.8221 -4.466,-8.6344 -1.89,0.9505 -3.324,2.8778 -3.185,4.2826 0.139,1.4044 -3.729,2.9479 -8.594,3.4295 -6.444,0.638 -9.407,-0.6389 -10.91,-4.6957 -1.312,-3.5449 -4.468,-5.3336 -8.673,-4.9172 -7.99,0.791 -17.279,-6.1813 -15.736,-11.8102 1.669,-6.0856 -5.562,-4.2268 -13.605,3.4963 -7.62,7.3194 -7.505,18.7421 0.191,18.8519 47.362,0.6746 56.386,5.3307 44.352,22.8874 -11.1,16.197 -4.788,31.2727 9.18,21.9198 8.384,-5.6153 15.224,-3.1847 12.119,4.3081 -6.885,16.6224 -21.991,21.7851 -33.818,11.5577 -5.798,-5.0128 -6.799,-8.3039 -7.13,-23.4748 l -0.388,-17.6447 -14.877,-0.062 c -20.778,-0.087 -30.226,3.2506 -32.452,11.4607 -2.333,8.6091 -13.238,17.6523 -19.285,15.9936 -2.784,-0.7647 -6.096,1.4747 -8.501,5.7505 -7.094,12.6171 -3.667,14.4758 8.338,4.5201 19.067,-15.8124 48.725,-23.8609 46.166,-12.529 -0.458,2.0301 -8.027,8.7109 -16.819,14.8464 -35.008,24.4281 -46.992,49.2396 -41.224,85.3526 3.872,24.2345 12.844,40.8456 26.51,49.078 10.831,6.5245 13.003,6.3479 12.276,-0.9985 z m -19.467,-50.7752 c -0.205,-2.0681 3.919,-6.3543 9.165,-9.5244 6.287,-3.7994 9.343,-7.7487 8.963,-11.5851 -0.474,-4.7805 -1.824,-5.3733 -7.549,-3.3183 -4.23,1.5181 -7.094,1.2813 -7.281,-0.6015 -0.169,-1.7071 2.703,-5.5308 6.38,-8.4966 7.427,-5.9906 8.316,-13.5535 1.512,-12.8799 -2.416,0.2392 -7.358,2.8273 -10.985,5.7515 -3.892,3.1408 -6.717,4.0417 -6.9,2.2011 -0.169,-1.7133 3.294,-5.4547 7.699,-8.3141 15.734,-10.2168 26.906,-5.9675 21.109,8.0281 -1.972,4.7599 -1.777,7.3611 0.708,9.3973 5.902,4.8395 4.786,13.1965 -3.036,22.7386 -7.758,9.4623 -19.126,13.2566 -19.785,6.6033 z m 47.503,-54.0108 c -1.473,-2.0599 -5.163,-3.9689 -8.196,-4.2425 -9.506,-0.8582 -12.943,-8.2816 -8.114,-17.5273 2.352,-4.5019 5.128,-7.4855 6.173,-6.6305 1.043,0.8552 0.515,3.2293 -1.152,5.274 -5.976,7.2875 -2.858,11.802 6.125,8.8756 7.305,-2.3796 8.472,-1.933 9.005,3.4518 0.365,3.6814 2.012,5.5563 4.068,4.6321 1.9,-0.8544 3.27,-3.6059 3.041,-6.1138 -0.656,-7.3304 2.68,-9.1161 6.47,-3.4557 7.056,10.5357 -10.07,26.0056 -17.42,15.7363 z m 149.396,-13.6685 c -1.127,-1.4765 -3.259,-2.5649 -4.739,-2.4184 -1.48,0.1465 -2.564,1.5534 -2.409,3.1261 0.156,1.5732 2.291,2.6615 4.744,2.4186 2.45,-0.2425 3.534,-1.6495 2.404,-3.1263 z m -24.845,-32.1784 c -0.118,-1.1972 -2.373,-3.6348 -5.013,-5.4171 -3.95,-2.6696 -5.507,-2.3722 -8.836,1.6881 -2.222,2.7108 -3.153,6.0907 -2.069,7.5113 2.225,2.9138 16.251,-0.4192 15.918,-3.7823 z m -82.505,-60.0791 c 5.022,-9.6138 2.629,-11.3988 -16.239,-12.1075 -14.324,-0.5378 -18.038,1.0485 -17.406,7.4331 0.312,3.1477 3.169,3.7538 11.062,2.3445 9.177,-1.6391 10.854,-1.0274 12.192,4.4437 2.039,8.3461 5.271,7.6887 10.391,-2.1138 z" fill="#00B894" transform="translate(-377.40932,-310.11221) matrix(0.26458333,0,0,0.26458333,-2334.897,-977.83097)"/>
</svg>