<?xml version="1.0" ?><svg height="78.315285mm" viewBox="0 0 102.91188 78.315285" width="102.91188mm" xmlns="http://www.w3.org/2000/svg"><path color="#000" d="m 1246.625,94.351562 c -0.2352,22.465548 -9.5411,47.071518 7.2285,65.525388 a 91.051666,95.316086 0 0 0 -19.8379,59.39453 91.051666,95.316086 0 0 0 91.0508,95.31641 91.051666,95.316086 0 0 0 91.0508,-95.31641 91.051666,95.316086 0 0 0 -17.4277,-56.08203 c 7.0764,-20.88975 16.5497,-41.95249 11.08,-61.93164 l -41.0898,34.34571 a 91.051666,95.316086 0 0 0 -43.6133,-11.64844 91.051666,95.316086 0 0 0 -46.7695,13.53711 z" fill="#FFFFFF" overflow="visible" paint-order="fill markers stroke" transform="translate(-192.11334,39.157643) matrix(0.32912868,0,0,0.32912868,-180.90443,-68.001025)"/><path d="m 1310.0291,324.45309 c -2.5667,-0.5371 -6.4667,-1.3662 -8.6667,-1.8426 -2.2,-0.4763 -9.1,-2.7061 -15.3333,-4.9551 -13.3678,-4.8232 -19.8891,-9.1551 -33.0637,-21.9635 -7.4568,-7.50954 -15.5913,-4.46559 -25.7156,-2.8732 -6.6129,1.0602 -9.6949,0.965 -13.5817,-0.4195 -8.3796,-2.9847 -16.3687,-10.3298 -20.7393,-19.0674 -8.7951,-17.5828 -8.6825,-16.9173 -11.5016,-68 -0.4455,-8.072 -2.364,-14.137 -5.7653,-18.2259 -1.522,-1.8297 -2.6033,-1.9765 -6.0755,-0.8248 -2.3232,0.7705 -5.1207,2.2403 -6.2167,3.2661 -1.7498,1.6379 -1.3842,2.4392 3,6.5755 5.5196,5.2074 6.3722,9.5474 2.5544,13.0024 -4.3387,3.9265 -9.2791,2.7489 -15.9151,-3.7933 -6.1171,-6.37173 -16.301,-7.53885 -18.8827,-14.8373 -6.2762,-12.35379 27.0655,-29.83654 42.6764,-38.3763 4.2374,-2.2035 5.2108,-2.2736 8.6667,-0.6245 6.7308,3.212 5.9279,7.6786 -2.7063,15.055 -6.9356,5.9253 -9.5295,9.739 -5.734,8.4308 2.1439,-0.7389 9.4148,4.1582 13.0666,8.8008 4.321,5.4932 7.6167,24.1166 8.4766,47.8994 0.417,11.5337 1.2925,22.0238 1.9456,23.3112 0.653,1.2875 2.8739,6.0979 4.9353,10.6899 3.8222,8.5146 10.649,16.1297 14.8866,16.6057 4.3262,1.8682 12.9671,-4.26287 14.356,-4.2881 2.6894,0 2.5176,-2.893 -0.5752,-9.6812 -9.9385,-21.8133 -12.8847,-52.9676 -7.4696,-78.9854 2.3681,-11.3784 9.5145,-27.0125 15.057,-32.9405 3.1442,-3.3629 3.2345,-3.8177 1.3337,-6.7188 -3.633,-5.5445 -6.6554,-22.8044 -6.149,-35.11429 -0.241,-12.46477 5.048,-31.998953 15.0144,-25.704323 5.7878,3.7538 10.8694,14.977123 14.7628,23.294223 2.0213,4.3177 5.2385,10.28129 7.1495,13.25239 l 3.4745,5.402 6.7009,-3.2146 c 8.8595,-5.86366 17.8412,-7.54064 27.5676,-9.98629 37.4985,-6.67698 54.9676,10.67468 59.1189,6.51828 7.8025,-8.61556 20.1147,-20.07521 28.0145,-29.210183 6.1524,-7.1197 10.5317,-8.0223 15.1373,-3.1199 3.4879,3.7127 4.2887,6.5951 5.1521,18.543403 0.839,11.60909 -7.1152,36.46068 -12.173,48.61048 0,0 4.678,12.83955 14.3714,40.80461 0.7018,2.0538 1.7778,2.2871 7.169,1.5546 3.4888,-0.4741 7.3832,-1.1488 8.6544,-1.4993 2.9097,-0.8025 9.0221,5.1282 9.0221,8.754 0,3.4862 -3.3623,5.1859 -12.3483,6.242 l -7.2954,0.8575 -0.901,10.8032 c -0.4956,5.9418 -1.5405,13.5186 -2.3222,16.8374 -2.2394,9.5077 -12.5202,29.4508 -18.5759,36.0341 -12.4071,13.4881 -17.4601,18.2968 -25.5189,24.2847 -15.822,11.7561 -28.054,16.9869 -47.5522,20.3347 -11.9997,2.0604 -13.8338,2.1032 -21.4861,0.5019 z m 13.2652,-18.5366 c 23.0592,-3.7413 50.8363,-21.0126 65.1749,-40.5247 9.9646,-13.5598 14.2892,-22.6911 16.135,-34.0681 2.1582,-13.3025 2.1518,-13.3262 -3.5751,-13.3187 -7.1747,0.01 -17.6667,-4.0131 -17.6667,-6.7734 0,-3.5402 3.0743,-5.2137 11.5031,-6.262 9.5623,-1.1891 10.3012,-3.1974 5.2444,-14.2528 -1.8777,-4.1052 -3.4141,-7.9569 -3.4141,-8.5593 0,-2.55 -7.3596,-14.606 -14.6644,-24.0223 -9.823,-12.16237 -30.9816,-22.81516 -45.228,-23.96891 -11.7537,-0.7873 -24.7332,0.48921 -42.7198,8.86591 -34.2955,15.9721 -46.8698,32.713 -50.7997,67.6329 -1.1146,9.9041 -1.1123,15.7338 0.01,22.6667 0.8303,5.1333 1.5578,10.5333 1.6167,12 0.1507,3.7502 3.6033,13.0933 8.8103,23.841 8.4575,17.4575 27.267,31.4827 48.3092,36.0217 11.0382,2.3811 11.0396,2.3811 21.2653,0.722 z m -36.8601,-36.7774 c -4.5067,-4.92 -6.6378,-9.9401 -5.2044,-12.2594 1.0266,-1.6611 9.6371,0.2797 12.5634,2.8317 4.1695,3.6362 12.1363,5.3094 20.6782,4.343 4.4724,-0.506 8.7525,-1.3082 9.5114,-1.7827 0.7588,-0.4745 2.5796,-1.0477 4.0463,-1.2738 3.2847,-0.5063 30.3364,-13.7991 31.5321,-15.4944 2.6511,-3.7587 8.6627,4.8813 7.2666,10.4437 -18.7813,20.23453 -55.0295,40.51441 -80.3936,13.1919 z m 16.0154,-72.4833 c -3.633,-1.4638 -5.7538,-5.2995 -5.7538,-10.4064 0,-4.5129 1.8826,-6.4815 7.1037,-7.4283 2.8841,-0.523 3.9637,-0.032 4.9554,2.2543 0.6973,1.6077 1.9484,3.8656 2.7802,5.0176 1.162,1.6092 0.973,3.2311 -0.8154,7 -2.4197,5.0992 -3.4042,5.5233 -8.2701,3.5628 z m 40.2462,-1.6351 c -5.0617,-1.7996 -5.9543,-3.1849 -5.9796,-9.28 -0.015,-3.592 0.7814,-5.486 2.9429,-7 3.9271,-2.7506 5.8275,-2.6182 9.0783,0.6327 3.4924,3.4924 4.481,9.0973 2.3262,13.1864 -2.0768,3.9409 -3.2417,4.2835 -8.3678,2.4609 z m -36.5949,-21.3737 c -4.7271,-2.361 -9.8997,-5.4978 -11.4945,-6.9707 -1.5948,-1.4728 -4.4772,-3.9825 -6.4052,-5.577 -4.5785,-3.7866 -4.5752,-8.0935 0.01,-9.8359 3.0991,-1.1782 4.5414,-0.5851 12.2389,5.033 12.0953,8.8281 17.8078,14.7984 17.3185,18.1006 -0.6022,4.0655 -2.2342,3.9605 -11.6653,-0.75 z m 31.9937,-2.9819 c -0.5725,-0.7333 -1.3499,-3.044 -1.7274,-5.1348 -0.8784,-4.8639 4.3053,-11.0491 12.8266,-15.3048 6.3222,-3.1575 9.0304,-2.8117 12.7108,1.6229 2.1256,2.5613 -1.5198,10.8708 -5.7159,13.0294 -1.5545,0.7996 -4.1676,2.6754 -5.8071,4.1683 -3.162,2.8794 -10.5435,3.8521 -12.287,1.619 z m 60.5285,-31.5047 c 2.8213,-9.5002 5.0656,-22.61349 4.0449,-23.63369 -1.0198,-1.0194 -17.9722,17.07809 -17.9722,19.18629 0,2.0401 9.7349,12.5279 10.9382,11.7842 0.5459,-0.3373 1.891,-3.6389 2.9891,-7.3368 z m -132.594,-3.8426 c 0,-0.546 -0.9125,-1.7502 -2.0278,-2.6758 -1.1153,-0.9256 -4.0427,-5.2583 -6.5054,-9.6283 l -4.4776,-7.94539 -0.5819,4.98409 c -0.5884,5.04 0.9729,19.8645 2.322,22.0474 0.7707,1.247 11.2707,-5.0712 11.2707,-6.782 z" fill="#00B894" transform="translate(-192.11334,39.157643) matrix(0.32912868,0,0,0.32912868,-180.90443,-68.001025)"/></svg>