<?xml version="1.0" ?><svg height="72.322334mm" viewBox="0 0 71.743202 72.322334" width="71.743202mm" xmlns="http://www.w3.org/2000/svg">
    <path color="#000" d="m 20704.056,4140.4089 a 91.604715,99.796977 0 0 1 -91.605,99.7968 91.604715,99.796977 0 0 1 -91.604,-99.7968 91.604715,99.796977 0 0 1 91.604,-99.7971 91.604715,99.796977 0 0 1 91.605,99.7971 z" fill="#FFFFFF" overflow="visible" paint-order="fill markers stroke" transform="translate(-409.38432,-271.51145) matrix(0.26458333,0,0,0.26458333,-5011.4635,-790.84442)"/>
    <path d="m 20624.146,4015.2042 c -18.103,0.06 -42.79,3.566 -49.831,5.9314 -7.04,2.3654 -22.243,7.1288 -33.781,10.5855 -23.684,7.0939 -31.699,18.009 -32.452,44.1889 -5.46,34.1605 -5.297,54.4981 -3.647,68.5769 -1.888,-0.3839 -3.807,-0.3273 -7.066,2.3424 -5.897,5.3017 -0.36,11.0694 9.549,12.2854 2.588,12.1567 4.892,19.8243 -0.05,35.6864 -9.8,29.4683 -12.942,42.6402 -18.594,78.0256 -0.03,3.9636 -0.03,7.6198 -0.03,11.1147 2.275,8.2451 9.62,3.616 16.567,0 7.071,-35.4136 14.684,-77.5499 19.048,-71.6307 2.299,4.4137 -0.166,17.7399 -7.903,42.702 -2.951,9.5219 -5.725,19.815 -7.879,28.9287 2.687,8.1148 8.163,2.2547 12.921,0 4.38,-20.0039 12.916,-45.3775 17.166,-51.4708 0.347,-0.391 0.632,-0.5373 0.859,-0.4753 2.206,0.6004 -0.885,20.7766 -4.971,29.8283 -1.107,2.4538 -3.317,11.4841 -5.484,22.1178 0.679,5.9136 5.14,5.959 13.467,0 2.085,-15.2948 5.982,-33.202 11.805,-40.5617 1.708,-1.7435 1.944,7.4404 0.524,20.4094 0.759,7.4657 -6.477,27.6379 3.808,16.8904 3.515,-3.6796 6.389,-12.0813 6.389,-18.6686 1.602,-7.5283 0.785,-14.1463 -1.064,-20.5959 6.081,2.8832 15.906,7.9385 22.82,9.3368 28.397,5.7429 63.221,-4.0504 88.073,-20.9801 12.761,-8.6948 16.454,-17.1496 23.383,-28.7122 1.365,27.6442 -1.243,53.7608 -10.158,71.0366 2.502,17.1452 11.28,10.094 12.734,3.8171 3.112,-16.647 6.108,-34.1739 7.222,-42.4883 1.366,-10.2168 4.035,-19.6068 5.93,-20.8655 0.411,-0.2727 0.8,-0.4038 1.162,-0.4019 6.307,0.033 5.445,39.9229 -1.035,63.7557 3.75,10.9382 14.201,8.7501 13.792,0 -0.851,-2.87 -0.482,-8.8245 1.115,-17.2225 6.317,-15.4489 0.647,-81.1506 3.182,-95.1158 5.808,0 12.238,55.8028 12.445,107.9904 2.885,12.5937 11.971,9.6967 15.216,4.3479 0.166,-4.337 -0.618,-8.4518 -2.871,-12.1217 -2.975,-65.4639 -6.72,-88.1218 -24.04,-145.4116 -12.416,-41.0653 -6.067,-46.6662 -27.469,-68.16 -20.47,-20.5578 -41.908,-35.1463 -80.851,-35.0157 z m 16.685,14.751 v 0 c 0.792,0.01 1.023,1.0251 0.777,2.6936 -0.379,-0.084 -0.758,-0.1691 -1.14,-0.2455 -0.756,-0.1514 -1.527,-0.2928 -2.301,-0.4302 1.087,-1.2736 2.004,-2.0151 2.66,-2.0179 z m 17.368,8.6683 c 0.509,0.01 0.869,0.2623 1.082,0.7863 -0.465,-0.2577 -0.933,-0.5103 -1.405,-0.7572 0.113,-0.018 0.222,-0.03 0.323,-0.029 z m -28.347,6.9125 c 2.189,0.3434 4.35,0.8067 6.477,1.387 -5.532,16.4829 -5.933,39.6352 0.171,40.9729 3.983,0.8727 6.989,-5.4845 10.972,-23.2004 0.945,-4.203 2.032,-8.2321 3.155,-11.812 1.769,1.0165 3.503,2.1269 5.197,3.3293 -5.097,16.1019 -5.038,18.3009 0.175,23.9019 5.284,5.6775 6.125,5.2803 9.598,-4.5375 0.983,-2.7791 1.875,-5.6707 2.553,-8.1815 1.569,1.7869 3.085,3.6758 4.543,5.6643 -2.133,10.9578 -0.873,17.3009 6.127,32.1449 5.65,14.9347 8.028,25.4172 11.545,45.6175 -6.632,43.5382 -36.605,84.718 -90.526,82.7374 -16.364,-0.601 -53.52,-11.235 -67.211,-52.2332 -0.945,-7.4921 -3.291,-14.6246 -3.265,-22.3126 1.782,-0.3461 3.489,-0.6779 5.277,-1.0235 5.883,-1.2388 7.78,-7.4386 0.28,-11.0289 -0.625,-0.5639 -1.647,-1.1175 -2.274,-1.2306 -2.561,-0.4639 -3.207,-7.2039 -1.461,-15.2455 3.034,-13.9531 7.565,-28.9223 16.17,-42.31 0.678,0.8493 1.587,1.4843 2.746,1.9622 4.212,1.7364 7.754,-2.5358 13.332,-16.0858 0.999,-2.4266 2.089,-4.8383 3.239,-7.2004 6.014,-5.0386 12.108,-9.1863 18.205,-12.4701 -0.494,1.1108 -1.01,2.246 -1.559,3.4099 -9.858,20.9051 -10.744,37.0103 -2.038,37.0103 2.817,0 5.748,-4.4213 6.516,-9.8223 1.471,-10.3632 18.87,-41.2353 21.591,-38.3117 0.876,0.9416 -0.83,9.0933 -3.793,18.1145 -2.962,9.0214 -4.419,19.1095 -3.237,22.4199 3.409,9.5492 13.12,4.7328 14.288,-7.0873 0.702,-7.1165 7.047,-22.6643 13.207,-34.5787 z m -96.888,5.6392 c 0.07,0.01 0.13,0.01 0.191,0.019 0.587,0.1022 0.929,0.5551 0.929,1.3771 0,2.1614 -2.47,6.1338 -5.487,8.8246 -3.059,2.7292 -5.485,3.1529 -5.485,0.9603 0,-2.1613 2.469,-6.1296 5.485,-8.8204 1.794,-1.5989 3.369,-2.4076 4.367,-2.3616 z m 37.366,48.6424 c -4.688,0.04 -7.184,1.8801 -7.292,7.8986 0.08,7.8453 3.761,12.2164 12.047,9.9265 3.084,-1.0954 3.793,-3.7538 3.939,-8.0583 0.362,-5.7755 -4.291,-9.5637 -8.694,-9.7668 z m 60.245,2.3025 c -6.106,0.039 -7.672,7.58 -6.08,14.6147 1.056,4.6672 9.238,7.555 12.76,5.4454 1.491,-1.0616 3.039,-2.8763 3.035,-5.7933 -0.04,-7.2102 0.929,-10.8583 -5.85,-13.4662 -1.45,-0.558 -2.736,-0.8078 -3.865,-0.8006 z m 80.745,54.267 c 0.146,0.7691 0.29,1.4935 0.438,2.2767 0.919,4.8634 1.092,8.8405 0.382,8.8405 -0.721,0 -1.415,-0.2771 -2.063,-0.7823 0.556,-3.376 0.97,-6.8214 1.243,-10.3349 z m -100.918,35.5342 c -6.554,0.093 -16.587,1.8841 -30.42,2.1867 -4.641,0.1016 -8.323,3.7695 -3.452,7.8269 9.498,7.9124 21.613,4.8985 33.487,3.6755 7.254,-0.7471 13.505,-1.99 9.062,-10.4748 -1.334,-2.5466 -4.191,-3.2782 -8.677,-3.2143 z" fill="#00B894" transform="translate(-409.38432,-271.51145) matrix(0.26458333,0,0,0.26458333,-5011.4635,-790.84442)"/>
</svg>