<?xml version="1.0" ?><svg height="99.937149mm" viewBox="0 0 81.885323 99.937149" width="81.885323mm" xmlns="http://www.w3.org/2000/svg">
    <path d="m 27512.973,8876.7977 c 49.857,14.028 190.602,8.355 208.711,-13.719 18.109,-22.073 64.069,-82.105 66.82,-152.04 2.751,-69.934 -11.347,-178.549 -84.126,-205.883 -72.78,-27.334 -231.863,-9.49 -276.562,28.365 -44.7,37.856 -54.786,225.998 -17.307,272.93 37.479,46.932 102.464,70.347 102.464,70.347 z" fill="#FFFFFF" transform="translate(106.72105,34.421011) matrix(0.13011848,0,0,0.13643547,-3647.6577,-1175.1292)"/>
    <path d="m 30816.598,10798.611 c -2.605,-0.02 -5.111,0.171 -7.516,0.543 -0.857,0.133 -1.697,0.292 -2.527,0.469 -29.197,6.242 -42.548,39.447 -37.41,43.078 -58.622,-22.033 -104.646,12.917 -116.416,74.6 -27.062,14.26 -103.874,64.647 -52.174,112.535 -59.849,55.34 -56.383,104.622 -11.828,120.494 -68.972,45.914 -86.146,155.794 -22.194,182.979 -17.49,66.391 -35.302,132.376 59.389,147.388 -10.902,81.137 117.596,48.501 88.252,-22.511 49.496,133.957 203.727,50.586 141.662,7.209 91.37,-1.958 75.427,-65.507 37.232,-82.182 21.45,-7.692 22.697,-10.568 24.149,-26.297 103.157,-0.973 172.643,-55.157 195.537,-147.898 1.124,-5.559 2.928,-11.446 4.014,-13.084 8.02,-6.411 17.246,-1.681 26.525,-6.297 19.818,-2.989 14.827,-37.882 -3.58,-37.241 -6.348,0.31 -9.744,-0.336 -16.096,-0.32 4.052,-45.169 -9.641,-91.987 -25.531,-130.691 73.154,-40.112 -26.77,-145.768 -76.408,-148.817 -13.538,-30.021 -40.938,-22.511 -68.573,-14.361 -25.825,-30.564 -45.844,-56.269 -97.162,-45.076 -11.469,-7.976 -21.897,-12.221 -31.234,-13.795 -2.802,-0.473 -5.506,-0.704 -8.111,-0.725 z m 97.181,177.19 c 40.191,18.988 67.528,43.577 103.41,8.34 15.356,14.853 20.232,21.213 32.836,37.007 32.827,45.37 33.558,96.743 36.479,126.848 2.191,3.732 -0.99,7.568 -6.828,8.234 -6.848,0.738 -14.276,-2.898 -21.541,3.403 -7.01,6.077 -12.371,18.001 0.886,26.586 14.101,9.133 17.294,1.473 15.254,16.652 -20.015,63.818 -74.051,101.69 -158.089,102.418 -68.924,-5.227 -132.542,-27.507 -159.959,-75.203 -4.078,-7.102 -11.006,-22.564 -10.801,-24.1 0.09,-0.63 -0.779,-2.564 -1.926,-4.345 4.086,-31.685 14.279,-60.188 26.582,-87.223 70.979,-38.939 147.661,-98.607 143.697,-138.617 z m 114.664,97.635 c -1.246,0 -2.533,0.111 -3.851,0.207 -9.24,0.676 -16.412,11.189 -17.645,25.865 0.913,13.085 4.633,20.233 16.668,21.963 14.29,1.955 20.202,-4.175 20.824,-21.592 0.311,-8.691 -1.286,-14.194 -6.197,-21.375 -2.695,-4.295 -6.06,-5.097 -9.799,-5.068 z m -112.281,2.55 c -13.399,0.174 -20.896,9.892 -24.217,22.444 -2.582,5.659 5.541,26.534 20.172,25.539 14.108,-0.96 19.487,-13.686 20.772,-23.172 1.285,-9.487 -1.184,-24.335 -15.41,-24.797 -0.445,-0.01 -0.885,-0.02 -1.317,-0.01 z m 27.865,141.266 c -21.477,0.114 -7.244,25.047 13.09,29.965 20.333,4.918 28.595,0.801 41.684,-4.346 13.09,-5.147 15.626,-22.762 -2.42,-23.105 -18.046,-0.344 -23.506,6.864 -52.354,-2.514 z" fill="#00B894" transform="translate(106.72105,34.421011) matrix(0.13011848,0,0,0.13643547,-3647.6577,-1175.1292) matrix(0.96012558,0.13559479,-0.13559479,0.96012558,7185.5246,838.25005) matrix(1.0211635,-0.14421494,0.14421494,1.0211635,-11193.709,-1831.2831)"/>
</svg>