<?xml version="1.0" ?><svg height="60.054794mm" viewBox="0 0 66.123238 60.054794" width="66.123238mm" xmlns="http://www.w3.org/2000/svg">
    <path color="#000" d="m 18706.228,4431.5673 a 104.63545,103.84458 0 0 1 -104.635,103.8445 104.63545,103.84458 0 0 1 -104.636,-103.8445 104.63545,103.84458 0 0 1 104.636,-103.8445 104.63545,103.84458 0 0 1 104.635,103.8445 z" fill="#FFFFFF" overflow="visible" paint-order="fill markers stroke" transform="translate(90.137843,-24.394089) matrix(0.26458333,0,0,0.26458333,-4982.8964,-1117.566)"/>
    <path d="m 18565.056,4537.0948 c -38.833,-13.0191 -66.757,-49.7067 -71.924,-94.2217 -2.377,-22.3661 0.06,-45.3038 12.372,-64.5542 40.884,-63.933 107.606,-81.1349 163.88,-39.8342 3.236,2.3508 9.708,8.5686 12.44,11.9533 18.915,22.3076 34.118,47.1528 34.326,77.0972 l 0.382,7.669 2.272,-0.068 c 8.357,-1.1509 27.25,-5.2612 22.741,5.9747 -2.957,7.3686 -16.275,7.3547 -22.995,7.4427 -3.744,0.1129 -3.707,0.9846 -5.407,5.6055 -7.749,25.0384 -23.555,43.608 -41.168,59.9634 -19.864,18.4459 -57.797,39.4406 -106.919,22.9723 z m 83.025,-26.4407 c 10.186,-7.5301 15.448,-12.9747 14.291,-14.788 -15.249,-7.1157 -44.835,-6.6418 -56.223,-0.3309 -3.256,2.4072 -11.635,2.0559 -14.669,-0.7448 -1.747,-1.6129 -5.276,-0.8204 -7.832,0.4828 -7.296,5.9977 -10.847,8.2404 -16.107,7.4852 -7.504,-1.7453 -1.995,-9.1601 0.218,-11.2241 3.497,-4.4312 9.162,-5.6457 13.144,-8.0634 3.697,-2.244 11.975,-1.8426 13.778,-0.4469 4.669,3.6162 6.941,2.2613 9.937,1.8504 20.914,-4.0756 45.507,-7.68 65.977,0.6823 0.855,0.8937 1.83,1.6249 2.164,1.6249 0.863,0 7.492,-8.6435 11.11,-14.4869 5.361,-8.6609 10.274,-18.4304 10.42,-20.72 0.09,-1.2447 -0.192,-1.446 -2.337,-1.7437 -9.808,0.2195 -12.922,-14.2135 -2.654,-13.5789 0.848,0.7029 7.946,0.4206 8.71,-0.3465 4.634,-33.7074 -13.539,-55.2099 -29.267,-77.1708 -21.206,-29.6088 -70.598,-34.7991 -95.645,-18.2827 -16.094,9.7455 -32.619,22.1185 -43.121,34.6772 -10.296,12.9343 -15.002,25.5913 -18.736,39.8053 -9.727,60.7211 30.713,99.1397 61.005,109.0306 30.728,8.8386 56.574,0.1905 75.837,-13.7111 z m -49.301,-90.2417 c 0.313,-3.7732 0.04,-3.9881 -3.86,-3.0347 -8.707,0.7956 -19.825,2.3078 -27.436,0.4397 -5.494,-1.4334 -8.352,-8.498 -2.759,-9.4691 14.456,-2.509 25.748,-1.012 39.46,-3.0006 3.551,-0.5973 9.875,0.6357 11.445,3.7984 0.815,1.7869 0.826,9.5995 0.03,13.1265 -0.253,4.3695 -1.054,4.4508 -2.882,5.7208 -6.545,4.545 -14.91,0.4975 -13.988,-7.581 z m 71.187,-4.7127 c -0.56,-3.3186 -1.399,-3.8209 -5.007,-2.9991 -6.402,1.4581 -22.102,1.6288 -25.727,0.2797 -5.174,-2.8928 -4.978,-7.4299 -0.349,-8.5476 1.514,-0.3598 4.748,-0.545 7.185,-0.4113 8.079,-0.1606 20.374,-5.1174 27.678,-4.33 9.768,-0.7403 11.794,8.0676 11.826,14.494 1.126,11.614 -14.444,8.0714 -15.606,1.5143 z" fill="#00B894" transform="translate(90.137843,-24.394089) matrix(0.26458333,0,0,0.26458333,-4982.8964,-1117.566)"/>
</svg>