<?xml version="1.0" ?><svg height="72.770493mm" viewBox="0 0 62.875645 72.770493" width="62.875645mm" xmlns="http://www.w3.org/2000/svg">
    <path d="m 9031.4349,3118.1611 c 4.816,-56.9029 32.792,-95.914 53.185,-106.7966 20.393,-10.8826 44.065,-16.9694 74.295,5.2568 30.231,22.2263 68.864,80.5125 57.592,131.4207 -11.272,50.9083 -43.45,85.3082 -88.642,87.5216 -45.192,2.2134 -96.02,-45.1903 -96.43,-117.4025 z" fill="#FFFFFF" transform="translate(-191.56812,-135.21595) matrix(0.2501557,0,0,0.2501557,-2058.8011,-611.84952)"/>
    <path d="m 9024.103,3275.7396 c -3.7586,-2.1715 -5.2093,-6.7864 -5.2093,-16.5707 0,-9.8922 -1.8927,-15.8106 -6.9955,-21.875 -9.4479,-11.2284 -11.8346,-31.0669 -6.1417,-51.0525 8.441,-29.6343 8.4192,-29.3025 1.9425,-29.3025 -6.988,0 -13.9611,-7.3251 -11.2102,-11.776 1.056,-1.7089 11.7975,-6.7344 14.1708,-6.7344 -0.3605,-16.0381 -0.5084,-35.5586 10.2292,-45.8432 4.0514,-3.8064 6.9347,-25.4004 6.9347,-28.3278 6.9402,-54.0457 49.8644,-72.9246 97.274,-77.6107 17.23,-1.4483 41.6684,3.5436 56.6596,14.5686 7.3416,5.399 16.6008,10.3143 21.1997,25.6742 5.095,17.0179 8.202,21.9134 20.7163,32.6427 10.6678,9.1462 10.7499,18.4529 15.1278,30.1536 9.9701,26.6473 10.7835,42.3474 3.2359,62.4424 -7.2678,19.3498 -6.8402,33.9411 2.029,69.2496 3.917,15.5929 4.0977,20.4737 1.0332,27.8719 -4.6184,11.1503 -15.1513,14.3188 -25.3609,7.6292 -7.2063,-4.7218 -7.7263,-4.6029 -14.5515,3.332 -6.2195,7.2304 -8.1088,7.8685 -15.5736,5.259 -6.8535,-2.3956 -8.6614,-4.9727 -9.3542,-13.3339 -1.501,-18.1148 -2.2373,-18.6337 -16.1979,-11.4167 -16.4485,8.5037 -55.0971,9.3384 -70.0082,1.5119 -5.3206,-2.7925 -9.7893,-4.0385 -9.9303,-2.7686 -0.1408,1.27 -0.4761,6.8431 -0.7441,12.3846 -0.6881,14.2115 -8.1987,18.3263 -20.5562,11.2622 -5.9679,-3.4115 -9.9325,-4.2616 -10.5958,-2.2721 -3.973,11.9195 -19.263,20.0216 -28.1233,14.9022 z m 127.2816,-60.5791 c 15.6765,-6.5502 38.6727,-29.8383 47.7159,-48.3224 7.3297,-14.9814 7.9653,-18.8223 6.5441,-39.555 -2.0744,-30.2649 -12.2487,-51.6872 -36.0835,-75.9736 -20.2468,-20.6304 -43.9415,-34.2704 -59.5326,-34.2704 -8.7962,0 -12.7039,2.6655 -27.2733,18.6038 -21.7636,23.8081 -38.3444,57.3752 -38.47,77.8809 l -0.091,14.7556 10.0753,0.1899 c 18.1074,0.343 20.8903,17.9592 3.3897,21.4592 -4.9501,0.9902 -8.9874,3.307 -8.9723,5.1488 0.05,5.8176 17.1345,33.4476 26.4346,42.7477 20.0005,20.0006 52.3067,27.3437 76.2624,17.3344 z m -55.266,-22.0388 c -10.7197,-8.6805 -6.0361,-14.979 9.8103,-13.1929 9.4843,1.0689 16.9546,-0.2975 27.2388,-4.9827 11.1208,-5.066 15.0831,-5.698 18.4099,-2.9371 6.0921,5.0563 5.3315,8.108 -4.4615,17.9013 -11.7781,10.6645 -39.3766,12.2577 -50.9975,3.2114 z m 24.6614,-84.3167 c -2.0124,-2.0124 -3.6588,-6.4717 -3.6588,-9.9097 0,-14.1045 16.4207,-18.6759 19.7294,-5.4924 3.317,13.2157 -7.6991,23.7735 -16.0706,15.4021 z m -54.2607,-10.8265 c 0,-10.0926 7.5185,-17.4369 13.5736,-14.2448 4.005,2.1114 4.7664,4.9972 4.2933,12.5915 -0.3896,6.2535 -4.9423,11.3273 -9.8195,12.0201 -5.6457,0.802 -8.0474,-2.9721 -8.0474,-10.3668 z" fill="#00B894" transform="translate(-191.56812,-135.21595) matrix(0.2501557,0,0,0.2501557,-2058.8011,-611.84952)"/>
</svg>