<?xml version="1.0" ?><svg height="60.493385mm" viewBox="0 0 87.124092 60.493385" width="87.124092mm" xmlns="http://www.w3.org/2000/svg">
    <path color="#000" d="m 19391.504,4378.7978 a 96.068776,106.9914 0 0 0 -96.069,106.9919 96.068776,106.9914 0 0 0 96.069,106.9909 96.068776,106.9914 0 0 0 96.07,-106.9909 96.068776,106.9914 0 0 0 -96.07,-106.9919 z m 146.265,78.8994 c -0.907,0.01 -1.612,0.087 -2.055,0.2454 0,0 18.416,32.5744 28.897,18.9541 9.498,-12.3433 -18.074,-19.2644 -26.842,-19.1995 z m -257.77,30.5281 c -13.077,5.9947 -35.019,24.948 -26.302,32.882 8.718,7.9342 26.302,-32.882 26.302,-32.882 z m -6.709,52.8938 c 0,0 -13.617,21.6867 -5.241,23.2296 8.375,1.5426 18.023,-14.9869 5.241,-23.2296 z" fill="#FFFFFF" overflow="visible" paint-order="fill markers stroke" transform="translate(-256.55109,-99.021154) matrix(0.26458333,0,0,0.26458333,-4835.0818,-1057.9386)"/>
    <path d="m 19333.589,4581.2218 c -26.203,-15.2776 -37.381,-42.1794 -42.39,-63.4031 -2.899,-12.2814 -1.496,-20.7678 -3.501,-33.4942 -1.383,8.1571 -0.266,11.4564 -3.672,20.9564 -5.612,11.6471 -22.029,31.0717 -33.542,19.5347 -10.846,-10.4298 -6.775,-15.784 2.164,-24.2954 8.024,-7.5804 17.743,-16.0328 20.379,-17.7231 3.216,-2.3572 9.945,-7.5219 12.875,-3.1093 0.887,1.4189 2.55,1.5119 2.912,0.1629 1.87,-24.0004 10.677,-44.2045 22.221,-63.3451 17.028,-20.9919 43.264,-46.6857 80.692,-43.4699 40.366,2.1703 81.738,41.2893 89.045,55.361 6.001,9.6812 12.769,22.1614 12.92,33.8241 0,1.9119 1.318,2.6751 4.613,2.6779 1.37,0 4.742,0.1104 7.492,0.2431 12.233,2.1636 7.993,11.6252 0.392,12.0144 -4.148,0.1426 -8.173,0.8443 -12.21,1.7004 l -0.668,2.7062 c -0.45,9.1614 -2.861,19.3716 -3.025,27.864 -5.664,45.4752 -37.862,95.8742 -102.37,91.7316 -19.049,-1.2233 -37.28,-9.998 -54.327,-19.9366 z m 120.768,-27.3442 c 2.725,-3.172 3.142,-4.6532 1.135,-4.0378 -0.702,0.2156 -2.811,0.7674 -4.685,1.2265 -15.357,6.3699 -31.634,-4.7282 -44.026,-2.4567 -20.388,3.7372 -29.643,19.3129 -42.998,30.7596 -1.311,1.1393 -1.482,1.5678 -0.967,2.4099 0.345,0.5634 1.495,1.2477 2.556,1.5208 1.061,0.2732 4.046,1.1163 6.632,1.8737 28.6,3.5207 64.852,-11.2771 82.353,-31.296 z m -98.594,11.7505 c 15.085,-14.8282 31.843,-31.5235 50.603,-30.6248 14.26,0.2384 43.466,11.4819 53.016,-5.9792 1.383,-2.6753 1.783,-7.2605 0.909,-10.4031 -0.435,-1.5623 -1.043,-3.8629 -1.353,-5.1126 -31.291,-32.5225 -131.921,1.5895 -110.15,53.0129 1.642,3.2195 2.813,3.0696 6.975,-0.8932 z m -18.853,1.6299 c 0,-0.2754 -0.61,-2.1286 -1.356,-4.1186 -6.86,-20.5363 4.813,-36.6029 16.005,-50.924 30.65,-31.3307 106.684,-35.0347 118.062,-2.5803 1.174,1.5412 1.91,3.2332 2.609,5.0094 2.751,-13.3254 4.184,-16.9749 4.898,-34.6498 -0.166,-0.1675 -2.197,-0.023 -4.51,0.3209 -6.074,0.636 -15.263,-1.5143 -15.279,-7.9921 0,-4.0748 -1.463,-3.4688 15.522,-6.4307 4.861,-0.8478 5.235,-1.4092 4.347,-6.515 -2.03,-16.2822 -11.351,-31.1271 -20.298,-39.7946 -14.514,-15.4876 -36.527,-27.9695 -56.347,-32.3 -27.413,-3.4015 -56.414,11.1258 -73.463,35.6193 -19.479,30.5151 -26.636,47.9663 -21.434,93.805 3.486,17.397 11.419,36.1776 31.244,50.5505 z m -25.879,-63.2905 c -4.279,-12.5356 6.422,-19.0372 10.691,-27.9964 4.79,-8.5703 9.77,-15.4398 16.917,-10.6274 5.705,4.3166 3.694,21.7926 3.411,27.7145 -0.506,11.0668 -1.786,14.6686 -6.276,17.6629 -9.279,7.3741 -21.081,3.2812 -24.743,-6.7536 z m 15.611,-0.6577 c 3.058,-1.9299 4.24,-5.8225 4.882,-16.0747 0.325,-5.2072 0.26,-5.8629 -0.623,-6.2018 -3.715,3.0437 -10.733,8.5089 -12.372,13.1426 -1.464,4.6407 -1.242,6.4935 1.079,9.0213 2.27,2.471 3.273,2.487 7.034,0.1126 z m 14.384,-45.3295 c -5.428,-9.1839 -0.496,-12.8648 6.346,-16.9812 9.482,-4.8925 22.626,-3.5459 28.734,6.9534 1.899,6.036 -3.329,6.329 -7.952,4.4011 -1.406,-0.6751 -3.002,-1.4426 -3.544,-1.7057 -2.828,-1.3717 -9.841,0.5687 -12.648,3.4997 -2.266,1.9491 -7.099,9.0276 -10.936,3.8327 z m 89.954,-20.6699 c 4.095,-1.7805 4.803,-1.9089 10.406,-1.8856 3.99,0.016 6.775,0.3185 8.284,0.8982 10.39,2.7981 11.486,14.2401 0.284,9.0411 -3.691,-0.01 -6.734,-4.6557 -14.203,1.9673 -10.769,9.5515 -16.675,-4.6887 -4.771,-10.021 z m -163.291,71.0216 c 3.166,-4.8431 6.653,-11.092 6.698,-12.0074 -1.535,-1.9668 -4.163,1.0085 -4.906,1.8953 -4.898,6.2761 -15.694,12.5631 -14.168,18.1275 2.318,3.1742 11.91,-7.3239 12.376,-8.0154 z m -0.418,62.286 c -10.685,-3.6511 -10.591,-12.5555 -5.95,-21.4003 5.355,-9.8926 6.419,-11.4869 10.235,-15.3457 5.106,-6.0404 8.023,-4.2634 11.972,2.7164 3.618,6.9485 1.668,25.0086 -3.253,30.1545 -3.601,3.7646 -7.039,4.7888 -13.004,3.8751 z m 5.982,-16.5812 c 0.344,-1.6051 0.507,-3.0362 0.363,-3.1807 -0.419,-0.4187 -2.034,3.8369 -2.034,5.3597 0,2.2612 0.997,0.9607 1.671,-2.179 z m 283.496,-71.2868 c -14.104,-2.6196 -22.077,-14.6804 -25.757,-23.1219 -1.495,-9.04 10.769,-6.2526 16.331,-4.4048 4.445,1.5412 11.952,3.0483 15.463,5.6546 0.898,0.6902 2.756,2.0778 4.131,3.084 8.523,5.7105 9.005,16.0142 -1.965,18.0574 -5.096,0.879 -6.647,1.017 -8.203,0.7307 z m 1.213,-12.2202 c 5.781,-1.739 -4.769,-5.0791 -5.62,-5.3913 -5.553,-2.0357 -9.227,-2.92 -9.227,-2.2216 0,1.3255 2.007,3.7306 4.413,5.2895 4.798,3.1093 6.526,3.494 10.434,2.3234 z m -47.956,-34.8432 c -8.4,-2.5871 -16.335,-8.6652 -18.602,-14.2479 -0.665,-1.6401 -1.125,-3.5434 -1.021,-4.2292 1.667,-4.9286 11.421,-0.6673 19.161,0.061 9.924,0.9216 20.105,5.3845 27.87,10.6171 3.91,2.6447 5.141,3.8451 6.593,6.4312 8.056,19.9067 -27.288,3.4525 -34.001,1.3677 z" fill="#00B894" transform="translate(-256.55109,-99.021154) matrix(0.26458333,0,0,0.26458333,-4835.0818,-1057.9386)"/>
</svg>