<?xml version="1.0" ?><svg height="58.227364mm" viewBox="0 0 76.20826 58.227364" width="76.20826mm" xmlns="http://www.w3.org/2000/svg">
    <path color="#000" d="m 21174.365,4917.5568 a 103.27129,103.30205 0 0 1 -103.272,103.3019 103.27129,103.30205 0 0 1 -103.272,-103.3019 103.27129,103.30205 0 0 1 103.272,-103.302 103.27129,103.30205 0 0 1 103.272,103.302 z" fill="#FFFFFF" overflow="visible" paint-order="fill markers stroke" transform="translate(106.4628,-32.608267) matrix(0.26458333,0,0,0.26458333,-5642.9095,-1239.6378)"/>
    <path d="m 21038.566,5024.7443 c -1.494,-0.4254 -3.632,-1.0364 -4.752,-1.3582 -2.938,-0.846 -9.363,-3.6192 -11.265,-4.8638 -0.897,-0.5866 -2.337,-1.2892 -3.199,-1.5617 -27.487,-15.778 -48.717,-37.8971 -57.237,-65.5383 -1.109,-3.5468 -2.309,-9.0444 -2.671,-12.2175 -1.01,-8.8818 -1.024,-8.978 -1.612,-12.063 -0.636,-3.3301 -1.232,-3.9518 -2.417,-2.5228 -0.462,0.5556 -1.399,1.0106 -2.082,1.0106 -3.387,0 -9.485,3.9383 -12.103,7.8162 -2.921,4.3289 -1.934,5.57 2.621,3.298 4.458,-2.2253 9.669,1.1451 9.669,6.2534 0,2.3495 -2.435,7.0674 -3.647,7.0674 -0.378,0 -1.48,0.6248 -2.451,1.3887 -1.397,1.0983 -2.623,1.3592 -5.876,1.2502 -5.109,-0.1713 -7.324,-0.9132 -11.352,-3.8046 -12.388,-11.8703 0.475,-32.207 12.681,-40.7885 2.773,-1.6468 7.492,-3.1043 8.634,-2.666 0.518,0.1982 2.144,-0.2084 3.615,-0.9027 1.47,-0.6945 3.087,-1.2741 3.594,-1.2868 0.507,0 0.762,-0.4388 0.567,-0.9465 -0.196,-0.507 0.19,-3.1802 0.859,-5.9389 0.667,-2.7588 1.745,-7.3064 2.393,-10.1064 2.017,-7.63 4.296,-14.8468 9.402,-20.3795 36.19,-61.3822 108.309,-65.7607 146.565,-48.9038 15.852,6.4909 24.358,8.1994 44.614,30.3687 0,1.2676 1.872,1.1035 5.334,-0.4684 1.628,-0.7384 3.618,-1.3424 4.425,-1.3424 9.042,1.9988 9.221,11.5589 7.535,16.3247 -0.988,2.7807 -1.968,5.9619 -2.178,7.0694 -0.207,1.1075 -0.813,2.4448 -1.339,2.9722 -0.528,0.5275 -0.764,1.4536 -0.527,2.0591 0.238,0.605 0.565,2.4744 0.723,4.1541 0.415,4.3984 0.961,6.6806 2.406,10.0479 l 1.274,2.9753 3.561,-0.4668 c 6.651,-1.2792 13.343,-4.25 19.63,-4.4752 8.105,-0.6102 12.32,5.4868 6.559,10.4147 -1.218,1.0265 -2.743,1.8668 -3.388,1.8668 -4.453,1.7405 -15.66,7.938 -19.78,8.1444 -1.322,0 -2.518,1.4472 -2.492,3.0201 9.68,31.7729 -18.144,68.9466 -37.594,85.6999 -3.186,2.6059 -4.707,3.9814 -6.311,5.702 -32.849,22.8561 -65.479,33.9008 -102.388,23.698 z m 40.385,-15.7012 c 29.42,-2.6506 42.861,-16.3475 63.314,-35.6797 7.863,-9.366 19.377,-19.8047 22.483,-32.1307 0.197,-0.9291 0.695,-2.9101 1.106,-4.4033 0.41,-1.4934 1.001,-3.7842 1.316,-5.0906 0.313,-1.3066 0.846,-3.2923 1.184,-4.4124 0.863,-2.8649 0.372,-12.6986 -0.669,-13.3703 -0.896,-0.5794 -6.497,0 -7.624,0.7799 -6.569,2.7346 -22.891,-4.0299 -14.258,-12.0901 1.335,-1.1713 2.969,-2.1293 3.632,-2.1293 2.282,0 12.664,-2.8531 13.589,-3.7348 0.651,-0.6207 0.752,-1.3918 0.339,-2.5947 l -0.588,-1.7104 -3.87,2.2864 c -2.129,1.2572 -5.031,2.481 -6.448,2.719 -1.419,0.2374 -3.589,0.7425 -4.823,1.1207 -8.391,1.9204 -21.77,-2.0937 -27.619,-5.9105 -2.543,-1.6757 -5.769,-5.1199 -5.769,-6.1613 0,-1.0651 -1.83,-2.514 -2.272,-1.7984 -0.195,0.3155 -0.519,2.6329 -0.719,5.1495 -0.382,4.7876 -1.306,9.1193 -2.557,11.9895 -1.62,3.7144 -3.58,7.2173 -5.01,8.9532 -8.209,9.0009 -24.015,19.7134 -36.676,17.5636 -2.157,-0.3985 -5.068,-0.7251 -6.47,-0.7251 -3.056,0 -11.441,-3.1411 -15.131,-5.6695 -10.352,-6.5158 -11.679,-13.2825 -15.27,-23.0174 l -0.705,-1.8572 c -4.63,3.5858 -9.877,1.4734 -14.965,2.7154 -10.137,2.8806 -18.225,5.4167 -28.169,8.1825 -2.613,0.7273 -6.775,2.1487 -9.248,3.1593 l -4.496,1.8374 -0.168,4.1006 c 4.044,50.3858 37.795,79.4586 65.835,89.2936 4.228,1.4665 6.599,2.1026 12.557,3.3709 2.949,0.6278 12.709,0.372 28.169,-0.7388 z m -99.015,-114.647 c 2.38,-0.7528 6.162,-2.0932 8.402,-2.9784 2.24,-0.8857 6.821,-2.4453 10.181,-3.4661 3.36,-1.0219 8.4,-3.114 11.199,-4.6502 12.326,-5.5592 27.281,-10.3306 36.653,-12.8626 6.97,-1.8795 9.944,-2.4357 18.722,-3.5018 9.805,-1.191 9.562,-1.1564 18.948,-2.6915 8.773,-1.4341 16.287,-1.6721 17.409,-0.5514 0.468,0.4679 1.939,0.8476 3.272,0.8476 1.911,0 3.279,-0.7146 6.481,-3.3872 2.243,-1.8715 5.276,-3.7068 6.775,-4.1007 1.494,-0.3924 3.327,-0.9883 4.074,-1.3245 0.746,-0.3359 3.8,-0.9435 6.787,-1.3497 10.601,-1.4423 17.308,-3.38 17.308,-5.0007 0,-1.6176 -2.742,-4.5191 -4.292,-4.543 -38.207,-31.967 -107.768,-32.5871 -153.856,25.4311 0,0.4445 -0.897,1.6656 -1.991,2.7145 -1.307,1.6034 -12.74,22.0298 -10.653,22.7819 0.136,0 2.199,-0.6165 4.581,-1.3688 z" fill="#00B894" transform="translate(106.4628,-32.608267) matrix(0.26458333,0,0,0.26458333,-5642.9095,-1239.6378)"/>
</svg>