<?xml version="1.0" ?><svg height="58.211014mm" viewBox="0 0 62.997292 58.211014" width="62.997292mm" xmlns="http://www.w3.org/2000/svg">
    <path d="m 7819.0703,5038.792 a 102.94581,102.16181 0 0 1 -102.9458,102.1618 102.94581,102.16181 0 0 1 -102.9458,-102.1618 102.94581,102.16181 0 0 1 102.9458,-102.1618 102.94581,102.16181 0 0 1 102.9458,102.1618 z" fill="#FFFFFF" transform="translate(86.683176,-375.32906) matrix(0.25376817,0.02943532,-0.02943533,0.25376811,-1868.0318,-1100.5755)"/>
    <path d="m 7615.7195,5076.3137 c -31.0665,-71.2889 -4.2993,-122.5524 50.5388,-146.6546 28.061,-12.3332 77.7898,-4.3219 96.2762,5.8239 33.0169,18.1203 55.9003,67.5388 60.044,80.2606 38.009,-2.6342 34.2904,17.8547 7.3656,22.2697 -2.0161,31.4547 -9.3052,48.0833 -19.0856,61.5447 -10.9536,15.0762 -23.5356,30.177 -43.8078,39.4671 -61.8218,23.7553 -117.886,10.0112 -151.3312,-62.7114 z m 137.3162,46.3154 c 25.2053,-9.2813 50.1786,-39.0484 48.8284,-53.5804 0,0 -17.314,-1.0885 -23.0255,4.9747 -1.7193,1.8251 -11.1632,5.2655 -20.4314,2.6576 -12.4178,-3.4941 -19.7811,1.806 -22.5282,4.0857 -3.8477,3.1942 -8.9258,3.4315 -12.5821,-0.2248 -3.9079,-3.9074 -3.8993,-5.4767 0.086,-15.0103 5.4813,-13.1184 13.656,-20.1331 30.1536,-25.8736 22.9843,-5.3352 40.0673,-7.9602 54.0404,4.5421 1.3127,-1.7723 1.338,-5.7393 0.167,-6.309 -12.6121,-1.849 -14.5053,-16.408 0.453,-18.4368 0,-6.5302 -14.065,-29.6022 -23.6616,-44.1416 -20.4073,-30.9185 -89.858,-41.3526 -122.3087,-19.0259 -25.9642,17.9976 -40.3639,43.5904 -40.3358,71.694 0.044,35.5818 27.3291,83.5108 62.3449,96.3623 17.0156,6.2448 49.3768,5.4387 68.8,-1.714 z m -21.08,-105.4225 c -2.8941,-2.4607 -7.4222,-5.5896 -6.24,-13.9657 0.9653,-6.8391 6.9965,-7.747 11.7865,-6.7108 5.2585,1.1375 8.1712,11.0689 6.0068,16.7076 -1.8766,4.8926 -7.8269,7.1373 -11.5533,3.9689 z m 33.2766,-7.8639 c -3.8088,-6.1856 -2.4562,-12.4008 -1.2061,-14.9018 1.2502,-2.5011 4.955,-4.005 8.3588,-2.7108 3.0202,1.1484 5.7184,7.51 5.7184,11.9852 0,8.1701 -8.8709,12.1239 -12.8711,5.6274 z" fill="#00B894" transform="translate(86.683176,-375.32906) matrix(0.25376817,0.02943532,-0.02943533,0.25376811,-1868.0318,-1100.5755)"/>
</svg>