<?xml version="1.0" ?><svg height="83.467384mm" viewBox="0 0 91.336533 83.467384" width="91.336533mm" xmlns="http://www.w3.org/2000/svg">
    <path color="#000" d="m 20740.769,3819.0274 a 100.44378,101.13207 0 0 1 -100.444,101.1321 100.44378,101.13207 0 0 1 -100.444,-101.1321 100.44378,101.13207 0 0 1 100.444,-101.1322 100.44378,101.13207 0 0 1 100.444,101.1322 z" fill="#FFFFFF" overflow="visible" paint-order="fill markers stroke" transform="translate(-51.228527,-0.741605) matrix(0.26458333,0,0,0.26458333,-5348.6257,-954.78514)"/>
    <path d="m 20630.396,3611.4431 c -1.606,0.025 -3.031,0.2312 -3.589,0.6316 -0.47,0.3405 -1.669,1.0924 -2.663,1.6734 -3.057,1.7889 -2.367,9.03 1.09,11.4583 1.276,3.4049 -2.733,5.8885 -5.627,8.5542 -3.489,2.6034 -3.191,9.3889 -0.232,13.4812 3.977,5.6613 -1.489,7.7083 -4.724,8.8596 -4.388,1.5813 -8.006,1.7588 -3.514,-1.209 1.774,-0.8758 3.459,-2.0824 3.745,-2.6811 2.02,-4.2362 0.09,-9.5853 -3.772,-10.3941 -9.76,-4.7921 -19.997,-6.976 -26.115,-14.6096 -5.041,-4.5433 -11.061,-1.2985 -15.437,2.0604 -3.387,3.228 -5.207,0.7934 -8.343,-1.1108 -4.674,-2.8362 -4.752,-2.9302 -4.218,-5.1276 0.913,-3.7756 -0.722,-6.0024 -5.051,-6.8792 -14.846,-3.007 -17.094,-3.2326 -21.393,-2.1477 -0.223,0.056 -0.443,0.1132 -0.656,0.1797 v 0 c -6.664,1.9849 -9.602,7.6825 -5.002,12.4228 4.853,4.9998 11.807,5.5823 18.07,6.7235 1.449,0.088 2.414,1.642 1.622,2.612 -0.65,0.7966 -7.088,2.8444 -11.418,0.447 -12.989,-7.1932 -20.849,-2.7461 -28.152,-0.838 -9.466,2.9404 -8.964,17.7119 -13.35,21.3706 -4.87,3.4977 -5.555,4.4416 -5.358,7.3883 1.316,4.3686 0.507,5.4281 -1.856,1.5893 -0.814,-2.4225 -4.344,-4.2191 -7.462,-3.7968 -3.527,0.4774 -6.587,2.5791 -8.39,6.3607 -2.476,6.0817 3.469,11.6797 5.547,13.3481 -0.238,-0.1642 -0.536,-0.3646 -0.918,-0.6142 -2.022,-1.2431 -5.744,-2.949 -8.269,-3.7895 -4.407,-1.4667 -4.736,-1.4548 -8.165,0.2996 -1.964,1.0054 -4.375,2.335 -5.357,2.9558 -2.488,1.5728 -5.208,1.5398 -7.969,-0.1 -13.847,-4.4416 -14.909,9.4857 -0.755,16.2963 4.831,2.8998 13.306,2.2009 21.338,-1.7591 2.572,-1.2677 3.097,-1.21 7.112,0.7656 6.622,2.6751 3.829,6.846 -0.798,5.4378 -5.613,-1.0394 -13.113,-1.6222 -15.85,2.2251 -5.095,7.1583 -4.088,2.074 -5.275,1.1741 -7.034,-4.7073 -15.124,2.7311 -12.943,9.9421 3.14,8.1379 10.815,10.8676 16.212,9.6103 4.724,-1.6217 17.814,3.5592 8.394,3.8103 -5.153,-0.2075 -10.52,1.5748 -11.607,3.8544 -2.166,3.364 -5.108,3.7398 -7.866,3.0955 -9.501,-3.3729 -14.663,5.7572 -9.537,12.526 1.241,1.5723 2.323,3.0557 2.404,3.2976 0.395,1.1769 -5.438,3.1229 -8.939,2.9806 -5.678,0.5193 -13.156,2.099 -15.357,7.0466 -6.115,27.1024 14.524,21.6934 28.242,24.2047 1.86,0.9321 1.87,0.9602 0.881,2.4922 -0.552,0.8535 -2.147,1.8414 -3.543,2.196 -8.075,4.888 -12.57,6.0752 -11.216,15.0198 1.768,8.2024 6.816,11.7478 16.432,11.5432 6.839,-3.4815 11.373,12.3417 11.666,20.4734 0.196,5.4365 -14.117,0.1981 -17.838,3.4825 -11.352,5.8479 3.128,16.1265 4.107,27.0857 9.061,5.7724 25.92,14.9767 30.631,3.6597 1.006,-3.8989 2.692,-2.8329 6.286,-2.4906 4.845,0.4609 5.199,0.388 7.834,-1.6269 3.386,-2.5879 5.057,-4.3393 5.582,-5.8498 0.494,-1.4199 3.71,-1.307 4.882,0.1723 5.265,2.0022 5.624,-0.3167 15.409,7.7903 3.293,0.8575 10.962,-3.6963 10.209,-2.6054 -0.474,0.6877 -8.98,6.1731 -9.985,6.2767 -2.05,0.212 -6.916,5.3815 -7.269,7.7221 -0.121,0.7954 0.356,3.4386 1.057,5.8724 1.326,9.2877 0.179,18.7167 17.208,22.3598 0.346,-0.1078 1.794,0.4391 3.216,1.215 10.455,3.1577 16.785,-0.4597 17.185,-10.3607 -0.289,-0.8602 -0.149,-2.5288 0.282,-3.6988 0.649,-2.7423 1.526,-1.9715 4.001,-1.4488 5.168,1.0909 12.521,-2.1595 15.097,-6.3716 25.881,26.5409 65.549,43.8307 102.605,37.6869 0.937,-0.3776 3.877,-0.903 6.533,-1.1668 11.485,-1.1835 28.645,-10.9738 39.273,-18.1676 4.305,-2.9312 8.29,-6.2451 12.421,-10.3293 15.435,-15.6614 29.4,-41.8357 28.451,-66.2234 -0.06,-12.848 -1.43,-25.8263 -6.129,-39.6157 -2.347,-8.0939 -8.03,-14.9315 -9.825,-23.2029 0,-0.1917 1.086,-0.9021 2.415,-1.5786 3.668,-1.9112 6.396,-4.7813 9.582,-7.3144 5.448,-4.6302 3.874,-13.7323 -1.102,-14.9673 -0.876,-3.7429 -4.344,-7.1605 -9.114,-8.4203 -3.225,1.002 -6.405,0.9452 -6.762,-0.1197 -0.227,-0.676 0.151,-1.0761 1.014,-1.0761 4.295,0.01 5.55,-0.4114 8.367,-2.7542 4.431,-3.7655 4.108,-9.6785 0.03,-13.1601 -2.455,-0.9795 -0.05,-1.1283 4.148,-0.2571 15.286,-0.01 13.849,-9.115 6.47,-16.8404 -6.021,-6.5425 -13.943,-10.777 -20.298,-14.0081 -1.743,-0.8915 -7.158,-0.2674 -9.225,1.0634 -1.604,3.025 -2.624,4.2608 -5.556,4.4711 -1.396,-0.2939 -1.387,-0.6645 0.107,-4.1573 1.093,-2.5526 1.41,-4.592 0.95,-6.0944 -1.699,-2.8818 -3.263,-3.2524 -1.07,-5.4512 1.078,-0.3348 3.085,-1.4737 4.466,-2.5172 4.503,-3.4029 3.935,-10.2173 -1.076,-12.8838 -9.681,-9.88 -22.643,-12.2709 -30.495,-12.8605 -6.969,-0.4858 -18.631,6.2922 -21.234,8.7365 -2.982,6.8185 0.132,11.5553 6.766,13.6127 2.286,-0.1989 2.067,1.2721 -0.471,3.148 -3.504,2.5898 -4.276,4.4309 -3.536,8.4319 1.233,4.7313 3.692,4.9026 7.017,7.8062 0.369,1.0982 -1.189,1.6707 -2.54,0.9344 -10.276,-0.4525 -14.767,8.3843 -9.324,-3.0564 3.006,-6.4681 -0.573,-8.9528 -2.947,-13.7293 0.357,-0.1106 1.013,-1.4871 1.459,-3.0597 1.017,-3.5881 0.125,-9.087 -1.619,-9.963 -0.684,-0.3439 -1.56,-1.5669 -1.947,-2.7177 -0.609,-1.8106 -0.342,-2.3443 1.971,-3.9592 13.185,-4.4914 7.058,-14.2712 3.935,-20.2413 -1.323,-2.4738 -2.56,-3.5802 -5.551,-4.9712 -3.829,-1.7807 -3.842,-1.7979 -2.692,-3.3908 2.202,-3.0546 2.165,-10.3671 -0.05,-9.6793 -0.305,0.095 -0.919,-0.4056 -1.367,-1.1109 -6.323,-3.5481 -11.848,-1.7301 -18.383,-2.597 -1.201,-0.5465 -3.565,-0.8163 -5.63,-0.7847 z m -55.982,30.8451 c 0.369,-0.01 0.743,0.061 1.124,0.2139 3.464,1.1799 7.108,1.867 10.481,2.8875 4.052,1.7299 1.489,2.6896 -0.981,4.0748 -4.075,1.2962 -5.76,7.2043 -3.329,11.678 -1.555,7.3768 -5.033,4.5535 -8.673,1.1093 -0.861,-0.3212 -7.143,-5.9274 -9.512,-8.4894 -1.139,-1.2306 -2.076,-2.9949 -2.176,-4.0907 -0.162,-1.7995 0.121,-2.0071 4.255,-3.1195 3.251,-0.681 5.499,-3.3055 7.707,-4.0601 0.367,-0.1257 0.733,-0.1995 1.104,-0.2038 z m -95.269,41.4963 c 0.459,0.03 1.336,0.3716 2.53,0.9994 2.841,1.4929 3.95,1.5807 8.685,0.6889 2.986,-0.5623 5.558,-1.1783 5.714,-1.3688 0.155,-0.191 0.728,0.7219 1.27,2.0279 0.538,1.3071 1.892,3.4562 3.003,4.7788 1.944,2.3184 1.968,2.4446 0.664,3.4917 -1.867,1.4987 -4.302,0.952 -7.772,-1.7442 -1.616,-1.2542 -3.84,-2.3498 -4.947,-2.4357 -1.106,-0.085 -2.105,-0.4325 -2.218,-0.7704 -0.113,-0.338 -1.709,-1.4286 -3.545,-2.4241 -1.836,-0.9955 -3.512,-2.2924 -3.724,-2.8824 -0.07,-0.2055 0,-0.3231 0.166,-0.3544 0,0 0,0 0,0 0.05,-0.01 0.107,-0.01 0.173,-0.01 z m 169.966,43.3436 c 12.077,-0.057 23.285,2.5599 32.314,8.4751 1.438,0.9413 3.003,1.9629 3.549,2.1695 8.195,3.5533 17.795,14.2119 23.71,21.5135 2.196,2.4037 2.163,3.6435 -0.133,5.0061 -5.185,3.0764 -7.675,5.1608 -7.979,6.6803 -1.481,8.1226 8.25,10.3342 15.345,7.3768 1.63,-0.8449 3.226,-1.5361 3.547,-1.5361 4.784,9.0514 9.06,17.0759 11.363,30.1068 -0.217,0 -1.009,-0.4823 -1.76,-1.0723 -34.132,-19.2453 -94.958,5.8791 -117.821,33.9303 -4.915,5.5628 -7.338,9.1648 -9.979,14.8385 -1.627,3.4968 -1.71,4.0382 -1.74,11.3618 0.02,13.1653 5.974,23.7339 17.625,31.8754 6.01,3.2125 9.536,5.734 16.97,7.4016 6.066,1.8927 15.874,2.2151 22.308,0.7332 11.098,-2.5535 15.366,-11.8678 19.578,-23.7996 0.186,-2.9648 1.14,-5.8347 3.167,-9.5154 7.345,-13.3851 14.315,-18.0249 30.358,-13.7673 4.586,0.7768 9.15,1.4157 10.14,1.4213 0.991,0.01 2.162,0.2366 2.603,0.5158 6.825,5.8391 -30.631,38.5766 -35.17,38.9842 -20.427,15.4636 -45.727,12.4652 -69.871,4.7854 -19.028,-5.7415 -35.832,-16.2062 -48.363,-31.0629 l 1.711,-3.5051 c -2.657,-1.8456 -4.902,-3.8926 -5.925,-6.3341 -1.808,-4.7112 1.066,-5.8558 3.194,-9.5135 2.063,-8.9361 -10.663,-7.7765 -7.038,-17.4814 -0.03,-4.9786 -2.596,-7.1696 -5.628,-9.9114 -2.71,-2.619 -3.01,-2.1039 3.421,-5.8789 6.192,-3.6343 7.021,-7.7093 2.808,-13.7941 -2.624,-4.9267 -11.605,-13.9323 -5.295,-15.9176 5.731,-2.8497 10.997,-9.5083 9.435,-14.6636 -1.022,-3.1318 -1.989,-5.9563 -2.747,-8.6576 20.589,-23.8055 56.152,-40.6218 86.303,-40.7647 z m 6.727,24.1566 c -1.653,-0.057 -2.158,0.2174 -3.117,1.1175 -1.392,1.3083 -1.924,4.1391 -0.898,4.7739 0.278,0.1715 0.68,1.011 0.896,1.8647 0.213,0.8537 1.791,4.8326 2.976,5.9346 6.616,6.2395 14.42,-0.938 7.935,-11.3225 -1.632,-1.6093 -2.394,-1.9055 -5.693,-2.2136 -0.868,-0.081 -1.547,-0.1362 -2.099,-0.1546 z m -63.576,26.7551 c -3.428,-0.086 -8.206,3.7883 -5.804,9.1833 1.74,3.3153 4.403,5.824 7.201,6.7843 1.613,0.5459 2.983,-0.1048 5.099,-0.8089 1.595,-0.531 2.641,-2.6457 2.238,-5.3081 -0.469,-3.0856 -3.917,-7.4097 -7.022,-9.3797 -0.489,-0.3029 -1.078,-0.4549 -1.712,-0.4709 z m 103.854,33.5678 c 11.377,-0.029 23.419,1.8001 35.85,5.919 2.866,7.1127 1.966,30.6178 -10.775,29.1509 -5.065,-0.08 -11.607,-2.4677 -16.76,-2.8392 -13.029,-4.5878 -25.971,0.8615 -34.154,10.5154 -11.003,11.4591 -5.452,33.4805 -23.803,38.5556 -4.111,0.3166 -11.533,-0.7989 -14.754,-2.2176 -0.937,-0.4129 -2.583,-1.0759 -3.657,-1.4737 -13.497,-5.4736 -19.742,-20.1805 -12.744,-32.9345 13.534,-24.6678 43.629,-44.5825 80.797,-44.6759 z" fill="#00B894" transform="translate(-51.228527,-0.741605) matrix(0.26458333,0,0,0.26458333,-5348.6257,-954.78514)"/>
</svg>