<?xml version="1.0" ?><svg height="57.355606mm" viewBox="0 0 58.426495 57.355606" width="58.426495mm" xmlns="http://www.w3.org/2000/svg">
    <path color="#000" d="m 19094.721,4070.3438 a 100.44378,101.13207 0 0 1 -100.444,101.1322 100.44378,101.13207 0 0 1 -100.444,-101.1322 100.44378,101.13207 0 0 1 100.444,-101.132 100.44378,101.13207 0 0 1 100.444,101.132 z" fill="#FFFFFF" overflow="visible" paint-order="fill markers stroke" transform="translate(-47.109562,-136.57765) matrix(0.26458333,0,0,0.26458333,-4948.9688,-911.55524)"/>
    <path d="m 18888.557,4096.8653 c -6.462,-22.7329 -10.801,-54.2811 5.946,-75.2681 0.545,-0.625 1.653,-2.1588 2.461,-3.4084 28.427,-42.1768 89.479,-73.4586 137.846,-46.9701 0.468,0.2742 4.618,2.387 9.221,4.695 12.19,5.776 21.107,14.7769 29.455,23.9551 3.795,4.1554 5.256,5.0364 6.514,3.9255 4.368,-1.7078 7.242,-4.2481 11.255,-6.3861 9.912,-9.6617 15.985,5.5135 8.382,11.9756 -3.188,2.5329 -5.915,5.4026 -9.583,7.314 -1.328,0.6765 -2.415,1.3869 -2.415,1.5786 1.796,8.2713 7.48,15.1091 9.827,23.2029 4.698,13.7895 6.067,26.7676 6.129,39.6156 0.948,24.3879 -13.016,50.5619 -28.453,66.2236 -4.13,4.084 -8.116,7.3983 -12.42,10.3295 -10.628,7.1938 -27.789,16.9843 -39.274,18.168 -2.655,0.2636 -5.596,0.7884 -6.532,1.166 -54.607,9.0536 -114.897,-32.7718 -128.359,-80.1167 z m 152.501,54.2788 c 4.54,-0.4075 41.995,-33.1448 35.17,-38.9838 -0.441,-0.2794 -1.613,-0.5119 -2.603,-0.5166 -0.99,-0.01 -5.553,-0.6444 -10.14,-1.4213 -16.043,-4.2577 -23.012,0.3828 -30.359,13.768 -2.026,3.6807 -2.981,6.5501 -3.166,9.5151 -4.212,11.9318 -8.479,21.2462 -19.577,23.7997 -6.434,1.4821 -16.243,1.1598 -22.309,-0.7329 -7.433,-1.6678 -10.96,-4.1894 -16.97,-7.402 -11.651,-8.1415 -17.607,-18.7103 -17.625,-31.8755 0.03,-7.3238 0.112,-7.8645 1.74,-11.3614 2.641,-5.6737 5.064,-9.2764 9.98,-14.839 22.862,-28.0514 83.689,-53.1756 117.821,-33.9304 0.75,0.5902 1.542,1.0732 1.759,1.0732 -2.303,-13.0313 -6.579,-21.0557 -11.363,-30.1073 -0.321,0 -1.918,0.6912 -3.547,1.5362 -7.095,2.9574 -16.826,0.7456 -15.344,-7.3769 0.304,-1.5197 2.793,-3.6041 7.978,-6.6806 2.295,-1.3625 2.328,-2.6024 0.134,-5.006 -5.916,-7.3018 -15.517,-17.9602 -23.711,-21.5136 -0.545,-0.2064 -2.112,-1.2278 -3.549,-2.1688 -44.451,-29.1212 -141.712,21.6749 -135.441,78.1337 3.039,47.9992 32.552,79.1978 71.251,90.8753 24.144,7.6798 49.444,10.6785 69.871,-4.7851 z m -93.446,-105.8201 c -2.798,-0.9604 -5.462,-3.4691 -7.202,-6.7844 -2.846,-6.3941 4.391,-10.6519 7.515,-8.7125 3.106,1.97 6.555,6.2942 7.023,9.38 0.403,2.6624 -0.643,4.7773 -2.237,5.3082 -2.116,0.7042 -3.486,1.3545 -5.099,0.8087 z m 62.035,-29.0321 c -1.185,-1.1019 -2.763,-5.0812 -2.978,-5.9348 -0.214,-0.8537 -0.616,-1.6925 -0.895,-1.8642 -1.026,-0.6348 -0.493,-3.466 0.9,-4.7744 1.277,-1.1999 1.748,-1.2867 5.213,-0.963 3.301,0.308 4.063,0.6046 5.695,2.2139 6.485,10.3848 -1.318,17.5618 -7.935,11.3225 z m 14.582,89.3784 c 8.182,-9.6541 21.125,-15.1031 34.155,-10.5155 5.152,0.3718 11.695,2.7594 16.758,2.8395 12.743,1.467 13.642,-22.0383 10.776,-29.151 -53.042,-17.5734 -98.97,6.5379 -116.649,38.7568 -6.997,12.7541 -0.751,27.461 12.745,32.9347 1.075,0.3977 2.721,1.0609 3.657,1.4738 3.223,1.4186 10.644,2.5343 14.754,2.2175 18.352,-5.075 12.8,-27.0968 23.804,-38.5558 z" fill="#00B894" transform="translate(-47.109562,-136.57765) matrix(0.26458333,0,0,0.26458333,-4948.9688,-911.55524)"/>
</svg>