<?xml version="1.0" ?><svg height="62.43906mm" viewBox="0 0 64.055054 62.43906" width="64.055054mm" xmlns="http://www.w3.org/2000/svg">
    <path d="m 7541.8478,5434.4644 a 111.63393,112.5584 0 0 1 -111.6339,112.5584 111.63393,112.5584 0 0 1 -111.634,-112.5584 111.63393,112.5584 0 0 1 111.634,-112.5584 111.63393,112.5584 0 0 1 111.6339,112.5584 z" fill="#FFFFFF" transform="translate(106.86683,-78.393563) matrix(0.21717155,-0.04474417,0.04474417,0.21717155,-1931.5677,-735.98339)"/>
    <path d="m 7394.1298,5560.6842 c -20.6693,-5.9552 -40.4739,-19.2073 -54.7609,-36.6426 -18.0869,-20.9845 -23.9557,-49.4802 -36.5316,-69.844 -18.0043,-34.3197 -14.4352,-76.3788 2.5127,-101.8537 20.0183,-30.0057 36.1745,-55.1196 60.1336,-54.8654 46.5968,-29.8727 121.3126,-11.7563 155.6926,21.2467 19.8349,19.297 37.2328,33.7105 24.2183,61.0319 -1.6111,20.2975 3.3226,36.8488 4.1935,58.0026 0.6482,19.1544 -1.0991,21.5836 -1.0991,21.5836 37.279,11.3874 16.9198,27.6157 -4.8146,24.8046 0,0 -0.7762,4.8375 -7.1521,15.2763 -13.6404,22.3324 -40.9613,46.8117 -62.9924,55.0552 -24.5335,9.1785 -59.5752,11.9168 -79.4,6.2048 z m 48.5773,-26.972 c 31.8102,-8.497 51.5119,-22.1893 66.9523,-46.5291 5.6786,-8.9515 3.6408,-10.5519 3.6408,-10.5519 -19.3968,-9.4254 -11.8424,-25.7657 7.1193,-19.5281 0,0 9.1786,-22.1465 -0.6654,-74.2144 -2.2045,-11.66 -34.7817,-32.1261 -85.8415,-32.2016 -35.1872,-0.053 -50.4677,-1.8074 -57.7619,12.4902 -5.867,11.5019 -40.2348,54.9833 -48.5895,64.6869 -2.1197,2.462 -0.3331,12.6126 2.9153,28.7109 4.2487,21.0554 25.6066,58.9522 48.3034,70.6901 22.6969,11.7372 38.2527,13.3056 63.9272,6.447 z m -44.0068,-19.4648 c -19.4832,-9.4348 -17.0333,-32.9347 3.4348,-32.9347 11.1613,0 28.8479,12.3605 28.8479,20.1616 0,14.6979 -15.5785,20.8614 -32.2827,12.7731 z m 32.3093,-80.7023 c -5.8108,-5.3149 -5.9881,-8.5377 -5.3347,-15.3781 2.7863,-17.6092 26.9888,-9.8977 27.0337,1.7362 0,6.203 -1.0269,10.5964 -3.238,12.8075 -4.7263,4.7264 -10.7026,7.9307 -18.461,0.8344 z m 40.4648,-1.9441 c -4.1685,-7.7887 -0.9873,-19.0322 5.5505,-22.167 14.3837,-6.8969 20.3187,6.956 20.3187,14.6119 0,12.9158 -19.9644,18.5868 -25.8692,7.5551 z m -16.9732,-37.8713 c 0,-3.7221 3.4202,-8.6605 5.9903,-9.7501 2.8333,-1.2012 8.0704,2.4355 7.9588,9.373 -0.06,3.722 -2.8034,8.0388 -5.5863,8.2594 -7.2466,0.5744 -8.3628,-4.1598 -8.3628,-7.8823 z" fill="#00B894" transform="translate(106.86683,-78.393563) matrix(0.21717155,-0.04474417,0.04474417,0.21717155,-1931.5677,-735.98339)"/>
</svg>