<?xml version="1.0" ?><svg height="79.276512mm" viewBox="0 0 72.728592 79.276512" width="72.728592mm" xmlns="http://www.w3.org/2000/svg">
    <path d="m 13660.635,4690.9062 c -14.281,-0.1848 -28.61,1.8772 -40.063,7.3516 -15.082,6.7467 -3.993,6.6084 4.563,7.8399 0,0 31.52,11.3831 48.318,24.0117 16.797,12.6285 58.617,11.9453 58.617,11.9453 0,0 7.88,28.4913 4.147,42.1152 -3.733,13.6239 -21.014,53.8731 -21.014,53.8731 0,0 5.114,78.7582 8.363,96.4258 3.249,17.6676 16.454,33.8409 30.901,32.4101 14.447,-1.4308 26.819,-13.4369 30.967,-34.6504 4.147,-21.2135 1.519,-83.2364 -1.038,-115.8965 -2.558,-32.6601 -38.708,-55.8632 -38.708,-55.8632 0,0 -14.103,-38.8195 -24.126,-52.0079 -6.577,-8.6549 -33.664,-17.2017 -60.927,-17.5547 z m -43.758,17.0821 c -0.981,0.01 -1.961,0.081 -2.941,0.2246 -15.691,2.3018 -15.76,8.5215 -15.76,8.5215 -18.525,15.4902 -35.876,76.5172 -20.807,105.7558 15.069,29.2385 22.81,53.5016 53.916,54.6836 31.106,1.182 48.734,-5.0384 62.49,-17.0449 13.755,-12.0065 29.17,-41.3698 36.913,-64.9473 7.742,-23.5774 -0.155,-48.416 -0.155,-48.416 0,0 -21.068,5.8011 -53.418,-9.6269 -30.329,-14.4638 -45.527,-29.2546 -60.238,-29.1504 z" fill="#FFFFFF" transform="translate(-49.05828,-73.754604) matrix(0.27626844,0,0,0.27626844,-2774.2416,-546.94508) translate(-3313.5291,-2437.8203)"/>
    <path d="m 10407.688,2509.0178 c -8.912,-12.7963 -6.608,-43.8221 -8.227,-62.8996 0,-12.6303 -0.442,-22.9643 -0.981,-22.9643 -0.54,0 -5.08,3.5937 -10.09,7.9859 -24.088,21.9748 -62.301,25.3864 -87.768,12.3209 -21.471,-10.0404 -30.314,-28.6801 -43.245,-45.0376 -17.676,3.2955 -17.709,-12.1071 -4.074,-18.122 -6.161,-16.8984 -6.736,-47.7044 -4.88,-62.0643 -3.048,-0.026 -9.731,17.1493 -11.511,29.5813 -2.53,17.6803 -4.687,20.0033 -12.131,13.0677 -5.187,-4.8323 -6.003,-7.7946 -5.001,-18.1651 0.658,-6.8152 3.286,-16.7859 5.839,-22.1569 11.029,-23.2031 62.848,-63.4082 89.089,-69.1223 35.439,-7.717 76.355,-5.7453 89.994,4.3369 11.27,8.3307 27.019,30.6859 30.482,43.2696 1.781,6.4723 5.066,12.4074 7.3,13.1892 7.251,2.5377 13.478,9.3854 13.478,14.82 0,2.9207 4.157,9.912 9.238,15.5359 5.081,5.6238 10.696,14.8512 12.478,20.5054 1.899,6.0237 3.757,34.0543 4.487,67.701 1.066,49.1463 0.6,59.1121 -3.236,69.1567 -4.156,10.882 -18.173,25.009 -25.937,28.6712 -25.626,12.0871 -30.886,1.2881 -45.304,-19.6096 z m 27.243,7.7228 c -1.931,-1.9308 -3.184,-2.0896 -3.184,-0.4035 0,3.5912 3.182,6.7731 4.978,4.9773 0.765,-0.7644 -0.04,-2.8227 -1.794,-4.5738 z m 20.839,-0.6629 c 14.219,-11.2934 8.899,-61.7719 8.454,-78.2494 -1.625,-58.8173 -2.515,-68.5952 -7.078,-77.7839 -6.365,-12.816 -13.042,-17.5872 -17.865,-12.7644 -2.7,2.6998 -2.704,4.306 -0.02,8.0111 9.145,12.6256 11.803,24.1659 13.295,57.7229 1.549,34.8127 -2.869,92.8218 -7.789,102.2916 -3.053,5.8754 0.634,6.1342 11.003,0.7721 z m -22.332,-19.003 c -0.751,-1.9585 0.343,-18.1926 2.432,-36.0754 4.932,-42.2294 5.902,-90.7798 1.893,-94.7894 -4.735,-4.7348 -5.56,3.9281 -7.026,73.8142 -0.892,42.5089 -0.435,63.3944 1.363,62.2834 1.488,-0.9195 2.09,-3.2742 1.338,-5.2328 z m -13.701,-60.468 1.755,-41.7038 -7.08,8.0717 c -6.877,7.8399 -7.035,8.8061 -5.491,33.6321 3.695,59.3753 8.319,59.3753 10.816,0 z m -58.606,-13.7834 c 40.391,-24.9953 51.809,-57.0915 53.889,-90.6498 l 1.197,-20.6779 h -19.952 c -17.678,0 -22.31,-1.165 -40.627,-10.2178 -11.371,-5.6195 -26.223,-14.4527 -33.004,-19.6293 -14.02,-10.7017 -17.632,-10.4317 -30.729,2.2972 -14.309,13.9071 -22.325,34.7147 -22.532,58.4913 -0.1,11.0985 0.684,23.432 1.736,27.4078 1.71,6.4631 2.872,7.0726 10.979,5.7571 15.512,-4.2399 12.73,10.9517 4.12,13.9988 -19.062,6.05 18.096,41.2119 45.043,41.2894 8.964,0.026 23.735,-4.3203 29.88,-8.0668 z m -30.952,-6.8325 c -6.498,-2.6218 -3.267,-8.7541 5.953,-11.2999 5.125,-1.415 15.191,-7.5257 22.371,-13.5792 13.591,-11.4604 21.241,-13.7471 23.788,-7.1103 4.314,11.2428 -22.194,33.9371 -39.198,33.559 -5.253,-0.1171 -11.065,-0.8232 -12.914,-1.5696 z m -37.211,-79.8712 c -0.849,-2.2133 -1.228,-9.1708 0.468,-12.3415 2.522,-4.7122 5.575,-4.4379 8.827,-1.7394 2.187,1.816 2.927,7.6444 2.485,10.7183 -0.954,6.6465 -9.575,9.1073 -11.78,3.3626 z m 35.592,-9.1826 c 0.988,-7.6945 5.226,-10.276 11.047,-6.2532 5.527,3.8202 3.9,17.2789 -2.711,18.552 -2.594,0.4996 -5.552,-1.665 -6.88,-3.7808 -2.162,-3.4428 -1.782,-5.9709 -1.456,-8.518 z m 77.391,-29.1762 c 6.563,-2.5184 2.214,-6.4444 -7.139,-6.4444 -12.859,0 -49.613,-10.691 -59.314,-17.2533 -14.027,-9.4878 -14.924,-9.8662 -16.674,-7.0342 -2.398,3.881 47.576,25.638 68.565,29.8503 5.179,1.0394 9.621,2.0292 9.869,2.1993 0.249,0.1695 2.361,-0.4227 4.693,-1.3177 z m -6.49,-19.4804 c 0,-4.2974 -9.433,-10.6486 -20.18,-13.5873 -12.938,-3.538 -41.703,-3.939 -41.703,-0.5811 0,2.2126 18.492,7.8523 44.394,13.5388 14.544,3.1929 17.489,3.2991 17.489,0.6296 z" fill="#00B894" transform="translate(-49.05828,-73.754604) matrix(0.27626844,0,0,0.27626844,-2774.2416,-546.94508)"/>
</svg>