<?xml version="1.0" ?><svg height="84.897591mm" viewBox="0 0 75.1007 84.897591" width="75.1007mm" xmlns="http://www.w3.org/2000/svg">
    <path d="m 14066.604,7323.2461 c -30.234,0.053 -75.639,16.7793 -75.639,16.7793 0,0 -18.14,-2.0809 -24.897,2.2402 -6.758,4.3211 -26.498,26.7266 -26.498,26.7266 0,0 -25.339,20.2455 -30.674,38.0098 -5.335,17.7644 14.137,26.6464 14.137,26.6464 0,0 2.135,15.3645 8.893,24.8868 6.757,9.5224 9.869,17.2031 9.869,17.2031 0,0 0.798,46.0115 9.156,67.0566 8.358,21.0452 41.969,41.8516 41.969,41.8516 6.935,-37.8493 2.134,-54.9737 32.365,-85.7813 30.231,-30.8076 43.747,-39.6101 68.643,-40.5703 24.896,-0.9602 73.886,24.086 73.886,24.086 0,0 5.691,-32.0883 -17.16,-59.295 -22.851,-27.2067 -48.724,-49.1328 -48.724,-49.1328 0,0 4.712,-43.4498 -23.473,-49.6113 -3.523,-0.7702 -7.534,-1.1034 -11.853,-1.0957 z m 39.134,143.5859 c -19.217,-0.2612 -42.32,4.7466 -60.933,21.1778 -33.091,29.2109 -39.556,54.6282 -42.858,96.8007 -3.091,36.3556 17.916,55.3863 57.68,63.9219 39.765,8.5357 79.39,-19.4745 107,-66.0097 27.61,-46.5352 -12.642,-100.208 -27.045,-108.6172 -6.301,-3.6791 -18.897,-7.0703 -33.844,-7.2735 z" fill="#FFFFFF" transform="translate(-255.00323,-265.22382) matrix(0.25280025,0,0,0.24523514,-2421.0814,-930.33763) translate(-3313.5291,-2437.8203)"/>
    <path d="m 10743.977,5219.8483 c -27.229,-5.3737 -44.897,-19.3825 -58.545,-46.4191 -4.623,-9.1577 -10.216,-16.6502 -12.432,-16.6502 -5.859,0 -24.471,-20.4984 -36.409,-40.1002 -11.994,-19.6933 -18.308,-45.4337 -16.294,-66.412 1.222,-12.708 0.487,-15.652 -5.373,-21.5114 -4.375,-4.3759 -6.794,-10.154 -6.807,-16.2591 0,-7.5094 -1.804,-10.488 -8.647,-14.3815 -10.43,-5.9356 -15.339,-17.4488 -13.217,-31.0132 1.603,-10.2664 12.968,-22.9912 20.532,-22.9912 2.242,0 5.925,-3.5565 8.184,-7.903 2.259,-4.3469 9.085,-11.0328 15.168,-14.8579 6.082,-3.825 13.691,-10.9379 16.907,-15.8065 5.24,-7.9334 7.344,-8.852 20.265,-8.852 11.312,0 16.323,-1.6017 23.271,-7.436 19.926,-16.739 62.201,-18.9864 84.132,-4.4731 13.485,8.9239 22.891,26.0498 23.115,42.0852 0.129,8.6169 1.823,11.0885 11.879,17.2433 16.373,10.0245 36.835,33.3303 46.913,53.4305 9.331,18.6191 6.527,48.3235 7.61,56.8344 l 5.63,44.248 c 21.472,6.4658 12.145,25.0551 1.697,20.2578 -2.62,-1.203 -2.255,-0.2374 -4.586,8.6942 -14.065,53.8763 -63.042,103.085 -122.993,92.273 z m 101.237,-76.6096 c 8.619,-13.6011 7.128,-27.2441 7.128,-27.2441 -7.457,-2.1255 -7.562,-15.7576 -0.826,-17.4428 0,0 0.569,-21.0631 -4.761,-32.0747 -3.498,-7.2286 -11.597,-17.6242 -17.996,-23.1011 -9.585,-8.2043 -12.624,-9.4281 -17.258,-6.9483 -3.094,1.6557 -8.742,2.2277 -12.555,1.2711 -4.185,-1.0503 -9.723,0.093 -13.985,2.8835 -4.608,3.0202 -9.926,3.9923 -15.336,2.804 -5.716,-1.2555 -9.421,-0.444 -11.965,2.6198 -2.026,2.4413 -6.757,4.4387 -10.517,4.4387 -5.25,0 -6.832,1.5594 -6.832,6.7393 0,9.0059 -10.333,18.5635 -15.013,13.885 -5.171,-5.1719 -6.513,-4.1354 -6.849,5.286 -0.321,9.0483 -8.109,20.0721 -14.181,20.0721 -4.578,0 -7.846,14.5033 -7.798,34.6122 0.03,17.7528 8.766,46.8289 22.664,56.6191 54.686,38.5252 93.454,7.0678 126.08,-44.4198 z m -92.744,37.8055 c -7.98,-5.5884 -8.445,-18.6376 -0.912,-25.4562 8.114,-7.3414 20.82,-7.428 36.427,-6.8285 4.577,0.1758 14.153,1.665 13.278,10.7615 -2.059,21.3633 -32.183,33.1564 -48.793,21.5232 z m 32.749,-16.771 c 2.275,-3.6834 -10.107,-3.6834 -15.809,0 -3.278,2.1199 -2.116,2.7964 4.861,2.8299 5.045,0.024 9.972,-1.2494 10.948,-2.8299 z m -9.145,-71.2097 c -4.698,-5.6619 -3.914,-17.9943 7.086,-16.7535 5.796,0.6538 10.647,9.2265 7.485,14.3437 -2.606,4.2141 -10.483,7.335 -14.571,2.4098 z m 26.108,-18.7692 c 2.243,-8.3084 14.465,-8.1681 16.927,-1.5206 1.815,4.8987 2.339,8.2445 0.332,12.3315 -3.04,6.1886 -8.063,4.8637 -11.357,4.3316 -7.079,-1.1435 -7.825,-8.0192 -5.902,-15.1425 z m -125.072,44.1484 c 0,-13.4076 -0.871,-15.7417 -6.895,-18.4869 -3.794,-1.7279 -9.574,-2.4378 -12.846,-1.5859 -5.709,1.4864 -5.936,0.975 -1.311,10.5835 5.656,11.0037 15.958,24.4587 18.897,24.6756 1.186,0.087 2.155,-6.7466 2.155,-15.1863 z m -2.925,-33.5477 c 4.952,3.5263 9.251,5.9471 9.557,5.3795 0.304,-0.5677 2.212,-3.9944 4.243,-7.6153 2.027,-3.6207 2.939,-7.7971 2.022,-9.2807 -0.917,-1.4837 -0.26,-5.3301 1.462,-8.5474 4.5,-8.4095 -3.963,-10.9263 -14.939,-4.4425 -11.019,6.5091 -16.43,2.4482 -11.412,-8.5641 4.877,-10.7067 4.234,-12.8753 -3.815,-12.8753 -6.563,0 -7.185,1.0834 -7.185,12.4872 0,8.8372 -1.68,14.0074 -5.749,17.6887 -6.569,5.9468 -6.998,9.3144 -2.625,20.6488 8.55,-6.9328 16.638,-12.9084 28.441,-4.8789 z m -27.999,-33.9777 c -1.117,-13.9799 3.584,-20.59 14.644,-20.59 11.103,0 16.28,4.3562 16.28,13.7012 0,5.452 1.119,6.448 5.638,5.0138 7.09,-2.2504 17.352,3.0382 17.352,8.9428 0,2.711 7.619,-2.5614 19.399,-13.4228 19.151,-17.6577 37.196,-28.4182 47.865,-28.5413 5.213,-0.061 5.238,-0.3255 0.487,-5.5738 -7.384,-8.1595 -4.895,-18.7088 4.673,-19.813 4.268,-0.4926 10.278,0.4503 13.349,2.095 4.149,2.2202 6.431,1.9757 8.859,-0.9492 4.482,-5.3995 12.116,-7.0355 19.713,-4.2247 6.811,2.5196 8.798,15.495 3.828,24.9993 -2.043,3.9078 0.449,6.5923 12.933,13.9351 l 15.463,9.0946 v -7.9835 c 0,-4.391 -4.85,-17.5364 -10.777,-29.2121 -9.995,-19.6884 -11.505,-21.2975 -20.824,-22.1816 -11.484,-1.0898 -17.254,-4.9248 -17.254,-11.4691 0,-3.5262 0.766,-3.7672 3.448,-1.085 1.898,1.8968 4.484,3.4486 5.747,3.4486 5.014,0 1.765,-4.6486 -7.799,-11.1618 -8.83,-6.0136 -12.432,-6.6812 -29.462,-5.4626 -11.215,0.8025 -23.634,3.693 -29.438,6.8507 l -10.035,5.4629 30.176,1.8032 c 8.523,1.1933 30.362,-6.7511 31.614,6.6425 0,4.3157 -6.552,5.6245 -44.546,8.8968 -11.064,0.953 -25.186,3.0461 -31.381,4.6515 -18.331,4.7495 -52.985,22.8994 -66.599,34.8821 -12.079,10.6325 -12.665,11.8798 -12.665,26.9221 0,13.5022 0.725,15.6229 5.029,14.7321 3.75,-0.7757 4.839,-3.423 4.283,-10.4038 z m 74.033,-26.1679 c 0,-1.4875 1.295,-3.5058 2.881,-4.4855 1.916,-1.1841 1.882,-3.6478 -0.107,-7.3542 -4.223,-7.8894 -16.659,-7.3294 -19.831,0.893 -2.138,5.5445 -2.77,5.7814 -4.438,1.6613 -1.071,-2.6424 -0.508,-7.4922 1.251,-10.7771 3.908,-7.3044 18.8,-8.0951 28.219,-1.4985 7.587,5.314 8.776,19.8597 1.84,22.5208 -6.48,2.4869 -9.822,2.1604 -9.822,-0.9598 z m -103.461,-19.3629 c 0,1.6589 2.764,5.9578 6.141,9.553 8.724,10.0341 6.329,6.2815 13.984,-4.1256 22.139,-18.2451 -18.07,-11.3562 -20.125,-5.4274 z m 192.145,6.7478 c 4.583,-5.5188 5.318,-16.8836 1.187,-18.3501 -1.939,-0.6894 -6.613,2.0779 -10.386,6.1493 -8.272,8.9254 -10.903,9.1606 -17.758,1.5872 -3.509,-3.8772 -6.22,-4.8578 -8.137,-2.9419 -4.075,4.0751 5.498,13.8953 14.963,15.3495 14.51,2.2296 16.976,2.01 20.131,-1.794 z m -149.113,-29.8894 c -8.414,-5.8945 -6.782,-20.9342 2.79,-25.6796 9.728,-4.8227 13.169,-1.6809 5.251,4.7923 -7.968,6.5134 -3.649,13.2458 6.442,10.0427 5.395,-1.7121 6.124,-3.5075 4.781,-11.7809 -1.326,-8.1833 -0.715,-9.7611 3.79,-9.7611 4.698,0 8.669,6.1636 10.181,15.8063 0.249,1.5808 0.65,4.0859 0.891,5.5671 0.242,1.4812 4.317,-1.0238 9.058,-5.5671 7.24,-6.9374 8.622,-10.4747 8.622,-22.0917 0,-16.4717 -4.05,-17.7825 -20.252,-6.5548 -8.727,6.0481 -11.786,6.7884 -18.117,4.3821 -6.968,-2.6498 -7.614,-4.2416 -7.614,-18.7729 0,-15.1468 -2.908,-19.9218 -7.555,-12.4022 -1.182,1.9114 -1.815,8.9128 -1.406,15.5589 0.415,6.7365 -1.232,15.9022 -3.72,20.7135 -5.067,9.7995 -20.023,16.1347 -31.367,13.2873 -12.591,-3.1604 -19.177,0.7782 -19.177,11.4696 0,12.2655 3.534,14.7713 24.089,17.0795 9.298,1.0441 18.922,3.0276 21.388,4.4073 2.903,1.6249 6.85,0.9575 11.201,-1.894 7.907,-5.1573 8.217,-3.355 0.724,-8.6023 z m -19.044,-43.397 c 2.621,-2.8942 3.948,-6.0759 2.954,-7.0701 -2.071,-2.0713 -17.06,5.0937 -19.744,9.4384 -3.211,5.192 11.874,3.0647 16.79,-2.3683 z m 103.557,-0.3549 c 6.919,-2.6304 7.042,-3.0936 2.999,-11.2001 -2.32,-4.6507 -7.424,-9.2603 -11.341,-10.2434 -6.104,-1.5324 -7.121,-3.4402 -7.121,-13.3587 -0.02,-14.2732 -5.269,-8.8547 -10.777,-9.8201 -5.928,0.9631 -16.274,3.7151 -22.992,6.1159 -11.134,3.979 -12.214,5.2322 -12.214,14.1856 0,11.4328 0.913,11.7802 10.712,4.0732 10.912,-8.5837 27.557,-7.7175 35.061,1.8245 3.277,4.1647 5.956,10.631 5.956,14.3696 0,7.7502 0,7.7488 9.717,4.0535 z m 33.392,-8.7519 c 0,-1.5809 -1.214,-2.874 -2.703,-2.874 -1.486,0 -3.504,1.2931 -4.48,2.874 -0.977,1.5806 0.238,2.8738 2.705,2.8738 2.463,0 4.478,-1.2932 4.478,-2.8738 z m -8.621,-12.9326 c 2.862,-3.4476 2.829,-5.2123 -0.152,-8.8112 -5.479,-6.604 -18.584,-12.7431 -27.201,-12.7431 -6.162,0 -7.361,1.1726 -6.609,6.4664 0.738,5.1939 3.04,6.6416 11.696,7.3581 8.443,0.6988 10.777,2.0994 10.777,6.4663 0,6.6231 6.459,7.333 11.495,1.2635 z" fill="#00B894" transform="translate(-255.00323,-265.22382) matrix(0.25280025,0,0,0.24523514,-2421.0814,-930.33763)"/>
</svg>