<?xml version="1.0" ?><svg height="83.383675mm" viewBox="0 0 70.227516 83.383675" width="70.227516mm" xmlns="http://www.w3.org/2000/svg">
    <path color="#000" d="m 18379.797,4896.8205 a 103.96904,96.943833 0 0 1 -103.969,96.9436 103.96904,96.943833 0 0 1 -103.969,-96.9436 103.96904,96.943833 0 0 1 103.969,-96.9442 103.96904,96.943833 0 0 1 103.969,96.9442 z" fill="#FFFFFF" overflow="visible" paint-order="fill markers stroke" transform="translate(73.607004,-57.859688) matrix(0.26458333,0,0,0.26458333,-4874.4512,-1182.4224)"/>
    <path d="m 18241.87,4687.6829 c -5.511,0.05 -9.611,0.8349 -16.361,0.8961 -16.911,2.9902 -9.762,11.1597 -2.701,11.3084 11.909,-0.111 19.948,0.3797 24.794,1.1427 -2.057,1.4368 -4.486,3.0059 -7.168,4.6506 -3.646,2.2348 -7.383,4.4712 -10.486,6.9028 -15.195,9.4097 -9.144,14.8165 0.824,18.5553 2.324,0.8538 4.853,1.2996 8.06,1.63 6.415,0.6604 8.903,0.8021 22.14,0.1915 15.646,0.5591 13.104,-11.0089 -0.05,-10.9203 -11.284,0.5209 -13.137,-1.7985 -18.445,-2.166 6.429,-4.4977 15.823,-9.1748 19.864,-14.5327 1.29,-1.8073 2.643,-4.6456 1.895,-8.0067 -0.749,-3.3612 -3.331,-5.5522 -5.644,-6.7386 -2.311,-1.1863 -4.812,-1.8432 -7.941,-2.389 -3.472,-0.4177 -6.27,-0.5469 -8.776,-0.5241 z m -52.848,44.967 c -13.176,-0.1213 -30.338,11.7419 -38.063,15.0578 -12.528,8.8874 -2.696,12.9079 3.87,10.3062 14.71,-6.3518 24.556,-9.3878 29.711,-10.0773 0.592,-0.079 0.861,-0.04 1.311,-0.056 -0.608,1.665 -1.56,4.0069 -3.316,6.8533 -1.33,2.1532 -2.922,4.5022 -4.651,6.9466 -5.086,1.6645 -9.557,4.9308 -16.416,6.0205 -13.902,5.3615 -8.188,13.8085 1.066,11.3826 0.967,-0.1534 1.907,-0.3169 2.827,-0.4867 -2.716,6.8172 -6.708,12.1037 -9.594,19.426 -4.97,15.4092 5.618,14.5036 16.879,10.6104 7.635,-2.6605 18.431,-7.8243 34.222,-16.4363 7.638,-5.1313 7.773,-10.1248 -5.606,-8.8604 -17.279,4.4275 -24.741,11.2777 -31.043,13.5768 4.648,-8.053 10.504,-16.8319 15.695,-23.9166 3.87,-1.2746 7.256,-2.3586 10.464,-2.8836 3.576,-0.5852 6,-3.9579 5.415,-7.5338 -0.452,-2.7729 -2.622,-4.9492 -5.393,-5.4119 2.252,-3.9478 5.751,-10.7267 6.636,-15.5683 1.079,-5.8901 -5.306,-6.6674 -8.649,-8.1032 -1.681,-0.5665 -3.482,-0.8281 -5.365,-0.8455 z m 92.633,57.5134 c -7.471,0.021 -14.275,0.7952 -18.328,2.3699 -1.866,0.7257 -6.618,2.3725 -10.56,3.6593 -12.464,4.0696 -16.041,5.4595 -23.003,8.9424 -16.025,8.0648 -33.636,19.0315 -46.156,34.5805 -4.639,5.5404 -7.969,11.6578 -12.524,23.0033 -3.558,8.8627 -5.559,15.6432 -6.015,20.3916 -0.14,1.4668 -0.464,3.005 -0.718,3.4152 -5.1,44.8078 11.046,77.2849 39.533,95.4297 1.527,0.7799 3.225,2.0379 3.77,2.7968 0.546,0.759 1.501,1.6092 2.124,1.89 0.622,0.2815 1.64,0.8003 2.263,1.1536 v 0 c 30.805,17.3547 60.599,19.0158 94.756,8.4239 3.677,-0.8984 7.365,-1.9353 8.193,-2.3059 25.738,-11.048 58.001,-32.2136 70.998,-61.1024 0.27,-1.4234 1.083,-3.776 1.803,-5.228 1.158,-2.3322 2.699,-9.2029 4.147,-18.478 0.746,-4.7835 1.96,-6.0292 6.888,-7.0698 7.678,-1.6228 11.524,-4.5492 11.524,-8.7687 0,-4.863 -3.18,-6.4654 -11.265,-5.6714 -3.111,0.3043 -5.955,0.2859 -6.319,-0.04 -0.711,-0.6356 -1.089,-2.6145 -1.652,-8.6192 -1.586,-15.9956 -8.948,-28.478 -15.129,-44.7527 -3.295,-6.0481 -9.828,-12.46 -17.628,-17.2992 -3.11,-1.9306 -5.824,-3.6929 -6.032,-3.9151 -0.207,-0.2227 -1.906,-1.1952 -3.773,-2.1604 -3.87,-2.0019 -12.852,-6.8039 -16.214,-8.6687 -1.244,-0.6906 -2.879,-1.26 -3.633,-1.26 -0.753,0 -2.451,-0.8061 -3.772,-1.7862 -1.319,-0.9795 -4.097,-2.1921 -6.171,-2.694 -2.074,-0.5015 -6.317,-1.7211 -9.428,-2.7094 -7.37,-2.3409 -18.075,-3.5533 -27.679,-3.5252 z m 8.478,17.604 c 0.986,0 1.785,0.031 2.332,0.091 13.848,1.6947 36.448,9.2192 48.754,19.5775 17.938,13.7696 28.55,34.8397 31.64,57.9496 -0.335,6.8334 -0.796,7.2681 -8.464,7.9812 -4.079,0.3791 -5.921,0.953 -7.889,2.4585 -3.832,2.931 -4.012,4.8671 -0.819,8.7639 3.105,3.7858 5.334,4.5003 11.763,3.7536 5.005,-0.5803 4.955,-0.6447 3.559,4.5753 -7.32,49.3603 -95.491,102.7991 -158.706,54.7708 -3.765,-2.2201 -11.575,-7.9205 -11.575,-8.4464 0,-0.3598 -1.835,-2.8154 -4.076,-5.4585 -3.901,-4.596 -5.768,-7.5857 -8.358,-13.3819 -0.65,-1.4515 -1.5,-3.2113 -1.891,-3.9097 -0.656,-1.1726 -2.067,-5.2993 -4.517,-13.2039 -4.063,-15.4895 2.264,-33.8411 4.888,-48.5033 3.241,-9.9509 7.31,-17.9488 12.556,-24.684 2.014,-2.5835 3.662,-4.96 3.662,-5.2795 0,-0.3201 1.646,-1.7027 3.658,-3.0732 14.44,-14.6516 21.379,-18.688 35.577,-22.9192 0.611,-0.8083 15.118,-6.7284 18.083,-7.3798 1.452,-0.3184 3.542,-0.9423 4.648,-1.386 2.299,-0.9236 18.281,-2.2971 25.175,-2.2956 z m 57.678,58.3808 c -2.955,0 -6.399,0.3073 -9.063,0.9036 -2.282,0.5106 -6.146,1.3052 -8.591,1.7669 -7.712,1.4561 -9.877,5.834 -5.557,11.2373 0.937,1.1718 2.383,2.3817 3.212,2.6906 0.829,0.3084 2.188,0.8063 3.018,1.1084 v 0 c 8.736,1.6912 16.39,-0.2925 23.794,-12.3437 0.303,-2.6119 0.119,-3.8282 -0.682,-4.4922 -0.709,-0.5881 -3.176,-0.8781 -6.131,-0.8719 z m -71.9,9.8434 c -0.679,0 -1.431,0 -2.269,0.015 -9.609,0.113 -13.269,1.0738 -15.476,4.0587 -1.315,1.7787 -1.582,2.8643 -1.203,4.8871 0.566,3.0156 1.64,4.0671 5.907,5.7888 4.062,1.6374 8.848,0.7772 17.58,-3.1601 5.719,-2.5781 7.052,-7.0646 2.997,-10.0812 -1.628,-1.2105 -2.782,-1.5103 -7.536,-1.5103 z" fill="#00B894" transform="translate(73.607004,-57.859688) matrix(0.26458333,0,0,0.26458333,-4874.4512,-1182.4224)"/>
</svg>