<?xml version="1.0" ?><svg height="57.315968mm" viewBox="0 0 61.130043 57.315968" width="61.130043mm" xmlns="http://www.w3.org/2000/svg">
    <path color="#000" d="m 18517.277,4069.3426 c 23.365,-120.2682 74.421,-104.1361 109.036,-107.585 34.614,-3.449 93.587,14.5628 90.244,104.6923 -4.053,109.3043 -191.244,136.6228 -199.28,2.8927 z" fill="#FFFFFF" overflow="visible" paint-order="fill markers stroke" transform="translate(78.34968,-167.12659) matrix(0.26458333,0,0,0.26458333,-4975.1656,-878.22026)"/>
    <path d="m 18543.927,4141.7635 c -25.175,-20.6552 -32.374,-35.0493 -35.521,-64.759 -3.213,-25.3447 4.316,-46.2073 13.363,-65.8951 8.024,-19.9304 26.009,-33.4243 41.523,-43.6496 37.719,-22.4313 112.784,-25.7353 137.971,13.4187 5.133,7.9821 9.366,8.5439 18.528,28.8306 0,2.228 0.629,2.4332 3.62,1.1837 4.241,-0.7777 10.612,-0.8884 12.862,1.2103 6.634,6.5605 -2.225,10.3017 -4.517,11.5289 -1.773,0.9458 -5.773,3.0163 -5.943,3.2937 -0.172,0.2775 0.09,2.2642 0.58,4.4152 1.28,7.1563 1.596,32.1704 -2.158,49.5533 -8.9,41.2187 -35.622,81.0647 -83.119,84.9237 -36.643,5.234 -68.329,-1.0538 -97.189,-24.0544 z m 146.484,-20.678 c 14.197,-17.1435 25.836,-48.7462 21.099,-77.8808 -1.118,-2.6616 0.114,-6.6426 -1.553,-9.0405 -0.711,-0.9721 -0.967,-0.9443 -5.38,0.5818 -6.828,2.2304 -13.125,1.1668 -16.317,-5.9336 -1.167,-2.7028 -0.938,-3.5338 1.47,-5.3158 1.364,-1.0109 9.26,-4.0551 12.958,-4.9967 3.635,-0.9252 3.76,-1.513 1.464,-6.8659 -2.847,-6.6365 -6.49,-14.0733 -7.94,-16.2093 -28.48,-36.0723 -94.472,-33.8831 -127.23,-11.3389 -28.968,21.3277 -44.94,46.8852 -43.543,95.8857 1.861,65.2576 112.535,104.4344 164.972,41.114 z m -114.623,-3.8194 c -16.502,-3.9151 -22.952,-9.7243 -29.194,-22.5175 -0.777,-1.51 -1.844,-6.8367 -2.15,-10.7406 0.653,-9.1273 10.463,-4.0654 12.718,0.8964 5.696,8.113 7.088,20.3194 17.206,21.7261 6.219,0.8351 15.07,2.4798 15.764,2.929 7.173,9.172 -8.302,8.7269 -14.344,7.7066 z m -0.7,-46.0842 c -2.828,-6.2518 -7.534,-11.1153 -12.79,-15.6956 -14.553,-7.8708 -28.278,-28.4769 -7.989,-35.856 7.592,-3.4627 9.932,1.053 14.874,1.0997 0.51,-0.02 2.587,-1.9149 4.618,-4.2109 6.14,-6.9397 12.222,-8.5257 20.272,-5.0191 6.202,3.178 11.983,7.7684 10.66,21.062 -2.921,12.7412 -8.031,22.7892 -15.513,32.9244 -2.246,3.306 -10.665,9.2571 -14.132,5.6955 z m 4.159,-11.3845 c 3.496,-5.7997 10.531,-19.8559 12.055,-22.1138 4.663,-6.9096 4.166,-15.4808 -1.696,-16.4027 -2.376,-1.2717 -10.995,3.1573 -10.995,7.1462 -0.13,5.2355 -3.542,4.8016 -6.169,4.5737 -5.677,-0.089 -8.41,-5.5118 -12.205,-2.5956 -5.008,4.398 4.679,13.8625 7.259,16.1916 7.111,6.3255 6.336,8.6487 11.751,13.2006 z m 71.218,-18.1548 c -4.913,-10.6933 -15.243,-23.0476 -15.313,-33.9717 0,-5.5474 2.906,-10.3533 7.1,-11.7403 3.297,-0.6893 7.791,-0.7602 9.969,1.2877 1.971,1.8888 3.606,1.6263 6.662,-1.0703 6.765,-5.2849 11.753,-6.2635 17.13,-2.5841 13.104,10.8496 11.371,18.9475 3.672,31.0641 -5.189,7.6254 -23.484,29.7481 -29.22,17.0146 z m 22.176,-34.3131 c -4.486,-10.273 -7.158,8.1879 -11.448,9.1089 -4.663,0.9328 -8.648,-0.3725 -9.839,-3.2229 -1.539,-5.2663 -4.873,-7.8662 -3.96,-3.3844 1.404,4.3081 7.695,19.6928 9.398,20.0243 7.353,-4.3291 15.618,-13.2902 15.849,-22.5259 z" fill="#00B894" transform="translate(78.34968,-167.12659) matrix(0.26458333,0,0,0.26458333,-4975.1656,-878.22026)"/>
</svg>