<?xml version="1.0" ?><svg height="82.461555mm" viewBox="0 0 85.366249 82.461555" width="85.366249mm" xmlns="http://www.w3.org/2000/svg">
    <path d="m 12324.693,7343.1602 c -54.516,0 -98.711,45.2271 -98.711,101.0175 0,55.7903 48.902,104.334 103.418,104.334 54.517,0 95.338,-34.2827 94.004,-104.334 -0.219,-11.496 -2.229,-22.5431 -5.754,-32.8398 27.263,-11.8324 58.287,-25.1321 66.26,-27.8184 14.67,-4.9419 26.438,-17.5794 18.201,-30.2871 -7.021,-10.8322 -74.151,26.4792 -93.939,37.7969 -17.383,-28.7281 -48.02,-47.8691 -83.479,-47.8691 z" fill="#FFFFFF" transform="translate(-119.84667,-367.73945) matrix(0.26440264,0.00977671,-0.00977671,0.26440264,-2179.8608,-1015.2972) translate(-3313.5291,-2437.8203)"/>
    <path d="m 8924.2437,5204.3851 c -4.3658,-4.6779 -11.1762,-9.492 -15.1374,-10.6983 -3.9589,-1.2061 -8.7856,-4.2755 -10.724,-6.8214 -4.4263,-5.8097 -4.3484,-29.8831 0.1516,-44.7662 3.2233,-10.6828 2.9638,-11.7359 -4.7985,-19.4977 -7.3232,-7.323 -7.9874,-9.4951 -6.1788,-20.2035 1.1163,-6.5992 5.891,-21.0767 10.6137,-32.1723 8.5217,-20.0264 8.5563,-20.3403 4.8871,-42.9365 -6.1851,-38.0828 3.0461,-67.9468 30.8092,-99.6839 18.7135,-21.3924 36.8839,-29.4957 66.1441,-29.4957 37.9051,0 67.8554,11.1745 88.9464,33.1872 l 12.139,12.6695 32.94,-19.1774 c 26.7441,-15.571 35.3372,-19.2047 45.6934,-19.3227 10.5293,-0.119 13.7637,1.1942 18.5512,7.5361 12.351,16.3609 -1.5965,33.4092 -36.2998,44.3721 -12.7901,4.0408 -28.8879,8.1186 -35.7698,9.0619 -7.5567,1.0361 -11.9745,2.9823 -11.1546,4.9146 3.1743,8.6872 7.0389,16.5427 9.6747,25.5495 13.1468,-2.1058 32.091,10.7336 2.0571,21.0571 0,0 -0.022,4.3177 -1.8104,25.0422 -1.5576,18.0507 1.283,23.9785 6.2588,38.2787 3.3101,9.5189 6.7412,25.0955 7.6217,34.6145 1.4214,15.3659 0.7594,18.535 -5.9062,28.2524 -5.1727,7.5406 -7.507,14.7327 -7.507,23.1215 0,25.3118 -17.5626,42.7702 -32.912,32.7139 -12.4568,-8.1622 -19.237,-25.5531 -21.0845,-54.0891 -0.9151,-14.1195 -1.7906,-22.8128 -3.2916,-35.5816 -35.3258,10.3532 -71.694,10.5437 -101.5024,-2.7635 l 2.1834,36.8739 c 1.6939,28.6092 1.2029,29.5081 -8.2642,47.9129 -8.5628,16.6499 -10.6938,18.8507 -19.0142,19.6531 -7.3274,0.7065 -11.1004,-0.951 -17.3073,-7.6013 z m 138.5233,-115.4799 c 23.5689,-11.4748 36.4555,-28.3842 40.8429,-53.1567 1.8172,-10.2629 0.7951,-11.7553 0.7951,-11.7553 -16.6435,3.3146 -19.0758,-12.5376 -9.2562,-16.2708 3.9655,-1.5081 7.2107,-3.3743 7.2107,-4.1474 0,-0.7729 -2.6892,-8.5934 -5.9753,-17.3786 -5.7872,-15.4692 -6.3107,-15.9672 -16.587,-15.7844 -5.8346,0.1038 -56.7648,10.4913 -77.4752,14.7503 -11.1905,3.1242 -9.2354,1.7741 -26.4333,20.1695 -18.0682,15.153 -17.7276,21.3616 -14.9903,43.1927 1.6528,13.1718 3.0029,25.4995 3.0029,27.395 15.2057,27.2765 78.696,22.8056 98.8657,12.9857 z m -52.6812,-79.7031 c -4.4159,-5.322 -1.5273,-16.3763 4.1449,-18.787 5.9927,-2.5469 12.5129,1.5845 12.5129,7.6752 0,4.5004 2.6045,11.9327 -4.7776,14.0479 -5.6328,1.6141 -9.9226,-0.5769 -11.8802,-2.9361 z m 33.9568,-8.9151 c -6.5725,-14.4239 7.9765,-24.7164 16.5155,-11.6842 3.6778,5.6154 4.0131,8.5031 1.523,13.1571 -4.4545,8.323 -13.9281,7.5495 -18.0385,-1.4729 z m -91.6788,-24.6123 c 12.1063,-3.1683 97.905,-21.6263 113.2177,-24.3568 5.9494,-1.0606 10.8171,-2.9669 10.8171,-4.2358 0,-4.2396 -18.5837,-18.0899 -33.1716,-24.7214 -46.6761,-21.8781 -86.4713,-7.1891 -107.7962,34.5601 -13.3331,27.0836 -13.6317,26.7531 16.933,18.7539 z m 195.6957,-30.0904 c 17.8869,-6.2289 35.0687,-15.3857 35.0687,-18.6881 0,-1.5541 -1.3284,-2.8258 -2.9486,-2.8258 -3.7601,0 -48.9732,22.6666 -48.9732,24.5508 0,2.2475 3.4831,1.6195 16.8531,-3.0369 z" fill="#00B894" transform="translate(-119.84667,-367.73945) matrix(0.26440264,0.00977671,-0.00977671,0.26440264,-2179.8608,-1015.2972)"/>
</svg>