<?xml version="1.0" ?><svg height="72.322556mm" viewBox="0 0 75.879066 72.322556" width="75.879066mm" xmlns="http://www.w3.org/2000/svg">
    <path color="#000" d="m 19927.657,4534.7965 a 104.63545,103.84458 0 0 1 -104.636,103.8445 104.63545,103.84458 0 0 1 -104.635,-103.8445 104.63545,103.84458 0 0 1 104.635,-103.8446 104.63545,103.84458 0 0 1 104.636,103.8446 z" fill="#FFFFFF" overflow="visible" paint-order="fill markers stroke" transform="translate(17.365523,56.735275) matrix(0.26458333,0,0,0.26458333,-5223.5372,-1223.5687)"/>
    <path d="m 19812.121,4410.08 c -38.942,-0.1298 -60.379,14.4593 -80.849,35.0165 -21.402,21.4938 -15.054,27.0939 -27.47,68.1591 -17.321,57.29 -21.066,79.9477 -24.039,145.4118 -2.254,3.6697 -3.038,7.7846 -2.872,12.1215 3.246,5.3489 12.33,8.2466 15.217,-4.3471 0.205,-52.1875 6.636,-107.9903 12.444,-107.9903 2.534,13.9652 -3.136,79.6669 3.182,95.1159 1.597,8.3979 1.967,14.3517 1.115,17.2215 -0.407,8.7502 10.043,10.9383 13.793,0 -6.48,-23.8327 -7.344,-63.7214 -1.035,-63.7548 0.362,0 0.751,0.1283 1.162,0.4011 1.895,1.2586 4.564,10.6495 5.931,20.8664 1.112,8.3143 4.108,25.8405 7.221,42.4873 1.454,6.2768 10.231,13.329 12.733,-3.8162 -7.89,-15.2899 -10.839,-37.5057 -10.467,-61.5753 12.449,16.1784 29.03,28.467 48.298,34.9267 36.306,12.1719 66.499,3.8773 87.803,-8.7265 -2.821,7.9729 -4.575,15.9279 -2.582,25.2898 0,6.5874 2.875,14.9892 6.389,18.6687 10.285,10.7474 3.048,-9.4247 3.808,-16.8904 -1.42,-12.9689 -1.183,-22.153 0.524,-20.4094 5.823,7.3596 9.719,25.267 11.806,40.5617 8.327,5.959 12.786,5.9135 13.466,0 -2.168,-10.6336 -4.375,-19.6648 -5.484,-22.1187 -4.086,-9.0516 -7.177,-29.2279 -4.972,-29.8282 0.229,-0.062 0.514,0.085 0.86,0.476 4.251,6.0935 12.787,31.4672 17.167,51.4709 4.757,2.2547 10.234,8.1147 12.921,0 -2.154,-9.1138 -4.929,-19.4067 -7.881,-28.9287 -7.734,-24.9619 -10.201,-38.2885 -7.902,-42.702 4.364,-5.9192 11.978,36.2171 19.049,71.6307 6.948,3.6161 14.293,8.2451 16.568,0 0,-3.4948 0,-7.151 -0.03,-11.1146 -5.653,-35.3856 -8.794,-48.5583 -18.595,-78.0265 -1.61,-5.1663 -2.447,-9.4583 -2.761,-13.3222 3.149,-5.9066 5.836,-12.1988 7.93,-18.9665 1.701,-4.6212 1.662,-5.4924 5.405,-5.6053 6.719,-0.088 20.04,-0.074 22.997,-7.4425 4.509,-11.2359 -14.385,-7.1257 -22.741,-5.9745 l -2.273,0.068 -0.382,-7.6689 c -0.08,-10.982 -2.175,-21.2757 -5.728,-31.0123 -0.73,-8.3906 -1.904,-17.9599 -3.663,-28.9662 -0.754,-26.18 -8.77,-37.0941 -32.453,-44.1882 -11.54,-3.4565 -26.741,-8.22 -33.782,-10.5853 -7.04,-2.3653 -31.725,-5.8714 -49.828,-5.9322 z m 34.467,26.3499 c 2.726,0.5327 5.433,1.1975 8.098,1.9947 5.999,6.7088 13.184,18.4426 18.149,30.5031 5.578,13.55 9.119,17.8231 13.331,16.0865 4.206,-1.7347 5.147,-5.5235 3.528,-14.2234 -1.355,-7.2824 -1.821,-10.037 -0.227,-9.3763 0.235,0.3151 0.474,0.6286 0.703,0.9494 4.352,6.0755 8.887,12.1173 13.078,18.3907 10.282,20.7193 13.278,40.6757 11.293,59.5143 -1.77,0.038 -3.43,-0.071 -3.814,-0.3878 -9.891,-0.6111 -7.362,12.7522 1.603,13.5394 -1.977,8.5975 -4.928,16.9302 -8.62,24.9604 -3.696,5.5363 -8.775,12.0299 -9.524,12.0299 -0.332,0 -1.306,-0.7314 -2.163,-1.625 -20.469,-8.3623 -45.063,-4.7579 -65.977,-0.6824 -2.996,0.4109 -5.267,1.7663 -9.936,-1.8497 -1.802,-1.3957 -10.082,-1.798 -13.778,0.4458 -3.982,2.4178 -9.647,3.6329 -13.144,8.0642 -2.213,2.0641 -7.722,9.4783 -0.217,11.2237 5.259,0.7551 8.81,-1.4871 16.105,-7.4849 2.555,-1.3034 6.086,-2.0956 7.833,-0.4827 3.033,2.8007 11.413,3.152 14.669,0.7448 11.388,-6.3107 40.974,-6.7846 56.222,0.331 1.157,1.8135 -4.105,7.2578 -14.29,14.7877 -19.263,13.9018 -45.11,22.5496 -75.837,13.711 -18.815,-6.1433 -41.541,-23.2954 -53.733,-49.9582 3.053,-28.5087 9.711,-56.942 17.509,-77.5545 7.252,-15.3768 8.354,-21.6162 5.896,-33.3291 0,-0.03 -0.02,-0.057 -0.02,-0.086 1.573,-1.3959 3.194,-2.78 4.86,-4.1466 0.671,2.454 1.534,5.2451 2.485,7.9344 3.474,9.8178 4.314,10.215 9.599,4.5376 5.015,-5.3882 5.258,-7.6271 0.733,-22.1229 1.699,-1.1838 3.411,-2.3456 5.133,-3.4816 0.946,3.1585 1.855,6.6045 2.66,10.1853 3.983,17.7158 6.989,24.0731 10.972,23.2003 6.187,-1.3559 5.69,-25.1204 -0.05,-41.6377 1.85,-0.9039 3.792,-1.7112 5.809,-2.4231 6.425,12.0917 13.362,28.8191 14.099,36.2797 1.167,11.82 10.877,16.6357 14.287,7.0864 1.183,-3.3104 -0.276,-13.3985 -3.237,-22.4199 -2.963,-9.0212 -4.67,-17.173 -3.792,-18.1145 2.72,-2.9237 20.119,27.9495 21.59,38.3125 0.768,5.401 3.699,9.8225 6.516,9.8225 8.707,0 7.82,-16.1063 -2.038,-37.0112 -3.149,-6.6791 -5.429,-12.6056 -6.36,-16.2373 z m 56.715,9.621 c 0.998,-0.046 2.574,0.7625 4.367,2.3616 3.018,2.6908 5.485,6.66 5.485,8.8213 0,2.1925 -2.424,1.769 -5.485,-0.9602 -3.017,-2.6907 -5.486,-6.6633 -5.486,-8.8247 0,-0.8221 0.34,-1.2749 0.928,-1.377 0.06,-0.011 0.126,-0.016 0.191,-0.022 z m -158.685,42.4524 c 1.411,2.309 -0.263,9.9074 -5.461,25.7368 -3.381,10.2934 -6.338,21.0817 -7.805,28.1358 -0.408,-7.504 -0.03,-15.445 1.316,-23.8122 2.794,-10.6359 6.133,-20.3995 11.95,-30.0604 z m 149.13,14.3342 c -7.397,-0.1039 -18.676,4.263 -26.25,4.4136 -2.436,-0.1336 -5.672,0.051 -7.186,0.4111 -4.628,1.1177 -4.825,5.6546 0.35,8.5475 3.625,1.3491 19.325,1.1777 25.728,-0.2803 3.608,-0.8218 4.445,-0.3189 5.006,2.9996 1.162,6.5573 16.732,10.0997 15.605,-1.5144 -0.03,-6.4264 -2.056,-15.2344 -11.826,-14.4939 -0.457,-0.049 -0.933,-0.077 -1.427,-0.083 z m -65.893,5.5969 c -0.811,-0.016 -1.574,0.031 -2.24,0.1423 -13.713,1.9887 -25.005,0.4915 -39.461,3.0005 -5.593,0.9711 -2.735,8.0362 2.759,9.4696 7.611,1.868 18.729,0.3555 27.436,-0.4402 3.898,-0.9534 4.172,-0.7384 3.86,3.0347 v 0 c -0.922,8.0785 7.443,12.1268 13.987,7.5815 1.829,-1.2701 2.631,-1.3513 2.883,-5.7209 0.805,-3.5269 0.793,-11.3397 -0.03,-13.1266 -1.275,-2.5696 -5.69,-3.8656 -9.205,-3.9409 z" fill="#00B894" transform="translate(17.365523,56.735275) matrix(0.26458333,0,0,0.26458333,-5223.5372,-1223.5687)"/>
</svg>