<?xml version="1.0" ?><svg height="72.627518mm" viewBox="0 0 76.656631 72.627518" width="76.656631mm" xmlns="http://www.w3.org/2000/svg">
    <path d="m 12787.432,4079.4082 -47.368,22.8691 c 0,0 -15.898,-12.1367 -26.193,-12.1367 -10.294,0 -55.512,19.291 -55.512,19.291 l -16.289,52.7149 18.311,37.7617 -17.658,31.6055 28.082,23.8652 4.953,-16.125 7.752,-51.3066 44.57,-47.7325 c 0,0 65.874,16.1264 70.434,19.6446 4.561,3.5182 25.8,33.0714 31.599,36.9414 5.798,3.8701 30.102,19.1738 30.102,19.1738 l -8.535,68.4297 24.759,-25.7422 8.6,-26.3867 28.147,-23.9238 -0.07,-35.2989 -48.474,-12.4902 -35.639,-68.8398 z m -57.854,67.1992 c 0,0 -38.895,36.4715 -45.15,51.3653 -6.255,14.8939 4.365,57.0546 4.365,57.0546 15.703,62.4486 36.812,63.2107 57.662,68.8985 20.849,5.6878 32.186,3.6938 63.07,-18.1192 30.883,-21.813 40.134,-74.8213 39.092,-83.9687 -1.043,-9.1475 -23.781,-17.2969 -23.781,-17.2969 0,0 -23.652,-35.2994 -28.213,-39.7558 -4.561,-4.4564 -67.045,-18.1778 -67.045,-18.1778 z" fill="#FFFFFF" transform="translate(-116.64193,-136.04338) matrix(0.26458333,0,0,0.26458333,-2349.6572,-296.1683) translate(-3313.5291,-2437.8203)"/>
    <path d="m 9409.5356,1900.5958 c -12.6935,-6.3569 -21.0508,-13.678 -26.8583,-23.5286 -2.6687,-4.5269 -7.3648,-8.7892 -10.4354,-9.4716 -7.2694,-1.6156 -10.8211,-7.4371 -9.1433,-14.9861 1.0323,-4.6452 -0.1311,-6.3684 -5.0361,-7.4585 -9.9154,-2.2037 -13.787,-10.5121 -9.5334,-20.4583 3.5417,-8.2812 3.4439,-8.4571 -5.8289,-10.518 -6.6414,-1.476 -10.9938,-4.5515 -14.7133,-10.3967 -4.8082,-7.5563 -4.8479,-9.6036 -0.4407,-22.8366 2.6629,-7.9948 6.1969,-16.9829 7.8535,-19.9734 2.3257,-4.1983 1.3394,-7.9035 -4.3282,-16.2599 -20.4994,-30.2246 -6.8662,-74.9529 27.7172,-90.9356 22.7565,-10.5171 51.9423,-10.5527 61.5298,-0.075 4.5632,4.9864 5.5831,4.7167 20.3468,-5.3858 19.5117,-13.3508 33.6698,-17.1434 49.9422,-13.3786 14.3748,3.3249 32.0619,13.9883 40.2923,24.2894 3.1004,3.8805 8.949,15.7228 12.9969,26.3164 10.8588,28.4176 13.3081,31.0517 30.371,32.6671 24.1789,2.2891 39.3328,18.2063 36.5829,38.4252 -2.3765,17.4729 -5.5887,22.5057 -20.3648,31.9081 -14.6215,9.3044 -15.0444,9.892 -17.686,24.5831 -3.0844,17.1552 -14.6816,34.5572 -26.9609,40.4559 -8.6437,4.1521 -9.1754,5.4474 -4.9587,12.0745 8.5176,13.3853 -10.1111,31.0513 -24.6339,23.3606 -6.6092,-3.5004 -9.2447,-2.9203 -24.7216,5.4405 -29.0402,15.6879 -58.5182,17.8961 -81.9891,6.1422 z m 45.3755,-19.1271 c 16.0413,-3.6608 39.9748,-18.6691 50.515,-31.6767 5.3652,-6.6212 9.3651,-12.6515 8.8879,-13.4011 -0.4767,-0.7493 -5.5807,0.816 -11.3415,3.4783 -5.7614,2.6625 -11.8407,4.5374 -13.51,4.1664 -6.4949,-1.4434 -1.2415,-5.8986 14.6531,-12.4263 14.6473,-6.0152 17.0865,-8.0941 20.8163,-17.7413 4.8616,-12.575 6.3757,-28.9732 3.1419,-34.0526 -1.2208,-1.9183 -10.0895,-5.1433 -19.7076,-7.1669 -15.6418,0.6948 -16.5585,-7.8757 -2.3769,-6.635 0.6002,-0.2418 -3.3998,-7.622 -8.8894,-16.4006 -12.2157,-19.5358 -19.501,-23.628 -37.8989,-21.2879 -13.0234,1.6563 -40.2853,-2.6474 -44.8339,-7.078 -1.1474,-1.1177 -4.8013,0.8146 -8.119,4.2942 -3.3182,3.4796 -10.6856,10.7612 -16.3726,16.1809 -9.0255,8.602 -9.8742,10.2697 -6.6795,13.1226 5.0952,4.5498 3.5936,8.492 -2.7021,7.0928 -7.0884,-1.5754 -7.5982,2.7039 -0.7966,6.6842 4.6477,2.7198 4.7424,3.243 0.6188,3.4173 -2.6783,0.1131 -5.3404,2.3255 -5.9162,4.916 -1.482,6.6684 3.6873,34.0593 6.5477,34.6951 1.3094,0.291 7.5395,-0.805 13.845,-2.4352 13.6207,-3.5224 24.7216,-1.6373 25.6123,4.349 0.9072,6.0985 -5.6031,10.3109 -17.6192,11.4003 -5.6779,0.5146 -11.6102,1.6827 -13.183,2.5957 -4.0034,2.3241 9.4643,34.6742 17.7961,42.7481 8.7155,8.4455 33.6974,14.3136 47.5123,11.1607 z m -31.9359,-27.1664 c -6.2298,-7.8496 -5.1269,-8.6308 13.8707,-9.8226 23.548,-1.4771 33.2298,-0.3757 34.7355,3.9512 2.1377,6.1428 -2.2819,10.2675 -14.2902,13.378 -14.2316,3.6805 -27.7913,0.7143 -34.316,-7.5066 z m 70.655,-30.9498 c 0.6337,-2.8512 22.6657,-12.1974 23.96,-10.1639 1.508,2.3703 -17.0934,14.0059 -21.0022,13.1372 -1.8965,-0.4215 -3.2276,-1.7595 -2.9578,-2.9733 z M 9393.1734,1786.92 c -1.4262,-3.3469 -0.6828,-7.9503 5.1769,-3.4719 4.9867,3.8113 15.7273,0.3519 18.9185,1.0612 4.0118,0.8916 2.8883,5.0131 -3.6021,6.3885 -8.7632,1.8573 -18.9701,-0.4034 -20.4933,-3.9778 z m 60.042,12.5344 c -5.3868,-3.3084 -6.9362,-12.8986 2.0642,-6.3408 3.8228,2.7853 12.5068,-0.2963 15.7206,-1.3445 2.6942,-0.8787 4.1812,2.4474 3.8555,3.9128 -1.3976,6.2884 -14.2181,8.3309 -21.6403,3.7725 z m -50.4791,-29.7286 c -0.2864,-5.1781 1.3591,-12.4707 9.1318,-12.414 8.6057,0.063 10.164,5.4701 7.7458,14.3292 -2.0308,7.44 -10.042,11.3064 -14.7837,4.0642 -0.6525,-0.9966 -1.9353,-3.111 -2.0939,-5.9794 z m 49.4306,12.2012 c -5.9325,-9.3229 -0.017,-20.6015 9.6759,-18.4474 8.0846,1.7968 10.2984,12.2864 3.9338,18.6386 -6.0031,5.9912 -9.7088,5.9391 -13.6097,-0.1912 z m 41.7881,-2.8176 c -1.4952,-3.1674 14.5,-3.6644 17.8447,-0.4065 1.2969,1.2632 1.4334,3.2459 0.3034,4.4061 -2.654,2.7246 -15.1166,2.422 -16.7372,-1.0109 z m -88.1596,-44.2056 c 0.2724,-1.2256 11.1549,-1.3601 24.1833,-0.2988 13.0283,1.0612 26.4915,1.8707 29.9185,1.7984 8.8321,-0.1859 6.5698,7.0445 -2.827,9.0359 -8.4367,1.7879 -52.0233,-7.1678 -51.2748,-10.5355 z m -49.143,66.5235 c -1.6707,-10.9213 0.4734,-35.6229 3.9026,-44.9632 1.9957,-5.4356 9.1374,-15.0109 15.8706,-21.2787 21.2182,-19.7521 33.4147,-37.8174 37.4116,-55.4142 l 3.5755,-15.7427 -8.4013,-2.7347 c -8.8436,-2.8786 -36.7073,1.651 -47.3554,7.6981 -12.7169,7.222 -20.8529,20.5658 -23.7198,38.9004 -2.6437,16.9072 -2.4751,17.5875 7.777,31.4287 9.531,12.8674 10.2513,15.1703 7.9608,25.4576 -1.724,7.757 -5.1412,13.6714 -10.8662,18.8246 -8.7097,8.211 -10.4555,4.8623 -3.4259,13.7088 5.7724,4.3234 18.033,12.5135 17.2705,4.1153 z m 203.6225,1.5249 c 0.7884,-11.2685 1.5025,-12.2565 16.0579,-22.216 12.751,-8.725 15.6692,-12.1682 17.9092,-21.1311 3.8867,-15.5519 -0.9457,-20.0566 -24.8032,-23.1219 -16.822,-2.1612 -19.5493,-3.2496 -26.4249,-10.5459 -4.217,-4.4751 -11.0574,-16.9518 -15.2012,-27.7261 -10.4358,-27.1359 -17.1724,-35.8177 -33.502,-43.1764 -11.3154,-5.0993 -15.5828,-5.8723 -24.0495,-4.357 -15.1893,2.7181 -41.2725,20.2264 -45.4722,30.5229 -7.1351,17.4923 -6.9433,17.6907 24.6656,25.5364 33.1537,8.2292 45.4438,15.1764 59.7693,33.7867 12.94,16.8101 14.0158,17.6962 26.3731,21.7188 6.7597,2.2006 12.4474,6.2372 15.4607,10.9724 4.3104,6.7736 4.2444,9.9594 -0.6889,33.2689 l -5.4562,25.7777 7.2683,-8.7582 c 5.4959,-6.622 7.4698,-11.6345 8.0936,-20.5513 z m -136.9431,-84.9453 c 0.5538,-2.4917 -7.0294,-5.4946 -8.9349,-3.5384 -1.161,1.1917 0.3229,2.7076 3.2974,3.3687 2.9743,0.661 5.5113,0.7374 5.6375,0.1697 z" fill="#00B894" transform="translate(-116.64193,-136.04338) matrix(0.26458333,0,0,0.26458333,-2349.6572,-296.1683)"/>
</svg>