<?xml version="1.0" ?><svg height="130.75117mm" viewBox="0 0 139.72897 130.75117" width="139.72897mm" xmlns="http://www.w3.org/2000/svg">
    <path color="#000" d="m 21629.318,3179.084 c -11.721,0.048 -25.455,2.0502 -39.304,5.5566 -20.946,1.3865 -40.862,10.082 -56.598,24.7129 -10.914,7.9201 -18.5,16.962 -20.24,26.6016 -24.058,64.6648 31.736,145.9028 82.756,147.5586 51.706,9e-4 93.808,-43.7796 94.48,-98.2442 1.128,-12.6952 4.214,-47.4355 6.111,-68.6875 -5.106,-32.9013 -45.101,-37.074 -64.888,-37.4804 -0.763,-0.014 -1.535,-0.021 -2.317,-0.018 z m 235.284,30.1797 c -0.328,-0.023 -0.555,0.05 -0.555,0.3476 0,2.3866 -4.587,0.1729 -6.543,0.4453 -19.716,2.746 -56.927,38.7115 -70.637,80.6641 -4.284,11.7294 -6.492,24.3246 -6.494,37.0508 0,52.7819 37.13,95.5731 82.943,95.5742 14.184,-5e-4 28.133,-4.1947 40.512,-12.1777 17.287,10.6044 49.59,4.2384 61.541,5.9004 13.67,1.9012 19.879,-27.9599 26.465,-27.7364 6.586,0.2237 0.377,-27.6265 8.828,-27.7382 8.45,-0.1125 17.893,-14.3113 19.508,-24.0411 1.616,-9.7295 -20.873,-10.0664 -20.873,-10.0664 0,0 -25.351,-70.6826 -41.756,-70.459 -16.402,0.2238 -17.275,-8.5008 -23.984,-23.375 -5.873,-13.015 -43.708,-23.5477 -67.061,-24.0293 -0.522,-0.012 -1.349,-0.3203 -1.894,-0.3593 z m -156.202,193.1015 c -22.125,4e-4 -42.206,8.5093 -57.052,22.3438 -9.354,-4.5555 -20.544,-6.9415 -33.973,-6.7188 -2.597,0.043 -5.278,0.1835 -8.045,0.4239 -99.886,8.8588 -83.173,52.0341 -97.123,195.416 58.257,13.5924 100.505,14.485 130.104,10.7988 -0.313,0.607 -0.617,1.22 -0.942,1.8203 48.906,11.4574 181.942,49.1314 291.022,10.086 25.771,-4.8164 45.005,-10.3 45.005,-12.2403 -0.09,-3.2265 -0.188,-6.4875 -0.308,-9.7656 11.518,-8.5786 9.893,-14.2334 -0.836,-17.6484 -4.101,-69.0642 -19.025,-140.9946 -73.779,-141.0371 v 0 c -11.498,-0.012 -24.753,3.1508 -40.03,10.1738 -55.542,25.5324 -58.408,59.0142 -58.054,134.752 -1.622,32.0843 -10.803,21.6162 -23.426,23.166 -8.636,-11.0005 -39.653,-40.5181 -68.619,-41.0977 -1.939,-0.04 -3.934,-0.03 -5.994,0.023 -1.957,0.053 -3.821,0.1474 -5.641,0.2617 -0.22,-6.4982 -0.454,-12.9568 -0.732,-19.3281 2.77,0.274 5.579,0.414 8.423,0.414 45.696,0 82.74,-36.2282 82.743,-80.9179 0,-44.6935 -37.043,-80.9265 -82.743,-80.9278 z" fill="#FFFFFF" overflow="visible" paint-order="fill markers stroke" transform="translate(-199.03215,142.58353) matrix(0.26458333,0,0,0.26458333,-3781.4683,-494.77959) translate(-6456.8127,-1828.5152)"/>
    <path d="m 21601.969,3159.668 c -1.622,-0.028 -3.232,-0.023 -4.83,0.012 -8.526,0.1893 -16.686,1.303 -24.291,3.4355 -24.134,0 -36.889,0.238 -56.325,20.4844 -15.623,16.605 -17.046,32.8218 -14,50.2832 7.696,44.074 -10.547,69.5561 12.024,108.5234 14.83,26.8046 27.677,37.1247 54.834,44.0508 33.666,8.5861 65.464,-0.1712 90.402,-23.5058 1.833,1.8773 5.112,3.999 8.842,5.5644 9.99,4.1909 10.062,4.4137 1.889,5.834 -11.684,2.0307 -10.669,9.9932 1.884,14.7598 l 10.389,3.9453 -9.558,3.9336 c -6.927,2.8485 -16.448,10.844 -25.254,20.4121 -15.652,-4.2519 -29.597,-6.2421 -41.998,-6.2344 -89.382,0.056 -99.284,103.0094 -100.299,198.1817 1.446,3.7666 4.964,6.0712 7.826,5.1191 3.684,-1.2257 5.462,-34.3452 6.088,-68.0176 2.265,-58.3323 43.685,-129.7382 100.648,-122.8769 6.647,0.8885 12.821,2.4877 18.539,4.7734 -4.437,5.8077 -8.27,11.7072 -10.861,17.0547 -4.848,10.0127 -7.43,23.1454 -7.416,37.7598 -1.827,49.6669 32.356,78.9551 71.477,85.582 0.181,3.782 0.426,7.41 0.738,10.8398 -9.848,1.5479 -18.687,3.9267 -25.346,7.1504 -23.963,11.6001 -41.615,42.0604 -24.32,41.9688 2.473,-0.015 7.367,-5.0785 10.879,-11.252 9.722,-17.0864 26.956,-29.3315 58.029,-28.5097 43.944,1.162 36.385,5.4988 53.506,30.0644 7.783,11.1685 12.044,13.9358 15.498,4.9336 -8.768,-31.1762 -31.27,-46.752 -59.904,-46.502 -5.286,0.014 -10.574,0.2337 -15.733,0.6543 0.212,-2.6949 0.404,-5.3465 0.57,-7.9453 34.69,1.1112 70.36,-15.16 86.52,-50.3359 5.663,-8.7803 5.376,-13.8439 7.453,-13.5176 10.245,0.7981 15.936,-9.8973 -0.119,-16.0566 3.055,-14.4229 2.679,-30.3259 -4.123,-44.3262 -13.804,-27.4078 -46.269,-51.7305 -69.053,-51.7305 -6.19,0 -12.146,-1.4389 -13.234,-3.2011 -3.064,-4.9554 12.257,-19.4532 20.558,-19.4532 9.683,0 9.575,-7.6904 -0.146,-10.2324 -8.317,-2.1745 -9.808,-6.8079 -3.451,-10.7363 2.94,-1.8174 2.951,-3.6925 0.02,-6.6152 -2.921,-2.9227 -7.214,-1.0733 -15.136,6.5175 l -11.063,10.5977 -1.238,-10.7813 c -0.802,-6.9857 -3.75,-11.2566 -8.385,-12.1367 -0.798,-0.1516 -1.505,-0.2612 -2.123,-0.3086 -0.269,-0.019 -0.52,-0.029 -0.756,-0.025 v 0 0 c -3.576,0.07 -3.586,3.1347 -1.775,14.461 2.665,16.6597 0.819,18.3468 -10.609,9.7031 -4.071,-3.0791 -9.096,-4.8929 -13.213,-5.3164 9.122,-9.9215 17.178,-21.9438 23.859,-35.9551 5.411,-11.3486 9.319,-14.8956 14.584,-13.2246 11.34,3.5992 14.746,-7.0493 4.441,-13.8906 -7.688,-5.1059 -9.041,-9.9332 -9.041,-32.3184 0,-14.4733 1.954,-27.5153 4.338,-28.9883 2.384,-1.4733 3.193,-6.7405 1.801,-11.7011 -6.898,-24.5765 -12.528,-32.8935 -27.439,-40.5 -25.306,-12.4163 -52.25,-19.9758 -76.59,-20.4043 z m 73.002,28.9824 c 2.132,0 6.904,4.6208 10.607,10.2734 3.705,5.6528 6.097,11.9598 5.311,14.0117 -0.789,2.0521 -5.569,-2.5745 -10.618,-10.2793 -5.046,-7.7044 -7.433,-14.0058 -5.3,-14.0058 z m -81.92,0.1211 c 17.732,5.4502 22.972,10.2959 46.709,23.0293 46.83,25.1184 50.203,29.7716 46.888,64.582 -1.141,11.9565 -3.003,14.293 -11.404,14.293 -12.781,0 -16.61,10.2122 -4.969,13.2558 10.566,2.7633 10.777,4.7866 1.889,18.0938 -12.706,19.0306 -32.57,38.0335 -48.137,46.0566 -24.37,12.5621 -49.187,10.5789 -70.439,-5.6308 -25.768,-19.6546 -34.872,-37.3886 -34.686,-67.6074 0.1,-15.8107 2.047,-19.6712 1.996,-41.4278 12.505,-44.434 33.709,-65.1812 72.153,-64.6445 z m 36.658,0.4043 c 7.057,-0.033 20.969,5.933 26.768,12.3398 3.958,4.3749 5.5,7.8728 3.427,7.7715 -6.391,-0.3122 -35.906,-16.9575 -33.8,-19.0625 0.714,-0.7154 1.973,-1.0409 3.605,-1.0488 z m 237.52,14.9394 c -7.975,0.2104 -15.435,1.8951 -21.17,5.1485 -52.645,29.8622 -68.69,52.9233 -71.661,103.0019 -1.627,27.4237 -3.05,32.2246 -10.125,34.0742 -9.911,2.592 -5.971,11.043 5.149,11.043 5.307,0 10.514,5.9439 15.916,18.1543 8.902,20.1254 28.381,37.0296 53.119,46.0938 8.954,3.2807 22.838,6.0549 30.855,6.166 17.321,0.24 44.741,-11.5564 55.825,-24.0157 8.996,-10.1115 15.821,-11.8033 12.482,-3.0976 -2.576,6.7141 13.258,19.166 24.369,19.166 10.207,0 14.555,-12.5014 6.01,-17.2832 -3.798,-2.1253 -5.656,-6.5328 -4.269,-10.1426 1.613,-4.2111 -0.57,-7.177 -6.42,-8.707 -13.272,-3.4706 -10.617,-11.4332 7.148,-21.418 11.497,-6.4606 16.126,-4.252 6.988,3.3321 -10.391,8.6238 -7.964,18.0196 4.061,15.7207 6.982,-1.3345 10.414,-0.124 10.414,3.6777 0,11.0409 14.782,5.7956 19.594,-6.9531 4.164,-11.0296 3.657,-13.6596 -4.039,-20.8282 -8.679,-8.0852 -8.688,-8.2893 -0.727,-14.3105 4.442,-3.3606 9.482,-6.1674 11.199,-6.2402 4.572,-0.1936 3.815,7.2788 -1.041,10.2793 -6.2,3.8318 -5.032,10.4062 1.846,10.4062 7.899,0 18.954,-16.0277 16.131,-23.3828 -1.217,-3.1728 -4.616,-5.7656 -7.559,-5.7656 -2.942,0 -6.469,-4.4597 -7.838,-9.9121 -1.367,-5.4524 -6.259,-10.9031 -10.865,-12.1075 -5.623,-1.4701 -8.375,-5.6703 -8.375,-12.7812 0,-5.8267 -2.643,-12.0941 -5.881,-13.9258 -3.236,-1.8315 -6.516,-8.9548 -7.289,-15.8262 -1.332,-11.8728 -2.266,-12.4374 -18.818,-11.4062 -16.235,1.0113 -17.509,0.3067 -18.74,-10.4082 -0.988,-8.5935 -4.537,-12.5512 -14.049,-15.6641 -6.999,-2.2904 -18.121,-7.7098 -24.713,-12.0469 -9.544,-6.2788 -22.184,-9.7342 -34.082,-10.041 -1.157,-0.029 -2.307,-0.029 -3.445,0 z m 6.5,7.5391 c 0.153,-0.037 0.486,0.1012 0.683,0.1191 3.7,0.2466 8.923,2.2136 13.893,5.9727 7.975,6.0318 7.964,6.1135 -0.252,5.9199 -11.194,-0.264 -18.741,-3.5693 -18.741,-8.2129 0,-2.1654 1.395,-3.3502 3.614,-3.623 0.231,-0.028 0.719,0.1863 0.719,-0.062 0,-0.062 0.03,-0.095 0.09,-0.1094 z m -21.612,19.9609 c 2.3,0.064 6.221,2.266 7.795,2.9082 6.74,2.7503 6.663,3.2587 -1.006,6.4121 -11.662,4.7953 -35.398,4.8212 -35.398,0.037 0,-4.018 15.326,-7.7398 26.853,-7.7715 0,-1.2008 0.711,-1.6132 1.756,-1.584 z m 71.41,5.9649 c 0,4.39 8.252,4.0953 8.252,9.6933 0,7.6464 -5.889,7.7046 -12.181,0.1231 -3.335,-4.017 -3.498,-6.7275 -0.514,-8.5723 1.454,-0.8985 2.982,-1.2847 4.443,-1.2441 z m -37.584,4.0137 13.547,9.1269 c 25.513,17.1882 46.352,69.3872 39.84,99.8125 -4.647,21.7159 -17.564,38.7792 -40.234,53.1563 -18.567,11.774 -33.942,15.5565 -33.942,8.3515 0,-2.0041 5.56,-4.7518 12.358,-6.1113 18.081,-3.6162 41.775,-44.7566 41.775,-72.5274 0,-9.207 -1.369,-10.0333 -13.531,-8.1738 -7.444,1.1382 -29.8,9.2293 -49.676,17.9824 -34.145,15.0391 -36.122,16.6132 -35.916,28.5801 0.118,6.965 4.06,16.8817 8.754,22.0352 9.715,10.6653 4.992,12.4387 -8.307,3.123 -10.565,-7.4005 -26.256,-31.6666 -26.256,-40.6094 0,-3.4708 3.751,-7.2943 8.331,-8.4921 12.723,-3.3269 10.126,-12.0902 -3.122,-10.5411 -11.405,1.3337 -11.458,1.2328 -11.08,-23.6504 0.256,-16.8407 3.327,-30.7283 9.414,-42.5996 8.885,-17.3253 9.321,-17.5728 26.69,-15.2128 12.376,1.6815 24.199,-0.093 39.512,-5.9278 z m -286.377,3.4003 c -6.384,0.062 -13.147,9.4553 -10.205,14.2129 4.015,6.4989 16.801,3.732 16.801,-3.6367 0,-3.2133 -2.389,-9.5708 -4.68,-10.2969 -0.428,-0.1357 -0.862,-0.2178 -1.298,-0.2558 -0.205,-0.018 -0.412,-0.025 -0.618,-0.024 z m 55.159,8.4961 c -0.648,-0.019 -1.32,0.032 -2.008,0.1641 -4.19,0.807 -7.501,6.107 -8.309,10.2969 -1.058,5.5016 2.674,8.331 8.176,7.2715 4.189,-0.8069 8.283,-4.8922 9.09,-9.0821 0.925,-4.8139 -2.415,-8.5107 -6.949,-8.6504 z m 307.939,10.041 c 1.972,0.1231 2.436,2.4319 2.436,7.6915 0,5.4517 -3.516,13.0948 -7.815,16.9843 -6.914,6.2586 -8.103,6.3338 -10.285,0.6465 -3.362,-8.7618 0.832,-18.3021 10.26,-23.3476 2.496,-1.3357 4.221,-2.0485 5.404,-1.9747 z m -92.021,19.4668 c -3.777,-0.1339 -5.489,2.2385 -5.489,7.4532 0,5.9596 2.672,8.6328 8.631,8.6328 10.673,0 9.459,-13.7825 -1.396,-15.8731 -0.625,-0.1201 -1.205,-0.1936 -1.746,-0.2129 z m -34.198,0.2579 c -7.971,-0.293 -8.701,7.4293 -8.771,9.2753 0,8.0603 2.131,10.7188 8.613,10.7188 6.544,0 8.3,-2.2438 7.289,-9.3281 -0.986,-6.9208 -3.402,-10.3404 -7.131,-10.666 z m -285.461,5.5312 c -3.307,-0.1233 -5.203,5.7223 -5.203,16.0234 0,12.1481 3.028,19.4658 12.078,29.1543 10.421,11.1567 14.857,12.8894 32.276,12.627 23.28,-0.3509 45.179,-11.3714 45.179,-22.7363 0,-6.11 -8.52,-10.7062 -39.562,-21.3321 -21.758,-7.4486 -41.906,-13.6295 -44.768,-13.7363 z m 428.287,12.0293 c 0.824,0.012 1.348,0.076 1.499,0.207 0.605,0.5241 -2.796,5.9074 -7.557,11.961 -12.545,15.9473 -0.21,28.7281 12.707,13.166 2.851,-3.4357 6.917,-6.2461 9.035,-6.2461 5.611,0 -9.992,19.9015 -17.363,22.1445 -3.436,1.0455 -9.205,3.1253 -12.815,4.6231 -5.224,2.1666 -6.517,-0.081 -6.32,-10.9824 0.135,-7.5366 -1.181,-17.6987 -2.928,-22.5821 -2.755,-7.7052 -1.367,-9.1504 10.487,-10.9551 5.633,-0.8567 10.779,-1.3605 13.255,-1.3359 z m -417.466,5.1172 c 0.314,0 0.659,0.01 1.031,0.037 10.421,0.803 42.421,14.1578 44.453,19.4531 1.194,3.1121 -0.445,7.3097 -3.641,9.334 -6.272,3.9707 -19.247,4.4523 -27.763,1.0254 -6.264,-2.5199 -19.202,-26.1666 -16.045,-29.3242 0.344,-0.3432 1.021,-0.5115 1.965,-0.5254 z m 342.125,31.0723 c 0.532,0.043 0.814,0.2305 0.814,0.582 0,0.1815 0.295,-5e-4 0.346,0.049 3.45,3.4493 -11.155,38.3436 -19.983,47.7403 -12.565,13.3745 -36.079,12.9381 -49.087,-0.9082 -5.372,-5.7172 -8.982,-11.154 -8.018,-12.0801 4.074,-3.9168 67.959,-36.0187 75.928,-35.3828 z m -196.873,69.7031 c 19.078,0.2998 38.632,8.0602 57.363,20.3945 12.641,5.4068 26.899,34.11 25.285,50.9121 -0.992,10.3064 -0.257,9.5082 -1.293,11.3496 -19.6,2.3653 -6.29,13.8175 -3.234,15.0547 -23.441,75.3512 -129.555,61.7511 -149.196,12.2559 -10.794,-38.8769 -2.331,-67.7753 28.038,-95.7676 13.648,-10.153 28.199,-14.4323 43.037,-14.1992 z m 202.076,43.6894 c -22.49,0.1945 -53.09,6.7309 -60.586,13.3711 -41.985,27.3751 -54.751,63.9125 -53.893,120.0664 -0.03,48.3952 3.062,60.298 11.932,54.8164 2.732,-1.6896 4.441,-21.36 4.441,-51.1562 0,-58.5636 5.986,-74.1762 40.073,-104.5566 110.887,-63.0901 119.018,69.953 117.576,113.4199 -1.185,31.3143 -0.675,33.7969 6.949,33.7968 7.075,0 8.133,-2.6289 7.559,-18.7421 -2.716,-117.526 -13.633,-144.3567 -55.422,-158.8653 -4.538,-1.5755 -11.132,-2.2151 -18.629,-2.1504 z m -219.793,24.9493 c -2.811,0.1631 -4.67,3.0293 -4.67,8.08 0,2.7691 3.396,5.0371 7.551,5.0371 11.023,-3.5182 8.339,-13.0494 -2.307,-13.1132 -0.195,-0.013 -0.387,-0.015 -0.574,0 z m 54.033,2.4394 c -3.729,-0.072 -5.806,3.8767 -5.842,6.9024 0,5.6867 1.974,7.7228 6.61,6.83 3.634,-0.7001 6.611,-3.7721 6.611,-6.83 0,-3.0583 -2.977,-6.1322 -6.611,-6.8321 -0.264,-0.043 -0.52,-0.065 -0.768,-0.07 z m -3.062,37.5918 c -5.602,0.045 -14.852,2.1012 -31.125,0.7656 -31.739,-2.6057 -29.114,12.0736 2.966,21.4297 10.667,2.0148 15.905,5.7432 26.778,-2.3066 6.513,-4.8218 15.24,-14.0596 5.894,-19.0606 -1.181,-0.6324 -2.646,-0.8427 -4.513,-0.8281 z" fill="#00B894" transform="translate(-199.03215,142.58353) matrix(0.26458333,0,0,0.26458333,-3781.4683,-494.77959) translate(-6456.8127,-1828.5152)"/>
</svg>