<?xml version="1.0" ?><svg height="156.1144mm" viewBox="0 0 253.14763 156.1144" width="253.14763mm" xmlns="http://www.w3.org/2000/svg">
    <path color="#000" d="m 16559.17,3383.1958 c -50.772,0 -91.93,46.7559 -91.93,104.4361 0,57.6825 41.157,104.4444 91.93,104.442 50.77,0 91.926,-46.7623 91.924,-104.442 0,-57.6774 -41.156,-104.4346 -91.924,-104.4361 z m 261.053,36.1195 c -53.882,0 -93.285,43.1778 -93.283,96.1898 0,53.0097 39.365,100.5067 93.245,100.5068 53.88,0 109.26,-50.3656 109.262,-103.3751 0,-53.0121 -55.342,-93.3215 -109.224,-93.3215 z m 242.972,187.4358 c -24.519,0.3468 -52.542,13.2369 -67.4,38.8402 -19.51,33.6126 -26.879,188.6667 -33.028,243.5945 83.579,39.0782 200.302,18.8743 200.302,18.8743 0,0 28.027,-129.6551 11.174,-194.7623 -29.84,-74.0714 -37.254,-92.4487 -94.84,-104.7838 -5.08,-1.2534 -10.55,-1.8429 -16.208,-1.7629 z m -461.153,37.0711 c -113.052,14.4501 -106.946,74.2432 -88.958,205.723 17.068,71.0006 189.953,28.1968 189.953,28.1968 -4.53,-109.6571 25.026,-249.6986 -100.995,-233.9198 z m 228.338,13.75 c -85.766,1.2956 -85.091,146.2972 -92.944,211.2756 7.253,32.5845 185.149,43.7412 190.967,3.8874 11.398,-119.2454 31.735,-213.1681 -98.023,-215.163 z m -448.497,5.9476 c -20.34,-0.4758 -40.675,8.5644 -56.243,11.371 -15.861,2.8595 -18.853,14.9084 -24.377,24.5839 -5.522,9.6755 -26.878,8.5481 -36.01,14.5125 -9.13,5.9642 2.068,21.4054 7.297,49.5705 5.228,28.1649 -0.224,38.7043 23.193,50.2354 5.302,37.3104 93.594,52.6347 120.173,43.7387 26.582,-8.896 41.31,-38.171 46.834,-57.2568 5.522,-19.0859 -16.125,-115.4464 -22.974,-123.664 -6.848,-8.2176 -23.452,-7.7926 -49.187,-12.2615 -2.892,-0.5021 -5.798,-0.7616 -8.706,-0.8297 z m 761.713,71.7083 -5.241,96.396 c -17.226,-24.2194 -46.702,-42.5716 -129.506,-35.3875 l 1.444,-44.7513 c 46.166,26.1081 91.36,34.5271 133.303,-16.2572 z m -664.279,63.6499 c -8.836,19.1521 15.984,33.4038 21.064,16.306 0.362,-13.5049 -10.874,-28.7945 -21.064,-16.306 z m -172.899,45.9347 c -8.64,-0.2073 -17.803,1.7719 -24.816,3.6359 -18.703,4.9703 -30.335,39.4986 -18.039,53.0841 12.299,13.5855 53.166,-5.8316 69.44,-26.7067 0.783,-23.2363 -12.182,-29.6676 -26.585,-30.0133 z m 117.241,21.3875 c -4.169,0.018 -8.539,0.3419 -13.115,1.0065 -48.823,7.091 -65.538,33.4019 -61.12,54.5422 0,0 148.746,13.9825 142.046,-7.8205 -6.074,-19.759 -27.508,-47.9032 -67.811,-47.7282 z" fill="#FFFFFF" overflow="visible" paint-order="fill markers stroke" transform="translate(10.430376,97.967489) matrix(0.26458333,0,0,0.26458333,-4305.8192,-981.46363)"/>
    <path d="m 16858.502,3309.6445 c -11.896,0.083 -28.767,13.2717 -34.729,28.4512 -3.523,8.9684 -6.904,7.6856 -8.775,7.6855 -1.871,0 -5.884,-0.4685 -4.447,-4.2167 1.801,-4.6887 -1.098,-8.6625 -5.135,-7.3086 -3.228,1.0824 -8.259,2.7831 -8.129,11.4472 -0.08,10.0071 -2.424,13.5109 -9.322,7.7852 -8.087,-6.7117 -13.131,0.3947 -13.131,12.5273 0,6.6846 -6.443,6.4123 -11.463,6.0137 -5.571,-0.4421 -7.004,2.1177 -6.088,10.8711 0.659,6.2986 -0.746,11.4551 -3.123,11.4551 -2.378,0 -4.32,-2.0325 -4.32,-4.5137 -3.567,-6.416 -8.655,-0.8234 -10.414,3.4707 -3.011,8.8667 4.829,15.9902 4.068,15.8887 -2.147,-0.2857 -17.774,9.1992 -3.5,17.3574 8.702,4.9737 3.354,18.7129 3.354,18.7129 -10.523,4.8212 -13.424,13.4196 -1.916,15.7012 6.847,10.9941 -9.904,29.2274 7.736,51.414 5.371,6.7551 7.002,17.4063 7.002,21.5215 0,4.1152 2.48,8.977 5.516,10.8086 3.035,1.8316 8.456,5.9778 7.808,9.5781 -2.893,16.0556 23.351,18.5754 31.891,16.9649 7.993,-1.5074 13.283,6.7104 14.597,10.1328 2.412,6.2848 18.504,8.8819 19.309,3.0312 0.57,-4.1492 13.35,-11.1524 25.314,-2.5976 14.706,10.516 25.945,-1.0511 27.514,-5.1426 1.209,-3.1519 3.813,-6.1869 5.66,-5.7285 1.709,0.4242 12.651,3.6836 16.782,-12.1699 3.016,-11.5731 15.249,-5.4315 9.388,-20.6856 -1.443,-3.7596 -1.821,-11.7296 5.467,-18.2656 6.044,-5.4196 5.801,-21.0489 7.211,-32.4883 0.544,-6.1014 0.863,-11.2647 1.047,-15.8203 5.307,0.2191 10.558,-0.069 15.803,-0.4238 13.602,-1.876 5.105,-12.3235 -5.145,-13.1114 l -10.584,-0.4902 c -0.586,-14.4743 -3.249,-18.4368 -3.107,-28.5156 7.399,-2.9483 6.395,-13.8857 -4.25,-13.4395 -1.053,-2.7729 1.871,-8.7213 -3.391,-21.4668 -3.548,-8.5891 -8.164,-11.7181 -11.727,-15.7265 -3.562,-4.0084 -5.025,-7.2891 -3.244,-7.2891 1.78,0 1.001,-2.6966 -1.738,-5.9961 -2.738,-3.2997 -7.652,-4.9767 -10.92,-3.7226 -3.268,1.2541 -5.939,0.3322 -5.939,-2.0489 0,-2.3812 3.745,-5.5186 8.326,-6.9726 4.581,-1.4539 8.326,-4.3914 8.326,-6.5274 0,-5.1628 -17.494,-4.9432 -31.537,0.3965 -15.137,5.7548 -17.685,1.9486 -5.492,-8.2051 9.719,-8.0945 9.749,-8.2945 1.154,-8.4297 -4.845,-0.076 -13.94,3.8939 -20.211,8.8262 -10.537,8.2891 -11.285,8.381 -9.9,1.1895 0.824,-4.2793 7.808,-12.0296 15.519,-17.2266 10.666,-7.1882 12.496,-10.038 7.637,-11.9023 -1.449,-0.5557 -3.05,-0.8096 -4.746,-0.7989 z m -17.313,50.836 c 3.475,-0.044 6.941,0.1492 10.37,0.5898 18.545,2.9655 43.379,21.6087 52.64,39.5176 7.206,13.9375 2.54,16.0105 -8.521,3.7871 -10.148,-11.2146 -28.751,-12.3998 -40.67,4.2656 -6.178,8.6363 -8.43,9.2002 -21.065,3.2071 -23.956,-12.7494 -51.88,8.1823 -50.767,28.5371 0,0 -17.948,3.944 -24.571,3.4043 -0.741,-49.2848 41.582,-82.7921 82.584,-83.3086 z m 256.082,17.2656 c -72.72,6.0253 -96.062,60.5599 -102.003,97.1484 -1.669,12.598 -0.04,15.5302 0.181,20.6875 -13.807,0.9599 -17.294,15.0668 1.088,13.8789 2.028,10.6959 -6.044,8.6901 -10.959,27.875 -3.334,13.0031 0.131,23.1085 2.547,24.7305 2.165,1.4531 9.027,6.3984 6.625,9.9316 -4.261,6.2684 -0.66,9.7763 9.314,7.2832 3.534,-0.8834 5.467,1.8758 4.053,4.1661 -1.416,2.2904 -1.416,6.0376 0,8.3281 4.426,7.1639 10.456,4.5775 14.572,-6.2481 4.543,-11.9535 9.06,-12.8452 22.01,-4.3671 30.462,13.9629 64.969,24.362 112.912,-2.1778 4.973,-2.0707 9.396,1.8108 16.039,3.1426 12.039,2.4129 14.822,-1.9694 6.524,-10.2676 -7.403,-7.4028 -1.839,-10.0188 10.955,-5.1543 17.409,6.6188 22.188,0.2185 8.199,-10.9746 -7.933,-6.3474 -9.902,-9.7298 -5.685,-9.7422 3.551,-0.012 8.69,2.2174 11.425,4.9532 3.856,3.8561 6.86,2.9613 13.334,-3.9883 9.155,-9.8258 11.259,-25.9688 3.387,-25.9688 -2.728,0 -1.572,-2.4811 2.568,-5.5097 7.166,-5.2402 7.052,-6.0212 -2.33,-16.1719 -5.421,-5.8661 -10.455,-15.9616 -11.236,-36.8184 -2.364,-63.1727 -68.097,-84.1395 -113.52,-84.7363 z m -11.742,21.4238 c 3.572,0.1417 6.502,1.4131 8.582,3.9375 15.572,18.9079 46.436,38.4205 67.762,42.8477 19.733,4.0968 23.145,6.309 27.074,17.5742 6.073,17.4259 8.365,35.1232 0.78,56.6621 -14.313,32.171 -41.882,54.4361 -75.418,59.0606 -49.301,6.2985 -92.336,-17.2753 -101.635,-55.6719 -2.415,-9.9755 -1.438,-13.4278 -1.438,-13.4278 21.396,-1.7646 11.352,-15.6579 -1.295,-14.2597 -0.756,-16.4926 3.604,-36.2778 12.217,-48.2051 21.067,-28.6132 46.502,-47.7825 61.803,-48.5098 0.536,-0.025 1.058,-0.028 1.568,-0.01 z m -207.099,12.4824 c 2.376,-0.1013 4.768,0.2626 7.041,1.1602 13.178,7.0527 22.983,20.4935 15.203,32.3672 -9.149,20.7438 -37.706,6.2137 -40.399,-11.4063 -2.043,-12.4925 7.868,-21.6819 18.155,-22.1211 z m -56.45,7.461 c 5.27,0.093 10.428,2.2212 14.952,6.3203 6.704,6.2359 6.005,28.267 -1.092,34.3379 -12.359,10.5731 -21.194,11.4059 -29.787,2.8125 -10.636,-10.6346 -10.508,-26.7857 0.302,-37.5957 4.968,-4.0266 10.353,-5.9682 15.625,-5.875 z m 317.981,1.8066 c 0.758,-0.045 2.363,0.4753 4.881,1.4199 4.195,1.5741 10.287,2.8614 13.535,2.8614 3.248,0 5.904,1.8715 5.904,4.1621 0,6.7784 -15.166,4.7468 -21.355,-2.8613 -3.146,-3.8657 -4.23,-5.5075 -2.965,-5.5821 z m -259.459,4.4063 c -0.3,-0.012 -0.596,-0.01 -0.887,0 -3.875,0.1899 -6.812,2.7267 -6.002,8.0273 1.19,4.5552 2.428,7.5225 7.875,7.625 5.475,0.1034 10.27,-10.6154 5.514,-13.5547 -2.099,-1.2956 -4.399,-2.0176 -6.5,-2.1015 z m -57.332,8.9902 c -2.045,0 -8.406,0.8913 -8.406,6.6172 0,10.2911 8.755,13.2265 13.291,5.8867 3.01,-4.8702 -0.03,-12.5039 -4.885,-12.5039 z m 93.492,16.3848 c 0.847,2.3234 1.376,4.5999 1.703,6.8418 -6.315,2.0169 -6.278,8.6294 0.389,11.5527 -0.08,2.2305 -0.17,4.4406 -0.17,6.6348 0,30.8358 -25.726,70.2382 -45.861,70.2383 -6.57,0 -13.11,1.8755 -14.526,4.166 -3.053,4.9428 -7.902,4.8367 -10.414,0.8847 -3.351,-5.2732 -13.249,-1.6638 -19.41,0.7012 -29.986,-5.6018 -55.004,-23.8654 -63.967,-49.3262 -9.821,-28.6343 -8.119,-44.33 -8.119,-44.33 7.478,-1.9453 21.409,-3.4708 25.09,-3.3555 6.133,0.1921 8.326,3.0521 11.463,9.9375 2.58,5.6628 9.48,11.4993 15.334,12.9687 14.882,5.4784 30.081,-2.5587 39.232,-12.2304 6.173,-6.1789 9.389,-6.7977 16.256,-3.1231 4.71,2.5203 40.101,17.4136 53,-11.5605 z m 144.578,13.3926 c -7.72,-0.2191 -10.206,10.661 -7.42,15.0585 3.308,5.2264 8.003,7.0669 15.662,2.2168 6.009,-3.8039 1.02,-16.832 -5.679,-16.832 -0.911,-0.2797 -1.764,-0.4207 -2.563,-0.4433 z m 59.336,3.5781 c -2.508,-0.038 -4.977,0.6906 -6.726,2.4394 -2.397,2.3949 -3.318,10.639 -1.7,13.2559 3.68,5.9533 15.458,3.9732 17.776,-2.9883 1.565,-4.7016 -3.829,-12.6246 -9.35,-12.707 z m -249.021,10.664 c -17.657,0.322 -52.719,11.37 -53.28,27.6895 1.892,5.6808 16.07,3.866 20.682,0.709 11.876,-8.1298 10.492,8.3871 25.066,-1.7051 9.546,-6.6116 7.382,0.1097 11.526,-0.062 7.666,-0.318 3.301,-15.4612 11.617,-2.8574 11.347,4.1534 12.877,-2.9994 12.877,-5.1504 0,-6.9967 -6.222,-17.9957 -26.836,-18.6192 -0.532,-0.012 -1.083,-0.014 -1.652,0 z m 18.105,30.8633 c -3.816,0.196 -8.614,3.1313 -11.164,5.291 -9.851,8.1414 -31.356,4.9963 -48.699,1.5274 -10.146,-2.029 -10.535,2.6816 -10.535,2.6816 -0.352,3.5365 0.556,6.6303 11.478,10.8262 9.976,3.8335 29.625,6.8315 45.74,1.082 12.737,-4.5449 18.291,-13.4561 18.291,-18.0429 -0.885,-2.614 -2.821,-3.4829 -5.111,-3.3653 z m 251.449,6.9668 c -1.735,0.087 -3.857,0.5759 -9.287,2.082 -19.255,5.3411 -45.215,8.6607 -85.183,10.8887 -7.987,0.4453 -1.593,13.0833 13.543,26.7559 19.698,17.7975 34.527,19.3103 67.285,6.8633 21.983,-8.3533 36.974,-28.3571 36.974,-38.0293 0,-5.1395 -6.371,-7.9667 -16.361,-8.2305 -3.885,-0.1027 -5.235,-0.4172 -6.971,-0.3301 z m -9.505,16.7305 c 0.957,0.021 1.783,0.071 2.445,0.1582 8.282,1.0947 1.638,11.4971 -11.414,17.8789 -8.016,3.9197 -21.374,7.2162 -29.684,7.3262 -15.064,0.1995 -27.367,-8.3713 -22.746,-15.8477 1.883,-3.0468 47.026,-9.8343 61.399,-9.5156 z m 203.925,42.5117 c -12.599,0.1829 -19.541,2.7533 -33.211,10.1934 -11.523,6.2715 -21.931,13.9732 -23.138,17.1172 -1.206,3.1442 -5.068,5.7148 -8.576,5.7148 -3.653,0 -6.375,3.6463 -6.375,8.5352 0,4.6943 -2.848,14.0422 -6.329,20.7714 -3.479,6.7295 -7.184,27.7186 -8.232,46.6426 -1.732,31.2597 -6.356,86.024 -13.227,156.6426 -2.375,24.42 -1.961,26.3271 5.325,24.9297 6.472,-1.2412 8.398,-6.603 10.697,-29.8106 1.54,-15.5653 5.616,-32.5949 9.057,-37.8457 16.889,-25.7766 85.154,-34.9566 116.24,-15.6289 8.618,5.3582 17.477,13.1073 19.679,17.2207 5.354,10.0054 7.073,48.4381 3.022,67.5664 -2.988,14.1014 -2.283,15.9327 8.336,21.625 9.357,5.0154 12.404,5.1909 15.764,0.8907 2.29,-2.9325 6.339,-4.6036 8.992,-3.709 7.551,2.5457 10.466,-5.3682 18.635,-50.461 12.555,-69.2983 13.884,-100.6971 5.917,-140.1836 -3.899,-19.3221 -9.641,-39.8129 -12.75,-45.539 -3.108,-5.7262 -8.339,-16.0351 -11.638,-22.9063 -7.377,-15.3671 -22.394,-29.2321 -36.211,-33.4414 -5.717,-1.7417 -12.515,-6.0702 -15.111,-9.6191 -3.149,-4.3099 -13.749,-7.0305 -31.92,-8.1875 -5.918,-0.3768 -10.747,-0.5786 -14.946,-0.5176 z m 9.643,11.5176 c 7.313,0.089 13.037,1.5247 14.006,4.4336 0.84,2.5194 4.347,4.582 7.797,4.582 12.642,0 32.012,29.8997 35.966,55.5176 1.857,12.0276 1.231,15.0189 -2.537,12.1582 -2.748,-2.0875 -25.608,-4.195 -50.802,-4.6797 -25.194,-0.4846 -48.826,-1.7775 -52.51,-2.8789 -12.671,-3.7869 -16.316,7.4685 -8.211,25.3711 9.712,21.4572 19.452,29.7564 40.469,34.4785 21.947,4.9311 43.446,-2.1423 62.416,-20.5273 l 14.054,-13.6211 v 10.6699 c 0,13.8679 -12.79,29.8205 -30.715,38.3262 -52.121,24.7332 -120.779,-25.734 -106.308,-78.1426 4.835,-17.5109 13.252,-24.8741 24.389,-21.3399 10.39,3.2977 11.396,-4.1596 1.324,-9.7968 -6.734,-3.7681 -6.667,-4.6216 1.031,-13.127 4.527,-5.003 13.655,-11.9057 20.289,-15.3359 7.908,-4.0895 19.939,-6.202 29.342,-6.0879 z m -464.068,23.8574 c -35.025,-0.2075 -57.559,8.6253 -82.604,32.373 -22.386,21.2286 -25.676,31.1757 -25.676,77.7598 v 42.1055 l -15.617,-1.2949 c -13.557,-1.1221 -15.785,-2.7997 -16.928,-12.7422 -0.724,-6.2988 0.679,-11.4512 3.121,-11.4512 6.753,0 5.305,-11.2745 -1.798,-14 -5.484,-2.1046 -5.414,-4.1452 0.617,-16.793 6.397,-13.4154 6.387,-15.4076 -0.194,-29.2812 -3.887,-8.188 -9.752,-14.8848 -13.037,-14.8848 -3.284,0 -7.154,-4.7032 -8.593,-10.4492 -2.683,-10.6801 -17.968,-17.8515 -26.637,-12.4941 -2.52,1.5582 -6.845,1.0407 -9.608,-1.1582 -2.763,-2.1985 -13.629,-5.2442 -24.156,-6.7657 -14.606,-2.1113 -20.393,-1.258 -24.424,3.5996 -3.037,3.6574 -9.067,5.4793 -14.177,4.2872 -15.919,-3.7137 -41.624,8.1244 -48.455,22.3164 -4.137,8.5884 -9.326,13.0066 -15.348,13.0664 -25.275,0.2505 -40.305,15.0234 -30.789,30.2617 2.835,4.537 5.906,11.3197 6.826,15.0683 10.747,43.7954 10.989,46.8851 4.307,54.2676 -3.653,4.037 -6.643,9.087 -6.643,11.2188 0,5.491 12.564,12.6406 28.252,16.0859 15.61,3.4287 17.95,10.6152 3.457,10.6152 -16.315,0 -56.695,25.6013 -56.695,35.9473 0,2.8774 6.331,12.1391 14.068,20.584 12.126,13.2357 15.995,15.0716 28.049,13.3027 7.69,-1.1288 17.415,0.03 21.605,2.5762 6.153,3.7375 9.001,2.9422 14.807,-4.1309 3.952,-4.8172 11.218,-10.9176 16.146,-13.5546 6.243,-3.341 9.353,-9.5177 10.243,-20.3868 l 1.275,-15.5976 24.986,4.3476 24.987,4.3438 -23.944,11.041 c -20.253,9.3357 -23.943,12.717 -23.943,21.9492 0,6.0033 1.995,14.6543 4.439,19.2227 7.19,13.4336 18.461,7.9887 18.461,-8.9199 0,-13.3783 1.763,-15.3996 22.614,-25.961 41.463,-21.0015 85.112,-13.001 98.84,18.1172 4.391,9.9522 9.984,16.2383 14.447,16.2383 11.262,0 13.355,-7.5836 5.508,-19.959 -15.331,-24.1807 -27.738,-33.7957 -47.289,-36.627 -25.992,-3.7645 -26.368,-4.2718 -12.967,-17.6718 9.382,-9.3825 14.847,-11.4939 27.242,-10.5176 8.529,0.6716 18.808,-0.5464 22.846,-2.707 5.949,-3.1834 8.315,-1.58 12.474,8.4609 9.168,22.1309 13.896,14.6358 9.914,-15.7148 -4.725,-35.9927 -3.518,-86.7433 2.616,-109.9454 12.865,-48.6578 78.289,-77.4107 123.464,-54.2617 33.24,17.0339 51.756,73.5181 53.481,163.1641 0.736,38.2798 2.561,56.0884 5.726,55.8047 2.558,-0.2289 6.516,-0.6996 8.797,-1.043 6.15,-0.9264 1.193,-117.7514 -6.209,-146.3145 -18.242,-70.3989 -42.081,-93.1676 -97.884,-93.498 z m 441.296,2.8184 c -4.938,0.1415 -9.556,5.9189 -6.338,11.1269 1.539,2.49 4.447,4.5254 6.465,4.5254 6.434,0 9.444,-8.882 4.637,-13.6875 -1.434,-1.4361 -3.119,-2.012 -4.764,-1.9648 z m 41.084,3.1601 c -7.46,0 -10.392,8.3563 -4.867,13.8828 4.207,4.2067 8.216,3.364 13.342,-2.8105 5.501,-6.629 2.104,-11.0723 -8.475,-11.0723 z m -248.236,7.3926 c -24.228,0.045 -34.792,2.2631 -52.797,11.0723 -32.827,16.0609 -38.427,30.0029 -46.777,116.5566 -3.673,38.0724 -5.549,70.3495 -4.172,71.7266 7.461,7.4619 14.87,-3.9736 17.088,-26.377 10.021,-101.2416 15.835,-123.0169 38.033,-142.5078 22.381,-19.6513 73.892,-22.4582 102.473,-5.582 28.471,16.8116 41.589,80.4844 32.72,158.7773 -2.402,21.2016 -3.217,40.3953 -1.822,42.6524 1.395,2.2571 4.709,3.3882 7.361,2.5136 11.474,-3.7832 15.019,-129.7724 4.637,-164.7304 -13.006,-43.8002 -43.79,-64.199 -96.744,-64.1016 z m -446.977,21.7598 c 2.045,0 4.775,2.7508 6.065,6.1132 2.503,6.526 -2.676,12.097 -7.119,7.6543 -3.969,-3.9687 -3.219,-13.7675 1.054,-13.7675 z m -23.88,0.6836 c 1.863,0.01 2.252,1.8876 0.976,5.2148 -1.392,3.6269 -4.36,6.5957 -6.596,6.5957 -5.473,0 -2.046,-9.4682 4.18,-11.543 0.38,-0.1268 0.735,-0.2072 1.049,-0.2441 0.137,-0.016 0.266,-0.024 0.391,-0.023 z m 58.304,3.8867 c 0.698,-0.028 1.323,0.1982 1.85,0.7246 1.759,1.7587 1.442,8.1595 -0.701,14.2265 -4.693,13.2771 -14.307,17.7159 -14.307,6.6055 0,-8.7978 8.27,-21.3702 13.158,-21.5566 z m -114.08,7.9824 c 2.785,0.2473 5.143,4.7536 5.143,12.4336 0,6.8713 -0.709,12.4941 -1.574,12.4941 -4.782,0 -11.497,-13.3052 -9.432,-18.6855 1.552,-4.0423 3.488,-6.0261 5.301,-6.2344 0.189,-0.022 0.377,-0.024 0.562,-0.01 z m 742.873,12.5527 c 2.293,-0.01 4.632,0 6.987,0.022 18.831,0.203 38.568,1.5413 42.189,3.832 5.182,3.2782 4.879,5.1811 -2.068,12.8594 -4.485,4.9552 -13.217,11.627 -19.407,14.8281 -19.995,10.3403 -36.784,5.9006 -49.259,-13.0234 -4.492,-6.8156 -8.182,-13.7958 -8.198,-15.5137 -0.03,-1.9705 13.706,-2.9302 29.756,-3.0039 z m -688.217,6.2754 c 20.85,-0.1236 27.178,1.8352 44.844,13.8828 19.722,13.4485 36.631,34.749 31.588,39.793 -1.319,1.3202 -5.993,2.3965 -10.383,2.3965 -4.543,0 -7.233,2.2394 -6.234,5.2031 0.965,2.8629 6.28,5.2679 11.805,5.3438 9.095,0.1249 9.939,1.7053 8.949,16.6601 -1.592,24.0607 -8.127,41.0162 -20.166,52.3281 -8.94,8.3969 -15.633,10.1752 -42.557,11.2793 -26.894,1.1028 -34.89,-0.2163 -50.457,-8.3144 -25.515,-13.2757 -35.043,-27.6661 -35.637,-53.8223 -0.58,-25.5617 11.654,-54.2481 30.821,-72.2578 11.41,-10.7217 16.349,-12.3673 37.427,-12.4922 z m -85.003,6.9102 c 4.302,0.2037 8.082,2.6454 14.296,7.8203 6.58,5.4787 8.623,9.7712 5.938,12.457 -2.687,2.6859 -6.726,1.195 -11.727,-4.3301 -4.194,-4.6351 -12.485,-8.5635 -18.427,-8.7246 -9.777,-0.2648 -10.012,-0.6296 -2.477,-3.8672 5.385,-2.3138 9.047,-3.514 12.397,-3.3554 z m 868.871,14.0273 c 4.376,0.2039 5.119,49.5491 0.972,84.0645 -1.443,12.0248 -4.523,21.8633 -6.843,21.8633 -5.598,0 -0.685,-99.7138 5.203,-105.6016 0.156,-0.1548 0.308,-0.2538 0.457,-0.2988 0.07,-0.022 0.141,-0.031 0.211,-0.027 z m -160.866,11.3574 c 0.653,-0.042 1.231,0.9444 1.854,2.1661 2.29,1.4154 -5.127,55.5328 -5.127,56.5429 0,1.01 -0.647,6.7149 -2.938,6.7149 -2.29,0 3.905,-58.9962 3.905,-61.4219 0.926,-2.8891 1.654,-3.9598 2.306,-4.002 z m -588.07,9.2969 c -8.617,0.3096 -9.88,6.9102 -4.818,13.0098 2.531,3.0486 6.018,3.9804 8.295,3.2637 7.839,-2.467 7.717,-16.6755 -3.477,-16.2735 z m 769.844,6.1543 c 5.833,0 4.139,30.265 -4.953,88.7637 -4.694,30.1932 -9.966,56.3319 -11.719,58.0859 -1.753,1.7538 -0.745,-14.1721 2.252,-35.3926 2.996,-21.2204 6.659,-54.9803 8.137,-75.0214 1.48,-20.0414 4.31,-36.4356 6.283,-36.4356 z m -820.035,3.334 c -0.526,-0.023 -1.063,0.018 -1.604,0.1367 -7.476,1.6639 -8.978,9.4759 -3.541,13.0117 7.631,4.9027 14.431,-0.2968 12.377,-8.1738 -0.397,-1.5236 -3.552,-4.8121 -7.232,-4.9746 z m 777.808,0.2578 v 27.3535 c 0,24.2725 -3.885,33.752 -9.863,24.0782 -1.114,-1.8009 -11.045,-7.7838 -22.076,-13.293 -19.789,-9.883 -52.239,-12.6615 -72.551,-6.2149 -6.309,2.003 -7.949,0.4688 -7.949,-7.4726 0,-14.2941 2.375,-15.2014 22.015,-8.3828 24.414,8.4746 60.284,5.3942 77.163,-6.625 z m -852.445,26.3145 c 0.127,-0.014 0.265,0 0.414,0.033 0.715,0.169 1.679,0.9023 2.953,2.1777 2.549,2.5481 3.922,6.784 3.045,9.418 -2.071,6.2087 -7.668,0.6103 -7.668,-7.668 0,-2.5633 0.366,-3.8644 1.256,-3.9609 z m 150.264,8.2031 c -0.409,0 -0.842,0 -1.297,0.023 -5.671,0.2308 -15.096,2.1823 -31.545,5.666 -16.031,3.396 -37.114,6.1739 -46.848,6.1739 -11.836,0 -17.697,1.8086 -17.697,5.4648 0,6.1135 19.499,25.5701 29.146,29.0801 31.102,11.3172 84.502,-15.2269 77.161,-38.3574 -1.721,-5.419 -2.786,-7.9947 -8.92,-8.0508 z m 56.691,16.0234 c 2.29,0 4.168,1.8755 4.168,4.166 0,2.2904 -1.878,4.1661 -4.168,4.1661 -2.29,0 -4.16,-1.8757 -4.16,-4.1661 0,-2.2905 1.87,-4.166 4.16,-4.166 z m -78.867,0.795 c 1.187,-0.027 2.286,-0.025 3.299,0 12.15,0.3495 11.787,4.7063 -1.037,13.1093 -18.426,12.0733 -42.277,11.7488 -49.961,-0.6836 -3.344,-5.4103 4.626,-8.0388 34.666,-11.4375 5.124,-0.5797 9.471,-0.9118 13.033,-0.9921 z m -120.729,45.121 c 0.135,-0.011 0.276,-0.01 0.424,0.012 v 0 0 c 1.873,0.2481 4.758,2.8891 7.607,8.2109 2.606,4.8706 8.724,8.3281 14.727,8.3281 6.348,0 10.26,2.383 10.26,6.2461 0,7.215 -2.55,8.0685 -6.248,2.086 -1.415,-2.2905 -6.842,-4.1661 -12.065,-4.1661 -6.089,0 -11.203,-3.7373 -14.244,-10.4121 -2.98,-6.5394 -2.526,-10.1424 -0.471,-10.3047 z m -11.632,29.6133 c 0.174,-9e-4 0.339,0.012 0.498,0.035 1.89,0.2824 2.561,2.3006 1.871,5.8613 -0.792,4.0822 -3.957,8.2589 -7.039,9.2852 -3.585,1.1934 -5.087,-0.8035 -4.168,-5.5508 0.793,-4.0824 3.966,-8.2648 7.047,-9.291 0.672,-0.2238 1.268,-0.3372 1.791,-0.3399 z" fill="#00B894" transform="translate(10.430376,97.967489) matrix(0.26458333,0,0,0.26458333,-4305.8192,-981.46363) translate(-271.76436,29.55388)"/>
</svg>