<?xml version="1.0" ?><svg height="150.39717mm" viewBox="0 0 150.50018 150.39717" width="150.50018mm" xmlns="http://www.w3.org/2000/svg">
    <path color="#000" d="m 16878.81,1990.2109 c -9.619,-0.013 -25.21,8.9192 -34.326,20.7415 -26.859,-8.8163 -36.125,-6.6226 -34.12,3.6257 2.004,10.2484 15.281,28.5515 33.509,51.9539 50.297,-57.1672 48.995,-76.3007 34.937,-76.3211 z m 55.602,113.6844 c -2.387,0.027 -4.588,0.172 -6.545,0.4444 -19.716,2.7462 -56.925,38.7125 -70.635,80.6649 -4.285,11.7293 -6.493,24.3246 -6.496,37.0507 0,52.7819 37.133,95.5726 82.943,95.5736 14.185,-6e-4 28.135,-4.194 40.513,-12.1772 17.287,10.6046 49.592,4.2381 61.541,5.9002 13.668,1.9012 19.881,-27.9612 26.466,-27.7376 6.588,0.2238 0.377,-27.6256 8.828,-27.7374 8.451,-0.1113 17.892,-14.3109 19.507,-24.0406 1.617,-9.7297 -20.873,-10.0671 -20.873,-10.0671 0,0 -25.352,-70.6819 -41.754,-70.4582 -16.405,0.2237 -17.279,-8.5009 -23.988,-23.375 -5.872,-13.015 -43.706,-23.5475 -67.06,-24.029 -0.833,-0.018 -1.652,-0.02 -2.447,-0.012 z m -211.668,2.1033 c -12.208,-0.2294 -26.848,1.7994 -41.621,5.5396 -20.946,1.3865 -40.861,10.082 -56.597,24.7129 -10.914,7.9201 -18.501,16.9625 -20.241,26.6021 -24.058,64.6648 31.736,145.9029 82.756,147.5587 51.706,9e-4 93.808,-43.78 94.48,-98.2446 1.128,-12.6952 4.215,-47.4356 6.112,-68.6876 -5.106,-32.9013 -45.102,-37.0747 -64.889,-37.4811 z m 264.114,232.344 c -0.584,0 -1.177,0 -1.774,0.018 -14.124,0.3945 -31.332,6.9586 -52.277,21.9419 -56.342,40.3046 -58.242,67.8838 -57.861,167.2138 28.071,28.4413 172.815,-3.6089 172.815,-8.9364 0,-4.46 13.386,-179.583 -60.903,-180.2378 z m -278.373,6.5447 c -2.597,0.043 -5.279,0.1829 -8.046,0.4233 -99.886,8.8588 -83.172,52.0346 -97.122,195.4165 142.4,33.2248 189.205,-9.4063 189.205,-9.4063 -3.167,-95.731 -3.516,-187.7691 -84.037,-186.4335 z" fill="#FFFFFF" overflow="visible" paint-order="fill markers stroke" transform="translate(102.53911,-134.4609) matrix(0.26458333,0,0,0.26458333,-4477.3997,-390.72786)"/>
    <path d="m 20184.967,4422.791 c -8.254,-0.1269 -13.785,2.0228 -18.246,6.9531 -5.669,6.2624 -11.088,7.5653 -24.94,6.0039 -33.32,-3.7558 -36.715,21.3895 -6.642,49.1543 8.99,8.2995 16.343,17.0955 16.343,19.5469 0,2.4513 2.324,5.2301 5.166,6.1778 5.997,1.9987 36.736,-30.227 47.502,-49.8008 10.956,-19.9152 4.307,-36.1685 -15.476,-37.8399 -1.294,-0.109 -2.527,-0.177 -3.707,-0.1953 z m 3.568,9.9121 c 1.013,0.038 1.988,0.2307 2.914,0.586 8.043,3.0863 7.288,13.5034 -2.092,28.8847 -4.346,7.1266 -13.612,17.0192 -20.593,21.9903 l -12.694,9.041 -15.088,-14.6465 c -10.296,-9.9996 -14.657,-17.6283 -13.744,-24.0352 1.911,-13.4001 13.469,-13.9876 19.393,-0.9824 5.758,12.6351 13.145,11.7288 20.297,-2.5 5.674,-11.2894 14.519,-18.5944 21.607,-18.3379 z m -207.478,24.709 c -0.131,-0.023 -0.517,0.048 -1.231,0.2266 v 0 c -0.352,0.088 0.602,0.017 1.075,0.014 0.177,-0.1294 0.268,-0.2236 0.164,-0.2422 z m -0.164,0.2422 c -1.386,1.0121 -10.178,5.1742 -8.262,9.0332 2.693,5.42 8.431,7.7034 13.422,10.2734 1.205,0.448 1.581,1.9937 0.633,2.5977 -0.781,0.495 -6.832,0.533 -9.823,-2.584 -8.976,-9.352 -16.917,-3.6805 -23.662,-3.9805 -8.877,0 -12.666,12.4318 -17.435,14.3438 -5.132,1.653 -5.983,2.2616 -6.655,4.7676 -0.131,3.979 -1.119,4.6527 -2.031,0.8437 0,-2.228 -2.482,-4.6387 -5.25,-5.0937 -3.131,-0.514 -6.326,0.4439 -8.937,3.1269 -4.08,4.705 0.04,11.3528 1.076,12.8008 -0.161,-0.217 -0.355,-0.4771 -0.781,-0.9961 -1.364,-1.558 -4.034,-3.9409 -5.94,-5.2949 -3.321,-2.361 -3.608,-2.4383 -7.018,-1.8633 -1.954,0.329 -4.381,0.8132 -5.392,1.0762 -2.56,0.667 -4.86,-0.07 -6.736,-2.1446 -10.49,-7.282 -15.366,4.042 -5.291,13.377 3.272,3.665 10.667,5.2766 18.617,4.0566 2.545,-0.391 2.975,-0.2074 5.82,2.4766 4.859,3.942 1.298,6.6942 -2.228,4.3242 -4.47,-2.32 -10.671,-4.746 -14.094,-2.25 -6.369,4.644 -4.062,0.6723 -4.815,-0.3847 -4.627,-5.74 -13.619,-1.6394 -13.826,4.9316 0.341,7.59 6.081,11.8502 11.024,12.1992 4.472,-0.129 14.107,7.5728 6.037,5.3438 -4.316,-1.506 -9.379,-1.4091 -10.953,0.209 -1.954,1.5642 3.915,5.6656 6.945,7.6054 -6.548,-3.4417 -12.433,2.4272 -10.182,8.9024 0.605,1.63 1.104,3.1461 1.104,3.3691 0,1.082 -5.513,1.1939 -8.446,0.1699 -4.968,-1.036 -11.765,-1.6574 -15.044,1.8946 -12.927,20.991 6.137,21.8258 17.068,27.4668 1.312,1.257 1.313,1.2836 0.04,2.3046 -0.714,0.567 -2.352,0.9821 -3.639,0.9122 -8.25,1.9819 -12.402,1.8074 -13.804,9.6074 -0.841,7.289 -3.567,11.5453 4.654,13.8633 6.8,-1.131 20.132,13.2252 18.06,20.0742 -1.385,4.579 -12.04,-3.4898 -16.136,-1.7168 -11.308,1.934 -1.948,14.242 -4.246,23.623 6.047,7.152 17.731,19.1797 24.961,10.9727 0.08,-0.1145 0.133,-0.231 0.181,-0.3477 8.934,13.7929 19.346,11.6895 30.385,3.1934 0.443,12.7016 3.114,25.5859 11.711,40.4277 14.83,26.8046 27.677,37.1247 54.834,44.0508 49.484,12.6202 94.947,-12.1922 120.492,-65.7617 5.411,-11.3486 9.321,-14.8956 14.586,-13.2246 11.34,3.5992 14.744,-7.0494 4.439,-13.8907 -7.568,-5.0264 -8.988,-9.8683 -9.031,-31.371 1.211,0.6521 2.524,0.9154 3.967,0.6953 13.187,-0.209 13.091,-11.6384 5.26,-16.4844 -3.024,0 -5.705,-0.8716 -5.705,-1.8516 0,-0.623 0.434,-0.8568 1.168,-0.6328 3.645,1.113 4.828,1.0931 7.888,-0.1289 4.836,-1.99 6.25,-6.9981 3.782,-10.9531 -1.803,-1.451 0.281,-0.9516 3.597,0.8594 12.978,3.952 14.36,-4.0096 10.301,-12.3536 -3.245,-7.007 -8.764,-12.5829 -13.236,-16.9179 -1.226,-1.194 -6.002,-2.074 -8.135,-1.5 -2.227,2.104 -3.446,2.8691 -5.996,2.2851 -1.1,-0.606 -0.986,-0.9116 1.279,-3.4336 1.656,-1.844 6.505,-7.46 6.545,-8.83 -0.62,-2.84 -1.843,-3.5544 0.647,-4.8184 1.011,0 3.041,-0.4294 4.511,-0.9414 4.794,-1.669 6.259,-7.4928 2.764,-11.0098 -5.398,-10.734 -15.722,-16.0766 -22.219,-18.5996 -5.781,-2.208 -17.616,0.4193 -20.523,1.7813 -4.478,4.908 -3.187,9.6598 1.857,13.0898 1.999,0.425 1.394,1.595 -1.297,2.5 -1.865,0.6283 -3.09,1.2782 -3.914,2.2149 -1.764,-0.8025 -3.533,-1.5785 -5.308,-2.3321 -0.191,-0.7904 -0.38,-1.6058 -0.506,-2.4922 0.336,0 1.286,-0.9759 2.113,-2.1699 1.888,-2.726 2.697,-7.5377 1.467,-8.7187 -0.482,-0.463 -0.875,-1.7096 -0.875,-2.7676 0,-1.666 0.378,-2.0411 2.803,-2.7871 12.477,-0.329 10.065,-10.0599 9.119,-15.8399 -0.418,-2.403 -1.154,-3.6441 -3.295,-5.5761 -2.743,-2.474 -2.75,-2.4925 -1.319,-3.5215 2.74,-1.974 4.797,-8.0762 2.721,-8.0762 -0.285,0 -0.668,-0.5733 -0.846,-1.2773 -4.356,-4.591 -9.564,-4.508 -14.863,-6.92 -1.536,-1.362 -6.44,-2.9447 -7.781,-2.5117 -0.499,0.162 -1.731,0.4781 -2.74,0.7051 -3.107,0.699 -4.589,6.9072 -2.346,9.8242 0.11,3.166 -4.001,4.1979 -7.219,5.6699 -3.705,1.265 -5.39,6.993 -4.045,11.168 1.76,5.744 -3.464,6.0353 -6.539,6.1563 -4.177,0.182 -7.298,-0.6051 -2.635,-1.9141 1.756,-0.271 3.529,-0.8406 3.942,-1.2656 2.922,-3.005 2.801,-7.9628 -0.238,-9.6328 -6.918,-6.517 -14.985,-10.9848 -18,-18.9258 -2.982,-5.088 -9.019,-3.9434 -13.692,-2.2774 -3.797,1.812 -4.648,-0.687 -6.767,-3.084 -3.158,-3.572 -3.199,-3.6693 -2.121,-5.3613 1.855,-2.908 1.103,-5.1871 -2.321,-7.0371 -11.747,-6.346 -13.592,-7.1152 -17.551,-7.3242 -0.03,-7e-4 -0.09,0 -0.13,0 z m 28.298,34.8008 c 0.697,-0.019 1.332,0.1349 1.893,0.5859 2.602,1.879 5.5,3.3942 8.074,5.1172 2.944,2.488 0.496,2.6237 -1.998,3.1387 -3.83,0.03 -6.946,4.5102 -6.16,8.8652 -3.425,5.742 -5.573,2.4916 -7.68,-1.3183 -0.639,-0.4901 -4.371,-6.7863 -5.652,-9.5333 -0.611,-1.319 -0.909,-3.0327 -0.682,-3.9707 0.377,-1.546 0.677,-1.6391 4.504,-1.496 2.955,0.2739 5.611,-1.3287 7.701,-1.3887 z m -91.962,13.9922 c 0.309,-0.051 1.055,0.4884 2.097,1.5254 1.985,1.979 2.901,2.3383 7.176,2.8203 2.696,0.308 5.051,0.4559 5.24,0.3379 0.187,-0.119 0.412,0.7895 0.502,2.0175 0.09,1.228 0.619,3.3699 1.184,4.7578 0.99,2.435 0.972,2.5432 -0.434,3.0782 -2.013,0.765 -3.921,-0.3189 -6.099,-3.4629 -1.012,-1.462 -2.591,-2.9516 -3.506,-3.3086 -0.915,-0.358 -1.662,-0.9039 -1.662,-1.2149 0,-0.311 -1.044,-1.6315 -2.319,-2.9355 -1.275,-1.304 -2.338,-2.8192 -2.338,-3.3652 0,-0.15 0.06,-0.23 0.159,-0.25 z m 337.919,33.0332 c -7.974,0.2104 -15.433,1.8953 -21.168,5.1484 -52.645,29.8621 -68.689,52.9254 -71.66,103.0039 -1.627,27.4237 -3.052,32.2265 -10.125,34.0762 -9.913,2.5919 -5.971,11.041 5.149,11.041 5.307,0 10.515,5.944 15.916,18.1543 8.903,20.1254 28.382,37.0294 53.121,46.0937 8.953,3.2806 22.836,6.0549 30.853,6.1661 17.322,0.2399 44.741,-11.5566 55.825,-24.0157 8.996,-10.1115 15.821,-11.8051 12.48,-3.0996 -2.577,6.7143 13.258,19.168 24.369,19.168 10.208,0 14.555,-12.5014 6.01,-17.2832 -3.798,-2.1251 -5.656,-6.5345 -4.27,-10.1445 1.615,-4.211 -0.569,-7.1754 -6.418,-8.7051 -13.272,-3.4709 -10.615,-11.4332 7.149,-21.418 11.497,-6.4605 16.125,-4.2539 6.986,3.3301 -10.391,8.624 -7.963,18.0195 4.063,15.7207 6.981,-1.3347 10.412,-0.1218 10.412,3.6797 0,11.0411 14.783,5.7934 19.596,-6.9551 4.163,-11.0297 3.653,-13.6576 -4.04,-20.8262 -8.678,-8.0852 -8.686,-8.2891 -0.724,-14.3105 4.442,-3.3604 9.48,-6.1675 11.197,-6.2402 4.571,-0.1937 3.813,7.2767 -1.043,10.2773 -6.2,3.8317 -5.03,10.4082 1.85,10.4082 7.898,0 18.95,-16.0275 16.129,-23.3828 -1.218,-3.1726 -4.616,-5.7656 -7.557,-5.7656 -2.943,0 -6.472,-4.4598 -7.84,-9.9121 -1.37,-5.4526 -6.259,-10.9049 -10.865,-12.1094 -5.621,-1.4699 -8.375,-5.6684 -8.375,-12.7793 0,-5.8266 -2.643,-12.096 -5.879,-13.9278 -3.238,-1.8316 -6.52,-8.951 -7.291,-15.8222 -1.333,-11.8731 -2.267,-12.4394 -18.82,-11.4082 -16.234,1.0114 -17.509,0.3086 -18.74,-10.4063 -0.99,-8.5935 -4.535,-12.553 -14.049,-15.666 -6.998,-2.2904 -18.119,-7.7117 -24.711,-12.0488 -9.545,-6.2788 -22.185,-9.7343 -34.082,-10.041 -1.159,-0.029 -2.309,-0.029 -3.448,0 z m 6.418,7.6484 c 0.249,-0.011 0.505,-0.01 0.77,0.01 3.699,0.2465 8.919,2.2136 13.889,5.9727 7.975,6.0317 7.967,6.1098 -0.248,5.916 -11.197,-0.2637 -18.741,-3.5675 -18.741,-8.2109 0,-2.1655 1.392,-3.3502 3.61,-3.6231 0.232,-0.029 0.472,-0.051 0.72,-0.062 z m -179.744,10.5977 c 0.09,0.1434 0.186,0.268 0.28,0.4218 0,0.3384 -0.175,0.5608 -0.432,0.6856 -0.04,-0.4868 0,-0.8684 0.152,-1.1074 z m -99.822,-2.209 c 0.813,-0.015 1.594,0.049 2.328,0.207 32.068,1.4165 56.467,4.0362 78.522,12.4902 33.732,16.3426 33.782,48.6247 31.254,76.9278 -1.141,11.9565 -3.004,14.2929 -11.405,14.2929 -12.781,0 -16.61,10.2123 -4.969,13.2559 10.566,2.7633 10.777,4.7866 1.889,18.0938 -12.706,19.0306 -32.57,38.0335 -48.137,46.0566 -24.37,12.5621 -49.185,10.5788 -70.437,-5.6309 -25.768,-19.6546 -34.874,-37.3905 -34.688,-67.6093 0.08,-12.856 1.37,-17.9534 1.827,-31.0528 4.341,-1.6702 5.508,-4.7567 3.927,-10.0449 -0.305,-1.7608 -1.181,-4.2068 -1.873,-6.5937 0.902,-2.8431 1.845,-5.5817 2.832,-8.211 5.427,-1.1697 11.139,-5.1496 11.276,-9.5957 0.05,-5.5419 -4.058,-12.0917 -2.977,-16.414 2.229,-3.1471 4.601,-6.0183 7.141,-8.5879 6.161,1.6284 11.907,0.3497 13.146,-6.2071 -0.295,-1.7282 12.489,-11.2364 20.344,-11.3769 z m 256.279,13.0488 c 3.843,-0.012 7.266,0.39 9.555,1.3242 6.738,2.7502 6.663,3.2587 -1.006,6.4121 -11.663,4.7952 -35.4,4.8195 -35.4,0.037 0,-4.0181 15.326,-7.7396 26.851,-7.7714 z m 73.168,4.3809 c 0,4.3902 8.254,4.0951 8.254,9.6933 0,7.6461 -5.889,7.7026 -12.181,0.1211 -3.333,-4.0169 -3.498,-6.7254 -0.512,-8.5703 1.452,-0.8985 2.977,-1.2845 4.439,-1.2441 z m -37.582,4.0136 13.547,9.125 c 25.515,17.1855 46.352,69.3872 39.842,99.8125 -4.648,21.7158 -17.567,38.781 -40.238,53.1582 -18.565,11.774 -33.942,15.5565 -33.942,8.3516 0,-2.0042 5.562,-4.754 12.36,-6.1133 18.081,-3.6162 41.775,-44.7546 41.775,-72.5254 0,-9.207 -1.367,-10.0335 -13.529,-8.1738 -7.444,1.1379 -29.802,9.2294 -49.676,17.9824 -34.148,15.0391 -36.123,16.6131 -35.918,28.5801 0.12,6.9649 4.061,16.8798 8.754,22.0332 9.714,10.6656 4.989,12.4407 -8.311,3.125 -10.564,-7.4003 -26.254,-31.6668 -26.254,-40.6094 0,-3.471 3.751,-7.2942 8.332,-8.4922 12.721,-3.3267 10.126,-12.0899 -3.123,-10.541 -11.405,1.3338 -11.456,1.2329 -11.078,-23.6504 0.256,-16.8404 3.326,-30.7263 9.414,-42.5976 8.884,-17.3253 9.319,-17.5749 26.688,-15.2149 12.376,1.6815 24.198,-0.096 39.512,-5.9297 z m 76.723,21.9356 c 1.97,0.1232 2.433,2.4336 2.433,7.6933 0,5.4516 -3.517,13.093 -7.814,16.9825 -6.917,6.2587 -8.103,6.3339 -10.285,0.6465 -3.363,-8.7618 0.833,-18.3002 10.26,-23.3458 2.497,-1.3357 4.223,-2.0502 5.406,-1.9765 z m -343.567,14.8574 c -6.384,0.062 -13.147,9.4533 -10.205,14.2109 4.015,6.4989 16.801,3.734 16.801,-3.6347 0,-3.2133 -2.388,-9.5709 -4.679,-10.2969 -0.428,-0.1357 -0.863,-0.2179 -1.299,-0.2559 -0.205,-0.018 -0.412,-0.025 -0.618,-0.023 z m 215.088,4.5039 c -3.456,0.099 -6.513,3.2333 -6.513,9.6406 0,8.0603 2.13,10.7168 8.613,10.7168 6.546,0 8.299,-2.2419 7.289,-9.3261 -0.987,-6.9209 -4.963,-10.6862 -8.693,-11.0118 -0.234,-0.02 -0.465,-0.026 -0.696,-0.019 z m 36.455,0.1055 c -3.779,-0.1339 -5.49,2.2404 -5.49,7.4551 0,5.9598 2.672,8.6308 8.631,8.6308 10.672,0 9.461,-13.7804 -1.396,-15.8711 -0.623,-0.1201 -1.206,-0.1955 -1.745,-0.2148 z m -196.384,3.8867 c -0.648,-0.018 -1.318,0.032 -2.006,0.1641 -4.19,0.807 -7.503,6.1069 -8.311,10.2968 -1.058,5.5016 2.674,8.331 8.176,7.2715 4.189,-0.8069 8.283,-4.8921 9.09,-9.082 0.925,-4.8139 -2.415,-8.5107 -6.949,-8.6504 z m 305.011,13.9336 c 0.825,0.012 1.348,0.076 1.5,0.207 0.605,0.524 -2.794,5.9092 -7.556,11.9629 -12.545,15.9472 -0.208,28.7263 12.705,13.1641 2.853,-3.4358 6.917,-6.2481 9.035,-6.2481 5.611,0 -9.991,19.9018 -17.361,22.1446 -3.435,1.0456 -9.205,3.1272 -12.817,4.625 -5.223,2.1665 -6.514,-0.08 -6.32,-10.9805 0.135,-7.5367 -1.182,-17.7008 -2.928,-22.584 -2.755,-7.7054 -1.367,-9.1505 10.487,-10.9551 5.635,-0.8569 10.78,-1.3604 13.255,-1.3359 z m -408.752,21.3613 c -3.307,-0.1233 -5.203,5.7243 -5.203,16.0254 0,12.1481 3.028,19.4658 12.078,29.1543 10.421,11.1567 14.859,12.8894 32.278,12.627 23.28,-0.3509 45.178,-11.3715 45.178,-22.7364 0,-6.11 -8.519,-10.7061 -39.561,-21.332 -21.758,-7.4486 -41.908,-13.6315 -44.77,-13.7383 z m -82.146,4.4805 c 0.08,0 0.279,0.079 0.648,0.2305 0.113,0.229 0.227,0.4388 0.34,0.6621 -0.665,-0.546 -1.159,-0.9034 -0.988,-0.8926 z m 415.559,10.3476 c 0.531,0.042 0.814,0.2306 0.814,0.5821 0,0.1815 0.296,-5e-4 0.346,0.049 3.449,3.4494 -11.156,38.3436 -19.983,47.7402 -12.564,13.3746 -36.082,12.9383 -49.09,-0.9082 -5.372,-5.7171 -8.978,-11.1522 -8.013,-12.0781 4.073,-3.9169 67.956,-36.0207 75.926,-35.3848 z m -322.592,2.3204 c 0.314,0 0.659,0.01 1.031,0.037 10.421,0.8029 42.421,14.1579 44.453,19.4531 1.194,3.1121 -0.444,7.3097 -3.64,9.334 -6.272,3.9707 -19.246,4.4523 -27.762,1.0254 -6.264,-2.5199 -19.202,-26.1667 -16.045,-29.3242 0.344,-0.3433 1.019,-0.5116 1.963,-0.5254 z m 358.396,96.1152 c -2.886,-0.07 -6.437,0.4653 -11.176,1.5 -8.535,1.8636 -26.738,5.7465 -40.451,8.6269 -17.027,3.5769 -29.567,9.3495 -39.56,18.2032 -8.047,7.1301 -24,19.3514 -35.453,27.1582 -20.861,4.5025 -51.624,9.2464 -98.942,-24.2305 -6.117,-4.0083 -14.559,-7.2832 -18.763,-7.2832 -4.203,0 -9.42,-1.6206 -11.596,-3.5996 -11.597,-10.5477 -66.741,-16.5283 -81.176,-8.8027 -5.673,3.0364 -10.536,2.7414 -16.928,-1.0371 -7.149,-4.225 -9.356,-4.2473 -10.859,-0.098 -1.037,2.863 -4.445,5.2051 -7.576,5.2051 -3.131,0 -7.196,2.6828 -9.028,5.959 -1.834,3.2763 -7.08,5.6163 -11.658,5.2031 -6.32,-0.5705 -8.021,1.4274 -7.076,8.2851 1.034,7.4892 -0.334,8.6197 -7.992,6.6172 -7.859,-2.0556 -8.721,-1.2331 -5.772,5.5391 1.906,4.3764 3.25,11.7083 2.985,16.2891 -4.441,76.779 -5.633,138.2096 -3.502,143.7636 1.446,3.7666 4.966,6.0693 7.828,5.1172 3.684,-1.2257 5.46,-34.3452 6.086,-68.0176 1.098,-59.0706 2.443,-64.9845 14.641,-64.5449 6.545,0.2356 9.122,-1.7607 8.351,-6.4726 -0.613,-3.7476 1.693,-7.892 5.131,-9.211 3.91,-1.5002 5.271,-5.1885 3.629,-9.8457 -2.146,-6.0844 -1.602,-6.4943 2.984,-2.2402 8.736,8.1066 12.22,6.3441 18.85,-9.5215 7.462,-17.8601 22.055,-24.3841 47.062,-21.041 47.464,6.3453 71.293,48.31 71.293,125.5312 0,29.8976 2.608,58.0742 10.86,58.0742 7.804,0 7.63,-73.3729 -0.287,-110.3164 -3.186,-14.8658 -3.769,-15.8111 -3.241,-16.3398 22.853,35.9595 60.9,35.0988 76.256,35.1484 v 34.7754 c -0.03,48.3952 3.062,60.2983 11.932,54.8164 2.733,-1.6894 4.439,-21.36 4.439,-51.1562 0,-58.5637 5.988,-74.1763 40.074,-104.5567 30.424,-27.1171 69.59,-38.851 75.065,-22.4863 5.999,17.9412 12.077,30.1953 14.975,30.1953 1.733,0 3.148,3.7474 3.148,8.3282 0,5.8049 2.776,8.3261 9.16,8.3261 7.126,0 8.056,1.1152 4.168,5.002 -6.655,6.6565 -6.325,11.6582 0.775,11.6582 7.706,0 11.909,29.567 10.286,72.3965 -1.186,31.3143 -0.676,33.7968 6.949,33.7968 7.076,0 8.133,-2.627 7.557,-18.7402 -2.566,-71.9974 -1.96,-99.4742 2.373,-107.5723 4.224,-7.8912 3.764,-9.0351 -3.641,-9.0351 -10.728,0 -10.778,-4.9507 -0.147,-14.5723 4.579,-4.1456 8.332,-10.0601 8.332,-13.1406 0,-7.6349 -12.175,-7.1153 -15.154,0.6465 -4.42,11.5199 -10.567,6.568 -7.752,-6.2461 2.046,-9.3187 1.236,-12.4942 -3.189,-12.4942 -3.264,0 -9.077,-3.4743 -12.92,-7.7226 -3.553,-3.9256 -16.113,-5.8333 -11.35,-5.8379 z m -228.668,49.6504 c 28.389,20.2103 52.361,34.5483 90.084,27.7617 0.03,4.3372 -0.378,6.7886 -1.513,14.2324 -58.065,3.3726 -74.597,-29.4699 -86.012,-36.9961 0,0 -2.559,-3.0866 -2.559,-4.998 z" fill="#00B894" transform="translate(102.53911,-134.4609) matrix(0.26458333,0,0,0.26458333,-4477.3997,-390.72786) translate(-3313.5291,-2437.8203)"/>
</svg>