<?xml version="1.0" ?><svg height="129.75325mm" viewBox="0 0 163.85976 129.75325" width="163.85976mm" xmlns="http://www.w3.org/2000/svg">
    <path color="#000" d="m 20168.43,5124.3086 c -31.802,0.2077 -62.244,19.4923 -80.135,50.7656 -0.31,-0.7084 -0.526,-1.2785 -0.859,-2.0195 -22.437,-49.8368 -91.753,-2e-4 -91.18,45.0195 0.573,45.0252 -3.154,103.9727 -3.154,103.9727 l 84.072,-120.4258 c -15.375,54.4985 9.791,110.1626 56.515,125 47.219,14.9942 98.668,-17.3227 114.916,-72.1836 2.701,-9.1277 4.31,-18.5552 4.776,-28.0176 9.986,-26.6769 3.602,-61.1699 -7.17,-79.0605 -8.645,-14.3582 -31.424,-19.4827 -56.584,-20.2696 -6.89,-1.8952 -14.006,-2.8286 -21.197,-2.7812 z m 253.968,25.0762 c -53.576,-7e-4 -96.037,42.4648 -94.839,94.8476 1.197,52.3851 37.213,90.2053 90.793,90.2051 53.578,0 100.811,-48.0465 103.224,-90.2051 -1.2,-52.3802 -45.601,-94.8447 -99.178,-94.8476 z m 11.584,217.6543 c -35.267,0.2497 -56.565,9.9491 -67.435,24.4179 -20.811,-27.8022 -36.199,-22.8483 -65.776,-21.3925 -33.413,-4.3939 -58.589,12.835 -71.244,43.3828 -13.032,-26.5634 -42.228,-35.7675 -83.756,-38.7129 -3.112,-0.2209 -6.12,-0.3207 -9.017,-0.3106 -89.75,0.3113 -79.635,77.7132 -85.626,162.395 13.316,18.1309 79.681,48.012 181.14,55.6884 6.47,17.168 120.385,24.7919 141.066,-0.8706 57.147,0 163.13,-11.8498 189.285,-35.3417 -22.329,-121.5927 3.514,-136.0317 -88.58,-186.1816 -14.992,-2.1898 -28.301,-3.1575 -40.057,-3.0742 z" fill="#FFFFFF" overflow="visible" paint-order="fill markers stroke" transform="translate(-23.903514,-47.218416) matrix(0.26458333,0,0,0.26458333,-4388.1062,-661.86635) translate(-3313.5291,-2437.8203)"/>
    <path d="m 16872.276,2680.0096 v 0 c -1.079,0 -2.171,0.016 -3.279,0.041 -11.816,0.2322 -25.24,1.6579 -40.635,4.1914 -23.625,3.8878 -28.727,6.465 -41.645,21.0332 -14.241,16.0594 -14.961,16.3487 -22.009,8.8945 -4.708,-4.9776 -13.139,-7.7051 -23.805,-7.7051 -19.844,0 -41.563,16.9905 -55.389,43.3301 -9.186,17.4964 -9.078,15.5859 -6.053,104.5078 0.313,9.1617 -0.961,19.9369 -2.83,23.9453 -2.64,5.6683 -1.501,7.2891 5.108,7.2891 10.006,0 35.817,-30.2117 39.687,-46.4473 3.208,-13.467 35.455,-70.1582 39.908,-70.1582 1.757,0 0.771,9.3402 -2.191,20.7578 -6.325,24.3883 -4.313,41.0813 8.022,66.4434 11.615,23.8822 25.428,33.602 53.189,37.4316 27.595,3.8071 42.225,1.8093 65.223,-8.9062 22.454,-10.4607 40.61,-28.4761 47.269,-46.8926 3.747,-10.3591 8.024,-14.6356 15.537,-15.5371 13.44,-1.6127 16.69,-11.4948 4.803,-14.6035 -7.526,-1.9677 -8.748,-4.51 -6.814,-14.1778 1.296,-6.4793 3.412,-23.5494 4.705,-37.9316 2.144,-23.8747 1.328,-27.5959 -9.328,-42.8047 -15.303,-21.8374 -34.7,-32.0495 -66.276,-32.666 v -0.01 c -1.052,-0.021 -2.118,-0.031 -3.197,-0.029 z m 243.549,6.75 c -11.955,0.041 -22.577,3.3969 -34.032,8.6367 -13.077,5.9866 -20.794,15.2325 -25.173,15.2325 -4.376,0 -14.067,2.5506 -21.526,5.6679 -15.588,6.5124 -26.353,31.4699 -19.277,44.6895 1.976,14.0101 -4.303,26.3551 -4.369,41.2558 0,17.128 2.309,20.5201 -0.557,22.2911 -16.208,6.3948 -9.825,17.5653 2.74,15.5976 0,-1e-4 5.024,13.3362 11.287,22.4981 13.05,19.0958 34.527,34.8975 54.182,39.8652 22.263,5.6278 49.337,0.6947 79.145,-14.4277 15.46,-7.8433 28.107,-12.7448 28.107,-10.8887 0,4.7187 23.825,12.5176 38.238,12.5176 29.095,0 70.036,-29.6211 70.035,-50.6739 0,-18.5883 -6.856,-27.7926 -22.955,-30.8125 -13.511,-2.5346 -14.523,-3.8147 -14.523,-18.2773 0,-10.26 -2.83,-18.1085 -8.326,-23.082 -4.581,-4.1457 -8.328,-12.6189 -8.328,-18.8262 0,-23.1404 -28.199,-45.7346 -57.055,-45.7148 -8.702,0.012 -28.931,-8.0344 -44.187,-11.7364 -8.601,-2.6696 -16.253,-3.8372 -23.426,-3.8125 z m -291.543,7.209 c 12.067,0 9.887,3.2336 -7.522,11.1758 -24.069,10.9797 -24.756,10.9546 -12.261,-0.4805 6.425,-5.8818 15.33,-10.6953 19.783,-10.6953 z m 90.381,6.2481 9.638,9.2539 c 5.302,5.09 8.594,10.3035 7.315,11.584 -1.281,1.2802 -5.617,-2.8839 -9.639,-9.254 z m -73.698,10.4121 c 2.523,0 15.63,6.4735 29.129,14.3847 13.498,7.9113 32.558,17.0784 42.348,20.375 16.512,5.559 17.894,7.1753 19.045,22.2969 1.944,25.5256 -4.832,38.7227 -19.879,38.7227 -8.421,0 -12.598,2.0721 -12.598,6.248 0,3.4703 3.699,6.2461 8.326,6.2461 21.124,0 -2.865,38.6037 -33.796,54.3828 -27.597,14.0789 -70.599,8.6064 -87.422,-11.1269 -8.507,-9.98 -16.207,-32.7341 -16.207,-47.8985 0,-16.9075 11.478,-49.0157 24.211,-67.7363 10.52,-15.4643 37.181,-35.8945 46.843,-35.8945 z m -96.244,5.8008 c 3.095,0.135 5.416,1.783 9.006,5.0332 7.661,6.9345 7.28,7.5225 -12.221,18.6601 -24.564,14.0299 -44.796,36.3056 -48.568,53.4824 -1.548,7.0414 -4.662,12.8028 -6.924,12.8028 -2.263,0 -3.217,-3.2808 -2.117,-7.2891 1.099,-4.0084 3.148,-14.0935 4.547,-22.4121 3.478,-20.6955 24.746,-48.7696 42.607,-56.2324 6.703,-2.8005 10.575,-4.1803 13.67,-4.0449 z m 336.301,4.1972 c 3.239,-0.144 6.181,1.5242 10.334,5.2832 6.202,5.6148 15.449,7.7129 35.145,7.9727 22.58,0.2978 28.486,1.9939 38.082,10.9258 6.246,5.8145 16.981,13.2122 23.853,16.4394 11.904,5.5911 12.475,7.0428 12.127,30.7227 -0.56,38.0114 -19.602,68.6666 -53.471,86.08 -24.12,12.4014 -58.757,13.8818 -79.425,3.3965 -9.16,-4.6485 -20.862,-13.5929 -26.004,-19.8789 -9.515,-11.6323 -11.286,-18.7936 -11.016,-26.0058 2.141,0 11.716,-1.8154 16.891,-4.9727 7.369,-1.8369 7.955,-13.0023 -3.313,-11.5664 -6.914,0.8813 0.229,-1.0537 -18.941,1.7344 1.419,-5.2945 -5.072,-5.8461 4.929,-36.5469 7.305,-22.4271 29.862,-53.6868 44.332,-61.4297 2.484,-1.3296 4.533,-2.068 6.477,-2.1543 z m -174.973,6.7227 c 5.018,-0.035 10.286,1.8092 11.7,4.0996 3.278,5.3021 -6.369,5.3021 -14.575,0 -5.078,-3.282 -4.543,-4.0477 2.875,-4.0996 z m -152.257,21.3672 c 0.118,1e-4 0.227,0.01 0.326,0.027 2.021,0.3509 -0.332,4.41 -6.192,13.1582 -5.085,7.5885 -16.742,27.2269 -25.902,43.6348 -17.478,31.2999 -22.92,36.212 -22.883,20.6543 0.08,-28.2965 18.438,-59.8514 41.908,-71.9883 6.366,-3.2915 10.393,-5.213 12.356,-5.459 0.14,-0.017 0.268,-0.028 0.387,-0.027 z m 367.765,11.8847 c -3.625,0 -5.994,4.1197 -5.994,10.4082 0,11.6974 4.827,13.4014 12.34,4.3496 5.789,-6.9758 2.441,-14.7578 -6.346,-14.7578 z m -291.955,4.1621 c -3.054,0 -5.553,3.7514 -5.553,8.3321 0,9.4693 10.443,11.3462 13.842,2.4882 2.614,-6.8106 -0.457,-10.8203 -8.289,-10.8203 z m 51.363,4.1661 c -7.833,0 -10.904,4.0039 -8.291,10.8144 3.4,8.858 13.842,6.981 13.842,-2.4883 0,-4.5809 -2.498,-8.3261 -5.551,-8.3261 z m 183.075,0 c -8.098,0 -12.357,6.9758 -9.231,15.121 3.391,8.8373 12.574,4.9074 14.19,-6.0742 0.865,-5.8781 -0.871,-9.0468 -4.959,-9.0468 z m -267.215,27.7187 c -7.363,-0.129 -8.052,2.0341 -7.582,12.6465 0.754,17.0529 15.76,38.1012 32.293,45.2988 7.11,3.0946 18.759,5.6996 25.894,5.7891 13.423,0.1687 34.936,-13.3912 34.901,-22.002 -0.03,-6.5353 -67.001,-40.5067 -81.926,-41.5547 -1.341,-0.094 -2.528,-0.1592 -3.58,-0.1777 z m 367.826,8.4316 c -3.171,-0.2203 -6.393,3.8363 -12.244,14.2793 -15.819,28.2466 -46.943,39.3302 -75.369,26.8418 -5.191,-2.2806 -7.289,-1.3386 -7.289,3.2813 0,3.5669 3.281,8.3959 7.289,10.7305 13.814,8.045 42.257,5.1031 61.892,-6.4043 22.166,-12.9903 38.37,-39.3635 28.973,-47.1622 -1.141,-0.9461 -2.196,-1.4931 -3.252,-1.5664 z m -352.315,10.8262 c 0.527,-0.033 1.096,-0.033 1.706,0 1.387,0.077 2.992,0.3348 4.804,0.7871 16.552,4.1311 39.17,18.9862 37.346,24.5293 -3.485,10.5951 -24.171,6.9677 -39.432,-6.9179 -11.054,-10.0544 -12.323,-17.9008 -4.424,-18.3985 z m 158.127,51.7735 c -3.587,0.064 -3.595,3.1254 -1.783,14.4628 2.665,16.6597 0.82,18.3449 -10.609,9.7012 -8.43,-6.3768 -20.99,-7.3801 -20.99,-1.6758 0,2.1281 4.677,5.8286 10.388,8.2246 9.99,4.1909 10.059,4.4138 1.887,5.834 -11.685,2.0307 -10.668,9.9952 1.887,14.7617 l 10.386,3.9434 -9.556,3.9336 c -9.181,3.7749 -22.927,16.5659 -33.508,30.1152 -3.285,-1.3156 -6.439,-2.7123 -9.143,-4.123 -35.962,-21.9924 -68.366,-31.042 -103.695,-23.0957 -53.854,12.0897 -70.091,43.6611 -71.619,84.8789 -6.535,31.2015 -7.483,74.2285 -1.836,83.1582 2.132,3.3693 9.736,-1.3456 10.072,-12.3262 1.283,-42.0487 3.414,-17.4899 4.08,-67.9082 0.726,-54.91 49.625,-69.0099 61.459,-73.9316 44.975,-8.8351 81.256,17.2135 99.508,30.3886 -0.215,0.4204 -0.43,0.8419 -0.631,1.2559 -4.849,10.0127 -7.429,23.1454 -7.416,37.7598 -3.632,98.7257 135.011,116.9751 171.912,36.6484 5.663,-8.7802 5.38,-13.8418 7.455,-13.5156 10.245,0.7981 15.936,-9.8975 -0.119,-16.0567 3.056,-14.4228 2.68,-30.3258 -4.121,-44.3261 -2.993,-5.9433 -6.867,-11.7412 -11.326,-17.1778 8.842,-7.5469 17.831,-12.6635 25.793,-15.9902 17.674,-7.3846 60.316,-8.721 70.508,-1.2676 7.779,5.6873 7.713,6.0792 -2.33,14.3067 -9.728,7.971 -9.914,8.8753 -3.244,15.6582 5.587,5.682 8.336,6.1544 13.048,2.2441 4.709,-3.908 6.483,-3.607 8.407,1.4043 3.283,8.5601 13.796,8.039 19.025,-0.9394 3.663,-6.286 4.257,-5.7813 4.367,3.6777 0.09,7.2343 2.844,11.6795 8.104,13.0547 13.334,3.4872 22.112,27.6212 29.127,80.0664 5.157,38.5625 8.11,49.9961 12.902,49.9961 8.604,0 7.937,-23.8709 -2.482,-88.8555 -1.226,-7.6449 -6.158,-21.4459 -10.963,-30.666 -7.475,-14.3408 -8.042,-18.6951 -3.91,-30.1231 6.387,-17.665 6.098,-25.9629 -1.006,-28.6894 -7.317,-2.808 -10.823,0.5464 -10.823,10.3711 0,4.199 -2.023,7.6367 -4.496,7.6367 -2.75,0 -3.503,-4.5005 -1.947,-11.5898 2.038,-9.2711 0.09,-13.9392 -9.74,-23.3575 -7.835,-7.2769 -6.011,-7.964 -15.281,-8.8086 -3.779,0.044 -6.014,3.0594 -6.014,9.0469 0,4.7227 -1.945,5.4935 -7.285,2.8789 -4.007,-1.9629 -26.968,-3.4832 -51.018,-3.3808 -39.585,0.1688 -62.595,4.1922 -80.334,14.5449 -12.756,-9.6108 -26.67,-15.7734 -38.135,-15.7734 -6.19,0 -12.148,-1.4391 -13.236,-3.2012 -3.062,-4.9554 12.259,-19.4531 20.561,-19.4531 9.682,0 9.575,-7.6905 -0.147,-10.2325 -8.314,-2.1745 -9.807,-6.806 -3.451,-10.7343 2.941,-1.8174 2.95,-3.6926 0.02,-6.6153 -2.923,-2.9227 -7.216,-1.0753 -15.137,6.5156 l -11.063,10.5958 -1.238,-10.7793 c -0.8,-6.9857 -3.75,-11.2547 -8.387,-12.1348 -0.797,-0.1514 -1.504,-0.2611 -2.123,-0.3086 -0.267,-0.02 -0.52,-0.032 -0.756,-0.027 z m 20.563,71.291 c 17.124,-0.039 34.548,6.3605 52.238,18.0097 21.116,15.2614 24.362,45.006 20.299,62.7676 -15.844,3.7733 -4.664,13.2003 -1.607,14.4375 -21.565,67.7481 -120.12,59.7336 -139.76,10.2383 -10.795,-38.8769 -6.15,-61.4999 24.219,-89.4922 14.624,-10.8782 29.501,-15.9264 44.611,-15.9609 z m -20.578,63.1621 c -3.129,-0.2128 -6.934,5.7843 -6.934,11.1719 0,2.7689 6.588,5.8828 10.742,5.8828 11.022,-3.5183 6.838,-16.9909 -3.808,-17.0547 z m 51.426,1.9433 c -4.018,0.077 -8.405,5.2109 -8.442,8.2364 0,5.6867 4.915,9.9767 9.551,9.0839 3.634,-0.6999 6.922,-5.7994 6.922,-8.8574 0,-3.0582 -3.601,-7.7083 -7.235,-8.4082 -0.263,-0.042 -0.529,-0.06 -0.796,-0.055 z m -25.569,40.1328 c -3.052,0.01 -6.543,0.061 -10.904,0.1231 -31.844,0.4523 -28.425,14.6087 3.654,23.9648 10.667,2.0149 17.844,4.8975 28.715,-3.1523 6.513,-4.8218 15.24,-14.0595 5.897,-19.0606 -12.985,-1.5561 -18.204,-1.9033 -27.362,-1.875 z m 3.596,63.1036 c -20.464,0.054 -41.011,3.1591 -53.69,9.2968 -23.961,11.6002 -41.612,42.0606 -24.32,41.9688 2.475,-0.015 10.861,-12.6963 15.88,-17.7229 30.915,-28.2796 86.909,-24.9424 105.94,8.7501 6.811,11.7865 12.639,13.2131 16.094,4.2111 -8.769,-31.1762 -31.269,-46.754 -59.904,-46.5039 z" fill="#00B894" transform="translate(-23.903514,-47.218416) matrix(0.26458333,0,0,0.26458333,-4388.1062,-661.86635)"/>
</svg>