<?xml version="1.0" ?><svg height="136.97969mm" viewBox="0 0 174.56548 136.97969" width="174.56548mm" xmlns="http://www.w3.org/2000/svg">
    <path color="#000" d="m 17224.123,4099.5363 c -11.871,-0.2231 -26.106,1.7491 -40.469,5.3858 -20.369,1.3483 -39.734,9.8036 -55.035,24.0301 -10.613,7.7013 -17.988,16.4943 -19.682,25.8675 -23.392,62.878 30.859,141.8702 80.47,143.4803 50.277,7e-4 91.217,-42.5694 91.869,-95.5289 1.098,-12.3446 4.098,-46.1253 5.944,-66.7902 -4.966,-31.9922 -43.856,-36.0495 -63.097,-36.4446 z m 165.847,156.9394 a 88.63207,80.832177 0 0 0 -88.635,80.8369 88.63207,80.832177 0 0 0 88.635,80.8303 88.63207,80.832177 0 0 0 88.632,-80.8303 88.63207,80.832177 0 0 0 -88.632,-80.8369 z m -374.562,41.2218 c -18.678,-0.4371 -37.35,7.8633 -51.645,10.4405 -14.564,2.6256 -17.314,13.6886 -22.385,22.5731 -5.071,8.8845 -24.68,7.8501 -33.065,13.3268 -8.385,5.4768 1.898,19.6553 6.699,45.5181 4.801,25.8625 -0.206,35.5406 21.296,46.129 4.869,34.2604 85.943,48.3328 110.351,40.164 24.408,-8.1687 37.933,-35.0508 43.004,-52.5765 5.071,-17.5257 -14.806,-106.0099 -21.094,-113.5557 -6.289,-7.5458 -21.535,-7.1552 -45.167,-11.2588 -2.655,-0.4612 -5.325,-0.6982 -7.994,-0.7605 z m 174.71,33.6289 c -0.714,0 -1.265,0.017 -1.602,0.047 -65.961,5.8499 -78.119,30.7434 -80.044,87.5749 -1.292,0.6895 -2.517,1.6791 -3.596,3.0401 -3.626,7.8614 -1.073,14.8147 3.271,18.7084 -0.03,20.2542 0.41,43.7132 0.03,70.9516 -9.841,-14.3866 -27.562,-27.9558 -54.41,-27.8392 -3.829,0.016 -7.842,0.3124 -12.044,0.9229 -44.832,6.5112 -60.179,30.6712 -56.122,50.0834 0,0 136.585,12.8403 130.431,-7.1803 -0.385,-1.2556 -0.845,-2.5511 -1.368,-3.869 133.261,29.4549 177.309,-10.6606 177.309,-10.6606 -3.079,-93.0856 -3.422,-182.5802 -81.718,-181.2814 -2.208,0.037 -15.139,-0.5161 -20.139,-0.4979 z m 175.255,112.8591 c -49.036,0.08 -61.185,48.1493 -74.575,72.2485 -14.079,46.2741 87.902,25.5941 157.26,37.137 16.938,-73.6491 15.889,-85.3806 -55.978,-105.3926 -8.983,-2.5015 -17.058,-3.7487 -24.344,-3.9608 -0.797,-0.023 -1.585,-0.032 -2.363,-0.032 z m -419.261,19.9838 c -7.934,-0.1904 -16.346,1.6277 -22.787,3.3392 -17.175,4.564 -27.857,36.2691 -16.566,48.744 11.293,12.4749 48.82,-5.3549 63.763,-24.5236 0.719,-21.3368 -11.185,-27.2422 -24.41,-27.5596 z" fill="#FFFFFF" overflow="visible" paint-order="fill markers stroke" transform="translate(-174.20575,-23.097466) matrix(0.2881372,0,0,0.2881372,-4689.2194,-1152.6816)"/>
    <path d="m 17195.278,4080.6399 c -1.579,-0.028 -3.144,-0.022 -4.699,0.013 -8.288,0.1839 -16.222,1.2655 -23.617,3.3391 -23.467,0 -35.87,0.2328 -54.768,19.9198 -15.193,16.1461 -16.577,31.9146 -13.616,48.8934 7.483,42.856 -10.254,67.6345 11.692,105.525 14.422,26.0638 26.913,36.0979 53.32,42.8325 48.117,12.2716 92.326,-11.855 117.164,-63.9443 5.263,-11.035 9.062,-14.4837 14.182,-12.859 11.027,3.4998 14.339,-6.8559 4.321,-13.5084 -7.479,-4.9645 -8.793,-9.6576 -8.793,-31.4241 0,-14.0733 1.9,-26.7573 4.218,-28.1898 2.317,-1.4325 3.101,-6.5506 1.748,-11.3742 -6.706,-23.8974 -12.182,-31.9859 -26.68,-39.3822 -24.607,-12.0733 -50.805,-19.4242 -74.472,-19.8407 z m 70.983,28.1811 c 2.073,0 6.715,4.4911 10.317,9.9876 3.601,5.4965 5.927,11.6307 5.162,13.626 -0.767,1.9952 -5.412,-2.5023 -10.322,-9.994 -4.908,-7.4917 -7.23,-13.6196 -5.157,-13.6196 z m -79.656,0.1176 c 17.241,5.2995 22.338,10.01 45.421,22.3916 45.534,24.4242 48.814,28.9506 45.59,62.7991 -1.107,11.6261 -2.92,13.8973 -11.087,13.8973 -12.428,0 -16.152,9.9314 -4.835,12.891 10.274,2.6867 10.48,4.6537 1.839,17.5932 -12.357,18.5047 -31.671,36.9839 -46.806,44.7853 -23.698,12.2148 -47.828,10.2859 -68.493,-5.4756 -25.057,-19.1116 -33.91,-36.3573 -33.729,-65.7412 0.1,-15.3736 1.992,-19.1263 1.943,-40.2817 12.159,-43.2063 32.775,-63.3809 70.157,-62.859 z m 35.645,0.3909 c 6.863,-0.034 20.389,5.7725 26.028,12.0022 3.849,4.2539 5.349,7.655 3.334,7.5564 -6.215,-0.3036 -34.914,-16.4906 -32.868,-18.5374 0.695,-0.6956 1.921,-1.0136 3.506,-1.0212 z m -29.308,54.2773 c -6.208,0.06 -12.784,9.1939 -9.926,13.8202 3.906,6.3191 16.337,3.6292 16.337,-3.5357 0,-3.1246 -2.323,-9.3072 -4.55,-10.0133 -0.414,-0.1317 -0.838,-0.2106 -1.262,-0.2478 -0.2,-0.017 -0.399,-0.025 -0.599,-0.024 z m 53.635,8.2635 c -0.631,-0.018 -1.283,0.032 -1.953,0.1602 -4.074,0.7846 -7.295,5.939 -8.08,10.0132 -1.03,5.3495 2.599,8.0995 7.948,7.0693 4.074,-0.7847 8.056,-4.7575 8.839,-8.8318 0.902,-4.6808 -2.345,-8.275 -6.754,-8.4109 z m -100.877,34.3212 c -3.215,-0.12 -5.058,5.5643 -5.058,15.5807 0,11.8125 2.943,18.927 11.743,28.3477 10.134,10.8485 14.449,12.5351 31.386,12.28 22.636,-0.3411 43.931,-11.0588 43.931,-22.1096 0,-5.9411 -8.285,-10.4099 -38.468,-20.7421 -21.158,-7.2428 -40.749,-13.2529 -43.534,-13.3567 z m 10.524,16.6724 c 0.307,0 0.641,0.012 1.003,0.036 10.132,0.7807 41.247,13.7666 43.222,18.9157 1.162,3.026 -0.43,7.1071 -3.539,9.0753 -6.097,3.861 -18.714,4.3278 -26.996,0.9956 -6.089,-2.4503 -18.67,-25.4421 -15.599,-28.5123 0.334,-0.3337 0.991,-0.4971 1.909,-0.5106 z m 198.258,4.5205 c -12.501,0 -26.424,7.1913 -24.356,12.5813 1.165,3.0313 -2.034,7.0048 -7.718,9.5945 -5.34,2.4327 -9.707,7.0462 -9.707,10.2461 0,7.3177 1.854,7.2849 13.33,-0.235 5.081,-3.3288 12.333,-5.438 16.117,-4.6829 5.408,1.0792 3.763,3.503 -7.669,11.3251 -29.073,24.0048 -33.468,39.3018 -38.109,71.1824 -15.204,2.2483 -8.17,15.7109 2.934,15.2752 11.447,40.8818 36.952,62.5236 81.215,69.4797 34.107,5.3605 74.784,-8.2924 92.975,-36.9766 9.583,-15.1109 11.275,-21.5842 11.197,-42.8624 -0.144,-39.0018 -4.914,-53.7307 -22.507,-69.4713 -8.836,-7.9049 -23.26,-15.9404 -33.711,-18.7768 -22.314,-6.0569 -22.341,-6.0773 -16.708,-12.8653 7.888,-9.504 -3.094,-11.6741 -12.823,-2.5338 l -8.796,8.2636 -14.401,-9.7762 c -7.921,-5.375 -17.488,-9.7676 -21.263,-9.7676 z m -3.054,11.605 c 5.527,-0.074 12.188,2.4468 14.806,5.6015 6.333,7.6316 -1.942,7.6316 -15.293,0 l -9.562,-5.467 z m 10.93,24.9551 c 23.855,26.0725 91.382,-4.2791 109.841,69.2577 1.565,23.5505 0.718,27.6452 -8.654,41.8391 -5.715,8.6535 -17.387,20.2688 -25.936,25.8119 -51.583,30.303 -127.205,-5.2026 -126.636,-49.9062 22.445,-5.2872 10.422,-15.6536 -3.234,-14.4805 0.187,-17.4376 22.739,-64.5518 54.619,-72.522 z m -352.778,27.8821 c -6.177,-0.099 -9.485,1.2296 -12.03,4.2963 -2.787,3.3584 -8.324,5.0319 -13.016,3.9373 -14.618,-3.4098 -38.221,7.4582 -44.496,20.4902 -3.797,7.8862 -8.562,11.9454 -14.094,12.0001 -23.207,0.2301 -37.008,13.7953 -28.27,27.788 2.601,4.1661 5.423,10.3952 6.267,13.8375 9.868,40.2151 10.091,43.0525 3.955,49.8315 -3.354,3.7069 -6.099,8.342 -6.099,10.2994 0,5.0422 11.536,11.6094 25.94,14.7731 14.334,3.1484 16.484,9.7462 3.176,9.7462 -14.982,0 -52.061,23.509 -52.061,33.0094 0,2.6421 5.814,11.1459 12.918,18.9006 11.135,12.1539 14.688,13.8403 25.755,12.216 7.063,-1.0365 15.993,0.027 19.841,2.365 5.649,3.4321 8.265,2.7029 13.596,-3.7921 3.631,-4.4234 10.301,-10.0252 14.826,-12.4466 5.733,-3.0681 8.588,-8.7408 9.407,-18.7212 l 1.171,-14.3225 22.943,3.993 22.943,3.9886 -21.984,10.1394 c -15.092,5.8275 -30.078,23.4577 -23.573,37.3035 6.601,12.3353 16.95,7.3378 16.95,-8.1888 0,-12.2845 7.283,-13.642 26.429,-23.3401 35.828,-18.1473 66.854,-12.3253 80.895,12.2352 0.135,2.8713 0.351,4.8771 0.677,5.7276 0.85,2.2156 2.441,3.905 4.18,4.6936 8.925,16.7845 23.652,9.0418 13.616,-7.3384 -2.493,-3.9316 -4.516,-7.2525 -6.389,-10.3231 0.831,-9.3409 1.411,-21.4993 1.792,-34.46 5.973,-2.3048 7.705,-9.8769 16.43,-11.5494 14.77,-2.8305 23.46,-14.5456 9.042,-21.2655 23.33,-6.2374 -0.572,-46.0063 -21.182,-30.4093 l -2.284,0.5917 c 1.806,-22.6927 6.922,-31.4545 26.579,-51.2671 17.72,-17.86 41.918,-22.6513 69.614,-19.3151 46.152,6.1702 69.324,46.9733 69.324,122.0607 0,20.7577 1.294,40.6552 4.953,50.3419 -2.104,6.8518 -0.01,8.3511 5.812,8.3511 5.106,0 9.582,-5.8432 15.36,-20.0821 4.485,-11.0472 13.574,-25.8916 20.2,-32.9816 l 12.049,-12.8889 39.205,1.7411 c 43.383,1.9295 54.029,6.2578 66.758,27.1344 8.905,14.6046 9.601,36.0806 1.771,54.8177 -3.141,7.5171 -4.757,15.2049 -3.595,17.0848 3.307,5.3502 7.525,4.0795 15.41,-4.6382 11.641,-12.8708 9.551,-55.9969 -3.681,-75.9914 -5.531,-8.3574 -13.928,-17.7182 -18.664,-20.8043 -8.152,-5.3123 -56.67,-11.6689 -83.782,-12.0256 -6.258,-0.082 -11.374,0.151 -14.592,0.7948 -13.669,2.7336 -26.507,16.8764 -41.18,45.349 0.616,-23.8038 -1.302,-56.2704 -5.746,-76.9997 -2.915,-23.6819 -15.55,-55.9506 -36.799,-72.3811 -20.846,-16.1172 -63.672,-12.58 -79.516,-11.0323 -29.999,2.93 -69.836,41.3872 -70.53,65.4527 -0.414,7.1506 -0.783,13.8118 -1.152,20.4475 l -1.174,0.3054 c -12.45,-1.0304 -8.724,-1.6697 -9.774,-10.7994 -0.667,-5.7839 0.624,-10.5132 2.867,-10.5132 6.199,0 4.871,-10.352 -1.652,-12.8547 -5.035,-1.9325 -4.968,-3.8087 0.571,-15.4226 5.875,-12.3188 5.86,-14.1471 -0.185,-26.8866 -3.568,-7.5186 -8.952,-13.6686 -11.969,-13.6686 -3.016,0 -6.568,-4.3181 -7.893,-9.5945 -2.46,-9.8069 -16.497,-16.3919 -24.457,-11.4724 -2.314,1.4307 -6.286,0.9549 -8.822,-1.064 -2.538,-2.019 -12.517,-4.8154 -22.183,-6.2126 -4.192,-0.6058 -7.59,-0.9462 -10.398,-0.9913 z m 17.999,14.0383 c 1.878,0 4.383,2.5248 5.568,5.6122 2.3,5.9926 -2.459,11.108 -6.537,7.0288 -3.645,-3.6443 -2.955,-12.641 0.969,-12.641 z m -22.289,0.6494 c 2.015,-0.2383 2.512,1.5075 1.261,4.7663 -1.278,3.3304 -4.001,6.0545 -6.054,6.0545 -5.027,0 -1.879,-8.6911 3.835,-10.5965 0.351,-0.1163 0.67,-0.1904 0.958,-0.2243 z m 334.114,2.8393 c -0.724,-0.028 -1.546,0.015 -2.488,0.1346 -7.37,1.1937 -9.076,5.7202 -3.901,13.5148 3.755,5.6527 13.591,7.0382 12.243,-4.6403 -0.706,-5.119 -0.798,-8.8085 -5.854,-9.0091 z m -280.214,0.705 c 0.64,-0.026 1.219,0.1831 1.703,0.6666 1.614,1.615 1.324,7.493 -0.646,13.064 -4.309,12.1919 -13.135,16.2675 -13.135,6.0652 0,-8.0785 7.588,-19.6246 12.078,-19.7958 z m 323.093,3.7857 c -6.419,0.1472 -6.909,9.2662 -1.764,14.5018 4.99,5.0805 12.484,1.8323 12.484,-5.3667 0,-4.2064 -2.716,-6.3146 -5.326,-7.6461 -2.116,-1.0794 -3.913,-1.523 -5.394,-1.489 z m -427.848,3.5465 c 2.557,0.2271 4.72,4.3647 4.72,11.4168 0,6.3096 -0.644,11.4724 -1.438,11.4724 -4.39,0 -10.563,-12.2169 -8.667,-17.1574 1.425,-3.7119 3.203,-5.5343 4.869,-5.7255 0.173,-0.019 0.346,-0.022 0.516,-0.011 z m 50.189,17.2877 c 19.143,-0.1136 24.96,1.687 41.183,12.7499 18.109,12.3491 33.631,31.9069 28.999,36.5387 -1.212,1.2124 -5.503,2.2005 -9.535,2.2005 -4.173,0 -6.635,2.0577 -5.719,4.7792 0.886,2.6288 5.767,4.8375 10.841,4.9072 8.35,0.1147 9.125,1.5643 8.216,15.2966 -1.461,22.0939 -7.461,37.6644 -18.518,48.0517 -8.207,7.7104 -14.359,9.3433 -39.083,10.3572 -24.695,1.0125 -32.037,-0.1993 -46.33,-7.6356 -23.431,-12.1904 -32.181,-25.4052 -32.725,-49.4231 -0.532,-23.4724 10.705,-49.8124 28.304,-66.35 10.479,-9.8453 15.011,-11.3577 34.367,-11.4723 z m -78.058,6.3472 c 3.953,0.1868 7.423,2.4286 13.131,7.1804 6.043,5.031 7.916,8.972 5.45,11.4383 -2.467,2.4661 -6.169,1.0975 -10.761,-3.976 -3.852,-4.2562 -11.472,-7.8635 -16.929,-8.0115 -8.976,-0.2432 -9.192,-0.5777 -2.273,-3.5506 4.944,-2.1248 8.309,-3.2263 11.382,-3.0806 z m 435.098,20.1567 c -1.434,0 -2.872,0.015 -4.309,0.062 -6.314,0.253 -6.414,2.4729 -6.414,8.3191 0,10.2493 12.626,24.1162 24.855,27.3009 23.129,6.023 63.108,-7.0269 70.373,-22.9725 3.978,-8.7283 3.717,-8.8468 -19.785,-8.8725 -22.004,1.5259 -43.201,-3.7798 -64.72,-3.837 z m 13.085,11.2439 c 5.154,0.028 12.279,0.2671 20.167,0.2671 29.466,0 37.432,5.7441 18.87,11.5685 -24.857,7.7991 -47.371,0.5691 -47.371,-10.84 0,-0.8414 3.181,-1.0238 8.334,-0.9956 z m -336.56,2.2688 c -7.917,0 -10.558,4.5215 -5.91,10.1224 2.323,2.7994 5.754,4.1499 7.618,2.9972 5.272,-3.2584 3.988,-13.1196 -1.708,-13.1196 z m -47.398,7.5992 c -0.241,-0.012 -0.489,-0.011 -0.744,0.019 -6.864,1.5281 -9.147,8.0974 -4.155,11.3443 7.007,4.5019 12.975,0.4529 10.577,-7.0972 0,0 -2.056,-4.086 -5.678,-4.2664 z m -68.717,23.6905 c 0.116,-0.013 0.243,0 0.379,0.029 0.657,0.1552 1.547,0.8286 2.717,1.9997 2.342,2.3398 3.598,6.2293 2.792,8.648 -1.9,5.7013 -7.041,0.5601 -7.041,-7.0414 0,-2.3538 0.336,-3.5477 1.153,-3.6362 z m 137.981,7.5329 c -0.376,0 -0.772,0 -1.19,0.019 -5.208,0.212 -13.859,2.0054 -28.961,5.2043 -14.721,3.1183 -34.081,5.6679 -43.022,5.6679 -10.867,0 -16.255,1.6631 -16.255,5.0205 0,5.6136 17.914,23.4796 26.772,26.7027 28.558,10.3921 77.587,-13.983 70.847,-35.2227 -1.581,-4.9759 -2.558,-7.3403 -8.191,-7.3919 z m -20.365,15.4441 c 1.091,-0.025 2.099,-0.025 3.029,0 11.159,0.3209 10.83,4.3224 -0.946,12.0385 -16.919,11.0863 -38.821,10.7879 -45.876,-0.6281 -3.072,-4.9679 4.248,-7.3816 31.834,-10.5025 4.705,-0.5324 8.691,-0.8363 11.959,-0.9101 z m 76.163,2.2859 c 0.05,0.2613 0.09,0.5297 0.09,0.8075 0,0.3326 -0.05,0.651 -0.137,0.9593 0.01,-0.6107 0.03,-1.1704 0.04,-1.7668 z m -26.329,18.2361 c 5.166,0.2994 4.824,15.6074 8.204,17.3667 1.453,0.7565 2.799,1.3964 4.054,1.9356 -0.298,7.2518 -0.523,13.7246 -0.681,19.4669 -3.771,-3.621 -8.302,-6.2582 -15.366,-8.7359 -22.755,-7.9834 -24.214,-3.9213 -11.909,-16.2259 8.615,-8.6155 9.241,-11.1196 13.908,-13.3865 0.662,-0.3218 1.256,-0.4519 1.79,-0.4209 z m -160.695,20.9089 c 0.125,-0.011 0.258,-0.011 0.396,0.011 1.721,0.2277 4.372,2.6547 6.987,7.5415 2.393,4.4723 8.01,7.6462 13.521,7.6462 5.829,0 9.422,2.1889 9.422,5.7362 0,6.6251 -2.339,7.4078 -5.734,1.9141 -1.3,-2.1031 -6.286,-3.8261 -11.082,-3.8261 -5.591,0 -10.286,-3.4313 -13.078,-9.5605 -2.737,-6.0049 -2.317,-9.3132 -0.432,-9.462 z m -10.68,27.192 c 0.16,-9e-4 0.312,0.011 0.456,0.032 1.738,0.2592 2.354,2.1141 1.721,5.3837 -0.727,3.7485 -3.635,7.5818 -6.464,8.5241 -3.291,1.0959 -4.672,-0.738 -3.826,-5.0973 0.725,-3.7487 3.639,-7.5884 6.47,-8.5307 0.617,-0.2053 1.164,-0.3094 1.643,-0.3119 z" fill="#00B894" transform="translate(-174.20575,-23.097466) matrix(0.2881372,0,0,0.2881372,-4689.2194,-1152.6816)"/>
</svg>