<?xml version="1.0" ?><svg height="150.62239mm" viewBox="0 0 128.38516 150.62239" width="128.38516mm" xmlns="http://www.w3.org/2000/svg">
    <path color="#000" d="m 14459.302,4169.3138 c -6.737,0.2565 -16.516,3.8456 -28.994,11.304 -73.632,-31.6537 -28.754,46.5781 -1.501,61.9198 43.566,-44.7659 50.706,-73.993 30.495,-73.2238 z m -154.918,101.9542 a 87.756498,93.717315 18.18301 0 0 -86.638,65.7679 87.756498,93.717315 18.18301 0 0 54.127,116.4231 87.756498,93.717315 18.18301 0 0 112.619,-61.6565 87.756498,93.717315 18.18301 0 0 -54.126,-116.4174 87.756498,93.717315 18.18301 0 0 -25.982,-4.1171 z m 225.682,10.0324 a 79.808736,91.399217 0 0 0 -79.598,91.4008 79.808736,91.399217 0 0 0 79.812,91.3952 79.808736,91.399217 0 0 0 79.81,-91.3952 79.808736,91.399217 0 0 0 -79.81,-91.4008 79.808736,91.399217 0 0 0 -0.214,0 z m 36.472,223.3177 c -9.977,0.184 -21.64,1.9308 -35.289,5.4279 -85.383,21.8768 -80.826,48.7284 -83.335,139.1934 13.978,63.1892 120.849,12.3779 181.273,18.5692 -5.688,-89.0923 7.191,-164.4782 -62.649,-163.1905 z m -279.434,4.3132 c -77.555,-0.964 -83.128,100.4519 -89.58,143.3442 9.856,37.2881 166.796,37.4382 168.159,28.9097 7.052,-44.1351 6.295,-167.8084 -74.832,-172.1306 -1.268,-0.068 -2.516,-0.1083 -3.747,-0.1233 z" fill="#FFFFFF" overflow="visible" paint-order="fill markers stroke" transform="translate(128.5692,-36.186464) matrix(0.2881372,0,0,0.2881372,-4217.3191,-1163.7144)"/>
    <path d="m 14455.229,4164.34 c -4.837,-0.048 -10.226,1.1371 -15.875,3.8315 -10.083,4.8077 -15.313,5.1759 -26.155,1.8484 -11.135,-3.4177 -15.296,-3.0138 -23.325,2.2464 -24.492,13.0504 19.079,67.9011 28.748,74.0414 15.891,19.555 45.658,-30.903 54.206,-46.577 9.914,-19.2991 -0.328,-35.2202 -17.599,-35.3907 z m -0.964,10.3237 c 16.019,0 6.589,30.3466 -15.444,49.6914 -7.201,6.3225 -14.513,11.4945 -16.25,11.4945 -5.239,0 -27.992,-45.8706 -25.705,-51.8257 3.37,-8.7835 13.68,-6.431 17.655,4.0274 3.539,9.3075 19.124,13.982 19.124,5.7362 0,-5.6834 14.49,-19.1238 20.62,-19.1238 z m 117.649,86.7907 c -11.928,-0.23 -35.021,5.1036 -35.021,8.7666 0,1.8302 -9.445,5.2887 -20.988,7.6852 -34.412,5.705 -56.354,28.9857 -68.419,50.9687 -5.185,-4.8861 -19.77,1.0583 -4.514,12.4299 2.117,1.5773 -2.533,11.6469 -2.089,26.7531 2.881,46.4277 21.41,80.3466 57.769,98.7947 31.434,15.9497 61.836,11.8692 88.353,-15.8412 28.087,-29.3511 34.832,-66.9536 20.272,-113.0172 -1.812,-5.7346 -0.567,-6.4446 7.702,-4.3692 16.347,4.1028 13.161,-4.3858 -7.343,-19.5719 -7.297,-5.4042 -7.166,-5.5526 2.867,-3.2769 6.422,1.4565 10.515,0.7864 10.515,-1.7197 0,-5.6792 -12.86,-12.0209 -24.378,-12.0209 -13.443,0 -16.25,-6.8704 -3.411,-8.3464 17.819,-2.0485 8,-8.8359 -13.411,-9.2706 -11.091,-0.225 -21.272,-1.5158 -22.624,-2.868 -2.229,-2.229 0.06,-2.7542 17.622,-4.0163 8.167,-0.587 9.259,-8.7045 1.429,-10.6206 -1.148,-0.281 -2.626,-0.4264 -4.331,-0.4593 z m -355.139,61.102 c -21.253,40.3022 -21.107,66.8534 0.56,99.7527 7.075,10.7428 17.592,20.6946 16.814,21.8884 -5.334,8.1874 -6.625,25.0394 10.494,18.5381 15.306,-5.8128 6.83,-2.0005 5.45,2.1454 -1.643,4.9392 3.362,9.9617 7.221,4.2347 8.461,-12.5597 12.515,-6.5924 15.203,2.0116 3.687,11.8077 15.812,12.4396 15.812,3.4947 0,-7.6845 6.296,-6.8953 9.428,1.182 2.417,6.2366 2.964,6.1895 8.055,-0.7283 5.208,-7.0773 5.698,-7.1056 10.447,-0.6105 4.439,6.0709 8.677,7.6377 9.835,0.9579 1.023,-5.8866 4.388,-9.6428 10.319,-3.7587 3.408,1.3077 5.456,-0.3526 5.456,-4.414 0,-3.5767 3.441,-7.4032 7.646,-8.5032 4.207,-1.1 7.647,-4.9688 7.647,-8.6039 0,-3.6352 3.579,-9.8479 7.948,-13.8024 13.8,-13.386 17.69,-27.539 24.793,-43.4951 17.193,2.9515 16.802,-12.5528 3.359,-14.3074 23.412,-124.4998 -122.893,-156.5122 -176.487,-55.982 z m 163.42,20.3672 c 1.508,29.4067 0.836,31.1773 -11.388,29.8788 -13.712,-1.4566 -16.842,5.0063 -4.952,10.2228 4.732,2.0762 6.678,3.4897 10.844,6.0108 -1.194,13.621 -19.555,41.1931 -35.545,50.6267 -46.252,32.0511 -114.038,-1.1521 -122.076,-59.7968 -1.836,-13.3958 -0.165,-21.5337 8.278,-40.348 16.664,-37.1308 47.757,-61.9539 83.788,-62.2167 39.016,-4.7525 68.087,32.524 71.051,65.6224 z m 149.864,-49.5851 c 10.978,-0.023 19.992,1.7409 24.995,1.658 2.443,-0.7615 4.268,-1.1147 5.591,-1.0082 2.201,0.1775 3.013,1.6331 3.013,4.6044 0,3.4522 4.046,7.8167 8.99,9.6964 5.998,2.2802 11.648,10.205 16.967,23.8067 11.703,29.9195 13.355,42.7047 8.526,65.9641 -5.719,27.5497 -17.391,44.2916 -38.192,54.8001 -70.21,24.1672 -97.512,-29.0078 -107.281,-80.5785 -0.429,-9.5656 1.467,-22.6808 1.467,-22.6808 l 11.075,3.0193 c 8.47,2.31 9.821,-4.235 3.916,-8.8282 l -8.492,-6.6042 7.702,-12.0994 c 19.685,-26.7233 43.429,-31.7132 61.723,-31.7497 z m -25.134,37.9227 c -7.892,-0.1713 -10.356,10.9818 -6.794,15.1747 9.059,14.4859 22.441,-14.3759 8.446,-14.9843 -0.573,-0.1176 -1.126,-0.1789 -1.652,-0.1904 z m -231.607,0.1904 c -7.649,0 -10.713,7.409 -5.301,12.8221 4.099,4.0985 10.625,0.5905 11.989,-6.4476 0.834,-4.2984 -1.343,-6.3745 -6.688,-6.3745 z m 63.364,6.0329 c -4.422,0.2498 -7.262,5.0269 -5.002,10.9175 1.265,3.2961 4.128,5.9936 6.363,5.9936 6.574,0 9.235,-11.9502 3.456,-15.5219 -1.696,-1.0485 -3.342,-1.4725 -4.817,-1.3892 z m 209.768,1.6132 c -6.881,0 -10.796,6.5543 -8.105,13.5671 2.715,7.0799 7.824,7.072 13.707,-0.017 5.254,-6.3311 2.268,-13.5499 -5.602,-13.5499 z m -280.37,35.1163 c -1.881,0.011 -3.728,0.067 -5.529,0.1904 -24.217,1.6666 -31.211,5.5799 -25.756,14.4072 2.792,4.5173 4.47,4.7057 8.252,0.9242 6.479,-6.4786 10.867,-5.9652 10.867,1.2772 0,4.5227 10.997,8.8512 17.705,1.7679 10.253,-10.8283 11.446,1.7123 13.77,6.6457 1.693,3.5949 6.727,3.8322 7.691,2.4815 2.027,-2.8408 10.071,-11.153 6.771,0.9708 4.488,5.7983 8.476,8.2554 13.265,3.5272 2.824,-2.7873 3.81,-2.5115 12.929,3.8764 11.283,7.9025 17.047,2.5317 10.782,-10.0436 -6.595,-13.2412 -42.539,-26.1027 -70.747,-26.0249 z m 203.297,14.2056 c -1.751,0.03 -2.963,0.5748 -3.315,1.9157 4.928,39.1186 40.19,75.9143 78.18,51.3831 13.485,-9.2051 28.716,-31.8487 25.224,-37.4968 -1.085,-1.7555 -14.944,-3.2428 -30.796,-3.305 -16.198,-0.064 -37.103,-2.8628 -47.726,-6.3914 -6.21,-1.651 -16.31,-6.1974 -21.567,-6.1056 z m -215.088,12.5027 c -3.441,-0.171 -4.196,1.9549 -4.196,7.9598 0,12.233 11.622,26.8776 27.566,34.7353 26.936,7.3543 43.071,-9.9685 44.269,-20.9499 1.005,-9.2107 -45.593,-16.0601 -63.23,-20.8659 -1.815,-0.5082 -3.263,-0.8223 -4.409,-0.8794 z m 226.594,2.6888 c 25.43,11.3534 47.743,7.4554 67.695,10.0828 0,0 5.384,3.0475 -9.029,15.5331 -16.809,15.7371 -42.527,5.3837 -51.529,-11.4161 z m -190.022,13.7405 c 9.679,1.816 12.913,4.2297 12.016,8.9626 -1.946,10.2625 -20.284,10.2955 -30.523,0.056 -8.102,-8.1016 -10.118,-12.7674 -3.64,-14.015 9.76,2.3632 16.128,3.895 22.147,4.9965 z m -29.453,78.5677 c -3.652,-0.09 -7.459,3.0179 -9.018,8.5647 -2.208,7.8523 -2.767,8.0232 -6.375,1.9158 -6.26,-10.5978 -16.294,-8.5582 -14.11,2.868 2.14,11.1901 -0.1,12.1622 -6.817,2.9688 -4.818,-6.5893 -7.155,-6.1615 -27.74,5.0358 -0.615,0.3352 1.781,6.6892 5.328,14.1272 5.888,12.3471 5.938,14.8064 0.554,28.2599 -8.284,20.7054 -16.493,88.5417 -11.338,93.6973 7.54,7.5392 11.239,-0.5188 13.876,-30.2204 3.389,-38.1658 9.341,-58.4008 17.202,-58.4858 7.975,-0.086 24.586,-17.7074 21.46,-22.7649 -1.445,-2.3378 1.145,-3.5455 6.397,-2.98 6.983,0.7518 8.648,-0.7642 7.982,-7.2653 -0.642,-6.2634 0.825,-7.777 6.168,-6.3802 4.03,1.0539 7.931,-0.5862 9.186,-3.8595 1.663,-4.331 6.585,-5.2474 20.602,-3.8371 25.788,2.5946 39.863,11.7551 50.325,32.7693 7.765,15.5981 9.211,25.278 10.822,72.5964 1.024,30.0272 2.526,56.742 3.345,59.3708 0.818,2.6291 4.175,4.7839 7.455,4.7839 5.241,0 5.673,-6.7301 3.54,-55.45 -1.647,-37.6251 -1.143,-55.4498 1.574,-55.4498 2.202,0 4.947,1.5203 6.095,3.3776 1.148,1.8574 11.89,4.6027 23.874,6.1002 38.996,4.8721 40.065,5.8249 37.508,33.4919 -2.221,24.0405 -0.212,31.8181 8.845,34.1639 3.675,0.9519 5.125,-8.6341 5.887,-38.9701 0.865,-34.3944 2.376,-42.7175 10.419,-57.3602 12.163,-22.1459 44.228,-40.1227 78.029,-43.7427 27.895,-2.9871 37.613,-0.2121 34.428,9.8253 -3.666,11.5482 1.79,16.293 10.094,8.7776 10.488,-9.4913 13.961,-3.2066 4.056,7.338 l -8.324,8.8562 8.984,8.4472 c 5.185,4.8704 11.521,7.4698 14.974,6.1449 8.694,-3.3363 11.246,8.2607 13.914,63.2135 1.891,38.9504 3.392,47.8486 8.06,47.8486 4.815,0 5.6,-7.0624 4.901,-43.9722 -0.455,-24.1868 -2.361,-52.0301 -4.234,-61.8693 -2.757,-14.4885 -2.233,-19.1165 2.744,-24.3556 4.589,-4.8291 4.936,-6.9186 1.374,-8.24 -2.967,-1.0999 -3.896,-5.2679 -2.455,-11.0126 1.848,-7.3568 0.835,-9.2427 -4.974,-9.2427 -4.014,0 -9.396,2.0974 -11.959,4.6606 -3.664,3.6646 -4.136,2.0268 -2.202,-7.6517 2.138,-10.6846 1.42,-12.3066 -5.438,-12.3066 -4.346,0 -8.966,1.7281 -10.268,3.837 -1.583,2.563 -4.744,2.563 -9.534,0 -13.448,-7.197 -56.361,-4.4611 -81.587,5.2038 -45.381,17.3872 -94.86,30.2022 -115.897,30.0132 -16.65,-0.1497 -23.639,-2.293 -34.527,-10.5981 -18.525,-14.1293 -47.517,-24.6301 -68.009,-24.6301 -9.319,0 -18.003,-1.7227 -19.302,-3.8258 -1.562,-2.5274 -3.702,-3.7324 -5.894,-3.7867 z m 191.972,42.8855 -2.252,8.9626 c -1.237,4.9296 -3.915,13.3416 -5.949,18.6923 -3.768,9.9098 -5.982,10.3996 -32.567,7.2037 -15.306,-1.8397 -40.909,-9.4545 -46.846,-13.9311 -9.752,-7.3515 -4.219,-10.3212 15.297,-8.2119 13.988,1.5118 27.999,-0.084 46.196,-5.2711 z" fill="#00B894" transform="translate(128.5692,-36.186464) matrix(0.2881372,0,0,0.2881372,-4217.3191,-1163.7144)"/>
</svg>