<?xml version="1.0" ?><svg height="272.23138mm" viewBox="0 0 184.13834 272.23138" width="184.13834mm" xmlns="http://www.w3.org/2000/svg">
    <path d="m 2142.998,-860.21289 c -10.05,-0.83306 -23.9893,19.07703 -35.9453,37.06836 -14.715,22.14317 -14.4702,33.88622 -12.9297,51.14453 1.5405,17.25831 -5.4814,19.79581 -17.6992,30.16992 -12.2179,10.37411 -19.0719,36.85746 -29.5898,45.27149 -10.518,8.41403 -50.9947,30.93148 -68.6309,76.82617 -17.6361,45.89468 -1.2357,118.68179 -2.4043,152.33789 -1.1687,33.6561 5.3655,55.12099 19.0176,62.33984 13.652,7.21884 30.4785,-49.81836 30.4785,-49.81836 0,0 -1.6949,58.94016 95.7246,51.30274 0,0 45.018,0.11158 66.6914,-11.12305 21.6733,-11.23462 19.4419,-19.50644 25.5508,-0.24023 6.1089,19.26621 14.821,28.11141 23.0547,18.78906 8.2337,-9.32236 -4.1431,-63.29765 3.7188,-80.89063 7.8619,-17.59297 17.3861,-20.22213 22.8613,-45.5625 5.4752,-25.34037 2.2131,-90.91767 -21.1602,-128.30273 -23.3732,-37.38506 -57.7863,-71.61823 -67.2949,-85.29102 -9.5086,-13.67278 5.8974,-35.0913 2.5508,-52.34961 -3.3466,-17.25831 -17.9563,-53.20767 -27.7305,-67.50195 -1.8327,-2.68017 -3.9444,-3.97768 -6.2637,-4.16992 z m -40.0781,493.58008 c -45.9726,0.38221 -115.6851,21.79472 -123.5722,79.76367 -9.014,66.25022 25.6074,229.955078 25.6074,229.955078 0,-10e-7 -135.0895,0.06115 -152.9297,-1.628907 -17.8402,-1.690053 -45.6343,-3.210512 -68.5449,52.730469 12.3943,93.2912 130.7031,135.54231 296.7109,140.10547 166.0078,4.56316 262.1577,-40.729428 302.7207,-57.123048 40.563,-16.393621 79.435,-58.139261 67.2285,-92.109375 -12.2065,-33.970114 -39.6235,-60.333907 -78.3086,-57.798828 -38.6851,2.53508 -142.9101,21.970703 -142.9101,21.970703 0,0 8.4519,-98.869292 16.7148,-147.542972 8.2629,-48.67369 15.2112,-101.40372 -10.1406,-124.72656 -25.3519,-23.32285 -71.7835,-36.4496 -114.5762,-42.51758 -5.3491,-0.7585 -11.4325,-1.13272 -18,-1.07812 z" fill="#FFFFFF" transform="translate(141.50277,63.958653) matrix(0.26458333,0,0,0.26458333,-610.99789,168.97305)"/>
    <path d="m 2000.8464,141.8938 c -40.4225,-7.3101 -143.1041,-35.5014 -168.9254,-46.378496 -22.2462,-9.3709 -52.062,-43.0772 -55.8188,-63.1025 -7.0537,-37.5991001 9.241,-75.0813 39.4262,-90.6907 15.0038,-7.7589 41.9779,-8.7234 54.628,-1.9532 14.8855,7.9662 10.1003,13.8153 -8.8264,10.7886 -24.3023,-3.8859 -49.7804,8.5745 -58.0625,28.3962 -23.9942,57.427 26.8344,108.0671 122.4609,122.007996 11.9455,1.7415 20.6852,4.8378 19.4221,6.8815 -7.1413,11.5554 156.0198,21.3532 208.0828,12.4956 21.3657,-3.6353 21.7035,-3.971 42.6288,-42.358296 11.6008,-21.2822 20.3351,-39.452 19.4098,-40.3772 -0.9255,-0.9255 -13.9608,1.3163 -28.9673,4.9823 -15.0068,3.6653 -51.5127,7.918 -81.1244,9.4508 l -53.8396,2.7862 3.0736,23.2221 c 3.8899,29.388296 -5.4646,23.458996 -10.5763,-6.7043 -3.1431,-18.5485 -4.5953,-20.2794 -18.1158,-21.5922 -13.898,-1.3491 -14.6992,-0.6025 -14.6992,13.6912 0,8.3149 1.9061,21.7644 4.2361,29.8881 2.3295,8.123296 2.5805,14.769496 0.5573,14.769496 -8.2261,0 -14.6374,-14.423196 -17.1251,-38.526096 -2.8752,-27.8596 -2.3889,-27.138 -21.3458,-31.6803 l -13.1863,-3.1599 2.6111,25.2989 c 1.4361,13.9143 1.8067,25.2985 0.8234,25.2985 -4.2928,0 -13.203,-21.9652 -15.5198,-38.2589 -2.2576,-15.8764 -4.4645,-18.4191 -20.7413,-23.8949 -38.8217,-13.0608 -56.9218,-20.7035001 -56.9218,-24.03690015 0,-1.90839995 10.7583,0.096 23.9071,4.45530005 43.522,14.4280001 52.3448,15.1568001 55.6962,4.597 4.0885,-12.8815 11.4716,-11.8207 11.4716,1.6486 0,8.5577001 3.554,12.2042001 15.8491,16.2616001 16.7784,5.5376 25.1346,3.3726 25.1346,-6.5123 0,-3.3023 3.4143,-8.8163 7.5874,-12.2541001 6.9059,-5.6879 7.3406,-4.7152 4.8398,10.8272001 -2.6513,16.4802 -2.2803,17.0765 10.6278,17.0765 10.4471,0 13.3751,-2.0434 13.3751,-9.334 0,-5.1332 3.2247,-15.5697 7.1663,-23.1917001 3.9412,-7.6219 6.0086,-15.0159999 4.5933,-16.4312999 -1.4153,-1.4152 -0.4423,-5.1407 2.1621,-8.279 8.3004,-10.0014 -4.5597,-12.8405 -59.3272,-13.0994 -47.8894,-0.2288 -54.7582,-1.3566 -78.2153,-12.876 -26.3795,-12.9546 -40.3139,-31.373 -40.3139,-53.286304 0,-19.1244 23.0294,-78.161 56.4358,-144.6734 47.9951,-95.5586 54.2607,-103.2174 94.8909,-115.9818 27.3645,-8.5966 43.3571,-10.3992 92.2984,-10.4027 57.6892,0 59.9051,0.3651 86.9154,14.4854 48.5509,25.3812 74.8406,65.6937 111.0654,170.3094 32.334,93.378204 30.4423,108.496004 -15.8314,126.535304 -17.699,6.8996 -20.9565,9.5984 -14.631,12.1189 27.905,11.1202 29.8139,90.4239 2.9179,121.2436 l -9.3176,10.6773 2.5858,-15.9382 c 5.4529,-33.6131 8.1112,-77.1231 5.3332,-87.2927 -1.5941,-5.8371 -6.8811,-15.3276 -11.7486,-21.0899 -8.2083,-9.7172 -9.7746,-10.0045 -21.5943,-3.9635 -7.0092,3.5823 -19.9161,7.9932 -28.6821,9.8023 -8.7657,1.8088 -23.11,10.152 -31.876,18.541 -30.8856,29.5563 -67.5974,36.3866 -112.3855,20.9097999 -23.3818,-8.0796 -23.6093,-8.0687 -26.1216,1.2869 -1.394,5.1909001 -2.5625,14.3497001 -2.5967,20.3528001 l -0.062,10.915 64.8909,-2.7036 c 35.6899,-1.4867 72.8307,-5.0287 82.5352,-7.8705 l 17.6445,-5.1667 -2.8079,-20.48840015 c -3.6862,-26.89409985 6.7472,-24.89549985 12.1301,2.32340005 4.6424,23.4751001 10.7749,20.8726001 14.8497,-6.3009 4.4413,-29.6156999 12.9639,-31.9937999 10.1623,-2.8354 l -2.2467,23.3812001 17.5414,-2.8047 c 10.1961,-1.6304 17.5413,-0.9607 17.5413,1.5998 0,5.0423 -19.8691,14.974 -29.9566,14.974 -3.7175,0 -7.9955,3.5861 -9.5072,7.9693 -8.1612,23.6695 -21.0233,48.259 -22.7964,43.5824 -1.1199,-2.9532 1.0495,-15.7606 4.8209,-28.4608 8.485,-28.5731 3.4704,-30.237 -7.8879,-2.6171 -4.623,11.2415 -14.277,29.164 -21.453,39.8279 -7.1762,10.663996 -11.4122,19.960396 -9.4135,20.659496 4.3784,1.5304 75.5687,-14.786496 92.3526,-21.167696 6.5519,-2.4908 17.7811,-12.8214 24.9532,-22.9566 7.1726,-10.135 14.5779,-18.4711 16.4563,-18.5243 5.9951,-0.1742 3.6675,15.7309 -3.8797,26.5065 -4.0123,5.7282 -6.1284,11.582 -4.7022,13.0082 5.2718,5.2719 59.495,-18.9956 84.5848,-37.8559 42.7146,-32.1087 48.8054,-61.5097 19.1923,-92.6394 -16.9238,-17.7903 -18.4863,-18.4044 -46.676,-18.3368 -35.3224,0.085 -43.5717,3.9905 -36.4665,17.2668 7.0738,13.2182 6.2401,35.4083999 -1.9239,51.1956999 -9.6854,18.7295001 -16.0461,16.9085001 -10.5441,-3.0185 2.4991,-9.0499 3.1859,-26.3243999 1.5263,-38.3885999 -2.9952,-21.7791 -2.8853,-22.0212 15.4987,-34.1876 52.2245,-34.560104 121.1307,-3.3306 126.9808,57.5505999 2.8695,29.8665001 -7.4215,52.4854001 -33.9813,74.6862001 -33.8719,28.3139 -68.234,42.548596 -136.545,56.565696 -133.6945,27.4338 -225.5471,33.7538 -298.5879,20.5451 z m 136.1635,-181.793196 c 0,-4.8279 -4.7845,-6.7883 -16.3178,-6.6858 -15.3346,0.1366 -15.7851,0.5471 -7.4781,6.8306 11.4318,8.6465 23.7959,8.5714 23.7959,-0.1469 z m 27.6072,4.0792 c -1.5133,-1.5133 -5.4408,-1.6749 -8.7282,-0.36 -3.6324,1.4536 -2.5535,2.5328 2.7514,2.7514 4.8003,0.1947 7.4898,-0.8787 5.9768,-2.3921 z m -77.825,-28.4584 c 7.5138,-6.2773 79.0583,-147.684004 79.0583,-156.257104 0,-1.0187 -3.8493,-2.1424 -8.5542,-2.4965 -6.205,-0.4676 -15.061,10.347 -32.2427,39.374 -13.0287,22.0106 -38.0106,58.2375 -55.5154,80.5042 l -31.8272,40.485704 15.1168,2.816 c 23.1475,4.3115 23.5731,4.2561 33.9644,-4.4263 z m 195.1787,-26.2281 c 21.5319,-10.359404 27.0144,-15.075604 25.87,-22.252804 -1.8621,-11.679 -42.967,-139.2748 -44.378,-137.7557 -0.5839,0.6287 -4.3231,27.7828 -8.3086,60.3423 -9.3492,76.3717 -16.5215,116.120404 -20.9536,116.120404 -6.364,0 -7.5167,-19.7941 -3.5799,-61.475504 6.2646,-66.3249 6.4873,-112.6832 0.5512,-114.7557 -2.8934,-1.0099 -7.7883,5.954 -10.8774,15.4758 -13.3498,41.1517 -69.223,138.386504 -75.7625,131.8472 -1.1075,-1.1072 7.1462,-19.1339 18.3416,-40.0591 11.195,-20.9252 24.8125,-48.6149 30.261,-61.5329 9.6148,-22.7972 9.6656,-23.8539 1.7339,-35.9591 l -8.1715,-12.4717 -5.2143,20.0209 c -7.297,28.0161 -26.5794,72.7201 -50.1867,116.3503 -11.0498,20.422104 -20.0905,38.352504 -20.0905,39.845304 0,1.4932 8.2609,2.7145 18.3576,2.7145 11.5086,0 19.2682,2.3716 20.7972,6.3566 1.7039,4.4392 7.4959,5.7025 19.2104,4.1878 9.2244,-1.1919 21.8946,-0.2186 28.1558,2.1619 11.8597,4.5103 20.4094,1.5509 84.2443,-29.1605 z m -291.0154,17.5925 c -5.7511,-18.5809 -15.9882,-74.929104 -21.303,-117.258704 l -5.718,-45.5387 -17.1878,36.4301 c -21.2029,44.9389 -37.8361,95.4148 -34.3959,104.378904 3.4186,8.9095 26.5447,20.5492 50.0676,25.2005 29.2167,5.7774 31.2487,5.5482 28.5371,-3.2131 z m 70.8665,-38.427304 c 51.4854,-71.4216 66.6443,-97.7078 64.0807,-111.1194 -1.2209,-6.3859 -3.6708,-9.93 -5.4448,-7.8763 -1.7737,2.0539 -12.6502,16.2199 -24.1693,31.4799 -11.5195,15.2599 -36.4413,42.2179 -55.3818,59.9061 -33.2174,31.0216 -34.4374,32.9021 -34.4374,53.083504 0,19.0625 0.9741,20.9225 10.9537,20.9225 8.6635,0 17.9449,-9.6988 44.3989,-46.396304 z m 28.6325,-106.1538 c 31.3027,-38.6186 33.3615,-42.5606 35.6704,-68.3062 1.3482,-15.0273 3.9868,-31.4208 5.8641,-36.43 1.8771,-5.0093 -13.8138,7.5154 -34.8692,27.8327 -35.2961,34.0584 -83.9761,70.0728 -94.7166,70.0728 -2.4771,0 -5.7511,2.0181 -7.276,4.4854 -2.8197,4.5625 5.1233,72.398 9.9505,84.9769 3.4226,8.9187 39.3713,-25.8744 85.3768,-82.6316 z m -52.109,-51.632 c 11.2705,-8.9139 36.7104,-30.6564 56.5329,-48.317 l 36.0409,-32.1097 -31.4873,-3.2975 c -36.0964,-3.78 -68.081,4.7036 -86.2564,22.8785 -11.3756,11.376 -20.3675,44.274 -20.3675,74.5186 v 18.5147 l 12.523,-7.9905 c 6.8872,-4.3944 21.7439,-15.2831 33.0144,-24.1971 z m 110.9158,9.5086 c 3.5277,-6.8873 7.7869,-23.7931 9.4655,-37.5684 1.6788,-13.7749 4.1841,-30.9235 5.5679,-38.108 4.3223,-22.4368 -8.7724,-11.514 -14.875,12.4082 -6.7536,26.4741 -12.7263,75.7911 -9.1788,75.7911 1.4337,0 5.4931,-5.6353 9.0204,-12.5229 z m 37.8846,-52.0455 c 1.9291,-18.4553 1.1902,-26.5066 -2.432,-26.5066 -3.1892,0 -5.2022,8.5902 -5.2022,22.1995 0,12.2098 -1.0795,29.1155 -2.3985,37.5684 -2.1694,13.9013 -1.9373,14.3125 2.432,4.3071 2.6567,-6.0841 6.0771,-22.9898 7.6007,-37.5684 z m 17.6668,-16.3846 c -4.7262,-4.7258 -5.3679,1.2093 -2.8457,26.3081 l 2.5171,25.0455 1.4303,-24.4106 c 0.7869,-13.4259 0.2903,-25.5503 -1.1017,-26.943 z m 9.1103,-61.2262 c -3.8989,-5.5663 -7.0889,-13.6787 -7.0889,-18.027 0,-6.6401 -3.7661,-5.5659 -23.5147,6.7056 -21.5422,13.3856 -26.6036,14.5915 -60.3372,14.3736 -39.3087,-0.2527 -59.6947,-7.5184 -88.0482,-31.376 l -13.7354,-11.5578 -5.5775,13.4659 c -11.3799,27.4727 -30.8276,29.2856 -41.3614,3.8552 -5.9099,-14.2681 -9.8539,-74.1098 -10.1509,-154.0221 -0.1368,-36.8594 1.5439,-46.9666 11.3617,-68.3061 13.9558,-30.3348 29.8398,-47.9366 52.6103,-58.3007 9.9379,-4.5232 17.7388,-11.5833 18.6322,-16.8624 1.9478,-11.5085 31.7025,-56.8956 37.2996,-56.8956 2.3081,0 3.0273,-5.8456 1.5984,-12.9901 -2.8563,-14.2811 6.1557,-33.958 32.0656,-70.0121 8.5081,-11.8398 16.291,-23.9915 17.2951,-27.0034 3.8496,-11.5489 16.713,1.2968 35.4065,35.3569 19.1383,34.8714 19.3884,35.9004 16.6339,68.4848 -3.2596,38.5626 1.8018,49.7883 40.4,89.6023 27.6322,28.5024 39.9251,55.59584 43.7025,112.10964 2.5834,38.6531 -4.2588,65.97766 -15.6844,73.77176 -2.3592,1.6093 0.086,5.2674 5.4335,8.1291 14.8559,7.9505 12.3023,18.5444 -4.4697,18.5444 -12.5099,0 -13.861,1.2145 -11.3986,10.246 8.0252,29.4341 8.4591,58.0059 1.0517,69.3109 -9.3157,14.2176 -22.7355,14.8012 -32.1241,1.3972 z m 15.6796,-34.1531 c 0,-21.1199 -0.1332,-21.3166 -7.375,-10.9754 -5.8319,8.3258 -6.3289,12.8265 -2.3746,21.5051 7.3518,16.135 9.7496,13.5448 9.7496,-10.5297 z m -70.5827,3.8573 c 10.0181,-4.5871 28.3764,-19.2562 40.7958,-32.5978 l 22.5813,-24.2572 -12.3354,-4.1117 c -7.6901,-2.5635 -12.335,-7.3982 -12.335,-12.8398 0,-6.9392 3.2666,-8.7282 15.9382,-8.7282 h 15.9378 v -22.9501 c 0,-25.7303 -9.6588,-47.4612 -32.8117,-73.8205 -14.8819,-16.943 -15.3322,-17.097 -55.9863,-19.1824 -27.7056,-1.4208 -51.0109,0.1912 -71.9348,4.9781 -27.8996,6.3819 -32.1473,8.8867 -43.0786,25.4051 -9.0266,13.6401 -12.5937,25.651 -13.9515,46.9782 -3.4771,54.607 20.8053,96.1771 69.3966,118.8032 27.6722,12.8856 53.0595,13.6438 77.7836,2.3231 z m -60.6334,-26.7511 c 1.7541,-9.2565 29.1197,-13.1711 40.1415,-5.7425 6.0714,4.0926 6.0714,5.1021 0,9.0878 -3.7568,2.4665 -14.6653,4.5157 -24.2411,4.554 -14.1405,0.055 -17.1268,-1.4269 -15.9004,-7.8993 z m 51.5258,-73.9984 c -5.639,-9.1243 3.3387,-13.6612 27.0335,-13.6612 22.7418,0 38.7959,7.7892 31.3665,15.2186 -4.7989,4.7991 -55.3041,3.4522 -58.4,-1.5574 z m -107.0128,-4.1763 c 0,-8.2561 18.1349,-14.5765 37.7422,-13.1537 13.3941,0.972 19.1793,3.4522 19.1793,8.2224 0,5.1984 -6.8004,7.1547 -28.4608,8.1865 -17.0656,0.8128 -28.4607,-0.4905 -28.4607,-3.2552 z m -41.604,65.6235 c -4.834,-8.1934 -10.7138,-23.8338 -13.0656,-34.7569 -3.3257,-15.4451 -3.7485,-10.319 -1.9023,23.0594 1.3061,23.6053 3.5393,44.8041 4.9636,47.1084 1.4241,2.3039 6.2352,-1.3689 10.6915,-8.1623 7.8061,-11.8996 7.7809,-12.8965 -0.6872,-27.2486 z m 253.8529,-99.36191 c -5.8258,-5.8258 -7.989,4.1438 -4.417,20.357 2.1715,14.58795 1.9982,13.20314 5.4024,-0.2446 2.3763,-9.38703 0.433,-18.694 -0.9854,-20.1124 z m -267.0335,-14.45319 c 0,-7.5417 -0.7589,-7.9331 -4.4143,-2.277 -2.428,3.7568 -4.4142,10.929 -4.4142,15.9382 0,7.5413 0.7589,7.9331 4.4142,2.2766 2.4279,-3.7568 4.4143,-10.9289 4.4143,-15.9378 z m 268.7405,-3.4153 c -0.036,-3.1308 -1.7561,-8.3508 -3.8172,-11.6001 -3.0048,-4.7371 -4.8733,-4.5513 -9.4297,0.9388 -3.1254,3.7658 -4.3604,8.9857 -2.7446,11.6001 4.1107,6.6513 16.0759,5.9488 15.9915,-0.9388 z m -257.1079,-43.5315 c -4.0544,-4.0543 -11.3758,8.7268 -11.2408,19.6243 0.092,7.5096 1.3411,6.8399 7.1171,-3.8179 3.8524,-7.109 5.7083,-14.2217 4.1237,-15.8064 z m 226.6209,12.7937 c -1.3098,-5.0092 -4.1916,-9.1076 -6.4041,-9.1076 -4.705,0 -5.4047,10.7613 -0.987,15.179 5.97,5.97 9.7319,2.8798 7.3911,-6.0714 z m 16.8954,-5.9604 c 0,-6.9498 -13.3312,-25.8607 -13.4541,-19.0854 -0.045,2.5048 1.1528,9.1646 2.6632,14.7999 2.9501,11.0075 10.7909,14.1216 10.7909,4.2855 z m -34.5328,-15.1834 c 1.5789,-4.1151 1.9349,-8.4187 0.7901,-9.5635 -3.619,-3.6189 -11.7945,3.6482 -11.7945,10.4839 0,8.9324 7.4631,8.3081 11.0044,-0.9204 z m -179.4927,-24.3938 c 5.0089,0 9.1072,-2.0492 9.1072,-4.5537 0,-8.7776 -22.2508,-4.5556 -29.3409,5.567 -9.9818,14.2507 -8.8153,18.928 2.0184,8.0943 5.0093,-5.0093 13.206,-9.1076 18.2153,-9.1076 z m 127.5046,11.3845 c 0,-3.795 -4.0478,-6.8306 -9.1077,-6.8306 -9.072,0 -11.8445,4.8522 -6.0713,10.6254 5.5461,5.5461 15.179,3.1376 15.179,-3.7948 z m 31.876,5.0407 c 0,-0.9843 -3.1799,-3.0099 -7.0669,-4.5014 -4.0525,-1.555 -5.8804,-0.7916 -4.2851,1.7896 2.674,4.3269 11.352,6.4 11.352,2.7118 z m -64.7401,-11.1161 c 1.3607,-4.1281 -1.3299,-5.5878 -8.3941,-4.5537 -5.718,0.8368 -11.2975,4.2555 -12.3985,7.597 -1.3609,4.1278 1.3297,5.5875 8.3936,4.5537 5.7182,-0.8371 11.2976,-4.2555 12.399,-7.597 z m -47.1286,-0.2903 c 6.3662,-2.4932 7.2405,-4.4154 3.1566,-6.9393 -7.061,-4.3637 -27.9001,0.5366 -27.9001,6.5605 0,5.1742 12.0278,5.3583 24.7435,0.3788 z m 116.4227,-4.5322 c 0,-5.0505 -14.0092,-10.7647 -17.5966,-7.1776 -1.4475,1.4475 0.3832,4.5383 4.0672,6.8682 8.5148,5.3849 13.5294,5.4997 13.5294,0.3074 z m 27.231,-2.8743 c -3.168,-3.8173 -6.9458,-5.7551 -8.3948,-4.306 -1.4487,1.4491 0.3798,4.541 4.0641,6.8709 9.6405,6.0967 10.9,5.3508 4.3307,-2.5649 z m -61.384,-6.7203 c -1.5481,-2.5041 -5.7675,-4.5533 -9.3764,-4.5533 -3.609,0 -6.5618,2.0492 -6.5618,4.554 0,2.5045 4.2193,4.5536 9.3764,4.5536 5.1567,0 8.1095,-2.0491 6.5618,-4.5536 z m -86.7144,-8.266 c 18.2327,2.1287 25.3594,-7.2261 14.0903,-18.4953 -6.2032,-6.2032 -8.3047,-5.9122 -20.0571,2.7767 -9.4733,7.0037 -14.5095,8.3241 -18.0905,4.7431 -3.5814,-3.5813 -6.9324,-3.3285 -12.037,0.9082 -6.3578,5.2766 -6.2632,6.4638 0.9325,11.7254 5.5675,4.0714 9.7253,4.4283 13.649,1.1721 3.1034,-2.5758 12.7841,-3.849 21.5128,-2.8302 z m 58.9046,-3.4908 c 4.4105,-11.4939 3.2684,-15.5656 -4.3658,-15.5656 -12.4375,0 -24.5454,8.8856 -21.8125,16.0075 3.4512,8.9936 22.6821,8.6691 26.1783,-0.4419 z m 66.5165,0.5324 c 0,-1.1639 -4.0985,-4.3098 -9.1077,-6.9908 -7.269,-3.8903 -9.1072,-3.4631 -9.1072,2.1168 0,3.955 3.955,6.9908 9.1072,6.9908 5.0092,0 9.1077,-0.9525 9.1077,-2.1168 z m -36.4301,-6.9901 c 0,-2.5044 -3.0737,-4.5536 -6.8307,-4.5536 -3.7567,0 -6.8306,2.0492 -6.8306,4.5536 0,2.5048 3.0739,4.554 6.8306,4.554 3.757,0 6.8307,-2.0492 6.8307,-4.554 z m -53.5062,-16.6769 c -3.1308,-1.2633 -8.2538,-1.2633 -11.3846,0 -3.1304,1.2633 -0.569,2.2968 5.6922,2.2968 6.2614,0 8.8229,-1.0335 5.6924,-2.2968 z m -23.9072,-19.7528 c 0,-10.3221 -4.7223,-11.6715 -12.7506,-3.6431 -8.0281,8.028 -6.6791,12.7504 3.643,12.7504 6.0718,0 9.1076,-3.0359 9.1076,-9.1073 z m 100.1822,5.4645 c 0,-2.0038 -2.459,-6.1021 -5.4644,-9.1076 -3.0055,-3.0055 -7.1038,-5.4645 -9.1077,-5.4645 -5.8831,0 -4.1724,12.6886 2.0492,15.1991 8.7808,3.5431 12.5229,3.3556 12.5229,-0.627 z m -59.1985,-12.8122 c 0,-3.9795 -5.0508,-6.3135 -13.6612,-6.3135 -10.1936,0 -13.6612,2.1113 -13.6612,8.3186 0,6.6527 2.7356,7.9174 13.6612,6.3139 7.6462,-1.1223 13.6612,-4.7852 13.6612,-8.319 z m 27.1743,-2.0365 c -5.6745,-10.6032 -15.0472,-9.6298 -17.2624,1.7923 -1.071,5.5226 1.7654,7.5919 10.4061,7.5919 10.584,0 11.3314,-1.0225 6.8563,-9.3842 z m 18.363,-51.1808 c 0,-6.5615 -8.8969,-16.8487 -14.5721,-16.8487 -2.0034,0 -3.6427,5.1229 -3.6427,11.3842 0,8.3487 2.4286,11.3846 9.1072,11.3846 5.0092,0 9.1076,-2.6639 9.1076,-5.9201 z m -51.485,-12.2951 c 5.6735,-15.0311 4.9225,-15.8699 -8.0131,-8.9471 -9.8107,5.2504 -12.0952,22.6083 -2.9757,22.6083 3.2077,0 8.1527,-6.1475 10.9888,-13.6612 z m 30.0617,-43.2907 c -7.4749,-18.32476 -8.9647,-17.62629 -20.7718,-3.4153 -9.4826,11.41316 -10.597,12.94223 4.2733,15.3221 18.6391,3.91533 24.3612,4.7897 16.4985,-11.9068 z" fill="#00B894" transform="translate(141.50277,63.958653) matrix(0.26458333,0,0,0.26458333,-610.99789,168.97305)"/>
</svg>