<?xml version="1.0" ?><svg height="414.98315mm" viewBox="0 0 147.92921 414.98315" width="147.92921mm" xmlns="http://www.w3.org/2000/svg">
    <path d="m -1477.8965,6433.5117 c -0.788,-0.019 -1.5724,0 -2.3515,0.051 -12.4664,0.8678 -28.2735,20.5 -28.2735,20.5 0,0 -31.2398,25.9118 -51.1269,48.5508 -19.8868,22.639 -32.7227,101.7754 -32.7227,101.7754 0,0 -15.3612,33.0569 -25.9727,68.7851 -10.6114,35.7283 6.0115,45.0115 24.7852,50.6211 16.3994,64.5109 100.1762,67.9159 121.6953,66.5137 21.5195,-1.4026 73.1665,-30.787 94.3145,-63.7774 21.1483,-32.9899 14.9883,-97.3671 14.9883,-97.3671 0,0 54.8376,-27.9816 53.1308,-41.0039 -1.7068,-13.0224 -35.0996,-16.0938 -35.0996,-16.0938 0,0 -17.5116,-86.0155 -37.3242,-101.3086 -19.8127,-15.2927 -71.8301,-28.916 -71.8301,-28.916 0,0 -12.3919,-8.0406 -24.2129,-8.3301 z m 184.8438,333.3672 c -15.3911,-0.05 -16.6005,3.996 -21.2754,17.5527 -5.3428,15.4935 -0.074,44.1434 22.039,47.1485 26.0459,-1.4022 33.3185,-9.4165 35.3965,-27.7813 2.0776,-18.3651 -6.01,-35.3949 -28.6426,-36.664 -2.829,-0.1586 -5.3188,-0.2487 -7.5175,-0.2559 z m -196.9141,56.8984 c -36.5791,0.021 -70.8326,1.7571 -81.9199,5.2422 -25.3425,7.9658 -81.7109,69.3439 -90.1895,86.4493 -8.4786,17.1053 -61.3994,50.7299 -76.3066,66.3261 -14.9072,15.5962 0.5793,51.0802 40.1562,84.0176 39.5774,32.9371 61.3536,42.2773 61.3536,42.2773 l -2.8106,167.3301 c 0,0 -10.0625,360.975 -8.1992,399.211 1.8633,38.2355 10.5284,32.4489 18.541,34.7129 8.013,2.2639 92.0653,22.3017 119.2695,18.9179 27.2047,-3.3838 27.4747,-18.1638 23.375,-32.7539 -4.0992,-14.5897 -23.2929,-263.457 -23.2929,-263.457 l 98.3886,-0.502 c 0,0 27.2044,237.3795 27.2989,255.9102 0.093,18.531 5.1247,27.0844 24.5976,32.2832 19.4725,5.1987 44.5723,-0.7832 44.5723,-0.7832 0,0 42.8211,-28.2301 37.8828,-52.4629 -4.938,-24.2328 -27.293,-284.3906 -27.293,-284.3906 l -6.2422,-288.1094 35.5547,-32.041 c 0,0 -18.1689,-71.1046 -33.7285,-123.2598 -15.5592,-52.1548 -54.131,-96.6798 -72.6719,-106.5742 -10.4294,-5.5656 -61.3056,-8.3713 -108.3359,-8.3438 z" fill="#FFFFFF" transform="translate(5.394338,167.01037) translate(3884.9086,-1417.235) matrix(0.26458333,0,0,0.26458333,-3417.4795,-450.03122)"/>
    <path d="m -1466.7637,6426.209 c -3.6239,-0.2732 -8.6075,0.7026 -17.6875,2.7207 -13.079,2.908 -21.3476,6.9534 -25.2968,12.3808 -3.2266,4.4331 -10.2451,9.9905 -15.5977,12.3497 -19.1921,8.4585 -55.5248,56.3333 -65.8066,86.7089 -2.7648,8.1706 -6.8318,28.9475 -9.0372,46.1719 -2.2053,17.2237 -6.2471,34.867 -8.9804,39.2051 -8.0145,12.7238 -25.5801,69.2397 -24.3574,78.3691 0.6164,4.6099 3.809,12.0708 7.0957,16.5821 l 5.9746,8.2011 -11.6719,13.0762 c -17.0536,19.107 -24.9036,35.1922 -31.9297,65.4258 -4.4561,19.1754 -5.4074,28.987 -3.3086,34.1582 4.34,10.6934 12.3597,9.7663 18.0078,-2.084 l 4.9629,-10.416 1.8848,20.0312 1.8808,20.0332 -17.4492,21.5762 c -22.2746,27.5392 -45.675,51.1514 -73.8359,74.5059 -16.7082,13.8572 -25.0552,11.6035 -19.7578,32.1543 2.4003,12.8111 1.838,14.5007 -9.1797,27.5937 -6.4554,7.6702 -15.4156,20.3381 -19.9121,28.1485 -9.4957,16.4927 -8.4822,25.0272 4.7715,40.1933 7.9218,9.0656 61.2225,57.2609 88.0253,79.5938 6.5995,5.4988 11.9281,13.3027 12.3926,18.1504 0.4483,4.6756 2.1977,16.3594 3.8887,25.9609 4.021,22.8378 3.9413,23.1041 -5.8828,19.498 -8.9972,-3.3021 -18.2677,0.6792 -19.0645,8.1895 -0.6497,6.1126 12.9317,16.7651 27.461,21.5371 8.5217,2.7961 6.4312,2.8085 -7.3301,0.045 -17.0003,-3.4148 -19.1848,-3.1813 -18.7305,2.002 0.7949,8.9956 14.8609,20.1772 30.0391,23.8789 l 13.6641,3.332 -5.959,57 c -3.2788,31.3493 -6.0283,77.4468 -6.1153,102.4356 -0.087,24.9883 -0.2192,62.0944 -0.291,82.455 -0.5843,161.6108 -1.2267,154.3637 15.3594,172.8887 14.962,16.6776 23.6088,19.8955 48.1387,17.7207 16.2493,-1.4385 22.06,-0.553 34.6269,5.2754 14.7504,6.8436 15.0675,7.3216 13.6074,20.8379 -0.8231,7.6082 -0.9914,30.5528 -0.375,50.9883 0.6169,20.434 1.4064,54.6051 1.7579,75.9375 l 0.6406,38.7871 -25.3145,19.1973 c -13.9226,10.5592 -23.9326,21.9536 -25.7558,23.3554 v 0 c -11.4724,8.8211 -38.3334,24.7238 -9.2461,32.1309 19.1021,2.0303 47.4546,-24.0202 69.123,-41.7149 15.905,-12.9864 25.0524,-15.99 20.0078,-37.4316 -1.0046,-10.783 -2.8669,-40.1712 -4.1406,-65.3047 -1.2722,-25.1331 -3.8846,-58.6226 -5.8027,-74.4199 -3.747,-30.8561 -2.4754,-34.0368 12.9961,-32.5 9.7001,0.9626 32.7135,-15.4877 39.8398,-28.4824 7.827,-14.2617 8.1992,-22.6613 2.8262,-63.5879 -2.578,-19.6422 -8.1864,-74.0494 -12.4629,-120.9024 -4.2769,-46.8529 -8.3768,-86.4326 -9.1074,-87.955 -0.7306,-1.5175 13.2722,-1.1475 31.1191,0.8281 17.8466,1.9733 36.0915,3.3904 40.543,3.1523 7.9408,-0.4316 8.1859,0.708 13.0566,60.4317 6.6429,81.4526 20.0884,187.3603 25.7656,202.9668 2.7995,7.6913 7.3447,13.3199 11.6348,14.4043 7.1346,1.8024 9.0931,12.9271 10.0859,57.2754 1.0496,46.9878 5.9903,137.7681 8.9141,151.8691 4.0638,19.5938 11.5021,26.9284 44.8262,34.1367 11.766,2.5451 31.3058,10.7632 43.4219,15.8164 17.3514,7.2382 23.82,8.5941 30.4648,6.3789 10.1076,-3.3672 12.6123,-15.9333 4.8125,-24.1504 -7.9616,-8.3875 -51.4118,-27.0674 -70.5449,-29.1015 -9.2644,-0.9782 -19.185,-5.9215 -22.0469,-8.541 -3.772,-3.4511 -6.9843,-37.6649 -12.5059,-98.0508 -4.1877,-45.8124 -8.4009,-86.0308 -9.3613,-89.3731 -1.4955,-5.2119 0.2282,-5.8661 12.0332,-4.6113 25.971,2.7602 52.5208,-12.206 66.3047,-37.375 6.7204,-12.2717 8.7756,-37.6968 4.668,-57.7695 -5.5797,-27.2727 -16.4699,-145.1168 -14.7676,-159.8067 1.0598,-9.1461 4.9798,-21.6087 8.7109,-27.6933 l 6.7852,-11.0625 -4.1895,21.4824 c -7.0688,36.706 25.9565,42.1016 27.4317,-5.9902 2.9677,-30.7454 -1.1072,-57.224 -12.7383,-82.7774 -3.6805,-8.0829 -7.9606,-42.1995 -12.6582,-100.8926 -3.9031,-48.7725 -8.5489,-94.8906 -10.3203,-102.4863 -1.7711,-7.595 -5.1286,-27.9363 -7.461,-45.2012 l -4.2421,-31.3886 9.8496,-10.4161 c 12.5446,-13.2631 14.5933,-30.102 6.2988,-51.7871 -3.4209,-8.9476 -8.2295,-28.6015 -10.6816,-43.6757 -8.9798,-55.194 -40.1814,-120.2782 -69.8809,-145.7696 -17.6175,-15.1207 -46.5195,-25.433 -62.5508,-22.3183 -7.183,1.3946 -12.8372,0.7633 -16.5215,-1.8457 -3.2787,-2.3214 -16.5252,-4.3366 -31.9355,-4.7286 -23.712,-0.6852 -26.2728,-1.3477 -25.707,-6.6503 0.4815,-4.5389 5.4546,-6.3613 21.707,-7.9551 32.6944,-3.2073 56.4689,-14.6608 74.8008,-36.0332 l 6.4668,-7.5391 7.9199,9.0684 c 4.3559,4.9874 11.6701,20.2317 16.2558,33.8769 9.6322,28.6651 21.5092,41.8788 44.6973,49.7266 26.2197,8.8739 49.6401,0.8347 64.7695,-22.2344 10.997,-16.7652 7.3593,-52.9702 -6.2519,-62.2285 -7.6347,-5.1931 -29.9386,-7.6615 -41.5625,-4.6016 -10.3525,2.7251 -24.1272,19.3065 -25.334,30.4981 -1.1822,10.9557 -7.7174,6.8115 -14.6797,-9.3086 -7.0824,-16.402 -17.4578,-31.4263 -25.7422,-37.2774 -5.218,-3.6861 -5.5046,-5.7776 -1.8457,-13.4511 3.6261,-7.6022 5.836,-11.1309 5.836,-11.1309 28.532,11.0869 23.1337,-11.6571 11.6152,-22.0976 0,0 2.3713,-21.4353 1.4336,-35.0684 l -1.668,-24.2617 24.0957,-17.0469 c 18.2415,-10.7176 26.3886,-21.7073 24.7442,-33.3789 -1.2953,-9.188 -14.1219,-17.597 -29.3008,-19.209 -6.717,-0.7143 -7.6515,-2.4789 -6.5996,-12.3691 5.565,-52.3616 -44.4942,-110.8993 -99.8711,-116.7852 -6.8107,-0.7238 -15.8853,-4.1827 -20.1641,-7.6855 -3.6368,-2.977 -5.9014,-4.4984 -9.5254,-4.7715 z m -13.5937,14.8691 c 1.2088,-0.052 2.4117,-0.024 3.5762,0.1 8.6581,0.9211 8.3263,6.2877 -0.6153,9.9161 v 0 c -8.4979,3.448 -16.339,2.738 -18.457,-1.6739 -1.7455,-3.6351 7.0302,-7.9746 15.4922,-8.3418 z m 35.3613,10.3809 c 1.8497,0.1985 5.2444,1.1383 10.6621,2.6465 30.0367,8.3629 58.5108,30.8696 67.1641,53.0898 5.0071,12.8576 3.8242,12.491 -7.8613,-2.4453 -6.0866,-7.7802 -19.3221,-17.269 -36.3829,-26.084 -14.7499,-7.6195 -29.2185,-17.1763 -32.1484,-21.2344 -3.3052,-4.5772 -4.5163,-6.3035 -1.4336,-5.9726 z m -15.8144,9.7226 c 2.263,-0.1285 6.1837,2.9425 11.166,9.5586 4.6624,6.1913 10.4939,11.5111 12.957,11.8399 2.9121,0.3791 2.0364,2.0533 -2.5039,4.7851 -10.8756,6.5447 -15.1389,4.3861 -20.8652,-10.5586 -3.8328,-10.0053 -3.6635,-15.4596 -0.7539,-15.625 z m -55.2442,6.1582 c 0.4294,-0.08 0.7537,0 0.9629,0.2618 3.2791,4.0588 -13.5379,41.4133 -28.125,62.4687 -16.2709,23.486 -29.0313,51.1147 -30.6523,66.3711 -0.5492,5.161 -2.701,9.1959 -4.7813,8.9805 -5.9505,-0.6323 4.6436,-58.7668 13.8418,-75.9629 12.4537,-23.2824 42.3126,-60.9191 48.7539,-62.1192 z m 42.4766,2.3457 c 5.393,-0.301 6.7835,1.9618 9.1523,11.5977 1.7035,6.898 2.5226,12.9218 1.8438,13.3848 -0.6822,0.4637 -4.6939,2.1976 -8.9141,3.8515 -10.8419,4.249 -10.9409,4.1642 -13.4082,-11.4101 -2.5364,-16.0037 -2.7789,-15.526 8.7559,-17.1524 0.9482,-0.1336 1.7998,-0.2285 2.5703,-0.2715 z m -25.1524,18.4102 c 1.9131,-0.1792 3.3491,3.4054 2.6348,10.1465 -0.4819,4.532 -2.8178,7.917 -5.2813,7.6562 -3.0092,-0.3197 -3.6154,-3.5887 -1.8984,-10.2675 1.2803,-4.9802 3.057,-7.3958 4.5449,-7.5352 z m 68.9649,10.7402 c 4.5321,-0.2843 5.5661,2.2265 8.2519,11.2305 2.0637,6.9192 3.6407,17.0842 3.4668,22.5898 v 0 c -0.2411,8.4578 -2.0538,10.5364 -11.6758,13.3926 -9.0633,2.6895 -11.5662,2.4911 -12.2363,-0.9649 -0.4645,-2.3894 -2.4171,-11.8958 -4.3379,-21.1269 -4.024,-19.3361 -3.3915,-20.7635 10.6426,-24.043 2.4787,-0.5792 4.378,-0.9853 5.8887,-1.0801 z m 21.4023,4.9297 c 3.5659,-0.2143 17.0842,10.3065 23.6074,18.9707 6.8595,9.1091 6.8588,9.2092 -0.2187,12.0821 v 0 c -12.3137,4.9969 -16.5366,2.3403 -20.5879,-12.9551 -2.1618,-8.1615 -3.8078,-15.9498 -3.6679,-17.3086 0.054,-0.5054 0.3597,-0.7565 0.8691,-0.7871 z m -49.5898,3.3828 c 1.4509,0.1539 7.712,34.8027 7.1855,39.7637 -0.2377,2.2345 -5.3243,5.2062 -11.3047,6.6035 -15.4076,3.5996 -15.7079,3.4073 -16.6191,-10.6953 -0.452,-6.9921 -1.1778,-16.7412 -1.6211,-21.6641 -0.6841,-7.6762 0.7785,-9.3192 10.2617,-11.5351 6.0824,-1.4211 11.5285,-2.4727 12.0977,-2.4727 z m -44.752,8.709 c 8.1808,0.8697 9.2893,4.0315 9.9942,28.4571 0.4403,15.2798 0.1861,15.7206 -10.5743,18.2343 -14.9004,3.4817 -15.7322,3.2078 -17.125,-5.6465 -3.4034,-21.6532 5.5184,-42.3397 17.7051,-41.0449 z m 130.3535,27.3223 c 3.8877,0.4131 11.3642,24.7828 8.3496,27.2187 -3.9012,3.1522 -33.0978,9.9922 -32.9277,7.7188 0.083,-1.2008 -0.5612,-7.9826 -1.4316,-15.0703 -1.5402,-12.5382 -1.2516,-12.986 10.666,-16.541 6.7378,-2.0089 13.6422,-3.5039 15.3437,-3.3262 z m -157.5644,4.0664 c 1.216,0.3486 1.2605,3.9218 0.5254,10.834 v 0 c -0.8995,8.4635 -2.8989,11.5186 -8.041,12.2969 -8.2008,1.2393 -8.2097,-2.2297 -0.041,-14.6133 3.9549,-5.99 6.3426,-8.8662 7.5586,-8.5176 z m 115.0078,5.6719 3.2168,14.9355 3.2168,14.9356 -13.4238,3.7832 c -16.9561,4.7762 -15.6188,5.3379 -16.7598,-7.0918 -1.7454,-19.019 -0.3295,-21.883 11.9922,-24.2774 z m -31.6563,8.7402 0.4141,14.6367 c 0.2294,8.0504 -0.7289,15.5332 -2.1269,16.6289 -1.3977,1.0957 -8.0536,2.4148 -14.7891,2.9239 l -12.25,0.9277 -0.7578,-14.3789 c -0.8791,-16.69 0.7484,-18.5573 17.2676,-19.8106 z m -50.1347,6.8555 c 5.9439,-0.4199 6.3872,1.7205 6.9375,14.5156 0.3651,8.4635 -0.1603,16.0523 -1.166,16.8652 v 0 c -1.0053,0.8126 -7.2744,1.7742 -13.9316,2.1446 -11.2059,0.6164 -12.1836,-0.059 -13.1953,-9.1211 -0.6006,-5.3832 -1.469,-11.6982 -1.918,-14.0332 -0.9101,-4.6768 6.3061,-8.2407 20.375,-10.0586 1.09,-0.1409 2.0512,-0.2525 2.9004,-0.3125 z m -39.7481,7.2051 c 5.4055,-0.3704 6.8179,2.0825 7.5489,13.1074 0.4936,7.4592 -0.1838,14.384 -1.5039,15.3867 -1.3225,1.0038 -7.368,2.2127 -13.4375,2.6953 -10.8994,0.861 -11.0181,0.7117 -9.67,-11.9531 1.4249,-13.4158 5.9126,-18.4744 17.0625,-19.2363 z m 205.2559,12.3925 c 18.3184,0.5042 19.6188,7.7111 -7.2461,18.5352 -21.9636,8.8494 -61.2133,15.5611 -98.5879,16.8594 -13.0106,0.4516 -32.7289,0.6988 -43.8203,0.5136 -19.6785,-0.3008 -19.1198,-0.552 22.9785,-10.3047 23.7309,-5.4973 58.7073,-13.8689 77.7285,-18.6054 20.8379,-5.189 37.9562,-7.3006 48.9473,-6.9981 z m -259.4902,37.8047 c 0.4945,0.1267 1.0238,0.365 1.6132,0.666 5.0812,2.5966 0.9151,30.0794 -8.7011,57.4004 -5.9365,16.8223 -10.7233,22.1155 -15.1582,16.625 -3.2882,-4.0705 -0.634,-19.3688 7.4765,-43.1152 9.5029,-27.8209 11.3077,-32.4633 14.7696,-31.5762 z m 206.8867,15.8926 c 6.0331,0.2265 7.6116,1.6859 8.7558,4.8027 7.324,19.945 1.1036,37.8106 1.1036,37.8106 -11.9316,-3.9232 -22.8259,5.0478 -13.4258,14.4551 5.2535,5.258 5.4329,5.5035 -2.2657,16.8164 -6.6326,9.7466 -10.6966,12.0413 -24.7402,13.9628 -16.481,2.2572 -22.6424,6.0487 -23.6504,14.5469 -0.7457,6.2952 8.3361,9.7436 14.6328,5.5547 3.0112,-2.0054 6.3398,-2.5694 7.3985,-1.2598 3.2919,4.0759 -14.6061,17.0091 -33.043,23.8731 v 0 c -17.0555,6.3512 -22.4967,6.4953 -45.1387,1.2032 -14.7787,-3.4526 -27.989,-21.1343 -38.1465,-51.0606 -14.0749,-50.5364 7.6234,-32.6659 48.7129,-68.4062 4.8325,-4.2032 12.3609,-6.976 16.4004,-6.5742 4.0388,0.4097 25.605,-0.9997 47.9239,-3.1329 18.9622,-1.8139 29.4493,-2.8202 35.4824,-2.5937 z m -51.2481,14.3535 c -6.2591,0.5721 -10.3344,10.3281 -7.8261,19.7363 0.7623,2.8615 4.0648,4.9752 7.3398,4.6993 4.3185,-0.3651 8.8041,-2.9951 9.6953,-11.4102 0.9974,-9.3861 -2.5438,-12.4452 -7.9297,-13.0137 -0.4353,-0.046 -0.862,-0.05 -1.2793,-0.012 z m -33.2285,2.7012 c -6.8368,0.2496 -10.2708,4.3838 -8.7969,14.0312 1.6695,10.9297 7.2688,11.3601 13.375,9.25 5.1047,-1.7639 5.5083,-22.4151 -1.4453,-23.1562 -1.1112,-0.1182 -2.1561,-0.1607 -3.1328,-0.125 z m 174.1192,118.7402 c 3.8591,0.1095 8.4095,0.7442 11.4355,1.668 v 0 c 4.0362,1.2291 0.5952,1.5187 -7.6445,0.6426 -8.2349,-0.8757 -11.5419,-1.8888 -7.3379,-2.2403 1.0512,-0.089 2.2605,-0.1107 3.5469,-0.074 z m 27.7988,16.8711 c 1.0069,0.2204 1.1474,2.1908 0.709,6.3086 -0.4948,4.6609 -3.9043,10.6627 -7.5743,13.3359 -9.3441,6.8085 -26.8399,4.4065 -30.3164,-4.1621 -4.8393,-11.924 -2.5159,-13.9569 13.9707,-12.205 8.7897,0.935 17.9698,0.093 20.4004,-1.8711 1.2899,-1.0415 2.2064,-1.5385 2.8106,-1.4063 z m -220.1231,37.3086 c 1.221,-0.2015 1.9983,0.3247 1.8594,1.4336 -3.9183,7.9471 -5.7172,21.8892 -1.2051,26.6309 9.3801,9.1373 10.66,12.2648 8.2442,20.1875 -1.5731,5.1564 -3.0774,11.4352 -3.3457,13.9531 -0.6044,5.6916 -4.4031,5.4378 -10.7149,-0.7168 -2.8679,-2.7976 -4.9302,-12.7829 -5.0625,-24.4824 0.6771,-12.0478 -0.6824,-31.6874 8.8731,-36.5567 0.4879,-0.2343 0.9445,-0.382 1.3515,-0.4492 z m 47.2696,2.6895 c 3.4683,0.3505 4.1666,4.6836 4.084,19.7851 -0.066,11.3288 0.4317,23.7739 1.0976,27.6543 v 0 c 0.76,4.419 -1.6395,9.8267 -6.418,14.4688 l -7.6328,7.4121 0.709,-7.7227 c 0.7649,-8.3376 -3.5837,-21.5948 -8.3633,-25.4941 -1.7356,-1.4174 -0.2061,-5.7819 3.7012,-10.5547 3.6808,-4.4965 6.3572,-11.8204 5.9785,-16.3653 -0.4808,-5.7819 1.0566,-8.4911 5.1797,-9.1113 0.6143,-0.093 1.1666,-0.1223 1.6621,-0.072 z m 24.1172,4.9453 c 9.8502,-0.1523 36.2318,10.7023 44.5097,19.1797 l 8.6328,8.8398 -11.7832,-6.2441 c -15.8494,-8.3989 -18.2283,-3.5505 -5.3593,10.9277 l 10.541,11.8574 -7.7715,8.7774 c -11.9879,13.5413 -11.6096,24.8135 1.1523,34.2929 16.0131,11.8957 15.6648,18.0432 -2.3847,42.1895 -8.7032,11.6439 -17.4274,23.2736 -19.3868,25.8418 -2.6743,3.507 -3.811,1.2846 -4.5605,-8.9024 -4.4115,-59.9652 -9.0754,-99.8224 -14.0273,-119.8554 -3.2429,-13.1021 -4.424,-24.7093 -2.67,-26.127 0.6315,-0.51 1.7003,-0.7556 3.1075,-0.7773 z m 64.2929,44.0215 c 5.9411,-1.9317 30.087,53.3232 40.791,95.6289 4.8152,19.0295 10.9721,40.9321 13.6817,48.6718 9.7028,27.7206 8.6152,33.7462 -8.4883,47.0078 -8.4389,6.5443 -22.8001,14.9863 -31.9141,18.7598 -23.4115,9.693 -42.2231,11.3976 -52.2109,4.7324 -8.4711,-5.6545 -9.8531,-10.6731 -10.5059,-38.1347 -0.3919,-16.5086 0.7974,-19.1202 28.0625,-61.6641 32.1612,-50.1834 33.5008,-57.1276 15.0118,-77.8281 -9.5339,-10.6753 -9.5641,-10.8784 -2.9922,-19.9492 3.6518,-5.0412 6.9588,-11.662 7.3398,-14.711 0.1899,-1.5014 0.61,-2.3138 1.2246,-2.5136 z m -284.5371,11.8144 10.3711,13.2305 c 7.0394,8.9786 12.3628,12.8223 16.5664,11.9629 4.6651,-0.9517 7.978,2.6831 13.416,14.7265 4.9516,10.9641 9.9988,16.8888 16.0547,18.8477 14.7731,4.7766 17.1016,7.6698 28.0879,34.9062 10.3865,25.7537 10.5003,26.759 5.8242,51.0157 -8.4192,43.6648 -15.0437,61.5381 -23.2929,62.8378 -8.1102,1.2772 -11.5441,0.8274 -51.9219,-6.8164 -20.5055,-3.8823 -32.7669,-8.2823 -45.5742,-16.3535 -17.0015,-10.7149 -47.2223,-42.8212 -66.2598,-70.3906 -15.6166,-22.6163 6.9023,-24.2163 25.3789,-41.0703 19.0915,-15.154 42.9558,-37.7563 53.0313,-50.2246 z M -1431.3008,6918 c 1.1588,1.5768 3.7433,60.4185 5.9883,136.3496 2.7201,91.9744 3.0893,107.8414 3.3047,141.7559 0.1054,16.6768 0.72,33.0293 1.375,36.3398 v 0 c 1.4139,7.1705 -0.8986,7.0631 -14.5469,-0.6777 -5.6742,-3.2187 -11.3041,-9.438 -12.5098,-13.8223 -2.3871,-8.6876 -2.8218,-54.8445 -1.1308,-120.6465 1.1074,-43.0707 -0.7216,-82.7386 -5.6192,-121.8007 -3.0723,-24.5141 -5.4005,-19.7594 9.7637,-40.4043 6.8992,-10.0245 12.9196,-17.7198 13.375,-17.0977 z m -92.7851,1.9551 -1.67,12.9531 c -0.9191,7.1233 -3.4604,20.3378 -5.6464,29.3633 l -3.9747,16.4121 -6.1445,-13.4707 c -3.3785,-7.4086 -5.9918,-14.8975 -5.8066,-16.6406 0.1848,-1.742 5.492,-8.8933 11.791,-15.8926 z m 30.2441,0.5137 10.8867,10.2968 c 5.9887,5.6636 12.6797,14.8959 14.8692,20.5176 5.4773,14.0648 6.3594,98.5271 1.9101,182.8926 -2.0322,38.6691 -3.3858,73.5056 -2.9863,77.414 v 0 c 0.6153,11.7283 -23.3095,36.4438 -30.2812,44.6231 l -6.8067,7.0137 -0.2636,-14.5 c -0.144,-7.9737 1.4694,-46.1279 3.5976,-84.7891 2.1264,-38.6597 4.5067,-104.2478 5.2891,-145.75 0.7733,-41.5034 1.9514,-80.4677 2.5996,-86.5879 z m -243.9609,112.4062 16.1543,21.6484 c 18.647,24.9925 38.4995,41.6598 62.1367,52.168 l 16.6387,7.3984 0.039,21.0352 h -0.021 c 0.031,38.815 0.062,38.7989 -30.4531,14.7559 -67.1724,-52.9255 -86.4114,-72.104 -85.0625,-84.793 0.2978,-2.7965 5.0464,-11.19 10.5547,-18.6504 z m 213.1601,37.334 c 0.1355,-0.083 0.2496,-0.074 0.3399,0.037 0.7188,0.8889 -1.2773,45.8208 -4.4336,99.8457 -6.4139,109.7325 -6.1608,154.5552 1.3711,243.7559 2.8403,33.6328 7.7924,92.0433 11.0039,129.8027 6.6663,78.3556 16.0734,145.279 22.0605,156.9453 3.8483,7.4993 3.3921,8.3002 -7.7832,13.666 h 0.012 c -14.2049,6.8209 -36.1751,5.1212 -52.1289,-4.0332 -8.725,-5.0071 -18.2881,-6.6951 -44.6133,-7.875 -18.4297,-0.8259 -35.3216,-3.0172 -37.539,-4.8692 -4.9761,-4.1548 -6.1099,-31.592 -3.957,-97.0058 0.8931,-27.6798 1.3781,-76.1105 1.0644,-107.6231 -0.3129,-31.5118 1.9301,-88.8457 4.9844,-127.4082 l 5.5527,-70.1113 13.5664,-5.291 c 20.078,-7.8335 30.966,-26.4644 34.4121,-58.8867 3.3842,-31.8365 -1.2977,-41.1046 -25.0312,-49.5352 -17.6066,-6.2559 -17.4393,-5.9047 -17.9356,-37.2578 -0.1462,-9.2746 -0.7859,-19.7386 -1.4257,-23.2539 -1.0904,-6.0163 1.0472,-6.0852 36.5097,-1.1699 20.4926,2.841 37.1978,12.763 46.5684,-8.9825 4.8956,-7.8119 10.596,-20.5336 12.6679,-28.2695 1.8143,-6.7679 3.7862,-11.8992 4.7344,-12.4824 z m 127.3516,43.1328 24.4922,4.4941 c 18.9396,3.4685 27.0025,3.509 35.5586,0.1758 6.0846,-2.3694 12.5144,-4.15 14.2851,-3.9648 1.8471,0.1969 1.8082,14.7262 -0.08,33.9746 -2.7753,28.6 -1.4636,66.1627 -0.2031,99.0469 0.4381,33.3418 1.8751,78.8244 3.1934,101.0722 1.4328,24.1365 2.3916,45.8584 2.3916,45.8584 -2.5477,9.092 -15.1192,29.4167 1.4082,34.6246 0,0 1.1275,7.5306 2.0693,19.6674 4.2977,55.378 19.0014,179.8077 24.0528,203.5469 4.7108,22.1401 11.2343,22.3064 -5.1485,36.9902 -5.9051,5.8953 -14.8436,13.1534 -19.8613,16.1309 v 0 c -5.537,3.2855 -17.2163,5.2978 -29.7149,5.0937 -19.6452,-0.3035 -20.6945,-0.7157 -22.873,-8.9902 -3.1805,-12.0813 -20.6096,-179.8758 -23.4121,-225.3945 -2.0984,-34.0778 -3.1323,-96.7102 -4.5391,-275.0801 -0.2695,-34.286 -0.7466,-67.9418 -1.0527,-74.793 z m -60.1797,127.9082 c 1.0386,0.1629 7.9431,6.9562 15.3437,15.0977 7.4004,8.1399 15.2098,14.9842 17.3536,15.2148 2.2654,0.2408 3.9886,8.5339 4.1172,19.7969 0.1205,10.6609 0.7051,34.5843 1.3027,53.166 0.5971,18.5798 1.1632,42.2257 1.2539,52.5469 l 0.1699,18.7656 -17.9316,3.7559 v 0 c -9.863,2.0674 -28.1398,2.6685 -40.6172,1.3457 l -22.6855,-2.4122 -1.6953,-17.8554 c -3.5554,-37.4476 -6.6053,-98.6378 -5.4473,-109.4922 0.6614,-6.226 2.6569,-11.1637 4.4356,-10.9785 1.7771,0.1889 12.0688,-8.5635 22.871,-19.4512 10.8027,-10.8873 20.4915,-19.6663 21.5313,-19.5 z m 161.1934,12.957 c 2.0084,-0.3356 6.2872,27.5095 8.416,56.9102 2.2265,30.7672 -0.5869,61.771 -3.8067,41.9277 -2.1173,-13.0586 -6.3282,-89.7821 -5.3164,-96.8906 0.1814,-1.2758 0.4201,-1.8993 0.7071,-1.9473 z m 11.6582,151.6446 c 0.193,0.096 0.3815,0.4324 0.5527,1.0293 v 0 c 0.675,2.3867 0.2777,6.1312 -0.8887,8.3222 -1.1648,2.1906 -1.7205,0.2379 -1.2363,-4.3398 0.3643,-3.4311 0.9892,-5.2996 1.5684,-5.0117 z" fill="#00B894" transform="translate(5.394338,167.01037) translate(3884.9086,-1417.235) matrix(0.26458333,0,0,0.26458333,-3417.4795,-450.03122)"/>
</svg>