<?xml version="1.0" ?><svg height="151.21968mm" viewBox="0 0 117.64292 151.21968" width="117.64292mm" xmlns="http://www.w3.org/2000/svg"><path color="#000" d="m 3668.0117,1524.3125 c -11.7171,-0.2671 -32.0379,15.597 -34.6738,37.4316 -3.6672,30.3788 10.0327,40.2181 24.9043,26.5059 0,0 19.3316,-35.503 17.998,-55.6055 -0.375,-5.6538 -3.6435,-8.2275 -8.2285,-8.332 z m 103.1554,94.1601 c -9.7832,45.1897 17.8554,60.3066 17.8554,60.3066 0,0 19.6847,94.6754 84.5723,93.7207 81.0862,-1.1929 95.5559,-79.7862 98.2461,-126.1289 2.6902,-46.3426 -4.0527,-107.0326 -84.3813,-108.889 -85.3174,-3.0095 -109.9679,60.2014 -116.2925,80.9906 z m 106.6453,179.7813 c -87.9604,-3.4684 -111.142,96.4841 -104.8222,159.3184 18.7337,21.2607 193.5057,26.7384 195.3114,4.3944 6.3896,-79.0671 -16.3638,-160.7899 -90.4892,-163.7128 z" fill="#FFFFFF" overflow="visible" paint-order="fill markers stroke" transform="translate(-120.22113,-31.549456) matrix(0.32795768,0,0,0.32795768,-1067.8099,-465.82229)"/><path d="m 3676.5468,1516.5757 c -1.7546,-0.055 -3.6258,0.7149 -6.75,2.2735 -3.8059,1.8987 -8.9034,2.9329 -11.3281,2.2988 -2.4247,-0.634 -6.4235,-0.075 -8.8848,1.2422 -3.0921,1.6549 -5.2108,1.6583 -6.8574,0.012 -1.3106,-1.3106 -4.7582,-2.0359 -7.6601,-1.6133 -6.1686,0.8983 -8.038,6.2097 -11.4727,32.5723 -2.7297,20.9513 -0.4262,31.1578 8.5,37.6601 4.9472,3.6038 5.7418,5.9453 5.6758,16.7266 -0.042,6.8952 -1.117,20.2867 -2.3887,29.7578 -28.4176,128.5926 43.2546,170.2305 140.3335,209.7307 -4.2671,25.9993 -9.4357,56.382 -9.6128,88.0467 -0.01,19.1755 0.4583,21.4325 5.0664,24.6601 2.7899,1.9541 5.7948,2.7869 6.6797,1.8516 0.885,-0.9354 2.3396,-15.1323 3.2305,-31.5488 0.8909,-16.4165 1.9353,-30.3935 2.3222,-31.0606 0.3869,-0.667 1.8871,-9.9659 3.334,-20.6641 2.8439,-21.0292 22.3164,-53.2879 28.136,-53.2879 1.7407,0 6.4511,4.1514 10.4687,9.2246 10.7802,13.6112 14.8478,15.1385 21.7969,8.1894 l 5.7246,-5.7246 5.8457,5.8457 c 4.6922,4.6922 5.3059,6.4991 3.1055,9.1504 -3.2484,3.914 -10.0745,108.8626 -7.6633,118.4696 1.2284,4.8942 2.7632,6.1878 6.6797,5.6309 4.2794,-0.6086 4.9916,-1.9946 4.5019,-8.7578 -1.1031,-15.2348 1.3321,-97.2692 2.6477,-103.5692 1.5561,-7.4512 3.4324,-7.865 8.7949,-1.9395 7.2088,7.9656 10.6409,25.7364 12.1055,62.6739 1.4877,37.5212 1.142,58.3623 9.6276,52.1574 3.4406,-2.5158 1.5748,-3.5929 1.4785,-9.5996 -0.2471,-15.4219 -1.2395,-35.3875 -1.5436,-49.9094 -0.6231,-29.7534 -4.0746,-48.3562 -11.2246,-60.4746 -6.8565,-11.6209 -4.5168,-17.9572 6.3125,-17.0938 7.3828,0.5886 8.66,-0.2193 13.3144,-8.4375 5.9185,-10.4501 18.8569,-9.4954 24.1254,-5.163 13.3112,10.9459 31.6111,84.3018 30.4883,122.2148 -0.5059,17.078 -0.3982,17.4844 4.6914,17.4844 7.2541,0 12.263,-10.9526 10.6644,-33.1578 -3.2365,-44.9539 -15.1239,-95.706 -25.6465,-109.502 -7.8921,-10.3469 -35.3909,-26.9977 -45.7284,-29.6978 -18.2939,-4.7782 -43.8862,-2.072 -63.744,1.9419 -22.6532,4.579 -37.4792,13.1899 -47.5803,25.7593 l -7.2109,8.9726 -21.3106,-7.9961 c -48.56,-18.22 -93.0232,-49.1082 -106.83,-74.2129 -9.933,-18.061 -12.8634,-39.1683 -11.295,-81.3398 0.9531,-25.6277 2.8608,-44.6339 5.5118,-54.8965 l 4.0547,-15.6992 11.8652,-3.9746 c 21.4359,-7.1827 37.0173,-23.0385 31.3965,-31.9492 -1.3261,-2.1024 -5.7546,-4.7811 -9.8418,-5.9532 -6.4047,-1.8369 -7.2713,-2.9487 -6.2676,-8.0527 4.5519,-23.1465 4.5874,-22.5495 -1.5938,-26.5996 -2.6527,-1.7382 -4.2902,-2.6173 -6.0449,-2.6719 z m 135.8427,25.4696 c -27.0729,12.7005 -35.9732,26.5664 -48.1182,63.7357 -11.291,34.5555 -7.0769,61.265 10.323,79.0649 3.9016,3.9912 5.1102,15.7229 10.8091,27.3657 19.4199,39.6745 35.8186,62.2039 82.3842,67.5523 36.054,4.1536 82.0822,-25.5358 93.8969,-61.5217 1.7773,-5.4136 4.8708,-12.4765 4.8708,-12.4765 8.8736,1.6636 10.85,-8.9763 1.8697,-12.8341 2.5947,-6.3512 5.4468,-16.5504 10.7689,-32.0427 1.8358,-5.3441 3.5242,-46.0814 -0.1328,-65.5254 -3.8326,-20.3777 -11.4974,-32.6853 -27.8516,-44.7246 -37.0469,-26.1643 -98.9002,-27.053 -138.82,-8.5936 z m -141.4462,-0.2235 c 0.611,0.036 1.0156,0.4862 1.0156,1.2754 0,1.2628 -1.034,2.9344 -2.2968,3.7149 -1.2628,0.7804 -2.2969,0.3858 -2.2969,-0.877 0,-1.2628 1.0341,-2.9344 2.2969,-3.7148 0.4735,-0.2927 0.9146,-0.4201 1.2812,-0.3985 z m 253.1881,8.1061 c 9.6648,3.3198 22.6517,11.3153 27.8711,17.1602 6.076,6.8043 12.6326,23.9928 14.2656,37.4004 0.8231,6.7575 2.0519,13.1851 2.7305,14.2832 0.6787,1.098 0.2084,1.9961 -1.043,1.9961 -13.3499,-33.3456 -38.7859,-38.2923 -62.8136,-51.493 -2.7758,-4.3131 -21.3917,-3.2811 -39.4481,-0.882 -15.0981,2.006 -21.015,4.1428 -35.041,12.6582 -16.9321,10.2797 -37.4844,31.7593 -37.4844,39.1738 0,1.9947 -1.6193,5.4136 -3.5977,7.5996 -1.9783,2.1861 -5.4415,11.5671 -7.6953,20.8457 -3.3069,13.6142 -4.4951,15.985 -6.1601,12.2793 -3.8295,-8.5235 -1.6338,-35.9654 4.3691,-54.6035 10.9618,-34.0352 31.2295,-51.9365 66.9414,-59.1191 22.7605,-1.7164 55.0919,-4.2733 77.1055,2.7011 z m -243.9127,11.808 c 4.2357,0 4.0853,4.6306 -0.3555,10.9707 -3.027,4.3215 -7.9043,6.9732 -7.9043,4.2969 0,-4.6171 5.7615,-15.2676 8.2598,-15.2676 z m -27.5859,13.8222 c 0.612,0.022 0.957,0.3172 0.957,0.9141 0,0.5281 0.5744,2.4595 1.2773,4.291 1.5164,3.9517 -6.1309,6.609 -10.7695,3.7422 -2.4836,-1.535 -2.1878,-2.623 1.4668,-5.3848 3.0842,-2.3306 5.7218,-3.6106 7.0684,-3.5625 z m 229.8501,4.5495 c 10.8283,0.1823 28.1995,2.7396 42.4357,12.0023 22.7011,12.9067 28.8013,17.282 34.6522,53.5739 1.9089,10.5052 0.5615,19.4802 -0.5039,29.6152 -1.3751,13.0898 -1.9958,13.9269 -3.3407,13.6132 -2.7559,-0.6428 -10.6064,0.2253 -12.0346,2.927 -4.4915,8.4965 4.6334,10.1893 9.5689,9.3608 0,0 -0.5336,7.8864 -8.7991,21.4877 -20.9639,33.4644 -67.515,56.492 -100.8691,36.9687 -29.5329,-17.2865 -42.71,-39.5537 -49.1973,-70.8183 -3.0447,-14.9954 -3.2007,-20.4074 -0.9296,-32.1445 2.9952,-15.4786 17.8517,-45.6939 25.7187,-52.3047 13.5632,-11.3975 22.9973,-16.2527 40.1484,-20.6621 9.4604,-2.4322 16.6535,-3.7285 23.1504,-3.6192 z m -5.6248,31.5115 c 0.8122,1.3142 10.2575,1.9419 12.3612,1.3225 2.1036,-0.6194 11.5634,-1.8525 21.0214,-2.7402 20.9864,-1.9698 16.0294,-5.1045 -8.4511,-5.3438 -10.951,0.9873 -30.3553,0.9115 -24.9315,6.7615 z m 2.2967,9.1487 c -6.9852,0 -14.5334,0.029 -14.5334,2.1211 0,1.6838 4.7444,4.4329 5.2697,4.959 1.3637,1.3661 41.4257,4.9802 41.8028,-0.8555 0.1673,-2.5881 -21.1181,-6.2246 -32.5391,-6.2246 z m 61.543,34.4414 c -21.5056,-1.0079 -19.4386,2.8421 -18.2982,5.382 1.1297,2.516 1.4433,6.2993 13.3002,6.3099 5.5712,0.01 7.9111,-0.2817 11.986,-0.6209 5.7889,-0.4819 7.184,-10.4068 -1.6475,-10.8207 z m -66.6269,2.8645 c -4.2423,-0.2045 -8.9751,0.035 -12.3181,0.4931 -12.3537,1.6932 -12.2413,4.3549 -10.3929,9.1717 2.69,7.0101 27.1755,2.7164 27.1755,-4.8867 0,-1.9094 -1.7598,-4.6478 -4.4645,-4.7781 z m 52.1152,11.4031 c -0.9204,0.057 -1.822,0.5869 -2.8164,1.5957 -2.1712,2.2024 -1.7776,3.5491 1.8183,6.205 4.9948,3.6891 20.6641,3.4934 20.6641,-0.2578 0,-1.2628 -3.0983,-2.6447 -6.8867,-3.0722 -3.7884,-0.4274 -8.2234,-1.8824 -9.8555,-3.2325 -1.0643,-0.8804 -2.0035,-1.2956 -2.9238,-1.2382 z m -47.7813,9.4199 c -2.2463,0.086 -6.767,1.0187 -11.6367,2.4648 -8.3627,2.4835 -13.4937,2.8643 -17.5957,1.3047 -7.8202,-2.9732 -10.084,-2.7741 -10.084,0.8906 0,1.7012 2.3246,4.2157 5.166,5.586 6.7675,3.2639 9.2195,3.2916 21.2988,0.25 9.6945,-2.4411 16.913,-7.6436 14.2696,-10.2871 -0.1717,-0.1717 -0.6692,-0.2378 -1.418,-0.209 z m -34.0469,39.8496 c -2.0713,5.3978 8.8222,18.2807 24.6972,23.8227 13.7359,4.7952 36.0756,-4.0059 35.9177,-9.0557 -0.1654,-5.2905 -4.9612,-1.7438 -23.9846,-1.1125 -9.8832,0.328 -19.4232,-5.8733 -25.3568,-11.8069 -3.9169,-4.0615 -8.936,-7.7983 -11.2735,-1.8476 z m 36.5222,88.5317 c 2.3877,0.043 5.49,0.2924 8.7324,0.7383 13.2069,1.8164 16.452,5.8449 10.2383,12.7109 -2.243,2.4785 -4.692,4.4632 -5.4434,4.4102 -2.8812,-0.2016 -19.282,-16.0461 -17.9687,-17.3594 0.3805,-0.3805 2.0536,-0.5431 4.4414,-0.5 z m -21.0957,0.2754 c 0.857,-0.05 1.4138,0 1.58,0.1621 0.6697,0.6697 -3.811,5.8899 -9.957,11.5996 -6.146,5.7096 -11.9087,10.4093 -12.8047,10.4453 -0.896,0.036 -4.2345,-2.7444 -7.4199,-6.1796 -4.5999,-4.9609 -5.1377,-6.6125 -2.6094,-8.0274 4.4961,-2.5161 25.2118,-7.6474 31.211,-8 z m 7.9375,13.0879 c 4.2003,0 8.0976,5.129 8.0976,10.6563 0,5.8048 -2.4751,8.1734 -6.1055,5.8398 -3.4871,-2.2415 -5.2086,-16.4961 -1.9921,-16.4961 z" fill="#00B894" transform="translate(-120.22113,-31.549456) matrix(0.32795768,0,0,0.32795768,-1067.8099,-465.82229)"/></svg>