<?xml version="1.0" ?><svg height="402.67331mm" viewBox="0 0 239.2162 402.67331" width="239.2162mm" xmlns="http://www.w3.org/2000/svg">
    <path d="m -1088.0723,-45.748047 c -12.1333,0.02603 -22.8265,1.545119 -29.2461,4.023438 -20.5424,7.93062 -44.9765,22.554687 -44.9765,22.554687 0,0 -12.1313,-0.66887 -24.377,2.626953 -12.2453,3.295862 -31.8724,14.7282542 -43.8886,31.876953 -12.0167,17.148662 -15.7359,76.216904 -20.3711,110.050786 -4.6349,33.83387 -31.4717,65.45313 -46.0059,78.79101 -14.5346,13.33784 -39.2548,31.8753 -50.127,49.12695 v 0 c -4.2864,10.30379 33.4696,-0.56898 35.3008,-0.51757 1.8312,0.0515 -12.1314,17.92041 -17.1094,25.74804 -4.9791,7.82763 -5.3228,23.07094 0.1133,17.97266 5.4361,-5.09824 57.5644,-27.96289 57.5644,-27.96289 l -2.3437,47.39062 c 0,0 -22.0309,84.09432 -22.6602,89.81055 -0.6293,5.71623 -0.3437,25.13068 4.8633,22.19531 5.2071,-2.93537 41.3711,-22.19531 41.3711,-22.19531 0,0 -3.5461,25.54403 -6.6933,40.63281 -3.1473,15.08878 10.1842,25.59325 17.4511,14.67578 7.2673,-10.91746 53.9042,-57.9864 56.0215,-58.96484 2.1173,-0.97844 59.3452,59.62159 71.877,96.23633 12.5314,36.6147 -28.9434,120.90625 -28.9434,120.90625 0,0 -22.3185,21.9387 -36.9102,35.89453 -14.5912,13.95583 -3.2611,33.42061 15.1641,51.9082 18.4256,18.48764 160.3935,23.84356 202.22266,4.48047 41.82879,-19.36308 24.66208,-48.61257 20.82813,-71.27148 -3.83396,-22.65891 -20.69922,-190.52149 -20.69922,-190.52149 0,0 2.68955,-16.99334 12.875,-22.24609 10.18545,-5.25275 29.69871,-26.88245 26.66601,-48.25391 -3.03307,-21.37145 -28.49804,-45.00976 -28.49804,-45.00976 l 21.55078,-18.94727 c 0,0 7.60938,-40.32253 6.29297,-59.11914 -1.31603,-18.79657 -37.02725,-62.06278 -46.86914,-93.21875 -9.84265,-31.15601 -13.44761,-34.7101 0.0566,-37.43945 13.50425,-2.72939 8.69873,-9.88639 -0.85742,-21.98828 -9.55616,-12.101899 -33.70333,-92.953962 -48.86713,-122.101566 -10.4252,-20.038951 -44.084,-27.201789 -70.7774,-27.144531 z m 234.93949,87.080078 c -8.98394,1.029959 -28.43891,1.597495 -32.5586,13.544922 -4.12006,11.947427 -16.08048,88.008407 -21.23047,117.876957 h 0.002 c -0.97285,22.81341 43.14453,17.92187 43.14453,17.92187 0,0 4.69349,74.92845 6.41016,92.84961 1.71666,17.92116 8.58312,14.36858 19.05468,13.28711 10.47156,-1.08147 50.92671,-10.30007 69.4668,-24.25586 18.53972,-13.95583 -32.90234,-53.76367 -32.90234,-53.76367 0,0 7.66646,-18.643 13.38867,-22.40235 5.7222,-3.7593 0.45801,-38.62316 -5.03516,-48.30468 -5.49354,-9.68153 -59.50976,-15.60352 -59.50976,-15.60352 0,0 8.75346,-92.180348 -0.23047,-91.150389 z M -1475.8242,334.94922 c -41.7396,0.0472 -143.8551,11.38522 -151.5156,13.14258 -4.2342,10.145 0.6873,29.35262 5.4941,41.35156 4.8064,11.9989 18.3108,20.6002 38.5098,20.13672 20.1993,-0.46349 72.8437,-6.38672 72.8437,-6.38672 0,0 -12.8176,17.25123 -0.4004,32.18555 12.4169,14.93427 53.3878,19.9822 69.0664,8.34375 15.679,-11.63845 37.3659,-12.7198 40.17,-12.92578 2.8036,-0.20599 42.5728,4.48041 51.957,-11.94727 9.3842,-16.42768 13.8466,-31.56847 9.7265,-39.70508 -4.12,-8.1366 -38.796,-36.87287 -55.6191,-35.48242 -16.8231,1.39045 -51.3848,22.91601 -51.3848,22.91601 0,0 9.2691,-26.77863 -15.1074,-30.89843 -3.047,-0.51498 -7.7774,-0.73721 -13.7402,-0.73047 z" fill="#FFFFFF" transform="translate(-32.8161,79.89298) translate(3883.1467,385.76181) matrix(0.26458333,0,0,0.26458333,-3417.4795,-450.03122)"/>
    <path d="m -3733.5065,-65.688287 c -4.2088,-3.69546 -12.8351,-16.9121 -15.287,-23.42272 -1.5095,-4.00765 -1.5932,-5.77379 -0.6276,-13.232603 0.6129,-4.73423 1.5316,-12.04306 2.0412,-16.24187 1.96,-16.15102 2.9943,-21.64623 4.3777,-23.26317 1.7076,-1.99567 8.1344,-39.94691 10.4535,-61.73088 1.7797,-16.71546 2.4389,-20.7614 5.705,-35.01308 l 2.192,-9.56579 -2.7336,-1.99115 c -4.91,-3.5769 -5.9818,-7.06055 -5.1696,-16.8085 0.7126,-8.55515 0.8013,-8.78003 5.1719,-13.15074 2.4457,-2.44572 4.4528,-5.23629 4.4603,-6.20128 0,-0.96498 1.3755,-5.64796 3.04,-10.40659 3.0919,-8.83888 3.7837,-15.25152 2.1186,-19.63189 -0.5146,-1.35312 -3.7787,-6.86967 -7.2537,-12.25906 l -6.3179,-9.79881 -3.0714,2.187 c -1.6895,1.20289 -5.2313,5.55817 -7.8709,9.67841 -3.7892,5.23712 -3.2863,9.47008 -7.7428,3.64392 -2.4104,-3.15059 -2.9338,-4.81531 -2.8896,-9.19136 0.029,-2.93915 -0.1564,-5.34395 -0.4129,-5.34395 -0.2567,0 -2.0192,1.18417 -3.9165,2.63143 -4.8768,3.71968 -6.4123,2.18053 -6.4123,-6.42757 0,-5.60069 -0.2423,-6.50697 -1.6099,-5.98273 -0.8857,0.33985 -1.9944,0.61784 -2.4637,0.61784 -0.47,0 -1.1796,1.48196 -1.5773,3.29324 -1.7135,7.80223 -6.1563,10.49529 -16.0113,9.70602 -6.2686,-0.50205 -6.3445,-0.47633 -7.8566,2.65678 -2.9308,6.07293 -16.4858,8.78024 -23.266,4.64678 -2.7367,-1.66849 -3.321,-2.58448 -2.9356,-4.601 0.2655,-1.38478 0.084,-2.76291 -0.4,-3.06251 -0.485,-0.29962 -0.8816,-1.20798 -0.8816,-2.0186 0,-1.20633 1.267,-1.35614 6.9788,-0.82526 3.8384,0.35674 7.7077,0.24062 8.5988,-0.25796 1.1053,-0.61857 -0.228,-0.93166 -4.1928,-0.98556 -3.1971,-0.0436 -6.7988,-0.60667 -8.0042,-1.25169 -1.5703,-0.84044 -3.6969,-0.88713 -7.5053,-0.165 -8.1014,1.53647 -17.4469,1.26619 -20.0841,-0.5808 -4.0495,-2.83658 -5.8094,-8.14075 -5.4132,-16.31556 0.1328,-2.74622 4.0397,-4.56836 11.8089,-5.50803 l 6.1075,-0.73865 -5.3441,-0.13934 c -5.2341,-0.13645 -7.0961,-1.49182 -3.5625,-2.59303 6.742,-2.10106 30.5785,-3.52709 32.1802,-1.9252 0.3909,0.3908 -0.3218,1.26301 -1.5834,1.93828 -2.017,1.07944 -1.629,1.20876 3.2122,1.07078 4.9863,-0.51387 6.2593,-0.52781 7.9036,3.88724 0.834,2.23937 0.7442,4.25003 0.8762,4.43473 0.1328,0.18466 1.3109,-0.35802 2.6191,-1.20606 7.167,-4.6457 15.978,-4.23223 22.2485,1.04415 2.894,2.43514 3.2056,2.48283 7.3013,1.11755 3.9374,-1.31245 4.5005,-1.96831 7.0665,-8.22957 1.5337,-3.74187 2.3589,-6.80345 1.8341,-6.80345 -0.5251,0 -0.9545,-0.95424 -0.9545,-2.12061 0,-1.16631 -0.3436,-1.96464 -0.7635,-1.774 -0.4198,0.19072 -3.6133,1.832 -7.0964,3.64745 -3.4828,1.81546 -6.5746,3.30086 -6.8704,3.30086 -1.2293,0 -0.3788,-3.43585 2.0238,-8.17699 1.4088,-2.78059 2.2509,-5.05561 1.8705,-5.05561 -0.3801,0 -2.6838,1.16776 -5.1193,2.59504 -3.7817,2.21645 -4.5163,2.36459 -5.0341,1.01561 -1.7085,-4.45267 4.0025,-12.18212 14.0345,-18.99473 11.3372,-7.69905 14.8816,-15.38339 16.0614,-34.82213 0.7378,-12.15748 0.9969,-13.34476 3.7766,-17.30416 4.6279,-6.59168 12.6628,-10.32767 18.247,-8.48433 1.6468,0.54358 2.3854,0.11808 3.3074,-1.90605 1.9608,-4.30354 10.4177,-7.58475 19.5107,-7.56994 8.3883,0.0145 13.4258,1.73967 19.13,6.55464 4.6033,3.88568 6.8031,8.62893 9.9944,21.54996 2.9088,11.77744 3.7561,13.58766 6.3719,13.61228 0.9112,0.01 2.2778,0.40898 3.0366,0.88984 2.079,1.31739 -1.2692,5.86407 -5.4253,7.36688 l -3.3427,1.20878 2.0202,4.86194 c 1.1115,2.67405 4.0526,7.24247 6.5363,10.15203 9.0468,10.59875 10.9035,18.3395 6.9003,28.77121 -0.5801,1.51212 0.344,1.6923 8.3633,1.63105 7.2437,-0.0555 8.5651,-0.28594 6.7253,-1.17346 -2.0102,-0.96941 -2.2905,-1.87665 -2.2905,-7.41599 0,-3.47128 -0.2946,-9.13203 -0.6551,-12.57944 l -0.6551,-6.26801 -4.0832,-0.65293 c -2.2761,-0.36396 -5.8498,-0.23368 -7.5739,-1.77407 -4.9181,-3.83253 -2.3704,-6.52325 -1.4058,-12.82401 1.5479,-10.1115 5.2463,-23.28006 7.5073,-26.73108 1.9481,-2.97275 10.5248,-4.63768 14.0825,-2.73363 1.9225,1.0288 2.0584,1.71115 1.4259,7.16044 -0.6449,5.55592 -0.5431,6.02329 1.312,6.02329 3.2263,0 4.8152,2.63128 3.4277,5.67644 -0.642,1.40938 -1.1674,3.2319 -1.1674,4.05006 0,1.24019 0.3608,1.27456 2.1687,0.2066 1.7326,-1.02335 2.2614,-1.02508 2.6297,-0.01 0.2539,0.6998 1.3298,1.27238 2.3921,1.27238 1.2665,0 2.1619,0.96386 2.6005,2.79921 0.3674,1.53954 1.0793,3.32342 1.5816,3.96418 1.2764,1.62855 1.7113,14.84706 0.539,16.39364 -0.5303,0.69983 -1.8664,1.27237 -2.9696,1.27237 -1.647,0 -1.17,0.92943 2.6693,5.19958 5.0784,5.64846 5.7972,8.73766 2.6874,11.55199 -1.4129,1.27873 -1.8259,2.60767 -1.428,4.5973 0.7137,3.56685 -1.9449,8.80628 -4.9708,9.79753 -3.0937,1.01331 -25.3999,0.72694 -32.0749,-0.4118 -2.9393,-0.50142 -5.344,-0.77138 -5.344,-0.59993 0,0.17136 1.1443,1.99808 2.5431,4.05919 6.1508,9.06375 5.2645,17.42769 -2.2887,21.5929 l -4.3258,2.38567 v 9.54203 c 0,5.35105 0.8951,14.18124 2.0382,20.1045 1.1211,5.80937 2.2604,13.27598 2.5316,16.59244 0.2712,3.31647 0.7801,8.01478 1.1304,10.44071 1.1836,8.19532 -5.6179,24.64627 -11.9195,28.83045 l -2.2818,1.51515 2.7368,8.57808 c 1.5053,4.71797 3.8895,14.07472 5.2985,20.7928 7.3051,34.83656 11.8674,52.53403 14.1252,54.79177 1.9452,1.94487 2.4465,4.11207 3.4646,14.96586 1.7939,19.12834 1.4454,18.44723 10.1773,19.91851 15.7611,2.65565 28.911,8.17959 29.5175,12.39966 0.1782,1.24754 -0.3082,2.51065 -1.0841,2.80833 -2.1077,0.80882 -29.9586,-2.28616 -36.3948,-4.04446 -5.3886,-1.47219 -9.161,-4.44298 -9.161,-7.21452 0,-0.72727 -1.4044,-5.60059 -3.1206,-10.82959 -5.2274,-15.92746 -7.3183,-25.91443 -5.9002,-28.18468 0.9923,-1.58896 0.4305,-5.6061 -3.0305,-21.66447 -2.3371,-10.84256 -5.8711,-28.43644 -8.0701,-39.05374 l -4.3188,-20.85274 c -6.9505,1.60342 -20.1185,4.14017 -29.5554,1.70896 -2.4434,-0.77466 -2.6609,-0.54143 -3.8007,4.07158 -0.6647,2.69131 -1.6775,7.95068 -2.2502,11.68751 -0.573,3.73683 -1.9154,11.06568 -2.9829,16.28629 -1.0678,5.22061 -2.467,14.07256 -3.1091,19.67098 -0.6424,5.59838 -2.5193,18.29729 -4.171,28.21972 -2.0747,12.46451 -2.8122,19.70082 -2.3864,23.41151 0.6036,5.25859 -0.3742,12.20859 -4.6234,32.85384 -1.0368,5.03856 -1.6519,10.616633 -1.3672,12.395683 0.2856,1.79199 2.7936,6.05847 5.62,9.56604 5.0696,6.29131 8.8741,13.23265 8.9167,16.2692 0.034,2.55328 -2.3132,5.03412 -5.2755,5.57131 -2.055,0.37264 -3.6427,-0.28624 -6.2901,-2.6108 z m 38.6528,-199.978103 c 0.9381,-1.43155 1.7259,-4.87445 1.8048,-7.88869 0.1273,-4.83597 -0.079,-5.37993 -2.1712,-5.67654 -1.8209,-0.25853 -2.6309,0.43647 -3.8171,3.27548 -1.8186,4.35262 -1.9554,9.93726 -0.2856,11.60844 1.773,1.77295 2.6024,1.52815 4.4677,-1.31869 z m -14.9277,-1.96021 c 2.1298,-2.19719 3.6555,-5.01485 4.1346,-7.63421 0.8309,-3.92777 1.3803,-4.1517 -2.5762,-4.1517 -4.8195,0 -8.6057,4.73706 -8.6057,10.76598 0,5.70075 2.2016,6.01942 7.0473,1.01993 z m 29.3929,0.22534 c 0.4195,-0.85241 1.2213,-3.64917 1.2213,-6.61632 0,-4.95081 -0.1933,-5.39484 -2.3408,-5.39484 -1.2877,0 -2.8907,0.54967 -3.5628,1.22147 -1.2834,1.2835 -1.1819,9.81224 -0.5429,11.33253 0.9514,2.26341 3.7019,2.55259 5.2252,-0.54284 z m 11.8367,-4.44967 c 2.9199,-2.92001 1.1722,-10.61518 -2.4111,-10.61518 -3.1681,0 -4.1493,2.97045 -2.5241,7.64074 0.7778,2.23577 1.4217,4.17956 1.4302,4.3195 0.049,0.82224 2.14,0.0202 3.505,-1.34506 z m -50.0585,-6.82249 c 3.3724,-1.42798 3.5465,-2.34199 0.593,-3.11428 -1.6414,-0.4292 -3.2054,0.42223 -6.1077,3.32415 -4.7609,4.76125 -5.2007,7.51042 -0.5928,3.70638 1.8196,-1.50197 4.5679,-3.26431 6.1075,-3.91625 z m 16.2946,-8.11873 c 0.2398,-0.69981 -0.063,-2.07395 -0.6686,-3.05365 -0.8056,-1.30227 -0.7666,-2.318 0.1437,-3.77689 0.6854,-1.09753 0.9657,-2.72634 0.623,-3.6196 -0.372,-0.96889 0.251,-2.43833 1.5433,-3.64251 2.5499,-2.37561 2.7503,-4.25905 0.6397,-6.01072 -1.9413,-1.61101 -1.9448,-3.47547 0,-5.0813 0.9635,-0.79957 1.2932,-2.14988 0.9042,-3.70048 -0.3406,-1.35743 -0.049,-3.12201 0.6592,-3.97418 1.0369,-1.24933 0.9253,-1.91611 -0.6046,-3.60635 -1.5442,-1.70635 -1.6591,-2.42169 -0.6494,-4.03869 1.774,-2.84086 1.5161,-4.02842 -0.8755,-4.02842 -1.1564,0 -3.0245,-0.49332 -4.1512,-1.09628 -2.6225,-1.40354 -5.604,-0.41998 -4.1309,1.36281 0.5728,0.69316 1.2592,4.46666 1.5254,8.38554 0.2655,3.91891 0.8377,7.98755 1.2699,9.04141 0.4466,1.08918 0.2856,2.7162 -0.3722,3.76989 -0.7366,1.17991 -0.7952,2.0778 -0.1619,2.46998 1.4952,0.92397 1.2005,4.14953 -0.5085,5.56777 -1.1766,0.97672 -1.2582,1.7111 -0.3732,3.36459 0.9368,1.75041 0.7553,2.42027 -1.0529,3.88441 -1.2019,0.97308 -2.7513,1.99952 -3.4437,2.28095 -0.9589,0.3898 -0.9207,0.74799 0.1583,1.50293 0.8214,0.57406 1.1829,1.89189 0.8586,3.1312 -0.505,1.93098 -0.1291,2.13996 3.8411,2.13996 2.6109,0 4.5762,-0.5174 4.8329,-1.27237 z m -41.9818,-47.62141 c 0.7035,-1.69874 3.2898,-4.85848 5.7472,-7.02167 l 4.4683,-3.9331 c -1.1909,-3.56125 -2.1957,-7.2094 -2.596,-11.13964 l -9.6699,3.60783 c -5.3187,1.98429 -9.8252,3.72137 -10.0147,3.86015 -0.6683,0.48889 -2.2643,8.8289 -1.7822,9.31116 0.2685,0.26861 2.5075,-1.16595 4.9755,-3.18801 7.2736,-5.9604 10.9809,-4.60198 8.1541,2.98786 -2.2274,5.98098 -2.7075,8.60404 -1.5747,8.60404 0.5571,0 1.5886,-1.38987 2.2924,-3.08862 z m 77.4652,-6.97054 c 2.5308,-2.53119 3.9516,-4.88809 3.9516,-6.55626 0,-4.3812 -2.1077,-4.35175 -6.0157,0.0841 -2.01,2.28133 -5.1427,4.88472 -6.9623,5.78524 -5.0209,2.48498 -4.2957,4.6387 1.5615,4.6387 2.7235,0 4.4012,-0.88818 7.4649,-3.95182 z m -121.2493,1.91601 c -3.6629,-1.17315 -6.107,-1.17315 -6.107,0 0,0.55987 1.9464,0.97224 4.3258,0.91643 3.675,-0.0862 3.9429,-0.22418 1.7812,-0.91643 z m 88.236,-1.08569 c 4.4117,-1.67147 7.4459,-5.03473 7.4459,-8.25275 0,-3.75154 -1.2479,-3.62794 -7.1556,0.7088 -2.686,1.97179 -6.2974,4.07781 -8.0251,4.68008 -3.1129,1.0852 -3.7724,1.96112 -2.4627,3.27097 1.043,1.04295 6.9979,0.80521 10.1975,-0.4071 z m -82.0012,-2.98586 c 6.7406,0 6.9979,-0.0916 6.9979,-2.48468 0,-3.53007 -1.2469,-3.90177 -7.3447,-2.18944 -2.9584,0.83066 -7.3395,2.01452 -9.7356,2.63078 -4.9213,1.26559 -4.8973,3.63961 0.029,2.65481 1.6815,-0.33631 6.2064,-0.61147 10.0554,-0.61147 z m -36.4494,-3.06765 c 2.9678,-0.6249 4.0147,-0.47952 4.435,0.61593 0.3575,0.93208 2.1151,1.43382 5.0218,1.43382 4.208,0 5.7422,-1.13046 3.4537,-2.54474 -0.5598,-0.346 0.4244,-2.79456 0.4244,-5.90057 0,-4.98517 -1.6499,-5.93516 -3.2233,-5.27371 -0.9801,0.41213 -6.7057,0.97802 -12.7241,1.25756 -6.018,0.27959 -10.942,0.87252 -10.942,1.31772 2.0663,4.7826 2.8301,7.79989 2.3914,11.16928 l 3.6393,-0.62867 c 2.0014,-0.34576 5.3872,-0.99672 7.5238,-1.44662 z m -19.453,-1.51288 c -0.718,-4.86804 -2.4965,-7.52771 -5.4702,-8.18086 -3.7902,-0.83249 -4.3525,-0.27556 -3.3293,3.29844 0.7598,2.65519 0.8412,2.69261 1.2106,0.55638 0.2193,-1.25963 0.7309,-2.29027 1.1397,-2.29027 1.411,0 3.1865,2.44851 3.1865,4.39387 0,1.4441 -0.5242,1.81382 -2.0182,1.42317 -1.7349,-0.45375 -1.8683,-0.24785 -0.9492,1.46914 1.4969,2.79695 6.6593,2.24189 6.2301,-0.66987 z m 50.29,-1.68701 c 4.6535,-1.7676 8.2224,-3.59981 7.9309,-4.07157 -0.8424,-1.36296 -2.1656,-1.05437 -9.7472,2.2733 -3.9235,1.72204 -7.3346,2.93009 -7.5801,2.68455 -0.2452,-0.24556 1.7428,-1.87811 4.4184,-3.62797 4.2507,-2.77996 4.5436,-3.18258 2.3201,-3.18972 -1.3996,-0.004 -4.0282,0.89628 -5.8413,2.00172 -3.0082,1.83416 -3.1943,2.23422 -2.1269,4.5767 0.6433,1.41176 1.3936,2.56683 1.6677,2.56683 0.274,0 4.3053,-1.44622 8.9584,-3.21384 z m 105.7896,-5.36428 c 0.3491,-2.32747 0.2396,-5.76066 -0.2452,-7.62937 -0.7352,-2.83677 -1.715,-3.7268 -5.9366,-5.39169 -6.0182,-2.37328 -19.8158,-3.73754 -19.8158,-1.95928 0,0.64068 0.6286,1.16482 1.3972,1.16482 2.6057,0 10.8759,4.18528 14.4209,7.29772 2.4652,2.16441 4.0252,4.80879 5.1794,8.77939 1.4916,5.13062 1.7835,5.50193 3.0091,3.82606 0.7463,-1.02078 1.6424,-3.76025 1.9915,-6.08765 z m -62.8134,-8.14394 c 4.9967,-2.13874 9.4642,-4.88429 11.5413,-7.093 2.953,-3.13985 4.5289,-3.83239 12.2467,-5.38191 8.4554,-1.69756 9.4233,-1.69577 21.3032,0.0398 6.8722,1.00398 14.169,2.69758 16.2944,3.78192 2.7233,1.38925 5.9458,1.96372 11.015,1.96372 h 7.1658 v -7.40099 c 0,-6.97441 -0.2741,-7.86913 -4.7555,-15.52286 -5.1282,-8.75823 -7.4591,-15.14469 -7.4591,-20.43828 0,-1.83742 -0.4654,-3.62849 -1.0345,-3.98012 -1.8718,-1.15693 -0.087,-2.27203 2.764,-1.72697 4.8908,1.30852 2.1064,-0.28455 -0.013,-2.80329 -3.8635,-4.59134 -5.1032,-7.21052 -8.8089,-18.61004 -2.7644,-8.50344 -3.7979,-10.38113 -7.4211,-13.48249 -7.7776,-6.65714 -19.2013,-7.3497 -28.2681,-1.71369 -3.0116,1.87231 -5.7192,2.82661 -7.2276,2.54751 -1.5354,-0.28393 -4.1942,0.69102 -7.3131,2.68189 -6.4548,4.11988 -9.1425,9.93512 -9.2632,20.04041 -0.059,5.18495 -0.4105,7.01569 -1.2115,6.35952 -0.7914,-0.64816 -1.3091,1.0491 -1.7455,5.72397 -1.126,12.0562 -5.467,19.28901 -16.4534,27.41386 -8.6488,6.39618 -10.1818,8.20752 -5.1761,6.11597 6.8304,-2.85383 11.8861,-1.32951 7.4459,2.24492 -2.8042,2.2575 -6.8665,7.38398 -6.8665,8.66532 0,0.95746 7.4163,-3.77591 12.5972,-8.04001 1.6102,-1.32514 3.375,-2.2601 3.9225,-2.07765 2.0598,0.68662 1.638,9.0406 -0.8218,16.27262 -1.3559,3.98642 -2.4653,7.39683 -2.4653,7.57867 0,0.84699 2.4719,0.0666 10.008,-3.15878 z m 33.2523,-20.57842 c -8.1537,-1.8563 -14.0685,-5.00681 -18.3593,-9.77921 -2.5114,-2.79312 -4.8396,-6.16831 -5.174,-7.50035 -0.5246,-2.09071 -1.219,-2.42193 -5.078,-2.42193 -3.8266,0 -4.4701,-0.30014 -4.4701,-2.08493 0,-1.35885 1.0777,-2.53811 3.0951,-3.38629 3.0175,-1.26874 3.1027,-1.49546 3.3993,-9.03708 0.2953,-7.49192 0.4361,-7.87441 4.4709,-12.13659 6.3273,-6.68361 8.3745,-9.60281 8.3745,-11.94114 0,-2.41825 2.5405,-2.89965 3.4056,-0.64531 0.8565,2.23204 10.2631,4.49063 20.1111,4.82898 7.8228,0.26863 8.6456,0.47894 7.714,1.97074 -0.8062,1.29071 -0.3408,2.56217 2.0496,5.59945 9.1794,11.66248 12.608,26.70091 9.1349,40.06477 -1.0106,3.88986 -1.5739,4.58052 -3.7352,4.58052 -2.0237,0 -2.6107,-0.57708 -2.8686,-2.81902 l -0.324,-2.81901 -2.7297,1.91879 c -6.4317,4.52099 -13.9939,6.75101 -19.0161,5.60761 z m 10.2399,-9.90491 c 3.0343,-1.41289 6.5357,-4.14737 8.5223,-6.65567 3.1505,-3.97807 3.3263,-4.60488 2.6787,-9.55208 -0.3811,-2.91202 -2.3677,-8.95901 -4.4151,-13.43775 l -3.7215,-8.14314 -6.652,-0.0202 c -5.026,-0.0145 -8.068,-0.679 -12.4435,-2.71466 l -5.7912,-2.69419 -1.7453,2.71466 c -0.96,1.49307 -3.5678,4.41823 -5.7953,6.50035 -3.9853,3.72518 -4.0394,3.8715 -3.3703,9.16102 0.3948,3.11934 1.343,5.80259 2.2594,6.39329 5.1315,3.3073 5.0826,3.21966 3.0515,5.46389 -1.8495,2.0438 -1.8243,2.16441 1.2756,6.07852 3.1618,3.9918 8.1198,6.98611 13.8712,8.37735 5.1193,1.23828 6.9206,1.02238 12.2755,-1.47108 z m -16.3471,-4.7071 c -0.3459,-0.55986 -0.3783,-1.42388 -0.073,-1.92008 0.3067,-0.49619 -0.4017,-1.15301 -1.5739,-1.45959 -2.959,-0.77374 -1.8912,-3.02193 1.9595,-4.12629 3.7873,-1.08615 6.3022,0.45602 6.3022,3.86437 0,3.78646 -4.87,6.46691 -6.6161,3.64159 z m -12.0453,-16.96488 c -1.1676,-1.16796 -0.742,-4.10881 0.7774,-5.36987 1.1576,-0.96078 1.6612,-0.82456 2.4584,0.66507 1.5442,2.88499 -1.1453,6.79521 -3.2358,4.7048 z m 10.7221,-0.54289 c -2.1432,-2.14321 -0.7625,-6.92167 1.9999,-6.92167 1.7311,0 2.9696,4.04902 1.8679,6.10736 -1.254,2.34301 -2.1505,2.53176 -3.8678,0.81431 z m 78.1741,39.54604 c 0,-7.20343 -1.3562,-18.98461 -2.1851,-18.98461 -1.0145,0 -1.1958,20.7095 -0.1904,21.71505 1.5035,1.50368 2.3749,0.5019 2.3749,-2.73044 z m 6.0716,-0.40809 c -0.029,-0.97969 -0.9428,-4.75864 -2.0515,-8.39759 l -2.0156,-6.6163 0.5246,4.97704 c 0.2885,2.7374 0.5245,6.51631 0.5245,8.39763 0,2.36189 0.4726,3.42056 1.5269,3.42056 0.8397,0 1.5107,-0.8016 1.4911,-1.78134 z m 4.8151,-1.52682 c -3.5475,-8.54948 -5.1305,-11.94841 -5.427,-11.652 -0.7225,0.72255 3.9238,12.92436 4.9215,12.92436 0.5684,0 0.7958,-0.57256 0.5055,-1.27236 z m 5.3994,-1.41595 c 0,-0.69056 -7.3305,-10.54429 -7.8444,-10.54429 -1.0083,0 5.5381,11.09935 6.5723,11.14305 0.6997,0.0295 1.2721,-0.23979 1.2721,-0.59876 z m -4.2767,-23.35701 c 0.1674,-1.16868 -0.3257,-2.6471 -1.0947,-3.28537 -1.1143,-0.92481 -1.7478,-0.42759 -3.1195,2.44855 l -1.7209,3.60901 2.8158,-0.32366 c 1.9463,-0.22361 2.9093,-0.97968 3.1193,-2.44853 z m -16.0811,-1.58003 c 0,-1.8342 -0.7379,-3.73554 -1.7317,-4.4623 -1.6297,-1.19162 -1.6259,-1.97555 0.063,-13.28428 0.9879,-6.60985 1.8819,-12.49236 1.9862,-13.0722 0.1038,-0.57986 -0.8014,-1.20635 -2.013,-1.39226 -2.6584,-0.40786 -2.698,-0.2946 -5.4427,15.55806 -1.1634,6.71809 -2.5473,13.52697 -3.0756,15.13084 -1.3314,4.04343 -0.5903,4.71807 5.1828,4.71807 4.9593,0 5.0295,-0.0444 5.0295,-3.19593 z" fill="#00B894" transform="translate(-32.8161,79.89298) translate(3883.1467,385.76181)"/>
</svg>