<?xml version="1.0" ?><svg height="147.83202mm" viewBox="0 0 118.71645 147.83202" width="118.71645mm" xmlns="http://www.w3.org/2000/svg">
    <path d="m 2700.7252,12232.375 c 74.7583,25.441 162.8873,34.733 238.1201,38.81 75.2329,4.077 126.4405,-20.88 140.581,-35.336 14.1406,-14.456 31.1469,-36.065 31.1469,-36.065 l -9.3685,-28.914 30.3904,-20.519 -26.3589,-28.665 22.6681,-23.073 -33.7883,-26.842 13.8659,-17.05 -35.6739,-28.579 24.1689,-38.359 c 0,0 -35.7214,2.69 -66.7481,-7.812 -31.0267,-10.502 -65.4855,-45.22 -70.977,-72.649 -5.4914,-27.428 -0.1373,-56.957 -0.1373,-56.957 0,0 18.671,-24.835 27.1827,-32.618 8.5117,-7.784 -7.8253,-28.541 -7.8253,-28.541 l 1.922,-22.116 -27.8691,4.448 -2.7457,-39.413 -54.6399,20.139 -35.969,-13.715 1.7847,37.684 -47.4564,8.885 30.2379,34.162 2.9407,13.293 16.0625,13.961 c 0,0 15.9291,-1.178 12.6323,42.778 -3.2968,43.956 -71.0798,90.074 -83.6597,94.32 -12.5799,4.247 -59.2572,3.505 -59.2572,3.505 l 19.3573,39.661 -36.7926,24.34 13.5913,34.224 -27.3199,21.374 27.116,23.758 -32.1956,44.444 35.4198,11.861 z" fill="#FFFFFF" transform="translate(-0.36201451,61.064838) matrix(0.26458333,0,0,0.26458333,-711.37483,-3162.9124)"/>
    <path d="m 2889.7182,12279.885 c -34.2552,-2.068 -127.4894,-18.575 -152.5067,-27.002 -8.165,-2.751 -20.0623,-6.348 -26.4379,-7.994 -20.8345,-5.38 -21.0597,-19.304 -0.667,-41.426 5.9598,-6.464 10.0411,-12.548 9.0721,-13.518 -0.9702,-0.968 -5.5081,-1.801 -10.0856,-1.848 -25.0247,-0.256 -25.5122,-27.572 -0.8737,-48.936 l 11.4011,-9.882 -11.5273,-4.613 c -6.3409,-2.538 -12.7747,-6.944 -14.298,-9.789 -5.1728,-9.662 -0.7735,-14.964 24.3205,-29.319 3.0838,-1.764 2.1458,-4.14 -4.7223,-11.965 -9.374,-10.673 -11.2563,-22.702 -4.5961,-29.362 6.2432,-6.244 20.9472,-14.703 29.0874,-16.736 4.0825,-1.018 7.4238,-2.689 7.4238,-3.712 0,-1.02 -4.8597,-6.601 -10.7972,-12.4 -13.0952,-12.788 -14.2597,-22.53 -3.6828,-30.845 8.8964,-7.002 33.5943,-7.624 49.5246,-1.248 17.4102,9.124 24.6994,-7.131 39.5678,-19.457 43.8692,-46.239 47.3639,-64.121 31.6613,-77.626 -8.0722,-6.946 -7.17,-16.47 1.8352,-19.329 9.0325,-2.865 6.4808,-12.784 -4.872,-18.911 -9.1884,-4.963 -10.0955,-6.46 -9.9173,-16.362 0.1832,-10.329 -0.4022,-11.146 -11.1894,-15.608 -20.1292,-8.327 -26.5765,-22.41 -15.7385,-34.387 4.2693,-4.716 7.6292,-5.381 23.4258,-4.635 17.3831,0.823 18.3459,0.565 16.7755,-4.525 -0.917,-2.969 -2.3302,-10.342 -3.1408,-16.382 -2.845,-21.217 13.938,-26.807 31.8656,-10.609 14.4886,13.089 12.2487,13.602 45.5139,-10.462 12.4257,-8.987 22.1623,-9.859 30.1009,-2.698 4.7025,4.242 5.3831,7.248 4.2186,18.605 l -1.3909,13.54 10.2774,-0.98 c 15.9167,-1.518 27.7125,12.695 17.544,21.131 -5.5118,4.577 -5.1394,6.642 2.7002,15.102 10.1301,10.931 8.8667,21.333 -3.3747,27.778 -3.7013,1.949 -6.0724,5.707 -6.0724,9.627 0,3.838 -2.8734,8.52 -7.1317,11.622 -6.1874,4.508 -6.8903,6.459 -5.3237,14.807 1.1262,6.002 4.3771,11.301 8.6452,14.099 8.3469,5.467 7.8828,15.092 -0.912,18.951 -5.1418,2.257 -6.0749,4.752 -6.0749,16.241 0,12.288 1.1855,14.931 12.4665,27.83 8.5165,9.735 18.5699,17.315 31.7171,23.912 27.6285,16.168 36.2847,19.911 59.4283,18.243 23.88,-1.754 25.5655,-1.533 28.3696,3.706 5.8039,10.846 3.5256,19.74 -7.816,30.531 -5.9375,5.646 -10.7972,10.777 -10.7972,11.399 0,0.623 3.5257,2.59 7.8309,4.372 16.6134,6.885 25.5914,25.059 18.0539,36.56 -3.8313,5.851 -3.6371,6.358 3.611,9.359 25.3922,10.518 30.0254,39.048 7.5809,46.677 -2.0456,0.696 -0.074,3.891 5.0861,8.257 4.6332,3.914 9.9656,10.845 11.8503,15.394 5.0787,12.261 0.6868,19.233 -15.8648,25.185 -7.618,2.739 -13.8537,5.596 -13.8537,6.344 0,0.753 3.0368,4.975 6.7468,9.385 3.7113,4.411 6.7481,10.472 6.7481,13.471 0,7.793 -9.3704,19.881 -18.2692,23.568 -4.2409,1.757 -8.905,6.577 -10.5311,10.883 -6.0835,16.116 -38.0171,33.03 -76.4711,40.5 -15.7732,3.063 -75.0505,8.422 -86.3736,7.807 -3.7125,-0.203 -21.3258,-1.246 -39.1408,-2.32 z m 40.2248,-26.948 c -35.1263,-5.055 -70.8516,-23.596 -98.4825,-51.117 -22.1969,-22.107 -32.1081,-39.437 -37.4367,-65.46 -6.0786,-29.664 4.1852,-71.458 23.0174,-93.73 9.5721,-11.317 33.9755,-27.395 49.2227,-32.429 11.2761,-3.72 13.7238,-6.456 8.608,-9.615 -1.4825,-0.919 -2.6977,-3.334 -2.6977,-5.366 0,-4.09 7.1688,-12.181 10.7959,-12.181 4.7099,0 11.1746,9.065 9.9099,13.901 -1.0049,3.84 0.2017,4.996 5.1876,4.996 5.8595,0 6.4968,-1.144 6.4968,-11.657 0,-27.701 -14.7373,-54.69 -30.925,-56.638 -6.7815,-0.816 -9.4743,0.929 -17.8992,11.59 -14.3723,18.18 -30.0204,38.159 -51.147,48.592 -14.0023,6.919 -20.6711,1.901 -24.3539,-0.07 -5.4512,-2.914 -35.7488,-3.595 -38.4825,-0.863 -0.9615,0.964 2.4478,6.4 7.5797,12.08 10.6685,11.808 14.2486,22.25 9.5622,27.895 -1.766,2.126 -8.9397,5.771 -15.9452,8.096 -15.4947,5.148 -24.6361,11.254 -24.6361,16.456 0,2.137 4.2508,8.593 9.4458,14.345 5.1963,5.752 9.4483,12.415 9.4483,14.809 0,2.5 -5.6578,7.216 -13.3068,11.092 -7.3173,3.709 -14.0382,7.93 -14.9366,9.379 -0.8934,1.452 4.5008,5.276 11.9926,8.499 20.6303,8.873 21.0845,15.813 2.1186,32.45 -8.1922,7.186 -15.5269,15.48 -16.2978,18.43 -1.2487,4.777 0.3601,5.564 14.6891,7.185 15.8993,1.798 23.8379,6.179 23.8379,13.152 0,1.97 -7.3223,11.661 -16.2706,21.537 -8.9484,9.874 -15.5591,19.106 -14.6879,20.516 0.8724,1.408 5.2173,2.561 9.6574,2.561 4.4389,0 11.5632,1.807 15.8276,4.012 4.2657,2.207 16.1704,4.794 26.454,5.75 17.5279,1.627 18.7889,1.378 20.1984,-4.012 1.136,-4.346 3.5987,-5.75 10.0869,-5.75 7.003,0 9.1327,1.451 11.5508,7.858 2.8808,7.626 3.7731,7.953 30.133,11.026 14.9415,1.747 28.9871,3.489 31.2146,3.878 2.2263,0.389 19.8396,0.722 39.1396,0.743 25.4677,0.02 31.3161,-0.502 21.3307,-1.938 z m -75.6383,-9.29 c -2.0592,-5.368 0.9913,-9.578 6.9412,-9.578 6.0414,0 8.926,6.324 4.7779,10.469 -4.2149,4.215 -9.9284,3.78 -11.7191,-0.891 z m -35.1412,-10.925 c -2.3685,-6.174 0.9492,-12.146 6.7493,-12.146 6.383,0 9.6599,7.458 5.4859,12.488 -4.0603,4.893 -10.2911,4.718 -12.2352,-0.342 z m -67.4807,-13.498 c -2.1161,-5.514 0.9987,-12.836 4.9055,-11.536 1.7498,0.584 4.4834,3.148 6.0699,5.7 2.1978,3.523 1.9181,5.263 -1.1546,7.221 -5.6789,3.62 -8.0264,3.289 -9.8208,-1.385 z m 42.2123,-1.349 c 0,-1.485 1.214,-2.699 2.699,-2.699 1.485,0 2.7002,1.214 2.7002,2.699 0,1.485 -1.2152,2.701 -2.7002,2.701 -1.485,0 -2.699,-1.216 -2.699,-2.701 z m -7.1911,-28.523 c -0.8923,-2.329 -0.2389,-5.617 1.4528,-7.308 3.7979,-3.798 12.7994,3.965 9.947,8.579 -2.6953,4.36 -9.5312,3.596 -11.3998,-1.271 z m -30.5996,-14.665 c 0,-1.484 1.8228,-2.698 4.0491,-2.698 2.2275,0 4.0503,1.214 4.0503,2.698 0,1.485 -1.8228,2.699 -4.0503,2.699 -2.2263,0 -4.0491,-1.214 -4.0491,-2.699 z m -3.3722,-24.51 c -7.1082,-4.137 -6.1231,-17.637 1.6595,-22.737 13.907,-9.113 30.1838,8.184 19.1602,20.362 -5.2149,5.764 -13.4009,6.697 -20.8197,2.375 z m 20.5462,-36.224 c -2.3859,-6.21 1.1583,-12.649 6.4065,-11.64 5.8571,1.129 7.9027,10.196 3.0059,13.301 -5.273,3.34 -7.6564,2.919 -9.4124,-1.661 z m -23.8305,-21.192 c -3.1928,-2.334 -4.3696,-5.355 -3.2373,-8.306 2.2708,-5.923 10.8801,-4.398 12.1411,2.149 1.4132,7.338 -3.0554,10.431 -8.9038,6.157 z m 12.891,-41.257 c -2.0728,-5.397 2.2461,-12.826 8.1304,-13.983 4.6864,-0.923 9.0832,10.518 5.9734,15.547 -2.7275,4.417 -12.2129,3.366 -14.1038,-1.564 z m 43.7468,-13.47 c -2.9515,-2.952 -3.538,-5.343 -1.7486,-7.133 3.5689,-3.569 11.1511,-0.489 11.1511,4.531 0,6.221 -4.5293,7.474 -9.4025,2.602 z m -15.7905,-13.604 c -2.5319,-2.532 -2.2485,-11.698 0.3601,-11.698 3.3648,0 8.639,6.098 8.639,9.988 0,3.676 -5.9066,4.799 -8.9991,1.71 z m 41.4165,-29.21 c -3.8968,-4.698 -1.798,-12.181 3.4217,-12.181 6.5291,0 13.7127,7.085 11.9208,11.759 -2.1235,5.53 -10.9011,5.774 -15.3425,0.422 z m 32.4707,-26.896 c -5.5402,-6.677 -2.2856,-13.627 6.383,-13.627 8.6068,0 14.1805,6.326 11.5694,13.131 -2.0988,5.471 -13.5605,5.788 -17.9524,0.496 z m 146.61,283.158 c 34.0362,-3.607 66.5093,-18.393 66.5192,-30.286 0,-4.168 3.7806,-8.79 11.7847,-14.433 l 11.7785,-8.305 -5.4648,-9.977 c -8.2776,-15.112 -4.9921,-23.749 11.7203,-30.81 7.357,-3.107 13.3737,-7.191 13.3737,-9.079 0,-1.888 -6.6813,-7.706 -14.8463,-12.927 -20.6489,-13.211 -20.0883,-21.195 1.9899,-28.304 5.5428,-1.787 10.8108,-4.428 11.7018,-5.869 2.6693,-4.321 -4.528,-10.675 -19.6886,-17.379 -20.5622,-9.094 -21.525,-14.096 -4.6703,-24.243 8.8419,-5.321 2.376,-13.834 -15.7707,-20.763 -15.2113,-5.808 -16.7495,-7.114 -16.7495,-14.226 0,-6.109 2.6631,-9.846 12.1473,-17.044 18.4028,-13.971 17.6343,-17.271 -3.5207,-15.106 -62.5884,0.154 -121.5037,-39.547 -125.3943,-89.319 l -2.1063,-13.496 -14.793,-1.782 c -8.1353,-0.98 -23.5991,-1.116 -34.3603,-0.303 l -19.5711,1.481 v 13.301 c 0,7.316 -1.1929,15.529 -2.6494,18.253 -2.3315,4.357 -1.5779,4.923 6.2728,4.7 5.2433,-0.142 12.4121,2.229 17.3757,5.764 10.7675,7.668 24.0607,34.556 27.9019,56.434 l 2.9601,16.871 11.1845,0.02 c 46.0683,0.06 91.8309,23.97 108.2772,56.561 10.5646,20.938 12.9059,38.321 11.6461,86.538 -1.3365,51.173 -4.4859,61.883 -23.1758,78.768 -13.7672,12.437 -22.2143,16.825 -45.5028,23.633 -19.9992,5.849 -20.6117,5.809 21.6302,1.331 z m -20.6191,-27.099 c 17.841,-5.926 29.1814,-14.101 35.7339,-25.764 11.7253,-20.86 14.0728,-87.719 4.0899,-116.365 -8.5176,-24.434 -40.5762,-51.51 -75.0542,-63.388 -17.664,-6.086 -54.4127,-6.347 -73.3229,-0.52 -29.3188,9.033 -52.3783,27.434 -64.0033,51.071 -4.9834,10.138 -5.9895,16.831 -6.0762,40.488 -0.099,25.666 0.6101,29.789 7.4312,43.677 14.0666,28.65 48.2896,56.251 85.4356,68.917 22.2588,7.587 65.7148,8.542 85.766,1.884 z m -76.465,-18.322 c -64.064,-23.813 -89.4005,-65.919 -67.9138,-112.852 8.0672,-17.621 28.1283,-38.426 43.9385,-45.57 11.5162,-5.202 39.5863,-10.56 55.5043,-10.593 25.657,-0.07 47.8008,13.316 60.0879,36.276 5.2049,9.729 5.8533,15.128 5.857,48.73 0,45.009 -3.7459,58.133 -20.7689,72.706 -21.2329,18.174 -47.724,22.079 -76.705,11.303 z m 52.981,-17.482 c 16.4389,-8.744 23.9567,-22.721 27.2645,-50.689 4.6654,-39.474 -2.9811,-64.101 -24.3972,-78.531 -11.4692,-7.729 -19.6837,-8.371 -10.6314,-0.83 8.8865,7.404 1.985,6.779 -13.8723,-1.26 -7.8148,-3.96 -17.9239,-6.745 -24.4715,-6.745 -37.6039,0 -74.6248,49.162 -64.7187,85.948 10.0795,37.433 78.2012,69.463 110.8266,52.107 z m -63.027,-29.189 c -0.99,-0.988 -1.7981,-4.56 -1.7981,-7.937 0,-8.085 -3.4204,-9.879 -9.7242,-5.107 -15.1383,11.459 -24.4158,-0.942 -14.803,-19.787 3.4093,-6.684 4.5478,-11.606 2.9143,-12.617 -1.4738,-0.911 -2.6804,-4.395 -2.6804,-7.741 0,-11.291 28.0058,-31.411 36.8415,-26.466 3.6469,2.042 3.3128,2.675 -2.1272,4.041 -8.311,2.087 -26.548,20.953 -21.8926,22.653 4.8213,1.753 4.1865,7.497 -2.2114,20.041 -3.0739,6.024 -4.9326,11.604 -4.1357,12.402 0.797,0.798 5.2012,-0.1 9.7861,-2.001 10.051,-4.163 12.7153,-1.972 13.8031,11.354 0.8291,10.122 -0.7029,14.432 -3.9724,11.165 z m 41.3906,-25.652 c 0,-1.74 1.9874,-5.36 4.4154,-8.044 4.9735,-5.493 3.1927,-6.831 -10.9556,-8.249 -10.5868,-1.062 -11.3033,-5.168 -2.6841,-15.411 9.3059,-11.059 6.2481,-13.829 -7.1577,-6.486 -5.8348,3.197 -10.6116,4.836 -10.6116,3.646 0,-3.354 12.6634,-10.85 21.2182,-12.563 9.8022,-1.96 13.1608,4.995 6.9708,14.442 -2.3797,3.631 -3.9266,6.847 -3.4365,7.15 0.49,0.302 4.5354,1.736 8.9891,3.19 9.9112,3.23 12.9418,16.255 5.1134,21.977 -5.966,4.365 -11.8614,4.536 -11.8614,0.348 z m 0,-274.862 c 0,-4.645 -1.7932,-5.395 -12.8217,-5.382 -7.0525,0.02 -22.2638,-1.42 -33.8023,-3.176 -22.7056,-3.455 -27.1086,-2.03 -24.5024,7.93 1.5271,5.842 2.6359,6.026 36.3515,6.026 32.9768,0 34.7749,-0.28 34.7749,-5.398 z m 18.4659,-26.67 c 2.1941,-1.391 -8.4509,-3.046 -26.9923,-4.195 -16.8386,-1.044 -42.7444,-3.682 -57.5733,-5.861 -17.6653,-2.597 -27.2732,-3.021 -27.8684,-1.23 -0.5025,1.501 -1.1237,3.671 -1.3836,4.821 -1.3266,5.877 105.1997,11.926 113.8176,6.465 z m 2.4898,-13.818 c 2.579,-1.484 8.1267,-3.921 12.328,-5.414 9.3221,-3.316 8.3123,-7.743 -3.0504,-13.323 -9.4162,-4.628 -13.5259,-12.548 -8.9075,-17.166 4.8002,-4.802 3.4018,-7.708 -2.2535,-4.683 -7.5104,4.021 -17.8744,3.44 -21.7391,-1.217 -3.1816,-3.83 -2.949,-8.555 1.4961,-30.405 0.9801,-4.824 0.9331,-8.772 -0.099,-8.772 -1.0395,0 -9.4953,4.252 -18.784,9.449 -13.579,7.591 -19.3796,12.123 -31.2658,12.123 -12.2871,0 -16.285,-3.818 -21.5505,-9.424 -12.6968,-13.516 -17.3374,-6.216 -8.5821,13.497 8.9038,20.045 2.0666,26.252 -26.1062,23.697 -21.5325,-1.952 -22.171,2.878 -2.1372,16.181 18.4771,12.266 39.0035,14.789 42.5427,5.226 1.2214,-3.301 4.5094,-5.967 7.3606,-5.967 6.0539,0 12.4084,6.685 10.0225,10.544 -1.8005,2.915 8.3395,5.15 29.5354,6.513 29.3732,1.884 36.6967,1.732 41.1999,-0.859 z m -48.6158,-31.142 c 2.2181,-7.729 3.7567,-8.675 8.7103,-10.665 4.6973,-1.887 13.5506,3.782 13.5506,9.447 0,2.883 -3.1247,7.289 -6.9473,9.794 -8.9241,11.395 -19.8266,-1.112 -15.3136,-8.576 z m -70.5997,18.357 c -0.8873,-0.886 -1.6137,-3.93 -1.6137,-6.759 0,-6.345 8.9793,-5.455 10.2242,1.013 0.8477,4.401 -5.6306,8.725 -8.6105,5.746 z m 101.6332,0.09 c -4.825,-1.771 -4.1803,-11.584 0.7611,-11.584 4.8881,0 8.4149,7.511 4.9957,10.64 -1.3092,1.199 -3.9006,1.624 -5.7568,0.944 z m -67.9881,-11.419 c -6.8966,-6.896 -6.9597,-9.573 -0.3663,-16.161 6.7332,-6.738 15.9105,-4.419 18.1702,4.588 3.4402,13.698 -8.1477,21.231 -17.8039,11.573 z" fill="#00B894" transform="translate(-0.36201451,61.064838) matrix(0.26458333,0,0,0.26458333,-711.37483,-3162.9124)"/>
</svg>