<?xml version="1.0" ?><svg height="237.56546mm" viewBox="0 0 335.37668 237.56546" width="335.37668mm" xmlns="http://www.w3.org/2000/svg">
    <path d="m 48733.393,5695.4102 -137.772,80.6543 -137.652,173.4218 2.638,61.6211 -3.396,0.027 c -55.685,6.6641 -125.827,23.949 -183.098,63.4394 -125.218,86.3418 -108.874,282.8008 -59.601,333.9981 108.658,97.9227 549.866,96.5748 805.388,82.7793 155.838,-8.4136 423.409,-36.207 425.504,-246.7989 0.628,-63.109 -41.591,-146.7064 -93.603,-166.2832 -2.854,-12.4955 0.475,-78.0923 -84.129,-95.6093 -84.604,-17.517 -90.749,9.6167 -105.283,25.7324 -12.352,13.697 -44.592,2.2223 -54.018,-1.5391 l 1.734,-37.791 -98.429,-166.7734 -120.752,-86.8399 z" fill="#FFFFFF" transform="translate(-8.448246,218.5684) matrix(0.26458333,0,0,0.26458333,-11861.902,-1055.2868) translate(-3313.5291,-2437.8203)"/>
    <path d="m 44978.582,3978.6109 c -4.37,-5.2674 0.405,-12.4312 6.683,-10.0224 5.296,2.0328 5.146,11.0412 -0.222,12.8261 -1.783,0.5939 -4.693,-0.6678 -6.467,-2.8037 z m 602.931,-10.5532 c -5.728,-6.3302 -6.509,-18.2195 -1.195,-18.1544 9.374,0.115 18.885,14.5435 13.282,20.1466 -4.605,4.6037 -6.383,4.3103 -12.087,-1.9922 z m 69.584,0.3259 c -5.04,-1.8078 -4.677,-17.5141 0.448,-19.4811 5.658,-2.171 7.662,0.4757 7.662,10.1205 0,8.8153 -2.283,11.4506 -8.11,9.3606 z m 36.023,-3.9477 c -3.054,-4.9424 1.254,-17.5267 6.001,-17.5267 4.748,0 9.057,12.5843 6.003,17.5267 -1.06,1.7141 -3.761,3.1167 -6.003,3.1167 -2.241,0 -4.942,-1.4026 -6.001,-3.1167 z m 67.133,-9.2325 c 1.822,-5.4682 8.172,-6.375 8.172,-1.1674 0,2.5682 -2.101,4.6694 -4.671,4.6694 -2.568,0 -4.144,-1.5759 -3.501,-3.502 z m -724.078,-10.1584 c -3.486,-3.4857 -2.298,-12.1622 1.884,-13.7673 5.945,-2.281 11.511,2.3499 10.312,8.5782 -1.095,5.6804 -8.537,8.8475 -12.196,5.1891 z m -35.431,-2.9894 c -4.173,-4.1745 -1.811,-9.8919 4.088,-9.8919 4.122,0 5.804,1.6016 5.16,4.9167 -1.052,5.4275 -6.087,8.1361 -9.248,4.9752 z m -33.394,-5.4483 c -1.019,-2.6619 -0.442,-6.2541 1.288,-7.9824 4.491,-4.4932 13.005,-0.3867 11.831,5.7079 -1.308,6.7885 -10.757,8.4268 -13.119,2.2745 z m 169.307,-25.6098 c -10.192,-1.4463 -10.762,-13.3872 -0.821,-17.1669 10.066,-3.8274 26.876,-3.7785 34.122,0.1 9.456,5.0617 7.393,18.5517 -4.193,27.3878 l -9.897,7.5483 c -2.672,2.0377 -4.244,0.7894 -4.584,-0.7749 -0.739,-7.7222 -7.604,-15.6096 -14.627,-17.0943 z m -132.045,-3.1064 c -14.438,-1.4572 -14.885,-19.0857 -12.646,-22.658 3.912,-6.2468 15.971,-7.7592 19.856,-2.4907 1.713,2.3222 6.101,5.8126 9.751,7.7565 4.226,2.2516 6.635,6.2688 6.635,11.0678 0,6.3757 -0.662,13.3409 -9.296,14.3069 -9.309,1.0418 2.119,-6.3255 -14.3,-7.9825 z m 58.062,4.6737 c -1.115,-1.115 -2.025,-5.6399 -2.025,-10.0549 0,-6.7938 -1.542,-8.3166 -10.024,-9.9078 -12.262,-2.3005 -24.003,-11.1791 -29.924,-22.6291 -2.444,-4.7227 -6.439,-8.5869 -8.882,-8.5869 -6.998,0 -8.443,-8.4875 -2.553,-14.9967 2.951,-3.2613 5.667,-7.973 6.033,-10.4704 1.391,-9.467 10.768,-16.1371 21.409,-15.2256 8.496,0.7274 10.667,2.343 12.515,9.3072 3.381,12.7389 11.065,19.5894 21.973,19.5894 7.592,0 11.777,-2.5016 19.732,-11.7963 12.789,-14.9407 19.853,-15.5589 19.853,-1.737 0,14.153 -11.328,43.3545 -19.596,50.5072 -4.606,3.9848 -6.946,9.2003 -6.946,15.4827 0,5.2105 -1.326,9.4737 -2.948,9.4737 -1.621,0 -2.948,-3.9812 -2.948,-8.8472 0,-11.7902 -5.275,-11.373 -6.45,0.51 -0.903,9.1308 -5.147,13.4523 -9.219,9.3817 z m -126.769,-29.4502 c -4.642,-4.6439 -1.886,-10.3168 4.568,-9.3999 3.649,0.5182 6.635,2.9147 6.635,5.3255 0,4.6853 -7.765,7.5102 -11.203,4.0744 z m 507.125,-9.0401 c -0.974,-5.9973 -1.18,-11.4947 -0.459,-12.2163 3.185,-3.1849 10.303,6.9258 10.303,14.6343 0,12.6342 -7.711,10.7407 -9.844,-2.418 z m 164.84,8.2309 c -2.046,-3.3113 4.273,-15.0211 8.109,-15.0211 1.338,0 2.015,3.5471 1.502,7.8824 -0.976,8.2273 -6.433,12.2813 -9.611,7.1387 z m -111.864,-4.7958 c -2.797,-7.2889 -2.207,-21.4495 0.974,-23.4161 4.173,-2.5789 12.532,11.791 11.416,19.6256 -1.143,8.0306 -9.751,10.6645 -12.39,3.7905 z m -213.429,-2.1152 c -5.455,-6.882 -13.327,-26.0064 -11.469,-27.8634 6.555,-6.5559 28.032,17.6572 24.296,27.3922 -1.975,5.1487 -8.917,5.4035 -12.827,0.4712 z m 465.962,1.2049 c -1.992,-1.2295 -4.503,-6.6604 -5.585,-12.0685 -1.54,-7.6954 -1.068,-9.5353 2.168,-8.4641 6.305,2.0879 13.462,16.3382 9.964,19.8377 -1.613,1.6119 -4.559,1.9245 -6.547,0.6949 z m -420.685,-5.1326 c -3.032,-7.9033 -1.998,-13.0296 2.632,-13.0296 2.433,0 4.444,0.9953 4.465,2.2118 0.03,1.2165 0.841,5.1977 1.819,8.8472 2.095,7.8156 -5.987,9.6019 -8.916,1.9706 z m 486.214,1.6075 c -3.09,-5.0011 1.701,-26.4333 5.908,-26.4333 8.152,0 10.616,24.6879 2.764,27.7006 -6.137,2.3552 -6.462,2.3076 -8.672,-1.2673 z m 55.713,-4.2604 c -1.75,-4.5583 9.259,-22.1729 13.857,-22.1729 6.533,0 -0.62,21.9904 -8.084,24.8552 -2.274,0.8727 -4.873,-0.3343 -5.773,-2.6823 z m 40.2,-1.8117 c 0,-5.7237 9.997,-20.3612 13.905,-20.3612 4.843,0 4.784,0.6611 -1.181,13.1706 -4.667,9.784 -12.724,14.3378 -12.724,7.1906 z m -346.532,-8.5913 c -2.741,-4.4334 1.464,-15.2163 5.426,-13.9167 5.411,1.7748 6.179,16.892 0.857,16.892 -2.446,0 -5.272,-1.3388 -6.283,-2.9753 z m -313.014,-79.4515 c -69.205,-2.0837 -74.86,-2.6669 -84.686,-8.7412 -8.058,-4.9794 -10.955,-9.0647 -12.335,-17.3887 -0.993,-5.9843 -2.254,-12.3562 -2.8,-14.1598 -1.278,-4.2097 -43.04,4.4245 -57.058,11.7973 -8.77,4.6123 -10.389,4.6968 -14.744,0.7696 -7.527,-6.7874 -40.369,-2.2598 -46.435,6.4013 -5.578,7.9628 -8.718,8.0724 -15.175,0.5311 -7.196,-8.4057 -36.021,-8.6115 -38.202,-0.2725 -1.926,7.3675 -11.662,9.7582 -17.199,4.223 -2.404,-2.4047 -4.371,-5.516 -4.371,-6.9146 0,-1.3983 -3.649,-2.9622 -8.11,-3.4756 -10.989,-1.2643 -10.727,-9.4811 0.343,-10.7465 l 8.451,-0.9661 -1.23,-28.1359 c -0.966,-22.0918 -2.307,-28.9226 -6.241,-31.7986 -5.681,-4.1535 -6.689,-10.3853 -1.679,-10.3853 2.289,0 2.718,-4.604 1.371,-14.7454 -1.888,-14.2422 -1.707,-14.7454 5.328,-14.7454 5.682,0 8.126,2.3286 11.114,10.5954 3.616,9.998 4.418,10.4988 14.2,8.8797 5.702,-0.9436 13.742,-1.7303 17.868,-1.7482 5.861,-0.026 8.117,-2.0849 10.321,-9.4232 3.792,-12.6156 8.869,-13.5227 14.521,-2.5936 4.621,8.9351 4.932,9.0353 28.19,9.0353 h 23.515 v -11.2326 c 0,-25.1017 16.348,-28.8601 23.593,-5.424 l 4.425,14.3084 19.503,-1.3525 c 10.727,-0.7437 21.153,-2.3711 23.169,-3.6164 2.641,-1.6334 3.174,-8.1175 1.911,-23.2778 -0.962,-11.5576 -3.738,-64.4147 -4.128,-90.3666 -4.179,-36.5418 5.226,-31.3893 24.993,-60.9297 25.441,-38.0147 41.191,-59.1058 77.376,-103.6079 12.278,-15.1004 24.257,-30.5797 26.619,-34.3984 2.365,-3.8187 10.99,-10.8991 19.17,-15.7342 17.274,-10.2115 51.818,-30.4395 96.709,-56.6282 17.436,-10.1725 31.701,-20.0316 31.701,-21.9093 0,-1.8775 -4.423,-5.0133 -9.829,-6.9684 -9.101,-3.2909 -13.651,-8.8954 -17.827,-21.9599 -1.09,-3.4174 -4.669,-5.161 -10.588,-5.161 -11.091,0 -11.347,-4.5386 -0.867,-15.4775 4.441,-4.6353 8.091,-10.3331 8.111,-12.6619 0.03,-2.3288 1.126,-3.793 2.247,-4.2672 17.035,-7.207 23.651,-0.8423 21.577,10.2886 -2.692,14.4495 5.562,14.0003 11.673,-0.6293 5.026,-12.0233 12.508,-21.4887 16.991,-21.4887 2.729,0 1.827,9.6011 -2.495,26.5416 -1.455,5.7055 1.575,3.5382 13.401,-9.5843 14.488,-16.0785 23.64,-21.2637 23.64,-13.3952 0,1.9591 -4.868,8.5473 -10.818,14.6403 l -10.818,11.0785 10.818,-1.7555 c 8.856,-1.437 10.818,-0.8584 10.818,3.1913 0,2.7204 -4.281,7.207 -9.514,9.9703 -5.236,2.763 -14.563,10.332 -20.73,16.8199 -8.67,9.12 -11.028,13.8033 -10.391,20.6435 0.768,8.2509 1.816,8.9727 15.567,10.7092 35.209,4.4459 115.925,17.4391 125.76,20.2446 13.974,3.9861 62.875,29.2589 90.996,47.0297 12.165,7.6876 25.63,16.1183 29.922,18.7351 14.76,9.0006 69.864,86.6787 93.216,131.4077 8.807,16.8666 18.539,34.8108 21.627,39.8761 6.774,11.108 7.124,17.5773 1.215,22.4808 -3.478,2.8862 -4.425,11.161 -4.425,38.699 0,19.2653 0.365,35.0277 0.81,35.0277 0.445,0 12.092,-11.1081 25.885,-24.6847 31.069,-30.583 47.609,-39.3967 81.777,-43.5763 32.119,-3.9289 46.056,-2.0368 68.521,9.3039 35.111,17.7233 53.458,44.8205 64.438,95.1662 7.437,34.0866 7.978,50.14 1.868,55.2122 -6.213,5.1572 -12.397,-0.5515 -16.302,-15.0497 -2.691,-9.9955 -3.733,-11.0012 -8.385,-8.0962 -6.159,3.8467 -35.07,0.612 -30.964,-3.4648 1.412,-1.4022 9.202,-2.8311 17.314,-3.1749 8.11,-0.3438 15.557,-1.0472 16.55,-1.5633 0.996,-0.5161 0.178,-7.9398 -1.816,-16.4973 -2.49,-10.6967 -4.898,-15.2161 -7.703,-14.4621 -2.246,0.6032 -6.405,1.7533 -9.243,2.5558 -7.888,2.2292 -6.14,-3.6061 2.454,-8.2062 6.359,-3.4038 7.328,-5.5184 5.867,-12.8237 -2.413,-12.0695 -18.319,-36.0961 -29.378,-44.3817 -18.774,-14.0641 -33.201,-19.3405 -52.888,-19.3405 -43.772,0 -65.662,9.7759 -105.659,47.1853 l -23.645,22.1179 -0.965,60.4559 c -1.159,72.7594 -2.986,87.4901 -11.414,92.001 -4.419,2.3657 -38.061,2.6864 -119.759,1.1415 -132.058,-2.4972 -112.966,-2.6367 -174.064,1.2731 -69.646,4.4564 -166.878,5.6308 -252.574,3.0507 z m 21.808,-28.6182 c 14.245,-15.5581 10.375,-16.7493 -64.879,-19.9658 l -34.652,-1.481 v 16.1504 c -2.476,19.1174 17.029,11.9305 46.447,14.3466 44.454,-1.7261 46.733,-2.1151 53.084,-9.0502 z m 121.649,5.6823 c 0,-1.2529 -8.294,-15.7534 -18.431,-32.2226 -10.139,-16.4696 -21.198,-34.906 -24.578,-40.9701 l -6.147,-11.0253 -11.288,20.3264 c -6.209,11.1796 -16.383,27.8844 -22.607,37.1217 -10.867,16.1247 -13.324,22.9782 -9.58,26.7221 2.626,2.6259 92.631,2.6723 92.631,0.049 z m 119.278,-7.2047 c -1.118,-3.5208 -6.331,-13.1419 -11.586,-21.3808 -5.253,-8.2387 -12.419,-20.6197 -15.92,-27.5133 -3.503,-6.8933 -7.363,-12.5334 -8.579,-12.5334 -1.217,0 -9.807,15.2615 -19.093,33.9142 l -16.883,33.9143 h 37.046 c 36.676,0 37.025,-0.064 35.015,-6.401 z m 147.613,-11.9026 v -15.6107 c -20.418,7.857 -96.447,-14.654 -109.257,2.949 -0.477,1.6221 -1.49,9.4024 -2.251,17.2894 l -1.382,14.3405 56.445,-1.6788 56.445,-1.6787 z m 115.751,16.4447 c 6.507,-1.7435 6.637,-2.6442 6.704,-46.4073 0.05,-24.5461 1.917,-72.4954 4.182,-106.5535 2.265,-34.0582 3.688,-62.3549 3.16,-62.8815 -2.567,-2.5669 -109.715,-5.3741 -112.151,-2.9384 -0.814,0.8129 -0.199,17.9439 1.378,38.0693 1.572,20.1252 3.481,69.1048 4.242,108.8436 0.761,39.7387 1.477,72.584 1.593,72.9894 0.449,1.5892 84.654,0.5504 90.892,-1.1216 z m -328.676,-51.2244 19.34,-36.8632 -21.592,-43.6753 c -11.877,-24.0215 -22.321,-44.404 -23.213,-45.2942 -0.889,-0.8904 -0.982,27.3895 -0.199,62.8442 1.336,60.8152 3.635,102.9899 5.497,100.8212 0.457,-0.5331 9.534,-17.5578 20.171,-37.8327 z m -436.116,25.8044 c -0.133,-2.8384 -0.468,-14.4503 -0.737,-25.8044 l -0.491,-20.6434 h -16.219 c -14.864,0 -16.22,0.5558 -16.2,6.6354 0.03,7.9868 5.689,43.759 7.353,46.45 0.647,1.0493 6.885,1.1464 13.859,0.2145 9.605,-1.2818 12.622,-2.9434 12.435,-6.8529 z m 393.815,-78.1502 c -0.155,-92.9613 2.597,-88.4654 -26.171,-42.849 -26.213,41.571 -26.213,41.5714 -14.898,61.8745 11.09,19.8962 38.485,62.8111 40.098,62.8111 0.606,0 1.044,-36.8264 0.971,-81.8366 z m -337.167,77.1916 c 8.458,-1.6915 8.478,-1.7504 8.449,-24.3298 l -0.03,-22.634 -8.082,0.1836 c -4.445,0.1017 -14.133,0.4333 -21.532,0.7374 l -13.449,0.5529 2.035,21.3807 c 1.118,11.7594 2.606,22.3761 3.302,23.5925 1.504,2.6239 17.367,2.9033 29.304,0.516 z m 80.116,-30.0066 -0.86,-22.8552 -14.28,0.9135 c -25.843,1.6531 -27.149,2.9235 -26.02,25.2685 l 0.989,19.5284 h 20.517 20.516 z m 127.424,4.1397 v -18.7159 l -35.854,-1.9278 c -19.718,-1.0602 -42.941,-1.9276 -51.608,-1.9276 h -15.756 v 20.6434 20.6434 h 51.608 51.61 z m 251.734,-20.2498 c 2.139,-42.2427 -0.626,-119.0593 -4.147,-115.2579 -1.197,1.2904 -5.656,12.963 -9.911,25.9388 -4.256,12.9759 -11.862,33.6868 -16.903,46.0242 l -9.166,22.4314 17.321,29.8772 c 9.526,16.4324 18.111,29.8939 19.077,29.9145 0.967,0.023 2.645,-17.4972 3.729,-38.9282 z m -212.417,10.2108 c 23.498,-40.2725 23.58,-33.9525 -0.974,-74.4526 -11.839,-19.5282 -21.96,-35.0718 -22.489,-34.5415 -0.531,0.5304 0.29,18.1384 1.824,39.1286 1.538,20.9903 2.832,51.1815 2.879,67.0917 0.04,16.4919 1.234,28.2182 2.756,27.2774 1.468,-0.9072 8.67,-11.9339 16.004,-24.5036 z m 344.061,13.1386 -0.03,-20.9454 -0.03,-20.9455 -54.543,-0.8538 -54.544,-0.854 v 25.5035 c 0,24.9653 0.133,25.4691 6.636,23.8725 35.778,-3.3357 66.076,-4.201 102.511,-5.7773 z m -416.86,-37.4673 h 33.482 v -18.7178 -18.7178 l -33.177,-1.8356 c -18.247,-1.0097 -41.471,-2.7287 -51.61,-3.8202 l -18.431,-1.9849 v 24.433 24.4328 l 18.127,-1.8948 c 9.969,-1.0421 33.193,-1.8947 51.609,-1.8947 z m 416.86,-21.1729 v -21.1161 -21.1158 l -52.349,0.8281 c -28.793,0.4557 -53.676,1.2786 -55.3,1.8291 -1.727,0.5864 -2.556,10.048 -2.001,22.8601 l 0.949,21.8593 30.016,-0.8766 c 26.288,-0.6552 52.465,-2.4405 78.685,-4.2681 z m -166.571,-37.8083 c 6.073,-15.409 14.277,-34.4519 18.228,-42.3175 3.952,-7.8659 6.347,-15.1387 5.323,-16.1621 -2.497,-2.4986 -84.953,-0.5974 -87.677,2.0216 -1.179,1.134 2.222,9.3246 7.559,18.2009 5.339,8.8763 14.795,25.4286 21.015,36.7825 15.754,28.7596 19.831,34.5735 22.335,31.8539 1.196,-1.2996 7.143,-14.9706 13.217,-30.3793 z m -121.629,-12.0172 c 13.481,-20.1851 25.642,-38.5327 27.025,-40.7721 2.118,-3.4243 -5.763,-3.844 -49.557,-2.6393 -28.64,0.7879 -52.771,2.1306 -53.625,2.9839 -1.433,1.4337 49.437,78.9927 50.965,77.7041 0.375,-0.3169 11.714,-17.0915 25.192,-37.2766 z m -95.776,-0.5165 -0.877,-18.4316 -44.236,-2.3377 c -24.331,-1.2854 -48.113,-2.6125 -52.851,-2.9489 l -8.616,-0.6116 0.742,19.0947 c 0.406,10.5019 1.376,20.1233 2.153,21.3806 0.777,1.2574 24.623,2.2861 52.989,2.2861 h 51.575 z m 355.38,-3.8834 28.908,-1.8511 -0.893,-12.2467 -0.892,-12.2468 -16.221,-0.6578 c -16.127,-0.6542 -70.764,-6.0167 -86.26,-8.4661 l -8.109,-1.2819 v 20.1942 c 0,11.1065 0.608,20.8028 1.351,21.5469 0.746,0.744 13.021,0.342 27.281,-0.8934 14.259,-1.2354 38.934,-3.0792 54.835,-4.0973 z m -355.344,-38.7353 c 0.555,-5.7259 2.875,-10.0477 5.899,-10.9818 23.417,-7.2361 149.336,-12.5693 216.602,-9.1738 41.796,2.1095 43.585,2.4587 45.183,8.8228 1.561,6.224 3.666,6.742 34.63,8.5263 18.132,1.0448 43.915,1.9056 57.297,1.9132 l 24.329,0.023 v -12.8288 -12.8289 l -64.142,-1.8572 c -35.278,-1.0215 -119.354,-3.4605 -186.831,-5.4196 -96.731,-2.8088 -135.394,-2.794 -182.726,0.071 -33.02,1.9978 -60.581,4.1774 -61.247,4.8441 -0.667,0.6664 -0.279,9.9275 0.86,20.5801 l 2.075,19.3682 53.579,-0.8029 53.579,-0.8032 z m -37.777,-42.5967 c 37.569,-3.3325 309.292,-1.6579 381.168,2.3492 26.421,1.4731 34.652,1.0741 34.652,-1.6789 0,-1.986 -6.303,-13.5683 -14.009,-25.7389 l -14.008,-22.1277 -35.114,1.6949 c -19.313,0.9324 -50.665,1.6952 -69.671,1.6952 h -34.558 l -1.745,8.72 c -3.103,15.5215 -12.518,15.9881 -72.725,17.8216 -26.207,0.7981 -48.641,11.3406 -57.652,-10.2272 -2.349,-5.6247 -4.273,-14.2848 -4.273,-19.2446 0,-8.8999 -0.111,-8.9625 -8.153,-4.8014 -6.167,3.1883 -24.193,4.4517 -73.918,5.1812 -36.173,0.5306 -66.682,1.6533 -67.801,2.4947 -3.446,2.589 -35.92,46.9282 -35.92,49.0422 0,1.0933 8.294,1.1108 18.432,0.04 10.138,-1.0721 35.021,-3.4206 55.295,-5.219 z m 536.749,-22.4256 c -7.933,-15.8144 -26.972,-49.9867 -42.307,-75.9385 -20.42,-47.0282 -34.576,-48.1586 -82.008,-55.0628 -69.656,-10.1388 -66.368,-10.046 -60.473,-1.7068 4.756,6.7312 29.987,47.8862 36.389,59.3539 1.924,3.4446 16.15,25.3882 31.615,48.7636 15.467,23.3752 28.599,43.945 29.185,45.7106 0.661,2.0006 16.527,3.8271 42.111,4.8481 22.575,0.9011 45.291,1.8964 50.477,2.2118 l 9.431,0.5735 z m -383.293,-17.4204 c 8.651,-1.7298 11.692,-8.0435 10.436,-21.6546 -0.622,-6.7236 -2.062,-7.4524 -16.353,-8.2788 -8.621,-0.4983 -16.782,0.2035 -18.138,1.5603 -1.356,1.3564 -1.635,9.4894 -0.617,18.0734 1.751,14.8022 2.223,15.5131 9.128,13.78 4.006,-1.0053 10.999,-2.5712 15.544,-3.4803 z m 67.725,-18.7056 v -14.7455 h -11.427 c -6.286,0 -15.662,0.8467 -20.835,1.8814 -8.68,1.7362 -9.35,2.7038 -8.678,12.5336 0.403,5.8587 1.23,11.6476 1.841,12.864 0.61,1.2166 9.656,2.2119 20.105,2.2119 h 18.994 z m 98.793,1.1456 c 29.196,-2.7669 53.508,-5.3551 54.028,-5.7515 0.518,-0.3963 -1.759,-6.0144 -5.059,-12.4843 l -6.003,-11.7637 -49.498,-1.9717 c -27.224,-1.0845 -54.032,-2.2232 -59.568,-2.5304 l -10.07,-0.5582 0.722,19.0945 c 0.395,10.502 1.299,20.036 2.012,21.1866 0.71,1.1505 5.58,1.5786 10.822,0.9508 5.242,-0.6277 33.418,-3.4051 62.614,-6.1721 z m -258.528,-1.1845 c 23.25,-1.6211 43.488,-2.1973 44.972,-1.2802 1.511,0.9332 2.699,-5.7031 2.699,-15.0706 0,-16.0201 -0.285,-16.6471 -6.636,-14.6178 -13.629,4.3547 -57.655,7.8591 -83.323,6.6326 l -26.555,-1.269 -10.309,13.4913 c -5.671,7.4202 -10.818,14.7138 -11.44,16.2083 -0.672,1.619 8.864,1.9363 23.594,0.785 13.598,-1.0627 43.745,-3.2586 66.998,-4.8796 z m 98.785,-26.647 c 0.65,-0.7316 1.867,-7.6888 2.703,-15.4605 l 1.517,-14.1303 -21.032,0.8596 -21.032,0.8593 0.794,13.2708 c 1.183,19.7515 1.182,19.7493 19.444,17.7391 9.033,-0.9943 16.957,-2.4063 17.606,-3.138 z m 60.46,-4.4475 c 0.542,-0.4505 1.712,-6.2372 2.601,-12.8591 l 1.614,-12.0398 h -25.831 -25.834 l 1.96,12.2523 c 1.077,6.7388 2.618,13.3199 3.426,14.6249 1.267,2.0523 39.372,0.26 42.064,-1.9783 z M 45266.98,3414.7 c 24.137,-2.4177 56.419,-2.4567 65.617,-0.08 7.969,2.0594 8.111,1.8622 8.111,-11.3765 -0.678,-19.4684 0.661,-13.6831 19.906,-19.8387 21.14,-6.7615 88.083,-12.2965 105.244,-8.7017 8.981,1.8813 9.026,1.9865 8.006,19.0755 l -1.026,17.1834 8.392,-2.1058 c 4.614,-1.158 28.906,-2.7147 53.981,-3.4593 25.075,-0.7445 45.963,-1.7274 46.422,-2.1841 0.455,-0.4567 -4.464,-11.629 -10.934,-24.827 -6.467,-13.1982 -11.759,-25.3785 -11.759,-27.0673 0,-1.689 -2.026,-3.0709 -4.504,-3.0709 -2.475,0 -16.007,-7.2989 -30.068,-16.2199 l -25.563,-16.2197 h -27.44 c -25.211,0 -27.44,0.4656 -27.44,5.7335 0,3.1537 -3.178,9.427 -7.059,13.9411 -14.155,16.4573 -43.075,7.939 -43.075,-12.6882 v -7.1056 l -28.753,1.9561 c -26.046,1.7718 -31.172,3.1624 -54.437,14.7738 -21.486,10.7218 -35.478,22.3577 -31.327,26.0494 0.538,0.4775 61.803,-0.5298 136.144,-2.2386 115.482,-2.6544 135.541,-2.5016 137.735,1.0486 1.727,2.7942 0.923,5.1356 -2.46,7.1471 -3.204,1.9076 -54.776,2.9914 -142.357,2.9914 h -137.334 l -19.704,24.4051 c -10.838,13.4228 -19.707,25.0949 -19.707,25.9379 0,0.8431 4.313,0.8651 9.586,0.049 8.871,-1.2044 17.736,-2.2929 25.803,-3.1086 z m 380.325,-79.4388 c -2.375,-2.2768 -19.391,-14.2205 -37.811,-26.5417 -28.231,-18.8823 -35.412,-22.4043 -45.711,-22.419 -6.719,0 -25.377,-2.001 -41.461,-4.4251 -16.084,-2.4242 -29.823,-3.8287 -30.531,-3.1209 -0.708,0.7076 8.471,6.1915 20.398,12.1864 23.119,11.6223 43.91,24.7971 55.065,34.8945 6.825,6.1777 38.868,12.0903 71.205,13.1387 11.379,0.3692 12.58,-0.1349 8.846,-3.7129 z m -240.85,-37.6263 c 7.092,-4.9816 9.664,-5.3203 18.431,-2.4265 5.605,1.8496 10.193,4.5872 10.193,6.0835 0,1.4962 8.957,2.6727 19.906,2.6143 l 19.906,-0.1061 -8.128,-6.6542 c -13.766,-11.2712 -41.045,-26.79 -46.384,-26.3879 -2.785,0.21 -12.539,5.6164 -21.671,12.0143 -9.132,6.398 -20.612,13.2918 -25.507,15.3196 -4.896,2.0278 -8.9,4.8644 -8.9,6.3038 0,4.6404 33.595,-0.7478 42.154,-6.7608 z m 457.153,455.7155 c -4.061,-10.5785 9.783,-30.0594 16.436,-23.1314 3.552,3.7001 -4.412,23.9312 -10.314,26.1958 -2.413,0.9258 -5.109,-0.4241 -6.122,-3.0644 z m 46.541,-2.2265 c -2.526,-3.0452 -1.051,-7.3245 6.326,-18.3412 8.915,-13.3146 19.943,-20.5779 19.943,-13.1358 0,1.7585 -2.819,9.1967 -6.265,16.5296 -7.172,15.2528 -14.935,21.0548 -20.004,14.9474 z m 66.398,1.6586 c -2.504,-4.0512 1.673,-15.5766 5.22,-14.4131 5.324,1.7448 5.979,16.8503 0.733,16.8503 -2.445,0 -5.124,-1.0969 -5.953,-2.4372 z m -157.593,-5.4948 c -1.567,-2.9364 -3.799,-12.9696 -4.963,-22.2959 -1.966,-15.7801 -1.696,-16.9572 3.888,-16.9572 4.578,0 7.158,3.4794 10.876,14.6764 2.681,8.0722 4.448,17.6799 3.923,21.3507 -1.187,8.3257 -9.909,10.3758 -13.724,3.226 z m 203.578,1.4441 c -7.625,-7.6259 -2.257,-40.6972 6.605,-40.6972 8.405,0 15.303,24.2254 10.499,36.8645 -2.992,7.8673 -11.224,9.7121 -17.104,3.8327 z m -73.254,-3.8468 c -2.304,-6.0053 2.061,-20.1376 6.31,-20.4286 4.992,-0.3418 5.145,17.6464 0.177,21.7622 -3.764,3.1232 -4.875,2.8954 -6.496,-1.3336 z m 30.64,-29.9562 c 2.028,-0.8182 5.346,-0.8182 7.372,0 2.028,0.8179 0.37,1.4874 -3.684,1.4874 -4.058,0 -5.716,-0.6695 -3.688,-1.4874 z m -93.417,-10.9583 c -17.029,-4.5466 -20.424,-11.8933 -4.212,-9.1193 20.793,3.5581 33.487,7.4805 33.487,10.3481 0,3.6919 -12.867,3.1518 -29.275,-1.2288 z m -53.708,-30.5875 c -17.36,-39.8885 -16.484,-49.7737 1.236,-13.9592 11.575,23.3906 12.87,27.9674 7.915,27.9674 -1.679,0 -5.797,-6.3036 -9.151,-14.0082 z m 103.324,1.7966 c 13.623,-6.4367 28.885,-12.4632 33.917,-13.3922 15.885,-2.9331 3.166,6.3678 -22.632,16.5518 -33.391,13.1802 -41.22,10.9876 -11.285,-3.1596 z m -60.328,-21.835 c -5.299,-4.219 -4.625,-4.423 9.136,-2.758 13.208,1.5981 16.819,0.6903 32.441,-8.1502 9.668,-5.4718 21.268,-12.3731 25.781,-15.3362 4.51,-2.9632 9.108,-4.4805 10.216,-3.3719 4.105,4.1035 -4.58,11.8597 -25.604,22.8642 -23.668,12.3884 -41.908,14.7583 -51.97,6.7521 z m -23.102,-17.8034 c -0.985,-2.5656 -1.67,-11.5234 -1.524,-19.9061 0.231,-13.2952 0.567,-14.1118 2.639,-6.3944 4.087,15.242 5.672,30.9653 3.122,30.9653 -1.346,0 -3.253,-2.099 -4.237,-4.6648 z m 48.343,-19.0451 c 0,-4.4745 11.203,-25.7082 14.704,-27.8726 4.523,-2.7961 3.691,0.26 -4.433,16.2919 -7.263,14.3376 -10.271,17.7273 -10.271,11.5807 z m 66.354,-16.0773 c -1.621,-0.5411 -6.755,-1.8281 -11.406,-2.8599 -12.869,-2.8543 -6.589,-5.7469 10.737,-4.9465 20.471,0.9456 27.901,3.1256 22.44,6.5839 -3.979,2.5205 -15.877,3.1886 -21.771,1.2225 z m -94.57,-10.672 c -1.026,-1.6591 -1.4,-3.3772 -0.832,-3.8182 7.538,-5.8536 37.543,-22.3982 40.622,-22.3982 8.681,0 -17.285,21.6243 -32.861,27.3654 -2.786,1.0272 -5.906,0.5101 -6.929,-1.149 z m -765.065,-120.277 c 6.436,-76.2011 9.918,-129.623 11.638,-187.3553 l -12.058,12.4235 c -6.631,6.8329 -13.234,12.4234 -14.669,12.4234 -3.559,0 -14.405,-11.0966 -14.405,-14.737 0,-1.6172 4.645,-8.0817 10.322,-14.3654 5.677,-6.2838 10.323,-12.2594 10.323,-13.2793 0,-1.0201 -4.977,-1.9866 -11.059,-2.1483 -17.803,-0.4733 -25.71,-3.709 -26.757,-10.9476 -0.743,-5.1399 1.33,-7.5282 9.491,-10.9379 5.742,-2.3991 15.79,-4.3621 22.331,-4.3621 6.54,0 11.89,-0.7078 11.89,-1.5727 0,-0.865 -3.317,-8.1196 -7.372,-16.1218 -8.663,-17.0967 -8.845,-18.7492 -2.739,-24.8565 8.64,-8.6408 15.092,-5.4407 26.332,13.0601 5.91,9.732 11.697,17.6944 12.853,17.6944 1.16,0 7.06,-6.6353 13.116,-14.7452 12.117,-16.2286 15.726,-17.4856 26.049,-9.0709 9.696,7.3263 7.028,5.5519 1.422,16.0626 -3.049,5.7134 -8.687,13.3441 -12.532,16.9575 -3.847,3.6132 -6.994,7.4659 -6.994,8.5616 0,1.0957 9.773,1.365 21.72,0.5981 11.946,-0.7665 22.441,-0.2278 23.321,1.197 0.881,1.4251 0.882,6.3448 0,10.933 -1.544,8.0697 -2.134,8.3223 -18.161,7.7409 -9.111,-0.3305 -17.579,-0.4424 -18.817,-0.2489 -1.242,0.1947 0.952,5.3286 4.871,11.4111 12.071,18.7262 12.32,23.402 1.597,29.9228 -5.175,3.1474 -11.105,5.0724 -13.175,4.2775 -2.072,-0.7947 -6.635,-8.1144 -10.144,-16.2659 -3.505,-8.1513 -7.02,-14.175 -7.81,-13.386 -0.789,0.7889 2.122,14.5551 2.49,24.3557 0.789,21.0418 7.98,103.2542 11.83,142.3911 1.912,19.4857 -14.644,8.7566 -12.674,-0.6412 0.631,-3.0092 -3.447,-4.7687 -7.422,-4.7687 -6.577,0 -7.226,1.1679 -7.226,13.0296 0,7.1662 -0.918,15.088 -1.789,17.6944 -2.281,8.6216 -14.936,19.5685 -15.793,-0.9236 z m 26.231,-41.4172 c 3.51,-2.2202 3.575,-3.4751 0.378,-7.3275 -5.6,-6.7455 -9.035,-5.7092 -9.035,2.7243 0,7.8699 1.9,8.8797 8.657,4.6032 z m 2.599,-31.6546 c -1.068,-9.0274 -7.43,-12.5774 -10.094,-5.6335 -2.52,6.5625 0.729,13.5162 6.314,13.5162 3.375,0 4.448,-2.2383 3.78,-7.8827 z m -2.409,-24.7312 c 0,-1.5262 -1.326,-2.775 -2.948,-2.775 -1.622,0 -2.948,2.069 -2.948,4.5978 0,2.5285 1.326,3.7772 2.948,2.7748 1.622,-1.0023 2.948,-3.0713 2.948,-4.5976 z" fill="#00B894" transform="translate(-8.448246,218.5684) matrix(0.26458333,0,0,0.26458333,-11861.902,-1055.2868)"/>
</svg>