<?xml version="1.0" ?><svg height="86.886192mm" viewBox="0 0 125.33949 86.886192" width="125.33949mm" xmlns="http://www.w3.org/2000/svg">
    <path color="#000" d="m 4148.8789,278.38682 c 0,0 71.0949,-43.37213 97.1614,-36.29152 48.4409,13.15834 203.6433,-58.17456 257.963,-124.63383 43.4276,-53.132999 45.5169,10.15713 40.1253,51.87072 -6.45,49.90359 -200.5711,273.17066 -395.2497,109.05463 z" fill="#FFFFFF" overflow="visible" paint-order="fill markers stroke" transform="translate(219.96104,-115.17559) matrix(0.26458333,0,0,0.26458333,-1300.1463,91.877803)"/>
    <path d="m 4249.1954,415.51566 c -7.3512,-1.4437 -11.0657,-4.6693 -10.543,-9.1553 0.348,-2.9871 1.0073,-3.3948 5.3964,-3.3362 30.7038,0.4094 35.3152,0.7175 37.7452,2.5219 8.5568,6.3541 -14.7362,13.4778 -32.5986,9.9696 z m 2.5201,-30.7522 c -3.3,-0.4976 -12.9,-1.3051 -21.3334,-1.7944 -8.4333,-0.4893 -17.1333,-1.1188 -19.3333,-1.3988 -7.6558,-0.9745 -22.471,-4.6772 -24.0898,-6.0207 -0.8962,-0.7438 -2.1427,-1.2329 -2.7698,-1.0868 -2.0715,0.4822 -8.4737,-1.7716 -8.4737,-2.9832 0,-0.6538 -0.807,-1.1888 -1.7934,-1.1888 -5.0201,0 -8.4218,-9.2822 -4.9657,-13.5503 2.3994,-2.9631 5.4257,-2.4454 5.4257,0.9281 0,2.494 6.3076,5.6586 13.5267,6.7865 3.1937,0.499 6.1216,1.3831 6.5066,1.9646 0.9865,1.4904 13.7645,3.3457 44.8503,6.5123 21.72,2.2125 32.7322,2.6159 57.3334,2.1001 16.7473,-0.3511 33.8997,-0.9672 38.1164,-1.3691 6.0951,-0.581 7.6666,-0.3405 7.6666,1.1731 0,2.7442 -8.2724,7.4547 -13.0917,7.4547 -2.2607,0 -6.9899,0.6056 -10.5093,1.3457 -7.5309,1.5838 -58.3715,2.4381 -67.0656,1.127 z m 22.0978,-39.6477 c -1.5125,-2.4474 -9.38,-5.8365 -16.0978,-6.9347 -11.3459,-1.8548 -14.6205,-2.6707 -15.9334,-3.97 -0.6966,-0.6895 -2.8266,-1.2536 -4.7333,-1.2536 -1.9067,0 -4.1588,-0.6921 -5.0047,-1.538 -0.8459,-0.8459 -3.3659,-1.486 -5.6,-1.4225 -2.2341,0.063 -4.062,-0.3664 -4.062,-0.9554 0,-0.589 -2.85,-1.842 -6.3333,-2.7844 -3.4833,-0.9424 -6.9333,-2.1408 -7.6667,-2.663 -0.7333,-0.5222 -5.2333,-2.2802 -10,-3.9066 -4.7666,-1.6263 -9.2666,-3.442 -10,-4.0348 -0.7333,-0.5928 -4.781,-2.9331 -8.9948,-5.2008 -4.2138,-2.2677 -11.4138,-6.8587 -16,-10.2023 -5.0552,-3.6855 -9.2861,-5.8346 -10.745,-5.458 -1.5865,0.4095 -2.7944,-0.3651 -3.5449,-2.2732 -1.2388,-3.1495 -4.739,-6.4241 -9.6098,-8.9906 -1.708,-0.8999 -3.4055,-1.9999 -3.7721,-2.4443 -2.3079,-2.797 -10.9066,-8.1352 -12.0079,-7.4546 -0.729,0.4506 -1.3255,0.2707 -1.3255,-0.3996 0,-1.2242 -14.4264,-11.8752 -16.3734,-12.0885 -1.283,-0.1405 -11.1121,-11.3974 -12.9493,-14.8302 -0.7376,-1.3783 -2.4427,-2.8556 -3.7891,-3.2829 -2.4724,-0.7847 -5.0641,-8.1684 -6.4831,-18.4702 -0.5065,-3.6776 -0.062,-5.7688 1.6203,-7.6281 2.2779,-2.5171 2.3613,-2.5068 4.8013,0.5952 1.3657,1.7363 3.6051,5.7689 4.9764,8.9615 2.9321,6.8261 11.5546,15.8497 18.565,19.4283 5.5819,2.8495 15.5785,8.7937 22.7759,13.543 2.6395,1.7417 6.2378,3.1667 7.9964,3.1667 1.7585,0 4.6915,0.7752 6.5177,1.7226 2.7232,1.4128 4.3827,1.403 9.2265,-0.055 3.2483,-0.9776 6.6281,-2.3208 7.5107,-2.9849 0.8826,-0.6641 6.4047,-3.1693 12.2714,-5.567 5.8667,-2.3978 12.637,-5.2048 15.0452,-6.2378 2.4083,-1.0329 5.5178,-1.8781 6.9102,-1.8781 2.8242,0 4.6509,4.0914 3.4229,7.6667 -0.7002,2.0386 -22.858,13.6101 -32.127,16.7777 -4.5935,1.5698 -4.0425,3.1067 1.7487,4.8784 2.75,0.8413 6.2,2.0739 7.6667,2.7391 4.2781,1.9403 22.9231,6.5892 29.0466,7.2424 3.091,0.3297 7.1858,0.9749 9.0994,1.4339 2.9894,0.7169 4.2098,-0.074 8.6667,-5.6186 2.853,-3.5491 5.5456,-6.7529 5.9836,-7.1196 0.6783,-0.5679 16.6679,-20.31 20.1346,-24.86 0.8575,-1.1255 -2.727,-1.5162 -13.6372,-1.4867 -9.3144,0.025 -15.3613,-0.5209 -16.3137,-1.4733 -0.8324,-0.8323 -2.5579,-1.5133 -3.8347,-1.5133 -3.7271,0 -4.4897,-2.8934 -1.4181,-5.3806 2.0687,-1.6751 5.5054,-2.3133 12.9234,-2.3996 5.558,-0.065 10.6999,-0.4851 11.4265,-0.9341 0.7266,-0.4491 5.3564,-1.0621 10.2886,-1.3623 4.9322,-0.3001 11.6676,-1.1051 14.9676,-1.7888 3.3,-0.6836 10.8,-2.225 16.6667,-3.4251 5.8666,-1.2002 12.7666,-2.7192 15.3333,-3.3756 2.5667,-0.6564 8.8667,-2.1862 14,-3.3994 5.1333,-1.2133 10.5333,-2.7474 12,-3.4092 1.4667,-0.6617 7.535,-2.6445 13.4852,-4.4062 5.9501,-1.7618 11.9501,-3.8319 13.3333,-4.6004 2.368,-1.3156 15.0691,-7.0605 16.5148,-7.4699 4.2421,-1.2011 14.9907,-6.8635 16.7783,-8.8388 1.2659,-1.3989 2.8159,-2.5434 3.4444,-2.5434 0.6284,0 5.3024,-2.766 10.3865,-6.1467 5.9062,-3.9274 9.3907,-7.177 9.6507,-9 0.3,-2.1039 1.2823,-2.8086 3.7401,-2.6832 1.9385,0.099 6.6812,-2.13288 11.3334,-5.33328 4.4,-3.0269 10.1364,-6.5868 12.7477,-7.9109 2.6112,-1.3241 6.4908,-3.9052 8.6212,-5.7359 2.1305,-1.8306 5.7421,-4.4832 8.026,-5.8947 3.3245,-2.0547 4.057,-3.3036 3.6739,-6.2642 -0.2632,-2.0338 0.1272,-4.5978 0.8676,-5.6978 1.1834,-1.7583 1.8579,-1.7109 5.5812,0.3917 l 4.2351,2.3916 4.457,-4.3198 c 3.8638,-3.745 4.4569,-5.1925 4.4569,-10.8764 v -6.5566 l 5.8364,0.8753 c 5.6816,0.852 5.9822,0.7096 11.3334,-5.3697 3.0233,-3.4347 5.4969,-6.6807 5.4969,-7.2133 0,-0.5326 2.55,-2.6232 5.6667,-4.6458 3.1166,-2.0225 7.1666,-5.006599 9,-6.631199 1.8333,-1.6246 5.4333,-3.7101 8,-4.6344 2.5666,-0.9243 5.9681,-2.2954 7.5588,-3.0469 2.2837,-1.0789 3.7295,-0.7701 6.8725,1.4679 2.1892,1.5589 4.7377,2.8343 5.6634,2.8343 0.9257,0 1.3321,0.351 0.903,0.78 -1.5763,1.5763 1.9415,8.553299 4.3127,8.553299 1.3106,0 3.4907,1.65 4.8448,3.6667 2.1324,3.176 2.4593,6.4323 2.4428,24.3333 -0.018,19.3066 -0.2689,21.3686 -3.8165,31.3333 -2.0886,5.8667 -4.9189,12.2593 -6.2895,14.20588 -1.3706,1.9465 -2.492,3.9886 -2.492,4.538 0,0.5494 -1.4638,4.093 -3.2528,7.8747 -3.0007,6.3429 -7.1296,16.8819 -7.8543,20.0481 -0.1679,0.7334 -2.2374,5.4507 -4.5991,10.4831 -2.3616,5.0323 -4.2938,9.4377 -4.2938,9.7897 0,0.352 -1.1177,2.0609 -2.4838,3.7976 -2.1424,2.7236 -2.8117,2.918 -4.8687,1.4138 -1.6598,-1.2136 -1.9181,-2.0323 -0.8495,-2.6927 1.8582,-1.1484 2.0637,-7.4581 0.243,-7.4581 -0.7108,0 -3.3305,3.15 -5.8216,7 -5.9867,9.2526 -9.0894,12.963 -20.2536,24.2207 -8.0382,8.1055 -35.3182,30.1126 -37.3276,30.1126 -0.3736,0 -3.82,1.9996 -7.6587,4.4435 -13.3645,8.5086 -20.349,12.3091 -25.9986,14.1466 -3.1272,1.0171 -6.3506,2.6504 -7.1633,3.6296 -0.8126,0.9792 -1.9307,1.7803 -2.4847,1.7803 -0.554,0 -3.3305,1.0135 -6.1701,2.2523 -2.8395,1.2388 -5.4628,2.3391 -5.8295,2.4451 -0.3667,0.106 -2.4667,0.9093 -4.6667,1.7852 -2.2,0.8759 -7.3,2.8737 -11.3333,4.4396 -4.0333,1.5659 -7.9333,3.282 -8.6667,3.8135 -1.2046,0.8732 -8.7809,3.2263 -28,8.6964 -14.3171,4.0749 -36.873,6.8424 -58.2406,7.1459 -5.4153,0.077 -6.2969,0.4836 -6.6666,3.075 -0.4445,3.1156 -4.2451,4.7973 -5.6616,2.5053 z m 24.011,-16.3344 c 0.3998,-0.6468 -0.3612,-1.5726 -1.691,-2.0573 -1.3298,-0.4847 -5.2011,-3.1804 -8.6029,-5.9906 -3.4017,-2.8101 -6.8517,-5.1093 -7.6666,-5.1093 -0.8149,0 -1.4817,-0.6792 -1.4817,-1.5093 0,-0.83 -2.1427,-3.53 -4.7616,-6 -4.2015,-3.9626 -5.6129,-4.4907 -12,-4.4907 -3.9811,0 -7.2384,0.251 -7.2384,0.5579 0,0.3068 2.25,1.9206 5,3.5862 2.75,1.6656 7.0867,4.7145 9.6372,6.7754 2.5504,2.0609 5.3269,3.7471 6.17,3.7471 0.8432,0 2.2799,0.9 3.1928,2 0.913,1.1 2.5252,2 3.5827,2 1.0576,0 3.3743,1.725 5.1484,3.8334 3.1521,3.7461 9.1227,5.2273 10.7111,2.6572 z m -27.4422,-1.1572 c 0,-0.7334 -1.2,-1.3334 -2.6666,-1.3334 -1.4667,0 -2.6667,0.6 -2.6667,1.3334 0,0.7333 1.2,1.3333 2.6667,1.3333 1.4666,0 2.6666,-0.6 2.6666,-1.3333 z m 55.8463,-1.5539 c 4.8512,-0.8546 9.7676,-2.3546 10.9254,-3.3333 1.1577,-0.9787 3.9393,-1.7795 6.1813,-1.7795 4.0685,0 28.1758,-7.3115 36.5997,-11.1003 2.4461,-1.1002 8.3473,-3.6611 13.114,-5.6909 4.7667,-2.0299 9.4167,-4.2557 10.3333,-4.9463 1.9214,-1.4476 2.2171,-3.5958 0.4949,-3.5958 -1.9765,0 -16.4849,-9.1442 -20.2853,-12.7853 -3.3754,-3.2338 -3.8068,-3.3196 -7.397,-1.4715 -2.0969,1.0794 -5.9126,2.5921 -8.4792,3.3615 -2.5667,0.7694 -7.3667,2.4151 -10.6667,3.6571 -3.3,1.2421 -8.1,2.746 -10.6667,3.342 -2.5666,0.5961 -8.2666,2.0308 -12.6666,3.1884 -4.4,1.1576 -10.1,2.4015 -12.6667,2.7644 -2.5667,0.3628 -8.9914,1.5485 -14.2771,2.6349 -5.2858,1.0863 -11.6358,1.9751 -14.1111,1.9751 -5.5243,0 -6.6722,0.9968 -4.5647,3.9636 2.0679,2.9111 16.5469,14.7031 18.0534,14.7031 0.626,0 1.8216,1.5 2.6569,3.3333 1.7585,3.8595 4.1999,4.1088 17.4222,1.7795 z m -63.9785,-3.8612 c -2.5841,-1.5971 -3.2151,-0.345 -1.1065,2.1957 1.286,1.5495 1.9652,1.7068 2.3525,0.5447 0.2995,-0.8986 -0.2612,-2.1317 -1.246,-2.7404 z m -23.7013,-5.3992 c -3.006,-2.8885 -6.3833,-7.0267 -7.5052,-9.1962 -2.3228,-4.4918 -8.7754,-8.336 -14.6613,-8.7345 -2.2,-0.149 -6.096,-0.9423 -8.6578,-1.763 -7.5037,-2.4036 -8.3752,-2.068 -6.0924,2.3464 1.0917,2.1111 2.8905,4.1859 3.9974,4.6107 1.1069,0.4247 3.079,3.0138 4.3827,5.7536 1.8098,3.8036 3.4735,5.2518 7.0368,6.1254 2.5667,0.6293 6.5574,2.0129 8.8682,3.0747 2.3108,1.0618 5.3922,1.9305 6.8476,1.9305 1.4553,0 4.3646,0.8926 6.4651,1.9835 5.9213,3.0752 5.5653,-0.129 -0.6811,-6.1311 z m -46.934,-14.1256 c -1.7779,-1.9835 -3.9864,-4.4303 -4.9079,-5.4373 -0.9214,-1.0069 -2.2657,-2.9339 -2.9873,-4.2821 -0.7215,-1.3482 -4.4676,-3.4888 -8.3246,-4.7569 -3.857,-1.2681 -7.6861,-2.553 -8.5092,-2.8554 -0.9461,-0.3476 -1.2661,0.656 -0.8699,2.7282 0.8856,4.6328 20.2576,18.0219 26.2655,18.1537 2.3609,0.052 2.3076,-0.2317 -0.6666,-3.5502 z m 90.1365,-11.4812 c 1.2187,-3.63 16.1418,-35.5029 17.2827,-36.9123 2.6319,-3.2516 7.8706,-13.2574 7.2521,-13.8516 -0.3137,-0.3014 -4.0448,0.056 -8.2913,0.7936 -7.2751,1.2643 -8.1024,1.8132 -14.3264,9.5053 -3.6329,4.4899 -7.5353,9.9761 -8.6718,12.1914 -1.1365,2.2154 -3.2331,5.828 -4.659,8.028 -1.4259,2.2 -3.0054,4.9 -3.51,6 -0.5046,1.1 -1.2767,2.3 -1.7158,2.6667 -0.4391,0.3666 -2.759,3.1859 -5.1552,6.265 l -4.3569,5.5984 7.7247,0.4242 c 6.878,0.3778 18.2085,-0.058 18.4269,-0.7087 z m 140.3523,-1.284 c 0.9467,-0.7583 4.5467,-2.8009 8,-4.5391 8.2972,-4.1763 11.7721,-6.2398 14.6029,-8.6715 1.2884,-1.1068 3.2425,-2.3348 4.3425,-2.7289 4.2357,-1.5175 24.5775,-17.6463 33.7777,-26.782 13.0235,-12.932 24.889,-25.7773 24.889,-26.944 0,-0.5258 -0.75,-0.3619 -1.6667,0.3642 -3.0971,2.4533 -15.3081,5.7807 -20.0435,5.4618 -3.7872,-0.255 -5.9203,0.7093 -10.9436,4.9472 -6.7912,5.7295 -8.2144,6.7341 -20.4359,14.4254 -8.5331,5.3701 -9.3851,7.5053 -2.9949,7.5053 2.0669,0 4.4811,0.8712 5.3648,1.936 1.9341,2.3305 0.7424,6.8475 -2.0937,7.9358 -2.9904,1.1475 -13.2075,-1.7387 -16.2765,-4.5979 -2.5818,-2.4053 -2.8135,-2.3799 -9.4377,1.0333 -6.4498,3.3234 -6.6796,3.6221 -4.5746,5.9481 1.2777,1.4118 3.2035,2.1358 4.5471,1.7093 3.0219,-0.9591 4.359,1.3125 3.2869,5.5842 -0.6951,2.7694 -1.3959,3.2283 -3.7922,2.4833 -1.6167,-0.5028 -4.4395,-1.2421 -6.2729,-1.6431 -1.8333,-0.4009 -4.6811,-1.9551 -6.3285,-3.4536 -2.4584,-2.2363 -3.5336,-2.4614 -6,-1.2562 -1.6526,0.8076 -5.4048,2.1955 -8.3381,3.0843 -2.9334,0.8888 -6.3578,2.3191 -7.6098,3.1786 -2.1062,1.4457 -2.0564,1.7558 0.6645,4.1436 1.6175,1.4195 6.8419,5.1227 11.6098,8.2292 8.603,5.6053 11.4346,6.082 15.7234,2.6467 z m -179.3037,0.4664 c 2.0953,-0.7966 7.856,-8.1847 16.1426,-20.7029 15.066,-22.7595 15.3791,-23.3918 11.5825,-23.3918 -1.5459,0 -2.8093,0.8567 -2.8093,1.9048 0,1.0476 -0.7706,2.6976 -1.7125,3.6667 -0.9418,0.969 -4.8436,5.9619 -8.6706,11.0952 -6.6268,8.8887 -9.5737,12.6031 -17.9816,22.6648 -2.6035,3.1155 -3.1955,4.6275 -2,5.1084 0.9339,0.3756 1.809,0.7303 1.9445,0.7882 0.1356,0.058 1.7126,-0.4521 3.5044,-1.1334 z m 66.9158,-1.9096 c 5.91,-1.382 6.6666,-1.9559 6.6666,-5.0574 0,-1.9242 0.9588,-4.6151 2.1307,-5.9798 1.1719,-1.3646 2.5454,-3.3812 3.0523,-4.4812 4.1014,-8.9004 12.8779,-19.8458 16.0028,-19.9576 2.1459,-0.077 -0.3469,13.6001 -3.007,16.4975 -1.4105,1.5364 -3.8065,5.1449 -5.3244,8.0189 -1.5179,2.874 -3.5311,5.7689 -4.4738,6.4331 -2.9487,2.0777 8.5468,-0.3823 14.5463,-3.1128 3.0764,-1.4002 6.2346,-2.5458 7.0181,-2.5458 0.7835,0 2.4664,-0.5084 3.7398,-1.1299 1.2734,-0.6215 9.8152,-3.6919 18.9819,-6.8232 36.5905,-12.4991 36,-12.2268 36,-16.5976 0,-1.718 0.9854,-5.4469 2.1897,-8.2864 4.9727,-11.7245 8.09,-45.5966 4.4058,-47.8735 -0.7725,-0.4774 -7.8225,2.9844 -15.6666,7.6929 -7.8442,4.7086 -18.4622,10.2221 -23.5956,12.2523 -5.1333,2.0303 -10.5333,4.1773 -12,4.7711 -10.9191,4.4209 -27.6361,10.0236 -33.7567,11.3135 -2.4329,0.5128 -4.7891,1.9257 -5.2359,3.1399 -0.4469,1.2142 -2.3178,4.6076 -4.1576,7.5409 -1.8398,2.9334 -6.0056,10.4334 -9.2575,16.6667 -3.2518,6.2333 -6.3622,11.9333 -6.9119,12.6667 -0.5497,0.7333 -1.7084,3.5353 -2.5748,6.2266 -0.8664,2.6914 -2.4446,5.6148 -3.5071,6.4966 -1.0625,0.8818 -1.9318,2.1298 -1.9318,2.7734 0,1.5873 8.5325,1.2572 16.6667,-0.6449 z m 122.4869,-46.1956 c 1.3182,-1.2532 1.9813,-40.4032 0.8991,-53.0889 l -0.7194,-8.4327 -4.4679,3.0994 -4.468,3.0994 -0.2579,22 c -0.2225,18.9846 -0.6609,23.0902 -3.1987,29.9538 -4.6329,12.5302 -4.2235,13.3929 4.0592,8.5547 3.85,-2.249 7.5191,-4.5825 8.1536,-5.1857 z m 30.7906,-22.588 c 0.4155,-2.6041 0.2348,-7.903 -0.4016,-11.7752 -0.7196,-4.3786 -0.6724,-7.34 0.1249,-7.8328 1.1569,-0.715 1.0355,-4.5449 -0.9145,-28.84178 -0.2229,-2.7766 -0.686,-5.3292 -1.0293,-5.6725 -0.6238,-0.6238 -9.1307,3.1575 -10.3903,4.6185 -0.3667,0.4253 -2.3516,1.6423 -4.4109,2.7046 -3.1354,1.61728 -3.5898,2.48418 -2.7947,5.33118 0.5223,1.8699 1.0939,15.6999 1.2703,30.7332 0.1764,15.0333 0.3839,27.4688 0.4613,27.6343 0.077,0.1655 4.0081,-2.5038 8.7349,-5.9318 7.1455,-5.1822 8.7217,-7.031 9.3499,-10.9677 z m 37.7591,-7.4771 c 1.6299,-1.1416 2.9634,-1.763 2.9634,-1.3809 0,0.3821 4.8858,-1.8339 10.8573,-4.9244 10.2878,-5.3243 14.7439,-9.1289 12.8779,-10.995 -0.7602,-0.7602 -7.4618,2.8004 -9.0686,4.8182 -0.3666,0.4605 -3.9666,1.5988 -8,2.5295 -7.1707,1.6548 -12.3134,5.0154 -14.836,9.6949 -1.6211,3.0072 1.089,3.1414 5.206,0.2577 z m -16.4683,-7.591 c 4.4541,-4.5834 8.9424,-9.4082 9.974,-10.7218 4.1103,-5.234 13.2108,-70.27828 9.8328,-70.27828 -1.5273,0 -16.3621,15.2855 -16.4028,16.901 -0.093,3.6978 -5.3355,32.3768 -6.4519,35.29528 -0.7426,1.9413 -1.0072,3.8725 -0.588,4.2917 0.4192,0.4192 -0.3118,2.4013 -1.6245,4.4046 -1.3126,2.0033 -2.3104,5.6684 -2.2173,8.1446 0.093,2.4762 -0.7507,5.9062 -1.8751,7.6222 -1.4174,2.1632 -1.7695,4.5853 -1.1482,7.8971 0.4929,2.6273 1.2351,4.7769 1.6494,4.7769 0.4143,0 4.3976,-3.75 8.8516,-8.3333 z m 38.135,-19.2561 c 1.8132,-1.2408 3.5967,-2.5908 3.9633,-3 0.3667,-0.4092 2.4589,-1.7514 4.6494,-2.9827 3.2226,-1.8116 4.9195,-4.7312 8.8926,-15.30098 5.453,-14.5067 5.3914,-18.8706 -0.126,-8.9302 -6.4738,11.6632 -16.1294,24.46998 -18.4492,24.46998 -1.0331,0 -4.3001,5.6191 -4.3001,7.396 0,1.2128 2.1505,0.5512 5.37,-1.6521 z m -6.9639,-18.36388 c 1.6901,-1.7823 3.8239,-2.9523 4.7419,-2.6 1.6791,0.6443 4.2417,-3.7737 10.6011,-18.2769 5.3586,-12.2207 6.774,-29.9638 3.1967,-40.0723 -1.7246,-4.8731 -1.7586,-4.891 -5.6737,-2.9745 -2.1663,1.0604 -6.2735,3.9007 -9.127,6.3119 -5.0936,4.304 -5.1588,4.4734 -3.5719,9.2818 0.889,2.6938 1.2998,5.41 0.9129,6.0361 -0.3869,0.6261 -0.9993,4.0878 -1.3609,7.6928 -1.3407,13.3687 -3.3535,29.351 -4.2259,33.5544 -1.0683,5.1478 0.3137,5.4688 4.5068,1.0467 z m -41.0728,-10.3134 c 0,-2.1539 -0.3942,-2.5391 -1.4838,-1.4495 -0.8161,0.8161 -1.0807,2.1361 -0.588,2.9333 1.3792,2.2316 2.0718,1.7355 2.0718,-1.4838 z m 14.1643,184.88068 c -1.2617,-3.2881 2.1067,-7.2421 7.3837,-8.6676 7.2555,-1.9599 18.2721,-7.4692 25.6252,-12.8148 5.8439,-4.2484 6.8284,-4.5579 9.6667,-3.0389 7.2784,3.8953 1.8589,13.8096 -10.7875,19.7342 -14.5675,6.8247 -30.2053,9.1722 -31.8881,4.7871 z m -33.2996,-25.5272 c -2.7627,-2.7626 -0.3479,-5.9277 7.4687,-9.7897 8.8079,-4.3517 9.625,-4.766 17,-8.6192 2.5666,-1.341 8.8,-4.5921 13.8519,-7.2247 5.0519,-2.6326 11.6519,-6.8985 14.6667,-9.4798 3.0148,-2.5813 7.9371,-6.3476 10.9385,-8.3695 6.0977,-4.1076 18.866,-17.4131 25.6895,-26.7701 2.4639,-3.3788 5.0139,-5.8133 5.6666,-5.4099 0.6527,0.4034 1.138,2.9481 1.0783,5.6548 -0.2227,10.1009 -16.6569,32.7794 -30.3819,41.9257 -4.1303,2.7524 -8.117,5.7524 -8.8593,6.6667 -2.3224,2.8603 -26.0441,14.0438 -35.9837,16.9644 -2.9333,0.8619 -6.2333,1.929 -7.3333,2.3715 -1.1,0.4424 -2.9669,0.9109 -4.1486,1.0411 -1.1817,0.1302 -3.6426,0.6117 -5.4687,1.07 -1.8261,0.4584 -3.7092,0.4443 -4.1847,-0.031 z" fill="#00B894" transform="translate(219.96104,-115.17559) matrix(0.26458333,0,0,0.26458333,-1300.1463,91.877803)"/>
</svg>