<?xml version="1.0" ?><svg height="127.20618mm" viewBox="0 0 92.543144 127.20618" width="92.543144mm" xmlns="http://www.w3.org/2000/svg">
    <path d="m 993.53516,771.42969 c -27.1485,0.0523 -51.37948,16.71311 -58.17774,26.32226 -7.25148,10.24977 -24.48309,38.58025 -15.52539,74.97266 8.9577,36.39241 29.81624,47.10268 41.50391,51.17187 11.68768,4.0692 15.22677,1.88218 20.04687,-0.26757 4.09494,-4.49146 3.71171,-7.29538 -4.43554,-11.32618 -8.14725,-4.03079 -23.16249,-18.00379 -27.47071,-25.45117 -4.30821,-7.44737 -18.51219,-26.56514 -6.86718,-55.08789 11.64502,-28.52276 38.64713,-37.19802 46.45312,-38.46484 7.80599,-1.26683 47.1339,-3.34014 62.1914,21.34375 15.0574,24.68389 10.4073,48.94658 6.0137,63.15039 -4.3935,14.2038 -23.6299,25.52719 -29.0899,29.63476 -5.4599,4.10757 -4.9495,10.48056 1.6621,12.82227 6.6116,2.34171 23.0766,-5.33609 40.6934,-26.37305 17.6168,-21.03695 16.0384,-51.24922 3.9668,-81.6914 -12.0715,-30.44218 -46.1955,-38.11863 -75.5,-40.53711 -1.83153,-0.15116 -3.65494,-0.22224 -5.46484,-0.21875 z m 10.88674,42.16211 c -2.5098,-0.0134 -5.37669,0.10453 -8.65823,0.35937 -41.42145,5.92914 -52.86564,17.86312 -41.64453,56.52344 10.2653,37.3935 33.95313,41.38476 33.95313,41.38477 l -0.43165,32.66601 c 0,0 -12.26826,2.09853 -22.28906,4.07813 -10.0209,1.9797 -5.32958,19.45787 0.69922,20.48437 6.0288,1.0264 21.75195,-0.80664 21.75195,-0.80664 0,0 -0.08,5.57318 0.49024,14.73828 0.5703,9.16514 7.41336,16.42319 11.56836,17.00977 4.15487,0.5865 9.12447,-2.63979 10.18357,-7.99219 1.0591,-5.35244 1.1406,-26.46875 1.1406,-26.46875 0,0 11.161,0.3662 18.086,-1.4668 6.9249,-1.8331 12.7053,-7.80072 13.0312,-12.41992 0.3259,-4.6192 -2.9286,-13.09478 -10.9941,-13.02148 -8.0656,0.073 -18.4941,0.0742 -18.4941,0.0742 l -2.7696,-25.58985 c 0.08,0.002 22.3163,-11.31737 37.3926,-35.38476 16.4238,-26.21856 -11.9957,-41.50678 -22.6699,-45.47266 -2.6837,-12.01264 -2.7771,-18.60131 -20.3457,-18.69531 z" fill="#FFFFFF" transform="translate(63.658431,93.841182) matrix(0.55629156,0,0,0.55629156,-573.95056,-522.98094)"/>
    <path d="m 993.48425,992.68724 c -1.1192,-2.07618 -1.7404,-7.81962 -1.7711,-16.373 -0.027,-7.24625 -0.4239,-13.198 -0.884,-13.22609 -0.46,-0.0281 -5.1913,0.30725 -10.5137,0.74519 -11.634,0.95725 -16.26465,-0.61223 -16.00788,-5.42558 0.0915,-1.71365 0.87808,-3.6325 1.74808,-4.26413 1.526,-1.10788 15.2804,-4.87194 22.2203,-6.08087 3.2909,-0.57327 3.3853,-0.8099 3.722,-9.32537 0.1897,-4.80544 0.2521,-13.66648 0.1382,-19.69122 l -0.2073,-10.95407 -6.1501,-2.65769 c -8.0612,-3.48343 -12.6373,-7.68843 -16.6502,-15.2998 -3.7319,-7.07788 -3.8748,-9.15651 -0.9886,-14.37466 2.3743,-4.29279 4.4598,-4.57105 7.1829,-0.95842 3.1929,4.23605 14.1592,7.96546 22.5409,7.66568 9.57415,-0.34243 23.18785,-6.51023 30.83035,-13.96788 l 5.7579,-5.6188 -6.0167,-6.63211 c -6.1338,-6.76105 -7.4383,-11.32194 -4.1389,-14.47016 2.4975,-2.38302 6.0729,-1.42671 13.5524,3.6248 14.0411,9.48312 14.7872,19.56104 4.5922,31.9614 -10.861,13.21038 -17.4573,25.35542 -30.9659,30.42402 -4.8136,1.63688 -5.6714,2.44505 -5.8342,5.49633 -0.2764,5.18128 0.8604,30.26221 1.422,31.37068 0.2617,0.51666 4.4809,0.37295 9.3761,-0.31927 16.4953,-2.33268 22.8401,-0.33839 22.4456,7.05504 -0.2568,4.81526 -5.5525,7.25781 -19.3617,8.93039 l -13.0142,1.57627 0.037,15.14356 c 0.032,13.24889 -0.234,15.40193 -2.1274,17.20869 -3.2283,3.08037 -8.86545,2.27459 -10.93395,-1.56293 z m -24.8314,-69.88389 c -37.75065,-11.48879 -52.18332,-42.15047 -47.65422,-78.19001 6.39106,-50.8556 42.81982,-71.59109 82.27747,-69.40963 34.9271,2.1067 61.0565,19.35792 72.1785,47.65385 3.2473,8.26147 5.5215,22.64646 5.0541,31.96795 -0.7802,15.56408 -10.8602,38.89993 -21.0803,48.80425 -8.4267,8.16636 -20.6579,14.40988 -26.6276,13.59243 -4.2126,-0.57682 -4.8544,-1.1004 -5.018,-4.09298 -0.1626,-2.9745 1.1674,-4.3286 9.9861,-10.16679 19.4529,-14.24182 29.2644,-34.15389 27.3235,-56.73068 -1.6708,-17.984 -9.8629,-36.32642 -23.8075,-45.5835 -13.0438,-8.65918 -33.5988,-11.70217 -49.87325,-9.99434 -27.94698,2.93271 -46.46198,22.9955 -53.46878,47.49506 -7.90252,27.63151 8.45541,57.3847 24.0843,67.88044 15.60908,10.10163 21.59078,8.84055 18.26688,13.78536 -1.3,1.93387 -7.118,4.36514 -11.6412,2.98859 z m -9.24801,-52.89325 c -2.48106,-3.19593 -5.23611,-17.94561 -4.80919,-25.74716 0.4322,-7.89524 2.93694,-14.26719 5.93035,-15.08588 4.20284,-1.14951 6.37085,3.43661 6.63485,14.03557 0.3911,15.70756 2.031,15.02639 3.8097,-1.58255 1.7338,-16.18878 3.0263,-19.99799 6.7096,-19.77314 4.233,0.25839 5.1174,5.14979 4.1961,23.20746 -0.7688,15.07752 -1.1578,17.34778 -3.3695,19.68675 -1.8869,1.99543 -3.3255,2.39647 -5.8654,1.63518 -2.8323,-0.84898 -3.3876,-0.58889 -3.5066,1.64265 -0.133,2.49277 -3.4477,5.14348 -6.22032,4.97423 -0.68469,-0.0418 -2.26401,-1.3887 -3.50959,-2.99311 z m 27.87321,-3.21928 c -2.6513,-2.58499 -2.6988,-3.21445 -1.6486,-21.89557 1.1797,-20.98213 2.4819,-25.47196 7.0996,-24.47571 1.4373,0.31007 3.1894,2.06858 3.8933,3.90779 1.8606,4.86119 3.0101,18.90222 2.4395,29.79723 -0.435,8.3244 -0.8741,9.82359 -3.6416,12.46431 -3.7892,3.61554 -4.62,3.63616 -8.1422,0.20195 z m 20.44505,-2.2054 c -1.4708,-1.76364 -1.6117,-5.62132 -0.7769,-21.26837 1.114,-20.88077 2.1308,-24.04733 7.3621,-22.92605 4.2657,0.91433 5.6469,5.91785 6.3241,22.91025 0.531,13.32113 0.345,15.46177 -1.6875,19.42281 -1.8503,3.60604 -2.9625,4.41026 -5.8548,4.23371 -1.9638,-0.11987 -4.3789,-1.18743 -5.367,-2.37235 z" fill="#00B894" transform="translate(63.658431,93.841182) matrix(0.55629156,0,0,0.55629156,-573.95056,-522.98094)"/>
</svg>