<?xml version="1.0" ?><svg height="147.27179mm" viewBox="0 0 130.24963 147.27179" width="130.24963mm" xmlns="http://www.w3.org/2000/svg">
    <path d="m 16649.514,454.64062 c -24.102,-0.24652 -87.443,4.56651 -98.362,8.98438 -12.48,5.049 -15.914,22.66823 -5.381,24.83203 10.534,2.1639 45.456,8.96484 45.456,8.96485 l -111.289,64.91601 c 0,0 -25.304,-25.45134 -46.944,-31.83984 -89.995,-24.795 -181.715,-15.81403 -238.836,89.54297 -22.669,59.4546 -2.518,113.55042 16.946,138.48632 19.464,24.9359 58.392,54.40531 105.564,61.41211 1.242,0.18445 2.474,0.34463 3.705,0.49805 v 79.91211 c 0,0 -27.822,2.47266 -43.394,6.28516 -15.571,3.8125 -21.754,31.52972 -3.321,32.04492 18.434,0.5152 47.86,2.16406 47.86,2.16406 0,0 -0.343,34.31226 -0.457,52.03516 -0.115,17.72299 40.873,27.09969 42.82,7.21289 1.946,-19.8869 5.265,-62.23633 5.265,-62.23633 0,0 26.678,-3.81258 37.67,-6.80078 10.991,-2.9882 33.203,-32.45805 8.358,-35.65235 -24.845,-3.1943 -49.69,-3.29687 -49.69,-3.29687 l -0.478,-72.25195 c 24.798,-3.66512 44.271,-12.06058 54.592,-17.8418 16.373,-9.1706 58.965,-48.84145 70.185,-66.56445 22.732,-37.7621 28.441,-103.02826 18.561,-136.25196 l 120.666,-75.49804 c 0,0 -4.925,24.93587 -5.039,44.51367 -0.115,19.5778 28.28,16.38391 32.402,3.91601 4.121,-12.468 13.053,-58.83558 18.549,-83.77148 5.496,-24.9359 -5.153,-31.2224 -17.748,-33.2832 -1.574,-0.2576 -4.217,-0.39643 -7.66,-0.43165 z m -280.332,111.00977 c 65.165,0.18186 92.148,42.75808 92.363,98.01367 0.229,58.9394 -55.203,113.98249 -114.789,110.90039 -59.586,-3.0821 -131.488,-42.58522 -114.199,-126.35742 15.342,-27.5119 48.086,-76.04313 123.08,-82.01953 4.687,-0.37352 9.2,-0.54923 13.545,-0.53711 z" fill="#FFFFFF" transform="translate(-44.488231,28.278749) matrix(0.26458333,0,0,0.26458333,-3360.8562,496.43994) translate(-3313.5291,-2437.8203)"/>
    <path d="m 13016.439,-1441.6067 c -1.719,-3.6669 -2.771,-19.1605 -2.338,-34.4293 0.747,-26.2826 0.478,-27.7176 -5.025,-26.9282 -3.195,0.4584 -14.28,0.3402 -24.63,-0.2634 -16.416,-0.9572 -19.57,-1.9163 -24.683,-7.5121 -4.799,-5.2504 -5.203,-7.2125 -2.23,-10.8104 3.682,-4.4549 9.863,-6.0835 38.325,-10.0962 8.699,-1.226 16.409,-3.0099 17.136,-3.9644 0.728,-0.9544 1.38,-13.3164 1.447,-27.4711 0.07,-14.1546 0.518,-33.914 0.996,-43.9102 l 0.869,-18.1747 -15.171,-2.163 c -34.499,-4.9178 -73.882,-28.3811 -96.812,-57.6779 -19.294,-24.6524 -28.353,-50.9916 -27.857,-81.0019 5.265,-83.6723 82.394,-141.9159 159.668,-141.9627 75.058,-0.045 97.329,13.1428 133.191,43.7662 l 25.142,-16.7785 c 13.827,-9.2278 38.372,-24.8059 54.544,-34.6178 16.172,-9.8121 33.513,-20.4749 38.535,-23.6956 l 9.13,-5.8556 -29.392,-2.7777 c -25.572,-2.4172 -29.798,-3.4395 -32.522,-7.8722 -4.992,-8.1223 1.722,-13.012 19.828,-14.4446 8.909,-0.7046 29.484,-2.3459 45.725,-3.6478 16.241,-1.3017 33.989,-1.7123 39.438,-0.9126 20.194,2.9638 21.17,8.078 11.126,58.3315 -4.478,22.3941 -10.011,43.8837 -12.304,47.7545 -5.912,9.9941 -16.851,10.6684 -22.439,1.3836 -3.827,-6.3576 -3.726,-9.7211 0.93,-31.4518 2.866,-13.3829 4.55,-24.4266 3.743,-24.5421 -0.806,-0.1154 -32.485,17.464 -70.395,39.0645 l -68.927,39.274 5.637,17.075 c 4.089,12.3836 5.466,24.0278 5.004,42.3775 -0.902,35.9692 -7.679,56.7645 -27.953,85.788 -26.075,37.3276 -60.958,62.0485 -101.862,72.1896 -9.561,2.37 -17.81,4.6114 -18.33,4.9808 -1.035,0.7328 1.39,80.9621 2.49,82.4285 0.373,0.4952 6.089,0.4394 12.702,-0.1239 18.411,-1.5684 41.461,2.3161 44.663,7.5268 3.824,6.2202 -0.926,16.0298 -9.77,20.1762 -4.119,1.9311 -15.051,3.6429 -24.296,3.804 -9.243,0.1603 -17.883,1.0938 -19.203,2.0727 -1.317,0.9787 -2.81,15.2477 -3.319,31.709 -1.135,36.7799 -4.085,43.4159 -18.389,41.3769 -6.761,-0.9639 -10.148,-3.1425 -12.422,-7.9928 z m 16.787,-213.6495 c 78.654,-4.5475 134.44,-59.611 124.211,-149.2357 -6.963,-60.9904 -71.977,-75.671 -120.065,-74.8621 -72.245,2.3758 -168.036,75.3235 -119.105,163.2791 22.66,37.693 68.135,61.7512 114.959,60.8187 z m -46.285,-80.3639 c -4.404,-5.8674 -1.566,-15.491 5.511,-18.6851 7.022,-3.17 39.1,-7.6022 69.544,-9.6081 16.8,-1.1066 19.502,-0.6954 24.544,3.7403 7.339,6.4584 5.947,17.0185 -2.786,21.1126 -7.45,3.4928 -74.648,9.8531 -86.403,8.1775 -4.223,-0.6019 -8.908,-2.7335 -10.41,-4.7372 z m -6.847,-47.0614 c -4.588,-6.1149 -1.805,-12.9268 6.453,-15.7884 4.314,-1.4943 22.627,-3.7425 40.698,-4.9961 53.008,-3.6771 52.137,-3.7297 57.537,3.465 11.511,15.3389 1.177,20.8391 -42.717,22.7378 -39.002,1.6867 -57.877,0.036 -61.971,-5.4183 z" fill="#00B894" transform="translate(-44.488231,28.278749) matrix(0.26458333,0,0,0.26458333,-3360.8562,496.43994)"/>
</svg>