<?xml version="1.0" ?><svg height="181.23997mm" viewBox="0 0 299.36301 181.23997" width="299.36301mm" xmlns="http://www.w3.org/2000/svg">
    <path d="m 32020.977,13498.101 c -60.932,53.431 -67.774,119.491 -56.926,156.674 0,0 20.348,50.167 49.618,67.007 29.271,16.839 90.286,16.495 135.162,-6.218 44.875,-22.712 56.792,-106.909 56.27,-139.235 -22.862,-59.506 -126.888,-123.731 -184.124,-78.228 z m 438.924,10.157 c -15.047,0.259 -30.08,3.217 -42.193,7.122 -32.301,10.412 -89.452,51.213 -84.59,133.478 4.863,82.265 70.486,96.765 108.139,100.064 43.946,6.608 109.525,-64.369 118.456,-89.979 8.931,-25.61 15.533,-84.616 -3.168,-120.862 -11.688,-22.654 -71.566,-30.257 -96.644,-29.823 z m -547.724,225.089 c -44.365,2.573 -86.834,70.005 -117.353,145.531 -34.881,86.317 -23.12,162.126 -21.292,203.486 1.303,8.96 63.575,24.135 101.864,23.449 38.289,-0.688 127.058,-2.448 126.657,-20.361 -0.402,-17.913 -0.475,-6.072 -0.893,-35.121 -0.418,-29.049 27.439,-168.155 37.13,-231.016 9.693,-62.856 -55.572,-66.693 -106.961,-83.438 -6.423,-2.093 -12.814,-2.897 -19.152,-2.53 z m 619.08,37.997 c -19.806,1.059 -42.496,2.766 -60.53,10.516 -41.22,17.714 -67.471,49.63 -72.997,78.335 -5.527,28.705 7.418,202.067 10.69,235.602 0,0 53.045,9.753 85.284,8.039 32.238,-1.715 166.351,-12.132 165.713,-26.833 -0.639,-14.703 -33.113,-240.147 -53.678,-276.41 -11.568,-20.398 -49.019,-30.609 -74.482,-29.249 z" fill="#FFFFFF" transform="translate(116.19418,7.6991489) matrix(0.26458333,0,0,0.26458333,-8489.9086,-3558.6281)"/>
    <path d="m 31968.132,13420.834 c -4.732,0.08 -10.199,0.692 -16.597,1.905 -51.18,9.702 -57.952,35.961 -53.579,75.07 4.371,39.108 3.867,108.452 -12.712,125.364 -16.578,16.913 -31.499,43.31 3.845,26.899 26.263,-12.196 50.18,-32.646 60.765,-42.372 0.08,0.187 0.113,0.407 0.183,0.591 2.768,6.984 6.091,8.774 8.55,6.516 l 1.546,6.577 c -0.923,5.27 -1.701,11.272 -2.323,19.299 -1.081,19.337 2.392,30.191 11.262,46.39 19.463,40.08 51.396,62.702 89.46,69.294 25.245,1.963 44.855,-2.421 62.481,-9.644 44.352,-18.493 72.44,-42.639 88.873,-76.387 5.931,-12.186 11.735,-24.512 18.223,-25.407 4.69,-0.661 10.179,-3.824 12.192,-7.025 3.13,-4.985 2.508,-6.527 -4.321,-10.706 -6.956,-4.258 -10.281,0.181 -13.093,-21.101 -1.647,-14.834 -3.706,-29.756 -7.401,-44.058 -2.2,-8.631 -6.134,-19.246 -13.891,-34.543 -4.083,-8.053 -15.307,-18.021 -29.643,-27.819 1.177,0.477 1.902,0.906 3.043,1.38 -15.207,-8.741 -53.299,-30.045 -76.381,-37.464 -29.081,-9.346 -75.918,5.02 -75.918,5.02 v 0 0 c -27.298,-24.663 -30.118,-47.51 -54.564,-47.779 z m 464.886,39.218 v 0 0.01 c -2.697,0.03 -4.49,1.166 -6.395,3.422 -2.566,3.042 -8.413,4.828 -12.986,3.969 -13.803,-2.589 -30.35,4.971 -30.71,14.034 -0.179,4.512 -2.694,8.11 -5.586,7.995 -2.896,-0.115 -7.492,1.849 -10.218,4.359 -7.481,6.91 1.098,15.535 16.177,16.263 l 12.659,0.632 -14.653,11.475 c -9.189,7.196 -17.653,10.662 -22.707,9.292 -4.431,-1.198 -10.846,-0.592 -14.249,1.338 -5.048,2.867 -5.331,5.037 -1.561,11.701 3.873,6.844 6.824,17.419 -3.195,37.203 -10.923,21.571 -14.541,25.463 -14.541,25.463 -31.579,-3.058 -32.28,20.709 -13.198,22.702 8.706,0.909 10.646,-0.34 10.912,17.271 0.876,57.939 31.731,98.896 84.881,109.969 43.957,9.16 87.32,-3.119 119.092,-24.539 27.826,-19.526 56.568,-94.698 50.17,-111.235 -4.466,-11.543 -5.422,-8.246 -11.074,-1.155 -3.269,4.098 -10.271,18.913 -15.558,32.917 -14.773,39.129 -32.558,60.653 -60.907,73.71 -50.316,23.177 -103.514,14.523 -127.112,-24.417 -13.745,-22.678 -9.017,-22.702 15.342,-37.619 16.318,-9.987 24.226,-12.198 41.018,-11.483 22.36,0.97 35.413,6.669 28.417,12.435 -2.29,1.885 -14.594,7.071 -27.344,11.529 -25.139,8.788 -40.796,19.935 -41.169,29.294 -0.129,3.253 1.133,5.938 2.805,5.98 6.27,0.149 67.623,-17.85 78.985,-23.162 24.21,-11.322 22.547,-38.071 -3.171,-51.007 -30.659,-15.414 -62.565,-10.647 -91.069,13.603 l -18.448,15.695 -2.14,-15.571 c -1.612,-11.729 -1.197,-20.615 7.056,-23.986 12.033,-4.914 13.138,-9.028 3.952,-14.662 -5.842,-3.578 -5.916,-5.554 -0.632,-16.999 5.456,-10.983 9.839,-26.492 13.836,-28.513 18.319,10.448 19.944,1.933 15.134,-11.541 -2.441,-6.841 11.081,-17.577 16.338,-17.368 1.475,0.06 -4.104,11.434 -5.384,16.964 -1.29,5.522 -0.455,9.916 1.803,10.207 5.234,0.676 12.64,-3.34 17.056,-6.826 2.101,-1.658 9.744,-12.733 14.829,-18.08 7.151,-7.523 12.19,-16.077 11.192,-19.014 -2.71,-8.003 15.894,-10.335 35.283,-4.418 9.285,2.828 28.625,12.827 42.98,22.209 14.949,9.77 28.833,16.128 32.495,14.886 17.201,-5.829 21.628,-52.616 6.995,-74.015 -8.231,-12.035 -22.2,-16.681 -30.671,-10.204 -4.003,3.062 -7.228,1.962 -12.406,-4.238 -4.46,-5.328 -8.949,-8.369 -12.714,-8.249 h -0.02 c -3.764,0.12 -6.799,2.285 -8.345,7.367 -2.199,7.228 -3.151,7.371 -10.723,1.602 -9.64,-7.337 -21.345,-8.707 -23.596,-2.753 -1.043,2.761 -6.03,2.354 -15.104,-1.216 -5.525,-2.178 -11.908,-5.923 -11.822,-3.229 z m 192.638,27.472 v 0 h -0.01 c -20.889,0.667 -31.979,7.197 -26.409,15.6 1.468,2.217 -0.721,6.571 -4.87,9.677 -9.708,7.271 -9.261,17.68 1.149,26.778 4.534,3.961 6.342,7.263 4.021,7.337 -2.317,0.07 -5.877,3.484 -7.899,7.575 -4.396,8.883 1.623,21.917 9.996,21.65 2.96,-0.09 9.093,3.826 13.627,8.715 9.621,10.377 18.755,10.76 48.952,2.039 13.961,-4.035 24.495,-9.71 29.743,-16.025 9.32,-11.226 7.483,-12.5 33.243,23.054 25.556,35.269 30.226,58.144 18.782,91.981 -13.045,38.57 -40.881,68.86 -97.711,83.104 l -27.381,6.864 -13.084,-10.773 c -7.196,-5.925 -21.829,-11.03 -29.63,-13.429 -19.101,-5.884 -63.246,1.616 -84.392,9.81 -41.07,15.922 -84.927,25.749 -101.796,56.952 -16.913,31.29 -55.35,85.51 -75.628,102.566 -29.785,25.051 -73.627,58.15 -117.388,70.204 -54.754,15.083 -75.478,17.789 -81.252,10.595 -10.866,-13.54 -66.464,-20.6 -83.739,-10.633 -3.36,1.937 -5.068,2.373 -6.035,1.236 0.397,-22.737 14.982,-107.96 22.362,-129.537 0.995,-2.907 7.71,14.653 14.924,39.029 7.209,24.374 16.52,49.461 20.689,55.748 17.699,26.696 47.114,40.711 65.92,31.408 13.573,-6.716 17.571,-23.619 18.082,-76.466 0.535,-55.183 1.851,-74.4 5.536,-80.748 1.948,-3.357 7.795,-1.833 23.63,6.158 17.129,8.647 24.982,10.503 42.272,10.002 25.621,-0.747 30.029,-4.089 42.6,-32.303 10.282,-23.065 11.24,-30.321 4.787,-36.376 -7.09,-6.651 -1.424,-8.137 15.747,-4.127 14.315,3.344 16.987,3.067 21.986,-2.262 5.344,-5.693 5.181,-6.579 -2.661,-14.411 -12.181,-12.162 -36.455,-18.498 -74.063,-19.327 -43.185,-0.949 -57.487,6.134 -77.73,38.517 -22.092,35.341 -27.658,59.952 -28.755,127.139 -0.519,31.86 -1.044,58.324 -1.16,58.807 -0.119,0.485 -2.513,0.953 -5.321,1.043 -9.137,0.291 -29.237,-19.465 -35.134,-34.533 -26.72,-68.29 -42.784,-102.16 -43.874,-121.831 -2.26,-40.647 -31.426,-57.196 -87.421,-73.823 -36.251,-10.765 -59.202,-16.695 -77.714,-9.808 -12.068,4.49 -16.836,4.43 -38.365,-0.474 -13.1,-2.985 -29.488,-4.222 -47.055,-3.873 -29.28,0.58 -61.836,5.566 -87.908,14.208 -50.349,16.693 -71.163,30.729 -70.624,47.638 0.49,15.362 47.6,48.397 107.873,75.643 13.133,5.934 23.884,12.416 23.947,14.398 0.04,1.985 -3.317,15.515 -7.459,30.066 -10.427,36.633 -13.691,73.008 -11.864,132.471 1.57,51.44 6.412,48.296 13.819,50.503 5.692,1.699 7.535,4.94 9.54,-59.722 1.842,-59.325 7.163,-106.434 16.776,-130.562 l 5.655,-14.187 22.835,9.564 c 24.431,10.238 29.642,14.78 26.581,23.153 -8.006,21.884 -10.521,43.397 -6.392,54.681 8.826,24.13 54.835,40.295 68.975,24.234 3.507,-3.981 10.119,-7.903 14.689,-8.71 4.575,-0.807 9.943,-4.634 11.93,-8.501 1.99,-3.871 6.428,-9.294 9.859,-12.053 3.709,-2.983 5.455,-7.675 4.302,-11.567 -1.241,-4.202 0.495,-7.95 4.845,-10.46 4.937,-2.849 6.439,-6.908 5.526,-14.947 -0.689,-6.069 0.497,-14.519 2.641,-18.776 2.638,-5.24 2.752,-10.479 0.354,-16.228 -5.71,-13.693 -41.493,-35.852 -57.089,-35.355 -8.752,0.279 -31.522,12.385 -37.324,19.846 -3.638,4.677 -6.054,4.17 -19.069,-4.011 -8.198,-5.158 -20.82,-11.967 -28.051,-15.13 l -13.145,-5.754 9.769,-19.826 c 11.98,-24.313 36.727,-58.481 48.182,-66.516 6.898,-4.841 10.582,-5.303 19.639,-2.467 19.03,5.963 25.152,4.382 22.844,-5.902 -1.926,-8.575 -1.484,-8.88 10.286,-7.058 29.413,4.552 62.222,18.679 79.349,34.164 21.564,19.5 24.574,16.114 9.561,74.679 -22.58,88.072 -34.543,208.348 -19.401,228.56 3.117,4.162 6.992,7.527 8.613,7.475 3.462,-0.111 12.945,-8.646 12.649,-17.928 0.679,-3.883 1.164,-8.009 1.751,-12.044 l 0.03,1.007 c 1.922,-0.131 4.544,1.404 7.538,4.787 5.991,6.768 39.951,15.372 58.347,14.785 9.314,-0.297 17.991,-3.402 24.292,-8.687 8.651,-7.265 9.503,-9.985 7.258,-23.201 -3.074,-18.126 0.454,-25.692 10.642,-22.811 11.722,3.314 82.565,-10.916 115.689,-23.236 55.724,-20.726 105.757,-71.3 126.23,-106.116 5.435,-9.244 10.901,-16.85 12.144,-16.889 1.246,-0.04 0.422,34.799 2.552,66.445 4.211,62.552 -0.471,167.042 23.919,142.258 0.905,-0.919 2.715,-92.77 1.856,-144.229 -1.47,-87.853 -1.096,-94.608 6.09,-110.751 13.622,-30.584 80.31,-53.889 116.838,-58.909 14.469,-1.993 16.787,-1.538 13.145,2.562 -11.934,13.454 1.293,25.303 27.325,24.472 24.747,-0.789 30.027,3.586 36.96,30.634 3.487,13.603 14.809,80.265 17.194,113.414 5.246,73.011 10.594,104.765 19.594,116.305 16.228,20.804 16.65,17.42 11.305,-90.316 -4.563,-92.014 -13.115,-138.05 -22.062,-163.131 -2.408,-6.758 -0.394,-8.003 21.018,-12.975 54.933,-12.751 93.195,-51.307 111.054,-94.157 13.771,-33.027 12.495,-69.281 -3.474,-98.965 -11.457,-21.295 -55.351,-72.694 -64.921,-76.021 -3.345,-1.164 -4.562,-4.829 -3.389,-10.231 3.76,-17.291 -33.237,-33.709 -73.211,-32.456 z m -521.698,42.965 7.678,5.891 c 6.416,4.925 10.665,5.27 25.828,2.162 l 18.152,-3.722 12.669,12.861 c 12.582,12.774 12.218,10.608 6.163,16.165 -10.286,9.438 -5.418,19.267 7.254,12.803 l 12.01,-6.127 3.615,21.854 c 1.474,8.907 2.909,20.894 2.59,26.751 -0.523,9.711 -2.114,6.238 -14.258,8.765 -15.659,3.257 -20.25,13.421 -7.671,17.259 4.887,1.492 11.127,0.493 10.889,1.923 -4.509,27.184 -33.582,50.878 -44.55,58.603 -8.342,5.873 -11.17,6.65 -12.768,3.505 -5.746,-11.306 -23.004,-18.683 -63.5,-27.128 -3.857,-0.806 -3.986,-2.305 -0.791,-8.876 2.879,-5.919 7.557,-8.65 18.609,-10.859 20.212,-4.042 34.092,1.59 45.139,18.322 11.796,17.864 19.621,17.35 14.657,-0.965 -4.682,-17.27 -14.443,-27.205 -33.327,-33.906 -34.269,-12.16 -68.456,6.908 -64.608,36.038 1.591,12.033 9.127,17.745 27.557,20.883 16.158,2.748 43.096,13.353 43.6,17.162 0.197,1.486 -4.095,4.223 -9.532,6.078 -28.831,9.837 -61.237,5.205 -84.306,-12.049 -17.707,-13.242 -41.7,-48.949 -48.866,-72.722 -6.523,-21.752 0.857,-26.394 22.555,-42.357 14.717,-12.484 33.283,-30.903 41.257,-40.93 4.628,-5.823 7.743,-9.327 10.23,-11.684 l 6.693,-1.956 c 0.119,-0.03 0.151,0.157 0.216,0.276 3.578,6.587 15.648,4.516 32.694,-5.621 z m 24.332,23.072 c -12.94,1.71 -5.969,13.619 12.865,21.972 12.19,5.404 14.423,5.458 16.687,0.417 1.944,-4.323 -23.037,-23.249 -29.552,-22.389 z m 61.933,39.401 c -1.45,-6.676 -7.418,-7.759 -9.564,-5.923 -7.541,6.451 -11.101,12.784 -6.246,21.711 4.074,7.501 15.176,6.597 16.836,-2.603 1.055,-5.845 0.284,-7.15 -1.026,-13.185 z m -37.938,-7.732 c -5.63,2.169 -7.381,5.181 -7.434,10.875 -0.04,4.227 0.829,9.05 2.146,11.472 3.258,5.996 9.244,5.153 14.995,-3.18 8.399,-11.663 -2.712,-21.691 -9.707,-19.167 z m 254.076,-13.568 c -6.287,2.195 -10.358,7.722 -10.947,11.607 -1.644,10.859 8.083,19.858 16.345,13.545 8.105,-6.192 7.856,-10.237 6.296,-16.867 -1.701,-7.228 -8.003,-9.574 -11.694,-8.285 z m -31.125,3.969 c -6.271,2.754 -6.363,11.317 -4.698,16.111 3.559,10.927 15.301,12.511 17.527,0.709 1.161,-6.15 0.219,-9.851 -3.459,-14.111 -1.63,-1.887 -8.098,-3.268 -9.37,-2.709 z m -569.428,172.422 c 19.393,-0.486 38.117,0.142 41.604,1.394 5.759,2.061 5.514,3.09 -2.648,11.166 -10.634,10.524 -31.002,41.925 -40.926,63.084 -3.88,8.274 -8.238,15.08 -9.682,15.126 -6.003,0.192 -89.928,-40.836 -100.584,-49.168 l -11.575,-9.049 11.432,-6.386 c 23.761,-13.273 75.197,-25.244 112.379,-26.167 z" fill="#00B894" transform="translate(116.19418,7.6991489) matrix(0.26458333,0,0,0.26458333,-8489.9086,-3558.6281)"/>
</svg>