<?xml version="1.0" ?><svg height="59.893845mm" viewBox="0 0 43.977772 59.893845" width="43.977772mm" xmlns="http://www.w3.org/2000/svg">
    <path color="#000" d="m 16057.148,1433.1465 c -25.119,0.037 -57.052,4.6621 -73.863,4.8984 -17.932,0.2522 -31.86,25.2968 -33.342,39.2363 -2.457,23.1083 42.778,41.2381 43.149,40.6465 0,0 -27.962,16.4418 -30.092,36.7657 -2.129,20.3238 34.406,41.7578 34.406,41.7578 0,0 -24.598,14.4728 -24.318,35.9062 0.28,21.4334 26,26.7793 26,26.7793 16.195,-0.9078 36.985,-12.2049 36.705,-39.4883 -0.281,-27.2834 -2.914,-104.1914 -2.914,-104.1914 0,0 39.001,-4.8919 51.105,-7.0605 12.104,-2.1685 26.337,-15.33 26.954,-33.6367 0.617,-18.3066 -23.143,-40.9011 -48.864,-41.5567 -1.607,-0.041 -3.251,-0.059 -4.926,-0.057 z m 21.26,90.7324 a 28.831137,30.384979 0 0 0 -28.83,30.3848 28.831137,30.384979 0 0 0 28.83,30.3867 28.831137,30.384979 0 0 0 28.832,-30.3867 28.831137,30.384979 0 0 0 -28.832,-30.3848 z" fill="#FFFFFF" overflow="visible" paint-order="fill markers stroke" transform="translate(-203.64463,33.94044) matrix(0.24662394,0,0,0.24662394,-2910.5459,215.96659) translate(-3313.5291,-2437.8203)"/>
    <path d="m 12649.656,-799.73675 c -0.592,-11.09482 8.226,-28.11191 16.916,-33.9336 8.73,-5.85001 8.44,-9.24864 -1.06,-12.38404 -15.924,-5.25595 -24.215,-17.0418 -24.215,-34.42904 0,-14.40299 6.395,-27.58628 16.644,-33.34633 8.913,-5.0096 11.203,-7.6471 5.58,-7.6471 -17.263,-4.65219 -34.785,-16.0234 -36.237,-40.84172 0.588,-32.08709 35.521,-48.70902 54.556,-50.11982 33.779,-2.0071 70.231,-0.1125 79.329,1.2552 20.725,3.1158 42.605,22.49373 44.09,40.52263 2.322,28.17938 -6.805,44.47194 -36.575,48.75828 25.275,5.96519 32.942,21.2089 33.961,41.98681 -1.7,35.38274 -46.529,47.11552 -65.343,21.48427 -5.379,-6.87238 -8.489,-9.72612 -6.947,-1.46484 0.35,1.87464 1.6,16.30481 1.327,32.62858 -0.593,35.66285 -8.814,43.31225 -24.716,51.49606 -21.783,12.43695 -55.898,2.47958 -57.31,-23.96534 z m 62.637,-18.7741 c 0,-19.17606 2.845,-19.69238 -1.385,-19.69238 -5.872,1.16515 -29.375,8.35273 -38.205,19.3978 -10.911,15.6487 -4.655,22.55541 3.8,27.92004 18.163,8.51568 35.404,-5.08911 35.79,-27.62546 z m -1.661,-38.16049 c 3.644,-3.6427 -0.299,-50.11788 -4.616,-54.43593 -8.913,-8.91211 -39.762,4.22883 -45.24,17.47779 -5.762,13.93191 3.127,29.05978 12.912,32.49225 11.336,3.97635 33.015,8.39466 36.944,4.46589 z m 70.23,-11.46128 c 9.341,-6.03355 10.169,-22.56931 1.126,-32.11142 -5.113,-5.11256 -7.507,-5.79204 -18.361,-5.20732 -16.49,1.95529 -20.416,24.67121 -14.647,33.82769 9.613,14.26485 23.008,10.88903 31.882,3.49105 z m -48.53,-27.87946 c 2.604,-9.87031 8.624,-14.98971 15.709,-21.60643 l -11.238,0.71211 c -12.754,0.80817 -14.051,3.2968 -11.297,21.66144 1.734,11.56075 4.573,11.24158 6.826,-0.76712 z m -29.517,-101.17429 -15.137,1.5506 c -18.585,1.9043 -29.809,7.9299 -37.953,20.3763 -7.76,11.85796 -6.657,20.0961 4.13,30.90342 8.969,8.98221 24.514,13.99134 41.288,13.3039 l 11.416,-0.4678 c -1.343,-25.16737 0.479,-43.15532 -3.744,-65.66642 z m 43.404,64.41321 c 34.318,-5.56849 49.568,-24.11784 36.903,-44.88771 -7.643,-12.5386 -28.853,-22.55243 -51.056,-20.8943 l -10.818,0.79729 c 3.07,16.0401 1.674,48.43491 3.855,65.21245 1.404,2.34543 3.839,2.57525 21.116,-0.22773 z" fill="#00B894" transform="translate(-203.64463,33.94044) matrix(0.24662394,0,0,0.24662394,-2910.5459,215.96659)"/>
</svg>