<?xml version="1.0" ?><svg height="418.5715mm" viewBox="0 0 429.27747 418.5715" width="429.27747mm" xmlns="http://www.w3.org/2000/svg">
    <path d="m 2784.8984,23427.365 c -27.1741,-0.29 -60.6944,28.421 -71.7148,62.862 -5.2116,73 93.4075,95.369 129.8887,43.054 36.4812,-52.314 -21.7805,-97.653 -49.9766,-104.869 -2.6434,-0.676 -5.3861,-1.017 -8.1973,-1.047 z m 843.1133,75.026 c -33.2239,-0.135 -67.2166,15.456 -98.5527,58.732 -44.8398,42.745 -40.5831,87.449 -4.9141,142.496 35.6689,55.048 150.0255,86.579 220.4629,-12.502 61.3248,-86.263 -26.2081,-162.523 -72.4883,-179.918 -14.4625,-5.436 -29.406,-8.747 -44.5078,-8.808 z m -499.3144,251.847 c -37.9218,0.212 -69.9146,2.358 -92.1914,6.219 -79.2066,13.726 -217.8184,55.871 -217.8184,55.871 0,0 -238.4224,-77.065 -315.4883,-55.39 -23.2256,338.877 -26.269,615.173 1.8789,1009.626 11.7213,164.257 141.0681,224.523 269.3262,231.588 155.2474,8.552 878.4899,-15.592 1053.9023,-11.173 124.6355,3.14 219.7957,-33.782 240.293,-135.026 36.9996,-182.756 73.7785,-1073.026 -23.416,-1049.49 -53.7856,12.041 -215.2734,32.019 -215.2734,32.019 0,0 -202.833,-4.816 -357.5,-44.31 -111.167,-28.387 -246.8018,-40.476 -343.7129,-39.934 z" fill="#FFFFFF" transform="translate(108.8054,61.119072) matrix(0.26458333,0,0,0.26458333,110.44369,-5613.1827) translate(-3313.5291,-2437.8203)"/>
    <path d="m 369.60166,22441.97 c -2.5321,-6.599 3.6771,-13.794 9.0425,-10.478 5.7834,3.574 4.5733,15.979 -1.559,15.979 -2.9554,0 -6.3227,-2.474 -7.4835,-5.501 z m -641.5362,-3.705 c -56.5818,-4.868 -162.6613,-18.276 -221.0549,-27.939 -97.9413,-16.209 -262.0494,-53.286 -251.4675,-56.814 6.5692,-2.19 96.0186,9.087 174.2469,21.966 87.1221,14.342 189.1372,27.272 278.7456,35.327 50.9165,4.576 90.492,5.456 185.9668,4.126 123.211801,-1.713 156.343001,-4.413 312.5157,-25.482 94.7157,-12.779 199.3221,-38.393 250.8801,-61.429 l 17.5439,-7.837 -64.9128,-9.684 c -153.4871,-22.895 -251.4125,-54.097 -401.7591991,-128 -111.3752009,-54.747 -165.3110009,-100.937 -246.3950009,-211.009 -35.0603,-47.596 -42.2049,-68.596 -35.5748,-104.576 2.822,-15.316 -41.8277,-4.236 -127.3025,31.587 -79.3455,33.26 -164.9418,56.251 -254.9877,68.499 -62.7078,8.529 -100.6468,7.671 -115.8024,-2.616 l -9.4198,-6.393 36.8426,-2.226 c 70.6663,-4.265 219.4288,-41.529 314.6681,-78.821 22.8118,-8.932 44.8894,-17.548 49.0613,-19.145 7.1717,-2.75 7.3422,-3.732 3.1319,-18.024 l -4.4532,-15.119 -24.1848,-2.215 c -13.3017,-1.219 -32.7369,-4.764 -43.1894,-7.88 -43.9197,-13.087 -98.1084,-47.399 -103.9556,-65.821 -3.5625,-11.224 -8.1629,-3.427 -13.8685,23.505 -9.3631,44.198 -13.3389,39.579 51.74,60.134 31.3601,9.906 66.4921,19.324 78.0711,20.929 l 21.0528,2.917 -24.5615,1.153 c -33.9788,1.592 -82.1616,-9.806 -118.4224,-28.012 -14.7152,-7.389 -13.5238,-8.865 -14.4798,17.948 -0.4261,11.947 0.027,12.334 29.3921,25.374 l 29.8251,13.24 -16.8068,0.06 c -10.1733,0.06 -22.4109,-2.792 -31.0056,-7.177 l -14.1988,-7.245 2.5142,23.479 c 1.9842,18.527 1.5534,23.155 -2.0435,21.958 -11.1337,-3.71 -15.3754,-27.999 -15.5159,-88.845 -0.1342,-57.78 0.229,-60.859 11.5836,-98.245 6.4467,-21.23 22.4446,-60.704 35.5511,-87.72 64.2486,-132.444 193.485,-248.998 301.9064,-272.277 23.2371,-4.99 160.439398,-1.274 167.437898,4.534 7.289202,6.05 5.136302,14.942 -7.6806,31.73 l -12.1225,15.876 20.5519,5.765 c 11.360302,3.188 21.505404,8.253 22.684304,11.325 1.173,3.055 -1.1535,16.589 -5.1692,30.076 -4.0161,13.485 -6.787702,25.033 -6.159202,25.661 0.6281,0.626 13.636402,4.035 28.907102,7.566 27.0981989,6.274 32.65349895,9.718 27.4086989,17.001 -1.416,1.965 -20.7325989,15.662 -42.9259989,30.438 -39.478804,26.285 -70.381902,39.109 -112.281802,46.593 -28.3429,5.062 -86.1011,28.233 -111.1709,44.598 -50.9035,33.233 -66.7621,56.233 -80.0108,116.057 -5.6025,25.295 -6.7217,83.069 -1.7067,88.08 1.0179,1.015 13.6496,-1.338 28.0707,-5.228 36.5261,-9.864 64.8699,-7.196 110.9095,10.43 35.7131,13.674 45.0737,18.498 86.0915,44.385 20.216,12.758 24.2445,13.99 45.010498,13.761 15.662802,-0.159 39.294804,-4.935 75.4394029,-15.205 43.4579001,-12.351 59.7015001,-15.287 93.1887001,-16.848 79.290399,-3.697 148.326299,20.576 193.311499,67.974 33.5025,35.298 63.5513,99.651 64.0748,137.228 0.2262,16.324 1.6586,22.364 5.5694,23.498 22.2421,6.447 125.4104,24.3 214.0374,37.032 41.4917,5.963 81.5061,12.202 88.9209,13.869 10.0964,2.268 18.0746,1.449 31.7742,-3.264 36.54,-12.574 72.6711,-12.017 75.2077,1.155 1.0595,5.5 -0.3305,6.092 -9.5529,4.069 -14.1476,-3.108 -46.6348,6.313 -67.4613,19.566 -17.701,11.26 -44.0602,37.371 -74.9427,74.232 -24.9528,29.782 -67.8254,67.022 -96.9994,84.251 -83.3019,49.201 -218.4884,78.619 -471.200099,102.549 -69.444699,6.573 -230.382701,6.361 -309.088901,-0.411 z m 805.6564,-156.975 c 12.5417,-10.343 33.77,-31.158 47.1743,-46.256 13.4045,-15.095 31.4773,-34.238 40.1616,-42.534 9.2775,-8.867 13.6188,-15.119 10.5264,-15.164 -21.1487,-0.295 -130.4609,-12.203 -176.8313,-19.26 -196.0983,-29.851 -332.0465,-78.528 -495.105898,-177.279 -23.158102,-14.024 -53.807404,-32.516 -68.109102,-41.092 -14.302,-8.577 -37.8702,-23.603 -52.3738,-33.389 -26.1084,-17.62 -78.4914,-41.309 -91.3402,-41.309 -13.3512,0 -14.6246,28.141 -2.3682,52.329 18.79,37.082 106.403,142.273 140.8268,169.084 57.933602,45.121 129.612901,81.447 271.6122,137.644 78.2096,30.949 182.4485,57.039 280.7048,70.252 66.45,8.935 68.9082,8.598 95.1224,-13.026 z m -226.6962,-222.242 c -7.0438,-18.803 -14.0499,-36.408 -15.5693,-39.122 -2.0402,-3.646 -8.8546,2.203 -26.0564,22.365 -12.8117,15.012 -23.2939,29.425 -23.2939,32.026 0,9.481 11.4898,4.345 25.915,-11.589 19.4352,-21.467 27.1082,-19.278 12.6018,3.596 -5.9431,9.372 -9.9904,17.856 -8.9938,18.85 3.95,3.95 45.9892,13.798 47.0599,11.025 0.629,-1.629 -4.6196,-18.349 -11.6633,-37.151 z m -80.7593,2.611 c 2.5124,-7.916 33.348,-36.701 49.91,-46.59 l 11.2631,-6.727 -7.7544,-11.974 c -4.2647,-6.586 -8.8519,-11.994 -10.1934,-12.018 -1.3417,-0.03 -16.0337,15.748 -32.6489,35.045 -16.6152,19.297 -32.4914,35.088 -35.2803,35.088 -8.0919,0 -5.8985,-11.852 4.9359,-26.667 11.2945,-15.445 45.3436,-48.351 53.227,-51.44 3.8657,-1.512 0.9923,-6.128 -11.2745,-18.103 -9.0546,-8.839 -18.6478,-16.071 -21.3187,-16.071 -4.2225,0 -21.2783,26.585 -56.8296,88.583 -8.9495,15.608 -9.1432,16.805 -3.0837,19.092 3.5558,1.341 15.1496,5.945 25.7638,10.232 24.3584,9.831 30.5631,10.12 33.2837,1.55 z m -67.5266,-46.65 c 6.6831,-13.99 20.882,-38.428 31.553,-54.301 14.5492,-21.646 18.3416,-29.743 15.1628,-32.383 -3.932,-3.262 -27.9828,-14.194 -31.2307,-14.194 -0.7916,0 -5.052,9.868 -9.4675,21.929 -10.222,27.924 -26.0504,59.958 -38.8381,78.601 l -9.9896,14.566 13.0875,5.429 c 7.1982,2.987 14.0968,5.513 15.33,5.61 1.2332,0.107 7.7097,-11.265 14.3926,-25.257 z m -53.4774,2.68 c 0,-2.868 11.8576,-28.029 26.3501,-55.912 14.4925,-27.885 25.1505,-51.415 23.6845,-52.291 -6.0882,-3.64 -43.8455,-9.824 -48.6687,-7.972 -9.844299,3.777 -36.453799,76.923 -36.453799,100.207 0,3.27 6.4588,9.012 14.9123,13.256 18.113999,9.1 20.175599,9.379 20.175599,2.712 z m -49.312599,-43.031 c 5.1231,-23.301 16.0592,-51.017 25.613,-64.914 l 6.6334,-9.648 -20.4143,0.06 c -11.2281,0.03 -22.265,1.233 -24.5269,2.67 -4.5737,2.91 -23.6381,74.206 -20.6431,77.2 4.3389,4.339 21.5302,14.322 25.0741,14.558 2.1051,0.132 5.8238,-8.823 8.2638,-19.918 z m -41.9165,-7.76 c 0,-3.788 3.8837,-19.114 8.6304,-34.061 4.7463,-14.949 8.2991,-27.451 7.8948,-27.788 -0.4044,-0.336 -5.7612,0.158 -11.9035,1.09 -9.0486001,1.378 -12.2022001,4.287 -16.6167001,15.318 -2.99669995,7.49 -6.4727,20.024 -7.7249,27.852 -1.8453,11.541 -1.0243,15.183 4.3358,19.243 9.3162,7.052 15.3841001,6.401 15.3841001,-1.654 z m -31.424999,-20.518 c 0.084,-3.262 2.381899,-12.189 5.105099,-19.833 2.7231999,-7.645 4.6272999,-14.132 4.2317999,-14.416 -0.3956,-0.284 -16.5084989,2.105 -35.8071989,5.307 l -35.088004,5.825 27.756304,16.347 c 28.004,16.489 33.5209,17.594 33.802,6.77 z m -372.088002,-160.322 v -22.806 h -11.8019 c -49.6229,0 -106.7239,-30.76 -125.5303,-67.626 -8.1994,-16.072 -9.3583,-15.266 -20.5574,14.274 -6.3756,16.816 -6.5532,19.524 -1.8761,28.568 14.2878,27.629 100.6871,70.079 143.0989,70.309 l 16.6668,0.08 v -22.809 z m 4.8061,-44.738 c 3.1935,-11.915 2.7746,-13.157 -4.4367,-13.157 -13.0813,0 -51.8339,-14.058 -67.6749,-24.55 -21.4678,-14.218 -48.391,-41.35 -53.9808,-54.398 l -4.5101,-10.527 -6.9726,15.488 c -8.6033,19.107 -6.1037,27.497 14.5503,48.828 26.507,27.38 67.359,45.652 102.897,46.025 15.792,0.157 18.2728,-0.784 20.1278,-7.709 z m 9.0015,-34.831 c 2.4155,-8.063 6.8266,-18.376 9.8027,-22.918 2.9757,-4.543 4.8021,-8.604 4.0582,-9.025 -0.7437,-0.423 -10.6001,-5.392 -21.9026,-11.044 -25.2192,-12.61 -73.253,-57.061 -81.8741,-75.767 -3.4918,-7.579 -7.4519,-13.818 -8.8,-13.868 -5.4714,-0.211 -37.1254,56.501 -35.3441,63.314 2.8644,10.953 30.7132,39.971 51.7824,53.956 20.322,13.489 58.3006,29.552 70.546,29.839 5.6311,0.132 8.3616,-3.243 11.7315,-14.487 z m 35.3863,-55.066 11.0301,-10.073 -16.954,-8.111 c -9.3246,-4.462 -28.0246,-19.269 -41.5554,-32.909 -25.0359,-25.237 -40.0799,-50.077 -43.7092,-72.17 l -2.0175,-12.278 -14.8364,19.615 c -8.1601,10.79 -14.8365,22.87 -14.8365,26.843 0,8.909 20.9634,36.784 42.1458,56.043 20.8756,18.981 56.3345,42.898 63.779,43.019 3.2582,0.06 10.8875,-4.44 16.9541,-9.979 z m 43.3124,-33.598 c 13.7712,-8.582 32.6498,-18.968 41.9522,-23.082 16.4145,-7.257 16.7493,-7.702 11.3491,-15.1 -17.3504,-23.765 -27.6455,-42.216 -37.5336,-67.272 -9.2808,-23.514 -11.3512,-34.19 -12.7582,-65.79 -0.9237,-20.744 -2.584,-37.718 -3.6898,-37.718 -7.3675,0 -39.0673,23.578 -40.7585,30.318 -3.322,13.235 4.3942,39.698 21.1893,72.667 16.8042,32.987 14.5797,39.037 -4.2865,11.66 -14.5655,-21.134 -25.8646,-51.404 -25.8646,-69.285 0,-13.287 -0.4003,-13.813 -7.5793,-9.971 -4.1687,2.228 -21.6807,17.65 -38.9161,34.264 -31.2355,30.11 -31.3295,30.255 -29.082,44.313 3.0332,18.974 16.6601,41.425 40.2436,66.3 18.3711,19.38 50.7809,44.296 57.617,44.296 1.6931,0 14.3459,-7.021 28.1174,-15.6 z m 82.9343,-41.592 c 0,-2.508 -1.4602,-6.061 -3.2447,-7.895 -1.7848,-1.835 -9.8897,-23.072 -18.011,-47.193 -13.1091,-38.94 -14.7528,-47.421 -14.6476,-75.595 0.076,-20.466 2.0477,-36.353 5.5509,-44.737 6.569,-15.723 4.1914,-16.324 -21.8119,-5.517 l -18.0121,7.484 v 21.533 c 0,38.171 23.1575,104.011 49.4714,140.651 11.013,15.337 20.705,20.611 20.705,11.269 z m 62.2683,-11.122 c 29.1271,-6.119 48.9184,-12.661 67.376498,-22.264 14.374402,-7.478 26.609604,-15.028 27.189104,-16.774 0.5797,-1.747 -11.181002,-3.36 -26.135204,-3.585 -25.118798,-0.38 -45.272498,-4.485 -78.943998,-16.074 -16.7751,-5.777 -16.9072,-11.74 -1.032,-46.577 7.9869,-17.527 18.8736,-33.683 31.8945,-47.336 l 19.7686,-20.723 -18.4963,-5.492 c -11.5087,-3.419 -32.0266,-5.495 -54.3129,-5.495 -49.291,0 -51.56,1.957 -53.3751,46.035 -1.2268,29.796 -0.1894,36.737 10.9688,73.266 14.5698,47.704 25.2312,73.686 30.2359,73.686 1.9914,0 22.1795,-3.901 44.8621,-8.667 z m 692.1258,870.078 c 0,-2.895 1.5791,-5.264 3.5088,-5.264 1.93,0 3.509,2.369 3.509,5.264 0,2.895 -1.579,5.263 -3.509,5.263 -1.9297,0 -3.5088,-2.368 -3.5088,-5.263 z m -43.5148,-33.905 c -6.1525,-8.785 -4.4533,-13.464 4.8887,-13.464 6.8639,0 12.6027,11.392 8.8205,17.514 -3.4207,5.534 -7.9284,4.202 -13.7092,-4.05 z m 148.7792,-23.99 c 0,-1.93 2.3684,-3.509 5.2632,-3.509 2.8948,0 5.2632,1.579 5.2632,3.509 0,1.928 -2.3684,3.508 -5.2632,3.508 -2.8948,0 -5.2632,-1.58 -5.2632,-3.508 z m -46.4918,-21.335 c -7.7144,-4.493 -8.2497,-25.179 -0.8114,-31.353 12.0458,-9.994 26.3979,19.559 15.022,30.932 -5.0276,5.029 -6.2392,5.067 -14.2106,0.421 z m -1357.6902,-5.624 c 2.533,-1.013 5.5593,-0.889 6.7251,0.277 1.166,1.165 -0.9063,1.997 -4.6053,1.845 -4.0875,-0.158 -4.919,-1 -2.1198,-2.122 z m 1467.3405,-44.765 c 0,-3.009 1.579,-5.469 3.5088,-5.469 1.93,0 3.5089,1.484 3.5089,3.301 0,1.815 -1.5789,4.278 -3.5089,5.47 -1.9298,1.192 -3.5088,-0.292 -3.5088,-3.302 z m -33.4427,-5.646 c -3.334,-5.395 1.2328,-8.876 5.7365,-4.371 2.5199,2.519 2.5805,4.482 0.1841,5.964 -1.9648,1.213 -4.6287,0.497 -5.9204,-1.593 z m -95.1055,-8.573 c -1.2152,-3.166 -0.5271,-7.44 1.5293,-9.498 5.3461,-5.344 15.4754,-0.458 14.0788,6.793 -1.5556,8.076 -12.7988,10.026 -15.6081,2.705 z m 83.4953,-44.725 c -6.0524,-6.052 -4.9468,-9.684 2.9472,-9.684 3.8597,0 7.0178,2.274 7.0178,5.056 0,7.084 -5.128,9.465 -9.965,4.628 z m 32.2866,-21.965 c -2.8355,-7.39 1.0323,-15.79 7.2695,-15.79 6.1382,0 13.8087,12.61 10.7153,17.616 -3.2873,5.322 -15.7275,4.056 -17.9848,-1.826 z m -31.0939,-8.772 c -2.9369,-4.753 1.0261,-10.527 7.2248,-10.527 2.7809,0 5.0561,3.159 5.0561,7.017 0,7.266 -8.4651,9.684 -12.2809,3.51 z m -1063.1693,-171.933 c 1.1926,-1.929 2.8647,-3.508 3.7159,-3.508 0.851,0 1.5473,1.579 1.5473,3.508 0,1.932 -1.6724,3.511 -3.7161,3.511 -2.0437,0 -2.74,-1.579 -1.5471,-3.511 z m -191.2582,-21.103 c -3.0034,-5.613 -2.6186,-7.519 1.867,-9.24 7.2171,-2.768 13.7638,3.653 11.018,10.811 -2.8995,7.556 -8.3565,6.889 -12.885,-1.571 z m 275.4697,-6.966 c -1.1931,-1.931 -0.4966,-3.511 1.5471,-3.511 2.0437,0 3.7161,1.58 3.7161,3.511 0,1.929 -0.6965,3.508 -1.5474,3.508 -0.8511,0 -2.5232,-1.579 -3.7158,-3.508 z m -152.6333,-49.125 c 0,-1.928 1.579,-3.507 3.5087,-3.507 1.9297,0 3.5088,1.579 3.5088,3.507 0,1.93 -1.5791,3.509 -3.5088,3.509 -1.9297,0 -3.5087,-1.579 -3.5087,-3.509 z m 140.8786,-24.386 c 0.7719,-2.316 2.5482,-4.09 3.9475,-3.947 4.1955,0.433 3.3828,5.247 -1.1404,6.754 -2.3158,0.772 -3.5789,-0.491 -2.8071,-2.807 z m -81.2289,-5.145 c 0,-3.055 2.4999,-5.555 5.5555,-5.555 3.0558,0 4.9306,1.873 4.1668,4.165 -2.1687,6.506 -9.7223,7.587 -9.7223,1.39 z m 49.1233,-16.081 c 0,-1.932 2.3684,-3.512 5.2633,-3.512 2.8947,0 5.2631,1.58 5.2631,3.512 0,1.929 -2.3684,3.507 -5.2631,3.507 -2.8949,0 -5.2633,-1.578 -5.2633,-3.507 z m 30.2596,-12.414 c -1.1924,-3.108 0.2,-6.269 3.2845,-7.453 6.8655,-2.634 9.9983,0.534 7.3508,7.435 -2.6634,6.94 -7.9756,6.95 -10.6353,0.03 z m 569.7469,-23.661 c 0,-3.876 35.1104,-26.782 84.098,-54.866 60.6491,-34.772 115.6559,-71.146 149.238,-98.686 31.7826,-26.066 104.9915,-97.784 102.4302,-100.345 -4.2842,-4.284 -43.2789,10.734 -151.5535,58.368 -168.3994,74.085 -277.5509,108.373 -391.232499,122.896 -55.180899,7.051 -122.304303,8.828 -135.089201,3.575 -4.4316,-1.822 4.655798,-2.929 24.659998,-3.011 32.174804,-0.132 115.880203,-12.653 170.079003,-25.445 35.135099,-8.293 137.266199,-39.393 156.661999,-47.706 l 13.5154,-5.792 -30.9896,-4.603 c -63.6518,-9.448 -136.206199,-34.878 -260.241798,-91.214 -88.492502,-40.193 -102.904802,-51.932 -34.2695,-27.916 34.3895,12.032 50.8869989,18.5 106.199999,41.637 64.732099,27.074 132.569899,48.053 218.610499,67.604 l 27.3803,6.221 19.9886,-8.079 c 38.4792,-15.555 163.8813,-71.24 167.1835,-74.24 1.9078,-1.734 -5.353,-3.03 -16.9805,-3.03 -64.9891,0 -411.544899,-66.808 -462.74049905,-89.206 -17.91329895,-7.836 -7.47240005,-6.471 63.02280005,8.241 106.831699,22.294 195.414499,37.507 318.393999,54.684 63.5569,8.876 116.8682,16.947 118.4701,17.937 1.6019,0.99 15.5897,-3.09 31.0844,-9.064 36.1638,-13.947 78.3587,-23.737 113.8391,-26.416 65.7831,-4.965 145.5542,21.006 128.3156,41.776 -6.0788,7.325 -15.1926,7.017 -31.0859,-1.049 -27.8814,-14.153 -92.3939,-21.797 -127.5724,-15.121 -10.1014,1.919 -15.7913,6.422 -26.999,21.374 -43.1208,57.529 -99.6005,108.675 -175.962,159.339 -63.6725,42.244 -168.4551,93.334 -168.4551,82.137 z m 300.6835,-67.926 c -2.8032,-2.804 0.3655,-8.282 4.7901,-8.282 1.816,0 3.3018,2.368 3.3018,5.263 0,5.426 -4.1403,6.971 -8.0919,3.019 z m -65.593,-43.37 c 0,-1.932 1.5789,-3.51 3.5086,-3.51 1.9301,0 3.509,1.578 3.509,3.51 0,1.929 -1.5789,3.508 -3.509,3.508 -1.9297,0 -3.5086,-1.579 -3.5086,-3.508 z m 189.4756,-31.579 c 0,-1.931 1.5791,-3.511 3.5087,-3.511 1.9301,0 3.5091,1.58 3.5091,3.511 0,1.93 -1.579,3.508 -3.5091,3.508 -1.9296,0 -3.5087,-1.578 -3.5087,-3.508 z m -122.8084,-8.979 c 0,-3.01 1.6047,-4.479 3.5661,-3.266 1.9613,1.211 2.6577,3.674 1.5474,5.468 -3.0079,4.869 -5.1135,3.961 -5.1135,-2.202 z m 42.1057,1.96 c 0,-1.928 1.6721,-3.508 3.7158,-3.508 2.044,0 2.7401,1.58 1.5474,3.508 -1.1926,1.929 -2.8648,3.508 -3.7159,3.508 -0.8509,0 -1.5473,-1.579 -1.5473,-3.508 z m -863.1672,-8.979 c 0,-3.008 1.579,-4.494 3.5087,-3.302 1.9298,1.194 3.5087,3.656 3.5087,5.471 0,1.815 -1.5789,3.302 -3.5087,3.302 -1.9297,0 -3.5087,-2.463 -3.5087,-5.471 z m 89.4746,-8.565 c -1.4004,-2.267 -0.9676,-5.698 0.9624,-7.629 2.3391,-2.337 4.3575,-2.135 6.0551,0.613 1.4005,2.266 0.9677,5.7 -0.9622,7.628 -2.3392,2.34 -4.3576,2.135 -6.0553,-0.612 z m 19.2984,-14.035 c 0,-1.929 1.579,-3.507 3.5087,-3.507 1.9301,0 3.509,1.578 3.509,3.507 0,1.93 -1.5789,3.508 -3.509,3.508 -1.9297,0 -3.5087,-1.578 -3.5087,-3.508 z m 778.956,-3.766 c 0,-5.021 1.8895,-6.911 6.1002,-6.1 9.1464,1.761 10.1663,13.374 1.1746,13.374 -5.0213,0 -7.2748,-2.252 -7.2748,-7.274 z m -677.2005,0.264 c 0,-1.929 1.6722,-3.509 3.7159,-3.509 2.043702,0 2.740002,1.58 1.547402,3.509 -1.192802,1.928 -2.865002,3.508 -3.716102,3.508 -0.8507,0 -1.5472,-1.58 -1.5472,-3.508 z m 642.1123,-7.225 c 0,-2.044 1.5789,-2.739 3.509,-1.547 1.9297,1.192 3.5087,2.864 3.5087,3.716 0,0.85 -1.579,1.547 -3.5087,1.547 -1.9301,0 -3.509,-1.673 -3.509,-3.716 z m 49.1234,-12.366 c 0,-6.196 7.5536,-5.118 9.7222,1.387 0.7639,2.293 -1.1111,4.169 -4.1666,4.169 -3.0555,0 -5.5556,-2.5 -5.5556,-5.556 z m -22.6573,-18.762 c -2.397,-3.88 3.1381,-8.067 6.3782,-4.827 3.3361,3.337 2.7144,8.092 -1.0579,8.092 -1.8159,0 -4.2101,-1.471 -5.3203,-3.265 z m -1352.7962,-21.504 c 0,-3.973 1.579,-6.249 3.5088,-5.057 1.9296,1.194 3.5087,4.445 3.5087,7.226 0,2.782 -1.5791,5.056 -3.5087,5.056 -1.9298,0 -3.5088,-3.25 -3.5088,-7.225 z m 56.1409,1.753 c 0,-3.008 1.5789,-4.491 3.5088,-3.3 1.9299,1.192 3.5088,3.653 3.5088,5.469 0,1.818 -1.5789,3.303 -3.5088,3.303 -1.9299,0 -3.5088,-2.461 -3.5088,-5.472 z m 1326.3303,1.756 c 0,-2.045 1.5789,-2.74 3.5088,-1.548 1.9297,1.193 3.5086,2.865 3.5086,3.716 0,0.852 -1.5789,1.548 -3.5086,1.548 -1.9299,0 -3.5088,-1.672 -3.5088,-3.716 z m -1316.8781,-37.125 c -3.2745,-3.276 0.6827,-8.284 6.5446,-8.284 2.7808,0 5.056,2.369 5.056,5.263 0,5.287 -7.4072,7.213 -11.6006,3.021 z m -107.3838,-25.558 c -3.4145,-2.16 1.0658,-3.884 14.4569,-5.558 10.673,-1.332 36.5842,-9.442 57.5805,-18.021 174.0916,-71.132 191.4023,-76.953 240.3044,-80.811 31.018,-2.447 40.7388,3.139 16.3998,9.426 -61.5605,15.897 -85.0695,23.34 -117.5501,37.211 -64.0743,27.369 -106.0345,43.419 -136.86,52.354 -29.9563,8.678 -65.1146,11.233 -74.3315,5.399 z m 1469.8763,-55.34 c -59.3872,-6.361 -108.0964,-17.415 -288.7173,-65.535 l -100.9961,-26.905 -16.014,12.226 c -19.2529,14.703 -43.5539,24.18 -86.6539,33.8 -41.271,9.212 -94.451799,17.153 -98.426499,14.698 -6.2054,-3.835 9.2611,-8.342 69.208799,-20.173 62.7939,-12.395 102.3609,-25.34 112.8412,-36.923 5.6682,-6.262 5.3603,-6.655 -7.0187,-8.978 -15.5179,-2.911 -45.3232,-0.185 -100.9765,9.223 -70.751799,11.969 -118.493299,17.34 -149.697899,16.842 -16.5265001,-0.262 -26.100499,-1.184 -21.2759,-2.047 4.8245999,-0.862 43.5091,-8.487 85.9659,-16.942 89.085999,-17.742 142.232099,-26.147 165.326999,-26.147 15.2937,0 67.6831,12.283 194.326,45.563 125.8069,33.059 203.698,48.896 275.0954,55.935 35.2914,3.48 47.149,8.071 37.1594,14.384 -5.024,3.179 -44.4863,3.726 -70.1469,0.979 z m -368.4252,-32.855 c 0,-2.045 1.5789,-2.74 3.509,-1.548 1.9297,1.192 3.5087,2.863 3.5087,3.716 0,0.849 -1.579,1.548 -3.5087,1.548 -1.9301,0 -3.509,-1.675 -3.509,-3.716 z m -33.3336,-6.811 c -2.9371,-4.753 1.0262,-10.527 7.2246,-10.527 2.7811,0 5.0561,3.158 5.0561,7.017 0,7.266 -8.4648,9.683 -12.2807,3.51 z m 82.4573,-3.51 c -4.498,-2.906 -4.3706,-3.409 0.8771,-3.456 3.3772,-0.02 6.1403,1.527 6.1403,3.456 0,4.282 -0.3958,4.282 -7.0174,0 z m 285.9678,-58.549 c -35.0897,-2.287 -142.2613,-12.21 -222.8093,-20.631 -160.4806,-16.776 -197.1542,-22.43 -317.5476,-48.961 -85.172199,-18.768 -153.156898,-26.84 -242.6353,-28.803 -100.1526,-2.201 -116.5636,-0.316 -211.7554,24.303 -37.6319,9.731 -80.264,20.455 -94.7378,23.831 -24.4651,5.706 -25.6613,6.403 -17.0068,9.89 5.1204,2.064 19.331,5.503 31.5793,7.647 12.2485,2.142 27.6371,5.597 34.1969,7.677 10.3288,3.276 11.0948,4.25 5.7165,7.261 -15.1163,8.458 -70.8135,-3.047 -187.8207,-38.804 -113.2453,-34.605 -125.6993,-37.143 -183.3297,-37.326 -28.4622,-0.08 -51.7519,-1.17 -51.755,-2.39 -0.027,-4.791 17.7976,-7.24 64.9073,-8.926 57.2861,-2.047 78.289,1.728 173.5021,31.213 31.9438,9.89 63.8207,18.651 70.8381,19.466 8.4435,0.98 37.5182,-5.294 85.9657,-18.55 143.8891,-39.371 169.8354,-43.75 259.174,-43.737 97.1708,0.02 185.582801,10.015 266.6698,30.169 133.918,33.278 183.012,41.735 335.3257,57.74 44.9884,4.726 37.5749,5.426 190.2805,-17.959 104.6235,-16.021 105.1612,-16.061 103.5646,-7.72 -1.6683,8.715 -23.2532,13.376 -113.3758,24.481 -87.467,10.779 -86.9636,11.366 15.7896,18.347 33.7725,2.295 66.9308,5.083 73.6851,6.193 11.6938,1.921 11.8617,2.144 3.5089,4.657 -8.8262,2.656 -39.3953,3.054 -71.9307,0.932 z m -368.4251,-104.048 c -25.5797,-9.533 -59.5524,-32.127 -75.3457,-50.117 -6.4159,-7.305 -15.5668,-21.807 -20.3358,-32.223 -7.5461,-16.485 -8.4762,-22.648 -7.1696,-47.53 1.2537,-23.873 3.4003,-32.153 13.0112,-50.182 15.6542,-29.368 39.0831,-51.779 70.2219,-67.174 47.6175,-24.615 88.29919,-20.711 120.6545,-4.766 26.6492,13.2 55.7376,38.25 67.2754,57.938 28.7071,48.987 22.1905,116.905 -14.9723,156.046 -38.4742,40.519 -103.4043,56.614 -153.3396,38.008 z m 95.898,-37.326 c 53.2702,-24.654 71.8946,-70.394 53.2466,-130.767 -5.545,-17.955 -10.8258,-26.504 -25.4391,-41.188 -23.2592,-23.375 -39.13534,-29.935 -60.50314,-36.365 -14.7764,-4.448 -19.3737,-4.44 -36.7925,0.08 -43.5938,11.281 -72.45316,29.439 -91.14056,64.5 -27.4438,51.49 -13.8003,98.912 38.0165,132.136 45.28588,23.465 88.7487,26.739 122.6122,11.604 z m -915.6555,-144.01 c -36.65271,-7.715 -65.87039,-34.937 -66.1828,-69.056 0.063,-30.611 26.9824,-71.488 53.7035,-81.545 27.0511,-10.18 63.8288,0.288 93.0751,26.494 28.2651,25.327 26.7754,61.156 -3.9397,94.764 -25.7348,28.158 -43.4374,34.935 -76.6561,29.343 z m 48.19424,-33.148 c 31.41232,-22.42 26.42056,-57.953 12.11276,-81.419 -8.7698,-14.382 -26.56212,-31.895 -51.80086,-25.562 -34.33939,8.616 -63.90792,50.236 -45.92588,86.952 17.31846,35.361 59.56583,38.62 85.61398,20.029 z" fill="#00B894" transform="translate(108.8054,61.119072) matrix(0.26458333,0,0,0.26458333,110.44369,-5613.1827)"/>
</svg>