<?xml version="1.0" ?><svg height="95.998482mm" viewBox="0 0 139.65828 95.998482" width="139.65828mm" xmlns="http://www.w3.org/2000/svg">
    <path d="m 19087.996,-2505.8672 -292.682,2.5488 -1.648,4.2481 138.162,91.0664 155.615,3.7851 z m -298.33,8.7969 -3.734,69.2402 2.252,121.9512 68.15,-51.8867 67.494,-48.2383 z m 140.162,91.0664 -62.916,42.7109 -78.728,63.4141 298.863,0.8164 2.396,-101.1563 c -84.035,-6.7169 -135.403,-2.8924 -159.615,-5.7851 z" fill="#FFFFFF" transform="translate(85.37678,0.16031488) matrix(0.43747544,0,0,0.43747544,-6231.0714,2982.3148) translate(-4730.5688,-4305.3989)"/>
    <path d="m 14057.615,-6601.2775 c -3.415,-0.2628 -6.918,-1.3747 -7.786,-2.471 -1.869,-2.3644 -2.298,-33.3781 -0.959,-71.8694 0.498,-14.3 0.516,-39.2 0.04,-55.3333 -0.475,-16.1334 -0.81,-40.2152 -0.744,-53.5153 0.136,-27.7249 -1.424,-24.8388 14.618,-27.0551 39.932,-5.517 219.888,-8.0439 274.954,-3.8608 14.698,1.1165 27.396,2.4557 28.217,2.976 2.324,1.4713 1.578,5.7794 -1.344,7.7718 -2.416,1.647 -2.57,2.6523 -1.805,11.7423 2.608,30.9557 3.127,83.4149 2.25,134.7737 l -0.846,49.5736 c -0.09,10.2082 -4.167,11.1556 -11.201,10.2464 -7.412,-0.9718 -7.792,-2.321 -44.909,-2.3413 -22.803,-0.012 -61.286,0.6465 -85.518,1.4642 -54.448,-0.7292 -110.699,0.7852 -164.967,-2.1018 z m 168.104,-9.9535 c 55.113,-1.9251 95.64,-0.9432 113.025,-0.631 5.624,0.101 13.527,3.2275 14.606,-7.3602 l 1.174,-31.9732 c 0.824,-21.1323 1.231,-41.5725 0.918,-45.4225 l -0.567,-7 -9.48,-0.034 c -5.214,-0.019 -15.239,-0.597 -22.278,-1.2845 -16.578,-1.6193 -76.15,-0.4867 -101.737,-3.8337 l -20.121,-0.632 -21.105,14.9695 c -11.608,8.2334 -27.375,17.7348 -35.039,23.559 -21.827,16.5893 -77.454,58.7445 -78.466,60.2854 -0.621,0.9442 2.472,1.1204 9.662,0.5504 48.386,-2.2461 97.703,0.6048 149.408,-1.1932 z m -162.568,-7.6501 c 1.023,-1.5564 37.256,-29.3349 63.875,-50.4946 10.849,-8.6255 28.922,-20.0308 40.161,-27.7894 11.239,-7.7587 20.442,-14.3296 20.453,-14.6019 0.01,-0.2724 -6.305,-3.7335 -14.033,-7.6913 -13.534,-6.9305 -40.181,-26.5817 -61.177,-42.5246 -5.529,-4.1993 -15.2,-11.235 -21.49,-15.635 -6.29,-4.4 -15.824,-11.1765 -21.189,-15.059 -5.364,-3.8824 -9.892,-6.8824 -10.062,-6.6666 -0.172,0.2157 0.43,18.0923 1.336,39.7256 1.165,27.7991 1.278,54.6798 0.39,91.6667 -0.691,28.7833 -0.771,50.3333 -0.176,50.3333 0.595,0 1.456,-0.5684 1.912,-1.2632 z m 291.803,-124.2748 c -0.534,-16.0207 -1.096,-36.0993 -1.249,-44.6191 l -0.278,-15.4904 -10.116,-0.8148 c -36.542,-2.943 -88.127,-3.819 -170.702,-2.8988 -89.096,0.9928 -102.424,1.2889 -103.473,2.2986 -0.312,0.3006 7.171,5.5528 16.63,11.6715 9.458,6.1187 24.493,16.3619 33.409,22.7628 27.568,19.7878 44.185,32.4518 60.186,40.6242 8.461,4.3216 17.183,9.1749 19.382,10.785 3.707,2.7145 4.984,2.865 17.562,2.0684 13.641,-0.864 79.116,-0.1551 107.429,2.4447 20.364,1.8698 29.608,2.2179 31.02,1.1679 0.645,-0.4792 0.735,-13.9792 0.2,-30 z" fill="#00B894" transform="translate(85.37678,0.16031488) matrix(0.43747544,0,0,0.43747544,-6231.0714,2982.3148)"/>
</svg>