<?xml version="1.0" ?><svg height="94.500839mm" viewBox="0 0 132.26134 94.500839" width="132.26134mm" xmlns="http://www.w3.org/2000/svg">
    <path d="m 1859.5059,11606.891 2.0332,46.681 209.5293,5.74 257.1816,3.344 -0.9434,-51.404 -310.2519,-2.025 z m 46.8808,53.759 -45.2637,1.016 1.6504,55.303 188.125,-0.158 208.0137,4.511 71.8555,7.451 -2.9453,-61.562 -196.084,-2.785 z m 115.5098,59.313 -154.3418,1.06 -1.0977,37.811 -1.5488,69.182 103.8418,-2.493 173.2812,-3.162 125.7461,-1.367 60.3457,3.832 2.6446,-92.053 -127.3789,-8.576 z m 178.1601,106.18 -125.0527,2.572 -209.3652,6.293 -0.039,44.986 195.375,-2.519 266.8867,1.496 0.039,-49.295 z m -31.7519,55.961 -97.7012,1.22 -204.1152,4.906 3.3301,41.881 88.625,5.836 313.2089,-4.564 55.875,-0.815 2.3418,-47.597 z" fill="#FFFFFF" paint-order="markers stroke fill" transform="translate(-133.38396,-49.821894) translate(1180.6579,-2044.8685) matrix(0.26458333,0,0,0.26458333,-1536.012,-972.67847)"/>
    <path d="m 2101.7949,11593.207 c -184.1578,-0.05 -247.4873,0.996 -250.6504,4.158 -4.0048,4.006 -4.5344,35.095 -3.4629,164.467 l 1.3145,158.645 c -0.9555,22.523 2.8522,26.438 16.3164,28.625 23.4856,3.813 164.3497,-2.269 303.7207,-1.172 22.8044,0.177 127.759,-0.492 144.7168,-2.045 12.4091,-1.137 28.9049,1.864 29.4902,-6.969 l 0.5606,-8.484 1.9023,-28.592 c 2.1214,-31.851 1.7026,-214.92 -0.5957,-261.061 -1.3426,-26.952 0.5247,-37.342 -4.0918,-41.959 -6.9775,-5.855 -19.0551,-4.596 -35.1894,-4.566 -8.6922,0.09 -23.0114,-0.994 -204.0313,-1.047 z m -232.7969,17.242 v 0 0.01 c 0.9022,0.04 1.895,0.143 2.9668,0.336 4.5468,0.816 105.4899,1.937 224.3164,2.488 118.8287,0.552 218.7803,1.558 222.1153,2.238 9.762,-1.926 6.6888,10.658 6.0605,28.62 -0.3731,10.665 -0.06,17.378 -4.959,17.009 -158.4936,-2.529 -290.7711,-6.088 -452.2421,-9.761 -0.5762,-15.059 -1.5587,-19.614 -2.7305,-35.842 0,0 -1.8433,-5.361 4.4726,-5.1 z m -1.373,53.412 167.7363,1.274 c 25.2901,0.192 59.9092,2.03 86.2754,2.986 30.9195,1.122 75.0661,2.087 98.1035,2.143 23.0377,0.06 55.8807,0.743 72.9825,1.525 l 31.0996,1.422 c 1.169,23.315 1.7644,34.871 1.8636,46.491 -0.246,5.444 -6.1859,3.958 -6.1859,3.958 -14.7792,-1.105 -102.8064,-8.524 -192.9277,-8.574 l -224.5714,-0.225 c -10.5218,0.105 -22.3084,0.124 -32.8212,-0.236 -0.4025,-17.117 -0.2057,-6.633 -0.7285,-17.83 0.047,2.413 -0.6964,-23.628 -0.8262,-32.934 z m 242.9863,60.034 c 26.065,-0.02 140.0963,5.264 185.1875,8.576 16.3956,1.205 26.0429,1.19 29.8789,1.49 1.8106,18.889 1.375,47.458 0.4453,86.865 l -9.0214,0.444 c -6.255,0.309 -21.303,-1.255 -33.4278,-2.395 -18.9195,-1.78 -298.8971,4.182 -373.7281,5.935 l -39.6957,0.93 c -0.099,-21.032 -0.3874,-79.673 -0.8379,-101.275 l 15.4844,-0.272 c 75.2373,-0.294 150.4768,-0.229 225.7148,-0.298 z m 213.2969,107.781 c 1.9891,0.576 2.9988,7.558 2.7559,25.117 l -0.3164,20.797 -9.0176,-0.04 c -5.2547,0 -10.5365,0.04 -11.2442,-0.108 -5.8681,-1.109 -164.622,-2.485 -238.4668,-2.722 -28.4695,-0.09 -124.9092,0.717 -151.1553,1.026 l -13.7748,0.429 -32.0995,-0.19 c -0.1959,-14.831 -0.1834,-25.961 -0.2717,-38.228 l 11.3332,-0.642 238.4441,-7.254 c 65.0898,-1.98 167.4013,-0.117 203.8131,1.815 z m -162.3223,53.336 c 41.2255,1.779 99.0487,0.652 122.0879,0.668 l 41.8867,0.04 -0.6699,11.765 -0.6699,29.766 h -16.0918 c -8.8509,0 -21.9427,0.34 -29.0937,0.756 -27.7234,1.612 -296.9818,7.661 -356.9161,2.635 -14.5504,-1.22 -29.1848,-2.234 -32.5195,-2.254 -16.4511,-2.165 -17.8327,-4.11 -18.0859,-13.262 -0.2784,-10.067 -0.8145,-23.301 -0.8145,-23.301 l 2.9024,-0.09 156.9726,-4.066 c 46.7679,-0.392 88.8731,-4.448 131.0117,-2.657 z" fill="#00B894" transform="translate(-133.38396,-49.821894) translate(1180.6579,-2044.8685) matrix(0.26458333,0,0,0.26458333,-1536.012,-972.67847)"/>
</svg>