<?xml version="1.0" ?><svg height="68.112877mm" viewBox="0 0 132.04407 68.112877" width="132.04407mm" xmlns="http://www.w3.org/2000/svg">
    <path d="m -1038.3697,3366.2196 124.789,0.9935 -0.4732,61.1214 -126.9521,1.4613 z" fill="#FFFFFF" paint-order="markers stroke fill" transform="translate(87.914941,-149.34833) translate(955.3443,-3214.7446)"/>
    <path d="m -1042.5937,3431.3834 c -0.7441,-0.9057 -0.8238,-5.9112 -0.4392,-27.6485 0.4603,-26.0305 1.2331,-38.0473 2.5322,-39.3796 0.8103,-0.831 125.51969,0.576 127.95115,0.5939 1.99961,0.014 1.2548,9.196 0.90364,19.2445 -0.46303,13.2803 -0.41141,21.7195 0.18998,30.9015 0.45439,6.9475 0.10291,13.2338 -0.13407,13.9778 -0.23699,0.7437 -1.25765,1.5717 -2.26834,1.8396 -1.01049,0.2681 -22.09484,0.3447 -46.85427,0.1705 -43.02419,-0.3029 -74.45989,0.091 -78.90289,0.9882 -1.4887,0.3007 -2.3242,0.1081 -2.978,-0.6879 z m 50.74126,-5.8787 c 12.03671,-0.2459 33.09001,-0.093 48.33954,0.3496 l 25.53287,0.4948 c 2.15884,0.042 1.618,-2.7871 1.57141,-4.3756 -0.10323,-3.5196 -0.44288,-6.0114 -0.44557,-7.648 v -2.9754 l -22.02224,0.1696 c -11.82133,0.091 -32.76418,0.2318 -46.53999,0.3001 -21.60538,0.1069 -25.24378,0.2722 -26.47768,1.2029 -0.7867,0.5934 -4.9753,3.719 -9.308,6.9459 -4.3327,3.227 -7.8775,6.047 -7.8775,6.2669 0,0.2199 3.5793,0.2436 7.954,0.052 4.3748,-0.1913 17.55,-0.5436 29.27816,-0.7833 z m -30.74586,-10.5001 c 3.9857,-3.1164 10.1009,-7.8038 13.5891,-10.4166 l 6.3424,-4.7505 -6.5349,-5.4061 c -3.5941,-2.9733 -8.8527,-7.2382 -11.6855,-9.4776 -2.8331,-2.2394 -7.7309,-6.1668 -10.8841,-8.7276 -3.1533,-2.5606 -5.7734,-4.596 -5.8223,-4.5231 -0.05,0.072 0.1497,3.6387 0.4394,7.924 0.2909,4.2852 0.55,16.4078 0.5761,26.9392 l 0.048,19.148 3.3427,-2.5216 c 1.8385,-1.387 6.6039,-5.0717 10.5899,-8.1881 z m 46.99265,-7.6091 c 6.51564,-0.2914 22.28005,-0.5908 35.03213,-0.6649 l 23.71453,-0.1283 -5.8e-4,-8.1897 -7.7e-4,-8.1895 -44.53003,-0.5394 c -24.20049,-0.2932 -44.00093,-0.3584 -44.00073,-0.1434 0,0.2141 1.945,1.9909 4.3219,3.9482 6.46371,5.3227 6.37256,7.2673 -0.5612,11.9587 -2.0684,1.3994 -3.7607,2.5965 -3.7607,2.66 0,0.2379 18.37257,-0.201 29.78583,-0.7117 z m -1.01549,-22.7143 c 17.87157,0.061 38.58614,0.4314 46.03245,0.8249 7.4465,0.3934 14.10849,0.7082 14.1578,0.6916 0.0499,-0.018 -2.4e-4,-9.2296 0.30922,-13.8769 0.28066,-3.3799 0.70552,-3.0636 -3.16487,-3.1253 -32.42347,-0.5168 -114.53356,-1.2229 -114.53126,-1.0362 0,0.1861 2.972,2.4292 6.5995,4.9847 3.6277,2.5552 8.728,6.3312 11.3342,8.3913 2.7786,2.196 5.1586,3.5985 5.7541,3.3907 0.5585,-0.1949 15.63753,-0.3051 33.50886,-0.2448 z" fill="#00B894" transform="translate(87.914941,-149.34833) translate(955.3443,-3214.7446)"/>
</svg>