<?xml version="1.0" ?><svg height="96.178101mm" viewBox="0 0 134.07835 96.178101" width="134.07835mm" xmlns="http://www.w3.org/2000/svg">
    <path d="m -690.52085,3258.967 -1.7499,-89.3128 h 127.50266 v 87.5629 z" fill="#FFFFFF" transform="translate(53.82082,-60.136253) translate(641.16611,-3106.4212)"/>
    <path d="m 3192.748,15645.26 c -5.1705,0.121 -12.4726,3.412 -12.6523,6.732 -0.084,1.647 0.6997,3.006 1.75,3.026 1.0519,0.04 0.5666,16.396 -1.0801,36.39 -2.0551,24.97 -2.572,56.281 -1.6445,100.004 0.7444,35.008 1.2069,93.703 1.0254,130.434 -0.3345,67.912 0.1164,77.728 3.8672,82.623 2.9541,3.861 109.6397,5.567 202.2597,3.234 39.5257,-0.995 105.6496,-1.306 146.9395,-0.689 102.6654,1.539 135.9588,-0.662 143.9707,-9.526 3.2532,-3.6 3.7388,-10.993 4.3555,-65.881 1.0352,-92.072 0.6241,-145.871 -1.4981,-195.541 -2.3341,-54.617 -1.7478,-69.123 2.9824,-73.828 3.0582,-3.041 3.1389,-4.092 0.6016,-7.767 -2.5827,-3.741 -6.3886,-4.403 -31.7773,-5.539 -15.8643,-0.71 -65.6442,-0.873 -110.6192,-0.362 -149.9105,1.704 -341.2234,0.449 -344.3691,-2.259 -0.9057,-0.779 -2.3889,-1.091 -4.1114,-1.051 z m 4.1954,13.701 5.3164,1.672 c 8.4797,2.667 114.0352,5.269 225.5527,6.49 -0.2796,27.124 -0.4073,52.475 -0.5039,77.477 -5.3122,0.8 -10.3313,1.866 -14.8281,3.004 -39.0148,12.437 -53.619,46.287 -50.793,78.099 3.1289,35.222 33.7271,62.257 64.5645,64.672 -0.4266,29.42 -1.0395,61.012 -2.0215,96.879 -2.7612,0.07 -5.5681,0.133 -7.7012,0.215 -69.7637,4.551 -131.0638,-0.307 -202.2871,4.219 l -15.8555,1.124 0.5977,-61.671 c 0.596,-61.51 -0.2831,-131.021 -1.541,-156.823 -0.7629,-26.609 -1.03,-63.454 -0.8418,-81.871 z m 468.5332,7.715 -2.2871,22.019 c -1.2637,12.11 -1.7495,41.592 -1.0957,65.514 0.5964,21.832 1.0732,49.105 0.5117,99.996 -0.3428,31.075 -0.6653,73.131 -0.6485,93.455 0.015,24.006 -0.772,37.691 -2.2793,39.065 -1.4552,1.327 -39.263,1.557 -101.3828,0.615 -41.4686,-0.63 -88.2197,-0.743 -118.5976,-0.367 -1.3743,-28.547 -1.7853,-61.713 -1.7793,-96.885 8.3273,-0.642 17.4269,-2.092 23.8496,-4.121 24.9229,-7.877 32.328,-20.77 35.1269,-26.067 2.5204,-4.77 -0.7325,-6.017 -5.3886,-4.566 -2.9646,0.926 -17.6322,8.353 -29.0801,9.875 -8.5659,1.139 -16.8117,1.665 -24.4629,1.289 0.1779,-33.754 0.6564,-68.947 1.1055,-104.002 2.8968,-0.995 5.9984,-1.845 9.3652,-2.545 7.5574,-1.572 27.6669,2.179 35.6855,7.233 10.4104,6.561 11.4105,-3.301 2.1993,-11.051 -13.1355,-11.052 -30.6584,-13.667 -47.045,-12.778 0.3102,-25.87 0.5858,-51.574 0.6172,-76.107 76.4035,0.764 154.0448,0.868 203.9473,-0.137 z m -238.2657,101.345 c -0.112,30.952 -0.3246,63.082 -0.7011,97.104 -12.1996,-2.471 -22.1106,-8.226 -28.2149,-18.914 -7.7134,-14.787 -11.1858,-40.24 13.8946,-65.932 4.7731,-4.889 9.5725,-8.961 15.0214,-12.258 z m 49.0977,12.69 c -1.5972,0 -6.3965,5.791 -9.166,9.236 -4.7405,5.892 -5.5627,6.094 -13.8184,3.393 -4.8265,-1.58 -10.091,-1.942 -11.4336,-1.119 -4.9092,3.007 -0.2102,8.32 4.959,14.019 6.5533,7.226 8.7629,5.212 1.3984,12.932 -7.3015,7.654 -10.9971,16.542 -5.7871,19.873 3.1168,1.993 7.566,-0.712 11.1075,-3.891 4.4115,-3.956 4.7786,-3.87 8.6757,2.028 2.7283,4.126 10.8199,10.592 14.3301,10.097 4.4528,-0.629 3.3989,-6.37 3.25,-14.668 -0.1504,-8.095 0.5401,-7.731 3.918,-8.699 7.6677,-2.197 17.0647,-3.976 17.875,-5.279 2.409,-3.863 -6.3685,-7.32 -13.9727,-11.776 -6.7014,-3.923 -5.2155,-3.166 -4.2109,-8.97 1.5194,-8.78 -3.061,-17.176 -7.125,-17.176 z" fill="#00B894" transform="translate(53.82082,-60.136253) translate(641.16611,-3106.4212) matrix(0.26458333,0,0,0.26458333,-1536.012,-972.91664)"/>
</svg>