<?xml version="1.0" ?><svg height="97.257401mm" viewBox="0 0 134.17998 97.257401" width="134.17998mm" xmlns="http://www.w3.org/2000/svg">
    <path d="m -1036.8696,2849.0878 125.44809,0.2003 1.67283,88.5422 -128.34302,-0.7217 z" fill="#FFFFFF" paint-order="markers stroke fill" transform="translate(77.416833,-101.73013) translate(964.39516,-2743.7376)"/>
    <path d="m -1011.7006,2845.4704 c -8.1101,0.024 -14.3543,0.15 -17.2899,0.4614 -3.569,0.3781 -6.8686,0.5355 -7.3308,0.3482 -0.4623,-0.1868 -1.383,0.177 -2.0459,0.8088 -1.0006,0.9531 -1.4051,2.8816 -2.3745,11.3038 -1.2191,10.5998 -1.3355,18.137 -0.6584,42.5673 0.2038,7.3525 0.4099,16.842 0.4579,21.0878 0.1152,10.1417 0.4103,12.3478 1.3513,13.3101 0.4276,0.4371 0.8596,1.2846 0.9602,1.883 0.3586,2.1379 3.2659,3.6119 8.3276,4.2212 v 0 c 20.0186,2.2106 40.52293,0.8631 60.63095,0.789 7.04067,-0.3897 17.85366,0.067 24.0285,-0.073 13.01533,-0.2944 22.84151,-0.7911 27.91923,-1.4107 1.96826,-0.24 4.49334,-0.2641 5.61052,-0.053 2.03988,0.3699 4.42978,-0.2267 4.48188,-4.4714 -0.43066,-5.4909 -0.54549,-6.245 -0.32348,-12.2349 0.19312,-5.1398 0.18198,-13.5903 -0.0222,-18.7793 -0.29454,-7.5615 0.76014,-17.5273 -0.20619,-30.1718 -0.96012,-12.5597 -0.45691,-16.4798 -0.75809,-20.5097 -0.6785,-9.076 3.42276,-9.0765 -18.31673,-8.6508 -18.98542,0.372 -60.11143,-0.494 -84.44189,-0.4247 z m 51.55604,4.9186 c 11.72371,0.031 29.67659,0.4617 37.04632,0.7059 8.30014,0.2762 10.11801,-0.8393 9.39993,6.858 -0.3448,3.6933 0.24982,12.619 -0.0175,19.8189 l -0.48524,13.0905 -12.61679,-0.061 c -5.73506,-0.028 -18.17362,-0.1082 -29.21992,-0.182 -0.13288,-3.0308 -0.44755,-6.0312 -0.87077,-7.1115 -0.53216,-1.3586 -0.4499,-1.6425 0.74879,-2.5855 2.09603,-1.6489 1.63161,-3.2025 -0.99734,-3.3361 -1.42481,-0.073 -1.77687,-1.7103 -0.63821,-2.9684 0.9484,-1.048 0.61585,-2.7181 -0.54104,-2.7181 -0.40042,0 -1.5203,0.6811 -2.48875,1.5129 -1.72067,1.4783 -9.60205,6.5284 -10.18802,6.5284 -0.16243,0 -0.68326,-0.5922 -1.15755,-1.3158 -0.80431,-1.2274 -0.78899,-1.4399 0.22841,-3.1642 1.19944,-2.033 1.78882,-2.2672 7.04763,-2.8022 2.20924,-0.2249 3.69377,-0.6395 3.86231,-1.0787 0.43828,-1.1422 -2.15279,-2.7683 -5.04466,-3.166 -2.14831,-0.2955 -3.13062,-0.1421 -5.05446,0.7895 -1.85973,0.9002 -2.62446,1.0293 -3.45768,0.5835 -0.76285,-0.4088 -1.44122,-0.4038 -2.36316,0.016 -1.04687,0.4771 -1.71206,0.3752 -3.49385,-0.5339 -3.62217,-1.8479 -8.68103,-1.2885 -10.73525,1.1864 -0.94642,1.1403 -0.17807,2.6649 1.16633,2.3132 0.60741,-0.159 1.38301,-0.057 1.72342,0.2252 0.34039,0.2826 2.05121,0.663 3.80182,0.8459 3.98341,0.4164 5.91035,1.7499 4.99661,3.4573 -0.3397,0.6352 -0.50364,1.7505 -0.36537,2.4778 0.38386,2.0085 -0.89974,2.0931 -3.7729,0.2495 -1.40399,-0.9006 -3.67059,-2.1328 -5.0369,-2.7371 -1.36612,-0.6043 -2.62284,-1.461 -2.7926,-1.9034 -0.35634,-0.9284 -1.72236,-1.0716 -2.23964,-0.2344 -0.19373,0.3132 0.0551,1.0199 0.55292,1.5697 1.14568,1.2663 0.67488,2.8655 -1.07846,3.6645 -1.58788,0.7234 -1.80602,2.749 -0.33745,3.1332 0.87317,0.2281 1.03214,1.0414 1.31982,6.7659 0.006,0.1133 0.0114,0.1977 0.0169,0.3075 -0.82449,0.01 -1.72471,0.013 -2.28925,0.024 -5.83099,0.1045 -15.08849,0.1947 -20.57239,0.1947 v 0 c -5.4844,0 -12.2574,0.077 -15.0523,0.167 l -5.0824,0.1632 -0.2062,-7.6226 c -0.2456,-9.0683 0.5036,-30.8851 1.0775,-31.3944 0.8053,-0.7147 16.7653,-1.4137 33.5271,-1.4677 9.42675,-0.031 26.11682,-0.1444 37.08825,-0.2521 1.37154,-0.013 2.91922,-0.018 4.59404,-0.013 z m -0.43201,25.2656 c 0.22106,0 0.40198,0.9567 0.40203,2.1286 -5e-5,1.8272 -0.22995,2.2486 -1.61798,2.9667 -1.50156,0.7763 -1.64253,0.7681 -1.95905,-0.1198 -0.18754,-0.5266 -0.42749,-1.1216 -0.53539,-1.3229 -0.21669,-0.4072 3.07608,-3.6526 3.71039,-3.6526 z m -14.87662,2.142 c 0.44235,0 0.80409,0.2413 0.80409,0.5364 0,0.2947 -0.36174,0.5357 -0.80409,0.5357 -0.4422,0 -0.8041,-0.241 -0.8041,-0.5357 0,-0.2951 0.3619,-0.5364 0.8041,-0.5364 z m -15.81455,1.0113 1.53842,0.9094 c 1.06344,0.6283 1.45833,1.2165 1.27794,1.9063 -0.50665,1.9367 -2.81636,0.935 -2.81636,-1.2216 z m 25.93227,0.9157 c 0.21809,0.019 0.36917,0.285 0.51316,0.8356 0.16872,0.6471 0.18401,1.3755 0.0336,1.6195 v 0 c -0.47503,0.7683 -1.1476,0.4823 -1.43298,-0.6099 -0.1515,-0.5786 0.0319,-1.307 0.40772,-1.619 0.19188,-0.1593 0.34716,-0.2373 0.478,-0.2262 z m -9.20047,0.9358 c 0.47599,-0.021 0.9206,0.098 1.25315,0.3742 1.1806,0.981 0.93041,1.706 -0.35139,1.0199 -0.81712,-0.4363 -1.29212,-0.4418 -1.71567,-0.019 v 0 c -0.32215,0.3223 -0.92882,0.5855 -1.34823,0.5855 -0.60815,0 -0.63064,-0.1587 -0.11213,-0.7834 0.59986,-0.7228 1.48095,-1.1435 2.27427,-1.1777 z m 6.69986,0.3855 c 0.33854,-0.01 0.67789,0.3903 0.88056,1.1653 v 0 c 0.17174,0.6582 0.11679,1.3922 -0.12194,1.6309 -0.62275,0.623 -1.85412,-1.051 -1.48363,-2.017 0.19844,-0.517 0.46117,-0.772 0.72451,-0.7792 z m -19.48254,0.1789 c 0.14147,0 0.29692,0.069 0.45527,0.2273 0.35089,0.3508 0.34272,0.867 -0.0243,1.5208 -0.5121,0.912 -0.58277,0.9181 -0.90691,0.077 -0.35653,-0.9253 -0.0296,-1.8225 0.47593,-1.8251 z m 27.34614,0.9364 c 0.0301,0 0.0512,0.01 0.063,0.016 0.0945,0.097 0.45207,2.5318 0.79428,5.4102 0.7086,5.9584 0.15073,10.1164 -1.66812,12.4286 -0.59539,0.7569 -1.58163,1.643 -2.1916,1.9693 -1.00523,0.5381 -1.07577,0.4752 -0.75086,-0.6731 1.6251,-5.7449 2.02978,-8.5339 1.74408,-12.0439 -0.17034,-2.0941 -0.44897,-4.1695 -0.61857,-4.6117 -0.19161,-0.499 0.22725,-1.1549 1.10485,-1.7301 0.6804,-0.4455 1.31252,-0.7593 1.52291,-0.7657 z m -25.43153,0.9466 c 0.0549,-0.01 0.11583,-0.01 0.18293,0 1.55869,0.122 3.067,0.8189 3.067,1.4169 0,1.1427 -0.69924,1.271 -2.31355,0.4254 -1.23989,-0.6498 -1.76077,-1.7735 -0.93638,-1.8428 z m 13.3904,0.635 c 0.63447,-0.013 1.162,0.4276 1.56734,1.3174 0.34224,0.7509 0.62219,1.4745 0.62219,1.6081 v 0 c 0,0.3495 -1.62086,0.2149 -3.48453,-0.2894 -0.88458,-0.2392 -2.51323,-0.59 -3.61892,-0.7797 -1.10569,-0.1898 -2.0102,-0.5753 -2.0102,-0.8568 0,-0.7297 2.87912,-0.6352 3.63284,0.1188 0.48355,0.4832 0.86251,0.4205 1.62369,-0.2683 0.61608,-0.5574 1.17412,-0.8408 1.66759,-0.8506 z m -18.34203,0.571 c 0.0614,-0.01 0.131,0.01 0.20929,0.034 0.50744,0.1773 0.70167,0.9099 0.59531,2.2358 -0.0877,1.0845 0.22019,4.1693 0.68368,6.8548 0.46424,2.6858 0.73314,4.994 0.59788,5.1279 -0.54022,0.54 -1.99345,-5.7621 -2.30269,-9.9857 -0.23892,-3.2647 -0.21326,-4.2246 0.21653,-4.2669 z m 25.94311,0.9893 c 0.26699,0 0.48575,2.0759 0.48575,4.613 0,4.6244 -1.01973,9.8483 -2.46959,12.6521 -0.42596,0.8236 -1.00973,1.4981 -1.2971,1.4981 -0.68535,0 -0.68966,0.018 0.5297,-2.3731 1.64073,-3.2181 2.87835,-9.639 2.55177,-13.2395 -0.15713,-1.7335 -0.0675,-3.1506 0.19947,-3.1506 z m -23.28177,0.848 c 0.31787,-0.083 0.80253,1.6385 1.2609,4.9122 0.36153,2.5816 1.21997,6.2013 1.90788,8.0442 0.68842,1.8425 1.05802,3.3501 0.8222,3.3501 -1.7915,0 -4.34756,-7.9494 -4.34756,-13.5197 0,-1.828 0.13907,-2.7299 0.35658,-2.7868 z m 21.44519,0.3151 c 0.74952,0.1191 -0.30559,9.993 -1.44589,12.9087 -0.66318,1.6955 -1.35303,3.0494 -1.53326,3.0102 -0.18021,-0.04 -0.8708,-0.1783 -1.53427,-0.3058 -0.66331,-0.1278 -1.20613,-0.3022 -1.20613,-0.3882 0,-0.085 0.8232,-1.0282 1.82936,-2.095 2.25224,-2.3881 3.6585,-6.4336 3.47006,-9.9832 -0.0781,-1.4724 0.0551,-2.8633 0.29612,-3.0914 0.0458,-0.043 0.0872,-0.061 0.12401,-0.055 z m -19.02468,1.0073 c 0.1796,-0.01 0.41257,0.055 0.70385,0.1664 0.68625,0.2632 0.77922,0.8358 0.48988,3.0162 -0.53901,4.0638 0.53006,7.1372 3.34502,9.615 2.06562,1.8182 2.21453,2.0926 1.26918,2.34 -2.24267,0.5863 -4.62971,-3.9878 -5.91334,-11.3327 -0.49686,-2.8427 -0.53599,-3.7761 0.10541,-3.8049 z m 6.28232,0.1354 c 0.72777,0 1.76671,0.2464 3.27422,0.7163 3.58098,1.1162 4.11835,1.8023 1.41126,1.8023 -0.99078,0 -2.89266,0.1495 -4.22661,0.3323 -2.40646,0.3299 -2.42345,0.3215 -2.14871,-1.1163 0.22675,-1.1856 0.62617,-1.7298 1.68984,-1.7346 z m 9.26455,4.1841 c 0.57912,0 0.39214,0.4538 -0.14936,2.0072 -0.71482,2.05 -1.15827,2.1076 -2.34146,0.3019 -1.06055,-1.6185 -1.07473,-1.5934 1.18753,-2.0781 0.61868,-0.1325 1.04003,-0.2294 1.30329,-0.231 z m -9.5798,0.1474 c 1.35554,-0.024 1.46167,0.4747 0.79222,2.6556 -0.91255,2.9732 -1.58785,2.499 -2.15027,-1.5105 -0.10893,-0.7765 0.17941,-1.0829 1.07024,-1.1337 0.1016,-0.01 0.19746,-0.011 0.28781,-0.011 z m 3.42824,0.036 c 0.18759,0.016 0.381,0.2932 0.58187,0.8316 1.95289,5.2342 1.98575,5.4012 1.16789,5.9185 -2.19617,1.389 -3.37142,0.1651 -2.90991,-3.0287 0.36441,-2.5215 0.74742,-3.7558 1.16015,-3.7214 z m -60.13692,2.7797 15.1825,0.1225 c 7.977,0.065 20.1085,0.069 27.92186,0.016 0.25686,2.1397 0.67067,3.2605 1.59526,5.1258 1.16509,2.3505 1.42639,3.3374 0.95911,3.6229 -2.16183,1.3211 -2.25187,1.4409 -1.58337,2.1095 0.52062,0.5205 0.92993,0.4033 1.95492,-0.5596 1.23926,-1.1644 1.35689,-1.1784 2.66391,-0.322 l 1.36737,0.8956 -1.45056,1.2846 c -1.22179,1.0819 -1.32413,1.3671 -0.64957,1.8087 0.5975,0.391 1.22102,0.1169 2.45618,-1.0806 0.91056,-0.8824 1.99768,-1.4954 2.41588,-1.3631 0.41804,0.1326 1.42568,0.3868 2.23914,0.5652 1.40642,0.3085 1.43984,0.3847 0.67334,1.5544 -0.69525,1.0612 -0.70257,1.3718 -0.0532,2.2598 0.74112,1.0144 0.77099,1.0141 1.95233,-0.034 l 1.19994,-1.0658 -0.34055,2.1964 c -0.11279,0.7254 -0.15031,1.4284 -0.11887,1.9224 -7.77479,0.088 -16.10585,0.1395 -23.42552,0.1275 v 0 c -9.7714,-0.013 -19.3256,-0.01 -31.242,0.1741 l -2.8892,0.2212 -0.2537,-3.1784 c -0.1402,-1.7484 -0.3264,-6.1542 -0.4145,-9.7901 z m 80.02612,0.304 c 15.71898,0.145 31.44991,0.3472 36.72491,0.5183 l 4.76509,0.1546 0.24442,2.8276 c 0.13436,1.5552 0.33004,5.2551 0.43461,8.2216 l 0.19015,5.3941 -12.68812,0.3132 c -6.97881,0.172 -20.27068,0.5795 -29.53721,0.9055 -4.08688,0.1436 -10.49014,0.2664 -17.52811,0.3627 0.0717,-0.3789 0.0754,-0.9305 0.0754,-1.7592 v -2.5157 l 1.10691,1.0414 c 2.05714,1.9357 4.44558,0.6149 3.01895,-1.6698 -0.53507,-0.8567 -0.23961,-1.0699 2.73005,-1.9724 l 3.33005,-1.0123 1.6588,1.2398 c 0.91239,0.6818 2.05798,1.2396 2.54609,1.2396 1.34564,0 1.08008,-1.9934 -0.39429,-2.9594 l -1.28209,-0.8403 1.41595,-1.4758 c 1.39668,-1.4558 1.43179,-1.4619 2.56987,-0.4684 1.22724,1.0769 3.44686,1.0827 3.7982,0.016 0.1161,-0.3529 -0.75753,-1.1356 -1.94149,-1.7394 -2.08187,-1.0623 -2.1336,-1.1533 -1.57043,-2.7688 0.18552,-0.5321 0.29093,-1.6563 0.33226,-3.052 z m -19.42465,0.9647 c -0.49736,0 -0.84336,0.4583 -0.84336,1.1168 0,1.3065 1.2527,1.1216 1.5136,-0.2233 0.10258,-0.5292 -0.17105,-0.8935 -0.67024,-0.8935 z m 61.327,20.4226 0.28009,3.1631 c 0.43958,4.9612 -0.0169,15.208 -0.7462,15.6041 -0.98102,0.5329 -10.22546,0.9631 -29.00855,1.3504 -9.26121,0.1908 -21.33502,-0.2812 -26.83092,0.038 -22.26228,1.1481 -42.70329,-0.804 -64.52419,-1.081 -0.7702,-0.2292 -0.8686,-0.8914 -0.5897,-8.4098 l 0.3344,-9.0247 27.3993,0.5342 c 15.06992,0.2945 31.61249,0.3863 36.76006,0.2048 5.14848,-0.1815 19.04722,-0.6707 30.88751,-1.0869 11.84032,-0.416 22.54229,-0.8769 23.78358,-1.0242 z" fill="#00B894" transform="translate(77.416833,-101.73013) translate(964.39516,-2743.7376)"/>
</svg>