<?xml version="1.0" ?><svg height="96.177811mm" viewBox="0 0 134.07835 96.177811" width="134.07835mm" xmlns="http://www.w3.org/2000/svg">
    <path d="m -2142.047,2868.7566 127.7888,0.7583 -1.9599,89.912 -126.745,-0.3347 z" fill="#FFFFFF" paint-order="markers stroke fill" transform="translate(-23.456131,-51.974201) translate(2168.6968,-2814.6648)"/>
    <path d="m -2141.5178,2866.6398 c -1.368,0.032 -3.3001,0.9025 -3.3476,1.7809 -0.022,0.4358 0.1851,0.7959 0.463,0.8009 0.2783,0.01 0.1499,4.3379 -0.2858,9.6279 -0.5437,6.6067 -0.6805,14.8911 -0.4351,26.4594 0.197,9.2626 0.3193,24.7926 0.2713,34.511 -0.089,17.9683 0.031,20.5655 1.0232,21.8606 0.7816,1.0216 29.0088,1.4727 53.5146,0.8554 10.4578,-0.2632 27.9531,-0.3453 38.8777,-0.182 27.1635,0.4072 35.9724,-0.1754 38.0922,-2.5207 0.8609,-0.9525 0.9893,-2.908 1.1524,-17.4305 0.2739,-24.3607 0.1652,-38.595 -0.3963,-51.7369 -0.6176,-14.4507 -0.4625,-18.2888 0.7891,-19.5336 0.8091,-0.8046 0.8304,-1.0827 0.1592,-2.0553 -0.6835,-0.9898 -1.6904,-1.165 -8.4078,-1.4655 -4.1974,-0.1879 -17.3684,-0.2313 -29.268,-0.096 -39.6638,0.4509 -90.282,0.1191 -91.1143,-0.5974 -0.2397,-0.2061 -0.6321,-0.2887 -1.0878,-0.2781 z m 1.1074,3.8711 h 0.7953 l 0.6139,0.1932 c 2.03,0.6384 25.1105,1.2618 51.3359,1.6144 0.032,5.1033 -1.0786,31.9114 -1.3792,32.2027 -0.2169,0.2101 -11.7869,0.5525 -25.7116,0.7602 l -25.3525,0.3638 c -0.052,-1.91 -0.1068,-3.6272 -0.1669,-4.8617 -0.2019,-7.0403 -0.2725,-16.7889 -0.2227,-21.6617 z m 123.9687,1.7952 -0.6052,5.8262 c -0.3343,3.2041 -0.4628,11.004 -0.2899,17.3333 0.068,2.498 0.1255,5.3888 0.1623,8.8144 l -13.5671,-0.019 c -7.7247,-0.011 -18.143,0.3075 -23.1516,0.708 -5.0085,0.4006 -10.2778,0.4488 -11.6558,0.4773 -1.4503,0.03 -2.2156,-0.09 -2.3702,-3.6347 l -0.2031,-12.8025 c -0.082,-8.604 -0.1375,-15.0463 -0.1375,-16.4827 17.5484,0.1341 34.6069,0.1264 46.0928,-0.1048 z m -68.7028,0.049 c 4.8039,0.061 9.6604,0.1128 14.5293,0.1535 l -0.086,0.359 c -0.6598,2.7456 -0.5847,33.8993 0.083,34.6033 0.8415,0.8877 4.8828,0.9454 25.832,0.3678 10.0172,-0.276 20.5269,-0.2979 23.3541,-0.049 l 4.284,0.3773 c 0.014,3.2555 0,7.0678 -0.038,11.6332 h -18.9342 c -20.3409,0 -32.9677,0.766 -33.7975,2.0434 -0.2573,0.3948 -0.3387,1.6859 -0.1839,2.8686 0.5203,3.9516 1.1055,29.9056 0.7116,31.5463 h 5e-4 l -0.1788,0.7448 c -5.4818,0.02 -10.1012,0.078 -12.7403,0.1786 -0.081,0.01 -0.1611,0.01 -0.2424,0.014 l -0.3359,-4.9414 c -0.2099,-3.0919 -0.3819,-11.4911 -0.3819,-18.6655 0,-10.7895 -0.1462,-13.1038 -0.8464,-13.3845 -0.4655,-0.1863 -4.762,-0.2101 -9.5473,-0.052 -4.7856,0.1582 -15.5746,0.3952 -23.9763,0.5275 -8.4016,0.1323 -18.1283,0.4422 -20.3212,0.688 l -1.8981,0.2129 c -0.036,-4.6447 -0.093,-8.9437 -0.169,-12.5801 l 2.5291,-0.079 c 37.0993,-1.1602 51.9545,-0.8107 52.4655,-1.6749 0.7411,-1.2467 0.753,-23.1134 0.2119,-29.3512 -0.2052,-2.3736 -0.3208,-4.4522 -0.3235,-5.5407 z m 44.5084,4.4567 c -1.433,0 -3.2692,0.2643 -4.0809,0.5868 -1.2817,0.5096 -1.4993,1.0137 -1.6542,3.8391 -0.1777,4.0118 0.4446,3.1928 -3.4096,3.5589 -3.5786,0.4046 -3.3098,-0.6354 -3.0267,2.7628 0.3576,4.2966 0.911,4.8189 4.6235,4.363 2.6911,-0.3305 2.3162,-0.2128 2.2978,0.5039 -0.1758,2.3305 -0.4663,5.2204 -0.067,5.8953 0.244,0.4128 0.9406,0.5326 1.6732,0.2876 0.6906,-0.231 2.2793,-0.03 3.572,-0.2533 2.1399,-0.3699 2.3809,-1.1445 2.3569,-2.8172 -0.015,-1.0104 -0.2312,-2.4587 -0.4801,-3.2189 -0.4393,-1.3398 -0.3376,-1.3819 3.3848,-1.3819 4.5161,0 5.2902,-0.7901 4.4752,-4.5675 -0.7152,-3.315 -1.201,-3.6431 -4.3574,-2.939 -3.8092,0.9476 -2.7016,0.8334 -2.7016,-3.008 -0.091,-3.9062 1.0956,-3.6116 -2.6055,-3.6116 z m -71.1904,0.6263 c -1.1409,0 -3.7881,0.291 -4.4495,0.6609 -1.01,0.5649 -1.1437,1.057 -0.8356,3.071 0.6674,3.5025 0.324,2.3979 -3.1651,2.3979 -3.9782,0.061 -3.5326,-1.0086 -3.5326,2.7636 0,3.8309 1.602,5.5031 4.7656,4.9739 2.4593,-0.4106 2.6777,-0.097 1.6205,2.3281 -0.3653,0.839 -0.6736,2.054 -0.3126,2.4855 1.1886,1.421 4.7678,0.7983 5.9841,0.3415 1.4336,-0.5699 1.526,-0.8133 1.1612,-3.0699 -0.5279,-3.119 -0.8918,-2.4339 2.1528,-2.5462 1.4016,-0.052 2.8125,-0.1574 3.1358,-0.2363 2.4736,-0.2774 2.0504,-2.4278 2.0562,-4.0431 -0.036,-4.6577 0.9816,-3.8326 -3.4877,-3.4949 -3.0837,-0.036 -3.2692,0.6858 -3.1724,-1.3864 -0.03,-2.7582 0.084,-4.1939 -1.9207,-4.2456 z m 68.9636,1.5203 c 0.2066,0.01 0.4598,0.062 0.7643,0.1452 1.0914,0.2979 1.1782,0.6384 0.8331,3.2613 -0.4715,3.5837 0.2708,4.2145 4.4669,3.793 2.3075,-0.232 2.8809,-0.1037 2.8809,0.6443 0,1.1414 -1.2258,1.679 -3.8251,1.679 -2.6977,0 -3.3826,0.9388 -3.3827,4.2283 0,1.496 0.6341,3.041 -1.0175,3.1409 -1.6207,0.098 -1.4481,-1.558 -1.3055,-3.1997 0.3532,-4.0658 -0.1964,-4.4637 -3.2415,-3.8996 -1.2152,0.2249 -2.6726,0.5503 -3.2381,0.7244 -0.7534,0.2316 -1.0278,-0.035 -1.0278,-0.9998 0,-1.1555 0.3055,-1.3026 2.497,-1.2129 1.3732,0.065 2.9507,0.079 3.5047,0.047 1.5668,-0.089 2.1696,-1.9188 1.6356,-4.9731 -0.4612,-2.6411 -0.4398,-3.4176 0.4557,-3.3777 z m -71.6927,0.359 v 0 c 0.1306,-0.01 0.9664,-0.1743 1.1926,-0.1243 0.8383,0.1807 1.2501,1.1273 1.1268,2.7177 -0.2373,3.0432 0.5165,3.7344 4.0543,3.7344 3.3781,0 3.5069,1.7991 0.1934,2.0721 -4.2558,0.3509 -4.5745,0.5726 -4.7682,3.3208 -0.099,1.4076 -0.5111,2.6731 -0.9147,2.8123 -1.0576,0.3638 -1.4649,-1.2206 -0.7906,-3.0742 0.8519,-2.339 -0.3057,-3.1155 -3.5347,-2.3567 -2.5582,0.5786 -2.5533,1.0232 -3.0587,-1.1792 -0.347,-1.5179 -0.301,-1.5357 3.2954,-1.5357 3.4074,-0.2318 3.6345,0.1114 3.6218,-1.8428 -0.015,-1.0133 -0.2388,-2.4892 -0.4972,-3.28 -0.2944,-0.9036 -0.311,-1.2396 0.081,-1.2687 z m 68.5146,43.7856 v 6e-4 c 4.578,0 9.5758,0.055 13.8891,0.1677 l 14.935,0.3892 c -0.084,8.0076 -0.1602,17.9594 -0.156,22.9889 0,6.3515 -0.2043,9.9726 -0.6031,10.3362 -0.385,0.3511 -10.3883,0.4122 -26.8242,0.1627 -7.1756,-0.1088 -14.9568,-0.159 -21.7341,-0.1535 -7e-4,-0.5929 0.1625,-1.9428 0.4258,-3.4192 0.5671,-3.1795 0.4312,-9.8057 -0.4919,-24.0027 l -0.3835,-5.8886 9.5741,-0.413 c 2.6329,-0.1117 6.7906,-0.168 11.3688,-0.1683 z m -40.3293,0.3255 0.2992,17.073 c 0.1565,8.9471 0.2528,16.1689 0.2289,16.8825 -13.9318,0.693 -26.7382,0.1183 -40.5954,0.4993 -6.2635,-0.1585 -11.4268,-0.3924 -13.5749,-0.6588 l 0.1447,-14.9455 c 0.058,-5.9664 0.062,-12.2106 0.03,-18.0716 l 24.4016,0.082 c 13.9759,0.05 26.2331,-0.1233 27.2386,-0.386 z m 45.7019,5.8098 c -0.9604,0.09 -2.6554,0.041 -3.4171,0.3442 -1.4295,0.5678 -1.5829,0.9273 -1.5829,3.7253 v 3.0969 l -2.497,-0.1648 c -2.9146,-0.2467 -2.4622,-0.6009 -2.681,2.1802 -0.241,3.0572 -0.8033,4.1517 3.5554,4.1031 2.6848,-0.1076 1.9644,-0.058 1.5637,3.2937 -0.5314,4.2819 -0.7478,3.5054 3.3946,3.2971 4.1436,-0.2058 3.441,0.6216 3.3435,-3.3528 -0.077,-3.1224 -0.051,-3.1739 1.4686,-2.8578 1.8924,0.394 4.6862,-0.6424 5.1522,-1.9118 0.1882,-0.5144 0.1632,-1.9371 -0.057,-3.1616 -0.4646,-3.2113 -0.4105,-2.2255 -3.6443,-1.8764 -4.2114,0.5025 -3.2783,0.9317 -3.0432,-3.143 0.012,-2.7584 0.3034,-3.5535 -1.5555,-3.5723 z m -72.74,0.9439 c -0.7517,0.019 -1.643,0.177 -2.6825,0.4675 -1.2519,0.3506 -1.3603,0.6501 -1.1002,3.0618 0.2796,2.5945 0.2386,2.6744 -1.3638,2.6744 -0.9087,0 -2.3642,0.2834 -3.2344,0.6294 -1.4153,0.562 -1.5458,0.8581 -1.2418,2.8179 0.4862,3.1297 1.3449,3.9227 4.2473,3.9227 2.5001,0 2.5248,0.021 2.0531,1.7404 -0.2688,0.9792 -0.2379,2.1884 0.07,2.7638 h 5e-4 c 1.2004,2.2424 8.1944,0.6596 7.3603,-1.666 -1.2748,-3.5542 -1.2493,-3.6386 0.988,-3.1999 3.2088,0.6294 4.6958,-0.4583 4.2809,-3.1306 -0.4655,-2.998 -1.361,-3.8777 -3.9496,-3.8777 -2.2391,0 -2.2417,0 -2.2087,-2.5286 0.034,-2.5488 -0.9642,-3.7333 -3.2194,-3.6751 z m 71.0344,1.9048 h 5e-4 c 1.2196,0 1.2707,0.1526 0.7323,2.191 -0.8015,3.0339 0.064,3.9502 3.732,3.9502 3.6201,0 3.6416,1.4414 0.026,1.7219 -2.8892,0.2241 -3.8702,-0.3812 -3.865,2.5915 v 2.7786 c 0,1.6868 -0.3763,1.2334 -1.2227,1.4061 -1.0276,0.208 -1.0838,-0.053 -0.7188,-3.3001 0.3354,-3.9466 0.5588,-3.4445 -2.2629,-3.1454 -2.3578,0.3374 -2.6583,0.2472 -2.6583,-0.8006 0,-0.9506 0.4871,-1.2184 2.4965,-1.37 3.2911,-0.1734 2.5011,0.1017 2.4615,-3.1062 -0.033,-2.6202 0.097,-2.9168 1.2743,-2.917 z m -71.4225,0.663 c 0.096,0.01 0.2052,0.025 0.3286,0.05 0.8858,0.1786 1.0748,0.6683 0.9281,2.435 -0.239,2.9011 1.0374,4.2219 4.083,4.2219 1.4122,0 2.199,0.2437 1.9803,0.6136 -0.1997,0.3381 -1.3732,0.6143 -2.6071,0.6143 -2.7248,0 -3.8333,1.1954 -3.3673,3.6312 0.2448,1.2795 0.085,1.8881 -0.5622,2.1479 -1.3794,0.5567 -1.3953,0.5426 -1.3953,-2.4011 0,-2.9692 -0.07,-3.0229 -3.6721,-2.7961 -1.6756,0.105 -2.2035,-0.095 -2.2035,-0.8356 0,-0.6913 0.5595,-0.9742 1.926,-0.9742 1.0592,0 2.5138,-0.431 3.2329,-0.9575 1.1175,-0.8178 1.2518,-1.3174 0.9271,-3.4396 -0.2958,-1.9338 -0.2712,-2.3651 0.4015,-2.3098 z" fill="#00B894" transform="translate(-23.456131,-51.974201) translate(2168.6968,-2814.6648)"/>
</svg>