<?xml version="1.0" ?><svg height="97.666702mm" viewBox="0 0 131.66599 97.666702" width="131.66599mm" xmlns="http://www.w3.org/2000/svg">
    <path d="m -1468.073,3184.7514 125.0265,2.1032 -1.0992,90.4592 -123.6648,0.2997 z" fill="#FFFFFF" paint-order="markers stroke fill" transform="translate(-26.695557,-20.976078) translate(1497.8176,-3161.6816)"/>
    <path d="m 258.58594,15705.211 c -5.08082,0.121 -12.24505,3.457 -12.40039,6.828 -0.0832,1.671 0.6991,3.058 1.73242,3.08 1.03181,0.04 0.63404,16.646 -0.89063,36.947 -1.90299,25.355 -2.26018,57.148 -1.14257,101.545 0.8965,35.547 1.61718,95.148 1.61718,132.446 0,68.957 0.48539,78.925 4.19727,83.896 2.91666,3.921 107.78617,5.678 198.80664,3.332 38.84485,-1.002 103.8288,-1.3 144.41602,-0.664 100.91187,1.586 133.62276,-0.646 141.45507,-9.644 3.17934,-3.656 3.62727,-11.156 3.97461,-66.891 0.58507,-93.49 -0.0678,-148.117 -2.39453,-198.553 -2.55118,-55.46 -2.04253,-70.189 2.58399,-74.965 2.99111,-3.088 3.06618,-4.158 0.55468,-7.89 -2.55647,-3.799 -6.29888,-4.473 -31.25586,-5.633 -15.59508,-0.724 -64.52454,-0.901 -108.72461,-0.393 -147.33392,1.695 -335.37174,0.381 -338.47851,-2.369 -0.89462,-0.792 -2.35755,-1.112 -4.05078,-1.072 z m 4.1914,13.91 5.23633,1.699 c 7.38406,2.397 89.51179,4.763 184.23242,6.155 -1.23137,10.68 -2.69603,29.27 -3.84765,50.076 l -3.15625,57.047 -84.10547,-0.998 c -71.80347,-0.852 -90.81599,-0.406 -97.25781,5.107 -0.0378,-1.213 -0.0376,-0.711 -0.0527,-1.951 -0.76724,-27.022 -1.31777,-64.433 -1.21875,-83.135 z m 460.54102,7.949 -2.14063,22.356 c -1.18223,12.297 -1.52934,42.232 -0.77343,66.523 0,0 0.30997,13.252 0.58398,32.625 -0.98343,-1.255 -2.38366,-2.322 -4.1914,-3.041 -3.66237,-1.457 -36.48956,-1.651 -84.23633,-0.496 -43.02992,1.041 -78.56907,1.704 -78.97461,1.465 -0.40592,-0.234 -1.7094,-26.51 -2.89844,-58.391 -1.24724,-33.46 -2.1208,-51.069 -3.58008,-60.113 59.3537,0.398 115.83665,0.311 154.94531,-0.494 z m -259.89063,0.06 h 0.0117 c 24.4664,0.336 49.44149,0.606 74.21289,0.793 -0.70223,5.538 -1.21338,14.38 -1.81054,28.873 -1.71053,41.516 -2.15755,80.281 -1.30469,96.955 -0.70292,-0.134 -1.35839,-0.121 -1.90234,0.09 -3.54407,1.36 -6.05737,-0.492 -5.2168,-3.842 0.87231,-3.474 -1.17571,-5.023 -8.79297,-6.652 -2.56668,-0.549 -6.09887,-2.122 -7.84766,-3.492 -4.76031,-3.732 -15.48391,-3.347 -23.35742,0.839 -3.44806,1.834 -7.97091,3.334 -10.05078,3.334 -4.4999,0 -9.39879,3.618 -9.93359,7.336 -0.24945,1.732 -1.57622,2.808 -3.79102,3.073 -1.87464,0.224 -4.48261,1.595 -5.79297,3.043 -2.08101,2.299 -2.13715,2.876 -0.44922,4.564 3.21903,3.219 15.67362,1.073 20.23438,-3.488 2.03036,-2.031 4.80419,-4.045 6.16406,-4.477 1.3595,-0.431 3.54511,-1.97 4.85547,-3.418 3.72926,-4.121 15.43959,-3.707 19.84766,0.701 1.83345,1.834 4.42849,3.334 5.76757,3.334 1.47062,0 3.02141,1.554 3.91602,3.924 1.03597,2.745 2.82765,4.312 5.95898,5.213 5.55858,1.6 10.41515,1.712 13.52735,0.576 1.03969,0.827 2.23459,1.56 3.31836,1.957 2.00012,0.732 4.67293,0.333 5.93945,-0.888 1.26652,-1.22 39.24354,-2.217 84.39453,-2.217 51.95263,0 83.81357,-0.964 86.78125,-2.625 1.25329,-0.701 2.24579,-1.571 2.98242,-2.539 0.21922,17.8 0.39432,38.546 0.28321,59.388 0,1.947 6.8e-4,4.337 -0.0371,6.36 -8.61166,-0.858 -24.7912,-0.991 -57.42969,-0.949 -65.73052,0.06 -127.49348,4.638 -130.98047,9.718 -2.42797,3.538 -0.59194,92.496 1.9668,119.434 -23.6795,0.04 -43.76909,0.267 -54.75391,0.701 -4.41562,0.174 -10.57526,0.356 -16.73437,0.533 2.56025,-7.117 2.66361,-23.225 1.63672,-58.097 -1.02511,-34.802 -2.3098,-53.301 -4.8086,-62.907 3.72622,2.217 7.57772,3.752 10.4043,3.752 1.51975,0 4.3881,-1.153 6.375,-2.562 1.9869,-1.409 5.56194,-2.957 7.94531,-3.44 3.75383,-0.76 4.33399,-0.514 4.33399,1.831 0,1.487 1.05149,3.332 2.33398,4.099 1.28482,0.767 4.73238,1.246 7.66406,1.065 4.04334,-0.248 5.64579,-1.04 6.62696,-3.276 1.17467,-2.677 1.9748,-2.879 8.66796,-2.201 7.31226,0.74 7.44329,0.689 16.03907,-6.242 4.76674,-3.844 9.4574,-8.113 10.42383,-9.487 2.2337,-3.174 1.57681,-7.764 -1.375,-9.615 -1.90149,-1.191 -3.51508,-0.108 -9.62696,6.459 -4.0388,4.34 -7.71436,7.522 -8.16601,7.071 -1.88561,-1.886 10.51172,-15.117 17.21093,-18.37 4.86652,-2.362 6.86719,-4.109 6.86719,-6 0,-2.067 -0.86744,-2.652 -3.85742,-2.599 l -3.85547,0.07 4.18945,-3.498 c 6.74684,-5.633 4.79886,-12.075 -2.02734,-6.705 -1.93814,1.525 -3.70474,2.592 -3.92773,2.369 -0.22148,-0.221 0.4237,-2.78 1.43359,-5.685 2.05644,-5.927 0.75729,-8.754 -2.69531,-5.889 -1.86785,1.55 -2.37118,1.483 -3.45703,-0.457 -1.47629,-2.638 -5.95106,-3.042 -6.69336,-0.604 -0.27931,0.917 -0.47461,6.311 -0.47461,11.985 0.0215,7.046 -0.49833,10.518 -1.63672,10.957 -0.91654,0.353 -1.66602,2.672 -1.66602,5.152 0,7.26 -2.36618,12.148 -7.03125,14.531 -4.95534,2.532 -35.65604,4.189 -35.21875,1.901 0.1372,-0.719 -1.14258,-2.032 -2.84375,-2.918 -3.8143,-1.988 -7.34096,-6.826 -6.25586,-8.582 0.44296,-0.717 0.20784,-2.424 -0.52539,-3.793 -0.90973,-1.698 -0.84405,-4.089 0.20703,-7.514 1.3406,-4.368 1.23487,-5.249 -0.8125,-6.746 -1.83496,-1.342 -2.15788,-2.771 -1.46093,-6.486 1.02463,-5.461 0.62594,-6.959 -1.71094,-6.422 -0.9086,0.209 -2.79531,-0.232 -4.19336,-0.981 -4.08,-2.183 -6.43653,1.606 -3.64648,5.864 2.53114,3.861 2.84974,5.945 0.55859,3.654 -0.88025,-0.88 -2.61585,-1.602 -3.85742,-1.602 -4.47194,0 -4.59185,7.307 -0.20117,12.309 1.71514,1.953 1.74832,2.643 0.21874,4.486 -1.56585,1.887 -1.31328,2.604 1.89063,5.36 2.03376,1.749 4.56402,3.179 5.62305,3.179 3.32296,0 2.10163,2.017 -2.20703,3.643 -5.35106,2.019 -4.39267,4.905 1.80273,5.432 2.63735,0.224 5.51384,1.275 6.39258,2.334 0.87912,1.059 2.42528,1.925 3.43554,1.925 2.54552,0 2.31005,2.569 -0.32617,3.58 -1.21285,0.466 -5.91106,-1.017 -10.6914,-3.375 -10.33096,-5.094 -12.47852,-5.262 -12.47852,-0.976 0,1.096 0.57786,2.402 1.55274,3.793 -13.48387,-0.821 -48.7977,-1.438 -89.55274,-1.438 -68.27792,-0.04 -87.50624,0.329 -93.86719,2.53 -0.0378,-5.083 -0.068,-9.401 -0.11718,-12.047 0,0 -0.82774,-28.93 -1.77149,-62.143 6.27099,2.576 21.3386,3.256 52.40821,3.414 26.74318,0.136 57.89635,1.105 69.22851,2.145 v 0 c 31.5035,2.894 65.25801,2.964 70.28516,0.15 7.61121,-4.261 10.05982,-25.698 9.24609,-80.91 -0.4063,-27.552 -0.80717,-40.692 -1.94141,-47.619 z m 40.66602,134.23 c -14.25676,0 -26.80489,1.847 -28.23242,4.157 -1.61197,2.608 0.17663,30.931 2.33398,36.957 1.33909,3.74 3.54499,6.678 6.25,8.328 5.57518,3.4 12.09339,3.202 20.17969,-0.611 9.92617,-4.681 12.59625,-8.269 14.13867,-18.999 1.52277,-10.593 1.3358,-24.118 -0.38086,-27.5 -1.00686,-1.985 -3.1489,-2.332 -14.28906,-2.332 z m -15.58203,9.332 h 6.84961 l -0.43945,5.668 c -0.24152,3.117 -0.55755,6.338 -0.70118,7.159 -0.42293,2.402 -11.29139,-6.53 -11.95508,-9.825 -0.5639,-2.799 -0.14811,-3.002 6.2461,-3.002 z m 17.44531,0 c 3.97153,0 4.66797,0.455 4.66797,3.047 0,1.948 -1.3967,3.871 -3.87305,5.334 -5.2834,3.122 -5.46093,3.023 -5.46093,-3.047 0,-5.204 0.11055,-5.334 4.66601,-5.334 z m -22.21289,15.334 4.77344,4.981 c 3.31918,3.463 4.77344,6.205 4.77344,9 0,2.656 -0.66746,4.019 -1.96875,4.019 -2.88454,0 -5.77829,-5.152 -6.73829,-12 z m 24.93359,2.67 c 0.5998,0.02 0.61501,0.921 0.59375,2.967 -0.0113,2.034 -0.46141,4.298 -1,5.031 -0.53896,0.734 -2.03092,2.156 -3.31445,3.163 -2.12523,1.667 -2.33203,1.416 -2.33203,-2.846 0,-3.517 0.82545,-5.219 3.33203,-6.862 1.43296,-0.94 2.25419,-1.465 2.7207,-1.453 z m -242.5332,47.77 c 11.17644,2.936 38.57734,3.955 94.10352,5.008 l 87.11133,1.652 -0.4004,54.322 c -0.23433,32.197 0.33267,50.824 1.70313,56.225 -24.71055,0.612 -55.24865,1.175 -81.10742,1.435 -38.84674,0.392 -77.64275,1.224 -86.21094,1.85 l -15.57422,1.141 0.29883,-62.617 c 0.10205,-20.951 0.12153,-42.353 0.0762,-59.016 z m 455.13477,2.976 c -0.12851,27.385 -0.18837,56.697 -0.0977,72.938 0.13228,24.378 -0.58187,38.271 -2.05664,39.666 -1.42375,1.347 -38.58784,1.574 -99.64648,0.603 -21.18426,-0.336 -43.36594,-0.495 -64.39258,-0.554 0.52044,-7.545 0.24187,-19.067 -0.41992,-36.678 -0.8863,-23.581 -2.29647,-49.738 -3.13477,-58.125 l -1.52539,-15.252 88.73047,-0.725 c 49.58929,-0.404 71.8299,-0.741 82.54297,-1.873 z" fill="#00B894" transform="translate(-26.695557,-20.976078) translate(1497.8176,-3161.6816) matrix(0.26458333,0,0,0.26458333,-1536.012,-972.67847)"/>
</svg>