<?xml version="1.0" ?><svg height="96.177299mm" viewBox="0 0 134.07832 96.177299" width="134.07832mm" xmlns="http://www.w3.org/2000/svg">
    <path d="m -2680.5568,3405.357 126.5436,0.866 -0.5775,89.0912 -128.0123,0.8711 z" fill="#FFFFFF" paint-order="markers stroke fill" transform="translate(32.754069,12.564301) translate(2651.5772,-3415.3545)"/>
    <path d="m -2680.6085,3402.7907 c -1.3681,0.032 -3.3,0.9023 -3.3476,1.7807 -0.022,0.4357 0.1846,0.7961 0.4625,0.8009 0.2783,0.011 0.1505,4.3378 -0.2852,9.6279 -0.5437,6.6066 -0.6805,14.8913 -0.4351,26.4594 0.1969,9.2625 0.3193,24.7925 0.2713,34.5112 -0.088,17.9681 0.031,20.5652 1.0232,21.8606 0.7816,1.0213 29.0087,1.4725 53.5145,0.8552 10.4577,-0.2633 27.953,-0.3453 38.8777,-0.1818 27.1635,0.4072 35.9725,-0.1757 38.0923,-2.5209 0.8608,-0.9525 0.9892,-2.9081 1.1524,-17.4305 0.2739,-24.3607 0.1652,-38.5948 -0.3964,-51.7369 -0.6175,-14.4508 -0.4625,-18.2888 0.7891,-19.5337 0.8091,-0.8046 0.8306,-1.0824 0.1592,-2.0545 -0.6833,-0.99 -1.6904,-1.1662 -8.4078,-1.466 -4.1975,-0.1879 -17.3684,-0.2313 -29.2679,-0.096 -39.6639,0.4509 -90.2821,0.1191 -91.1144,-0.5974 -0.2396,-0.2061 -0.6321,-0.2884 -1.0878,-0.2778 z m 1.11,3.6246 1.4067,0.4434 c 3.8573,1.2129 83.6081,2.3823 116.8342,1.7134 l 5.7252,-0.1151 -0.6051,5.8259 c -0.3343,3.2041 -0.4629,11.004 -0.2899,17.3334 0.1156,4.2058 0.1568,10.6913 0.1586,17.1048 -8.2678,-0.6252 -16.2629,-0.6075 -22.3428,-0.5223 -5.2509,0.076 -8.0806,0.035 -16.7835,-0.1302 0.7932,-1.2396 1.0572,-2.6143 0.5214,-3.6155 -0.3458,-0.6464 -0.6292,-0.7488 -1.62,-0.5879 -1.1839,0.1921 -1.2015,0.1765 -1.2015,-1.106 0,-1.7219 -1.1074,-3.461 -2.6758,-4.209 -1.2161,-0.5802 -1.2912,-0.5778 -1.7518,0.052 -0.741,1.0134 -1.0103,3.5886 -0.5034,4.8128 0.2427,0.5858 0.9338,1.4505 1.5359,1.9217 0.8701,0.681 1.0051,0.9464 0.6578,1.2935 -0.2205,0.2207 -0.4023,0.7721 -0.431,1.2743 l -1.7518,-0.058 c -0.2889,-0.3577 -0.4346,-0.8305 -0.5519,-1.6166 -0.5681,-3.809 -2.9241,-6.7122 -5.4457,-6.7122 -0.9092,0 -0.9089,0 0.1928,-2.3326 0.5633,-1.1909 0.8378,-2.2468 0.7131,-2.7435 -0.1124,-0.4482 0.018,-1.1072 0.292,-1.4816 0.2721,-0.371 0.4142,-1.0793 0.3152,-1.574 -0.1433,-0.72 0.01,-0.9853 0.7566,-1.3267 1.3134,-0.5984 1.111,-1.9341 -0.3308,-2.1822 -0.7337,-0.1262 -1.102,-0.4302 -1.2428,-1.0269 -0.3015,-1.2769 -1.2286,-1.7253 -2.0433,-0.9879 -0.8213,0.7429 -1.4503,0.7696 -1.7177,0.073 -0.2916,-0.7599 -1.4479,-0.6516 -1.8913,0.1768 -0.4559,0.8519 -0.9719,0.8929 -1.8004,0.1431 -0.6631,-0.6001 -0.5356,-1.5544 0.2077,-1.5544 0.2465,0 0.6538,-0.2479 0.9054,-0.5509 0.386,-0.4651 0.3101,-0.6868 -0.4863,-1.4253 -0.5187,-0.481 -0.9431,-1.0893 -0.9431,-1.3518 0,-0.4191 -0.5414,-0.7752 -1.0299,-0.7926 -0.1629,-0.01 -0.32,0.026 -0.4491,0.1053 -0.1963,0.1214 -0.5809,0.7569 -0.8547,1.4123 -0.2739,0.6556 -0.6545,1.1917 -0.846,1.1917 -0.6656,0 -0.3433,1.1255 0.3763,1.3136 0.494,0.1292 0.69,0.4273 0.617,0.9375 -0.1582,1.108 -2.5418,1.2623 -3.3864,0.219 -0.6997,-0.8641 -1.6701,-0.672 -1.9467,0.3855 -0.1554,0.5943 -0.3807,0.6586 -1.6221,0.4599 -1.3878,-0.2217 -1.4417,-0.1947 -1.4417,0.7194 0,1.2091 -0.5858,2.3151 -1.2263,2.3151 -0.9848,0 -0.9235,0.7511 0.1622,1.9875 0.9787,1.1147 1.0486,1.3285 0.6026,1.8418 -0.7008,0.8062 -0.3634,1.4571 0.7555,1.4671 0.7548,0 1.2007,0.4051 2.2557,2.0288 l 1.3146,2.0236 -1.4609,0.2558 c -2.2645,0.3969 -4.0923,1.8066 -5.0725,3.9119 -0.4685,1.0062 -0.8553,2.1087 -0.8553,2.45 0,0.5348 -0.1039,0.5588 -0.7302,0.1762 -0.6432,-0.3931 -0.8454,-0.3119 -1.7637,0.7081 -1.1716,1.3012 -1.4175,0.8694 -0.323,-0.567 3.5293,-4.6318 4.8232,-7.8171 3.175,-7.8171 -0.3834,0 -1.1992,0.5519 -1.8128,1.2263 -1.0945,1.2028 -1.1335,1.215 -2.0856,0.6527 -1.3156,-0.7771 -1.9624,-0.4357 -2.2288,1.1772 -0.3563,2.1563 -0.2718,3.2779 0.3441,4.5759 0.6863,1.4462 0.5443,1.6804 -0.726,1.1973 -0.5246,-0.1995 -1.4993,-0.3628 -2.1658,-0.3628 -1.52,-0.014 -2.0207,0.5247 -1.8381,1.337 -0.8895,-0.018 -10.7827,-0.2157 -17.2656,-0.1546 -7.6922,0.073 -16.2682,0.2556 -18.2444,0.2186 l -3.593,-0.067 -0.3148,-10.9704 c -0.2019,-7.04 -0.2725,-16.7889 -0.2227,-21.6617 z m 58.2895,22.5933 c 0.1878,0 0.3827,0 0.5845,0.01 1.9094,0.09 1.9417,0.11 2.0505,1.2382 0.074,0.7647 -0.043,1.1446 -0.3524,1.1544 -0.2548,0 -1.3825,0.3868 -2.5058,0.8485 l -2.0423,0.8398 -0.5426,-0.8279 c -1.2247,-1.869 -0.01,-3.226 2.8081,-3.2633 z m 9.2449,0.3521 c 1.4453,-0.01 1.9229,0.4816 1.9229,1.733 0,1.1256 -0.1981,1.1663 -2.2929,0.476 -0.7762,-0.2558 -2.0066,-0.477 -2.7342,-0.4918 -0.9004,-0.019 -1.3229,-0.1889 -1.3229,-0.5329 0,-0.598 0.5489,-0.7829 3.266,-1.1017 0.4426,-0.052 0.8276,-0.081 1.1611,-0.083 z m -4.3026,4.2357 c 1.2771,0 2.4746,0.1448 3.3476,0.4347 1.0006,0.3324 1.8196,0.7298 1.8196,0.8838 0,0.1537 -0.3307,1.0263 -0.7344,1.9388 -0.5764,1.3028 -0.8603,1.6034 -1.3229,1.3989 -1.0942,-0.4837 -3.1746,-0.5707 -4.8855,-0.2038 -0.9359,0.2009 -1.9585,0.4639 -2.2722,0.584 -0.3877,0.1489 -0.6314,-0.014 -0.7612,-0.5109 -0.3117,-1.192 0.9328,-1.6008 4.9393,-1.6227 1.9834,-0.011 3.691,-0.1048 3.7946,-0.2082 0.1034,-0.1038 -0.147,-0.4914 -0.5566,-0.8621 -1.1154,-1.0093 -5.2395,-0.9472 -7.3577,0.1112 -1.1882,0.5937 -1.6391,0.6799 -1.8469,0.3529 -0.5217,-0.8212 -0.2812,-1.1978 1.0372,-1.6232 1.3838,-0.4464 3.1572,-0.6757 4.7991,-0.6734 z m 15.2958,6.3429 c 0.074,0.017 0.1873,0.2135 0.3875,0.5643 0.2537,0.4456 0.413,1.3187 0.353,1.9405 -0.1082,1.1189 -0.1141,1.1224 -0.5716,0.3204 -0.2538,-0.4455 -0.4129,-1.3189 -0.3529,-1.9404 0.061,-0.6295 0.089,-0.9062 0.184,-0.8848 z m -18.0284,0.4934 c 0.3689,-0.024 0.6622,0.2263 0.9322,0.7898 0.5765,1.2028 1.4405,1.3526 2.3813,0.4117 0.9011,-0.9012 1.9753,-0.7916 1.8567,0.1897 -0.1518,1.2557 0.2866,2.3741 1.3028,3.3234 0.7676,0.7173 0.9598,1.1587 0.8206,1.8865 -0.1974,1.0332 -1.5105,1.3854 -1.5105,0.4054 0,-0.3001 -0.3807,-0.9261 -0.8459,-1.3912 -0.4653,-0.4651 -0.9943,-1.2914 -1.1757,-1.8362 -0.4538,-1.3618 -1.4128,-1.4862 -1.7296,-0.2236 -0.1367,0.5445 -0.46,1.2015 -0.7183,1.4597 -0.2583,0.2582 -0.4697,0.7631 -0.4697,1.1216 0,1.4973 -0.2983,1.7028 -1.5932,1.0969 -0.6633,-0.3103 -1.2075,-0.763 -1.2175,-1.0056 -0.02,-0.7816 -0.7808,-0.4721 -1.9906,0.8109 -0.9587,1.0165 -1.1084,1.3668 -0.7979,1.864 h -5e-4 c 0.2627,0.4199 0.2876,1.7166 0.081,4.1283 -0.3917,4.5649 -0.955,3.8441 -0.955,-1.2248 -8e-4,-3.0342 0.1373,-4.0362 0.7452,-5.3969 0.6946,-1.5558 0.8191,-1.6574 1.7901,-1.4632 0.7904,0.1582 1.2335,0.019 1.8267,-0.5744 0.6523,-0.6522 0.756,-1.0668 0.6202,-2.4791 -0.1373,-1.4293 -0.061,-1.7227 0.4852,-1.8653 0.056,-0.015 0.1101,-0.024 0.1628,-0.028 z m -15.5308,0.9478 c 0.1148,-0.021 0.2932,0.2344 0.51,0.8099 0.1841,0.4879 0.2718,1.1083 0.059,1.7243 -0.2194,0.635 -0.3624,0.4942 -0.5844,-0.8052 -0.1841,-1.0766 -0.1523,-1.6981 0.015,-1.729 z m 11.4081,0.3789 c 0.1352,0 0.2598,0.013 0.371,0.048 0.9574,0.3041 0.9149,0.8986 -0.057,0.793 -0.4986,-0.054 -0.9155,0.1955 -1.1777,0.7067 -0.2232,0.4355 -0.6494,1.0705 -0.9467,1.4113 -0.2974,0.341 -0.7328,0.9909 -0.9674,1.4438 h 6e-4 c -0.2348,0.4533 -0.6432,1.9614 -0.9075,3.3512 l -0.4806,2.5276 0.068,-3.5909 c 0.058,-3.034 0.1831,-3.7457 0.8103,-4.5863 0.8799,-1.1793 2.3397,-2.0852 3.2867,-2.1042 z m 13.3857,0.2272 c 2.6604,0 3.9284,2.0466 3.9284,6.3402 0,1.2108 -0.2515,3.1724 -0.5591,4.3596 -0.3077,1.1869 -0.7777,2.5593 -1.0444,3.0493 -0.8228,1.5121 -0.6432,-0.2918 0.1923,-1.9307 0.5152,-1.0107 0.7053,-2.0804 0.7053,-3.9666 0,-3.8576 -1.3475,-6.491 -3.5718,-6.9794 -1.4659,-0.322 -1.2456,-0.8724 0.3493,-0.8724 z m 0.2475,2.7401 c 0.1771,0.022 0.347,0.39 0.6796,1.2607 0.7918,2.0733 0.6251,2.8625 -0.3912,1.8547 -0.9602,-0.9519 -1.2134,-2.046 -0.6517,-2.8143 0.1482,-0.2025 0.2571,-0.3144 0.3633,-0.3011 z m -7.7127,1.8851 0.785,0.2051 c 0.4318,0.1129 0.9314,0.5908 1.1105,1.062 0.3733,0.9821 0.4243,5.0546 0.097,7.7782 -0.179,1.491 -0.3506,1.8521 -0.8791,1.8521 -0.5496,0 -0.6562,-0.2783 -0.6562,-1.7095 0,-0.94 -0.1031,-3.3917 -0.229,-5.4488 z m 19.6774,0.1963 c 0.3168,-0.033 0.1901,0.354 -0.4625,0.9446 -0.7156,0.6477 -1.1188,0.7459 -1.1188,0.272 0,-0.1717 0.397,-0.5723 0.8821,-0.8901 0.3193,-0.2093 0.5551,-0.3114 0.6992,-0.3265 z m -34.1458,0.8232 c 0.074,0 -0.036,0.3175 -0.2439,0.7053 -0.2077,0.3882 -0.5552,0.7059 -0.7725,0.7059 -0.2172,0 -0.1078,-0.3177 0.2434,-0.7059 0.3512,-0.3878 0.6991,-0.7053 0.773,-0.7053 z m -6.7055,0.052 c 0.595,-0.035 3.2866,1.7685 3.2866,2.2561 0,0.2829 -0.1579,0.5141 -0.3514,0.5141 -0.4626,0 -3.2448,-2.5186 -3.0251,-2.7382 0.02,-0.02 0.05,-0.03 0.09,-0.032 z m 16.6584,1.7103 c 0.1133,0.011 0.3017,0.1275 0.4811,0.3066 0.2754,0.2747 0.4785,1.8526 0.5545,4.2979 0.099,3.2099 0.032,3.8637 -0.3963,3.8637 -0.4139,0 -0.5498,-0.8199 -0.6858,-4.1449 -0.094,-2.2797 -0.1107,-4.2138 -0.039,-4.2979 0.018,-0.021 0.047,-0.029 0.085,-0.025 z m 10.8288,0 c 0.3973,0 0.4941,0.8636 0.4941,4.41 0,3.6045 -0.092,4.4096 -0.508,4.4096 -0.8869,0 -0.9899,-0.6723 -0.7323,-4.794 0.1935,-3.0975 0.3658,-4.0256 0.7462,-4.0256 z m 9.125,1.574 c 0.021,0.01 0.045,0.041 0.069,0.1018 0.098,0.2427 0.098,0.6398 0,0.8822 -0.098,0.2426 -0.1778,0.044 -0.1778,-0.4414 0,-0.3635 0.045,-0.5662 0.1085,-0.5426 z m 45.4872,0.4 c 0,2.2754 0.01,4.7268 -0.017,6.704 -0.1,8.222 -0.176,19.3495 -0.1715,24.7267 0.01,6.3518 -0.2043,9.9729 -0.6031,10.3364 -0.385,0.3512 -10.3883,0.412 -26.8242,0.1628 -14.4156,-0.2191 -31.2956,-0.2038 -37.5088,0.034 -6.2141,0.2376 -19.8541,0.5181 -30.3124,0.6226 v 0.01 c -10.4582,0.1048 -20.9024,0.3252 -23.2094,0.4889 l -4.1951,0.2972 0.1581,-16.3169 c 0.086,-8.9741 0.1219,-18.7515 0.082,-21.7278 -0.059,-4.2321 0.08,-5.3118 0.6372,-4.9565 0.4422,0.2826 19.9916,0.3718 42.1328,0.3641 0.6793,0.4768 1.3715,0.8109 1.3715,1.0612 0,0.3765 -0.2075,0.3633 -1.0408,-0.068 -2.7887,-1.442 -4.8844,0.098 -3.3403,2.4543 0.6757,1.0313 3.3644,2.7691 5.1748,3.3443 1.4307,0.4548 1.8592,1.2195 0.491,0.876 -0.4575,-0.1148 -1.41,0.033 -2.1167,0.3281 -1.0648,0.4451 -1.2847,0.7144 -1.2847,1.574 0,0.5707 0.2779,1.3782 0.6175,1.795 0.737,0.904 4.3874,1.9386 5.6881,1.6121 0.873,-0.2191 0.8845,-0.2022 0.2997,0.4439 -1.461,1.6145 0,2.9065 2.6453,2.3323 1.2646,-0.2751 1.7093,-0.2119 2.744,0.389 l 1.2346,0.7167 -1.5307,0.1101 c -0.8421,0.061 -2.2682,-0.047 -3.1693,-0.2392 -2.2472,-0.4794 -3.2154,0.2773 -1.9606,1.5322 0.3141,0.3141 0.5128,0.6033 0.4408,0.6424 -0.072,0.039 -0.4475,0.2466 -0.8356,0.4604 -0.388,0.2138 -0.7538,0.707 -0.8118,1.0959 -0.1635,1.0898 1.7064,1.696 5.1108,1.6568 3.0236,-0.034 4.6968,-0.6596 4.6968,-1.755 0,-0.4278 0.2688,-0.4881 1.3229,-0.2976 0.7276,0.1315 1.365,0.2728 1.416,0.3148 0.051,0.042 -0.2268,0.4826 -0.6176,0.9793 -0.7223,0.9183 -0.8996,1.7195 -0.4749,2.1442 v 2e-4 c 0.7627,0.7628 2.234,-0.6442 2.234,-2.1362 0,-1.2904 0.9035,-0.9258 1.5059,0.6077 0.869,2.2122 2.7338,1.7307 2.1595,-0.5575 -0.1811,-0.7217 -0.085,-0.8583 0.6181,-0.8583 0.4576,0 1.1769,-0.098 1.5989,-0.2108 0.6405,-0.172 0.7861,-0.041 0.8821,0.7958 0.1883,1.6407 1.6142,2.099 4.8658,1.5632 2.907,-0.4792 4.3284,-1.1618 4.0313,-1.936 -0.1048,-0.273 -0.5987,-0.5993 -1.0976,-0.7244 l -0.9069,-0.2278 0.756,-0.5297 c 0.862,-0.6038 0.9926,-1.4796 0.2625,-1.7597 -0.2716,-0.104 -1.3322,0.06 -2.357,0.3638 -2.7921,0.8292 -3.3227,0.753 -3.3227,-0.4779 0,-0.948 0.1251,-1.0506 1.5451,-1.2636 2.0434,-0.3064 3.1579,-0.8419 3.4111,-1.6397 0.1683,-0.5302 0.4504,-0.6159 1.5059,-0.4587 1.5034,0.2233 3.701,-0.7231 3.8773,-1.6704 0.1743,-0.9358 -1.1386,-1.9711 -3.296,-2.5982 -1.0891,-0.3167 -1.8763,-0.6802 -1.7487,-0.8077 0.1275,-0.1276 1.138,-0.2368 2.2454,-0.2464 2.4749,-0.018 4.0599,-0.6368 4.5852,-1.7896 0.4999,-1.0972 0.5052,-1.0369 -0.1561,-1.6981 -0.3524,-0.3524 -1.2199,-0.5633 -2.3812,-0.5805 l -1.8268,-0.026 1.5762,-0.5911 c 2.0379,-0.7649 4.454,-3.0297 4.5367,-4.1894 16.922,-0.114 29.9761,-0.2712 33.354,-0.5143 1.8438,-0.1165 3.7168,-0.079 5.3025,-0.088 z m -76.338,0.7525 c 0.3447,-3e-4 0.5752,0 0.9209,0 -0.4269,1.0493 -0.8957,1.0639 -0.9209,0 z m 34.122,0.8453 c 0.035,0 0.068,0.01 0.098,0.017 0.2351,0.078 -0.027,0.3464 -0.5829,0.5953 -0.9456,0.4236 -0.9728,0.4144 -0.4273,-0.1426 0.2804,-0.2865 0.6637,-0.4781 0.9126,-0.4694 z m -4.6385,0.1231 c 0.095,0.01 0.2164,0.1063 0.3912,0.2812 h 5e-4 c 0.4609,0.4612 0.4627,0.6453 0.015,1.4999 -0.6324,1.2071 -1.1225,0.6186 -0.7809,-0.9374 0.1326,-0.6027 0.2163,-0.854 0.3742,-0.8437 z m -27.1958,0.01 0.1091,1.3081 c 0.06,0.7194 -0.065,1.6325 -0.277,2.0289 -0.2121,0.396 -0.5389,0.7202 -0.7261,0.7202 -0.5515,0 -0.3899,-1.7082 0.277,-2.9279 z m -7.2285,0.8822 c 0.67,0 2.7218,1.3546 2.9492,1.9473 0.1102,0.2871 0.1655,0.5162 0.1235,0.5064 -0.042,-0.01 -0.6445,-0.3154 -1.3374,-0.6818 -1.4652,-0.7745 -2.442,-1.7719 -1.7353,-1.7719 z m 33.1872,3.1906 c 0.1781,-0.015 0.3235,0.1381 0.3235,0.4701 0,0.2673 -0.2382,0.684 -0.5292,0.9255 -0.561,0.4657 -0.6886,0.1202 -0.3153,-0.853 0.1318,-0.3434 0.3428,-0.5276 0.521,-0.5426 z m -24.2678,0.2468 0.4651,0.8388 c 0.2558,0.4614 0.4675,1.4345 0.4775,2.1621 0.015,1.5881 -0.3932,1.6764 -1.3746,0.2982 -0.8803,-1.2364 -0.8908,-1.4107 -0.1489,-2.4701 z m 28.3838,0.8208 c 1.2608,0.019 1.5008,0.1 0.97,0.328 -0.9861,0.4239 -2.6459,0.4239 -2.6459,0 0,-0.1939 0.7543,-0.3421 1.6759,-0.328 z m -20.7403,1.3776 c 0.1726,0 0.5122,0.1498 1.0257,0.4533 0.8955,0.5294 1.0629,0.5331 1.7658,0.041 0.8627,-0.604 5.0334,-0.558 4.9434,0.055 -0.027,0.1878 -0.8117,1.175 -1.7426,2.1937 -0.9308,1.0186 -1.7436,1.8491 -1.8066,1.8391 -0.063,-0.01 -1.1219,-0.9697 -2.3538,-2.1402 -1.6236,-1.5431 -2.2731,-2.4525 -1.8319,-2.4414 z m 9.6066,0.7618 c 0.039,8e-4 0.076,0.01 0.1137,0.013 0.3809,0.08 -0.1785,0.8271 -1.8035,2.4085 -2.2501,2.19 -2.3069,2.222 -1.2573,0.706 1.6094,-2.3247 2.3667,-3.138 2.9471,-3.1274 z m -22.4994,0.4892 c 0.9525,-0.031 1.9942,0.4252 2.945,1.3158 0.5983,0.5606 0.6866,0.8175 0.353,1.0295 -0.7863,0.4992 -4.4598,-0.1339 -4.9119,-0.8459 -0.4474,-0.7051 -0.3618,-0.8649 0.6982,-1.3039 0.291,-0.1206 0.5982,-0.1849 0.9157,-0.1955 z m 26.231,1.5753 c 0.015,0 0.025,0.012 0.03,0.026 0.1914,0.5744 -2.741,3.4713 -4.0933,4.0436 -0.6306,0.267 -1.1467,0.7147 -1.1467,0.9948 0,0.2802 -0.2506,0.6059 -0.5576,0.7237 -1.5435,0.5924 -1.1299,0.051 2.4939,-3.2621 1.6351,-1.4946 3.0439,-2.577 3.2738,-2.5257 z m -17.3504,0.7099 c 0.072,0 0.8095,0.739 1.6381,1.6417 0.8286,0.9031 1.9826,1.9344 2.5647,2.2919 v 0 c 1.0508,0.6437 1.0523,0.6535 0.1767,0.6434 -1.5045,-0.011 -3.7945,-1.2697 -4.3842,-2.4101 -0.467,-0.8943 -0.4643,-2.1669 0,-2.1669 z m 21.1362,0.3866 c 1.6866,-0.029 2.9988,0.2833 2.9988,0.713 0,0.4741 -2.157,0.3424 -3.3513,-0.2045 l -1.0583,-0.4847 z m -23.3846,2.109 c 0.046,0 0.083,0.015 0.1105,0.042 0.1086,0.1085 -0.087,0.3058 -0.4346,0.4381 -0.5028,0.1916 -0.5437,0.1511 -0.1979,-0.1973 0.1796,-0.1808 0.3849,-0.2871 0.522,-0.2831 z m 19.6386,0.3714 c 0.1917,0 0.3704,0.028 0.4898,0.077 v 5e-4 c 0.2389,0.097 -0.042,0.1723 -0.6242,0.1622 -0.5821,-0.01 -0.7773,-0.085 -0.4341,-0.1757 0.1717,-0.045 0.3766,-0.066 0.5685,-0.064 z m -13.8576,3.5507 c 0.3275,0 0.8438,0.089 1.6128,0.2392 3.6537,0.7162 5.7218,0.7948 7.6125,0.2905 2.0571,-0.5487 2.4852,-0.2989 0.7054,0.4115 -1.2124,0.4844 -6.1422,0.7813 -8.6124,0.5204 -0.9093,-0.096 -1.5505,-0.3691 -1.6837,-0.7165 -0.2023,-0.527 -0.1804,-0.7501 0.3654,-0.7451 z m -6.0658,1.0671 c 0.2512,-0.012 0.6253,0.026 1.1798,0.098 3.6887,0.4784 4.2474,0.9308 1.9404,1.5717 -0.7276,0.2018 -2.2753,0.3516 -3.4395,0.3317 -1.901,-0.032 -2.018,-0.075 -1.1467,-0.4191 0.5753,-0.2275 0.9704,-0.6516 0.9704,-1.0424 0,-0.3636 0.077,-0.5199 0.4956,-0.5395 z m 19.9657,0.8057 c 1.9599,0 2.1162,0.059 2.1162,0.7937 0,0.5411 -0.2103,0.7938 -0.661,0.7938 -0.3637,0 -1.118,0.073 -1.6759,0.1619 -1.3562,0.2161 -1.8965,-0.065 -1.8965,-0.9851 0,-0.6993 0.1814,-0.7643 2.1172,-0.7643 z" fill="#00B894" transform="translate(32.754069,12.564301) translate(2651.5772,-3415.3545)"/>
</svg>