<?xml version="1.0" ?><svg height="93.290085mm" viewBox="0 0 129.45642 93.290085" width="129.45642mm" xmlns="http://www.w3.org/2000/svg">
    <path d="m 477.5351,185.2636 124.1681,0.25834 -0.5551,86.61755 -123.0579,-0.0516 z" fill="#FFFFFF" paint-order="markers stroke fill" transform="translate(-26.148015,-55.384169) translate(-449.05542,-126.33381)"/>
    <path d="m 7823.2578,4363.0742 c -101.3062,-0.068 -212.1128,3.5185 -216.8086,8.2149 -1.3629,1.363 -3.1629,8.5097 -4.0019,15.8828 -2.1438,18.8685 -0.211,202.3848 -0.037,234.9179 0.079,13.5319 1.2666,40.8633 1.7968,58.6426 0.6966,23.3476 -3.3254,36.5921 14.7891,33.4785 2.3887,-0.4105 26.9556,1.7205 62.7734,0.9766 32.6812,-0.6783 134.0364,0.966 225.2832,0.3281 154.3431,-1.0783 168.0752,-0.2697 176.1426,-0.1816 8.6272,0.094 6.7664,-8.7571 7.209,-13.7305 0.4161,-4.6784 0.3125,-13.7098 0.3125,-149.957 0,-80.5243 -0.7545,-151.3275 -1.6816,-157.3399 -1.1018,-26.6743 -9.6128,-24.3111 -43.7559,-25.5078 -24.991,-0.8464 -82.663,-2.802 -128.1602,-4.3457 -27.3699,-0.9286 -60.0799,-1.3562 -93.8437,-1.3789 z m -23.6777,15.4414 c 5.0592,0.083 10.8406,1.1442 11.3242,4.9219 0.1048,0.8145 0.7981,24.7198 1.4609,47.8711 -4.4781,-1.0843 -4.7522,-0.5666 -4.164,5.4512 0.5861,5.9929 0.034,6.7794 -5.4571,7.7597 -7.9739,1.4239 -9.4215,7.5782 -2.207,9.3887 6.2787,1.5758 6.8009,4.0812 1.1582,5.5566 -5.6132,1.468 -5.142,5.2024 0.8457,6.7051 2.8861,0.7241 5.4354,3.2288 6.1387,6.0313 0.6615,2.6355 2.7684,6.3582 4.6816,8.2715 0.1376,0.1375 0.2337,0.248 0.3594,0.3769 0.094,3.4626 0.1246,4.7929 0.2109,8 -0.4096,0.7381 -0.879,1.5528 -1.4375,2.5039 -6.728,11.4612 -12.5065,11.6554 -27.2773,11.582 -18.8644,-0.7012 -27.5616,2.3866 -26.2402,9.4707 -3.2748,0.026 -6.1828,0 -9.6153,0.068 -36.5257,0.6757 -78.4272,2.2878 -93.1152,3.582 -14.685,1.2941 -29.1012,2.9547 -32.0371,3.6914 -4.783,1.2003 -5.3379,0.5142 -5.3379,-6.625 0.1474,-13.8761 0,-19.0046 0,-50.7168 0.9585,-24.5932 -1.194,-52.4659 -2.3301,-73.9472 0,-4.9921 1.3058,-7.5306 3.6328,-7.6055 14.1589,-1.191 21.9879,-0.6211 40.9766,-0.3594 45.4314,-0.7269 90.366,0.9137 133.834,-1.7988 1.303,-0.1253 2.9093,-0.2072 4.5957,-0.1797 z m 32.082,1.8867 c 10.1748,0.082 28.9438,0.3836 30.3945,0.3692 4.1027,-0.041 3.2872,4.3925 3.3477,7.332 0.1055,5.1459 -0.071,22.0877 0.3633,41.082 -6.7257,4.6976 -15.3381,9.2509 -12.709,1.6719 0.5313,-1.5316 3.8927,-6.3143 1.3906,-8.164 -7.5963,-5.6158 -2.8942,-6.4265 1.8164,-7.2364 6.3468,-1.0912 6.4655,-6.5746 0.3711,-8.4316 -2.5306,-0.7711 -3.1611,-2.4312 -5.0586,-4.0957 -3.7986,-3.3319 -7.7988,-1.9927 -7.7988,2.6094 0,1.6209 -1.8404,2.9472 -4.0898,2.9472 -4.8358,0 -5.7492,6.4261 -0.9161,7.4825 5.1937,1.1351 9.5206,3.3833 1.8633,7.1777 -3.2517,1.6113 -0.3046,7.1687 1.168,8.9433 3.6577,4.4074 -2.437,3.4253 -7.3848,-1.8515 -3.1178,-3.3252 -5.6147,-5.2841 -7.6191,-6.2363 -1.0783,-15.6437 -2.2287,-31.491 -2.5449,-37.3965 -0.1966,-3.6946 -1.2584,-6.0081 1.0566,-6.1914 0.5218,-0.041 2.958,-0.039 6.3496,-0.012 z m 50.3711,0.3672 c 0.7272,-0.016 1.4036,0.01 1.9102,0 61.4264,-0.6207 128.5037,6.9438 177.4199,5.6113 11.399,-2.0054 12.1651,2.9082 12.3027,11.7012 0.4838,30.8595 -0.2845,40.3733 -1.582,75.3125 -0.4407,11.8776 -0.6895,22.3907 -1.1563,33.1211 -0.4339,9.9781 -0.9037,8.7749 -18.6425,8.9883 -5.8889,0.071 -60.1025,-0.4507 -83.0684,-0.8672 -12.2768,-0.2227 -24.1052,-0.4388 -36.9473,-1.3516 2.1638,-2.8876 3.5332,-5.2167 3.5332,-6.4453 0,-8.1739 -5.1625,-10.1527 -28.6054,-10.9551 -9.5586,-0.3271 -16.0147,-1.764 -20.5313,-3.7285 -0.1743,-1.3031 -0.3576,-2.3377 -0.5254,-3.8652 -0.5253,-4.7824 -1.1302,-11.8525 -1.7187,-18.4473 3.1631,-1.823 6.1282,-2.637 8.7812,-2.3594 4.5059,0.472 5.7673,-0.332 6.2891,-4.0117 0.4394,-3.0953 -0.3971,-4.6016 -2.5567,-4.6016 -4.1262,0 -4.2444,-7.9105 -0.1386,-9.4863 4.2142,-1.6169 3.8671,-8.7254 -0.5117,-10.5215 -1.9689,-0.8076 -3.5782,-3.3092 -3.5782,-5.5586 0,-3.285 -1.1557,-3.9692 -5.8632,-3.4648 -2.6969,0.2879 -4.7535,-0.085 -6.4532,-1.2266 -0.1277,-1.1596 -0.2402,-2.3621 -0.375,-3.5 -2.6532,-22.3892 -2.6282,-40.4191 -2.6777,-41.4179 -0.1247,-2.4888 2.5136,-2.8803 4.6953,-2.9278 z m -54.0059,59.9903 c 1.6536,0.095 3.3402,1.5699 6.0762,4.4824 l 4.4883,4.7773 -7.7109,2.5137 c -4.2404,1.3824 -8.8597,2.9909 -10.2657,3.5742 -4.1568,1.7236 -2.9964,-7.0217 1.5332,-11.5508 2.6055,-2.6057 4.2254,-3.8917 5.8789,-3.7968 z m 45.2032,0.3984 c 4.7826,-0.2662 7.207,2.5961 7.207,8.5625 0,7.0933 -1.8098,7.5626 -12.6465,3.2695 -11.8699,-4.7029 -12.0167,-5.2528 -2.5371,-9.5273 3.1421,-1.417 5.8027,-2.1837 7.9766,-2.3047 z m -28.5645,18.084 c 4.4694,0.04 9.3578,0.2348 14.127,0.4043 l 6.998,0.7969 c 13.3372,2.7298 -0.4926,4.9983 -11.7832,3.707 -10.3586,-1.1847 -27.6731,-1.7569 -25.7246,-2.9668 2.6455,-1.6429 8.9339,-2.0078 16.3828,-1.9414 z m -16.709,10.0664 c 0.8705,0 1.8281,0.01 2.8828,0.031 5.9054,0.1334 32.9476,0.293 36.3223,1.2403 4.4942,1.2606 3.1838,3.77 -6.7051,3.2715 -7.4255,-0.3753 -35.1278,-1.3385 -36.9824,-0.3008 -2.4935,1.3955 -3.3711,1.0607 -3.3711,-1.2832 0,-2.1812 1.7604,-2.9332 7.8535,-2.959 z m 18.8086,16.1602 c 10.3092,0 12.1393,0.6303 15.1406,5.2109 6.5095,9.9341 20.0983,19.2051 39.084,19.2051 21.7849,0 16.5148,0.5657 2.5567,14.8769 -18.8576,18.9841 -17.7167,24.023 -2.8907,37.8906 8.7419,8.2025 14.2971,12.5949 -3.58,11.4766 -17.4686,0.038 -26.9412,-7.9215 -34.6758,20.3887 -8.9651,17.4587 -11.2538,16.8665 -21.9805,0.1133 -12.3476,-19.918 -11.3696,-30.4221 -39.3496,-21.836 -8.8315,1.11 -21.5992,6.277 -9.7461,-7.2812 10.2501,-13.0758 16.9972,-19.886 13.5586,-26.5352 -1.6638,-3.2182 -13.7777,-11.0178 -18.5,-13.8945 -5.8589,-3.5691 -5.1185,-7.6907 7.5645,-8.4629 19.29,-1.1745 20.6171,2.8818 29.166,-7.2988 3.7869,-4.1349 6.2933,-11.3577 8.2929,-15.7911 3.6189,-8.0042 3.6867,-8.0624 15.3594,-8.0624 z m 6.3438,17.875 c -2.3212,0.1936 -4.7528,2.016 -5.0684,5.2773 -1.1347,11.7263 -1.274,4.62 -1.6172,1.7324 -0.5578,-4.694 -9.0553,-3.1282 -9.0176,2.2871 0.026,3.7062 -0.9083,13.9366 -1.8378,9.0762 -1.2067,-6.3093 -7.9204,-8.1865 -7.6895,4.0996 0.016,13.6735 0.728,29.463 6.7754,35.1445 2.8141,2.6431 5.1172,6.9008 5.1172,9.461 0.2725,11.7182 15.1289,10.0213 16.3613,-2.1328 0,-2.5092 1.9251,-5.1549 4.6035,-6.3301 5.197,-2.2802 17.7689,-18.549 19.5078,-22.2676 3.9496,-8.4461 -6.3697,-10.1658 -9.3261,-5.3711 -5.9011,9.5703 -1.916,-12.7596 -1.916,-18.916 0,-7.0962 -8.4493,-6.5768 -8.8907,-3.0645 -0.7792,6.2014 -2.8787,2.8875 -2.5937,-4.5019 0.1254,-3.2533 -2.087,-4.6878 -4.4082,-4.4941 z m 214.4668,24.6152 c 3.1411,0.1381 2.1731,0.9468 2.1875,3.9375 l 0.664,12.3437 0.6641,17.1211 -82.6582,0.3867 c -26.8995,0.126 -47.0101,0.3864 -62.4609,0.9043 -1.5552,-1.5234 -3.2346,-3.1395 -5.1856,-4.9687 -6.5891,-6.178 -20.4813,-12.4292 -12.9375,-18.9199 3.2863,-2.8276 7.2151,-6.5393 11.0742,-10.4473 14.8447,0.9708 31.4499,1.3082 45.9805,0.6152 15.3789,-0.7333 54.6854,-1.2741 75.8281,-0.8828 16.4523,0.3046 23.7026,-0.2279 26.8438,-0.09 z m -296.6211,0.4707 c 0.094,0.087 0.1799,0.1703 0.2754,0.2578 6.7489,6.1825 20.1914,13.7859 20.1914,15.1738 0,1.3886 -9.6911,10.7515 -14.5801,16.2168 -1.5493,1.7318 -2.9245,3.2978 -4.1602,4.7442 -9.6056,-0.035 -21.7988,-0.1506 -57.9257,0.5312 -37.166,0.7015 -74.239,0.3636 -80.5391,1.711 -6.3009,1.3468 -11.9618,1.9434 -12.582,1.3242 -0.6191,-0.6194 -1.6309,-9.0079 -2.25,-18.6426 -1.1029,-17.1868 -1.0222,-17.5208 4.4218,-17.6484 3.0509,-0.072 46.9688,-1.0586 97.5918,-2.1915 18.3927,-0.4115 34.4935,-0.9463 49.5567,-1.4765 z m 299.9726,49.2422 v 7.6269 c -0.1474,11.6175 0.4524,19.7411 0,40.7246 -0.6255,29.0188 -0.6622,43.6722 -1.1894,65.4043 -0.1021,4.1485 -1.4117,5.8604 -6.3613,5.8243 -41.4278,-0.3024 -75.7392,-0.458 -122.2852,0.023 -19.1649,0.1984 -20.267,0.1348 -43.998,0.1348 l -2.6895,-55.7579 c -1.417,-29.3832 -1.9734,-36.5394 -2.1191,-54.3652 l 15.3769,0.668 c 24.3523,1.0575 29.8008,-1.0491 29.8008,-9.2051 0,-0.1495 -0.017,-0.3033 -0.027,-0.4551 13.3188,0.1007 27.9464,0.2998 44.3711,0.1563 z m -306.4531,2.9101 c 0.2836,1.3528 0.9397,2.6821 1.9082,4.1602 3.4275,5.2306 3.8191,7.9958 26.2949,4.2441 l 23.8106,-3.9746 c 0.5456,0.6688 0.9189,1.3895 0.8984,2.2305 -0.3859,15.835 6.6133,88.903 6.6133,99.0996 0,10.6379 -0.2645,11.0684 -6.709,11.0684 -86.5708,5.7738 -119.9459,2.7405 -188.166,0.5664 -1.4037,-0.045 -4.8034,1.4874 -5.2559,-12.9707 -0.8689,-27.7487 3.1862,-51.657 -0.3593,-95.3829 -0.344,-9.0432 -6.2387,-8.698 28.6093,-8.1367 30.7481,0.4953 81.5858,-0.1777 112.3555,-0.9043 z m 110.9434,16.6426 c -0.1119,9.7032 -0.071,21.6899 0.2187,37.9375 l 1.1016,62.2481 c -11.7562,-0.011 -23.5135,-0.028 -35.2695,-0.039 l -0.2872,-32.9199 c -0.1172,-13.3536 -0.6186,-27.7071 -1.414,-41.1973 0.7316,0.8451 1.4944,1.7188 1.9726,2.2871 3.9117,4.4077 12.0275,7.1561 19.0469,2.3731 1.5439,-1.8581 7.4046,-9.3882 10.291,-17.8946 z" fill="#00B894" transform="translate(-26.148015,-55.384169) translate(-449.05542,-126.33381) matrix(0.26458333,0,0,0.26458333,-1536.012,-972.67847)"/>
</svg>