<?xml version="1.0" ?><svg height="92.431mm" viewBox="0 0 131.3438 92.431" width="131.3438mm" xmlns="http://www.w3.org/2000/svg">
    <path d="m -691.25484,2416.2593 123.4431,-1.0385 c 0,0 1.08156,48.7421 1.46121,52.4364 0.37965,3.6942 1.16269,33.5474 1.16269,33.5474 l -125.89232,-0.05 z" fill="#FFFFFF" paint-order="markers stroke fill" transform="translate(29.734488,-24.006995) translate(664.00492,-2388.309)"/>
    <path d="m 3578.666,12794.594 c -26.5185,0.09 -59.0658,0.819 -97.1055,2.187 -92.8131,3.34 -152.1855,4.181 -238.5253,3.381 -26.0717,-0.241 -49.3269,0.481 -51.6797,1.606 -4.0609,1.94 -4.3936,4.668 -6.6407,54.203 -1.3029,28.687 -1.714,82.507 -0.9121,119.599 0.8036,37.093 1.0775,86.812 0.5996,110.489 -0.4712,23.676 0.044,45.219 1.1465,47.873 1.1029,2.653 4.0451,5.933 6.5352,7.287 6.6469,3.612 12.5751,3.611 72.1191,-0.02 84.4054,-5.141 216.719,-7.338 334.5489,-5.553 48.0691,0.729 72.161,0.282 75.6679,-1.406 5.4184,-2.606 7.1091,-7.635 3.4219,-10.178 -1.1988,-0.828 -1.4687,-3.31 -0.5957,-5.515 2.462,-6.219 -2.6109,-117.202 -8.4492,-184.781 -0.9475,-10.974 -1.0826,-42.573 -0.2989,-70.221 0.7838,-27.648 0.7059,-52.658 -0.1738,-55.576 -0.9821,-3.264 -4.7402,-6.573 -9.7617,-8.602 -8.2435,-3.328 -35.6989,-4.933 -79.8965,-4.777 z m 29.1289,16.142 12.8379,1.176 12.8418,1.174 -47.1035,26.754 c -25.9079,14.715 -64.2212,36.668 -85.1406,48.783 -20.9195,12.115 -66.4606,37.158 -101.2012,55.65 -80.7066,42.961 -182.085,101.213 -188.9551,108.577 -4.7867,5.128 -6.8945,3.616 -6.291,-4.518 0.5523,-7.443 1.0759,-7.825 30.8926,-22.396 32.5415,-15.904 154.7341,-82.084 183.3008,-99.276 9.5321,-5.735 32.9636,-20.444 52.0742,-32.687 19.1089,-12.243 57.6914,-35.98 85.7422,-52.748 z m -24.2187,2.377 c 1.3076,0.02 2.0708,0.08 2.1543,0.174 0.334,0.374 -6.409,4.45 -14.9805,9.057 -8.5731,4.606 -33.7956,19.653 -56.0527,33.437 -97.4974,60.383 -156.015,94.326 -267.0078,154.873 h 0.01 c -23.3847,12.757 -42.6108,23.186 -42.7265,23.186 -1.1327,-0.04 -3.8135,-125.131 -3.3126,-154.781 0.3489,-21.251 0.2979,-44.249 -0.1171,-51.106 l -0.7559,-12.469 88.2305,2.284 c 81.3034,2.103 171.4078,0.775 271.7871,-4.004 10.0335,-0.479 18.8526,-0.719 22.7754,-0.651 z m 71.7636,4.446 c 0.3952,0.456 -0.9527,14.574 -2.998,31.375 l -3.7168,30.546 -13.793,7.499 c -15.5457,8.45 -44.4166,23.234 -130.7168,66.935 -54.5291,27.611 -152.0174,81.601 -235.4902,130.416 -18.2078,10.648 -40.7741,24.458 -50.1426,30.69 l -17.039,11.33 1.5488,-29.942 c 1.5427,-29.774 1.5822,-29.963 7.3379,-33.594 10.1654,-6.415 140.2986,-77.189 172.4219,-93.773 17.0321,-8.794 41.8078,-21.597 55.0585,-28.451 29.8051,-15.422 102.6118,-56.647 167.6602,-94.934 27.0306,-15.91 49.4723,-28.553 49.8691,-28.097 z m -373.4199,32.88 c -5.4848,0 -5.919,0.61 -11.9551,16.854 -2.33,6.266 -3.7092,7.073 -14.3769,8.406 -22.899,2.861 -20.9586,13.951 4.1601,23.776 1.065,0.417 -0.3034,6.907 -3.0429,14.421 -4.0532,11.115 -4.4696,14.284 -2.2227,16.991 1.5179,1.831 4.4326,3.328 6.4746,3.328 4.1141,0 15.7534,-7.993 21.8184,-14.986 l 3.9199,-4.526 13.1152,6.401 c 15.0222,7.33 19.1445,7.876 23.1387,3.062 2.3709,-2.856 2.0355,-5.117 -1.9863,-13.396 l -4.8379,-9.959 6.666,-8.416 c 3.665,-4.63 6.6699,-9.481 6.6699,-10.78 0,-3.712 -7.7477,-6.917 -16.9414,-7.008 -7.6652,-0.08 -9.1572,-1.155 -16.7754,-12.127 -6.3177,-9.099 -9.6962,-12.041 -13.8242,-12.041 z m 1.1328,15.485 c 0.6667,0.04 4.188,4.104 7.8262,9.055 3.6378,4.951 8.8764,9.878 11.6426,10.945 4.8208,1.859 4.8763,2.165 1.4082,7.459 -1.9899,3.037 -3.0428,7.021 -2.3399,8.849 1.6042,4.183 0.6057,4.161 -7.7773,-0.173 -6.7007,-3.465 -6.8474,-3.422 -15.3223,4.853 -8.8562,8.649 -10.697,8.175 -5.248,-1.357 5.0268,-8.795 4.0126,-13.137 -3.8594,-16.508 l -7.166,-3.072 7.0918,-2.526 c 5.0018,-1.782 7.8905,-4.74 9.8105,-10.049 1.4964,-4.139 3.2673,-7.503 3.9336,-7.474 z m 364.6446,28.201 c 0.8477,0.202 0.843,1.386 0.6992,3.324 -0.2596,3.521 -2.0227,5.827 -5.0899,6.662 -2.581,0.703 -25.6551,13.954 -51.2754,29.45 -84.8997,51.35 -92.5098,55.805 -127.3828,74.527 -19.0411,10.223 -54.1046,28.485 -77.916,40.584 -49.6217,25.212 -107.9884,59.796 -122.7207,72.717 -1.5526,1.365 -9.6136,2.909 -17.9023,3.433 -8.2921,0.524 -17.5833,1.312 -20.6504,1.752 -7.5397,1.082 -13.8242,4.771 108.4121,-63.629 108.2216,-60.557 138.809,-76.932 231.9512,-124.174 28.3203,-14.363 58.5749,-30.75 67.2324,-36.412 9.4495,-6.178 13.2296,-8.57 14.6426,-8.234 z m 0.3183,15.867 c 0.1554,-0.03 0.2587,-0.02 0.3028,0.04 0.8945,1.208 6.2548,100.873 8.0273,149.184 0.8052,21.903 1.7584,44.062 2.1172,49.24 l 0.6523,9.414 -36.039,-1.379 c -80.6074,-3.086 -284.6213,-0.197 -333.2344,4.719 -16.4105,1.659 -18.8934,1.736 -17.5078,0.545 1.3839,-1.194 46.7981,-28.109 62.7109,-37.168 7.295,-4.153 29.1729,-15.357 48.6192,-24.896 38.5022,-18.889 117.0352,-60.704 148.2441,-78.934 65.9214,-38.507 99.7989,-58.998 107.2676,-64.889 4.0914,-3.227 7.7522,-5.641 8.8398,-5.873 z" fill="#00B894" transform="translate(29.734488,-24.006995) translate(664.00492,-2388.309) matrix(0.43747544,0,0,0.43747544,-7138.3956,5297.6871) matrix(0.60479586,0,0,0.60479586,12806.167,-14333.613)"/>
</svg>