<?xml version="1.0" ?><svg height="92.505394mm" viewBox="0 0 130.71951 92.505394" width="130.71951mm" xmlns="http://www.w3.org/2000/svg">
    <path d="m 18439.188,-2751.1543 v 199.7266 h 90.087 v -199.7266 z m 92.087,0 v 199.7266 h 99.52 v -199.7266 z m 103.52,0 v 199.7266 h 87.391 v -199.7266 z" fill="#FFFFFF" transform="translate(64.16378,-65.770133) matrix(0.43747544,0,0,0.43747544,-6057.6838,3156.5399) translate(-4730.5688,-4305.3989)"/>
    <path d="m 13932.969,-7063.69 c -16.521,0.05 -41.797,0.6622 -85.886,1.868 -58.273,1.5935 -81.7,1.8073 -115.805,1.0583 -4.393,-0.092 -33.628,-3.3518 -30.225,8.6481 l -0.412,22.9618 c -0.217,12.6285 -0.171,32.6845 0.108,44.5698 0.279,11.8854 0.325,45.1493 0.101,69.2406 -0.444,48.044 -1.633,55.3492 1.387,57.8696 1.123,0.9369 6.706,2.2497 12.409,2.9169 15.072,1.7637 66.458,0.8162 121.468,-0.024 76.934,-1.1748 150.273,-0.9726 155.427,-0.621 7.671,0.5237 4.204,-2.8284 6.346,-53.7131 1.584,-37.6451 1.56,-53.4301 -0.154,-82.5783 -1.111,-18.901 -1.093,-45.4339 -0.84,-51.9208 0.778,-19.7046 5.096,-21.6279 -25.304,-21.5988 -9.136,0.01 -22.099,1.2733 -38.62,1.3227 z m 53.493,12.0908 -0.817,25.372 c -0.448,13.9545 -0.323,30.8193 0.279,37.4774 1.285,14.2872 -0.478,104.339 -2.271,114.5079 l -1.236,7.0325 -29.711,-0.301 v 0 c 0,0 -32.629,-0.1568 -36.194,0.019 -3.566,0.1756 -6.775,-0.1577 -7.132,-0.7422 -0.358,-0.5844 -0.972,-9.0079 -1.364,-18.7192 -0.847,-21.1105 2.84,-49.506 0.18,-72.9841 -2.29,-20.2271 -1.438,-60.1267 -1.945,-78.3654 l -0.36,-12.8384 c 27.751,-1.6317 57.208,-0.7718 80.571,-0.4586 z m -87.725,0.7215 -1.074,11.0714 c -1.21,12.4202 -2.699,48.8055 -0.588,70.0633 0.138,1.3966 0.209,2.9253 0.332,4.3567 -0.312,-0.01 -0.684,0.034 -1.131,0.1459 -1.377,0.345 -1.695,0.024 -1.695,-1.7016 0,-2.7845 -1.502,-2.7235 -2.627,0.1067 -1.225,3.0852 -3.248,5.056 -4.657,4.5381 -1.535,-0.5638 -3.079,3.2468 -2.386,5.8881 0.774,2.9569 -1.706,6.1863 -4.278,5.5684 -1.806,-0.4338 -2.068,-0.1515 -2.586,2.788 -0.606,3.4346 -2.304,5.4936 -3.802,4.6073 -1.918,-1.1348 0.07,-6.2293 2.892,-7.4177 1.876,-0.7894 2.376,-3.6446 0.731,-4.1698 -0.555,-0.177 -1.797,0.4337 -2.76,1.3557 -0.963,0.9218 -2.838,1.6754 -4.166,1.6754 -1.328,0 -3.095,0.7208 -3.926,1.6006 -1.291,1.365 -1.745,1.4438 -3.092,0.5403 -1.141,-0.7645 -2.908,-0.8861 -6.361,-0.4375 -2.77,0.36 -5.693,0.2886 -6.949,-0.1683 -1.192,-0.4339 -2.734,-0.5797 -3.426,-0.3253 -0.692,0.2543 -2.073,-0.2698 -3.068,-1.1649 -1.14,-1.0252 -3.25,-1.7186 -5.703,-1.8718 -2.142,-0.1337 -4.421,-0.6432 -5.063,-1.1331 -0.642,-0.4899 -2.578,-1.1351 -4.303,-1.4323 -1.947,-0.3357 -3.321,-1.0985 -3.625,-2.0139 -0.554,-1.6708 -4.397,-3.6204 -5.662,-2.872 -0.459,0.2717 -0.591,1.5567 -0.293,2.8552 0.844,3.6776 -0.974,2.8029 -2.379,-1.1443 -1.062,-2.9818 -1.073,-3.7295 -0.08,-5.0299 1.582,-2.0718 1.466,-3.6007 -0.32,-4.2315 -0.817,-0.2885 -1.755,-0.9153 -2.086,-1.3911 -0.417,-0.6006 -0.909,-0.569 -1.609,0.1009 -0.574,0.55 -2.051,0.7655 -3.432,0.5011 -1.945,-0.3725 -2.422,-0.1773 -2.422,0.9947 0,0.8029 0.632,2.1295 1.404,2.947 1.32,1.3962 1.295,1.4865 -0.423,1.4865 -1.02,0 -1.83,0.5132 -1.83,1.1593 0,1.356 3.945,4.5288 5.632,4.5288 0.637,0 1.159,0.3355 1.159,0.7461 0,0.4103 0.214,1.2778 0.474,1.9278 0.36,0.898 -0.05,1.0874 -1.699,0.7853 -1.744,-0.3192 -2.17,-0.078 -2.17,1.2285 0,1.9052 3.105,4.0601 7.006,4.8598 l 2.756,0.5646 -2.971,0.4301 c -2.255,0.3265 -2.971,0.8211 -2.971,2.055 0,1.1981 0.823,1.8207 3.133,2.3673 2.873,0.6795 3.096,0.9342 2.654,3.0477 -0.464,2.2201 -0.357,2.3056 2.85,2.3056 1.833,0 3.757,-0.4077 4.277,-0.905 0.52,-0.4975 1.409,-0.6293 1.977,-0.2936 0.763,0.4517 0.671,0.804 -0.352,1.3519 -1.761,0.9435 -1.781,2.7761 -0.04,3.4163 0.739,0.2713 2.725,0.4936 4.414,0.4936 2.389,0 2.845,0.2175 2.053,0.976 -2.912,2.7884 0.714,4.7819 4.205,2.3112 2.973,-2.1046 3.569,-2.0973 2.381,0.028 -2.324,4.1575 2.178,5.528 5.129,1.5612 2.245,-3.0187 3.046,-3.0625 3.795,-0.2075 0.322,1.2266 0.993,2.7018 1.492,3.2779 v 0 c 1.547,1.7846 2.765,0.6103 3.037,-2.9301 0.21,-2.7298 0.583,-3.3919 1.91,-3.3919 0.907,0 1.651,0.3723 1.651,0.8264 0,0.4543 1.318,1.4277 2.929,2.1635 2.388,1.0899 3.171,1.1477 4.227,0.3085 1.011,-0.8034 1.092,-1.3951 0.367,-2.6925 -0.815,-1.4571 -0.734,-1.5837 0.654,-1.0192 3.264,1.3279 6.252,1.4525 6.252,0.2619 0,-0.6319 -0.413,-1.5449 -0.921,-2.0307 -0.664,-0.6361 0.165,-0.7658 2.964,-0.4637 5.251,0.5665 8.927,-2.1799 4.655,-3.4779 -1.628,-0.495 -1.67,-0.66 -0.459,-1.8194 0.948,-0.9072 2.695,-1.2237 6.047,-1.0939 3.717,0.144 4.827,-0.1019 5.252,-1.1612 0.303,-0.7561 0.03,-1.642 -0.624,-2.0287 -0.914,-0.541 -0.806,-0.8105 0.512,-1.2622 2.132,-0.7306 4.647,-2.7842 4.647,-3.7958 0,-0.4307 -1.147,-0.6176 -2.547,-0.4207 -3.431,0.482 -3.206,-0.47 0.637,-2.7057 3.505,-2.039 4.423,-3.0048 4.443,-4.6728 0,-0.7124 -0.597,-0.9588 -1.686,-0.6862 -2.478,0.6204 -2.076,-0.7457 0.987,-3.3657 0.496,-0.4244 0.868,-0.824 1.185,-1.2061 3.125,39.7814 0.635,93.9993 -0.363,94.8558 -0.338,0.2895 -16.896,0.758 -36.795,1.0415 -19.902,0.283 -44.598,1.2961 -47.537,0.2187 l -5.717,-0.1814 -0.525,-6.6865 c -0.289,-3.6777 0.478,-20.3638 -0.424,-35.7647 -0.903,-15.4006 -0.443,-40.9688 -1.438,-53.5451 -0.996,-12.5765 -0.03,-34.8621 -0.164,-49.5698 -0.13,-14.7077 -0.467,-28.8586 -0.75,-31.4453 l -0.511,-4.7026 5.847,-0.4693 c 5.382,-0.4325 41.715,-0.9488 75.694,-1.5465 z m -186.106,1.0508 c 23.218,0.3369 46.475,1.5158 69.692,0.8976 l 13.894,-0.4133 -0.732,35.3701 c -0.514,24.7926 -3.815,45.0041 -2.236,67.7635 1.239,17.8579 1.035,45.8443 1.845,57.5578 0.809,11.7137 1.193,21.5089 0.85,21.7669 -0.343,0.2582 -8.559,0.7422 -25.15,0.9368 -34.584,0.4059 -56.422,-0.213 -57.256,-1.6211 -0.324,-0.5355 -0.353,-16.9676 -0.07,-36.5164 0.28,-19.5486 0.06,-57.1074 -0.5,-78.7825 -0.558,-21.6749 -0.861,-45.6078 -0.673,-53.1842 z m 135.131,47.9411 c -0.907,-0.2121 -2.802,1.0793 -7.037,4.7083 -3.512,3.0085 -6.773,5.2387 -7.25,4.957 -1.638,-0.9698 -0.861,-3.8321 1.651,-6.0789 2.688,-2.4034 2.577,-3.2778 -0.42,-3.2778 -2.514,0 -5.875,2.6499 -7.176,5.6582 -0.897,2.0728 -0.852,2.7718 0.287,4.4353 0.743,1.0862 2.103,2.2026 3.02,2.4813 0.996,0.3026 1.773,1.3779 1.931,2.67 0.187,1.5243 0.883,2.3037 2.354,2.6328 1.946,0.4356 1.785,0.6449 -2.368,3.0908 -4.469,2.6339 -6.162,4.9924 -5.451,7.5973 0.58,2.1227 3.218,4.0723 6.332,4.6784 3.313,0.6449 4.196,3.3848 1.881,5.8339 -2.782,2.9436 -5.525,1.7458 -6.666,-2.9114 -0.33,-1.3408 -2.178,-3.9909 -4.109,-5.8881 -3.379,-3.3189 -3.472,-3.5527 -2.49,-6.1537 1.829,-4.8428 0.876,-7.8702 -2.475,-7.8702 -1.803,0 -2.467,1.5693 -1.459,3.4461 0.517,0.9621 0.315,2.0643 -0.633,3.4499 -2.276,3.3241 -0.976,7.1511 3.934,11.5875 2.31,2.0874 4.199,4.2043 4.199,4.7045 0,1.1148 3.279,4.0184 5.314,4.7064 1.978,0.6687 5.138,-0.5424 7.352,-2.8178 0.986,-1.0131 2.818,-1.8573 4.072,-1.8774 1.707,-0.028 2.404,-0.5406 2.778,-2.0456 l 0.5,-2.0082 1.404,1.9222 c 0.774,1.0573 2.392,2.5385 3.592,3.2928 l 2.183,1.3725 -2.113,0.9218 c -2.485,1.0839 -3.664,4.5234 -2.15,6.2696 v 0 c 1.219,1.4065 2.224,1.5412 2.963,0.3965 0.289,-0.447 1.225,-0.8115 2.082,-0.8115 0.856,0 1.776,-0.5487 2.045,-1.2192 0.633,-1.5789 2.585,-1.5596 3.97,0.039 1.224,1.4115 4.325,1.2877 4.834,-0.1925 0.183,-0.5308 -0.479,-1.7445 -1.474,-2.6963 -1.411,-1.3511 -1.593,-1.9777 -0.828,-2.8609 0.822,-0.9476 1.703,-0.7412 5.431,1.2733 4.956,2.6776 7.408,3.0012 8.983,1.1855 0.843,-0.9726 0.843,-1.4656 0,-2.4382 -0.894,-1.0309 -0.712,-1.2192 1.17,-1.2192 1.224,0 2.224,-0.1912 2.224,-0.4244 0,-0.2332 -2.127,-2.4611 -4.728,-4.9514 -4.636,-4.4382 -4.699,-4.5598 -3.184,-6.1724 1.546,-1.6442 1.546,-1.644 1.83,0.2786 0.403,2.7297 1.526,3.5895 3.076,2.3579 1.122,-0.8916 1.309,-0.7411 1.309,1.0509 0,1.1499 0.507,2.3837 1.125,2.7412 0.619,0.3575 1.381,1.3147 1.693,2.1278 0.622,1.6172 3.401,1.2821 5.553,-0.6694 2.73,-2.4767 1.76,-18.5161 -1.49,-24.6147 -2.062,-3.8707 -8.297,-9.4318 -12.555,-11.1985 -4.234,-1.7574 -13.066,-1.9754 -15.09,-0.3722 -1.26,0.9982 -1.441,2.1048 -1.097,6.7053 0.227,3.0302 0.08,5.5105 -0.323,5.5105 -0.405,0 -0.736,-0.5703 -0.736,-1.2659 0,-0.6957 -1.227,-2.3371 -2.727,-3.6481 -2.133,-1.8657 -2.501,-2.5973 -1.697,-3.3676 0.566,-0.5413 1.028,-1.2766 1.028,-1.6342 0,-1.0028 -2.932,-0.7687 -4.075,0.3253 -0.566,0.5418 -1.017,0.6142 -1.017,0.1627 0,-0.4471 0.456,-1.2513 1.017,-1.7876 0.778,-0.7395 0.787,-1.2042 0.04,-1.9185 -0.09,-0.089 -0.202,-0.1491 -0.332,-0.1795 z m 15.955,2.9637 c 2.495,-0.066 6.765,1.1879 9.475,2.8759 4.454,2.7737 9.792,13.1517 10.605,20.617 0.478,4.3927 -0.575,6.8567 -1.47,3.4406 -0.327,-1.2445 -1.291,-3.1992 -2.143,-4.3438 -0.851,-1.1448 -1.556,-2.4476 -1.566,-2.8945 -0.08,-3.3521 -1.356,-7.1011 -3.551,-10.4151 -2.809,-4.2434 -5.159,-4.5813 -2.91,-0.4188 0.738,1.3664 1.868,3.906 2.508,5.6432 1.684,4.5695 -0.432,4.2044 -2.416,-0.417 -1.565,-3.6432 -4.436,-6.8302 -5.358,-5.948 -0.282,0.2695 0.251,1.518 1.182,2.773 1.953,2.6305 3.743,8.1865 2.814,8.736 -0.346,0.205 -1.461,-1.2664 -2.478,-3.2704 -1.721,-3.3921 -3.849,-5.1935 -4.922,-4.166 -0.252,0.2415 0.337,1.2022 1.309,2.1335 0.973,0.9312 1.755,2.1488 1.755,2.7075 -0.02,1.7196 -1.443,3.2868 -2.443,2.6945 -0.523,-0.3092 -1.166,-0.025 -1.428,0.6301 -0.603,1.5037 2.522,7.5406 5.45,10.531 1.835,1.8736 2.01,2.4002 1.001,2.9974 -1.039,0.6145 -0.984,0.9786 0.358,2.399 v 0 c 0.875,0.9212 1.239,1.6654 0.816,1.653 -1.274,-0.037 -7.141,-4.5765 -6.593,-5.101 0.28,-0.2679 -0.858,-2.017 -2.528,-3.8855 -1.671,-1.8685 -3.887,-5.3589 -4.926,-7.7581 -1.945,-4.4911 -3.275,-5.5991 -3.275,-2.7281 0,2.5413 3.369,8.7871 6.397,11.8605 3.127,3.1746 2.406,4.4745 -1.141,2.0568 -2.658,-1.8123 -6.468,-8.082 -7.356,-12.1054 -0.322,-1.4566 -0.895,-2.4648 -1.275,-2.24 -0.853,0.5052 0.449,6.2948 2.106,9.3623 0.674,1.2492 2.832,3.587 4.796,5.1963 3.818,3.1279 3.797,3.6515 -0.07,1.7371 -3.326,-1.6464 -6.618,-5.5986 -7.662,-9.1978 -0.483,-1.6624 -0.883,-5.6525 -0.883,-8.8669 0,-3.2142 -0.384,-6.0699 -0.851,-6.3462 -0.888,-0.5252 -1.204,-3.6575 -0.37,-3.6575 1.496,0 3.803,1.9622 5.45,4.6335 1.033,1.6768 2.604,3.5354 3.492,4.1305 0.887,0.5951 1.613,1.6192 1.613,2.2756 0,1.8792 5.562,11.9565 7.545,13.6705 2.573,2.2233 2.252,1.1043 -1.82,-6.3294 -2.435,-4.4455 -3.53,-7.3901 -3.356,-9.0332 0.142,-1.341 0.461,-5.2735 0.709,-8.7379 0.415,-5.7808 0.616,-6.3388 2.461,-6.782 0.274,-0.066 0.595,-0.1027 0.951,-0.1122 z m -21.255,6.2846 c 0.59,0 0.843,0.6595 0.599,1.552 -0.473,1.7333 -3.66,2.9347 -3.66,1.38 0,-1.2625 1.742,-2.932 3.061,-2.932 z m -0.54,6.6679 c 0.07,2e-4 0.156,0.012 0.239,0.039 0.727,0.2335 1.068,2.3644 1.078,6.7726 0.01,3.5375 0.32,6.8889 0.687,7.4477 1.05,1.5975 -0.06,1.1856 -1.295,-0.4806 -2.445,-3.2981 -6.627,-4.0622 -6.627,-1.2117 0,0.8135 -0.472,1.0818 -1.341,0.7629 -0.738,-0.2713 -1.694,-0.4918 -2.123,-0.4918 -2.15,0 -0.274,-2.746 3.888,-5.69 3.539,-2.5025 4.67,-3.8039 4.67,-5.3757 0,-1.1366 0.303,-1.7739 0.824,-1.7727 z m -20.396,30.9124 c 0.163,0.011 0.344,0.051 0.541,0.1234 0.739,0.2713 1.694,0.4936 2.123,0.4936 0.429,0 0.779,0.4928 0.779,1.0939 0,1.7482 2.906,3.7828 5.403,3.7828 1.263,0 3.231,0.5852 4.373,1.3014 1.356,0.8504 3.382,1.2045 5.842,1.0172 2.876,-0.219 3.979,0.045 4.683,1.1238 1.385,2.1236 1.297,2.1693 -3.959,1.9988 -3.75,-0.1216 -5.024,-0.4876 -5.492,-1.58 -0.827,-1.9306 -3.266,-1.8019 -3.813,0.2019 -0.594,2.1741 -1.614,2.0489 -3.294,-0.4057 -0.765,-1.1175 -1.901,-2.0326 -2.524,-2.0326 -1.299,0 -5.463,-4.9248 -5.463,-6.4622 0,-0.4512 0.313,-0.6882 0.801,-0.6563 z m 43.959,9.3979 c 0.527,-0.018 1.048,-0.01 1.533,0.028 l 3.531,0.2748 -1.554,2.9207 c -0.855,1.6061 -2.038,3.2143 -2.629,3.5733 v 0 c -1.494,0.908 -3.843,0.8374 -4.471,-0.1347 -0.288,-0.447 -0.146,-0.8134 0.315,-0.8134 0.461,0 1.466,-0.6015 2.234,-1.3369 1.663,-1.592 0.469,-2.6852 -2.973,-2.7244 l -2.121,-0.024 2.069,-1.0042 c 0.853,-0.4142 2.485,-0.703 4.066,-0.7573 z m -26.816,3.1769 c 0.28,0.01 0.594,0.033 0.943,0.075 2.002,0.2377 3.273,1.0848 4.631,3.0871 2.106,3.1067 1.771,3.3118 -1.815,1.1182 -1.368,-0.8373 -2.843,-1.3115 -3.277,-1.0546 -0.434,0.2568 -1.122,-0.036 -1.529,-0.6526 -1.214,-1.8341 -0.918,-2.6262 1.047,-2.5729 z m 12.544,0.6806 c 0.579,0.012 1.028,0.1424 1.284,0.3871 0.536,0.5136 -0.353,0.7667 -2.528,0.7217 -3.314,-0.069 -3.323,-0.079 -0.826,-0.7928 0.781,-0.2231 1.491,-0.3281 2.07,-0.316 z m 7.885,1.5071 c 0.967,-0.022 0.69,0.9597 -1.281,2.5841 -2.44,2.0099 -6.021,2.6016 -6.957,1.15 -0.289,-0.4471 0.121,-0.8115 0.91,-0.8115 0.79,0 2.742,-0.7734 4.34,-1.7184 1.379,-0.8159 2.408,-1.1909 2.988,-1.2042 z" fill="#00B894" transform="translate(64.16378,-65.770133) matrix(0.43747544,0,0,0.43747544,-6057.6838,3156.5399)"/>
</svg>