<?xml version="1.0" ?><svg height="91.401367mm" viewBox="0 0 129.37585 91.401367" width="129.37585mm" xmlns="http://www.w3.org/2000/svg">
    <path d="m 19751.24,-2031.5684 -275.277,1.0684 -2.51,62.3926 102.893,0.2539 -1.032,-10.0039 c -2.353,-5.2492 -7.444,-11.4555 -7.058,-15.7481 0.106,-1.9882 5.427,-10.411 8.14,-12.1093 l 14.686,5.1289 6.818,-10.3477 10.889,5.3301 12.582,-9.9707 11.051,9.6074 16.865,-5.4238 6.07,10.7441 14.959,-1.0371 0.102,13.3086 -5.393,15.7812 0.03,3.9688 85.289,0.7715 z m -130.738,19.9493 -9.334,7.6933 -11.891,-4.3027 -7.261,10.457 -15.159,-4.1523 -6.318,9.3125 9,15.2754 82.889,1.1972 5.111,-13.2597 0.01,-9.3672 -13.613,1.1836 -5.916,-10.2657 -14.903,5.8692 z m -40.721,37.7168 c 0,0 -1.153,36.3788 1.071,47.08 2.224,10.7012 11.936,38.2033 38.002,40.545 26.066,2.3418 37.866,-26.9839 38.925,-36.1875 1.059,-9.2035 4.088,-50.6329 4.088,-50.6329 z m 85.274,7.2773 c 0,0 -1.624,21.0468 -1.828,32.8906 -0.203,11.8438 -5.416,35.4629 -5.416,35.4629 l 95.998,1.752 -3.465,-69.334 z m -191.602,0.5176 0.68,66.1933 c 0,0 40.362,-2.8379 49.181,-3.4179 8.819,-0.58 60.471,0.3418 60.471,0.3418 0,0 -5.659,-15.5743 -6.676,-22.9004 -1.018,-7.326 -0.763,-39.9629 -0.763,-39.9629 z m 110.332,65.1172 -109.652,3.0761 1.525,60.3868 279.932,-4.7325 -1.781,-52.2597 -95.998,-1.752 c 0,0 -18.364,19.2435 -38.207,17.9004 -19.842,-1.3431 -35.819,-22.6191 -35.819,-22.6191 z" fill="#FFFFFF" transform="translate(35.359675,-213.29649) matrix(0.43747544,0.00531385,0,0.43747544,-6482.8838,2910.5423) translate(-4730.5688,-4305.3989)"/>
    <path d="m 14746.815,-6137.9097 c -6.154,0 -6.328,-5.8189 -7.826,-22.3497 -1.579,-17.4365 -1.093,-174.5166 0.555,-177.855 0.596,-1.2072 2.693,-2.5759 4.661,-3.0415 6.875,-1.6272 122.094,-4.8832 183.651,-5.6464 62.399,-0.7736 89.036,0.06 97.259,3.9919 8.751,7.1475 5.503,46.5718 5.895,71.8958 0.907,58.6902 -1.085,89.7588 2.637,123.3565 0.346,3.1223 -0.128,5.7124 -1.249,6.8338 -1.459,1.4594 -25.107,1.9673 -89.544,2.647 -43.855,0.4625 -112.137,1.1529 -137.07,1.5341 -39.293,0.6008 -55.347,-1.3665 -58.967,-1.3665 z m 186.003,-12.8131 c 73.435,-0.1852 88.318,-0.3893 87.775,-2.3663 -0.327,-1.1899 -0.966,-9.0636 -1.421,-17.4969 -0.455,-8.4333 0.827,-17.883 0.406,-21 0.114,-6.4724 -6.071,-6.491 -6.071,-6.491 -16.967,-0.03 -70.864,0.1892 -76.329,-0.4433 l -9.937,-1.1501 -5.94,5.2287 c -8.884,7.8195 -21.402,13.5397 -29.856,13.6426 -11.546,0.1406 -28.224,-8.8671 -35.069,-18.9413 l -3.16,-4.6491 -22.384,0.2505 c -12.311,0.1379 -52.724,0.6323 -62.918,1.0989 l -18.534,0.8483 0.889,23.4693 c 0.999,26.375 1.853,33.4789 4.02,33.4482 56.211,-4.8145 139.918,-5.3364 178.529,-5.4485 z m -35.408,-43.722 c 2.727,-1.0367 3.068,-1.906 2.614,-6.6667 l -0.522,-5.4745 h -7.194 -7.193 v 6.6667 6.6666 h 4.58 c 2.519,0 5.991,-0.5364 7.715,-1.1921 z m -17.628,-6.8079 v -5.3333 h -6.874 -6.873 l 2.54,2.8576 c 2.096,2.3577 9.659,7.7859 10.873,7.8041 0.184,0 0.334,-2.395 0.334,-5.3284 z m 32,-4.2994 c 0,-1.8817 -0.785,-2.4407 -2.987,-2.1266 -3.106,0.4431 -4.489,3.7268 -3.098,7.3521 0.718,1.872 1.097,1.8407 3.446,-0.2846 1.451,-1.3135 2.639,-3.5369 2.639,-4.9409 z m 106.436,-12.0339 c -0.562,-7.5167 -1.04,-22.5165 -1.062,-33.333 l -0.04,-19.6663 -36.333,-3e-4 c -35.1,-3e-4 -44.536,0.059 -44.056,1.4975 0.152,0.4571 0.342,6.7571 0.421,14 0.179,16.3453 -1.962,36.7479 -4.659,44.3924 -1.122,3.1781 -2.039,6.0029 -2.039,6.2773 0,0.2745 25.727,0.4991 47.394,0.4991 h 41.395 z m -184.749,7.9485 c 14.95,0.9528 16.918,0.8394 16.167,-0.9318 -4.951,-11.6858 -6.254,-19.0409 -6.857,-38.6834 l -0.634,-20.6666 -51.848,-0.1502 -41.849,-0.1502 0.01,20.8168 c 0,11.4493 0.397,25.8088 0.872,31.91 0.809,10.4002 1.038,11.0505 3.658,10.4106 18.613,-2.2794 61.035,-3.7254 80.481,-2.5552 z m 44.979,-9.6152 v -7.3333 h -5.333 c -5.124,0 -5.334,0.1697 -5.352,4.3333 -0.01,2.3834 -0.38,5.6834 -0.822,7.3334 -0.749,2.7939 -0.381,3 5.352,3 h 6.155 z m 20.758,3.7562 c -0.417,-1.0859 -0.758,-4.3252 -0.758,-7.1986 v -5.2242 h -6.666 -6.667 v 7.1111 c 0,3.9111 0.25,7.3611 0.555,7.6666 0.305,0.3056 3.646,0.3449 7.424,0.088 5.406,-0.3684 6.708,-0.8888 6.112,-2.4424 z m 22.644,-1.0467 c 1.062,-2.5431 1.932,-6.1431 1.932,-8 0,-2.7123 -0.656,-3.3761 -3.334,-3.3761 -2.966,0 -3.331,0.5507 -3.315,5 0.02,5.165 1.189,11 2.206,11 0.318,0 1.448,-2.0808 2.511,-4.6239 z m -11.192,-4.041 c -0.384,-6.168 -0.861,-7.3351 -3,-7.3351 -2.194,0 -2.543,1.0074 -2.543,7.3333 0,6.7155 0.253,7.3335 3,7.3351 2.803,0 2.97,-0.4796 2.543,-7.3333 z m -49.543,-0.6685 c 0,-4.4444 -0.444,-5.3333 -2.667,-5.3333 -3.119,0 -3.184,0.3788 -1.065,6.2387 2.157,5.9653 3.732,5.5832 3.732,-0.9054 z m 0,-16.6666 v -7.3334 h -4.748 -4.749 l 0.918,6.3334 c 1.159,7.9887 1.379,8.3333 5.324,8.3333 3.056,0 3.255,-0.4473 3.255,-7.3333 z m 17.333,-0.6667 v -6.6667 h -5.333 -5.333 v 6.6667 6.6667 h 5.333 5.333 z m 19.334,0 v -6 l -6.334,-0.4064 -6.333,-0.4064 v 6.8128 6.8128 l 6.333,-0.4064 6.334,-0.4064 z m 27.833,2.5 c 1.446,-7.2305 1.151,-7.8333 -3.833,-7.8333 -4.522,0 -4.667,0.1587 -4.667,5.1111 0,5.9034 0.675,6.8889 4.722,6.8889 2.231,0 3.147,-1.0095 3.778,-4.1667 z m -15.167,-3.1667 c 0,-5.5111 -0.271,-6 -3.333,-6 -3.062,0 -3.333,0.4889 -3.333,6 0,5.5111 0.271,6 3.333,6 3.062,0 3.333,-0.4889 3.333,-6 z m 16.767,-13.3955 c 0.488,-2.6008 0.576,-5.0395 0.196,-5.4193 -0.379,-0.3798 -2.852,-0.285 -5.493,0.2106 -4.118,0.7725 -4.803,1.4185 -4.803,4.5304 0,4.5626 0.858,5.4072 5.495,5.4072 3.202,0 3.84,-0.6555 4.605,-4.7289 z m -66.1,-1.2711 c 0,-4.4445 -0.222,-4.6667 -4.667,-4.6667 -4.444,0 -4.666,0.2222 -4.666,4.6667 0,4.4444 0.222,4.6666 4.666,4.6666 4.445,0 4.667,-0.2222 4.667,-4.6666 z m 49.333,0.6666 c 0,-3.5555 -0.444,-4 -4,-4 -3.301,0 -4,0.5432 -4,3.1111 0,1.7111 0.4,3.5111 0.889,4 0.489,0.4889 2.289,0.8889 4,0.8889 2.568,0 3.111,-0.6984 3.111,-4 z m -32,-0.6666 c 0,-3 -0.533,-3.3334 -5.333,-3.3334 -4.8,0 -5.333,0.3334 -5.333,3.3334 0,3 0.533,3.3333 5.333,3.3333 4.8,0 5.333,-0.3333 5.333,-3.3333 z m 18.426,0.3333 c -0.354,-2.4939 -1.382,-3.0692 -6.092,-3.41 -5.297,-0.3832 -5.667,-0.1872 -5.667,3 0,3.1603 0.446,3.41 6.093,3.41 5.555,0 6.055,-0.2644 5.666,-3 z m 13.574,-10.8333 c 0,-1.7417 0.375,-5.0417 0.834,-7.3334 0.825,-4.1279 0.782,-4.1666 -4.667,-4.1666 -5.416,0 -5.5,0.073 -5.5,4.7543 0,6.4919 2.087,9.9123 6.047,9.9123 2.57,0 3.286,-0.6898 3.286,-3.1666 z m 17.334,0 c 0,-1.7417 0.375,-5.0417 0.833,-7.3334 l 0.833,-4.1666 h -7.273 -7.273 l 1.33,7.3333 1.329,7.3333 h 5.11 c 4.491,0 5.111,-0.3841 5.111,-3.1666 z m -66.667,-4.8334 v -6.6666 h -5.333 -5.334 v 6.6666 6.6667 h 5.334 5.333 z m 17.352,3 c 0.01,-2.0166 0.38,-5.0166 0.822,-6.6666 0.757,-2.825 0.406,-3 -6.019,-3 h -6.822 v 4.5576 c 0,7.4091 1.061,8.7757 6.81,8.7757 4.769,0 5.192,-0.2977 5.209,-3.6667 z m 17.315,-3 v -6.6666 h -6.143 c -5.054,0 -5.999,0.3739 -5.333,2.109 0.445,1.16 0.809,4.16 0.809,6.6667 0,4.4283 0.151,4.5576 5.333,4.5576 h 5.334 z m -52.001,-9.5561 c 0,-3.9724 -4.375,-15.0282 -6.457,-16.315 -1.547,-0.956 -0.308,-6.1577 2.982,-12.5208 2.909,-5.6256 7.457,-6.6689 13.509,-3.0987 4.394,2.5929 4.788,2.6265 5.547,0.4741 2.756,-7.8152 10.56,-10.529 15.886,-5.5248 l 2.972,2.792 1.487,-2.7782 c 1.707,-3.1884 8.038,-6.8058 11.911,-6.8058 1.45,0 4.346,2.0744 6.436,4.6099 l 3.8,4.6098 7.01,-3.4693 c 5.884,-2.9119 7.544,-3.2265 10.328,-1.958 2.039,0.9292 3.618,3.0149 4.098,5.4142 0.766,3.8337 0.924,3.8989 8.898,3.6814 7.23,-0.1971 8.288,0.1122 9.67,2.827 1.617,3.1781 -0.158,14.4263 -3.109,19.6995 -0.933,1.6686 -0.88,3.182 0.175,4.913 1.226,2.0126 1.068,2.8402 -0.809,4.234 -1.283,0.9529 -2.333,1.9663 -2.333,2.2521 0,0.2859 24.199,0.5197 43.998,0.5197 h 37.998 l 0.02,-6.6666 c 0.03,-6.7855 -0.03,-36.0755 1.382,-44.8269 1.588,-9.816 -8.219,-7.0859 -25.649,-7.7514 -14.531,-0.5085 -59.621,-0.2628 -90.421,0.546 -63.674,1.672 -150.369,2.0629 -154.349,0.7997 -2.627,-0.8337 -2.672,9.5836 -2.105,29.5236 0.318,11.2066 0.85,22.1768 1.181,24.3756 l 0.602,4 h 42.669 52.668 z m 8.581,-7.6375 c 0.406,-0.6565 -0.241,-1.569 -1.436,-2.0278 -1.977,-0.7585 -1.957,-1.0737 0.214,-3.473 1.314,-1.4514 3.195,-2.6389 4.182,-2.6389 2.146,0 2.224,0.7024 0.448,4.0225 -1.243,2.3217 -1.039,2.4069 2.666,1.1152 4.661,-1.6246 4.767,-2.1315 1.765,-8.4258 -1.395,-2.9267 -3.197,-4.7119 -4.754,-4.7119 -1.379,0 -3.779,-0.6808 -5.334,-1.5129 -2.421,-1.2956 -3.284,-0.9809 -6.014,2.1921 -1.778,2.0672 -2.617,4.0621 -1.898,4.5129 0.709,0.4443 2.615,3.3579 4.236,6.4746 2.914,5.6028 4.491,6.7933 5.925,4.473 z m -4.58,-12.1397 c 0,-2.0082 0.696,-2.7281 2.333,-2.4129 1.283,0.2472 2.333,1.333 2.333,2.4129 0,1.0799 -1.05,2.1657 -2.333,2.4128 -1.637,0.3153 -2.333,-0.4046 -2.333,-2.4128 z m 39.852,11.9155 c 8.288,-0.069 9.537,-0.3366 6.814,-1.4598 -4.174,-1.7221 -24.139,-0.6526 -27.503,1.4734 -2.049,1.295 -1.328,1.4428 4.023,0.8244 3.585,-0.4144 11.085,-0.7915 16.666,-0.838 z m 38.363,-2.0732 c -2.081,-1.1281 -4.164,-1.6714 -4.628,-1.2075 -1.187,1.1871 2.555,3.3308 5.746,3.2914 2.199,-0.027 2.003,-0.3928 -1.118,-2.0839 z m -9.181,-8.6176 c 4.282,-6.4999 4.322,-6.6955 2,-9.886 -1.302,-1.7902 -3.284,-3.2738 -4.404,-3.2968 -3.444,-0.071 -7.967,3.9506 -7.91,7.0337 0.05,2.6677 0.231,2.5953 2.086,-0.8248 2.169,-4.0013 4.125,-4.1514 6.432,-0.4933 1.06,1.6813 0.913,3.1805 -0.572,5.8138 -2.594,4.602 -5.318,5.4393 -6.239,1.9175 -0.876,-3.347 -3.094,-2.4151 -3.094,1.2995 0,2.1675 3.736,5.0006 6.667,5.055 0.366,0.01 2.632,-2.9716 5.034,-6.6186 z m 16.299,4.4009 c 0,-0.5725 -1.8,-1.7204 -4,-2.5508 -4.307,-1.6255 -5.502,-0.082 -1.667,2.1517 2.805,1.6338 5.667,1.8354 5.667,0.3991 z m -56.249,-2.3942 c 0.963,-0.3003 1.346,-1.2024 0.85,-2.0048 -0.65,-1.0506 -1.308,-1.0533 -2.352,-0.01 -2.117,2.1178 -6.249,1.7707 -6.249,-0.5251 0,-1.086 1.5,-2.351 3.333,-2.8112 1.834,-0.4601 3.334,-1.6154 3.334,-2.5672 0,-1.3654 -0.996,-1.4251 -4.718,-0.2829 -3.178,0.9753 -4.483,2.0582 -4,3.3176 0.395,1.0284 0.718,3.0321 0.718,4.4528 0,2.5477 1.989,2.642 9.084,0.4303 z m 23.166,-4.7963 c 0.465,-4.8758 -0.02,-6.1142 -3.904,-10 -2.439,-2.4393 -4.969,-4.4351 -5.622,-4.4351 -0.652,0 -2.892,1.4351 -4.976,3.1891 -3.341,2.8106 -3.733,3.9184 -3.302,9.3333 0.269,3.3794 0.972,6.1443 1.563,6.1443 0.591,0 0.776,-1.1422 0.411,-2.5382 -0.858,-3.2789 3.269,-4.6875 8.219,-2.8054 2.737,1.0404 3.485,2.0573 2.968,4.034 -0.5,1.9126 -0.03,2.6429 1.711,2.6429 1.845,0 2.525,-1.2899 2.932,-5.5649 z m -7.744,-5.7046 c -0.408,-1.0649 -0.336,-2.594 0.161,-3.3981 1.139,-1.8435 4.666,0.8 4.666,3.4975 0,2.4423 -3.882,2.3624 -4.827,-0.099 z m -7.783,-0.6384 c -0.911,-1.4736 1.193,-3.0648 2.424,-1.8336 1.268,1.2677 1.031,3.0748 -0.402,3.0748 -0.69,0 -1.6,-0.5585 -2.022,-1.2412 z m 51.277,6.5327 c 0,-1.8996 -3.521,-3.0784 -5.515,-1.8463 -1.178,0.7283 -0.914,1.2999 0.936,2.0244 3.648,1.4284 4.579,1.3922 4.579,-0.1781 z m -60,-9.5669 c 0,-1.5091 -5.041,-1.3082 -8.088,0.3223 -4.439,2.3758 -2.818,3.6465 2.754,2.1591 2.934,-0.783 5.334,-1.8996 5.334,-2.4814 z" fill="#00B894" transform="translate(35.359675,-213.29649) matrix(0.43747544,0.00531385,0,0.43747544,-6482.8838,2910.5423)"/>
</svg>