<?xml version="1.0" ?><svg height="90.968109mm" viewBox="0 0 130.50952 90.968109" width="130.50952mm" xmlns="http://www.w3.org/2000/svg">
    <path d="m 18227.186,-2759.2559 c -16.742,-0.6697 -140.168,7.1993 -140.168,7.1993 l -6.452,189.123 128.946,-1.7031 149.468,-2.2617 3.815,-187.67 c 0,0 -118.867,-4.0179 -135.609,-4.6875 z m -17.678,35.9473 a 62.913002,62.435501 0 0 1 62.914,62.4356 62.913002,62.435501 0 0 1 -62.914,62.4355 62.913002,62.435501 0 0 1 -62.912,-62.4355 62.913002,62.435501 0 0 1 62.912,-62.4356 z m -1.32,5.7656 a 57.844498,56.812878 0 0 0 -57.846,56.8125 57.844498,56.812878 0 0 0 57.846,56.8125 57.844498,56.812878 0 0 0 57.843,-56.8125 57.844498,56.812878 0 0 0 -57.843,-56.8125 z" fill="#FFFFFF" stroke="#d40000" stroke-linecap="round" stroke-linejoin="round" stroke-width="1.905" transform="translate(75.168574,-91.656373) matrix(0.43747544,0,0,0.43747544,-5912.5815,3184.5006) translate(-4730.5688,-4305.3989)"/>
    <path d="m 13345.997,-6864.3329 c -2.916,-3.0527 -3.186,-18.3244 -1.722,-97.1538 1.162,-62.5618 1.434,-71.2513 2.046,-81.5784 0.69,-7.1756 0.129,-13.6377 0.339,-16.8758 0.636,-9.816 9.307,-4.9824 95.573,-9.0593 21.879,-1.034 53.887,-1.0075 108.367,0.09 l 77.316,1.5575 5.777,0.166 c 5.272,0.1515 5.617,7.434 6.577,17.0141 2.391,23.8836 1.309,91.3047 0.519,127.8647 -0.944,43.4533 -2.904,57.9266 -8.109,59.712 -1.584,0.5431 -32.651,0.6989 -69.037,0.3461 -36.386,-0.3526 -79.812,-0.3314 -96.501,0.047 -16.69,0.3789 -50.349,0.5002 -74.798,0.2695 -36.931,-0.3483 -44.774,-0.7545 -46.347,-2.4 z m 73.815,-7.95 c 69.998,-1.8585 146.61,-2.7632 176.713,-2.0866 16.967,1e-4 28.539,1.2696 28.835,-2.5436 l 1.007,-12.9831 c 1.188,-15.3131 1.892,-67.8171 1.507,-136.7891 0.05,-29.3747 1.075,-30.9111 -3.601,-31.0012 l -68.383,-1.3172 c -66.89,-1.2884 -114.367,-0.6046 -171.443,2.1783 -12.309,0.6002 -23.059,1.4908 -23.892,1.9791 -2.326,1.3649 -4.958,46.7364 -4.354,75.022 0.293,13.6546 0.145,43.4802 -0.328,66.2791 -0.471,22.7989 -0.405,41.9379 0.151,42.5314 0.554,0.5934 5.668,0.8021 11.362,0.4637 5.694,-0.3384 29.285,-1.1181 52.426,-1.7324 z m 37.096,-33.088 c -21.276,-5.8279 -29.704,-18.5849 -35.92,-27.4462 -10.374,-14.7889 -10.653,-35.757 -2.399,-61.1765 7.884,-24.2766 38.419,-42.6853 69.693,-36.8243 36.501,6.8403 50.515,30.7539 54.708,48.6089 5.852,24.922 -2.651,43.8993 -8.015,53.2294 -4.813,8.372 -19.146,19.2784 -29.096,23.4162 -20.176,8.391 -40.861,2.4141 -48.971,0.1925 z m 47.175,-12.4292 c 4.939,-2.3652 16.267,-9.6681 18.518,-13.8226 7.404,-13.6651 12.764,-29.6989 6.004,-52.5927 -7.809,-16.6553 -14.369,-34.3168 -50.648,-35.2862 -9.872,-0.2638 -18.044,2.1065 -24.275,5.0872 -8.77,4.1947 -22.053,16.3074 -24.865,23.6986 -6.305,16.5782 -6.172,34.755 -2.059,43.6711 4.164,9.0302 11.047,22.4613 35.967,31.11 7.986,2.7716 32.697,2.2813 41.358,-1.8654 z" fill="#00B894" transform="translate(75.168574,-91.656373) matrix(0.43747544,0,0,0.43747544,-5912.5815,3184.5006)"/>
</svg>