<?xml version="1.0" ?><svg height="182.78746mm" viewBox="0 0 150.02823 182.78746" width="150.02823mm" xmlns="http://www.w3.org/2000/svg">
    <path color="#000" d="m 94.38938,1852.9598 c 0,0 -1.422386,-628.6388 -2.907496,-653.1828 -1.485111,-24.544 45.391236,-19.9276 48.198876,16.7677 41.66947,-14.0353 116.15145,-15.847 215.47733,63.4256 99.73121,79.5961 276.77231,-33.0494 276.77231,-33.0494 l 13.09606,319.5582 c 0,0 -112.46413,125.0287 -288.51827,45.6858 -176.05414,-79.3428 -230.46352,-31.8343 -230.46352,-31.8343 l 6.34419,276.642 c 0,0 -19.83577,24.5129 -37.99948,-4.0128 z" fill="#FFFFFF" overflow="visible" paint-order="fill markers stroke" transform="translate(296.01839,-17.449215) matrix(0.26458333,0,0,0.26458333,-318.76554,-293.67926)"/>
    <path d="m 132.38886,1856.9726 c -16.20714,-34.4651 -5.28807,-265.4018 -14.05404,-266.4276 -11.90869,6.6644 -14.68016,12.8001 -14.04267,31.0884 1.73358,65.7944 5.15931,132.7534 1.95733,233.089 -6.633913,-0.2494 -8.188105,4.1497 -11.8601,-1.7626 2.70932,-64.7635 -4.273759,-195.7372 -3.275323,-253.1914 0.748007,-39.6446 0.790418,-114.9774 0.09833,-174.431 -0.274209,-23.5513 -0.402482,-65.2068 -0.285071,-92.5679 0.11741,-27.3612 -0.05951,-51.1644 -0.393131,-52.8962 -0.333717,-1.7316 -0.837741,-13.209 -1.120262,-25.5053 -0.317093,-13.8077 -1.049231,-23.0023 -1.914458,-24.0448 -1.778251,-2.1427 -2.11858,-39.2452 -0.400404,-43.6475 1.553348,-3.9799 7.215394,-9.3218 8.8257,-8.3266 0.670363,0.4143 3.152697,-0.055 5.516389,-1.0424 14.04182,-5.867 41.30943,7.9614 41.30943,20.9494 0,4.5665 2.90626,7.9333 5.80024,6.7193 2.94895,-1.2369 3.72577,-1.3403 23.26046,-3.0968 10.48389,-0.9426 19.63632,-1.0354 27.07775,-0.2745 6.18251,0.6321 12.37455,1.1384 13.75986,1.1251 2.05,-0.02 18.22513,2.4483 30.2263,4.6118 5.48172,0.9883 15.23065,3.621 17.30002,4.672 1.20291,0.6109 2.93308,1.1107 3.84497,1.1107 7.19358,0 32.72034,15.8678 45.35805,28.1953 21.67374,20.9997 48.14026,35.2988 72.03418,47.2359 59.87602,26.2553 124.60369,16.4251 181.35777,-8.736 1.3854,-0.6229 6.36981,-2.5498 11.07643,-4.2821 15.06412,-5.5443 36.23424,-18.3898 47.73591,-28.9649 4.83829,-4.4485 7.30768,-4.8738 7.30768,-1.2584 0,1.0712 1.22681,1.8148 2.99439,1.8148 5.19118,0 5.66318,2.144 6.52765,29.6512 0.45613,14.5163 1.12253,26.8805 1.48071,27.476 1.28037,2.128 1.60303,12.2756 2.16798,68.186 0.31502,31.1707 0.83718,59.5079 1.1606,62.9714 0.32323,3.4634 0.72486,11.6812 0.89252,18.2616 0.16767,6.5806 0.71674,12.8148 1.2203,13.8538 0.50345,1.039 1.22152,7.5566 1.59557,14.4834 0.37405,6.927 0.97187,14.8967 1.32863,17.7103 2.40639,18.9804 5.17229,61.949 4.69698,72.9687 -0.2675,6.2038 -4.1069,8.4511 -10.55266,6.1768 -5.28063,-1.8631 -5.28063,-1.8631 -9.90733,2.9069 -32.56891,28.1926 -74.79232,51.1043 -113.55358,60.6791 -23.09403,5.8365 -73.97272,5.9287 -93.44951,0.1694 -2.07806,-0.6144 -6.32863,-1.4813 -9.44571,-1.9262 -3.11709,-0.445 -9.35127,-2.1004 -13.85376,-3.6789 -4.50249,-1.5785 -11.3034,-3.8624 -15.11314,-5.0755 -3.80974,-1.2131 -9.1938,-3.2165 -11.96461,-4.4521 -48.95799,-25.8899 -116.43063,-53.9809 -168.13131,-57.8279 -23.76751,-3.7075 -81.29363,7.5768 -72.46264,14.2142 1.56535,1.1765 1.97,7.8379 2.4575,40.4508 1.73017,115.7444 2.06672,135.3752 2.67304,155.9166 0.36385,12.3295 0.93182,26.4981 1.26214,31.4858 2.36927,35.7762 2.04934,43.5281 -1.8797,45.56 -4.51468,2.3346 -4.91334,1.7701 -6.6454,-0.3171 z M 499.7987,1630.7522 c 2.77081,-0.4459 8.43824,-1.3915 12.59435,-2.1014 28.55119,-4.8771 67.01283,-23.9206 104.11826,-51.5521 6.97641,-5.1951 14.41123,-10.7001 16.52188,-12.2333 5.66856,-4.1176 5.89441,-4.8563 5.88733,-19.2524 0,-11.9123 -0.66631,-21.1546 -4.90498,-68.639 -1.3173,-14.7578 -2.25573,-27.7679 -3.17924,-44.08 -0.31388,-5.5415 -0.69822,-32.1784 -0.85427,-59.193 -0.15604,-27.0148 -0.70758,-54.2185 -1.22558,-60.4527 -0.5181,-6.2342 -1.35159,-20.8664 -1.85212,-32.5159 -0.91028,-21.1809 -0.91028,-21.1809 -7.33365,-14.9074 -3.53279,3.4504 -9.82383,8.1316 -13.97995,10.4026 -14.79274,8.083 -22.74273,11.9085 -28.02223,13.4842 -7.29514,4.4428 -15.32279,5.7502 -22.98464,8.9673 -4.5024,1.9092 -12.4368,4.7331 -17.63194,6.2753 -5.19515,1.5423 -10.57921,3.2905 -11.96461,3.885 -2.59275,1.1126 -19.69611,4.493 -29.41349,5.8136 -8.14825,1.1072 -42.08048,1.2055 -54.28539,0.1572 -35.3573,-3.0369 -52.53642,-7.5969 -80.02686,-21.2424 -4.64342,-2.3049 -6.96546,-3.5652 -19.52118,-10.5963 -6.30974,-3.5334 -28.96019,-22.0985 -41.83045,-34.2858 -6.04469,-5.724 -12.28246,-10.965 -13.86159,-11.6468 -1.57932,-0.6817 -3.72152,-1.7629 -4.76055,-2.4028 -58.60397,-36.0857 -180.89569,-20.4572 -178.31946,22.7887 1.66792,27.9989 2.05945,46.0524 1.8524,85.4201 -0.11836,22.5123 0,57.6503 0.26835,78.0846 0.668,51.3231 0.36725,150.8847 -0.47087,155.8544 -0.8504,5.0434 -0.0968,5.0943 5.43488,0.366 2.39817,-2.0499 4.83772,-3.7501 5.42118,-3.7783 3.08034,-0.1487 6.71921,-4.5572 5.04921,-6.1171 -0.93617,-0.8745 -1.79308,-3.8346 -1.90445,-6.578 -0.1108,-2.7434 -0.3561,-7.3968 -0.54417,-10.3406 -0.58913,-9.2298 -0.52669,-66.4864 0.0784,-71.2963 0.31681,-2.5214 0.92389,-13.6524 1.34895,-24.7353 0.42505,-11.0829 1.20952,-27.5185 1.74339,-36.5235 0.53378,-9.0049 1.14841,-47.2599 1.36566,-85.0113 0.37727,-65.5497 0.49052,-74.8917 1.01731,-83.9438 0.29508,-5.072 6.3734,-7.9418 9.38205,-4.4296 3.91969,4.5758 3.74466,-2.2405 2.85128,111.0431 -0.23208,29.4392 -0.72373,55.7926 -1.09239,58.5633 -0.36876,2.7708 -1.02996,12.9722 -1.46938,22.6698 -0.43932,9.6976 -1.11903,22.4493 -1.51027,28.3371 -0.39134,5.8879 -0.90216,29.8963 -1.13519,53.352 -0.29981,30.193 -0.85465,43.1661 -1.89972,44.4253 -2.27888,2.7459 -0.19458,3.6649 4.28363,1.8884 18.22693,-7.2306 45.17292,-11.0583 68.27591,-9.6987 70.8938,6.798 127.05764,37.3345 166.0543,55.4702 36.45149,17.1044 95.78439,26.2019 132.43037,20.3056 z M 117.56207,1215.662 c 2.42433,-0.9316 5.39973,-2.5384 6.612,-3.5706 1.21217,-1.0324 2.20397,-1.4364 2.20397,-0.8979 0,0.5385 0.85011,0.2736 1.88914,-0.5887 5.6526,-4.6912 -1.69957,-18.404 -11.33486,-21.1408 -17.794409,-5.0544 -23.081366,3.6914 -16.35507,27.0547 2.24647,7.8029 2.24647,7.8029 7.41158,4.32 2.84089,-1.9156 7.1488,-4.2451 9.57324,-5.1767 z" fill="#00B894" transform="translate(296.01839,-17.449215) matrix(0.26458333,0,0,0.26458333,-318.76554,-293.67926)"/>
</svg>