<?xml version="1.0" ?><svg height="93.29007mm" viewBox="0 0 129.45638 93.29007" width="129.45638mm" xmlns="http://www.w3.org/2000/svg">
    <path d="m 1440.6714,-39.703806 124.1681,0.258339 -0.5551,86.617545 -123.0579,-0.05165 z" fill="#FFFFFF" paint-order="markers stroke fill" transform="translate(11.854733,-127.67207) translate(-1450.1945,170.9216)"/>
    <path d="m 1497.0326,-43.249282 c -26.8052,-0.018 -56.126,0.93086 -57.3685,2.1735 -0.3606,0.36063 -0.8369,2.25156 -1.0589,4.20235 -0.5672,4.992315 -0.056,53.547968 -0.01,62.155691 0.021,3.580314 0.3352,10.811745 0.4755,15.515866 0.1843,6.177373 -0.8797,9.681298 3.9131,8.857508 0.632,-0.108625 7.1318,0.45522 16.6086,0.25839 8.6469,-0.17946 35.464,0.255563 59.6064,0.08681 40.8366,-0.28532 44.4696,-0.07097 46.6041,-0.04773 2.2826,0.02485 1.7902,-2.316942 1.9073,-3.632822 0.1101,-1.237845 0.083,-3.627738 0.083,-39.6764784 0,-21.3053896 -0.1995,-40.0387246 -0.4448,-41.6295046 -0.2915,-7.05758 -2.5434,-6.43231 -11.5771,-6.74894 -6.6122,-0.22394 -21.8712,-0.74136 -33.909,-1.1498 -7.2429,-0.24575 -15.8993,-0.35888 -24.8343,-0.36484 z m -7.4853,4.13309 c 1.379,-0.13259 4.0415,-0.078 4.2121,1.2547 0.07,0.54423 0.9222,31.172534 0.9297,32.7902567 0.01,1.6904014 -7.5487,1.1719979 -17.2129,1.3508079 -9.6641,0.17878 -20.7505,0.60531 -24.6367,0.94774 -3.8854,0.34239 -7.6996,0.78174 -8.4764,0.97668 -1.2655,0.31758 -1.4124,0.13605 -1.4124,-1.75286 0.039,-3.671406 0,-5.0283254 0,-13.4188196 0.2536,-6.507023 -0.3158,-13.881583 -0.6164,-19.565195 0,-1.32083 0.3455,-1.99247 0.9612,-2.01229 3.7462,-0.31513 5.8172,-0.164435 10.8413,-0.09522 12.0204,-0.192328 23.9096,0.241891 35.4105,-0.4758 z m 8.0242,0.454698 c 0.5522,-0.04372 9.2104,0.09973 9.7222,0.09463 1.0855,-0.01074 0.8693,1.162167 0.8853,1.93992 0.054,2.633081 -0.2423,16.577785 1.0893,24.571105 0.5369,3.2213596 1.0248,6.8233696 1.0838,8.0046796 0.086,1.69746 0.4754,2.32418 1.8587,2.98844 2.586,1.24189996 13.8519,2.09915 22.2943,1.69653996 4.069,-0.19402 14.4689,-0.33718355 20.0629,-0.23364705 8.706,0.16113621 7.6737,-0.56429997 7.6813,1.01824799 l 0.1757,3.2657791 0.1756,4.52996 -21.8701,0.10231 c -23.5112,0.11007 -28.2155,0.56139 -29.4249,2.8220504 -0.4821,0.89982 -0.6091,5.9628 -0.4191,16.6021 l 0.2913,16.469711 c -3.1105,-0.0033 -6.2209,-0.0067 -9.3314,-0.01 l -0.076,-8.709991 c -0.084,-9.566268 -0.8389,-21.351068 -2.183,-24.141758 -0.7483,-1.55258 -1.4719,-2.18303 -2.581,-2.24743 -0.8475,-0.0492 -5.683,-0.1564813 -8.2884,-0.04275 -5.4227,0.236717 -4.95,-0.079337 -20.3977,0.212264 -9.8335,0.1856 -19.6427,0.09628 -21.3096,0.452784 -1.6671,0.35636 -3.1649,0.51419 -3.329,0.35036 -0.1638,-0.16388 -0.4315,-2.3833404 -0.5953,-4.9325204 -0.2918,-4.54734 -0.2701,-4.63571 1.1703,-4.66948 0.8072,-0.0191 12.4267,-0.28008 25.8207,-0.57980004 13.3942,-0.29975 25.1766,-0.78701 26.1833,-1.08315 1.4743,-0.43384 1.9349,-1.01081996 2.3675,-2.96568996 1.0094,-4.56496 -1.0679,-28.8536156 -1.3364,-33.8665946 -0.052,-0.977521 -0.3328,-1.589576 0.2797,-1.638072 z m 15.5128,0.09463 c 16.2524,-0.164229 34,1.837235 46.9424,1.48468 3.016,-0.530609 3.2185,0.769473 3.2549,3.095949 0.128,8.164904 -0.075,10.682099 -0.4183,19.926426 -0.1166,3.142617 -0.1823,5.9242218 -0.3058,8.7633035 -0.1148,2.6400418 -0.2393,2.3216681 -4.9327,2.3781261 -1.5581,0.018743 -15.902,-0.11922 -21.9784,-0.22942 -5.9624,-0.10814 -11.4803,-0.18079 -19.0889,-1.46296 -1.3456,-0.22678 -2.2124,0.67744 -2.8919,-5.5076996 -0.4339,-3.94962 -0.9189,-10.79199 -1.6205,-16.71577 -0.702,-5.923825 -0.6952,-10.694108 -0.7083,-10.95839 -0.044,-0.877973 1.2114,-0.76979 1.7475,-0.774245 z m 49.4732,52.096555 v 2.01795 c -0.039,3.073777 0.1197,5.223493 0,10.77538 -0.1655,7.677893 -0.1755,11.554682 -0.315,17.304652 -0.027,1.097619 -0.3733,1.550715 -1.6829,1.541154 -10.9611,-0.08002 -20.0396,-0.121371 -32.3549,0.0062 -5.0707,0.05254 -5.3623,0.0357 -11.6412,0.0357 l -0.7114,-14.752511 c -0.3954,-8.198962 -0.5487,-9.71013 -0.576,-15.05284 -0.013,-2.46975 10.7307,-1.55572 23.7014,-1.66912 z m -74.7869,0.6232 c 4.753,0.0615 7.738,0.51988 7.7041,1.90894 -0.1021,4.18968 1.7494,23.522151 1.7494,26.220001 0,2.81462 -0.07,2.92852 -1.7751,2.92852 -22.9052,1.52765 -31.7355,0.725084 -49.7854,0.149863 -0.3714,-0.01183 -1.2709,0.393547 -1.3906,-3.43183 -0.2299,-7.341838 0.8431,-13.667174 -0.095,-25.236314 -0.091,-2.39268 -1.6508,-2.30161 7.5694,-2.1531 9.2205,0.14851 26.3671,-0.08846 33.4816,-0.307744 z" fill="#00B894" transform="translate(11.854733,-127.67207) translate(-1450.1945,170.9216)"/>
</svg>