<?xml version="1.0" ?><svg height="89.45752mm" viewBox="0 0 133.6519 89.45752" width="133.6519mm" xmlns="http://www.w3.org/2000/svg">
    <path d="m 265.19583,529.60955 -0.53257,0.70047 0.53809,26.96288 124.4702,-0.37718 0.0617,-25.79769 z m 0,28.63154 -0.53257,0.70046 0.53809,26.96284 124.4702,-0.37718 0.87809,-26.67156 z m 125.35934,28.2779 -125.35382,1.10962 -0.53257,0.70046 0.5381,25.23866 124.46974,-0.37718 z" fill="#FFFFFF" transform="translate(109.78561,33.162693) translate(-370.48,-560.79685)"/>
    <path d="m 7279.5273,5670.4785 c -0.383,-0.015 -0.7593,0 -1.1191,0.053 l -36.25,0.6329 c -56.6857,0.988 -249.6846,-0.8697 -310.2324,-0.6289 -96.8437,0.3846 -132.2201,-0.1424 -134.7031,2.0019 -2.9584,2.5531 -6.4326,17.1217 -6.5196,57.4102 -0.061,26.8882 1.525,59.3975 3.0781,87.4804 3.4059,61.6571 4.3306,83.6472 4.0313,128.8145 -0.3117,47.2027 0.8503,54.0138 9.7949,57.3711 3.775,1.4156 35.3054,2.9008 81.9512,3.8594 41.699,0.8571 89.2756,1.3145 105.7285,1.0156 16.4546,-0.299 81.1523,-1.0528 143.7774,-1.6738 62.625,-0.6211 119.5464,-1.7867 126.4921,-2.5899 12.3558,-1.464 26.7575,-4.4591 27.3164,-19.959 l 2.295,-63.7168 c 3.3449,-92.9087 -6.6862,-228.5198 -9.6602,-246.6836 -0.2696,-1.647 -3.2991,-3.2814 -5.9805,-3.3867 z m -111.3613,18.4961 c 54.9293,-0.085 96.7769,0.1163 97.3906,0.7285 0.8428,0.84 0.1,27.0668 4.5957,66.0781 -0.096,3.6069 2.412,19.3381 -1.2324,18.7129 -21.243,-3.1453 -87.9602,2.1699 -253.6191,1.9473 -131.1094,-0.1763 -201.7409,-0.9866 -202.7891,-2.3262 -0.8846,-1.1305 -0.9414,-27.3204 -0.2676,-46.2578 1.0778,-30.3068 2.0065,-37.6103 21.4629,-37.7324 11.0673,-0.069 47.5819,2.2624 81.1407,1.1016 33.8843,-1.1718 161.7695,-2.1107 253.3183,-2.252 z m 84.084,102.3789 c 11.6708,0.023 18.5136,0.1795 18.8691,0.5293 0.2142,0.2095 0.9005,13.3087 1.5274,33.0918 0.6286,19.783 1.3372,39.7992 1.5742,44.4805 l 0.4355,8.5117 -58.9492,1.2754 c -62.0922,1.3434 -116.8022,0.1841 -215.584,5.0137 -53.3826,2.5868 -109.7054,0.8933 -162.9453,3.3242 -16.3379,1.0942 -17.8502,0.8697 -17.7285,-2.6153 0.075,-2.096 -1.0716,-25.0834 -2.543,-51.0839 -1.4748,-26.0005 -2.5986,-33.064 -2.5117,-35.6075 l 0.1758,-4.623 h 148.8828 c 96.9811,0 238.2236,-2.397 288.7969,-2.2969 z m -206.668,3.6641 c -0.07,0 -0.1477,8e-4 -0.2207,0.012 -1.166,0.1667 -2.2611,2.0106 -2.9472,5.4844 -0.9659,4.8775 -1.2598,5.1489 -6.4278,5.9238 -6.354,0.953 -9.2125,3.5735 -7.2675,6.6641 0.7141,1.1329 2.3477,2.2542 3.6347,2.4902 3.909,0.7165 4.4963,2.2 2.4453,6.166 -2.348,4.5413 -2.5471,9.6481 -0.4121,10.5098 3.039,1.2265 4.358,0.7633 9.584,-3.3711 l 5.2969,-4.1914 5.414,1.8457 c 4.299,1.4647 5.7923,1.532 7.2403,0.3301 2.425,-2.0125 2.304,-4.813 -0.3321,-7.7266 -2.072,-2.2879 -2.011,-2.5002 1.543,-5.3359 3.051,-2.4336 3.4638,-3.3388 2.3418,-5.1329 -0.751,-1.1978 -2.6971,-2.3262 -4.3262,-2.5097 -10.3519,-1.1642 -10.8761,-1.4431 -12.4121,-6.5664 -0.909,-3.0348 -2.0523,-4.5512 -3.1543,-4.5918 z m -42.1191,3.3574 c -0.07,0 -0.1458,8e-4 -0.2188,0.012 -1.1659,0.1667 -2.2632,2.0106 -2.9492,5.4844 -0.966,4.8775 -1.2577,5.1489 -6.4258,5.9238 -6.3539,0.953 -9.2145,3.5736 -7.2695,6.6641 0.714,1.1329 2.3478,2.2542 3.6348,2.4902 3.909,0.7165 4.4963,2.2 2.4453,6.166 -2.348,4.5413 -2.5471,9.6481 -0.4121,10.5098 3.039,1.2265 4.3581,0.7633 9.584,-3.3711 l 5.2968,-4.1914 5.4141,1.8457 c 4.299,1.4647 5.7922,1.532 7.2402,0.3301 2.425,-2.0125 2.3037,-4.813 -0.332,-7.7266 -2.072,-2.2879 -2.0109,-2.5002 1.543,-5.3359 3.0511,-2.4336 3.4658,-3.3388 2.3437,-5.1328 -0.751,-1.1978 -2.6971,-2.3263 -4.3262,-2.5098 -10.3519,-1.1642 -10.8761,-1.4431 -12.4121,-6.5664 -0.909,-3.0348 -2.0542,-4.5512 -3.1562,-4.5918 z m 84.959,0.8672 c -0.07,0 -0.1478,0 -0.2207,0.012 -1.166,0.1667 -2.2613,2.0106 -2.9473,5.4844 -0.966,4.8775 -1.2598,5.1488 -6.4277,5.9238 -6.3541,0.9529 -9.2126,3.5736 -7.2676,6.6641 0.714,1.1328 2.3479,2.2542 3.6348,2.4902 3.909,0.7164 4.4963,2.2 2.4453,6.166 -2.3479,4.5413 -2.547,9.6481 -0.4121,10.5098 3.039,1.2265 4.3579,0.7634 9.5839,-3.3711 l 5.2969,-4.1914 5.4141,1.8457 c 4.2989,1.4647 5.7922,1.5321 7.2402,0.3301 2.425,-2.0125 2.304,-4.813 -0.332,-7.7266 -2.072,-2.2879 -2.0109,-2.5002 1.543,-5.3359 3.0511,-2.4336 3.4637,-3.3389 2.3418,-5.1328 -0.751,-1.1979 -2.6972,-2.3262 -4.3262,-2.5098 -10.3521,-1.1641 -10.8761,-1.4431 -12.4121,-6.5664 -0.909,-3.0347 -2.0524,-4.5512 -3.1543,-4.5918 z m -40.4688,10.8105 c 0.715,0.011 1.31,0.4152 1.959,1.1895 0.916,1.1512 0.971,0.9178 1.207,2.5703 0.978,3.6402 -6.5194,6.6759 -7.7714,5.9746 -2.8289,-1.9539 -0.2733,-5.9539 0.8945,-7.7187 1.678,-1.3758 2.7929,-2.0259 3.7109,-2.0157 z m -42.1191,3.3575 c 0.715,0.011 1.3099,0.4151 1.959,1.1894 0.9161,1.1512 0.971,0.9178 1.207,2.5703 0.978,3.6402 -6.5195,6.676 -7.7715,5.9746 -2.829,-1.9539 -0.2714,-5.9539 0.8965,-7.7187 1.678,-1.3758 2.791,-2.026 3.709,-2.0156 z m 84.959,0.8671 c 0.7151,0.011 1.31,0.4152 1.959,1.1895 0.916,1.1512 0.971,0.9178 1.207,2.5703 0.978,3.6402 -6.5195,6.6759 -7.7715,5.9746 -2.829,-1.9539 -0.2732,-5.9539 0.8945,-7.7187 1.678,-1.3758 2.793,-2.026 3.711,-2.0157 z m -125.1153,2.6172 c -0.07,0 -0.1477,8e-4 -0.2207,0.012 -1.166,0.1667 -2.2611,2.0106 -2.9472,5.4844 -0.9659,4.8775 -1.2598,5.1489 -6.4278,5.9239 -6.354,0.9528 -9.2126,3.5735 -7.2675,6.664 0.7141,1.1329 2.3477,2.2543 3.6347,2.4903 3.909,0.7164 4.4963,2.2 2.4453,6.166 -2.348,4.5413 -2.5471,9.648 -0.4121,10.5097 3.039,1.2265 4.358,0.7634 9.584,-3.3711 l 5.2969,-4.1914 5.414,1.8457 c 4.299,1.4647 5.7923,1.5322 7.2403,0.3301 2.425,-2.0125 2.304,-4.8129 -0.3321,-7.7266 -2.0719,-2.2878 -2.011,-2.5002 1.543,-5.3359 3.051,-2.4336 3.4638,-3.3388 2.3418,-5.1328 -0.751,-1.1978 -2.6972,-2.3262 -4.3262,-2.5098 -10.352,-1.1641 -10.8761,-1.4431 -12.4121,-6.5664 -0.9089,-3.0347 -2.0523,-4.5512 -3.1543,-4.5918 z m 159.4473,0 c -0.07,0 -0.1478,8e-4 -0.2207,0.012 -1.166,0.1667 -2.2612,2.0106 -2.9473,5.4844 -0.9659,4.8775 -1.2598,5.1489 -6.4277,5.9239 -6.3541,0.9528 -9.2126,3.5735 -7.2676,6.664 0.714,1.1329 2.3478,2.2543 3.6348,2.4903 3.909,0.7164 4.4963,2.2 2.4453,6.166 -2.348,4.5413 -2.5471,9.648 -0.4121,10.5097 3.039,1.2265 4.3581,0.7634 9.584,-3.3711 l 5.2968,-4.1914 5.4141,1.8457 c 4.299,1.4647 5.7923,1.5322 7.2402,0.3301 2.4251,-2.0125 2.3037,-4.8129 -0.332,-7.7266 -2.072,-2.2878 -2.011,-2.5002 1.543,-5.3359 3.051,-2.4336 3.4637,-3.3388 2.3418,-5.1328 -0.7511,-1.1978 -2.6972,-2.3262 -4.3262,-2.5098 -10.352,-1.1641 -10.8761,-1.4431 -12.4121,-6.5664 -0.909,-3.0347 -2.0523,-4.5512 -3.1543,-4.5918 z m -157.0762,15.0352 c 0.715,0.011 1.31,0.4151 1.959,1.1894 0.916,1.1512 0.9711,0.9178 1.207,2.5704 0.978,3.6401 -6.5194,6.6759 -7.7714,5.9746 -2.8289,-1.9539 -0.2734,-5.954 0.8945,-7.7188 1.678,-1.3758 2.7929,-2.0259 3.7109,-2.0156 z m 159.4473,0 c 0.715,0.011 1.3099,0.4151 1.959,1.1894 0.916,1.1512 0.971,0.9178 1.207,2.5704 0.978,3.6401 -6.5195,6.6759 -7.7715,5.9746 -2.829,-1.9539 -0.2732,-5.954 0.8946,-7.7188 1.678,-1.3758 2.7929,-2.0259 3.7109,-2.0156 z m 30.3262,8.3535 c -0.07,0 -0.1478,8e-4 -0.2207,0.012 -1.1659,0.1667 -2.2613,2.0106 -2.9473,5.4844 -0.966,4.8775 -1.2598,5.1489 -6.4277,5.9238 -6.3541,0.953 -9.2126,3.5736 -7.2676,6.6641 0.714,1.1329 2.3479,2.2542 3.6348,2.4902 3.9089,0.7165 4.4963,2.2 2.4453,6.166 -2.348,4.5413 -2.5471,9.6481 -0.4121,10.5098 3.039,1.2265 4.3579,0.7633 9.5839,-3.3711 l 5.2969,-4.1914 5.4141,1.8457 c 4.2989,1.4647 5.7922,1.532 7.2402,0.3301 2.425,-2.0125 2.3036,-4.813 -0.332,-7.7266 -2.072,-2.2879 -2.0109,-2.5002 1.5429,-5.3359 3.051,-2.4336 3.4638,-3.3388 2.3418,-5.1328 -0.7509,-1.1978 -2.697,-2.3263 -4.3261,-2.5098 -10.352,-1.1642 -10.8761,-1.4431 -12.4121,-6.5664 -0.9089,-3.0348 -2.0523,-4.5512 -3.1543,-4.5918 z m -218.0645,5.2305 c -0.07,0 -0.1458,8e-4 -0.2187,0.012 -1.1659,0.1667 -2.2632,2.0106 -2.9493,5.4844 -0.9659,4.8774 -1.2577,5.1489 -6.4257,5.9238 -6.354,0.953 -9.2126,3.5734 -7.2676,6.6641 0.714,1.1328 2.3478,2.2542 3.6347,2.4902 3.909,0.7165 4.4964,2.2 2.4454,6.166 -2.348,4.5413 -2.5471,9.6481 -0.4121,10.5098 3.039,1.2265 4.3579,0.7633 9.5839,-3.3711 l 5.2969,-4.1914 5.4141,1.8457 c 4.2988,1.4647 5.7922,1.532 7.2402,0.3301 2.425,-2.0126 2.3036,-4.813 -0.332,-7.7266 -2.072,-2.2879 -2.011,-2.5002 1.5429,-5.3359 3.051,-2.4336 3.4638,-3.3389 2.3418,-5.1329 -0.751,-1.1978 -2.6971,-2.3262 -4.3261,-2.5097 -10.3521,-1.1642 -10.8761,-1.4431 -12.4121,-6.5664 -0.9089,-3.0348 -2.0523,-4.5512 -3.1543,-4.5918 z m 220.4356,9.8047 c 0.715,0.011 1.31,0.4151 1.9589,1.1894 0.9161,1.1512 0.9711,0.9178 1.2071,2.5703 0.9779,3.6402 -6.5195,6.676 -7.7715,5.9746 -2.829,-1.9539 -0.2732,-5.9539 0.8945,-7.7187 1.678,-1.3758 2.7929,-2.026 3.711,-2.0156 z m -218.0645,5.2304 c 0.715,0.011 1.3099,0.4152 1.959,1.1895 0.916,1.1512 0.971,0.9178 1.207,2.5703 0.978,3.6402 -6.5175,6.6759 -7.7695,5.9746 -2.829,-1.9539 -0.2732,-5.954 0.8945,-7.7187 1.678,-1.3759 2.791,-2.026 3.709,-2.0157 z m 332.418,35.7383 -1.6114,40.2969 c -0.9959,24.9448 -1.9977,40.9899 -2.621,44.3965 -0.5712,3.1264 -3.7799,6.5829 -11.0235,5.83 l -201.9121,1.3516 c -114.6722,0.7439 -216.1805,1.9131 -225.5762,2.5977 l -17.0839,1.2441 2.1542,-15.998 c 1.1824,-8.7986 2.7469,-27.9858 3.2188,-42.6465 l 1.0644,-33.166 14.3145,1.3515 c 18.269,1.7244 159.2555,4.4732 228.459,0.4121 29.1534,-1.7111 88.4683,-3.6871 131.8144,-4.3906 z" fill="#00B894" transform="translate(109.78561,33.162693) translate(-370.48,-560.79685) matrix(0.26458333,0,0,0.26458333,-1536.012,-972.67847)"/>
</svg>