<?xml version="1.0" ?><svg height="89.457054mm" viewBox="0 0 133.65208 89.457054" width="133.65208mm" xmlns="http://www.w3.org/2000/svg">
    <path d="m 20165.996,-2750.7617 -1.156,1.625 1.168,62.5508 270.176,-0.875 0.134,-59.8477 z m 0,66.4219 -1.156,1.625 1.168,62.5507 270.176,-0.875 1.906,-61.875 z m 272.106,65.6015 -272.094,2.5742 -1.156,1.625 1.168,58.5508 270.175,-0.875 z" fill="#FFFFFF" transform="translate(37.910846,-40.364603) matrix(0.46070041,0,0,0.43105564,-7144.5169,3083.9376) translate(-4730.5688,-4305.3989)"/>
    <path d="m 15482.431,-6853.8919 c -26.789,-0.5884 -44.897,-1.5 -47.065,-2.3689 -5.137,-2.0607 -5.805,-6.2415 -5.626,-35.2147 0.172,-27.7238 -0.359,-41.2216 -2.315,-79.0669 -0.892,-17.2374 -1.803,-37.1919 -1.768,-53.696 0.05,-24.7292 2.045,-33.6713 3.744,-35.2384 1.426,-1.3162 21.744,-0.9919 77.362,-1.228 34.773,-0.1477 145.613,0.9921 178.168,0.3856 l 20.819,-0.3878 c 1.653,-0.2543 3.9,0.8908 4.077,2.0462 1.708,11.149 7.469,94.3876 5.548,151.4153 l -1.318,39.1095 c -0.321,9.5139 -8.592,11.3523 -15.688,12.2509 -3.989,0.493 -36.679,1.2084 -72.645,1.5896 -35.966,0.3812 -73.123,0.8432 -82.573,1.0267 -9.449,0.1834 -36.772,-0.097 -60.72,-0.6231 z m 96.38,-11.8526 115.959,-0.8302 c 4.16,0.4621 6.003,-1.6589 6.331,-3.5779 0.358,-2.091 0.934,-11.9403 1.506,-27.2515 l 0.925,-24.7337 -45.257,0.7853 c -24.894,0.4318 -58.959,1.6445 -75.702,2.6948 -39.744,2.4927 -120.713,0.8056 -131.205,-0.2528 l -8.221,-0.8293 -0.612,20.3574 c -0.271,8.9988 -1.169,20.776 -1.848,26.1766 l -1.237,9.8191 9.811,-0.7637 c 5.396,-0.4202 63.693,-1.1375 129.55,-1.5941 z m -32.882,-63.7783 c 56.731,-2.9644 88.151,-2.2529 123.811,-3.0775 l 33.855,-0.7829 -0.25,-5.2243 c -0.136,-2.8734 -0.543,-15.1593 -0.904,-27.3022 -0.36,-12.1429 -0.755,-20.1832 -0.878,-20.3118 -1.089,-1.1453 -108.144,1.0883 -176.694,1.0845 h -85.505 l -0.1,2.8386 c -0.05,1.5612 0.595,5.8961 1.442,21.8553 0.845,15.9592 1.503,30.0693 1.46,31.3559 -0.07,2.1391 0.799,2.2762 10.182,1.6046 30.576,-1.4921 62.923,-0.4524 93.581,-2.0402 z m 155.079,-78.8581 c -2.582,-23.9453 -2.155,-40.0429 -2.639,-40.5585 -0.94,-1.0021 -170.279,-0.2163 -201.415,0.9346 -19.273,0.7125 -40.243,-0.7184 -46.599,-0.6759 -11.174,0.075 -11.707,4.5574 -12.326,23.1598 -0.387,11.6238 -0.355,27.6994 0.153,28.3933 0.602,0.8222 41.166,1.3195 116.463,1.4277 95.139,0.1367 133.455,-3.1253 145.655,-1.1947 2.093,0.3837 0.653,-9.2724 0.708,-11.4863 z" fill="#00B894" transform="translate(37.910846,-40.364603) matrix(0.46070041,0,0,0.43105564,-7144.5169,3083.9376)"/>
</svg>