<?xml version="1.0" ?><svg height="89.455376mm" viewBox="0 0 133.65237 89.455376" width="133.65237mm" xmlns="http://www.w3.org/2000/svg">
    <path d="m 1878.3535,13637.801 -2.0137,2.648 2.0332,101.906 470.4395,-1.425 0.2324,-97.502 z m 0,106.213 -2.0137,2.648 2.0352,101.906 470.4375,-1.425 3.3184,-100.805 z m 473.7988,107.328 -473.7773,4.193 -2.0137,2.649 2.0332,95.388 470.4375,-1.426 z" fill="#FFFFFF" transform="translate(-1.3309563,-68.4545) translate(1044.8636,-2565.2283) matrix(0.46070041,0,0,0.43105564,-8150.1386,5676.725) matrix(0.5743067,0,0,0.6138032,14356.676,-15425.859)"/>
    <path d="m -914.19694,2633.6828 c -0.10134,0 -0.20093,3e-4 -0.29613,0.014 l -9.59164,0.1667 c -14.99817,0.2617 -66.06183,-0.2296 -82.08179,-0.1659 -25.6231,0.1019 -34.9838,-0.038 -35.6408,0.5292 -0.7826,0.6757 -1.7011,4.5302 -1.7249,15.19 -0.016,7.1141 0.4035,15.7154 0.8144,23.1457 0.9012,16.3134 1.1457,22.1316 1.0666,34.0823 -0.082,12.4889 0.2254,14.2912 2.5921,15.1794 0.9988,0.3744 9.3412,0.7673 21.6829,1.0211 11.0329,0.2265 23.62032,0.3476 27.97351,0.2688 4.35372,-0.079 21.47207,-0.2781 38.0416,-0.4424 16.56954,-0.1643 31.62967,-0.4728 33.4672,-0.6853 3.26919,-0.3873 7.07956,-1.1797 7.22747,-5.2808 l 0.60772,-16.8584 c 0.88503,-24.5822 -1.7693,-60.4626 -2.55643,-65.2683 -0.0713,-0.436 -0.87247,-0.8683 -1.58181,-0.8961 z m -29.46488,4.8932 c 14.53333,-0.023 25.60561,0.031 25.76793,0.1932 0.22305,0.2225 0.0264,7.1609 1.21595,17.4828 -0.0254,0.9541 0.63807,5.1165 -0.32607,4.9509 -5.62055,-0.8318 -23.27278,0.5744 -67.10339,0.5154 -34.6893,-0.046 -53.3773,-0.2611 -53.6546,-0.6154 -0.2339,-0.2992 -0.2486,-7.2287 -0.07,-12.2391 0.2852,-8.0187 0.5305,-9.951 5.6782,-9.983 2.9282,-0.018 12.5893,0.5982 21.4685,0.2911 8.9652,-0.3101 42.80155,-0.5586 67.02378,-0.5959 z m 22.24723,27.0878 c 3.0879,0.01 4.89839,0.047 4.99245,0.14 0.0566,0.055 0.23873,3.5213 0.40462,8.7555 0.16616,5.2343 0.35383,10.5302 0.41651,11.7687 l 0.11473,2.2521 -15.59698,0.3377 c -16.4284,0.3553 -30.90418,0.049 -57.03993,1.3263 -14.12381,0.6845 -29.02631,0.2363 -43.11261,0.8795 -4.3228,0.2897 -4.723,0.2307 -4.6907,-0.6914 0.02,-0.5545 -0.2836,-6.637 -0.6728,-13.5165 -0.3903,-6.8791 -0.6878,-8.7476 -0.664,-9.4205 l 0.046,-1.2237 h 39.39186 c 25.65951,0 63.02997,-0.6342 76.41085,-0.6077 z m -52.26918,0.8186 c -4.74591,-0.037 -11.52752,2.0648 -13.53611,9.1818 -1.6347,5.792 1.0292,11.3779 6.65231,12.9355 1.28675,0.3564 4.67464,0.5943 7.52822,0.5302 8.43912,-0.2148 17.07843,-8.2703 9.5958,-18.081 -2.33465,-3.061 -4.6532,-4.3651 -9.78752,-4.5562 -0.14864,-0.01 -0.29959,-0.01 -0.4527,-0.01 z m 0.28165,2.177 c 1.17332,0 2.33071,0.2164 3.41633,0.7146 4.43454,2.3961 8.52431,6.4175 5.77072,12.2153 -2.67925,5.6415 -10.91195,4.8676 -15.83161,3.8934 -3.08711,-0.6112 -5.13112,-3.8159 -5.08651,-7.0723 0.0616,-4.4972 6.0778,-9.7312 11.73107,-9.751 z m -4.47104,2.8086 c -1.66965,0 -4.06693,2.7453 -4.93873,5.6549 -0.87456,2.9191 0.17621,5.3755 2.58074,6.0333 0.82889,0.2267 2.33114,0.6911 3.33828,1.0321 1.00716,0.3416 2.51811,0.48 3.35743,0.3069 0.83928,-0.1719 2.37386,-0.2934 3.41063,-0.2693 1.249,0.029 2.35755,-0.4588 3.28507,-1.446 1.18237,-1.2586 1.35459,-1.9629 1.10744,-4.5349 -0.37499,-3.9026 -1.82311,-6.1667 -3.94446,-6.1667 -1.54623,0 -1.56673,0.044 -0.54467,1.1737 0.58407,0.6454 1.21346,2.3043 1.39888,3.6865 0.42336,3.1565 -1.28553,5.2427 -4.77801,5.8327 -2.06004,0.3482 -2.61495,0.1725 -4.20595,-1.329 -2.23702,-2.1114 -2.31862,-3.9105 -0.33485,-7.38 1.4292,-2.499 1.43854,-2.5942 0.2682,-2.5942 z m 3.54034,1.2361 c -0.53906,-0.011 -1.03404,0.2992 -1.03404,0.8789 0,0.4919 -0.54915,1.1883 -1.22061,1.5473 -1.45536,0.7789 -1.60713,1.8315 -0.26405,1.8315 0.67754,0 0.84421,0.3542 0.57102,1.2149 -0.21209,0.6684 -0.18722,1.5373 0.0558,1.9307 0.30809,0.4982 0.75438,0.3283 1.47434,-0.5607 l 1.03249,-1.275 1.30534,1.3049 c 1.03614,1.0361 1.46027,1.1497 2.05931,0.5504 0.59915,-0.599 0.59309,-1.0126 -0.0284,-2.0077 -0.59907,-0.9594 -0.6156,-1.4544 -0.0708,-2.1111 0.57031,-0.6869 0.40714,-0.9737 -0.82113,-1.4407 -0.84315,-0.3206 -1.71345,-0.8744 -1.93374,-1.2308 -0.2603,-0.4212 -0.70622,-0.6239 -1.12551,-0.6326 z m 58.81762,20.7232 -0.42582,10.6619 c -0.26353,6.6001 -0.5292,10.8458 -0.69403,11.7473 -0.15134,0.827 -1.00023,1.7412 -2.91661,1.542 l -53.42207,0.3574 c -30.34057,0.1971 -57.19817,0.5064 -59.68417,0.6874 l -4.5197,0.3291 0.5695,-4.2322 c 0.3127,-2.3281 0.7268,-7.4047 0.8517,-11.2835 l 0.2816,-8.7751 3.7879,0.3569 c 4.8336,0.4564 42.13594,1.1835 60.4459,0.109 7.71339,-0.4527 23.407,-0.9755 34.87589,-1.1615 z" fill="#00B894" transform="translate(-1.3309563,-68.4545) translate(1044.8636,-2565.2283)"/>
</svg>