<?xml version="1.0" ?><svg height="89.457275mm" viewBox="0 0 133.65269 89.457275" width="133.65269mm" xmlns="http://www.w3.org/2000/svg">
    <path d="m 20165.996,-2750.7617 -1.156,1.625 1.168,62.5508 270.176,-0.875 0.134,-59.8477 z m 0,66.4219 -1.156,1.625 1.168,62.5507 270.176,-0.875 1.906,-61.875 z m 272.106,65.6015 -272.094,2.5742 -1.156,1.625 1.168,58.5508 270.175,-0.875 z" fill="#FFFFFF" transform="translate(88.353729,-34.604226) matrix(0.46070041,0,0,0.43105564,-7194.9597,3078.1775) translate(-4730.5688,-4305.3989)"/>
    <path d="m 20445.256,-2770.2305 -21.924,0.3828 c -34.283,0.5976 -151.008,-0.5263 -187.627,-0.3808 -58.571,0.2326 -79.967,-0.086 -81.469,1.2109 -1.789,1.5441 -3.89,10.3544 -3.943,34.7207 -0.04,16.2619 0.922,35.9238 1.861,52.9082 2.06,37.29 2.621,50.5893 2.44,77.9063 -0.189,28.548 0.514,32.6687 5.924,34.6992 2.283,0.8561 21.353,1.7542 49.564,2.334 25.219,0.5184 53.993,0.794 63.943,0.6133 9.952,-0.1808 49.08,-0.6362 86.955,-1.0118 37.876,-0.3756 72.302,-1.0806 76.502,-1.5664 7.473,-0.8854 16.184,-2.696 16.522,-12.0703 l 1.389,-38.5351 c 2.023,-56.1909 -4.045,-138.208 -5.844,-149.1934 -0.187,-1.1384 -2.552,-2.2681 -4.293,-2.0176 z m -36.721,11.1641 c 17.37,0.049 28.7,0.1848 28.947,0.4316 0.51,0.5081 0.06,16.369 2.78,39.9629 -0.06,2.1814 1.458,11.6965 -0.746,11.3184 -12.848,-1.9023 -53.197,1.3124 -153.387,1.1777 -79.295,-0.1066 -122.013,-0.598 -122.647,-1.4082 -0.535,-0.6837 -0.567,-16.5233 -0.16,-27.9765 0.652,-18.3295 1.214,-22.7465 12.981,-22.8204 6.693,-0.042 28.776,1.3681 49.072,0.6661 24.592,-0.8506 131.051,-1.4972 183.16,-1.3516 z m 12.904,61.9199 c 11.859,-0.048 19.12,0.026 19.407,0.3086 0.129,0.1267 0.546,8.049 0.925,20.0137 0.381,11.9647 0.808,24.0711 0.952,26.9023 l 0.263,5.1485 -35.652,0.7695 c -28.153,0.6091 -53.8,0.3698 -90.047,1.4414 0.04,-0.9767 -0.236,-2.3791 -0.943,-4.0723 -1.642,-3.927 -1.625,-4.0443 0.422,-2.9492 1.171,0.6271 2.44,1.6435 2.82,2.2578 1.056,1.7091 3.926,1.3262 3.926,-0.5234 0,-0.9014 -1.384,-2.9212 -3.076,-4.4902 -3.569,-3.3086 -3.157,-3.549 1.824,-1.0645 3.648,1.8203 7.584,1.4033 6.304,-0.668 -0.389,-0.6277 -2.54,-2.0839 -4.783,-3.2343 l -4.076,-2.0918 5.832,0.5625 c 7.305,0.7019 7.781,-1.1988 1.063,-4.2481 l -4.772,-2.166 3.723,-0.023 c 7.561,-0.05 10.65,-4.4392 3.228,-4.5879 l -3.582,-0.072 3.649,-1.8164 c 2.007,-0.999 3.648,-2.2308 3.648,-2.7363 0,-1.3183 -6.438,-1.1334 -9.336,0.2675 -1.35,0.6522 -0.56,-0.4082 1.756,-2.3554 6.776,-5.697 5.135,-8.9564 -2.244,-4.457 -4.053,2.4715 -4.886,1.4777 -1.404,-1.6739 1.236,-1.1178 2.246,-2.7103 2.246,-3.541 0,-2.5027 -3.054,-1.7044 -5.533,1.4473 -2.78,3.5337 -2.885,3.1394 -0.608,-2.3086 2.76,-6.6054 0.04,-8.6965 -3.676,-2.8262 l -2.177,3.4395 0.101,-4.2813 c 0.13,-5.4371 -1.762,-6.1893 -3.398,-1.3516 -1.836,5.4314 -3.608,5.2849 -4.012,-0.332 -0.111,-1.5473 -0.385,-2.7429 -0.744,-3.5762 44.916,-0.3638 92.125,-1.0076 117.974,-1.1113 z m -120.835,1.127 c -0.288,0.6529 -0.533,1.5313 -0.7,2.6484 l -0.586,3.9297 -1.32,-3.6504 c -0.485,-1.3423 -1.072,-2.3009 -1.666,-2.9043 1.47,-0.011 2.793,-0.012 4.272,-0.023 z m -6.831,0.037 c -0.355,0.5907 -0.58,1.5183 -0.58,2.8066 v 3.5645 l -2.822,-2.6524 c -2.168,-2.0371 -3.128,-2.3439 -4.146,-1.3261 -1.018,1.018 -0.732,2.129 1.236,4.791 2.934,3.9691 2.615,5.5465 -0.438,2.1718 -2.154,-2.3794 -6.183,-3.0742 -6.183,-1.0664 0,0.6525 1.629,2.6722 3.619,4.4903 4.19,3.8266 3.299,4.3865 -1.52,0.9551 -3.602,-2.5651 -6.967,-2.1833 -5.873,0.666 0.374,0.9725 2.135,2.5199 3.913,3.4394 4.077,2.109 4.353,4.2307 0.351,2.709 -4.052,-1.5404 -7.226,-1.3596 -7.226,0.4102 0,1.5718 4.54,4.1093 7.351,4.1093 0.898,0 1.631,0.4447 1.631,0.9864 0,0.5417 -2.274,0.7273 -5.053,0.414 -4.155,-0.4683 -5.053,-0.2434 -5.053,1.2617 0,1.3923 1.142,1.8492 4.772,1.9102 l 4.773,0.078 -4.773,2.1211 c -2.633,1.1697 -4.772,2.8951 -4.772,3.8496 0,2.2135 0.325,2.1856 5.616,-0.5136 5.196,-2.6509 5.613,-2.7084 5.613,-0.7696 0,0.8119 -1.768,2.3188 -3.93,3.3496 -2.161,1.0309 -3.929,2.6399 -3.929,3.5762 0,2.2409 0.945,2.1448 5.359,-0.5469 5.479,-3.34 5.695,-2.7463 0.818,2.2481 -6.015,6.1601 -3.953,8.3344 2.592,2.7324 5.369,-4.5957 5.644,-4.4514 2.305,1.207 -1.869,3.1698 -2.098,4.36 -1.041,5.3985 1.374,1.3511 2.951,-0.01 6.449,-5.5528 1.041,-1.6495 1.067,-1.2188 0.123,2.0137 -0.674,2.3059 -0.855,4.2358 -0.635,5.502 -4.996,0.2089 -9.96,0.4132 -15.371,0.6777 -32.285,1.5645 -66.349,0.5396 -98.549,2.0098 -9.881,0.6617 -10.796,0.5276 -10.722,-1.5801 0.05,-1.2677 -0.648,-15.1715 -1.537,-30.8965 -0.892,-15.725 -1.571,-19.9969 -1.518,-21.5352 l 0.106,-2.7968 h 90.042 c 11.856,6e-4 25.633,-0.1191 39.002,-0.2129 z m 7.518,16.5312 c 1.206,0.01 2.554,0.2184 4.064,0.625 3.772,1.0155 5.122,2.1246 6.954,5.7149 2.071,4.061 2.124,4.7383 0.611,7.666 -0.914,1.7664 -3.401,4.0373 -5.529,5.0469 -5.437,2.5801 -9.351,2.2939 -12.565,-0.92 -3.14,-3.1405 -3.476,-6.823 -1.131,-12.4355 1.629,-3.8987 3.977,-5.7183 7.596,-5.6973 z m 4.344,4.6973 c -1.237,0.066 -2.336,1.1394 -2.336,2.8379 0,1.3555 0.79,2.125 2.18,2.125 2.831,0 3.976,-1.9248 2.326,-3.9121 -0.636,-0.7667 -1.428,-1.0904 -2.17,-1.0508 z m -6.778,0.7773 c -1.556,0.1454 -3.265,2.1538 -2.669,3.7071 0.944,2.4613 4.865,1.9952 4.865,-0.5782 0,-1.1987 -0.527,-2.506 -1.172,-2.9043 -0.313,-0.1933 -0.664,-0.2581 -1.024,-0.2246 z m 4.344,7.6309 c -1.17,0.067 -2.52,0.5102 -3.789,1.4375 -1.139,0.8327 -1.71,2.0953 -1.271,2.8066 1.127,1.8231 5.745,1.6088 7.363,-0.3418 1.97,-2.3724 0.271,-4.0494 -2.303,-3.9023 z m -2.248,16.2051 0.05,5.8965 v 0 c 0,0.8667 0.03,1.5874 0.07,2.2382 -1.675,0.063 -3.346,0.1263 -5.066,0.1954 0.915,-1.135 2.003,-2.7735 2.82,-4.3184 z m 10.065,1.0879 c 0.06,0 0.133,0.03 0.214,0.08 0.578,0.3572 1.049,1.265 1.049,2.0176 0,0.7525 0.819,2.5343 1.817,3.959 0.137,0.1959 0.269,0.3634 0.4,0.5273 -0.916,0.028 -1.921,0.07 -2.852,0.1 0.103,-0.939 -0.01,-2.1912 -0.445,-3.7032 -0.553,-1.9193 -0.612,-3.007 -0.183,-2.9804 z m -4.579,3.2578 c 0.303,-0.031 0.64,0.7248 1.192,2.1113 0.222,0.5589 0.455,1.0205 0.689,1.4277 -1.025,0.035 -2.047,0.07 -3.09,0.1075 0.531,-2.3641 0.861,-3.6109 1.209,-3.6465 z m 136.481,12.1015 -0.975,24.3692 c -0.602,15.0865 -1.209,24.7912 -1.586,26.8515 -0.345,1.8909 -2.285,3.9808 -6.666,3.5254 l -122.115,0.8184 c -69.353,0.4499 -130.745,1.1582 -136.428,1.5723 l -10.332,0.7519 1.303,-9.6758 c 0.715,-5.3213 1.66,-16.9262 1.945,-25.7929 l 0.645,-20.0586 8.658,0.8183 c 11.049,1.0429 96.316,2.7042 138.17,0.2481 17.632,-1.0349 53.505,-2.2289 79.721,-2.6543 z" fill="#00B894" transform="translate(88.353729,-34.604226) matrix(0.46070041,0,0,0.43105564,-7194.9597,3078.1775) matrix(0.94958772,0,0,1.0148932,-3708.8138,-4249.2196)"/>
</svg>