<?xml version="1.0" ?><svg height="89.455574mm" viewBox="0 0 133.65187 89.455574" width="133.65187mm" xmlns="http://www.w3.org/2000/svg">
    <path d="m 1875.5781,14225.676 -2.0117,2.646 2.0332,101.908 470.4395,-1.425 0.2324,-97.502 z m 0,106.213 -2.0137,2.648 2.0332,101.906 470.4395,-1.425 3.3183,-100.805 z m 473.7988,107.328 -473.7793,4.193 -2.0117,2.649 2.0332,95.39 470.4375,-1.426 z" fill="#FFFFFF" transform="translate(-48.421656,-84.9774) translate(1092.6883,-2704.2473) matrix(0.26458333,0,0,0.26458333,-1536.012,-972.67847)"/>
    <path d="m -914.93095,2789.2247 c -0.10136,0 -0.20092,0 -0.29612,0.014 l -9.59165,0.167 c -14.99817,0.2614 -66.06183,-0.2299 -82.08178,-0.1659 -25.6231,0.1019 -34.9838,-0.038 -35.6408,0.5292 -0.7826,0.6754 -1.7011,4.5302 -1.7249,15.1897 -0.016,7.1144 0.4035,15.7157 0.8144,23.146 0.9012,16.3134 1.1457,22.1316 1.0666,34.082 -0.083,12.4892 0.2254,14.2912 2.5921,15.1794 0.9988,0.3747 9.3411,0.7681 21.6829,1.0219 11.0329,0.2264 23.62031,0.3471 27.9735,0.268 4.35372,-0.079 21.47208,-0.2781 38.04161,-0.4424 16.56953,-0.164 31.62967,-0.4725 33.4672,-0.685 3.26919,-0.3876 7.07956,-1.18 7.22746,-5.2808 l 0.60719,-16.8585 c 0.88506,-24.5821 -1.76879,-60.4626 -2.5559,-65.2684 -0.0713,-0.4358 -0.87246,-0.8681 -1.58181,-0.8959 z m -29.46487,4.8932 c 14.53332,-0.023 25.6056,0.031 25.76793,0.1931 0.22304,0.2223 0.0264,7.161 1.21594,17.4826 -0.0254,0.9544 0.63807,5.1171 -0.32607,4.9517 -5.62054,-0.8321 -23.2728,0.5736 -67.10341,0.5146 -34.68927,-0.046 -53.37727,-0.2609 -53.65457,-0.6154 -0.2339,-0.299 -0.2487,-7.2284 -0.07,-12.2391 0.2852,-8.0185 0.5305,-9.9507 5.6782,-9.9827 2.9281,-0.019 12.5893,0.5979 21.4684,0.291 8.9653,-0.3101 42.80164,-0.5585 67.02388,-0.5958 z m 22.24722,27.0883 c 3.08787,0.01 4.89839,0.047 4.99245,0.1399 0.0566,0.056 0.23873,3.5211 0.40463,8.7556 0.16616,5.234 0.3538,10.5297 0.41651,11.7682 l 0.11472,2.2521 -15.59698,0.3374 c -16.4284,0.3556 -30.9042,0.049 -57.03993,1.3266 -14.1238,0.6844 -29.0264,0.2362 -43.1126,0.8794 -4.3228,0.2895 -4.723,0.2308 -4.6907,-0.6913 0.02,-0.5546 -0.2836,-6.6368 -0.6728,-13.516 -0.3903,-6.8794 -0.6879,-8.7482 -0.6641,-9.4213 l 0.046,-1.2237 h 39.39195 c 25.6595,0 63.02996,-0.6336 76.41084,-0.6069 z m -38.60231,1.4054 v 0 h -0.0584 c -0.30851,0.044 -0.59828,0.532 -0.77981,1.4509 -0.25553,1.2907 -0.33329,1.3618 -1.70066,1.5669 -1.68116,0.2521 -2.4375,0.9456 -1.92289,1.7632 0.18892,0.2997 0.62119,0.5969 0.96171,0.6593 1.03426,0.1897 1.18965,0.5821 0.64699,1.6314 -0.62125,1.2015 -0.67392,2.5525 -0.10904,2.7803 0.80407,0.3246 1.15306,0.2026 2.53577,-0.8914 l 1.40147,-1.1094 1.43245,0.4887 c 1.13745,0.3876 1.53258,0.4051 1.91567,0.087 0.64164,-0.5326 0.6096,-1.2732 -0.0879,-2.0442 -0.54819,-0.6054 -0.53208,-0.6617 0.40825,-1.4118 0.80724,-0.644 0.91646,-0.8835 0.6196,-1.3581 -0.1987,-0.3167 -0.71363,-0.6154 -1.14464,-0.6641 -2.73897,-0.3083 -2.87763,-0.3816 -3.28403,-1.7373 -0.24051,-0.8027 -0.54301,-1.2041 -0.83458,-1.215 z m -34.57361,0.1892 v 0 h -0.0584 c -0.30848,0.044 -0.59825,0.5315 -0.77978,1.4504 -0.25556,1.2906 -0.33329,1.3618 -1.70069,1.5669 -1.68116,0.2521 -2.43751,0.9456 -1.92286,1.7631 0.18889,0.2998 0.62117,0.5969 0.96168,0.6594 1.03426,0.1897 1.18965,0.5821 0.64699,1.6314 -0.62124,1.2015 -0.67392,2.5524 -0.10904,2.7803 0.80407,0.3246 1.15306,0.2026 2.53577,-0.8914 l 1.40147,-1.1092 1.43248,0.4885 c 1.13742,0.3876 1.53255,0.4053 1.91564,0.087 0.64164,-0.5326 0.60963,-1.2732 -0.0878,-2.0442 -0.54822,-0.6056 -0.53211,-0.6617 0.40822,-1.4118 0.80725,-0.644 0.91647,-0.884 0.6196,-1.3586 -0.1987,-0.3168 -0.71363,-0.6152 -1.14464,-0.6636 -2.73896,-0.3083 -2.87763,-0.3821 -3.28403,-1.7378 -0.24048,-0.8028 -0.543,-1.2041 -0.83458,-1.215 z m 35.20096,3.7963 c 0.18918,0 0.34661,0.11 0.51832,0.3151 0.24236,0.3045 0.25691,0.2418 0.31936,0.6789 0.25876,0.9631 -1.72496,1.7672 -2.05621,1.5814 -0.74848,-0.517 -0.0718,-1.575 0.23719,-2.0418 0.44398,-0.364 0.73846,-0.5363 0.98134,-0.5336 z m -34.5736,0.1894 c 0.18917,0 0.3466,0.1098 0.51832,0.3149 0.24235,0.3045 0.25693,0.2423 0.31935,0.6794 0.25876,0.9631 -1.72493,1.7672 -2.05618,1.5814 -0.74851,-0.517 -0.0723,-1.5756 0.23667,-2.0423 0.44397,-0.3641 0.73895,-0.5358 0.98184,-0.5334 z m 17.02583,1.769 v 0 h -0.0584 c -0.30848,0.044 -0.59825,0.5321 -0.77978,1.451 -0.25557,1.2906 -0.3333,1.3618 -1.70069,1.5669 -1.68114,0.2521 -2.4375,0.9456 -1.92286,1.7631 0.18891,0.2998 0.62116,0.5969 0.96168,0.6594 1.03426,0.1897 1.18964,0.5815 0.64698,1.6309 -0.62124,1.2014 -0.67392,2.5529 -0.10903,2.7807 0.80407,0.3247 1.15305,0.2027 2.53577,-0.8913 l 1.40147,-1.1097 1.43248,0.4889 c 1.13742,0.3877 1.53254,0.4049 1.91563,0.087 0.64165,-0.5326 0.60963,-1.2731 -0.0878,-2.0441 -0.54821,-0.6057 -0.5321,-0.6618 0.40823,-1.4119 0.80724,-0.644 0.91646,-0.8834 0.6196,-1.3581 -0.1987,-0.3167 -0.71363,-0.6156 -1.14464,-0.6641 -2.73897,-0.3082 -2.87764,-0.3815 -3.28404,-1.7372 -0.24048,-0.8028 -0.543,-1.2041 -0.83457,-1.215 z m 0.62735,3.9852 c 0.18918,0 0.34661,0.1103 0.51832,0.3153 0.24236,0.3046 0.25694,0.2419 0.31938,0.679 0.25874,0.9631 -1.72495,1.7671 -2.05621,1.5814 -0.74851,-0.517 -0.0723,-1.5751 0.23667,-2.0418 0.44397,-0.3641 0.73896,-0.5363 0.98184,-0.5339 z m 16.29307,1.1194 h 5.3e-4 -0.0589 c -0.30851,0.044 -0.59828,0.5321 -0.77981,1.451 -0.25553,1.2906 -0.33329,1.3618 -1.70066,1.5669 -1.68116,0.2521 -2.4375,0.9456 -1.92289,1.7631 0.18892,0.2998 0.62169,0.5969 0.96224,0.6594 1.03423,0.1897 1.18965,0.5815 0.64699,1.6309 -0.62125,1.2014 -0.67395,2.5529 -0.10904,2.7807 0.80407,0.3247 1.15305,0.2027 2.53574,-0.8913 l 1.40097,-1.1097 1.43245,0.489 c 1.13745,0.3876 1.53258,0.4048 1.91567,0.087 0.64164,-0.5326 0.6096,-1.2731 -0.0879,-2.0441 -0.54819,-0.6057 -0.53208,-0.6618 0.40825,-1.4119 0.80724,-0.6439 0.91646,-0.8834 0.6196,-1.3581 -0.1987,-0.3167 -0.71363,-0.6156 -1.14464,-0.6641 -2.73897,-0.3082 -2.87763,-0.3815 -3.28403,-1.7372 -0.24051,-0.8028 -0.54301,-1.2041 -0.83458,-1.215 z m -34.64335,0.7059 v 0 h -0.0584 c -0.30851,0.044 -0.59828,0.5323 -0.77981,1.4512 -0.25556,1.2906 -0.3333,1.3618 -1.70066,1.5669 -1.68116,0.2521 -2.43747,0.9456 -1.92289,1.7632 0.18891,0.2997 0.62116,0.5969 0.96171,0.6593 1.03423,0.1897 1.18965,0.5821 0.64699,1.6314 -0.62125,1.2015 -0.67395,2.5524 -0.10904,2.7803 0.80407,0.3246 1.15305,0.2026 2.53574,-0.8914 l 1.40147,-1.1097 1.43248,0.489 c 1.13745,0.3876 1.53255,0.4053 1.91564,0.087 0.64164,-0.5326 0.60963,-1.2737 -0.0878,-2.0447 -0.54822,-0.6057 -0.53211,-0.6617 0.40822,-1.4118 0.80725,-0.644 0.91647,-0.8835 0.6196,-1.3581 -0.19867,-0.3168 -0.7136,-0.6152 -1.14461,-0.6636 -2.73897,-0.3083 -2.87763,-0.3821 -3.28403,-1.7378 -0.24051,-0.8028 -0.54301,-1.2041 -0.83458,-1.215 z m 35.27123,3.2793 c 0.18918,0 0.34658,0.1103 0.5183,0.3154 0.24238,0.3045 0.2564,0.2418 0.31885,0.6789 0.25876,0.9631 -1.72496,1.7671 -2.05621,1.5814 -0.74848,-0.517 -0.0718,-1.5751 0.23719,-2.0418 0.44398,-0.3641 0.73899,-0.5363 0.98187,-0.5339 z m -34.64388,0.7064 c 0.18918,0 0.34658,0.1098 0.5183,0.3149 0.24238,0.3045 0.25693,0.2423 0.31937,0.6794 0.25877,0.9631 -1.72495,1.7666 -2.0562,1.5809 -0.74851,-0.517 -0.0723,-1.5751 0.23667,-2.0418 0.44397,-0.3641 0.73898,-0.536 0.98186,-0.5334 z m 78.51767,10.618 -0.42579,10.6614 c -0.26355,6.6 -0.52919,10.8458 -0.69403,11.7472 -0.15134,0.8271 -1.00023,1.7412 -2.91661,1.542 l -53.42207,0.358 c -30.34056,0.1968 -57.19816,0.5056 -59.68416,0.6869 l -4.5197,0.3296 0.5695,-4.2328 c 0.3127,-2.328 0.7268,-7.4046 0.8516,-11.2837 l 0.2817,-8.7751 3.7878,0.3577 c 4.8337,0.4564 42.136,1.1835 60.44596,0.109 7.7134,-0.4527 23.40703,-0.9755 34.87592,-1.1618 z" fill="#00B894" transform="translate(-48.421656,-84.9774) translate(1092.6883,-2704.2473)"/>
</svg>