<?xml version="1.0" ?><svg height="93.372238mm" viewBox="0 0 127.57342 93.372238" width="127.57342mm" xmlns="http://www.w3.org/2000/svg">
    <path d="m 835.15397,1496.3607 122.2932,-0.2564 -0.7004,87.564 -120.15832,-1.5889 z" fill="#FFFFFF" transform="translate(66.178658,-58.160826) translate(-899.04905,-1433.7575)"/>
    <path d="m 9253.4336,9315.9121 c -29.8593,-0.01 -67.3208,0.2379 -115.8535,0.7149 -92.7636,0.9112 -171.8276,1.8943 -175.6934,2.1816 -15.8252,-0.8307 -4.7498,10.9772 -6.2363,127.4883 0.84,135.137 2.9876,194.7117 7.1758,199.0351 1.417,1.4623 2.5761,5.5392 2.5761,9.0606 0,4.1881 1.8208,7.3812 5.2715,9.2324 v -0.012 c 5.8086,3.1196 107.8551,1.9419 208.5039,2.248 87.3535,0.2635 186.6376,-3.8682 218.4219,0.4336 24.7488,3.3608 27.8336,3.3596 31.0859,0 2.9878,-3.0833 3.7063,-12.4196 4.1329,-53.8984 0.2861,-27.5936 -1.6034,-93.1208 0.5527,-133.6895 4.4527,-83.8813 1.0389,-138.4253 -4.3066,-149.7011 -3.0341,-6.4037 -4.6697,-7.2765 -13.9356,-7.4239 -5.7722,-0.093 -32.6324,-1.6188 -59.6894,-3.3906 -23.5927,-1.5449 -52.2404,-2.2658 -102.0059,-2.2793 z m -129.4961,18.6328 v 0 c 84.8017,0.387 184.7546,1.4771 222.1191,2.4199 l 67.9316,1.7149 -0.3691,53.9199 c -0.5357,66.0941 0.053,135.9212 -0.1152,202.2734 l -1.5137,51.9961 -88.1973,-0.8398 c -53.0609,-0.5189 -135.0444,-2.7879 -195.6269,-0.4824 -55.384,2.1074 -112.4231,4.5126 -126.752,5.3437 -17.257,1.0012 -26.5696,0.6509 -27.5781,-1.0371 -0.8398,-1.4014 -0.7025,-8.3248 0.3027,-15.3847 2.1264,-14.9103 -2.4726,-280.182 -2.8066,-294.5801 -0.2976,-9.0528 5.1327,-2.9548 152.6035,-5.3438 z m 157.4414,36.9004 c -2.4922,-0.058 -4.416,1.2065 -4.416,3.8281 0,5.432 8.6862,19.4682 14.7676,23.8672 2.7579,1.9937 5.8355,3.627 6.8359,3.627 4.7917,0 -1.3077,-17.7216 -9.3633,-27.2071 -2.2718,-2.6736 -5.332,-4.0553 -7.8242,-4.1132 z m -190.4238,5.1172 c -2.0019,-0.1333 -4.4911,0.4939 -7.3516,2.0742 -10.3192,5.7018 -33.8691,40.0514 -33.8691,49.4024 0,7.5749 10.0049,3.6886 20.5312,-7.7383 8.4974,-9.2245 16.551,-18.9054 23.5664,-29.2832 5.0676,-7.4965 2.636,-14.0879 -2.8769,-14.4551 z m 175.0156,4.0156 c -1.95,-0.1187 -3.0625,1.204 -3.0625,4.1699 0,7.5508 25.2573,49.9201 32.2695,54.1309 5.878,3.5312 8.9613,2.8737 9.7285,-5.1777 0.7406,-7.7708 -7.9615,-21.3635 -12.2011,-27.3067 -11.2773,-15.8088 -21.7511,-25.513 -26.7344,-25.8164 z m -156.4199,2.8418 c -1.8866,0 -7.574,4.2565 -12.0488,8.9336 -8.8992,9.3015 -17.557,19.0274 -24.752,29.9981 -6.0437,9.2154 -5.566,16.6914 -0.7109,16.6914 1.9626,0 8.384,-4.7247 14.4707,-10.2793 8.9186,-8.139 17.3059,-18.9212 22.6621,-27.6914 5.531,-9.1964 4.9127,-17.6524 0.3789,-17.6524 z m 143.9199,7.8653 c -0.9781,0.04 -1.8528,0.402 -2.5723,1.1445 -3.8095,3.9345 -0.5807,14.9175 5.6016,22.8379 4.2167,5.4022 5.3652,8.6589 12.2559,6.3066 3.7024,-1.2639 2.3109,-8.7125 1.75,-10.041 -4.8884,-11.5775 -10.1886,-20.5279 -17.0352,-20.248 z m -127.9395,3.0546 c -1.2183,0.056 -2.5546,0.746 -3.7285,1.3692 -2.9189,1.5496 -8.0195,4.9279 -10.873,7.9648 -6.8013,7.2385 -20.7832,26.1309 -23.0449,30.3672 -1.9249,3.6056 -3.0118,7.2387 -3.0118,9.1895 0,9.3917 5.949,6.1651 22.6075,-12.2617 17.9019,-19.8014 23.2,-28.4201 21.0761,-34.1895 -0.7051,-1.9154 -1.8066,-2.4949 -3.0254,-2.4395 z m 65.2618,6.3536 c -20.5772,0.055 -40.7289,9.6434 -57.7168,26.6171 -15.9227,15.9103 -21.1939,36.3278 -19.5586,59.9571 2.3875,34.461 26.2666,56.713 51.5429,64.2422 22.1811,6.607 52.6096,-2.702 71.6524,-23.4981 17.3711,-18.9702 22.5539,-32.6728 22.5879,-58.7402 0.035,-25.8452 -10.2659,-47.0407 -36.2168,-60.5098 -10.6178,-5.5107 -21.5125,-8.0972 -32.291,-8.0683 z m 112.1054,3.4433 c -2.6056,0.017 -5.9846,1.7055 -4.8418,4.7168 2.5401,6.6932 5.9774,14.4473 10.1329,19.9102 3.0357,3.9908 10.1641,3.7543 11.8671,-0.8242 0.7871,-2.1166 -0.2041,-7.4076 -2.2031,-11.7579 -3.4247,-7.4494 -10.2628,-12.0759 -14.9551,-12.0449 z m -111.039,12.2774 c 9.0064,-0.01 18.0296,2.1611 25.6406,7.4511 19.125,13.2927 22.4139,22.3223 25.0547,42.4805 l -7.2324,-5.5195 c -5.8549,-4.4686 -9.2631,-5.2843 -17.9024,-4.2793 -13.7616,1.601 -20.1558,6.1034 -31.8242,22.4101 -7.4785,10.45 -10.8706,13.2813 -15.8789,13.2813 -7.9597,-0.011 -18.7421,-6.6765 -26.8027,-16.5664 -11.7561,-14.4238 -10.9819,-19.4254 5.9511,-38.3907 12.4309,-13.9203 27.9835,-20.8576 42.9942,-20.8671 z m 81.5195,6.705 c -4.3309,0.3723 -6.8284,5.475 -6.832,7.8731 -0.01,3.9968 3.7674,11.2323 8.1308,15.7383 5.8037,5.9905 7.7104,6.7777 10.5411,4.3535 1.9008,-1.6286 3.457,-4.6033 3.457,-6.6113 0,-5.6622 -9.7155,-20.3571 -13.3301,-21.2012 -0.6916,-0.1615 -1.3481,-0.2055 -1.9668,-0.1524 z m -53.9316,52.1993 c 6.0102,0 18.2059,11.7544 17.6933,17.7695 -1.4781,17.3242 -30.3435,36.977 -46.8515,40.8691 -25.979,6.1255 -57.1831,-17.6098 -58.4629,-46.4922 -0.2497,-5.6458 0.3235,-5.4609 7.3457,3.334 18.1251,22.6999 45.3709,23.9927 58.0859,2.7559 6.3972,-10.6881 15.5823,-18.2363 22.1895,-18.2363 z m 59.664,26.8007 c -0.8978,-0.056 -1.9261,0.1244 -3.0664,0.5762 -5.0215,1.9888 -17.8222,20.7995 -17.8222,26.1895 0,11.4557 17.438,0.048 23.6699,-15.4844 2.5458,-6.3441 1.1091,-11.0369 -2.7813,-11.2813 z m 15.959,10.0997 c -4.1955,0.086 -10.0612,4.741 -16.3515,13.2285 -10.4912,14.1535 -7.2345,27.2686 4.1152,15.1523 5.6546,-6.0365 10.9254,-9.9853 14.6406,-16.666 3.1966,-5.7482 3.4481,-7.92 1.1895,-10.252 -0.9818,-1.0132 -2.1953,-1.4917 -3.5938,-1.4628 z m -211.0488,2.3593 c -3.4319,0 -6.1758,1.845 -6.1758,5.043 0,4.9308 20.9561,32.5562 34.7988,45.8711 10.2795,9.8865 12.7225,11.1984 16.7305,8.9844 2.5794,-1.4261 4.6914,-4.8108 4.6914,-7.5215 0,-4.862 -33.4327,-43.4566 -43.5684,-50.2949 -2.1106,-1.4247 -4.4174,-2.0844 -6.4765,-2.0821 z m 226.3183,7.6817 c -2.5308,-0.2787 -6.1732,0.7528 -9.8398,3.7617 -5.6103,4.6041 -11.526,11.0311 -14.0859,16.8535 -1.2704,2.8894 -2.0031,6.1605 -1.2227,7.4629 0.7804,1.3028 3.0761,2.3691 5.1016,2.3691 4.9041,0 24.1523,-20.0438 24.1523,-25.1504 0,-3.2294 -1.5746,-5.0182 -4.1055,-5.2968 z m -242.916,4.1894 c -6.4282,0.2226 -4.5018,10.4537 4.2578,20.0391 9.2346,10.1095 19.1607,12.0171 16.6309,3.1953 -2.4785,-8.6343 -13.9862,-22.2967 -19.4922,-23.1426 -0.5033,-0.077 -0.9679,-0.1054 -1.3965,-0.092 z m 185.3789,12.0703 c -3.3651,-0.4976 -12.9223,8.1198 -17.2,15.5023 -7.6606,13.2211 -9.0168,24.8927 5.645,13.9319 7.2335,-5.4076 12.1032,-12.2919 15.7367,-22.3951 1.2149,-3.3781 0.4531,-6.3538 -4.1817,-7.0391 z m -199.9531,2.6211 c -1.497,-0.01 -2.7184,0.5158 -3.7187,1.5489 -1.7395,1.7949 2.9876,9.6034 15.8945,26.2382 10.1042,13.0258 21.0085,26.6742 24.2344,30.3321 6.713,7.6165 10.1353,8.27 14.5566,2.7734 2.6174,-3.2579 2.7542,-5.1764 -0.8301,-10.9824 -7.8696,-12.7475 -18.115,-24.9757 -27.7011,-34.5352 -10.7446,-10.7147 -17.9447,-15.3443 -22.4356,-15.375 z m 213.5547,9.336 c -0.8273,-0.013 -5.1012,-1.1341 -8.8328,2.5187 -5.8674,5.7436 -8.6554,8.7821 -13.4895,17.0047 -5.038,8.5694 4.5774,16.3143 11.1992,9.043 7.2005,-7.9069 14.7579,-17.6062 14.6407,-25.6485 -0.029,-1.9621 -1.0358,-2.8795 -3.5176,-2.9179 z m -7.5724,26.1543 c -3.3003,4.6635 -2.7319,7.0243 -1.4901,8.6367 6.4428,8.3655 19.5626,-5.7255 21.3848,-8.1192 9.9885,-13.5545 9.5625,-20.8495 -1.1895,-20.457 -5.3758,0.1963 -15.0715,14.8047 -18.7052,19.9395 z m -162.7635,-16.67 c -2.6357,0 -4.8631,2.1504 -5.8301,4.836 -1.662,4.6155 9.2673,17.0146 13.2207,21.2207 3.531,3.7568 8.6981,6.3965 13.4199,4.9179 2.6338,-0.8248 4.5652,-2.8701 3.8691,-6.7675 -0.9077,-5.079 -18.5718,-24.2071 -24.6796,-24.2071 z" fill="#00B894" transform="translate(66.178658,-58.160826) translate(-899.04905,-1433.7575) matrix(0.26458333,0,0,0.26458333,-1536.012,-972.91664)"/>
</svg>