<?xml version="1.0" ?><svg height="97.666756mm" viewBox="0 0 131.666 97.666756" width="131.666mm" xmlns="http://www.w3.org/2000/svg">
    <path d="m -2609.5473,2996.3537 125.6058,2.608 -0.82,89.2316 -124.4724,1.5293 z" fill="#FFFFFF" paint-order="markers stroke fill" transform="translate(27.830258,-87.067869) translate(2584.187,-2907.6975)"/>
    <path d="m -4053.457,14995.967 c -5.0809,0.121 -12.247,3.457 -12.4024,6.828 -0.083,1.672 0.6987,3.056 1.7324,3.078 1.0319,0.04 0.6341,16.647 -0.8906,36.949 -1.903,25.354 -2.2602,57.148 -1.1426,101.545 0.8962,35.546 1.6172,95.148 1.6172,132.447 0,68.958 0.4854,78.924 4.1973,83.895 2.9167,3.922 107.7877,5.678 198.8086,3.332 38.8448,-1.002 103.8268,-1.3 144.4141,-0.664 100.9118,1.587 133.6235,-0.642 141.455,-9.641 3.1801,-3.656 3.6273,-11.16 3.9746,-66.894 0.5855,-93.49 -0.064,-148.119 -2.3925,-198.555 -2.5516,-55.46 -2.0441,-70.188 2.582,-74.963 2.9911,-3.088 3.0662,-4.155 0.5547,-7.886 -2.5565,-3.8 -6.2985,-4.476 -31.2559,-5.635 -15.5951,-0.724 -64.5245,-0.904 -108.7246,-0.395 -147.3339,1.694 -335.3717,0.381 -338.4785,-2.369 -0.8946,-0.792 -2.356,-1.112 -4.0488,-1.072 z m 4.1894,13.91 5.2383,1.699 c 178.2894,6.708 236.2053,3.711 434.0371,6.686 l 21.2656,-0.438 -2.1406,22.36 c -1.1822,12.296 -1.529,42.23 -0.7734,66.521 0,0 1.2288,52.509 0.9707,101.535 -0.2268,31.554 -0.3086,74.26 -0.1914,94.897 0.1323,24.377 -0.5819,38.269 -2.0567,39.664 -1.4237,1.347 -38.5878,1.575 -99.6465,0.605 -61.9275,-0.223 -144.6509,0.818 -251.9218,2.459 -38.846,0.39 -77.6428,1.224 -86.211,1.85 l -15.5742,1.142 0.2988,-62.617 c 0.1663,-34.443 0.1315,-71.966 -0.084,-83.388 0,0 -0.7969,-27.666 -2.1602,-75.838 -0.7676,-27.022 -1.3178,-64.433 -1.2187,-83.135 z m 212.7598,46.236 c -1.8551,0.148 -3.8795,2.578 -4.9512,6.903 -1.3062,5.272 -2.3258,6.311 -6.6269,6.742 -6.5995,0.66 -7.6553,4.136 -2.0332,6.697 2.784,1.269 4.0739,2.922 3.4824,4.463 -0.5163,1.346 -0.073,3.492 0.9863,4.768 v 0 c 2.547,3.068 9.0848,2.955 12.2539,-0.215 1.3935,-1.394 3.2928,-2.535 4.2207,-2.535 1.8955,0 7.002,-9.431 7.002,-12.932 0,-1.251 -0.774,-2.274 -1.7207,-2.274 -0.9906,0 -1.2733,-1.788 -0.6621,-4.224 1.2132,-4.833 -0.2975,-5.38 -4.461,-1.612 -2.6441,2.393 -2.9813,2.241 -3.9961,-1.802 -0.7102,-2.83 -2.0513,-4.096 -3.4941,-3.981 z m 46.0703,2.094 c -1.978,-0.131 -4.0128,1.84 -4.3789,5.621 -0.4244,4.385 -1.3455,5.486 -4.9395,5.912 -5.6352,0.67 -6.9177,4.342 -2.1347,6.112 3.2927,1.218 3.3942,1.585 0.9863,3.584 -4.2663,3.54 -3.3963,7.412 1.457,6.484 2.6083,-0.499 4.4801,0.1 5.0625,1.617 1.7466,4.551 6.8075,1.561 7.6934,-4.547 0.6508,-4.486 1.8142,-6.049 5.0684,-6.808 2.6664,-0.622 4.4235,-2.358 4.7636,-4.709 0.4048,-2.798 -0.1226,-3.471 -2.1133,-2.707 -3.0927,1.186 -3.3276,0 -0.9023,-4.526 2.1309,-3.981 -0.4414,-4.343 -3.623,-0.51 -2.0709,2.496 -2.3808,2.376 -3.2403,-1.265 -0.6568,-2.782 -2.1608,-4.156 -3.6992,-4.258 z m 42.6309,16.535 c -0.6517,0 -1.3649,0.447 -2.375,1.285 -1.4948,1.24 -2.7188,3.717 -2.7188,5.504 0,2.798 -0.8192,3.096 -5.9121,2.141 -5.1912,-0.974 -5.9141,-0.688 -5.9141,2.344 0,1.97 1.4526,3.914 3.3828,4.527 2.5973,0.824 3.1434,2.026 2.3516,5.182 -0.8353,3.327 -0.3886,4.109 2.3496,4.109 1.8599,0 3.8411,1.197 4.4024,2.66 1.6717,4.355 6.831,2.03 7.791,-3.512 0.6905,-3.987 1.9188,-5.215 5.9062,-5.906 6.1682,-1.068 7.9808,-6.536 2.6309,-7.935 -3.3611,-0.879 -3.42,-1.184 -0.9531,-4.95 2.05,-3.13 2.1364,-4.011 0.3925,-4.011 -1.2291,0 -3.1443,0.91 -4.2558,2.021 -1.5685,1.569 -2.5489,1.298 -4.3789,-1.205 -1.127,-1.541 -1.8614,-2.26 -2.6992,-2.254 z m -136.4219,0.639 c -1.5149,-0.166 -3.1678,1.469 -3.5371,4.687 -0.3576,3.116 -1.8956,5.248 -4.5,6.239 -3.3748,1.282 -3.916,2.577 -3.6817,8.767 0.2518,6.616 0.7283,7.359 5.3457,8.346 2.7882,0.596 5.8663,1.174 6.8418,1.283 2.6226,0.296 5.8301,-3.433 5.8301,-6.779 0,-1.746 1.5312,-3.142 3.8008,-3.463 3.8589,-0.548 6.726,-8.145 3.0742,-8.145 -0.9936,0 -1.8066,-1.52 -1.8066,-3.378 0,-3.565 -2.4585,-4.547 -4.2246,-1.69 -1.7821,2.883 -3.9627,1.866 -4.5274,-2.111 -0.3419,-2.408 -1.437,-3.627 -2.6152,-3.756 z m -40.4883,16.26 c -1.6938,0.06 -2.4936,1.753 -3.2344,6.386 -0.9146,5.72 -1.7497,6.875 -4.9687,6.875 -9.0403,0 -12.3885,4.942 -5.7539,8.493 2.5043,1.341 3.1517,2.824 2.3418,5.375 -0.9408,2.963 -0.5513,3.375 2.4531,2.589 2.6245,-0.686 3.5723,-0.154 3.5723,2.006 0,1.617 0.5051,3.447 1.125,4.067 2.5625,2.562 6.0437,0.81 7.8378,-3.944 1.0666,-2.825 3.1555,-5.068 4.7168,-5.068 5.2823,0 7.0823,-4.293 4.1661,-9.932 -1.4521,-2.808 -3.7074,-5.715 -5.0118,-6.459 -1.3046,-0.743 -2.6357,-3.243 -2.957,-5.556 -0.3243,-2.332 -1.8866,-4.458 -3.5039,-4.764 -0.2809,-0.05 -0.5412,-0.08 -0.7832,-0.07 z m 218.9863,3.138 c -0.9262,-0.03 -2.1481,0.638 -4.3945,1.977 -2.6162,1.559 -4.9941,4.37 -5.2852,6.244 -0.3356,2.164 -1.4134,3.065 -2.957,2.473 -2.7458,-1.054 -3.4335,3.678 -0.7734,5.322 1.0514,0.651 0.9555,2.141 -0.2676,4.1 -1.059,1.692 -1.4714,4.252 -0.9199,5.689 v 0 c 0.7336,1.912 2.9571,2.484 8.293,2.133 4.0097,-0.265 7.6683,-0.664 8.1328,-0.887 0.4645,-0.219 2.556,-0.26 4.6465,-0.09 4.1008,0.333 5.3583,-4.459 2.041,-7.777 -1.2223,-1.222 -0.9617,-2.425 0.8457,-3.926 2.8358,-2.353 3.5389,-6.816 1.0742,-6.816 -0.8443,0 -1.1345,-1.52 -0.6484,-3.379 0.9222,-3.526 -1.8754,-4.698 -3.7969,-1.59 -0.6984,1.13 -1.9408,0.664 -3.3672,-1.265 -1.0675,-1.443 -1.6987,-2.169 -2.625,-2.198 z m -126.8925,10.084 c -3.8742,0.08 -8.0906,1.532 -10.7461,4.188 -4.7989,4.799 -5.2246,8.77 -1.5059,14.08 1.6535,2.361 2.2088,5.188 1.4805,7.557 -1.6543,5.381 -15.3507,18.144 -19.4707,18.144 -5.3817,0 -9.299,2.765 -13.1368,9.27 -3.4919,5.918 -3.6153,5.966 -12.4511,4.927 -11.1511,-1.31 -15.9455,1.965 -18.3145,12.51 -1.9124,8.512 -1.0375,10.569 6.7442,15.842 4.3226,2.929 6.2367,5.832 7.5996,11.519 1.4592,6.092 2.9059,8.106 7.2773,10.137 5.2052,2.418 5.4165,2.885 4.5801,10.139 -0.4823,4.181 -0.2509,8.52 0.5137,9.642 0.7642,1.123 5.5469,4.249 10.6269,6.946 11.4199,6.06 13.8312,10.603 15.0528,28.349 1.0197,14.818 2.8213,18.396 11.0781,21.994 v 0 c 6.274,2.735 9.4368,2.845 15.5196,0.539 11.2735,-4.271 15.964,-15.069 9.6015,-22.099 -2.3463,-2.593 -2.4403,-3.808 -0.6386,-8.158 2.2862,-5.52 4.3485,-6.144 10.7128,-3.244 3.1798,1.448 5.3733,1.284 9.795,-0.731 3.1339,-1.429 7.2181,-2.85 9.0761,-3.156 5.1315,-0.851 4.5428,-9.42 -0.9277,-13.504 -5.1466,-3.843 -9.659,-2.628 -11.873,3.195 -1.2023,3.163 -2.3681,3.851 -5.0625,2.996 -6.0299,-1.913 -11.1393,0.497 -13.4649,6.354 -1.2045,3.031 -3.932,7.034 -6.0625,8.892 -2.5848,2.256 -4.0363,5.626 -4.3613,10.137 -0.3999,5.543 -1.1717,6.858 -4.2891,7.299 -2.9367,0.417 -3.8008,-0.292 -3.8008,-3.113 0,-2.009 -1.5201,-5.587 -3.3789,-7.95 -2.4725,-3.143 -3.3808,-6.854 -3.3808,-13.83 0,-12.067 -2.5372,-15.717 -15.4707,-22.246 -8.089,-4.083 -9.9066,-5.71 -8.9141,-7.988 0.6849,-1.573 1.6101,-5.46 2.0508,-8.637 0.9313,-6.676 -2.5219,-10.273 -9.8613,-10.273 -3.7626,0 -4.9768,-1.209 -7.2793,-7.238 -1.5202,-3.981 -2.7637,-8.492 -2.7637,-10.024 0,-1.531 -2.2825,-4.407 -5.0703,-6.392 -8.9794,-6.394 -5.9356,-10.724 5.7031,-8.116 8.2571,1.852 13.1406,-1.04 18.0664,-10.695 3.3377,-6.542 3.8712,-6.878 9.4883,-5.967 5.3839,0.874 6.7183,0.207 13.9746,-6.982 4.4115,-4.372 8.8948,-9.607 9.9629,-11.637 2.4518,-4.662 2.4975,-13.231 0.094,-17.723 -2.7515,-5.141 0.2025,-6.918 9.2461,-5.562 7.0625,1.059 7.8067,1.605 7.8067,5.725 0,7.87 3.7577,11.093 13.0156,11.093 11.2906,0.03 17.0315,3.981 17.7148,12.201 0.3856,4.636 1.5817,6.849 4.4707,8.282 6.9846,3.462 17.1758,15.767 17.1758,20.736 0,5.218 2.732,8.645 6.8907,8.645 1.559,0 3.6999,1.041 4.7578,2.316 2.5719,3.099 13.3849,4.726 17.3398,2.609 2.578,-1.38 3.4406,-0.973 4.6289,2.18 1.1921,3.162 0.725,4.273 -2.539,6.031 -2.2009,1.186 -4.455,3.964 -5.0098,6.176 -1.2922,5.148 -7.0331,10.349 -12.9727,11.754 -3.7107,0.877 -4.6465,2.059 -4.6465,5.865 0,3.43 -1.1711,5.298 -4.1777,6.668 -2.2972,1.047 -4.6754,3.886 -5.2832,6.309 -0.6244,2.487 -2.8963,5.086 -5.2226,5.97 -3.3873,1.287 -4.0237,2.543 -3.5879,7.057 0.4444,4.604 -0.085,5.577 -3.2715,6.031 -4.7108,0.67 -4.9895,4.771 -0.4219,6.221 5.2547,1.668 9.7193,-0.538 12.1348,-5.994 1.2143,-2.744 3.4599,-4.99 4.9922,-4.99 2.9654,0 4.8378,-3.305 4.8378,-8.543 0,-2.628 0.8738,-3.025 4.9141,-2.217 6.1852,1.237 9.4942,-3.572 6.9902,-10.158 -1.3319,-3.503 -1.0582,-4.423 1.5606,-5.254 4.159,-1.32 13.5684,-10.995 13.5684,-13.951 0,-1.271 1.9013,-5.716 4.2246,-9.877 7.127,-12.767 4.9381,-20.963 -5.5977,-20.963 -4.2327,0 -7.2798,-1.117 -9.2168,-3.379 -1.6592,-1.938 -4.9837,-3.379 -7.7949,-3.379 -3.6631,0 -5.1534,-0.96 -5.8965,-3.801 -0.5461,-2.091 -3.6995,-5.54 -7.0059,-7.662 -3.3059,-2.123 -6.7506,-5.806 -7.6562,-8.187 -0.9052,-2.382 -3.0245,-4.693 -4.709,-5.133 -1.6845,-0.441 -3.9923,-3.367 -5.1269,-6.504 -1.1339,-3.138 -3.5008,-6.161 -5.2579,-6.719 -1.7571,-0.557 -3.4335,-2.689 -3.7246,-4.736 -0.4864,-3.417 -1.363,-3.694 -10.8027,-3.342 -10.0887,0.373 -10.3165,0.283 -12.6719,-5.068 -1.5768,-3.582 -3.796,-5.647 -6.4746,-6.026 -2.242,-0.317 -5.147,-1.647 -6.457,-2.957 -1.7012,-1.701 -4.5063,-2.478 -7.5195,-2.42 z" fill="#00B894" transform="translate(27.830258,-87.067869) translate(2584.187,-2907.6975) matrix(0.26458333,0,0,0.26458333,-1536.012,-972.91664)"/>
</svg>