<?xml version="1.0" ?><svg height="93.417999mm" viewBox="0 0 130.08646 93.417999" width="130.08646mm" xmlns="http://www.w3.org/2000/svg">
    <path d="m -934.96197,3628.9725 123.65551,-2.1281 -0.8966,87.6732 -123.13011,0.3042 z" fill="#FFFFFF" paint-order="markers stroke fill" transform="translate(-82.424075,24.403) translate(1020.6498,-3648.6014)"/>
    <path d="m -815.01105,3624.1984 c -1.87552,0.013 -4.27283,0.1373 -7.32359,0.1701 -8.23327,0.089 -13.57571,-0.3609 -51.96943,0.7358 -25.37356,0.7247 -35.57214,0.8218 -50.42175,0.4813 -10.15119,0.2082 -13.8947,-1.882 -13.15008,3.4504 l -0.19018,10.9249 c -0.1,5.7433 -0.075,14.8646 0.046,20.27 0.1216,5.4057 0.14192,18.7934 0.0439,29.75 -0.19288,21.8504 -0.68043,25.7273 0.63458,26.8735 0.48868,0.4262 3.17915,0.2511 5.98207,0.2355 l 5.46787,-0.073 c 8.09501,-0.1085 29.47276,-0.085 46.80903,0.5995 33.49794,-0.5344 65.33086,-0.6874 67.57469,-0.5275 3.33967,0.2378 1.93019,-1.0414 2.86287,-24.1838 0.6899,-17.1211 0.68008,-22.5586 -0.0666,-35.8153 -0.4812,-8.596 -0.0793,-21.668 0.0305,-24.6181 -0.47143,-6.4207 -2.26295,-8.2701 -6.32984,-8.273 z m -2.00969,5.3735 c 2.0257,0.057 3.42889,0.3273 3.40444,1.0584 l -0.35605,10.6635 c -0.19465,6.3465 -0.14025,14.0171 0.12092,17.045 0.55996,6.4979 -0.20717,45.7123 -0.98806,50.3369 l -0.53848,3.1978 -12.93564,-0.136 h -0.003 c -7.11446,-0.076 -14.20577,-0.072 -15.75768,0.011 -1.55302,0.08 -2.9509,-0.072 -3.10576,-0.3379 -0.1566,-0.2656 -0.42323,-4.0971 -0.59428,-8.5138 -0.36835,-9.6012 1.23748,-20.7735 0.0791,-31.4512 -0.99743,-9.1993 -0.62712,-27.3463 -0.84802,-35.6413 -0.41295,-5.5358 -0.79814,-5.8017 4.52067,-6.1021 9.86184,0.6152 17.30374,-0.381 27.00184,-0.1303 z m -34.79271,0.5095 -0.46821,5.0353 c -0.52673,5.6488 -1.17456,22.1964 -0.2563,31.8648 1.75252,18.4433 0.5311,44.1259 0.0713,44.5378 -0.14745,0.1318 -7.35618,0.3456 -16.02123,0.4744 -8.66508,0.1286 -19.32734,0.1463 -20.69796,0.1008 l -2.48875,-0.084 -0.22892,-3.0412 c -0.12599,-1.6724 0.20836,-9.2614 -0.18449,-16.2657 -0.3933,-7.0044 -0.1927,-16.891 -0.62579,-22.6111 -0.43397,-5.7197 -0.0154,-15.8551 -0.0718,-22.5443 -0.0569,-6.689 -0.20317,-13.1241 -0.32607,-14.3002 l -0.22325,-2.1394 2.54661,-0.2136 c 2.34267,-0.1965 18.16216,-0.4318 32.95716,-0.7038 z m -81.03227,0.4783 12.14757,0.2977 c 6.6811,0.1638 14.86903,0.2135 18.19683,0.1101 l 6.04925,-0.1876 -0.31782,16.0859 c -0.22442,11.2754 -1.66277,20.4681 -0.97462,30.8189 0.53943,8.1219 0.45127,19.1082 0.8041,24.4356 0.35176,5.3274 0.51911,9.7822 0.36949,9.8996 -0.14875,0.1175 -3.72706,0.3376 -10.95026,0.426 -15.05969,0.1847 -24.56921,-0.096 -24.93283,-0.7366 -0.13649,-0.2439 -0.14869,-7.7179 -0.0269,-16.6087 0.1225,-8.8905 0.0238,-24.23 -0.21807,-34.0878 -0.24281,-9.8579 -0.37483,-20.7426 -0.29353,-24.1882 z m 59.60411,26.2322 c -0.55893,0.01 -1.16869,0.3833 -1.56839,1.098 -0.48864,0.8734 -0.45453,1.1745 0.31575,2.8133 0.47437,1.0094 1.19997,1.9423 1.61232,2.0733 1.10852,0.3519 0.56102,0.8572 -1.26196,1.1652 -1.16768,0.1974 -1.69661,0.127 -1.9358,-0.2582 -0.26193,-0.422 -0.51032,-0.349 -1.21957,0.359 -0.69961,0.6985 -0.88405,1.3044 -0.86196,2.8279 0.0167,1.0665 0,1.9394 -0.0387,1.9394 -0.79494,0 -2.49656,-1.02 -2.6443,-1.5849 -0.20854,-0.7977 -1.22817,-1.026 -1.63608,-0.3659 -0.13258,0.2143 -0.43309,0.39 -0.66818,0.39 -0.23518,0 -0.11019,-0.3511 0.27803,-0.7803 0.38835,-0.4291 0.91514,-0.7797 1.17046,-0.7797 0.73359,0 1.79679,-1.3888 1.55186,-2.0267 -0.12218,-0.3186 0.0492,-0.8043 0.38084,-1.0795 0.75385,-0.626 0.77624,-1.4248 0.0476,-1.7044 -0.3052,-0.1173 -0.61293,-0.6186 -0.68265,-1.1147 -0.181,-1.2767 -1.2696,-1.1457 -1.42111,0.1711 -0.13411,1.1658 -0.441,1.3277 -1.15755,0.6112 -0.74416,-0.744 -1.02862,-0.036 -0.57668,1.4367 0.24542,0.8001 0.27284,1.4555 0.0656,1.5833 -0.19449,0.1204 -0.35398,0.033 -0.35398,-0.1947 0,-0.2273 -0.37341,-0.4128 -0.83045,-0.4128 -0.75446,0 -0.81288,0.1614 -0.63251,1.7611 0.19007,1.6856 -0.16079,2.5937 -0.6785,1.756 -0.39079,-0.6323 -0.90593,-0.462 -1.17618,0.3895 -0.32311,1.0181 0.45977,3.379 1.29916,3.9187 0.55168,0.3543 0.51326,0.3903 -0.24805,0.2284 -1.20761,-0.2567 -1.54588,0.718 -0.60875,1.7549 0.4015,0.4443 0.67715,1.1293 0.61185,1.5225 -0.0747,0.4524 0.28323,0.939 0.97514,1.3245 l 1.09347,0.6085 -1.12913,-0.098 c -2.62443,-0.2284 -1.16861,1.7933 2.18694,3.0371 1.84277,0.6832 1.94622,0.7776 0.96739,0.8903 -2.09012,0.2405 -1.69727,1.9995 0.44958,2.0143 0.56814,0 0.98748,0.2881 1.10845,0.7504 0.19817,0.758 1.18869,1.1901 2.74352,1.2009 0.56128,0 0.79489,0.1887 0.66508,0.5271 h 0.003 c -0.15968,0.4151 0.45648,0.4961 3.03548,0.3931 1.77962,-0.071 3.84982,-0.2172 4.60074,-0.3265 0.75094,-0.1095 2.11177,-0.1915 3.0236,-0.1804 1.78726,0.018 2.29121,-0.7808 0.97512,-1.5473 -0.57412,-0.3344 -0.4967,-0.3998 0.48731,-0.4117 2.19329,-0.026 4.09639,-0.7638 4.09639,-1.588 0,-0.5019 -0.26646,-0.7623 -0.78031,-0.7623 -0.87069,0 -1.04275,-0.8633 -0.29247,-1.4676 0.26813,-0.2162 1.10217,-0.5202 1.85311,-0.676 1.64328,-0.3411 2.75519,-1.238 2.46703,-1.9889 -0.11578,-0.3016 -0.58626,-0.5498 -1.04592,-0.5498 -0.70427,0 -0.63193,-0.1262 0.45836,-0.7908 1.64978,-1.0057 1.55485,-2.1331 -0.17933,-2.1331 -1.13927,0 -1.18192,-0.053 -0.78031,-0.9753 0.23378,-0.5365 0.73604,-1.5025 1.11622,-2.146 0.9116,-1.5431 0.87477,-2.1458 -0.13126,-2.1458 -0.67164,0 -0.77811,-0.163 -0.56999,-0.8773 0.69993,-2.4011 0.71683,-3.3991 0.062,-3.6505 -0.40804,-0.1566 -0.85664,0.024 -1.19269,0.4808 -0.50678,0.6892 -0.55399,0.6921 -0.8041,0.047 -0.14811,-0.377 -0.15248,-1.3007 -0.0114,-2.0529 0.2876,-1.5335 -0.49538,-2.2209 -1.54099,-1.3531 -0.48731,0.4043 -0.58034,0.3252 -0.58034,-0.494 0,-1.0787 -0.90768,-2.0592 -1.54305,-1.6666 -0.22391,0.1387 -0.40722,0.5003 -0.40722,0.8041 0,0.4106 -0.31313,0.49 -1.22264,0.308 -1.78948,-0.3578 -1.3095,0.6323 0.83715,1.7272 1.26886,0.6469 1.49449,0.8773 0.85836,0.8773 -1.17444,0 -1.09096,0.934 0.17206,1.9275 0.56914,0.4477 0.96377,0.8636 0.87749,0.9245 -0.0864,0.061 -0.63077,0.314 -1.20976,0.5622 -0.95096,0.408 -1.14546,0.3416 -2.01073,-0.6866 -0.52678,-0.6263 -1.01885,-1.2867 -1.09296,-1.4682 -0.0741,-0.1815 -1.1421,-1.0853 -2.3735,-2.0087 -1.23148,-0.9234 -2.14485,-1.8309 -2.02986,-2.0169 0.11502,-0.186 0.0132,-0.7038 -0.22582,-1.1504 -0.25122,-0.4694 -0.65513,-0.6927 -1.08985,-0.6892 z m 3.13571,6.9725 c 0.39923,-0.021 0.98457,0.4443 1.64952,1.4227 0.64794,0.953 0.85228,1.5803 0.59894,1.8336 -0.57888,0.5789 -0.46278,1.1223 0.18656,0.8733 0.40457,-0.1553 0.68897,0.2027 0.97305,1.2259 0.22083,0.7948 0.40267,1.7523 0.4036,2.128 0.003,1.0234 -0.74435,0.8218 -1.17771,-0.318 -0.20921,-0.5501 -0.38034,-1.1642 -0.38034,-1.3642 0,-0.1998 -0.59725,-1.0245 -1.32705,-1.8325 -0.7298,-0.8075 -1.36488,-1.7296 -1.41128,-2.049 -0.18116,-1.2424 0.0323,-1.8946 0.48471,-1.9198 z m -4.15993,1.9246 c 1.40721,0 2.46424,0.1532 2.34867,0.34 -0.11554,0.1868 0.22741,1.1962 0.76174,2.2429 1.22518,2.3997 1.52707,4.351 0.86815,5.6057 -0.78743,1.4994 -1.70717,1.4412 -2.22933,-0.141 -0.24645,-0.7467 -1.02647,-2.1172 -1.73373,-3.0449 -1.38919,-1.8224 -2.574,-3.9359 -2.574,-4.5929 0,-0.2442 1.03209,-0.4098 2.5585,-0.4098 z m 10.55076,0.3551 c 0.32602,-0.024 0.68881,0.2217 1.33379,0.8242 1.35943,1.27 1.43272,1.5517 0.40357,1.5517 -1.47177,0 -1.36806,1.0279 0.38293,3.7931 0.72395,1.1435 0.13615,1.6915 -1.28363,1.197 -0.98983,-0.345 -1.0728,-0.5353 -1.0728,-2.462 0,-1.1483 -0.18579,-2.5762 -0.41291,-3.1739 -0.33261,-0.8745 -0.29303,-1.1748 0.20412,-1.5386 0.15606,-0.114 0.29676,-0.1807 0.44493,-0.1915 z m -18.06969,2.6133 c 0.40092,0 0.88672,0.1103 1.34617,0.3466 0.59346,0.3053 1.51924,0.6426 2.05777,0.7498 0.54094,0.1074 1.28839,0.7173 1.66965,1.3629 l 0.68988,1.1678 -2.05412,1.3833 h 0.005 c -2.22491,1.4983 -3.03959,1.7126 -3.03959,0.7985 0,-0.3217 -0.29038,-0.5855 -0.64545,-0.5855 -0.58436,0 -0.57997,-0.072 0.0475,-0.7655 0.78698,-0.8697 0.52036,-2.1685 -0.37465,-1.8251 -0.48402,0.186 -0.49911,0.091 -0.094,-0.5953 0.37811,-0.6501 0.37716,-0.8527 -0.0109,-0.9932 -0.26816,-0.097 -0.48784,-0.3188 -0.48784,-0.4924 0,-0.3583 0.37544,-0.5496 0.8909,-0.5519 z m 14.71279,4.0534 c 0.44386,0 0.49786,0.9242 0.15451,2.6411 -0.17481,0.8741 -0.50207,1.2321 -1.26761,1.3872 -0.56769,0.1145 -1.78967,0.8585 -2.71508,1.6526 -1.51733,1.302 -1.7807,1.3988 -2.68356,0.9874 -1.2419,-0.566 -1.61589,-0.2643 -0.79841,0.6434 0.56671,0.6295 0.54134,0.7726 -0.30901,1.7579 v 0 c -1.23282,1.4288 -1.74357,1.3523 -1.74357,-0.2608 0,-0.7335 -0.10642,-1.6108 -0.23667,-1.9503 -0.33946,-0.8848 -1.22518,-0.7609 -1.5348,0.2143 -0.34332,1.0819 -0.95316,0.2043 -0.6537,-0.9403 0.16409,-0.6273 0.0688,-0.7482 -0.4377,-0.554 -0.44961,0.1725 -0.64337,0.043 -0.64337,-0.4223 0.005,-0.6906 4.5882,-3.8145 4.99711,-3.4055 0.12065,0.1207 -0.009,0.8512 -0.28834,1.6232 -0.4231,1.1684 -0.4191,1.4598 0.0222,1.7394 0.76621,0.4855 1.55017,0.4239 2.25465,-0.1778 0.33869,-0.2892 1.4574,-0.7532 2.48565,-1.0308 1.98475,-0.5358 3.00652,-1.561 3.00652,-3.0165 0,-0.4884 0.17565,-0.8882 0.39015,-0.8882 z m 3.20704,1.6288 c 0.18449,0.019 0.30387,0.5564 0.30387,1.6264 0,1.1993 -0.2282,1.9018 -0.78031,2.4013 -0.90551,0.8194 -0.94321,0.5712 -0.32297,-2.1161 0.29765,-1.2896 0.59033,-1.9333 0.79941,-1.9116 z m -3.66022,3.0453 -0.13645,2.2376 c -0.0751,1.2306 -0.28059,2.2714 -0.4563,2.3135 -0.3462,0.083 -2.25713,-1.0589 -2.50682,-1.4975 -0.0843,-0.1482 0.57883,-0.8959 1.47331,-1.6614 z m -4.75269,4.4866 c 0.34214,-0.013 0.71869,0.1825 1.45315,0.6159 0.77658,0.4583 1.41229,0.9911 1.41229,1.1845 0,0.1935 -0.65839,0.3276 -1.46296,0.2988 -3.30634,-0.1202 -3.96412,-0.611 -2.28978,-1.7079 0.37571,-0.2464 0.62119,-0.3816 0.8873,-0.3913 z" fill="#00B894" transform="translate(-82.424075,24.403) translate(1020.6498,-3648.6014)"/>
</svg>