<?xml version="1.0" ?><svg height="93.451027mm" viewBox="0 0 136.7323 93.451027" width="136.7323mm" xmlns="http://www.w3.org/2000/svg">
    <path d="m -2552.336,2776.0259 130.1507,0.1982 1.8438,87.9734 -131.6901,-0.8175 z" fill="#FFFFFF" paint-order="markers stroke fill" transform="translate(66.372834,-73.669141) translate(2488.3481,-2699.5426)"/>
    <path d="m -2538.9207,2773.2152 c -7.9794,-0.013 -13.0927,0.01 -13.4575,0.08 -0.8804,0.1768 -1.7707,0.8663 -2.0263,1.5693 -0.4507,1.2403 -0.4095,56.0784 0.057,75.6486 0.228,9.5557 0.6766,12.6098 2.2226,15.1201 0.4164,0.6763 4.607,0.8067 24.523,0.7639 13.2113,-0.029 43.2661,-0.09 66.7866,0.1291 43.6856,0.4074 42.6922,0.061 42.8253,-3.2406 0.046,-1.1454 -1.0819,-82.8048 -1.2852,-88.4447 -0.069,-1.9166 -3.9897,-1.2054 -21.3061,-1.2284 -24.6714,-0.033 -74.401,-0.3599 -98.3393,-0.3974 z m -10.7688,3.8674 c 0.4726,0 1.112,0.024 1.9725,0.01 2.8096,0.036 3.324,0.213 3.5967,1.2364 0.1751,0.6567 0.7175,1.1957 1.2061,1.2057 0.5164,0.01 0.8769,-0.486 0.8609,-1.1787 -0.021,-0.9356 0.3446,-1.1864 1.7064,-1.1684 2.2547,0.1328 4.1526,0.057 6.6037,0.077 2.4126,0.055 2.2949,-0.4387 2.2329,2.0984 l -0.019,27.4098 c -1.4989,2.7662 -2.4396,4.7207 -4.1749,7.0824 -0.274,0.1799 -1.3094,-1.3206 -2.3007,-3.3348 l -1.8019,-3.6624 0.8883,-2.64 c 1.2186,-3.6216 1.9811,-3.9296 1.5932,-0.6435 -0.3475,2.9438 0.1966,3.7378 2.2035,3.216 2.9897,-0.7776 3.6724,-7.3001 1.0175,-9.7234 -2.5023,-2.2844 -5.1926,-1.6317 -6.7061,1.6272 l -0.849,1.8283 -1.077,-1.8331 c -1.9777,-3.3663 -4.3474,-3.9814 -6.475,-1.6804 -1.3744,1.1423 -1.5358,3.3894 -1.172,5.0105 0.6727,3.2692 1.3959,4.1452 2.6861,3.253 0.5744,-0.3971 0.8858,-1.2912 0.7938,-2.2804 -0.1741,-1.8767 -0.1717,-1.8754 1.7621,1.0887 l 1.4594,2.2366 -1.7152,3.5369 c -0.9432,1.9452 -1.8996,3.5412 -2.1254,3.5412 -0.226,0 -1.0651,-1.0692 -1.8645,-2.3821 -1.2506,-2.0547 -1.4586,-3.0323 -1.4966,-7.0119 0.076,-3.9722 0.2136,-5.5904 0.2217,-9.9111 -0.01,-1.8841 0.1331,-2.1785 0.771,-1.616 0.4292,0.3786 1.1846,0.5259 1.6785,0.328 1.16,-0.4622 1.1131,-2.8249 -0.071,-3.869 -0.7766,-0.685 -1.0268,-0.6368 -1.664,0.3175 -0.6817,1.0205 -0.7541,0.8811 -0.7912,-1.5208 -0.04,-2.5757 -0.016,-2.612 0.9431,-1.4118 1.416,1.7724 2.657,2.1251 3.9848,1.1321 2.9568,-2.2116 3.1613,-6.4619 0.4113,-8.5529 -2.0594,-1.5666 -2.1765,-1.5454 -3.9459,0.7033 l -1.5069,1.9145 -0.072,-2.2328 c -0.1026,-2.0108 -0.1838,-2.2016 1.2341,-2.1984 z m 37.6359,0.4207 c 28.5792,-0.039 85.494,0.1936 85.8708,0.1492 3.3798,-0.3972 1.9895,0.3752 2.3874,15.2659 l 0.14,39.0626 -10.2365,0.2481 c -28.106,0.083 -57.2878,0 -85.3953,-0.4159 l -8.2502,-0.3246 -0.4366,-26.7198 c -0.2404,-14.6957 -0.2721,-26.8983 -0.07,-27.1163 0.086,-0.093 6.4643,-0.1363 15.9907,-0.1492 z m -26.1942,0.2397 c -0.5052,-0.065 -1.0015,0.06 -1.462,0.4921 -1.6326,1.5298 -2.8217,3.8997 -2.3518,4.6871 0.8001,1.3409 4.8314,4.4196 5.8033,4.4326 1.0783,0.013 3.2409,-3.5505 3.2019,-5.2777 -0.015,-0.6392 -1.1305,-1.8611 -2.713,-2.9697 -0.7695,-0.6204 -1.6365,-1.2562 -2.4784,-1.3644 z m 0.3048,2.785 c 0.2014,0.031 0.4161,0.2651 0.7457,0.7186 0.4229,0.5821 0.7744,1.2591 0.7964,1.5049 0.038,0.6088 -0.6093,0.5242 -1.8289,-0.2386 -0.8097,-0.5067 -0.8875,-0.812 -0.3777,-1.4812 0.2755,-0.3614 0.4632,-0.5344 0.6645,-0.5037 z m -9.8588,0.9326 v 0 c 0.7945,-0.057 1.9989,1.0353 1.6387,1.6785 -0.4242,0.7576 -1.1081,0.6348 -1.8769,-0.3365 -0.48,-0.6059 -0.5009,-0.9607 -0.072,-1.2422 0.091,-0.06 0.1966,-0.092 0.3101,-0.1 z m 5.3992,4.6355 c -0.7475,-0.011 -1.2504,1.0668 -0.8284,1.7746 0.6051,1.0141 1.4078,0.6776 1.3798,-0.5779 -0.015,-0.6548 -0.2631,-1.1967 -0.5514,-1.1967 z m 3.0856,2.4241 c -1.5549,-0.021 -2.3389,1.9675 -1.2961,3.2851 0.3799,0.48 1.0053,0.8715 1.3901,0.8816 1.1378,0.016 2.0333,-1.6087 1.6139,-2.926 -0.2481,-0.779 -0.8691,-1.2298 -1.7079,-1.2407 z m 4.8038,0.3554 c -1.0802,-0.013 -1.9441,1.692 -1.4779,2.9194 0.2137,0.5625 0.8262,0.9385 1.3611,0.834 1.2112,-0.2347 1.3203,-3.7373 0.1168,-3.7534 z m -9.527,0.1788 c -1.2638,-0.016 -1.9406,1.2616 -1.4093,2.6599 v 0.01 c 0.4361,1.1401 1.7195,1.1605 2.5787,0.033 0.8988,-1.1798 0.2483,-2.6821 -1.1689,-2.7006 z m 1.2087,4.9192 c -0.6602,0.011 -1.2604,0.8297 -0.8129,1.5798 0.2138,0.3585 0.6099,0.6583 0.8801,0.6583 0.8606,0.011 1.2346,-1.2536 0.5761,-1.9487 -0.1967,-0.2079 -0.4233,-0.2934 -0.6433,-0.2894 z m 1.2981,15.644 1.0082,1.9897 c 0.7889,1.5568 0.8688,2.1727 0.3669,2.8313 -0.7019,0.9212 -0.887,0.9482 -2.296,0.3323 -0.8929,-0.39 -0.8942,-0.5689 -0.017,-2.785 z m 10.3451,3.425 c 0.1834,-0.01 0.3538,1.9945 0.3788,4.4495 0.025,2.4548 -0.08,4.458 -0.2331,4.458 -0.1532,0 -0.9446,-0.8734 -1.7585,-1.9346 l -1.48,-1.9297 1.3797,-2.514 c 0.7587,-1.383 1.5299,-2.5141 1.7131,-2.5292 z m -19.1446,2.217 v 0 c 0.1661,0.021 0.4155,0.396 0.77,1.0773 0.4504,0.8658 0.4122,1.6931 -0.1432,3.1224 l -0.7555,1.9452 -0.1168,-3.126 c -0.078,-2.1162 -0.032,-3.0557 0.245,-3.0189 z m 11.4277,0.1577 c 0.1392,-0.016 0.2901,0.3021 0.5551,0.9966 0.4287,1.1256 0.1953,1.9857 -1.1669,4.2995 -0.9366,1.5912 -1.7436,2.8924 -1.7906,2.8919 -0.26,0 -2.5033,-2.8723 -3.005,-3.8431 -0.7039,-1.3618 -0.337,-3.4784 0.5473,-3.1591 0.3468,0.1254 0.7195,0.8776 0.8294,1.6719 0.3997,2.8967 0.6241,3.0626 2.3254,1.7166 0.9086,-0.7186 1.4708,-1.6269 1.2945,-2.0907 -0.1712,-0.4511 -0.1448,-1.2869 0.059,-1.8568 0.1425,-0.3985 0.2437,-0.6139 0.3519,-0.6268 z m 3.3797,5.4059 v 0 c 0.4235,0.078 1.3943,1.6097 2.3135,3.6775 0.9537,2.1452 1.9944,4.0735 2.3125,4.2844 0.3578,0.2373 0.6656,4.2346 0.8062,10.4687 0.1933,8.5675 0.1019,10.0836 -0.6082,10.0738 -1.2498,-0.016 -0.9609,2.1801 0.3364,2.5569 0.9363,0.2717 1.1326,0.8263 1.1896,3.3578 0.052,2.2985 -0.1339,3.0316 -0.7674,3.0216 -0.937,-0.013 -1.1052,1.5004 -0.2315,2.0796 1.5101,1.0017 0.1827,1.4904 -3.9047,1.4375 -4.2404,-0.055 -4.4766,-0.1246 -4.1682,-1.2438 0.2319,-0.8417 0.073,-1.188 -0.5468,-1.1978 -0.502,-0.01 -0.8609,0.4956 -0.8459,1.1798 0.021,0.9231 -0.3451,1.1856 -1.6283,1.1689 -2.0954,-0.081 -4.3049,-0.063 -6.2529,-0.081 -2.563,-0.033 -2.7775,-0.1273 -1.8831,-0.8269 1.0269,-0.803 0.7281,-2.1629 -0.478,-2.178 -1.0515,-0.013 -0.6334,-6.6331 0.4775,-7.5623 0.8327,-0.6954 0.8256,-0.8147 -0.093,-1.5748 -0.8276,-0.685 -1.0123,-1.8045 -1.1229,-6.7085 -0.2193,-9.9743 0.2299,-15.6308 1.2686,-15.9721 0.4979,-0.1636 1.3422,-1.1158 1.8764,-2.1157 l 0.9715,-1.8184 1.9632,3.0974 c 1.0799,1.7037 1.9684,3.192 1.9684,3.3084 0,0.1167 -0.5344,1.2221 -1.1932,2.4572 l -1.1979,2.2447 -0.3271,-1.7833 c -0.4225,-2.3045 -2.3606,-2.7564 -3.5869,-0.8361 -1.0063,1.5761 -1.0332,2.3786 -0.1798,5.4094 1.3109,4.6559 5.2297,5.13 7.0528,0.8536 l 0.8816,-2.068 1.358,2.0791 c 2.2962,3.5147 6.1124,3.4068 7.8342,-0.2217 1.4244,-3.0012 -0.4441,-8.3191 -2.9342,-8.3511 -1.1367,-0.016 -1.234,0.376 -0.9684,3.8555 0.2419,3.1697 -0.6872,2.2014 -2.1549,-2.2458 l -1.1188,-3.3898 1.4247,-3.1028 c 0.7835,-1.7065 1.7198,-3.2049 2.081,-3.33 0.023,-0.01 0.049,-0.011 0.077,-0.01 z m 8.9447,14.1624 c 1.0455,-0.011 3.3557,0.1145 5.9634,0.3307 8.4724,0.7033 71.4013,1.6365 85.9121,1.2692 12.9075,-0.032 11.4296,0.1122 11.6856,3.8055 0.073,2.2535 -0.3723,7.8491 -0.3483,12.5598 0.037,7.1559 1.0656,9.0006 -1.2635,8.9395 -38.4255,-0.8242 -64.878,0.9167 -100.0782,0.016 l -2.0897,-0.027 -0.2998,-13.2942 c -0.165,-7.3118 -0.1967,-13.4067 -0.07,-13.5432 0.032,-0.034 0.24,-0.052 0.5886,-0.055 z m -11.3125,7.9235 c -0.2385,0.026 -0.4825,0.1344 -0.7178,0.3442 -0.8579,0.7649 -1.1039,3.053 -0.4072,3.7888 0.911,0.9618 2.4192,0.3506 2.7295,-1.1062 0.3567,-1.6748 -0.5711,-3.1372 -1.6045,-3.0268 z m -4.6437,0.3751 c -0.1112,0.01 -0.2364,0.021 -0.3767,0.04 -0.9485,0.1318 -1.3281,0.625 -1.433,1.8611 -0.1238,1.4637 0.026,1.6584 1.1482,1.5026 0.9486,-0.1318 1.3283,-0.6255 1.4331,-1.8613 0.1084,-1.2796 0.01,-1.5894 -0.7716,-1.5426 z m -5.4653,0.2265 c -0.2512,0.01 -0.5163,0.1109 -0.771,0.3379 -0.7581,0.676 -0.9007,2.4021 -0.2548,3.084 0.7919,0.8361 2.1213,0.066 2.2743,-1.3182 0.1361,-1.2311 -0.4947,-2.1196 -1.2485,-2.1037 z m 14.8865,0.5228 c -0.9865,-0.038 -1.5568,1.2899 -1.0517,2.6191 0.5649,1.4862 2.3071,0.7893 2.2691,-0.9075 -0.021,-0.9297 -0.3948,-1.5504 -1.0144,-1.6851 -0.069,-0.016 -0.1373,-0.024 -0.203,-0.026 z m -6.9862,5.1925 c -0.468,-0.011 -0.9006,0.4008 -0.8831,1.1623 0.015,0.6546 0.3612,1.1898 0.7699,1.1999 1.0473,0.013 1.4461,-0.5538 1.0744,-1.5317 -0.2115,-0.5567 -0.5972,-0.8218 -0.9612,-0.8305 z m 4.684,0.026 c -0.4283,0.016 -0.8368,0.7554 -2.1617,2.1879 -2.1527,2.328 -2.1996,2.3452 -3.2003,1.1803 -0.5587,-0.6504 -1.7262,-1.7225 -2.5941,-2.3831 -1.4212,-1.0819 -1.7001,-1.1158 -2.8071,-0.3427 -0.6762,0.4715 -1.6869,1.8016 -2.2459,2.9544 -1.4082,2.5813 -0.9893,2.1381 0.5618,4.5738 0.8676,1.3624 1.9453,2.6297 2.3947,2.8184 1.9615,1.2993 2.5506,1.4205 3.8349,-0.6572 0.7086,-1.1475 1.3985,-2.4115 1.5332,-2.8083 0.1477,-0.4353 1.1474,0.2934 2.5239,1.8388 1.2537,1.4071 2.4504,2.5625 2.6593,2.5625 1.7458,0.021 4.1212,-3.747 4.0602,-6.4444 -0.012,-0.5485 -1.0384,-2.0458 -2.2795,-3.3267 -1.4031,-1.462 -1.8512,-2.1695 -2.2794,-2.1537 z m -10.0154,2.8649 c 0.8042,0.011 1.838,1.7246 1.6712,2.771 -0.219,1.3748 -1.2209,1.637 -2.0847,0.5456 -0.7165,-0.9054 -0.4147,-3.3277 0.4135,-3.3166 z m 10.4215,0.8978 c 0.2107,-0.019 0.3837,0.2011 0.5628,0.6728 0.2169,0.5702 0.1254,1.3282 -0.2036,1.6841 -0.4351,0.4704 -0.706,0.3641 -0.9927,-0.3903 -0.2167,-0.5704 -0.125,-1.3284 0.2041,-1.684 0.1631,-0.1765 0.303,-0.2723 0.4294,-0.2826 z" fill="#00B894" transform="translate(66.372834,-73.669141) translate(2488.3481,-2699.5426)"/>
</svg>