<?xml version="1.0" ?><svg height="97.257614mm" viewBox="0 0 134.18013 97.257614" width="134.18013mm" xmlns="http://www.w3.org/2000/svg">
    <path d="m -217.0493,1157.3584 c -16.05359,-0.1328 -66.97677,1.9925 -66.97677,1.9925 l -3.94321,42.6868 51.64571,-0.5414 76.32916,-0.049 0.04,-41.4172 c 0,0 -42.61721,-2.1301 -54.37521,-2.6138 -0.73499,-0.03 -1.64972,-0.049 -2.71972,-0.058 z m -22.45313,45.7307 -47.57704,0.7282 0.99304,21.4833 11.98223,-0.4232 62.88808,-0.6656 51.79431,-1.4511 -0.86891,-19.1128 z m 80.08062,21.4512 -82.34253,2.453 -44.32209,0.087 0.92896,19.0259 59.09257,1.7918 65.68743,-1.4746 z" fill="#FFFFFF" transform="translate(83.613015,-120.73141) translate(205.76989,-1034.431)"/>
    <path d="m 4825.4746,8043.1465 c -30.6526,0.087 -54.2524,0.5675 -65.3476,1.7441 -13.4893,1.4294 -25.958,2.0236 -27.7051,1.3164 -1.7471,-0.7067 -5.2289,0.6684 -7.7344,3.0567 -3.7818,3.6015 -5.3105,10.8914 -8.9746,42.7226 -4.6074,40.0626 -5.0456,68.5494 -2.4863,160.8848 0.7701,27.7886 1.549,63.6525 1.7304,79.6992 0.4355,38.3312 1.551,46.6716 5.1075,50.3086 1.6159,1.6517 3.2469,4.8548 3.6269,7.1172 1.3553,8.0799 12.3457,13.6487 31.4766,15.9512 v 0 c 75.6608,8.355 153.1574,3.2621 229.1562,2.9824 26.6104,-1.4736 67.4764,0.2499 90.8145,-0.2773 49.1917,-1.1127 86.3301,-2.9895 105.5215,-5.332 7.4391,-0.9064 16.9847,-0.9964 21.207,-0.1993 7.7098,1.3973 16.7425,-0.8578 16.9394,-16.9003 -1.6277,-20.7531 -2.0617,-23.604 -1.2226,-46.2422 0.7299,-19.4264 0.6878,-51.367 -0.084,-70.9786 -1.1132,-28.5792 2.8711,-66.2437 -0.7812,-114.0332 -3.6288,-47.4704 -1.7269,-62.2857 -2.8653,-77.5175 -2.5644,-34.3034 12.9385,-34.305 -69.2265,-32.6953 -71.756,1.4059 -227.1947,-1.8673 -319.1524,-1.6055 z m 194.8574,18.5898 c 44.3102,0.1184 112.1655,1.7437 140.0196,2.666 31.3708,1.0447 38.2413,-3.1699 35.5273,25.9219 -1.3032,13.9597 0.9423,47.694 -0.068,74.9063 l -1.8339,49.4765 -47.6856,-0.2343 c -26.2286,-0.1285 -86.3616,-0.5013 -133.6348,-0.8301 -47.2714,-0.3266 -103.9768,-0.2707 -126.0117,0.125 -22.0382,0.3953 -57.0253,0.7363 -77.7519,0.7363 h -0.01 c -20.7284,0.01 -46.3292,0.2926 -56.8926,0.6328 l -19.207,0.6172 -0.7813,-28.8125 c -0.9282,-34.2736 1.9031,-116.7295 4.0723,-118.6563 3.0436,-2.7008 63.3667,-5.3428 126.7187,-5.5469 35.6285,-0.1152 98.7071,-0.5426 140.1739,-0.9511 5.1837,-0.051 11.0332,-0.066 17.3632,-0.049 z m 87.2422,28.916 c -2.7522,0.045 -4.7809,2.8932 -5.207,5.752 l -0.9121,6.1191 c -0.9157,3.2497 -1.4365,6.4993 -8.2676,0.08 l -4.3945,-4.1289 c -3.3759,-3.1718 -4.6496,-3.3952 -6.4532,-2.0644 -3.3118,2.4446 -1.8942,5.8784 1.17,10.0234 6.9657,10.6254 0.6926,10.587 -4.8008,6.7266 -5.6082,-3.9931 -12.3342,-2.4927 -10.6309,1.9433 0.5823,1.5141 3.3235,3.9258 6.0918,5.3574 11.751,4.608 12.1404,8.7799 3.2246,9.9629 -3.8935,0.5167 -3.5405,1.1305 -7.8672,0.6426 -6.4691,-0.7279 -7.8105,2.4497 -7.8105,4.793 0,2.1687 1.7779,2.8824 7.4297,2.9746 l 7.4316,0.1211 c 13.0456,0.2116 -0.8032,9.3755 -4.2676,11.0586 -3.3646,1.604 -5.3824,3.101 -5.3457,7.0215 0.034,3.4888 4.9402,3.7555 11.8125,-0.4375 7.7931,-4.2354 11.9306,-0.091 5.4297,9.2187 -2.9099,4.9361 -3.2688,6.7921 -1.623,8.4082 2.1392,2.1052 6.5422,1.6379 11.9883,-7.0078 2.6742,-4.947 7.0951,-10.3558 8.6015,-2.3145 0.761,4.0627 1.6571,7.9029 2.2813,11.8204 1.7555,11.0188 8.8555,1.7596 8.0898,-8.7403 -0.9407,-12.8987 9.3055,-4.3116 16.2363,3.416 4.9071,6.0299 9.5175,-2.9341 4.0879,-7.9121 -16.6224,-15.2398 -0.7707,-7.7739 5.0293,-6.0527 12.5985,3.7387 14.2881,-5.7529 4.9707,-10.3828 -10.1416,-5.0393 -12.3233,-8.5984 -0.9199,-8.6797 11.7721,-0.083 16.7256,-9.0481 5.1699,-9.2813 l -5.5761,-0.121 c -5.8453,0.7721 -10.9411,-0.8358 -2.9668,-7.961 10.55,-8.869 6.5004,-15.0276 -4.9883,-8.0234 -7.9315,1.9385 -9.8161,2.3015 -5.7559,-8.1387 4.2974,-10.2841 -2.1061,-14.8326 -7.8945,-5.6934 l -3.3906,5.3536 c 0,0 -4.1215,7.4691 -5.3028,-6.8829 -0.198,-2.406 -0.063,-4.677 -1.1601,-5.5664 -1.2464,-1.0098 -2.4329,-1.4213 -3.5098,-1.4043 z m -1.7793,27.7676 c 8.1168,0.2003 14.3096,4.1894 17.1543,9.8711 4.5445,9.0766 1.1339,15.5392 -7.6562,19.7949 -8.4333,4.0834 -14.5584,3.5705 -19.5625,-1.4336 -4.8889,-4.8888 -5.4128,-10.623 -1.7617,-19.3613 2.5364,-6.0707 6.193,-9.0098 11.8261,-8.8711 z m -372.2168,111 57.3828,0.4629 c 31.5625,0.257 81.2381,0.2754 110.3926,0.041 50.3285,-0.4017 235.0111,1.3563 273.4863,2.6035 l 18.0098,0.584 0.9258,10.6875 c 0.5078,5.8783 1.2455,19.8615 1.6406,31.0742 l 0.7207,20.3868 -47.957,1.1836 c -26.3766,0.6504 -76.6117,2.1885 -111.6348,3.4199 -35.0214,1.2317 -111.896,2.1589 -170.834,2.0644 -36.9316,-0.052 -73.0437,-0.021 -118.082,0.6582 l -10.9199,0.836 -0.959,-12.0137 c -0.5297,-6.6074 -1.2315,-23.2592 -1.5645,-37.002 z m 460.8301,81.9824 1.0606,11.9551 c 1.6613,18.751 -0.066,57.4795 -2.8223,58.9766 -3.7078,2.0141 -38.6475,3.6397 -109.6387,5.1035 -35.0029,0.7211 -80.6361,-1.0626 -101.4082,0.1445 -84.1408,4.3386 -161.3964,-3.0397 -243.8691,-4.0859 -2.9108,-0.8667 -3.2848,-3.3707 -2.2305,-31.7871 l 1.2637,-34.1074 103.5586,2.0195 c 56.957,1.1123 119.4782,1.4578 138.9336,0.7715 19.4587,-0.6864 71.9894,-2.5328 116.7402,-4.1055 44.7508,-1.5727 85.1991,-3.3163 89.8906,-3.873 z" fill="#00B894" transform="translate(83.613015,-120.73141) translate(205.76989,-1034.431) matrix(0.26458333,0,0,0.26458333,-1536.012,-972.91664)"/>
</svg>