<?xml version="1.0" ?><svg height="822.587" viewBox="0 0 172.894 217.643" width="653.456" xmlns="http://www.w3.org/2000/svg">
    <path d="M81.004 216.571c3.21.665-66.302-124.413-77.445-129.922-4.43-2.19 4.972-6.606 4.972-6.606s27.421-19.574 55.385-22.02c27.964-2.448 48.068-31.614 53.35-43.044 5.282-11.43 2.72-14.261 10.099-2.796 7.38 11.465 43.033 64.105 43.033 64.105s-9.206 65.711-71.618 67.705c-34.716 1.108-40.626 11.534-40.626 11.534s27.653 50.718 28.78 52.92c1.126 2.202-2.653 10.167-5.93 8.124z" fill="#FFFFFF"/>
    <path d="M66.413 194.398c-6.344-12.745-12.79-25.203-14.323-27.685-1.534-2.48-5.669-10.026-9.188-16.766-3.52-6.74-9.702-16.797-13.74-22.348-4.036-5.551-10.539-14.959-14.45-20.906-3.912-5.948-8.614-12.111-10.447-13.697-6.807-5.889-5.148-15.14 2.716-15.14 1.694 0 5.378-2.167 8.187-4.816 6.561-6.188 16.277-10.179 34.09-14.003 40.566-8.707 63.451-26.56 66.444-51.83C116.443.952 116.984 0 119.795 0c2.486 0 4.695 2.434 9.492 10.453 3.439 5.75 7.5 12.94 9.024 15.978 1.526 3.04 3.977 6.277 5.447 7.196 1.47.918 2.675 2.582 2.675 3.697 0 1.116 2.145 4.69 4.769 7.944 2.624 3.254 6.162 8.187 7.864 10.962 1.701 2.775 4.908 6.973 7.125 9.327 7.332 7.787 7.87 9.957 5.315 21.449-4.98 22.404-19.14 39.695-41.667 50.877-13.018 6.463-13.77 6.647-32.609 7.974-10.606.747-20.58 1.895-22.166 2.551-12.786 5.29-15.139 6.414-15.139 7.225 0 .893 5.332 10.357 21.98 39.01 4.378 7.533 7.672 14.183 7.322 14.778-1.405 2.386-5.96.928-6.755-2.163-1.116-4.349-20.634-38.719-23.539-41.452-1.264-1.19 3.633 9.293 10.882 23.294 7.247 14.001 13.179 26.166 13.179 27.034 0 .867-1.136 1.546-2.523 1.507-1.797-.049-5.85-6.752-14.058-23.243zm-10.774-42.59c1.96-1.355 4.367-3.246 5.346-4.202 2.78-2.71 15.43-5.076 33.543-6.274 10.98-.726 19.135-2.087 24.143-4.03 23.66-9.177 41.966-27.428 46.975-46.83 2.594-10.05.975-10.843-2.934-1.437-3.541 8.52-19.134 26.479-27.876 32.104-9.75 6.274-17.243 8.434-35.045 10.102-8.843.83-18.672 2.15-21.843 2.936-9.656 2.391-21.97 8.763-23.898 12.365-1.002 1.872-2.665 3.405-3.696 3.405-1.072 0-1.52.924-1.044 2.162 1.06 2.762 1.96 2.719 6.329-.301zm-6.775-8.225c.43-1.12 5.528-4.366 11.328-7.211 8.26-4.053 13.984-5.648 26.406-7.36 37.48-5.166 41.504-6.737 57.232-22.34 8.805-8.734 12.156-13.335 16.24-22.297 4.847-10.635 5.005-11.448 2.733-13.959-2.308-2.55-2.657-2.258-8.037 6.724-6.871 11.475-19.164 24.976-28.17 30.941-8.593 5.692-17.452 8.31-36.9 10.908-19.209 2.565-25.916 4.317-33.463 8.739-8.955 5.245-12.695 9.83-11.597 14.209 1.017 4.05 3.008 4.825 4.228 1.646zm9.619-21.587c5.03-2.272 15.172-4.674 27.739-6.573 10.896-1.646 23.353-4.318 27.682-5.937 13.463-5.037 29.373-20.37 38.172-36.788 3.429-6.398 3.88-13.28 1.119-17.057-1.724-2.358-2.078-2.101-4.089 2.969-2.961 7.459-18.32 27.56-25.224 33.013-13.692 10.812-26.475 15.773-44 17.074-16.935 1.258-32.473 8.004-39.126 16.987-1.612 2.176-2.46 4.877-1.949 6.207.772 2.014 1.69 1.726 6.324-1.98 2.983-2.385 8.99-5.946 13.352-7.915zm-17.56-3.636c10.178-8.5 20.617-11.951 41.35-13.669 17.388-1.44 32.413-9.373 46.204-24.393 11.696-12.738 15.911-19.854 17.036-28.754 1.142-9.051-1.439-9.05-6.556 0-5.3 9.377-20.058 26.458-27.04 31.297-8.212 5.691-22.791 10.62-40.555 13.712-8.461 1.472-17.902 3.993-20.98 5.602-9.525 4.978-20.614 17.093-18.612 20.333 1.368 2.212 1.783 2.025 9.152-4.13zm-7.394-8.901c7.06-7.816 19.52-13.917 32.475-15.903 15.092-1.391 27.808-5.768 39.552-10.72 13.04-8.66 20.16-18.952 28.261-31.219 7.594-11.5 7.992-13.28 4.099-18.345l-2.686-3.493-2.536 4.935c-5.63 10.953-21.504 30.31-28.698 34.992C92.38 77.268 76.67 83.013 57.762 86.613c-12.074 2.3-17.87 4.96-24.27 11.139-7.414 7.161-10.35 12.802-8.085 15.532 2.293 2.762 2.08 2.863 8.122-3.825zm-3.67-13.58c5.463-5.154 10.733-9.375 11.71-9.38.977 0 3.46-.888 5.518-1.962 2.06-1.075 8.223-2.738 13.697-3.696 23.669-4.143 39.86-11.478 48.821-22.116 20.547-24.392 24.395-31.689 20.14-38.184-2.885-4.403-2.394-5.025-7.847 9.966-6.043 16.61-31.672 35.622-54.043 40.088-17.78 3.55-21.435 4.598-28.489 8.172-12.694 6.433-23.874 18.852-21.81 24.23.476 1.24 1.203 2.254 1.617 2.254.414 0 5.222-4.217 10.686-9.372zm-10.223-7.13c10.903-11.828 19.647-15.965 46.056-21.785 13.896-3.063 27.749-10.333 38.872-20.4 9.225-8.346 12.903-14.077 16.007-24.937 1.021-3.569 2.4-7.213 3.062-8.1.706-.94.397-2.283-.74-3.227-1.57-1.303-2.407.031-4.304 6.854-2.837 10.204-9.069 18.722-20.338 27.8-10.337 8.328-25.596 14.552-45.535 18.574-23.553 4.75-33.323 9.89-39.798 20.94-3.052 5.207-3.428 6.824-1.99 8.556.974 1.174 2.002 2.134 2.284 2.134.284 0 3.174-2.883 6.424-6.408z" fill="#00B894"/>
</svg>