<?xml version="1.0" ?><svg height="91.946922mm" viewBox="0 0 131.63303 91.946922" width="131.63303mm" xmlns="http://www.w3.org/2000/svg">
    <path d="m -1037.6192,2858.8947 124.29568,1.6071 -0.53705,84.3862 -123.11583,1.1374 z" fill="#FFFFFF" paint-order="markers stroke fill" transform="translate(-38.27809,-117.19068) translate(1078.3675,-2739.569)"/>
    <path d="m -1037.09,2856.778 c -1.4822,0.1008 -2.6223,0.6445 -2.6319,2.2685 -0.039,0.8882 -0.2451,3.9712 -0.2434,9.166 0,6.3511 -0.2858,14.2907 0.01,25.3767 0.2371,8.8763 0.4279,23.7593 0.4279,33.0729 0,17.2191 0.1284,19.7078 1.1105,20.9492 0.7717,0.979 28.5184,1.4171 52.60091,0.8313 10.2776,-0.25 27.47136,-0.3241 38.21006,-0.1653 26.69958,0.3963 35.35434,-0.1609 37.42666,-2.408 0.84127,-0.9128 0.95975,-2.7858 1.05162,-16.7029 0.15486,-23.345 -0.0175,-36.9858 -0.63355,-49.58 -0.67503,-13.8488 -0.54038,-17.5268 0.68368,-18.7193 0.7914,-0.771 0.81127,-1.0379 0.14677,-1.9698 -0.67636,-0.9488 -1.66653,-1.1173 -8.26979,-1.4068 -4.12626,-0.1807 -17.07213,-0.2254 -28.76672,-0.098 -38.98212,0.4233 -88.15584,-0.4842 -89.55574,-0.5911 -0.5409,-0.041 -1.0728,-0.057 -1.5669,-0.024 z m 1.5849,6.7897 c 8.9949,13.3025 23.3563,32.2501 28.8933,41.1655 4.6219,7.4414 12.63117,18.1692 15.65176,23.0767 3.3219,5.397 7.46316,11.6067 8.79171,13.5731 0.45,0.6662 0.89792,1.3624 1.34257,2.0177 -6.79278,0.204 -17.92668,0.4181 -26.93784,0.5038 -10.2783,0.098 -20.5378,0.436 -22.81,0.462 -4.7536,0.054 -3.9084,-0.1808 -3.9316,-2.8231 l -0.1101,-12.5281 c 0.044,-8.6 0.035,-17.9697 -0.022,-20.8219 0,0 -0.2107,-6.9083 -0.5715,-18.9373 -0.203,-6.7474 -0.3487,-16.089 -0.3225,-20.7589 z m 121.34503,3.6045 -0.0408,0.4021 c -0.31279,3.0702 -0.4046,10.5453 -0.20462,16.6108 0,0 0.32512,13.1115 0.25683,25.3535 -0.0604,7.8792 -0.0818,18.543 -0.0512,23.6963 0.035,6.087 -0.15394,9.5562 -0.54415,9.9047 -0.37668,0.3363 -10.20971,0.3929 -26.3648,0.1505 -11.25633,-0.169 -23.95299,-0.195 -31.79445,-0.085 2.40776,-3.3229 6.0987,-9.1234 11.44323,-16.4275 17.35677,-23.7204 33.91188,-44.572 47.29996,-59.605 z m -53.7192,5.3207 c -0.86598,4.1021 1.94463,1.7299 3.09253,0.5636 1.39081,-1.4166 3.32179,-2.0632 4.05389,-1.7767 1.47426,0.5763 0.0616,2.6458 -1.37364,4.5784 -1.98569,2.6746 -1.35606,4.4103 1.56478,3.1665 5.01388,-2.1336 6.42479,0.062 1.82089,2.9594 -3.51865,2.1547 -2.62758,3.6337 0.65251,3.1967 4.78282,-0.6533 4.43175,2.8963 -0.19293,3.7774 h -5.91386 c -7.32195,0.076 -11.15497,-0.058 -20.81991,0 l -6.27766,-0.079 c -1.06886,-0.013 -2.03142,-0.2223 -2.41173,-0.4143 -1.40171,-0.7089 -2.68415,-1.713 -2.84943,-2.231 -0.3838,-1.2036 3.03548,-1.0411 6.56929,-1.0652 5.38133,0.323 2.53875,-2.1061 -0.0101,-3.4655 -3.64781,-1.9458 -4.98215,-2.9094 -2.88824,-4.2543 0.7951,-0.5106 2.08198,-0.1129 4.44399,0.6795 3.7428,1.2546 5.49109,0.1868 2.57853,-1.7571 -2.09254,-1.3965 -3.92907,-3.7669 -2.85534,-4.8601 0.7561,-0.7702 5.89249,1.598 6.80128,3.0958 0.25641,0.4226 1.36422,0.829 1.95011,0.829 0.9013,0 0.87884,-0.4749 -0.14364,-3.0792 -2.17244,-5.5296 1.23166,-6.172 4.56766,-0.8621 2.1636,3.5793 3.01098,2.6149 3.88093,-0.296 0.47742,-1.6232 1.62084,-3.5722 2.22433,-3.8082 2.07301,-0.6381 1.62142,4.4038 1.53561,5.1025 z m -41.79233,20.1205 21.39978,0.1733 c 11.90382,0.097 28.77622,-0.1955 35.06195,0.081 l 11.42876,0.5029 -5.46841,6.6043 -4.93046,6.5887 h -23.32 c -12.82592,0 -22.75732,-0.2337 -23.30194,-0.029 -1.49168,0.5585 -2.49848,-0.9099 -6.59858,-7.547 z m 13.11655,17.3845 c 2.88727,-0.037 9.92624,0.2878 19.94194,0.2243 2.15984,-0.013 4.1054,-0.024 5.85493,-0.028 12.24685,-0.032 15.24802,-0.1897 14.96862,0.5521 -0.21227,0.5639 -3.98232,5.9669 -7.97729,11.5158 -3.99518,5.5491 -8.67241,11.8766 -10.39471,14.061 -3.60905,5.7086 -3.99974,2.7374 -7.25488,-1.8934 -2.26777,-3.2258 -6.80029,-9.6141 -10.07224,-14.1965 -3.27197,-4.582 -6.50507,-9.6321 -6.52621,-10.0491 -0.004,-0.1209 0.49742,-0.1738 1.45984,-0.1865 z" fill="#00B894" transform="translate(-38.27809,-117.19068) translate(1078.3675,-2739.569)"/>
</svg>