<?xml version="1.0" ?><svg height="89.456879mm" viewBox="0 0 133.65187 89.456879" width="133.65187mm" xmlns="http://www.w3.org/2000/svg">
    <path d="m 152.48073,-833.72883 -0.53257,0.70047 2.38574,83.4541 124.4702,-0.37718 -1.78595,-82.28891 z" fill="#FFFFFF" transform="translate(-194.23665,-43.66933) translate(46.25733,879.37309)"/>
    <path d="m 6853.5176,517.70508 c -0.3831,-0.015 -0.7594,9.7e-4 -1.1192,0.0527 l -36.25,0.63086 c -56.6857,0.98808 -249.6846,-0.86966 -310.2324,-0.6289 -96.8437,0.38468 -132.2221,-0.1424 -134.7051,2.00195 -2.9583,2.55311 -6.4306,17.12168 -6.5175,57.41016 -0.061,26.88826 1.5249,59.39755 3.0781,87.48046 3.4058,61.65706 4.3306,83.64721 4.0312,128.81446 -0.3116,47.20274 0.8503,54.01385 9.795,57.37109 3.7749,1.41562 35.3053,2.90077 81.9511,3.85938 41.699,0.85715 89.2757,1.31458 105.7285,1.01562 16.4547,-0.29896 81.1523,-1.05281 143.7774,-1.67383 62.6251,-0.62105 119.5464,-1.78665 126.4922,-2.58984 12.3557,-1.464 26.7575,-4.45907 27.3164,-19.95899 l 2.2949,-63.71484 c 3.3449,-92.90876 -6.6861,-228.52174 -9.6602,-246.68555 -0.2696,-1.64706 -3.2991,-3.2795 -5.9804,-3.38476 z m -198.502,18.10351 c 23.8701,-0.12362 48.0138,-0.13309 70.9004,0.0274 l 96.461,0.67578 c 14.2423,0.0998 21.4255,2.01299 21.4765,22.49023 1.0591,13.03671 2.3606,98.40255 2.7832,113.19727 0.6286,19.78303 1.3373,39.79918 1.5742,44.48047 -0.5432,11.2629 0.2484,28.77713 -1.2851,67.1289 -0.996,24.94481 -1.9978,40.98989 -2.6211,44.39649 -0.5711,3.12642 -3.7819,6.58292 -11.0254,5.83008 l -201.9102,1.35156 c -114.6721,0.74389 -216.1805,1.91307 -225.5761,2.59766 l -17.084,1.24414 2.1543,-15.9961 c 1.1823,-8.79859 2.0204,-29.52675 2.4922,-44.1875 0.5517,-17.89388 0.3484,-33.29594 -2.459,-97.93945 -1.0109,-41.10183 -3.8496,-65.1405 -4.6621,-106.02344 -0.6026,-30.31995 2.0064,-37.61034 21.4629,-37.73242 11.0672,-0.0692 47.5819,2.26237 81.1406,1.10156 25.4132,-0.87884 94.5676,-2.2717 166.1777,-2.64258 z m -160.8847,33.45508 c -11.1969,0.0473 -17.9393,10.19924 -16.7657,20.49024 1.3022,10.11688 1.4101,9.97178 -6.2636,8.42187 -16.1601,-3.26389 -27.437,18.42825 -14.5176,30.30274 9.7377,8.95026 23.5606,13.58824 32.7695,7.58007 4.9428,-2.92792 12.078,-0.35395 16.8418,2.06446 3.1518,1.61903 6.1185,2.89322 6.5938,2.83203 3.9955,1.73386 20.7706,5.12449 23.3125,0.38867 0.7686,-1.69587 -3.3645,-6.43435 -6.961,-7.97852 -4.598,-3.38823 -9.7212,-5.58854 -15.041,-7.48828 -3.0351,-1.0738 -8.0888,-3.77873 -11.2285,-6.01172 -7.1111,-5.05738 -9.0041,-4.82136 -13.9844,1.75196 -5.3595,7.07387 -12.7376,6.74599 -19.2832,-0.85547 -5.5876,-6.48903 -2.0336,-14.50592 4.834,-10.9043 10.0315,5.26084 17.0939,-1.48382 15.0215,-14.3457 -1.7824,-11.06188 -0.982,-12.86866 5.2988,-11.97461 6.4825,0.92285 8.8565,5.46568 6.8067,13.02148 -2.474,9.11917 0.8093,16.95676 9.0957,21.72071 2.0586,1.18344 5.5657,3.34822 7.7949,4.80859 5.2829,3.67809 11.6983,4.82537 16.9531,8.4668 5.0244,3.56489 9.6175,2.08106 11.8828,-2.15821 2.0175,-3.77521 1.3845,-8.65246 -6.123,-11.62109 -1.3973,-0.55253 -8.0342,-2.002 -11.3418,-4.0957 -1.2427,-0.78664 -4.8959,-3.00647 -8.1192,-4.93164 -6.6025,-4.10427 -7.882,-12.67113 -5.3047,-19.69141 1.8181,-4.95235 -9.1396,-17.18558 -17.2089,-19.16602 -1.7713,-0.43472 -3.463,-0.63371 -5.0625,-0.62695 z m 247.1679,0.79492 c -0.9877,-0.0251 -1.9934,0.0292 -3.0097,0.17188 -12.1733,1.70899 -24.3271,14.1562 -23.8262,28.50586 0.2634,7.55153 -0.3984,9.22007 -4.8457,12.23633 -14.2382,9.65654 -19.5301,22.50386 -16.7402,25.72265 3.5094,4.04897 6.8777,2.60588 18.3945,-7.88476 5.9019,-5.37604 11.7489,-10.31708 12.9922,-10.98243 3.9474,-2.11222 4.1367,-2.97829 4.8554,-22.0039 0.203,-5.37147 5.8999,-9.90942 12.502,-9.96094 4.9124,-0.0382 3.4791,7.92331 -2.8516,15.85352 -5.1866,6.49719 -6.1262,9.83998 -3.3711,11.96679 2.0886,1.61212 3.6275,4.48559 13.1739,3.67579 14.0265,-1.18988 12.3795,25.69889 3.2226,19.57617 -9.9774,-7.92299 -24.1906,-3.10975 -32.1504,3.26953 -3.9061,3.24865 -8.2464,6.77275 -9.6445,7.83008 -12.1257,9.17 -12.155,12.19211 -7.9316,16.59375 19.2666,9.72899 29.9458,-23.19414 45.4746,-17.48047 13.3145,5.63886 27.0487,2.25736 31.2929,-9.58594 2.8323,-7.97964 -8.5014,-29.38657 -16.5254,-31.54102 -7.8371,-2.10436 -8.3527,-2.6491 -5.496,-5.80078 10.3085,-11.37306 -0.7005,-29.78595 -15.5157,-30.16211 z m -125.2461,37.14063 c -15.7785,0.14751 -30.9426,3.18064 -44.0918,8.4375 -18.947,7.54643 -34.8727,27.33584 -32.9375,39.54492 2.6661,16.81981 9.5099,25.34287 29.2871,36.46484 8.9196,5.016 13.8791,4.68372 11.8731,17.57618 -2.8757,18.48049 -3.1502,22.33724 -2.207,31.05468 1.4254,13.17498 3.4907,16.97667 15.3964,17.16602 11.9273,0.18973 16.5522,1.63122 24.504,-1.92188 2.5716,-1.0385 -1.158,-12.95702 -4.1075,-14.4375 -3.3241,-1.66851 -2.8673,-7.92333 0.6114,-8.37109 2.1629,-0.27855 2.4745,0.17997 3.123,4.60156 1.9459,13.26871 0.6132,16.58795 15.2676,15.61914 7.181,-0.47489 7.7359,-0.16887 14.625,-0.95898 15.5112,-2.57091 19.7157,-5.60848 17.832,-18.61523 -1.9563,-13.23757 -1.7449,-17.13876 1.1445,-21.18165 2.0989,-2.93684 18.8279,-18.7379 19.9141,-19.86132 16.4949,-17.06064 9.8162,-33.1501 4.0488,-45.77149 -5.1122,-11.17372 -18.6176,-25.19271 -32.0429,-32.54101 -13.9179,-4.81936 -28.318,-6.93485 -42.2403,-6.80469 z m 3,12.79687 c 7.808,-0.15367 15.372,1.09422 25.5157,4.06836 18.4252,5.40235 38.5742,36.35768 32.9961,50.68946 -0.6644,1.70679 -1.5342,4.1423 -1.9336,5.41211 -0.809,2.57253 -6.4086,9.05621 -12.3711,14.32226 -8.9113,7.87034 -13.2067,12.9355 -14.4414,17.0293 -1.5831,5.24893 -3.3151,5.74455 -3.9102,1.12109 -0.5346,-4.15336 -4.5934,-7.49227 -8.4941,-6.99023 -2.9833,0.38385 -3.3529,1.24376 -3.4961,8.11328 -0.082,3.92806 -0.5292,4.92528 -2.502,5.57226 -3.2606,1.06935 -3.3823,0.8709 -3.7363,-6.11718 -0.356,-7.01586 -3.1005,-10.13062 -8.334,-9.45703 -4.177,0.53763 -4.2405,0.81685 -3.168,13.71679 0.6015,7.23519 -3.4006,7.77381 -4.3574,0.58594 -1.6312,-12.25603 -9.9844,-13.34847 -10.6953,-1.39844 -0.1848,3.10874 -0.307,4.11188 -0.3281,4.34375 -0.3228,3.51534 -5.0557,0.84826 -7.0742,0.26953 -2.9297,-0.83981 -2.4066,-7.71853 -0.7852,-10.3789 0.8169,-1.34049 1.1724,-5.17344 1.1563,-12.48633 -0.015,-7.3765 -5.0276,-13.19305 -14.1387,-16.41211 -12.6303,-4.46249 -24.6007,-20.86897 -23.916,-32.77539 0.3975,-6.91317 15.3255,-19.57628 26.6836,-22.37109 16.8489,-4.14591 27.2912,-6.65985 37.33,-6.85743 z m -29.8066,20.31641 c -1.405,-0.0394 -2.7667,0.0126 -4.0469,0.16406 -3.4139,0.40373 -6.2491,1.51572 -7.7793,3.49805 -4.7926,6.20863 2.56,18.60338 13.0176,21.94531 8.6572,2.76658 22.7604,-6.56621 21.5723,-14.27539 -0.9725,-6.30979 -12.9287,-11.05607 -22.7637,-11.33203 z m 51.8516,3.14453 c -0.8146,0.004 -1.6389,0.0657 -2.4668,0.19141 -1.3704,0.20787 -2.7503,0.58954 -4.1192,1.16992 -10.2282,4.33652 -7.9875,15.93011 4.1778,21.61523 6.5301,3.05125 9.3296,2.67547 15.0234,-2.01171 9.72,-8.00161 -0.3974,-21.02487 -12.6152,-20.96485 z m -22.1368,23.15625 c -0.246,0.006 -0.4928,0.0231 -0.7402,0.0508 -5.8452,0.65401 -6.4714,4.64585 -9.7949,10.29492 -5.5591,9.44894 1.205,13.50646 10.6426,14.98047 8.5744,1.33917 19.325,-4.81315 17.0996,-9.78515 -2.635,-5.88694 -9.5791,-15.73635 -17.2071,-15.54102 z m 74.3438,40.6875 c -0.151,0.009 -0.2972,0.0299 -0.4414,0.0625 -13.1999,2.98148 -15.0097,7.29068 -5.084,15.37305 2.4053,1.91459 6.2436,6.2021 8.5293,9.52929 5.8859,8.56797 10.04,12.07401 17.4629,14.74024 7.3445,3.21369 16.2217,7.56471 22.7363,1.86719 5.9123,-5.35023 11.1376,-3.38541 12.8438,4.83007 1.3575,6.53715 0.051,7.99884 -8.4239,9.42383 -11.5918,1.94903 -18.691,7.20796 -18.4082,13.63867 0.1433,3.25913 -3.5442,11.74418 -6.1289,14.09961 -8.2831,7.54825 -9.314,-6.39973 -1.2246,-16.56835 4.6552,-5.85173 1.2645,-11.71012 -14.2363,-24.58399 -5.4278,-5.29689 -11.0776,-10.85625 -16.0176,-16.10937 -3.1462,-3.37391 -4.2838,-3.92493 -7.2969,-3.53711 -6.5086,0.83773 -9.6112,10.65139 0.2442,19.67773 19.6886,18.03148 23.2252,22.23779 20.7265,24.65234 -8.9753,8.67326 -3.553,32.95929 7.3008,36.4004 8.9373,2.83351 29.9279,1.00848 29.5645,-23.35352 -0.086,-5.76835 3.781,-9.64 11.4238,-9.91016 14.6736,-0.5187 24.5914,-12.98877 18.2676,-27.18554 -5.183,-11.63596 -26.2674,-23.07626 -34.5528,-14.1836 -3.1358,3.36563 -18.4445,-4.06918 -21.1699,-10.28125 -3.6194,-8.24983 -11.4344,-18.87387 -16.1152,-18.58203 z m -134.916,2.96289 c -4.625,0.13468 -7.9408,3.87538 -10.3399,7.21289 -11.7207,16.35379 -15.5123,20.91778 -16.8691,20.30274 -7.604,-3.44663 -35.6501,0.8986 -45.6563,23.96679 -5.3689,12.37743 11.3929,29.0623 22.7461,22.73243 4.9293,-2.74829 4.6568,-2.86295 5.3164,2.26171 0.9334,7.25178 4.4043,13.23156 8.5098,14.65625 11.6724,4.0506 33.1185,-12.53602 29.8066,-25.44726 -0.7553,-2.94448 -0.9907,-5.40552 -0.5234,-5.47461 7.3704,-6.94825 13.9953,-16.52221 20.9902,-22.80469 4.1621,-3.71743 2.8656,-11.92341 0.6661,-13.26953 -3.033,-1.8562 -8.0165,-1.44432 -9.7266,0.80469 -8.1718,6.79536 -16.46,22.53256 -23.4141,25.39453 -3.7107,1.52716 -4.5615,5.46853 -1.7656,15.04687 1.2765,4.37277 1.1836,4.82625 -1.6348,7.89258 -4.3234,4.70378 -5.1847,3.94859 -7.2636,-6.375 -2.4281,-12.05737 -3.5794,-14.67628 -6.795,-15.44726 -3.5708,-0.85607 -7.6412,-1.11869 -9.5097,3.48047 -1.8319,4.50909 -7.2056,7.8625 -9.1504,3.83398 -4.6074,-9.54391 18.8464,-23.68761 32.3848,-19.5293 5.442,1.67157 8.4266,0.33675 11.6289,-5.20117 4.4981,-7.00055 8.0234,-14.05336 12.9765,-20.51953 3.9056,-5.05822 6.8169,-11.18836 -0.3125,-13.34375 -0.7152,-0.13962 -1.4037,-0.19307 -2.0644,-0.17383 z m 88.2148,12.42383 c 1.113,-0.0718 2.0752,2.87988 2.8242,8.69922 0.7305,5.67522 0.1418,8.1746 -1.6074,6.82422 -1.1521,-0.88925 -2.6673,-14.52484 -1.7012,-15.3086 0.1652,-0.13379 0.3252,-0.20464 0.4844,-0.21484 z m -16.2988,4.77344 c 1.7968,-0.10658 4.0258,2.19972 4.9082,6.7832 1.0886,5.65364 1.0893,5.65511 -3.3633,6.55664 -3.9977,0.80942 -4.4129,0.68707 -4.0742,-1.18164 0.2075,-1.14482 0.2174,-3.82486 0.025,-5.95508 -0.3421,-3.77212 0.7141,-5.79443 2.1504,-6.15039 0.1154,-0.0286 0.2337,-0.0456 0.3535,-0.0527 z m -40.2637,3.11914 c 0.7253,-0.0831 1.7947,0.22966 3.3047,0.76953 2.2207,0.79415 4.6387,1.36605 5.3731,1.27148 1.3801,-0.17763 2.2775,3.78464 1.746,7.71289 -0.7983,5.90125 -10.4091,4.4683 -11.1992,-1.66992 -0.7472,-5.80494 -0.8205,-7.90143 0.7754,-8.08398 z" fill="#00B894" transform="translate(-194.23665,-43.66933) translate(46.25733,879.37309) matrix(0.26458333,0,0,0.26458333,-1536.012,-972.67847)"/>
</svg>