<?xml version="1.0" ?><svg height="96.243111mm" viewBox="0 0 128.58533 96.243111" width="128.58533mm" xmlns="http://www.w3.org/2000/svg">
    <path d="m -691.87262,1367.2709 123.9696,1.0047 -1.84825,90.1389 -121.96919,-0.8674 z" fill="#FFFFFF" paint-order="markers stroke fill" transform="translate(42.399757,-37.797776) translate(651.5081,-1326.4471)"/>
    <path d="m 14407.156,-6385.2368 c -2.144,-2.8735 -2.133,-16.5607 -1.578,-73.3548 0.296,-30.2876 0.343,-55.4198 0.109,-55.8495 -1.242,-2.2253 -0.84,-71.7897 -1.103,-75.9797 -0.104,-1.6631 0.639,-4.2962 5.853,-4.8018 l 48.974,0.3172 c 28.634,0.1855 60.546,0.2003 70.918,-0.4235 29.954,-1.8014 99.61,-3.5834 121.278,-3.1026 31.982,0.7083 51.097,5.2639 46.106,10.985 -1.685,1.9323 -1.657,25.0771 0.08,58.6972 0.461,8.974 0.03,36.9838 -0.945,62.2441 -2.174,55.9798 0.728,77.2998 0.652,79.9313 -0.09,3.0551 -0.869,6.2961 -3.396,6.6122 -6.666,0.834 -12.289,1.9714 -36.124,1.1797 -10.335,-0.3434 -57.872,-0.5658 -105.638,-0.4943 -96.385,0.1444 -136.476,-0.4341 -139.258,-1.854 -1.953,-0.9966 -2.644,0.2966 -5.928,-4.1065 z m 39.238,-5.4909 c 51.866,-2.3204 192.222,0.3627 222.394,1.1803 14.833,0.4019 15.337,4.3106 15.703,-34.9588 0.512,-26.7333 0.742,-61.1821 0.264,-61.6868 -0.479,-0.5048 -23.869,-1.0892 -51.98,-1.2989 -56.399,-0.4208 -58.244,-0.1695 -52.653,7.1621 3.487,4.5709 3.384,7.7388 -0.344,10.811 -2.039,1.6785 -4.077,2.1053 -6.706,1.404 -2.117,-0.5647 -4.654,-0.3442 -5.775,0.5016 -1.46,1.1032 -2.784,1.0769 -4.923,-0.097 -3.176,-1.7449 -3.689,-3.6512 -1.336,-4.9707 1.723,-0.967 5.193,-6.7544 6.932,-11.5626 l 1.201,-3.3181 -13.941,0.6765 c -15.268,0.7409 -16.235,0.1582 -16.336,-0.5923 -0.351,-2.6104 15.856,-2.7904 25.236,-2.5826 3.074,0.068 5.245,-0.6841 5.834,-2.0209 1.226,-2.7842 -1.354,-18.3178 -3.946,-23.751 -2.48,-5.2023 -9.988,-13.5039 -12.256,-13.5541 -3.019,-0.067 -6.776,-5.5138 -5.118,-7.4177 0.834,-0.9559 2.016,-3.4762 2.628,-5.6006 0.631,-2.1887 2.687,-4.5084 4.745,-5.3526 5.3,-2.1755 9.843,2.2291 8.577,8.3181 -0.737,3.5455 -0.135,5.1427 3.159,8.3762 2.239,2.1975 4.096,3.3509 4.127,2.5632 0.03,-0.7876 1.794,-2.1464 3.923,-3.0194 3.232,-1.3268 4.297,-1.1897 6.481,0.8339 3.454,3.2012 3.173,6.1909 -1.116,11.88 -4.488,5.9514 -3.339,11.8835 2.455,12.6858 2.05,0.2838 4.931,2.192 6.404,4.2407 2.224,3.0906 2.367,4.2434 0.849,6.7708 -1.007,1.6753 -1.622,3.2466 -1.369,3.4917 0.254,0.2452 4.391,-0.073 9.191,-0.7055 4.801,-0.6333 26.316,-1.1921 47.812,-1.2417 l 39.082,-0.09 0.188,-10.468 c 0.108,-5.7574 0.593,-26.7331 1.086,-46.6125 l 0.898,-36.1446 -30.405,0.2594 c -16.722,0.1425 -51.928,1.0166 -78.233,1.9423 -83.914,2.9527 -117.098,3.2561 -140.444,1.2845 -11.902,-1.0052 -22.761,-2.2908 -24.131,-2.8569 -2.966,-1.2243 -3.261,1.2098 -1.693,13.948 0.567,4.6203 1.504,22.8627 2.08,40.5386 0.578,17.676 1.271,34.6562 1.542,37.7341 l 0.492,5.596 47.469,-0.3882 c 40.469,-0.3309 55.376,0.2716 55.305,2.0885 -0.06,1.8014 -15.241,3.0848 -54.686,2.8122 -25.203,-0.1742 -47.111,1.4865 -47.625,1.9545 -0.513,0.4677 -1.287,21.6485 -1.718,47.0682 l -0.214,40.5281 c -0.03,6.7317 2.575,4.7176 4.65,5.136 2.831,0.5708 14.682,-0.9764 26.245,-1.4937 z m 125.934,-51.4103 c -5.692,-5.2819 -11.227,-9.0143 -15.19,-10.2453 -16.176,-5.0227 -33.521,-22.0224 -36.114,-35.3954 -1.926,-9.9299 2.066,-11.3504 11.241,-4.0001 3.179,2.5471 13.268,11.5002 22.42,19.8958 21.769,19.9697 32.641,33.2097 30.19,36.766 -1.665,2.4144 -3.464,1.4077 -12.547,-7.021 z m -40.442,0.2398 c -1.145,-3.2813 -2.596,-4.4233 -6.548,-5.154 -2.793,-0.5164 -6.112,-1.2353 -7.379,-1.5976 -1.267,-0.3624 -3.162,0.2788 -4.213,1.4249 -4.434,4.8378 -8.999,1.2314 -9.846,-7.7779 -0.892,-9.5097 0.829,-10.7404 9.871,-7.0601 3.81,1.5508 12.253,3.3904 18.762,4.0881 11.231,1.2038 17.032,3.764 13.288,5.8647 -0.854,0.4787 -1.625,2.758 -1.715,5.0652 -0.238,6.124 -2.789,9.5382 -7.056,9.4436 -2.77,-0.062 -4.058,-1.1318 -5.164,-4.2969 z m -7.885,-72.7608 c 0.335,-1.7797 1.104,-5.0621 -2.634,-5.7753 -11.29,-2.1542 -3.867,-6.2617 0.714,-6.4136 2.875,-0.095 6.319,-1.7114 6.344,-3.7561 0.101,-8.4323 5.508,-7.5344 6.629,0.2485 0.423,2.939 3.631,3.8853 7.418,3.6915 4.617,-0.071 7.051,4.0134 2.106,5.6801 -1.679,0.566 -3.686,3.5607 -1.663,6.19 8.392,10.9061 -0.879,7.3558 -6.004,4.6324 -2.796,-1.4859 -3.951,-1.2383 -5.831,1.3071 -2.63,3.5611 -8.797,3.3127 -8.151,-0.1141 z" fill="#00B894" transform="translate(42.399757,-37.797776) translate(651.5081,-1326.4471) matrix(0.43747544,0,0,0.43747544,-6995.5557,4250.9314)"/>
</svg>