<?xml version="1.0" ?><svg height="92.430199mm" viewBox="0 0 131.3438 92.430199" width="131.3438mm" xmlns="http://www.w3.org/2000/svg">
    <path d="m -395.72868,1582.6815 122.91396,-1.0392 0.99891,84.2191 -124.79652,1.186 z" fill="#FFFFFF" paint-order="markers stroke fill" transform="translate(95.00013,4.0816283) translate(304.27144,-1582.2908)"/>
    <path d="m 4691.6152,9642.0605 c -26.5185,0.093 -59.0657,0.8192 -97.1054,2.1875 -92.8132,3.3394 -152.1855,4.1805 -238.5254,3.3809 -26.0716,-0.2414 -49.3269,0.4813 -51.6797,1.6055 -4.0609,1.9408 -4.3936,4.6684 -6.6406,54.2031 -1.303,28.6877 -1.7141,82.5073 -0.9121,119.5996 0.8035,37.0925 1.0774,86.814 0.5996,110.4902 -0.4713,23.6765 0.044,45.2175 1.1464,47.8711 1.1029,2.6537 4.0451,5.9335 6.5352,7.2871 6.6469,3.612 12.5751,3.6114 72.1191,-0.016 84.4054,-5.1414 216.719,-7.3381 334.5489,-5.5527 48.0691,0.7283 72.161,0.2814 75.6679,-1.4063 5.4184,-2.6061 7.1091,-7.6336 3.4219,-10.1757 -1.1987,-0.8286 -1.4687,-3.3121 -0.5957,-5.5176 2.462,-6.2183 -2.6109,-117.2019 -8.4492,-184.7813 -0.9474,-10.9731 -1.0826,-42.5725 -0.2988,-70.2207 0.7837,-27.6481 0.7058,-52.658 -0.1739,-55.5761 -0.9821,-3.2638 -4.7421,-6.5732 -9.7636,-8.6016 -8.2435,-3.3283 -35.697,-4.9329 -79.8946,-4.7774 z m 29.1289,16.1426 12.8379,1.1758 12.8418,1.1738 -47.1035,26.7559 c -25.9079,14.7152 -64.2212,36.6659 -85.1406,48.7812 -20.9195,12.1154 -66.4605,37.1581 -101.2012,55.6504 -80.7066,42.9605 -182.085,101.2142 -188.9551,108.5782 -4.7867,5.1286 -6.8945,3.6139 -6.291,-4.5196 0.5523,-7.4433 1.0759,-7.8246 30.8926,-22.3965 32.5416,-15.904 154.7341,-82.0811 183.3008,-99.2734 9.5321,-5.7356 32.9636,-20.4463 52.0742,-32.6894 19.1089,-12.243 57.6914,-35.9798 85.7422,-52.7481 z m -24.2187,2.377 c 1.3076,0.023 2.0708,0.08 2.1543,0.1738 0.334,0.3743 -6.409,4.45 -14.9805,9.0566 -8.5731,4.6067 -33.7956,19.6531 -56.0527,33.4375 -97.4974,60.3829 -156.015,94.3256 -267.0078,154.8731 h 0.01 c -23.3847,12.7562 -42.6108,23.1855 -42.7265,23.1855 -1.1326,-0.044 -3.8155,-125.1307 -3.3145,-154.7812 0.3489,-21.2505 0.2998,-44.2481 -0.1152,-51.1055 l -0.7559,-12.4668 88.2305,2.2813 c 81.3035,2.1033 171.4078,0.7759 271.7871,-4.0039 10.0336,-0.4782 18.8526,-0.7183 22.7754,-0.6504 z m 71.7637,4.4453 c 0.3951,0.456 -0.9528,14.5741 -2.9981,31.375 l -3.7168,30.5469 -13.793,7.498 c -15.5457,8.4505 -44.4166,23.2349 -130.7167,66.9356 -54.5292,27.6111 -152.0175,81.6007 -235.4903,130.416 -18.2078,10.648 -40.7741,24.4582 -50.1426,30.6894 l -17.039,11.3301 1.5488,-29.9414 c 1.5427,-29.7738 1.5822,-29.9631 7.3379,-33.5938 10.1654,-6.4155 140.2986,-77.1894 172.4219,-93.7734 17.0322,-8.794 41.8078,-21.5966 55.0586,-28.4512 29.8051,-15.4215 102.6117,-56.6464 167.6601,-94.9336 27.0306,-15.9101 49.4723,-28.5535 49.8692,-28.0976 z m -7.6426,76.5664 c 0.8478,0.2017 0.8431,1.3855 0.6992,3.3242 -0.2596,3.5205 -2.0227,5.8265 -5.0898,6.6621 -2.5811,0.7026 -25.6552,13.9541 -51.2754,29.4492 -84.8998,51.3501 -92.5099,55.8057 -127.3828,74.5274 -19.0412,10.2231 -54.1047,28.4853 -77.9161,40.584 -49.6217,25.2123 -107.9884,59.7962 -122.7207,72.7168 -1.5526,1.3656 -9.6136,2.9097 -17.9023,3.4336 -8.2921,0.5238 -17.5832,1.3121 -20.6504,1.7519 -7.5397,1.0815 -13.8242,4.771 108.4121,-63.6289 108.2217,-60.5573 138.809,-76.9321 231.9512,-124.1738 28.3203,-14.3639 58.5749,-30.7504 67.2324,-36.4121 9.4495,-6.1785 13.2296,-8.5706 14.6426,-8.2344 z m 0.3183,15.8672 c 0.1554,-0.033 0.2588,-0.023 0.3028,0.037 0.8945,1.2082 6.2548,100.8731 8.0273,149.1836 0.8053,21.9036 1.7584,44.0619 2.1172,49.2402 l 0.6524,9.4141 -36.0411,-1.3789 c -80.6073,-3.0864 -284.6193,-0.1973 -333.2324,4.7187 -16.4105,1.6591 -18.8934,1.7363 -17.5078,0.545 1.3839,-1.1935 46.7981,-28.1086 62.7109,-37.168 7.2951,-4.1532 29.173,-15.3571 48.6192,-24.8965 38.5022,-18.8884 117.0352,-60.704 148.2441,-78.9336 65.9214,-38.507 99.797,-58.9979 107.2656,-64.8887 4.0915,-3.2276 7.7543,-5.641 8.8418,-5.873 z" fill="#00B894" transform="translate(95.00013,4.0816283) translate(304.27144,-1582.2908) matrix(0.43747544,0,0,0.43747544,-6843.9278,4463.5794) matrix(0.60479586,0,0,0.60479586,12133.06,-12426.974)"/>
</svg>