<?xml version="1.0" ?><svg height="91.892639mm" viewBox="0 0 131.93094 91.892639" width="131.93094mm" xmlns="http://www.w3.org/2000/svg">
    <path d="m -956.08905,3870.1474 c -2.08099,34.2108 -0.8443,68.8146 -0.98767,86.0806 30.32641,1.2307 98.45445,-0.8504 124.60641,-0.6102 l 0.11156,-83.5199 z" fill="#FFFFFF" transform="translate(32.91955,-155.63361) translate(927.04978,-3711.9253)"/>
    <path d="m 2191.0156,18293.812 c -5.0876,0.118 -12.2742,3.258 -12.4511,6.43 -0.083,1.574 0.6873,2.875 1.7207,2.893 1.035,0 0.5598,15.665 -1.0606,34.767 -2.0222,23.859 -2.5318,53.774 -1.6191,95.549 0.7324,33.449 1.1864,89.53 1.0078,124.625 -0.3292,64.886 0.116,74.266 3.8066,78.944 2.9068,3.688 107.885,5.316 199.0215,3.087 38.8924,-0.951 103.9554,-1.247 144.584,-0.656 56.7084,0.826 91.905,0.525 113.2676,-1.396 16.6932,-1.502 24.9391,-3.992 28.3965,-7.707 3.201,-3.439 3.6803,-10.501 4.2871,-62.944 1.0185,-87.97 0.6137,-139.374 -1.4746,-186.832 -2.2967,-52.184 -1.719,-66.044 2.9355,-70.539 3.0093,-2.905 3.0885,-3.91 0.5918,-7.422 -2.5414,-3.574 -6.2875,-4.207 -31.2695,-5.293 -15.6102,-0.678 -64.5911,-0.834 -108.8457,-0.343 -147.5093,1.628 -335.7583,0.43 -338.8536,-2.157 -0.8912,-0.744 -2.3501,-1.042 -4.0449,-1.004 z m 4.127,13.088 5.2304,1.6 c 14.3454,4.38 310.9386,8.604 434.5059,6.189 l 21.291,-0.416 -2.248,21.039 c -1.2434,11.571 -1.7214,39.736 -1.0781,62.592 0.4297,15.188 0.5812,38.61 0.5878,61.77 -30.7475,-2.258 -60.4808,-2.194 -83.0918,-1.887 -21.2807,0.301 -58.9408,-0.806 -96.8203,-1.476 -0.6133,-34.302 -1.5445,-39.327 -6.709,-41.172 -3.9666,-1.414 -40.1551,-1.615 -63.2363,-0.348 -13.8569,0.761 -19.4618,1.551 -20.666,2.918 -0.9778,1.11 -1.3931,19.238 -1.332,38.002 -41.6175,-0.407 -84.385,-1.409 -106.0723,-0.553 -28.5848,1.13 -57.9863,1.952 -65.3359,1.819 l -13.3633,-0.241 -1.1699,-39.615 c -0.7507,-25.423 -1.0134,-60.629 -0.8282,-78.226 z m 270.6523,115.139 -0.7851,33.49 c -0.4328,18.419 -0.8544,33.554 -0.9375,33.637 -0.083,0.08 -3.1056,-2.172 -6.7188,-5.008 -5.6387,-4.426 -6.5829,-5.813 -6.666,-9.789 -0.073,-3.488 -0.8455,-5.006 -3.123,-6.144 -2.9794,-1.49 -2.9447,-1.563 2.3886,-4.965 5.6005,-3.574 6.5584,-7.069 2.1817,-7.971 -1.3335,-0.275 -5.923,1.76 -10.1973,4.522 -4.2746,2.762 -8.127,5.003 -8.5605,5.003 -2.4598,-0.06 0.2079,-2.743 7.8789,-7.939 5.4485,-3.69 8.666,-6.776 8.666,-8.311 0,-3.88 -3.2049,-2.946 -10.3516,3.018 l -6.6406,5.541 -0.8223,-4.756 c -1.2434,-7.198 -1.0738,-7.939 1.8145,-7.875 3.2867,0.07 3.5016,-3.131 0.334,-5.006 -1.8244,-1.092 -1.0575,-1.289 3.5214,-0.937 6.5689,0.497 8.1915,-1.185 4.5586,-4.729 -1.3047,-1.273 -2.1959,-3.598 -1.9804,-5.166 0.5881,-4.265 -4.0508,-5.202 -10.7852,-2.177 -3.6412,1.635 -6.0135,2.057 -6.8711,1.22 -1.9411,-1.894 -6.4518,-1.659 -9.8144,0.51 -4.06,2.619 -3.7155,3.958 0.8789,3.418 2.1131,-0.248 4.2494,0.183 4.7461,0.961 0.5019,0.785 0.012,1.407 -1.1016,1.369 -2.6521,-0.06 -9.7564,5.662 -8.5254,6.865 0.5291,0.518 3.6972,0.272 7.0391,-0.545 3.3422,-0.815 6.2797,-1.258 6.5254,-0.982 0.9059,1.018 1.8603,16.434 1.0156,16.396 -0.4804,-0.01 -3.5751,-1.796 -6.875,-3.96 -9.0437,-5.934 -13.8119,-5.28 -7.7461,1.062 l 2.9199,3.051 -4.8965,-0.867 c -2.6921,-0.477 -5.2077,-0.391 -5.5898,0.189 -0.8364,1.271 6.2196,7.296 9.9726,8.516 3.964,1.288 3.2403,3.254 -1.1621,3.152 -5.5423,-0.125 -7.7277,2.78 -5.0586,6.723 2.0535,3.033 1.9908,3.116 -3.8437,5.109 -3.2629,1.115 -6.7312,3.095 -7.707,4.4 -1.5145,2.028 -2.0169,-2.116 -3.4278,-28.304 -0.9082,-16.873 -1.1594,-31.109 -0.5566,-31.635 0.6024,-0.526 18.0173,-0.986 38.6992,-1.023 z m 187.6113,47.158 v 0.02 c -0.015,8.223 0.015,17.087 -0.066,24.234 -0.3703,29.691 -0.6532,69.875 -0.6367,89.293 0.015,22.937 -0.761,36.011 -2.2441,37.324 -1.4319,1.268 -38.635,1.488 -99.7598,0.588 -53.6114,-0.79 -116.3871,-0.735 -139.4941,0.121 -23.1103,0.859 -73.8364,1.871 -112.7305,2.248 -38.8941,0.378 -77.7366,1.173 -86.3164,1.764 l -15.6016,1.074 0.5899,-58.921 c 0.3209,-32.408 0.4514,-67.716 0.3027,-78.463 -0.2199,-15.283 0.2979,-19.184 2.3711,-17.901 1.8377,1.14 87.5181,1.525 181.9277,1.387 0.2576,13.578 0.7819,24.732 1.5411,26.101 0.9392,1.694 2.8849,2.334 7.3984,2.436 3.3679,0.08 6.4122,0.42 6.7637,0.764 v 0 c 0.7786,0.762 52.486,0.973 64.1504,0.264 11.9694,-0.727 12.65,0.574 12.1738,-29.848 77.6178,-0.405 145.4661,-1.148 159.9062,-2.156 6.8586,-0.421 13.8269,-0.288 19.7246,-0.319 z m -238.8066,2.651 3.9942,0.707 c 2.1966,0.388 7.2946,0.843 11.3281,1.013 5.6496,0.238 6.7993,0.593 5.0078,1.547 -1.2794,0.682 -5.1783,1.442 -8.666,1.688 -5.1848,0.366 -6.8261,-0.04 -9.002,-2.252 z m -0.6777,5.238 c 0.7336,0.02 1.334,0.889 1.334,1.937 0,1.049 -0.6004,1.877 -1.334,1.877 -0.7333,-0.02 -1.334,-0.889 -1.334,-1.937 0,-1.049 0.6007,-1.877 1.334,-1.877 z m 23.6699,1.135 c 0.2808,0.01 0.615,0.08 0.9961,0.232 1.1002,0.427 2,1.287 2,1.91 0,1.334 -1.8353,1.462 -3.1094,0.219 -1.3159,-1.284 -1.1033,-2.408 0.1133,-2.361 z m -31.9902,4.484 c 0.9726,-0.05 1.5208,0.333 2.1113,1.08 2.7054,3.426 7.9739,3.914 11.8437,1.1 3.1185,-2.268 4.1761,-2.388 9.2754,-1.047 3.1658,0.833 7.1053,1.858 8.7539,2.277 1.7133,0.436 4.4861,-0.134 6.4707,-1.328 3.4205,-2.059 3.5258,-2.026 7.1954,2.238 l 3.7246,4.329 -23.5274,0.958 c -35.2154,1.435 -40.1998,1.256 -40.1582,-1.437 0.022,-1.407 2.7621,-3.475 7.457,-5.633 3.6501,-1.677 5.603,-2.469 6.8536,-2.537 z" fill="#00B894" transform="translate(32.91955,-155.63361) translate(927.04978,-3711.9253) matrix(0.26458333,0,0,0.26458333,-1536.012,-972.67847)"/>
</svg>