<?xml version="1.0" ?><svg height="92.437195mm" viewBox="0 0 129.69064 92.437195" width="129.69064mm" xmlns="http://www.w3.org/2000/svg">
    <path d="m 313.20738,663.96056 123.02577,-0.42958 0.29832,86.66353 -122.90644,-0.75173 z" fill="#FFFFFF" paint-order="markers stroke fill" transform="translate(54.51848,-37.222287) translate(-364.54819,-623.53029)"/>
    <path d="m 387.51448,660.75332 c -5.80695,-0.006 -13.22533,0.0228 -23.51432,0.14364 -32.57537,0.38312 -50.21963,0.97158 -52.3477,1.97096 -1.45738,0.68438 -0.91575,5.30887 -1.47175,17.19067 -0.2544,5.43666 0.33917,14.18524 0.0259,19.44068 -0.75951,12.72591 1.19758,36.6902 0.79118,46.24885 -0.14705,6.14019 0.87435,7.39855 8.17986,7.13447 13.34252,0.66135 116.13102,0.15615 117.93749,-0.58293 0.9815,-0.40156 1.72363,-1.21391 1.71463,-1.87741 -0.008,-0.64325 0.1913,-5.17303 0.4439,-10.06604 0.25262,-4.893 0.44529,-21.20284 0.42841,-36.2443 -0.0169,-15.04145 -0.0246,-28.99939 0.003,-29.72429 0.13399,-3.51817 -0.64344,-11.38203 -1.16271,-12.21476 -0.64365,-1.03216 -8.14969,-1.57305 -29.592,-1.3658 -6.55558,0.0634 -11.75764,-0.0435 -21.43591,-0.0537 z m -40.55462,4.05503 v 0 c 4.94194,0.007 10.20778,0.0276 15.51844,0.063 38.27944,0.67641 47.07433,0.37312 65.90708,0.44752 6.66763,0.11028 6.23244,-0.61532 6.22443,4.39147 0.0528,3.48909 -0.12142,17.22647 -0.24443,24.02232 l -0.22375,12.35633 c -1.79467,-0.18928 -5.40634,-0.84971 -7.79643,-1.0392 -7.42918,-0.58905 -7.74179,-0.82336 -5.60017,-5.48701 0.88604,-1.9294 1.28773,-3.92877 1.25212,-6.23062 l -0.0527,-3.38947 1.98747,0.33488 c 2.25658,0.38015 3.21583,-0.56925 2.03864,-2.01745 -0.64632,-0.7952 -7.118,-4.50982 -7.85688,-4.50982 -0.75533,0 -7.29432,7.82058 -7.28689,8.71471 0.0148,1.72315 2.39009,1.28299 4.44622,-0.82423 l 1.84899,-1.89497 0.41756,1.8433 c 0.22963,1.01404 0.13962,2.98654 -0.2,4.38266 -0.59613,2.4511 -0.68183,2.52397 -2.5001,2.10429 -2.08388,-0.48099 -2.25179,-0.49337 -4.93408,-0.35555 -2.40025,0.1233 -4.75017,2.32968 -4.98779,4.68344 l -0.185,1.83502 -5.82964,-0.20722 c -3.20625,-0.11396 -6.07801,-0.45125 -6.38202,-0.7498 -0.76099,-0.7474 1.22084,-2.98847 3.56153,-4.02665 1.26013,-0.55885 2.93158,-0.71183 5.00745,-0.45836 2.51566,0.30718 3.27258,0.18071 3.9274,-0.6568 1.04592,-1.33776 0.25305,-2.72315 -2.34299,-4.09226 -2.61083,-1.37697 -2.53966,-1.16813 -1.52292,-4.42817 0.63529,-2.03703 2.00298,-4.04556 4.59454,-6.74635 2.02954,-2.1151 3.68255,-4.30535 3.67419,-4.8674 -0.0314,-2.02759 -1.80104,-1.73459 -4.94024,0.81803 -2.89862,2.35691 -11.6503,6.76082 -13.43536,6.76082 -1.58493,0 -2.17794,-4.68394 -0.66974,-5.2901 0.49072,-0.1972 1.14496,-0.86506 1.45367,-1.48416 0.44218,-0.88664 0.29401,-1.27333 -0.69868,-1.82157 -1.0568,-0.58367 -1.97866,-0.32406 -5.71177,1.60763 -6.07174,3.14182 -11.05048,8.40163 -12.69434,13.41004 -2.21155,6.73788 -2.92611,7.76438 -6.90705,9.92343 -5.51371,2.99046 -6.76347,2.53662 -5.65135,-2.05258 0.27763,-1.14557 0.51396,-1.22595 1.95181,-0.66458 0.89971,0.35131 2.0878,0.45685 2.64067,0.23463 1.57049,-0.63116 0.78515,-2.44499 -1.33067,-3.07372 -1.24481,-0.36986 -1.92008,-0.95324 -1.93114,-1.66761 -0.0254,-1.63042 0.90673,-1.94233 2.79414,-0.93483 1.07714,0.57499 1.98294,0.70027 2.51976,0.3483 1.16628,-0.76459 0.0835,-2.46449 -2.32029,-3.64215 -1.84497,-0.90392 -2.42851,-2.0443 -1.3906,-2.7187 0.29162,-0.18949 1.34308,0.13661 2.3363,0.72451 1.38422,0.81934 1.96439,0.90072 2.48562,0.34933 1.08564,-1.1485 0.0991,-2.64369 -2.47478,-3.75118 -2.99127,-1.2871 -3.53478,-2.98691 -1.90272,-5.94694 0.66191,-1.20041 1.19507,-2.71679 1.18494,-3.37034 -0.0254,-1.64409 -2.34681,-1.56326 -4.41833,0.15452 l -1.62008,1.3436 0.38553,-1.7074 c 0.47625,-2.11053 -0.43789,-3.39376 -1.58287,-3.32743 -0.68702,0.0398 -1.45746,0.56584 -2.05981,1.68981 -0.94342,1.76044 -1.01793,1.78247 -4.9041,1.44383 -3.3546,-0.29233 -4.26485,-0.14708 -6.06732,0.9705 -1.39528,0.86508 -3.41265,1.39462 -5.89783,1.5477 -3.86852,0.23823 -6.9541,1.66479 -6.49883,3.00448 0.1574,0.46307 1.23619,0.65011 2.98379,0.51726 2.25118,-0.17113 2.68033,-0.0437 2.41173,0.71676 -0.44977,1.27341 0.80232,3.45299 2.02832,3.53105 1.19131,0.0757 -3.16833,1.65552 -4.75787,1.72391 -0.72734,0.0314 -0.98457,-0.25243 -0.77256,-0.85264 0.50615,-1.43309 -1.31246,-2.77037 -3.76824,-2.77037 -1.24323,0 -2.62253,-0.14325 -3.06494,-0.31885 -0.44238,-0.17561 -1.31611,0.0744 -1.94148,0.55604 -1.07937,0.8313 -1.08437,0.93449 -0.10541,2.04071 0.56713,0.64087 1.35159,2.11098 1.74357,3.26647 1.28567,3.78983 3.19001,4.92146 3.79201,2.25358 0.28456,-1.26084 0.64998,-1.37612 4.36716,-1.37612 2.56231,0 3.85472,0.21439 3.50782,0.58134 -0.8206,0.86818 -0.62452,3.2584 0.45474,5.548 1.20232,2.55069 2.25623,2.97947 4.42661,1.80144 0.94118,-0.51091 1.70384,-0.71517 1.69291,-0.45424 -0.0566,1.4418 -1.52908,6.56736 -1.84949,6.43784 -0.20793,-0.0842 -1.16747,-0.15295 -2.1327,-0.15295 -1.42174,0 -1.915,-0.37764 -2.59725,-1.988 -1.06278,-2.50857 -3.6444,-5.35109 -4.85966,-5.35109 -1.36842,0 -1.71159,1.65306 -0.5829,2.80913 1.32143,1.35366 0.92699,1.59353 -1.23352,0.74983 -3.4526,-1.34826 -5.13918,0.70609 -1.77715,2.16472 l 1.92236,0.83354 -3.81321,0.37208 c -4.1393,0.77404 -10.65241,0.58402 -12.38837,0.67334 l -0.15711,-6.92671 c -0.0997,-4.3955 -1.01772,-20.40644 -0.59065,-26.91257 0.33229,-5.06235 -1.09414,-4.71379 3.78944,-5.27048 1.43332,-0.19563 13.34077,-0.29887 28.16674,-0.27855 z m 4.71805,13.73458 c 1.64698,0.0711 3.18828,0.84015 5.33974,2.33732 1.55974,1.08543 1.93233,1.74826 1.95543,3.48144 0.0583,4.28501 -0.21979,4.60153 -5.08291,5.77536 -2.47171,0.5966 -6.09145,1.74302 -8.04341,2.54764 -4.17674,1.7217 -4.11557,1.71374 -4.55116,0.57981 -0.23291,-0.60637 0.79116,-1.54091 3.26957,-2.98379 1.98485,-1.15554 4.20018,-2.2907 4.92373,-2.52232 1.90469,-0.60981 1.62095,-2.49126 -0.51366,-3.40548 -0.98732,-0.42288 -3.30922,-0.96033 -5.1599,-1.19372 -2.39393,-0.30194 -3.02752,-0.55113 -2.19626,-0.86405 0.64262,-0.24188 2.48005,-1.09866 4.08348,-1.90376 2.5754,-1.29307 4.32834,-1.91957 5.97535,-1.84845 z m -1.81745,1.57405 c -0.38653,0.0159 -0.76899,0.16489 -1.06352,0.47647 -0.32642,0.34533 -0.42034,1.07857 -0.20876,1.62935 0.5565,1.4487 3.03366,0.95113 3.00964,-0.60462 -0.0143,-0.92758 -0.88699,-1.53607 -1.73736,-1.5012 z m 36.06083,3.10214 c 0.48347,0.0385 0.67146,0.53107 0.68627,1.48828 0.0135,0.8631 0.3361,2.15712 0.71676,2.87581 0.41426,0.78208 0.4677,1.38485 0.13436,1.50119 -0.30634,0.10684 -2.89523,1.83036 -5.75366,3.82974 -2.8584,1.99935 -5.78451,4.0908 -6.50245,4.6483 l -1.30535,1.01389 0.79272,-2.45049 c 1.6492,-5.09802 4.01468,-8.24368 8.7731,-11.66802 1.19632,-0.8609 1.9748,-1.27715 2.45825,-1.2387 z m 12.39149,4.25505 -0.99012,3.18326 -0.9901,3.18431 -7.14325,1.3534 c -3.92869,0.74448 -8.09786,1.62933 -9.26507,1.96628 -1.1675,0.337 -1.88418,0.36224 -1.59319,0.0558 1.42769,-1.50299 10.67308,-6.78743 12.47315,-7.12927 1.12781,-0.21418 3.27853,-0.89001 4.77956,-1.50173 z m -41.2905,4.15375 c 0.56602,0.0348 0.58097,0.90112 0.0341,2.59157 -0.44812,1.38528 -1.00507,4.43989 -1.23814,6.7877 -0.45193,4.55282 0.0949,5.98413 2.28616,5.98413 1.8347,0 1.78713,0.68705 -0.17262,2.50373 -1.05444,0.97747 -2.05919,1.77715 -2.23292,1.77715 -0.17373,0 -0.79036,-1.41732 -1.36996,-3.14968 -1.55718,-4.65405 -1.15787,-13.75698 0.6718,-15.31948 0.85744,-0.73223 1.49191,-1.12226 1.90119,-1.17099 0.0426,-0.005 0.0827,-0.006 0.12039,-0.004 z m -5.87251,2.79879 c 0.32234,-0.0335 0.35648,0.25159 0.3664,0.8935 0.0103,0.66233 -0.56264,1.63279 -1.27281,2.15646 -1.69225,1.24737 -3.01942,1.24028 -2.57606,-0.0151 0.18801,-0.53208 0.3393,-1.07559 0.33745,-1.20767 -0.003,-0.13205 0.78261,-0.66722 1.74408,-1.18909 0.72477,-0.39335 1.15022,-0.61219 1.40094,-0.6382 z m 42.46719,2.26343 c 0.0344,0.062 -0.7597,0.93639 -1.94305,2.12908 -1.41491,1.42605 -2.45038,3.04085 -2.43861,3.80338 0.019,1.22346 -0.17182,1.28958 -2.48407,0.86453 -1.37739,-0.25318 -4.61946,-0.45038 -7.20473,-0.43821 -2.58525,0.0119 -5.42473,0.2209 -6.30971,0.46459 -2.76958,0.76253 -1.77448,-0.19503 2.1327,-2.05262 2.21086,-1.05108 6.59628,-2.316 10.67531,-3.07834 3.8078,-0.71165 7.18534,-1.46238 7.50548,-1.66812 0.04,-0.0259 0.0619,-0.0331 0.0667,-0.0243 z m -44.02058,3.34708 c 0.71929,0.007 0.82293,0.36373 0.84026,1.48416 0.0198,1.2782 -0.30602,1.72386 -1.42473,1.94715 -1.73778,0.34684 -2.06936,0.077 -2.09701,-1.70842 -0.0161,-1.0409 0.3895,-1.42081 1.73787,-1.62729 0.39621,-0.0607 0.70384,-0.0977 0.94361,-0.0956 z m 60.16688,1.03558 c 0.47136,0 0.99782,0.0536 1.56424,0.16383 2.37102,0.46157 2.51736,1.02894 0.51211,1.98697 -2.51691,1.20245 -4.36674,0.84214 -4.39301,-0.85577 -0.0127,-0.82229 0.9026,-1.29593 2.31666,-1.29503 z m -34.28629,4.19201 c 4.6668,0 10.84516,0.27863 11.23653,0.67956 0.1768,0.18105 -0.1153,1.04084 -0.64958,1.91097 -1.15353,1.87868 -0.89429,1.88503 -4.97591,-0.11625 -2.54079,-1.24582 -4.12393,-1.5901 -7.20421,-1.56634 -2.46779,0.019 -3.81653,-0.19748 -3.59722,-0.57671 0.13457,-0.23262 2.3903,-0.33165 5.19039,-0.33123 z m -33.85995,0.50281 h 1.99419 l -0.28265,2.59985 c -0.15534,1.42965 -0.0607,3.91642 0.20979,5.52628 0.27056,1.6098 0.31363,3.04247 0.0961,3.18378 -0.21749,0.14131 -1.28932,-0.2122 -2.38175,-0.786 -2.77403,-1.45703 -3.68049,-4.31017 -2.50323,-7.87757 0.7965,-2.41348 1.04852,-2.64634 2.86753,-2.64634 z m 7.05953,0 c 2.60274,0 3.58876,3.82765 1.16115,4.50774 -2.47872,0.69442 -2.78389,0.4718 -2.82307,-2.06087 -0.0354,-2.29042 0.0704,-2.44687 1.66192,-2.44687 z m 48.5562,0.0548 c 0.81812,-0.006 1.94715,0.0672 3.545,0.20206 2.79201,0.23548 5.97879,0.87215 7.08176,1.41542 1.64782,0.81166 2.3932,0.86328 4.18113,0.2894 3.05429,-0.98057 3.10819,-0.45683 0.11782,1.14565 -3.47859,1.86417 -9.12548,2.10568 -13.41623,0.57414 -1.78734,-0.63799 -4.30789,-1.21843 -5.60173,-1.28934 -2.0211,-0.11081 -2.10498,-0.16415 -0.59375,-0.38087 0.96734,-0.13861 2.0729,-0.68654 2.45668,-1.21748 0.3661,-0.50641 0.86585,-0.73022 2.22932,-0.73898 z m -73.23325,0.11732 c 1.56459,-0.0737 2.19848,0.0869 2.61586,0.6201 0.38716,0.49469 1.88677,1.05135 3.33261,1.23664 2.60781,0.33419 4.15801,1.58663 4.18579,3.38119 0.008,0.49194 -1.05998,1.94175 -2.37247,3.22201 -1.53961,1.50181 -2.25769,2.66222 -2.02417,3.2701 0.49874,1.29828 2.54442,1.18009 4.46228,-0.25787 l 1.60091,-1.19994 0.801,1.51308 c 0.92216,1.74109 6.47775,4.77009 7.78505,4.24471 0.58087,-0.23347 1.45516,0.4936 2.58022,2.14508 0.93588,1.37369 2.6199,3.32518 3.7424,4.33671 2.90917,2.62157 2.32394,3.5864 -1.71464,2.8267 -3.95575,-0.74417 -9.51841,-0.0803 -10.8169,1.29138 -0.90951,0.96086 -0.72967,1.06754 2.81741,1.66449 l 3.78892,0.63717 -2.42002,0.42841 c -2.83662,0.50189 -5.47634,2.47645 -4.57181,3.41996 0.67244,0.70143 11.38179,-0.1496 15.15205,-1.20407 1.76565,-0.49382 2.77765,-0.40981 4.82865,0.40047 2.85649,1.12856 5.24708,0.83032 5.79551,-0.72242 0.56647,-1.60387 -0.75607,-2.6032 -3.70779,-2.80138 -2.49084,-0.16719 -2.74997,-0.32723 -2.77141,-1.7136 -0.0228,-1.4687 0.10462,-1.52109 3.2117,-1.33842 4.26659,0.25085 12.47587,-0.96925 16.08945,-2.39106 2.44184,-0.96076 3.03165,-1.00852 3.81476,-0.30954 0.50943,0.45471 1.93336,1.16115 3.16415,1.57043 1.90082,0.63217 2.18295,0.94351 1.87531,2.06553 -0.60584,2.2098 -1.19861,2.49033 -3.65143,1.72907 -2.80485,-0.87055 -5.98578,-0.91736 -7.99383,-0.11781 -2.25203,0.89672 -1.78504,1.85002 0.90641,1.85002 2.79122,0 2.64284,0.91117 -0.2403,1.47587 -2.46536,0.48294 -3.88384,1.9858 -2.42157,2.56627 0.53597,0.21275 5.35271,0.10753 10.70322,-0.23357 7.12806,-0.45456 9.9541,-0.85932 10.57404,-1.51517 0.74266,-0.78573 0.7261,-1.01814 -0.13488,-1.90015 -0.53951,-0.55264 -1.75519,-1.0051 -2.70163,-1.0051 -0.94645,0 -1.72324,-0.15542 -1.72601,-0.34571 -0.0185,-1.19385 1.51598,-2.94254 3.24736,-3.70054 4.29048,-1.87859 2.96355,-4.51601 -2.27171,-4.51601 -1.89953,0 -3.45715,-0.24527 -3.46178,-0.5452 -0.0122,-0.78068 2.55463,-1.34713 7.55613,-1.66759 2.39133,-0.1532 4.57192,-0.42413 4.84568,-0.60204 0.61148,-0.3973 9.22901,1.54173 9.60665,2.16162 0.27244,0.44717 -0.93766,6.19493 -1.51413,7.19183 -0.16891,0.29194 -2.11521,0.36568 -4.3248,0.16433 -5.07503,-0.46244 -6.89118,-0.005 -7.11531,1.79266 -0.16332,1.30982 -0.0363,1.35834 2.51198,0.95961 3.0394,-0.47556 3.59365,0.32147 0.95033,1.36634 -1.72188,0.68064 -2.82127,2.31158 -2.07428,3.07681 0.20939,0.21447 2.94709,-0.12091 6.08386,-0.74517 3.13679,-0.62428 7.31784,-1.07897 9.29142,-1.01028 2.71233,0.0943 3.77958,-0.11954 4.37132,-0.87644 0.67133,-0.8586 0.62156,-1.12262 -0.34883,-1.85258 -0.62238,-0.46818 -1.87396,-0.85164 -2.78175,-0.85164 -1.81147,0 -1.98228,-0.64347 -1.3472,-5.07566 0.31633,-2.20769 0.42034,-2.30349 2.09341,-1.92236 2.07107,0.4718 3.00154,-0.59129 2.06499,-2.35956 -0.67479,-1.2741 -6.68285,-4.29453 -9.97252,-5.01364 -2.88345,-0.63031 -2.91229,-0.66939 -2.2443,-3.06027 0.4961,-1.7757 0.87662,-2.13993 2.23346,-2.13993 5.60996,0 11.42555,-3.11364 13.16818,-7.05022 0.82216,-1.85732 1.21229,-2.12338 3.10835,-2.12338 1.19245,0 2.98931,0.21222 4.01007,0.38189 2.23018,0.37074 4.24651,0.74047 6.14591,1.05678 l 1.98487,0.41187 0.22635,14.64562 c 0.12465,8.05503 0.0787,16.89277 -0.10181,19.63962 l -0.32813,4.99454 -4.61214,0.45061 c -2.5368,0.24781 -12.55456,0.0807 -22.26167,-0.37105 -13.59003,-0.63254 -22.08205,-0.65143 -36.92075,-0.0832 -40.31629,1.54387 -52.63708,0.52234 -53.40451,-0.47027 -1.83512,-2.37348 -1.94532,-25.54515 -1.27847,-34.48987 l 0.37259,-6.05494 c 3.32745,-0.27241 4.45662,-0.25601 6.03115,-0.40513 0.75488,-0.0715 1.37964,-0.12218 1.90119,-0.14676 z m 47.5537,1.12448 c 2.86234,0.0563 6.73105,1.17615 9.39061,2.78328 l 2.68666,1.62317 -1.66915,0.89244 c -0.9181,0.49098 -2.19067,1.38361 -2.82773,1.98334 -1.12692,1.06085 -1.20259,1.02616 -2.79104,-1.27693 -0.9421,-1.36589 -2.95696,-3.08523 -4.76353,-4.06485 l -3.13108,-1.69809 1.94665,-0.19947 c 0.36136,-0.037 0.74969,-0.0508 1.15861,-0.0429 z m -4.55168,1.70272 2.64326,1.87225 c 3.47406,2.46062 3.64456,2.86049 1.3906,3.25562 -1.04108,0.18248 -2.35257,0.52218 -2.91454,0.75499 -0.89313,0.37004 -1.02751,0.0266 -1.07022,-2.72955 z m -1.7384,0.14058 v 0 c 0.0659,0.005 0.10941,0.031 0.12764,0.0801 0.1552,0.41587 0.18658,2.26951 0.0703,4.11964 -0.11626,1.8501 -0.2526,3.40992 -0.30334,3.46646 -0.0507,0.0566 -0.61119,-0.28726 -1.2454,-0.7643 -0.63423,-0.47707 -2.16003,-0.86712 -3.391,-0.86712 -1.23095,0 -2.24174,-0.23466 -2.24637,-0.52141 -0.0145,-0.93663 5.9935,-5.58313 6.98767,-5.51336 z m 23.99959,1.07796 c 0.0671,0 0.13785,-2.4e-4 0.21238,0.004 0.71546,0.0411 1.7698,0.3371 3.23236,0.8692 5.21878,1.89871 6.99111,3.3903 6.51846,5.48492 -0.46495,2.06039 -1.44676,2.08587 -4.27156,0.11216 -1.21547,-0.84929 -2.49243,-1.43984 -2.83755,-1.3126 -0.80418,0.29663 -0.43876,2.2682 0.65164,3.51658 1.25471,1.43674 1.10011,1.60912 -1.85314,2.07121 -1.4886,0.23291 -6.0316,1.38708 -10.09603,2.56469 -4.06439,1.17758 -9.63168,2.53103 -12.37133,3.00757 -2.73963,0.47651 -6.3717,0.86725 -8.07133,0.86817 l -3.08975,0.003 0.0977,-3.51658 c 0.11996,-4.31231 -1.08358,-4.79851 -2.75487,-1.1131 l -1.09038,2.40348 -1.76164,-2.09757 c -1.83042,-2.17963 -3.62792,-5.78744 -4.31242,-8.65423 -0.39386,-1.64967 -0.37407,-1.66155 2.34714,-1.43867 2.80321,0.22961 4.16883,1.412 3.57447,3.09489 -0.51914,1.46978 1.09485,2.11031 4.97695,1.97455 3.34176,-0.11676 4.03394,0.0664 5.95571,1.57822 l 2.17456,1.71048 1.73374,-1.96475 c 1.93799,-2.1963 4.58229,-2.52227 7.58145,-0.93429 2.46869,1.30709 4.06738,0.92262 5.91074,-1.42214 1.4588,-1.85558 2.01205,-2.12526 4.39147,-2.14095 2.77966,-0.0177 2.92296,-0.18381 2.28719,-2.66134 -0.34438,-1.34202 -0.14478,-1.98742 0.86405,-2.0066 z" fill="#00B894" transform="translate(54.51848,-37.222287) translate(-364.54819,-623.53029)"/>
</svg>