<?xml version="1.0" ?><svg height="96.177773mm" viewBox="0 0 134.07835 96.177773" width="134.07835mm" xmlns="http://www.w3.org/2000/svg">
    <path d="m -317.66781,469.06558 127.67024,2.04173 -1.2174,89.40366 -128.03595,0.30594 z" fill="#FFFFFF" paint-order="markers stroke fill" transform="translate(50.516227,-60.549504) translate(270.39689,-407.00729)"/>
    <path d="m 4606.5703,5444.3125 c -5.1705,0.1221 -12.4726,3.4105 -12.6523,6.7305 -0.084,1.647 0.6997,3.0083 1.75,3.0273 1.0519,0.019 0.5666,16.3947 -1.0801,36.3887 -2.0551,24.97 -2.572,56.2809 -1.6445,100.0039 0.7444,35.008 1.2068,93.7045 1.0254,130.4355 -0.3345,67.912 0.1168,77.7281 3.8671,82.6231 2.9542,3.861 109.6397,5.5654 202.2598,3.2324 39.5256,-0.995 105.6496,-1.3045 146.9395,-0.6875 102.6653,1.539 135.9587,-0.6633 143.9707,-9.5273 3.2531,-3.6 3.7387,-10.9909 4.3554,-65.8789 1.0352,-92.072 0.6242,-145.871 -1.498,-195.5411 -2.3341,-54.6169 -1.7478,-69.1231 2.9824,-73.8281 3.0582,-3.041 3.1389,-4.0925 0.6016,-7.7676 -2.5827,-3.7409 -6.3887,-4.4031 -31.7774,-5.539 -15.8643,-0.71 -65.6441,-0.8745 -110.6191,-0.3633 -149.9105,1.704 -341.2235,0.4502 -344.3692,-2.2578 -0.9056,-0.779 -2.3889,-1.0908 -4.1113,-1.0508 z m 4.1953,13.6992 5.3164,1.6738 c 14.5789,4.585 315.9993,9.0056 441.5782,6.4786 l 21.6386,-0.4356 -2.2871,22.0195 c -1.2636,12.11 -1.7494,41.5898 -1.0957,65.5118 0.5966,21.832 1.0733,49.1051 0.5117,99.9961 -0.3428,31.0749 -0.6652,73.131 -0.6484,93.455 0.015,24.006 -0.772,37.6925 -2.2793,39.0664 -1.4552,1.3271 -39.263,1.5553 -101.3828,0.6133 -54.4842,-0.827 -118.2825,-0.767 -141.7656,0.1289 -69.7637,4.551 -131.0638,-0.3071 -202.2871,4.2188 l -15.8555,1.125 0.5976,-61.6719 c 0.596,-61.509 -0.2831,-131.0203 -1.541,-156.8223 -0.7629,-26.609 -1.03,-63.4541 -0.8418,-81.8711 z m 240.6739,85.6426 c -3.38,0.028 -5.6178,9.6613 -12.4258,24.4023 -12.6326,27.3528 -9.4975,24.2611 -38.9004,29.9825 -30.046,5.4904 -30.9826,8.0472 -8.8262,24.0683 25.1896,18.2434 23.5893,8.7789 12.7461,43.0664 -9.4812,28.7665 -4.5464,31.3017 24.1914,12.4317 27.7823,-19.6742 25.8595,-16.6639 52.5176,-1.17 24.9124,14.5063 30.4965,13.227 33.248,7.7676 1.8917,-3.7527 -6.6597,-26.9888 -11.1972,-38.998 -7.0922,-18.7705 -3.6311,-17.7911 9.166,-31.4863 17.0584,-18.2613 15.0334,-24.4123 -7.6172,-23.1172 -24.3491,2.6817 -27.545,-1.2648 -38.8945,-24.6778 -7.6215,-15.7223 -11.2073,-22.2928 -14.0078,-22.2695 z m 1.3144,24.2656 c 1.7959,-0.091 6.8306,8.5915 9.041,14.1055 3.3539,8.3664 4.9865,8.8847 -7.9511,9.8184 -10.7616,0.7763 -9.9226,0.2459 -6.9942,-7.6153 0.8126,-2.1809 4.1039,-16.2059 5.9043,-16.3086 z m 51.6094,32.8633 c 3.4392,-0.071 5.1464,0.7539 2.2929,3.4805 -6.4305,6.145 -11.0531,11.8459 -14.6855,11.8945 -4.0177,0.056 -10.2034,-12.8819 -7.5156,-14.2363 2.4505,-0.6103 6.1859,0.8371 12.459,-0.2598 2.699,-0.4718 5.3857,-0.8361 7.4492,-0.8789 z m -40.6231,1.9238 c 0.8393,-0.01 1.5332,0.028 2.0293,0.1114 2.3114,0.3861 4.5018,4.4165 7.377,8.3711 2.8751,3.9549 5.5365,9.9616 5.7637,13.7851 0.1303,2.1992 -5.4481,9.0259 -12.3633,13.793 -6.0187,4.1492 -10.2537,7.1736 -14.1074,7.7031 -3.8537,0.5295 -11,-3.3786 -14.9336,-6.2773 -12.5508,-7.1224 -10.998,-11.5762 -6.4454,-22.4512 4.6192,-11.0343 5.1824,-12.2053 11.4805,-12.8594 2.3156,-0.1743 15.3242,-2.1342 21.1992,-2.1758 z m -44.4121,4.2071 c 2.2152,-0.156 3.2491,1.051 1.2422,7.082 -4.2139,12.6633 -5.0706,7.7616 -12.4043,3.5332 -4.0489,-2.3342 -11.9192,-7.0272 -8.1191,-7.7227 1.1687,-0.215 10.6023,-1.5477 12.8457,-1.6855 2.2746,-0.1394 4.7126,-1.0857 6.4355,-1.207 z m 65.125,30.4941 c 2.7198,-0.1169 4.0467,6.8753 6.9766,14.7246 2.3932,6.4006 9.1125,20.2648 2.3652,17.2363 -4.6157,-2.0714 -8.4719,-3.2169 -14.8281,-7.1132 -10.739,-6.5841 -14.2491,-7.5393 -8.7773,-12.5704 3.1753,-2.919 12.2541,-11.8838 13.996,-12.2441 0.091,-0.019 0.1799,-0.029 0.2676,-0.033 z m -59.8457,7.3398 c 0.6343,0.089 1.6058,0.6362 3.2071,1.7676 2.3209,1.6399 11.1427,6.1174 11.748,8.0156 0.544,1.7064 -6.7511,5.607 -16.2266,11.6895 -6.2625,4.0202 -7.3574,1.8829 -5.6757,-3.7246 1.0683,-3.5699 2.4794,-8.052 4.5664,-13.0078 1.226,-2.9115 0.9854,-4.9357 2.3808,-4.7403 z" fill="#00B894" transform="translate(50.516227,-60.549504) translate(270.39689,-407.00729) matrix(0.26458333,0,0,0.26458333,-1536.012,-972.91664)"/>
</svg>