<?xml version="1.0" ?><svg height="97.666756mm" viewBox="0 0 131.666 97.666756" width="131.666mm" xmlns="http://www.w3.org/2000/svg">
    <path d="m -2631.7498,2985.5938 126.1354,3.1371 -0.2558,89.1345 -125.5659,0.5678 z" fill="#FFFFFF" paint-order="markers stroke fill" transform="translate(-45.2838,-32.129094) translate(2679.5028,-2951.8762)"/>
    <path d="m -4137.3711,14955.299 c -5.0808,0.121 -12.245,3.457 -12.4004,6.828 -0.083,1.672 0.6987,3.056 1.7324,3.078 1.0318,0.04 0.6341,16.644 -0.8906,36.947 -1.903,25.353 -2.2602,57.148 -1.1426,101.545 0.8962,35.546 1.6172,95.149 1.6172,132.448 0,68.957 0.4854,78.925 4.1973,83.896 2.9166,3.922 107.7858,5.678 198.8066,3.332 38.8449,-1.002 103.8288,-1.3 144.416,-0.664 100.9119,1.587 133.6212,-0.645 141.4532,-9.645 3.1801,-3.654 3.6292,-11.156 3.9765,-66.89 0.5855,-93.49 -0.066,-148.119 -2.3945,-198.555 -2.5516,-55.46 -2.0422,-70.19 2.584,-74.965 2.9911,-3.088 3.0662,-4.156 0.5547,-7.888 -2.5565,-3.799 -6.2985,-4.474 -31.2559,-5.633 -15.5951,-0.724 -64.5245,-0.905 -108.7246,-0.395 -147.3339,1.694 -335.3717,0.383 -338.4785,-2.367 -0.8946,-0.792 -2.3579,-1.112 -4.0508,-1.072 z m 9.4297,15.609 c 10.0679,0.556 108.7255,5.294 216.332,6.584 -0.9158,37.238 0.043,178.527 0.8203,195.973 0.7779,17.495 1.8872,117.422 2.0157,129.166 -2.4824,0.06 -5.0841,0.124 -7.0313,0.203 -23.0804,0.908 -73.7494,1.971 -112.5976,2.363 -38.846,0.39 -77.6408,1.222 -86.209,1.848 l -15.5742,1.143 0.2968,-62.618 c 0.1663,-34.442 0.1334,-71.964 -0.082,-83.386 0,0 -0.7969,-27.667 -2.1602,-75.84 -0.7676,-27.022 -1.0813,-64.433 -1.2187,-83.135 -0.1,-13.58 -1.5084,-32.683 5.4082,-32.301 z m 455.3027,6.248 -2.1406,22.358 c -1.1822,12.296 -1.529,42.232 -0.7734,66.523 0,0 1.2288,52.508 0.9707,101.533 -0.2268,31.554 -0.3106,74.26 -0.1934,94.897 0.1323,24.377 -0.5819,38.271 -2.0566,39.666 -1.4238,1.347 -38.5879,1.572 -99.6465,0.601 -41.0094,-0.653 -87.2246,-0.776 -117.0606,-0.392 0.053,-6.913 1.0139,-128.649 1.6153,-166.182 0.5635,-35.153 -3.6574,-139.375 -4.4473,-158.502 75.7455,0.814 152.9852,0.951 202.4668,-0.06 z m -407.7558,9.223 c -16.2634,0.02 -18.1482,2.254 -16.9668,15 l 0.9785,10.549 -8.582,0.656 c -12.9192,0.989 -15.1484,2.667 -17.7559,13.379 -4.0577,16.665 -1.0223,20.524 15.9277,20.26 l 11.6133,-0.186 -0.2461,10.233 c -0.1822,7.571 0.6556,10.88 3.2227,12.728 v 0 c 4.2021,3.025 27.9495,3.574 31.8613,0.736 1.9272,-1.394 2.4513,-4.928 1.791,-11.976 -0.9003,-9.618 -0.7454,-9.979 4.0742,-9.553 7.7261,0.685 17.6523,-2.486 19.9336,-6.367 3.0686,-5.219 2.9245,-22.491 -0.2265,-27.231 -2.0943,-3.146 -5.3357,-4.413 -13.4844,-5.279 l -10.7285,-1.135 0.7715,-6.213 c 0.424,-3.416 -0.2379,-8.276 -1.4707,-10.798 -2.0837,-4.264 -3.3018,-4.596 -17.2657,-4.782 -1.2153,-0.02 -2.363,-0.02 -3.4472,-0.02 z m -1.918,11.182 c 1.1088,-0.02 2.5497,0.08 4.4238,0.246 7.6052,0.673 8.0384,1.049 7.9024,6.742 -0.083,3.467 -1.2126,5.966 -2.6602,5.83 -1.3833,-0.107 -4.3608,0.132 -6.6172,0.537 -5.2841,0.943 -6.9768,-1.08 -6.8105,-8.129 0.095,-3.972 0.4352,-5.161 3.7617,-5.226 z m 1.2676,18.105 c 0.1146,0 0.2255,0 0.334,0.01 2.527,0.224 2.3631,0.799 -0.8203,2.884 v 0 c -5.2048,3.399 -8.1932,3.173 -4.9141,-0.379 1.3287,-1.439 3.6816,-2.52 5.4004,-2.525 z m 5.1953,0.475 c 0.4961,-0.03 1.6128,0.212 3.3965,0.613 2.6713,0.6 5.2017,2.256 5.625,3.678 1.0314,3.469 -1.7128,2.921 -6.5313,-1.305 -2.4177,-2.121 -3.317,-2.935 -2.4902,-2.986 z m -36.9024,2.269 c 1.7157,-0.04 5.2116,0.308 8.9981,0.942 7.838,1.319 9.1337,2.173 9.043,5.861 -0.073,2.373 -0.9234,5.445 -1.8887,6.828 v 0 c -0.9653,1.383 -5.5199,2.685 -10.1211,2.893 l -8.3652,0.377 0.1914,-7.967 c 0.1055,-4.381 0.5928,-8.32 1.0781,-8.75 0.1216,-0.107 0.4946,-0.167 1.0664,-0.182 z m 58.3418,1.674 c 0.8876,0.02 1.9783,0.113 3.3204,0.232 l 7.1562,0.635 -0.8242,8.485 c -0.7733,7.962 -1.2266,8.484 -7.3789,8.533 -6.5537,0.05 -6.5532,0.02 -6.334,-9.117 0.1787,-7.449 0.2146,-8.846 4.0605,-8.768 z m -24.8242,2.633 c 0.7362,-0.04 1.4821,0.942 2.543,3.113 1.782,3.645 1.6352,4.442 -0.7734,4.231 -3.9232,-0.348 -5.293,-3.035 -3.1504,-6.184 0.501,-0.736 0.9391,-1.134 1.3808,-1.16 z m -6.1816,13.857 c 0.6982,-0.02 1.5884,0.14 2.5508,0.479 2.1993,0.774 3.9804,1.753 3.9804,2.177 -0.01,0.414 -1.8296,0.611 -4.0429,0.415 -2.2137,-0.197 -4.0221,-1.178 -3.9805,-2.178 0.013,-0.565 0.5944,-0.872 1.4922,-0.893 z m 4.0801,11.414 c 1.0897,-0.02 2.4793,0.07 4.2519,0.227 7.146,0.633 8.0357,1.252 7.9336,5.515 -0.096,4.002 -1.3049,4.84 -7.2402,5.002 -8.3086,0.232 -9.0067,-0.283 -8.8555,-6.543 0.075,-3.097 0.6409,-4.139 3.9102,-4.201 z" fill="#00B894" transform="translate(-45.2838,-32.129094) translate(2679.5028,-2951.8762) matrix(0.26458333,0,0,0.26458333,-1536.012,-972.91664)"/>
</svg>