<?xml version="1.0" ?><svg height="96.177711mm" viewBox="0 0 134.07857 96.177711" width="134.07857mm" xmlns="http://www.w3.org/2000/svg">
    <path d="m 319.42047,355.46576 -0.0822,43.60873 126.47962,0.80976 0.21444,-42.37675 z m 0.17983,45.29027 -0.59324,45.06341 125.86104,-0.63564 0.68525,-44.14819 z" fill="#FFFFFF" paint-order="markers stroke fill" transform="translate(65.38699,-162.16567) translate(-381.56054,-190.20362)"/>
    <path d="m 319.89658,352.37018 c -1.36803,0.0321 -3.30025,0.90238 -3.34782,1.78076 -0.0222,0.43571 0.18496,0.79597 0.46283,0.801 0.27832,0.005 0.15027,4.33789 -0.28543,9.62783 -0.54375,6.60673 -0.68068,14.89115 -0.43526,26.45935 0.19695,9.26253 0.31922,24.79247 0.2712,34.51109 -0.0885,17.96824 0.0311,20.56543 1.02346,21.86066 0.7816,1.02133 29.00862,1.47252 53.51435,0.85526 10.45781,-0.26332 27.95314,-0.34533 38.87778,-0.18191 27.16353,0.40714 35.97233,-0.17555 38.09217,-2.52077 0.86074,-0.95247 0.98923,-2.90804 1.15239,-17.43043 0.27388,-24.3607 0.16539,-38.59499 -0.39613,-51.73689 -0.61755,-14.45069 -0.46238,-18.2889 0.78916,-19.53371 0.80916,-0.80458 0.83051,-1.08283 0.15916,-2.05516 -0.68334,-0.98988 -1.69035,-1.16506 -8.40777,-1.46556 -4.19744,-0.18787 -17.36862,-0.23141 -29.26826,-0.0961 -39.66382,0.45091 -90.28206,0.11895 -91.11435,-0.59739 -0.23964,-0.20627 -0.63177,-0.28864 -1.08748,-0.27802 z m 1.10971,3.62457 1.40671,0.4429 c 3.85732,1.21295 83.60822,2.38281 116.83428,1.71409 l 5.72507,-0.11525 -0.60509,5.82602 c -0.33434,3.2041 -0.46283,11.00396 -0.28988,17.33331 0.11559,4.20593 0.15694,10.69137 0.15872,17.10488 -8.26772,-0.62513 -16.26291,-0.60759 -22.34277,-0.52243 -8.4918,0.12353 -26.65937,-0.62069 -40.37162,-0.53539 -13.71182,0.0854 -31.22004,-0.50485 -38.90668,-0.19222 -7.68619,0.31269 -15.59245,0.54025 -17.56869,0.50334 l -3.59278,-0.0672 -0.31478,-10.97039 c -0.20185,-7.04025 -0.27254,-16.78881 -0.22274,-21.66172 z m 123.22413,44.94784 c -0.004,2.27709 0.004,4.73143 -0.0178,6.71072 -0.0996,8.22201 -0.17606,19.34942 -0.17162,24.72667 0.004,6.35174 -0.20407,9.9726 -0.60287,10.33633 -0.38502,0.35092 -10.38845,0.41195 -26.82431,0.16273 -14.41561,-0.21891 -31.29562,-0.20384 -37.50886,0.0334 -6.21413,0.23772 -19.85392,0.51817 -30.31217,0.6227 v 0.005 c -10.45826,0.10458 -20.90228,0.32454 -23.20929,0.48832 l -4.19522,0.29767 0.15828,-16.31734 c 0.0863,-8.97412 0.12137,-18.75116 0.0814,-21.72738 -0.0591,-4.23207 0.0796,-5.31224 0.6371,-4.95679 1.06926,0.68273 106.61612,0.42939 116.66178,-0.29354 1.84419,-0.11658 3.71772,-0.0794 5.3036,-0.0884 z" fill="#00B894" transform="translate(65.38699,-162.16567) translate(-381.56054,-190.20362)"/>
</svg>