<?xml version="1.0" ?><svg height="116.95095mm" viewBox="0 0 219.84738 116.95095" width="219.84738mm" xmlns="http://www.w3.org/2000/svg">
    <path color="#000" d="m 9043.5471,5999.4045 c -10.132,0.1001 -20.129,1.0562 -29.799,2.92 -117.896,22.721 -80.628,41.1026 -245.52,5.8398 -58.133,-12.4321 -107.273,-0.5442 -143.24,24.0547 l -15.359,-24.2304 c 0,0 -15.042,1.9515 -29.223,1.2968 -14.181,-0.6548 -13.938,26.125 -13.938,26.125 l 26.557,25.8614 c -45.873,55.1918 -48.056,136.6217 15.135,184.2343 53.357,75.2742 418.169,152.2474 554.086,-0.7343 123.175,-138.6396 -2.044,-243.7735 -114.35,-245.3575 -1.452,-0.021 -2.902,-0.024 -4.349,-0.01 z m -138.284,140.7931 c 28.701,0.014 58.073,5.5186 88.19,17.1035 0,0 -77.572,54.7604 -195.709,8.8242 34.83,-16.8858 70.619,-25.9455 107.519,-25.9277 z" fill="#FFFFFF" overflow="visible" paint-order="fill markers stroke" transform="translate(15.017953,31.264717) matrix(0.32489611,0,0,0.32489611,-2791.3711,-1975.2751)"/>
    <path d="m 9042.8681,5983.4831 c -16.457,0 -31.191,2.4156 -64.898,10.3847 -4.767,1.127 -11.355,2.4465 -14.639,2.9317 -3.285,0.4851 -6.571,1.2505 -7.303,1.7031 -1.169,0.7224 -12.275,3.2087 -22.058,4.9375 -1.834,0.324 -13.833,1.2622 -26.666,2.084 -59.11,3.7846 -97.814,3.3002 -123.334,-1.541 -4.4,-0.8347 -8.9,-1.6335 -10,-1.7754 -1.1,-0.1417 -3.501,-0.62 -5.334,-1.0645 -1.834,-0.4446 -8.433,-1.796 -14.666,-3.0019 -6.234,-1.2057 -12.234,-2.5422 -13.334,-2.9707 -4.368,-1.7015 -6.639,-1.8744 -23.77,-1.8184 -17.931,0.059 -20.985,0.5872 -44.23,7.6738 -12.636,3.852 -24.056,11.0335 -35.051,22.0391 -5.712,5.7174 -10.711,10.3965 -11.108,10.3965 -0.396,0 -0.343,-1.7157 0.118,-3.8106 0.903,-4.1148 -4.354,-15.853 -8.02,-17.9043 -1.066,-0.5965 -1.939,-2.2205 -1.939,-3.6074 0,-3.4352 -1.195,-3.9692 -12.338,-5.5195 -14.588,-2.0293 -18.616,-1.6196 -27.049,2.7558 -13.195,6.8462 -18.193,15.5521 -16.713,29.1133 0.657,6.0188 1.315,7.3104 4.586,9 2.1,1.0851 4.963,1.9727 6.361,1.9727 3.232,0 13.153,6.4996 13.153,8.6172 0,0.8786 -1.472,2.3863 -3.272,3.3496 -1.8,0.9633 -5.387,4.8146 -7.971,8.5586 -2.583,3.744 -7.918,11.3304 -11.857,16.8594 -14.863,20.8638 -19.769,52.7266 -13.539,87.9472 3.036,17.1632 7.532,27.4612 20.178,46.2149 7.145,15.614 19.602,23.4134 29.488,34.2089 3.132,3.434 6.003,6.2442 6.379,6.2442 0.376,0 2.315,1.6583 4.307,3.6855 1.992,2.0273 5.72,5.1231 8.287,6.8789 2.566,1.7557 6.468,4.7989 8.668,6.7637 6.167,5.5082 40.112,26.5991 47.806,29.7031 3.773,1.5223 7.668,3.3844 8.656,4.1387 0.989,0.7542 3.088,1.5698 4.667,1.8106 1.578,0.2409 5.269,1.5943 8.203,3.0097 2.933,1.4154 9.233,3.5641 14,4.7735 4.766,1.2096 9.61,2.6956 10.761,3.3027 2.935,1.5465 41.048,9.9523 53.907,11.8887 5.866,0.8833 15.465,2.4056 21.332,3.3847 29.421,2.4576 49.376,7.5599 77.998,6.5039 0.367,-0.1362 9.668,-0.6353 20.668,-1.1093 11,-0.474 27.2,-1.5101 36,-2.3028 8.8,-0.7927 18.399,-1.6298 21.332,-1.8594 106.132,-14.0149 169.24,-28.9247 230.326,-94.3691 4.213,-4.5121 7.668,-8.7652 7.668,-9.4512 0,-0.6861 1.289,-2.6133 2.857,-4.2832 3.105,-3.3042 4.368,-5.3937 9.952,-16.4687 2.033,-4.0333 5.533,-10.6347 7.775,-14.668 5.517,-9.9247 8.634,-18.7364 10.848,-30.666 4.743,-36.6786 1.336,-63.3177 -14.948,-92 -1.888,-3.3 -4.811,-8.4113 -6.496,-11.3594 -35.417,-48.028 -74.992,-72.0587 -129.308,-80.1504 -2.934,-0.4292 -13.336,-0.9271 -23.115,-1.1054 -1.119,-0.02 -2.224,-0.029 -3.321,-0.029 z m 1.539,22.4297 c 15.016,-0.047 31.544,1.3209 44.229,4.0097 29.648,7.4936 52.377,20.6747 71.334,39.1797 16.922,16.6351 18.854,19.2313 28.922,38.8594 6.379,12.4372 7.56,15.7 5.144,14.207 -2.417,-1.4938 -3.786,4.0359 -4.611,18.625 -14.404,60.3008 -58.447,88.2618 -108.789,110.3887 -9.144,3.9121 -23.593,8.677 -41.332,13.6269 -7.531,2.5201 -46.117,11.1897 -46.645,20.4239 -0.02,2.7371 0.438,3.0047 3.848,2.2558 4.131,-0.9075 14.157,-2.1788 17.463,-2.2148 7.651,-0.083 36.444,-6.4191 41.502,-9.1328 1.193,-0.6402 4.493,-1.578 7.334,-2.084 5.224,-0.9308 15.719,-4.7301 21.83,-7.9024 1.833,-0.9517 9.634,-4.2895 17.334,-7.4179 34.294,-14.598 62.464,-39.3198 85.935,-65.2754 1.64,-1.8333 4.398,-6.934 6.129,-11.334 1.732,-4.4 3.572,-8.6007 4.09,-9.334 1.032,-1.4622 2.168,-7.4725 3.121,-16.5019 1.038,-9.8317 2.057,-7.8755 2.057,3.9472 0,16.2409 -3.876,34.4563 -9.426,44.2989 -0.748,1.3258 -4.143,7.6258 -7.547,14 -3.403,6.3741 -8.451,14.9254 -11.217,19.0019 -4.787,7.0558 -19.396,21.4512 -26.705,26.3164 -7.493,5.1484 -15.495,10.0584 -23.068,14.1387 -15.814,12.1241 -26.044,18.9168 -41.063,25.9785 -6.035,2.8486 -14.874,6.2548 -19.64,7.5684 -4.767,1.3136 -9.866,3.0935 -11.332,3.957 -1.467,0.8634 -6.268,2.3203 -10.668,3.2383 -4.4,0.9178 -9.2,2.1267 -10.666,2.6855 -5.033,1.918 -14.682,4.2101 -28.036,6.6582 -7.353,1.348 -15.754,3.078 -18.667,3.8457 -5.738,1.5119 -28.206,4.9419 -45.297,6.9141 -5.867,0.6769 -25.19,1.5921 -42.942,2.0351 -91.824,3.0824 -177.969,-5.5989 -249.22,-54.4921 -2.29,-1.6077 -7.787,-5.459 -12.215,-8.5586 -11.963,-8.3722 -44.602,-40.643 -51.401,-50.8203 -12.468,-18.6639 -17.048,-28.7545 -19.025,-41.9219 -3.431,-22.8482 -1.356,-47.5169 4.865,-57.8574 4.696,-7.8052 15.002,-21.7637 16.069,-21.7637 0.522,0 2.505,-2.6565 4.408,-5.9024 1.902,-3.2458 5.179,-6.7608 7.283,-7.8105 3.671,-1.8312 3.921,-1.7506 6.125,1.9805 1.263,2.1388 2.693,6.6611 3.178,10.0488 0.763,5.3389 1.39,6.2956 4.703,7.1816 15.892,-0.1867 33.049,-11.1487 35.681,-25.7793 2.001,-0.6671 -1.637,-7.734 -8.343,-16.207 -2.824,-3.5679 -4.83,-6.9798 -4.457,-7.582 13.377,-13.0126 43.895,-26.4074 61.476,-28.3731 7.107,-1.3497 14.604,-1.9628 20.561,-2.1054 19.602,0.4104 35.065,5.0595 53.254,9.1113 6.966,1.5531 15.667,3.1828 19.334,3.6211 3.666,0.4382 7.013,0.9962 7.437,1.2422 2.431,1.4096 42.039,4.0064 57.895,3.7949 10.747,-0.1432 52.681,-1.7896 64.668,-2.5391 11.981,-0.7491 24.394,-2.432 36,-4.8808 6.966,-1.47 16.565,-3.4952 21.332,-4.4981 4.766,-1.0029 10.468,-2.0938 12.668,-2.4258 4.14,-0.625 9.391,-1.808 25.332,-5.705 7.328,-1.7916 18.092,-2.6844 29.771,-2.7207 z m -449.82,4.0273 c 2.161,0.1272 2.942,1.5296 1.049,2.5918 -2.62,1.4699 -8.332,2.178 -8.332,1.0332 0,-1.7284 2.569,-3.2005 6.275,-3.5957 0.361,-0.038 0.699,-0.047 1.008,-0.029 z m 6.064,14.2871 c 0.794,-0.049 0.966,0.5986 0.448,1.9492 -0.433,1.1273 0.23,3.1739 1.472,4.5469 2.148,2.3734 2.02,2.7158 -2.623,6.9512 -6.653,6.0697 -7.057,6.1923 -14.644,4.4863 -5.175,-1.1634 -6.759,-2.13 -7.078,-4.3184 -0.291,-1.9957 0.487,-3.0736 2.666,-3.6914 4.318,-1.2245 11.828,-4.9279 15.591,-7.6894 1.962,-1.4393 3.375,-2.1856 4.168,-2.2344 z m 12.35,18.8672 6.15,7.5176 c 10.705,13.0836 10.077,11.6046 6.852,16.1347 -3.378,4.743 -4.862,5.0693 -6.051,1.3243 -0.475,-1.4981 -4.529,-6.2867 -9.006,-10.6407 -4.477,-4.3538 -7.878,-8.1179 -7.558,-8.3632 0.32,-0.2454 2.614,-1.6889 5.097,-3.209 z m 424.935,45.0332 c -0.546,0 -1.927,1.4245 -3.068,3.166 -1.909,2.9131 -1.859,3.567 0.609,8.1719 4.148,9.2754 -1.427,20.6025 -4.016,25.1387 -5.215,9.118 -9.655,13.6822 -20.306,20.873 -7.595,5.1274 -10.902,6.6775 -12.145,5.6914 -3.745,-2.9708 -27.519,-12.873 -35.041,-14.5957 -22.38,-5.1252 -33.36,-6.237 -60,-6.0723 -24.805,0.1533 -40.825,1.847 -59.787,6.3184 -4.517,1.0652 -9.898,1.9421 -11.957,1.9551 -5.042,0.027 -27.528,7.4283 -34.635,11.4004 -3.146,1.7586 -7.092,5.0532 -8.769,7.3222 -2.133,2.8845 -3.522,3.7338 -4.617,2.8243 -0.862,-0.7153 -2.017,-1.3539 -2.565,-1.4219 -17.707,-3.7567 -31.35,-31.7785 -24.197,-44.8848 3.123,-4.8755 5.359,-6.7491 11.008,-9.2344 3.966,-1.7452 4.372,-2.392 3.556,-5.6425 -1.164,-4.638 -0.557,-4.2768 -7.461,-4.4668 -8.891,-0.2447 -15.28,3.1245 -19.877,10.4804 -7.817,14.2961 -6.463,20.8802 -2.547,35.6426 9.28,19.475 21.519,30.0439 38.514,37.3731 14.383,5.1675 29.549,10.7223 43.334,13.2754 6.6,1.2108 13.261,2.4487 14.801,2.7519 27.149,4.2898 57.236,2.9687 84.533,-0.1035 15.021,-1.7515 33.584,-4.8604 40.147,-6.7246 3.952,-1.1227 9.286,-2.5686 11.853,-3.2129 12.986,-3.2596 17.527,-4.6532 27.334,-8.3926 5.867,-2.237 11.904,-5.1705 13.418,-6.5176 1.514,-1.3469 3.23,-2.4492 3.815,-2.4492 1.302,0 13.241,-9.8676 18.548,-15.332 10.422,-10.7308 16.276,-25.9474 14.834,-38.5567 -0.51,-4.4608 -1.828,-9.8681 -2.929,-12.0156 -2.033,-3.9644 -10.572,-12.7617 -12.387,-12.7617 z m -445.576,44.8516 c -0.105,-0.015 -0.208,-0.012 -0.306,0.01 -0.658,0.1461 -1.186,1.1368 -1.92,3.2422 -2.312,6.6308 2.195,31.0857 6.369,34.5625 1.133,0.9441 3.557,4.9594 7.639,12.6524 12.244,14.8572 37.633,45.5021 56.763,52.0429 1.686,0.5037 4.394,1.7548 6.02,2.7793 4.339,2.261 9.096,3.437 13.711,4.9824 3.913,1.3052 5.334,0.8416 5.334,-1.7382 0,-2.8982 -4.854,-8.0508 -7.584,-8.0508 -0.962,0 -1.75,-0.8907 -1.75,-1.9785 0,-1.0876 -2.849,-3.5206 -6.332,-5.4082 -34.002,-25.7237 -56.26,-47.8136 -72.334,-81.2813 -1.417,-2.9334 -2.597,-6.3083 -2.621,-7.5019 -0.02,-1.1935 -0.881,-2.8644 -1.901,-3.711 -0.419,-0.348 -0.771,-0.5562 -1.088,-0.6015 z m 323.944,15.6093 c 12.283,0.3803 23.232,0.7883 24.332,0.9043 7.545,0.7966 25.957,4.3013 27.783,5.2891 1.219,0.6598 4.467,1.56 7.217,2 2.75,0.44 5,1.2801 5,1.8672 0,0.5871 -4.649,2.4172 -10.332,4.0683 -5.684,1.6509 -10.634,3.4476 -11,3.9903 -51.524,12.4513 -116.976,14.5344 -152.342,2.8574 -1.676,-1.5302 4.221,-6.7715 7.619,-6.7715 1.745,0 4.871,-0.8413 6.947,-1.8711 28.57,-9.2889 66.62,-13.1218 94.776,-12.334 z" fill="#00B894" transform="translate(15.017953,31.264717) matrix(0.32489611,0,0,0.32489611,-2791.3711,-1975.2751)"/>
</svg>