<?xml version="1.0" ?><svg height="156.69991mm" viewBox="0 0 105.3183 156.69991" width="105.3183mm" xmlns="http://www.w3.org/2000/svg">
    <path d="m 12512.549,15300.361 c -43.685,-0.1 -92.777,9.653 -123.945,26.457 -41.558,22.407 -50.708,57.708 -62.745,89.006 -14.852,64.264 1.739,119.261 38.799,150.332 37.06,31.072 49.096,27.139 49.096,27.139 0,0 -14.065,5.529 30.09,23.601 44.155,18.073 105.414,-13.796 105.414,-13.796 0,0 39.974,-1.71 76.527,-19.897 36.552,-18.187 54.291,-70.239 52.137,-110.49 -2.154,-40.251 -17.485,-90.365 -30.027,-122.065 -12.545,-31.698 -44.346,-37.513 -94.329,-46.806 -12.495,-2.323 -26.456,-3.449 -41.017,-3.481 z m -163.428,330.821 c -23.071,0.133 -42.865,4.992 -46.4,12.845 -5.955,13.228 -1.711,49.829 43.838,92.077 45.547,42.246 102.372,23.888 130.943,15.222 0,0 12.228,-14.995 5.006,-37.058 -7.221,-22.065 -49.413,-64.139 -85.586,-76.168 -14.695,-4.888 -32.016,-7.01 -47.801,-6.918 z" fill="#FFFFFF" paint-order="markers stroke fill" transform="translate(51.419914,-22.02695) translate(-1779.6754,-2693.4672) matrix(0.26458333,0,0,0.26458333,-1524.344,-1328.9457)"/>
    <path d="m 1791.0363,2870.5443 c -0.5624,-1.0961 -2.0646,-5.4807 -3.3388,-9.744 -1.2743,-4.2634 -4.3411,-10.7668 -6.8155,-14.4515 -3.1342,-5.1033 -3.1257,-5.6115 -8.7084,-4.1944 -2.3893,0.6064 -4.7293,0.9011 -4.7293,1.2813 0,0.3804 -7.5348,0.1798 -10.6918,-0.1379 -1.3168,1.6406 -3.4944,2.44 -2.7675,-0.342 0.085,-0.3265 -2.6981,-1.2355 -5.2568,-2.3644 -2.5593,-1.1291 -6.9922,-4.2406 -9.8506,-6.9147 -3.2111,-3.0039 -4.6151,-4.8973 -5.4445,-4.3843 -0.9254,0.5724 -4.1825,0.6448 -1.212,-2.2765 0.7556,-0.7431 -0.7799,-2.2577 -1.9237,-4.8488 -2.9503,-6.6919 -3.0541,-12.8773 2.0276,-15.3754 4.2034,-2.066 17.3205,-2.1297 22.8846,-0.5344 2.3103,0.6628 2.7534,1.1131 3.563,0.3052 0.8824,-0.8823 3.0808,-1.2507 2.0508,1.5163 l 8.8927,4.9131 c 2.867,-2.0838 4.1938,-0.2996 2.4715,1.7992 0,0 3.2651,5.885 4.9638,5.885 1.2807,0 2.6169,5.732 2.639,11.3215 0,1.9678 1.945,5.5884 5.4088,10.1077 6.1337,8.0021 10.1431,17.5543 10.3923,24.7585 0.1305,3.8077 -0.2464,4.9997 -1.6815,5.2944 -1.0187,0.2089 -2.312,-0.5166 -2.8737,-1.6125 z m -26.0811,-31.1771 c 0.3802,-0.6151 1.1642,-0.826 1.7429,-0.4688 1.6251,1.0046 6.3577,-1.3391 6.3529,-2.7863 -6.0258,-8.2236 -24.2509,-16.946 -33.2412,-17.6567 -4.9,-0.033 -8.444,-3.1194 -5.7555,2.0795 0.9791,1.8929 2.2623,3.4413 2.8523,3.4413 0.5897,0 1.0723,0.6505 1.0723,1.4452 0,1.7771 5.6812,7.3601 7.4892,7.3601 0.7239,0 1.3158,0.4852 1.3158,1.0782 0,1.8149 8.5712,5.6933 9.4478,4.2753 0.5173,-0.8371 1.0847,-0.6576 1.7651,0.5582 1.1068,1.9775 5.8676,2.4387 6.9584,0.674 z m -13.5625,-6.6547 c 0.2652,-0.7943 1.1317,-1.6611 1.926,-1.9259 0.8254,-0.2746 1.2381,0.1377 0.963,0.9628 -0.2652,0.7946 -1.1315,1.6613 -1.9261,1.9261 -0.8252,0.2748 -1.2381,-0.1363 -0.9629,-0.963 z m -9.0113,-7.0019 c 0,-0.8242 0.7428,-1.7835 1.6508,-2.1321 0.9693,-0.3723 1.6508,0 1.6508,0.8651 0,0.8242 -0.7428,1.7836 -1.6508,2.132 -0.9694,0.372 -1.6508,0 -1.6508,-0.865 z m 34.5224,7.6082 c 0.9493,-2.4746 -1.5643,-7.1411 -3.8471,-7.1411 -1.3381,0 -1.7777,-0.5543 -1.3407,-1.6921 0.7469,-1.9467 -2.7018,-6.2768 -4.2416,-5.3253 -0.5651,0.3491 -1.2906,-0.3704 -1.6119,-1.5993 -0.6821,-2.6087 -11.5989,-8.179 -15.0404,-7.6746 -1.7858,0.2621 0.3612,2.6298 10.1353,11.1805 6.8204,5.9668 12.6655,11.5385 12.9889,12.3823 1.343,1.9887 2.4236,1.1745 2.9575,-0.1304 z m -26.7973,-18.8859 c -5.4095,-4.7768 -8.4431,-7.2118 -14.8077,-4.792 -4.9095,1.8667 -3.4252,4.0596 3.211,4.7448 3.3189,0.3422 8.6433,1.8564 11.8318,3.3637 3.1886,1.508 5.9534,2.7827 6.1443,2.8333 0.1904,0.052 -2.9107,-3.0868 -6.3794,-6.1498 z m 67.3061,53.8437 c -0.5445,-1.0594 -1.3154,-7.6218 -1.7136,-14.5835 -0.9954,-17.407 -2.5688,-29.5042 -5.4387,-41.8235 l -2.436,-10.4561 -6.0315,-0.5835 c -4.7557,-0.4602 -7.0505,0.7544 -10.0448,2.4776 -3.0883,1.7774 -7.0692,2.9505 -16.2104,3.0726 -7.1196,0.095 -16.4845,-1.1283 -16.7797,-10.2346 0.075,-4.1619 3.4266,-7.792 6.5684,-9.2231 2.7987,-1.2754 5.9672,-2.6355 2.577,1.2259 -8.0154,9.1289 -4.7889,14.6488 11.1478,13.43 11.0104,-0.8416 16.9261,-3.8643 17.9184,-9.1555 0.9678,-5.1585 4.7271,-5.0357 3.8428,0.2012 -0.887,5.2468 -1.33,7.2657 6.2672,3.3885 18.0858,-9.2296 24.3333,-21.4269 18.5153,-36.1478 -2.3935,-6.0557 -3.5067,-6.5338 -4.516,-1.9387 -0.7731,3.5205 -2.7542,5.6191 -2.7542,2.9179 0,-0.8947 0.8005,-4.7528 1.7798,-8.5734 1.5326,-5.9836 1.3075,-7.9281 0.3794,-14.3652 -2.0337,-14.1061 -18.2141,-15.2448 -28.1214,-15.958 -15.3319,-1.1037 -17.075,2.7 -19.0103,12.8837 -0.7412,3.9002 -1.6958,5.4743 -2.399,4.3633 -1.7456,-2.7603 -1.1525,-9.1503 1.2084,-13.0227 1.2411,-2.0356 2.0052,-3.9525 1.6981,-4.2594 -10.4314,-0.159 -27.2524,8.1204 -30.0088,18.2259 -0.4388,1.6089 -2.2355,4.0248 -2.9476,5.9546 -5.1084,13.8435 0.058,39.1855 13.0229,45.9313 4.0316,2.0977 4.7497,4.3564 2.8422,4.9618 -8.3822,2.6606 -22.6621,-10.1071 -23.4653,-34.9956 -0.186,-5.7642 1.5226,-15.8424 4.3814,-19.2403 1.5002,-1.783 2.4313,-4.2783 2.7282,-5.4643 2.8485,-11.3792 22.6787,-23.5185 33.8947,-20.4678 2.878,0.9497 4.4995,0.8507 7.6571,-0.4687 5.1522,-2.1527 13.9651,0.2227 24.6759,2.0365 16.079,2.7228 19.7841,12.8 20.0796,28.1995 0.031,1.6377 1.1886,4.7276 2.64,6.8662 6.1769,9.102 5.3446,22.1671 -1.0679,32.2791 -2.5506,4.0214 -10.676,10.7832 -14.4831,12.0519 -0.5562,0.1875 -0.053,3.063 1.1174,6.3941 5.0255,14.2996 10.4855,58.8089 7.8238,63.7821 -1.4734,2.7532 -4.009,2.9045 -5.3375,0.318 z m -31.012,-79.8674 c -3.4175,-1.7038 -4.0586,-4.6905 -1.5918,-7.4162 2.0652,-2.282 1.4924,-2.8049 -3.7935,-3.4641 -3.4645,-0.432 -5.7114,-3.8409 -3.458,-5.2461 1.3858,-0.8643 1.3482,-1.2886 -0.2744,-3.0821 -2.5602,-2.8293 -2.3927,-9.2158 0.3326,-12.6803 2.7125,-3.449 12.1405,-6.7855 16.2733,-5.76 1.6357,0.4058 4.146,1.8155 5.5785,3.1326 l 2.6049,2.3947 -0.7664,-3.577 c -0.4506,-2.1056 -0.3262,-3.5768 0.3028,-3.5768 1.1328,0 4.6093,7.8103 4.6093,10.3559 0,0.8283 0.8667,1.4376 1.9256,1.3533 1.2489,-0.1 2.0563,0.7693 2.2968,2.4704 0.3221,2.2729 0,2.5523 -2.3914,2.0946 -1.9898,-0.3804 -2.9037,0 -3.2654,1.3934 -0.3697,1.4126 0.3361,2.089 2.667,2.5551 2.7584,0.5517 3.1699,1.1275 3.1699,4.4337 0,4.3797 -4.5412,8.8705 -8.0445,7.9544 -2.4877,-0.6507 -5.3652,0.2902 -4.6123,1.5093 0.8666,1.4024 -3.0612,5.2157 -6.0696,5.8925 -1.5217,0.3418 -3.9936,0 -5.4929,-0.7373 z m 8.8611,-11.6656 c -0.6757,-1.2625 -1.7063,-2.2956 -2.2902,-2.2956 -0.5841,0 -1.0619,-0.4951 -1.0619,-1.1002 0,-1.9976 3.0005,-1.1455 4.8447,1.3754 1.8048,2.4674 1.8092,2.4641 1.1782,-0.961 -0.4627,-2.5099 -0.1716,-3.6142 1.0744,-4.0925 1.5767,-0.6053 2.4981,-4.0265 1.0839,-4.0265 -0.3433,0 -2.2783,1.2619 -4.3002,2.8041 -2.0221,1.5424 -5.4619,3.094 -7.6447,3.448 -3.4018,0.5522 -3.7697,0.8832 -2.5786,2.3232 1.4408,1.7414 9.8439,5.8996 10.5322,5.2117 0.2153,-0.2153 -0.1623,-1.4239 -0.8378,-2.6866 z m -7.1657,-10.0623 c 0.3953,-0.6398 0.3907,-2.4711 0,-4.0702 -0.5736,-2.2856 -0.9447,-2.5663 -1.7374,-1.3129 -1.3235,2.0918 -1.3276,6.5463 0,6.5463 0.5696,0 1.3592,-0.5237 1.7546,-1.1632 z m -5.6077,-3.9194 c 0.8545,-3.4046 0.4616,-4.0164 -1.978,-3.0804 -2.6294,1.0092 -2.2496,5.9617 0.457,5.9617 0.4387,0 1.1232,-1.2967 1.521,-2.8813 z m 12.1775,0.6724 c 0.377,-0.6097 -0.1083,-1.4139 -1.0831,-1.7872 -2.1073,-0.8086 -3.2819,0.081 -2.2688,1.7216 0.914,1.4787 2.4597,1.5091 3.3519,0.065 z m -9.3601,-7.0816 c 0,-2.3309 -1.7625,-3.0202 -3.2228,-1.2605 -0.9713,1.1704 -0.9361,1.6666 0.1505,2.1024 2.4303,0.9751 3.0724,0.7991 3.0724,-0.8419 z m 9.9055,0.4855 c -2.1337,-1.3791 -3.3016,-1.3791 -3.3016,0 0,0.6052 1.1143,1.0931 2.4765,1.0837 2.0022,0 2.1604,-0.2215 0.8251,-1.0837 z m -6.0532,-2.2015 c 0.374,-0.6053 0.1554,-1.1004 -0.4854,-1.1004 -0.6412,0 -1.1657,0.4951 -1.1657,1.1004 0,0.6057 0.2184,1.1008 0.4856,1.1008 0.2682,0 0.7912,-0.4951 1.1655,-1.1008 z m -16.6802,24.7167 c -0.3585,-0.9342 -0.3548,-1.9952 0,-2.3579 0.9515,-0.9517 4.1064,1.917 3.3874,3.0805 -0.9394,1.5198 -2.6767,1.1503 -3.3955,-0.7226 z m 8.4254,0.5978 c 0,-0.6052 0.4954,-1.1004 1.1005,-1.1004 0.6053,0 1.1007,0.4952 1.1007,1.1004 0,0.6056 -0.4954,1.1008 -1.1007,1.1008 -0.6051,0 -1.1005,-0.4952 -1.1005,-1.1008 z m -11.7271,-12.7045 c -0.3584,-0.9341 -0.4138,-1.9366 -0.1218,-2.2272 0.9807,-0.9807 4.1457,0.8461 4.1457,2.3922 0,2.0829 -3.2105,1.951 -4.0228,-0.1658 z m 1.1008,-8.8049 c -0.3586,-0.9344 -0.3645,-1.986 0,-2.3376 1.1103,-1.1103 4.0356,0.5929 4.0356,2.3504 0,2.1971 -3.1787,2.1866 -4.0229,0 z m 6.4989,-5.6851 c -1.9201,-0.704 -1.7197,-3.2556 0.317,-4.0369 0.9806,-0.3765 1.9677,0.07 2.3471,1.0568 0.7755,2.021 -0.7195,3.693 -2.6641,2.9801 z m 7.0625,-4.3568 c -1.2666,-1.2661 -0.8017,-2.5682 0.9169,-2.5682 0.9083,0 1.651,0.7434 1.651,1.6511 0,1.7189 -1.3016,2.1837 -2.5679,0.9171 z m 7.4993,-0.4016 c -0.4276,-0.6917 -0.2589,-1.7755 0.3737,-2.4085 1.4792,-1.4792 4.9276,-0.1905 4.3259,1.6186 -0.6126,1.8396 -3.7271,2.3632 -4.6996,0.7899 z" fill="#00B894" transform="translate(51.419914,-22.02695) translate(-1779.6754,-2693.4672)"/>
</svg>