<?xml version="1.0" ?><svg height="207.35304mm" viewBox="0 0 259.96301 207.35304" width="259.96301mm" xmlns="http://www.w3.org/2000/svg">
    <path d="m 48618.998,15222.477 c -10.033,0.01 -20.105,0.146 -30.387,0.298 -51.96,10.053 -37.912,52.704 2.539,59.254 40.451,6.549 110.523,-5.789 137.942,9.139 12.928,7.038 59.034,19.518 108.334,32.363 -3.288,16.129 -3.044,29.314 -0.5,40.489 -38.044,-12.475 -70.842,-23.807 -85.494,-29.592 -42.821,-16.908 -131.238,-49.5 -190.645,-37.162 -59.407,12.338 -87.483,43.355 -100.807,63.816 -28.066,43.097 36.616,28.172 53.993,18.279 22.849,-12.642 102.132,-30.133 186.861,3.963 147.835,59.491 204.519,78.624 331.418,89.682 72.006,2.926 117.089,-23.881 140.107,-16.57 23.018,7.312 20.141,16.756 -2.877,26.199 -23.018,9.444 -43.667,21.171 -43.498,43.562 0.109,14.419 0.909,35.619 1.573,51.885 -14.447,2.321 -25.71,5.732 -29.405,11.039 -8.801,12.643 -37.57,81.952 -33.677,95.508 0.09,0.168 0.28,0.322 0.396,0.486 -13.812,6.58 -53.079,24.514 -85.625,31.283 -101.022,21.011 -205.446,2.44 -280.406,-55.103 -24.194,-18.572 -42.786,-24.57 -3.485,-80.453 39.303,-55.883 45.573,-102.072 15.768,-137.049 -29.806,-34.976 -77.437,-99.471 -196.805,-23.275 -17.843,11.39 -15.046,50.362 9.938,42.078 24.984,-8.284 72.321,-27.22 101.834,-13.151 29.514,14.069 45.147,39.711 21.916,71.926 -23.231,32.215 -84.239,82.284 -43.686,145.164 66.511,103.13 251.803,153.025 383.965,106.772 27.891,-9.762 60.129,-27.517 84.985,-42.504 -12.205,18.365 -55.637,58.815 -132.541,66.222 -79.677,7.673 -195.746,-5.134 -260.723,-28.507 -64.976,-23.373 -120.955,-97.963 -157.119,-133.86 -36.163,-35.898 -58.374,20.206 -36.323,61.748 23.717,49.127 115.457,124.081 169.75,137.311 54.294,13.23 165.423,28.858 263.524,24.801 74.539,-3.083 117.067,-14.479 142.891,-31.028 -42.888,64.395 -184.74,53.579 -250.635,57.199 -39.899,2.192 -44.947,2.01 -54.752,24.813 -6.602,38.092 54.945,33.377 156.683,33.287 101.738,-0.09 140.18,-32.5 191.631,-58.447 51.451,-25.948 37.279,-75.049 36.405,-111.569 -0.606,-25.304 12.42,-57.214 20.55,-74.646 0.39,0 0.766,0.01 1.155,0.02 -4.872,12.311 -6.976,30.911 -10.704,53.722 -4.367,26.734 20.167,48.128 0.122,98.76 -23.817,60.159 -90.828,80.638 -175.569,94.676 -37.616,6.232 -18.783,45.516 17.239,45.084 142.754,-1.712 229.619,-75.819 208.755,-206.256 -4.504,-31.149 -0.487,-71.43 1.223,-85.924 17.952,-0.348 31.244,-1.101 33.295,-2.004 7.616,-3.351 50.436,-115.459 57.545,-139.221 5.153,-17.227 16.077,-54.534 19.558,-84.367 24.812,-10.403 67.64,-29.085 82.684,-40.666 31.987,-24.623 62.676,-103.708 6.24,-132.75 -85.082,-43.783 -134.982,-2.395 -179.326,21.977 -40.788,22.417 -157.29,20.676 -208.537,-1.43 1.526,-29.128 -15.996,-50.534 -45.412,-68.014 -9.949,-5.912 -22.967,-8.991 -36.969,-9.013 -21.718,-0.04 -45.775,7.341 -64.488,22.871 -64.917,-18.196 -132.463,-33.965 -156.41,-37.33 -34.147,-4.799 -63.914,-5.826 -94.014,-5.783 z m 706.449,129.855 c 8.611,-0.15 16.504,1.173 22.766,4.639 25.049,13.861 40.282,33.053 16.756,46.761 -10.368,6.042 -31.552,17.138 -53.178,28.625 -2.771,-5.823 -6.247,-8.462 -9.922,-8.845 -5.479,-0.571 -11.362,3.693 -15.848,9.176 -1.682,2.057 -4.734,9.23 -8.224,18.128 -9.888,5.488 -18.785,10.567 -24.965,14.541 12.842,-29.056 15.533,-67.425 -30.375,-68.021 -46.882,-0.609 -114.108,31.411 -187.465,22.818 -11.862,-1.389 -32.983,-6.434 -58.601,-13.463 8.593,-10.939 16.804,-23.816 23.541,-36.802 40.288,12.714 90.372,24.445 115.56,27.295 30.973,3.503 118.646,-9.903 137.602,-21.784 14.217,-8.91 46.521,-22.618 72.353,-23.068 z m -456.847,114.613 c -29.429,0.32 -52.241,17.905 -67.315,48.608 -16.078,32.747 -24.537,99.159 -23.691,142.418 2.37,15.384 39.267,33.967 73.117,42.193 33.85,8.225 99.519,4.723 104.088,-11.576 4.57,-16.298 0.508,-37.625 -0.338,-61.844 -0.846,-24.219 -12.865,-96.264 -25.559,-122.615 -12.694,-26.352 -22.003,-34.884 -54.33,-37.016 -2.02,-0.133 -4.01,-0.189 -5.972,-0.168 z m 346.462,44.131 c -11.731,22.895 -8.021,41.61 23.577,54.414 -1.091,3.425 -3.221,10.074 -3.221,10.074 0,0 -0.679,-3.197 -39.268,-2.283 -6.736,0.16 -14.012,0.467 -21.195,0.758 7.641,-9.967 -0.348,-29.844 18.223,-45.404 7.719,-6.468 15.013,-12.04 21.884,-17.559 z m -122.263,182.682 c 1.396,0.193 2.864,0.369 4.332,0.549 -0.471,0.695 -0.415,0.597 -0.901,1.316 z" fill="#FFFFFF" paint-order="markers stroke fill" transform="translate(113.62172,-45.452666) matrix(0.26458333,0,0,0.26458333,-12933.482,-3977.9856)"/>
    <path d="m 48735.633,15206.696 c -8.63,0 -20.977,13.133 -31.226,33.225 -6.655,13.047 -11.019,16.881 -19.242,16.881 -8.734,0 -10.163,-1.497 -7.987,-8.356 1.744,-5.485 0.751,-8.349 -2.888,-8.349 -3.046,0 -7.888,3.756 -10.756,8.349 -7.691,12.313 -14.952,10.559 -11.598,-2.806 2.758,-10.989 2.537,-10.924 -14.176,4.174 -9.335,8.436 -19.317,15.275 -22.179,15.175 -2.866,-0.08 1.839,-6.19 10.451,-13.568 16.058,-13.757 19.176,-21.183 11.016,-26.225 -6.069,-3.751 -35.416,28.361 -33.737,36.92 0.801,4.086 -2.534,6.534 -8.351,8.407 -6.575,2.118 -5.383,13.884 26.187,7.08 52.574,-11.33 102.654,1.902 144.328,14.425 18.035,5.418 35.14,10.057 38.012,10.276 7.66,0.624 6.363,-6.593 -1.742,-9.703 -5.308,-2.035 -5.802,-3.83 -2.088,-7.543 13.444,-13.448 -4.062,-25.875 -28.664,-20.344 -15.51,3.482 -16.669,3.154 -14.352,-4.15 2.925,-9.209 -5.869,-10.888 -14.258,-2.721 -4.308,4.2 -5.085,3.844 -3.964,-1.815 1.804,-9.119 -2.475,-9.345 -15.487,-0.822 -17.643,11.562 -16.672,2.782 1.662,-15.01 17.327,-16.815 22.827,-33.501 11.039,-33.5 z m 133.296,23.144 c -19.152,10.764 -31.429,33.313 -39.491,48.273 -17.051,31.642 -12.178,43.353 -5.797,77.136 0.708,10.994 2.917,22.051 7.291,32.85 7.102,17.532 20.371,32.875 36.133,44.158 7.97,10.001 15.977,16.712 23.068,16.316 4.46,-0.249 8.203,0.327 9.653,4.104 3.144,8.195 14.774,8.276 17.902,0.125 0.155,-0.404 0.392,-0.787 0.66,-1.162 13.485,0.786 26.352,-2.038 36.846,-9.711 12.768,-9.336 20.114,-15.664 24.412,-18.445 17.155,18.497 33.317,13.148 15.484,-20.323 2.775,-3.862 -0.335,-0.264 6.42,-13.226 9.776,-18.755 23.555,-48.811 24.202,-71.903 10.43,-4.137 12.032,-7.109 11.924,-18.128 -0.238,-24.227 -24.174,-44.87 -34.82,-52.458 9.623,-11.973 -11.702,-22.428 -30.368,-26.703 -35.022,-8.021 -71.024,-8.042 -103.519,9.097 z m -85.903,39.929 c 0.65,0.512 -0.499,2.145 -3.047,5.217 -3.135,3.776 -9.603,6.867 -14.375,6.867 -10.592,0 -4.996,-6.126 9.662,-10.575 4.657,-1.414 7.109,-2.021 7.76,-1.509 z m 523.857,20.564 c -8.869,-0.128 -38.787,26.928 -38.847,35.151 -0.02,2.183 2.217,1.715 4.972,-1.041 7.162,-7.162 11.69,-6.195 11.69,2.505 0,4.782 -6.881,10.863 -18.899,16.704 -10.397,5.052 -19.64,9.179 -20.546,9.179 -0.904,0 -2.879,-5.635 -4.395,-12.523 -3.207,-14.603 -8.697,-16.234 -12.658,-3.756 -2.026,6.382 -4.037,7.519 -7.381,4.178 -6.78,-6.78 -11.277,-5.602 -11.277,2.957 0,4.152 -2.756,11.197 -6.129,15.656 -5.872,7.763 -6.137,7.619 -6.262,-3.383 -0.07,-6.312 -2.016,-11.476 -4.311,-11.476 -2.295,0 -4.173,2.227 -4.173,4.949 0,6.885 -16.974,24.275 -23.694,24.275 -7.757,0 -7.01,-2.8 4.905,-18.416 12.41,-16.272 12.863,-19.162 2.988,-19.162 -9.135,0 -21.777,20.374 -21.777,35.096 0,9.901 -1.479,10.836 -17.092,10.836 -13.782,0 -17.531,-1.676 -19.36,-8.662 -1.75,-6.699 -4.499,-8.103 -12.134,-6.186 -12.025,3.019 -12.082,2.147 -1.229,-19.129 9.633,-18.883 6.871,-27.88 -3.844,-12.535 -11.87,16.991 -25.086,29.817 -30.707,29.787 -2.975,-0.01 0.07,-4.406 6.768,-9.764 8.217,-6.574 10.583,-10.726 7.271,-12.771 -8.248,-5.098 -21.369,1.661 -24.066,12.396 -2.912,11.609 -3.171,11.702 -15.488,5.752 -8.997,-4.347 -11.122,-0.411 -2.883,6.461 19.244,16.049 47.734,20.153 87.715,22.092 46.557,2.259 79.637,-4.644 121.08,-25.258 14.928,-7.425 28.731,-14.188 30.679,-15.027 1.944,-0.838 1.302,2.649 -1.429,7.758 -3.163,5.909 -3.517,10.728 -0.975,13.275 5.267,5.263 17.656,-7.064 17.656,-17.568 0,-10.124 12.103,-16.553 31.174,-16.553 34.467,0 69.035,26.255 69.035,52.428 0,14.819 -10.839,25.407 -45.511,44.459 -7.118,3.912 -13.047,9.077 -12.946,11.48 0.394,9.419 24.33,-2.048 32.047,-6.242 32.483,-17.656 40.185,-31.435 38.246,-51.74 -1.309,-13.721 -0.281,-16.981 5.354,-16.981 8.304,0 13.73,-11.261 6.584,-13.666 -3.767,-1.268 -3.662,-3.284 0.437,-8.248 8.136,-9.859 -1.147,-13.115 -13.783,-4.836 -16.142,10.576 -16.137,5.321 0.03,-17.412 22.284,-31.347 19.298,-42.318 -4.461,-16.383 -7.362,8.039 -16.741,14.618 -20.849,14.618 -6.645,0 -6.431,-1.108 1.92,-10 12.245,-13.033 3.588,-19.501 -9.565,-7.143 -11.774,11.06 -19.254,11.231 -19.254,0.439 0,-12.32 -5.841,-10.149 -11.25,4.174 -5.803,15.376 -15.624,16.979 -12.777,2.088 2.7,-14.113 -4.08,-13.161 -20.654,2.906 l -13.776,13.348 v -10.908 c 0,-7.04 4.077,-13.95 11.489,-19.477 10.879,-8.121 10.998,-8.576 2.343,-8.701 z m -647.9,4.029 c -2.505,0 -7.452,5.607 -10.994,12.458 -3.542,6.848 -11.954,15.305 -18.69,18.791 -17.866,9.237 -20.395,7.772 -7.402,-4.278 12.257,-11.365 14.016,-16.531 7.08,-20.818 -7.4,-4.576 -25.017,10.261 -27.619,23.263 -3.019,15.101 -13.949,16.591 -13.949,1.901 0,-12.113 -6.058,-13.672 -12.192,-3.135 -4.056,6.962 -4.257,6.962 -4.382,0 -0.185,-10.663 -6.427,-8.94 -15.17,4.18 l -7.655,11.478 -2.254,-12.47 c -3.172,-17.543 -13.285,-17.66 -22.66,-0.25 -4.331,8.042 -11.654,17.956 -16.277,22.031 -8.104,7.142 -8.324,7.109 -6.135,-0.943 1.245,-4.591 5.979,-9.569 7.58,-14.163 2.536,-7.278 -0.61,-9.625 -8.191,-1.035 -11.023,12.492 -11.68,29.813 -1.129,29.813 7.743,0 25.249,-16.369 33.498,-31.319 4.359,-7.904 4.612,-7.792 4.672,2.088 0.08,13.955 -2.685,17.235 -25.83,30.606 -16.932,9.782 -28.262,21.577 -28.262,29.427 0,1.172 6.096,-3.442 13.547,-10.244 21.874,-19.98 53.678,-30.018 101.277,-31.976 46.717,-1.923 70.552,3.74 150.315,35.709 16.623,6.708 34.262,15.719 54.529,21.177 14.25,0.215 13.161,-3.747 0.797,-10.292 -13.844,-7.509 -14.01,-8.995 -2.404,-21.35 6.756,-7.193 7.504,-9.664 2.922,-9.664 -3.387,0 -8.41,2.255 -11.166,5.01 -6.232,6.232 -6.48,1.357 -0.499,-9.819 7.337,-13.707 0.556,-14.281 -13.552,-1.15 -7.221,6.714 -11.778,9.857 -10.125,6.963 3.899,-6.823 -0.908,-21.881 -6.983,-21.881 -2.593,0 -9.936,5.007 -16.324,11.129 -11.198,10.728 -12.26,10.921 -29.459,5.519 -10.433,-3.278 -14.958,-6.259 -10.891,-7.185 8.66,-1.977 13.513,-13.636 7.979,-19.17 -2.731,-2.731 -6.262,-2.373 -10.395,1.057 -8.844,7.339 -16.126,1.91 -10.796,-8.051 6.319,-11.81 -4.195,-16.203 -11.704,-4.891 -7.551,11.373 -14.79,11.832 -11.261,0.715 2.997,-9.445 -1.824,-10.922 -10.217,-3.135 -4.625,4.291 -5.061,3.734 -2.449,-3.131 6.542,-17.198 7.249,-22.965 2.82,-22.965 z m 285.438,10.331 c 15.126,10.772 28.68,10.957 33.658,-0.907 5.253,-12.52 19.769,0.118 32.316,14.699 -10.038,47.803 -37.467,99.89 -72.695,111.104 -2.858,-3.986 -5.426,-9.106 -5.426,-16.146 0,-6.962 -1.679,-12.661 -3.73,-12.661 -4.826,0 -11.457,13.404 -9.961,30.746 -1.363,-0.04 -3.062,-0.388 -4.764,-0.74 -2.285,-5.097 -6.672,-9.562 -17.959,-12.347 -12.699,-3.134 -18.414,-7.217 -18.414,-12.346 0,-4.402 -2.657,-5.765 -8.35,-4.277 -5.431,1.421 -8.349,0.126 -8.349,-3.688 0,-3.232 -3.76,-9.629 -8.354,-14.223 -2.409,-2.409 -4.216,-5.647 -5.588,-9.259 -0.824,-2.494 -1.528,-5.037 -2.123,-7.623 -3.481,-18.964 3.23,-42.142 14.842,-32.502 9.031,7.494 34.798,-2.487 55.307,-21.42 13.565,-13.234 14.544,-19.12 29.59,-8.41 z m -302.159,29.544 c 8.108,0.621 20.305,4.807 20.305,8.053 0,2.436 -0.949,2.364 -18.789,-1.519 -7.627,-1.664 -10.626,-3.927 -7.658,-5.799 1.19,-0.752 3.44,-0.943 6.142,-0.735 z m 593.5,19.252 v 0 c 0.598,0.02 1.085,0.193 1.41,0.52 1.306,1.305 -3.343,5.326 -10.332,8.939 -15.746,8.142 -17.654,8.182 -14.638,0.328 1.315,-3.432 4.156,-5.144 6.312,-3.81 2.158,1.331 6.702,0.112 10.102,-2.707 2.551,-2.112 5.353,-3.342 7.146,-3.274 z m -258.502,2.301 c -0.714,0.08 -1.447,0.271 -2.185,0.606 -5.029,2.283 -10.333,5.987 -11.1,10.007 -0.965,5.058 1.998,9.977 7.748,8.282 4.542,-1.339 8.72,-2.858 12.616,-10.328 1.969,-3.776 -2.08,-9.093 -7.079,-8.567 z m 101.004,13.744 c 1.014,0 1.842,1.878 1.842,4.174 0,2.296 -1.99,4.178 -4.422,4.178 -2.433,0 -3.261,-1.882 -1.842,-4.178 1.419,-2.296 3.41,-4.174 4.422,-4.174 z m 110.649,0 c 2.433,0 3.261,1.878 1.84,4.174 -1.419,2.296 -3.407,4.178 -4.422,4.178 -1.012,0 -1.84,-1.882 -1.84,-4.178 0,-2.296 1.991,-4.174 4.422,-4.174 z m -510.61,13.948 c -2.355,0.699 -5.246,2.913 -9.459,6.869 -8.784,8.254 -15.378,10.024 -39.72,10.66 -22.872,0.595 -29.188,-0.529 -29.188,-5.205 0,-4.218 -3.981,-5.584 -13.57,-4.66 -10.44,1.004 -13.673,3.344 -14.018,10.132 -0.544,10.807 -4.878,18.315 -10.568,18.315 -2.552,0 1.227,-6.784 2.771,-14.914 2.44,-12.848 -0.648,-15.28 -8.15,-1.787 -3.452,5.739 -6.32,14.54 -6.42,19.552 -0.08,5.214 -3.702,9.81 -8.123,11.641 -15.415,6.384 -15.293,16.781 -0.05,9.936 24.661,-11.073 74.317,-14.861 97.791,-3.961 27.201,12.633 35.491,23.059 35.491,44.623 0,22.944 -7.904,39.078 -32.545,66.433 -28.163,31.261 -34.245,43.133 -34.245,67.032 -0.03,42.755 37.812,92.896 89.213,118.199 42.321,20.834 116.602,38.336 173.823,40.957 46.471,2.127 49.632,1.704 98.119,-13.156 56.394,-17.284 98.36,-37.47 119.377,-57.02 6.518,0.246 13.861,0.494 21.343,0.725 -0.738,2.909 -2.546,7.08 -5.396,12.152 -5.095,9.066 -11.214,16.112 -13.59,15.658 -2.377,-0.457 -5.09,2.932 -6.023,7.526 -2.53,12.448 -8.038,16.629 -14.662,11.131 -7.901,-6.554 -11.221,-2.052 -11.555,15.66 -0.263,13.922 -0.602,14.302 -4.867,5.451 -5.9,-12.247 -13.586,-9.68 -13.836,4.625 -0.258,14.913 -10.211,25.478 -10.311,10.935 -0.08,-13.152 -6.05,-22.54 -11.994,-18.867 -6.197,3.83 -5.936,28.645 0.371,34.946 7.352,7.355 -0.735,13.583 -21.209,16.33 -17.082,2.289 -17.207,2.202 -17.207,-11.145 0,-8.843 2.158,-17.777 9.395,-21.285 10.444,-5.063 14.467,-10.815 0,-7.967 -5.949,1.171 -9.356,3.547 -9.524,-7.443 -0.1,-6.372 -7.57,-7.199 -7.513,1.168 0.07,10.064 -4.675,9.785 -7.879,11.693 -4.524,2.696 -4.724,4.791 -0.901,9.397 3.783,4.562 3.72,7.365 -0.281,12.185 -6.99,8.421 -16.701,7.947 -16.701,-0.814 0,-5.296 -3.737,-3.463 -14.795,7.257 -11.451,11.098 -16.11,17.799 -16.1,7.772 0,-5.699 -8.325,-12.996 -9.853,2.635 -1.283,13.128 -19.295,4.644 -15.987,-8.533 3.131,-12.466 -3.748,-13.866 -10.074,-2.051 -5.928,11.081 -12.357,10.696 -9.414,-0.559 3.101,-11.854 -7.796,-8.656 -13.496,3.961 -2.267,5.016 -6.605,9.121 -9.642,9.121 -5.885,0 -3.792,-5.531 6.718,-17.765 9.021,-10.503 3.431,-13.389 -9.508,-4.909 -8.294,5.433 -12.2,6.031 -15.81,2.42 -9.498,-9.501 -24.432,-5.577 -29.455,7.731 -5.139,13.617 -11.248,16.667 -11.248,5.619 0,-6.154 -1.033,-6.054 -9.397,0.932 -5.168,4.312 -7.046,5.167 -4.177,1.898 6.895,-7.851 6.608,-12.623 -0.76,-12.623 -3.291,0 -7.119,3.586 -8.51,7.967 -2.608,8.214 -14.1,14.938 -18.318,10.72 -1.312,-1.316 -0.575,-4.855 1.638,-7.867 16.56,-22.516 19.511,-28.326 16.1,-31.738 -4.872,-4.874 -10.245,-1.062 -21.773,15.451 -12.802,18.331 -21.767,20.013 -52.411,9.816 -29.601,-9.851 -47.712,-20.699 -34.966,-20.919 4.02,-0.07 7.31,1.748 7.31,4.043 0,4.644 12.44,5.551 22.621,1.662 9.671,-3.712 8.079,-11.023 -1.719,-7.914 -6.445,2.044 -7.745,1.133 -5.765,-4.024 2.183,-5.69 -0.116,-6.302 -15.686,-4.172 l -18.24,2.494 11.479,-9.83 c 14.092,-12.06 14.652,-16.733 1.613,-13.461 -6.792,1.707 -10.66,0.433 -12.399,-4.093 -3.325,-8.668 -21.388,-8.389 -36.545,0.564 -8.95,5.286 -13.302,5.922 -16.781,2.443 -3.479,-3.48 -1.318,-6.439 8.315,-11.417 7.152,-3.702 13.002,-9.498 13.002,-12.883 0,-7.78 -8.064,-7.673 -18.543,0.25 -10.497,7.951 -23.211,7.876 -23.211,-0.125 0,-3.445 1.52,-6.266 3.377,-6.266 1.857,0 7.023,-2.933 11.482,-6.518 7.613,-6.128 7.159,-6.372 -7.553,-3.988 -16.333,2.643 -20.084,-1.499 -9.392,-10.371 8.567,-7.11 7.858,-12.523 -1.643,-12.523 -4.345,0 -8.987,-2.821 -10.308,-6.266 -1.322,-3.445 -6.58,-6.262 -11.684,-6.262 -9.032,0 -9.063,-0.158 -1.182,-5.922 9.746,-7.128 9.069,-7.759 -14.812,-13.781 -22.466,-5.665 -27.273,-3.445 -9.094,4.199 12.266,5.157 12.646,5.949 6.063,12.532 -6.583,6.582 -6.203,7.187 6.025,9.634 8.832,1.765 12.333,4.486 10.826,8.413 -1.371,3.577 0.544,5.8 4.994,5.8 6.153,0 6.398,0.992 1.657,6.703 -4.983,6.004 -6.883,5.203 -18.254,-7.703 -6.983,-7.922 -18.045,-21.404 -24.584,-29.957 -18.131,-23.712 -22.05,-13.131 -4.094,14.104 64.435,97.72 156.136,146.427 268.594,148.25 17.224,0.278 61.379,2.042 98.125,3.918 54.597,2.783 73.979,2.155 106.07,-3.436 52.989,-9.228 91.327,-29.086 108.316,-56.107 9.548,-15.19 26.659,-48.906 39.039,-75.301 4.693,0.134 9.73,0.284 13.473,0.385 -1.153,3.903 -5.457,16.876 -9.988,30.064 -4.66,13.559 -8.477,27.298 -8.477,30.522 0,3.234 -1.732,4.787 -3.849,3.482 -2.114,-1.31 -6.811,3.565 -10.438,10.83 -8.539,17.118 -8.453,17.434 3.852,15.082 9.478,-1.81 10.435,-0.689 10.435,12.207 0,14.358 -12.785,44.358 -21.093,49.494 -7.454,4.606 -10.738,-2.514 -3.588,-7.781 3.638,-2.684 8.997,-9.342 11.906,-14.805 4.331,-8.124 4.263,-10.571 -0.361,-13.505 -9.254,-5.863 -13.025,-4.23 -10.707,4.638 2.367,9.053 -3.162,15.323 -7.426,8.422 -6.073,-9.824 -10.723,-3.5 -8.02,10.906 2.233,11.912 1.607,14.734 -2.941,13.19 -3.181,-1.077 -5.785,-6.488 -5.785,-12.022 0,-13.087 -7.952,-17.048 -9.686,-4.826 -0.736,5.17 -4.813,11.264 -9.06,13.537 -4.249,2.275 -9.903,10.729 -12.561,18.784 -5.665,17.17 -12.533,19.287 -12.533,3.861 0,-15.511 -10.137,-10.427 -11.746,5.887 -1.61,16.279 -8.1,17.431 -9.903,1.763 -1.792,-15.569 -8.359,-14.485 -12.656,2.09 -2.136,8.251 -6.156,13.568 -10.252,13.568 -5.744,0 -6.355,-3.697 -4.121,-25.048 1.496,-14.315 0.975,-25.053 -1.213,-25.053 -5.321,0 -8.76,12.52 -10.551,38.453 -1.352,19.578 -2.58,22.088 -10.8,22.088 -5.097,0 -11.354,-3.758 -13.901,-8.35 -10.688,-19.278 -21.898,-19.278 -29.953,0 -5.953,14.254 -6.686,14.614 -29.662,14.614 -22.556,0 -23.261,-0.323 -16.645,-7.635 7.193,-7.948 9.228,-17.416 3.741,-17.416 -1.744,0 -5.517,3.753 -8.385,8.347 -6.147,9.842 -13.494,10.98 -13.494,2.09 0,-8.192 -3.756,-7.911 -13.856,1.043 -8.015,7.109 -8.098,7.041 -3.119,-2.443 7.061,-13.448 2.945,-15.665 -10.974,-5.91 -28.203,19.762 -41.503,20.393 -22.159,1.049 6.116,-6.119 6.756,-8.356 2.391,-8.356 -6.097,0 -23.27,19 -23.269,25.748 0,7.422 12.476,8.293 25.535,1.779 16.278,-8.123 16.218,-8.117 16.218,-0.382 0,7.612 8.802,8.171 16.483,1.043 4.572,-4.243 5.181,-3.955 3.265,1.541 -3.336,9.542 30.421,12.455 89.995,7.771 65.027,-5.114 108.435,-17.341 156.009,-43.947 40.2,-22.482 54.779,-49.965 49.805,-93.91 -1.828,-16.164 -0.582,-33.53 3.746,-52.188 4.462,-19.796 7.629,-23.375 9.014,-29.099 9.529,0.377 35.551,1.337 35.551,1.337 0,0 -0.667,13.225 -2.51,22.684 -2.278,11.687 -15.595,16.152 -21.106,7.24 -1.441,-2.336 -4.545,-3.051 -6.9,-1.597 -2.461,1.522 1.214,7.666 8.639,14.449 12.357,11.286 16.696,20.621 9.582,20.621 -1.838,0 -5.599,-2.258 -8.354,-5.014 -3.895,-3.895 -5.012,-2.969 -5.012,4.174 0,5.862 -2.566,9.192 -7.093,9.192 -5.521,0 -5.988,1.108 -2.09,5.007 2.756,2.756 5.01,10.274 5.01,16.703 0,6.429 1.877,11.69 4.173,11.69 2.298,0 4.178,-1.794 4.178,-3.982 0,-2.186 5.625,-0.78 12.498,3.132 8.051,4.581 12.498,10.455 12.528,16.506 0.03,10.525 -4.061,11.956 -11.95,4.18 -4.24,-4.183 -6.475,-3.611 -11.271,2.883 -8.148,11.042 -7.642,13.718 4.752,25.207 l 10.73,9.943 -8.642,8.645 c -9.305,9.304 -19.105,11.187 -23.258,4.466 -5.643,-9.13 -11.016,-3.76 -8.354,8.356 1.732,7.879 1.08,12.523 -1.757,12.523 -2.477,0 -4.506,-2.816 -4.506,-6.261 0,-3.445 -1.777,-6.262 -3.946,-6.262 -2.171,0 -4.519,8.707 -5.22,19.349 -0.943,14.364 -3.614,20.901 -10.356,25.36 -8.267,5.462 -9.528,5.173 -14,-3.186 -3.595,-6.717 -3.7,-11.84 -0.396,-19.091 6.492,-14.249 14.377,-12.553 12.15,2.619 -1.011,6.89 -0.285,12.523 1.613,12.523 1.9,0 3.455,-7.512 3.455,-16.699 0,-13.851 -1.41,-16.701 -8.255,-16.701 -12.683,0 -22.433,18.047 -19.164,35.47 2.192,11.677 1.421,14.631 -3.813,14.631 -3.603,0 -8.38,-4.806 -10.617,-10.687 -5.191,-13.654 -11.893,-9.847 -9.457,5.373 1.45,9.037 0.881,10.203 -2.582,5.314 -2.44,-3.444 -4.47,-11.43 -4.5,-17.746 -0.101,-17.706 -7.035,-13.578 -9.625,5.731 -4.03,30.028 -19.453,32.091 -19.61,2.623 -0.1,-18.341 -7.803,-13.255 -9.218,6.086 -1.242,17.049 -1.837,17.701 -20.073,22.189 -11.596,2.857 -16.39,5.594 -12.525,7.156 l 0.02,-0.03 c 9.855,3.98 45.652,3.525 73.072,-0.928 64.026,-10.399 103.951,-38.514 128.168,-90.259 14.483,-30.952 15.53,-42.501 10.031,-110.844 -1.97,-24.46 -0.632,-48.909 0.723,-62.531 17.072,-0.726 32.319,1.181 43.152,-3.803 8.944,-3.432 15.269,-19.99 47.854,-100.75 31.909,-79.093 43.562,-118.558 43.562,-147.563 0,-28.844 -8.55,-40.489 -28.482,-38.816 -12.749,1.07 -16.658,3.926 -24.643,17.974 -5.223,9.185 -11.449,23.747 -13.836,32.36 -2.389,8.611 -6.889,15.65 -10.002,15.65 -3.113,0 -11.502,5.453 -18.635,12.117 -9.681,9.04 -12.966,15.784 -12.966,26.582 0,13.072 6.159,24.812 14.931,31.258 -1.712,6.352 -3.284,12.096 -4.334,15.75 -4.733,-0.386 -10.613,-0.71 -18.89,-1.31 -19.447,-1.411 -37.243,-3.01 -39.457,-5.225 -2.214,-2.213 -8.142,-4.023 -13.178,-4.023 -9.723,0 -13.432,-3.774 -12.996,-18.59 -0.257,-4.877 0.643,-9.523 2.843,-3.91 3.808,9.426 15.1,15.687 21.338,11.832 6.404,-3.958 4.222,-17.9 -3.507,-22.403 -6.229,-3.627 -5.578,-4.28 4.361,-4.38 8.674,-0.09 11.347,-1.968 10.435,-7.288 -0.71,-4.145 1.89,-7.791 6.184,-8.67 9.169,-1.882 30.611,-18.342 34.096,-28.197 1.425,-4.018 4.951,-10.256 8.467,-10.256 3.517,0 6.398,-3.526 6.398,-7.838 0,-4.309 2.815,-10.18 6.26,-13.039 10.92,-9.062 6.821,-12.702 -11.485,-10.203 -15.198,2.076 -16.741,1.631 -10.75,-3.082 3.848,-3.028 12.806,-8.725 19.909,-12.658 14.433,-8 20.211,-18.385 13.798,-24.799 -6.025,-6.022 -25.923,5.129 -37.689,21.112 -12.639,17.171 -21.12,16.905 -20.326,-0.635 0.551,-12.154 -1.659,-17.004 -10.543,-13.869 -7.668,2.706 -23.969,20.479 -20.278,10.742 4.301,-11.345 -24.931,-1.398 -24.931,4.183 0,2.146 2.816,2.816 6.26,1.495 9.2,-3.529 7.648,5.809 -1.809,10.869 -10.917,5.845 -12.976,5.445 -10.139,-1.946 1.322,-3.444 0.264,-6.259 -2.351,-6.259 -2.611,0 -5.779,2.67 -7.032,5.937 -1.254,3.269 -4.972,6.978 -8.269,8.24 -4.578,1.76 -5.383,-0.131 -3.4,-8.027 3.128,-12.476 -2.627,-13.353 -12.924,-1.973 -8.361,9.233 -18.477,11.767 -10.99,2.748 2.555,-3.081 3.38,-6.881 1.82,-8.441 -1.556,-1.556 -9.96,4.135 -18.676,12.643 -18.15,17.725 -23.915,16.569 -13.91,-2.778 3.784,-7.316 5.646,-14.534 4.139,-16.041 -3.458,-3.453 -14.11,10.389 -19.577,25.44 -2.696,7.415 -2.528,10.022 -11.476,8.552 -20.764,-3.41 -18.312,7.63 11.125,11.332 18.749,2.358 62.242,-3.368 82.594,-10.56 37.203,-13.154 62.841,-13.586 75.931,-1.289 10.698,10.049 12.637,25.006 4.156,32.045 -3.025,2.512 -15.01,6.606 -26.632,9.099 -29.955,6.422 -40.383,18.879 -43.014,51.362 l -1.938,23.472 c -11.657,1.454 -29.061,6.884 -40.246,15.289 -3.209,2.558 -16.23,5.817 -28.929,7.239 -38.929,4.476 -83.864,-55.418 -122.6,-81.131 0,0 -16.108,-29.468 -36.226,-38.633 -52.937,-24.115 -105.543,11.42 -123.438,62.811 -7.209,20.702 -15.001,123.346 -11.197,133.263 1.215,3.159 4.538,5.746 7.39,5.746 3.642,0 6.015,-13.386 7.959,-44.882 4,-64.798 12.998,-95.025 35.532,-119.372 24.646,-26.628 56.295,-31.496 79.127,-12.158 15.347,12.998 31.425,54.591 35.918,92.908 l 1.492,21.934 -7.321,-12.682 c -4.687,-7.541 -15.864,-28.315 -24.839,-46.164 -17.831,-35.465 -27.287,-46.365 -34.215,-39.437 -6.225,6.228 13.293,60.57 41.681,116.015 12.933,25.259 20.745,36.607 25.371,45.37 -1.743,35.074 14.143,39.138 20.563,20.752 20.439,20.547 34.712,29.839 60.019,4.396 13.475,-10.588 33.812,-23.444 34.366,-22.617 -6.574,23.321 -1.05,31.045 15.699,32.205 -18.473,10.666 -49.552,26.363 -53.236,26.363 -1.113,0 -2.02,-3.173 -2.02,-7.056 0,-6.163 -8.022,-9.324 -8.029,0.951 0,8.761 -4.915,7.317 -8.41,1.984 -3.467,-5.289 -5.35,-4.82 -12.762,3.137 -10.775,11.568 -16.731,11.913 -16.731,0.984 0,-4.594 -1.674,-8.346 -3.726,-8.346 -5.386,0 -9.376,12.49 -6.693,20.948 1.612,5.073 -0.55,8.009 -7.211,9.791 -14.227,3.814 -15.179,3.384 -12.805,-5.692 2.472,-9.448 -2.712,-10.906 -11.096,-3.127 -3.789,3.515 -4.721,3.609 -2.855,0.284 6.185,-11.017 -7.267,-9.974 -16.246,1.259 -12.67,15.855 -17.318,10.54 -6.418,-7.341 10.351,-16.973 10.979,-25.563 1.734,-23.743 -9.73,1.913 -22.519,20.452 -24.111,34.963 -1.275,11.581 -2.313,12.231 -17.549,10.86 -20.152,-1.81 -20.721,-2.402 -14.873,-15.231 3.886,-8.53 3.647,-10.455 -1.266,-10.455 -3.316,0 -7.915,3.522 -10.22,7.828 -4.159,7.773 -18.688,14.126 -22.834,9.983 -1.19,-1.19 3.695,-6.156 10.853,-11.032 17.437,-11.884 23.429,-21.779 17.047,-28.162 -5.756,-5.756 -19.291,1.75 -36.373,20.17 -7.504,8.095 -11.861,10.1 -15.035,6.922 -3.175,-3.175 -1.257,-6.569 6.629,-11.736 13.518,-8.856 8.089,-18.477 -6.129,-10.864 -9.79,5.24 -17.069,2.733 -17.069,-5.869 0,-7.65 -20.268,-12.165 -27.535,-6.134 -3.226,2.677 -5.863,7.255 -5.863,10.171 0,2.916 -3.093,6.487 -6.867,7.934 -13.246,5.083 -11.58,-2.37 3.474,-15.557 15.908,-13.937 24.27,-27.053 24.27,-38.095 0,-12.225 -12.435,-6.594 -24.746,11.209 -16.287,23.545 -25.543,33.567 -28.389,30.72 -1.286,-1.283 0.08,-5.245 3.025,-8.8 7.992,-9.633 1.355,-12.954 -8.347,-4.176 -4.618,4.18 -9.774,6.233 -11.449,4.56 -1.673,-1.675 1.604,-6.547 7.275,-10.828 13.139,-9.911 8.234,-15.223 -7.893,-8.543 -6.781,2.809 -15.763,4.305 -19.966,3.311 -6.235,-1.467 -5.461,-2.691 4.191,-6.658 12.861,-5.289 13.064,-16.176 0.25,-13.746 -4.346,0.823 -13.116,1.572 -19.492,1.632 -11.033,0.131 -11.257,0.522 -4.578,7.903 4.303,4.757 5.121,7.756 2.109,7.756 -2.703,0 -10.588,-8.925 -17.521,-19.834 l -12.602,-19.832 11.305,-2.09 c 14.035,-2.589 17.444,-10.895 5.97,-14.537 -8.327,-2.643 -16.279,-20.915 -11.277,-25.913 1.365,-1.369 5.994,1.851 10.287,7.153 10.294,12.71 23.473,8.6 20.602,-6.426 -1.093,-5.712 -0.366,-10.387 1.611,-10.387 6.572,0 3.711,-7.7 -3.713,-9.992 -4.018,-1.234 0.677,-1.349 10.438,-0.25 20.612,2.32 23.291,-3.138 5.217,-10.625 -15.206,-6.302 -16.486,-12.13 -2.059,-9.371 14.311,2.737 24.969,-6.117 17.783,-14.773 -4.629,-5.58 -2.762,-5.995 15.604,-3.452 23.973,3.319 18.371,-3.733 -6.274,-7.898 -23.988,-4.052 -26.162,-6.764 -19.043,-23.793 4.566,-10.932 10.636,-16.613 23.063,-21.584 20.052,-8.025 21.427,-13.498 4.332,-17.254 -13.941,-3.059 -15.577,-6.875 -6.262,-14.607 9.366,-7.775 6.326,-17.946 -4.687,-12.53 -24.697,12.146 -9.986,-0.469 -5.301,-6.804 5.09,-6.131 3.003,-9.915 -8.207,-3.766 -17.309,9.495 -16.828,5.645 -6.66,-7.933 10.042,-13.411 5.669,-17.57 -8.313,-8.407 -19.033,12.47 -17.711,1.838 1.856,-14.91 14.971,-12.817 17.736,-17.137 13.619,-21.309 -2.064,-2.093 -3.883,-2.907 -6.237,-2.208 z m -92.666,20.986 c 0.929,0.239 0.728,3.649 -0.968,10.135 -1.324,5.067 -4.03,9.213 -6.008,9.213 -1.98,0 -1.454,-4.704 1.164,-10.457 2.824,-6.197 4.883,-9.13 5.812,-8.891 z m 39.594,6.82 c 2.434,0 3.263,1.877 1.842,4.172 -1.418,2.299 -3.408,4.182 -4.422,4.182 -1.012,0 -1.84,-1.883 -1.84,-4.182 0,-2.295 1.99,-4.172 4.42,-4.172 z m 565.547,1.623 c 1.749,0.288 1.619,3.025 -0.373,8.217 -1.446,3.774 -6.658,6.785 -11.58,6.725 -8.813,-0.138 -8.794,-0.267 1.039,-8.457 5.533,-4.608 9.164,-6.772 10.914,-6.485 z m -548.6,2.549 c 2.3,0 3.018,1.883 1.6,4.182 -1.419,2.296 -4.461,4.174 -6.76,4.174 -2.294,0 -3.012,-1.878 -1.592,-4.174 1.417,-2.299 4.457,-4.182 6.752,-4.182 z m 656.643,20.854 c 21.896,0 11.038,58.519 -31.248,168.39 -22.274,57.883 -30.677,73.3 -26.483,48.602 2.989,-17.622 -5.279,-17.577 -10.054,-4.207 -5.77,13.236 -10.907,20.709 -13.321,27.972 -4.14,12.457 -16.509,22.697 -16.509,13.67 0,-10.701 23.785,-49.231 42.787,-69.324 27.435,-29.01 15.842,-29.534 -13.541,-0.611 -21.282,20.948 -41.623,55.889 -41.723,71.597 -0.03,4.314 -2.325,6.855 -5.265,5.819 -2.872,-1.015 -4.957,-4.93 -4.637,-8.701 0.735,-8.69 -2.111,-8.677 -11.76,0.06 -8.737,7.91 -13.235,5.868 -9.352,-4.25 0.925,-2.413 1.745,-4.835 2.446,-6.121 2.951,-0.168 8.362,0.08 10.306,-0.164 13.881,0 21.655,-14.915 29.834,-54.469 6.792,-32.857 7.32,-33.787 19.047,-33.787 10.003,0 11.693,1.428 9.879,8.356 -2.495,9.551 0.333,10.339 10.188,2.843 3.792,-2.885 4.493,-10.956 5.295,-17.761 0.503,-2.26 0.655,-3.953 0.617,-5.426 l 5.133,-17.379 c 14.569,3.666 13.629,-6.568 3.197,-10.822 3.715,-17.322 11.681,-35.921 16.197,-50.61 14.674,-47.989 21.808,-63.673 28.967,-63.673 z m -583.17,3.681 c -0.358,-0.05 -0.641,0 -0.641,0.276 0,0 -2.746,2.622 -2.746,5.494 0,3.826 2.022,6.286 4.489,5.461 2.472,-0.822 4.494,-3.282 4.494,-5.461 0,-2.183 -2.022,-4.641 -4.494,-5.465 -0.308,-0.103 -0.743,-0.252 -1.102,-0.305 z m 381.402,4.698 c 2.433,0 3.262,1.878 1.842,4.173 -1.418,2.295 -3.411,4.174 -4.422,4.174 -1.011,0 -1.842,-1.879 -1.842,-4.174 0,-2.295 1.992,-4.173 4.422,-4.173 z m -406.881,34.835 c 0.499,0.08 1.048,0.3 1.622,0.655 2.295,1.419 4.173,3.411 4.173,4.422 0,1.015 -1.878,1.84 -4.173,1.841 -2.296,0 -4.176,-1.987 -4.176,-4.421 0,-1.825 1.058,-2.749 2.554,-2.497 z m 562.895,16.327 c 0,0 -10.528,39.819 -12.633,47.73 -12.19,-10.01 -13.459,-25.803 -0.918,-39.15 4.964,-5.285 13.551,-8.58 13.551,-8.58 z m -302.527,43.472 42.386,39.662 c 21.356,21.355 32.667,39.357 64.354,31.079 l 26.338,-2.702 -4.887,13.032 c -2.716,7.234 -10.459,15.879 -17.414,19.439 -6.89,3.526 -24.092,15.573 -38.228,26.768 -21.986,17.409 -25.887,26.074 -39.721,5.763 -3.743,-5.496 -13.879,-18.229 -20.125,-27.654 0.05,-39.63 2.837,-68.533 -12.703,-105.387 z m -283.799,5.993 c 1.531,0 3.062,0.971 5.01,2.919 3.899,3.898 2.784,5.01 -5.01,5.01 -7.795,0 -8.905,-1.112 -5.01,-5.01 1.949,-1.948 3.479,-2.92 5.01,-2.919 z m -17.963,20.011 c 2.103,-0.06 3.661,1.379 4.639,4.313 0.82,2.467 -1.483,4.484 -5.119,4.484 -3.827,0 -6.61,3.519 -6.61,8.354 0,5.734 -2.784,8.345 -8.885,8.345 -8.841,0 -8.833,-0.06 1.043,-12.873 6.4,-8.3 11.426,-12.529 14.932,-12.623 z m 541.975,25.496 c 3.444,0 6.261,1.88 6.261,4.178 0,2.295 -2.817,4.178 -6.261,4.178 -3.446,0 -6.262,-1.883 -6.262,-4.178 0,-2.298 2.816,-4.178 6.262,-4.178 z m -29.475,16.705 c 3.582,0 6.512,1.879 6.512,4.174 0,2.296 -1.771,4.174 -3.932,4.174 -2.16,0 -5.088,-1.878 -6.506,-4.174 -1.42,-2.295 0.347,-4.174 3.926,-4.174 z m 25.301,0 c 3.445,0 6.261,1.879 6.261,4.174 0,2.296 -2.816,4.174 -6.261,4.174 -3.444,0 -6.264,-1.878 -6.264,-4.174 0,-2.295 2.82,-4.174 6.264,-4.174 z m -3.731,16.702 c 6.878,0 7.088,3.963 1.744,18.515 -1.652,4.499 -4.635,10.433 -8.341,10.709 -6.087,0 -6.222,-2.083 -1.987,-12.892 10.725,1.527 16.132,-5.651 1.272,-6.28 1.02,-5.059 0.1,-10.052 7.312,-10.052 z m -89.99,33.361 c 12.417,0 9.714,13.186 -3.252,13.93 -10.644,0.611 -11.667,5.919 -2.185,7.834 5.919,1.196 8.509,1.345 10.611,1.968 -1.544,3.143 -3.15,6.316 -5.293,9.379 -21.98,0.194 -24.668,-5.445 -20.807,-25.519 0,0 9.261,-7.592 20.926,-7.592 z m 25.174,0.05 c 5.104,0 7.982,2.157 6.961,5.217 -2.631,7.9 -15.66,9.02 -15.66,1.345 0,-3.871 3.569,-6.562 8.699,-6.562 z m 28.879,0 c 8.367,0 10.858,4.452 5.49,9.816 -0.474,0.474 -1.21,1.168 -2.031,2.781 -4.346,-0.225 -8.833,0.208 -13.078,0.161 0.988,-10.784 2.584,-12.758 9.619,-12.758 z m 24.412,1.068 c 2.57,-0.367 4.816,1.159 4.816,4.846 0,3.636 -2.973,6.607 -6.609,6.607 -3.635,0 -5.868,-2.234 -4.961,-4.961 1.29,-3.87 4.183,-6.125 6.754,-6.492 z m -24.998,21.33 c -2.022,4.914 -4.193,10.464 -6.156,16.11 -2.76,-0.317 -6.84,-0.785 -11.254,-1.291 2.701,-6.055 4.661,-10.81 6.08,-14.586 4.384,-0.09 7.01,-0.143 11.33,-0.233 z m -19.809,0.401 c -0.607,0.795 -1.08,1.351 -2.666,3.617 -3.408,4.862 -8.246,8.805 -10.92,8.967 -4.999,-0.574 -5.967,-0.683 -10.623,-1.217 6.173,-6.986 6.803,-10.533 6.803,-10.533 5.701,-1.084 11.646,-0.726 17.406,-0.834 z m -358.424,50.179 c 9.078,0.436 13.174,4.251 9.522,10.158 -2.821,4.567 -8.961,4.939 -26.322,1.594 -14.283,-2.752 -11.236,-8.187 6.164,-11.012 4.031,-0.654 7.61,-0.885 10.636,-0.74 z m -148.572,31.463 c 2.737,-0.03 6.135,1.818 7.553,4.113 3.206,5.185 1.761,5.185 -6.262,0 -3.761,-2.43 -4.278,-4.083 -1.291,-4.113 z m 454.322,4.113 c 3.445,0 6.191,1.409 6.131,3.131 -0.08,1.722 -2.892,6.783 -6.261,11.241 -5.881,7.772 -6.133,7.646 -6.133,-3.129 0,-7.206 2.249,-11.243 6.263,-11.243 z m -437.91,12.948 c 1.398,0.481 1.582,2.307 1.582,5.841 0,7.03 -3.601,7.825 -11.834,2.608 -4.441,-2.815 -4.162,-4.07 1.387,-6.197 4.856,-1.865 7.467,-2.733 8.865,-2.252 z m 525.416,5.488 c 1.499,-0.218 4.351,0.959 8.364,3.894 4.169,3.046 6.802,7.866 5.853,10.713 -1.171,3.509 -4.26,2.381 -9.596,-3.515 -5.865,-6.481 -7.119,-10.728 -4.621,-11.092 z m -105.41,11.103 c 0.541,0.01 0.993,0.178 1.315,0.499 1.286,1.287 -1.031,3.62 -5.149,5.189 -5.953,2.267 -6.433,1.78 -2.34,-2.342 2.125,-2.139 4.551,-3.393 6.174,-3.346 z m -149.578,9.639 c -0.499,-0.02 -1.048,0.134 -1.621,0.488 -2.296,1.418 -4.174,4.349 -4.174,6.51 0,2.161 1.878,3.932 4.174,3.932 2.294,0 4.174,-2.932 4.174,-6.512 0,-2.686 -1.057,-4.352 -2.553,-4.418 z m -92.484,4.516 c 1.296,-0.129 2.413,0.914 3.791,3.086 1.891,2.982 3.47,6.621 3.5,8.095 0.03,1.479 -2.692,3.747 -6.065,5.041 -8.481,3.253 -12.401,-4.665 -6.082,-12.281 2.088,-2.516 3.561,-3.812 4.856,-3.941 z m 20.121,11.597 c 3.438,-0.507 5.078,2.116 2.019,7.067 h -0.01 c -1.512,2.449 -5.863,4.453 -9.664,4.453 -6.363,0 -6.352,-0.554 0.157,-7.061 2.727,-2.727 5.438,-4.155 7.498,-4.459 z m 108.191,5.375 c 2.301,0.531 4.305,2.095 4.305,4.299 0,1.012 -2.929,1.846 -6.508,1.846 -3.573,0 -5.331,-1.908 -3.889,-4.242 1.192,-1.929 3.791,-2.435 6.092,-1.903 z m 123.961,40.313 c 0.536,-0.175 1.125,-0.178 1.742,0.03 2.468,0.825 4.489,3.282 4.489,5.461 0,2.183 -2.021,4.644 -4.489,5.467 -2.468,0.824 -4.486,-1.637 -4.486,-5.467 0,-2.87 1.135,-4.967 2.744,-5.49 z m 80.649,45.713 c 0.181,0.506 -1.795,2.735 -5.752,7.191 -8.838,9.952 -10.836,10.865 -10.836,4.934 0,-2.218 4.228,-6.247 9.394,-8.959 4.672,-2.452 7.013,-3.672 7.194,-3.166 z" fill="#00B894" transform="translate(113.62172,-45.452666) matrix(0.26458333,0,0,0.26458333,-12933.482,-3977.9856)"/>
</svg>