<?xml version="1.0" ?><svg height="110.23405mm" viewBox="0 0 95.112495 110.23405" width="95.112495mm" xmlns="http://www.w3.org/2000/svg">
    <path d="m 2510.2451,2791.0986 c 0,0 12.8183,-13.0855 17.8057,-13.9338 4.9877,-0.848 9.0167,0.4241 9.0167,0.4241 0,0 6.3847,-20.7761 10.7384,-25.2208 4.354,-4.4448 8.0743,-5.9069 11.4374,1.4766 3.3629,7.3835 8.2042,22.8817 8.2042,22.8817 0,0 20.0964,-3.0411 29.454,2.69 9.3577,5.7314 0.195,13.3636 -4.3051,17.3405 -4.5003,3.9767 -11.6647,9.3867 -11.6647,9.3867 0,0 8.8866,7.3834 12.1682,12.1205 3.2817,4.7371 -5.9946,5.6584 -9.5363,6.2577 -3.5418,0.5995 -14.5564,-2.7779 -16.4574,-2.8509 -1.9008,-0.073 -6.872,4.6201 -6.872,4.6201 l -13.2728,-6.3015 c 0,0 -7.4409,5.9359 -12.8344,6.8572 -5.3938,0.921 -8.7567,5.1903 -8.7567,5.1903 0,0 -3.8828,-3.6552 -2.7943,-9.2403 1.0885,-5.5854 10.0889,-16.9458 10.0889,-16.9458 0,0 -13.452,-3.4795 -17.562,-6.7548 -4.1103,-3.275 -4.8578,-7.9975 -4.8578,-7.9975 z" fill="#FFFFFF" paint-order="markers stroke fill" transform="translate(-135.02237,-78.305753) translate(-2373.318,-2668.3738)"/>
    <path d="m 2549.972,2855.6209 c -0.3957,-0.7429 -0.064,-4.7385 0.7384,-8.8788 0.8017,-4.1403 1.4372,-10.5674 1.4121,-14.2819 -0.044,-6.5251 -0.1329,-6.8272 -2.6284,-8.9121 -2.5396,-2.122 -2.6101,-2.1266 -4.2089,-0.2682 -2.763,3.2126 -5.0707,4.3447 -10.1329,4.9711 -4.4381,0.5491 -5.0459,0.8853 -6.7609,3.7402 -2.2559,3.6749 -1.8203,4.2596 -5.1432,1.8311 -5.0307,-3.6762 -3.5939,-16.6564 2.0178,-23.2175 3.4879,-3.4214 1.8609,-3.1508 -2.1096,-4.5941 -2.5336,-0.9211 -5.8221,-2.6773 -7.3077,-3.9027 -2.8637,-2.3625 -7.1726,-8.7999 -7.504,-11.2102 -0.2474,-1.7959 10.1741,-11.1286 15.6012,-13.9724 2.7892,-1.4614 5.2456,-2.0907 8.0211,-2.0541 3.9791,0.052 4.0041,0.034 4.6621,-3.3835 0.9219,-4.79 4.1613,-13.3253 6.2251,-16.4024 2.239,-3.3392 8.1678,-8.1099 10.4253,-8.3892 2.7699,-0.3427 8.3713,4.6594 11.247,10.0442 1.7037,3.1902 2.9194,7.0244 3.466,10.9334 l 0.8416,6.0204 3.198,-0.9557 c 6.8407,-2.0441 21.4042,1.4889 28.0583,6.8069 3.992,2.6585 3.894,3.0504 2.449,7.3005 -1.7554,5.1628 -8.5435,13.5529 -13.6389,16.8577 -3.957,2.3599 -4.1524,2.1381 -0.8105,5.1118 5.7842,5.1468 9.9485,13.2536 8.206,15.9744 -0.7084,1.1062 -1.2379,1.2381 -2.2834,0.5683 -0.938,-0.6007 -3.747,-0.3924 -9.0357,0.6699 -7.3389,1.4739 -7.8425,1.4563 -11.5204,-0.4063 -2.1154,-1.0716 -4.5737,-2.0267 -4.9068,-2.4091 -0.333,-0.3824 -1.9784,0.7031 -3.656,2.4118 -3.514,3.5792 -2.4945,3.0923 -5.3842,2.3844 -2.2557,-0.5525 -2.2611,-0.5331 -2.1867,7.706 0.1158,12.8657 -4.4767,25.3018 -7.3514,19.9062 z m 31.8918,-33.076 c 1.7782,-0.6517 4.6702,-1.0425 6.4267,-0.8687 3.9355,0.3899 3.9727,-0.6008 0.2306,-6.1419 -4.1064,-6.0811 -6.6037,-7.9556 -9.6569,-7.2485 -1.4448,0.3346 -3.7602,0.042 -5.1757,-0.6537 -5.1457,-1.9096 -0.4816,-1.9587 2.6904,-3.025 2.8884,-0.9713 7.2232,-3.0916 9.6323,-4.7123 4.434,-2.9822 13.678,-13.5663 13.4511,-15.4009 -0.2323,-1.8774 -10.7841,-5.9648 -18.0509,-6.992 -8.2332,-1.1642 -11.7009,0.3105 -14.6996,3.7241 -2.4007,2.7318 -2.9746,2.2621 -2.4258,-1.1924 1.1892,-7.4848 -3.5946,-22.3724 -8.9444,-27.8379 -2.9072,-3.4526 -2.89,-2.7423 -5.5315,0.4867 -3.6585,4.4724 -5.5454,8.6294 -7.8284,17.2481 -1.8809,5.1082 -2.2231,6.7716 0.782,10.8689 2.6494,3.6127 2.4933,6.1399 -0.2204,3.5665 -2.9841,-2.8296 -9.0148,-5.4836 -11.6892,-5.1443 -3.2534,0.4025 -9.7438,4.3228 -15.5273,9.3522 -4.168,3.305 -4.5585,3.1654 -1.0687,6.9116 3.891,4.1766 10.5299,7.0621 17.6139,7.6555 7.4315,0.6224 7.2942,0.6606 10.4726,-2.9113 3.0508,-3.4288 3.4343,-3.3192 1.9965,0.5693 -1.3278,3.5906 -3.4137,5.6695 -6.7656,6.7417 -8.3222,2.6621 -13.0723,8.5233 -12.8963,17.2187 0.2688,4.3017 -0.3519,5.9077 3.5879,2.8166 1.5399,-1.2081 5.0017,-2.6868 7.6925,-3.2855 2.691,-0.5988 5.9689,-1.9682 7.2843,-3.043 2.1378,-1.7467 2.3112,-2.3646 1.6312,-5.815 -1.0283,-5.2171 0.062,-8.5411 3.5256,-10.7518 3.0293,-1.9335 3.7636,-3.5347 4.5643,-9.9529 0.4687,-3.7562 2.0143,-5.5409 2.3624,-2.7276 0.093,0.7556 2.4144,3.1238 5.1575,5.2628 2.7432,2.1394 5.0842,4.6694 5.2021,5.6224 0.118,0.9533 0.6136,1.6837 1.1021,1.6233 0.4882,-0.06 1.7853,0.5902 2.8826,1.446 2.8336,2.2096 3.3054,7.5062 1.0596,11.893 -2.2687,3.7638 -1.7197,3.504 2.1638,4.7391 4.6682,1.485 4.8041,1.4845 8.9687,-0.042 z m -17.0555,-3.8036 c 2.4713,-3.632 3.2828,-6.7913 2.4246,-9.4393 -0.3715,-1.1455 -2.016,-1.6407 -6.4018,-1.9276 -9.3176,-0.6093 -11.6067,-0.1498 -12.4381,2.4959 -1.527,4.8604 1.8207,9.7562 8.965,13.1102 2.8589,1.3422 4.1546,0.6047 7.4503,-4.2392 z m -2.569,-14.5837 c -0.2069,-1.6718 -6.4654,-5.4251 -7.0379,-4.2205 -1.125,2.3684 -0.1314,3.981 2.7959,4.5356 4.0137,0.761 4.3718,0.7342 4.2419,-0.3153 z" fill="#00B894" transform="translate(-135.02237,-78.305753) translate(-2373.318,-2668.3738)"/>
</svg>