<?xml version="1.0" ?><svg height="100.45718mm" viewBox="0 0 140.02638 100.45718" width="140.02638mm" xmlns="http://www.w3.org/2000/svg">
    <path d="m 1786.3674,2944.8733 c 0,0 -16.36,-1.0075 -18.8053,-0.4339 -2.4455,0.5734 -0.6374,4.4323 1.2742,6.4783 1.9117,2.0458 5.6486,5.1298 5.6486,5.1298 0,0 -16.4806,0.5114 -17.8755,3.0689 -1.3949,2.5572 6.2167,6.9122 13.0879,9.144 6.8712,2.2317 22.5518,3.5375 22.5518,3.5375 0,0 -10.4109,4.8006 -13.08,6.8154 -2.6694,2.0148 -4.9427,7.9197 1.0848,9.144 6.0275,1.2244 32.8409,-3.828 32.8409,-3.828 0,0 1.3602,6.0753 1.5496,10.4148 0.1895,4.3397 5.1666,10.1049 7.0954,10.3219 1.9285,0.2172 10.677,-8.2296 14.8272,-13.158 4.1503,-4.9284 7.6806,-11.2363 7.6806,-11.2363 0,0 1.1711,1.4568 5.0287,3.58 3.8576,2.1233 24.385,11.3139 29.913,6.6025 5.5282,-4.7117 -10.7114,-17.8697 -12.0547,-18.9082 -1.3433,-1.0385 -4.4085,-3.2547 -4.4085,-3.2547 0,0 0.7575,-1.5499 4.6495,-0.8368 3.8921,0.7127 15.1892,-0.8835 19.9938,-3.7971 4.8048,-2.9138 6.854,-10.7405 1.1195,-11.7634 -5.7346,-1.0228 -17.1178,0.6044 -17.1178,0.6044 0,0 6.6474,-5.8272 7.3705,-8.245 0.7234,-2.4178 1.3605,-4.4016 -1.4981,-6.06 -2.8588,-1.6584 -7.6462,-0.7594 -7.6462,-0.7594 0,0 -0.9816,-11.6549 -4.4775,-11.1588 -3.4959,0.4959 -4.822,4.0759 -6.4408,1.9217 -1.6187,-2.1542 -2.7897,-7.4237 -3.6681,-10.3063 -0.8782,-2.8829 -5.3901,-5.2385 -8.5588,-3.7507 -3.1689,1.4877 -6.0275,6.8037 -6.0275,6.8037 l -4.6497,-0.7284 c 0,0 -2.6004,-6.7262 -5.6658,-8.9889 -3.0652,-2.2628 -6.3029,-0.4186 -8.3349,2.2471 -2.0323,2.6659 -3.7714,8.3071 -3.7714,8.3071 l -3.8232,-0.4493 c 0,0 -8.1283,-6.8349 -11.4004,-5.7655 -3.2721,1.0694 -3.5613,3.4216 -3.9028,8.5621 -0.315,4.7424 1.0614,9.1681 -1.3323,7.8044 -2.394,-1.3639 -4.3227,-4.9132 -8.2835,-4.8357 -3.9608,0.077 -4.2363,5.0215 -4.0987,7.6253 0.1379,2.6038 1.2055,10.1515 1.2055,10.1515 z" fill="#FFFFFF" paint-order="markers stroke fill" transform="translate(89.840753,-116.65315) rotate(-1.6042932,-98741.295,67421.666)"/>
    <path d="m 1818.1252,3005.5571 c -4.2533,-3.5358 -6.6211,-10.2216 -5.6129,-15.8479 0.8007,-4.4647 0.7338,-4.7845 -0.8249,-3.9586 -0.9323,0.4938 -5.3928,2.0718 -9.9126,3.5071 -9.673,3.0712 -18.352,2.6896 -23.9583,-1.0532 -4.9313,-3.2922 -3.8239,-7.5238 3.1738,-12.1291 4.7289,-3.1116 5.0261,-3.5434 2.6912,-3.9111 -1.4434,-0.2273 -4.0976,-0.2707 -5.8977,-0.097 -4.1912,0.4043 -15.1278,-3.2617 -19.5911,-6.5684 -6.8499,-5.0759 -4.5967,-9.0811 5.377,-9.5563 3.6524,-0.1742 6.6132,-0.4841 6.58,-0.6887 -0.032,-0.2046 -1.239,-1.5228 -2.6788,-2.9262 -3.2963,-3.2134 -4.2508,-8.3025 -1.7365,-9.2613 1.0059,-0.3825 6.701,-0.5897 9.8713,0.1957 6.275,1.5122 4.2264,1.9676 -2.3366,1.9248 -7.2754,-0.048 -7.2403,1.0508 0.2084,6.5928 8.2363,5.3034 4.2042,5.6577 -2.2824,5.8011 -4.4858,0.089 -9.4402,0.6363 -11.0097,1.2178 -2.6181,0.9721 -2.6894,1.1993 -0.8699,2.7549 3.4235,2.9257 14.5736,6.4864 22.5638,7.2048 4.2223,0.3794 9.1267,1.2711 10.899,1.9813 5.7953,1.5265 0.495,2.4027 -2.7369,3.7202 -6.491,2.646 -12.4512,6.9182 -12.167,8.7206 0.503,3.1901 10.7613,3.1541 27.45,-0.096 8.9325,-1.9051 9.8905,-3.7241 10.3905,5.3696 0.4208,7.6574 2.925,13.7923 5.519,13.5208 2.0142,-0.2108 12.5243,-9.446 15.4238,-13.5531 3.5698,-4.3371 1.9845,-3.6383 -2.8208,-3.8368 -8.3627,-0.3454 -17.8116,-0.3103 -15.8138,-1.8878 1.9533,-1.5423 5.9725,-1.2263 12.7675,-2.0612 12.119,-1.489 12.4461,-1.5989 17.0895,-5.7792 4.0918,-3.6828 4.4536,-4.3786 2.6671,-5.1287 -2.9679,-1.2456 -8.5028,0.5621 -16.0478,5.2409 -6.4098,5.0188 -8.2877,3.5944 -13.58,-0.2393 -6.9256,-5.0314 -12.928,-6.6838 -14.8908,-4.0998 -1.048,1.3797 -0.4973,2.1283 3.4839,4.7366 4.0524,2.6554 4.3217,3.0301 1.8835,2.6184 -6.6531,-1.1233 -10.9205,-5.1464 -9.4856,-8.9419 0.4704,-1.2458 -1.632,-3.6145 -7.6227,-8.588 -4.5499,-3.7769 -8.6183,-6.5901 -9.0401,-6.2511 -1.5237,1.2239 0.095,5.7264 3.3727,9.3785 2.8533,3.1784 3.0132,3.5956 1.0858,2.8274 -3.8463,-1.5334 -7.6738,-6.038 -8.2533,-9.7142 -0.5931,-3.7608 1.6334,-7.4185 4.7113,-7.7406 1.6969,-0.1776 1.6702,-0.4458 -0.3235,-3.2457 -4.2998,-6.0442 -4.0596,-18.0301 0.424,-21.1732 1.7462,-1.2242 2.5989,-1.0644 5.2333,0.9799 3.442,2.671 4.7773,6.8187 2.2793,7.0801 -0.865,0.09 -2.4561,-0.7923 -3.5356,-1.9619 -1.6282,-1.6909 -1.7104,-2.8357 -2.8807,0.4535 -0.958,2.6927 -0.4869,7.8462 1.305,14.2707 1.6573,5.9431 18.6442,19.1686 23.9117,18.6173 1.906,-0.1995 -1.0454,-7.7661 -3.9836,-10.2141 -1.3457,-1.1212 -3.4202,-4.9058 -4.6101,-8.4101 -1.1901,-3.5047 -2.5359,-7.0831 -2.9907,-7.9528 -1.5469,-2.957 -2.4124,2.0744 -1.7974,10.4473 0.6451,8.8185 -1.0878,7.7649 -2.702,-1.6393 -1.6586,-9.6674 2.4649,-16.818 7.6144,-13.203 1.9086,1.3402 2.2449,0.9352 3.934,-4.7346 l 1.8466,-6.1996 -3.0486,-2.5454 c -4.6792,-4.3162 -6.1543,0.6712 -6.5954,4.1058 -1.5544,3.8992 -1.956,6.3621 -2.8435,0.7328 -0.6473,-4.1063 0.8971,-8.2289 3.8613,-10.307 2.6333,-1.8461 8.2856,-0.2866 10.2938,2.8404 1.0673,1.6618 2.5389,2.458 4.2182,2.2823 3.3637,-0.352 6.6454,2.5354 8.0456,7.0787 1.1925,3.8708 0.3472,7.2186 -1.5932,6.3075 -0.6451,-0.3029 -1.7835,-2.4444 -2.5295,-4.7584 -1.6488,-5.1141 -3.88,-5.9158 -7.1552,-2.5716 -4.7121,4.8112 -5.4563,11.923 -2.1864,20.8917 1.5242,4.2946 0.7608,3.7253 3.3138,0.3645 1.7493,-2.3026 1.9122,-3.5596 0.8746,-6.7522 -1.8931,-5.8273 1.8266,-4.6068 4.8009,1.5751 0.4902,1.0192 1.6422,1.7737 2.5599,1.6777 1.1881,-0.1244 1.4907,-1.3037 1.0508,-4.0936 -0.4196,-2.6617 -0.1559,-3.81 0.8204,-3.5806 0.9105,0.2136 1.667,2.2071 2.0625,5.4344 0.4584,3.7416 1.0325,5.0546 2.1627,4.9362 0.8888,-0.093 1.3673,-1.2467 1.1332,-2.7315 -0.6076,-3.8536 0.7367,-9.7833 2.0754,-9.1543 0.6933,0.3254 1.2195,2.7749 1.2848,5.9778 0.091,4.5382 0.3946,5.3965 1.8471,5.2444 1.029,-0.1075 1.5918,-1.1025 1.3808,-2.4405 -0.4829,-3.0639 0.9924,-6.9142 2.3968,-6.2546 0.6272,0.2944 1.0413,1.641 0.9196,2.9917 -0.1856,2.0595 0.2764,2.4367 2.8566,2.3361 1.6926,-0.068 3.8354,-1.5978 5.8162,0.7098 1.8241,2.1251 2.9335,-1.3822 3.842,-6.8222 1.3125,-7.8579 -0.4805,-9.3977 -3.4869,-2.9938 -2.811,5.9886 -4.772,5.0582 -5.6355,-2.6733 -1.089,-9.7527 -6.4948,-10.8136 -12.2177,-2.3982 -2.6909,3.9562 -2.961,4.1148 -2.7107,1.5864 0.4169,-4.2129 6.0292,-10.6384 9.6009,-10.9921 1.657,-0.1734 3.6122,0.01 4.3413,0.3794 2.0153,1.0306 4.5389,4.9023 4.9677,7.6212 0.36,2.2836 0.4864,2.308 2.0906,0.4101 0.939,-1.1101 2.5268,-2.1039 3.5289,-2.2088 2.4756,-0.2591 1.6675,-4.7799 -1.3682,-7.6625 -1.9871,-1.8857 -2.7064,-2.0091 -4.4788,-0.7661 -2.7612,1.9351 -3.294,1.9349 -3.5995,0 -0.3094,-1.9625 4.5993,-5.4162 6.9801,-4.911 4.3079,0.9139 7.3262,4.3103 8.0803,9.0929 0.5087,3.2266 0.2556,5.0233 -0.7846,5.5652 -2.5087,1.3083 -1.1564,5.8665 1.7729,5.9751 2.0822,0.078 2.6877,0.8711 3.5708,4.6831 0.6077,2.6207 0.5676,6.2394 -0.092,8.4342 -1.1624,3.8711 -7.9682,13.5449 -8.9699,12.7505 -0.2943,-0.2338 0.7721,-3.1824 2.3733,-6.5503 1.8,-3.7853 2.521,-7.9239 2.6731,-10.8395 0.2649,-5.0769 -0.8069,-3.8626 -3.579,0.3076 -2.694,4.0527 -3.2301,5.98 -2.7714,9.9621 0.3284,2.8371 -0.1683,6.5747 -1.1645,8.786 -2.2885,6.9686 -2.2636,0.5691 -2.9142,-3.452 -2.3009,-14.3563 -7.9239,-12.822 -12.8359,3.5022 -1.8115,6.0203 -3.3928,9.4289 -4.1148,8.8687 -0.6448,-0.5006 -2.4977,-4.254 -4.1172,-8.3415 -5.1245,-12.933 -6.9292,-14.4995 -10.8135,-9.3869 -2.2733,2.9928 -0.9913,14.5541 1.5837,14.2847 1.4913,-0.1561 8.0338,5.0204 10.5783,8.3696 1.1287,1.4856 1.6256,1.2494 4.0314,-1.9177 5.4097,-7.1212 17.9128,-9.4381 22.1629,-4.1076 1.8797,2.3575 15.0151,-8.3454 14.4718,-11.7917 -0.397,-2.518 -5.1453,-1.0616 -9.0577,2.7784 -5.9948,5.8828 -7.5273,4.5777 -2.1473,-1.8285 2.6935,-3.2065 4.8388,-6.2846 4.768,-6.8402 -0.058,-0.5569 1.0184,-3.0839 2.4198,-5.6193 4.0811,-7.3825 3.1237,-17.4817 -1.4901,-15.7152 -2.7163,1.0404 -2.791,-0.7922 -0.1072,-2.6723 1.8959,-1.3295 2.5883,-1.1626 5.3074,1.276 2.6243,2.3536 3.1798,3.6568 3.4518,8.0981 0.1957,3.1953 -0.5506,7.1573 -1.8841,9.9978 -1.6562,3.528 -1.8057,4.6623 -0.5968,4.5358 0.8867,-0.093 2.2696,0.7302 3.0736,1.8285 2.6431,3.6116 2.4961,7.6144 -0.4205,11.4539 -1.5364,2.0223 -2.4936,3.9093 -2.1273,4.1935 1.1673,0.9058 16.0023,-3.6876 18.3489,-5.6815 1.6114,-1.369 2.0279,-2.7471 1.4563,-4.8164 -0.7171,-2.5966 -1.4115,-2.9305 -6.6656,-3.2077 -8.443,-0.446 -7.9415,-2.6107 0.6314,-2.7263 7.2892,-0.098 9.955,1.3653 10.6629,5.8549 0.6653,4.2194 -2.6519,8.1182 -9.1364,10.7388 -7.1572,2.8927 -12.0515,3.5679 -17.0361,2.3508 -3.1546,-0.7704 -4.0933,-0.484 -7.4732,2.2819 -2.1263,1.7396 -5.629,4.0351 -7.7845,5.1009 -6.4112,3.1707 -6.2817,4.2709 0.9351,7.9384 11.1224,5.6528 20.4337,7.1549 24.3513,3.9289 1.8891,-1.5557 -1.6717,-6.9955 -8.4303,-12.8789 -5.6159,-4.8886 -5.3483,-6.3569 0.5674,-3.1145 7.7543,4.2503 14.6218,15.3081 11.5029,18.5217 -2.1229,2.1871 -8.9802,3.5697 -13.9418,2.8102 -6.0922,-0.9325 -19.4407,-7.4398 -20.7529,-10.1169 -1.5711,-3.2049 -2.716,-2.2745 -6.2991,5.1172 -3.2038,6.6086 -8.9456,13.7281 -13.6585,16.9359 -3.2647,2.2221 -6.3132,2.1902 -9.0615,-0.094 z m 14.835,-50.6525 c 1.207,-7.0217 1.007,-7.6168 -2.4376,-7.2598 -2.1079,0.2206 -2.1632,0.7467 -0.7668,7.3924 0.8278,3.936 1.6347,6.9789 1.7952,6.7617 0.1603,-0.2186 0.7945,-3.3198 1.4092,-6.8943 z m 41.1487,-7.7562 c -0.1272,-0.8088 0.563,-2.4105 1.5343,-3.5585 1.0499,-1.241 1.4059,-2.9263 0.8776,-4.1546 -0.9984,-2.321 0.3319,-2.8791 2.6236,-1.1008 2.3216,1.8015 2.2954,4.46 -0.072,7.3727 -2.4304,2.9896 -4.6189,3.625 -4.9633,1.4412 z m -43.6706,-32.7606 c -3.0406,-3.9462 -6.5364,-3.7611 -8.9887,0.4756 -2.3287,4.0234 -3.5886,3.1004 -2.0315,-1.4881 2.9343,-8.646 13.6774,-8.5474 15.0468,0.138 0.6088,3.8611 -1.3905,4.2951 -4.0266,0.8745 z" fill="#00B894" transform="translate(89.840753,-116.65315) rotate(-1.6042932,-98741.295,67421.666)"/>
</svg>