<?xml version="1.0" ?><svg height="118.56871mm" viewBox="0 0 91.10862 118.56871" width="91.10862mm" xmlns="http://www.w3.org/2000/svg">
    <path d="m 2077.9149,2918.2192 c 3.2351,-2.3312 13.3136,-0.6263 13.3136,-0.6263 0,0 6.1089,-6.0894 15.2596,-8.1425 9.1506,-2.0529 19.4095,2.4357 26.8716,7.2842 7.4623,4.8483 12.8368,16.424 12.8368,16.424 0,0 8.4545,2.7604 7.2689,8.2236 -1.1859,5.4631 -6.2895,7.1564 -6.2895,7.1564 0,0 -0.3481,8.7572 -3.4025,14.2203 -3.0546,5.4631 -11.2075,18.2626 -11.2075,18.2626 0,0 14.7442,-2.3082 16.6129,0.5337 1.8688,2.8416 -2.2942,-1.1949 -6.5214,2.4474 -4.2273,3.6419 -9.099,6.0311 -11.4446,5.7761 -2.3458,-0.2551 -8.5836,-1.6008 -8.5836,-1.6008 0,0 3.2608,2.3432 3.7891,5.5097 0.5284,3.1663 -2.8739,-0.5569 -5.8126,-2.2619 -2.9385,-1.705 -14.6407,-0.812 -16.3034,0.3016 -1.6626,1.1134 -12.4243,4.8252 -12.4243,4.8252 l 2.0881,-7.1218 c 0,0 -20.982,0.6496 -24.8356,-4.999 -3.8534,-5.6488 -5.2583,-8.7921 0.3738,-5.6835 5.6322,3.1083 12.6045,3.7349 15.1951,3.584 2.5905,-0.1508 -0.2577,-3.6885 -3.4669,-7.3421 -3.2091,-3.6537 -9.1892,-11.796 -9.6274,-21.9798 -0.4381,-10.1838 -1.6896,-12.701 1.945,-16.0996 3.6343,-3.3983 4.5495,-6.4257 3.1319,-10.6826 -1.4179,-4.2566 1.2329,-8.0089 1.2329,-8.0089 z" fill="#FFFFFF" paint-order="markers stroke fill" transform="translate(-42.84344,-91.07447) translate(-2022.3316,-2815.6096)"/>
    <path d="m 2110.3846,3016.0933 0.32,-6.1994 -4.3218,-1.678 c -5.7764,-2.2429 -5.5838,-4.6965 0.3449,-4.3904 3.6651,0.1892 4.4057,-0.1007 3.937,-1.5401 -0.3175,-0.9752 -0.4904,-3.464 -0.3838,-5.5302 0.1762,-3.413 -0.099,-3.7725 -2.9926,-3.9219 -1.8208,-0.094 -5.7231,1.3583 -9.1024,3.3873 -3.2534,1.9537 -6.6078,3.5165 -7.4537,3.4728 -1.8803,-0.097 -1.8154,-4.6502 0.091,-6.3694 2.3063,-2.0792 0.2514,-2.8636 -9.1501,-3.491 -10.4506,-0.6985 -13.4898,-2.1666 -15.3782,-7.435 -2.0319,-5.6685 -1.2381,-6.1911 1.8889,-1.2025 3.3236,5.3021 6.6193,4.4502 12.4286,4.7501 5.0949,0.2631 9.2861,0.029 9.3144,-0.5194 0.028,-0.5488 -3.2895,-1.1276 -7.3725,-1.2866 -5.0172,-0.1939 -8.5512,-0.9557 -10.9001,-2.3459 -3.6052,-2.1335 -4.8573,-5.1479 -1.4702,-3.5404 3.9815,1.8899 10.3678,3.32 12.4248,2.7823 1.8504,-0.4839 1.4818,-1.1295 -2.6484,-4.634 -6.3363,-5.3772 -8.5718,-10.7766 -9.8524,-23.7981 -1.4091,-14.3299 -1.4119,-14.3123 2.7483,-18.0642 3.3229,-2.9962 3.5288,-3.5416 2.5524,-6.7496 -1.622,-5.3308 -1.0444,-8.7701 1.8898,-11.2546 2.8443,-2.4085 6.7712,-2.6908 11.0719,-0.7967 2.182,0.9609 3.1232,0.7017 5.3837,-1.4824 3.9267,-3.7955 9.84,-6.1735 17.9764,-7.2294 9.1254,-1.1844 15.2625,0.6758 19.8068,6.0011 1.7922,2.1009 4.644,4.2175 6.3372,4.7039 4.0758,1.171 7.9243,5.9332 8.5504,10.5796 0.427,3.1735 0.9664,3.7733 3.5095,3.9046 6.6298,0.3423 8.6881,10.1218 3.1765,15.0923 -1.5606,1.4073 -3.3542,2.532 -3.9861,2.4994 -0.6615,-0.034 -1.2831,2.5301 -1.4644,6.0404 -0.3302,6.3976 -2.4106,11.1329 -6.8418,15.5727 -1.4382,1.4408 -2.9443,3.7303 -3.3462,5.0871 -0.7048,2.3779 -0.5352,2.4513 4.6898,2.0308 6.1311,-0.4933 11.4107,1.4647 12.9882,4.8166 1.3814,2.9357 0.081,4.5347 -2.447,3.0089 -3.5129,-2.1198 -6.7783,-1.5577 -12.9274,2.2254 -5.8188,3.58 -7.8405,3.8309 -12.6221,1.5656 -2.2012,-1.043 -4.9406,0.6479 -3.9565,2.4412 0.6073,1.1064 1.106,1.0406 2.1878,-0.2895 1.2521,-1.5388 1.5433,-1.4208 2.7334,1.1091 1.1502,2.4434 1.074,3.0637 -0.5545,4.5323 -1.7454,1.5741 -2.1172,1.4284 -4.9542,-1.9411 -3.6931,-4.3866 -7.113,-5.109 -6.2952,-1.33 0.2985,1.3791 0.6552,6.5994 0.7932,11.5999 0.4407,6.0985 -2.0392,9.3387 4.5212,8.634 3.799,-0.4082 4.2575,-0.2076 4.1531,1.8151 -0.1388,2.6898 -1.1515,3.3762 -5.1642,3.5004 -1.9485,0.062 -3.3548,0.9408 -4.0596,2.5413 -5.5521,7.2965 -6.3182,-3.4849 -6.1742,-6.6744 z m -12.0006,-23.7197 c 1.4682,-0.8448 1.4471,-0.996 -0.1529,-1.093 -1.0222,-0.053 -2.189,0.3662 -2.5938,0.9512 -0.9315,1.3468 0.5233,1.4219 2.748,0.1419 z m 19.5621,-5.5976 c 3.3227,-1.0708 11.9486,-7.0347 12.0142,-8.3066 0.024,-0.4597 -2.7836,-1.3194 -6.2384,-1.9102 -3.4549,-0.5912 -8.4146,-2.13 -11.0215,-3.42 -4.1014,-2.0296 -5.6128,-2.2335 -11.2221,-1.513 -3.5655,0.4585 -8.1952,0.4196 -10.2884,-0.086 -2.0933,-0.5058 -3.8225,-0.6007 -3.8433,-0.1984 -0.1299,2.5172 5.4072,12.1507 7.8384,13.6366 3.417,2.0891 18.2379,3.2675 22.7604,1.8103 z m 20.0148,-1.3615 c 2.7663,-1.7775 4.8432,-3.4382 4.6162,-3.6901 -1.2198,-1.3524 -8.627,1.0004 -11.4171,3.627 -3.189,3.0023 -3.1974,3.0386 -0.7274,3.1662 1.3747,0.071 4.7624,-1.3251 7.5283,-3.1031 z m -55.8501,-17.9285 c -4.3608,-4.5994 -5.0677,-7.5978 -2.7114,-11.5022 1.6533,-2.7401 -0.1377,-5.3748 -3.7816,-5.5629 -3.0415,-0.1571 -3.0343,-0.1907 -1.4917,7.0867 1.7265,8.1463 3.9495,12.363 7.8926,14.969 5.2263,3.4545 5.2815,0.4819 0.092,-4.9906 z m 53.7596,-0.014 c 2.3933,-2.1069 5.5259,-6.255 6.9614,-9.217 l 2.6107,-5.386 -5.7564,4.6623 c -7.098,5.7485 -10.5729,6.6089 -26.6452,6.5986 -13.2832,-0.01 -23.4328,-2.2931 -27.326,-6.1503 -1.4663,-1.4529 -1.8744,-1.4629 -3.1503,-0.079 -4.1098,4.4622 3.1587,8.4503 16.812,9.2241 5.3072,0.306 12.0867,1.3871 15.0646,2.4147 2.9774,1.0271 8.0381,1.8437 11.246,1.8152 4.9951,-0.045 6.4566,-0.6025 10.1832,-3.8836 z m -28.7458,-7.8257 c 0.2273,-0.229 0.7377,-1.3888 1.1367,-2.5807 0.9518,-2.8429 -3.9936,-7.2676 -9.4347,-8.4415 -3.5055,-0.7559 -3.9383,-0.6177 -3.3841,1.0835 0.3492,1.0723 0.5319,3.9514 0.4056,6.3966 l -0.2295,4.4466 5.5472,-0.2453 c 3.0512,-0.1361 5.7323,-0.4318 5.9588,-0.6592 z m -15.0463,-7.7085 c -0.332,-1.2932 -1.7006,-3.8097 -3.0414,-5.5928 -1.3402,-1.7828 -2.6708,-4.4288 -2.9567,-5.8801 -0.7462,-3.7933 2.0477,-10.498 5.4532,-13.0852 3.6677,-2.7865 3.0119,-5.2862 -2.0199,-7.7006 -5.8534,-2.8087 -10.2066,-2.6259 -11.8281,0.4961 -1.0955,2.1089 -1.0372,3.2117 0.2912,5.4869 2.2595,3.8699 1.8312,8.7749 -0.9654,11.0549 -3.112,2.5372 -3.2448,7.516 -0.2612,9.8429 3.616,2.8213 4.0368,2.4033 4.4187,-4.3933 0.2286,-3.8476 0.9397,-8.1349 2.3396,-10.7473 3.2468,-7.1697 3.4725,-2.9199 2.1072,2.2491 -1.7028,6.4471 -1.0818,14.5894 2.3297,20.4982 2.5542,4.4229 2.8174,4.5944 3.7429,2.4395 0.548,-1.2743 0.7241,-3.3751 0.3917,-4.6682 z m 27.7771,7.3797 c 3.5089,0.1811 5.9603,-2.4837 6.6034,-7.1785 0.3455,-2.5142 0.3775,-4.5842 0.072,-4.6 -2.5821,-0.1333 -12.0511,5.5056 -13.5488,8.0684 -2.541,4.3487 -2.4066,4.7058 1.5528,4.124 1.9085,-0.2803 4.3029,-0.4665 5.3214,-0.4139 z m 13.7808,-4.2659 c 2.3171,-1.4054 5.4389,-3.5998 6.9372,-4.8768 1.4982,-1.2767 4.6388,-3.6303 6.9785,-5.2301 3.3277,-2.2753 4.2137,-3.5501 4.0673,-5.8517 -0.1429,-2.2537 -0.8661,-3.057 -3.0871,-3.4305 -2.4818,-0.4188 -3.1196,0.08 -4.4322,3.4602 -0.8432,2.1718 -4.9301,7.1967 -9.082,11.1661 -7.9531,7.6042 -8.3557,8.9936 -1.3817,4.7628 z m -20.1932,-9.6314 c 0.3029,-4.2969 0.1056,-4.7189 -2.064,-4.4193 -1.3191,0.1819 -3.414,-0.2823 -4.6559,-1.031 -2.0083,-1.2117 -2.2724,-1.0686 -2.3946,1.2981 -0.083,1.6026 0.8863,3.409 2.4372,4.5436 1.4158,1.0359 2.854,2.9527 3.1958,4.26 0.9718,3.7174 3.091,0.8862 3.4815,-4.6514 z m 26.7205,-7.2166 c 1.554,-6.1123 1.2771,-10.4819 -0.8556,-13.5009 -1.1503,-1.6293 -2.7754,-2.7392 -3.6115,-2.467 -0.8357,0.2723 -3.8919,-1.8415 -6.7913,-4.6971 -6.2331,-6.1394 -11.0795,-7.5995 -20.5031,-6.1783 -6.5072,0.9819 -14.8773,4.3567 -14.9639,6.034 -0.026,0.5013 0.081,1.463 1.6923,3.0287 1.1125,1.0808 0.4433,2.373 0.8711,3.264 0.4123,0.8585 6.9968,-2.5085 9.8543,-5.0278 4.5007,-3.9676 9.0074,-3.6035 12.92,1.0438 1.6571,1.968 2.9933,3.952 2.9698,4.4088 -0.024,0.4569 1.2421,0.653 2.8123,0.4358 3.7664,-0.5202 7.6729,1.9426 8.8583,5.5851 2.049,6.295 1.9222,9.5182 -0.5038,12.7759 -1.3034,1.7512 -2.4035,4.1743 -2.445,5.3845 -0.1163,3.3184 8.5884,-5.7386 9.695,-10.0898 z m -21.8946,6.2065 c 1.1024,-2.1221 1.0724,-2.5356 -0.1553,-2.1359 -1.6295,0.5308 -3.4025,4.6546 -2.0315,4.7254 0.4507,0.023 1.4347,-1.1418 2.1868,-2.5895 z m -21.174,-2.5236 c -2.0178,-5.4853 -0.6435,-12.4315 2.4289,-12.2729 0.6186,0.032 0.7461,0.6058 0.2831,1.2754 -1.2399,1.7921 -1.1668,7.6158 0.1133,9.0352 0.7824,0.8678 1.1927,-0.4112 1.3962,-4.3524 0.1859,-3.6016 0.8933,-6.0326 1.995,-6.855 1.936,-1.4444 1.3985,-3.2437 -1.0059,-3.3679 -2.4911,-0.1286 -11.5839,7.948 -12.3181,10.9413 -0.8833,3.6033 1.581,7.2397 5.0279,7.4177 2.2502,0.1162 2.6604,-0.2432 2.0796,-1.8214 z m 30.6563,-0.6844 c 4.0568,-3.1352 1.8952,-13.3399 -2.8778,-13.5864 -3.0984,-0.1599 -3.6845,1.5524 -1.8879,5.5146 1.0911,2.4063 1.3169,4.7796 0.6978,7.3406 -0.9662,4.0011 -0.3127,4.1181 4.0679,0.7312 z m -10.633,-5.6505 c 0.3779,-0.8513 -0.2112,-2.8195 -1.3094,-4.3744 -2.5143,-3.56 -2.4707,-4.157 0.2964,-4.0141 2.1098,0.1089 2.14,-0.026 0.5911,-2.6816 -1.9205,-3.2889 -4.867,-4.6123 -8.6234,-3.8731 -3.2779,0.6452 -3.5897,2.182 -0.6325,3.1204 1.1927,0.3787 2.1288,1.4594 2.0801,2.4015 -0.049,0.9422 -1.1049,2.1912 -2.3474,2.776 -2.6823,1.2623 -3.0169,3.4562 -0.8333,5.4673 1.3291,1.2241 1.5996,1.0331 1.7153,-1.2089 0.135,-2.6143 2.0569,-5.2089 3.7911,-5.1194 0.484,0.025 0.8282,1.0418 0.7654,2.259 -0.1203,2.3304 1.8841,6.6943 3.1043,6.7573 0.3946,0.02 1.0265,-0.6587 1.4045,-1.5099 z" fill="#00B894" transform="translate(-42.84344,-91.07447) translate(-2022.3316,-2815.6096)"/>
</svg>