<?xml version="1.0" ?><svg height="113.50613mm" viewBox="0 0 114.26301 113.50613" width="114.26301mm" xmlns="http://www.w3.org/2000/svg">
    <path d="m 2842.4491,2820.0723 c 2.0315,-4.4371 12.0285,-12.5714 17.4834,-15.4265 5.4552,-2.8552 19.9715,-5.8749 19.9715,-5.8749 0,0 -16.0914,-10.6608 -20.542,-21.9995 -4.4508,-11.3388 -1.7348,-24.3002 -1.7348,-24.3002 0,0 15.9088,1.746 22.5507,11.8113 6.6418,10.065 10.9328,22.8828 11.3665,24.8547 0.4336,1.9719 3.4007,0.9245 4.3595,-3.4303 0.9586,-4.3548 2.2823,-16.7823 8.6275,-25.4299 6.3453,-8.6479 15.589,-12.8794 15.589,-12.8794 0,0 3.8346,5.8132 0.7305,19.4114 -3.104,13.5983 -7.4636,22.6568 -7.4636,22.6568 0,0 11.3665,-7.8055 23.0754,-7.8467 11.7089,-0.041 16.3195,3.225 16.3195,3.225 0,0 -7.9886,10.9484 -17.3466,15.3442 -9.3578,4.3958 -21.8657,6.9019 -21.8657,6.9019 0,0 9.7004,2.9578 16.7986,9.9214 7.0985,6.9633 7.7833,22.5131 7.7833,22.5131 0,0 -15.1784,-0.7601 -23.395,-8.0317 -8.2169,-7.2715 -9.4036,-14.3788 -9.4036,-14.3788 0,0 -0.5021,14.8514 -5.9115,24.0538 -5.4095,9.2022 -14.3996,16.8775 -14.3996,16.8775 0,0 -6.0969,-15.4397 -3.586,-27.1277 2.5106,-11.6877 3.5147,-16.7616 3.5147,-16.7616 0,0 -9.8145,9.0382 -23.7829,9.4901 -13.9686,0.4519 -18.7388,-3.574 -18.7388,-3.574 z" fill="#FFFFFF" paint-order="markers stroke fill" transform="translate(-225.82399,-59.733774) translate(-2614.8112,-2686.3931)"/>
    <path d="m 2880.9998,2854.0431 c -2.1386,-7.1033 -2.217,-24.8652 -0.1374,-31.2279 2.5405,-5.8986 -0.039,-3.4057 -4.1163,-1.1812 -7.8089,4.2604 -14.6841,5.4919 -23.0158,4.1229 -6.724,-1.105 -12.5421,-3.369 -13.0678,-5.0859 -0.505,-1.6504 6.0914,-9.2488 11.7435,-13.5269 6.6095,-5.0029 13.4582,-8.2735 19.1117,-9.1264 3.3829,-0.7007 5.4105,0 1.538,-2.0816 -6.6914,-3.6033 -15.3369,-16.4397 -17.4594,-25.9237 -1.4522,-6.4903 -0.83,-16.3544 1.1572,-18.3417 1.4047,-1.4046 1.8314,-1.3971 6.6652,0.1169 17.6587,5.531 30.0327,21.2357 29.8506,37.8846 -0.079,7.1841 -1.131,10.4185 -3.5029,10.7658 -1.9855,0.2906 -2.8149,-1.8834 -1.1184,-2.9317 0.9744,-0.6024 0.5147,-8.3307 -0.8605,-14.4675 -2.217,-9.8927 -10.8781,-19.9787 -22.7676,-26.5131 -6.7978,-3.7361 -7.5796,-3.5166 -7.6034,2.136 -0.043,10.1045 5.445,23.1352 12.9453,30.738 2.4655,2.4991 6.8933,5.7397 9.8398,7.2009 2.9465,1.4614 5.7639,3.0876 6.2611,3.614 0.4975,0.5263 2.0111,1.6425 3.364,2.4804 3.2272,1.9985 3.113,4.0395 -0.5999,10.7285 -1.6827,3.0317 -3.7554,7.9271 -4.6064,10.8786 -1.8747,6.5045 -1.722,18.4513 -0.4548,25.9248 0.9706,5.7246 2.3457,4.0476 6.0065,0.166 6.0449,-6.4094 9.5984,-12.659 11.5898,-20.0158 1.3631,-5.0348 1.4063,-6.5265 0.3815,-13.1149 -0.6362,-4.0886 -0.989,-7.9359 -0.7845,-8.55 0.7366,-2.2091 4.3184,2.1219 7.8741,9.5211 5.9295,12.3386 12.6654,17.8978 23.6612,19.5269 4.4835,0.8377 4.4519,1.0987 3.774,-3.2739 -0.888,-5.7256 -4.5658,-12.6906 -8.6492,-16.3799 -1.9637,-1.7739 -7.7879,-5.323 -12.9429,-7.8869 -11.2704,-5.0702 -9.2919,-5.8297 0.2423,-6.2128 8.7857,-0.3365 10.1943,-0.644 16.3239,-3.5644 7.0761,-3.3714 19.8748,-14.1866 18.4853,-15.6209 -0.4099,-0.4232 -5.6427,-0.7696 -11.6277,-0.7696 -10.0745,0 -11.2562,0.1827 -15.913,2.4713 -2.7668,1.3594 -6.7918,4.0139 -8.9447,5.8993 -5.4118,4.7395 -7.615,5.8389 -8.2717,4.1277 -0.7642,-1.9908 0.5993,-4.8394 4.6755,-9.7699 5.6178,-6.7951 8.2205,-14.2649 9.2973,-26.6828 0.5024,-5.7957 0.6789,-10.7723 0.3922,-11.0591 -0.9197,-0.9193 -6.7101,3.2445 -10.5217,7.5664 -2.0334,2.3052 -4.7009,6.1682 -5.9279,8.5842 -2.3048,4.5374 -6.5273,19.7077 -6.5273,23.4499 0,3.4608 -1.5133,2.414 -2.1356,-1.4769 -0.5705,-3.5676 0.4189,-11.9707 2.0877,-17.7318 2.8639,-9.8854 19.1128,-25.1919 24.5345,-23.1113 1.8532,0.711 2.6699,7.3315 2.102,17.0377 -0.4159,7.1017 -1.5627,11.9139 -4.6442,19.4887 -0.5132,1.261 0.2633,1.1631 5.3152,-0.6707 10.5632,-3.8343 30.88,-2.2528 30.88,2.4037 0,3.414 -2.6585,6.9155 -8.6984,11.4567 -6.6455,4.9965 -17.0962,9.7841 -23.4551,10.7456 -5.0053,0.5466 -3.9819,0.656 0.062,2.4829 9.2457,4.1766 15.2755,12.6283 16.7471,23.474 1.1759,8.6662 0.9588,9.0066 -5.7466,9.0066 -10.2105,0 -19.0541,-5.0771 -24.6109,-13.2462 -2.1644,-3.1819 -2.016,-6.1519 -3.0925,-1.3948 -2.3469,10.3716 -3.8034,13.7262 -9.5099,21.9023 -3.5058,5.0233 -10.1558,10.6277 -12.6101,10.6277 -1.8571,-1.3928 -2.5266,-4.0966 -2.984,-5.5899 z m -9.0596,-34.9097 c 5.1948,-2.3994 14.9791,-10.233 14.9791,-11.993 0,-1.9598 -9.5421,-4.1189 -16.1219,-3.6483 -7.094,0.5076 -12.3434,2.9844 -21.1753,10.3868 -2.8188,2.3626 -6.264,5.0081 -3.3589,5.6861 10.6387,2.4831 18.6928,2.7937 25.677,-0.4316 z m 25.1524,-10.9029 c -0.7811,-2.036 0.4849,-3.4401 1.9818,-2.198 1.6345,1.3567 1.5983,2.2968 -0.1143,2.9537 -0.7715,0.2963 -1.5917,-0.036 -1.8681,-0.7557 z m -0.3409,-5.4027 c -0.8445,-1.0173 -0.8985,-1.6806 -0.1954,-2.3847 1.3571,-1.3571 3.9732,-0.1673 3.6215,1.6453 -0.4016,2.0709 -2.0304,2.4224 -3.4273,0.7394 z m 4.7795,-4.5241 c -0.7946,-2.0706 0.9635,-3.4394 2.3189,-1.806 1.1459,1.3807 0.6268,3.2077 -0.9112,3.2077 -0.4784,0 -1.1118,-0.631 -1.4077,-1.4017 z m -5.4883,-0.5663 c -1.4454,-1.4452 -1.3546,-3.0995 0.2029,-3.6971 1.6358,-0.6278 3.5545,1.6516 2.8769,3.4175 -0.626,1.6311 -1.6366,1.723 -3.0798,0.2796 z m 2.8301,-5.6288 c -0.3097,-0.8073 -0.1347,-1.8968 0.3899,-2.4211 1.3629,-1.3628 3.9449,-0.1168 3.589,1.7312 -0.3965,2.059 -3.2627,2.5559 -3.9789,0.6899 z" fill="#00B894" transform="translate(-225.82399,-59.733774) translate(-2614.8112,-2686.3931)"/>
</svg>