<?xml version="1.0" ?><svg height="96.034729mm" viewBox="0 0 77.05835 96.034729" width="77.05835mm" xmlns="http://www.w3.org/2000/svg">
    <path d="m 2246.0026,2822.558 c -2.7691,-0.468 -7.9949,0.6435 -20.7476,-13.3842 -12.7529,-14.0274 -8.333,-17.1627 -8.333,-17.1627 l 4.472,1.5092 c 0,0 -7.5139,-14.2732 -3.3798,-18.5433 4.1338,-4.2704 6.8508,0.3976 6.8508,0.3976 0,0 -1.0911,-9.8028 0.9364,-11.2217 2.0275,-1.419 6.7855,4.7871 6.7855,4.7871 0,0 1.1959,-3.1705 3.3017,-3.0769 2.1061,0.094 3.2369,3.1121 3.2369,3.1121 0,0 1.7291,-2.7729 4.1601,-2.843 2.431,-0.07 2.9509,1.4039 2.9509,1.4039 0,0 4.8228,-5.6274 7.1239,-5.4401 2.3008,0.187 2.327,5.0657 2.327,5.0657 0,0 3.4578,-1.9069 4.9268,-1.4391 1.469,0.4681 1.248,2.7496 1.248,2.7496 0,0 5.1348,-3.9897 7.1888,-3.1004 2.0539,0.889 0.182,6.1656 0.182,6.1656 0,0 2.9768,-0.4212 4.6149,1.1348 1.638,1.556 0.1561,7.5575 0.1561,7.5575 0,0 12.2303,-6.0126 14.1255,-2.8289 1.8955,3.1837 -6.6897,13.5689 -6.6897,13.5689 0,0 4.4588,3.5917 -3.8089,13.6065 -8.268,10.0144 -17.6406,16.8235 -31.6283,17.9818 z" fill="#FFFFFF" paint-order="markers stroke fill" transform="translate(-85.806001,-57.316458) translate(-2127.6755,-2702.8703)"/>
    <path d="m 2251.038,2855.5592 c -2.0452,-1.5206 -5.0778,-16.2728 -5.1043,-24.8299 -0.027,-6.3636 -0.5322,-5.9339 -2.7661,-6.9709 -1.2951,-0.6011 -2.7104,-0.8732 -3.1452,-0.6045 -1.7693,1.0933 -6.209,-1.7795 -9.8993,-5.181 -5.0638,-4.6678 -9.0012,-10.1426 -13.5406,-18.8286 -4.5945,-8.7908 -4.1674,-10.6964 1.8428,-8.2227 1.3088,0.5389 1.1991,-1e-4 -0.6601,-3.2526 -3.9439,-6.8988 -2.4263,-15.9735 2.671,-15.9735 1.9068,0 2.166,-0.4469 2.4091,-4.1571 0.3758,-5.7268 2.2324,-6.787 6.3652,-3.6347 2.5258,1.9264 3.2211,2.1301 3.6307,1.0623 0.6416,-1.6717 3.5962,-1.713 4.9599,-0.068 0.8225,0.991 1.5862,1.0443 3.6749,0.2557 1.9562,-0.7383 2.9011,-0.7307 3.6612,0.03 0.7701,0.7699 1.7445,0.2615 3.9195,-2.0448 3.379,-3.5826 5.4782,-3.8911 6.7963,-0.9982 0.7462,1.6376 1.4889,1.991 3.5484,1.6888 1.8073,-0.2652 2.7712,0.051 3.1488,1.0363 0.4782,1.2462 0.9737,1.1766 4.0781,-0.571 3.4618,-1.9488 3.5594,-1.9546 4.8134,-0.2794 0.704,0.9407 1.0699,2.5507 0.813,3.578 -0.3379,1.3509 0.1015,2.1153 1.5846,2.7622 1.5219,0.6637 2.1229,1.7601 2.3288,4.2486 0.1522,1.8448 0.4054,3.3544 0.5615,3.3544 0.1573,0 1.7831,-0.6263 3.6146,-1.3918 1.8319,-0.7654 4.5573,-1.2684 6.0567,-1.118 5.322,0.534 5.5288,4.8761 0.5208,10.9228 -2.3158,2.7956 -2.8448,4.17 -2.6488,6.8834 0.3544,4.9101 -2.0889,9.2607 -9.6436,17.1709 -7.4047,7.7531 -16.7448,13.1496 -22.7592,13.1496 -2.6003,0 -3.2603,0.342 -3.2603,1.6901 0,2.9916 2.7479,16.4619 4.6436,22.7637 1.5899,5.2852 1.6676,6.2908 0.5703,7.3882 -1.0327,1.0326 -1.5537,1.0595 -2.7857,0.1443 z m -1.2746,-35.5633 c 0.5765,-2.2046 -0.7427,-2.3558 -1.9541,-0.223 -0.7525,1.3247 -1.1716,1.3923 -2.7276,0.4395 -1.54,-0.9429 -1.8387,-0.9064 -1.8387,0.2231 0,2.2105 5.9319,1.8104 6.5204,-0.4396 z m -12.0361,-2.4598 c -0.1648,-0.369 -2.0534,-3.5873 -4.1989,-7.1513 -3.5319,-5.8675 -13.3574,-16.3278 -15.3369,-16.3278 -1.1913,0 5.3784,11.1818 9.4396,16.0671 1.9452,2.3401 4.7389,5.1158 6.2076,6.1689 2.6881,1.9263 4.4413,2.4869 3.8886,1.2431 z m 22.6031,-2.0594 c 6.2244,-3.1418 15.8298,-12.4751 18.5985,-18.0714 1.0065,-2.034 1.6526,-3.8751 1.4362,-4.0917 -0.857,-0.857 -5.151,2.8473 -8.1671,7.0453 -3.0883,4.2989 -4.9991,5.3934 -6.1534,3.5252 -0.3081,-0.4981 1.2982,-3.9665 3.5691,-7.7074 2.2713,-3.7409 3.969,-6.9619 3.7729,-7.158 -0.881,-0.881 -9.011,9.149 -10.9264,13.4802 -1.1699,2.6456 -2.596,5.1003 -3.1693,5.4544 -1.3516,0.8355 -2.6566,-1.3014 -2.2005,-3.6028 0.1953,-0.9879 0.5941,-4.8657 0.8846,-8.6168 0.4834,-6.2421 0.3805,-6.8591 -1.2108,-7.2756 -2.094,-0.5473 -2.5643,0.8224 -3.3049,9.6239 -0.6875,8.1716 -0.9536,8.9804 -2.525,7.6762 -0.6778,-0.5627 -1.702,-4.2358 -2.2764,-8.163 -2.1384,-14.625 -4.5944,-16.6473 -5.9729,-4.9181 -0.391,3.3274 -0.1073,6.0832 0.9609,9.2958 1.4536,4.3768 1.3189,6.3951 -0.427,6.3951 -0.4473,0 -1.3412,-1.0077 -1.9867,-2.2398 -1.6591,-3.1665 -12.6102,-17.3745 -13.4184,-17.4093 -1.2561,-0.053 -0.6748,2.3986 1.9254,8.1213 2.1584,4.7504 9.4359,18.3082 10.4461,19.4609 0.1596,0.1824 0.9602,-0.3409 1.7798,-1.1605 1.327,-1.3272 1.6532,-1.3437 2.97,-0.1521 1.0025,0.9073 1.9051,1.0696 2.8007,0.5036 0.7267,-0.4598 2.4283,-0.842 3.7808,-0.8496 1.8683,0 2.46,0.417 2.46,1.7754 0,2.2842 -0.051,2.2917 6.3538,-0.9414 z m -35.3575,-21.2922 c -1.9278,-3.7281 -1.8005,-7.8013 0.29,-9.2653 1.6597,-1.1625 1.6546,-1.2783 -0.2231,-5.1939 -2.2797,-4.7519 -4.9635,-5.405 -6.3232,-1.5386 -0.6846,1.9462 -0.4329,3.4547 1.1933,7.1554 1.1334,2.5795 2.2708,5.6959 2.5279,6.9259 0.4756,2.2778 2.9026,5.6788 3.5734,5.0079 0.2029,-0.2028 -0.2636,-1.5944 -1.038,-3.0914 z m 45.7477,-11.2194 c 4.8081,-10.6012 3.4237,-12.3546 -4.1312,-5.2318 l -4.5062,4.2487 -0.5807,7.6027 -0.5806,7.6028 3.4594,-3.9363 c 1.9025,-2.1647 4.7552,-6.7934 6.3393,-10.2861 z m -30.7965,7.9498 c 0.4924,-4.7723 0.3512,-5.1873 -4.3813,-12.8818 -2.6896,-4.3729 -5.984,-9.0443 -7.3158,-10.3863 -2.1163,-2.1325 -2.5303,-1.2932 -2.7004,0.7616 -0.4189,5.0588 3.165,15.7642 6.5689,19.5372 1.6279,1.8044 3.6407,4.3198 4.4731,5.5904 0.8324,1.2705 1.8134,2.3097 2.1801,2.3097 0.3664,0 0.8955,-2.2189 1.1754,-4.9308 z m 12.2634,-1.0871 c 0,-0.792 1.1481,-3.4852 2.5514,-5.9849 2.194,-3.9082 3.4687,-7.9918 5.0477,-16.1723 0.5531,-2.8668 -7.0601,5.9809 -9.3637,10.8819 -1.8461,3.9274 -1.916,4.6386 -0.8793,8.9598 1.0352,4.3153 2.6439,5.7242 2.6439,2.3155 z m 34.8838,-10.8395 c 0,-1.6024 -3.2788,-1.2206 -7.3501,0.8564 -3.2121,1.6387 -3.492,2.0055 -2.1181,2.7741 1.2322,0.6896 1.4572,1.557 1.0153,3.9125 l -0.5678,3.0266 4.5104,-4.769 c 2.4807,-2.6229 4.5103,-5.2331 4.5103,-5.8006 z m -42.5054,-4.9512 c -0.351,-3.7474 -0.9796,-6.8138 -1.3965,-6.8138 -2.4146,0 -3.5131,9.135 -1.6784,13.9607 0.8426,2.2158 1.0638,2.3167 2.3223,1.0581 1.138,-1.138 1.275,-2.6302 0.7526,-8.205 z m 21.8965,-1.7294 c 0.024,-0.8933 0.4531,-2.4026 0.9624,-3.3543 1.1586,-2.1646 -0.096,-2.2422 -2.6599,-0.1648 -1.7248,1.3974 -3.5534,6.4756 -3.6114,10.0289 0,0.7298 1.1482,-0.06 2.6256,-1.7891 1.4559,-1.703 2.6633,-3.8275 2.6833,-4.7207 z m -13.9194,-5.3079 c 0.7593,-4.1067 -0.3,-4.2942 -3.4064,-0.6023 -2.5598,3.0421 -2.5506,3.0054 -1.7499,7.0085 l 0.5657,2.8286 1.9851,-2.9404 c 1.0919,-1.6171 2.2642,-4.4497 2.6055,-6.2944 z m -15.5237,2.2602 c -1.349,-2.873 -2.3115,-1.4084 -1.4169,2.1562 0.4303,1.7144 0.8473,2.0639 1.5837,1.3276 0.7365,-0.7367 0.6927,-1.6535 -0.1674,-3.4838 z" fill="#00B894" transform="translate(-85.806001,-57.316458) translate(-2127.6755,-2702.8703)"/>
</svg>