<?xml version="1.0" ?><svg height="96.646767mm" viewBox="0 0 94.139389 96.646767" width="94.139389mm" xmlns="http://www.w3.org/2000/svg">
    <path d="m 1925.0842,2949.8631 c -2.7408,-6.9376 -4.5199,-14.3259 -0.593,-19.935 3.9267,-5.6095 24.6018,-23.8011 27.1188,-25.6749 2.5167,-1.8738 10.6076,-0.5456 12.1888,1.4941 1.5814,2.0399 2.5432,5.2535 4.5331,5.574 1.9897,0.3201 1.7526,-3.048 4.994,-3.1547 3.2417,-0.1066 19.8977,5.2181 26.0646,10.6495 6.167,5.4314 11.0953,7.6846 13.2565,16.8397 2.1608,9.1554 0.7379,27.2759 -1.4232,30.3593 -2.1611,3.0832 -8.3024,9.4361 -12.9011,16.3738 -4.599,6.9376 -10.4233,13.2347 -18.8963,13.1162 -8.473,-0.1188 -10.6997,-5.2655 -10.6997,-5.2655 0,0 -5.8844,4.7895 -12.2156,4.7553 -6.3309,-0.034 -22.3615,-8.0639 -24.1141,-11.9538 -1.7526,-3.8897 -8.0645,-28.4261 -7.9854,-30.4184 0.079,-1.9923 0.6726,-2.7596 0.6726,-2.7596 z" fill="#FFFFFF" paint-order="markers stroke fill" transform="translate(-19.022127,-100.7962) translate(-1901.7715,-2800.3799)"/>
    <path d="m 1950.1801,2994.9609 c -2.724,-1.7681 -7.2806,-3.8389 -10.1257,-4.6022 -2.8451,-0.7631 -5.8934,-2.1971 -6.7736,-3.186 -3.4301,-3.8543 -9.8204,-22.5676 -10.1978,-29.8645 -0.2028,-3.9348 -0.9325,-9.8781 -1.6205,-13.2077 -1.8307,-8.8632 0,-14.6103 6.6889,-20.9099 2.8906,-2.7252 9.2322,-8.7933 14.0924,-13.4846 7.1816,-6.9322 9.4807,-8.5299 12.274,-8.5299 5.2224,0 10.9444,2.8255 12.1514,6.0004 1.2492,3.2858 1.7693,3.414 4.157,1.0263 1.4096,-1.4095 3.0456,-1.6292 7.8911,-1.0598 8.9217,1.0486 16.849,5.1569 25.059,12.9859 10.0943,9.6263 11.3059,12.7799 11.1436,29.0088 -0.079,7.9608 -0.6994,14.5439 -1.5762,16.7343 -0.7945,1.9861 -4.3113,6.4437 -7.8153,9.9057 -3.5036,3.462 -7.8563,8.7357 -9.6724,11.7189 -4.3841,7.2027 -7.6835,9.4206 -15.1622,10.1924 -6.6583,0.6872 -11.8032,-1.3335 -11.8032,-4.6358 0,-2.3071 -1.1122,-2.0261 -4.3819,1.1064 -4.5199,4.3305 -8.5438,4.5555 -14.3286,0.8013 z m 38.4592,-4.1997 c 1.8744,-1.577 4.7137,-5.1677 6.3099,-7.9793 1.5962,-2.8118 5.2733,-7.5885 8.1715,-10.6151 2.8982,-3.027 5.7924,-6.8977 6.4317,-8.6016 1.4145,-3.7714 1.4828,-9.549 0.1362,-11.6737 -0.7605,-1.2018 -1.3562,-0.6876 -2.5706,2.2186 -0.8692,2.0803 -3.3533,5.3394 -5.5202,7.2416 -2.7724,2.4344 -3.7718,4.1001 -3.3734,5.6237 0.3119,1.1905 -0.4206,4.0841 -1.6267,6.4295 -4.3036,8.3694 -12.4259,13.6203 -21.0698,13.6203 -4.8935,0 -5.2527,0.5478 -2.7241,4.1575 2.5853,3.6915 11.2186,3.4616 15.8336,-0.4215 z m -29.0397,0.5628 c 1.3016,-1.6229 5.3999,-2.2872 2.6798,-2.5268 -5.5835,0 -10.962,-3.5138 -11.7318,-7.3635 -0.4228,-2.1142 -1.7728,-3.8837 -3.7387,-4.9003 -1.692,-0.8753 -3.3943,-2.5923 -3.7827,-3.8164 -0.3888,-1.2241 -2.096,-2.944 -3.7938,-3.8221 -4.2978,-2.2223 -6.9247,-9.2562 -6.8959,-18.4656 0,-4.0861 -0.1657,-7.4292 -0.3937,-7.4292 -0.9912,0 -3.577,6.427 -4.274,10.6223 -0.5934,3.5743 -0.1471,6.0982 2.0508,11.5921 1.5451,3.8624 3.1369,8.7402 3.5375,10.8395 1.3718,7.1933 3.2139,9.4534 8.8899,10.9078 2.9048,0.7447 7.0152,2.29 9.1338,3.4347 4.3775,2.3649 7.0272,2.5379 8.3188,0.9275 z m 16.4696,-8.589 c 12.6152,-1.651 20.8761,-11.9905 17.1574,-21.4745 -0.7488,-1.9094 -1.0477,-1.7868 -3.2798,1.3485 -1.5052,2.1133 -4.1313,3.951 -6.7824,4.7453 -2.5525,0.7646 -4.6025,2.1664 -4.9999,3.4185 -0.3707,1.1673 -2.9802,3.5857 -5.7993,5.374 -4.8236,3.0603 -5.5712,3.2074 -12.6984,2.5061 -6.205,-0.6108 -7.4856,-0.4688 -7.0886,0.7866 0.9759,3.0862 7.7206,5.5543 13.0106,4.7612 2.724,-0.4085 7.4404,-1.0679 10.4804,-1.4657 z m -8.279,-8.3267 c 2.6062,-1.4514 2.635,-1.5683 0.5502,-2.2185 -1.2106,-0.3771 -3.6871,-1.495 -5.5031,-2.4836 -1.816,-0.9892 -5.5895,-2.9331 -8.3854,-4.3203 -7.6763,-3.8081 -8.8937,-9.0354 -5.7909,-24.8624 0.5178,-2.6416 0.2497,-3.0264 -2.1109,-3.0264 -4.5439,0 -5.5441,2.3965 -4.711,11.2891 1.2306,13.1376 2.9485,21.5517 4.6955,23.0017 1.6431,1.3634 12.1213,3.9984 16.3027,4.0996 1.2107,0.031 3.4395,-0.6362 4.9529,-1.4792 z m 11.9785,-8.7448 c 8.6333,-1.9289 12.2696,-7.6246 8.8946,-13.9308 -1.4911,-2.7859 -2.9337,-2.6993 -3.8643,0.234 -0.9479,2.986 -8.8131,11.61 -13.1566,14.4253 -3.011,1.9519 -3.0594,2.0722 -0.5504,1.3685 1.5134,-0.4247 5.4179,-1.3678 8.6767,-2.0957 z m -11.7429,-1.6157 c 0.4323,-0.3946 -1.4249,-1.7428 -4.1272,-2.9957 -4.1003,-1.9012 -4.9138,-2.0042 -4.9138,-0.6215 0,2.8697 3.4537,5.7793 5.9633,5.0239 1.2604,-0.379 2.6456,-1.0122 3.0777,-1.4067 z m -29.0006,-11.0425 c -1.2083,-10.6258 -1.1571,-11.4068 0.9277,-14.2018 1.2132,-1.6266 3.1439,-3.1389 4.2904,-3.3601 2.5635,-0.4949 3.6968,-2.1326 3.7189,-5.3757 0.032,-3.3618 -1.1316,-3.1181 -5.2149,1.1006 -4.6749,4.8304 -6.9902,10.8177 -7.0675,18.2777 -0.055,5.4269 2.9803,16.4472 4.1969,15.2305 0.2339,-0.2341 -0.1471,-5.4868 -0.8515,-11.6712 z m 17.6805,2.9271 c 0.2963,-5.7502 0.3087,-8.3692 0.07,-14.4956 -0.07,-1.7681 0.9102,-4.6159 2.1767,-6.3287 1.2663,-1.7128 2.0153,-3.1143 1.6642,-3.1143 -2.142,0 -6.904,3.5766 -8.0188,6.0226 -1.738,3.8148 -1.7335,20.634 0,22.3734 2.6137,2.6138 3.807,1.3178 4.1043,-4.4574 z m 44.7213,-0.863 c 3.1827,-7.377 3.2684,-10.0254 0.5794,-17.8417 -2.7021,-7.8534 -5.1656,-11.5568 -9.0107,-13.545 -4.549,-2.3524 -4.8206,-1.987 -1.4731,1.9823 6.1233,7.2622 7.406,15.5251 4.1994,27.0582 -1.2788,4.5998 -1.3456,6.2168 -0.3089,7.466 2.0185,2.4323 3.1844,1.4394 6.0139,-5.1198 z m -29.5326,3.7751 c -0.3654,-0.3657 -1.3149,-0.4048 -2.1092,-0.089 -0.8781,0.3514 -0.6177,0.6121 0.6647,0.6651 1.1603,0.047 1.8106,-0.2122 1.4445,-0.5782 z m -5.0725,-1.9272 c -0.6808,-0.8202 -1.9447,-3.4206 -2.8089,-5.7783 -1.5557,-4.2449 -1.5718,-4.2543 -1.6487,-0.9548 -0.081,3.4949 2.5194,8.2245 4.5225,8.2245 0.7982,0 0.7775,-0.4761 -0.065,-1.4914 z m 14.1504,-3.9645 c 2.4213,-4.5244 0.1182,-12.154 -3.6673,-12.154 -0.705,0 -0.639,0.511 0.1716,1.3206 1.8501,1.8505 1.6447,8.0676 -0.397,12.0158 -1.6712,3.2321 -1.6572,3.2894 0.5251,2.1217 1.2336,-0.6601 2.7494,-2.1471 3.3686,-3.3041 z m -7.2811,-0.5974 c 0.4415,-1.1506 -0.081,-1.6511 -1.7216,-1.6511 -1.2955,0 -3.2824,-0.8388 -4.4153,-1.8643 -1.9508,-1.7653 -2.0195,-1.7506 -1.2915,0.2744 1.7468,4.8637 6.0803,6.7538 7.4284,3.2404 z m 19.8887,-3.2886 c 0.516,-2.7511 0.089,-5.1685 -1.5123,-8.5302 -2.2069,-4.6379 -2.2228,-4.6473 -1.428,-0.8386 0.4423,2.1188 0.745,5.9572 0.6723,8.5301 -0.1588,5.6464 1.2671,6.1737 2.268,0.8387 z m -18.724,-5.9008 c -2.4062,-5.7633 -3.6054,-6.6322 -5.5473,-4.0182 -1.4934,2.0104 -1.439,2.2318 0.6269,2.5533 2.7949,0.4351 4.7048,3.7639 3.6979,6.4472 -0.6572,1.7524 -0.5215,1.8182 1.0741,0.5208 1.6642,-1.3534 1.6775,-1.8409 0.1487,-5.5031 z m 34.8294,-12.1325 c -1.2294,-2.4108 -3.2703,-4.7109 -4.5343,-5.1126 -1.2643,-0.4012 -5.0485,-2.9689 -8.4086,-5.7059 -6.3289,-5.1551 -14.7744,-9.4925 -20.9729,-10.7715 -4.5826,-0.9454 -4.5717,0.6029 0.033,2.739 1.9515,0.908 4.1121,2.8068 4.8008,4.2189 1.5084,3.0917 6.3843,5.8742 7.8044,4.4541 0.5477,-0.5478 2.5728,-0.6807 4.4999,-0.2963 4.5284,0.9056 10.3359,7.3439 12.8909,14.2911 1.0918,2.9687 2.761,7.1306 3.7093,9.2492 l 1.7245,3.8524 0.3515,-6.2684 c 0.2621,-4.6513 -0.2247,-7.3988 -1.8844,-10.651 z m -79.3701,10.6591 c 2.4848,-2.535 4.7207,-5.6304 4.9683,-6.8788 0.2464,-1.2486 0.7641,-3.7557 1.1481,-5.5717 0.4198,-1.9868 3.1867,-5.7272 6.9477,-9.3922 4.8128,-4.6894 7.8456,-6.612 13.1857,-8.3582 3.8142,-1.2476 6.9781,-2.7166 7.0304,-3.2653 0.1438,-1.5066 -4.7549,-3.7137 -8.2835,-3.7322 -2.4704,0 -5.854,2.5436 -16.1968,12.2368 -14.2626,13.3662 -15.9964,16.2559 -14.7477,24.5806 0.4115,2.7446 0.9016,4.9902 1.0887,4.9902 0.1873,0 2.3739,-2.074 4.8591,-4.6092 z m 57.7695,2.1328 c -3.2727,-10.5839 -8.2204,-14.8238 -16.4423,-14.0897 -2.0048,0.1778 -1.9719,0.2869 0.3705,1.2269 1.4147,0.567 3.0875,2.393 3.7177,4.0578 0.6304,1.6648 2.6923,3.7698 4.5822,4.6776 1.8899,0.9083 3.9252,2.7656 4.523,4.1274 0.5975,1.3621 1.7452,2.4764 2.5504,2.4764 1.0115,0 1.2275,-0.7655 0.6985,-2.4764 z m -22.701,-9.4732 c -1.8481,-0.6899 -6.3989,4.5288 -6.3989,7.3382 0,2.4611 0.3411,2.2672 3.7259,-2.1181 2.0493,-2.6545 3.2519,-5.0039 2.673,-5.2201 z m 6.3236,0.358 c -2.7811,-2.1031 -4.573,-2.081 -2.8167,0.035 0.7537,0.9082 2.1764,1.6352 3.1617,1.6161 1.5047,-0.03 1.4495,-0.2932 -0.345,-1.6509 z m -19.3259,-0.3958 c 0,-1.5658 8.2898,-4.4505 10.8597,-3.7785 1.6212,0.4239 2.986,-0.1872 4.4475,-1.9921 2.9069,-3.5896 10.7386,-3.6503 15.1544,-0.1181 3.4141,2.7316 8.1005,4.9945 8.8309,4.264 1.3229,-1.3225 -6.9249,-8.492 -11.052,-9.6077 -6.5307,-1.7648 -20.3701,-0.7668 -24.6827,1.7806 -4.0897,2.416 -7.6695,10.4324 -4.6584,10.4324 0.6051,0 1.1006,-0.4417 1.1006,-0.9814 z m -5.45,-7.8237 c 0.9701,0 2.9282,-1.2389 4.351,-2.7532 3.3797,-3.5978 8.5233,-4.9378 18.9841,-4.9452 9.3433,0 10.924,-1.3193 4.7129,-3.9145 -9.3722,-3.9161 -21.2941,-0.7474 -30.0274,7.9807 -4.9973,4.9946 -6.3477,8.2284 -2.2313,5.3454 1.3452,-0.9423 3.2401,-1.7132 4.2107,-1.7132 z" fill="#00B894" transform="translate(-19.022127,-100.7962) translate(-1901.7715,-2800.3799)"/>
</svg>