<?xml version="1.0" ?><svg height="152.93256mm" viewBox="0 0 165.42833 152.93256" width="165.42833mm" xmlns="http://www.w3.org/2000/svg">
    <path d="m 49836.928,13583.885 c -16.761,0.514 -33.145,17.431 -33.145,17.431 0,0 -34.797,-9.004 -52.195,-1.175 -17.398,7.829 -14.127,43.795 -14.127,43.795 0,0 -16.55,3.59 -26.557,13.244 -10.007,9.653 -9.287,31.787 -9.287,31.787 0,0 -27.012,9.183 -35.777,24.664 -8.764,15.482 17.922,34.789 17.922,34.789 0,0 -9.812,19.425 -6.803,31.551 3.008,12.126 16.614,25.84 17.922,45.677 1.308,19.837 22.435,12.657 52.39,22.487 l 2.784,-1.744 c 12.824,22.601 34.503,39.832 66.334,42.379 71.059,5.687 116.43,-75.139 121.92,-112.801 2.281,-15.653 2.721,-34.147 -2.491,-51.967 11.005,-8.407 20.105,-15.882 23.764,-20.262 13.278,-15.893 -10.268,-27.429 -10.268,-27.429 0,0 13.407,-36.026 -1.505,-40.558 -14.912,-4.533 -39.833,7.417 -39.833,7.417 0,0 2.681,-27.135 -13.867,-32.492 -16.548,-5.357 -25.115,-0.883 -25.115,-0.883 0,0 -10.859,-23.84 -28.715,-25.783 -1.116,-0.122 -2.234,-0.162 -3.351,-0.127 z m -69.022,340.258 c -62.81,2.682 -88.908,88.206 -95.705,112.939 -7.251,26.382 -5.906,64.513 -8.496,101.895 0,0 19.994,10.347 54.902,14.076 34.908,3.729 123.471,-2.517 123.782,-13.983 0.31,-11.466 3.625,-43.441 0.621,-79.332 -3.004,-35.89 10.255,-125.384 -62.047,-134.986 -4.519,-0.6 -8.87,-0.788 -13.057,-0.609 z" fill="#FFFFFF" paint-order="markers stroke fill" transform="translate(-386.69732,67.656922) matrix(0.26458333,0,0,0.26458333,-12750.518,-3659.6717)"/>
    <path d="m 49844.754,13576.125 c -11.371,-0.186 -24.914,3.965 -35.807,12.535 -8.29,6.517 -12.374,7.564 -15.875,4.065 -2.593,-2.592 -13.733,-4.713 -24.756,-4.713 -25.829,0 -36.742,9.921 -36.742,33.406 0,11.775 -1.778,16.699 -6.031,16.699 -10.719,0 -27.946,18.53 -30.971,33.313 -2.045,10 -5.739,15.079 -12.105,16.636 -26.462,6.479 -33.824,32.03 -15.502,53.803 6.363,7.544 8.839,13.589 6.262,15.182 -2.358,1.453 -4.284,9.069 -4.284,16.916 0,10.501 2.678,16.027 10.131,20.91 8.177,5.367 9.734,9.181 8.053,19.928 -2.8,17.91 5.639,27.964 25.805,30.75 10.969,1.514 16.935,4.498 22.492,11.74 10.662,17.745 27.334,29.387 54.012,38.918 45.507,16.259 96.873,0.83 126.093,-37.867 9.056,-11.997 19.041,-30.674 19.041,-30.674 19.129,6.217 41.252,-1.582 10.182,-19.518 0,0 0.396,-8.312 2.473,-25.865 0.995,-8.391 0.621,-21.546 -0.748,-33.098 0.376,-16.996 1.81,-23.39 5.091,-23.39 9.057,0 22.178,-16 22.178,-27.045 0,-6.478 -3.975,-12.947 -10.652,-17.322 -7.447,-4.879 -9.332,-8.3 -6.264,-11.37 7.45,-7.45 5.057,-30.048 -4.053,-38.294 -7.991,-7.231 -9.221,-7.266 -23.103,-0.647 -19.046,9.083 -18.557,9.264 -18.557,-6.973 0,-18.16 -12.03,-29.42 -28.803,-26.959 -10.183,1.494 -12.855,0.124 -14.787,-7.576 -2.204,-8.782 -11.402,-13.304 -22.773,-13.49 z m 16.258,33.611 c 0.821,5.748 3.326,7.516 14.615,7.516 13.316,0 14.611,1.068 14.611,12.016 0,18.656 10.597,30.223 28.334,21.764 26.402,-12.591 33.902,-13.506 25.426,9.937 -4.263,11.786 -4.181,16.387 0.438,25.021 6.83,12.761 3.814,17.059 -7.663,10.918 -6.818,-3.651 -9.522,-3.014 -13.925,3.274 -4.127,5.886 -7.775,6.945 -14.864,4.324 -5.168,-1.914 -9.394,-5.981 -9.394,-9.041 0,-10.024 -6.754,-18.557 -17.051,-14.643 -8.126,3.088 -9.852,2.219 -10.951,-5.523 -1.835,-12.911 -22.518,-3.736 -25.054,7.066 -2.931,12.488 -7.971,16.754 -17.205,14.338 -5.608,-1.465 -20.76,0.965 -21.928,17.07 -1.189,16.387 -8.982,17.473 -14.831,15.063 -15.041,-4.956 -20.37,1.604 -20.37,15.487 0,9.892 -0.727,8.777 -6.894,10.386 -9.187,2.405 -10.173,12.862 -3.152,19.879 7.454,7.453 0.679,20.901 -9.245,22.319 -5.878,0.836 -10.62,2.302 -13.146,11.164 -2.951,8.483 -6.678,13.458 -11.862,13.884 -15.441,1.522 -16.955,-3.558 -16.955,-17.362 0,-7.371 -2.448,-18.49 -10.438,-22.569 -12.804,-6.536 -18.413,-16.29 -9.466,-25.233 8.304,-8.305 7.905,-12.432 -2.087,-21.473 -11.206,-10.14 -13.014,-24.616 -1.267,-31.117 5.166,-2.86 16.546,-2.697 19.416,-2.114 3.315,0.673 5.253,-3.961 5.353,-12.693 0.166,-17.147 6.136,-26.741 21.536,-30.822 9.549,-2.533 12.573,-6.374 15.416,-19.58 1.947,-9.037 2.173,-18.481 3.92,-21.926 4.619,-9.1 34.012,-13.162 42.267,-5.846 8.903,7.894 11.568,8.013 25.485,-4.593 14.034,-12.711 37.749,-19.163 40.931,3.109 z m 11.271,89.879 c 3.052,2.961 15.357,-4.029 20.252,10.889 2.036,6.205 8.409,9.465 17.111,10.31 4.738,0.46 8.209,1.446 10.719,3.147 3.429,7.746 5.789,16.061 6.524,24.904 2.251,27.141 -1.15,55.134 -2.969,55.002 -15.158,-1.101 -20.23,9.559 -9.512,17.158 -0.256,4.146 -14.27,26.722 -19.847,26.692 -7.221,-0.05 -30.277,-18.276 -34.303,-27.117 -5.518,-12.106 -9.799,-13.257 -13.494,-3.631 -3.692,9.623 10.259,36.028 22.099,41.824 l 9.936,4.863 -12.861,6.653 c -14.493,7.497 -50.436,8.325 -69.645,1.611 -17.252,-6.03 -29.104,-14.747 -37.234,-27.484 l 0.144,-0.165 c -1.021,-1.387 -1.952,-2.772 -2.775,-4.14 -1.027,-1.921 -1.957,-3.96 -2.844,-6.055 -0.668,-1.903 -1.135,-3.747 -1.135,-5.426 0,-8.07 2.141,-10.992 8.047,-10.992 16.545,0 31.107,-30.391 21.688,-45.256 -6.022,-9.502 3.863,-24.531 14.767,-22.445 10.688,2.041 33.526,-18.639 29.786,-29.277 -2.648,-7.531 6.549,-9.744 10.847,-7.407 5.105,2.776 16.081,0.958 15.02,-7.464 -1.193,-9.476 10.832,-14.777 19.679,-6.194 z m 32.867,64.836 c -7.203,0 -12.243,14.832 -8.595,20.735 3.903,6.313 13.383,4.843 16.205,-2.514 4.264,-11.114 -1.184,-18.221 -7.61,-18.221 z m 143.754,3.945 c -23.107,0 -28.724,7.051 -7.304,9.165 16.704,1.649 28.183,-0.579 28.183,-5.473 0,-2.029 -9.395,-3.692 -20.879,-3.692 z m 73.071,0 c -17.534,0 -22.638,3.113 -16.006,9.745 1.532,1.531 9.987,2.783 18.789,2.783 11.447,0 16.006,-1.786 16.006,-6.264 0,-4.638 -4.869,-6.264 -18.789,-6.264 z m -135.344,0.286 c -9.491,0.481 -25.408,4.92 -25.408,8.256 0,5.475 28.07,5.06 31.486,-0.467 1.513,-2.448 1.712,-5.492 0.441,-6.764 -0.907,-0.907 -3.356,-1.186 -6.519,-1.025 z m 210.5,3.892 c -20.539,0 -25.71,6.742 -7.307,9.537 5.904,0.897 12.483,3.413 19.492,0.453 12.526,-5.289 6.452,-9.99 -12.185,-9.99 z m 65.068,0 c -16.388,0 -22.717,5.272 -11.832,9.854 8.806,3.705 25.355,0.884 27.166,-4.631 1.183,-3.605 -3.564,-5.223 -15.334,-5.223 z m -83.447,66.783 c -25.917,0.03 -56.977,2.395 -70.178,6.315 -16.939,5.029 -26.345,11.808 -46.941,33.826 -14.167,15.144 -36.365,43.638 -49.326,63.32 -24.715,37.526 -47.861,63.593 -56.444,63.563 -2.794,0 -27.625,-7.116 -55.183,-15.797 -47.371,-14.919 -50.486,-16.584 -57.082,-30.523 -15.705,-31.558 -39.367,-45.415 -72.629,-47.084 -46.638,0.957 -82.6,28.355 -97.569,74.332 -16.688,51.254 -25.506,121.441 -18.525,147.48 5.166,19.281 14.053,7.255 14.113,-19.131 0.07,-24.595 18.884,-109.963 28.231,-128.107 18.68,-36.254 40.67,-49.715 76.943,-47.094 18.679,1.353 26.749,4.075 33.777,11.397 l 9.233,9.619 -16.701,-2.676 c -32.202,-5.158 -33.405,-5.029 -33.405,3.598 0,8.45 6.497,12.751 40.709,26.949 l 19.832,8.234 v 66.697 c 0,36.687 1.144,69.671 2.538,73.303 3.785,9.871 16.987,8.019 19.884,-2.789 1.384,-5.167 2.545,-35.231 2.575,-66.807 0.03,-31.574 1.584,-57.41 3.451,-57.41 1.863,0 20.067,5.638 40.447,12.528 21.604,7.299 45.759,12.527 57.922,12.527 19.438,0 22.17,-1.364 40.101,-19.965 10.582,-10.98 28.294,-34.936 39.358,-53.236 11.061,-18.301 26.477,-41.098 34.256,-50.662 6.776,-8.276 31.265,-5.292 39.341,-1.135 13.002,6.693 17.909,9.666 37.413,9.51 31.625,-0.255 30.982,-10.441 32.617,-38.11 1.28,-21.697 0.885,-22.956 24.006,-24.064 23.74,-2.967 30.72,-11.301 13.363,-15.953 -6.878,-1.843 -20.577,-2.67 -36.127,-2.655 z" fill="#00B894" transform="translate(-386.69732,67.656922) matrix(0.26458333,0,0,0.26458333,-12750.518,-3659.6717)"/>
</svg>