<?xml version="1.0" ?><svg height="134.26544mm" viewBox="0 0 165.4283 134.26544" width="165.4283mm" xmlns="http://www.w3.org/2000/svg">
    <path d="m 48446.028,13669.002 c -55.64,1.416 -90.501,66.417 -102.918,96.516 -16.056,48.662 4.556,127.435 75.615,133.121 71.059,5.687 116.43,-75.139 121.92,-112.801 5.49,-37.661 0.827,-91.823 -69.506,-113.264 -8.792,-2.68 -17.163,-3.774 -25.111,-3.572 z m -75.785,265.01 c -62.81,2.682 -88.908,88.208 -95.705,112.941 -7.251,26.382 -5.905,64.511 -8.495,101.893 0,0 19.993,10.347 54.901,14.076 34.908,3.729 123.47,-2.516 123.781,-13.982 0.31,-11.466 3.625,-43.441 0.621,-79.332 -3.004,-35.89 10.255,-125.385 -62.047,-134.987 -4.519,-0.6 -8.869,-0.788 -13.056,-0.609 z" fill="#FFFFFF" paint-order="markers stroke fill" transform="translate(-135.00206,104.88701) matrix(0.26458333,0,0,0.26458333,-12634.121,-3718.1801)"/>
    <path d="m 48451.008,13656.541 c -68.415,0 -135.075,96.062 -119.283,171.898 8.104,38.913 25.71,58.176 66.496,72.747 45.507,16.259 96.873,0.829 126.093,-37.868 9.056,-11.997 19.041,-30.673 19.041,-30.673 19.129,6.217 41.25,-1.582 10.18,-19.518 0,0 0.398,-8.312 2.475,-25.865 1.337,-11.271 0.215,-31.146 -2.49,-44.17 -8.99,-43.313 -60.201,-86.551 -102.512,-86.551 z m -2.192,21.102 c 16.802,-0.833 33.723,4.358 48.176,13.75 -1.132,0.504 -3.053,0.99 -5.732,1.625 -9.012,2.128 -9.334,2.789 -2.625,5.367 4.205,1.619 11.02,2.939 15.144,2.939 2.691,0 6.048,1.21 8.858,3 2.359,2.449 4.563,5.033 6.627,7.75 0.152,1.431 -1.55,1.865 -5.409,1.94 -5.271,0.109 -3.592,2.002 5.145,5.804 3.144,1.37 6.154,3.403 8.719,5.7 4.288,8.674 7.115,18.194 7.955,28.322 2.251,27.141 -1.15,55.132 -2.969,55 -15.158,-1.101 -20.23,9.559 -9.512,17.158 -0.256,4.146 -14.27,26.721 -19.847,26.691 -7.221,-0.05 -30.277,-18.276 -34.303,-27.117 -5.518,-12.106 -9.799,-13.257 -13.494,-3.631 -3.692,9.623 10.259,36.029 22.099,41.825 l 9.936,4.865 -12.861,6.65 c -14.493,7.497 -50.438,8.326 -69.647,1.612 -25.256,-8.828 -39.141,-23.191 -46.33,-47.924 -5.804,-19.961 -6.403,-37.047 -1.633,-55.748 0.06,0.02 0.09,0.05 0.158,0.07 5.09,-19.646 16.06,-41.161 29.026,-58.348 10.419,-13.155 22.331,-23.609 34.773,-29.957 2.341,-1.194 4.744,-2.121 7.151,-3.017 2.936,-0.159 5.125,1.305 8.597,4.445 8.378,7.582 15.082,3.839 8.127,-4.541 -1.3,-1.566 -1.336,-2.804 -0.424,-3.727 1.434,-0.159 2.858,-0.432 4.295,-0.503 z m -5.937,20.025 c -3.235,-0.05 -5.734,0.859 -5.734,3.072 0,2.29 3.286,5.021 7.304,6.074 12.674,3.313 14.309,3.009 12.549,-2.343 -1.296,-3.934 -8.728,-6.713 -14.119,-6.803 z m 2.123,16.197 c -4.594,0 -7.191,1.879 -5.772,4.174 1.418,2.299 6.338,4.18 10.932,4.18 4.593,0 7.19,-1.881 5.772,-4.18 -1.423,-2.295 -6.338,-4.174 -10.932,-4.174 z m -21.272,8.807 c -0.587,-0.03 -1.069,0.108 -1.402,0.441 -1.145,1.147 -0.899,5.171 0.549,8.944 2.724,7.096 14.268,9.684 14.268,3.197 0,-4.244 -9.303,-12.395 -13.415,-12.582 z m -19.656,8.678 c -0.469,0 -0.909,0.01 -1.314,0.06 -0.927,0.122 -1.671,0.413 -2.164,0.906 -1.707,1.708 0.539,5.772 4.992,9.028 9.467,6.922 19.029,7.756 19.029,1.658 0,-4.673 -13.51,-11.522 -20.543,-11.656 z m -10.771,20.08 c -5.47,0 -11.109,1.878 -12.528,4.174 -1.541,2.49 3.519,4.175 12.528,4.175 9.007,0 14.063,-1.685 12.525,-4.175 -1.421,-2.296 -7.057,-4.174 -12.525,-4.174 z m 120.633,17.996 c -7.203,0 -12.244,14.829 -8.596,20.732 3.903,6.313 13.383,4.844 16.205,-2.513 4.264,-11.114 -1.183,-18.219 -7.609,-18.219 z m 143.753,3.943 c -23.107,0 -28.724,7.05 -7.304,9.164 16.704,1.649 28.183,-0.578 28.183,-5.472 0,-2.029 -9.395,-3.692 -20.879,-3.692 z m 73.071,0 c -17.534,0 -22.638,3.112 -16.006,9.744 1.532,1.531 9.987,2.783 18.789,2.783 11.447,0 16.006,-1.783 16.006,-6.261 0,-4.638 -4.869,-6.266 -18.789,-6.266 z m -135.344,0.285 c -9.49,0.482 -25.408,4.921 -25.408,8.256 0,5.477 28.07,5.06 31.486,-0.467 1.513,-2.448 1.713,-5.491 0.442,-6.763 -0.908,-0.907 -3.356,-1.186 -6.52,-1.026 z m 210.498,3.895 c -20.539,0 -25.708,6.74 -7.305,9.535 5.904,0.897 12.484,3.413 19.493,0.453 12.526,-5.289 6.449,-9.988 -12.188,-9.988 z m 65.07,0 c -16.388,0 -22.717,5.269 -11.832,9.851 8.806,3.705 25.355,0.885 27.166,-4.63 1.183,-3.605 -3.564,-5.221 -15.334,-5.221 z m -388.716,8.873 c -2.734,4.883 -3.232,17.439 8.526,21.524 9.645,3.351 17.286,-1.547 10.906,-5.009 -4.235,-2.299 -11.492,-4.74 -9.79,-14.124 1.304,-7.192 -2.185,-14.123 -9.642,-2.391 z m 305.269,57.908 c -25.916,0.03 -56.976,2.395 -70.178,6.315 -16.939,5.029 -26.345,11.81 -46.941,33.828 -14.167,15.144 -36.365,43.638 -49.326,63.32 -24.715,37.526 -47.861,63.591 -56.444,63.561 -2.794,0 -27.625,-7.116 -55.183,-15.797 -47.371,-14.919 -50.486,-16.585 -57.082,-30.524 -15.705,-31.558 -39.367,-45.415 -72.629,-47.084 -46.638,0.957 -82.599,28.355 -97.568,74.332 -16.688,51.254 -25.507,121.442 -18.526,147.481 5.166,19.281 14.053,7.257 14.113,-19.129 0.07,-24.595 18.884,-109.966 28.231,-128.11 18.68,-36.254 40.67,-49.712 76.943,-47.091 18.679,1.353 26.75,4.072 33.778,11.394 l 9.23,9.619 -16.699,-2.675 c -32.202,-5.158 -33.404,-5.03 -33.404,3.597 0,8.45 6.497,12.751 40.709,26.949 l 19.832,8.235 v 66.697 c 0,36.687 1.143,69.673 2.537,73.305 3.785,9.871 16.987,8.017 19.884,-2.791 1.384,-5.167 2.545,-35.231 2.575,-66.807 0.03,-31.574 1.584,-57.408 3.451,-57.408 1.863,0 20.067,5.635 40.447,12.525 21.604,7.299 45.757,12.528 57.92,12.528 19.438,0 22.173,-1.364 40.104,-19.965 10.582,-10.98 28.293,-34.937 39.357,-53.237 11.061,-18.301 26.477,-41.098 34.256,-50.662 6.776,-8.276 31.266,-5.291 39.342,-1.134 13.002,6.693 17.908,9.665 37.412,9.509 31.625,-0.255 30.982,-10.438 32.617,-38.107 1.28,-21.697 0.885,-22.959 24.006,-24.066 23.74,-2.967 30.718,-11.302 13.361,-15.954 -6.878,-1.842 -20.575,-2.669 -36.125,-2.654 z" fill="#00B894" transform="translate(-135.00206,104.88701) matrix(0.26458333,0,0,0.26458333,-12634.121,-3718.1801)"/>
</svg>