<?xml version="1.0" ?><svg height="137.41898mm" viewBox="0 0 165.42833 137.41898" width="165.42833mm" xmlns="http://www.w3.org/2000/svg">
    <path d="m 45650.385,13668.121 c -55.64,1.416 -90.501,66.417 -102.918,96.516 -16.056,48.662 4.556,127.435 75.615,133.121 71.059,5.687 116.43,-75.139 121.92,-112.801 5.49,-37.661 0.827,-91.823 -69.506,-113.264 -8.792,-2.68 -17.163,-3.774 -25.111,-3.572 z m -75.785,265.01 c -62.81,2.682 -88.908,88.208 -95.705,112.941 -7.251,26.382 -5.905,64.511 -8.495,101.893 0,0 19.993,10.347 54.901,14.076 34.908,3.729 123.47,-2.516 123.781,-13.982 0.31,-11.466 3.625,-43.441 0.621,-79.332 -3.004,-35.89 10.255,-125.385 -62.047,-134.987 -4.519,-0.6 -8.869,-0.788 -13.056,-0.609 z" fill="#FFFFFF" paint-order="markers stroke fill" transform="translate(238.76539,210.91714) matrix(0.26458333,0,0,0.26458333,-12267.126,-3820.8236)"/>
    <path d="m 45661.504,13643.748 c -2.483,0.05 -5.163,0.319 -8.035,0.871 -31.703,6.091 -66.254,19.361 -88.012,60.688 0.01,0.07 0.04,0.131 0.06,0.199 -26.586,34.383 -42.002,80.83 -33.52,121.562 8.104,38.913 25.71,58.175 66.496,72.746 45.507,16.259 96.874,0.83 126.094,-37.867 9.056,-11.997 19.041,-30.674 19.041,-30.674 19.129,6.217 41.252,-1.579 10.182,-19.515 0,0 0.395,-8.313 2.472,-25.865 1.337,-11.271 0.215,-31.146 -2.49,-44.17 -0.802,-3.863 -2.047,-7.714 -3.484,-11.545 1.784,0.07 3.57,0.123 5.361,0.162 9.734,-0.206 11.748,-20.793 -0.734,-29.141 -12.482,-8.348 -30.461,-13.295 -30.461,-13.295 0,0 12.94,-17.416 -2.863,-26.176 -15.803,-8.76 -42.487,3.194 -38.479,-2.474 3.507,-4.961 -4.239,-15.825 -21.623,-15.506 z m 6.277,64.719 c 19.964,11.818 40.749,17.567 62.119,20.133 1.063,2.518 1.996,5.092 2.799,7.734 -1.123,-0.422 -2.334,-0.759 -3.668,-0.973 -2.651,-0.545 -5.206,-0.842 -7.638,-0.892 -10.539,-0.216 -18.757,4.227 -22.362,13.427 -2.138,5.425 -4.225,10.718 -5.57,19.036 -10.117,-1.936 -69.391,-9.458 -84.424,-11.014 -11.238,1.917 -4.313,16.681 8.363,17.016 11.559,0.306 56.685,8.716 74.702,9.037 -0.13,3.6 -0.171,7.567 -0.09,12.066 0.254,14.056 21.477,18.436 36.482,17.082 -5.057,15.214 -12.853,29.732 -24.881,40.201 -7.221,-0.05 -30.276,-18.276 -34.302,-27.117 -5.518,-12.106 -9.8,-13.259 -13.495,-3.633 -3.692,9.623 10.26,36.03 22.1,41.826 l 9.936,4.864 -12.862,6.65 c -14.493,7.497 -50.435,8.327 -69.644,1.613 -25.256,-8.828 -39.141,-23.192 -46.33,-47.925 -8.315,-28.597 -6.215,-51.216 7.55,-81.282 4.415,-9.645 9.668,-18.569 15.444,-26.687 24.667,8.392 69.602,4.271 85.771,-11.162 z m 54.366,41.504 c 0.863,0 1.755,0.09 2.714,0.123 10.338,2.566 10.75,14.876 9.2,23.527 -1.05,-4.95 -4.715,-7.842 -8.801,-7.842 -7.203,0 -12.244,14.832 -8.596,20.735 3.075,4.973 9.569,5.054 13.584,1.293 -2.505,5.706 -6.692,10.232 -14.488,9.031 -13.171,-2.029 -9.455,-17.09 -6.285,-26.983 5.727,-17.873 8.929,-19.858 12.672,-19.884 z m 135.81,22.029 c -23.107,0 -28.725,7.05 -7.305,9.164 16.704,1.649 28.184,-0.581 28.184,-5.475 0,-2.029 -9.395,-3.689 -20.879,-3.689 z m 73.07,0 c -17.534,0 -22.637,3.11 -16.005,9.742 1.532,1.531 9.987,2.785 18.789,2.785 11.447,0 16.005,-1.785 16.005,-6.263 0,-4.638 -4.869,-6.264 -18.789,-6.264 z m -135.343,0.285 c -9.491,0.481 -25.409,4.921 -25.409,8.256 0,5.477 28.071,5.06 31.487,-0.467 1.513,-2.448 1.712,-5.492 0.441,-6.764 -0.907,-0.906 -3.356,-1.185 -6.519,-1.025 z m 210.5,3.893 c -20.539,0 -25.71,6.742 -7.307,9.537 5.904,0.897 12.483,3.413 19.492,0.453 12.526,-5.289 6.452,-9.99 -12.185,-9.99 z m 65.068,0 c -16.388,0 -22.717,5.269 -11.832,9.851 8.806,3.705 25.355,0.884 27.166,-4.631 1.183,-3.605 -3.564,-5.22 -15.334,-5.22 z m -83.447,66.781 c -25.917,0.03 -56.977,2.396 -70.178,6.316 -16.939,5.029 -26.345,11.809 -46.941,33.826 -14.167,15.144 -36.366,43.639 -49.327,63.321 -24.715,37.526 -47.86,63.59 -56.443,63.56 -2.794,0 -27.626,-7.114 -55.183,-15.795 -47.371,-14.919 -50.487,-16.584 -57.083,-30.523 -15.705,-31.558 -39.366,-45.417 -72.628,-47.086 -46.638,0.957 -82.6,28.357 -97.569,74.334 -16.688,51.254 -25.506,121.442 -18.525,147.481 5.166,19.28 14.053,7.255 14.113,-19.131 0.07,-24.595 18.884,-109.966 28.231,-128.11 18.68,-36.254 40.67,-49.713 76.943,-47.092 18.679,1.353 26.749,4.075 33.777,11.397 l 9.233,9.619 -16.701,-2.678 c -32.202,-5.158 -33.405,-5.027 -33.405,3.6 0,8.45 6.497,12.751 40.709,26.949 l 19.832,8.235 v 66.697 c 0,36.687 1.143,69.671 2.537,73.303 3.785,9.871 16.988,8.018 19.885,-2.789 1.384,-5.167 2.544,-35.231 2.574,-66.807 0.03,-31.574 1.585,-57.41 3.452,-57.41 1.863,0 20.067,5.637 40.447,12.527 21.604,7.299 45.759,12.525 57.922,12.525 19.438,0 22.17,-1.361 40.101,-19.962 10.582,-10.98 28.294,-34.937 39.358,-53.237 11.061,-18.301 26.477,-41.1 34.255,-50.664 6.776,-8.276 31.266,-5.29 39.342,-1.133 13.002,6.693 17.908,9.664 37.412,9.508 31.625,-0.255 30.983,-10.438 32.618,-38.107 1.28,-21.697 0.884,-22.959 24.005,-24.067 23.74,-2.967 30.721,-11.299 13.364,-15.951 -6.879,-1.843 -20.577,-2.672 -36.127,-2.656 z" fill="#00B894" transform="translate(238.76539,210.91714) matrix(0.26458333,0,0,0.26458333,-12267.126,-3820.8236)"/>
</svg>