<?xml version="1.0" ?><svg height="140.4243mm" viewBox="0 0 171.24864 140.4243" width="171.24864mm" xmlns="http://www.w3.org/2000/svg">
    <path d="m -4904.9703,9566.5897 -62.9106,-13.088 c 0,0 -22.6563,-3.604 -26.4499,-23.33 -3.7936,-19.726 -4.2151,-33.098 -4.2151,-33.098 0,0 -35.1963,-6.638 -40.8867,-21.812 -5.6903,-15.174 2.1076,-29.115 2.1076,-29.115 0,0 -32.2456,-3.224 -30.8757,-25.131 1.3699,-21.908 28.6628,-42.677 28.6628,-42.677 0,0 -36.5662,-31.011 -25.7122,-48.556 10.8539,-17.545 30.1381,-30.063 30.1381,-30.063 0,0 -9.2733,-17.64 10.9593,-34.046 20.2325,-16.407 55.218,-32.529 55.218,-32.529 0,0 9.484,-18.209 17.7035,-22.097 8.2195,-3.889 26.3445,0 26.3445,0 0,0 17.8089,-12.708 31.6134,-12.424 13.8045,0.285 25.8176,10.622 25.8176,10.622 0,0 10.0109,-30.253 34.1425,-27.123 24.1316,3.129 41.9404,25.511 41.9404,25.511 0,0 20.4433,1.802 26.3445,5.974 5.9012,4.173 9.484,21.244 9.484,21.244 0,0 46.5771,-0.1 54.4804,5.88 7.9034,5.974 13.5938,37.365 13.5938,37.365 0,0 39.306,-40.4 52.5836,-50.263 13.2776,-9.863 12.6454,-17.26 21.3918,3.793 8.7463,21.054 23.2885,121.865 23.2885,121.865 0,0 10.8539,36.417 -5.7958,69.895 -16.6497,33.477 -47.7362,46.659 -47.7362,46.659 0,0 -53.9535,45.047 -58.6956,59.368 -4.742,14.32 -23.4993,43.34 -61.33,51.496 -37.8306,8.156 -86.0938,-6.828 -104.9564,-13.751 -18.8627,-6.923 -36.2501,-0.569 -36.2501,-0.569 z" fill="#FFFFFF" transform="translate(-20.209028,-77.954519) matrix(0.33853699,0,0,0.33853699,1739.2243,-3028.5174)"/>
    <path d="m -4573.1253,9394.9868 c -3.2737,21.7043 -12.2367,38.5376 -31.1858,58.5724 -11.3252,11.9763 -17.8935,16.5031 -23.9432,16.5031 -6.8008,0 -10.8603,3.7317 -22.0251,20.2465 -9.3815,13.8758 -17.2448,21.8205 -24.9918,25.2546 -9.184,4.0688 -13.4457,9.2838 -22.7227,27.8051 -7.3445,21.1559 -24.1605,25.311 -38.8258,35.1941 -21.3061,8.9077 -25.6539,12.4018 -52.8295,12.4018 -37.5866,0 -59.6535,-4.6501 -83.992,-17.6959 -11.5601,-6.1962 -15.6127,-7.0379 -20.7231,-4.3037 -9.5582,5.1151 -20.5231,4.1061 -29.1583,-2.6854 -6.8287,-5.3708 -8.419,-5.5638 -13.5922,-1.6484 -8.3422,6.3171 -24.2618,5.6498 -38.491,-1.609 -14.2641,-7.2773 -25.0291,-25.3266 -27.6471,-46.3519 -1.6205,-13.0319 -2.4157,-14.0061 -13.5921,-16.6403 -8.6724,-2.0461 -14.3688,-6.2474 -21.1416,-15.5964 -8.9189,-12.3134 -9.6745,-17.754 -4.2548,-30.6463 1.9204,-4.5711 0.5626,-5.4243 -8.6259,-5.4243 -8.3725,0 -12.7715,-2.2158 -18.9328,-9.5397 -15.4011,-18.3027 -7.7494,-44.3152 16.4868,-56.0543 10.4953,-5.0826 9.8582,-6.6892 -8.2376,-20.7743 -11.0741,-8.6212 -13.1737,-11.9995 -13.1737,-21.1973 0,-19.4978 12.5553,-36.2753 31.7229,-42.3902 3.3039,-1.0532 4.664,-3.5573 3.534,-6.5031 -1.0114,-2.6366 -0.93,-9.6373 0.186,-15.5591 2.346,-12.5134 19.1467,-27.1611 31.1509,-27.1611 4.5083,0 8.3329,-2.1902 9.335,-5.343 1.7438,-5.4941 13.9456,-12.4831 21.7926,-12.4831 2.432,0 6.5752,-4.1618 9.2072,-9.2467 7.9307,-15.3383 28.3073,-22.8156 42.0809,-15.4452 9.9279,5.315 6.8007,9.1908 -7.4146,9.1908 -10.0372,0 -15.1174,1.8182 -20.1999,7.2309 l -6.7915,7.2286 7.6517,3.4875 c 7.4774,3.4062 19.9977,22.3553 14.771,22.3553 -1.4531,0 -5.8358,-3.4039 -9.7442,-7.5611 -6.2846,-6.6914 -8.9328,-7.3587 -23.0156,-5.8009 -10.3115,1.1392 -18.6398,4.2222 -23.6619,8.763 -4.2618,3.8503 -10.7742,7.9145 -14.4687,9.0282 -3.6968,1.1137 -10.3232,4.8593 -14.7268,8.3236 -6.6078,5.1988 -8.0051,8.877 -8.0051,21.0788 0,13.0714 -1.4346,16.2474 -12.3995,27.4331 -14.8384,15.136 -16.1567,26.4055 -4.6547,39.7791 4.2595,4.9547 7.747,9.9535 7.7494,11.1114 0,1.1579 2.4134,4.5129 5.3592,7.4564 5.0709,5.0732 5.043,5.5336 -0.5092,8.7468 -28.5771,16.5403 -38.3583,45.1667 -8.0861,54.3049 13.8189,4.1715 12.4936,6.5404 11.1614,13.5039 -1.13,5.9103 -4.1427,16.3181 -0.6108,18.2967 2.7994,1.5671 5.0895,4.7338 5.0895,7.0402 0,4.5803 15.436,10.9998 26.452,10.9998 4.3083,0 7.5355,-2.3344 8.5399,-6.1753 0.8881,-3.3946 5.9242,-8.6259 11.1927,-11.6252 5.2686,-2.997 9.5862,-6.931 9.5978,-8.7399 0.046,-7.3424 12.8714,-16.8588 22.6156,-16.7774 17.1983,-1.0271 13.8158,8.1452 1.3569,10.8064 -9.6287,2.0567 -12.0753,8.231 -10.8686,9.44 4.0851,4.0828 -3.9526,13.7805 -11.4183,13.7805 -9.0792,0 -20.2673,13.3434 -20.2673,24.1711 0,11.688 14.371,33.9828 25.6963,39.8651 5.4755,2.8435 16.2311,5.4057 23.9037,5.694 7.6727,0.2883 18.4329,2.4413 23.9084,4.7826 5.4755,2.3414 10.6045,3.6108 11.395,2.8203 0.7929,-0.7928 -1.1323,-9.1002 -4.2757,-18.4608 -10.2604,-30.565 -10.7859,-38.8119 -2.9714,-46.6263 l 6.9379,-6.9379 -9.7722,-19.814 c -7.8176,-13.6396 -13.0816,-19.2633 -12.8202,-37.5122 0,-4.8477 2.79,-11.8089 6.2009,-15.4685 5.1801,-5.5638 6.1985,-10.9393 6.1985,-32.7551 0,-37.2285 2.1484,-38.1911 36.3566,-16.2985 14.957,9.5745 42.1019,27.2541 60.3185,39.2885 29.0863,19.2164 33.9363,21.4484 39.7838,18.3213 8.5794,-4.592 17.0379,2.4017 25.3406,20.9555 5.0058,11.1905 7.2704,13.1737 15.0406,13.1737 13.362,0 33.2667,19.0049 37.8494,36.1404 3.3015,12.3436 4.4268,13.462 13.5689,13.462 8.877,0 11.5089,-2.3157 24.02,-21.1346 17.9981,-27.0751 21.4182,-36.3938 19.0862,-52.0158 -2.0158,-13.4945 0.844,-18.2213 12.2902,-20.3231 5.208,-0.9556 6.4938,-4.3618 8.0376,-21.2602 2.1251,-23.3015 -1.5717,-32.1646 -14.8035,-35.4847 -11.2206,-2.8157 -13.0272,-6.1405 -11.1114,-20.4255 1.495,-11.1439 0.9394,-12.0763 -10.6905,-18.0098 l -12.2669,-6.259 -8.0935,8.0958 c -7.5168,7.5169 -8.9421,7.84 -20.0069,4.5245 -15.5731,-4.6663 -34.9175,0.093 -34.9175,8.5818 0,3.3015 -4.7384,8.7305 -10.9951,12.597 -7.1471,4.4176 -11.6228,9.9326 -12.7877,15.7545 -2.0321,10.1604 -5.5219,11.4345 -9.9,3.6108 -3.9433,-7.0472 -0.093,-13.8642 18.0353,-32.0019 19.3095,-19.3094 26.1451,-22.5505 48.1958,-22.8504 17.7935,-0.2419 18.6468,-0.6162 19.5628,-8.5539 0.8185,-7.0774 -0.3278,-8.4492 -7.7493,-9.3001 -8.3353,-0.9579 -8.7515,-1.7926 -9.6605,-19.4931 -0.5209,-10.1721 -2.3228,-20.1488 -4.0038,-22.1739 -3.7386,-4.5036 -44.2594,-8.9468 -49.886,-5.4685 -2.232,1.3787 -7.8679,2.1065 -12.525,1.6182 -14.5268,-1.5229 -21.1741,2.5901 -27.3076,16.8984 -4.0316,9.4071 -7.7214,13.6689 -11.8367,13.6689 -8.9979,0 -10.6115,8.8514 -4.0386,22.139 4.9267,9.9558 5.1918,12.4506 1.6368,15.4011 -5.8056,4.8198 -5.3336,9.8535 2.1042,22.4622 8.2329,13.9502 2.9016,17.3633 -7.6122,4.8686 -9.2118,-10.9463 -10.2069,-20.1302 -3.0388,-28.0493 4.6128,-5.0988 4.4966,-6.152 -1.5508,-13.8386 -3.5992,-4.5757 -6.5427,-10.9207 -6.5427,-14.1014 0,-7.3355 -11.309,-7.7517 -21.2602,-0.7812 -5.1848,3.6317 -6.6519,6.9333 -5.3615,12.0763 2.3669,9.4326 -6.166,12.8412 -11.3532,4.5361 -2.5947,-4.1548 -7.3006,-6.1451 -14.6965,-6.2102 -10.2395,-0.093 -10.0373,-3.5766 -4.3735,-7.8593 3.3085,-2.5041 8.2005,-1.3432 11.4648,-1.3432 3.2644,0 8.8026,-3.6433 12.3065,-8.0958 5.6824,-7.2238 8.0004,-7.94 21.5159,-6.6426 13.3503,1.2834 16.1404,0.4604 23.527,-6.9379 4.6106,-4.6152 10.8859,-12.0902 13.9503,-16.6078 5.0128,-7.3959 7.4773,-8.2166 24.6454,-8.2166 14.8361,0 18.2492,-0.8278 15.3569,-3.7201 -2.0484,-2.046 -3.7224,-6.1823 -3.7224,-9.1909 0,-7.0681 -9.1955,-11.8902 -22.6831,-11.8902 -8.0191,0 -11.0904,-1.5206 -12.2855,-6.0847 -0.8742,-3.3457 -7.9423,-9.1699 -15.7033,-12.9411 -13.8503,-6.7287 -14.3455,-6.7519 -26.4264,-1.3044 -6.7705,3.0528 -15.3011,8.991 -18.9561,13.1946 -4.4431,5.1081 -8.3817,6.9403 -11.8716,5.5243 -18.7259,-7.6052 -23.0574,-8.3259 -30.2674,-5.043 -7.9981,3.6457 -10.6473,-4.5147 -4.4999,-10.6621 5.208,-5.2081 22.1583,-7.7011 30.1449,-2.107 6.0753,4.2548 8.4873,7.8073 10.1264,2.6388 3.6155,-11.3857 20.8387,-17.9701 34.761,-19.4465 10.8859,-1.1532 15.8428,0.186 26.3288,7.0797 7.103,4.6757 14.4013,11.7624 16.2171,15.7452 1.8159,3.9851 4.3734,7.0704 5.6824,6.8589 14.2525,-2.3111 33.7828,11.1648 31.0904,21.4484 -1.2229,4.6757 1.3718,5.1337 23.7108,4.1898 34.6826,-1.4648 41.3415,3.8153 46.2938,36.71 1.7624,11.6996 13.2295,30.8463 18.519,30.9207 3.0969,0.046 8.3282,1.5252 11.6252,3.2899 8.4538,4.5245 7.7563,0.093 -3.5016,-22.1994 -9.2164,-18.2609 -9.6721,-18.6538 -15.4987,-13.383 -3.3015,2.99 -6.0032,4.1339 -6.0032,2.5436 0,-4.6849 9.2141,-17.1797 24.478,-33.1899 30.1581,-31.6322 40.6486,-29.07 48.6142,11.8693 2.6529,13.6387 6.7566,31.774 9.1165,40.2999 2.3622,8.5259 5.2313,23.1737 6.3776,32.5506 1.1462,9.3768 4.8686,21.6693 8.2678,27.3122 8.5957,14.2664 10.8231,27.2936 7.94,46.4171 z m -19.9465,-26.4519 c -1.0277,-3.8363 -3.4504,-6.9542 -5.3825,-6.9263 -8.6398,0.1162 -11.6345,6.2753 -13.4224,27.5935 -1.8066,21.5532 -4.6292,27.8098 -15.2104,33.7317 -3.7364,2.0902 -4.1595,5.615 -2.1228,17.7517 l 2.5389,15.143 12.1251,-14.7966 c 18.1307,-22.1274 26.9728,-51.9762 21.4741,-72.497 z m -15.429,-62.0018 c -0.8788,-7.2449 -2.6319,-13.1737 -3.8991,-13.1737 -1.2671,0 -7.0286,4.8756 -12.804,10.8347 -8.3469,8.6119 -10.6672,13.7247 -11.3183,24.929 -0.7161,12.332 0.093,14.4432 6.4916,16.8752 4.02,1.5275 8.2259,4.2594 9.3443,6.0706 1.1183,1.8089 5.4522,3.29 9.628,3.29 8.1934,0 8.2794,-1.6345 2.5575,-48.8258 z m -7.7772,-58.8817 c -3.0086,-17.282 -8.8375,-26.7309 -13.5713,-21.9971 -2.0553,2.0576 -8.4097,71.1973 -6.7008,72.9085 3.0156,3.0133 23.7317,-18.6561 23.7317,-24.8244 0,-3.4225 -1.5554,-15.1616 -3.4596,-26.087 z m -32.6227,-3.3573 -11.2834,11.2834 6.9868,11.3043 c 3.8409,6.2172 7.8144,10.4743 8.8281,9.4606 1.0138,-1.0137 2.7622,-8.412 3.8829,-16.4403 3.9223,-28.0749 3.9688,-27.9912 -8.4144,-15.608 z m -64.2571,256.768 c -0.6254,0 -5.043,5.9288 -9.8139,13.176 -4.7734,7.2448 -17.7424,22.5901 -28.8212,34.099 -17.9052,18.6003 -19.3118,20.923 -12.6622,20.8975 8.0516,-0.023 36.3357,-15.0291 42.618,-22.5971 5.1685,-6.2288 12.6621,-45.5754 8.6793,-45.5754 z m -13.8665,-25.9009 c -4.5733,-4.1386 -8.8049,-5.1291 -15.5731,-3.6411 -11.1346,2.4437 -13.7387,5.536 -18.3818,21.8252 -1.9507,6.8402 -9.1699,21.76 -16.045,33.1574 -14.4757,24.0037 -15.1058,27.261 -5.2756,27.261 8.5818,0 41.6485,-28.9025 56.5334,-49.4163 10.7091,-14.7571 10.5487,-18.5027 -1.2579,-29.1862 z m -40.9276,-21.0393 c -5.9661,-20.0326 -9.6141,-24.9663 -13.6387,-18.4515 -0.9556,1.5438 -4.5246,2.0786 -7.9331,1.1881 -3.541,-0.9254 -6.1985,-0.093 -6.1985,1.9414 0,6.8705 -19.0793,52.962 -21.9251,52.962 -4.9454,0 -3.1691,-13.5456 4.8756,-37.2006 4.2618,-12.5319 7.7493,-23.1388 7.7493,-23.5689 0,-1.9879 -37.733,-23.4318 -39.0025,-22.1623 -0.7905,0.7905 -3.0574,9.1653 -5.0384,18.6096 l -3.6014,17.1728 16.1195,32.0995 c 8.8653,17.6563 21.5763,39.6116 28.2445,48.7909 l 12.1251,16.6915 11.0602,-17.289 c 8.8468,-13.8317 22.4483,-41.9995 23.3248,-48.3097 0.093,-0.6673 -2.6784,-10.7812 -6.1613,-22.4738 z m -44.0456,115.4079 c -13.0993,0.2093 -14.6803,0.7487 -8.1027,2.7366 7.4796,2.2623 24.378,1.0044 24.378,-1.8135 0,-0.6557 -7.3216,-1.0695 -16.2753,-0.9231 z m -38.9397,-30.9997 c -18.9375,-4.1084 -33.7084,-8.6399 -32.8249,-10.0698 2.4041,-3.8897 25.2708,-3.0458 45.3266,1.6741 9.7535,2.2948 18.3446,3.5643 19.0909,2.8179 0.744,-0.744 -3.0505,-8.8956 -8.4376,-18.112 -8.8979,-15.229 -11.3438,-17.2123 -26.8402,-21.7647 -20.2767,-5.9591 -34.1014,-13.5992 -34.1014,-18.8491 0,-7.1146 5.0593,-6.9426 21.6415,0.7417 9.1118,4.2222 17.6284,7.2866 18.9258,6.81 1.2974,-0.4766 -7.3006,-22.4878 -19.1072,-48.9165 -26.5821,-59.5 -28.2538,-62.7388 -33.2434,-64.3896 -3.1829,-1.0532 -3.7107,4.4222 -2.5064,25.9428 0.3158,17.099 -2.402,25.2587 12.3576,32.8319 16.3799,8.405 17.7959,13.1783 3.183,10.7393 -6.6543,-1.1114 -15.4266,-2.9319 -19.4908,-4.0432 -4.0642,-1.1114 -6.8286,-0.7626 -6.1428,0.7742 0.6859,1.5369 8.1098,16.2869 16.4962,32.7784 13.2202,25.9963 14.6849,30.6626 11.023,35.0755 -2.7342,3.2946 -6.7659,4.4525 -11.4299,3.283 -8.4236,-2.1158 -8.8979,0.944 -4.0804,26.345 5.1476,27.1355 7.3866,28.3143 50.3068,26.4636 56.4892,-2.439 56.4497,-7.854 -0.1395,-20.1325 z m -16.2637,-149.1954 c -5.2127,-3.7131 -10.1372,-6.0916 -10.9439,-5.2848 -2.5181,2.518 14.836,39.4977 17.7051,37.726 1.495,-0.9253 2.718,-7.0844 2.718,-13.6875 0,-9.8512 -1.7019,-13.2155 -9.4792,-18.7537 z m -99.0234,-9.1746 c -5.6545,0 -8.87,-1.2858 -7.7493,-3.0993 1.0532,-1.7043 4.5408,-3.1016 7.7493,-3.1016 3.2086,0 6.6961,1.3973 7.7494,3.1016 1.123,1.8135 -2.0949,3.0993 -7.7494,3.0993 z m -22.4761,12.3017 c -2.1298,-0.047 -6.5822,-2.146 -9.8908,-4.65 -3.3108,-2.5041 -9.9372,-4.5525 -14.7268,-4.5525 -11.0462,0 -11.6693,-7.8842 -0.837,-10.6021 10.558,-2.6506 29.3304,6.345 29.3304,14.0572 0,3.2155 -1.7438,5.8009 -3.8758,5.7474 z" fill="#00B894" transform="translate(-20.209028,-77.954519) matrix(0.33853699,0,0,0.33853699,1739.2243,-3028.5174)"/>
</svg>