<?xml version="1.0" ?><svg height="79.968727mm" viewBox="0 0 95.893967 79.968727" width="95.893967mm" xmlns="http://www.w3.org/2000/svg">
    <path d="m 24226.502,17496.649 69.588,-40.887 c 0,0 17.268,14.8 31.453,7.215 14.185,-7.586 18.605,-36.54 18.605,-36.54 l 160.042,-74.19 c 0,0 40.807,58.464 50.263,81.868 9.457,23.404 -2.364,147.27 -2.364,147.27 0,0 2.261,38.852 -40.396,48.381 -42.657,9.528 -195.504,6.568 -228.088,4.255 -32.584,-2.313 -38.957,-6.013 -44.199,-28.029 -5.242,-22.017 -29.5,-101.48 -14.904,-109.343 z" fill="#FFFFFF" transform="translate(-57.886303,-108.18231) matrix(0.26229173,0.03474753,-0.03474753,0.26229173,-5685.2607,-5292.0107)"/>
    <path d="m 24300.719,17650.898 c -11.322,-2.242 -27.637,-7.494 -36.249,-11.671 -8.615,-4.177 -17.305,-7.593 -19.307,-7.593 -7.641,0 -10.958,-10.187 -20.107,-61.752 -11.395,-64.213 -12.333,-80.602 -4.622,-80.678 3.016,-0.02 11.147,-4.371 18.07,-9.655 17.354,-13.235 53.171,-33.174 59.592,-33.174 2.912,0 7.01,2.291 9.103,5.092 8.018,10.72 29.202,-6.367 24.338,-19.632 -0.872,-2.383 -0.445,-5.924 0.951,-7.874 4.362,-6.09 50.393,-31.878 101.197,-56.689 39.126,-19.106 51.944,-23.82 64.795,-23.82 14.988,0 16.927,1.087 30.165,16.899 14.918,17.815 35.011,57.798 40.642,80.878 11.434,46.833 12.026,60.245 4.543,102.922 -16.503,94.137 -16.878,94.555 -95.168,106.353 -40.654,6.129 -147.806,6.364 -177.943,0.394 z m 157.81,-31.278 c 48.585,-6.46 73.762,-11.734 73.762,-15.446 0,-1.629 -4.636,-2.828 -10.302,-2.665 -25.521,0.725 -32.767,-29.519 -10.631,-44.384 6.409,-4.306 15.286,-7.828 19.725,-7.828 4.439,0 8.092,-1.159 8.118,-2.574 0.02,-1.415 0.917,-5.819 1.983,-9.791 1.841,-6.859 1.118,-7.08 -14.628,-4.491 -9.11,1.498 -26.678,2.815 -39.035,2.927 -12.747,0.13 -24.269,2.004 -26.626,4.36 -3.252,3.251 -6.195,1.925 -13.552,-6.106 -13.226,-14.441 -28.314,-19.921 -47.087,-17.103 -16.074,2.407 -18.752,6.543 -12.186,18.809 4.92,9.194 21.534,14.749 45.589,15.243 19.312,0.396 21.547,1.188 22.515,7.981 0.827,5.834 -2.051,9.131 -12.729,14.578 -7.591,3.873 -19.317,7.042 -26.058,7.042 -26.02,0 -49.77,-18.229 -49.77,-38.2 v -9.83 l -48.887,-0.09 c -37.575,-0.07 -52.941,-1.512 -66.393,-6.163 l -17.502,-6.048 5.035,19.028 c 2.772,10.464 7.707,32.06 10.967,47.989 5.71,27.879 6.369,29.124 17.612,33.19 17.045,6.162 142.701,5.896 190.08,-0.407 z m -130.549,-15.732 c -3.535,-5.719 4.415,-12.28 9.147,-7.548 3.96,3.959 1.481,11.276 -3.819,11.276 -1.662,0 -4.062,-1.676 -5.328,-3.728 z m -66.148,-22.333 c -8.327,-5.83 -9.53,-23.683 -1.598,-23.683 2.264,0 6.046,-1.929 8.405,-4.288 9.493,-9.493 30.362,0.494 30.362,14.53 0,17.252 -20.926,24.819 -37.169,13.441 z m 273.275,-11.873 c -1.099,-7.129 -1.109,-7.129 -9.229,0.48 l -8.131,7.613 8.131,4.39 c 8.979,4.85 11.4,1.578 9.229,-12.483 z m -44.563,-59.833 c 0.767,-0.766 -1.193,-3.982 -4.356,-7.146 -3.164,-3.164 -4.958,-7.821 -3.992,-10.347 0.972,-2.528 0.289,-5.506 -1.516,-6.622 -1.805,-1.113 -3.282,-6.645 -3.282,-12.289 0,-8.465 2.082,-11.138 11.843,-15.215 9,-3.76 14.151,-4.073 21.438,-1.302 22.303,8.479 28.032,25.031 13.894,40.132 l -7.719,8.243 13.722,-2.419 c 21.696,-3.82 24.011,-7.745 19.153,-32.437 -6.801,-34.563 -40.183,-106.41 -49.442,-106.41 -2.153,0 -35.199,14.245 -73.437,31.659 -68.077,30.997 -69.525,31.873 -69.539,42.026 -0.02,12.453 -10.499,30.71 -20.807,36.223 -8.656,4.634 -26.042,1.997 -33.936,-5.149 -4.807,-4.351 -9.041,-3.242 -35.39,9.258 -16.46,7.808 -29.928,15.302 -29.928,16.653 0,6.474 27.454,10.987 80.619,13.251 52.324,2.229 59.737,1.844 72.047,-3.744 19.575,-8.884 41.6,-8.094 58.322,2.095 10.526,6.414 16.89,7.962 27.318,6.649 7.475,-0.942 14.222,-2.342 14.988,-3.109 z m -103.487,-62.332 c -1.259,-1.258 -2.288,-4.602 -2.288,-7.433 0,-2.83 1.017,-4.13 2.259,-2.886 1.241,1.238 4.125,0.707 6.405,-1.187 4.966,-4.122 13.765,4.605 10.3,10.212 -2.47,3.999 -13.143,4.827 -16.676,1.294 z m 71.106,-16.639 c -8.963,-8.96 -8.899,-18.819 0.179,-28.43 5.71,-6.045 35.754,-8.749 41.766,-3.758 7.843,6.506 5.985,29.262 -2.895,35.481 -11.739,8.224 -28.998,6.77 -39.058,-3.293 z m 24.585,-15.709 c 3.027,-4.894 -6.986,-14.909 -11.879,-11.882 -2.07,1.278 -3.763,5.32 -3.763,8.983 0,7.286 11.602,9.437 15.642,2.899 z m 15.763,64.665 c -3.552,-3.551 -10.82,-0.758 -10.82,4.159 0,1.6 3.191,2.074 7.087,1.055 4.625,-1.21 5.922,-3.022 3.733,-5.214 z" fill="#00B894" transform="translate(-57.886303,-108.18231) matrix(0.26229173,0.03474753,-0.03474753,0.26229173,-5685.2607,-5292.0107)"/>
</svg>