<?xml version="1.0" ?><svg height="164.18233mm" viewBox="0 0 118.39432 164.18233" width="118.39432mm" xmlns="http://www.w3.org/2000/svg">
    <path d="m 15079.062,12631.998 c -0.852,0 -1.737,0.06 -2.656,0.166 -14.706,1.714 -33.608,9.208 -34.191,13.602 -0.583,4.394 -6.912,48.216 -6.912,48.216 l -20.166,-5.857 c 0,0 -2.842,-20.204 -2.332,-28.861 0.51,-8.659 -11.297,-17.973 -20.627,-17.514 -9.329,0.459 -15.524,15.151 -15.524,25.188 0,10.036 -1.822,91.111 -1.822,91.111 l -13.85,2.887 c 0,0 -6.048,-76.484 -6.923,-91.243 -0.875,-14.752 -13.411,-21.711 -28.498,-14.824 -15.088,6.887 -10.861,13.38 -11.444,35.748 -0.583,22.368 -9.474,62.053 -9.474,62.053 0,0 -17.786,-41.652 -18.952,-50.9 -1.167,-9.249 -11.15,-12.071 -11.15,-12.071 l -33.164,15.022 11.736,85.207 c 0,0 -24.637,-2.558 -30.468,-1.246 -5.83,1.312 -10.275,8.397 -10.422,12.004 -0.146,3.607 28.06,150.081 33.599,168.709 1.08,3.632 2.588,9.61 4.235,16.371 l -29.676,20.31 c 0,0 -11.614,8.036 -4.693,32.561 6.921,24.524 30.921,151.058 37.486,169.353 6.565,18.294 20.171,15.661 31.799,15.733 11.627,0.07 223.136,18.436 252.402,7.687 29.267,-10.749 32.101,-54.491 40.406,-74.139 8.305,-19.647 45.877,-181.738 45.877,-181.738 l -15.697,10.168 c 5.446,-20.07 12.018,-43.943 16.977,-60.57 9.037,-30.305 19.604,-77.336 23.103,-96.883 3.498,-19.547 -16.107,-13.971 -16.107,-13.971 0,0 9.547,-55.624 8.162,-62.773 -1.385,-7.15 -35.203,-12.266 -35.203,-12.266 0,0 0.801,-40.736 1.457,-54.379 0.656,-13.644 -37.9,-20.465 -40.014,-16.726 -2.114,3.739 -10.348,37.939 -10.348,37.939 l -36.226,-0.617 c 0,0 -0.728,-11.871 -0.362,-18.627 0.364,-6.757 -23.615,-2.494 -23.615,-2.494 0,0 -1.165,-13.446 0.147,-27.811 1.23,-13.467 -4.083,-24.598 -16.87,-24.525 z" fill="#FFFFFF" paint-order="markers stroke fill" transform="translate(-41.179815,23.847797) translate(-2645.7681,-3033.7409) matrix(0.26458333,0,0,0.26458333,-1231.557,-331.04222)"/>
    <path d="m 2730.329,3173.286 c -14.793,-0.8176 -22.5925,-1.8876 -26.4133,-3.6232 -2.9812,-1.3545 -3.6947,-1.5777 -5.575,-1.7445 -1.7657,-0.1552 -3.2493,-5.1296 -4.5656,-15.305 -0.6963,-5.3839 -2.3126,-14.4846 -3.5915,-20.2235 -1.2791,-5.739 -2.5458,-13.0612 -2.815,-16.2717 -1.0146,-5.2443 -0.3349,-5.9568 3.5971,-9.0119 l 4.0861,-3.1749 -0.4617,-3.9687 c -0.254,-2.1827 -1.8787,-11.0428 -3.6105,-19.6889 -3.5666,-17.8056 -4.5388,-25.1569 -3.3274,-25.1569 0.7082,0 3.1405,7.9156 6.8287,22.2246 0.6191,2.4009 2.3301,10.8826 3.8027,18.8478 l 2.6772,14.4825 h 3.03 c 2.6088,0 2.964,-0.2047 2.5546,-1.4946 -0.2614,-0.8237 -2.4027,-13.18 -4.7584,-27.4585 -2.3557,-14.2783 -4.4666,-26.1444 -4.6909,-26.3687 -0.2249,-0.2249 -2.1253,-0.5321 -4.2245,-0.6838 -2.0992,-0.1507 -4.1739,-0.3033 -4.6103,-0.3372 -0.4368,-0.033 0.081,-0.7904 1.1519,-1.6811 1.4665,-1.2205 2.591,-1.4985 4.564,-1.1285 3.1497,0.5912 3.116,0.8679 1.3973,-11.4549 -0.8598,-6.1635 -0.9801,-9.2038 -0.407,-10.2748 1.036,-1.9359 5.6945,-4.8378 7.7659,-4.8378 2.7242,0 5.4104,2.8815 6.9736,7.4806 0.8274,2.434 1.7874,4.4254 2.1337,4.4254 0.3461,0 0.704,-2.5895 0.7951,-5.7545 0.1666,-5.7992 0.3526,-10.2044 0.5311,-12.6222 0.1867,-2.5453 8.7914,-4.1077 11.3554,-2.0618 0.9429,0.7523 1.4854,3.9641 2.2457,13.2949 0.5511,6.7665 1.2991,12.8387 1.6621,13.4934 0.3804,0.6863 0.6996,-3.3498 0.7536,-9.5247 0.051,-5.8936 0.3304,-12.5014 0.6195,-14.6841 0.4671,-3.525 0.8363,-4.1237 3.3038,-5.3564 1.5279,-0.7635 3.5869,-1.3885 4.5757,-1.3892 2.5686,0 4.9425,4.2425 4.9461,8.8434 0,3.5289 0.7841,4.649 3.2429,4.649 0.4008,0 0.7288,-2.1262 0.7288,-4.7252 0,-6.1696 1.0995,-8.4007 4.8863,-9.9158 3.2116,-1.2851 9.1614,-1.6343 10.6711,-0.6264 1.7491,1.168 2.6984,4.1471 2.6984,8.4684 0,4.1223 0.126,4.4178 1.8873,4.4178 2.1853,0 3.2403,1.1068 3.9713,4.1671 0.4581,1.9174 0.8967,2.1827 3.607,2.1827 h 3.0853 l 0.5627,-4.1672 c 0.8217,-6.0845 1.4719,-6.9451 5.2487,-6.9451 4.4204,0 8.1389,1.9435 9.8705,5.1589 1.3214,2.4533 1.3649,3.3183 0.4881,9.6814 -0.5295,3.8431 -1.3048,10.399 -1.7228,14.5686 -1.028,10.2512 -6.1989,33.6806 -9.1086,41.2704 -1.1136,2.9056 -5.1897,18.4858 -5.1897,19.8381 0,0.4189 0.5358,0.7618 1.1905,0.7618 0.7494,0 1.1907,-0.7556 1.1907,-2.0389 0,-2.0379 3.0628,-15.0299 5.1325,-21.773 0.6033,-1.9645 2.2586,-7.7871 3.6787,-12.9393 2.1379,-7.7565 3.0015,-9.7362 5.0212,-11.5114 2.5017,-2.1991 4.011,-6.8493 4.9818,-15.3494 0.4163,-3.6441 0.3889,-3.6969 -2.4499,-4.7235 -3.2721,-1.1831 -3.7615,-2.3067 -1.0051,-2.3067 3.5532,0 6.8543,1.6638 7.3688,3.7143 0.4709,1.8761 -0.084,9.0184 -0.9753,12.5731 -0.3157,1.258 0.1104,1.9105 1.726,2.6466 2.1083,0.961 2.1372,1.074 1.7061,6.6979 -0.4098,5.3454 -1.7098,9.9324 -7.5684,26.7065 -2.2846,6.5405 -2.3042,6.728 -0.8318,7.9373 1.4771,1.213 1.4678,1.3941 -0.4462,8.7791 -1.0748,4.1471 -2.8991,12.1837 -4.0539,17.859 -1.1552,5.6752 -3.8468,15.6763 -5.9816,22.2246 -2.1346,6.5482 -4.2526,13.3914 -4.7064,15.2074 -1.1517,4.6075 -4.4214,7.8064 -9.5296,9.3233 -4.751,1.4109 -20.3849,1.5516 -41.6752,0.3749 z m 41.847,-20.3416 c 3.5073,-14.0547 7.5302,-35.6182 6.7845,-36.3642 -0.5091,-0.5089 -1.3938,-0.5198 -38.313,-0.4724 -18.7718,0.024 -37.7916,-0.2047 -42.2663,-0.5105 -4.4747,-0.3046 -8.1357,-0.4504 -8.1357,-0.3234 0,0.1261 1.4098,5.3554 3.1328,11.619 3.1006,11.2723 4.5793,18.4526 6.4402,31.2767 0.7909,5.4481 1.256,6.746 2.6388,7.3624 2.139,0.9535 25.9567,2.0212 48.5261,2.1755 l 17.4791,0.1193 z m 1.7935,12.9555 c 2.4282,-1.0148 2.8957,-1.7421 4.463,-6.9454 0.9627,-3.1965 3.0048,-9.0263 4.5382,-12.9554 1.5331,-3.9289 4.4703,-13.5729 6.5273,-21.4308 2.0571,-7.858 3.9842,-15.18 4.283,-16.2714 l 0.5429,-1.9845 -1.0762,1.7977 c -0.9425,1.5748 -4.1286,3.7244 -9.826,6.6297 -1.423,0.7259 -1.7508,1.8263 -2.1819,7.3257 -1.1844,15.1052 -5.3437,34.1398 -9.1753,41.991 -1.6594,3.3994 -1.7075,3.3527 1.905,1.8434 z m -77.3864,-56.6108 c -0.027,-3.0444 -1.2289,-3.4379 -3.0358,-0.9941 l -1.7619,2.383 h 2.4049 c 1.7659,0 2.4018,-0.369 2.3928,-1.3889 z m 13.9434,-17.5446 c -1.1358,-8.1401 -2.3762,-18.7291 -2.7564,-23.5312 -0.6109,-7.7134 -4.4546,-35.6428 -5.2734,-38.3157 -0.2428,-0.7934 -0.9439,-0.7452 -3.2629,0.225 -1.6247,0.6788 -3.0469,1.3272 -3.1606,1.4409 -0.1146,0.1146 0.3004,2.1561 0.9205,4.5385 1.2756,4.9009 7.716,37.8096 11.4888,58.7026 1.3793,7.6397 2.7302,14.426 3.0021,15.0807 1.3342,3.2164 0.9157,-4.7096 -0.9581,-18.1397 z m 5.577,15.957 c -2.959,-16.2244 -4.6059,-28.5001 -5.6177,-41.8693 -1.586,-20.9594 -4.3044,-37.7024 -6.1212,-37.7024 -0.4749,0 -0.6057,1.053 -0.3207,2.5798 0.2651,1.4188 0.8524,5.437 1.3052,8.9294 0.4527,3.4923 1.1864,8.8501 1.6299,11.906 0.4437,3.0559 1.1344,8.7708 1.5351,12.6997 0.7756,7.6073 5.5653,43.7738 6.018,45.4413 0.1485,0.5456 0.6844,0.992 1.1918,0.992 0.6333,0 0.7523,-0.9328 0.3796,-2.9765 z m 7.7524,0.2334 c -0.068,-0.76 -0.3849,-14.1986 -0.7047,-29.8634 -0.4329,-21.2107 -0.3458,-28.7654 0.3408,-29.5927 1.0427,-1.2564 0.3106,-29.8738 -0.7642,-29.8738 -1.4334,0 -1.7714,6.8732 -1.7309,35.2086 0.051,36.1509 0.8042,56.276 2.0879,55.8204 0.4919,-0.1754 0.8388,-0.9393 0.7711,-1.6991 z m 9.3348,-11.7425 c 1.1978,-14.8157 1.2924,-38.4997 0.1777,-44.2504 -0.5872,-3.0267 -1.0046,-3.6086 -2.7349,-3.8113 l -2.0419,-0.2392 -0.5517,16.1966 c -0.3032,8.908 -0.3035,22.8563 -4e-4,30.9964 0.5417,14.5542 0.58,14.7997 2.2981,14.7997 1.6898,0 1.7831,-0.4475 2.854,-13.6918 z m 5.4608,5.1593 c 0,-4.693 0.5414,-15.4977 1.2169,-24.0103 2.7912,-35.1773 2.7383,-34.9245 7.32,-34.9245 h 2.5869 l -0.079,-4.1671 c -0.097,-5.0462 -0.825,-7.9079 -2.1255,-8.3414 -0.63,-0.2092 -0.9864,0.605 -1.0161,2.3224 -0.024,1.4552 -0.3528,4.0744 -0.7279,5.8208 -0.5012,2.3337 -0.5682,1.5766 -0.2524,-2.8576 l 0.4298,-6.0324 -2.5792,-0.5159 c -4.629,-0.9258 -4.5473,-1.0393 -5.6297,7.8183 -0.5603,4.5839 -1.3087,8.3343 -1.6628,8.3343 -0.7418,0 -0.8876,-16.6982 -0.162,-18.588 0.265,-0.6905 0.9972,-1.2554 1.6269,-1.2554 0.8928,0 1.0928,-1.0064 0.9074,-4.5641 -0.2315,-4.4355 -0.305,-4.5696 -2.6194,-4.7706 -4.5393,-0.3941 -4.5732,-0.2517 -4.436,18.6612 0.068,9.2518 0.1486,9.7231 1.6985,9.7231 4.646,0 6.3593,17.344 4.4574,45.1199 -0.7279,10.6279 -1.1234,19.6468 -0.8795,20.0416 1.3581,2.1976 1.9365,-0.1484 1.9262,-7.8143 z m 8.9729,-1.9844 c 0.7123,-5.7842 1.6809,-15.6959 2.152,-22.0259 0.4714,-6.3301 1.1997,-15.4572 1.6186,-20.2824 0.4188,-4.825 0.7616,-9.1582 0.7616,-9.6289 0,-0.6657 -5.5384,-2.6318 -7.4138,-2.6318 -0.1979,0 -0.5905,4.9112 -0.8712,10.9139 -0.2805,6.0024 -0.8693,17.6365 -1.3085,25.8527 -0.4392,8.2167 -0.5543,17.9499 -0.2559,21.6293 0.5025,6.1905 0.6728,6.69 2.2822,6.69 1.6375,0 1.8155,-0.6169 3.035,-10.5169 z m 5.4104,4.1671 c 2.8541,-35.3022 3.0269,-59.1584 0.4075,-56.2888 -0.3062,0.3352 -1.6159,18.8993 -2.8973,41.0627 -0.3865,6.6869 -0.9461,14.3083 -1.2435,16.9366 -0.5326,4.7081 -0.5126,4.7748 1.3556,4.5106 1.7554,-0.2482 1.9323,-0.7109 2.3777,-6.2211 z m 6.3836,0.7303 c 0.7199,-2.8027 2.2659,-9.5604 3.4354,-15.0175 2.6322,-12.2813 5.6688,-21.4499 7.6233,-23.0181 1.5727,-1.2618 3.0649,-8.9861 3.0946,-16.0196 0.022,-2.9729 -0.2884,-3.8135 -1.5043,-4.1991 -2.4599,-0.7808 -5.5994,0.3892 -6.0351,2.249 -0.2183,0.934 -1.3092,5.7936 -2.4236,10.7995 -1.1144,5.0058 -2.6808,11.0776 -3.4806,13.4935 -0.9212,2.7809 -1.7849,9.1452 -2.3551,17.3491 -0.4952,7.1263 -1.1238,14.586 -1.3965,16.5769 -0.7689,5.6087 1.4469,3.9961 3.0419,-2.2137 z m 16.1544,-2.1192 c 0.736,-4.2564 2.2684,-12.2037 3.405,-17.6606 1.137,-5.4569 2.0857,-11.3505 2.1085,-13.0967 0.04,-3.0992 -0.029,-3.1808 -2.9081,-3.4197 -2.5325,-0.2092 -3.0063,0.022 -3.3499,1.5876 -0.2206,1.0077 -1.4897,7.1899 -2.8219,13.7382 -1.332,6.5483 -3.3,14.8985 -4.373,18.5562 -1.073,3.6578 -1.7586,6.9616 -1.5234,7.3421 0.2351,0.3804 2.1593,0.6916 4.276,0.6916 h 3.8483 z m 11.3055,3.7356 c 2.6933,-1.9806 3.5117,-3.2318 4.5433,-6.9454 0.6919,-2.4909 2.8767,-8.9545 4.8545,-14.3632 3.4072,-9.3164 6.038,-21.6306 4.8708,-22.7979 -0.2955,-0.2953 -1.8736,-0.029 -3.507,0.5936 -2.5096,0.9551 -3.0757,1.6193 -3.6495,4.2814 -1.3875,6.4366 -8.5815,33.1965 -10.0405,37.3476 -0.8312,2.3649 -1.2515,4.2997 -0.934,4.2997 0.3174,0 2.0556,-1.0872 3.8624,-2.4158 z m -15.7921,-24.7697 c 3.011,-13.294 3.011,-13.295 1.2723,-13.295 -1.5668,0 -1.9061,0.8059 -3.425,8.1358 -1.6351,7.8897 -4.9313,27.7271 -4.8118,28.9581 0.1867,1.9306 4.3874,-12.4211 6.9645,-23.7989 z m -51.5648,-16.6683 c -0.047,-20.1906 0.2537,-38.7822 0.6693,-41.3149 l 0.7558,-4.6048 -2.4525,0.2394 c -2.4511,0.239 -2.4524,0.2421 -2.9438,6.1921 -0.9684,11.7287 -0.7076,43.0696 0.4394,52.7831 1.5565,13.1802 3.0183,23.4153 3.3445,23.4153 0.1508,0 0.2349,-16.5196 0.1868,-36.7102 z m 66.7029,-0.397 c 0.4355,-1.637 1.361,-5.1194 2.056,-7.7389 1.3013,-4.9031 2.712,-32.2417 1.6107,-31.2137 -0.3154,0.2943 -1.0656,5.9288 -1.6668,12.5209 -0.6014,6.5922 -1.8188,15.0412 -2.7057,18.7755 -1.7672,7.4401 -2.022,10.6328 -0.8493,10.6328 0.4196,0 1.1196,-1.3394 1.5551,-2.9766 z m -58.7428,-11.1121 c 0.064,-3.7333 -0.106,-4.167 -1.6063,-4.167 -1.4523,0 -1.6168,0.3443 -1.2341,2.5796 0.243,1.4188 0.7137,5.0799 1.0455,8.1358 l 0.604,5.5561 0.5607,-3.9688 c 0.3082,-2.1826 0.5919,-5.8438 0.6302,-8.1357 z m 51.2428,9.9217 c 1.2742,-5.6231 1.8537,-12.0068 1.237,-13.6285 -0.5964,-1.569 -2.7658,-2.7921 -5.0207,-2.8307 -0.3475,0 -0.4258,1.1502 -0.1732,2.5687 0.2512,1.4188 0.1597,5.5266 -0.2026,9.1281 l -0.6592,6.5482 h 2.2074 c 1.6403,0 2.3114,-0.459 2.6122,-1.7858 z m -18.651,-4.9022 c -0.5017,-0.5015 -0.7492,0.3279 -0.7049,2.3623 0.068,3.0984 0.077,3.1074 0.7732,0.7731 0.4357,-1.4609 0.4096,-2.6572 -0.068,-3.1354 z m 27.1862,-23.2764 c 1.1709,-11.3076 0.9999,-12.1034 -2.6007,-12.1034 -1.9338,0 -2.216,0.435 -3.475,5.3576 -0.7538,2.9468 -2.0151,7.5903 -2.8032,10.3185 -1.2202,4.2246 -1.261,4.9609 -0.2739,4.9609 0.6375,0 2.2517,1.0928 3.5874,2.4284 2.3089,2.3089 2.4076,2.6696 2.0121,7.342 l -0.4161,4.9137 1.4402,-6.3498 c 0.7922,-3.4924 1.9302,-11.083 2.5292,-16.8679 z m -26.9285,-1.1895 c 0.4301,-19.431 0.3811,-20.4386 -0.9978,-20.4386 -0.798,0 -1.6248,0.4536 -1.8376,1.0083 -0.2138,0.5545 -0.85,7.2934 -1.4164,14.9751 -1.0097,13.6994 -0.998,14.0064 0.6075,16.0477 0.9003,1.1442 1.8832,3.7249 2.1847,5.7346 0.3013,2.0096 0.6511,3.5317 0.7774,3.3826 0.1259,-0.1485 0.4331,-9.4685 0.6822,-20.7097 z m 6.5097,1.303 c 0,-7.469 -0.18,-8.6579 -1.343,-8.882 -1.1935,-0.23 -1.3702,0.8471 -1.5876,9.6795 -0.2407,9.7857 -0.2204,9.9221 1.343,8.882 1.4255,-0.9482 1.5876,-1.9373 1.5876,-9.6795 z m -12.0167,-2.4937 c 0.2869,-6.0026 0.7478,-12.8438 1.0241,-15.2027 l 0.5025,-4.2888 -2.6818,0.5364 c -3.7152,0.7432 -4.546,1.8267 -5.5454,7.2335 l -0.8693,4.7029 2.6497,2.1626 c 2.5755,2.1022 2.6577,2.3528 2.9296,8.9663 0.153,3.742 0.5474,6.8036 0.8743,6.8036 0.327,0 0.8294,-4.9111 1.1163,-10.9138 z m 21.4553,5.6172 c 0.5699,-4.8497 0.042,-5.7808 -3.2871,-5.8035 -1.2165,0 -1.7858,0.4588 -1.7858,1.4645 0,0.8122 -0.2274,3.134 -0.505,5.1594 l -0.5047,3.6824 h 2.7767 2.7767 z" fill="#00B894" transform="translate(-41.179815,23.847797) translate(-2645.7681,-3033.7409)"/>
</svg>