<?xml version="1.0" ?><svg height="146.33223mm" viewBox="0 0 285.69592 146.33223" width="285.69592mm" xmlns="http://www.w3.org/2000/svg">
    <path d="m -14525.916,13890.736 c 18.322,-80.75 41.495,-129.976 54.428,-166.35 12.933,-36.374 72.481,-57.471 121.251,-71.535 48.77,-14.065 260.555,-68.141 328.456,-80.023 67.9,-11.882 232.532,-11.882 374.8,32.737 142.268,44.618 161.129,138.463 160.051,165.379 -1.078,26.917 -23.981,133.856 -68.439,179.202 -44.459,45.346 -95.115,132.159 -194.541,132.644 -99.426,0.485 -87.839,-56.259 -134.993,-79.053 -47.153,-22.794 -217.712,-62.805 -346.777,-60.381 -129.065,2.425 -188.074,38.314 -250.047,20.612 -61.973,-17.702 -55.506,-37.343 -44.189,-73.232 z" fill="#FFFFFF" transform="translate(199.05875,-93.074121) matrix(0.26458333,0,0,0.26458333,3650.5524,-3492.7833)"/>
    <path d="m -13818.022,14093.153 c -23.813,-11.867 -37.277,-28.214 -37.277,-45.265 0,-10.908 -91.393,-47.966 -166.606,-67.553 -67.328,-17.537 -71.896,-18.039 -168.096,-18.5 -72.445,-0.341 -116.767,2.103 -165.72,9.162 -56.459,8.136 -71.809,8.703 -98.889,3.637 -17.633,-3.298 -38.408,-5.881 -46.166,-5.736 -19.656,0.381 -32.577,-7.687 -42.184,-26.262 -18.291,-35.373 3.986,-106.747 26.338,-84.395 6.363,6.368 6.919,10.368 2.552,18.523 -13.282,24.821 -2.289,64.822 19.394,70.546 25.685,6.785 90.085,2.83 147.463,-9.06 77.392,-16.031 217.012,-17.435 283.991,-2.86 55.215,12.019 123.897,34.451 157.31,51.381 28.971,14.681 70.897,50.806 70.897,61.086 0,11.62 55.286,28.838 80.476,25.058 33.6,-5.036 44.374,-18.915 48.783,-62.814 4.636,-46.163 0.654,-51.183 -55.044,-69.375 -59.135,-19.309 -99.573,-37.984 -99.573,-45.979 0,-3.804 4.218,-6.915 9.371,-6.915 19.002,0 141.466,41.594 153.625,48.653 20.93,12.153 16.172,21.022 22.657,34.897 10.144,21.706 10.855,26.669 5.097,35.501 -7.246,11.103 -13.476,43.226 -8.383,43.226 6.573,0 110.133,-110.235 125.506,-133.599 15.256,-23.175 43.279,-99.384 48.737,-132.542 3.21,-19.485 -37.217,-116.297 -56.454,-135.201 -9.772,-9.6 -30.132,-18.021 -71.951,-29.754 -32.074,-9.003 -64.467,-20.638 -71.979,-25.856 -12.764,-8.862 -25.137,-9.433 -187.638,-8.657 -92.724,-1.258 -147.928,-9.25 -231.489,23.099 -31.634,12.246 -73.851,25.414 -93.816,29.26 -19.968,3.848 -45.648,10.318 -57.075,14.381 -11.42,4.061 -43.05,13.452 -70.287,20.873 -57.789,15.742 -98.28,32.83 -109.88,46.367 -4.531,5.283 -11.122,18.736 -14.648,29.891 -9.444,29.868 -39.833,88.746 -45.805,88.746 -9.691,0 -11.079,-15.344 -3.335,-36.847 24.791,-68.821 33.904,-91.341 39.928,-98.67 15.667,-19.051 116.917,-55.188 194.371,-69.37 44.295,-8.109 80.869,-20.923 154.674,-54.188 67.994,-37.653 146.181,-21.904 223.132,-22.048 169.238,-0.305 175.708,0 197.78,10.63 12.551,6.025 31.948,12.495 43.107,14.369 11.156,1.876 40.594,8.068 65.419,13.761 39.964,9.159 47.577,12.783 66.397,31.603 14.571,14.574 25.761,33.041 35.578,58.733 7.877,20.614 17.347,43.283 21.052,50.38 3.704,7.098 6.747,23.905 6.766,37.354 0.03,29.739 -26.514,112.35 -44.98,139.944 -41.77,62.425 -156.607,177.912 -176.908,177.912 -5.565,0 -18.315,3.424 -28.325,7.607 -28.298,11.825 -68.047,9.737 -97.893,-5.134 z m 25.674,-50.594 c -3.804,-15.152 5.914,-66.602 13.459,-71.265 11.578,-7.154 12.871,5.284 4.298,41.275 -10.703,44.915 -13.026,48.84 -17.757,29.99 z m 114.54,-133.668 c 0,-2.361 4.382,-6.355 9.74,-8.876 13.799,-6.489 66.329,-66.789 66.329,-76.142 0,-4.286 12.691,-21.097 28.198,-37.353 16.58,-17.386 25.982,-30.934 22.821,-32.889 -8.542,-5.279 -6.462,-33.051 2.742,-36.585 10.966,-4.21 17.127,7.112 16.283,29.926 -0.848,22.931 -10.597,38.593 -39.336,63.19 -14.472,12.391 -26.86,29.902 -36.764,51.97 -19.732,43.983 -26.73,51.054 -50.513,51.054 -10.726,0 -19.5,-1.933 -19.5,-4.295 z m -78.389,-111.075 c -10.468,-41.142 -26.78,-98.354 -36.247,-127.142 -19.439,-59.097 -20.801,-67.518 -9.003,-55.723 4.519,4.518 18.356,37.528 30.747,73.353 21.703,62.73 26.203,55.93 6.299,-9.521 -17.915,-58.903 -8.851,-74.908 10.098,-17.833 20.668,62.231 40.944,158.819 40.982,195.184 0,18.321 -9.938,23.151 -10.448,5.073 l -0.305,-11.409 -4.586,11.409 c -2.522,6.276 -5.465,11.411 -6.539,11.411 -1.072,0 -10.512,-33.661 -20.983,-74.802 z m -717.796,60.216 c 0,-10.045 51.993,-32.098 93.53,-39.67 22.471,-4.096 71.927,-7.74 109.9,-8.093 l 69.045,-0.651 -20.333,-55.979 c -24.019,-66.126 -28.439,-86.182 -18.269,-82.903 9.235,2.978 38.419,75.767 42.614,106.294 6.006,43.644 8.634,42.166 -92.747,52.267 -80.952,8.064 -150.616,20.215 -174.866,30.5 -5.325,2.259 -8.874,1.551 -8.874,-1.765 z m 396.824,-9.281 c -6.275,-1.205 -11.41,-4.499 -11.41,-7.318 0,-5.632 61.125,-0.821 78.605,6.189 10.7,4.29 -45.851,5.241 -67.195,1.129 z m 163.448,-2.757 c -1.273,-3.487 -8.032,-39.834 -15.019,-80.766 -6.986,-40.937 -16.145,-87.627 -20.344,-103.757 -4.204,-16.134 -7.471,-36.27 -7.266,-44.748 0.305,-12.304 2.811,-8.463 12.419,19.025 15.979,45.717 33.071,128.606 36.555,177.281 2.541,35.502 -0.191,49.765 -6.345,32.965 z m 29.246,-8.916 c -22.768,-64.296 -45.642,-218.024 -32.44,-218.024 3.207,0 5.831,4.26 5.831,9.467 0,5.208 8.109,51.145 18.02,102.085 9.912,50.939 17.317,99.737 16.454,108.439 l -1.567,15.822 z m -472.034,-38.946 c -7.979,-14.914 -18.089,-70.124 -14.533,-79.39 6.893,-17.952 12.494,-6.587 18.531,37.586 6.363,46.565 5.18,58.95 -3.998,41.804 z m 298.821,-40.887 c -19.922,-64.853 -25.544,-90.438 -25.696,-116.937 -0.114,-22.394 6.869,-25.407 11.266,-4.845 1.35,6.318 10.749,42.559 20.889,80.545 10.139,37.985 18.435,73.928 18.435,79.872 0,24.353 -10.6,7.903 -24.894,-38.635 z m -326.969,18.648 c -9.624,-23.061 -12.297,-61.653 -4.455,-64.267 3.317,-1.107 7.044,3.286 8.292,9.76 1.244,6.474 4.587,23.181 7.436,37.129 6.367,31.211 -0.856,42.344 -11.273,17.378 z m 299.41,-1.046 c -8.87,-21.227 -33.759,-117.542 -33.759,-130.641 0,-20.937 10.135,-8.511 19.807,24.294 14.411,48.877 30.907,111.756 30.907,117.815 0,11.261 -10.394,4.232 -16.955,-11.468 z m -158.433,-2.389 c -1.738,-7.667 -9.566,-34.455 -17.397,-59.527 -15.046,-48.155 -14.525,-70.021 0.807,-33.919 21.436,50.471 34.569,107.393 24.783,107.393 -2.768,0 -6.454,-6.275 -8.193,-13.947 z m 623.212,-3.803 c -12.137,-30.504 -25.144,-124.243 -17.244,-124.243 2.722,0 6.195,2.019 7.725,4.488 4.959,8.029 18.918,105.724 17.222,120.55 l -1.652,14.419 z m -33.812,-7.976 c -10.426,-25.407 -20.836,-105.777 -14.518,-112.095 6.949,-6.945 15.157,19.257 23.569,75.247 7.212,47.978 2.83,65.803 -9.051,36.848 z" fill="#00B894" transform="translate(199.05875,-93.074121) matrix(0.26458333,0,0,0.26458333,3650.5524,-3492.7833)"/>
</svg>