<?xml version="1.0" ?><svg height="74.546013mm" viewBox="0 0 241.51999 74.546013" width="241.51999mm" xmlns="http://www.w3.org/2000/svg">
    <path d="m 324.68306,225.38303 c 1.78025,-0.83311 6.61411,-2.57851 12.29831,-2.4428 5.68418,0.13571 10.06568,1.66246 11.08774,2.35233 1.02206,0.68987 2.03575,1.621 0.79586,2.23924 -1.23989,0.61824 -3.439,0.63332 -3.439,0.63332 0,0 -0.19687,1.04423 -1.68388,1.47398 -1.48704,0.42975 -4.11758,-0.0716 -5.08522,-0.32043 -0.9676,-0.24881 -2.22004,0.19979 -3.04943,0.67478 -0.82939,0.47499 -4.62862,1.11586 -8.26867,0.7238 -3.64006,-0.39206 -6.3209,-0.83689 -6.06537,-2.11107 0.25551,-1.27418 3.40966,-3.22315 3.40966,-3.22315 z" fill="#FFFFFF" transform="translate(-22.809682,-25.834466) matrix(8.4032922,0,0,8.4032922,-2674.759,-1844.2746)"/>
    <path d="m 326.99309,231.33052 c -1.80543,-0.15436 -4.12688,-0.67855 -5.01768,-1.13301 -2.58679,-1.31968 0.28632,-4.56137 5.70764,-6.43984 1.94536,-0.67406 5.7966,-1.21286 8.66932,-1.21286 1.64384,0 5.44952,0.39142 6.98194,0.71811 3.29035,0.70145 6.42012,2.33256 6.42012,3.3459 0,0.99088 -1.63648,1.97032 -3.3498,2.00488 -0.77805,0.0157 -0.83888,0.0475 -0.97549,0.51006 -0.23163,0.78434 -1.09545,1.10822 -3.18529,1.19433 -1.67675,0.0691 -1.7903,0.0523 -2.67591,-0.39572 -1.31561,-0.66555 -2.01641,-0.61472 -3.44772,0.25009 -0.62564,0.37802 -1.52684,0.79414 -2.00265,0.92472 -1.05068,0.28833 -4.97724,0.41693 -7.12448,0.23334 z m 6.01237,-1.15523 c 0.5795,-0.094 1.59827,-0.38902 2.26394,-0.65556 1.32688,-0.53132 2.22533,-0.60319 3.83597,-0.30688 0.53652,0.0987 1.24746,0.22106 1.57988,0.2719 0.82715,0.1265 3.15775,-0.25591 3.56388,-0.58477 0.32118,-0.26008 0.32277,-0.28657 0.0513,-0.85591 -0.17491,-0.3668 -0.24023,-0.74666 -0.17385,-1.01113 0.11867,-0.47283 0.58694,-0.58331 0.58951,-0.13909 10e-4,0.21086 0.30077,0.3755 1.15698,0.63594 1.06889,0.32514 1.21428,0.33393 1.94325,0.11744 0.78633,-0.23351 1.32977,-0.73939 1.18883,-1.10667 -0.14559,-0.37939 -1.87037,-1.3704 -3.27302,-1.88057 -5.1104,-1.85875 -13.77094,-1.81493 -18.52451,0.0937 -1.85058,0.74305 -3.64808,1.71007 -4.74031,2.55022 -0.79079,0.60827 -0.85894,0.71139 -0.76863,1.16296 0.0545,0.27252 0.19094,0.58733 0.30319,0.69958 0.24761,0.24761 2.46912,0.82422 3.88184,1.00755 1.51859,0.19708 5.91003,0.19785 7.12178,0.001 z m -7.96335,-0.91457 c -1.18204,-0.19837 -2.21343,-0.73244 -2.01973,-1.04585 0.0474,-0.0767 0.32227,-0.0407 0.61085,0.0798 0.70287,0.29367 1.90232,0.41995 4.28895,0.45154 1.09223,0.0145 1.95312,0.0793 1.91309,0.14405 -0.23318,0.37729 -3.32736,0.61642 -4.79316,0.37043 z m 15.12004,-0.8226 c -0.31297,-0.15635 -0.54343,-0.35743 -0.51213,-0.44685 0.0313,-0.0894 0.14104,-0.12787 0.24387,-0.0855 0.10283,0.0425 0.882,0.10215 1.73149,0.13273 1.72035,0.0619 2.14935,0.24373 1.1982,0.50783 -0.92931,0.25803 -2.01674,0.2138 -2.66143,-0.10826 z m -7.47873,-2.41337 c 0,-0.1886 0.67473,-1.04123 0.82398,-1.04123 0.26291,0 0.16417,0.58847 -0.14581,0.869 -0.2922,0.26444 -0.67817,0.36246 -0.67817,0.17223 z m 0.97548,-0.20312 c 0,-0.25124 0.62694,-0.70917 0.81326,-0.59402 0.1279,0.079 0.0988,0.20689 -0.0962,0.42238 -0.28573,0.31573 -0.71701,0.41897 -0.71701,0.17164 z m 1.73862,-0.45433 c -0.12989,-0.12989 0.0169,-0.38378 0.22195,-0.38378 0.0842,0 0.15299,0.10975 0.15299,0.24387 0,0.25142 -0.19184,0.323 -0.37494,0.13991 z" fill="#00B894" transform="translate(-22.809682,-25.834466) matrix(8.4032922,0,0,8.4032922,-2674.759,-1844.2746)"/>
</svg>