<?xml version="1.0" ?><svg height="168.91805mm" viewBox="0 0 138.28841 168.91805" width="138.28841mm" xmlns="http://www.w3.org/2000/svg">
    <path d="m 7054.5885,1350.421 c 0,0 20.9518,1.6836 34.912,3.4303 13.9602,1.7467 51.1873,-0.2946 58.5999,-1.894 7.4128,-1.5994 22.5187,-2.1886 22.5187,-2.1886 0,0 0.5612,20.3712 1.3795,28.3261 0.8186,7.9548 8.395,48.7815 5.0978,64.5649 -3.297,15.7835 -5.5214,41.7192 -2.8089,47.9485 2.7125,6.2292 6.0799,13.0266 6.0799,13.0266 0,0 -41.179,9.1334 -60.7047,9.4701 -19.5254,0.3367 -54.461,-2.2728 -54.461,-2.2728 l 5.098,-22.0792 c 0,0 -10.1021,-43.7906 -9.8214,-57.3644 0.2805,-13.5738 7.1586,-44.7293 3.651,-58.9766 -3.5076,-14.2472 -9.5408,-21.9909 -9.5408,-21.9909 z" fill="#FFFFFF" paint-order="markers stroke fill" transform="translate(37.251612,103.59456) translate(-7086.7889,-1450.5699)"/>
    <path d="m 7078.0001,1515.0318 c -7.7063,-0.4157 -14.5114,-1.0648 -15.122,-1.4423 -1.8509,-1.1439 -1.7698,-5.5851 2.0971,-15.3539 2.8353,-7.1627 3.1602,-9.5831 0.083,-16.0576 -4.0844,-8.5942 -5.9618,-18.2658 -7.4805,-38.5355 -1.3305,-17.7555 -0.7359,-28.0902 3.1046,-53.9621 1.8178,-12.2474 1.8152,-12.6079 -0.1308,-17.8566 -1.0927,-2.9462 -4.0343,-8.3468 -6.5365,-12.0012 -5.2404,-7.6537 -5.8409,-11.3147 -2.0125,-12.2755 2.9148,-0.7316 18.4652,0.8631 26.418,2.7091 3.5208,0.8173 14.4585,1.2388 31.534,1.2152 22.3514,-0.031 27.9443,-0.3625 38.56,-2.2857 14.0554,-2.5463 23.5566,-2.9249 24.286,-0.9679 0.2616,0.7049 0.5002,6.9053 -0.067,13.7412 -1.0544,12.7085 3.2366,23.7051 5.4095,34.7011 2.7098,13.7133 2.7972,15.2648 2.1919,34.858 -0.7129,23.0784 -2.125,37.9416 -4.2041,44.2587 -2.3529,7.1475 0.1133,14.7104 7.6246,23.3897 4.2352,4.8936 5.2959,9.0843 2.5647,10.1324 -2.1508,0.8254 -15.1016,2.3795 -39.6216,4.7546 -21.4775,2.0803 -42.6754,2.3822 -68.6985,0.9783 z m 63.223,-6.6654 c 18.0104,-1.7294 29.1931,-3.1764 29.8836,-3.8669 0.247,-0.2456 -1.061,-1.4013 -2.9039,-2.5681 -2.689,-1.7026 -3.0195,-2.2486 -1.6733,-2.7652 0.9224,-0.354 3.1459,0.1157 4.9408,1.044 1.7948,0.9282 3.4569,1.4942 3.6931,1.2578 0.2354,-0.2362 -0.5713,-2.6925 -1.7951,-5.458 -5.0073,-12.9529 -1.0699,-28.7006 -0.399,-42.4494 1.3973,-28.6291 1.5711,-39.1079 0.7198,-44.5976 -1.4654,-9.4497 -2.904,-18.7951 -4.4749,-28.194 -2.7992,-16.7483 0.969,-29.9411 -2.3604,-24.962 l -4.0611,6.0733 c -2.9922,4.4748 -4.1625,5.5822 -4.4461,4.2077 -0.3598,-1.743 1.7248,-5.3704 7.0811,-12.3223 1.6702,-2.1676 0.029,-1.3174 -6.4845,3.332 -4.7998,3.4333 -9.2509,6.2424 -9.8918,6.2424 -2.7858,0 -0.689,-2.435 5.4889,-6.3736 3.6595,-2.333 6.5125,-4.3829 6.3402,-4.5554 -0.1715,-0.1723 -1.8981,0.143 -3.8342,0.7009 -23.5188,6.7775 -58.2598,7.39 -85.4709,1.5069 -6.6731,-1.4429 -12.3015,-2.4552 -12.507,-2.2496 -0.2063,0.2055 2.4229,1.9507 5.8409,3.8781 3.4182,1.9274 7.1978,4.3713 8.4569,5.3591 1.9187,1.5052 0.8977,1.6572 -0.8337,1.4266 -1.6931,-0.2254 -3.9984,-0.7904 -5.1262,-1.233 -1.1683,-0.4584 0.1394,1.464 3.0372,4.4686 5.52,5.7214 4.3683,7.4902 -1.6045,2.4643 l -3.3383,-2.809 0.7742,2.5527 c 2.0465,6.7463 2.0265,9.8992 -0.1889,30.1019 -1.8356,16.7358 -2.241,24.7534 -1.7827,35.2562 0.8803,20.1762 3.0431,34.4391 6.7932,44.8035 3.4232,9.4603 3.4505,11.449 0.3182,23.1083 -0.5687,2.1162 0.318,1.5859 5.0847,-3.0407 6.0794,-5.9011 7.624,-5.2854 3.1729,1.2649 -3.0602,4.5036 -2.197,4.7332 4.6848,1.2459 3.717,-1.8835 5.0919,-2.2033 5.0919,-1.1841 0,1.8976 -2.6103,4.0503 -8.7145,7.1866 l -5.1262,2.6338 24.6058,0.044 c 14.6863,0.026 31.2184,-0.5908 41.0093,-1.5308 z m -28.2146,-33.5232 -2.1381,-2.8919 -2.6472,2.0822 c -2.5798,2.0292 -7.7351,2.7134 -11.0013,1.46 -4.7714,-1.831 0.5231,-11.513 8.0585,-14.7371 l 4.1605,-1.78 -4.1009,-0.7124 c -5.817,-1.0107 -13.1063,-4.9343 -14.5946,-7.8561 -0.6966,-1.3673 -1.2731,-4.6889 -1.2816,-7.3813 0,-4.1722 0.3334,-5.0277 2.3436,-5.792 3.726,-1.4166 7.6043,-0.1351 11.3919,3.7645 l 3.5002,3.6037 4.5138,-2.1851 c 2.4825,-1.2018 5.441,-2.1851 6.5744,-2.1851 2.2723,0 6.5191,3.97 6.5191,6.0945 0,1.8504 8.3378,0.8754 11.7753,-1.377 1.9215,-1.2589 2.578,-2.5814 2.578,-5.1933 0,-4.348 -0.6922,-4.7775 -8.7391,-5.4234 -5.6098,-0.4503 -7.1018,-0.1691 -11.1705,2.105 -5.3183,2.9724 -6.0277,2.3724 -1.8768,-1.5876 3.7542,-3.5812 7.4718,-4.8705 14.0444,-4.8705 4.5432,0 5.5394,-0.3333 5.9751,-1.999 0.723,-2.7648 6.7074,-6.1945 10.8165,-6.1991 7.6804,-0.01 12.4907,10.6501 7.3139,16.2066 -3.6359,3.9028 -5.17,2.7735 -2.5228,-1.8572 2.1174,-3.7043 1.871,-5.9113 -0.9788,-8.761 -3.0579,-3.0578 -6.4464,-3.6583 -10.6308,-0.4314 -3.6704,2.8305 -1.6585,3.7254 0.1823,5.3511 2.675,2.3624 2.7125,3.4027 2.7125,7.1901 0,8.4613 -7.749,13.8937 -15.3783,10.7807 -3.472,-1.4168 -3.5499,-1.3909 -5.0951,1.6993 -0.9343,1.8689 -3.4191,4.0711 -6.1433,5.4449 -2.5162,1.2687 -3.801,2.3067 -2.8554,2.3067 2.9521,0 8.8662,6.088 10.1827,10.4816 1.1543,3.8531 1.0756,4.2734 -1.1349,6.0633 -3.3487,2.7118 -7.7472,2.1112 -10.3532,-1.4137 z m 7.597,-1.6203 c 0.7622,-1.097 -2.0671,-6.3286 -4.2662,-7.9987 -0.9748,-0.7403 -3.8485,-1.4054 -6.3858,-1.3748 -4.1092,0.05 -4.2523,0.2975 -1.4638,1.8917 1.7615,1.007 4.1346,3.4521 5.6388,5.0656 1.7075,1.8317 4.8476,4.7614 6.477,2.4162 z m -16.3391,-1.3726 c 3.1518,-1.4361 3.402,-2.9112 0.4935,-2.9112 -2.6098,0 -6.0841,1.777 -6.0841,3.1118 0,1.3338 2.413,1.2472 5.5906,-0.2005 z m 11.8747,-18.8209 c 3.6742,-1.9002 5.0265,-6.1231 2.7039,-8.4456 -1.3906,-1.3905 -2.2323,-1.4451 -5.8013,-0.3758 -4.8993,1.4679 -4.5816,2.6721 1.1584,4.3918 3.7771,1.1316 3.9922,1.3716 2.324,2.5914 -1.011,0.7393 -2.7478,1.3442 -3.8591,1.3442 -3.0282,0 -10.4855,-4.7185 -12.9688,-8.2058 -1.4031,-1.9705 -3.0811,-3.0718 -4.6804,-3.0718 -2.1386,0 -2.4932,0.4827 -2.4932,3.3924 0,1.8658 0.5766,4.1636 1.2813,5.1062 3.1637,4.231 16.6585,6.2085 22.3352,3.273 z m 17.2452,19.5388 c -3.3282,-1.8787 -5.2398,-6.6395 -3.5737,-8.8997 1.7047,-2.3123 5.2433,-3.9561 8.5238,-3.9592 2.2662,0 3.3273,-0.8105 4.9373,-3.7616 5.7214,-10.4881 18.5902,-10.957 18.3205,-0.6676 -0.1482,5.6879 -3.8135,12.1637 -8.7205,15.4111 -5.1254,3.3917 -15.102,4.3526 -19.4874,1.877 z m 14.2446,-5.1298 c 2.9256,-1.4502 5.3822,-2.6651 5.3822,-2.8598 0,-0.1947 -1.6385,-0.1627 -3.6414,0.071 -2.0026,0.234 -5.5854,-0.1191 -7.9615,-0.7844 -4.8838,-1.3674 -9.9269,-0.1308 -9.9269,2.4343 0,4.1673 8.3949,4.9818 15.7051,1.3582 0.1475,-0.073 0.4425,-0.2193 0.4425,-0.2193 z m 3.3886,-7.7567 c 1.0849,-0.5806 2.6812,-2.4261 3.5473,-4.101 1.5112,-2.9226 1.4856,-3.0453 -0.6373,-3.0453 -2.8109,0 -8.8214,3.6816 -10.1923,6.2431 -0.9273,1.7325 -0.6812,1.9588 2.1308,1.9588 1.7487,0 4.0666,-0.4751 5.1515,-1.0556 z m -49.2678,-27.6976 c 0,-4.1014 4.0146,-8.1553 8.0766,-8.1553 3.327,0 9.3523,4.3655 9.3523,6.7761 0,1.1716 -0.8189,1.0498 -4.0602,-0.6038 -5.8382,-2.9784 -7.9586,-2.67 -10.4291,1.517 -1.1642,1.9736 -2.3023,3.5883 -2.5284,3.5883 -0.2266,0 -0.4112,-1.405 -0.4112,-3.1223 z m 20.0936,-16.1926 c -0.6859,-1.1099 5.9428,-22.2758 7.6028,-24.2759 0.6937,-0.8357 2.803,-1.5195 4.688,-1.5195 8.7923,0 6.2846,13.801 -2.9422,16.1919 -2.5054,0.6493 -3.3924,1.5915 -4.1085,4.3646 -1.3272,5.1411 -3.7829,7.5963 -5.2401,5.2389 z m 12.1978,-17.5832 c 0.3566,-1.1233 0.3606,-2.5079 0,-3.0768 -1.0529,-1.7036 -3.5932,-1.1688 -3.608,0.7597 0,0.9868 -0.306,2.8846 -0.6626,4.2173 -0.588,2.1957 -0.4487,2.3161 1.4824,1.2826 1.1721,-0.6272 2.4226,-2.0595 2.7792,-3.1828 z m -47.5639,8.6685 c -2.4427,-2.782 -3.1817,-4.5921 -3.1817,-7.7906 0,-8.0122 6.5985,-16.7147 12.1807,-16.0647 3.8222,0.4451 3.9355,3.3472 0.215,5.5442 -1.703,1.0061 -4.1285,3.7745 -5.3898,6.1521 -1.941,3.659 -2.1075,4.7306 -1.084,6.9773 0.9128,2.0031 1.9695,2.6543 4.3073,2.6543 3.556,0 4.0712,1.8768 1.2226,4.4547 -2.8036,2.5372 -4.7493,2.0838 -8.2713,-1.9273 z m 13.4782,0.8473 c -2.254,-0.8264 -1.673,-4.5642 3.91,-25.1609 1.6042,-5.9187 5.1151,-5.0583 3.5457,2.527 -1.2609,6.0943 -0.3814,7.0462 1.4765,6.4561 1.1063,-0.3512 3.0061,-0.1064 4.2215,0.5442 1.9268,1.0312 2.1474,1.8366 1.7199,6.2848 -0.5063,5.2687 -2.7746,8.8117 -4.8284,7.5424 -0.782,-0.4833 -0.8052,-2.29 -0.4609,-5.4722 0.3806,-3.5179 0.7943,-4.8469 -1.7449,-3.1297 -1.3402,0.9064 -3.0584,3.4129 -3.7937,5.6072 -1.5397,4.5952 -2.2639,5.4545 -4.0457,4.8011 z m 16.2432,-0.6961 c -1.7039,-2.0529 3.225,-12.3328 5.0568,-13.9562 3.4996,-3.1014 1.3402,8.2394 0.052,11.5836 -1.1545,2.9972 -3.6281,4.1569 -5.1088,2.3726 z m 23.0617,0.079 c -2.8289,-2.0709 -1.4211,-4.8075 2.4734,-4.8075 4.0495,0 4.8935,-2.2574 2.1486,-5.7469 -2.6801,-3.4073 -2.7004,-4.9787 -0.099,-7.5811 2.5859,-2.5857 6.7809,-2.6553 8.1297,-0.1349 1.2508,2.3371 0.5028,3.3648 -2.7362,3.2105 -2.5747,-0.1226 -2.1994,0.3398 -0.3417,2.7014 2.7527,3.4996 2.6928,6.801 -0.1831,10.0183 -2.903,3.2489 -6.8194,4.2246 -9.3937,2.3402 z m -17.4251,-20.0349 c -1.1465,-1.8549 0.6259,-4.3681 2.8564,-4.0499 2.9829,0.4256 2.9553,4.3004 -0.035,4.7264 -1.2154,0.1732 -2.4857,-0.1311 -2.8228,-0.6765 z" fill="#00B894" transform="translate(37.251612,103.59456) translate(-7086.7889,-1450.5699)"/>
</svg>