<?xml version="1.0" ?><svg height="92.20372mm" viewBox="0 0 124.99587 92.20372" width="124.99587mm" xmlns="http://www.w3.org/2000/svg">
    <path d="m 6194.1055,727.38077 c -4.2542,-13.38048 -6.9411,-28.05062 7.434,-35.78873 14.3751,-7.73811 54.769,-15.03288 64.3972,-16.64499 9.6282,-1.61211 33.0944,-5.64237 37.8412,-4.99753 4.7469,0.64484 4.0752,9.55172 0.806,15.35531 -3.269,5.80358 -24.9439,39.25474 -27.8546,43.0835 -2.9109,3.82876 -24.6753,25.26977 -37.483,27.97003 -12.8076,2.70029 -26.6006,-1.97482 -33.7658,-10.80111 -7.1655,-8.82626 -11.375,-18.17648 -11.375,-18.17648 z" fill="#FFFFFF" paint-order="markers stroke fill" transform="translate(115.35384,76.305249) translate(-6301.9467,-743.95551)"/>
    <path d="m 6215.0125,756.90054 c -17.876,-7.56936 -32.2151,-33.11923 -27.5193,-49.03433 2.9814,-10.1043 12.7001,-19.71763 23.5634,-23.30779 15.6796,-5.18184 40.3384,-10.24515 59.3943,-12.19567 8.056,-0.8246 18.3271,-2.3335 22.8246,-3.35309 9.9519,-2.25618 13.7528,-1.79019 16.6964,2.047 1.9664,2.56339 2.035,3.19452 0.7672,7.0474 -1.5476,4.70408 -19.2038,34.49663 -25.1676,42.46766 -16.0083,21.39564 -25.924,30.29039 -39.4709,35.40641 -12.9016,4.87247 -21.1793,5.11804 -31.0881,0.92241 z m 25.2604,-4.45356 c 11.4328,-3.66197 21.9831,-10.9169 29.5086,-20.29163 3.3092,-4.12225 8.3433,-10.20253 11.1869,-13.5117 4.7931,-5.5778 11.5111,-15.71511 13.8858,-20.95303 0.555,-1.22448 -1.2088,0.84911 -3.9197,4.60795 -10.3427,14.34132 -34.3654,36.68175 -45.7936,42.58659 -6.1553,3.18046 -18.4605,5.67089 -25.0766,6.06022 -9.2948,0.54697 -0.169,2.7441 4.7315,3.41825 2.3515,0.32349 8.1067,0.44422 15.4771,-1.91663 z m -6.322,-11.03325 c 8.8959,-2.54743 9.8862,-3.11851 21.8094,-12.5779 14.252,-11.30718 25.7228,-22.57229 33.6386,-33.03559 5.9698,-7.89088 13.5545,-19.93483 13.926,-22.11362 0.3193,-1.86974 -2.0262,-2.12346 -9.1816,-0.99329 -4.3629,0.68909 -5.9703,1.35091 -5.7655,2.37404 0.3195,1.5994 -0.7399,1.63068 -2.4685,0.0729 -0.6855,-0.61789 -2.3442,-0.84544 -4.061,-0.55711 l -2.9018,0.4874 2.183,2.03215 c 2.4761,2.30479 4.6682,6.42731 3.7597,7.07077 -0.3327,0.23565 -2.1431,-1.43056 -4.0232,-3.70267 -3.7232,-4.49953 -5.7687,-5.03812 -12.674,-3.33722 l -3.4994,0.86201 2.7804,0.57381 c 6.5702,1.35603 15.8232,11.56076 14.912,16.44652 -0.3158,1.69533 -0.548,1.54935 -1.9458,-1.22432 -3.8108,-7.56239 -7.7691,-11.08622 -15.3876,-13.69883 -5.9628,-2.04493 -10.0666,-1.77647 -27.1193,1.77404 -15.2737,3.18003 -25.5261,6.81 -33.0001,11.68405 -8.4013,5.47882 -11.7253,10.14189 -12.0266,16.8719 -0.4622,10.32635 4.5148,21.19902 12.6183,27.56555 8.2541,6.48482 14.9329,7.28964 28.427,3.42553 z m -7.7463,-5.14288 c -0.3182,-0.45344 -0.4332,-1.6775 -0.2547,-2.72008 0.2332,-1.37209 0.5571,-1.56595 1.1691,-0.70188 0.4652,0.65652 0.5802,1.88057 0.2547,2.72006 -0.3246,0.83951 -0.8509,1.15537 -1.1694,0.7019 z m 10.4277,-3.66326 c -1.3242,-4.48365 -1.5833,-9.57842 1.8048,-1.70496 1.6935,3.93544 2.0275,6.43652 0.3654,6.15285 -0.5024,-0.0858 -1.4788,-2.08726 -2.1702,-4.44789 z m 4.472,-4.92523 c -0.5322,-2.28527 -0.6818,-4.35718 -0.3319,-4.60416 1.0193,-0.71968 4.2762,5.37284 3.9366,7.36338 -0.5362,3.14214 -2.5975,1.56426 -3.6047,-2.75922 z m 8.3195,-5.63882 c -1.0597,-4.59266 -0.3528,-5.23805 1.6656,-1.52106 1.7254,3.17722 1.7731,4.14807 0.2333,4.7707 -0.5788,0.2343 -1.4338,-1.22813 -1.9002,-3.24964 z m 11.4572,-4.40639 c -0.099,-0.72057 0.6163,-2.53608 -0.7464,-5.90484 -1.6678,-4.12325 -0.4962,-4.62316 2.2637,-0.81027 1.8431,2.54632 1.7795,7.48647 -0.1019,7.8116 -0.6793,0.11743 -1.3168,-0.37593 -1.4171,-1.09649 z m 8.4587,-9.56352 c -0.6177,-0.87195 0.4726,-2.18407 1.6484,-1.98347 0.4823,0.0823 0.7697,0.77901 0.6386,1.54812 -0.2466,1.44166 -1.4163,1.66441 -2.287,0.43535 z m 32.9772,-24.64002 c -0.1715,-0.79447 -0.4292,-0.61129 -0.6592,0.46712 -0.2091,0.97596 -0.08,1.56409 0.281,1.30718 0.3624,-0.25682 0.5329,-1.05537 0.3785,-1.77427 z" fill="#00B894" transform="translate(115.35384,76.305249) translate(-6301.9467,-743.95551)"/>
</svg>