<?xml version="1.0" ?><svg height="86.527702mm" viewBox="0 0 96.123489 86.527702" width="96.123489mm" xmlns="http://www.w3.org/2000/svg">
    <path d="m -14329.771,13000.203 c 22.967,-53.164 39.535,-116.406 109.121,-145.919 69.586,-29.513 160.768,-10.078 178.364,13.162 17.597,23.24 21.71,43.498 5.713,49.874 -15.997,6.376 -58.959,40.722 -58.959,40.722 0,0 69.586,32.392 82.955,49.359 13.368,16.968 19.081,56.661 -21.825,90.082 -40.906,33.42 -102.494,47.714 -165.909,34.448 -63.416,-13.265 -97.467,-37.328 -106.493,-58.306 -9.027,-20.977 -14.512,-44.732 -14.512,-44.732 0,0 -19.196,-13.368 -8.455,-28.69 z" fill="#FFFFFF" transform="translate(56.832245,-81.516017) matrix(0.26458333,0,0,0.26458333,3739.73,-3311.8156)"/>
    <path d="m -14227.298,13141.667 c -55.769,-18.348 -97.358,-61.194 -97.358,-91.691 0,-14.065 -1.802,-16.644 -11.409,-16.304 -9.673,0.341 -11.654,-2.584 -13.02,-19.209 -2.993,-36.451 47.521,-126.931 95.554,-156.826 51.669,-38.035 149.756,-41.001 195.938,-17.386 14.4,7.432 31.275,20.668 37.506,29.419 13.38,18.79 16.278,50.97 4.777,53.059 -4.185,0.76 -16.466,5.169 -27.291,9.801 -24.843,10.624 -34.873,3.336 -15.921,-11.57 7.31,-5.751 16.032,-11.445 19.379,-12.647 3.853,-1.388 1.564,-6.207 -6.248,-13.144 -11.176,-9.927 -15.937,-10.638 -50.712,-7.615 -21.109,1.838 -42.282,5.348 -47.048,7.805 -4.77,2.453 -10.476,3.971 -12.681,3.366 -11.677,-3.19 -41.72,7.763 -51.202,18.671 -5.98,6.873 -25.19,19.07 -42.693,27.103 -31.501,14.457 -45.151,26.023 -61.989,52.541 l -8.687,13.681 27.035,-15.343 c 14.867,-8.439 36.159,-20.809 47.318,-27.487 27.217,-16.295 69.44,-24.837 93.108,-18.835 13.104,3.32 27.67,2.491 50.201,-2.861 32.779,-7.785 45.95,-4.947 30.265,6.524 -8.052,5.884 -6.744,7.147 12.685,12.213 30.084,7.846 60.539,26.247 69.305,41.872 17.071,30.412 -14.598,90.008 -78.765,126.392 -44.195,25.06 -114.122,22.624 -158.047,8.471 z m 42.412,-28.648 c -8.182,-9.042 -16.461,-9.273 -30.736,-0.861 -4.192,2.469 8.831,6.186 35.014,9.993 2.526,0.379 0.601,-3.744 -4.278,-9.132 z m 93.507,-0.898 c 0,-2.484 -4.564,-4.515 -10.14,-4.515 -5.58,0 -10.144,-2.282 -10.144,-5.07 0,-2.791 6.276,-5.086 13.947,-5.105 7.668,0 20.614,-3.51 28.766,-7.758 11.867,-6.189 15.639,-6.435 18.941,-1.236 3.168,4.997 12.366,-0.332 12.465,-6.186 0.08,-4.184 -0.03,-10.359 9.808,-19.921 10.132,-9.847 16.704,-20.474 15.16,-24.505 -1.502,-3.915 -2.734,-11.601 -2.734,-17.078 0,-7.063 -7.749,-13.57 -26.624,-22.356 -14.644,-6.816 -30.82,-12.419 -35.947,-12.446 -8.223,-0.03 -7.77,1.799 3.803,15.553 15.054,17.895 17.116,35.826 6.25,56.839 -18.078,34.958 -64.648,44.011 -132.761,17.398 -24.981,-9.764 -37.271,-3.953 -53.9,-15.674 -6.311,-4.449 -24.525,-38.268 -24.525,-46.635 0,-6.565 -1.879,-6.531 -15.035,0.265 -12.486,6.459 -14.35,9.707 -10.98,19.147 2.228,6.257 11.52,15.199 20.649,19.873 9.124,4.675 21.69,13.289 27.916,19.138 14.267,13.404 41.956,21.658 52.936,15.777 5.664,-3.027 12.027,-1.376 20.201,5.242 8.146,6.599 19.903,9.664 37.068,9.664 21.897,0 24.764,1.175 22.242,9.124 -2.487,7.839 -0.388,8.836 14.871,7.052 9.772,-1.141 17.767,-4.104 17.767,-6.591 z m -175.659,-22.265 c -1.604,-4.185 -7.807,-7.524 -13.786,-7.425 -10.304,0.152 -10.209,0.556 1.81,7.425 15.886,9.082 15.461,9.082 11.976,0 z m 164.507,-27.161 c 3.77,-2.388 -9.79,-3.986 -31.66,-3.724 -21.036,0.267 -38.27,2.168 -38.289,4.261 -0.03,5.172 61.695,4.701 69.949,-0.537 z m -120.698,-21.014 c -12.087,-9.456 -25.358,-13.309 -25.358,-7.363 0,2.575 29.785,17.001 35.498,17.192 1.395,0.03 -3.168,-4.375 -10.14,-9.829 z m 141.993,-12.44 c 0,-7.604 -5.055,-15.991 -12.996,-21.555 -7.146,-5.013 -19.804,-14.541 -28.126,-21.17 -8.528,-6.797 -24.67,-13.137 -36.973,-14.525 -23.529,-2.652 -70.018,8.595 -86.719,20.98 -9.067,6.721 -9.329,8.348 -2.468,15.319 16.564,16.846 76.377,33 122.908,33.2 43.777,0.191 44.374,0 44.374,-12.249 z m -149.6,-111.475 c 2.787,-1.138 -5.69,-2.249 -18.838,-2.465 -18.546,-0.305 -25.065,1.756 -29.059,9.211 -4.948,9.246 -4.226,9.342 18.839,2.465 13.194,-3.929 26.266,-8.079 29.058,-9.211 z m 15.302,-18.227 c 1.772,-2.867 10.466,-8.562 19.317,-12.653 16.04,-7.417 15.997,-7.436 -13.369,-5.756 -21.923,1.26 -32.269,4.496 -40.427,12.658 l -10.969,10.969 h 21.113 c 11.612,0 22.562,-2.346 24.335,-5.218 z m 70.61,-22.836 c 5.413,-4.096 14.54,-7.527 20.284,-7.625 9.547,-0.153 9.353,-0.804 -2.236,-7.429 -13.453,-7.69 -39.883,-8.975 -60.856,-2.959 -12.232,3.511 -12.011,3.864 6.341,10.034 10.46,3.514 19.017,8.496 19.017,11.068 0,6.622 6.025,5.553 17.45,-3.089 z m 78.48,-10.695 c 4.23,-3.648 -3.803,-7.394 -22.28,-10.391 -18.208,-2.956 -18.645,-2.681 -12.198,7.642 5.028,8.052 9.87,9.945 19.527,7.64 7.06,-1.688 13.787,-3.887 14.951,-4.891 z" fill="#00B894" transform="translate(56.832245,-81.516017) matrix(0.26458333,0,0,0.26458333,3739.73,-3311.8156)"/>
</svg>