<?xml version="1.0" ?><svg height="86.500488mm" viewBox="0 0 103.27178 86.500488" width="103.27178mm" xmlns="http://www.w3.org/2000/svg">
    <path d="m -7047.1814,8160.2077 c 26.9576,-3.22 68.6077,-14.833 82.9809,-3.047 14.3731,11.785 17.5033,23.686 5.2382,45.532 -12.2651,21.846 -17.2478,40.243 -18.7171,78.187 -1.4692,37.943 -33.4734,97.906 -85.1528,123.891 -51.6794,25.986 -138.6209,15.58 -179.3768,29.608 -40.7558,14.027 -58.0036,8.566 -71.5463,-10.061 -13.5426,-18.627 -13.8883,-26.9002 16.1618,-72.6681 17.9842,-27.3908 17.134,-65.8522 19.9947,-101.9299 3.15,-39.726 72.2503,-111.2528 146.606,-104.402 58.2956,5.3711 83.8114,14.89 83.8114,14.89 z" fill="#FFFFFF" transform="translate(107.57639,5.4525891) matrix(0.26458333,0,0,0.26458333,1832.3467,-2157.5471)"/>
    <path d="m -6953.0998,8211.2371 c -15.1762,18.6852 -16.0167,26.7765 -16.1323,48.0069 -0.089,56.5319 -11.869,84.5093 -52.8133,125.3969 -46.7465,46.6813 -86.66,60.787 -172.0066,60.787 -37.8047,0 -48.7535,1.3908 -62.2107,7.8917 -26.1343,12.626 -38.6535,10.028 -63.071,-13.0848 -26.5116,-27.6775 -5.3492,-64.4313 8.8769,-80.8963 20.8736,-23.9247 21.699,-37.9334 21.699,-67.9005 0,-63.7725 16.3538,-97.5437 60.8451,-125.6424 45.8327,-28.9451 109.451,-39.633 155.1526,-26.063 24.4238,7.2555 41.5871,8.1403 78.1484,4.0391 20.2006,-3.9048 26.0445,-5.2573 38.4664,9.5103 13.0284,15.4785 23.2823,27.8737 3.0455,57.9551 z m -39.7486,-52.3929 c -48.7176,12.196 -61.2836,12.328 -81.6209,3.5071 -38.5505,-16.7303 -86.7058,-9.9601 -136.2483,19.1508 -31.0481,18.2452 -42.6574,32.2826 -53.4865,64.6868 -9.9887,40.5576 -9.363,98.552 -32.4455,121.8432 -27.2782,27.5249 -21.1963,48.1815 -1.9803,60.63 24.0128,15.7982 26.3819,3.5386 43.0188,-4.4829 9.8798,-4.69 25.134,-6.3678 57.8684,-6.3678 56.3373,0 89.7971,-5.6635 121.4319,-20.5474 28.0254,-13.1912 66.7235,-49.0071 78.8585,-72.9898 8.8654,-17.5203 16.4314,-50.531 16.4314,-71.682 0,-8.1995 1.1534,-28.5697 9.4623,-41.9705 21.473,-34.6323 8.5835,-59.2561 -21.2898,-51.7775 z m -11.8454,85.371 c -2.1687,0 -3.944,-1.7754 -3.944,-3.9443 0,-2.169 1.7753,-3.9444 3.944,-3.9444 2.1699,0 3.9452,1.7754 3.9452,3.9444 0,2.1689 -1.7753,3.9443 -3.9452,3.9443 z m -18.4105,103.8938 c -4.8056,4.8054 -13.1531,2.7194 -13.1531,-3.2874 0,-3.2876 3.5101,-5.918 7.8919,-5.918 7.8587,0 10.2615,4.2047 5.2612,9.2054 z m -5.2612,-28.9302 c -2.1686,0 -3.944,-1.7754 -3.944,-3.9473 0,-2.169 1.7754,-3.9444 3.944,-3.9444 2.1686,0 3.944,1.7754 3.944,3.9444 0,2.1719 -1.7754,3.9473 -3.944,3.9473 z m -33.5349,39.4524 c -3.2542,0 -5.9179,-2.663 -5.9179,-5.918 0,-3.2549 2.6637,-5.9179 5.9179,-5.9179 3.2555,0 5.9179,2.663 5.9179,5.9179 0,3.255 -2.6624,5.918 -5.9179,5.918 z m -19.7277,27.6165 c -7.8205,0 -10.1075,-1.731 -9.1097,-6.9034 0.7305,-3.7963 4.8285,-6.9033 9.1097,-6.9033 4.2826,0 8.3806,3.107 9.1136,6.9033 0.9953,5.1724 -1.293,6.9034 -9.1136,6.9034 z m 5.918,-65.0983 c -2.1687,-1.3404 -3.9441,-3.2193 -3.9441,-4.178 0,-0.9558 1.7754,-1.7399 3.9441,-1.7399 2.1699,0 3.9452,1.8819 3.9452,4.1781 0,2.2992 -1.7753,3.0803 -3.9452,1.7398 z m -45.1391,61.1539 c -3.3828,0 -6.1496,-1.7754 -6.1496,-3.9443 0,-2.1719 1.6698,-3.9474 3.7111,-3.9474 2.0414,0 4.812,1.7755 6.1521,3.9474 1.3401,2.1689 -0.3283,3.9443 -3.7136,3.9443 z m -41.3847,17.5854 c -4.7229,2.9176 -9.3974,-4.5036 -6.1521,-9.7587 2.7286,-4.412 9.8237,-1.5152 9.8237,4.0094 0,1.9145 -1.6532,4.5007 -3.6716,5.7493 z m -33.5196,2.1424 c -3.6602,0 -6.2081,-3.3734 -6.2081,-8.2202 0,-9.6168 9.2205,-8.2557 11.1409,1.6423 0.7547,3.891 -1.2574,6.5779 -4.9328,6.5779 z m -7.9479,-201.2127 c -3.3827,0 -6.1495,-1.7754 -6.1495,-3.9473 0,-2.1689 1.6697,-3.9444 3.7111,-3.9444 2.0414,0 4.812,1.7755 6.1521,3.9444 1.3401,2.1719 -0.3284,3.9473 -3.7137,3.9473 z m -29.8212,33.5345 c -2.1712,1.3404 -3.9478,-0.435 -3.9478,-3.9444 0,-3.5123 1.7766,-5.2877 3.9478,-3.9473 2.1686,1.3404 3.944,3.1159 3.944,3.9473 0,0.8285 -1.7754,2.6039 -3.944,3.9444 z m -15.7837,37.4818 c -2.1686,0 -3.944,-2.6632 -3.944,-5.918 0,-3.255 1.7754,-5.9181 3.944,-5.9181 2.1725,0 3.9479,2.6631 3.9479,5.9181 0,3.2548 -1.7754,5.918 -3.9479,5.918 z m -24.1069,148.2197 c -4.728,2.9205 -23.6386,-17.5884 -21.8517,-23.6957 2.1062,-7.2023 10.063,-6.5514 18.0973,1.4794 8.9711,8.9747 10.5047,18.0441 3.7544,22.2163 z" fill="#00B894" transform="translate(107.57639,5.4525891) matrix(0.26458333,0,0,0.26458333,1832.3467,-2157.5471)"/>
</svg>