<?xml version="1.0" ?><svg height="139.85011mm" viewBox="0 0 124.07809 139.85011" width="124.07809mm" xmlns="http://www.w3.org/2000/svg">
    <path color="#000" d="m 3804.9384,8921.6143 c 112.709,-54.7044 225.446,34.496 215.131,129.8007 30.895,24.4378 43.199,48.8757 42.064,73.3136 74.185,115.2331 -65.325,250.3089 -78.119,252.3899 -184.256,82.955 -225.803,-5.663 -234.364,-52.882 -86.72,-46.1238 -128.51,-105.3978 -84.129,-189.8928 -1.871,-0.802 -104.629,-176.0161 139.417,-212.7294 z" fill="#FFFFFF" overflow="visible" paint-order="fill markers stroke" transform="translate(141.90935,-1.2925705) matrix(0.26458333,0,0,0.26458333,-1102.4108,-2351.0724)"/>
    <path d="m 3822.7184,9415.3395 c -39.617,-6.732 -58.58,-24.588 -73.358,-69.078 -7.767,-23.386 -11.49,-27.562 -32.943,-36.955 -39.104,-17.119 -53.44,-29.9778 -66.594,-59.7188 -15.522,-35.093 -16.285,-71.359 -1.961,-92.988 13.302,-20.084 13.107,-30.9884 -0.959,-53.7468 -24.941,-40.3537 -21.543,-94.2219 7.923,-125.7259 19.605,-20.9572 97.333,-58.6755 124.02,-60.1819 10.346,-0.5837 25.352,-6.2088 33.35,-12.4998 25.16,-19.7898 80.174,-17.7941 126.372,4.5858 59.629,28.8846 90.329,70.1708 90.329,121.4709 0,14.7563 3.821,22.3196 17.628,34.882 11.392,10.3667 18.697,22.6414 20.654,34.702 1.668,10.2637 6.287,22.4804 10.272,27.1484 30.074,35.2383 28.817,104.7913 -2.908,161.2811 -18.059,32.154 -68.747,85.386 -93.59,98.288 -23.219,12.059 -102.175,33.196 -121.694,32.579 -8.613,-0.274 -25.055,-2.092 -36.541,-4.043 z m 88.736,-24.813 c 52.305,-12.811 100.77,-50.69 135.744,-106.095 30.923,-48.9878 36.897,-112.5648 13.639,-145.2238 -6.436,-9.04 -13.067,-24.8442 -14.735,-35.1209 -2.008,-12.378 -7.626,-21.6031 -16.641,-27.3324 -18.842,-11.9709 -19.778,-13.9138 -23.814,-49.5952 -6.091,-53.8416 -21.942,-75.6002 -74.412,-102.1528 -28.867,-14.6091 -72.759,-14.9277 -100.593,-0.7297 -11.2,5.7151 -24.111,8.9546 -28.687,7.1988 -11.435,-4.3884 -67.389,16.6855 -100.653,37.9105 -51.271,32.7133 -61.759,74.25 -32.563,128.9642 18.956,35.5205 19.214,41.9555 2.749,68.6895 -16.501,26.79 -16.47,48.675 0.117,81.412 11.721,23.135 17.264,28.035 46.601,41.1978 35.895,16.105 46.605,28.216 51.961,58.753 9.062,51.686 51.087,64.216 141.283,42.124 z m -163.981,-253.9018 c -6.393,-13.2029 -10.879,-32.8005 -10.879,-47.5239 0,-20.6578 3.378,-29.6586 19.249,-51.2747 51.702,-70.435 159.788,-65.6269 205.935,9.1609 7.11,11.52 9.67,25.8366 9.682,54.1626 0,66.0081 -62.331,104.8411 -104.352,104.1241 -56.678,1.33 -91.695,-14.236 -119.635,-68.649 z m 136.746,41.625 c 9.239,-3.883 26.777,-17.924 38.979,-31.202 19.081,-20.7642 22.185,-27.3559 22.185,-47.1097 -7.735,-65.8286 -31.795,-88.6837 -79.751,-89.1703 -33.495,-0.2819 -40.306,1.4293 -61.18,15.3764 -29.842,19.9394 -48.825,54.6499 -44.233,80.869 9.869,56.3236 73.081,92.6366 124,71.2366 z m -103.639,-93.8455 c -3.347,-8.7197 16.019,-45.2467 23.99,-45.2467 10.663,0 9.559,11.1003 -2.94,29.518 -17.46,25.7278 -17.268,25.5853 -21.05,15.7287 z" fill="#00B894" transform="translate(141.90935,-1.2925705) matrix(0.26458333,0,0,0.26458333,-1102.4108,-2351.0724)"/>
</svg>