<?xml version="1.0" ?><svg height="153.22368mm" viewBox="0 0 206.91043 153.22368" width="206.91043mm" xmlns="http://www.w3.org/2000/svg">
    <path d="m 590.18359,787.45508 c -19.7193,0.18741 -44.57121,1.38848 -58.24414,3.00195 -21.87668,2.58156 -84.43164,16.08008 -84.43164,16.08008 -7.72732,7.93212 -6.50195,8.01562 -6.50195,8.01562 0,0 -2.01461,12.78163 -1.80664,21.79883 l -0.14258,-0.21289 c 0,0 -1.15525,-0.78277 -4.03906,-0.78515 -1.73029,-10e-4 -4.08158,0.27738 -7.18164,1.17382 -8.26683,2.3905 -15.55864,9.07566 -6.93946,14.125 8.61918,5.04934 14.93333,11.35145 8.78125,16.27344 1.67624,7.77502 3.44793,16.88777 8.52344,25.4707 0,0 -2.97061,18.09143 0.13867,28.71485 3.10928,10.62341 25.39668,34.96577 31.61524,42.86523 6.21856,7.89947 4.26575,13.81884 10.18164,23.55078 5.91589,9.73194 16.85897,14.99016 40.35742,15.06446 23.49844,0.074 148.29935,-13.88675 162.27734,-22.0586 13.978,-8.17185 8.50391,-26.07617 8.50391,-26.07617 0,0 1.97485,-6.15335 6.7793,-7.41992 4.80446,-1.26657 10.57795,0.96061 12.93164,-4.69531 -0.13395,-13.43778 0.27174,-17.95428 2.92773,-26.39258 6.64049,-13.0827 -10.0039,-21.29297 -10.0039,-21.29297 -1.74526,-16.07001 -0.97134,-25.11558 -19.59375,-38.10547 -10.7828,-7.49583 -17.79853,-7.96283 -30.24024,-24.07422 -12.4417,-16.11139 -25.16135,-42.14417 -37.46484,-44.13476 -4.61381,-0.74647 -14.59616,-0.99917 -26.42774,-0.88672 z" fill="#FFFFFF" paint-order="markers stroke fill" transform="translate(-8.9008725,-55.571782) matrix(0.67638542,0,0,0.67638542,-270.1438,-473.0799)"/>
    <path d="m 509.42131,1007.826 c -15.37288,-2.8287 -21.14464,-5.2347 -28.36197,-11.823 -7.1158,-6.4956 -10.69163,-12.9353 -11.22425,-20.2137 -0.11392,-1.5579 -1.83134,-4.5579 -3.81631,-6.6667 -1.98495,-2.1088 -7.33344,-8.6342 -11.88554,-14.5009 -17.96201,-23.1492 -22.44584,-33.9011 -21.15491,-50.7281 0.39123,-5.0995 0.44944,-11.0719 0.12937,-13.2719 -0.32008,-2.2 -0.78153,-5.8 -1.02547,-8 -0.26552,-2.3955 -1.7157,-4.9748 -3.61497,-6.4301 -3.91579,-3.0004 -4.36574,-7.4782 -1.19623,-11.9046 3.01265,-3.64834 2.29932,-3.40396 -1.74335,-5.0309 -5.48338,-2.2068 -12.65256,-10.3552 -12.96134,-14.7316 -0.1354,-1.9192 0.75732,-4.4596 1.98383,-5.6453 3.37455,-3.2622 11.20232,-6.2575 16.35318,-6.2575 h 4.59577 l 1.68265,-10.1859 c 0.92547,-5.6021 2.70884,-11.6189 3.96306,-13.3705 6.15195,-8.5915 26.78215,-14.0448 82.05602,-21.6905 33.39659,-4.6196 46.39301,-5.7322 67.59248,-5.7862 28.57653,-0.073 29.44518,0.3318 48.38522,22.5336 3.67515,4.308 10.67899,13.2456 15.56409,19.8614 4.88508,6.6156 9.95781,12.872 11.27271,13.9029 1.31489,1.0308 3.30222,3.4253 4.41627,5.3211 1.56596,2.6646 4.60973,4.2821 13.41506,7.1288 12.43367,4.0196 16.21993,6.4022 19.6497,12.3652 3.93423,6.84 4.57366,11.0325 3.0874,20.2432 -1.07119,6.6385 -1.03464,9.1089 0.14048,9.4916 0.87372,0.2846 3.52131,2.1418 5.88355,4.1273 6.1173,5.1417 7.63263,15.3623 3.62051,24.4197 -2.17199,4.9034 -2.57044,7.7124 -1.73811,12.254 0.59392,3.2407 0.81568,7.3566 0.49276,9.1462 -0.68367,3.7892 -7.41046,7.5714 -13.46597,7.5714 -4.66841,0 -6.63855,2.9318 -6.19498,9.2187 0.33284,4.7176 -2.35583,13.8447 -5.63172,19.1177 -6.35016,10.2216 -14.95803,13.126 -48.53078,16.3751 -12.38214,1.1981 -37.04517,4.5568 -54.80675,7.4635 -24.67803,4.0385 -37.15899,5.4065 -52.92405,5.801 -11.34663,0.284 -22.14996,0.2367 -24.00743,-0.1053 z m 29.8584,-9.4246 c 9.41986,-0.7372 10.75604,-1.13 8.70237,-2.558 -3.5535,-2.4709 -2.47914,-6.2349 2.5184,-8.823 7.87884,-4.0803 13.90123,3.1396 6.32088,7.5777 -3.46139,2.0267 -3.40892,2.0481 3.08918,1.2639 9.00346,-1.0866 11.38271,-1.8684 10.33156,-3.395 -1.34725,-1.9565 2.34018,-7.3858 5.60743,-8.2564 2.08127,-0.5544 4.06732,0.3435 7.16973,3.2414 4.14319,3.8701 4.5817,3.9769 12.72643,3.098 7.27343,-0.7848 8.77494,-1.4395 10.90031,-4.7526 3.08237,-4.8049 9.99247,-5.4701 11.44308,-1.1016 0.83043,2.5008 1.5602,2.6606 8.33722,1.8243 4.08492,-0.504 8.9472,-2.0423 10.80507,-3.4183 4.92972,-3.6512 10.56912,-4.4954 12.88076,-1.9284 2.23581,2.483 8.06423,2.6919 17.74132,0.6362 12.23314,-2.5988 18.9358,-9.0582 20.13114,-19.4006 0.58602,-5.0705 -0.73207,-5.7726 -9.06084,-4.8264 -5.25006,0.5966 -6.12347,1.1587 -6.5209,4.1972 -0.85485,6.5356 -12.28174,10.5243 -18.11294,6.3226 -1.3494,-0.9724 -2.96356,-3.6534 -3.58699,-5.9576 -1.39087,-5.1408 -4.54419,-5.4839 -8.50495,-0.9256 -1.55992,1.7953 -4.53472,3.643 -6.61063,4.1062 -2.54475,0.5678 -3.96591,1.9035 -4.36228,4.1003 -1.23611,6.8508 -8.99768,9.1695 -15.20634,4.5425 -3.55592,-2.65 -3.56837,-2.65 -9.44845,0.035 -5.15366,2.3532 -6.66818,2.4953 -12.14588,1.1401 -4.66848,-1.155 -6.61534,-1.1638 -7.6647,-0.035 -0.77365,0.8324 -3.65938,1.5134 -6.41271,1.5134 -3.56201,0 -5.89975,0.9615 -8.10421,3.3334 -3.94023,4.2393 -5.5286,4.183 -18.83491,-0.6667 -13.31906,-4.8544 -16.22153,-4.9287 -26.04704,-0.6667 -12.61401,5.4716 -24.55455,3.9582 -32.17808,-4.0788 -2.44198,-2.5744 -4.52006,-5.8162 -4.61798,-7.2041 -0.0979,-1.388 -1.90578,-3.8111 -4.01745,-5.3848 -2.11167,-1.5737 -4.92988,-4.3621 -6.26269,-6.1967 l -2.42327,-3.3353 -0.48521,3.7665 c -0.63445,4.9248 3.06628,22.7135 5.62636,27.0448 7.64825,12.94 24.99766,17.6162 56.27722,15.1682 z m 48.77547,-14.6628 c -3.06954,-1.2042 -2.17322,-4.239 1.07623,-3.644 1.6716,0.3062 2.26411,0.2 1.31669,-0.2358 -2.931,-1.3487 -2.06749,-3.2371 1.48012,-3.2371 4.33536,0 6.17327,3.7644 3.02356,6.1928 -2.42523,1.8699 -3.9615,2.0757 -6.8966,0.9241 z m 46.0087,-8.0696 c 0.28513,-2.3366 8.0548,-5.4728 9.71545,-3.9216 1.64156,1.5334 -3.45609,6.2076 -6.76996,6.2076 -2.3278,0 -3.14688,-0.6357 -2.94549,-2.286 z m -55.7153,16.9527 c 1.27662,-2.3319 -0.99948,-4.3023 -2.96656,-2.5681 -0.97413,0.8586 -1.73399,2.0878 -1.68859,2.7313 0.11342,1.6075 3.75565,1.4797 4.65515,-0.1632 z M 554.8271,989.955 c -0.0517,-0.7333 -0.65866,-1.3333 -1.34871,-1.3333 -0.69005,0 -1.58314,0.6 -1.98462,1.3333 -0.40148,0.7334 0.20541,1.3334 1.34872,1.3334 1.14328,0 2.03636,-0.6 1.98461,-1.3334 z m 14.46679,-14 c 2.22901,-2.3982 4.53458,-3.3333 8.21847,-3.3333 2.81617,0 6.63498,-0.8157 8.48623,-1.8127 2.53354,-1.3642 4.62712,-1.4821 8.46585,-0.4764 4.27622,1.1203 5.97185,0.8747 10.4982,-1.5208 6.52293,-3.452 8.55927,-3.5376 13.77683,-0.5788 4.01317,2.2759 4.0212,2.2732 8.1974,-2.6666 2.29916,-2.7196 5.17664,-4.9447 6.3944,-4.9447 1.21777,0 3.68338,-1.5808 5.47914,-3.5129 6.36162,-6.8444 15.38173,-6.2154 17.39152,1.213 0.57475,2.1243 1.83358,4.1571 2.79742,4.5172 3.04444,1.1375 6.90803,-2.0742 7.07756,-5.8834 0.1444,-3.2446 0.77487,-3.7098 5.47049,-4.0364 2.91901,-0.203 6.58926,-1.0435 8.15612,-1.8676 2.12807,-1.1194 3.35135,-1.1046 4.83516,0.059 2.63147,2.0632 6.18251,0.5348 7.32417,-3.1521 0.71181,-2.2988 2.28104,-3.1212 6.97263,-3.6543 7.44883,-0.8464 9.90219,-2.8617 9.55057,-7.8454 -0.32403,-4.5926 -0.2912,-4.588 -7.12172,-0.9723 -5.98927,3.1705 -29.25521,7.6949 -39.90491,7.7603 -4.35565,0.027 -9.35025,1.231 -13.76581,3.3193 -14.09727,6.6673 -44.64876,13.9095 -70.63102,16.7428 -13.47153,1.4691 -32.98903,3.6249 -43.3722,4.7907 -14.85834,1.6682 -20.69235,1.8077 -27.39638,0.6544 -10.64486,-1.8312 -12.04152,-1.8304 -10.77602,0.013 1.7407,2.528 12.147,6.468 17.16397,6.4985 2.63633,0.016 8.19653,-1.1706 12.35599,-2.6373 9.85355,-3.4744 16.09476,-3.3663 24.99104,0.4332 3.99203,1.7049 8.80512,3.7644 10.69575,4.5764 4.88162,2.0969 5.22424,2.0307 8.66961,-1.6763 z m -28.82481,-13.9556 c 7.12875,-0.7088 23.36264,-2.25 36.07532,-3.4248 22.69348,-2.097 41.20325,-5.9644 60.72549,-12.6877 9.83238,-3.3863 9.71458,-3.2903 7.07037,-5.7603 -1.82984,-1.7092 -3.65442,-1.7184 -14.49721,-0.073 -6.82215,1.0353 -14.56028,1.8867 -17.19584,1.8919 -3.1725,0 -6.0177,1.1306 -8.41791,3.3262 -1.99429,1.8243 -6.22516,4.2243 -9.40195,5.3334 -6.72819,2.3489 -21.38669,2.6837 -23.68084,0.5408 -1.15491,-1.0788 -3.83713,-0.8995 -9.97149,0.6666 -11.22044,2.8647 -20.66205,2.7 -30.06311,-0.5242 -9.2773,-3.1819 -11.72812,-3.2566 -23.73067,-0.724 -9.87638,2.0838 -16.72407,1.3448 -22.80086,-2.461 -4.59432,-2.8772 -5.8475,-0.2877 -2.08971,4.318 3.40374,4.1719 10.16743,8.1878 16.15188,9.5902 6.28024,1.4716 26.96578,1.4657 41.82647,-0.013 z m -70.1159,-10.0548 c 1.07148,-2.7245 0.95777,-3.3229 -0.63143,-3.3229 -2.84793,0 -8.94327,-6.6007 -9.17887,-9.9399 -0.1119,-1.5861 0.59529,-4.0484 1.57153,-5.472 2.59279,-3.7805 2.0048,-8.5881 -1.05038,-8.5881 -1.36778,0 -4.22641,-1.2964 -6.35252,-2.8808 -3.41491,-2.5449 -3.83723,-3.5556 -3.62173,-8.6667 0.13417,-3.1822 -0.17437,-5.7858 -0.68563,-5.7858 -0.51125,0 -3.89881,-1.87791 -6.93099,-4.8444 -5.57426,-5.45351 -5.51739,-2.94024 -4.53832,3.6666 2.09132,14.11233 5.63335,21.4311 13.60116,31.1708 10.36524,12.6704 15.06512,18.0087 15.84449,17.9966 0.36666,0 1.25397,-1.5058 1.97269,-3.3334 z m 101.28748,-8.5217 c 10.5808,-3.7696 15.30529,-4.5988 46.65888,-8.1901 25.98095,-2.976 45.4798,-8.4351 47.77532,-13.3756 0.65646,-1.4128 0.72265,-2.5658 0.14713,-2.5619 -0.5758,0 -12.02284,1.7585 -25.43846,3.8993 -25.37158,4.0488 -36.5195,5.4136 -72.04436,8.8203 -11.65448,1.1175 -26.52127,3.0056 -33.03731,4.1956 -18.17235,3.3188 -42.52854,2.5884 -53.11237,-1.5925 -1.79929,-0.7108 -2.35426,-0.2967 -2.2166,1.6544 0.49066,6.9544 12.46023,10.2714 27.50607,7.6225 9.86365,-1.7365 17.76459,-1.0971 23.56165,1.9068 9.08931,4.7099 22.53637,3.9141 40.20005,-2.3788 z m 18.74557,2.4875 7.15352,-2.5486 -7.73257,0.7407 c -4.25292,0.4073 -9.8724,1.5485 -12.48774,2.536 l -4.75517,1.7953 5.33425,0.013 c 2.93424,0.013 8.5533,-1.1343 12.48775,-2.5359 z m -113.54665,-9.622 c -0.7145,-3.1167 -2.6035,-7.2831 -4.19777,-9.2586 -3.52525,-4.3682 -5.94234,-20.0666 -4.47669,-29.0748 0.92203,-5.6669 0.70458,-6.3701 -3.91661,-12.6666 -2.69106,-3.6667 -7.29961,-9.3138 -10.24124,-12.5491 -2.94164,-3.2355 -7.41357,-9.8355 -9.9376,-14.6667 -2.52404,-4.8313 -5.24275,-9.8261 -6.04155,-11.0994 -0.79881,-1.2735 -1.57994,-4.1235 -1.73586,-6.3334 -0.23174,-3.2845 -0.83092,-4.0141 -3.28194,-3.9961 -3.40928,0.025 -12.84857,5.2441 -13.4073,7.4133 -0.49019,1.9031 5.2462,7.335 10.73945,10.1694 4.95773,2.5581 6.30961,7.8874 3.1642,12.4738 -2.8384,4.1388 -2.10655,4.7328 4.70685,3.8204 4.05388,-0.5428 7.5613,-0.2705 9.51912,0.7392 2.75521,1.421 3.04703,2.2666 2.62338,7.6019 -0.45296,5.7045 -0.33736,5.9579 2.32369,5.094 3.34639,-1.0864 7.13439,2.7335 6.29979,6.3529 -0.29848,1.2944 0.90985,4.463 2.68517,7.0411 3.86168,5.6081 3.47585,10.256 -1.11309,13.4085 -4.20119,2.8862 -3.77883,6.6047 0.93576,8.2384 2.06721,0.7164 4.87482,3.0251 6.23912,5.1304 2.19602,3.389 2.31111,4.4398 1.00344,9.1614 -1.32317,4.7776 -1.23235,5.507 0.87159,7 1.29177,0.9166 3.74109,1.6666 5.44293,1.6666 2.89247,0 3.00954,-0.3694 1.79516,-5.6666 z m 201.83222,-2.4326 c 19.68376,-4.1054 28.55028,-9.1852 31.75229,-18.1913 2.24657,-6.3188 1.41154,-12.3843 -2.19674,-15.9568 -3.64906,-3.6129 -5.37832,-3.9317 -5.16814,-0.9527 0.28729,4.0719 -7.76729,10.6896 -17.64387,14.4966 -11.79691,4.547 -12.44581,5.0458 -13.09562,10.066 -0.60559,4.6782 -5.70326,8.3529 -15.72761,11.3374 -3.77078,1.1227 -6.83053,2.4019 -6.79942,2.8428 0.082,1.162 14.66283,-0.6768 28.87911,-3.642 z m -142.11823,-4.4716 c 10.8742,-1.7829 31.65861,-4.8386 46.18756,-6.7906 29.05294,-3.9031 49.70755,-7.0348 50.15234,-7.6042 0.158,-0.2022 0.59452,-1.6672 0.97007,-3.2554 1.08713,-4.598 -2.28373,-5.3611 -5.52863,-1.2516 -2.46572,2.79355 -2.75922,5.04189 -3.08529,0.4204 -0.30995,-4.3931 3.67747,-7.913 8.36132,-7.3811 3.12378,0.3548 3.94531,1.1583 4.5333,4.4333 0.39498,2.2 1.15009,4.3984 1.678,4.8852 1.98617,1.8318 36.37432,-5.4538 43.57933,-9.2328 6.51697,-3.4181 7.23509,-4.3033 9.15546,-11.2846 1.1461,-4.1666 1.67035,-7.9618 1.16499,-8.4339 -0.50535,-0.472 -4.64717,0.6767 -9.20404,2.5527 -4.55686,1.876 -12.59134,4.1304 -17.85438,5.0098 -7.7423,1.2936 -9.73709,2.1412 -10.44871,4.4394 -2.06715,6.6758 -9.64553,8.0616 -12.52945,2.2912 -1.3198,-2.6408 -2.2445,-3 -6.16904,-2.3959 -2.53908,0.3908 -18.00932,2.23 -34.37829,4.0871 -16.36898,1.857 -34.21702,4.0109 -39.6623,4.7864 -29.64751,4.222 -40.57169,5.3101 -56.27119,5.6053 -14.34587,0.2696 -18.06919,-0.072 -21.74102,-1.9923 -2.43686,-1.2746 -4.76045,-2.3176 -5.16353,-2.3176 -0.96328,0 -0.16807,10.533 1.0713,14.1904 0.65219,1.9247 3.95977,4.1734 10.1346,6.8902 15.10184,6.6445 17.94319,6.7926 45.04757,2.3486 z m 3.98402,-11.2249 c -1.75928,-2.9044 0.0518,-5.5376 3.80848,-5.5376 3.55094,0 4.90792,4.0204 2.09023,6.1928 -3.10637,2.3951 -4.11923,2.2825 -5.89871,-0.6552 z m 25.67651,-0.3259 c -4.7043,-1.3357 -7.10451,-4.8474 -4.85356,-7.1013 1.04044,-1.0419 1.64472,-0.9797 2.17054,0.2229 0.40079,0.9167 2.24518,1.6667 4.09865,1.6667 4.55774,0.31234 2.85825,-0.40261 0.0372,-2.6223 -3.69783,-2.78649 -3.76999,-2.61773 0.79085,-2.6664 4.03603,-0.044 8.77187,3.2866 8.98577,6.3183 0.1013,1.4357 -4.79228,5.7617 -6.24075,5.5171 -0.39156,-0.067 -2.63639,-0.6667 -4.98867,-1.3347 z m 24.92258,-3.2873 c -4.08863,-2.7289 -4.10256,-5.1188 -0.0495,-8.4943 6.18109,-5.1477 15.47233,-1.9482 12.57186,4.3291 -2.85894,6.1877 -7.28599,7.6601 -12.52235,4.1652 z m 8.10968,-4.7072 c 0.43647,-0.7973 0.0611,-2.1337 -0.83423,-2.9701 -1.79288,-1.6747 -5.53562,0.023 -6.27793,2.8481 -0.52513,1.9984 6.02336,2.1107 7.11211,0.1213 z m 10.15152,-1.4265 c -3.52812,-3.2956 -2.29015,-5.3064 2.99902,-4.8712 3.99637,0.3289 5.06783,0.9614 5.21734,3.0805 0.2231,3.162 -5.42945,4.3939 -8.21636,1.7907 z m -151.57727,-8.3147 c -0.0721,-1.0216 -1.05541,-2.2027 -2.1852,-2.6248 -1.18612,-0.4432 -2.17189,-2.4363 -2.33278,-4.7167 -0.21731,-3.0801 -0.94529,-4.0428 -3.30867,-4.375 -2.69374,-0.3788 -3.05571,-1.1291 -3.26105,-6.7595 -0.2145,-5.8819 -0.46254,-6.3333 -3.47984,-6.3333 -4.14716,0 -6.01605,5.1073 -3.72708,10.1854 2.00841,4.4556 8.03163,11.1244 12.77045,14.1391 4.42752,2.8167 5.69654,2.928 5.52417,0.4848 z m 83.79559,-2.8971 c 8.36196,-1.0118 20.2594,-2.4653 26.43878,-3.23 6.17939,-0.7646 18.67471,-2.2482 27.76739,-3.2969 37.54222,-4.3293 79.15238,-10.3268 87.11411,-12.5561 6.50624,-1.8219 8.90898,-3.2114 10.24855,-5.9263 2.42274,-4.9105 0.54099,-7.1669 -11.05894,-13.2608 -5.26049,-2.7635 -10.53781,-6.0635 -11.7274,-7.3333 -1.18959,-1.2699 -3.95503,-3.2026 -6.14541,-4.2948 -4.74502,-2.3663 -8.46944,-6.6844 -18.40139,-21.335 -7.59989,-11.2105 -16.88663,-22.6985 -24.44376,-30.238 -5.57423,-5.5612 -11.13423,-6.3161 -39.83854,-5.4093 -37.70533,1.1911 -114.42979,12.3963 -129.60004,18.9273 -6.45515,2.7791 -5.57012,6.5694 4.05987,17.3867 4.41554,4.9599 13.60062,15.8309 20.41128,24.1579 14.47083,17.6924 15.27003,20.2446 9.59555,30.6438 -5.64856,10.3518 -4.38673,15.1972 4.63938,17.8152 4.84668,1.4058 31.11529,0.3484 50.94057,-2.0504 z m -26.95025,-10.5808 c -1.94961,-1.3682 -2.24068,-2.202 -1.17543,-3.3668 1.90741,-2.0856 6.26629,-1.1162 6.96777,1.5496 0.77735,2.9542 -2.64339,4.0274 -5.79234,1.8172 z m 44.35314,-7.3314 c -0.12126,-1.7186 0.48726,-2.6639 1.50204,-2.3334 0.93822,0.3056 1.7623,1.3556 1.83129,2.3334 0.069,0.9777 -0.60694,2.0277 -1.50204,2.3333 -0.96814,0.3305 -1.71004,-0.6148 -1.83129,-2.3333 z m -30.45629,-5.4495 c -1.40388,-2.0388 1.16421,-4.3984 3.73974,-3.4361 1.18041,0.441 2.21104,1.7208 2.29027,2.8437 0.16441,2.3303 -4.51667,2.7901 -6.03001,0.5924 z m 128.75483,-9.2172 c -0.50497,-0.7333 0.0173,-1.3333 1.16057,-1.3333 1.14328,0 2.12102,0.6 2.17276,1.3333 0.0517,0.7333 -0.47052,1.3333 -1.16057,1.3333 -0.69005,0 -1.6678,-0.6 -2.17276,-1.3333 z m 12.66666,0 c -0.0517,-0.7333 0.80593,-1.3333 1.90593,-1.3333 1.1,0 2.04233,0.6 2.09407,1.3333 0.0517,0.7333 -0.80593,1.3333 -1.90593,1.3333 -1.1,0 -2.04233,-0.6 -2.09407,-1.3333 z M 566.2455,859.246 c -0.57692,-0.8378 -0.46582,-2.1507 0.24688,-2.9175 1.66544,-1.7919 5.95337,-0.2289 5.37883,1.9605 -0.58487,2.229 -4.31315,2.8632 -5.62571,0.957 z m 83.38474,-8.0738 c -1.40389,-2.0388 1.1642,-4.3984 3.73974,-3.4361 1.18042,0.4411 2.21104,1.7208 2.29026,2.8437 0.16441,2.3303 -4.51666,2.7902 -6.03,0.5924 z m -152.7953,-15.4394 c -2.2003,-2.0552 -1.10412,-4.6142 1.80088,-4.2039 3.8128,0.5387 5.32671,5.0928 1.69294,5.0928 -1.39822,0 -2.97045,-0.4 -3.49382,-0.8889 z m 106.87515,-8.0688 c -2.34806,-0.8215 -2.31886,-3.0423 0.04,-3.0423 2.2085,0 4.11156,2.1987 2.64977,3.0613 -0.5395,0.3183 -1.74989,0.3098 -2.68976,-0.019 z m -83.85468,-5.3008 c -1.60751,-1.5015 -1.13146,-3.0748 0.93042,-3.0748 1.1,0 2.03982,0.5645 2.08851,1.2546 0.11863,1.6814 -1.87853,2.8855 -3.01893,1.8202 z m -55.63663,-2.3498 c -2.19809,-2.441 -1.03535,-4.725 2.40536,-4.725 3.24619,0 5.21461,3.8413 2.79143,5.4474 -2.44494,1.6206 -3.17888,1.5186 -5.19679,-0.7224 z m 152.9147,1.0527 c -1.96492,-1.8353 -1.10539,-4.4444 1.4642,-4.4444 1.77777,0 2.72938,0.8889 2.85482,2.6667 0.18129,2.5696 -2.35411,3.6132 -4.31902,1.7777 z m -123.41639,-2.7519 c -0.93923,-0.3198 -1.77061,-1.4732 -1.8475,-2.563 -0.16345,-2.3167 5.36776,-1.9899 6.31157,0.3729 0.6938,1.7369 -1.96446,3.0411 -4.46407,2.1901 z m 111.75763,-7.142 c -1.40388,-2.0388 1.16422,-4.3984 3.73975,-3.4361 1.18041,0.4411 2.21103,1.7208 2.29026,2.8437 0.16441,2.3303 -4.51666,2.7902 -6.03001,0.5924 z m 44.67324,84.1162 c 0.40148,-0.7334 -0.20541,-1.3334 -1.34872,-1.3334 -1.14328,0 -2.03636,0.6 -1.98461,1.3334 0.0517,0.7333 0.65865,1.3333 1.34871,1.3333 0.69005,0 1.58313,-0.6 1.98462,-1.3333 z M 479.99183,875.397 c 2.02351,-3.18673 3.05231,-5.64243 1.90317,-7.05988 L 464.41814,846.7797 c -10.5136,-12.96835 -19.72556,-23.4147 -20.19299,-23.4419 -0.4674,-0.027 -1.02846,3.2344 -1.24675,7.2482 -0.36352,6.684 0.057,8.0573 5.00099,16.3333 2.96882,4.9696 7.99325,12.0357 11.16539,15.7024 3.17214,3.6667 7.91106,9.1932 10.53094,12.2813 2.61988,3.088 5.16466,5.638 5.65506,5.6667 0.49035,0.028 2.76163,-2.1814 4.66105,-5.1727 z" fill="#00B894" transform="translate(-8.9008725,-55.571782) matrix(0.67638542,0,0,0.67638542,-270.1438,-473.0799)"/>
</svg>