<?xml version="1.0" ?><svg height="223.1705mm" viewBox="0 0 245.66777 223.1705" width="245.66777mm" xmlns="http://www.w3.org/2000/svg">
    <path color="#000" d="m 6323.3645,2414.4946 c 0,62.6528 -49.8083,113.6452 -116.2372,113.6452 -66.429,0 -123.8292,-42.7853 -123.8292,-105.4382 0,-62.6529 53.5818,-113.7665 124.7725,-112.0685 66.4101,1.584 115.2939,41.2086 115.2939,103.8615 z" fill="#FFFFFF" overflow="visible" paint-order="fill markers stroke" transform="translate(-16.785022,-11.51069) translate(-6063.2362,-2296.6093)"/>
    <path d="m 6179.9058,2530.5332 c -8.8407,-1.3183 -28.1695,-7.5393 -37.7813,-12.1597 -31.6282,-15.2045 -54.1652,-41.8967 -60.3054,-71.4245 -1.8013,-8.6616 -2.0771,-12.8279 -1.5762,-23.8026 1.5257,-33.4284 11.497,-57.2221 33.6109,-80.203 8.5594,-8.8951 14.8594,-13.6014 29.6878,-22.1783 19.02,-11.0011 27.2168,-12.7977 57.6495,-12.6355 35.0546,0.1868 46.8126,2.2744 67.0486,11.9045 15.7344,7.4878 25.215,13.6593 32.1462,20.9259 17.5993,18.451 25.3477,40.7836 25.3029,72.9281 -0.012,8.3115 -0.4967,18.4015 -1.0779,22.4223 -2.8765,19.898 -15.4152,44.2744 -31.598,61.4291 -14.8405,15.7315 -26.421,22.7439 -48.3213,29.2598 -13.0992,3.8974 -13.2875,3.9198 -35.5186,4.2418 -12.2922,0.178 -25.4625,-0.1405 -29.2672,-0.7079 z m 12.2344,-13.7317 c 0.8048,0 2.0694,1.6762 2.8102,3.725 1.1688,3.2321 1.8114,3.7249 4.8581,3.7249 2.8015,0 3.5111,-0.43 3.5111,-2.1285 0,-1.1707 0.4749,-2.1286 1.0552,-2.1286 0.5805,0 1.6534,0.9579 2.3846,2.1286 1.1214,1.7957 2.4819,2.1285 8.7019,2.1285 7.5829,0 19.4521,-1.6708 21.6886,-3.0532 0.9175,-0.5669 0.3589,-2.9443 -2.0454,-8.7077 -1.8191,-4.3603 -3.4473,-8.0859 -3.6183,-8.2789 -0.1709,-0.1931 -3.8311,0.2405 -8.1337,0.9634 -5.683,0.9549 -9.3601,2.0782 -12.4423,1.2649 -5.8014,-1.304 -3.1764,-2.2122 1.4556,-2.3645 6.3164,-0.2077 16.6801,-3.2578 17.2903,-5.0885 0.2374,-0.7119 -0.8721,-2.5022 -2.4653,-3.9788 -2.1382,-1.9817 -2.4474,-2.6846 -1.1805,-2.6846 1.4125,0 1.0484,-1.5538 -2.0582,-8.7801 -3.0693,-7.1401 -10.3357,-25.7748 -12.727,-32.638 -0.4004,-1.1497 -0.8209,-1.213 -1.7677,-0.2661 -1.767,1.767 -6.6962,1.5376 -8.2925,-0.3857 -1.0331,-1.2448 -1.069,-2.2467 -0.1532,-4.2571 1.4162,-3.1078 3.3722,-3.4702 3.3722,-0.6247 0,1.1718 0.9753,2.2595 2.348,2.6184 3.2626,0.8532 3.7389,-0.03 1.8119,-3.3612 -3.1785,-5.494 -4.0093,-7.1301 -4.6493,-9.1555 -1.0604,-3.3563 -2.3078,-0.7989 -5.926,12.151 -2.9376,10.5135 -4.2763,13.4392 -9.4957,20.7531 -7.9604,11.1547 -7.7756,10.7667 -6.2724,13.1735 1.0371,1.6609 1.0179,2.4281 -0.095,3.7682 -0.7682,0.9256 -1.9366,1.6847 -2.5965,1.6868 -1.5886,0.01 -5.3115,9.1521 -4.3552,10.6997 0.7062,1.1428 2.5153,1.0172 9.2013,-0.6387 2.175,-0.5386 3.7682,-0.01 6.7008,2.2279 2.6617,2.0301 3.5064,3.2752 2.7412,4.0405 -0.7652,0.7651 -2.1181,0.3577 -4.3905,-1.3223 -2.8561,-2.1115 -3.6784,-2.265 -6.306,-1.1767 -1.6619,0.6884 -4.8291,1.09 -7.0385,0.8924 -3.7782,-0.3378 -4.203,-0.06 -7.148,4.6803 -2.2749,3.6615 -2.8266,5.4076 -2.0175,6.3856 0.6124,0.7403 1.2755,2.7512 1.4737,4.4686 0.389,3.3723 1.4746,3.9071 10.7578,5.2992 l 5.0342,0.7549 v -4.3222 c 0,-5.1273 1.5811,-5.7292 2.534,-0.9649 0.3694,1.8467 1.2673,4.0817 1.9955,4.9671 1.1146,1.355 1.3762,0.9924 1.6543,-2.2932 0.2066,-2.4416 0.8782,-3.9028 1.7936,-3.9028 z m 5.5034,-8.1593 c -0.3903,-0.3902 -0.7096,-1.6461 -0.7096,-2.791 0,-1.8107 0.2277,-1.8925 1.7499,-0.6291 1.5599,1.2945 1.6647,1.1835 0.965,-1.021 -0.6841,-2.1551 -0.4657,-2.4279 1.698,-2.1202 1.4374,0.2045 2.6484,1.2198 2.8757,2.4113 0.5806,3.0431 -4.4885,6.2406 -6.579,4.15 z m -4.2365,-9.9508 c -4.3021,-1.2913 -6.0514,-3.0573 -6.0514,-6.1086 0,-2.8426 2.0703,-10.9465 3.1061,-12.1578 0.9008,-1.0535 18.9034,2.8416 20.9381,4.5303 2.0321,1.6864 1.6304,10.4975 -0.6012,13.1863 -1.5034,1.8115 -12.075,2.1457 -17.3916,0.5498 z m 15.5083,-7.3251 c 1.1377,-4.4113 0.4828,-4.9213 -7.5271,-5.8626 -3.279,-0.3853 -6.9584,-0.9509 -8.1766,-1.2566 -2.015,-0.5057 -2.2111,-0.099 -2.173,4.506 0.038,4.4686 0.3537,5.152 2.7026,5.8296 1.4633,0.4222 5.2662,0.6853 8.4508,0.5846 5.6393,-0.1784 5.8145,-0.2774 6.7233,-3.801 z m -6.6601,-20.0395 c -0.878,-0.3342 -1.8968,-1.0678 -2.2641,-1.6302 -0.8904,-1.3634 0.1216,-5.0439 1.3867,-5.0439 0.5517,0 0.7669,0.3821 0.4783,0.8489 -0.2886,0.467 -0.085,1.5446 0.4531,2.3946 0.8111,1.2822 0.9805,1.2282 0.994,-0.3168 0.02,-2.2585 2.7427,-2.4842 3.5821,-0.2968 0.4102,3.8242 -1.3151,5.2072 -4.6301,4.0442 z m 56.01,43.1917 c 7.28,-3.115 8.4221,-3.9673 8.7147,-6.5043 0.3434,-2.9775 2.1029,-3.779 4.0408,-1.8412 0.7284,0.7283 1.9202,0.1811 3.6717,-1.6856 l 2.5934,-2.7641 -2.9883,-2.5733 c -4.8897,-4.2106 -0.5058,-6.6878 5.2088,-2.9433 3.7334,2.4461 5.7123,0.4853 3.2709,-3.2409 -2.0854,-3.1826 -0.8175,-4.3269 2.9115,-2.6279 3.854,1.7561 6.3102,-0.4038 5.3631,-4.716 -0.6415,-2.921 -0.4927,-3.1306 1.8984,-2.6735 2.211,0.4226 3.2511,-0.486 7.0344,-6.1455 2.442,-3.6529 4.4399,-7.0743 4.4399,-7.6035 0,-0.529 -1.9695,-2.0689 -4.3767,-3.4218 -4.9214,-2.766 -6.22,-2.0307 -6.2496,3.5385 -0.012,2.1255 -1.1833,4.1678 -3.817,6.6517 -3.9309,3.7073 -4.5586,3.8853 -14.2103,4.03 -5.5659,0.084 -5.8038,0.2078 -6.6647,3.4786 -0.9752,3.7051 -5.365,7.7828 -8.3783,7.7828 -1.0469,0 -5.4122,1.8639 -9.7009,4.1419 -4.2887,2.278 -9.633,4.7227 -11.876,5.4326 -4.6817,1.4818 -4.6895,2.1453 -0.1462,12.4184 l 2.6346,5.9573 4.124,-0.553 c 2.2681,-0.3043 7.894,-2.1663 12.5018,-4.1379 z m -13.7119,-8.9867 c -1.2689,-1.2691 1.3409,-4.6942 3.5767,-4.6942 1.6366,0 2.0821,0.5846 1.8251,2.3946 -0.332,2.3368 -3.8618,3.8395 -5.4018,2.2996 z m -82.7646,9.1413 c 1.5964,-3.5153 5.1132,-10.2891 6.9189,-13.3266 1.802,-3.031 1.8122,-3.5592 0.1764,-9.1864 -1.3022,-4.4791 -2.3239,-6.1241 -4.0908,-6.5861 -1.2951,-0.3388 -2.0389,-0.9319 -1.6527,-1.318 0.3862,-0.3863 1.938,-0.392 3.4485,-0.013 2.546,0.639 3.4939,1.9808 5.3323,7.5482 0.6252,1.8937 0.9234,1.7176 2.7025,-1.5963 1.1,-2.0487 2.02,-5.0419 2.0446,-6.6517 0.025,-1.6097 0.6431,-2.9459 1.3748,-2.9693 0.7318,-0.023 2.8634,-3.3759 4.7371,-7.4498 l 3.4067,-7.4072 -3.4067,-0.023 c -4.934,-0.034 -11.7673,-3.4744 -14.4873,-7.2941 -2.382,-3.3453 -3.2671,-10.3526 -1.6401,-12.9851 0.5868,-0.9496 0.3107,-1.1448 -0.9402,-0.6648 -3.8271,1.4687 -1.444,-1.0173 3.8317,-3.997 5.9894,-3.3829 8.6455,-4.4981 21.004,-8.8192 l 7.9819,-2.7908 -10.6426,-5.0577 c -5.8535,-2.7818 -11.4614,-5.0887 -12.462,-5.1266 -1.0008,-0.037 -2.984,-1.3247 -4.4072,-2.8597 -1.4234,-1.535 -4.9149,-4.1608 -7.7591,-5.8353 -5.8605,-3.4503 -5.1961,-3.8667 2.1671,-1.3578 2.845,0.9694 6.597,1.4731 8.5782,1.1516 3.7538,-0.6092 5.901,0.687 5.901,3.5623 0,1.0325 1.848,2.5865 4.4928,3.7781 2.471,1.1132 7.07,3.5753 10.2198,5.4711 4.3022,2.5895 5.5404,2.9867 4.9763,1.5964 -0.4129,-1.0178 -1.5995,-4.2452 -2.6369,-7.1719 -1.0375,-2.9268 -3.0018,-7.6011 -4.3652,-10.3875 l -2.4789,-5.0662 -2.2592,2.8332 c -2.4122,3.0253 -5.349,3.0504 -9.4095,0.081 -2.424,-1.773 -1.7896,-4.3686 2.089,-8.549 3.6147,-3.8961 4.7334,-2.7453 1.5355,1.58 -2.3705,3.2064 -2.3927,3.4061 -0.5308,4.7675 1.6236,1.1872 2.2182,1.1826 3.614,-0.028 0.919,-0.7969 2.2612,-1.6312 2.983,-1.8539 1.7462,-0.5389 -6.1176,-16.9731 -10.9516,-22.8874 -1.9735,-2.4145 -4.1419,-5.605 -4.8185,-7.0902 l -1.2303,-2.7002 -3.3306,2.031 c -4.5886,2.7979 -13.6437,2.7452 -18.2576,-0.1065 -3.9871,-2.4642 -7.3162,-8.6327 -6.6212,-12.2687 0.4378,-2.29 0.1117,-2.1772 -4.169,1.4418 -3.839,3.2454 -4.5344,4.3873 -4.0114,6.5867 0.348,1.4633 0.8818,4.4353 1.1864,6.6044 0.6128,4.365 -0.03,4.7651 -8.5993,5.351 -5.7717,0.3945 -6.8011,2.4809 -4.2657,8.6451 1.1162,2.7136 2.3095,4.9356 2.6518,4.9378 0.3424,0 4.6527,2.4591 9.5784,5.4598 4.9257,3.0008 10.6321,6.08 12.6808,6.8427 2.0487,0.7629 3.4925,2.5893 2.9072,2.6235 -2.1031,0.1228 -19.4851,-7.2517 -23.3006,-9.5161 -2.5012,-1.4843 -4.1441,-1.9137 -4.586,-1.1988 -0.3786,0.6129 -2.4844,1.1142 -4.6794,1.1142 -5.2217,0 -8.0901,2.0702 -7.117,5.1364 0.8322,2.6217 2.0362,2.761 10.4401,1.2074 10.9907,-2.0317 17.6092,3.4538 16.4608,13.643 -0.6743,5.9823 -3.3779,9.7109 -9.2,12.6883 -5.2078,2.6631 -9.1221,2.3845 -14.8507,-1.0572 -7.028,-4.2224 -9.4474,-15.8643 -4.2705,-20.5493 2.0022,-1.812 2.0005,-1.874 -0.1053,-3.836 -2.6385,-2.4581 -2.6961,-4.1822 -0.2413,-7.2137 1.3318,-1.6449 3.2312,-2.4135 6.3575,-2.5732 2.4521,-0.1252 4.697,-0.4663 4.9888,-0.758 0.2917,-0.2918 -2.1046,-1.8229 -5.3252,-3.4023 -4.2305,-2.0749 -5.9811,-2.5016 -6.3078,-1.5374 -2.9177,8.6087 -4.7666,21.5688 -4.9292,34.5505 -0.202,16.1245 0.9673,21.8562 3.9532,19.3781 1.2245,-1.0162 1.572,-2.8789 1.3126,-7.0348 -0.3622,-5.8034 0.4965,-7.5109 1.6371,-3.255 1.1361,4.2395 0.6473,10.8503 -0.9595,12.9745 -2.979,3.9387 -0.9877,12.013 3.1431,12.7444 1.2167,0.2155 5.0109,0.9066 8.4317,1.5357 5.8627,1.0784 6.565,0.9712 12.239,-1.8676 3.3107,-1.6563 7.8554,-3.3459 10.0994,-3.7546 2.8188,-0.5134 3.9085,-1.19 3.5252,-2.1887 -0.3051,-0.7952 1.0357,-5.9005 2.9797,-11.3451 3.2337,-9.0565 3.8177,-9.9727 6.8603,-10.7612 3.9202,-1.0158 7.565,0.5517 7.565,3.2535 0,3.6069 -4.4385,17.7983 -6.1629,19.7049 -1.2964,1.4333 -2.6384,1.7709 -5.1587,1.2982 -2.5374,-0.476 -4.5823,0.05 -8.0154,2.0638 -2.5348,1.4866 -7.3627,4.142 -10.7284,5.9009 -5.2803,2.7594 -6.1195,3.6159 -6.1195,6.2452 0,5.1553 5.7843,7.7905 11.0753,5.0456 3.8465,-1.9956 5.9013,-1.1976 6.658,2.5855 0.7684,3.8421 3.5519,5.1171 3.5519,1.627 0,-5.1911 6.3029,-6.5263 9.3115,-1.9725 1.423,2.1539 1.39,2.452 -0.3463,3.1182 -1.1283,0.4329 -2.0924,0.219 -2.3384,-0.519 -0.813,-2.4391 -4.0347,-1.2473 -5.2367,1.9371 -0.6628,1.756 -1.984,3.1928 -2.936,3.1928 -1.4269,0 -1.4898,0.2606 -0.3584,1.4846 0.7548,0.8166 1.7314,1.2673 2.1705,1.0014 0.439,-0.2657 0.7982,0.4377 0.7982,1.5631 0,1.683 -0.7676,2.0462 -4.3248,2.0462 -3.0557,0 -3.9926,-0.3322 -3.1928,-1.1321 1.4331,-1.4331 1.4845,-3.1782 0.068,-2.3026 -1.53,0.9456 -1.3142,-1.9777 0.2661,-3.6041 1.0726,-1.1039 0.918,-1.3276 -0.7982,-1.1545 -3.7433,0.3774 -4.0972,0.016 -2.1227,-2.1656 2.4459,-2.7026 1.3447,-3.9009 -2.1299,-2.3177 -2.1883,0.9971 -2.6652,1.9653 -2.6652,5.4125 0,4.8944 3.4755,9.7242 8.4926,11.8024 1.7679,0.7324 3.2143,1.724 3.2143,2.2038 0,3.2644 -7.3955,0.9335 -11.64,-3.6686 -1.9795,-2.1465 -2.7029,-4.3212 -3.0546,-9.1834 -0.2535,-3.5041 -0.904,-6.371 -1.4456,-6.371 -2.0297,0 -6.2093,-5.3249 -6.2093,-7.9108 0,-2.4791 -0.2051,-2.5928 -2.6606,-1.4739 -2.7292,1.2435 -3.4877,3.4266 -1.5964,4.5955 0.5853,0.3617 1.047,1.4676 1.026,2.4573 -0.029,1.3713 -0.6092,1.1024 -2.4366,-1.1294 l -2.3982,-2.9292 -4.4812,1.7603 c -2.4646,0.9681 -4.4812,2.2485 -4.4812,2.8452 0,0.5969 -0.7729,1.9393 -1.7174,2.983 -1.5905,1.7574 -1.5314,2.1345 0.7981,5.0966 2.0218,2.5706 3.0903,3.0859 5.4424,2.6245 3.1278,-0.6136 3.7601,0.4418 1.5964,2.6643 -1.0713,1.1004 -0.4568,2.1479 3.156,5.3799 11.1266,9.9542 35.6497,23.7515 41.1684,23.1621 1.1108,-0.1185 2.346,-0.9339 2.7447,-1.8119 z m -8.9398,-17.9601 c -0.3575,-0.5785 0.675,-1.2042 2.2946,-1.3903 2.1224,-0.244 2.9448,-0.933 2.9448,-2.4671 0,-1.1706 -0.5843,-2.0135 -1.2985,-1.873 -1.6701,0.3286 -3.977,-3.9198 -2.7791,-5.1177 1.1878,-1.1878 5.5917,1.0842 7.3813,3.808 2.1432,3.262 -0.2533,7.3448 -4.5585,7.7659 -1.834,0.1793 -3.6272,-0.1473 -3.9846,-0.7258 z m -9.1281,-31.9362 c 0,-2.4322 5.1864,-3.8422 6.0315,-1.64 0.8317,2.1672 -0.5601,3.6444 -3.4336,3.6444 -1.8349,0 -2.5979,-0.5887 -2.5979,-2.0044 z m -22.8214,-11.0036 c -0.9111,-1.301 -1.6567,-2.9185 -1.6567,-3.5946 0,-0.6761 -0.7184,-1.8255 -1.5964,-2.5541 -0.878,-0.7288 -1.5964,-1.9645 -1.5964,-2.7461 0,-1.9009 7.8405,-6.3879 14.0539,-8.043 4.5446,-1.2105 5.218,-1.1435 7.2819,0.7242 1.7702,1.602 2.1446,2.8568 1.6895,5.6614 -0.7412,4.5669 -3.1046,7.1691 -9.4206,10.3719 -6.1646,3.1262 -6.6843,3.1369 -8.7552,0.1803 z m 13.243,-8.2815 c 0,-0.4873 0.2907,-1.6435 0.646,-2.5694 0.9353,-2.4375 -3.9619,-2.2069 -9.1303,0.4299 -5.3201,2.714 -5.9122,3.7895 -3.8336,6.962 2.458,4.342 2.7513,1.9498 7.0095,-0.6703 2.9196,-1.7965 5.3084,-3.665 5.3084,-4.1522 z m 14.946,-45.8333 c -3.3042,-6.1993 -3.3638,-6.522 -1.4786,-8.0035 3.3403,-2.6251 8.1862,-4.994 11.9671,-5.8502 3.1323,-0.7093 4.0238,-0.4123 6.6517,2.2155 5.1169,5.117 4.028,7.5011 -6.7357,14.7455 -6.0211,4.9078 -7.588,2.131 -10.4045,-3.1073 z m 10.7693,-2.1653 c 2.8315,-1.817 5.1483,-3.5247 5.1483,-3.7948 0,-1.3599 -2.2588,-4.4306 -3.6523,-4.9653 -1.6167,-0.6204 -12.4569,2.2402 -12.0832,4.5599 1.877,11.6507 5.9096,7.19 10.5872,4.2002 z m -20.8065,-9.7804 c -2.1916,-1.6026 -2.0487,-8.2853 0.1929,-9.0215 0.992,-0.3258 1.187,0.3033 0.698,2.2521 -0.8127,3.2376 0.1,5.0735 2.1341,4.2929 2.088,-0.8012 2.9542,-3.6144 1.6112,-5.2326 -1.5911,-1.9172 0.7182,-3.196 2.7406,-1.5175 2.3006,1.9092 1.8834,5.0456 -1.0625,7.9916 -2.9947,2.9947 -3.715,3.1356 -6.3143,1.235 z m 103.321,107.1081 c 4.967,-2.3249 7.5937,-4.061 6.5329,-4.318 -2.4267,-0.5879 -15.7597,5.2239 -15.7744,6.876 -0.016,1.8027 -0.1601,1.8426 9.2415,-2.558 z m -3.6223,-4.8919 c 4.9373,-2.5844 8.1273,-3.5017 12.6171,-3.6284 3.3051,-0.094 7.0776,-0.7414 8.3835,-1.4403 1.878,-1.0051 2.553,-0.9812 3.23,0.1142 0.6131,0.992 1.2367,0.495 2.199,-1.7527 2.6168,-6.1123 3.8839,-6.8621 11.5956,-6.8621 9.17,0 12.1323,-2.0587 13.3714,-9.2922 0.4781,-2.7915 0.8931,-5.5061 0.9221,-6.0326 0.057,-1.0334 -5.2856,-3.0855 -10.8561,-4.1698 -3.0778,-0.5991 -3.4588,-0.4092 -3.4588,1.724 0,2.9504 -2.7977,7.1279 -4.7736,7.1279 -0.8029,0 -2.1762,-0.7161 -3.0515,-1.5915 -1.4125,-1.4124 -1.7348,-1.1431 -2.8653,2.3946 -1.6762,5.2456 -2.4217,5.927 -6.3621,5.8149 -5.9582,-0.1694 -8.2952,-4.7186 -4.7988,-9.3413 2.5893,-3.4235 2.0676,-4.7683 -1.3835,-3.5652 -3.6464,1.2712 -8.075,-0.1463 -9.6495,-3.0883 -0.9838,-1.8383 -0.7973,-6.049 0.4216,-9.5138 0.2574,-0.7317 0.2827,-1.3304 0.057,-1.3304 -0.2265,0 -1.1692,-0.2907 -2.0951,-0.646 -1.4074,-0.54 -1.6834,0.2993 -1.6834,5.1179 0,7.8114 -1.5798,9.7249 -8.107,9.8199 -7.6764,1.2407 -5.2499,-4.316 -5.326,-10.5667 l -0.1297,-10.6426 -8.8831,-4.4229 c -13.298,-6.621 -12.7257,-9.2255 0.8702,-3.9604 3.9643,1.5352 8.7599,2.7178 10.6565,2.6279 4.1598,-0.197 9.8547,2.5397 9.8547,4.7357 0,0.8725 1.6962,2.3951 3.7693,3.3837 3.5646,1.6998 3.9627,1.693 7.3403,-0.1259 2.5577,-1.3774 4.5839,-1.7094 7.1395,-1.1698 5.6163,1.1857 14.6206,6.7826 16.3774,10.1798 0.8785,1.6988 2.6661,3.3418 3.9725,3.6513 5.3436,1.2657 13.1341,2.8165 14.8803,2.9619 1.0244,0.085 1.8625,0.4963 1.8625,0.9133 0,0.417 2.6855,2.2947 5.9679,4.1727 6.923,3.9608 6.3369,4.3803 11.0664,-7.9226 5.7247,-14.8918 8.7093,-42.1059 4.7831,-43.6125 -0.8781,-0.337 -1.5964,-1.1065 -1.5964,-1.7103 0,-0.6037 0.7183,-1.0977 1.5964,-1.0977 1.0543,0 1.5963,-1.0546 1.5963,-3.1057 0,-4.7224 -1.0379,-6.4726 -3.8387,-6.4726 -3.0911,0 -3.3625,-1.7262 -0.4183,-2.6607 1.1707,-0.3715 2.1285,-1.6011 2.1285,-2.7324 0,-1.3472 -0.7342,-2.0568 -2.1285,-2.0568 -2.4884,0 -2.8518,-1.9177 -0.5321,-2.8079 0.878,-0.337 1.5964,-1.5704 1.5964,-2.7411 0,-1.51 -0.4927,-1.9395 -1.6953,-1.478 -0.9324,0.3578 -2.9678,0.954 -4.5231,1.3249 -4.6814,1.1163 -5.283,2.0957 -4.3258,7.0426 2.1547,11.1372 0.3181,40.2053 -2.7331,43.2566 -0.8645,0.8644 -1.7701,1.3608 -2.0127,1.1029 -0.2426,-0.2579 0.1596,-4.7902 0.8934,-10.0719 1.8074,-13.0053 0.7309,-20.6382 -3.6075,-25.5795 -1.8295,-2.0837 -3.2812,-4.9371 -3.2812,-6.4493 0,-1.7205 -0.4865,-2.534 -1.3303,-2.2246 -0.7317,0.2683 -1.1295,1.1463 -0.8841,1.9512 2.3596,7.7372 0.1043,15.618 -5.4375,18.9964 -7.083,4.3184 -18.2836,1.6697 -22.7309,-5.3754 -2.3564,-3.7326 -2.8001,-3.9724 -5.7737,-3.1196 -1.7717,0.5081 -3.2212,0.5164 -3.2212,0.018 0,-0.498 1.4367,-1.2211 3.1927,-1.6067 2.8168,-0.6187 3.1928,-1.1465 3.1928,-4.482 0,-2.9743 0.8317,-4.5651 3.8988,-7.4577 2.1442,-2.0223 5.0488,-4.1142 6.4548,-4.6488 4.2653,-1.6217 11.2361,-1.108 14.5425,1.0717 2.4624,1.6234 3.5804,1.8008 5.5873,0.8864 1.3798,-0.6287 2.5088,-1.4521 2.5088,-1.8297 0,-1.1199 -4.9766,-7.527 -7.0909,-9.1291 -1.8567,-1.4071 -1.8346,-1.4835 0.4404,-1.5157 2.2973,-0.033 10.9076,7.6031 10.9076,9.6729 0,0.5147 0.477,0.9359 1.0598,0.9359 1.3569,0 -2.1018,-9.1335 -5.9364,-15.6769 -1.6261,-2.7748 -5.0979,-7.3344 -7.7151,-10.1323 -6.8918,-7.3679 -4.6815,-7.4278 2.6739,-0.073 4.2064,4.2064 7.568,8.9782 10.3712,14.7222 2.281,4.6744 4.2839,8.6727 4.4508,8.8853 0.6867,0.8751 9.9207,-5.8271 9.9566,-7.2265 0.073,-2.8624 -8.364,-18.7007 -13.2181,-24.8131 -2.6691,-3.361 -7.4535,-8.1502 -10.632,-10.6427 -6.8307,-5.3564 -26.5336,-16.0139 -27.6119,-14.9355 -0.413,0.4129 -1.6306,2.7395 -2.7058,5.1704 -1.0753,2.4307 -4.8512,8.7268 -8.3911,13.9912 -3.5397,5.2645 -8.7947,14.0681 -11.6778,19.5636 -2.8828,5.4956 -6.1478,11.6077 -7.2553,13.5825 -1.6893,3.0121 -1.7663,3.6805 -0.4779,4.1483 0.8447,0.3066 2.6758,1.6975 4.069,3.0907 2.0457,2.0457 2.3954,3.1928 1.8175,5.9623 -1.7992,8.6215 -8.3844,14.5375 -13.8635,12.4543 -3.7393,-1.4216 -6.1626,0.6139 -5.9488,4.997 0.2694,5.5289 0.6805,9.9238 0.9284,9.9238 0.1349,0 4.4452,-2.1775 9.5784,-4.8388 5.1331,-2.6614 11.2486,-5.0942 13.5899,-5.4062 2.3415,-0.312 5.3306,-1.0868 6.6426,-1.7217 3.0539,-1.4779 7.725,0.462 7.725,3.2082 0,1.0613 -2.1038,3.9945 -4.675,6.518 -4.2302,4.1516 -5.0152,4.5152 -8.2481,3.8206 -4.943,-1.0621 -7.2979,-2.4425 -7.2979,-4.2782 0,-2.261 -1.3541,-1.9707 -9.3389,2.0022 -3.9364,1.9587 -9.6189,4.429 -12.6277,5.4896 -4.2266,1.4899 -5.8489,2.7219 -7.135,5.419 -1.4972,3.1396 -1.5012,3.8187 -0.039,6.7496 1.7899,3.5881 2.2044,3.7359 6.2087,2.2135 2.222,-0.8448 3.1533,-0.6408 4.8584,1.0643 2.8137,2.8137 2.6584,4.7247 -0.5753,7.0804 l -2.6847,1.9557 3.7591,10.6381 c 3.9662,11.2247 13.4953,34.5841 14.1079,34.5841 0.1985,0 3.3344,-1.5565 6.9689,-3.4588 z m -9.0399,-10.0363 c -4.6628,-1.2273 -2.9393,-8.226 2.3098,-9.3789 4.0125,-0.8812 5.3561,-0.049 5.3561,3.318 0,5.6035 -2.3488,7.4605 -7.6659,6.0609 z m 3.4089,-5.1294 c 0,-0.878 -0.7184,-1.5964 -1.5964,-1.5964 -0.878,0 -1.5964,0.7184 -1.5964,1.5964 0,0.878 0.7184,1.5964 1.5964,1.5964 0.878,0 1.5964,-0.7184 1.5964,-1.5964 z m 51.8557,-22.2534 c -9.7937,-4.0491 -11.2087,-6.0156 -7.0345,-9.7756 1.2379,-1.1151 2.6627,-3.105 3.1664,-4.4221 1.1227,-2.9355 5.3419,-3.1824 11.5993,-0.6787 2.9534,1.1817 4.4964,2.5451 4.9568,4.3797 0.8171,3.255 -2.746,12.4002 -4.9772,12.7752 -0.8603,0.1445 -4.3302,-0.8807 -7.7108,-2.2785 z m 7.2741,-5.0076 c 2.0616,-3.9866 1.2978,-5 -4.8009,-6.3703 -3.9992,-0.8985 -4.6722,-0.7515 -6.4788,1.4146 -1.1087,1.3295 -2.0319,2.743 -2.0514,3.1411 -0.025,0.5277 7.1578,3.2146 9.4435,4.4345 2.2369,1.194 2.9448,-0.7967 3.8876,-2.6199 z m -26.9433,-9.6232 c -2.119,-2.1189 -1.6291,-4.4183 0.8056,-3.7816 1.3834,0.3618 2.1286,0.033 2.1286,-0.9402 0,-0.8232 0.3591,-1.4894 0.7982,-1.4804 4.3129,0.088 4.5504,6.7117 0.2586,7.2132 -1.4675,0.1715 -3.2635,-0.2835 -3.991,-1.011 z m 26.209,-19.9524 c -2.4853,-2.0125 -2.4885,-2.0433 -0.4395,-4.3074 2.442,-2.6983 6.7301,-2.5555 8.453,0.2816 0.9519,1.5673 0.7005,2.3158 -1.3409,3.991 -3.1092,2.5516 -3.5616,2.5539 -6.6726,0.035 z m -45.4115,-22.6639 c -1.6698,-1.6698 -1.6382,-3.279 0.053,-2.7091 0.7317,0.2464 1.8948,-0.3123 2.5847,-1.2417 1.1346,-1.5286 1.3232,-1.5121 1.9763,0.1726 1.5406,3.9743 -1.7355,6.6569 -4.6142,3.7782 z m 4.0555,-13.0769 c -1.862,-2.2435 -0.5375,-4.8027 2.4857,-4.8027 3.1045,0 5.2325,2.2898 4.3252,4.6543 -0.8313,2.1663 -5.0598,2.2584 -6.8109,0.1484 z m 2.2528,-12.761 c -2.416,-2.6209 -4.3926,-5.6966 -4.3926,-6.8349 0,-1.1496 2.2222,-3.9689 4.9996,-6.343 4.5421,-4.384 4.6046,-4.6303 9.0493,-0.6149 2.2274,2.0122 4.2493,3.6586 4.4932,3.6586 0.2439,0 0.2983,-2.1542 0.1208,-4.7869 -0.3551,-5.267 -2.9351,-10.1128 -5.3843,-10.1128 -0.8644,0 -1.5718,-0.4789 -1.5718,-1.0642 0,-0.5854 0.9211,-1.0643 2.0468,-1.0643 2.7685,0 8.5924,5.994 8.6104,8.862 0.032,5.0789 1.3871,7.2496 5.8293,9.3377 3.9814,1.8715 6.9274,5.4679 6.9274,8.4569 0,1.8651 -2.3327,1.0418 -4.3636,-1.5401 -2.489,-3.1641 -8.9755,-5.7821 -7.995,-3.2267 0.9067,2.3625 -7.6241,10.0079 -11.1857,10.0248 -1.9523,0.01 -4.1116,-1.4191 -7.1838,-4.7522 z m 9.6788,-8.6857 c -2.1337,-2.5527 -4.1064,-4.6413 -4.3838,-4.6413 -1.1132,0 -5.4306,4.7134 -5.4306,5.9287 0,0.7153 1.6941,2.7881 3.7647,4.6061 3.24,3.2077 3.3699,3.5974 6.8471,1.0266 4.496,-2.5474 2.0305,-3.537 -0.7974,-6.9201 z M 6112.4,2468.2598 c 5.5851,-2.6989 9.9936,-5.0682 9.7967,-5.2651 -0.1969,-0.1967 -1.9363,-0.636 -3.8655,-0.9758 -3.2592,-0.5741 -3.4562,-0.4462 -2.7818,1.8061 0.5118,1.7097 -0.8757,0.7418 -4.7082,-3.2843 -3.3927,-3.5641 -5.4338,-6.6532 -5.4338,-8.2237 0,-1.3835 -1.2567,-5.7591 -2.7926,-9.7235 -2.3844,-6.1548 -2.8608,-9.3075 -3.26,-21.5757 -0.4199,-12.9039 -0.2022,-15.289 2.1374,-23.4137 1.4328,-4.9754 2.9386,-9.852 3.3463,-10.8368 0.5496,-1.3274 -0.1755,-2.2664 -2.8037,-3.6304 -1.9498,-1.0119 -2.973,-2.0332 -2.2738,-2.2695 0.6992,-0.2363 2.2967,0.1192 3.55,0.79 2.8217,1.5101 2.7671,1.5671 7.9497,-8.2977 7.6533,-14.5676 7.6995,-9.7314 0.089,9.3447 -0.4684,1.174 0.9137,2.204 5.2243,3.8933 4.4934,1.7608 5.8613,1.9618 5.8613,0.861 0,-0.7898 -0.4789,-1.7319 -1.0643,-2.0936 -0.5853,-0.3618 -1.0642,-2.2947 -1.0642,-4.2954 0,-4.3189 3.3341,-7.0646 8.1343,-6.6989 4.6598,0.3551 5.7704,-0.7285 4.4953,-4.386 -1.5276,-4.3824 -0.7602,-8.8595 1.7379,-10.1374 1.1708,-0.5989 3.3762,-2.2863 4.901,-3.7496 10.6022,-10.1749 12.6702,-11.7069 15.8028,-11.7069 3.6746,0 3.6784,-0.01 2.0312,-3.6217 l -1.2108,-2.6576 -4.0809,2.082 c -2.2444,1.145 -5.8502,3.6354 -8.0126,5.534 -2.1625,1.8988 -3.6938,2.7339 -3.4029,1.856 0.5705,-1.7214 10.3682,-10.077 12.7455,-10.8695 1.1344,-0.3781 0.8915,-1.6655 -1.1277,-5.9766 l -2.5736,-5.4947 -4.8753,2.7978 c -6.7622,3.8807 -7.1012,4.304 -5.1889,6.4807 2.2806,2.5962 3.1135,5.8453 1.9668,7.6726 -0.7947,1.2664 -1.2461,1.2896 -2.6363,0.1358 -0.9228,-0.7657 -1.6776,-1.9604 -1.6776,-2.6549 0,-0.6944 -0.6666,-2.1742 -1.4812,-3.2883 -1.2273,-1.6785 -1.7615,-1.7932 -3.1157,-0.6692 -1.4503,1.2035 -1.3403,1.79 0.9753,5.2022 2.6614,3.9219 2.8464,5.681 0.6734,6.4053 -0.6703,0.2234 -1.9085,-1.2447 -2.7516,-3.2624 -1.8104,-4.3328 -2.9035,-5.189 -4.9836,-3.9033 -1.317,0.8139 -1.2695,1.3995 0.3337,4.1136 1.0282,1.7404 1.4339,3.4336 0.9017,3.7625 -0.5322,0.329 -1.2673,-0.5959 -1.6336,-2.0553 -0.9876,-3.9349 -3.0721,-3.2637 -8.454,2.7224 -10.2927,11.448 -20.4555,28.2599 -24.4879,40.5093 -5.518,16.7629 -7.277,45.848 -3.5969,59.4771 2.112,7.8214 9.9389,24.4781 11.5023,24.4781 0.5654,0 5.5976,-2.2081 11.1828,-4.907 z m 149.5738,-2.2768 c 0.6223,-1.6097 1.393,-4.4928 1.7129,-6.407 0.486,-2.9095 0.2961,-3.3707 -1.1578,-2.8128 -1.2492,0.4794 -1.7391,0.073 -1.7391,-1.4447 0,-3.1643 2.6061,-4.7993 6.342,-3.9787 1.78,0.391 3.2364,0.513 3.2364,0.271 0,-0.2418 -2.5975,-2.2287 -5.7721,-4.4151 -4.3888,-3.0227 -6.6203,-3.8939 -9.3122,-3.6357 -3.0507,0.2926 -3.4909,0.6911 -3.1823,2.8823 0.299,2.1231 -0.01,2.4468 -1.8668,1.961 -3.0167,-0.789 -4.3484,3.9306 -1.8221,6.457 1.6031,1.6029 1.7345,1.5156 1.7345,-1.1544 0,-3.4666 2.0663,-3.9158 2.2735,-0.494 l 0.1449,2.3945 0.4611,-2.3945 c 0.5339,-2.7718 3.506,-3.276 3.506,-0.5949 0,1.6102 0.1513,1.5931 1.4346,-0.162 1.3005,-1.7785 1.4931,-1.5255 2.0608,2.7073 0.4769,3.5555 0.1348,5.4643 -1.4345,8.0036 -2.6286,4.253 -2.6041,5.7438 0.094,5.7438 1.367,0 2.5685,-1.0701 3.2862,-2.9267 z m -73.6355,-7.2784 c 7.8414,-6.5981 1.0084,-17.4657 -10.9817,-17.4657 -4.5418,0 -8.0934,3.981 -8.0934,9.0718 0,3.9757 2.3343,7.1862 6.9177,9.5142 4.6414,2.3577 8.4402,2.0076 12.1574,-1.1203 z m 83.9598,-0.5888 c -0.2315,-2.3209 -1.0662,-3.6128 -2.7281,-4.2228 -2.0908,-0.7672 -2.3946,-0.531 -2.3946,1.8616 0,1.9984 0.4321,2.5744 1.5964,2.1277 1.0859,-0.4167 1.5964,0.057 1.5964,1.4825 0,1.1522 0.5093,2.0951 1.1317,2.0951 0.6301,0 0.9838,-1.4824 0.7982,-3.3441 z m -35.5681,-3.6607 c 1.1399,-2.9707 0.6899,-10.792 -0.6843,-11.8914 -0.7317,-0.5854 -2.4079,-1.3946 -3.7249,-1.7985 -2.3371,-0.7163 -2.3946,-0.5403 -2.3946,7.3197 0.34,4.6193 -2.0741,8.0536 3.0789,8.0536 1.8258,0 3.3419,-0.6851 3.7249,-1.6834 z m 28.3169,-0.9772 c 0,-0.878 -0.4639,-1.5964 -1.0309,-1.5964 -0.567,0 -0.7552,0.7184 -0.4183,1.5964 0.337,0.878 0.8008,1.5964 1.0309,1.5964 0.23,0 0.4183,-0.7184 0.4183,-1.5964 z m -109.3236,-5.0552 c 1.8468,-1.3907 6.2651,-14.1039 5.2533,-15.1157 -0.3202,-0.3202 -1.58,-0.5816 -2.7995,-0.5808 -2.1605,0 -2.9619,1.8073 -6.7294,15.1643 -0.6217,2.2044 1.6753,2.4903 4.2756,0.5322 z m 43.3004,-11.3423 c 2.0598,-5.2256 2.0866,-5.6102 0.3395,-4.8648 -1.0434,0.4451 -4.7454,1.8768 -8.2268,3.1814 -4.9929,1.8713 -5.8754,2.5164 -4.1782,3.055 1.1831,0.3755 3.5294,2.1214 5.2139,3.8796 3.4341,3.5844 3.3407,3.656 6.8516,-5.2512 z m 15.8731,6.3897 c 1.8432,-1.1675 0.6266,-3.2955 -1.8843,-3.2955 -2.6447,0 -3.4985,1.148 -2.1035,2.8288 1.3793,1.6618 1.9884,1.7331 3.9878,0.4667 z m -85.4371,-20.7494 c 4.4013,-4.4013 4.9572,-9.9425 1.3585,-13.5412 -2.0138,-2.0138 -3.1342,-2.204 -10.282,-1.7453 -6.1459,0.3945 -8.3552,0.9706 -9.4469,2.4635 -3.0285,4.1417 -0.5491,11.923 4.7081,14.7755 5.0743,2.7533 9.6038,2.1059 13.6623,-1.9525 z m 82.734,-13.9419 c 4.337,-7.1165 4.9096,-10.1105 1.9335,-10.1105 -3.0679,0 -5.812,-3.672 -4.9135,-6.5754 1.9485,-6.2964 4.7162,-10.1985 7.6291,-10.7556 4.3987,-0.8413 6.8968,0.9205 2.6331,1.857 -2.6762,0.5878 -3.7908,1.7164 -5.4912,5.5607 -2.4144,5.458 -2.2307,6.2537 1.613,6.9885 2.2253,0.4253 3.214,-0.1883 5.337,-3.3128 1.4333,-2.1091 2.6059,-4.6324 2.6059,-5.6072 0,-2.8494 14.6928,-30.5913 20.4096,-38.5357 5.8093,-8.073 5.7193,-9.2213 -0.8923,-11.4034 -3.1511,-1.0399 -4.6577,-0.8906 -9.7593,0.9669 -3.3182,1.2081 -8.1096,2.1125 -10.6478,2.0097 -3.879,-0.157 -4.8587,-0.659 -6.1468,-3.1497 -1.75,-3.3843 -3.6219,-3.699 -7.3747,-1.2401 -2.179,1.4277 -3.1567,1.5045 -5.7067,0.4483 -2.5226,-1.045 -3.6602,-0.9732 -6.3118,0.398 -4.4294,2.2905 -4.8998,3.3673 -4.6155,10.5649 0.2821,7.1437 -0.8942,9.2154 -5.2325,9.2154 -3.3262,0 -5.2285,-2.444 -5.2285,-6.7175 0,-3.3877 -2.3218,-5.2283 -6.0551,-4.8002 -3.2333,0.3707 -3.181,0.01 -1.384,9.7254 0.5878,3.1801 0.5533,6.1621 -0.09,7.8565 -1.384,3.6401 -0.6718,5.4825 4.885,12.6387 2.5851,3.3289 5.2325,7.6663 5.8835,9.6388 1.3871,4.2028 1.4656,4.2261 4.9617,1.4762 3.4585,-2.7929 2.2437,-2.4555 5.7011,0.266 5.3485,4.2103 5.3415,8.9295 -0.018,12.0956 l -3.0154,1.7813 3.9256,7.553 c 2.1592,4.154 4.771,9.708 5.8041,12.342 l 1.8781,4.7892 1.8962,-4.7892 c 1.043,-2.634 3.6475,-7.6627 5.7878,-11.1748 z m -19.9465,-33.8499 c -1.1684,-0.8545 -1.7594,-2.3922 -1.5338,-3.991 0.3093,-2.191 0.9522,-2.6011 4.0775,-2.6011 4.3752,0 5.55,2.6769 2.6036,5.9327 -2.1956,2.426 -2.6513,2.4844 -5.1473,0.6594 z m 3.0951,-2.8746 c 0.3643,-0.5895 -0.1071,-1.3671 -1.0473,-1.7279 -2.0378,-0.782 -3.1734,0.08 -2.1939,1.6646 0.8838,1.4298 2.3785,1.4591 3.2412,0.063 z m 23.707,-4.3596 c -0.9084,-0.5083 -1.9731,-2.6371 -2.3659,-4.7306 -0.9533,-5.0819 -4.0912,-4.6965 -4.8497,0.5957 -0.4365,3.0452 -1.0327,3.7709 -3.3164,4.0358 -4.3387,0.5033 -8.3916,-4.9639 -8.3866,-11.3134 0.01,-9.6868 6.0998,-15.0841 17.0255,-15.0841 5.9454,0 15.2074,3.9461 16.3693,6.9743 1.1314,2.9482 -1.6892,7.3553 -4.9476,7.731 -2.7737,0.3198 -2.8439,0.4594 -1.3225,2.6314 1.8484,2.639 2.1163,6.7007 0.5076,7.6949 -2.4961,1.5427 -7.1706,2.3286 -8.7137,1.465 z m 4.9729,-3.4463 c 1.8677,-1.3657 1.8301,-1.6084 -0.8608,-5.5684 -2.8136,-4.1405 -3.7551,-8.9678 -1.7494,-8.9678 0.5854,0 1.0644,0.5112 1.0644,1.136 0,0.6351 0.8991,0.8506 2.0389,0.4888 1.1214,-0.3559 2.3519,-0.1409 2.7341,0.4778 0.8377,1.3552 2.6768,0.4105 2.6768,-1.3749 0,-1.8215 -9.1627,-7.1132 -12.3166,-7.1132 -4.0767,0 -9.4286,2.6208 -11.9828,5.868 -2.6205,3.3313 -3.0337,9.5819 -0.8257,12.4905 2.2938,3.0217 3.5523,2.1685 4.3163,-2.9268 0.7929,-5.2878 1.2408,-5.6674 3.4522,-2.9266 1.385,1.7164 1.4511,1.6747 0.8439,-0.5322 -0.3797,-1.3795 -0.186,-2.3946 0.4568,-2.3946 0.6136,0 1.4162,1.1973 1.7835,2.6607 0.3672,1.4634 1.0575,2.6607 1.5341,2.6607 0.4764,0 1.4195,1.6762 2.0957,3.7248 1.3608,4.1236 1.8899,4.3801 4.7386,2.2972 z m -7.5068,-9.7966 c -0.7524,-2.9977 -0.1053,-4.2611 1.6331,-3.1869 1.4251,0.8807 1.5026,5.8971 0.091,5.8971 -0.5742,0 -1.3501,-1.2195 -1.7242,-2.7102 z m -3.7049,67.1935 c 2.5256,-1.3992 2.5333,-1.447 0.4171,-2.5795 -1.826,-0.9773 -2.3385,-0.7533 -3.3485,1.4633 -1.3449,2.9514 -0.7735,3.1689 2.9314,1.1162 z m 35.3267,-6.9632 c 2.7669,-2.4158 3.309,-3.4336 2.3432,-4.3993 -0.9658,-0.9658 -2.3803,-0.5464 -6.1143,1.8125 -2.6717,1.6881 -4.8586,3.3932 -4.8596,3.7893 0,0.6107 1.6759,1.3072 4.377,1.817 0.3597,0.068 2.2738,-1.2909 4.2537,-3.0195 z m -32.7046,-0.6372 c 0.3635,-0.9472 0.185,-1.3744 -0.4183,-1.0015 -0.5787,0.3576 -1.0521,1.1009 -1.0521,1.6517 0,1.5308 0.7629,1.1935 1.4704,-0.6502 z m 69.758,-7.5381 c 3.0385,-3.8629 2.8414,-12.0955 -0.2898,-12.0955 -1.9037,0 -19.8539,7.8145 -19.8539,8.6432 0,0.4103 1.4734,1.9858 3.2744,3.5012 2.6299,2.2129 4.3954,2.7553 8.969,2.7553 4.8843,0 6.0084,-0.399 7.9003,-2.8042 z m -58.2972,-7.9241 c 2.6347,-1.41 5.4797,-7.877 4.6356,-10.5368 -0.522,-1.6447 -3.696,-3.8945 -4.1928,-2.972 -0.086,0.1601 -1.3854,1.9674 -2.8873,4.016 -3.9392,5.3738 -4.602,8.1191 -2.2853,9.4671 2.3952,1.3937 2.1759,1.3925 4.7298,0.026 z m 46.8619,-3.2049 c 9.2315,-4.6415 9.4417,-5.5516 1.5886,-6.8784 -3.6695,-0.6199 -4.5053,-0.3156 -7.7376,2.8172 -2.0571,1.9939 -3.6237,4.5722 -3.6237,5.9641 0,1.3486 0.2501,2.4519 0.5557,2.4519 0.3057,0 4.4533,-1.9596 9.217,-4.3548 z m 28.0217,-1.9535 c -0.9231,-5.4641 -2.2902,-6.3744 -3.2195,-2.1436 -0.5231,2.3819 -0.2104,3.8356 1.1485,5.3371 2.4768,2.7368 2.9497,2.0076 2.071,-3.1935 z m -107.4697,0.9494 c 1.9098,-2.1102 1.9005,-2.2259 -0.3629,-4.4893 -2.1025,-2.1025 -2.4807,-2.1658 -3.9796,-0.6669 -1.3731,1.3731 -1.4356,2.1407 -0.3655,4.4893 1.5504,3.4026 2.1548,3.4882 4.708,0.6669 z m -28.13,-28.2208 c 2.4636,-1.2738 3.0387,-2.1414 2.5146,-3.7929 -0.5308,-1.6724 -0.2514,-2.0681 1.2762,-1.8071 3.0859,0.5272 2.5549,-7.9028 -0.7171,-11.3858 -3.6112,-3.8439 -5.6447,-3.5005 -4.8033,0.8112 1.2722,4.8221 0.6562,5.3988 -2.31,-0.01 -1.2103,-2.2067 -3.7585,-3.4641 -4.7039,-3.4588 -4.6051,0.026 -11.3476,9.5613 -9.9265,14.0387 0.3957,1.2469 1.9308,3.3896 3.4111,4.7616 3.2298,2.9932 10.341,3.386 15.2589,0.8427 z m 22.8567,-19.195 c 0.045,-2.8752 0.4325,-6.2928 0.8611,-7.5946 1.0676,-3.243 6.4127,-6.8445 9.9637,-6.7135 1.6108,0.059 3.8865,0.1478 5.0572,0.1964 1.1707,0.049 3.6586,-0.5419 5.5287,-1.3124 4.0918,-1.6856 7.9039,-0.1519 9.7627,3.9278 0.8424,1.8489 2.0203,2.5437 4.3118,2.5437 1.7341,0 3.4369,-0.4596 3.7841,-1.0213 0.3471,-0.5617 3.1469,-1.8143 6.2218,-2.7835 5.498,-1.7332 5.6241,-1.8673 7.6165,-8.1029 1.7415,-5.4503 1.8106,-6.4766 0.4926,-7.3106 -2.6529,-1.6784 -4.1939,-1.0947 -4.1939,1.5887 0,3.4934 -1.8133,8.0512 -3.2032,8.0512 -0.7327,0 -0.8874,-1.807 -0.4423,-5.1629 0.8189,-6.1735 0.435,-6.4291 -10.9882,-7.3162 l -7.7158,-0.5992 v 3.4351 c 0,4.018 -2.2645,4.0081 -3.207,-0.014 -0.56,-2.3899 -1.2343,-2.6317 -9.0755,-3.2549 -4.6589,-0.3703 -11.4051,-1.0301 -14.9914,-1.4663 -9.8698,-1.2005 -28.4887,3.6046 -35.7629,9.2295 -1.7207,1.3305 -1.6509,1.7206 1.0643,5.9396 1.5982,2.4834 3.3848,4.5186 3.9701,4.5225 0.5853,0.01 3.4588,-0.9012 6.3856,-2.0113 10.1183,-3.8382 37.5731,-6.3786 38.5572,-3.5679 0.3346,0.9556 -1.1332,1.3326 -5.2104,1.3384 -15.8629,0.022 -38.1541,4.9635 -38.1197,8.4495 0.029,3.0373 1.9074,4.6933 6.701,5.9104 3.7599,0.9547 5.1555,0.914 6.6719,-0.1948 4.5226,-3.307 10.4051,-0.9113 11.7666,4.7919 1.5762,6.6037 4.0803,5.7088 4.1934,-1.4984 z m -7.9427,-9.3386 c -1.4164,-1.7068 0.1161,-3.4434 2.0073,-2.2746 0.5854,0.3617 1.0643,0.1505 1.0643,-0.4694 0,-0.6198 0.7516,-1.127 1.6705,-1.127 1.1233,0 1.559,0.7839 1.3302,2.3946 -0.4046,2.8486 -4.173,3.7649 -6.0723,1.4764 z m 77.4755,-13.5078 c -0.9006,-0.5566 -1.7729,-0.076 -2.506,1.3807 -0.6184,1.229 -1.7231,2.432 -2.4547,2.6733 -1.5756,0.5197 -1.8084,-2.5103 -0.2662,-3.4634 1.9134,-1.1826 1.1244,-2.4316 -2.2873,-3.6209 -1.8433,-0.6426 -3.5195,-1.1683 -3.7248,-1.1683 -0.2055,0 -0.3734,1.4521 -0.3734,3.2269 0,1.7748 -0.6939,4.8878 -1.5422,6.9177 -1.2632,3.0236 -1.2845,3.6908 -0.1178,3.6908 0.7832,0 2.5548,0.9193 3.9367,2.0429 l 2.5124,2.0429 4.1024,-6.4344 c 3.1186,-4.8915 3.771,-6.6392 2.7209,-7.2882 z" fill="#00B894" transform="translate(-16.785022,-11.51069) translate(-6063.2362,-2296.6093)"/>
</svg>