<?xml version="1.0" ?><svg height="131.10028mm" viewBox="0 0 91.132935 131.10028" width="91.132935mm" xmlns="http://www.w3.org/2000/svg">
    <path d="m 3325.856,-342.2369 c 1.5076,-15.6432 -1.5963,-22.906 15.0761,-28.8121 16.6725,-5.9061 108.1935,-16.8402 129.4775,-14.1267 21.284,2.7136 67.754,7.5023 70.8579,31.3661 3.104,23.8637 -11.3514,193.2242 -14.81,206.0739 -3.4587,12.8497 -28.5561,45.3331 -80.9678,39.9857 -52.4118,-5.3474 -104.5575,0.6385 -110.6767,-63.6099 -6.1192,-64.2485 -8.957,-170.877 -8.957,-170.877 z" fill="#FFFFFF" transform="translate(-20.212066,-38.898182) matrix(0.26458333,0,0,0.26458333,-841.34439,176.29589)"/>
    <path d="m 3381.4391,-30.118442 c -45.7484,-10.91353 -64.6981,-21.3221 -80.4802,-50.9034 -17.0065,-31.876598 -20.8101,-72.311098 -29.7079,-174.663698 -21.4216,-246.4059 -19.5701,-225.6615 3.6941,-236.2821 39.24,-17.9135 157.1322,-31.9332 217.9202,-25.9147 44.8693,4.4423 79.01,15.2455 92.384,29.2329 16.2873,17.0342 18.8583,45.0885 11.6839,127.4925 -10.545,121.1169 -14.4649,169.0846 -17.3725,212.5908 -3.5359,52.910498 -10.1086,76.136598 -26.2806,92.868198 -18.9728,19.6297 -41.9304,27.361724 -94.8082,30.6824 -39.7272,2.49483 -50.1451,1.311306 -77.0328,-5.1029 z m 104.394,-22.7282 c 54.6189,-10.5852 69.6226,-29.1905 71.7269,-88.943598 3.1073,-88.2293 5.9587,-139.0688 8.9637,-159.8152 4.9536,-34.1991 15.2612,-147.3897 13.5665,-148.9773 -0.8254,-0.7733 -5.4572,4.92675 -14.0361,9.66235 -29.0209,16.0191 -81.0198,22.85295 -146.5995,24.79675 -63.4851,1.8815 -95.3999,-2.6418 -128.5766,-18.2248 -12.9459,-5.50959 -15.8089,-11.90756 -15.1794,3.834 0.2466,6.1452 2.5896,22.9161 5.2096,37.2685 2.6199,14.3523 5.5169,55.9915 8.882,92.5314 10.4577,113.5557 19.8188,206.215198 27.1767,216.209398 8.7194,11.8444 45.9964,26.6483 75.0965,32.7045 34.0407,4.654285 66.2362,4.116972 93.7697,-1.046 z m -100.03,-47.551998 c -23.9891,-6.5175 -41.3118,-17.8987 -52.2011,-34.2968 -12.6722,-19.0822 -20.058,-79.6307 -19.1701,-157.1541 2.2657,-29.67846 -11.6201,-66.03221 14.0662,-83.82134 20.5965,-14.2637 62.8366,-14.22286 126.1279,-14.60196 45.7806,-0.2744 56.814,0.9135 68.8975,7.4184 18.4893,9.9525 29.2292,29.8314 30.0811,55.6769 0.7422,22.738 -6.6247,100.1375 -11.9399,125.328 -1.8875,8.9463 -3.3078,22.6228 -3.1559,30.3921 0.1505,7.7694 -2.9362,21.8628 -6.8626,31.3188 -5.8202,14.0182 -11.566,19.6126 -31.1154,30.2952 -39.4438,16.505758 -70.184,20.864415 -114.7277,9.4448 z m 105.9107,-28.1361 c 12.2165,-6.7007 23.4468,-16.2388 25.9619,-22.0498 4.3492,-10.0489 17.7862,-189.2808 14.4262,-192.4281 -0.9424,-0.8827 -8.8337,2.212 -17.5364,6.8774 -30.2594,16.2211 -111.0801,24.1653 -151.9391,14.935 -12.8867,-2.9111 -24.2496,-5.2662 -25.2505,-5.2335 -2.9612,0.097 -0.035,58.2013 6.194,122.9732 3.5475,27.34807 -3.1972,53.23915 18.9071,70.7903 38.8599,22.52456 95.8863,22.23542 129.2368,4.1355 z m 24.8013,-221.578 c 48.6333,-19.3672 -40.4785,-35.0514 -130.2944,-22.9326 -23.3916,3.156 -45.6042,7.0345 -49.3616,8.6189 -12.3522,5.2086 -4.0319,11.782 22.549,17.8148 32.487,7.3733 135.5686,5.0762 157.107,-3.5011 z m 35.316,-102.91438 c 15.159,-7.7239 28.9378,-17.97382 19.4616,-24.54412 -23.7292,-16.4517 -100.3817,-24.5853 -174.6416,-18.5312 -65.3436,5.3275 -102.8138,12.2144 -110.3975,20.2911 -5.2024,5.5407 -4.7049,7.0489 4.4703,13.5438 13.4136,9.4958 45.309,17.45873 77.8122,21.4191 47.4129,5.77705 171.116,-5.97348 183.295,-12.17868 z" fill="#00B894" transform="translate(-20.212066,-38.898182) matrix(0.26458333,0,0,0.26458333,-841.34439,176.29589)"/>
</svg>