<?xml version="1.0" ?><svg height="203.03252mm" viewBox="0 0 130.53008 203.03252" width="130.53008mm" xmlns="http://www.w3.org/2000/svg">
    <g color="#000">
        <path d="m 2845.7784,6897.6884 -1.4143,-316.1135 45.6037,-8.6661 c -18.6195,-49.5097 2.4687,-72.7223 39.316,-21.3448 l 11.682,-117.0427 35.2384,-9.119 c -36.2219,-45.6558 25.4572,-45.7064 21.0234,0.241 l 21.0312,2.0418 -1.2685,-133.7314 25.9823,-7.3831 c -7.0809,-16.6807 -25.8764,-32.8258 -2.379,-50.9047 -18.2898,-8.2301 -16.6477,-49.6863 23.4842,-19.9225 22.7821,-30.7231 37.5053,-2.4485 48.0512,18.3663 9.3929,18.5391 -10.2949,55.3814 -10.2949,55.3814 12.2233,2.0064 18.2035,85.8489 27.3053,128.7733 l 30.4814,7.5163 c 0,0 -20.853,-48.101 11.8203,-42.5575 32.6735,5.5435 -3.1857,46.5728 -3.1857,46.5728 38.7064,-5.7432 25.1953,96.348 31.4136,145.8035 l 53.1878,-4.1367 c 0,0 -47.1354,-44.4689 1.7408,-44.2279 48.8763,0.241 16.2028,48.0843 16.2028,48.0843 l 47.9389,10.3639 -24.9068,321.7667 c 0,0 -272.0998,103.0376 -448.0541,-9.7614 z" fill="#FFFFFF" overflow="visible" paint-order="fill markers stroke" transform="translate(20.670797,137.45786) matrix(0.26458333,0,0,0.26458333,-770.59216,-1775.8845)"/>
        <path d="m 3068.0464,6203.5576 c -5.7322,7.4683 -3.1355,4.8646 -6.2537,-0.5273 -8.9032,-17.1889 -33.444,-4.5424 -42.088,8.4659 -5.6412,11.7231 1.9524,17.4586 11.975,22.7857 -16.086,15.769 -7.8475,32.6573 2.7201,48.1702 -3.2272,0.4941 -6.2879,1.1704 -9.1525,2.0912 -12.5885,4.6429 -19.7398,13.4582 -17.7987,26.3602 1.9377,35.5033 -2.4071,70.8159 0.6462,105.0305 0.143,1.5154 0.691,2.9644 1.5868,4.1951 -12.3193,3.5898 6.5801,-18.3029 -10.7128,-36.0015 -36.0478,-28.05 -59.0873,16.5585 -36.3249,37.0152 -12.2493,-2.3045 -12.4241,-2.1994 -20.8896,4.3209 -9.0763,6.9906 -13.3283,18.8282 -13.0532,32.5692 0.4513,22.5352 5.0759,47.006 0.6112,83.1765 -12.0506,-24.4658 -38.5951,-41.8297 -55.467,-21.1986 -8.6299,10.9549 -7.4135,28.4765 5.7158,48.0853 -40.1411,-2.7944 -42.7343,6.1119 -44.5872,56.3481 -1.853,50.2363 0.8217,162.2541 2.7007,216.6158 3.162,50.5421 -11.1104,68.4437 36.4948,90.4532 127.0442,36.7157 271.9328,42.0849 403.6304,-9.9168 36.5923,-14.4487 26.1142,-12.3669 31.2758,-64.1542 0.5166,-87.8098 8.8404,-162.019 18.027,-246.7536 0.9359,-26.6835 4.7659,-32.8267 -31.0194,-37.7124 -3.3084,-0.7942 -7.5834,-1.4779 -12.696,-2.0783 4.1492,-4.6604 6.2166,-10.8148 5.9385,-16.6298 -0.7535,-15.7579 -13.8715,-30.2897 -33,-35.1151 -30.4417,-8.9998 -38.3071,39.2053 -18.0288,48.807 -11.8085,-0.4398 -21.6885,-0.7488 -32.0777,-1.0234 -0.017,-29.7363 -6.4388,-55.5865 -5.7889,-82.6786 0.5873,-17.759 3.5168,-30.3879 -1.1197,-41.1373 -2.3181,-5.3747 -6.9027,-9.6532 -12.4897,-12.6169 -3.9451,-2.0925 -8.5321,-3.8224 -14.1227,-5.5775 23.3188,-6.0601 17.3061,-21.7612 15.1332,-30.6291 -6.3917,-15.2267 -36.0233,-20.5196 -41.4309,-2.8827 -4.1705,17.6554 0.7919,17.208 5.2978,28.6373 -6.6913,-0.8933 -14.2907,-1.4368 -22.5589,-1.7874 -0.01,-0.2005 -0.023,-0.4007 -0.044,-0.6001 0,0 -7.5506,-69.7493 -5.7341,-102.0355 0.528,-9.3823 -0.2653,-16.6664 -3.7663,-22.7062 -2.4564,-4.2378 -6.354,-7.1433 -10.4871,-8.8745 2.0566,-2.8708 4.2877,-6.1434 6.4319,-9.6716 3.2788,-5.3952 6.3836,-11.282 8.2246,-17.4213 1.8409,-6.1392 2.7914,-13.3888 -1.5333,-19.8511 -10.2157,-14.2181 -12.6069,-9.1686 -14.4687,-23.0653 -0.4753,-3.4436 -1.2857,-7.2081 -3.2269,-10.9564 -9.9082,-15.669 -25.3823,-12.6612 -36.4889,0.4752 z m 21.4687,7.4878 c 4.2549,4.3354 1.9896,9.2961 1.7009,14.4429 -0.3391,3.7409 1.8224,7.2595 5.3125,8.648 25.4967,6.4056 13.1671,32.5647 2.8564,45.9998 l -19.6868,-2.2181 c -1.4434,-15.6158 4.2312,-28.3436 7.1681,-41.0149 0.6726,-3.0134 2.7545,-7.8775 -0.3957,-10.6177 -16.9943,-12.0401 -6.7236,-22.5384 3.0446,-15.24 z m -42.2684,1.0585 c 2.6329,11.028 5.4245,19.0266 10.7517,27.4134 5.0558,11.8837 7.7692,27.3094 8.9545,39.0904 l -20.7621,1.2734 c -6.9101,-9.3667 -9.7133,-27.2651 -2.7325,-33.4059 4.3418,-3.5038 7.8752,-8.067 6.1188,-13.8814 -2.3574,-6.9612 -10.7099,-9.1442 -15.0559,-12.4917 -2.8089,-9.0827 10.6157,-14.9203 12.7255,-7.9982 z m 19.1222,16.2579 c 1.9179,-0.7785 7.578,-1.815 7.5654,2.4311 -0.9363,3.7322 -1.7818,2.8655 -4.1709,4.1994 -1.2226,-2.2743 -2.7421,-4.3424 -3.3945,-6.6305 z m -2.1251,66.4663 c 21.7458,1.6895 43.3704,-4.0053 42.1809,19.8469 -0.8351,14.8423 2.07,43.1047 3.341,61.9392 -39.8675,-21.1558 -60.1669,26.3459 -41.0167,41.5689 -12.347,1.0299 -32.1379,0.9852 -45.0222,1.4542 0.9891,-1.5787 1.4309,-3.4391 1.2573,-5.294 -5.2514,-35.2341 -0.711,-71.2343 -5.8509,-104.9492 1.6154,-8.8552 6.5008,-17.8485 45.1106,-14.566 z m 38.0427,108.9341 c -1.235,7.3977 -6.3345,12.9755 -16.3351,10.4222 -33.2686,-17.5388 19.0458,-44.6755 16.3351,-10.4222 z m -111.7852,1.9341 c 0.042,4.3449 -0.6043,20.5134 -14.8671,9.385 -28.5283,-22.8651 13.1635,-28.5549 14.8671,-9.385 z m 185.5356,-0.02 c -3.8947,9.517 -11.2194,13.1481 -15.3927,0.2255 -8.5427,-22.2701 22.7722,-15.7899 15.3927,-0.2255 z m -64.585,6.5016 c 0.2774,2.6639 0.4681,4.5045 0.5909,5.6144 -1.7459,-0.024 -3.518,-0.038 -5.296,-0.05 1.7744,-1.7064 3.3482,-3.5753 4.7051,-5.5647 z m 53.7508,21.2917 c 31.0899,4.0889 22.6878,25.7191 21.9641,47.0567 -1.2483,37.7491 4.755,87.7328 4.755,87.7328 -8.3778,1.978 -15.7045,0.4778 -18.5711,0.5077 15.8553,-10.1799 10.5768,-28.2243 2.031,-39.0166 -15.8758,-21.6934 -44.4194,-18.6549 -50.5006,4.182 -2.8169,12.7438 -4.7335,19.683 3.4323,31.7076 -26.3544,-0.2142 -49.2526,-0.2692 -72.8109,-0.2286 22.1364,-53.3681 -40.6826,-67.9108 -59.051,-35.7137 -6.0988,12.5318 -10.4186,20.7863 -3.0724,36.0303 -35.2282,-1.3053 -51.5828,-1.0905 -51.5828,-1.0905 8.1669,-46.5493 3.3824,-84.167 0.7615,-106.7932 -1.9396,-20.6632 12.3224,-25.3484 30.8797,-23.8211 80.3752,6.6151 129.0032,-3.1662 191.7652,-0.5534 z m -123.1474,113.4159 c 0.2066,4.3218 -4.0971,12.1823 -8.2896,15.3737 -20.943,15.9422 -32.6097,-2.0267 -22.0593,-25.1373 11.4167,-20.1274 29.6187,-5.509 30.3489,9.7636 z m 121.5757,-2.9341 c 7.2562,21.5238 -7.7959,26.7247 -21.7415,11.0596 -16.6581,-29.9057 15.8316,-34.8671 21.7415,-11.0596 z m -257.8892,-12.2574 c 23.5009,20.695 -3.4686,36.7381 -13.5971,24.5043 -8.9562,-14.4851 -7.2332,-22.8197 -4.972,-25.6902 7.9856,-7.2847 15.2584,-1.8588 18.5691,1.1859 z m 366.6401,23.3832 c -1.3323,20.6051 -34.085,12.8822 -30.1852,-10.5514 1.9669,-27.1883 35.8278,-4.5567 30.1852,10.5514 z m -204.4778,27.2696 c 50.2267,0 101.1109,0.4954 142.1539,1.6567 41.0431,1.1613 73.4821,3.4065 82.0665,5.4672 21.8354,5.2455 17.6462,2.15 18.0195,21.5631 0.077,3.7972 -0.6608,16.8639 -1.8757,33.9793 -155.8869,-24.529 -312.0706,2.8555 -461.2913,-6.2937 -2.8512,-34.3581 2.6521,-53.7256 27.7381,-57.9395 12.3336,-0.5178 35.67,3.2224 54.9064,2.8297 38.4727,-0.7852 88.056,-1.2673 138.2826,-1.2628 z m 88.9659,70.1179 c -2.758,6.6914 -6.6466,13.6506 -9.7526,19.2915 -17.6412,22.3826 -25.319,54.3653 -40.1763,76.8014 -0.5017,-2.1973 -0.8837,-4.0373 -1.4837,-6.5698 -2.4851,-10.4895 -5.6927,-34.0167 -9.0982,-45.9201 -6.8952,-13.2237 -7.6587,-35.8292 -16.9482,-44.0522 25.2843,-0.1886 54.0494,-0.01 77.459,0.4492 z m -90.6153,-0.3479 c -4.8687,6.953 -8.7778,14.3362 -12.3167,20.1346 -16.531,21.9302 -25.1897,47.2529 -39.1993,70.4046 l -33.6264,-88.9267 c 30.0359,-0.7641 57.3434,-1.3333 85.1424,-1.6125 z m 109.2975,0.7952 c 45.8361,1.2859 90.9731,4.0037 131.4625,9.0272 -0.7997,10.4125 -1.6988,21.7172 -2.6655,33.6425 -0.8982,1.3424 -1.8853,2.7758 -2.9471,4.2265 -8.1377,11.0646 -17.1906,22.3245 -24.5691,31.3912 l -22.478,-66.7253 c -2.4943,-7.3958 -12.8098,-7.7828 -15.8512,-0.5946 -14.0135,24.4224 -20.0577,53.8587 -34.8143,77.8102 -0.3719,0.5753 -0.5056,0.6216 -0.8633,1.1414 -1.098,-2.5818 -2.2057,-5.1849 -3.5068,-8.7162 -3.5129,-9.5344 -6.4514,-30.7867 -10.2852,-42.5296 -3.8337,-11.7429 -7.4727,-22.9827 -10.3968,-30.9585 -1.121,-3.0575 -2.068,-5.5447 -3.0852,-7.7148 z m -212.4742,1.2849 -45.2505,76.6877 -33.1638,-72.6361 c -0.3385,-0.7401 -0.7818,-1.4276 -1.3162,-2.0415 26.979,-0.4706 54.9994,-1.3344 79.7305,-2.0101 z m -115.3077,1.6051 c 5.8688,0.4115 13.4835,0.5604 22.6659,0.5339 -0.4593,0.5495 -0.8471,1.1551 -1.1542,1.8021 0,0 -9.6553,20.3779 -19.9911,42.9477 -0.4809,-16.5699 -0.9876,-32.1307 -1.5206,-45.2837 z m 123.6079,17.7086 c 11.5413,19.3499 31.0125,83.0839 31.0125,83.0839 -27.3938,0.148 -50.0111,1.1388 -78.6343,-6.8942 15.8452,-25.4025 35.8723,-64.1483 47.6218,-76.1897 z m 193.8177,0.3625 c 2.3614,6.8566 4.8068,14.081 7.7111,22.9769 3.8405,11.7638 6.8076,33.1268 10.4932,43.1297 1.8428,5.0015 3.3935,13.8112 5.0649,17.4255 -12.1576,5.6615 -53.6827,4.8545 -65.6075,5.1039 8.9871,-30.8609 24.5028,-56.1163 39.1169,-82.5612 1.2914,-2.3426 2.1058,-3.9872 3.2214,-6.0748 z m -93.2567,1.2923 c 2.4871,6.9425 5.3056,15.7642 8.1106,25.5687 4.1,20.6131 7.6991,38.3753 11.9146,58.9452 -21.0154,9.9309 -46.3941,1.1625 -66.7591,0.8488 -0.3997,-26.0375 33.3022,-63.164 46.7339,-85.3627 z m -195.0879,6.8183 28.0814,61.5067 c -22.4859,-1.9258 -40.6142,-5.0682 -52.1167,-8.9592 8.2314,-18.6967 17.5464,-38.7052 24.0353,-52.5475 z m 368.3641,8.5045 19.0506,57.0731 c -18.2994,5.6106 -32.5586,5.4881 -47.8345,5.5985 10.9795,-21.5143 19.4434,-42.0168 28.7839,-62.6716 z m 56.5401,36.7755 c -0.4792,5.855 -0.9906,12.0997 -1.4302,17.4342 -0.7861,-0.248 -1.6039,-0.38 -2.4281,-0.3921 -3.2097,-0.045 -6.4439,-0.072 -9.6678,-0.1068 3.5255,-4.3502 7.7409,-9.5832 12.1934,-15.2252 0.4475,-0.567 0.8843,-1.1397 1.3327,-1.7101 z m -451.1227,24.5231 c 121.3804,39.6489 321.6004,31.3045 447.0251,9.482 0.4391,0.01 0.8779,-0.023 1.3126,-0.085 -1.0372,12.6418 -2.043,24.9761 -2.938,36.2932 -1.381,-0.2727 -2.8082,-0.1975 -4.1529,0.219 -126.1175,37.2005 -326.5,53.8171 -435.6894,-3.7717 -1.091,-0.4827 -2.2714,-0.7298 -3.4644,-0.7253 -0.3818,0 -0.7631,0.028 -1.1413,0.081 -0.2817,-12.9718 -0.5958,-26.8744 -0.948,-41.3628 0,-0.043 0,-0.087 0,-0.1307 z m 1.3125,58.7381 c 135.4613,49.1772 299.9105,41.8633 442.7655,4.0019 -1.3521,17.7618 -0.8985,31.5892 -1.1171,39.5042 -76.0239,46.5319 -319.1653,62.7482 -440.901,-5.9906 -0.092,-5.0486 -0.3108,-16.5021 -0.7474,-37.5155 z m -0.029,54.6109 c 118.3805,66.0457 334.4979,46.6051 440.2344,6.2036 -0.022,14.6359 -0.41,23.974 -2.3931,28.1679 -1.2763,2.6992 -2.6164,4.1208 -6.6913,5.9108 -84.3612,41.7469 -314.9185,56.7346 -424.6023,-0.8708 -3.4353,-2.056 -4.9338,-4.0116 -6.1593,-7.4625 -2.0588,-5.7975 -1.7482,-16.6423 -0.3884,-31.949 z" fill="#00B894" font-family="sans-serif" font-weight="400" overflow="visible" style="line-height:normal;font-variant-ligatures:normal;font-variant-position:normal;font-variant-caps:normal;font-variant-numeric:normal;font-variant-alternates:normal;font-variant-east-asian:normal;font-feature-settings:normal;font-variation-settings:normal;text-indent:0;text-align:start;text-decoration-line:none;text-decoration-style:solid;text-decoration-color:#000;text-transform:none;text-orientation:mixed;white-space:normal;shape-padding:0;shape-margin:0;inline-size:0;isolation:auto;mix-blend-mode:normal;solid-color:#000;solid-opacity:1" transform="translate(20.670797,137.45786) matrix(0.26458333,0,0,0.26458333,-770.59216,-1775.8845)"/>
    </g>
</svg>