<?xml version="1.0" ?><svg height="221.85701mm" viewBox="0 0 158.71228 221.85701" width="158.71228mm" xmlns="http://www.w3.org/2000/svg">
    <path d="m -5890.0904,10780.435 c -21.2535,-22.125 -54.7198,-70.086 -29.6597,-122.472 25.06,-52.386 149.8845,-220.393 174.9445,-265.071 25.0601,-44.678 90.7238,-172.289 90.7238,-172.289 l 4.9169,33.544 c 0,0 36.6384,-30.404 54.8783,-62.663 18.2399,-32.26 130.1604,-168.769 136.0289,-174.479 5.8685,-5.709 36.4798,7.994 54.8783,17.272 18.3986,9.278 51.8649,18.128 31.4045,51.958 -20.4605,33.83 -115.1495,181.995 -115.1495,181.995 0,0 19.3501,6.852 -7.9304,38.398 -27.2805,31.546 -164.0006,179.569 -174.1515,202.836 -10.1509,23.266 -78.5109,126.897 -98.6541,187.562 -20.1433,60.665 -69.9912,120 -122.23,83.409 z" fill="#FFFFFF" transform="translate(-26.477204,-37.238206) matrix(0.26458333,0,0,0.26458333,1601.8356,-2611.2523)"/>
    <path d="m -5439.2439,10198.367 c -25.4145,36.388 -27.9107,41.375 -23.2705,46.504 2.8589,3.159 5.2003,7.434 5.2003,9.501 0,6.712 -9.3658,22.051 -26.172,42.861 -9.0511,11.208 -30.3161,37.984 -47.2529,59.493 -16.9396,21.515 -39.8394,48.716 -50.8932,60.449 -11.054,11.734 -25.54,29.336 -32.191,39.115 -6.6536,9.775 -13.3446,19.376 -14.87,21.334 -22.0651,28.271 -70.3609,94.977 -74.6544,103.115 -26.6067,50.42 -39.6125,78.63 -49.5731,107.529 -13.8113,40.07 -40.9487,83.015 -62.9097,99.557 -11.9872,9.028 -18.8756,11.59 -31.1562,11.59 -16.2988,-0.815 -15.9532,-1.17 -13.4914,14.225 1.5227,9.529 0.952,14.222 -1.7361,14.222 -2.2721,0 -4.0109,-5.853 -4.0109,-13.512 0,-12.215 -4.8215,-22.045 -10.8112,-22.045 -1.2533,0 -4.3175,9.201 -6.8083,20.444 -2.4935,11.247 -6.6243,24.447 -9.1818,29.335 -4.2268,8.078 -4.8856,8.292 -7.2136,2.332 -1.4082,-3.607 -0.5682,-17.711 1.8693,-31.341 4.499,-25.175 2.9896,-35.818 -2.8881,-20.374 -7.4857,19.661 -14.3341,33.823 -19.5876,40.495 -5.3416,6.784 -5.6056,6.437 -5.7122,-7.566 -0.053,-8.072 2.3121,-20.873 5.2775,-28.446 l 5.3922,-13.769 c 3.9636,-7.681 -6.5585,8.177 -9.8377,12.265 -20.0536,25.001 -25.2866,30.351 -27.5188,28.121 -4.2456,-4.233 7.6565,-26.042 24.2467,-44.423 14.4993,-16.069 15.814,-18.815 10.9471,-22.855 -11.7846,-9.779 -17.1102,-26.178 -17.2569,-53.112 -0.1866,-34.228 2.6668,-39.708 83.7241,-160.714 87.2523,-130.258 122.7449,-188.992 163.9522,-271.307 13.7046,-27.378 26.3293,-50.312 28.0574,-50.966 1.7253,-0.65 3.1388,-3.567 3.1388,-6.483 0,-3.126 2.5521,-4.813 6.2216,-4.118 4.5415,0.861 6.5177,5.263 7.3177,16.29 l 1.0961,15.11 8.1096,-9.806 c 4.4616,-5.395 25.3986,-35.407 46.5277,-66.699 45.4689,-67.34 61.1017,-87.1 68.9394,-87.152 3.3495,-0.02 15.2835,-14.282 28.2708,-33.779 12.5622,-20.249 15.8261,-33.744 39.1112,-33.744 25.5133,-0.02 66.1553,16.271 82.7214,33.173 11.0139,11.235 13.8442,16.87 13.8673,26.97 0.025,10.7 -61.5138,94.533 -84.9908,128.181 z m 58.3096,-138.599 c -4.4189,-3.667 -6.6803,-3.323 -12.4461,1.894 -7.2909,6.6 -10.0937,2.635 -3.0853,-4.374 2.176,-2.175 2.88,-5.695 1.5681,-7.822 -3.3923,-5.485 -12.6381,-4.801 -12.6381,0.934 0,5.784 -21.1477,35.685 -23.5424,33.29 -0.9254,-0.925 2.7628,-10.753 8.1977,-21.834 8.4431,-17.219 9.1151,-20.635 4.6136,-23.478 -2.8988,-1.832 -6.7125,-2.875 -8.4778,-2.317 -1.7655,0.557 -8.2671,16.931 -14.4514,36.388 -11.9553,37.628 -20.0436,55.606 -22.1585,49.258 -0.7119,-2.133 5.7791,-24.169 14.422,-48.968 14.7475,-42.309 15.3155,-45.303 9.2353,-48.56 -12.7101,-6.802 -16.1582,-3.851 -21.9158,18.754 -3.1149,12.224 -10.7872,34.226 -17.0488,48.893 -6.2617,14.667 -18.3263,46.165 -26.8094,69.996 -8.4858,23.829 -18.0409,48.381 -21.2331,54.554 -3.192,6.176 -5.1521,11.883 -4.3521,12.684 0.8,0.797 18.0701,-15.751 38.3779,-36.779 20.3103,-21.028 51.1145,-52.082 68.4594,-69.011 28.388,-27.713 48.037,-50.712 48.5117,-56.79 0.081,-1.226 -2.2561,-4.248 -5.2269,-6.712 z m -96.8261,139.372 c -43.9276,43.27 -84.4896,79.247 -110.8642,98.336 -14.3607,10.392 -16.7635,14.439 -27.3133,45.939 -6.3629,18.998 -11.0033,35.102 -10.3152,35.79 2.1707,2.173 62.8085,-50.842 93.4846,-81.727 21.6518,-21.803 38.2899,-43.753 62.8964,-82.98 18.4036,-29.334 33.5564,-54.051 33.6764,-54.925 0.1066,-0.873 -18.5876,16.931 -41.5647,39.567 z m 1.3147,-149.982 c -0.7414,0 -7.8725,8.637 -15.8434,19.194 -30.1482,39.931 -110.8269,210.212 -106.16,224.061 2.0428,6.06 48.6211,-44.942 48.6558,-53.276 0.026,-7.069 16.2088,-53.391 39.6605,-113.531 6.0991,-15.645 16.4542,-38.047 23.0092,-49.781 11.2112,-20.064 13.854,-26.667 10.6779,-26.667 z m -29.1828,249.092 c -7.0136,6.738 -20.2143,19.526 -29.3348,28.417 -9.1177,8.889 -30.9802,27.819 -48.581,42.068 -17.6009,14.251 -51.2026,42.251 -74.6704,62.222 -47.197,40.168 -65.2645,53.699 -68.022,50.942 -1.0107,-1.008 16.6836,-20.18 39.3167,-42.605 27.18,-26.927 41.1512,-43.376 41.1512,-48.44 0,-7.193 21.345,-78.967 41.3408,-139.02 4.8856,-14.668 17.7022,-43.237 28.484,-63.488 10.7792,-20.253 18.1182,-35.907 16.3048,-34.783 -1.8134,1.12 -15.006,18.992 -29.3188,39.716 -14.3127,20.727 -33.0309,43.853 -41.5967,51.392 -13.9874,12.312 -16.446,16.963 -24.0998,45.562 -8.8991,33.25 -27.6387,77.516 -60.8563,143.751 -20.721,41.311 -40.5541,96.514 -40.3861,112.406 0.053,5.202 4.8536,15.744 10.6673,23.425 5.8109,7.684 10.5659,16.083 10.5659,18.668 0,9.763 7.3043,4.096 15.71,-12.188 17.5823,-34.062 90.6232,-134.793 123.0541,-169.702 12.7607,-13.736 29.1295,-32.404 36.3697,-41.482 7.2431,-9.079 25.204,-29.614 39.914,-45.636 28.1188,-30.629 35.6178,-42.006 13.9874,-21.225 z m -155.669,-56.787 c -0.72,0.815 -8.0483,17.48 -16.2862,37.039 -20.1875,47.922 -45.6263,98.016 -68.0007,133.899 -26.4119,42.36 -131.4305,199.723 -151.0394,226.318 -13.0219,17.662 -17.3182,27.103 -20.2384,44.447 -9.4057,55.897 17.433,94.795 65.478,94.896 21.9318,0.06 51.6345,-38.823 87.9349,-115.074 l 25.1187,-52.767 -13.278,-19.413 c -21.1317,-30.898 -22.5238,-34.127 -20.5638,-47.682 3.3069,-22.86 21.9505,-75.375 40.9248,-115.284 42.3967,-89.167 60.1656,-132.398 68.6861,-167.12 2.192,-8.936 3,-21.227 1.264,-19.259 z" fill="#00B894" transform="translate(-26.477204,-37.238206) matrix(0.26458333,0,0,0.26458333,1601.8356,-2611.2523)"/>
</svg>