<?xml version="1.0" ?><svg height="117.07291mm" viewBox="0 0 138.64265 117.07291" width="138.64265mm" xmlns="http://www.w3.org/2000/svg">
    <path d="m 4863.4475,2257.1396 c 1.5642,-6.9915 48.7492,-21.0682 55.5271,-23.1797 6.7781,-2.1115 57.5347,13.9983 65.2769,15.5782 13.1094,2.6751 15.732,10.8344 -0.1074,15.9024 -9.5904,3.0685 -12.7368,7.4567 -12.7368,7.4567 0,0 -5.5084,52.4205 -6.2383,64.4328 -0.73,12.0121 -19.0305,10.2759 -39.2078,8.6337 -20.1774,-1.6423 -30.2922,-8.6808 -33.3164,-26.5113 -3.0239,-17.8304 -5.3776,-46.8876 -5.3776,-46.8876 0,0 -22.5682,-5.1492 -23.8197,-15.4252 z" fill="#FFFFFF" paint-order="markers stroke fill" transform="translate(16.447906,-48.036567) translate(-4876.7251,-2185.1038)"/>
    <path d="m 4917.7257,2349.0076 c -8.5311,-1.666 -16.7225,-6.1487 -21.2722,-11.641 -3.571,-4.3105 -4.2552,-6.5696 -6.1441,-20.287 -1.169,-8.4901 -2.5697,-21.622 -3.1127,-29.182 l -0.988,-13.7455 -6.6979,-2.6479 c -8.7692,-3.4666 -17.3364,-8.6437 -18.4673,-11.1592 -3.2026,-7.1267 3.4124,-12.3563 24.02,-18.9891 33.432,-10.7597 47.6334,-10.8875 83.9183,-0.7547 17.2198,4.8084 24.6815,8.2821 28.1611,13.1088 4.2506,5.8964 1.1535,9.8706 -12.3118,15.7977 l -11.307,4.9771 -0.117,11.5173 c -0.1923,18.9704 -3.1725,48.9597 -5.2079,52.4127 -2.8936,4.9081 -8.9671,9.0683 -15.4589,10.5882 -6.8843,1.6123 -26.7705,1.6151 -35.0153,0 z m 39.2061,-8.688 c 6.3772,-2.7761 8.6335,-6.2687 7.4706,-11.5638 -0.6898,-3.1409 -1.4342,-4.1166 -2.4621,-3.2262 -0.8103,0.7017 -5.9492,2.6581 -11.42,4.3479 -8.1273,2.51 -11.8938,2.9226 -20.5875,2.2555 -11.5688,-0.8875 -22.262,-3.9033 -28.2694,-7.9726 -4.8297,-3.2718 -5.4992,-3.2422 -5.2711,0.2299 0.3804,5.7899 4.9127,11.0826 12.3792,14.4557 6.5978,2.9808 9.2018,3.3198 25.6023,3.3318 12.3521,0 19.6485,-0.5923 22.558,-1.8589 z m -5.1727,-15.4513 c 12.9192,-2.4 12.0754,-1.5487 13.1979,-13.3173 0.3832,-4.0171 -0.4537,-6.9061 -3.6053,-12.6042 -3.4207,-6.1643 -3.8678,-7.8916 -2.6913,-10.3981 1.1023,-2.3479 2.2604,-2.8382 5.2898,-2.2404 3.5768,0.7063 3.9161,0.3779 4.3626,-4.2486 0.2664,-2.7577 0.1939,-5.2866 -0.1627,-5.6197 -0.3568,-0.3312 -7.2279,1.3559 -15.2733,3.7534 -18.194,5.4209 -23.1036,5.518 -41.4671,0.8194 -8.0737,-2.0658 -15.9345,-4.0339 -17.469,-4.3736 -2.5758,-0.5701 -2.7151,-0.038 -1.8015,7.154 0.936,7.3621 1.1541,7.7291 4.1382,6.9678 4.6442,-1.1852 7.683,2.3931 8.1568,9.6056 0.3657,5.5668 0.692,6.0873 3.815,6.0873 2.4745,0 4.7191,-1.8648 8.1465,-6.7684 5.2158,-7.4622 10.2515,-10.4748 15.3884,-9.2066 5.113,1.2628 5.8807,4.7871 2.2598,10.3728 -2.698,4.1621 -2.8413,4.987 -0.9339,5.3856 1.2387,0.2571 3.7917,-1.0575 5.6733,-2.925 3.9918,-3.9618 8.3745,-6.4801 11.2769,-6.4801 3.6754,0 6.7108,4.0242 6.0364,8.0027 -1.0706,6.3129 -3.0892,6.9683 -2.9738,0.966 0.1438,-7.4491 -3.2741,-7.9824 -9.966,-1.5551 -5.1986,4.9931 -10.5724,7.2974 -13.2742,5.6926 -2.403,-1.4272 -2.098,-6.1836 0.6406,-9.982 3.3458,-4.6418 3.0818,-5.8734 -1.2607,-5.8734 -2.5688,0 -5.1486,1.8379 -8.863,6.3152 -2.8818,3.4732 -6.8723,7.195 -8.8679,8.2704 -3.2953,1.7759 -3.899,1.7011 -6.5827,-0.8167 -2.0708,-1.9435 -3.0737,-4.5884 -3.3532,-8.8436 -0.3932,-5.9858 -2.0621,-7.9671 -5.5904,-6.6377 -1.8514,0.6978 -0.9512,23.2685 1.0287,25.8046 1.6521,2.1165 11.5854,6.0538 18.678,7.4034 10.0864,1.9198 23.2888,1.6595 36.045,-0.7103 z m 15.3589,-32.5035 c -0.1886,-2.8705 -0.8885,-3.7798 -2.9762,-3.7798 -3.1218,0 -3.3251,2.3864 -0.6413,7.5343 2.1663,4.1554 3.98,2.2735 3.6175,-3.7545 z m -7.1099,-22.3448 c 16.7279,-5.6746 31.2927,-10.9027 32.3659,-11.618 2.7544,-1.8356 -8.7068,-6.5119 -33.1659,-13.5316 -24.9563,-7.1626 -28.8103,-7.7292 -39.5625,-5.8188 -7.9311,1.4097 -49.8018,14.0806 -52.7026,15.9493 -0.6463,0.4165 -1.1014,1.887 -1.0107,3.2675 0.1344,2.0455 5.0895,4.0716 26.773,10.9459 14.6347,4.6394 27.0219,9.0403 27.5272,9.7794 1.9707,2.8821 10.4969,0.9585 39.7756,-8.9737 z m -48.6759,-0.6806 c -11.138,-1.6591 -18.024,-3.8719 -21.4741,-6.9008 -6.3287,-5.5558 -3.5549,-9.1775 11.2344,-14.6677 8.8922,-3.301 11.9343,-3.7039 28.5055,-3.7772 17.648,-0.078 18.983,0.1129 27.4266,3.8967 6.4996,2.9134 9.161,4.8786 9.9411,7.3415 1.7443,5.5082 -2.6043,8.5458 -17.4642,12.1995 -13.504,3.32 -24.8712,3.8885 -38.1693,1.908 z m 39.4155,-6.7937 4.0596,-0.9721 -6.314,-1.958 c -7.0256,-2.1784 -40.0129,-2.2208 -45.5681,-0.059 -2.8926,1.126 -2.6947,1.3032 2.408,2.1605 3.0578,0.5135 6.5002,1.1302 7.6503,1.3703 4.0476,0.8447 33.7532,0.4181 37.7641,-0.5424 z m -49.4493,-4.93 c 4.2877,-2.2112 4.9864,-2.2629 30.869,-2.293 12.1003,0 17.8801,0.5864 22.6067,2.3472 4.6711,1.7404 6.7296,1.9606 7.7831,0.8333 6.4781,-6.9334 -36.6355,-12.7912 -56.1949,-7.6352 -9.8389,2.5938 -15.431,5.9805 -12.6601,7.6677 2.5346,1.5433 2.9086,1.4981 7.5962,-0.92 z" fill="#00B894" transform="translate(16.447906,-48.036567) translate(-4876.7251,-2185.1038)"/>
</svg>