<?xml version="1.0" ?><svg height="93.429413mm" viewBox="0 0 89.39357 93.429413" width="89.39357mm" xmlns="http://www.w3.org/2000/svg">
    <path d="m -8108.0182,8160.8397 c 37.1785,-13.108 99.2066,-31.62 155.4854,19.087 56.2788,50.706 98.3123,109.116 42.8639,175.46 -55.4484,66.344 -59.6645,80.946 -125.2699,100.666 -65.6054,19.719 -52.1905,2.529 -71.0352,14.43 -18.8448,11.9 -25.0412,16.902 -35.0066,-1.84 -9.9654,-18.742 -46.1218,-85.488 -53.0209,-107.219 -6.8991,-21.732 -50.7212,-137.575 85.9833,-200.584 z" fill="#FFFFFF" transform="translate(143.72653,-33.416282) matrix(0.26458333,0,0,0.26458333,2029.4935,-2119.6281)"/>
    <path d="m -7881.6641,8320.9527 c -11.2912,31.6674 -25.8505,53.203 -56.8337,84.0685 -38.7248,38.5707 -80.5359,60.0293 -122.4207,62.8316 -22.5556,1.5061 -31.043,3.8614 -38.7452,10.75 -13.33,11.9219 -21.8518,14.4192 -33.75,9.8949 -10.161,-3.8645 -25.1747,-30.3831 -25.3439,-44.7698 -0.025,-4.0538 -5.6392,-13.6943 -12.4277,-21.4232 -27.3675,-31.1702 -47.8766,-102.1834 -41.335,-143.1096 13.405,-83.8228 84.4595,-141.553 174.408,-141.7038 32.7344,-0.06 47.0952,4.2017 76.0014,22.5239 45.2969,28.7142 82.8559,82.2012 86.03,122.5148 0.8998,11.4159 -1.2625,26.3115 -5.5832,38.4227 z m -22.9208,-77.526 c -3.7366,-7.297 -19.9848,-26.2937 -36.1057,-42.2132 -29.4776,-29.1078 -56.0497,-44.8852 -84.1566,-49.9718 -17.4611,-3.1602 -60.6835,6.5779 -85.8888,19.3489 -73.8238,37.4108 -82.8814,124.3347 -19.0378,182.6863 41.1327,37.5942 116.9457,53.5788 160.7892,33.9043 32.9342,-14.7772 59.3459,-44.5626 71.0188,-80.0885 4.7382,-14.4221 1.2078,-48.3857 -6.6191,-63.666 z m -32.8629,18.0115 c -4.2991,2.6601 -13.7385,-19.0798 -11.3535,-26.1459 1.0156,-3.0063 4.4505,0.089 8.2889,7.4922 7.5711,14.588 7.7607,15.7509 3.0646,18.6537 z m -17.1913,55.9726 c -22.3379,28.7527 -42.133,37.9641 -81.9001,38.1238 -45.3199,0.1776 -76.5168,-17.2895 -95.0342,-53.2148 -13.419,-26.0334 -6.7935,-67.0244 14.917,-92.2945 9.6672,-11.2501 39.1499,-24.6396 60.784,-27.6044 21.8314,-2.9946 62.1089,6.6429 78.5403,18.7926 15.6272,11.5519 12.9927,12.7385 -6.6751,3.0092 -8.8451,-4.3763 -21.0627,-8.3207 -27.1524,-8.7645 -10.6638,-0.7782 -11.2759,0.2071 -16.546,26.1902 -3.0099,14.8482 -4.7026,27.7643 -3.7646,28.7053 0.938,0.938 15.4375,-5.4416 32.2215,-14.1766 31.4388,-16.3633 56.1286,-22.2902 39.6437,-9.5162 -4.3398,3.3645 -20.2037,12.3746 -35.2556,20.0207 -29.2854,14.8839 -29.3185,17.6564 -0.2367,22.666 32.4926,5.5985 47.0099,10.6228 41.1506,14.2447 -3.0659,1.8967 -9.1404,2.74 -13.4992,1.876 -4.3589,-0.8641 -17.6889,-2.6631 -29.6227,-3.9976 l -21.7016,-2.4235 21.4025,20.5089 21.3999,20.5089 13.1735,-14.3778 c 7.2465,-7.9065 14.0401,-14.3748 15.0938,-14.3748 5.1671,0 0.9202,16.0023 -6.9207,26.0984 z m -30.1075,1.518 c -1.8938,0 -14.6179,-8.9333 -28.2801,-19.852 -13.6583,-10.9217 -26.0948,-18.4672 -27.6335,-16.7687 -4.7585,5.2463 -14.6828,56.452 -11.3458,58.5174 8.588,5.3055 70.7032,-10.7531 70.7032,-18.2779 0,-1.9884 -1.5501,-3.6188 -3.4438,-3.6188 z m -66.5874,-125.9887 c -22.595,2.7459 -44.3844,10.3862 -44.3844,15.5614 0,5.9032 48.0713,44.2046 51.3471,40.9112 2.9705,-2.9886 14.0083,-42.7161 15.2861,-55.0227 0.2965,-2.8288 -7.0035,-3.3052 -22.2488,-1.4499 z m 1.1988,78.6445 c -0.971,0 -12.0675,5.9921 -24.6605,13.3155 -12.5931,7.3236 -26.889,14.5436 -31.771,16.0468 -7.1778,2.2103 -8.1285,4.119 -4.9799,10.0044 4.9685,9.2824 27.5571,23.317 39.7276,24.6811 8.3233,0.935 10.1203,-1.592 16.0917,-22.6216 6.6064,-23.2726 9.0576,-41.4262 5.5921,-41.4262 z m -64.3233,-11.4573 c -11.762,-0.3461 -12.8247,0.6244 -12.8247,11.7178 0,6.6517 1.8352,15.5229 4.0776,19.7098 3.9008,7.291 5.2943,6.9922 32.5498,-6.9477 l 28.471,-14.5642 -19.7239,-4.7669 c -10.8508,-2.6247 -25.4979,-4.9386 -32.5498,-5.1488 z m 29.4394,-27.1725 c -9.3032,-9.1315 -18.6866,-16.603 -20.8489,-16.603 -4.1693,0 -17.4674,20.3165 -17.4674,26.6843 0,2.0713 12.4276,5.4505 27.617,7.5041 15.188,2.0565 27.6156,2.6778 27.6156,1.3788 0,-1.299 -7.6105,-9.8328 -16.9163,-18.9642 z m 14.0442,174.5236 c -64.4378,-18.994 -105.4106,-59.7129 -115.9255,-119.9616 -4.4658,-25.589 -7.587,-39.7009 -11.1204,9.4443 -0.4563,6.3471 3.5037,25.5836 8.1285,42.7133 6.4003,23.7224 13.5553,38.328 30.016,61.2722 18.3074,25.5126 20.9176,31.2382 17.0614,37.4108 -3.6627,5.8647 -2.9106,9.9362 3.8409,20.8639 4.6135,7.4685 10.1381,13.5759 12.2749,13.5759 5.5145,0 20.6326,-8.3267 23.7163,-13.064 1.4317,-2.1986 12.4925,-4.5273 24.5803,-5.1812 43.2534,-3.9899 75.0479,-14.9311 113.6961,-46.1798 -37.0573,7.8416 -82.4561,5.9699 -106.2685,-0.8938 z" fill="#00B894" transform="translate(143.72653,-33.416282) matrix(0.26458333,0,0,0.26458333,2029.4935,-2119.6281)"/>
</svg>