<?xml version="1.0" ?><svg height="64.81337mm" viewBox="0 0 104.00105 64.81337" width="104.00105mm" xmlns="http://www.w3.org/2000/svg">
    <path d="m -13894.096,12869.093 c 38.629,-17.273 131.657,-49.618 252.679,-2.641 121.022,46.977 119.555,117.827 94.617,146.321 -24.938,28.494 -119.188,64.909 -181.777,58.088 -62.589,-6.821 -154.273,-78.001 -166.131,-109.685 -11.857,-31.685 2.323,-64.359 2.323,-64.359 0,0 -21.393,-14.523 -1.711,-27.724 z" fill="#FFFFFF" transform="translate(-12.183318,-82.008147) matrix(0.26458333,0,0,0.26458333,3694.4003,-3313.5064)"/>
    <path d="m -13765.091,13073.941 c -11.798,-2.327 -31.883,-8.851 -44.636,-14.487 -27.043,-11.962 -84.92,-65.575 -93.713,-86.806 -6.15,-14.845 -4.93,-50.83 2.274,-67.051 2.86,-6.446 1.666,-8.878 -4.37,-8.878 -12.217,0 -15.557,-14.19 -5.858,-24.904 4.637,-5.123 27.165,-15.83 50.058,-23.787 35.391,-12.303 49.608,-14.491 94.876,-14.585 45.002,-0.08 60.315,2.16 98.889,14.544 62.613,20.108 88.1,33.785 112.724,60.501 47.39,51.411 39.346,112.596 -18.007,136.934 -70.526,29.934 -135.919,39.637 -192.237,28.519 z m 130.485,-40.035 c 15.849,-13.575 16.571,-15.217 6.755,-15.339 -6.048,-0.08 -14.605,-1.522 -19.017,-3.215 -5.226,-2.004 -8.021,-0.303 -8.021,4.922 0,4.397 -6.95,13.134 -15.442,19.413 -13.496,9.977 -14.293,11.832 -6.341,14.727 10.562,3.845 17.687,0.38 42.066,-20.508 z m -64.658,7.892 c 12.049,-9.143 11.258,-10.885 -5.534,-12.163 -9.048,-0.693 -17.835,2.685 -23.608,9.063 -9.003,9.947 -8.889,10.159 5.534,9.999 8.105,-0.08 18.728,-3.191 23.608,-6.899 z m -57.227,-5.408 c 5.066,-6.101 3.777,-7.991 -7.356,-10.786 -16.431,-4.123 -29.662,5.735 -17.781,13.246 10.726,6.782 18.063,6.063 25.137,-2.46 z m 166.263,-14.156 c 5.854,-6.277 11.389,-14.035 12.294,-17.241 3.51,-12.419 -4.744,-8.586 -20.741,9.633 -18.131,20.653 -10.303,27.704 8.447,7.608 z m -206.013,-2.146 c 6.25,-7.618 5.668,-8.143 -5.716,-5.142 -6.971,1.84 -14.958,3.411 -17.75,3.495 -5.254,0.153 7.69,9.92 13.326,10.056 1.75,0.03 6.314,-3.742 10.14,-8.409 z m 125.499,-14.711 c 2.495,-2.275 -19.284,-28.515 -51.643,-62.225 -27.142,-28.271 -60.102,-48.048 -93.123,-55.873 -10.677,-2.528 -23.408,-6.249 -28.287,-8.264 -5.313,-2.195 -8.873,-1.411 -8.873,1.951 0,3.088 3.161,5.614 7.028,5.614 18.272,0 70.177,42.941 98.213,81.253 16.032,21.904 32.569,40.863 36.752,42.134 7.352,2.236 36.064,-1.069 39.933,-4.59 z m -73.878,-12.734 c -25.426,-43.428 -105.652,-105.485 -126.179,-97.609 -11.247,4.318 -8.603,8.266 15.198,22.7 13.75,8.337 30.23,25.582 43.611,45.641 26.943,40.389 32.679,44.915 56.93,44.915 h 19.602 z m 191.153,5.203 c 0,-2.625 -2.282,-4.769 -5.07,-4.769 -2.788,0 -5.07,3.556 -5.07,7.906 0,4.348 2.282,6.493 5.07,4.77 2.788,-1.723 5.07,-5.279 5.07,-7.907 z m -259.829,1.148 c 4.755,-3.02 1.313,-11.185 -13.334,-31.64 -20.663,-28.857 -54.811,-57.04 -62.989,-51.985 -2.628,1.623 -3.556,12.09 -2.057,23.257 2.016,15.016 8.383,26.069 24.456,42.446 21.429,21.836 38.711,27.58 53.924,17.922 z m 200.245,-4.359 c 13.247,-4.75 24.086,-11.231 24.086,-14.406 0,-8.038 -72.17,-61.137 -106.23,-78.161 -55.541,-27.758 -122.368,-45.95 -140.799,-38.328 -6.352,2.625 1.441,5.949 26,11.084 19.288,4.032 43.398,11.581 53.576,16.772 24.634,12.572 72.166,59.878 88.973,88.556 15.032,25.651 19.74,26.902 54.394,14.483 z m 48.097,-20.907 c 4.374,-2.777 -1.741,-11.604 -20.287,-29.275 -35.836,-34.163 -74.015,-64.803 -92.47,-74.227 -33.234,-16.968 -124.246,-30.991 -124.246,-19.147 0,2.792 5.626,5.073 12.502,5.073 38.003,0 120.58,41.139 172.6,85.988 44.252,38.157 42.88,37.32 51.901,31.588 z m 4.443,-30.096 c -8.341,-15.929 -35.825,-42.972 -52.21,-51.374 -22.813,-11.695 -21.976,-5.023 1.75,13.963 13.498,10.801 31.245,26.776 39.437,35.497 18.299,19.485 20.421,19.85 11.023,1.914 z m -312.445,-64.659 c 8.094,-9.752 -0.152,-9.854 -12.977,-0.152 -8.269,6.257 -8.523,7.474 -1.59,7.607 4.541,0.08 11.095,-3.26 14.567,-7.444 z" fill="#00B894" transform="translate(-12.183318,-82.008147) matrix(0.26458333,0,0,0.26458333,3694.4003,-3313.5064)"/>
</svg>