<?xml version="1.0" ?><svg height="115.84779mm" viewBox="0 0 97.225037 115.84779" width="97.225037mm" xmlns="http://www.w3.org/2000/svg">
    <path color="#000" d="m 4028.2607,6485.6578 c -11.6948,-27.4818 -20.2223,-104.1031 137.2345,-109.7717 157.4568,-5.6686 152.5376,110.1893 152.5376,110.1893 19.3411,8.2207 52.6294,42.4143 -10.3955,100.0704 -9.6154,121.8146 -6.1667,203.5868 -142.9368,214.5918 -152.2346,12.2494 -127.4391,-95.1515 -136.1614,-220.606 0,0 -74.5313,-49.9516 -0.2784,-94.4738 z" fill="#FFFFFF" overflow="visible" paint-order="fill markers stroke" transform="translate(-234.92697,-251.57342) matrix(0.26458333,0,0,0.26458333,-820.03168,-1433.9771)"/>
    <path d="m 4045.7047,6751.7085 c -14.3037,-23.9039 -13.6803,-53.7444 -19.3628,-92.6905 -9.6494,-66.1319 -6.5815,-81.9488 -16.7941,-81.9488 -4.2611,0 -4.6462,-11.9171 -12.7177,-17.5706 -26.5952,-37.0928 10.1613,-58.3698 14.2393,-65.1822 3.4994,-2.1626 2.16,-11.1368 -3.1933,-21.3992 -11.466,-21.9794 -2.7492,-32.9603 8.8397,-48.2566 8.2189,-23.7299 18.6268,-10.2735 40.1591,-30.8469 28.3455,-28.3455 160.5324,-32.062 215.7876,-3.8518 21.3267,10.8885 45.0063,37.5758 45.0063,55.7268 0,7.7351 4.1635,13.5521 9.7005,13.5521 12.2109,0 12.6171,15.3966 0.6674,25.3137 -4.968,4.1233 -7.6356,12.8396 -5.9283,19.3692 4.3748,16.7301 -28.2788,38.2891 -71.8307,47.4237 -28.5136,5.9807 -54.5837,27.648 -117.4739,13.2254 -31.7384,-7.2786 -93.9483,2.0017 -116.8218,-54.1729 -15.3649,4.1078 -28.5775,19.5788 -1.4084,42.0426 3.6066,2.9825 8.8982,13.6794 24.2819,14.132 15.3836,0.4527 37.436,3.1482 43.2724,11.6451 11.8216,17.2099 17.4474,18.6332 29.7611,11.4432 11.0475,-6.4508 21.0914,-4.2604 33.05,2.1399 12.7781,6.8382 17.8088,6.9133 25.6779,0.3816 7.4848,-6.2129 14.6289,-6.4333 30.3896,-0.939 16.893,5.8888 22.4149,1.0606 31.8128,-7.444 8.5208,-7.7113 18.0279,-9.2634 37.0499,-6.05 21.7433,3.6733 26.9862,-11.6172 35.3713,-23.5882 5.4271,-7.748 12.6934,-2.4109 16.5594,-0.022 10.9874,6.7903 19.8403,-32.3476 10.0111,-44.2553 -7.5269,-9.1191 -8.9897,-14.8003 -0.2974,-14.0385 12.2556,1.0743 18.3212,20.6222 21.7326,30.2754 5.4283,15.3604 -4.7933,34.0378 -21.5272,47.3812 -18.7303,14.9348 -19.1895,16.7513 -22.4126,88.6253 -1.8593,41.4656 -6.8816,79.6978 -11.5481,87.9083 -14.5831,25.6583 -55.5216,55.689 -113.6235,57.6924 -55.9794,3.0111 -105.823,-1.5248 -138.4334,-56.024 z m 210.0124,12.9864 c 31.5964,-18.8836 38.4384,-49.4647 39.6503,-113.4644 l 1.3211,-61.6665 -19.6821,7.7104 c -15.8367,6.204 -24.3197,-5.922 -31.5679,0.093 -3.4902,2.8972 -22.7567,20.4456 -38.6848,12.9452 -13.6596,-6.4314 -14.8657,-12.0014 -30.1879,-2.1101 -25.6571,16.5619 -38.5257,-10.0833 -52.6115,-2.7543 -29.9815,15.6002 -42.087,-4.1291 -47.4571,-9.4211 -6.6061,-6.5102 -18.5822,-12.4909 -26.0768,-12.4909 -12.5919,0 -13.3486,2.5784 -9.9676,33.9516 2.0132,18.6734 5.1445,49.6334 6.9591,68.7996 3.6583,38.6356 14.4996,69.4359 36.885,80.8792 9.1554,4.6801 43.8074,22.9914 82.161,21.5551 49.5901,-1.8573 69.491,-12.2123 89.2592,-24.0267 z m -110.8388,-81.5615 c -4.0696,-55.4369 -2.5027,-74.9594 5.3553,-66.7237 6.2407,6.5407 11.5099,128.8008 5.5512,128.8008 -3.4921,0 -8.4006,-27.9347 -10.9065,-62.0771 z m 66.5077,59.026 c -6.6823,-6.7644 0.1682,-129.2626 7.364,-131.6612 3.9221,-1.3069 6.291,12.8479 5.9502,35.5522 -0.7372,49.0812 -7.9977,101.4915 -13.3142,96.109 z m -117.507,-20.5533 c -2.4302,-2.4303 -4.488,-14.847 -4.5734,-27.5927 -0.084,-12.7451 -2.7226,-34.2381 -5.8616,-47.7612 -4.0393,-17.4007 -3.6054,-23.8877 1.4835,-22.1915 8.4414,2.8138 24.4426,89.7319 17.8585,97.0066 -2.4683,2.7266 -6.476,2.9691 -8.907,0.5368 z m 157.3545,-58.8495 c -0.065,-18.6735 2.8113,-33.9517 6.3681,-33.9517 8.2706,0 8.2706,45.4047 0,58.2029 -4.4881,6.9441 -6.2969,0.065 -6.3681,-24.2512 z m 29.2502,-132.425 c 28.67,-13.6983 20.4886,-18.1618 -15.9599,-8.7071 -18.5596,4.8141 -61.4841,9.1359 -95.3879,9.6041 -46.5124,0.6402 -56.088,2.1089 -39.0094,5.9749 32.9182,7.4499 129.6325,3.0304 150.3572,-6.8719 z m -196.1647,-2.3649 c -9.48,-8.4828 -44.7302,-22.7813 -44.7302,-18.1444 0,6.4883 24.6884,19.4688 38.2632,20.1174 5.0384,0.2393 7.9485,-0.6473 6.467,-1.973 z m 183.6957,-20.8314 c 16.6389,-5.6697 30.2532,-12.945 30.2532,-16.1675 0,-7.1693 -18.7251,0.7871 -57.9603,8.8112 -61.2255,12.522 -117.0898,13.0996 -153.8254,4.5716 -20.2294,-4.6963 -26.785,-10.0142 -20.8347,-2.8448 9.8789,11.9037 24.581,14.0372 103.7458,15.057 47.6132,0.6144 77.552,-2.2486 98.6214,-9.4275 z m -123.3375,-24.5622 c 14.9619,-11.3574 14.2751,-16.1779 -3.2335,-22.7127 -9.6765,-3.6112 -18.8235,-2.4581 -27.3068,3.4423 -18.5609,12.9094 -26.6135,10.8574 -13.6421,-3.476 10.6375,-11.7543 4.8974,-12.7134 -7.6452,-16.6945 -12.4225,6.5433 -24.6438,19.6738 -42.7889,31.7807 0,6.6344 35.3609,15.2886 60.6649,15.7968 12.4489,0.2523 27.7271,-3.4113 33.9516,-8.1366 z m 53.8551,5.857 c 0,-5.363 -14.3529,-9.7909 -22.7658,-10.6194 -7.9266,6.9269 -8.3152,5.5448 -13.6427,9.9372 0,0 -6.0156,3.8278 15.1191,3.8278 13.2114,0 21.2894,0 21.2894,-3.1456 z m 33.1199,-23.065 c 13.5839,-12.4962 16.2508,-12.244 0.2264,-19.5465 -13.8995,-6.3325 -18.3068,-5.3508 -30.4389,6.7813 -7.8023,7.8018 -12.4269,12.2051 -11.2415,12.9876 3.6836,2.4335 14.7033,5.7809 27.3986,11.3663 9.4962,-5.8823 5.4317,-3.6538 14.058,-11.5887 z m 55.7719,6.8453 c 2.9282,-2.6748 -11.5494,-10.6763 -21.4096,-12.5253 -6.0046,-1.1259 -11.9173,2.1166 -22.1495,12.557 l -13.5004,13.7753 25.868,-4.4726 c 14.2273,-2.4594 28.2638,-6.6604 31.1915,-9.3344 z m -215.5004,-38.5239 c 0,-8.6799 -24.2357,-12.293 -31.7897,-4.7389 -3.8563,3.8562 -14.2726,11.8707 -11.9885,19.9777 4.1311,20.0386 9.1268,12.2414 24.3773,3.8485 11.4762,-6.3156 19.4009,-16.1874 19.4009,-19.0873 z m 119.5292,12.7419 c 11.2246,-12.403 11.1025,-12.9941 -3.815,-18.5124 -23.5281,-8.7038 -59.3319,17.8263 -36.4937,27.0417 16.4125,6.6229 29.0082,3.9578 40.3087,-8.5293 z m 108.7583,4.1422 c 1.8302,-4.7688 0.7916,-12.7717 -2.3081,-17.7842 -4.7545,-7.6899 -7.3057,-7.4429 -16.3343,1.5824 -11.3482,11.3457 -7.7112,24.872 6.6882,24.872 4.7448,0 10.1241,-3.9015 11.9542,-8.6702 z m -31.4134,-16.7903 c 20.8729,-23.0644 -0.6079,-34.9003 -28.2276,-15.5544 -14.6148,10.2373 -13.0957,11.6205 -0.5238,17.8722 18.9792,9.4366 15.295,12.5511 28.7508,-2.3178 z m -131.7794,-0.6337 c 16.2282,-8.6852 15.8913,-17.2281 -0.8886,-22.5543 -16.8116,-5.3352 -43.4581,15.5408 -30.4071,23.8231 10.9273,6.9352 16.3795,6.7141 31.2957,-1.2688 z m 95.4564,-19.2076 c 8.2738,-6.8964 12.3512,-11.1245 10.0917,-14.781 -7.3194,-11.843 -35.6194,-11.5163 -47.8297,3.4981 -10.9021,13.406 -10.9835,14.8966 -1.0367,18.9463 16.9299,6.8931 22.67,5.7581 38.7747,-7.6634 z m -124.6039,-7.3285 c 8.8298,-7.6251 -11.8843,-7.036 -17.9833,-8.7841 -7.3762,-2.3656 -22.8736,1.9228 -25.6739,8.2475 -4.1375,10.783 10.126,10.0645 24.5357,17.0495 z m 64.1214,-22.8724 c -18.4561,-1.7745 -32.1162,8.6322 -40.0661,16.6085 -2.5435,2.5525 11.2145,3.5317 19.2167,6.4917 10.955,4.0528 17.2428,6.4087 28.0213,-3.8868 14.2332,-13.5962 26.668,-15.9605 13.2793,-17.2475 z m -42.1549,-2.8901 c -2.6618,1.4674 -17.0121,-0.065 -24.6541,5.4426 -4.5172,3.2354 6.326,5.3993 13.86,5.7097 20.3626,-7.5766 19.412,-12.1178 10.7941,-11.1523 z" fill="#00B894" transform="translate(-234.92697,-251.57342) matrix(0.26458333,0,0,0.26458333,-820.03168,-1433.9771)"/>
</svg>