<?xml version="1.0" ?><svg height="73.267075mm" viewBox="0 0 76.848244 73.267075" width="76.848244mm" xmlns="http://www.w3.org/2000/svg">
    <path d="m 2276.4236,1143.3805 c -2.6747,-3.9289 -5.2727,-7.014 -5.2727,-7.014 0,0 -3.2895,-0.8577 -3.0281,-6.253 0.2611,-5.3953 0.6302,-9.6009 0.6302,-9.6009 0,0 -2.2905,-3.3479 -1.8907,-7.0278 0.3995,-3.6799 3.0435,-5.7965 3.0435,-5.7965 0,0 1.5986,-5.3953 3.1668,-7.1523 1.5679,-1.7569 5.1496,-2.9328 5.1496,-2.9328 0,0 1.5216,-6.8618 6.164,-8.5911 4.6424,-1.7292 9.7459,-0.2905 9.7459,-0.2905 0,0 5.9489,-1.7846 8.0087,-0.5534 2.0598,1.2313 3.8738,1.6878 3.8738,1.6878 0,0 5.4723,-2.4486 9.2384,-0.7193 3.7661,1.7292 7.1787,3.2648 7.1787,3.2648 0,0 6.1333,2.089 7.8089,5.5475 1.6756,3.4585 6.364,6.9171 6.7022,10.1681 0.3381,3.2511 2.2751,5.8934 2.9053,9.9053 0.6303,4.0119 -1.8907,15.5773 -3.843,19.0497 -1.9521,3.4724 -7.3171,11.2195 -13.266,13.6958 -5.9489,2.4763 -14.6187,3.168 -15.4948,3.1819 -0.8763,0.014 -2.6439,3.8459 -8.4854,1.9506 -5.8412,-1.8953 -8.808,-3.2234 -8.808,-3.2234 0,0 -4.3963,1.8815 -7.4861,-0.332 -3.0898,-2.2135 -6.0412,-8.9645 -6.0412,-8.9645 z" fill="#FFFFFF" paint-order="markers stroke fill" transform="translate(-66.703137,-111.86647) translate(-2198.5541,-972.83463)"/>
    <path d="m 2294.8383,1156.454 c -1.3842,-1.0239 -3.5647,-1.3551 -6.417,-0.9749 -3.3798,0.4504 -4.9673,0.064 -7.2908,-1.7681 -1.6334,-1.289 -2.9702,-3.2025 -2.9702,-4.2521 0,-1.0495 -1.2222,-2.4653 -2.7163,-3.1459 -1.4938,-0.6806 -3.2971,-2.5813 -4.0071,-4.2239 -0.7103,-1.6423 -2.2026,-4.1976 -3.3162,-5.6785 -1.637,-2.1766 -1.8915,-3.7604 -1.3284,-8.2669 0.4378,-3.5032 0.2725,-5.8377 -0.4483,-6.2823 -1.6876,-1.0428 -1.3269,-9.4294 0.5095,-11.8573 0.8723,-1.1534 1.586,-3.1536 1.586,-4.445 0,-3.178 3.8136,-7.8171 6.7721,-8.2375 1.3248,-0.1898 2.4561,-1.0716 2.514,-1.9625 0.2266,-3.4806 0.5238,-4.115 3.1615,-6.7526 3.1101,-3.1101 7.6864,-4.332 10.5286,-2.8109 1.2944,0.6928 3.1664,0.5924 5.6427,-0.3031 3.1697,-1.1463 3.9884,-1.0842 5.6595,0.4283 1.3404,1.213 2.4552,1.4515 3.5497,0.7593 2.8731,-1.8168 8.2394,-1.093 12.2936,1.6582 2.1885,1.4852 5.3804,2.7004 7.0931,2.7004 3.0981,0 7.5911,4.1299 7.5911,6.9779 0,0.7076 1.2149,2.4279 2.7002,3.8232 1.5391,1.4457 2.7001,3.7456 2.7001,5.3481 0,1.5468 0.6947,3.8036 1.5437,5.0157 2.0237,2.889 2.6514,15.0357 0.8692,16.8182 -0.733,0.7327 -1.3328,2.9597 -1.3328,4.9483 0,2.5103 -0.8618,4.415 -2.8192,6.2287 -1.5504,1.4369 -3.6162,4.2086 -4.5904,6.1589 -2.4166,4.839 -11.5542,9.1888 -19.4509,9.2598 -3.1897,0.031 -6.3249,0.5774 -6.9669,1.2195 -1.6781,1.6781 -8.5976,1.4384 -11.0601,-0.383 z m 7.1521,-4.2138 c -0.8312,-0.8313 -1.6527,-0.6742 -2.8767,0.5498 -1.5646,1.5646 -1.4635,1.6656 1.1631,1.1635 2.0553,-0.3928 2.5449,-0.8821 1.7136,-1.7133 z m 11.1682,-2.9867 c 2.2708,-1.7862 2.622,-2.589 1.6463,-3.7647 -1.0413,-1.2547 -1.6775,-1.1503 -3.9668,0.6503 -1.4993,1.1797 -3.633,2.1447 -4.741,2.1447 -2.5476,0 -2.6392,1.8386 -0.1255,2.4959 3.5087,0.917 4.2912,0.7508 7.1858,-1.5262 z m -29.0243,-0.9155 c -0.3974,-0.6432 -1.2271,-0.8576 -1.8434,-0.4767 -0.7259,0.4482 -0.6154,1.0052 0.3132,1.5789 1.7332,1.0713 2.5222,0.5031 1.5302,-1.1022 z m 40.6205,-1.1913 2.55,-2.2173 -2.7004,0.7131 c -1.4849,0.3922 -3.4119,1.39 -4.2818,2.2173 -2.6875,2.5562 1.4354,1.893 4.4322,-0.7131 z m -27.9291,0.4734 c 0.3652,-0.3653 -0.061,-1.7725 -0.9504,-3.1276 -1.4332,-2.1875 -1.9717,-2.3287 -4.8041,-1.2595 -3.2965,1.2442 -4.2037,3.3819 -1.8401,4.3356 1.9632,0.7921 6.8212,0.8248 7.5946,0.052 z m 10.2569,-5.3381 c 2.8073,-1.9662 3.0679,-4.4315 0.7407,-7.0033 -1.4525,-1.605 -2.1616,-1.6625 -5.6706,-0.4623 -4.5093,1.5424 -5.7104,4.5928 -2.9107,7.3924 2.2062,2.2063 4.7612,2.2302 7.8406,0.073 z m -27.9875,-4.2625 c -2.9916,-5.0708 -4.1749,-5.6081 -4.1749,-1.8964 0,3.517 1.7136,5.6803 4.4997,5.6803 1.7617,0 1.7369,-0.2908 -0.3248,-3.7839 z m 43.3493,1.6236 c 1.1879,-1.1882 2.16,-3.3235 2.16,-4.745 0,-2.9279 -2.7475,-4.5778 -3.6605,-2.198 -0.3295,0.8585 -1.8279,2.1212 -3.3296,2.8054 -3.8125,1.7369 -3.8345,6.2979 -0.031,6.2979 1.4853,0 3.6726,-0.972 4.8605,-2.1603 z m -30.8503,-2.7874 c 1.5563,-1.5562 1.5156,-1.9512 -0.4626,-4.466 -1.1937,-1.5174 -2.1701,-3.4224 -2.1701,-4.2335 0,-0.856 -1.1423,-1.4742 -2.7234,-1.4742 -5.7495,0 -5.8882,8.492 -0.1776,10.7934 3.3082,1.3328 3.6144,1.2985 5.5325,-0.6197 z m 42.7634,-1.593 c 1.6263,-3.039 0.9601,-4.1678 -1.8383,-3.1146 -1.6934,0.6371 -2.1845,1.5024 -1.7641,3.1085 0.7409,2.8342 2.0877,2.8364 3.6024,0 z m -63.5599,-3.4144 c -0.7749,-0.7749 -1.278,-0.8389 -1.278,-0.1622 0,1.4417 1.2774,2.7191 1.9981,1.998 0.3068,-0.3067 -0.031,-1.1331 -0.7201,-1.8361 z m 46.204,-2.13 c 1.9809,-2.1257 3.1496,-8.4368 1.5627,-8.4368 -0.3518,0 -1.8756,0.9721 -3.3859,2.16 -1.5104,1.1883 -3.896,2.1604 -5.3007,2.1604 -2.7831,0 -3.164,1.1637 -1.4366,4.3914 1.4978,2.799 5.8264,2.66 8.5605,-0.2756 z m -13.5363,-1.4935 c 2.1676,-2.1673 2.1973,-2.025 -1.1133,-5.3356 -2.2267,-2.2268 -3.4615,-2.6679 -5.9406,-2.1236 -2.5666,0.5637 -3.1296,1.2455 -3.1296,3.7883 0,4.9173 6.5691,7.2856 10.1835,3.6709 z m -25.0814,-3.9116 c -0.7171,-0.717 -1.3037,-2.6646 -1.3037,-4.328 0,-2.2473 -0.5254,-3.024 -2.0446,-3.024 -3.8685,0 -4.5656,6.3508 -1.0799,9.8363 2.0863,2.0865 2.42,2.1321 4.0041,0.5477 1.3496,-1.3496 1.4427,-2.0134 0.4241,-3.032 z m 52.7722,3.4107 c 2.4387,-1.3052 2.7259,-5.1589 0.6007,-8.0651 -1.375,-1.8805 -1.6223,-1.9016 -3.2466,-0.2786 -0.9672,0.9669 -2.7625,2.0768 -3.9903,2.4665 -1.4087,0.447 -2.0039,1.3025 -1.6135,2.3192 0.3399,0.8861 0.6182,2.3003 0.6182,3.1429 0,1.8113 4.5582,2.0583 7.6315,0.4136 z m -42.1947,-7.9989 c 0,-0.8561 -0.4862,-1.857 -1.0802,-2.2241 -0.5942,-0.3671 -1.0801,-1.6107 -1.0801,-2.7638 0,-2.3896 -1.1347,-2.69 -3.0244,-0.8003 -1.397,1.3971 -1.7494,5.4511 -0.5759,6.6246 1.3759,1.3759 5.7606,0.7394 5.7606,-0.8364 z m 25.71,-2.8875 c 0.2786,-2.4087 -0.1776,-2.9246 -3.1055,-3.5103 -5.4961,-1.0991 -6.4032,-0.8444 -6.4032,1.7976 0,3.4814 2.1355,5.2281 5.9354,4.8552 2.5951,-0.2541 3.3112,-0.8845 3.5733,-3.1425 z m -16.1884,0.2694 c 0.7816,-0.4957 2.0886,-2.1879 2.9046,-3.761 1.3306,-2.5645 1.2749,-2.9714 -0.5398,-3.9428 -5.9718,-3.1958 -11.5144,0.8875 -8.1582,6.0101 1.7982,2.7442 3.3988,3.212 5.7934,1.6937 z m 25.9166,-3.6563 c 0.3787,-4.5732 0.1102,-4.745 -3.6134,-2.306 -1.6313,1.0688 -2.6622,2.7699 -2.6622,4.3923 0,2.2512 0.4446,2.5966 2.9702,2.306 2.5789,-0.297 3.0145,-0.8756 3.3054,-4.3923 z m 12.7933,0.6176 c -0.3099,-0.3102 -1.1056,-0.2297 -1.7681,0.1806 -0.8644,0.5343 -0.8086,1.2219 0.199,2.4365 1.2635,1.5247 1.4387,1.5067 1.7678,-0.1806 0.2021,-1.0303 0.1133,-2.1267 -0.199,-2.4365 z m -66.5934,-0.4749 c 0,-0.594 -0.4859,-0.7798 -1.0799,-0.4127 -0.5942,0.3671 -1.0801,1.1536 -1.0801,1.7476 0,0.5943 0.4859,0.7798 1.0801,0.4127 0.594,-0.3671 1.0799,-1.1536 1.0799,-1.7476 z m 63.5326,-4.5273 c 0.5113,-2.6542 -1.7311,-5.0662 -4.7095,-5.0662 -3.3446,0 -3.7646,1.9337 -1.089,5.0129 2.5109,2.8899 5.2474,2.915 5.7985,0.052 z m -52.2671,0.4568 c 0.3255,-0.5269 -0.1317,-1.5584 -1.0165,-2.2926 -0.8845,-0.7339 -1.608,-2.4904 -1.608,-3.9028 0,-2.7582 -1.9987,-3.3776 -4.1045,-1.2718 -3.0877,3.088 -0.7336,8.4249 3.7166,8.4249 1.3312,0 2.6869,-0.4311 3.0124,-0.9577 z m 12.1274,-5.523 c 1.2069,0 1.1545,-0.5263 -0.2695,-2.7001 -1.9812,-3.0241 -5.9308,-3.5752 -7.9741,-1.113 -1.0392,1.252 -1.0205,2.2584 0.089,4.765 l 1.4063,3.1771 2.6248,-2.0645 c 1.4436,-1.1356 3.2993,-2.0645 4.1241,-2.0645 z m 22.6749,-8.0872 c 1.7426,-1.0227 1.5789,-1.5106 -0.6056,-3.6948 -3.0743,-3.0746 -8.0538,-2.7415 -8.5262,0.5704 -0.2266,1.592 0.433,2.3161 2.0039,2.8988 3.1728,1.177 5.4596,1.2046 7.1279,0.2256 z m 10.6666,3.7194 c 0.9761,-1.5789 -1.5094,-4.2729 -3.9416,-4.2729 -2.4977,0 -2.5584,0.864 -0.2419,3.4254 2.0305,2.2433 3.1762,2.4757 4.1823,0.8475 z m -24.9598,-2.7684 c 0.9396,-0.3607 1.7087,-1.248 1.7087,-1.9717 0,-1.9767 -5.0692,-6.3457 -6.4048,-5.5203 -1.3612,0.8414 -0.3184,6.1421 1.4406,7.3211 1.4503,0.9721 1.2017,0.959 3.2555,0.1715 z m -13.6827,-2.3272 c 3.8666,-0.5438 3.7802,-0.4571 2.8547,-2.8694 -0.9041,-2.356 -3.9077,-2.138 -7.2997,0.5303 -3.2344,2.5442 -3.8535,4.9103 -0.9556,3.6529 1.0395,-0.4513 3.4699,-1.0425 5.4006,-1.3138 z" fill="#00B894" transform="translate(-66.703137,-111.86647) translate(-2198.5541,-972.83463)"/>
</svg>