<?xml version="1.0" ?><svg height="72.128952mm" viewBox="0 0 84.749229 72.128952" width="84.749229mm" xmlns="http://www.w3.org/2000/svg">
    <path d="m -4869.8267,9766.8287 c 23.7281,-13.485 77.2998,-31.262 108.7946,-35.444 31.4947,-4.183 68.9215,-4.458 89.9588,22.345 21.0373,26.803 72.5297,64.228 31.9229,104.736 -40.6069,40.507 -47.2728,41.608 -66.4754,42.819 -19.2026,1.21 -15.8391,7.43 -29.9048,24.766 -14.0656,17.337 -63.2952,70.173 -99.4989,64.944 -36.2037,-5.228 -99.1933,-53.826 -96.9306,-93.893 2.2628,-40.067 46.4778,-120.257 62.1334,-130.273 z" fill="#FFFFFF" style="font-variation-settings:normal" transform="translate(-337.86948,-51.626043) matrix(0.26294155,0,0,0.26294155,1636.4932,-2505.2173)"/>
    <path d="m -4842.9594,9997.1674 c -31.78,-3.096 -56.383,-22.061 -83.999,-64.755 -10.51,-16.244 -11.872,-21.332 -11.872,-44.312 0,-23.447 1.314,-28.097 13.554,-48.019 7.456,-12.132 19.709,-32.22 27.228,-44.642 15.794,-26.0845 43.313,-46.5305 73.241,-54.4155 51.838,-13.661 69.772,-17.025 90.799,-17.025 36.772,0 50.201,5.888 77.497,33.976 40.965,42.1545 49.568,70.1565 29.889,97.2885 -22.085,30.456 -56.313,52.853 -81.022,53.017 -10.2,0.06 -12.805,1.889 -16.061,11.22 -2.134,6.129 -7.021,12.821 -10.855,14.874 -3.837,2.053 -10.284,10.216 -14.331,18.146 -8.06,15.799 -24.788,30.182 -44.489,38.249 -19.359,7.925 -25.607,8.733 -49.579,6.398 z m 16.594,-24.462 c 0,-1.114 -2.797,-7.338 -6.21,-13.828 -4.573,-8.692 -6.013,-19.648 -5.459,-41.597 0.664,-26.37 -0.307,-31.355 -8.429,-43.326 -10.641,-15.678 -7.285,-17.777 6.454,-4.041 11.723,11.725 15.111,26.122 12,51.02 -3.19,25.524 7.961,54.349 19.829,51.246 8.426,-2.203 9.666,-8.868 3.708,-19.994 -2.152,-4.024 -3.302,-11.798 -2.555,-17.273 l 1.361,-9.959 4.39,9.22 c 2.414,5.07 6.466,12.536 9.007,16.592 2.54,4.055 5.049,8.082 5.579,8.951 0.528,0.866 5.882,-3.141 11.9,-8.909 13.447,-12.881 11.985,-24.944 -4.754,-39.237 -8.895,-7.595 -11.804,-13.578 -13.418,-27.596 -1.897,-16.446 -3.332,-18.595 -17.736,-26.528 -10.018,-5.52 -15.667,-11.195 -15.667,-15.733 0,-6.913 0.192,-6.906 7.37,0.276 4.058,4.058 9.642,7.376 12.41,7.376 2.768,0 9.405,3.44 14.747,7.641 7.728,6.08 9.72,10.799 9.721,23.047 0,13.007 2.155,17.444 13.827,28.518 15.485,14.691 25.527,15.086 29.027,1.144 3.156,-12.578 -0.109,-37.273 -7.141,-53.898 -4.793,-11.341 -7.715,-13.828 -16.27,-13.828 -11.665,0 -24.788,-12.492 -21.666,-20.627 2.606,-6.79 11.193,-6.613 16.969,0.349 2.524,3.041 7.389,5.53 10.807,5.53 3.42,0 9.188,2.17 12.812,4.82 7.246,5.299 20.628,39.756 20.628,53.114 0,7.072 1.942,8.428 11.984,8.387 21.81,-0.09 27.715,-3.413 30.269,-17.027 2.017,-10.753 0.521,-15.063 -9.705,-27.974 -9.518,-12.02 -28.754,-50.512 -28.845,-57.723 -0.06,-4.885 12.237,10.225 17.289,21.24 3.359,7.327 13.287,21.887 22.064,32.353 11.488,13.706 15.234,20.925 13.372,25.78 -3.646,9.494 17.303,-7.718 27.889,-22.918 14.037,-20.149 9.779,-34.809 -20.595,-70.8895 -23.435,-27.843 -29.529,-32.64 -48.136,-37.898 -21.453,-6.06 -38.282,-5.578 -70.895,2.047 -48.286,11.285 -64.08,16.493 -81.961,27.022 -15.721,9.258 -19.6,14.5375 -39.568,53.8345 -23.756,46.755 -29.597,70.297 -22.662,91.314 4.013,12.159 33.215,43.392 52.009,55.623 8.469,5.512 44.25,9.037 44.25,4.362 z m -54.465,-65.266 c -2.061,-2.534 -4.699,-12.076 -5.865,-21.202 -1.167,-9.127 -3.179,-23.646 -4.469,-32.263 -3.394,-22.643 2.906,-19.193 10.16,5.562 11.12,37.94 11.206,61.487 0.16,47.903 z m 214.762,-60.84 c -4.932,-24.031 -9.675,-37.823 -14.749,-42.897 -9.214,-9.213 -6.011,-10.563 5.541,-2.334 10.053,7.16 22.21,34.805 22.21,50.511 0,9.255 -10.929,4.816 -13.002,-5.28 z m -74.978,-78.4785 c -6.04,-5.028 -14.507,-7.33 -27.655,-7.51 -13.988,-0.193 -17.018,-1.089 -11.576,-3.427 19.267,-8.28 57.153,0.337 57.153,12.998 0,7.476 -7.512,6.612 -17.922,-2.061 z" fill="#00B894" transform="translate(-337.86948,-51.626043) matrix(0.26294155,0,0,0.26294155,1636.4932,-2505.2173)"/>
</svg>