<?xml version="1.0" ?><svg height="112.02838mm" viewBox="0 0 98.235329 112.02838" width="98.235329mm" xmlns="http://www.w3.org/2000/svg">
    <path color="#000" d="m 4171.0321,4126.438 c -30.0258,0.5056 -72.0825,31.977 -94.3078,73.1974 0,0 -36.3972,71.1972 5.9623,105.8754 42.3594,34.6783 108.3907,-0.32 134.4649,-50.6956 26.0742,-50.3755 -1.8685,-111.4828 -30.8794,-125.3381 -4.533,-2.1649 -9.6797,-3.1328 -15.24,-3.0391 z m 127.8324,62.6663 c -24.6783,0.021 -42.8624,12.75 -49.3205,27.4297 0,0 -15.3049,116.9282 34.1339,140.4088 49.4389,23.4805 112.434,-8.9852 130.5881,-40.54 18.154,-31.5548 -10.6794,-74.8816 -61.3151,-108.8391 -19.7796,-13.2645 -38.267,-18.4728 -54.0864,-18.4594 z m -52.6063,176.1643 c -21.6461,-0.2233 -48.1131,8.9869 -81.7885,25.9719 -59.8672,30.1957 -75.328,56.4693 -59.7855,88.0712 29.3581,68.9023 77.9591,67.0511 142.6784,42.1101 64.7193,-24.9411 69.4885,-109.459 41.7752,-137.7304 -12.1247,-12.3688 -26.0437,-18.249 -42.8796,-18.4228 z" fill="#FFFFFF" overflow="visible" paint-order="fill markers stroke" transform="translate(112.34834,187.80014) matrix(0.26458333,0,0,0.26458333,-1185.514,-1278.0502)"/>
    <path d="m 4150.1273,4123.329 c -5.0004,0 -19.4493,6.0338 -23.6396,9.8722 -2.0141,1.8449 -6.6767,5.7277 -10.36,8.6278 -15.4531,12.1673 -32.5782,34.5541 -42.7543,55.8904 -8.2475,19.0859 -18.2577,45.8765 -17.2428,63.3621 0.7387,8.3188 4.3185,21.4232 8.7272,31.9525 2.3844,5.6946 11.8,14.4929 24.1053,22.5259 9.5734,6.2495 12.8731,7.5456 25.0662,9.8428 3.4558,0.651 8.5452,0.9918 11.3098,0.7566 12.9329,-1.1004 28.0721,-3.4357 32.2158,-4.9684 8.5999,-1.4294 16.5321,-5.3592 23.3689,-9.4764 9.4753,-5.7246 21.4778,-17.6631 26.4192,-26.2774 1.7843,-3.1102 3.9327,-6.5032 4.7732,-7.5399 0.8405,-1.0368 3.7127,-5.9882 6.3839,-11.0025 5.8086,-5.4985 6.3789,-16.1479 9.3807,-21.9055 11.0209,-56.7286 3.825,-79.1347 -22.7964,-108.5611 -5.5515,-6.1521 -15.2019,-10.9996 -28.1826,-14.1557 -9.7171,-4.1761 -17.1869,0.9129 -26.7745,1.0566 z m 10.6877,12.5965 c 3.4273,-0.038 4.6318,3.6953 4.6572,14.4209 0.015,6.2859 -0.7824,9.1074 -4.799,16.9648 -5.5621,10.8803 -13.7873,21.4551 -21.298,27.3818 -2.8816,2.2739 -7.5015,5.9306 -10.2661,8.1253 -7.4087,5.8816 -23.624,22.6283 -28.5674,29.5043 -11.6406,16.1913 -17.0147,37.5573 -14.5644,57.9098 1.1559,9.6015 3.502,12.7972 9.3955,12.7972 h 4.2043 v -13.1323 c 0,-9.1321 0.478,-13.4385 1.5702,-14.1373 0.864,-0.5527 2.5845,-2.9836 3.8234,-5.4027 4.5802,-8.9436 17.6382,-20.7649 31.0487,-28.1072 9.4984,-5.2004 18.6398,-13.8812 37.683,-35.787 2.0097,-2.3117 6.2281,-9.3816 9.3734,-15.7094 4.3782,-8.8087 5.9615,-13.6549 6.7576,-20.6776 1.7549,-5.5964 -0.6944,-10.4162 -1.3383,-15.043 -0.354,-2.6394 -1.8445,-7.2829 -3.3116,-10.3196 -3.647,-7.548 -3.4023,-8.1352 2.0948,-5.0456 4.5706,2.5687 11.0201,10.6795 14.1944,17.852 1.2351,2.7908 1.1544,3.9423 -0.4492,6.3895 -1.2976,1.9803 -2.4464,8.873 -3.4109,20.4734 -2.2259,26.7727 -4.5622,39.7009 -8.7291,48.3025 -11.1703,19.5354 -27.0446,44.5407 -44.8271,57.1329 -4.0746,2.7553 -7.6914,5.3859 -8.037,5.8464 -0.3455,0.4604 -4.0206,2.3503 -8.1676,4.1988 -6.1024,2.7202 -8.6709,3.2154 -13.471,2.5974 -4.9908,-0.6425 -6.3546,-0.3402 -8.6075,1.9126 -1.947,1.947 -2.3013,3.0537 -1.296,4.0589 0.7602,0.7603 1.3825,1.8365 1.3825,2.3894 0,1.4982 -1.41,1.1582 -6.2827,-1.5095 -2.419,-1.3244 -5.5548,-2.4302 -6.9674,-2.4592 -10.2468,-3.6097 -19.8606,-24.2363 -21.9644,-32.2085 -3.3231,-12.9934 -2.472,-24.2537 3.1109,-41.1695 5.23,-15.8459 8.0247,-22.3173 15.2216,-35.2439 7.3658,-13.23 8.3453,-14.8047 10.6086,-17.079 1.0415,-1.0464 2.738,-3.5685 3.7699,-5.6034 2.4809,-4.8917 22.2288,-24.6907 27.0155,-27.0855 2.0701,-1.0356 4.0466,-2.2296 4.3922,-2.6526 2.2008,-2.694 21.0057,-9.8294 26.051,-9.8851 z m 52.413,39.9509 2.1575,8.5983 c 1.7962,7.1593 1.9681,10.8071 1.0271,21.7933 -2.0961,24.4722 -4.8945,34.8523 -14.8018,54.9147 -7.4992,15.1862 -15.5873,26.9325 -26.1577,34.3328 -9.9464,6.9634 -15.8245,8.7431 -24.9816,12.0259 -3.9986,1.4335 -8.8122,2.0449 -10.3673,2.4979 -1.736,0.5059 -2.8275,0.2818 -2.8275,-0.5798 0,-0.7718 0.8482,-1.4027 1.885,-1.4027 2.7454,-1.2667 4.9018,-3.3083 7.5399,-4.3314 11.9692,-6.3111 23.0152,-17.6766 30.5278,-27.0487 10.3665,-13.3524 15.3394,-20.0412 15.3394,-20.6298 0,-0.3262 2.2625,-3.998 5.0272,-8.1603 2.7646,-4.1622 5.0272,-8.3308 5.0272,-9.2628 0,-0.9322 0.5128,-2.2317 1.1413,-2.8883 2.6375,-2.7557 5.2687,-16.2173 7.2988,-37.3425 z m -41.4786,5.2573 c 0.3646,0 -0.3433,1.8003 -1.5721,4.0001 -2.1206,3.7958 -5.3008,6.2102 -5.215,3.9595 0.046,-1.2122 5.7994,-7.9596 6.7871,-7.9596 z m 88.3933,11.3101 c -19.9718,16.3785 -22.8478,39.7308 -22.9253,53.4088 -0.02,11.0585 0.3755,23.7821 0.8799,28.2746 3.2069,28.563 5.0883,35.7398 13.134,50.1269 5.868,10.4928 23.8075,28.566 32.446,32.6889 6.5271,4.7354 14.7399,7.3855 20.7347,9.839 18.217,7.3365 34.3919,7.3954 50.2649,5.2205 6.7404,-0.9405 12.6462,-2.8941 20.7347,-6.8606 16.6254,-8.1529 18.8204,-9.5418 22.1282,-14.0048 1.6534,-2.2305 3.5704,-4.1058 4.2615,-4.1676 1.863,-0.1666 9.2417,-10.721 10.2202,-14.6196 0.4662,-1.8579 3.6537,-9.074 7.0851,-16.0353 4.7686,-9.6739 6.5245,-14.8786 7.4497,-22.0822 1.5072,-11.7338 0.8532,-20.5032 -2.0156,-27.0174 -1.2176,-2.7646 -2.9612,-6.7237 -3.8749,-8.7972 -4.023,-9.1296 -29.725,-38.3432 -40.8546,-46.4359 -12.0079,-8.7314 -30.3374,-16.6155 -54.6644,-23.5144 -28.2436,-12.6798 -57.4406,-5.1031 -65.0041,3.9763 z m 43.6398,8.0109 c 29.0754,7.1031 29.4799,7.2415 50.8944,17.4361 6.566,3.1258 13.2975,6.8796 14.9583,8.3406 1.6609,1.4612 3.4631,2.6563 4.0056,2.6563 2.8905,0 20.8715,19.9871 29.3921,32.6724 12.1283,18.0563 14.4778,22.6357 14.4778,28.225 0,4.3197 -0.1394,4.4473 -4.8173,4.4473 -2.6496,0 -5.0876,-0.2701 -5.4175,-0.6001 -0.3299,-0.33 -1.697,-0.8003 -3.0373,-1.0456 -1.3404,-0.2452 -4.9759,-1.1648 -8.0793,-2.0432 -3.1034,-0.8784 -7.1654,-1.7895 -9.0255,-2.0249 -13.6437,-1.7267 -40.3342,-22.6793 -56.6874,-44.5014 -9.1988,-12.2748 -24.8276,-26.8289 -32.9686,-30.7008 -7.2115,-3.4297 -8.0938,-3.5515 -21.6552,-2.9655 -7.7756,0.336 -14.1374,0.3914 -14.1374,0.1233 4.8769,-10.1434 5.6705,-10.2326 14.3104,-11.8271 9.8643,-0.5097 20.4604,0.043 27.7869,1.8076 z m -25.2043,26.5481 1.3272,5.6549 c 1.3847,5.8977 3.8323,9.0602 18.5369,23.958 4.3358,7.5151 10.1828,10.474 15.0909,15.1221 4.7287,4.521 21.7213,17.4692 22.9253,17.4692 0.4495,0 4.0249,2.4565 7.9467,5.4599 9.5973,11.6801 25.9507,11.3707 37.1952,18.3361 0.8384,0.6959 6.1457,1.4647 11.794,1.7083 5.6485,0.2436 10.5593,0.7331 10.9141,1.0879 0.3548,0.3548 -0.2265,2.3937 -1.2922,4.5302 -2.2548,4.5198 -3.7771,4.9498 -21.3202,6.0194 -6.9115,0.4214 -14.5457,1.1489 -16.9648,1.6163 -14.2739,2.7578 -44.1408,-5.7739 -54.7288,-15.6339 -10.8049,-8.5539 -22.1676,-16.6641 -29.944,-26.0789 -7.5027,-9.0834 -19.3012,-28.8923 -27.1704,-22.555 -1.5077,0.6277 -1.8255,2.4143 -2.1214,-0.1615 -0.1573,-4.9798 -2.5973,-21.179 -0.9344,-28.7501 0.6173,-2.8106 1.3374,-3.4705 3.2472,-2.9711 1.3504,0.3531 4.8287,-0.4041 7.7295,-1.6825 2.9007,-1.2784 8.0854,-2.5046 11.5216,-2.7262 z m 11.9984,0.6369 c 4.3258,0.01 19.0538,11.7399 30.3732,24.8894 6.3577,7.3858 14.5686,16.3853 18.2459,19.9984 3.6773,3.6133 6.6859,6.8642 6.6859,7.2252 0,2.1694 -4.4071,-0.8702 -22.9346,-15.8254 -5.3565,-4.3236 -9.7397,-8.2598 -9.7397,-8.7456 0,-0.4858 -5.3716,-6.3068 -11.9375,-12.9371 -6.5661,-6.6304 -11.9376,-12.6312 -11.9376,-13.3348 0,-0.8691 0.4433,-1.271 1.2444,-1.2701 z m -38.955,40.2233 c 0.3515,0.01 2.0035,2.8014 3.6724,6.2016 1.6685,3.4003 4.6689,8.0561 6.6674,10.3472 1.9984,2.2911 5.0107,6.4283 6.6931,9.1929 4.4012,7.2324 18.7146,20.8068 28.2176,26.7615 4.4926,2.8151 9.1512,6.7875 10.3527,8.8267 4.4168,4.7433 15.2533,7.751 21.6846,9.6035 9.9229,2.686 49.8642,3.1011 52.9376,0.5503 1.9248,-1.5973 3.7117,-0.8004 2.5219,1.1248 -1.4448,2.3375 -17.3451,9.0456 -27.3303,11.5308 -10.8121,2.691 -23.1289,3.0828 -35.0009,1.1155 -6.4296,-2.08 -13.4747,-3.5548 -19.078,-6.2385 -11.6554,-5.6496 -18.1028,-9.123 -19.912,-10.7282 -1.0367,-0.9198 -4.693,-4.0179 -8.1253,-6.8846 -10.802,-9.0217 -17.0288,-18.8254 -20.9298,-32.9539 -1.5352,-5.5597 -3.4454,-28.4824 -2.371,-28.4496 z m -14.1005,84.0582 c -4.2006,0 -7.8653,0.4131 -10.0213,1.2868 -1.5877,0.6433 -4.4607,1.5072 -6.3858,1.9199 -2.0917,0.4485 -3.9511,1.9362 -4.6203,3.6964 -0.9161,2.4093 -4.0344,3.909 -17.1361,8.2375 -15.7518,5.2039 -19.5238,6.783 -45.6076,19.1075 -12.4646,5.8895 -24.8801,13.5926 -31.4427,19.507 -1.6737,1.5083 -4.7868,3.7185 -6.9177,4.9112 -4.9692,2.7813 -16.3452,16.4414 -19.494,23.4075 -5.172,11.4439 -6.2572,17.3547 -5.0825,27.7115 1.4311,12.6169 4.7416,24.3059 8.4198,29.7288 1.6064,2.3686 3.2611,5.6646 3.6779,7.3246 0.4166,1.66 2.3815,4.796 4.3664,6.9693 1.985,2.1732 3.6098,4.2901 3.6098,4.7032 0,0.4131 3.8095,3.8204 8.4658,7.5731 16.5727,17.5222 38.089,21.9824 49.4218,25.0053 5.1487,2.2008 37.9624,0.6365 48.9285,-2.3322 50.3049,-10.6773 76.6821,-47.3412 92.097,-85.5935 8.7443,-22.3172 10.1659,-36.7546 4.7731,-48.4517 -5.6596,-12.2756 -7.0693,-14.5062 -12.4751,-19.7462 -3.0163,-2.9239 -7.8281,-7.632 -10.695,-10.4613 -7.8765,-7.7732 -23.682,-18.0484 -32.9135,-21.3992 -5.4766,-1.9879 -13.9675,-3.1116 -20.9685,-3.1055 z m -8.5781,16.7807 c 1.8685,-0.015 3.8575,0.1496 6.3452,0.405 5.1877,0.5326 9.9264,0.8457 10.5294,0.6959 3.1652,-0.7865 17.1033,5.4639 22.1503,9.9329 3.1102,2.7541 6.3642,5.5906 7.2307,6.3029 3.8816,3.1909 -8.8547,16.7592 -20.7145,22.0675 -7.2101,3.2272 -30.7705,9.0013 -40.2252,9.8575 -3.2896,0.2979 -11.0575,0.8992 -17.2612,1.3382 -6.2038,0.439 -11.6082,1.0027 -12.0112,1.2517 -0.4029,0.2491 -4.0926,0.5693 -8.1989,0.7107 -4.6598,1.5666 -12.3969,1.1451 -16.3923,2.4206 -2.0019,0.657 -8.4466,2.6308 -14.3214,4.3847 -5.8748,1.754 -14.8609,5.2888 -19.969,7.8566 -5.4253,2.7272 -11.8276,7.2622 -15.3946,10.9049 -6.8407,6.9859 -8.0026,5.6427 -3.5693,-4.1271 3.5698,-7.8671 8.9534,-14.1965 18.5405,-21.7969 4.6225,-3.6645 9.352,-7.512 10.5092,-8.5487 4.7048,-4.2148 13.4842,-10.0891 21.1931,-14.1814 4.4925,-2.385 10.1462,-5.426 12.5652,-6.7577 4.0486,-2.2287 15.3535,-7.3312 24.5047,-11.0594 2.0735,-0.8448 6.8808,-2.8091 10.6822,-4.3646 13.6774,-5.5968 18.2015,-7.2481 23.8071,-7.2933 z m 55.894,26.9622 c 3.2983,0.2489 10.2913,6.7697 13.4691,13.7877 4.2391,9.3621 3.1713,21.5985 -1.9034,21.8171 -0.7795,0.034 -3.9603,3.1957 -7.0705,7.0262 -5.5331,6.8147 -17.6246,18.1011 -26.3897,24.6318 -12.2856,7.3521 -27.3849,15.0057 -40.2141,19.1517 -3.8013,1.2166 -7.8862,2.704 -9.0769,3.306 -2.9515,1.4918 -22.6505,5.8074 -31.1353,6.8202 -11.1308,1.3286 -41.2066,1.6757 -52.7574,0.6093 -5.8624,-0.5408 -11.2518,-0.7567 -11.9762,-0.4786 -1.503,2.0744 -17.2999,-20.8193 -9.3254,-20.9152 2.636,0 7.5677,-2.1464 8.7124,-3.792 16.6728,-9.4401 38.028,-16.0493 54.6644,-18.2736 15.9937,-1.973 21.2991,-2.1956 28.9043,-1.215 6.4382,0.8303 32.3851,-1.7478 38.2057,-3.7957 9.8341,-1.4599 13.8216,-4.647 22.2553,-9.4156 13.8213,-7.8383 15.1469,-8.6874 19.0651,-12.2027 1.7334,-1.5551 3.8109,-2.8275 4.6167,-2.8275 1.7729,0 6.264,-5.8678 7.5197,-9.8243 0.9908,-3.1221 -1.0089,-6.5127 -3.8399,-6.5127 -1.7921,0 -16.8431,9.8413 -21.2336,13.8833 -3.3697,3.1022 -18.6923,11.0331 -25.7491,13.3273 -3.1102,1.0112 -6.5032,2.1859 -7.5399,2.6102 -2.3417,0.9585 -5.2406,1.4104 -12.9077,2.0157 -11.902,0.7688 -19.8776,1.7367 -31.0745,1.9072 -19.3526,0.2588 -27.7363,0.9231 -33.8688,2.682 -2.3615,0.677 -4.5278,0.9964 -4.8156,0.7087 -1.0283,-1.0283 1.1719,-3.2053 3.2582,-3.2233 1.1688,-0.01 4.3868,-0.8046 7.1515,-1.7671 2.7646,-0.9626 7.572,-2.0692 10.6822,-2.4575 3.1102,-0.3884 13.2891,-1.7943 22.6197,-3.1256 9.3307,-1.3314 18.8777,-2.2847 21.217,-2.117 4.7745,0.3423 24.5568,-3.1952 26.0124,-4.6516 0.518,-0.5184 2.624,-0.9425 4.6793,-0.9425 3.2311,0 14.1167,-4.3276 15.9505,-6.3416 0.3456,-0.3795 2.6064,-2.023 5.0254,-3.6522 6.1558,-4.1458 15.0798,-12.8449 15.0798,-14.6988 0,-1.5248 0.6898,-2.1372 1.7893,-2.0543 z m 0.7253,68.2163 c 2.2755,0 1.3308,2.1663 -5.0715,11.643 -7.4457,11.0215 -27.3563,30.6918 -34.5204,34.1027 -5.2249,3.9207 -12.2884,4.7702 -17.5871,6.9251 -11.3631,3.0295 -23.0474,6.4587 -33.3921,7.5565 -14.6138,1.511 -15.6084,1.4715 -28.8121,-1.1524 -13.1671,-2.6167 -15.1902,-3.5203 -30.4726,-13.6035 -15.744,-10.3877 -16.4783,-12.4752 -2.7115,-7.7203 5.688,1.9646 11.5345,2.6771 25.0165,3.0521 9.6761,0.2692 18.1585,0.5992 18.8497,0.7326 5.3982,1.0423 48.3818,-6.95 48.3818,-8.996 8.0249,-1.5842 17.9693,-8.1595 25.7583,-10.5459 4.4071,-0.1636 33.3037,-18.367 33.3037,-20.9796 0,-0.5578 0.5661,-1.0143 1.2573,-1.0143 z" fill="#00B894" transform="translate(112.34834,187.80014) matrix(0.26458333,0,0,0.26458333,-1185.514,-1278.0502)"/>
</svg>