<?xml version="1.0" ?><svg height="104.70805mm" viewBox="0 0 80.966858 104.70805" width="80.966858mm" xmlns="http://www.w3.org/2000/svg">
    <path d="m 2491.3263,1294.8899 c -8.3384,1.7948 -29.0142,-24.1693 -32.7449,-28.1097 -3.7309,-3.9403 -12.7034,-22.0881 -10.946,-32.3275 1.7576,-10.2394 9.1268,-16.6216 9.1268,-16.6216 0,0 0.5551,-2.3587 2.405,-4.0236 1.85,-1.665 11.1175,-2.1447 11.1175,-2.1447 0,0 -3.1572,-7.0914 4.0188,-5.2789 7.1763,1.8125 12.4905,5.7864 12.4905,5.7864 0,0 16.619,-2.2754 20.7507,1.9424 4.1317,4.2179 17.7292,19.119 14.2759,37.7663 -3.4534,18.6473 -10.2675,40.0973 -30.4943,43.0109 z" fill="#FFFFFF" paint-order="markers stroke fill" transform="translate(-91.7001,0.3067) translate(-2351.756,-1194.2727)"/>
    <path d="m 2482.9881,1296.6847 c -1.7822,-1.1237 -9.3611,-8.3119 -16.8421,-15.9741 -11.2422,-11.5141 -14.3321,-15.4083 -17.8105,-22.4462 -6.4626,-13.0762 -6.5088,-26.638 -0.1194,-34.7781 1.3028,-1.6595 2.3685,-4.2169 2.3685,-5.6828 0,-3.3266 5.3268,-7.1598 11.3663,-8.1803 3.2123,-0.5428 4.2952,-1.2335 4.2952,-2.7402 0,-4.3883 10.4475,-4.7193 16.836,-0.5333 1.3915,0.9117 2.7901,1.6576 3.1079,1.6576 0.3178,0 0.5781,-3.1594 0.5781,-7.0205 0,-5.4198 0.3579,-7.0208 1.5694,-7.0208 1.8162,0 3.8161,6.2704 3.825,11.9927 v 3.8917 l 5.2391,-0.5033 c 5.3497,-0.5141 15.2822,2.7111 15.2822,4.9624 0,0.5627 1.8939,3.3152 4.2086,6.1163 6.3637,7.7011 8.1037,14.5556 7.3759,29.0601 -0.6154,12.2673 -2.0336,18.0508 -7.044,28.7279 -3.2274,6.8777 -12.5126,16.6611 -17.9808,18.9457 -5.2413,2.1901 -12.3655,1.9819 -16.2624,-0.4748 z m 15.2209,-6.6516 c 8.6808,-5.365 17.1663,-21.1514 19.9445,-37.104 2.2335,-12.8261 -1.1212,-24.6577 -8.724,-30.7676 -4.8819,-3.923 -5.9048,-4.1927 -4.2625,-1.124 2.908,5.4336 -3.8005,6.5392 -11.7845,1.9424 -3.2401,-1.8655 -3.8442,-1.9206 -5.4198,-0.4948 -2.5032,2.2653 -11.0169,5.992 -13.7531,6.0202 -3.5393,0.037 -5.3007,-2.7087 -3.8213,-5.9559 l 1.2189,-2.6753 -6.1908,0.6748 c -11.6237,1.2666 -14.8002,5.6059 -14.0844,19.2403 0.6133,11.6782 4.6596,19.3027 17.5224,33.0182 5.2955,5.6467 11.5362,12.3325 13.8682,14.8572 3.4533,3.7383 4.9505,4.5904 8.0661,4.5904 2.104,0 5.4431,-1 7.4203,-2.2219 z m -12.958,-9.8403 c -2.2069,-3.1508 -2.2568,-7.3796 -0.086,-7.3796 1.7797,0 6.1374,6.3482 5.5609,8.1007 -0.6938,2.1089 -3.7763,1.7029 -5.474,-0.7211 z m 13.3986,-3.3831 c 0,-2.7485 1.8324,-5.0766 3.9961,-5.0766 1.4776,0 1.8566,2.9646 0.7486,5.8521 -1.0523,2.7427 -4.7447,2.1389 -4.7447,-0.7755 z m -31.1347,-15.1371 c -2.3805,-2.5338 -3.1278,-6.612 -1.4068,-7.6756 0.5177,-0.32 2.2188,0.9601 3.7802,2.8449 4.9052,5.9207 2.7574,10.2922 -2.3734,4.8307 z m 18.9308,-0.3432 c -0.4167,-0.4164 -0.7575,-2.6205 -0.7575,-4.8978 0,-2.9159 0.4678,-4.1403 1.5823,-4.1403 2.0443,0 4.0491,3.7668 3.6162,6.7954 -0.3359,2.349 -2.9929,3.6909 -4.441,2.2427 z m 17.9939,-2.0198 c -0.7033,-1.833 0.1316,-5.677 1.761,-8.0985 0.9685,-1.4399 1.2079,-1.4399 2.1533,0 1.4709,2.2409 1.3613,6.8641 -0.199,8.4249 -1.7399,1.74 -2.9631,1.6325 -3.7147,-0.3264 z m -28.5102,-17.8901 c -0.9238,-1.7262 -0.9498,-3.0531 -0.095,-4.9262 1.5,-3.292 3.156,-3.2708 3.9897,0.052 1.4179,5.6501 -1.514,9.321 -3.8935,4.8748 z m 19.7151,0.8809 c -1.6943,-2.0621 -2.0734,-8.6563 -0.5275,-9.1725 1.6977,-0.5671 5.1317,6.5315 4.2597,8.8045 -0.7923,2.0642 -2.2228,2.2053 -3.7322,0.368 z m -38.6554,-2.3505 c -0.8162,-3.2527 1.612,-8.5706 4.1351,-9.0565 1.5355,-0.297 1.882,0.4314 1.882,3.9487 0,2.3713 -0.2939,5.0803 -0.6555,6.0199 -1.0308,2.6857 -4.6115,2.0764 -5.3616,-0.9121 z m 51.3575,-4.4725 c -1.3928,-4.2199 -0.962,-5.3975 1.6135,-4.4092 1.9111,0.7333 4.1397,5.7756 3.2148,7.2725 -1.3306,2.1527 -3.6214,0.7942 -4.8283,-2.8633 z m -24.8233,-15.659 c 3.6829,-2.0299 6.8165,-3.0504 8.258,-2.6885 1.4794,0.3714 2.5473,0 2.9414,-1.0297 0.4081,-1.0636 2.1921,-1.638 5.2431,-1.6882 3.5742,-0.058 4.1336,-0.2878 2.4641,-1.0042 -3.4472,-1.4813 -9.6658,-1.218 -11.9446,0.5058 -2.2225,1.6808 -5.8724,2.2047 -5.884,0.8444 0,-0.9351 -5.7529,-4.3687 -9.7141,-5.8065 l -2.7002,-0.9801 2.5915,2.0345 c 2.4873,1.9525 2.5087,2.082 0.54,3.2252 -1.8079,1.0499 -1.6422,1.195 1.3953,1.2241 4.0729,0.04 5.2866,1.4035 2.9631,3.3317 -2.0786,1.725 -4.0785,5.3485 -2.9374,5.3222 0.4666,0 3.5191,-1.4917 6.7838,-3.2907 z m -14.826,-6.0389 c -0.7314,-0.297 -2.1894,-0.3139 -3.2405,-0.04 -1.0507,0.2755 -0.4525,0.5159 1.3297,0.5379 1.7822,0.031 2.642,-0.2021 1.9108,-0.4978 z" fill="#00B894" transform="translate(-91.7001,0.3067) translate(-2351.756,-1194.2727)"/>
</svg>