<?xml version="1.0" ?><svg height="50.271927mm" viewBox="0 0 108.23409 50.271927" width="108.23409mm" xmlns="http://www.w3.org/2000/svg">
    <path d="m 2445.9741,3391.7664 c 1.4693,-4.2455 18.5383,-17.3913 52.9667,-17.8012 34.4284,-0.4096 49.7803,12.0103 50.3391,16.7958 0.5585,4.7852 2.0688,11.9914 -3.6414,16.7208 -5.7105,4.7297 -13.6557,13.1136 -46.5321,12.2013 -32.8765,-0.9125 -50.4219,-9.8364 -51.9527,-13.1135 -1.5312,-3.2772 -1.2415,-9.7944 -1.1796,-14.8032 z" fill="#FFFFFF" paint-order="markers stroke fill" transform="translate(57.834721,-78.545596) translate(-2502.015,-3293.6983)"/>
    <path d="m 2488.5079,3422.0655 c -21.3376,-2.5627 -39.9894,-8.3588 -43.1896,-14.7469 -1.3747,-2.744 -1.5061,-14.187 -0.3825,-17.1424 5.6663,-14.9031 50.8897,-22.9715 82.6122,-14.4822 10.7687,2.882 20.8739,8.2761 22.9587,11.4563 2.0451,3.1201 2.4857,12.2098 1.1285,16.3218 -1.493,4.5238 -7.1829,8.6365 -16.0023,13.0385 -6.6069,3.2978 -9.032,4.0312 -15.6103,4.7226 -12.7276,1.3377 -24.678,1.6533 -31.5147,0.8323 z m 39.1211,-7.4993 c 11.9179,-3.9839 18.9985,-9.0734 20.2939,-14.5871 0.5941,-2.5287 0.544,-2.5062 -1.9362,0.8653 -3.6995,5.0296 -6.0787,6.9802 -11.5858,9.5015 -9.0331,4.1356 -15.9211,5.1473 -35.2703,5.1801 -9.7245,0.022 -17.1234,0.1328 -16.4421,0.2589 7.7919,1.4416 13.6927,1.7703 25.0369,1.3948 11.2393,-0.3719 14.4652,-0.7954 19.9036,-2.6135 z m -47.3793,-0.022 c -0.5949,-0.24 -1.5684,-0.24 -2.1633,0 -0.5951,0.2401 -0.1082,0.4365 1.0815,0.4365 1.19,0 1.6768,-0.1957 1.0818,-0.4365 z m -4.7775,-0.8151 c -0.2875,-0.2875 -1.0338,-0.3182 -1.6586,-0.067 -0.6903,0.2762 -0.4854,0.4811 0.5228,0.5228 0.9124,0.038 1.4233,-0.1665 1.1358,-0.4545 z m -8.4194,-2.4511 c -8.7723,-3.1304 -11.5847,-4.5107 -15.8965,-7.8019 -2.2041,-1.6823 -4.0071,-2.8411 -4.0071,-2.575 0,1.5051 2.1109,3.9253 4.9577,5.685 4.1043,2.5367 15.5526,6.7044 18.4075,6.7013 1.3167,0 -0.038,-0.7878 -3.4616,-2.0094 z m 52.7877,-1.4253 c 13.7853,-2.1645 21.4119,-6.1796 24.972,-13.1472 1.8287,-3.5793 1.9701,-4.4441 1.055,-6.4531 -1.3085,-2.8721 -3.4487,-4.4304 -9.5715,-6.9703 -10.1244,-4.1996 -26.5067,-7.116 -39.8205,-7.0883 -12.9215,0.027 -29.409,3.3272 -37.6017,7.5276 -5.9131,3.0314 -10.8591,8.5483 -10.8591,12.1122 0,5.4922 20.99,13.1404 41.9705,15.2931 5.0987,0.5234 23.3755,-0.2566 29.8553,-1.274 z m -34.9035,-1.9857 c -4.5287,-0.8709 -3.4159,-0.9759 10.8174,-1.0214 16.7346,-0.054 29.3341,-1.62 34.4953,-4.2889 1.5027,-0.7771 2.9501,-1.1951 3.2165,-0.929 0.2662,0.2663 -1.6197,1.4346 -4.191,2.5962 -8.6944,3.928 -32.6301,5.8947 -44.3382,3.6431 z m -9.3922,-4.4488 c -10.712,-2.1327 -16.4966,-5.8159 -16.4966,-10.5032 0,-2.3348 2.8552,-5.5364 4.8554,-5.4442 0.5421,0.024 0.1104,0.6565 -0.9612,1.4035 -2.7389,1.9104 -2.5795,5.7165 0.3353,8.0091 8.0859,6.3604 36.6639,7.6348 58.4482,2.6061 9.7689,-2.2549 11.0115,-3.1748 9.5806,-7.0913 l -1.0267,-2.8096 1.7035,2.0433 c 2.0479,2.456 2.1747,4.7174 0.3663,6.5259 -1.2255,1.2258 -2.7026,1.7327 -11.6435,3.997 -9.9808,2.5279 -35.2584,3.235 -45.1613,1.2634 z m 2.338,-4.3746 c -3.3245,-0.6599 -7.0242,-1.928 -8.2212,-2.818 -2.2076,-1.6416 -3.4756,-5.3387 -1.8307,-5.3387 0.4941,0 0.702,0.5112 0.4624,1.1362 -0.635,1.6549 2.3105,3.964 5.7393,4.4997 2.6876,0.4198 2.7857,0.3667 1.0249,-0.5547 -1.1639,-0.6089 -1.9471,-1.8236 -1.9471,-3.0196 0,-3.5388 2.6763,-4.1061 19.0382,-4.036 8.3293,0.036 17.0913,0.439 19.4711,0.896 3.1186,0.5989 -0.3848,0.7137 -12.548,0.4113 -16.6006,-0.4127 -24.2307,0.3595 -24.2307,2.4525 0,0.4695 1.0711,1.276 2.3799,1.7927 3.0021,1.1848 38.5504,0.4344 41.9707,-0.8858 1.3278,-0.5128 2.3799,-0.5715 2.3799,-0.1328 0,1.8836 -7.0215,2.7805 -26.7779,3.4202 -18.1668,0.5883 -18.207,0.6991 -0.9141,2.5105 l 7.3556,0.7706 -8.6539,0.047 c -4.7595,0.027 -11.3737,-0.4918 -14.6984,-1.1518 z m 29.41,-0.2943 c 0.9517,-0.4497 2.9256,-0.8452 4.386,-0.8786 4.4889,-0.1037 11.4831,-2.6009 12.958,-4.6282 1.3024,-1.7902 1.3794,-1.8035 1.1139,-0.1935 -0.4346,2.6384 -7.0972,5.4861 -14.131,6.04 -4.1265,0.3252 -5.5059,0.2161 -4.3269,-0.3408 z m 32.1063,-2.4589 c 0.2858,-1.4279 0.084,-3.4102 -0.449,-4.4055 -1.3357,-2.4951 -7.937,-6.2063 -14.2619,-8.0169 -2.9041,-0.8314 -4.4121,-1.5392 -3.3514,-1.5732 3.7077,-0.1193 13.1908,3.6454 16.6547,6.6106 3.7548,3.2138 4.6498,6.8594 2.1859,8.9039 -1.1178,0.9278 -1.2255,0.7175 -0.7783,-1.5189 z m -86.4087,-0.7106 c -3.0527,-3.0786 3.4937,-9.8714 11.9333,-12.3822 7.2149,-2.1461 18.577,-3.6172 26.3368,-3.4095 4.2383,0.1125 4.6758,0.2205 1.7534,0.4295 -6.9777,0.4988 -17.6191,2.0803 -23.3651,3.4726 -10.2157,2.4756 -14.8919,5.7277 -15.7483,10.9521 -0.144,0.8757 -0.553,1.2975 -0.9101,0.9375 z m 40.0235,-2.1973 c -1.9029,-0.3375 -0.2947,-0.5423 4.3271,-0.5505 7.1888,-0.022 7.8107,0.2809 1.7307,0.8194 -1.6659,0.1463 -4.3919,0.027 -6.0578,-0.2689 z m 34.0856,-4.2092 c -7.1094,-2.8725 -35.8212,-4.6927 -50.0949,-3.1756 -3.8076,0.4046 -6.7031,0.5092 -6.4344,0.2325 1.2393,-1.2764 15.1246,-3.1315 23.4396,-3.1315 13.0379,-2e-4 35.3501,4.0684 35.3501,6.4459 0,0.5602 0.077,0.5726 -2.2604,-0.3713 z m -10.9367,-7.5135 c 0.5949,-0.2398 1.5684,-0.2398 2.1635,0 0.5949,0.2403 0.1082,0.4365 -1.0817,0.4365 -1.19,0 -1.6768,-0.1957 -1.0818,-0.4365 z" fill="#00B894" transform="translate(57.834721,-78.545596) translate(-2502.015,-3293.6983)"/>
</svg>