<?xml version="1.0" ?><svg height="113.12427mm" viewBox="0 0 273.35132 113.12427" width="273.35132mm" xmlns="http://www.w3.org/2000/svg">
    <path d="m -1024.8631,787.8127 c 0,-10.51869 3.28,-14.13581 8.2231,-17.12928 4.9431,-2.99347 30.35166,-10.47713 30.35166,-10.47713 0,0 9.93241,-14.219 14.41355,-16.83827 4.48114,-2.61927 24.1612,-1.08095 24.1612,-1.08095 0,0 4.75831,-6.4443 9.47044,-9.97823 4.71212,-3.53396 14.87553,-4.90596 14.87553,-4.90596 l 2.21748,-0.99782 c 0,0 3.64958,-7.40053 8.08453,-8.56465 4.43494,-1.16411 15.15271,0.29105 18.80229,2.74403 3.64959,2.45297 8.68511,8.77249 8.68511,8.77249 l 3.049,0.41577 c 0,0 -0.0924,-4.98909 4.66593,-8.56464 4.75832,-3.57553 16.16906,-5.11384 19.44907,-4.69808 3.28002,0.41577 10.575,4.98909 11.31414,9.06354 0.73914,4.07446 25.27411,7.89946 25.27411,7.89946 0,0 7.80738,-1.66307 11.45696,0.78991 3.64959,2.45298 12.93524,15.71572 12.93524,15.71572 0,0 6.32902,0 10.16342,4.94752 3.83437,4.94753 6.4676,12.51437 6.4676,12.51437 0,0 6.65242,0.87313 12.61187,4.73967 5.95945,3.86654 11.17973,9.31299 6.19043,16.46404 -4.9893,7.15108 -26.74824,16.96299 -26.74824,16.96299 0,0 -4.20393,8.56467 -8.68508,9.97823 -4.48114,1.41357 -61.25765,6.36112 -64.99963,6.48584 -3.74197,0.12473 -93.36471,-0.58206 -96.78334,-1.7462 -3.4186,-1.16411 -10.85635,-7.98255 -12.47327,-9.02197 -1.6169,-1.03939 -49.2925,-9.77035 -53.1731,-23.4904 z" fill="#FFFFFF" paint-order="markers stroke fill" transform="translate(-109.9854,-264.34888) translate(1138.2634,-449.13823)"/>
    <path d="m -943.62674,825.42243 c -18.26953,-1.81369 -22.31011,-3.05898 -28.48236,-8.77941 -2.23458,-2.07089 -7.27202,-4.0779 -13.52891,-5.38947 -19.68209,-4.12661 -33.96999,-11.5163 -40.23209,-20.80931 -3.534,-5.24365 -3.2647,-8.10192 1.384,-14.70144 3.5824,-5.08616 16.7071,-11.70315 27.72612,-13.97884 8.25672,-1.7057 8.80246,-2.09225 13.10683,-9.28872 7.76027,-12.97418 15.57345,-16.64378 28.89356,-13.56883 6.93777,1.6016 6.98867,1.58693 11.23026,-3.24402 4.04607,-4.60848 14.25052,-9.36348 20.0939,-9.36348 1.63514,0 2.59428,-1.04108 2.59428,-2.81535 0,-3.13293 4.30537,-6.32535 10.46175,-7.75718 6.58485,-1.53233 18.67984,2.74299 22.89628,8.09303 3.17924,4.03449 3.63945,4.2399 3.65332,1.63214 0.0389,-5.68399 11.0586,-11.97412 20.976,-11.96443 6.45131,0 14.08363,4.33031 16.3246,9.24829 1.2882,2.82763 2.67961,3.56979 6.73556,3.59504 2.81165,0 7.82096,1.26056 11.13155,2.76395 3.73257,1.69402 7.79121,2.46812 10.68092,2.03666 5.2154,-0.77869 13.40545,3.42287 14.88658,7.63692 1.25507,3.57218 7.77904,10.31662 9.97829,10.31662 2.83082,0 13.26282,11.02476 13.26282,14.01597 0,1.8589 1.76249,3.13693 6.05248,4.3894 8.14843,2.378 16.1184,8.00221 18.09198,12.76739 1.99853,4.82436 0.1532,10.44977 -5.36541,16.35933 -3.92111,4.19827 -16.30993,10.81786 -20.29252,10.84281 -1.22443,0 -4.06603,1.93455 -6.31517,4.28261 -6.78776,7.08458 -16.77373,9.82278 -43.95222,12.05227 -35.87036,2.942 -90.72587,3.73966 -111.9924,1.62805 z m 110.36914,-7.91937 c 25.28336,-2.44557 39.05999,-4.9108 37.29541,-6.67538 -0.32308,-0.32318 -6.28414,0.42977 -13.24576,1.67506 -22.76952,4.07261 -105.46145,5.64447 -145.81153,2.77183 -7.28261,-0.5187 -8.50743,-0.34304 -5.74279,0.82321 11.40772,4.81148 84.00758,5.61153 127.50467,1.40528 z m 21.60957,-12.9669 c 29.06803,-4.43452 42.90385,-9.47216 48.1959,-17.54873 1.73903,-2.65406 1.94603,-4.22093 0.83399,-6.2995 -1.45359,-2.71635 -15.47285,-12.54981 -16.38439,-11.49246 -2.45564,2.84749 -4.29408,8.79717 -4.34688,14.06797 -0.0659,6.32695 -0.16538,6.4582 -7.89681,10.30765 -10.00154,4.97876 -26.58334,7.34039 -44.14764,6.28702 -9.41517,-0.5643 -16.12728,-0.18554 -22.07357,1.2439 -11.87002,2.85447 -46.7002,2.83092 -54.82876,-0.0389 -3.96712,-1.40009 -11.42598,-2.13626 -21.63592,-2.13626 -14.06008,0 -16.02358,-0.32298 -20.11456,-3.31229 -3.17545,-2.32051 -8.13106,-3.80843 -16.54517,-4.96938 -16.76464,-2.31242 -28.83518,-10.51644 -22.39804,-15.22303 2.5292,-1.84962 3.33604,-10.67424 0.97551,-10.67424 -3.49823,0 -20.97273,7.56426 -23.98863,10.3845 -7.9085,7.39419 -7.1087,11.20571 3.5622,16.97524 10.8956,5.89069 23.45657,9.38533 42.17074,11.73239 22.52859,2.82543 27.68041,3.02075 88.34558,3.35251 45.27066,0.24652 53.19212,-0.0519 70.27645,-2.65866 z m -47.24354,-9.24241 c 6.57966,-1.73704 12.14638,-2.04704 24.20983,-1.34909 25.39584,1.46976 48.35749,-3.27386 47.42649,-9.79743 -0.37527,-2.61953 -0.72257,-3.99384 -5.47248,-1.87502 -2.16471,0.96562 -3.42764,0.42607 -7.22167,-0.0121 -6.757,6.69269 -14.53833,5.86451 -20.35637,3.38092 -3.60891,-1.54022 -4.9592,-1.35009 -10.56644,1.48861 -7.58582,3.84017 -23.54103,4.56936 -28.03773,1.28122 -3.12365,-2.28407 -7.35995,-0.94756 -13.97634,4.40997 -2.21382,1.79313 -4.90002,3.25969 -5.96815,3.25969 -1.06893,0 -2.40115,0.74076 -2.96067,1.64621 -1.28381,2.07738 10.62464,0.81353 22.92353,-2.43299 z m -61.61363,0.78678 c 16.96217,0 17.0484,0 13.74489,-2.69189 -2.32939,-1.88595 -4.21733,-2.35225 -6.30808,-1.55719 -1.77178,0.6733 -8.10571,0.11728 -15.58753,-1.36625 -12.53992,-2.48779 -17.8192,-5.69278 -17.8192,-10.81666 0,-2.54617 -15.92029,-1.01085 -17.516,1.68873 -0.76092,1.28671 -4.04686,1.92617 -9.89754,1.92617 -12.05606,0 -8.832,2.19295 6.05209,4.11613 8.59576,1.11075 12.72936,2.31672 14.2586,4.16025 3.53066,4.25556 7.56425,6.04 11.90954,5.2683 2.25184,-0.39973 11.77511,-0.72759 21.16323,-0.72759 z m 29.61617,-5.34036 c 0.0439,-2.33688 0.16528,-2.33209 1.99414,0.0778 1.76818,2.33149 2.39267,2.38279 6.71939,0.55244 10.16193,-4.29868 13.78791,-13.45965 7.99413,-20.19561 -2.7902,-3.24342 -4.18041,-3.8243 -7.28859,-3.04461 -2.11202,0.53048 -5.17439,2.29826 -6.80483,3.9288 -2.71764,2.71754 -2.77493,3.15439 -0.68627,5.24315 1.77995,1.77965 2.65506,1.90212 3.99756,0.55942 2.53779,-2.53749 5.4221,-2.08866 5.4221,0.84406 0,6.18144 -9.17504,8.19983 -14.24143,3.13334 -4.27702,-4.27732 -3.58496,-9.51678 1.99384,-15.09568 4.07561,-4.07521 5.85916,-4.84203 11.26659,-4.84203 5.4255,0 6.99745,0.68128 10.11113,4.38172 2.02757,2.40974 3.68686,5.29355 3.68686,6.40859 0,3.06996 1.90751,2.45276 6.17135,-1.99823 3.78837,-3.95384 3.80763,-4.06872 1.11315,-6.5073 -4.01343,-3.63207 -11.61945,-7.38872 -21.32586,-7.38872 -8.05272,0 -12.7198,1.81813 -17.81278,6.73179 -5.36505,5.17615 -5.59846,6.00198 -3.16657,6.86262 2.44777,0.86622 2.27001,1.28172 -1.78015,4.16563 -3.13962,2.23567 -4.49629,4.35687 -4.4914,7.02261 v 3.8193 l 3.42517,-4.27242 c 4.22392,-5.26751 5.90087,-4.16873 2.87992,1.88694 -2.18108,4.37154 -1.82048,7.36984 0.88519,7.36984 0.73677,0 1.34,-0.96124 1.34,-2.13597 0,-1.17512 0.64056,-2.13636 1.42405,-2.13636 0.78338,0 1.42434,1.17472 1.42434,2.61064 0,4.74961 5.65565,6.73706 5.74168,2.0176 z m -29.74153,-10.54998 c 5.3248,-5.70047 5.00382,-10.26693 -0.76801,-10.92555 -2.33837,-0.26659 -4.63632,0.34693 -5.3185,1.42394 -1.89973,2.9966 -1.46187,3.82061 1.60399,3.01886 4.07601,-1.06574 3.75164,3.6157 -0.35541,5.14264 -6.36687,2.36672 -10.05024,-1.02741 -7.87765,-7.25994 3.08493,-8.84927 14.24782,-10.60238 19.2173,-3.01786 l 2.34216,3.57458 2.70327,-5.2702 c 2.70257,-5.2673 2.70257,-5.27139 -0.50243,-8.68259 -2.15502,-2.29406 -4.78214,-3.41259 -8.01388,-3.41259 -3.98499,0 -6.39931,1.55299 -14.1054,9.07153 -7.78752,7.5987 -9.22125,9.73216 -8.82891,13.14017 0.96813,8.40832 13.20085,10.37282 19.90417,3.19701 z m 6.91023,1.41216 c 0,-1.69711 -0.18165,-2.81894 -0.40372,-2.49237 -0.22197,0.32697 -1.26166,1.71488 -2.31033,3.08533 -1.63284,2.13347 -1.57525,2.49237 0.40362,2.49237 1.42025,0 2.31043,-1.1889 2.31043,-3.08533 z m 108.19664,-2.57471 c 4.00702,-3.8346 4.96539,-9.31696 3.04391,-15.73165 -1.82387,-6.08641 -8.37419,-11.09622 -15.72605,-12.02632 -3.65613,-0.463 -4.37104,-0.0699 -4.37104,2.41213 0,2.83182 -0.12117,2.85398 -2.72972,0.49445 -2.19974,-1.99055 -3.31708,-2.15603 -5.75416,-0.85175 l -3.02444,1.61866 3.26178,2.73511 c 5.35799,4.49283 1.0338,5.19704 -3.70463,2.41233 -4.61434,-2.71178 -7.18559,0.29483 -7.59529,1.45668 -0.37148,1.05526 0.57917,1.77975 2.33867,1.77975 4.37663,0 3.60911,2.5847 -0.92341,3.11018 -2.74699,0.31869 -4.2896,1.59312 -5.24944,4.3387 -0.74765,2.13866 -1.01065,4.2379 -0.58377,4.66447 0.42697,0.42668 4.39609,0.35132 8.82052,-0.17027 7.45697,-0.8765 8.12607,-1.26126 9.16486,-5.2697 0.61601,-2.37859 2.75447,-5.54436 4.7513,-7.03558 3.37357,-2.51862 4.00026,-2.55645 8.83809,-0.53516 4.37993,1.82986 5.20663,2.86525 5.20663,6.52068 0,3.46878 -0.60473,4.34489 -3.0006,4.34489 -2.06849,0 -2.74818,-0.65693 -2.18916,-2.11441 0.70284,-1.83096 -2.74309,-5.00631 -5.43268,-5.00631 -2.02977,0 -3.24173,7.25824 -2.10183,10.14237 2.90192,7.34234 13.21565,6.29442 16.96046,2.71075 z m 17.48186,-7.02191 c 3.80823,-3.05728 3.04181,-8.86723 -1.88165,-14.2576 -3.51375,-3.52314 -3.59384,-6.35232 -6.07185,-1.38551 -0.96723,1.93764 -1.48363,7.20744 -1.19978,12.239 0.48446,8.58438 0.58657,8.78699 3.57997,7.12052 1.69462,-0.94338 4.20227,-2.61584 5.57331,-3.71641 z m -190.11985,0.39174 c 2.50415,-0.6709 3.20449,-1.88804 3.20449,-5.56762 0,-6.33434 5.79738,-13.09485 12.27055,-14.3096 4.02501,-0.75474 5.64457,-0.3068 8.45882,2.33628 3.90445,3.6679 4.52924,8.67481 1.40678,11.26639 -2.82653,2.34586 -5.76594,0.49774 -3.51739,-2.21132 2.16371,-2.60745 -0.64156,-6.28184 -4.79572,-6.28184 -7.4904,0 -10.86167,9.44791 -4.57255,12.8139 6.22675,3.33245 12.11136,2.40075 16.60646,-2.63011 6.80932,-7.62105 5.03834,-17.27057 -3.85205,-20.98518 -8.23036,-3.43864 -15.47174,-2.6333 -20.37116,2.26622 -5.44406,5.44436 -11.98979,18.68632 -10.78662,21.82175 1.01044,2.6337 1.3411,2.71594 5.94839,1.48113 z m 133.1155,-16.33388 c 5.78131,-5.61053 5.90857,-5.91804 3.25011,-7.86188 -4.52843,-3.31129 -13.62193,-5.19943 -18.43531,-3.82779 -3.29253,0.93849 -4.46685,2.18717 -4.80759,5.11271 -0.53337,4.58272 1.49351,4.96419 5.43528,1.02252 1.56616,-1.56627 4.08399,-2.84809 5.59457,-2.84809 2.65545,0 7.24487,3.46888 7.20066,5.44226 -0.0559,2.483 -2.70397,4.75859 -5.01559,4.31046 -3.41919,-0.66292 -4.42753,-4.05615 -1.20537,-4.05615 1.84612,0 2.11261,-0.42767 0.97421,-1.56567 -1.7569,-1.7572 -7.54848,-0.42996 -7.54848,1.72985 0,1.13481 6.91301,8.17388 8.18705,8.33527 0.19382,0.0419 3.06147,-2.5823 6.37046,-5.79349 z m -87.49242,-0.57329 c 5.16101,-4.78533 12.16225,-6.90633 19.32049,-5.85346 5.45325,0.80204 5.69428,0.70513 3.14172,-1.26555 -3.61819,-2.7935 -12.10456,-2.71475 -19.33946,0.18164 -7.50068,3.00129 -8.91853,1.51677 -2.28757,-2.39596 2.8391,-1.67526 4.81638,-3.60492 4.39379,-4.2883 -0.42278,-0.68337 0.23405,-3.18423 1.46277,-5.55714 1.26565,-2.44756 1.59871,-4.31425 0.77031,-4.31425 -0.80334,0 -1.46416,0.48077 -1.46776,1.06814 0,0.58746 -1.75738,2.89737 -3.64005,5.34046 -3.37923,4.38514 -4.32824,2.33589 -3.08782,-0.35611 1.98114,-4.29956 -0.45822,-5.837 -3.23384,-2.49198 -0.97492,1.17473 -2.62402,2.13597 -3.66391,2.13597 -4.07451,0 -4.60938,4.5459 -1.1372,9.66259 1.85741,2.7371 3.37676,6.48904 3.37676,8.33776 0,4.22941 0.63837,4.20556 5.39177,-0.20181 z m 61.54186,-5.38278 c 0,-3.24521 -4.41994,-10.90039 -7.852,-13.60027 -4.42134,-3.47767 -15.69292,-4.35896 -16.71943,-1.30707 -1.76459,5.24355 2.30294,8.82771 8.30702,7.32103 4.55158,-1.14269 4.42074,-3.40491 -0.19792,-3.40491 -2.0667,0 -3.26328,-0.61651 -2.76415,-1.42414 1.32943,-2.15134 7.24927,-1.7069 9.24181,0.69386 2.41572,2.91066 0.84896,6.18013 -3.80913,7.9514 -7.36544,2.79998 -15.4972,-1.88325 -14.28454,-8.22667 0.49095,-2.56953 0.0838,-3.29353 -1.657,-2.95269 -1.81748,0.35532 -2.20742,1.85781 -1.83454,7.06353 0.25849,3.63636 -0.25012,7.96298 -1.13401,9.61539 -1.44061,2.69169 -1.01104,5.79278 0.80225,5.79278 10.47118,-12.26639 29.94378,-4.89959 31.90164,-7.52224 z m 61.22198,-4.97516 c 3.16488,-2.9484 2.26512,-5.01739 -3.47577,-7.99573 -5.54247,-2.87573 -6.38304,-1.99473 -4.57045,4.79492 1.66588,6.24222 3.84935,7.11074 8.04622,3.20081 z m -98.27096,-2.81146 c 0,-0.58786 -0.62609,-2.02408 -1.36466,-3.19282 -1.09298,-1.72856 -1.68314,-1.78385 -3.17036,-0.29862 -1.48762,1.48762 -1.43233,2.07757 0.29473,3.17086 2.57831,1.63004 4.26774,1.7567 4.2382,0.31878 z m 75.51591,-6.05288 c 3.70433,0 -0.49983,-2.67942 -5.53887,-3.53067 -5.81065,-0.9819 -15.83884,2.09225 -15.83884,4.8552 0,0.80814 1.76259,1.84782 3.91622,2.31053 2.15403,0.4622 5.19843,1.34609 6.7646,1.964 2.10004,0.82799 3.67229,0.24213 5.98472,-2.23807 1.72486,-1.84852 3.84545,-3.36099 4.71217,-3.36099 z m -85.38251,2.49237 c 3.21418,-3.85284 3.43575,-5.34046 0.79566,-5.34046 -1.73354,0 -6.57238,5.73041 -6.57238,7.78273 0,1.88555 3.34683,0.47069 5.77672,-2.44227 z m 55.46024,1.78025 c 1.72736,-1.11623 1.52285,-1.38472 -1.06833,-1.40258 -1.76209,0 -3.204,0.6193 -3.204,1.40258 0,1.78415 1.51127,1.78415 4.27233,0 z m 8.15871,-9.8125 c 5.75336,-4.59071 5.85067,-6.58735 0.45661,-9.37645 -8.211,-4.24638 -24.29347,-0.89457 -25.44883,5.30363 -0.66372,3.55931 1.87636,3.07894 6.11137,-1.15646 2.67572,-2.67522 4.83913,-3.53016 8.1102,-3.20409 5.91874,0.58985 8.64167,4.81927 4.89412,7.60258 -3.19222,2.37171 -5.97633,1.27313 -3.70612,-1.46187 2.07099,-2.49537 0.0719,-3.52298 -3.91652,-2.0147 -2.12748,0.80374 -3.2042,2.38907 -3.2042,4.71787 0,6.24431 8.6289,6.03192 16.70337,-0.41051 z m -41.74839,-1.12432 c 6.19571,-1.00556 6.00418,-3.11308 -0.58696,-6.4611 l -4.81268,-2.44466 -3.28854,5.78939 c -3.61949,6.37226 -3.08682,9.89954 0.94298,6.2523 1.392,-1.25957 4.87686,-2.67043 7.7452,-3.13593 z m -14.58646,-2.81326 c 3.52208,-3.18753 3.28574,-6.18762 -0.48746,-6.18762 -3.05129,0 -8.30123,3.67638 -8.30123,5.81265 0,0.60473 1.12153,1.3922 2.49238,1.75041 1.37045,0.3593 2.76215,0.7252 3.09191,0.81622 0.33106,0.0898 1.77197,-0.89537 3.2044,-2.19166 z" fill="#00B894" transform="translate(-109.9854,-264.34888) translate(1138.2634,-449.13823)"/>
</svg>