<?xml version="1.0" ?><svg height="220.45216mm" viewBox="0 0 91.380531 220.45216" width="91.380531mm" xmlns="http://www.w3.org/2000/svg">
    <path d="m 4001.2322,2794.3171 c -27.9306,-0.099 -41.5845,25.4993 -44.6592,40.8512 0.2196,25.0378 31.8471,36.0738 31.8471,36.0738 0,0 0.6592,25.2683 1.3183,29.2876 0.2113,1.2894 2.0759,3.374 4.502,5.6085 v 101.955 l 10.2134,-0.923 c 0,0 2.2699,-35.1516 2.3797,-40.3898 0.1051,-5.0161 -1.7927,-48.3301 -1.9575,-52.0805 1.2769,0.9377 2.1766,1.5772 2.1766,1.5772 0,0 5.2717,0.3291 6.2234,-1.878 0.952,-2.2071 -1.245,-21.0184 -3.1849,-27.08 -1.9402,-6.0618 -5.7836,-14.1335 -5.7836,-14.1335 0,0 9.0049,-5.6991 16.5458,-8.5653 7.5409,-2.866 21.4146,-19.7664 19.621,-35.8433 -1.7939,-16.0766 -11.3116,-34.3609 -39.2421,-34.4599 z" fill="#FFFFFF" paint-order="markers stroke fill" transform="translate(-169.50891,179.44216) translate(-3784.0826,-2971.007)"/>
    <path d="m 3993.6081,3010.7785 c -3.0354,-4.485 -2.3306,-29.9067 -1.9705,-72.2752 l -0.7469,-32.3001 -2.7066,-1.7882 c -2.9342,-1.9385 -3.0977,-5.8268 -2.6312,-9.9004 0.095,-0.8372 0.3696,-4.2614 0.6086,-7.6096 0.2387,-3.348 -0.6178,-7.9405 -0.2819,-9.6146 0.5896,-2.9361 1.7233,-2.9025 -5.0097,-6.0348 -9.3738,-4.3606 -18.5588,-10.6496 -21.5619,-15.8002 -1.3517,-2.3189 -3.2516,-7.0862 -4.2214,-10.5943 -1.6796,-6.0753 -2.12,-9.2197 -0.4055,-16.4968 1.3319,-5.6488 3.132,-9.63 6.9053,-15.2716 9.9466,-14.8715 23.6896,-21.4879 42.2156,-21.5262 8.5953,-0.029 10.2846,0.2971 15.607,2.9108 7.5601,3.7118 19.2678,15.1688 22.8121,22.362 3.5674,7.2394 3.6632,15.344 0.2989,25.2878 -2.6721,7.8975 -7.4496,13.1935 -15.4279,20.4155 -4.708,4.2613 -15.8967,10.8556 -18.9326,10.8556 -0.6382,0 -0.21,1.3183 0.9588,2.9617 1.1599,1.629 2.5513,5.2938 3.0917,8.144 0.5407,2.8504 1.5007,6.1497 2.1334,7.332 0.6486,1.212 0.9345,4.3989 0.6552,7.3054 -0.2732,2.8357 -0.04,6.1584 0.5197,7.3838 1.4673,3.2206 0.7173,9.5637 -3.0676,12.6737 l -4.2176,1.684 0.1807,44.2915 c 0.1449,35.4917 -1.3196,45.3233 -2.5183,46.082 -2.5727,0.8722 -10.574,1.3155 -12.2874,-0.4778 z m 9.904,-50.4812 c 0.065,-46.4838 -0.3927,-46.2994 -4.5665,-48.7649 l -2.8714,-1.6962 -0.012,8.0557 c -0.01,3.5168 0.3194,20.7451 0.9141,41.9499 1.2643,45.0919 -2.119,44.3446 4.1446,44.2901 2.1682,-0.019 2.3314,-1.5465 2.3908,-43.8346 z m 5.9062,-49.4091 c 0.9008,-4.7124 -1.6756,-8.8587 -8.4474,-13.5955 -3.4705,-2.4276 -7.2334,-5.085 -8.3617,-5.9058 -2.0014,-1.4553 -2.0391,-1.3621 -1.5415,3.815 0.595,6.1929 2.1518,5.1438 7.7832,9.0222 2.1297,1.4668 5.4577,3.4505 6.4973,5.0029 2.4112,1.8595 3.6136,3.8371 4.0701,1.6612 z m -0.8412,-16.7412 c -1.2787,-4.2841 -3.3742,-6.5668 -6.6246,-7.2168 -1.7863,-0.3572 -4.7322,-2.2234 -6.5464,-4.1469 -1.8141,-1.9238 -3.5794,-3.2165 -3.9228,-2.8728 -2.6503,2.6502 3.4451,11.0809 9.6895,13.401 1.8605,0.6914 4.0678,1.6488 4.905,2.1279 2.5372,1.4524 3.214,1.1024 2.4993,-1.2924 z m -2.4993,-11.8345 c 0,-1.2571 -1.6655,-2.8731 -4.7201,-4.5806 -2.5958,-1.451 -4.8682,-2.4895 -5.0494,-2.3083 -0.7305,0.7305 3.1001,5.0664 6.0831,6.8852 3.8811,2.3666 3.6864,2.3663 3.6864,0 z m -12.4691,-26.7837 c -1.2382,-6.9226 -1.897,-12.0431 -1.9045,-13.8567 -0.029,-4.6605 4.5365,-5.3094 6.5399,-0.3028 1.7498,4.3732 3.7754,20.9924 3.7754,25.7706 0,3.6303 1.6569,2.2399 2.9925,-1.2743 0.5519,-1.4515 1.7269,-3.994 3.6328,-6.8671 3.6178,-5.454 7.1195,-17.882 7.242,-24.0142 0.04,-1.9643 0.4639,-4.4845 0.9433,-5.6004 0.761,-1.7711 2.3212,-1.0525 2.5024,1.6037 0.6163,9.0387 -2.5108,22.7765 -7.3551,32.3116 -2.7624,5.4377 -1.4116,4.5782 2.7853,-0.592 6.3871,-7.8682 8.7114,-14.9115 9.8834,-21.5467 1.5375,-8.706 4.1545,-8.904 3.4838,-0.9662 -0.2876,3.3897 -1.6885,9.0537 -3.1159,12.5868 l -2.5947,6.4244 4.5659,-4.4704 c 5.5524,-5.4357 10.3666,-14.8408 11.2006,-21.8807 1.1659,-9.8465 -3.8633,-19.566 -14.1097,-27.2685 -6.4531,-4.8509 -9.5256,-5.9769 -6.127,-2.2459 2.7759,3.0477 5.1661,8.0681 3.9266,8.0681 -0.5399,0 -3.1751,-1.0029 -4.3664,-2.6756 -2.1207,-2.9781 -10.4168,-11.4844 -10.4168,-10.1298 0,0.3779 1.6298,2.4909 3.6217,4.6959 3.2373,3.583 7.5386,11.6151 7.5386,14.0763 0,2.2827 -3.3441,0.5485 -5.9179,-4.3579 -3.3387,-6.3643 -8.8987,-15.0033 -10.8621,-15.0033 -2.3595,0 -5.2296,5.3938 -6.5295,10.3917 -0.6793,2.6114 -1.4599,5.5932 -1.7346,6.6257 -0.2953,1.1107 -2.0915,2.2369 -2.6307,1.6977 -1.0247,-1.0245 2.7462,-14.2593 4.5014,-16.3743 0.8177,-0.9851 0.7337,-1.3264 -0.3261,-1.3264 -2.2128,0 -11.1676,11.3133 -14.193,18.5102 -2.5728,6.12 -4.9204,3.939 -4.9204,3.6215 0,-1.8994 3.5237,-8.356 7.5311,-13.7997 5.1386,-6.9803 4.3762,-7.911 -2.6614,-3.2493 -15.7346,10.4221 -23.3066,27.888 -18.1039,41.7584 1.6727,4.4593 3.7408,7.2444 9.2113,12.4051 6.0307,5.689 13.4585,10.7605 15.7602,10.7605 0.3615,0 -1.656,-2.0799 -4.4831,-4.6217 -8.1052,-7.2872 -15.2704,-23.8771 -11.3571,-26.2956 1.0573,-0.6534 1.5263,-2.6239 10.028,11.8315 6.1869,10.5195 7.7975,14.9668 6.6503,10.3957 -1.1312,-4.5061 1.2982,-2.0529 4.7618,4.8084 1.6982,3.3641 3.2706,5.9335 3.494,5.71 0.2243,-0.2243 -0.9918,-4.8763 -2.2301,-11.7992 z m 4.9288,6.6586 c -0.3848,-4.3247 -1.1208,-9.4609 -1.6353,-11.414 -0.8953,-3.3995 -0.9166,-3.356 -0.4998,1.0146 1.3135,13.768 1.8887,18.2627 2.337,18.2627 0.2732,0 0.1841,-3.5384 -0.2013,-7.8633 z m -17.9195,-7.7678 c -3.4474,-5.3879 -6.4652,-9.5993 -6.706,-9.3585 -0.7733,0.7733 4.8967,11.1511 8.5561,15.6601 1.9497,2.4023 3.7412,4.1713 3.9813,3.9312 0.2387,-0.2387 -2.3842,-4.8449 -5.8314,-10.2328 z" fill="#00B894" transform="translate(-169.50891,179.44216) translate(-3784.0826,-2971.007)"/>
</svg>