<?xml version="1.0" ?><svg height="94.21244mm" viewBox="0 0 129.95728 94.21244" width="129.95728mm" xmlns="http://www.w3.org/2000/svg">
    <path d="m 5621.5882,713.00829 c -6.9506,-5.72418 -10.3275,-17.32013 -7.2128,-30.1258 3.1147,-12.8057 13.6062,-25.49335 17.0815,-28.26695 3.4753,-2.77357 8.6553,-5.78321 8.6553,-5.78321 0,0 2.0656,-4.60295 6.6228,-5.39962 4.5572,-0.79666 11.5406,-1.03272 11.5406,-1.03272 0,0 5.6721,-4.33742 9.049,-5.6947 3.3769,-1.35729 12.9834,-0.0885 12.9834,-0.0885 0,0 10.6225,-0.82618 18.4584,0.4426 7.8359,1.26875 12.7865,3.51123 12.8521,6.2553 0.066,2.74408 0.6556,4.2784 6.8522,3.3047 6.1965,-0.97369 3.2459,7.34703 3.2459,7.34703 0,0 13.4093,6.6094 12.229,10.20916 -1.1803,3.59974 -6.7537,8.35022 -6.7537,8.35022 0,0 11.5734,17.14313 11.1143,26.5851 -0.459,9.44197 -0.8196,12.80567 -14.1308,16.49397 -13.311,3.68826 -57.1458,9.29444 -65.5064,9.29444 -8.3603,0 -22.5893,-4.36692 -37.0808,-11.89101 z" fill="#FFFFFF" transform="translate(59.195613,31.409426) translate(-5669.7909,-665.03425)"/>
    <path d="m 5644.6108,726.55643 c -4.784,-1.2873 -17.9299,-7.09177 -22.7255,-10.03431 -4.7836,-2.93508 -9.0071,-8.24365 -10.4067,-13.08011 -1.0213,-3.52995 -1.1199,-5.77671 -0.4866,-11.11364 1.881,-15.8564 6.5371,-26.37798 15.6597,-35.38889 3.4098,-3.3679 7.5899,-6.76703 9.2894,-7.55366 1.6996,-0.78662 3.2151,-1.98064 3.3678,-2.65335 0.1517,-0.67271 0.6473,-1.66836 1.099,-2.21256 1.3615,-1.64073 10.8082,-4.45132 14.961,-4.45132 2.8929,0 4.297,-0.45113 5.4818,-1.76128 3.2079,-3.54709 7.7414,-5.15982 12.8179,-4.55973 2.5641,0.3031 5.6027,0.45989 6.7522,0.34842 1.1498,-0.1114 6.2294,-0.22185 11.2881,-0.24508 6.945,-0.032 10.1611,0.32792 13.1305,1.4696 4.2197,1.62226 9.0277,6.33852 9.0277,8.85526 0,1.33241 0.5112,1.48289 3.7833,1.11406 4.8814,-0.55022 7.2983,1.33685 6.9461,5.42387 -0.2474,2.87342 0.05,3.17996 7.6114,7.80964 2.8,1.71453 4.5293,5.34579 3.8445,8.07316 -0.2974,1.18584 -1.72,3.25752 -3.1611,4.6037 -2.392,2.23451 -2.5196,2.60564 -1.462,4.26248 5.0111,7.85179 6.7587,11.50164 7.8914,16.48164 1.5553,6.83868 1.5975,8.54469 0.3543,14.34849 -1.903,8.88423 -7.4614,11.95509 -28.3163,15.64384 -31.9725,5.65517 -56.5724,7.35778 -66.7479,4.61977 z m 30.0774,-5.42026 c 12.2431,-1.23817 32.7682,-5.36995 44.0657,-7.14785 27.7716,-4.37045 14.8116,-24.20759 7.1981,-35.51151 -5.3967,-8.01263 -10.714,-13.16422 -16.1105,-15.69389 -11.0934,-4.17368 -23.2032,-2.72608 -31.5204,1.49055 -13.3234,6.75554 -22.4502,17.62362 -25.8642,30.79901 -3.0249,11.67331 -7.0087,16.90839 -12.8629,16.90244 -3.7717,-0.005 -8.5064,-2.7379 -8.5064,-4.91206 0,-2.10245 1.7831,-2.70154 5.159,-1.73336 1.5105,0.43318 3.3787,0.58689 4.1516,0.34157 1.6708,-0.53028 4.2197,-5.69703 6.1972,-12.56148 0.7862,-2.7291 2.3531,-6.7986 3.4823,-9.04331 1.8447,-3.66694 1.9229,-4.21145 0.7712,-5.36321 -1.5441,-1.54409 -3.2528,-0.4537 -5.2052,3.32149 -1.7333,3.35228 -3.46,2.9607 -4.5339,-1.02841 -1.5182,-5.63749 -5.8104,-8.4509 -8.3057,-5.44415 -0.7789,0.9386 -0.6812,2.32577 0.448,6.34922 1.602,5.70964 1.1772,6.6265 -3.0801,6.65165 -1.1934,0.007 -2.8421,0.75569 -3.6639,1.66367 -1.4133,1.56171 -1.4169,1.76846 -0.069,3.82722 0.7843,1.19698 2.7309,2.94636 4.3261,3.8875 3.1661,1.86803 3.3363,3.4399 0.419,3.86803 -2.6342,0.38656 -9.2955,-6.35137 -9.2955,-9.40242 0,-3.41694 2.1384,-6.8197 5.0417,-8.0222 2.0908,-0.86603 2.507,-1.43175 2.0863,-2.83526 -1.5058,-5.02183 -1.4075,-7.61436 0.36,-9.48782 0.9763,-1.03476 2.7011,-1.88136 3.8329,-1.88136 1.7769,0 2.0578,-0.3824 2.0578,-2.80291 0,-3.73594 3.1417,-8.24457 6.3955,-9.1777 l 2.6025,-0.74642 -1.7817,-2.79881 c -0.9796,-1.53936 -2.1953,-2.81474 -2.7011,-2.8342 -1.0237,-0.0394 -6.3675,3.74739 -9.422,6.67642 -3.7049,3.55296 -8.4839,11.95264 -10.6539,18.72539 -2.821,8.80463 -3.7387,23.06749 -1.7335,26.94479 2.8051,5.42463 11.1966,10.60874 25.6556,15.84981 6.2511,2.2658 16.2333,2.62887 31.0582,1.12957 z m 16.6026,-13.82667 c 0,-0.72815 0.4471,-1.17498 0.9932,-0.99293 1.5503,0.5168 1.8075,2.31683 0.3308,2.31683 -0.7281,0 -1.324,-0.59575 -1.324,-1.3239 z m 18.1342,0.7839 c -1.0905,-1.09044 -0.5697,-1.96846 1.1671,-1.96846 0.9732,0 1.5959,0.4383 1.411,0.99293 -0.4072,1.22191 -1.8032,1.75021 -2.5781,0.97553 z m 5.3088,-4.02222 c -1.2446,-1.4993 -0.4531,-2.96318 1.6016,-2.96318 1.8708,0 2.7646,1.95819 1.4799,3.24275 -1.2403,1.24028 -1.8674,1.18339 -3.0815,-0.27957 z m 9.551,-0.51033 c -0.7696,-1.24516 0.1233,-1.92216 1.7236,-1.30781 0.7388,0.2835 1.1091,0.8944 0.8227,1.35754 -0.6776,1.09665 -1.852,1.0737 -2.5463,-0.0498 z m -7.3516,-8.02722 c -1.0602,-1.06008 -0.5511,-1.95104 1.1147,-1.95104 0.9291,0 1.6724,0.55745 1.6724,1.25424 0,1.27297 -1.7689,1.71518 -2.7871,0.6968 z m -5.1728,-21.20918 c -0.3247,-0.52543 -0.1967,-1.34877 0.2837,-1.82964 1.1237,-1.12371 3.7438,-0.14363 3.2866,1.22953 -0.4656,1.39778 -2.8315,1.79547 -3.5703,0.60011 z m -62.1885,-0.80959 c 1.1261,0 2.844,0.55792 3.8177,1.2398 1.6508,1.15638 1.9139,1.05117 3.9077,-1.56274 2.7466,-3.60092 12.0397,-10.44963 18.728,-13.80198 10.1227,-5.07369 19.7227,-6.29821 30.1338,-3.84364 7.0763,1.66834 11.153,3.87555 16.2725,8.80994 2.3633,2.27793 4.5304,4.14167 4.816,4.14167 0.8684,0 4.1789,-3.3541 4.1789,-4.23404 0,-0.45335 -0.9178,-1.17323 -2.0396,-1.59972 -1.1218,-0.4265 -2.4356,-1.51542 -2.9196,-2.41982 -0.484,-0.9044 -2.0159,-1.89382 -3.4041,-2.19872 -1.3882,-0.30491 -3.0817,-1.11213 -3.7634,-1.79382 -1.0953,-1.09513 -1.0941,-1.52039 0,-3.65285 1.7125,-3.31162 1.5797,-4.05369 -0.8343,-4.65956 -1.329,-0.33358 -3.2486,0.0853 -5.3067,1.15796 -4.1073,2.14092 -5.5636,1.36394 -4.8248,-2.57428 0.4817,-2.5671 0.2347,-3.1902 -2.0047,-5.07523 -3.1464,-2.64754 -6.6148,-3.37714 -16.3011,-3.42919 -7.4647,-0.04 -7.5254,-0.0237 -7.5254,2.03357 0,1.91726 0.2641,2.05492 3.4939,1.82172 4.0804,-0.29462 6.958,1.89822 6.958,5.30201 0,2.55612 -1.2799,2.71388 -2.5631,0.31594 -0.8244,-1.54011 -1.4444,-1.70664 -4.6959,-1.26097 -2.1737,0.29796 -4.473,0.12444 -5.4778,-0.41322 -1.515,-0.81087 -1.656,-0.73164 -1.1279,0.63384 1.405,3.63426 1.4434,5.91893 0.1208,7.24124 -2.0931,2.09299 -3.6183,0.86096 -5.0558,-4.08344 -1.1457,-4.85794 -2.5065,-4.67315 -6.2204,-3.19793 -2.4549,1.30592 -3.4691,2.17516 -2.8433,5.29699 0.4603,3.88678 0.3925,4.03402 -3.1837,6.93157 -6.7349,5.45709 -11.9001,7.08038 -14.0989,4.43103 -2.0562,-2.47748 -7.7463,0.32652 -8.7461,4.30982 -0.4226,1.68441 0.1,2.75039 2.6127,5.34069 2.7997,2.88457 3.2877,3.1035 4.4906,2.0148 0.7423,-0.67179 2.2711,-1.22144 3.3972,-1.22144 z m 9.2398,-18.9527 c 1.7911,-1.90659 1.7935,-1.95546 0.2704,-5.33315 -2.1031,-4.66386 -3.319,-5.12598 -9.6195,-3.65616 -8.7058,2.03093 -8.8762,2.86479 -2.1474,10.50617 2.7746,3.48454 2.8348,4.21226 6.5553,2.1468 1.7234,-0.95667 3.9469,-2.60531 4.9412,-3.66366 z m 8.3635,-11.14893 c 3.8793,-2.81033 6.9333,-3.18333 9.2082,-1.12464 1.4335,1.2975 1.529,1.27781 1.529,-0.31571 0,-3.75481 -5.6221,-5.36681 -11.2378,-3.22215 -4.7426,1.81117 -5.9009,3.15965 -4.6779,5.44519 0.5082,0.94918 1.1019,1.72577 1.3195,1.72577 0.2181,0 1.9543,-1.12881 3.859,-2.50846 z" fill="#00B894" transform="translate(59.195613,31.409426) translate(-5669.7909,-665.03425)"/>
</svg>