<?xml version="1.0" ?><svg height="94.01104mm" viewBox="0 0 126.90225 94.01104" width="126.90225mm" xmlns="http://www.w3.org/2000/svg">
    <path d="m 5744.239,254.33981 c -19.5128,-0.14378 -28.2853,6.76239 -29.6984,10.22418 -1.5073,3.69258 11.514,37.94302 13.6074,50.26412 2.0934,12.32111 8.5827,13.71523 9.2945,19.2164 0.7117,5.50115 4.4796,7.64867 9.7969,9.41958 0,0 15.1978,-0.5648 25.3297,-2.29806 10.1317,-1.73322 6.6151,-6.06664 5.9872,-8.96792 -0.6281,-2.90132 5.317,-11.37915 5.317,-11.37915 0,0 42.1185,-24.83032 45.9285,-30.33149 3.8098,-5.50118 7.1175,-18.57608 -0.4186,-23.36136 -7.5361,-4.78525 -28.8887,-3.50418 -28.8887,-3.50418 0,0 -0.2089,-3.12755 -3.8514,-4.93613 -3.6425,-1.80862 -26,-3.01417 -48.3573,-4.2199 -1.3973,-0.0754 -2.7459,-0.1165 -4.0468,-0.12609 z m 67.8543,18.36839 c 4.1907,0.011 8.172,1.08923 8.3721,4.25193 0.3771,5.95334 -3.0142,10.92724 -6.6146,14.20534 -3.6007,3.27809 -25.0372,14.54433 -25.0372,14.54433 l 2.5957,-26.41337 c 0,0 8.206,-2.78827 11.5553,-4.82297 1.5702,-0.95375 5.431,-1.77499 9.1287,-1.76526 z" fill="#FFFFFF" paint-order="markers stroke fill" transform="translate(-151.748,298.70044) translate(-5559.4912,-549.9105)"/>
    <path d="m 5746.914,345.04439 c -8.1304,-0.81881 -10.3447,-2.08783 -10.9071,-6.25243 -0.2662,-1.98914 -2.7348,-6.83489 -5.4801,-10.76883 -3.7809,-5.41699 -5.9565,-11.98398 -8.966,-27.0646 -2.186,-10.95161 -5.6364,-23.72345 -7.6679,-28.38166 -3.6007,-8.25635 -3.5914,-8.5703 0.3603,-12.48592 5.7178,-5.66241 17.4208,-8.40401 37.6308,-8.81603 23.7037,-0.48055 41.3225,1.73217 46.7656,5.87967 3.7501,2.85706 6.0259,3.10296 13.2565,1.43131 7.0694,-1.63456 10.0519,-1.35879 15.6802,1.4487 12.3548,6.16266 13.8504,16.33255 4.5565,30.98607 -3.8399,6.05411 -24.0213,20.87529 -36.6756,26.93403 -10.0319,4.80341 -14.3867,9.54154 -13.7256,14.93512 0.3134,2.56453 -0.282,5.7819 -1.3229,7.14961 -2.0804,2.7302 -23.8319,5.97944 -33.5062,5.00496 z m 29.8029,-7.6474 c -0.1202,-0.89457 -6.2312,-1.23037 -13.5791,-0.74614 -7.3469,0.48563 -15.4958,0.54305 -18.1073,0.13088 -3.6446,-0.57447 -4.2076,-0.30302 -2.4201,1.16663 4.099,3.37133 34.57,2.87847 34.1065,-0.55152 z m -8.9506,-22.69677 c 0.8226,-9.05745 1.6665,-19.41935 1.8749,-23.02626 0.2089,-3.60645 1.7735,-10.18282 3.4769,-14.61333 l 3.0972,-8.05526 -17.2458,0.20879 c -9.4851,0.11547 -18.321,0.35521 -19.6344,0.53012 -3.0967,0.41772 2.7344,53.52455 6.4405,58.65391 2.6149,3.61893 13.4686,3.5113 12.9767,-0.13087 -0.1509,-1.11135 -1.4413,-1.38127 -2.8695,-0.60002 -1.4284,0.78171 -2.7042,0.62497 -2.8357,-0.34474 -0.1308,-0.97294 1.4042,-1.99068 3.4126,-2.26167 2.4342,-0.32904 3.8161,0.72366 4.1444,3.15778 0.2717,2.00854 1.6575,3.4942 3.0801,3.30204 1.7557,-0.23495 3.0665,-5.63685 4.0821,-16.81818 z m -14.0409,0.43866 c -2.5239,-1.30659 -4.7553,-4.23879 -5.0854,-6.68123 -0.3238,-2.39439 -1.4784,-4.75013 -2.5666,-5.23484 -3.0713,-1.36926 -3.5047,-9.74093 -0.5871,-11.3379 1.4356,-0.78541 5.7444,-0.4282 9.5749,0.79278 5.4259,1.73109 6.8611,3.06648 6.4971,6.04781 -0.2559,2.10446 0.7101,5.24668 2.1514,6.98256 1.9238,2.31925 2.2003,4.07435 1.0413,6.61656 -2.142,4.69901 -5.6546,5.59559 -11.0256,2.81426 z m 6.1314,-6.21701 c -0.3394,-2.51757 -7.5127,-4.97262 -8.9639,-3.06801 -0.3917,0.51179 0,2.20901 0.8486,3.77304 1.9118,3.49359 8.6041,2.91235 8.1153,-0.70503 z m -3.5709,-9.52014 c 0.2663,-1.39436 -0.6251,-1.68936 -2.3114,-0.76661 -1.5077,0.82466 -2.6324,2.30201 -2.5004,3.28218 0.3238,2.39963 4.2708,0.33427 4.8118,-2.51557 z m -5.5988,-3.30882 c -0.1355,-1.00419 -1.0679,-1.71493 -2.0721,-1.57912 -1.0042,0.13549 -1.7145,1.0684 -1.5792,2.0726 0.1355,1.00372 1.0684,1.71446 2.0726,1.57881 1.0038,-0.1355 1.7145,-1.06794 1.5787,-2.07229 z m 8.224,-15.77256 c -1.6743,-2.0378 2.9767,-6.7941 5.5309,-5.65565 3.5035,1.56142 2.9739,6.15481 -0.7677,6.6603 -1.9494,0.26114 -4.0926,-0.188 -4.7632,-1.00465 z m 17.5038,36.38365 c -1.4435,-4.19139 -1.0616,-5.13754 2.4769,-6.14081 3.4321,-0.97232 4.4692,-3.22629 5.7753,-12.55474 0.8752,-6.25303 1.9217,-13.29579 2.3254,-15.65093 0.4804,-2.80795 0,-4.17983 -1.457,-3.98614 -1.2046,0.16183 -1.7134,1.26996 -1.1295,2.46015 0.5838,1.18958 0.072,3.4577 -1.1302,5.04006 -1.2053,1.58174 -1.6068,3.9438 -0.8924,5.24931 0.7369,1.34632 0.1355,2.5302 -1.3828,2.73544 -3.4691,0.46991 -4.3078,-5.73247 -1.2277,-9.07994 1.3086,-1.42253 2.2361,-3.11405 2.0605,-3.75888 -1.0988,-4.03741 0.052,-5.86826 3.9569,-6.39838 3.7114,-0.50134 10.3861,-8.28392 8.4016,-9.79622 -0.3186,-0.24035 -3.524,0.45421 -7.1231,1.54833 -4.1747,1.26948 -7.3754,3.73023 -8.8412,6.79718 -1.7401,3.64247 -8.6282,52.82583 -8.024,57.29713 0.057,0.4439 1.8653,-1.35833 4.0132,-4.00123 2.9669,-3.6514 3.4949,-5.9956 2.1981,-9.76033 z m -40.1327,-30.05131 c -1.5233,-12.96154 -4.0717,-17.50428 -10.0962,-17.99929 -7.2135,-0.59233 -8.2788,1.02513 -2.9458,4.47176 3.8776,2.50618 4.5293,4.69733 7.1314,23.95686 1.5756,11.65909 3.5647,21.73799 4.4206,22.3976 1.6905,1.30289 2.7521,-22.08535 1.49,-32.82693 z m 70.8874,17.53521 c 14.5205,-9.24807 20.81,-15.73407 18.8073,-19.39426 -0.7911,-1.44609 -0.1463,-2.57146 1.6137,-2.80903 5.0175,-0.67778 2.3488,-10.57915 -3.8316,-14.21963 -8.0667,-4.75013 -26.8238,-0.87669 -25.9805,5.36542 0.1619,1.1948 1.3781,1.00789 3.5229,-0.54152 8.2898,-5.98991 22.0378,-2.90466 23.1313,5.1908 0.8654,6.40409 -8.988,17.7999 -20.9245,24.20028 -5.6477,3.02783 -11.0616,6.77532 -12.0313,8.32688 -2.9156,4.66653 1.4,2.98394 15.6927,-6.11894 z m -5.0008,-7.73978 c 9.7692,-5.83593 15.6635,-12.4833 15.0562,-16.97954 -0.6554,-4.85299 -7.5305,-5.09272 -15.8572,-0.55353 -6.5925,3.59337 -7.541,4.99388 -8.3723,12.36198 -1.4012,12.41431 -2.198,11.96457 9.1733,5.17109 z m -22.408,-36.93686 c -8.2271,-2.35098 -50.0587,-2.06537 -54.9482,0.37614 -5.3616,2.67586 33.5135,4.99865 49.2659,2.94376 11.7327,-1.53077 11.8007,-1.57034 5.6823,-3.31883 z" fill="#00B894" transform="translate(-151.748,298.70044) translate(-5559.4912,-549.9105)"/>
</svg>