<?xml version="1.0" ?><svg height="84.188881mm" viewBox="0 0 98.79113 84.188881" width="98.79113mm" xmlns="http://www.w3.org/2000/svg">
    <path d="m 2281.8245,1007.8681 c 0,0 -20.1652,1.0393 -22.1779,-15.36422 -2.0124,-16.40351 7.3184,-24.45089 18.7071,-28.83477 11.389,-4.38388 27.0598,5.3526 27.0598,5.3526 0,0 9.4167,-9.09844 20.6684,-9.73648 11.252,-0.63802 27.146,10.53777 27.0545,22.43391 -0.092,11.89615 -23.8297,20.47866 -23.8297,20.47866 0,0 12.0062,20.2522 -4.4368,29.9256 -16.4431,9.6733 -23.9213,3.9722 -33.6408,-2.9226 -9.7194,-6.8948 -9.4046,-21.3327 -9.4046,-21.3327 z" fill="#FFFFFF" paint-order="markers stroke fill" transform="translate(80.490887,-99.030389) translate(-2336.7148,-857.56847)"/>
    <path d="m 2303.2132,1039.283 c -2.9049,-0.8461 -6.9168,-2.3859 -8.9155,-3.4217 -7.7111,-3.9961 -13.5315,-13.7366 -13.5315,-22.6449 v -3.7608 l -6.039,-0.3412 c -4.7203,-0.2667 -6.8243,-0.8609 -9.6342,-2.7206 -10.2041,-6.75255 -11.9258,-23.40134 -3.4796,-33.64812 2.9853,-3.62163 14.84,-9.78438 20.4353,-10.62351 4.7156,-0.70722 14.4401,0.84489 19.6239,3.13227 l 3.741,1.65061 2.861,-2.65767 c 4.0478,-3.75991 10.6408,-6.94035 15.6063,-7.5285 9.5713,-1.13359 23.2738,5.92276 27.9735,14.40539 7.5654,13.65431 1.6646,24.04428 -18.9476,33.36243 -0.1298,0.06 0.5546,1.8493 1.5211,3.979 3.8047,8.3862 1.2501,18.1392 -6.6621,25.4321 -7.5739,6.9814 -14.1324,8.42 -24.5526,5.3852 z m 17.4571,-6.8444 c 4.6935,-3.2987 9.1688,-9.2175 9.8944,-13.0859 1.2272,-6.5418 -0.2146,-10.6038 -5.939,-16.7224 -5.9926,-6.40605 -10.4403,-8.33785 -19.1955,-8.33785 -6.2133,0 -10.7402,2.7146 -15.0383,9.01785 -2.642,3.8746 -3.0208,5.1125 -3.0003,9.8118 0.028,6.5473 2.7615,12.7532 7.0621,16.0335 1.6189,1.2349 5.6387,3.2176 8.9325,4.4059 7.5184,2.712 12.2662,2.4036 17.2841,-1.1229 z m -12.87,-25.0184 c -4.5763,-4.747 -5.2994,-7.81935 -2.3296,-9.89965 2.0553,-1.4395 5.135,-0.9654 5.8511,0.9006 0.3229,0.8416 1.2409,1.0759 2.8398,0.7248 1.7385,-0.3817 2.813,-0.025 4.0676,1.36515 0.9377,1.036 2.7952,2.4478 4.1279,3.1367 1.6236,0.8397 2.4226,1.9506 2.4226,3.3681 0,3.455 -2.0496,4.7059 -7.7113,4.7059 -4.9768,0 -5.2378,-0.1223 -9.2681,-4.3016 z m 13.4584,0.048 c 0,-0.3135 -0.9904,-1.0208 -2.2006,-1.5723 -1.2105,-0.5514 -2.2008,-1.5261 -2.2008,-2.1659 0,-2.2195 -1.822,-3.2101 -4.0431,-2.1983 -1.5445,0.704 -2.4121,0.655 -3.4344,-0.1921 -0.7521,-0.6243 -1.6526,-0.8502 -2.001,-0.5018 -0.3483,0.3483 0.6553,1.692 2.23,2.9863 1.5748,1.294 2.8596,2.772 2.8551,3.284 0,0.5315 1.881,0.931 4.3934,0.931 2.4209,0 4.4014,-0.2563 4.4014,-0.5697 z m -38.6695,-3.6433 c 0.6358,-1.5354 3.3978,-5.08225 6.1378,-7.88245 4.1374,-4.22822 5.8814,-5.34138 10.2902,-6.56708 5.2702,-1.46515 5.3124,-1.50287 5.818,-5.19087 1.0669,-7.78494 -1.9992,-13.0826 -9.7857,-16.90604 -3.9652,-1.94736 -6.2683,-2.47528 -10.7964,-2.47528 -5.0172,0 -6.4123,0.39548 -10.8706,3.08087 -6.6778,4.0228 -9.8655,7.74699 -11.5293,13.47062 -3.2481,11.17295 3.3429,22.52203 14.1279,24.32693 2.3897,0.3999 4.5942,0.7738 4.8984,0.8309 0.3044,0.058 1.0737,-1.1526 1.7097,-2.6876 z m -0.4294,-24.27732 c -0.3631,-0.36306 -2.2627,-0.65997 -4.2212,-0.65997 -2.4307,0 -3.8732,-0.48936 -4.5437,-1.5406 -1.3132,-2.0596 0.2421,-4.53558 3.0645,-4.87921 1.2543,-0.15218 2.7263,-1.31873 3.6114,-2.86109 1.1044,-1.92432 2.1472,-2.60273 3.9996,-2.60273 1.3782,0 2.9808,0.47484 3.5614,1.05546 0.5804,0.58062 2.3434,1.47199 3.9171,1.98071 1.877,0.60666 2.9542,1.57354 3.1303,2.81015 0.4936,3.46069 -10.0925,9.12371 -12.5194,6.69728 z m 0.6974,-2.86078 c 3.1266,0 5.0047,-1.27187 2.9761,-2.01543 -0.8849,-0.32442 -0.8858,-0.63854 0,-1.57178 1.5907,-1.68602 1.3554,-2.57462 -0.682,-2.57462 -1.0911,0 -2.1067,0.85342 -2.619,2.20057 -0.633,1.66459 -1.4727,2.2008 -3.4474,2.2008 -2.7268,0 -4.0838,1.13736 -3.1532,2.643 0.3647,0.59014 1.0924,0.59014 2.1948,0 0.907,-0.48529 3.0385,-0.88254 4.7362,-0.88254 z m 8.8467,-3.62762 c -0.5706,-0.92302 -2.135,-0.18214 -2.135,1.01106 0,0.44042 0.5919,0.57371 1.3155,0.29599 0.7234,-0.27748 1.0922,-0.86586 0.8195,-1.30705 z m 46.7201,21.85317 c 2.905,-1.7145 6.6681,-4.55803 8.3626,-6.31895 2.6413,-2.74478 3.0774,-3.79156 3.0567,-7.33406 -0.05,-8.65034 -6.1972,-15.27717 -17.3949,-18.75407 -5.2139,-1.61895 -6.5042,-1.72251 -10.123,-0.81247 -4.3909,1.10416 -11.9198,4.85954 -13.4577,6.71249 -0.6559,0.79027 -0.3738,2.17084 0.9904,4.84426 1.4991,2.93891 1.8206,4.78994 1.5017,8.64979 -0.2221,2.70092 -0.563,5.44916 -0.7551,6.10745 -0.2271,0.78197 1.4754,1.89036 4.9124,3.19641 2.8937,1.09987 6.6569,3.23925 8.3623,4.75445 3.9491,3.5083 7.2285,3.2725 14.5446,-1.0453 z m -23.3271,-18.4806 c -3.1323,-1.579 -3.1318,-4.1129 0,-7.53518 2.0556,-2.24467 3.1839,-2.82706 4.7278,-2.43957 1.155,0.28993 2.752,-0.0399 3.7104,-0.76453 3.5503,-2.68663 7.4047,-1.09794 7.4047,3.05215 0,6.49516 -9.2792,10.99709 -15.8449,7.68713 z m 10.7528,-4.20048 c 1.9818,-1.98171 2.4351,-2.95466 1.7135,-3.67625 -0.7217,-0.72167 -1.4463,-0.56042 -2.7388,0.60904 -1.2172,1.10171 -2.5367,1.43458 -4.2936,1.0832 -3.7848,-0.75701 -6.6541,3.12082 -3.0133,4.07227 3.7562,0.9814 5.7661,0.47783 8.3322,-2.08826 z" fill="#00B894" transform="translate(80.490887,-99.030389) translate(-2336.7148,-857.56847)"/>
</svg>