<?xml version="1.0" ?><svg height="329.94397mm" viewBox="0 0 255.80942 329.94397" width="255.80942mm" xmlns="http://www.w3.org/2000/svg">
    <path d="m 4975.1268,2042.8265 -2.9187,1.1033 -0.2325,-0.099 -58.1732,22.1811 -75.5794,28.575 0.2052,0.1648 -1.0889,0.4155 10.388,7.0616 10.7239,8.6222 40.2022,112.3942 146.0986,-53.2154 -40.2978,-114.7057 z m -103.3849,112.5797 h -5e-4 -0.09 c -3.7571,0.4804 -6.2092,4.5384 -7.4549,10.9807 -1.2459,6.4422 7.336,16.7639 5.8927,21.1062 -1.4436,4.3423 5.3392,15.4652 5.3392,15.4652 0,0 -5.8733,8.0792 -3.7574,12.208 l 10.8365,-0.801 c 0,0 12.0227,2.0825 10.8164,-2.0107 -1.1968,-4.0612 -17.6553,-56.5987 -21.5821,-56.95 z m 3.0959,70.1213 v 0 c -0.031,-1e-4 -0.061,6e-4 -0.091,0 -1.8981,0.089 -6.783,4.1642 -7.6926,8.5064 0,0 2.2746,3.8444 5.7351,4.6096 3.4607,0.7652 6.5849,-2.9722 7.7318,-6.656 1.129,-3.6263 -3.7208,-6.4594 -5.6834,-6.4621 z m -15.1386,25.0341 c -0.047,8e-4 -0.093,-1e-4 -0.1385,0.01 -2.2916,0.1262 -4.0132,2.2345 -4.7961,4.8121 -1.8705,0.2136 -8.0784,0.9244 -14.9479,1.7487 -7.9814,0.9578 -41.1651,12.4943 -44.3575,22.7247 -3.1928,10.2304 8.3683,43.5337 23.3154,60.033 14.9471,16.4993 20.0262,19.8513 35.7472,25.6414 21.7193,5.4851 45.3736,1.132 52.6779,-6.0948 7.3044,-7.2266 28.2983,-31.6488 33.6677,-43.6206 5.3692,-11.9717 6.6756,-33.2164 4.9341,-40.7913 -1.7415,-7.5748 -19.1076,-11.972 -31.3459,-15.4982 -11.2895,-3.2528 -42.1517,-4.5645 -46.9238,-4.7507 -1.31,-2.1347 -5.4528,-4.251 -7.8326,-4.2095 z" fill="#FFFFFF" paint-order="markers stroke fill" transform="translate(-91.0699,-163.4899) translate(-4700.8133,-1877.4302)"/>
    <path d="m 4848.9058,2368.87 c -13.0093,-4.8361 -32.5101,-22.0256 -43.3854,-38.2428 -6.8605,-10.2308 -13.6372,-31.2576 -13.6372,-42.3152 -5e-4,-14.4066 9.7605,-22.5145 34.9984,-29.0702 6.5111,-1.6913 13.8719,-3.0879 16.3577,-3.1033 8.1169,-0.051 4.7573,2.8008 -6.5735,5.5786 -15.2562,3.7404 -30.7629,11.5595 -35.154,17.7258 -3.3788,4.7453 -3.5097,5.8499 -1.8457,15.5639 3.5625,20.7961 19.2083,45.9617 36.4805,58.6771 17.2756,12.7173 38.4336,15.6165 60.0926,8.2341 20.2165,-6.8904 44.9479,-43.8878 47.7733,-71.4665 1.072,-10.4619 0.9531,-10.939 -4.1735,-16.7782 -6.7957,-7.74 -24.1794,-13.3955 -46.0137,-14.97 -8.559,-0.6171 -15.8929,-1.4531 -16.2972,-1.8575 -1.8989,-1.8987 2.2998,-2.4812 18.0768,-2.5085 25.9184,-0.047 45.8134,7.0819 51.7678,18.5452 3.2,6.1604 3.423,25.4486 0.424,36.6128 -5.7756,21.4962 -28.074,51.4383 -42.9224,57.6357 -9.5043,3.9666 -46.8546,5.1271 -55.9685,1.739 z m -15.6655,-67.5108 c -11.4958,-2.6177 -23.9591,-9.1408 -25.5914,-13.3941 -1.6234,-4.2311 -0.046,-4.5187 5.0581,-0.9135 2.5567,1.8111 6.3129,3.775 8.3462,4.3641 3.014,0.8729 3.698,0.4224 3.698,-2.4345 0,-9.1209 8.4578,-13.1293 15.072,-7.1434 2.6121,2.3642 3.0052,2.3904 3.0052,0.2013 0,-4.4789 4.3622,-6.7275 9.5457,-4.9208 3.8987,1.3593 5.0083,1.1129 6.6215,-1.4705 1.066,-1.7069 3.2964,-3.1034 4.9567,-3.1034 3.8208,0 8.4574,5.0347 8.4574,9.1836 0,1.7451 1.4791,4.0966 3.2871,5.2256 1.8579,1.1605 3.287,3.8326 3.287,6.1473 0,2.9319 0.8894,4.0947 3.1329,4.0947 2.2397,0 2.906,-0.8674 2.3376,-3.042 -1.003,-3.8343 3.4957,-8.4621 8.2259,-8.4621 2.1589,0 4.2513,-1.4813 5.2235,-3.6976 2.8562,-6.51 9.1359,-5.5868 17.6795,2.5995 6.9961,6.7033 7.8645,7.095 10.9447,4.9376 1.84,-1.2888 3.9234,-4.5739 4.63,-7.3001 1.7139,-6.6144 4.4028,-6.1814 5.0242,0.8088 0.4239,4.7449 -0.368,6.2953 -4.9944,9.8255 -9.4501,7.208 -21.9583,9.4741 -56.3126,10.2024 -23.3055,0.494 -33.8649,0.061 -41.6348,-1.7084 z m 40.813,-4.9275 c 0,-1.3241 -1.6054,-3.2666 -3.5674,-4.3168 -2.9563,-1.582 -3.942,-1.3974 -5.7519,1.078 -1.7348,2.3723 -1.7614,3.2555 -0.1305,4.2914 3.4697,2.2031 9.4493,1.5369 9.4493,-1.0526 z m -29.5814,0.037 c 0,-0.3987 -0.7393,-1.1817 -1.6435,-1.7403 -0.9037,-0.5588 -1.643,-0.2324 -1.643,0.7247 0,0.9572 0.7393,1.7404 1.643,1.7404 0.9042,0 1.6435,-0.326 1.6435,-0.7248 z m 61.4151,-4.3743 c 1.1685,-5.8401 0.2609,-8.0482 -3.3014,-8.0482 -1.903,0 -2.2491,1.1378 -1.4502,4.7739 1.2335,5.6165 -1.0179,7.6402 -5.4331,4.883 -3.3523,-2.0936 -8.5019,-1.0061 -8.5019,1.7954 0,0.9541 3.861,1.695 8.8335,1.695 8.5651,0 8.8641,-0.1547 9.8531,-5.0991 z m 9.2518,1.8124 c 2.004,-1.2951 1.7917,-1.5979 -1.1357,-1.6184 -1.9805,-0.014 -4.0576,0.7145 -4.6166,1.6184 -1.2932,2.0922 2.5142,2.0922 5.7523,0 z m -80.0337,-2.2033 c 1.1544,-3.008 -1.3463,-6.6965 -3.5968,-5.3056 -2.6203,1.6196 -2.258,7.5089 0.4612,7.5089 1.2592,0 2.6697,-0.9916 3.1347,-2.2033 z m 19.1664,-0.9694 c 1.8816,-3.5157 -1.4759,-8.3312 -5.8082,-8.3312 -3.3709,0 -2.9529,7.7014 0.5283,9.7288 3.7077,2.1595 3.3215,2.2617 5.2799,-1.3976 z m 10.5049,-6.0021 c 2.9661,-1.1381 1.7054,-5.6159 -1.5811,-5.6159 -1.2592,0 -2.2891,1.4791 -2.2891,3.2868 0,3.6024 0.2142,3.7318 3.8702,2.3291 z m 13.6401,-3.6915 c -3.288,-3.6329 -3.527,-9.0696 -0.5088,-11.5742 3.8498,-3.195 12.7465,-4.2369 14.3644,-1.6823 2.7042,4.2708 1.6408,11.0483 -2.1503,13.7037 -4.8084,3.3678 -8.376,3.2316 -11.7053,-0.4473 z m 8.2533,-6.1992 c 1.1629,-3.0298 -2.8118,-6.1878 -5.0147,-3.9847 -1.7936,1.7938 -0.1492,6.6158 2.2588,6.6158 0.9606,0 2.2006,-1.184 2.7559,-2.6311 z m -32.3374,-10.5163 c -3.7439,-3.744 -4.1078,-6.8734 -1.3974,-12.0227 3.909,-7.4259 10.9866,-8.1855 16.0689,-1.7246 4.413,5.61 4.2937,8.0788 -0.6279,13.0004 -4.8905,4.8906 -9.6468,5.1435 -14.0436,0.7469 z m 9.039,-7.5099 c 0,-1.7199 -1.2946,-3.3765 -2.8761,-3.6811 -2.8925,-0.557 -4.1638,4.4253 -1.7461,6.8428 1.9418,1.9415 4.6222,0.1092 4.6222,-3.1617 z m 4.1661,-18.6766 c -2.4164,-4.5154 -2.1494,-6.3663 1.6976,-11.7692 3.9001,-5.4768 8.0469,-6.0898 11.9587,-1.7677 3.5921,3.9693 3.4565,10.6094 -0.284,13.9959 -4.1215,3.7295 -11.2606,3.4844 -13.3714,-0.4588 z m 8.9811,-5.8599 c 0,-3.5672 -2.3623,-4.6396 -5.6461,-2.5638 -1.9775,1.2501 -2.0045,1.9198 -0.1631,4.1366 2.7233,3.2817 5.8105,2.4462 5.8105,-1.5728 z m 13.8133,-10.4851 c -5.1355,-3.2753 -8.2893,-4.3477 -9.8601,-3.353 -3.3193,2.1011 -10.3581,1.8455 -12.6631,-0.4595 -2.8632,-2.8627 -2.4211,-7.6209 1.1262,-12.1307 3.0743,-3.9085 3.043,-4.1103 -3.9824,-25.7322 -3.8949,-11.986 -12.3451,-35.7875 -18.778,-52.892 -9.424,-25.0568 -11.2847,-31.4728 -9.5754,-33.0216 1.1665,-1.0574 8.0373,-3.995 15.2682,-6.5281 7.2308,-2.5329 30.5265,-11.6256 51.7674,-20.206 74.1513,-29.9531 71.6726,-29.3006 88.0496,-23.1733 14.4962,5.4236 19.9555,12.2055 29.0153,36.0432 9.2927,24.45 13.573,37.6266 17.5918,54.1556 1.6481,6.7791 4.6473,17.7223 6.664,24.3185 3.465,11.3312 3.5125,12.1641 0.8632,15.0915 -3.5362,3.9073 -44.0451,19.8787 -80.5559,31.7607 -15.366,5.0007 -34.9637,11.4133 -43.5503,14.2501 -22.2811,7.3614 -22.7376,7.3887 -31.3805,1.877 z m 24.928,-7.8553 c 7.6167,-3.3081 32.3359,-12.5038 54.9328,-20.4346 56.9589,-19.991 69.7866,-25.0092 69.8181,-27.3115 0,-1.0964 -1.533,-5.9033 -3.4392,-10.6821 -1.9069,-4.7788 -4.8901,-13.8654 -6.6301,-20.1926 -4.2565,-15.4791 -26.189,-76.4187 -27.5041,-76.4187 -1.7665,0 -62.2434,22.1702 -84.012,30.798 -11.2983,4.4779 -27.8108,10.9336 -36.6944,14.3456 -8.8838,3.4123 -16.4995,7.1089 -16.9239,8.2154 -0.4239,1.1062 2.8943,11.1843 7.3754,22.396 4.4809,11.2115 12.8359,34.9877 18.5672,52.8358 5.7309,17.8484 10.4747,32.454 10.5413,32.4575 0.07,0 6.3532,-2.7007 13.9689,-6.0088 z m -11.1105,-14.9387 c -5.5841,-4.9356 -9.1664,-13.4826 -7.0711,-16.8725 0.7334,-1.1867 0.4817,-3.4928 -0.5632,-5.1664 -1.4287,-2.2877 -1.4124,-3.7845 0.07,-6.153 1.6914,-2.7081 1.4188,-3.2641 -2.0223,-4.1279 -2.1877,-0.5489 -4.789,-2.5145 -5.7808,-4.3682 -2.6633,-4.9766 -2.4513,-13.2525 0.3913,-15.3324 1.9231,-1.4062 2.0739,-2.4879 0.6681,-4.7814 -1.447,-2.36 -1.1902,-3.4306 1.2606,-5.2512 2.9464,-2.1892 2.9115,-2.3234 -0.8218,-3.1413 -2.1448,-0.4699 -5.7485,-1.0616 -8.0084,-1.3146 -9.0277,-1.0111 -3.5046,-19.6458 6.9081,-23.3077 5.7895,-2.036 12.5778,2.3627 13.9079,9.0117 0.5404,2.7025 2.4266,5.6867 4.1917,6.6311 7.6907,4.1163 10.5179,22.2061 4.1628,26.639 -3.6975,2.5795 -3.6975,2.5795 -0.1166,2.6656 5.4509,0.1309 9.2047,4.7735 8.1449,10.0724 -0.565,2.8263 -0.047,5.2318 1.3943,6.4248 1.2633,1.0488 1.8905,2.9679 1.3928,4.2646 -0.4975,1.2966 0.2842,4.1748 1.741,6.3955 1.4553,2.2211 2.6459,4.3736 2.6459,4.7837 0,0.4099 -4.807,2.3451 -10.6823,4.3002 -5.8749,1.9552 -10.6819,4.208 -10.6819,5.0065 0,3.0495 7.1326,5.1848 13.777,4.1242 8.5627,-1.3666 13.395,-4.5257 16.7012,-10.9189 4.3361,-8.3857 16.7463,-11.8681 27.9089,-7.8316 6.6835,2.4166 13.2799,0.7521 14.4287,-3.6412 0.4942,-1.8901 -0.1216,-6.3355 -1.3742,-9.8785 -2.6242,-7.4385 -0.8744,-8.354 4.0357,-2.1118 4.6728,5.9404 4.3648,12.9385 -0.7963,18.0996 -3.5393,3.539 -5.1611,4.0362 -10.2713,3.1491 -16.044,-2.7854 -18.097,-2.8091 -23.0139,-0.2665 -2.7746,1.435 -6.351,4.8195 -7.9469,7.5211 -3.7627,6.3696 -11.3994,9.8954 -21.4337,9.8954 -6.426,0 -9.0529,-0.9033 -13.1444,-4.5194 z m 8.6183,-10.4664 c 6.8469,-1.724 10.4181,-6.3787 4.8942,-6.3787 -4.906,0 -6.1442,-6.999 -3.2703,-18.4882 1.0938,-4.3734 0.9149,-4.5194 -5.538,-4.5194 -3.6676,0 -7.1107,-0.716 -7.6516,-1.5908 -0.5409,-0.875 1.2648,-3.9429 4.0114,-6.8173 5.5711,-5.8297 6.4082,-11.8503 2.4369,-17.5208 -2.5646,-3.6612 -8.9457,-5.0943 -8.9457,-2.009 0,0.9038 0.7393,1.6433 1.6436,1.6433 2.3715,0 2.0258,4.5225 -0.4101,5.375 -1.4819,0.5182 -1.1935,1.6886 1.0347,4.1996 3.056,3.4434 3.0342,3.5124 -2.0437,6.4029 -9.0532,5.1531 -4.6072,15.2473 6.7157,15.2473 6.3141,0 5.8902,4.1578 -0.7765,7.618 -5.3411,2.7724 -5.3411,2.7724 -0.8218,4.2877 5.2291,1.7536 6.3975,7.8153 1.5066,7.8153 -3.8774,0 -5.2017,1.3813 -4.0935,4.2691 1.0678,2.782 1.964,2.819 11.3089,0.466 z m -26.0792,-61.7792 c -0.3447,-4.9314 4.7949,-7.4682 7.2104,-3.5605 2.2747,3.6808 3.8083,0.058 1.8209,-4.3033 -2.4115,-5.2934 -5.7671,-5.2217 -10.0431,0.2148 -3.4058,4.3294 -4.3744,8.9447 -2.3106,11.0083 2.2859,2.2859 3.6205,0.9363 3.3224,-3.3593 z m 53.1012,46.023 c -3.9641,-1.4492 -10.089,-7.5672 -11.6673,-11.6544 -0.9856,-2.5526 -0.6811,-5.6363 0.9401,-9.5169 2.3988,-5.7405 2.3988,-5.7405 -6.5521,-16.7663 -4.9227,-6.0642 -8.9648,-11.5804 -8.983,-12.2583 0,-0.6779 1.3608,-1.2327 3.0634,-1.2327 3.1002,0 13.096,9.8393 16.5475,16.2889 1.3271,2.4798 3.4374,3.4321 7.6058,3.4321 5.6074,0 12.373,4.6483 14.0389,9.6455 0.5217,1.566 1.7944,1.6426 5.2804,0.3173 6.0588,-2.3036 11.3508,0.3572 10.6399,5.3499 -0.3866,2.7241 -2.1606,3.9527 -7.3725,5.1092 -4.3748,0.9706 -7.5677,2.841 -8.8087,5.1595 -1.0705,2.0002 -3.7487,4.458 -5.9513,5.4617 -4.3323,1.974 -5.0502,2.0284 -8.7811,0.6645 z m 9.5317,-7.3852 c 1.0848,-1.0846 1.9724,-3.3594 1.9724,-5.0552 0,-2.8478 -0.3681,-2.7913 -4.8396,0.7396 -2.6616,2.1025 -4.8799,4.3773 -4.9302,5.0552 -0.1445,1.9709 5.6354,1.4226 7.7974,-0.7396 z m -6.9212,-7.4774 c 3.1566,-4.189 3.6136,-5.3969 1.4274,-3.771 -7.0777,5.2634 -8.852,7.1485 -8.0108,8.51 1.3086,2.1168 1.5458,1.9461 6.5834,-4.739 z m 21.9932,-0.3466 c 4.0603,-2.568 1.1781,-3.1838 -4.0608,-0.8675 -3.8152,1.6868 -4.187,2.2042 -1.6434,2.2881 1.8073,0.059 4.3747,-0.5798 5.7042,-1.4206 z m -25.6068,-9.6925 c -3.1132,-0.6354 -7.2141,3.7898 -7.2141,7.7848 0,1.6686 1.6231,0.9077 5.0512,-2.3685 4.256,-4.0666 4.596,-4.9195 2.1629,-5.4163 z m 62.2202,23.4791 c 5.2058,-2.8243 5.1118,-2.5355 2.612,-8.0215 -1.0487,-2.3021 -3.2675,-4.2968 -4.93,-4.4323 -1.6627,-0.1356 -3.8857,-0.3206 -4.9405,-0.4108 -3.6857,-0.3159 -3.2543,3.9613 0.5475,5.4251 3.2883,1.2663 3.4388,1.637 1.0551,2.602 -5.9536,2.4099 -8.7365,0.2823 -8.5087,-6.505 0.1216,-3.6968 -0.8017,-7.438 -2.182,-8.8181 -1.3183,-1.3184 -2.0461,-3.7388 -1.6174,-5.3785 0.4285,-1.6397 -0.3122,-3.888 -1.6477,-4.9961 -1.366,-1.1336 -2.1104,-3.6757 -1.7018,-5.8123 0.9703,-5.0757 -2.7005,-4.94 -5.0358,0.1862 -1.4265,3.1303 -1.3067,4.4055 0.5575,5.9532 3.0328,2.5168 3.0449,4.8538 0.047,4.8538 -6.3508,0 -9.9206,-10.5043 -5.1807,-15.2443 1.282,-1.2824 2.5761,-4.4036 2.8757,-6.936 0.5487,-4.6427 5.1714,-9.0737 7.2732,-6.9717 0.6243,0.624 0.2238,2.2295 -0.8841,3.5675 -1.1105,1.3381 -1.5424,3.2046 -0.9591,4.1483 1.9322,3.1267 6.8838,1.7778 8.7839,-2.3932 1.0296,-2.2597 2.9973,-4.1086 4.3726,-4.1086 2.8072,0 3.218,2.8943 0.9256,6.5185 -0.9662,1.5278 -0.8833,3.1822 0.2282,4.5194 2.7289,3.2877 6.0909,2.5684 5.1323,-1.0975 -0.5456,-2.0858 0.6485,-4.585 3.4137,-7.1483 4.7111,-4.3657 4.1028,-6.5029 -1.4534,-5.1084 -3.9345,0.9876 -9.0309,-2.8721 -9.0309,-6.8399 0,-1.2913 1.3793,-3.727 3.0653,-5.4129 2.0954,-2.0955 2.6119,-3.8752 1.6322,-5.6253 -1.2903,-2.3066 -2.0855,-2.2879 -8.0303,0.1891 -4.9524,2.0636 -6.4869,3.5692 -6.1524,6.0362 0.3028,2.2298 1.6355,3.2447 4.1441,3.1563 4.5812,-0.1617 4.781,1.9001 0.4101,4.239 -2.3619,1.2642 -4.2668,1.2346 -6.7693,-0.1042 -2.9623,-1.5855 -3.3606,-2.9432 -2.667,-9.0967 0.4473,-3.9781 0.5846,-7.2328 0.3029,-7.2328 -0.2795,0 -2.4099,0.7212 -4.7285,1.6027 -4.7991,1.8246 -5.5119,6.1255 -1.5013,9.0583 3.5227,2.5758 0.832,4.1521 -3.9831,2.3328 -5.1598,-1.9497 -6.062,-5.3843 -3.0178,-11.4872 2.763,-5.5381 2.2715,-8.0803 -1.562,-8.0803 -3.8748,0 -2.6878,-4.8902 1.5807,-6.5129 4.4396,-1.6878 23.9279,0.5548 29.1612,3.3555 9.8065,5.2484 26.1877,42.326 26.4444,59.8552 0.2188,14.9319 -8.6518,28.8421 -18.2981,28.6937 -4.2798,-0.065 -4.2798,-0.065 0.2375,-2.5176 z m 11.068,-14.4629 c 0,-0.7885 -1.0761,-0.5199 -2.4218,0.5971 -1.3459,1.1171 -1.9935,2.7655 -1.4382,3.6635 1.0184,1.6481 3.8103,-1.4336 3.86,-4.2606 z m -5.6302,-3.4441 c 2.7518,-2.0814 2.8133,-2.42 0.4473,-2.4652 -1.508,-0.029 -3.9113,-0.5011 -5.3411,-1.0497 -1.8637,-0.7151 -2.5997,-0.019 -2.5997,2.4652 0,4.0428 2.9822,4.4608 7.4921,1.0497 z m -9.1352,-12.951 c 0,-1.3858 0.7392,-2.9768 1.643,-3.5353 3.2102,-1.9839 1.568,-3.5329 -3.6975,-3.4877 -2.9376,0.024 -6.4329,-0.2894 -7.7675,-0.6986 -1.5499,-0.4754 -2.6289,0.5847 -2.9875,2.935 -0.504,3.3024 -0.047,3.5758 4.4801,2.6703 5.7397,-1.1477 6.7333,1.3837 2.4163,6.1541 -1.4445,1.5961 -2.1251,3.7128 -1.5126,4.7039 1.3435,2.1735 7.4257,-4.9868 7.4257,-8.7417 z m 15.1596,6.23 c 1.479,-1.4795 -0.5041,-7.0003 -2.8366,-7.8955 -1.179,-0.4522 -3.4816,0.1562 -5.1173,1.3519 -2.5207,1.8433 -2.6395,2.577 -0.7798,4.8174 2.1516,2.5929 6.9238,3.5362 8.7337,1.7262 z m -3.656,-18.7072 c 0,-3.7541 -2.5911,-5.8391 -4.1405,-3.3318 -1.3808,2.2336 0.2283,6.5217 2.4453,6.5217 0.9326,0 1.6952,-1.4355 1.6952,-3.1899 z m -6.5736,-17.2183 c 0,-2.5053 -2.238,-5.713 -3.4589,-4.9581 -2.4042,1.4855 -1.6715,5.6454 0.9937,5.6454 1.356,0 2.4652,-0.3093 2.4652,-0.6873 z m -12.5598,-20.7131 c -0.775,-0.756 -3.5534,-1.9047 -6.1738,-2.5526 -3.814,-0.9426 -4.5006,-0.7199 -3.4418,1.1164 3.2987,5.7213 4.3861,6.3639 7.7337,4.5722 1.8098,-0.9686 2.6568,-2.3798 1.8819,-3.136 z m -15.378,-1.6074 c 0,-0.9039 -1.153,-1.6434 -2.5622,-1.6434 -1.4092,0 -2.1052,0.7395 -1.5467,1.6434 0.5587,0.9039 1.7115,1.6435 2.5622,1.6435 0.8507,0 1.5467,-0.7396 1.5467,-1.6435 z m 46.7865,77.8755 c 0.7118,-1.7053 1.6514,-4.7417 2.087,-6.7479 0.4379,-2.006 1.8113,-4.4928 3.0565,-5.5261 3.8241,-3.1738 4.6599,2.717 1.2209,8.6055 -3.4618,5.9266 -8.5274,8.8465 -6.3644,3.6685 z m -86.8747,-41.8759 c -2.7975,-2.2006 -4.2839,-4.9696 -4.2839,-7.9796 0,-6.3095 -3.629,-8.7984 -13.5604,-9.3005 -6.3239,-0.32 -8.9457,0.2637 -10.5254,2.3419 -1.8741,2.4649 -2.1103,2.2772 -2.1568,-1.7135 -0.075,-6.4762 5.7671,-9.9457 13.1727,-7.8217 3.1091,0.8916 5.756,1.6211 5.8827,1.6211 0.1258,0 0.6192,-1.4888 1.0954,-3.3089 0.476,-1.8198 3.4304,-4.3804 6.566,-5.6906 3.1352,-1.3102 6.0974,-3.4162 6.5824,-4.6802 1.1655,-3.0379 6.1501,-4.2345 10.6713,-2.562 2.6358,0.975 3.6364,2.6894 3.6364,6.2313 0,2.6874 -0.7244,5.3338 -1.6101,5.8812 -1.0262,0.6342 -0.9385,2.0687 0.2424,3.9574 2.4354,3.8995 0.5054,11.2068 -3.2774,12.4073 -2.2337,0.709 -2.8174,2.1624 -2.296,5.7154 1.0206,6.9543 -4.2733,9.514 -10.1375,4.9014 z m 6.6794,-4.0558 c 0.9074,-2.8704 -2.38,-6.1414 -5.1165,-5.0913 -2.1838,0.8379 -2.3516,1.6908 -0.8762,4.4478 1.7893,3.3437 5.0297,3.6917 5.9927,0.6435 z m -0.4952,-14.277 c 1.6845,-6.2864 1.0551,-7.1397 -2.2972,-3.1157 -1.773,2.1279 -2.8137,4.5313 -2.3133,5.3411 1.5852,2.5645 3.5855,1.599 4.6105,-2.2254 z m -7.4434,-7.5803 c -2.7471,-0.9804 -5.1881,2.6244 -3.9461,5.8263 1.044,2.6896 1.3808,2.5778 3.3871,-1.1222 1.4013,-2.5836 1.6091,-4.3294 0.559,-4.7041 z m 12.094,-7.129 c -0.9272,-0.9268 -2.6014,-1.1189 -3.7209,-0.4272 -1.5117,0.9342 -1.2358,1.8426 1.0705,3.5292 3.4353,2.512 5.6601,-0.092 2.6504,-3.1023 z m 11.4276,33.6085 c -2.1615,-4.1252 0.6062,-10.2714 4.6254,-10.2714 4.092,0 4.1973,1.2383 0.4659,5.4517 -2.1079,2.3789 -2.3274,3.4373 -0.8218,3.9642 2.8435,0.9945 2.5846,3.7314 -0.3539,3.7314 -1.3245,0 -3.0859,-1.2942 -3.9146,-2.8759 z m 39.19,-44.783 c -3.1635,-1.732 -7.9706,-3.2037 -10.6823,-3.2701 -4.6599,-0.1142 -4.7582,-0.2517 -1.7884,-2.4988 4.8009,-3.633 20.6878,1.4603 20.6878,6.6329 0,3.1073 -1.1921,2.982 -8.2171,-0.864 z m -117.5038,129.8068 c 0,-3.5226 -4.7753,-3.0139 -5.468,0.5826 -0.4239,2.1963 0.2468,2.8655 2.4428,2.4427 1.6636,-0.3206 3.0252,-1.6818 3.0252,-3.0253 z m 10.6819,-0.7021 c 0,-1.3025 -0.7392,-2.8252 -1.6435,-3.3838 -0.9036,-0.5588 -1.643,0.5069 -1.643,2.368 0,1.8611 0.7394,3.3838 1.643,3.3838 0.9043,0 1.6435,-1.0657 1.6435,-2.368 z m -4.93,-14.559 c 0,-3.7024 -2.7085,-7.7241 -5.2012,-7.7241 -0.6913,0 -2.1159,1.6054 -3.1659,3.5677 -1.5825,2.9563 -1.398,3.9416 1.0775,5.7517 4.4652,3.2649 7.2896,2.6466 7.2896,-1.5953 z m -9.0388,-28.2892 c 0,-5.4215 -3.4599,-6.6708 -6.2452,-2.2552 -2.2724,3.6026 -0.1818,8.4005 3.3643,7.7178 1.9784,-0.3811 2.8809,-2.0919 2.8809,-5.4626 z m 2.4652,-66.9736 c 8.5865,-4.2399 37.7258,-15.8488 64.7533,-25.7972 27.0272,-9.9484 49.4597,-18.4071 49.8496,-18.7968 0.8572,-0.857 -14.0072,-7.576 -16.6181,-7.5117 -1.0152,0.024 -11.8289,4.1376 -24.0313,9.1392 -24.5554,10.0651 -67.3281,26.0774 -74.3643,27.8387 -5.2576,1.3163 -5.8586,3.4155 -1.3845,4.8354 3.8149,1.2107 5.939,5.8003 2.6846,5.8003 -1.2621,0 -3.6924,-1.7771 -5.4005,-3.9489 -3.1059,-3.9489 -3.1059,-3.9489 -16.8629,0.037 -7.5663,2.1915 -13.9954,4.223 -14.2865,4.5145 -0.7199,0.7197 18.1914,12.537 19.2265,12.0148 0.4518,-0.2284 7.8472,-3.8839 16.4341,-8.124 z m -20.7638,-0.1597 c -2.5901,-2.2292 -4.2397,-4.5236 -3.6662,-5.0988 0.5735,-0.5753 3.1617,0.7781 5.7518,3.0072 2.59,2.2291 4.2397,4.5236 3.6663,5.0988 -0.5735,0.5751 -3.1623,-0.778 -5.7519,-3.0072 z m 8.8427,-2.073 c -5.1755,-2.7117 -5.9325,-5.5463 -1.4809,-5.5463 3.4124,0 9.4195,5.7937 7.3399,7.0791 -0.7406,0.4575 -3.3769,-0.232 -5.859,-1.5328 z m 19.2489,-8.9426 c -1.9272,-3.1181 0.8833,-3.8875 3.7455,-1.0255 2.562,2.562 2.5668,2.7782 0.056,2.7782 -1.4963,0 -3.2078,-0.7887 -3.8037,-1.7527 z m 5.7862,-2.3955 c -1.1432,-1.3778 -1.7096,-2.8741 -1.2577,-3.3256 1.4879,-1.4882 6.2209,1.2059 6.2209,3.5412 0,3.0148 -2.3674,2.9122 -4.9632,-0.2154 z m 79.6415,-27.873 c 1.7549,-1.3698 4.6762,-2.4903 6.4917,-2.4903 4.5438,0 1.391,2.602 -4.7513,3.9215 -4.6486,0.9986 -4.7479,0.9168 -1.7404,-1.4312 z m -3.1076,-3.9492 c 2.4862,-2.3227 8.9564,-3.8505 8.9564,-2.1146 0,1.7946 -3.9117,3.5735 -7.8584,3.5735 -1.6254,0 -2.0521,-0.5671 -1.098,-1.4589 z" fill="#00B894" transform="translate(-91.0699,-163.4899) translate(-4700.8133,-1877.4302)"/>
</svg>