<?xml version="1.0" ?><svg height="84.144547mm" viewBox="0 0 84.990227 84.144547" width="84.990227mm" xmlns="http://www.w3.org/2000/svg">
    <path color="#000" d="m 3917.2233,5896.6348 c 21.0329,-136.1629 304.6826,-156.976 297.5546,58.38 -5.9986,181.2317 -345.3363,196.1187 -297.5546,-58.38 z" fill="#FFFFFF" overflow="visible" paint-order="fill markers stroke" transform="translate(-354.85953,-51.77529) matrix(0.26458333,0,0,0.26458333,-677.42817,-1477.2342)"/>
    <path d="m 3994.2368,6080.5395 c -44.9221,-18.4709 -59.5853,-30.7537 -76.6646,-64.2184 -25.9714,-50.8873 -19.5213,-137.561 13.3465,-179.346 16.2871,-20.7059 63.3667,-51.9654 99.5139,-56.9198 56.8124,-7.7868 134.6637,25.7095 175.6042,77.415 18.0636,22.8135 16.7236,38.0464 16.7236,80.3424 0,43.301 -1.814,49.4168 -25.5536,86.1466 -45.682,70.6795 -118.9827,91.1126 -202.97,56.5802 z m 131.7434,-13.3879 c 23.1304,-11.7208 38.7042,-26.1829 55.6024,-51.6337 20.8586,-31.4152 23.3756,-39.6445 22.6008,-73.8974 -1.0309,-45.6245 -6.4922,-61.9705 -30.0592,-89.979 -21.7361,-25.8316 -41.0801,-35.977 -88.7767,-46.5603 -45.8275,-10.1687 -74.1678,-3.1144 -116.0939,28.899 -36.4517,27.8326 -47.2075,52.9898 -47.2075,110.4127 0,74.2176 16.5612,96.8662 92.5637,126.5839 42.0347,16.4358 73.5211,15.3546 111.3704,-3.8252 z m -61.6607,-16.0536 c -2.1981,-3.5568 0.5432,-6.467 6.0854,-6.467 5.5455,0 10.082,2.9102 10.082,6.467 0,3.5568 -2.7381,6.4669 -6.0853,6.4669 -3.3467,0 -7.884,-2.9101 -10.0821,-6.4669 z m 31.103,-36.4473 c -8.733,-22.7579 27.9961,-46.0811 45.3069,-28.7703 5.041,5.0417 4.8315,7.0148 -0.7462,7.0148 -4.2683,0 -7.7604,4.263 -7.7604,9.4728 0,5.2105 -5.6289,12.4858 -12.5084,16.1675 -16.7437,8.9606 -19.5336,8.5143 -24.2919,-3.8848 z m -62.6373,-5.8332 c -2.211,-5.7627 0.401,-11.5629 6.2103,-13.7928 12.0758,-4.6335 25.2904,6.8622 19.205,16.7081 -6.3454,10.2677 -21.0015,8.5869 -25.4153,-2.9153 z m -57.7501,-7.124 c -6.886,-6.886 1.7449,-14.9497 11.8508,-11.0721 5.2007,1.9963 7.8458,6.2342 5.8778,9.4185 -4.1919,6.7825 -11.8817,7.4998 -17.7286,1.6536 z m 177.8283,-48.0852 c 1.2746,-3.8239 5.0818,-6.952 8.4607,-6.952 3.379,0 7.1868,3.1281 8.4614,6.952 1.2741,3.8233 -2.533,6.952 -8.4614,6.952 -5.9276,0 -9.7353,-3.1287 -8.4607,-6.952 z m -83.1387,-9.65 c -2.1387,-5.5745 -0.5692,-13.4526 3.483,-17.5074 9.1016,-9.1017 30.6645,9.4967 23.8302,20.5546 -6.4547,10.4442 -22.8375,8.6159 -27.3132,-3.0472 z m -70.3407,-3.2289 c -2.3449,-3.7936 -2.6418,-8.5184 -0.661,-10.4998 5.3204,-5.3198 23.5612,2.9844 23.5612,10.7267 0,8.7777 -17.4421,8.6044 -22.9002,-0.2263 z m -16.1293,-41.8795 c -6.4353,-7.7547 -6.5517,-11.7008 -0.5239,-17.73 6.0298,-6.0297 9.1133,-5.6087 13.8543,1.8904 13.8548,21.9146 2.7044,35.1622 -13.3317,15.8396 z m 81.0648,-28.8273 c -2.1981,-3.5568 -2.1981,-9.3771 0,-12.934 6.7515,-10.9233 20.9394,-7.1796 24.5086,6.467 2.4807,9.4871 0.2004,12.934 -8.5649,12.934 -6.5705,0 -13.7456,-2.9101 -15.9437,-6.467 z" fill="#00B894" transform="translate(-354.85953,-51.77529) matrix(0.26458333,0,0,0.26458333,-677.42817,-1477.2342)"/>
</svg>