<?xml version="1.0" ?><svg height="76.092888mm" viewBox="0 0 203.03522 76.092888" width="203.03522mm" xmlns="http://www.w3.org/2000/svg">
    <path d="m 5975.0865,579.48771 c -6.786,-4.20865 -19.8242,-12.09985 -14.487,-24.51992 5.3374,-12.42009 22.6962,-11.39079 28.3385,-10.33864 5.6422,1.05216 12.4026,1.62401 12.4026,1.62401 0,0 3.8886,-2.37882 13.5974,-2.21869 9.7087,0.1601 89.8438,11.98546 97.6972,12.00835 7.8533,0.0228 18.1467,5.78689 18.1467,5.78689 0,0 28.7959,4.73472 25.7461,15.82817 -3.0502,11.09342 -21.2477,26.18965 -25.7715,29.41476 -4.5239,3.22508 -5.8965,10.29287 -48.3659,6.01562 -42.4693,-4.27728 -87.1243,-10.15566 -94.7742,-13.1749 -7.6502,-3.01924 -12.047,-6.88481 -12.5299,-20.42565 z" fill="#FFFFFF" paint-order="markers stroke fill" transform="translate(-33.970592,-56.134356) translate(-5921.5203,-485.70012)"/>
    <path d="m 6082.1254,617.15311 c -4.7879,-0.39823 -13.4928,-1.43048 -19.3438,-2.29373 -15.8981,-2.34379 -22.7213,-3.21064 -38.689,-4.91535 -28.0632,-2.99522 -38.3602,-5.52979 -45.124,-11.1089 -3.7679,-3.10838 -6.6215,-9.5979 -6.6215,-15.05948 0,-2.69925 -0.5694,-3.37533 -4.5854,-5.44202 -5.2345,-2.69345 -10.3842,-8.87319 -11.811,-14.17375 -1.2862,-4.77389 0.148,-9.86337 4.0259,-14.27822 6.4287,-7.32226 16.5125,-9.62326 29.9747,-6.83914 6.7048,1.38625 7.6754,1.38845 10.4182,0.0219 2.5065,-1.24988 5.8752,-1.43121 19.6608,-1.05692 17.9713,0.48893 31.9846,2.02606 59.1932,6.49315 9.5755,1.57267 22.7757,3.51677 29.3335,4.32125 14.9985,1.84036 19.1209,2.95313 22.148,5.98099 1.8621,1.86213 4.2488,2.71156 10.4228,3.71119 11.6079,1.8788 15.2925,4.12395 16.9651,10.33561 1.6683,6.19572 -1.5295,15.66894 -8.7709,20.46716 -7.2296,4.79037 -5.9012,4.21921 -13.5167,12.13414 -6.8338,7.10392 -12.133,9.60657 -23.8955,11.28808 -10.2188,1.46097 -16.2179,1.54511 -29.7844,0.41564 z m 29.2071,-5.71619 c 8.1998,-0.79361 9.4092,-1.19404 15.4749,-5.12792 3.6191,-2.3467 7.1098,-4.91246 7.7569,-5.70172 1.0321,-1.25858 0.534,-1.30719 -4.0449,-0.39245 -5.653,1.38634 -10.5143,3.67342 -16.0242,0.99601 -3.6771,-1.90202 -6.1342,-6.63313 -5.3863,-10.37336 0.788,-3.93968 -1.8482,-8.07233 -6.282,-9.84594 -1.9681,-0.7878 -8.5191,-2.08119 -14.5574,-2.87407 -6.0391,-0.79287 -16.4203,-2.5324 -23.0703,-3.86572 -32.0644,-6.42857 -70.749,-9.39547 -78.6166,-6.02886 -6.7008,2.8668 -9.7757,8.43688 -9.7757,17.61113 0,4.91608 2.8588,7.37422 6.3131,9.54463 6.0137,3.78012 12.9371,5.40348 26.4643,6.81002 3.1919,0.33224 14.726,1.85344 25.6317,3.38041 47.3401,6.6288 58.9794,7.52613 76.1165,5.86784 z m 35.4773,-41.79921 c -6.8749,-2.55572 -12.7542,-2.78292 -37.5477,-3.70929 -29.1993,-1.09029 -50.5089,-3.73803 -74.0461,-9.19816 -7.714,-1.78958 -18.5951,-4.16313 -24.1807,-5.27516 -5.5857,-1.11207 -13.3236,-2.6637 -17.1951,-3.4486 -8.5498,-1.733 -16.5508,-1.82586 -21.7985,-0.25388 -4.6447,1.39133 -10.91,7.20489 -11.4225,10.28412 -0.9114,5.47612 -0.1425,7.51958 3.1667,11.28807 1.6749,1.90784 4.3764,4.15658 6.0027,4.99806 2.8486,1.47258 3.0112,1.4443 4.4234,-0.77472 2.9685,-4.66436 7.9795,-8.56781 12.8616,-10.01718 9.0109,-2.67601 29.6518,-1.97383 56.8473,1.93539 13.0326,1.87303 24.378,3.6169 25.2107,3.87441 0.8329,0.25827 8.7211,1.29123 17.5289,2.29519 18.8483,2.14937 23.5582,3.80986 27.4386,9.67406 2.1906,3.31002 2.6658,4.74017 2.8889,8.96111 0.3624,6.85634 12.0161,3.76999 16.9789,2.25711 13.9644,-4.25691 25.3214,-18.25175 12.8429,-22.89053 z m -24.1094,-9.45886 c -0.5059,-0.4998 -6.3597,-1.60534 -13.0097,-2.45697 -6.6489,-0.85163 -18.183,-2.61945 -25.6308,-3.92809 -20.8526,-3.66404 -61.2979,-8.16229 -72.5407,-8.06725 -4.9342,0.0436 -2.4716,0.75007 16.4428,4.7311 34.9364,7.35348 48.093,8.86087 91.3529,10.46984 2.6912,0.10007 3.9598,-0.17986 3.3855,-0.74863 z" fill="#00B894" transform="translate(-33.970592,-56.134356) translate(-5921.5203,-485.70012)"/>
</svg>