<?xml version="1.0" ?><svg height="143.25334mm" viewBox="0 0 119.75829 143.25334" width="119.75829mm" xmlns="http://www.w3.org/2000/svg">
    <path color="#000" d="m 1382.9688,8947.3809 c -26.3779,-0.029 -59.1585,17.0359 -86.8067,53.7207 -41.1508,54.6006 -2.0117,117.5312 -2.0117,117.5312 0,0 -135.6255,197.0345 -152.0254,223.4746 -16.4,26.4401 -17.2683,41.0147 -6.6406,50.0723 10.6278,9.0576 19.3165,13.5824 40.4453,-5.7949 36.0373,-33.0501 130.3954,-230.5358 159.875,-235.9688 29.4797,-5.4329 43.8644,-6.7216 79.9883,-52.9707 37.6571,-48.212 25.7559,-114.0906 -0.1016,-138.0859 -8.4845,-7.8734 -19.8404,-11.9646 -32.7226,-11.9785 z m -208.9278,141.08 c -0.4091,-0.01 -0.8059,0.019 -1.1894,0.078 -12.2748,1.9015 -16.6003,16.1176 -6.7403,26.3496 9.8601,10.2319 42.5591,59.6721 62.4805,85.75 l 16.9023,-29.0664 c 0,0 -6.6398,-17.7463 -20.625,-35.0411 -13.5481,-16.7543 -38.1445,-47.8707 -50.8281,-48.0703 z m 119.7637,124.4004 -25.9219,51.0782 c 0,0 53.3906,91.3505 64.7598,105.4296 11.3693,14.0792 28.8321,13.5061 38.1094,7.2032 9.2773,-6.3029 11.3683,-27.1753 3.2734,-36.9161 -8.0949,-9.7407 -80.2207,-126.7949 -80.2207,-126.7949 z" fill="#FFFFFF" overflow="visible" paint-order="fill markers stroke" transform="translate(-92.539972,-59.493716) matrix(0.26458333,0,0,0.26458333,704.63846,-1641.4379) translate(-3313.5291,-2437.8203)"/>
    <path d="m -2196.9232,6945.483 c -2.4584,-12.763 8.8172,-33.154 59.3501,-107.325 l 43.9497,-64.508 -12.6998,-22.96 c -18.3019,-33.084 -44.4031,-68.044 -53.929,-72.233 -4.5172,-1.987 -8.7464,-7.271 -9.3982,-11.748 -0.7032,-4.826 -10.5747,-13.929 -24.2623,-22.375 -27.1868,-16.775 -87.352,-75.699 -105.9294,-103.748 -17.1296,-25.858 -18.124,-53.685 -2.728,-76.343 22.4148,-28.83 30.231,-35.491 57.9567,-35.525 25.8361,0 35.6957,1.925 52.3264,10.212 36.121,17.999 60.8044,59.498 70.1507,117.937 2.505,15.665 6.503,40.379 8.8841,54.922 2.3815,14.544 4.1893,32.61 4.0175,40.15 -0.2288,9.998 3.2743,17.72 12.9449,28.543 7.2917,8.162 17.8344,21.664 23.4281,30 5.5938,8.339 11.0859,15.106 12.2048,15.036 1.1188,-0.07 9.068,-10.485 17.6647,-23.144 13.4816,-19.158 18.1862,-17.736 8.6263,-37.474 -3.8528,-7.954 -7.9132,-26.606 -9.0239,-41.447 -1.8056,-24.126 -0.7801,-29.264 9.6774,-48.477 6.4334,-11.82 21.9246,-31.879 34.4252,-44.575 38.1387,-38.738 74.0404,-41.243 109.0364,-7.616 33.9144,32.587 38.259,67.499 14.4077,115.768 -7.9914,16.174 -21.1621,37.155 -29.2684,46.625 -15.3688,17.956 -48.5512,36.288 -66.0445,36.492 -8.1534,0.09 -13.1862,5.276 -25.3763,26.124 l -15.2058,26.008 34.9939,51.742 c 41.5698,61.466 52.1436,83.355 48.6659,100.743 -5.2812,26.406 -27.7062,35.26 -48.2921,19.067 -5.7091,-4.49 -23.5621,-30.209 -39.6736,-57.154 -16.1114,-26.947 -29.78,-48.443 -30.375,-47.775 -0.5949,0.671 -17.6742,26.115 -37.9536,56.547 -20.2792,30.429 -41.4818,58.348 -47.117,62.039 -25.6281,20.078 -60.3553,11.47 -65.4336,-13.528 z m 61.0038,-5.859 c 15.0292,-16.759 48.5363,-69.386 98.6397,-154.926 39.1858,-66.9 52.2964,-84.893 58.8915,-80.816 7.7458,4.787 39.6577,-11.723 55.1542,-28.535 8.8097,-9.556 22.9088,-31.32 31.331,-48.361 13.5704,-27.458 14.9895,-33.142 12.4686,-49.954 -2.2477,-14.99 -6.5679,-22.691 -20.5933,-36.717 -9.7615,-9.761 -22.5155,-18.945 -28.3417,-20.407 -30.9649,-7.771 -82.5052,37.902 -95.7736,84.868 -5.8948,20.871 1.0024,58.064 12.4912,67.37 12.1645,7.564 5.8491,10.719 -1.2494,21.06 -5.3563,7.801 -40.8665,58.125 -78.9113,111.826 -98.1218,138.498 -98.6319,139.401 -83.7721,148.261 10.9918,6.554 26.2444,1.297 39.6652,-13.669 z m 136.4928,-289.849 c -10.8479,-13.792 -14.0104,-26.558 -11.0684,-44.688 4.0979,-25.253 32.9828,-54.322 53.9776,-54.322 4.4907,0 2.0934,3.243 -6.8553,9.276 -35.9951,24.256 -42.5939,75.629 -11.3755,88.559 13.9686,5.785 11.6427,12.007 -4.4888,12.007 -7.7918,0 -14.5007,-3.597 -20.1896,-10.832 z m 48.4737,281.538 c 7.9354,-9.562 1.3001,-28.018 -23.8544,-66.347 -12.8232,-19.541 -28.5377,-44.448 -34.9208,-55.352 l -11.6053,-19.824 -9.0654,17.77 c -9.0474,17.734 -9.0498,17.798 -1.2101,32.028 11.6381,21.127 50.0652,77.986 59.8152,88.506 9.9135,10.697 14.0976,11.342 20.8408,3.219 z m -125.8759,-186.9406 c 1.6562,-4.318 -4.1551,-15.8134 -19.3313,-38.2024 -25.7601,-38.002 -34.6882,-46.158 -42.2459,-38.6 -3.6148,3.616 -0.7137,9.324 12.1757,23.966 9.3066,10.573 22.51,28.993 29.341,40.932 13.1032,22.902 15.8765,22.8064 20.0605,11.9044 z m -106.6598,-123.5374 c -31.2166,-32.028 -80.8503,-100.225 -92.5287,-127.134 l -9.6634,-22.266 -5.2758,12.725 c -8.0221,19.348 -0.9709,36.954 28.476,71.105 40.4878,46.952 94.1394,95.538 99.885,90.452 0.991,-0.878 -8.4111,-12.073 -20.8931,-24.882 z m 25.433,2.142 c -25.1884,-63.553 -49.2249,-111.688 -75.6667,-151.525 -11.3708,-17.129 -16.0366,-21.117 -22.6757,-19.38 -24.442,6.391 -10.9619,37.229 54.6957,125.137 22.5103,30.136 43.3141,54.922 46.1023,54.922 0.6447,0 -0.4601,-4.12 -2.4556,-9.154 z m 24.1705,3.569 c 0,-7.435 -23.8425,-71.396 -36.5015,-97.921 -14.0452,-29.428 -46.4556,-71.192 -51.4053,-66.243 -0.9961,0.997 4.8419,11.679 12.9733,23.74 17.6831,26.226 36.0993,62.758 54.6398,108.378 7.502,18.46 15.1368,33.563 16.9667,33.563 1.8298,0 3.327,-0.684 3.327,-1.517 z m -16.5313,-107.068 c -6.8703,-20.648 -13.8005,-31.976 -28.6193,-46.796 -26.0577,-26.057 -33.5029,-25.035 -10.3579,1.422 10.093,11.54 24.3316,34.694 31.6416,51.461 15.7644,36.156 20.1755,32.495 7.3356,-6.087 z" fill="#00B894" transform="translate(-92.539972,-59.493716) matrix(0.26458333,0,0,0.26458333,704.63846,-1641.4379)"/>
</svg>