<?xml version="1.0" ?><svg height="131.1669mm" viewBox="0 0 134.37097 131.1669" width="134.37097mm" xmlns="http://www.w3.org/2000/svg">
    <path color="#000" d="m -1142.5441,6304.5936 c 13.5062,-152.7592 158.5146,-220.1048 266.5636,-222.4044 108.0491,-2.2996 209.0714,80.5683 216.8283,229.139 7.7568,148.5707 -113.8897,245.6468 -241.2853,243.0186 -127.3957,-2.6281 -245.9395,-118.1009 -242.1066,-249.7532 z" fill="#FFFFFF" overflow="visible" paint-order="fill markers stroke" transform="translate(-259.61707,9.6742442) matrix(0.26458333,0,0,0.26458333,564.53089,-1615.8572)"/>
    <path d="m -987.37275,6544.0292 c -95.52055,-40.612 -152.59705,-106.514 -164.04635,-197.984 -9.2611,-103.457 46.0897,-182.7 125.3201,-232.798 88.54335,-54.79 207.84805,-57.034 277.41635,-5.212 44.5538,33.187 78.1611,92.775 100.3286,177.89 17.3086,73.568 -27.718,156.525 -75.4164,208.621 -70.54,75.58 -167.1122,90.506 -263.6023,49.483 z m 106.6019,2.853 c 60.3071,-4.387 115.7619,-34.525 155.465,-84.489 40.8145,-51.363 61.74,-113.436 53.6379,-159.104 -6.8981,-38.88 -29.4829,-96.817 -51.3776,-131.795 -24.1808,-38.631 -56.9871,-60.413 -105.3577,-73.867 -103.9705,-28.914 -246.72475,42.958 -290.80565,152.725 -33.4994,83.418 -3.843,179.916 73.1362,237.973 55.25025,41.672 113.54495,62.322 165.30185,58.557 z m 39.7715,-47.082 c 0.3164,-1.665 11.5347,-11.036 24.9297,-20.829 34.5315,-25.236 55.4878,-51.025 66.4849,-81.814 15.1651,-42.46 17.4551,-80.174 7.5456,-124.275 -9.3228,-41.487 -2.4406,-51.042 9.9195,-22.5 23.5788,65.128 12.7645,149.455 -22.4629,196.736 -18.6028,24.772 -67.1081,59.487 -79.7611,57.087 -3.9771,-0.758 -6.972,-2.736 -6.6557,-4.405 z m -225.85495,-79.369 c -18.6389,-13.842 -30.5328,-79.098 -22.3106,-122.407 11.399,-60.044 69.6264,-134.344 116.14345,-148.209 28.9461,-8.624 30.1539,-1.506 2.5792,15.201 -44.97185,27.242 -86.04565,85.825 -96.31085,137.364 -5.4351,27.285 0.4536,83.129 10.8836,103.217 11.4384,22.03 6.9208,28.131 -10.9848,14.834 z" fill="#00B894" transform="translate(-259.61707,9.6742442) matrix(0.26458333,0,0,0.26458333,564.53089,-1615.8572)"/>
</svg>