<?xml version="1.0" ?><svg height="103.64052mm" viewBox="0 0 262.41907 103.64052" width="262.41907mm" xmlns="http://www.w3.org/2000/svg">
    <path color="#000" d="m 547.78489,306.91543 c 0,0 53.23118,-27.883 70.89741,-34.09914 17.66624,-6.21615 49.87724,-23.69906 57.0168,-29.28762 7.13956,-5.58855 17.59984,-16.01854 17.59984,-16.01854 0,0 -3.65282,-13.74725 6.27615,-18.79786 9.92898,-5.05062 29.62086,7.77019 37.25852,10.25067 7.63766,2.48047 87.20212,24.95424 94.64057,27.64392 7.43844,2.68967 16.43757,13.86679 14.17949,20.29213 -2.25808,6.42535 -6.575,14.28518 -25.60276,18.67832 -19.02776,4.39315 -71.32912,24.65538 -93.57796,26.80713 -22.24885,2.15176 -75.41362,8.69664 -102.80957,7.68054 -27.39595,-1.0161 -69.86798,-4.9012 -75.87849,-13.14955 z" fill="#FFFFFF" overflow="visible" paint-order="fill markers stroke" transform="translate(13.400879,-26.053266) matrix(0.8481283,0,0,0.8481283,-472.19115,-145.42389)"/>
    <path d="m 623.61097,323.45779 c -2.3473,-0.8702 -14.4668,-1.5524 -29.33325,-1.6511 -22.7496,-0.151 -26.2431,-0.4825 -34.2533,-3.2502 -8.6005,-2.9717 -19.08,-9.7989 -19.08,-12.4302 0,-0.7006 3.9,-2.6447 8.6666,-4.3203 10.1247,-3.5591 13.0229,-5.0003 32.8324,-16.3266 8.1577,-4.6644 21.05015,-10.645 28.64985,-13.2902 7.5997,-2.6453 15.3251,-5.5709 17.1677,-6.5012 1.8425,-0.9304 6.6059,-2.4574 10.5853,-3.3933 5.0845,-1.1959 8.8933,-3.23 12.8128,-6.8429 3.0676,-2.8276 9.2021,-6.7923 13.6323,-8.8105 4.8071,-2.19 11.6025,-7.0288 16.8539,-12.0014 8.35862,-7.915 8.79912,-8.6388 8.79912,-14.4609 0,-7.7211 3.4771,-12.8416 10.6764,-15.7222 10.4128,-4.1663 17.7829,-2.7151 26.6569,5.2489 1.8333,1.6453 6.0333,3.4294 9.3333,3.9646 7.0177,1.1382 19.8505,5.2436 36.6667,11.7303 6.6,2.5458 19.8,6.1621 29.3333,8.0361 31.4974,6.1917 38.3312,9.3537 43.6607,20.2018 5.3257,10.8406 3.8159,19.2603 -5.0421,28.1184 -5.7608,5.7607 -6.0619,5.8816 -14.6496,5.8816 -5.1,0 -10.3511,0.8186 -12.552,1.9568 -3.3969,1.7566 -45.7466,16.879 -57.417,20.5026 -7.0996,2.2045 -42.7512,7.8623 -60,9.5218 -8.43332,0.8114 -19.23332,2.0381 -24.00002,2.7259 -14.3929,2.0768 -45.5298,2.7695 -50,1.1122 z m 41.5388,-9.0651 c 3.6132,-0.6853 14.9451,-2.1928 25.182,-3.35 35.25902,-3.9859 60.67262,-8.7169 83.58142,-15.5596 12.2662,-3.6638 26.0662,-7.282 30.6667,-8.0404 13.8425,-2.2818 14.3645,-2.4464 14.3645,-4.5292 0,-2.3468 5.219,-4.6083 10.6349,-4.6083 2.5727,0 4.8699,-1.2778 7.1336,-3.9681 5.1048,-6.0667 5.6641,-11.0056 1.9985,-17.6504 -3.8801,-7.0339 -8.263,-8.7935 -36.0841,-14.4862 -11.8493,-2.4246 -25.6406,-6.2725 -33.0163,-9.2118 -16.9883,-6.7701 -29.9811,-10.6835 -35.4699,-10.6835 -3.2852,0 -5.9186,-1.2614 -9.6261,-4.6109 -6.9727,-6.2994 -11.2411,-7.7602 -17.6406,-6.037 -2.8288,0.7618 -6.0478,2.2894 -7.1531,3.3948 -2.3525,2.3524 -4.8982,10.719 -3.9853,13.0979 0.4834,1.2597 -13.47092,15.2387 -19.45422,19.4885 -0.5162,0.3667 -0.8889,2.7667 -0.8281,5.3334 0.061,2.5666 -0.3953,6.0983 -1.0136,7.8482 -1.0276,2.9085 -0.8384,3.1098 2.2042,2.3462 3.588,-0.9005 6.8034,1.5518 5.2238,3.984 -1.7227,2.6525 -7.1579,4.7185 -10.3233,3.9241 -1.9246,-0.4831 -5.4391,0.3207 -9.0294,2.065 -7.1423,3.47 -17.2808,2.6618 -19.9356,-1.5891 -2.151,-3.4443 -3.5684,-3.2895 -14.728,1.6085 -5.2467,2.3028 -13.6038,5.5693 -18.5713,7.2588 -4.9675,1.6896 -15.77525,6.9384 -24.01725,11.6642 -8.242,4.7257 -18.5139,10.0754 -22.8264,11.8881 -4.3125,1.8128 -7.3125,3.6053 -6.6666,3.9834 0.6458,0.3782 5.3742,1.739 10.5075,3.0242 7.6372,1.912 12.9679,2.2064 29.3333,1.6203 14.52685,-0.5204 21.45945,-0.2406 25.33335,1.0223 6.3429,2.068 34.7565,2.5645 44.2054,0.7726 z m -31.2481,-5.6287 c 0.9401,-0.5965 2.802,-1.0938 4.1376,-1.1051 1.8949,-0.016 1.3823,-1.0068 -2.3333,-4.5112 -11.8091,-11.1373 0.2738,-23.8158 20.6819,-21.7013 4.094,0.4242 8.594,1.1399 10,1.5905 2.4264,0.7776 2.4358,0.7201 0.1839,-1.1318 -2.1342,-1.7552 -2.1567,-2.034 -0.2242,-2.7756 3.7392,-1.4348 5.6128,-0.9192 9.9644,2.7425 3.6847,3.1005 4.1401,4.175 3.4837,8.2202 -0.435,2.6806 -2.5621,6.5177 -5.0172,9.0508 l -4.2621,4.3973 4.5473,-0.5988 c 2.501,-0.3294 12.3473,-1.5411 21.88072,-2.6928 16.7982,-2.0293 46.946,-7.7784 48.3968,-9.2292 0.3928,-0.3929 -1.9357,-0.7232 -5.1746,-0.734 -10.6877,-0.036 -16.5647,-5.9064 -10.9476,-10.9359 3.5058,-3.139 21.5245,-3.8451 23.4128,-0.9175 1.9928,3.0897 0.043,9.1301 -3.394,10.513 -4.7962,1.9299 -0.5953,1.5253 6.4947,-0.6255 3.5998,-1.092 7.8952,-1.992 9.5452,-2 2.4278,-0.012 3,-0.7623 3,-3.9357 0,-2.1567 0.75,-4.4019 1.6667,-4.9892 2.5491,-1.6333 10.7389,-4.3802 13.1266,-4.4028 2.9187,-0.028 6.54,4.2476 6.54,7.7209 0,3.9334 -4.1495,6.1459 -16.6666,8.8865 -5.8667,1.2845 -15.598,3.7994 -21.6251,5.5886 -15.1895,4.5094 -37.0276,8.1082 -63.51742,10.4675 -12.3616,1.101 -23.0275,2.3428 -23.702,2.7597 -0.6744,0.4168 -8.1296,0.9099 -16.5669,1.0957 -8.4374,0.1858 -14.5715,-0.1502 -13.6313,-0.7468 z m 32.368,-11.9467 c 5.2198,-3.5464 7.2154,-7.6085 4.5478,-9.2572 -2.9625,-1.8309 -14.194,-2.8803 -20.1806,-1.8855 -10.0935,1.6772 -15.3801,5.752 -13.5729,10.4615 2.2111,5.7622 21.0793,6.2023 29.2057,0.6812 z m 80.67472,-15.2485 c 0,-1.6558 -1.3788,-1.9891 -6.8952,-1.6666 -9.8759,0.5772 -10.3403,3.7363 -0.5493,3.7363 5.8398,0 7.4445,-0.4461 7.4445,-2.0697 z m 35.6717,-1.1575 c 1.5754,-1.5754 -2.2158,-2.9956 -6.3694,-2.386 -4.0854,0.5996 -5.2462,2.2713 -2.3023,3.3156 2.2195,0.7874 7.5232,0.2188 8.6717,-0.9296 z m -194.10287,25.849 c -5.4107,-3.2988 -5.009,-5.1703 1.8371,-8.5593 7.4977,-3.7116 19.90595,-4.4318 23.30815,-1.3529 3.6026,3.2603 3.2971,5.1497 -1.4831,9.1719 -5.3539,4.505 -16.89505,4.8661 -23.66215,0.7403 z m 18.01095,-4.0489 c 3.3824,-1.286 3.5159,-1.56 1.3502,-2.772 -2.2521,-1.2604 -12.01255,-0.4386 -14.84145,1.2496 -1.5205,0.9073 2.8287,2.7273 6.8247,2.8558 1.60215,0.052 4.60215,-0.5485 6.66655,-1.3334 z m 82.7535,-5.3463 c -5.7891,-3.3719 0.097,-12.2266 8.12692,-12.2266 6.516,0 10.8606,9.4857 5.6274,12.2864 -3.2658,1.7479 -10.7063,1.7155 -13.75432,-0.06 z m 11.39752,-3.4019 c 1.6567,-1.6567 -1.8838,-5.8247 -4.9478,-5.8247 -3.5127,0 -6.79522,3.1563 -5.48582,5.275 0.92902,1.5031 9.05222,1.9311 10.43362,0.5497 z m -87.06422,-2.7416 c -2.7105,-1.036 -6.6666,-4.5706 -6.6666,-5.9564 0,-1.6702 8.6842,-1.3653 12.6559,0.4444 6.5161,2.9689 0.8941,8.143 -5.9893,5.512 z m 13.3334,-11.948 c 0,-2.4696 5.9426,-4.6503 9.2941,-3.4105 2.2231,0.8224 1.6841,1.3305 -3.3201,3.13 -4.9888,1.794 -5.974,1.8402 -5.974,0.2805 z m 93.00002,-0.1456 c -3.3012,-0.7333 -2.8945,-2.3058 1.0627,-4.1088 4.4396,-2.0228 4.6039,-1.988 4.6039,0.9767 0,2.7793 -2.0799,3.9289 -5.6666,3.1321 z m -24.221,-9.1773 c -0.4617,-1.2034 0.122,-3.6554 1.2973,-5.4491 2.7042,-4.1272 2.0951,-4.6995 -2.9676,-2.7885 -12.00212,4.5303 -11.03022,-10.0636 1.2963,-19.4654 7.0753,-5.3966 15.6306,-5.9132 26.4231,-1.5955 4.7929,1.9175 9.6297,3.4863 10.7484,3.4863 3.3244,0 9.0901,6.2546 9.0901,9.8608 0,5.0647 -4.6067,7.4726 -14.2967,7.4726 -7.1318,0 -8.3699,0.3505 -8.3699,2.3699 0,1.3035 -0.9341,3.7035 -2.0756,5.3334 -1.8007,2.5708 -3.283,2.9633 -11.1907,2.9633 -7.2202,0 -9.2896,-0.4548 -9.9547,-2.1878 z m 17.1079,-7.6782 c 1.2241,-6.5253 3.4986,-7.8938 11.3294,-6.8167 7.7318,1.0634 12.2858,0.01 11.2794,-2.6152 -0.3858,-1.0054 -4.5719,-3.7527 -9.3025,-6.1051 -14.2526,-7.0874 -26.8803,-4.925 -33.142,5.6754 -3.85492,6.5258 2.3458,3.4561 6.6154,-3.2751 1.9859,-3.1308 8.8708,-4.1297 12.026,-1.7448 2.5481,1.9261 2.5091,1.9975 -1.1136,2.0385 -2.0649,0.023 -5.0649,0.7556 -6.6667,1.6273 l -2.9123,1.585 3.3333,0.8011 c 3.9819,0.957 5.25,6.665 2.0674,9.3063 -3.1323,2.5997 -2.4917,4.056 1.7842,4.056 3.3245,0 3.968,-0.6203 4.702,-4.5327 z m 32.7938,6.5497 c -2.13,-2.5665 -0.7857,-6.017 2.3441,-6.017 3.1096,0 5.6418,2.5134 5.6418,5.6 0,2.9987 -5.6005,3.2911 -7.9859,0.417 z m 51.9859,0.6211 c 0,-2.4237 6.1154,-4.4125 8.8545,-2.8796 2.2748,1.2731 2.1699,1.5048 -1.2746,2.8144 -4.7264,1.797 -7.5799,1.8216 -7.5799,0.065 z m -17.7777,-0.8603 c -3.5603,-3.5603 2.5772,-12.4445 8.597,-12.4445 6.6344,0 6.9364,2.7912 0.8938,8.2597 -5.5022,4.9794 -7.7188,5.9568 -9.4908,4.1848 z m -15.143,-6.6257 c -1.1146,-2.9047 0.9534,-5.9492 6.0821,-8.9535 7.4414,-4.3593 8.523,-1.7087 2.0566,5.04 -6.5132,6.7976 -6.9511,7.0082 -8.1387,3.9135 z m -53.4704,-27.4099 c -2.001,-2.001 1.6198,-6.4089 5.2644,-6.4089 3.2933,0 3.0996,1.601 -0.6159,5.0916 -2.3626,2.2195 -3.4408,2.525 -4.6485,1.3173 z m -13.0832,-2.9623 c -1.1777,-3.069 3.5538,-7.8257 7.1914,-7.2296 2.5202,0.4131 2.3756,0.8208 -1.7758,5.0073 -3.9299,3.9632 -4.6364,4.2531 -5.4156,2.2223 z m -38.26482,36.6121 c 4.8054,-2.9301 7.8,-6.996 9.1267,-12.392 1.5498,-6.3035 -4.0918,-4.2483 -14.0542,5.1197 -2.5667,2.4135 -6.4464,5.0584 -8.6215,5.8775 -3.1436,1.1837 -3.5538,1.7429 -2,2.7256 3.2829,2.0763 11.0516,1.4114 15.549,-1.3308 z" fill="#00B894" transform="translate(13.400879,-26.053266) matrix(0.8481283,0,0,0.8481283,-472.19115,-145.42389)"/>
</svg>