<?xml version="1.0" ?><svg height="111.51032mm" viewBox="0 0 212.72108 111.51032" width="212.72108mm" xmlns="http://www.w3.org/2000/svg">
    <path d="m 32772.809,10587.309 c -31.367,-0.183 -62.007,8.277 -74.284,14.869 -20.677,11.102 -28.709,25.636 -28.709,25.636 l -57.593,-3.832 c 0,0 -15.175,-16.373 -43.44,-29.63 -28.265,-13.258 -75.45,1.321 -86.676,11.783 -11.226,10.461 -26.578,25.515 -26.578,25.515 0,0 -14.022,-3.952 -29.818,-5.789 -15.796,-1.837 -40.066,2.876 -70.594,30.668 -30.527,27.793 -69.619,21.084 -96.375,22.801 -26.756,1.717 -55.729,18.969 -52.092,60.139 3.639,41.171 70.906,66.09 136.309,55.748 65.404,-10.343 90.207,-31.27 90.207,-31.27 0,0 -9.243,35.703 34.553,65.014 43.794,29.31 128.155,22.8 174.834,4.99 46.679,-17.81 40.777,-72.476 40.777,-72.476 0,0 28.611,-17.254 47.336,-41.653 18.724,-24.399 -6.566,-67.367 -6.566,-67.367 l 50.005,-8.025 c 0,0 -2.504,8.37 17.217,45.802 19.72,37.431 59.266,50.825 59.266,50.825 0,0 -64.872,28.831 -92.738,37.257 -27.865,8.427 -28.884,13.218 -30.881,36.858 -1.997,23.64 40.466,34.501 78.492,46.92 38.027,12.419 110.6,-0.566 143.834,-30.197 33.235,-29.63 48.631,-71.359 44.371,-106.26 -4.26,-34.902 -34.731,-53.725 -61.709,-56.6 -26.978,-2.875 -49.029,38.096 -49.029,38.096 0,0 -3.286,-16.612 -3.551,-32.625 -0.266,-16.013 -6.212,-42.807 -46.813,-71.318 -16.493,-11.584 -38.294,-15.755 -59.755,-15.879 z M 32417,10879.32 c -13.479,0.193 -27.321,3.277 -37.557,7.143 0,0 -29.3,4.344 -50.863,28.392 -21.563,24.048 -7.79,36.839 19.369,54.122 27.16,17.281 77.366,29.528 130.862,24.195 53.496,-5.333 93.385,-27.011 108.035,-54.17 14.65,-27.159 -6.201,-40.343 -24.198,-36.096 -17.997,4.246 -58.16,23.307 -58.16,23.307 0,0 -32.701,-13.974 -48.832,-33.33 -8.569,-10.284 -23.38,-13.781 -38.656,-13.563 z" fill="#FFFFFF" paint-order="markers stroke fill" transform="translate(-29.18307,-169.88511) translate(-7062.6827,-2290.5242) matrix(0.26458333,0,0,0.26458333,-1427.0649,-338.9427)"/>
    <path d="m 7149.0896,2571.1324 c -16.3115,-2.734 -27.8264,-10.3429 -26.2836,-17.368 1.279,-5.8227 10.2117,-13.2547 18.538,-15.4234 10.4971,-2.7342 17.0909,-0.9883 25.312,6.7022 5.399,5.0503 5.7923,5.258 7.6628,4.0437 3.6452,-2.3661 12.0854,-5.0566 15.863,-5.0566 6.6857,0 9.2944,4.7472 6.397,11.6412 -1.4678,3.4923 -7.9095,9.5088 -12.9152,12.0626 -7.2047,3.6755 -23.4145,5.2688 -34.574,3.3983 z m 7.4807,-4.6889 c 0,-0.2063 -2.2954,-1.7692 -5.101,-3.4735 -4.8053,-2.9191 -11.6318,-9.4083 -15.5158,-14.7493 -1.6795,-2.3094 -1.7942,-2.3362 -3.713,-0.8667 -3.1288,2.1817 -1.775,1.7647 0.6972,4.7641 4.68,5.6777 23.6326,17.1662 23.6326,14.3254 z m 5.6972,-2.9962 c -6.6532,-3.1542 -17.9855,-12.124 -20.5408,-16.2585 -2.048,-3.3137 -3.562,-4.0855 -3.562,-1.8157 0,0.7384 3.0567,4.402 6.7925,8.141 7.2171,7.2233 15.4832,12.3653 19.9396,12.4037 2.2884,0.02 1.9475,-0.3006 -2.6293,-2.4705 z m -18.8442,1.2068 c 0,-0.2264 -2.0705,-1.7504 -4.6012,-3.3871 -2.5309,-1.6367 -6.071,-4.4658 -7.867,-6.287 -2.7401,-2.7785 -3.4805,-3.1329 -4.6015,-2.2027 -2.0383,1.6916 -1.6161,3.2299 1.5125,5.511 3.1379,2.2876 7.8067,4.3294 15.3381,6.7078 0.1217,0.038 0.2186,-0.1157 0.2186,-0.342 z m 35.7852,-0.354 c 0.7781,-0.4934 -0.055,-0.9019 -2.5136,-1.2317 -8.3706,-1.1227 -21.9293,-10.3822 -25.8423,-17.6482 -1.402,-2.6031 -2.1764,-3.1429 -4.5091,-3.1429 -1.5493,0 -3.0623,0.3974 -3.3624,0.8831 -0.6907,1.1175 8.2278,10.5193 13.9922,14.7509 6.963,5.1112 18.8588,8.5292 22.2352,6.3888 z m 9.934,-5.7988 c 4.1958,-2.7767 3.9971,-3.6189 -0.4186,-1.7739 -4.057,1.6953 -11.7574,1.7023 -15.7966,0.015 -1.7268,-0.7215 -5.6203,-3.6208 -8.6526,-6.4431 -5.5195,-5.1373 -9.2271,-7.6675 -10.0415,-6.8528 -1.5657,1.5656 8.1664,10.8965 15.0064,14.3877 8.5187,4.348 14.0605,4.5339 19.9029,0.6675 z m 2.2577,-6.5551 c 4.0581,-1.842 4.3311,-3.8503 0.6495,-4.7744 -2.1305,-0.5346 -8.4823,1.1411 -13.1297,3.6922 -2.6449,1.4519 -3.8604,1.0201 -0.438,2.0032 4.0102,1.1519 9.1607,0.7848 12.9182,-0.921 z m 59.0502,-14.5597 c -5.701,-1.5331 -14.1369,-5.911 -16.7498,-8.6923 -1.0472,-1.1147 -2.4236,-3.5382 -3.0586,-5.3857 -0.9643,-2.8043 -0.9568,-3.7422 0.044,-5.6795 1.5139,-2.9273 6.9568,-6.0972 14.8441,-8.6448 7.6704,-2.4776 14.4633,-5.3141 14.4556,-6.0361 0,-0.3022 -1.3992,-1.4984 -3.1023,-2.6582 -4.4681,-3.043 -7.9793,-7.8532 -10.7254,-14.693 l -2.4032,-5.9862 -5.0285,-0.2629 c -5.3844,-0.2814 -5.645,-0.048 -3.7139,3.3305 1.9074,3.3364 1.6699,12.5205 -0.43,16.6369 -1.8286,3.5841 -5.8827,7.1818 -9.7502,8.6523 -1.8885,0.718 -2.3831,1.602 -2.8537,5.0998 -0.804,5.9782 -5.0531,13.013 -9.1073,15.0779 -5.9776,3.0446 -12.8091,4.5891 -22.5581,5.1 -16.1686,0.8472 -28.7892,-3.4031 -35.2475,-11.8704 -2.4333,-3.1904 -2.8788,-4.5072 -2.8788,-8.5113 0,-4.3798 0.281,-5.0298 3.725,-8.6187 2.6191,-2.7292 4.7289,-4.069 7.1063,-4.5129 2.872,-0.5363 3.6228,-1.1716 4.9878,-4.2199 0.8835,-1.9736 1.4777,-3.7173 1.3205,-3.8746 -0.1565,-0.1573 -3.5851,1.8644 -7.6172,4.4926 -4.0322,2.6282 -13.05,7.7694 -20.0398,11.425 -8.1907,4.2837 -11.9299,6.6464 -10.5175,6.6461 2.3513,-3e-4 12.8904,-2.6431 16.9031,-4.2386 1.9872,-0.7902 2.5353,-0.726 2.9465,0.3453 1.0895,2.8387 -4.3053,6.2833 -13.7671,8.7901 -6.7612,1.7915 -21.4349,2.0375 -27.0625,0.4539 -6.5582,-1.8456 -12.814,-6.4587 -15.7855,-11.6403 -3.2164,-5.6084 -3.2971,-7.4171 -0.5709,-12.7728 4.2092,-8.2692 9.6246,-11.1509 19.2729,-10.2561 7.7975,0.7232 13.2196,-1.1121 21.8183,-7.3854 8.6874,-6.3377 12.4722,-7.5781 19.739,-6.4694 l 5.8676,0.8954 3.9984,-3.7063 c 4.9968,-4.6317 6.6554,-5.5192 12.3254,-6.5945 7.3121,-1.3866 14.6738,0.321 21.6717,5.0269 5.2084,3.5025 6.4792,3.9623 11.9627,4.3284 3.3744,0.2253 7.442,0.7559 9.0392,1.1792 2.3602,0.6255 3.2178,0.4556 4.5811,-0.9078 3.2795,-3.2793 7.9217,-4.6142 16.3505,-4.7017 5.2251,-0.054 8.4322,0.2882 9.1209,0.9739 0.8293,0.826 -0.4547,1.0556 -5.8681,1.0489 -6.989,-0.01 -18.7618,2.7841 -18.7618,4.4505 0,1.838 2.0966,1.7938 5.9572,-0.1255 3.4497,-1.7148 5.4804,-2.0492 12.4484,-2.0492 7.3453,0 8.668,0.2437 11.2253,2.0676 1.5945,1.1373 2.7607,2.206 2.5918,2.3749 -0.169,0.169 -2.7903,-0.4656 -5.8256,-1.4103 -6.8307,-2.1259 -11.3386,-2.1517 -17.9038,-0.1021 -4.0646,1.2689 -4.8463,1.7931 -3.8757,2.5986 0.8592,0.7129 2.0941,0.7571 4.2094,0.1505 6.1016,-1.7499 13.269,-1.0644 19.0438,1.8214 5.2537,2.6252 11.6716,8.7161 14.8452,14.0885 0.8167,1.3826 1.7714,2.5138 2.1215,2.5138 0.6196,0 0.1466,-10.7509 -0.6442,-14.6647 -0.9568,-4.7296 -9.8323,-12.0573 -17.7652,-14.667 -6.7646,-2.2255 -20.0709,-1.5903 -25.5516,1.2199 -2.1694,1.1121 -4.6367,2.6311 -5.4834,3.3754 -3.0671,2.6968 -2.5906,0.1394 0.5209,-2.7951 5.172,-4.8778 11.7526,-6.9688 22.0533,-7.0074 11.6886,-0.044 17.0568,2.0191 24.6431,9.4695 5.7965,5.6926 7.8385,10.239 7.1702,15.9637 l -0.3319,2.8429 3.27,-2.9543 c 6.2178,-5.6175 13.435,-5.199 20.0038,1.1597 5.2813,5.1126 7.4862,11.5679 6.8134,19.9483 -0.8404,10.4703 -8.3373,21.7118 -17.052,25.5695 -13.7123,6.0697 -26.5027,7.7918 -36.968,4.9773 z m 23.3851,-9.9135 c 3.2996,-2.8399 7.6403,-7.0277 9.6459,-9.3062 6.4425,-7.3192 14.3796,-23.3885 12.4867,-25.2812 -0.638,-0.6381 -0.917,-0.5306 -0.9176,0.3541 -2e-4,0.6989 -1.1227,3.6373 -2.4941,6.5296 -4.8814,10.2948 -19.0379,24.3255 -29.7151,29.4508 -3.0129,1.4463 -5.4777,2.8067 -5.4777,3.0231 0,0.2163 2.3562,0.3934 5.2362,0.3934 5.126,0 5.3625,-0.1089 11.2357,-5.1636 z m -14.6451,1.1199 c 6.9256,-3.6394 16.4978,-11.5293 23.8667,-19.6723 5.708,-6.3077 11.9813,-17.8411 10.5065,-19.316 -0.6231,-0.6231 -1.3719,0.2741 -2.4005,2.8766 -3.7786,9.559 -13.1182,20.564 -21.7291,25.6036 -6.224,3.6427 -20.347,8.0981 -24.5958,8.3382 -2.6721,0.151 -3.583,-0.1077 0.2549,-1.1832 7.7152,-2.162 21.5467,-8.4882 26.2938,-12.0263 6.0526,-4.511 11.7207,-11.2816 16.1248,-19.2614 2.7685,-5.0161 3.1839,-6.3366 2.1911,-6.9652 -2.1958,-1.3903 -3.187,-0.8518 -3.7665,2.0461 -0.713,3.567 -5.0372,10.1342 -10.8856,16.5328 -5.0397,5.5135 -12.5532,9.8781 -23.1005,13.4187 -6.758,2.2685 -14.7452,3.0171 -14.7452,1.382 0,-0.4821 1.3664,-0.8764 3.0369,-0.8764 3.9148,0 9.584,-1.9201 18.8745,-6.3925 5.6298,-2.7102 8.9736,-5.0981 13.6856,-9.7733 8.7786,-8.7101 13.9351,-17.1398 10.4844,-17.1398 -2.4845,0 -6.5269,4.4633 -7.9657,8.795 -0.7965,2.3985 -2.6186,5.5313 -4.0492,6.9617 -3.7682,3.7683 -12.1986,7.4376 -22.2344,9.6775 -10.3256,2.3046 -14.7572,4.187 -15.1937,6.4541 -0.7885,4.0946 4.5563,8.7637 13.589,11.871 2.8107,0.9669 5.25,1.7712 5.4206,1.7873 2.5198,-1.1417 4.3376,-2.0891 6.3374,-3.1382 z m 25.537,-2.3035 c 3.4485,-4.1289 13.8297,-24.6315 13.8297,-27.3126 0,-3.9151 -1.2236,-2.499 -3.8159,4.416 -3.4482,9.1984 -7.7462,16.227 -13.3494,21.8303 -2.6105,2.6103 -4.7461,4.9242 -4.7461,5.1421 0,1.3678 6.1083,-1.7127 8.0817,-4.0758 z m -108.8978,-3.0747 c -4.4166,-4.9994 -8.4206,-11.7219 -9.6573,-16.2146 -0.6534,-2.3734 -1.3827,-3.2867 -2.6241,-3.2867 -0.9454,0 -1.719,0.5396 -1.719,1.1991 0,2.4701 6.7329,13.3859 11.0054,17.8424 5.5155,5.7532 8.0094,6.1361 2.995,0.4598 z m 5.7771,-0.2428 c -4.4832,-4.2399 -10.1366,-13.1991 -10.1366,-16.0638 0,-1.5048 -3.3095,-3.6831 -4.2171,-2.7757 -1.6611,1.6611 8.0271,15.5247 14.2966,20.4583 5.2759,4.1518 5.3046,3.344 0.057,-1.6188 z m 12.7085,3.0132 c -4.3229,-1.3561 -6.955,-3.5708 -13.4476,-11.3161 -2.4249,-2.8923 -5.199,-5.8178 -6.1649,-6.5011 -1.6045,-1.1347 -1.5745,-0.918 0.3466,2.5 5.0442,8.9746 14.4707,16.7808 20.0736,16.6231 l 3.0795,-0.087 -3.8872,-1.2194 z m -27.0026,-5.8429 c -1.8531,-2.6455 -4.1239,-7.0298 -5.0462,-9.743 -1.7925,-5.2733 -2.2345,-5.6771 -3.9513,-3.6087 -1.8295,2.2044 1.3029,8.9054 6.7185,14.3726 2.5832,2.6076 4.9106,4.5269 5.1725,4.265 0.2618,-0.2617 -1.0403,-2.6404 -2.8935,-5.2859 z m 129.4026,-5.022 c 2.0357,-4.7322 3.5805,-13.5422 1.6928,-9.6541 -0.5851,1.2052 -3.0014,6.1353 -5.3696,10.9559 l -4.3058,8.7646 3.1011,-2.964 c 1.7056,-1.6302 3.9023,-4.8263 4.8815,-7.1024 z m -86.5658,3.712 c 4.9411,-5.2385 6.8969,-8.1924 6.8969,-10.4166 0,-3.0095 -1.2318,-2.5402 -2.494,0.9499 -1.0205,2.8224 -9.0108,11.0005 -10.7477,11.0005 -0.43,0 -0.7818,0.3944 -0.7818,0.8764 0,2.097 4.2223,0.669 7.1266,-2.4102 z m -3.8447,-2.2555 c 4.0889,-4.3233 8.1121,-10.6858 8.1121,-12.8286 0,-2.0636 -1.9315,-0.6981 -3.1551,2.2305 -1.6459,3.9391 -8.5053,10.6886 -12.8364,12.6309 -3.7056,1.6616 -3.4575,2.6329 0.6725,2.6329 2.239,0 3.6713,-0.9273 7.2069,-4.6657 z m 8.1121,2.9129 c 0.516,-0.9642 0.7883,-1.753 0.6049,-1.753 -0.1838,0 -1.0469,0.7888 -1.9195,1.753 -0.8725,0.964 -1.1449,1.7528 -0.6049,1.7528 0.5398,0 1.4036,-0.7888 1.9195,-1.7528 z m -12.487,-6.0244 c 3.2524,-2.7186 8.1049,-8.8083 8.1049,-10.1714 0,-0.2514 -0.6604,-0.4571 -1.4676,-0.4571 -0.8072,0 -4.2897,2.7365 -7.7389,6.0811 -3.4494,3.3446 -7.3431,6.35 -8.6526,6.6787 -2.2514,0.5651 -2.3014,0.6855 -0.9193,2.2128 1.3692,1.5129 1.6348,1.5257 4.1923,0.2032 1.5017,-0.7766 4.4181,-2.8229 6.4812,-4.5473 z m -44.3724,1.1377 c -1.0593,-2.9805 -1.4988,-3.5301 -1.712,-2.1405 -0.2435,1.5814 1.8581,6.1507 2.8278,6.1507 0.1689,0 -0.332,-1.8046 -1.1158,-4.0102 z m -30.2545,-1.169 c 4.6469,-2.1103 19.9979,-10.9527 32.609,-18.7835 9.2285,-5.7302 9.8763,-6.3123 9.3508,-8.4053 -0.7745,-3.0859 -0.7841,-3.087 -3.6112,-0.4353 -9.2983,8.722 -26.5422,18.4004 -39.7113,22.2887 -7.0845,2.0918 -15.5937,2.676 -19.7664,1.3571 -2.2116,-0.6991 -1.3065,-0.9225 5.6969,-1.4064 9.0917,-0.6281 15.4536,-2.488 27.0732,-7.9143 7.8973,-3.6883 19.3947,-11.0164 25.0763,-15.9833 l 3.5059,-3.0648 -2.5742,-2.7102 c -1.4159,-1.4906 -2.9301,-2.7101 -3.3654,-2.7101 -0.4351,0 -3.0236,1.998 -5.7521,4.4401 -6.0888,5.4495 -18.1082,11.5361 -28.6254,14.4963 -9.6273,2.7096 -25.4053,3.8224 -27.8352,1.9632 -1.3232,-1.0125 -0.2086,-1.1976 7.8883,-1.309 5.186,-0.071 10.6126,-0.5561 12.0587,-1.0773 2.4532,-0.8841 2.3829,-0.9149 -1.0482,-0.4587 -4.8543,0.6456 -10.2112,0.9211 -15.0485,-1.5689 -1.575,-0.8107 -1.1618,-1.4993 1.0347,-0.7145 6.8772,2.4572 19.4821,0.2897 30.8384,-5.3029 6.8041,-3.351 17.6237,-11.1041 16.7353,-11.9925 -1.3568,-1.3568 -7.0194,1.2517 -12.8209,5.9058 -9.4876,7.6113 -13.9258,9.0893 -25.1069,8.361 -9.8755,-0.6433 -12.5629,0.1051 -15.98,4.449 -2.3085,2.935 -2.4094,8.4879 -0.2286,12.5557 3.9955,7.45 20.8232,12.0086 29.606,8.0201 z m -26.388,-11.1636 c -4.1224,-1.1291 -2.4446,-1.6251 5.5218,-1.6326 15.5646,-0.014 35.3973,-7.0653 47.635,-16.9349 6.3523,-5.1233 8.634,-6.3543 8.634,-4.6586 0,1.4922 -12.6223,11.6745 -17.5653,14.1697 -9.1787,4.6333 -24.824,8.8557 -34.146,9.2152 -4.5796,0.1767 -9.1152,0.1052 -10.0795,-0.1589 z m 91.5757,11.2721 c 1.9205,-1.5552 1.9104,-1.5627 -1.6559,-1.2226 -3.5247,0.3361 -4.6531,1.3351 -2.4926,2.207 1.8012,0.7267 2.1324,0.6481 4.1485,-0.9844 z m 0.3098,-4.5091 c 2.1704,-0.9303 5.5911,-3.1776 7.6015,-4.9937 3.3764,-3.0504 3.5361,-3.3892 2.0941,-4.4437 -1.8611,-1.3608 -5.2827,-1.501 -6.0568,-0.2484 -0.9607,1.5543 -8.9033,5.1751 -12.6752,5.7783 l -3.6274,0.58 2.4043,2.5095 c 2.8265,2.9503 4.8993,3.1155 10.2595,0.8179 z m 32.5149,-6.1571 c 3.5381,-2.4343 6.6308,-7.05 6.6308,-9.8962 0,-0.6961 -0.8326,-2.0169 -1.85,-2.9352 -1.5401,-1.3902 -3.19,-1.6652 -9.86,-1.6427 -7.1024,0.025 -8.5988,0.3219 -13.2005,2.6294 -5.3729,2.694 -7.2093,4.7935 -4.1932,4.7935 0.9453,0 2.1687,0.5422 2.7185,1.2047 0.55,0.6627 3.038,1.4006 5.5291,1.6401 3.8288,0.3678 4.9444,0.9144 7.2146,3.5354 1.4771,1.7053 2.8118,3.1365 2.966,3.1807 0.154,0.044 1.9742,-1.0852 4.0447,-2.5097 z m -39.7694,-0.6276 c 0.7162,-0.7263 -9.0435,-7.0649 -12.1148,-7.8681 -1.1347,-0.2967 -1.9419,0.2672 -2.6701,1.8656 -0.5741,1.26 -1.0437,2.462 -1.0437,2.6711 0,0.2092 1.8733,1.3765 4.1632,2.5944 4.123,2.1929 9.8715,2.5561 11.6654,0.737 z m 5.6446,-3.3006 c 2.5923,-2.097 2.6047,-2.1468 0.8765,-3.5223 -4.0344,-3.2112 -9.0042,-6.4941 -12.5745,-8.3064 -2.0955,-1.0638 -3.6256,-2.1182 -3.4005,-2.3433 0.8064,-0.8064 9.8506,3.3408 14.5395,6.6672 l 4.7794,3.3906 1.7277,-2.1963 c 0.9687,-1.2317 1.3893,-2.5101 0.9575,-2.9107 -0.4236,-0.393 -4.2902,-2.7093 -8.592,-5.1472 l -7.8221,-4.4326 -2.6956,1.8472 c -5.3411,3.6599 -6.6398,5.2807 -6.6398,8.2866 0,2.2462 0.37,2.9149 1.6129,2.9149 2.2816,0 12.4497,5.2173 13.0091,6.6751 0.6361,1.6575 1.1795,1.5386 4.2219,-0.9228 z m 74.5112,0.364 c 0.7756,-1.2551 -6.7473,-11.5425 -10.7294,-14.6722 -3.5319,-2.7756 -9.0029,-5.8304 -9.0029,-5.0268 0,1.8713 5.712,11.0817 8.4688,13.6555 6.5725,6.1366 10.052,8.0035 11.2635,6.0435 z m -125.3459,-12.2189 c 7.8834,-3.6884 18.3151,-11.0314 17.5139,-12.328 -0.9244,-1.4959 -4.5731,-0.9569 -5.0174,0.7411 -0.6548,2.5045 -7.9068,7.9485 -16.2503,12.1993 -8.9435,4.5565 -6.4107,4.1433 3.7538,-0.6124 z m 63.0347,0.5657 c 1.4384,-1.052 1.1222,-1.4236 -3.5576,-4.1805 -8.9,-5.2431 -12.0876,-6.3876 -14.377,-5.1624 -1.9043,1.0192 -1.7143,1.2121 4.0596,4.1187 3.3316,1.6771 7.0435,3.786 8.2486,4.6863 2.6311,1.9655 3.5531,2.0537 5.6264,0.5379 z m 7.5204,-3.2467 c 0,-0.9589 -6.7321,-4.8097 -12.1242,-6.9351 -2.9577,-1.1659 -5.1291,-1.5318 -6.3686,-1.0734 -1.6701,0.6178 -1.445,0.8619 2.0099,2.1813 2.1396,0.8172 5.9903,2.8098 8.557,4.4282 4.2144,2.6573 7.9259,3.3125 7.9259,1.399 z m 18.9219,-1.0539 c -1.7697,-2.7007 -6.9816,-5.6196 -11.95,-6.6924 -3.0536,-0.6595 -3.5515,-0.6215 -2.2849,0.1744 11.3676,7.1426 14.9713,9.2598 15.2639,8.9672 0.1914,-0.1913 -0.2717,-1.2934 -1.029,-2.4492 z m -53.5009,-1.6117 c 4.7737,-4.9065 8.4554,-7.0211 16.0266,-9.2048 l 6.4846,-1.8704 -2.6728,-1.9032 c -4.1378,-2.9464 -9.4965,-4.4957 -15.5504,-4.4957 -6.5839,0 -8.9284,0.7979 -14.6178,4.9744 l -4.2927,3.1509 2.3071,1.5133 c 2.5311,1.6605 5.9771,6.3328 6.9507,9.4245 0.3417,1.0846 0.9089,1.972 1.2607,1.972 0.3518,0 2.1985,-1.6024 4.104,-3.561 z m 44.8517,1.4177 c 0.1069,-0.078 -2.26,-1.5444 -5.2588,-3.2582 -6.4196,-3.6687 -11.2243,-5.3628 -13.9823,-4.9301 -1.6733,0.2626 -1.2947,0.6786 2.395,2.6326 2.4102,1.2765 5.7627,3.2901 7.45,4.4747 2.3447,1.6463 3.7905,2.0442 6.1353,1.6886 1.6869,-0.2559 3.1545,-0.5294 3.2608,-0.6076 z" fill="#00B894" transform="translate(-29.18307,-169.88511) translate(-7062.6827,-2290.5242)"/>
</svg>