<?xml version="1.0" ?><svg height="154.72224mm" viewBox="0 0 115.22581 154.72224" width="115.22581mm" xmlns="http://www.w3.org/2000/svg">
    <path d="m -7034.7796,10879.434 -35.9778,-58.87 c 0,0 -75.7713,2.747 -98.3392,-42.976 -22.5679,-45.722 -9.158,-103.415 -9.158,-103.415 0,0 -64.2149,-57.791 -62.7976,-92.721 1.4173,-34.93 29.4364,-74.864 29.4364,-74.864 0,0 -23.0039,-73.293 7.8497,-99.491 30.8536,-26.197 69.8841,79.475 69.8841,79.475 0,0 11.0114,17.563 19.0791,-15.404 8.0677,-32.968 16.1355,-44.742 34.7785,-58.674 18.6431,-13.933 39.7936,-74.962 56.3652,-78.592 16.5716,-3.631 32.4891,23.254 34.4515,39.639 1.9623,16.386 10.3572,6.574 22.0227,-15.012 11.6655,-21.586 23.9852,-44.643 47.4253,-38.854 23.44,5.789 27.2558,79.082 27.2558,79.082 0,0 32.5981,-28.846 49.3877,-8.536 16.7896,20.31 16.4625,48.568 8.6128,78.788 -7.8496,30.22 -1.3082,82.026 -4.4699,112.933 -3.1617,30.907 -30.9627,82.811 -30.9627,82.811 0,0 17.8799,41.896 -13.3009,74.471 -31.1807,32.575 -78.1699,56.516 -78.1699,56.516 0,0 -18.5339,90.758 -31.3987,90.464 -12.8648,-0.294 -21.9138,-21.683 -21.9138,-21.683 z" fill="#FFFFFF" transform="translate(-89.797801,-80.632947) matrix(0.26458333,0,0,0.26458333,2008.4707,-2645.8336)"/>
    <path d="m -6819.8817,10455.958 c -2.6804,6.97 -7.551,17.85 -10.8238,24.18 -5.355,10.353 -5.5052,15.156 -1.4966,47.951 3.9415,32.255 3.7539,39.706 -1.6375,64.787 -3.3468,15.586 -10.7999,38.406 -16.5564,50.709 -10.1846,21.766 -10.3245,22.784 -5.1298,37.513 2.9407,8.326 5.3414,17.715 5.3414,20.867 0,10.692 -20.2398,47.978 -32.178,59.297 -12.7513,12.088 -44.8849,30.342 -59.773,33.954 -9.3829,2.277 -13.379,10.46 -35.1574,71.997 -7.8921,22.3 -14.4013,27.175 -23.7741,17.803 -5.7166,-5.717 -5.3277,-9.871 0.9223,-9.871 3.0772,0 6.7742,-6.031 9.1851,-14.984 2.2186,-8.241 7.0176,-24.502 10.6657,-36.135 3.6492,-11.634 6.6526,-26.07 6.6787,-32.083 0.023,-6.012 1.8138,-16.009 3.9768,-22.212 4.8944,-14.034 3.6219,-15.356 -9.8697,-10.264 -10.4064,3.929 -10.8295,4.944 -12.7707,30.786 -1.1053,14.696 -4.5931,35.449 -7.7522,46.112 -3.1568,10.664 -6.6287,23.897 -7.7147,29.409 -1.2111,6.148 -6.225,12.611 -12.9821,16.732 -18.9604,11.563 -22.7279,9.416 -36.4379,-20.766 l -12.4954,-27.503 -23.682,-0.364 c -27.8703,-0.431 -50.7494,-10.418 -71.4179,-31.176 -26.4351,-26.552 -34.8344,-57.754 -26.4078,-98.107 l 5.0651,-24.251 -10.9171,-5.713 c -30.7894,-16.118 -51.8752,-53.274 -54.3338,-95.75 -1.6205,-27.995 2.5121,-40.8 20.4251,-63.317 6.5036,-8.173 6.7504,-11.112 3.3922,-40.387 -1.9935,-17.366 -2.6257,-36.125 -1.4044,-41.685 3.1091,-14.145 20.9641,-33.323 33.6165,-36.102 19.1366,-4.203 32.6214,8.901 54.485,52.954 10.5839,21.329 21.2359,41.16 23.6661,44.069 6.0476,7.228 34.3193,29.031 34.3193,26.463 0,-1.137 -3.1728,-8.286 -7.0517,-15.887 -7.8444,-15.379 -8.3709,-17.628 -4.1246,-17.628 1.6102,0 12.3192,14.261 23.7968,31.691 11.4777,17.429 22.0581,31.707 23.5126,31.728 1.4544,0.02 2.6439,-10.586 2.6439,-23.568 0,-20.949 -1.7399,-27.001 -15.451,-53.761 -19.2355,-37.534 -22.0251,-46.022 -15.1348,-46.022 2.827,0 10.4678,10.306 16.9828,22.903 6.5115,12.595 12.8047,22.907 13.9783,22.915 1.177,0 3.2364,-14.661 4.5795,-32.598 1.343,-17.934 4.841,-44.277 7.7761,-58.536 2.9351,-14.259 4.725,-26.538 3.979,-27.28 -0.7426,-0.746 -6.7026,8.968 -13.2403,21.588 -13.8078,26.654 -19.944,33.867 -39.0841,45.95 -16.1049,10.166 -26.3612,25.118 -31.855,46.437 -5.3777,20.861 -11.4856,15.147 -8.7461,-8.176 2.7122,-23.071 11.3207,-38.148 31.3228,-54.86 10.5611,-8.823 19.4368,-21.287 28.3467,-39.798 22.3822,-46.494 40.89,-56.014 63.8714,-32.847 15.3669,15.492 21.4952,44.56 18.3065,86.819 -2.3551,31.194 -0.655,44.394 5.2459,40.748 1.7342,-1.074 3.1546,-5.95 3.1546,-10.833 0,-4.887 8.0672,-33.479 17.9232,-63.538 9.8606,-30.063 16.9908,-55.591 15.8513,-56.734 -2.8634,-2.863 -18.6056,12.436 -27.3437,26.579 -9.516,15.393 -11.2196,12.771 -4.5033,-6.94 6.615,-19.413 25.0568,-40.335 38.5394,-43.72 22.87,-5.74 47.6687,22.467 47.6687,54.224 v 14.682 l 16.0355,-2.197 c 10.6157,-1.454 19.0662,-0.576 24.9966,2.596 19.5108,10.442 31.0465,55.03 20.996,81.15 z m -19.637,-40.643 c -1.89,-4.974 -4.6659,-9.025 -6.1704,-9.007 -2.6315,0.02 -32.6965,50.39 -32.6965,54.764 0,1.182 -9.3546,19.079 -20.7867,39.773 -11.4333,20.695 -21.9194,41.593 -23.3045,46.443 -2.2948,8.034 -1.4704,7.705 9.3307,-3.737 14.4491,-15.303 42.8277,-35.043 50.3786,-35.043 10.6339,0 5.3653,6.901 -16.4983,21.612 -12.1202,8.151 -26.5307,18.535 -32.0267,23.069 -5.4972,4.534 -11.2616,7.461 -12.8105,6.505 -2.8031,-1.732 -8.1411,9.534 -12.4954,26.371 -1.2532,4.849 -5.5768,17.046 -9.6081,27.109 -6.9574,17.355 -7.0415,19.074 -1.6762,33.491 3.1113,8.358 6.7128,21.145 8.0024,28.416 2.727,15.343 6.5843,16.197 26.7239,5.923 17.3126,-8.832 26.4579,-7.042 20.5377,4.018 -4.5158,8.437 -23.4944,17.379 -36.8802,17.379 -5.5586,0 -9.7469,2.377 -10.875,6.171 -1.0109,3.393 -4.8103,12.514 -8.4459,20.27 -6.5172,13.906 -6.3773,37.015 0.2115,37.015 8.2367,0 47.3288,-23.306 57.0949,-34.044 17.0829,-18.769 20.6946,-30.118 16.0287,-50.339 -3.7049,-16.041 -3.25,-18.527 7.551,-41.255 21.5168,-45.292 24.8112,-68.593 17.3558,-122.716 -3.7152,-26.964 -3.4593,-29.531 5.1162,-51.299 9.8276,-24.946 11.2286,-36.961 5.9327,-50.889 z m -43.965,177.1 c -21.6907,20.291 -35.2915,28.466 -39.8209,23.937 -1.1475,-1.145 -1.4249,-2.522 -0.6164,-3.057 0.8063,-0.534 13.0015,-11.639 27.0936,-24.676 23.3124,-21.568 36.0694,-28.847 36.0694,-20.584 0,1.716 -10.2268,12.687 -22.7257,24.38 z m 20.0817,-198.115 c -5.3323,1.243 -19.3914,11.964 -31.2409,23.823 -19.9941,20.01 -21.3269,22.325 -18.5089,32.154 1.6717,5.827 3.0386,15.852 3.0386,22.281 0,15.509 3.8732,12.355 19.7393,-16.081 7.2951,-13.07 18.4896,-30.903 24.8783,-39.629 14.5526,-19.88 15.0837,-25.581 2.0936,-22.548 z m -48.2953,-49.834 c -2.8078,-6.724 -6.4013,-12.226 -7.9854,-12.226 -1.5807,0 -10.2631,22.606 -19.2924,50.236 -9.0293,27.63 -18.9502,56.201 -22.0433,63.493 -5.2356,12.337 -3.6834,11.332 22.3787,-14.487 28.8324,-28.562 29.9013,-30.707 31.4877,-63.221 0.3093,-6.363 -1.7342,-17.072 -4.5453,-23.795 z m -5.0549,141.383 c -1.7114,-1.061 -4.2076,-10.671 -5.5426,-21.361 -1.3351,-10.69 -3.6834,-19.437 -5.2163,-19.437 -1.5341,0 -10.0505,7.764 -18.9263,17.253 l -16.1356,17.252 8.529,24.169 c 4.6909,13.293 8.5619,26.856 8.6039,30.134 0.1581,13.4 7.3474,8.794 18.8149,-12.064 12.5534,-22.842 15.2429,-32.627 9.873,-35.946 z m -51.9866,166.493 c -6.4126,-12.638 -6.0976,-27.711 0.9461,-45.318 11.3901,-28.465 -0.9097,-89.182 -25.3661,-125.215 -14.0296,-20.669 -15.3271,-34.312 -6.5366,-68.625 3.4241,-13.373 4.6807,-26.83 3.2308,-34.658 -2.9636,-16.023 -12.2783,-36.175 -15.7308,-34.04 -1.4306,0.884 -3.6515,17.131 -4.9365,36.105 -1.2851,18.97 -3.9131,53.396 -5.8384,76.496 -1.9252,23.101 -2.8032,42.696 -1.9537,43.545 0.8484,0.848 5.172,-0.998 9.6081,-4.105 9.6002,-6.723 21.792,-7.489 19.7246,-1.239 -0.8017,2.424 -7.676,8.636 -15.277,13.804 -15.4521,10.51 -18.5476,20.09 -18.9024,58.464 -0.2377,25.258 -5.0207,28.545 -11.2582,7.726 -2.3585,-7.871 -7.1813,-15.859 -10.7191,-17.751 -7.7943,-4.172 -7.8978,-2.959 -1.1418,13.214 2.9078,6.962 5.288,20.261 5.288,29.556 0,15.514 1.161,17.819 14.1478,28.105 7.7818,6.163 18.3758,18.592 23.5421,27.619 12.2259,21.355 11.5948,20.803 16.3619,14.339 2.263,-3.075 7.6862,-7.491 12.0485,-9.815 6.8629,-3.654 7.9319,-3.363 7.9319,2.165 0,3.514 -4.7591,11.599 -10.5759,17.967 -7.0994,7.776 -10.5815,15.274 -10.5952,22.82 0,6.181 -1.7126,17.337 -3.7834,24.79 -4.5055,16.227 -3.3866,17.932 8.2651,12.623 11.1024,-5.056 24.055,-22.241 27.5189,-36.504 3.3103,-13.635 0.3172,-39.623 -5.9987,-52.068 z m -19.8144,-78.263 c -12.0702,16.031 -42.4729,47.241 -46.0221,47.241 -1.7285,0 -0.2115,-4.582 3.3718,-10.18 8.704,-13.595 44.3129,-53.276 47.8086,-53.276 4.7568,0 3.0772,5.277 -5.1583,16.215 z m -21.6601,195.306 c -2.7019,0 -10.171,4.909 -16.5961,10.911 l -11.6813,10.913 9.2568,16.313 c 5.09,8.971 10.7817,16.821 12.6489,17.442 1.8639,0.622 4.9627,-8.058 6.888,-19.293 5.1242,-29.938 5.0343,-36.286 -0.5163,-36.286 z m -22.0274,-104.323 c -2.7838,-5.996 -11.6095,-17.516 -19.6131,-25.599 -12.6967,-12.823 -14.9301,-17.506 -17.5241,-36.694 -2.3767,-17.611 -6.2272,-26.776 -19.3254,-46.01 -8.9974,-13.21 -22.0694,-28.281 -29.0518,-33.492 -20.0361,-14.953 -24.0607,-21.518 -45.9823,-75.008 -10.7055,-26.123 -21.5509,-41.987 -28.7084,-41.987 -1.9571,0 -7.4485,4.199 -12.202,9.328 -10.3541,11.171 -11.547,34.19 -3.3581,64.704 6.9937,26.054 6.615,36.144 -1.7615,46.791 -3.879,4.931 -6.9903,10.302 -6.9187,11.935 0.2115,4.984 49.2233,36.337 49.2233,31.493 0,-2.478 -3.2365,-13.876 -7.1893,-25.33 -9.5684,-27.714 -23.3363,-83.32 -26.3237,-106.31 -4.2463,-32.693 4.0086,-20.489 19.6688,29.084 13.7703,43.587 20.8925,57.643 20.8925,41.215 0,-3.508 2.2687,-9.458 5.0377,-13.22 4.7137,-6.403 5.1902,-6.443 7.443,-0.634 1.3248,3.416 -0.2116,14.217 -3.4116,23.999 -5.6132,17.162 -5.5393,18.653 2.0651,42.265 4.3339,13.461 8.7837,24.473 9.8868,24.473 1.1019,0 4.8194,-7.933 8.2651,-17.625 6.0009,-16.906 13.0185,-23.516 13.0185,-12.266 0,2.951 -3.5139,17.313 -7.8125,31.919 l -7.8114,26.557 14.9916,44.757 c 8.2447,24.616 16.346,46.95 18.004,49.631 3.7675,6.097 5.2163,1.494 10.9694,-34.838 4.2417,-26.791 11.5811,-49.355 16.0548,-49.355 4.3566,0 -1.235,50.272 -8.9338,80.353 -6.8356,26.695 -6.9812,43.418 -0.2865,32.585 1.6921,-2.739 7.3883,1.328 16.7508,11.961 7.7988,8.864 15.1314,16.113 16.2914,16.113 3.3103,0 13.4609,-21.04 20.4125,-42.303 6.8402,-20.93 5.9544,-39.725 -2.7611,-58.492 z m -20.9459,133.407 c -14.7289,-29.571 -28.1659,-53.763 -29.8614,-53.763 -3.1512,0 -1.1418,5.12 24.8942,63.456 8.2196,18.42 17.1772,38.711 19.9065,45.091 4.6193,10.801 11.7711,12.723 11.8188,3.175 0,-2.308 -12.0303,-28.391 -26.7581,-57.959 z m -36.1717,-14.633 c -4.9843,-10.239 -11.4356,-14.491 -44.2344,-29.168 -21.1211,-9.45 -39.1819,-16.401 -40.136,-15.449 -3.3638,3.366 7.9796,24.992 20.2681,38.645 13.5849,15.095 59.7548,38.587 68.9217,35.067 5.9862,-2.297 4.8331,-9.264 -4.8194,-29.095 z m -27.5803,-77.027 c -8.5244,-17.935 -16.8418,-32.609 -18.4839,-32.609 -3.2046,0 -31.4592,-16.784 -55.836,-33.172 -29.3066,-19.697 -13.0914,-20.882 25.2547,-1.842 11.4674,5.695 21.303,9.899 21.8579,9.344 2.6838,-2.684 -15.567,-53.459 -19.9963,-55.63 -2.7941,-1.371 -9.1988,-4.398 -14.2274,-6.727 -5.0309,-2.329 -16.6655,-11.24 -25.8552,-19.798 -9.1907,-8.559 -18.3974,-15.563 -20.4569,-15.563 -5.7906,0 -0.3332,51.051 7.2894,68.198 8.2788,18.626 23.193,36.317 36.3628,43.129 17.7355,7.194 9.318,17.948 7.8876,36.889 l -2.3847,31.576 8.4391,0.08 c 4.6408,0.06 19.5414,4.075 33.1138,8.945 39.4253,14.142 37.4022,13.773 34.8299,6.372 -1.2612,-3.628 -9.2681,-21.268 -17.7948,-39.203 z" fill="#00B894" transform="translate(-89.797801,-80.632947) matrix(0.26458333,0,0,0.26458333,2008.4707,-2645.8336)"/>
</svg>