<?xml version="1.0" ?><svg height="123.12569mm" viewBox="0 0 106.96328 123.12569" width="106.96328mm" xmlns="http://www.w3.org/2000/svg">
    <path d="m 1932.0046,3811.7874 2.0373,-15.8324 c 0,0 -13.1278,-0.816 -22.0853,-13.2821 -8.9577,-12.4661 -8.8455,-26.7708 -8.5984,-31.1348 0.2468,-4.3643 0.067,-4.9096 1.0774,-7.5766 1.0104,-2.667 5.9044,5.0511 5.9044,5.0511 0,0 3.5473,-13.5977 5.4105,-18.4062 1.8634,-4.8088 4.1984,-6.1826 4.4003,-2.4448 0.2021,3.7378 2.2227,7.1726 2.2227,7.1726 0,0 14.7048,-18.083 17.6906,-20.1033 2.9858,-2.0206 17.2643,-12.7289 24.5382,-15.3959 7.2737,-2.667 11.8087,-2.7275 16.6804,2.9904 4.8718,5.7176 15.0866,28.8718 15.1541,32.3672 0.067,3.4955 2.2,-7.1725 2.11,-14.5065 -0.09,-7.3343 3.0308,-13.2946 4.6699,-3.1925 1.6388,10.1023 1.0774,21.1339 0.4937,26.4475 -0.5837,5.3139 -2.155,13.9816 -2.155,13.9816 0,0 4.8715,-8.7889 5.4104,-5.4149 0.5387,3.3742 -0.6961,6.5058 -1.9756,11.4964 -1.2798,4.9906 -7.6107,22.9521 -18.8807,28.9528 -11.2699,6.0008 -29.3647,6.2635 -29.3647,6.2635 0,0 -4.086,10.5061 -5.0965,13.4964 -1.0101,2.9903 -6.8612,6.7324 -12.6574,4.6998 -5.7965,-2.0328 -6.9863,-5.6293 -6.9863,-5.6293 z" fill="#FFFFFF" transform="translate(21.674935,-68.55541) translate(-1922.8437,-3627.2463)"/>
    <path d="m 1936.2519,3818.5279 c -7.3949,-1.835 -7.4703,-5.9567 -5.462,-15.896 l 1.1353,-5.6185 -3.477,-0.5215 c -4.6203,-0.6928 -9.8496,-3.9488 -14.0922,-8.0484 -6.9913,-6.7555 -14.0105,-21.8428 -13.1087,-32.5131 0.5775,-6.8304 2.007,-13.0155 3.0085,-13.0155 0.8839,0 0.7178,-1.1737 1.4339,10.132 0.5476,8.6427 0.967,10.6138 3.7467,17.6127 2.6495,6.6707 3.8681,8.6267 7.9336,12.7365 3.5201,3.5581 5.7664,5.1233 8.4064,5.858 1.9813,0.5513 5.4037,2.0018 7.6054,3.2233 4.6122,2.5589 4.7904,3.4264 2.457,11.9616 -0.7642,2.796 -1.1841,5.9027 -0.9329,6.9038 0.5514,2.1972 3.7243,3.6322 8.5292,3.8575 5.3063,0.5292 3.9973,-0.7226 6.4436,-5.6586 1.7805,-3.5927 2.7472,-6.5572 2.5222,-7.7348 -0.5556,-2.906 3.0279,-4.923 8.1656,-4.5962 5.1719,0.3292 14.5269,-1.6286 20.2051,-4.2281 5.6254,-2.5753 13.4525,-10.4815 16.6079,-16.7754 1.2942,-2.5815 3.8529,-8.6788 5.6862,-13.5497 3.9965,-10.6202 5.6731,-12.0858 4.871,-4.2582 -0.7084,6.9169 -5.1982,17.123 -8.3361,23.3393 -3.2136,6.3664 -10.8519,13.2432 -16.7231,16.0009 -5.2451,2.4637 -14.2353,4.8258 -20.2342,4.8258 h -4.318 l -1.3833,5.11 c -0.7607,2.8105 -2.0839,6.9267 -3.2925,8.3746 -2.1108,2.5281 -2.5576,2.689 -8.6509,2.8775 -2.8788,-0.1877 -5.9287,0.2402 -8.7467,-0.3995 z m 15.4961,-31.6576 c -0.7028,-1.1366 0.9134,-4.133 2.8974,-5.3721 1.2872,-0.8039 1.553,-0.7564 1.553,0.2777 0,1.7012 -2.2709,5.9713 -3.1757,5.9713 -0.4031,0 -0.9767,-0.3946 -1.2747,-0.8769 z m 9.2536,-3.3435 c 0,-0.6244 0.7529,-1.8165 1.6725,-2.649 1.6633,-1.5052 1.6712,-1.5002 1.4012,0.8698 -0.2766,2.4276 -3.0737,4.0468 -3.0737,1.7792 z m 7.6731,-0.2955 c -0.5277,-1.3753 1.4422,-5.091 2.6991,-5.091 1.0654,0 1.8248,2.9498 1.2363,4.8035 -0.6128,1.9304 -3.2316,2.1217 -3.9354,0.2875 z m -23.6845,-1.7806 c 0,-1.7185 2.9092,-5.7121 4.1612,-5.7121 1.0242,0 0.2329,4.5684 -1.0617,6.1282 -1.2965,1.5622 -3.0995,1.3201 -3.0995,-0.4161 z m 33.8953,-1.3567 c -0.2824,-0.7363 0.3448,-2.1325 1.5284,-3.4025 2.9177,-3.13 3.733,-5.0692 4.5053,-10.7168 0.8831,-6.4579 -1.6752,-18.4742 -5.8625,-27.5374 -1.5829,-3.4258 -2.7586,-6.5861 -2.6131,-7.0229 0.1451,-0.4369 1.4749,0.8906 2.9538,2.95 1.4788,2.0594 2.83,3.6033 3.0024,3.4308 0.1726,-0.1725 -1.5599,-4.644 -3.8496,-9.9368 -3.9953,-9.2351 -4.6168,-12.902 -2.0178,-11.9047 0.9126,0.3502 0.8948,-0.1146 -0.1017,-2.6549 -1.6544,-4.5298 -1.0092,-3.3446 -3.7332,0.2588 -2.7156,3.5923 -12.7983,10.8872 -15.0968,10.9225 -2.1307,0.034 -1.6993,-2.6076 0.8006,-4.9011 2.5639,-2.352 17.1643,-16.7073 18.5323,-13.1933 3.0586,7.8567 8.8887,16.7602 8.8642,18.551 0.2047,3.924 -0.3775,1.9729 -2.2002,-0.047 -1.1979,-1.3277 -2.8136,-3.3091 -3.5901,-4.4032 -0.7767,-1.0942 0.4405,1.7179 2.7044,6.2491 4.0726,8.1513 4.3313,9.2858 3.8731,16.9797 -0.066,1.1008 0.662,4.5232 1.6171,7.6054 1.4049,4.5344 1.6535,6.8268 1.3027,12.0087 -0.5775,8.521 -1.616,11.8021 -4.8083,15.1868 -2.8449,3.0165 -5.0282,3.6095 -5.8081,1.5776 z m -39.0483,-1.8714 c -0.6185,-1.0011 0.3988,-5.6863 1.2349,-5.6863 0.9269,0 1.8014,3.7064 1.2277,5.2019 -0.5136,1.3383 -1.781,1.5875 -2.4626,0.4844 z m -6.075,-3.737 c -0.9769,-2.5702 -1.002,-4.9204 -0.06,-5.5037 0.7835,-0.4841 2.4798,3.6722 2.4798,6.0756 0,2.1668 -1.5163,1.8086 -2.4216,-0.5719 z m 25.3974,0.4798 c -3.4918,-0.6761 -5.5018,-2.164 -3.6956,-2.7357 0.624,-0.1975 3.6083,-0.5599 6.6315,-0.8054 6.1133,-0.4963 11.4144,-2.6352 11.1336,-4.492 -1.1538,-7.6284 -2.8396,-13.4529 -5.3748,-18.5724 -1.7408,-3.5149 -2.8395,-6.7188 -2.5564,-7.4561 0.6622,-1.7253 1.5721,-1.0486 5.2051,3.8707 4.2655,5.7754 5.4066,8.2168 6.545,14.0045 0.6855,3.4826 1.3061,4.9149 2.013,4.6436 1.7161,-0.6585 1.9088,1.5614 0.357,4.1129 -2.2473,3.6955 -6.5042,6.5099 -11.1908,7.3987 -4.6471,0.8813 -4.6759,0.8814 -9.0676,0.031 z m -47.673,-3.4844 c -2.9295,-3.5299 -3.2494,-25.1379 -0.5057,-34.1702 1.7783,-5.854 5.162,-12.0086 6.6021,-12.0086 0.7773,0 0.9804,0.4617 0.6164,1.401 -3.1663,8.1671 -4.5415,25.6568 -2.9001,36.8822 0.5058,3.459 0.6896,6.8879 0.4089,7.62 -0.6114,1.5928 -2.9988,1.7487 -4.2216,0.2756 z m 85.7375,-6.254 c 0.2042,-1.9241 1.3949,-7.6415 2.6444,-12.7052 2.0604,-8.3489 2.2761,-10.5614 2.3175,-23.7494 0.044,-13.4213 0.4071,-16.585 1.7583,-15.2339 1.4142,1.4143 2.9125,9.9906 3.2439,18.5685 0.3482,9.0241 0.1973,10.2866 -2.48,20.8069 -2.7108,10.6494 -4.4918,14.6901 -6.8168,15.465 -0.7829,0.261 -0.948,-0.5188 -0.6673,-3.1519 z m -73.6513,1.5052 c -2.1132,-2.6479 -3.4005,-6.4978 -3.4005,-10.1677 0,-2.2234 0.3602,-4.0427 0.8005,-4.0427 0.4404,0 0.8006,0.7814 0.8006,1.7365 0,0.9552 1.0809,3.6516 2.4016,5.9923 1.3211,2.3406 2.4019,4.9816 2.4019,5.869 0,1.7965 -1.7712,2.1576 -3.0041,0.6126 z m 42.3304,-6.539 c -2.0691,-4.9923 -2.1238,-11.2739 -0.097,-11.2739 1.4245,0 5.0786,11.8822 4.3549,14.1618 -0.8286,2.6107 -2.4273,1.5262 -4.2568,-2.8879 z m -5.533,2.536 c -1.055,-1.2758 -0.3489,-5.0587 1.1816,-6.3287 2.1756,-1.8057 3.5509,2.5535 1.8235,5.781 -0.9606,1.7948 -1.841,1.9553 -3.0051,0.5477 z m -10.2901,-1.8095 c -1.0359,-2.6994 7.2062,-9.9991 11.2902,-9.9991 2.2079,0 1.3152,1.6466 -3.5068,6.4688 -4.777,4.7768 -6.9302,5.7536 -7.7834,3.5303 z m -8.2921,-2.4259 c 0,-4.2703 7.9982,-11.3265 15.3453,-13.5375 7.0841,-2.1319 6.363,0.2655 -1.7356,5.7719 -1.9816,1.3473 -5.5233,4.1033 -7.871,6.1245 -2.3477,2.0212 -4.5993,3.675 -5.0036,3.675 -0.4045,0 -0.7351,-0.9154 -0.7351,-2.0339 z m -9.874,0.6996 c -0.2933,-0.2937 -0.5337,-1.4795 -0.5337,-2.6354 0,-2.1914 3.527,-6.0563 10.1614,-11.1353 4.6684,-3.5737 15.0986,-8.2617 17.7106,-7.9599 1.9493,0.2252 1.5608,0.6588 -4.1677,4.6515 -3.4747,2.4218 -9.731,7.3753 -13.903,11.008 -7.6031,6.6202 -8.2771,7.0616 -9.2676,6.0711 z m 46.9044,-2.0682 c -0.4359,-0.5504 -1.4213,-2.9822 -2.1896,-5.404 -0.7685,-2.4217 -3.1579,-7.7873 -5.3099,-11.9236 -4.8433,-9.3095 -5.0947,-11.392 -1.0319,-8.5462 2.2081,1.5465 8.4427,11.0927 10.59,16.2151 2.2501,5.3675 2.3681,10.6594 0.2372,10.6594 -0.8265,0 -1.8599,-0.4503 -2.2958,-1.0007 z m 15.5702,-5.2257 c -0.6936,-1.6392 -1.2192,-8.9869 -1.718,-12.6627 -1.7186,-12.6615 -8.3479,-27.8577 -13.2825,-34.7879 -1.6817,-2.3616 -1.6718,-4.7653 0.022,-4.7653 0.4642,0 2.4702,1.4989 4.4576,3.3311 9.5155,8.771 18.8492,40.0318 14.4772,48.4868 -2.2509,3.0238 -2.9577,2.7033 -3.9563,0.398 z m -66.8841,-1.42 c -1.4171,-3.1103 -1.0188,-8.3995 1.2028,-15.9708 0.8782,-2.9921 -2.8605,2.4432 -4.9858,7.2488 -2.7374,6.1902 -3.7625,7.1361 -5.5694,5.1397 -1.0905,-1.2054 0.1652,-3.7148 0.5477,-6.5072 1.0411,-7.5946 8.1202,-20.6811 15.3769,-27.6766 6.3076,-6.0808 8.2119,-6.6602 5.7482,-1.8962 -0.7043,1.3619 -1.115,2.4761 -0.9124,2.4761 0.2019,0 3.0037,-1.9981 6.2249,-4.4404 11.2094,-8.4982 26.1547,-14.3837 32.4792,-12.7904 2.9335,0.6569 2.3924,0.3967 0.3089,2.0874 -1.0396,0.8435 -2.3328,1.5337 -2.8738,1.5337 -0.541,0 -1.3861,0.8832 -1.8781,1.9628 -0.4917,1.0797 -3.8774,4.4121 -7.5232,7.4053 -8.9079,7.3135 -14.0085,12.5181 -17.9002,18.2646 -3.9449,5.8249 -6.4158,6.5265 -6.2706,1.7803 0.1837,-6.0013 10.7553,-17.0787 23.5577,-24.6845 3.0643,-1.8204 5.5715,-3.433 5.5715,-3.5834 0,-0.6275 -7.1426,2.3159 -11.7038,4.8229 -10.3126,5.6685 -12.2933,7.6216 -18.4936,18.2358 -4.5368,7.7661 -6.2358,11.6077 -7.9006,17.8631 -1.1667,4.3831 -2.5615,8.5982 -3.1,9.367 -0.9009,1.2866 -1.0524,1.2359 -1.9063,-0.638 z m 11.081,-9.4042 c 0,-2.8463 2.5018,-5.582 9.2049,-10.0652 6.1068,-4.0846 13.2975,-6.4707 16.145,-5.3575 1.3522,0.5288 1.3099,0.6999 -0.5318,2.1447 -2.0524,1.61 -11.9389,8.2581 -17.8834,12.0254 -1.8326,1.1615 -4.1425,2.3566 -5.1334,2.6559 -1.5234,0.4602 -1.8013,0.2438 -1.8013,-1.4033 z" fill="#00B894" transform="translate(21.674935,-68.55541) translate(-1922.8437,-3627.2463)"/>
</svg>