<?xml version="1.0" ?><svg height="94.574394mm" viewBox="0 0 92.285316 94.574394" width="92.285316mm" xmlns="http://www.w3.org/2000/svg">
    <path color="#000" d="m 7175.2233,6230.3652 -125.9241,-153.9274 1.1244,-45.4068 c 18.666,0.302 32.8128,-2.3515 -3.7944,-38.1973 v -74.1179 l 268.8525,-4.1738 c 63.9309,96.2657 24.2153,329.887 -140.2584,315.8232 z" fill="#FFFFFF" overflow="visible" paint-order="fill markers stroke" transform="translate(-135.56227,-162.37225) matrix(0.28319764,0,0,0.28319764,-1855.716,-1510.4948)"/>
    <path d="m 7291.0401,5907.0666 c -4.4137,0.01 -9.8339,0.088 -16.5341,0.1767 -17.7235,0.2365 -38.7268,0.7551 -46.6758,1.1524 -18.534,0.9263 -133.4253,1.0703 -161.7933,0.2024 -23.4633,-0.9207 -38.7674,-1.4229 -33.6365,27.0174 0.3902,3.4003 0.9538,7.3575 1.2535,8.7954 0.2997,1.4379 0.8728,6.573 1.2733,11.4111 0.4015,4.8382 1.3365,13.3206 2.0773,18.8498 0.7408,5.5293 1.3439,12.3152 1.343,15.0798 0,5.3264 4.6144,11.9376 8.3354,11.9376 1.0197,0 4.6172,1.7739 7.9951,3.9412 6.4956,4.1685 10.6115,10.4282 11.0516,16.8119 0.5514,7.9907 -0.278,8.4528 -7.8745,4.3812 -5.7218,-3.0664 -8.2364,-3.1202 -11.9601,-0.254 -2.6673,2.0527 -2.8662,9.696 -2.9029,22.5423 3.3157,41.2495 -4.999,27.5627 23.3577,58.7012 16.8847,17.4042 29.5319,31.5846 29.5319,33.1123 0,1.3213 6.261,9.2785 17.3701,22.0786 11.0243,12.7066 28.1625,33.7038 39.9493,55.062 14.1656,22.5943 27.7403,29.1467 54.522,16.7954 62.7274,-20.4426 110.161,-47.2238 143.0915,-146.4632 1.5203,-5.8748 3.5872,-13.6463 4.5909,-17.2703 2.2035,-7.9566 2.5579,-43.6085 0.5467,-54.9865 -0.7333,-4.147 -2.1442,-13.1955 -3.1348,-20.1071 -0.9915,-6.9115 -2.3779,-15.11 -3.0819,-18.2202 -0.704,-3.1102 -1.8906,-12.1586 -2.6361,-20.107 -1.6984,-18.1096 -1.5429,-17.2848 -4.3751,-23.0505 -8.2279,-10.7469 -20.37,-17.025 -23.1814,-12.442 -3.1753,5.3812 -2.8445,4.9624 0.2356,10.9159 3.7567,8.0894 8.7058,16.7189 8.8339,27.0267 -0.1197,8.4586 -5.0074,19.0719 -14.7857,32.1072 -3.1102,4.1469 -7.1168,9.7572 -8.9056,12.4677 -1.7879,2.7105 -3.7643,5.5392 -4.3901,6.2845 -0.6258,0.7453 -5.0716,6.6696 -9.8773,13.1653 -9.7086,13.1198 -9.6247,13.0177 -19.0421,22.8223 -8.849,9.2141 -19.3879,17.1419 -28.7016,21.5889 -1.7276,0.8249 -5.0772,2.9318 -7.4419,4.683 -7.3994,5.3409 -24.3124,12.0324 -30.1304,5.4911 -4.8557,-4.6368 -0.5561,-0.6303 -20.3465,-21.784 -8.0827,-8.6395 -16.2796,-17.688 -18.2145,-20.1071 -1.9349,-2.4189 -7.5182,-8.6388 -12.4069,-13.8225 -4.8887,-5.1837 -13.1204,-14.1965 -18.2937,-20.0279 -5.1734,-5.8314 -12.2335,-13.7807 -15.6896,-17.6643 -11.1638,-12.5466 -20.2805,-23.072 -27.1814,-31.382 -3.7106,-4.4692 -11.6954,-13.1987 -17.7433,-19.3983 -6.047,-6.1994 -10.997,-11.6724 -10.997,-12.1621 0,-0.4898 2.1206,-0.3624 4.7125,0.2835 2.5918,0.6459 7.2571,1.5249 10.3673,1.953 5.7775,0.7952 97.2998,0.9959 179.8005,0.394 31.351,-0.2289 46.7777,0.099 48.5213,1.0326 3.1762,1.1107 9.5427,-4.5915 6.0545,-10.7042 -3.5485,-7.1126 -3.7586,-8.3523 -22.8808,-8.3112 z m -243.0264,25.0109 c 0.967,0 4.3401,2.8987 7.8198,6.754 3.7115,4.1121 10.848,11.828 15.8583,17.1452 5.0112,5.3169 9.1101,10.1166 9.1101,10.6673 0,0.5507 1.2724,2.3673 2.8275,4.0351 5.0197,5.3831 12.6614,14.0707 22.3049,25.357 5.1837,6.0668 12.8179,14.5877 16.9648,18.9363 4.147,4.3487 10.0847,10.894 13.1949,14.546 3.1102,3.652 9.3881,10.6186 13.9516,15.4811 4.5636,4.8624 11.7095,12.8004 15.881,17.6385 4.1705,4.8381 13.5549,14.9675 20.8544,22.5112 10.0489,10.3859 13.0186,14.2006 12.2354,15.7093 -0.5692,1.0958 -1.409,5.9508 -1.8661,10.789 -2.3487,24.2544 -6.3684,45.3772 -8.816,67.8592 -0.2922,2.0734 -0.6541,12.5581 -0.803,23.3008 -0.2592,18.7118 -0.3855,19.5869 -3.0132,20.8268 -3.8746,1.8286 -9.8424,-1.7955 -18.3785,-13.2096 -3.9179,-5.2394 -7.9405,-12.9319 -12.4399,-18.5939 -7.4975,-9.4354 -11.194,-14.2952 -24.6706,-32.4312 -2.5674,-3.4557 -6.3646,-8.4035 -8.4362,-10.9951 -2.0716,-2.5915 -3.5315,-4.9083 -3.2431,-5.1487 13.7829,1.2324 21.0476,1.2678 28.3585,-15.7388 3.5777,-12.3037 0.4929,-23.0906 -8.6624,-30.2923 -4.9047,-3.8578 -15.6039,-8.4532 -25.4548,-4.9425 -6.2901,2.0977 0.6984,8.6831 5.7031,8.6831 5.6398,0.035 11.7415,5.2764 13.4248,11.1092 3.9886,12.5254 -5.162,15.2061 -11.6982,13.9699 -8.1365,-0.7539 -15.323,-6.2017 -11.2656,-18.7523 1.6013,-4.9548 -10.5314,-23.1737 -12.6077,2.8385 -0.1574,1.9767 -1.2129,3.3451 -1.6917,3.1423 -0.4779,-0.203 -5.9057,-5.7416 -12.0611,-12.3076 -6.1544,-6.5659 -14.3786,-14.901 -18.2748,-18.5221 -10.0818,-9.3691 -6.9886,-6.7923 -6.8349,-21.992 0.1366,-8.4743 0.3374,-16.3133 0.4448,-17.4214 0.1602,-1.6434 1.3525,-1.9035 6.4693,-1.4119 6.0017,0.5767 6.4956,0.3791 11.4804,-4.6057 8.0055,-7.9967 4.4702,-19.5394 -1.5683,-32.4753 -2.572,-5.4769 -8.8123,-10.7463 -15.2089,-12.9003 -1.0594,0 -2.5664,-0.7734 -3.3496,-1.7175 -1.1697,-1.4093 -3.4929,-15.852 -3.7662,-23.4149 -0.038,-1.0368 -0.6202,-6.1262 -1.2941,-11.3099 -0.6748,-5.1837 -1.5965,-12.3265 -2.0489,-15.8714 -0.4845,-3.7934 -0.3167,-6.7585 0.4081,-7.2067 0.047,-0.026 0.098,-0.039 0.1621,-0.039 z m 287.7315,60.6304 1.245,4.8045 c 2.1508,8.3158 3.8972,30.5033 3.8897,49.4162 -0.01,16.6968 -0.329,19.2723 -3.8312,30.7874 -16.7264,53.213 -41.2754,101.4439 -95.396,126.4537 -4.4919,2.1932 -10.7877,5.3175 -13.9912,6.9416 -9.6897,4.8597 -16.9695,5.5633 -24.5895,7.1423 -2.1329,-26.9226 4.2308,-60.0182 5.9914,-88.3031 2.1554,-13.1591 -0.5948,-29.3572 14.9968,-34.92 9.5145,-3.1445 15.5351,-5.5458 17.5925,-7.33 1.0368,-0.8988 5.5626,-3.4468 10.0545,-5.6623 17.5237,-8.6413 33.5573,-22.291 49.3242,-41.9886 5.5183,-6.8938 10.3561,-13.3977 10.751,-14.4521 0.394,-1.0545 5.9481,-8.8853 12.34,-17.4029 z m -229.071,20.1494 c -5.6644,0.095 -7.5691,4.5416 -0.59,10.1576 2.3374,1.96 3.7954,4.0251 3.2393,4.5909 -0.556,0.5658 -1.4043,0.4797 -1.885,-0.1915 -0.4806,-0.671 -1.8642,-1.3855 -3.0744,-1.5886 -3.703,-0.6219 -2.8802,6.5628 1.1122,9.7029 9.783,8.7958 18.6877,6.0649 19.1702,-5.0236 0.3412,-5.2599 -1.3647,-9.9687 -4.8246,-12.4327 -4.9971,-3.7616 -9.7491,-5.272 -13.1477,-5.215 z m -13.5276,40.4902 c -5.9923,-0.1622 -12.7584,2.1376 -14.1505,5.7654 -0.8624,2.2472 1.1866,4.1043 4.5617,4.1345 5.0951,0.046 7.7623,9.6055 4.0366,14.4705 -1.8944,2.4738 -1.9754,2.4538 -5.1723,-1.2297 -3.9057,-4.4161 -13.8952,-8.3331 -14.7783,1.423 -0.836,5.5771 -0.6795,6.0153 3.279,9.1155 6.7595,5.1929 14.568,5.3484 22.8072,2.1925 11.6445,-4.8656 16.045,-27.7842 6.5315,-34.018 -1.8266,-1.1966 -4.3911,-1.7799 -7.1149,-1.8537 z m 45.8945,7.4056 c -19.4548,0.104 -6.6605,37.9577 10.7416,12.6701 1.9255,-2.9392 0.3185,-7.8721 -1.7785,-10.1888 -1.7021,-1.8808 -3.8708,-2.4813 -8.9631,-2.4813 z m 34.3406,29.0643 c -1.2488,-0.022 -2.6032,0.01 -4.0735,0.077 -8.783,0.5684 -20.5415,17.8974 -12.0525,29.2927 5.899,7.7765 8.669,10.3068 14.0252,12.8119 10.5181,4.8622 17.4426,-5.7646 19.9525,-16.2819 1.5749,-7.9235 1.5202,-8.3912 -1.7766,-15.3595 -3.6673,-7.7519 -7.3326,-10.3865 -16.0751,-10.5405 z m -1.0424,12.4052 c 1.3364,0 3.9688,8.6407 3.9688,13.0255 0,3.9391 -1.3223,4.2492 -3.4674,0.8136 -1.7455,-2.7952 -2.1451,-13.8391 -0.5014,-13.8391 z" fill="#00B894" transform="translate(-135.56227,-162.37225) matrix(0.28319764,0,0,0.28319764,-1855.716,-1510.4948)"/>
</svg>