<?xml version="1.0" ?><svg height="72.597878mm" viewBox="0 0 82.607239 72.597878" width="82.607239mm" xmlns="http://www.w3.org/2000/svg">
    <path d="m 3262.4998,8065.6207 c 67.9884,18.915 88.0507,14.33 136.4546,-33.818 48.404,-48.147 47.2894,-84.974 45.0602,-122.087 -2.2291,-37.114 -37.5767,-37.83 -55.7281,-34.105 -18.1515,3.726 -25.3167,19.059 -21.336,-7.881 3.9806,-26.94 -28.9787,-51.013 -65.7594,-54.882 -36.7806,-3.869 -93.4642,15.906 -124.1943,54.309 -13.6702,21.6023 -21.9982,54.4851 -23.3452,67.7287 -1.0459,10.283 1.1689,54.9608 13.6865,67.7029 12.2679,12.4879 31.8093,14.8658 31.8093,14.8658 0,0 -0.5664,18.5185 12.6954,27.8202 13.2617,9.3018 22.8763,16.0581 50.657,20.3464 z" fill="#FFFFFF" transform="translate(110.85124,0.01323969) matrix(0.26458333,0,0,0.26458333,-942.48959,-2065.552)"/>
    <path d="m 3448.6931,7968.7852 c -6.01,20.9117 -18.7101,36.6842 -30.5548,54.0096 -31.1818,45.6925 -86.7749,68.2317 -133.7507,54.2267 -9.9497,-2.9672 -25.4892,-6.4426 -34.5309,-7.7227 -29.5565,-4.1881 -54.2638,-23.7206 -54.2638,-42.9003 0,-5.5152 -2.0379,-6.8916 -10.1969,-6.8916 -7.2096,0 -13.4697,-3.2755 -21.3753,-11.1808 -9.2315,-9.2322 -11.2004,-13.6769 -11.2864,-25.4891 -0.053,-7.8682 -2.2787,-17.177 -4.933,-20.6893 -6.3269,-8.364 -6.119,-22.142 0.5623,-37.2964 2.965,-6.7262 6.519,-20.8791 7.9002,-31.4507 4.1023,-31.431 30.0127,-56.0002 80.0639,-75.9248 53.9759,-19.2578 86.7479,-12.0739 124.6113,17.6628 8.8724,6.9681 13.7487,14.7671 11.5358,29.84 -1.6252,11.0674 -0.053,11.9308 9.1212,4.9973 9.4225,-7.1259 37.1045,-6.3366 49.8295,1.4232 23.5054,14.333 30.7129,54.9815 17.2676,97.3861 z m -17.4501,-65.3114 c -5.6681,-13.5609 -12.0004,-18.6815 -25.8838,-20.9335 -14.1338,-2.2938 -24.7021,6.127 -50.1817,39.9802 -19.385,25.7579 -16.4963,24.0387 -58.8541,34.9975 -6.9996,1.8105 -18.5926,8.7637 -25.7577,15.448 -11.8168,11.0203 -12.6835,12.9196 -9.2888,20.3636 11.4572,25.1488 62.4229,36.4233 109.7848,24.2879 22.557,-5.7765 46.3839,-18.3287 49.3182,-25.9775 2.4177,-6.2994 3.5592,-6.4647 -19.4996,2.8341 -31.5149,12.71 -93.4721,18.4275 -93.4721,8.6255 0,-1.3985 13.6893,-3.1943 30.4201,-3.9908 38.9461,-1.8574 58.6219,-10.0931 81.2372,-34.0062 15.4725,-16.358 16.6024,-18.6938 16.6024,-34.2995 0,-9.21 -1.9902,-21.5082 -4.4249,-27.3293 z m -37.2551,11.2352 c -5.6088,4.859 -24.8601,12.7149 -31.1616,12.7149 -7.5162,0 -1.1425,-6.2305 13.2851,-12.9888 17.8277,-8.3492 27.6566,-8.1987 17.8765,0.2739 z m -10.1175,45.611 c -4.4375,0.025 -30.42,-14.735 -30.42,-17.2706 0,-4.3164 6.9338,-2.691 20.1054,4.711 11.6291,6.5363 16.5546,12.5349 10.3146,12.5596 z m -52.525,9.8562 c -2.3275,12.9814 -7.4929,15.887 -7.4929,4.2153 0,-12.8406 3.0713,-21.1825 6.9211,-18.8023 1.6178,1.0014 2.7423,2.8439 2.4962,4.092 -0.2472,1.2505 -1.1129,5.974 -1.9244,10.495 z m 26.0865,68.9643 c -39.9975,5.6533 -85.9294,-6.7706 -100.827,-27.2774 -4.968,-6.8347 -6.5657,-13.5634 -6.0554,-25.4867 0.2214,-17.95 2.18,-13.9136 -14.5561,-13.9136 -22.5533,-3.8915 -49.8434,-12.6751 -63.436,-26.5005 l -13.1408,-13.5388 c -5.548,9.8449 1.2999,28.1756 12.7659,29.9165 15.0917,2.2913 19.7987,6.817 1.4138,11.4417 -19.9616,5.0214 16.4884,48.8869 28.5867,30.9039 8.5324,-13.8027 19.7181,-21.1974 19.7181,-13.0283 0,2.8957 -3.8011,10.2534 -8.4508,16.3457 -6.7831,8.8918 -3.7935,11.7836 -4.9849,17.5543 -3.1343,15.1814 29.5641,28.9204 37.8782,23.4059 0.7311,-0.485 1.8678,-5.4495 1.8678,-16.3022 0,-10.8528 1.2009,-19.7324 2.666,-19.7324 1.4682,0 4.5531,7.7696 6.8594,17.2658 2.3042,9.4961 3.2145,20.7492 10.6391,24.7219 60.3198,32.2759 112.1173,-15.0565 110.7441,-17.4135 -0.6885,-0.6883 -10.4484,0.05 -21.6881,1.6377 z m -14.2102,-197.5618 c -15.5416,-14.518 -42.3155,-21.1702 -66.9634,-16.6392 -34.3368,6.3119 -78.2604,32.425 -94.7843,56.3504 -9.2486,13.3932 -7.3889,36.1199 4.272,52.2164 5.4391,7.5081 11.3586,13.6499 13.1546,13.6499 4.4843,0 4.3358,-0.5353 -4.7037,-16.8514 -8.9144,-16.0867 -14.3524,-39.0575 -9.2476,-39.0575 1.7834,0 4.1437,4.5064 5.2438,10.0116 3.3502,16.7429 18.4876,38.9565 33.6589,49.3973 13.7784,9.4764 14.7098,9.6638 22.5835,4.5038 6.9115,-4.5285 31.3738,-34.8595 31.3738,-38.8996 0,-0.703 -4.0695,-2.2618 -9.0439,-3.463 -26.4864,-6.3932 -33.7075,-8.9559 -33.7075,-11.9602 0,-3.7492 17.9581,-1.1051 36.5241,5.377 10.0188,3.4975 15.7909,3.2262 37.129,-1.734 33.9961,-7.9028 44.0594,-17.4705 44.5304,-42.3355 0.1475,-8.2408 -2.3657,-13.4155 -10.0197,-20.566 z m -33.7253,38.2199 c -6.4246,13.7366 -5.5727,4.8406 -3.3145,-8.2836 1.0905,-6.3316 3.2462,-13.7312 4.7929,-16.4443 5.0147,-8.8006 3.776,13.7987 -1.4784,24.7279 z m -20.1355,24.6026 c -2.4124,0 -48.0219,-63.5182 -23.7282,-48.1146 5.3869,3.4156 22.5626,37.1101 24.4781,40.4842 4.466,7.8666 0.1328,7.6304 -0.7499,7.6304 z m 42.7006,6.5952 c -8.1881,3.8779 -8.5887,4.9281 -16.6152,6.9482 -12.4852,3.1449 -36.7194,21.3552 -33.157,24.917 0.611,0.6141 9.1031,-0.5723 18.8716,-2.6344 27.2767,-6.2241 46.2078,-37.4731 30.9006,-29.2308 z" fill="#00B894" transform="translate(110.85124,0.01323969) matrix(0.26458333,0,0,0.26458333,-942.48959,-2065.552)"/>
</svg>