<?xml version="1.0" ?><svg height="141.83917mm" viewBox="0 0 256.43112 141.83917" width="256.43112mm" xmlns="http://www.w3.org/2000/svg">
    <path d="m 29591.047,1527.0625 c -7.981,-0.1522 -16.448,0.9159 -25.57,3.6094 -36.491,10.7741 -71.486,18.2326 -111.545,7.9765 -40.059,-10.2561 -53.182,-11.81 -62.852,-0.1035 -9.669,11.7064 -12.318,28.9707 -12.318,28.9707 l -44.448,77.5801 c 0,0 -61.47,-36.5711 -105.097,6.9395 -43.628,43.5106 -53.297,136.8514 -34.19,164.5117 19.11,27.6603 82.307,35.6894 82.307,35.6894 0,0 4.488,35.5858 12.891,75.7813 8.403,40.1955 32.001,60.3975 79.427,81.4277 47.426,21.0301 99.458,16.9886 129.387,-5.8027 29.929,-22.7912 72.752,-63.0904 91.859,-117.375 19.11,-54.2846 64.854,-219.4551 64.854,-219.4551 0,0 14.459,-12.8077 17.451,10.916 2.993,23.7236 14.389,175.8024 35.34,226.3574 20.95,50.5553 96.002,133.0197 141.012,137.8887 45.009,4.8691 127.314,-16.6798 152.869,-49.0019 25.555,-32.3223 32.861,-99.2344 32.861,-99.2344 0,0 72.771,-1.2428 90.268,-50.4512 17.497,-49.2084 10.706,-102.2509 -0.92,-126.0781 -11.626,-23.8273 -44.082,-86.0317 -94.278,-81.3223 -50.195,4.7094 -64.195,14.709 -64.195,14.709 0,0 -21.792,-55.5261 -28.584,-74.5879 -6.792,-19.0617 -50.765,-18.5442 -64.347,-14.5039 -13.584,4.0403 -57.788,-2e-4 -80.004,0.207 -22.217,0.2072 -34.879,11.5001 -47.08,18.8555 -12.202,7.3554 -22.908,1.9686 -37.182,2.2793 -14.274,0.3108 -27.916,6.877 -27.916,6.877 0,0 -0.574,-23.9314 -26.82,-39.2637 -19.684,-11.4992 -39.239,-22.94 -63.18,-23.3965 z m -308.02,147.1367 c 5.881,-0.084 11.873,1.5402 17.69,5.0528 26.59,16.0575 26.821,10.0494 16.576,41.75 -10.245,31.7006 -30.908,82.5937 -30.908,82.5937 -38.965,9.5027 -55.197,-25.8237 -48.865,-71.4062 4.946,-35.6114 24.507,-57.6911 45.507,-57.9903 z m 736.932,9.2715 c 21.707,-0.4152 47.35,16.4544 59.725,64.5508 18.418,71.5853 -48.692,97.0703 -48.692,97.0703 0,0 -58.49,-129.4733 -38.015,-150.2695 6.718,-6.8238 16.381,-11.1488 26.982,-11.3516 z" fill="#FFFFFF" transform="translate(34.034789,-77.373873) translate(-6325.9939,15.79543) matrix(0.26458333,0,0,0.26458333,-1427.0649,-338.9427)"/>
    <path d="m 6454.8974,197.06094 c -5.792,-4.16025 -12.0319,-8.25443 -16.334,-16.16755 -8.2932,-15.25319 -12.0352,-29.46836 -14.5688,-55.34623 -1.0528,-10.74105 -2.2409,-19.50105 -2.6423,-19.46651 -0.4015,0.0351 -1.0646,1.26926 -1.4732,2.74382 -0.4085,1.47456 -2.3481,7.74533 -4.3099,13.93505 -1.9619,6.18974 -5.0469,16.94802 -6.8561,23.90731 -3.8765,14.91552 -6.0925,20.88041 -10.0498,27.05249 -5.2261,8.1506 -14.4554,17.03471 -22.7561,21.90516 -9.3266,4.67257 -21.0572,5.3036 -29.3937,2.28084 -10.1928,-3.73156 -18.4256,-9.33906 -21.7085,-14.78628 -3.2801,-5.44241 -5.6269,-13.91445 -6.5307,-23.5747 l -0.6317,-6.82852 -3.0629,0.26182 c -3.6349,0.31192 -10.9159,-2.05104 -14.3297,-4.64964 -8.7419,-6.65458 -10.7888,-21.79536 -5.0979,-37.70391 5.0219,-14.037289 17.5641,-22.367979 30.8017,-20.459109 2.6798,0.38644 5.4246,1.25517 6.0994,1.93052 0.6748,0.67539 1.4984,1.20285 1.8304,1.17214 0.3319,-0.0307 1.7809,-3.18169 3.2201,-7.00218 2.4165,-6.41543 5.8171,-11.88227 7.4872,-12.03674 0.3827,-0.0354 0.8325,-1.35916 0.9996,-2.94168 0.397,-3.76304 4.8301,-7.08853 10.1061,-7.58125 2.1896,-0.20455 6.8943,0.4274 10.4547,1.40421 7.8142,2.14384 19.1576,1.45323 26.8716,-1.63594 9.1766,-3.67495 18.0515,-2.00998 26.7837,5.02481 3.3593,2.70644 4.4269,4.21418 4.6438,6.55909 0.2859,3.0905 -1.4095,5.60408 -2.3445,3.47601 -1.2729,-2.89703 -7.2315,-7.2224 -12.9748,-9.41864 -6.6899,-2.55815 -6.3865,-2.57817 -18.0838,1.19436 -8.3885,2.70536 -16.555,2.45654 -26.8709,-0.81875 -5.4392,-1.72701 -8.0832,-2.08885 -10.5828,-1.44818 -3.3501,0.85864 -7.019,4.77568 -5.5165,5.88953 0.4428,0.32856 4.496,1.21519 9.007,1.9703 4.5106,0.75514 13.9383,3.31917 20.9504,5.69782 7.0118,2.37868 17.5157,5.62458 23.3415,7.2132 5.8259,1.58861 11.9588,3.5861 13.6285,4.43892 4.008,2.755829 3.7125,-0.281544 5.0898,-4.01176 3.594,-9.73312 9.5285,-13.77891 16.9721,-11.57078 3.4566,1.0254 3.7827,0.9507 6.8445,-1.56842 4.9648,-4.08489 9.5798,-4.9062 17.5752,-3.12778 6.4698,1.43904 7.2756,1.41372 15.4333,-0.48494 8.5138,-3.09372 18.959,0.116288 20.4039,9.90668 0.1822,1.9695 1.1443,3.67266 2.8068,4.96803 1.3912,1.08415 3.0979,3.27545 3.7929,4.86957 l 1.263,2.89846 5.5667,-2.41318 c 4.8714,-2.11186 6.1251,-2.31942 10.0402,-1.66227 12.2098,2.0493 24.2849,17.133039 26.7477,33.411749 3.3322,22.02565 -3.1383,34.72384 -19.3907,38.05404 l -5.7328,1.17469 -0.08,5.3963 c -0.048,3.21972 -0.9133,7.17601 -2.1456,9.80874 -2.7909,5.96118 -10.5312,14.65616 -17.3418,18.64045 -14.1462,8.27576 -36.7997,7.52957 -47.9523,-0.48117 z m 44.0588,-4.50631 c 4.2957,-1.33945 13.5506,-13.64009 15.0899,-17.3493 3.9133,-9.42966 -11.2076,-75.621559 -18.812,-82.350289 -1.8328,-1.62166 -3.1979,-1.86654 -7.9537,-1.42664 -3.158,0.2921 -8.6245,1.62222 -12.1477,2.95579 -9.8661,3.73436 -32.522,9.725369 -39.0674,10.330799 -9.7514,0.90198 -9.9183,2.09937 -4.1982,30.11771 4.2055,20.59879 6.5244,28.19453 12.0446,39.45085 3.3014,6.73155 5.152,9.52535 8.7331,12.26772 12.4774,9.55498 18.3993,14.70659 46.3114,6.00336 z m -27.4922,-1.966 c -3.7202,-1.49183 -2.7265,-2.91517 2.518,-3.60627 6.3577,-0.83795 18.3733,-5.15851 24.2226,-8.71046 2.5227,-1.53183 5.1037,-2.83295 5.7357,-2.89141 1.9308,-0.1786 1.062,3.87265 -1.2815,5.97673 -6.0671,5.44733 -25.9546,11.33263 -31.1948,9.23141 z m -11.8063,-5.57365 c -2.3495,-0.88095 -4.9526,-4.74049 -3.7886,-5.61766 0.4141,-0.31194 2.1486,-0.22024 3.8547,0.20248 4.7331,1.17431 5.228,-0.29348 2.4039,-7.12865 -1.3261,-3.20978 -3.5184,-10.21921 -4.8716,-15.57659 -3.3367,-13.20975 -4.4851,-15.72788 -7.0648,-15.48926 -2.8178,0.26064 -5.9516,3.0765 -6.7929,6.10346 -1.1208,4.03312 -3.1894,1.47733 -2.4997,-3.08855 0.448,-2.96498 1.2836,-4.09105 4.555,-6.13898 7.0555,-4.41635 10.9199,-2.0418 13.2162,8.12025 4.6024,20.36968 6.9476,27.51669 9.9802,30.41821 2.0584,1.96936 1.9698,3.87142 -0.3005,6.4369 -2.1245,2.4011 -5.2765,3.03878 -8.6919,1.75839 z m 17.702,-5.14354 c -6.0155,-2.9886 -5.9294,-2.81625 -13.4665,-26.90958 -3.7141,-11.8716 -0.7218,-21.93603 7.4197,-24.95663 7.2076,-2.67406 16.3287,1.35447 18.0489,7.97159 0.451,1.73486 2.1337,8.1624 3.7392,14.28338 3.4175,13.02873 3.2847,18.1204 -0.3771,14.45537 -1.3629,-1.36396 -4.625,-10.88081 -7.4575,-21.7558 -1.1225,-4.31 -2.6953,-8.37984 -3.4951,-9.04412 -0.7998,-0.66428 -3.3227,-1.24519 -5.6068,-1.29088 -3.5836,-0.0717 -4.471,0.29993 -6.4736,2.71076 -1.2763,1.53659 -2.4621,4.3079 -2.6351,6.15842 -0.4035,4.31498 2.7932,25.49564 4.1603,27.56576 1.8672,2.82742 7.9118,5.92615 11.8785,6.08924 2.637,0.10843 5.0341,-0.49335 7.4711,-1.87524 4.0851,-2.31667 5.0028,-2.01993 4.4661,1.44439 -0.7861,5.07505 -11.526,8.20688 -17.6721,5.15334 z m -28.2309,-7.35514 c -4.3605,-8.21463 -6.9063,-19.25171 -4.121,-17.86709 1.307,0.64984 8.1876,15.58868 8.4409,18.32688 0.3161,3.41797 -2.4156,3.12717 -4.3199,-0.45979 z m 52.9342,-3.84912 c -0.8582,-1.09614 -2.5216,-5.17057 -3.696,-9.05431 -1.1742,-3.88377 -3.0196,-9.69758 -4.1009,-12.91961 -1.9778,-5.89461 -3.6127,-18.04213 -2.8116,-20.89077 0.2372,-0.84267 2.0013,-2.11472 3.9206,-2.82683 4.8681,-1.80604 8.1794,-0.72936 9.5813,3.11477 2.2207,6.08925 -0.7312,9.27998 -3.2464,3.50906 -1.509,-3.46222 -3.8137,-4.60337 -5.6306,-2.78796 -1.6218,1.62047 -1.1268,5.43282 2.1012,16.18372 1.5029,5.00547 2.9277,11.20689 3.1658,13.78098 0.4771,5.15765 2.0122,8.20891 4.036,8.02172 0.724,-0.067 1.5122,-1.01913 1.7518,-2.11591 0.6332,-2.89839 3.5095,-2.24653 4.179,0.94698 1.1487,5.48214 -5.8967,9.3195 -9.2502,5.03816 z m -62.9026,-42.33074 c 0.5861,-1.53677 4.0687,-2.66679 7.4026,-3.33952 11.8296,-2.38722 28.9408,-5.86965 39.2426,-9.68207 7.8337,-2.89898 10.7359,-3.62036 11.6073,-2.88522 0.8646,0.72932 0.7701,1.32989 -0.3686,2.34602 -2.2327,1.99222 -18.1605,7.7035 -28.8092,10.33011 -9.6432,2.37853 -30.366,6.61638 -29.0747,3.23068 z m -48.7571,48.73352 c 5.4162,-6.68312 8.352,-13.69394 12.463,-29.76217 3.9214,-15.32706 4.9908,-18.78661 9.9644,-32.23138 l 3.8765,-10.47891 -2.194,-1.57359 c -1.2066,-0.86547 -8.9358,-3.546989 -17.1759,-5.958899 -8.24,-2.41194 -19.5863,-6.23251 -25.2137,-8.49024 -5.6272,-2.25773 -13.6483,-5.112539 -17.8803,-6.11905 -4.0153,-0.954986 -6.68,-3.465369 -9.1011,0.16288 -0.7989,1.197284 -3.285,9.09406 -5.5245,17.54816 -2.2397,8.454139 -6.7806,22.257289 -10.091,30.673699 -4.8077,12.22383 -6.0293,16.44578 -6.071,20.9849 -0.055,6.04789 2.5902,20.03735 4.9395,26.11894 2.4929,6.45354 13.1,13.49064 25.2057,16.7225 15.2858,2.61427 27.5066,-6.36865 36.8024,-17.59684 z m -29.5154,8.88417 c -10.8333,-2.72154 -17.3936,-5.47707 -20.6169,-8.65955 -2.5274,-2.49557 -3.5671,-4.39347 -2.4628,-4.49561 0.2457,-0.0227 4.7023,1.7497 9.9022,3.93885 5.1996,2.18919 12.3896,4.71098 15.9779,5.60399 4.6209,1.15008 6.5672,2.09385 6.6728,3.23561 0.2267,2.45072 -1.0201,2.50029 -9.4732,0.37671 z m 15.7448,-6.86646 c -1.5351,-1.27511 -1.1707,-5.92265 0.9409,-11.99762 1.1936,-3.4344 3.962,-11.53564 6.1517,-18.00271 2.1896,-6.46706 4.9882,-13.11911 6.2185,-14.78227 2.0752,-2.80476 2.5076,-2.98313 5.9671,-2.46082 3.275,0.49453 3.9316,1.04322 5.3887,4.50286 1.4558,3.45596 1.514,4.46078 0.473,8.18432 -1.317,4.71231 -3.0258,6.14528 -4.987,4.18234 -1.0413,-1.0422 -1.0672,-2.36167 -0.1308,-6.68843 1.1777,-5.44173 0.357,-8.03923 -1.983,-6.27578 -0.6009,0.45278 -3.4539,7.28378 -6.3398,15.17997 -2.8862,7.89621 -6.1328,16.49795 -7.2148,19.11498 -1.0817,2.617 -1.7006,4.97936 -1.3753,5.24967 0.9658,0.80211 3.2666,-2.0257 4.8227,-5.92694 1.4137,-3.54492 3.4469,-5.46331 4.693,-4.4282 2.0534,1.70565 -0.4806,9.68505 -3.7645,11.85354 -2.3813,1.5725 -7.9833,3.02363 -8.8604,2.29509 z m -21.3758,-3.24115 c -1.9728,-1.43336 -4.2132,-4.15902 -4.9788,-6.05702 -1.284,-3.18455 -1.1267,-4.34732 2.039,-15.06179 5.8501,-19.79849 8.9361,-25.92486 14.5638,-28.91227 3.7522,-1.99182 6.5024,-1.26776 10.8621,2.85948 2.8608,2.70839 3.3845,3.84923 3.7928,8.26261 0.5117,5.53262 -1.4963,14.44199 -6.399,28.38901 -2.6111,7.42826 -3.1977,8.31024 -6.9,10.37495 -5.7097,3.184 -8.7501,3.21796 -12.9799,0.14503 z m 12.0204,-6.48585 c 1.7778,-1.82255 7.0927,-17.6492 8.3237,-24.78596 1.3884,-8.04978 -0.8258,-16.04184 -4.354,-15.71548 -2.9158,0.2697 -6.6946,5.06249 -8.6511,10.97219 -1.0335,3.12157 -3.4708,10.44307 -5.4165,16.27006 -1.7219,5.73366 -5.3086,9.05783 -0.6271,13.11944 3.3949,2.94505 7.9308,3.00417 10.725,0.13975 z m -33.0282,-2.82085 c -1.7307,-0.84727 -3.6166,-2.22401 -4.1913,-3.0594 -1.2952,-1.88361 -0.5336,-8.82834 1.2002,-10.93999 1.085,-1.32168 1.4161,-1.35231 2.7144,-0.25107 1.2109,1.02733 1.3637,2.09418 0.8438,5.89734 -0.5241,3.8343 -0.3853,4.77042 0.7971,5.37378 3.2696,1.66883 4.874,0.50085 6.4448,-4.69105 0.8535,-2.82182 3.4099,-9.79086 5.681,-15.48678 5.0015,-12.54356 5.2434,-17.14118 1.0017,-19.02696 -2.7089,-1.20434 -2.826,-1.1536 -5.1133,2.21609 -1.3671,2.01401 -2.8179,3.2116 -3.4874,2.87878 -1.8704,-0.92989 -1.5317,-2.88755 1.0832,-6.26305 3.199,-4.12944 8.635,-4.90863 12.9307,-1.85348 4.9477,3.51852 4.4429,8.20079 -3.0037,27.87044 -3.4928,9.2253 -6.7451,17.12383 -7.2279,17.55233 -1.6271,1.44393 -6.5049,1.33453 -9.6733,-0.21698 z m 0.8219,-24.48561 c -0.9701,-1.96528 1.5877,-8.57074 3.3834,-8.73684 1.9009,-0.17583 1.9811,5.76629 0.1115,8.26009 -1.7004,2.26797 -2.553,2.38426 -3.4949,0.47675 z m 46.8629,-21.35213 c -9.0695,-0.80074 -25.8291,-3.97945 -30.686,-5.81997 -3.8223,-1.44858 -6.5074,-5.4876 -2.8851,-4.34009 3.9132,1.23962 25.5949,3.83647 38.2799,4.58483 12.8621,0.7588 18.4542,2.06828 17.451,4.08642 -0.6762,1.35991 -13.7053,2.23525 -22.1598,1.48881 z m 148.1375,36.95124 c 2.0554,-0.82892 5.3451,-3.37741 7.3108,-5.66336 4.2602,-4.95433 5.1574,-10.01016 3.9984,-22.52828 -0.6661,-7.19211 -1.1823,-8.91127 -4.2197,-14.04927 -4.5832,-7.75266 -7.9148,-11.2443 -13.4138,-14.057939 -3.7803,-1.93419 -5.5577,-2.23578 -10.4891,-1.77964 -6.4956,0.60083 -6.5527,0.68344 -4.4016,6.345319 l 1.308,3.44236 2.6037,-1.66686 c 5.8486,-3.74473 12.1182,-1.34468 16.9849,6.50212 5.7949,9.34396 7.583,22.82241 3.9391,29.69044 -1.4563,2.74467 -7.093,7.29661 -10.5341,8.50662 -1.9707,0.69304 -2.3259,1.38081 -2.0808,4.03008 0.2611,2.82281 0.5841,3.16773 2.7764,2.96495 1.3645,-0.12621 4.1624,-0.90767 6.2178,-1.73654 z m -5.766,-13.00388 c 4.2051,-3.01692 4.5126,-3.68453 4.7782,-10.3767 0.2652,-6.68903 -3.4444,-17.05717 -7.4647,-20.86327 -2.3494,-2.22414 -3.8396,-2.85377 -6.2312,-2.63256 -1.7291,0.15994 -3.3531,0.71256 -3.6093,1.22807 -0.2564,0.51554 0.7982,5.49881 2.3437,11.07389 1.5453,5.57511 3.4003,13.33671 4.1227,17.24793 0.7224,3.91125 1.5353,7.09085 1.8071,7.06571 0.2714,-0.0251 2.1855,-1.2595 4.2535,-2.74307 z m -207.8969,2.60467 c 3.4232,-1.6771 2.8689,-5.0385 -0.7752,-4.70143 -3.7858,0.35018 -8.6675,-3.26658 -10.2817,-7.6175 -1.0007,-2.69661 -1.1277,-5.24861 -0.5255,-10.54011 1.4995,-13.17625 7.7456,-20.96806 16.8751,-21.05176 2.923,-0.0269 5.3624,0.59955 6.8502,1.75876 l 2.3104,1.80041 0.8381,-3.04431 c 0.9898,-3.594489 0.6534,-4.180829 -3.3214,-5.791589 -6.9041,-2.79776 -17.2251,0.48644 -22.4729,7.150909 -7.5315,9.56517 -10.0715,31.20934 -4.3797,37.32462 3.1614,3.39683 4.897,4.47817 8.3399,5.19687 3.9081,0.81581 3.8844,0.81758 6.5427,-0.48483 z m 2.5662,-11.73733 c 1.4516,-0.83062 3.4728,-4.69816 6.2748,-12.00581 4.6396,-12.10067 4.4719,-13.41861 -1.8322,-14.40938 -7.6409,-1.20095 -13.4948,6.8392 -13.6363,18.72936 -0.057,4.80489 0.2498,6.08657 1.7984,7.50913 2.099,1.92804 4.2452,1.97935 7.3953,0.1767 z m 156.4746,-46.185969 c 4.5459,-1.69043 10.2764,-3.2817 12.7344,-3.53612 2.458,-0.25458 4.442,-0.75772 4.4086,-1.1184 -5.2247,-10.152836 -15.2503,-5.530144 -19.5337,-4.59559 -4.1517,0.90313 -6.5687,0.82543 -11.7257,-0.37667 -6.9792,-1.62683 -11.8361,-0.9874 -13.7522,1.81053 -0.5881,0.85872 -2.2033,2.28728 -3.589,3.17458 -2.2144,1.41775 -2.9509,1.47827 -6.0762,0.49937 -7.8546,-2.27666 -13.8977,5.809073 -13.4931,11.761989 0.2387,3.51228 1.8208,7.16521 8.8269,5.79859 14.471,-3.704932 27.4801,-7.97471 42.2,-13.418279 z" fill="#00B894" transform="translate(34.034789,-77.373873) translate(-6325.9939,15.79543)"/>
</svg>