<?xml version="1.0" ?><svg height="75.981941mm" viewBox="0 0 112.57487 75.981941" width="112.57487mm" xmlns="http://www.w3.org/2000/svg">
    <path d="m 2354.4913,3038.4227 c -9.97,-11.1246 -8.6495,-15.8511 -6.5884,-26.9123 2.0608,-11.0609 20.0094,-33.9249 25.7051,-37.0274 5.6956,-3.1025 35.1477,-6.6095 44.3658,-4.0468 9.2178,2.563 30.5015,10.2518 33.6865,14.8381 3.1851,4.5863 3.5597,14.8717 -1.7238,23.1675 -5.2834,8.2957 -11.3905,24.3038 -34.7731,26.2024 -23.3825,1.8984 -44.7066,9.2715 -60.6721,3.7785 z" fill="#FFFFFF" paint-order="markers stroke fill" transform="translate(-46.154894,-61.146766) translate(-2297.6443,-2906.1312)"/>
    <path d="m 2355.5497,3042.1269 c -4.2436,-1.3065 -8.0143,-5.1318 -10.4208,-10.5724 -1.3664,-3.0886 -1.5221,-4.7382 -1.1662,-12.3433 0.6248,-13.346 2.574,-17.4756 14.8198,-31.3996 2.8795,-3.2741 6.575,-7.6254 8.2119,-9.6693 4.6032,-5.7474 8.9877,-7.4711 23.8245,-9.3667 17.6313,-2.2526 19.2852,-2.1703 33.5048,1.6699 5.6027,1.5129 21.0962,7.8943 25.0018,10.2974 5.3621,3.2994 7.4619,8.2823 6.9822,16.5695 -0.2767,4.7791 -0.9004,7.1243 -3.0689,11.5368 -5.608,11.4114 -20.4791,23.7645 -32.8837,27.3156 -19.958,5.7135 -55.1082,8.9474 -64.8054,5.9621 z m 36.2311,-5.5841 c 12.1848,-1.4665 24.8797,-3.9404 29.7848,-5.8042 10.2449,-3.8928 22.8999,-15.3696 27.8101,-25.2215 2.3187,-4.652 2.6953,-6.2145 2.7106,-11.2461 0.022,-5.7887 0,-5.8681 -3.0005,-8.4549 -2.8421,-2.4583 -22.2986,-10.8081 -30.3181,-13.0108 -3.6555,-1.0042 -14.9446,-0.5486 -29.765,1.201 -11.889,1.4035 -17.6851,3.7824 -20.0977,8.2493 -0.8253,1.5279 -4.737,7.0639 -8.6926,12.3025 -3.9559,5.2385 -7.859,11.0316 -8.6736,12.8735 -1.876,4.2409 -3.4407,14.8231 -2.74,18.5321 0.7069,3.7437 4.2443,9.0998 6.8031,10.3012 5.1137,2.4012 17.732,2.4981 36.1789,0.2779 z m -5.4647,-11.2781 c -0.5959,-0.9639 0.2114,-3.3227 1.1371,-3.3227 1.3625,0 1.6949,1.7822 0.5467,2.9306 -0.7369,0.7368 -1.3786,0.8862 -1.6838,0.3921 z m 15.3862,-0.5445 c 0,-0.6549 0.5359,-1.1906 1.1908,-1.1906 0.6547,0 1.1906,0.5357 1.1906,1.1906 0,0.6547 -0.5359,1.1904 -1.1906,1.1904 -0.6549,0 -1.1908,-0.5357 -1.1908,-1.1904 z m -32.7505,-5.3234 c -0.4801,-3.1535 -0.2182,-3.5592 1.4172,-2.2013 1.3735,1.1397 1.2945,4.0544 -0.1214,4.5204 -0.4993,0.1642 -1.0735,-0.8639 -1.2949,-2.3191 z m 26.7976,0.1642 c -0.3167,-0.5125 -0.2183,-1.2891 0.2183,-1.7257 0.5291,-0.5291 0.9856,-0.483 1.3698,0.1396 0.3167,0.5125 0.2181,1.2892 -0.2183,1.7257 -0.5293,0.5292 -0.9858,0.483 -1.3698,-0.1372 z m 28.4943,-10.7522 c -0.279,-1.1117 -0.2774,-2.2513 0,-2.5326 0.8687,-0.8684 3.1002,1.975 2.591,3.3016 -0.7249,1.8893 -2.0242,1.5041 -2.5948,-0.769 z m -40.3779,-4.924 c 0.3243,-0.7639 0.545,-2.1926 0.4908,-3.175 -0.1305,-2.3777 1.2824,-2.2746 2.3986,0.1756 0.6831,1.4993 0.6564,2.2465 -0.1147,3.1748 -1.4366,1.7312 -3.5275,1.5993 -2.7751,-0.1754 z m 53.9267,-7.7387 c -0.2048,-0.655 -0.5495,-1.7526 -0.7662,-2.4389 -0.272,-0.8615 0.036,-1.1669 0.9922,-0.9856 0.8348,0.1575 1.4861,1.1287 1.6374,2.439 0.2625,2.2746 -1.2164,3.0567 -1.8634,0.9855 z m -45.8082,-12.8625 c -0.4473,-3.5906 -0.2438,-3.9664 1.4049,-2.5981 1.3817,1.1468 1.2924,4.8491 -0.1283,5.3151 -0.5275,0.1732 -1.0565,-0.9533 -1.2764,-2.717 z m 32.2967,-0.3034 c -0.6927,-1.1207 0.8372,-2.6506 1.9579,-1.9579 1.2589,0.7781 1.0555,2.8208 -0.2807,2.8208 -0.6292,0 -1.3837,-0.3883 -1.6772,-0.8629 z" fill="#00B894" transform="translate(-46.154894,-61.146766) translate(-2297.6443,-2906.1312)"/>
</svg>