<?xml version="1.0" ?><svg height="103.35201mm" viewBox="0 0 181.83922 103.35201" width="181.83922mm" xmlns="http://www.w3.org/2000/svg">
    <path color="#000" d="m 5086.6225,5857.2933 c 0,0 -37.0709,175.4083 14.569,119.7554 51.6408,-55.6527 81.3877,-138.5703 81.3877,-138.5703 58.9102,-88.2233 148.5051,-122.1688 257.4314,-121.9198 l 3.2375,121.6495 c 0,0 219.0523,-10.1625 215.4133,-67.8947 -6.2618,-99.3551 -204.8905,-151.8027 -204.8905,-151.8027 l -18.075,61.6833 c -94.9756,44.7608 -136.1765,-21.227 -275.2106,142.0491 -29.0098,-16.9382 -143.5467,-51.401 -158.5266,-17.1062 -10.6869,24.4661 84.6638,52.1564 84.6638,52.1564 z" fill="#FFFFFF" overflow="visible" paint-order="fill markers stroke" transform="translate(-16.239692,72.974711) matrix(0.26458333,0,0,0.26458333,-1303.0679,-1557.5742)"/>
    <path d="m 5069.4381,5910.9778 c 4.9386,-23.0114 12.159,-47.0285 9.8867,-50.5207 -2.2724,-3.4921 -19.7084,-3.7572 -32.7638,-8.0326 -13.0553,-4.2753 -32.0578,-15.0311 -44.5147,-22.6351 -18.6358,-11.376 -18.1693,-20.6335 -11.406,-28.7825 13.0177,-15.6857 98.9689,-17.7383 131.6667,0.3039 l 26.8468,14.8133 22.2324,-19.4417 c 26.4123,-23.0974 21.8704,-35.2974 -13.963,-45.6866 -19.7687,-5.7317 -11.3598,-9.8848 -4.883,-10.3828 9.5229,-0.732 26.1804,5.248 33.4225,10.7242 17.3804,13.1468 14.5831,15.6055 41.478,-7.3807 l 23.3869,-19.9875 -18.7414,-7.1259 c -10.307,-3.9184 -22.9411,-7.0297 -28.073,-7.1253 -9.767,-0.1812 -13.0497,-1.9867 -14.1024,-7.7203 -2.033,-11.0716 40.0511,-2.0579 58.7227,9.6034 9.669,6.0382 17.7235,5.1923 36.6968,-3.8556 13.3692,-6.3752 28.5263,-13.1726 35.8089,-14.032 23.0457,-2.7194 7.9913,-27.5856 -26.8101,-39.717 -18.1278,-6.3195 -26.4519,-18.8823 -12.5096,-18.8823 15.7914,0 53.9537,23.6304 61.7801,38.2548 7.6144,14.2287 13.9705,13.4216 52.0443,10.6103 l 40.052,-3.7851 -0.1027,-26.404 c -0.1687,-43.2996 5.8,-52.1581 76.0975,-33.4039 104.3269,27.8333 155.9366,101.5917 159.4361,140.4576 5.8453,16.904 3.359,18.0429 -28.5725,35.8898 -38.9964,21.795 -83.2877,39.6963 -142.5307,48.7687 -66.7886,10.2282 -70.0825,6.5136 -69.337,-17.4355 0.5758,-18.4685 -3.3628,-25.5531 1.2714,-86.6453 l 3.6352,-47.9306 -56.2996,4.794 c -73.4878,6.2574 -112.7292,23.737 -170.7479,80.865 -23.0401,22.6855 -40.4818,42.6542 -38.7608,44.3751 1.72,1.7208 20.222,-12.1062 41.1142,-30.7265 20.8912,-18.6204 50.7879,-40.3566 66.437,-48.3019 32.0974,-16.2975 84.0643,-30.2473 126.645,-32.2302 8.3288,-0.388 25.3907,-2.8409 25.6998,4.9434 0.3035,7.7843 -16.0185,7.5845 -23.3652,8.4964 -18.0939,2.2452 -22.533,-0.207 -22.533,27.5137 0,33.3166 -11.6492,71.7951 -21.7357,71.7951 -3.8501,0 -4.7153,-5.1911 -1.9783,-11.8689 8.2986,-20.2416 11.0497,-65.6663 4.5569,-75.251 -5.1733,-7.6375 -7.3212,-6.0402 -39.6005,2.7504 -11.5427,3.143 -30.9005,6.8026 -31.8976,17.5921 l -0.2913,22.1429 c -0.246,18.579 -0.4401,37.2731 -11.3306,44.1676 -4.3939,2.7827 -4.3741,-6.6487 -2.3505,-20.4648 5.3514,-36.539 -4.7907,-45.2145 -31.023,-26.5359 -19.8224,14.1148 -21.386,17.8236 -17.5765,41.6544 2.5391,15.8784 1.4863,26.1595 -2.6785,26.1595 -3.7747,0 -6.8623,-5.9237 -6.8623,-13.1641 0,-40.4548 -24.7187,-4.6608 -38.4356,6.2813 -2.5278,44.3706 -32.5103,102.5916 -41.7853,114.752 -16.4483,21.5655 -59.7406,55.4414 -68.8234,47.2141 -22.8374,-12.9566 -7.8094,-63.5904 -2.5343,-89.4654 z m 34.988,53.1126 c 21.0392,-17.7033 46.4901,-64.9788 53.293,-98.9939 4.9217,-24.6068 -15.5831,-46.1703 -56.8547,-59.791 -28.3284,-9.3493 -90.1019,-5.387 -90.1019,5.7795 0,9.4469 30.6101,26.2592 56.7322,31.1598 13.6425,2.5591 26.1013,6.7522 27.6865,9.317 1.5853,2.5648 -2.9481,30.4497 -10.0742,61.9659 -7.1262,31.5168 -5.9,51.9745 -5.9962,54.7721 -0.3298,9.6713 5.2931,12.6391 25.3153,-4.2094 z m 452.3014,-150.3319 c 22.3813,-5.559 53.6936,-16.5381 69.583,-24.398 32.1285,-15.8933 32.5366,-20.5786 5.982,-68.6179 -10.5304,-19.0491 -26.0174,-32.3406 -56.3128,-48.3284 -42.1405,-22.2386 -99.1536,-44.0834 -115.0524,-44.0834 -10.8782,0 -16.5681,190.3606 -5.9321,198.4509 7.8453,5.9671 43.8154,1.3625 101.7323,-13.0232 z m -37.2132,-63.4127 c -12.1478,-11.3035 3.4825,-47.4113 17.0543,-47.4113 8.3618,0 8.6605,2.308 1.7361,13.3951 -6.2535,10.0122 -6.4165,15.3442 -0.6513,21.112 10.8094,10.8096 24.3445,0.5498 20.1966,-15.313 -2.8152,-10.7663 -1.6786,-11.7183 6.1912,-5.1866 14.7584,12.2484 11.2279,28.8996 -8.046,36.2273 -11.6341,4.6505 -28.8958,10.2592 -36.4809,-2.8235 z" fill="#00B894" transform="translate(-16.239692,72.974711) matrix(0.26458333,0,0,0.26458333,-1303.0679,-1557.5742)"/>
</svg>