<?xml version="1.0" ?><svg height="77.727554mm" viewBox="0 0 172.23441 77.727554" width="172.23441mm" xmlns="http://www.w3.org/2000/svg">
    <path color="#000" d="m 4431.1762,9240.0556 c 57.018,-18.027 128.678,-45.67 116.577,-72.1113 23.892,-34.6139 63.795,-50.2995 122.931,-43.2569 91.159,-1.7769 136.531,0.184 164.314,14.4126 117.145,-30.5367 227.103,38.4354 151.435,111.7726 l -44.468,66.102 c -69.409,94.1438 -164.177,86.8368 -262.007,67.3038 -47.294,-31.962 -107.276,-13.179 -163.453,-9.615 -66.221,-26.61 -198.329,-21.375 -85.329,-134.6078 z" fill="#FFFFFF" overflow="visible" paint-order="fill markers stroke" transform="translate(-96.918822,-74.285755) matrix(0.26458333,0,0,0.26458333,-1060.5631,-2335.8969)"/>
    <path d="m 4385.8002,9343.9404 c -41.689,-72.2578 44.871,-121.8468 86.629,-135.8548 53.554,-18.322 59.348,-21.618 66.739,-37.9847 4.455,-9.8574 13.854,-22.4758 20.889,-28.041 24.921,-19.7151 89.969,-34.5336 110.627,-25.202 32.786,-3.5585 66.351,-9.7689 93.993,-6.6621 40.917,4.7681 47.467,6.8766 65.526,21.0883 22.075,17.3753 52.536,54.0005 55.793,75.3445 5.809,23.127 -28.758,47.487 -54.482,57.554 -68.923,26.974 -204.605,3.024 -227.044,-40.075 -7.418,-14.249 -6.882,-17.41 7.344,-43.3374 8.44,-15.3815 21.484,-32.9693 28.989,-39.083 7.501,-6.1137 13.251,-12.1459 12.774,-13.4057 -1.789,-4.7345 -55.66,13.9452 -72.028,24.9762 -10.276,6.9232 -20.697,19.5604 -26.225,31.7949 -8.671,19.197 -12.288,21.434 -66.3,40.969 -50.285,18.187 -59.211,23.349 -74.49,43.08 -20.435,26.396 -24.005,50.244 -9.317,62.2768 34.274,28.075 86.187,35.69 168.342,24.692 44.777,-5.995 49.522,-5.478 91.645,9.978 50.136,22.213 77.406,13.822 120.261,11.71 39.096,-1.859 101.063,-23.6 128.067,-44.932 14.234,-11.2438 20.11,-20.1248 26.988,-40.7848 7.611,-22.856 12.531,-29.372 36.549,-48.414 34.297,-27.193 37.436,-41.856 15.11,-70.5993 -13.282,-17.1031 -18.442,-20.3003 -42.514,-26.3419 -15.064,-3.7821 -40.294,-6.3647 -56.067,-5.7399 -28.922,1.1459 -41.504,-4.2639 -36.368,-15.6339 3.108,-6.8872 54.215,-5.4419 90.936,2.572 38.862,8.4793 75.797,44.0903 77.414,74.638 1.3,24.498 -7.908,41.421 -33.134,60.892 -16.579,12.798 -25.348,24.309 -35.679,46.84 -7.532,16.43 -18.4,33.3508 -24.147,37.6008 -39.374,38.855 -100.401,51.56 -161.554,55.147 -15.968,0.936 -61.046,-3.308 -102.883,-18.434 -42.225,-15.267 -47.584,-15.831 -100.457,-10.571 -30.715,3.056 -68.535,4.393 -84.046,2.969 -33.189,-3.044 -81.72,-15.166 -97.88,-33.026 z m 314.523,-94.4268 c 69.393,12.46 144.137,-6.389 158.868,-40.062 5.994,-13.693 -19.738,-52.1766 -44.283,-66.2329 -40.224,-23.0333 -123.252,-13.998 -163.304,17.771 -21.97,17.4273 -36.435,48.3879 -28.081,60.1119 6.436,9.04 41.833,22.134 76.8,28.412 z m -264.614,63.781 c -4.76,-12.6 -0.54,-17.691 8.178,-9.864 4.212,3.781 19.116,7.989 33.119,9.352 31.619,3.076 41.05,13.611 13.325,14.885 -29.078,1.336 -50.856,-4.393 -54.622,-14.373 z m 278.198,40.5518 c 3.112,-6.889 17.667,-5.245 25.732,2.907 5.801,5.862 5.48,7.024 -2.232,8.108 -12.1,1.701 -26.248,-4.932 -23.5,-11.015 z" fill="#00B894" transform="translate(-96.918822,-74.285755) matrix(0.26458333,0,0,0.26458333,-1060.5631,-2335.8969)"/>
</svg>