<?xml version="1.0" ?><svg height="133.13498mm" viewBox="0 0 138.94826 133.13498" width="138.94826mm" xmlns="http://www.w3.org/2000/svg">
    <path d="m -4728.7048,11159.914 c -18.4864,-17.248 -68.8577,-135.387 -65.8049,-177.971 3.0528,-42.585 22.896,-85.933 66.1441,-141.34 43.2481,-55.406 58.8513,-93.564 72.9281,-104.554 14.0768,-10.99 56.4769,-0.153 56.4769,-0.153 0,0 18.4864,-25.642 72.2497,-28.542 53.7633,-2.9 71.7409,36.174 71.7409,36.174 0,0 0.6784,10.684 36.1249,16.179 35.4464,5.495 65.4657,20.301 67.1617,31.748 1.696,11.448 0.3392,42.28 26.1184,54.491 25.7792,12.21 42.7392,23.2 38.8384,64.106 -3.9007,40.906 -9.1584,117.681 -53.9328,172.324 -44.7745,54.643 -117.0242,131.723 -260.8452,110.049 -143.821,-21.674 -127.2002,-32.511 -127.2002,-32.511 z" fill="#FFFFFF" style="font-variation-settings:normal" transform="translate(-199.64491,-85.378946) matrix(0.26458333,0,0,0.26458333,1469.8247,-2746.194)"/>
    <path d="m -4632.4588,11199.867 c -13.186,-2.915 -28.794,-7.174 -34.684,-9.464 -5.888,-2.29 -16.847,-3.164 -24.355,-1.947 -8.484,1.376 -18.154,-0.118 -25.553,-3.945 -13.087,-6.767 -40.91,-35.749 -41.903,-43.646 -0.344,-2.742 -1.061,-9.48 -1.594,-14.972 -0.531,-5.497 -8.318,-29.282 -17.303,-52.861 -22.804,-59.845 -27.159,-89.288 -19.071,-128.953 8.197,-40.2 23.839,-65.741 64.523,-105.381 28.098,-27.374 33.064,-34.368 39.391,-55.488 12.784,-42.687 47.243,-70.522 69.833,-56.412 5.762,3.6 12.502,1.915 34.191,-8.544 57.825,-27.889 136.534,-18.353 140.416,17.011 1.832,16.718 4.992,18.894 26.737,18.403 14.708,-0.332 21.789,1.373 25.225,6.069 3.01,4.12 10.555,6.532 20.43,6.532 8.606,0 19.802,2.909 24.873,6.459 8.047,5.637 9.053,9.211 7.881,27.975 -1.108,17.801 -0.209,21.517 5.194,21.512 3.594,0 9.48,4.489 13.078,9.985 3.6,5.495 10.138,9.99 14.532,9.99 5.104,0 12.073,6.44 19.301,17.834 9.912,15.631 11.586,22.859 13.551,58.549 l 2.245,40.715 -19.473,51.601 c -28.126,74.524 -57.396,112.417 -116.805,151.212 -29.225,19.084 -62.587,30.487 -110.777,37.856 -45.858,7.013 -77.908,6.986 -109.883,-0.09 z m 98.139,-23.807 c 52.343,-6.971 86.459,-18.123 118.143,-38.624 31.36,-20.289 69.48,-59.987 82.75,-86.173 10.135,-20.006 38.528,-92.256 38.584,-98.19 0,-1.647 -4.414,-2.996 -9.841,-2.996 -6.362,0 -13.063,4.319 -18.852,12.151 -11.36,15.362 -24.65,14.777 -26.485,-1.162 -1.339,-11.638 -7.937,-14.176 -15.97,-6.143 -3.798,3.797 -7.492,1.633 -17.072,-9.992 -14.81,-17.967 -20.695,-18.484 -32.255,-2.847 -4.877,6.592 -10.312,11.986 -12.078,11.986 -1.769,0 -8.095,-5.477 -14.062,-12.173 -12.963,-14.552 -28.527,-14.759 -35.608,-0.476 -9.365,18.89 -13.252,19.6 -25.506,4.661 l -11.473,-13.987 -11.981,7.057 c -14.897,8.773 -19.123,3.315 -8.194,-10.585 9.29,-11.81 21.691,-13.453 31.886,-4.225 6.301,5.7 7.799,5.323 17.563,-4.44 8.254,-8.253 13.235,-10.166 21.949,-8.422 16.68,3.336 33.202,-17.016 18.419,-22.69 -3.237,-1.24 -6.284,-8.828 -6.992,-17.409 -1.009,-12.262 -2.993,-15.455 -10.243,-16.482 -4.945,-0.705 -8.992,-3.726 -8.992,-6.717 0,-2.989 4.047,-6.01 8.992,-6.716 14.835,-2.105 13.679,-17.309 -2.697,-35.431 -16.923,-18.733 -17.636,-24.562 -4.297,-35.058 12.947,-10.183 12.643,-15.964 -1,-18.951 -18.984,-4.16 -20.976,-5.317 -20.976,-12.166 0,-3.669 3.102,-8.94 6.891,-11.713 6.087,-4.45 4.801,-5.608 -10.989,-9.893 -10.736,-2.914 -28.908,-3.94 -45.472,-2.575 -30.537,2.521 -42.086,8.537 -24.75,12.887 15.246,3.827 30.363,27.697 30.363,47.935 0,16.744 -14.529,43.916 -31.88,59.62 -10.072,9.112 -10.084,12.054 -0.09,22.05 11.118,11.119 10.072,27.359 -2.611,40.6 l -10.603,11.064 12.599,12.889 c 14.744,15.08 16.129,28.424 3.836,37.035 l -8.763,6.137 8.763,9.329 c 17.016,18.111 8.097,46.08 -22.546,70.702 -14.385,11.563 -15.778,14.245 -13.784,26.526 2.644,16.304 -6.996,29.466 -21.581,29.466 -14.296,0 -15.626,-10.322 -2.757,-21.389 9.524,-8.194 10.442,-10.615 6.041,-15.921 -4.457,-5.369 -1.451,-10.249 21.106,-34.264 14.467,-15.405 26.301,-30.426 26.301,-33.382 0,-2.957 -4.462,-11.426 -9.916,-18.818 -10.565,-14.32 -8.872,-21.376 6.281,-26.187 10.878,-3.448 9.459,-12.734 -4.354,-28.465 -14.303,-16.289 -14.718,-20.813 -3.254,-35.388 8.385,-10.66 8.464,-11.572 1.998,-22.841 -11.007,-19.177 -8.673,-38.925 7.249,-61.317 24.563,-34.548 15.104,-64.214 -19.352,-60.707 -9.136,0.932 -19.527,2.998 -23.089,4.599 -3.904,1.749 -8.949,0.433 -12.7,-3.317 -3.423,-3.424 -8.921,-6.225 -12.214,-6.225 -9.543,0 -30.281,28.17 -36.768,49.949 -4.5,15.107 -14.106,29.075 -39.399,57.291 -41.598,46.394 -57.441,76.275 -61.729,116.397 -3.762,35.195 0.155,59.923 15.455,97.951 6.212,15.424 12.293,31.194 13.51,35.038 1.431,4.514 6.269,6.996 13.643,6.996 12.591,0 45.513,19.983 54.826,33.275 3.256,4.652 5.924,14.411 5.924,21.68 0,15.209 1.633,16.139 36.286,20.624 38.543,4.991 57.483,4.729 103.809,-1.438 z m -110.128,-54.164 c 1.358,-2.197 5.061,-3.995 8.229,-3.995 3.167,0 5.756,1.798 5.756,3.995 0,2.198 -3.701,3.997 -8.227,3.997 -4.525,0 -7.114,-1.799 -5.758,-3.997 z m -45.008,29.968 c 0.604,-4.66 -36.423,-29.968 -43.854,-29.968 -7.306,0 -6.18,9.755 1.956,16.863 17.708,15.478 40.654,22.658 41.898,13.105 z m 365.214,-215.748 c 6.297,-3.284 14.593,-5.981 18.441,-5.992 5.814,-0.04 6.99,-3.753 6.99,-22.133 0,-12.159 -2.513,-28.125 -5.587,-35.484 -4.524,-10.817 -7.391,-13.053 -14.985,-11.668 -7.265,1.328 -10.971,-1.107 -16.346,-10.717 -6.926,-12.387 -6.992,-12.404 -18.471,-5.625 -14.445,8.532 -29.248,5.274 -36.351,-8.002 -6.224,-11.628 -22.029,-17.927 -36.126,-14.397 -9.454,2.367 -9.946,3.854 -9.188,27.81 0.61,19.264 2.758,27.389 8.991,34.027 10.654,11.338 10.325,16.418 -1.829,28.574 -8.46,8.458 -9.308,11.34 -5.47,18.515 4.535,8.467 4.58,8.462 12.351,-2.208 4.292,-5.888 11.418,-10.707 15.84,-10.707 8.213,0 31.253,11.828 31.253,16.042 0,1.283 6.079,1.624 13.512,0.756 7.434,-0.868 14.729,0.392 16.22,2.801 3.584,5.799 7.102,5.53 20.755,-1.592 z m -28.757,-113.508 c 1.207,-1.956 -0.366,-4.542 -3.503,-5.744 -3.134,-1.204 -6.273,-8.133 -6.969,-15.403 -1.205,-12.545 -2.225,-13.326 -20.081,-15.379 -10.348,-1.189 -19.34,-2.988 -19.98,-3.995 -0.642,-1.006 -3.147,-5.43 -5.565,-9.824 -5.541,-10.069 -29.567,-13.606 -29.567,-4.35 0,3.377 -5.394,8.934 -11.989,12.341 -6.593,3.41 -11.986,7.506 -11.986,9.106 0,1.598 5.412,8.017 12.028,14.259 10.852,10.243 13.252,10.928 24.573,6.981 19.621,-6.84 26.369,-5.365 42.315,9.251 14.508,13.294 23.703,14.118 30.724,2.757 z" fill="#00B894" transform="translate(-199.64491,-85.378946) matrix(0.26458333,0,0,0.26458333,1469.8247,-2746.194)"/>
</svg>