<?xml version="1.0" ?><svg height="88.666855mm" viewBox="0 0 94.488083 88.666855" width="94.488083mm" xmlns="http://www.w3.org/2000/svg">
    <path d="m -8506.0195,9124.1567 c 43.2866,-32.24 82.4684,-54.293 151.1299,-40.3 68.6615,13.993 136.2036,60.002 145.035,135.116 8.8314,75.114 -9.5778,151.46 -109.8335,172.953 -100.2558,21.493 -155.1103,-7.053 -206.482,-100.861 -51.3717,-93.809 20.1506,-166.908 20.1506,-166.908 z" fill="#FFFFFF" transform="translate(102.42857,-92.493925) matrix(0.26458333,0,0,0.26458333,2161.2207,-2308.0344)"/>
    <path d="m -8199.7156,9280.9446 c -1.0037,4.8502 -6.4973,19.154 -12.2063,31.7864 -12.5527,27.7735 -43.4946,58.5468 -74.3989,73.9898 -48.2442,24.1078 -117.293,28.3243 -155.7439,9.5119 -43.4262,-21.2465 -81.4009,-64.6465 -101.8283,-116.3847 -9.3855,-23.7684 -11.451,-33.9402 -11.6162,-57.1682 -0.1846,-25.3684 1.0994,-30.9841 12.5276,-54.9724 22.1386,-46.4721 59.1541,-76.4787 110.6806,-89.7205 26.7698,-6.8791 48.2727,-6.8367 82.1551,0.159 60.2227,12.4392 118.4904,53.3459 140.7464,98.8061 9.1758,18.7436 10.3458,24.9923 10.895,58.0875 0.3384,20.3964 -0.2119,41.0523 -1.2111,45.9025 z m -19.901,10.6059 c -0.6221,0 -8.4422,7.0043 -17.3742,15.5626 -19.5832,18.7618 -52.1987,37.2035 -85.6812,48.4425 -20.9845,7.0442 -31.6642,8.2872 -70.6369,8.212 -25.2523,-0.057 -51.988,-1.9151 -59.4127,-4.1504 -11.8509,-3.5683 -12.9639,-3.4202 -9.12,1.2133 7.8281,9.4299 17.2921,12.8421 22.8439,8.2359 4.1435,-3.4383 5.0732,-2.806 5.0732,3.4669 0,10.6455 18.4656,17.7102 52.2807,20.0013 31.0604,2.1065 48.8698,-1.6873 47.3989,-10.0975 -1.4753,-8.4524 6.7127,-11.5991 11.8623,-4.556 4.2199,5.7693 5.9197,5.4276 25.8128,-5.1758 26.0099,-13.8617 61.812,-45.6467 70.9935,-63.0231 6.4871,-12.2746 8.4125,-18.1317 5.9597,-18.1317 z m -87.1612,75.9369 c -1.9425,1.1997 -3.5318,0.5001 -3.5318,-1.5574 0,-2.0587 1.5893,-3.7403 3.5318,-3.7403 1.9414,0 3.5307,0.7018 3.5307,1.5574 0,0.8556 -1.5893,2.5406 -3.5307,3.7403 z m -56.266,21.0403 c -4.2267,2.6113 -8.4147,-4.0319 -5.5061,-8.736 2.4415,-3.9499 8.7941,-1.3569 8.7941,3.5887 0,1.7135 -1.481,4.0286 -3.288,5.1473 z m -32.0299,-5.1473 c -1.9447,0 -3.534,-1.5893 -3.534,-3.5306 0,-1.9448 1.5893,-3.5341 3.534,-3.5341 1.9414,0 3.5307,1.5893 3.5307,3.5341 0,1.9413 -1.5893,3.5306 -3.5307,3.5306 z m -17.6601,-1.767 c -1.9413,-1.1997 -3.5306,-2.8813 -3.5306,-3.7403 0,-0.8556 1.5893,-1.5574 3.5306,-1.5574 1.9414,0 3.5307,1.685 3.5307,3.7403 0,2.0587 -1.5893,2.7605 -3.5307,1.5574 z m 186.998,-193.9493 c -8.5081,-22.7407 -31.6323,-49.7991 -55.825,-65.3242 -26.452,-16.9741 -84.4964,-39.0949 -102.6919,-39.1346 -22.608,-0.052 -58.8533,9.6923 -82.6348,22.2083 -36.39,19.1514 -66.9479,62.8659 -71.5996,102.4271 -4.4683,38.0327 18.2855,87.1618 50.7928,109.6639 22.9555,15.8885 41.6911,21.0027 83.2192,22.7162 46.2129,1.9083 77.0352,-4.4284 113.5904,-23.3519 60.6226,-31.384 84.232,-78.2031 65.1489,-129.2048 z m -17.5165,58.5298 c -4.646,16.1635 -14.273,29.4741 -27.6596,38.2526 -7.1,4.6545 -14.4974,10.2826 -16.4422,12.5053 -1.9413,2.2228 -14.6558,8.5299 -28.2532,14.0156 -21.4208,8.646 -29.675,10.012 -61.8086,10.2433 -40.1838,0.2882 -73.9866,-9.2967 -101.2862,-27.31 -16.2667,-10.7332 -26.8437,-30.995 -23.8154,-38.8834 2.9836,-8.4327 -0.4102,-19.6012 -6.9292,-19.9752 -5.5768,0 -9.1234,-10.6009 -9.1952,-27.4716 -0.057,-14.7808 17.3616,-49.4362 32.4253,-64.4977 13.7455,-13.7452 49.8755,-32.0609 69.0805,-34.4636 14.2696,-1.8407 8.4229,3.1234 1.7535,5.1245 -14.6077,5.0141 -11.4772,7.9414 -11.4772,10.2671 0,4.9958 41.0041,59.2821 46.1013,61.033 3.7346,1.2846 30.6063,-56.5131 30.6063,-65.4743 0,-2.9244 -3.949,-4.943 -9.0747,-6.8926 -18.1545,-6.903 -4.9083,-8.2149 15.2081,-1.2934 28.1575,9.687 77.827,43.4073 89.156,60.5244 9.7079,14.6722 16.563,52.4666 8.6244,47.5608 -2.217,-1.3722 -4.0285,-5.87 -4.0285,-9.9995 0,-4.127 -3.3221,-14.365 -7.3803,-22.746 -5.4959,-11.3531 -9.4321,-15.2444 -15.4293,-15.2444 -8.7862,0 -68.8608,20.2428 -73.9067,24.9022 -1.7135,1.584 6.233,5.4991 17.6601,8.6989 84.7777,23.7262 90.3135,26.3724 86.0708,41.124 z m -32.4127,-18.1873 c -34.3974,-10.606 -84.3027,-22.1844 -86.4377,-20.0494 -1.1211,1.1205 12.7167,19.5727 30.7459,41.0074 l 32.7819,38.9709 16.2063,-13.1761 c 35.4262,-28.7986 36.6737,-37.5107 6.7036,-46.7528 z m -23.2563,-83.3975 c -22.6638,-14.8947 -41.7765,-26.118 -44.4755,-26.118 -1.2258,0 -2.2512,2.7813 -2.2751,6.1798 -0.023,3.4012 -5.5518,18.7992 -12.2827,34.221 -6.7331,15.4219 -11.7847,28.494 -11.2288,29.0503 1.1837,1.1815 78.9162,-22.4095 83.8162,-25.4399 5.8298,-3.6024 3.4908,-6.6884 -13.5541,-17.8932 z m -46.4248,101.1583 c -16.2804,-19.4958 -30.5545,-35.4235 -31.7177,-35.3917 -2.8391,0.08 -32.3774,73.2046 -34.7266,85.9826 -1.1894,6.4586 -0.1026,11.2151 3.0145,13.1895 13.872,8.7862 84.8461,-1.2874 93.9365,-13.3354 5.4412,-7.2094 5.0254,-7.8986 -30.5067,-50.445 z m -45.314,-35.3652 c -8.5799,0.2648 -98.6816,36.0539 -101.932,40.4855 -10.1351,13.8246 5.6475,33.7309 36.472,46.0003 26.1182,10.3995 31.654,5.9528 50.9091,-40.9117 17.8457,-43.4311 18.5715,-45.6987 14.5509,-45.5741 z m -15.8942,-44.2973 c -6.3116,-8.5454 -15.451,-21.1223 -20.3055,-27.9458 -4.859,-6.8262 -11.2425,-12.4525 -14.1909,-12.508 -9.0027,-0.159 -49.3824,28.9125 -49.3824,35.556 0,1.4515 5.1644,3.7083 11.4771,5.0195 13.6578,2.837 69.6868,18.2085 78.0287,21.411 9.0881,3.4886 7.0248,-4.4104 -5.627,-21.5327 z m -20.3055,21.1937 c -54.8566,-15.3238 -56.602,-15.6364 -65.2002,-11.7188 -5.6817,2.5881 -9.5735,8.6751 -12.1904,19.0694 -5.292,21.0216 -4.8477,27.7736 2.4164,36.7453 9.9795,10.12 27.0699,-1.2157 43.2667,-7.8592 20.4317,-8.3805 42.2573,-17.6681 48.6783,-20.211 14.4154,-5.7056 12.0822,-7.9122 -16.9708,-16.0257 z" fill="#00B894" transform="translate(102.42857,-92.493925) matrix(0.26458333,0,0,0.26458333,2161.2207,-2308.0344)"/>
</svg>