<?xml version="1.0" ?><svg height="165.99899mm" viewBox="0 0 131.75699 165.99899" width="131.75699mm" xmlns="http://www.w3.org/2000/svg">
    <path d="m 2763.2178,3250.9628 c -4.1521,-6.9789 -3.9325,-10.2883 19.2751,-45.1974 23.2077,-34.9092 64.965,-91.5575 70.6126,-99.4596 5.6472,-7.9017 27.4121,-18.5859 33.0596,-14.9502 5.6473,3.6353 -6.3481,25.3748 -11.3773,31.1621 -5.0289,5.7872 -23.7022,22.8152 -36.9343,40.9188 -13.2323,18.1039 -37.6679,51.9481 -49.4659,67.2587 -11.7978,15.3104 -9.8192,27.2542 -25.1698,20.2676 z" fill="#FFFFFF" paint-order="markers stroke fill" transform="translate(155.92859,-2.5067339) translate(-2914.0264,-3086.627)"/>
    <path d="m 2762.1585,3252.5509 c -3.6087,-3.0365 -4.9943,-8.2026 -3.415,-12.7331 1.4398,-4.1301 13.0715,-22.0966 25.381,-39.2033 5.6056,-7.79 15.3316,-21.8399 21.6135,-31.2216 6.2818,-9.3816 14.0985,-20.5465 17.3703,-24.8109 3.2716,-4.2644 9.7719,-13.8011 14.4452,-21.1926 4.6731,-7.3918 10.1342,-15.3002 12.1362,-17.5746 5.6377,-6.4052 14.0757,-11.6272 23.5716,-14.5878 10.5361,-3.2849 13.3849,-2.8529 15.5633,2.3601 1.3957,3.3406 1.3849,4.2435 -0.1037,8.7979 -3.9345,12.0286 -16.0371,27.5854 -29.9365,38.48 -2.1068,1.6514 -5.5454,5.4554 -7.6411,8.4531 -2.0957,2.9975 -12.1841,16.4484 -22.4187,29.8908 -23.428,30.771 -28.0297,37.4859 -35.7792,52.2116 -7.7247,14.6787 -9.9472,17.6435 -15.7958,21.0708 -5.9758,3.5023 -10.8757,3.5216 -14.9902,0.059 z m 14.4313,-6.5453 c 0.8929,-1.0723 5.2074,-8.398 9.588,-16.2791 7.6872,-13.83 10.8979,-18.3974 35.0524,-49.864 17.3321,-22.579 27.0006,-33.822 39.7587,-46.2345 10.9654,-10.6682 11.74,-11.6809 11.0707,-14.4731 -1.0211,-4.2607 -1.1063,-4.3347 -4.2855,-3.7306 -2.5757,0.4894 -2.7234,0.3699 -1.449,-1.1725 0.7805,-0.9445 2.2649,-1.7173 3.2989,-1.7173 2.2209,0 2.5624,-0.4777 3.5133,-4.9106 0.5778,-2.6938 0.3917,-3.3598 -0.9378,-3.3598 -0.9121,0 -2.0834,1.1178 -2.6029,2.4841 -1.5693,4.1276 -3.1397,4.2212 -3.1397,0.1869 0,-3.4701 -0.1305,-3.6045 -2.5842,-2.6712 -3.7413,1.4224 -3.2806,-0.6208 0.591,-2.6228 2.4982,-1.2919 3.4946,-1.3777 4.6705,-0.4018 0.9556,0.7931 3.3018,1.0267 6.5041,0.6475 3.2127,-0.3807 5.4461,-0.1552 6.2272,0.6249 0.9353,0.9347 1.4423,0.8596 2.1818,-0.324 0.6793,-1.0868 0.5139,-1.6407 -0.5597,-1.8763 -1.971,-0.4324 -1.9562,-1.863 0.027,-2.6241 2.2426,-0.8606 1.9042,-4.5333 -0.5381,-5.8402 -2.7866,-1.4915 -4.2599,-0.4134 -3.5112,2.5696 0.4249,1.6929 -0.071,3.1129 -1.633,4.6747 -2.6723,2.6721 -3.7561,2.118 -2.0592,-1.0526 3.4781,-6.4983 -6.8492,-3.9578 -15.4897,3.8109 -5.6208,5.0536 -6.3404,6.5494 -3.1501,6.5494 2.5768,0 3.6239,3.7119 2.1446,7.6026 -1.4483,3.8094 -1.4024,4.0071 0.7722,3.3171 2.8532,-0.9057 5.7693,1.7106 4.9135,4.4074 -0.8111,2.5553 -2.6418,3.0381 -2.6418,0.6965 0,-1.9634 -2.3746,-1.9795 -6.1229,-0.04 -3.2895,1.7009 -4.8435,1.0105 -2.9258,-1.3003 1.3193,-1.5895 3.983,-10.7741 3.3197,-11.4466 -0.207,-0.2092 -1.5819,-0.081 -3.0538,0.2891 -1.7208,0.432 -3.6765,2.3775 -5.4758,5.4477 -6.4003,10.921 -14.7906,23.0642 -21.301,30.8285 -3.814,4.5488 -10.9392,14.318 -15.8332,21.7096 -4.8943,7.3918 -13.187,19.2544 -18.4285,26.3618 -14.1547,19.194 -27.464,40.6977 -28.0933,45.3904 -0.4437,3.3082 -0.1328,4.2336 1.9133,5.6954 2.9648,2.1176 7.9239,1.4649 10.2692,-1.3521 z m 101.5762,-133.5649 c 2.7214,-4.5638 2.5813,-8.1766 -0.3172,-8.1766 -1.3654,0 -1.967,1.1711 -2.464,4.7965 -1.2401,9.0486 -0.8685,9.5004 2.7812,3.3801 z" fill="#00B894" transform="translate(155.92859,-2.5067339) translate(-2914.0264,-3086.627)"/>
</svg>