<?xml version="1.0" ?><svg height="208.2361mm" viewBox="0 0 62.016121 208.2361" width="62.016121mm" xmlns="http://www.w3.org/2000/svg">
    <path d="m 2875.0231,3470.5799 c -3.8661,-1.8777 -3.9172,-5.2533 -4.6215,-10.0806 -0.7041,-4.8273 -1.4193,-114.2135 -1.7135,-120.9762 -0.2944,-6.7628 -2.251,-25.45 -1.2911,-31.5444 0.9601,-6.0947 5.7607,-16.9013 8.129,-19.0902 2.3683,-2.1892 5.556,-5.2422 8.1674,-6.0601 2.6115,-0.8181 4.2887,0.8755 6.2088,-0.2765 1.9203,-1.1522 2.573,-2.2928 4.1989,-1.8433 1.6259,0.4493 5.8229,2.0804 5.8229,2.0804 0,0 3.2004,-6.1637 6.4008,-4.0095 3.2002,2.1545 9.601,8.2606 12.0206,12.1317 2.4193,3.8711 6.1703,16.5441 6.132,24.5742 -0.038,8.0301 0.2296,69.9069 0.332,71.9117 0.1024,2.0044 0.5721,72.9646 0.585,75.6375 0.013,2.6728 -2.0097,4.9426 -3.5845,5.7491 -1.5746,0.8064 -6.1704,6.3018 -9.2044,6.8318 -3.034,0.53 -12.7375,4.1246 -17.3077,4.3894 -4.5701,0.2651 -11.4956,-1.4171 -14.1073,-2.3963 -2.6114,-0.9792 -4.5133,-6.7067 -6.1674,-7.0287 z" fill="#FFFFFF" paint-order="markers stroke fill" transform="translate(-14.017041,-62.763792) translate(-2852.017,-3213.0647)"/>
    <path d="m 2927.7136,3464.9534 c -0.2932,2.5161 -3.4789,5.3669 -4.2004,5.2584 -0.6268,-0.095 -1.9577,1.5566 -2.9425,3.4944 -1.3855,2.7269 -2.7458,3.7552 -6.0175,4.5485 -2.3249,0.5636 -4.6777,0.7306 -5.2285,0.3705 -0.5507,-0.3597 -2.6544,1.013 -4.6751,3.0503 -4.0104,4.0432 -12.6555,1.8473 -17.1199,1.322 -7.5041,-0.883 -10.206,-3.056 -10.854,-6.7814 -0.3652,-2.0986 -1.1491,-3.0753 -2.4956,-3.1091 -1.0906,-0.027 -4.3242,-2.7805 -4.7724,-4.0841 -1.6823,-4.8894 -2.8685,-35.8829 -2.3985,-75.7943 0.2678,-22.7438 0.1015,-47.4116 -0.3694,-54.8176 -1.1124,-17.4929 -0.6532,-35.1115 1.0532,-40.4066 1.8769,-5.8229 7.3056,-12.4411 10.0485,-12.7665 1.4031,-0.1665 2.3164,-1.0005 2.3452,-2.1412 0.079,-3.1282 2.9487,-4.6727 6.2156,-3.3446 2.3861,0.9698 3.0386,0.8433 4.1224,-0.7992 1.6418,-2.4872 7.682,-1.3815 7.7119,2.9612 0,1.5343 -0.1732,1.7252 -2.2785,1.1405 -1.9109,-0.5312 -2.9235,-0.2025 -3.8931,1.2672 -1.1425,1.731 -1.764,1.833 -4.8603,0.7967 -3.06,-1.024 -3.755,-0.9225 -5.0312,0.7334 -2.1284,2.7623 -1.8703,4.2061 0.4021,2.2512 2.4264,-2.0873 4.7555,-2.0631 6.4344,0.068 1.1789,1.4957 1.3883,1.5009 2.245,0.056 0.5236,-0.8832 2.3031,-1.5585 3.9937,-1.516 1.9483,0.049 2.9751,-0.4608 3.086,-1.3943 1.0896,-9.1773 5.6731,-9.5324 7.5567,-9.4851 0.8791,0.022 2.6163,1.113 3.8602,2.4239 1.244,1.311 3.4591,3.25 4.9222,4.3086 1.4633,1.0588 2.6397,2.7459 2.6143,3.7493 -0.024,1.0034 1.3059,2.8775 2.9583,4.1645 4.4636,3.477 6.485,9.8191 6.2548,30.359 -0.3468,30.9044 1.0546,87.8349 1.3959,100.8812 0.382,14.6026 0.3134,39.8316 -0.084,43.236 z m -5.4748,-28.1313 c -0.3175,-10.8146 -0.292,-20.9354 0.056,-22.4907 0.6951,-3.0998 -0.038,-3.5267 -2.7842,-1.6212 -1.692,1.1738 -1.6956,2.0437 -0.062,14.7348 0.9549,7.4176 1.64,17.4982 1.5228,22.4009 -0.2536,10.6027 0.4943,16.2147 1.8953,14.221 0.5227,-0.7438 0.7253,-2.7539 0.4498,-4.4672 -0.594,-8.5101 -0.8667,-15.7346 -1.0779,-22.7776 z m -1.4704,-69.5816 c -0.7166,-0.9172 -0.6196,-1.788 0.3161,-2.8601 1.5332,-1.7554 1.0541,-17.8344 -0.5827,-19.5558 -0.5501,-0.5786 -0.5481,-1.4381 0,-2.0745 0.52,-0.5978 1.1457,-3.4085 1.3907,-6.2461 0.333,-3.8565 0.084,-5.1686 -0.9841,-5.1953 -2.1112,-0.054 -2.3877,-2.1751 -0.5153,-3.9555 2.058,-1.9571 2.0901,-2.7268 0.117,-2.7764 -1.7549,-0.045 -2.038,-1.6707 -0.4517,-2.5968 1.3401,-0.7822 1.583,-8.7499 0.2679,-8.7831 -1.8254,-0.045 -2.8044,7.5808 -3.2419,25.2542 -0.4714,19.0096 0.3229,64.3677 1.1409,65.2283 0.2765,0.2904 1.3338,0.2331 2.3496,-0.1283 1.707,-0.6061 1.8232,-1.9557 1.5329,-17.8243 -0.1732,-9.4426 -0.7774,-17.7618 -1.3439,-18.4869 z m -4.1905,69.4392 c -0.6047,-7.978 -1.0557,-16.2992 -1.0017,-18.4915 0.075,-3.03 -0.2592,-3.8591 -1.3928,-3.4566 -0.8197,0.2914 -3.2131,0.8079 -5.3176,1.1483 l -3.8271,0.6186 0.4587,4.7866 c 0.2522,2.6322 0.8941,8.2872 1.4264,12.5664 0.5324,4.2791 1.1141,14.5315 1.293,22.7831 l 0.3252,15.003 2.5528,-0.2205 c 1.4039,-0.1215 3.6716,-1.2206 5.039,-2.4419 2.7816,-2.4846 2.7698,-1.6231 0.4441,-32.2949 z m 0.7934,-140.6201 -2.061,-2.1202 0.7777,2.0877 c 0.4278,1.1484 1.2054,4.5415 1.7278,7.5407 0.5225,2.9992 1.3585,5.4634 1.8582,5.476 1.7431,0.042 -0.1799,-10.8016 -2.3023,-12.9844 z m -2.8161,94.8915 c -0.3707,-7.0515 -0.7625,-8.5522 -2.3523,-9.0109 -1.0492,-0.3026 -1.8933,-1.1132 -1.876,-1.8011 0.022,-0.7418 0.8666,-1.0098 2.0848,-0.6584 1.1292,0.326 2.0537,0.52 2.0542,0.4311 0,-0.758 -2.3753,-31.608 -2.5306,-32.8002 -0.1104,-0.8559 0.2437,-4.7622 0.7892,-8.6807 0.7543,-5.4209 0.6764,-7.3315 -0.3256,-7.991 -1.0603,-0.6977 -1.0548,-1.2667 0.027,-2.9187 1.5926,-2.4308 1.6514,-3.1305 0.4358,-5.1641 -0.7845,-1.3118 -1.2307,-1.2628 -3.0952,0.3412 -1.8758,1.6134 -2.1728,1.6447 -2.137,0.225 0.022,-0.9072 0.5138,-1.9253 1.091,-2.2622 1.568,-0.9155 1.353,-4.1889 -0.3737,-5.697 -1.334,-1.1651 -1.5853,0.2839 -2.0743,11.9721 -0.794,18.9779 -1.2946,57.9455 -0.9062,70.5191 l 0.3309,10.7031 3.7793,-0.6109 c 2.0787,-0.3361 4.1374,-0.8201 4.5745,-1.0753 0.9655,-0.5636 1.0895,-4.3847 0.5038,-15.5205 z m -1.0071,-78.5029 c -2.0191,2.5345 -2.0578,4.6627 -0.086,4.7123 1.0667,0.027 1.5664,-1.0087 1.6019,-3.3205 0.049,-3.1781 -0.033,-3.2532 -1.5162,-1.3918 z m -0.5544,-12.0568 c -1.892,-1.269 -2.8396,1.8173 -1.5572,5.0706 1.6375,4.1553 4.1498,3.3635 3.3098,-1.0428 -0.3432,-1.7991 -1.1318,-3.6115 -1.7526,-4.0278 z m -2.485,-15.3629 c -0.5162,-0.022 -0.2048,1.1583 0.6894,2.6027 0.8954,1.4442 2.0501,2.6368 2.5662,2.6498 0.5162,0.022 0.2048,-1.1583 -0.6894,-2.6025 -0.8952,-1.4445 -2.0501,-2.637 -2.5662,-2.65 z m -0.9975,23.7083 c -1.9999,-4.1184 -3.6053,-3.9868 -2.8931,0.2373 0.5804,3.4436 2.0294,5.2308 3.5305,4.3544 1.1402,-0.6657 1.0884,-1.0382 -0.6374,-4.5917 z m -0.4434,-15.541 c -1.6274,1.5473 -3.8243,1.262 -3.7801,-0.4914 0.022,-0.8244 0.8056,-1.9035 1.7443,-2.3982 1.325,-0.6984 1.4155,-1.0897 0.4041,-1.7505 -1.485,-0.9702 -4.1606,1.926 -4.2274,4.5755 -0.022,0.927 0.6444,3.88 1.4836,6.5622 1.5455,4.9396 3.3785,5.698 3.4856,1.4421 0.031,-1.2789 0.7268,-3.1923 1.543,-4.252 1.7235,-2.2365 1.1608,-5.4127 -0.6531,-3.6877 z m -4.7321,159.8103 c -0.6039,-12.8862 -0.9034,-14.5744 -2.8399,-16.005 -2.0899,-1.5434 -2.0972,-1.6458 -0.2115,-2.953 2.0077,-1.3919 2.3188,-5.0221 1.2004,-14.0105 l -0.484,-3.8901 -6.6108,-0.1665 -6.6108,-0.1665 0.4047,6.4734 c 0.2228,3.5605 0.5886,7.5197 0.8136,8.7986 0.2251,1.2789 0.3784,11.6469 0.3412,23.0404 -0.038,11.3933 0.2024,21.1772 0.5313,21.7417 0.9148,1.5669 7.4352,1.3921 10.9031,-0.2921 3.5986,-1.7474 3.5563,-1.3747 2.5632,-22.5708 z m -2.7906,-168.9033 c -3.3367,3.2737 -3.3707,3.3923 -1.4868,5.1854 1.8502,1.7609 1.9757,1.7087 3.1063,-1.2897 0.7996,-2.1202 1.8632,-3.108 3.3078,-3.0715 1.8709,0.047 1.9791,-0.2025 0.8906,-2.0459 -1.8549,-3.721 -4.0645,-0.4893 -5.8179,1.2217 z m -0.3786,106.9465 c -0.2674,-3.8459 -0.8971,-7.003 -1.3994,-7.0156 -0.5021,-0.022 -0.8954,-0.7204 -0.8741,-1.5731 0.022,-0.8526 0.5043,-1.5385 1.0727,-1.5241 0.6396,0.022 1.1716,-5.474 1.3965,-14.4062 0.3455,-13.7376 0.2569,-14.4926 -1.8426,-15.6849 -2.6643,-1.3023 -2.1554,-1.2893 0.036,-2.8796 2.0475,-1.4862 2.3195,-2.894 3.1563,-16.3395 0.5035,-8.0921 0.6977,-14.7187 0.4317,-14.7255 -0.2661,0 -1.2537,1.1008 -2.1946,2.4608 -1.3686,1.9783 -1.4816,2.9285 -0.5647,4.7505 1.6817,3.3412 -0.4695,4.9301 -2.5108,1.8542 -2.1736,-3.2757 -3.0925,-1.9502 -2.9651,4.2783 0.1372,6.7017 -1.3995,5.8531 -3.4438,-1.9021 -1.1088,-4.2058 -1.8639,-5.5382 -2.6916,-4.751 -0.828,0.7874 -0.94,6.1161 -0.3987,19.0003 0.4138,9.8487 0.6334,22.4409 0.4882,27.9826 -0.2279,8.691 -0.029,10.0819 1.4463,10.119 1.5818,0.04 1.5801,0.18 -0.022,1.861 -1.4785,1.5534 -1.6802,3.5803 -1.3867,13.9256 l 0.3439,12.1078 4.2346,0.093 c 2.3289,0.047 5.3229,-0.1711 6.6535,-0.4907 2.2043,-0.5313 2.3792,-1.0078 1.9694,-5.3655 -0.2475,-2.6304 -0.6687,-7.929 -0.9361,-11.7749 z m 1.0579,-85.4778 c -0.2115,-0.2519 -0.8987,0.031 -1.5257,0.6261 -0.8137,0.7737 -0.8188,1.7221 -0.022,3.3131 0.6169,1.2258 0.8289,2.6769 0.4709,3.225 -0.3582,0.5479 0.095,1.0152 1.0068,1.0381 1.3516,0.034 1.5467,-0.6781 1.0548,-3.8514 -0.3316,-2.1413 -0.7766,-4.0992 -0.9887,-4.3509 z m -2.8888,-5.7188 c -2.4474,-1.0104 -2.4779,-0.9724 -2.558,3.186 l -0.074,3.8762 2.0858,-2.5331 c 2.5466,-3.0915 2.6168,-3.6743 0.5466,-4.5291 z m -1.1418,12.5446 c -1.725,-2.3944 -2.6745,-1.3525 -2.7855,3.0568 -0.077,3.0575 -0.3082,3.3807 -1.6078,2.2459 -0.8347,-0.7289 -1.5016,-1.9662 -1.4818,-2.7492 0.022,-0.783 -0.2299,-1.4303 -0.5546,-1.4387 -1.3475,-0.033 -3.6213,3.0078 -3.6692,4.9079 -0.038,1.5309 0.4677,1.9219 2.0166,1.5583 1.2645,-0.297 2.2826,0.1192 2.6203,1.0703 0.7704,2.1683 5.405,0.093 6.0422,-2.7064 0.8148,-3.5773 0.7659,-4.0768 -0.58,-5.9449 z m -2.8696,-21.9957 c -0.9548,-0.3942 -1.9957,0.6122 -3.0361,2.936 -1.9446,4.3437 -2.0515,6.0517 -0.3366,5.3753 6.1691,-2.4334 6.8172,-3.033 5.817,-5.3826 -0.5452,-1.2806 -1.6449,-2.5989 -2.4443,-2.9287 z m -1.5471,12.9176 c -0.5996,-2.3719 -0.7294,-2.4122 -2.463,-0.7636 -1.0064,0.9569 -1.8515,2.5989 -1.8779,3.6485 -0.027,1.0499 -0.3433,2.6239 -0.7042,3.4982 -0.5926,1.4355 -0.3426,1.4427 2.5835,0.075 3.326,-1.5558 3.5515,-2.1474 2.4616,-6.4567 z m -6.9714,148.6403 c -0.3152,-10.5302 -0.6089,-23.0572 -0.6527,-27.838 l -0.079,-8.6924 -4.567,-1.4915 c -2.5116,-0.8203 -4.6741,-1.5014 -4.805,-1.513 -0.6732,-0.061 0.9355,10.0173 1.7791,11.1457 0.6261,0.8376 0.6142,1.779 -0.031,2.5845 -0.635,0.7918 -0.9011,9.6096 -0.7089,23.5084 0.2873,20.7729 0.4479,22.3642 2.4345,24.1044 1.1695,1.0248 3.5243,1.8985 5.2329,1.9415 2.7179,0.068 3.0354,-0.2138 2.5388,-2.263 -0.3121,-1.2877 -0.825,-10.9566 -1.1402,-21.4866 z m -1.3264,-92.7248 c 0.069,-14.8618 -0.2838,-28.5955 -0.7834,-30.5194 -0.4997,-1.9237 -0.8755,-4.807 -0.8354,-6.4074 0.04,-1.6006 -0.3679,-2.6523 -0.9072,-2.3375 -0.5391,0.3146 -0.7486,2.2707 -0.4651,4.3465 0.6298,4.6106 -1.3711,3.9388 -2.281,-0.7661 -0.6963,-3.6008 -2.0492,-4.0611 -3.0887,-1.0512 -0.8174,2.3674 0.9913,16.3963 2.3562,18.2741 0.5237,0.7206 0.4861,1.458 -0.093,1.7955 -1.5423,0.9002 -2.4307,39.2299 -0.988,42.6199 0.9546,2.2428 0.9365,2.9078 -0.088,3.2208 -0.8876,0.2713 -1.3576,3.074 -1.5063,8.9822 -0.2353,9.3562 0.068,9.8503 6.1371,10.0029 l 3.1153,0.079 -0.3498,-10.6085 c -0.1912,-5.8348 -0.2932,-22.7684 -0.225,-37.6303 z m 1.7181,-67.57 c -2.2724,-1.9846 -5.3684,1.1153 -7.4166,7.4258 -2.1698,6.6861 -2.1377,7.5139 0.3207,8.2233 1.3873,0.4005 2.0313,1.4617 1.9858,3.273 -0.036,1.4741 -0.5326,2.6687 -1.1009,2.6543 -0.5684,-0.022 -1.0161,-0.7236 -0.9946,-1.5761 0.022,-0.8526 -0.6585,-1.5678 -1.5112,-1.5892 -1.1023,-0.027 -1.5783,1.0803 -1.6477,3.8364 -0.086,3.4375 0.1935,3.8828 2.4679,3.9401 3.0475,0.077 4.1401,-2.0004 7.1057,-13.5089 2.603,-10.1019 2.6619,-11.0446 0.7909,-12.6787 z m -2.6426,13.3206 c -0.4252,-0.051 -1.5912,-0.4394 -2.591,-0.8639 -1.584,-0.6726 -1.6288,-1.0174 -0.3479,-2.6796 0.8084,-1.0488 1.9971,-1.5628 2.6414,-1.1417 1.2861,0.8403 1.5396,4.8332 0.2975,4.6852 z m -10.5048,123.9862 c -0.1373,-13.9825 -0.4923,-18.1319 -1.5898,-18.5267 -1.1698,-0.4205 -1.3461,1.3506 -1.0192,10.2321 0.2182,5.9072 0.6518,18.3917 0.9647,27.7432 0.3287,9.8125 1.0442,17.4835 1.6925,18.1395 0.8239,0.8345 0.9904,-1.6195 0.625,-9.2164 -0.2738,-5.6947 -0.5769,-18.4617 -0.6732,-28.3717 z m 4.3712,-138.5454 c -1.5007,-0.038 -5.5902,9.2313 -5.0633,11.4758 0.2389,1.0181 0.071,1.8422 -0.3701,1.8309 -1.2606,-0.031 -2.5161,8.4226 -1.4212,9.5738 0.6286,0.6612 1.2401,-0.3936 1.7207,-2.9682 0.4101,-2.1966 1.8962,-7.2226 3.3025,-11.1685 3.1654,-8.8831 3.1295,-8.7112 1.8314,-8.7438 z m -3.9959,37.2108 c -0.5142,-2.0492 -0.8935,-5.47 -0.8431,-7.6017 0.066,-2.7535 -0.357,-3.887 -1.4584,-3.9147 -1.9261,-0.047 -2.3687,9.2433 -0.8419,17.6763 0.5576,3.0775 0.9407,20.2145 0.8518,38.082 -0.1015,20.1468 0.2275,32.6263 0.8631,32.8554 1.3587,0.4896 2.7021,-72.0203 1.4285,-77.0973 z" fill="#00B894" transform="translate(-14.017041,-62.763792) translate(-2852.017,-3213.0647)"/>
</svg>