<?xml version="1.0" ?><svg height="124.21085mm" viewBox="0 0 126.04185 124.21085" width="126.04185mm" xmlns="http://www.w3.org/2000/svg">
    <path color="#000" d="m 2303.6984,11010.815 c -89.8563,-13.277 -134.6503,-2.776 -179.9808,-93.299 -45.3306,-90.524 -53.1091,-177.788 -44.2576,-208.687 8.8515,-30.898 57.6689,-68.797 93.075,-82.557 35.4061,-13.76 78.7249,-67.832 103.536,-64.453 24.811,3.38 140.4173,40.434 140.4173,40.434 0,0 90.7951,29.933 100.9877,66.143 10.1927,36.209 20.1171,113.214 -17.4347,192.754 -37.5519,79.54 -45.5988,145.32 -196.3429,149.665 z" fill="#FFFFFF" overflow="visible" paint-order="fill markers stroke" transform="translate(-13.521426,-41.060377) matrix(0.26458333,0,0,0.26458333,-532.68007,-2749.9592)"/>
    <path d="m 2208.3339,11008.166 c -65.1717,-24.056 -85.2136,-46.015 -118.5225,-129.867 -26.7624,-67.373 -34.449,-174.77 -13.1278,-203.535 17.9409,-24.206 53.9423,-45.866 91.5337,-57.933 24.4064,-7.831 39.9349,-20.647 50.6701,-31.686 8.7685,-9.019 19.1811,-16.394 23.1388,-16.394 3.9579,0 11.0824,-4.54 15.8332,-10.086 9.8735,-11.533 34.9408,-13.49 43.3283,-3.383 3.2922,3.97 11.7812,5.793 20.7827,4.473 10.7558,-1.578 17.8073,0.666 24.0532,7.652 10.4396,11.681 34.4982,19.83 75.6852,28.077 95.757,19.175 137.18,94.138 111.6737,196.526 -28.6948,115.188 -68.1133,190.944 -134.0018,213.894 -46.6899,16.265 -154.5632,15.729 -191.0468,2.262 z m 177.0731,-20.663 c 40.9881,-12.786 77.4362,-68.996 104.9753,-125.904 25.3022,-52.285 28.463,-96.642 26.1875,-122.459 l -1.5657,-17.764 c -69.897,47.405 -161.297,53.159 -236.868,53.733 -78.9777,-0.152 -122.7472,-4.309 -169.7539,-27.82 l -24.5552,-12.278 3.5426,34.135 c 6.1815,59.576 34.6927,147.193 65.5428,182.328 57.6204,50.994 159.654,56.706 232.4946,36.029 z m 79.1089,-270.63 c 1.4069,-3.666 -0.7231,-9.394 -4.7321,-12.731 -7.3686,-6.123 -24.8012,-38.689 -34.3401,-57.213 -2.8575,-5.549 -10.2612,-12.327 -16.4535,-15.068 -6.1924,-2.737 -11.2587,-7.629 -11.2587,-10.875 0,-3.291 -4.1958,-4.8 -9.4975,-3.411 -6.0115,1.569 -12.314,-1.541 -17.1715,-8.475 -6.5635,-9.368 -9.2825,-10.096 -18.7846,-5.011 -8.0349,4.301 -12.636,4.423 -16.6215,0.436 -3.0307,-3.032 -13.2782,-5.513 -22.7723,-5.513 -13.7511,0 -16.1346,-1.358 -11.7204,-6.677 4.0459,-4.876 3.9408,-8.276 -0.3936,-12.607 -8.439,-8.439 -19.0458,-7.343 -19.0458,1.972 0,5.609 -2.9291,6.973 -10.0876,4.704 -14.2565,-4.524 -29.2031,1.327 -32.8655,12.865 -1.7159,5.406 -6.2427,9.831 -10.0599,9.831 -9.4169,0 -22.6426,19.804 -22.6426,33.906 0,6.316 -1.9384,11.488 -4.3075,11.488 -2.3686,0 -10.5343,5.769 -18.1456,12.824 -9.8548,9.135 -13.0403,16.032 -11.0669,23.959 2.2988,9.235 -0.6238,12.572 -17.1606,19.585 -10.9621,4.648 -19.9314,10.599 -19.9314,13.224 0,2.625 11.9157,8.201 26.4794,12.388 26.1145,7.517 26.6074,7.457 35.7269,-4.395 5.086,-6.607 14.1647,-11.942 20.1747,-11.848 10.7608,0.152 10.739,0.341 -1.4122,10.438 -10.1832,8.473 -11.0651,11.075 -5.0439,14.885 47.9274,14.666 185.8671,10.565 253.1343,-28.681 z m -221.5761,21.1 c 2.1985,-6.715 33.7427,-10.126 33.7427,-3.651 0,2.647 -7.9826,5.744 -17.7393,6.882 -10.9685,1.282 -17.0762,0.04 -16.0034,-3.231 z m -82.0314,-12.434 c -3.9035,-7.294 -3.9807,-10.52 -0.2535,-10.52 6.1145,0 12.7736,14.143 8.6169,18.302 -1.5052,1.505 -5.2703,-1.998 -8.3664,-7.782 z m 125.8617,4.612 c 0,-6.738 18.7634,-25.221 25.6022,-25.221 2.985,0 0.1475,6.685 -6.3048,14.854 -12.0958,15.314 -19.2974,19.18 -19.2974,10.367 z m -98.6094,-17.186 c -2.9597,-7.204 -0.434,-12.653 10.055,-21.671 7.7048,-6.629 16.5957,-11.19 19.7582,-10.134 7.0772,2.358 7.6741,16.156 0.7062,16.338 -8.4068,0.226 -21.0546,9.494 -23.8918,17.521 -2.1624,6.117 -3.4312,5.722 -6.6276,-2.054 z m 56.9856,-7.317 c -3.1015,-11.859 4.57,-25.935 14.134,-25.935 8.361,0 9.7943,7.961 2.2712,12.61 -2.7739,1.714 -5.0436,7.523 -5.0436,12.906 0,12.471 -8.131,12.771 -11.3616,0.419 z m 51.7109,-15.849 c 0,-2.773 2.4039,-5.042 5.3413,-5.042 2.9382,0 3.9388,2.269 2.2243,5.042 -1.7144,2.777 -4.1179,5.046 -5.3413,5.046 -1.2233,0 -2.2243,-2.269 -2.2243,-5.046 z m -74.695,-28.998 c 1.0754,-5.584 6.3066,-8.83 14.2399,-8.83 6.8972,0 15.5059,-3.971 19.1306,-8.824 9.4426,-12.646 17.5165,-11.095 13.1316,2.522 -2.0103,6.242 -3.6762,14.285 -3.7023,17.87 -0.049,3.586 -2.5068,5.598 -5.5122,4.474 -20.0961,-7.527 -28.1605,-8.609 -28.1605,-3.771 0,2.963 -2.4362,5.384 -5.4137,5.384 -2.9776,0 -4.6486,-3.972 -3.7134,-8.825 z m 64.6079,-23 c 0,-9.8 18.0822,-20.495 28.134,-16.637 8.408,3.228 9.7759,23.241 1.5884,23.241 -3.0703,0 -4.2772,-3.405 -2.6801,-7.565 3.8663,-10.072 -6.3156,-9.628 -17.8192,0.782 -8.4282,7.63 -9.2231,7.647 -9.2231,0.191 z m -55.4037,-12.308 c -0.065,-9.526 2.5553,-11.293 16.3147,-11.005 16.3605,0.34 16.3674,0.34 3.7828,6.163 -6.935,3.203 -14.2765,8.158 -16.3147,11.006 -2.0382,2.853 -3.7404,0.09 -3.7828,-6.164 z m 35.6265,-7.721 c -0.2307,-8.278 2.7933,-15.256 7.3853,-17.017 11.2366,-4.312 15.5565,2.313 6.299,9.659 -4.3325,3.439 -9.095,9.657 -10.5815,13.818 -1.4875,4.16 -2.8833,1.252 -3.1028,-6.46 z m -142.998,87.158 c 7.0537,-5.546 15.9225,-10.085 19.7098,-10.085 4.2152,0 6.8854,-5.601 6.8854,-14.442 0,-9.029 5.1997,-19.652 13.8699,-28.33 l 13.8703,-13.882 -14.3063,4.703 c -25.8636,8.503 -44.6223,16.598 -57.444,33.771 -8.2419,11.038 -11.9822,24.097 -6.6202,30.553 8.1921,9.873 8.6293,9.832 24.0351,-2.288 z m 378.805,-38.788 c -15.1863,-26.195 -32.3622,-33.807 -61.0538,-43.376 l -30.0104,-10.01 26.1655,25.484 c 14.3912,14.018 29.1685,39.659 29.7726,43.776 1.5085,10.276 13.1866,23.633 20.6672,23.633 30.7078,-8.788 20.1297,-29.697 14.4589,-39.507 z" fill="#00B894" transform="translate(-13.521426,-41.060377) matrix(0.26458333,0,0,0.26458333,-532.68007,-2749.9592)"/>
</svg>