<?xml version="1.0" ?><svg height="119.3502mm" viewBox="0 0 121.29025 119.3502" width="121.29025mm" xmlns="http://www.w3.org/2000/svg">
    <path color="#000" d="m 6177.3866,5050.0025 c 52.6079,-163.0066 170.6292,-282.3349 364.4879,-142.9883 163.7075,117.6741 40.0152,377.595 -116.9846,375.2649 -156.9989,-2.3302 -249.8566,-65.0332 -247.5033,-232.2766 z" fill="#FFFFFF" overflow="visible" paint-order="fill markers stroke" transform="translate(-1.2543073,-221.20202) matrix(0.26458333,0,0,0.26458333,-1630.7229,-1060.0662)"/>
    <path d="m 6324.0549,5285.2277 c -91.1387,-23.1712 -156.2732,-114.201 -155.9508,-207.2951 0.4081,-54.3413 19.5679,-123.4718 55.7209,-160.7708 80.4518,-83.0012 190.3064,-99.0729 292.64,-36.3122 68.5547,45.3678 99.8124,87.6388 108.258,170.5562 7.2515,71.2052 -5.4344,139.578 -74.6489,197.4115 -51.5362,43.0623 -153.1205,54.9434 -226.0192,36.4104 z m 92.6947,-38.6305 c 7.113,-14.477 22.4982,-34.8479 34.1879,-45.2688 21.8195,-19.4507 39.9427,-68.7783 40.1048,-109.1613 0.066,-14.8384 1.8011,-17.3528 7.8377,-11.3165 6.0366,6.0362 5.9669,16.4455 -0.3101,46.8473 -4.441,21.4976 -9.881,44.0512 -12.0912,50.1185 -3.4975,9.6047 -2.2016,9.4379 10.013,-1.2876 7.7171,-6.7754 14.0309,-19.183 14.0309,-27.5719 0,-8.3897 3.4749,-20.8185 7.7227,-27.6205 6.0188,-9.6365 5.9358,-16.2922 -0.3751,-30.1471 -7.0668,-15.5098 -6.3853,-20.1007 5.3298,-35.9461 11.2335,-15.1948 12.1289,-20.2487 5.473,-30.9069 -10.6143,-16.9946 -0.2205,-26.4693 11.4824,-10.4668 11.324,15.4858 11.7255,30.7893 1.0876,41.4656 -4.4457,4.4622 -8.4202,23.2326 -8.8311,41.712 -1.0452,46.9696 -7.9631,69.0809 -29.3011,93.6431 -10.1496,11.6832 -18.4539,28.4165 -18.4539,37.1851 0,10.4048 -3.6493,15.9424 -10.5087,15.9424 -8.227,0 -9.6662,-4.2119 -6.6286,-19.4009 2.1338,-10.6706 2,-19.4009 -0.2978,-19.4009 -10.0083,0 -27.8317,22.591 -27.8317,35.2773 0,7.6298 -3.4439,17.3153 -7.653,21.524 -12.2957,12.2964 -4.261,13.388 31.0654,4.221 34.7967,-9.0292 78.6054,-39.9633 104.0451,-67.155 19.7753,-21.136 29.6347,-59.2193 24.3021,-105.4344 -5.8152,-50.4022 -15.9526,-53.6578 -15.9526,-5.1224 0,40.8344 -17.5048,116.6895 -26.9288,116.6895 -6.7246,0 -7.0564,2.6682 4.3637,-34.9793 5.2968,-17.4602 9.67,-50.9268 9.719,-74.3702 0.1546,-75.8324 11.225,-90.936 32.4207,-44.2413 12.3899,27.2959 12.4766,27.347 12.618,7.4319 0.1876,-26.6381 -12.1082,-60.7844 -21.8893,-60.7844 -4.3072,0 -13.4804,-4.1854 -20.3851,-9.3002 -12.4182,-9.2006 -12.4163,-9.4023 0.1357,-18.701 10.8622,-8.0468 11.4315,-10.9169 3.9547,-19.9261 -6.5145,-7.8489 -14.5275,-9.4385 -31.5178,-6.2516 -23.9976,4.5024 -23.4727,5.775 -10.6303,-25.8046 2.2262,-5.4737 -5.1714,-14.0204 -19.4011,-22.4159 -22.1938,-13.095 -22.9977,-13.1383 -22.9977,-1.2358 0,6.7838 -2.9905,14.1821 -6.6455,16.4409 -9.9282,6.136 -48.4524,-19.0355 -47.4864,-31.0272 0.5891,-7.3291 -7.7255,-12.2291 -28.1493,-16.5852 -28.4405,-6.0654 -51.7596,-2.8164 -76.6027,10.6737 -6.8707,3.7308 -17.584,8.3599 -23.8082,10.2858 -21.2352,6.5724 -12.7302,18.6177 9.7001,13.7404 46.4383,-10.0989 125.5122,-0.065 143.8597,18.3158 15.3814,15.3811 7.7802,20.5618 -15.8216,10.785 -12.7811,-5.2938 -27.8949,-6.2976 -43.8597,-2.9134 -13.3975,2.8403 -34.0823,5.3973 -45.9652,5.6819 -13.4069,0.3234 -25.0589,5.2397 -30.7015,12.958 -6.1159,8.3617 -17.2231,12.5705 -33.8929,12.8415 -20.1108,0.3233 -29.2209,5.0946 -48.2074,25.2281 -102.6625,61.6458 -24.7884,250.6697 78.4773,275.845 13.7236,-0.065 39.7636,-38.1901 39.7636,-58.23 0,-14.3502 10.0168,-27.3358 61.7604,-80.065 35.7288,-36.4098 33.7816,-58.8113 -3.4401,-39.5637 -15.945,8.2454 -18.9346,13.0718 -15.8093,25.5226 3.0612,12.1973 0.7493,16.2988 -11.2458,19.948 -8.3033,2.5267 -24.5556,11.6794 -36.1152,20.3399 -11.5606,8.66 -21.0185,12.729 -21.0185,9.0415 0,-3.6875 11.6407,-14.4077 25.8685,-23.823 18.4408,-12.2032 25.8676,-21.6514 25.8676,-32.9065 0,-12.3617 5.6907,-18.1406 26.2182,-26.6253 19.7319,-8.1562 27.1578,-15.3719 30.0192,-29.1692 2.1554,-10.3977 9.702,-20.5657 17.4341,-23.492 18.6868,-7.0723 26.7139,-0.8763 12.4136,9.5815 -6.4325,4.7027 -9.8632,10.3821 -7.6248,12.621 2.2384,2.2382 8.883,-0.7419 14.7641,-6.6236 8.0979,-8.0979 8.931,-12.8175 3.4335,-19.4423 -5.6361,-6.7903 -2.2837,-13.873 14.9799,-31.6493 12.2335,-12.5956 24.1296,-22.9014 26.4387,-22.9014 7.6455,0 4.3487,17.6911 -4.6955,25.1972 -4.8905,4.0586 -8.8914,15.1501 -8.8914,24.6475 0,12.079 -7.0461,22.9203 -23.4425,36.0748 -18.0657,14.4918 -23.4435,23.512 -23.4435,39.3159 0,14.3619 -4.4844,23.3814 -14.9582,30.0908 -26.7234,17.1182 -67.1166,67.1538 -75.6027,93.6522 -4.556,14.2274 -12.2354,31.6087 -17.0638,38.624 -12.0337,17.4816 -11.1138,21.4419 5.7699,24.8487 34.481,6.9572 46.5448,1.8897 59.8198,-25.1248 z m -123.1248,-16.1209 c -4.426,-7.1615 14.2334,-31.9274 24.0542,-31.9274 3.097,0 1.1168,8.7303 -4.4015,19.4009 -10.996,21.2647 -13.3324,22.7534 -19.6527,12.5265 z m -76.3153,-94.4825 c -9.0177,-9.0182 -3.6163,-20.2778 11.5559,-24.0856 8.7048,-2.1846 30.9683,-18.4897 49.475,-36.2338 18.5067,-17.7441 42.8229,-34.795 54.0348,-37.8907 11.2128,-3.0958 28.6601,-13.2974 38.774,-22.6699 l 18.387,-17.0412 h -17.9865 c -10.8791,0 -23.9081,6.3888 -32.9701,16.1675 -8.2411,8.8921 -21.6707,16.051 -29.8439,15.9087 -14.5436,-0.2522 -14.4974,-0.4527 2.1583,-9.5052 9.3598,-5.0856 18.6481,-13.4959 20.6405,-18.6895 2.0292,-5.2874 16.502,-11.3741 32.8891,-13.8316 21.2211,-3.1823 30.3887,-7.9266 33.3509,-17.2601 3.1677,-9.9799 8.3636,-12.244 23.1315,-10.0763 10.4758,1.5372 20.5463,0.3687 22.3775,-2.5932 1.8322,-2.9639 10.6765,-5.389 19.6547,-5.389 27.0164,0 14.4135,14.5139 -33.693,38.8017 -26.1296,13.1927 -47.494,28.7044 -51.2149,37.1852 -4.2902,9.7793 -11.9564,14.5506 -23.3803,14.5506 -21.7046,0 -83.4075,49.2454 -83.4075,66.5672 0,9.9404 -3.4042,11.8941 -16.3983,9.4101 -11.21,-2.1432 -19.0656,0.6745 -24.8318,8.905 -4.638,6.6222 -10.3542,10.1189 -12.7029,7.7701 z m 209.1402,-157.3221 c 0,-3.5567 -4.3646,-6.4668 -9.7001,-6.4668 -5.3354,0 -9.701,2.9101 -9.701,6.4668 0,3.5568 4.3656,6.4669 9.701,6.4669 5.3355,0 9.7001,-2.9101 9.7001,-6.4669 z m -226.3444,104.0905 c 0,-9.5226 25.1965,-24.4032 50.1197,-29.5994 11.5597,-2.4102 21.0175,-7.5457 21.0175,-11.4129 0,-3.8672 1.8699,-5.1613 4.1545,-2.8758 7.1648,7.164 -11.5276,23.8682 -26.7092,23.8682 -7.9763,0 -22.1711,6.0318 -31.5432,13.4036 -9.3712,7.3716 -17.0393,10.349 -17.0393,6.6163 z m 40.5318,-126.5217 c 15.7264,-19.7087 19.8846,-21.6753 34.2679,-16.2069 13.0903,4.9763 20.2108,3.3842 35.5404,-7.9499 11.8037,-8.7272 27.8401,-13.9273 41.7334,-13.5335 27.301,0.7742 35.9559,-9.0234 13.0497,-14.7726 -9.849,-2.4717 -25.2568,0 -38.2896,6.2122 -17.731,8.4143 -25.7752,8.9653 -43.0378,2.947 -20.5227,-7.1537 -22.0524,-6.4502 -45.854,21.0838 -23.1305,26.7585 -31.2077,44.6517 -20.157,44.6511 2.6673,0 12.9036,-10.0941 22.747,-22.4312 z m 229.3255,-72.5377 c 1.2563,-3.7702 -4.2554,-8.5661 -12.2486,-10.6563 -18.5039,-4.8385 -21.9487,-1.3089 -10.899,11.1647 9.4475,10.6653 19.4964,10.4447 23.1476,-0.5109 z" fill="#00B894" transform="translate(-1.2543073,-221.20202) matrix(0.26458333,0,0,0.26458333,-1630.7229,-1060.0662)"/>
</svg>