<?xml version="1.0" ?><svg height="66.247147mm" viewBox="0 0 143.84372 66.247147" width="143.84372mm" xmlns="http://www.w3.org/2000/svg">
    <path d="m 5401.7177,2120.7402 c -2.8334,-5.676 -0.9827,-26.488 0.8226,-29.5111 1.8052,-3.0231 18.5094,-9.9535 27.2386,-10.735 8.7291,-0.7815 37.5674,4.8945 40.1267,5.9433 2.5593,1.0488 7.3467,2.0541 7.3467,2.0541 0,0 7.8263,-5.3034 14.7047,-7.0926 6.8781,-1.7891 21.1143,-1.5629 28.9981,4.7095 7.8835,6.2724 11.8824,14.4779 13.4593,24.1846 1.5767,9.7068 -7.8152,21.5113 -22.9425,23.7529 -15.1276,2.2416 -29.7524,-6.293 -29.7524,-6.293 0,0 -5.6441,7.3624 -21.2286,9.131 -15.5845,1.7686 -31.4203,-2.2622 -41.0864,-6.3752 -9.666,-4.1131 -17.6868,-9.7685 -17.6868,-9.7685 z" fill="#FFFFFF" paint-order="markers stroke fill" transform="translate(-143.70265,-119.7137) translate(-5250.8987,-1955.4374)"/>
    <path d="m 27007.328,9110.4961 c -23.361,-0.098 -50.65,7.9189 -75.144,24.7715 l -15.125,10.4062 -14.524,-7.1855 c -10.393,-5.1424 -24.997,-7.9144 -51.363,-9.752 -25.101,-1.7484 -42.27,-5.3698 -55.192,-10.5742 -16.447,-6.6247 -22.623,-7.3253 -46.542,-5.2715 -15.169,1.3025 -32.813,4.5553 -39.211,7.2285 -6.399,2.6733 -15.046,4.8614 -19.217,4.8614 -15.017,0 -47.495,16.5316 -60.721,29.1133 -10.948,10.4148 -13.486,15.2347 -13.486,25.6035 0,7.025 -2.386,17.3887 -5.303,23.0293 -7.658,14.807 -6.915,42.9743 1.74,65.9863 9.468,25.1732 28.72,49.0388 58.051,55.8809 11.812,2.756 24.039,7.2516 27.17,9.9921 7.868,6.886 27.16,16.4719 43.623,21.6778 8.525,2.6967 34.511,4.4501 68.061,4.5937 60.077,0.2551 80.536,-1.5737 104.902,-20.9336 19.316,-15.3483 19.6,-15.3786 39.576,-4.1054 15.88,8.9624 23.818,10.9866 49.67,12.6621 25.784,1.6701 34.897,0.7472 56.242,-5.6973 26.078,-7.8735 53.468,-25.9578 68.701,-43.5137 16.604,-19.1361 20.735,-30.1526 20.641,-55.6406 -0.04,-21.7187 -1.485,-26.8324 -14.098,-50.0508 -24.936,-45.9035 -42.24,-66.2704 -74.086,-71.8066 -7.497,-1.304 -20.614,-4.6684 -29.148,-7.4766 -7.536,-2.4804 -16.076,-3.7605 -25.217,-3.7988 z m -2.156,27.4394 c 8.425,-0.085 16.931,1.0643 25.801,3.418 6.857,1.8195 18.24,4.2084 25.297,5.3086 16.999,2.6513 30.748,14.7818 49.75,43.8906 22.674,34.735 27.517,57.6481 16.636,78.6895 -2.892,5.5944 -6.595,10.1719 -8.228,10.1719 -4.104,0 -6.609,-19.5382 -3.194,-24.918 1.533,-2.4136 2.838,-12.7146 2.838,-22.8887 0.05,-16.5921 -1.142,-19.6137 -11.549,-29.3086 -6.381,-5.9455 -13.238,-13.9616 -15.236,-17.8144 -1.998,-3.8529 -15.783,-13.0944 -30.635,-20.5352 -23.129,-11.588 -30.219,-13.5195 -49.416,-13.5195 -28.209,0.01 -52.424,6.6935 -64.373,17.7676 -8.89,8.2397 -9.449,8.3271 -13.933,2.1933 -4.14,-5.6606 -3.776,-6.6436 3.197,-8.6191 4.329,-1.2272 17.959,-7.0662 30.285,-12.9766 14.903,-7.1445 28.718,-10.7168 42.76,-10.8594 z m -267.393,2.2305 c 5.534,0 12.678,0.5522 22.922,1.5293 17.069,1.6282 41.119,5.3185 53.445,8.2012 12.328,2.8807 20.161,-0.2267 27.747,-0.057 7.585,0.1728 16.896,1.6469 20.689,3.2774 6.355,2.7284 6.219,2.9993 -1.725,3.4316 -26.033,1.4151 -38.863,3.5194 -50.15,10.3887 -10.547,6.4203 -16.104,13.2176 -29.676,21.2461 -18.898,11.1806 -25.325,29.2594 -28.109,64.8418 -2.397,30.6429 -1.544,42.5043 6.637,50.6836 4.654,4.6552 5.036,8.1669 6.144,14.998 1.807,11.136 1.237,12.3929 -5.525,12.17 -11.1,-0.3686 -62.298,-17.5065 -82.256,-27.9278 -36.976,-19.3092 -45.416,-37.7137 -41.465,-90.4101 1.544,-20.6045 2.623,-32.4432 15.754,-41.8282 13.776,-9.8453 35.337,-18.4733 45.457,-18.7265 3.26,-0.084 11.795,-3.0997 18.965,-6.7012 7.172,-3.6028 11.923,-5.1208 21.146,-5.1172 z m 19.907,10.0195 c -3.419,-0.082 -7.286,1.516 -8.288,4.5215 -1.051,3.1571 1.027,4.2377 6.61,3.4492 4.477,-0.6326 7.748,-2.7041 7.279,-4.5996 -0.557,-2.227 -2.943,-3.3073 -5.601,-3.3711 z m 247.607,16.8926 c 6.336,0.066 11.481,1.6317 19.795,3.4922 18.257,4.0849 39.87,15.051 44.873,24.5879 4.428,8.4404 6.952,12.8594 13.877,18.6738 17.841,14.8585 7.393,26.7037 6.197,45.42 -6.713,52.1786 -6.518,49.2316 -20.25,56.0234 -15.211,7.5239 -33.666,12.4868 -62.549,9.2754 -20.273,-2.2538 -52.851,-11.8209 -59.517,-17.4766 -1.443,-1.2245 0.57,-11.4409 4.474,-22.7031 5.857,-16.8945 12.657,-23.4122 10.741,-44.7481 -1.304,-14.5152 -5.293,-31.7373 -9.094,-39.2578 -8.178,-16.1835 -15.061,-15.2749 24.508,-27.7851 13.081,-4.1352 20.609,-5.568 26.945,-5.502 z m -158.803,6.4746 c 21.432,-0.1481 49.747,6.211 60.754,16.2012 16.367,14.8558 22.22,8.6914 30.285,24.3613 9.076,17.633 8.337,27.7734 -4.855,66.5567 -11.934,35.0899 -19.853,45.0784 -41.024,51.7519 -10.233,3.2255 -29.487,5.6016 -45.402,5.6016 -32.552,0 -43.507,-5.6119 -62.434,-31.9824 -8.696,-12.1108 -12.062,-19.7799 -8.462,-49.041 2.834,-27.4984 2.002,-42.0857 17.99,-52.6543 11.72,-7.7473 24.354,-17.0895 27.23,-22.8809 2.679,-5.3943 13.059,-7.8252 25.918,-7.9141 z m 162.264,6.3477 c -10.193,-0.038 -10.278,9.2891 -4.752,12.3535 7.073,3.9224 29.507,17.1671 32.008,14.4023 2.5,-2.7647 4.529,-15.8415 -16.217,-24.1757 -4.538,-1.8233 -8.185,-2.5691 -11.039,-2.5801 z m -340.672,16.7558 c -6.817,0 -10.067,10.1947 -5.144,16.127 3.518,4.2384 4.767,4.2135 9.152,-0.1719 5.826,-5.8254 3.282,-15.9551 -4.008,-15.9551 z m 202.412,12.7891 c -0.842,0 -1.911,0.4385 -3.224,1.3985 -11.486,8.3943 -23.587,15.312 -13.915,19.8203 9.673,4.5082 12.013,-1.4777 16.504,-8.1621 3.649,-5.4312 4.284,-13.1134 0.635,-13.0567 z m -59.463,7.1973 c -2.978,-0.038 -7.365,2.0953 -10.896,7.2109 -1.283,5.6788 6.239,6.6156 8.56,5.461 2.323,-1.1543 6.762,-11.3262 3.989,-12.3868 -0.477,-0.1814 -1.034,-0.2794 -1.653,-0.2832 z m -161.279,8.0742 c -3.181,-0.1185 -4.559,1.876 -4.559,6.4199 0,5.1935 1.799,7.0563 6.034,6.2403 3.318,-0.6399 6.033,-3.4468 6.033,-6.2403 0,-2.7919 -2.715,-5.6022 -6.033,-6.2402 -0.53,-0.1019 -1.021,-0.1628 -1.475,-0.1797 z m 409.162,1.959 c -3.671,0 -7.674,0.8939 -10.185,4.8008 -4.468,6.9456 2.786,12.8594 11.216,10.416 8.431,-2.4435 9.715,-14.7246 6.073,-14.7246 -1.595,0 -4.249,-0.5058 -7.104,-0.4922 z m -388.912,7.9668 c -2.287,0.04 -4.121,0.9016 -4.121,2.6992 0,1.5179 1.861,4.6224 4.137,6.8984 4.82,4.8201 11.666,-0.161 8.117,-5.9062 -1.504,-2.4326 -5.193,-3.7426 -8.133,-3.6914 z m 147.09,7.6328 c -1.326,0.038 -2.708,1.1958 -4.117,4.0312 -5.636,11.3413 -4.093,15.2158 4.716,21.5118 8.81,6.2955 11.605,-0.155 8.877,-8.8536 -2.045,-6.5257 -5.5,-16.7635 -9.476,-16.6894 z m -158.463,12.998 c -5.642,0 -7.54,10.1576 -2.934,15.7071 v 0 c 4.836,5.8247 14.055,5.4523 16.088,-0.6543 1.439,-4.3222 -7.938,-15.0547 -13.154,-15.0547 z m 349.234,19.1036 c -1.406,0 -3.096,0.7404 -5.076,2.4941 -9.052,8.0156 -25.577,13.8238 -14.574,16.9101 11.003,3.0864 22.148,-0.8348 24.363,-6.1718 1.731,-4.1692 0.31,-13.2721 -4.713,-13.2324 z m -203.931,0.09 c -0.314,0 -0.653,0.054 -1.02,0.1406 -5.873,1.3992 -9.838,9.87 -0.793,21.2539 15.197,19.1271 25.495,4.9892 14.352,-5.0605 -8.61,-7.7643 -7.832,-16.4318 -12.539,-16.332 z m 252.396,2.2988 c -0.846,0 -1.7,0.359 -2.439,1.0567 -3.381,3.1891 -12.52,15.6433 -21.901,16.4804 -9.38,0.8368 -0.599,12.8535 7.969,10.7207 8.568,-2.1331 15.88,-9.2738 19.486,-17.6972 2.818,-6.5809 -0.09,-10.626 -3.115,-10.5606 z m -143.961,11.084 c -5.436,-0.1172 -19.107,13.1612 -26.937,13.1113 -9.59,-0.06 -15.672,5.134 -8.957,10.9473 8.615,7.4585 44.131,3.5607 37.679,-23.1133 -0.398,-0.6414 -1.008,-0.9287 -1.785,-0.9453 z m -192.799,5.5918 c -2.281,0.109 -4.552,0.9664 -6.324,2.7383 -2.536,2.5353 -2.262,5.2695 0.91,9.0918 v 0 c 6.001,7.2314 15.514,5.1151 15.514,-3.4512 0,-5.2371 -5.082,-8.6188 -10.102,-8.3789 z" fill="#00B894" transform="translate(-143.70265,-119.7137) translate(-5250.8987,-1955.4374) matrix(0.26458333,0,0,0.26458333,-1644.9602,-335.33406)"/>
</svg>