<?xml version="1.0" ?><svg height="190.26836mm" viewBox="0 0 64.804703 190.26836" width="64.804703mm" xmlns="http://www.w3.org/2000/svg">
    <path color="#000" d="m 3126.0676,5524.4662 c -13.264,-59.5711 -46.6792,-286.6068 -8.4175,-368.3305 17.9865,-34.8713 85.1885,-103.3943 62.5132,-161.9809 -9.3352,-3.9813 -27.2206,-38.2798 2.6454,-67.4859 -14.0254,-69.8979 0.075,-81.8779 40.5886,-76.7318 58.9215,7.4844 47.7481,14.6974 39.6729,66.8916 30.6993,15.9047 36.7358,45.1824 -4.4896,74.8268 -2.0813,1.4081 -21.9347,71.752 24.6906,120.5125 41.5301,43.4317 48.7717,120.6411 46.9861,202.0204 -1.7855,81.3793 32.7256,246.6824 -107.8978,245.745 -87.0731,-0.5804 -87.3636,-17.4165 -96.2919,-35.4672 z" fill="#FFFFFF" overflow="visible" paint-order="fill markers stroke" transform="translate(-49.46468,175.00449) matrix(0.26458333,0,0,0.26458333,-770.19661,-1456.4436)"/>
    <path d="m 3227.4348,4843.2396 c -2.2518,-0.019 -4.5046,0.016 -6.749,0.087 -9.8213,0.2582 -22.1195,0.9571 -33.5665,3.9538 -7.9339,1.1646 -15.1827,11.4634 -13.9157,15.0685 -1.1267,20.1315 3.5103,38.5436 6.6851,57.8989 -5.2112,2.3102 -9.3263,3.1915 -15.5367,9.3913 -3.9324,12.0083 -6.4868,18.5022 -5.7392,31.9921 0.8945,17.8237 2.1542,21.0257 10.0082,25.421 3.6968,2.0488 9.6095,2.3997 11.5423,7.1029 1.4352,5.719 -0.4592,41.2638 -2.8415,53.3105 -3.2746,16.4013 -10.0668,40.4746 -24.9299,52.5252 -3.0225,1.3772 -7.3836,5.0316 -17.1247,14.3489 -6.1823,5.9131 -13.7607,17.78 -16.527,25.8815 -8.6971,25.4684 -9.5729,28.4697 -9.9329,34.0135 -0.1179,1.8158 -1.2137,9.8378 -2.4353,17.8269 -15.0584,103.2058 -9.6698,222.2234 13.7995,324.3836 3.0761,11.2545 4.3659,13.8132 11.0433,21.9046 4.9184,5.96 9.5744,10.1009 13.3198,11.8479 45.5638,20.268 93.8499,12.2314 143.5921,-2.5283 16.5677,-4.9161 26.6554,-24.0521 32.7697,-35.1916 30.495,-60.5276 21.3397,-153.9432 18.2525,-228.6413 -1.3305,-10.7832 -1.9362,-17.2144 -3.9848,-42.2556 -1.4067,-17.1936 -2.6949,-31.3296 -3.3677,-36.975 -2.0881,-17.6605 -6.2702,-34.5002 -11.6466,-51.765 -4.3089,-22.443 -12.0876,-31.8638 -28.7598,-52.7632 -0.7262,-1.0576 -5.3322,-6.1706 -10.2346,-11.3622 -9.8944,-10.5422 -16.0657,-23.7952 -18.883,-40.0255 -0.9722,-7.3283 -3.8176,-43.2111 -0.2322,-54.3511 1.7681,-5.4938 2.5967,-6.3985 6.8649,-7.4898 2.6697,-0.6828 6.382,-1.2137 8.25,-1.18 3.5912,0.065 12.4742,-4.9193 15.7707,-8.8494 3.116,-3.7138 4.924,-25.78 3.0853,-37.6365 -2.9903,-15.6009 -6.986,-23.5901 -19.1229,-27.2434 -3.6122,-1.0728 -6.8718,-2.741 -7.2422,-3.7063 -0.3704,-0.9652 0.216,-3.8811 1.3018,-6.48 2.4915,-5.9629 4.9287,-22.7078 5.2015,-35.7408 0.093,-4.4333 -0.6309,-5.8063 -5.1028,-9.6834 -12.1483,-10.2684 -27.8488,-12.9557 -43.6117,-13.0877 z m -8.6504,7.4182 c 13.0349,0.065 27.5517,2.2117 38.5941,6.6038 4.1733,1.0189 3.1159,5.5341 -1.0581,6.1725 -3.5934,0.5416 -19.879,2.3295 -33.6092,2.917 -33.1552,0.3563 -38.3007,-5.5984 -36.1007,-8.0914 1.3167,-6.4484 15.4149,-7.6863 32.1739,-7.6019 z m -34.5125,19.5446 c 1.0489,-0.2424 8.0263,10.5027 51.1788,7.1765 10.0162,-0.7722 19.7659,-1.8092 27.4967,-4.8668 4.3764,-1.2012 -1.4774,52.1368 -12.7551,53.7129 -14.5465,3.5568 -29.2469,2.6829 -43.2442,0.4817 -10.0455,-1.6009 -17.0111,-6.1446 -17.0299,-11.1052 -0.01,-2.4556 -0.6627,-4.7317 1.1606,-3.9654 4.9184,2.0673 8.4388,1.96 14.1923,0.2611 15.3992,-4.6954 12.5758,-24.8609 -0.5068,-27.1698 -4.3737,-2.2692 -11.5273,-3.4443 -15.467,-0.6847 -3.3731,2.3625 -5.4384,-8.718 -5.1937,-13.3837 0.015,-0.288 0.059,-0.4315 0.1683,-0.4566 z m 44.8342,11.817 c -1.6665,0.1042 -3.5306,0.774 -5.3466,2.6094 -9.9961,7.2552 0.2001,27.3971 14.0453,20.4885 5.7364,-2.8622 4.9756,-6.3582 -0.9304,-7.2595 -4.7954,-0.7319 -6.302,-3.1301 -3.743,-5.9578 3.0633,-3.3849 3.1911,-6.739 0.1394,-9.0837 -1.0287,-0.4386 -2.4982,-0.901 -4.1647,-0.7969 z m 20.4228,2.739 v 0.01 c -3.3611,0.1797 -5.4317,3.4641 -5.4317,7.6387 0,2.9977 2.2916,4.7644 4.0525,6.6387 3.353,3.5692 5.8664,2.85 8.6136,-2.4625 1.9274,-3.7272 2.3098,-6.4682 -0.2437,-9.0217 -1.4967,-1.4967 -4.0982,-2.6369 -6.3001,-2.7893 -0.2353,-0.016 -0.4666,-0.018 -0.6906,-0.01 z m -51.9468,7.2769 c 5.2827,0.043 10.2918,2.0927 8.6755,6.4994 -0.4477,1.1668 -1.3881,2.1809 -3.7622,3.6482 -4.6477,2.8725 -7.5831,3.1828 -12.258,1.3038 -2.3058,-0.927 -2.9712,-2.254 -2.9712,-5.9249 -0.5235,-3.6096 5.0333,-5.5696 10.3159,-5.5265 z m 27.4579,18.8463 c -0.6398,-0.02 -1.4576,0.043 -2.5107,0.149 -0.3,0.029 -0.4298,0.032 -0.6905,0.057 -5.4804,0.9594 -7.4928,6.8131 -4.9617,10.8188 4.1456,1.8179 10.5849,2.8379 11.6138,-4.5284 -0.022,-3.7394 -0.8584,-6.3687 -3.4509,-6.4936 z m 41.7122,7.9812 c 6.978,1.7514 11.9069,10.7418 6.1571,13.8191 -8.7045,2.6838 -37.7675,10.4432 -41.0197,7.2306 34.576,-6.5648 31.0763,-9.1335 32.3848,-11.935 0.8374,-4.7383 1.4232,-9.3793 2.4778,-9.1147 z m -83.9737,10.8518 c 1.2626,4.4086 4.8102,6.7858 16.7379,7.7354 2.3405,0.4257 9.3072,1.1393 15.4805,1.5843 6.1735,0.445 10.547,1.248 9.7202,1.7854 -4.8296,1.9786 -47.9157,4.33 -48.6759,-2.7894 0.099,-3.2736 4.0362,-6.22 6.7373,-8.3157 z m 99.6691,9.8091 c 0.079,-0.01 0.1555,2e-4 0.2301,0.02 0.3584,0.082 0.6777,0.4347 1.0562,1.0329 3.1148,4.9235 -0.099,24.1949 -5.0352,30.1893 -2.4542,2.9806 -14.3214,6.0717 -28.7095,7.4783 -4.3577,0.4257 -9.7057,1.0273 -11.8846,1.3363 -20.09,2.4236 -57.9534,3.3904 -64.7308,-2.8065 -3.0949,-5.5251 -3.2749,-8.2266 -3.2749,-17.9082 v -10.37 l 3.6115,1.3714 c 7.4355,2.827 28.5065,4.6498 40.6483,3.5148 22.1568,-2.0615 45.3516,-2.5733 65.7638,-11.8808 1.0974,-1.2945 1.7732,-1.9267 2.3251,-1.973 z m -36.2361,50.3952 c 1.1529,-0.02 2.1216,0.2177 2.3792,0.6345 0.3436,0.5558 -0.8009,5.225 -2.5436,10.3758 -7.0024,21.0353 -0.8586,47.7141 7.1686,69.3133 4.5731,11.4752 7.3647,15.8632 18.181,28.578 26.8668,31.7813 33.7556,42.6148 42.393,88.2332 3.4356,16.4909 3.9095,29.6772 5.5225,55.8463 0.6939,11.2575 1.8857,26.1121 2.6481,33.0117 5.8076,52.5603 -2.3051,162.2051 -6.7876,190.7726 -2.5593,16.5721 -0.4234,26.4979 -11.5113,42.2035 -2.074,3.6415 -7.1255,9.9114 -11.2249,13.9311 -6.1438,6.0248 -9.6565,8.1587 -19.9973,12.1497 -23.7874,9.108 -39.562,11.8654 -68.0057,10.1959 -28.2925,-1.4086 -36.4096,-2.4285 -48.6719,-6.1067 -9.6276,-2.8885 -11.9506,-4.1067 -13.1245,-6.8882 -0.7847,-1.8586 -2.7581,-4.8654 -4.3851,-6.6812 -1.8795,-2.097 -4.2079,-8.3573 -6.3854,-17.1655 -16.5347,-66.8549 -12.8561,-152.39 -16.5309,-226.4689 -0.1727,-18.157 0.1666,-37.7666 0.7564,-43.577 0.5897,-5.8101 1.4603,-15.3166 1.9343,-21.1269 2.7891,-32.8337 13.0764,-74.1806 38.1201,-101.6884 15.0853,-12.2095 17.8852,-15.4604 24.3206,-28.2453 3.526,-7.0052 6.7677,-14.5045 7.2054,-16.6683 0.4374,-2.1638 1.4201,-6.9087 2.1819,-10.5401 3.6224,-17.268 4.6675,-28.0135 4.5844,-47.1051 l -0.091,-20.6937 16.6354,-0.12 c 15.1644,-0.107 26.2002,-0.774 34.0327,-2.06 0.4056,-0.066 0.8112,-0.1037 1.1955,-0.1103 z m -75.4878,130.2839 c -2.0913,-0.055 -5.0926,0.9262 -7.3988,3.1452 -18.5753,17.8729 -26.5808,49.0208 -27.5393,55.4209 -0.737,4.3094 -1.3405,12.1419 -1.3405,17.4052 0,8.9171 0.2025,9.5972 2.9711,9.9947 2.2412,0.322 3.1788,-0.3864 3.8184,-2.8802 2.7433,-10.694 5.1229,-22.8415 5.8843,-30.0462 1.2248,-11.1366 12.7119,-32.6278 21.7923,-41.5632 1.5576,-0.9489 6.1169,-9.6558 3.5399,-11.0838 -0.4359,-0.2416 -1.0303,-0.3744 -1.7274,-0.3926 z m 120.2195,76.5536 c -2.7763,-0.061 -5.2401,5.2622 -4.9461,16.4961 0.4905,9.7661 0.921,28.376 1.3947,48.3449 -15.2985,-5.9927 -33.8142,-8.1589 -47.2155,-8.3466 -44.7185,-0.1776 -30.0697,0.3497 -44.6736,1.6867 -14.604,1.337 -28.2151,3.4658 -39.1434,6.7238 -10.7503,3.205 -19.8417,6.8679 -23.5254,15.7069 -0.033,0.071 -0.064,0.1414 -0.095,0.2128 -0.03,0.075 -0.068,0.143 -0.097,0.2186 -0.026,0.072 -0.052,0.1427 -0.075,0.2147 -0.016,0.044 -0.032,0.09 -0.046,0.1334 -0.2679,0.7709 -0.3975,1.5827 -0.3831,2.3986 -0.1641,2.1425 -3.4219,45.2637 -3.0639,94.1349 0.1835,25.0569 0.5247,49.0737 3.5939,72.1065 3.0693,23.0327 8.4164,44.9849 17.6161,57.4964 17.3945,23.6567 49.412,30.514 78.896,27.6901 29.4842,-2.8238 57.7538,-14.7015 69.0639,-35.2263 0.11,-0.1999 0.21,-0.4053 0.2998,-0.6151 19.7655,-62.0876 23.1075,-143.0287 16.6973,-204.1738 -0.645,-9.9044 -6.0925,-17.42 -14.0376,-23.0807 -1.5554,-20.4279 -3.2216,-39.7979 -3.4393,-56.3009 -0.9553,-10.3122 -4.0442,-15.7592 -6.8204,-15.821 z m -56.2024,70.3598 c 16.1313,0.01 26.7853,1.1525 37.7796,2.6868 4.9674,0.8711 10.5107,2.9451 15.2059,5.6115 0.1742,7.0097 0.3564,13.8147 0.5591,20.7207 -2.0949,0.6282 -4.5126,1.1936 -7.3679,1.6654 -3.4441,0.4646 -36.7786,6.1263 -68.9052,5.3582 -17.0088,-0.4066 -34.0684,-2.2754 -46.4049,-6.4084 -6.1683,-2.0666 -11.091,-4.6922 -14.3161,-7.5789 -2.5434,-2.2763 -4.0834,-4.5597 -4.8436,-7.3214 1.806,-1.6234 6.4244,-4.6812 13.8731,-6.9017 9.455,-2.8188 22.4138,-4.9189 36.445,-6.2035 12.2773,-1.1239 25.4285,-1.6361 37.975,-1.6287 z m 71.7042,34.1469 c -4.5233,63.5478 2.9034,133.5206 -20.5273,189.0473 -7.4825,13.166 -31.8728,25.3539 -58.0612,27.8622 -89.6045,7.3157 -83.8632,-84.0195 -84.9176,-143.592 -0.2292,-31.2802 0.8685,-55.6894 1.8491,-72.9363 4.7242,3.529 10.2754,6.1968 16.4149,8.2538 14.7006,4.9251 32.725,6.6977 50.4786,7.1222 22.2726,0.5324 55.7673,-1.5472 77.0469,-7.3834 0.549,15.7799 1.2045,29.8473 2.0756,38.3658 0.1288,22.7018 7.6601,39.8367 12.5363,0.7022 0.9174,-14.7021 0.754,-29.9122 0.085,-45.0238 1.1793,-0.77 2.2044,-1.5727 3.0195,-2.418 z m -93.011,152.2851 c -8.8284,0.057 -18.1532,1.8802 -29.9339,5.5883 -9.4217,6.3388 -13.7459,13.3253 -13.9621,22.5544 -0.1248,5.3321 0.3905,7.9302 1.7467,8.8013 3.4637,2.2244 5.4579,0.6848 8.3351,-6.4375 9.662,-23.4746 59.471,-16.9167 82.405,1.3851 0,1.3873 1.5525,2.8367 3.8473,3.6017 3.1452,1.0484 4.1598,0.842 5.6058,-1.1355 6.5635,-8.976 -3.2024,-19.4591 -22.2875,-26.071 -13.875,-5.512 -24.4055,-8.3596 -35.7564,-8.2868 z" fill="#00B894" transform="translate(-49.46468,175.00449) matrix(0.26458333,0,0,0.26458333,-770.19661,-1456.4436)"/>
</svg>