<?xml version="1.0" ?><svg height="170.86432mm" viewBox="0 0 233.01042 170.86432" width="233.01042mm" xmlns="http://www.w3.org/2000/svg">
    <path d="m 1552.916,618.17969 c -0.2445,0.004 -0.4883,0.019 -0.7324,0.0488 -2.9278,0.34733 -5.8455,2.48036 -9.0586,6.80078 -4.2843,5.76045 -15.6306,15.91853 -20.041,18.58008 -3.7951,2.29024 -16.464,7.91224 -21.3281,10.55273 -4.408,3.65688 -3.6617,9.84947 2.9902,13.78203 7.0045,4.14096 14.8272,8.64402 22.5058,7.00873 7.6786,-1.63532 23.5621,-7.74424 27.3721,-8.45638 3.8099,-0.71214 12.3543,-0.12801 19.857,-6.93297 1.9641,-1.78145 6.2415,-9.02717 3.1713,-20.03422 -0.9919,-2.90616 -2.4146,-5.98209 -4.2812,-8.28711 -3.5822,-4.4236 -14.2855,-11.71667 -18.2441,-12.78125 -0.7423,-0.19956 -1.478,-0.29448 -2.211,-0.28125 z" fill="#FFFFFF" transform="translate(30.79393,-12.238929) matrix(10.69918,0,0,10.69918,-4270.5566,-1731.295) scale(0.26458333)"/>
    <path d="m 403.13606,178.92066 c -0.30812,-0.0485 -1.15666,-0.24212 -1.50318,-0.34302 -0.52097,-0.15169 -0.10018,-0.28258 0.60758,-0.18894 1.22319,0.16179 2.06133,-0.009 4.43148,-0.90268 1.8884,-0.71191 4.70824,-1.46495 6.0863,-1.62516 2.088,-0.24285 2.93448,-0.63074 3.78056,-1.73246 0.24792,-0.32287 0.59069,-0.95058 0.76174,-1.39501 0.27327,-0.7101 0.30201,-0.8959 0.23709,-1.533 -0.11071,-1.08688 -0.52831,-2.59954 -0.88829,-3.21796 -0.22374,-0.38434 -0.70839,-0.88142 -1.61813,-1.65945 -0.71437,-0.61095 -1.59306,-1.37057 -1.95266,-1.68814 -0.70096,-0.6189 -0.6262,-0.59553 -2.66436,-0.83137 -0.59572,-0.0978 -1.31107,0.95636 -1.84944,1.62528 -2.45469,3.04965 -3.74468,4.23113 -5.70997,5.22972 -0.42192,0.21439 -1.33116,0.73385 -2.0206,1.15441 -0.68936,0.42056 -1.74903,0.97637 -2.3548,1.23516 -0.60575,0.2588 -1.17665,0.54817 -1.2686,0.64301 -0.0919,0.0948 -0.26003,0.38548 -0.26026,0.75146 -3.9e-4,0.59798 0.023,0.73859 0.14987,1.01738 0.2037,0.44775 -0.0431,0.52703 -0.30748,0.32366 -0.38155,-0.29347 -0.46499,-0.49361 -0.38656,-0.92677 0.0395,-0.21814 -0.15459,-0.61762 -0.1351,-0.77605 0.06,-0.48853 0.54784,-1.01895 1.27639,-1.38752 0.37208,-0.18831 1.40589,-0.72267 2.29736,-1.18744 0.89146,-0.46482 1.65433,-0.84779 1.69525,-0.85107 0.15712,-0.0126 2.41634,-1.56671 3.11391,-2.14203 0.40268,-0.33222 1.63517,-1.64877 2.73885,-2.92582 2.3045,-2.66651 2.51552,-2.84577 2.93215,-2.49092 0.0865,0.0737 0.5174,0.13004 1.00651,0.13164 0.47037,0.001 1.01029,0.0535 1.19975,0.11534 0.526,0.17189 1.14364,0.68 1.46482,1.20502 0.22132,0.36184 0.50729,0.60518 1.21725,1.03595 1.00431,0.60934 1.67595,1.25289 2.15986,2.0695 0.55692,0.93986 0.84272,3.29977 0.57088,4.71517 -0.22682,1.18137 -1.18216,2.64355 -2.09372,3.20454 -0.59212,0.36446 -1.60155,0.64204 -2.86816,0.78878 -1.22125,0.14147 -4.75021,1.07686 -5.95705,1.57896 -1.31282,0.54623 -3.36261,1.06262 -3.88924,0.97983 z m -2.6247,-0.50126 c -0.74972,-0.20173 -1.82715,-0.97825 -1.85594,-1.3376 -0.019,-0.23661 -0.0173,-0.23651 0.55134,0.0397 0.31372,0.15233 0.6936,0.34861 0.84423,0.43617 0.15057,0.0876 0.50222,0.22484 0.7814,0.30497 0.56388,0.16175 0.59803,0.20944 0.34347,0.47973 -0.20605,0.21885 -0.15809,0.2133 -0.6645,0.077 z m 3.11985,-1.78927 c -0.62665,-0.12388 -0.56574,-0.20237 0.2155,-0.2777 0.53908,-0.052 0.9421,-0.16509 1.44071,-0.40457 0.38068,-0.1828 1.01825,-0.42864 1.41674,-0.54641 0.39841,-0.11775 1.38745,-0.45072 2.19769,-0.74 1.22408,-0.437 1.70904,-0.55636 2.86838,-0.70609 1.2825,-0.0607 1.53018,-0.25927 2.59203,-0.88077 1.43654,-0.8408 1.97514,-1.36621 2.31824,-2.26156 0.13918,-0.36338 0.31451,-0.66554 0.38966,-0.67156 0.19112,-0.0153 0.23016,0.66342 0.0737,1.28037 -0.34539,1.36117 -2.8875,2.79506 -5.64283,3.18289 -0.74024,0.10421 -1.55209,0.31553 -2.6004,0.6769 -3.97749,1.37132 -4.4904,1.50257 -5.26941,1.3485 z m -6.03078,-0.0572 c -0.70195,-0.56419 -0.57099,-0.79977 0.15577,-0.28029 0.29655,0.21195 0.56951,0.44884 0.60665,0.52637 0.13657,0.28553 -0.26071,0.15729 -0.76242,-0.24608 z m 3.72453,-0.46612 c -0.34573,-0.17458 -0.66577,-0.54599 -0.56871,-0.65995 0.0643,-0.0755 1.67779,0.58997 1.68688,0.69565 0.0133,0.15886 -0.78338,0.13343 -1.11817,-0.0357 z m 0.28241,-1.24497 c -0.22921,-0.0883 -0.5049,-0.15549 -0.49994,-0.45201 0.007,-0.39646 0.96427,-0.80158 2.04135,-1.26133 0.36407,-0.15543 1.41413,-0.97309 1.68722,-1.139 0.46336,-0.28154 0.30781,-0.44003 1.26512,-0.26068 1.3955,0.26143 2.74189,0.96435 2.60688,1.42279 -0.065,0.22058 -2.1015,1.04056 -4.28563,1.51184 -1.61059,0.34753 -2.23624,0.55985 -2.815,0.17839 z m 3.28025,-0.61338 c 0.62163,-0.12308 2.03367,-0.7427 2.44495,-0.90001 0.4113,-0.15732 0.70381,-0.31866 0.64996,-0.35853 -0.0538,-0.0398 -0.5055,-0.46369 -1.10363,-0.54453 -0.87774,-0.11849 -1.27486,-0.42851 -1.80072,-0.0708 -0.61236,0.41657 -0.8093,0.57973 -1.50451,0.9272 -1.2774,0.63863 -2.37886,1.02748 -2.05981,1.20953 0.30127,0.17194 0.41098,0.32377 1.59084,0.0902 z m -5.84062,0.55229 c -0.44124,-0.11564 -1.03214,-0.50128 -1.0467,-0.68305 -0.007,-0.0827 0.008,-0.15194 0.0318,-0.15387 0.101,-0.008 1.68788,0.72537 1.74878,0.80828 0.0871,0.11856 -0.32894,0.13472 -0.73392,0.0286 z m 0.59986,-1.14885 c -0.16442,-0.16868 -0.0694,-0.27198 0.27572,-0.29962 0.53828,-0.0431 1.18618,-0.49988 4.63498,-2.40014 2.35712,-1.29883 3.68758,-2.33528 4.65735,-3.49011 0.3318,-0.39504 0.77217,-0.70323 1.06487,-0.71108 1.08854,-0.0292 -0.32104,0.80007 -0.72814,1.24055 -1.47858,1.59948 -6.6541,4.86296 -8.81649,5.55927 -0.77689,0.25018 -0.92923,0.26434 -1.08829,0.10113 z m 11.14929,-0.47964 c -1.00145,-0.13598 -3.40591,-1.30297 -3.71993,-1.76479 -0.25482,-0.37474 -0.0618,-0.52095 0.3142,-0.88372 0.37596,-0.36281 0.67648,-0.69666 1.68234,-1.33794 1.96956,-1.25567 2.68474,-2.5983 3.91185,-2.92835 1.03706,-0.27894 2.37799,1.13599 3.1756,2.01182 0.76199,0.83672 0.82936,2.07298 -1.44325,3.66051 -0.38407,0.26828 -0.97962,0.63139 -1.28387,0.80628 -0.74579,0.42882 -1.36658,0.60873 -2.63694,0.43619 z m 2.45837,-0.88903 c 0.59608,-0.3726 2.33657,-1.78118 2.547,-2.3224 0.25085,-0.64502 0.18783,-1.09342 -0.23225,-1.65164 -0.25073,-0.33317 -1.00388,-0.75459 -1.34202,-0.8729 -0.45427,-0.15886 -0.36288,-0.49946 -1.07351,-0.28484 -1.05423,0.31855 -2.39348,1.72966 -4.11053,2.74197 -0.42213,0.24887 -0.81457,0.79622 -1.0426,0.99671 -0.40311,0.35448 -0.0224,0.52894 -0.0224,0.52894 0.057,-0.005 0.27524,0.28252 0.7926,0.46667 1.50494,0.60344 2.93203,1.26697 4.48371,0.39749 z" fill="#00B894" transform="translate(30.79393,-12.238929) matrix(10.69918,0,0,10.69918,-4270.5566,-1731.295)"/>
</svg>