<?xml version="1.0" ?><svg height="78.711372mm" viewBox="0 0 76.972343 78.711372" width="76.972343mm" xmlns="http://www.w3.org/2000/svg">
    <path d="m 2308.507,939.66894 c -3.8254,-2.06552 -11.3837,-7.05027 -14.3217,-12.90254 -2.9376,-5.85224 -7.5125,-17.37775 -8.2468,-20.79273 -0.7344,-3.41497 -3.9936,-11.09863 -2.7847,-15.78043 1.2086,-4.68183 2.494,-11.55306 5.4316,-15.50506 2.9377,-3.95201 6.9924,-7.17418 22.7828,-7.69745 15.79,-0.52326 21.482,0.82619 25.46,3.93822 3.9783,3.11203 10.8789,11.77338 13.4954,15.06442 2.6162,3.29102 -2.7543,17.98365 -4.8811,22.95464 -2.1267,4.97097 -14.9934,21.0852 -23.3793,26.82402 -8.3857,5.73878 -13.5562,3.89691 -13.5562,3.89691 z" fill="#FFFFFF" paint-order="markers stroke fill" transform="translate(26.127742,-25.625518) translate(-2304.2637,-838.0526)"/>
    <path d="m 2302.841,940.80521 c -1.7223,-0.74856 -3.4325,-2.45509 -4.3148,-4.30504 -0.8495,-1.78113 -2.3204,-3.28024 -3.5127,-3.57946 -2.3629,-0.59307 -5.4513,-6.0556 -4.6593,-8.11943 0.3338,-0.87009 -0.3347,-2.20756 -1.767,-3.53482 -1.7246,-1.59844 -2.3038,-2.99652 -2.3038,-5.56185 0,-2.36251 -0.5737,-3.94574 -1.8475,-5.09861 -1.47,-1.33018 -1.7079,-2.99251 -1.3442,-5.7041 0.3888,-2.89973 0.1099,-3.70767 -1.8736,-5.4132 -3.1974,-2.75047 -4.3644,-10.11224 -1.2755,-12.61396 1.5942,-1.29107 1.8206,-2.14564 1.2175,-3.0604 -1.6964,-2.57283 0.6774,-8.99738 3.4604,-9.9213 4.6511,-1.54412 3.1815,-6.41104 13.1351,-8.836 4.2303,-1.03064 10.7729,-0.69878 22.5234,-1.21177 8.5344,-0.37259 10.5047,-0.19213 13.7899,1.26058 2.108,0.93246 4.3662,2.38125 5.1525,4.73201 0.4762,1.42359 1.1211,1.4012 3.9213,2.09775 3.7889,0.94249 7.0879,5.95808 7.0879,8.13522 0,1.12106 0.5318,2.24267 1.1817,2.49226 0.65,0.24952 1.8618,1.88637 2.6929,3.63776 1.6409,3.45793 1.2918,5.99636 -1.2184,8.86091 -0.8487,0.96819 -0.9462,4.96612 -1.2331,6.85126 -0.287,1.88491 -1.2771,4.26163 -2.2006,5.28145 -0.9235,1.02012 -1.9191,3.42973 -2.2126,5.35481 -0.6065,3.97993 -2.8832,7.46336 -5.864,8.97345 -1.1186,0.56672 -2.5479,2.25297 -3.1762,3.74739 -0.6284,1.49419 -2.5469,3.5455 -4.2634,4.55832 -1.7165,1.0126 -3.1209,2.38625 -3.1209,3.05223 0,1.74094 -5.8004,5.89581 -9.9497,6.09516 -1.9543,0.0948 -5.4944,1.48624 -7.1889,2.53501 -4.0257,1.76936 -8.1517,0.51771 -10.8364,-0.70563 z m 6.1559,-8.25274 c -2.2081,-3.84828 -1.9589,-1.86704 -3.7932,-0.96252 -2.2216,1.08661 -3.9951,-0.19291 -0.4317,2.40854 1.277,1.00461 3.0023,1.58246 3.969,1.32972 1.6231,-0.42444 1.6361,-0.56541 0.2559,-2.77574 z m 13.6381,-0.11723 c 4.371,-2.66496 3.8184,-3.5985 -1.3854,-3.09846 -3.5263,0.33886 -5.1381,-0.28552 -6.6412,-1.79015 -1.6394,-1.63938 -1.6594,-1.98437 -4.0577,-0.976 0,0 -2.984,0.64372 -0.3489,2.42399 1.831,1.23702 2.5103,2.18708 5.1159,1.76433 3.3244,-0.53945 3.9956,0.45612 2.0795,2.37091 -1.7808,1.7809 2,1.27963 5.2378,-0.69462 z m -18.7878,-4.27838 c 0.678,-1.09695 -3.6023,-4.5339 -5.6465,-4.5339 -2.1342,0 -2.2562,1.50687 -0.2969,3.6718 1.5014,1.65905 5.126,2.18482 5.9434,0.8621 z m 28.2681,-5.46913 c 0.3964,-1.24936 0.064,-2.22677 -1.0381,-3.06267 -2.2969,-1.74041 -2.7525,-1.57747 -2.2944,0.81969 0.2246,1.16754 -0.3007,3.17598 -1.1778,4.51469 -1.7825,2.67056 -1.9421,2.59873 1.1741,0.98709 1.5146,-0.78321 3.016,-2.24966 3.3362,-3.2588 z m -8.0986,1.24177 c 3.1398,-2.80547 2.0433,-3.23865 -1.6415,-3.23865 -1.3272,0 -2.1022,-1.05308 -2.6098,-1.56064 -1.411,-1.41107 -4.0082,0.36797 -4.0082,2.52986 0,2.46154 1.6904,4.60366 4.1393,4.60366 1.1279,0 2.5826,-0.96065 4.1202,-2.33423 z m -13.4418,-1.64947 c 2.6186,-1.35414 3.4842,-3.05844 1.5536,-3.05844 -0.5742,0 -1.8947,-0.79949 -2.9349,-1.77659 -1.7741,-1.66681 -2.089,-1.69401 -5.0906,-0.43996 -2.4224,1.01213 -3.0694,1.71075 -2.6639,2.87706 1.2953,3.72565 4.7926,4.64368 9.1358,2.39793 z m -12.2264,-3.82112 c 0.3823,-0.99208 0.06,-1.85395 -0.904,-2.42066 -0.824,-0.48429 -1.4884,-0.82402 -2.8761,-1.95638 -2.2883,-1.49712 -2.523,-3.56178 -2.523,-0.13321 0,1.78735 3.4508,6.05085 5.0161,6.05085 0.3812,0 0.9604,-0.69348 1.287,-1.5406 z m 38.6908,-1.05133 c 2.0265,-1.08449 3.5942,-4.63322 2.8749,-6.50737 -1.2749,-3.32249 -7.3648,-2.06137 -7.3898,1.53029 0,1.07221 -0.3825,2.53345 -0.8336,3.24682 -1.47,2.32433 2.0877,3.47543 5.3485,1.73026 z m -12.1221,-0.92378 c 1.1797,-0.53768 2.5641,-1.89713 3.0761,-3.02127 0.8274,-1.816 0.6011,-2.23875 -2.0299,-3.79102 -3.3309,-1.96526 -2.944,-2.05332 -2.9632,1.21293 0,1.25066 -0.3775,2.84933 -0.8222,3.55249 -1.5942,2.52 -0.8317,3.67404 2.7392,2.04687 z m -6.2434,-2.67887 c 2.3974,-2.83336 1.9054,-3.91609 -1.7607,-3.87437 -1.8155,0.0246 -4.1922,-0.28402 -5.2816,-0.67673 -1.7722,-0.63908 -1.9805,-0.43643 -1.9805,1.92309 0,5.35904 5.3847,6.92729 9.0228,2.62801 z m -13.2568,-3.56359 c 2.3707,-2.85979 2.5499,-4.14786 0.4446,-3.19665 -0.8474,0.38303 -2.2514,0.33867 -4.7933,0.53657 -3.6825,0.2867 -4.6214,0.67373 -4.6214,1.90434 0,1.97548 3.3174,3.6214 6.162,3.05699 1.2101,-0.23961 1.7211,-0.98997 2.8081,-2.30125 z m -11.3516,-3.14345 c 1.9939,-2.20357 0.5302,-4.07672 -3.2893,-4.20924 -2.7086,-0.0948 -3.1321,0.16225 -3.1321,1.90642 0,3.47559 4.0467,4.92684 6.4214,2.30282 z m 37.5581,-0.44211 c 1.4025,-0.70968 2.3871,-2.17591 2.7926,-4.15839 0.7803,-3.81445 -0.2657,-4.56354 -4.3816,-3.13849 -2.2862,0.79127 -3.3198,1.77659 -3.8305,3.65128 -1.2676,4.65066 0.7506,6.00834 5.4195,3.6456 z m 9.7548,0.24199 c 1.4326,0 4.3638,-3.83643 4.3638,-5.71158 0,-3.06897 -1.5666,-3.96802 -4.6527,-2.67042 -2.4249,1.01951 -2.7216,1.56149 -2.8773,5.25172 -0.1372,3.286 0.085,4.01565 1.1094,3.62263 0.7057,-0.27072 1.6312,-0.49235 2.0568,-0.49235 z m -20.8428,-1.82422 c 2.7647,-2.17491 2.9978,-4.79294 0.5437,-6.10644 -1.3584,-0.72682 -2.2325,-0.63056 -3.7169,0.40923 -1.0677,0.74786 -3.2396,1.35967 -4.8263,1.35967 -2.2702,0 -2.885,0.36452 -2.885,1.71053 0,2.16408 3.2056,4.45123 6.2391,4.45123 1.2793,0 3.3698,-0.82092 4.6454,-1.82422 z m -15.2859,-2.57716 c 2.1803,-2.18036 1.5053,-2.11575 -0.9114,-5.03192 -2.6315,-3.17545 -4.748,-2.87421 -6.2365,1.02544 -0.9524,2.49549 -0.6524,2.74481 1.0259,4.12269 2.7715,1.63847 4.5206,1.42189 6.122,-0.11621 z M 2293.174,897.006 c 3.3205,-2.83573 3.245,-1.04281 0.1919,-4.09087 -1.4525,-1.45025 -3.7129,-2.8972 -5.0232,-3.2154 -2.043,-0.4965 -2.4633,-0.2572 -2.9496,1.68034 -0.6455,2.57208 2.471,8.47564 4.4745,8.47564 0.6597,0 1.9481,-1.66595 3.3064,-2.84971 z m 23.3387,-0.88692 c 0.6322,-0.52478 1.0305,-1.93708 0.885,-3.13858 -0.2121,-1.74739 -1.057,-2.41913 -4.2257,-3.35713 -4.4078,-1.30498 -5.8685,-0.72689 -6.6788,1.38457 -1.9463,5.07181 5.4681,8.88841 10.0195,5.11114 z m 14.0886,0.0399 c 1.723,-1.72297 1.2195,-4.95803 -0.9978,-6.41081 -4.3103,-2.82437 -10.7525,2.38272 -7.6192,6.1583 1.3029,1.57001 7.1289,1.74094 8.617,0.25251 z m 8.454,-1.85372 c 2.2457,-1.64207 1.5533,-5.36902 -1.0665,-5.74031 -2.6604,-0.37727 -1.3696,-2.95908 1.5441,-3.30616 3.0672,-0.3656 5.9555,2.82137 5.9555,6.57075 0,3.55971 1.3256,3.89179 2.9186,0.0461 0.8891,-2.14672 0.8262,-2.93745 -0.38,-4.77818 -0.795,-1.21318 -2.2283,-2.2058 -3.1854,-2.2058 -1.9254,0 -2.3695,-1.39087 -0.6401,-2.00421 1.835,-0.65053 -2.2812,-5.41566 -5.1545,-5.9674 -1.4627,-0.28071 -2.4408,-0.9761 -2.2968,-1.63286 0.3425,-1.56233 -1.3884,-3.87605 -4.1761,-4.66917 -9.5482,-2.71649 -19.9206,-0.84927 -28.7811,-0.64971 -2.6624,0.06 -6.0137,0.5119 -7.4662,1.09974 -2.3236,0.94046 -2.776,1.72711 -1.4203,2.48565 2.4035,1.34493 1.8161,2.53521 -1.2511,2.53521 -3.692,0 -6.0114,2.21855 -6.0114,5.7503 0,3.11406 1.9308,4.7856 2.6746,2.57327 0.7109,-2.11345 3.6436,-4.51138 5.5178,-4.51138 1.6619,0 2.2745,1.63643 0.086,3.51911 -1.8962,1.63116 -2.2637,2.52522 -1.7994,4.37594 1.1773,4.69008 6.1464,3.86729 8.8422,0.61942 1.7206,-2.07298 2.3502,-2.89005 0.6488,-4.76021 -4.7328,-5.66141 -3.4026,-10.27074 2.4333,-5.38341 2.41,2.01828 6.9072,3.5001 9.4645,4.01389 4.1419,0.83167 5.5106,1.00318 11.4565,-1.35092 5.2467,-2.07724 11.7697,-1.99717 6.8206,3.01618 -2.2377,2.26667 -2.4137,2.92801 -1.0246,3.36897 1.7976,0.5704 3.975,5.15215 3.1121,6.54824 -0.2434,1.70349 2.8275,0.67935 3.1787,0.43691 z" fill="#00B894" transform="translate(26.127742,-25.625518) translate(-2304.2637,-838.0526)"/>
</svg>