<?xml version="1.0" ?><svg height="49.1945mm" viewBox="0 0 98.740135 49.1945" width="98.740135mm" xmlns="http://www.w3.org/2000/svg">
    <path d="m 23692.487,17454.564 88.193,43.385 c 0,0 19.633,-53.468 73.7,-58.186 54.067,-4.718 76.68,18.316 76.68,18.316 l 88.604,-57.076 17.268,111.47 -95.079,-29.325 c 0,0 -23.847,80.666 -80.689,79.278 -56.842,-1.387 -72.775,-29.972 -72.775,-29.972 l -83.567,33.117 c 0,0 -16.446,-92.876 -19.633,-106.659 -3.186,-13.784 7.298,-4.348 7.298,-4.348 z" fill="#FFFFFF" transform="translate(-274.17759,-88.039656) matrix(0.26454073,0.00474809,-0.00474809,0.26454073,-5905.6704,-4625.4706)"/>
    <path d="m 23699.333,17572.107 c -6.692,-6.691 -13.845,-26.99 -13.978,-39.674 -0.05,-3.774 -3.118,-21.281 -6.837,-38.904 -6.994,-33.138 -5.962,-42.123 5.34,-46.462 10.069,-3.865 17.227,-2.213 29.166,6.737 6.5,4.872 22.237,14.15 34.973,20.629 17.589,8.94 23.158,10.538 23.158,6.642 0,-10.186 28.618,-34.985 49.746,-43.104 29.167,-11.212 54.989,-10.77 88.307,1.514 18.238,6.724 27.911,8.733 30.877,6.414 2.377,-1.854 20.227,-15.949 39.663,-31.324 19.438,-15.372 36.619,-27.948 38.177,-27.948 5.8,0 9.868,9.456 18.441,42.885 11.898,46.379 14.752,76.779 8.051,85.767 -8.218,11.025 -30.339,8.637 -58.514,-6.314 -31.913,-16.934 -38.324,-16.664 -40.792,1.728 -2.504,18.661 -10.918,29.57 -33.189,43.042 -22.482,11.601 -86.105,26.207 -117.582,-2.612 -6.062,-5.55 1.183,-4.677 -30.297,1.946 -16.035,3.374 -29.605,8.795 -38.637,15.438 -16.441,12.092 -17.445,12.229 -26.073,3.6 z m 28.26,-27.31 c 10.388,-5.462 25.212,-11.002 32.941,-12.309 8.552,-1.445 14.054,-4.235 14.054,-7.133 0,-3.62 -5.694,-4.704 -23.841,-4.533 -13.114,0.128 -25.464,-0.78 -27.448,-2.004 -8.332,-5.151 -2.203,-6.902 20.405,-5.832 32.689,1.553 32.867,-5.735 0.433,-18.129 -12.97,-4.957 -29.565,-13.541 -36.877,-19.072 -14.833,-11.223 -20.153,-12.797 -17.194,-5.088 1.953,5.086 10.092,46.04 14.143,71.17 1.141,7.074 2.619,12.864 3.287,12.864 0.665,0 9.711,-4.469 20.097,-9.934 z m 147.901,-14.998 c 1.207,-8.051 8.088,-26.718 15.29,-41.483 9.891,-20.279 11.965,-27.275 8.486,-28.609 -2.535,-0.973 -6.759,-0.941 -9.392,0.07 -4.499,1.723 -26.611,54.576 -31.476,75.23 -1.969,8.365 -1.252,9.434 6.337,9.434 7.447,0 8.847,-1.905 10.755,-14.639 z m -34.084,-1.655 c 2.845,-15.24 23.247,-60.623 28.794,-64.053 7.18,-4.44 3.944,-9.314 -5.455,-8.22 -11.196,1.304 -23.729,18.607 -38.443,53.07 l -10.033,23.492 7.463,4.167 c 11.984,6.694 15.125,5.192 17.674,-8.456 z m 84.127,-46.557 c 0,-8.65 -8.727,-18.76 -12.739,-14.75 -3.347,3.35 -31.081,74.173 -29.045,74.173 36.115,-13.374 41.277,-37.201 41.784,-59.423 z m -116.642,34.392 c 0,-2.448 6.855,-15.569 15.236,-29.16 8.381,-13.594 13.398,-24.691 11.152,-24.66 -9.502,0.128 -31.966,16.343 -37.254,26.888 -4.434,8.838 -4.936,13.647 -2.237,21.389 3.466,9.94 13.103,14.019 13.103,5.543 z m 218.11,-34.151 c -2.086,-16.067 -9.958,-51.599 -14.113,-63.704 -1.065,-3.108 -10.238,1.459 -29.289,14.582 -15.253,10.508 -27.78,17.392 -30.472,19.104 -4.383,2.788 -8.671,8.022 -5.899,12.508 2.272,3.673 3.218,4.381 11.302,0.3 5.437,-2.746 16.835,-5.971 25.326,-7.167 14.869,-1.918 22.399,-3.545 9.465,7.222 -5.662,4.712 -17.395,8.635 -20.798,9.735 -4.566,1.473 -0.07,5.003 17.155,13.458 12.834,6.303 27.013,11.578 31.501,11.717 7.876,0.259 8.079,-0.372 5.822,-17.755 z" fill="#00B894" transform="translate(-274.17759,-88.039656) matrix(0.26454073,0.00474809,-0.00474809,0.26454073,-5905.6704,-4625.4706)"/>
</svg>