<?xml version="1.0" ?><svg height="284.58887mm" viewBox="0 0 153.69055 284.58887" width="153.69055mm" xmlns="http://www.w3.org/2000/svg">
    <path d="m -1028.5966,-3176.7386 83.0723,-77.404 -6.7116,-70.2338 c 0,0 -34.6699,-26.3548 -3.7026,-46.8025 30.9673,-20.4477 179.9133,-20.2963 179.9133,-20.2963 0,0 162.915,-5.3013 169.3104,37.1089 6.3954,42.4101 -5.1842,106.2309 -5.1842,106.2309 l 80.0407,79.3571 -45.7405,727.5918 c 0,0 -88.1895,65.8872 -230.5718,43.7733 -142.3823,-22.1138 -164.9346,-8.6335 -177.2206,-92.9993 -12.2859,-84.3657 -57.0539,-601.0113 -58.9052,-629.3352 -1.8513,-28.3239 15.6998,-56.9909 15.6998,-56.9909 z" fill="#FFFFFF" transform="translate(-19.231229,52.197793) matrix(0.26458333,0,0,0.26458333,300.90243,862.00487)"/>
    <path d="m -832.57772,-2379.9665 c -54.9438,-3.8773 -107.9091,-19.0794 -135.8699,-38.9974 -17.0875,-12.1728 -21.5797,-24.9332 -34.09818,-96.8546 -9.801,-56.3122 -14.8558,-108.837 -34.0181,-353.4953 -17.8778,-228.2597 -19.8316,-262.1306 -15.8532,-274.8652 2.7719,-8.8732 2.3005,-13.7301 -1.8482,-19.0318 -8.8063,-11.253 -13.0845,-48.7761 -8.3851,-73.5403 3.3832,-17.8292 6.6189,-23.7013 16.7031,-30.3106 21.1701,-13.8759 44.9875,-9.0105 63.46438,12.9642 8.2387,9.7983 9.4068,10.0915 15.2694,3.8332 4.8971,-5.2272 5.9172,-13.5043 4.4625,-36.2069 -1.5981,-24.943 -3.4332,-30.9533 -12.0356,-39.4167 -5.5829,-5.4922 -10.2692,-13.6317 -10.4147,-18.0874 -0.5561,-17.0367 39.8333,-45.336 72.7012,-50.9389 15.1629,-2.5849 20.3711,-6.2688 35.7159,-25.2615 14.7748,-18.2873 21.932,-23.5305 40.3098,-29.5297 45.7929,-14.9492 100.3506,1.5212 115.449,34.8528 4.1755,9.2176 8.1003,11.3042 23.9623,12.7383 26.946,2.4365 69.15,15.6457 88.4718,27.6908 17.8373,11.1196 22.219,22.0878 15.8588,39.698 -2.1553,5.9677 -4.224,26.7275 -4.597,46.1329 -0.3731,19.4054 -1.8322,37.293 -3.2423,39.7503 -1.4103,2.4574 -1.9152,4.84 -1.1229,5.2952 0.7927,0.4548 4.5198,3.0167 8.2824,5.6935 5.6493,4.0188 9.1455,3.3565 20.0684,-3.8021 17.827,-11.6829 50.6093,-12.9044 64.8758,-2.4175 12.3775,9.0985 24.2755,30.8342 24.7446,45.205 0.5023,15.3896 -10.1055,47.1714 -21.9874,65.8747 -10.2862,16.1921 -10.476,17.9484 -10.3022,95.2424 0.098,43.3102 -2.8317,125.1864 -6.5097,181.947 -3.678,56.7607 -7.9507,125.0507 -9.4955,151.7555 -1.5445,26.7048 -5.6395,68.6374 -9.1003,93.1834 -3.4604,24.5463 -7.6375,64.6642 -9.2819,89.1512 -1.6444,24.4867 -3.9048,47.9585 -5.0234,52.1594 -1.1351,4.264 0.4355,9.0741 3.553,10.8887 9.2522,5.3836 -3.1174,23.77 -25.5868,38.032 -44.4069,28.187 -89.3961,38.3052 -179.1734,40.2964 -33.9785,0.7536 -68.1547,0.9205 -75.9467,0.3707 z m 206.3441,-50.2698 c 19.7766,-6.5576 37.4829,-13.529 39.3474,-15.4923 1.8641,-1.9631 4.2215,-27.8251 5.2386,-57.4711 1.0171,-29.6459 4.5832,-79.4337 7.9247,-110.6397 3.3415,-31.2056 7.2468,-80.4015 8.678,-109.324 1.4315,-28.9222 5.693,-95.3945 9.4701,-147.7159 3.7772,-52.3217 8.0461,-138.785 9.487,-192.1408 2.84265,-46.6455 5.29954,-97.2314 -7.7705,-105.7582 -5.7145,-4.8112 -11.7252,-8.704 -13.3569,-8.6507 -1.6319,0.053 -5.5653,16.9921 -8.741,37.6421 -5.7928,37.6657 -11.2081,47.8185 -25.7586,48.2935 -8.4659,0.2763 -12.0247,-7.6241 -12.6959,-28.1855 -0.2838,-8.694 -1.335,-15.7803 -2.3362,-15.7476 -1.0011,0.033 -12.2577,3.1528 -25.0148,6.934 -50.9041,15.0875 -103.7875,23.1372 -163.9532,24.9567 -52.1817,1.5761 -65.9796,0.5577 -100.1638,-7.4047 -48.4073,-11.2751 -88.7611,-27.2936 -89.0237,-35.338 -0.1316,-4.0299 2.0998,-5.1056 6.9581,-3.3547 3.9333,1.4178 32.7462,7.2278 64.0286,12.9115 51.259,9.3136 63.45,10.0709 123.4257,7.6667 45.9922,-1.8439 85.033,-6.0593 126.3867,-13.6469 l 59.8379,-10.9791 6.2187,-26.1504 6.2182,-26.1505 -13.0149,-15.1546 c -8.6835,-10.1115 -15.0774,-14.2629 -19.2128,-12.4741 -40.9234,17.7022 -160.8589,25.1228 -218.2175,13.5013 -19.1988,-3.8897 -44.8845,-10.4385 -57.079,-14.5529 l -22.1716,-7.4804 -27.3168,27.2253 c -15.0242,14.9738 -34.4195,32.3265 -43.10088,38.5617 -33.6341,24.1566 -32.1717,16.4966 -21.0723,110.3455 5.3897,45.5703 13.2965,138.1698 17.5708,205.7767 15.75118,249.135 28.19288,378.01 39.73248,411.5647 4.5476,13.2239 64.2409,31.052 118.8307,35.4903 17.3114,1.4076 65.9485,0.828 108.0822,-1.2879 68.8669,-3.4583 80.2399,-5.0517 112.5645,-15.77 z m -230.9021,-335.499 c -2.4989,-5.9778 -4.9065,-27.5489 -5.3508,-47.9359 -1.3162,-60.4283 6.0844,-73.501 23.59,-41.6709 l 10.2311,18.6021 11.17,-19.0278 c 14.5615,-24.8047 21.0525,-24.8673 21.9618,-0.2114 0.389,10.5379 2.7491,30.6301 5.2455,44.6494 2.8746,16.1451 3.2203,29.3292 0.9437,35.9641 -5.8245,16.9658 -11.6554,5.8229 -16.3433,-31.2313 -4.1355,-32.6847 -4.4213,-33.3411 -8.9217,-20.4898 -5.4687,15.6178 -17.7214,18.1716 -22.9751,4.7887 -2.496,-6.3571 -3.8574,0.7326 -4.6714,24.3268 -1.2766,36.9878 -7.3716,50.1938 -14.8786,32.236 z m 142.8333,-4.8381 c -5.5524,-7.8989 -6.5445,-16.4965 -5.4562,-47.2749 1.7645,-49.9058 3.3366,-58.386 9.7199,-52.4293 2.8376,2.6479 6.3921,21.4401 8.2713,43.7285 3.064,36.3469 3.9132,39.1524 12.1199,40.0488 4.8539,0.5304 11.0048,3.4227 13.6691,6.4276 3.906,4.4062 1.99,6.7671 -9.8984,12.1965 -19.2405,8.787 -20.4328,8.6739 -28.4256,-2.6972 z m -46.3776,-6.7138 c -6.1321,-6.9163 -5.0368,-81.787 1.2976,-88.6904 5.6909,-6.2021 7.5435,-1.781 13.3836,31.9428 7.7064,44.4985 0.1959,73.528 -14.6812,56.7476 z m 101.7146,-6.284 c -7.6293,-8.7338 -11.0246,-87.613 -3.7814,-87.8494 2.2738,-0.074 6.008,4.3472 8.298,9.8257 4.734,11.3247 13.1302,12.616 20.4786,3.1495 7.1902,-9.2627 18.9769,-15.3394 24.0775,-12.4127 2.6857,1.5412 -0.4061,7.7987 -7.9681,16.1285 l -12.3566,13.6103 15.0715,18.4636 c 16.8055,20.5871 19.8752,33.842 7.9279,34.232 -7.5726,0.2472 -33.5048,-23.8388 -33.7499,-31.3471 -0.07,-2.1415 -1.4888,-3.8526 -3.153,-3.8022 -1.6642,0.054 -2.7201,9.4623 -2.3462,20.9158 0.6831,20.9289 -4.2749,28.5004 -12.4983,19.086 z m 142.9859,-411.7964 c -0.5717,-21.5045 -23.472,-35.7174 -36.0007,-22.3431 -3.3771,3.6046 -0.1484,9.355 13.0776,23.2916 18.0809,19.0513 23.4487,18.8295 22.9231,-0.9482 z m -487.26668,-38.2103 c -14.2875,-20.3268 -27.0686,-7.7979 -25.9826,25.4707 l 0.6322,19.3686 16.2447,-17.3413 c 16.03158,-17.1135 16.15128,-17.4746 9.1057,-27.498 z m 353.76388,-17.2477 19.5833,-3.3098 0.2999,-27.148 0.2997,-27.1482 -18.7432,3.519 c -10.3086,1.9351 -65.0395,4.9251 -121.624,6.644 -92.8509,2.8218 -119.5789,1.6713 -158.8354,-6.8304 -10.8482,-2.3495 -11.0721,-2.0099 -10.4874,15.9027 0.3527,10.8054 3.1307,20.6765 6.7816,24.0966 6.5102,6.0982 64.6245,19.0447 105.8234,23.5748 25.005,2.7494 141.9966,-3.4014 176.9021,-9.3007 z m -11.0429,-85.0754 c 34.7152,-6.3515 45.1683,-11.843 37.9783,-19.9523 -9.9683,-11.2435 -38.8978,-23.7225 -59.7337,-25.7663 l -21.0204,-2.0619 -0.6866,17.531 c -0.6135,15.6677 -1.7583,17.5658 -10.7721,17.86 -8.1923,0.2674 -11.2633,-2.7485 -16.3598,-16.0659 l -6.2744,-16.3956 -38.727,-1.2979 c -21.3001,-0.7138 -50.935,-0.9086 -65.8556,-0.4331 -26.1934,0.825 -27.3348,1.2975 -33.1133,13.4266 -6.9105,14.5042 -18.8621,15.2966 -21.3074,1.4128 -1.1522,-6.5411 -4.3016,-8.9051 -11.5499,-8.6685 -11.8171,0.3858 -37.7012,13.9921 -45.3411,23.834 -4.7027,6.0581 -4.3677,7.6763 2.5696,12.4094 21.1375,14.4219 84.6732,18.9958 186.1829,13.4031 42.1273,-2.3207 88.9318,-6.477 104.0105,-9.2354 z m -88.3448,-67.5884 c -0.527,-16.1451 -38.8857,-28.3752 -69.5188,-22.1656 -14.5349,2.9463 -39.6047,20.0553 -39.3596,26.8609 0.048,1.4669 24.6142,2.2912 54.5803,1.8319 44.6589,-0.6842 54.4504,-1.8624 54.2981,-6.5272 z" fill="#00B894" transform="translate(-19.231229,52.197793) matrix(0.26458333,0,0,0.26458333,300.90243,862.00487)"/>
</svg>