<?xml version="1.0" ?><svg height="66.25811mm" viewBox="0 0 213.44571 66.25811" width="213.44571mm" xmlns="http://www.w3.org/2000/svg">
    <path d="m 14971.328,12092.828 c -55.38,-0.976 -110.863,33.613 -121.424,70.904 -1.896,68.459 58.177,110.685 191.356,143.635 133.179,32.95 420.273,-7.143 455.465,-24.951 35.19,-17.808 108.162,-59.912 112.072,-67.27 0.443,-0.834 0.299,-1.553 -0.252,-2.226 5.967,-4.95 26.44,-22.233 28.051,-27.772 1.886,-6.483 -14.366,-40.265 -22.479,-46.806 -14.285,-21.687 -60.272,-16.628 -84.336,-19.93 0,0 -184.957,1.069 -250.006,2.348 -65.049,1.28 -245.979,-24.314 -303.089,-27.727 -1.785,-0.106 -3.571,-0.173 -5.358,-0.205 z" fill="#FFFFFF" paint-order="markers stroke fill" transform="translate(29.065049,-90.380009) translate(-2539.5284,-2842.9678) matrix(0.26458333,0,0,0.26458333,-1415.5765,-263.06562)"/>
    <path d="m 15004.725,12357.947 c -13.715,-0.08 -26.683,1.051 -41.989,3.203 -52.828,7.428 -82.023,20.994 -102.367,47.567 -12.191,15.927 -21.793,38.602 -21.793,51.469 0,12.669 8.727,36.388 18.061,49.08 19.07,25.929 63.488,52.493 116.236,69.513 53.506,17.264 101.188,24.21 186.695,27.205 175.935,6.161 243.484,1.111 318.391,-23.81 40.072,-13.332 65.294,-25.351 91.627,-43.658 18.095,-12.512 42.192,-32.294 45.461,-41.073 3.719,-9.99 9.971,-12.05 17.76,-20.265 15.562,-16.414 16.287,-25.288 3.838,-46.994 -13.098,-22.837 -16.077,-48.795 -69.1,-36.772 -24.548,1.057 -25.612,-7.5 -68.234,-8.594 -19.856,-0.509 -38.77,-2.626 -99.749,2.051 -62.942,4.828 -188.755,2.705 -229.494,-3.871 -14.85,-2.397 -49.179,-8.535 -76.287,-13.639 -41.27,-7.771 -66.199,-11.276 -89.056,-11.412 z m -11.709,21.998 c 29.169,-0.146 61.449,2.998 94.363,9.729 73.272,14.983 98.838,18.37 162.869,21.56 61.446,3.062 137.254,0.522 192.814,-6.461 39.553,-4.969 93.357,-0.695 106.229,8.442 0.677,0.481 -1.219,3.583 -4.215,6.892 -3.561,3.936 -9.244,6.02 -16.422,6.02 -6.036,0 -26.273,2.017 -44.968,4.482 -18.696,2.466 -57.084,5.82 -85.307,7.455 -70.443,4.081 -208.615,3.233 -252.375,-1.548 -36.974,-4.041 -69.43,-9.417 -116.934,-19.371 -48.647,-10.193 -88.061,-13.465 -112.89,-9.368 -12.159,2.007 -26.571,6.282 -32.028,9.498 -13.149,7.754 -14.096,7.408 -7.004,-2.552 15.824,-22.222 60.18,-34.498 115.868,-34.778 z m 583.771,28.725 c 12.077,0.513 20.172,3.945 26.229,5.457 1.083,0.27 2.496,1.148 4.086,2.422 -8.887,1.612 -28.472,2.576 -39.233,3.021 -0.02,-2.458 -1.448,-6.02 -4.558,-10.261 4.982,-0.658 9.451,-0.81 13.476,-0.639 z m -655.529,7.184 c 3.519,0 7.434,0 11.814,0.04 27.759,0.188 47.214,2.079 67.5,6.566 132.587,29.332 154.71,31.853 278.992,31.717 93.43,-0.101 158.11,-3.416 197.997,-10.145 78.387,-13.224 89.662,-4.495 97.191,14.437 0,0 6.528,19.31 -1.647,24.168 -17.8,12.875 -31.753,15.838 -48.294,20.956 -120.191,37.02 -195.594,41.461 -386.245,22.752 -51.356,-5.04 -169.159,-29.776 -227.416,-47.75 -18.656,-5.758 -36.88,-10.396 -40.498,-10.313 -12.172,0.288 77.005,30.124 120.918,40.455 23.925,5.629 54.209,12.977 67.297,16.328 32.137,8.23 99.331,16.449 186.461,22.807 106.237,7.753 161.81,2.208 256.977,-25.631 22.684,-6.636 52.136,-17.61 65.445,-24.392 13.31,-6.782 25.115,-11.414 26.234,-10.295 2.81,2.809 -14.962,17.32 -39.158,31.976 -52.897,32.044 -114.088,50.555 -191.519,57.936 -66.067,6.298 -236.866,3.941 -297.989,-4.11 -75.543,-9.952 -138.477,-31.942 -176.23,-61.574 -36.454,-28.61 -40.195,-72.014 -7.703,-89.375 9.976,-5.328 15.236,-6.499 39.873,-6.551 z m 691.361,6.066 c 4.113,4.529 8.406,10.454 11.893,16.553 -8.529,5.227 -22.655,13.502 -34.559,22.386 1.493,-12.592 -8.326,-24.149 -19.025,-28.582 -0.535,-0.221 -0.859,-0.484 -1.356,-0.716 12.027,-1.669 35.783,-6.509 43.047,-9.641 z m -732.045,22.205 c -1.651,0 -3,1.35 -3,3 0,1.65 1.349,3 3,3 1.65,0 3,-1.35 3,-3 0,-1.65 -1.35,-3 -3,-3 z m 654.951,0.416 c -2.767,-0.103 -3.966,1.631 -3.966,5.584 0,4.518 1.566,6.134 5.25,5.428 2.887,-0.556 5.25,-2.998 5.25,-5.428 0,-2.429 -2.363,-4.877 -5.25,-5.43 -0.461,-0.09 -0.888,-0.139 -1.284,-0.154 z m 94.116,5.104 c 1.678,5.328 1.924,10.028 -0.551,12.873 -12.595,14.472 -21.324,22.29 -25.69,15.464 -1.334,-2.135 -2.657,-3.456 -4.123,-4.3 9.321,-6.752 22.377,-17.026 30.364,-24.037 z m -691.848,12.48 c -6.001,0 -8.405,5.816 -4.158,10.063 3.215,3.214 8.336,0.459 9.408,-5.063 0.653,-3.372 -1.056,-5 -5.25,-5 z m 46.279,12 c -2.475,0 -4.502,2.024 -4.502,4.5 0,2.475 2.027,4.5 4.502,4.5 2.475,0 4.498,-2.025 4.498,-4.5 0,-2.476 -2.023,-4.5 -4.498,-4.5 z m 538.065,3.461 c -1.467,-0.02 -2.578,1.632 -2.578,4.039 0,2.749 1.452,4.51 3.226,3.924 1.773,-0.591 3.225,-2.357 3.225,-3.924 0,-1.569 -1.452,-3.34 -3.225,-3.926 -0.222,-0.07 -0.439,-0.11 -0.648,-0.113 z m -401.569,8.537 c -1.651,0 -3,1.352 -3,3.002 0,1.65 1.349,3 3,3 1.65,0 3,-1.35 3,-3 0,-1.65 -1.35,-3.002 -3,-3.002 z m -50.498,9.002 c -7.62,0 -10.07,3.198 -6.107,7.973 4.975,5.994 11.607,4.867 11.607,-1.973 0,-3.818 -2,-6 -5.5,-6 z m 428.067,0.461 c -1.466,-0.02 -2.576,1.63 -2.576,4.037 0,2.75 1.451,4.521 3.224,3.926 1.775,-0.592 3.225,-2.359 3.225,-3.926 0,-1.567 -1.451,-3.329 -3.225,-3.924 -0.221,-0.07 -0.439,-0.11 -0.648,-0.113 z m -573.387,3.312 c -0.667,0.02 -1.305,0.187 -1.889,0.547 -3.623,2.239 -4.439,11.528 -1.289,14.678 3.595,3.594 10.15,2.103 12.006,-2.732 1.902,-4.957 -4.157,-12.593 -8.828,-12.493 z m 356.314,17.225 c -5.147,0 -8.474,4.993 -6,9 2.258,3.653 4.715,3.722 10.135,0.289 4.774,-3.024 1.985,-9.289 -4.135,-9.289 z m -329.992,9 c -4.638,0 -5.96,3.539 -2.582,6.918 2.398,2.396 7.082,-0.312 7.082,-4.094 0,-1.553 -2.025,-2.824 -4.5,-2.824 z m 27.209,1.5 c -7.695,0 -9.102,5.679 -2.935,11.846 3.213,3.213 6.081,3.997 7.914,2.166 4.609,-4.611 1.27,-14.012 -4.979,-14.012 z m 49.289,10.5 c -5.977,0 -7.803,3.196 -4,7 3.653,3.654 10,2.068 10,-2.5 0,-2.5 -2.667,-4.5 -6,-4.5 z m 404.93,12.277 c -1.362,0.06 -2.77,1.272 -5.188,3.69 -4.479,4.481 -4.614,5.642 -0.912,7.931 2.625,1.624 6.615,1.465 10.1,-0.4 5.306,-2.839 5.379,-3.469 0.912,-7.933 -2.233,-2.235 -3.55,-3.342 -4.912,-3.288 z" fill="#00B894" transform="translate(29.065049,-90.380009) translate(-2539.5284,-2842.9678) matrix(0.26458333,0,0,0.26458333,-1415.5765,-336.35791)"/>
</svg>