<?xml version="1.0" ?><svg height="139.30635mm" viewBox="0 0 177.10609 139.30635" width="177.10609mm" xmlns="http://www.w3.org/2000/svg">
    <path color="#000" d="m 5812.8998,5710.7723 c -68.7103,-82.276 -13.6492,-192.2727 77.056,-108.5375 16.8998,-30.6683 40.3215,-37.1469 80.9409,-13.8403 -25.4896,-55.1136 -10.8113,-90.1643 46.9247,-99.4754 58.5578,-9.4435 68.8507,-3.3161 91.2386,37.8196 14.1854,-71.5889 101.5579,-38.4874 98.508,25.6709 50.0216,-2.3233 73.9147,-28.007 95.8341,54.9243 95.428,20.9816 112.5115,56.5289 63.7811,104.3126 12.1562,24.8444 78.5376,51.0032 -27.1955,72.9897 0,0 -68.6377,25.3498 -78.1889,91.9292 -9.5512,66.5794 -40.4733,99.0018 -146.8586,108.3454 -111.6671,9.8074 -141.7768,-44.5341 -161.2034,-114.6101 -19.4256,-70.0759 -43.1565,-85.5465 -137.2754,-92.9489 -69.452,-5.4623 -87.74,-87.7042 -3.5616,-66.5795 z" fill="#FFFFFF" overflow="visible" paint-order="fill markers stroke" transform="translate(-262.87616,103.59809) matrix(0.26458333,0,0,0.26458333,-1257.7375,-1551.2553)"/>
    <path d="m 6017.5146,5983.6642 c -39.4054,-21.0306 -56.1483,-57.5826 -67.4554,-106.0519 -16.5472,-70.9331 -48.8039,-78.9617 -124.5555,-83.6024 -67.3258,-4.124 -88.7504,-40.4905 -73.7479,-79.9488 7.9405,-20.887 33.8778,-23.9446 58.2571,-6.8685 14.4003,10.0859 15.8489,10.0114 24.074,-1.2365 4.8133,-6.5822 8.751,-15.6747 8.751,-20.2048 0,-12.2834 24.8968,-23.272 42.6382,-18.8189 8.5597,2.1483 15.6086,6.0337 15.6633,8.6334 0.066,2.5997 2.7445,8.9082 5.9782,14.0185 4.7595,7.5217 9.5455,5.3663 25.1295,-11.3172 23.0797,-24.7071 31.4141,-25.7134 40.8805,-4.9388 3.9274,8.6185 13.3221,17.228 20.879,19.1312 7.5568,1.9039 16.649,10.0354 20.206,18.0707 3.5569,8.0352 13.7424,16.3304 22.6348,18.4347 16.9271,4.0057 20.6603,22.0737 9.7717,47.2995 -4.3684,10.1208 -2.3402,11.7111 13.5634,10.6317 38.0577,-2.5817 38.3791,-2.0733 23.5877,37.2873 -1.6711,4.446 1.6389,8.0838 7.3542,8.0838 6.1912,0 10.3928,-5.4007 10.3928,-13.3595 0,-21.8649 11.2826,-36.4298 31.3246,-40.4381 12.9715,-2.5945 20.0891,-8.7084 22.8252,-19.6091 2.4948,-9.9404 11.2279,-18.3676 23.4519,-22.6286 10.9998,-3.8343 22.141,-13.796 25.5971,-22.8873 3.3666,-8.854 15.409,-28.8011 22.6784,-32.6916 19.7027,-10.5445 69.0335,-16.293 78.8729,6.4855 4.5415,10.5136 58.882,18.6287 69.2409,10.0315 4.4212,-3.6687 7.7407,-19.1526 7.3778,-34.4082 -0.6399,-26.757 -1.4495,-27.8124 -22.992,-29.8599 -12.2825,-1.1673 -27.0042,-6.3305 -32.7138,-11.4731 -13.5417,-12.1961 -29.4698,-5.6896 -34.4272,14.0631 -5.1376,20.4712 -21.7235,20.1828 -26.9062,-0.4656 -5.1328,-20.4512 -6.4938,-20.2837 -26.2823,3.2335 -18.3474,21.8059 -43.3809,25.6306 -53.178,8.1244 -5.819,-10.3975 -7.6078,-10.0581 -22.9553,4.3607 -9.1553,8.6004 -16.6453,17.8508 -16.6453,20.556 0,2.7058 -3.3505,13.1111 -7.4456,23.1239 -4.0952,10.0129 -6.8717,24.1813 -6.1705,31.4858 0.7012,7.3038 -4.6785,18.6682 -11.9555,25.2535 -7.276,6.5854 -13.2316,16.6266 -13.668,22.2878 -0.3421,4.4958 -9.258,-0.065 -10.1836,-3.908 -3.1375,-13.06 -2.2318,-16.7604 7.9556,-24.2803 9.784,-7.2223 10.7104,-10.8076 4.4363,-17.1704 -4.5947,-4.6595 -5.6078,-10.9622 -2.4081,-14.986 3.0367,-3.8193 7.407,-13.1078 9.7114,-20.6419 3.3647,-11.0003 0.3233,-15.3002 -15.4587,-21.8364 -11.7528,-4.8684 -21.2484,-14.5144 -23.631,-24.0073 -3.671,-14.627 -6.5512,-15.7019 -36.7995,-13.7321 -32.5724,2.1206 -32.8212,1.9919 -33.12,-17.2642 -0.2912,-18.8337 -1.2149,-19.4008 -31.5027,-19.4008 -22.2361,0 -33.5893,-3.2517 -39.5148,-11.3173 -11.3325,-15.4237 -14.6632,-14.3994 -26.2898,8.0838 -5.5182,10.6705 -14.667,19.4008 -20.3304,19.4008 -5.6634,0 -20.2409,-8.7303 -32.3933,-19.4008 -12.1534,-10.6706 -24.8808,-19.401 -28.2822,-19.401 -3.4024,0 -14.9423,9.1624 -25.6433,20.36 -23.3605,24.4452 -25.2973,50.2794 -5.818,77.6354 19.2636,27.0527 8.4975,32.3594 -14.1731,6.9869 -29.4462,-32.9557 -22.0458,-73.1228 19.043,-103.3655 26.3416,-19.3881 49.5504,-18.7917 62.9234,1.6167 5.8255,8.8921 13.4766,16.1675 17.0015,16.1675 3.5259,0 12.1327,-7.2754 19.1269,-16.1675 14.9667,-19.0271 28.5103,-20.4454 46.3177,-4.8502 12.421,10.8774 12.7368,10.8147 8.1402,-1.6168 -16.5595,-44.7779 -6.2242,-74.3702 25.975,-74.3702 8.2016,0 20.7932,-6.3118 27.9797,-14.0256 11.3014,-12.1307 15.3183,-13.0005 29.7233,-6.4372 12.0563,5.493 20.239,5.6702 29.6328,0.6467 16.1373,-8.6367 31.5064,2.1574 31.6516,22.2282 0.1225,17.2696 6.276,26.4068 21.5896,32.0693 7.0894,2.6217 10.5078,8.2906 8.3665,13.8716 -1.9925,5.1917 -0.7625,11.2066 2.7332,13.3671 3.4966,2.1607 5.8208,7.3466 5.1648,11.5249 -0.655,4.1777 1.1093,12.8841 3.9208,19.3479 3.0866,7.0955 2.0367,14.7822 -2.6484,19.4009 -5.9886,5.9011 -9.8783,4.781 -17.027,-4.9046 -5.0961,-6.9041 -9.2647,-17.6451 -9.2647,-23.8689 0,-6.2245 -3.0518,-13.2024 -6.7812,-15.5071 -4.6776,-2.8915 -4.5475,-6.8816 0.4203,-12.8647 5.5211,-6.6519 4.0867,-10.3394 -6.1525,-15.8195 -7.8114,-4.1803 -13.3513,-13.602 -13.3513,-22.7036 0,-19.555 -9.0253,-25.5913 -19.4605,-13.0169 -10.2779,12.383 -25.172,12.3482 -29.9373,-0.071 -2.047,-5.3353 -6.6322,-9.7005 -10.1892,-9.7005 -3.557,0 -4.6908,4.6277 -2.5212,10.2838 6.7304,17.5378 -1.9198,21.6592 -25.1145,11.9685 -20.6282,-8.6199 -22.7611,-8.3844 -28.9598,3.1972 -14.1081,26.3627 -0.4326,65.0882 22.9873,65.0882 14.7829,0 34.9918,15.2064 34.9918,26.3296 0,3.3027 12.5709,6.0053 27.9344,6.0053 25.3068,0 28.8044,1.9768 37.185,21.0176 11.1147,25.2509 33.4159,30.733 53.5362,13.1597 33.3612,-29.1403 34.7231,-29.5393 49.6974,-14.565 l 14.011,14.0108 20.6811,-20.0451 c 21.5811,-20.9175 39.5836,-25.7554 44.509,-11.9613 1.5881,4.446 4.4834,6.6286 6.4344,4.8502 5.7907,-5.2784 -12.0921,-67.0308 -20.1928,-69.7308 -4.0989,-1.3664 -7.4513,1.8127 -7.4513,7.0632 0,11.3748 -17.3532,19.4766 -22.8092,10.6491 -6.7973,-10.9983 -22.7008,-6.5911 -38.7636,10.7411 -9.62,10.3801 -19.6076,15.4204 -25.8271,13.0342 -8.7557,-3.3603 -8.1714,-6.555 4.277,-23.3923 7.9301,-10.7262 16.7811,-19.5012 19.6688,-19.5012 2.8888,0 5.2506,-8.7303 5.2506,-19.4009 0,-21.2233 -6.931,-24.7252 -19.3408,-9.7716 -8.6228,10.3892 -20.3926,7.1033 -18.8658,-5.2667 3.2101,-26.0045 -12.9026,-32.1875 -34.037,-13.0608 -10.4343,9.4432 -11.8273,9.5175 -11.8273,0.6338 0,-5.539 9.2156,-13.2826 20.4774,-17.2086 16.34,-5.6961 23.4803,-5.1704 35.3406,2.601 8.176,5.3565 20.4755,9.7386 27.334,9.7386 15.0195,0 21.7272,14.7771 16.3795,36.0826 -3.0536,12.1683 -1.3656,15.6533 7.5805,15.6533 6.3297,0 16.8432,-4.827 23.3624,-10.7261 18.8517,-17.0612 40.5176,-3.1546 51.1413,32.8249 6.8953,23.3523 11.7114,29.637 22.715,29.637 7.6803,0 17.5859,4.3651 22.0137,9.7003 4.8566,5.852 19.009,9.7005 35.6685,9.7005 16.8931,0 28.8882,3.3112 30.89,8.5267 5.7568,15.0028 -6.6775,64.7901 -18.304,73.2922 -10.3957,7.6007 -9.7331,9.9249 8.8565,31.0971 24.6433,28.0674 27.6116,43.9269 -7.6809,52.6314 -44.6586,13.3301 -112.5726,16.6893 -114.1,73.4372 0,31.7716 -12.4619,67.5747 -50.8259,101.7689 -33.8872,30.2027 -44.3876,35.6944 -70.8678,34.9183 -44.8762,2.7139 -95.8576,9.9284 -136.9191,-10.871 z m 81.116,-7.4845 c 2.3402,-2.3404 12.4953,-7.5538 8.5689,-12.285 -5.3835,-6.4864 -4.5739,-9.5867 3.2893,-12.6042 13.2306,-5.0772 13.3315,-15.2368 0.246,-24.8054 -8.9103,-6.5155 -8.1017,-8.559 6.4673,-16.3562 20.7725,-11.1181 22.0053,-30.9329 2.099,-33.7602 -10.9329,-1.5528 -14.0478,-5.6845 -12.5276,-16.617 1.7681,-12.7173 -0.8454,-14.5507 -20.7442,-14.5507 -22.2361,0 -22.7357,-0.5625 -21.4237,-24.2511 1.2667,-22.8789 0.3421,-24.1348 -16.3333,-22.1862 -26.0881,3.0485 -32.3189,-3.4754 -20.518,-21.4853 14.4879,-22.1118 9.325,-38.0555 -13.6105,-42.0282 -13.8433,-2.398 -19.3144,-6.9895 -19.322,-16.2173 -0.01,-10.0238 -3.9452,-12.6028 -17.7942,-11.6548 -14.8715,1.0186 -17.7847,-1.3651 -17.7847,-14.5506 0,-21.1535 -9.1309,-19.8711 -25.8676,3.6331 -17.3719,24.3961 -26.2172,24.387 -40.118,-0.065 -14.5906,-25.6422 -28.7129,-24.4639 -40.3404,3.3648 -12.1543,29.0904 -24.7629,33.5881 -52.4137,18.6973 -19.5849,-10.5477 -23.3577,-10.8368 -31.7609,-2.4336 -7.8481,7.8483 -8.1215,12.3713 -1.5438,25.5647 11.5021,23.0715 34.4008,32.2469 80.7468,32.3555 74.8364,0.1746 105.5917,27.6412 118.4812,105.8088 6.4768,39.2746 31.7826,73.1214 66.4361,88.8582 20.0382,3.8035 49.5726,20.7765 65.768,7.5684 z m 110.4915,-36.4327 c 30.8439,-31.6119 41.2047,-47.1126 44.3036,-66.2866 7.8868,-48.8055 10.095,-53.7204 31.4594,-70.016 11.8772,-9.0589 40.9558,-21.2485 64.6198,-27.0881 33.792,-8.3386 43.0256,-13.194 43.0256,-22.6222 0,-10.9299 -7.1799,-15.1178 -21.5745,-12.5854 -2.9736,0.5239 -6.9509,-4.9517 -8.8377,-12.1676 -3.9613,-15.1463 -8.9659,-16.3783 -20.4652,-5.0358 -6.5617,6.4722 -9.7199,6.1404 -15.8442,-1.6673 -4.2064,-5.3624 -13.8169,-8.8474 -21.3559,-7.7441 -9.3778,1.3722 -14.8037,-2.1865 -17.1787,-11.2675 -7.4664,-28.5523 -69.3521,-4.7661 -69.3521,26.6563 0,7.9033 -4.8096,11.8391 -14.5502,11.9057 -20.4379,0.1423 -29.0569,7.0897 -31.6827,25.5517 -1.7653,12.4108 -7.6605,17.2195 -26.5603,21.6695 -26.3152,6.196 -38.6957,28.9973 -24.8214,45.7151 4.015,4.8379 5.4834,13.5308 3.2639,19.3168 -2.2205,5.7861 -1.0236,10.5205 2.6597,10.5205 3.6832,0 11.2637,4.567 16.846,10.1493 7.5003,7.5004 8.4655,13.2973 3.6965,22.2095 -3.5504,6.6325 -6.4721,17.3438 -6.4947,23.8017 0,6.4586 -4.3873,20.0781 -9.7001,30.2661 -12.4833,23.935 -12.2185,25.6888 3.2723,21.6378 7.1139,-1.8599 15.5577,1.0852 18.6236,2.083 9.3033,3.0312 20.6791,1.8613 56.6473,-35.0024 z" fill="#00B894" transform="translate(-262.87616,103.59809) matrix(0.26458333,0,0,0.26458333,-1257.7375,-1551.2553)"/>
</svg>