<?xml version="1.0" ?><svg height="150.10402mm" viewBox="0 0 101.79282 150.10402" width="101.79282mm" xmlns="http://www.w3.org/2000/svg">
    <path color="#000" d="m 5437.3019,5331.2167 c 0,0 133.8146,-75.2014 205.8405,-177.941 72.0269,-102.7398 71.5566,-224.5292 71.5566,-224.5292 l 7.8189,-9.1326 -19.3531,-69.4734 46.3705,-11.5449 18.2127,81.9786 c 0,0 46.0462,75.8379 13.093,210.4588 -32.9541,134.6209 -128.2831,245.7281 -272.1013,258.9678 -143.8172,13.2396 -71.4378,-58.7841 -71.4378,-58.7841 z" fill="#FFFFFF" overflow="visible" paint-order="fill markers stroke" transform="translate(-89.542147,112.32481) matrix(0.26458333,0,0,0.26458333,-1342.8768,-1390.495)"/>
    <path d="m 5735.9437,4830.8823 c -16.2457,0.1618 -36.3311,7.2088 -39.4837,14.4881 -1.7549,4.0515 3.0225,19.128 12.3023,38.5366 6.8368,14.2966 11.5191,27.669 13.7556,35.7069 -2.2978,1.5017 -5.5776,4.4254 -7.8189,9.1326 -5.8858,14.9337 -7.8142,25.2259 -11.3174,40.3049 -7.7105,42.8823 -32.8344,123.217 -45.7616,146.3151 -30.6111,54.6971 -108.2637,130.6768 -200.7794,196.4466 -34.5233,24.5436 -39.8409,28.3015 -42.199,41.0124 -5.8377,39.3981 22.1674,39.1937 55.4363,43.513 54.359,10.7151 162.9375,-25.3078 232.7099,-94.5536 59.5248,-59.0759 78.5037,-101.2885 89.6798,-199.4914 6.8123,-59.8655 7.9583,-98.4798 3.3712,-123.3272 -4.0074,-24.2786 -6.4833,-47.609 -28.0908,-58.3921 0,-24.3398 -7.8302,-72.6779 -11.1902,-81.1153 -2.5042,-6.2878 -10.866,-8.6729 -20.6141,-8.5766 z m -1.1876,13.9701 c 14.6425,-1.1499 15.6463,8.3921 17.3296,39.4588 0.9575,17.6529 2.9943,29.8329 5.2044,39.2314 3.3119,14.0877 17.748,3.3674 21.4096,55.5375 4.2515,42.2029 -5.9707,157.985 -21.6367,203.0398 -25.3445,72.8906 -77.3492,129.3784 -156.3194,169.7962 -76.8194,39.3174 -147.983,40.7168 -156.357,3.0823 -4.0028,-17.9892 -2.1414,-20.175 38.3093,-44.9281 70.878,-43.3714 158.1044,-129.4902 192.5317,-190.0935 11.8263,-20.8185 38.3951,-113.3997 44.8775,-143.9405 2.3091,-10.8819 4.7869,-31.789 7.0602,-41.3536 4.3637,-6.2026 5.9999,-10.4986 6.227,-17.5444 -0.2064,-11.5591 -5.4287,-21.5486 -10.2429,-31.059 -16.8762,-33.6328 -23.6358,-38.4598 11.6067,-41.2269 z m 28.5207,117.8963 c -2.0688,-0.4398 -4.4354,4.4208 -6.555,15.3208 0,0 -12.1553,119.17 -16.1929,144.1552 -12.5417,63.1792 -56.8104,126.7721 -109.1299,170.8064 -52.3223,44.0382 -104.2694,65.5603 -148.4882,71.3644 -16.5699,2.1748 -22.5349,6.7483 -4.3826,7.8309 44.9445,2.6819 106.4683,-24.4821 160.2345,-69.7348 53.7661,-45.2526 102.7049,-106.1566 115.9761,-173.0291 10.0997,-49.0442 10.636,-102.0811 13.2881,-150.244 -0.9095,-10.2938 -2.6814,-16.0314 -4.7501,-16.4698 z m -112.1864,207.448 c -1.5645,-0.1875 -4.0366,1.7752 -6.2147,6.0376 -32.3038,41.377 -47.3903,59.6979 -92.7353,95.4132 -12.4163,9.7793 -3.5079,12.8337 1.2629,9.5866 43.8654,-29.8554 72.5934,-53.6203 98.4449,-104.2296 1.459,-4.2889 0.8058,-6.6228 -0.7578,-6.8078 z" fill="#00B894" transform="translate(-89.542147,112.32481) matrix(0.26458333,0,0,0.26458333,-1342.8768,-1390.495)"/>
</svg>