<?xml version="1.0" ?><svg height="189.85924mm" viewBox="0 0 191.23965 189.85924" width="191.23965mm" xmlns="http://www.w3.org/2000/svg">
    <path d="m -4126.1212,11154.971 c -3.0136,-48.14 -8.6641,-88.144 10.0453,-128.261 18.7094,-40.117 163.7389,-315.398 178.4302,-336.304 14.6913,-20.906 66.2992,-53.113 101.2067,-54.243 34.9075,-1.13 36.9167,-44.185 59.7697,-68.029 22.8531,-23.845 55.1237,-20.454 55.2493,-8.589 0.1256,11.866 3.6414,27.574 3.6414,27.574 38.6203,1.75 52.6076,-15.815 68.1827,-16.499 18.1984,-0.8 41.3114,1.921 35.4098,23.279 -5.9016,21.358 -7.534,23.731 -7.534,23.731 l 24.1088,29.946 c 0,0 45.5808,-8.362 56.1284,-7.571 10.5475,0.791 2.5112,29.721 2.5112,29.721 0,0 32.6475,-1.357 38.0468,7.345 9.4898,12.631 30.9215,24.545 28.8802,34.241 0.7274,17.975 -19.5762,40.382 -21.6364,38.692 0,0 30.6773,-0.05 21.511,13.629 -9.1664,13.674 -9.0409,21.245 -9.0409,21.245 0,0 45.204,4.407 53.617,20.793 8.413,16.386 -26.7457,76.957 -26.7457,76.957 0,0 27.2479,21.923 8.1618,44.637 -19.0861,22.714 -21.0951,71.307 -33.903,84.415 -12.8078,13.109 -70.5684,47.123 -70.5684,47.123 0,0 -5.7761,31.868 -29.5082,41.813 -23.7321,9.944 -222.8808,79.781 -260.2997,106.79 -37.4188,27.008 -105.6015,47.349 -164.4922,40.117 -58.8908,-7.233 -75.7167,-19.889 -75.7167,-19.889 0,0 -35.6609,0.678 -45.4551,-72.663 z" fill="#FFFFFF" style="font-variation-settings:normal" transform="translate(-313.35043,-124.29656) matrix(0.26458333,0,0,0.26458333,1408.2786,-2663.8253)"/>
    <path d="m -4020.0178,11253.934 c -1.862,-0.631 -8.904,-2.067 -15.647,-3.19 -6.745,-1.123 -15.741,-5.057 -19.991,-8.745 -4.249,-3.685 -12.14,-6.699 -17.534,-6.699 -14.849,0 -28.349,-8.535 -39.777,-25.146 -15.219,-22.122 -17.899,-31.131 -18.69,-62.901 -0.394,-15.83 -2.445,-35.034 -4.551,-42.674 -8.268,-29.963 7.884,-77.746 47.648,-140.954 13.211,-20.999 41.344,-74.75 62.521,-119.45 71.327,-150.55 64.5821,-151.649 91.1291,-177.652 28.949,-28.353 63.5429,-37.383 86.6329,-37.383 18.534,0 27.4114,-15.547 43.3054,-45.372 17.375,-32.597 46.9,-50.705 73.245,-44.915 13.881,3.047 19.1926,16.826 17.5016,31.307 -1.23,10.538 -0.268,12.666 6.966,15.416 14.487,5.511 17.41,12.604 15.152,36.793 -2.351,25.205 -8.011,38.245 -22.443,51.73 l -10.156,9.486 7.645,7.121 c 9.591,8.935 17.055,26.474 17.055,40.077 0,12.883 -13.137,26.02 -28.997,28.995 -11.153,2.092 -11.225,2.227 -9.437,17.855 1.495,13.069 0.541,17.079 -5.617,23.589 -9.047,9.556 -7.793,11.408 5.278,7.803 8.067,-2.229 9.87,-4.462 9.372,-11.601 -0.512,-7.334 2.953,-11.245 20.319,-22.941 39.623,-26.681 47.974,-38.191 39.374,-54.262 -5.829,-10.891 -0.856,-18.35 22.158,-33.233 24.955,-16.138 35.596,-29.162 35.596,-43.565 0,-10.365 -7.6686,-20.9 -12.2394,-16.449 -1.4145,1.378 -6.3395,3.885 -5.5068,-4.422 0.8327,-8.307 7.4232,-27.428 9.3022,-34.636 2.2531,-8.643 1.653,-9.158 -13.259,-11.395 -10.447,-1.568 -20.65,-0.686 -30.818,2.663 -18.045,5.941 -15.5834,-5.909 1.8046,-13.173 17.0107,-5.06 55.1354,-8.534 60.482,6.351 2.443,6.977 -3.0366,20.204 -7.1136,31.205 -5.233,14.116 -5.187,15.134 0.915,20.659 3.532,3.193 7.319,8.641 8.42,12.106 1.888,5.95 2.589,5.994 12.631,0.803 5.85,-3.025 19.933,-6.246 31.298,-7.158 26.145,-2.1 33.781,3.66 31.123,23.473 -1.681,12.537 -1.412,12.94 8.548,12.94 7.366,0 13.455,3.363 21.461,11.853 6.149,6.517 13.264,11.85 15.807,11.85 11.707,0 18.065,21.884 7.533,25.925 -7.344,2.816 -10.084,-1.091 -5.032,-7.176 4.624,-5.574 3.916,-6.08 -14.058,-10.004 -6.057,-1.323 -9.438,-4.513 -10.159,-9.595 -0.975,-6.872 -3.394,-7.78 -24.786,-9.308 -25.774,-1.841 -25.682,-1.729 -20.111,-24.549 2.15,-8.799 1.647,-9.298 -9.124,-9.042 -20.082,0.48 -41.495,7.734 -45.26,15.329 -5.686,11.479 -22.806,29.353 -38.207,39.887 -13.943,9.54 -17.657,16.53 -10.973,20.659 1.822,1.128 16.601,-4.962 32.842,-13.529 25.929,-13.676 31.206,-15.3 43.25,-13.316 7.546,1.243 15.859,3.993 18.471,6.108 2.618,2.118 11.825,3.85 20.469,3.85 9.339,0 19.428,2.437 24.876,6.005 7.691,5.039 9.164,8.432 9.164,21.082 0,14.784 0.179,15.014 8.687,11.774 15.636,-5.945 34.665,-4.113 38.868,3.742 3.271,6.116 1.974,8.755 -9.819,19.976 -7.477,7.108 -12.674,13.843 -11.552,14.964 1.12,1.122 7.016,2.039 13.104,2.039 14.143,0 28.082,5.301 37.751,14.359 11.295,10.579 10.054,27.008 -3.479,46.142 -6.105,8.629 -12.848,20.691 -14.984,26.799 -3.493,9.991 -3.059,11.932 4.328,19.317 5.244,5.245 8.209,12.096 8.209,18.969 0,13.024 -11.334,32.414 -20.678,35.379 -8.285,2.629 -13.183,14.546 -13.183,32.057 0,7.208 -1.484,17.002 -3.295,21.764 -6.189,16.279 -29.941,37.968 -54.351,49.625 -21.117,10.085 -24.135,12.737 -27.127,23.851 -1.991,7.395 -8.516,17.023 -15.962,23.563 -15.183,13.331 -57.55,33.463 -92.288,43.853 -80.253,24.003 -104.223,33.311 -165.933,64.445 -81.819,41.277 -111.827,50.692 -160.385,50.314 -18.881,-0.148 -35.853,-0.785 -37.719,-1.417 z m 101.739,-24.036 c 16.682,-4.834 56.998,-21.777 89.593,-37.65 64.937,-31.628 98.416,-45.177 152.386,-61.67 41.237,-12.605 93.251,-36.743 103.855,-48.199 4.038,-4.363 8.669,-13.265 10.29,-19.784 2.673,-10.741 5.959,-13.36 34.988,-27.909 40.657,-20.38 47.8615,-37.405 49.0386,-62.241 1.9547,-41.242 37.8361,-46.818 28.1104,-66.755 -5.039,-9.412 -23.929,-15.799 -46.729,-15.799 -17.007,0 -21.454,-1.253 -26.353,-7.425 -3.241,-4.082 -9.967,-11.7 -14.945,-16.93 -15.881,-16.683 -37.595,-11.449 -78.742,18.979 l -26.491,19.59 -32.804,-2.346 c -32.035,-2.294 -33.048,-2.141 -43.338,6.517 -5.793,4.873 -13.894,15.806 -18.004,24.295 -15.258,31.519 -29.962,35.773 -57.696,16.694 -25.947,-17.846 -49.005,-20.102 -52.909,-5.176 -2.309,8.834 -7.748,8.714 -7.748,-0.177 0,-3.811 3.944,-10.871 8.761,-15.692 8.067,-8.063 10.361,-8.594 28.786,-6.669 15.314,1.601 20.022,1.049 20.022,-2.343 0,-2.442 3.926,-8.128 8.723,-12.637 7.501,-7.045 8.438,-10.116 6.68,-21.847 -1.859,-12.402 -0.957,-14.705 9.901,-25.227 9.409,-9.121 11.943,-14.225 11.943,-24.044 0,-6.952 -2.246,-14.332 -5.079,-16.684 -7.569,-6.28 -6.219,-11.982 5.079,-21.491 12.004,-10.099 12.794,-17.598 2.96,-28.067 -10.129,-10.779 -6.608,-15.93 16.694,-24.425 11.167,-4.074 21.118,-9.527 22.113,-12.121 3.864,-10.067 -5.768,-29.763 -18.755,-38.36 -7.069,-4.676 -12.852,-10.228 -12.852,-12.333 0,-2.106 6.184,-7.62 13.74,-12.25 18.649,-11.428 30.284,-27.322 30.284,-41.378 0,-6.271 1.674,-13.077 3.722,-15.124 6.351,-6.349 0,-17.667 -11.558,-20.649 -9.383,-2.417 -11.012,-4.517 -12.482,-16.124 -1.684,-13.265 -1.778,-13.339 -15.163,-12.176 -16.959,1.478 -35.142,15.483 -48.694,37.508 -5.57,9.052 -15.577,20.613 -22.235,25.694 -9.949,7.586 -12.121,11.432 -12.154,21.534 -0.03,6.765 -2.271,20.677 -4.998,30.923 -4.891,18.368 -4.821,18.921 5.12,40.169 12.647,27.038 12.905,42.142 1.016,59.638 -6.85,10.082 -8.88,16.875 -8.313,27.816 0.955,18.472 -2.791,25.188 -21.583,38.681 -14.651,10.523 -15.007,11.185 -9.366,17.417 7.683,8.491 7.07,29.703 -1.182,40.863 -3.502,4.74 -12.318,11.996 -19.591,16.129 -12.453,7.075 -12.847,7.776 -6.772,12.071 23.386,16.536 28.967,29.522 20.404,47.475 -6.313,13.244 -25.584,23.538 -50.438,26.945 l -15.084,2.068 1.499,13.994 c 2.013,18.824 -4.402,27.042 -21.477,27.513 -7.213,0.202 -17.11,3.002 -21.995,6.227 -4.883,3.226 -13.621,6.464 -19.416,7.198 -10.856,1.374 -27.275,16.483 -27.471,25.279 -0.05,2.645 2.36,7.538 5.374,10.869 12.484,13.796 -6.892,43.577 -28.347,43.577 -7.25,0 -11.916,4.598 -13.185,12.986 -1.319,8.699 -21.518,19.153 -21.518,11.136 0,-1.637 2.391,-4.959 5.314,-7.384 2.924,-2.425 4.561,-7.297 3.64,-10.825 -2.218,-8.479 9.057,-19.457 19.985,-19.457 4.739,0 12.517,-3.896 17.28,-8.66 8.011,-8.014 8.256,-9.111 3.231,-14.66 -6.078,-6.716 -7.328,-25.9 -1.904,-29.253 1.937,-1.198 7.063,-7.784 11.39,-14.636 6.932,-10.98 9.556,-12.503 22.102,-12.835 10.405,-0.274 15.593,-2.31 19.279,-7.572 3.857,-5.508 8.584,-7.2 20.092,-7.2 17.111,0 18.961,-4.179 9.189,-20.726 -8.56,-14.484 -3.14,-20.145 26.19,-27.355 13.7,-3.367 28.443,-8.438 32.766,-11.27 11.307,-7.41 10.336,-21.667 -2.303,-33.776 -5.588,-5.354 -10.161,-12.086 -10.161,-14.965 0,-2.876 8.512,-13.087 18.912,-22.689 14.421,-13.316 18.643,-19.359 17.779,-25.458 -0.956,-6.744 -3.525,-8.268 -16.372,-9.696 -10.329,-1.148 -15.238,-3.284 -15.238,-6.637 0,-4.998 6.027,-9.457 40.821,-30.206 l 19.196,-11.448 -2.182,-16.44 c -1.818,-13.712 -0.757,-19.111 6.395,-32.547 4.717,-8.861 8.577,-17.361 8.577,-18.89 0,-1.53 -4.559,-12.232 -10.13,-23.788 -12.09,-25.066 -12.745,-30.808 -6.957,-61.052 5.041,-26.327 2.585,-23.361 -16.852,-23.451 -19.4073,2.874 -34.6355,20.878 -49.8846,33.892 -11.648,9.921 -29.1604,35.906 -37.8014,57.642 -21.028,52.902 -82.743,171.294 -117.83,226.052 -37.575,58.639 -52.786,96.491 -51.712,128.682 0.374,11.175 0.653,28.319 0.617,38.096 -0.05,11.709 1.342,17.779 4.046,17.779 4.077,0 23.918,18.547 35.14,32.852 8.6965,14.179 27.2968,3.9 43.222,1.258 39.228,-6.511 72.753,-20.226 101.471,-41.513 70.175,-52.015 93.584,-68.176 118.521,-81.814 16.636,-9.098 19.987,-4.248 10.006,4.044 -54.926,45.637 -152.827,110.239 -173.026,119.724 -11.439,5.369 -35.058,12.485 -52.489,15.81 l -31.694,6.049 1.17,11.586 c 2.4146,22.61 13.986,16.056 29.1854,18.987 8.178,1.606 29.7336,3.871 49.3716,4.078 25.6673,-0.08 47.8497,-3.209 66.033,-8.411 z m -67.596,-20.184 c 12.661,-2.936 28.443,-7.604 35.074,-10.372 15.175,-6.34 56.576,-31.959 83.171,-51.467 22.1427,-17.743 100.5438,-49.731 48.7002,-15.299 -41.9745,25.482 -79.4872,57.463 -124.1092,78.187 -14.891,6.824 -26.108,9.176 -48.192,10.106 -40.1375,2.813 -14.892,-6.402 5.356,-11.155 z m -110.33,-70.079 c 0,-0.467 2.365,-12.18 5.255,-26.032 6.766,-32.429 16.698,-61.889 28.047,-83.18 9.74,-18.271 67.097,-106.342 78.294,-120.215 19.583,-24.264 -6.952,32.781 -38.628,83.046 -22.124,35.104 -39.947,71.205 -51.688,104.702 -8.586,24.504 -16.927,42.526 -19.677,42.526 -0.885,0 -1.606,-0.381 -1.603,-0.847 z m 22.065,78.64 c 3.459,-5.599 -11.366,-32.593 -23.991,-43.676 -21.903,-19.232 -29.47,-3.602 -10.83,22.36 13.838,19.265 29.98,29.146 34.821,21.316 z m 318.612,-288.594 c 13.705,-22.157 32.103,-39.622 45.276,-42.988 12.349,-3.153 58.873,-0.1 63.111,4.137 1.322,1.324 10.16,-4.924 19.639,-13.881 34.052,-32.173 65.756,-43.847 90.725,-33.414 6.786,2.833 15.086,9.47 18.448,14.747 8.143,12.789 11.679,15.065 20.278,13.047 3.983,-0.931 14.218,-0.391 22.749,1.202 13.191,2.466 16.373,1.942 21.296,-3.497 4.272,-4.719 4.793,-7.389 1.993,-10.187 -2.801,-2.801 0.204,-7.681 11.479,-18.637 17.447,-16.957 18.325,-25.357 3.783,-36.174 -6.461,-4.806 -16.108,-7.383 -31.218,-8.346 -25.971,-1.653 -30.143,-7.373 -19.074,-26.131 4.515,-7.656 5.49,-11.722 2.804,-11.697 -9.609,0.1 -40.764,10.091 -51.873,16.646 -12.991,7.666 -18.278,6.804 -18.278,-2.978 0,-3.417 -2.099,-7.015 -4.663,-7.998 -6.033,-2.317 -30.529,3.21 -43.134,9.73 -7.205,3.725 -11.575,4.152 -16.353,1.594 -10.721,-5.737 -21.858,-4.06 -48.092,7.234 -13.697,5.897 -30.207,11.632 -36.681,12.745 -7.279,1.25 -13.149,4.775 -15.37,9.234 -5.867,11.766 -11.861,17.621 -19.181,18.738 -5.74,0.873 -6.995,3.817 -7.53,17.662 -0.571,14.807 -2.136,17.938 -14.411,28.831 -12.858,11.411 -13.447,12.706 -8.891,19.566 4.3,6.475 4.19,8.803 -0.905,19.544 -3.182,6.706 -8.635,13.717 -12.117,15.579 -3.484,1.865 -6.332,4.505 -6.332,5.871 0,2.651 16.935,13.97 21.121,14.123 1.374,0.05 6.505,-6.387 11.401,-14.302 z m 132.935,-169.656 c 6.992,2.541 12.63,1.556 25.872,-4.524 16.548,-7.594 40.36,-10.214 47.7,-5.248 2.021,1.37 5.068,5.025 6.771,8.123 2.839,5.161 4.368,5.021 18.337,-1.694 12.602,-6.057 15.415,-9.133 16.257,-17.774 0.604,-6.184 -1.028,-12.147 -3.998,-14.61 -6.473,-5.373 -22.39,-5.791 -31.653,-0.834 -11.272,6.032 -17.738,4.635 -21.242,-4.584 -4.821,-12.676 -17.991,-10.773 -47.256,6.83 -13.884,8.347 -27.599,15.189 -30.476,15.203 -4.235,0.02 -12.85,10.567 -19.688,24.111 -0.59,1.166 6.016,-0.202 14.682,-3.062 11.293,-3.719 18.281,-4.267 24.694,-1.937 z" fill="#00B894" transform="translate(-313.35043,-124.29656) matrix(0.26458333,0,0,0.26458333,1408.2786,-2663.8253)"/>
</svg>