<?xml version="1.0" ?><svg height="161.23335mm" viewBox="0 0 136.17377 161.23335" width="136.17377mm" xmlns="http://www.w3.org/2000/svg">
    <path d="m 28631.854,634.04102 c -15.272,-0.32882 -32.782,19.26757 -32.782,19.26757 0,0 -34.077,-11.24519 -49.349,-6.9707 -15.272,4.2745 -28.937,24.79126 -56.631,28.80273 -27.694,4.01144 -46.326,14.99423 -51.442,42.48243 -5.114,27.48824 33.918,44.02734 33.918,44.02734 0,0 -20.39,118.19551 -18.125,179.55078 2.265,61.35523 31.711,169.00583 31.711,169.00583 0,0 -1.752,22.4908 -4.017,38.8653 -2.266,16.3746 0.51,52.5442 38.508,60.041 37.997,7.4968 189.692,6.3792 234.339,-11.3106 44.646,-17.6897 32.223,-72.7325 25.354,-92.4609 -6.868,-19.7284 0.951,-45.9668 0.951,-45.9668 0,0 30.179,30.8413 67.664,29.7891 37.485,-1.0522 60.722,-17.4918 68.248,-41.9551 7.527,-24.4632 14.607,-138.68083 4.231,-203.71877 -10.376,-65.03795 -41.943,-66.48499 -77.455,-66.74804 -35.514,-0.26306 -68.541,32.28906 -68.541,32.28906 l -4.457,-42.67969 c 0,0 10.302,1.51337 14.175,-2.30078 3.872,-3.81411 7.744,-8.28603 6.867,-27.09375 -0.876,-18.80772 -29.886,-68.26061 -57.945,-87.26562 -28.059,-19.00502 -68.685,-3.61719 -68.685,-3.61719 0,0 -21.265,-11.70439 -36.537,-12.0332 z m 218.914,206.57812 c 20.766,0.0743 26.354,22.6682 28.025,45.85938 1.754,24.3317 3.289,72.86458 -4.529,93.71093 -7.819,20.84635 -29.375,20.12135 -46.619,17.55664 -17.245,-2.56466 -32.956,-15.38672 -32.956,-15.38671 l 3.807,-95.88477 c 0,0 25.713,-43.3976 49.096,-45.69922 1.096,-0.10789 2.154,-0.1599 3.176,-0.15625 z" fill="#FFFFFF" transform="translate(111.4596,28.156313) translate(-6206.987,145.44942) matrix(0.26458333,0,0,0.26458333,-1427.0649,-338.9427)"/>
    <path d="m 6125.2635,-13.932705 c -9.9474,-0.989244 -15.1855,-5.921197 -17.5448,-10.599348 -2.2589,-4.479878 -2.3287,-8.85657 -0.2372,-14.915838 1.3118,-3.801035 1.3892,-4.750701 0.4719,-5.788934 -1.9204,-2.172998 -5.3402,-14.590877 -7.0535,-25.613477 -3.3815,-21.754746 -1.4645,-49.002188 4.5492,-64.658048 0.3971,-1.03371 -0.087,-1.50336 -1.9791,-1.91882 -6.3641,-1.39781 -9.8928,-10.38176 -6.8127,-17.34491 2.3665,-5.34961 6.4375,-8.61438 13.5448,-8.43078 5.5171,0.14253 5.7006,0.079 8.6833,-2.99973 5.5645,-5.74402 13.0752,-7.11532 18.5652,-3.3897 3.6155,2.44159 2.3375,2.60774 5.2447,-0.42667 3.4048,-3.55393 7.9185,-4.5507 11.8343,-2.61338 2.7974,1.38412 3.3689,1.41661 5.9242,0.33693 1.5556,-0.6572 5.247,-1.23051 8.2035,-1.27401 6.6956,-0.0985 10.1176,3.60249 16.8009,10.82139 5.4452,5.88136 8.993,12.7057 9.5345,18.33914 0.3281,3.41759 0.038,4.61467 -1.7931,7.38097 -1.3944,2.10679 -2.8128,3.30179 -3.9193,3.30179 -1.5559,0 -1.6747,0.31931 -1.155,3.10119 0.4287,4.64331 2.0072,0.99657 4.3031,-1.06423 1.7717,-1.60082 5.3309,-3.69979 7.9091,-4.66445 8.5647,-3.2044 17.2695,-1.04861 22.7028,4.42415 6.6876,6.73635 9.3848,19.79367 8.4966,42.086425 -0.2899,7.277494 -1.0464,16.094912 -1.6809,19.594243 -2.6873,14.819935 -12.8438,24.847416 -24.6152,23.453307 -4.592,-0.54385 -9.5896,-2.836103 -12.0041,-5.505914 -2.2401,-2.606992 -1.5558,-2.020626 -2.5431,0.910778 -0.7422,2.204761 -0.7391,2.273324 0.4801,5.482439 2.5205,6.633185 2.8086,12.230674 0.8472,16.455194 -2.3794,5.124587 -4.0499,9.254394 -10.1248,11.374363 -20.5593,7.174611 -34.4478,6.352155 -56.6326,4.14593 z m 60.2805,-15.817984 c 3.086,-4.108693 3.4126,-7.262158 1.3644,-13.18041 -2.591,-7.486758 -2.7962,-11.286254 -1.3254,-24.535699 1.8616,-16.770127 1.7007,-34.714742 -0.4674,-52.091992 -1.5578,-12.48511 -2.0384,-14.60993 -3.6744,-16.24601 -2.2244,-2.18102 -1.4044,-2.41887 -3.379,-0.20116 -4.0742,4.57656 -10.9275,4.78168 -16.8331,0.50384 -4.1151,-3.03635 -2.614,-2.74844 -7.2671,-1.10253 -8.1424,2.8804 -25.1186,2.35468 -32.1838,-0.99669 -1.7359,-0.82341 -3.6387,-1.08111 -5.3755,-0.72796 -1.4785,0.30068 -3.8201,0.74678 -5.2037,0.99133 -4.5497,0.25012 -3.118,5.3776 -3.6431,9.67786 -0.6204,5.07831 -1.2897,16.30403 -1.487,24.94605 -0.4079,17.850523 0.7775,29.264373 4.8943,47.121772 1.6576,7.191252 2.2975,11.69512 1.9388,13.645337 -1.188,6.45906 -1.2794,12.04805 -0.2296,14.054782 2.3657,4.523059 16.7567,7.265813 38.6704,7.370161 11.3165,0.191055 27.7288,-0.866711 34.2012,-9.228681 z m -29.5594,-7.813126 c -0.3275,-0.327469 -1.3845,-0.606564 -2.3489,-0.620238 -1.2382,-0.01635 -1.9492,-0.752118 -2.4188,-2.498518 -1.9773,-7.354213 -4.8329,-65.041369 -3.6642,-74.022839 0.4231,-3.25159 1.2771,-5.35708 2.9952,-7.38469 2.2853,-2.69693 2.4797,-2.76735 3.953,-1.4339 3.7742,3.41554 4.8395,13.77745 5.5249,53.739428 0.3937,22.953764 0.2801,30.739891 -0.4604,31.632335 -1.0633,1.281158 -2.6305,1.538701 -3.5808,0.588422 z m 0.2855,-13.876905 c -0.3512,-5.458133 -0.8863,-20.902145 -1.189,-34.320042 -0.5506,-24.404518 -1.4025,-34.421098 -3.0599,-35.974048 -0.6247,-0.58528 -0.7229,3.52376 -0.3364,14.05883 0.7173,19.554271 2.8407,58.189971 3.5117,63.898198 0.9529,8.107363 1.7312,2.552856 1.0736,-7.662938 z m -21.4674,11.991325 c -2.1112,-2.111228 -2.0978,-3.346695 0.043,-3.906327 1.3157,-0.344037 1.6046,-0.929513 1.2892,-2.610297 -0.2228,-1.191716 -0.6424,-5.516047 -0.9303,-9.60964 -0.2878,-4.093594 -1.0612,-11.350436 -1.7185,-16.1263 -1.3135,-9.543018 -2.7875,-32.061401 -2.8058,-42.865611 0,-5.14153 -0.2743,-6.80416 -1.0455,-6.54743 -0.7813,0.26014 -1.0924,5.37519 -1.2748,20.9504 -0.2682,22.942826 0.6407,36.368906 3.1884,47.096577 1.7654,7.43277 1.6841,9.483689 -0.3762,9.483689 -2.5518,0 -6.1231,-15.783407 -7.0173,-31.012079 -0.6751,-11.493996 0.024,-38.571137 1.1423,-44.854117 0.5035,-2.80516 2.408,-4.35175 5.3592,-4.35175 3.0763,0 4.0248,4.26689 4.9911,22.44829 0.492,9.258555 1.2455,19.339382 1.6742,22.401868 1.4949,10.674767 3.2674,29.201331 3.2691,34.168666 0,6.800501 -2.2475,8.87396 -5.7873,5.334061 z m -13.8966,-4.755177 c -6.7522,-9.572395 -8.3642,-17.513143 -8.4033,-41.396744 -0.028,-16.738344 0.8132,-24.969144 2.5504,-24.969144 0.4008,0 0.7287,0.0939 0.7287,0.20887 0,6.13471 2.8598,43.771725 3.7428,49.259829 1.3108,8.146025 1.8623,9.640626 5.1613,13.994359 1.1165,1.4736 1.8146,3.241289 1.5509,3.928184 -0.7642,1.991563 -3.5853,1.448972 -5.3308,-1.025284 z m 51.1111,0.7167 c 0,-0.401803 -0.6935,-0.911879 -1.5408,-1.133497 -1.4558,-0.38068 -1.5613,-1.951878 -1.9073,-28.420824 -0.5654,-43.277057 0.1477,-51.148067 4.4779,-49.486017 3.9059,1.49885 5.5606,11.03563 6.1635,35.526954 0.7043,28.612435 -1.2375,44.243906 -5.497,44.243906 -0.9331,0 -1.6963,-0.328728 -1.6963,-0.730522 z m 2.5235,-52.196781 c -0.517,-10.233977 -1.2839,-19.909747 -1.7035,-21.501707 -0.5275,-1.99983 -0.6466,0.55626 -0.3856,8.2699 0.2086,6.14037 0.6449,19.723688 0.9714,30.185091 0.5918,18.951718 0.5967,18.989235 1.3262,10.337365 0.4667,-5.536165 0.3912,-15.427435 -0.2086,-27.290649 z m -62.5129,-25.885407 c -0.7054,-2.8106 0.9561,-8.38973 3.3083,-11.10917 1.7656,-2.04116 2.0402,-2.1293 2.5493,-0.81891 0.3139,0.80766 0.054,4.15696 -0.575,7.44291 -0.9774,5.09474 -1.4134,6.01275 -2.9619,6.23485 -1.3438,0.19269 -1.9472,-0.2623 -2.3207,-1.74968 z m 107.5375,61.937956 c 2.0178,-2.645575 2.4155,-4.227825 3.4003,-13.528574 2.3097,-21.815651 0.9358,-43.520182 -3.2245,-50.941562 -2.77,-4.94068 -6.301,-6.49844 -13.8173,-6.09549 -6.4841,0.34763 -11.4443,2.21899 -14.3253,5.40475 -1.4579,1.61226 -1.457,1.9163 0.033,9.3815 l 1.5385,7.71523 2.6445,-3.84345 c 5.2129,-7.57662 11.5254,-9.35912 16.2858,-4.59868 3.5644,3.56456 4.5754,8.51105 4.5754,22.386677 0,9.711269 -0.2109,11.364626 -1.8606,14.631689 -2.4994,4.947148 -6.3414,7.418055 -11.5345,7.418055 -2.2296,0 -5.1863,-0.585659 -6.5706,-1.301459 -1.3841,-0.715817 -2.6713,-1.146943 -2.8602,-0.958068 -0.1899,0.188945 -0.7284,3.415109 -1.1993,7.169404 -0.9928,7.918741 -0.8986,8.119892 5.2348,11.17631 8.0195,2.876192 16.2375,2.915629 21.68,-4.016332 z m -10.5436,-20.106758 c 1.0214,-1.265245 2.0877,-3.517708 2.3693,-5.005481 0.8624,-4.554018 -0.1219,-24.364157 -1.336,-26.879677 -2.3406,-4.85142 -7.2141,-3.43133 -13.2369,3.85718 l -3.2224,3.89955 0.4762,11.327473 c 0.278,6.613873 0.8643,11.738058 1.4088,12.314127 3.8765,4.100675 10.4327,4.336395 13.541,0.486828 z m -33.4094,-60.603198 c 3.5714,-3.09846 3.4856,-2.93503 6.8158,-0.4135 3.0611,2.33484 6.5336,2.70654 7.2734,0.77854 1.4506,-3.78008 -2.7519,-13.0876 -9.0944,-20.14197 -6.6517,-7.39841 -13.3939,-9.10149 -21.2328,-5.36339 -2.8348,1.35183 -2.9459,1.33637 -5.7462,-0.7994 -3.6929,-2.81696 -5.6422,-2.74467 -11.1631,0.41406 -4.4186,2.52816 -4.6378,2.56614 -8.9043,1.54263 -5.3488,-1.2832 -7.7828,-0.73848 -11.5741,2.5902 -2.336,2.05119 -4.2646,2.79888 -9.6125,3.72695 -7.9715,1.38333 -9.4127,2.06703 -11.0558,5.24449 -2.4804,4.79643 -0.7935,10.5548 3.6284,12.38643 2.1857,0.90541 3.0045,0.77427 7.0171,-1.12398 5.5238,-2.61315 7.4008,-2.66705 12.6031,-0.3618 5.139,2.27708 17.4088,2.97492 27.4447,1.56091 6.7178,-0.9465 7.4305,-0.90105 10.9086,0.69591 5.4438,2.49929 9.2592,2.27802 12.6921,-0.73608 z" fill="#00B894" transform="translate(111.4596,28.156313) translate(-6206.987,145.44942)"/>
</svg>