<?xml version="1.0" ?><svg height="156.92702mm" viewBox="0 0 108.47821 156.92702" width="108.47821mm" xmlns="http://www.w3.org/2000/svg">
    <path d="m -3324.5605,22980.787 c -0.4797,-0.04 -1.0254,0.187 -1.5059,0.301 -10.2516,2.289 -32.4503,2.012 -40.1582,15.816 -7.708,13.805 -24.9744,11.098 -30.1387,19.977 2.1582,18.244 11.1768,43.843 22.1992,49.392 11.0224,5.55 37.6153,8.741 37.6153,8.741 0,0 6.1661,43.424 12.7949,56.187 6.6289,12.764 36.844,23.655 54.5723,26.014 17.7283,2.358 36.998,-7.838 36.998,-7.838 0,0 -13.7191,-16.233 -6.3965,-25.182 7.3225,-8.949 35.09,-80.796 27.7481,-81.439 -11.2983,-0.989 -76.6024,11.782 -28.166,-21.457 0,0 -13.8928,-31.758 -18.9297,-37.992 -7.5588,-9.356 -41.5192,12.839 -41.5192,12.839 -22.0239,31.041 -17.9247,-10.914 -24.6605,-15.21 -0.1402,-0.09 -0.2933,-0.134 -0.4531,-0.149 z m -252.0938,213.682 c -23.3782,0.205 -46.0543,11.104 -64.3516,22.951 -35.4854,22.975 -70.0768,57.898 -72.1191,92.475 -2.0423,34.578 -12.8677,77.344 -28.5918,92.935 0,0 4.0694,16.747 26.6777,2.871 18.4061,-11.298 19.7898,-37.145 77.9961,-14.285 58.2063,22.861 65.4777,4.522 110.6641,-29.482 46.5447,-35.026 56.0362,-76.394 14.4238,-131.649 -20.156,-26.764 -42.7379,-36.009 -64.6992,-35.816 z" fill="#FFFFFF" transform="translate(-51.59423,-69.703143) matrix(0.24671918,-0.09557189,0.09557189,0.24671918,-205.49115,-5625.3167) translate(-3313.5291,-2437.8203)"/>
    <path d="m -7065.0901,20978.426 c 0,-8.2 -5.474,-10.384 8.273,-28.388 9.407,-12.32 13.951,-23.149 16.591,-39.542 6.213,-38.569 -2.9235,-66.934 26.9779,-96.037 18.1268,-17.642 29.6729,-28.131 54.1103,-42.566 18.3383,-10.833 68.5219,-44.915 111.5808,-15.637 9.062,6.162 69.9996,-43.785 121.0855,-101.654 20.1675,-22.845 31.1657,-32.813 24.7807,-35.252 -4.969,-1.896 -22.944,-39.301 -22.944,-47.741 0,-10.09 10.822,-15.773 20.335,-10.682 5.917,3.168 8.217,2.6 11.331,-2.797 8.064,-13.98 17.676,-21.031 27.564,-20.231 5.524,0.45 14.856,-0.509 20.738,-2.123 12.372,-3.395 17.239,1.588 17.328,17.735 0.06,12.476 -9.477,14.052 -13.245,2.184 -3.3832,-12.663 -2.9211,-7.65 -9.328,0.84 -6.42,8.515 -7.099,8.639 -13.855,2.525 -6.809,-6.165 -7.447,-5.814 -15.504,8.519 -6.206,11.047 -10.782,14.95 -17.52,14.95 -10.778,0 -11.097,2.407 -2.988,22.669 5.294,13.234 7.34,15.024 14.976,13.109 6.598,-1.654 8.843,-0.662 8.843,3.906 0,4.636 2.048,5.483 8.426,3.485 20.728,-6.486 23.401,-5.003 23.441,12.998 0.03,9.266 1.665,19.377 3.651,22.465 1.988,3.091 3.128,8.566 2.536,12.172 -0.593,3.604 0.713,6.552 2.9,6.552 2.191,0 3.979,2.527 3.979,5.617 0,3.088 -1.861,5.616 -4.139,5.616 -2.281,0 5.9287,3.313 1.8807,8.46 -4.05,5.151 -11.8083,1.538 -25.7617,10.263 -34.6125,19.36 -145.0489,83.877 -136.0748,114.555 16.5639,31.187 11.2233,65.406 -14.6397,90.012 -35.4004,34.601 -69.6906,50.954 -126.6338,50.637 -33.1723,-0.184 -51.5341,-18.785 -66.8909,-7.66 -16.9641,9.636 -59.9615,39.046 -61.804,21.041 z m 58.635,-42.826 c 22.26,-20.574 22.5857,-4.621 22.5857,-4.621 0.3803,6.5 0.9199,8.698 15.5104,12.85 71.2217,14.61 102.956,-5.848 148.9376,-50.851 19.1848,-18.777 13.4489,-61.937 -10.2998,-95.359 -9.8795,-13.904 -46.1795,-36.687 -66.8875,-32.049 -25.961,5.819 -33.428,10.44 -27.813,17.208 6.378,7.685 0.866,11.534 -8.312,5.803 -6.655,-4.158 -9.7556,-3.425 -23.221,5.485 l -15.546,10.286 12.161,4.961 c 14.5961,5.954 17.013,14.09 2.556,8.594 -15.651,-5.952 -23.083,-4.314 -37.366,8.226 -40.6017,26.88 -9.085,74.835 -45.3724,123.285 -4.28,7.257 -7.783,14.035 -7.783,15.064 0,4.079 22.065,-11.52 40.85,-28.882 z m 8.019,-79.265 c -9.373,-5.046 -10.072,-6.291 -4.237,-7.518 3.847,-0.808 9.644,1.18 12.883,4.418 8.557,8.553 4.312,10.079 -8.646,3.1 z m 133.5469,6.25 c -1.555,-5.906 -1.936,-11.624 -0.854,-12.705 3.015,-3.017 6.7,9.046 5.096,16.673 -1.049,4.992 -2.166,3.949 -4.242,-3.968 z m 17.564,-21.088 c -4.345,-14.448 -2.256,-23.25 3.204,-13.491 1.906,3.406 2.851,10.784 2.102,16.394 -1.335,10.003 -1.438,9.948 -5.306,-2.903 z m 193.0583,-156.893 c -2.093,-2.548 -2.75,-9.288 -1.459,-14.977 l 2.348,-10.347 -8.413,11.234 c -4.6281,6.179 -124.7938,102.652 -130.4958,107.743 -15.196,13.577 -13.826,22.034 4.6168,6.116 68.2647,-58.919 136.249,-96.301 133.403,-99.769 z m -94.0783,25.147 c 39.5025,-36.061 71.1883,-71.142 66.7923,-74.794 -4.277,-3.549 -28.6962,25.79 -49.5001,49.663 -4.8989,5.622 -66.3066,57.409 -84.6705,76.697 -24.5329,25.767 38.0038,-24.751 67.3783,-51.566 z m 87.3663,-64.378 c 8.8299,-15.563 -56.024,45.929 -60.799,55.031 -4.279,8.161 2.8777,2.988 10.8557,-4.095 4.418,-3.924 40.9061,-35.007 49.9433,-50.936 z m 54.696,74.458 c -14.308,-4.319 -25.005,-14.733 -20.134,-19.603 1.358,-1.358 16.892,-0.323 34.522,2.3 17.628,2.621 33.225,3.594 34.661,2.157 1.434,-1.434 -2.028,-6.907 -7.696,-12.162 -8.205,-7.609 -9.41,-10.636 -5.914,-14.848 2.415,-2.91 7.036,-5.289 10.264,-5.289 4.811,0 4.617,-0.919 -1.066,-5.077 -8.63,-6.309 -5.196,-17.391 5.393,-17.391 7.993,0 10.232,-5.424 3.86,-9.361 -7.096,-4.387 -3.716,-11.474 7.49,-15.705 12.82,-4.837 15.011,-15.835 3.744,-18.781 -10.311,-2.697 -9.499,-12.321 1.038,-12.321 23.023,0 34.49,27.424 16.418,39.267 -6.182,4.05 -8.9,9.579 -9.248,18.807 -0.281,7.19 1.143,13.074 3.139,13.074 7.825,0 3.068,15.156 -6.666,21.243 -5.665,3.544 -10.854,6.809 -11.537,7.256 -0.682,0.448 0.806,4.636 3.307,9.309 9.98,18.644 -24.645,28.274 -61.575,17.125 z m 33.668,-135.104 c 1.632,-4.248 0.09,-5.953 -5.383,-5.953 -10.948,0 -13.433,-6.395 -6.561,-16.883 3.266,-4.985 5.94,-9.967 5.94,-11.067 0,-5.11 -14.575,-1.099 -27.217,7.493 -10.592,7.197 -13.974,8.148 -13.974,3.934 0,-8.643 24.633,-25.349 38.289,-25.975 10.335,-0.474 13.06,1.244 17.328,10.929 2.923,6.631 9.657,13.228 15.915,15.591 14.305,5.399 13.698,12.915 -2.008,24.894 -15.5954,9.147 -27.347,12.711 -22.329,-2.963 z" fill="#00B894" transform="translate(-51.59423,-69.703143) matrix(0.24671918,-0.09557189,0.09557189,0.24671918,-205.49115,-5625.3167)"/>
</svg>