<?xml version="1.0" ?><svg height="85.652924mm" viewBox="0 0 85.242256 85.652924" width="85.242256mm" xmlns="http://www.w3.org/2000/svg">
    <path color="#000" d="m 1373.3726,10389.068 c -10.4996,20.608 -1.3999,87.023 3.5999,93.593 4.9997,6.569 75.4969,45.356 95.4961,53.185 19.9991,7.83 44.3982,11.999 91.2963,-4.47 46.8981,-16.468 126.5948,-83.633 141.4942,-102.081 14.8994,-18.449 22.899,-35.817 11.9995,-70.734 -10.8996,-34.918 -78.6968,-125.72 -106.8957,-139.669 -28.1988,-13.949 -64.5973,-33.208 -84.5965,-34.018 -19.9992,-0.809 -83.8966,41.667 -102.2958,74.874 -18.3993,33.208 -50.098,129.32 -50.098,129.32 z" fill="#FFFFFF" overflow="visible" paint-order="fill markers stroke" transform="translate(-5.3010451,-112.92057) matrix(0.22223527,0,0,0.22223527,-388.42105,-2298.4866) translate(420.33487,679.6737)"/>
    <path d="m 1477.4517,10552.828 c -4.2933,-2.77 -15.2422,-6.963 -21.5198,-7.007 -6.2775,-0.04 -18.9734,-5.552 -22.7133,-10.81 -6.6186,-9.304 -15.8306,-18.176 -49.4936,-34.28 -15.2413,-7.296 -17.1309,-16.639 -21.1689,-46.768 -3.8441,-28.682 -19.7325,-34.505 -5.297,-67.944 2.7581,-6.389 14.9945,-32.504 19.7853,-48.788 4.7909,-16.282 12.0957,-32.414 16.2332,-35.844 10.3432,-22.698 0.4253,-40.482 19.2689,-51.702 10.04,-5.925 19.8625,-17.288 21.5638,-24.069 1.9812,-7.89 11.2694,-16.278 25.8427,-23.335 12.5125,-6.057 26.935,-15.639 32.0499,-21.29 12.5621,-13.879 50.0487,-13.038 68.016,1.095 7.5413,5.932 13.7114,9.675 13.7114,8.318 0,-1.359 11.0993,1.498 24.6653,6.353 15.9423,5.702 31.4065,13.873 38.5836,24.519 7.9343,12.981 17.3846,10.362 22.1321,22.68 2.6384,6.835 10.9002,18.107 18.3595,25.046 13.1055,12.194 15.2764,35.711 5.5717,35.711 -6.5137,0 -31.6913,-30.561 -37.2732,-45.242 -2.5096,-6.601 -8.1339,-12.003 -12.4977,-12.003 -4.3644,0 -7.9347,-1.9 -7.9347,-4.223 0,-11.096 -22.165,-26.021 -43.3685,-29.202 -12.8485,-1.923 -24.5383,-6.568 -25.9769,-10.319 -3.6243,-9.445 -32.2915,-14.347 -46.4448,-7.942 -33.4781,15.151 -61.1441,38.19 -61.1441,50.914 0,4.3 -7.3181,13.929 -16.2621,21.395 -11.3455,9.473 -16.2624,18.138 -16.2624,28.648 0,8.29 -5.5262,25.468 -12.28,38.168 -6.754,12.703 -11.0574,25.075 -9.5629,27.491 1.4944,2.421 -3.4467,13.712 -10.9802,25.096 -16.2301,24.523 -12.9891,36.494 6.4355,23.766 15.3324,-10.046 22.0264,-6.057 13.2962,7.92 -4.9727,7.964 -4.6047,11.5 1.8699,17.976 7.2798,7.279 7.2685,8.064 -0.1173,8.064 -4.4978,0 -8.1779,-3.514 -8.1779,-7.807 0,-4.293 -3.5126,-7.805 -7.8059,-7.805 -10.9982,0 -9.9946,24.116 1.3013,31.266 6.5214,4.13 7.2602,6.541 2.6017,8.501 -8.7513,3.677 -8.2864,12.271 0.6639,12.271 3.9428,0 9.9591,3.365 13.3695,7.474 3.4104,4.11 12.8685,8.933 21.0183,10.725 8.1498,1.788 16.0634,6.502 17.5863,10.469 4.1687,10.865 33.7691,24.411 53.3347,24.411 9.5209,0 25.5764,-5.108 35.6796,-11.349 17.0415,-10.533 18.3689,-13.227 18.3689,-37.254 0,-14.246 -2.5717,-42.476 -5.7151,-62.736 -3.9517,-25.466 -4.0618,-40.461 -0.3552,-48.592 5.7217,-12.559 73.0607,-49.266 90.3765,-49.266 28.4206,0 40.5899,23.378 40.5899,77.968 0,19.133 1.4496,36.233 3.2212,38.004 1.7711,1.772 11.13,-6.244 20.7969,-17.814 11.9262,-14.277 16.7632,-24.65 15.0475,-32.277 -1.3914,-6.182 -3.4749,-17.157 -4.6302,-24.389 -1.1556,-7.232 -5.8941,-22.228 -10.5304,-33.324 -10.4613,-25.037 -7.0679,-29.33 10.2888,-13.024 10.9959,10.327 16.9887,14.992 14.3012,29.315 -1.7926,9.56 3.5486,20.011 6.4925,23.554 7.6374,9.203 -3.493,58.487 -15.0246,71.231 -5.161,5.702 -13.5465,10.37 -18.6339,10.37 -5.0884,0 -10.7457,4.707 -12.5723,10.464 -2.9935,9.429 -50.0206,41.081 -80.4173,57.122 -14.8249,7.822 -82.9368,32.647 -103.7458,33.709 -7.6329,-0.762 -18.0577,0.295 -24.5177,-3.609 z m 0.8736,-37.758 c -2.1465,-2.166 -3.903,-8.695 -3.903,-14.518 0,-7.658 1.5719,-9.008 5.6921,-4.887 3.1306,3.13 4.887,9.664 3.903,14.516 -0.9839,4.854 -3.5455,7.055 -5.6921,4.889 z m -55.9422,-28.221 c 0,-2.862 2.2032,-5.203 4.8967,-5.203 2.6929,0 6.3442,2.341 8.113,5.203 1.7689,2.864 -0.4343,5.206 -4.8971,5.206 -4.4618,0 -8.1126,-2.342 -8.1126,-5.206 z m 39.0296,-10.406 c -1.7692,-2.864 -0.8747,-5.207 1.9874,-5.207 2.8624,0 6.6514,2.343 8.4202,5.207 1.7688,2.861 0.8746,5.203 -1.9878,5.203 -2.8621,0 -6.6509,-2.342 -8.4198,-5.203 z m -25.1526,-29.49 c -1.9082,-1.909 -3.4694,-6.878 -3.4694,-11.045 0,-6.144 1.4753,-6.35 7.806,-1.098 4.2931,3.564 7.8059,8.532 7.8059,11.045 0,5.391 -7.2003,6.039 -12.1425,1.098 z m 47.1059,0.272 c -4.5586,-4.558 -4.9131,-29.319 -0.5811,-40.61 5.4114,-14.101 12.4708,-9.032 12.0874,8.685 -0.4437,20.517 -6.3961,37.034 -11.5063,31.925 z m -71.3909,-51.44 c 0,-4.293 2.0912,-7.806 4.6472,-7.806 2.5557,0 5.995,3.513 7.6424,7.806 1.8246,4.753 0,7.806 -4.6472,7.806 -4.2031,0 -7.6424,-3.513 -7.6424,-7.806 z m 42.0422,-21.248 c 0.2499,-6.065 1.4828,-7.298 3.1442,-3.146 1.5032,3.755 1.3185,8.244 -0.4105,9.977 -1.7294,1.729 -2.9592,-1.348 -2.7333,-6.831 z m 18.6702,-16.049 c -1.9077,-1.905 -3.4689,-5.885 -3.4689,-8.844 0,-3.263 2.4237,-2.954 6.1577,0.78 3.387,3.388 4.9482,7.37 3.4694,8.845 -1.4789,1.479 -4.2501,1.128 -6.1582,-0.781 z m 19.5375,-3.528 c -1.9653,-5.121 -1.2311,-11.654 1.631,-14.516 6.9757,-6.978 12.3396,7.003 6.3844,16.639 -3.5926,5.811 -5.1256,5.406 -8.0154,-2.123 z m -69.8419,-13.817 c 0,-5.725 2.3418,-10.409 5.2038,-10.409 2.8621,0 5.2038,4.684 5.2038,10.409 0,5.726 -2.3417,10.41 -5.2038,10.41 -2.862,0 -5.2038,-4.684 -5.2038,-10.41 z m 20.8156,-41.633 c 0,-5.722 1.8399,-10.404 4.0887,-10.404 2.2489,0 4.0888,4.682 4.0888,10.404 0,5.726 -1.8399,10.41 -4.0888,10.41 -2.2488,0 -4.0887,-4.684 -4.0887,-10.41 z m 62.4474,2.604 c 0,-4.294 2.2684,-7.806 5.0406,-7.806 2.7723,0 3.6926,3.512 2.0451,7.806 -1.6474,4.293 -3.9158,7.806 -5.0406,7.806 -1.1248,0 -2.0451,-3.513 -2.0451,-7.806 z m 36.4274,-35.236 c 0,-4.337 3.5127,-9.23 7.806,-10.882 4.2931,-1.647 7.8058,-1.01 7.8058,1.409 0,2.424 -3.5127,7.318 -7.8058,10.882 -6.3545,5.273 -7.806,5.011 -7.806,-1.409 z" fill="#00B894" transform="translate(-5.3010451,-112.92057) matrix(0.22223527,0,0,0.22223527,-388.42105,-2298.4866) translate(420.33487,679.6737)"/>
</svg>