<?xml version="1.0" ?><svg height="88.511932mm" viewBox="0 0 208.38443 88.511932" width="208.38443mm" xmlns="http://www.w3.org/2000/svg">
    <path d="m 2547.299,1084.6511 34.9065,-21.8594 c 0,0 8.5418,10.1285 17.372,11.401 8.8302,1.2726 19.0746,6.3368 22.9126,6.3108 3.8381,-0.026 24.3266,-5.5057 28.8571,-4.4149 4.5307,1.0907 2.0777,3.9475 9.9845,2.571 7.9071,-1.3764 36.1583,-4.2591 40.3136,-6.5185 4.1555,-2.2595 8.8302,-6.9861 15.2654,-4.2592 6.4351,2.7269 32.4932,24.8797 32.4932,24.8797 0,0 -26.9814,54.434 -94.1033,51.3954 -67.1216,-3.0385 -92.4207,-32.6125 -108.0016,-59.5059 z" fill="#FFFFFF" paint-order="markers stroke fill" transform="translate(0.09763655,0.8832) translate(-2545.7522,-1060.7645)"/>
    <path d="m 2562.8799,1111.5445 c -10.3327,-10.9243 -15.454,-16.6595 -16.6392,-25.3059 -1.6853,-6.5224 0.2798,-6.6462 5.6868,-9.7833 3.5806,-2.0779 10.9481,-6.6568 16.3724,-10.1756 5.4242,-3.5192 10.7806,-6.3984 11.9036,-6.3984 1.1227,0 4.0129,1.5038 6.4227,3.3419 2.4093,1.8376 5.2086,3.3415 6.2194,3.3415 1.0117,0 2.9592,0.8191 4.3278,1.8201 1.3693,1.0011 3.5927,1.5315 4.9412,1.1788 1.3484,-0.3523 3.2933,0.057 4.3216,0.9108 1.0587,0.8783 3.368,1.1762 5.3212,0.6858 2.8932,-0.7263 3.8321,-0.1931 5.8088,3.2862 1.6031,2.8235 2.9989,3.8696 4.3622,3.2687 1.103,-0.4861 5.0123,-1.0904 8.6884,-1.3431 3.6756,-0.254 7.5854,-0.5377 8.688,-0.6328 1.103,-0.095 3.044,-1.0765 4.3141,-2.1801 2.8614,-2.4875 11.6528,-1.3739 13.9496,1.767 1.383,1.8915 1.9249,1.915 4.6829,0.2047 1.9383,-1.203 5.9,-1.8229 10.4699,-1.6372 4.943,0.2008 8.1079,-0.3524 9.6607,-1.6895 1.55,-1.3348 3.8479,-1.738 6.9927,-1.228 2.5762,0.4183 5.0313,0.197 5.4558,-0.4884 0.4243,-0.6865 1.6939,-1.2485 2.8212,-1.2485 1.1271,0 3.5831,-1.2067 5.458,-2.6813 5.3639,-4.2194 17.4555,-2.8418 25.7643,2.9356 14.7544,10.2582 25.165,18.9634 25.165,21.0507 0,3.5438 -12.2381,19.5249 -19.1066,26.628 -12.2357,12.6535 -30.4948,23.2032 -48.694,27.8809 -41.3351,10.6242 -95.8171,-5.0497 -123.3585,-33.5086 z m 118.2656,27.7165 c 17.27,-3.87 35.3754,-13.5598 48.146,-25.7671 8.2272,-7.8638 16.0458,-18.408 14.9564,-20.1703 -1.5895,-2.5719 -4.2712,-1.3564 -7.7278,3.5014 -7.4256,10.4361 -34.809,27.8145 -53.7741,34.1265 -8.0204,2.6692 -12.0287,3.113 -28.0696,3.1062 -17.8181,0 -19.5122,-0.2501 -35.4211,-5.0739 -24.4455,-7.4119 -41.3493,-17.6798 -55.8939,-33.951 -7.9852,-8.9336 -11.8389,-10.5415 -8.156,-3.404 3.322,6.4385 20.6961,22.7366 32.3024,30.302 12.9036,8.411 25.7095,13.1021 43.7774,16.0377 24.6095,3.9981 36.4218,4.3043 49.8603,1.2925 z m -11.1253,-11.8731 c 5.2268,-1.099 13.8204,-3.8362 19.0972,-6.0812 12.7472,-5.4246 35.2472,-18.4926 43.4523,-26.0633 8.3391,-7.6944 7.1947,-3.479 -4.0223,-14.6275 -8.407,-8.3557 -10.7883,-9.2594 -15.5876,-9.5056 -4.3309,-0.2237 -5.8347,0.2916 -6.9525,2.3805 -1.0554,1.9726 -2.2676,2.4537 -4.6637,1.8524 -1.9315,-0.4846 -4.5073,0 -6.3851,1.2497 -1.7312,1.1343 -4.1568,1.675 -5.3905,1.2017 -1.3031,-0.5001 -3.3241,0.1176 -4.8226,1.4736 -1.559,1.4106 -3.7081,2.0395 -5.4314,1.5887 -1.5686,-0.41 -4.2773,-0.095 -6.0195,0.6975 -2.3771,1.0833 -3.6836,1.0147 -5.237,-0.2728 -1.7062,-1.4163 -2.4943,-1.3333 -4.4888,0.4718 -2.8045,2.5378 -5.1173,2.8208 -5.8201,0.7123 -0.2729,-0.8123 -2.7083,-2.239 -5.4166,-3.1698 -4.6196,-1.5884 -5.053,-1.4971 -6.9979,1.4711 -1.7652,2.694 -2.456,2.9256 -4.6448,1.5585 -2.1078,-1.3163 -3.0524,-1.1709 -5.2378,0.807 -2.4344,2.2032 -2.9228,2.2332 -5.6205,0.3449 -2.6432,-1.8514 -3.3653,-1.8571 -6.8558,-0.053 -5.6743,2.9346 -9.6432,1.9813 -10.1532,-2.4385 -0.3675,-3.2016 -0.8582,-3.5377 -4.1818,-2.8728 -2.1161,0.4232 -4.1629,0.1064 -4.6755,-0.7222 -0.6623,-1.0715 -1.6873,-1.0597 -3.7484,0.042 -2.3699,1.2685 -3.2172,1.0484 -5.1496,-1.3383 -1.3768,-1.7 -3.5513,-2.7185 -5.3749,-2.5169 -2.1969,0.2424 -3.5726,-0.6998 -4.8673,-3.3366 -0.9926,-2.0218 -2.3669,-3.676 -3.0542,-3.676 -0.6874,0 -4.4142,2.8572 -8.2818,6.3492 -3.8678,3.4918 -8.7498,7.5911 -10.8486,9.1089 l -3.8161,2.7595 9.1635,8.4144 c 17.501,16.0697 42.3056,30.5953 58.1832,34.0708 11.4286,2.5022 32.2566,2.5595 43.8497,0.1213 z" fill="#00B894" transform="translate(0.09763655,0.8832) translate(-2545.7522,-1060.7645)"/>
</svg>