<?xml version="1.0" ?><svg height="151.88928mm" viewBox="0 0 187.35524 151.88928" width="187.35524mm" xmlns="http://www.w3.org/2000/svg">
    <path d="m 4076.964,2561.0343 c 7.2352,-6.9485 14.8029,-10.7911 20.7343,-12.9998 5.9312,-2.209 13.3453,-3.6124 13.3453,-3.6124 0,0 -4.4378,-1.0922 -3.0168,-6.8106 1.4214,-5.7184 5.5478,-8.3521 5.5478,-8.3521 0,0 -8.7363,-0.4165 -5.8034,-9.3874 2.9329,-8.9712 7.4399,-9.5256 7.4399,-9.5256 0,0 -8.309,-3.1062 -5.8037,-7.5239 2.5056,-4.4175 9.3573,-10.6529 9.3573,-10.6529 0,0 -9.3573,-2.4379 -7.8743,-7.4319 1.4827,-4.9938 6.059,-5.8441 6.059,-5.8441 0,0 -15.3141,-6.5344 -9.4594,-11.8954 5.8547,-5.361 30.4493,-9.6176 30.4493,-9.6176 0,0 0.3067,-4.9239 4.7808,-5.7291 4.4741,-0.8053 5.9824,-0.9895 5.9824,-0.9895 0,0 5.1645,-6.4423 9.4594,-7.1326 4.2953,-0.6903 6.9797,2.6921 6.9797,2.6921 0,0 7.0435,-4.9501 9.8118,1.5589 2.7681,6.509 11.7404,4.7453 14.6294,5.2975 2.889,0.5522 21.2709,7.5928 24.5689,10.9292 3.2981,3.3361 9.4084,8.4902 6.4683,10.814 -2.94,2.3238 1.6108,5.407 3.3237,8.168 1.7129,2.7612 -0.3069,5.6142 -3.656,7.616 -3.3491,2.0016 -2.173,5.1308 -1.5084,10.1698 0.6646,5.0387 -0.2556,8.3751 0.1021,10.4918 0.358,2.1169 7.2099,6.2354 5.1644,10.6759 -2.0452,4.4408 -5.3689,9.8938 -5.3689,9.8938 0,0 3.8862,5.9592 1.892,8.6051 -1.9941,2.6461 5.8801,5.7983 5.8801,5.7983 0,0 1.4574,-2.6 8.0534,-1.2194 6.5961,1.3803 24.0832,9.8705 21.3477,17.7855 -2.7356,7.915 -24.3645,28.9449 -88.9188,26.6211 -64.5546,-2.3239 -97.9437,-12.4709 -89.9673,-28.3927 z" fill="#FFFFFF" paint-order="markers stroke fill" transform="translate(68.480126,-5.8439998) translate(-4140.4993,-2435.2576)"/>
    <path d="m 4143.2153,2592.1336 c -37.5705,-4.2594 -57.6824,-9.1423 -67.0258,-18.486 -6.7134,-6.7098 -4.249,-13.7566 -0.098,-17.7802 5.8623,-5.6504 15.0001,-9.5299 21.6253,-9.5299 5.7302,0 4.2277,2.0322 -3.9097,5.2877 -8.5109,3.4052 -15.9454,10.0033 -15.4149,13.6804 0.7498,5.1968 14.3819,11.5988 33.6416,15.7987 34.9033,8.9126 78.0366,5.8768 101.2716,1.0109 10.9958,-2.3095 25.1307,-7.4507 31.3789,-11.4134 5.4702,-3.4689 8.9897,-8.8546 7.9428,-12.1534 -1.1438,-3.6037 -16.7629,-12.2109 -22.158,-12.2109 -0.7608,0 -1.7073,1.6194 -2.1031,3.5989 -0.9901,4.9524 -8.3495,13.286 -12.0589,15.2036 -1.6813,0.8688 -6.7945,2.7439 -11.3624,4.1665 -12.6596,3.9423 -36.2401,3.7349 -60.9065,-0.5361 -36.3034,-6.286 -45.3157,-10.9712 -35.947,-19.9413 2.0997,-2.0104 2.5799,-3.6261 1.312,-3.599 -6.1399,-2.3905 -7.2462,-6.7181 -3.7372,-10.1942 3.209,-3.1789 4.4529,-2.6153 0.8948,-5.4136 -4.5168,-3.5531 -3.7684,-10.035 1.8738,-16.2296 2.9213,-3.1835 2.7594,-1.9703 -0.1382,-5.0548 -3.4259,-3.6467 -2.9925,-6.6607 1.5291,-10.6308 4.0239,-3.2608 4.3952,-3.0717 0.5536,-6.3038 -4.1583,-3.4992 -4.4355,-7.4468 -0.6947,-9.8978 4.3564,-2.0865 1.0961,-3.2003 -1.661,-5.6911 -2.5631,-2.3156 -4.3496,-4.9347 -4.3496,-6.3763 0,-5.2702 9.7329,-10.7181 23.091,-12.9238 7.0535,-1.165 8.2334,-1.7068 9.6403,-4.4278 1.9528,-3.7759 7.9682,-5.3146 12.4793,-3.192 1.6286,0.7659 5.5066,1.4854 8.618,1.5983 4.9861,0.1821 5.5948,-0.034 5.128,-1.8197 -0.754,-2.8834 -5.2677,-3.7129 -8.5395,-1.5691 -1.4967,0.9807 -2.988,1.7833 -3.3143,1.7833 -1.4408,0 -0.3685,-2.5395 2.1256,-5.0339 3.0628,-3.0625 9.4641,-3.7242 11.5632,-1.1953 0.8629,1.0402 2.7879,1.351 6.0732,0.9807 4.4882,-0.5062 5.0128,-0.2763 7.8567,3.4535 2.7966,3.6661 3.3925,3.9404 7.2293,3.3268 3.3597,-0.5371 4.6477,-0.201 6.5538,1.7035 1.3045,1.3047 4.7233,2.8227 7.5967,3.3733 2.8735,0.5507 7.1047,1.7921 9.4022,2.7584 9.06,3.8107 18.1397,15.3314 15.0332,19.0744 -1.0199,1.2293 -0.7907,1.9066 1.0912,3.2251 5.9272,4.1513 5.2848,9.2275 -1.4769,11.6726 -4.2375,1.5324 -4.6408,2.6195 -2.1789,5.8744 1.9408,2.5659 2.0947,6.5327 0.3783,9.7398 -0.976,1.8238 -0.9047,2.5916 0.3277,3.5264 3.1843,2.4155 5.3496,6.7766 5.3496,10.7739 0,3.2828 -0.6947,4.6465 -3.4757,6.8228 -3.295,2.579 -3.3854,2.8478 -1.7442,5.1906 0.9518,1.359 1.438,3.2334 1.0805,4.165 -0.9227,2.4046 2.7231,4.696 7.4721,4.696 9.4313,0 24.0019,6.2565 26.7004,11.4743 4.7295,9.146 -0.9185,18.9489 -15.043,26.1084 -10.8495,5.4996 -18.336,6.2343 -38.0166,9.3744 -20.9781,2.3639 -42.8568,4.1505 -61.4597,2.1612 z m 63.8681,-28.9065 c 6.312,-2.2212 11.7749,-6.1691 10.4164,-7.5278 -0.3668,-0.3663 -2.3032,0.179 -4.3034,1.2149 -4.8068,2.4855 -8.2668,3.462 -21.4849,6.063 -17.9646,3.5349 -23.3063,3.0232 -61.7372,-5.9133 -8.9836,-2.0894 -16.3338,-3.4316 -16.3338,-2.9835 0,1.5022 9.3296,4.3991 21.6068,6.7098 6.6927,1.2598 15.6566,2.9779 19.9201,3.8183 5.231,1.0313 13.8738,1.4277 26.5775,1.2194 15.6607,-0.2574 19.9204,-0.6944 25.3385,-2.6008 z m -6.5129,-5.0263 c 9.0712,-3.1811 20.4867,-8.6497 20.4867,-9.8139 0,-2.0212 -2.4848,-1.9976 -5.0859,0.047 -1.5674,1.2332 -5.5846,3.265 -8.9278,4.516 -7.5626,2.8296 -30.4632,6.6378 -40.8021,6.7854 -5.8703,0.085 -7.0799,0.3439 -4.9832,1.0723 1.5228,0.5289 9.2467,0.7703 17.1646,0.5361 11.6937,-0.3456 15.8511,-0.9357 22.1477,-3.1437 z m -76.3482,-6.3805 c -10.1302,-3.7734 -10.5818,-3.8336 -10.5818,-1.6281 0,1.6869 1.0243,2.0967 10.5199,3.7613 8.4478,1.4809 11.8574,2.2605 0.062,-2.1332 z m 51.4318,-0.7043 c -25.1187,-2.6173 -47.0845,-6.3974 -56.3391,-9.6959 -5.569,-1.9848 -6.9338,-2.1612 -4.5673,-0.5908 2.1929,1.4552 28.4153,9.6969 32.6681,10.2675 1.8273,0.2449 9.8005,0.4408 17.7182,0.4346 7.9179,0 12.652,-0.1916 10.5201,-0.4154 z m 11.351,-1.0824 c -0.7616,-0.3076 -2.0072,-0.3076 -2.7687,0 -0.7613,0.3077 -0.1381,0.5585 1.3843,0.5585 1.5228,0 2.1456,-0.251 1.3844,-0.5585 z m 7.1749,-1.043 c -0.3679,-0.3679 -1.3231,-0.4075 -2.1226,-0.089 -0.8834,0.3534 -0.621,0.6157 0.6692,0.6688 1.1671,0.047 1.8214,-0.2134 1.4534,-0.5817 z m 0.5656,-3.8385 c 17.9997,-2.6616 20.3169,-3.3798 21.3438,-6.6143 1.0949,-3.4501 -0.5779,-4.5064 -5.1415,-3.2464 -7.1206,1.9661 -35.527,5.509 -44.1697,5.509 -13.1367,0 -31.6699,-2.1741 -42.5167,-4.988 -5.4262,-1.4076 -10.4203,-2.3463 -11.0978,-2.0862 -2.2258,0.8542 -4.0531,4.6669 -2.6515,5.5329 0.7697,0.4759 0.9498,0.2825 0.4654,-0.5022 -0.9849,-1.5941 2.8309,-1.681 8.2076,-0.1884 9.7499,2.7091 46.5308,8.5411 55.2177,8.7559 2.662,0.066 11.8158,-0.9123 20.3427,-2.1733 z m -3.0432,-13.3115 c 6.602,-0.6642 14.7862,-2.1521 18.1873,-3.3061 5.8158,-1.9725 5.9203,-2.0692 1.7548,-1.6204 -2.4363,0.2638 -14.3961,0.794 -26.5775,1.1814 -26.5724,0.8446 -60.3934,-2.1032 -69.6494,-6.0707 -6.4169,-2.7508 -6.2069,-2.7445 -6.2069,-0.1853 0,2.5292 2.9403,3.797 15.7879,6.8077 17.3993,4.0774 44.8559,5.3914 66.7038,3.1925 z m 25.756,-8.7454 c 4.2997,-1.5975 4.4033,-2.2765 0.9573,-6.2829 -2.0087,-2.335 -3.0037,-2.7864 -4.153,-1.8833 -4.5004,3.5371 -9.6532,4.061 -43.0381,4.3764 -35.0167,0.3309 -43.4194,-0.3308 -51.9843,-4.093 -4.8229,-2.1185 -4.9612,-2.1198 -7.0111,-0.069 -2.0495,2.0496 -1.9961,2.1286 2.7056,4.0145 4.1166,1.6512 17.2695,3.6135 36.3568,5.424 10.7012,1.0149 62.5706,-0.1507 66.1668,-1.4854 z m -11.0162,-11.6779 c 6.7118,-1.9934 11.9584,-6.0437 11.0148,-8.5031 -0.5452,-1.4202 -1.7664,-1.1376 -7.6162,1.7635 -6.9603,3.4511 -6.9923,3.4554 -31.374,4.2635 -13.4235,0.4448 -28.2804,1.1228 -33.015,1.5067 -7.3994,0.6 -9.9025,0.2952 -17.823,-2.1754 -5.068,-1.5799 -10.4713,-3.8609 -12.0069,-5.0692 -2.6048,-2.0489 -4.1963,-2.008 -4.1963,0.1071 0,1.5742 8.5505,5.3338 16.3106,7.1718 6.0385,1.4301 11.3791,1.6571 27.4312,1.1649 10.9633,-0.3363 22.1756,-0.2072 24.9164,0.2888 8.3452,1.5083 20.3225,1.2718 26.3584,-0.5208 z m -50.0652,-5.544 c 7.1055,-1.1435 16.1344,-1.5996 27.3957,-1.3842 14.0921,0.2699 17.7787,0 22.8885,-1.7529 3.3497,-1.1407 6.5426,-2.4899 7.0955,-2.9984 1.6977,-1.561 -1.5958,-4.4776 -4.1433,-3.6693 -1.2492,0.3965 -8.0309,0.665 -15.0702,0.5962 -7.0391,-0.069 -17.1298,0.6252 -22.4235,1.5418 -15.2942,2.6478 -33.9593,2.4608 -45.0315,-0.4514 -7.1083,-1.8695 -9.611,-2.1367 -10.7968,-1.1525 -0.8491,0.7043 -1.5437,1.7437 -1.5437,2.3092 0,2.2844 18.9009,8.4496 26.3125,8.5823 2.5951,0.047 9.4875,-0.6828 15.3168,-1.6208 z m 23.7068,-12.7151 c 4.8285,-0.5856 2.2766,-0.687 -7.7516,-0.3076 -8.6561,0.3278 -19.612,0 -26.0238,-0.7693 -11.4086,-1.3753 -27.0926,-4.8517 -30.7716,-6.8205 -2.5096,-1.3433 -4.1833,-0.1507 -1.8643,1.3296 1.4804,0.9443 16.1879,5.6676 21.5619,6.9248 3.6373,0.8507 37.0878,0.5846 44.8494,-0.357 z m 28.9977,-1.5828 c 4.0719,-0.8633 8.8059,-2.3297 10.5201,-3.2588 4.0036,-2.1703 3.2091,-2.1794 -3.9756,-0.047 -3.2084,0.9531 -10.8982,2.3841 -17.0886,3.1806 -11.0452,1.421 -11.1211,1.4503 -4.0576,1.5707 3.9589,0.066 10.5296,-0.5834 14.6017,-1.4464 z m -59.451,-3.4299 c -4.8725,-0.834 -12.3472,-2.1018 -16.6107,-2.8176 -4.2635,-0.7157 -9.6736,-1.9785 -12.0226,-2.8062 -4.1413,-1.4597 -6.2495,-1.2475 -6.2495,0.629 0,1.0038 17.4729,4.4185 28.7924,5.6271 12.1774,1.2998 15.4155,0.9637 6.0904,-0.6323 z m 45.9859,0.5974 c 5.1609,-0.6146 12.7474,-1.9142 16.8586,-2.8876 6.9992,-1.6577 8.7837,-2.8066 6.5262,-4.2019 -1.4971,-0.9251 -24.4323,3.3569 -31.1656,5.8186 -7.0145,2.5645 -5.3559,2.8355 7.7808,1.2709 z m -9.4419,-8.1606 c 6.1591,-2.2799 2.1624,-2.1214 -11.6278,0.4608 -9.7142,1.9876 -15.403,2.3779 -2.2145,1.6782 5.1768,-0.2763 11.4061,-1.2372 13.8423,-2.139 z m -57.9354,-3.4922 c -5.6749,-2.0874 -11.7759,-4.8338 -13.558,-6.1026 -3.1157,-2.2187 -5.4704,-2.1434 -5.4704,0.1757 0,1.5285 7.8198,4.8302 17.7183,7.4804 12.3928,3.3186 12.9042,2.7124 1.3101,-1.5528 z m 31.4992,-1.0475 c -4.0404,-2.742 -4.0466,-2.7426 -7.5011,-0.6416 -3.1073,1.9896 -4.4523,1.9545 -0.2635,2.578 1.7567,0.2607 5.1321,0.5504 7.5011,0.6417 5.3928,0.4556 4.0948,0.022 0.2635,-2.5781 z m 21.176,1.013 c 4.8941,-0.7942 4.5303,-2.2664 -0.7697,-3.114 -3.656,-0.5848 -4.8419,-0.2605 -7.2672,1.9873 -3.0792,2.7961 -3.4567,2.7608 0.7697,2.1984 2.0174,-0.2668 5.2878,-0.7506 7.2672,-1.0717 z m -39.0614,-2.0291 c -1.5529,-2.3703 -2.085,-2.5219 -4.9934,-1.4242 -3.5606,1.3438 -3.1548,2.5074 1.1435,3.2787 5.5792,1.0008 5.6868,0.949 3.8499,-1.8545 z m 67.8534,-2.3759 c 3.4427,-0.4238 5.8139,-1.2667 5.8139,-2.0663 0,-3.7488 -16.3162,-13.6008 -20.7635,-12.537 -1.73,0.4137 -1.7001,0.551 0.2761,1.2788 6.1995,2.2816 7.1929,2.996 7.8596,5.6526 0.5626,2.2416 0.032,3.6243 -2.4613,6.2518 l -3.1833,3.3734 3.3221,-0.6187 c 1.8273,-0.3399 5.9383,-0.9407 9.1359,-1.3346 z m -82.7773,-1.6531 c 0,-1.4157 1.4946,-3.1336 4.025,-4.6267 3.9107,-2.3074 3.953,-2.4013 1.4879,-3.3132 -2.5222,-0.9329 -12.3271,1.2682 -17.1405,3.8485 -2.009,1.077 -1.7005,1.4251 3.3223,3.7511 6.8228,3.1595 8.3053,3.2203 8.3053,0.3403 z m 44.1033,-0.3742 c 3.2582,-2.3898 4.2865,-2.1503 0.8016,-4.4333 -2.5849,-1.6938 -2.9858,-1.6684 -6.3898,0.4076 -1.9976,1.2178 -5.1279,2.328 -6.9543,2.2716 -4.7672,-0.1473 -2.505,0.4866 0.5534,2.0976 5.05,2.1357 8.9495,1.8442 11.9891,-0.3435 z m -21.1017,0.044 c 3.8779,-1.9698 2.5035,-1.4047 -0.8304,-3.8695 -1.84,-1.3604 -3.3455,-3.2059 -3.3455,-4.1015 0,-2.0981 -4.0007,-2.1274 -4.8038,-0.034 -0.3361,0.876 -2.6282,2.7447 -5.0933,4.1526 -6.1514,3.5132 -5.6476,4.6411 0.9172,2.0536 5.7078,-2.2497 6.7653,-2.0552 6.7653,1.2443 1.0225,3.0657 5.5301,1.0171 6.3905,0.5545 z m 42.0932,-2.4701 c 5.5837,-1.7704 3.3945,-2.3951 -0.232,-5.7319 -3.7015,-3.3104 -3.7685,-5.2265 -6.0122,-0.4894 -0.9148,1.9318 -3.0329,4.1185 -4.7071,4.8596 -7.546,4.6665 8.6859,2.2597 10.9513,1.3617 z m -33.3311,-7.3363 c -0.3538,-0.8837 -0.6163,-0.6212 -0.6693,0.6689 -0.047,1.1674 0.2134,1.8214 0.5817,1.4535 0.3679,-0.3679 0.4074,-1.3232 0.089,-2.1224 z m -4.0567,-0.3729 c 2.14,-2.5784 0.6132,-3.0643 -1.6771,-0.5336 -1.1056,1.2217 -1.4959,2.2216 -0.8671,2.2216 0.629,0 1.7739,-0.7598 2.5442,-1.688 z m 9.9443,-0.038 c 0,-0.9495 -0.4983,-1.4186 -1.1072,-1.0422 -0.6092,0.3764 -1.1075,1.1534 -1.1075,1.7265 0,0.5731 0.4983,1.0422 1.1075,1.0422 0.6089,0 1.1072,-0.7769 1.1072,-1.7265 z m 11.0738,0 c 0,-0.9495 -0.5063,-1.4135 -1.1252,-1.0309 -0.6191,0.3828 -0.8388,1.1596 -0.4885,1.7265 0.9493,1.536 1.6137,1.2497 1.6137,-0.6956 z m 4.4297,0.066 c 1.129,-1.3604 1.0534,-1.6612 -0.4182,-1.6612 -0.9882,0 -1.7965,0.7478 -1.7965,1.6612 0,0.9135 0.1883,1.6612 0.4181,1.6612 0.2292,0 1.0384,-0.7477 1.7966,-1.6612 z m -5.5371,-6.2264 c 0,-1.2266 -1.2223,-1.2157 -3.187,0.032 -0.8394,0.5318 -1.1687,1.5451 -0.7321,2.2517 0.6017,0.9738 1.1727,0.9709 2.3568,0 0.8595,-0.7132 1.5623,-1.734 1.5623,-2.2686 z m -26.5771,1.3085 c 0,-0.5732 -0.4118,-1.2965 -0.9153,-1.6075 -1.4101,-0.8717 -5.7828,0.5593 -5.0976,1.668 0.8118,1.3138 6.0129,1.2614 6.0129,-0.06 z m 14.396,-0.066 c 0,-0.609 -1.0261,-1.1075 -2.2801,-1.1075 -1.2542,0 -1.9723,0.4985 -1.5957,1.1075 0.3764,0.6093 1.4026,1.1074 2.2799,1.1074 0.8777,0 1.5959,-0.4981 1.5959,-1.1074 z m 9.4129,-7.7516 c -0.3765,-0.609 -1.4026,-1.1074 -2.2803,-1.1074 -0.8777,0 -1.5955,0.4984 -1.5955,1.1074 0,0.609 1.026,1.1074 2.2799,1.1074 1.2543,0 1.9722,-0.4984 1.5959,-1.1074 z m -57.6467,127.3315 c -4.2977,-0.4539 -9.8937,-1.8864 -12.4353,-3.1827 -5.5022,-2.807 -8.6431,-7.9039 -6.89,-11.1798 1.3385,-2.5011 4.5332,-4.4448 7.3053,-4.4448 1.7813,0 1.7773,0.1411 -0.062,2.1734 -1.082,1.1956 -1.6817,2.9171 -1.333,3.826 0.7882,2.054 7.7601,5.6567 12.9234,6.6782 6.368,1.2601 14.396,4.0484 14.396,5.0005 -3.7157,3.2791 -9.428,1.6584 -13.9044,1.1292 z m 112.7324,-4.6882 c 0.2512,-0.7613 2.1603,-2.4915 4.2449,-3.8447 6.1548,-3.9956 7.8445,-6.0917 7.1483,-8.8666 -0.6477,-2.5788 0.1224,-3.0226 3.1959,-1.8429 4.3362,1.6636 0.4306,11.8932 -5.4843,14.3646 -4.7328,1.9776 -9.726,2.0814 -9.1048,0.1883 z" fill="#00B894" transform="translate(68.480126,-5.8439998) translate(-4140.4993,-2435.2576)"/>
</svg>