<?xml version="1.0" ?><svg height="193.99405mm" viewBox="0 0 80.503494 193.99405" width="80.503494mm" xmlns="http://www.w3.org/2000/svg">
    <path color="#000" d="m -673.41338,7751.6117 38.23128,-162.249 20.52804,-2.4088 25.12537,167.7829 35.33629,8.2849 4.30976,86.0123 -32.11606,-0.9229 4.13036,37.3134 c 0,0 33.64114,49.9512 48.49824,73.9212 14.8571,23.97 59.2475,100.771 49.4635,156.212 -9.784,55.44 -14.8572,166.321 -14.8572,166.321 0,0 -123.2057,16.469 -158.3556,18.099 -35.1499,1.631 -89.36293,-14.3838 -89.36293,-14.3838 0,0 -30.40027,-105.7912 -20.43517,-177.3742 9.9652,-71.583 57.4357,-146.917 73.3799,-176.757 15.9443,-29.84 23.00003,-82.893 23.00003,-82.893 l -19.55753,-4.344 -13.14655,-84.3265 z" fill="#FFFFFF" overflow="visible" paint-order="fill markers stroke" transform="translate(-10.99835,83.685338) matrix(0.26458333,0,0,0.26458333,215.44903,-2088.0387)"/>
    <path d="m -703.53907,8307.5056 c -15.722,-2.5007 -33.4192,-8.7575 -39.69532,-14.0405 -11.21311,-9.4347 -21.60855,-34.0563 -26.77609,-63.4206 -3.12005,-17.7281 -3.68487,-75.3763 -1.00181,-102.3185 9.97646,-100.1856 11.00033,-105.8768 23.55054,-130.8814 6.90966,-13.7666 22.13178,-35.9331 39.31996,-57.2576 5.72348,-7.1014 12.58064,-16.2318 15.23809,-20.2897 5.6621,-8.646 14.52693,-31.3476 12.88347,-32.9911 -0.62391,-0.6239 -3.84668,-1.1337 -7.16253,-1.1337 -8.98733,0 -15.49095,-3.0333 -15.49095,-7.2231 0,-5.0344 2.6435,-6.2214 16.5204,-7.4159 l 12.0696,-1.0399 0.55822,-8.6637 0.55822,-8.6637 -7.30785,-1.9681 c -15.25864,-4.1087 -21.77113,-15.4379 -26.0198,-45.2613 -2.36527,-16.6071 -2.42716,-43.5975 -0.11413,-49.6819 1.33101,-3.5025 3.1302,-4.7377 6.91702,-4.7529 2.8152,0 8.1547,-0.5225 11.86619,-1.1362 5.88301,-0.9714 7.13666,-2.133 9.77914,-9.0518 1.66706,-4.3648 4.97073,-9.209 7.34159,-10.7611 3.89055,-2.5489 4.43482,-4.6743 5.59108,-21.8242 0.70482,-10.4492 2.42488,-24.6596 3.82259,-31.5784 1.39796,-6.9188 2.05763,-14.9992 1.46644,-17.9564 -0.78902,-3.9438 -0.27899,-5.6786 1.91661,-6.5231 1.83496,-0.7026 2.99172,-3.2768 2.99172,-6.6551 0,-8.9934 7.33905,-42.3269 11.28971,-51.2772 16.04182,-36.3389 40.95101,-15.8462 47.75567,39.2885 3.49313,28.3042 7.47803,87.0379 6.36337,93.7893 -0.65891,3.9895 -0.30765,7.2231 0.86383,7.9485 1.08601,0.6695 1.9747,3.5532 1.9747,6.4065 0,4.7909 0.66804,5.2778 8.76135,6.376 13.09144,1.7779 23.13485,5.7826 26.66958,10.6369 4.32754,5.9424 8.46208,32.3799 9.96606,63.7249 1.10858,23.105 0.8793,26.7723 -1.94452,31.0814 -2.73353,4.172 -4.05262,4.7021 -9.03172,3.6344 -3.20704,-0.6874 -10.24098,-1.6815 -15.63145,-2.2091 l -9.80045,-0.9561 1.26278,7.0963 c 0.69467,3.9007 1.78474,7.6594 2.4226,8.3492 0.63786,0.6899 9.45983,1.821 19.60469,2.5109 20.39168,1.3873 26.74566,3.9945 26.74566,10.9666 0,6.5028 -5.01943,8.3238 -22.93525,8.3238 -8.68984,0 -15.79961,0.5707 -15.79961,1.2681 0,0.695 5.60276,11.2786 12.45054,23.5158 10.51616,18.7934 14.98523,24.6875 28.76601,37.9291 8.97363,8.6232 18.28307,19.0242 20.6879,23.11 21.53425,36.6103 35.67873,107.3327 35.81315,179.067 0.0406,21.8824 -4.55124,77.0198 -6.70474,80.5045 -0.59957,0.9714 -1.19431,9.7898 -1.32188,19.5999 -0.2029,15.5876 -0.7634,18.5093 -4.45334,23.2013 -10.29476,13.0869 -31.25277,21.8064 -62.1492,25.8567 -25.64139,3.3605 -143.84628,5.3844 -160.44834,2.7467 z m 95.80782,-23.0719 c 78.60265,-4.1797 96.66557,-8.0652 103.94273,-22.3618 6.97181,-13.6981 10.47077,-49.7682 10.43831,-107.599 -0.0304,-56.0402 -1.77104,-73.9129 -11.04928,-113.5108 -8.97795,-38.3172 -16.96703,-54.2725 -36.89635,-73.6822 -12.86394,-12.5314 -16.66395,-17.7332 -24.94039,-34.1501 -5.37043,-10.6521 -11.59988,-24.7636 -13.84367,-31.3578 l -4.07925,-11.9887 -36.66201,-0.9206 c -20.16393,-0.5072 -37.56516,-0.312 -38.66892,0.4388 -1.10426,0.7481 -3.05233,6.0311 -4.32957,11.7376 -2.94176,13.1452 -12.13985,30.8505 -23.66213,45.5453 -25.60208,32.6513 -46.31078,68.2065 -49.37022,84.7654 -1.27597,6.9061 -1.26735,6.9188 5.09703,6.9188 7.99111,0 14.27205,5.9576 11.29478,10.713 -2.95621,4.7224 -10.77688,4.9076 -15.01896,0.3525 l -3.63439,-3.9007 -1.06648,7.946 c -0.58663,4.3699 -1.55039,15.4151 -2.14133,24.5455 -0.59119,9.1304 -1.49535,19.298 -2.00919,22.5951 -0.92166,5.9145 -0.83594,5.9956 6.39583,5.9956 8.37839,0 13.12669,3.7004 13.12669,10.2337 0,6.1909 -7.54499,10.8093 -15.54117,9.5133 l -6.2472,-1.0145 -1.28054,20.6068 c -1.76419,28.3828 0.0938,109.6862 2.65669,116.3007 3.97627,10.2615 9.22294,15.5622 18.43042,18.6209 20.85023,6.9264 44.10504,7.639 119.05857,3.6572 z m -69.51766,-19.8814 c -16.56326,-2.5312 -21.39475,-5.6051 -13.51955,-8.6003 5.46554,-2.0772 108.78969,-2.2674 125.48687,-0.2283 9.73374,1.1895 13.4815,5.7496 7.03216,8.5597 -5.63572,2.4576 -103.25389,2.6783 -118.99948,0.2714 z m 17.9214,-20.9517 c -21.42899,-2.7188 -40.58908,-6.3177 -42.20161,-7.9307 -1.31528,-1.3163 -1.07307,-2.6656 0.77913,-4.3446 4.12439,-3.7358 135.41209,-1.9681 139.25573,1.8768 3.43099,3.4315 3.39066,5.1562 -0.20544,8.7525 -2.49132,2.4931 -9.1641,2.8609 -47.49646,2.6225 -24.52876,-0.1522 -47.08789,-0.591 -50.13135,-0.9765 z m -14.84015,-29.098 c -8.5402,-8.5394 -4.31563,-24.9842 6.41865,-24.9842 6.54851,0 9.41012,3.4112 10.65591,12.6988 0.82275,6.1351 0.21558,8.0753 -3.7711,12.0622 -5.89036,5.8891 -7.60788,5.9196 -13.30346,0.2283 z m 32.36312,3.1449 c -4.31106,-1.3797 -7.3781,-6.2239 -7.3781,-11.6564 0,-5.8663 3.83653,-9.63 8.13465,-7.9815 3.36176,1.2909 8.46614,9.9775 8.46614,14.4082 0,3.3834 -5.40797,6.4496 -9.22269,5.2297 z m 18.28535,-7.9992 c -4.54413,-4.5449 -3.60802,-11.3217 2.46267,-17.8245 6.66162,-7.1369 10.0079,-5.4681 11.1038,5.534 1.44641,14.5249 -5.25808,20.5991 -13.56647,12.2905 z m -71.8137,-1.7551 c -2.36603,-4.4206 -1.22778,-8.8919 3.93621,-15.4557 6.00398,-7.634 9.01269,-6.1959 9.01269,4.3091 0,4.9887 -0.50369,10.3832 -1.11973,11.9887 -1.60847,4.1923 -9.43346,3.6344 -11.82917,-0.8421 z m 102.5397,-8.3619 c -5.33315,-5.3336 -2.05231,-19.2346 4.53957,-19.2346 3.414,0 9.16284,8.2782 9.16284,13.1934 0,7.8293 -8.26832,11.4763 -13.70241,6.0412 z m -127.1737,-1.7474 c -4.73968,-4.7377 -3.65647,-11.7021 2.7523,-17.6901 9.67591,-9.0366 20.0744,-9.5159 20.0744,-0.9207 0,5.8359 -11.00591,20.3227 -15.99186,21.0506 -2.11089,0.3069 -5.18656,-0.7913 -6.83484,-2.4398 z m 156.47054,-18.3267 c -5.70902,-5.709 -5.87337,-11.692 -0.37714,-13.7336 10.2486,-3.812 21.18323,8.7905 13.92611,16.0466 -3.48502,3.4873 -8.62821,2.6072 -13.54897,-2.313 z m -79.36123,-4.6159 c -10.83293,-1.6689 -16.31446,-4.1975 -23.38695,-10.7942 -5.02906,-4.692 -6.59213,-10.2615 -3.4282,-12.2169 0.90416,-0.5605 5.67681,0.7989 10.60595,3.0156 10.91536,4.9101 30.6286,5.2372 42.95892,0.7101 14.05723,-5.1612 20.29809,-11.3876 28.10203,-28.0404 7.93582,-16.9343 9.57751,-18.7452 13.81654,-15.2249 6.94289,5.7597 -2.76701,34.6903 -15.93225,47.4653 -12.50836,12.1408 -33.27844,18.0806 -52.73604,15.0854 z m -87.11494,-20.7387 c -6.59289,-6.5916 1.34369,-16.7187 10.00918,-12.7723 7.76969,3.5405 4.77392,14.9865 -3.92226,14.9865 -2.13042,0 -4.86953,-0.9968 -6.08692,-2.2142 z m 173.85427,-2.313 c -5.44982,-5.4503 -5.76837,-9.4347 -0.9597,-12.009 8.38219,-4.4865 20.41095,0.2029 20.41095,7.9714 0,9.3358 -11.7201,11.768 -19.45125,4.0376 z m -133.66996,-8.0347 c -9.0165,-7.3018 -1.96912,-20.5535 16.62692,-31.269 4.56519,-2.6301 8.51483,-4.9177 8.77708,-5.0851 0.61909,-0.3931 -8.34009,-21.8292 -16.84732,-40.3132 -7.63756,-16.5919 -8.7961,-28.1824 -3.31306,-33.1458 11.63109,-10.5253 35.15119,8.8844 52.05811,42.961 4.2299,8.5242 6.29539,11.0477 7.80824,9.5336 1.13115,-1.1311 5.17591,-2.0569 8.9881,-2.0569 6.29057,0 7.39281,-0.7862 11.92224,-8.514 2.84589,-4.8569 7.25662,-9.4703 10.26203,-10.7333 l 5.27102,-2.2166 -6.95633,-4.9102 c -11.99757,-8.4684 -25.67081,-14.3068 -35.86488,-15.3136 -15.80366,-1.5623 -18.12658,-2.3511 -18.12658,-6.1605 0,-5.1054 10.68964,-8.0068 26.43827,-7.18 23.37858,1.23 39.50206,12.8256 37.40182,26.9016 -0.82706,5.5416 -0.5075,5.9931 4.24638,5.9931 2.82738,0 8.37788,2.3308 12.33463,5.1789 5.42294,3.9033 8.32868,4.8569 11.80482,3.8728 14.13636,-4.0021 27.63257,0.7888 25.06009,8.892 -1.53898,4.8493 -10.93464,8.2757 -18.69876,6.8174 -5.3017,-0.9942 -6.0088,-0.5859 -7.18002,4.1315 -1.89557,7.634 -8.16509,13.4495 -15.81609,14.6745 -5.2241,0.8344 -7.46028,2.4753 -10.13117,7.4362 -4.2578,7.9054 -14.96342,17.718 -24.81154,22.7422 -19.1606,9.7746 -72.47844,14.8699 -81.254,7.7634 z m 44.55192,-14.2688 c 22.90278,-4.2329 31.65476,-7.5909 40.09351,-15.3821 4.18374,-3.8627 7.58074,-7.7735 7.54879,-8.6891 -0.15218,-4.3547 -8.61806,-7.7304 -17.01243,-6.7844 -8.06669,0.908 -8.51737,1.2504 -7.68854,5.808 1.17148,6.447 -1.47683,10.1575 -6.18177,8.6637 -2.36755,-0.7507 -7.50973,-8.4152 -14.05393,-20.9466 -9.6049,-18.3952 -26.1991,-42.3345 -28.05612,-40.4755 -0.44764,0.4464 1.66477,6.338 4.69403,13.0894 10.60873,23.6452 15.42019,44.4726 11.60952,50.2577 -0.74539,1.1311 -3.06603,2.5894 -5.15688,3.2413 -2.09086,0.6518 -6.61116,4.0833 -10.04545,7.6264 l -6.2439,6.4445 h 7.53611 c 4.14493,0 14.4757,-1.2833 22.95706,-2.8533 z m 68.5397,-40.7367 c 2.35868,-2.3586 -2.53267,-7.7963 -8.1164,-9.0213 -4.04602,-0.8877 -6.58807,-0.4286 -8.56784,1.5522 -4.81678,4.8163 -1.51438,8.6333 7.46865,8.6333 4.42797,0 8.57494,-0.5225 9.21559,-1.1642 z m 30.89135,42.7682 c -2.95595,-3.5608 -1.77915,-10.3071 2.2372,-12.8256 4.01305,-2.5134 13.0014,1.9174 13.9573,6.8808 1.43271,7.4387 -11.1279,12.0495 -16.1945,5.9448 z m -160.31037,-14.0962 c -9.26352,-9.942 -5.88757,-42.3599 5.69584,-54.6885 7.08669,-7.5427 17.12401,-3.5887 12.55578,4.9482 -4.29127,8.017 -5.70394,20.9618 -3.78961,34.7233 2.13068,15.3188 0.89655,18.8669 -6.56271,18.8669 -2.37263,0 -5.92714,-1.7322 -7.8993,-3.8499 z m 162.28228,-61.8736 c -2.14538,-1.5039 -3.9007,-4.2633 -3.9007,-6.1351 0,-2.7137 -1.34901,-3.363 -6.66999,-3.2133 -11.97778,0.3398 -15.82649,-12.0572 -6.99995,-22.547 9.1045,-10.8195 20.47867,-5.7978 17.86281,7.8851 -0.88666,4.6387 -0.578,4.9735 3.60955,3.9235 12.02039,-3.0181 14.88657,17.68 3.0153,21.776 -1.65894,0.5732 -4.77163,-0.1776 -6.91702,-1.6892 z m -167.07446,-30.4498 c -6.43488,-7.6466 -5.85789,-15.1767 1.22576,-15.9959 2.73987,-0.3145 6.60608,0.2942 8.59143,1.3569 3.37189,1.8058 3.47689,1.5801 1.58716,-3.4264 -1.55369,-4.1163 -1.46187,-6.0362 0.39616,-8.2732 3.26766,-3.9387 11.76423,-3.6876 15.51504,0.4566 6.41612,7.0912 1.86564,16.3332 -7.18865,14.6035 -3.81573,-0.7304 -4.48961,-0.3272 -3.49034,2.0873 2.8185,6.8097 2.80151,9.0492 -0.0913,11.9405 -4.75997,4.7605 -11.11547,3.7054 -16.54576,-2.7493 z m 132.18578,-5.6456 c -3.49947,-3.4974 -2.60013,-8.6332 2.38556,-13.6194 6.14398,-6.1428 12.00162,-3.5152 12.00162,5.3843 0,6.9493 -2.78121,10.4492 -8.30027,10.4492 -2.13042,0 -4.86953,-0.9967 -6.08691,-2.2141 z m -25.82324,-5.5315 c -6.64311,-6.6448 1.05202,-23.6096 10.7079,-23.6096 6.07398,0 8.19705,4.1417 6.30123,12.293 -2.76067,11.8695 -10.98461,17.3402 -17.00913,11.3166 z m -61.11392,-6.7793 c -5.14471,-9.6122 -0.0786,-23.6933 6.94746,-19.3132 4.04881,2.521 7.59393,13.4647 5.87793,18.144 -1.89607,5.1739 -10.27421,5.9373 -12.82539,1.1692 z m 27.53899,-3.0028 c -4.94537,-5.9601 -1.38528,-17.5177 5.39504,-17.5177 4.70316,0 7.5214,3.8018 7.5214,10.1449 0,9.2394 -7.7139,13.6423 -12.91644,7.3728 z m 51.29014,-142.3603 c 0.55594,-7.6467 0.50699,-7.7127 -5.53377,-7.5199 -3.35186,0.1014 -18.54506,0 -33.76235,-0.2029 -15.2173,-0.2283 -28.7054,-0.3678 -29.9735,-0.3196 -2.46242,0.1015 -2.96915,5.7243 -1.13268,12.5796 l 1.12278,4.1899 34.35913,-0.5022 34.35912,-0.4996 z m -84.52547,-25.0249 c -0.0254,-1.2681 -1.24046,-12.2651 -2.70918,-24.439 -1.46898,-12.1738 -2.69676,-28.1519 -2.72821,-35.507 l -0.0583,-13.3734 h -7.44151 -7.44176 l 0.98582,9.2216 c 0.54225,5.0725 1.42307,13.5815 1.95796,18.9075 0.53438,5.3261 2.3772,18.1923 4.09497,28.5908 3.0881,18.6944 3.17991,18.9049 8.25057,18.9049 2.8928,0 5.11072,-1.0043 5.08891,-2.3054 z m 23.09503,-31.728 c 0,-23.0593 0.64522,-32.8313 2.27499,-34.4621 1.25137,-1.2479 2.78274,-1.7652 3.40309,-1.1439 2.44897,2.45 6.5059,38.2183 5.96366,52.5834 -0.54529,14.4437 -0.37536,15.2198 3.32194,15.2173 3.78225,0 3.93569,-1.0348 5.23601,-35.1951 0.73677,-19.3538 1.00333,-35.5248 0.59272,-35.9356 -1.79818,-1.7982 -38.31512,-3.1069 -38.31512,-1.3721 0,1.0094 2.05459,12.9398 4.5657,26.5085 2.51136,13.5713 5.10895,29.4683 5.77192,35.332 0.91684,8.1007 1.9227,10.6572 4.19566,10.6547 2.64223,0 2.98943,-3.7409 2.98943,-32.1871 z m 44.82203,29.9755 c 1.21739,-1.2174 2.21336,-5.3413 2.21336,-9.1659 0,-3.8246 1.25086,-15.9021 2.77969,-26.8382 1.52883,-10.9362 3.19867,-22.9959 3.71074,-26.8002 l 0.93104,-6.9188 h -12.80459 -12.80459 l 1.87299,5.9956 c 1.03022,3.2971 2.27702,18.4459 2.77031,33.6632 0.49355,15.2173 1.22677,28.7049 1.62927,29.973 0.93104,2.9319 6.80568,2.9876 9.70178,0.1014 z m 40.76434,-8.3923 c -0.13949,-8.0931 -0.53362,-9.5134 -1.66072,-5.9957 -2.14487,6.6982 -2.14487,16.6021 0,16.6021 1.03732,0 1.7642,-4.6438 1.66072,-10.6064 z m -15.687,-23.9267 c 1.86336,-17.9767 3.79545,-33.7469 4.2933,-35.0454 0.63862,-1.6638 -1.18973,-2.3587 -6.20916,-2.3562 h -7.11434 l -0.22065,35.0429 c -0.19782,31.4187 0.0938,35.0454 2.82078,35.0454 2.58441,0 3.55197,-4.9177 6.43058,-32.6892 z m -30.24209,-59.5098 c -9.23461,-7.1698 -37.49262,-7.3651 -50.79633,-0.3525 l -7.30608,3.85 31.35701,0.051 31.35675,0.051 -4.61135,-3.5786 z m -35.786,-25.4179 c 1.14206,-0.7634 2.57477,-10.6141 3.28212,-22.5673 0.69036,-11.6665 1.43829,-22.8715 1.66224,-24.9005 0.28633,-2.5946 -0.68681,-3.6902 -3.28187,-3.6902 -3.16646,0 -3.99936,1.9605 -5.87894,13.835 -3.02495,19.1079 -3.08379,38.7433 -0.11667,38.7052 1.26811,-0.025 3.2177,-0.6366 4.33236,-1.3822 z m 34.245,-33.6353 -1.65767,-15.6789 -0.24601,23.2115 c -0.13442,12.7647 0.37738,23.8404 1.13825,24.6089 2.17607,2.2014 2.58364,-14.9384 0.76467,-32.1415 z m -14.30857,-8.7601 c 0.80297,-6.1554 0.43572,-7.8394 -1.70865,-7.8394 -2.28259,0 -2.69016,3.8652 -2.48016,23.5183 l 0.25108,23.5158 1.45757,-15.6789 c 0.80144,-8.6231 1.91738,-19.2042 2.48016,-23.5158 z m 2.47687,-23.7922 9.68352,-1.1616 -0.0279,-13.1173 c -0.0431,-20.9847 -7.9485,-48.4848 -13.45361,-46.8033 -5.41076,1.6536 -17.87576,41.8424 -17.87576,57.6355 0,5.1967 3.06375,5.6836 21.67298,3.4467 z" fill="#00B894" transform="translate(-10.99835,83.685338) matrix(0.26458333,0,0,0.26458333,215.44903,-2088.0387)"/>
</svg>