<?xml version="1.0" ?><svg height="115.68923mm" viewBox="0 0 100.0796 115.68923" width="100.0796mm" xmlns="http://www.w3.org/2000/svg">
    <path color="#000" d="m 3358.4195,4322.3186 c -34.2859,3.9089 -110.3427,40.753 -104.0585,83.0034 6.2842,42.2504 18.4822,198.1099 125.4063,193.2029 106.924,-4.9071 145.0917,-90.0722 145.0917,-90.0722 0,0 87.3325,26.6977 93.8015,-64.6231 6.4691,-91.3207 -87.979,-51.649 -87.979,-51.649 0,0 17.6513,-46.4927 -50.3661,-56.2236 -68.0173,-9.7309 -121.8959,-13.6384 -121.8959,-13.6384 z m 182.0587,102.7883 c 12.4758,-0.1037 29.3129,2.4764 30.4026,16.9758 1.7437,23.1991 -43.5257,22.7891 -43.5257,22.7891 l -0.2779,-38.6751 c 0,0 5.9155,-1.0276 13.401,-1.0898 z" fill="#FFFFFF" overflow="visible" paint-order="fill markers stroke" transform="translate(360.20274,-34.671746) matrix(0.26458333,0,0,0.26458333,-1219.2572,-1068.1116)"/>
    <path d="m 3413.4152,4175.4893 c 6.2704,21.8631 5.9803,34.1803 -7.7403,58.4162 -2.4202,6.5964 -3.503,12.2634 -3.9608,20.7478 -0.6136,12.0957 8.5359,34.3535 12.9895,4.9998 0.6826,-35.885 28.2918,-46.1625 12.2836,-84.8181 -5.254,-8.8341 -17.0589,-9.6102 -13.572,0.6543 z m -36.97,37.3689 c -28.6479,75.3753 30.1782,80.3772 12.7499,134.2678 -3.3497,2.6888 -10.8476,0.097 -14.8728,0.8404 3.5611,-53.4959 -34.7592,-61.0797 -26.8953,-105.5429 1.6071,-15.7879 4.3056,-24.3712 11.0871,-35.2694 14.2513,-25.5959 -5.966,-18.2199 -15.8362,-1.6274 -43.7596,82.9131 28.1752,100.4131 14.7986,145.4689 -13.4366,1.179 -33.3403,8.653 -40.3744,12.9985 -5.1876,3.0516 -24.374,-12.3709 -26.1766,3.7768 -5.4953,49.2273 92.7577,43.1034 127.1946,41.1188 23.7289,-1.3675 42.4674,-3.6124 59.1463,-10.3824 3.6496,-1.4815 7.2318,-2.6689 7.9604,-2.639 0.7287,0.03 4.5097,-2.205 8.4009,-4.968 6.0063,-4.2649 7.3348,-5.9371 8.7917,-11.0705 1.3688,-4.8228 1.4047,-6.7374 0.1843,-9.4565 -3.9967,-8.7247 -13.0424,-18.1526 -18.6618,-2.3184 -2.5209,6.5437 -4.2841,7.3715 -6.3966,3.0018 -6.2017,-10.8317 -32.0858,-17.6281 -45.7199,-20.2126 -9.6736,-2.2384 -23.3167,-4.2906 -26.9492,-4.0536 -1.6927,0.1104 -3.0716,0.058 -3.0646,-0.115 0.01,-0.1728 1.0445,-3.328 2.3057,-7.013 14.433,-43.8354 -36.8015,-54.3943 -8.933,-130.4926 6.7752,-26.2685 -6.045,-18.7421 -18.7391,3.6883 z m 67.019,106.1014 c -11.5994,-0.5575 -14.4391,1.9707 -13.578,10.17 0.6226,5.9286 3.8678,8.3435 12.1955,9.0792 15.6028,1.3785 47.4478,7.6352 56.8216,11.1642 13.7694,5.1837 17.3496,10.5952 18.5377,28.016 1.1478,16.8301 2.7321,23.3516 5.9154,24.3484 4.4779,1.4022 10.0145,1.1199 12.5487,-0.6394 9.1064,-6.3222 32.7217,-8.1814 41.2475,-3.2475 18.863,5.7938 39.4069,51.8331 19.8641,79.5144 -10.4504,21.7475 -26.1301,24.5575 -34.1205,25.6893 -31.8192,3.761 -44.5232,-18.9279 -60.2126,18.7969 -10.2067,18.1703 -15.0084,25.6078 -19.4244,30.0904 -7.1157,7.2229 -17.8668,15.4849 -23.2213,17.8449 -36.4518,20.8149 -92.4929,26.9628 -132.7601,1.393 -11.6909,-8.5341 -23.1347,-22.6103 -33.3357,-35.1794 -6.2384,-10.0443 -8.1099,-14.8699 -15.2095,-39.1984 -4.5497,-15.5904 -9.5722,-42.1684 -10.7786,-57.0401 -2.4201,-29.838 -3.051,-44.1295 -2.211,-50.0702 5.0216,-28.2578 26.2094,-39.3245 50.8126,-49.5379 3.8697,-1.5812 7.8785,-2.7602 8.9105,-2.6202 3.0898,0.4192 8.2004,-3.9083 7.4042,-6.2692 -1.2765,-3.7842 -13.1824,-7.1509 -18.2538,-5.1627 -36.4505,12.4532 -68.3444,27.4086 -67.6729,76.5907 -1.0891,37.4532 5.0792,76.1653 16.2156,115.5685 10.5527,32.2298 30.0428,52.855 60.6776,73.1115 33.1113,16.3786 97.157,22.3053 139.9734,-5.0354 14.4643,-6.4578 28.2923,-19.3284 39.8102,-30.9438 7.9219,-9.8767 23.7284,-45.6185 30.0146,-42.3324 21.3469,3.3939 36.5299,9.5923 60.9483,-6.4007 57.3449,-40.789 31.1038,-155.7746 -56.0895,-125.6529 -1.5143,0.1474 -6.7833,-47.951 -42.8566,-52.7193 -3.0785,-0.835 -7.8342,-2.1434 -10.5697,-2.9087 -7.5255,-2.1053 -23.6357,-4.7837 -36.081,-5.9986 -2.0294,-0.1981 -3.8656,-0.3408 -5.5227,-0.4205 z m 102.3829,95.5265 c -3.7223,-0.095 -7.7647,0.2098 -12.1222,0.972 -1.8513,0.7551 -4.8111,2.1078 -6.5773,3.0053 -1.7663,0.8974 -4.8016,2.2613 -6.7459,3.0297 -3.8907,1.5377 -6.9416,8.3888 -5.316,11.9411 1.5416,3.3682 0.5824,27.7898 -1.1664,29.7299 -1.9055,2.1131 -1.0582,6.5179 2.3935,12.4532 2.7913,4.7998 6.8101,6.1607 9.4743,3.2065 1.0407,-1.1541 5.0347,-1.582 13.1033,-1.4014 17.2066,0.385 24.3176,-2.3064 31.5494,-11.9443 14.8031,-22.9273 5.7169,-50.2191 -24.5924,-50.992 z m -2.853,15.3953 c 10.5652,0.3662 22.7193,8.0038 13.5406,24.1774 -1.8244,3.6392 -4.0986,5.8786 -7.6053,7.4898 -4.8985,2.2504 -17.2365,3.5504 -17.5176,1.8463 -0.078,-0.4741 -0.02,-5.3847 0.1298,-10.9124 0.1499,-5.5278 -0.1462,-11.6229 -0.6589,-13.5463 -1.6022,-6.1508 4.8829,-9.3053 12.1116,-9.0548 z m -246.373,48.2002 c -3.4038,-0.1004 -6.5806,1.3419 -7.3546,5.3353 -3.198,16.5018 18.9164,12.3186 16.9892,0.5583 -0.5056,-3.0861 -5.258,-5.7643 -9.6346,-5.8936 z m 17.3874,24.0002 c -1.8292,0.015 -4.2246,0.806 -7.8195,0.5519 -5.9297,0.075 -11.2402,0.5327 -11.8015,1.0164 -2.9031,2.5017 -0.9623,8.6973 6.547,10.0114 1.7169,0.3006 9.0842,-0.949 12.061,-0.7404 6.2723,0.4397 7.6054,-1.2129 5.4297,-6.7298 -1.3258,-3.3616 -2.5875,-4.1243 -4.4167,-4.1095 z m 13.4458,18.6851 c -1.0024,-0.094 -2.235,0.018 -3.7693,0.3536 -4.14,0.5058 -10.97,-0.2681 -15.1801,-0.425 -2.0121,0.06 -3.118,-0.2811 -5.4423,0.5832 -3.5177,1.308 -4.1024,2.0455 -3.486,4.3982 2.8007,10.3483 19.7461,5.7602 29.0051,5.4461 3.6221,-1.0419 4.1139,-1.6424 3.5535,-4.34 -0.7451,-3.5866 -1.6738,-5.7334 -4.6809,-6.0161 z m 14.7441,19.2764 c -2.1429,-0.043 -4.8201,0.1065 -8.1637,0.5452 -9.8129,0.9838 -10.6783,1.3005 -10.7863,3.9267 -0.1363,3.3155 1.9489,5.5065 6.8542,7.2016 2.169,0.7492 1.8418,0.4947 6.574,0.342 4.8756,-0.2983 4.3127,-1.1641 6.7734,-1.2286 2.4605,-0.064 5.5186,-0.817 6.797,-1.6735 2.1505,-1.4408 2.1882,-1.8204 0.4923,-5.0757 0,0 0.7448,-3.8488 -8.5409,-4.0376 z m 16.4775,12.9641 c -3.0166,-0.1335 -6.3758,0.3766 -9.0542,1.0961 -11.09,0.5141 -15.7459,3.5476 -7.9634,10.8189 2.6764,2.5005 6.9307,3.4028 11.3678,2.6358 8.7845,-1.5187 12.155,-3.1948 13.1412,-6.5364 1.6136,-5.787 -2.4635,-7.7928 -7.4914,-8.0144 z" fill="#00B894" transform="translate(360.20274,-34.671746) matrix(0.26458333,0,0,0.26458333,-1219.2572,-1068.1116)"/>
</svg>