<?xml version="1.0" ?><svg height="109.03606mm" viewBox="0 0 102.32485 109.03606" width="102.32485mm" xmlns="http://www.w3.org/2000/svg">
    <path d="m 2326.95,3208.6528 c -7.3686,-2.0524 -32.1701,-7.3779 -28.7589,-34.6679 3.411,-27.2899 41.2351,-38.1788 45.5507,-45.5736 4.3159,-7.3949 7.0398,-20.4034 9.3956,-21.421 2.3556,-1.0176 7.3687,0.5938 6.5207,5.8177 -0.848,5.2239 -2.2051,12.6865 5.1638,21.9641 7.3687,9.2776 28.179,17.0597 30.2856,39.4676 1.3414,14.2682 -11.2666,35.6632 -38.6123,37.0446 -26.3752,1.3324 -29.5452,-2.6315 -29.5452,-2.6315 z" fill="#FFFFFF" paint-order="markers stroke fill" transform="translate(14.8119,-138.3874) translate(-2309.359,-2966.0445)"/>
    <path d="m 2337.9866,3213.3101 c -21.6283,-3.8105 -25.4424,-5.1303 -32.0161,-11.0794 -7.2989,-6.6049 -11.4234,-15.1732 -11.4234,-24.8297 0,-13.2102 8.47,-25.0217 26.3438,-36.737 4.8797,-3.1984 10.9197,-7.1708 13.4218,-8.8277 6.7375,-4.461 12.537,-11.679 15.3928,-21.2963 1.2677,-4.2683 2.8664,-6.1081 5.4325,-6.1081 4.4036,0 8.0092,1.7521 5.8177,12.5534 -1.7977,8.8605 3.5604,17.3508 15.5128,25.2294 9.4048,6.1995 15.9251,14.0338 18.8867,23.5333 1.537,4.9292 1.6764,6.2376 1.4065,13.196 -0.2662,6.861 -0.522,8.2022 -2.29,12.0026 -3.8468,8.2692 -11.9606,14.9869 -22.5078,18.6352 -5.4081,1.8708 -7.9014,3.6524 -19.8248,3.8309 -6.8788,0.1038 -13.2472,0.057 -14.1525,-0.1037 z m 12.7292,-5.9632 c 1.9912,-0.5048 5.2495,-1.2298 7.2407,-1.6107 5.467,-1.0462 10.0883,-4.0095 13.5177,-8.6678 3.8408,-5.2172 5.0784,-9.5969 5.075,-17.9568 0,-8.413 -1.1625,-11.5352 -11.5969,-31.2336 -9.1819,-17.3343 -9.8472,-19.8583 -7.925,-30.0638 1.1239,-5.9666 1.1223,-6.2272 -0.042,-7.5144 -0.6732,-0.7441 -2.0349,-1.3338 -3.0795,-1.3338 -1.6843,0 -1.8728,0.2205 -1.8728,2.1986 0,3.9799 -2.4777,12.0154 -4.8248,15.6474 -3.3093,5.1208 -6.7033,8.0591 -18.5427,16.0529 -12.2041,8.2398 -15.4455,10.9384 -20.0694,16.7072 -5.2635,6.5671 -7.406,11.3278 -7.7624,17.2492 -0.8268,13.7391 7.7533,24.1233 23.0901,27.9444 3.3317,0.8303 6.8725,1.8234 7.8681,2.2071 2.3783,0.9166 2.3111,0.029 -0.2137,-2.8467 -1.3273,-1.5118 -2.8583,-2.4623 -4.4432,-2.7587 -3.779,-0.7064 -12.2218,-4.3123 -15.4741,-6.6086 -6.044,-4.2679 -9.2086,-15.4935 -6.6557,-23.6103 2.6335,-8.372 10.8232,-17.6186 18.2306,-20.5829 1.3576,-0.5434 2.4685,-1.2436 2.4685,-1.5561 0,-0.3123 0.9627,-1.1549 2.1392,-1.8724 2.6808,-1.6343 8.9762,-1.7575 13.0823,-0.2558 1.5842,0.5794 5.2285,1.3051 8.0985,1.6128 6.37,0.6828 12.3396,3.4136 15.7748,7.2158 2.8255,3.1276 3.3176,5.2475 0.8411,3.6249 -0.8435,-0.5527 -1.732,-0.8064 -1.9748,-0.5636 -0.2425,0.2425 -0.4409,0 -0.4409,-0.554 0,-0.5472 -0.5658,-1.507 -1.2572,-2.1325 -1.1857,-1.0731 -1.2926,-1.0737 -1.8878,0 -0.8265,1.4767 -2.2972,0.5603 -1.7696,-1.1023 0.328,-1.0331 -0.1575,-1.525 -2.545,-2.5814 -1.6225,-0.7177 -4.8288,-1.4934 -7.1253,-1.7241 -2.2963,-0.2309 -5.6323,-0.9849 -7.4134,-1.6761 -1.7808,-0.6914 -4.933,-1.3041 -7.005,-1.3616 -3.1441,-0.088 -4.2949,0.2228 -6.9602,1.8701 -3.0217,1.8681 -3.1817,2.1094 -2.9764,4.4911 0.1462,1.688 -0.022,2.3716 -0.4982,2.0751 -0.3934,-0.2431 -0.715,-0.8688 -0.715,-1.3905 0,-1.4334 -1.3908,-1.1363 -1.7876,0.3819 -0.2765,1.057 -0.5378,1.1731 -1.2713,0.5642 -0.7343,-0.6095 -1.5587,-0.225 -4.0335,1.8858 -2.6988,2.3005 -3.0815,2.9352 -2.8916,4.793 0.1822,1.7931 0.036,2.0711 -0.9063,1.7095 -1.8366,-0.7049 -2.8821,0.7107 -2.4573,3.3276 0.3473,2.1409 0.2634,2.3017 -0.9907,1.9037 -1.193,-0.3786 -1.4474,-0.069 -1.9665,2.3928 -0.5098,2.4188 -0.4049,3.0418 0.7259,4.3062 1.4654,1.6389 1.0491,2.8093 -0.5323,1.4969 -0.8787,-0.7292 -1.0033,-0.3727 -1.0033,2.8683 0,2.7046 0.2441,3.7012 0.9067,3.7012 1.4438,0 2.4918,1.604 1.6186,2.4772 -0.893,0.8929 1.7099,4.2222 5.3043,6.7836 1.9163,1.3654 11.2527,5.8786 12.1614,5.8786 0.1283,0 0.09,-0.7404 -0.084,-1.6456 -0.4605,-2.409 0.9659,-2.0422 2.5591,0.6584 0.7476,1.2671 1.804,2.3038 2.3476,2.3038 1.6639,0 5.4643,4.3033 5.4643,6.1875 0,1.5167 0.2616,1.7115 2.3016,1.7115 1.8842,0 2.8694,-0.5796 5.4306,-3.1945 2.9847,-3.0474 3.4016,-3.2453 9.0531,-4.3044 8.0941,-1.5166 13.74,-3.5893 12.8143,-4.7044 -0.5011,-0.6039 -0.4759,-0.9837 0.09,-1.3329 0.4569,-0.2824 1.1803,0.04 1.7157,0.7644 0.8354,1.1303 0.7173,1.4277 -1.2127,3.0507 -2.5235,2.1221 -8.5387,4.175 -14.0651,4.8 -4.8551,0.549 -5.9486,1.1058 -7.2992,3.7181 -1.0533,2.0364 -1.0504,2.046 0.4868,1.5775 0.8505,-0.2591 3.1756,-0.8843 5.1668,-1.389 z m -14.225,-6.5076 c -1.0681,-2.7833 1.6394,-5.8896 3.1104,-3.5683 0.8703,1.3731 0.6849,2.5329 -0.4047,2.5329 -0.543,0 -0.9873,0.4444 -0.9873,0.9876 0,1.2552 -1.2418,1.2899 -1.7184,0.047 z m 17.0775,-3.0099 c 0,-1.4967 0.2732,-1.9764 1.0421,-1.8283 0.6156,0.1193 1.0422,0.8667 1.0422,1.8283 0,0.9613 -0.4266,1.7098 -1.0422,1.8283 -0.7689,0.1485 -1.0421,-0.3317 -1.0421,-1.8283 z m -8.4858,-0.1913 c -0.479,-1.2478 0.7109,-3.0998 1.9915,-3.0998 1.1681,0 3.1868,2.4301 2.6885,3.2364 -0.2874,0.4646 -0.8458,0.4248 -1.7303,-0.1237 -1.0653,-0.6602 -1.4172,-0.6307 -1.9088,0.1597 -0.5151,0.828 -0.6664,0.8028 -1.0409,-0.1732 z m -4.7806,-2.1165 c -0.4136,-0.9074 -1.1275,-1.5738 -1.5869,-1.4812 -0.5272,0.106 -0.7695,-0.4204 -0.6574,-1.4297 0.099,-0.8794 -0.1868,-1.8243 -0.6328,-2.0997 -0.5818,-0.3596 -0.3028,-0.9711 0.9902,-2.1697 1.5696,-1.4545 1.6945,-1.8391 0.9722,-2.9953 -0.4555,-0.7294 -1.2772,-1.2554 -1.826,-1.1684 -0.6919,0.1104 -1.0211,-0.4475 -1.0737,-1.8168 -0.1485,-3.8864 -0.2666,-4.2786 -1.2793,-4.2786 -0.5645,0 -0.8433,-0.2963 -0.6194,-0.6583 0.8423,-1.363 2.7062,-0.5774 3.9034,1.6457 0.6824,1.2671 1.4161,2.3025 1.6308,2.3012 0.2137,0 0.4286,-1.478 0.476,-3.2816 0.047,-1.8033 -0.1754,-3.1178 -0.4935,-2.9206 -0.3191,0.198 -0.5799,-0.1125 -0.5799,-0.6885 0,-1.5449 1.8493,-1.9816 3.2031,-0.7564 0.6486,0.587 1.5261,1.0674 1.9502,1.0674 0.4239,0 0.7708,0.6122 0.7708,1.3607 0,1.0269 -0.3001,1.2656 -1.2235,0.9727 -0.7315,-0.2322 -1.5898,0.051 -2.134,0.7087 -0.8105,0.9765 -0.7574,1.0484 0.4837,0.6547 1.8597,-0.5904 2.7652,2.1818 1.0415,3.1894 -0.9441,0.5518 -0.7596,0.7162 1.1218,1.0009 2.583,0.3908 3.4854,1.9003 1.4539,2.4318 -1.1362,0.2969 -1.2512,0.5802 -0.6742,1.6584 1.0568,1.9745 0.1281,2.2596 -1.7172,0.5267 -1.2607,-1.1842 -1.6432,-1.3056 -1.6432,-0.522 0,0.5618 -0.4138,1.3651 -0.9194,1.7847 -1.4203,1.1787 -0.5178,3.1589 1.636,3.5895 2.1767,0.4354 2.6673,2.391 0.6001,2.391 -0.8777,0 -1.3167,0.4388 -1.3167,1.3165 0,1.8198 -0.9537,1.6486 -1.8566,-0.3332 z m 1.8566,-11.5152 c 0,-0.3621 -0.6664,-0.6375 -1.481,-0.612 -1.4131,0.045 -1.4208,0.073 -0.1641,0.612 0.7239,0.3111 1.3906,0.5865 1.481,0.612 0.09,0.024 0.1643,-0.25 0.1643,-0.612 z m -12.2125,10.3488 c -1.1335,-2.9539 2.0846,-4.3046 3.941,-1.6539 1.2559,1.7928 0.2966,3.1396 -1.2952,1.8186 -0.8947,-0.7425 -1.1574,-0.7357 -1.6383,0.042 -0.4733,0.7662 -0.648,0.7304 -1.0075,-0.207 z m 39.9049,-1.2935 c 0.3369,-1.1742 0.6123,-2.2018 0.6123,-2.2832 0,-0.082 -0.4444,0.022 -0.9874,0.2306 -0.5431,0.2093 -0.9875,0.051 -0.9875,-0.3499 0,-0.4007 0.5688,-0.7285 1.2638,-0.7285 1.0251,0 1.4602,-0.8637 2.304,-4.5732 1.1947,-5.2534 1.3267,-8.337 0.3818,-8.9208 -0.362,-0.2228 -0.6581,-0.093 -0.6581,0.2902 0,1.0869 -1.1914,0.8223 -2.589,-0.5753 -1.1252,-1.1252 -1.1572,-1.3682 -0.2756,-2.0997 0.8,-0.6644 1.2579,-0.6642 2.3217,2e-4 1.2521,0.7819 1.3005,0.7074 0.8752,-1.3562 -1.0395,-5.0445 -0.9789,-5.4413 0.3928,-2.5757 2.7303,5.7036 2.3069,17.9572 -0.7969,23.0612 -1.6354,2.6895 -2.6442,2.6244 -1.8571,-0.1192 z m -22.9637,-1.65 c 0.1643,-1.4364 0.5478,-1.8102 1.8537,-1.8102 1.2056,0 1.7019,0.396 1.8561,1.4809 0.231,1.6268 -0.497,1.9186 -1.7241,0.6914 -0.6145,-0.6144 -0.7901,-0.5413 -0.7901,0.329 0,0.6156 -0.3158,1.1191 -0.702,1.1191 -0.386,0 -0.608,-0.8147 -0.4936,-1.8102 z m 14.0708,0.557 c -0.2259,-0.3652 -0.8456,-0.4973 -1.377,-0.2934 -1.3563,0.5205 -1.2037,-0.6675 0.2551,-1.9875 1.5481,-1.4009 3.5279,-0.7336 3.2567,1.0979 -0.2228,1.4996 -1.5012,2.2085 -2.1348,1.183 z m -45.4938,-0.7789 c -0.2432,-0.3935 -0.1844,-0.9738 0.1305,-1.2892 0.7784,-0.7785 2.4918,0.3548 1.9244,1.2727 -0.5749,0.9307 -1.4861,0.9378 -2.0555,0.022 z m 8.2636,-1.4472 c 0,-0.6208 -0.4691,-1.1286 -1.0424,-1.1286 -1.5437,0 -0.7346,-1.6109 0.9322,-1.8562 1.8721,-0.2754 2.6106,1.6126 1.1875,3.0359 -0.9977,0.9976 -1.0773,0.9938 -1.0773,-0.049 z m 5.5205,-0.8424 c 0.3087,-0.8045 0.09,-0.9337 -0.9949,-0.5892 -1.0035,0.3185 -1.3084,0.1935 -1.0962,-0.4508 0.3892,-1.1809 3.1963,-1.5575 3.8404,-0.5154 0.6955,1.1254 0.042,2.5859 -1.1573,2.5859 -0.6257,0 -0.8427,-0.3778 -0.592,-1.0305 z m 4.6069,-1.8902 c -0.2002,-0.5244 -0.8081,-0.7748 -1.3625,-0.5622 -0.7159,0.2747 -0.9321,0.029 -0.7615,-0.8642 0.3408,-1.7863 2.9249,-1.98 3.8309,-0.2871 0.7548,1.4105 0.4244,2.6594 -0.7038,2.6594 -0.3519,0 -0.8032,-0.4257 -1.0031,-0.9459 z m 14.0423,0.1238 c -0.4691,-1.3086 0.7744,-3.1268 2.1388,-3.1268 0.6868,0 1.437,-0.5923 1.667,-1.3164 0.5651,-1.7808 2.4112,-1.6585 4.2328,0.2804 2.0281,2.1587 1.1164,3.6278 -1.0111,1.6292 l -1.5761,-1.4808 v 1.6463 c 0,1.4549 -0.2298,1.6126 -1.9749,1.3565 -1.4979,-0.2205 -1.9747,-0.034 -1.9747,0.7722 0,1.2527 -1.0769,1.4245 -1.5018,0.2394 z m 16.3348,0.2002 c -0.6354,-1.028 0.2002,-2.0112 1.7102,-2.0112 0.9051,0 1.2559,0.3632 1.1057,1.1446 -0.2528,1.3114 -2.1751,1.9035 -2.8159,0.8666 z m -49.6186,-3.3591 c 0.1846,-1.3041 0.6071,-1.6141 2.2025,-1.6141 1.5466,0 2.0202,0.3211 2.1849,1.481 0.2292,1.6133 -0.495,1.9202 -1.6962,0.7192 -0.5774,-0.5774 -1.0238,-0.5449 -1.8407,0.1328 -0.9545,0.7921 -1.0523,0.7095 -0.8505,-0.7191 z m 9.8305,-0.8856 c -0.447,-0.5387 -1.2355,-0.8172 -1.752,-0.619 -1.1435,0.4388 -1.2335,-0.5393 -0.1486,-1.6235 1.132,-1.1322 2.356,-0.9747 3.0903,0.3975 0.8865,1.6562 -0.09,3.1702 -1.189,1.845 z m -17.0409,-1.1893 c -1.3198,-1.3197 -0.8865,-1.8587 0.8556,-1.0652 0.9052,0.4125 1.6456,0.9985 1.6456,1.3026 0,0.8203 -1.5949,0.6688 -2.5012,-0.2374 z m 61.3327,-0.2227 c 0.2205,-0.5752 -0.031,-1.1736 -0.5841,-1.3856 -0.5348,-0.2047 -0.8086,-0.6384 -0.6081,-0.9623 0.4939,-0.7997 2.7438,-0.7477 3.2521,0.074 0.652,1.055 -0.322,3.2854 -1.4348,3.2854 -0.6415,0 -0.871,-0.3717 -0.6251,-1.0123 z m -40.5996,-1.1899 c -0.6048,-1.5766 1.0773,-3.2916 2.7176,-2.7712 1.5859,0.5035 1.9999,2.9985 0.4973,2.9985 -0.5134,0 -1.3639,0.1642 -1.8897,0.367 -0.5261,0.2024 -1.1222,-0.066 -1.3252,-0.5943 z m 16.9185,-0.6943 c -0.8658,-2.2563 2.5498,-3.9357 4.9339,-2.4259 1.4285,0.9042 0.3611,2.8707 -1.2762,2.3512 -0.7432,-0.236 -1.7779,-0.074 -2.2992,0.3578 -0.7533,0.6252 -1.0323,0.5669 -1.3585,-0.2831 z m 10.1256,-0.7751 c -1.5124,-3.3194 2.2802,-5.7687 4.3519,-2.8107 1.255,1.7917 0.3504,3.2 -1.2188,1.8977 -0.8711,-0.723 -1.0154,-0.5974 -1.0154,0.8835 0,2.2064 -1.1186,2.2221 -2.1177,0.029 z m -42.9992,-0.98 c -0.2385,-0.3862 -0.2758,-0.8602 -0.084,-1.0533 0.4716,-0.4715 1.7554,0.3591 1.7554,1.1358 0,0.8412 -1.1364,0.7852 -1.6728,-0.084 z m 6.7365,-1.0756 c -1.7914,-0.4641 -1.0833,-2.501 0.8694,-2.501 1.1962,0 1.6934,0.3987 1.8471,1.4811 0.2114,1.4866 -0.2493,1.6594 -2.7165,1.0199 z m 14.0254,-1.8429 c -0.4507,-0.5429 -1.2277,-0.9873 -1.7262,-0.9873 -0.4988,0 -0.9067,-0.4443 -0.9067,-0.9873 0,-1.1944 2.6821,-1.3331 3.8176,-0.198 0.9142,0.9139 1.065,3.1597 0.2116,3.1597 -0.3177,0 -0.9463,-0.4445 -1.3971,-0.9875 z m -19.0891,-3.6674 c 0,-1.4317 -0.038,-1.4398 -1.3167,-0.2819 -1.1031,0.9983 -1.3164,1.028 -1.3164,0.1822 0,-1.3777 1.6562,-2.6446 3.0951,-2.3673 1.3676,0.2634 1.6597,3.2326 0.3606,3.6656 -0.4948,0.1642 -0.8226,-0.3128 -0.8226,-1.199 z m 33.0309,-0.051 c 0.2985,-2.0061 2.1213,-3.023 3.4464,-1.9233 0.5735,0.4761 1.0426,1.4675 1.0426,2.2034 0,1.2915 -0.045,1.2969 -1.3027,0.1597 -1.1873,-1.0743 -1.3395,-1.0833 -1.716,-0.1015 -0.6034,1.5722 -1.7163,1.3174 -1.4703,-0.3368 z m 11.7744,-0.3963 c -0.5509,-0.935 -0.7895,-0.9838 -1.2669,-0.2588 -0.815,1.2378 -1.6232,-0.1734 -1.0798,-1.8864 0.5313,-1.6735 2.7076,-1.6963 3.5955,-0.036 1.4238,2.6605 0.246,4.719 -1.2488,2.1826 z m -22.2961,-0.7255 c -1.1364,-0.8573 -1.2996,-1.2963 -0.7035,-1.8924 0.9522,-0.9522 3.2075,0.068 3.2075,1.4503 0,1.4817 -0.9119,1.6429 -2.504,0.4421 z m 31.2372,-0.4048 c -0.216,-0.5618 -0.6667,-0.9446 -1.0026,-0.8504 -0.3358,0.095 -0.6403,-0.1261 -0.6766,-0.4877 -0.036,-0.362 0.7486,-0.6583 1.7444,-0.6583 1.345,0 1.8101,0.3241 1.8101,1.2615 0,1.579 -1.3485,2.1074 -1.8753,0.7349 z m -43.17,-0.9258 c -0.8814,-1.6467 -0.8989,-2.7161 -0.045,-2.7161 0.3619,0 0.658,0.4443 0.658,0.9872 0,0.5431 0.2964,0.9875 0.6583,0.9875 0.3621,0 0.6584,-0.777 0.6584,-1.7264 0,-1.4847 0.1418,-1.6076 1.0206,-0.8791 0.5679,0.4714 0.9328,1.602 0.8228,2.5491 -0.2538,2.1833 -2.75,2.7108 -3.7736,0.7978 z m 17.0698,-1.9492 c 0,-0.7247 -0.1911,-1.8162 -0.4251,-2.4255 -0.3207,-0.8354 -0.1193,-1.0489 0.8228,-0.8677 1.444,0.278 1.797,3.8791 0.4253,4.3363 -0.4757,0.1574 -0.823,-0.2817 -0.823,-1.0431 z m -12.6712,-2.1375 c -0.6335,-0.3683 -1.1519,-1.1168 -1.1519,-1.6631 0,-0.5465 0.2963,-0.8104 0.6583,-0.5868 0.362,0.2227 0.6581,-0.053 0.6581,-0.6194 0,-1.2879 0.9108,-1.321 1.9487,-0.07 0.8876,1.0696 0.7064,3.108 -0.3031,3.4116 -0.362,0.1082 -1.1765,-0.1037 -1.8101,-0.4718 z m 29.1274,-1.5916 c 0,-0.5431 0.2869,-0.9872 0.6377,-0.9872 0.3506,0 0.4671,0.4441 0.2585,0.9872 -0.2092,0.5429 -0.4952,0.9873 -0.6374,0.9873 -0.1418,0 -0.2588,-0.4444 -0.2588,-0.9873 z m -38.8415,-0.6641 c -0.6215,-0.7491 -0.6613,-1.2368 -0.1441,-1.7552 0.9988,-0.9986 2.9241,-0.1237 2.6654,1.2109 -0.2957,1.5241 -1.4943,1.7827 -2.5223,0.5443 z m 17.7019,0.5543 c -0.04,-0.3017 -0.022,-1.0777 0.045,-1.7243 0.099,-0.9606 -0.2183,-1.1028 -1.7345,-0.777 l -1.8555,0.399 1.5879,-1.3901 c 2.2599,-1.9778 3.6778,-1.495 3.6778,1.2526 0,1.2319 -0.3701,2.3634 -0.8226,2.5141 -0.4526,0.1508 -0.8569,0.027 -0.8986,-0.2743 z m 27.8728,-1.001 c 0.144,-0.43 0.6127,-0.8991 1.0427,-1.0424 0.481,-0.1597 0.6281,0.1395 0.3822,0.7816 -0.4592,1.1966 -1.8197,1.4456 -1.4249,0.2608 z m -15.0274,-1.5511 c -0.5163,-2.0571 0.925,-3.8521 2.5823,-3.216 1.6175,0.6204 1.4197,2.9156 -0.2511,2.9156 -0.7454,0 -1.1851,0.2759 -0.9767,0.6129 0.2092,0.3371 0.086,0.7934 -0.2709,1.0143 -0.3573,0.2205 -0.8449,-0.3762 -1.0836,-1.3268 z m -17.5613,-4.3394 c -0.6286,-0.3519 -1.4368,-0.4581 -1.7962,-0.2363 -0.359,0.2228 -0.6529,0.09 -0.6529,-0.2934 0,-1.0663 3.0764,-1.1092 4.1714,-0.058 0.8737,0.8385 -0.4605,1.2939 -1.7223,0.5879 z m 10.735,-1.2011 c -0.5326,-0.3368 -0.7677,-0.8132 -0.5222,-1.0585 0.6025,-0.6024 2.4779,0.1641 2.4779,1.0122 0,0.836 -0.6815,0.852 -1.9557,0.047 z m -10.5512,-3.6461 c 0,-0.543 -0.2961,-0.9874 -0.658,-0.9874 -1.0692,0 -0.7516,-1.1399 0.4459,-1.5993 0.6072,-0.2331 1.5067,-0.022 1.9988,0.4709 1.0431,1.0431 0.4658,3.1032 -0.8696,3.1032 -0.5044,0 -0.9171,-0.4444 -0.9171,-0.9874 z m 46.1402,49.3266 c 5.1101,-3.3969 8.4263,-7.0999 10.6211,-11.859 1.31,-2.8405 1.4936,-4.2909 1.4936,-11.796 0,-7.7695 -0.1598,-8.9368 -1.7388,-12.6839 -2.7031,-6.4155 -6.0598,-10.7192 -11.9423,-15.3118 -2.9744,-2.3224 -7.5911,-6.3039 -10.2594,-8.8482 l -4.8514,-4.6257 1.942,3.2915 c 14.1268,23.9429 16.6469,30.1107 16.6469,40.7421 0,10.9312 -1.7765,15.845 -8.203,22.6899 l -3.3163,3.5317 2.5374,-1.0583 c 1.3952,-0.5821 4.5768,-2.4148 7.0702,-4.0723 z" fill="#00B894" transform="translate(14.8119,-138.3874) translate(-2309.359,-2966.0445)"/>
</svg>