<?xml version="1.0" ?><svg height="129.82999mm" viewBox="0 0 163.38443 129.82999" width="163.38443mm" xmlns="http://www.w3.org/2000/svg">
    <path color="#000" d="m 4360.4199,2274.5624 c 0,0 -90.3667,38.9753 -91.8272,79.9864 -1.4606,41.0111 -9.445,54.6815 26.2902,67.6509 35.7352,12.9693 83.6419,21.2941 83.6419,21.2941 0,0 129.9907,87.0173 182.279,98.234 52.2883,11.2169 62.415,1.4021 95.1317,-11.8301 32.7167,-13.2322 157.352,-85.6152 176.4367,-97.0072 19.0847,-11.3919 44.0118,-42.7637 33.9825,-84.3006 -14.4832,-56.7872 -41.947,-56.2289 -85.9787,-75.0995 0,0 -25.7323,-63.1398 -93.087,-33.1244 -23.8509,1.4516 -12.6584,-72.7515 -152.5807,-14.9849 l 18.111,-147.2195 -54.5279,104.1929 -31.0614,-56.2589 9.9319,106.8219 c 0,0 -45.4967,-39.5633 -26.5824,4.6444 -29.5722,-9.3113 -41.7842,13.2224 -37.9747,17.9643 -24.3035,-0.6303 -38.279,9.1678 -52.1849,19.0362 z" fill="#FFFFFF" overflow="visible" paint-order="fill markers stroke" transform="translate(-155.92187,16.327241) matrix(0.26458333,0,0,0.26458333,-970.8612,-562.58261)"/>
    <path d="m 4580.3409,2552.9833 c -44.779,-4.3536 -79.7996,-25.8215 -115.7732,-45.4434 -14.2796,-7.487 -74.3289,-47.5356 -80.4429,-53.6498 -3.6929,-3.6926 -11.9377,-5.9336 -23.0956,-6.2769 -18.9808,-0.584 -64.421,-12.9526 -75.1221,-20.448 -32.8405,-15.3269 -27.9144,-29.1749 -25.2768,-55.3177 4.1328,-40.1004 4.4597,-41.1558 17.455,-56.3592 13.4156,-15.6948 55.0258,-40.8943 82.6267,-50.0396 11.2234,-6.11 21.5374,-17.9233 37.6328,-13.2524 8.6716,0 10.5306,-1.3337 10.309,-7.396 -0.3851,-10.5338 18.8545,-21.6943 28.5,-16.5323 10.0074,5.3558 8.7089,1.398 -5.7859,-17.6349 -13.359,-17.5414 -44.3677,-40.6501 -58.457,-43.5641 -11.3705,-2.3517 -12.7817,-9.512 -2.3891,-12.1204 17.3377,-4.3516 41.9196,7.8418 69.5386,34.4929 14.2585,13.759 26.4214,24.5195 27.0285,23.9122 0.6074,-0.6071 -0.8213,-19.3141 -3.1747,-41.571 -2.3533,-22.257 -4.3182,-48.1289 -4.3666,-57.4929 -3.6268,-25.7238 14.7378,-11.3368 15.908,-6.6478 4.5263,18.2597 15.4678,55.9993 17.5942,55.9718 2.1264,-0.026 7.4769,-9.6043 11.8899,-21.2819 7.7484,-20.5036 37.8538,-68.14 42.3757,-74.4448 4.9634,-6.9203 16.1767,-1.9144 16,5.4367 -0.056,2.3139 -5.2895,27.0357 -11.7542,54.9357 -6.4649,27.9 -12.7768,58.6611 -14.0266,68.358 -2.1108,14.7721 -5.6116,17.3084 9.2006,18.7381 8.1149,0.7833 14.4071,-1.2367 21.4994,-6.9022 7.7865,-6.2197 12.6682,-7.5809 21.8473,-6.0913 8.63,1.4004 12.9166,0.4188 15.8823,-3.6369 5.1067,-6.9839 26.6624,-6.6377 37.7173,0.606 4.3598,2.8565 10.9858,5.1938 14.7242,5.1938 8.3358,0 20.6831,12.6436 20.6831,21.1794 0,8.7092 9.2459,11.3992 16.5284,4.8087 4.4982,-4.071 11.2646,-5.1935 26.2626,-4.3571 25.1043,1.4001 29.2034,3.1792 47.8032,20.7492 10.6063,10.0191 14.9638,16.8539 14.9638,23.4715 0,10.1718 12.4314,29.4911 18.9768,29.4911 8.2686,0 14.6399,15.4316 12.6123,30.5479 -1.5971,11.9081 -4.018,15.7621 -13.3647,21.2768 -10.0313,24.9567 -30.7234,20.0681 -31.8448,28.3091 0,8.8925 -15.97,16.248 -30.3018,13.9562 -9.7932,-1.566 -14.3203,-0.7189 -17.659,3.3038 -3.2548,3.9219 -7.8841,4.8669 -16.8318,3.4361 -11.4053,-1.8238 -12.7103,-1.1375 -17.1899,9.0388 -10.1558,23.0712 -44.0061,28.5504 -44.0061,7.123 0,-6.5865 -1.3352,-8.245 -5.3861,-6.6905 -2.9624,1.1368 -8.231,2.067 -11.7078,2.067 -3.4767,0 -11.3544,4.5969 -17.5058,10.2152 -12.9444,11.8228 -24.8133,13.1312 -30.8874,3.4051 -2.8594,-4.5785 -7.9408,-6.8102 -15.5065,-6.8102 -7.6427,0 -14.1583,-2.9047 -20.3058,-9.0522 -7.3776,-7.3776 -12.7042,-9.2307 -28.7917,-10.0162 -23.6812,-1.1564 -26.5435,-2.6317 -26.5435,-13.6819 0,-4.682 -1.1643,-7.7931 -2.5875,-6.9135 -4.6237,2.8575 -25.2581,-7.6791 -22.8066,-11.6458 1.2799,-2.0708 5.2782,-2.9934 8.8851,-2.0502 3.9848,1.042 9.1783,-1.0976 13.2361,-5.4532 8.467,-9.0881 8.3832,-11.5418 -0.5573,-16.3268 -9.6141,-5.1451 -24.4121,5.4807 -26.8419,19.274 -2.2817,12.9524 -12.5742,15.1462 -15.5441,3.313 -2.3103,-9.205 -9.2033,-10.9906 -35.2451,-9.1297 -18.8582,1.3473 -26.9927,-2.3433 -35.7538,-16.2216 -5.4804,-8.6816 -11.5611,-13.7398 -18.086,-15.0447 -12.4551,-2.4911 -19.7702,-16.4255 -14.1427,-26.9405 3.2267,-6.0289 2.9653,-6.8052 -1.6897,-5.0188 -8.8466,3.3947 -35.0645,23.8828 -39.5074,30.8729 -2.9974,4.7162 -3.0617,7.0431 -0.2431,8.785 5.7823,3.5738 0.6118,13.688 -5.7494,11.2469 -10.4367,-1.9451 19.2678,20.7896 22.2559,13.1616 2.1091,-6.327 10.004,-4.3696 11.9195,2.955 2.3768,9.0889 12.6337,8.8967 12.6337,-0.2368 0,-5.3603 1.8337,-6.7866 7.6615,-5.9589 4.9046,0.6966 7.6614,3.4386 7.6614,7.6203 0,5.2232 3.8991,7.3127 19.4544,10.4257 20.0007,4.0028 31.6281,11.491 35.1698,22.6498 1.8122,11.0442 35.1537,22.7886 56.8114,33.6577 36.8656,17.5196 74.4961,42.5073 109.6998,49.5061 15.9695,6.4777 42.5368,-0.7398 79.3816,-17.8537 39.2882,-17.3808 54.3161,-19.2908 102.4276,-44.1088 74.4302,-38.5367 96.5834,-56.3099 96.5834,-77.4875 0,-15.8826 -9.0595,-27.7412 -29.7318,-38.9177 -17.9045,-9.68 -24.446,-21.0184 -12.1262,-21.0184 43.731,10.3413 63.3951,52.3484 64.6262,91.8677 0.7106,46.6766 -13.018,62.8351 -81.024,95.3655 -48.5548,23.2261 -92.965,47.6782 -137.0306,71.4268 -36.3607,14.4717 -38.1245,21.026 -77.8025,14.8861 z m 36.1096,-20.0723 c 50.922,-14.7227 173.7551,-84.3969 224.6737,-118.3615 12.9288,-13.3998 18.4347,-23.3543 18.4347,-33.3292 0.8348,-11.9932 -1.2216,-6.5286 -7.6614,-0.7352 -14.3131,12.8763 -60.1331,41.6901 -83.316,52.3932 -49.7908,23.1813 -101.6306,47.8487 -149.7069,62.9293 -46.3632,14.1955 -108.2635,-23.2037 -143.9626,-40.9925 -38.6375,-19.3116 -72.3733,-39.1741 -74.2663,-39.1741 -6.7252,0 -8.2175,17.493 -2.0717,24.2842 10.0189,11.0706 59.1142,40.7501 101.7472,63.9466 36.0412,19.6099 79.1516,39.6887 116.1293,29.0392 z m -232.7548,-123.0007 c 2.2142,-17.0906 3.8488,-16.2059 -46.8193,-25.3387 -20.6009,-3.7133 -42.3215,-9.6146 -48.2681,-13.1142 l -10.812,-6.3628 c -1.6649,11.2034 -5.4815,25.4415 -0.4449,35.3434 5.7889,10.8168 38.0171,24.4659 64.6327,27.3731 12.1731,1.3296 25.1977,3.5386 28.9433,4.9089 7.8176,2.8599 9.9322,-0.9174 12.7683,-22.8097 z m 211.8227,5.966 c 2.5183,-4.0745 -3.8873,-8.1117 -8.4228,-5.3086 -3.8082,2.3536 -1.3082,8.4784 3.4605,8.4784 1.6519,0 3.8848,-1.4264 4.9623,-3.1698 z m 70.1617,-15.006 c -3.9153,-3.9152 -10.4271,0.1364 -10.4271,6.4878 0,4.0624 1.1899,4.1925 6.7252,0.7356 3.9175,-2.4465 5.463,-5.4622 3.7019,-7.2234 z m -90.6901,-0.7955 c 6.4221,-6.422 6.6498,-9.0137 1.2648,-14.3986 -9.6365,-9.6366 -28.9936,-0.093 -25.045,12.3475 2.8145,8.8681 15.8399,9.9915 23.7802,2.0511 z m 52.8533,-4.0429 c 9.8485,-7.9748 6.1984,-18.6368 -5.8814,-17.1798 -11.4166,1.3768 -17.2051,10.5542 -11.2121,17.7755 5.6855,6.8504 7.9977,6.7697 17.0935,-0.5957 z m -99.0309,-11.3464 c 10.1436,-9.4503 8.1424,-18.1169 -4.5168,-19.5617 -10.6987,-1.2212 -18.8668,6.0813 -18.8668,16.8675 0,5.0358 3.216,7.2261 13.8296,9.4191 1.0515,0.2172 5.3507,-2.8091 9.554,-6.7249 z m 151.1019,-7.7488 c 7.6005,-9.306 6.2465,-17.1888 -3.1837,-18.5377 -4.7198,-0.6751 -8.7553,1.4813 -11.1517,5.9589 -5.6228,10.5064 -16.4468,9.0759 -17.7611,-2.3472 -0.8456,-7.3496 -2.85,-9.3571 -9.317,-9.3323 -12.0384,0.046 -12.1773,6.2118 -0.4298,19.0737 5.7046,6.2456 10.3718,12.6159 10.3718,14.1561 0,5.4786 25.639,-1.8303 31.4715,-8.9715 z m 30.7207,9.4281 c 3.2496,-3.2496 -1.1909,-11.5849 -6.1714,-11.5849 -5.7041,0 -9.4255,5.7192 -6.6468,10.2153 2.3257,3.763 9.643,4.5449 12.8182,1.3696 z m 42.7272,-12.4857 c 1.6151,-8.387 -8.928,-11.4228 -15.7996,-4.5494 -5.0051,5.0064 -5.0763,6.0934 -0.5873,8.9741 7.2382,4.6449 15.0464,2.5366 16.3869,-4.4247 z m -148.243,-1.816 c 6.2507,0.8867 7.1989,-0.8049 7.5448,-13.4575 0.4394,-16.0786 -3.1506,-19.2267 -6.5374,-5.7326 -2.6906,10.7199 -13.3624,10.0506 -14.9329,-0.9367 -1.7438,-12.1984 5.2395,-20.939 18.7546,-23.4744 10.2944,-1.9313 16.0544,-0.4215 32.6573,8.5597 14.9564,8.0907 22.6525,10.3569 29.8237,8.7819 10.6473,-2.3387 23.6849,2.9704 23.6849,9.6445 0,5.5901 23.8046,6.5265 30.9332,1.2171 2.9671,-2.2101 6.4698,-8.335 7.7836,-13.6109 1.3442,-5.3974 6.6936,-12.0631 12.2322,-15.2419 10.1921,-5.8494 15.6886,-20.3031 9.9604,-26.1922 -2.1354,-2.1955 -6.4583,-1.5558 -12.5071,1.8508 -6.7301,3.7903 -9.2437,7.8887 -9.2437,15.072 0,8.9673 -1.0858,9.8846 -11.9178,10.0671 -10.8927,0.1836 -11.9285,1.0778 -12.0418,10.3935 -9.4301,27.5813 -16.4641,-13.9096 -16.9374,-17.583 -1.9714,-15.5567 0.1237,-16.0968 4.7914,-21.3644 9.1449,-10.3202 16.8436,-3.8112 22.3481,3.1743 7.7758,-6.1313 20.5501,-23.2846 34.1676,-15.9418 4.3467,-0.021 11.6203,-14.1412 11.8308,-18.6918 0.06,-1.2803 -4.0781,-2.8126 -9.1937,-3.4051 -6.849,-0.7935 -10.204,-3.7708 -12.7249,-11.2929 -5.8083,-22.3958 -32.7641,-13.3299 -46.0758,-5.5896 -15.1568,9.2417 -22.1217,9.188 -28.712,-0.2213 -5.1822,-7.3986 -5.3368,-7.4118 -10.1269,-0.8609 -3.5007,4.7877 -3.8484,7.8765 -1.2401,11.0193 2.5737,3.101 2.4779,6.8828 -0.3303,13.0462 -4.6199,10.1394 -12.74,9.0189 -11.5584,-1.5948 -0.8053,-12.67 -9.2126,-6.7125 -9.324,1.2268 0,10.4696 -8.4436,11.3753 -13.7427,1.4741 -4.7982,-8.9656 3.8403,-23.6074 13.928,-23.6074 3.7613,0 7.8652,-2.6815 9.12,-5.9588 1.2548,-3.2775 5.4204,-8.5086 9.2571,-11.6248 8.2459,-5.7577 3.8692,-12.7803 -2.2748,-6.8763 -2.2161,2.2161 -6.7874,4.0293 -10.1584,4.0293 -5.8186,0 -6.7185,-1.6345 -7.4992,-13.6203 -0.191,-2.931 -4.3231,-5.5668 -9.6967,-6.1852 -9.8699,-1.1356 -12.9967,5.005 -4.2563,8.3589 9.6312,3.6959 5.3169,10.0846 -6.8102,10.0846 -10.2953,-13.8445 -31.0628,12.3764 -9.3639,17.9319 10.5141,5.627 9.8796,11.9659 -0.9262,9.2538 -10.4608,-2.6254 -16.2829,7.1745 -7.2615,12.2232 6.6387,3.715 7.5565,13.0297 1.2837,13.0297 -7.1519,0 -18.5057,-9.5055 -20.5104,-17.1717 -1.1893,-4.5472 0.4206,-9.129 4.4066,-12.5419 5.5059,-4.7141 5.6672,-5.9902 1.3089,-10.3486 -4.3584,-4.3584 -4.329,-5.9516 0.2387,-12.9228 6.6359,-10.1278 1.599,-13.5171 -7.8759,-5.2995 -4.286,3.7171 -10.488,5.6481 -15.2294,4.7419 -5.2511,-1.004 -11.3992,1.4109 -17.896,7.0291 -9.3102,8.0506 -9.4932,8.6884 -3.0869,10.7559 17.832,5.4251 23.4881,20.0823 5.8225,17.1503 -12.3325,-2.0837 -14.1838,-1.3846 -20.7482,7.8341 -3.964,5.567 -7.2074,14.0992 -7.2074,18.9601 0,9.8761 -6.942,11.7777 -13.6204,3.7308 -7.9549,-9.5851 -15.6447,-6.2024 -16.0203,7.0474 -0.4218,14.8803 -2.8592,17.6926 -10.953,12.638 -8.5367,-5.3314 -20.698,3.2932 -20.698,14.6785 0,7.56 0.757,8.0344 7.264,4.552 4.0604,-2.1732 12.8385,-2.9961 19.9041,-1.8663 11.0906,1.7734 13.1078,0.9945 16.4559,-6.3537 4.2612,-9.3523 16.7126,-13.8005 29.5856,-10.5696 11.8404,2.9718 10.648,10.9439 -2.0153,13.4765 -6.5868,1.3174 -11.1972,4.6636 -12.3151,8.9383 -0.9827,3.7581 -3.9065,6.8329 -6.4972,6.8329 -5.6061,0 -6.2415,5.4621 -1.0112,8.6946 2.0346,1.2574 8.5468,-2.377 14.4716,-8.0763 5.9248,-5.6994 14.8212,-11.3594 19.7697,-12.5777 16.7256,-4.118 39.9437,13.8721 34.8924,27.0357 -3.0269,7.8877 -14.9464,6.8223 -14.9464,-1.3361 0,-9.4188 -10.9892,-14.7124 -18.7542,-9.0344 -5.7605,4.2121 -5.6637,4.9978 1.8725,15.191 6.3099,8.5346 10.4458,10.7598 20.0759,10.8012 6.6708,0.026 14.4272,1.5375 17.2364,3.353 13.2007,7.3702 9.2098,-4.2417 21.3732,-2.7168 z m -33.8455,-43.4692 c -1.1238,-2.9286 -0.2524,-9.2558 1.9369,-14.0604 4.7487,-10.4224 2.5443,-13.9405 -4.8762,-7.782 -4.475,3.7139 -6.3172,3.4764 -11.1488,-1.4371 -5.4534,-5.5457 -5.3176,-6.2717 2.348,-12.5554 8.5906,-7.0419 18.022,-6.2289 27.8856,2.4038 7.0645,6.1828 16.7575,6.0192 16.7575,-0.283 0,-11.0686 21.1,-13.908 28.0398,-3.7731 4.5827,6.6925 2.6937,12.609 -3.6812,11.5291 -8.1284,-1.3771 -17.5485,6.5 -17.5485,14.6743 0,3.5163 -2.2984,6.3933 -5.1076,6.3933 -2.8092,0 -5.1078,-1.5323 -5.1078,-3.4051 0,-6.2014 -7.4314,-3.5337 -14.2287,5.1076 -7.7056,9.7961 -12.3603,10.768 -15.269,3.188 z m 67.9803,-3.7219 c -1.1907,-3.103 0.055,-9.6152 2.7677,-14.4718 6.1878,-11.0768 27.988,-14.5464 31.6378,-5.0352 2.6156,6.8164 -2.8146,14.0677 -6.3052,8.4197 -4.0324,-6.5246 -8.9521,-3.9836 -12.6114,6.5136 -3.8807,11.1322 -12.0469,13.5435 -15.4889,4.5737 z m 89.1938,-52.269 c -2.5854,-4.1835 6.7857,-8.2646 11.8251,-5.1501 1.9931,1.2317 2.7422,3.666 1.6647,5.4092 -2.5988,4.2053 -10.8285,4.047 -13.4898,-0.2593 z m 47.5956,79.6479 c 4.8442,-4.8442 4.9159,-6.3736 0.5992,-12.7691 -5.7336,-8.4946 -14.6854,-7.8687 -24.3443,1.7019 -6.731,6.6698 -6.7334,6.8052 -0.2005,11.6594 8.6542,6.4305 17.1325,6.2207 23.9454,-0.5922 z M 4404.5138,2325.44 c 0.4158,-21.1793 -7.8952,-25.3044 -16.6955,-8.2866 -7.1576,13.8414 -2.2302,28.0652 9.1325,26.3617 6.2038,-0.93 7.2769,-3.4941 7.563,-18.0751 z m 43.1524,5.1978 c -3.8138,-3.814 -6.9343,-9.999 -6.9343,-13.7446 0,-9.5943 -4.3017,-8.4709 -13.0924,3.4191 -10.1685,13.7537 -5.389,23.8217 11.3088,23.8217 13.0556,-0.4619 18.6253,-3.3544 8.7179,-13.4962 z m 355.7086,3.2808 c 1.1575,-1.8728 -0.2844,-3.4051 -3.2041,-3.4051 -2.9197,0 -5.3087,1.5323 -5.3087,3.4051 0,1.873 1.4419,3.4053 3.2042,3.4053 1.7623,0 4.1512,-1.5323 5.3086,-3.4053 z m -15.3229,-13.6203 c 0,-3.7456 -1.5323,-6.8102 -3.4051,-6.8102 -1.8728,0 -3.4051,3.0646 -3.4051,6.8102 0,3.7456 1.5323,6.8101 3.4051,6.8101 1.8728,0 3.4051,-3.0645 3.4051,-6.8101 z m -412.2949,-18.393 c 5.763,-6.9439 1.4246,-14.0383 -5.215,-8.5279 -6.6709,3.9703 -9.5534,0.3491 -14.2335,6.8825 -9.7504,13.9208 8.0136,15.4235 19.4485,1.6454 z m 49.6417,-7.8562 c 0.3425,-4.6509 -1.0451,-6.5298 -3.9885,-5.4003 -5.5615,2.1341 -6.0761,15.7122 -0.5255,13.8621 2.1936,-0.7313 4.2249,-4.5391 4.514,-8.4618 z m 351.0759,0.3704 c -1.212,-3.158 -2.9695,-4.9756 -3.906,-4.0392 -0.9365,0.9363 -0.711,4.2863 0.5007,7.4443 1.212,3.1581 2.9697,4.9757 3.9061,4.0394 0.9364,-0.9364 0.711,-4.2865 -0.5008,-7.4445 z m -307.6506,2.5761 c 5.3011,-1.1064 2.2028,-15.043 -7.7105,-34.681 -8.8433,-17.5186 -11.5776,-20.3335 -19.7496,-20.3335 -17.2118,0 -23.4085,14.1704 -11.0769,25.3303 3.6193,3.2755 5.831,7.9085 4.9151,10.2956 -0.9197,2.3963 1.4707,5.1603 5.3372,6.1714 4.0383,1.0561 7.0028,4.6343 7.0028,8.4527 0,6.1281 7.1151,7.721 21.2819,4.7645 z m -113.2196,-7.3432 c 0,-1.8728 -1.5323,-3.4051 -3.4051,-3.4051 -1.8728,0 -3.405,1.5323 -3.405,3.4051 0,1.8727 1.5322,3.405 3.405,3.405 1.8728,0 3.4051,-1.5323 3.4051,-3.405 z m 57.7797,-17.5125 c 0.1837,-3.7598 -10.7683,-6.5726 -17.3982,-4.4684 -7.1548,2.2709 -8.2233,8.5108 -2.4466,14.2876 2.9086,2.9083 5.8747,2.4381 11.8109,-1.8729 4.3597,-3.1662 7.9751,-6.742 8.0339,-7.9463 z m 71.614,-2.4589 c 0,-1.6202 -2.8538,-6.6001 -6.3418,-11.0665 -3.4879,-4.4663 -7.378,-11.43 -8.6446,-15.4748 -2.2005,-7.0271 -12.2544,-18.0179 -12.2544,-13.3963 0,5.4122 20.8704,42.8836 23.8848,42.8836 1.8459,0 3.356,-1.3257 3.356,-2.946 z m 36.5915,-46.0843 c 0.4608,-12.9206 4.6616,-43.4517 9.3352,-67.8469 4.6737,-24.3952 7.8425,-45.0098 7.0421,-45.8102 -0.8004,-0.8004 -6.7965,9.1512 -13.3249,22.1147 -13.2793,26.3691 -19.2132,58.545 -19.2132,104.1793 v 27.8109 l 7.6614,-8.4778 c 6.144,-6.7988 7.8275,-13.131 8.4994,-31.97 z m -31.0659,5.6152 c -1.1432,-5.1502 -3.0675,-16.6424 -4.2764,-25.5382 -1.2087,-8.8959 -3.5166,-16.1743 -5.1285,-16.1743 -4.0373,0 -3.6482,22.8189 0.6533,38.3074 4.1018,14.7697 11.9522,17.8242 8.7516,3.4051 z m 342.3693,121.1838 c 0.6201,-4.3803 3.4261,-7.9643 6.2353,-7.9643 7.3849,0 6.3674,13.2845 -1.1277,14.7279 -4.8355,0.9312 -5.9822,-0.5873 -5.1076,-6.7636 z m -517.6238,-8.1412 c 0.6471,-3.3379 3.2383,-6.7554 5.7582,-7.5945 2.9305,-0.9759 4.1575,0.6614 3.4051,4.5433 -0.6471,3.3379 -3.2382,6.7555 -5.758,7.5944 -2.9307,0.9759 -4.1577,-0.6614 -3.4053,-4.5432 z" fill="#00B894" transform="translate(-155.92187,16.327241) matrix(0.26458333,0,0,0.26458333,-970.8612,-562.58261)"/>
</svg>