<?xml version="1.0" ?><svg height="103.38483mm" viewBox="0 0 88.348602 103.38483" width="88.348602mm" xmlns="http://www.w3.org/2000/svg">
    <path color="#000" d="m 6291.1121,4309.6004 c -33.3462,1.3288 -131.5376,8.3053 -147.7795,42.9663 -16.2428,34.661 -40.7353,137.9071 37.037,190.8013 77.7723,52.8943 172.8808,98.1139 228.744,0.3323 55.8632,-97.7816 22.3436,-215.8771 -5.7473,-228.4768 9.439,-45.7102 15.4681,-123.8911 -57.7444,-55.5658 -73.2135,68.3252 -54.5098,49.9427 -54.5098,49.9427 z" fill="#FFFFFF" overflow="visible" paint-order="fill markers stroke" transform="translate(-172.14105,77.650258) matrix(0.26458333,0,0,0.26458333,-1446.1976,-1193.6214)"/>
    <path d="m 6258.1419,4596.2623 c -55.9046,-21.0312 -89.8588,-44.8077 -114.338,-80.067 -20.2258,-29.1317 -27.2483,-36.9452 -27.2483,-89.0095 0,-59.9314 13.716,-77.4899 45.0406,-98.0141 16.2212,-10.6285 107.9998,-29.3937 106.2458,-14.6872 -0.8369,7.0277 -20.6518,7.384 -45.8935,11.1303 -67.0317,9.9495 -89.9125,37.0377 -89.9125,106.4497 0,70.4247 65.0864,134.7142 158.3287,156.3896 64.076,14.8947 102.9528,-12.3933 126.5763,-88.8453 24.2502,-78.4793 17.0373,-174.8308 -19.0892,-175.2803 -6.6417,6.0428 -18.1731,19.4346 -32.1257,26.5483 -13.9535,7.1137 -51.7351,4.4571 -70.4181,-3.249 0,0 -9.0997,7.9834 -11.2985,11.5403 -2.3374,3.7831 4.3722,6.467 16.1674,6.467 11.7972,0 18.5068,2.6838 16.1675,6.467 -6.0404,9.7741 -46.6626,7.75 -68.224,-3.3997 -22.8694,-11.8268 -25.6046,-25.5084 -4.015,-20.0897 11.439,2.8714 18.1882,-0.4592 28.0457,-13.8497 15.093,-20.5009 24.2097,-80.297 13.8244,-90.6818 -11.0968,-11.096 -0.6277,-28.3545 15.7895,-26.0237 12.4833,1.7726 14.8659,6.5459 16.5671,33.1892 l 1.9877,31.119 13.1336,-16.697 c 23.9204,-30.4097 64.5398,-57.2153 84.6732,-38.324 18.4285,17.2927 7.9772,64.0024 -8.6077,79.5735 50.1046,22.1371 47.9086,105.94 26.9353,186.688 -14.1354,54.4203 -24.0221,71.6147 -54.588,94.9281 -31.2048,23.801 -73.909,26.4687 -123.7243,7.728 z m 116.7207,-279.0196 c 30.2652,-32.0903 37.512,-74.4801 12.733,-74.4801 -15.8112,0 -46.9491,31.6779 -57.8038,58.8055 -8.2571,20.6374 -12.4917,24.9579 -19.091,19.481 -11.1337,-9.2406 -18.9478,-1.1336 -9.6756,10.0394 3.9613,4.7733 17.4162,8.6786 29.8986,8.6786 17.5387,0 27.5225,-5.1173 43.9388,-22.5244 z" fill="#00B894" transform="translate(-172.14105,77.650258) matrix(0.26458333,0,0,0.26458333,-1446.1976,-1193.6214)"/>
</svg>