<?xml version="1.0" ?><svg height="190.26791mm" viewBox="0 0 64.804718 190.26791" width="64.804718mm" xmlns="http://www.w3.org/2000/svg">
    <path color="#000" d="m 2803.8295,5506.3567 c -13.264,-59.571 -46.6791,-286.6067 -8.4175,-368.3304 17.9865,-34.8714 85.1884,-103.3944 62.5132,-161.9809 -9.3352,-3.9812 -27.2206,-38.2798 2.6454,-67.486 -14.0253,-69.8979 0.075,-81.8778 40.5885,-76.7318 58.9216,7.4844 47.7483,14.6974 39.673,66.8917 30.6993,15.9047 36.7358,45.1823 -4.4897,74.8268 -2.0813,1.4081 -21.9345,71.752 24.6908,120.5124 41.5301,43.4318 48.7716,120.6411 46.9861,202.0205 -1.7855,81.3793 32.7255,246.6823 -107.8979,245.7449 -87.0731,-0.5804 -87.3636,-17.4164 -96.2919,-35.4672 z" fill="#FFFFFF" overflow="visible" paint-order="fill markers stroke" transform="translate(115.60056,143.05607) matrix(0.26458333,0,0,0.26458333,-849.24382,-1420.6655)"/>
    <path d="m 2902.3273,4828.7654 c -2.2518,-0.019 -4.5046,0.014 -6.7489,0.085 -9.8213,0.2583 -22.1198,0.957 -33.5667,3.9539 -7.9338,1.1645 -15.1827,11.4634 -13.9157,15.0686 -1.1267,20.1314 3.5104,38.5434 6.6851,57.8987 -5.2111,2.3101 -9.3263,3.1914 -15.5366,9.3912 -3.9324,12.0084 -6.4868,18.5025 -5.7392,31.9923 0.8945,17.8239 2.1543,21.0258 10.0083,25.4211 3.6968,2.0489 9.6094,2.3998 11.5423,7.1028 1.4352,5.7189 -0.4593,41.2639 -2.8416,53.3105 -3.2747,16.4014 -10.0667,40.4746 -24.9299,52.5252 -3.0226,1.3772 -7.3836,5.0317 -17.1247,14.349 -6.1823,5.9132 -13.7608,17.78 -16.5271,25.8815 -8.6971,25.4684 -9.5728,28.4697 -9.9328,34.0134 -0.1179,1.8157 -1.2138,9.8378 -2.4354,17.827 -15.0583,103.2056 -9.6697,222.2233 13.7996,324.3836 3.0761,11.2544 4.3658,13.8131 11.0432,21.9045 4.9184,5.96 9.5745,10.1009 13.3199,11.8479 45.5637,20.2679 93.8499,12.2315 143.5922,-2.5282 16.5676,-4.9161 26.6554,-24.0521 32.7697,-35.1915 30.4949,-60.5276 21.3396,-153.9433 18.2525,-228.6414 -1.3305,-10.7832 -1.9362,-17.2145 -3.9848,-42.2558 -1.4067,-17.1934 -2.6949,-31.3294 -3.3677,-36.9749 -2.0881,-17.6604 -6.2702,-34.5001 -11.6466,-51.765 -4.3089,-22.443 -12.0877,-31.8638 -28.7599,-52.763 -0.7263,-1.0578 -5.3322,-6.1708 -10.2346,-11.3624 -9.8944,-10.5423 -16.0658,-23.7952 -18.8831,-40.0254 -0.9721,-7.3284 -3.8175,-43.2112 -0.2322,-54.3512 1.7681,-5.4936 2.5969,-6.3983 6.8651,-7.4896 2.6697,-0.6827 6.3819,-1.2136 8.25,-1.1799 3.5912,0.065 12.4742,-4.9195 15.7707,-8.8497 3.1159,-3.7139 4.9239,-25.7799 3.0852,-37.6366 -2.9903,-15.6008 -6.986,-23.5901 -19.1229,-27.2435 -3.6122,-1.0726 -6.8718,-2.7407 -7.2422,-3.706 -0.3704,-0.9653 0.216,-3.8812 1.3019,-6.4801 2.4914,-5.9629 4.9285,-22.7079 5.2014,-35.7409 0.093,-4.4333 -0.6308,-5.8062 -5.1027,-9.6834 -12.1484,-10.2682 -27.8489,-12.9557 -43.6118,-13.0877 z m -8.6504,7.4182 c 13.035,0.065 27.5516,2.2116 38.594,6.6039 4.1734,1.0188 3.116,5.5341 -1.0581,6.1724 -3.5933,0.5417 -19.879,2.3296 -33.6092,2.917 -33.1551,0.3562 -38.3005,-5.5985 -36.1006,-8.0913 1.3166,-6.4485 15.4149,-7.6864 32.1739,-7.602 z m -34.5125,19.5446 c 1.0489,-0.2424 8.0263,10.5027 51.1788,7.1764 10.0161,-0.7721 19.766,-1.8111 27.4968,-4.8687 4.3763,-1.2012 -1.4775,52.1369 -12.7552,53.7129 -14.5465,3.5569 -29.247,2.6827 -43.2441,0.4816 -10.0456,-1.6009 -17.0111,-6.1425 -17.03,-11.1031 -0.01,-2.4556 -0.6627,-4.7317 1.1605,-3.9654 4.9185,2.0674 8.4388,1.96 14.1924,0.2611 15.3991,-4.6954 12.5757,-24.8628 -0.5068,-27.1717 -4.3738,-2.2691 -11.5273,-3.4424 -15.4671,-0.6828 -3.3731,2.3625 -5.4382,-8.718 -5.1937,-13.3837 0.015,-0.288 0.059,-0.4315 0.1684,-0.4566 z m 44.8342,11.8151 c -1.6666,0.1041 -3.5306,0.7759 -5.3466,2.6112 -9.9961,7.2553 0.2001,27.3953 14.0453,20.4867 5.7363,-2.8621 4.9757,-6.3563 -0.9303,-7.2577 -4.7954,-0.7318 -6.302,-3.13 -3.7431,-5.9578 3.0634,-3.3847 3.1909,-6.739 0.1393,-9.0837 -1.0286,-0.4386 -2.4981,-0.9029 -4.1646,-0.7987 z m 20.4228,2.737 v 0 c -3.3611,0.1798 -5.4317,3.4659 -5.4317,7.6406 0,2.9978 2.2915,4.7625 4.0524,6.6368 3.353,3.5692 5.8665,2.852 8.6137,-2.4605 1.9274,-3.7272 2.3098,-6.4703 -0.2437,-9.0237 -1.4968,-1.4967 -4.0982,-2.635 -6.3002,-2.7874 -0.2353,-0.016 -0.4665,-0.018 -0.6905,-0.01 z m -51.9468,7.2809 c 5.2826,0.043 10.2918,2.0908 8.6755,6.4975 -0.4477,1.1667 -1.3881,2.1809 -3.7623,3.6482 -4.6476,2.8724 -7.5831,3.1846 -12.2579,1.3056 -2.3059,-0.9269 -2.9712,-2.254 -2.9712,-5.9249 -0.5236,-3.6097 5.0332,-5.5696 10.3159,-5.5264 z m 27.458,18.8463 c -0.6399,-0.02 -1.4579,0.041 -2.5108,0.1471 -0.3,0.03 -0.4299,0.032 -0.6906,0.057 -5.4803,0.9595 -7.4927,6.813 -4.9615,10.8188 4.1456,1.8177 10.5848,2.8379 11.6137,-4.5283 -0.022,-3.7393 -0.8584,-6.3688 -3.4508,-6.4937 z m 41.7121,7.9792 c 6.978,1.7514 11.9068,10.7417 6.157,13.819 -8.7045,2.6838 -37.7673,10.4451 -41.0196,7.2325 34.576,-6.5646 31.0761,-9.1354 32.3848,-11.9369 0.8373,-4.7384 1.4232,-9.3794 2.4778,-9.1146 z m -83.9737,10.8536 c 1.2625,4.4086 4.8103,6.7858 16.7379,7.7354 2.3405,0.4259 9.3072,1.1374 15.4805,1.5824 6.1735,0.4451 10.5469,1.25 9.7201,1.7874 -4.8296,1.9786 -47.9158,4.3299 -48.6759,-2.7895 0.099,-3.2737 4.0361,-6.2199 6.7374,-8.3157 z m 99.6691,9.8092 c 0.079,-0.01 0.1554,0 0.2301,0.017 0.3584,0.082 0.6776,0.4346 1.0562,1.0329 3.1148,4.9235 -0.099,24.1949 -5.0352,30.1894 -2.4542,2.9805 -14.3214,6.0716 -28.7094,7.4782 -4.3577,0.426 -9.7058,1.0275 -11.8846,1.3366 -20.0901,2.4235 -57.9536,3.3904 -64.7309,-2.8067 -3.095,-5.5251 -3.2749,-8.2267 -3.275,-17.9082 v -10.37 l 3.6115,1.3715 c 7.4355,2.8269 28.5065,4.6498 40.6483,3.5146 22.1568,-2.0616 45.3517,-2.5732 65.7638,-11.8808 1.0975,-1.2945 1.7731,-1.9268 2.3252,-1.973 z m -36.2362,50.3955 c 1.153,-0.02 2.1217,0.2176 2.3793,0.6343 0.3437,0.5559 -0.801,5.2249 -2.5437,10.3757 -7.0023,21.0354 -0.8584,47.7123 7.1687,69.3115 4.5731,11.4752 7.3647,15.865 18.1809,28.5799 26.8669,31.7813 33.7558,42.6127 42.3932,88.2312 3.4355,16.4909 3.9095,29.6792 5.5225,55.8484 0.6938,11.2574 1.8857,26.112 2.6481,33.0116 5.8076,52.5603 -2.3052,162.2051 -6.7876,190.7727 -2.5594,16.5719 -0.4234,26.4978 -11.5113,42.2034 -2.0742,3.6415 -7.1257,9.9095 -11.2251,13.9292 -6.1437,6.0248 -9.6564,8.1588 -19.9972,12.1497 -23.7874,9.1081 -39.562,11.8654 -68.0057,10.1959 -28.2925,-1.4086 -36.4097,-2.4265 -48.6719,-6.1048 -9.6276,-2.8885 -11.9506,-4.1069 -13.1246,-6.8883 -0.7846,-1.8586 -2.7581,-4.8653 -4.3852,-6.6811 -1.8792,-2.097 -4.2078,-8.3573 -6.3852,-17.1654 -16.5347,-66.8551 -12.8562,-152.3901 -16.5309,-226.469 -0.1728,-18.1571 0.1666,-37.7667 0.7563,-43.5769 0.5898,-5.8102 1.4602,-15.3167 1.9343,-21.127 2.7892,-32.8337 13.0765,-74.1806 38.1202,-101.6885 15.0854,-12.2095 17.885,-15.4604 24.3205,-28.2453 3.5262,-7.0051 6.7678,-14.5062 7.2055,-16.67 0.4374,-2.164 1.42,-6.9069 2.1818,-10.5384 3.6225,-17.2679 4.6676,-28.0135 4.5844,-47.1051 l -0.091,-20.6954 16.6353,-0.1181 c 15.1644,-0.1069 26.2004,-0.776 34.0329,-2.062 0.4055,-0.066 0.8111,-0.1016 1.1953,-0.1082 z m -75.4877,130.2817 c -2.0913,-0.055 -5.0926,0.9281 -7.3988,3.1472 -18.5754,17.8728 -26.5808,49.0189 -27.5393,55.419 -0.7369,4.3094 -1.3405,12.142 -1.3406,17.4051 0,8.9172 0.2026,9.5973 2.9712,9.9948 2.2412,0.3219 3.1788,-0.3846 3.8184,-2.8783 2.7431,-10.694 5.1227,-22.8415 5.8843,-30.0462 1.2248,-11.1365 12.712,-32.6278 21.7923,-41.5633 1.5576,-0.9488 6.1168,-9.6576 3.5398,-11.0856 -0.4358,-0.2417 -1.0301,-0.3746 -1.7273,-0.3927 z m 115.2735,93.0506 c 1.2868,25.6205 2.0167,107.4615 4.8069,134.7511 0.129,22.7018 7.6599,39.8369 12.5363,0.7024 2.9173,-46.7529 -5.0826,-98.655 -5.5768,-136.1276 -1.9107,-20.6243 -12.3543,-21.7938 -11.7664,0.6741 z m -72.2594,263.892 c -13.3732,0.098 -27.6284,2.1675 -45.434,7.8669 -9.4217,6.3388 -13.7459,13.3253 -13.9621,22.5544 -0.1248,5.3321 0.3907,7.9302 1.7468,8.8013 3.4638,2.2244 5.4579,0.6848 8.335,-6.4375 9.662,-23.4746 84.8845,-19.7661 107.8184,-1.4643 0,1.3874 1.5528,2.8367 3.8474,3.6018 3.1452,1.0484 4.1597,0.842 5.6057,-1.1355 6.5635,-8.9761 -2.3312,-26.4228 -22.0032,-28.9262 -16.7746,-2.5485 -30.7979,-4.9716 -45.954,-4.8609 z" fill="#00B894" transform="translate(115.60056,143.05607) matrix(0.26458333,0,0,0.26458333,-849.24382,-1420.6655)"/>
</svg>