<?xml version="1.0" ?><svg height="119.75642mm" viewBox="0 0 115.26359 119.75642" width="115.26359mm" xmlns="http://www.w3.org/2000/svg">
    <path d="m -8352.4058,10840.977 c 56.6847,-31.488 133.5896,-69.927 212.4255,-45.289 78.836,24.638 121.7754,118.999 134.6118,165.719 12.8365,46.721 22.7194,145.989 -24.4232,194.14 -47.1425,48.152 -55.7759,63.283 -149.8338,67.065 -94.0579,3.783 -165.6237,-17.686 -212.8798,-145.886 -47.2562,-128.2 -2.6127,-190.358 40.0995,-235.749 z" fill="#FFFFFF" style="font-variation-settings:normal" transform="translate(10.762708,-325.65755) matrix(0.26458333,0,0,0.26458333,2217.548,-2526.2512)"/>
    <path d="m -8259.0542,11225.567 c -35.837,-10.17 -61.087,-24.709 -85.748,-49.371 -33.07,-33.067 -57.488,-87.063 -70.836,-156.615 -10.653,-55.518 -8.217,-85.45 10.138,-124.653 10.828,-23.124 42.033,-57.75 65.772,-72.985 59.345,-38.081 161.8237,-55.687 212.0337,-32.997 25.631,11.581 66.7723,32.094 98.8172,97.534 16.9444,34.603 38.467,82.018 42.3911,152.637 1.3381,24.081 -5.647,61.155 -12.103,79.831 -6.305,18.24 -35.888,55.442 -55.012,69.173 -49.34,35.432 -148.717,53.545 -205.453,37.446 z m 94.597,-15.307 c 31.481,-3.844 62.459,-10.66 81.402,-17.912 9.56,-3.659 10.064,-4.627 5.035,-9.656 -5.03,-5.03 -7.523,-5.016 -24.912,0.159 -35.852,10.646 -107.244,5.646 -157.312,-11.018 -32.984,-10.981 -74.103,-37.218 -100.384,-64.054 -10.101,-10.318 -18.366,-16.855 -18.366,-14.533 0,2.326 5.942,15.039 13.207,28.255 24.384,44.365 66.967,76.602 114.958,87.029 28.28,6.144 47.203,6.525 86.372,1.743 z m 112.199,-49.064 c 15.439,-17.584 14.187,-20.324 -2.348,-5.14 -7.497,6.883 -15.184,13.745 -17.084,15.25 -1.924,1.524 -0.883,2.737 2.348,2.737 3.195,0 10.882,-5.782 17.084,-12.847 z m -57.776,4.358 c 16.734,-5.841 15.907,-12.391 -7.321,-57.917 -9.968,-19.532 -18.123,-36.296 -18.123,-37.256 0,-0.956 2.326,-1.742 5.168,-1.742 10.897,0 40.65,43.25 50.695,73.683 2.591,7.848 10.492,3.708 23.399,-12.259 l 8.386,-10.374 -14.504,-24.837 c -20.03,-34.299 -21.576,-42.272 -10.946,-56.49 8.108,-10.846 8.609,-14.501 8.564,-62.406 -0.02,-36.091 -1.53,-54.054 -5.161,-61.789 -6.196,-13.197 -7.734,-38.855 -2.222,-37.048 2.123,0.696 4.376,6.453 5.002,12.796 0.934,9.487 2.71,11.533 9.993,11.533 4.871,0 12.4075,-6.595 12.4075,-7.746 0,-4.527 -18.3144,-36.95 -49.0538,-62.725 -29.4173,-24.668 -56.8937,-32.119 -94.6537,-34.178 -36.66,-1.995 -77.989,7.756 -120.205,28.364 -66.889,32.651 -105.894,103.411 -92.623,168.03 17.252,84.005 78.664,147.319 164.785,169.881 31.187,8.172 105.914,9.638 126.413,2.48 z m -56.887,-12.41 c -3.334,-5.115 -5.079,-5.469 -8.887,-1.818 -2.606,2.5 -8.363,4.544 -12.796,4.544 -4.429,0 -8.741,-2.044 -9.581,-4.544 -1.197,-3.564 -3.556,-3.46 -10.962,0.484 -5.809,3.091 -11.975,3.887 -16.042,2.067 -3.634,-1.631 -10.694,-3.072 -15.689,-3.21 -7.189,-0.193 -9.336,-2.386 -10.261,-10.474 -1.055,-9.202 -2.216,-10 -11.575,-7.944 -7.826,1.719 -12.332,0.357 -18.19,-5.501 -4.286,-4.281 -10.115,-6.894 -12.96,-5.802 -8.446,3.242 -16.074,-1.634 -16.074,-10.278 0,-6.038 -2.063,-8.003 -8.179,-7.788 -5.822,0.219 -8.51,-2.067 -9.337,-7.89 -0.722,-5.066 -3.684,-8.176 -7.79,-8.176 -6.971,0 -11.039,-6.808 -11.039,-18.471 0,-5.048 -2.555,-6.973 -9.252,-6.973 -8.604,0 -9.082,-0.889 -6.864,-12.721 2.233,-11.901 1.774,-12.722 -7.104,-12.722 -10.285,0 -12.232,-6.262 -5.731,-18.41 3.098,-5.784 2.561,-7.03 -3.027,-7.03 -10.043,0 -11.47,-3.037 -7.187,-15.32 3.19,-9.15 2.822,-11.648 -2.115,-14.412 -8.085,-4.525 -7.508,-10.951 2.074,-23.13 5.474,-6.962 6.635,-10.696 3.634,-11.698 -7.343,-2.448 -4.964,-13.616 4.866,-22.852 6.531,-6.136 8.677,-11.104 7.252,-16.788 -1.56,-6.215 0.904,-10.311 10.712,-17.792 7.009,-5.345 12.742,-12.684 12.742,-16.309 0,-3.628 3.395,-7.671 7.543,-8.988 9.067,-2.879 14.213,0.758 5.697,4.024 -3.284,1.262 -5.971,5.255 -5.971,8.875 0,3.622 -5.782,10.158 -12.846,14.524 -9.929,6.137 -12.328,9.583 -10.553,15.179 1.59,5.001 -0.703,10.366 -7.43,17.385 -8.434,8.804 -9.119,11.125 -5.152,17.477 3.792,6.07 3.529,8.917 -1.531,16.639 -7.646,11.665 -7.747,16.837 -0.33,16.837 4.717,0 5.321,2.65 3.312,14.54 -2.008,11.889 -1.403,14.538 3.315,14.538 6.611,0 7.501,8.151 2.009,18.412 -3.26,6.093 -2.533,7.03 5.453,7.03 8.05,0 9.213,1.556 9.213,12.318 0,9.411 1.473,12.199 6.237,11.811 4.231,-0.34 6.883,3.002 8.253,10.401 1.619,8.741 3.624,10.676 10.12,9.767 6.88,-0.966 8.101,0.558 8.101,10.12 0,9.55 0.968,10.767 6.364,7.991 9.389,-4.831 15.445,-1.227 15.445,9.194 0,7.525 1.376,8.848 7.528,7.237 5.084,-1.326 9.981,0.848 15.065,6.695 6.062,6.97 8.903,7.927 14.561,4.899 10.09,-5.4 17.364,-1.297 17.364,9.8 0,8.513 1.064,9.328 9.436,7.226 5.189,-1.302 11.6,-0.569 14.252,1.633 3.539,2.936 6.827,2.746 12.373,-0.719 5.992,-3.742 9.023,-3.801 14.659,-0.283 5.793,3.619 9.153,3.276 18.242,-1.853 9.347,-5.276 11.65,-5.474 14.323,-1.233 2.062,3.265 11.859,5.489 27.73,6.293 13.499,0.682 25.351,2.048 26.341,3.036 0.987,0.988 -0.359,4.396 -2.994,7.568 -3.171,3.82 -9.442,5.439 -18.536,4.783 -7.561,-0.549 -14.905,0.158 -16.326,1.582 -4.827,4.829 -17.746,2.597 -21.905,-3.78 z m -10.73,-39.074 c -3.791,-2.87 -10.371,-5.272 -14.627,-5.335 -4.252,-0.05 -9.688,-2.473 -12.076,-5.351 -2.391,-2.882 -6.553,-4.388 -9.252,-3.354 -2.699,1.035 -8.15,-1.365 -12.118,-5.331 -4.661,-4.661 -11.505,-7.012 -19.333,-6.644 -9.386,0.445 -12.938,-1.269 -15.738,-7.604 -2.685,-6.071 -6.673,-8.179 -15.476,-8.179 -9.437,0 -11.86,-1.482 -11.86,-7.267 0,-4.697 -2.423,-7.269 -6.845,-7.269 -3.822,0 -7.697,-3.259 -8.772,-7.374 -1.063,-4.057 -3.295,-7.133 -4.969,-6.839 -8.626,1.517 -12.126,-1.197 -12.126,-9.413 0,-7.736 -1.67,-9.086 -11.251,-9.086 -11.253,0 -11.256,0 -9.996,-18.175 1.146,-16.547 0.56,-18.175 -6.53,-18.172 -9.367,0 -13.543,-8.878 -8.554,-18.196 4.924,-9.197 4.739,-9.74 -4.132,-12.061 l -7.756,-2.027 7.965,-13.499 c 5.33,-9.033 6.659,-14.306 4.011,-15.942 -4.52,-2.795 8.795,-21.869 15.266,-21.869 2.161,0 1.247,2.965 -2.034,6.591 -4.343,4.8 -4.876,7.681 -1.96,10.594 2.917,2.919 1.303,7.547 -5.936,17.037 -9.853,12.917 -9.867,13.027 -1.841,13.027 8.237,0 8.529,4.922 1.401,23.5 -1.863,4.849 -0.298,5.784 8.161,4.879 l 10.468,-1.121 -1.206,19.437 -1.201,19.436 10.757,-2.363 c 9.287,-2.039 11.058,-1.156 12.975,6.482 1.222,4.864 5.509,9.704 9.528,10.753 4.019,1.052 7.309,4.52 7.309,7.704 0,3.302 3.019,5.793 7.023,5.793 3.865,0 8.062,3.271 9.333,7.269 1.59,5.009 5.499,7.269 12.573,7.269 8.011,0 10.781,2.065 12.626,9.417 1.79,7.129 3.872,8.78 8.574,6.8 15.867,-6.682 22.986,-6.306 24.98,1.324 1.609,6.157 3.937,7.176 12.502,5.462 9.095,-1.817 10.525,-1.004 10.525,6.015 0,6.93 1.381,7.767 9.471,5.739 6.814,-1.711 10.784,-0.583 14.147,4.011 3.679,5.034 5.768,5.481 9.836,2.101 6.69,-5.55 31.969,-1.668 31.969,4.913 0,7.403 -13.377,13.251 -20.996,9.172 -3.805,-2.037 -8.805,-2.137 -12.189,-0.245 -3.734,2.094 -8.131,1.392 -12.626,-2.009 z m -13.769,-40.058 c -44.782,-12.298 -88.014,-43.139 -103.774,-74.029 -10.81,-21.189 -9.183,-22.398 3.787,-2.819 12.943,19.54 35.334,39.884 55.12,50.084 7.524,3.879 29.605,11.251 49.069,16.384 19.462,5.132 36.938,10.81 38.838,12.62 5.134,4.892 -22.262,3.466 -43.04,-2.24 z m -23.044,-25.07 c -27.177,-10.1 -44.728,-22.855 -55.563,-40.389 -11.237,-18.179 -6.46,-19.705 11.343,-3.619 23.245,21.001 38.951,26.6 102.309,36.47 7.496,1.167 13.631,3.355 13.631,4.867 0,13.732 -38.124,15.153 -71.72,2.671 z m 72.212,-14.236 c -4.11,-4.953 -15.033,-33.45 -15.033,-39.215 0,-1.748 1.446,-3.179 3.208,-3.179 3.273,0 22.237,37.284 22.237,43.714 0,5.079 -5.702,4.356 -10.412,-1.32 z m 55.911,-16.042 c 1.465,-3.5 3.49,-19.447 4.5,-35.436 1.811,-28.676 1.739,-28.991 -5.287,-22.72 -9.739,8.697 -16.723,8.239 -13.82,-0.907 1.8,-5.669 0.652,-7.269 -5.206,-7.269 -8.432,0 -10.293,-10.305 -3.154,-17.447 3.395,-3.391 2.66,-4.362 -3.294,-4.362 -5.549,0 -7.19,1.78 -5.964,6.469 2.16,8.255 -4.576,26.242 -9.826,26.242 -2.198,0 -3.703,-4.497 -3.34,-9.993 1.268,-19.201 -0.158,-28.65 -5.343,-35.651 -4.702,-6.339 -5.021,-4.93 -3.126,13.844 1.455,14.451 0.828,20.898 -2.037,20.898 -2.279,0 -4.179,-5.315 -4.223,-11.813 -0.107,-14.679 -10.78,-38.528 -21.551,-48.117 -17.138,-15.259 -15.848,-21.792 1.5,-7.598 14.407,11.784 16.617,12.727 12.792,5.453 -2.546,-4.839 -6.843,-10.109 -9.545,-11.708 -2.707,-1.596 -4.925,-5.815 -4.925,-9.373 0,-4.37 -2.652,-6.376 -8.176,-6.18 -4.713,0.158 -7.794,-1.636 -7.269,-4.254 1.241,-6.207 -2.693,-5.702 -10.483,1.348 -8.18,7.404 -17.687,4.076 -17.687,-6.197 0,-7.484 -0.368,-7.56 -9.084,-1.847 -7.38,4.837 -9.087,4.997 -9.087,0.864 0,-2.8 2.342,-7.035 5.208,-9.413 6.272,-5.207 5.985,-18.375 -0.401,-18.375 -2.503,0 -6.303,3.271 -8.442,7.268 -2.141,3.999 -5.622,7.269 -7.736,7.269 -2.117,0 -4.704,-3.27 -5.749,-7.269 -2.545,-9.728 -6.309,-9.16 -15.329,2.308 -8.883,11.294 -10.386,3.382 -1.709,-9.002 3.943,-5.628 8.929,-8.054 15.448,-7.503 5.291,0.445 14.07,-1.325 19.509,-3.937 7.676,-3.679 11.055,-3.774 15.102,-0.417 2.904,2.41 9.21,3.32 14.248,2.057 5.044,-1.264 10.111,-0.53 11.467,1.661 1.335,2.162 7.88,3.928 14.545,3.928 7.42,0 12.928,2.117 14.209,5.452 1.209,3.152 6.644,5.453 12.867,5.453 7.58,0 11.455,2.154 13.08,7.269 1.616,5.092 5.498,7.27 12.965,7.27 10.04,0 12.329,2.857 10.932,13.63 -0.327,2.496 1.76,4.541 4.631,4.541 7.916,0 10.685,11.414 4.317,17.781 -5.024,5.024 -5.587,4.752 -5.587,-2.707 0,-6.64 -1.45,-7.833 -7.269,-5.984 -5.498,1.745 -7.268,0.65 -7.268,-4.481 0,-3.733 1.964,-8.752 4.362,-11.151 3.391,-3.391 0.932,-4.362 -11.065,-4.362 -12.673,0 -15.232,-1.132 -14.358,-6.359 0.878,-5.226 -1.36,-6.218 -12.56,-5.561 -11.564,0.679 -13.631,-0.327 -13.631,-6.625 0,-4.983 -1.995,-7.039 -6.059,-6.251 -13.743,2.662 -7.354,11.467 14.238,19.612 3.5,1.32 6.362,5.479 6.362,9.243 0,4.825 2.603,6.845 8.819,6.845 6.264,0 10.478,3.324 14.54,11.464 3.142,6.305 5.717,13.664 5.717,16.356 0,2.689 3.097,4.891 6.88,4.891 7.709,0 12.146,8.089 8.974,16.356 -1.443,3.758 0.245,5.452 5.374,5.452 6.75,0 7.098,-1.067 3.604,-11.089 -7.921,-22.725 -0.107,-13.311 14.544,17.507 12.618,26.548 15.142,35.552 15.142,53.978 0,25.902 -5.717,45.009 -13.466,45.009 -3.814,0 -4.671,-1.935 -2.82,-6.36 z m -1.884,-81.598 c 0,-5.872 -1.078,-6.922 -4.046,-3.951 -2.225,2.224 -2.948,5.823 -1.603,7.996 3.759,6.085 5.649,4.731 5.649,-4.045 z m -32.168,-26.532 c 0,-1.9 -1.757,-4.04 -3.908,-4.754 -2.149,-0.717 -3.906,1.422 -3.906,4.754 0,3.331 1.757,5.472 3.906,4.754 2.151,-0.714 3.908,-2.854 3.908,-4.754 z m -73.581,-73.601 c -2.679,-3.498 -5.224,-6.932 -5.656,-7.632 -0.434,-0.702 -2.608,-0.141 -4.839,1.232 -5.252,3.246 2.136,12.761 9.912,12.761 4.622,0 4.711,-0.966 0.583,-6.361 z m -18.037,173.161 c -3,-5.599 -5.183,-6.578 -8.126,-3.633 -5.642,5.642 -16.195,5.013 -19.658,-1.177 -1.6,-2.858 -6.178,-4.902 -10.175,-4.541 -5.411,0.488 -7.188,-1.466 -6.965,-7.648 0.19,-5.488 -1.646,-8.118 -5.452,-7.758 -15.242,1.441 -19.313,-0.328 -17.421,-7.562 1.528,-5.85 0.107,-7.269 -7.257,-7.269 -8.11,0 -8.977,-1.252 -7.558,-10.905 1.277,-8.72 0.272,-10.904 -5.04,-10.904 -3.731,0 -6.639,-2.611 -6.639,-5.957 0,-3.281 -2.661,-7.906 -5.912,-10.287 -4.695,-3.429 -5.086,-5.865 -1.906,-11.811 3.358,-6.272 2.844,-7.793 -3.173,-9.366 -8.53,-2.23 -9.334,-10.793 -1.731,-18.396 2.998,-2.998 5.453,-8.892 5.453,-13.095 0,-4.203 2.452,-8.584 5.45,-9.735 3,-1.149 5.453,-5.947 5.453,-10.66 0,-9.551 9.652,-16.299 22.478,-15.711 7.971,0.367 7.886,0.598 -1.579,4.337 -10.456,4.133 -12.488,7.846 -6.362,11.634 6.296,3.892 3.973,9.139 -5.669,12.805 -5.215,1.982 -8.244,5.256 -6.889,7.448 1.331,2.15 -1.311,7.878 -5.867,12.727 l -8.284,8.818 h 9.721 c 7.298,0 9.72,1.811 9.72,7.269 0,3.998 -1.635,7.269 -3.635,7.269 -1.999,0 -3.634,1.635 -3.634,3.633 0,2.001 2.631,3.637 5.844,3.637 4.422,0 5.292,2.213 3.566,9.085 -1.683,6.706 -0.835,9.087 3.242,9.087 6.479,0 7.029,4.931 1.666,14.948 -3.461,6.465 -2.808,7.093 6.361,6.122 8.689,-0.918 10.086,0.141 9.351,7.099 -0.876,8.247 3.959,10.248 14.755,6.106 4.061,-1.558 1.431,-6.04 -10.607,-18.078 -8.802,-8.802 -15.988,-18.91 -15.967,-22.462 0.03,-4.791 2.471,-3.374 9.46,5.495 9.818,12.457 42.844,33.492 52.29,33.305 2.996,-0.05 0.218,-2.381 -6.162,-5.159 -12.404,-5.395 -46.023,-34.553 -43.151,-37.43 0.946,-0.946 9.896,4.28 19.886,11.616 9.993,7.332 29.287,17.222 42.88,21.97 l 24.71,8.639 -16.356,0.328 c -21.276,0.422 -12.975,6.247 13.646,9.572 10.539,1.316 20.025,3.792 21.081,5.499 2.903,4.7 -14.994,8.052 -28.987,5.428 -11.154,-2.094 -12.193,-1.592 -10.455,5.051 1.058,4.056 4.192,7.376 6.955,7.376 6.86,0 6.363,5.978 -0.719,8.695 -8.048,3.089 -8.066,3.081 -12.632,-5.451 z m -3.129,-14.148 c 8.393,0 2.009,-6.55 -10.295,-10.563 -7.495,-2.444 -15.463,-5.225 -17.71,-6.177 -2.243,-0.952 -4.933,1.535 -5.974,5.52 -1.653,6.321 -0.549,6.982 8.621,5.148 8.367,-1.675 10.522,-0.813 10.522,4.192 0,4.247 1.87,5.578 5.749,4.088 3.163,-1.216 7.252,-2.208 9.087,-2.208 z m 105.619,8.917 c -7.37,-9.372 -13.662,-29.689 -10.25,-33.1 1.683,-1.685 27.909,36.477 27.909,40.609 0,5.299 -11.394,0.453 -17.659,-7.509 z m -71.772,-39.232 c -2.211,-2.53 -8.48,-11.34 -13.932,-19.58 -5.453,-8.239 -12.058,-15.803 -14.675,-16.809 -3.115,-1.193 -4.578,-7.842 -4.239,-19.25 0.429,-14.475 1.991,-18.158 9.217,-21.757 4.785,-2.384 11.242,-3.355 14.353,-2.161 4.238,1.625 3.195,2.992 -4.154,5.441 -10.443,3.479 -12.741,8.265 -5.267,10.972 3.613,1.309 3.584,3.263 -0.141,9.552 -4.948,8.365 -1.766,15 19.894,41.48 8.453,10.335 10.735,17.103 5.678,16.847 -1.499,-0.08 -4.533,-2.207 -6.743,-4.735 z m 7.889,-20.692 c -15.301,-16.356 -16.85,-19.538 -14.608,-29.985 1.376,-6.429 3.227,-12.916 4.111,-14.416 2.526,-4.296 12.079,-3.176 12.079,1.417 0,2.28 2.704,6.12 6.007,8.536 7.672,5.609 2.92,13.779 -6.314,10.849 -11.243,-3.569 -8.096,3.026 9.4,19.7 14.533,13.854 18.052,22.194 9.362,22.194 -1.607,0 -10.623,-8.231 -20.037,-18.295 z m -52.937,0.14 c -4,-3.995 -10.718,-7.267 -14.932,-7.267 -6.361,0 -7.277,-1.548 -5.384,-9.088 1.316,-5.24 0.714,-9.085 -1.424,-9.085 -2.035,0 -3.701,-3.993 -3.701,-8.873 0,-4.879 -1.364,-9.714 -3.029,-10.743 -1.669,-1.03 -2.283,-6.979 -1.363,-13.221 1.87,-12.752 14.344,-20.788 25.056,-16.146 5.305,2.298 5.526,3.124 1.142,4.22 -6.271,1.564 -15.769,19.321 -10.333,19.321 1.935,0 3.05,2.862 2.476,6.361 -0.579,3.495 0.216,8.37 1.755,10.827 1.542,2.458 0.916,7.995 -1.39,12.304 -3.898,7.278 -3.519,7.668 5.282,5.458 7.739,-1.94 9.479,-1.102 9.479,4.571 0,3.822 2.452,7.891 5.452,9.042 6.093,2.339 7.468,9.591 1.816,9.591 -1.996,0 -6.904,-3.273 -10.902,-7.272 z m -55.733,-27.863 c -1.331,-1.334 -2.419,-5.443 -2.419,-9.136 0,-3.693 -2.047,-10.069 -4.546,-14.168 -3.914,-6.429 -3.413,-8.385 3.635,-14.166 4.497,-3.687 8.176,-9.948 8.176,-13.913 0,-3.964 2.588,-8.198 5.751,-9.412 8.969,-3.442 10.057,-2.663 4.925,3.524 -3.942,4.746 -3.859,6.314 0.464,9.155 4.393,2.887 4.129,4.258 -1.658,8.68 -3.784,2.888 -8.233,5.718 -9.892,6.291 -1.658,0.573 -0.762,7.578 1.993,15.568 2.752,7.988 4.243,15.758 3.315,17.263 -2.092,3.386 -6.528,3.527 -9.744,0.314 z m 268.983,196.987 c 2.671,-7.708 4.231,-14.638 3.473,-15.4 -1.802,-1.801 -16.823,23.659 -16.823,28.518 0,8.562 8.858,-0.14 13.35,-13.118 z m -14.896,-24.259 c 5.872,-11.352 5.854,-11.407 -2.633,-9.133 -4.699,1.256 -10.621,2.308 -13.168,2.335 -3.4,0.03 -3.048,2.462 1.328,9.136 3.273,4.999 6.541,9.088 7.259,9.088 0.718,0 3.964,-5.14 7.214,-11.426 z m -13.748,-24.315 c -5.544,-2.335 -2.801,-12.229 5.303,-19.105 7.597,-6.454 7.724,-7.217 1.815,-10.761 -8.642,-5.181 -7.995,-12.799 1.66,-19.561 7.856,-5.504 7.875,-5.721 1.006,-10.745 -6.219,-4.547 -6.458,-6.158 -2.137,-14.232 5.651,-10.558 2.941,-17.068 -7.104,-17.068 -6.087,0 -7.055,2.617 -7.055,19.113 0,13.408 -2.71,24.201 -9.085,36.178 -10.95,20.567 -11.077,23.184 -1.837,38.333 6.91,11.336 7.504,11.571 13.768,5.452 3.597,-3.517 5.25,-6.938 3.666,-7.604 z m 30.566,-22.685 c 6.354,-28.938 3.934,-51.585 -9.265,-86.579 -15.012,-39.81 -18.216,-44.228 -24.102,-33.232 -3.64,6.802 -2.893,9.149 5.348,16.787 6.918,6.411 8.914,10.976 7.182,16.429 -1.719,5.414 -0.14,9.13 5.565,13.128 6.113,4.282 7.58,8.208 6.305,16.889 -0.916,6.221 0.09,14.106 2.219,17.521 2.973,4.762 2.317,7.936 -2.825,13.614 -5.4,5.967 -5.834,8.446 -2.244,12.776 2.811,3.382 3.525,9.619 1.934,16.855 -1.911,8.72 -1.356,11.093 2.313,9.873 2.658,-0.889 6.066,-7.215 7.57,-14.061 z m -33.442,-92.625 c 0,-2.882 -1.635,-5.24 -3.636,-5.24 -1.998,0 -3.633,3.37 -3.633,7.487 0,4.115 1.635,6.471 3.633,5.235 2.001,-1.235 3.636,-4.602 3.636,-7.482 z m -7.269,-36.347 c 0,-2.882 -2.454,-5.238 -5.452,-5.238 -5.474,0 -7.473,7.675 -3.127,12.017 3.391,3.391 8.579,-0.707 8.579,-6.779 z" fill="#00B894" transform="translate(10.762708,-325.65755) matrix(0.26458333,0,0,0.26458333,2217.548,-2526.2512)"/>
</svg>