<?xml version="1.0" ?><svg height="138.72867mm" viewBox="0 0 36.695839 138.72867" width="36.695839mm" xmlns="http://www.w3.org/2000/svg">
    <path color="#000" d="m -1322.4765,6224.9179 c 0,0 -61.3207,-17.1568 -49.6364,-85.7841 11.6843,-68.6273 51.8327,-90.3698 67.2946,-90.7651 15.462,-0.3953 53.0627,42.8525 50.9542,93.7695 -2.1084,50.917 -36.6343,93.4533 -36.6343,93.4533 0,0 7.1161,254.506 5.974,278.7785 -1.1421,24.2726 -7.5553,37.7925 -29.9576,37.16 -22.4022,-0.6325 -19.2849,-32.4712 -18.7125,-46.1732 1.7571,-42.0619 16.5163,-266.1284 10.718,-280.4389 z" fill="#FFFFFF" overflow="visible" paint-order="fill markers stroke" transform="translate(-270.51625,13.455103) matrix(0.26458333,0,0,0.26458333,636.16599,-1610.459)"/>
    <path d="m -1326.3733,6555.8559 c -17.3057,-8.5137 -19.2937,3.4324 -9.4656,-160.8064 6.6457,-111.0616 9.7402,-147.6907 10.8019,-154.0115 1.2603,-7.5143 1.8153,-10.7588 -9.153,-13.0544 -28.439,-5.9563 -50.483,-40.2834 -47.5272,-84.4546 0.8903,-13.3044 4.559,-31.137 8.1527,-39.6261 17.6526,-41.7024 57.2422,-78.4276 81.307,-65.264 17.1323,9.3715 30.7216,27.6254 39.6137,44.521 8.5721,16.6659 9.8784,23.8673 9.1994,50.7119 -0.9824,38.8394 -10.1476,66.0901 -29.9764,89.1267 0,0 -6.7836,7.1907 -9.2128,14.1978 -6.0972,17.5872 -2.9725,58.473 -2.9725,58.473 1.2324,30.7519 3.9325,79.153 6.0003,107.5594 8.0408,110.458 5.9257,128.9359 -13.4918,147.4207 -11.6336,11.0734 -19.0043,12.2282 -33.2757,5.2065 z m 25.5231,-22.9902 c 9.6576,-12.9974 11.7512,-56.6697 6.4161,-123.0852 -6.0943,-75.875 -6.3307,-169.7216 -0.4529,-179.9162 22.2358,-38.5634 30.6222,-53.4305 33.0683,-86.9187 2.9074,-39.8066 -8.0235,-63.3741 -23.5047,-75.8495 -16.1145,-12.9857 -23.64,-14.5339 -42.7713,1.9675 -47.8893,41.2997 -50.248,124.0666 -4.0813,143.2105 7.8409,3.2519 11.1312,3.6747 15.7523,10.5896 6.5568,9.8116 -0.014,29.2209 -1.9463,66.278 -7.9943,153.3077 -8.7096,239.1338 -4.0104,245.7783 6.5526,9.2627 13.6218,8.5865 21.5302,-2.0543 z m -42.0866,-342.131 c -14.0365,-6.9185 -17.2818,-45.018 -5.8236,-68.3584 7.9891,-16.2769 25.2703,-31.8048 30.8539,-27.7281 3.2646,2.3823 3.172,3.3829 -0.3987,4.3258 -5.8658,1.5505 -17.32,20.5663 -22.0123,36.5442 -2.0324,6.9214 -2.2608,22.1727 -0.5267,35.1712 1.6843,12.6231 2.9366,22.8077 2.7829,22.6315 -0.153,-0.1823 -2.3473,-1.3399 -4.875,-2.5861 z" fill="#00B894" transform="translate(-270.51625,13.455103) matrix(0.26458333,0,0,0.26458333,636.16599,-1610.459)"/>
</svg>