<?xml version="1.0" ?><svg height="133.46999mm" viewBox="0 0 105.73775 133.46999" width="105.73775mm" xmlns="http://www.w3.org/2000/svg">
    <path color="#000" d="m 6912.6845,4821.9838 7.2477,34.8252 -62.7678,41.5806 26.1427,18.6356 -28.4726,49.8501 81.1455,7.8036 4.5296,24.925 29.3783,16.1896 -7.2477,26.0898 c -97.9359,-14.1792 -70.8921,108.8868 -2.1998,79.0846 0,0 -27.4368,58.1196 44.6495,63.4774 25.107,19.9452 17.4247,29.9121 17.4247,29.9121 -23.3454,3.5677 -54.1441,92.2002 55.8255,66.294 59.5955,58.9972 87.7674,5.6466 88.0049,5.1247 65.9554,42.9938 93.7871,-48.3963 19.2834,-51.2478 -8.7473,-32.7634 -22.8724,-60.7955 -62.6378,-66.2727 l -7.3778,-32.7287 c 74.5904,17.4224 60.3202,-79.7902 2.9773,-78.1529 -31.1653,-70.5333 -58.1318,-48.6404 -84.8985,-22.3626 l -29.6846,-31.9853 c 0,0 87.6637,-113.7213 -91.3225,-181.0423 z" fill="#FFFFFF" overflow="visible" paint-order="fill markers stroke" transform="translate(-78.251536,51.426559) matrix(0.26458333,0,0,0.26458333,-1731.7057,-1324.1091)"/>
    <path d="m 7098.5094,5299.5766 c -9.8188,-12.3273 -16.913,-8.6955 -41.216,-6.703 -22.5255,1.847 -36.0898,1.0037 -49.7643,-9.7528 -20.9563,-16.4837 -14.5059,-48.0186 2.8199,-70.0445 2.5419,-7.1492 0.3233,-21.7491 -29.0739,-26.8644 -23.5547,-4.0981 -35.2896,-25.2316 -31.6337,-44.8291 2.1423,-11.4815 -0.3035,-15.4063 -11.4286,-14.5507 -45.2574,3.4818 -55.704,-61.2403 -25.8817,-82.1293 8.5493,-5.9878 18.4483,-12.7587 29.8241,-10.4837 14.2448,2.8488 18.4615,1.2922 18.4615,-6.8168 0,-5.7795 -4.278,-10.5088 -9.5069,-10.5088 -5.2289,0 -19.306,-6.9636 -23.8931,-19.4578 -5.9471,-16.2018 17.7235,-21.0253 -35.1991,-15.5532 -25.3388,2.6199 -47.8068,-1.521 -47.8068,-13.0547 0,-4.6161 5.8208,-15.7917 12.9338,-24.835 15.3776,-19.5498 15.0242,-19.1314 3.6154,-24.1039 -11.882,-5.1781 -16.3174,-12.1411 -18.3164,-15.3773 -7.2326,-11.7019 9.6125,-15.652 41.8117,-33.1768 26.7497,-14.5591 30.6931,-18.793 24.6121,-26.5644 -9.2995,-11.8825 -7.8641,-21.5105 -7.8641,-26.6692 0,-21.6792 56.9263,4.417 90.3536,36.2203 19.7696,18.8085 22.7733,27.4031 38.9088,23.8586 22.8487,-5.0184 32.6308,9.6416 16.9186,25.3545 -16.7377,16.7371 16.4163,-5.7718 42.1368,8.4619 19.0006,-22.0032 59.0102,-33.3987 80.3575,-13.9764 23.6801,-4.814 50.2479,15.4147 33.4499,20.3297 -7.0065,2.05 -8.8632,-13.8782 -22.1909,-10.205 15.1401,23.5334 -8.5814,31.1451 -17.7414,31.1451 -15.1835,0 -19.8111,-23.0535 -5.474,-35.0357 2.6343,-2.2012 -3.868,-4.9775 -20.9034,-0.7702 -12.7227,3.1417 -27.0862,8.8831 -30.4603,17.0284 2.425,2.1832 5.7001,3.0025 11.8216,9.1235 15.3682,15.3676 13.2297,35.1029 -5.1771,42.9777 -42.1566,18.0349 -45.4958,-31.1947 -32.2633,-45.4971 -18.7942,-3.2659 -32.906,5.1237 -39.4149,12.3158 -11.5634,12.7774 -6.6408,8.7213 14.4135,30.9392 12.668,13.3684 -8.3429,20.169 -11.0507,14.1871 -4.6568,-10.2842 -18.0345,-12.7107 -20.3172,-12.7895 -9.8387,-0.3428 -8.0206,30.1824 -0.3487,45.1044 6.3853,12.4243 4.605,18.7154 7.4749,11.5649 7.4296,-18.5092 19.3172,-26.9777 46.6579,-26.9777 25.4538,0 34.5658,14.0993 37.6722,32.8936 1.8737,11.3379 3.6192,14.8741 15.9149,14.8741 21.681,0 46.8784,23.9646 46.8784,48.942 0,23.2262 -21.3492,41.5956 -42.2857,41.5956 -7.7227,0 -17.7131,5.5978 -14.0412,8.4071 11.2571,8.6128 4.8029,18.912 10.8056,15.3791 45.9285,-5.6677 56.4222,26.6595 57.1083,48.2074 0,11.5507 -5.6418,19.9597 8.9272,20.1997 28.6564,0.4721 38.8541,17.0023 40.5638,26.7344 5.8472,33.2823 -24.761,61.6995 -54.243,43.8287 -18.3296,-11.1109 -17.1835,-7.4021 -23.1099,0.5367 -12.5822,16.8504 -49.2318,14.852 -63.8338,-3.4805 z m 55.8547,-20.9969 c 0.3045,-22.6332 -16.8517,-37.3106 -40.9125,-31.2717 -12.9008,3.2373 -19.5425,15.7891 -15.9865,27.3961 7.0018,22.8523 23.1617,27.3934 38.3772,25.5988 13.8951,-1.6387 18.3475,-8.6392 18.5218,-21.7232 z m -80.1879,-12.3907 c 9.6615,-11.4149 6.7285,-39.8043 -17.1109,-45.7079 -30.6686,-7.5942 -42.51,11.8312 -45.3431,24.5543 -2.4778,11.1272 0.7351,32.3647 28.1719,32.4475 18.0751,-0.9184 26.4689,-2.0636 34.2821,-11.2939 z m 151.5862,2.7781 c 0,-19.2709 -29.4877,-31.3479 -43.1585,-17.6774 -15.9459,15.9463 -5.998,40.7329 20.486,40.7329 18.6066,0 22.6725,-12.4043 22.6725,-23.0555 z m -59.8198,-29.5022 c -6.1629,-6.1631 -18.518,3.8193 -13.9253,11.2506 2.7295,4.4168 6.3468,4.305 10.9913,-0.3363 3.8077,-3.8078 5.1272,-8.7181 2.934,-10.9118 z m -68.5915,-25.6876 c -0.3949,-20.7803 9.8358,-31.9623 18.4728,-36.1284 0,-3.302 -6.2082,-2.6805 -13.7962,1.3801 -7.6049,4.0703 -24.3624,5.6936 -37.3433,3.6183 -18.961,-3.0324 -25.1032,-1.2766 -31.5281,9.0117 -7.2826,11.6619 -6.2808,12.7768 11.4757,12.7768 19.4539,0 45.3243,19.0718 45.3243,33.4129 0,4.1499 2.0961,5.4484 4.6578,2.8869 2.5626,-2.5622 3.7935,-14.6937 2.737,-26.9583 z m 68.5915,8.3334 c 10.9498,-8.5668 10.1676,-21.1347 -2.0782,-33.3799 -9.8933,-12.3513 -48.0405,-11.0819 -50.3788,17.7007 -2.2743,27.9962 26.876,35.6951 52.457,15.6792 z m -135.4828,-51.3031 c 10.9744,-10.9746 11.8905,-43.8967 -7.4805,-44.2892 1.5739,14.3852 2.5645,26.5457 -3.8058,38.4546 -7.915,14.788 -1.1593,18.2802 11.2863,5.8346 z m -23.4849,-14.6827 c 5.5654,-12.2155 8.1365,-21.05 1.8595,-28.6138 -10.5427,-12.7024 -18.5425,-17.5501 -36.2133,-3.2412 -12.3541,10.0044 -12.6039,21.6941 -6.1704,33.7136 10.1694,19.0032 31.464,18.0267 40.5242,-1.8586 z m 95.6645,3.511 c 10.3438,-19.3286 1.9849,-31.7808 -20.5453,-30.6057 -37.4442,1.9531 -42.6967,43.0707 -5.5023,43.0707 12.5144,0 21.7385,-4.4137 26.0476,-12.465 z m 50.1904,-40.8876 c 13.356,-17.2603 14.3277,-27.1774 1.6267,-43.3241 -7.4815,-9.568 -23.7253,-13.7785 -35.8231,-5.5319 -19.8403,14.1284 -21.6527,35.5109 -7.9829,49.1794 10.1327,10.1325 34.2322,9.9475 42.1793,-0.3234 z m -62.8735,-4.8502 c 0,-3.5568 -2.9104,-6.467 -6.4673,-6.467 -3.557,0 -6.4665,2.9102 -6.4665,6.467 0,3.5569 2.9095,6.467 6.4665,6.467 3.5569,0 6.4673,-2.9101 6.4673,-6.467 z m -121.9411,-7.1493 c 11.6954,-11.6948 15.4983,-26.5766 0.8426,-43.921 -18.2221,-21.5641 -36.3509,-17.2358 -49.1291,-4.4577 -10.9866,10.988 -12.7114,33.3392 -0.6862,45.3658 12.0271,12.0266 37.9852,14.0004 48.9727,3.0129 z m 99.5881,-27.3636 c -1.9293,-14.3315 -11.5804,-28.672 -27.4076,-28.672 -10.0205,0 -22.7922,4.5728 -28.3811,10.1622 -13.5389,13.5386 -8.5418,37.5751 5.3882,46.1943 32.3924,20.0437 55.1544,-1.2954 50.4005,-27.6845 z m 36.5959,-23.6899 c 6.3288,-17.7525 -6.2817,-37.9463 -23.206,-38.8018 -28.399,-1.435 -32.7637,12.8304 -36.0049,20.9647 30.6167,-0.976 34.972,23.4557 36.3037,45.8197 4.3845,4.384 16.7565,-10.7293 22.9072,-27.9826 z m -97.065,-6.2419 c 11.5172,-10.73 9.9639,-18.2271 2.7916,-26.8696 -10.7529,-12.9566 -31.0814,-8.3877 -35.7392,5.8022 -6.6775,21.9974 15.3343,37.3972 32.9476,21.0674 z m -6.8802,-57.4921 c 2.2384,-2.2931 7.5408,-15.0362 11.7849,-28.3187 8.8009,-27.5428 3.9424,-49.5941 -13.6567,-61.9803 -6.6625,-4.6892 -10.3259,-11.4207 -8.1393,-14.9581 5.0253,-8.1316 -14.5417,-30.0404 -37.3735,-41.8478 -22.7441,-11.7608 -26.2078,-11.4 -21.8733,2.279 2.6993,8.5151 -3.9999,15.3209 -27.0485,27.4846 -16.8498,8.8921 -29.1804,19.0776 -27.4019,22.6345 1.7785,3.5567 5.4966,5.7129 8.2638,4.79 2.7662,-0.9222 6.7453,2.7937 8.8414,8.2564 2.3025,5.9989 -3.0866,16.3266 -13.6038,26.0737 -25.3935,23.534 -18.4483,32.0168 26.2134,32.0168 34.1709,0 38.0681,1.3509 37.037,12.8393 -0.6343,7.062 2.2761,15.0597 6.4664,17.7732 7.9461,5.1445 43.4252,0.194 50.4901,-7.0426 z m 107.3042,-34.058 c 9.2091,-8.8295 0.1235,-23.7669 -11.8386,-26.4974 -4.703,4.8562 -5.8764,10.4618 -5.7633,17.5845 0.213,13.3356 10.5012,15.72 17.6019,8.9129 z m 67.7603,-35.2445 c 0.066,-4.3361 -2.4646,-7.0168 -6.0206,-9.2149 -3.557,-2.1982 -8.9565,2.8462 -8.9565,6.6131 0,3.7664 2.7455,8.1588 6.3024,8.1588 3.557,0 8.6483,-3.9881 8.6747,-5.557 z" fill="#00B894" transform="translate(-78.251536,51.426559) matrix(0.26458333,0,0,0.26458333,-1731.7057,-1324.1091)"/>
</svg>