<?xml version="1.0" ?><svg height="92.360764mm" viewBox="0 0 194.42137 92.360764" width="194.42137mm" xmlns="http://www.w3.org/2000/svg">
    <path d="m -6804.9169,8211.214 c 48.0111,-21.1653 106.644,-57.7103 140.4144,-82.2893 33.7704,-24.579 58.8149,-45.588 115.7032,-49.872 56.8884,-4.283 101.9911,39.265 146.5272,44.365 44.5361,5.099 178.5977,-3.876 230.0466,9.994 51.4488,13.871 87.599,41.509 70.0339,115.756 -17.5652,74.246 -16.9986,98.621 -113.8901,123.608 -96.8915,24.987 -179.5043,39.673 -256.3376,22.335 -76.8333,-17.338 -189.3673,-129.1203 -250.1048,-145.025 -84.5614,-22.1432 -108.6615,-27.2913 -82.3928,-38.8717 z" fill="#FFFFFF" style="font-variation-settings:normal" transform="translate(-129.57503,29.54941) matrix(0.26458333,0,0,0.26458333,1933.4072,-2164.8374)"/>
    <path d="m -6465.1955,8416.1107 c -49.896,-9.791 -68.585,-21.355 -165.917,-102.665 -38.976,-32.56 -74.395,-50.021 -124.372,-61.3159 -36.543,-8.256 -62.149,-21.106 -62.149,-31.184 0,-2.694 1.143,-4.311 2.54,-3.592 17.976,9.252 33.983,14.045 59.916,17.938 63.212,9.489 79.643,17.992 184.25,95.3609 44.498,32.913 68.958,46.211 99.662,54.185 31.325,8.138 81.459,10.842 85.316,4.603 1.11,-1.792 -1.665,-10.553 -6.162,-19.47 -10.032,-19.889 -14.2413,-38.2448 -10.2905,-46.996 4.8367,-10.7134 6.0393,1.0359 6.5645,5.384 2.0482,16.958 22.229,55.537 29.819,56.998 10.558,2.035 12.146,-3.692 6.563,-23.686 -5.31,-19.02 -4.208,-32.295 2.345,-28.245 1.876,1.158 3.41,4.585 3.41,7.612 0,3.025 3.264,12.246 7.256,20.488 l 7.254,14.988 17.296,-2.45 c 9.513,-1.345 25.676,-3.418 35.922,-4.604 18.609,-2.156 18.624,-2.164 17.522,-13.163 -1.444,-14.429 3.762,-13.971 12.663,1.111 6.3051,12.8242 8.987,11.9421 29.965,9.937 32.865,-3.144 68.007,-20.69 85.328,-42.603 22.279,-28.187 36.495,-77.4479 33.111,-114.7489 -2.241,-24.732 -9.193,-36.873 -27.873,-48.69 -19.438,-12.298 -60.515,-25.967 -78.033,-25.967 -15.406,0 -13.925,-1.83 -34.214,42.331 -6.4955,14.5289 -10.3668,8.1607 -9.1551,-1.1238 1.1488,-8.8019 3.0021,-18.0082 6.0581,-23.9162 7.771,-15.03 6.666,-17.291 -8.454,-17.291 -12.298,0 -14.183,1.141 -18.209,11.008 -2.468,6.052 -5.589,18.624 -6.933,27.937 -3.114,21.573 -8.047,31.643 -12.247,25.01 -3.809,-6.018 -3.906,-24.007 -0.179,-34.103 1.591,-4.312 3.964,-12.258 5.271,-17.66 l 2.382,-9.822 -33.209,2.016 c -32.987,2.001 -73.153,-1.46 -95.856,-8.261 -6.52,-1.954 -24.182,-10.992 -39.253,-20.087 -38.323,-23.13 -62.6,-28.968 -98.958,-23.803 -38.835,5.519 -58.556,13.805 -92.062,38.69 -49.677,36.896 -147.4763,98.4138 -156.745,86.924 -2.6673,-2.5134 5.101,-5.166 16.358,-11.433 24.481,-13.629 102.919,-65.207 121.22,-79.714 31.207,-24.73 61.198,-40.314 88.224,-45.837 51.532,-10.533 76.677,-7.524 127.218,15.235 40.392,18.188 60.993,20.613 165.626,19.491 40.9524,-1.7624 79.3454,-4.6323 117.951,8.428 35.652,12.067 67.718,33.532 76.997,51.539 10.718,20.803 11.615,68.682 1.885,100.7109 -13.388,44.084 -30.969,71.131 -55.619,85.579 -26.98,15.81 -72.409,29.103 -116.025,33.948 -44.476,4.942 -57.26,7.699 -94.737,20.421 -19.992,6.786 -30.448,8.175 -59.264,7.868 -19.242,-0.204 -41.731,-1.695 -49.97,-3.31 z m -149.982,-154.028 c -5.187,-11.3819 0.958,-55.5039 10.967,-78.7729 7.042,-16.368 28.42,-40.918 32.275,-37.063 1.09,1.09 -1.328,8.462 -5.369,16.386 -10.106,19.809 -15.744,40.439 -20.278,74.201 -2.118,15.777 -4.584,29.8729 -5.481,31.3229 -3.141,5.081 -8.183,2.554 -12.114,-6.074 z m 102.437,2.159 c -4.402,-8.2289 -4.483,-20.9149 -0.204,-32.1729 5.609,-14.748 8.542,-9.711 8.74,15.02 0.204,24.0839 -2.225,28.9459 -8.536,17.1529 z m 365.218,0.623 c -0.753,-11.4449 0.989,-19.5409 5.824,-27.0889 7.785,-12.153 12.659,-9.466 10.244,5.645 -1.415,8.843 -0.793,13.708 1.869,14.593 2.225,0.746 3.019,3.8619 1.793,7.0539 -3.01,7.845 -19.211,7.681 -19.73,-0.203 z m 22.531,-14.1799 c -2.699,-4.371 1.484,-20.529 5.318,-20.529 4.013,0 3.896,19.376 -0.131,21.867 -1.734,1.071 -4.069,0.468 -5.184,-1.338 z m -546.906,-23.693 c -4.568,-8.528 -4.471,-26.924 0.202,-40.352 6.261,-17.964 9.377,-12.014 9.489,18.119 0.1,28.366 -2.824,35.084 -9.703,22.233 z m 487.516,-19.069 c 0,-9.021 6.533,-18.106 16.864,-23.447 16.27,-8.415 19.385,-5.809 6.121,5.123 -6.832,5.63 -13.377,13.25 -14.546,16.933 -2.527,7.962 -8.439,8.937 -8.439,1.391 z" fill="#00B894" transform="translate(-129.57503,29.54941) matrix(0.26458333,0,0,0.26458333,1933.4072,-2164.8374)"/>
</svg>