<?xml version="1.0" ?><svg height="60.887768mm" viewBox="0 0 86.589935 60.887768" width="86.589935mm" xmlns="http://www.w3.org/2000/svg">
    <path d="m 3387.726,7532.4344 c 7.2889,-69.4323 71.153,-83.3597 144.0614,-90.2027 72.9084,-6.8429 152.4075,7.2032 161.5609,84.4566 9.1535,77.253 -71.1932,122.424 -146.4546,132.1609 -75.2614,9.7369 -158.1507,-3.3523 -159.1677,-126.4148 z" fill="#FFFFFF" transform="translate(188.43786,-17.937091) matrix(0.26458333,0,0,0.26458333,-1082.8565,-1950.0995)"/>
    <path d="m 3706.1682,7570.0376 c -6.2194,29.55 -29.4843,53.2523 -71.4053,72.7444 -39.881,18.5408 -74.2915,25.4045 -128.2736,25.5786 -42.594,0.1301 -46.1362,-0.3872 -65.0305,-9.6654 -23.2213,-11.4016 -40.0162,-31.1899 -51.5084,-60.6956 -10.2603,-26.3402 -12.5686,-65.4231 -5.0267,-85.1697 12.4154,-32.5128 48.7641,-55.516 107.7059,-68.1624 46.5465,-9.9876 113.8282,-8.0905 145.1066,4.0933 24.4531,9.5226 50.4141,33.4796 60.6644,55.9785 8.1778,17.9535 11.6296,46.955 7.7676,65.2983 z m -24.9044,-62.6265 c -6.822,-17.4259 -27.0221,-32.7727 -46.9324,-41.908 -12.9374,-5.9359 -50.9495,-13.3324 -69.3943,-13.5041 -9.9049,-0.078 -13.9771,13.8368 -4.7507,16.2487 6.9986,1.8322 11.6218,10.1046 8.4852,15.1829 -1.0709,1.7335 -7.857,3.1525 -15.0791,3.1525 -11.9651,0 -13.6831,1.2293 -19.3806,13.8602 -7.9185,17.5637 -19.0574,19.3568 -19.0574,3.0719 0,-11.8018 2.6168,-11.4067 -31.5411,-4.7586 -10.1854,1.9804 -12.9218,1.2865 -14.8634,-3.7763 -3.1914,-8.3114 7.6849,-18.8422 22.5953,-21.8726 8.4852,-1.7257 11.9806,-4.4702 12.7865,-10.0424 1.3705,-9.4887 -2.7464,-9.6628 -29.7313,-1.2657 -24.6018,7.6566 -51.8553,22.514 -65.0041,39.7528 -19.1255,25.0746 -15.2407,79.8129 9.9557,112.9364 15.8595,20.8538 38.9206,32.4715 84.1626,32.1649 47.8174,-0.325 85.8271,-6.8663 124.4237,-24.6638 49.2688,-23.2871 72.4615,-64.0797 53.3254,-114.5788 z m -88.1414,100.4567 c -2.8593,0 -5.1977,-1.5594 -5.1977,-3.467 0,-1.905 2.3384,-3.4644 5.1977,-3.4644 2.8582,0 5.1979,1.5594 5.1979,3.4644 0,1.9076 -2.3397,3.467 -5.1979,3.467 z m -43.9665,9.6005 c -6.4241,-2.1415 -7.4905,-9.6005 -1.3716,-9.6005 3.0169,0 5.4862,2.469 5.4862,5.4863 0,3.0174 -1.8511,4.8679 -4.1146,4.1142 z m -46.1307,-16.5319 c -2.8594,0 -5.1978,-2.339 -5.1978,-5.1979 0,-2.8588 2.3384,-5.1978 5.1978,-5.1978 2.8582,0 5.1977,2.339 5.1977,5.1978 0,2.8589 -2.3395,5.1979 -5.1977,5.1979 z m -15.5933,22.525 c -1.9059,1.1774 -3.4652,-0.3821 -3.4652,-3.467 0,-3.0824 1.5593,-4.6417 3.4652,-3.4643 1.9047,1.1772 3.4641,2.7366 3.4641,3.4643 0,0.7277 -1.5594,2.2871 -3.4641,3.467 z m -30.0075,-26.5897 c -3.5088,-0.6758 -6.3782,-3.545 -6.3782,-6.3779 0,-7.4278 10.0681,-6.3569 11.529,1.2268 0.8909,4.6312 -0.5198,6.0424 -5.1508,5.1511 z m -8.4137,26.7742 c -5.7768,3.571 -12.4043,-4.4598 -7.6223,-9.2392 3.9973,-3.9997 11.3915,-1.4969 11.3915,3.8569 0,1.6788 -1.6968,4.1036 -3.7692,5.3823 z m -18.7556,-36.5696 c -2.8594,0 -5.1978,-2.3392 -5.1978,-5.1979 0,-2.8588 2.3384,-5.1979 5.1978,-5.1979 2.8582,0 5.1977,2.3391 5.1977,5.1979 0,2.8587 -2.3395,5.1979 -5.1977,5.1979 z m -4.9586,-36.5333 c -3.8319,2.3651 -7.9666,-3.1006 -4.7675,-6.2998 3.2965,-3.2955 7.9924,-2.6821 7.9924,1.0448 0,1.7933 -1.4498,4.1582 -3.2249,5.255 z m 106.4909,-98.6115 c -5.5979,0 -6.5984,1.024 -3.7681,3.8542 2.1205,2.1208 5.551,2.8096 7.6223,1.5282 5.8003,-3.5839 4.5115,-5.3824 -3.8542,-5.3824 z" fill="#00B894" transform="translate(188.43786,-17.937091) matrix(0.26458333,0,0,0.26458333,-1082.8565,-1950.0995)"/>
</svg>