<?xml version="1.0" ?><svg height="74.320717mm" viewBox="0 0 96.791664 74.320717" width="96.791664mm" xmlns="http://www.w3.org/2000/svg">
    <path color="#000" d="m 4642.1796,5216.9852 c 38.0085,20.3976 78.0951,29.2523 126.9881,-10.8036 116.7989,31.8367 150.0508,-146.3528 54.8438,-171.6919 0,0 4.1322,-38.2223 -74.9689,-16.9467 -38.5827,-5.1719 -53.7786,-10.887 -92.9755,-4.7663 0,0 -109.191,-8.9766 -129.3419,93.9486 -6.6069,33.7463 14.1229,123.9232 115.4544,110.2599 z" fill="#FFFFFF" overflow="visible" paint-order="fill markers stroke" transform="translate(-173.90981,-0.11239917) matrix(0.26458333,0,0,0.26458333,-1022.0775,-1311.2752)"/>
    <path d="m 4664.4019,5232.3842 c -4.547,-2.6411 -25.3395,-4.5096 -46.2055,-4.1518 -149.0507,-23.6991 -109.5953,-206.0154 -3.7954,-219.9324 19.4978,-5.5921 52.4076,0 54.8464,9.3344 1.1,4.2078 7.7655,8.8033 14.8121,10.2128 17.6201,3.5239 16.2563,11.5694 -1.4901,8.79 -9.9248,-1.5547 -20.2691,0.9461 -33.8021,8.1726 -19.8015,10.5736 -31.638,25.5503 -15.2038,19.2373 12.5463,-4.8194 77.6301,-15.6425 81.1148,-13.4889 1.677,1.0368 5.5279,7.8682 8.5568,15.181 6.9625,16.8082 13.2407,17.096 13.2407,0.6077 0,-9.3542 -2.6015,-13.4608 -9.9011,-15.6268 l -9.9012,-2.9382 9.2891,-3.8073 c 10.244,-4.1989 17.5889,-17.746 9.6217,-17.746 -2.7587,0 -8.596,3.2401 -12.9718,7.2002 -14.5724,13.1879 -14.1372,-3.9433 1.0389,-40.8747 7.8048,-18.9934 14.6397,-35.1248 15.1889,-35.8473 0.5487,-0.723 6.1818,0 12.5181,1.5771 15.624,3.9213 15.0458,17.753 -1.7083,40.8815 -8.1216,11.2117 -11.0101,18.2622 -7.4809,18.2622 3.1613,0 7.8955,-2.147 10.5199,-4.7715 2.6245,-2.6244 16.3872,-5.8056 30.5837,-7.069 21.9818,-1.9561 27.6075,-0.8744 37.9131,7.2913 6.6558,5.2739 12.1014,13.1052 12.1014,17.4026 0,5.0052 6.2066,10.2524 17.2646,14.5962 23.3395,9.168 35.5419,32.9696 35.5419,69.328 0,39.6614 -22.7413,85.7745 -48.9978,99.3519 -13.8203,7.1469 -48.3085,8.4401 -54.6972,2.0515 -2.7239,-2.7239 -13.5026,0.4268 -30.1036,8.801 -20.4152,10.2977 -31.5208,13.0159 -52.7437,12.9103 -14.7858,-0.074 -30.603,-2.2944 -35.1496,-4.9357 z m 69.2523,-14.1894 c 7.9738,-3.3316 18.4514,-11.4845 23.2832,-18.1179 8.709,-11.9557 8.9093,-11.9958 23.1362,-4.639 32.5053,16.8091 61.2957,2.9444 82.0744,-39.5246 10.209,-20.8668 11.569,-28.015 9.373,-49.2836 -3.6078,-34.9617 -13.0531,-45.8535 -47.1949,-54.4257 -15.3974,-3.8658 -28.7556,-9.3115 -29.686,-12.1014 -1.8424,-5.527 -18.666,-7.1487 -18.3897,-1.7725 0.092,1.8152 6.5286,7.2921 14.3017,12.1709 17.5721,11.0295 21.0089,26.2848 6.7605,30.0107 -5.7096,1.4931 -14.3426,-0.198 -20.0329,-3.9283 -12.4896,-8.1832 -13.757,-17.4706 -1.4883,-10.9045 10.6651,5.7075 17.8913,5.8325 17.8913,0.308 0,-5.8677 -12.234,-11.6257 -32.4755,-15.2843 -16.7215,-3.0223 -17.0265,-2.8419 -14.8073,8.7689 4.7402,24.7956 -11.5258,59.1667 -28.0005,59.1667 -6.8732,0 -7.5808,-2.7965 -5.3889,-21.302 1.4205,-11.9945 0.4519,-25.171 -2.217,-30.158 -4.6953,-8.7729 -5.0839,-8.7818 -41.2347,-0.9228 -44.4945,9.6727 -60.698,10.3522 -60.698,2.5438 0,-8.1792 17.1589,-23.3781 37.6394,-33.34 l 17.3358,-8.4323 -12.0729,-5.5011 c -23.0775,-10.5146 -69.188,10.8209 -95.6827,44.2736 -20.298,24.7027 -36.2472,92.4683 0.9965,120.693 14.4704,12.6251 32.921,25.9584 57.5661,25.1245 16.0865,-0.5444 16.726,-1.1437 15.4018,-14.4333 -1.9476,-19.5449 8.2933,-21.1872 16.0694,-2.5773 11.0669,26.4876 53.3387,37.877 87.54,23.5867 z m 82.0311,-196.2826 c 0,-6.4692 -20.0431,-10.2321 -37.2791,-6.9986 -26.8013,5.0281 -22.1254,11.315 8.416,11.315 15.9348,0 28.8631,-1.9331 28.8631,-4.3164 z" fill="#00B894" transform="translate(-173.90981,-0.11239917) matrix(0.26458333,0,0,0.26458333,-1022.0775,-1311.2752)"/>
</svg>