<?xml version="1.0" ?><svg height="67.493156mm" viewBox="0 0 79.867455 67.493156" width="79.867455mm" xmlns="http://www.w3.org/2000/svg">
    <path d="m -5321.7862,9700.4907 c 0,0 28.7964,-5.156 52.9482,-33.719 24.1519,-28.563 61.773,-36.783 100.9423,-36.087 39.1693,0.697 88.5568,13.934 113.0182,54.061 24.4614,40.128 11.9211,63.954 -36.0729,109.515 -47.9941,45.562 -107.4067,94.204 -158.2065,73.337 -50.7998,-20.867 -94.6793,-73.6329 -73.2486,-117.923 15.7211,-32.4902 0.6193,-49.184 0.6193,-49.184 z" fill="#FFFFFF" style="font-variation-settings:normal" transform="translate(-314.60792,-28.241498) matrix(0.26458333,0,0,0.26458333,1725.5734,-2518.0923)"/>
    <path d="m -5249.1569,9875.5977 c -17.989,-5.4 -48.241,-22.685 -57.238,-32.706 -13.362,-14.888 -26.304,-44.934 -26.388,-61.252 -0.02,-8.113 3.565,-25.106 8.013,-37.764 5.9959,-15.0505 10.7345,-20.1958 0.036,-31.579 -11.195,-11.916 -10.128,-16.051 5.482,-21.201 7.437,-2.456 23.835,-14.0535 36.434,-25.7755 26.744,-24.881 36.5896,-30.8988 64.755,-36.745 51.7899,-10.7498 117.7486,-3.1574 150.984,26.459 46.599,47.8475 47.1212,75.9654 7.5317,122.9195 -27.8312,33.0084 -54.5465,56.8074 -91.716,77.421 -34.8382,19.3206 -67.2877,29.408 -97.8937,20.223 z m 33.075,-22.979 c -10.5943,-10.8834 -13.029,-32.0753 -14.959,-32.358 -2.215,-0.06 -19.7252,-5.3909 -27.8372,-9.3799 -12.3105,-6.5889 -10.7245,-5.7153 7.2182,-3.9701 7.099,0.696 15.81,2.519 19.359,4.061 5.011,2.173 6.454,1.031 6.454,-5.118 0,-10.66 12.874,-35.558 28.098,-54.335 6.854,-8.451 12.461,-16.311 12.461,-17.46 0,-1.151 -9.835,-7.055 -21.857,-13.123 -38.592,-19.482 -32.753,-26.086 6.605,-7.466 l 23.465,11.1 12.508,-7.732 c 6.882,-4.252 11.715,-9.016 10.745,-10.589 -0.975,-1.573 -17.574,-10.11 -36.897,-18.975 -33.398,-15.3175 -44.895,-23.4855 -26.834,-19.0605 13.708,3.359 55.428,22.8855 62.422,29.2155 5.989,5.422 7.301,5.398 15.956,-0.276 5.189,-3.4 8.43,-7.799 7.207,-9.778 -1.225,-1.981 -11.647,-8.4655 -23.163,-14.4125 -27.086,-13.98 -16.785,-14.425 12.567,-0.541 22.269,10.5365 22.596,10.5725 41.481,4.779 10.473,-3.213 19.037,-7.094 19.037,-8.622 0,-7.556 -35.63,-22.598 -66.47,-28.065 -55.499,-9.836 -92.569,1.848 -124.285,39.174 -9.298,10.9395 -20.825,20.0925 -28.493,22.6235 -12.644,4.172 -12.772,4.417 -6.962,13.285 5.441,8.302 5.431,10.311 -0.09,24.754 -19.192,50.251 11.156,98.902 70.387,112.85 6.6312,0.4193 24.566,6.5065 21.877,-0.581 z m -24.488,-115.569 c -34.591,-18.569 -39.568,-22.097 -25.838,-18.315 15.831,4.361 62.682,28.103 62.682,31.764 0,5.656 -3.935,4.218 -36.844,-13.449 z m 85.539,97.66 c 35.564,-20.872 68.25,-47.345 84.551,-68.472 14.66,-19 16.09,-22.72 16.09,-41.798 0,-29.136 -5.061,-34.325 -31.622,-32.406 -18.425,1.334 -24.318,4.005 -50.608,22.93 -30.963,22.297 -56.642,53.329 -65.546,79.216 -5.39,15.659 0.61,34.786 14.255,45.452 10.648,8.319 10.205,8.385 32.88,-4.922 z" fill="#00B894" transform="translate(-314.60792,-28.241498) matrix(0.26458333,0,0,0.26458333,1725.5734,-2518.0923)"/>
</svg>