<?xml version="1.0" ?><svg height="137.15546mm" viewBox="0 0 111.54468 137.15546" width="111.54468mm" xmlns="http://www.w3.org/2000/svg">
    <path d="m -5400.6191,11337.307 c -31.5491,0.24 -57.8104,9.049 -77.961,21.045 -7.2145,46.569 105.2307,51.156 136.5762,45.671 31.3455,-5.485 47.0195,-25.521 47.0195,-25.521 0,0 -47.8889,-36.717 -87.5683,-40.412 -6.1999,-0.577 -12.224,-0.828 -18.0664,-0.783 z m -112.3438,80.533 c -52.6835,-0.116 -109.9563,13.595 -147.8437,91.896 -44.9036,92.801 -33.3363,186.462 6.5918,235.493 39.9282,49.032 100.3804,133.436 204.8652,76.457 104.4849,-56.979 149.3739,-169.143 96.1523,-299.002 -23.2603,-56.755 -88.932,-100.739 -131.1211,-103.68 -9.2892,-0.648 -18.8883,-1.143 -28.6445,-1.164 z" fill="#FFFFFF" transform="translate(149.51042,-44.059133) matrix(0.26458333,0,0,0.26458333,2236.8035,-2308.3798) translate(-3313.5291,-2437.8203)"/>
    <path d="m -8600.707,8949.7075 c -2.8721,0 -10.5008,3.1177 -16.9583,6.9268 -42.8246,25.2678 -138.9634,22.4361 -161.4153,-4.7521 -6.069,-7.3533 -10.7674,-1.9681 -10.8528,12.4312 -0.057,9.295 7.8825,12.5384 20.7336,18.0814 2.3422,1.0102 17.4587,8.1718 31.5847,14.9397 56.8424,27.2412 91.0313,82.1419 99.8927,160.4086 10.8414,95.7784 -16.9822,171.3882 -77.9683,211.8686 -47.4148,31.4737 -102.2384,45.9928 -141.5268,37.4789 -34.5944,-7.4965 -83.6441,-41.3675 -113.4091,-78.3169 -24.7829,-30.7641 -32.7511,-44.8748 -41.6991,-73.8509 -17.6339,-57.0862 0.2757,-150.5654 38.5569,-201.2704 45.6512,-60.4634 79.872,-81.9671 135.7552,-85.2994 l 33.4483,-1.9973 2.2751,-13.4536 c 1.2498,-7.401 1.9915,-19.4906 1.6475,-26.8677 -1.0596,-22.7751 -0.2644,-25.771 6.8288,-25.771 3.7244,0 7.3006,1.5495 7.9466,3.4435 0.6972,2.037 9.8514,0.7762 22.3699,-3.0833 36.865,-11.3584 58.3178,-12.3412 88.526,-4.0554 31.8077,8.7281 43.0229,14.1503 59.8991,28.9682 15.6288,13.7213 21.8379,24.1711 14.3653,24.1711 z m -58.2939,-4.0925 c -22.1215,0.7602 -47.1608,-0.9404 -67.9915,-4.6197 -18.1352,-3.2052 -38.1707,-6.7414 -44.5233,-7.8593 -9.4721,-1.6687 -11.1696,-1.0463 -9.4402,3.4622 5.652,14.7304 63.9653,25.3339 109.285,19.8693 22.51,-2.7125 47.6643,-8.834 47.6849,-11.6022 0,-0.2384 -15.7552,0.08 -35.0149,0.7497 z m 1.4435,-26.3141 c -13.0961,-4.7521 -32.8491,-9.5863 -43.8945,-10.7412 -23.1355,-2.4184 -67.219,4.0634 -76.7469,11.2817 -5.8035,4.3997 -4.4341,4.9348 12.9343,5.0593 10.6831,0.08 32.9345,1.5841 49.4474,3.3481 94.5414,10.0897 105.9024,8.3467 58.2597,-8.9479 z m -7.1422,192.8734 c -9.4982,-31.3469 -29.5634,-66.185 -46.917,-81.4612 -16.9104,-14.8841 -67.7374,-42.1544 -78.5709,-42.1544 -18.8039,0 -2.3811,15.5542 26.0065,24.6347 10.7446,3.4356 13.2294,5.8302 12.3624,11.9067 -0.9798,6.8765 -3.0351,7.5414 -21.3924,6.9189 -20.089,-0.6807 -20.3089,-0.5801 -20.3089,9.279 0,24.2983 -19.8111,21.0745 -30.5204,-4.9666 l -6.5634,-15.9596 -24.7225,-0.08 c -31.5196,-0.08 -37.5031,-3.4013 -24.5448,-13.5967 5.2817,-4.1535 18.9136,-3.2313 22.5365,-3.2313 3.6218,0 -5.1789,-3.4587 0.2412,-8.3153 1.9274,-1.7271 4.3282,-3.2925 12.2986,-1.9999 6.7628,1.0967 13.2135,0.5112 14.3357,-1.3032 1.121,-1.8146 5.1234,-3.3005 8.8933,-3.3005 3.771,0 6.855,-1.6847 6.855,-3.7456 0,-7.5308 -49.8335,0.106 -73.0852,11.21 -42.9124,20.484 -89.9376,87.6146 -99.7526,142.4069 -6.789,37.8923 -4.6859,85.4636 4.9856,112.8743 16.8705,47.8071 58.0421,94.4753 103.8733,117.7325 23.0535,11.6975 29.0951,13.2656 49.5316,12.8497 45.7037,-0.9297 111.3802,-33.6514 136.4707,-67.9943 12.8762,-17.623 28.7089,-56.1564 33.5429,-81.636 4.6198,-24.346 1.227,-97.7068 -5.5552,-120.0819 z m -119.9886,229.5684 c -2.9143,0 -5.2977,-1.5893 -5.2977,-3.531 0,-1.9416 2.3834,-3.5309 5.2977,-3.5309 2.9132,0 5.2977,1.5893 5.2977,3.5309 0,1.9417 -2.3845,3.531 -5.2977,3.531 z m -22.9577,-42.3822 c -1.9425,0 -3.5318,-1.682 -3.5318,-3.7403 0,-2.0555 1.5893,-2.7574 3.5318,-1.5575 1.9413,1.2027 3.5306,2.8847 3.5306,3.7403 0,0.8582 -1.5893,1.5575 -3.5306,1.5575 z m -23.6414,57.7828 c -3.9784,3.9787 -8.1459,2.4238 -8.1459,-3.0382 0,-2.9139 1.497,-5.2978 3.3245,-5.2978 4.4534,0 7.6423,5.5149 4.8214,8.336 z m -18.7413,-36.5917 c -3.8861,0 -7.0647,-1.5893 -7.0647,-3.531 0,-1.9416 3.1786,-3.5309 7.0647,-3.5309 3.8862,0 7.0648,1.5893 7.0648,3.5309 0,1.9417 -3.1786,3.531 -7.0648,3.531 z m -27.8555,29.7734 c -5.194,3.2106 -12.7327,-8.2539 -8.3282,-12.6615 2.0792,-2.0795 5.5096,-2.7126 7.6207,-1.4093 4.63,2.8635 5.0596,11.3822 0.7075,14.0708 z m -9.3399,-43.8999 c -6.1054,0 -10.4735,-8.4288 -7.1524,-13.8033 3.4121,-5.523 12.5617,-0.3391 12.5617,7.1175 0,3.6766 -2.4346,6.6858 -5.4093,6.6858 z m -1.4777,-85.2942 c -4.5537,-1.5177 -5.3728,-6.3625 -1.1472,-6.7996 1.4059,-0.1589 3.1945,1.6423 3.9727,3.9733 0.777,2.331 -0.4945,3.6025 -2.8255,2.8263 z m -27.8806,97.3148 c -1.9778,1.2211 -4.6585,0.5007 -5.9596,-1.6025 -3.3563,-5.4303 1.243,-8.9347 5.7751,-4.3998 2.5371,2.5349 2.5987,4.511 0.1845,6.0023 z m -2.8095,-240.5108 c -2.822,2.8236 -8.3361,-0.3683 -8.3361,-4.821 0,-1.8278 2.3834,-3.3217 5.2977,-3.3217 5.4617,0 7.0168,4.1667 3.0384,8.1427 z m -12.752,128.7146 c -2.429,-0.8079 -4.4159,-3.5893 -4.4159,-6.1799 0,-2.5906 1.9869,-5.3719 4.4159,-6.1798 2.6272,-0.8768 4.4159,1.6264 4.4159,6.1798 0,4.5535 -1.7887,7.0567 -4.4159,6.1799 z m -6.2068,83.8982 c -1.9551,1.2079 -4.5344,-0.355 -5.7318,-3.4754 -2.5964,-6.7626 0.2643,-10.5319 5.5233,-7.2818 4.744,2.9323 4.8419,7.8937 0.2119,10.7572 z m -3.5068,-44.1649 c -1.9413,0 -3.5306,-2.4767 -3.5306,-5.5044 0,-3.0304 1.5893,-4.5243 3.5306,-3.3243 1.9448,1.1999 3.5341,3.6792 3.5341,5.507 0,1.8277 -1.5893,3.3217 -3.5341,3.3217 z m -2.6488,-96.0327 c -3.3985,-0.6543 -6.1795,-3.5284 -6.1795,-6.3891 0,-2.8609 2.781,-5.7376 6.1795,-6.3918 4.3384,-0.8344 6.1829,1.0702 6.1829,6.3918 0,5.3189 -1.8445,7.2261 -6.1829,6.3891 z m -15.0352,44.8377 c -4.3384,2.6806 -8.572,-7.0381 -5.3398,-12.2671 1.276,-2.0661 3.8006,-2.8422 5.6098,-1.7244 4.3601,2.694 4.196,11.2313 -0.27,13.9915 z m -5.7636,38.1492 c -3.2983,3.2953 -8.3385,-0.6861 -8.3385,-6.5878 0,-2.7972 2.3834,-5.0885 5.2977,-5.0885 5.3216,0 7.2607,7.4566 3.0408,11.6763 z m -1.2749,-110.5671 c -1.9413,0 -3.5306,-1.5894 -3.5306,-3.5336 0,-1.9417 1.5893,-3.531 3.5306,-3.531 1.9425,0 3.5318,1.5893 3.5318,3.531 0,1.9442 -1.5893,3.5336 -3.5318,3.5336 z m 153.4848,-97.6751 c -9.21,-3.5336 -10.4712,2.0927 -2.3014,10.2618 l 7.7506,7.7506 v -7.9599 c 0,-4.3786 -2.4529,-8.9002 -5.4492,-10.0525 z" fill="#00B894" transform="translate(149.51042,-44.059133) matrix(0.26458333,0,0,0.26458333,2236.8035,-2308.3798)"/>
</svg>