<?xml version="1.0" ?><svg height="60.691601mm" viewBox="0 0 59.265316 60.691601" width="59.265316mm" xmlns="http://www.w3.org/2000/svg">
    <path d="m 3593.7242,7856.6637 c 47.8218,-25.398 65.1539,-39.527 88.2935,-78.154 23.1395,-38.628 53.9923,-59.127 76.6782,-22.295 22.686,36.831 35.1178,96.529 -7.5317,142.67 -42.6494,46.141 -111.2515,67.62 -152.5398,38.138 -41.2883,-29.481 -38.566,-62.393 -4.9002,-80.359 z" fill="#FFFFFF" transform="translate(41.727898,-15.011349) matrix(0.26458333,0,0,0.26458333,-984.44097,-2029.9848)"/>
    <path d="m 3779.5185,7878.0803 c -11.4993,25.9723 -31.5848,44.9195 -64.6688,61.0046 -38.0878,18.5218 -71.8016,23.9404 -97.2128,15.6292 -21.8552,-7.1475 -32.3951,-14.9851 -44.7498,-33.2752 -13.6655,-20.2356 -13.1234,-42.2052 1.4566,-58.8096 5.9358,-6.7605 20.0679,-16.6912 31.404,-22.0691 28.7987,-13.6609 42.9767,-26.4688 58.8457,-53.1568 31.5968,-53.1442 68.7932,-72.2848 92.6373,-47.672 19.9551,20.5971 28.1163,43.9136 29.4075,84.0105 1.0262,31.8722 0.2694,37.6523 -7.1197,54.3384 z m -15.8657,-84.3748 c -1.9845,-9.2456 -8.0616,-23.8335 -13.5057,-32.4222 -8.8162,-13.8978 -11.265,-15.6114 -22.3086,-15.6114 -9.7656,0 -14.776,2.5132 -23.5484,11.8149 -11.1686,11.8454 -32.4904,47.7714 -29.8916,50.3712 0.7622,0.7613 10.1271,-0.6722 20.8093,-3.1881 22.7632,-5.3574 36.9292,-5.9176 39.6179,-1.5685 2.1136,3.4224 -23.7193,9.8669 -51.6976,12.8971 -9.8576,1.0669 -18.6552,3.1218 -19.5455,4.5656 -0.8915,1.4437 8.0944,5.859 19.9727,9.8135 21.025,6.9947 38.5697,16.8209 30.4237,17.0399 -2.2286,0.05 -14.8143,-3.8831 -27.9717,-8.7594 -30.2651,-11.219 -34.2832,-9.9738 -30.5301,9.452 1.5639,8.0821 2.8573,18.5117 2.8804,23.1816 0.054,8.1891 -0.1282,8.2552 -4.9459,1.8971 -2.7423,-3.626 -4.983,-13.1747 -4.983,-21.221 0,-16.2633 -2.141,-17.5365 -13.9711,-8.3214 -4.454,3.4681 -14.1398,8.4334 -21.5212,11.0332 -16.2151,5.7113 -39.2005,26.632 -39.2005,35.6816 0,10.012 19.9474,31.9893 35.4091,39.0095 14.7935,6.7196 52.8639,8.9019 52.8639,3.0326 0,-1.8689 -1.9539,-3.3967 -4.3391,-3.3967 -7.7889,0 -51.4457,-22.6368 -61.0175,-31.6355 -9.4217,-8.8611 -12.9581,-18.4378 -5.0926,-13.7883 2.335,1.3801 9.5916,5.7598 16.1286,9.7346 20.1008,12.2274 45.2788,21.5978 67.7517,25.2187 19.0034,3.0606 23.3885,2.6354 38.0725,-3.6819 19.0111,-8.1788 43.9876,-33.9144 49.435,-50.9391 4.8176,-15.0565 5.1604,-49.4214 0.7053,-70.2096 z" fill="#00B894" transform="translate(41.727898,-15.011349) matrix(0.26458333,0,0,0.26458333,-984.44097,-2029.9848)"/>
</svg>