<?xml version="1.0" ?><svg height="180.49927mm" viewBox="0 0 110.28732 180.49927" width="110.28732mm" xmlns="http://www.w3.org/2000/svg">
    <path d="m -246.6111,-2957.7833 c 31.6869,-13.3121 255.0561,-39.5087 255.0561,-39.5087 l 122.4052,75.3536 -6.8804,505.7963 -208.2895,81.1215 -157.9544,-106.3483 c 0,0 -17.6666,-403.6649 -16.2417,-434.3193 1.4249,-30.6544 11.9047,-82.0951 11.9047,-82.0951 z" fill="#FFFFFF" transform="translate(-8.2429148,-65.62553) matrix(0.26458333,0,0,0.26458333,79.188798,861.29456)"/>
    <path d="m -96.319717,-2331.0206 c -47.174353,-21.3674 -61.585513,-28.8363 -87.107963,-45.1468 -15.61176,-9.9772 -38.22955,-28.8899 -50.26134,-42.0285 -22.57696,-12.3078 -22.85174,-84.5944 -23.58423,-130.1694 -0.93926,-58.4543 -4.26257,-158.5941 -7.38454,-222.533 -3.91604,-80.1933 -4.5047,-126.7475 -1.89856,-150.0897 5.80984,-52.0343 5.76387,-52.0108 138.4975,-71.0878 124.6208908,-17.9107 137.5553723,-18.6399 161.234866,-9.0913 32.99006,13.3029 73.912844,36.4918 90.481494,51.2711 14.53424,12.9652 15.28097,14.9744 20.61293,55.4804 5.96409,45.3067 5.88984,177.9651 -0.19324,344.4445 -4.43206,121.3014 -6.43039,134.043 -23.4699,149.6453 -20.40952,18.6885 -72.118442,43.2334 -127.5459537,60.5434 -54.5267753,17.0281 -68.1764913,18.3662 -89.3810633,8.7618 z m 204.209057,-89.9977 c 7.63154,-5.3155 9.01053,-10.0612 8.86494,-30.5121 l -0.17232,-24.2179 -41.368919,0.8522 c -22.753173,0.4703 -43.565313,-0.9525 -46.249749,-3.158 -2.684426,-2.2057 -8.718755,-2.7008 -13.409737,-1.1003 -6.5169037,2.2235 -9.0604449,0.8453 -10.7805446,-5.842 -4.83219794,-18.7825 -48.8772124,-19.4124 -68.6377474,-0.9816 -7.000474,6.5298 -8.296033,14.7722 -10.196753,64.869 -1.4897,39.2644 -0.774454,58.8369 2.264164,61.973 3.210804,3.314 27.46599,-3.7514 87.545406,-25.5018 45.707445,-16.5474 87.17083,-32.9185 92.14126,-36.3805 z m -208.86483,24.1099 c -4.30704,-17.2274 9.776668,-446.0562 10.085547,-453.2621 0.267038,-6.2298 12.061045,-9.492 15.269744,-1.084 3.208699,8.4079 2.857828,30.6589 2.742468,104.8928 l -0.391629,252.0122 16.980028,-8.9681 c 11.15498,-5.8918 24.288167,-8.9148 38.28364,-8.8128 19.3710686,0.1398 21.2978207,-0.6914 21.2371689,-9.1763 -0.036682,-5.1321 -3.75173258,-12.7732 -8.2557331,-16.9796 -4.5039082,-4.2063 -9.3056558,-14.6294 -10.6706808,-23.1616 -2.22621,-13.917 -3.541112,-15.293 -12.774802,-13.3685 -6.992882,1.4577 -12.049939,-0.3321 -15.772351,-5.5828 -8.06338,-11.3733 -6.82276,-20.811 4.641292,-35.3042 8.627506,-10.907 9.490617,-14.3389 5.523866,-21.9666 -7.609277,-14.6315 0.989261,-19.2959 16.941743,-9.1901 8.7512474,5.5442 17.36067954,7.7153 24.5588518,6.1941 12.7444572,-2.6939 15.3675602,6.2685 5.0470662,17.2444 -5.5025356,5.8519 -4.9270123,7.159 5.619838,12.7684 7.495521,3.9867 17.025282,5.31 26.318725,3.655 24.00133,-4.2742 37.68014,4.5126 51.449917,33.0502 12.236441,25.3599 15.456921,41.1498 8.403871,41.2053 -2.10967,0.017 -5.629924,-3.2703 -7.822744,-7.304 -6.233816,-11.4686 -7.645551,-5.3212 -5.342083,23.266 2.050115,25.4474 2.53114,26.4114 13.134187,26.3281 l 11.00595,-0.086 1.70929,-136.3978 c 0.94044,-75.0188 2.64492,-169.6067 3.78819,-210.1957 0.77341,-28.6356 8.10841,-72.1207 -6.48092,-58.0497 -16.316169,13.6552 -33.380081,10.3715 -120.5589387,19.2167 -39.3636143,2.9211 -70.4757043,-0.8639 -97.3197813,27.5145 -25.14582,26.583 -67.13867,55.6709 -80.52132,55.7761 -17.08341,0.134 -26.82758,-15.0883 -40.40256,-63.1175 -20.71681,-73.2964 -21.42279,-73.0483 -18.45879,6.4884 1.47337,39.5291 4.93521,112.7687 7.69312,162.7548 2.75791,49.986 5.71891,125.0797 6.57993,166.8751 1.50675,73.1505 1.90199,76.2302 10.57284,82.382 9.74982,6.917 118.635225,70.7384 121.015845,70.9315 0.349702,-4.5109 -2.961315,-27.0155 -3.830785,-30.5482 z m -46.50864,-33.11 c -48.8291,-28.0398 -63.20641,-38.1238 -59.68997,-41.8635 4.49963,-4.7853 19.58927,2.3681 52.48229,24.8788 25.01448,17.1191 30.67694,30.4621 7.20768,16.9847 z m -28.55518,-47.7136 c -14.55366,-9.0558 -34.64963,-10.6476 -34.51601,-22.9366 -0.0926,-12.9465 11.94344,-10.6731 49.09989,9.2747 54.76758,29.4028 43.69646,39.7736 -14.58388,13.6619 z m 8.73582,-31.5296 c -28.39553,-9.2635 -45.76333,-20.2665 -40.6214,-25.7353 6.67737,-7.1009 72.51706,21.7138 67.87989,29.708 -1.30362,2.247 -2.71758,3.9857 -3.1423,3.864 -0.42504,-0.1203 -11.27733,-3.6483 -24.11619,-7.8367 z m 1.78258,-27.4812 c -16.19922,-5.3555 -32.14071,-12.0391 -35.42586,-14.852 -10.0647,-8.6188 -6.87925,-13.7808 7.10028,-11.5053 17.84685,2.9047 68.22752,28.036 65.52946,32.6876 -2.88023,4.9651 -3.2057,4.9096 -37.20388,-6.3303 z m 114.794786,-147.0501 c 15.618122,-14.2038 67.760719,-42.7978 78.192978,-42.8796 3.815225,-0.03 15.506166,9.5464 25.979736,21.2811 15.701507,17.5915 20.863125,20.939 29.417008,19.0767 5.705606,-1.2422 13.025436,-0.5302 16.266181,1.5821 6.349611,4.1388 6.015111,4.476 -6.200069,6.2566 -4.435615,0.6467 -10.91784,2.4338 -14.404642,3.9719 -4.345148,1.9162 -12.279545,-3.7569 -25.212576,-18.0265 -10.379603,-11.4529 -20.642099,-21.95 -22.805239,-23.3273 -5.511352,-3.5091 -34.0588946,9.1545 -64.194598,28.4769 -30.365929,19.4701 -35.74863,20.6039 -17.038779,3.5881 z m -6.327415,-59.4193 c -4.23457,-7.0594 -7.599861,-52.6986 -4.781912,-64.8468 3.174961,-13.6861 8.283418,-13.8922 20.033689,-0.8069 l 9.184911,10.2285 4.383566,-12.4493 c 5.369333,-15.2482 19.0955534,-17.1024 22.7904674,-3.0788 4.0573167,15.3997 3.3973323,70.8089 -0.8438046,70.8421 -6.1355948,0.048 -12.3585078,-14.9632 -12.4666338,-30.0728 -0.07672,-10.7411 -1.166804,-12.6737 -4.905984,-8.6974 -2.643997,2.8119 -8.73956,5.1434 -13.546193,5.1811 -6.816338,0.053 -8.744596,2.6273 -8.764439,11.6985 -0.04803,22.0747 -0.804837,26.4374 -4.589146,26.4671 -2.089149,0.016 -5.011573,-1.9928 -6.494521,-4.4653 z m 70.598166,-21.5219 c -6.7279426,-12.9369 -3.8830746,-56.9505 3.685041,-57.0099 4.498969,-0.036 6.62032,6.5719 8.257004,25.7173 2.467818,28.8706 1.399518,39.756 -3.905858,39.7977 -1.979009,0.016 -5.595214,-3.8119 -8.036187,-8.5051 z m 27.19263,5.7296 c -1.593936,-1.6451 -3.004365,-17.8971 -3.134597,-36.1161 -0.190472,-26.6251 0.951054,-33.1342 5.817509,-33.1724 3.903267,-0.03 6.099736,4.0842 6.182097,11.5812 0.260193,23.6534 5.33852,43.3048 11.180466,43.2591 3.364395,-0.026 5.279107,3.0826 4.535624,7.3652 -1.309895,7.5434 -19.153188,12.685 -24.581099,7.083 z m 31.197703,-19.917 c -3.784041,-20.2924 -1.036216,-50.78 4.761756,-52.8282 2.76813,-0.9776 5.054564,1.2351 5.080916,4.9179 0.05659,7.912 1.905728,8.2058 12.73486,2.0241 10.236528,-5.8434 13.342218,-2.8553 8.032718,7.7285 -2.870174,5.7213 -2.713451,12.8707 0.51802,23.614 5.13966,17.0875 2.55798,23.5258 -6.368747,15.8817 -4.719236,-4.0413 -6.344358,-3.3281 -8.416044,3.6923 -3.949763,13.3842 -13.455472,10.4585 -16.343479,-5.0303 z m -16.031411,285.1478 c -0.01418,-2.0352 1.094164,-9.8082 2.464003,-17.2735 2.380877,-12.9762 1.977211,-13.5081 -9.168517,-12.0865 -9.475997,1.2089 -11.89212,3.7788 -12.903969,13.7251 -1.219237,11.9894 4.272303,19.2584 14.589322,19.3101 2.775056,0.014 5.033738,-1.64 5.019161,-3.6752 z m 18.848058,-31.2606 c -0.952815,-7.5936 -1.669113,-2.3889 -1.591997,11.5661 0.06981,13.955 0.856503,20.168 1.732302,13.8066 0.875407,-6.3617 0.812221,-17.7796 -0.139502,-25.3728 z m -53.060848,2.4209 c -4.41711,-4.5592 -5.634283,1.1505 -2.941953,13.8015 l 2.695278,12.6657 1.292949,-12.0267 c 0.711018,-6.6144 0.240676,-13.1127 -1.046274,-14.4405 z m 47.931266,-28.4188 c 7.335957,-4.3447 6.891265,-4.8677 -5.088562,-5.9831 -13.042788,-1.2142 -14.612978,-3.4903 -13.600643,-19.713 0.485502,-7.7838 0.09828,-7.8879 -4.839549,-1.2996 -2.952046,3.9393 -10.12149,8.4525 -15.931944,10.0287 -8.134521,2.2071 -11.792598,0.8409 -15.901054,-5.9382 -7.0528372,-11.6368 -11.4838952,-11.1093 -11.3947536,1.3568 0.051664,7.2297 2.9219748,10.839 10.0653906,12.6581 5.495961,1.3994 11.890373,6.1931 14.209619,10.6523 3.416366,6.5695 7.084535,7.6235 19.329466,5.5536 8.312233,-1.4049 18.730505,-4.6968 23.15203,-7.3156 z m -85.009639,-57.1742 c 4.291652,-7.3982 -0.667233,-8.9188 -6.153371,-1.8871 -3.15472,4.0441 -3.443685,6.4729 -0.767036,6.452 2.36069,-0.019 5.474754,-2.0726 6.920407,-4.5649 z m -139.842426,-237.074 c 52.06952,-41.5251 128.306076,-62.6766 229.118803,-63.5675 19.293389,-0.1831 36.103307,-2.0757 37.355177,-4.2334 4.51654,-7.7866 -61.100103,-48.8043 -68.147383,-42.6001 -5.484671,4.8283 -32.937011,10.3663 -111.32044,22.4559 -61.306737,9.4559 -79.996747,10.8358 -90.553827,6.6863 -10.19181,-4.0057 -7.47717,-10.0613 4.553,-10.1558 6.05525,-0.047 39.16982,-4.9826 73.587654,-10.9666 34.41805,-5.9843 74.3735407,-12.4847 88.7901356,-14.4453 22.6245434,-3.9182 32.9231124,-0.183 7.9816184,-12.7501 -23.4786573,-14.0463 -26.829246,-7.0967 -53.707722,-0.5692 -19.512651,4.7385 -73.951756,12.2705 -120.975586,16.7376 -42.32627,3.6759 -87.45209,0.7574 -86.60758,18.5905 -0.80458,7.5909 -0.0881,8.859 2.60917,4.6118 2.04533,-3.2213 5.6296,-4.6404 7.96526,-3.1533 5.57491,3.5494 24.33647,44.9163 33.65505,74.2038 l 7.38229,23.2013 0.11907,-34.8296 0.11908,-34.83 -16.2251,-11.0673 c -17.51168,-11.9444 -21.30697,-22.5899 -8.09099,-22.6937 9.54991,-0.075 97.10973,52.8489 97.15175,58.7213 0.0429,6.0025 -18.64172,4.8698 -34.94811,-2.1184 -7.99473,-3.4262 -15.22199,-6.224 -16.06081,-6.2174 -0.83891,0.01 -1.42993,13.3325 -1.31349,29.613 0.11644,16.2806 1.2409,29.5929 2.49914,29.5831 1.25803,-0.01 8.03677,-4.6031 15.06384,-10.2069 z" fill="#00B894" transform="translate(-8.2429148,-65.62553) matrix(0.26458333,0,0,0.26458333,79.188798,861.29456)"/>
</svg>