<?xml version="1.0" ?><svg height="89.316277mm" viewBox="0 0 88.208145 89.316277" width="88.208145mm" xmlns="http://www.w3.org/2000/svg">
    <path color="#000" d="m 3737.2772,6036.1772 c 0,0 -72.3584,-83.3458 47.9927,-181.6899 -23.8381,-108.4064 -304.9381,-132.4229 -310.7394,39.8692 -5.8013,172.2922 127.5234,221.0845 262.7467,141.8207 z" fill="#FFFFFF" overflow="visible" paint-order="fill markers stroke" transform="translate(-87.016305,-110.42332) matrix(0.26458333,0,0,0.26458333,-829.82471,-1411.1533)"/>
    <path d="m 3581.2835,6082.1686 c -36.1995,-12.936 -74.3604,-35.6331 -93.2537,-60.4041 -14.6471,-19.2032 -19.9208,-37.6004 -22.3143,-83.2055 -3.5743,-68.103 12.3383,-97.2368 50.5246,-133.8534 56.7864,-54.4526 135.8665,-70.1273 193.316,-35.4501 56.3622,34.0208 88.7683,61.7299 89.0496,80.334 0.2263,15.0617 -6.767,21.5913 -17.0088,18.3404 -25.8246,-1.6581 -23.1149,27.4077 -14.4576,37.7219 -34.8913,0 -44.5309,30.9044 -24.0216,43.7129 -14.5132,13.5418 -23.6607,8.7433 -20.2681,35.613 9.4961,17.0837 17.0721,6.91 28.6002,4.0166 12.8589,0.6467 -31.1017,35.1248 4.3335,35.9577 15.0946,0.3557 -17.1104,21.5887 -26.9608,29.7714 -31.6863,26.662 -102.7351,43.4554 -147.539,27.4452 z m 139.679,-44.5239 c 0,0 -10.6278,-7.2016 -2.8034,-23.2591 -35.9992,-1.7661 -27.1918,-49.7207 -1.2883,-68.982 -23.111,-23.0101 0.7192,-60.6834 27.6903,-54.0296 -16.2424,-18.3319 -0.3039,-55.2105 32.9564,-45.479 l -23.382,-21.8105 c -28.4237,-26.5127 -78.8105,-50.1061 -113.5246,-50.0356 -58.8754,0.1228 -132.313,50.5239 -149.7149,102.757 -9.3701,28.1236 -9.3603,70.2332 0,98.3084 13.0413,96.6191 205.8154,109.2957 230.0406,62.5304 z m -103.7401,-9.2911 c -2.3714,-2.3714 -4.3115,-7.3186 -4.3115,-10.9939 0,-4.0522 3.0123,-3.6706 7.653,0.9701 4.2087,4.2087 6.1488,9.1559 4.3109,10.9939 -1.8372,1.8378 -5.2809,1.4014 -7.6524,-0.9701 z m -74.9703,-30.6812 c -5.1768,-6.2381 -5.427,-10.4507 -0.7915,-13.3156 9.0298,-5.581 19.7146,1.5301 19.7146,13.1215 0,11.8741 -9.1515,11.9678 -18.9231,0.1941 z m 100.8977,-12.8777 c -7.4247,-19.3492 11.3987,-22.7341 21.4969,-3.8654 5.8099,10.8555 4.9181,12.934 -5.5473,12.934 -6.8583,0 -14.0353,-4.0807 -15.9496,-9.0686 z m -75.5077,-57.7573 c 0,-13.4215 7.6543,-17.8436 17.1892,-9.93 12.5356,10.4034 10.6666,18.5532 -4.2553,18.5532 -7.1135,0 -12.9339,-3.8803 -12.9339,-8.6232 z m 77.6037,-43.1127 c 0,-7.1137 2.5538,-12.934 5.6754,-12.934 8.4801,0 20.7208,16.7171 15.8253,21.6127 -8.8539,8.8533 -21.5007,3.7482 -21.5007,-8.6787 z m -120.6408,-9.9798 c -2.1062,-5.4885 -2.0849,-11.7234 0.065,-13.8556 4.6058,-4.6057 23.5896,10.0083 23.5896,18.16 0,9.7593 -19.6098,6.1882 -23.6362,-4.3044 z m 62.438,-22.3551 c 0,-3.5568 2.9101,-6.467 6.4669,-6.467 3.5569,0 6.467,2.9102 6.467,6.467 0,3.5568 -2.9101,6.467 -6.467,6.467 -3.5568,0 -6.4669,-2.9102 -6.4669,-6.467 z m 42.0353,-19.4009 c -5.4129,-8.7589 1.8916,-19.4009 13.3155,-19.4009 5.1258,0 9.319,5.8202 9.319,12.9339 0,13.3886 -15.6016,17.8463 -22.6345,6.467 z" fill="#00B894" transform="translate(-87.016305,-110.42332) matrix(0.26458333,0,0,0.26458333,-829.82471,-1411.1533)"/>
</svg>