<?xml version="1.0" ?><svg height="153.0323mm" viewBox="0 0 89.592911 153.0323" width="89.592911mm" xmlns="http://www.w3.org/2000/svg">
    <path d="m -11573.72,14277.936 c 0,0 10.817,-125.709 35.113,-167.431 24.297,-41.723 47.391,-65.134 94.609,-72.087 47.219,-6.954 94.352,68.146 106.285,97.198 11.934,29.051 35.114,92.407 31.68,160.477 -3.434,68.069 -88.109,156.49 -88.109,156.49 0,0 5.066,57.407 42.411,67.528 37.346,10.122 47.82,27.043 47.82,27.043 0,0 -117.703,5.949 -147.236,4.944 -29.533,-1.004 -120.794,-5.408 -120.794,-5.408 0,0 68.939,-29.901 75.206,-46.049 6.267,-16.148 2.404,-46.127 2.404,-46.127 0,0 -54.516,-23.411 -72.201,-64.051 -17.686,-40.641 -27.339,-103.596 -7.188,-112.527 z" fill="#FFFFFF" transform="translate(-89.30713,15.775057) matrix(0.28567597,0,0,0.28567597,3404.4094,-4022.8639)"/>
    <path d="m -11447.969,14026.692 c -19.257,0.17 -37.663,6.096 -52.726,15.741 -54.175,32.32 -87.563,133.494 -88.012,228.724 -21.569,0.718 -14.206,19.593 -15.468,43.437 -2.506,47.401 23.283,87.807 55.636,118.978 13.409,12.918 27.316,23.439 30.91,23.37 8.279,-0.17 14.054,24.938 8.314,36.163 -3.655,7.142 -46.477,27.261 -57.847,28.244 -23.16,2.006 -36.347,36.064 -12.333,37.206 0.734,0.03 31.769,1.459 69.197,2.405 v 0 c 114.293,2.887 201.791,1.258 211.081,-3.938 4.773,-2.673 8.562,-7.334 8.416,-10.361 -0.572,-11.826 -21.882,-29.233 -44.069,-35.996 -25.507,-7.776 -39.563,-19.61 -47.942,-40.352 -5.005,-12.394 -4.434,-14.272 7.011,-22.806 49.83,-37.174 64.999,-73.247 75.913,-135.851 5.057,-29.073 4.962,-34.232 -0.716,-38.486 -7.234,-36.693 -8.138,-121.246 -55.562,-189.631 -25.269,-41.352 -59.725,-57.112 -91.817,-56.841 z m -2.52,21.309 c 48.86,-0.17 86.328,55.474 105.407,107.146 -5.001,6.376 -9.63,11.205 -10.894,11.12 -1.469,-0.103 -6.995,-7.053 -12.279,-15.449 -15.645,-24.863 -22.667,-20.755 -33.922,19.845 -1.53,5.509 -3.173,5.427 -10.051,-0.473 -4.519,-3.879 -11.895,-8.354 -16.397,-9.949 -9.078,-3.213 -22.718,7.851 -22.718,18.43 0,3.733 -1.849,6.794 -4.104,6.794 -2.257,0 -6.688,-16.01 -9.844,-35.578 -3.155,-19.566 -8.113,-37.047 -11.024,-38.846 -2.985,-1.843 -12.989,5.389 -22.939,16.604 l -17.647,19.892 -9.841,-16.695 c -2.951,-5.006 -6.573,-9.457 -9.909,-12.501 11.718,-25.295 27.577,-44.674 50.346,-60.417 12.493,-6.825 24.459,-9.882 35.816,-9.923 z m -32.981,85.177 c 1.388,0 3.956,10.156 5.7,22.574 7.318,52.094 18.371,65.434 34.204,41.267 8.022,-12.241 11.459,-12.598 40.166,-4.128 5.498,1.618 9.167,-3.176 13.508,-17.675 l 5.965,-19.889 9.695,15.322 c 12.516,19.767 27.365,18.665 33.693,-2.264 2.676,8.544 4.883,16.872 6.434,24.605 8.555,38.318 12.551,77.317 12.551,77.317 -62.329,3.002 -120.791,3.217 -183.341,1.503 l -64.039,-0.204 c 6.281,-59.204 13.258,-103.571 25.914,-137.98 0.803,1.374 1.608,2.755 2.35,4.21 4.468,8.793 11.582,19.368 15.815,23.489 7.032,6.856 9.039,5.968 23.282,-10.327 8.573,-9.803 16.716,-17.824 18.103,-17.824 z m -12.21,157.898 c 15.289,0 31.92,0.07 49.176,0.17 l 125.518,0.919 -7.906,23.823 c -19.097,57.564 -33.688,85.811 -75.121,108.158 -19.504,10.521 -68.734,16.217 -88.267,10.208 -38.342,-11.792 -63.471,-37.425 -76.283,-77.803 -8.824,-27.806 -16.811,-61.279 -9.079,-64.135 2.322,-0.856 36.095,-1.366 81.962,-1.353 z m 89.386,175.133 2.913,16.27 c 5.206,29.08 23.684,45.415 62.676,55.409 51.675,13.383 -54.212,-3.274 -63.42,2.217 -33.698,-1.622 -82.67,-1.567 -108.825,0.102 l -47.558,3.064 23.292,-8.443 c 42.135,-15.272 55.045,-30.168 49.405,-57.003 -2.068,-9.838 -1.116,-10.1 39.702,-10.858 z" fill="#00B894" transform="translate(-89.30713,15.775057) matrix(0.28567597,0,0,0.28567597,3404.4094,-4022.8639)"/>
</svg>