<?xml version="1.0" ?><svg height="79.384308mm" viewBox="0 0 80.476074 79.384308" width="80.476074mm" xmlns="http://www.w3.org/2000/svg">
    <path d="m -5727.6071,8407.5086 c 23.9355,-42.017 91.9195,-64.4589 168.8225,-39.6419 76.903,24.818 115.3235,110.1086 99.8373,152.1801 -24.3905,66.2617 -126.2593,37.2711 -126.2593,37.2711 0,0 -2.4279,104.2609 -77.5107,78.3788 -58.3062,-20.099 0.091,-101.153 0.091,-101.153 0,0 -104.4789,-34.4001 -64.9808,-127.0351 z" fill="#FFFFFF" transform="translate(-196.37506,-57.069725) matrix(0.26458333,0,0,0.26458333,1717.6912,-2151.9084)"/>
    <path d="m -5446.8384,8512.0515 c -7.8601,24.0707 -15.614,43.3287 -50.7231,53.1458 -12.07,3.4848 -23.6866,4.3753 -47.6612,3.6482 l -31.702,-0.9622 -1.7055,13.6184 c -2.9007,23.1412 -7.3821,35.2787 -16.4434,44.5461 -20.645,21.1169 -48.3413,26.43 -67.7445,20.7656 -41.239,-12.0394 -46.2477,-65.8856 -16.5965,-97.5958 9.1715,-9.7311 9.529,-10.7218 4.9309,-13.6163 -32.2677,-20.3203 -53.3847,-34.9722 -58.6607,-40.7039 -20.4777,-19.6952 -21.1925,-61.0385 -7.2821,-83.4729 23.7436,-37.6154 54.216,-54.2998 110.6197,-60.5708 26.2583,-2.921 31.7285,-2.7412 50.3738,1.6546 24.7876,5.8441 63.1546,24.4138 79.6409,38.5448 36.0997,30.9442 59.674,84.8109 52.9537,120.9984 z m -31.512,-60.7524 c -14.1454,-28.6196 -34.0429,-49.4403 -60.9078,-63.7348 -35.3807,-18.8251 -63.7552,-23.5538 -103.0312,-17.1746 -52.629,12.262 -74.373,26.0684 -84.2695,51.5422 -6.2669,30.0923 -5.9586,62.7462 11.8493,71.0536 1.1316,0 1.4953,-6.7714 0.8089,-15.0482 -1.295,-15.6161 5.2558,-39.4211 10.8485,-39.4211 1.577,0 1.9507,2.0713 0.8579,4.7655 -1.0621,2.6207 -2.5083,12.119 -3.213,21.1067 -2.4777,31.5916 12.5643,47.5896 63.0831,67.0786 34.5249,13.3181 75.5413,21.4784 110.8832,22.0606 45.6022,1.3114 65.7285,-28.4909 64.36,-60.6831 -0.7579,-17.2767 -2.5616,-23.9275 -11.2694,-41.5454 z m -1.7811,71.5664 c -1.3932,2.2039 -3.4481,3.0945 -4.5633,1.9792 -1.1154,-1.1173 0.041,-4.1016 2.5757,-6.6325 4.9228,-4.9228 6.1811,-1.9773 1.9876,4.6533 z m -16.4189,4.8451 c -4.9616,8.1399 -13.6469,12.2007 -13.6469,6.3792 0,-1.3584 3.2661,-8.7651 7.2555,-16.4577 5.0473,-9.727 7.9377,-12.9136 9.4921,-10.4645 3.5317,5.5662 2.7085,11.0181 -3.1007,20.543 z m -28.0537,6.1054 c -3.9301,7.7662 -12.828,10.82 -12.828,4.3999 0,-7.0083 8.9449,-23.4414 12.7605,-23.4414 4.5224,0 4.5592,10.1622 0.061,19.0415 z m -126.054,-24.4893 c -2.537,0 -3.926,-1.8527 -3.4052,-4.5387 1.3257,-6.8348 7.6886,-7.7724 7.6886,-1.1338 0,3.3439 -1.7588,5.6725 -4.2834,5.6725 z m -30.1067,-2.7229 c -3.6828,0 -4.2079,-2.3245 -3.107,-13.7777 2.0632,-21.4865 7.5396,-23.7437 7.5396,-3.1089 0,13.7818 -0.815,16.8866 -4.4326,16.8866 z m 60.2644,48.9277 c -11.9843,-3.3377 -25.0839,-7.7356 -29.11,-9.7761 -7.0572,-3.5788 -7.6904,-3.2601 -17.5933,8.8241 -14.2168,18.4472 -19.1232,41.7069 -8.4504,57.5845 11.9168,14.1657 15.7366,17.4728 35.0907,17.6158 30.3496,-1.2215 38.7592,-26.5484 44.6361,-44.7954 7.3044,-22.8633 9.7842,-19.8893 -24.5731,-29.4529 z" fill="#00B894" transform="translate(-196.37506,-57.069725) matrix(0.26458333,0,0,0.26458333,1717.6912,-2151.9084)"/>
</svg>