<?xml version="1.0" ?><svg height="36.978119mm" viewBox="0 0 172.80205 36.978119" width="172.80205mm" xmlns="http://www.w3.org/2000/svg">
    <path color="#000" d="m 2016.5157,8845.4187 c -1.7601,-7.2 9.5205,-10.08 27.2813,-13.176 17.7608,-3.096 541.7855,-66.024 541.7855,-66.024 0,0 -552.666,12.888 -563.2265,12.096 -10.5605,-0.792 -14.6407,-3.024 -12.9606,-13.536 1.6801,-10.512 10.0805,-12.96 26.0012,-13.248 15.9208,-0.288 582.5074,-8.496 587.7876,-8.136 5.2803,0.36 -0.24,11.592 -6.0803,14.832 -5.8403,3.24 -36.1616,27.648 -36.1616,27.648 0,0 -512.4241,70.992 -529.1449,73.008 -16.7208,2.016 -29.7614,-5.328 -35.2817,-13.464 z" fill="#FFFFFF" overflow="visible" paint-order="fill markers stroke" transform="translate(-236.40802,23.148183) matrix(0.26458333,0,0,0.26458333,-289.58069,-2333.2715)"/>
    <path d="m 2013.4202,8864.8308 c -12.524,-3.73 -15.256,-23.4902 -11.0059,-30.3662 4.4246,-7.16 63.9778,-17.3369 134.3657,-22.6449 102.2254,-10.6394 201.7015,-21.3159 294.1792,-31.5281 31.6822,-3.554 43.0499,-7.5911 41.3637,-7.6224 -83.9616,2.7845 -160.1937,10.614 -241.7916,11.7524 -93.9205,1.278 -180.8306,6.4327 -195.4087,8.4717 -31.0518,4.343 -48.856,-10.3167 -47.0019,-29.2717 2.4942,-25.503 4.8037,-28.3772 336.7774,-31.0062 223.598,-1.772 304.4479,-2.4263 308.3891,1.0987 5.4878,4.91 9.065,23.5658 -4.3753,24.5429 -2.0159,0.1465 0.2129,3.888 4.9665,8.641 15.4141,15.415 18.8718,19.4432 -124.9096,40.2712 -47.526,6.886 -99.0494,15.4587 -124.827,17.6867 -25.7778,2.227 -80.4683,11.9781 -105.6111,16.4651 -83.9237,14.97 -206.0763,29.8559 -222.7283,29.5629 -10.9689,0.5189 -32.2667,-3.0405 -42.3822,-6.0531 z m 147.7517,-26.4398 c 50.6002,-6.7539 106.489,-17.224 124.5939,-20.548 18.1053,-3.323 55.1388,-7.937 82.2964,-10.255 44.8216,-3.823 136.0972,-16.016 183.1086,-24.463 l 18.5167,-3.327 -18.1775,-0.485 c -17.0158,-0.454 -51.9227,3.587 -156.7015,18.128 -99.5245,13.816 -207.2439,26.602 -259.2327,30.771 -98.8845,7.929 -105.1055,8.633 -111.2315,12.57 -5.2948,3.404 -5.2788,4.385 0.1328,7.935 68.9984,4.1958 69.2338,-1.3216 136.6948,-10.326 z m 50.5275,-71.839 c 199.8303,-4.02 381.8849,-11.674 399.1362,-16.779 8.0928,-2.394 -4.6618,-3.003 -37.0332,-1.765 -27.1577,1.037 -161.8148,3.061 -299.2385,4.5 -201.3931,2.11 -251.279,3.703 -257.1751,8.218 -6.3959,4.897 -6.5394,6.141 -1.1424,9.894 3.395,2.358 10.8014,3.173 16.4591,1.808 5.658,-1.364 86.2054,-4.009 178.9939,-5.876 z" fill="#00B894" transform="translate(-236.40802,23.148183) matrix(0.26458333,0,0,0.26458333,-289.58069,-2333.2715)"/>
</svg>