<?xml version="1.0" ?><svg height="71.397095mm" viewBox="0 0 163.07889 71.397095" width="163.07889mm" xmlns="http://www.w3.org/2000/svg">
    <path color="#000" d="m 6315.0843,6122.3828 c -36.6544,0.1386 -72.8695,2.2622 -101.4429,4.6682 -91.4347,7.6995 -88.7608,58.3879 -72.8978,84.0528 15.8631,25.6649 92.1481,65.5642 209.8235,114.0485 159.9178,22.9798 193.5232,-46.3577 188.5327,-65.4459 -4.9905,-19.0884 -40.4601,-37.3742 -52.4015,-91.2705 -8.21,-37.0537 -90.9756,-46.3581 -171.614,-46.0531 z m 320.2361,72.4538 c -13.7321,0.032 -29.6253,5.7445 -35.1389,15.3688 26.2003,29.9959 39.7467,41.2228 55.2535,8.9813 8.2373,-17.1282 -4.5513,-24.3864 -20.1146,-24.3501 z m 22.3454,71.0272 c -12.8913,-0.035 -22.1108,13.7933 -14.7923,27.6839 28.0777,12.9254 41.2565,-16.4538 24.1456,-25.2761 -3.2082,-1.6542 -6.3778,-2.3998 -9.3533,-2.4078 z" fill="#FFFFFF" overflow="visible" paint-order="fill markers stroke" transform="translate(-79.532257,-251.16889) matrix(0.28319764,0,0,0.28319764,-1650.1749,-1479.034)"/>
    <path d="m 6576.6165,6359.3292 c -15.7726,-9.7477 2.8491,-22.9409 20.9685,-14.8559 14.4795,6.4605 14.4936,6.5995 1.4788,13.5651 -7.9876,4.2747 -16.799,4.7817 -22.4473,1.2908 z m -229.1769,-21.0624 c -47.4407,-15.8618 -47.2508,-17.5664 -73.9857,-26.3282 -62.987,-24.8539 -100.4289,-61.0502 -130.3274,-81.3203 -20.1722,-15.4809 -35.9035,-22.8797 -35.3378,-54.4286 0.5481,-30.5667 22.413,-40.346 40.0602,-49.4715 12.504,-6.4657 50.2814,-7.1497 131.2574,-12.9654 165.2214,-11.8661 210.2492,-0.5435 214.7486,56.9117 3.255,41.5659 15.2285,49.4366 41.2685,64.6152 4.3326,2.5259 18.3623,10.8073 20.8543,22.3599 3.8331,17.7661 2.2956,29.9175 -13.4063,45.6192 -33.9475,33.9472 -152.0509,49.4121 -195.1318,35.008 z m 119.4731,-23.9283 c 3.2035,-5.182 7.6841,-7.5612 9.9583,-5.2868 5.3081,5.3087 43.5835,-7.664 49.8219,-16.8859 12.2712,-18.1425 -2.3674,-42.2438 -24.8401,-56.1329 -15.4936,-9.5757 -22.6348,-18.791 -22.6348,-29.2081 0,-19.6234 -4.4327,-49.4282 -14.2139,-55.4729 -11.5125,-7.1156 -38.6684,0.981 -51.1404,15.2472 -7.5691,8.6586 -9.8707,18.6721 -7.275,31.652 3.4448,17.2254 1.9226,19.3614 -16.4116,23.0289 -15.9177,3.183 -20.2098,7.3471 -20.2098,19.6085 0,8.5616 -3.9914,25.1209 -8.8707,36.7977 -9.2289,22.0873 -4.2431,37.6657 13.9771,43.6761 21.1975,6.9934 86.2509,2.0177 91.839,-7.0238 z m -95.9746,-12.7064 c 2.7784,-8.3371 11.6482,-9.8343 12.4484,-2.1017 0.2657,2.5783 -3.0066,5.8526 -7.2751,7.2753 -4.2685,1.4227 -6.5965,-0.9053 -5.1733,-5.1736 z m 47.5316,-0.3233 c 2.1988,-3.5568 6.7359,-6.467 10.0827,-6.467 3.3459,0 6.0847,2.9102 6.0847,6.467 0,3.5568 -4.5371,6.4669 -10.0818,6.4669 -5.5456,0 -8.2835,-2.9101 -6.0856,-6.4669 z m -16.1675,-35.366 c 0,-5.7685 3.7935,-8.0416 9.6634,-5.7892 5.3147,2.0397 8.0535,6.3137 6.0856,9.4974 -5.6436,9.1313 -15.749,6.7516 -15.749,-3.7082 z m -64.8054,30.5744 c -2.1527,-3.4837 -1.6753,-15.6404 1.8845,-29.0516 3.5598,-13.4111 8.1158,-32.3866 10.1233,-42.1679 2.7671,-13.4817 7.4277,-17.7842 19.2625,-17.7842 13.1176,0 19.6485,0.1929 19.1914,-15.9195 -0.6277,-22.1119 10.0969,-37.3429 33.4791,-47.5394 15.9196,-6.9423 15.6246,-7.2404 -9.4343,-9.5389 -40.6807,-3.7307 -70.6745,8.6342 -99.001,40.8157 -24.4774,27.8087 -40.0397,36.4667 -40.0397,22.2781 0,-10.922 20.2314,-40.7393 38.217,-56.3267 16.5274,-14.323 16.5585,-14.5189 2.3326,-14.5507 -18.3022,-0.065 -64.2297,17.7603 -87.6647,33.9781 -22.7582,15.7498 -40.7089,10.9558 -30.4885,-8.1418 9.8141,-18.3384 -5.9028,-23.3692 -31.5593,-10.1015 -20.4001,10.5496 -33.1106,27.7841 -33.1106,44.899 0,5.3785 16.1574,20.179 35.5686,33.3883 16.3548,11.1294 17.5672,15.2857 35.5686,28.2568 9.3492,6.7367 102.7747,57.1383 131.3378,58.292 6.4343,0.2587 6.4863,-7.3021 4.3327,-10.7858 z m 4.3711,-161.27 c -4.408,-4.4086 -29.334,12.456 -33.1652,22.4392 -1.8963,4.9413 5.1196,2.6261 16.4153,-5.4168 10.85,-7.7255 18.387,-15.3856 16.7499,-17.0224 z m 301.0065,158.3012 c -12.9799,-12.9799 -8.7227,-19.7515 9.5361,-15.1689 15.1562,3.8039 16.258,3.0905 8.9084,-5.7659 -6.9716,-8.4006 -6.751,-10.1066 1.312,-10.1066 5.3354,0 13.0676,4.0567 17.1834,9.0149 5.7765,6.9604 5.1149,11.3825 -2.9038,19.4009 -12.3636,12.3636 -23.4444,13.2179 -34.0361,2.6256 z m -42.314,-67.3684 c -20.8422,-19.3259 -17.8865,-25.1688 19.1929,-37.9463 19.1146,-6.5872 27.2323,-6.8563 34.2133,-1.133 7.3759,6.046 4.3354,8.1303 -15.6623,10.7364 -27.3341,3.5614 -34.7232,13.1157 -19.7536,25.5394 7.8914,6.5492 11.6944,6.1204 20.0778,-2.2627 12.5115,-12.5116 22.353,-13.3634 22.353,-1.9356 0,27.0138 -34.5243,31.015 -60.4211,7.0018 z" fill="#00B894" transform="translate(-79.532257,-251.16889) matrix(0.28319764,0,0,0.28319764,-1650.1749,-1479.034)"/>
</svg>