<?xml version="1.0" ?><svg height="119.7669mm" viewBox="0 0 86.594788 119.7669" width="86.594788mm" xmlns="http://www.w3.org/2000/svg">
    <path d="m -13149.401,14558.605 c -83.027,-17.407 -126.456,-51.566 -132.296,-185.079 -5.839,-133.513 97.254,-214.147 130.099,-220.88 32.846,-6.733 119.348,50.252 139.968,184.094 20.62,133.842 -57.663,215.625 -137.771,221.865 z" fill="#FFFFFF" transform="translate(74.851197,-60.415416) matrix(0.28567597,0,0,0.28567597,3723.284,-3980.4881)"/>
    <path d="m -13264.729,14503.024 c -63.628,-117.995 -18.536,-231.041 50.597,-314.53 37.975,-45.856 73.682,-54.704 115.411,-29.848 62.111,37 94.71,100.954 105.432,206.848 8.239,81.353 -28.043,145.942 -94.37,184.815 -52.22,30.604 -146.562,9.293 -177.07,-47.285 z m 191.769,6.199 c 54.6,-49.281 67.497,-113.593 42.967,-216.423 -13.843,-58.013 -73.1,-141.658 -128.816,-125.089 -15.386,4.577 -23.73,11.245 -39.396,30.403 -40.39,49.384 -65.587,113.272 -71.976,182.49 -3.1,33.616 3.873,80.398 28.084,108.7 55.756,65.181 107.971,75.124 169.137,19.919 z" fill="#00B894" transform="translate(74.851197,-60.415416) matrix(0.28567597,0,0,0.28567597,3723.284,-3980.4881)"/>
</svg>