<?xml version="1.0" ?><svg height="84.86882mm" viewBox="0 0 185.71101 84.86882" width="185.71101mm" xmlns="http://www.w3.org/2000/svg">
    <path d="m 11484.321,16433.675 c 57.588,2.128 131.377,16.814 175.958,-3.193 44.58,-20.007 82.894,-29.372 100.749,-62.044 17.856,-32.671 40.132,-38.438 72.648,-49.403 32.516,-10.965 16.632,-52.761 24.082,-69.789 7.449,-17.027 31.927,-21.071 45.29,-10.216 13.362,10.855 14.663,38.418 4.493,60.766 -10.169,22.349 -20.339,33.098 -0.236,51.296 20.102,18.198 28.025,56.19 87.742,55.232 59.717,-0.957 142.019,-31.288 151.834,-30.223 9.815,1.064 15.373,16.282 -3.666,33.735 -19.038,17.454 -84.786,51.934 -84.786,51.934 0,0 104.889,1.384 96.375,18.943 -8.514,17.56 -49.429,35.864 -91.172,40.866 -41.742,5.002 -154.08,7.343 -182.697,-5.534 -28.617,-12.877 -39.496,-85.882 -39.496,-85.882 0,0 -87.387,75.453 -123.454,88.33 -36.066,12.877 -70.714,19.475 -146.395,-5.534 -75.68,-25.009 -136.106,-79.178 -87.269,-79.284 z" fill="#FFFFFF" transform="translate(-12.977865,-105.73222) matrix(0.26458333,0,0,0.26458333,-3020.1989,-4185.9811)"/>
    <path d="m 11624.989,16537.87 c -35.2,-7.481 -54.807,-15.234 -94.119,-37.213 -42.153,-23.568 -62.761,-38.705 -65.82,-48.342 -3.218,-10.142 0.743,-10.045 12.53,0.303 10.504,9.222 18.723,13.435 81.676,41.863 33.231,15.007 66.116,22.178 101.587,22.152 25.307,-0.03 30.816,-1.065 50.795,-9.638 12.325,-5.289 28.46,-14.495 35.855,-20.458 7.395,-5.963 22.857,-18.068 34.36,-26.9 11.504,-8.834 27.418,-21.428 35.366,-27.987 16.099,-13.289 28.874,-15.857 28.874,-5.804 0,3.368 1.886,9.771 4.193,14.23 2.306,4.46 5.149,14.814 6.319,23.009 2.939,20.588 9.372,33.2 18.83,36.913 9.081,3.568 40.324,9.372 41.928,7.792 0.579,-0.571 -4.126,-4.733 -10.458,-9.249 -6.331,-4.515 -14.687,-12.053 -18.568,-16.753 -9.115,-11.036 -21.165,-45.24 -21.337,-60.574 -0.07,-6.573 -1.413,-17.329 -2.976,-23.902 -3.117,-13.109 -0.941,-32.304 3.361,-29.647 1.489,0.921 2.017,2.795 1.172,4.162 -0.845,1.367 1.021,11.02 4.146,21.454 3.126,10.434 6.611,25.652 7.746,33.818 2.881,20.753 14.216,41.489 33.938,62.091 23.937,25.007 26.922,26.142 68.609,26.142 50.838,0 110.845,-11.449 140.956,-26.894 l 10.442,-5.359 -17.912,-2.238 c -9.852,-1.233 -40.77,-1.385 -68.706,-0.341 -52.104,1.951 -77.374,-0.225 -104.103,-8.921 -18.986,-6.188 -34.128,-19.655 -36.538,-32.505 -2.94,-15.668 -0.08,-18.386 6.9,-6.556 3.5,5.931 11.494,13.398 17.765,16.591 27.33,13.921 98.265,16.233 118.396,3.863 5.242,-3.222 22.977,-12.612 39.41,-20.869 30.914,-15.53 55.276,-33.6 55.276,-41 0,-5.277 1.259,-5.387 -19.326,1.694 -9.501,3.27 -36.062,10.707 -59.025,16.532 -32.742,8.302 -47.743,10.603 -69.524,10.662 -41.209,0.111 -55.939,-8.045 -72.148,-39.96 -3.992,-7.861 -11.914,-19.228 -17.603,-25.26 -5.966,-6.324 -9.23,-12.081 -7.712,-13.6 4.45,-4.451 20.156,5.929 33.765,22.315 23.361,28.126 27.846,31.46 45.249,33.634 21.74,2.716 39.875,0.112 96.108,-13.854 76.219,-18.917 72.041,-18.209 81.307,-13.788 8.681,4.141 11.933,14.543 8.643,27.65 -3.853,15.353 -38.173,39.889 -76.427,54.638 -5.911,2.28 -1.784,3.274 20.6,4.964 39.218,2.961 51.106,8.604 55.566,26.372 2.683,10.696 -8.425,21.18 -27.715,26.165 -7.792,2.012 -20.218,6.09 -27.613,9.062 -28.464,11.433 -71.153,18.241 -116.501,18.575 -36.759,0.273 -49.257,-0.933 -82.193,-7.922 -21.364,-4.533 -42.668,-10.467 -47.344,-13.187 -12.526,-7.283 -20.424,-25.226 -22.538,-51.199 l -1.828,-22.465 -7.027,9.851 c -6.86,9.618 -47.595,42.217 -79.426,63.559 -33.672,22.578 -84.236,31.455 -127.181,22.329 z m -40.336,-49.14 c -35.179,-7.697 -58.264,-14.989 -58.264,-18.404 0,-1.9 1.928,-2.017 5.229,-0.318 9.299,4.786 85.004,13.249 102.223,11.427 9.101,-0.965 26.268,-5.159 38.151,-9.323 22.335,-7.828 33.67,-9.495 33.67,-4.95 0,4.992 -7.841,9.067 -34.924,18.14 -31.592,10.584 -50.03,11.319 -86.085,3.428 z m 128.702,-20.842 c -0.841,-1.36 2.001,-4.083 6.315,-6.051 4.316,-1.965 21.416,-13.418 38.002,-25.452 16.587,-12.031 34.45,-24.061 39.695,-26.727 5.905,-3.003 16.441,-14.929 27.663,-31.314 18.648,-27.226 28.775,-38.556 31.781,-35.551 2.805,2.806 -4.318,13.8 -26.819,41.401 -11.686,14.335 -23.63,29.493 -26.541,33.684 -11.475,16.519 -85.426,57.566 -90.096,50.01 z m -134.679,-16.849 c -3.781,-1.363 -86.608,-11.062 -98.557,-11.539 -12.165,-0.488 -13.479,-8.856 -2.128,-13.558 6.132,-2.541 30.724,-3.352 84.546,-2.794 70.584,0.735 77.559,0.327 99.628,-5.824 13.051,-3.64 33.598,-11.492 45.661,-17.452 22.671,-11.203 27.07,-15.792 46.532,-48.539 13.672,-23.005 29.1,-33.065 56.832,-37.06 l 22.486,-3.238 4.808,-12.139 c 2.644,-6.673 6.277,-21.905 8.072,-33.845 3.514,-23.363 9.588,-31.472 31.358,-41.851 11.976,-5.712 22.577,-2.013 37.062,12.932 8.535,8.807 10.094,12.763 11.233,28.514 1.221,16.878 0.341,20.224 -11.388,43.356 -8.711,17.179 -14.372,25.07 -17.99,25.07 -8.433,0 -9.266,-8.016 -2.574,-24.757 15.77,-39.448 16.825,-47.855 7.031,-55.984 -3.186,-2.643 -4.365,-0.439 -5.925,11.082 -2.748,20.298 -6.697,31.877 -15.092,44.247 -8.027,11.827 -9.094,16.448 -3.801,16.448 1.917,0 2.812,0.675 1.987,1.497 -0.823,0.825 -16.5,2.705 -34.837,4.18 -41.918,3.37 -52.313,8.217 -65.196,30.411 -19.982,34.421 -26.981,43.341 -42.437,54.089 -20.204,14.051 -49.144,25.152 -84.696,32.489 -24.414,5.037 -64.017,7.363 -72.615,4.265 z m 287.516,-150.969 c 7.046,-14.095 12.919,-56.635 7.818,-56.635 -6.242,0 -9.989,7.893 -9.989,21.038 0,12.448 -4.078,30.13 -10.575,45.852 -4.885,11.82 6.149,2.944 12.746,-10.255 z" fill="#00B894" transform="translate(-12.977865,-105.73222) matrix(0.26458333,0,0,0.26458333,-3020.1989,-4185.9811)"/>
</svg>