<?xml version="1.0" ?><svg height="119.76559mm" viewBox="0 0 86.595688 119.76559" width="86.595688mm" xmlns="http://www.w3.org/2000/svg">
    <path d="m -12742.477,14558.605 c -83.027,-17.407 -126.456,-51.566 -132.296,-185.079 -5.839,-133.513 97.254,-214.147 130.099,-220.88 32.846,-6.733 119.348,50.252 139.968,184.094 20.62,133.842 -57.663,215.625 -137.771,221.865 z" fill="#FFFFFF" transform="translate(84.317779,-45.822469) matrix(0.28567597,0,0,0.28567597,3598.4753,-3995.0816)"/>
    <path d="m -12739.806,14145.078 c -23.986,0.555 -46.837,14.755 -70.572,43.416 -69.136,83.489 -114.227,196.535 -50.6,314.534 30.508,56.574 124.851,77.881 177.071,47.278 66.327,-38.873 102.611,-103.459 94.373,-184.816 -10.725,-105.89 -43.321,-169.844 -105.431,-206.844 -15.65,-9.32 -30.451,-13.9 -44.841,-13.568 z m 0.476,20.508 c 50.046,0.997 99.174,72.699 112.504,125.117 -0.204,0 -0.724,-0.07 -0.724,-0.07 l -10.691,14.451 c -5.88,7.95 -11.881,14.374 -13.35,14.272 -1.469,-0.103 -6.997,-7.052 -12.279,-15.448 -15.645,-24.863 -22.666,-20.755 -33.925,19.845 -1.526,5.512 -3.172,5.43 -10.047,-0.472 -4.52,-3.88 -11.899,-8.356 -16.397,-9.951 -9.079,-3.213 -22.722,7.852 -22.722,18.431 0,3.736 -1.846,6.793 -4.104,6.793 -2.254,0 -6.685,-16.008 -9.841,-35.574 -3.159,-19.569 -8.116,-37.047 -11.027,-38.845 -2.982,-1.847 -12.985,5.388 -22.939,16.6 l -17.644,19.892 -9.844,-16.696 c -4.533,-7.685 -10.657,-14.131 -14.891,-16.046 11.378,-25.387 25.715,-48.897 42.798,-69.786 15.669,-19.157 24.01,-25.822 39.396,-30.399 5.223,-1.554 10.483,-2.227 15.727,-2.125 z m -103.272,114.916 c 2.142,2.989 4.369,6.61 6.318,10.442 4.464,8.793 11.578,19.364 15.811,23.49 7.036,6.852 9.042,5.967 23.286,-10.327 8.569,-9.807 16.716,-17.829 18.104,-17.829 1.387,0 3.954,10.157 5.699,22.576 7.317,52.093 18.368,65.432 34.2,41.27 8.025,-12.245 11.459,-12.602 40.169,-4.132 5.494,1.622 9.163,-3.176 13.505,-17.672 l 5.964,-19.891 9.699,15.322 c 12.669,20.011 27.746,18.671 33.935,-3.01 5.743,-2.825 10.348,-5.38 14.081,-7.701 18.159,91.16 3.543,150.22 -47.38,196.183 -61.163,55.205 -113.375,45.266 -169.134,-19.916 -24.207,-28.301 -31.182,-75.083 -28.081,-108.7 3.244,-35.145 11.354,-68.907 23.824,-100.105 z" fill="#00B894" transform="translate(84.317779,-45.822469) matrix(0.28567597,0,0,0.28567597,3598.4753,-3995.0816)"/>
</svg>