<?xml version="1.0" ?><svg height="128.46107mm" viewBox="0 0 121.54459 128.46107" width="121.54459mm" xmlns="http://www.w3.org/2000/svg">
    <path color="#000" d="m 4931.3223,1838.6875 c -13.8906,0.4646 -21.001,15.3016 -23.3887,27.6621 0,0 -12.7952,-2.3371 -22.459,6.6016 -9.6638,8.9386 -8.5898,27.9453 -8.5898,27.9453 0,0 -27.1117,-4.6707 -37.7598,10.4687 -32.0473,69.2386 71.7727,84.1148 128.2246,76.4219 35.613,-5.1538 91.0899,-55.8066 91.0899,-55.8066 0,0 125.4518,-38.2529 135.205,-41.2325 9.7533,-2.9795 6.7107,-29.3121 -28.455,-23.4335 -51.0036,18.0385 -116.9506,38.9758 -151.4004,23.7558 -34.4498,-15.2199 -22.5489,-17.3125 -22.5489,-17.3125 0,0 4.9206,-18.2001 -3.58,-24.3203 -8.5006,-6.1202 -22.9063,3.9453 -22.9063,3.9453 0,0 -18.9764,-14.7338 -33.4316,-14.6953 z m 36.0234,171.1309 c -0.1245,-6.4221 -29.3463,-3.5938 -33.1074,9.8242 -20.2537,-17.7413 -47.334,0.8867 -47.334,0.8867 -0.239,-0.8783 -24.8588,-6.9584 -47.7773,6.2793 -22.2296,12.8398 -48.5936,9.5841 -70.1582,19.3281 -22.1911,11.0325 -15.8387,36.1576 -17.002,64.1817 -1.1633,28.024 16.8223,31.3261 16.8223,31.3261 0,0 -4.7422,60.7995 -2.3262,91.4004 2.416,30.601 44.3835,70.3815 193.0098,75.1328 148.6263,4.7511 168.2226,-50.7337 168.2226,-68.289 0,-17.5552 0.893,-85.6819 -0.4492,-97.5196 -1.3423,-11.8377 16.4654,-49.6065 10.8281,-74.8925 -5.6372,-25.2861 -119.7246,-47.7539 -119.7246,-47.7539 -16.1498,-15.3699 -31.2625,-17.0994 -51.0039,-9.9043 z" fill="#FFFFFF" overflow="visible" paint-order="fill markers stroke" transform="translate(1634.5929,51.052618) matrix(0.26458333,0,0,0.26458333,-2859.7993,-452.88927) translate(-111.87215,-311.51845)"/>
    <path d="m 4808.9769,2001.7576 c -38.7626,-5.3032 -113.4636,-28.6433 -136.6531,-42.6965 -25.7168,-15.5849 -28.6107,-21.9656 -27.715,-61.1088 0.7415,-32.4074 -2.8783,-59.7301 -9.9564,-75.1506 -3.6033,-7.8499 -4.6553,-25.8794 -3.508,-60.1147 0.7406,-22.097 1.7869,-22.0052 11.834,-28.5671 16.927,-11.0553 79.9788,-31.387 84.2761,-18.8294 0,2.1418 2.1891,3.8942 4.8646,3.8942 2.6754,0 7.4395,2.5752 10.587,5.7225 5.3601,5.3602 5.9254,5.3602 8.9251,0 4.5325,-8.0991 27.9597,-7.6847 35.9312,0.6356 3.3504,3.4969 11.9171,8.2388 19.037,10.5376 15.819,5.107 14.8159,12.4512 -1.5037,11.0095 -8.2817,-0.7316 -13.5298,0.9278 -17.7769,5.6209 -7.3184,8.0867 -2.4838,12.4099 10.2919,9.2033 4.893,-1.2281 16.0792,0.2807 25.6504,3.4599 12.4386,4.1313 17.9833,4.6275 20.7536,1.8572 7.4579,-7.4578 43.2795,-1.6793 43.2795,6.9816 0,1.5722 1.9757,2.8584 4.3905,2.8584 2.5409,0 4.3341,-3.902 4.2564,-9.2625 -0.1837,-12.6921 13.3246,-19.4609 28.3707,-14.2158 13.6847,4.7705 14.7546,14.6396 1.2897,11.8966 -12.992,-2.6468 -27.5742,9.1075 -21.0504,16.9681 3.671,4.4234 3.5931,5.8828 -0.4504,8.4415 -4.1186,2.6061 -4.0332,3.1016 0.5424,3.1455 2.9872,0.026 8.348,-3.1707 11.9128,-7.1099 5.561,-6.1449 8.9008,-6.853 23.5123,-4.9856 9.3668,1.1973 19.6376,2.2225 22.8243,2.2786 8.6666,0.1526 26.5546,-14.3467 26.5546,-21.5241 0,-8.5437 9.5514,-11.5912 16.0285,-5.1141 12.4606,12.4605 -7.596,38.1176 -37.1956,47.5817 -50.0368,15.9984 -165.3778,20.5429 -225.7025,8.8927 -38.889,-7.5105 -74.8479,-23.7539 -82.694,-37.3548 -7.2176,-12.5112 -3.1383,-27.6973 7.0509,-26.2484 5.1258,0.7289 7.5412,3.4276 7.5412,8.4261 0,10.8257 3.2329,12.2794 10.1964,4.5851 3.4,-3.7573 8.9708,-6.8311 12.3793,-6.8311 5.1539,0 5.8426,-1.8633 4.0908,-11.0667 -1.1585,-6.0866 -2.7295,-11.782 -3.4909,-12.6563 -1.8185,-2.0882 -34.6974,9.4121 -44.2642,15.4825 -6.8038,4.3174 -7.3653,7.0316 -6.3127,30.5173 1.7331,38.6746 8.2214,43.8819 69.965,56.1519 33.3479,6.627 49.7692,7.7759 110.6656,7.7425 100.3508,-0.055 152.4159,-9.7984 181.8409,-34.0291 7.0571,-5.8112 8.2265,-9.8366 8.5127,-29.3011 0.2415,-16.4046 -1.1439,-24.0447 -5.0741,-27.9871 -6.0185,-6.0372 -71.441,-29.8077 -74.2653,-26.9833 -0.9862,0.9862 0.034,4.7169 2.2646,8.2907 2.2317,3.5735 2.9399,7.055 1.5735,7.7366 -2.0278,1.0117 -15.5993,0.7008 -28.8736,-0.6615 -1.4045,-0.1438 -2.5537,-3.4641 -2.5537,-7.3777 0,-3.9136 -3.398,-9.8672 -7.5511,-13.2302 -6.7025,-5.4271 -6.999,-6.7794 -2.6388,-12.0331 4.0709,-4.9053 8.5422,-5.5798 26.1117,-3.9391 27.952,2.6101 74.4623,15.499 84.5286,23.4243 1.8728,1.4744 6.8643,5.3618 11.0923,8.6386 7.9518,6.1627 10.065,14.2898 13.3602,51.3788 1.5709,17.682 0.7648,23.2238 -4.4573,30.6459 -5.6789,8.0714 -6.3296,15.4894 -5.961,67.944 0.3851,54.7783 -0.092,59.6449 -6.8405,69.8045 -21.7564,32.7532 -132.0418,57.2625 -209.7971,46.6244 z m 86.83,-21.7655 c 47.6838,-5.074 82.2517,-15.9734 98.5429,-31.0715 6.9224,-6.4155 8.5891,-11.0173 8.2206,-22.6975 -0.2544,-8.0577 -0.9972,-15.6285 -1.651,-16.8239 -0.6538,-1.1954 -12.2097,0.7199 -25.6796,4.2564 -13.47,3.5365 -28.7178,6.4299 -33.884,6.4299 -5.1664,0 -10.3405,1.5323 -11.498,3.405 -3.0495,4.9342 -15.0384,4.176 -20.5116,-1.2972 -6.4804,-6.4805 -2.8933,-8.8971 13.4178,-9.0393 26.7597,-0.2336 63.4644,-11.5806 76.03,-23.5041 6.8498,-6.4999 7.4318,-9.4535 5.6009,-28.4191 -1.1239,-11.6408 -2.4132,-21.5683 -2.8651,-22.0612 -0.4521,-0.4928 -6.8032,1.6913 -14.1137,4.8535 -13.2481,5.7302 -25.2803,7.9999 -79.1678,14.9333 -53.6963,6.9088 -152.0318,1.5736 -230.6065,-12.5111 l -10.454,-1.874 -0.6447,23.9997 c -0.7926,29.51 -1.11,29.2858 49.0288,34.6348 37.3722,3.9872 41.7427,4.9801 38.0728,8.6499 -2.5368,2.537 -65.0419,2.1039 -75.5088,-0.5232 -6.4942,-1.6298 -8.3119,-0.3378 -10.2198,7.2635 -4.023,16.029 9.9381,26.2397 57.1567,41.8021 36.8482,12.1445 67.4602,18.6461 104.3347,22.159 6.5548,0.6245 14.2163,1.3626 17.0255,1.6402 2.8092,0.2776 25.0275,-1.6146 49.3739,-4.2052 z m -92.0776,-53.3231 c -4.0048,-6.4797 2.0029,-8.3009 23.4044,-7.0949 23.0984,1.3017 26.7116,2.7045 19.2007,7.4546 -6.9137,4.3723 -39.8526,4.0944 -42.6051,-0.3597 z m -27.7086,-138.5311 c 2.2214,-11.0132 -4.706,-17.9038 -17.9198,-17.8246 -10.3262,0.062 -15.2604,2.9928 -18.1232,10.7655 -2.4865,6.7508 2.7389,11.765 14.5176,13.9306 17.606,3.2369 19.616,2.5952 21.5254,-6.8715 z m 51.3787,3.8247 c 5.3372,-13.9085 -21.5059,-21.4073 -28.6754,-8.0108 -5.2382,9.7876 -1.4912,13.5501 13.4947,13.5501 8.9154,0 13.7291,-1.7565 15.1807,-5.5393 z m 39.5734,-2.5429 c 7.1224,-5.993 8.6137,-9.0738 5.7695,-11.9179 -5.8333,-5.8331 -15.3298,-4.5999 -22.9042,2.9745 -15.8641,15.8642 -0.5743,23.8447 17.1347,8.9434 z m 27.1315,4.6771 c 0,-1.8728 -1.5323,-3.4051 -3.4051,-3.4051 -1.8727,0 -3.405,1.5323 -3.405,3.4051 0,1.8728 1.5323,3.4051 3.405,3.4051 1.8728,0 3.4051,-1.5323 3.4051,-3.4051 z m -175.9292,-11.6689 c 2.6072,-6.7945 -5.1488,-12.2607 -14.0822,-9.9246 -9.5567,2.4991 -9.499,5.9607 0.1771,10.6274 10.3668,4.9997 11.7434,4.9301 13.905,-0.7028 z m 17.1865,-25.633 c 8.3282,-3.1664 8.4124,-3.5272 3.2414,-13.8928 -4.5352,-9.0913 -6.6161,-10.3139 -14.2806,-8.3902 -10.5502,2.6479 -9.2133,1.2438 -11.9138,12.5147 -1.671,6.9737 -0.784,9.4796 3.7773,10.6716 9.6526,2.5222 10.2385,2.4946 19.1757,-0.9033 z m 37.3422,-11.7569 c 4.5937,-7.0109 4.6639,-8.469 0.4848,-10.0726 -4.4895,-1.7228 -15.2882,9.3122 -15.2882,15.6227 0,5.8146 9.7528,2.1581 14.8034,-5.5501 z m 192.0554,31.6239 c -8.0107,-4.4828 -7.5803,-13.211 0.6512,-13.211 8.1437,0 11.691,5.1368 8.0459,11.6507 -1.9868,3.5499 -4.3759,3.9786 -8.6971,1.5603 z m -136.4868,-25.6964 c -4.6286,-4.6287 -2.0531,-14.6319 4.6976,-18.2447 15.516,-8.3039 42.1678,3.3874 31.6646,13.8904 -2.7677,2.7678 -5.6563,2.6057 -10.7995,-0.6063 -5.9246,-3.6999 -8.0235,-3.4778 -13.4387,1.423 -7.0737,6.4016 -8.7662,6.8954 -12.124,3.5376 z m -30.9077,-33.9151 c -3.1801,-8.2871 4.235,-14.8913 16.7199,-14.8913 11.1845,0 20.9356,7.2935 17.3999,13.0147 -1.053,1.7036 -5.6021,2.3926 -10.1094,1.531 -4.5071,-0.8616 -9.231,0.1097 -10.4975,2.1591 -3.4221,5.5373 -11.087,4.5086 -13.5129,-1.8135 z m 79.7142,-0.1068 c -2.8092,-0.937 -7.2951,-2.4046 -9.9686,-3.2614 -4.0898,-1.3108 -4.0005,-2.4182 0.5631,-6.9818 7.3909,-7.3911 23.0258,-3.4941 23.0258,5.7391 0,6.6512 -3.6066,7.8439 -13.6203,4.5041 z m -111.5386,-35.1328 c -31.5522,-14.3218 -58.7163,-43.5685 -58.7163,-63.2175 0,-13.6404 12.1378,-27.995 26.0191,-30.7712 14.8663,-2.9733 17.2212,3.5231 5.3444,14.7434 -16.8695,15.9373 -16.5046,20.1511 3.4723,40.0828 20.6764,20.6301 33.7579,25.4408 69.0196,25.3827 46.5588,-0.077 108.2493,-23.7177 121.7932,-46.6729 4.3424,-7.3598 9.1827,-11.1365 14.2729,-11.1365 4.2363,0 24.377,-5.5211 44.7573,-12.2692 68.9072,-22.8156 91.1116,-28.4052 96.168,-24.2088 3.8103,3.1622 3.2963,4.92 -2.9085,9.9443 -4.1454,3.3567 -10.5728,6.1031 -14.283,6.1031 -3.7103,0 -32.5326,8.4782 -64.0497,18.8406 -53.4417,17.5707 -57.765,19.6224 -64.1487,30.4419 -3.7649,6.3807 -12.697,15.4202 -19.8493,20.0877 -38.6038,25.1919 -124.0987,37.5344 -156.8913,22.6496 z m 14.3538,-35.2032 c -34.0144,-14.7486 -52.7222,-29.5757 -37.3166,-29.5757 3.178,0 5.1077,-3.216 5.1077,-8.5128 0,-4.6821 2.8861,-11.399 6.4137,-14.9265 4.2644,-4.2644 5.8435,-9.3973 4.7119,-15.3167 -2.3288,-12.1827 6.5409,-24.5005 21.1022,-29.3062 9.3324,-3.0801 12.0384,-5.8096 12.0384,-12.1433 0,-10.7408 13.3275,-19.3185 27.8511,-17.9248 9.2432,0.8869 11.4926,2.6732 12.3209,9.7841 0.9432,8.0977 0.1804,8.602 -11.032,7.2931 -13.7667,-1.6073 -20.3954,6.8146 -10.9924,13.966 2.9599,2.2509 6.9449,8.3066 8.8556,13.4568 2.5323,6.8252 5.8048,9.3639 12.0712,9.3639 9.4563,0 10.8588,-3.1549 4.3407,-9.7635 -3.411,-3.4582 -3.0051,-5.2393 2.0434,-8.9672 3.4649,-2.5585 5.2174,-6.4034 3.8942,-8.5442 -3.7717,-6.1029 10.5298,-16.9913 22.3174,-16.9913 13.167,0 23.4012,11.1913 23.5593,25.763 0.1009,9.3533 1.9809,11.214 18.0559,17.8766 23.1458,9.5934 28.679,9.3956 65.474,-2.3413 69.4822,-22.1637 83.4356,-25.6324 87.3525,-21.7155 6.9499,6.9497 0.2037,13.6178 -18.1296,17.9195 -9.9759,2.3409 -29.6471,8.4102 -43.7139,13.4879 -51.0804,18.4382 -73.6171,21.4586 -91.4198,12.2526 -12.7306,-6.5835 -15.1851,-3.2201 -11.0573,15.1518 2.7008,12.0203 2.2014,15.1084 -3.3389,20.6488 -6.2322,6.2322 -26.9686,9.2828 -26.9237,3.9608 0.015,-1.4046 4.5002,-5.1018 9.9741,-8.2159 7.6384,-4.3457 9.503,-7.3818 8.0188,-13.0574 -2.7767,-10.6181 -9.7985,-12.0032 -24.5277,-4.8388 -9.3134,4.53 -12.463,7.9535 -11.3242,12.3084 7.0495,26.9575 -31.3128,43.8298 -65.7269,28.9078 z m 49.3905,-17.4282 c 5.3988,-10.0878 2.2993,-19.8763 -5.7998,-18.3166 -6.7396,1.298 -15.9804,18.057 -12.7968,23.2083 3.8342,6.2039 14.1042,3.5024 18.5966,-4.8917 z m -35.9111,-6.4138 c 13.6842,-10.0061 -4.4561,-29.5597 -23.0857,-24.8839 -12.7668,3.2043 -14.7868,11.0493 -5.4144,21.0259 8.6875,9.2476 19.1859,10.6687 28.5001,3.858 z m 42.7079,-38.2463 c -2.8675,-3.4551 -7.8668,-4.2888 -16.9795,-2.8316 -12.875,2.0588 -12.914,2.0293 -12.3717,-9.3874 0.4569,-9.6154 -0.7367,-11.634 -7.4405,-12.5831 -11.6524,-1.6496 -28.5347,6.1412 -26.2439,12.111 1.034,2.6947 1.8802,6.1876 1.8802,7.762 0,1.5744 5.2403,4.592 11.6454,6.7059 6.4051,2.1138 13.5851,6.1805 15.9559,9.037 2.92,3.5184 7.6758,4.5787 14.7441,3.2872 5.7385,-1.0485 12.7319,-0.4389 15.5413,1.3551 6.5864,4.2057 9.2264,-8.2774 3.2687,-15.4561 z m 42.2244,-2.4573 c 2.3583,-9.018 0.027,-12.7016 -8.037,-12.7016 -9.6942,0 -11.8412,-6.7329 -3.9169,-12.283 7.2601,-5.0853 6.582,-14.9578 -1.0274,-14.9578 -2.3186,0 -6.963,3.036 -10.321,6.7464 -4.9714,5.4933 -5.3149,7.6987 -1.8493,11.8745 5.5613,6.7009 1.7395,16.7921 -5.3319,14.0786 -3.5297,-1.3545 -4.6848,-0.6021 -3.3785,2.2006 1.0917,2.3421 2.8388,6.5892 3.8827,9.4377 3.0345,8.2804 27.6066,4.6776 29.9793,-4.3954 z" fill="#00B894" transform="translate(1634.5929,51.052618) matrix(0.26458333,0,0,0.26458333,-2859.7993,-452.88927)"/>
</svg>