<?xml version="1.0" ?><svg height="37.757629mm" viewBox="0 0 134.48163 37.757629" width="134.48163mm" xmlns="http://www.w3.org/2000/svg">
    <path d="m 5699.1754,397.68468 c 0.2514,-4.33311 19.259,-11.34145 23.6971,-12.32112 4.4379,-0.97965 46.4728,-6.74457 55.893,-6.02866 9.4202,0.71591 46.8498,7.30977 48.6082,11.56753 1.7584,4.25775 1.9677,8.47783 -12.686,11.04003 -14.6534,2.56217 -39.3554,11.26609 -59.9961,9.64588 -20.6407,-1.62022 -54.4695,-5.61422 -55.5162,-13.90366 z" fill="#FFFFFF" paint-order="markers stroke fill" transform="translate(-20.921031,115.80662) rotate(1.9417289,17504.299,-167351.2)"/>
    <path d="m 5754.877,416.36203 c -22.1515,0 -40.7543,-4.0833 -50.6236,-11.10404 -8.6308,-6.14017 -8.3943,-10.17959 0.9566,-16.35334 7.3111,-4.82681 10.057,-5.50413 34.5278,-8.51841 31.0429,-3.82323 62.7863,-3.02059 80.0661,2.0241 10.2135,2.98194 11.6031,3.9652 12.4156,8.78324 1.0712,6.35066 -2.8204,9.77187 -17.145,15.07338 -10.6251,3.93287 -47.3801,10.09614 -60.1975,10.09507 z m 61.2634,-18.07197 c 4.5746,-1.83455 8.6361,-4.11716 9.0245,-5.07239 1.2836,-3.15316 -22.7819,-9.09287 -42.488,-10.48723 -15.7548,-1.11443 -23.9893,-0.59278 -44.0823,2.79333 -23.1845,3.90992 -35.8155,8.07467 -35.2181,11.61845 1.0298,6.10584 43.1188,12.12439 73.7064,10.54004 8.1456,-0.42312 29.4846,-5.5534 39.0575,-9.3922 z m -49.1702,4.81697 c -4.1382,-0.16706 -12.712,-1.15354 -19.0528,-2.19223 -11.4362,-1.87382 -11.4617,-1.89153 -3.1793,-2.23734 4.5913,-0.19308 13.3772,-0.44375 19.5232,-0.55445 12.2425,-0.22464 31.5296,-2.98086 29.7474,-4.24881 -1.7688,-1.25856 -36.8282,-1.67058 -51.6264,-0.60695 -9.1676,0.65915 -14.1124,1.76357 -15.5941,3.48389 -2.8314,3.28788 -6.2024,-0.0723 -3.658,-3.64679 2.3754,-3.339 38.8407,-9.20835 54.818,-8.82296 15.1737,0.36568 27.7129,4.5241 28.5462,9.46686 0.5514,3.27017 -0.7891,3.83525 -15.6985,6.61919 -8.9654,1.67365 -19.6873,2.90726 -23.8257,2.74006 z" fill="#00B894" transform="translate(-20.921031,115.80662) rotate(1.9417289,17504.299,-167351.2)"/>
</svg>