<?xml version="1.0" ?><svg height="57.486435mm" viewBox="0 0 87.306557 57.486435" width="87.306557mm" xmlns="http://www.w3.org/2000/svg">
    <path d="m 2752.7948,2893.515 c 3.5411,-4.6755 12.6034,-12.7686 23.5762,-11.6994 10.9728,1.0695 21.7128,1.9079 24.7412,2.5159 3.0287,0.6081 14.8402,3.3129 16.3078,4.403 1.4677,1.0903 6.989,1.2581 9.4351,3.9626 2.4463,2.7046 8.8995,17.7586 4.3333,27.0674 -4.5662,9.3091 -13.6752,14.7604 -16.401,14.7183 -2.7257,-0.042 -10.8098,-2.7046 -10.8098,-2.7046 0,0 -10.1719,2.9221 -16.646,2.3815 -6.4743,-0.5405 -29.1552,-0.9768 -34.4437,-16.6804 -5.2882,-15.7038 -0.093,-23.9643 -0.093,-23.9643 z" fill="#FFFFFF" paint-order="markers stroke fill" transform="translate(-137.27303,-98.896575) translate(-2610.3577,-2781.0392)"/>
    <path d="m 2788.3899,2936.8056 c -0.3291,-0.3291 -4.6107,-0.6484 -9.515,-0.7096 -8.1498,-0.1015 -9.4273,-0.369 -14.8542,-3.1107 -11.1219,-5.6191 -16.4122,-12.7433 -16.3899,-22.0714 0.022,-6.1129 1.8413,-14.9438 3.9153,-18.9264 1.8015,-3.4597 10.4254,-9.4961 15.7777,-11.0439 4.5143,-1.3054 12.9729,-1.3486 18.6198,-0.095 2.261,0.502 6.7825,1.285 10.048,1.7403 12.735,1.776 16.5412,2.6608 19.6137,4.5598 1.7541,1.084 3.5959,1.7199 4.0927,1.4127 1.1966,-0.7392 5.4926,1.548 7.9353,4.2254 1.0751,1.1781 3.1142,4.4028 4.5317,7.1659 3.8729,7.5499 3.6908,14.9055 -0.5642,22.806 -6.6104,12.2732 -12.5721,15.8218 -22.0935,13.1503 -4.8146,-1.3509 -5.5281,-1.35 -8.9357,0.022 -3.7007,1.4807 -11.0513,2.0138 -12.1817,0.8834 z m -0.6149,-8.0815 c 2.9722,-1.537 10.9018,-12.6702 12.8163,-17.9935 2.6504,-7.3704 -3.6937,-20.9957 -11.168,-23.9863 -5.0554,-2.0227 -17.0867,-3.6265 -21.2904,-2.838 -4.2255,0.7929 -10.8372,7.26 -14.1377,13.8291 -6.6495,13.2345 1.3574,28.3827 17.0906,32.3341 4.4918,1.1279 13.2751,0.4198 16.6892,-1.3454 z m -19.1871,-11.3621 c 0,-1.0345 0.4111,-1.8809 0.9135,-1.8809 0.5024,0 0.9134,0.5924 0.9134,1.3164 0,0.7238 -0.411,1.5702 -0.9134,1.8808 -0.5024,0.3105 -0.9135,-0.2818 -0.9135,-1.3163 z m 18.7259,-4.6211 c -0.3105,-0.5025 -0.1282,-0.9135 0.403,-0.9135 0.5318,0 0.9672,0.411 0.9672,0.9135 0,0.5023 -0.1822,0.9135 -0.4027,0.9135 -0.2227,0 -0.657,-0.4112 -0.9675,-0.9135 z m -24.7009,-6.4551 c -0.8405,-1.3601 0.1351,-2.0997 1.8831,-1.4286 0.807,0.3096 1.2116,0.9769 0.8991,1.483 -0.7405,1.1981 -2.0235,1.1729 -2.7822,-0.054 z m 25.6536,0.1236 c -0.6242,-1.0095 0.8168,-2.0996 1.6604,-1.2561 0.8685,0.8686 0.7065,2.1065 -0.2756,2.1065 -0.4727,0 -1.096,-0.3826 -1.3848,-0.8504 z m -1.6891,-5.2144 c -0.9726,-0.9727 0.2466,-2.1116 1.674,-1.5639 0.7346,0.2818 1.1081,0.8806 0.8302,1.3304 -0.5922,0.958 -1.6782,1.0592 -2.5042,0.2335 z m 13.1424,27.9498 c 5.6251,-2.8698 10.3869,-8.1581 11.7594,-13.0601 3.305,-11.8037 -3.5372,-26.7252 -14.0946,-30.739 -2.2299,-0.8478 -1.9921,-0.3775 2.0416,4.0357 5.0313,5.5052 5.6469,7.41 5.7774,17.8784 0.1015,8.0709 -0.6315,10.2564 -6.0188,17.9632 -2.225,3.1826 -3.8373,5.7868 -3.5829,5.7868 0.2546,0 2.1074,-0.8392 4.1179,-1.865 z m 26.4981,-7.0408 c 3.7791,-5.576 4.0257,-6.3181 3.9853,-11.9925 -0.045,-6.5097 -3.1233,-14.5891 -6.8369,-17.9498 -1.6314,-1.4764 -1.5817,-1.1871 0.4093,2.375 3.6987,6.6176 5.2188,13.8824 4.0656,19.4306 -1.102,5.3022 -5.2311,12.408 -8.872,15.2675 l -2.425,1.9046 2.8229,-1.5457 c 1.5524,-0.8501 4.6353,-4.2205 6.8508,-7.4897 z m -8.0257,-1.1805 c 4.3696,-5.1051 5.7859,-10.5316 4.3838,-16.7969 -1.3579,-6.0676 -5.524,-12.7477 -9.4382,-15.1345 -4.1921,-2.5559 -5.1239,-2.2713 -2.2806,0.6967 1.3304,1.3888 3.0872,4.369 3.9036,6.6224 2.0105,5.5496 2.1423,19.2608 0.2349,24.4221 -0.7892,2.1352 -1.1037,3.8821 -0.6994,3.8821 0.4046,0 2.1578,-1.6613 3.8959,-3.6919 z" fill="#00B894" transform="translate(-137.27303,-98.896575) translate(-2610.3577,-2781.0392)"/>
</svg>