<?xml version="1.0" ?><svg height="338.23108mm" viewBox="0 0 194.69389 338.23108" width="194.69389mm" xmlns="http://www.w3.org/2000/svg">
    <path d="m 27307.773,28037.713 c -13.072,0.01 -150.054,4.437 -172.839,9.162 0,0 -4.776,28.723 -0.95,86.826 3.826,58.102 31.619,122.825 66.33,149.063 34.712,26.238 104.851,-2.564 122.731,-28.598 17.881,-26.035 6.986,-136.657 4.572,-176.521 -2.413,-39.862 -6.772,-39.952 -19.844,-39.932 z m -12.209,295.957 c -39.367,-0.02 -90.175,6.197 -116.453,12.623 -36.559,8.941 -45.733,34.199 -46.123,78.557 0,0 1.198,222.41 13.09,302.326 11.891,79.916 39.064,90.979 99.721,86.879 60.657,-4.1 93.12,-32.129 108.308,-80.356 15.188,-48.228 43.453,-272.283 42.143,-320.678 -1.31,-48.396 -27.231,-67.974 -61.883,-76.093 -9.746,-2.284 -23.398,-3.249 -38.803,-3.258 z m 108.467,787.228 -82.302,16.163 c 0.334,2.971 0.311,124.471 23.353,135.564 23.042,11.092 143.322,-14.772 146.611,-16.162 3.29,-1.391 4.938,-2.018 4.938,-2.018 0,0 -10.217,-77.974 -19.162,-84.902 -8.945,-6.928 -73.975,2.408 -73.975,2.408 z m -300.437,13.032 -28.817,140.232 155.618,10.129 9.025,-64.555 -55.301,-7.64 8.594,-69.055 z" fill="#FFFFFF" transform="translate(-111.29588,-53.89039) matrix(0.26458333,0,0,0.26458333,-6152.124,-6714.6593) translate(-3313.5291,-2437.8203)"/>
    <path d="m 23757.999,26846.225 c -7.296,-7.921 -8.056,-10.748 -7.337,-27.214 0.831,-18.997 3.964,-31.781 18.592,-75.828 4.719,-14.206 10.221,-31.326 12.225,-38.045 2.507,-8.639 12.687,-17.577 20.363,-17.383 17.941,0.647 19.695,-1.117 41.145,-41.419 31.846,-59.836 32.128,-121.523 30.552,-186.518 l -1.926,-79.483 -14.834,-6.339 c -48.031,-20.526 -38.343,-93.554 -41.351,-136.138 l -3.176,-46.497 -34.573,-8.252 c -56.875,-13.575 -84.212,-31.528 -98.168,-64.47 -12.75,-30.093 -7.463,-58.452 16.246,-87.156 25.879,-31.328 130.284,-122.448 139.725,-125.6 51.869,-17.317 101.291,-19.358 143.569,-17.838 43.346,1.76 63.133,6.66 83.753,20.746 7.594,5.188 18.357,11.913 23.922,14.946 23.353,12.731 92.207,59.361 112.377,76.105 25.884,21.486 42.75,30.897 48.083,26.827 5.139,-3.917 10.885,-28.823 12.212,-52.925 0.805,-14.597 -1.405,-32.323 -7.834,-62.873 -11.097,-52.733 -12.706,-92.753 -4.498,-111.852 6.107,-14.208 28.106,-34.731 46.078,-42.985 26.302,-12.082 88.559,-13.016 99.175,-1.487 3.899,4.233 4.181,6.376 1.378,10.479 -2.974,4.353 -2.265,5.973 4.544,10.383 8.511,5.512 12.677,14.679 9.085,19.989 -2.136,3.16 -14.757,1.667 -25.875,-3.064 -4.551,-1.937 -4.128,-0.671 2.071,6.197 15.405,17.068 1.704,37.749 -14.416,21.762 -6.792,-6.736 -22.55,-16.057 -27.492,-16.258 -1.798,-0.06 0.585,4.052 5.298,9.169 11.051,11.999 11.225,25.042 0.393,29.448 -6.292,2.559 -10.044,1.733 -23.787,-5.239 -9.058,-4.597 -24.548,-9.425 -34.826,-10.855 l -18.512,-2.579 0.793,21.318 c 0.435,11.727 4.614,39.152 9.282,60.945 4.671,21.795 9.142,45.679 9.939,53.079 1.79,16.648 -5.489,62.661 -12.319,77.882 -6.831,15.222 -20.195,25.213 -33.026,24.683 -13.049,-0.536 -37.893,-13.625 -56.187,-29.599 -31.194,-27.24 -91.918,-73.462 -93.995,-71.55 -0.734,0.677 -0.558,16.121 0.393,34.322 3.665,70.089 -3.842,148.352 -22.851,238.183 -10.898,51.508 -20.298,76.984 -35.627,96.565 l -11.192,14.298 9.592,17.362 c 5.274,9.548 11.461,22.494 13.747,28.769 18.129,41.235 25.739,72.388 33.103,107.682 6.678,35.981 -3.541,109.729 -3.541,109.729 l -1.639,63.502 12.391,-1.34 c 21.449,-2.319 22.187,-1.146 18.853,29.953 -1.821,17.003 -1.852,27.289 -0.08,27.362 1.559,0.06 12.574,-2.755 24.481,-6.265 11.905,-3.512 25.083,-6.241 29.282,-6.069 24.969,1.029 48.213,75.045 32.317,102.91 -8.37,14.673 -25.97,18.792 -102.946,24.096 -51.144,3.522 -55.58,3.409 -61.094,-1.563 -5.055,-4.559 -5.064,-14.485 -0.02,-15.745 2.021,-0.502 23.369,-2.298 47.442,-3.989 61.245,-4.301 87.171,-10.37 91.156,-21.341 3.737,-10.282 -6.04,-56.8 -12.526,-59.601 -2.012,-0.868 -17.709,0.524 -34.882,3.094 -39.239,5.871 -40.911,4.784 -39.151,-25.43 0.645,-11.116 0.368,-20.243 -0.621,-20.281 -1.753,-0.06 -54.215,11.487 -61.022,13.442 -2.362,0.68 -0.73,10.66 5.23,31.991 9.148,32.754 10.719,64.48 3.518,71.11 -11.648,10.728 -25.64,-4.973 -24.824,-30.051 0.311,-9.588 -1.096,-26.012 -3.125,-36.495 -5.535,-28.582 -7.329,-42.602 2.492,-52.412 4.589,-4.587 20.541,-4.548 27.258,-6.899 15.665,-5.478 15.862,-6.345 19.025,-83.15 1.475,-35.822 10.667,-73.822 -1.407,-107.581 -13.185,-36.865 -15.818,-77.235 -29.017,-111.904 -9.03,-21.953 -10.289,-23.067 -17.677,-17.835 -36.428,25.796 -59.663,25.561 -99.648,20.07 5.955,41.551 3.601,87.678 2.997,129.284 -0.732,17.774 -15.897,114.336 -32.588,144.299 -6.295,11.302 -11.474,21.236 -11.508,22.073 -0.02,0.839 4.309,1.706 9.653,1.926 19.4,0.797 23.462,12.182 15.951,55.206 l -2.805,18.067 15.389,0.698 c 17.585,0.798 39.392,9.121 42.052,18.685 6.428,23.116 4.369,74.359 -24.332,79.007 -8.683,3.691 -21.376,5.601 -80.509,1.483 -25.704,-5.152 -59.46,8.787 -78.358,-11.729 z m 146.709,-19.421 c 2.418,-0.568 3.819,-9.989 4.429,-18.464 1.07,-14.847 0.797,-15.497 -7.512,-17.957 -4.742,-1.403 -20.895,-4.101 -35.896,-5.994 -16.122,-2.036 -27.665,-4.831 -28.231,-6.835 -0.527,-1.865 3.327,-7.078 8.566,-11.585 9.762,-8.399 15.101,-22.516 16.065,-43.986 l 0.559,-10.456 c -15.795,-3.838 -39.5,-1.665 -53.492,-6.795 -12.591,-4.295 -12.272,2.035 -12.412,9.239 -4.145,19.982 -12.897,48.816 -19.879,67.411 -5.268,14.027 -7.828,36.272 -4.797,41.662 2.864,5.093 119.232,6.9 132.6,3.76 z m 46.595,-469.324 c 77.64,-16.055 84.329,-76.04 91.695,-117.708 12.145,-70.154 13.676,-83.064 18.359,-154.894 5.266,-80.753 4.328,-137.617 -2.517,-152.303 -5.228,-11.221 -9.949,-12.437 -10.351,-2.666 -0.189,4.711 -4.908,10.755 -14.365,18.412 -13.901,11.257 -14.002,11.452 -8.074,15.98 9.928,7.581 14.641,13.686 14.435,18.702 -0.105,2.612 -5.808,12.088 -12.668,21.057 -6.86,8.972 -19.6,29.776 -28.313,46.237 -10.071,19.029 -17.482,29.86 -20.352,29.742 -3.502,-0.147 -4.068,-2.362 -2.524,-9.897 2.749,-13.419 19.791,-49.334 32.687,-68.879 5.896,-8.937 10.765,-17.312 10.82,-18.607 0.06,-1.295 -3.71,-5.308 -8.362,-8.919 -12.565,-9.749 -10.938,-19.555 5.758,-34.642 l 13.564,-12.259 -6.008,-6.946 c -6.807,-7.873 -29.255,-10.868 -32.098,-4.281 -0.873,2.021 -4.345,17.261 -7.714,33.866 -3.371,16.607 -8.205,37.307 -10.744,46.003 -3.428,11.739 -1.926,27.578 -2.301,65.356 -0.288,29.084 3.952,35.55 2.745,59.31 3.25,22.424 -18.938,17.786 -20.53,5.844 0.447,-10.763 3.937,-17.355 0.512,-14.743 -7.805,5.952 -12.204,-0.227 -20.383,-28.623 -9.863,-34.241 -20.489,-50.445 -39.71,-60.543 -7.83,-4.114 -16.153,-8.652 -18.494,-10.084 -5.886,-3.603 -4.219,-20.517 3.394,-34.432 l 6.183,-11.302 -14.429,-2.523 c -7.936,-1.386 -16.765,-3.899 -19.618,-5.58 -7.811,-4.603 -5.752,-15.976 4.916,-27.164 11.146,-11.686 10.7,-13.928 -1.701,-8.538 -17.829,7.745 -20.596,16.477 -22.199,70.074 -1.907,63.722 -1.565,112.512 0.997,141.819 2.086,23.881 2.145,24.02 11.19,25.761 32.914,6.335 36.457,6.242 48.896,-1.272 10.271,-6.208 15.895,-7.316 37.276,-7.358 33.62,-0.06 53.424,7.348 64.246,24.045 19.44,29.997 23.491,50.011 10.654,52.678 -4.307,0.894 -8.269,4.974 -10.772,11.095 -4.29,10.49 -13.471,14.938 -19.543,9.464 -2.09,-1.887 -7.038,-10.799 -10.994,-19.808 -4.988,-11.356 -11.977,-20.46 -22.786,-29.688 -16.218,-13.844 -35.002,-23.465 -20.62,-10.561 3.857,3.461 8.974,7.859 11.369,9.772 10.822,8.65 26.731,52.44 22.561,62.102 -2.885,6.685 -13.022,5.19 -17.577,-2.591 -2.16,-3.691 -5.827,-14.534 -8.151,-24.096 -4.048,-16.673 -22.704,-44.409 -27.129,-40.334 -0.984,0.907 1.367,9.365 5.224,18.799 12.82,31.349 9.916,50.392 -7.203,47.229 -5.61,-1.039 -7.848,-5.615 -14.702,-30.085 -4.443,-15.874 -9.57,-30.813 -11.389,-33.2 -3.113,-4.082 -31.472,-7.521 -35.028,-4.246 -2.029,1.867 5.524,70.515 6.179,103.871 1.172,59.673 59.363,71.134 105.689,61.554 z m -142.695,-209.548 c -3.679,-16.485 -4.438,-87.571 -1.477,-138.196 l 3.252,-55.586 -7.17,6.08 c -20.483,17.37 -92.064,92.748 -97.875,103.065 -3.69,6.555 -6.885,16.086 -7.093,21.177 -0.761,18.471 13.711,39.698 35.536,52.119 7.985,4.544 53.399,16.321 66.537,17.255 8.761,0.622 9.612,0.02 8.29,-5.914 z m 144.393,-91.684 c -1.537,-10.772 -4.307,-24.231 -6.153,-29.907 -1.849,-5.676 -4.318,-21.709 -5.489,-35.626 -1.172,-13.918 -4.284,-34.992 -6.917,-46.834 -2.633,-11.84 -4.69,-24.638 -4.57,-28.441 0.215,-6.736 -0.24,-6.881 -17.488,-5.644 -22.889,1.638 -22.929,1.659 -34.754,16.378 -15.693,19.541 -15.712,19.486 7.589,21.238 19.64,1.476 28.515,4.999 28.26,11.222 -0.06,1.524 -5.644,9.856 -12.401,18.516 -15.488,19.851 -15.77,24.435 -1.8,29.255 17.043,5.88 33.036,22.908 43.624,46.445 5.207,11.577 9.485,23.166 9.506,25.751 0.02,3.261 0.551,3.558 1.712,0.967 0.923,-2.052 0.418,-12.546 -1.119,-23.32 z m 12.504,-90.431 c 0.189,-4.1 3.336,-17.063 6.982,-28.804 3.645,-11.743 6.7,-22.33 6.786,-23.526 0.08,-1.197 -7.03,-2.471 -15.816,-2.833 -19.049,-0.784 -19.099,-0.62 -10.025,32.426 3.459,12.605 6.166,26.464 6.012,30.796 -0.223,6.153 0.377,6.95 2.715,3.638 1.647,-2.332 3.153,-7.596 3.346,-11.697 z m -77.907,-103.006 c -22.258,-9.335 -40.935,-31.692 -58.234,-69.71 -7.089,-15.577 -19.997,-61.582 -19.648,-70.034 0.334,-8.126 -4.183,-5.764 -7.562,3.956 -4.526,13.013 -12.013,16.498 -19.045,8.862 -4.402,-4.78 -5.457,-10.3 -5.119,-26.773 0.236,-11.413 1.382,-22.161 2.545,-23.882 3.718,-5.497 13.11,-2.918 17.772,4.879 2.484,4.152 5.352,6.774 6.374,5.826 1.022,-0.947 2.64,-20.666 3.592,-43.816 1.992,-48.392 2.461,-49.244 30.979,-56.459 27.573,-6.973 100.182,-14.748 127.317,-13.632 41.501,1.71 54.539,10.972 59.729,42.428 1.658,10.038 -2.764,12.566 0.899,15.952 5.756,5.318 6.677,11.932 1.46,15.646 -3.878,2.761 1.62,6.727 1.965,14.233 0.61,13.206 4.81,13.873 9.384,1.489 2.933,-7.943 4.914,-9.424 12.216,-9.123 7.36,0.303 9.186,1.958 11.76,10.666 8.973,30.348 -3.005,50.861 -19.735,33.795 -11.492,-11.722 -15.278,-3.55 -10.397,22.437 2.204,11.724 4.223,15.034 10.902,17.873 10.761,4.578 10.538,14.141 -0.452,19.264 -7.146,3.333 -8.34,5.726 -9.636,19.316 -3.074,32.268 -24.742,58.223 -61.474,73.644 -25.001,8.554 -60.801,13.081 -85.592,3.163 z m 76.17,-33.126 c 23.564,-9.865 36.157,-21.897 42.613,-40.71 6.332,-18.454 6.393,-18.084 -3.405,-20.662 -16.763,-4.412 -17.898,-17.736 -1.754,-20.592 7.325,-1.296 8.545,-2.625 7.228,-7.88 -0.87,-3.478 -3.089,-23.076 -4.931,-43.555 -3.291,-36.596 -3.474,-37.236 -10.694,-37.515 -5.19,-0.211 -8.986,2.338 -12.931,8.651 -5.729,9.163 -9.693,8.316 -11.171,-2.389 -0.625,-4.532 -3.094,-5.945 -10.934,-6.269 -9.446,-0.389 -10.218,0.259 -11.505,9.685 -2.372,17.356 -13.381,16.784 -16.502,-0.856 -1.256,-7.108 -2.982,-8.65 -10,-8.94 -7.409,-0.305 -8.528,0.711 -8.828,8.01 -0.656,15.937 -12.078,17.333 -17.163,2.099 -2.288,-6.854 -3.667,-7.543 -12.285,-6.147 -7.828,1.266 -10.065,3.218 -11.544,10.071 -2.412,11.169 -10.948,12.536 -15.068,2.414 -2.424,-5.962 -5.194,-7.694 -12.792,-8.008 -8.134,-0.334 -9.737,0.656 -9.93,6.137 -0.488,13.957 0.761,19.519 12.999,17.987 13.799,-1.728 14.104,18.254 0.483,18.157 -9.679,-0.07 -9.762,2.938 -8.509,13.56 0.719,6.109 4.456,20.033 8.303,30.941 15.259,43.277 35.595,73.899 53.742,80.929 15.654,6.063 43.062,3.891 64.578,-5.118 z m -45.98,-11.03 c -12.155,-3.275 -20.825,-8.862 -24.026,-15.483 -3.519,-7.278 -3.007,-19.44 1.104,-26.424 8.563,-14.527 39.235,-17.547 55.645,-5.478 18.58,13.665 27.591,38.19 17,46.268 -14.134,3.199 -35.849,4.499 -49.723,1.117 z m 34.128,-16.313 c 0.168,-4.366 -5.434,-15.626 -9.136,-18.324 -5.169,-3.766 -23.412,-3.449 -29.322,0.509 -6.811,4.564 -4.78,12.412 4.265,16.483 9.161,4.127 34.039,5.096 34.193,1.338 z m -8.85,-71.649 c -2.021,-2.648 -2.475,-8.479 -1.161,-14.898 4.467,-21.806 14.212,-18.611 13.35,4.377 -0.488,13.026 -6.393,18.121 -12.189,10.521 z m 32.944,-3.537 c -6.255,-8.282 -4.465,-19.821 3.026,-19.514 3.712,0.147 6.292,2.837 7.274,7.567 2.675,12.88 -3.865,20.466 -10.3,11.947 z m -135.372,-68.993 c 7.783,-2.36 8.881,-3.989 8.986,-13.354 0.169,-14.363 8.292,-16 14.399,-2.896 4.042,8.673 5.165,9.255 15.098,7.811 13.741,-1.996 15.196,-2.911 15.476,-9.735 0.279,-6.789 4.843,-7.207 8.117,-0.742 1.668,3.289 5.701,4.527 13.676,4.199 9.207,-0.38 11.672,-1.766 13.249,-7.444 2.708,-9.758 8.477,-10.44 12.138,-1.437 2.78,6.833 4.282,7.474 15.051,6.425 17.445,-1.704 18.736,-2.307 20.078,-9.398 1.907,-10.09 8.43,-9.775 10.045,0.485 0.985,6.242 3.109,9.106 6.871,9.262 4.599,0.189 5.539,-2.036 6.044,-14.298 l 0.597,-14.521 -25.124,-1.035 c -13.819,-0.57 -42.327,0.21 -63.349,1.724 -21.023,1.517 -48.705,3.323 -61.516,4.013 -19.842,1.068 -23.488,2.088 -24.613,6.889 -1.201,5.119 3.179,36.626 5.103,36.706 0.446,0.02 4.799,-1.176 9.674,-2.654 z" fill="#00B894" transform="translate(-111.29588,-53.89039) matrix(0.26458333,0,0,0.26458333,-6152.124,-6714.6593)"/>
</svg>