<?xml version="1.0" ?><svg height="204.25534mm" viewBox="0 0 164.08318 204.25534" width="164.08318mm" xmlns="http://www.w3.org/2000/svg">
    <path d="m 45559.113,11030.77 c -5.073,0.05 -9.44,0.313 -12.801,0.839 -26.885,4.208 -106.888,57.042 -87.925,156.162 18.962,99.119 74.749,138.733 154.365,156.032 0,0 44.606,9.127 97.857,-7.471 53.25,-16.598 85.072,-83.808 88.319,-108.471 3.247,-24.663 -13.248,-67.673 -13.248,-67.673 0,0 -21.69,28.868 -40.133,45 -18.443,16.129 -43.899,22.673 -81.953,5.257 -38.055,-17.416 -36.626,-80.649 -32.99,-105.429 3.637,-24.779 34.029,-64.871 34.029,-64.871 0,0 -70.008,-9.756 -105.52,-9.375 z m 146.168,25.089 c -0.601,-0.03 -1.186,0 -1.754,0.07 -9.075,1.214 -18.027,19.974 -21.951,30.017 -3.924,10.044 0.613,19.094 0.613,19.094 0,0 -12.506,16.114 -48.56,51.762 10.125,50.986 56.879,68.886 88.172,52.863 0,0 34.458,-109.701 35.929,-125.373 1.472,-15.672 -7.234,-17.218 -19.375,-16.887 -11.381,0.311 -24.056,-11.115 -33.074,-11.545 z m -54.527,364.125 c -30.227,-0.398 -62.391,4.221 -91.293,13.657 -51.383,16.776 -68.184,60.035 -70.514,104.732 0,0 80.2,32.671 153.043,52.647 72.843,19.976 178.555,13.682 175.979,-4.749 -2.575,-18.43 -19.87,-64.449 -26.983,-86.632 -7.112,-22.183 -32.864,-54.744 -75.662,-69.532 -18.724,-6.47 -41.06,-9.813 -64.57,-10.123 z" fill="#FFFFFF" paint-order="markers stroke fill" transform="translate(7.6879017,-77.972399) matrix(0.26458333,0,0,0.26458333,-12009.229,-2787.8228)"/>
    <path d="m 45714.435,10831.408 c -1.567,-0.09 -3.08,-0.07 -4.543,0.05 -14.212,1.163 -13.027,6.723 3.047,14.324 7.49,3.541 10.967,5.878 7.725,5.192 -3.24,-0.687 -13.339,-1.878 -22.443,-2.645 -13.531,-1.139 -17.128,-0.7 -19.709,2.41 -3.99,4.808 -1.783,10.938 3.937,10.938 2.399,0 10.123,1.755 17.164,3.902 l 12.803,3.903 -19.824,5.007 c -20.642,5.215 -27.565,10.288 -21.828,15.996 2.087,2.073 7.909,2.683 18.802,1.95 27.833,-1.874 51.003,-1.245 55.783,1.511 4.2,2.424 3.351,3.255 -8.808,8.633 -24.346,10.766 -37.09,23.774 -37.09,37.852 0,3.257 2.155,11.68 4.789,18.719 3.589,9.594 6.479,13.496 11.545,15.595 5.641,2.337 7.024,4.618 8.367,13.809 0.886,6.054 4.184,17.374 7.328,25.152 l 5.723,14.143 -4.145,17.084 c -4.195,17.295 -6.908,20.164 -12.597,13.31 -7.789,-9.383 -22.741,-8.552 -28.155,1.565 -3.702,6.913 -0.09,10.131 7.95,7.072 6.317,-2.4 7.761,-2.07 26.658,6.082 4.086,1.762 8.593,3.205 10.017,3.205 4.126,0 3.322,1.509 -10.382,19.496 -7.134,9.364 -14.645,20.552 -16.688,24.858 -3.644,7.676 -3.188,14.572 0.963,14.572 1.151,0 9.802,-10.121 19.225,-22.492 9.42,-12.371 17.657,-21.964 18.306,-21.317 2.478,2.48 -21.114,66.103 -25.705,69.319 -4.175,2.923 -4.282,3.649 -1.07,7.199 3.202,3.535 3.056,5.651 -1.389,20.383 -2.727,9.042 -6.348,18.473 -8.045,20.959 -2.931,4.292 -3.214,4.174 -5.689,-2.358 -3.957,-10.442 -11.688,-17.482 -19.201,-17.482 -8.372,0 -8.753,5.158 -0.768,10.39 3.24,2.123 5.893,5.979 5.893,8.567 0,3.932 -1.068,4.453 -6.483,3.178 -14.232,-3.351 -31.226,-17.956 -39.49,-33.94 -3.38,-6.534 -3.28,-7.719 1.408,-16.908 2.774,-5.436 10.136,-16.528 16.36,-24.649 10.86,-14.169 15.72,-23.549 13.404,-25.865 -3.023,-3.023 -14.765,6.252 -26.395,20.848 l -13.015,16.338 v -17.444 c 0,-28.305 12.361,-60.886 29.25,-77.097 4.655,-4.467 8.461,-9.524 8.461,-11.235 0,-1.711 -3.976,-4.917 -8.838,-7.127 -4.861,-2.209 -9.179,-4.21 -9.592,-4.447 -0.416,-0.237 1.505,-4.857 4.264,-10.267 6.44,-12.623 5.606,-20.082 -2.246,-20.082 -4.575,0 -7.372,2.749 -13.176,12.962 -4.541,7.99 -8.643,12.611 -10.692,12.047 -1.83,-0.504 -15.523,-1.666 -30.431,-2.582 -14.907,-0.917 -30.09,-2.891 -33.74,-4.386 -15.772,-6.467 -55.614,-0.793 -80.018,11.394 -17.172,8.577 -49.429,35.87 -61.725,52.227 -29.983,39.886 -42.695,87.537 -34.484,129.271 3.127,15.899 3.385,15.126 -13.285,39.932 -13.895,20.679 -20.145,38.056 -21.34,59.324 -0.977,17.415 -0.794,18.161 6.521,26.492 7.435,8.47 24.384,15.694 36.815,15.694 5.404,0 9.625,7.219 6.848,11.711 -0.788,1.278 -0.289,6.582 1.113,11.789 2.975,11.046 10.748,16.109 27.84,18.132 10.059,1.188 29.257,-3.578 47.697,-11.845 2.658,-1.191 4.4,0.508 6.512,6.347 1.586,4.386 5.008,9.895 7.603,12.244 6.9,6.246 28.036,7.444 41.381,2.348 6.896,-2.627 13.347,-3.527 18.205,-2.519 18.019,3.735 24.415,3.805 32.576,0.361 12.175,-5.137 22.342,-14.35 31.315,-28.379 l 7.781,-12.162 19.781,-0.223 c 45.363,-0.509 87.764,-17.434 116.418,-46.472 17.031,-17.262 29.718,-36.283 35.879,-53.799 8.78,-24.961 5.025,-77.555 -7.078,-99.115 -5.817,-10.365 -15.335,-14.226 -19.252,-7.813 -11.792,19.309 -26.028,37.035 -35.596,44.318 -6.312,4.805 -11.671,8.518 -11.912,8.25 -0.238,-0.267 1.31,-8.581 3.442,-18.474 3.859,-17.914 3.942,-18.041 19.613,-30.643 8.655,-6.96 24.24,-20.284 34.637,-29.613 18.211,-16.345 19.181,-16.878 26.689,-14.654 4.283,1.269 15.448,1.621 24.807,0.781 14.185,-1.272 17.263,-2.309 18.508,-6.234 2.618,-8.246 -3.34,-11.398 -17.36,-9.182 -6.829,1.079 -12.889,1.197 -13.467,0.262 -1.384,-2.241 5.334,-7.963 14.159,-12.057 8.673,-4.025 10.602,-12.419 3.701,-16.111 -4.137,-2.215 -6.319,-1.218 -15.139,6.91 -5.667,5.225 -10.868,9.498 -11.555,9.498 -3.916,0 -3.361,-8.28 0.944,-14.102 5.252,-7.104 4.66,-13.315 -1.498,-15.679 -6.371,-2.445 -10.404,3.866 -14.424,22.576 l -3.924,18.254 -25.603,22.779 c -14.084,12.528 -25.577,21.974 -25.557,20.992 0.03,-0.983 3.729,-12.394 8.228,-25.357 12.695,-36.583 10.285,-50.676 -8.664,-50.676 -7.764,0 -9.275,-0.701 -8.103,-3.754 0.792,-2.067 2.059,-6.575 2.818,-10.018 4.147,-18.811 6.049,-21.757 18.666,-28.877 16.152,-9.115 30.024,-25.64 29,-34.542 -0.59,-5.12 -1.967,-6.485 -6.558,-6.485 -4.92,0 -6.303,1.72 -8.979,11.195 -3.429,12.15 -4.429,12.857 -11.182,7.92 -3.847,-2.815 -4.085,-4.148 -1.679,-9.427 1.541,-3.383 3.785,-6.153 4.986,-6.153 1.202,0 6.794,-3.803 12.426,-8.451 12.472,-10.293 23.165,-27.792 23.185,-37.961 0.01,-4.136 1.254,-8.284 2.764,-9.217 4.389,-2.713 65.351,62.309 94.139,100.413 41.605,55.066 58.703,97.003 58.633,143.781 -0.07,42.974 -11.017,72.438 -47.104,126.74 -40.949,61.621 -80.733,95.945 -136.697,117.943 -25.955,10.204 -35.212,11.248 -46.893,5.289 -31.9,-16.274 -96.429,-20.355 -139.877,-8.847 -32.511,8.609 -52.516,19.808 -71.871,40.238 -24.957,26.343 -38.132,58.654 -32.717,80.231 2.477,9.866 10.321,8.096 12.137,-2.737 2.736,-16.326 8.383,-30.841 17.358,-44.635 26.325,-40.464 64.918,-57.899 128.691,-58.144 51.691,-0.198 80.987,9.415 110.154,36.142 26.377,24.169 39.879,49.745 51.002,96.614 3.719,15.673 8.655,30.586 10.969,33.142 5.02,5.548 13.521,6.045 17.678,1.035 2.438,-2.938 2.283,-6.118 -0.83,-17.087 -2.103,-7.412 -6.008,-22.337 -8.678,-33.164 -8.667,-35.154 -24.824,-67.177 -42.383,-83.999 -3.903,-3.741 -7.098,-7.675 -7.098,-8.746 0,-1.069 5.663,-4.449 12.584,-7.509 21.318,-9.43 65.251,-40.158 88.627,-61.987 30.77,-28.737 55.181,-62.327 78.119,-107.494 23.438,-46.149 28.22,-63.264 28.459,-101.848 0.211,-34.073 -6.562,-63.112 -22.541,-96.636 -9.746,-20.446 -37.524,-61.438 -59.904,-88.391 -23.581,-28.401 -126.779,-130.394 -141.844,-140.185 -17.033,-11.076 -30.615,-16.759 -41.584,-17.364 z m 54.829,82.123 c 8.24,0 6.764,20.708 -2.618,36.715 -3.481,5.94 -8.517,10.876 -12.525,12.272 -6.251,2.18 -6.852,1.838 -8.885,-5.053 -2.694,-9.131 -9.064,-10.681 -16.23,-3.949 -4.761,4.472 -5.552,4.613 -6.862,1.201 -2.998,-7.817 -1.386,-16.88 3.887,-21.834 5.39,-5.063 37.309,-19.352 43.233,-19.352 z m -27.903,66.543 c 2.137,0.711 4.352,4.481 4.666,10.653 0.193,3.767 -1.051,5.302 -4.297,5.302 -3.649,0 -4.564,-1.66 -4.564,-8.25 0,-6.066 2.058,-8.415 4.195,-7.705 z m 1.108,23.485 c 0.415,-0.157 1.07,0.258 2.033,1.22 1.443,1.443 2.214,3.842 1.717,5.332 -1.172,3.514 -4.34,0.346 -4.34,-4.339 0,-1.327 0.174,-2.056 0.59,-2.213 z m -144.532,32.773 c 30.866,0.322 34.54,1.535 33.573,11.07 -0.64,6.294 0.04,7.551 4.07,7.551 2.66,0 6.574,-2.649 8.699,-5.89 3.657,-5.584 10.159,-7.693 13.477,-4.375 0.836,0.834 -1.648,5.122 -5.518,9.529 -8.176,9.313 -20.131,32.15 -24.961,47.676 -8.945,28.753 -5.909,65.741 7.229,88.158 11.485,19.598 36.531,39.235 50.187,39.359 9.151,0.08 10.786,3.484 9.481,19.739 -1.087,13.55 -2.185,16.413 -8.59,22.396 -4.039,3.774 -7.346,8.079 -7.346,9.566 0,1.487 -2.122,7.094 -4.713,12.461 -6.145,12.716 -6.035,16.463 0.449,15.518 3.551,-0.518 5.772,-3.111 7.108,-8.299 2.242,-8.693 4.605,-10.746 10.008,-8.672 3.1,1.19 3.549,3.481 2.306,11.766 -1.256,8.38 -0.808,10.572 2.414,11.807 6.173,2.369 9.289,-2.794 8.69,-14.399 -0.608,-11.724 2.166,-13.837 6.287,-4.789 1.74,3.815 3.916,5.366 6.271,4.463 5.862,-2.251 4.17,-8.356 -4.89,-17.633 -8.49,-8.696 -8.495,-8.708 -5.893,-20.84 1.432,-6.676 2.606,-16.329 2.606,-21.451 0,-7.354 0.88,-9.31 4.191,-9.31 2.305,0 11.673,-3.587 20.82,-7.969 18.142,-8.696 38.108,-26.712 45.444,-41.01 12.626,-21.179 12.677,28.295 12.693,36.129 0.03,14.444 -1.571,30.459 -7.078,41.672 -20.009,40.745 -54.438,69.051 -98.852,78.463 -8.86,1.877 -26.716,3.303 -39.681,3.179 -23.936,-0.237 -27.494,-0.639 -40.069,-4.545 l -7.072,-2.199 -0.326,-20.629 c -2.342,-42.614 -66.951,-97.348 -94.311,-146.642 -8.968,-17.029 3.136,-44.766 -6.634,-89.117 -3.451,-19.84 66.727,-43.077 99.931,-42.733 z m 111.354,37.75 c -1.234,0.227 -2.42,0.797 -3.389,1.766 -1.734,1.732 -1.548,3.601 0.621,6.213 4.103,4.943 10.606,3.497 10.606,-2.358 0,-3.904 -4.136,-6.302 -7.838,-5.621 z m -24.301,2.274 c -2.928,0.474 -6.68,2.11 -9.971,4.699 -7.028,5.528 -7.931,12.819 -2.539,20.515 2.017,2.882 5.339,5.239 7.379,5.239 2.903,0 3.427,-1.743 2.41,-8.006 -0.96,-5.917 -0.117,-9.275 3.227,-12.865 2.491,-2.673 4.527,-5.964 4.527,-7.315 0,-2.055 -2.105,-2.742 -5.033,-2.267 z m 14.375,7.32 c -4.031,0.775 -5.924,6.724 -2.025,9.189 4.671,2.956 8.006,1.333 8.006,-3.896 0,-2.468 -1.86,-4.845 -4.133,-5.283 -0.653,-0.126 -1.272,-0.121 -1.848,-0.01 z m -123.435,10.244 c -3.214,0 -6.167,1.055 -8.006,3.272 -2.708,3.263 -0.766,12.116 4.121,15.689 16.495,12.057 25.258,-4.572 15.758,-14.072 -2.827,-2.827 -6.746,-4.497 -10.483,-4.828 -0.467,-0.04 -0.931,-0.06 -1.39,-0.06 z m -15.774,33.314 c -5.664,0.02 -10.199,2.612 -10.808,6.87 -0.518,3.62 4.011,10.342 8.691,12.879 8.011,4.342 14.099,2.521 17.267,-1.741 4.024,-5.413 -0.42,-13.856 -7.582,-16.58 -2.175,-0.827 -4.356,-1.278 -6.419,-1.396 -0.387,-0.02 -0.771,-0.03 -1.149,-0.03 z" fill="#00B894" transform="translate(7.6879017,-77.972399) matrix(0.26458333,0,0,0.26458333,-12009.229,-2787.8228)"/>
</svg>