<?xml version="1.0" ?><svg height="140.75676mm" viewBox="0 0 255.01268 140.75676" width="255.01268mm" xmlns="http://www.w3.org/2000/svg">
    <path d="m 24117.757,-4739.2923 c -6.593,-0.094 -13.533,0.2614 -20.828,1.1231 -77.81,9.1916 -100.872,67.0889 -101.699,138.3418 -0.826,71.2529 47.157,70.4111 85.693,87.7519 0.175,0.3528 68.865,-5.1659 94.17,-31.3262 27.28,-28.202 46.078,-86.0801 41.656,-120.7617 -4.007,-31.4301 -35.255,-74.2227 -98.992,-75.1289 z m -403.674,183.4082 c -15.13,-0.5151 -26.763,35.3554 -31.492,57.334 -4.881,22.6876 -22.734,34.543 -22.734,34.543 0,0 -31.964,-60.4795 -33.903,-67.0391 -1.939,-6.5595 -18.457,-5.5971 -17.922,3.1289 0.535,8.7259 46.409,86.2969 46.409,86.2969 0,0 -1.325,4.7933 -7.692,14.0215 -14.243,20.6414 -8.691,28.2247 2.276,42.3066 10.638,13.6606 11.968,21.0625 11.968,21.0625 0,0 1.671,46.9395 3.543,65.1738 1.872,18.2343 4.682,30.9938 20.061,32.8594 20.395,-7.402 12.706,-52.116 6.287,-73.6601 -6.419,-21.5442 1.204,-27.261 11.836,-31.293 10.632,-4.032 16.516,-46.6997 13.039,-54.7637 -3.477,-8.064 -29.623,-8.4844 -29.623,-8.4844 0,0 -0.134,-3.2503 2.273,-14.5039 2.407,-11.2535 32.965,-62.8874 38.381,-79.6172 5.417,-16.7299 4.615,-24.1922 -11.232,-27.2011 -0.495,-0.094 -0.987,-0.1475 -1.475,-0.1641 z m 605.266,3.7402 c -10.348,-0.016 -16.329,12.1161 -26.242,7.8243 -12.689,-5.4936 -40.136,-5.7972 -53.979,7.4394 -17.64,24.1372 3.509,44.0353 10.238,47.2363 6.729,3.201 19.611,3.5909 32.252,13.7129 12.641,10.1221 40.133,-5.2343 40.133,-5.2343 0,0 43.789,-5.1904 51.287,-17.086 7.498,-11.8956 -26.581,-38.8017 -43.789,-50.3945 -3.764,-2.5359 -7.003,-3.4937 -9.9,-3.4981 z m -203.287,93.7442 c -4.311,0.01 -7.894,0.1473 -10.5,0.4316 -20.848,2.2742 -57.279,16.2968 -54.541,36.8594 2.737,20.5626 32.325,101.5815 54.963,129.5352 27.271,17.0565 141.931,6.5382 204.369,-2.5586 0,0 32.114,-6.5381 29.06,-21.1309 -3.053,-14.5928 -20.953,-41.8836 -33.693,-57.0449 -12.74,-15.1613 -59.701,-61.9715 -77.811,-71.4473 -15.846,-8.2913 -81.672,-14.6964 -111.847,-14.6445 z" fill="#FFFFFF" transform="translate(65.315684,-47.225685) matrix(0.26458333,0,0,0.26458333,-6306.5722,1313.8157)"/>
    <path d="m 24209.16,-4787.1015 c -5.602,0.1221 -11.06,1.345 -16.084,3.9101 -26.791,13.6807 -24.982,31.832 -24.982,31.832 0,0 -32.361,-11.6507 -61.861,-7.7226 -29.5,3.9282 -82.027,15.0362 -101.594,71.3847 0,0 0.263,-0.029 0.291,-0.029 -3.716,6.4716 -6.96,13.3494 -9.449,20.7851 -4.282,7.589 -8.047,19.4382 -11.274,20.2481 -7.589,1.9048 -9.992,8.2255 -5.127,13.4902 3.587,3.8809 3.828,-1.3306 2.838,15.4648 0.88,9.8645 1.311,17.9102 1.311,17.9102 -17.361,4.453 -21.763,26.0636 -4.59,22.498 6.901,-1.5562 7.482,-3.845 9.439,2.709 1.207,4.0415 21.194,39.9541 25.252,42.3535 1.742,1.0297 5.717,4.4155 8.836,7.5235 15.747,15.4782 48.126,20.5561 71.514,20.705 12.899,0.082 25.594,-2.0532 44.807,-8.707 18.863,-8.0216 20.224,-10.6903 15.869,-14.8457 -3.266,-3.1156 -9.488,-3.0511 -24.324,1.0742 -30.846,8.1889 -67.729,10.3762 -93.456,-10.9453 -9.659,-8.0047 -28.327,-37.5414 -28.519,-45.1621 12.683,2.8751 19.411,-19.9996 -2.912,-20.4375 0,0 -1.256,-7.6769 -0.992,-10.2402 1.094,-10.619 -1.304,-16.6551 3.769,-16.2285 5.37,1.6247 12.127,2.3007 14.479,2.7011 17.135,2.9174 6.255,-15.3286 -4.399,-16.1445 -11.775,-0.6586 -6.57,-27.5718 20.645,-54.5293 0,-0.01 0.01,-0.011 0.02,-0.018 54.301,-44.7156 108.899,-21.3714 139.66,24.9942 22.048,25.2062 39.275,39.1225 24.866,69.8359 -8.097,14.1608 -24.842,34.0598 -18.787,40.6191 2.622,3.3127 4.021,3.5756 8.402,1.9102 7.587,-2.8849 25.512,-26.8628 31.162,-37.8477 9.323,-20.5448 10.497,-45.4449 3.492,-68.9316 13.274,12.6598 43.333,40.0745 61.791,45.752 23.78,7.3144 21.674,-1.491 1.205,-35.2188 -20.47,-33.7278 -16.105,-64.2047 -23.781,-90.0762 -6.237,-21.0206 -33.239,-41.1468 -57.516,-40.6171 z m -106.087,110.8437 c -3.889,0 -26.634,11.1478 -30.641,15.0176 -3.809,3.6789 0.512,11.9616 6.687,11.2969 4.259,-0.4586 5.587,0.6533 7.721,6.4668 2.058,5.5564 7.611,12.9359 14.317,8.8515 8.537,-3.0258 4.201,-12.1183 3.175,-17.4844 -0.7,-3.6607 0.132,-6.8696 2.44,-9.4199 3.988,-4.4069 1.252,-14.7285 -3.699,-14.7285 z m 60.056,71.2578 c -7.643,0.2687 -24.063,7.2288 -36.527,15.6406 -4.945,3.3377 -9.42,6.0684 -9.94,6.0684 -7.473,2.1171 -47.947,31.6652 -41.144,43.5801 3.626,7.958 10.67,5.8001 24.4,-7.4688 11.105,-10.7329 14.274,-14.8604 17.957,-11.4629 5.574,5.1409 19.488,11.467 26.494,11.42 9.69,-0.065 22.356,-6.6003 27.657,-14.2676 11.59,-12.9456 2.541,-40.6966 -7.489,-43.4707 -0.428,-0.043 -0.898,-0.056 -1.408,-0.037 z m -5.638,13.9121 c 0,0 12.338,17.8057 0.376,25.2539 -8.527,5.3093 -15.612,5.5379 -23.57,0.3809 -6.117,-3.9645 -6.328,-4.4578 -3.008,-6.9766 1.965,-1.4904 12.82,-11.248 26.202,-18.6582 z m -444.807,20.7715 c -3.759,-0.1729 -8.001,2.2292 -13.473,9.8418 -2.92,4.5538 -5.082,9.3858 -4.806,10.7383 0.276,1.3524 -0.904,5.1758 -2.62,8.4941 -3.012,5.824 -3.483,5.9908 -13.617,4.836 -5.774,-0.6578 -18.548,-1.1061 -28.386,-0.9961 -15.264,0.1708 -18.265,-0.346 -20.483,-3.5118 -3.009,-4.2971 -15.04,-6.7864 -21.406,-4.4316 -2.564,0.9485 -5.788,0.7339 -7.795,-0.5195 -2.637,-1.6471 -4.414,-1.2438 -7.731,1.7578 -5.194,4.7004 -4.323,14.7187 2.243,25.8476 2.291,3.8818 3.563,8.0305 2.828,9.2188 -1.598,2.5867 4.177,12.0176 7.361,12.0176 1.232,0 3.495,1.5769 5.027,3.5078 6.788,8.5536 20.416,28.6528 28.184,41.5644 l 8.457,14.0586 -6.105,6.3008 c -16.224,16.7384 6.145,31.4381 47.369,31.1289 11.059,-0.082 11.715,0.1497 8.082,2.875 -6.44,4.7069 -22.788,3.5872 -30.694,1.625 -1.909,-0.2764 -7.291,-1.127 -11.96,-1.8906 -7.071,-1.156 -8.716,-0.791 -9.856,2.1777 -0.752,1.9603 -0.43,6.0461 0.715,9.0782 1.144,3.0321 1.403,6.6025 0.578,7.9375 -0.825,1.3349 -0.58,5.4236 0.543,9.082 2.008,6.2205 11.675,16.9922 30.643,12.914 4.285,-3.5555 6.39,2.4469 7.64,21.7618 0.665,10.2746 2.043,22.0122 3.061,26.082 4.857,19.4286 4.668,24.2602 -1.158,29.6602 -5.134,4.758 -5.647,4.8573 -8.059,1.5586 -2.768,-3.7862 -2.798,-4.2032 -2.75,-38.7481 0.02,-13.6244 -0.855,-24.0184 -2.149,-25.5781 -2.772,-3.3393 -12.65,-3.4154 -15.087,-0.1172 -1.019,1.3792 -1.641,17.2668 -1.381,35.3086 0.456,31.72 0.645,33.0529 5.707,40.3574 2.879,4.1549 7.228,8.5363 9.662,9.7363 7.733,3.812 15.003,0.6765 27.06,-11.6757 2.692,-2.7586 5.695,-7.1077 6.676,-9.6622 2.49,-6.482 2.228,-23.077 -0.472,-29.832 -1.241,-3.1062 -2.481,-9.2564 -2.756,-13.6699 -0.596,-9.5274 -2.87,-32.3327 -3.541,-35.5117 -0.261,-1.2315 3.136,-3.2257 7.55,-4.4297 15.336,-4.1834 17.656,-6.4948 16.532,-16.4727 -0.905,-8.0283 -0.355,-9.5142 5.781,-15.6504 5.722,-5.7219 6.779,-8.2085 6.779,-15.9375 0,-11.1146 2.297,-12.6838 19.057,-13.0175 85.469,-2.784 199.096,-6.312 250.633,-7.8633 28.179,2.3298 34.616,6.8947 35.629,13.5312 3.613,21.5897 18.064,52.1006 29.121,72.2793 23.924,48.7408 26.231,51.6519 39.966,50.3867 4.781,-0.4404 2.455,-9.3182 -5.578,-21.2968 -19.833,-29.5723 -44.076,-85.8688 -44.076,-102.3516 0,-13.3087 8.769,-20.995 29.092,-25.5098 5.536,-1.2297 29.809,-2.3011 54.168,-2.3867 45.376,-0.1596 45.6,-0.1291 66.203,8.8223 4.414,1.9176 10.299,4.0335 13.08,4.7012 8.948,2.1488 38.259,22.9924 49.809,35.4218 17.055,18.4162 51.289,59.8243 60.492,89.8731 0,5.962 8.94,11.2129 14.25,8.3711 3.672,-1.965 4.025,-3.4617 2.943,-12.3477 -5.924,-35.3877 -43.147,-80.1697 -72.492,-108.0664 l -5.892,-6.1719 6.019,1.2579 c 38.901,8.5043 78.741,25.4588 118.711,37.5898 69.921,20.747 97.829,26.7828 141.395,31.6914 14.115,-2.8362 17.151,-8.7939 14.609,-24.4941 -24.479,-69.1321 -145.456,-93.8633 -163.871,-114.7852 -6.512,-2.5708 -7.524,-3.8359 -7.524,-9.4043 -0.355,-17.407 -34.376,-50.6184 -47.146,-57.334 -9.095,-3.3719 -20.608,-3.5114 -24.481,-0.2969 -1.433,1.1889 -2.603,4.3063 -2.603,6.9297 0,5.969 -3.48,6.1023 -18.084,0.6934 -15.265,-5.6536 -32.29,-6.6346 -42.766,-2.4629 -20.42,8.1322 -30.651,37.4415 -18.588,53.2559 2.864,3.755 5.207,7.478 5.207,8.2773 0,0.7992 -6.992,0.9208 -15.544,0.2676 -48.584,-3.7109 -99.406,-4.9574 -257.293,-6.3086 -126.324,-1.0811 -231.601,-2.1382 -231.266,-6.3223 0.845,-10.5675 -3.085,-9.7712 47.602,-9.6406 76.737,0.1978 194.762,-2.4962 189.5,-7.7578 -1.582,-1.5828 -122.977,-2.992 -177.62,-3.3242 -37.808,-0.2297 -52.662,-0.9643 -52.662,-2.6016 0,-1.2543 0.898,-5.4233 2,-9.2656 2.46,-8.5774 -0.585,-19.3531 -5.953,-21.0567 -7.051,-2.3867 -11.975,-9.827 -18.24,-10.1152 z m 4.328,23.7539 c 2.324,-0.2112 4.084,2.3802 2.668,6.0684 -1.358,3.5406 -5.917,4.5094 -7.693,1.6347 -0.582,-0.9408 0.209,-3.4223 1.754,-5.5156 1.045,-1.4145 2.215,-2.0914 3.271,-2.1875 z m 550.645,6.5918 c 7.376,0.063 16.692,2.0133 16.634,8.4805 -0.04,4.3541 -1.829,6.7427 -7.994,10.666 -5.827,3.7087 -14.043,18.1345 -14.043,24.6582 0,5.9553 -4.015,5.6845 -10.191,-0.6895 -9.209,-10.2198 -15.544,-20.1166 -8.699,-30.5039 6.19,-8.9316 14.811,-12.6933 24.293,-12.6113 z m 48.878,11.4727 c 0.868,-0.072 2.468,0.017 4.588,0.2656 8.129,0.9756 19.887,8.6245 23.428,15.2402 3.131,5.8505 -1.814,3.0524 -7.652,-3.1621 -5.844,-6.1884 -14.102,-8.5444 -20.569,-11.6797 -0.802,-0.3645 -0.664,-0.5914 0.205,-0.664 z m -612.017,4.2148 c 3.413,-0.1324 10.297,1.8592 10.297,3.418 0,0.9748 -1.581,1.7583 -3.512,1.7422 -4.01,-0.036 -9.886,-3.2963 -8.467,-4.6993 0.291,-0.2878 0.894,-0.4305 1.682,-0.4609 z m -22.936,0.291 c 1.803,0.062 2.833,0.2743 2.649,0.6231 -0.367,0.6975 -3.324,7.1365 -6.567,14.3086 -3.242,7.1721 -7.761,16.5876 -10.041,20.9257 -5.026,9.56 -8.35,11.0445 -10.785,4.8145 -5.802,-14.8446 -14.851,-37.0057 -15.681,-38.4062 -0.532,-0.8976 4.314,-1.5029 10.767,-1.3438 6.453,0.1592 16.512,-0.1293 22.354,-0.6406 2.921,-0.2553 5.5,-0.3428 7.304,-0.2813 z m -60.056,6.9063 c 1.655,0 3.009,0.8076 3.009,1.7929 0,0.9854 -1.354,2.3083 -3.009,2.9434 -1.833,0.7035 -3.008,5e-4 -3.008,-1.7891 0,-1.6205 1.353,-2.9472 3.008,-2.9472 z m 685.55,7.1172 c 17.962,0.4265 23.91,9.5032 30.389,18.9433 8.27,12.0522 16.508,11.8353 20.695,11.7852 4.423,-0.5867 11.188,-1.9883 11.188,-1.9883 44.37,35.7047 122.632,40.745 158.414,99.2031 18.825,23.5928 -145.641,-32.4014 -222.373,-55.8476 -40.983,-16.7421 -110.046,-28.106 -161.945,-29.836 -39.617,-0.366 -64.496,2.3097 -74.493,8.0137 -36.977,6.348 -132.992,8.0812 -176.203,10.459 -8.276,0.4238 -128.582,6.684 -130.789,7.2168 -8.285,2.0006 -30.516,4.1333 -42.047,4.0332 -13.645,-0.1189 -19.142,3.1258 -19.142,11.3008 0,3.6577 -1.525,5.945 -5.029,7.541 l -5.028,2.293 1.053,-10.8497 c 1.352,-13.9204 4.793,-24.0092 13.715,-40.2343 1.821,-3.3102 2.701,-12.9389 7.785,-14.7539 l 4.475,-8.7364 9.07,1.5586 c 4.988,0.8567 156.778,1.7493 239.533,1.9824 164.795,0.4642 254.864,2.298 289.129,5.8868 10.424,1.0917 12.613,2.021 14.502,6.1679 1.224,2.6861 6.82,7.1879 8.691,7.8496 10.628,3.7573 16.84,3.0701 24.942,2.4786 29.287,-3.6008 39.902,-34.3716 12.689,-25.1407 -4.215,3.4484 -14.675,5.0106 -19.344,5.0528 -7.858,0.058 -12.929,-4.3599 -14.736,-6.5371 -4.061,-4.8928 7.036,-14.8681 19.033,-17.1094 2.239,-0.4183 4.123,-0.6783 5.826,-0.7324 z m -608.375,1.3144 c 1.282,-0.075 2.63,0.915 4.567,2.3828 3.286,2.4912 3.299,3.0674 0.174,9.459 -1.831,3.7444 -5.691,10.4222 -8.578,14.836 -5.88,9.0532 -11.891,19.6207 -14.186,30.5644 -0.02,1.946 -0.792,4.7368 -1.721,6.2012 -1.166,1.8402 -2.026,0.5788 -2.783,-4.084 -1.481,-9.9908 5.606,-25.9849 9.506,-37.1719 7.706,-16.7035 10.201,-22.0217 13.021,-22.1875 z m -71.64,3.9141 c 0.323,0.071 0.858,0.8462 1.732,2.3496 1.171,2.0137 1.745,4.0467 1.276,4.5156 -1.421,1.4218 -3.532,-1.6215 -3.467,-5 0.03,-1.3044 0.136,-1.9367 0.459,-1.8652 z m 45.658,69.748 c 0.347,0.048 0.736,0.2591 1.147,0.6699 0.65,0.6492 0.786,2.8324 0.308,4.8497 -0.831,3.5046 -0.938,3.5071 -2.43,0.07 -1.279,-2.9453 -0.527,-5.7991 0.975,-5.5899 z m 0.143,10.5196 c 0.823,0.1675 1.856,1.0994 3.511,2.875 3.851,4.1346 3.841,4.1523 -1.918,4.1523 -6.231,0 -6.749,-0.7195 -3.838,-5.3242 0.807,-1.2755 1.421,-1.8706 2.245,-1.7031 z" fill="#00B894" transform="translate(65.315684,-47.225685) matrix(0.26458333,0,0,0.26458333,-6306.5722,1313.8157)"/>
</svg>