<?xml version="1.0" ?><svg height="131.81255mm" viewBox="0 0 134.68513 131.81255" width="134.68513mm" xmlns="http://www.w3.org/2000/svg">
    <path d="m -934.7597,1132.3485 c -17.05139,-8.9046 -43.49208,-45.9109 -19.59098,-83.7927 27.02437,-42.832 61.75658,-34.9423 77.5394,-32.5613 18.09705,2.7302 64.17686,42.1566 36.11469,90.3228 -23.81263,40.8723 -70.74522,39.1507 -94.06311,26.0312 z" fill="#FFFFFF" transform="translate(68.994861,-38.601374) translate(897.08253,-972.99205)"/>
    <path d="m -913.14664,1142.9524 c -11.83698,-1.701 -22.28885,-6.8748 -33.62405,-16.6452 -12.71829,-10.9624 -19.43689,-27.1937 -19.30479,-46.6365 0.21121,-30.8965 20.74503,-55.7533 53.67602,-64.973 25.05996,-7.0156 43.08121,-2.3332 61.66204,16.0213 13.41904,13.2558 19.34516,27.4619 19.34516,46.3757 0,11.4388 -2.11626,19.9429 -7.53531,30.281 -7.96706,15.199 -19.5189,23.99 -42.51836,32.3568 -8.24754,3.0001 -22.88313,4.4868 -31.70071,3.2199 z m 6.83254,-8.7637 c 12.04024,-3.5758 30.75947,-19.1655 36.38884,-30.3056 7.39539,-14.6353 10.72113,-32.7005 8.48185,-46.0749 -2.3546,-14.0639 -9.41538,-28.9806 -13.24404,-27.9796 -1.87642,0.4906 -2.05545,1.8092 -1.98833,14.6239 0.0606,11.1946 -0.43201,15.9847 -2.39347,23.3465 -6.4737,24.2967 -19.37948,48.7077 -32.58012,61.6248 -6.39447,6.2569 -6.48002,6.4182 -3.39602,6.4182 1.73977,0 5.66899,-0.744 8.73129,-1.6533 z m 29.31734,-3.3977 c 8.20376,-3.2791 10.38753,-4.7711 16.50657,-11.2779 10.26666,-10.9169 13.97079,-19.0283 15.68987,-34.3558 1.22613,-10.9349 -0.13248,-19.9825 -4.37511,-29.1141 -2.90231,-6.247 -12.84307,-21.4208 -14.034,-21.4208 -0.26168,0 0.73848,2.3989 2.22415,5.3308 9.51758,18.7823 8.69936,44.5295 -2.09167,65.8252 -3.87319,7.6428 -13.83124,17.971 -23.77162,24.6553 -8.31101,5.5884 -8.40147,5.6988 -4.05186,4.9262 2.44696,-0.4344 8.70378,-2.4905 13.90367,-4.5689 z m -45.73226,0.2026 c 12.06901,-6.241 29.10721,-35.8859 36.4187,-62.446 2.90104,-10.5382 5.06021,-36.1499 3.04766,-36.1499 -1.49866,0 -13.80437,14.9348 -19.20928,23.3129 -5.79617,8.9846 -15.59941,29.0906 -19.54667,40.0886 -5.37677,14.9805 -7.78229,33.7447 -5.44813,36.0789 1.0023,1.0023 1.13882,0.9768 4.73772,-0.8845 z m -10.9023,-10.0059 c 0.1451,-12.1831 5.00034,-24.9732 14.33637,-44.6541 9.55858,-20.1501 17.15282,-31.7941 28.86552,-44.2594 4.56588,-4.8588 3.59537,-6.5655 -3.15642,-5.553 -24.74213,3.7111 -49.20705,28.338 -53.51339,53.8674 -1.86784,11.0737 -0.52052,20.3151 3.11889,31.2445 2.68037,8.0474 7.1554,15.392 9.37865,15.392 0.49396,0 0.93076,-2.7167 0.97038,-6.0374 z m -15.50293,-10.7375 c -4.43756,-12.5769 -4.2237,-25.1157 -0.26446,-39.394 5.88159,-21.2104 27.3849,-43.0776 48.20942,-49.0252 3.51752,-1.0044 6.39548,-2.2915 6.39548,-2.8596 0,-1.9385 -8.76649,-1.0391 -18.01734,1.8485 -24.34582,7.599 -39.6255,22.3234 -45.97493,44.3054 -4.12352,14.2749 -1.04886,33.4854 7.27628,46.0655 3.61745,5.4664 4.511,5.1126 2.37555,-0.9406 z m 107.86205,-13.2725 c 2.97523,-7.8064 4.04125,-24.0985 2.12421,-32.4621 -0.75362,-3.2883 -3.29672,-10.0279 -5.65107,-14.9764 -3.32486,-6.9889 -5.91628,-10.5278 -11.60622,-15.8504 -9.29842,-8.6984 -11.79837,-8.9403 -3.60319,-0.3483 10.89613,11.4235 16.57458,22.5403 18.51622,36.2498 1.21579,8.5868 -0.24906,22.9086 -3.23212,31.561 -2.82005,8.1842 0.0757,4.6813 3.45217,-4.1736 z m -31.29369,-73.4437 c 1.2978,-0.8204 0.71981,-1.4321 -2.70309,-2.8622 -5.02009,-2.0977 -15.07528,-3.9012 -15.07528,-2.7041 0,1.3842 3.13471,3.4973 7.49746,5.0539 4.98047,1.7774 8.03948,1.93 10.28091,0.5124 z" fill="#00B894" transform="translate(68.994861,-38.601374) translate(897.08253,-972.99205)"/>
</svg>