<?xml version="1.0" ?><svg height="151.29256mm" viewBox="0 0 187.91817 151.29256" width="187.91817mm" xmlns="http://www.w3.org/2000/svg">
    <path d="m 20439.127,2390.794 c 1.708,-28.8765 25.742,-43.9186 52.338,-47.6517 26.596,-3.7331 131.883,-10.6503 131.883,-10.6503 0,0 -57.218,-23.2769 -31.72,-80.8103 25.498,-57.5335 59.292,-36.8917 67.833,-33.9272 8.54,2.9645 47.092,43.0403 36.722,70.1601 -10.37,27.1197 -45.873,48.6399 -45.873,48.6399 l 44.897,40.1855 c 0,0 30.744,-54.6787 54.9,-75.7596 24.157,-21.081 58.561,-35.5741 73.933,-19.8732 15.372,15.7009 8.194,63.9195 -22.814,98.3778 -31.009,34.4582 -59.537,42.8206 -81.131,39.7463 -21.594,-3.0742 -30.866,3.8429 -30.866,3.8429 0,0 35.258,29.6452 45.14,55.7767 9.882,26.1316 18.91,91.1313 18.91,91.1313 0,0 35.869,-32.4998 90.525,-39.7464 54.657,-7.2466 148.842,0.3294 184.1,18.6654 35.258,18.3361 58.194,48.5301 58.194,48.5301 0,0 3.66,-13.8343 19.033,-14.4931 15.372,-0.6588 33.83,22.4955 9.028,26.0218 -24.803,3.5262 -33.063,-4.9409 -33.063,-4.9409 0,0 1.708,23.1671 -9.15,37.6603 -10.858,14.4931 -18.056,21.8495 -18.056,21.8495 0,0 34.648,7.2465 52.704,33.7075 18.057,26.461 24.096,47.7252 4.972,69.017 -19.124,21.2918 -64.264,-17.0832 -74.878,-32.2351 -10.614,-15.1519 -12.688,-61.2665 -12.688,-61.2665 0,0 -88.695,22.6181 -122.367,18.2262 -33.673,-4.3918 -88.939,-16.1401 -88.939,-16.1401 0,0 0.976,39.1974 -44.409,64.8898 -45.384,25.6924 -91.256,38.8681 -102.602,11.5287 -11.347,-27.3394 23.546,-61.5959 41.968,-72.1364 18.422,-10.5405 81.741,-20.0928 81.741,-20.0928 0,0 -18.423,-11.0894 -30.013,-21.9593 -11.59,-10.8699 -16.47,-33.8174 -16.47,-33.8174 0,0 -15.738,23.1671 -46.116,17.6773 -30.378,-5.4898 -53.681,-27.8883 -57.341,-82.8965 -3.66,-55.0081 14.762,-98.4876 14.762,-98.4876 0,0 -105.042,26.7904 -142.619,17.0185 -37.576,-9.7719 -71.004,-16.1401 -72.468,-65.7682 z" fill="#FFFFFF" transform="translate(52.8973,-12.457073) matrix(0.26458333,0,0,0.26458333,-5456.6321,-570.83383)"/>
    <path d="m 20675.716,2773.1546 c -47.741,-13.5585 -18.545,-61.2089 3.179,-81.2295 38.994,-33.0639 59.498,-35.0422 81.597,-39.2879 -15.882,-10.2265 -17.008,-22.5583 -23.165,-32.9924 -36.396,13.524 -55.997,16.4149 -80.675,-11.1063 -18.235,-18.4603 -28.402,-53.5201 -28.025,-96.6484 0.142,-16.3302 4.359,-41.8851 8.068,-48.9019 4.7,-8.8883 1.598,-10.4892 -13.457,-6.9462 -54.408,12.8952 -120.732,20.4219 -169.883,-10.2144 -12.904,-8.3361 -25.411,-27.1121 -28.602,-42.9359 -1.797,-8.9153 -1.628,-12.6173 1.004,-22.1089 15.483,-52.735 87.756,-54.1747 133.353,-54.7009 18.55,-0.1083 33.727,-0.546 33.727,-0.9746 0,-0.4286 -2.184,-3.3758 -4.855,-6.5496 -27.393,-33.7312 -3.061,-94.9717 31.383,-112.0584 49.286,-13.1643 104.162,43.387 85.344,92.2481 -5.245,13.3368 -11.901,21.6148 -22.864,28.4299 -5.062,3.1464 -9.203,6.277 -9.203,6.9569 8.449,2.9724 13.37,11.5834 19.13,20.9971 1.51,2.531 1.91,2.5313 3.564,0 1.025,-1.565 3.952,-5.4127 6.506,-8.5504 19.842,-24.3864 29.356,-36.337 33.034,-41.4992 28.215,-33.8703 70.677,-67.0501 101.479,-19.7865 4.912,7.6571 6.139,11.7741 6.839,22.955 1.361,21.74 -6.258,45.7208 -18.646,58.6828 -14.004,19.0284 -34.175,30.4457 -54.331,47.0102 -12.594,8.2719 -49.418,17.2812 -61.22,10.6934 -0.966,-0.5963 -2.225,0.1411 -2.799,1.6364 30.159,25.8225 54.734,81.3254 53.901,121.2914 -0.334,11.289 1.403,11.7007 11.99,2.8423 42.503,-36.2689 111.826,-38.4769 163.718,-32.8829 39.556,5.7343 81.161,10.7954 116.417,32.6761 11.677,5.8736 31.455,22.1218 32.74,33.708 0,1.6675 0.385,3.0317 0.855,3.0317 15.247,-35.8409 55.926,11.9187 41.451,25.1997 -14.483,13.288 -24.512,4.5641 -37.914,0.3469 6.273,27.3337 -21.893,50.0799 -15.914,51.3986 3.878,1.5379 11.746,5.2148 16.963,8.6778 13.724,9.1084 35.54,31.4706 41.179,59.7734 13.447,50.6091 -36.663,53.8781 -81.819,28.6331 -36.348,-20.3203 -36.733,-57.2048 -37.386,-74.0388 -49.985,16.0183 -135.435,24.6416 -182.979,1.858 -3.135,-1.6611 -6.206,-3.0254 -6.824,-3.0317 -0.619,0 -2.662,5.0687 -4.542,11.2784 -2.193,7.2431 -7.177,16.2228 -13.905,25.052 -36.643,38.3265 -88.803,62.3167 -128.413,51.0673 z m 28.277,-15.8384 c 15.293,-3.6177 28.92,-9.4494 43.703,-15.3094 20.091,-7.9537 40.357,-26.6499 49.128,-45.3244 4.804,-10.2264 4.948,-11.2707 2.261,-16.4679 -17.552,-24.3649 -73.782,-3.1822 -90.708,11.7214 -6.102,5.3631 -13.183,10.2338 -18.151,14.848 -10.237,9.5438 -16.744,21.2149 -18.683,33.5105 -1.488,13.7355 10.114,19.9385 19.66,19.0483 4.944,-0.4804 10.7,-1.3922 12.79,-2.0265 z m -8.275,-21.274 c -4.986,-4.1961 -5.582,-5.7124 -4.666,-11.8756 0.579,-3.8859 2.394,-8.1339 4.035,-9.4403 6.34,-5.0488 17.447,-0.907 13.723,5.1173 -0.986,1.596 -0.435,5.0904 1.414,8.9681 2.859,5.9947 2.821,6.5099 -0.65,9.1366 -5.147,3.8933 -7.319,3.5946 -13.856,-1.9061 z m 375.678,-56.8153 c -6.215,-3.0548 -11.589,-4.2056 -18.201,-3.8972 -12.914,0.6024 -16.877,3.1512 -18.303,11.7725 -3.571,21.6131 3.176,40.5586 16.486,50.4718 32.532,24.2304 45.109,19.9157 60.188,14.6794 21.962,-10.3389 -25.128,-64.9599 -40.17,-73.0265 z m -48.772,-18.9969 c 32.639,-10.4833 50.947,-26.3501 47.623,-61.5543 -0.866,-7.8317 -6.676,-15.7071 -18.007,-24.4096 -48.766,-28.0395 -112.117,-41.9282 -171.36,-37.4005 -34.138,2.609 -71.149,10.1569 -96.716,29.9716 -41.548,24.4585 -36.402,64.0973 7.914,83.9619 12.268,5.3817 16.401,7.3725 17.371,8.3661 75.46,27.6153 147.185,22.4919 213.175,1.0648 z m -186.838,-74.5271 c -10.188,-9.5332 -3.99,-23.6767 10.443,-26.3843 56.007,-19.5196 109.365,-2.1274 93.827,18.9256 -3.863,4.3197 -5.029,4.6047 -12.8,3.1279 -17.666,-3.3566 -60.172,1.9518 -67.501,3.7907 -13.64,3.4222 -19.179,5.0211 -23.969,0.5401 z m -124.731,26.6862 c 48.837,-6.7581 39.46,-124.842 -11.321,-167.9749 -48.322,-41.0444 -72.542,93.8608 -36.898,145.765 11.513,21.6667 34.122,24.8482 48.219,22.2099 z m -41.912,-32.9978 c -1.553,-8.1348 -5.089,-20.6331 4.991,-20.8883 5.388,0.063 7.518,8.6638 15.644,17.4394 48.794,42.8003 -8.366,35.2073 -20.635,3.4489 z m 442.766,14.9254 c 0.506,-1.5142 -2.237,-2.4932 -5.546,0.816 -2.961,2.9623 -2.967,3.2121 -0.07,3.2121 1.73,0 2.881,-0.4207 3.842,-1.3123 1.319,-1.2258 1.451,-1.7566 1.771,-2.7158 z m -460.911,-169.8918 c 11.852,-5.4446 21.121,-16.7731 25.355,-30.9907 4.516,-15.1651 3.698,-19.3298 -5.383,-27.3774 -28.385,-27.6227 -61.903,-21.914 -87.866,-21.6317 -51.072,0.5805 -70.534,3.4585 -97.346,11.5376 -13.401,4.0384 -36.282,7.177 -39.238,25.7887 -14.113,88.8351 141.569,69.5993 204.478,42.6735 z m -183.12,-18.1661 c -6.685,-2.5213 -8.545,-9.8426 -4.911,-19.3412 5.504,-14.3892 22.855,-26.1424 38.84,-26.3097 17.053,-2.4988 40.855,9.5993 38.429,21.1282 -2.203,10.4772 -53.908,28.533 -72.358,24.5227 z m 50.2,-31.0946 c -2.45,-6.385 -23.882,-1.4681 -32.897,7.5477 -6.399,6.5849 34.562,-3.0236 32.897,-7.5477 z m 217.256,34.9396 c 15.861,-2.5733 26.461,-7.3346 38.666,-17.3681 16.731,-14.1109 35.905,-28.9824 45.757,-48.1722 4.352,-8.8353 5.74,-14.6298 6.401,-26.7081 -13.344,-96.415 -108.363,21.6632 -119.364,63.2386 -2.074,12.9822 0.602,23.7494 7.125,28.6653 3.814,2.8741 5.642,2.9036 21.415,0.3445 z m 46.117,-81.3608 c 3.119,-6.0287 5.327,-5.6529 9.199,1.566 4.5,11.0902 5.403,1.962 9.151,-4.9573 6.884,-12.7082 6.453,-16.7991 -1.597,-15.189 -4.723,0.9447 -5.656,0.4174 -6.714,-3.7927 -0.674,-2.6896 -0.972,-5.0437 -0.659,-5.2312 4.098,-2.4628 12.267,-4.9047 16.332,-4.8818 12.857,0.073 15.777,10.5812 8.175,29.4226 -11.482,41.7278 -49.218,34.5858 -33.887,3.0634 z m -118.308,-9.2877 c 10.642,-4.8549 15.772,-10.2414 20.993,-22.0465 22.475,-74.4215 -80.504,-113.569 -88.908,-17.2359 -1.566,17.9524 15.223,41.1556 31.442,44.4503 10.127,1.6736 26.592,-0.6589 36.473,-5.167 z m -58.177,-47.6116 c 3.013,-14.2797 8.348,-20.5396 26.467,-27.6347 13.217,-5.1762 14.302,0.9723 14.545,13.8998 0.114,6.4612 -0.605,19.2366 -13.813,26.4152 -18.999,10.3264 -30.941,5.0564 -27.199,-12.6803 z m 19.174,-2.1228 c 4.313,-8.3391 3.515,-10.8357 -1.851,-5.7946 -4.7,4.4151 -6.477,11.4006 -2.898,11.4006 1.017,0 3.155,-2.5228 4.749,-5.606 z" fill="#00B894" transform="translate(52.8973,-12.457073) matrix(0.26458333,0,0,0.26458333,-5456.6321,-570.83383)"/>
</svg>