<?xml version="1.0" ?><svg height="117.13673mm" viewBox="0 0 138.43646 117.13673" width="138.43646mm" xmlns="http://www.w3.org/2000/svg">
    <path d="m 26795.377,3507.1055 c -26.481,-0.3869 -21.355,13.2209 -28.631,30.2558 -7.276,17.0349 -29.749,121.7153 -35.166,140.5957 -5.416,18.8804 -16.595,44.8796 -19.002,33.1953 -2.407,-11.6842 -76.779,-146.1672 -89.762,-165.125 -12.983,-18.9578 -25.708,-28.2427 -38.605,-19.1894 -12.897,9.0533 -18.4,15.4757 -16.68,45.9629 1.72,30.4872 54.683,91.9243 84.948,142.6074 30.265,50.6831 33.962,101.5217 26.052,158.8594 -7.91,57.3376 4.815,49.0586 24.848,53.3144 0,0 17.453,7.5042 35.767,5.1055 18.313,-2.3987 14.446,-40.3144 13.157,-81.0156 -1.29,-40.7012 8.855,-111.6566 20.549,-149.959 11.693,-38.3025 44.363,-113.5924 47.888,-142.6094 3.526,-29.017 1.119,-51.6111 -25.363,-51.998 z m 247.019,147.08 c -8.108,0.1746 -14.851,7.0785 -22.267,21.2969 -11.865,22.7493 -30.094,23.9081 -53.223,20.6582 -23.129,-3.25 -43.591,-11.4514 -56.488,2.0899 0,0 -8.683,28.7076 34.307,57.7246 42.99,29.017 79.445,6.5766 102.918,-15.2442 23.472,-21.8208 28.027,-67.3959 11.261,-79.6992 -6.287,-4.6137 -11.643,-6.9309 -16.508,-6.8262 z" fill="#FFFFFF" transform="translate(-47.987157,-23.156465) matrix(0.26458333,0,0,0.26458333,-6102.1321,-258.27057) translate(-3313.5291,-2437.8203)"/>
    <path d="m 23410.256,1505.2298 c -14.64,-5.6713 -44.754,-4.7384 -52.117,-21.1104 -3.476,-7.8579 -3.664,-10.3095 -1.829,-23.8354 4.259,-31.4017 4.764,-39.4609 4.844,-77.341 5.736,-66.945 -41.588,-127.1782 -76.508,-174.3466 -2.177,-2.786 -4.984,-7.3156 -6.237,-10.0655 -1.253,-2.7501 -4.346,-5.5191 -6.874,-6.1535 -3.389,-0.8505 -4.495,-2.373 -4.212,-5.797 0.429,-5.1764 -6.049,-18.5291 -9.145,-18.8499 -1.094,-0.1138 -4.31,-0.057 -7.147,0.127 -2.837,0.1828 -5.58,-0.3811 -6.095,-1.2531 -1.648,-2.7872 2.262,-10.3417 5.353,-10.3417 3.694,0 3.702,-0.8024 0.09,-8.4618 -4.212,-8.9274 -6.613,-29.6979 -4.429,-38.3055 2.4,-9.4541 10.831,-19.4415 20.246,-23.9822 21.878,-11.1613 40.787,-2.6778 48.63,14.5579 2.823,6.2916 5.573,11.4392 6.111,11.4392 0.537,0 8.415,-3.5671 17.506,-7.9266 16.458,-10.4242 97.556,-29.562 98.947,-10.9859 0.1,4.3188 0.733,11.3751 -14.692,8.6943 -33.191,0.659 -75.795,9.3224 -93.143,26.0931 1.786,7.8941 3.792,12.1243 7.69,17.4076 2.508,3.3985 12.002,20.8321 21.098,38.7411 9.097,17.9091 19.604,38.5813 23.349,45.9383 5.125,6.9179 14.356,29.1755 23.7,29.9156 7.985,-20.7191 16.869,-58.3561 22.246,-82.3401 1.224,-5.5459 4.084,-17.9637 6.355,-27.5952 2.27,-9.6315 6.378,-28.4567 9.128,-41.8338 3.29,-15.9998 6.286,-25.6964 8.756,-28.339 2.065,-2.2092 2.584,-5.8689 3.754,-7.0855 14.625,-15.2119 54.48,-7.7855 62.085,4.3887 4.292,7.6377 4.395,8.7276 2.247,23.8971 -1.237,8.742 -5.39,42.5261 -5.717,44.8844 65.659,-12.6892 21.494,74.3257 50.976,56.2567 85.05,-52.1258 85.85,11.5554 76.232,40.8572 20.861,12.5463 49.665,9.5022 51.115,-4.3713 0,-3.1654 -6.061,-16.0418 -12.794,-24.6096 -40.466,-81.3509 -75.525,-88.4556 -132.693,-102.4983 -10.517,-2.1363 -12.45,-3.7088 -10.831,-8.8107 2.108,-6.6409 15.116,-7.1876 33.255,-1.3974 20.627,3.9517 35.073,11.9498 52.488,21.5284 11.03,6.0113 14.34,8.5408 24.252,18.5361 19.041,22.1159 33.804,46.0372 48.934,68.6384 3.291,4.9681 6.624,9.0329 7.407,9.0329 0.783,0 3.489,-2.1988 6.013,-4.8863 7.97,-8.4834 27.462,-10.5758 39.868,-4.2797 38.626,24.0734 12.103,88.0509 -17.086,107.6723 -51.917,43.2262 -83.182,33.4834 -125.992,-8.9878 -16.639,-16.8221 -21.753,-28.3516 -18.412,-41.5088 9.683,-27.9963 21.637,-23.4936 37.691,-26.0139 21.491,-67.3643 -30.309,-39.9043 -47.39,-30.4354 -72.445,40.1614 -5.383,-67.8011 -66.54,-47.7322 -3.163,-0.1401 -4.717,1.4076 -6.125,6.1018 -8.649,28.8427 -14.676,47.4632 -15.89,49.097 -0.795,1.0702 -3.011,6.7395 -4.923,12.5983 -15.779,35.4755 -28.416,77.6613 -32.791,111.1577 -1.694,13.2669 -3.727,28.9374 -4.518,34.8234 -1.898,14.1383 -1.754,21.224 1.354,66.581 1.06,42.0415 2.571,69.7709 -37.588,62.516 z m 10.932,-17.2316 c 6.706,-2.7722 12.347,-13.7243 11.722,-22.7565 -0.319,-4.5979 -0.937,-14.489 -1.374,-21.9801 -3.516,-60.2997 -3.529,-62.3881 -0.497,-79.7762 1.68,-9.6315 4.402,-29.2364 6.049,-43.5665 2.143,-18.6398 4.1,-27.842 6.877,-32.3347 7.736,-30.6229 28.141,-61.3448 34.16,-91.434 0.748,-4.2807 2.001,-8.6586 2.784,-9.7287 0.783,-1.0703 2.024,-4.5727 2.758,-7.7832 0.733,-3.2105 1.761,-7.2836 2.284,-9.0515 0.824,-2.7832 -0.999,-3.2219 -13.59,-3.2712 -7.998,-0.032 -16.46,-1.0833 -18.803,-2.3376 -5.526,-2.957 -6.558,-1.2589 -10.657,17.5383 -8.594,39.3998 -11.641,51.5314 -18.684,74.3857 -7.455,24.1946 -14.307,36.5632 -20.255,36.5632 -8.41,1.2717 -20.937,-23.5728 -27.307,-34.652 -11.193,-19.7893 -17.804,-32.099 -30.145,-56.1302 -7.416,-14.4404 -14.366,-27.9038 -15.444,-29.9185 -5.409,-2.7666 -10.762,11.9657 -38.881,17.2394 0,0.9525 8.595,14.7705 19.1,30.7068 10.506,15.9362 22.381,29.4356 24.985,34.2114 35.98,42.3859 52.741,102.7472 40.628,179.7496 -5.034,26.6543 -3.645,43.7645 -1.674,45.7355 2.712,2.7127 33.62,11.1477 38.571,10.5266 2.141,-0.2687 5.467,-1.1396 7.393,-1.9356 z m 327.33,-239.707 c -0.402,-6.0387 -0.556,-10.8859 -3.604,-16.7019 -4.034,-7.6981 -4.807,-8.1985 -12.667,-8.1985 -8.715,0 -12.483,2.557 -14.749,10.0101 -0.845,2.7769 -0.434,4.1388 1.229,4.0713 6.737,-0.273 8.716,1.0363 10.966,7.2578 2.708,7.4891 0.903,13.1499 -5.241,16.4381 -5.264,2.817 -8.998,1.5873 -14.499,-4.7754 -4.443,-5.1382 -5.129,-5.3827 -6.342,-2.2606 -0.748,1.9254 -6.665,6.1782 -13.147,9.4507 -17.124,8.8691 -35.416,2.7651 -52.516,1.2546 l 1.166,8.5066 c 0.641,4.6788 0.488,9.6038 -0.34,10.9446 -2.426,3.9253 -14.227,4.5597 -18.185,0.9776 -3.724,-3.3698 -4.707,-13.2056 -1.516,-15.1772 3.095,-1.9131 2.337,-13.9012 -0.786,-14.5932 -7.125,-1.5786 -18.608,8.3853 -16.726,17.4094 2.092,10.0291 14.356,27.206 32.346,38.2162 3.343,2.0461 9.52,6.0307 13.726,8.8549 44.984,24.9041 103.923,-26.078 100.885,-71.6851 z m -96.661,60.8361 c -14.724,-6.6782 -8.071,-11.0764 -5.544,-16.1909 5.218,-10.561 22.743,17.6419 62.939,-14.0906 5.93,-5.2067 7.515,-5.7577 11.077,-3.8514 5.723,3.0631 3.684,10.4353 -5.559,20.0944 -23.69,18.5338 -36.762,19.5572 -62.913,14.0385 z M 23318.8,1161.9674 c 5.192,-1.9741 5.245,-5.1813 0.137,-8.4031 -2.355,-1.4856 -4.124,-1.1445 -6.847,1.3203 -2.02,1.8278 -4.917,3.36 -6.438,3.4048 -4.841,0.1431 -22.198,11.0747 -22.869,14.4037 8.426,6.5599 26.169,-6.6515 36.017,-10.7257 z m -29.69,-9.7623 c 3.782,-2.2314 7.991,-4.271 9.354,-4.5326 1.362,-0.2615 5.365,-1.7193 8.894,-3.2394 5.697,-2.4537 6.13,-3.1554 3.86,-6.248 -2.421,-3.2992 -3.074,-3.196 -12.32,1.9458 -11.666,6.4882 -17.143,10.4147 -19.108,13.699 -2.156,3.6044 1.554,2.9576 9.32,-1.6248 z m 198.137,0.1921 c 1.873,-0.016 3.406,-0.8275 3.406,-1.8064 0,-0.9788 -6.786,-2.407 -15.08,-3.1736 -8.294,-0.7665 -17.05,-2.1331 -19.458,-3.0364 -3.546,-1.3309 -4.378,-0.9646 -4.378,1.9291 0,2.8725 2.382,3.9607 12.161,5.558 6.689,1.0923 13.913,1.6642 16.053,1.2709 2.14,-0.3933 5.424,-0.7271 7.296,-0.7416 z m -209.383,-15.5726 c 4.741,-3.1995 10.559,-6.308 12.93,-6.908 2.37,-0.5999 6.499,-2.7715 9.174,-4.8256 l 4.865,-3.7349 -4.378,-7.7409 c -7.601,-15.677 -12.837,-32.0726 -31.196,-14.854 -7.018,6.8191 -7.224,7.4174 -6.941,20.1036 0.276,12.3731 3.01,23.7771 5.701,23.7771 0.674,0 5.104,-2.6179 9.845,-5.8173 z m 208.422,-4.3633 c -0.439,-1.3187 -5.985,-4.2541 -12.323,-6.5232 -6.338,-2.2691 -13.056,-4.7863 -14.929,-5.5937 -2.729,-1.1765 -3.405,-0.4972 -3.405,3.4219 0,4.4276 0.966,5.0198 10.215,6.2627 5.619,0.7549 11.529,2.1239 13.134,3.0421 4.305,2.4623 8.223,2.1354 7.308,-0.6098 z m 13.086,-29.9311 c 1.93,-23.1718 -2.816,-24.7771 -17.154,-23.2541 -13.118,1.3934 -21.693,1.0401 -21.877,13.7275 l -0.153,10.4983 10.854,4.1206 c 5.97,2.2663 13.919,5.7825 17.665,7.8139 3.745,2.0312 7.363,3.7299 8.039,3.7748 0.676,0.045 1.858,-7.4616 2.626,-16.681 z" fill="#00B894" transform="translate(-47.987157,-23.156465) matrix(0.26458333,0,0,0.26458333,-6102.1321,-258.27057)"/>
</svg>