<?xml version="1.0" ?><svg height="148.61574mm" viewBox="0 0 304.83932 148.61574" width="304.83932mm" xmlns="http://www.w3.org/2000/svg">
    <path d="m 3188.4381,628.63907 c -7.2263,0.0268 -14.478,2.42612 -19.7398,5.57538 -9.905,5.92807 -10.5909,25.26894 -7.4686,33.80964 3.1232,8.5408 11.0273,15.82997 25.0307,19.80396 12.6859,1.44909 28.9343,-6.71852 31.9106,-17.21343 2.9763,-10.4948 -1.4852,-25.18046 -12.0487,-35.38989 -4.9517,-4.78565 -11.3083,-6.60932 -17.6842,-6.58566 z m -170.6425,2.41859 c -15.7782,0.062 -32.2876,28.20769 -33.6894,38.43314 -1.6928,12.3476 6.2542,22.76368 12.9558,23.64188 0,0 9.3541,2.37146 16.3923,2.66547 7.0384,0.294 19.7543,-7.58378 24.8026,-13.15268 5.0485,-5.5689 10.4481,-32.4771 -2.0246,-41.56408 -2.1437,-1.56183 -15.162,-10.03662 -18.4367,-10.02373 z m 87.3339,61.37377 c -0.9882,0.005 -1.9756,0.2145 -2.8847,0.45217 -5.1033,4.85939 0.8016,8.60309 0.8016,8.60309 0,0 -2.283,10.59778 -2.6347,13.49168 -0.3511,2.89402 5.0491,2.14339 7.8587,1.29398 2.8096,-0.8494 0.4056,-12.85968 0.4056,-12.85968 0,0 3.6658,-3.4177 1.5914,-7.54631 -1.361,-2.70939 -3.2517,-3.44472 -5.1379,-3.43493 z m 95.9816,2.73833 c -4.6765,-0.0525 -10.6162,0.65524 -14.5013,5.89992 -4.4402,5.9939 -1.2443,17.58627 -0.4395,23.42645 0.8051,5.8402 5.3676,32.4505 5.6846,33.2848 0,0 22.7375,7.6408 32.5448,10.7585 9.8073,3.1178 18.7359,-5.6866 19.0529,-9.2433 0.3172,-3.5569 -6.2452,-29.4867 -11.5149,-38.9057 -5.2695,-9.41898 -24.0543,-24.01078 -28.9095,-25.02067 -0.6066,-0.12626 -1.2491,-0.19248 -1.9171,-0.2 z m -213.8979,3.9574 c -8.7098,0.054 -19.962,6.68848 -26.026,15.03214 -7.1866,9.88873 -16.6008,40.33013 -19.9832,58.30183 0,0 12.3211,2.8214 25.0616,-0.1452 12.7399,-2.9666 22.0353,-10.1825 30.0535,-11.4385 6.2333,-0.9765 7.0786,0.2564 7.1477,0.8552 0.06,-0.8175 1.2396,-17.004 1.9539,-34.909 0.7332,-18.36779 -4.7876,-23.99609 -13.6797,-27.01847 -1.3896,-0.47229 -2.9149,-0.68803 -4.5278,-0.678 z m 69.9558,16.51783 c -2.1569,0.037 -4.459,1.51199 -4.9982,3.93827 -0.6636,2.98607 3.2768,5.26327 3.2768,5.26327 l -2.1291,6.9804 c 0,0 -4.4103,0.7093 -5.4472,3.5089 -1.0369,2.7995 2.295,5.8725 2.295,5.8725 0,0 -0.7461,8.3735 -1.2163,14.4952 l 28.7708,0.7964 -4.494,-16.5484 c 0,0 6.3188,-2.0656 6.1807,-3.8199 -0.1384,-1.7544 -5.8862,-4.8529 -9.9766,-5.2178 -4.0902,-0.365 -7.2364,1.9332 -7.2364,1.9332 l -3.4705,-8.4982 c 0,0 2.3381,-7.69001 -0.1085,-8.49349 -0.4588,-0.15066 -0.9488,-0.21887 -1.4465,-0.21035 z m 91.2135,3.72227 c -1.5269,0.0563 -4.1346,1.55027 -4.7527,3.16777 -0.7601,1.9908 1.8672,4.8152 1.8672,4.8152 l -3.5259,9.6056 -2.9998,-3.8323 -9.3877,-0.3731 -0.8292,24.3127 27.1248,1.8412 c 0,0 2.7102,-12.7408 2.2122,-19.3104 -0.4974,-6.5696 -0.4283,-9.2078 -2.668,-9.8423 -2.2397,-0.6346 -4.7562,2.8122 -4.7562,2.8122 l -1.6314,-4.1434 c 0,0 0.249,-1.6421 1.203,-3.2845 0.9539,-1.6424 0.055,-4.7283 -1.0093,-5.56195 -0.1995,-0.15632 -0.4945,-0.21974 -0.847,-0.20672 z m -47.0461,10.12497 c -1.0482,0.014 -2.0227,0.4992 -2.5595,1.8118 -1.4947,3.6525 0.055,6.0099 0.055,6.0099 0,0 -5.4616,-0.9085 -6.5538,1.1943 -1.0922,2.1027 1.12,5.8978 1.12,5.8978 l -5.406,11.8329 19.1768,0.2733 -3.111,-18.5761 c 0,0 1.9772,-4.5914 1.5349,-6.0596 -0.2837,-0.9405 -2.3882,-2.41 -4.2567,-2.3843 z" fill="#FFFFFF" paint-order="markers stroke fill" transform="translate(44.782025,55.570959) translate(-2985.6092,-680.62836)"/>
    <path d="m 12217.945,3829.4902 c -11.391,0.047 -23.424,1.335 -36.357,3.6094 -30.998,5.4515 -63.746,25.4016 -79.41,60.3574 -9.202,20.5348 -14.41,66.56 1.832,116.211 4.536,13.8694 15.988,23.4453 15.988,23.4453 -11.187,16.3833 -0.608,25.1714 17.148,14.4805 0,0 0.471,3.4149 14.903,12.3867 10.332,6.4223 25.381,14.0274 33.441,16.9004 38.206,13.6199 76.201,4.1532 111.883,-27.8789 27.035,-24.268 42.202,-57.5185 44.176,-96.8418 1.919,-38.246 -5.233,-57.0945 -31.397,-82.7442 -29.626,-29.0441 -58.032,-40.0678 -92.207,-39.9258 z m -642.271,9.3399 c -14.643,0.1782 -30.298,4.7196 -47.779,13.4648 -33.555,16.7866 -55.323,40.3433 -76.024,82.2676 -20.473,41.4641 -25.258,64.3938 -19.383,92.9004 2.485,12.0555 6.737,26.1875 9.45,31.4023 8.516,16.3726 29.316,33.3491 55.255,45.1036 13.76,6.2361 27.797,15.579 31.192,20.7617 3.395,5.1826 9.538,10.4896 13.648,11.7949 5.227,1.6591 11.985,13.9998 22.487,41.0644 18.929,48.7833 39.417,113.026 36.859,115.584 -1.85,1.8494 -28.048,-19.2428 -53.859,-43.3613 -11.172,-10.4383 -11.922,-12.8456 -12.331,-39.377 -0.777,-51.0616 -20.26,-92.7056 -50.748,-108.4707 -25.563,-13.2199 -83.662,2.1379 -112.996,29.8692 -29.525,27.913 -58.514,76.9986 -67.795,114.793 -17.893,72.8673 -26.781,133.4355 -20.502,139.7148 l 0.12,0.01 c 1.39,1.3913 3.897,2.5293 5.568,2.5293 3.479,0 17.389,-44.6536 31.627,-101.543 12.368,-49.4036 20.788,-70.6438 40.183,-101.3535 26.4,-41.7995 49.031,-57.5055 92.782,-64.3945 20.267,-3.1913 38.453,8.6781 50.504,32.959 8.507,17.1435 16.017,63.6386 10.277,63.6386 -1.515,0 -17.583,-12.509 -35.705,-27.7988 -18.123,-15.2898 -37.586,-30.838 -43.252,-34.5508 -9.359,-6.1374 -10.515,-6.1927 -12.652,-0.623 -3.985,10.3856 7.409,24.1971 62.998,76.3555 l 28.416,26.6621 -1.207,34.5547 -1.207,34.5546 -11.209,2.2403 c -14.177,2.8353 -18.564,12.9809 -8.803,20.3515 6.231,4.7063 39.69,5.1009 237.26,2.7891 259.768,-3.0407 397.351,2.1758 397.351,2.1758 -0.192,5.5331 14.027,16.2071 25.606,14.7265 3.877,-0.4956 12.168,1.214 18.427,3.7989 14.477,5.9794 45.499,-1.9244 81.506,-20.7657 23.316,-12.2004 27.21,-13.0037 69.293,-14.2929 24.524,-0.7516 45.802,-2.5789 47.283,-4.0606 5.83,-5.8309 0.558,-38.8985 -12.353,-77.4961 -20.636,-61.686 -48.552,-107.1455 -59.236,-96.4609 -3.063,3.0633 -0.1,16.2871 10.99,49.0332 16.466,48.6294 29.939,98.6865 27.279,101.3477 -2.722,2.7213 -85.256,3.8117 -89.512,1.1816 -2.152,-1.3301 -4.957,-19.5696 -6.234,-40.5312 -1.706,-28.0109 -5.38,-47.0144 -13.857,-71.7071 -13.574,-39.5352 -14.437,-57.4519 -3.61,-74.9707 13.198,-21.3562 29.704,-25.4363 59.86,-14.7969 23.186,8.1804 67.302,45.152 82.812,69.3985 17.02,26.6044 33.634,71.8353 44.236,120.4336 7.083,32.4644 9.357,37.9316 15.774,37.9316 6.276,0 7.691,-2.9949 8.67,-18.375 2.24,-35.1579 -20.042,-108.0573 -44.84,-146.7012 -24.192,-37.6997 -73.245,-72.8348 -116.875,-83.7128 -17.784,-4.4343 -22.379,-4.2619 -38.441,1.4433 -10.035,3.5633 -20.944,6.4805 -24.243,6.4805 -3.3,0 -26.114,-7.2118 -50.699,-16.0254 -44.986,-16.1306 -64.253,-20.0694 -114.873,-16.291 -23.726,-0.091 -39.092,-0.256 -50.449,-0.7793 -20.082,-0.9139 -26.418,-2.9973 -36.274,-8.1543 -15.338,-8.0243 -34.619,-12.6265 -52.878,-12.9727 -6.088,-0.1171 -12.061,0.2457 -17.739,1.1055 -12.103,1.8663 -20.845,3.8799 -28.092,16.9922 -7.56,9.9674 -8.264,13.9673 -5.957,34.1387 1.42,12.5671 4.174,25.8313 6.094,29.4804 4.313,8.202 18.401,8.8268 18.401,0.8184 0,-4.5355 1.587,-4.9744 7.171,-1.9844 6.681,3.5762 6.797,4.9252 1.702,19.7149 -7.743,22.4757 -5.5,34.5626 7.246,39.0175 12.301,4.3019 28.556,-0.3886 34.576,-9.9863 2.942,-4.6825 2.718,-11.5206 -0.797,-24.6582 -4.551,-17.0113 -4.357,-18.5102 2.969,-23.3809 4.307,-2.8622 7.883,-7.9791 7.883,-11.375 0.105,-9.2407 28.14,-19.4425 54.662,-22.4511 3.48,-0.3955 6.943,-0.6884 10.304,-0.8164 75.277,-2.8677 128.837,7.1409 175.838,32.7207 20.895,10.9576 15.86,15.2929 15.172,32.8847 0.02,17.7908 3.52,39.9459 10.012,63.3848 5.488,19.8197 11.189,46.7039 12.668,59.7422 2.655,23.4065 2.572,23.707 -6.684,23.707 -10.613,0 -54.701,12.3451 -69.178,28.9746 l -17.472,-0.6347 c -0.05,-9.7158 -3.576,-12.8892 -11.736,-12.3516 -0.782,-7.0051 -1.514,-12.033 -1.321,-44.791 0.265,-44.0673 0.315,-58.3869 -22.246,-55.6934 -5.99,0.7151 -8.27,7.8709 -9.312,5.6387 -1.045,-2.2321 0.25,-6.4095 3.716,-12.8867 3.356,-6.2697 3.222,-10.7179 -0.72,-20.752 -2.469,-6.2847 -13.66,-9.2897 -14.004,-12.6679 -0.341,-3.3774 4.778,-5.1271 9.138,-5.3633 5.151,-0.2742 7.429,-7.6916 -0.839,-8.5196 -5.58,-0.5602 -7.459,-0.7259 -7.674,-6.5957 -0.327,-8.9512 -9.037,-8.1099 -9.037,-0.3984 0,3.129 -3.315,5.6894 -7.364,5.6894 -10.394,0 -13.811,9.3572 -4.072,9.4649 6.855,0.067 7.169,3.0554 7.17,5.2285 0,2.173 -2.387,4.9876 -7.17,9.082 -7.902,6.7665 -9.82,19.928 -4.199,28.8008 1.793,2.8386 2.483,8.1773 1.516,11.8653 -0.755,2.888 -2.274,6.7714 -4.711,11.2734 -2.681,-5.2235 -10.482,-5.6458 -20.645,-6.4629 -33.496,-2.6881 -36.445,1.0477 -36.445,46.1719 v 35.2226 l -23.315,2.4375 c -39.382,4.116 -41.153,3.7732 -41.293,-7.9941 -0.07,-5.7374 -3.264,-19.5304 -7.105,-30.6504 -5.759,-16.6736 -6.07,-20.5654 -1.774,-22.2148 6.757,-2.5935 6.276,-17.67 -0.343,-30.5782 -2.198,-4.288 -6.179,-6.2025 -10.428,-6.7832 4.266,-10.6727 -1.623,-16.9316 -4.883,-16.9316 -3.26,0 -6.862,2.9871 -8.004,6.6387 -1.14,3.6503 -2.639,7.3498 -0.699,11.2207 -7.012,4.2052 -11.861,11.3224 -13.187,18.6211 -1.065,5.8385 -0.344,10.3242 -0.344,10.3242 -16.74,-2.1741 -23.792,3.8342 -24.567,17.2402 -0.789,13.6286 5.078,11.4232 4.293,16.8574 -0.785,5.4342 -4.957,12.3115 -8.136,18.8575 -7.92,16.308 -6.011,17.83 -20.168,17.83 -12.943,0 -14.534,-1.0302 -14.534,-9.4062 0,-5.173 -2.773,-16.3406 -6.164,-24.8145 -3.389,-8.4738 -5.526,-15.7671 -4.742,-16.1972 0.783,-0.4355 4.838,-2.6796 9.01,-4.9903 12.226,-6.7675 11.139,-16.1003 -3.477,-29.8847 -7.476,-7.0514 -13.593,-15.4959 -13.593,-18.7657 0,-9.018 -11.152,-7.1054 -15.102,2.5899 l -3.475,8.5351 -2.582,-8.7187 c -3.414,-11.5351 -14.847,-9.3888 -14.957,2.8086 -0.114,12.6576 -7.188,13.7856 -12.558,2 -3.085,-6.7654 -3.288,-12.0029 -0.656,-16.9199 6.1,-11.3997 4.424,-26.1352 -3.776,-33.1543 -4.817,-4.1235 -11.916,-2.9878 -11.271,-9.5176 0.581,-5.9073 6.391,-5.1668 11.525,-5.457 9.868,-0.5463 7.58,-14.474 -2.877,-11.8418 -4.676,1.1773 -10.984,0.09 -12.049,-10.6446 -1.195,-12.0436 -11.883,-8.7906 -11.883,3.8477 0,5.2385 -1.217,9.5669 -7.986,9.9433 -10.029,0.5506 -12.83,10.8136 -0.549,9.6094 5.851,-0.5742 11.398,3.0311 11.395,6.2891 0,3.258 -5.553,6.1683 -10.447,11.4219 -9.023,9.6846 -9.832,22.8862 -1.811,29.5429 7.765,6.4621 7.247,13.437 0,24.1914 -20.497,5.359 -24.045,26.7449 -15.277,36.4317 8.921,9.8588 -0.15,44.8127 -7.067,53.1328 -5.624,0.5666 -13.728,-1.8677 -13.728,11.0254 0,0 -6.046,0.3222 -13.348,0.3222 -12.812,0 -13.285,-0.5001 -13.285,-14.2265 -0.02,-23.6777 -22.943,-100.591 -49.645,-166.5489 -4.553,-11.2478 -4.111,-12.8185 7.231,-25.7363 6.644,-7.5664 12.078,-17.0952 12.078,-21.1758 0,-4.4643 7.036,-12.5229 17.676,-20.2441 l 17.676,-12.8281 12.164,7.1758 c 21.739,12.8264 34.485,-3.6698 15.738,-20.3692 l -8.818,-7.8535 9.554,-23.1523 c 7.698,-18.6521 9.598,-29.7888 9.768,-57.2911 0.251,-40.6974 -6.965,-58.7352 -36.358,-90.8964 -22.556,-24.6793 -44.153,-36.5022 -68.558,-36.2051 z m 639.279,8.6992 c 27.791,0.6381 53.586,13.3981 76.682,35.6953 19.545,18.8703 23.907,26.2724 27.316,42.1719 4.133,19.2703 0.584,44.2269 -10.029,70.5508 -6.013,14.9145 -29.927,40.0546 -47.768,50.2187 -8.52,4.8536 -19.756,9.6475 -24.972,10.6582 -14.641,2.8333 -39.979,-3.3058 -61.114,-14.8086 -17.461,-9.505 -19.861,-13.3281 -19.861,-13.3281 7.618,-17.0383 -5.61,-24.4606 -14.686,-16.9297 0,0 -4.062,0.7845 -10.388,-9.584 -11.133,-18.2499 -13.883,-54.3438 -13.883,-72.1582 0,-20.6165 10.787,-47.9204 30.564,-60.7597 23.701,-15.3868 46.524,-22.2229 68.139,-21.7266 z m -647.533,10.332 c 22.444,0.056 52.124,15.6412 66.215,34.7696 22.032,29.9097 27.553,46.7948 25.135,76.8593 -3.096,38.489 -11.598,59.6349 -31.27,77.7676 -9.187,8.4685 -18.407,15.3985 -20.486,15.3984 -2.079,0 -6.402,-5.0699 -9.608,-11.2675 -3.204,-6.1966 -8.805,-12.8623 -12.447,-14.8106 -10.236,-5.4793 -42.506,-0.5381 -47.371,7.252 -3.353,5.3675 -5.523,5.8262 -11.096,2.3457 -11.734,-7.3277 -20.31,1.421 -19.461,19.8515 0.953,20.6896 -6.259,20.5333 -27.385,-0.5918 -30.391,-30.3914 -32.544,-71.2049 -6.603,-125.2675 25.145,-52.4035 59.534,-82.4144 94.377,-82.3067 z m 578.699,109.4082 c -0.597,0.016 -1.219,0.068 -1.865,0.1602 -8.687,1.2376 -12.808,10.5618 -9.031,20.4023 3.071,8.003 12.805,6.6717 17.668,-2.414 5.461,-10.2063 2.183,-18.3827 -6.772,-18.1485 z m 37.565,9.5567 c -1.182,-0.067 -2.484,-0.019 -3.905,0.1465 -10.063,1.172 -14.471,9.7776 -10.418,20.3418 3.307,8.6179 17.347,6.5612 20.926,-3.0665 4.039,-10.8665 1.667,-16.955 -6.603,-17.4218 z m -549.053,25.1386 c -13.209,0 -25.759,19.7416 -17.684,27.8164 4.275,4.2752 8.237,2.8723 16.289,-5.7714 9.388,-10.0749 10.144,-22.045 1.395,-22.045 z m 285.176,69.4493 c 2.215,0.036 4.442,0.5217 6.507,1.4414 11.822,5.2735 0.386,12.8922 -12.183,8.1172 -8.82,-3.3514 -8.99,-3.8803 -2.453,-7.5567 2.18,-1.2268 4.655,-1.8935 7.179,-1.9902 0.316,-0.013 0.633,-0.017 0.95,-0.012 z m -13.422,17.8945 c 0.108,0 0.216,0 0.324,0.01 v 0 c 0.807,0.1096 3.681,1.1153 4.412,3.2246 0,0 -1.246,2.2521 -3.148,5.2031 -2.606,4.0414 -1.155,10.0222 2.052,12.3262 2.533,1.8187 9.783,1.1607 7.903,4.2305 0,0.8273 -2.56,1.4902 -5.692,1.4902 -3.123,0 -5.689,-1.6537 -5.689,-3.6738 0.68,-4.8314 -3.495,-9.0674 -4.961,-12.8672 -1.772,-4.6207 1.443,-9.8387 4.799,-9.9414 z m -3.707,41.6562 c 4.111,0 9.061,28.8005 5.849,33.9981 -1.338,2.1634 -5.873,3.9336 -10.089,3.9336 -6.627,0 -7.329,-1.6691 -5.184,-12.3281 4.072,-20.2315 6.059,-25.6036 9.424,-25.6036 z m -183.604,45.4864 c 7.752,0 11.399,11.4154 4.951,15.498 -7.541,4.7751 -10.919,4.2597 -13.336,-2.039 -2.718,-7.0847 1.254,-13.459 8.385,-13.459 z m 340.832,17.3593 c 1.335,0.058 2.821,0.6248 4.299,1.8516 2.919,2.4236 4.374,5.921 3.233,7.7715 -2.768,4.4762 -8.211,4.2669 -11.114,-0.4297 -3.063,-4.9571 -0.423,-9.368 3.582,-9.1934 z m -338.176,23.1329 c 2.319,-0.3377 4.594,4.035 9.706,15.9179 8.786,20.4262 15.744,51.0419 15.744,69.2832 0,15.0952 -6.356,13.563 -13.371,-3.2246 -3.236,-7.747 -8.327,-16.7841 -11.313,-20.084 -4.371,-4.8299 -4.601,-8.6977 -1.18,-19.8457 3.494,-11.3834 3.172,-15.4909 -1.808,-23.0918 -4.983,-7.604 -5.202,-10.4155 -1.237,-15.8379 1.343,-1.8362 2.406,-2.9636 3.459,-3.1171 z m 338.86,6.2246 c 1,0.1243 2.03,2.1433 3.035,6.4414 6.749,28.8634 13.561,66.1161 13.561,74.1621 0,7.732 -1.852,9.2344 -11.379,9.2344 -10.772,0 -11.404,-0.8625 -11.942,-16.1211 -1.366,-39.2258 2.392,-74.2554 6.725,-73.7168 z m -168.145,7.7343 c 3.636,0.2525 6.463,3.1581 6.463,7.918 0,2.7623 -4.268,5.8361 -9.484,6.8359 -10.663,2.0387 -12.877,-4.768 -3.959,-12.1699 2.328,-1.9318 4.799,-2.7354 6.98,-2.584 z m 195.696,1.586 c 2.973,0 6.313,2.3645 7.423,5.2558 2.846,7.4181 -1.044,44.2567 -3.935,37.3301 -1.306,-3.13 -4.056,-12.9442 -6.109,-21.8105 -3.051,-13.1705 -1.797,-20.7754 2.621,-20.7754 z m -322.188,0.8633 c 16.578,0 30.539,5.2633 30.539,11.5136 0,2.0129 -4.912,3.6582 -10.916,3.6582 -17.394,0 -20.229,7.2378 -9.668,24.6856 5.352,8.8417 9.184,21.0621 9.184,29.3672 0.02,11.7748 -1.307,14.2246 -7.686,14.2246 -8.586,0 -8.02,1.3401 -16.017,-37.9317 -3.188,-15.6467 -7.034,-32.289 -8.547,-36.9824 -2.559,-7.9331 -1.628,-8.5351 13.111,-8.5351 z m -64.258,8.5839 c 2.064,0.2015 3.76,2.2255 3.76,6.2696 0,4.659 -2.449,7.9023 -5.967,7.9023 -3.533,0 -5.463,-2.5802 -4.742,-6.3242 1.038,-5.3526 4.297,-8.1066 6.949,-7.8477 z m 297.254,2.0489 c 0.403,-0.093 0.983,2.0702 1.873,6.2187 2.816,13.12 8.953,13.8035 12.449,1.3867 1.716,-6.0911 2.589,-6.7381 2.846,-2.121 0.208,3.6513 2.938,6.6386 6.069,6.6386 3.128,0 5.907,-2.9873 6.164,-6.6386 0.82,-11.4663 6.527,26.6223 6.83,45.5195 v 0 l 0.275,18.0176 h -16.541 -16.541 l -2.393,-19.9141 c -1.319,-10.9534 -2.201,-27.5966 -1.974,-36.9844 0.198,-8.1547 0.42,-12.0033 0.937,-12.123 z m -132.998,14 c 2.056,0.1396 4.386,1.432 6.824,4.1465 1.99,3.4052 1.321,7.5294 -1.302,9.1347 -2.621,1.6032 -6.576,5.3704 -10.418,-0.582 -2.041,-3.1688 -2.264,-7.0962 -0.276,-9.9219 v 0 c 1.339,-1.9021 3.12,-2.917 5.176,-2.7773 z m 21.891,6.0859 c 0.269,-0.041 1.445,0.8013 3.295,2.4121 3.089,2.6892 6.085,14.3994 7.031,27.5 v 0 c 1.906,26.3475 -3.57,30.4149 -12.422,9.2285 -4.97,-11.8899 -4.996,-14.9096 -0.205,-24.1738 3.007,-5.8224 4.292,-12.084 2.846,-13.9141 -0.543,-0.6858 -0.709,-1.0282 -0.547,-1.0527 z m -184.36,14.7969 c 1.903,0 17.145,28.5287 17.145,32.0898 0,1.1226 -4.268,2.0489 -9.482,2.0489 -8.71,0 -9.483,-1.3913 -9.483,-17.0704 0,-9.3878 0.821,-17.0683 1.82,-17.0683 z m -170.222,0.4551 c 1.016,-1.1946 32.757,24.3687 54.47,43.8691 4.639,4.1611 0.114,4.9902 -27.441,4.9902 h -32.996 l 2.369,-23.7089 c 1.303,-13.0394 2.92,-24.3547 3.598,-25.1504 z m 333.849,10.9746 c 2.982,0.2681 5.245,4.7242 5.245,13.2265 0,11.6319 -1.175,13.2754 -9.483,13.2754 -10.988,0 -10.692,0.8093 -5.318,-14.6074 2.874,-8.2438 6.574,-12.1627 9.556,-11.8945 z" fill="#00B894" transform="translate(44.782025,55.570959) translate(-2985.6092,-680.62836) matrix(0.26458333,0,0,0.26458333,-43.97441,-388.16151)"/>
</svg>