<?xml version="1.0" ?><svg height="201.94911mm" viewBox="0 0 165.56967 201.94911" width="165.56967mm" xmlns="http://www.w3.org/2000/svg">
    <path d="m 3113.9902,5132.002 c -2.8726,-0.1191 -5.9355,-0.048 -9.1992,0.2226 -52.2186,4.328 -45.3221,54.385 -48.9062,85.293 -3.584,30.908 -54.7432,197.0058 -69.5332,237.3047 -14.79,40.2988 -21.4348,14.5623 -21.3438,16.6855 0.091,2.1231 -89.0114,-213.2525 -95.5898,-250.2441 -6.5784,-36.9918 -9.9804,-48.7918 -51.3106,-36.9512 -41.3303,11.8406 -31.6069,56.0093 -26.2988,70.9121 5.3081,14.9028 96.3403,223.074 112.582,254.7578 16.2418,31.6838 29.9038,108.7073 28.7696,124.1817 -1.1342,15.4745 -12.158,165.0327 -12.9747,196.2265 -0.8166,31.1938 41.7846,43.7689 56.9375,47.9336 0,0 14.7622,5.9783 42.709,-3.0859 27.9467,-9.0641 14.249,-41.0982 18.9219,-85.8067 4.6729,-44.7084 -2.1172,-151.2612 9.9961,-208.5859 12.1132,-57.3248 50.2971,-147.3531 70.5312,-193.9805 20.2342,-46.6274 29.3812,-96.6303 33.918,-154.4043 4.2533,-54.163 3.881,-98.6729 -39.209,-100.4589 z m 219.9668,306.4843 c -1.514,0.029 -3.0528,0.094 -4.6152,0.1934 -24.9978,1.5923 -31.2597,33.3588 -58.0723,67.084 -26.8125,33.7253 -30.4422,28.2546 -72.2715,36.1347 -41.8294,7.8801 -45.9112,8.7369 -56.5273,37.1543 0,0 -2.9031,22.9876 29.3535,50.67 32.2567,27.6825 68.7771,28.3352 143.6797,-13.8418 74.9026,-42.177 73.5874,-98.7254 65.6934,-135.3497 -7.4008,-34.3351 -24.5304,-42.4737 -47.2403,-42.0449 z" fill="#FFFFFF" transform="translate(28.966022,-1.8791287) matrix(0.26458333,0,0,0.26458333,113.58005,-708.5615) translate(-3313.5291,-2437.8203)"/>
    <path d="m -349.54212,3444.8433 c -9.25909,-3.023 -24.01032,-11.3939 -27.57996,-15.6511 -1.60525,-1.9145 -5.40911,-4.7674 -8.45311,-6.34 -8.78802,-4.5401 -15.19048,-19.4625 -16.70453,-38.933 -1.44735,-18.6148 -0.28208,-39.9957 5.56964,-102.1936 4.43735,-47.1655 5.28463,-95.1076 2.08376,-117.8971 -3.49106,-46.1685 -26.62388,-89.2188 -39.91427,-123.3772 -2.77373,-7.4911 -7.1368,-17.9982 -9.69571,-23.349 -2.55877,-5.3509 -8.09543,-18.4847 -12.30381,-29.1863 -6.87587,-17.4856 -20.92313,-49.052 -25.74793,-57.86 -1.01788,-1.8583 -1.85085,-4.4362 -1.85085,-5.7287 0,-1.2927 -6.55745,-15.6471 -14.57218,-31.8991 -14.98195,-30.3797 -16.27111,-31.8632 -27.74807,-31.933 -5.74125,-0.034 -6.08624,-8.6553 -0.48639,-12.1526 4.61495,-2.882 4.97496,-7.7606 1.01831,-13.7992 -5.66566,-8.6469 -13.00924,-31.5532 -12.82624,-40.0079 0.10215,-4.6933 1.95213,-12.5287 4.11221,-17.4119 5.47857,-12.3854 19.16217,-29.5636 26.15625,-32.8365 16.60874,-8.3283 40.57545,-19.3052 57.52416,-8.4409 12.90563,8.8716 14.16575,11.9098 16.33167,39.3751 1.17256,14.8674 5.87026,36.6061 11.42939,52.889 3.67865,10.7748 5.66449,13.8586 10.24106,15.9024 3.1225,1.3944 9.30243,5.8864 13.73306,9.9822 23.16698,21.4159 29.41228,27.6707 34.68334,34.7364 3.17315,4.2536 10.17788,13.0923 15.56597,19.6414 5.3881,6.5491 11.85128,14.6309 14.36262,17.9594 2.51134,3.3287 7.7071,9.6355 11.54613,14.0152 l 6.98021,7.963 2.30427,-4.5192 c 1.26742,-2.4855 2.99802,-8.0214 3.84589,-12.3022 0.84786,-4.2806 1.78898,-8.6586 2.09135,-9.7287 0.30237,-1.0702 1.42677,-6.965 2.49864,-13.0997 1.93185,-11.057 13.2188,-49.3155 15.65251,-53.0562 1.43874,-2.2116 3.40488,-8.2332 10.79984,-33.0778 2.86668,-9.6315 6.455,-21.0435 7.97371,-25.3599 4.0753,-11.5817 3.58161,-16.194 -1.88018,-17.5648 -6.12506,-1.5372 -4.60445,-7.9792 2.9001,-12.2861 5.62626,-3.2292 6.75679,-6.8333 13.50468,-43.0501 5.68303,-30.5026 9.05318,-36.04 20.6139,-33.8713 4.47968,0.8404 8.07018,0.2372 11.33935,-1.9047 6.42202,-4.208 26.53596,-4.5204 39.43882,-0.6128 12.99567,3.9356 24.00142,12.7935 30.27328,24.3649 9.21534,14.3805 4.43481,34.029 4.09397,51.0031 l -0.8413,41.8977 21.92204,22.7917 c 12.05704,12.5354 22.79762,23.9191 23.86774,25.297 31.864335,47.0927 66.5371,92.6864 90.400716,138.2405 4.707908,9.1148 8.8205608,10.0403 16.9829689,3.822 21.7335131,-13.0145 45.4102481,-2.992 55.4541161,7.2655 12.594651,12.7684 19.202738,25.4824 27.853726,53.591 3.662599,11.9001 2.109008,42.1614 -2.845671,55.4309 -5.776568,15.4705 -26.88255,39.5553 -52.072291,59.4215 -26.6807665,18.8268 -52.118158,35.7348 -80.319449,44.2324 -13.070389,3.9427 -31.819572,4.954 -56.798586,3.0634 -16.26338,-1.2308 -20.89132,-2.4328 -33.65715,-8.742 -19.07052,-9.4253 -31.78828,-25.5343 -40.01175,-46.8158 -4.10568,-10.6251 -10.00678,-33.296 -0.63115,-40.1749 2.79956,-1.6263 6.31035,-9.1618 3.65454,-9.1618 -6.49411,-7.1286 -11.47813,-16.1159 -17.65306,-22.8799 -3.67909,-3.9948 -12.15773,-13.9915 -18.84155,-22.2149 -6.68383,-8.2236 -12.69024,-15.0093 -13.34737,-15.0796 -1.32623,-0.1416 -5.77832,11.7217 -9.44428,25.1668 -1.31309,4.8158 -3.05712,10.0832 -3.87551,11.7054 -6.72675,27.34 -11.52842,57.1228 -17.59077,84.6097 -2.17337,9.8094 -3.85582,22.0208 -5.09361,36.9693 -5.28263,29.5611 -1.43505,61.272 -1.85217,87.5593 -0.38146,21.9549 0.4343,40.6023 2.42612,55.454 5.68361,42.3787 2.2885,65.6066 -11.82734,80.9185 -8.96766,9.7273 -18.17567,12.4976 -42.51156,12.7897 -8.47958,-0.4858 -18.17595,0.9201 -32.25226,-3.5589 z m 20.1491,-18.6453 c -0.69142,-4.5483 -2.61802,-15.256 -4.28164,-23.7949 -2.22677,-11.4304 -2.6669,-20.5704 -1.66858,-34.6529 1.22568,-17.2872 3.62392,-36.4809 5.52177,-44.1911 0.39503,-1.6052 1.37059,-6.421 2.16752,-10.7016 3.56716,-19.1572 8.29025,-28.2134 14.71461,-28.2134 3.68813,0 6.20517,4.4254 10.51395,18.4846 4.79416,15.6433 6.73578,32.6787 8.09455,71.0202 0.70164,19.7982 1.48661,38.1856 1.74432,40.8609 0.25772,2.6754 0.60577,6.5843 0.7733,8.6865 0.26472,3.323 0.64866,3.45 2.94067,0.9729 8.68689,-9.3885 11.62143,-39.3734 6.94359,-70.9506 -3.05523,-20.6241 -3.78519,-29.5089 -3.98643,-48.5267 -0.10069,-9.5669 -0.91645,-18.7607 -1.8113,-20.4306 -14.97349,-27.9371 -17.43273,-41.5181 -17.65382,-97.4914 -0.17264,-43.7099 0.98825,-56.6304 7.33527,-81.6357 10.72365,-42.248 12.79311,-50.0531 14.18691,-53.5082 0.86348,-2.1404 4.77708,-17.901 8.69696,-35.0237 3.91973,-17.1227 9.72548,-42.2245 12.90154,-55.782 3.17606,-13.5574 5.77467,-26.4841 5.77467,-28.7262 3.85016,-21.4277 12.3243,-13.7908 10.58619,1.6373 -1.75468,15.1234 -1.95519,16.3336 -3.25399,19.6338 -1.86325,4.7345 -5.02239,19.4475 -7.31133,34.0508 -1.17402,7.4911 -2.92841,16.247 -3.89842,19.4575 -1.82152,6.0287 -12.06828,45.8391 -15.77582,61.2915 -2.48697,10.3653 -9.11184,35.5127 -11.53329,43.7796 -2.37928,8.1226 -8.6256,60.5835 -8.34015,70.0473 0.12842,4.2806 0.78234,12.1609 1.45173,17.5118 0.66924,5.3508 1.99226,18.6654 2.93994,29.588 0.94768,10.9227 2.43516,20.992 3.3055,22.3762 0.90624,1.4413 2.56826,-9.5396 3.88938,-25.6964 6.82771,-57.2698 18.27172,-118.6795 35.1941,-169.2812 11.2388,-33.5424 11.60173,-34.451 26.41659,-66.1557 14.90008,-31.887 28.39265,-63.245 32.32946,-75.1364 2.08478,-6.2974 5.64289,-16.7034 7.90688,-23.1244 3.70725,-10.5145 11.1597,-56.6497 9.43012,-58.3793 -0.38789,-0.3877 -5.50674,-1.1922 -11.37525,-1.7876 -29.55383,-2.9982 -30.53449,-3.1862 -55.36291,-10.6132 -7.45828,-2.2312 -14.12854,-3.4167 -14.82288,-2.6347 -2.07326,2.3348 -26.81805,80.3225 -29.1588,91.8994 -1.73498,8.5803 -5.95986,25.6587 -10.34861,41.8339 -0.29041,1.0701 -1.57125,5.8859 -2.84626,10.7016 -1.275,4.8158 -3.06238,10.0981 -3.97182,11.7385 -0.9096,1.6404 -2.25378,6.0184 -2.98723,9.7287 -1.68143,8.5059 -2.7549,11.2095 -11.56364,29.1226 -18.31869,37.2525 -23.81127,43.5664 -39.91836,45.889 -4.93381,0.7111 -10.18984,1.9456 -11.68009,2.7429 -3.49668,1.8712 -11.88382,-5.3046 -11.88382,-10.167 0,-3.8617 10.22282,-9.2785 17.51051,-9.2785 2.20825,0 4.49223,-1.2435 5.07537,-2.7632 -11.45296,-22.8154 -20.3501,-44.1326 -29.90816,-65.2306 -1.74169,-3.8049 -3.73118,-8.6692 -4.42086,-10.8094 -1.16877,-3.6263 -2.74644,25.2542 -4.67697,85.6134 0.71159,16.8058 2.55133,48.7182 9.39626,63.8614 2.54885,5.5425 5.14294,13.142 5.76461,16.8875 0.62166,3.7455 2.41196,13.8149 3.97839,22.3762 1.56658,8.5612 3.12747,23.6652 3.4688,33.5645 0.34134,9.8988 1.20978,17.998 1.9298,17.998 2.04962,0 7.9136,-21.5049 10.34614,-37.9423 0.63349,-4.2806 1.90207,-9.9718 2.81896,-12.6474 0.91689,-2.6754 3.17402,-10.1179 5.01583,-16.5388 1.84195,-6.4211 5.8739,-19.2904 8.96007,-28.5986 4.67566,-14.1022 5.23837,-17.7422 3.37497,-21.8321 -2.4019,-5.2716 0.23188,-10.8607 5.11783,-10.8607 1.32769,0 3.91725,-5.0346 5.75468,-11.1881 1.83728,-6.1536 4.26398,-13.6242 5.39262,-16.6013 1.12863,-2.9774 1.51302,-5.9524 0.85428,-6.6111 -1.33206,-1.3321 6.48113,-16.1893 8.51367,-16.1893 0.70733,0 2.80233,1.6758 4.65581,3.7236 3.63589,4.0178 3.31791,6.0175 -5.59605,35.1915 -1.79847,5.886 -3.77672,13.3043 -4.3962,16.4855 -0.61948,3.1812 -3.5495,9.748 -6.51133,14.5932 -2.96169,4.8452 -6.81225,14.063 -8.55657,20.4839 -1.74433,6.421 -4.00875,13.195 -5.03217,15.0533 -1.02342,1.8583 -1.86078,6.2069 -1.86078,9.6639 0,3.4567 -1.21109,9.8165 -2.69142,14.133 -1.48019,4.3166 -4.25771,14.8527 -6.17219,23.4141 -1.91463,8.5614 -4.50273,17.7552 -5.75162,20.4306 -2.93658,6.2911 -9.34781,32.2762 -14.63725,59.3261 -3.74943,19.1749 -5.49288,53.1474 -2.93936,57.279 0.47997,0.7764 1.01524,18.3727 1.18963,39.1032 0.30091,35.767 0.11529,37.855 -3.64392,40.8987 -3.90601,3.1628 -3.90995,3.2863 -0.28792,8.8576 2.02028,3.1075 6.23844,7.4013 9.3735,9.5415 3.1352,2.1404 8.19889,5.7648 11.25251,8.0541 l 5.55213,4.1625 0.089,-75.1827 c 0.0949,-79.9232 0.69449,-86.6803 10.72862,-121.0061 6.53031,-22.3393 13.25383,-51.249 17.39932,-74.8135 2.07092,-11.772 4.21422,-23.1547 4.76292,-25.2948 0.54871,-2.1405 2.79343,-11.772 4.98825,-21.4035 4.12914,-18.1199 7.24055,-26.2678 10.03092,-26.2678 2.55716,0 1.88514,19.6292 -1.20876,35.3021 -1.55417,7.8731 -3.21648,17.3794 -3.69397,21.1251 -2.67012,20.9433 -8.90739,49.4107 -16.83967,76.8572 -11.39523,39.4287 -12.86637,48.3893 -14.85499,90.4778 -3.54497,75.0305 -1.67719,116.4846 5.67661,125.988 3.77511,4.8783 5.63457,2.4014 4.38219,-5.8373 z m 27.12392,5.1432 c -0.14783,-4.3809 -3.21488,-37.2832 -3.88003,-41.6262 -0.40978,-2.6753 -1.20321,-16.2472 -1.76315,-30.1591 -0.97818,-24.3031 -4.43502,-47.6713 -7.05201,-47.6713 -0.68734,0 -2.26895,7.6616 -3.51492,17.0256 -1.24597,9.3638 -3.28799,24.6213 -4.5379,33.9053 -1.76315,13.0948 -1.74257,18.6493 0.0919,24.7714 1.3004,4.3402 2.82437,15.9566 3.38649,25.8142 0.56213,9.8575 1.47041,18.6482 2.01839,19.5347 1.31047,2.1204 15.32737,0.6548 15.25149,-1.5946 z m 244.093478,-232.2761 c 23.205067,-7.8521 47.433628,-19.6581 70.161205,-39.5871 2.651145,-2.3247 7.090831,-5.978 9.865871,-8.1185 2.775187,-2.1401 10.094984,-9.8651 16.266152,-17.1665 17.328827,-20.502 25.488025,-42.6993 23.602293,-64.2115 -0.546515,-6.2322 -2.052471,-11.982 -2.127395,-13.166 -2.474405,-39.1023 -40.087935,-66.1821 -49.508705,-33.8136 0,4.2925 6.952925,8.5153 14.646891,8.8956 4.251142,0.2101 9.797867,1.6486 12.325991,3.1966 4.044794,2.4769 4.442458,3.7781 3.313529,10.8378 -2.441991,15.1531 -17.823891,9.4681 -23.904226,1.4166 -2.257306,-2.9891 -11.7131099,-7.5371 -12.6200432,-10.0448 -0.3986859,-1.1959 -3.23034815,1.6497 -6.2924369,6.3236 -19.6758499,30.0346 -52.8239849,60.7519 -70.1644869,65.0194 -19.427474,4.7813 -29.328517,6.5334 -38.062687,6.7356 -13.61281,0.315 -34.90326,4.1073 -34.90326,6.2167 1.69012,10.6254 17.23311,17.4551 17.51183,25.341 0,6.0042 -3.43319,9.2842 -9.71804,9.2842 -3.77351,0 -6.92724,-2.464 -12.48856,-9.7565 -4.09208,-5.3659 -8.34993,-10.3184 -9.46179,-11.0056 -10.46171,33.2429 19.08548,56.9693 40.95214,63.6037 25.439056,7.7183 39.598404,7.0444 60.605728,-7e-4 z m -75.726748,-100.164 c 50.014208,-5.5696 61.87205,-10.7336 83.948041,-36.5581 5.718341,-6.6895 10.840404,-12.6007 11.382103,-13.1358 5.821723,-9.9741 16.633998,-22.0293 21.910651,-30.8474 3.184672,-5.3911 3.140308,-5.684 -1.526156,-10.068 -2.816317,-5.178 -18.072445,-21.4112 -18.426673,-25.4623 -31.644929,-42.6967 -63.708686,-89.6053 -94.366416,-125.1678 -22.99259,-26.5986 -23.61221,-26.9071 -23.83958,-11.872 -0.27873,18.4363 -6.85194,48.5536 -15.47651,70.9102 -6.0309,20.6375 -17.23077,41.9123 -24.86402,58.5686 -6.12126,13.3771 -14.1605,30.614 -17.86484,38.3042 l -6.73548,13.9823 9.36518,9.5239 c 14.68482,19.1231 34.94337,37.387 46.22494,58.5873 l 3.38358,6.5708 11.01041,-1.3972 c 6.05574,-0.7685 13.1994,-1.6407 15.87477,-1.9387 z m -274.33181,-59.909 c 0.1007,-10.9692 0.5293,-23.0086 0.95381,-26.7543 0.42437,-3.7454 0.96388,-21.0773 1.19883,-38.515 0.32076,-23.7983 1.06458,-32.0616 2.98241,-33.1349 2.01299,-1.1264 1.37906,-4.5145 -2.98722,-15.9661 -5.52046,-14.4786 -14.63755,-35.875 -24.08708,-56.5286 -2.73287,-5.9732 -6.0623,-14.5102 -7.39889,-18.9712 -2.35505,-7.8604 -6.02801,-10.3658 -8.74687,-5.9665 -0.72893,1.1794 -4.06405,3.3887 -7.41144,4.9096 -3.34739,1.5209 -11.33978,5.72 -17.76079,9.3314 -6.421,3.6115 -12.23201,6.2277 -12.91336,5.8137 -0.68136,-0.4143 -2.34805,0.5837 -3.70361,2.2171 -2.02524,2.4401 -1.64771,4.779 2.11645,13.1124 2.51966,5.5784 5.57431,11.456 6.78817,13.0612 1.21386,1.6053 3.30463,5.9832 4.64603,9.7289 1.34141,3.7454 3.62758,9.0544 5.08018,11.7975 1.45276,2.7431 6.32323,14.5636 10.82333,26.2678 14.99501,28.8831 24.28703,59.6624 37.56112,89.3816 1.45188,3.2107 4.70047,11.3098 7.21925,17.9985 2.51864,6.6884 4.77693,12.161 5.01845,12.161 0.24137,0 0.52098,-8.975 0.62123,-19.9441 z m 68.15253,-21.0327 c 0.72703,-1.5415 2.75957,-5.5647 4.51688,-8.9404 1.75731,-3.3755 3.19503,-7.2582 3.19503,-8.6279 0,-1.3699 1.60482,-6.0505 3.56614,-10.4016 1.96147,-4.351 4.7028,-11.3545 6.09193,-15.5633 2.52477,-7.6492 2.52258,-7.6555 -5.45625,-15.098 -4.39007,-4.095 -12.46988,-12.9097 -17.95502,-19.5882 -5.485,-6.6784 -11.04617,-13.0181 -12.3578,-14.0884 -1.31164,-1.0701 -3.22306,-3.4625 -4.2475,-5.3163 -3.52732,-6.3833 -38.44152,-44.3005 -40.79205,-44.3005 -1.03859,0 2.40978,9.2016 6.92725,18.4848 4.82348,9.9122 10.76816,25.2397 16.97946,43.7795 5.26595,15.718 10.55161,28.8283 15.16495,37.6135 1.59095,3.0297 2.89252,6.7554 2.89252,8.279 0,2.5973 5.06704,13.6963 12.35984,27.0735 1.75031,3.2105 3.18774,7.0045 3.19431,8.4315 0.0161,3.2413 4.14359,2.0297 5.92031,-1.7372 z M -474.9481,2843.242 c 1.9012,-0.9671 9.14803,-4.2459 16.10416,-7.2864 6.95614,-3.0403 12.88696,-5.6481 13.17969,-5.7949 0.29274,-0.1468 -0.0204,-1.7058 -0.69463,-3.4642 -2.17585,-5.6703 -3.85961,-5.0313 -43.13075,16.3679 -12.02756,6.5538 -11.02472,10.6506 1.40766,5.7502 5.32242,-2.098 11.23266,-4.6055 13.13387,-5.5726 z m -13.54993,-16.3375 c 8.20313,-4.5483 18.88797,-9.5829 23.74385,-11.1882 7.30769,-2.4157 8.93497,-3.8406 9.44457,-8.2695 0.72761,-6.3234 -1.57899,-6.8451 -6.45297,-1.4593 -1.93695,2.1404 -4.2828,3.8916 -5.21283,3.8916 -0.93017,0 -6.21582,3.1124 -11.74591,6.9164 -5.53023,3.8042 -14.26499,8.7277 -19.41069,10.9414 -5.14585,2.2135 -9.35599,4.7924 -9.35599,5.7309 0,3.1365 3.96921,1.7646 18.98997,-6.5633 z m 315.36683,-13.764 c -0.23422,-3.4802 0.0949,-7.1699 0.73156,-8.1996 0.71784,-1.1611 -7.45566,-1.8169 -21.51999,-1.7268 -12.47251,0.08 -29.68211,-0.4227 -38.2435,-1.1166 -23.94888,-1.941 -23.58244,0.764 0.97293,7.1827 5.88587,1.5385 13.76619,3.6332 17.51183,4.6549 3.74548,1.0215 10.2971,2.3358 14.55904,2.9202 4.26179,0.5845 8.01866,1.3327 8.34847,1.6625 0.32995,0.3298 4.52972,0.6786 9.33278,0.775 8.67594,0.1743 8.73037,0.1343 8.30688,-6.1523 z m -298.2728,-18.7229 c 6.02903,-4.2234 11.879,-7.9845 12.99976,-8.3581 3.38357,-1.1279 -0.12551,-29.7029 -4.22794,-34.4337 -4.12958,-4.7614 -14.30118,-5.3039 -21.50671,-1.1469 -23.00515,10.1767 -50.50236,26.6447 -29.05927,67.1836 13.45983,-6.5019 31.09226,-15.9412 41.79416,-23.2449 z m 300.42865,-21.1047 c 0.22255,-9.3182 0.32149,-18.2555 0.21978,-19.8607 -0.10216,-1.6053 -0.10945,-9.2982 -0.0161,-17.0955 1.83618,-48.3398 -61.31547,-38.4966 -65.11801,-15.2817 0.55264,1.4403 -0.75082,11.2134 -2.8969,21.718 -2.14593,10.5045 -3.56759,19.6398 -3.15928,20.3004 0.81299,1.3153 0.74353,1.3171 30.2133,-0.7223 11.23676,-0.7777 22.04929,-1.8755 24.02769,-2.4399 3.00561,-0.8573 3.37132,-0.2746 2.22342,3.5441 -1.90106,6.3239 -5.98234,10.1972 -11.16671,10.5975 -21.78311,1.6817 -46.82896,5.952 -47.66325,8.1263 -0.53893,1.4042 -0.49719,3.0356 0.0934,3.6254 1.31003,1.3102 30.98908,3.4796 55.09469,4.0273 l 17.744,0.4032 0.40467,-16.9421 z" fill="#00B894" transform="translate(28.966022,-1.8791287) matrix(0.26458333,0,0,0.26458333,113.58005,-708.5615)"/>
</svg>