<?xml version="1.0" ?><svg height="171.23714mm" viewBox="0 0 189.51549 171.23714" width="189.51549mm" xmlns="http://www.w3.org/2000/svg"><path color="#000" d="m 629.88699,1286.5163 28.61749,136.9093 c 258.01954,38.9308 398.70742,12.2073 518.73052,-26.0796 l 4.855,-153.7469 c -175.1251,54.2652 -361.15577,59.7995 -552.20301,42.9172 z" fill="#FFFFFF" overflow="visible" paint-order="fill markers stroke" transform="translate(72.192742,-51.762468) matrix(0.32912868,0,0,0.32912868,-276.88964,-355.8998)"/><path d="m 1163.157,1659.7749 c -0.5195,-11.9837 -0.3361,-23.156 -0.2616,-33.0334 0.1071,-9.6465 2.8064,-118.5579 3.2289,-130.2803 0.1059,-2.9315 0.4488,-16.7272 0.7634,-30.6573 0.3136,-13.9299 1.1405,-32.3641 1.8353,-40.9649 l 1.2633,-15.6376 -3.8157,-0.1054 c -2.0986,-0.058 -4.1592,0.4174 -4.5787,1.0561 -0.4197,0.639 -2.9085,1.5031 -5.5306,1.9205 -2.6221,0.4173 -10.3029,2.3566 -17.0682,4.3093 -6.7653,1.9526 -12.5501,3.2866 -12.8551,2.9644 -0.3049,-0.3222 -2.7591,0.4344 -5.4538,1.6817 -7.9174,3.6644 -43.2934,11.5394 -69.958,15.5731 -17.9937,2.722 -28.3413,4.6231 -29.9818,5.5086 -0.6431,0.3471 -5.6294,0.7222 -11.0802,0.8334 -5.4511,0.1114 -10.95123,0.7043 -12.22293,1.3177 -5.5267,1.3332 -11.6549,0.6883 -16.5371,1.0812 -26.6841,2.1941 -40.3847,2.7421 -70.5506,2.8215 -41.9715,0.1108 -145.41578,-2.4315 -156.62018,-3.8489 -5.8484,-0.7397 -15.4207,-1.8743 -21.2718,-2.521 -16.3692,-1.8095 -19.1558,-2.1743 -30.5679,-4.0034 -5.8429,-0.9364 -15.2972,-2.4424 -21.0092,-3.3467 -5.712,-0.9042 -11.0809,-2.1054 -11.9309,-2.6693 -2.7798,-1.8444 -6.1891,-1.9182 -6.2383,-0.1352 -0.026,0.9604 0.4281,5.0206 1.0101,9.0228 1.6974,11.6694 2.1914,16.9803 3.2265,34.6806 0.5371,9.1849 1.31,17.6094 1.7175,18.7211 0.4075,1.1117 0.7976,5.6242 0.8668,10.0277 0.069,4.4036 0.3769,14.0158 0.6836,21.3605 0.749,17.9323 -2.8276,146.25 -4.6754,167.7382 -0.6344,9.7737 -8.7977,9.3583 -8.6193,-3.5388 0.1738,-8.4328 -1.0086,-15.8065 -0.1672,-25.1847 -0.3123,-1.8427 -0.4869,-14.7524 -0.3881,-28.6884 0.099,-13.9359 -0.2606,-33.2019 -0.799,-42.8135 -0.5385,-9.6116 -0.8218,-18.0226 -0.6299,-18.6911 0.3248,-1.1311 0.1062,-25.8612 -0.5459,-61.7918 -0.1518,-8.3645 -0.801,-16.2578 -1.4426,-17.5402 -0.6413,-1.2825 -1.3775,-7.3675 -1.6355,-13.522 -0.4972,-11.8607 -1.8461,-28.262 -3.5048,-42.6192 -0.5526,-4.7837 -1.2075,-11.4043 -1.4553,-14.7124 -0.2477,-3.3081 -1.8144,-12.6549 -3.4817,-20.7707 -1.667,-8.1157 -3.2502,-17.463 -3.5181,-20.7716 -0.6383,-7.8833 -3.0347,-22.6151 -6.7406,-41.4365 -1.6475,-8.3667 -2.9432,-17.1001 -2.8795,-19.4076 0.064,-2.3074 -0.7295,-7.5006 -1.7627,-11.5405 -3.94,-15.4065 -4.1069,-19.1857 -0.9503,-21.5239 l 2.8631,-2.1207 -4.193,-5.0502 c -3.1827,-3.8334 -4.0668,-6.0595 -3.6692,-9.2392 0.4663,-3.7284 0.963,-4.156 4.5171,-3.8892 3.5815,0.2688 9.0639,1.9701 21.1601,6.5664 5.0837,1.9318 24.8707,6.2717 37.7856,8.2879 19.0842,2.9789 54.4372,5.8312 71.202,5.7443 8.0708,-0.042 25.1788,-0.094 38.0177,-0.1164 12.8388,-0.022 26.0534,-0.3675 29.3657,-0.7674 6.5724,-0.7934 9.0791,-0.9045 24.0385,-1.0654 5.5038,-0.059 10.5769,-0.421 11.2737,-0.8041 0.6969,-0.3831 8.80788,-0.6716 18.02458,-0.6413 9.2167,0.03 18.8734,-0.4876 21.4594,-1.151 2.5859,-0.6632 14.0239,-1.8821 25.4178,-2.7086 11.3938,-0.8262 26.1384,-2.2372 32.7657,-3.1353 6.6273,-0.8982 13.8562,-1.845 16.0642,-2.1039 2.208,-0.259 7.6308,-1.012 12.0508,-1.6735 4.4199,-0.6614 9.8432,-1.43 12.0517,-1.7081 9.54323,-1.2011 21.58173,-3.1207 23.44543,-3.7384 1.1106,-0.3682 3.5227,-0.7738 5.3602,-0.9014 1.8376,-0.1276 6.9572,-0.766 11.3769,-1.4187 4.4197,-0.6526 11.9523,-1.7303 16.7391,-2.3949 4.7869,-0.6646 10.8171,-1.6786 13.4007,-2.2533 2.5834,-0.5747 7.6867,-1.3411 11.3403,-1.7032 3.6537,-0.3621 7.2749,-1.0793 8.0471,-1.5937 0.7723,-0.5143 3.2077,-1.0481 5.4124,-1.1861 8.0697,-0.5049 27.8968,-3.6197 33.3089,-5.233 3.0595,-0.912 7.6737,-2.0253 10.2538,-2.474 2.5799,-0.4488 5.2898,-1.1506 6.0218,-1.5596 0.732,-0.4089 2.2437,-0.8127 3.3594,-0.8971 1.1157,-0.084 5.9559,-1.0951 10.7562,-2.2459 4.8002,-1.1508 9.331,-2.2041 10.0685,-2.3408 0.7373,-0.1368 3.769,-1.2422 6.7369,-2.4564 9.9591,-4.0744 19.3917,-1.8448 19.2154,4.542 -0.05,1.8152 0.7528,4.6693 1.7844,6.3427 1.6497,2.6762 1.6181,3.8198 -0.2621,9.4948 -3.4355,26.9005 -4.9243,54.7577 -6.2238,80.7496 l -2.0492,40.7648 3.9372,2.9707 c 14.088,5.5415 8.621,18.4526 -1.6829,18.8216 -2.2185,-0.061 -2.6078,0.96 -2.8927,7.5898 -0.1813,4.2133 -0.5967,10.3541 -0.9234,13.6464 -2.125,21.415 -3.3733,49.028 -5.0288,111.2368 -3.2314,121.4315 -3.3961,163.238 -0.784,199.0163 1.8451,25.2735 2.2718,23.1094 -4.5198,22.9219 -10.9937,3.0423 -9.4558,-80.4507 -10.2603,-98.9873 z M 916.79217,1432.3782 c 13.2084,-0.1215 28.829,-0.6534 34.7125,-1.1818 5.8836,-0.5286 17.013,-1.4402 24.7321,-2.0259 7.7191,-0.5856 18.1379,-1.531 23.1529,-2.101 10.07503,-0.514 19.33913,-1.7036 28.24793,-3.2401 10.501,-0.045 20.5397,-3.4818 29.5898,-4.4055 6.6074,-0.6553 13.0702,-1.7193 14.3618,-2.3645 1.2918,-0.6452 3.4069,-1.1652 4.7003,-1.1555 2.1504,0.016 21.8164,-4.7737 36.6116,-8.9171 3.327,-0.9318 13.9224,-4.244 23.5454,-7.3606 18.7573,-6.0748 18.8996,-6.1165 26.6643,-7.7995 2.8262,-0.6127 5.5519,-1.5051 6.0571,-1.9832 1.1453,-1.0837 1.0945,-0.3959 3.2954,-44.5981 2.9467,-59.1792 4.4452,-78.2652 6.7135,-85.514 0.795,-2.5403 -3.2092,-3.4296 -5.5543,-1.2335 -0.7154,0.6699 -2.8085,1.4767 -4.6512,1.7927 -1.8428,0.3161 -7.5802,1.5919 -12.7498,2.8353 -14.6782,3.5302 -22.5899,5.2894 -25.4995,5.6701 -1.4726,0.1926 -5.6949,0.9419 -9.383,1.6648 -15.6342,3.0652 -26.2388,4.7561 -42.6427,6.7993 -5.027,0.6262 -10.1602,1.6488 -11.407,2.2723 -1.2467,0.6237 -5.272,1.3866 -8.9448,1.6955 -12.9913,1.0924 -18.7588,1.6708 -22.7315,2.2794 -20.1458,3.0862 -28.4651,4.2948 -38.83723,5.6419 -6.6263,0.8605 -16.8697,2.2921 -22.7631,3.1811 -20.8216,3.1408 -79.0116,8.7271 -98.2979,9.4367 -6.9764,0.2567 -15.69038,0.644 -19.36448,0.8604 -3.674,0.2165 -11.784,0.4664 -18.0222,0.5554 -6.2381,0.089 -14.9508,0.4295 -19.3616,0.7571 -4.4107,0.3276 -17.9259,0.6911 -30.0337,0.8077 -12.1078,0.1167 -22.4693,0.4761 -23.0256,0.7985 -2.4742,1.4344 -46.4903,-1.3426 -55.5963,-3.507 -3.2797,-0.7797 -11.0509,-1.933 -17.2691,-2.5629 -15.6192,-1.5823 -24.9737,-3.4024 -40.9106,-7.9609 -7.5231,-2.1519 -13.9765,-3.6304 -14.341,-3.2855 -0.3644,0.3449 0.4663,2.9996 1.8461,5.8993 2.6103,5.4853 3.956,12.4748 6.5304,33.9172 0.8395,6.9925 2.6447,19.0469 4.0113,26.7876 2.9603,16.7641 4.9427,28.6058 7.5157,44.8911 1.0476,6.6314 2.7312,13.0602 3.7413,14.2858 1.0914,1.3243 3.9691,2.3169 7.0926,2.4463 2.8907,0.1198 5.9964,0.7087 6.9011,1.3087 0.905,0.6 2.542,1.2242 3.6379,1.3872 1.0959,0.1636 6.7734,1.0591 12.6166,1.9914 5.8432,0.9323 17.5024,2.5704 25.9094,3.6404 8.4069,1.07 18.571,2.5125 22.5868,3.2058 8.3373,1.4392 140.42078,4.7206 176.61278,4.3876 z m -183.26338,-22.2507 c -1.7771,-1.3762 -2.2202,-3.7896 -2.041,-11.1173 0.1261,-5.1477 0.3929,-9.9297 0.5919,-10.6265 2.8142,-18.7266 -9.124,-61.903 5.0216,-59.9598 1.921,-0.4591 3.7267,0.2974 5.4928,2.3013 2.1522,2.4418 3.4449,2.826 7.1026,2.1111 5.5563,-1.0862 8.862,-1.4466 19.8465,-2.1638 4.7771,-0.3119 9.9093,-1.2942 11.4049,-2.1829 3.2323,-1.9207 8.3159,-0.305 9.4859,3.0151 1.0982,3.1169 -3.857,11.3865 -6.2314,10.3993 -1.0305,-0.4284 -5.5794,-0.2795 -10.1088,0.3321 -4.5292,0.6111 -12.5995,1.6464 -17.9337,2.301 -5.3341,0.6546 -9.9977,1.6459 -10.3636,2.2028 -0.3658,0.557 -0.141,4.5608 0.4994,8.8975 l 1.1645,7.8848 15.6047,-0.5375 c 8.5824,-0.2956 17.7461,-0.7941 20.3633,-1.1079 5.7974,-0.6951 9.4653,1.8015 9.8515,6.7057 0.2182,2.7695 -0.298,3.5327 -2.3513,3.476 -1.447,-0.04 -6.9774,0.6595 -12.29,1.5545 -5.3124,0.8949 -13.834,1.8767 -18.9369,2.1815 -5.1028,0.3051 -9.5281,0.7916 -9.8341,1.081 -0.3061,0.2896 -0.9987,7.6068 -1.539,16.2603 -0.7965,12.7555 -1.4151,16.0375 -3.2673,17.3381 -2.9458,2.0683 -8.6353,1.8973 -11.5325,-0.3465 z m 113.1177,0.2107 c -1.7497,-1.849 -3.1421,-4.7386 -3.0944,-6.4212 3.0167,-17.6679 2.6243,-40.6197 6.0978,-57.2575 0.915,-4.234 1.5154,-7.9447 7.9282,-7.322 0,0 4.44878,2.3922 6.02448,4.2875 3.0672,3.6892 6.0642,13.0532 6.0642,13.0532 6.5402,14.0778 12.6096,23.2378 15.4491,23.3162 1.2034,0.033 1.8949,-1.9913 2.1443,-6.2765 0.2027,-3.4791 0.6201,-9.6199 0.9282,-13.6463 0.308,-4.0263 0.7596,-11.3076 1.0035,-16.1806 0.4814,-9.6139 2.0865,-12.1349 8.6474,-13.5809 6.0289,-1.3288 9.0853,0.5229 8.95,5.4222 -0.065,2.3696 -0.6872,4.863 -1.3817,5.5408 -0.6944,0.6777 -2.0405,14.5074 -2.9912,30.7327 -0.9508,16.2253 -2.2049,31.4965 -2.7869,33.936 -1.0105,4.2348 -1.3204,4.4225 -6.8434,4.1457 -4.7679,-0.2382 -6.2582,-0.9805 -8.476,-4.2184 -1.4801,-2.1608 -5.1803,-6.6782 -8.2224,-10.0387 -7.6125,-8.4086 -11.8947,-13.9968 -12.0108,-15.6736 -0.054,-0.7772 -1.0512,3.3626 -2.2164,9.1993 -1.1654,5.8367 -1.87298,12.4197 -1.5728,14.6289 0.6085,4.4769 -0.18778,5.8954 -4.61008,8.2091 -4.2328,2.2148 -5.4073,1.9734 -9.031,-1.8559 z m -39.8331,-8.179 c -3.7328,-3.6035 -3.8996,-4.2558 -3.3471,-13.0974 0.3199,-5.1176 1.0987,-17.5417 1.7308,-27.6089 1.2316,-19.6153 1.8902,-21.3538 8.6596,-22.8556 2.2375,-0.4963 4.646,0 6.5878,1.3461 3.0421,2.1155 3.0539,2.2647 1.9457,24.5434 -1.5887,31.9365 -2.2259,35.7845 -6.4428,38.9172 -4.4266,3.2883 -4.4397,3.2864 -9.134,-1.2448 z m 123.35598,-1.4844 c -2.9409,-3.2295 -2.9979,-3.8826 -2.0362,-23.3391 1.0573,-21.3902 2.3094,-28.6747 5.4372,-31.6346 2.9722,-2.8125 8.6417,-2.7886 11.0688,0.047 1.8483,2.1592 1.9563,5.5819 0.846,26.846 -1.4266,27.3263 -2.6187,31.6702 -8.6456,31.5038 -2.115,-0.058 -4.9144,-1.4949 -6.6702,-3.423 z m 44.1342,-4.8794 c -6.304,-4.5155 -10.6629,-10.4875 -9.5712,-13.1135 -2.0629,-7.7063 15.4657,-6.98 18.4245,1.5714 1.0595,3.1423 11.415,2.1339 14.7006,-1.4315 3.59933,-4.772 1.0022,-11.4583 -2.3693,-15.2481 -5.2563,-5.8217 -9.2422,-12.2636 -10.4185,-16.8383 -1.6964,-6.5968 3.9669,-17.7747 11.4055,-22.5117 5.53033,-3.5218 6.75683,-3.7637 15.77863,-3.1122 7.8557,0.5672 10.1434,1.2302 11.6167,3.3664 3.5291,5.1169 1.7014,6.5876 -7.9353,6.3847 -8.0314,-0.1687 -9.3263,0.1933 -13.2148,3.6953 -7.68313,6.9194 -7.66433,7.1014 2.0381,19.8351 9.9729,13.0883 12.2027,18.4998 10.2119,24.7816 -5.9798,12.1206 -18.61613,16.1084 -29.86463,16.1236 -4.3043,-0.026 -7.3054,-0.9981 -10.8022,-3.5028 z m 108.90623,-0.4025 c -6.4071,-3.4943 -7.1594,-5.4849 -6.0264,-15.9465 l 1.0245,-9.4598 -11.7658,-0.3248 -11.7658,-0.3249 -0.3843,10.8366 c -0.4427,12.4458 -1.9562,15.1087 -8.4891,14.9283 -7.1575,-0.1976 -8.9786,-3.2821 -7.5492,-12.7868 0.6669,-4.4345 1.5671,-14.3553 2.0006,-22.0463 0.849,-15.0644 3.6829,-36.8474 5.3032,-40.7626 1.8835,-4.5511 5.55,-7.2582 8.4592,-6.2457 1.5165,0.5279 2.7973,1.6708 2.8459,2.5397 0.2587,4.6169 -1.4055,36.2473 -1.9507,37.0773 4.1492,2.6513 15.2118,3.9225 19.2888,3.0193 l 5.8583,-1.4053 -0.2199,-18.38 c -0.121,-10.1089 0.1862,-20.4209 0.6826,-21.1286 2.2419,-5.1813 9.8608,-5.1886 12.7872,3.1137 2.1005,5.9911 2.9985,26.284 2.0221,45.6937 -0.2951,5.8608 -0.7384,15.2521 -0.9856,20.8697 -0.2472,5.6175 -0.7574,10.4808 -1.1332,10.8073 -2.1183,1.8398 -6.5523,1.807 -10.0017,-0.074 z m -269.39581,-70.6365 c -2.9668,-1.6645 -4.6287,-3.6706 -4.8615,-5.8678 -0.3125,-2.951 0.3704,-3.5199 5.8818,-4.9002 7.4759,-1.8722 10.109,-0.5858 11.1724,5.4587 1.2574,7.1474 -4.4705,9.6415 -12.1927,5.3093 z m 120.35728,-1.5851 c -6.2844,-6.5752 -4.1111,-9.2338 1.1719,-10.9134 10.3356,-3.286 15.0948,-0.4283 10.4663,9.4381 -1.8234,5.9378 -5.1752,6.2869 -11.6382,1.4753 z" fill="#00B894" transform="translate(72.192742,-51.762468) matrix(0.32912868,0,0,0.32912868,-276.88964,-355.8998)"/></svg>