<?xml version="1.0" ?><svg height="108.47931mm" viewBox="0 0 95.401611 108.47931" width="95.401611mm" xmlns="http://www.w3.org/2000/svg">
    <path d="m -915.33489,1680.2529 c 2.08864,-1.8003 14.70882,0.7943 23.3576,0.1324 8.64878,-0.6619 34.7128,-2.5945 39.06663,-1.9327 4.35379,0.6619 9.79606,27.5868 10.35499,41.1949 0.55894,13.608 -14.29699,43.2598 -26.41703,53.2938 -12.12006,10.034 -15.5031,11.0135 -26.74064,1.562 -11.23752,-9.4515 -22.94575,-31.0549 -24.24012,-47.8665 -1.29437,-16.8115 4.61857,-46.3839 4.61857,-46.3839 z" fill="#FFFFFF" paint-order="markers stroke fill" transform="translate(-229.16369,-227.65864) translate(1152.073,-1447.5142)"/>
    <path d="m -4309.5115,1330.7307 c -9.9317,-5.2865 -25.461,-28.678 -29.2717,-44.0921 -2.2687,-9.1776 -2.1292,-24.0092 0.3932,-41.7594 2.7724,-19.51 1.0211,-18.5255 33.8457,-19.0307 14.0267,-0.2164 27.7667,-0.5229 30.534,-0.6825 9.1489,-0.5272 14.6828,7.4965 16.524,23.9581 0.7858,7.0247 0.9589,7.3164 6.6531,11.2179 4.0658,2.7858 5.846,4.7983 5.846,6.6082 0,3.6625 -2.8509,5.4919 -7.7161,4.9501 -4.4477,-0.4951 -5.4275,0.4859 -5.4275,5.4342 0,3.3733 -5.8685,19.7725 -9.5632,26.7248 -7.96,14.9783 -24.6954,29.653 -33.7122,29.5612 -1.5005,0 -5.1477,-1.3158 -8.1053,-2.8898 z m 3.0795,-9.3331 c -2.3895,-12.4893 -2.3802,-12.6537 0.8001,-14.0356 2.2259,-0.9673 3.6316,-0.9695 5.5145,0 3.1141,1.5896 4.1122,5.1068 3.5694,12.5781 -0.2304,3.1576 -0.088,5.7405 0.3115,5.7403 0.4004,-3e-4 3.1324,-2.0193 6.0714,-4.4863 7.3033,-6.1312 17.0738,-19.9294 21.2044,-29.9465 3.7383,-9.0652 5.4457,-20.3891 3.3721,-22.3666 -0.9135,-0.8712 -0.9036,-1.6584 0.034,-2.7365 0.9171,-1.0539 1.0201,-5.3028 0.3387,-14.0081 -0.9291,-11.8733 -3.1162,-19.8774 -5.876,-21.5037 -0.691,-0.4074 -4.493,0.3003 -8.4485,1.5701 -9.4456,3.0346 -30.2201,3.2103 -41.4724,0.3509 -12.6959,-3.2268 -12.5993,-3.4639 -12.8409,31.5881 -0.2539,12.614 -1.8554,18.6275 3.3561,29.629 6.2457,13.1844 20.1363,31.908 23.6717,31.908 0.7492,0 0.9,-1.6311 0.3942,-4.2734 z m 0.9985,-19.6057 c -4.4621,-0.9028 -6.4677,-1.9986 -6.4677,-3.5332 0,-0.6579 1.0999,-0.8163 2.5718,-0.3709 4.3844,1.3272 11.8234,0.7416 14.8854,-1.1719 3.1913,-1.9942 5.5139,-1.445 4.5038,1.0653 -1.1631,2.8903 -9.8784,5.1468 -15.4933,4.0107 z m -19.2228,-8.5521 c -3.796,-1.5749 -8.4986,-6.9369 -7.1834,-8.1911 0.3837,-0.3663 2.4188,-0.094 4.5221,0.6053 5.5427,1.8429 9.5118,1.5729 14.819,-1.0078 2.5779,-1.2534 5.3228,-2.279 6.0992,-2.279 2.2283,0 2.9278,3.1744 1.4029,6.3666 -2.7202,5.6933 -11.7875,7.7717 -19.6598,4.506 z m 30.4098,-2.3928 c -4.0029,-2.0719 -6.083,-5.5516 -5.0939,-8.5229 0.9511,-2.8584 3.5789,-2.8432 7.4263,0.042 3.8138,2.861 12.3605,3.0332 17.1323,0.3446 4.4507,-2.5074 5.7827,-1.1445 2.7446,2.8079 -4.9375,6.423 -15.2929,8.9068 -22.2093,5.3274 z m -22.21,-10.8319 c 0.7892,-2.2568 12.2749,-7.8489 14.0151,-6.8229 2.5255,1.4881 0.603,4.532 -4.0276,6.3775 -4.8597,1.9364 -10.5978,2.1925 -9.9875,0.4454 z m -7.0702,-14.4419 c -0.8955,-2.2257 3.7014,-5.9978 7.3097,-5.9978 3.5883,0 7.9005,3.1132 7.9005,5.7032 0,1.8803 -0.9234,2.151 -7.244,2.1223 -5.4672,-0.032 -7.4213,-0.4733 -7.9662,-1.8277 z m 25.5218,0.2455 c -1.0114,-2.5135 3.4559,-6.242 7.4795,-6.242 4.4269,0 9.1607,3.5436 8.1358,6.0905 -1.0524,2.6153 -14.5713,2.7467 -15.6153,0.1517 z m -1.1834,-7.0324 c -1.7112,-1.632 -0.5727,-4.8854 2.522,-7.2071 7.1701,-5.3798 17.617,-7.4094 20.5845,-3.9995 1.235,1.419 0.6836,1.7961 -3.5785,2.4464 -2.7713,0.4224 -7.7483,2.5072 -11.0603,4.6329 -3.3118,2.1255 -6.3999,4.0876 -6.8626,4.3602 -0.4622,0.2714 -1.1848,0.168 -1.6051,-0.2325 z m -11.7753,-3.6047 c -4.6735,-3.8767 -11.8549,-6.3268 -15.3992,-5.2541 -1.8477,0.5595 -2.4017,0.3466 -2.0119,-0.772 0.8143,-2.3388 6.0256,-3.666 10.9407,-2.7868 5.1542,0.9222 12.702,6.8094 12.702,9.9074 0,2.996 -1.6492,2.7066 -6.2316,-1.0945 z m 63.5868,11.8258 c 0,-0.9274 -2.1508,-2.7329 -4.7795,-4.0117 l -4.7795,-2.3254 v 3.3468 c 0,3.6044 1.1509,4.4463 6.2729,4.5864 2.1467,0.058 3.2861,-0.4945 3.2861,-1.5961 z" fill="#00B894" transform="translate(-229.16369,-227.65864) translate(1152.073,-1447.5142) translate(3417.4795,450.03122)"/>
</svg>