<?xml version="1.0" ?><svg height="125.51358mm" viewBox="0 0 87.81208 125.51358" width="87.81208mm" xmlns="http://www.w3.org/2000/svg">
    <path color="#000" d="m 13368.481,5882.3127 c -0.688,-26.4173 -0.172,-49.8906 -28.148,-80.7236 -27.977,-30.8329 -46.09,-98.207 -61.548,-138.5159 -75.798,-197.648 7.691,-112.0349 41.06,-22.3113 -80.855,-300.4618 -21.278,-178.9786 58.363,-12.1627 40.345,-239.0428 92.327,-303.4239 52.768,-25.4101 84.21,-255.5517 77.279,-136.4977 67.573,-6.0427 103.539,-45.9735 43.482,32.6848 4.908,94.978 8.473,31.3477 25.41,60.6203 -54.835,113.7255 l 3.788,56.8629 c 0,0 -17.303,33.9318 -83.929,19.5999 z" fill="#FFFFFF" overflow="visible" paint-order="fill markers stroke" transform="translate(-87.501953,-20.202735) matrix(0.26458333,0,0,0.26458333,-3414.5819,-1411.5797)"/>
    <path d="m 13361.454,5879.714 c -2.306,-11.4294 -2.843,-25.3668 -4.069,-34.5264 -4.809,-20.2644 -16.816,-23.6489 -26.542,-37.3162 -12.442,-21.157 -23.439,-37.6412 -39.501,-79.3194 -15.278,-41.4462 -38.944,-110.4587 -50.788,-152.5029 -0.304,-0.385 -0.43,-0.9073 -0.28,-1.1606 0.149,-0.2534 0.02,-1.1135 -0.291,-1.9113 -0.311,-0.7979 -0.666,-2.7964 -0.79,-4.4412 -0.123,-1.6447 -0.765,-4.363 -1.427,-6.0408 -0.762,-1.9324 -1.158,-4.1327 -1.082,-6.0039 0.07,-1.6243 -0.08,-3.643 -0.309,-4.4859 -0.26,-0.9295 -0.183,-1.685 0.198,-1.9201 0.345,-0.2131 0.636,-1.6126 0.647,-3.1097 0.02,-3.5121 1.626,-6.8503 3.967,-8.2743 1.021,-0.6202 2.016,-1.5831 2.214,-2.1398 0.197,-0.5567 1.773,-2.3831 3.502,-4.0587 12.236,-10.6875 25.978,7.3177 35.01,15.5225 0.201,0 0.161,-1.2404 -0.09,-2.7563 -3.911,-26.5754 -10.638,-53.8779 -11.169,-78.802 -0.09,-5.1227 -0.312,-9.5619 -0.49,-9.8647 1.778,-23.2601 26.339,-16.6633 39.57,7.6399 31.697,61.4732 58.19,161.577 67.869,134.1964 9.544,-27.285 13.035,-91.1136 32.128,-169.6773 2.052,-17.2832 27.156,-23.0444 35.892,-10.6967 14.668,13.221 20.601,38.9438 5.563,94.104 -3.287,12.0584 -7.817,42.1754 -7.817,42.1754 9.311,-18.7359 11.207,-39.4733 19.842,-79.638 0.114,-0.6244 0.454,-1.2872 0.755,-1.4729 0.3,-0.1857 0.639,-1.2415 0.753,-2.3462 2.319,-8.5235 4.557,-19.6145 10.24,-26.3804 0.563,-0.6383 1.188,-1.5523 1.389,-2.031 1.484,-3.547 3.206,-5.5272 5.082,-5.8458 34.281,-7.4854 50.784,62.3414 28.963,140.7463 0,0.7754 -0.304,2.0761 -0.675,2.8903 -0.875,1.9211 -0.142,2.6507 1.011,1.0054 0.489,-0.6988 1.365,-1.2705 1.946,-1.2705 0.582,0 1.36,-0.3645 1.729,-0.8098 5.621,-2.7041 11.84,-5.4724 17.459,-8.1165 16.997,-5.5008 43.343,15.2749 34.469,34.9531 -9.429,26.9923 -29.947,45.836 -42.048,69.3926 -1.351,2.7651 -1.427,2.8879 -6.546,10.647 -3.275,4.9661 -3.956,6.4134 -4.046,8.6158 -0.09,2.0369 0.133,2.7771 0.944,3.2111 0.769,3.5859 1.999,13.5865 4.212,17.9716 0.501,0.9699 0.912,3.1779 0.912,4.9068 0,1.7288 0.216,3.8989 0.481,4.8223 0.274,0.9574 0.254,1.9063 -0.04,2.2083 -0.365,58.1414 -64.373,67.3848 -63.191,88.8314 -0.01,8.7069 2.242,27.9886 3.285,30.2934 2.606,5.755 3.174,9.4182 1.802,11.6154 -1.415,9.3859 -22.044,19.0121 -22.832,-6.408 -0.218,-1.4278 -0.598,-2.8573 -0.844,-3.1764 0.882,-22.7451 -7.301,-46.3624 12.211,-58.3178 1.756,-1.0705 3.724,-2.4155 4.374,-2.9889 0.65,-0.5734 1.755,-1.13 2.456,-1.2369 0.701,-0.1067 1.883,-0.7666 2.627,-1.4659 0.744,-0.6994 1.648,-1.2716 2.009,-1.2716 21.37,-15.6993 46.66,-40.4268 35.381,-67.5894 -3.125,-11.9551 -9.098,-28.3658 -0.279,-39.1078 0.927,-1.0766 1.991,-2.6433 2.362,-3.4817 14.321,-20.0187 27.673,-36.5521 39.354,-58.1014 0.275,0 0.499,-0.3596 0.499,-0.7993 0,-0.4396 0.404,-1.1343 0.897,-1.5436 0.494,-0.4094 0.766,-1.0858 0.606,-1.5032 -0.16,-0.4174 -0.06,-0.9037 0.23,-1.0808 -4.192,-35.0322 -52.6,8.0453 -61.552,27.2474 -0.64,1.4473 -1.359,2.6315 -1.598,2.6315 -10.279,22.5813 -17.3,44.9858 -22.993,66.4823 -1.94,3.78 -8.741,6.5573 -10.997,1.6149 -0.266,-0.6922 -1.01,-0.7971 -3.651,-0.5158 -12.313,2.248 -23.455,12.3103 -30.198,19.7059 -1.516,1.661 -3.475,4.4394 -4.353,6.1743 -7.046,10.1099 -12.672,12.9393 -18.61,2.4506 -1.379,-2.23 2.978,-12.4203 7.368,-17.2336 0.998,-1.0937 2.858,-3.3033 4.134,-4.9105 4.837,-5.9418 4.885,-5.9065 9.575,-8.0128 0.479,-0.209 1.785,-1.1282 2.901,-2.043 3.243,-2.6552 3.416,-2.7832 3.76,-2.7832 3.925,-2.2893 9.094,-5.9157 13.649,-6.733 0.478,-0.076 2.414,-0.5264 4.3,-1.0005 1.888,-0.4742 3.739,-0.7441 4.115,-0.5999 0.376,0.1443 0.949,-0.076 1.276,-0.4895 0.569,-0.7205 1.517,-3.5776 1.603,-4.8323 0.09,-1.2463 1.617,-5.8744 2.68,-8.1053 9.92,-29.3801 14.173,-46.5326 34.546,-71.3715 0.92,-1.1407 3.004,-3.4445 4.631,-5.1195 2.819,-2.9041 2.989,-3.2588 3.638,-7.6276 4.133,-24.4891 17.203,-59.5175 17.617,-83.2913 -0.912,-13.9038 -2.719,-32.4935 -5.933,-42.6503 -6.179,-19.2542 -10.598,-2.1006 -14.65,7.2304 -14.096,48.5174 -16.564,61.428 -36.415,118.195 0,0.6263 -1.912,5.4427 -2.854,7.1869 -0.264,0.4892 -0.677,1.7863 -0.917,2.8824 -0.241,1.096 -0.657,2.393 -0.925,2.8823 -7.375,25.1968 -24.137,7.177 -21.576,-15.0405 9.554,-87.3447 26.124,-112.4331 15.809,-145.1636 -3.912,-12.4105 -10.769,-11.8405 -13.879,-0.4281 -15.474,103.9455 -18.098,121.6753 -27.839,155.9179 -5.848,37.216 -39.3,35.4882 -42.315,21.9459 -19.686,-48.236 -36.019,-98.8328 -51.905,-134.7208 -0.799,-1.7466 -1.452,-3.6001 -1.452,-4.119 0,-0.5188 -0.889,-2.8205 -1.975,-5.1145 -11.366,-27.4593 -7.229,-2.4513 -5.042,19.8818 1.536,10.289 4.463,21.4496 6.173,30.493 1.143,6.1869 2.292,10.8276 3.043,12.2895 0.299,0.5813 0.717,2.1949 0.931,3.586 0.212,1.3912 0.867,3.5263 1.457,4.7446 5.385,21.3276 10.422,43.2602 18.413,61.2717 0.842,1.8748 1.614,4.0616 1.716,4.8595 0.336,2.6057 0.566,3.3515 1.321,4.2615 0.41,0.4933 0.821,2.0299 0.915,3.4145 0.1,1.3846 0.782,3.6839 1.53,5.1095 0.748,1.4255 1.418,3.1141 1.49,3.7524 5.172,13.9053 -5.927,21.4689 -14.138,18.0187 -20.679,-38.451 -31.547,-59.8548 -46.618,-85.9111 -0.781,-1.2765 -1.35,-2.531 -1.265,-2.7873 0.09,-0.2565 -0.254,-0.8755 -0.755,-1.3757 -9,-14.6983 -12.468,-10.1009 -8.565,5.5805 0.111,2.0928 0.498,4.8495 0.857,6.1261 0.36,1.2766 0.699,2.7128 0.754,3.1916 5.192,18.7782 24.037,79.2605 40.801,118.1469 0,0.3589 0.523,1.7333 1.161,3.0545 0.638,1.3211 1.161,2.7744 1.161,3.2295 0,0.455 0.391,1.1524 0.87,1.5498 0.479,0.3973 0.87,1.3309 0.87,2.0747 0,1.4744 1.131,4.3867 1.924,4.9534 0.273,0.1953 0.482,0.5189 0.463,0.7193 -0.08,0.7802 1.951,6.2296 3.189,8.5898 0.444,0.847 0.807,1.8988 0.807,2.3371 0,0.4383 0.784,2.3068 1.741,4.1522 0.957,1.8453 1.741,3.862 1.741,4.4811 0,0.6193 0.249,1.1259 0.553,1.1259 11.825,32.7844 22.087,47.6535 34.749,65.7163 13.235,14.1257 27.24,26.4324 29.986,42.7954 2.332,6.4222 3.21,15.1315 3.356,21.1257 0.536,20.2399 -15.807,29.5458 -20.29,18.043 z" fill="#00B894" transform="translate(-87.501953,-20.202735) matrix(0.26458333,0,0,0.26458333,-3414.5819,-1411.5797)"/>
</svg>