<?xml version="1.0" ?><svg height="103.37129mm" viewBox="0 0 153.32373 103.37129" width="153.32373mm" xmlns="http://www.w3.org/2000/svg">
    <path color="#000" d="m 11261.987,5444.8416 c 0,0 58.834,54.163 75.398,60.0312 16.563,5.8683 113.621,6.138 113.621,6.138 0,0 25.484,-29.8807 69.403,-24.2822 43.92,5.5984 104.216,6.8358 160.315,-26.7106 33.951,-20.3026 79.969,129.7079 79.969,129.7079 -26.495,29.7634 -64.129,-12.2451 -96.608,61.3127 -14.294,32.3715 -69.927,119.0508 -69.927,119.0508 -18.038,-5.4697 -31.512,-1.8072 -30.879,30.083 -9.204,15.9997 -21.631,10.9277 -33.727,8.0267 -28.241,13.0673 -53.413,22.1124 -48.416,-8.3639 -28.144,11.4111 -59.571,28.3093 -48.267,-26.2384 -30.315,36.1492 -85.277,-2.4122 -57.036,-35.007 -23.035,-5.3581 -56.165,-1.2597 -42.195,-41.2798 -41.608,-109.4819 -119.398,-84.4883 -132.359,-99.5574 z" fill="#FFFFFF" overflow="visible" paint-order="fill markers stroke" transform="translate(60.069957,-324.6189) matrix(0.26458333,0,0,0.26458333,-3021.538,-1113.9299)"/>
    <path d="m 11485.957,5826.1539 c -6.05,-2.6913 -11.32,-11.3896 -10.259,-16.9347 0.807,-4.2254 -0.284,-4.1165 -8.902,0.8872 -17.688,10.2718 -29.414,9.5381 -37.599,-2.3523 -4.333,-6.2935 -5.597,-17.7908 -2.48,-22.5483 3.157,-4.8176 2.027,-6.6694 -1.426,-2.8187 -6.412,7.1536 -17.604,14.8241 -17.604,14.8241 -22.341,14.7178 -49.401,-25.2658 -48.544,-41.3596 0.243,-1.5527 2.957,-5.3377 6.03,-8.411 3.073,-3.0733 5.588,-5.923 5.588,-6.3327 0,-0.4097 -2.245,-0.386 -4.988,0.053 -26.586,9.7306 -39.617,-9.8472 -41.24,-25.1128 -1.148,-12.2957 1.241,-17.6092 11.228,-24.9709 12.371,-9.119 20.528,-13.9467 37.837,-22.3967 17.579,-9.7632 45.092,-25.127 61.846,-23.3274 6.312,0.7058 7.744,1.3805 10.445,4.9205 1.907,2.501 3.419,6.5418 3.869,10.3504 0.789,6.5445 1.209,13.0106 -6.715,22.086 -4.238,4.8535 -2.468,8.0916 0.847,4.0976 11.378,-9.1362 29.151,-10.6399 38.437,-2.1249 5.548,5.3892 7.256,9.2432 6.148,13.8753 -1.265,5.2885 -7.883,19.4475 -10.407,22.2665 -1.255,1.4011 -2.635,3.5466 -3.066,4.7677 -0.596,1.6853 1.435,1.002 8.43,-2.8369 8.883,-4.2732 20.721,-11.8613 30.201,-7.4248 2.294,1.0349 6.456,4.5231 7.419,2.1891 6.974,-2.8541 16.139,3.4721 16.139,10.2814 0,1.9888 -1.418,7.5483 -3.152,12.3545 -1.734,4.8059 -3.152,9.1676 -3.152,9.6924 0,0.5249 2.277,0.5901 5.061,0.145 3.445,-2.4454 10.877,4.2319 12.383,2.1333 3.591,-3.7663 7.615,-1.2995 9.674,1.1175 3.458,3.8017 4.782,10.1177 9.292,8.3176 9.979,-2.6172 10.39,6.8562 26.443,0.1428 7.409,-3.1208 6.635,-21.9708 4.582,-27.8825 3.708,-22.527 32.644,-11.8535 33.432,-35.4516 0,-1.7528 -0.749,-3.9365 -1.663,-4.8529 -5.504,-5.5125 -1.377,-12.7352 7.994,-13.9921 6.927,-0.9292 7.843,-2.016 8.514,-10.1047 0.435,-5.2488 -0.05,-7.9683 -2.201,-12.1722 -3.205,-9.638 -107.119,-85.3992 -151.721,-78.2109 -35.557,16.6137 -87.802,78.3926 -119.91,39.8463 -21.323,-16.4557 35.664,-70.5957 53.927,-90.9412 3.791,-4.1607 6.722,-7.7364 6.514,-7.946 -0.527,-0.531 -10.115,-1.3106 -27.104,-2.2033 -33.103,-2.3161 -75.632,6.4484 -93.829,-20.2009 -3.866,-2.8865 -5.174,-4.7325 -5.137,-7.2498 0.09,-5.534 -1.157,-3.9275 -4.929,6.3943 -14.871,35.5285 -28.819,65.9721 -48.707,105.6206 0,0.481 0.76,0.5831 1.689,0.2267 8.323,1.5641 15.171,6.2007 23.739,8.4956 10.253,2.6741 27.528,13.6361 27.528,17.4689 7.307,10.1727 12.621,22.006 18.114,33.673 2.124,4.5075 3.901,8.4791 3.95,8.8259 0.05,0.3466 0.828,1.9598 1.728,3.5846 2.112,3.8076 0.985,7.8004 -3.014,10.6769 -5.387,3.875 -6.443,2.997 -18.675,-15.5224 -2.976,-4.5074 -6.175,-10.1813 -7.106,-12.6084 -8.409,-30.2482 -28.901,-28.7008 -54.878,-39.8875 -1.437,-1.4377 -2.462,-1.6622 -3.383,-0.741 -1.221,1.2213 -8.598,1.0557 -18.115,-0.4063 -6.676,-2.4333 -33.121,-4.1951 -32.1,-19.2494 4.089,-13.1601 11.841,-27.7047 17.851,-43.1043 12.554,-42.1825 34.519,-93.8683 41.968,-109.7028 4.463,-20.2239 33.779,8.969 41.942,14.0285 7.29,4.1706 9.732,7.4099 8.893,11.7965 -0.347,1.8185 0.289,3.3564 1.772,4.2825 1.272,0.7946 2.314,2.291 2.314,3.3254 0,1.0344 0.911,1.8805 2.025,1.8805 1.114,0 4.092,1.6025 6.619,3.5612 7.15,5.5421 17.615,13.5589 25.069,15.5318 28.51,4.3434 95.764,3.3475 104.683,6.63 17.203,-21.1207 27.367,-29.3653 49.651,-29.4731 42.944,-0.3865 87.932,9.789 124.009,5.1109 9.513,-1.4304 23.872,-5.9621 31.953,-10.0852 3.898,-1.9885 4.876,-3.1215 4.369,-5.0613 -0.754,-2.8817 3.307,-8.7285 5.545,-7.9826 11.492,-3.5549 23.094,-9.7554 35.953,-10.0902 5.677,-0.041 8.11,1.7772 9.236,6.9031 0.467,2.1283 4.9,9.7902 9.852,17.0265 4.952,7.2363 10.086,14.9593 11.41,17.1622 19.83,33.222 44.636,84.9626 44.346,100.1381 -0.401,1.2636 -2.309,3.2305 -4.24,4.3709 -1.93,1.1403 -7.169,4.9984 -11.641,8.5735 -10.382,8.2995 -15.289,10.3436 -23.624,9.8409 -28.983,-1.6558 -50.77,19.2368 -63.631,39.3773 -4.837,5.9976 -5.474,7.4359 -4.463,10.0868 3.185,8.3455 -2.906,26.3648 -10.295,30.4562 -2.913,1.6136 -3.878,3.0371 -3.878,5.7223 0,4.2826 -3.502,14.4767 -6.96,20.2663 -2.641,4.4213 -11.168,11.317 -21.065,17.0346 -7.039,3.5311 -5.96,3.3508 -5.855,10.8777 0.146,10.345 -4.249,23.1609 -9.136,26.6406 -4.89,3.482 -17.699,6.0787 -25.987,5.2682 -7.669,-0.7502 -8.192,-0.052 -9.663,12.9095 -1.837,16.1742 -6.468,23.0379 -17.306,25.6545 -5.057,1.2208 -7.197,1.0055 -16.297,-1.6404 -9.384,-2.7282 -10.836,-2.8599 -13.923,-1.2634 -1.896,0.9804 -3.64,2.2756 -3.876,2.8784 -10.417,7.2503 -23.18,15.3932 -34.642,10.329 z m 16.258,-16.8189 c 16.286,-7.7471 52.177,-35.516 45.822,-50.9508 -0.23,-0.2304 -4.878,0.052 -6.532,1.7954 -15.928,9.2293 -32.615,26.8946 -45.647,43.8754 -3.877,5.2275 1.011,9.4612 6.357,5.28 z m 51.98,-8.992 c 1.87,-4.6952 2.469,-15.8209 0.851,-15.8209 -0.646,0 -2.05,1.3382 -3.123,2.9737 -2.65,4.3562 -14.081,12.4959 -10.567,15.2204 1.251,0.9492 4.307,1.6683 6.79,1.5978 3.805,-0.1078 4.758,-0.733 6.049,-3.971 z m -35.256,-60.852 c -0.12,-2.8695 0.802,-6.7361 -5.092,-7.7027 -5.892,-2.685 -10.3,-1.6719 -21.496,4.9412 -19.645,12.0586 -51.628,35.918 -52.747,52.33 -1.128,6.0395 2.189,9.997 4.776,10.9049 23.215,8.1491 76.169,-47.5974 74.559,-60.4734 z m -115.784,39.6787 c 31.084,-16.3218 83.723,-73.0486 67.058,-84.3417 -8.404,-15.7109 -90.416,43.9834 -92.013,64.8553 -1.298,11.7801 11.59,27.2483 24.955,19.4864 z m -38.445,-54.065 c 23.084,-7.4435 44.732,-22.7551 59.841,-44.6016 4.379,-5.2627 6.603,-7.1744 8.417,-16.7061 2.476,-18.4444 -93.806,34.8512 -96.236,51.4991 0.01,3.7259 0.638,4.5791 4.729,6.4592 7.83,4.0849 15.673,4.9432 23.249,3.3494 z m 288.478,-84.0074 c 0,-0.5229 3.167,-4.3526 7.037,-8.5107 10.616,-11.3238 32.698,-31.5359 48.754,-33.9609 3.52,-0.5065 5.99,-1.5169 5.99,-2.4503 0,-0.8736 -3.045,-7.7892 -6.765,-15.3679 -9.798,-20.7352 -18.478,-42.0121 -27.878,-61.6914 -5.64,-11.7912 -10.286,-21.846 -13.836,-29.9449 -1.14,-2.6004 -2.311,-4.7282 -2.6,-4.7282 -0.29,0 -3.19,1.6888 -6.445,3.7528 -7.626,4.8358 -22.221,9.4016 -35.778,11.1921 -46.181,4.1008 -70.871,-3.791 -113.901,-5.7032 -16.087,-0.6788 -17.293,-0.5595 -22.984,2.2708 -16.034,12.3404 -55.118,59.0993 -86.409,91.6986 -15.016,15.6437 -13.911,28.7241 8.185,23.4871 26.339,-7.0528 39.041,-21.727 57.261,-36.8673 17.879,-16.0652 37.392,-13.0786 46.264,-9.8543 58.513,4.0662 108.957,53.4093 134.028,70.5427 2.282,1.4754 9.077,7.4229 9.077,6.135 z m -419.228,-39.3965 c 26.127,-42.6795 44.347,-89.8385 61.569,-124.7477 l -3.046,-2.9512 c -5.045,-3.2866 -22.741,-19.687 -26.118,-19.8189 -0.538,0 -1.064,1.1404 -1.169,2.5344 -15.664,43.3118 -33.385,88.8812 -48.265,129.5245 0,0.5276 -0.865,2.6018 -1.911,4.6092 -2.121,4.0655 -2.655,3.3728 8.626,11.165 6.369,4.3999 7.899,4.3531 10.314,-0.3153 z m 512.083,-10.3245 c 7.445,-5.633 7.409,-4.925 1.052,-21.1964 -2.302,-5.8943 -4.583,-12.1355 -5.069,-13.8692 -9.567,-20.8088 -20.724,-50.206 -36.035,-67.4547 -1.912,-2.0804 -4.234,-5.201 -5.157,-6.9346 -0.925,-1.7336 -3.902,-6.453 -6.617,-10.4874 -3.971,-5.9018 -5.444,-7.1988 -7.537,-6.6366 -1.431,0.3843 -3.238,0.7064 -4.017,0.7159 -0.777,0.011 -1.772,2.2481 -2.207,4.9748 -0.869,5.4346 0.875,10.3535 11.88,33.498 12.415,28.4181 24.163,50.8733 36.438,78.1718 8.247,18.4805 6.359,17.4731 17.269,9.2184 z" fill="#00B894" transform="translate(60.069957,-324.6189) matrix(0.26458333,0,0,0.26458333,-3021.538,-1113.9299)"/>
</svg>