<?xml version="1.0" ?><svg height="85.630257mm" viewBox="0 0 59.400349 85.630257" width="59.400349mm" xmlns="http://www.w3.org/2000/svg">
    <path color="#000" d="m 12240.261,4973.8225 c 20.366,-151.4574 19.433,-128.6208 39.825,8.9305 28.56,-202.9823 43.651,-182.309 36.275,-2.6614 40.608,-169.7264 40.442,-111.0236 40.679,41.2226 l 59.539,-68.4284 c 0,0 -27.469,131.7114 -50.667,153.062 -23.199,21.3506 -114.151,60.3259 -138.335,-35.8997 -12.888,-34.2952 -24.461,-252.1246 12.684,-96.2256 z" fill="#FFFFFF" overflow="visible" paint-order="fill markers stroke" transform="translate(30.363872,-25.54354) matrix(0.26458333,0,0,0.26458333,-3259.2241,-1248.9463)"/>
    <path d="M 30.604656,110.2339 C 23.926187,109.21818 18.205032,105.67904 14.90549,100.52231 9.5419152,92.377424 9.6235418,81.393585 9.497706,75.475089 9.2980884,65.542456 9.1350945,62.18319 8.5703519,56.362567 8.1634783,53.291305 8.468019,48.231767 12.716013,48.558185 c 1.192263,0.126484 1.582989,0.885603 2.748986,5.340862 0.939269,3.588914 1.669455,4.754874 1.581944,2.526041 0.896379,-2.260045 -0.139057,-20.525678 5.139278,-20.990281 5.13239,-0.451756 3.854238,18.413498 5.618355,13.533801 1.538481,-8.504311 0.480888,-16.895893 8.44026,-17.061578 1.706446,0 2.121969,0.869522 2.191584,4.586111 0.173312,9.252968 0.371276,12.155468 0.663638,12.155468 1.282954,-4.686012 4.312095,-12.282177 7.21981,-7.613025 1.374563,2.706851 1.705298,7.18879 1.226759,16.624224 -0.288777,5.693814 -0.37152,16.118461 -0.138671,17.470595 0.530712,1.470874 2.067468,-2.300414 3.155204,-3.609173 4.560925,-8.259445 12.827244,-11.922387 12.403212,-4.160031 -0.12817,3.335393 -8.135025,26.073696 -12.817142,35.229541 -4.659661,7.03029 -11.883694,8.73635 -19.544574,7.64316 z M 49.997074,92.40842 c 0.797957,-2.711482 3.035937,-9.092573 3.448849,-9.833608 1.355704,-2.433031 5.077417,-13.207182 4.694441,-13.590161 -1.019381,-1.631847 -8.73493,10.739615 -9.875607,14.208315 -0.831633,2.264522 -3.120115,3.47127 -4.869725,1.514338 -0.608373,-0.708668 -0.641279,-1.262076 -0.444048,-7.468246 0.468535,-14.743062 1.171488,-28.983483 0.874007,-28.983483 -1.750288,-1.978665 -5.113307,17.134497 -5.240952,24.181383 0,1.805842 -0.113432,2.192068 -0.742702,2.528843 -1.065569,0.570275 -2.94464,0.122322 -3.435375,-0.818968 -0.975773,-1.871665 -1.040429,-9.305253 -0.206296,-23.71897 0.34035,-5.881248 0.342377,-8.216537 0.0074,-8.551491 -0.365845,-0.365848 -0.848545,0.584911 -1.114031,2.194276 -0.128672,0.780079 -0.443672,2.053326 -0.699982,2.829438 -0.639997,6.628609 -2.071631,14.238308 -2.4511,20.637503 -0.28616,5.072835 -0.5936,7.91055 -0.924996,8.537694 -0.314913,0.595956 -1.497108,0.641054 -2.840932,0.108373 -1.395754,-0.553264 -2.198553,-4.544179 -2.590774,-12.8794 -0.346145,-7.356191 -0.405655,-8.201376 -0.67063,-9.525002 -0.282416,-1.410755 -0.904475,-5.336081 -0.908473,-5.732641 -0.0013,-0.145521 -0.133588,-0.264583 -0.293606,-0.264583 -0.575849,0 -1.259996,9.153884 -1.265568,16.933336 -0.0055,7.610964 -0.0367,7.971295 -0.759412,8.759031 -0.683758,0.745268 -0.883629,0.786554 -2.153111,0.444715 -2.000567,-0.538695 -2.762229,-2.246615 -3.48021,-7.803886 -0.312547,-2.419159 -0.715579,-4.549283 -0.895625,-4.73361 -0.42781,-0.437983 -0.420886,1.011388 0.02188,4.577726 0.192077,1.547135 0.42546,4.559218 0.518628,6.693524 0.599747,13.738812 0.766318,15.257074 2.133344,19.444838 1.836647,5.626428 4.769128,9.638596 8.994272,12.305816 12.207318,5.90546 21.413178,0.16432 25.170333,-11.9951 z" fill="#00B894" transform="translate(30.363872,-25.54354) matrix(0.26458333,0,0,0.26458333,-3259.2241,-1248.9463) matrix(4.1159906,0,0,4.1159906,12168.838,4685.6405)"/>
</svg>