<?xml version="1.0" ?><svg height="196.21037mm" viewBox="0 0 104.36949 196.21037" width="104.36949mm" xmlns="http://www.w3.org/2000/svg">
    <path color="#000" d="m 577.62677,962.31107 c 0,0 -17.13764,9.21679 -18.04614,14.234 -0.90849,5.01721 2.60163,23.07916 2.60163,23.07916 l -11.23239,23.15347 4.91416,21.5926 -7.84614,21.8527 c 0,0 4.12956,20.9608 2.89069,32.7791 -1.23887,11.8183 4.66638,26.1639 13.42105,32.5561 9.21326,6.7271 7.76355,20.4405 27.5441,20.2175 19.78055,-0.223 22.25828,0.3716 22.25828,0.3716 l 4.04697,16.1666 10.9846,-19.0282 c 0,0 21.34979,-5.3889 28.78298,-10.3318 7.43319,-4.9428 16.4356,-12.0041 16.10524,-26.3868 -0.33036,-14.3826 1.9822,-37.7591 1.9822,-37.7591 l -6.64858,-22.596 -0.1239,-20.4033 -9.085,-16.2409 1.52792,-19.92017 -14.57883,-27.75343 5.61772,-7.96166 -8.79595,-17.98761 c 0,0 14.32952,0.33448 14.45342,-6.13214 0.1239,-6.46662 -51.33032,-11.81831 -51.33032,-11.81831 l -32.70605,11.63249 -1.32145,20.21748 z" fill="#FFFFFF" overflow="visible" paint-order="fill markers stroke" transform="translate(-41.662838,138.70591) matrix(0.78130453,0,0,0.78130453,-383.93706,-858.52922)"/>
    <path d="m 611.64733,1159.292 c -0.10735,-8.0686 -1.0204,-7.662 -9.3889,-30.0565 -2.9127,-7.7945 -2.9379,-20.7768 -0.053,-27.1615 2.0802,-4.6033 2.0823,-4.6833 0.1738,-6.4105 -2.5495,-2.3073 -1.9444,-2.7129 4.328,-2.9001 2.8967,-0.087 6.1634,-0.6769 7.2592,-1.3121 1.6358,-0.9483 0.6337,-1.1604 -5.5987,-1.1854 l -7.591,-0.03 -2.659,-4.8853 c -1.4624,-2.687 -2.6589,-6.2981 -2.6589,-8.0248 0,-2.4094 -0.5683,-3.3555 -2.4439,-4.0686 -1.3442,-0.511 -3.0317,-1.9624 -3.75,-3.2252 -3.086,-5.4252 -11.2711,-15.6267 -12.118,-15.1033 -1.654,1.0222 0.1946,9.1368 3.541,15.5443 3.1616,6.0536 3.2636,6.6208 3.0524,16.9739 -0.1796,8.7989 0.1289,11.4768 1.728,15 2.3371,5.1495 2.5415,13.1295 0.5299,20.6877 -1.7921,6.7337 -2.9861,8.0831 -5.1964,5.8729 -1.5236,-1.5236 -1.5231,-2.069 0.01,-7.5228 2.2983,-8.1911 2.0657,-13.3211 -0.9265,-20.4301 -2.4123,-5.7316 -2.5045,-6.5333 -1.4485,-12.5973 1.3117,-7.5323 0.8478,-10.3652 -3.1472,-19.2214 -3.6166,-8.0172 -4.4532,-13.5756 -2.798,-18.5909 0.6972,-2.1124 1.30914,-8.8108 1.6106,-14.8749 0.30804,-6.1965 2.54936,-12.3241 -0.2182,-16.209 -1.5252,-0.5337 -3.3036,3.845 -2.7461,6.7614 0.2925,1.5302 -0.8721,5.2458 -3.104,9.903 -4.3511,9.0791 -4.5377,13.4324 -1.0722,25.0104 2.9694,9.9209 3.2211,18.6976 0.8367,29.1846 -2.315,10.182 -2.1363,12.07 1.5107,15.9604 4.1806,4.4596 4.8203,8.5736 2.7191,17.4866 -0.9457,4.0115 -1.5726,8.5396 -1.393,10.0624 0.2391,2.0277 -0.1548,2.8629 -1.4716,3.12 -4.7329,0.9243 -5.7826,-3.863 -3.1067,-14.1697 2.1172,-8.1549 1.3868,-13.0554 -2.5144,-16.8695 -3.6154,-3.5347 -3.9002,-6.7682 -1.4777,-16.7748 2.2869,-9.446 2.1498,-20.0293 -0.3822,-29.5 -1.1763,-4.4 -2.3092,-8.9 -2.5176,-10 -0.2658,-1.4037 -1.4717,0.2785 -4.0444,5.6419 -5.0201,10.4654 -5.3583,12.8048 -2.7334,18.9067 2.2719,5.2812 2.7305,10.5041 2.1632,24.6404 -1.211,7.8687 -7.30487,8.245 -6.393,0 1.4249,-12.7313 0.9799,-19.6957 -1.5974,-25.0002 -2.8052,-5.7737 -2.5126,-8.744 1.7618,-17.8864 5.3192,-11.3772 5.6765,-14.3278 2.6943,-22.2508 -1.4195,-3.7713 -2.6444,-8.4756 -2.7219,-10.4541 -0.1417,-3.6165 0.2819,-4.5827 6.8367,-15.5944 4.3758,-7.3512 5.0357,-12.10545 2.952,-21.26685 -0.8832,-3.8832 -1.3384,-8.3974 -1.0116,-10.0316 0.6574,-3.2867 9.0666,-12.15 13.8904,-14.6404 1.7278,-0.8921 2.3033,-1.5515 1.3569,-1.555 -2.42,-0.01 -2.6188,-1.3956 -1.9579,-13.6534 0.4735,-8.7837 0.9858,-11.572 2.416,-13.1507 0.9983,-1.1019 6.6233,-4.1647 12.5,-6.8062 15.2572,-6.858 17.5,-6.9098 52.185,-1.2048 3.575,0.588 8.5217,1.2752 10.9927,1.527 7.194,0.7332 10.8837,2.7419 12.6054,6.8626 3.63042,6.9022 -5.87024,9.25355 -11.2763,9.4193 -3.3015,0 -2.9234,1.4252 2.1782,8.2118 5.7955,7.7098 6.069,11.6669 1.1121,16.0937 l -3.3879,3.0256 c 3.72677,6.09243 7.46326,12.21324 11.3934,18.1482 3.9225,5.9077 3.996,6.8822 1.7545,23.26045 -0.509,3.7189 -0.1274,4.922 3.106,9.7935 4.958,7.4695 5.5031,9.658 6.5509,26.303 0.7296,11.5885 1.3883,15.5501 3.4368,20.6706 3.0688,7.6708 3.123,10.3278 0.4753,23.3098 -1.5297,7.5001 -1.7867,10.6035 -1,12.0735 1.6619,3.1053 1.2459,7.6307 -0.8781,9.553 -2.6644,2.4112 -4.063,1.1831 -4.063,-3.5678 0,-2.2037 -0.4966,-4.9345 -1.1035,-6.0685 -0.8488,-1.5859 -0.5899,-4.4973 1.1215,-12.6129 2.4182,-11.4681 2.2876,-18.7684 -0.4301,-24.0237 -1.9806,-3.8301 -3.5406,-14.3807 -3.5737,-24.1701 -0.032,-9.3411 -1.2749,-13.9531 -5.7023,-21.1528 -4.2418,-6.8979 -4.9174,-11.4109 -2.9492,-19.7015 1.7151,-7.22455 1.3492,-8.83135 -3.7905,-16.64585 -2.79441,-3.52416 -7.53579,-14.08377 -9.22943,-12.76529 -1.3906,0.6452 -4.33077,2.12869 -4.33497,2.57289 -0.013,1.3102 5.03,9.9487 7.5688,12.9658 2.94,3.4941 3.8604,8.2645 3.0533,15.82585 -2.0347,19.0607 -2.2229,16.8535 1.9525,22.9009 7.4118,10.7348 9.20388,19.4929 6.0001,33.6846 -1.96016,8.6828 -2.45569,15.7651 2.0785,22.4133 4.9709,7.2263 6.3331,12.4239 6.3717,24.311 0.032,9.7417 1.1204,20.5784 2.555,25.4289 0.68464,4.2822 -4.20692,1.1641 -5.2165,-0.8378 -1.9243,-4.0235 -3.3712,-16.1731 -3.3712,-28.3071 0,-12.1373 -0.1703,-12.7109 -6.9472,-23.4031 -4.79403,-5.4724 -2.38008,-10.3487 -1.1776,-17.0479 3.3987,-18.9351 3.31292,-24.0106 -3.8653,-34.1052 -5.00044,-7.032 -4.69243,-13.7189 -3.565,-20.7752 2.38251,-7.7262 -0.0367,-18.47065 -0.359,-13.82175 -0.1917,4.5499 -3.3626,15.12155 -6.2125,20.71235 -0.6018,1.1807 -0.1879,3.7903 1.269,8.0001 1.9634,5.6735 2.1924,8.6835 2.4908,32.7478 0.95145,12.3014 -2.95955,28.2451 5.9477,37.0493 7.0249,6.848 7.5664,8.892 6.9905,26.3894 -0.74976,2.8558 1.32469,19.4129 -4.0266,13.6109 -1.9299,-2.1326 -2.2038,-7.6295 -0.9763,-19.5925 0.8815,-8.5909 -0.817,-14.0159 -6.0921,-19.4571 -5.4985,-5.6716 -6.4764,-8.324 -6.4764,-17.5651 0,-4.0892 -0.3375,-7.4262 -0.75,-7.4156 -0.736,0.019 -8.9933,12.0244 -13.1001,19.0465 -1.1469,1.9612 -3.0063,4.3992 -4.1318,5.4178 -2.3628,2.1383 -1.8567,5.2244 1.2108,7.383 3.6987,2.6027 9.483,18.8623 10.4417,29.3514 0.5024,7.457 -0.61278,31.6583 -10.9206,40.793 -5.84061,5.1759 -9.51112,-7.9503 -9.5644,-11.9549 z m 13.3115,-9.8872 c 1.3377,-5.5869 1.6258,-9.7496 1.2111,-17.5 -0.6512,-12.1722 -2.2057,-17.5267 -5.4458,-18.7586 -1.3192,-0.5016 -3.199,-2.7454 -4.3145,-5.1498 l -1.9767,-4.2609 0.5667,9.6579 c 0.3936,6.7089 0.2183,9.8731 -0.5741,10.3628 -2.0182,1.2473 -2.8664,-0.8542 -4.1506,-10.2838 -1.6116,-11.833 -2.8027,-12.1807 -4.2378,-1.2369 -1.0048,7.6615 1.67515,20.1144 8.0278,33.6702 3.33969,7.1265 1.69277,18.7875 6.39868,16.2416 0.3422,-0.3215 3.52982,-8.7106 4.49522,-12.7425 z m -11.9997,-51.1693 c -0.34,-0.55 -1.4915,-1 -2.5591,-1 -1.0675,0 -1.9409,0.45 -1.9409,1 0,0.55 1.1515,1 2.559,1 1.4513,0 2.2915,-0.4328 1.941,-1 z m 2.2662,-16.25 c -0.088,-8.0081 5.1536,-12.1113 6.2338,-4.8796 l 0.5,3.3476 5.3119,-7.6219 c 2.9215,-4.192 6.2523,-9.7478 7.4017,-12.3463 4.7915,-10.8319 2.5831,-42.2499 -2.9698,-42.2499 -0.7893,0 -2.6296,-0.8395 -4.0895,-1.8656 -7.4306,-5.2226 -21.4338,-9.4882 -26.4371,-8.0533 -7.7449,2.2212 -16.4928,9.7441 -19.3878,16.6729 -0.8894,2.1287 -1.4204,6.9558 -1.4204,12.9131 0,10.7096 1.5054,15.0729 7.5688,21.9389 3.0979,3.508 3.443,3.671 3.4805,1.6441 0.023,-1.2375 0.4056,-2.25 0.8505,-2.25 2.1724,0 4.2696,3.1938 6.7482,10.2771 1.4968,4.2773 3.1088,8.0164 3.5822,8.309 1.181,0.7299 1.0909,4.4139 -0.1079,4.4139 -0.5327,0 -0.7096,0.675 -0.393,1.5 0.4273,1.1135 2.1975,1.5 6.8697,1.5 h 6.294 l -0.036,-3.25 z m -10.21569,-3.7047 c -1.93706,-3.4694 -3.11261,-6.8164 -2.05961,-7.8694 1.5665,-1.5665 5.8719,2.5474 7.1422,6.8243 1.6666,5.6116 1.6664,5.6711 -0.027,6.3208 -2.9876,-0.4886 -3.76741,-2.7336 -5.05559,-5.2757 z m -5.08531,-53.9391 c -1.1191,-0.4853 -2.6651,-1.6419 -3.4357,-2.5704 -1.8325,-2.2081 -0.5418,-3.0352 6.9109,-4.4284 3.0577,-0.5717 6.42602,-1.4619 7.5596,-1.5863 5.30599,-0.5824 6.14252,5.8329 2.7776,7.3985 -3.5677,1.6255 -11.2733,2.2875 -13.8124,1.1866 z m -37.2798,9.2215 c 3.8539,-8.5482 6.3813,-18.1608 5.1094,-19.4328 -1.4054,-1.4053 -4.9016,4.3438 -5.8413,9.6053 -0.9169,5.1344 -2.2492,6.9145 -4.054,5.4166 -2.0065,-1.6652 -0.7011,-9.3983 2.729,-16.1667 3.885,-7.6659 2.318,-7.3155 -2.3147,0.5175 -5.3426,9.0335 -5.5175,10.5718 -2.1793,19.1633 1.576,4.0561 3.1035,7.2284 3.3945,7.0495 0.291,-0.1788 1.7114,-2.9475 3.1564,-6.1527 z m 21.08,-21.8228 c 5.2676,-4.5089 11.1524,-7.3262 16.9678,-8.1233 5.6461,-0.7739 18.4495,2.4263 27.0384,6.7582 4.2147,2.1257 5.8953,2.5669 6.2298,1.6356 2.9833,-8.3046 4.4748,-15.36395 4.4857,-21.23095 0.011,-5.9188 -0.5256,-8.103 -3.5995,-14.6533 -4.2021,-8.9545 -2.1807,-8.1997 -26.404,-9.8596 -8.96908,0.19005 -17.73654,-2.44765 -26.5945,-3.0317 -1.9631,0 -4.2322,5.0131 -6.9479,15.3501 -2.4734,9.4149 -2.8798,13.4095 -1.7816,17.512 0.5641,2.1077 1.36516,1.49479 4.91396,1.01879 6.10232,-1.41346 7.11643,2.17788 1.92644,4.67226 -2.06849,0.9941 -4.5,2.6985 -4.5,2.6985 0.23921,0.7972 3.3663,10.7484 3.8257,10.7484 0.196,0 2.1939,-1.5729 4.4397,-3.4952 z m 5.34438,-32.71473 c 0.2392,0 0.78036,-2.39413 2.82512,-0.81512 2.2837,0.8683 2.5651,1.5264 2.5651,6 0,4.1291 -0.3137,5.0248 -1.7595,5.0248 -4.22896,-0.55979 -4.79832,-6.30483 -3.63072,-10.20968 z m 13.99712,5.62808 c -0.0448,-0.93095 -0.6069,-2.6702 -0.6069,-4.0002 0,-1.8795 0.5296,-2.4182 2.3775,-2.4182 3.4229,0 4.22097,0.83328 3.6687,5.3784 -0.38824,3.19523 -5.14767,7.10557 -5.4393,1.04 z m -32.03859,21.09615 c -2.83053,0.2429 -3.53747,-2.8297 -3.53747,-2.8297 -0.51504,2.8573 3.98736,7.6305 4.60756,7.0102 0.2633,-0.2632 -1.07009,-4.1805 -1.07009,-4.1805 z m -1.80151,-11.58925 c -0.4375,-4.5529 0.7958,-13.0137 2.6857,-18.4251 0.6672,-1.9105 0.64463,-1.91555 -0.504,-0.112 -1.6395,2.5743 -6.77049,20.43481 -4.18903,25.73575 0.37285,-1.3507 1.55931,-1.78007 2.94241,-2.39353 -0.004,-0.75582 -0.60968,-1.41822 -0.93508,-4.80512 z m -4.08021,-19.10428 c 0.01,-0.7202 -1.13659,-0.66092 -1.68659,-0.32102 -0.55,0.3399 -0.9932,1.604 -0.9847,2.809 0.012,1.7812 0.32822,2.91245 1.11632,1.69295 0.5394,-0.87581 1.35615,-3.25605 1.55497,-4.18093 z m 79.56341,-24.72912 -4.75,-7.2395 -8.8297,0.3239 c -7.8037,0.2863 -8.9947,0.098 -10.25,-1.6172 -4.88678,-5.50616 10.66129,-3.55628 12.2136,-3.5591 13.9032,0 21.3661,-1.2711 21.3661,-3.6392 0,-1.5968 -0.5267,-1.7257 -19.6635,-4.8144 -23.2535,-3.753 -28.9758,-4.0839 -35.8863,-2.075 -6.9994,2.0348 -19.6939,7.9123 -21.3192,9.8707 -1.6359,1.9711 -3.374,12.2752 -2.6368,15.6318 1.2259,5.5812 11.3374,7.3284 55.5058,9.591 7.425,0.3803 13.6875,0.8588 13.9166,1.0633 7.67942,-5.50006 1.4146,-11.89115 0.3334,-13.5363 z" fill="#00B894" transform="translate(-41.662838,138.70591) matrix(0.78130453,0,0,0.78130453,-383.93706,-858.52922)"/>
</svg>