<?xml version="1.0" ?><svg height="378.56259mm" viewBox="0 0 183.2068 378.56259" width="183.2068mm" xmlns="http://www.w3.org/2000/svg">
    <path color="#000" d="m 300.37871,-181.72692 c -0.6985,-0.009 -1.41658,0.008 -2.15159,0.043 -23.54527,1.2329 -28.07097,19.20761 -27.19811,33.15663 1.90712,13.09074 17.12384,26.25431 33.60394,26.38729 16.4801,0.13298 20.44197,-19.41361 20.9124,-28.15291 0.45455,-8.46611 -3.51261,-31.14545 -25.16664,-31.43374 z m 4.16428,66.90992 c -0.61092,-0.0164 -1.2102,-0.0108 -1.79467,0.0172 -9.35275,0.44302 -24.55783,6.31373 -29.5357,22.459475 -4.97681,16.145642 -10.33833,97.7596244 -10.22879,118.335503 0.10954,20.575984 -0.32808,101.845852 -0.32808,101.845852 6.39947,6.8422 35.69176,13.72457 45.99913,10.92758 10.3087,-2.7971 53.65723,-3.00318 53.65723,-3.00318 0,0 -16.46316,-84.271193 -17.72179,-98.004893 C 343.33249,24.026916 334.52637,-80.03511 329.87684,-95.097786 325.51863,-109.21918 313.70842,-114.56808 304.54299,-114.8166 Z" fill="#FFFFFF" overflow="visible" paint-order="fill markers stroke" transform="translate(-217.26615,227.6598)"/>
    <path d="m 274.44955,149.73702 c -1.61899,-1.78898 -1.14247,-3.96539 0.8681,-3.96539 2.23916,0 15.87764,-4.07001 15.87764,-4.73821 0,-0.34007 -2.02195,-0.82598 -4.49262,-1.07974 -8.645,-0.8042 -26.34166,-5.94522 -26.82373,-15.10903 -0.70538,-13.59956 -0.64214,-26.686962 -0.69612,-37.670848 -0.27357,-58.85045 3.066,-127.025901 8.30448,-169.543066 l 0.52996,-4.297178 -4.28651,3.90652 c -6.64184,6.053376 -10.12799,8.273918 -13.59535,8.320961 -11.37973,0.154305 -15.81838,-17.025461 -17.15929,-25.119012 -0.71173,-4.512047 -1.55152,-9.785857 -1.86611,-11.719557 l -0.57203,-3.51581 c -1.72984,4.15507 -2.70007,8.82367 -3.88302,11.79044 -2.33601,3.985206 -3.54965,6.138226 -6.6294,4.383827 -3.25014,-1.851767 -4.14099,-7.175527 0.15214,-13.439697 4.1013,-9.30322 5.9129,-9.5541 4.2754,-14.10732 -2.38919,-7.29908 -3.56976,-16.44081 -0.35931,-20.15077 1.45389,-1.70503 4.79002,-4.86129 7.41442,-7.01384 4.53152,-3.71737 4.87469,-4.2482 6.8498,-10.58201 8.3865,-19.6687 14.6722,-40.87326 23.20713,-61.2399 1.02024,-2.39429 5.00407,-3.86464 4.36669,-0.68215 -9.48346,27.22901 -18.4912,52.58014 -26.56364,76.54221 l -1.25704,3.78481 c 3.14696,2.54783 5.40888,5.82478 5.42476,8.75927 0,2.75371 -0.3347,3.76878 -1.36764,4.15655 -1.89362,0.71044 -3.26628,2.63816 -3.29617,4.62812 -0.0312,2.16937 -2.22674,2.99302 -3.91187,1.46802 -0.72522,-0.65585 -1.55337,-0.95735 -1.84097,-0.6699 -0.91546,0.91554 -0.56171,3.20505 0.56197,3.63627 0.5969,0.22884 1.24143,1.76067 1.43378,3.40413 0.19103,1.64341 1.31472,8.43762 2.49608,15.09818 1.71344,9.65965 2.72759,13.278489 5.01042,17.883033 2.6408,5.736193 5.55995,8.517784 9.76815,6.064964 3.65627,-2.143125 10.50369,-8.921115 21.03331,-20.822787 8.22484,-9.64631 17.66861,-15.27471 29.10893,-14.60947 18.41315,1.07087 27.6778,8.09278 32.12571,14.41429 11.86021,20.541982 25.99637,41.982703 38.18334,9.135874 2.94614,-7.119014 4.7252,-17.323544 4.03543,-23.147554 -0.59478,-5.02441 0.63976,-14.76221 2.28521,-18.02413 3.10964,-6.16201 6.82625,-7.84219 13.28446,-7.25482 3.76925,0.34285 4.23413,3.30039 1.2954,3.99426 -4.36219,0.97078 -5.30357,1.32511 -6.64104,2.4997 -2.12514,1.86616 -1.66344,2.2583 2.34394,1.99086 7.69435,-0.51361 12.11395,2.76455 10.79844,8.00814 -0.75327,3.00014 -2.59318,1.91609 -3.92218,-2.31034 -0.41566,-1.32297 -0.99219,-1.4193 -5.6396,-0.94327 -5.3213,0.54523 -8.07323,1.5116 -8.07323,2.83491 0,0.41455 1.31816,0.76152 2.93,0.77089 3.8182,0.0228 9.10934,2.45925 10.73838,4.94543 1.59305,2.43121 1.28217,6.25883 -0.53605,6.60345 -0.9517,0.18039 -1.58221,-0.6199 -2.25345,-2.85943 -0.61172,-2.04341 -1.49834,-3.26203 -2.58445,-3.5536 -3.55336,-0.95374 -3.90499,-0.45611 -1.46421,2.07412 1.34726,1.39661 2.82205,3.52899 3.27845,4.73869 0.9705,2.57416 1.11178,8.34808 0.20453,8.34808 -1.21629,0 -2.50005,-1.89881 -2.50005,-3.69713 0,-3.19693 -2.13916,-7.0948 -4.58761,-8.36112 -3.40836,-1.76215 -3.8825,-1.55496 -3.59172,1.56832 0.56938,6.12963 -1.1684,16.726161 -3.90604,23.813899 -5.3213,13.779553 -11.49985,19.501061 -21.04205,19.485663 -5.36416,-0.0087 -7.86765,-2.312591 -18.43776,-16.972254 -3.16891,-4.395867 -5.90523,-7.849764 -6.07933,-7.675456 -0.17436,0.174387 0.62098,3.578754 1.76795,7.565363 3.87773,13.478351 7.51946,39.132324 9.39985,66.218143 1.04008,14.9798618 2.11587,27.3769666 6.28174,72.362218 2.0439,22.064742 4.33864,36.252943 11.24823,69.536094 4.09257,17.87001 5.1771,16.91243 0.15875,18.15979 -8.92545,2.38619 -12.32403,1.34167 -20.82483,2.24882 3.24089,1.51083 6.65375,2.93968 9.96157,3.9384 3.09033,0.92102 3.71131,1.41989 3.71131,2.98289 0,2.7927 -1.12739,3.02575 -5.93408,1.22727 -6.10896,-2.28571 -8.97334,-3.81746 -11.42259,-6.10769 -11.2268,0.0695 -17.66993,-0.17743 -38.7768,-0.48192 0,2.07984 -3.4036,4.33719 -10.27748,6.43451 -11.34057,3.45977 -11.98615,3.54214 -13.62048,1.73702 z m 80.81248,-15.56782 c 2.62466,-0.56528 2.72441,-0.71311 2.48232,-3.67356 -0.13811,-1.6965 -2.16429,-12.61618 -4.50162,-24.26615 -4.79028,-23.877031 -6.68417,-36.581979 -8.49075,-56.948968 -2.28123,-28.463849 -4.69,-47.2946146 -6.64871,-75.005221 -1.51342,-21.711972 -6.07933,-53.120501 -8.97414,-61.723057 -1.51738,-4.495456 -2.52492,-9.206336 -4.79557,-13.327034 -3.02366,-4.20722 -11.65648,-13.70134 -15.39319,-8.81084 -8.02482,13.745793 -14.82461,29.344224 -17.84827,43.793358 -1.78593,8.79602 -2.54238,10.768647 -4.12591,10.768647 -2.24314,0 -2.84083,-1.942332 -1.94945,-6.332008 2.16085,-10.191565 4.35954,-20.868798 8.96858,-30.221713 1.719,-3.29438 1.36181,-4.961044 -2.02909,-9.473884 -1.72984,-2.30209 -3.45016,-4.73085 -3.82296,-5.39715 -0.60934,-1.08853 -0.87657,-1.08141 -2.63366,0.0695 -6.4778,4.24444 -10.55476,13.670331 -12.58068,29.087892 -5.35993,40.787849 -9.83826,151.017101 -7.7044,189.614328 0.67337,12.17695 0.85169,13.21099 2.6961,15.62984 7.58349,9.94452 57.98926,8.42066 87.3514,6.21607 z m -56.25359,-237.34532 c 0,-2.23642 -4.04337,-8.21635 -5.24325,-7.7556 -0.62442,0.23947 -1.28244,0.4355 -1.46209,0.4355 -0.99457,0 0.0392,2.40234 2.4556,5.69304 2.61514,3.56526 4.24974,4.19092 4.24974,1.62706 z m 4.90722,-7.43083 c 0.76491,-1.34464 1.22132,-2.61519 1.01256,-2.82339 -0.55562,-0.55584 -5.91978,0.56152 -5.91978,1.23312 0,0.85375 2.34923,4.04577 2.97365,4.03997 0.29845,0 1.16787,-1.10508 1.93357,-2.4497 z m -71.42347,-36.25971 c 0.24659,-1.2744 0.11483,-1.33181 -0.97684,-0.42559 -1.49305,1.23931 -1.67905,2.68777 -0.28523,2.22375 0.53658,-0.17883 1.10464,-0.98804 1.26207,-1.79816 z m 63.62911,26.70069 c -14.92673,-3.3442 -24.34378,-15.44452 -27.21742,-27.42176 -2.1082,-14.35717 2.19154,-24.67859 14.47853,-32.58651 3.39302,-2.0788 11.08816,-4.01206 18.00198,-4.34723 20.6637,-1.00188 26.10962,17.69348 27.07429,31.05512 0.9697,15.41841 -4.52993,27.04706 -14.97515,31.66652 -5.24643,2.32029 -12.05416,2.82308 -17.36223,1.63386 z m 12.02981,-5.56736 c 10.53915,-3.12989 16.74707,-16.74077 14.55949,-31.92354 -1.02949,-7.14783 -3.41815,-12.04593 -8.49656,-17.42435 -8.15446,-8.52707 -27.51058,-4.61002 -35.58752,4.96176 -2.1119,2.23226 -3.83857,4.54742 -3.83857,5.14482 0,0.60254 2.78209,2.33773 6.25025,3.89713 3.438,1.54604 6.25052,3.18788 6.25052,3.64844 0,1.56787 -4.45585,0.8436 -9.04214,-1.46978 -2.51566,-1.26897 -4.74239,-2.13919 -4.94691,-1.93395 -0.88371,6.06713 -0.40085,13.22943 1.74678,17.91406 2.5572,5.51514 4.67545,7.88953 11.21013,12.56345 4.89241,3.49986 7.64963,4.80558 3.87138,1.83396 -5.99493,-4.71564 1.17211,-10.40087 12.43066,-9.86107 5.19853,0.24921 10.44839,4.86494 9.3763,8.24386 -0.74136,2.33484 -5.94863,4.00809 -12.74763,4.09575 -4.21851,0.0547 -5.45041,0.26643 -4.08543,0.70339 3.20808,1.02751 8.83497,0.85765 13.04925,-0.39393 z m -24.7687,-14.97174 c 0,-1.20507 3.57426,-1.42862 4.29128,-0.26837 0.27913,0.45122 1.17369,0.12562 2.14709,-0.78131 1.70894,-1.59182 3.71845,-2.07524 3.71845,-0.89443 0,1.40407 -1.87139,3.53031 -4.99903,3.92462 -2.39395,0.18854 -4.81119,0.36933 -5.15779,-1.98051 z m 10.23329,-6.02708 c -0.72126,-0.8695 -0.74374,-1.91378 -0.0929,-4.33067 0.9062,-3.36701 1.91585,-3.8622 4.30821,-2.11328 1.35996,0.99446 1.38218,1.28963 0.3138,4.09707 -1.24196,3.26276 -3.00858,4.17843 -4.52914,2.34688 z m -12.42113,-0.64003 c -0.51567,-0.51564 -0.93742,-2.12145 -0.93742,-3.56854 0,-2.37006 0.1741,-2.57648 1.75763,-2.08232 1.98067,0.61825 2.90036,1.72154 2.91756,3.50226 -0.65564,2.2333 -1.3335,5.07865 -3.73777,2.1486 z m 12.16104,-15.19872 c 1.01256,-1.14702 2.48841,-3.2535 2.91809,-3.57291 2.41512,-1.49026 5.07868,-0.76716 5.07868,0.0124 0,0.93474 -5.84756,7.2001 -6.68814,7.16605 -2.70033,-1.04219 -2.54,-2.19929 -1.30863,-3.60574 z m 11.44217,32.23273 c 3.3618,-1.40494 3.91425,-2.37392 2.28309,-4.00545 -1.83065,-1.83049 -10.42114,-1.3167 -12.71666,0.76052 -1.96745,1.78028 -2.06402,3.32174 -0.23892,3.79865 2.9157,0.76205 8.17615,0.48916 10.67249,-0.55372 z" fill="#00B894" transform="translate(-217.26615,227.6598)"/>
</svg>