<?xml version="1.0" ?><!-- Created with Inkscape (http://www.inkscape.org/) --><svg height="128.12755mm" id="svg18668" inkscape:version="1.1.2 (76b9e6a115, 2022-02-25)" sodipodi:docname="hello_13.svg" version="1.1" viewBox="0 0 127.02239 128.12755" width="127.02239mm" xmlns="http://www.w3.org/2000/svg" xmlns:inkscape="http://www.inkscape.org/namespaces/inkscape" xmlns:sodipodi="http://sodipodi.sourceforge.net/DTD/sodipodi-0.dtd" xmlns:svg="http://www.w3.org/2000/svg">
  <sodipodi:namedview bordercolor="#666666" borderopacity="1.0" id="namedview18670" inkscape:current-layer="layer1" inkscape:cx="389.49173" inkscape:cy="496.47012" inkscape:document-units="mm" inkscape:pagecheckerboard="0" inkscape:pageopacity="0.0" inkscape:pageshadow="2" inkscape:window-height="1016" inkscape:window-maximized="1" inkscape:window-width="1866" inkscape:window-x="54" inkscape:window-y="27" inkscape:zoom="0.66368547" pagecolor="#ffffff" showgrid="false"/>
  <defs id="defs18665"/>
  <g id="layer1" inkscape:groupmode="layer" inkscape:label="Capa 1" transform="translate(-1.8687253,-17.262409)">
    <g id="g8177" style="display:inline" transform="matrix(0.25354076,0,0,0.25354076,-9666.4131,-667.00792)">
      <path d="m 37396.984,1945.1328 c -48.531,-0.966 -85.514,44.9774 -97.584,82.1289 -16.671,50.5025 -1.912,156.6748 76.797,139.5391 78.709,-17.1347 99.936,-50.3379 111.141,-109.2031 11.205,-58.8653 -15.357,-83.3792 -74.936,-110.5977 -5.253,-1.1656 -10.397,-1.7673 -15.418,-1.8672 z m -35.964,249.8203 c -65.069,0.7877 -62.117,7.6837 -77.403,49.1114 -16.307,44.1903 -7.292,48.6889 -7.074,86.8125 0.401,37.631 203.808,34.3605 206.814,12.6347 3.007,-21.7257 5.244,23.845 4.954,-42.3262 -0.319,-72.5858 -35.804,-101.7429 -113.51,-105.9238 -4.857,-0.2616 -9.444,-0.3613 -13.781,-0.3086 z" fill="#00B894" id="path8171" style="display:inline;fill:#ffffff;fill-opacity:1;stroke:none;stroke-width:1.82538;stroke-linecap:round;stroke-linejoin:round;stop-color:#000000" transform="matrix(1.0435534,0,0,1.0435534,-582.11269,741.84879)"/>
      <path d="m 38187.014,2701.777 c -3.174,5.959 -1.941,5.0802 -4.637,45.2562 -0.842,12.54 -2.247,24.408 -3.123,26.373 -0.944,2.1191 -3.704,-12.162 -6.785,-35.123 -3.815,-28.427 -6.079,-33.3032 -8.535,-34.9902 -5.5,-3.78 -8.523,5.0328 -9.383,40.0078 -0.428,17.371 -1.078,31.9476 -1.446,32.3926 -0.366,0.446 -1.919,-6.0847 -3.447,-14.5137 -6.815,-37.566 -8.266,-42.2046 -13.082,-41.7656 -4.296,0.39 -4.385,1.9003 -1.795,29.8203 1.5,16.175 4.181,40.0487 5.961,53.0527 2.014,14.721 -0.367,23.1507 12.766,31.3457 l 9.531,7.7031 -6.73,20.5762 c -7.729,23.63 -7.685,53.3037 -11.871,80.8477 -3.874,100.6763 54.361,142.3282 152.084,123.8084 14.884,-2.0846 26.579,-10.9652 20.66,13.0783 -4.372,17.7586 -4.795,37.9161 -5.566,56.5495 -1.085,26.2401 -3.341,37.0508 0.101,46.1018 9.568,16.3034 15.198,-1.7502 15.228,-6.6363 0.133,-21.6269 1.822,-30.2753 4.856,-63.7728 1.344,-14.8273 -1.921,-64.8209 34.7,-70.3776 14.296,-2.1691 29.295,-3.6469 66.487,-1.1009 35.529,2.433 48.49,6.2596 63.162,19.6171 13.473,12.2662 30.233,42.1701 29.735,78.4284 -0.736,53.4978 -1.273,56.3688 3.363,60.2318 7.594,6.329 11.721,-1.5516 12.291,-23.4746 0.181,-6.917 1.693,-15.1166 1.893,-37.2122 0.225,-24.9472 -10.185,-55.4804 -15.993,-65.1648 -11.214,-18.6969 -34.019,-38.0428 -49.966,-41.8828 -17.148,-4.13 -69.798,-5.4459 -98.541,-2.4629 -22.587,2.343 -30.309,1.9825 -79.107,14.9041 -81.23,21.5094 -132.636,-5.5704 -136.6,-83.0623 -0.918,-17.9415 -2.551,-41.1675 8.066,-88.373 l 5.631,-25.0371 8.369,-0.7813 c 18.436,-1.724 45.519,-29.6267 56.832,-58.5547 5.649,-14.441 6.222,-27.7764 1.303,-30.2324 -3.154,-1.574 -4.993,1.065 -16.061,23.082 -4.207,8.373 -8.064,14.8791 -8.57,14.4571 -0.504,-0.421 1.903,-12.8226 5.35,-27.5606 10.34,-44.209 10.061,-62.768 -0.698,-61.789 -3.278,0.298 -4.648,3.9639 -6.617,17.7109 -2.54,17.746 -17.743,67.763 -19.357,66.418 -0.492,-0.41 -0.04,-7.9385 1.011,-16.7305 1.048,-8.792 1.707,-26.2468 1.463,-43.6758 -0.38,-27.003 -0.977,-26.1335 -4.043,-28.6875 -3.593,-3.1818 -7.467,-1.4599 -8.89,1.1989 z m 374.131,35.6332 c -5.948,-1.1896 -8.835,6.781 -9.971,10.7304 -0.168,-2.6889 -2.568,-6.528 -13.826,-8.584 -18.467,-3.3731 -11.362,17.9336 -11.362,17.9336 0,0 -10.74,-14.1934 -19.349,4.502 -2.547,5.5322 -3.221,9.5047 -2.883,12.5547 -5.629,-12.2081 -15.92,-15.2089 -26.729,-15.2657 -3.184,-9.3876 -7.657,-3.9218 -15.597,-4.4335 -4.613,-11.2771 -17.764,-14.9802 -26.358,-5.1895 -4.233,2.4139 -10.854,-13.429 -19.549,4.4023 -10.303,-5.4111 -15.751,-0.8752 -19.478,9.3555 -13.163,-4.4006 -20.962,-1.7811 -18.764,15.584 -4.383,-6.6893 -15.203,-0.014 -16.42,-1.6406 11.841,-9.5313 9.013,-21.6424 -10.384,-14.1895 -4.33,-13.5684 -11.926,-5.7869 -13.789,-2.1094 -0.1,-0.012 -0.193,-0.022 -0.29,-0.033 0.352,-2.189 1.799,-13.4956 -6.091,-17.3691 -8.712,-4.2764 -13.463,9.4238 -13.463,9.4238 0,0 -4.841,-11.4822 -13.817,-14.2539 -8.976,-2.7718 -9.24,14.0176 -9.24,14.0176 0,0 -8.357,-1.8212 -16.277,4.0391 -7.919,5.8603 10.822,19.5605 10.822,19.5605 0,0 -14.254,-5.5436 -24.285,2.6133 -10.032,8.157 -5.842,13.7988 -5.842,13.7988 0,0 -1.11,1.7224 -6.742,15.502 -5.631,13.7796 13.199,15.6015 13.199,15.6015 0,0 -14.785,-0.5538 -17.248,18.0567 -2.464,18.6104 24.815,6.0976 24.815,6.0976 0,0 -13.111,13.3046 5.984,20.9864 1.09,0.4386 2.071,0.7261 2.977,0.914 9.33,11.5753 27.903,9.4339 36.71,4.3828 9.755,-8.375 10.293,-8.5747 9.27,-3.4277 -2.73,13.735 -4.285,41.3523 -3.102,55.1523 4.274,49.882 32.571,87.3868 78.592,87.3868 16.028,0 28.909,1.8873 45.098,-2.2997 60.646,-15.7034 79.886,-46.5899 93.907,-89.6116 13.733,1.9819 9.733,-14.9158 2.734,-16.0933 5.972,-18.6919 5.541,-39.5651 3.058,-53.9974 0.282,-0.417 15.546,27.0721 29.018,10.8027 10.44,5.3925 17.518,1.6943 21.812,-6.955 7.341,4.6505 13.81,-0.039 8.707,-15.5489 14.811,-3.9378 5.056,-12.9558 1.992,-14.1054 0,0 13.79,3.4068 18.489,-5.084 4.698,-8.492 -8.754,-13.9082 -8.754,-13.9082 0,0 11.706,-4.2703 14.914,-13.0996 3.209,-8.8294 -13.547,-9.916 -13.547,-9.916 0,0 2.229,-8.2613 -3.236,-16.459 -5.465,-8.1968 -20.071,9.8535 -20.071,9.8535 0,0 6.236,-13.968 -1.42,-24.3867 -7.656,-10.4198 -20.076,5.1836 -20.076,5.1836 0,0 4.917,-12.8869 -8.57,-19.1875 -2.106,-0.984 -3.983,-0.9703 -5.567,-1.2871 z m -116.606,46.8691 v 0 c 0,0 7.413,0.66 10.578,0.9863 38.913,4.0111 74.414,44.9276 74.227,78.9478 -0.43,15.367 -1.45,36.8147 -1.45,36.8147 -13.621,-4.2764 -12.904,13.4878 -4.332,14.5564 -4.548,14.9808 -14.641,47.4341 -56.379,71.4639 -22.792,13.1218 -52.038,12.7627 -83.073,2.0707 -9.815,-3.01 -23.973,-16.1249 -31.67,-29.3339 -6.359,-10.915 -7.24,-14.5505 -9.007,-37.0215 -1.338,-17.023 -1,-30.5177 1.07,-42.5977 3.009,-17.58 14.536,-49.6131 21.887,-60.8281 5.987,-10.9215 50.616,-35.0586 78.148,-35.0586 z m -22.977,85.8262 c -6.154,-0.31 -9.622,8.3641 -5.742,14.3711 4.953,7.672 14.231,1.8912 12.256,-7.6368 -0.982,-4.733 -2.731,-6.5443 -6.514,-6.7343 z m 45.616,6.8633 c -2.599,0.217 -5.217,2.3247 -6.58,6.2187 -1.559,4.451 -0.398,7.095 1.146,9.0215 5.987,7.4706 15.274,-0.4554 11.897,-10.1094 -1.286,-3.673 -3.864,-5.348 -6.463,-5.1308 z m -84.098,56.6053 c 18.05,50.7615 82.625,48.4752 105.186,6.4452 4.285,-7.9831 -7.083,-7.0375 -13.764,-0.2303 -19.699,20.07 -62.709,24.7307 -77.316,-6.5098 -6.02,-16.1196 -15.181,-12.0683 -14.106,0.2949 z" fill="#00B894" id="path8175" sodipodi:nodetypes="cssssssssssccsccsscssssssssssssssscsssssssssssccscscscccccccccccscscscscscscsccsssccccccccscscscscsssssscscscssscsssssscsssccsscc" style="display:inline;fill:#000000;stroke-width:2.272"/>
    </g>
  </g>
</svg>