<?xml version="1.0" ?><!-- Created with Inkscape (http://www.inkscape.org/) --><svg height="145.92772mm" id="svg62315" inkscape:version="1.1.1 (26b7af14f2, 2022-01-19)" sodipodi:docname="hello_4.svg" version="1.1" viewBox="0 0 118.9994 145.92772" width="118.9994mm" xmlns="http://www.w3.org/2000/svg" xmlns:inkscape="http://www.inkscape.org/namespaces/inkscape" xmlns:sodipodi="http://sodipodi.sourceforge.net/DTD/sodipodi-0.dtd" xmlns:svg="http://www.w3.org/2000/svg">
  <sodipodi:namedview bordercolor="#666666" borderopacity="1.0" id="namedview62317" inkscape:current-layer="layer1" inkscape:cx="480.07622" inkscape:cy="509.73947" inkscape:document-units="mm" inkscape:pagecheckerboard="0" inkscape:pageopacity="0.0" inkscape:pageshadow="2" inkscape:window-height="1016" inkscape:window-maximized="1" inkscape:window-width="1866" inkscape:window-x="54" inkscape:window-y="27" inkscape:zoom="0.64052329" pagecolor="#ffffff" showgrid="false"/>
  <defs id="defs62312"/>
  <g id="layer1" inkscape:groupmode="layer" inkscape:label="Capa 1" transform="translate(21.91008,-13.781625)">
    <g id="g80869" transform="matrix(0.26458333,0,0,0.26458333,-9927.9617,-702.45776)">
      <path d="m 37761.741,2753.0985 c -46.904,-0.453 -78.566,56.139 -92.362,100.246 -17.397,52.702 -1.998,163.497 80.14,145.615 82.137,-17.881 104.288,-52.53 115.981,-113.959 11.692,-61.429 -13.977,-96.935 -76.149,-125.339 -9.714,-4.439 -18.924,-6.479 -27.61,-6.563 z m -28.061,283.24 c -67.903,0.822 -88.312,37.8685 -104.264,81.1005 -17.017,46.115 -2.5,74.9967 -2.273,114.7807 0.418,39.27 251.255,28.8929 254.392,6.2209 3.138,-22.672 11.92,-15.9107 -3.005,-90.1727 -14.925,-74.263 -49.377,-107.2434 -130.468,-111.6064 -5.068,-0.273 -9.856,-0.378 -14.382,-0.323 z" fill="#00B894" id="path11832" sodipodi:nodetypes="scsssssscssss" style="display:inline;fill:#ffffff;fill-opacity:1;stroke:none;stroke-width:1.90488;stroke-linecap:round;stroke-linejoin:round;stop-color:#000000"/>
      <path d="m 37497.722,2707.2038 c -0.922,0.445 -1.744,1.852 -2.979,4.473 -2.88,6.107 -3.464,13.623 -4.2,53.883 -0.23,12.566 -1.058,24.487 -1.837,26.492 -0.842,2.163 -4.291,-11.969 -8.488,-34.753 -5.195,-28.207 -7.986,-38.958 -10.52,-40.523 -5.68,-3.508 -7.977,11.435 -7.132,46.411 0.42,17.371 0.483,31.962 0.137,32.426 -0.346,0.463 -2.215,-5.986 -4.155,-14.331 -8.635,-37.19 -10.311,-41.751 -15.099,-41.079 -4.272,0.599 -4.287,2.113 -0.339,29.873 2.287,16.083 6.129,39.796 8.541,52.698 2.728,14.606 0.756,23.143 14.274,30.688 l 9.897,7.229 -5.72,20.881 c -6.569,23.978 -22.326,110.521 -25.169,138.237 -4.011,39.126 -0.08,71.3 10.497,86.238 6.075,8.567 20.153,17.456 30.672,19.363 19.819,3.593 54.145,-6.747 133.764,-40.29 14.844,-6.232 23.628,-21.5137 9.904,7.2783 -9.131,25.71 -10.652,33.9941 -13.892,92.8685 -1.444,26.2234 -0.373,47.4502 3.505,56.3222 1.026,2.252 8.205,5.547 11.203,6.513 5.062,-0.71 4.043,-11.75 3.69,-24.172 -0.719,-25.428 0.44,-37.5482 0.639,-71.1822 0.204,-34.745 21.175,-81.1128 46.259,-96.2998 12.37,-7.489 36.703,-10.803 73.974,-10.071 35.604,0.699 48.604,4.052 64.04,16.518 32.719,26.421 53.322,65.3644 53.126,122.498 -0.184,53.5027 1.648,55.86 6.467,59.492 7.895,5.951 11.631,-2.122 11.132,-24.046 -0.153,-6.918 -0.201,-14.657 -0.102,-36.754 1.85,-48.38 -17.076,-76.859 -38.751,-109.918 -11.954,-18.233 -35.832,-36.343 -51.948,-39.402 -17.328,-3.289 -69.979,-2.039 -98.543,2.34 -22.446,3.441 -30.043,5.91 -76.801,24.934 -117.828,47.942 -132.983,51.295 -149.372,33.072 -7.67,-8.529 -11.237,-29.779 -9.848,-58.665 0.862,-17.945 10.948,-87.86 21,-145.569 l 4.403,-25.284 8.324,-1.188 c 18.332,-2.62 44.022,-31.806 53.913,-61.251 4.937,-14.698 4.86,-28.05 -0.173,-30.262 -3.228,-1.419 -4.934,1.309 -14.914,23.839 -3.795,8.568 -7.332,15.253 -7.857,14.857 -0.527,-0.396 1.271,-12.902 3.996,-27.79 8.174,-44.66 6.506,-73.173 -4.192,-71.671 -3.26,0.457 -4.449,4.189 -5.746,18.015 -1.673,17.848 -13.933,78.533 -15.612,77.269 -0.511,-0.386 -0.423,-7.928 0.198,-16.761 0.618,-8.832 0.23,-30.291 -0.862,-47.688 -1.694,-26.952 -2.543,-32.048 -5.729,-34.45 -1.638,-1.234 -2.659,-1.753 -3.58,-1.308 z m 267.933,39.8973 c -58.585,4.9793 -88.226,45.164 -100.713,78.1648 -8.74,23.0991 -13.676,73.2361 -1.843,105.2034 -2.337,27.0004 5.972,26.0245 5.093,43.1449 -0.75,14.6295 5.906,20.613 12.12,29.4136 2.753,3.8989 8.812,6.581 10.262,9.562 2.588,5.323 13.756,9.664 16.936,6.583 0.888,-0.86 5.275,0.779 9.752,3.644 8.099,5.184 16.031,5.271 21.123,0.23 1.884,-1.867 4.684,-1.1 9.501,2.602 7.264,5.582 13.525,5.394 22.811,-0.682 4.38,-2.865 6.459,-3.074 9.739,-0.975 6.799,4.352 15.745,0.856 22.983,-8.986 4.068,-5.528 8.543,-9.145 11.649,-9.412 7.308,-0.628 15.169,-12.185 20.002,-29.404 2.746,-9.786 6.94,-17.899 12.108,-23.433 17.357,-18.585 29.237,-48.8506 33.002,-69.771 0.576,-3.1991 0.229,-4.6495 0.229,-4.6495 7.636,-0.2859 15.62,-10.0016 1.006,-16.5474 l -5.008,-21.76 c -13.136,-70.8048 -64.276,-98.7462 -110.752,-92.9278 z m 66.191,40.6095 c 10.081,12.1953 26.705,38.6542 27.55,62.0372 0.325,9.028 0.413,10.4157 0.413,10.4157 -7.584,-0.5368 -11.976,12.3028 -0.129,14.4306 0,0 1.333,1.2417 -2.121,16.7157 -4.621,20.694 -26.935,54.628 -35.109,53.389 -1.893,-0.286 -3.194,0.618 -2.889,2.007 0.305,1.39 -1.054,3.548 -3.019,4.796 -1.965,1.249 -5.979,5.342 -8.922,9.096 -4.103,5.233 -7.114,6.922 -12.917,7.242 -5.594,0.309 -7.898,1.508 -8.837,4.606 -1.066,3.526 -2.404,4.024 -8.429,3.145 -5.739,-0.837 -7.66,-0.262 -9.682,2.896 -2.207,3.449 -2.797,3.524 -4.729,0.589 -1.385,-2.104 -4.107,-2.669 -7.305,-1.515 -2.803,1.012 -6.976,0.87 -9.271,-0.316 -2.297,-1.185 -5.889,-1.404 -7.989,-0.486 -2.099,0.918 -5.887,0.04 -8.416,-1.957 -3.921,-3.09 -5.035,-3.068 -7.532,0.137 -2.615,3.354 -3.142,2.8 -4.88,-5.119 -2.474,-11.279 -9.259,-15.784 -12.546,-8.33 -1.19,2.696 -2.033,5.982 -1.873,7.302 0.31,2.582 -5.782,-8.459 -9.979,-18.085 -2.181,-5.003 -2.985,-5.356 -5.338,-2.337 -2.408,3.09 -2.681,2.775 -2.079,-2.393 0.38,-3.272 -0.03,-9.45 -0.936,-13.732 -1.269,-6.075 -2.464,-7.531 -5.442,-6.626 -5.145,1.565 -5.831,-3.232 -2.173,-15.196 2.876,-9.405 2.795,-10.079 -1.474,-12.025 -5.797,-2.64 -6.201,-4.669 -1.145,-5.777 3.774,-0.829 15.375,-16.824 14.637,-20.185 -0.828,-3.771 -7.766,0.642 -12.405,7.887 -2.784,4.351 -5.226,7.169 -5.424,6.264 -1.134,-5.169 2.11,-29.69 5.898,-44.567 6.789,-26.67 15.052,-39.0548 32.341,-54.5363 47.901,-42.8923 103.105,-22.8142 122.151,0.2271 z m -88.969,44.1182 c -0.441,-0.02 -0.925,0 -1.455,0.03 -6.218,0.468 -8.491,9.512 -3.797,15.097 1.812,2.156 4.834,2.866 7.678,1.804 3.802,-1.42 4.37,-3.229 2.989,-9.522 -1.223,-5.575 -2.322,-7.282 -5.415,-7.412 z m 46.594,1.092 c -3.227,-0.52 -6.603,2 -7.685,7.042 -0.99,4.612 -0.458,6.684 2.266,8.807 7.553,5.885 15.1,-2.362 10.541,-11.519 -1.301,-2.613 -3.185,-4.018 -5.122,-4.33 z m 9.592,28.169 c -1.655,0.4 -3.865,3.101 -5.495,7.305 -1.856,4.784 -1.716,5.479 0.988,4.886 4.02,-0.882 7.513,-6.274 6.639,-10.254 -0.348,-1.588 -1.14,-2.177 -2.132,-1.937 z m -83.436,0.922 c -1.655,-0.05 -3.519,0.529 -4.674,1.554 -1.539,1.368 -4.492,2.435 -6.563,2.37 -3.847,-0.119 -13.829,12.264 -12.996,16.118 0.584,2.661 6.591,1.515 7.63,-1.448 0.423,-1.2 3.158,-2.246 6.082,-2.326 6.881,-0.187 17.4,-14.128 12.071,-15.998 -0.472,-0.166 -1,-0.252 -1.55,-0.27 z m 11.904,0.549 c -0.358,-0.02 -0.774,0.02 -1.244,0.12 -3.747,0.822 -9.224,9.155 -8.421,12.813 0.726,3.31 3.331,1.677 8.693,-5.448 3.173,-4.218 3.475,-7.328 0.972,-7.485 z m 26.628,1.398 c -4.877,0.126 -9.685,5.588 -8.733,9.925 0.987,4.495 4.582,2.905 8.985,-3.974 3.526,-5.508 3.505,-6.048 -0.252,-5.951 z m 51.487,0.136 c -0.389,-0.06 -1.006,1.162 -2.19,3.608 -1.348,2.779 -2.256,5.943 -2.018,7.032 0.982,4.475 5.538,-1.488 5.022,-6.573 -0.271,-2.668 -0.428,-4.008 -0.814,-4.067 z m -19.177,0.04 c -2.699,-0.328 -9.112,6.845 -8.454,9.845 0.338,1.537 1.455,2.61 2.486,2.383 2.732,-0.599 8.253,-10.909 6.457,-12.058 -0.137,-0.09 -0.31,-0.148 -0.489,-0.17 z m -46.957,0.759 c -2.667,0.256 -6.39,5.911 -5.627,9.389 0.39,1.779 1.801,2.589 3.134,1.794 3.382,-2.017 5.812,-9.495 3.554,-10.94 -0.322,-0.206 -0.68,-0.279 -1.061,-0.243 z m 29.666,0 c -2.995,0.658 -4.188,5.159 -1.97,7.449 1.04,1.072 2.693,1.168 3.674,0.216 2.331,-2.257 0.997,-8.257 -1.704,-7.665 z m 44.727,1.814 c -2.469,0.542 -2.953,10.025 -0.632,12.421 0.956,0.986 2.295,0.248 2.982,-1.641 1.634,-4.496 0.153,-11.328 -2.35,-10.78 z m 13.642,2.599 c -3.127,0.289 -4.804,10.885 -2.036,15.057 2.327,3.508 2.549,3.445 4.669,-1.322 2.581,-5.806 1.624,-12.38 -1.991,-13.648 -0.219,-0.08 -0.432,-0.106 -0.642,-0.09 z m 11.376,6.74 c -0.658,-0.197 -1.404,0.05 -2.2,0.818 -2.263,2.193 -3.071,18.241 -1.024,20.352 2.634,2.719 4.838,-1.04 5.741,-9.791 0.64,-6.226 -0.542,-10.788 -2.517,-11.379 z m 11.921,10.71 c -0.402,-0.07 -0.84,-0.06 -1.314,0.04 -3.564,0.782 -6.402,8.303 -5.199,13.781 1.074,4.892 6.992,3.004 8.618,-2.749 1.688,-5.981 0.708,-10.577 -2.105,-11.076 z m -35.941,10.084 c -1.927,-0.09 -4.355,-0.07 -7.448,0.02 -7.634,0.192 -26.214,1.366 -41.295,2.606 -15.08,1.24 -35.606,2.33 -45.616,2.426 -20.025,0.192 -22.078,1.541 -19.562,12.866 3.274,14.726 29.689,37.431 49.556,42.594 22.597,5.872 52.274,-10.261 67.182,-36.526 5.472,-9.642 6.951,-14.645 5.541,-18.734 -1.286,-3.729 -2.574,-4.98 -8.358,-5.242 z m -12.287,10.191 c 2.195,-0.09 3.617,0.139 3.742,0.705 0.862,3.929 -13.24,19.479 -23.95,26.409 -13.32,8.619 -18.105,9.624 -30.04,6.327 -15.16,-4.189 -40.49,-22.988 -37.425,-27.777 0.544,-0.848 6.68,-1.122 13.636,-0.606 17.128,1.271 51.421,-0.753 65.674,-3.864 3.205,-0.7 6.17,-1.105 8.363,-1.194 z" fill="#00B894" id="path11834" sodipodi:nodetypes="sssssssscsssccssssccsccsssssssscssssssscsssssssssssssscscssssssssssssssccccssssssssssssssssssssssssscssssssssssscsssssssssssssssssscssssscsssssssssssssssssssssssssssssssssssssssssscssssccssssssccssssssss" style="display:inline;fill:#000000;stroke-width:2.272"/>
    </g>
  </g>
</svg>