<?xml version="1.0" ?><svg height="134.00717mm" viewBox="0 0 135.78165 134.00717" width="135.78165mm" xmlns="http://www.w3.org/2000/svg">
    <path d="m 39815.711,2642.2422 c -1.171,-0.036 -2.319,-0.029 -3.44,0.023 -35.855,1.6655 -100.511,55.3766 -101.205,105.8614 -0.694,50.4848 34.7,98.1589 85.707,110.3378 54.246,2.1859 95.191,-38.8269 104.791,-106.3828 9.3,-65.4448 -49.566,-108.7135 -85.853,-109.8398 z m -16.856,244.5351 c -28.568,-0.1041 -84.665,23.2136 -96.347,70.6797 -11.682,47.4661 -9.485,138.6504 -9.485,138.6504 21.744,9.1601 82.237,10.9305 113.235,8.6406 30.997,-2.29 88.83,-16.3437 88.83,-16.3437 0,0 -0.696,-114.1883 -15.848,-146.457 -15.152,-32.2686 -51.816,-55.066 -80.385,-55.17 z" fill="#FFFFFF" paint-order="markers stroke fill" transform="translate(25.633083,-74.918558) matrix(0.26458333,0,0,0.26458333,-9617.8353,28.486043) translate(-3313.5291,-2437.8203)"/>
    <path d="m 39783.564,2613.3203 c -3.931,0.086 -7.609,0.9539 -10.904,2.6192 -3.004,1.5197 -11.011,5.4134 -17.791,8.6543 -25.511,12.1941 -33.143,17.009 -36.287,22.8867 -1.783,3.327 -7.298,10.1073 -12.26,15.0683 -6.14,6.1403 -9.719,13.684 -11.211,23.6309 -1.203,8.0366 -4.156,16.2445 -6.556,18.2383 -4.965,4.1191 -7.912,36.2304 -0.83,56.0058 0.605,1.6876 1.35,8.0789 0.373,12.9688 -1.396,6.9688 -0.1,14.2486 8.779,25.8769 6.23,8.1594 12.09,13.7082 12.09,14.959 0,1.2508 -4.957,4.0654 -11.016,6.2559 -10.692,3.8662 -18.256,12.5954 -16.566,19.1113 0.456,1.7589 -4.131,5.7112 -10.19,8.7832 -6.058,3.072 -12.412,8.7706 -14.121,12.6641 -1.971,4.4949 -6.922,7.7942 -13.558,9.039 -10.535,1.9768 -21.711,14.0084 -18.235,19.6328 1.012,1.6378 -3.283,5.9997 -9.543,9.6934 -9.873,5.8244 -11.146,7.9017 -9.595,15.6465 1.379,6.8944 -0.03,10.634 -6.168,16.4023 -5.751,5.4022 -7.603,9.8738 -6.682,16.1426 0.829,5.649 -0.732,10.4842 -4.479,13.875 -3.166,2.8645 -5.772,9.5834 -5.822,14.9453 -0.04,5.3579 -2.838,13.2835 -6.222,17.6113 -6.566,8.394 -8.027,20.7161 -3.334,28.1309 1.865,2.9495 1.3,6.7581 -1.625,10.9317 -5.668,8.0933 -5.721,15.7952 -0.141,20.4257 2.388,1.9817 5.204,7.9281 6.262,13.2129 1.393,6.9654 3.447,9.3183 7.463,8.5567 7.403,-1.404 8.942,-16.6178 2.656,-26.2149 -6.235,-9.5142 -1.435,-12.9341 6.242,-4.4492 3.755,4.1487 5.51,10.2931 5.021,17.5625 -0.968,14.3479 5.664,29.418 12.944,29.418 7.621,0 10.269,-8.2716 5.5,-17.1817 -4.521,-8.4474 -0.713,-18.5838 5.531,-14.7246 2.54,1.5697 4.197,11.8332 4.676,28.9336 0.618,22.1384 1.624,26.6713 6.119,27.5332 3.68,0.7056 6.89,-2.5848 10.164,-10.418 4.878,-11.6764 11.95,-12.9339 8.984,-1.5976 -0.905,3.4345 -0.816,8.3912 0.19,11.0137 h 0.01 c 2.661,6.9358 11.78,5.8392 13.74,-1.6524 1.573,-6.0213 2.036,-6.0948 7.453,-1.1914 3.764,3.4043 7.743,4.3718 11.404,2.7735 3.094,-1.3507 6.663,-2.2402 7.928,-1.9766 2.957,0.6167 8.271,-3.7975 12.939,-11.6484 6.261,1.4902 9.102,-9.4214 11.213,-15.545 2.112,-6.1205 0.09,-10.606 -2.134,-18.4297 0.03,-3.4397 0.167,-6.5103 0.228,-9.8379 1.383,-2.9729 3.687,-5.5647 4.859,-9.832 2.093,-7.6111 0.541,-14.7336 -0.529,-20.8301 -1.07,-6.0964 6.472,-11.7225 8.701,-18.3964 2.231,-6.6742 -1.011,-14.7126 -4.017,-19.793 -3.006,-5.0804 0.2,-7.8358 1.724,-11.7402 1.368,-3.5036 3.199,-14.354 0.678,-21.1426 4.786,-16.9332 11.033,-29.3484 18.799,-37.1153 16.357,-16.3566 38.84,-27.139 62.504,-22.8574 23.2,4.198 35.607,12.7484 47.887,33.0117 21.253,35.0656 26.516,58.1402 29.908,114.2325 2.833,46.8477 4.398,55.9664 15.045,51.8808 2.783,-1.068 6.304,-5.7218 7.822,-10.3437 2.769,-8.4363 0.338,-57.6124 -3.891,-88.377 l -2.261,-16.4531 16.646,13.1601 c 40.137,31.7306 60.158,32.9807 74.701,4.6739 4.921,-9.5818 12.476,-47.8269 16.293,-87.1153 6.017,-61.9366 5.772,-60.914 15.951,-66.1777 5.062,-2.6177 18.467,-15.6158 29.791,-28.8867 26.332,-30.8602 31.669,-47.9904 12.186,-39.1133 -7.259,3.3074 -8.018,3.1307 -6.252,-1.4668 4.926,-12.8417 8.746,-33.0476 7.072,-37.4121 -3.578,-9.3271 -10.166,-4.5412 -18.326,13.3184 l -8.269,18.0996 -0.309,-19.416 c -0.351,-22.2087 -2.375,-29.3711 -8.291,-29.3711 -2.559,0 -5.519,6.9686 -7.686,18.0976 -1.941,9.9541 -4.3,22.0941 -5.246,26.9785 -2.39,12.35 -3.665,9.7037 -7.134,-14.7929 -3,-21.1823 -7.915,-31.7722 -13.227,-28.4903 -1.534,0.9487 -2.789,18.2308 -2.789,38.4043 v 36.6797 l -9.205,-10.8984 c -8.562,-10.1368 -12.465,-14.8828 -17.389,-10.0742 -4.953,4.8338 -1.536,11.1899 11.004,35.2929 14.166,27.2303 11.657,40.2535 8.068,78.2403 -8.015,84.832 -14.121,106.6953 -23.453,106.6953 -11.931,0 -40.065,-23.5011 -73.918,-63.9492 -33.283,-39.7665 -55.535,-53.582 -82.05,-55.7696 -5.848,-0.038 -28.457,0.034 -36.245,2.9922 -6.904,2.6231 -7.38,0.4536 -7.113,-5.2969 1.28,-13.4243 2.075,-13.7856 20.748,-9.455 37.992,8.8119 87.297,-18.7893 109.272,-61.1739 5.755,-11.0977 11.963,-20.9883 11.963,-20.9883 14.278,0.9663 16.672,-14.1492 4.132,-16.0742 0,0 -0.02,-6.3047 1.143,-16.1855 1.74,-14.7954 -2.007,-34.3456 -4.887,-45.5586 -2.323,-10.024 5.627,-13.0442 3.51,-28.4492 -0.922,-6.7063 -4.042,-19.1758 -13.303,-19.1758 -6.463,0 -9.084,-1.8841 -10.508,-7.5469 -1.857,-7.4068 -14.722,-16.9696 -36.556,-27.1738 -11.079,-5.1774 -33.06,-4.9787 -36.34,0.3281 -0.911,1.4753 -6.608,-0.098 -12.658,-3.4961 -7.378,-4.1443 -14.64,-6.1759 -21.194,-6.0332 z m 39.891,41.0918 c 3.477,0.3618 6.476,2.4901 9.533,4.4024 4.669,4.3279 10.431,7.8691 12.801,7.8691 2.37,0 10.22,3.6722 11.334,8.7461 2.498,11.3739 1.766,15.5699 13.91,16.9433 11.87,1.3424 18.024,13.0877 19.879,37.9336 2.063,27.6278 -0.33,33.3874 -14.359,34.5489 -13.617,1.1272 -17.698,9.2365 -5.797,15.1191 4.568,2.2584 11.318,1.4269 11.318,2.7246 -11.301,30.3687 -34.562,47.7579 -55.97,57.1621 -25.869,9.6193 -48.422,1.6279 -68.012,-12.875 -21.998,-16.2852 -39.603,-58.8295 -30.873,-83.1875 1.86,-5.1935 5.089,-15.3906 7.176,-22.6601 2.708,-9.4346 5.669,-13.4883 10.345,-14.1641 3.604,-0.5207 11.118,-6.2825 11.815,-10.1191 2.636,-14.4993 9.105,-17.3938 12.974,-17.1914 2.185,0 9.617,-5.6018 11.711,-8.125 2.383,-2.8696 6.946,-3.9644 12.19,-2.9219 6.501,1.2927 10.455,-0.5015 17.627,-8.002 4.967,-5.1597 8.921,-6.5649 12.398,-6.2031 z m 13.137,75.5234 c -8.42,-0.2393 -11.798,12.4701 -7.86,17.2129 5.352,6.4494 11.661,5.5845 14.043,-1.9257 1.997,-6.2888 -0.882,-15.1365 -6.183,-15.2872 z m -43.418,1.1016 c -4.694,0.7824 -8.676,6.5096 -8.676,13.082 0,6.8346 4.795,8.5193 9.906,8.1914 6.397,-0.4104 7.688,-4.203 8.469,-9.7285 0.583,-4.1321 -2.67,-9.154 -4.891,-10.5273 -1.601,-0.9897 -3.244,-1.2784 -4.808,-1.0176 z m -23.278,63.8301 c -3.484,0.366 -4.763,3.694 0.06,12.7207 4.539,8.7778 14.522,14.7617 28.709,17.207 15.793,2.7219 29.279,-5.3502 25.481,-15.25 -1.582,-4.1209 -4.57,-4.7408 -14.893,-3.0898 -9.854,1.5752 -16.52,0.287 -26.178,-6.5313 -4.003,-2.8263 -9.691,-5.4227 -13.176,-5.0566 z m -158.763,171.2461 c 0.377,0.1999 -0.536,1.4207 -2.494,3.7949 -2.377,2.8801 -5.566,5.2363 -7.084,5.2363 -4.809,0 -3.004,-2.7965 4.322,-6.6992 3.21,-1.7109 4.878,-2.532 5.256,-2.332 z m 22.933,18.5566 c 0.4,0.09 0.774,0.2908 1.102,0.6192 0.732,0.7325 -0.736,4.0605 -3.26,7.3964 -4.027,5.3252 -4.597,5.4173 -4.687,0.7442 -0.09,-4.5652 4.05,-9.3861 6.845,-8.7598 z m -40.57,13.9414 c 1.079,-0.4032 1.284,1.8461 1.445,7.4942 0.276,9.7507 -2.836,14.8095 -6.724,10.9218 -3.185,-3.184 -2.367,-8.7225 2.215,-14.9882 1.455,-1.9902 2.417,-3.1858 3.064,-3.4278 z m 35.891,18.6836 c 0.541,0.097 0.792,0.8444 0.81,2.2149 0.04,2.7612 -2.761,7.5835 -6.224,10.7168 -8.033,7.2708 -8.033,2.4039 0,-7.8672 2.8,-3.5802 4.511,-5.2263 5.414,-5.0645 z" fill="#00B894" transform="translate(25.633083,-74.918558) matrix(0.26458333,0,0,0.26458333,-9617.8353,28.486043) translate(-3313.5291,-2437.8203)"/>
</svg>