<?xml version="1.0" ?><svg height="214.21204mm" viewBox="0 0 234.91144 214.21204" width="234.91144mm" xmlns="http://www.w3.org/2000/svg">
    <path d="m 4126.5725,926.33288 c -0.082,22.66392 24.0366,24.34103 26.0636,24.54371 24.1594,0.66336 25.8789,-16.69431 27.6603,-29.48192 -1.7879,-14.70801 -7.7086,-27.94085 -23.669,-26.88781 -30.671,0.90147 -29.7417,16.99493 -30.0549,31.82602 z m 135.9802,-15.2585 -4.3257,0.30594 c 0,0 -24.3345,2.90936 -24.2737,23.12726 0.062,20.21789 16.3161,27.71187 21.6525,29.9062 9.6916,1.36628 22.5266,-2.85687 28.6758,-11.41328 6.1491,-8.55628 2.9596,-21.25276 -1.9627,-29.82299 -4.9226,-8.5702 -19.7662,-12.10313 -19.7662,-12.10313 z m -151.6992,60.51259 c -4.8842,9.3893 -6.6185,24.83853 -5.8959,38.41523 h -3e-4 c 0,0 -8.092,5.5143 -13.0918,7.8031 -4.9996,2.2888 -25.7789,10.2732 -29.6514,14.3826 -3.8727,4.1094 -1.0694,23.2783 4.7977,29.0003 5.8664,5.7219 30.0847,30.9506 78.9258,29.6762 48.8412,-1.2745 73.8393,-19.0905 83.5501,-35.7363 9.7105,-16.6457 31.5875,-24.9948 54.4187,-41.5106 22.8309,-16.51572 -3.1213,-38.62343 -18.2938,-43.04494 -15.1726,-4.42161 -30.6631,-0.72834 -36.5877,1.04024 -5.924,1.7686 -67.0769,19.22105 -67.0769,19.22105 0,0 3.2123,-17.16606 0.068,-23.64507 -3.1438,-6.47888 -5.4515,-9.4537 -17.5236,-12.38631 -13.5508,-3.29181 -28.4252,7.49751 -33.6389,16.7845 z" fill="#FFFFFF" paint-order="markers stroke fill" transform="translate(148.55101,11.826822) translate(-1810.1916,371.9957) translate(-2398.7881,-1260.5215)"/>
    <path d="m 1733.4779,-383.8222 c -0.906,-0.0181 -1.7058,0.72642 -2.1905,2.19779 l -0.5443,1.64902 -1.3157,-1.63195 c -2.4395,-3.02575 -5.6423,-1.81044 -6.1532,2.33473 -0.1958,1.59015 -0.7019,2.03277 -2.5548,2.23295 -2.5482,0.27538 -4.7207,3.05584 -4.0106,5.133 0.3122,0.91244 -0.087,1.31154 -1.5023,1.50019 -2.758,0.36785 -3.915,2.76749 -2.0743,4.30154 1.2094,1.00753 1.2597,1.2814 0.3535,1.92442 -0.581,0.41241 -1.4153,0.74975 -1.8537,0.76224 -1.6047,0.0245 -2.712,2.41255 -1.8425,3.97494 0.6328,1.13718 0.5849,1.66378 -0.2194,2.41279 -2.1714,2.02295 -0.1545,6.31743 2.9678,6.31743 1.873,0 1.9654,0.25294 0.901,2.48512 -0.5776,1.21172 -0.4903,2.0451 0.3693,3.51814 1.351,2.31407 4.1452,2.54061 7.72,0.62683 1.3386,-0.71628 2.9401,-1.08453 3.5584,-0.81804 1.1277,0.48551 1.5565,3.75065 0.63,4.79091 -0.87,0.97639 -0.1342,7.81966 1.3046,12.13673 1.5476,4.6422 3.6402,10.65289 10.1484,15.04146 7.2819,4.91006 13.4863,4.40811 21.0132,4.88807 1.5603,0.0995 5.4933,-0.73017 5.4933,-0.73017 0.9115,3.44215 5.007,2.78873 4.2447,-1.25524 0,0 1.7312,-1.14713 3.6039,-2.35696 3.7108,-2.39728 7.2101,-7.24723 9.5305,-14.32936 1.0367,-3.16338 2.2961,-5.75106 2.7993,-5.75106 0.5033,0 1.3912,-0.53451 1.973,-1.18753 0.9393,-1.0545 0.9054,-1.6746 -0.3027,-5.53349 -1.7436,-5.56954 -1.7531,-7.55926 -0.033,-7.55926 0.7294,0 1.7227,0.53608 2.2066,1.19063 1.093,1.47815 4.2463,1.54368 5.9756,0.12404 0.9012,-0.73951 1.1896,-1.7104 0.9411,-3.16881 -0.2127,-1.24854 0.032,-2.46544 0.6035,-2.99723 0.529,-0.49247 0.9613,-1.5897 0.9613,-2.43758 0,-0.84788 0.3603,-2.29716 0.8006,-3.22098 0.6705,-1.40608 0.5488,-1.90934 -0.748,-3.08766 -1.2758,-1.15973 -1.412,-1.69323 -0.7733,-3.0329 0.641,-1.34509 0.4757,-1.96199 -0.9602,-3.57343 -1.1401,-1.2799 -1.6055,-2.50336 -1.3571,-3.56878 0.4607,-1.97747 -0.904,-3.99304 -2.7032,-3.99304 -0.8504,0 -1.3272,-0.56301 -1.3272,-1.56837 0,-0.86265 -0.7733,-2.13731 -1.7187,-2.83289 -1.3962,-1.02685 -2.0169,-1.08593 -3.3009,-0.31473 -1.3883,0.83397 -1.7458,0.69578 -2.9327,-1.13326 -1.656,-2.55093 -3.6152,-2.67086 -5.0882,-0.31057 -0.9475,1.51884 -1.307,1.63264 -2.5043,0.79322 -2.1764,-1.5258 -4.2203,-1.18898 -4.8807,0.80513 -0.3265,0.98179 -0.4474,2.20665 -0.2733,2.7218 0.1952,0.57747 -0.585,1.0338 -2.0365,1.19012 -1.9397,0.20873 -2.3916,0.61722 -2.5678,2.3218 -0.2117,2.04462 -0.2974,2.07361 -7.4187,2.51407 -5.2006,0.0543 -11.7498,0.72553 -8.2116,-3.18585 2.9375,-3.11937 -0.3815,-4.35792 -2.2095,-3.21789 -1.2459,0.77701 -4.2241,0.21892 -2.4646,-1.98387 1.442,-1.80525 -2.4789,-3.80522 -3.5108,-1.74615 -3.7842,1.78737 -3.4598,-0.20458 -4.3069,-1.9177 -0.5337,-1.07925 -1.5031,-1.42978 -2.2074,-1.44436 z m 130.5687,27.75077 c -2.2651,0.0217 -2.8837,0.84617 -1.4505,2.42983 1.7696,1.95516 0.8221,2.54024 -5.8245,3.59614 -7.1996,1.14382 -11.8912,4.06815 -15.5525,7.72924 -7.7113,7.71131 -10.1423,20.80242 -4.2257,32.82799 2.3297,4.73478 7.8801,9.51246 13.3305,12.01426 4.141,1.90082 5.7127,2.26271 5.2735,4.00801 -0.2646,1.054 -0.6716,2.86129 -0.9039,4.0163 -0.3841,1.91108 -0.7265,2.10063 -3.8028,2.10063 -1.8844,0 -4.7181,0.68236 -6.4043,1.54255 -2.6019,1.32749 -3.0239,1.89505 -3.0239,4.06693 0,4.48699 2.9697,6.01975 14.891,7.68327 1.2602,0.1756 4.8432,0.19981 7.9624,0.0532 8.3802,-0.39359 11.938,-3.75954 8.8903,-8.41084 -1.6211,-2.47419 -4.7123,-3.97785 -9.4779,-4.61004 -5.2404,-0.69512 -5.4473,-2.53704 -0.2289,-2.03555 8.0627,0.7747 18.5653,-2.95608 24.6433,-8.75347 3.7441,-3.57151 4.5728,-4.91718 6.3868,-10.37508 4.2738,-12.85881 1.6436,-27.15006 -6.653,-36.15076 -4.9411,-5.36081 -10.1724,-8.78488 -15.7456,-10.30738 -3.5645,-0.97361 -6.3225,-1.44219 -8.0843,-1.42523 z m 3.1808,3.81008 c 4.8159,0 15.5064,6.66195 19.8308,12.35842 6.9064,9.09791 7.771,23.73249 2.0251,34.2894 -3.1472,5.78278 -6.8546,8.70492 -13.7753,10.85773 -7.3662,2.29129 -16.4073,3.27776 -15.8115,1.72548 0.2718,-0.70871 2.2463,-1.12639 6.2638,-1.32448 17.7654,-0.87619 29.0819,-16.36575 24.2144,-33.14475 -3.1155,-10.73899 -10.2042,-18.42773 -20.0602,-21.75783 -3.6603,-1.23671 -5.2417,-3.00397 -2.6871,-3.00397 z m -6.9858,4.58166 h 1.8613 l -1.8939,2.8639 c -1.0416,1.57509 -2.283,3.98095 -2.7585,5.34591 -0.4755,1.36512 -1.3462,2.48203 -1.9352,2.48203 -1.302,0 -1.1893,0.30326 -1.3798,-3.68454 -0.1344,-2.8031 0.1741,-3.58222 2.0429,-5.15472 1.211,-1.01891 3.0395,-1.85258 4.0632,-1.85258 z m 3.3255,0.63251 c 0.4861,0.0507 0.7811,1.13393 1.1838,3.28094 0.4625,2.4661 0.3291,2.79723 -1.2671,3.14193 -0.9813,0.2118 -2.3855,0.6378 -3.1208,0.9467 -1.8446,0.7756 -1.6645,-0.14541 0.8729,-4.45502 1.1676,-1.98316 1.8449,-2.96527 2.3312,-2.91455 z m 3.0576,0.13126 c 0.8188,0 2.413,1.2123 3.543,2.69388 1.1298,1.48162 1.9217,2.77262 1.7568,2.87063 -0.1635,0.0969 -1.3872,0.0676 -2.7196,-0.0651 -1.9235,-0.19179 -2.5921,-0.72763 -3.2457,-2.60241 -1.0519,-3.0175 -1.0792,-2.89698 0.6655,-2.89698 z m -11.8396,0.17621 c 0.3686,-0.0172 0.055,0.35785 -0.9978,1.28725 -0.9913,0.87522 -2.7098,1.58033 -3.8184,1.56737 -1.937,-0.0233 -1.9582,-0.0681 -0.5334,-1.14567 0.8154,-0.61672 1.9044,-1.12139 2.4196,-1.12139 0.5154,0 1.5666,-0.20076 2.3363,-0.44598 0.2722,-0.0868 0.4709,-0.13589 0.5937,-0.14158 z m 17.2175,1.43299 c 0.4987,0.008 1.8994,0.87638 4.4159,2.61016 0.1145,0.0792 -0.01,0.70888 -0.2728,1.39888 -0.6877,1.79136 -1.2433,1.53549 -3.1467,-1.45055 -1.0914,-1.71209 -1.4949,-2.56606 -0.9964,-2.55849 z m -24.6269,1.86449 v 0 c 0.1262,-0.014 0.1958,0.0392 0.1958,0.16846 0,0.517 0.5156,0.93999 1.1451,0.93999 1.9129,0 1.3107,1.35911 -2.286,5.15731 -3.6031,3.80481 -4.1807,5.7427 -2.3223,7.79592 0.9816,1.08638 0.9779,1.50492 -0.033,3.45352 -0.9239,1.78049 -0.9937,2.94791 -0.3553,5.92522 0.4374,2.0394 0.7953,4.03497 0.7953,4.43436 0,0.86849 -0.4902,0.84513 -3.2215,-0.15349 -2.5249,-0.92329 -3.3131,-4.09823 -2.5922,-10.45104 0.7499,-6.60939 2.7337,-11.57554 4.6281,-11.59152 1.2875,-0.01 1.3629,-0.14174 0.4218,-0.74105 -0.9575,-0.60981 -0.7379,-1.13834 1.3369,-3.21945 1.0237,-1.02703 1.9074,-1.67598 2.2855,-1.71823 z m 21.0391,3.48506 c 0.6475,0 1.6024,0.48073 2.8308,1.44177 l 1.909,1.49344 -2.8639,0.0171 c -2.3601,0.014 -2.8636,-0.25162 -2.8636,-1.51051 0,-0.96104 0.3403,-1.44177 0.9877,-1.44177 z m 10.4474,0.0264 v 10e-4 c 0.2778,-0.0143 0.6085,0.18859 1.1075,0.60253 0.662,0.54952 1.2036,1.22513 1.2036,1.50223 0,0.27689 -0.8591,0.57444 -1.909,0.66146 -2.0333,0.16819 -2.3066,-0.30578 -1.1922,-2.06706 0.2874,-0.45461 0.5123,-0.68585 0.7901,-0.70019 z m -13.9872,0.69659 v 5.1e-4 c 0.6318,0.004 1.0247,0.37155 1.0247,1.10019 0,0.78819 -0.7739,1.13789 -2.4821,1.12088 -2.3476,-0.023 -2.4013,-0.0851 -0.9993,-1.14568 0.9546,-0.72215 1.8248,-1.08026 2.4567,-1.0759 z m -116.4228,1.37562 c 1.1017,-0.0738 1.9659,0.47755 3.6365,1.58388 2.0296,1.34414 4.0941,1.82388 8.9791,2.08619 6.0222,0.32308 4.2566,0.34337 5.4846,-1.44849 0.9832,-1.43574 1.2874,-1.57843 1.3078,-0.59635 0.022,1.76784 4.0386,4.86029 4.8162,2.37969 0.5795,-1.84795 1.646,-1.67275 1.9989,-0.51107 0.5805,1.91207 2.7462,0.76428 3.0586,-0.15089 0.7808,-2.28282 1.4208,0.32263 0.7686,2.87525 -1.9812,7.75452 -5.4276,13.24462 -9.9533,15.85847 -2.3016,1.32908 -2.3075,1.37202 -2.3075,1.37202 -1.5023,-2.43893 -4.3981,-1.20906 -3.665,1.15755 0,0 -5.5163,1.18491 -11.3858,0.47387 -5.5893,-0.67709 -13.0307,-3.01532 -16.5587,-9.79887 -1.3866,-2.66628 -2.2569,-4.30474 -1.325,-5.56712 0.9589,-1.29892 0.345,-1.90214 2.014,-0.78341 1.8606,1.24704 3.7129,-0.25162 3.4153,-2.66133 -0.5078,-4.10494 0.8236,-2.0719 4.6487,-4.10311 2.6249,-1.3938 3.9648,-2.09251 5.067,-2.16628 z m 133.2818,1.15859 c 0.7628,0.086 1.7317,1.46087 3.2678,4.58163 5.7645,11.70911 2.7234,24.59474 -6.9715,29.54083 -3.9529,2.0165 -4.1187,1.90974 -2.1029,-1.35236 0.9636,-1.55901 2.4773,-5.08175 3.3637,-7.82796 1.229,-3.8063 2.0984,-5.22978 3.6568,-5.9893 1.339,-0.6527 2.0436,-1.60454 2.0436,-2.76055 0,-2.13019 -2.5236,-5.51717 -4.6022,-6.17689 -0.8289,-0.2631 -1.5075,-1.0999 -1.5075,-1.8588 0,-0.75898 -0.4996,-2.79776 -1.111,-4.53046 -1.1007,-3.1197 -1.0936,-3.15071 0.7014,-3.15071 0.9969,0 2.323,-0.19582 2.9464,-0.43514 0.1016,-0.039 0.2064,-0.0526 0.3154,-0.0403 z m -27.4082,0.47543 c 0.9054,0 1.638,0.0863 1.638,0.19119 -0.01,0.10501 -0.5202,1.8779 -1.1456,3.93983 -0.6255,2.06179 -1.1375,4.72508 -1.1375,5.91849 0,1.9762 -0.2548,2.18085 -2.8633,2.29184 -2.7387,0.1169 -2.5694,0.80664 -0.2495,1.0971 1.1978,0.14994 2.3932,0.19016 2.3932,0.19016 0.034,0.46071 0.089,2.03017 0.3286,4.55321 0.2664,2.8108 0.6622,6.05541 0.88,7.21043 0.3847,2.04009 0.296,2.10013 -3.048,2.10013 -2.9835,0 -3.4798,-0.22956 -3.7103,-1.71826 -0.1463,-0.94488 0.08,-2.31267 0.5027,-3.03909 0.5609,-0.96318 0.4115,-1.92529 -0.5508,-3.5543 -2.0786,-3.51909 -1.6942,-5.8342 1.3541,-8.1592 3.1795,-2.42519 3.325,-3.52406 0.7363,-5.56037 l -1.9365,-1.52342 2.5813,-1.96887 c 1.4198,-1.08292 3.3219,-1.96887 4.2273,-1.96887 z m 18.8121,0.38653 c 1.2703,-0.006 1.5984,0.49485 2.276,2.1699 0.5355,1.32411 1.198,3.35272 1.4716,4.50773 0.4199,1.7702 0.2524,2.10013 -1.0676,2.10013 -0.861,0 -1.7637,0.51567 -2.0056,1.14567 -0.2434,0.63469 -1.3774,1.14515 -2.5429,1.14515 -2.0322,0 -2.1217,-0.17246 -2.6225,-5.06016 -0.2744,-2.78291 -0.4175,-5.15234 -0.2961,-5.26582 0.1222,-0.11321 1.5423,-0.37973 3.1557,-0.59274 0.6805,-0.0898 1.2081,-0.14793 1.6314,-0.14986 z m -14.9008,0.51779 h 5e-4 c 0.2839,-0.0204 0.5948,0.11887 0.9478,0.3974 0.5429,0.42839 1.9325,1.00465 3.0877,1.28053 2.5958,0.62032 2.6344,1.52514 0.1902,4.43024 -1.0504,1.24798 -1.9095,2.93005 -1.9095,3.73774 0,1.16951 -0.5445,1.46865 -2.6728,1.46865 -3.0276,0 -3.0906,-0.21566 -1.8278,-6.26266 0.7298,-3.49073 1.3327,-4.99039 2.1839,-5.0519 z m 9.19,5.70251 v 2.80601 c 0,2.48401 -0.2193,2.80604 -1.9092,2.80604 -1.0766,0 -1.909,-0.44154 -1.909,-1.01235 0,-0.55679 0.8586,-1.81951 1.909,-2.80601 z m -19.8106,1.02992 c 0.4455,0 0.5966,0.34387 0.337,0.76377 -0.2595,0.42 -0.6225,0.76377 -0.8088,0.76377 -0.1852,0 -0.3368,-0.34377 -0.3368,-0.76377 0,-0.4199 0.3641,-0.76377 0.8086,-0.76377 z m 32.3122,4.08707 c 0.2135,-0.0469 0.5879,0.28265 1.2446,0.87696 1.8375,1.66291 1.9608,3.10671 0.3194,3.73671 -1.823,0.6995 -1.8471,0.66918 -1.8471,-2.32802 0,-1.54283 0.01,-2.22533 0.2831,-2.28565 z m -122.147,0.31885 c -0.053,-0.002 -0.1061,2e-5 -0.1601,0.004 v -5e-4 c -1.5142,0.11682 -3.4171,2.45018 -2.9075,3.94137 v -0.003 c 0.5488,1.60727 2.1797,1.61142 3.6042,0.0124 1.4438,-1.62229 1.4107,-3.21304 -0.081,-3.85558 -0.1439,-0.062 -0.2968,-0.0942 -0.4553,-0.0992 z m 11.7295,0.44132 c -1.6872,0 -3.0152,1.49093 -3.0152,3.38479 0,1.14655 0.4374,1.42436 1.9434,1.22992 1.5266,-0.1972 1.9907,-0.71941 2.1669,-2.43293 0.1733,-1.69037 -0.074,-2.18178 -1.0951,-2.18178 z m 107.8013,0.11679 0.021,3.2458 c 0.019,3.10999 -0.077,3.24527 -2.2977,3.24527 -1.2747,0 -3.1646,0.55521 -4.2002,1.23352 -1.7952,1.17679 -1.882,1.1593 -1.882,-0.3819 0,-0.90329 0.4889,-1.61539 1.1094,-1.61539 2.0606,0 4.709,-1.63115 5.9833,-3.68506 z m -11.076,0.38187 c 0.6551,0 1.1906,0.3438 1.1906,0.7638 0,0.42008 -0.3233,0.76324 -0.7186,0.76324 -0.3953,0 -0.9313,-0.34316 -1.1906,-0.76324 -0.2598,-0.42 0.064,-0.7638 0.7186,-0.7638 z m 4.2902,0 c 0.865,0 1.3605,0.3438 1.1007,0.7638 -0.2593,0.42008 -0.967,0.76324 -1.5724,0.76324 -0.6054,0 -1.1007,-0.34316 -1.1007,-0.76324 0,-0.42 0.7075,-0.7638 1.5724,-0.7638 z m -15.5339,0.7638 h 3.0811 c 2.0735,0 3.2281,0.38547 3.5329,1.17975 0.2493,0.64902 1.6603,1.68437 3.1364,2.30116 3.075,1.28479 3.4356,3.02885 1.3544,6.55206 -1.0901,1.84529 -1.144,2.36464 -0.3003,2.88613 0.7094,0.43839 0.7694,0.7965 0.1929,1.1529 -1.2012,0.74239 -9.2451,0.30654 -9.7618,-0.52917 -0.2387,-0.38629 -0.6141,-3.59145 -0.8345,-7.12256 z m 21.6061,7.82587 h 3e-4 c 0.8959,-0.0843 0.8287,0.39865 0.4646,2.21898 -0.2736,1.36909 -1.057,3.70682 -1.8214,5.15369 l -1.6015,3.03083 c -0.4302,0.81444 -1.0176,0.61299 -2.422,-1.07953 -0.8554,-1.0301 -1.1412,-1.16477 -1.1412,-1.16477 2.2503,-0.253 3.8788,-0.12788 3.8386,-0.82476 -0.021,-0.37936 -1.6748,-0.40865 -3.8994,-0.73173 0,0 -0.2884,-0.29911 0.1108,-1.63711 0.712,-2.38303 2.6274,-4.11237 5.2298,-4.72065 0.5371,-0.12559 0.943,-0.21687 1.2414,-0.24495 z m -15.3889,0.69194 c -0.3731,-0.005 -0.6562,0.41527 -0.6562,1.02785 0,0.69999 0.3696,1.14991 0.821,0.99942 0.4516,-0.1505 0.8213,-0.60042 0.8213,-0.99942 0,-0.39909 -0.3697,-0.84859 -0.8213,-0.9989 -0.056,-0.0188 -0.1114,-0.0282 -0.1648,-0.029 z m -19.6199,0.79116 c 0.3693,-0.009 0.9286,0.0913 1.6769,0.27905 1.4533,0.36481 2.1881,1.23251 2.7424,3.23962 0.4162,1.50788 0.6435,2.85607 0.503,2.99566 -0.1397,0.13981 -1.532,-1.1602 -3.0935,-2.88869 -2.3361,-2.58609 -2.9372,-3.59815 -1.8288,-3.62564 z m -100.9981,4.73564 c -5.4234,-0.11731 -10.8974,0.78605 -15.2874,3.32124 -9.9748,5.76051 -16.8357,16.87041 -19.7956,32.02749 -0.9199,4.71012 -0.7167,19.35509 0.3003,21.65141 0.4025,0.90919 -1.0538,1.82629 -6.564,4.13309 -10.0058,4.18869 -18.9183,8.71087 -18.9183,9.59889 0,1.62521 3.8013,0.51462 19.3535,-5.6529 22.0872,-8.76279 25.5574,-9.70896 25.5574,-9.70896 0.7078,0.41799 3.3497,2.64117 3.3497,2.64117 -0.8213,0.6944 -3.6198,1.51773 -7.0827,3.42099 -4.1669,2.29015 -7.5763,4.5997 -7.5763,5.13199 0,0.53231 2.3921,2.44371 5.316,4.2478 2.9237,1.80401 5.1977,3.39768 5.0549,3.54087 -0.1434,0.1433 -2.535,-0.99031 -5.3152,-2.5187 -2.7806,-1.52821 -5.0557,-2.39909 -5.0557,-1.9353 0,1.00441 5.1107,4.30668 16.0372,10.36267 4.4103,2.44441 9.6507,5.45785 11.6459,6.69677 1.9949,1.2387 6.2897,3.41817 9.5462,4.83639 2.2108,0.96277 6.1219,3.14511 10.2531,1.76681 0.9239,-0.30824 3.9791,-1.50569 6.9334,-2.32439 2.9543,-0.8187 10.7349,-3.51433 17.2895,-5.98982 6.5542,-2.4755 15.1817,-5.68121 19.1719,-7.12412 12.8085,-4.63219 30.8512,-11.92961 33.4971,-13.54801 4.4828,-2.7422 1.9489,-2.52548 -4.9083,0.41962 -3.642,1.56441 -11.9941,4.65942 -18.56,6.87814 -6.5659,2.21869 -13.2638,4.60581 -14.8844,5.30508 -1.6206,0.69921 -3.0954,1.12252 -3.2774,0.94051 -0.4045,-0.4046 2.1362,-1.43248 21.1156,-8.54106 20.7978,-7.7896 21.3312,-8.02243 22.2298,-9.70122 1.0043,-1.87671 -0.5324,-3.73903 -5.4282,-6.57894 -1.8907,-1.0967 -6.889,-3.73724 -6.889,-3.73724 -2.3495,-5.98027 -10.228,-10.58413 -14.6579,-11.69953 -2.4101,-0.6069 -4.4741,-1.89722 -6.7604,-4.22661 -1.8102,-1.84441 -4.1058,-3.23152 -3.9216,-3.37603 0.1836,-0.14441 6.2825,-1.96557 12.3727,-3.75378 12.4402,-3.65239 17.5644,-5.81046 17.5644,-7.39696 0,-1.73939 -2.5673,-1.30733 -18.5788,3.12796 -8.3281,2.30722 -15.448,4.1951 -15.8218,4.1951 -0.3736,0 -5.0724,-2.87237 -10.4413,-6.38307 -5.3684,-3.5106 -12.6817,-7.83622 -16.252,-9.61181 -3.5703,-1.7758 -9.1244,-4.58578 -12.3545,-6.22133 -4.395,-2.22544 -11.2845,-4.06339 -18.2578,-4.21421 z m 109.1284,0.9865 v 5.3e-4 c 0.408,0.003 0.9359,0.041 1.6116,0.10541 2.0193,0.19249 3.1774,0.7194 3.4071,1.5503 0.1912,0.69228 0.5707,2.03208 0.8419,2.97707 0.6159,2.1414 0.031,2.13672 -3.809,-0.0336 -1.7047,-0.96329 -3.1536,-2.40244 -3.2769,-3.25615 -0.1471,-1.0137 0,-1.34842 1.2253,-1.34358 z m 8.5466,0.54674 c 0.6855,-0.0257 1.6253,0.0537 2.8599,0.18396 2.4151,0.2549 4.4728,0.53195 4.5728,0.61495 0.1,0.0833 -0.2511,1.64713 -0.7803,3.47525 -0.5291,1.82811 -1.2988,3.38735 -1.7094,3.46334 -2.3583,0.44021 -4.2995,-0.73216 -5.3415,-3.22615 -1.4266,-3.4146 -1.6581,-4.43468 0.3985,-4.51135 z m 9.7115,1.65055 c 0.2363,0.066 0.567,0.34819 1.0761,0.80872 1.8447,1.6687 2.0032,4.30636 -0.05,4.84622 l -0.9554,0.25117 c -2.4556,0.64555 -2.3865,0.72771 -1.7962,-0.79738 0.2844,-0.73501 0.7104,-2.29346 0.9461,-3.46337 0.2553,-1.26492 0.3863,-1.75546 0.7797,-1.64536 z m -127.0354,0.22272 c 1.6216,-0.0284 3.5806,0.0905 5.2506,0.36793 4.058,0.67421 4.5136,1.70117 1.8601,4.19407 -1.6659,1.5126 -3.573,1.69918 -6.4482,0.64852 -1.7164,-0.95297 -4.4029,-4.19507 -3.8904,-4.69426 0.3209,-0.31226 1.606,-0.48784 3.2279,-0.51626 z m -6.3807,1.01905 c 0.089,-0.009 0.1791,-0.007 0.2688,0.01 0.7184,0.13256 1.4198,1.18118 1.8905,2.48303 2.9056,8.03648 13.2548,8.72906 16.4618,1.10176 0.6715,-1.5969 1.1679,-1.94562 2.0103,-1.41232 1.8579,1.1761 -1.3975,6.14349 -5.4157,8.17623 -6.2212,3.1473 -14.4574,-0.9901 -16.4,-9.69759 0,0 0.5628,-0.59981 1.1843,-0.66095 z m -3.5817,1.46193 c 0.3723,0.0103 0.5128,0.2985 0.5128,0.83407 0.8826,8.94852 11.0506,15.41462 19.3326,11.97858 2.6236,-1.08844 5.9404,-4.66013 6.69,-6.58873 0.9419,-2.423 1.743,-2.14725 3.3311,1.14567 1.4287,2.96289 2.5921,17.21999 1.6795,19.59827 0,0 -0.8929,-1.30296 -3.3316,-3.31298 -5.9087,-4.8705 -8.3831,-1.98178 -3.7976,4.43333 1.3867,1.9403 3.1655,4.43807 3.4618,4.92787 0,0 -1.5803,0.94538 -5.0231,2.07687 -2.8382,0.93261 -20.3422,7.30695 -24.6486,8.5974 -3.0421,-3.3846 -4.4338,-13.22575 -2.6035,-22.39706 1.3468,-11.29162 1.0925,-12.96924 -1.9642,-12.96924 -2.3921,0 -3.2144,2.12757 -4.3559,11.25977 -0.9628,7.99822 -2.0563,20.20366 2.616,26.55858 -4.9702,1.96318 -8.6937,2.98789 -13.343,4.76975 -0.5246,0.1877 -0.9577,0.0467 -0.9358,-0.31316 0.1736,-6.2784 1.6791,-19.42121 2.6593,-23.2115 2.8168,-10.89141 8.4297,-19.94053 15.4954,-24.98143 2.3389,-1.6687 3.6044,-2.42337 4.2248,-2.40606 z m 36.2252,9.08729 c 0.8787,0 21.609,13.20187 21.7715,13.89788 -3.3928,1.95011 -16.0388,5.38099 -19.8258,7.05951 -1.6417,0.48971 -1.6692,0.37274 -1.5327,-6.60165 0.076,-3.90541 -0.1384,-8.73294 -0.476,-10.72803 -0.3495,-2.06272 -0.3222,-3.62771 0.063,-3.62771 z m 85.6197,7.02853 c 0.8803,0.0748 1.1594,0.54568 1.5936,1.68775 0.9205,2.42099 3.2485,2.59072 4.7392,0.3457 l 1.0816,-1.62935 4.5482,2.20247 c 3.3049,1.60009 4.5479,2.61906 4.5479,3.72896 0,1.38951 -0.5511,1.53955 -6.1092,1.65417 -5.8092,0.12039 -16.8934,-1.29498 -18.6521,-2.38178 -2.5932,-1.60279 0.5927,-4.52765 5.8545,-5.37435 1.1239,-0.18081 1.8682,-0.27844 2.3963,-0.23357 z m -58.8291,10.78227 c 0,0 4.8811,3.79876 7.5639,6.16916 -1.2316,-0.36526 -2.1547,-1.21513 -4.0849,-2.16268 -1.5409,-0.75642 -2.7643,-0.68461 -13.7247,3.03289 -6.6905,2.2692 -11.7808,3.91234 -11.7808,3.92536 -1.2018,-1.35877 -1.8929,-2.02033 -2.8551,-2.86599 0.3852,-0.32081 21.7656,-7.22797 24.8816,-8.09874 z m 52.0962,5.95778 c -1.6613,0.0909 -3.343,1.18108 -4.056,3.08407 -0.2614,0.69828 -0.1964,4.99356 0.145,9.54566 0.5479,7.31089 0.9207,8.83192 3.1959,13.03692 4.2404,7.83751 6.7979,5.94498 6.7519,-5.00073 -0.032,-8.08138 -1.261,-16.83954 -2.6617,-18.97764 -0.8028,-1.22512 -2.0831,-1.75897 -3.3751,-1.68828 z m -49.3056,0.24495 5.856,3.07632 c 5.8386,3.06707 5.8844,3.63077 5.8844,3.63077 -0.2667,3.89469 0.7286,6.77092 0.9107,7.32462 0.2148,0.65209 -1.3116,1.63425 -4.3326,2.78794 -6.9379,2.6493 -9.7483,4.24468 -8.9262,5.06687 1.0178,1.0178 13.2916,-4.78253 15.1743,-7.17629 1.0052,-0.0478 1.5248,-1.68833 1.9916,-2.38797 l 1.506,3.04115 c 0.7831,1.58181 1.3197,2.93137 1.2157,2.98637 -0.1032,0.055 -3.7147,1.58253 -8.0253,3.39464 -7.9023,3.32171 -9.3004,4.25614 -8.0949,5.40795 0.727,0.69479 19.3127,-7.88377 20.3123,-9.37567 0.3434,-0.5134 0.4429,-1.964 0.2201,-3.22408 l -0.4056,-2.29135 1.9672,2.48203 c 2.1725,2.74029 4.4204,3.19916 5.6102,1.14565 0.7205,-1.24439 1.0232,-1.201 4.3852,0.63201 1.9862,1.08291 3.7277,2.31664 3.8685,2.74143 0.3514,1.05441 -35.2057,14.34592 -36.771,13.74542 -0.8925,-0.3428 -2.2122,-1.20923 -2.2122,-1.20923 2.5649,-1.41573 0.3659,-3.2499 -2.2955,-1.78956 0,0 -2.2781,-0.95393 -3.2028,-2.21639 2.6763,-1.11829 0.7855,-2.72772 -1.8097,-1.5322 -0.8994,-1.2424 -1.6389,-1.33289 -2.6004,-2.37609 2.0746,-1.06958 -1.3081,-2.45528 -2.863,-1.1648 -0.6194,0.51371 -1.905,1.38319 -2.4355,1.17977 -0.5969,-0.22899 -1.0073,0.32994 -1.0763,1.46815 -0.087,1.42849 2.2778,0.55383 3.3192,0.22323 l 2.4849,2.22933 c -2.2016,1.05785 -1.5991,2.61921 1.724,1.74458 0,0 0.8496,0.43635 1.6704,1.04595 1.2596,0.93559 1.4427,1.2025 1.4427,1.2025 -2.549,1.72101 -0.6281,2.50717 2.3265,1.49707 0,0 3.0657,1.87814 0.4003,2.92642 -0.9903,0.3896 -5.0599,1.97761 -9.0432,3.52899 -3.9833,1.55141 -17.6715,6.16172 -22.6689,8.08839 -2.7382,1.05572 -2.7075,1.46849 -5.4306,0.16849 -4.1042,-1.62139 -32.5083,-16.12741 -37.3814,-19.09961 -3.2578,-1.98726 -3.0726,-1.14708 0.3821,-2.88303 1.5658,-0.75872 9.3596,-4.38592 12.5748,-5.3666 0,0 0.3299,-0.0786 2.8726,1.04127 3.8843,1.7109 17.7017,1.63367 21.6598,-0.12092 2.5951,-1.1503 3.8137,-1.20586 10.1259,-0.46148 6.073,0.7163 8.8495,-1.2917 11.9502,-2.30579 0,0 2.44,1.44539 4.2278,1.19372 2.8199,-0.39696 2.0867,-0.96777 -0.8848,-3.82508 -0.4863,-1.90686 -1.469,-5.56364 -2.068,-6.43528 -0.7443,-1.08236 -2.6966,-1.33562 -4.9435,-1.96731 l 5.1041,-1.87843 c 3.5071,-1.33342 8.6098,-3.20916 11.3398,-4.16875 z m 83.6451,1.43352 c -2.4077,0.13486 -12.3293,4.99626 -18.351,9.07645 -4.528,3.06848 -4.9855,3.62535 -5.2104,6.34534 -0.1749,2.11511 0.1244,3.25279 1.0295,3.91449 1.3872,1.01459 1.8923,0.87204 7.6848,-2.16887 10.8932,-5.719 19.5578,-15.46752 15.2252,-17.13021 -0.09,-0.0347 -0.2178,-0.0462 -0.3781,-0.0372 z m -35.3494,0.894 c 0.3069,0.023 0.6993,0.21698 1.1793,0.57568 1.1554,0.8632 2.7752,8.43182 2.821,13.17593 0.01,1.0949 -0.5255,1.55863 -1.8939,1.63761 -1.7725,0.10221 -1.9135,-0.14446 -1.9545,-3.43646 -0.024,-1.95072 -0.335,-5.26473 -0.6893,-7.36494 -0.5373,-3.18495 -0.3833,-4.65648 0.5374,-4.58782 z m -82.8807,1.73736 c 0,0 0.9726,0.98912 1.1565,1.5141 0.2135,0.60682 -0.3958,0.95449 -1.6732,0.95449 -1.1385,0 -2.7379,1.51389 -3.6973,2.54918 0,0 -4.3757,1.30908 -10.7606,3.69435 -4.7321,1.76771 -6.7972,2.44361 -8.4656,2.74711 -1.5211,0.23162 -5.3179,-1.40102 -6.0246,-1.7854 0,0 26.2141,-9.52963 29.4648,-9.67383 z m 115.2184,0.54829 c 0.4093,-0.0512 0.6982,0.0854 0.6982,0.37206 0,1.03521 -1.3573,1.67775 -1.8521,0.87696 -0.2365,-0.3828 0.083,-0.8931 0.7109,-1.13379 0.1569,-0.0602 0.3064,-0.0982 0.443,-0.11523 z m -2.7321,2.27891 c 0.7535,-0.0351 1.1387,0.32787 1.1387,1.09453 0,0.4055 -2.7762,2.64999 -6.17,4.98779 -3.3936,2.3377 -6.2744,4.2504 -6.4022,4.2504 -0.1275,0 -0.4035,-0.65299 -0.6114,-1.45108 -0.2934,-1.1222 0.9062,-2.34839 5.2948,-5.41258 3.2166,-2.24581 5.4941,-3.4105 6.7501,-3.46906 z m -72.5022,4.47106 c -1.4886,-0.1243 -15.7787,7.42194 -15.3271,8.15248 0.5136,0.83129 5.9217,-1.18163 11.2573,-4.18994 3.6308,-2.0473 4.8786,-3.22064 4.1732,-3.92586 -0.021,-0.0204 -0.055,-0.0327 -0.1034,-0.0367 z m -45.0882,1.67897 c -0.7286,0.74065 -0.041,2.55088 -1.5047,2.53474 -0.349,-0.004 -1.8359,0.67873 -4.4979,0.75136 l -5.4298,0.1483 z m 102.7314,3.55791 c 0.4122,-0.0241 0.7244,0.36123 0.7244,0.9431 0,0.66501 -0.5437,1.20923 -1.2086,1.20923 -1.3489,0 -1.1139,-1.64425 0.3021,-2.11614 0.062,-0.0209 0.1231,-0.0327 0.1821,-0.0362 z m -10.8792,3.76102 c 0.7332,-0.0564 0.9525,0.29387 0.7821,1.17668 -0.1479,0.76835 -0.898,1.51824 -1.666,1.66603 -1.0086,0.19431 -1.323,-0.11877 -1.1282,-1.12757 0.1481,-0.76841 0.898,-1.51826 1.6666,-1.66606 0.1259,-0.0243 0.241,-0.041 0.3455,-0.0491 z m -116.6272,19.20915 c 0.03,-0.0461 0.445,0.1501 1.27,0.54986 0.9451,0.45809 1.7187,0.99274 1.7187,1.18803 0,0.5842 -0.3961,0.41529 -1.9542,-0.83302 -0.7117,-0.57025 -1.0652,-0.85873 -1.0345,-0.90487 z m -29.0677,0.75501 c -2.1627,0.004 -2.0854,1.06993 -6.5349,5.60327 -13.1575,14.35304 -12.8101,13.3124 -13.0911,19.44171 -0.2352,5.12475 -1.6925,4.81926 3.0028,6.38824 1.7825,0.65929 11.6602,3.7557 21.9506,6.88072 10.2904,3.12518 19.9131,6.21216 21.3831,6.86054 1.4703,0.6486 3.1885,1.10274 3.8185,1.00873 0.6299,-0.0937 2.6921,-3.12103 4.582,-6.72722 3.5621,-6.79579 8.0351,-14.08242 9.7211,-15.8352 0.5336,-0.55502 0.9705,-2.66338 0.9705,-4.68448 0,-3.30951 0.9062,-4.19849 -1.8058,-6.64869 -1.6563,-1.4964 -5.5256,-2.82202 -7.1245,-3.25511 -1.5988,-0.43299 -8.5775,-2.35011 -15.5077,-4.26019 -6.9305,-1.91011 -15.5866,-4.25175 -18.2044,-4.51136 -1.4695,-0.14573 -2.4392,-0.26228 -3.1602,-0.26096 z m 0.9427,3.70055 c 2.1947,0.0316 6.0595,1.01213 13.5562,3.28919 6.0865,1.8487 19.0799,5.61565 23.1749,6.76444 2.1336,0.60386 3.5885,0.20828 1.6039,3.47938 -1.1573,1.90876 -7.8717,13.16104 -9.7626,15.80163 -2.1175,2.95682 -1.169,2.94576 -4.5109,1.23661 -3.3277,-1.63703 -21.317,-6.91015 -39.3634,-11.54864 -2.1249,-0.54615 -3.2724,-0.87336 -1.4843,-2.89338 4.2241,-4.77165 14.2036,-15.30792 14.6436,-15.6166 0.4921,-0.34523 1.1449,-0.527 2.1426,-0.51263 z m 92.6346,4.3806 c -0.8252,-0.003 -1.6121,0.10943 -2.3363,0.34157 -3.243,1.03981 -8.7823,6.56984 -8.7823,8.76745 0,4.20989 3.7902,8.29863 9.7041,10.46911 5.0922,1.86891 7.2864,1.48648 11.1895,-1.94924 3.1652,-2.78609 3.5441,-3.46448 3.5441,-6.34688 0,-3.43532 -0.9898,-4.93405 -5.5144,-8.34884 -2.5072,-1.89196 -5.3287,-2.92611 -7.8047,-2.93317 z m -27.278,0.30231 c 0.1167,-0.0122 0.1976,-0.0117 0.2384,0.003 0.3244,0.11351 -2.1217,1.26307 -5.4353,2.55437 -5.3986,2.10349 -6.2093,2.23652 -7.7986,1.28312 -1.0033,-0.6015 -1.183,-0.88162 -0.4144,-0.64442 0.7477,0.23072 3.9915,-0.43963 7.2089,-1.48981 2.8146,-0.91885 5.385,-1.62076 6.201,-1.70585 z m 27.6905,2.11823 c 2.731,0 9.031,3.81262 9.0638,5.48441 0.013,0.70639 -0.9736,1.9952 -2.1936,2.8639 -1.2198,0.86871 -2.6805,1.542 -3.2457,1.49501 -1.7939,-0.14711 -10.85,-4.17709 -11.068,-4.92528 -0.3596,-1.23362 5.2165,-4.91804 7.4435,-4.91804 z m -7.9375,8.03568 v 0 c 0.5403,-0.004 1.6288,0.41924 3.338,1.24643 5.1186,2.47761 9.2578,2.71267 12.1031,0.68678 3.2456,-2.31209 3.1279,-0.33409 -0.1717,2.8639 -1.3854,1.34242 -3.1896,2.4229 -4.0095,2.40088 -2.9226,-0.0779 -9.5755,-3.16963 -10.7813,-5.01002 -0.9633,-1.47015 -1.1744,-2.18254 -0.4799,-2.18797 z m -44.6072,0.96737 c 0.2223,-0.0476 0.3329,0.26292 0.416,0.85008 0.1698,1.20039 -0.7874,3.31912 -2.7684,6.12831 -1.6655,2.3614 -4.4492,7.12017 -6.1862,10.57508 -1.737,3.45479 -3.4123,6.24668 -3.7227,6.20167 -1.8026,-0.2558 -20.2194,-6.68372 -19.2744,-6.72671 0.6305,-0.029 4.5493,0.81409 8.7091,1.87378 4.16,1.05971 7.9404,1.78273 8.4005,1.60663 1.4504,-0.5551 -6.281,-3.6154 -13.1675,-5.21208 -12.3278,-2.85822 -29.9067,-7.80598 -29.9067,-8.41759 0,-0.927 0.7128,-0.79238 9.2557,1.75183 4.3598,1.29831 11.3633,3.2031 15.5633,4.2323 9.3213,2.28391 18.0401,4.89702 19.159,5.74281 1.3687,1.0342 4.1804,-2.77069 11.0908,-15.00838 1.3803,-2.44446 2.0611,-3.51838 2.4315,-3.59773 z m 18.6794,5.22449 c -2.8536,-0.0212 -3.3653,0.28946 -4.0974,1.72911 -1.6827,3.3097 -0.3098,4.83864 6.7257,7.48945 3.5695,1.34469 9.0334,3.13431 12.1431,3.97703 4.224,1.1448 7.9131,1.51966 14.5896,1.48466 10.1756,-0.0542 12.368,-0.80314 10.0243,-3.42564 -3.6393,-4.0726 -26.8049,-10.91523 -38.0111,-11.22773 -0.5109,-0.0143 -0.9665,-0.0238 -1.3742,-0.0269 z m -1.6344,1.99419 c 0.212,-0.003 0.5001,0.0629 0.8676,0.2186 2.0349,0.86249 15.2392,4.08041 20.619,5.02502 2.6249,0.46098 4.7614,1.06042 4.7614,1.3322 -0.049,2.06161 -1.738,1.99896 -12.2071,-0.45164 -6.0902,-1.42571 -11.8464,-3.09237 -12.7915,-3.70417 -1.6613,-1.0755 -2.1685,-2.40469 -1.2494,-2.42001 z m -74.1635,2.24483 c 0.8398,-0.0122 2.7303,0.44117 4.2003,1.00717 3.4404,1.3254 1.3335,1.34202 -2.6728,0.0217 -1.6809,-0.5538 -2.3678,-1.01539 -1.5275,-1.02838 z m 106.3228,5.36607 c 0.4006,-0.007 1.0041,0.3088 1.5367,0.8413 1.3804,1.3803 0.5543,1.73278 -1.3046,0.55708 -0.6178,-0.39079 -0.8673,-0.96621 -0.5546,-1.279 0.078,-0.0782 0.1889,-0.11692 0.3225,-0.11938 z" fill="#00B894" transform="translate(148.55101,11.826822) translate(-1810.1916,371.9957)"/>
</svg>