<?xml version="1.0" ?><svg height="199.1076mm" viewBox="0 0 234.32014 199.1076" width="234.32014mm" xmlns="http://www.w3.org/2000/svg">
    <path d="m 1984.294,-364.90729 c -0.082,22.66392 24.0366,24.34103 26.0636,24.54371 24.1594,0.66336 25.8789,-16.69431 27.6603,-29.48192 -1.7879,-14.70801 -7.7086,-27.94085 -23.669,-26.88781 -30.671,0.90147 -29.7417,16.99493 -30.0549,31.82602 z m 135.9802,-15.2585 -4.3257,0.30594 c 0,0 -24.3345,2.90936 -24.2737,23.12726 0.062,20.21789 16.3161,27.71187 21.6525,29.9062 9.6916,1.36628 22.5266,-2.85687 28.6758,-11.41328 6.1491,-8.55628 2.9596,-21.25276 -1.9627,-29.82299 -4.9226,-8.5702 -19.7662,-12.10313 -19.7662,-12.10313 z m -151.6992,60.51259 c -4.8842,9.3893 -6.6185,24.83853 -5.8959,38.41523 h -3e-4 c 0,0 -8.092,5.5143 -13.0918,7.8031 -4.9996,2.2888 -25.7789,10.2732 -29.6514,14.3826 -3.8727,4.1094 -1.0694,23.2783 4.7977,29.0003 5.8664,5.7219 30.0847,30.9506 78.9258,29.6762 48.8412,-1.2745 73.8393,-19.0905 83.5501,-35.7363 9.7105,-16.6457 31.5875,-24.9948 54.4187,-41.5106 22.8309,-16.51572 -3.1213,-38.62343 -18.2938,-43.04494 -15.1726,-4.42161 -30.6631,-0.72834 -36.5877,1.04024 -5.924,1.7686 -67.0769,19.22105 -67.0769,19.22105 0,0 3.2123,-17.16606 0.068,-23.64507 -3.1438,-6.47888 -5.4515,-9.4537 -17.5236,-12.38631 -13.5508,-3.29181 -28.4252,7.49751 -33.6389,16.7845 z" fill="#FFFFFF" paint-order="markers stroke fill" transform="translate(73.307712,2.2813195) translate(-1991.4579,397.15543)"/>
    <path d="m 2016.3901,-399.43661 c -3.6938,0.01 -7.5046,0.54192 -10.9077,1.61592 -9.4581,2.98492 -16.5825,8.52858 -23.3923,18.20148 -0.1286,0.1824 -2.2035,0.72371 -4.6112,1.2025 -3.6198,0.71991 -4.4214,1.16541 -4.627,2.57403 -0.1373,0.93689 0.1262,2.1562 0.586,2.70989 0.6366,0.76732 0.3784,1.30664 -1.0869,2.26653 -2.3442,1.53611 -2.5397,4.52456 -0.3937,6.02755 1.3182,0.92329 1.4161,1.39332 0.711,3.41582 -1.1468,3.2902 0.6678,6.6361 4.2386,7.8145 1.9314,0.63751 2.8223,1.45976 3.1702,2.92695 0.7697,3.24411 2.5125,4.71392 5.5904,4.71392 1.5311,0 3.1419,-0.35853 3.5801,-0.79684 0.5532,-0.55301 3.8042,0.85537 7.4758,3.38936 7.3221,5.05317 13.8583,5.22378 19.499,4.55017 3.9584,-0.47267 4.5336,-0.52877 4.5336,-0.52877 1.3512,2.01256 4.6818,1.80015 4.2159,-1.52466 l 4.9927,-2.43583 c 0.8747,1.41541 4.5426,2.68102 6.4801,1.94424 1.238,-0.47062 2.1643,-1.69757 2.7451,-3.63596 0.5633,-1.8796 1.67,-3.38085 3.0959,-4.19923 1.8563,-1.0654 2.219,-1.76324 2.219,-4.27003 0,-1.73209 0.4832,-3.39807 1.1452,-3.94756 1.7912,-1.48661 1.3522,-5.26563 -1.0573,-9.09711 -1.6539,-2.63012 -2.295,-4.74131 -2.5715,-8.4677 -0.7615,-10.26372 -5.3531,-17.96608 -13.0776,-21.94028 -3.2483,-1.671 -7.8038,-2.52156 -12.5534,-2.50889 z m 103.5746,12.76874 c -2.2651,0.0217 -2.8832,0.84617 -1.4499,2.42983 1.7695,1.95519 0.822,2.54026 -5.8246,3.59616 -7.1995,1.14382 -11.8911,4.06866 -15.5524,7.72975 -7.7113,7.71131 -10.1423,20.80189 -4.2257,32.82746 2.3297,4.73478 7.8801,9.51297 13.3305,12.01476 4.141,1.90082 5.7124,2.26224 5.2732,4.00751 -0.2649,1.05402 -0.6715,2.86128 -0.9039,4.0163 -0.3841,1.91108 -0.7265,2.10066 -3.8028,2.10066 -1.8844,0 -4.7181,0.68233 -6.4042,1.54252 -2.602,1.32749 -3.0237,1.89505 -3.0237,4.06693 0,4.48699 2.9691,6.01975 14.8905,7.68326 1.2602,0.17561 4.8437,0.19984 7.9629,0.0532 8.3801,-0.3936 11.9377,-3.75957 8.8897,-8.41087 -1.6211,-2.47419 -4.7122,-3.97785 -9.4779,-4.61004 -5.2403,-0.69512 -5.4467,-2.53704 -0.2283,-2.03555 8.0626,0.7747 18.565,-2.95608 24.643,-8.75347 3.7441,-3.57151 4.5728,-4.91718 6.3865,-10.37508 4.2741,-12.85878 1.6439,-27.15004 -6.6527,-36.15076 -4.9413,-5.36081 -10.1721,-8.78489 -15.7453,-10.30738 -3.5645,-0.97361 -6.323,-1.44219 -8.0849,-1.42523 z m 3.1814,3.81011 c 4.8159,0 15.5064,6.66191 19.8307,12.35842 6.9065,9.09788 7.7711,23.73246 2.0252,34.28936 -3.1473,5.78279 -6.8546,8.70493 -13.7753,10.85774 -7.3663,2.29129 -16.4073,3.27776 -15.8115,1.72548 0.2717,-0.70872 2.2463,-1.12639 6.2637,-1.32445 17.7655,-0.8762 29.0817,-16.36575 24.2139,-33.14475 -3.1152,-10.73899 -10.2036,-18.42776 -20.0596,-21.75786 -3.6603,-1.23671 -5.2417,-3.00394 -2.6871,-3.00394 z m -6.9864,4.58163 h 1.8616 l -1.8941,2.8639 c -1.0414,1.57509 -2.2831,3.98095 -2.7583,5.34593 -0.4757,1.36512 -1.3465,2.48201 -1.9354,2.48201 -1.302,0 -1.1893,0.30329 -1.3798,-3.68451 -0.1344,-2.80313 0.1746,-3.58225 2.0434,-5.15475 1.211,-1.01891 3.039,-1.85258 4.0626,-1.85258 z m 3.3261,0.63251 c 0.486,0.0507 0.7805,1.13393 1.1832,3.28094 0.4625,2.4661 0.3292,2.79723 -1.2671,3.14193 -0.9813,0.2118 -2.3852,0.6378 -3.1207,0.9467 -1.8447,0.7756 -1.664,-0.14539 0.8734,-4.45503 1.1676,-1.98315 1.8449,-2.96526 2.3312,-2.91454 z m 3.057,0.13126 c 0.8192,0 2.4135,1.21232 3.5436,2.69388 1.1297,1.48164 1.9214,2.77265 1.7565,2.87065 -0.1635,0.0969 -1.3874,0.0676 -2.7199,-0.0651 -1.9235,-0.1918 -2.5916,-0.72766 -3.2451,-2.60244 -1.052,-3.0175 -1.0795,-2.89698 0.6649,-2.89698 z m -11.8396,0.17621 c 0.3686,-0.0172 0.056,0.35785 -0.9972,1.28728 -0.9914,0.87519 -2.7101,1.58033 -3.819,1.56734 -1.937,-0.0233 -1.9579,-0.0681 -0.5331,-1.14567 0.8154,-0.61672 1.9047,-1.12139 2.4199,-1.12139 0.5154,0 1.5663,-0.20074 2.3357,-0.44595 0.2723,-0.0868 0.471,-0.13592 0.5937,-0.14161 z m 17.2178,1.43299 c 0.4985,0.008 1.8997,0.8764 4.4161,2.61019 0.1146,0.0792 -0.011,0.70887 -0.2727,1.39888 -0.6877,1.79136 -1.2438,1.53548 -3.1473,-1.45055 -1.0914,-1.7121 -1.4946,-2.56609 -0.9961,-2.55852 z m -24.6269,1.86449 v 0 c 0.1262,-0.014 0.1961,0.0392 0.1961,0.16846 0,0.51699 0.5154,0.94001 1.1451,0.94001 1.9129,0 1.311,1.35909 -2.2858,5.15731 -3.6031,3.80479 -4.1806,5.74268 -2.3222,7.7959 0.9816,1.08638 0.9776,1.50492 -0.033,3.45352 -0.9239,1.78049 -0.994,2.94791 -0.3556,5.92524 0.4374,2.03938 0.7954,4.03495 0.7954,4.43434 0,0.86849 -0.4898,0.84513 -3.2211,-0.15349 -2.5249,-0.92329 -3.3131,-4.09821 -2.5921,-10.45104 0.7498,-6.60937 2.7337,-11.57555 4.6281,-11.59153 1.2874,-0.01 1.3629,-0.14173 0.4217,-0.74104 -0.9575,-0.60981 -0.7384,-1.13832 1.3364,-3.21945 1.0237,-1.02701 1.9074,-1.67598 2.2858,-1.71823 z m -86.9979,7.03418 c 3.1734,3.44292 14.1348,9.58186 17.1085,9.58186 1.089,0 1.0961,0.22244 0.074,2.19935 -1.868,3.61249 -5.0239,6.94042 -8.0428,8.48061 -2.5726,1.31242 -2.9528,1.33657 -4.0312,0.25787 -1.3052,-1.3053 -3.3261,-0.72891 -2.8646,0.94413 l 0.3902,1.41478 c 0,0 -5.8708,3.20765 -14.9481,-0.004 -3.723,-1.31718 -8.6726,-5.9599 -10.5358,-7.61572 -0.6985,-0.6209 3.4087,-5.15167 6.6255,-7.30808 1.9669,-1.3189 5.6843,-4.4482 8.2597,-6.9546 4.1299,-4.28985 4.0267,-5.26918 7.9648,-0.99624 z m 108.0373,-3.54909 c 0.6474,0 1.6018,0.48072 2.8303,1.44177 l 1.9094,1.49344 -2.8638,0.0175 c -2.3601,0.014 -2.8639,-0.25162 -2.8639,-1.51048 0,-0.96107 0.3406,-1.44179 0.988,-1.44179 z m 10.4468,0.0265 v 0 c 0.2781,-0.0143 0.6091,0.18859 1.1081,0.60253 0.662,0.54952 1.2036,1.22516 1.2036,1.50226 0,0.27688 -0.8591,0.57443 -1.909,0.66145 -2.0333,0.1682 -2.3066,-0.30578 -1.1922,-2.06705 0.2873,-0.45461 0.5117,-0.68588 0.7895,-0.70022 z m -13.9872,0.69659 v 0 c 0.6318,0.004 1.0253,0.37153 1.0253,1.10019 0,0.78817 -0.7742,1.13787 -2.4826,1.12086 -2.3474,-0.023 -2.4008,-0.0851 -0.9988,-1.14567 0.9546,-0.72216 1.8243,-1.08027 2.4561,-1.07591 z m 16.8595,2.53421 c 0.7628,0.086 1.7312,1.46087 3.2674,4.58163 5.7647,11.70911 2.7239,24.59474 -6.971,29.54083 -3.9529,2.0165 -4.1193,1.90974 -2.1032,-1.35236 0.9636,-1.559 2.4773,-5.08175 3.3634,-7.82794 1.2293,-3.80632 2.0989,-5.22978 3.6573,-5.98932 1.3391,-0.6527 2.0431,-1.60454 2.0431,-2.76053 0,-2.13021 -2.523,-5.51717 -4.6016,-6.17691 -0.8289,-0.26307 -1.5078,-1.0999 -1.5078,-1.85877 0,-0.75899 -0.4996,-2.79779 -1.1113,-4.53049 -1.1004,-3.1197 -1.093,-3.15071 0.7019,-3.15071 0.997,0 2.3228,-0.19579 2.9462,-0.43511 0.1016,-0.039 0.2066,-0.0526 0.3156,-0.0403 z m -27.4087,0.47543 c 0.9054,0 1.638,0.0863 1.638,0.19121 -0.01,0.10502 -0.5199,1.87788 -1.1456,3.93981 -0.6252,2.06179 -1.1372,4.72509 -1.1372,5.91849 0,1.9762 -0.255,2.18085 -2.8636,2.29185 -2.7387,0.11689 -2.5688,0.80716 -0.2489,1.09762 1.1977,0.14994 2.3926,0.19016 2.3926,0.19016 0.034,0.46071 0.09,2.02967 0.3286,4.55271 0.2664,2.8108 0.6623,6.05538 0.88,7.2104 0.3847,2.04009 0.2963,2.10013 -3.0477,2.10013 -2.9835,0 -3.4801,-0.22953 -3.7105,-1.71823 -0.1464,-0.94488 0.08,-2.3127 0.5029,-3.03911 0.5609,-0.96319 0.4115,-1.9253 -0.5508,-3.55431 -2.0786,-3.51909 -1.6939,-5.83417 1.3544,-8.15917 3.1795,-2.4252 3.325,-3.52409 0.7363,-5.5604 l -1.9367,-1.52342 2.5812,-1.96887 c 1.4195,-1.08291 3.3216,-1.96887 4.227,-1.96887 z m 18.8124,0.38653 c 1.27,-0.006 1.5981,0.49485 2.2757,2.1699 0.5355,1.32411 1.1983,3.35272 1.4719,4.50773 0.4199,1.7702 0.2524,2.10013 -1.0676,2.10013 -0.861,0 -1.764,0.51568 -2.0058,1.14567 -0.2432,0.63469 -1.3769,1.14515 -2.5424,1.14515 -2.0323,0 -2.1222,-0.17246 -2.6231,-5.06016 -0.2744,-2.78291 -0.417,-5.15234 -0.2955,-5.26582 0.1222,-0.11321 1.5417,-0.37973 3.1554,-0.59271 0.6805,-0.0898 1.2078,-0.14796 1.6314,-0.14989 z m -14.9011,0.51781 v 0 c 0.2839,-0.0204 0.5948,0.11888 0.9478,0.39738 0.5432,0.42839 1.9325,1.00468 3.0877,1.28056 2.5958,0.62031 2.635,1.52511 0.1907,4.43021 -1.0504,1.24799 -1.9095,2.93007 -1.9095,3.73777 0,1.16951 -0.5447,1.46862 -2.673,1.46862 -3.0277,0 -3.0906,-0.21566 -1.8281,-6.26266 0.7298,-3.49073 1.3328,-4.99036 2.1839,-5.05188 z m 9.1903,5.70249 v 2.80604 c 0,2.48401 -0.219,2.80601 -1.9089,2.80601 -1.0766,0 -1.909,-0.44151 -1.909,-1.01232 0,-0.55679 0.8586,-1.81954 1.909,-2.80604 z m -19.8106,1.02992 c 0.4455,0 0.5963,0.34388 0.3368,0.76377 -0.2596,0.42 -0.6223,0.76377 -0.8088,0.76377 -0.1853,0 -0.3363,-0.34377 -0.3363,-0.76377 0,-0.41989 0.3638,-0.76377 0.8083,-0.76377 z m 32.3122,4.08709 c 0.2135,-0.0469 0.5882,0.28263 1.2449,0.87694 1.8375,1.66291 1.9608,3.10674 0.3193,3.73674 -1.823,0.6995 -1.8476,0.66915 -1.8476,-2.32805 0,-1.54281 0.011,-2.22533 0.2834,-2.28563 z m -122.1404,0.30436 c -1.6589,-0.0457 -3.8862,2.31081 -3.3155,3.79772 0.5937,1.54395 2.354,1.54757 3.8923,0.009 1.5629,-1.5617 1.528,-3.09332 -0.084,-3.71192 -0.1555,-0.0598 -0.3214,-0.0904 -0.4929,-0.0951 z m 12.673,0.42478 c -1.823,0 -3.2581,1.435 -3.2581,3.25822 0,1.10368 0.4729,1.3712 2.1,1.1839 1.6497,-0.18981 2.1516,-0.69249 2.3421,-2.34199 0.1871,-1.62718 -0.079,-2.10013 -1.184,-2.10013 z m 106.8515,0.1478 0.021,3.2458 c 0.019,3.10999 -0.077,3.24528 -2.2976,3.24528 -1.2748,0 -3.1644,0.5552 -4.2003,1.23351 -1.7952,1.17679 -1.8819,1.15932 -1.8819,-0.38187 0,-0.90332 0.4889,-1.61542 1.1096,-1.61542 2.0603,0 4.7088,-1.63113 5.983,-3.68503 z m -11.0763,0.3819 c 0.6551,0 1.1906,0.34377 1.1906,0.76377 0,0.42008 -0.323,0.76325 -0.7183,0.76325 -0.3953,0 -0.9313,-0.34317 -1.1906,-0.76325 -0.2598,-0.42 0.064,-0.76377 0.7183,-0.76377 z m 4.2902,0 c 0.8647,0 1.3605,0.34377 1.1007,0.76377 -0.2593,0.42008 -0.9668,0.76325 -1.5721,0.76325 -0.6054,0 -1.1007,-0.34317 -1.1007,-0.76325 0,-0.42 0.7072,-0.76377 1.5721,-0.76377 z m -15.5339,0.76377 h 3.0808 c 2.0735,0 3.2284,0.3855 3.5332,1.17978 0.249,0.64902 1.6606,1.68436 3.1367,2.30113 3.075,1.28479 3.4351,3.02885 1.3539,6.55207 -1.0901,1.84528 -1.1441,2.36463 -0.3003,2.88612 0.7093,0.43839 0.7699,0.79651 0.1934,1.1529 -1.2012,0.74239 -9.2456,0.30655 -9.7624,-0.52917 -0.2386,-0.38629 -0.6135,-3.59145 -0.8339,-7.12255 z m 21.8988,7.82278 c 0.5823,0.0609 0.4905,0.62928 0.1722,2.22208 -0.2738,1.36908 -1.0567,3.70683 -1.8211,5.15368 l -1.6015,3.03136 c -0.4303,0.81444 -1.0182,0.61248 -2.4226,-1.08006 -0.8554,-1.03007 -1.1411,-1.16477 -1.1411,-1.16477 2.2503,-0.253 3.8793,-0.12735 3.8391,-0.82423 -0.021,-0.37936 -1.6754,-0.40868 -3.9,-0.73176 0,0 -0.2878,-0.29961 0.1117,-1.63761 0.712,-2.38302 2.627,-4.11237 5.2295,-4.72064 0.5371,-0.1256 0.9427,-0.21688 1.2414,-0.24496 0.1119,-0.0106 0.2093,-0.0119 0.2924,-0.003 z m -15.6816,0.69503 c -0.3731,-0.005 -0.6559,0.41527 -0.6559,1.02786 0,0.69998 0.3693,1.1499 0.8207,0.99943 0.4514,-0.15052 0.821,-0.60044 0.821,-0.99943 0,-0.3991 -0.3696,-0.8486 -0.821,-0.99891 -0.056,-0.0188 -0.1114,-0.0281 -0.1648,-0.029 z m -19.6202,0.79119 c 0.3694,-0.009 0.9292,0.0913 1.6775,0.27905 1.4533,0.36478 2.1875,1.23248 2.7418,3.23959 0.4162,1.50788 0.644,2.85609 0.5035,2.99569 -0.1397,0.1398 -1.5322,-1.16023 -3.094,-2.88872 -2.336,-2.58609 -2.9371,-3.59812 -1.8288,-3.62561 z m -100.9978,4.73561 c -5.4237,-0.11731 -10.8974,0.78606 -15.2876,3.32124 -9.9748,5.76053 -16.8352,16.87044 -19.7951,32.02752 -0.92,4.71011 -0.7168,19.35507 0.3003,21.65138 0.4024,0.90919 -1.0538,1.82629 -6.5641,4.13309 -10.0057,4.18869 -18.9187,8.71087 -18.9187,9.59889 0,1.62521 3.8018,0.51465 19.354,-5.65287 22.0871,-8.76279 25.5569,-9.70897 25.5569,-9.70897 0.708,0.41799 3.3499,2.64118 3.3499,2.64118 -0.8213,0.6944 -3.6195,1.5177 -7.0824,3.42098 -4.1669,2.29013 -7.5769,4.59968 -7.5769,5.13197 0,0.53231 2.3927,2.44374 5.3166,4.2478 2.9236,1.80401 5.1974,3.3977 5.0546,3.54087 -0.1434,0.14332 -2.5347,-0.99031 -5.315,-2.5187 -2.7805,-1.52821 -5.0562,-2.39906 -5.0562,-1.93527 0,1.00441 5.111,4.30668 16.0375,10.36267 4.4101,2.44441 9.6509,5.45783 11.6462,6.69674 1.9949,1.2387 6.2891,3.41818 9.5456,4.8364 2.2109,0.96276 6.1225,3.14512 10.2537,1.76683 0.9239,-0.30824 3.9785,-1.50572 6.9328,-2.32442 2.9544,-0.8187 10.7355,-3.51433 17.29,-5.98982 6.5543,-2.47549 15.1818,-5.68119 19.172,-7.12412 12.8085,-4.63216 30.8509,-11.92958 33.4965,-13.54799 4.4831,-2.74222 1.9492,-2.5255 -4.908,0.41961 -3.642,1.5644 -11.9938,4.65941 -18.5597,6.87813 -6.5659,2.21869 -13.2644,4.60581 -14.885,5.30511 -1.6205,0.69921 -3.0951,1.12249 -3.2771,0.94051 -0.4048,-0.40463 2.136,-1.43251 21.1153,-8.54109 20.7979,-7.7896 21.3318,-8.02243 22.2303,-9.70121 1.0044,-1.87672 -0.5328,-3.73902 -5.4287,-6.57892 -1.8907,-1.0967 -6.8884,-3.73724 -6.8884,-3.73724 -2.3495,-5.98027 -10.228,-10.58415 -14.6579,-11.69956 -2.4101,-0.6069 -4.4741,-1.89722 -6.7604,-4.22661 -1.8103,-1.84441 -4.1058,-3.23152 -3.9217,-3.37603 0.1837,-0.14441 6.282,-1.96556 12.3722,-3.75378 12.4402,-3.65239 17.5644,-5.81046 17.5644,-7.39695 0,-1.7394 -2.567,-1.30731 -18.5788,3.12798 -8.3277,2.30722 -15.4477,4.19507 -15.8215,4.19507 -0.3736,0 -5.0724,-2.87237 -10.4413,-6.38307 -5.3684,-3.5106 -12.6815,-7.83622 -16.2518,-9.61181 -3.5702,-1.7758 -9.1249,-4.58576 -12.3547,-6.22133 -4.395,-2.22544 -11.2847,-4.06339 -18.2578,-4.21421 z m 109.1287,0.9865 v 0 c 0.408,0.003 0.9353,0.041 1.6113,0.10541 2.0193,0.19249 3.1774,0.71941 3.4071,1.5503 0.1912,0.69229 0.5704,2.03208 0.8416,2.97709 0.6159,2.14138 0.032,2.1367 -3.8084,-0.0336 -1.7047,-0.96329 -3.1536,-2.40241 -3.2769,-3.25612 -0.1471,-1.0137 0,-1.34845 1.2253,-1.34361 z m 8.5463,0.54674 c 0.6853,-0.0257 1.6256,0.0537 2.8602,0.18399 2.4151,0.2549 4.4722,0.53194 4.5722,0.61494 0.1,0.0833 -0.2505,1.64711 -0.7797,3.47523 -0.5292,1.82811 -1.2994,3.38738 -1.71,3.46337 -2.3582,0.44021 -4.2992,-0.73219 -5.3412,-3.22617 -1.4266,-3.41461 -1.6581,-4.43469 0.3985,-4.51136 z m 9.5761,1.63814 c 0.041,-0.005 0.086,0 0.1354,0.0124 v 0 c 0.2363,0.0662 0.567,0.34845 1.0758,0.80875 1.8447,1.6687 2.0029,4.30633 -0.05,4.84621 l -0.9551,0.25114 c -2.4556,0.64556 -2.3871,0.72771 -1.7968,-0.79737 0.2844,-0.73501 0.7104,-2.29344 0.9461,-3.46334 0.2236,-1.10681 0.3519,-1.62037 0.644,-1.6578 z m -126.8997,0.23513 c 1.6216,-0.0284 3.5803,0.0906 5.2503,0.36793 4.058,0.67424 4.5138,1.70117 1.8603,4.19407 -1.6658,1.5126 -3.5729,1.69921 -6.4481,0.64855 -1.7164,-0.95298 -4.4032,-4.1951 -3.8907,-4.69429 0.3209,-0.31226 1.6063,-0.48784 3.2282,-0.51626 z m -6.381,1.01907 c 0.089,-0.009 0.1789,-0.007 0.2685,0.0103 0.7184,0.13256 1.4203,1.18121 1.891,2.48306 2.9057,8.03649 13.2546,8.72906 16.4616,1.10176 0.6713,-1.5969 1.1681,-1.94562 2.0106,-1.41232 1.8579,1.1761 -1.3981,6.14349 -5.4163,8.17623 -6.2209,3.1473 -14.4568,-0.9901 -16.3994,-9.69759 0,0 0.5625,-0.59981 1.184,-0.66095 z m -3.5817,1.46193 c 0.3723,0.0103 0.5131,0.29848 0.5131,0.83405 0.8826,8.94852 11.05,15.41462 19.332,11.97859 2.6236,-1.08845 5.9407,-4.66014 6.6903,-6.58874 0.9416,-2.423 1.743,-2.14725 3.3308,1.14567 1.429,2.96289 2.5926,17.22001 1.6801,19.59827 0,0 -0.893,-1.30294 -3.3316,-3.31295 -5.9087,-4.8705 -8.3831,-1.98181 -3.7976,4.43331 1.3867,1.94029 3.1655,4.43806 3.4618,4.92786 0,0 -1.5806,0.94538 -5.0236,2.07687 -2.8382,0.93263 -20.3423,7.30697 -24.6486,8.59743 -3.0422,-3.38461 -4.4339,-13.22578 -2.6035,-22.39709 1.3467,-11.29162 1.0925,-12.96924 -1.964,-12.96924 -2.3921,0 -3.2144,2.12757 -4.3559,11.25977 -0.9628,7.99822 -2.0566,20.20369 2.6157,26.55861 -4.9702,1.96315 -8.6934,2.98786 -13.3427,4.76972 -0.5246,0.1877 -0.958,0.0467 -0.9358,-0.31316 0.1733,-6.2784 1.6788,-19.42121 2.6591,-23.2115 2.817,-10.89141 8.4301,-19.94053 15.4958,-24.98143 2.3389,-1.6687 3.6042,-2.42337 4.2246,-2.40604 z m 36.2252,9.0873 c 0.8784,0 21.6093,13.20184 21.7718,13.89785 -3.3928,1.95011 -16.0388,5.38099 -19.8258,7.05953 -1.6417,0.48969 -1.6693,0.37272 -1.5327,-6.60167 0.076,-3.90541 -0.1389,-8.73294 -0.4765,-10.72803 -0.3496,-2.06272 -0.3223,-3.62768 0.063,-3.62768 z m 85.1807,7.02075 c 0.1617,-0.006 0.3072,-0.003 0.4393,0.008 0.8802,0.0748 1.1591,0.54568 1.5933,1.68775 0.9205,2.42099 3.2485,2.59075 4.7392,0.34573 l 1.0816,-1.62935 4.5485,2.20244 c 3.3049,1.60009 4.5476,2.61906 4.5476,3.72896 0,1.38951 -0.5511,1.53956 -6.1092,1.65417 -5.8092,0.12039 -16.8934,-1.29495 -18.6521,-2.38178 -2.5934,-1.60279 0.5927,-4.52763 5.8545,-5.37435 0.8429,-0.13559 1.4726,-0.22431 1.9573,-0.24132 z m -58.3903,10.79005 c 0,0 4.881,3.79873 7.5639,6.16913 -1.2316,-0.36526 -2.1543,-1.21512 -4.0844,-2.16265 -1.5409,-0.75642 -2.7644,-0.68461 -13.7247,3.03287 -6.6905,2.26922 -11.7814,3.91234 -11.7814,3.92535 -1.2015,-1.35876 -1.8928,-2.02033 -2.8551,-2.86596 0.3855,-0.32084 21.7657,-7.22797 24.8817,-8.09874 z m 52.0967,5.95778 c -1.6613,0.0909 -3.343,1.18105 -4.0561,3.08404 -0.2614,0.69829 -0.1965,4.99356 0.1448,9.54566 0.5479,7.31089 0.921,8.83195 3.1961,13.03695 4.2405,7.83751 6.7977,5.94497 6.7514,-5.00073 -0.032,-8.08138 -1.2605,-16.83957 -2.6612,-18.97767 -0.8027,-1.22512 -2.083,-1.75895 -3.375,-1.68825 z m -49.3062,0.24493 5.8566,3.07631 c 5.8386,3.06707 5.8838,3.63077 5.8838,3.63077 -0.2667,3.89469 0.7292,6.77092 0.9112,7.32462 0.2149,0.65209 -1.3115,1.63425 -4.3325,2.78794 -6.9379,2.64932 -9.7486,4.24471 -8.9268,5.06687 1.0181,1.0178 13.2921,-4.78252 15.1749,-7.17629 1.0052,-0.0478 1.5243,-1.68833 1.991,-2.38797 l 1.5065,3.04115 c 0.7832,1.58181 1.3195,2.93137 1.2153,2.9864 -0.1032,0.055 -3.7148,1.5825 -8.0254,3.39461 -7.9023,3.32171 -9.2998,4.25614 -8.0944,5.40795 0.7271,0.69479 19.3128,-7.88377 20.3123,-9.37567 0.3435,-0.5134 0.4424,-1.964 0.2197,-3.22408 l -0.4051,-2.29135 1.9669,2.48203 c 2.1722,2.74029 4.4204,3.19919 5.6105,1.14568 0.7207,-1.24439 1.0231,-1.20103 4.3852,0.63198 1.9862,1.08291 3.7277,2.31666 3.8685,2.74145 0.3513,1.05439 -35.2063,14.34592 -36.7716,13.7454 -0.8924,-0.3428 -2.2116,-1.20923 -2.2116,-1.20923 2.5648,-1.41573 0.3654,-3.24987 -2.2961,-1.78953 0,0 -2.2775,-0.95396 -3.2022,-2.21642 2.6762,-1.11829 0.7855,-2.72772 -1.8098,-1.5322 -0.8993,-1.2424 -1.6388,-1.33289 -2.6003,-2.37609 2.0746,-1.06958 -1.3084,-2.45525 -2.8633,-1.16477 -0.6194,0.51371 -1.9053,1.38318 -2.4355,1.17977 -0.5969,-0.22899 -1.0075,0.32991 -1.0766,1.46812 -0.087,1.42849 2.2778,0.55385 3.3192,0.22323 l 2.4852,2.22933 c -2.2016,1.05785 -1.5994,2.61924 1.7238,1.74461 0,0 0.8501,0.43632 1.6708,1.04592 1.2597,0.93559 1.4428,1.20251 1.4428,1.20251 -2.549,1.721 -0.6281,2.50716 2.3265,1.49706 0,0 3.0654,1.87817 0.4,2.92645 -0.9903,0.3896 -5.0596,1.9776 -9.0429,3.52899 -3.9833,1.55141 -17.672,6.16172 -22.6695,8.08839 -2.7382,1.05571 -2.7069,1.46846 -5.43,0.16846 -4.1045,-1.62139 -32.5086,-16.12741 -37.3817,-19.09961 -3.2578,-1.98726 -3.0723,-1.14707 0.3823,-2.88303 1.5658,-0.75872 9.3591,-4.38592 12.5744,-5.3666 0,0 0.3299,-0.0786 2.8728,1.04127 3.8841,1.7109 17.7019,1.63367 21.6601,-0.12092 2.595,-1.1503 3.8132,-1.20583 10.1253,-0.46145 6.0733,0.7163 8.8496,-1.29173 11.9502,-2.30582 0,0 2.4405,1.44539 4.2283,1.19374 2.82,-0.39698 2.0868,-0.96779 -0.8847,-3.8251 -0.4863,-1.90685 -1.469,-5.56361 -2.068,-6.43525 -0.7443,-1.08239 -2.6972,-1.33564 -4.944,-1.96734 l 5.104,-1.87843 c 3.5071,-1.33342 8.6099,-3.20916 11.3401,-4.16875 z m 83.6457,1.43351 c -2.4077,0.13486 -12.3296,4.99626 -18.3513,9.07645 -4.5283,3.06848 -4.9852,3.62535 -5.2101,6.34534 -0.1749,2.11511 0.1243,3.25279 1.0295,3.91449 1.3872,1.0146 1.8923,0.87206 7.6848,-2.16884 10.8929,-5.71903 19.5572,-15.46755 15.2249,-17.13024 -0.09,-0.0347 -0.2175,-0.0462 -0.3778,-0.0372 z m -35.3499,0.894 c 0.3069,0.023 0.6995,0.21698 1.1795,0.57568 1.1554,0.8632 2.7752,8.43182 2.821,13.17593 0.011,1.0949 -0.5255,1.55866 -1.8942,1.63764 -1.7722,0.10221 -1.9132,-0.14449 -1.9542,-3.43649 -0.024,-1.95072 -0.3352,-5.2647 -0.6895,-7.36491 -0.5374,-3.18498 -0.3834,-4.65651 0.5374,-4.58785 z m -82.8808,1.73736 c 0,0 0.9729,0.98914 1.1568,1.51413 0.2135,0.60682 -0.3961,0.95446 -1.6735,0.95446 -1.1385,0 -2.7374,1.51392 -3.6968,2.54921 0,0 -4.3756,1.30907 -10.7606,3.69435 -4.732,1.7677 -6.7971,2.44358 -8.4656,2.74711 -1.5211,0.23159 -5.3178,-1.40105 -6.0245,-1.78543 0,0 26.2136,-9.52963 29.4642,-9.67383 z m 115.5007,0.54467 c 0.2537,0.0303 0.4165,0.16071 0.4165,0.37568 0,1.03521 -1.3574,1.67775 -1.8521,0.87696 -0.2366,-0.3828 0.082,-0.8931 0.7104,-1.13379 0.1569,-0.0602 0.3064,-0.0982 0.4429,-0.11522 0.1024,-0.0127 0.1976,-0.0138 0.2823,-0.004 z m -3.0144,2.28256 c 0.7535,-0.0351 1.139,0.32785 1.139,1.0945 0,0.4055 -2.7765,2.64999 -6.1703,4.9878 -3.3933,2.33769 -6.2738,4.25039 -6.4016,4.25039 -0.1275,0 -0.4038,-0.65299 -0.6117,-1.45108 -0.2934,-1.1222 0.9059,-2.34839 5.2946,-5.41258 3.2165,-2.24581 5.494,-3.41048 6.75,-3.46903 z m -72.5019,4.47104 c -1.4888,-0.12431 -15.7784,7.42193 -15.3268,8.15247 0.5136,0.83129 5.9216,-1.1816 11.2572,-4.18992 3.6309,-2.04731 4.8782,-3.22064 4.1728,-3.92586 -0.021,-0.0204 -0.055,-0.0327 -0.1032,-0.0367 z m -45.0884,1.67896 c -0.7287,0.74065 -0.041,2.55088 -1.5042,2.53474 -0.349,-0.004 -1.8359,0.67873 -4.4979,0.75136 l -5.4303,0.14833 z m 102.7318,3.55793 c 0.4123,-0.0241 0.7245,0.36121 0.7245,0.94308 0,0.66501 -0.5438,1.20923 -1.2086,1.20923 -1.3489,0 -1.1142,-1.64425 0.3016,-2.11614 0.062,-0.0209 0.1235,-0.0327 0.1825,-0.0362 z m -10.6283,3.75947 c 0.5308,0.0413 0.6803,0.40576 0.5313,1.17821 -0.1479,0.76838 -0.898,1.51826 -1.6661,1.66606 -1.0086,0.19431 -1.3234,-0.1188 -1.1287,-1.1276 0.1482,-0.76841 0.8985,-1.51823 1.6672,-1.66603 0.1259,-0.0243 0.2407,-0.041 0.3452,-0.0491 0.092,-0.007 0.1752,-0.007 0.2511,-0.003 z m -116.8781,19.21071 c 0.03,-0.0461 0.4448,0.15007 1.2698,0.54983 0.9451,0.4581 1.7187,0.99274 1.7187,1.18803 0,0.5842 -0.3958,0.41529 -1.954,-0.83302 -0.7117,-0.57025 -1.0652,-0.8587 -1.0345,-0.90484 z m -29.0682,0.75498 c -2.1627,0.004 -2.0854,1.06993 -6.5349,5.60327 -13.1575,14.35304 -12.8095,13.31241 -13.0905,19.44172 -0.2352,5.12474 -1.6931,4.81925 3.0022,6.38823 1.7825,0.65929 11.6607,3.75571 21.9512,6.88073 10.2904,3.12517 19.9125,6.21217 21.3828,6.86056 1.47,0.6486 3.1885,1.10273 3.8182,1.00873 0.63,-0.0937 2.6924,-3.12106 4.5823,-6.72725 3.5621,-6.79579 8.0354,-14.08242 9.7213,-15.8352 0.5337,-0.55502 0.9705,-2.66338 0.9705,-4.68448 0,-3.30951 0.906,-4.19848 -1.806,-6.64869 -1.6563,-1.4964 -5.5253,-2.82201 -7.1242,-3.25508 -1.5989,-0.433 -8.578,-2.35014 -15.508,-4.26022 -6.9308,-1.91011 -15.5866,-4.25175 -18.2041,-4.51136 -1.4695,-0.14573 -2.4395,-0.26228 -3.1608,-0.26096 z m 0.9433,3.70055 c 2.1947,0.0316 6.0589,1.01216 13.5556,3.28922 6.0865,1.84869 19.0799,5.61565 23.1749,6.76444 2.1336,0.60386 3.5888,0.20825 1.6042,3.47938 -1.1573,1.90875 -7.8719,13.16101 -9.7629,15.8016 -2.1175,2.95683 -1.1689,2.94579 -4.5109,1.23661 -3.3276,-1.63703 -21.3164,-6.91015 -39.3628,-11.54864 -2.1249,-0.54615 -3.2729,-0.87334 -1.4846,-2.89335 4.2238,-4.77165 14.2034,-15.30794 14.6434,-15.61663 0.4921,-0.34523 1.1453,-0.527 2.1431,-0.51263 z m 92.6346,4.38062 c -0.8253,-0.003 -1.6127,0.10943 -2.3368,0.34158 -3.243,1.03981 -8.7818,6.56982 -8.7818,8.76742 0,4.20989 3.7896,8.29865 9.7036,10.46914 5.0924,1.86891 7.2866,1.48648 11.1897,-1.94924 3.165,-2.78609 3.5444,-3.46451 3.5444,-6.34691 0,-3.43532 -0.9898,-4.93405 -5.5144,-8.34884 -2.5072,-1.89196 -5.3288,-2.92611 -7.8047,-2.93315 z m -27.2783,0.30229 c 0.1164,-0.0122 0.1979,-0.0114 0.2387,0.003 0.3243,0.11351 -2.1217,1.26307 -5.4354,2.55437 -5.3985,2.10349 -6.2095,2.2365 -7.7991,1.28312 -1.0033,-0.60153 -1.1824,-0.88161 -0.4138,-0.64441 0.7477,0.23071 3.991,-0.43966 7.2083,-1.48982 2.8146,-0.91885 5.3851,-1.62076 6.2013,-1.70585 z m 27.6908,2.11823 c 2.731,0 9.0307,3.81262 9.0635,5.48441 0.013,0.70639 -0.9736,1.9952 -2.1936,2.86391 -1.2198,0.8687 -2.6803,1.54199 -3.2454,1.495 -1.7939,-0.14711 -10.8506,-4.17709 -11.0686,-4.92527 -0.3596,-1.23362 5.2171,-4.91805 7.4441,-4.91805 z m -7.9381,8.03568 v 0 c 0.5403,-0.004 1.6291,0.41924 3.3383,1.24643 5.1186,2.47761 9.2578,2.71267 12.1031,0.68678 3.2456,-2.31209 3.1276,-0.33406 -0.172,2.86393 -1.3856,1.34241 -3.1898,2.42289 -4.0098,2.40088 -2.9225,-0.0779 -9.5755,-3.16966 -10.7812,-5.01004 -0.9633,-1.47016 -1.1745,-2.18255 -0.48,-2.18798 z m -44.6066,0.96737 c 0.2223,-0.0476 0.3323,0.26292 0.4154,0.85008 0.1699,1.20039 -0.7874,3.31912 -2.7683,6.12831 -1.6656,2.36141 -4.449,7.12017 -6.186,10.57508 -1.737,3.45479 -3.4126,6.2467 -3.7229,6.20167 -1.8027,-0.2558 -20.2192,-6.68372 -19.2742,-6.72671 0.6306,-0.029 4.5493,0.81409 8.7091,1.87378 4.16,1.05973 7.9404,1.78273 8.4005,1.60663 1.4502,-0.5551 -6.2812,-3.6154 -13.1678,-5.21208 -12.3277,-2.85822 -29.9061,-7.80598 -29.9061,-8.41759 0,-0.92697 0.7125,-0.79235 9.2551,1.75183 4.3601,1.29831 11.3633,3.2031 15.5636,4.2323 9.321,2.28391 18.0401,4.89702 19.159,5.74281 1.3687,1.03421 4.1804,-2.77069 11.0908,-15.00838 1.3801,-2.44446 2.0614,-3.51838 2.4318,-3.59773 z m 18.6791,5.22449 c -2.8536,-0.0212 -3.3655,0.28946 -4.0976,1.72911 -1.6828,3.3097 -0.3099,4.83864 6.7257,7.48945 3.5695,1.34469 9.0339,3.13431 12.1435,3.97703 4.2241,1.1448 7.9127,1.51966 14.5892,1.48466 10.1756,-0.0542 12.3684,-0.80312 10.0248,-3.42564 -3.6394,-4.0726 -26.805,-10.91523 -38.0111,-11.22773 -0.5109,-0.0143 -0.9668,-0.0238 -1.3745,-0.0269 z m -1.6341,1.99419 c 0.2119,-0.003 0.5001,0.0629 0.8676,0.2186 2.0349,0.86249 15.2392,4.08041 20.6189,5.02502 2.625,0.46099 4.7615,1.06045 4.7615,1.33223 -0.049,2.06161 -1.7386,1.99893 -12.2076,-0.45167 -6.0902,-1.42571 -11.8465,-3.09237 -12.7913,-3.70417 -1.6616,-1.0755 -2.1683,-2.40469 -1.2491,-2.42001 z m -74.1635,2.24483 c 0.8398,-0.0122 2.7297,0.44117 4.1997,1.00719 3.4404,1.32538 1.3338,1.342 -2.6725,0.0217 -1.6809,-0.5538 -2.3675,-1.01537 -1.5272,-1.02836 z m 106.3228,5.3661 c 0.4006,-0.007 1.0036,0.30879 1.5362,0.84129 1.3803,1.38028 0.5548,1.73276 -1.3042,0.55706 -0.6178,-0.39079 -0.8673,-0.96621 -0.5545,-1.279 0.078,-0.0782 0.1889,-0.11689 0.3225,-0.11935 z" fill="#00B894" transform="translate(73.307712,2.2813195) translate(-1991.4579,397.15543)"/>
</svg>