<?xml version="1.0" ?><svg height="199.9758mm" viewBox="0 0 234.85773 199.9758" width="234.85773mm" xmlns="http://www.w3.org/2000/svg">
    <path d="m 17874.086,4200.0879 c -24.605,-0.2288 -64.168,7.2862 -78.17,19.9433 -17.234,15.5778 -42.967,42.2132 -54.127,68.586 -11.16,26.3732 -74.552,157.9645 -83.131,183.1074 -8.579,25.1433 -10.804,50.5588 9.24,79.5156 l 2.965,-0.053 c -5.53,29.2736 -7.234,62.3559 -5.605,92.9531 v 0 c 0,0 -30.584,20.8416 -49.481,29.4922 -18.896,8.6506 -97.432,38.8278 -112.068,54.3594 -14.637,15.5316 -4.042,87.981 18.133,109.6074 22.172,21.6261 113.706,116.9787 298.303,112.1621 184.597,-4.817 279.077,-72.1531 315.779,-135.0664 36.701,-62.9129 119.386,-94.4687 205.678,-156.8906 86.29,-62.4216 -11.798,-145.9783 -69.143,-162.6895 -57.345,-16.7115 -115.891,-2.7524 -138.283,3.9317 -22.39,6.6844 -253.52,72.6465 -253.52,72.6465 0,0 3.007,-16.0906 4.563,-35.2598 10.742,-16.8703 30.402,-48.9162 35.336,-65.1387 6.863,-22.5653 3.664,-80.3183 3.664,-80.3183 0,0 38.264,-65.1127 35.303,-119.8399 -2.961,-54.7272 -52.157,-64.7701 -71.288,-69.6211 -3.587,-0.9095 -8.468,-1.3749 -14.146,-1.4277 z m 386.807,70.1523 -16.35,1.1563 c 0,0 -91.972,10.996 -91.742,87.4101 0.234,76.4142 61.667,104.7379 81.836,113.0313 36.63,5.164 85.14,-10.7972 108.381,-43.1367 23.241,-32.3384 11.186,-80.3255 -7.418,-112.7168 -18.605,-32.3913 -74.707,-45.7442 -74.707,-45.7442 z" fill="#FFFFFF" paint-order="markers stroke fill" transform="translate(-58.37919,-52.299348) translate(-2172.2369,203.12567) matrix(0.26458333,0,0,0.26458333,-2398.7881,-1260.5215)"/>
    <path d="m 2329.46,-150.82275 c -8.0822,-0.10229 -14.6566,1.9871 -22.0834,6.95463 -7.4219,4.96401 -11.2708,10.27903 -16.2579,22.45444 -3.928,9.58909 -7.7774,17.71433 -16.0163,33.80412 -4.1817,8.16732 -6.1275,13.91431 -6.1494,18.10692 -0.011,2.99641 1.9124,8.54057 3.6168,10.42416 0.2712,0.29964 1.5859,1.77004 2.2154,2.73937 -0.1106,0.51032 -0.253,0.987 -0.3546,1.5069 -0.9199,4.71012 -0.7167,19.35507 0.3003,21.65139 0.4025,0.90918 -1.0538,1.82628 -6.564,4.13308 -10.0058,4.1887 -18.9182,8.71088 -18.918,9.5989 0,1.6252 3.801,0.51464 19.3532,-5.6529 22.0872,-8.76279 25.5577,-9.70897 25.5577,-9.70897 0.7078,0.41799 3.3497,2.6412 3.3497,2.6412 -0.8213,0.6944 -3.6201,1.51771 -7.0829,3.42096 -4.167,2.29015 -7.5761,4.5997 -7.5761,5.13199 0,0.53232 2.3918,2.44372 5.3157,4.24781 2.9237,1.80401 5.198,3.39767 5.0551,3.54086 -0.1434,0.1433 -2.5352,-0.99031 -5.3154,-2.5187 -2.7805,-1.52821 -5.0554,-2.39905 -5.0554,-1.93529 0,1.00441 5.1107,4.3067 16.0372,10.3626898 4.4103,2.44441 9.6504,5.45783 11.6456,6.69674 1.995,1.2387 6.2897,3.41817997 9.5464,4.8364 2.2109,0.96276 6.122,3.14513 10.2529,1.76681 0.9239,-0.30824 3.9791,-1.50569 6.9337,-2.32439 2.954,-0.81870003 10.7346,-3.51433 17.2892,-5.98983 6.5542,-2.47549 15.1818,-5.6812098 19.1719,-7.1241098 12.8085,-4.6322 30.8515,-11.92962 33.4974,-13.54802 4.4828,-2.7422 1.9489,-2.52548 -4.9083,0.41963 -3.642,1.5644 -11.9944,4.65942 -18.5603,6.87813 -6.5654,2.21869 -13.2638,4.60582 -14.8841,5.30511 -1.6206,0.69921 -3.0954,1.1225 -3.2774,0.94049 -0.4046,-0.4046 2.136,-1.43248 21.1156,-8.54107 20.7976,-7.7896 21.331,-8.02243 22.2295,-9.70121 1.0043,-1.87672 -0.5321,-3.73901 -5.4279,-6.57895 -1.8908,-1.09669 -6.8893,-3.73723 -6.8893,-3.73723 -2.3495,-5.98025 -10.228,-10.58413 -14.6579,-11.69954 -2.4101,-0.6069 -4.4741,-1.89722 -6.7604,-4.22661 -1.8102,-1.84441 -4.1058,-3.23151 -3.9216,-3.37603 0.1836,-0.14441 6.2828,-1.96556 12.373,-3.75377 12.4399,-3.65239 17.5641,-5.81047 17.5641,-7.39696 0,-1.7394 -2.567,-1.30731 -18.5785,3.12798 -8.3281,2.30722 -15.448,4.19508 -15.8219,4.19508 -0.3736,0 -5.0723,-2.87237 -10.4412,-6.38308 -3.7481,-2.45102 -8.3905,-5.25732 -12.0991,-7.35769 0.273,-2.83951 0.3495,-5.89806 0.264,-9.13794 l -0.3873,-8.93278 2.5929,-3.43649 c 4.4103,-5.84488 7.1088,-13.7391 8.1354,-23.7975 0.7234,-7.08882 -1.7211,-15.35173 -5.9701,-20.17863 -4.6802,-5.31709 -9.4464,-7.40339 -17.816,-7.79849 -0.5529,-0.0262 -1.0982,-0.0428 -1.6369,-0.0496 z m -3.0842,2.96728 v 0 c 14.2269,0.0478 21.5249,5.28272 24.1577,17.32814 0.8554,3.9142 0.3138,4.75634 -4.7723,7.42125 -4.7913,2.51039 -5.8089,2.48647 -5.8089,-0.13954 0,-1.15499 -0.382,-3.46038 -0.8435,-5.12268 -1.1308,-4.0731 -6.6968,-16.03444 -7.2186,-15.51273 -0.2289,0.22907 0.7567,3.80563 2.1905,7.94834 1.4338,4.14269 2.7842,9.16443 3.0014,11.15952 0.9422,4.45974 -0.3881,3.62768 -4.4246,3.62768 -7.2448,0 -11.0112,-1.86984 -11.0464,-5.48236 -0.021,-2.25978 -2.4227,-7.57335 -4.0203,-8.89505 -0.6734,-0.5575 -2.0161,-0.90106 -2.9842,-0.76377 -1.6735,0.2373 -1.7606,0.55425 -1.7608,6.51483 0,5.7036 -0.1495,6.33394 -1.6701,7.02593 -2.8117,1.27961 -7.7861,8.31528 -9.1416,12.92998 -1.756,5.979 -1.4663,13.01004 0.921,22.35314 1.7174,6.72049 1.9717,9.04965 1.6603,15.19237 -0.2024,3.99018 -0.8242,8.28567 -1.3825,9.54567 -0.9422,2.12709 -1.0514,1.66272 -1.5227,-6.49108 -0.3995,-6.90801 -1.0252,-10.32087 -2.9313,-15.99128 -1.3324,-3.96471 -2.5527,-9.11911 -2.7109,-11.45458 -0.158,-2.33561 -0.313,-4.50445 -0.3461,-4.81936 -0.1587,-1.5543 -1.5703,-0.2607 -2.3746,2.17609 -0.6956,2.129 -0.6924,3.80624 0.021,7.43625 0.4918,2.50004 1.0604,3.92247 1.2078,4.82658 -0.1156,0.0635 -0.2379,0.11655 -0.3519,0.1824 -8.5963,4.96438 -14.863,13.92063 -18.3303,25.99738 -1.0676,-1.09479 -1.9254,-3.41059 -2.1508,-5.59602 -0.543,-5.25941 0.8979,-9.62565 7.0834,-21.46744 2.6326,-5.04018 6.2333,-12.60094 8.001,-16.80104 1.7677,-4.20029 3.4665,-7.98042 3.7756,-8.40053 0.3085,-0.41999 1.6753,-3.68474 3.0374,-7.25484 4.4048,-11.5443 7.2607,-15.80023 13.9957,-20.86073 6.9831,-5.24701 10.4918,-6.63454 16.7372,-6.61252 z m 106.5926,10.0366 c -2.2651,0.0217 -2.8839,0.84616 -1.4507,2.42982 1.7696,1.9552 0.8221,2.54027 -5.8245,3.59617 -7.1996,1.14382 -11.8912,4.06865 -15.5525,7.72975 -7.7113,7.7113 -10.1417,20.80188 -4.2256,32.82746 2.3296,4.73477 7.8806,9.51296 13.331,12.01475 4.141,1.90082 5.7123,2.26222 5.2731,4.00752 -0.2648,1.05399 -0.6715,2.86128 -0.9038,4.01629 -0.3842,1.91109 -0.7265,2.10063 -3.8028,2.10063 -1.8844,0 -4.7181,0.68236 -6.4043,1.54255 -2.6019,1.3275 -3.0242,1.89505 -3.0242,4.06694 0,4.48699 2.9697,6.01975 14.8911,7.68326 1.2602,0.1756 4.8432,0.19984 7.9623,0.0532 8.3802,-0.39359 11.9383,-3.75957 8.8906,-8.41086 -1.6211,-2.4742 -4.7123,-3.97788 -9.4782,-4.61005 -5.2401,-0.69514 -5.4473,-2.53704 -0.2289,-2.03554 8.0627,0.7747 18.5656,-2.95609 24.6436,-8.75348 3.7441,-3.5715 4.5728,-4.91717 6.3865,-10.37508 4.2741,-12.8588 1.6438,-27.15006 -6.6527,-36.15076 -4.9414,-5.3608 -10.1727,-8.78488 -15.7459,-10.30737 -3.5644,-0.97362 -6.3222,-1.44219 -8.0841,-1.42523 z m 3.1806,3.8101 c 4.8159,0 15.5064,6.66192 19.8308,12.3584 6.9067,9.09791 7.7708,23.73249 2.0254,34.28939 -3.1475,5.78279 -6.8549,8.70492 -13.7756,10.85773 -7.3662,2.29129 -16.4073,3.27777 -15.8115,1.72548 0.2718,-0.70871 2.2464,-1.12638 6.2638,-1.32448 17.7654,-0.87619 29.0822,-16.36574 24.2147,-33.14475 -3.1155,-10.73898 -10.2045,-18.42775 -20.0605,-21.75782 -3.6602,-1.23672 -5.2417,-3.00395 -2.6871,-3.00395 z m -120.863,0.13383 c 0.021,-1.9e-4 0.045,0.007 0.069,0.0217 0.929,0.57402 3.2277,7.00191 3.2277,9.02531 0,1.6078 -1.9368,1.88897 -2.5213,0.36587 -0.8898,-2.319 -1.4454,-9.40724 -0.7752,-9.41287 z m 113.8775,4.4478 h 1.8613 l -1.8939,2.86391 c -1.0416,1.57509 -2.2831,3.98092 -2.7585,5.34593 -0.4755,1.36512 -1.3462,2.482 -1.9354,2.482 -1.3021,0 -1.1891,0.30327 -1.3796,-3.68453 -0.1344,-2.8031 0.1738,-3.58222 2.0426,-5.15472 1.211,-1.01891 3.0398,-1.85259 4.0635,-1.85259 z m 3.3253,0.63252 c 0.486,0.0507 0.7813,1.13392 1.184,3.28094 0.4622,2.4661 0.3288,2.79722 -1.2671,3.14192 -0.9816,0.2118 -2.3855,0.63781 -3.1208,0.94671 -1.8447,0.7756 -1.6647,-0.14542 0.8729,-4.45503 1.1671,-1.98316 1.8446,-2.96526 2.331,-2.91454 z m 3.0577,0.13126 c 0.8189,0 2.4128,1.21229 3.5428,2.69388 1.1298,1.48161 1.9219,2.77262 1.7571,2.87062 -0.1635,0.0969 -1.3875,0.0676 -2.7196,-0.0651 -1.9238,-0.19177 -2.5924,-0.72763 -3.2459,-2.60242 -1.052,-3.01749 -1.079,-2.89697 0.6656,-2.89697 z m -11.8395,0.17621 c 0.3683,-0.0172 0.055,0.35785 -0.998,1.28725 -0.9914,0.87521 -2.7096,1.58036 -3.8182,1.56736 -1.9371,-0.0233 -1.9582,-0.0681 -0.5334,-1.14567 0.8154,-0.61672 1.9042,-1.12138 2.4193,-1.12138 0.5154,0 1.5671,-0.20074 2.3363,-0.44596 0.2725,-0.0868 0.4712,-0.13591 0.594,-0.1416 z m 17.2175,1.43298 c 0.4987,0.008 1.8991,0.87638 4.4156,2.61017 0.1146,0.0792 -0.011,0.7089 -0.2728,1.3989 -0.6876,1.79137 -1.2433,1.53549 -3.1467,-1.45057 -1.0911,-1.7121 -1.4946,-2.56607 -0.9961,-2.5585 z m -24.6269,1.86449 v 0 c 0.1262,-0.014 0.1958,0.0392 0.1958,0.16846 0,0.517 0.5154,0.93999 1.1451,0.93999 1.9129,0 1.3105,1.35911 -2.2863,5.15731 -3.6031,3.80481 -4.1807,5.7427 -2.3222,7.79592 0.9816,1.08638 0.9779,1.50493 -0.033,3.45353 -0.9239,1.78049 -0.9935,2.94791 -0.3551,5.92521 0.4374,2.03941 0.7954,4.03498 0.7954,4.43436 0,0.8685 -0.4903,0.84514 -3.2216,-0.15348 -2.5249,-0.92329 -3.3131,-4.09824 -2.5921,-10.45104 0.7498,-6.60937 2.7339,-11.57555 4.6283,-11.59153 1.2872,-0.0101 1.3626,-0.14174 0.4215,-0.74105 -0.9575,-0.60981 -0.7384,-1.13831 1.3364,-3.21945 1.0237,-1.02703 1.9082,-1.67597 2.2863,-1.71823 z m 21.0388,3.48507 c 0.6475,0 1.6024,0.48072 2.8311,1.44177 l 1.9087,1.49344 -2.8639,0.0175 c -2.36,0.014 -2.8633,-0.25162 -2.8633,-1.51051 0,-0.96104 0.34,-1.44176 0.9874,-1.44176 z m 10.4477,0.0265 v 0 c 0.2778,-0.0143 0.6082,0.18859 1.1072,0.60253 0.662,0.54952 1.2036,1.22513 1.2036,1.50225 0,0.27689 -0.8591,0.57444 -1.9089,0.66146 -2.0334,0.16817 -2.3067,-0.30578 -1.1923,-2.06705 0.2874,-0.45464 0.5125,-0.68588 0.7904,-0.70022 z m -133.9311,0.11935 c 0.5392,-0.0452 1.1486,0.2875 2.327,0.95705 2.2453,1.27582 2.5472,1.28312 4.6123,0.11113 1.897,-1.07662 2.3616,-1.1022 3.2818,-0.1819 1.6127,1.61258 11.8724,3.54613 16.1992,3.05302 2.0589,-0.23468 5.1331,-1.1144 6.831,-1.9544 1.6981,-0.84021 3.2308,-1.38453 3.406,-1.20922 0.564,0.56409 -1.5423,8.29209 -3.4402,12.61991 -2.1375,4.87487 -4.8395,7.96436 -8.7042,9.95286 -2.4866,1.27931 -3.034,1.04169 -3.034,1.04169 -1.1745,-2.05343 -4.0606,-1.39311 -3.5388,0.90143 0,0 -1.165,0.29994 -3.8555,0.23194 -6.6175,-0.16539 -11.3583,-1.48228 -17.0693,-4.74028 -5.324,-3.03739 -5.642,-3.36833 -5.5298,-5.75622 0.1476,-3.1219 4.1309,-11.38703 6.6087,-13.71494 0.898,-0.84365 1.3669,-1.26683 1.9058,-1.31207 z m 119.9436,0.57724 v 0 c 0.6321,0.004 1.0247,0.37156 1.0247,1.10019 0,0.7882 -0.7736,1.1379 -2.4818,1.12088 -2.3476,-0.023 -2.4016,-0.0851 -0.9996,-1.14567 0.9546,-0.72215 1.8251,-1.08027 2.4567,-1.0759 z m 16.859,2.53421 c 0.7628,0.086 1.7319,1.46087 3.2681,4.58163 5.7645,11.70911 2.7231,24.59474 -6.9718,29.54083 -3.9528,2.0165 -4.1185,1.90974 -2.1026,-1.35236 0.9636,-1.55901 2.4773,-5.08175 3.3636,-7.82796 1.229,-3.8063 2.0982,-5.22978 3.6566,-5.9893 1.339,-0.6527 2.0439,-1.60454 2.0439,-2.76055 0,-2.13019 -2.5239,-5.51715 -4.6024,-6.17689 -0.829,-0.2631 -1.5074,-1.0999 -1.5074,-1.8588 0,-0.75898 -0.4995,-2.79776 -1.111,-4.53046 -1.1006,-3.1197 -1.0937,-3.15071 0.7012,-3.15071 0.9969,0 2.3233,-0.19579 2.9467,-0.43511 0.1016,-0.039 0.2061,-0.0526 0.3151,-0.0403 z m -27.4082,0.47543 c 0.9054,0 1.6383,0.0863 1.6383,0.19119 -0.011,0.10501 -0.5202,1.87788 -1.1457,3.93983 -0.6254,2.06179 -1.1374,4.72508 -1.1374,5.91849 0,1.9762 -0.2551,2.18085 -2.8633,2.29184 -2.7387,0.1169 -2.5697,0.80717 -0.2498,1.09763 1.1978,0.14994 2.3932,0.19015 2.3932,0.19015 0.034,0.46072 0.09,2.02965 0.3286,4.55269 0.2667,2.8108 0.6625,6.05541 0.88,7.21043 0.3847,2.04009 0.2963,2.10013 -3.0478,2.10013 -2.9834,0 -3.4803,-0.22956 -3.7102,-1.71826 -0.1463,-0.94488 0.08,-2.31267 0.5027,-3.03909 0.5609,-0.96318 0.4114,-1.92529 -0.5509,-3.5543 -2.0785,-3.51909 -1.6943,-5.8342 1.3539,-8.1592 3.1795,-2.42517 3.325,-3.52406 0.7364,-5.56037 l -1.9363,-1.52342 2.5813,-1.96887 c 1.4198,-1.08292 3.3216,-1.96887 4.227,-1.96887 z m 18.8124,0.38653 c 1.2703,-0.006 1.5981,0.49485 2.2757,2.1699 0.5355,1.32411 1.1983,3.35272 1.4718,4.50773 0.4199,1.7702 0.2525,2.10013 -1.0675,2.10013 -0.861,0 -1.7638,0.51567 -2.0056,1.14567 -0.2434,0.63469 -1.3777,1.14515 -2.5432,1.14515 -2.0322,0 -2.1217,-0.17246 -2.6225,-5.06016 -0.2741,-2.78291 -0.4175,-5.15234 -0.2961,-5.26582 0.1223,-0.11321 1.5425,-0.37973 3.156,-0.59274 0.6805,-0.0898 1.2081,-0.14793 1.6314,-0.14986 z m -14.9008,0.51781 v 0 c 0.2839,-0.0204 0.595,0.11885 0.948,0.39738 0.5426,0.42839 1.9325,1.0047 3.0874,1.28053 2.5961,0.62034 2.6345,1.52514 0.1902,4.43024 -1.0503,1.24798 -1.9095,2.93007 -1.9095,3.73774 0,1.16951 -0.5442,1.46865 -2.6725,1.46865 -3.0276,0 -3.0906,-0.21566 -1.8277,-6.26266 0.7297,-3.49073 1.3324,-4.99039 2.1838,-5.05188 z m 9.19,5.70249 v 2.80604 c 0,2.48401 -0.2196,2.80601 -1.9095,2.80601 -1.0766,0 -1.9089,-0.44154 -1.9089,-1.01232 0,-0.55682 0.8585,-1.81954 1.9089,-2.80604 z m -19.8107,1.02992 c 0.4456,0 0.5964,0.34387 0.3369,0.76377 -0.2593,0.42 -0.6223,0.76377 -0.8086,0.76377 -0.1852,0 -0.3371,-0.34377 -0.3371,-0.76377 0,-0.4199 0.3643,-0.76377 0.8088,-0.76377 z m -89.98,4.04211 c -1.6348,0.11203 -3.6899,2.35525 -3.143,3.79098 0.5924,1.54731 2.3543,1.55131 3.8939,0.0119 1.5629,-1.56163 1.5277,-3.09343 -0.084,-3.71192 -0.2077,-0.0797 -0.4329,-0.10697 -0.6665,-0.091 z m 122.2923,0.045 c 0.2135,-0.0469 0.5876,0.28265 1.2443,0.87696 1.8376,1.6629 1.9608,3.10671 0.3194,3.73671 -1.823,0.6995 -1.8468,0.66918 -1.8468,-2.32802 0,-1.54283 0.011,-2.22533 0.2831,-2.28565 z m -109.4449,0.37621 c -1.8235,0 -3.2584,1.43499 -3.2584,3.25821 0,1.10368 0.57,1.76818 2.1003,1.18338 1.2954,-0.49507 1.9426,-0.87167 2.3413,-2.34146 0.4289,-1.58086 -0.079,-2.10013 -1.1832,-2.10013 z m 106.8284,0.50075 0.021,3.2458 c 0.019,3.10999 -0.077,3.24527 -2.2974,3.24527 -1.2748,0 -3.1652,0.55521 -4.2008,1.23352 -1.7952,1.17679 -1.8817,1.1593 -1.8817,-0.3819 0,-0.90329 0.4892,-1.61539 1.1097,-1.61539 2.0603,0 4.7088,-1.63115 5.983,-3.68506 z m -11.0757,0.38187 c 0.6551,0 1.1906,0.3438 1.1906,0.7638 0,0.42008 -0.3236,0.76324 -0.7188,0.76324 -0.3953,0 -0.9314,-0.34316 -1.1907,-0.76324 -0.2598,-0.42 0.064,-0.7638 0.7189,-0.7638 z m 4.2902,0 c 0.8649,0 1.3605,0.3438 1.1007,0.7638 -0.2593,0.42008 -0.9673,0.76324 -1.5724,0.76324 -0.6057,0 -1.101,-0.34316 -1.101,-0.76324 0,-0.42 0.7078,-0.7638 1.5727,-0.7638 z m -15.5339,0.7638 h 3.0808 c 2.0738,0 3.2284,0.38547 3.5332,1.17975 0.2493,0.64905 1.66,1.68437 3.1361,2.30116 3.075,1.28479 3.4356,3.02885 1.3544,6.55206 -1.0898,1.84529 -1.1438,2.36464 -0.3,2.88613 0.7093,0.43839 0.7691,0.7965 0.1926,1.1529 -1.2012,0.74239 -9.2448,0.30654 -9.7615,-0.52917 -0.2387,-0.38629 -0.6144,-3.59145 -0.8348,-7.12256 z m -118.5164,6.6244 4.6834,2.36368 c 6.2267,3.1432 12.2655,4.63899 18.7317,4.63899 3.7983,0 4.7376,-0.37295 4.7376,-0.37295 2.7075,3.44855 5.3779,1.89029 4.0775,-1.2981 1.8558,-0.41066 3.1197,-1.14782 4.6204,-2.2869 v 5.69222 c 0,3.0362 -0.3461,6.26861 -0.471,7.23881 -0.1629,1.18986 -0.2558,1.88654 -0.3497,2.57453 -0.4205,-0.22201 -0.9478,-0.51908 -1.3007,-0.69453 -3.5703,-1.7758 -9.1242,-4.58578 -12.3542,-6.22133 -4.395,-2.22544 -11.2845,-4.06339 -18.2579,-4.21421 -1.0424,-0.0225 -2.079,0.0571 -3.1165,0.11782 -0.2087,-1.02095 -0.4506,-2.67454 -0.6001,-3.99923 z m 140.4146,1.19838 c 0.5824,0.0608 0.4913,0.62928 0.1728,2.22207 -0.2736,1.36909 -1.0573,3.70682 -1.8217,5.15369 l -1.6015,3.03136 c -0.4302,0.81444 -1.0176,0.61246 -2.422,-1.08006 -0.8554,-1.0301 -1.1411,-1.16477 -1.1411,-1.16477 2.2505,-0.253 3.8787,-0.12735 3.8385,-0.82426 -0.021,-0.37936 -1.6748,-0.40865 -3.8994,-0.73173 0,0 -0.2881,-0.29961 0.1111,-1.63761 0.712,-2.38303 2.6273,-4.11239 5.2298,-4.72065 0.5371,-0.12559 0.9427,-0.21687 1.2411,-0.24495 v 0 c 0.112,-0.0106 0.2088,-0.0119 0.2919,-0.003 z m -15.6811,0.69503 c -0.373,-0.005 -0.6564,0.41527 -0.6564,1.02785 0,0.69999 0.3699,1.14991 0.8213,0.99942 0.4516,-0.1505 0.821,-0.60042 0.821,-0.99942 0,-0.39909 -0.3694,-0.84859 -0.821,-0.9989 -0.056,-0.0188 -0.1114,-0.0282 -0.1649,-0.029 z m -19.6199,0.79119 c 0.3694,-0.009 0.9285,0.0913 1.6767,0.27902 1.4534,0.36481 2.1884,1.23251 2.7427,3.23962 0.4159,1.50788 0.6432,2.85612 0.5027,2.99566 -0.1397,0.13983 -1.5317,-1.1602 -3.0933,-2.88869 -2.336,-2.58609 -2.9371,-3.59812 -1.8288,-3.62561 z m 8.1302,5.72211 v 0 c 0.4079,0.003 0.936,0.041 1.6118,0.10541 2.0193,0.19249 3.1774,0.7194 3.407,1.5503 0.1913,0.69228 0.5705,2.03208 0.8417,2.97707 0.6162,2.1414 0.031,2.13669 -3.809,-0.0336 -1.7047,-0.96329 -3.1535,-2.40242 -3.2768,-3.25615 -0.1471,-1.01367 0,-1.34842 1.2253,-1.34358 z m 8.5468,0.54674 c 0.6855,-0.0257 1.6251,0.0537 2.8596,0.18396 2.4151,0.2549 4.4728,0.53195 4.5731,0.61495 0.1,0.0833 -0.2511,1.64713 -0.7806,3.47525 -0.5291,1.82811 -1.2985,3.38735 -1.7094,3.46337 -2.358,0.44018 -4.2992,-0.73219 -5.3412,-3.22618 -1.4266,-3.4146 -1.6581,-4.43468 0.3985,-4.51135 z m 9.5755,1.63814 c 0.042,-0.005 0.087,-0.003 0.136,0.0124 0.2363,0.066 0.5668,0.34822 1.0758,0.80873 1.8447,1.6687 2.0032,4.30636 -0.05,4.84621 l -0.9551,0.25117 c -2.4556,0.64556 -2.3871,0.72771 -1.7968,-0.79737 0.2847,-0.73501 0.7104,-2.29344 0.9464,-3.46337 0.2233,-1.10681 0.3516,-1.62034 0.6437,-1.65778 z m -126.8997,0.23513 c 1.6216,-0.0284 3.5809,0.0906 5.2509,0.36793 4.0579,0.67424 4.5133,1.70117 1.8598,4.19407 -1.6658,1.5126 -3.573,1.69921 -6.4482,0.64855 -0.8448,-0.46911 -1.9206,-1.49397 -2.7384,-2.47221 -0.1426,-0.6776 -0.2474,-1.45053 -0.4366,-2.49701 0.5974,-0.13745 1.4685,-0.22304 2.5125,-0.24133 z m 13.6758,2.97294 c 0.1754,0.0175 0.3643,0.0956 0.5749,0.22895 1.8579,1.17609 -1.3972,6.14349 -5.4155,8.17623 -3.1578,1.59745 -6.8236,1.29143 -9.9322,-0.51057 -0.034,-0.42812 -0.075,-0.89572 -0.075,-1.15239 0,-0.48276 -0.2069,-1.32715 -0.3699,-2.15024 4.2545,3.89268 11.2462,3.08086 13.7822,-2.95074 0.5035,-1.19764 0.9086,-1.69328 1.4351,-1.64124 z m -27.8408,1.8986 c 0.7183,2.87348 1.8629,8.58089 2.2294,13.83276 0.6077,8.71569 2.7048,14.8916 5.0564,14.8916 1.2597,0 2.7906,-2.9033 4.1196,-7.81349 1.3658,-4.09663 1.7523,-5.73241 1.7793,-10.99675 3.3769,1.60846 7.2909,1.99017 10.8635,0.50797 2.6237,-1.08844 5.9405,-4.66013 6.69,-6.58873 0.942,-2.423 1.7431,-2.14725 3.3311,1.14567 1.4288,2.96289 2.5919,17.22001 1.6793,19.59827 0,0 -0.8929,-1.30294 -3.3316,-3.31298 -5.9087,-4.87047 -8.383,-1.98178 -3.7975,4.43333 1.3866,1.9403 3.1654,4.43807 3.4618,4.92787 0,0 -1.5801,0.94538 -5.0229,2.07687 -2.8382,0.93261 -20.3422,7.30697 -24.6488,8.59743 -3.0422,-3.38461 -4.4337,-13.22578 -2.6033,-22.39709 1.3465,-11.29162 1.0925,-12.96924 -1.9642,-12.96924 -2.3921,0 -3.2145,2.12757 -4.3559,11.25977 -0.9628,7.99822 -2.0566,20.20366 2.616,26.55858 -4.9702,1.96318 -8.6937,2.98789 -13.343,4.76975 -0.5246,0.1877 -0.9578,0.0467 -0.9358,-0.31316 0.1736,-6.2784 1.6788,-19.42121 2.6593,-23.2115 2.8168,-10.89141 8.4294,-19.94053 15.4951,-24.98143 0.01,-0.006 0.013,-0.01 0.021,-0.0156 z m 40.4281,6.69673 c 0.2032,0 1.5375,0.75343 3.3631,1.84693 -0.303,0.64116 -0.7051,1.47489 -1.3224,2.84943 -0.8133,1.81089 -1.447,3.09935 -1.7746,2.82207 -0.086,-1.55218 -0.1878,-3.05567 -0.3291,-3.89072 -0.3495,-2.06272 -0.3223,-3.62768 0.063,-3.62771 z m 6.3354,3.68507 c 6.4095,3.96372 15.3281,9.75156 15.4358,10.21281 -3.3927,1.95011 -16.0388,5.38099 -19.8257,7.05951 -1.4725,0.43926 -1.6312,0.11226 -1.5529,-4.93509 0.3146,-2.04663 0.8829,-3.98341 1.401,-4.57388 0.6069,-0.6917 1.8441,-2.73069 2.7493,-4.53049 0.5884,-1.17078 1.2305,-2.4049 1.7925,-3.23286 z m 78.8448,3.33571 c 0.1617,-0.006 0.3072,-0.003 0.4392,0.008 0.8803,0.0748 1.1597,0.54568 1.5939,1.68775 0.9204,2.42099 3.2485,2.59075 4.7392,0.3457 l 1.0816,-1.62935 4.5479,2.20247 c 3.3049,1.60007 4.5482,2.61906 4.5482,3.72896 0,1.38951 -0.5511,1.53955 -6.1092,1.65417 -5.8092,0.12039 -16.8934,-1.29498 -18.6521,-2.38178 -2.5932,-1.60279 0.5927,-4.52765 5.8544,-5.37435 0.843,-0.1356 1.4722,-0.22431 1.9569,-0.24132 z m -58.3896,10.78997 c 0,0 4.8808,3.79873 7.5639,6.16913 -1.2316,-0.36526 -2.155,-1.21513 -4.0851,-2.16268 -1.541,-0.75639 -2.7644,-0.68461 -13.7248,3.03289 -6.6905,2.2692 -11.7805,3.91234 -11.7805,3.92536 -1.2018,-1.35877 -1.8929,-2.02033 -2.8552,-2.86599 0.3853,-0.32081 21.7657,-7.22794 24.8817,-8.09871 z m 52.0959,5.95775 c -1.6613,0.0909 -3.343,1.18108 -4.056,3.08407 -0.2614,0.69828 -0.1961,4.99356 0.1452,9.54566 0.548,7.31089 0.9205,8.83192 3.1957,13.03692 4.2405,7.83754 6.7982,5.945 6.7521,-5.0007 -0.032,-8.08138 -1.2612,-16.83957 -2.6619,-18.97767 -0.8028,-1.22512 -2.0831,-1.75895 -3.3751,-1.68828 z m -49.3053,0.24495 5.8557,3.07632 c 5.8389,3.06705 5.8846,3.63077 5.8846,3.63077 -0.2667,3.89469 0.7284,6.77092 0.9105,7.32462 0.2148,0.65209 -1.3116,1.63425 -4.3326,2.78794 -6.9379,2.6493 -9.748,4.24468 -8.926,5.06687 1.0179,1.0178 13.2914,-4.78253 15.1742,-7.17629 1.0051,-0.0478 1.525,-1.68833 1.9917,-2.38797 l 1.5058,3.04115 c 0.7831,1.58181 1.32,2.93137 1.216,2.98637 -0.1032,0.055 -3.715,1.58253 -8.0253,3.39464 -7.9026,3.32171 -9.3007,4.25614 -8.0952,5.40795 0.727,0.69477 19.3127,-7.88377 20.3123,-9.37567 0.3434,-0.5134 0.4432,-1.964 0.2201,-3.22408 l -0.4056,-2.29135 1.9675,2.48203 c 2.1722,2.74029 4.4201,3.19913 5.6099,1.14567 0.7208,-1.24441 1.0232,-1.20102 4.3852,0.63199 1.9863,1.08291 3.7277,2.31664 3.8685,2.74145 0.3514,1.05437 -35.2057,14.3459 -36.7707,13.7454 -0.8927,-0.3428 -2.2125,-1.20923 -2.2125,-1.20923 2.5649,-1.41573 0.3659,-3.2499 -2.2952,-1.78956 0,0 -2.2784,-0.95393 -3.2031,-2.21639 2.6763,-1.11829 0.7856,-2.72772 -1.8097,-1.5322 -0.8994,-1.2424 -1.6389,-1.33289 -2.6004,-2.37609 2.0746,-1.06958 -1.3078,-2.45525 -2.8627,-1.16478 -0.6194,0.51369 -1.9053,1.38317 -2.4355,1.17975 -0.5969,-0.22899 -1.0073,0.32994 -1.0766,1.46815 -0.087,1.42849 2.2778,0.55383 3.3192,0.22323 l 2.4852,2.22933 c -2.2016,1.05785 -1.5994,2.61921 1.724,1.74458 0,0 0.8493,0.43635 1.6701,1.04595 1.2597,0.93559 1.4427,1.2025 1.4427,1.2025 -2.5489,1.72101 -0.6281,2.50717 2.3265,1.49707 0,0 3.066,1.87817 0.4006,2.92642 -0.9903,0.38963 -5.0601,1.97763 -9.0434,3.52899 -3.9834,1.5514098 -17.6713,6.1617498 -22.669,8.0883898 -2.7379,1.05574 -2.7075,1.46849 -5.4306,0.16849 -4.1042,-1.62139 -32.508,-16.1274098 -37.3811,-19.0996098 -3.2578,-1.98726 -3.0729,-1.14708 0.3818,-2.88303 1.5658,-0.75872 9.3599,-4.38592 12.5748,-5.3666 0,0 0.3302,-0.0786 2.8729,1.04127 3.8843,1.7109 17.7014,1.63367 21.6596,-0.12092 2.595,-1.1503 3.8139,-1.20583 10.1261,-0.46146 6.073,0.71628 8.8495,-1.29172 11.9502,-2.30581 0,0 2.4397,1.44539 4.2275,1.19372 2.8199,-0.39696 2.0867,-0.96777 -0.8848,-3.82508 -0.4863,-1.90686 -1.469,-5.56361 -2.068,-6.43528 -0.7442,-1.08236 -2.6966,-1.33562 -4.9435,-1.96731 l 5.1041,-1.87843 c 3.5071,-1.33342 8.6101,-3.20916 11.3401,-4.16875 z m 83.6448,1.43352 c -2.4077,0.13486 -12.329,4.99626 -18.3507,9.07645 -4.5281,3.06848 -4.9858,3.62535 -5.2107,6.34534 -0.1749,2.11511 0.1244,3.25279 1.0295,3.91449 1.3872,1.01459 1.8923,0.87204 7.6848,-2.16885 10.8932,-5.71902 19.558,-15.46754 15.2255,-17.13023 -0.09,-0.0347 -0.218,-0.0462 -0.3784,-0.0372 z m -35.3491,0.894 c 0.3069,0.023 0.6993,0.21698 1.1792,0.57568 1.1555,0.8632 2.7753,8.43182 2.821,13.17593 0.011,1.0949 -0.5254,1.55866 -1.8939,1.63764 -1.7724,0.10221 -1.9134,-0.14449 -1.9544,-3.43649 -0.024,-1.95072 -0.335,-5.26473 -0.6895,-7.36494 -0.5371,-3.18495 -0.3832,-4.65648 0.5376,-4.58782 z m -82.8807,1.73736 c 0,0 0.9726,0.98914 1.1565,1.51413 0.2135,0.60682 -0.3959,0.95446 -1.6733,0.95446 -1.1385,0 -2.7381,1.51389 -3.6975,2.54918 0,0 -4.3757,1.30908 -10.7606,3.69435 -4.7321,1.76771 -6.7972,2.44361 -8.4656,2.74711 -1.5211,0.23162 -5.3179,-1.40102 -6.0246,-1.7854 0,0 26.2144,-9.52963 29.4651,-9.67383 z m 115.4999,0.54467 c 0.254,0.0302 0.4164,0.16068 0.4164,0.37568 0,1.03521 -1.3573,1.67775 -1.8521,0.87696 -0.2365,-0.3828 0.083,-0.8931 0.7112,-1.13379 0.1569,-0.0602 0.3064,-0.0982 0.4427,-0.11523 0.1024,-0.0127 0.1971,-0.0137 0.2818,-0.004 z m -3.0139,2.28253 c 0.7538,-0.0351 1.139,0.32787 1.139,1.09453 0,0.4055 -2.7763,2.64999 -6.1701,4.98779 -3.3935,2.3377 -6.2746,4.2504 -6.4024,4.2504 -0.1275,0 -0.4032,-0.65299 -0.6111,-1.45108 -0.2935,-1.1222 0.9059,-2.34839 5.2948,-5.41258 3.2163,-2.24581 5.4941,-3.41048 6.7498,-3.46906 z m -72.5019,4.47106 c -1.4886,-0.12432 -15.779,7.42194 -15.3273,8.15248 0.5135,0.83129 5.9216,-1.18163 11.2572,-4.18994 3.6309,-2.0473 4.8789,-3.22062 4.1733,-3.92584 -0.021,-0.0204 -0.055,-0.0327 -0.1032,-0.0367 z m -45.0882,1.67897 c -0.7287,0.74065 -0.041,2.55088 -1.505,2.53474 -0.3489,-0.004 -1.8359,0.67873 -4.4979,0.75136 l -5.4295,0.14832 z m 102.7311,3.55791 c 0.4122,-0.0241 0.7244,0.36123 0.7244,0.9431 0,0.66501 -0.5437,1.20923 -1.2086,1.20923 -1.3488,0 -1.1136,-1.64425 0.3024,-2.11614 0.062,-0.0209 0.1228,-0.0327 0.1818,-0.0362 z m -10.6278,3.75946 c 0.5308,0.0413 0.68,0.40579 0.5308,1.17824 -0.1479,0.76838 -0.898,1.51826 -1.6661,1.66603 -1.0086,0.19431 -1.3227,-0.11877 -1.1282,-1.12757 0.1484,-0.76841 0.898,-1.51824 1.6666,-1.66606 0.1259,-0.0243 0.2413,-0.041 0.3458,-0.0491 0.092,-0.007 0.1754,-0.007 0.2511,-0.003 z m -116.8786,19.21073 c 0.03,-0.0461 0.4453,0.15008 1.2702,0.54984 0.9451,0.45809 1.7188,0.99274 1.7188,1.1880298 0,0.5842 -0.3964,0.41529 -1.9545,-0.8330198 -0.7117,-0.57025 -1.0652,-0.85873 -1.0345,-0.90485 z m -29.0674,0.75499 c -2.1627,0.004 -2.0857,1.0699298 -6.5352,5.6032698 -13.1572,14.35304 -12.8101,13.31238 -13.0911,19.4417102 -0.2352,5.12475 -1.6923,4.81926 3.003,6.38824 1.7825,0.65929 11.66,3.7557 21.9504,6.88072 10.2904,3.12516 19.9133,6.21216 21.3834,6.86057 1.47,0.6486 3.1885,1.10273 3.8182,1.00873 0.6302,-0.0937 2.6924,-3.12106 4.5823,-6.72725 3.5621,-6.79579 8.0349,-14.08245 9.7208,-15.8352 0.5336,-0.55505 0.9705,-2.66338 0.9705,-4.6844802 0,-3.30951 0.9064,-4.19849 -1.8055,-6.64869 -1.6563,-1.49640003 -5.5259,-2.82202 -7.1247,-3.25511 -1.5989,-0.43299 -8.5773,-2.35011 -15.5075,-4.26019 -6.9305,-1.91011 -15.5869,-4.2517498 -18.2047,-4.5113598 -1.4695,-0.14573 -2.4389,-0.26228 -3.1599,-0.26096 z m 0.9424,3.7005498 c 2.1947,0.0316 6.0598,1.01213 13.5565,3.28919 6.0865,1.84872 19.0799,5.61567 23.1746,6.76444 2.1336,0.60389 3.5888,0.20828 1.6041,3.47938 -1.1572,1.90876 -7.8716,13.1610402 -9.7628,15.8016302 -2.1172,2.95682 -1.1689,2.94576 -4.5106,1.23661 -3.328,-1.63703 -21.3172,-6.91015 -39.3637,-11.54864 -2.1248,-0.54615 -3.2721,-0.87334 -1.484,-2.8933802 4.224,-4.77163 14.2036,-15.30792 14.6436,-15.6166 0.4919,-0.34523 1.1446,-0.527 2.1423,-0.51263 z m 92.6346,4.3806 c -0.8252,-0.003 -1.6121,0.10945 -2.3362,0.3416 -3.243,1.03981 -8.7824,6.56981 -8.7824,8.76742 0,4.2098902 3.7905,8.2986302 9.7044,10.4691102 5.0922,1.86891 7.2864,1.48648 11.1895,-1.94924 3.1652,-2.78609 3.5438,-3.46448 3.5438,-6.3468802 0,-3.43532 -0.9898,-4.93405 -5.5144,-8.34884003 -2.5072,-1.89195997 -5.3287,-2.92610997 -7.8047,-2.93316997 z m -27.2777,0.30231 c 0.1164,-0.0122 0.1974,-0.0114 0.2381,0.003 0.3244,0.11354 -2.1217,1.26307 -5.4353,2.55436997 -5.3986,2.10349003 -6.209,2.23652003 -7.7984,1.28312003 -1.0033,-0.60150003 -1.1832,-0.88159003 -0.4146,-0.64439003 0.7477,0.23072 3.9915,-0.43966 7.2089,-1.48984 2.8149,-0.91881997 5.3853,-1.62072997 6.2013,-1.70581997 z m 27.6902,2.11822997 c 2.731,0 9.0313,3.81262003 9.0641,5.48441003 0.013,0.70639 -0.9737,1.9952 -2.1937,2.8639 -1.2197,0.86871 -2.6807,1.542 -3.2459,1.49501 -1.7938,-0.14711 -10.8497,-4.17711 -11.068,-4.92528 -0.3596,-1.23362 5.2165,-4.91804003 7.4435,-4.91804003 z m -7.9375,8.03568003 v 0 c 0.5403,-0.004 1.6285,0.41924 3.3377,1.24643 5.1187,2.4776102 9.2578,2.7126702 12.1031,0.68678 3.2457,-2.31209 3.1282,-0.33409 -0.1714,2.8639002 -1.3854,1.34242 -3.1898,2.4229 -4.0095,2.40091 -2.9229,-0.0779 -9.5758,-3.16966 -10.7815,-5.0100502 -0.9631,-1.47015 -1.1745,-2.18254 -0.48,-2.18797 z m -44.6072,0.96737 c 0.2223,-0.0476 0.3329,0.26292 0.4162,0.85008 0.1699,1.2003902 -0.7874,3.3191202 -2.7683,6.1283102 -1.6658,2.3614 -4.4492,7.12015 -6.1862,10.57508 -1.737,3.45477 -3.4126,6.24668 -3.723,6.20167 -1.8023,-0.2558 -20.2192,-6.68372 -19.2741,-6.72671 0.6305,-0.029 4.5493,0.81409 8.709,1.87378 4.1601,1.0597 7.9405,1.78273 8.4006,1.60663 1.4504,-0.5551 -6.2812,-3.6154 -13.1678,-5.21208 -12.3277,-2.85822 -29.9067,-7.80598 -29.9067,-8.41759 0,-0.927 0.7131,-0.79238 9.2557,1.75183 4.3601,1.29831 11.3636,3.2031 15.5636,4.2323 9.321,2.28391 18.0401,4.89702 19.159,5.74281 1.3687,1.0342 4.1804,-2.77069 11.0908,-15.00838 1.3803,-2.4444602 2.0608,-3.5183802 2.4312,-3.5977302 z m 18.6796,5.2244902 c -2.8535,-0.0212 -3.3652,0.28946 -4.0973,1.72911 -1.683,3.3097 -0.3098,4.83864 6.7254,7.48945 3.5698,1.34469 9.0334,3.13431 12.1431,3.97703 4.2241,1.1448 7.9134,1.51966 14.5899,1.48466 10.1756,-0.0542 12.3677,-0.80314 10.024,-3.42564 -3.6393,-4.0726 -26.8049,-10.91523 -38.0111,-11.22773 -0.5109,-0.0143 -0.9662,-0.0238 -1.374,-0.0269 z m -1.6346,1.99419 c 0.212,-0.003 0.5001,0.0629 0.8676,0.2186 2.0349,0.86249 15.2392,4.08041 20.619,5.02502 2.6249,0.46098 4.7614,1.06042 4.7614,1.3322 -0.049,2.06164 -1.738,1.99896 -12.2068,-0.45164 -6.0904,-1.42571 -11.8467,-3.09237 -12.7915,-3.70417 -1.6614,-1.0755 -2.1688,-2.40469 -1.2497,-2.42001 z m -74.1635,2.24483 c 0.8398,-0.0122 2.7305,0.44117 4.2003,1.00717 3.4406,1.3254 1.3338,1.34199 -2.6726,0.0217 -1.6809,-0.5538 -2.368,-1.01539 -1.5277,-1.02835 z m 106.3228,5.3661 c 0.4006,-0.007 1.0044,0.30877 1.537,0.84127 1.3803,1.3803 0.554,1.73278 -1.3049,0.55708 -0.6178,-0.39079 -0.8673,-0.96621 -0.5546,-1.279 0.078,-0.0782 0.1889,-0.11695 0.3225,-0.11935 z" fill="#00B894" transform="translate(-58.37919,-52.299348) translate(-2172.2369,203.12567)"/>
</svg>