<?xml version="1.0" ?><!-- Created with Inkscape (http://www.inkscape.org/) --><svg height="198.79709mm" id="svg111476" inkscape:version="1.1.2 (08b2f3d93c, 2022-04-05)" sodipodi:docname="homework_6.svg" version="1.1" viewBox="0 0 234.10857 198.79709" width="234.10857mm" xmlns="http://www.w3.org/2000/svg" xmlns:inkscape="http://www.inkscape.org/namespaces/inkscape" xmlns:sodipodi="http://sodipodi.sourceforge.net/DTD/sodipodi-0.dtd" xmlns:svg="http://www.w3.org/2000/svg">
  <sodipodi:namedview bordercolor="#666666" borderopacity="1.0" id="namedview111478" inkscape:current-layer="layer1" inkscape:cx="953.01168" inkscape:cy="253.88532" inkscape:document-units="mm" inkscape:pagecheckerboard="0" inkscape:pageopacity="0.0" inkscape:pageshadow="2" inkscape:window-height="1016" inkscape:window-maximized="1" inkscape:window-width="1866" inkscape:window-x="54" inkscape:window-y="27" inkscape:zoom="0.66368547" pagecolor="#ffffff" showgrid="false"/>
  <defs id="defs111473"/>
  <g id="layer1" inkscape:groupmode="layer" inkscape:label="Capa 1" transform="translate(146.95359,-81.193397)">
    <g id="g108636" style="display:inline" transform="translate(-1786.3286,213.00326)">
      <path d="m 15636.01,4273.1211 c -56.013,-0.1968 -116.252,35.326 -116.557,119.6465 -0.309,85.6589 90.847,91.9976 98.508,92.7636 91.311,2.5072 97.81,-63.0966 104.543,-111.4277 6.732,-48.3311 -27.082,-99.5969 -83.83,-100.9453 -0.887,-0.021 -1.775,-0.034 -2.664,-0.037 z m 390.271,64.5371 -16.349,1.1563 c 0,0 -91.973,10.996 -91.743,87.4101 0.233,76.4141 61.667,104.7378 81.836,113.0313 36.63,5.1639 85.14,-10.7976 108.381,-43.1368 23.241,-32.3387 11.186,-80.3254 -7.418,-112.7168 -18.605,-32.3913 -74.707,-45.7441 -74.707,-45.7441 z m -459.558,163.9238 c -44.094,-0.6934 -97.065,32.6253 -113.793,64.7852 -18.46,35.4871 -25.015,93.8779 -22.284,145.1914 v 0 c 0,0 -30.584,20.8416 -49.481,29.4922 -18.896,8.6506 -97.432,38.8278 -112.068,54.3594 -14.637,15.5315 -4.042,87.9809 18.133,109.6074 22.172,21.6261 113.706,116.9787 298.302,112.1621 184.597,-4.817 279.078,-72.1532 315.78,-135.0664 36.701,-62.9129 119.386,-94.4687 205.677,-156.8906 86.29,-62.4216 -11.797,-145.9783 -69.142,-162.6895 -57.345,-16.7116 -115.892,-2.7528 -138.284,3.9316 -22.39,6.6845 -253.519,72.6465 -253.519,72.6465 0,0 12.141,-64.8796 0.258,-89.3672 -11.882,-24.4871 -20.137,-37.869 -66.231,-46.8144 -4.321,-0.8386 -8.786,-1.2759 -13.347,-1.3477 z" fill="#00B894" id="path105620" style="fill:#ffffff;stroke-width:5.00001;paint-order:markers stroke fill;stop-color:#000000" transform="matrix(0.26458333,0,0,0.26458333,-2398.7881,-1260.5215)"/>
      <path d="m 1736.2926,-131.80491 c -2.4842,-0.0336 -4.7871,0.10359 -6.5154,0.41651 -12.8474,2.32598 -28.3594,12.59829 -23.6233,40.544299 2.591,15.29098 16.4571,18.76568 31.2661,19.36366 2.1214,0.0857 5.3776,-0.68471 5.3776,-0.68471 1.6539,2.8009 6.4077,4.32662 5.071,-1.4459 0,0 1.1285,-0.29974 3.1864,-1.65674 5.7457,-3.78941 10.1735,-13.45658 11.7438,-25.639259 1.6497,-12.79761 -2.6699,-23.25979 -11.6591,-28.23858 -3.039,-1.68336 -9.3822,-2.58535 -14.8471,-2.65928 z m 2.6514,3.47732 c 9.5509,0.12498 16.1393,4.82372 18.8764,12.53254 2.6019,7.32761 1.8616,17.527219 -1.9529,26.913629 -2.0047,4.87264 -4.3275,8.83049 -9.6401,11.27061 -2.9358,-3.65474 -4.3667,1.10072 -4.3667,1.10072 -9.366,2.6901 -27.9035,-0.50477 -31.2256,-15.73548 -4.5841,-21.016409 7.0115,-34.467109 25.2508,-35.972489 1.0504,-0.0867 2.0701,-0.12247 3.0581,-0.10953 z m 102.0341,8.97979 c -2.2651,0.0217 -2.8839,0.84617 -1.4507,2.42983 1.7696,1.95519 0.8221,2.54027 -5.8242,3.59617 -7.1996,1.14382 -11.8915,4.06815 -15.5528,7.72924 -7.7113,7.711309 -10.1415,20.802389 -4.2248,32.827969 2.3296,4.73477 7.88,9.51246 13.3305,12.01425 4.1409,1.90082 5.712,2.26274 5.2728,4.00804 -0.2648,1.05399 -0.6715,2.86126 -0.9038,4.01627 -0.3842,1.91109 -0.7265,2.10066 -3.8028,2.10066 -1.8844,0 -4.7181,0.68236 -6.4043,1.54255 -2.6019,1.32749 -3.0242,1.89502 -3.0242,4.06693 0,4.48697 2.97,6.01972 14.8913,7.68324 1.2602,0.1756 4.8429,0.19984 7.9621,0.0532 8.3802,-0.39359 11.9383,-3.75957 8.8905,-8.41086 -1.6211,-2.4742 -4.7122,-3.97785 -9.4779,-4.61005 -5.2403,-0.69511 -5.4475,-2.53701 -0.2291,-2.03552 8.0627,0.77467 18.5656,-2.95608 24.6436,-8.75347 3.7441,-3.57154 4.5728,-4.91718 6.3867,-10.37508 4.2739,-12.85881 1.6436,-27.15006 -6.6529,-36.150769 -4.9414,-5.36082 -10.1724,-8.78488 -15.7456,-10.30739 -3.5647,-0.97362 -6.3225,-1.4422 -8.0844,-1.42524 z m 3.1806,3.81011 c 4.8159,0 15.5067,6.66192 19.8308,12.35842 6.9067,9.097909 7.7713,23.732469 2.0254,34.289369 -3.1475,5.78278 -6.8549,8.70492 -13.7756,10.85776 -7.3662,2.29126 -16.407,3.27773 -15.8112,1.72545 0.2715,-0.70871 2.2463,-1.12636 6.2635,-1.32445 17.7657,-0.87619 29.0822,-16.36575 24.2146,-33.14475 -3.1154,-10.738989 -10.2041,-18.427749 -20.0601,-21.757849 -3.6605,-1.23672 -5.242,-3.00395 -2.6874,-3.00395 z m -6.9855,4.58163 h 1.8613 l -1.8939,2.8639 c -1.0416,1.5751 -2.2831,3.98095 -2.7585,5.34594 -0.4755,1.36511 -1.3462,2.48203 -1.9352,2.48203 -1.302,0 -1.1893,0.303259 -1.3798,-3.68454 -0.1344,-2.8031 0.1738,-3.58224 2.0429,-5.15472 1.211,-1.01891 3.0395,-1.85261 4.0632,-1.85261 z m 3.3253,0.63251 c 0.486,0.0507 0.7813,1.13393 1.184,3.28094 0.4625,2.46611 0.3291,2.79723 -1.2671,3.14193 -0.9814,0.2118 -2.3855,0.63783 -3.1208,0.94671 -1.8447,0.77562 -1.6645,-0.14539 0.8729,-4.45501 1.1676,-1.98315 1.8446,-2.96529 2.331,-2.91457 z m 3.0577,0.13126 c 0.8189,0 2.4128,1.21232 3.5431,2.69391 1.1295,1.48162 1.9216,2.77262 1.7568,2.87063 -0.1635,0.0969 -1.3872,0.0676 -2.7196,-0.0651 -1.9236,-0.1918 -2.5924,-0.72766 -3.246,-2.60244 -1.0519,-3.01749 -1.0789,-2.89698 0.6657,-2.89698 z m -11.8395,0.17622 c 0.3685,-0.0172 0.055,0.35785 -0.998,1.28727 -0.9914,0.87522 -2.7096,1.58033 -3.8182,1.56734 -1.9371,-0.0233 -1.9582,-0.0681 -0.5334,-1.14567 0.8154,-0.61672 1.9044,-1.12138 2.4196,-1.12138 0.5154,0 1.5666,-0.20074 2.3362,-0.44596 0.2723,-0.0868 0.471,-0.13591 0.5938,-0.1416 z m 17.2175,1.43301 c 0.4987,0.008 1.8991,0.87638 4.4159,2.61016 0.1143,0.0792 -0.01,0.70888 -0.2731,1.39888 -0.6876,1.79139 -1.243,1.53549 -3.1464,-1.45055 -1.0914,-1.71209 -1.4949,-2.56609 -0.9964,-2.55849 z m -24.6269,1.86446 v 0 c 0.1262,-0.014 0.1958,0.0392 0.1958,0.16849 0,0.51699 0.5154,0.93998 1.1451,0.93998 1.9129,0 1.3105,1.35912 -2.286,5.15732 -3.6031,3.804809 -4.181,5.742669 -2.3225,7.795889 0.9816,1.08638 0.9779,1.50492 -0.033,3.45355 -0.9239,1.78046 -0.9935,2.94791 -0.3551,5.92521 0.4374,2.03941 0.7954,4.03495 0.7954,4.43434 0,0.86852 -0.4901,0.84513 -3.2214,-0.15346 -2.5249,-0.92329 -3.3131,-4.09823 -2.5921,-10.45104 0.7499,-6.6094 2.7337,-11.575569 4.6281,-11.591549 1.2875,-0.01 1.3629,-0.14171 0.4218,-0.74105 -0.9576,-0.60978 -0.7385,-1.13831 1.3361,-3.21942 1.0239,-1.02703 1.9082,-1.676 2.2863,-1.71826 z m 21.0391,3.48507 c 0.6472,0 1.6023,0.48075 2.8308,1.44176 l 1.909,1.49347 -2.8642,0.017 c -2.36,0.014 -2.8633,-0.25162 -2.8633,-1.51051 0,-0.96104 0.3403,-1.44176 0.9877,-1.44176 z m 10.4473,0.0264 v 0.001 c 0.2779,-0.0143 0.6086,0.18862 1.1073,0.60256 0.6623,0.54952 1.2036,1.22513 1.2036,1.50223 0,0.27688 -0.8588,0.57444 -1.909,0.66146 -2.033,0.16819 -2.3063,-0.30578 -1.1919,-2.06706 0.2871,-0.45461 0.5122,-0.68588 0.79,-0.70022 z m -13.9872,0.69659 v 5.3e-4 c 0.6319,0.004 1.0248,0.37156 1.0248,1.10019 0,0.7882 -0.7739,1.13787 -2.4821,1.12086 -2.3476,-0.023 -2.4013,-0.0851 -0.9993,-1.14567 0.9543,-0.72216 1.8248,-1.08027 2.4566,-1.07591 z m 16.8588,2.534239 c 0.7628,0.086 1.7319,1.46087 3.2681,4.58163 5.7645,11.70911 2.7234,24.59474 -6.9718,29.54083 -3.9528,2.0165 -4.1185,1.90971 -2.1026,-1.35239 0.9636,-1.559 2.4773,-5.08172 3.3636,-7.82794 1.229,-3.80629 2.0982,-5.22978 3.6566,-5.98929 1.3393,-0.6527 2.0439,-1.60456 2.0439,-2.76056 0,-2.13018 -2.5236,-5.51717 -4.6024,-6.17688 -0.8287,-0.2631 -1.5074,-1.0999 -1.5074,-1.8588 0,-0.75899 -0.4995,-2.79779 -1.111,-4.53049 -1.1006,-3.1197 -1.0937,-3.15071 0.7012,-3.15071 0.9972,0 2.3233,-0.19579 2.9467,-0.43511 0.1016,-0.039 0.2061,-0.0526 0.3151,-0.0403 z m -27.408,0.4754 c 0.9055,0 1.6381,0.0863 1.6381,0.19121 -0.01,0.10502 -0.5202,1.87788 -1.1457,3.93981 -0.6254,2.06179 -1.1374,4.72511 -1.1374,5.91852 0,1.9762 -0.2548,2.18082 -2.8633,2.29184 -2.7387,0.1169 -2.5697,0.80661 -0.2498,1.09707 1.1978,0.14994 2.3932,0.19018 2.3932,0.19018 0.034,0.46072 0.09,2.03018 0.3288,4.55322 0.2665,2.8108 0.6623,6.05539 0.88,7.2104 0.3847,2.04009 0.2961,2.10013 -3.048,2.10013 -2.9834,0 -3.4798,-0.22953 -3.7102,-1.71823 -0.1463,-0.94488 0.08,-2.31267 0.5027,-3.03909 0.5609,-0.96319 0.4114,-1.92529 -0.5509,-3.5543 -2.0785,-3.51909 -1.6944,-5.8342 1.3539,-8.1592 3.1795,-2.42519 3.3253,-3.52409 0.7366,-5.56037 l -1.9365,-1.52345 2.5813,-1.96887 c 1.4198,-1.08291 3.3218,-1.96887 4.2272,-1.96887 z m 18.8122,0.38656 c 1.2703,-0.006 1.5983,0.49482 2.2759,2.16987 0.5355,1.32413 1.1983,3.35275 1.4716,4.50773 0.4199,1.77022 0.2525,2.10013 -1.0675,2.10016 -0.861,0 -1.7638,0.51565 -2.0056,1.14565 -0.2434,0.6347 -1.3774,1.14517 -2.5429,1.14517 -2.0323,0 -2.1217,-0.17249 -2.6226,-5.06016 -0.2743,-2.78291 -0.4177,-5.15236 -0.2963,-5.26584 0.1223,-0.11322 1.5425,-0.37971 3.156,-0.59272 0.6805,-0.0898 1.2081,-0.14793 1.6314,-0.14986 z m -14.9008,0.51779 h 5e-4 c 0.2839,-0.0204 0.5948,0.11887 0.9478,0.3974 0.5429,0.42839 1.9325,1.00465 3.0876,1.28053 2.5959,0.62032 2.6342,1.52511 0.19,4.43021 -1.0504,1.24801 -1.9092,2.93008 -1.9092,3.73777 0,1.16951 -0.5445,1.46865 -2.6728,1.46865 -3.0277,0 -3.0906,-0.21566 -1.8278,-6.26266 0.7297,-3.49076 1.3327,-4.99039 2.1839,-5.0519 z m 9.19,5.70248 v 2.80604 c 0,2.48401 -0.2196,2.80604 -1.9095,2.80604 -1.0766,0 -1.9087,-0.44154 -1.9087,-1.01235 0,-0.55679 0.8583,-1.81954 1.9087,-2.80604 z m -19.8107,1.02992 c 0.4456,0 0.5967,0.34388 0.3371,0.76377 -0.2595,0.42 -0.6225,0.76377 -0.8088,0.7638 -0.1852,0 -0.3368,-0.3438 -0.3368,-0.7638 0,-0.41989 0.364,-0.76377 0.8085,-0.76377 z m -87.5289,3.26131 c -1.5377,-0.0458 -3.6015,2.31081 -3.0726,3.79769 0.5736,1.44439 2.0487,1.10855 3.6105,0.009 1.4454,-1.56163 1.4126,-3.09343 -0.081,-3.71192 -0.1442,-0.0598 -0.2977,-0.0904 -0.4567,-0.0951 z m 11.7449,0.42478 c -1.6894,0 -3.0195,1.43508 -3.0195,3.25819 0,1.10379 0.4382,1.3721 1.9463,1.1839 1.5288,-0.1897 1.9937,-0.69236 2.1704,-2.34196 0.1736,-1.62721 -0.074,-2.10013 -1.0972,-2.10013 z m 108.0963,0.40101 c 0.2135,-0.0469 0.5876,0.28262 1.2443,0.87693 1.8375,1.66291 1.9608,3.10674 0.3194,3.73674 -1.8227,0.6995 -1.8468,0.66918 -1.8468,-2.32804 0,-1.54282 0.01,-2.22531 0.2831,-2.28563 z m -2.6162,0.87693 0.021,3.2458 c 0.019,3.11 -0.077,3.24528 -2.2976,3.24528 -1.2748,0 -3.1647,0.55523 -4.2003,1.23351 -1.7952,1.17681 -1.8819,1.15933 -1.8819,-0.38187 0,-0.90329 0.4889,-1.61542 1.1094,-1.61542 2.0605,0 4.7088,-1.63113 5.983,-3.68503 z m -11.076,0.3819 c 0.6551,0 1.1906,0.34377 1.1906,0.76377 0,0.42008 -0.3236,0.76327 -0.7189,0.76327 -0.3952,0 -0.9313,-0.34319 -1.1906,-0.76327 -0.2598,-0.42 0.064,-0.76377 0.7189,-0.76377 z m 4.2902,0 c 0.8649,0 1.3605,0.34377 1.1007,0.76377 -0.2593,0.42008 -0.9671,0.76327 -1.5724,0.76327 -0.6054,0 -1.1007,-0.34319 -1.1007,-0.76327 0,-0.42 0.7075,-0.76377 1.5724,-0.76377 z m -15.5339,0.76377 h 3.081 c 2.0736,0 3.2282,0.3855 3.533,1.17978 0.2493,0.64902 1.6603,1.68436 3.1364,2.30116 3.075,1.28479 3.4356,3.02882 1.3544,6.55204 -1.0901,1.84528 -1.1441,2.36463 -0.3003,2.88612 0.7093,0.43839 0.7691,0.79651 0.1929,1.15293 -1.2012,0.74236 -9.2451,0.30652 -9.7618,-0.52917 -0.2387,-0.38629 -0.6141,-3.59148 -0.8345,-7.12258 z m 21.8985,7.82228 c 0.582,0.0609 0.491,0.62979 0.1725,2.2226 -0.2736,1.36906 -1.0573,3.70682 -1.8217,5.15369 l -1.6012,3.0308 c -0.4305,0.81444 -1.0179,0.61301 -2.4223,-1.0795 -0.8554,-1.0301 -1.1409,-1.1648 -1.1409,-1.1648 2.2503,-0.25299 3.8788,-0.12785 3.8386,-0.82476 -0.021,-0.37936 -1.6751,-0.40865 -3.8997,-0.73173 0,0 -0.2881,-0.29911 0.1111,-1.63711 0.712,-2.38302 2.6279,-4.11237 5.2303,-4.72064 0.5371,-0.1256 0.9422,-0.21686 1.2406,-0.24495 h 6e-4 c 0.1119,-0.0105 0.2087,-0.0123 0.2921,-0.004 z m -15.6814,0.69556 c -0.373,-0.005 -0.6561,0.41524 -0.6561,1.02783 0,0.69998 0.3696,1.14993 0.821,0.99943 0.4516,-0.15049 0.8212,-0.60044 0.8212,-0.99943 0,-0.3991 -0.3696,-0.8486 -0.8212,-0.99891 -0.056,-0.0188 -0.1114,-0.0281 -0.1649,-0.0289 z m -19.6199,0.79116 c 0.3694,-0.009 0.9287,0.0913 1.677,0.27905 1.4533,0.36481 2.1881,1.23249 2.7424,3.23959 0.4162,1.50789 0.6432,2.8561 0.5027,2.99569 -0.1397,0.13981 -1.5317,-1.16022 -3.0933,-2.88872 -2.336,-2.58609 -2.9371,-3.59812 -1.8288,-3.62561 z m -100.998,4.73562 c -5.4235,-0.11729 -10.8974,0.78607 -15.2874,3.32126 -9.9748,5.76051 -16.8357,16.87041 -19.7956,32.02749 -0.9202,4.71011 -0.717,19.35507 0.3,21.65139 0.4025,0.90918 -1.0535,1.82628 -6.5637,4.13308 -10.0058,4.1886997 -18.9183,8.7108697 -18.9183,9.59889973 0,1.62523 3.801,0.51464 19.3532,-5.65288003 22.0872,-8.7627897 25.5577,-9.7089597 25.5577,-9.7089597 0.7078,0.41798 3.3496,2.64117 3.3496,2.64117 -0.8212,0.6944 -3.6197,1.51773 -7.0826,3.42098 -4.1669,2.2901597 -7.5763,4.5997097 -7.5763,5.1319997 0,0.53231 2.3921,2.44371 5.316,4.24780003 2.9234,1.80401 5.1977,3.39766997 5.0548,3.54086997 -0.1434,0.1433 -2.5352,-0.99034 -5.3154,-2.51872997 -2.7805,-1.52821003 -5.0554,-2.39906003 -5.0554,-1.93527003 0,1.00441003 5.1107,4.30668 16.0372,10.36267 4.4103,2.4444103 9.6504,5.4578503 11.6459,6.6967403 1.9949,1.23872 6.2896,3.41818 9.5461,4.8364 2.2109,0.96276 6.122,3.14513 10.2532,1.76683 0.9239,-0.30824 3.979,-1.50572 6.9334,-2.32442 2.9543,-0.8187 10.7349,-3.51432 17.2894,-5.98979 6.5543,-2.4755 15.1816,-5.6812203 19.172,-7.1241203 12.8085,-4.63219 30.8512,-11.92961 33.497,-13.54802 4.4829,-2.74219 1.949,-2.5255 -4.9082,0.41961 -3.642,1.5644 -11.9941,4.65941 -18.56,6.87813003 -6.5659,2.21868997 -13.2639,4.60581997 -14.8844,5.30510997 -1.6206,0.69921 -3.0954,1.12252 -3.2774,0.94051 -0.4046,-0.4046 2.1362,-1.4325 21.1156,-8.54109 20.7978,-7.7896 21.3312,-8.0224297 22.2295,-9.7012097 1.0046,-1.87672 -0.5321,-3.73902 -5.428,-6.57892 -1.8907,-1.0967 -6.8889,-3.73724 -6.8889,-3.73724 -2.3495,-5.98027 -10.2283,-10.58415 -14.6582,-11.69956 -2.4101,-0.6069 -4.4738,-1.89722 -6.7601,-4.22661 -1.8105,-1.84441 -4.1061,-3.23152 -3.9219,-3.376 0.1839,-0.14441 6.2828,-1.96557 12.373,-3.75378 12.4401,-3.65239 17.5643,-5.81049 17.5643,-7.39698 0,-1.7394 -2.5672,-1.30731 -18.5787,3.12798 -8.3281,2.30722 -15.448,4.1951 -15.8219,4.1951 -0.3736,0 -5.0723,-2.87237 -10.4412,-6.38307 -5.3684,-3.5106 -12.6818,-7.83625 -16.2523,-9.61184 -3.57,-1.77577 -9.1242,-4.58576 -12.3542,-6.2213 -4.395,-2.22544 -11.2845,-4.0634 -18.2578,-4.21423 z m 109.1281,0.98652 v 5e-4 c 0.408,0.003 0.9361,0.041 1.6119,0.10541 2.0193,0.19251 3.1774,0.71941 3.407,1.5503 0.1913,0.69229 0.5707,2.03211 0.8419,2.9771 0.616,2.1414 0.031,2.13669 -3.8092,-0.0336 -1.7047,-0.96329 -3.1533,-2.40241 -3.2768,-3.25612 -0.1469,-1.0137 0,-1.34842 1.2252,-1.34358 z m 8.5469,0.54674 c 0.6855,-0.0257 1.6251,0.0537 2.8599,0.18396 2.4151,0.2549 4.4727,0.53195 4.5728,0.61495 0.1,0.0833 -0.2511,1.64711 -0.7803,3.47524 -0.5292,1.82812 -1.2988,3.38736 -1.7095,3.46335 -2.3582,0.44021 -4.2995,-0.73218 -5.3414,-3.22617 -1.4266,-3.41461 -1.6581,-4.43468 0.3985,-4.51133 z m 9.5758,1.63761 c 0.041,-0.005 0.086,-8.5e-4 0.1357,0.0129 0.2363,0.066 0.5667,0.34822 1.0761,0.80875 1.8444,1.6687 2.0034,4.30636 -0.05,4.84622 l -0.9554,0.25114 c -2.4556,0.64556 -2.3865,0.72773 -1.7962,-0.79738 0.2844,-0.73501 0.7104,-2.29343 0.9461,-3.46334 0.2233,-1.1068 0.3511,-1.62086 0.6435,-1.6583 z m -126.9,0.23564 c 1.6216,-0.0284 3.5809,0.0906 5.2509,0.36795 4.0579,0.67421 4.5133,1.70114 1.8598,4.19404 -1.6658,1.5126 -3.573,1.69921 -6.4482,0.64855 -1.7163,-0.95297 -4.4027,-4.1951 -3.8902,-4.69429 0.321,-0.31226 1.6058,-0.48781 3.2277,-0.51625 z m -6.3804,1.01907 c 0.089,-0.009 0.1791,-0.007 0.2688,0.01 0.7183,0.13256 1.4195,1.18121 1.8902,2.48306 2.9059,8.03648 13.2551,8.72906 16.4621,1.10173 0.6715,-1.59687 1.1676,-1.94559 2.0103,-1.41229 1.8579,1.17609 -1.3975,6.14349 -5.4158,8.17623 -6.2211,3.1473 -14.4573,-0.99013 -16.3999,-9.69759 0,0 0.5628,-0.59981 1.1843,-0.66095 z m -3.5817,1.46192 c 0.3723,0.0103 0.5128,0.29848 0.5128,0.83405 0.8824,8.94853 11.0506,15.41462 19.3325,11.97861 2.6236,-1.08847 5.9405,-4.66016 6.69,-6.58876 0.9419,-2.423 1.7431,-2.14725 3.3311,1.14568 1.4288,2.96288 2.5922,17.22 1.6796,19.59829 0,0 -0.893,-1.30297 -3.3316,-3.31298 -5.9087,-4.8705 -8.3833,-1.98181 -3.7979,4.43331 1.3867,1.94029 3.1655,4.43806 3.4619,4.92786 0,0 -1.5801,0.94541 -5.0229,2.0769 -2.8382,0.9326 -20.3422,7.30695 -24.6486,8.5974 -3.0422,-3.3846 -4.4339,-13.22578 -2.6035,-22.39709 1.3468,-11.29162 1.0925,-12.96924 -1.9642,-12.96924 -2.3921,0 -3.2145,2.1276 -4.3559,11.2598 -0.9628,7.99822 -2.0563,20.20366 2.616,26.55858 -4.9702,1.96318 -8.6937,2.98786 -13.343,4.76972 -0.5247,0.1877 -0.9578,0.0467 -0.9358,-0.31316 0.1736,-6.2784 1.679,-19.42121 2.6593,-23.2115 2.8168,-10.89141 8.4294,-19.9405 15.4951,-24.98142 2.3389,-1.66871 3.6047,-2.42335 4.2251,-2.40605 z m 36.2252,9.0873 c 0.8786,0 21.6088,13.20187 21.7712,13.89785 -3.3927,1.95011 -16.0385,5.38102 -19.8255,7.05953 -1.6417,0.48972 -1.6695,0.37272 -1.5327,-6.60167 0.076,-3.90541 -0.1384,-8.73294 -0.476,-10.72803 -0.3495,-2.06272 -0.3223,-3.62768 0.063,-3.62768 z m 85.1805,7.02078 c 0.1613,-0.006 0.3071,-0.003 0.4392,0.008 0.88,0.0748 1.1594,0.5457 1.5935,1.68778 0.9205,2.42099 3.2486,2.59072 4.7393,0.3457 l 1.0816,-1.62935 4.5482,2.20244 c 3.3049,1.60009 4.5479,2.61908 4.5479,3.72898 0,1.38952 -0.5511,1.53954 -6.1092,1.65415 -5.8092,0.12039 -16.8934,-1.29495 -18.6521,-2.38175 -2.5932,-1.60279 0.5927,-4.52766 5.8544,-5.37435 0.843,-0.13562 1.4722,-0.22434 1.9572,-0.24132 z m -58.3899,10.79002 c 0,0 4.881,3.79873 7.5639,6.16913 -1.2316,-0.36526 -2.1547,-1.2151 -4.0851,-2.16265 -1.5407,-0.75642 -2.7644,-0.68461 -13.7248,3.03289 -6.6905,2.2692 -11.7805,3.91232 -11.7805,3.92533 -1.2018,-1.35876 -1.8929,-2.0203 -2.8552,-2.86596 0.3853,-0.32081 21.7657,-7.22797 24.8817,-8.09874 z m 52.0959,5.95778 c -1.6613,0.0909 -3.3427,1.18105 -4.056,3.08404 -0.2614,0.69829 -0.1961,4.99359 0.1452,9.54569 0.548,7.31089 0.9205,8.83192 3.1957,13.0369197 4.2405,7.83751003 6.7982,5.94498 6.7521,-5.0007297 -0.032,-8.08138 -1.2612,-16.83957 -2.6619,-18.97766 -0.8028,-1.2251 -2.0828,-1.75895 -3.3751,-1.68826 z m -49.3053,0.24495 5.856,3.07629 c 5.8386,3.06707 5.8843,3.6308 5.8843,3.6308 -0.2667,3.89469 0.7284,6.77089 0.9105,7.32461 0.2151,0.6521 -1.3116,1.63426 -4.3326,2.78795 -6.9379,2.64929 -9.748,4.24468 -8.926,5.06687 1.0179,1.0177997 13.2914,-4.78255 15.1744,-7.17632 1.0052,-0.0478 1.5248,-1.68833 1.9915,-2.38797 l 1.5058,3.04118 c 0.7831,1.58181 1.32,2.93137 1.216,2.98637 -0.1032,0.055 -3.7148,1.5825 -8.0253,3.39463 -7.9024,3.3217197 -9.3007,4.2561197 -8.0952,5.4079297 0.727,0.69479 19.313,-7.8837597 20.3126,-9.3756397 0.3434,-0.5134 0.4429,-1.96403 0.2201,-3.22411 l -0.4056,-2.29132 1.9672,2.482 c 2.1725,2.74029 4.4201,3.19919 5.6099,1.14568 0.7207,-1.24439 1.0232,-1.201 4.3852,0.63201 1.9863,1.08291 3.7277,2.31664 3.8688,2.74142 0.3511,1.05442 -35.2058,14.34591973 -36.771,13.74542973 -0.8925,-0.34282 -2.2122,-1.20923 -2.2122,-1.20923 2.5646,-1.41573003 0.3659,-3.24990003 -2.2955,-1.78956003 0,0 -2.2784,-0.95396 -3.2031,-2.21642 2.6763,-1.11828 0.7858,-2.72772 -1.8095,-1.5322 -0.8993,-1.2424 -1.6391,-1.33286 -2.6006,-2.37609 2.0746,-1.06958 -1.3078,-2.4552497 -2.8628,-1.1647697 -0.6193,0.5137097 -1.905,1.3831797 -2.4354,1.1797697 -0.5969,-0.22899 -1.0073,0.32991 -1.0764,1.46812 -0.087,1.42849 2.2778,0.55386 3.3192,0.22326 l 2.485,2.2293 c -2.2016,1.05786 -1.5991,2.61924 1.724,1.74461 0,0 0.8493,0.43632 1.6701,1.04592 1.2597,0.9356 1.4427,1.20251003 1.4427,1.20251003 -2.549,1.72101 -0.6281,2.50715997 2.3265,1.49706 0,0 3.066,1.87816997 0.4006,2.92644997 -0.9903,0.3896 -5.0602,1.9776 -9.0435,3.52899 -3.9833,1.55141 -17.6712,6.1617203 -22.6687,8.0883903 -2.7381,1.05571 -2.7077,1.46846 -5.4308,0.16846 -4.1042,-1.62139 -32.508,-16.12741027 -37.3811,-19.0996103 -3.2578,-1.98726 -3.0726,-1.14707 0.3818,-2.88303 1.5658,-0.75872 9.3599,-4.3859197 12.5751,-5.3665997 0,0 0.3299,-0.0786 2.8726,1.0413 3.8843,1.7108997 17.7014,1.6336697 21.6596,-0.12094 2.595,-1.15028 3.8139,-1.20584 10.1261,-0.46146 6.073,0.7163 8.8495,-1.29173 11.9502,-2.30579 0,0 2.4397,1.44539 4.2275,1.19372 2.8202,-0.39696 2.087,-0.9678 -0.8845,-3.82511 -0.4863,-1.90685 -1.4693,-5.56361 -2.0683,-6.43525 -0.7443,-1.08236 -2.6963,-1.33562 -4.9432,-1.96734 l 5.1041,-1.87843 c 3.507,-1.33342 8.6098,-3.20913 11.3398,-4.16872 z m 83.6451,1.43349 c -2.4077,0.13486 -12.3293,4.99626 -18.351,9.07645 -4.5281,3.06848 -4.9855,3.62538 -5.2104,6.34534 -0.1749,2.11514 0.1241,3.25279 1.0292,3.91452 1.3872,1.01457 1.8923,0.87204 7.6848,-2.16887 10.8932,-5.719 19.558,-15.46755 15.2255,-17.13021 -0.09,-0.0347 -0.218,-0.0462 -0.3781,-0.0372 z m -35.3494,0.894 c 0.3069,0.023 0.6993,0.21699 1.1792,0.57568 1.1555,0.8632 2.7753,8.43185 2.821,13.17593 0.011,1.09493 -0.5254,1.55866 -1.8939,1.63764 -1.7724,0.10221 -1.9134,-0.14449 -1.9544,-3.43649 -0.024,-1.95072 -0.335,-5.2647 -0.6893,-7.36491 -0.5373,-3.18495 -0.3834,-4.65651 0.5374,-4.58785 z m -82.8807,1.73736 c 0,0 0.9726,0.98915 1.1565,1.51413 0.2135,0.60682 -0.3959,0.95446 -1.6733,0.95446 -1.1385,0 -2.7381,1.51392 -3.6975,2.54921 0,0 -4.3754,1.30908 -10.7606,3.69435 -4.7318,1.76771 -6.7972,2.44361 -8.4656,2.74711 -1.5211,0.23162 -5.3176,-1.40104 -6.0243,-1.78543 0,0 26.2141,-9.52961 29.4648,-9.67383 z m 115.4998,0.54467 c 0.254,0.0303 0.4165,0.16071 0.4165,0.37571 0,1.03521 -1.357,1.67772 -1.8521,0.87693 -0.2365,-0.38279 0.083,-0.89307 0.7112,-1.13376 0.1569,-0.0602 0.3064,-0.0982 0.4429,-0.11525 0.1022,-0.0128 0.1969,-0.0137 0.2815,-0.004 z m -3.0136,2.28256 c 0.7536,-0.0351 1.1388,0.32785 1.1388,1.0945 0,0.4055 -2.7763,2.65002 -6.1701,4.98782 -3.3935,2.33768 -6.2743,4.25038 -6.4021,4.25038 -0.1275,0 -0.4035,-0.65297 -0.6114,-1.45106 -0.2935,-1.1222 0.9062,-2.34841 5.2948,-5.41261 3.2165,-2.24581 5.4941,-3.41048 6.75,-3.46903 z m -72.5021,4.47104 c -1.4886,-0.1243 -15.7787,7.42193 -15.3273,8.15247 0.5138,0.8313 5.9216,-1.1816 11.2572,-4.18991 3.6309,-2.0473 4.8789,-3.22064 4.1735,-3.92587 -0.021,-0.0204 -0.055,-0.0327 -0.1034,-0.0367 z m -45.0882,1.67896 c -0.7287,0.74065 -0.041,2.55088 -1.5047,2.53474 -0.3492,-0.004 -1.8359,0.67873 -4.4979,0.75139 l -5.4298,0.1483 z m 102.7311,3.55793 c 0.4125,-0.0241 0.7247,0.36124 0.7247,0.94309 0,0.66503 -0.544,1.20925 -1.2089,1.20925 -1.3489,0 -1.1136,-1.64428 0.3024,-2.11617 0.062,-0.0209 0.1228,-0.0327 0.1818,-0.0362 z m -10.6278,3.75894 c 0.531,0.0413 0.68,0.40629 0.5308,1.17875 -0.1479,0.76837 -0.898,1.5182497 -1.6661,1.6660497 -1.0086,0.19431 -1.3227,-0.1188 -1.1279,-1.1275697 0.1481,-0.76843 0.8977,-1.51826 1.6666,-1.66606 0.1256,-0.0243 0.241,-0.041 0.3455,-0.0491 0.092,-0.007 0.1754,-0.008 0.2511,-0.002 z M 1709.2543,6.8486887 c 0.03,-0.0461 0.4453,0.15007 1.2702,0.54983 0.9451,0.4581 1.7188,0.99277 1.7188,1.18806 0,0.5842 -0.3964,0.41526 -1.9545,-0.83304 -0.7117,-0.57026 -1.0652,-0.85871 -1.0345,-0.90485 z m -29.0674,0.75499 c -2.1627,0.004 -2.0855,1.06994 -6.535,5.6032903 -13.1574,14.35304 -12.8103,13.31238 -13.0913,19.44169 -0.2352,5.12474 -1.6923,4.81925 3.003,6.38826 1.7825,0.65928 11.6602,3.75568 21.9507,6.8807 10.2904,3.12518 19.913,6.21218 21.3831,6.86056 1.4703,0.6486 3.1885,1.10273 3.8184,1.00873 0.63,-0.0937 2.6922,-3.12105 4.5821,-6.72725 3.5621,-6.79579 8.0348,-14.08242 9.7208,-15.8352 0.5336,-0.55502 0.9705,-2.66338 0.9705,-4.68448 0,-3.30951 0.9064,-4.19848 -1.8056,-6.64868 -1.6562,-1.49641 -5.5258,-2.822 -7.1247,-3.25509 -1.5988,-0.43299 -8.5772,-2.35014 -15.5074,-4.26022 -6.9305,-1.9101 -15.5869,-4.2517203 -18.2047,-4.5113603 -1.4695,-0.1457 -2.4389,-0.26228 -3.1599,-0.26095 z m 0.9427,3.7005403 c 2.1944,0.0316 6.0595,1.01216 13.5562,3.28922 6.0865,1.84869 19.0799,5.61565 23.1748,6.76444 2.1336,0.60386 3.5886,0.20828 1.6039,3.47938 -1.1572,1.90875 -7.8716,13.16103 -9.7626,15.8016 -2.1174,2.95685 -1.1689,2.94579 -4.5108,1.23664 -3.3277,-1.63703 -21.3173,-6.91018 -39.3634,-11.54867 -2.1252,-0.54615 -3.2724,-0.87333 -1.4843,-2.89335 4.224,-4.77165 14.2036,-15.30794 14.6436,-15.61663 0.4921,-0.34523 1.1446,-0.527 2.1426,-0.51263 z m 92.6346,4.38062 c -0.8255,-0.003 -1.6121,0.10944 -2.3363,0.34158 -3.243,1.03981 -8.7826,6.56982 -8.7826,8.76742 0,4.20989 3.7905,8.29866 9.7044,10.46914 5.0922,1.86891 7.2864,1.48648 11.1895,-1.94924 3.1652,-2.78609 3.5441,-3.46451 3.5441,-6.3469 0,-3.43533 -0.9898,-4.93406 -5.5144,-8.34885 -2.5072,-1.89196 -5.329,-2.92608 -7.8047,-2.93315 z m -27.278,0.30232 c 0.1167,-0.0122 0.1974,-0.0115 0.2381,0.003 0.3244,0.11351 -2.1214,1.26307 -5.4353,2.55437 -5.3983,2.10349 -6.209,2.23652 -7.7984,1.28312 -1.0033,-0.6015 -1.1829,-0.88162 -0.4146,-0.64442 0.7477,0.23072 3.9918,-0.43963 7.2091,-1.48981 2.8147,-0.91885 5.3851,-1.62076 6.2011,-1.70585 z m 27.6902,2.1182 c 2.731,0 9.0313,3.81264 9.0641,5.48441 0.013,0.70641 -0.9737,1.9952 -2.1937,2.86393 -1.2197,0.86868 -2.6807,1.54197 -3.2456,1.49498 -1.7941,-0.14711 -10.85,-4.17708 -11.0681,-4.92527 -0.3595,-1.23362 5.2163,-4.91805 7.4433,-4.91805 z m -7.9375,8.03569 v 0 c 0.5403,-0.004 1.6285,0.41925 3.3377,1.24645 5.1186,2.47761 9.2578,2.71266 12.1034,0.68678 3.2454,-2.31209 3.1279,-0.33409 -0.1717,2.8639 -1.3854,1.34242 -3.1896,2.42289 -4.0095,2.40088 -2.9226,-0.0779 -9.5756,-3.16965 -10.7813,-5.01002 -0.9633,-1.47018 -1.1747,-2.18257 -0.4802,-2.18799 z m -44.6069,0.96739 c 0.2223,-0.0476 0.3329,0.26292 0.4159,0.85008 0.1699,1.20039 -0.7874,3.31912 -2.7683,6.12831 -1.6656,2.36138 -4.4492,7.12015 -6.1862,10.57505 -1.737,3.4548 -3.4124,6.2467 -3.7227,6.2017 -1.8026,-0.2558 -20.2195,-6.68375 -19.2744,-6.72674 0.6305,-0.029 4.5493,0.8141 8.709,1.8738 4.1601,1.05971 7.9405,1.78271 8.4006,1.60661 1.4504,-0.5551 -6.281,-3.6154 -13.1676,-5.21208 -12.3277,-2.85822 -29.9069,-7.80595 -29.9069,-8.41756 0,-0.927 0.7131,-0.79238 9.256,1.75183 4.3598,1.29831 11.3633,3.2031 15.5633,4.2323 9.3212,2.28391 18.0401,4.89699 19.159,5.74278 1.3687,1.03421 4.1804,-2.77069 11.0908,-15.00838 1.3803,-2.44446 2.0611,-3.51835 2.4315,-3.5977 z m 18.6793,5.22449 c -2.8535,-0.0212 -3.3652,0.28943 -4.0973,1.72908 -1.6828,3.3097 -0.3098,4.83865 6.7257,7.48948 3.5695,1.34469 9.0331,3.13428 12.1428,3.977 4.2241,1.1448 7.9134,1.51967 14.5899,1.48466 10.1756,-0.0542 12.3677,-0.80312 10.0243,-3.42561 -3.6396,-4.0726 -26.8052,-10.91526 -38.0111,-11.22775 -0.5109,-0.0143 -0.9666,-0.0238 -1.3743,-0.0269 z m -1.6346,1.99419 c 0.212,-0.003 0.5004,0.0629 0.8679,0.21857 2.0349,0.86249 15.2392,4.08043 20.6187,5.02502 2.6252,0.46099 4.7617,1.06045 4.7617,1.33223 -0.049,2.06161 -1.7381,1.99896 -12.2071,-0.45164 -6.0902,-1.42573 -11.8465,-3.09237 -12.7915,-3.70417 -1.6614,-1.0755 -2.1688,-2.40469 -1.2497,-2.42001 z m -74.1632,2.24481 c 0.8398,-0.0122 2.7302,0.44119 4.2003,1.00718 3.4403,1.32541 1.3335,1.342 -2.6729,0.0217 -1.6809,-0.5538 -2.3677,-1.01536 -1.5274,-1.02836 z m 106.3225,5.36609 c 0.4006,-0.007 1.0044,0.30879 1.537,0.84129 1.3803,1.38031 0.554,1.73276 -1.3049,0.55709 -0.6178,-0.39079 -0.8673,-0.96621 -0.5543,-1.279 0.078,-0.0782 0.1886,-0.11692 0.3222,-0.11938 z" fill="#00B894" id="path1687" style="fill:#000000;stroke-width:0.735174"/>
    </g>
  </g>
</svg>