<?xml version="1.0" ?><svg height="198.61913mm" viewBox="0 0 234.57953 198.61913" width="234.57953mm" xmlns="http://www.w3.org/2000/svg">
    <path d="m 4410.4348,1153.8526 c -0.082,22.6639 24.0366,24.341 26.0636,24.5437 24.1594,0.6633 25.8789,-16.6943 27.6603,-29.482 -2.4431,-27.556 -11.764,-25.3093 -26.1125,-25.6939 -12.3132,-0.3301 -26.6434,8.4985 -27.6114,30.6322 z m 136.215,-14.5811 -4.3257,0.306 c 0,0 -24.3345,2.9093 -24.2737,23.1272 0.062,20.2179 16.3161,27.7119 21.6525,29.9062 9.6917,1.3663 22.5266,-2.8568 28.6758,-11.4133 6.1492,-8.5562 2.9596,-21.2527 -1.9627,-29.8229 -4.9226,-8.5702 -19.7662,-12.1032 -19.7662,-12.1032 z m -151.6992,60.5126 c -4.8842,9.3893 -6.6185,24.8385 -5.8959,38.4152 h -3e-4 c 0,0 -8.092,5.5144 -13.0918,7.8032 -4.9996,2.2888 -25.7789,10.2732 -29.6514,14.3826 -3.8727,4.1094 -1.0694,23.2783 4.7977,29.0003 5.8664,5.7219 30.0847,30.9506 78.9258,29.6762 48.8413,-1.2745 73.8393,-19.0905 83.5501,-35.7363 9.7105,-16.6457 31.5875,-24.9949 54.4187,-41.5107 22.8309,-16.5157 -3.1213,-38.6234 -18.2938,-43.0449 -15.1726,-4.4216 -30.6631,-0.7283 -36.5877,1.0402 -5.924,1.7686 -67.0769,19.2211 -67.0769,19.2211 0,0 3.2123,-17.1661 0.068,-23.6451 -3.1438,-6.4789 -5.3279,-10.0195 -17.5236,-12.3863 -12.1792,-1.5935 -28.4253,7.4976 -33.6389,16.7845 z" fill="#FFFFFF" paint-order="markers stroke fill" transform="translate(45.930012,-53.774997) translate(-1991.6677,193.8074) translate(-2398.7881,-1260.5215)"/>
    <path d="m 2040.8649,-140.03063 c -4.0719,0.0323 -8.0219,0.50747 -10.7677,1.46243 -17.966,6.24901 -23.8911,24.2675 -18.6693,39.425003 1.6061,4.661297 4.6678,10.900966 11.3948,14.935518 6.7977,4.077017 11.5047,4.346204 19.0881,4.275693 2.3366,-0.02172 6.0767,-0.751364 6.0767,-0.751364 1.134,1.484207 4.8006,2.616147 4.1455,-1.235075 0,0 1.7219,-0.734351 3.7661,-2.091346 5.7089,-3.789389 10.2497,-13.013372 11.8097,-25.195869 1.6388,-12.79631 -2.6493,-23.25156 -11.5843,-28.24375 -3.0956,-1.72984 -9.308,-2.6285 -15.2596,-2.58124 z m 106.947,11.87317 c -2.2651,0.0217 -2.8837,0.84617 -1.4504,2.42983 1.7695,1.95519 0.822,2.54026 -5.8246,3.59616 -7.1995,1.14382 -11.8911,4.06813 -15.5524,7.72925 -7.7113,7.71131 -10.1423,20.802388 -4.2257,32.827965 2.3297,4.734772 7.8801,9.512459 13.3305,12.014253 4.141,1.900819 5.7124,2.262743 5.2731,4.008014 -0.2648,1.054021 -0.6715,2.861284 -0.9038,4.016296 -0.3844,1.911085 -0.7263,2.100659 -3.8026,2.100659 -1.8843,0 -4.7185,0.682334 -6.4047,1.542547 -2.6017,1.327468 -3.0234,1.895025 -3.0234,4.066911 0,4.486989 2.9697,6.019747 14.891,7.683261 1.2602,0.175604 4.8432,0.19984 7.9624,0.05324 8.3801,-0.393595 11.9377,-3.759571 8.8897,-8.410866 -1.6211,-2.474199 -4.7117,-3.977852 -9.4774,-4.610047 -5.2403,-0.695114 -5.4472,-2.537037 -0.2288,-2.035546 8.0626,0.7747 18.5652,-2.956084 24.6432,-8.753475 3.7442,-3.571504 4.5728,-4.917175 6.3868,-10.375053 4.2738,-12.858803 1.6431,-27.150069 -6.6532,-36.150789 -4.9416,-5.36081 -10.1722,-8.78488 -15.7453,-10.30738 -3.5645,-0.97361 -6.3225,-1.44218 -8.0844,-1.42523 z m 3.1808,3.81011 c 4.8157,0 15.5065,6.66192 19.8308,12.35842 6.9064,9.09788 7.7711,23.732464 2.0251,34.289366 -3.1472,5.782786 -6.8545,8.704924 -13.7752,10.857732 -7.3663,2.291292 -16.4074,3.277764 -15.8115,1.72548 0.2717,-0.708712 2.2463,-1.126384 6.2637,-1.324451 17.7655,-0.876194 29.0817,-16.365749 24.2139,-33.14475 -3.1152,-10.738987 -10.2037,-18.427757 -20.0597,-21.757847 -3.6602,-1.23672 -5.2419,-3.00395 -2.6871,-3.00395 z m -6.9858,4.58163 h 1.8609 l -1.8934,2.8639 c -1.0417,1.57509 -2.2836,3.98095 -2.7591,5.34593 -0.4754,1.36512 -1.3457,2.48201 -1.9346,2.48201 -1.302,0 -1.1893,0.30329 -1.3798,-3.68451 -0.1344,-2.80313 0.1741,-3.58225 2.0428,-5.15474 1.211,-1.01892 3.0396,-1.85259 4.0632,-1.85259 z m 3.3256,0.63251 c 0.4858,0.0507 0.781,1.13393 1.1837,3.28094 0.4625,2.4661 0.3292,2.79723 -1.2671,3.14193 -0.9813,0.2118 -2.3854,0.6378 -3.1207,0.9467 -1.8447,0.7756 -1.6645,-0.14538 0.8728,-4.45502 1.1676,-1.98316 1.845,-2.96527 2.3313,-2.91455 z m 3.057,0.13126 c 0.8189,0 2.4135,1.21232 3.5435,2.69391 1.1298,1.48161 1.9212,2.77262 1.7566,2.87062 -0.1635,0.0969 -1.3869,0.0676 -2.7194,-0.0651 -1.9235,-0.1918 -2.5921,-0.72766 -3.2456,-2.60244 -1.052,-3.0175 -1.0795,-2.89698 0.6649,-2.89698 z m -11.8391,0.17621 c 0.3686,-0.0172 0.055,0.35785 -0.9977,1.28728 -0.9914,0.87519 -2.7099,1.58033 -3.8185,1.56734 -1.937,-0.0233 -1.9584,-0.0681 -0.5336,-1.14567 0.8154,-0.61672 1.9047,-1.12139 2.4198,-1.12139 0.5154,0 1.5666,-0.20073 2.3363,-0.44595 0.2723,-0.0868 0.471,-0.13592 0.5937,-0.14161 z m -103.142,0.73123 -0.4884,2.82877 c -0.857,4.9617 2.7533,6.94629 5.9383,3.2644 l 1.5897,-1.83761 2.5233,3.03289 c 3.0776,3.6997 5.6573,5.225 8.8371,5.225 2.0156,0 2.5535,-0.37521 3.284,-2.29082 0.9956,-2.61009 1.312,-2.72574 3.2059,-1.16996 0.7509,0.61672 1.9185,1.13268 2.5953,1.14567 1.5044,0.0296 1.5267,-0.44288 -0.2489,5.43481 -2.6578,8.796917 -5.1081,12.59038 -9.8378,15.233197 -2.2897,1.279525 -2.2505,1.183376 -2.2505,1.183376 -1.6105,-2.384213 -4.8771,-1.056878 -3.9606,1.081061 0,0 -1.2599,0.339222 -3.7065,0.655796 -7.6872,0.994648 -19.3143,-1.231582 -24.7412,-10.15029 0,0 0.3744,-3.409076 2.8107,-9.18808 1.4269,-3.38529 2.1214,-4.27776 3.1099,-3.99717 1.901,0.53991 5.149,-1.94471 8.4232,-6.44302 z m 120.3595,0.70176 c 0.4988,0.008 1.8995,0.8764 4.4159,2.61019 0.1146,0.0792 -0.01,0.70887 -0.2728,1.39888 -0.6879,1.79139 -1.2432,1.53548 -3.1466,-1.45055 -1.0915,-1.71209 -1.4949,-2.56609 -0.9965,-2.55852 z m -24.6269,1.86449 v 0 c 0.1262,-0.014 0.1953,0.0392 0.1953,0.16846 0,0.51702 0.5157,0.94001 1.1454,0.94001 1.9126,0 1.311,1.35911 -2.2858,5.15731 -3.6031,3.80479 -4.1806,5.74268 -2.3222,7.7959 0.9816,1.08638 0.9776,1.504921 -0.033,3.453525 -0.9239,1.780487 -0.994,2.947908 -0.3556,5.925238 0.4374,2.039381 0.7954,4.034948 0.7954,4.434337 0,0.868521 -0.4898,0.845132 -3.2211,-0.153459 -2.5249,-0.92329 -3.3131,-4.098237 -2.5921,-10.451041 0.7498,-6.6094 2.7337,-11.57557 4.6281,-11.59155 1.2875,-0.01 1.3629,-0.14174 0.4217,-0.74105 -0.9575,-0.60981 -0.7384,-1.13832 1.3364,-3.21942 1.0237,-1.02704 1.908,-1.67601 2.286,-1.71826 z m 21.0392,3.48507 c 0.6474,0 1.6023,0.48072 2.8308,1.44176 l 1.9089,1.49344 -2.8638,0.0171 c -2.3601,0.014 -2.8639,-0.25162 -2.8639,-1.51051 0,-0.96104 0.3405,-1.44176 0.988,-1.44176 z m 10.4468,0.0263 v 0.001 c 0.2781,-0.0143 0.6091,0.18862 1.1081,0.60256 0.662,0.54949 1.2036,1.22513 1.2036,1.50223 0,0.27688 -0.8591,0.57443 -1.909,0.66145 -2.0333,0.1682 -2.3067,-0.30577 -1.1922,-2.06705 0.2873,-0.45461 0.5117,-0.68588 0.7895,-0.70022 z m -13.9867,0.69659 v 5.3e-4 c 0.6318,0.004 1.0248,0.37156 1.0248,1.10019 0,0.7882 -0.774,1.13787 -2.4821,1.12086 -2.3477,-0.023 -2.4014,-0.0851 -0.9993,-1.14568 0.9546,-0.72215 1.8248,-1.08026 2.4566,-1.0759 z m 16.859,2.53421 c 0.7628,0.086 1.7317,1.46087 3.2679,4.58163 5.7645,11.709108 2.7233,24.594766 -6.9715,29.540834 -3.9529,2.016521 -4.1193,1.909736 -2.1035,-1.352365 0.9636,-1.559005 2.4776,-5.081746 3.3637,-7.827936 1.229,-3.806296 2.0989,-5.229781 3.6573,-5.98932 1.3391,-0.652674 2.0437,-1.604539 2.0437,-2.76053 0,-2.130214 -2.5236,-5.517171 -4.6022,-6.176883 -0.8289,-0.263102 -1.5081,-1.099926 -1.5081,-1.8588 0,-0.75899 -0.4996,-2.79779 -1.111,-4.53049 -1.1004,-3.1197 -1.093,-3.15071 0.7019,-3.15071 0.997,0 2.3228,-0.19579 2.9459,-0.43511 0.1016,-0.039 0.2069,-0.0526 0.3159,-0.0403 z m -27.4082,0.47543 c 0.9054,0 1.6381,0.0863 1.6381,0.19121 -0.01,0.10502 -0.5207,1.87788 -1.1462,3.93981 -0.6252,2.06179 -1.1375,4.725085 -1.1375,5.918488 0,1.976199 -0.2542,2.180854 -2.8628,2.291847 -2.7387,0.116893 -2.5693,0.806635 -0.2495,1.097095 1.1978,0.149939 2.3927,0.190182 2.3927,0.190182 0.034,0.460719 0.09,2.030175 0.3291,4.553215 0.2664,2.810801 0.6623,6.055386 0.88,7.210398 0.3847,2.040097 0.2958,2.100131 -3.0482,2.100131 -2.9835,0 -3.4796,-0.229527 -3.71,-1.718231 -0.1464,-0.94488 0.08,-2.312697 0.5024,-3.03911 0.5607,-0.963189 0.4114,-1.925294 -0.5509,-3.55428 -2.0785,-3.519091 -1.6938,-5.834195 1.3544,-8.159194 3.1795,-2.425198 3.3251,-3.524091 0.7364,-5.560401 l -1.9368,-1.52342 2.5816,-1.96887 c 1.4197,-1.08291 3.3218,-1.96887 4.2272,-1.96887 z m 18.8119,0.38653 c 1.27,-0.006 1.5986,0.49485 2.2762,2.1699 0.5355,1.32411 1.1978,3.35272 1.4714,4.50773 0.4198,1.770222 0.2524,2.100131 -1.0679,2.100131 -0.8607,0 -1.7632,0.515673 -2.005,1.145673 -0.2434,0.634682 -1.3774,1.145143 -2.5429,1.145143 -2.0323,0 -2.1217,-0.172456 -2.6226,-5.060157 -0.2744,-2.78291 -0.4175,-5.15234 -0.296,-5.26582 0.1222,-0.11321 1.5422,-0.37973 3.1556,-0.59272 0.6805,-0.0898 1.2076,-0.14795 1.6312,-0.14988 z m -14.9005,0.51781 h 5e-4 c 0.2839,-0.0204 0.5948,0.11888 0.9477,0.39738 0.5429,0.42839 1.9325,1.00468 3.0877,1.28056 2.5958,0.62031 2.6345,1.52511 0.1902,4.43021 -1.0504,1.24798 -1.9095,2.930073 -1.9095,3.737767 0,1.169511 -0.5447,1.468649 -2.6733,1.468649 -3.0274,0 -3.0901,-0.215688 -1.8272,-6.262686 0.7297,-3.49073 1.3327,-4.99036 2.1839,-5.05188 z m 9.1897,5.70249 v 2.806037 c 0,2.484015 -0.219,2.806039 -1.9089,2.806039 -1.0766,0 -1.909,-0.441537 -1.909,-1.012349 0,-0.556789 0.8586,-1.819539 1.909,-2.806038 z m -19.8106,1.02992 c 0.4455,0 0.5969,0.34387 0.3373,0.763769 -0.2596,0.419999 -0.6226,0.763772 -0.8088,0.763772 -0.1852,0 -0.3369,-0.343773 -0.3369,-0.763772 0,-0.419899 0.3639,-0.763769 0.8084,-0.763769 z m 32.3122,4.087094 c 0.2132,-0.04691 0.5882,0.282628 1.2449,0.876935 1.8372,1.662906 1.9608,3.106738 0.3193,3.736737 -1.823,0.699505 -1.847,0.669158 -1.847,-2.328042 0,-1.542812 0.01,-2.225331 0.2828,-2.28563 z m -2.6159,0.876935 0.021,3.245803 c 0.019,3.109991 -0.077,3.245273 -2.2976,3.245273 -1.2748,0 -3.1647,0.555201 -4.2003,1.233514 -1.7952,1.176787 -1.8815,1.159325 -1.8815,-0.381873 0,-0.903288 0.4885,-1.615414 1.1089,-1.615414 2.0606,0 4.7096,-1.63113 5.9838,-3.685037 z m -11.0763,0.3819 c 0.6548,0 1.1906,0.343773 1.1906,0.763772 0,0.420079 -0.323,0.76327 -0.7183,0.76327 -0.3953,0 -0.9313,-0.343191 -1.1906,-0.76327 -0.2599,-0.419999 0.063,-0.763772 0.7183,-0.763772 z m 4.29,0 c 0.8649,0 1.3604,0.343773 1.1009,0.763772 -0.2596,0.420079 -0.9668,0.76327 -1.5722,0.76327 -0.6053,0 -1.1006,-0.343191 -1.1006,-0.76327 0,-0.419999 0.7069,-0.763772 1.5719,-0.763772 z m -112.1966,0.01344 c -1.528,-0.04577 -3.5785,2.310792 -3.053,3.797697 l -6e-4,-0.0031 c 0.5456,1.54731 2.1678,1.551808 3.5851,0.01241 1.4388,-1.561597 1.4063,-3.093508 -0.078,-3.711919 -0.1434,-0.05977 -0.2955,-0.09036 -0.4535,-0.09507 z m 11.6689,0.425292 c -1.6788,0 -2.9998,1.434994 -2.9998,3.258185 0,1.103603 0.4355,1.3707 1.9338,1.183402 1.5187,-0.189707 1.9809,-0.692468 2.1564,-2.341986 0.1725,-1.627188 -0.073,-2.099601 -1.0904,-2.099601 z m 84.9942,0.32504 h 3.0811 c 2.0735,0 3.2277,0.385498 3.5325,1.179777 0.2492,0.649023 1.6607,1.684364 3.1369,2.301135 3.0749,1.28479 3.4356,3.028844 1.3544,6.552062 -1.0901,1.845283 -1.1441,2.364634 -0.3003,2.886128 0.7093,0.438388 0.7694,0.796501 0.1928,1.152895 -1.2012,0.742394 -9.245,0.306546 -9.7618,-0.529167 -0.2386,-0.386291 -0.6141,-3.591454 -0.8345,-7.122556 z m 21.8985,7.822248 c 0.5824,0.06085 0.4911,0.629814 0.1725,2.222606 -0.2735,1.369086 -1.057,3.706838 -1.8213,5.153712 l -1.6016,3.030802 c -0.4302,0.814441 -1.0181,0.613014 -2.4225,-1.0795 -0.8554,-1.030102 -1.1406,-1.164801 -1.1406,-1.164801 2.2503,-0.252995 3.8788,-0.127873 3.8386,-0.824759 -0.021,-0.37936 -1.6754,-0.408649 -3.9,-0.731732 0,0 -0.2879,-0.299111 0.1117,-1.637109 0.712,-2.383023 2.627,-4.112366 5.2294,-4.720643 0.5372,-0.125598 0.9428,-0.216879 1.2415,-0.244951 0.1119,-0.01053 0.2093,-0.0123 0.2923,-0.0036 z m -15.6818,0.695589 c -0.3728,-0.005 -0.6557,0.415237 -0.6557,1.027827 0,0.699982 0.3691,1.149906 0.8208,0.999437 0.4514,-0.150521 0.8215,-0.600445 0.8215,-0.999437 0,-0.399097 -0.3701,-0.848598 -0.8215,-0.998908 -0.056,-0.01878 -0.1114,-0.02813 -0.1651,-0.02892 z m -19.6194,0.791157 c 0.3694,-0.009 0.9287,0.09128 1.6769,0.279056 1.4534,0.364781 2.1881,1.232482 2.7424,3.239585 0.4162,1.507887 0.6435,2.856098 0.503,2.995692 -0.1397,0.139806 -1.5325,-1.160224 -3.094,-2.888721 -2.336,-2.58609 -2.9366,-3.598121 -1.8283,-3.625612 z m -100.9983,4.735619 c -5.4237,-0.117317 -10.8972,0.78605 -15.2871,3.321261 -9.9748,5.760509 -16.8357,16.870415 -19.7956,32.027495 -0.92,4.710112 -0.717,19.355064 0.3003,21.651383 0.4024,0.909188 -1.0539,1.826286 -6.5641,4.133083 -10.0057,4.188698 -18.9182,8.710877 -18.9182,9.5988976 0,1.6252031 3.8013,0.514641 19.3535,-5.6528756 22.0869,-8.762788 25.5569,-9.708965 25.5569,-9.708965 0.7077,0.417989 3.3496,2.641177 3.3496,2.641177 -0.821,0.694399 -3.6192,1.517703 -7.0821,3.420983 -4.1669,2.290154 -7.5764,4.599675 -7.5764,5.13199 0,0.532289 2.3921,2.443719 5.3161,4.24778 2.9236,1.8040085 5.1974,3.3976997 5.0543,3.5408922 -0.1434,0.1432983 -2.5345,-0.9903354 -5.3147,-2.5187275 -2.7805,-1.5282067 -5.0557,-2.3990567 -5.0557,-1.9352687 0,1.0044117 5.1107,4.3066762 16.0372,10.36267113 4.4104,2.44440597 9.6507,5.45782497 11.6459,6.69673637 1.995,1.2386998 6.2897,3.4181785 9.5462,4.8363985 2.2109,0.962765 6.1219,3.145128 10.2531,1.766834 0.924,-0.308239 3.9791,-1.505717 6.9334,-2.324417 2.9544,-0.8187005 10.735,-3.5143284 17.2895,-5.989823 6.5543,-2.4754681 15.1818,-5.68118615 19.172,-7.1240913 12.8085,-4.6321927 30.8507,-11.9296127 33.4965,-13.5480157 4.4831,-2.742195 1.9492,-2.525501 -4.908,0.419602 -3.642,1.564402 -11.9939,4.659419 -18.5598,6.8781352 -6.5659,2.21869 -13.2638,4.6058137 -14.8844,5.3051074 -1.6205,0.6992144 -3.0958,1.1224948 -3.2776,0.9405144 -0.4048,-0.4046273 2.1365,-1.4325071 21.1159,-8.541094 20.7978,-7.789598 21.3312,-8.022431 22.2297,-9.701212 1.0044,-1.876716 -0.5323,-3.739012 -5.4282,-6.578918 -1.8907,-1.096698 -6.8889,-3.737239 -6.8889,-3.737239 -2.3495,-5.980271 -10.228,-10.584154 -14.658,-11.699558 -2.41,-0.606901 -4.4741,-1.897221 -6.7603,-4.226612 -1.8103,-1.844411 -4.1058,-3.231515 -3.9217,-3.376004 0.1836,-0.144436 6.2826,-1.96559 12.3727,-3.753803 12.4402,-3.652387 17.5644,-5.810461 17.5644,-7.396956 0,-1.739397 -2.5675,-1.307306 -18.5793,3.127984 -8.328,2.307219 -15.4477,4.195101 -15.8218,4.195101 -0.3736,0 -5.0724,-2.872396 -10.441,-6.383073 -5.3684,-3.510624 -12.6815,-7.836244 -16.2518,-9.611836 -3.5703,-1.775804 -9.1249,-4.585759 -12.355,-6.221307 -4.395,-2.225463 -11.2844,-4.063391 -18.2575,-4.21423 z m 109.1287,0.986499 v 5.29e-4 c 0.408,0.003 0.9353,0.04101 1.6113,0.10541 2.0193,0.192484 3.1774,0.719402 3.4068,1.550299 0.1913,0.692283 0.5712,2.03208 0.8424,2.977092 0.616,2.141379 0.031,2.136696 -3.8089,-0.0336 -1.7047,-0.963295 -3.1536,-2.402417 -3.2769,-3.256121 -0.1471,-1.013698 0,-1.348449 1.2253,-1.343607 z m 8.5466,0.546735 c 0.6855,-0.02569 1.6253,0.05371 2.8598,0.183991 2.4152,0.254899 4.4728,0.531945 4.5728,0.614944 0.1,0.08329 -0.2511,1.647111 -0.7802,3.475223 -0.5292,1.828112 -1.2989,3.387381 -1.7095,3.463369 -2.3582,0.440214 -4.3,-0.732181 -5.3417,-3.22617 -1.4266,-3.414607 -1.6579,-4.434681 0.3988,-4.511357 z m 9.5758,1.637638 c 0.041,-0.0053 0.086,-7.14e-4 0.1354,0.01291 h 3e-4 c 0.2363,0.0662 0.5673,0.348456 1.076,0.808752 1.8447,1.6687 2.0029,4.306358 -0.05,4.846214 l -0.9549,0.251142 c -2.4556,0.645557 -2.3871,0.72771 -1.7968,-0.797375 0.2844,-0.735012 0.7104,-2.293434 0.9462,-3.463342 0.2235,-1.106805 0.3519,-1.620864 0.644,-1.658303 z m -126.8998,0.235638 c 1.6217,-0.02839 3.5804,0.09062 5.2502,0.36793 4.0579,0.674237 4.514,1.701165 1.8605,4.194069 -1.6658,1.512596 -3.5729,1.699207 -6.4482,0.648546 -1.7166,-0.952976 -4.4031,-4.195101 -3.8906,-4.69429 0.3209,-0.312261 1.6062,-0.487839 3.2281,-0.516255 z m -6.3807,1.019069 c 0.089,-0.009 0.1792,-0.0072 0.2689,0.0098 0.7183,0.132556 1.4197,1.181206 1.8904,2.483062 2.9057,8.03648 13.2548,8.729054 16.4619,1.101725 0.6715,-1.596893 1.1678,-1.945614 2.0103,-1.41232 1.8579,1.1761 -1.3981,6.14352 -5.4163,8.17626 -6.2209,3.147298 -14.4569,-0.990123 -16.3994,-9.697614 0,0 0.5627,-0.599784 1.1842,-0.660929 z m -3.5822,1.461929 c 0.3726,0.01029 0.5133,0.298476 0.5133,0.834046 0.8827,8.948526 11.0501,15.414625 19.3321,11.978613 2.6236,-1.088469 5.9407,-4.660159 6.69,-6.58876 0.9419,-2.423001 1.7436,-2.147252 3.3316,1.145673 1.4288,2.962883 2.5921,17.220009 1.6796,19.598295 0,0 -0.893,-1.302967 -3.3317,-3.31298 -5.9086,-4.870503 -8.383,-1.981808 -3.7975,4.433306 1.3867,1.940295 3.1655,4.438068 3.4618,4.927864 0,0 -1.5804,0.945383 -5.0231,2.076874 -2.8382,0.932629 -20.3422,7.306971 -24.6486,8.597423 -3.0422,-3.384603 -4.4339,-13.22578 -2.6035,-22.397085 1.3467,-11.291622 1.0925,-12.969239 -1.9643,-12.969239 -2.3921,0 -3.2149,2.127594 -4.3563,11.259793 -0.9626,7.998195 -2.0558,20.203662 2.6164,26.558584 -4.9702,1.963181 -8.6939,2.98786 -13.3432,4.769723 -0.5249,0.187695 -0.9575,0.0467 -0.9355,-0.313161 0.1735,-6.278404 1.679,-19.42121 2.6593,-23.211499 2.8167,-10.891414 8.4296,-19.940534 15.4953,-24.981429 2.3389,-1.6687 3.6042,-2.423345 4.2243,-2.406041 z m 36.2257,9.0873 c 0.8787,0 21.6088,13.201835 21.7715,13.897848 -3.393,1.950111 -16.0387,5.380989 -19.8257,7.059533 -1.6418,0.48969 -1.6693,0.372718 -1.5327,-6.601672 0.076,-3.905409 -0.1384,-8.732943 -0.476,-10.728034 -0.3495,-2.062718 -0.3223,-3.627675 0.063,-3.627675 z m 85.1805,7.020745 c 0.1617,-0.0057 0.3072,-0.0035 0.4392,0.0078 0.8803,0.0748 1.1592,0.545703 1.5931,1.687751 0.9207,2.42099 3.2485,2.590747 4.7395,0.345731 l 1.0819,-1.629357 4.5481,2.202444 c 3.3049,1.600094 4.548,2.619058 4.548,3.728958 0,1.389512 -0.5512,1.539558 -6.1093,1.654175 -5.8092,0.120386 -16.8939,-1.29495 -18.6526,-2.381779 -2.5931,-1.602766 0.593,-4.527629 5.8545,-5.374349 0.8432,-0.135599 1.4726,-0.224314 1.9576,-0.241326 z m -58.3898,10.790052 c 0,0 4.881,3.798729 7.5639,6.169131 -1.2316,-0.365258 -2.1548,-1.215099 -4.0849,-2.162652 -1.5409,-0.756417 -2.7646,-0.684609 -13.7247,3.032893 -6.6906,2.269199 -11.7814,3.912314 -11.7814,3.925331 -1.2017,-1.358767 -1.8928,-2.020305 -2.8551,-2.865966 0.3855,-0.320834 21.7662,-7.227967 24.8822,-8.098737 z m 52.0962,5.957781 c -1.6613,0.09089 -3.343,1.181048 -4.0561,3.084037 -0.2614,0.698288 -0.1966,4.993587 0.1447,9.545663 0.548,7.310888 0.9211,8.831951 3.1962,13.036947 4.2405,7.8375141 6.798,5.944976 6.7519,-5.000731 -0.032,-8.08138 -1.261,-16.839564 -2.6617,-18.977662 -0.8027,-1.225127 -2.0831,-1.75895 -3.375,-1.688254 z m -49.3057,0.244925 5.8561,3.076311 c 5.8385,3.067076 5.8843,3.630797 5.8843,3.630797 -0.2667,3.894667 0.7287,6.770899 0.9107,7.324593 0.2148,0.652092 -1.3115,1.634278 -4.3326,2.787967 -6.9379,2.6493 -9.7485,4.244684 -8.9267,5.066851 1.0181,1.017825 13.2921,-4.782529 15.1749,-7.176294 1.0051,-0.04781 1.5248,-1.688333 1.9915,-2.387971 l 1.506,3.041148 c 0.7832,1.581811 1.3198,2.931371 1.2158,2.986405 -0.1032,0.05498 -3.7148,1.582499 -8.0254,3.394604 -7.9023,3.321711 -9.3003,4.25614 -8.0949,5.407951 0.7271,0.694796 19.3127,-7.883763 20.3123,-9.375669 0.3435,-0.513398 0.4429,-1.964002 0.2202,-3.22408 l -0.4056,-2.291345 1.9671,2.48203 c 2.1725,2.740289 4.4202,3.199183 5.6103,1.145672 0.7204,-1.244388 1.0231,-1.201023 4.3852,0.631984 1.9862,1.082913 3.7277,2.316665 3.8684,2.741453 0.3514,1.054392 -35.2057,14.3459203 -36.771,13.745422 -0.8924,-0.3428206 -2.2121,-1.2092517 -2.2121,-1.2092517 2.5648,-1.4157323 0.3659,-3.2498773 -2.2956,-1.7895353 0,0 -2.278,-0.953956 -3.2027,-2.216415 2.6759,-1.118288 0.7855,-2.727722 -1.8098,-1.532202 -0.8993,-1.242404 -1.6388,-1.332892 -2.6003,-2.376091 2.0746,-1.069578 -1.3084,-2.455254 -2.8636,-1.164775 -0.6191,0.513715 -1.9045,1.383189 -2.435,1.179777 -0.5969,-0.228997 -1.0072,0.329909 -1.0763,1.46812 -0.087,1.428486 2.2778,0.553852 3.3192,0.223229 l 2.4847,2.229326 c -2.2016,1.057857 -1.5989,2.619243 1.7243,1.74461 0,0 0.8496,0.436324 1.6703,1.045924 1.2597,0.9355934 1.4428,1.202505 1.4428,1.202505 -2.549,1.7210088 -0.6281,2.5071652 2.3265,1.4970654 0,0 3.0652,1.8781713 0.3997,2.9264504 -0.99,0.389599 -5.0593,1.9776017 -9.0426,3.528986 -3.9833,1.55141083 -17.6715,6.1617224 -22.669,8.0883918 -2.7382,1.0557139 -2.7075,1.4684639 -5.4306,0.1684602 -4.1044,-1.6213931 -32.5083,-16.1274123 -37.3814,-19.0996088 -3.2578,-1.987259 -3.0726,-1.147075 0.3821,-2.883033 1.5658,-0.758719 9.3596,-4.385918 12.5749,-5.366596 0,0 0.3294,-0.07858 2.8723,1.041294 3.8841,1.710875 17.7019,1.633643 21.6601,-0.120941 2.595,-1.150303 3.8137,-1.205839 10.1259,-0.46146 6.0729,0.716307 8.8495,-1.291722 11.9501,-2.305817 0,0 2.44,1.445419 4.2278,1.193747 2.8199,-0.396981 2.0868,-0.967793 -0.8848,-3.825108 -0.4863,-1.906852 -1.4689,-5.563605 -2.0679,-6.435248 -0.7443,-1.082358 -2.6967,-1.335643 -4.9435,-1.967336 l 5.1041,-1.878436 c 3.507,-1.333421 8.6098,-3.209158 11.3397,-4.168748 z m 83.6452,1.433513 c -2.4078,0.134858 -12.3296,4.996259 -18.3515,9.076451 -4.5281,3.068479 -4.9851,3.625348 -5.21,6.345344 -0.1748,2.115105 0.1241,3.252787 1.0295,3.914484 1.3873,1.014597 1.8923,0.872066 7.6849,-2.168843 10.8929,-5.718995 19.5572,-15.467541 15.2249,-17.130236 -0.09,-0.03469 -0.2175,-0.0462 -0.3778,-0.0372 z m -35.3494,0.894 c 0.3069,0.02299 0.699,0.216985 1.1787,0.575681 1.1557,0.863203 2.7755,8.431821 2.8212,13.175932 0.011,1.094899 -0.5254,1.55866 -1.8941,1.637639 -1.7725,0.102208 -1.9132,-0.144489 -1.9542,-3.436488 -0.024,-1.95072 -0.3347,-5.264706 -0.689,-7.364915 -0.5374,-3.184948 -0.3834,-4.656508 0.5374,-4.587849 z m -82.8808,1.73736 c 0,0 0.9726,0.989145 1.1565,1.514131 0.2136,0.606822 -0.3958,0.954458 -1.6732,0.954458 -1.1385,0 -2.7379,1.51392 -3.6973,2.549208 0,0 -4.3757,1.309079 -10.7606,3.69435 -4.7321,1.767708 -6.7971,2.443586 -8.4656,2.747116 -1.5211,0.23159 -5.3179,-1.401048 -6.0246,-1.785435 0,0 26.2142,-9.52963 29.4648,-9.673828 z m 115.4999,0.544672 c 0.254,0.03027 0.4167,0.160707 0.4167,0.375681 0,1.035209 -1.3573,1.67775 -1.852,0.876962 -0.2368,-0.382799 0.083,-0.893101 0.7109,-1.133793 0.1569,-0.06019 0.3064,-0.09819 0.4429,-0.115226 0.1024,-0.01281 0.1971,-0.0137 0.2815,-0.0036 z m -3.0136,2.28256 c 0.7536,-0.03511 1.1385,0.327845 1.1385,1.094502 0,0.4055 -2.776,2.649987 -6.1698,4.987819 -3.3935,2.337673 -6.2743,4.250372 -6.4021,4.250372 -0.1276,0 -0.4038,-0.652991 -0.612,-1.45108 -0.2932,-1.122204 0.9067,-2.348389 5.2954,-5.412582 3.2165,-2.245809 5.494,-3.410479 6.75,-3.469031 z m -72.5022,4.471035 c -1.4885,-0.124301 -15.7787,7.421933 -15.327,8.152474 0.5135,0.831294 5.9216,-1.181603 11.2572,-4.189915 3.6309,-2.04732 4.8787,-3.220641 4.1733,-3.925861 -0.021,-0.0204 -0.055,-0.0327 -0.1035,-0.0367 z m -45.0881,1.678966 c -0.7287,0.740648 -0.041,2.550875 -1.5047,2.534735 -0.349,-0.004 -1.836,0.678736 -4.4979,0.751364 l -5.4298,0.148325 z m 102.7313,3.557932 c 0.4122,-0.0241 0.7244,0.361209 0.7244,0.943081 0,0.66503 -0.5437,1.209225 -1.2086,1.209225 -1.3491,0 -1.1139,-1.644253 0.3022,-2.116138 0.062,-0.0209 0.123,-0.03268 0.182,-0.03617 z m -10.6283,3.758935 c 0.5308,0.04133 0.6802,0.406294 0.5313,1.178745 -0.1479,0.768377 -0.898,1.518259 -1.6661,1.666055 -1.0086,0.19431 -1.3229,-0.118798 -1.1282,-1.127601 0.1482,-0.768403 0.898,-1.518232 1.6666,-1.666028 0.126,-0.02432 0.2408,-0.04101 0.3453,-0.04911 0.092,-0.007 0.1752,-0.008 0.2511,-0.0021 z m -116.8781,19.2112369 c 0.03,-0.046117 0.4448,0.1500717 1.2695,0.5498307 0.9451,0.45809954 1.719,0.99274308 1.719,1.18803203 0,0.5842 -0.3958,0.41529 -1.954,-0.83301413 -0.7117,-0.5702565 -1.0652,-0.8587052 -1.0345,-0.9048486 z m -29.0676,0.7549886 c -2.1628,0.004 -2.0855,1.06994851 -6.535,5.6032664 -13.1575,14.3530371 -12.8101,13.3124041 -13.091,19.4417151 -0.2353,5.124741 -1.6926,4.819253 3.0027,6.388232 1.7825,0.659289 11.6602,3.755708 21.9506,6.880728 10.2905,3.125179 19.9131,6.212179 21.3831,6.860566 1.4703,0.6486 3.1885,1.102731 3.8185,1.008724 0.63,-0.09372 2.6921,-3.121051 4.5821,-6.727242 3.562,-6.795797 8.0351,-14.082422 9.721,-15.835207 0.5337,-0.555016 0.9705,-2.663375 0.9705,-4.684474 0,-3.309514 0.9059,-4.198488 -1.8063,-6.648688 -1.656,-1.4964042 -5.525,-2.8220196 -7.1239,-3.2550896 -1.5989,-0.4329906 -8.5775,-2.350135 -15.5078,-4.2602149 -6.9305,-1.9101065 -15.5868,-4.25174832 -18.2044,-4.51135748 -1.4695,-0.14573252 -2.4392,-0.26228142 -3.1601,-0.26095852 z m 0.9427,3.7005418 c 2.1947,0.031618 6.0595,1.0121635 13.5562,3.2892206 6.0864,1.8486966 19.0799,5.6156491 23.1748,6.7644431 2.1336,0.603859 3.5883,0.20828 1.6036,3.479377 -1.1575,1.908757 -7.8713,13.16101 -9.7623,15.801604 -2.1174,2.956825 -1.1689,2.945792 -4.5109,1.23661 -3.3276,-1.63703 -21.3169,-6.91015 -39.3633,-11.548639 -2.1249,-0.546153 -3.2724,-0.873337 -1.4844,-2.893351 4.2241,-4.771655 14.2037,-15.3079451 14.6437,-15.6166345 0.4921,-0.3452283 1.1448,-0.5269971 2.1426,-0.5126302 z m 92.6346,4.3806268 c -0.8253,-0.00302 -1.6121,0.1094317 -2.3363,0.3415771 -3.243,1.0398125 -8.7823,6.5698158 -8.7823,8.7674188 0,4.209891 3.7896,8.298656 9.7036,10.469139 5.0921,1.86891 7.2866,1.486482 11.1895,-1.949239 3.1652,-2.786089 3.5446,-3.464507 3.5446,-6.346904 0,-3.435323 -0.9898,-4.934056 -5.5145,-8.3488475 -2.5072,-1.8919561 -5.3287,-2.92608 -7.8046,-2.9331444 z m -27.2781,0.3022865 c 0.1167,-0.012197 0.1977,-0.011483 0.2384,0.00312 0.3241,0.1135062 -2.1217,1.2630679 -5.4353,2.5543668 -5.3986,2.1034906 -6.2092,2.2364966 -7.7986,1.2831236 -1.0033,-0.60153 -1.1829,-0.881618 -0.4143,-0.644419 0.7477,0.230716 3.9915,-0.4396586 7.2088,-1.4898162 2.8146,-0.918845 5.3851,-1.6207582 6.201,-1.7058482 z m 27.6905,2.1182277 c 2.7311,0 9.0308,3.8126197 9.0633,5.4844157 0.013,0.706384 -0.9736,1.995196 -2.1936,2.863903 -1.2195,0.868706 -2.68,1.541991 -3.2451,1.495001 -1.7939,-0.147108 -10.8501,-4.177083 -11.0681,-4.925271 -0.3595,-1.23362 5.2165,-4.9180487 7.4435,-4.9180487 z m -7.938,8.0356867 v 0 c 0.5403,-0.004 1.629,0.419259 3.3382,1.246426 5.1187,2.477611 9.2578,2.712667 12.1031,0.686779 3.2457,-2.312088 3.128,-0.334063 -0.1717,2.863929 -1.3853,1.342416 -3.1895,2.422895 -4.0095,2.400882 -2.9225,-0.07789 -9.5755,-3.169655 -10.7812,-5.010044 -0.9634,-1.470157 -1.175,-2.182548 -0.4805,-2.187972 z m -44.6066,0.967396 c 0.2222,-0.04763 0.3328,0.262917 0.4159,0.850053 0.1699,1.200388 -0.7874,3.319119 -2.7683,6.128332 -1.6656,2.36138 -4.4493,7.120149 -6.1863,10.575052 -1.7369,3.454797 -3.4123,6.246707 -3.7226,6.201701 -1.8026,-0.255826 -20.22,-6.683745 -19.2749,-6.72674 0.6305,-0.029 4.5495,0.814096 8.709,1.873806 4.1603,1.059709 7.9409,1.782709 8.401,1.606602 1.4505,-0.555095 -6.2809,-3.615398 -13.1675,-5.212079 -12.3277,-2.858215 -29.9066,-7.805976 -29.9066,-8.41756 0,-0.926995 0.7128,-0.792375 9.2556,1.751806 4.3598,1.29831 11.3634,3.203099 15.5633,4.232301 9.3213,2.28391 18.0399,4.897014 19.1585,5.742808 1.369,1.034203 4.1804,-2.77069 11.0908,-15.008384 1.3804,-2.444459 2.0617,-3.518349 2.4321,-3.597698 z m 18.679,5.224463 c -2.8535,-0.02119 -3.3649,0.289454 -4.097,1.729104 -1.6828,3.3097 -0.3099,4.838648 6.7257,7.489455 3.5695,1.344692 9.0334,3.134307 12.143,3.977031 4.2241,1.1448 7.9132,1.519661 14.5897,1.484657 10.1756,-0.05419 12.3679,-0.803116 10.0242,-3.425613 -3.6393,-4.072626 -26.8049,-10.915253 -38.0111,-11.227753 -0.5109,-0.01429 -0.967,-0.02376 -1.3745,-0.02688 z m -1.634,1.994217 c 0.2119,-0.003 0.5,0.06289 0.8675,0.218572 2.0349,0.862489 15.2392,4.080404 20.619,5.02502 2.6249,0.460983 4.7615,1.06045 4.7615,1.33223 -0.049,2.061607 -1.7381,1.998927 -12.2071,-0.45167 -6.0902,-1.425708 -11.8465,-3.092345 -12.7916,-3.704167 -1.6613,-1.075478 -2.1685,-2.404666 -1.2493,-2.419985 z m -74.1635,2.244804 c 0.8398,-0.0122 2.7302,0.441193 4.2002,1.00719 3.4404,1.325403 1.333,1.341993 -2.6733,0.0217 -1.6809,-0.5538 -2.3673,-1.015365 -1.5269,-1.028357 z m 106.3228,5.366094 c 0.4006,-0.007 1.0041,0.308795 1.5367,0.841296 1.3803,1.380278 0.5543,1.732756 -1.3047,0.557054 -0.6178,-0.39079 -0.8673,-0.966206 -0.5545,-1.27897 0.078,-0.07821 0.1889,-0.116919 0.3225,-0.11938 z" fill="#00B894" transform="translate(45.930012,-53.774997) translate(-1991.6677,193.8074)"/>
</svg>