<?xml version="1.0" ?><svg height="116.74275mm" viewBox="0 0 105.68522 116.74275" width="105.68522mm" xmlns="http://www.w3.org/2000/svg">
    <path d="m 3418.7363,10272.971 c -28.4371,-0.03 -51.2109,2.079 -54.2461,10.484 -6.9374,19.211 26.8145,49.229 26.8145,49.229 -43.8928,47.786 -84.3154,128.831 -83.2481,209.996 1.0672,81.165 105.9297,165.812 105.9297,165.812 0,0 45.3592,15.489 94.4551,16.93 49.096,1.441 115.4024,-9.004 115.4024,-9.004 0,0 33.8877,-33.38 57.1015,-67.238 23.2138,-33.859 35.2208,-65.798 35.6211,-155.608 0.4003,-89.81 -97.5254,-165.57 -97.5254,-165.57 0,0 34.5543,-21.373 35.0879,-38.182 0.5337,-16.81 -82.4494,-18.13 -127.543,-15.009 -25.3651,1.756 -71.2876,-1.806 -107.8496,-1.84 z" fill="#FFFFFF" transform="translate(-71.133583,-146.49175) matrix(0.24104894,0,0,0.24104894,75.406558,-1738.1685) translate(-3313.5291,-2437.8203)"/>
    <path d="m 121.98173,8300.3266 c -42.182563,-2.2259 -51.886019,-17.6473 -49.930852,-33.6855 1.103979,-9.0533 -4.471348,-16.6487 -22.132664,-30.1403 -16.912439,-12.9172 -29.453497,-29.491 -44.2172798,-58.4288 -17.9742272,-35.2289 -20.9060992,-46.0249 -22.9218572,-84.4028 -1.418999,-27.0557 0.200521,-51.8378 4.204495,-64.3378 7.4190422,-23.1472 48.067229,-93.1249 64.379893,-110.828 l 10.876769,-11.8039 -11.326799,-12.0582 c -15.942585,-16.9721 -25.716609,-36.1452 -15.420424,-56.0554 9.584809,-18.5356 21.755871,-16.2588 65.877069,-15.7076 111.61901,1.3945 198.76438,-8.7077 219.25479,-1.9455 35.89923,11.8461 39.11588,40.5727 15.52683,61.921 -10.0237,9.0721 -9.74595,9.5924 13.71536,25.7618 27.85378,19.1919 48.89066,71.3098 61.36961,114.1962 20.20914,69.4499 8.91704,157.1095 -41.84138,203.8986 -21.16193,19.5059 -23.62069,24.0332 -20.95684,38.5982 4.11589,22.5191 0.87832,27.3826 -26.02853,32.5814 -26.94435,5.2046 -130.0299,6.1513 -175.66305,3.7434 z m 124.09222,-29.3326 c 58.79449,-5.3124 72.41088,-7.8301 102.96836,-52.3924 28.96948,-42.2407 41.42161,-99.9381 38.61478,-146.6263 -1.40283,-23.3547 -7.19227,-51.614 -14.23804,-69.5144 -10.56632,-26.8388 -13.51495,-30.1648 -26.74981,-30.1648 -11.27183,0 -16.87962,3.8662 -23.13433,15.9631 -4.54014,8.7826 -14.09741,18.6294 -21.24046,21.885 -10.91673,4.975 -20.43733,-4.884 -33.77414,-14.7448 -26.42518,-19.54 -32.81817,-14.0412 -39.06468,33.5975 -6.63676,50.6096 -11.8769,76.2641 -43.29341,88.2626 -21.18772,8.0958 -25.38214,8.2576 -37.61146,1.4802 -23.70624,-13.1435 -33.2423,-38.8127 -30.04123,-80.8671 3.82537,-50.2498 0.18095,-53.8312 -29.205863,-28.714 -25.90869,22.1476 -44.858685,31.3357 -64.612521,31.3357 -38.178211,0 -14.044553,125.2004 35.020623,171.3038 40.456131,38.0123 38.986765,66.264 186.362181,59.1959 z M 189.5808,8088.0052 c 9.96511,-9.9651 12.14142,-18.1043 18.84382,-70.4636 4.05847,-31.7025 20.82793,-50.4947 45.06389,-50.4947 9.28186,0 21.85653,7.1278 26.92757,11.7184 12.45199,11.2671 21.76624,2.5076 40.10654,-16.7238 6.18861,-6.4893 19.95648,-18.5466 28.63755,-16.3627 l -26.47389,-25.4186 c -12.62518,-12.1219 -22.60564,-15.717 -30.50929,-13.1798 -5.77303,1.8529 -50.68316,-0.6876 -101.25757,0.278 -50.57676,0.9657 -90.79624,-0.1217 -97.996712,2.6183 -8.700806,3.3061 -28.77194,27.6284 -43.508298,54.7415 -12.196153,22.4394 -21.101816,41.8739 -19.792863,43.1864 1.309071,1.3079 9.926895,7.3874 21.186306,-1.5288 36.58154,-28.9753 65.625737,-46.9892 82.874057,-27.9298 8.13335,8.9854 9.59595,18.0633 8.57518,53.2207 -1.72746,59.5434 21.50209,82.1637 47.32371,56.3385 z m -28.13857,-8.4884 c -9.54906,-9.5468 -9.96393,-12.5106 -3.25216,-23.1297 5.53161,-8.7498 6.25119,-8.1849 14.68455,11.4652 7.17704,16.7238 0.46879,23.568 -11.43239,11.6645 z m 149.24319,-201.8481 c 8.81074,-5.2046 36.24511,-32.8063 7.58743,-36.5082 -14.58061,-1.8834 -249.753602,1.859 -254.808934,4.6201 -5.323241,2.9065 3.674124,26.6748 17.68797,34.003 14.509469,7.5873 25.115614,5.996 112.041404,4.0588 84.95246,-1.8927 103.9807,1.8073 117.49213,-6.1737 z" fill="#00B894" transform="translate(-71.133583,-146.49175) matrix(0.24104894,0,0,0.24104894,75.406558,-1738.1685)"/>
</svg>