<?xml version="1.0" ?><svg height="193.84087mm" viewBox="0 0 182.92151 193.84087" width="182.92151mm" xmlns="http://www.w3.org/2000/svg">
    <path d="m 26999.436,3714.7148 c 0,0 -18.134,2.4527 -19.262,25.7911 -1.127,23.3383 7.235,46.6764 33.543,54.625 26.309,7.9485 78.735,-23.6776 95.554,-29.1739 10.642,-3.4779 17.387,0.5214 20.922,3.9317 -18.592,20.9332 -19.535,48.7168 -19.535,48.7168 0.188,28.4964 -4.604,70.6908 37.207,86.5879 41.811,15.8972 72.35,-6.0888 91.987,-21.4786 19.637,-15.3897 41.245,-58.9364 32.601,-89.5468 -6.212,-22.0012 -31.825,-51.1895 -63.732,-51.0801 -12.485,0.043 -31.34,3.1467 -45.541,6.8555 -6.713,1.753 -12.518,4.2723 -17.625,7.2695 -5.114,-8.0444 -12.307,-18.5652 -17.961,-23.5567 -9.772,-8.625 -31.758,-9.0469 -49.516,1.6075 -17.758,10.6544 -45.757,23.9301 -63.703,18.6875 -17.946,-5.2427 -17.476,-24.2694 -14.939,-39.2364 z m 93.07,210.9747 c -12.19,0.2889 -24.053,3.5723 -33.619,10.707 -34.012,25.3677 -99.594,98.68 -81.742,187.7207 17.852,89.0408 79.768,92.0002 126.841,87.9414 40.403,-4.0588 40.778,-24.5214 31.852,-36.6133 -8.926,-12.092 -49.984,-48.5369 -20.106,-94.5371 29.879,-46.0001 47.356,-79.7397 43.786,-113.1406 -2.567,-24.0069 -35.859,-42.8166 -67.012,-42.0781 z" fill="#FFFFFF" transform="translate(-199.16076,60.243923) matrix(0.26458333,0,0,0.26458333,-6001.2783,-394.1465) translate(-3313.5291,-2437.8203)"/>
    <path d="m 23778.337,1990.7446 c -13.365,-5.3695 -15.475,-12.9599 -9.621,-34.693 3.83,-14.2222 14.647,-28.4147 47.47,-62.2741 70.959,-73.2023 77.392,-99.8473 28.214,-116.8727 -15.178,-5.2556 -18.96,-4.9947 -35.846,2.4752 -13.818,6.1136 -26.208,7.9645 -46.249,6.9106 l -27.368,-1.4393 -4.874,21.1658 c -6.143,26.6621 -24.039,63.2596 -35.791,73.19 -26.395,22.304 -64.151,-3.8297 -98.148,-67.9383 -11.274,-21.2604 -22.451,-38.6311 -24.84,-38.6015 -7.397,0.09 -21.207,28.1209 -28.414,57.682 -4.991,20.4775 -9.046,28.6632 -14.745,29.7604 -25.469,4.9052 -17.169,-63.9347 11.241,-93.2496 15.966,-16.4705 33.826,-19.1608 46.02,-6.9324 4.174,4.1874 18.884,24.6005 32.687,45.3626 28.762,43.2701 47.259,59.4985 57.819,50.7335 8.652,-7.1788 25.415,-40.3741 31.441,-62.2648 4.656,-16.9065 4.471,-17.3577 -14.99,-36.0029 -28.62,-27.4203 -40.706,-56.1414 -40.758,-96.8408 -0.06,-49.5209 15.77,-95.616 43.816,-127.5593 7.389,-8.4173 12.746,-15.275 11.903,-15.2388 -0.842,0.036 -9.341,2.8786 -18.888,6.3165 -39.175,14.1139 -71.474,2.699 -65.154,-23.0262 3.513,-14.3132 29.624,-41.7979 46.246,-48.6837 8.539,-3.535 12.4,-8.2318 12.4,-15.0694 0,-5.7667 5.599,-14.6449 13.35,-21.1646 13.741,-11.5637 25.693,-14.6816 25.693,-6.7029 0,2.4908 2.441,4.2116 5.425,3.8241 11.251,-1.4609 15.322,0.573 17.452,8.7212 1.718,6.5681 -1.48,9.8677 -14.677,15.1485 -18.499,7.4015 -22.154,11.6783 -7.581,8.8717 5.112,-0.984 12.069,-0.2375 15.458,1.6598 14.72,8.2373 -22.603,20.2325 -41.087,13.2049 -8.124,-3.0889 -13.31,-1.584 -24.841,7.212 -18.731,14.2884 -30.409,31.8289 -24.874,37.3643 4.158,4.1583 61.929,-9.6953 111.386,-26.7113 33.581,-11.5529 72.371,-0.9294 95.057,26.0347 10.428,12.3933 11.863,17.4692 10.887,38.5157 -1.106,23.9125 -0.868,24.4331 17.408,38.3743 10.34,7.8869 23.705,14.1328 30.242,14.1328 24.214,0 98.297,-28.5184 141.618,-54.5167 11.076,-6.6466 24.126,-10.4395 36.077,-10.4852 33.968,-0.1309 48.101,16.8961 14.642,17.6357 l -16.012,0.354 13.767,6.0303 c 16.2,7.0958 29.247,23.5647 23.344,29.4667 -2.47,2.4701 -10.082,0.4464 -19.731,-5.2459 -20.069,-11.8401 -23.263,-11.7119 -12.275,0.4929 16.866,18.7373 17.619,37.9606 1.14,29.1421 -6.56,-3.5105 -8.415,-3.0913 -8.415,1.9012 0,13.5555 -8.716,10.8741 -15.216,-4.6802 -11.816,-28.2792 -17.477,-32.1103 -37.178,-25.1598 -9.315,3.2862 -26.66,8.1024 -37.015,14.1701 -24.936,14.6135 -63.983,25.9653 -82.281,25.9653 -16.961,0 -34.834,-7.7334 -52.856,-20.6472 l -12.741,-9.1294 -11.668,15.2968 c -16.749,21.9536 -32.935,58.7092 -32.983,74.8866 -0.02,10.7573 4.366,18.2458 19.48,33.1429 10.737,10.5852 19.521,23.0564 19.521,27.7135 0,6.0871 4.764,9.8958 16.948,13.5464 22.542,6.7533 43.785,31.0042 43.785,49.9805 0,27.2867 -22.762,62.7915 -69.882,108.997 -41.711,40.9019 -43.567,43.4617 -32.475,44.7788 6.469,0.7686 23.104,-2.4333 36.969,-7.1149 47.158,-15.9256 47.578,4.0244 0.597,28.4934 -27.512,14.3302 -42.332,16.6977 -60.029,9.5901 z m -6.41,-235.7924 c -15.556,-11.8085 -8.967,-16.2335 19.522,-13.11 l 27.113,2.9729 -10.525,-19.2718 c -9.971,-9.7951 -17.189,-21.711 -19,-31.3721 -3.902,-20.7969 4.623,-59.6271 30.263,-95.2549 l 14.2,-19.7311 -12.654,-21.8671 c -15.882,-31.131 -6.953,-54.8012 10.581,-28.0444 4.041,6.172 8.435,10.1377 9.761,8.8118 4.918,-4.9195 -7.998,-28.9474 -27.729,-40.5103 -18.177,-10.6525 -25.665,-5.1127 -39.93,-1.8495 -34.59,7.9127 -67.091,50.8899 -79.939,76.0296 -21.312,41.6866 -27.735,97.746 -14.765,128.8461 13.961,33.4712 38.472,67.0236 85.511,60.1566 13.404,-1.9568 14.364,-0.6644 7.591,-5.8058 z m -330.345,139.8381 c -7.288,-10.4054 -8.993,-21.8552 -3.997,-26.8514 1.625,-1.6239 5.666,5.0715 8.982,14.8792 7.044,20.8389 4.876,26.0485 -4.985,11.9722 z m 46.689,-4.6343 c -17.362,-7.9459 -26.803,-43.544 -19.119,-72.0775 6.306,-23.4226 17.323,-24.8788 13.432,-1.7756 -3.703,21.9879 2.099,56.7462 11.137,66.7344 9.032,9.9804 6.897,12.7696 -5.45,7.1187 z m 334.456,-420.0547 c -21.907,-14.7628 -33.428,-30.7797 -35.729,-66.6397 -1.623,-25.2837 -0.335,-34.6437 6.797,-49.4041 4.838,-10.0154 8.333,-18.2101 7.763,-18.2101 -0.569,0 -17.867,0.3595 -36.708,11.0966 -40.25,22.9373 -59.896,27.8964 -83.384,12.2525 -31.996,-21.3113 -33.181,-59.1297 -7.577,-84.7315 15.408,-15.4094 26.678,-16.9053 23.045,-2.4363 -1.37,5.4614 -2.051,19.1873 0.41,25.6556 6.063,15.9552 23.626,18.2775 48.85,1.5036 10.738,-7.1395 29.848,-16.128 37.372,-17.5512 17.049,-3.2253 40.562,4.0147 46.748,17.5927 4.258,9.3439 5.048,9.4714 19.985,3.2311 24.381,-10.1888 67.379,-5.5232 85.878,5.9089 40.987,25.3325 47.316,90.7529 9.488,133.728 -9.467,10.7569 -15.164,19.5577 -12.663,19.5577 5.499,0 15.26,17.0754 11.766,20.5725 -1.364,1.3619 -9.848,-0.8483 -18.862,-4.9117 -14.98,-6.7546 -17.761,-6.8128 -32.442,-0.6791 -23.965,10.0143 -53.295,5.2195 -70.737,-6.5355 z m 85.121,-19.9532 c 31.242,-20.3758 48.672,-49.7048 45.68,-82.3723 l -31.257,3.8668 c -22.595,2.1317 -89.409,23.1512 -105.115,33.0671 -4.704,2.9716 -9.494,10.8709 -3.782,24.7128 3.832,9.294 15.778,21.3539 20.301,23.383 29.101,13.055 50.892,9.1389 74.173,-2.6574 z m -5.983,-25.938 c -5.55,-5.5512 6.208,-18.9516 16.629,-18.9516 12.306,0 13.636,5.1131 3.875,14.8738 -7.076,7.0787 -15.775,8.8079 -20.504,4.0778 z m -34.173,-58.2787 c 13.541,-5.1369 36.821,-10.37 51.732,-11.6291 14.916,-1.2596 27.117,-3.8661 27.117,-5.7922 0,-1.9266 -4.662,-12.98 -10.03,-19.1507 -20.172,-23.1862 -76.644,-20.6113 -106.275,7.8319 -10.621,10.1961 -23.46,39.9075 -23.46,51.2444 0,5.0484 8.773,5.5142 20.789,-2.6398 8.532,-5.7886 26.588,-14.7276 40.127,-19.8645 z m -106.052,-30.084 c 20.657,-9.5441 41.427,-17.3529 46.156,-17.3529 11.017,0 11.153,-11.3415 0.195,-17.2 -14.522,-7.7718 -32.15,-4.8998 -52.343,8.5274 -34.858,23.1789 -65.208,20.4233 -71.976,-6.5359 -3.705,-14.7687 -10.451,-9.2028 -10.451,8.6245 0,9.3725 3.708,19.6442 11.234,27.9424 25.26,27.8499 57.951,4.768 77.185,-4.0055 z" fill="#00B894" transform="translate(-199.16076,60.243923) matrix(0.26458333,0,0,0.26458333,-6001.2783,-394.1465)"/>
</svg>