<?xml version="1.0" ?><svg height="103.56143mm" viewBox="0 0 138.54961 103.56143" width="138.54961mm" xmlns="http://www.w3.org/2000/svg">
    <path d="m 6263.0181,-1447.9693 c -24.3832,-0.9009 -100.3929,9.7815 -120.1997,-47.749 -19.8069,-57.5306 11.9413,-125.8079 13.4429,-148.9102 1.5016,-23.1023 -5.4343,-37.0023 -21.5229,-51.2884 -16.0886,-14.2861 -8.2946,15.1871 -12.1559,32.562 -3.8612,17.375 -42.6884,115.3185 -44.762,140.6732 -2.0737,25.3546 -1.4301,80.2467 29.317,109.5912 30.7471,29.3444 66.3565,42.7295 91.5262,46.2689 25.1697,3.5394 106.9713,16.0236 145.9415,17.375 38.9701,1.3514 65.2839,-6.3708 65.2839,-6.3708 0,0 48.1943,4.1829 78.7269,-3.5393 30.5325,-7.7223 88.3084,-56.501 91.8122,-108.1112 3.5037,-51.6101 -2.7172,-81.9198 -32.0342,-141.3809 -29.317,-59.4612 -3.9327,-115.5116 -3.9327,-115.5116 0,0 -35.395,12.1625 -48.6949,36.1657 -13.2998,24.0033 -12.1558,76.2569 6.1495,121.8181 18.3052,45.5611 17.5901,81.3407 -6.4355,98.587 -24.0256,17.2463 -26.3853,21.4292 -47.7652,21.7509 -21.38,0.3218 -75.0801,-5.0838 -85.3768,-4.6333 -10.2968,0.4504 -37.1825,-4.0542 -43.332,-4.3116 -6.1494,-0.2574 -55.9883,7.0143 -55.9883,7.0143 z" fill="#FFFFFF" transform="translate(-260.44555,-211.24051) matrix(0.26458333,0,0,0.26458333,-1345.1105,669.3723)"/>
    <path d="m 6304.6145,-1343.2954 c -14.9556,-1.9741 -39.1189,-6.0255 -53.6959,-9.0033 -14.5773,-2.9777 -28.4389,-4.6058 -30.8039,-3.6182 -8.6009,3.5924 -49.4748,-3.142 -70.2959,-11.5817 -24.2205,-9.8177 -48.8521,-29.7904 -59.1153,-48.2746 -18.0627,-32.5304 -27.8902,-85.7042 -19.3276,-122.369 2.445,-10.47 11.3145,-35.1163 19.7094,-54.7695 18.2126,-42.6357 25.4144,-72.6788 24.5052,-102.2241 -0.3898,-12.6651 1.0515,-22.9525 3.4365,-24.5297 6.028,-3.9869 36.3878,25.8172 41.4105,41.9619 6.6672,21.4316 5.8111,32.5015 -6.2544,80.8752 -13.3268,53.429 -13.8486,80.7816 -1.9751,103.4997 9.1869,17.5772 22.6546,26.2017 52.8013,33.8122 21.0887,5.3242 57.8243,4.37 71.316,-1.8523 3.2738,-1.5098 9.5102,-0.9795 13.8587,1.1783 6.2431,3.0983 10.3965,2.6464 19.7465,-2.148 12.0706,-6.1899 20.7338,-5.3855 31.0503,2.8827 4.4791,3.5897 8.1405,3.6614 16.2587,0.318 8.429,-3.4715 13.3379,-3.1705 25.1018,1.5379 18.2963,7.3231 26.4744,7.7547 57.6748,3.0426 41.4344,-6.2575 60.633,-25.0186 63.902,-62.4454 1.2136,-13.8952 -1.3088,-25.2224 -12.5354,-56.2911 -18.3308,-50.7299 -20.9867,-67.9289 -14.4235,-93.4041 8.1257,-31.5411 40.5051,-64.0795 64.5006,-64.818 9.9969,-0.3076 10.3647,11.5319 1.0732,34.8736 -11.2931,28.4018 -6.6566,54.9496 17.5085,100.2431 24.6769,46.2535 32.9136,75.9066 31.7471,114.2897 -1.1873,39.0617 -12.0532,65.091 -38.7852,92.9081 -24.9298,25.9424 -44.1223,36.1348 -79.0751,41.9944 -23.9823,4.0203 -54.3472,2.859 -59.8211,-2.2884 -1.1083,-1.0421 -7.4418,0.5713 -14.0741,3.5854 -14.4552,6.569 -56.7036,7.7267 -95.4289,2.615 z m 90.746,-50.4662 c -2.0066,-19.216 -5.2848,-37.7821 -7.285,-41.2582 -5.106,-8.8734 -20.5143,-11.3538 -34.9487,-5.6266 -11.099,4.4041 -13.0746,4.1293 -21.069,-2.9307 -7.8569,-6.9389 -9.9789,-7.2689 -19.41,-3.018 -5.8235,2.6248 -15.3389,3.8815 -21.1452,2.7922 -6.7641,-1.2688 -11.8369,-0.2618 -14.1206,2.8034 -1.9601,2.6312 -3.9182,21.217 -4.3514,41.3021 -2.2694,33.5403 -5.2306,36.0823 26.9113,39.2353 15.2341,1.4947 43.7561,2.4747 63.3824,2.1779 38.2359,1.8806 35.7724,0.3062 32.0362,-35.4774 z m 79.3074,26.9165 c 30.0298,-8.7756 44.3531,-17.4657 63.2758,-38.3902 29.1354,-32.2174 40.0366,-71.3218 31.7974,-114.0619 -4.8745,-25.2869 -6.8673,-30.3864 -26.9066,-68.8621 -25.7847,-49.5071 -30.6403,-82.6872 -16.1024,-110.0389 l 8.5819,-16.1466 -11.5396,9.4529 c -15.8803,13.0082 -30.3391,43.9049 -29.7349,63.539 0.2649,8.606 7.7555,36.2193 16.6462,61.363 17.8648,50.5237 19.144,69.6475 6.7074,100.276 -13.214,32.5433 -57.2047,52.1411 -97.1069,43.2612 l -9.7135,-2.1618 1.8401,39.6557 c 1.9464,27.3567 -7.4425,39.9411 21.1605,39.0608 10.6262,-0.327 29.1188,-3.4528 41.0945,-6.9525 z m -224.5309,-36.0624 c 2.3485,-27.1269 2.0925,-28.6129 -5.983,-34.7507 -5.6633,-4.3045 -14.3017,-6.2317 -26.2802,-5.8631 -46.2342,1.4228 -77.2825,-18.1389 -89.6863,-56.5067 -8.8933,-27.5089 -7.1162,-46.8857 9.7312,-106.1101 10.188,-35.8127 12.6448,-49.8827 10.6402,-60.929 -4.4007,-24.2512 -18.5754,-33.5398 -17.9628,-11.5921 0.7432,26.6208 -6.2667,54.8484 -23.6984,95.4292 -22.5201,52.4265 -19.085,83.6172 -9.1428,124.3095 9.8697,40.3956 31.348,63.0971 70.9979,74.9503 20.4459,6.1122 65.8835,12.255 75.3441,10.1859 1.9727,-0.4314 4.6907,-13.5369 6.0401,-29.1232 z" fill="#00B894" transform="translate(-260.44555,-211.24051) matrix(0.26458333,0,0,0.26458333,-1345.1105,669.3723)"/>
</svg>