<?xml version="1.0" ?><svg height="96.351898mm" viewBox="0 0 72.642395 96.351898" width="72.642395mm" xmlns="http://www.w3.org/2000/svg">
    <path d="m 4796.0177,-1714.1534 c 5.7191,25.0657 33.2279,101.2923 76.2354,130.7845 43.0074,29.4921 87.3875,54.249 122.8458,54.4034 35.4583,0.1544 47.9259,17.088 39.1757,64.6459 -8.7502,47.558 -12.6963,83.0721 -44.0941,76.3296 -31.3978,-6.7425 -75.9494,-9.0072 -128.9653,-49.9771 -53.0158,-40.9698 -75.549,-127.4904 -80.6962,-171.7543 -5.1472,-44.264 -0.9766,-75.7132 -0.9766,-75.7132 0,0 7.3291,-50.8496 16.4753,-28.7188 z" fill="#FFFFFF" transform="translate(199.92292,275.95983) matrix(0.26458333,0,0,0.26458333,-1462.2978,184.4388)"/>
    <path d="m 4944.0468,-1383.8198 c -78.0209,-17.8144 -132.7919,-74.9049 -159.1294,-165.8681 -8.0372,-27.7586 -13.7367,-46.1702 -13.7367,-91.4041 0,-60.3853 8.8694,-100.8594 18.8813,-98.9313 3.4643,0.6673 13.0823,16.2311 19.0846,31.0663 29.1922,72.1551 32.3998,77.9657 56.5004,102.3515 39.4285,39.8952 91.0213,64.5326 140.518,67.1027 28.7478,1.4929 36.8597,8.3794 39.2569,33.3264 2.0843,21.6907 -6.5206,68.824 -17.7354,97.147 -7.8079,19.719 -7.6313,25.818 -22.6966,30.5258 -26.0275,6.0145 -36.2941,0.3688 -60.9431,-5.3162 z m 39.308,-55.3852 c 0.1381,-31.2911 1.7091,-42.6391 8.1187,-58.6486 9.7182,-24.2733 9.9423,-28.1849 1.1599,-20.2368 -14.2571,12.9023 -25.2461,83.8003 -16.9821,109.5634 5.2468,16.3565 7.5359,7.2398 7.7035,-30.678 z m -25.3528,-3.6115 c 0.068,-32.3238 1.4238,-41.7325 8.1206,-56.3981 9.8362,-21.5407 9.9296,-23.9032 0.9458,-23.9032 -26.102,0 -83.5534,-32.1427 -115.6192,-64.6866 -24.7421,-25.1108 -40.8355,-53.3715 -52.5679,-92.3117 -11.2535,-37.3515 -13.3673,-32.2894 -11.3022,27.0687 2.1952,63.0986 9.2285,96.7572 28.0125,134.057 29.9447,59.4617 60.9438,88.1754 115.2589,106.761 12.9028,4.4151 24.2717,8.0683 25.2643,8.1181 0.9923,0.049 1.8417,-17.3675 1.8872,-38.7052 z m 57.3572,21.8209 c 9.0647,-26.6039 14.531,-76.6533 9.7071,-88.8811 -2.2172,-5.6202 -6.0326,-9.5514 -8.4788,-8.7361 -8.081,2.6936 -16.713,39.3232 -16.9425,71.8944 -0.3259,46.2603 5.4787,55.7622 15.7142,25.7228 z" fill="#00B894" transform="translate(199.92292,275.95983) matrix(0.26458333,0,0,0.26458333,-1462.2978,184.4388)"/>
</svg>