<?xml version="1.0" ?><svg height="115.37146mm" viewBox="0 0 160.6933 115.37146" width="160.6933mm" xmlns="http://www.w3.org/2000/svg">
    <path d="m 7333.4297,-1752.6406 c -2.7184,0.1193 -5.0933,3.8834 -7.0703,23.8886 0,0 -0.6667,41.6107 6.8554,82.6915 7.5222,41.0808 38.6516,82.6566 71.0547,112.1074 32.403,29.4509 37.7382,28.4097 19.8008,45.4785 -17.9373,17.0688 -58.5687,-5.4405 -71.1699,-20.3106 -12.6012,-14.8701 -25.653,-34.3106 -33.6895,-26.1523 -8.0365,8.1583 15.4302,55.5464 54.5196,85.8652 39.0893,30.3187 68.1851,1.5423 102.2597,-21.3125 34.0746,-22.8548 37.2888,-3.5872 49.6328,9.2578 12.3441,12.845 5.5302,26.9612 -13.5644,22.043 -19.0947,-4.9181 -23.4666,-1.1571 -26.4883,5.5547 -3.0217,6.7118 9.9,18.8627 29.1875,26.2109 19.2875,7.3483 33.7533,11.6302 40.5039,30.377 6.7506,18.7467 8.037,49.0895 35.2559,34.8105 27.2189,-14.279 8.6549,-65.2457 -1.2461,-87.4062 -9.9009,-22.1605 -28.3752,-66.5595 -47.9199,-85.8848 -19.5447,-19.3253 -74.8355,-34.8893 -96.4375,-42.6426 -21.602,-7.7533 -27.9031,-27.3104 -47.6407,-45.0156 -19.7375,-17.7053 -3.215,-34.9476 0.5782,-44.3789 3.7933,-9.4312 20.8321,-40.7917 16.2031,-49.0078 -4.6291,-8.2162 -13.2449,7.464 -24.4317,22.7969 -11.1868,15.333 -17.6157,14.2916 -24.8164,8.7949 -7.2007,-5.4967 -11.315,-41.2544 -13.8867,-63.0098 -2.5717,-21.7555 -10.7364,-22.9118 -14.6582,-24.1269 -0.9804,-0.3038 -1.9259,-0.6687 -2.832,-0.6289 z m 520.0137,7.0879 c -10.4531,0.9952 -8.1818,21.2417 -12.5215,35.9961 -4.629,15.738 -15.0442,33.5019 -34.2031,33.039 -19.159,-0.4629 -15.1719,-48.5449 -15.1719,-48.5449 0,0 -6.2362,-2.9513 -13.9512,17.5313 -7.715,20.4825 7.65,35.0055 27.709,85.5175 20.059,50.512 -18.8968,57.0349 -79.7168,97.0742 -60.82,40.0393 -69.0483,85.3439 -73.4844,120.6387 -4.4362,35.2948 8.5257,66.9274 29.959,68.3906 31.5128,-1.0833 26.2221,-59.4966 29.1152,-74.9453 2.8932,-15.4487 4.4364,-24.5329 14.0801,-25.748 9.6438,-1.2151 48.865,0.6684 73.6817,-4.0762 24.8166,-4.7446 40.825,-28.4094 43.5253,-38.8242 2.7002,-10.4149 -15.9444,-0.6366 -27.2597,6.3066 -11.3154,6.9433 -35.5535,10.7625 -49.8262,8.5059 -14.2728,-2.2566 -13.8225,-12.4406 -9.2578,-17.7637 4.5647,-5.3232 120.8688,-105.3048 135.5273,-127.3496 14.6586,-22.0448 25.8455,-49.8764 14.0801,-61.8535 -11.7654,-11.9771 -17.4226,1.7365 -25.5234,13.3086 -8.1007,11.572 -33.4972,32.9227 -37.8047,24.8223 -4.3076,-8.1004 12.7306,-42.9334 19.8027,-63.8789 7.0721,-20.9454 6.5571,-46.2885 -6.4941,-48.0821 -0.8157,-0.1121 -1.5688,-0.1308 -2.2656,-0.064 z" fill="#FFFFFF" transform="translate(148.30424,-66.903227) matrix(0.26458333,0,0,0.26458333,-2083.2645,533.2608)"/>
    <path d="m 7547.7886,-1367.1473 c -6.1237,-21.2768 -8.1155,-24.2839 -17.1658,-25.9176 -21.0059,-3.7916 -47.0982,-20.4034 -52.9381,-33.7033 -2.2531,-5.1317 -0.9455,-9.0675 5.2474,-15.7935 7.5024,-8.1478 9.7432,-8.6231 24.7649,-5.2548 l 16.516,3.7039 -9.694,-12.0599 c -14.0104,-17.4294 -24.4068,-16.8404 -50.8249,2.8792 -27.2149,20.3139 -39.8886,25.8172 -56.4819,24.526 -25.2532,-1.9651 -60.5314,-31.8107 -79.626,-67.3648 -13.4116,-24.9716 -19.6105,-37.8566 -8.9099,-46.0717 10.6684,-8.2628 12.5462,-8.446 18.6203,3.0143 9.5147,17.9516 33.3045,41.9975 46.1453,46.6419 15.4763,5.5979 31.4277,4.2165 39.5028,-3.4212 5.4056,-5.113 3.564,-7.4247 -21.4273,-26.9011 -32.8544,-25.6041 -59.4718,-61.6894 -69.7551,-94.567 -9.7412,-31.1455 -14.6522,-80.251 -11.0133,-110.1233 1.231,-16.6071 -3.1036,-28.7407 11.7913,-34.5133 9.2447,-3.5828 15.55,11.5192 20.8885,22.0624 3.4657,6.8442 7.9901,24.3233 10.0548,38.8425 4.7837,33.6383 9.9796,39.4635 21.3309,23.9129 4.5926,-6.2915 11.5213,-19.7449 15.3972,-29.8964 11.5146,-30.1577 24.7763,-20.2915 21.9279,16.3137 -1.6979,21.8199 -7.9233,38.6737 -19.5129,52.8265 -6.7497,8.2428 -7.3119,11.004 -4.1897,20.5842 4.6522,14.2754 33.1619,44.2134 47.7031,50.0932 6.2066,2.5096 23.9101,7.2661 39.3408,10.5695 36.3546,7.7829 57.1447,21.2842 75.5415,49.0573 32.0095,48.3231 58.603,116.7882 56.3933,145.1842 -1.5479,19.8917 -17.6466,32.4306 -42.2097,32.876 -26.4041,3.6904 -23.0963,-22.4485 -27.4174,-37.4998 z m 42.7288,13.0155 c 11.7734,-9.0486 11.5578,-16.4137 -1.5626,-53.3604 -17.8359,-50.2268 -50.5367,-103.0108 -72.0974,-116.3756 -5.5015,-3.4103 -23.7229,-9.7107 -40.4917,-14.0011 -43.7634,-11.196 -69.4605,-28.8645 -84.8549,-58.3431 -11.0877,-21.2314 -11.1175,-29.2336 -0.1883,-50.6544 5.4659,-10.7132 11.3169,-23.4435 13.0025,-28.2898 2.6777,-7.7001 2.204,-7.5086 -3.755,1.5176 -11.1682,16.9173 -18.2383,22.1113 -28.9627,21.2767 -13.5781,-1.0565 -18.1905,-10.5805 -24.3143,-50.2054 -2.7552,-17.827 -6.3047,-35.2081 -7.8878,-38.6244 -6.7943,-14.6602 -8.7223,8.0233 -4.2408,49.8926 8.0657,75.3597 29.6908,115.1389 87.4406,160.8474 15.494,12.2636 28.9344,24.8668 29.8673,28.0071 2.6656,8.9736 -25.2383,30.708 -41.7138,32.4907 -27.2889,2.9528 -56.7259,-15.1343 -73.7758,-45.3301 -5.6873,-10.0721 -10.5363,-15.7942 -10.7759,-12.7163 -0.7642,9.8209 29.6821,53.187 46.8343,66.7085 26.6006,20.9701 38.4633,19.9615 71.7048,-6.0966 33.743,-26.4515 49.6148,-30.9791 68.8294,-19.6353 16.7466,9.8862 28.6158,30.3597 26.0378,44.9122 -1.9119,10.7923 -1.9913,10.8217 -24.4047,9.0424 -12.3671,-0.9895 -22.579,-0.6012 -22.6921,0.8563 -0.3637,4.672 19.9799,15.3426 39.131,20.5251 21.8593,5.9155 27.12,12.4607 36.1074,44.9225 6.5032,23.4904 7.7423,24.1781 22.7627,12.6334 z m 70.1121,16.7583 c -13.8478,-14.8252 -17.044,-30.4561 -14.25,-69.6865 4.1945,-58.8898 39.9244,-108.4641 102.3051,-141.9462 37.5464,-20.1522 52.312,-32.7245 53.2968,-45.3798 1.0169,-13.0688 -8.2274,-35.2221 -19.9286,-47.7574 -17.7367,-19.0011 -20.6959,-48.3895 -8.4496,-83.9191 4.6404,-13.4627 6.8277,-15.759 14.448,-15.166 9.4323,0.734 9.7742,1.8874 12.9799,43.7707 0.8801,11.4976 2.3714,13.7906 8.6802,13.3459 12.2606,-0.8645 21.9356,-15.6048 28.9653,-44.1303 6.2604,-25.4048 6.9755,-26.5487 15.4668,-24.743 25.8155,5.4897 24.8849,39.414 -2.9409,107.1726 -6.8349,16.6436 22.1564,-17.926 30.6367,-36.5317 10.4254,-22.8735 17.9634,-25.2451 28.7778,-9.0532 18.3438,27.4647 11.296,60.9271 -20.63,97.9477 -21.715,25.1798 -97.7323,92.7048 -116.4008,103.3965 -14.7299,8.436 -16.7286,14.56 -6.1514,18.846 17.5196,7.0991 62.1696,-12.9493 63.3763,-28.4567 0.4595,-5.9048 11.9795,-5.2739 17.3027,0.9476 10.6848,12.4885 -5.9551,47.7833 -28.4059,60.2515 -16.1404,8.9637 -72.977,16.4937 -87.5663,11.6014 -12.0964,-4.0566 -17.4842,9.8015 -18.1643,46.724 -0.3056,16.5791 -2.511,35.5485 -4.8998,42.1547 -3.6561,10.108 -5.981,11.8834 -14.6759,11.2068 -17.7509,0.2865 -21.9686,1.8541 -33.7721,-10.5955 z m 32.8599,-42.569 c 3.6383,-39.666 9.3329,-57.5613 21.2465,-66.7674 6.5922,-5.0944 9.3285,-5.2114 19.0515,-0.8153 8.8713,4.0112 17.5774,4.5433 39.8225,2.4345 29.282,-2.7758 43.1836,-8.7671 54.4185,-23.4529 6.3711,-8.3282 6.2981,-8.323 -6.172,0.4493 -25.5443,17.9686 -59.3713,18.1527 -70.5482,0.3835 -7.9339,-12.6133 -9.5993,-10.481 51.8696,-66.403 60.2363,-54.8003 74.1786,-69.1934 85.8494,-88.625 12.2199,-20.3457 16.123,-32.7093 13.378,-42.3767 -1.9476,-6.859 -4.2285,-5.1553 -19.5232,14.5813 -18.4926,23.8636 -31.3246,33.2568 -41.6184,30.4637 -10.0911,-2.7382 -8.1826,-22.3318 5.2854,-54.2639 13.1881,-31.2673 17.4762,-56.2294 10.9669,-63.8399 -3.3182,-3.8798 -4.4405,-1.2893 -5.6126,12.9558 -2.6616,32.3559 -22.8147,57.7746 -44.468,56.0896 -13.0699,-1.017 -17.7914,-9.1346 -18.1932,-31.2784 -0.2904,-16.023 -0.9091,-17.5562 -4.2006,-10.416 -7.7619,16.8364 -2.6242,39.0455 14.2667,61.6744 20.2401,27.1157 24.0811,41.6219 16.505,62.3349 -7.3687,20.1458 -24.3181,34.6441 -63.5528,54.3633 -53.8689,27.0739 -79.6871,59.022 -91.1977,112.8506 -8.1991,38.3413 -6.6075,53.944 6.8532,67.1851 18.1661,17.8688 21.7649,13.9948 25.5735,-27.5275 z" fill="#00B894" transform="translate(148.30424,-66.903227) matrix(0.26458333,0,0,0.26458333,-2083.2645,533.2608)"/>
</svg>