<?xml version="1.0" ?><svg height="100.72817mm" viewBox="0 0 53.870415 100.72817" width="53.870415mm" xmlns="http://www.w3.org/2000/svg">
    <path d="m 4357.5616,-1686.5478 c -2.9407,-33.3923 2.2487,-49.6604 21.017,-27.7102 18.7682,21.9502 158.2759,276.8682 162.0814,290.5676 3.8056,13.6994 2.8321,22.0601 -18.9412,44.6009 -21.7733,22.5408 -54.5749,37.362 -70.0566,-4.0475 -15.4816,-41.4096 -91.8519,-273.8325 -94.1006,-303.4108 z" fill="#FFFFFF" transform="translate(311.3505,-260.47912) matrix(0.26458333,0,0,0.26458333,-1462.3184,718.2174)"/>
    <path d="m 4452.791,-1361.3736 c -5.7466,-8.7706 -86.6703,-246.2816 -90.4843,-265.5721 -0.9812,-4.9625 -4.1369,-18.1899 -7.0124,-29.3941 -2.8755,-11.2043 -5.2061,-28.2575 -5.1791,-37.8962 0.095,-33.2698 6.5455,-41.6159 24.8529,-32.1486 14.054,7.2677 26.0555,24.214 51.6234,72.8932 24.8651,38.0551 45.3307,83.2418 65.4618,116.2767 16.5568,27.0717 37.9257,64.2922 47.4866,82.7116 13.3153,21.5288 19.1902,29.6314 9.0517,51.2778 -10.3738,22.1484 -21.166,32.5038 -48.6461,46.6766 -15.7361,9.4799 -36.2969,11.2899 -47.1545,-4.8249 z m 32.7117,-8.0527 c 6.386,-2.4505 34.2386,-56.3437 34.132,-66.0432 -0.033,-3.0826 -4.8172,-13.684 -10.6296,-23.5587 -9.0047,-15.2976 -10.9298,-16.8995 -13.0114,-10.8275 -7.0611,20.5974 -25.0271,56.37 -31.0459,61.817 -7.8404,7.0955 -6.2157,23.7617 3.3769,34.6363 6.1345,6.9545 8.1817,7.4282 17.178,3.9761 z m 45.5078,-34.6614 c 2.11,-3.9426 2.1466,-8.6931 0.095,-12.359 -2.7088,-4.8402 -4.7636,-2.7188 -10.9799,11.3342 -4.2062,9.5086 -7.6477,18.146 -7.6477,19.1938 0,3.2271 14.8991,-11.3797 18.5326,-18.169 z m -62.6582,-34.2795 c 6.0942,-13.399 13.1437,-31.4495 15.6654,-40.112 4.4063,-15.1357 4.1004,-16.6491 -7.8391,-38.7937 -6.8335,-12.6738 -13.2363,-22.9805 -14.2289,-22.9036 -0.9923,0.076 -8.0147,13.5652 -15.6053,29.9739 l -13.8007,29.8343 9.9325,33.1813 c 5.463,18.25 11.027,33.1816 12.3645,33.1816 1.3372,0 7.4176,-10.9628 13.5116,-24.3618 z m -24.197,-100.8841 6.778,-19.7009 -10.785,-21.3647 c -5.9315,-11.7505 -11.9795,-21.2644 -13.4398,-21.1415 -1.4601,0.1218 -7.0243,9.0553 -12.365,19.8506 l -9.7101,19.6277 8.8347,26.166 c 13.5151,40.0275 12.2835,38.2477 18.4278,26.6285 3.0147,-5.7009 8.5312,-19.2304 12.2594,-30.0657 z m -34.6452,-68.0065 c 6.0859,-19.3487 6.0851,-20.8673 -0.027,-34.4016 -3.5119,-7.7877 -7.3565,-14.1393 -8.5437,-14.1147 -1.1875,0.027 -5.8617,5.7605 -10.3876,12.7464 -7.3021,11.2714 -7.7847,14.3523 -4.2834,27.3553 5.2998,19.6811 11.2054,32.1549 14.3145,30.2335 1.4029,-0.8672 5.4162,-10.6859 8.918,-21.8189 z m -23.9319,-50.5353 c 2.3035,-5.0562 4.1886,-12.8517 4.1886,-17.3234 0,-7.7501 -17.3632,-38.4489 -21.7464,-38.4489 -2.4205,0 1.5916,40.3997 5.4657,55.0398 3.2709,12.3609 6.6992,12.5685 12.0921,0.7325 z" fill="#00B894" transform="translate(311.3505,-260.47912) matrix(0.26458333,0,0,0.26458333,-1462.3184,718.2174)"/>
</svg>