<?xml version="1.0" ?><svg height="129.22131mm" viewBox="0 0 108.4923 129.22131" width="108.4923mm" xmlns="http://www.w3.org/2000/svg">
    <path color="#000" d="m 6998.5753,1186.2649 c 24.6177,13.9923 54.8404,4.1397 82.2606,6.2096 0,0 -29.7457,-251.34903 57.9582,-251.625 87.7038,-0.27597 18.3684,216.6689 41.322,245.3464 9.1118,11.3841 82.0654,20.6202 91.6903,-1.6559 9.5967,-22.2105 104.2607,-378.9326 -110.6264,-377.54088 -245.0188,1.58688 -172.8778,318.55018 -162.6047,379.26578 z" fill="#FFFFFF" overflow="visible" paint-order="fill markers stroke" transform="translate(-353.75782,-145.71441) matrix(0.32150497,0,0,0.32150497,-1888.3913,-111.77001)"/>
    <path d="m 6985.6627,1176.972 c -4.2567,-72.6993 -19.7814,-148.7663 -6.4464,-225.24675 8.5955,-45.98846 48.1064,-103.85489 83.4649,-125.70737 34.0233,-21.02726 87.7812,-26.94686 109.4729,-24.69789 57.3777,5.94883 112.1645,41.0266 130.3903,107.24271 14.578,52.96707 9.8259,127.5023 -5.0023,218.2444 -14.6518,89.6654 -34.7955,75.1862 -45.2965,74.9493 -25.8773,-0.5836 -54.3386,3.3851 -64.2922,-1.194 -12.7964,-5.8868 -20.9861,-21.296 -21.9887,-33.1651 -1.7472,-20.6861 5.0586,-70.2811 5.0004,-80.0059 9.2014,-92.81802 3.9235,-128.01583 -20.8073,-138.78349 -18.2654,-7.95256 -47.1667,14.3776 -56.533,52.65379 -6.0526,24.7345 -19.769,72.0078 -9.4435,145.4156 1.669,33.8258 7.2286,48.9287 -2.5715,51.0565 -7.0699,1.4941 -49.3435,0.1759 -68.2358,-0.3251 -11.1364,-0.2951 -22.6108,-6.4514 -27.7113,-20.437 z m 86.3047,7.7811 c 2.5038,-3.2468 -5.0347,-7.9977 -8.5039,-8.3573 -3.4691,-0.36 -60.0403,-4.3915 -62.5436,-1.1446 -2.5033,3.2468 5.4548,10.3108 8.9239,10.6705 3.4692,0.3594 59.6199,2.0783 62.1236,-1.1686 z m -9.0778,-21.8063 c 2.0938,-1.7006 1.9784,-17.833 -0.2622,-35.8502 -12.1767,-98.056 27.7718,-200.61724 76.1861,-195.59775 43.9903,4.56087 58.1844,56.963 44.0108,162.47755 -1.2801,32.9791 -2.1816,53.1197 -1.4994,67.0289 12.2506,-0.2074 21.9144,-0.6172 42.9439,1.2743 29.2488,-1.8392 39.5442,2.7181 41.1946,-6.3282 8.2179,-16.6129 15.6697,-76.2246 18.2164,-106.4951 6.4606,-76.78369 9.4135,-137.50685 -26.8585,-185.43197 -33.6304,-44.43521 -64.083,-57.66712 -115.0082,-49.89261 -63.5414,9.70069 -95.4537,31.3578 -133.6593,90.70677 -28.4974,44.26951 -26.1724,116.20271 -17.9603,211.85361 3.1512,36.7006 2.2502,49.8909 14.5088,46.8168 12.4107,-3.1121 56.092,1.1384 58.1858,-0.5621 z m 152.7837,-53.605 c 2.1467,-20.7034 23.057,-16.673 23.8742,4.6016 0.4195,10.8887 -2.5887,14.0109 -12.5027,12.983 -9.8183,-1.0179 -12.6372,-5.3766 -11.3715,-17.5846 z m -201.0026,-10.5388 c 4.8717,-16.1137 25.9384,-15.7829 24.2622,0.3809 -0.9358,9.0266 -5.4066,12.6575 -14.4334,11.7216 -9.0264,-0.9359 -12.0708,-4.6847 -9.8288,-12.1026 z m 213.8634,-62.173 c -7.7488,-0.8034 -4.6215,-10.3294 1.0755,-15.9064 12.5503,-12.2867 26.5004,-7.5059 22.6146,7.7501 -4.0923,16.0661 -9.0121,9.6781 -23.6897,8.1563 z m -222.4769,-25.6771 c -3.6804,-13.66302 3.8029,-21.89605 16.8795,-18.57052 5.9644,1.51695 10.2883,8.12542 9.6081,14.68552 -1.5156,14.6204 -22.7572,17.7359 -26.4876,3.885 z m 219.1302,-49.74102 c -5.0686,-7.57919 -4.1556,-11.27327 4.1571,-16.83208 15.9957,-10.69658 28.0193,5.68481 13.0786,17.81868 -9.2323,7.49771 -11.6551,7.35899 -17.2357,-0.9866 z m -192.5473,-47.2964 c 1.5813,-15.25164 20.5337,-22.18 26.561,-9.70999 6.1698,12.76368 -2.1706,25.18941 -15.9495,23.76079 -7.7964,-0.80834 -11.4791,-5.68424 -10.6115,-14.0508 z m 161.4698,-25.8715 c -10.2035,-12.56364 -6.1699,-24.61132 7.7568,-23.16744 8.2828,0.85873 12.1791,5.51295 11.3457,13.5507 -1.6104,15.53452 -10.6143,20.06769 -19.1025,9.61674 z m -77.9062,-19.25845 c -1.1413,-9.18401 -1.6324,-18.58482 15.2053,-19.72382 9.2747,-0.62729 12.4436,6.78524 11.5054,15.83437 -1.5995,15.42483 -24.8439,18.91349 -26.7107,3.88945 z m 130.2287,317.16747 c 11.8229,-1.1873 11.5574,-12.993 11.5574,-12.993 -0.5068,3.2077 -63.2096,4.7905 -70.9346,2.9594 -4.0188,1.0053 7.3121,10.4228 10.4995,10.8993 8.4582,1.2642 39.7679,0.049 48.8777,-0.8657 z" fill="#00B894" transform="translate(-353.75782,-145.71441) matrix(0.32150497,0,0,0.32150497,-1888.3913,-111.77001)"/>
</svg>