<?xml version="1.0" ?><svg height="301.18814mm" viewBox="0 0 210.47896 301.18814" width="210.47896mm" xmlns="http://www.w3.org/2000/svg">
    <path d="m -7118.5723,12926.32 c -46.5707,-0.636 -139.6565,30.937 -166.6347,41.328 -33.204,12.79 -61.627,28.531 -54.795,70.588 0,0 -1.9122,39.107 27.4668,77.352 29.378,38.245 85.1286,68.373 105.3516,60.994 20.224,-7.378 113.687,-101.945 140.332,-143.879 26.646,-41.935 -4.7819,-77.558 -28.2949,-100.139 -4.4087,-4.233 -12.6787,-6.097 -23.4258,-6.244 z m 252.6016,274.25 c -32.7832,0.335 -76.3974,20.043 -91.7109,42.043 -20.419,29.334 -7.781,64.323 18.455,87.196 40.856,24.226 70.4306,-8.38 93.0606,-46.416 22.63,-38.037 36.203,-56.76 7.918,-76.067 -7.0713,-4.827 -16.795,-6.867 -27.7227,-6.756 z m 163.4492,759.203 c -61.679,-0.803 -141.0988,16.989 -141.9473,30.688 1.811,23.519 93.9893,20.549 147.6153,22.412 53.625,1.863 128.143,-3.027 126.914,-15.66 -1.229,-12.633 -57.7017,-33.416 -120.5117,-37.025 -3.9257,-0.226 -7.9584,-0.361 -12.0703,-0.415 z" fill="#FFFFFF" transform="translate(-91.697389,104.74845) matrix(0.26458333,0,0,0.26458333,3288.994,-2377.7839) translate(-4730.5688,-4305.3989)"/>
    <path d="m -11515.429,9725.6882 c -41.481,-6.9083 -58.896,-14.7329 -70.513,-31.6813 -7.465,-10.8953 -8.821,-15.2874 -5.882,-19.0748 9.409,-12.1249 93.353,-30.2591 140.857,-30.4282 l 18.505,-0.065 0.956,-24.2699 c 0.525,-13.3484 1.446,-59.0566 2.046,-101.5739 0.6,-42.5172 2.006,-111.2818 3.121,-152.8102 2.334,-86.8686 -10.606,-366.8556 -17.163,-371.3665 -2.055,-1.4131 -10.212,-11.4678 -18.129,-22.3445 -19.223,-26.4056 -51.287,-55.9031 -68.274,-62.8079 -15.463,-7.3352 -13.783,-5.5436 -12.947,9.9185 1.331,24.6261 -19.347,63.3791 -57.757,108.243 -12.111,14.1448 -16.172,16.5569 -27.87,16.5542 -16.075,0 -54.263,-16.8338 -66.338,-29.2365 -10.419,-10.6998 -20.792,-32.2312 -21.457,-44.5319 -0.276,-5.1056 1.587,-13.7961 4.142,-19.3121 7.302,-15.7662 43.712,-49.0429 65.82,-60.1528 25.14,-12.6336 58.509,-15.7593 75.734,-7.0938 7.942,3.9945 15.953,5.1271 25.444,3.5965 20.245,-3.2659 43.642,8.2763 74.885,36.9417 l 26.379,24.2046 -2.695,-14.2292 c -1.483,-7.8262 -5.15,-27.1733 -8.148,-42.9938 -10.835,-57.1423 -34.632,-123.6017 -60.509,-168.9899 -20.767,-36.4301 -57.003,-72.1119 -87.286,-85.9527 -48.052,-21.9632 -108.275,-26.2376 -153.35,-10.885 -14.905,5.0769 -28.406,10.5819 -30.005,12.2333 -1.596,1.6517 1.644,9.1994 7.201,16.7729 13.895,18.9415 14.046,35.3175 0.631,68.1977 -9.543,23.3924 -17.019,33.2616 -57.891,76.422 -61.628,65.0799 -86.913,87.6055 -108.929,87.1417 -25.761,-0.5427 -56.6,-18.9719 -79.882,-38.3455 -20.738,-17.8634 -44.631,-55.3469 -53.465,-83.8785 -12.811,-41.3744 -5.172,-74.2633 21.205,-91.2919 32.071,-20.7027 128.656,-53.3443 178.735,-60.403 28.199,-3.9749 30.454,-3.7616 52.543,4.9699 18.513,9.4214 22.463,9.5551 37.571,-1.0261 25.242,-17.6811 53.741,-25.1986 95.3,-25.1387 78.537,0.1133 133.665,24.8952 178.13,80.0811 48.256,59.8866 84.469,160.6613 99.111,275.8236 13.126,103.2361 23.684,352.0857 19.372,456.6327 -0.45,10.8766 -1.493,68.2001 -2.322,127.3857 -0.829,59.1855 -2.257,108.9387 -3.172,110.5626 -0.915,1.624 -0.974,2.9526 -0.13,2.9526 12.529,0 67.972,13.1698 78.777,17.8858 25.508,11.1332 33.95,26.1362 34.316,32.8908 0.103,1.9157 -3.347,7.2216 -7.668,11.7905 -5.689,6.0117 -16.65,10.0081 -39.668,14.4616 -42.855,8.2909 -141.02,10.6019 -179.331,4.2214 z m 183.415,-30.4341 c 12.905,-3.2842 24.898,-4.305 13.113,-8.5897 -23.613,-14.8701 -81.293,-22.3784 -89.604,-11.6643 -5.561,7.1682 -8.819,6.8076 -17.433,-1.929 -6.953,-7.056 -8.961,-7.1817 -55.158,-3.4633 -57.222,4.6056 -74.731,7.1631 -74.529,10.8864 0.176,3.2627 25.787,9.5747 56.483,13.9215 25.401,3.5965 133.576,4.1391 167.128,0.8384 z m -295.81,-685.1336 c -0.594,-11.0007 -5.075,-16.4091 -10.962,-13.2376 -9.775,5.2636 -22.356,-2.2442 -29.619,-17.6755 -8.122,-17.2542 -20.693,-19.0308 -21.68,-3.0647 -0.45,7.2831 2.708,12.0699 13.71,20.7796 20.024,15.8554 49.123,23.7653 48.551,13.1982 z m 45.09,-46.1279 c 23.708,-42.1934 18.74,-58.6189 -17.607,-58.2007 -22.538,0.2589 -52.207,13.4579 -74.189,32.9997 l -11.721,10.4234 23.417,6.3938 c 25.023,6.8311 35.951,14.4055 49.175,34.0778 l 8.295,12.3426 5.192,-8.1223 c 2.854,-4.467 10.702,-17.9287 17.438,-29.9143 z m -57.329,19.252 c -0.09,-1.7661 -2.566,-4.1108 -5.491,-5.2102 -3.555,-1.3365 -4.562,-0.2716 -3.039,3.2106 2.492,5.6872 8.81,7.1685 8.53,1.9996 z m -309.712,-142.1744 c -1.363,-25.2021 -6.902,-37.9872 -16.462,-37.9872 -12.615,0 -32.013,-9.7446 -38.995,-19.5922 -7.792,-10.984 -10.06,-35.4321 -4.009,-43.2298 5.52,-7.1151 10.67,-3.6979 11.274,7.4821 0.926,17.1181 14.411,33.7667 27.35,33.7667 5.404,0 -15.726,-34.9386 -30.393,-50.2564 -14.368,-15.0036 -39.642,-26.644 -53.549,-24.6619 -7.993,1.1393 -8.399,2.5963 -6.945,24.9739 1.267,19.4278 4.127,28.6468 15.7,50.5242 15.754,29.7842 33.466,50.6441 50.764,59.7904 13.324,7.0444 39.67,18.238 43.614,18.5308 1.489,0.1106 2.232,-8.5929 1.651,-19.3406 z m 101.469,-67.9017 c 33.164,-36.2457 48.178,-55.575 51.933,-66.8623 5.225,-15.7064 5.173,-16.054 -4.727,-32.221 -5.504,-8.9887 -16.353,-21.2598 -24.112,-27.2688 -22.14,-17.1512 -42.845,-14.7765 -143.122,16.4121 -25.261,7.8562 -47.253,15.6851 -48.873,17.3972 -1.658,1.7539 2.912,5.8226 10.468,9.3183 7.377,3.4128 19.492,12.8719 26.925,21.0201 25.569,28.0287 56.922,95.2756 58.562,125.6067 -0.429,18.2078 3.723,7.5998 13.428,-1.0067 7.077,-6.2759 33.86,-34.3537 59.518,-62.3956 z" fill="#00B894" transform="translate(-91.697389,104.74845) matrix(0.26458333,0,0,0.26458333,3288.994,-2377.7839)"/>
</svg>