<?xml version="1.0" ?><!-- Created with Inkscape (http://www.inkscape.org/) --><svg height="75.894463mm" id="svg12132" inkscape:version="1.1.2 (08b2f3d93c, 2022-04-05)" sodipodi:docname="house_open_lock_2.svg" version="1.1" viewBox="0 0 62.955502 75.894463" width="62.955502mm" xmlns="http://www.w3.org/2000/svg" xmlns:inkscape="http://www.inkscape.org/namespaces/inkscape" xmlns:sodipodi="http://sodipodi.sourceforge.net/DTD/sodipodi-0.dtd" xmlns:svg="http://www.w3.org/2000/svg">
  <sodipodi:namedview bordercolor="#666666" borderopacity="1.0" id="namedview12134" inkscape:current-layer="layer1" inkscape:cx="-281.00661" inkscape:cy="208.68319" inkscape:document-units="mm" inkscape:pagecheckerboard="0" inkscape:pageopacity="0.0" inkscape:pageshadow="2" inkscape:window-height="1016" inkscape:window-maximized="1" inkscape:window-width="1866" inkscape:window-x="54" inkscape:window-y="27" inkscape:zoom="0.66368547" pagecolor="#ffffff" showgrid="false"/>
  <defs id="defs12129"/>
  <g id="layer1" inkscape:groupmode="layer" inkscape:label="Capa 1" transform="translate(-179.41218,-93.211153)">
    <g id="g11983" transform="translate(164.87926,899.33353)">
      <path d="m 18.79657,-734.26825 0.658071,-37.45486 53.664035,-2.16099 0.167534,40.7071 z" fill="#00B894" id="path11880" sodipodi:nodetypes="ccccc" style="fill:#ffffff;stroke-width:0.465;paint-order:markers stroke fill;stop-color:#000000"/>
      <path d="m 18.267439,-732.68075 c -2.74283,-1.3085 -3.44665,-2.958 -3.26537,-7.6499 0.13196,-3.2899 0.0183,-11.8489 -0.25641,-19.0204 -0.48553,-12.9611 -0.4639,-13.0467 3.67042,-14.4307 3.76097,-1.2594 4.17245,-2.1615 4.29965,-9.4299 0.15945,-9.0657 3.3286,-14.1798 12.22571,-19.7248 7.89346,-4.9197 16.12747,-4.1145 22.78925,2.2271 8.00471,7.6197 8.93873,21.3476 1.22672,18.0266 -1.42759,-0.6153 -2.54507,-2.3691 -2.48349,-3.8986 0.0623,-1.529 -1.28757,-4.7148 -2.99778,-7.0788 -3.56999,-4.9357 -11.10549,-6.0819 -16.63551,-2.531 -4.18894,2.6891 -7.31419,8.87979 -7.24776,15.0641 0.02097,1.95248 -0.261751,3.98623 2.785423,3.98299 l 36.643755,-0.0389 c 5.377201,0.0612 5.66894,0.0825 6.556032,5.07244 0.45033,2.532 1.15468,11.7227 1.56615,20.4232 1.05791,22.3873 1.69538,21.9428 -30.43893,21.2297 -13.71802,-0.306 -26.51486,-1.3065 -28.43786,-2.2231 z m 47.867081,-4.53855 c 5.041637,-0.32877 4.178002,0.91411 4.2666,-3.89058 0.14296,-3.5637 -0.408493,-21.04272 -0.602391,-27.05193 0.166516,-4.38704 -0.1078,-4.07807 -4.210732,-3.83068 -9.6735,0.2314 -33.963978,0.96984 -37.467068,1.42754 -5.692506,0.43677 -6.319355,0.0872 -6.686813,5.51515 l -0.211276,24.67711 c -0.02944,3.43865 1.794982,3.25085 6.342559,3.24704 8.826772,-0.0202 30.95062,0.0252 38.569121,-0.0937 z m -25.460161,-11.04215 c 0.0531,-1.3085 1.190072,-2.42251 1.73386,-3.3022 2.114754,-3.42105 -0.88971,-4.36788 -0.97018,-8.01638 -0.12463,-5.7146 2.77497,-6.15602 5.47986,-6.04702 2.4954,0.1005 3.750007,1.21855 3.841817,5.59665 0.066,3.0519 -2.426095,4.39139 -0.154337,9.59945 1.376442,3.15553 -0.40855,4.0106 -4.86728,4.2604 -3.7551,0.2122 -5.13338,-0.3591 -5.06374,-2.0909 z" fill="#00B894" id="path6062" sodipodi:nodetypes="cssssssssscssccsccscccccsccsssssssss" style="fill:#000000;stroke-width:1.58266"/>
    </g>
  </g>
</svg>