<?xml version="1.0" ?><svg height="69.998131mm" viewBox="0 0 55.645023 69.998131" width="55.645023mm" xmlns="http://www.w3.org/2000/svg">
    <path color="#000" d="m 11185.205,8944.8137 c 0.629,-23.942 35.231,-40.038 124.748,-37.611 89.517,2.426 138.41,5.257 136.612,38.42 -1.797,33.163 -18.245,259.481 -19.772,270.077 -1.528,10.596 -43.95,30.009 -99.134,33.002 -55.184,2.992 -105.515,-7.442 -111.357,-25.803 -5.842,-18.361 -31.097,-278.085 -31.097,-278.085 z" fill="#FFFFFF" overflow="visible" paint-order="fill markers stroke" transform="translate(-195.81432,-74.822589) matrix(0.17241813,0,0,0.17241813,-1727.2394,-1451.4498)"/>
    <path d="m 11247.706,9254.5441 c -15.176,-1.6341 -31.11,-8.6876 -37.941,-17.1018 -2.269,-2.7948 -3.505,-9.7737 -5.662,-31.981 -4.311,-78.918 -13.163,-137.0433 -18.324,-225.8529 -4.705,-2.4337 -12.293,-1.366 -18.85,-3.2324 -13.514,-2.5747 -15.111,-5.5303 -12.377,-20.8097 0.475,-8.2052 6.629,-4.2926 13.396,-3.6586 l 12.502,1.1715 c -8.045,-4.4007 -4.169,-20.0292 -1.578,-30.8644 6.307,-21.9985 78.427,-26.9668 95.033,-26.3918 4.767,0.2274 5.198,-0.2875 6.941,-8.2988 1.202,-5.5271 11.692,-21.3098 17.657,-26.5652 9.933,-8.7512 20.979,-10.9362 34.056,-6.7361 6.35,2.039 15.934,8.5741 20.624,14.0627 3.315,3.8779 9.139,20.8135 8.367,24.3262 11.024,3.0792 29.144,5.7419 42.839,9.6127 6.507,1.8802 14.288,4.0565 17.292,4.8363 18.3,5.7605 35.808,17.2974 38.007,37.1378 0.376,4.5732 1.593,6.3301 5.85,8.4504 2.958,1.4724 6.827,5.3703 8.6,8.6622 7.378,15.3194 -7.166,18.5159 -15.276,18.2573 -12.312,0.8878 -109.573,0.6132 -140.331,2.1301 -37.413,1.845 -106.142,-3.1754 -108.996,-2.7818 -1.35,0.186 -2.975,0.3386 -0.632,2.1691 7.045,101.804 14.041,181.333 22.25,248.367 0,0.9468 1.048,1.3194 2.329,0.8278 12.843,8.9319 153.614,19.1615 179.335,-9.8502 -0.142,-14.5987 2.118,-67.0119 3.335,-74.8909 1.72,-43.5688 4.321,-81.5822 7.552,-127.0085 0.816,-12.1798 1.367,-30.286 1.225,-34.0389 -0.557,-13.6674 17.557,-10.7454 22.815,-3.3231 1.108,1.717 0.648,30.426 -1.075,60.3522 -5.098,41.045 -3.529,77.8043 -6.693,120.097 -0.912,11.6744 -1.327,29.6373 -0.921,39.9178 0.672,16.9956 -2.099,24.0359 -5.134,26.7813 -6.954,34.8958 -125.522,32.1597 -186.215,26.2267 z m 165.111,-296.7077 c 13.298,-0.8053 27.607,0.1451 26.372,-5.0456 l -1.186,-6.3379 c -1.61,-8.6118 -4.566,-10.6831 -24.319,-17.0436 -27.765,-7.0989 -75.703,-12.7089 -138.566,-10.4247 -1.959,0.3772 -10.18,1.2007 -18.271,1.8299 -17.169,1.3358 -44.236,4.0737 -53.416,8.826 -6.149,3.1828 -6.439,3.7199 -6.922,12.8228 l -0.506,9.5007 18.461,3.2317 c 123.062,6.7558 143.124,4.3534 198.353,2.6407 z m -106.268,-63.5452 c 12.956,0.2883 17.628,-0.654 29.684,-0.654 -2.699,-22.892 -22.046,-25.5799 -29.684,0.654 z m 62.485,320.6115 c -3.589,-3.8197 -3.66,-4.5204 -1.822,-18.1156 1.051,-7.7782 2.594,-17.2403 3.428,-21.027 1.781,-8.0781 5.257,-43.7506 7.565,-77.6203 0.57,-8.366 1.289,-17.8729 1.597,-21.1263 0.896,-9.4593 3.326,-57.1716 3.396,-68.7469 0.06,-10.3945 0.154,-10.5994 5.53,-12.3756 6.173,-1.3583 10.667,0.1128 13.819,6.7436 1.635,2.9559 2.219,6.2649 2.116,25.6971 -0.744,20.0627 -1.349,39.5363 -2.619,57.9773 -0.654,9.2956 -1.568,22.5016 -2.031,29.3467 -1.153,17.0227 -4.843,44.3782 -9.263,68.6792 -3.144,17.2814 -4.447,21.1563 -8.806,26.1967 -7.264,8.3971 -8.679,8.876 -12.91,4.3711 z m -82.276,-1.2533 c -3.829,-3.1011 -3.852,-3.3579 -3.178,-37.6048 1.322,-67.1914 -0.413,-120.7454 -3.209,-148.3868 -1.52,-15.0245 -2.364,-28.8401 -1.878,-30.7012 0.971,-3.7127 7.499,-6.0696 12.455,-4.4967 11.494,7.3142 7.576,18.6969 10.851,27.745 1.331,2.1527 2.743,61.0284 2.801,81.5104 0.128,45.0803 0.771,99.3213 -1.154,105.504 -3.186,9.4942 -11.298,10.7616 -16.688,6.4301 z m -36.533,2.7397 c -4.317,-2.8826 -5.746,-9.4724 -5.746,-26.5004 0,-9.8315 -1.18,-25.2041 -2.621,-34.1615 -2.305,-23.8592 -3.684,-45.856 -4.904,-69.0277 -0.579,-11.1546 -1.359,-22.9431 -1.735,-26.1967 -0.66,-5.7151 -1.272,-13.3937 -3.506,-43.9425 -2.504,-14.2273 -0.164,-31.8938 14.353,-20.7039 6.755,5.4699 8.843,23.2033 11.095,94.2234 0.62,19.5206 2.647,47.6609 4.505,62.5338 1.859,14.8729 3.335,33.7146 3.283,41.8705 -0.09,14.0396 -0.345,15.0486 -4.79,18.9602 -4.971,4.3747 -6.926,4.954 -9.934,2.9448 z m 80.88,-7.5747 c -4.072,-4.8404 -4.249,-5.8846 -3.487,-20.7037 1.668,-32.4984 2.194,-40.9831 2.587,-41.803 0.223,-0.4648 0.535,-4.2675 0.693,-8.4505 0.157,-4.1831 1.139,-16.3518 2.181,-27.0416 1.042,-10.6901 1.922,-42.2527 1.955,-70.1395 0.06,-55.7459 -0.611,-50.7669 9.937,-50.7669 4.993,0 11.516,5.6158 11.66,10.0368 0.344,10.6507 0.134,83.3255 -0.388,91.4333 -3.357,52.0841 -4.574,67.2721 -6.073,75.7597 -0.998,5.6427 -1.246,16.5781 -0.582,25.617 -0.134,11.147 5.575,13.4867 -4.049,18.4635 -7.309,3.7797 -9.542,3.4075 -14.434,-2.4051 z" fill="#00B894" transform="translate(-195.81432,-74.822589) matrix(0.17241813,0,0,0.17241813,-1727.2394,-1451.4498)"/>
</svg>