<?xml version="1.0" ?><svg height="273.32782mm" viewBox="0 0 268.17404 273.32782" width="268.17404mm" xmlns="http://www.w3.org/2000/svg">
    <path d="m 7544.7218,-2916.9607 c -1.8219,-49.5995 -19.9351,-253.8972 -21.1876,-270.0375 -1.2526,-16.1404 11.7285,-32.332 34.787,-43.9632 23.0585,-11.6313 91.4449,-47.077 130.7867,-57.6835 39.3418,-10.6065 100.8312,-24.6973 100.8312,-24.6973 0,0 -9.2803,-40.2739 -6.7752,-49.9581 2.5051,-9.6842 19.7563,-17.0114 34.1038,-18.2412 14.3475,-1.2297 33.8192,-1.8958 33.8192,-1.8958 l 3.7008,68.7629 c 0,0 37.349,6.4049 38.7724,-0.3587 1.4234,-6.7635 -0.2278,-22.4939 19.6425,-24.1848 19.8702,-1.6909 24.0833,-9.6842 26.8162,-19.2147 2.7328,-9.5305 -0.1139,-30.7435 -16.1695,-44.3219 -16.0555,-13.5783 -18.7314,-21.0593 3.8716,-20.7518 22.6031,0.3074 112.8295,-0.2016 112.8295,-0.2016 0,0 -2.1066,32.127 0.5693,47.0888 2.676,14.9618 14.5753,30.1286 14.5753,30.1286 0,0 13.8921,-30.9484 18.5038,-36.1748 4.6117,-5.2264 12.5825,-21.9304 12.5825,-21.9304 l -15.3154,-55.082 c 0,0 -46.2879,-33.8179 -42.5302,-44.4756 3.7577,-10.6578 28.5639,-33.4852 28.5639,-33.4852 l 39.2849,-15.0643 c 0,0 17.5928,-19.1122 29.3782,-17.8312 11.7855,1.2809 18.2761,15.6279 16.1695,21.4692 -2.1066,5.8412 15.0877,17.9849 7.0029,32.998 -8.0847,15.013 20.7242,11.7337 -0.4555,21.1617 -21.1796,9.428 -36.2673,9.0694 -36.2673,9.0694 l -17.2512,32.6905 c 0,0 21.0088,0.2562 20.895,16.704 -0.1138,16.4477 2.2774,36.2773 2.2774,36.2773 0,0 41.1287,-5.995 50.6367,11.3238 9.5081,17.3189 1.1169,37.7633 1.1169,37.7633 0,0 45.5341,-10.398 46.3311,-4.4542 0.7971,5.9437 2.1636,27.9765 2.1636,27.9765 0,0 76.4062,8.5057 121.043,17.985 44.6367,9.4792 134.1267,33.4346 157.9254,90.1051 23.7987,56.6705 10.5899,166.9372 10.5899,182.0015 0,15.0643 2.8956,77.3763 7.3935,103.6108 4.4978,26.2344 -65.6456,50.9317 -84.2633,56.8754 -18.6176,5.9438 -33.0172,22.4254 -33.0172,22.4254 0,0 7.879,98.1917 8.3345,132.2658 0.4555,34.074 8.8249,109.8055 -30.6308,111.65 -39.4557,1.8446 -30.5169,-4.3553 -37.3491,-49.0358 -6.8322,-44.6806 -13.7782,-176.6726 -13.7782,-176.6726 0,0 -38.0323,2.9719 -58.1872,8.5057 -20.1548,5.5338 -43.7328,23.5116 -43.7328,23.5116 0,0 6.3268,31.9292 5.4158,48.0183 -0.9109,16.0891 -3.0745,45.7565 -35.3564,44.8342 -32.2819,-0.9223 -33.8192,-30.0261 -34.6732,-48.421 -0.854,-18.3948 -0.6832,-35.3038 -0.6832,-35.3038 0,0 -40.6406,4.0432 -82.3168,1.0201 -41.6761,-3.0231 -78.9683,-1.7933 -78.9683,-1.7933 0,0 -67.2398,12.1436 -84.8326,10.2478 -17.5928,-1.8959 -23.2863,-2.0496 -23.2863,-2.0496 0,0 -3.1314,129.5838 -2.1066,148.5935 1.0249,19.0097 2.5052,82.7 -35.3564,79.9331 -37.8615,-2.7669 -37.5199,-12.2462 -35.9826,-52.4689 1.5372,-40.2227 9.7927,-189.841 9.7927,-189.841 0,0 -67.7296,-23.4099 -85.6071,-23.9735 -17.8774,-0.5636 -37.8615,-0.6149 -37.8615,-0.6149 0,0 -8.4263,109.2931 -9.3373,118.0038 -0.9109,8.7106 -15.0307,11.6825 -25.9052,9.7866 -10.8745,-1.8958 -17.9345,-13.7833 -20.2118,-31.4096 -2.2774,-17.6262 -1.5373,-122.1541 -1.5373,-122.1541 0,0 -38.7725,-10.3503 -61.774,-18.9585 -23.0016,-8.6081 -36.2586,-8.3925 -37.7996,-46.0833 z" fill="#FFFFFF" transform="translate(-115.47278,89.622294) matrix(0.26458333,0,0,0.26458333,-1872.376,857.16065)"/>
    <path d="m 7834.5736,-2548.8701 c -32.8661,-7.4069 -32.7006,-16.2604 -21.9807,-198.3361 1.4749,-25.051 0.7643,-41.3535 -0.2461,-42.7224 -5.4062,-7.3264 -64.6615,-26.625 -82.6818,-26.9282 l -20.9482,-0.3525 -0.2383,43.2542 c -0.1472,26.7223 -2.906,56.404 -4.8333,65.981 -3.3746,16.7687 -4.252,17.4729 -23.7171,19.0359 -23.8968,1.9188 -39.3571,-8.5458 -40.7264,-27.5666 -0.4934,-6.8703 -0.9649,-38.1828 -1.0446,-69.5842 -0.1434,-56.2816 -0.2992,-57.1931 -10.9624,-64.1177 -5.9496,-3.8637 -16.958,-6.6936 -24.4634,-6.2887 -26.5419,1.432 -45.467,-6.7266 -57.7593,-24.9005 -11.4721,-16.961 -11.967,-20.3496 -23.1102,-158.2124 -11.0938,-137.2634 -11.1662,-141.411 -2.7682,-161.5555 14.4101,-34.5672 69.6826,-67.862 153.6065,-92.5274 36.0069,-10.5829 83.2587,-15.6533 83.7936,-8.9919 0.2004,2.4964 -0.1449,4.5964 -0.7678,4.6664 -0.6239,0.05 -24.2279,6.9188 -52.4563,15.2201 -77.6895,22.8472 -150.4645,58.7968 -167.1841,82.5869 -4.5646,6.4948 -3.5827,34.712 4.9637,142.6272 5.8589,73.992 9.2773,137.9509 7.5948,142.1311 -2.0961,5.207 1.0772,11.7861 10.0781,20.8906 10.4355,10.5569 16.6457,13.0082 30.1943,11.9203 l 17.0572,-1.3696 -2.8259,-74.0092 c -3.8553,-100.9702 -3.1716,-135.9927 2.5977,-133.0369 4.6286,2.3711 9.6334,92.7065 9.7204,175.4473 0.028,26.6239 1.4322,35.2903 5.6633,34.9506 3.094,-0.2484 11.6719,3.1614 19.0612,7.5773 17.4528,10.4297 17.6169,9.7867 17.5793,-68.8647 -0.056,-117.2575 0.5653,-130.505 6.2343,-132.8998 3.9593,-1.6724 6.0627,4.5216 7.4282,21.8789 2.5848,32.8408 1.8908,121.7217 -1.2737,163.3274 -2.4034,31.603 -1.9394,34.3938 6.5987,39.6618 8.8006,5.4298 9.1847,3.9894 9.209,-34.527 0.042,-65.9676 4.8775,-163.4382 8.4875,-171.0723 5.1641,-10.9195 7.1949,25.6791 5.0495,90.9907 -3.692,112.3789 -3.3474,124.3759 3.6763,128.0736 3.5776,1.8837 17.4107,2.5802 30.7401,1.5487 17.6231,-1.3629 34.3232,1.6256 61.2077,10.9578 20.3345,7.0587 48.1919,15.1408 61.9057,17.9607 36.5706,7.5193 104.1533,12.189 118.2586,8.1708 11.6217,-3.3107 12.2534,-5.1341 12.5285,-36.1687 0.5858,-65.9976 3.9301,-170.0826 5.5309,-172.1343 0.9063,-1.1616 3.6208,-0.3529 6.032,1.7997 4.3779,3.906 4.6296,31.119 1.3157,142.3524 l -1.6713,56.0969 13.2834,-1.0666 c 7.3057,-0.5866 26.096,1.1894 41.7557,3.9464 21.7152,3.823 44.0595,3.3435 94.1492,-2.0208 59.6726,-6.3905 68.0764,-8.3596 91.923,-21.5387 22.9462,-12.682 32.7961,-15.1743 78.3549,-19.8253 45.5459,-4.6497 54.1467,-6.825 68.2817,-17.2698 l 16.172,-11.9499 -8.3316,-103.762 c -4.7803,-59.5345 -6.6106,-105.0267 -4.2944,-106.7284 6.5875,-4.8407 11.8618,30.3083 17.7531,118.3144 l 5.5516,82.9285 10.2129,-0.8207 c 9.5043,-0.7632 10.0533,-2.7897 7.9123,-29.1887 -1.2529,-15.6036 -8.0804,-62.423 -15.1441,-104.0455 -7.0641,-41.6229 -12.746,-77.1428 -12.6266,-78.933 0.5717,-8.5828 -2.4787,-8.9423 -16.1368,-1.9027 -43.8519,22.6018 -76.9805,29.0026 -196.2896,37.9254 -113.5329,8.4909 -139.379,8.4334 -269.5837,-0.5995 -41.4234,-2.8736 -150.4695,-17.6132 -170.3917,-23.0317 -3.5784,-0.9731 -5.5192,-2.929 -4.3128,-4.3461 1.2063,-1.4173 27.8612,0.4447 59.2331,4.1381 183.624,21.6161 444.6477,12.7885 545.4116,-18.4458 48.8027,-15.1279 99.6747,-46.0764 122.2016,-74.3429 14.3136,-17.9607 16.3428,-15.0755 6.6794,9.497 -4.2441,10.7928 -14.6819,22.227 -30.2412,33.1299 -13.0679,9.1573 -26.519,18.591 -29.8908,20.9637 -5.2103,3.6668 -4.6214,13.0735 3.9199,62.6359 5.5279,32.0766 11.8813,81.3016 14.1184,109.3889 2.551,31.7702 5.8205,50.9272 8.7064,50.6955 2.5516,-0.2049 17.3893,-7.4347 32.9729,-16.0663 39.3334,-14.8053 26.569,-37.6825 23.5445,-75.3501 -2.6345,-32.8111 -3.598,-83.8421 -2.1414,-113.4026 2.8644,-58.1116 -3.5316,-101.3895 -18.5425,-125.4726 -11.1334,-17.8628 -47.4355,-45.301 -74.5621,-56.357 -20.0436,-8.169 -80.7718,-22.5332 -158.753,-37.55 l -24.3608,-4.6913 1.3795,17.1796 c 1.0184,12.683 -1.7634,21.136 -10.6284,32.2975 -10.9363,13.7687 -11.1537,14.8722 -2.4337,12.3627 5.2659,-1.5156 17.579,-4.7228 27.363,-7.1271 14.4442,-3.55 16.2541,-5.0763 9.6273,-8.1161 -4.489,-2.0591 -8.4815,-7.7279 -8.8725,-12.5966 -0.6295,-7.8407 2.5332,-9.1055 27.6644,-11.0612 25.987,-2.0224 45.4181,1.6289 40.3499,7.5825 -1.1322,1.3294 -12.0718,5.1589 -24.3107,8.5102 -19.7302,5.4025 -16.4373,5.6542 29.0491,2.2218 67.3501,-5.0823 92.7591,0.6907 111.1749,25.2591 12.0823,16.12 12.7793,18.7741 7.8158,29.7688 -7.9426,17.5932 -30.0721,28.7297 -80.6926,40.6079 l -44.8394,10.5216 43.4773,-5.8683 c 42.4581,-5.7305 43.5626,-5.6286 47.1132,4.351 6.3638,17.8866 5.2609,25.6152 -4.5562,31.9287 -20.8567,13.4132 -168.16,36.7877 -182.21,28.9136 -2.9791,-1.6695 -4.9332,-10.4851 -4.5306,-20.441 0.8657,-21.4218 8.4582,-25.7811 59.6648,-34.258 l 36.3611,-6.019 -43.9793,0.2736 c -49.776,0.3099 -73.3496,-5.6162 -85.7181,-21.5477 -11.3919,-14.6732 -6.7555,-33.2361 12.0691,-48.3229 13.9118,-11.1496 13.9787,-11.4013 2.7903,-10.5029 -6.3049,0.5063 -14.3464,-2.036 -17.87,-5.6491 -5.4112,-5.5487 -4.9123,-7.091 3.2118,-9.9275 11.5187,-4.0217 11.965,-20.7545 0.5292,-19.8362 -5.7471,0.4614 -6.5097,-0.7978 -2.9875,-4.9353 2.7205,-3.1956 8.3503,-4.368 13.2548,-2.7609 4.6896,1.5366 13.1476,2.74 18.7956,2.6745 9.1319,-0.1058 10.0997,-2.231 8.7381,-19.1888 -0.8422,-10.4887 -0.5507,-22.4007 0.6475,-26.471 1.6986,-5.7704 -0.9293,-7.1519 -11.9242,-6.2691 -16.3647,1.314 -19.3517,-5.248 -4.7539,-10.4439 22.1411,-7.8812 25.7818,-6.0604 27.3673,13.6854 1.1605,14.4532 2.9358,17.9533 7.9004,15.5761 10.6979,-5.122 60.6878,0.8121 115.1518,13.669 147.9845,34.9339 180.6672,73.9136 172.6664,205.9349 -1.7268,28.4924 -0.8573,80.2265 1.9321,114.9654 2.5773,31.0851 13.8988,65.4162 -7.1469,88.5752 -15.7473,17.3283 -51.569,27.7426 -74.7308,33.9596 -30.7863,8.2639 -31.9119,11.2889 -26.2669,70.5845 5.2421,55.0571 5.0027,134.0138 -0.4957,163.7741 -4.1661,22.5472 -0.066,38.1496 -40.4139,39.3722 -34.3452,1.0406 -38.4384,0.3563 -42.9798,-62.2866 -2.2103,-30.5135 -4.6927,-80.6109 -5.5127,-111.3276 -1.4329,-53.6667 -1.8477,-55.8461 -10.6218,-55.774 -20.8113,0.1695 -41.8457,5.022 -59.4138,13.7053 l -18.6576,9.2221 2.4025,30.3462 c 1.3401,16.6893 0.8798,35.6346 -1.0014,42.0993 -4.2723,14.6805 -19.0321,32.9076 -40.2213,31.9287 -15.3731,-0.7102 -22.0187,0.688 -32.3898,-8.1414 -11.5481,-9.8327 -8.931,-12.6822 -11.7271,-47.5049 l -1.7743,-30.6918 -49.0362,3.2309 c -60.5948,3.9925 -86.2583,-11.2397 -109.2732,-1.9176 -19.6175,7.9463 -32.6677,10.0806 -60.4586,9.8894 l -35.4414,-0.244 1.4423,54.6033 c 1.4047,53.1948 -0.6969,138.7918 -7.1667,153.7957 -12.3353,28.6066 -38.9722,21.8756 -55.8907,18.0627 z m 39.7408,-44.8928 c 0.5682,-11.9804 2.169,-44.4874 3.5573,-72.2378 1.3882,-27.7501 2.7811,-64.1556 3.096,-80.9011 l 0.5721,-30.4461 -24.5443,-5.1042 c -13.4993,-2.8073 -25.553,-3.9295 -26.7852,-2.4937 -2.2143,2.5789 -3.8383,82.8997 -3.3514,165.7403 0.2824,47.9698 1.9171,50.6091 30.0276,48.4719 16.1564,-1.2284 16.41,-1.5643 17.4279,-23.0293 z m 514.0902,-29.2645 c 7.8064,-2.9723 6.4844,-12.371 6.3272,-15.2532 -0.1562,-2.8825 0.3791,-34.0749 1.192,-69.3169 0.8128,-35.2417 0.2313,-80.1284 -1.2919,-99.7477 -2.5011,-32.2246 -3.5115,-35.2906 -10.4474,-31.7288 -4.2229,2.1684 -16.7897,5.6759 -27.9268,7.7948 l -20.2485,3.8521 8.1959,100.4937 c 4.5072,55.2712 8.7729,101.9888 9.478,103.8167 7.5643,5.8109 27.4454,2.8596 34.7215,0.089 z m -170.232,-116.32 c 0.2219,-5.6349 0.235,-16.0694 0.876,-30.5686 l 1.1646,-26.362 c -17.5115,5.3226 -32.2203,7.5432 -50.2137,7.1033 l -0.3071,23.2218 c 3.5129,42.4624 6.0535,46.3401 29.1684,44.4841 17.4938,-1.4046 18.7596,-3.8544 19.1143,-12.8624 z m -538.465,24.1585 c 1.9872,-4.5565 4.2025,-18.611 4.9231,-31.2321 0.7204,-12.6207 2.3872,-30.2288 3.7036,-39.1287 6.4183,-43.391 6.5789,-37.2346 -9.5917,-38.633 -8.1896,-0.7085 -18.3523,-2.3482 -22.5841,-3.6437 -6.8234,-2.0894 -6.8919,0.9242 -4.6301,50.6418 2.5865,56.8592 6.386,71.7405 18.0768,70.8018 3.5692,-0.2866 8.1154,-4.2492 10.1024,-8.8061 z m 571.4654,-415.7152 c -5.6693,-0.6294 -15.8846,0.1628 -22.7004,1.7605 -6.8162,1.5971 -2.1775,2.112 10.3076,1.1437 12.4859,-0.9634 18.0621,-2.2753 12.3928,-2.904 z m 42.6367,-7.5366 c -1.6295,-1.387 -5.5575,-1.234 -8.7289,0.3405 -3.5045,1.74 -2.3427,2.7291 2.9628,2.5223 4.8007,-0.1868 7.3954,-1.4751 5.7661,-2.8625 z m 82.4254,-12.995 c 10.7939,-4.4375 10.7328,-4.5237 -2.5768,-3.6425 -7.4982,0.4965 -21.6675,3.2483 -31.4877,6.1155 l -17.8552,5.2136 20.432,-1.5714 c 11.2375,-0.8632 25.4068,-3.616 31.4876,-6.1159 z m -37.4173,-10.831 c 12.7217,-3.401 -0.6763,-2.8053 -36.417,1.6197 -31.0986,3.8497 -58.421,9.2136 -60.7164,11.9189 -4.5018,5.3062 60.5705,-3.7639 97.1334,-13.5386 z m 8.0632,-41.826 c 51.9052,-10.1775 72.314,-17.5539 75.1412,-27.1575 3.2828,-11.1511 -16.1514,-26.8352 -38.397,-30.9884 -28.5665,-5.3333 -158.1571,5.7206 -178.0956,15.1915 -12.8987,6.1265 -27.0033,22.9327 -26.326,31.3679 1.7958,22.3649 83.8057,28.0321 167.6774,11.5865 z m -105.6713,-7.4431 c -10.2748,-2.7955 -18.9765,-5.0904 -19.3362,-5.0991 -3.0075,-0.074 -6.5467,-14.6652 -4.9078,-20.2325 2.4408,-8.2921 15.0306,-10.5499 14.0135,-2.5133 -2.2397,17.6953 112.9898,17.8281 135.7519,0.1566 6.4119,-4.978 12.8422,-8.0425 14.2899,-6.8098 5.8941,5.0176 -2.6639,17.5784 -17.0178,24.9768 -20.2362,10.4301 -97.4505,16.4171 -122.7936,9.5203 z m -35.1432,-67.8565 c -0.2005,-2.4965 -2.4071,-4.3749 -4.9036,-4.1744 -2.4963,0.2004 -4.375,2.4069 -4.1745,4.9033 0.2004,2.4965 2.4071,4.3751 4.9035,4.1747 2.4964,-0.2005 4.375,-2.4071 4.1746,-4.9036 z m -186.7862,337.0699 c -0.5865,-60.8195 -2.0375,-107.0243 6.5505,-98.3659 1.9375,1.9533 6.434,123.6674 4.3627,134.7172 -3.7871,19.1475 -10.5866,-2.4859 -10.9132,-36.3513 z m 101.5943,-171.9181 c -3.6281,-10.7309 -4.1344,-10.8171 -18.8853,-3.2146 -19.3893,9.9939 -115.2252,18.8755 -153.5968,14.235 -15.2235,-1.8411 -37.0124,-7.5472 -48.4195,-12.6807 -11.4072,-5.1333 -21.5044,-9.2721 -22.4382,-9.1971 -0.9339,0.075 -1.1908,6.4558 -0.5706,14.1798 4.1433,19.5873 -10.2931,13.4294 -22.9612,12.7388 -26.727,-1.4475 -40.4456,-5.8826 -41.0385,-13.2662 -0.2502,-3.1167 5.3984,-4.2723 15.6056,-3.1934 24.5167,2.5919 41.1522,-9.8143 42.1923,-31.4649 0.9308,-19.3819 -7.711,-31.0213 -19.0137,-25.6096 -3.8865,1.8608 -12.6175,14.1495 -19.4023,27.3088 -17.812,34.5458 -28.1439,32.6861 -13.5053,-2.4305 16.0008,-38.3841 50.5137,-59.513 56.1738,-34.3906 2.1379,9.4884 2.5438,9.514 15.9925,1.0002 7.5895,-4.8044 16.2156,-12.5272 19.1693,-17.1614 2.9536,-4.6342 9.3394,-8.7443 14.191,-9.1339 7.0551,-0.5665 8.5655,-3.889 7.5452,-16.5954 -1.0129,-12.6146 -3.0625,-15.7436 -9.9505,-15.1906 -4.7709,0.3831 -14.7081,-5.4068 -22.0822,-12.8664 -11.5264,-11.6603 -13.3595,-16.6407 -13.0639,-35.4984 0.2989,-19.0645 -0.7571,-21.8466 -8.0683,-21.2596 -4.6265,0.3715 -8.5758,-1.3672 -8.7762,-3.8636 -0.2005,-2.4968 4.7421,-4.9493 10.9832,-5.4504 6.2416,-0.5012 11.1841,-2.9538 10.9837,-5.4503 -0.2005,-2.4964 1.9133,-4.7219 4.6974,-4.9454 3.4942,-0.2806 4.7134,7.4827 3.9366,25.0621 -1.5141,34.2482 7.8123,47.0887 32.7478,45.0865 23.0608,-1.8516 34.8927,-14.0618 36.5888,-37.7584 l 1.3558,-18.9397 -30.2495,-0.8036 c -34.7666,-0.9238 -41.2939,-8.3264 -9.5864,-10.8723 28.3289,-2.2747 19.1036,-11.0036 -10.3315,-9.7756 -18.1373,0.7571 -20.1148,-0.016 -13.8539,-5.414 4.0166,-3.4633 11.7958,-6.6577 17.2868,-7.0986 14.067,-1.1295 15.3884,-29.8416 1.8514,-40.2327 -5.114,-3.9256 -13.8106,-12.5009 -19.3249,-19.0563 -8.4235,-10.013 -9.1639,-13.1466 -4.6321,-19.5952 4.5307,-6.4466 12.3585,-7.773 48.8711,-8.281 23.9122,-0.3326 56.435,0.765 72.2734,2.4388 27.2294,2.8781 28.8527,3.7396 29.8234,15.8285 0.6095,7.591 3.4712,12.5884 7.0441,12.3015 12.0043,-0.9639 27.8007,19.2372 33.4994,42.841 5.7223,23.7003 3.8714,57.576 -3.6314,66.458 -2.163,2.5608 -3.6959,7.8233 -3.407,11.6944 0.2768,3.8725 -5.0289,20.8476 -11.8179,37.7249 -14.0759,34.9912 -16.6335,36.4485 -73.5501,41.9123 -36.1622,3.4713 -49.9639,-1.8123 -51.3983,-19.6763 -0.8306,-10.3444 7.0055,-10.1779 14.7909,0.3142 5.2019,7.0105 11.3141,8.228 32.687,6.5119 41.5841,-3.339 54.3353,-12.2905 63.5864,-44.6401 l 7.8176,-27.3348 -17.4373,-40.2593 c -17.9084,-41.3459 -22.8585,-62.9994 -18.5949,-81.3362 2.3995,-10.3206 1.8468,-10.428 -37.5921,-7.3109 -22.0152,1.7336 -48.2202,2.4777 -58.2336,1.6394 l -18.2068,-1.5245 15.9829,16.4992 c 17.8884,18.4671 19.8763,25.8596 11.0121,40.9574 -5.7818,9.8479 -5.2823,10.7006 9.5682,16.3403 19.7448,7.4984 30.5652,29.2589 28.6178,57.5513 -1.3841,20.1057 -12.5826,35.7864 -30.894,43.2587 -9.4147,3.8421 -11.8778,37.7674 -3.1857,43.8761 2.9685,2.086 22.6717,3.4263 43.7848,2.9781 21.1136,-0.448 51.9945,2.2186 68.6239,5.926 l 30.236,6.7409 6.5605,-10.2853 c 6.1132,-9.5846 6.9087,-9.766 11.6687,-2.6616 4.7104,7.03 5.2878,7.0145 7.4122,-0.2032 3.0066,-10.2127 11.5417,-5.6832 13.1818,6.9955 1.1443,8.848 1.7037,8.5216 5.2326,-3.0517 5.4546,-17.8892 13.4585,-14.1417 15.1641,7.1005 1.0487,13.0604 -0.844,19.0477 -7.286,23.0463 -7.1014,4.4079 -8.3351,9.9861 -6.7035,30.3054 1.5987,19.9105 0.4639,25.3285 -5.6615,27.0262 -5.0728,1.4061 -8.9205,-1.602 -11.3892,-8.9037 z m -30.5649,-13.7308 c 7.7823,-2.8352 11.2301,-7.7513 11.5448,-16.4609 0.5461,-15.1198 -3.1223,-15.4205 -12.9648,-1.0627 -7.1331,10.4049 -10.2871,11.0874 -72.5658,15.7047 -68.2053,5.0567 -96.465,1.7284 -107.1017,-12.6136 -4.2718,-5.76 -3.8556,-9.4383 1.8232,-16.1084 7.0294,-8.2569 7.5084,-8.2172 10.6873,0.8868 4.2334,12.1263 14.0287,13.4166 86.0166,11.3319 42.5088,-1.231 57.9993,-3.0858 57.6924,-6.9075 -0.2307,-2.8737 -2.8704,-5.0279 -5.8663,-4.7873 -3.9392,0.3163 -4.1842,-1.0459 -0.8853,-4.9203 3.2986,-3.8748 7.435,-4.1046 14.9431,-0.8298 5.7101,2.4901 11.4492,3.2749 12.7528,1.7431 3.9739,-4.6673 -27.9126,-13.1045 -67.5667,-17.8776 -44.8202,-5.3955 -105.3818,1.6656 -121.4797,14.1636 -37.0855,28.7918 37.0802,53.4898 136.4843,45.4509 24.9655,-2.0046 50.383,-5.4896 56.4858,-7.7129 z m -14.3942,-223.248 c -5.1868,-29.1799 -30.8014,-55.145 -28.7104,-29.1032 0.7347,9.1505 26.1411,52.1979 30.5961,51.8402 1.169,-0.094 0.3208,-10.3256 -1.8839,-22.7372 z m -400.0218,253.6963 c -46.0197,-3.99 -74.8509,-11.4477 -95.438,-24.6858 -17.1538,-11.0311 -47.5681,-43.6613 -44.2878,-47.5148 1.0307,-1.2103 12.3506,5.1737 25.1551,14.1871 30.0473,21.1506 44.2332,26.7083 94.168,36.8931 54.5321,11.123 71.3704,15.8745 71.7209,20.2386 0.3679,4.582 -7.147,4.7112 -51.3182,0.8818 z m 100.3799,-28.6747 c -5.8593,-1.8696 -12.1333,-6.4909 -13.9421,-10.269 -2.7982,-5.8442 -9.7762,-5.917 -46.764,-0.4892 -25.4556,3.7356 -48.0994,3.8968 -55.1846,2.7883 -9.6483,-1.5095 -12.0219,-11.327 1.6753,-12.2774 6.6907,-0.4643 30.7467,-5.0344 57.8016,-8.9247 27.0546,-3.8903 52.9899,-9.5172 57.6341,-12.5041 12.5369,-8.0625 6.6451,-9.6238 -10.7063,-2.837 -22.9916,8.9923 -98.9613,13.9456 -126.0307,8.217 -59.9251,-12.6816 -83.6265,-38.0831 -57.8181,-61.9647 6.1624,-5.7025 16.5566,-10.6675 23.0982,-11.0333 10.6226,-0.5961 10.9558,-0.1908 3.1137,3.7791 -4.8291,2.4443 -12.2921,9.0422 -16.5847,14.6614 -10.955,14.3405 -2.67,21.3615 35.5775,30.1492 40.7192,9.3556 102.0095,5.3317 140.4562,-9.2217 15.307,-5.7944 28.9546,-12.7288 30.3288,-15.4106 3.9584,-7.7269 -25.9291,-27.5474 -47.7593,-31.6724 -13.0066,-2.4576 -39.4745,-1.299 -76.4311,3.3459 -47.7172,5.9977 -55.3393,6.0615 -48.8715,0.4086 11.7829,-10.2989 44.5198,-16.2521 92.743,-16.8657 47.8082,-0.6085 64.1103,2.5494 86.7878,16.812 8.1884,5.1496 16.3167,9.2486 18.0628,9.1084 1.7461,-0.1402 1.3956,-14.892 -0.7794,-32.7823 -3.9464,-32.466 -3.9823,-32.5325 -18.9048,-35.1324 -8.2231,-1.4328 -17.6175,-6.7509 -20.8761,-11.818 -8.3301,-12.9528 -7.414,-55.9207 1.4374,-67.4339 8.5028,-11.0592 42.8497,-19.5395 63.0682,-15.5712 13.5956,2.6688 13.9477,3.3693 17.2957,34.4446 3.9927,37.0573 -0.5686,51.571 -18.8139,59.8682 -13.1398,5.9752 -13.1986,6.2066 -9.3706,37.0251 3.2696,26.3224 5.2201,31.2557 12.8979,32.6181 4.9753,0.8831 9.1648,3.0821 9.3097,4.8868 0.33,4.1105 -19.7674,15.4928 -28.6086,16.2027 -3.6273,0.2913 -6.4286,2.6053 -6.2249,5.1421 0.2037,2.537 -6.4498,8.5639 -14.7856,13.3931 -14.7912,8.5693 -14.9045,8.8816 -4.7086,12.9821 16.6289,6.6874 17.1562,19.0202 1.0102,23.6199 -14.2056,4.0468 -18.5592,12.2948 -5.9553,11.2828 10.5266,-0.8453 7.1964,15.2221 -3.5678,17.2143 -4.9264,0.912 -13.7511,0.1279 -19.6101,-1.7421 z m 71.9588,-203.9447 c 1.0219,-6.1082 0.7923,-15.8547 -0.5101,-21.6589 -2.0579,-9.172 -5.2369,-10.5065 -24.2824,-10.1963 -14.4691,0.2359 -23.0073,-1.9248 -25.1306,-6.36 -4.8734,-10.1787 -10.1811,2.5541 -8.7809,21.0646 1.9617,25.9262 9.0218,32.0961 34.3965,30.0586 19.9066,-1.5984 22.6596,-3.0605 24.3075,-12.908 z m 261.3356,101.7876 c -7.8957,-8.0965 -4.5805,-12.1731 11.4262,-14.0497 11.7863,-1.3819 12.4848,-2.8283 12.1142,-25.0757 -0.3346,-20.0927 -1.8586,-24.2471 -10.215,-27.8932 -15.1229,-6.5957 -12.8124,-14.0692 3.6525,-11.8146 17.757,2.4312 33.0169,-12.5404 37.7492,-37.037 5.7074,-29.5425 4.9197,-30.4289 -24.9112,-28.0336 -20.1461,1.6176 -29.3157,0.2329 -35.8396,-5.4116 -8.4198,-7.2854 -8.4258,-7.9179 -0.1478,-15.9776 11.6101,-11.304 6.4702,-51.6194 -6.4481,-50.5821 -6.7379,0.541 -7.7123,4.2933 -5.7553,22.1622 2.7639,25.239 -4.1438,31.4743 -11.45,10.3349 -2.7976,-8.0948 -7.5854,-17.2917 -10.6396,-20.4374 -3.0539,-3.1457 -5.577,-11.6803 -5.6066,-18.9653 -0.034,-8.4351 -2.2295,-13.0711 -6.0446,-12.7648 -6.845,0.5496 -34.8737,-23.4517 -39.0204,-33.4141 -3.6051,-8.6603 2.5107,-23.0438 10.0554,-23.6496 3.2563,-0.2614 7.8909,-5.9172 10.2993,-12.5685 3.2308,-8.9221 7.2556,-11.9487 15.3502,-11.5422 6.0347,0.3031 14.8822,-3.6041 19.6622,-8.6829 4.875,-5.1794 12.5915,-8.5413 17.5741,-7.6569 5.3131,0.9428 11.6243,-2.1987 15.703,-7.8168 4.7046,-6.48 11.3711,-9.3191 21.4951,-9.1542 12.8597,0.2095 14.9982,2.0501 17.2825,14.877 1.9573,10.9897 4.798,14.462 11.3975,13.932 10.7401,-0.8623 13.0376,13.5325 3.6249,22.7118 -4.5336,4.4211 -4.9693,7.7048 -1.4233,10.7241 15.2805,13.0087 1.4402,30.2294 -26.0703,32.4384 -11.9306,0.9579 -17.3097,4.2713 -22.5709,13.9041 l -6.9076,12.6465 17.337,-4.2255 c 9.5356,-2.3242 23.8689,-6.0899 31.8518,-8.3682 12.6526,-3.6108 14.6121,-2.9319 15.2723,5.2901 0.5647,7.0331 -3.476,10.9826 -15.8848,15.5262 -9.1531,3.3516 -18.9462,6.2906 -21.762,6.5305 -2.817,0.2262 -6.5376,8.7737 -8.2703,18.9633 -3.0821,18.121 -2.8881,18.5066 8.8539,17.6249 17.0652,-1.282 32.8106,2.1841 33.2224,7.3125 0.1934,2.4089 -6.3537,4.0799 -14.5491,3.7129 -8.1957,-0.3667 -19.8819,1.3086 -25.9694,3.7239 -7.3125,2.9011 -0.2977,3.3752 20.6701,1.3988 31.4009,-4.5867 31.5896,-5.8095 33.189,24.5001 1.6253,30.7976 -5.6434,52.793 -21.5197,65.1185 -8.9557,6.953 -10.3747,11.8479 -8.8693,30.597 1.5036,18.7253 3.4181,22.7773 11.8881,25.1596 l 10.0953,2.8396 -10.206,8.443 c -12.7961,10.5854 -41.2955,13.2527 -49.6853,4.6501 z m -9.4731,-245.9345 c 5.9778,-14.9026 5.9078,-16.3514 -0.7661,-15.8155 -4.041,0.3245 -9.543,4.1613 -12.2269,8.5264 -3.3201,5.4002 -6.0087,6.3994 -8.4135,3.1265 -4.7231,-6.4272 11.1886,-24.5992 22.321,-25.493 4.8693,-0.391 10.9985,2.491 13.6206,6.4044 3.6791,5.4916 7.6842,6.0246 17.5458,2.3357 11.7546,-4.3968 11.949,-4.8557 2.4238,-5.7263 -5.6951,-0.5208 -10.5222,-3.0303 -10.7267,-5.5772 -0.2045,-2.5467 3.9162,-8.8339 9.1571,-13.9707 l 9.5289,-9.34 -10.225,0.6703 c -11.6782,0.7629 -14.28,-8.862 -4.8744,-18.0342 8.0603,-7.861 7.3744,-18.866 -1.1345,-18.1828 -9.7475,0.7827 -19.7106,14.6157 -18.7894,26.0882 0.4485,5.5859 -1.8652,14.3617 -5.1415,19.5022 -5.7527,9.0262 -5.9951,8.9579 -7.0818,-1.9846 -0.6167,-6.2319 -3.1393,-14.0096 -5.6015,-17.2841 -3.5171,-4.6779 -5.9478,-3.2587 -11.3446,6.6212 -6.7413,12.3429 -19.0886,17.9817 -19.8062,9.0455 -0.8359,-10.4114 -8.8749,-2.8356 -9.2735,8.7395 -0.297,8.6205 -2.9195,12.6034 -8.3055,12.6158 -6.2074,0.014 -6.8106,1.6677 -2.8535,7.8208 6.4212,9.9843 44.1609,37.4802 50.5381,36.8202 2.6665,-0.2763 7.8094,-7.8839 11.4289,-16.9069 z m -468.5781,279.3202 c -12.9933,-4.3364 -17.8205,-8.5812 -18.4329,-16.2079 -0.8523,-10.6148 14.2253,-20.2257 19.8088,-12.6271 1.5797,2.15 -0.3123,4.1649 -4.2043,4.4774 -9.5445,0.7664 -8.3978,8.0446 1.7799,11.2986 15.6147,4.9919 90.5586,0.7492 114.708,-6.4937 25.743,-7.7209 37.1907,-4.524 25.3247,7.0722 -11.0911,10.8385 -115.7458,20.2363 -138.9842,12.4805 z m 351.746,-34.5238 c -19.8064,-6.2003 -17.5968,-12.323 5.1055,-14.1459 25.476,-2.0456 37.9375,-10.7303 44.4904,-31.0063 6.271,-19.4047 -2.2675,-35.1397 -19.4151,-35.7792 -21.9811,-0.8203 -19.4861,-11.3258 3.1213,-13.1411 18.2377,-1.4644 20.9256,-0.3121 27.0074,11.5772 3.7144,7.2618 7.1506,18.1485 7.6358,24.1917 1.3272,16.5285 -14.1488,42.9113 -30.8081,52.5204 -16.4202,9.4714 -22.3869,10.4007 -37.1372,5.7832 z m -214.6511,-36.0582 c -9.1924,-4.4326 -22.5237,-4.3434 -58.9125,0.3932 -54.7927,7.1326 -58.2374,0.1322 -5.3472,-10.8667 50.7891,-10.5618 97.8647,-4.935 89.8356,10.7374 -3.5866,7 -10.6629,6.9271 -25.5759,-0.2639 z" fill="#00B894" transform="translate(-115.47278,89.622294) matrix(0.26458333,0,0,0.26458333,-1872.376,857.16065)"/>
</svg>