<?xml version="1.0" ?><svg height="293.73309mm" viewBox="0 0 215.27255 293.73309" width="215.27255mm" xmlns="http://www.w3.org/2000/svg">
    <path d="m -1331.7236,2111.3618 -0.7429,-36.3797 -1.7899,-128.9545 1.2833,-16.1991 63.4888,-1.7629 47.3801,1.8539 3.681,64.4015 1.7898,55.6485 0.071,61.7852 z" fill="#FFFFFF" paint-order="markers stroke fill" transform="translate(-47.042965,67.135047) matrix(1.5757764,0,0,1.5757764,2159.9466,-3102.7894)"/>
    <path d="m -1340.8625,2111.6135 c 0.06,-1.4178 2.5386,-2.2402 6.3209,-2.0976 2.6979,0.091 2.7279,-0.035 1.8405,-8.2979 -1.0888,-10.1397 -3.3973,-60.2859 -3.5586,-77.3103 -0.085,-8.9857 -0.026,-28.3225 0.1302,-42.971 0.1569,-14.6481 0.2511,-31.5082 0.2106,-37.4664 -0.1007,-14.6289 0.449,-15.6329 9.1256,-16.6314 3.4632,-0.3985 20.0185,-0.5092 36.7896,-0.246 16.7711,0.2632 31.2724,0.3391 32.2252,0.1684 0.9527,-0.1714 21.1274,0.074 31.0213,0.4699 7.4092,0.2963 6.5713,-0.2524 7.5084,7.137 1.68,13.248 2.3975,29.4589 2.4897,47.7847 0.051,10.166 0.2734,23.5199 0.4942,29.675 0.8904,24.8186 1.5822,62.9385 1.4409,79.3526 l -0.1511,17.3992 5.5064,0.2346 c 4.7638,0.2029 5.4593,0.4324 5.1564,1.7108 -0.4784,2.017 -4.8581,2.4883 -18.4031,1.9806 -10.7805,-0.4032 -47.5233,-0.3772 -80.3686,0.058 -37.1127,0.4925 -37.8395,0.4743 -37.7786,-0.9515 z m 21.3422,-6.0602 c -0.1086,-1.971 -0.195,-9.1916 -0.1908,-16.046 0.017,-30.5676 -0.1655,-42.0839 -1.0145,-73.3139 10e-4,-31.6828 -0.8941,-43.8829 -1.0277,-75.3795 4e-4,-1.0386 1.8298,-0.8644 3.2325,-0.8386 2.07,0.038 5.4868,0.3869 21.285,0.2386 10.5173,-0.098 50.1804,0.4036 63.4655,0.7433 4.0177,0.1027 4.0335,-0.9523 3.7443,3.7991 -0.257,4.2229 0.2479,15.1771 2.6358,57.1473 2.1203,37.2688 2.3431,53.7221 1.121,82.7773 l -0.9711,23.3808 4.1898,0.1785 c 5.3339,0.2273 5.4268,-0.054 5.0051,-15.2026 -0.1788,-6.4203 -0.6116,-23.4823 -0.9623,-37.9159 -0.3505,-14.4336 -0.8835,-33.2156 -1.1845,-41.7378 -0.301,-8.5222 -0.5639,-20.5235 -0.5839,-26.6702 -0.075,-22.9208 -1.4678,-48.1727 -2.9877,-54.1731 -0.3921,-1.5479 -1.2629,-1.6412 -16.8589,-1.8034 -9.0453,-0.093 -29.9745,-0.377 -46.5099,-0.6295 -26.7126,-0.4075 -42.8968,0.014 -44.1327,1.1484 -0.6828,0.6271 -1.0591,86.3533 -0.4773,108.7486 0.1785,6.8624 0.7087,20.8093 1.1785,30.9932 0.4698,10.184 0.9248,22.7657 1.0106,27.9592 0.086,5.1936 0.2715,9.6499 0.4124,9.9023 0.1402,0.2523 2.4107,0.4192 5.0439,0.371 l 4.7878,-0.089 z m 38.9609,2.8664 c 8.2788,-0.1377 22.7659,-0.3201 32.1933,-0.4058 9.4277,-0.086 17.2085,-0.2427 17.2911,-0.349 0.082,-0.1066 0.5403,-16.2283 1.017,-35.8269 0.7622,-31.3241 0.6592,-39.2805 -0.852,-65.7901 -0.9455,-16.5864 -1.8806,-37.1259 -2.0778,-45.6436 -0.1974,-8.5177 -0.4201,-15.5276 -0.4947,-15.5778 -0.2275,-0.151 -48.7912,-0.8908 -67.2654,-1.0234 l -17.3112,-0.1265 c 0,0 -0.5066,4.9519 -0.3497,15.4868 0.2619,17.6123 0.878,40.382 1.1874,71.676 0.2064,20.8742 0.61,25.4448 1.0655,44.229 0.2576,10.6231 -0.076,20.8412 0.081,22.5634 0.1581,1.7223 -0.078,4.6728 -0.595,6.9049 l -0.6889,4.23 10.8735,-0.049 c 5.9805,-0.026 17.6473,-0.162 25.926,-0.2996 z m 35.3865,-74.5256 c -6.8358,-2.3552 -5.3854,-14.8418 1.5525,-16.2722 3.4027,-0.7016 7.9793,1.8944 9.2063,5.2217 1.4635,3.9698 0.8655,7.6527 -3.0874,9.9974 -3.7091,2.2001 -4.4141,2.1754 -7.6714,1.0531 z m 7.2554,-5.0364 c 1.4383,-1.9266 1.4437,-2.4222 0.3981,-4.4845 -0.6416,-1.2663 -2.2404,-2.7329 -3.553,-3.258 -4.4205,-1.7696 -7.4741,4.0458 -3.9287,8.801 1.652,2.2157 5.9361,0.4786 7.0836,-1.0585 z" fill="#00B894" transform="translate(-47.042965,67.135047) matrix(1.5757764,0,0,1.5757764,2159.9466,-3102.7894)"/>
</svg>