<?xml version="1.0" ?><svg height="137.85928mm" viewBox="0 0 145.82217 137.85928" width="145.82217mm" xmlns="http://www.w3.org/2000/svg">
    <path color="#000" d="m 8470.1183,8723.0453 c -4.5561,0.024 -9.2725,0.2178 -14.1469,0.5956 -155.9248,12.0545 -127.4227,124.6534 -81.738,165.2643 45.6848,40.6109 34.442,148.9684 34.442,148.9684 29.7099,51.8355 69.5536,38.1192 86.913,-1.6864 17.3593,-39.8056 12.2343,-105.7004 39.981,-121.2133 56.7927,-31.7521 75.7785,-192.6028 -65.4511,-191.9286 z" fill="#FFFFFF" overflow="visible" paint-order="fill markers stroke" transform="translate(-6.293651,-175.34029) matrix(0.26458333,0,0,0.26458333,-2154.7481,-2092.7145)"/>
    <path d="m 11730.035,11009.996 c -9.77,0 -11.06,6.977 -6.42,35.02 3.187,19.26 7.489,37.855 9.543,41.328 7.451,12.579 12.707,-4.215 12.707,-27.229 0,-32.374 -1.343,-49.119 -15.83,-49.119 z m 214.957,51.486 c -0.423,-0.01 -0.864,0.06 -1.314,0.254 -32.019,13.549 -49.371,21.841 -54.219,34.473 -7.908,20.607 22.348,15.178 44.031,-7.902 10.628,-11.312 17.168,-22.712 14.551,-25.33 -0.677,-0.676 -1.78,-1.464 -3.049,-1.495 z m -367.121,30.913 c -18.552,0 -18.762,3.317 -1.85,29.128 11.253,17.175 36.129,28.589 36.129,16.579 0,-16.33 -22.031,-45.707 -34.279,-45.707 z m 97.94,230.914 c 32.392,30.584 26.98,57.454 26.98,99.664 0,35.709 0.651,57.115 7.047,64.937 9.806,11.991 23.702,7.47 26.204,17.85 8.516,35.324 57.304,29.597 63.101,7.431 2.288,-8.75 9.355,-17.904 15.707,-20.341 7.91,-3.036 11.537,-18.298 11.537,-48.457 0,-39.34 1.492,-60.987 21.208,-80.006 46.602,-44.955 69.608,-97.687 41.493,-152.811 -18.524,-36.318 -53.487,-64.237 -118.328,-62.433 -153.703,4.275 -160.993,122.869 -94.949,174.166 z m 196.822,-99.387 c 8.917,21.366 9.012,59.707 -13.742,93.289 -26.565,39.207 -42.243,48.826 -36.526,13.047 2.105,-13.172 4.865,-24.556 11.926,-35.987 8.539,-13.822 5.458,-55.984 -5.713,-59.707 -5.6,-1.866 -14.535,6.162 -19.859,17.848 -12.141,26.644 -19.328,26.631 -44.098,-0.1 -31.001,-33.451 -52.665,-4.05 -24.476,33.217 6.653,8.797 10.848,28.316 12.084,43.26 3.001,22.073 1.183,37.149 0.09,46.179 -1.583,13.041 -28.459,9.579 -27.986,3.966 -3.5,-73.558 -73.69,-75.593 -66.424,-137.034 5.576,-47.137 57.217,-68.872 103.901,-74.14 46.707,-5.271 93.959,15.757 110.823,56.162 z m 127.275,-40.744 c -16.603,-0.07 -33.926,2.226 -36.838,6.937 -2.411,3.9 -2.824,8.65 -0.916,10.557 6.472,6.472 70.231,-2.849 70.231,-10.268 0,-4.723 -15.873,-7.158 -32.477,-7.226 z m -494.913,53.393 c -23.132,-3.967 -22.489,4.617 -23.669,9.767 -1.299,5.67 13.395,13.664 32.246,13.59 23.3,-0.09 42.652,-5.874 33.478,-11.803 -8.058,-5.207 -17.389,-7.324 -42.055,-11.554 z m 282.769,53.597 c 13.05,-0.02 14.27,4.904 9.687,39.123 -2.882,21.527 -6.71,43.774 -8.496,49.439 -8.461,26.845 -17.846,5.273 -17.027,-39.123 0.771,-41.868 3.192,-49.423 15.836,-49.439 z m 178.701,36.517 c 0,8.925 7.843,12.906 25.414,12.906 31.523,0 28.698,-19.41 -3.381,-23.207 -9.429,-1.28 -21.809,-0.477 -22.033,10.301 z m -385.213,53.206 c -31.245,17.131 -48.28,38.135 -42.68,47.195 10.544,17.061 23.614,-1.593 47.98,-23.675 13.523,-12.254 14.884,-34.586 -5.3,-23.52 z m 370.715,31.187 c -9.194,-0.108 -12.596,10.466 -1.674,23.627 10.773,12.982 32.654,16.358 32.654,5.037 0,-3.829 -7.046,-13.335 -15.66,-21.131 -5.767,-5.221 -11.143,-7.484 -15.32,-7.533 z m -196.276,0.494 c 4.666,0.01 9.791,0.279 15.153,0.709 21.447,1.718 34.784,-3.066 34.513,7.526 -0.269,10.592 -22.214,13.193 -40.236,11.427 -18.023,-1.765 -33.163,2.928 -32.982,-10.033 -0.305,-7.351 9.556,-9.659 23.552,-9.629 z m -5.08,41.336 c 9.318,0.16 19.452,2.041 22.717,2.041 6.529,0 28.996,-3.371 28.498,8.77 -0.479,11.639 -24.27,7.711 -33.599,7.711 -9.333,0 -35.446,2.065 -35.436,-10.229 0,-6.891 8.502,-8.453 17.82,-8.293 z" fill="#00B894" transform="translate(-6.293651,-175.34029) matrix(0.26458333,0,0,0.26458333,-2154.7481,-2092.7145) translate(-3313.5291,-2437.8203)"/>
</svg>