<?xml version="1.0" ?><svg height="101.0652mm" viewBox="0 0 70.123428 101.0652" width="70.123428mm" xmlns="http://www.w3.org/2000/svg">
    <path color="#000" d="m 8470.1183,8723.0453 c -4.5561,0.024 -9.2725,0.2178 -14.1469,0.5956 -155.9248,12.0545 -127.4227,124.6534 -81.738,165.2643 45.6848,40.6109 34.2735,147.2621 34.2735,147.2621 29.7099,51.8355 71.2495,38.6026 87.0604,0.9109 15.811,-37.6916 12.2554,-106.5914 40.0021,-122.1043 56.7927,-31.7521 75.7785,-192.6028 -65.4511,-191.9286 z" fill="#FFFFFF" overflow="visible" paint-order="fill markers stroke" transform="translate(-92.065191,67.172219) matrix(0.26458333,0,0,0.26458333,-2110.0009,-2372.0211)"/>
    <path d="m 11675.811,11323.309 c 32.392,30.584 26.98,57.454 26.98,99.664 0,35.709 0.651,57.115 7.047,64.937 9.806,11.991 23.702,7.47 26.204,17.85 8.516,35.324 57.304,29.597 63.101,7.431 2.288,-8.75 9.355,-17.904 15.707,-20.341 7.91,-3.036 11.537,-18.298 11.537,-48.457 0,-39.34 1.492,-60.987 21.208,-80.006 46.602,-44.955 69.608,-97.687 41.493,-152.811 -18.524,-36.318 -53.487,-64.237 -118.328,-62.433 -153.703,4.275 -160.993,122.869 -94.949,174.166 z m 196.822,-99.387 c 8.917,21.366 9.012,59.707 -13.742,93.289 -26.565,39.207 -42.243,48.826 -36.526,13.047 2.105,-13.172 4.865,-24.556 11.926,-35.987 8.539,-13.822 5.458,-55.984 -5.713,-59.707 -5.6,-1.866 -14.535,6.162 -19.859,17.848 -12.141,26.644 -19.328,26.631 -44.098,-0.1 -31.001,-33.451 -52.665,-4.05 -24.476,33.217 6.653,8.797 10.848,28.316 12.084,43.26 3.001,22.073 1.183,37.149 0.09,46.179 -1.583,13.041 -28.459,9.579 -27.986,3.966 -3.5,-73.558 -73.69,-75.593 -66.424,-137.034 5.576,-47.137 57.217,-68.872 103.901,-74.14 46.707,-5.271 93.959,15.757 110.823,56.162 z m -84.869,66.246 c 13.05,-0.02 14.27,4.904 9.687,39.123 -2.882,21.527 -6.71,43.774 -8.496,49.439 -8.461,26.845 -17.846,5.273 -17.027,-39.123 0.771,-41.868 3.192,-49.423 15.836,-49.439 z m -32.073,121.404 c 4.666,0.01 9.791,0.279 15.153,0.709 21.447,1.718 34.784,-3.066 34.513,7.526 -0.269,10.592 -22.214,13.193 -40.236,11.427 -18.023,-1.765 -33.163,2.928 -32.982,-10.033 -0.305,-7.351 9.556,-9.659 23.552,-9.629 z m -5.08,41.336 c 9.318,0.16 19.452,2.041 22.717,2.041 6.529,0 28.996,-3.371 28.498,8.77 -0.479,11.639 -24.27,7.711 -33.599,7.711 -9.333,0 -35.446,2.065 -35.436,-10.229 0,-6.891 8.502,-8.453 17.82,-8.293 z" fill="#00B894" transform="translate(-92.065191,67.172219) matrix(0.26458333,0,0,0.26458333,-2110.0009,-2372.0211) translate(-3313.5291,-2437.8203)"/>
</svg>