<?xml version="1.0" ?><svg height="349.86777mm" viewBox="0 0 157.5045 349.86777" width="157.5045mm" xmlns="http://www.w3.org/2000/svg">
    <path d="m -11386.246,8446.2561 518.566,0.472 16.246,1186.085 -29.44,7.391 c 0,0 -2.271,32.863 -18.869,30.583 -16.599,-2.28 -22.976,-35.379 -22.976,-35.379 l -385.866,5.346 c 0,0 -10.396,38.052 -30.227,36.873 -19.83,-1.179 -19.583,-41.535 -19.583,-41.535 0,0 -36.079,13.444 -35.555,-43.162 0.524,-56.607 6.541,-788.609 6.541,-788.609 l -1.704,-359.329 z" fill="#FFFFFF" transform="translate(-50.811582,84.837207) matrix(0.27729542,0,0,0.27729542,3213.0031,-2422.2131)"/>
    <path d="m -6142.0352,12734.697 c -1.6087,-0.21 -3.3489,-0.118 -5.2148,0.321 -4.277,1.57 -70.1967,3.14 -156.2637,3.49 -222.086,0.9 -362.6593,-3.569 -362.2929,5.273 0.07,1.69 -1.8613,98.338 -0.6133,229.149 2.171,227.519 3.3119,276.573 1.8379,441.232 -4.471,138.475 3.8307,285.415 -6.9043,432.611 l -1.5332,78.573 c -1.6265,23.619 16.2677,24.364 28.539,27.431 9.081,2.025 10.3795,3.911 10.0645,14.618 -0.243,8.342 2.4648,15.265 8.4258,21.537 9.362,9.856 13.1263,9.843 38.1933,-0.12 12.324,-4.895 21.5785,-16.439 21.8965,-27.316 0.108,-3.69 32.1328,-6.435 155.6758,-5.621 85.547,0.561 168.1068,2.256 183.4648,1.322 l 27.9258,-1.697 -0.2773,9.504 c -0.409,13.973 11.0272,24.136 27.5722,24.498 19.409,0.425 33.1638,-10.413 33.6348,-26.498 0.33,-11.27 1.2725,-12.298 11.0605,-12.084 15.6331,0.342 23.6148,-12.627 21.3418,-34.668 -0.967,-9.378 -2.147,-56.709 -2.623,-105.182 -0.476,-48.473 -2.4535,-144.809 -4.3945,-214.08 -3.624,-129.264 -5.4451,-248.891 -5.6621,-372.351 -0.065,-38.573 -2.7837,-100.875 -3.4317,-138.537 -3.69,-214.503 -6.0707,-285.953 -6.8887,-317.098 2.6102,-16.49 -2.2719,-32.832 -13.5332,-34.307 z m -499.6738,24.926 c 0.796,0.04 1.6711,0.219 2.6328,0.561 l 130.5801,0.966 c 75.743,0.561 188.3951,2.882 250.3691,2.717 0,0 64.2397,-0.449 94.6817,-0.295 7.045,0.04 14.9387,13.638 14.4297,20.664 -2.717,37.519 -1.7399,156.451 -3.4199,250.842 1.639,47.508 3.0506,143.024 3.1406,212.254 0.161,126.693 4.4462,372.09 8.0742,462.316 1.075,26.727 2.7573,77.742 3.7383,113.368 0.981,35.626 3.4114,73.315 5.4004,83.754 2.002,10.439 2.8435,19.717 1.8945,20.619 -3.434,3.263 -118.4669,2.962 -184.9219,6.711 -32.508,0.06 -72.2296,-1.133 -122.3066,-1.709 -17.809,0.125 -71.8423,0.513 -120.0723,-1.586 l -81.0345,-3.869 c -2.4648,0.175 -9.6129,0.875 -10.1686,-13.954 -0.3777,-10.08 2.8218,-49.751 2.8418,-133.005 0.045,-176.059 0.2836,-336.993 1.3476,-473.858 0.612,-78.791 0,-191.767 -3.455,-293.217 -3.196,-93.893 -3.9331,-181.163 -1.5391,-204.781 1.71,-16.868 -4.1527,-49.043 7.7871,-48.498 z m 349.6856,16.125 c -19.575,-0.02 -38.8783,0.385 -55.7813,1.322 -30.713,1.705 -102.6512,2.853 -159.8652,2.555 -57.213,-0.297 -119.0235,0.979 -122.6895,2.83 -8.054,4.072 -1.8597,4.888 -1.6777,13.012 2.384,106.495 1.7345,138.091 5.6055,328.297 6.201,304.656 -3.5375,397.126 1.4785,530.34 4.255,113.039 5.385,159.795 4.914,203.302 -0.267,24.721 0.1573,47.792 0.9493,51.27 1.531,6.758 14.8968,9.224 15.0878,2.785 0.067,-2.286 3.1951,-2.78 7.7461,-1.221 4.1989,1.438 29.6058,4.361 56.461,6.496 v 0 c 99.2573,7.889 364.7531,3.944 381.166,-5.666 4.728,-2.766 1.9372,-169.855 -5.0878,-304.412 -2.581,-49.508 -4.9375,-136.143 -5.2305,-192.523 -0.296,-56.38 -0.9121,-130.029 -1.3711,-163.664 -0.462,-33.637 0.42,-61.671 1.957,-62.295 3.939,-1.603 3.8622,-14.051 -0.092,-15.586 -4.075,-1.584 -7.4632,-80.592 -8.6992,-202.787 -1.269,-125.819 -0.7726,-174.036 1.7734,-172.367 1.17,0.764 4.9979,-0.601 8.5079,-3.038 5.781,-4.014 5.8605,-4.884 0.8515,-9.257 -6.114,-5.335 -67.2809,-9.317 -126.0058,-9.393 z m 49.8222,18.275 53.9239,1.102 -3.1465,65.568 c -1.73,36.063 -2.2143,107.67 -1.0723,159.121 1.141,51.455 1.7111,106.492 1.2481,122.307 l -0.8399,28.752 -19.8906,0.707 -19.8906,0.705 -6.9747,-22.871 c -12.0989,-39.68 -56.8799,-165.23 -66.3339,-185.982 -12.193,-26.766 -18.6102,-32.436 -33.8672,-29.924 -6.69,1.103 -14.9931,3.97 -18.4531,6.371 -5.8,4.027 -5.8969,5.586 -1.2149,20.16 2.788,8.687 5.0173,17.736 4.9473,20.111 -0.147,5.006 -19.1467,3.17 -31.0977,-3.007 -4.228,-2.18 -17.5448,-3.476 -29.5918,-2.872 l -21.9023,1.106 -1.4668,-18.201 c 0.281,-10.009 -0.9665,-27.944 -2.7715,-39.852 -1.801,-11.907 -3.0712,-25.124 -2.7852,-29.371 0.578,-9.045 -7.0263,-13.084 -19.3593,-10.281 -8.166,1.858 -8.7416,1.023 -8.3516,-12.215 0.589,-20.117 -8.3392,-27.83 -29.9512,-25.873 -9.825,0.888 -25.9184,4.515 -30.8574,8.922 -7.228,6.452 -8.2021,10.182 -7.4141,28.463 l 0.9063,21.037 -29.7236,-1.314 c -18.3608,1.047 -23.5413,1.067 -42.4776,2.936 l 1.2305,-102.657 90.582,1.613 c 43.221,0.889 111.0049,-0.02 150.6309,-2.02 39.623,-2.003 96.3078,-3.14 125.9648,-2.541 z m -259.6269,63.045 c 3.0795,-0.01 5.646,0.253 6.957,0.791 7.368,3.023 13.3258,86.551 11.8008,206.844 l -1.334,105.164 -21.6582,-0.474 -21.6621,-0.475 -0.3379,-139.902 c -1.233,-94.79 2.3913,-146.432 0.8223,-154.496 -2.835,-14.571 3.1798,-14.595 15.3808,-16.604 3.36,-0.553 6.9518,-0.837 10.0313,-0.848 z m -7.1973,19.397 c -3.9495,1.473 -4.6048,12.895 -4.666,25.187 l -0.074,14.735 c -0.035,6.857 10.1198,4.955 12.0078,4.996 4.432,0.1 6.8688,-41.069 -5.3652,-44.914 -0.7065,-0.222 -1.3382,-0.215 -1.9024,0 z m 44.2422,17.291 c 0.632,-0.02 1.3527,0.105 2.1719,0.281 6.534,1.406 8.7397,7.145 6.8027,132.649 -1.113,72.147 -1.2868,133.418 -0.3848,136.158 0.899,2.738 -0.4063,5.677 -2.9023,6.529 -2.496,0.852 -5.1505,-0.624 -5.8945,-3.275 -0.75,-2.654 -1.2076,-42.045 -1.0196,-87.536 0.187,-45.488 -2.0578,-105.949 -2.5468,-134.351 -0.742,-43.367 -0.6508,-50.335 3.7734,-50.455 z m -107.6836,22.685 c 16.7948,-0.39 21.7244,1.915 23.4902,6.735 1.279,3.491 3.999,53.212 2.295,115.945 -1.693,62.33 -0.6574,130.372 -5.0704,131.373 -16.723,3.301 -35.2041,1.721 -52.1171,0.844 0.073,-1.253 -7.8232,-89.082 -6.0762,-191.406 1.367,-20.905 -0.7466,-62.604 4.1009,-62.716 z m 0.9238,17.627 c -4.6313,0.269 -10.0659,3.174 -13.1269,8.532 -2.684,4.696 -3.8356,10.336 -2.5586,12.533 5.621,9.677 23.6071,-0.65 23.9941,-13.778 0.1515,-5.188 -3.6772,-7.556 -8.3086,-7.287 z m 236.2559,11.903 c 7.976,-0.962 10.0838,3.649 34.3418,75.068 21.157,62.277 38.9843,112.199 52.1113,145.893 1.29,3.311 -3.5818,4.418 -18.0508,4.101 -17.093,-0.374 -19.5714,-1.294 -18.0214,-6.687 1.6009,-5.581 -45.0459,-161.945 -59.0489,-197.934 -5.979,-15.367 -4.501,-18.852 8.668,-20.441 z m -223.5176,35.256 c -2.062,-0.05 -4.0458,11.777 -4.6758,27.769 -0.593,15.319 -2.5924,35.1 -4.4394,43.961 -2.734,13.121 -3.1629,9.589 -2.2949,-19.057 1.014,-33.634 -0.3898,-42.629 -5.8418,-37.445 -3.314,3.14 -9.1733,97.24 -6.5313,104.756 2.353,6.695 9.356,4.126 9.584,-3.514 0.084,-2.884 2.3105,-4.178 5.1445,-3.015 6.346,2.604 8.9388,-8.633 11.2188,-48.672 2.552,-44.814 1.8909,-64.694 -2.1641,-64.783 z m 122.0098,9.865 19.2011,0.42 19.2032,0.42 -0.3301,87.054 c -0.186,47.882 -0.705,87.414 -1.166,87.852 -2.693,2.562 -37.2334,4.262 -39.4063,1.949 -1.442,-1.532 -1.4675,-42.137 -0.061,-90.24 z m 52.0703,2.935 8.9551,1.207 c 27.227,3.669 25.2485,-2.37 23.1445,70.594 -1.036,36.038 -1.1139,74.038 -0.1699,84.443 l 1.7129,18.92 -16.6739,-0.365 c -14.89,-0.326 -16.6767,-1.232 -16.4687,-8.453 0.118,-4.448 -0.022,-23.467 -0.3106,-42.266 -0.286,-18.795 -0.4454,-54.403 -0.3554,-79.127 z m -119.3535,25.963 c -0.6259,-0.268 -1.3001,-0.203 -2.0176,0.217 -3.901,2.285 -6.8974,69.338 -3.5254,78.928 4.439,12.629 9.4522,-1.791 10.7402,-30.899 1.2469,-28.086 -0.8163,-46.366 -5.1972,-48.246 z m 170.5215,32.703 15.6504,52.489 c 8.608,28.868 16.7449,55.345 18.0839,58.838 2.147,5.603 0.069,6.295 -17.7265,5.906 l -20.1563,-0.442 2.0762,-58.398 z m -233.0332,68.623 c -2.027,-0.04 -4.7983,4.75 -6.1563,10.655 -1.361,5.903 -3.8891,10.704 -5.6191,10.666 -3.61,-0.08 -4.7603,15.521 -1.4043,19.052 h -0.01 c 3.599,3.785 8.5185,-0.779 8.7285,-8.103 0.108,-3.72 1.8464,-7.728 3.8574,-8.906 4.829,-2.824 5.3477,-23.26 0.5997,-23.364 z m 61.2539,2.11 c -2.7413,-0.07 -6.0477,7.538 -7.1446,20.035 -1.274,14.516 -0.465,18.591 3.711,18.682 5.75,0.125 8.8862,-12.866 7.1582,-29.67 -0.6379,-6.189 -2.0799,-9.002 -3.7246,-9.047 z m -81.8164,65.769 c 4.7063,0 10.5268,0.156 17.7343,0.42 19.278,0.702 66.623,1.053 105.209,0.776 38.585,-0.277 116.6857,-0.272 173.5528,0 l 103.3984,0.51 -0.2949,10.231 -0.3028,10.226 -193.2793,-1.924 v 0 c -106.305,-1.056 -200.1719,-1.109 -208.5899,-0.115 -16.229,1.917 -22.0843,-3.37 -17.0703,-15.406 1.434,-3.446 5.5256,-4.738 19.6446,-4.723 z m -21,31.909 167.9726,3.677 c 92.39,2.023 187.674,3.051 211.75,2.285 l 43.7676,-1.392 -1.1465,39.187 -1.1465,39.192 -22.7734,-1.68 -22.7715,-1.68 -2.8848,-12.925 c -2.965,-13.274 -18.6935,-29.132 -25.1464,-25.354 -2.211,1.292 -3.4195,17.604 -3.1055,41.725 l 0.5156,39.603 -16.3809,-0.357 c -19.287,-0.422 -19.3231,-0.504 -19.4921,-47.903 -0.066,-18.164 -1.868,-33.136 -4.293,-35.689 -2.403,-2.526 -15.2829,-4.79 -30.2559,-5.334 -24.924,-0.899 -26.1784,-0.549 -28.4414,7.926 -1.897,7.109 -5.3869,9.309 -17.6289,11.121 -8.396,1.243 -17.133,3.356 -19.416,4.695 -3.04,1.775 -4.6319,37.036 -5.9199,131.035 l -1.7656,128.6 -25.7559,0.705 c -14.166,0.386 -26.1053,0.585 -26.5313,0.414 -0.428,-0.157 3.472,-11.76 8.668,-25.783 15.863,-42.836 20.2173,-65.974 14.9883,-79.678 -4.838,-12.68 -22.695,-23.268 -36.543,-21.67 -7.187,0.83 -7.9039,-1.011 -8.9179,-22.857 -0.977,-21.018 -5.1787,-32.746 -14.2637,-39.813 -4.11,-3.193 3.774,-20.106 21.123,-45.302 13.85,-20.121 14.8527,-22.917 10.0157,-28.004 -3.98,-4.19 -7.1511,-4.754 -12.2481,-2.176 -6.266,3.166 -6.7289,2.253 -5.1719,-10.199 1.434,-11.486 0.4683,-14.102 -6.0117,-16.321 -10.529,-3.605 -21.8637,6.689 -22.2597,20.209 -0.245,8.346 -1.5466,10.103 -6.1426,8.217 -11.57,-4.744 -19.2994,0.801 -19.6914,14.129 -0.202,6.916 1.2932,15.895 3.3222,19.953 3.292,6.584 2.8522,7.091 -4.0898,4.713 -9.43,-3.23 -39.5264,0.163 -39.6504,4.469 -0.049,1.695 5.5702,6.77 12.4902,11.277 9.907,6.45 16.3233,7.92 30.1973,6.895 23.805,-1.761 35.6449,9.328 14.0449,13.154 -13.581,2.403 -17.7725,14.789 -10.2715,30.336 6.412,13.292 6.5166,32.754 0.1836,34.549 -2.495,0.708 -9.1519,2.195 -14.7949,3.306 -17.215,3.388 -28.0548,16.639 -28.5898,34.95 -0.556,19.006 9.3771,56.141 20.5351,76.777 l 8.0156,14.822 -29.3945,-0.41 c -10.309,1.256 -20.7598,2.459 -33.3828,3.504 -6.002,-0.131 -6.7487,-33.067 -3.8887,-187.592 z m 277.9003,49.242 c 12.372,0.271 14.7306,1.489 14.5586,7.511 -0.117,3.992 -2.6055,7.136 -5.6015,7.071 -3.713,-0.08 -5.4651,3.525 -5.6211,11.564 -0.208,10.582 0.2464,11.092 4.8164,5.391 4.617,-5.763 5.2013,-5.293 6.8633,5.543 2.424,15.768 5.6649,99.145 6.5859,169.287 l 0.7402,56.66 -8.9726,-0.197 c -4.936,-0.108 -13.841,0.665 -19.791,1.719 l -10.8242,1.916 3.2792,-124.141 c 1.8041,-68.278 2.3633,-128.305 1.2403,-133.395 -1.941,-8.803 -1.3245,-9.237 12.7265,-8.929 z m 77.4668,9.506 c 3.315,3.49 9.7357,61.72 17.2227,156.203 3.767,47.554 8.2841,88.032 10.0391,89.951 2.005,2.193 4.7191,2.024 7.3281,-0.451 3.053,-2.905 3.066,-20.768 0.041,-68.151 -4.468,-70.035 -8.6572,-120.591 -11.1152,-134.123 -1.543,-8.485 -1.1979,-8.605 18.2461,-6.164 10.899,1.366 21.2034,3.391 22.9004,4.496 1.698,1.105 2.8827,44.545 2.6347,96.533 -0.25,51.985 0.4279,98.99 1.5059,104.454 l 1.9629,9.929 -34.6114,-0.758 -34.6132,-0.755 2.5683,-13.532 c 1.413,-7.442 1.1083,-45.886 -0.6777,-85.429 -1.783,-39.544 -3.0124,-75.129 -2.7344,-79.08 0.279,-3.948 -0.2392,-22.522 -1.1582,-41.272 -0.916,-18.75 -0.7121,-33.082 0.4609,-31.851 z m -223.0507,6.15 c 1.0564,-0.06 0.4641,1.716 -1.7852,5.656 -2.306,4.036 -5.9943,8.394 -8.1953,9.684 -2.875,1.679 -2.8243,0.264 0.1777,-4.992 2.306,-4.033 5.9923,-8.39 8.1973,-9.68 0.718,-0.42 1.2533,-0.647 1.6055,-0.668 z m 109.6562,1.451 c 9.8684,1.665 8.2079,21.528 5.2109,123.994 l -3.6191,123.698 -13.1836,0.964 -13.1836,0.967 -0.5508,-50.428 c -0.306,-27.732 -0.4253,-82.997 -0.2753,-122.808 l 0.2773,-72.385 11.2363,-1.986 c 6.2288,-1.103 10.7985,-2.571 14.0879,-2.016 z m -155,0.291 c 1.884,0.04 4.9021,6.086 6.7051,13.43 4.361,17.776 1.1544,19.913 -5.1836,3.455 -5.936,-15.41 -6.0785,-16.985 -1.5215,-16.885 z m 144.5449,58.322 c -2.223,0.769 -3.7761,2.943 -3.4531,4.83 0.324,1.887 1.1321,23.955 1.7891,49.042 0.659,25.082 2.5785,45.636 4.2695,45.673 3.531,0.08 6.057,-66.876 3.293,-87.277 -1.059,-7.805 -3.5875,-13.064 -5.8985,-12.268 z m 79.3946,9.303 16.5918,0.471 16.5918,0.471 -0.9063,41.337 c -0.498,22.736 -0.272,61.582 0.5,86.325 0.77,24.742 0.9181,45.57 0.3281,46.283 -0.59,0.715 -8.2258,1.944 -16.9648,2.734 l -15.8867,1.438 0.8593,-17.471 c 0.476,-9.611 0.42,-49.901 -0.123,-89.533 z m -204.711,8.611 c 7.0943,-0.174 7.3289,5.354 6.7461,25.268 -0.987,33.729 2.1173,39.37 21.9043,39.803 19.98,0.437 25.1655,6.667 21.5235,25.845 -2.146,11.309 -25.1893,81.83 -27.5313,84.26 -0.281,0.293 -11.1761,1.425 -24.2051,2.518 l -23.6933,1.98 -10.1914,-26.644 c -14.203,-37.143 -18.9284,-61.991 -13.5704,-71.377 2.327,-4.07 6.1908,-7.377 8.5938,-7.324 2.401,0.04 10.4232,-1.461 17.8242,-3.34 11.204,-2.841 14.1269,-5.598 17.4629,-16.459 4.633,-15.073 2.7436,-27.56 -6.2324,-41.176 -6.264,-9.499 -6.2403,-9.645 1.7637,-11.602 4.1127,-1.003 7.2407,-1.693 9.6054,-1.752 z m 124.4824,133.424 c -1.299,0.303 -2.2701,2.356 -2.3593,5.408 -0.119,4.071 1.4018,7.438 3.3808,7.481 1.976,0.04 3.6642,-2.253 3.7442,-5.102 0.084,-2.846 -1.436,-6.214 -3.377,-7.478 -0.4855,-0.316 -0.9556,-0.409 -1.3887,-0.309 z m 192.6153,52.451 c 0.343,0.448 1.6379,4.473 2.8769,8.952 2.137,7.739 1.3008,8.1 -16.8652,7.703 -37.121,-0.856 -296.0846,7.861 -354.0586,8.133 -17.852,1.575 -25.4431,0.146 -45.9941,0.55 -13.138,0.259 -13.5225,5.297 -13.2285,-4.949 0.301,-10.292 0.9768,-10.689 21.0468,-12.394 20.783,-1.768 88.3032,0.182 252.9102,-3.68 48.503,-1.14 102.6985,-1.207 120.4355,-2.596 17.739,-1.392 32.534,-2.163 32.877,-1.719 z m -52.4473,37.653 c 31.6421,0.08 54.3722,1.271 55.0254,1.957 2.21,2.325 7.8023,65.526 5.9453,67.293 -0.832,0.791 -13.6229,2.636 -28.4219,4.097 -29.666,2.93 -32.081,1.693 -31.748,-16.232 0.363,-19.054 -2.27,-20.346 -44.707,-21.941 l -39.1348,-1.471 0.375,31.477 c 0.363,29.956 0.017,31.471 -7.1406,31.314 -8.209,-0.18 -9.4516,-4.008 -11.6856,-36.004 -1.877,-26.923 -5.8936,-30.31 -32.2656,-27.227 l -21.2832,2.491 -2.0547,35.004 c -2.041,34.79 -2.1115,35.004 -11.1465,34.806 -18.538,-0.406 -22.8303,4.796 -21.2793,25.793 l 1.4102,19.123 -23.4375,3.783 c -12.889,2.084 -25.2413,3.746 -27.4473,3.698 -4.821,-0.106 -6.4131,-8.315 -8.0351,-41.336 -1.549,-31.582 -5.29,-35.976 -26.92,-31.631 -8.962,1.799 -18.8192,4.176 -21.9082,5.281 -4.593,1.642 -5.7895,-1.983 -6.5586,-19.855 -1.1869,-27.585 -4.3058,-31.076 -24.4218,-27.317 -13.297,2.484 -15.7507,4.33 -16.9707,12.764 -1.278,8.838 -2.8509,9.826 -15.1739,9.557 l -13.746,-0.301 -0.7559,-27.887 c -0.415,-15.338 -0.5903,-32.199 -0.3633,-32.574 0.214,-0.375 57.0385,2.069 126.2715,0.539 69.235,-1.527 165.2901,-3.707 213.4531,-4.842 12.0405,-0.284 23.5777,-0.384 34.125,-0.359 z m -73.1074,44.463 c 0.3,-0.126 13.6568,0.731 29.6738,1.91 l 29.127,2.14 1.5566,23.952 c 0.858,13.173 1.0559,42.55 0.4219,65.283 -1.181,42.912 4.3592,163.586 7.7832,169.476 1.073,1.849 -1.9508,3.277 -6.7188,3.172 -4.769,-0.104 -18.4684,0.619 -30.4414,1.606 -26.425,2.175 -25.1585,5.23 -24.2675,-58.545 0.357,-25.708 -1.2227,-83.194 -3.5157,-127.75 -2.292,-44.556 -3.9201,-81.116 -3.6191,-81.244 z m -72.9082,0.449 12.543,0.273 c 6.94,0.152 13.0696,2.297 13.7226,4.799 3.646,13.987 13.256,212.469 12.461,257.412 -0.043,2.627 -4.6473,4.397 -11.0743,4.256 -6.584,-0.144 -10.0392,-1.699 -8.6132,-3.871 3.225,-4.914 -4.4557,-104.351 -11.6817,-151.221 -3.213,-20.839 -6.1816,-54.485 -6.5996,-74.767 z m -180.0156,11.213 c 4.794,-0.812 6.1928,3.546 7.5488,23.494 0.916,13.469 4.1163,47.202 7.1133,74.961 2.997,27.758 6.1053,71.521 6.9023,97.252 1.179,37.934 2.4727,46.806 6.8457,46.902 4.588,0.101 5.4443,-7.372 5.7403,-50.222 0.19,-27.689 -0.8894,-63.316 -2.4004,-79.174 -1.508,-15.856 -3.3983,-38.02 -4.1992,-49.25 l -1.4571,-20.422 16.8887,-2.153 c 9.289,-1.183 17.6776,-1.319 18.6426,-0.302 1.994,2.096 5.5215,44.631 9.1855,110.744 1.375,24.756 3.3402,57.571 4.3692,72.922 l 1.8711,27.916 -45.1075,-1.463 c -24.809,-0.802 -50.739,-2.583 -57.623,-3.959 l -12.5176,-2.496 -1.4375,-27.004 c -0.79,-14.853 -1.1403,-44.801 -0.7793,-66.551 0.361,-21.751 -1.1903,-58.946 -3.4473,-82.656 -5.383,-56.542 -5.8111,-53.105 5.9239,-47.799 5.37,2.429 10.8752,5.356 12.2402,6.506 1.364,1.149 3.7394,45.806 5.2754,99.232 2.812,97.631 3.8386,109.752 9.3066,109.871 6.138,0.135 6.8256,-11.519 5.7246,-97.191 -1.707,-133.062 -1.5173,-137.985 5.3907,-139.158 z m 377.5996,30.174 c 5.0382,-0.216 8.3218,0.764 9.5586,2.894 1.394,2.399 2.9794,26.423 3.5254,53.387 0.959,47.638 3.6902,103.103 7.1562,145.359 l 1.6973,20.719 -14.8438,-0.324 c -11.717,-0.257 -14.8168,-1.65 -14.7168,-6.617 0.515,-26.077 -5.9731,-185.709 -8.0351,-197.678 l -2.5918,-15.041 12.6367,-2.084 c 2.0585,-0.339 3.9339,-0.544 5.6133,-0.615 z m -47.9981,0.974 9.8262,1.35 c 8.867,1.219 10.008,3.111 11.707,19.375 1.037,9.913 2.651,54.454 3.586,98.98 0.938,44.526 1.8826,85.815 2.0996,91.754 0.363,9.905 -0.6499,10.862 -12.2559,11.584 l -12.6504,0.789 1.9219,-17.207 c 1.654,-14.818 0.8621,-57.72 -3.3359,-180.293 z m -91.1699,26.014 c 3.0309,0.723 3.9437,4.942 5.0762,17.062 1.454,15.582 4.5702,148.57 4.0722,174.084 -0.12,6.117 -2.2193,8.045 -8.6113,7.905 l -8.4551,-0.186 0.4922,-90.801 c 0.272,-49.939 -0.419,-94.235 -1.539,-98.437 -1.514,-5.688 -0.2004,-8.077 5.1406,-9.348 1.5675,-0.373 2.8139,-0.52 3.8242,-0.279 z m -82.9297,8.83 c 1.6884,-0.211 3.4378,0.73 4.3633,2.537 4.625,9.031 12.0125,63.999 15.8535,117.965 2.186,30.707 4.7625,58.682 5.7305,62.164 1.472,5.319 -0.6072,6.281 -12.9922,6.01 l -14.7441,-0.322 2.705,-17.026 c 1.488,-9.362 1.2963,-34.047 -0.4257,-54.853 -5.337,-64.451 -6.231,-113.187 -2.125,-115.87 0.5162,-0.336 1.0719,-0.535 1.6347,-0.605 z m -19.8828,43.633 2.5313,58.732 c 1.394,32.302 2.9385,64.809 3.4355,72.237 l 0.9063,13.505 -26.3321,-0.576 -26.332,-0.576 -1.2969,-22.508 c -3.371,-58.522 -4.6575,-112.708 -2.7265,-114.74 1.176,-1.237 12.8645,-3.109 25.9765,-4.16 z m 258.0117,200.32 c 7.257,0.159 10.5276,1.784 9.4766,4.703 -2.495,6.926 -20.9246,7.535 -20.7246,0.686 0.114,-3.893 3.583,-5.557 11.248,-5.389 z m -433.7734,1.293 c 12.943,0.283 15.8747,4.027 7.8027,9.963 -9.033,6.64 -16.6936,7.408 -18.6406,1.869 -3.577,-10.172 -1.8041,-12.109 10.8379,-11.832 z" fill="#00B894" transform="translate(-50.811582,84.837207) matrix(0.27729542,0,0,0.27729542,3213.0031,-2422.2131) translate(-4730.5688,-4305.3989)"/>
</svg>