<?xml version="1.0" ?><svg height="145.64832mm" viewBox="0 0 149.8121 145.64832" width="149.8121mm" xmlns="http://www.w3.org/2000/svg">
    <path color="#000" d="m 9038.1469,10498.556 91.646,-92.595 445.924,15.224 8.953,392.609 -93.006,119.551 -459.181,-20.227 z" fill="#FFFFFF" overflow="visible" paint-order="fill markers stroke" transform="translate(350.45848,-67.614449) matrix(0.26458333,0,0,0.26458333,-2738.2259,-2682.6333)"/>
    <path d="m 12463.211,12832.459 c -8.622,-0.03 -9.334,0.42 -19.889,1.322 -36.805,27.79 -63.123,68.471 -97.398,96.145 -6.246,6.766 -7.393,9.577 -5.463,13.398 0.564,12.301 -1.182,46.304 1.174,62.658 -1.952,237.771 -3.362,241.6 -3.473,340.532 0.438,6.048 7.385,15.26 25.203,17.504 94.973,11.965 267.845,14.175 355.405,13.303 34.627,-0.345 55.988,1.075 80.769,5.169 5.9,1.059 6.921,1.296 20.923,-11.696 28.605,-40.493 73.316,-84.301 83.919,-111.902 -0.297,-51.917 0.483,-122.446 -2.135,-179.357 -0.543,-20.74 -1.149,-47.58 -1.346,-59.644 -0.197,-12.066 -0.537,-22.25 -0.755,-22.633 -0.445,-0.779 -0.491,-68.212 -0.286,-118.942 -0.463,-29.241 -2.583,-24.081 -34.562,-29.648 -129.229,-8.498 -250.403,-8.507 -374.19,-15.643 -14.701,-0.361 -22.723,-0.549 -27.896,-0.566 z m 31.543,18.121 c 29.537,-0.03 62.241,0.398 96.258,1.195 90.71,2.127 190.758,6.859 265.013,12.317 14.212,2.397 25.499,-4.482 26.434,8.254 0.348,4.791 0.418,13.022 0.156,18.293 -4.494,112.389 7.755,223.96 5.604,333.146 0.823,28.275 0.527,31.5 -3.36,36.531 -21.891,25.392 -36.753,54.377 -62.896,84.409 -5.945,6.364 -7.087,5.409 -7.822,-6.547 -6.729,-108.481 -8.837,-213.261 -14.198,-334.377 -0.437,-21.451 -1.425,-39.678 -1.761,-46.162 23.502,-22.896 49.779,-50.162 77.601,-69.141 9.244,-9.467 -0.678,-15.653 -7.871,-12.41 -19.897,11.263 -39.221,31.313 -52.967,44.633 -22.888,22.443 -25.585,24.746 -27.759,23.707 -1.233,-0.591 -17.211,-1.473 -35.506,-1.967 -106.06,-2.91 -267.356,-8.703 -385.711,-11.168 25.256,-26.675 56.421,-62.61 79.439,-80.127 15.042,-0.377 31.624,-0.565 49.346,-0.586 z m -122.617,93.932 c 6.21,-0.05 13.144,0.89 18.07,1.187 114.678,6.477 225.343,3.164 340.947,12.186 0.752,0.07 13.145,0.02 27.537,-0.112 26.171,-0.247 26.169,-0.247 26.403,31.625 6.566,126.078 1.573,255.714 13.627,363.901 2.824,13.102 -13.82,6.772 -32.44,5.648 -96.202,-1.416 -253.701,8.709 -401.076,-11.218 -10.728,-2.957 -11.212,-9.15 -11.578,-19.678 -0.173,-7.018 0.128,-41.427 0.668,-76.463 1.125,-75.985 -1.618,-141.208 2.332,-219.211 2.699,-26.44 -2.002,-52.925 0.947,-79.311 -0.21,-6.795 6.579,-8.491 14.563,-8.554 z m 20.259,28.586 c -8.019,0.335 -3.051,14.939 -4.326,60.021 -1.102,128.933 3.169,192.462 -1.23,275.768 -0.107,5.017 -0.201,12.804 7.289,13.457 113.325,1.78 215.565,-0.436 311.072,8.718 16.688,1.601 45.388,3.441 52.192,-2.166 3.022,-2.608 3.7,-9.091 1.785,-17.029 -8.847,-113.212 2.311,-199.378 -8.979,-309.808 -2.021,-21.907 -2.629,-16.692 -19.451,-17.477 -98.638,-4.6 -189.247,-1.266 -281.684,-6.965 -36.653,-0.857 -46.175,-1.601 -53.74,-4.183 -1.129,-0.253 -2.098,-0.371 -2.928,-0.336 z m 9.79,17.09 c 117.49,10.682 229.833,-2.35 324.39,10.617 6.652,1.043 6.794,1.167 7.582,6.609 1.783,12.318 2.372,34.51 2.174,81.902 -0.114,33.722 2.095,71.477 2.871,109.018 0.374,53.888 0.483,62.466 0.922,73.34 1.903,13.336 -0.964,26.978 2.033,40.133 -1.527,3.682 -34.071,3.416 -39.269,3.541 -93.484,-2.847 -207.03,-5.901 -301.633,-7.858 -0.365,-13.029 1.694,-42.505 1.185,-62.299 -2.237,-77.94 -0.744,-142.472 -0.74,-225.236 -0.584,-11.041 0.485,-29.767 0.485,-29.767 z m 164.435,35.56 c -4.849,-0.05 -9.706,0.248 -14.562,0.938 -18.484,3.33 -36.156,14.153 -52.036,27.177 -24.25,17.654 -43.286,40.172 -51.724,69.268 -10.76,35.335 0,69.623 16.695,94.931 26.291,39.865 67.567,59.101 125.34,44.485 25.855,-6.541 51.979,-23.838 68.395,-41.717 3.925,-4.381 8.91,-11.239 15.734,-21.644 12.751,-19.446 19.942,-67.432 13.762,-91.819 -3.096,-12.22 -14.02,-30.278 -24.073,-39.791 -15.844,-14.585 -34.266,-24.449 -54.371,-33.138 -14.141,-5.253 -28.613,-8.539 -43.16,-8.69 z m -4.627,15.219 c 3.025,0.07 3.343,1.838 2.524,9.637 -0.273,1.085 1.208,2.324 3.204,3.439 -0.167,0.126 -0.664,0.803 -0.816,0.939 -4.45,4.182 -20.835,39.169 -22.658,39.387 -19.294,8.621 -37.326,33.769 -37.867,49.125 -3.009,27.324 8.234,56.063 38.137,67.914 31.149,10.884 67.698,-6.705 81.918,-30.678 16.704,-41.772 -4.478,-80.69 -35.512,-86.675 -3.826,-2.19 -4.313,-3.203 -7.947,-16.586 -0.31,-1.137 -1.743,-7.646 -3.186,-14.465 -0.586,-3.204 -1.456,-5.565 -2.569,-7.172 1.716,-0.495 2.98,-1.576 3.423,-3.689 3.104,-10.72 -0.721,-13.015 9.839,-8.711 3.861,1.571 7.201,2.864 7.422,2.869 1.318,0.03 -0.931,5.149 -3.101,7.056 -8.317,10.166 5.134,19.791 11.914,13.321 2.038,-3.044 1.75,-4.568 5.779,-9.459 2.327,-2.938 2.635,-2.977 6.893,-0.864 5.386,2.671 5.51,4.054 0.925,10.479 -4.343,6.084 -4.38,6.72 -0.535,9.371 4.104,2.829 8.184,1.643 11.244,-3.267 3.985,-6.397 7.874,-7.36 13.69,-3.393 5.945,4.056 6.058,5.416 0.683,8.307 -3.505,0.813 -4.108,3.281 -6.121,4.503 -1.616,2.162 -0.186,7.859 2.508,8.991 9.027,2.158 10.362,-3.768 17.522,-7.961 0.373,0 2.168,2.39 3.99,5.289 3.311,5.27 3.313,5.269 -1.473,9.074 -3.859,3.068 -4.725,4.628 -4.472,8.061 0.26,3.526 0.974,4.352 4.152,4.793 2.112,0.292 4.663,-0.12 5.672,-0.918 2.762,-2.183 6.26,-0.07 6.17,3.726 -0.04,1.847 -1.095,3.234 -1.823,2.76 -13.851,0.756 -12.301,17.75 -2.421,14.359 2.409,-0.846 4.515,-1.389 4.679,-1.211 0.164,0.18 0.456,2.488 0.653,5.131 0.35,4.729 0.269,4.807 -5.129,4.967 -17.336,0.515 -25.414,2.595 -25.508,6.568 -0.09,3.624 3.93,8.559 6.439,7.916 1.263,-0.323 6.833,-0.899 12.379,-1.283 10.086,-0.698 10.086,-0.7 9.031,5.904 -1.26,7.886 -1.851,10.324 -5.138,8.161 -1.997,-1.313 -5.892,-2.265 -9.248,-0.688 -2.345,1.1 -3.43,7.464 -3.451,8.399 -0.05,2.111 8.682,3.626 10.845,3.677 1.698,0.04 1.236,1.972 -2.215,9.28 -2.473,5.239 -5.418,6.682 -8.923,4.377 -3.651,-2.401 -7.259,-2.118 -10.018,0.789 -2.298,2.422 -2.298,2.719 0,5.679 1.332,1.718 3.443,4.092 4.693,5.276 2.119,2.008 1.981,2.503 -2.021,7.318 -4.293,5.163 -4.292,5.164 -8.902,0.92 -6.392,-9.471 -16.689,1.954 -11.778,5.809 4.34,2.781 8.233,7.728 4.621,9.22 -1.473,1.553 -4.37,3.97 -6.439,5.373 -4.006,2.714 -2.725,0.561 -12.922,-5.658 -2.298,-1.403 -7.119,0.09 -8.875,0.977 -3.392,1.714 -3.269,5.876 0.328,10.99 2.948,4.189 2.95,4.242 0.207,5.773 -5.022,2.805 -8.236,3.089 -10.633,0.936 -4.413,-5.592 -4.408,-10.773 -11.457,-8.025 -8.873,5.044 0.768,7.554 -2.273,13.878 -0.561,0.533 -3.407,0.882 -7.844,0.901 -8.066,0.03 -8.067,0.03 -7.285,-4.906 0.831,-5.254 -1.351,-8.489 -6.316,-9.368 -3.162,-0.559 -4.468,1.406 -5.565,8.352 -0.776,4.917 -1.274,5.478 -4.978,5.631 -6.101,0.25 -5.861,-1.11 -5.743,-6.106 0.06,-2.481 -0.697,-4.909 -1.837,-5.902 -1.752,-1.525 -8.474,-4.054 -10.12,1.447 -1.3,7.325 -5.046,6.323 -8.025,5.5 -4.115,-1.137 -5.626,-2.888 -3.545,-4.107 1.881,-1.101 2.039,-10.671 0.207,-12.59 -2.126,-2.23 -8.963,0.53 -10.822,4.367 -1.894,3.908 -2.663,3.877 -7.66,-0.32 -4.03,-3.383 -4.03,-3.383 -0.182,-6.785 4.821,-4.26 5.647,-12.395 1.406,-13.852 -3.257,-1.119 -7.73,0.98 -9.769,4.582 -0.833,1.47 -2.141,2.659 -2.907,2.641 -2.007,-0.05 -10.563,-10.171 -9.707,-11.487 6.348,-2.064 9.881,-6.278 7.139,-11.693 -5.758,-10.218 -5.485,-3.397 -11.267,-0.379 -4.003,2.022 -5.058,0.982 -8.143,-8.027 -1.448,-4.227 0,-1.998 5.342,-5.512 4.687,-3.087 5.721,-2.763 5.457,-6.349 -0.378,-5.115 -4.973,-7.96 -10.371,-4.604 -1.935,1.203 -5.013,-0.528 -5.233,-0.781 -0.219,-0.254 -0.774,-3.119 -1.232,-6.365 -0.801,-5.676 -0.709,-5.872 2.363,-5.12 1.758,0.429 5.329,1.004 7.936,1.274 4.49,0.467 4.791,0.228 5.699,-4.52 0.959,-5.014 0.957,-5.013 -7.654,-7.701 -7.856,-2.451 -8.602,-3.016 -8.522,-6.41 0.1,-4.149 1.588,-9.562 3.236,-9.523 9.713,5.565 13.736,1.142 14.319,-3.805 3.771,-9.414 -4.944,-6.203 -9.496,-9.744 -1.909,-1.527 -1.668,-1.568 -0.461,-5.569 1.443,-4.784 2.195,-3.986 8.816,-1.857 7.478,3.173 16.408,-10.051 6.393,-13.725 -2.941,-3.327 -5.323,-2.466 -3.653,-5.629 2.586,-4.895 4.662,-7.288 6.536,-7.242 0.87,0.02 2.753,1.924 5.023,4.25 3.498,3.585 6.325,3.121 9.264,2.082 2.557,-2.656 7.451,-8.688 4.896,-10.531 -2.178,-2.665 -5.487,-5.599 -6.402,-6.756 -1.381,-1.746 -0.853,-2.879 2.406,-5.355 6.769,-5.143 7.133,-3.618 10.268,1.011 2.289,3.381 3.672,4.129 7.152,3.873 3.741,-0.274 6.066,-2.228 6.523,-6.015 0.6,-6.11 -6.602,-9.148 -3.101,-12.867 1.386,-1.46 3.377,-2.376 5.463,-3.356 8.707,-3.406 7.975,17.17 19.261,7.873 2.937,-1.44 6.702,-3.296 2.475,-10.607 -2.935,-4.078 -2.317,-6.708 5.5,-7.547 4.102,-0.254 6.892,-0.827 8.707,-0.787 z m 6.608,35.683 v 0 c 0.04,0 0.07,0.03 0.1,0.06 0.923,1.087 3.926,13.24 3.365,13.617 -1.61,1.083 -10.579,1.218 -10.554,0.158 0.06,-2.834 5.904,-14.104 7.09,-13.84 z m 140.336,10.774 c -5.075,0.137 -9.547,2.806 -8.415,8.349 1.576,7.262 3.32,54.142 3.311,88.959 -0.01,21.49 0.317,24.902 2.83,30.129 13.519,22.573 25.535,4.838 25.365,-8.22 -0.115,-8.434 -0.129,-29.517 -0.03,-46.85 0.233,-42.278 -2.891,-60.24 -11.664,-67.047 -1.975,-3.59 -6.919,-5.441 -11.396,-5.32 z m -142.807,16.226 v 0 c 0.117,0 0.199,0.02 0.236,0.05 -0.17,7.059 -0.809,22.445 -7.406,22.307 -4.801,-0.114 -5.305,-7.908 -5.93,-16.381 -0.208,-2.819 0.659,-2.029 5.705,-4.426 2.957,-1.405 6.572,-1.542 7.395,-1.557 z m 16.904,2.196 c 4.176,0.423 13.847,1.672 8.33,4.617 -1.591,0.804 -5.481,5.088 -8.644,9.516 -7.948,11.129 -8.059,11.013 -4.854,-4.946 1.558,-7.757 1.849,-9.208 5.168,-9.187 z m -43.67,6.273 c 3.346,0.113 8.358,14.841 8.43,16.465 0.08,2.049 1.947,4.518 -1.924,3.75 -3.991,0.692 -18.203,-12.516 -15.853,-14.756 3.522,-2.332 6.09,-4.644 9.347,-5.459 z m 63.612,0.711 c 1.571,0.05 6.168,5.274 8.595,10.078 1.972,3.903 0.69,5.134 -11.652,11.184 -4.363,2.139 -8.11,3.884 -8.326,3.879 -0.218,0 -1.124,-1.24 -2.016,-2.746 -0.379,-6.334 8.426,-16.617 13.399,-22.395 z m -80.307,17.158 c 4.731,3.462 14.732,9.179 13.816,12.475 -0.498,1.701 -0.937,4.17 -0.98,5.488 -1.679,3.991 -11.441,-0.135 -14.58,-0.531 -2.502,-0.311 -3.114,-5.838 -1.35,-12.203 1.035,-3.737 1.935,-5.29 3.094,-5.229 z m 93.486,7.758 v 0 c 0.06,0 0.1,0.02 0.127,0.05 1.052,1.1 2.381,14.374 1.522,15.193 -2.302,2.196 -19.479,-0.94 -19.241,-3.51 0.146,-1.569 15.805,-11.938 17.592,-11.736 z m -47.465,2.516 c 8.429,0.147 11.392,3.932 12.592,10.269 0.03,7.111 -1.327,14.265 -16.857,13.86 -14.489,0.849 -15.141,-23.33 0.308,-23.967 1.438,-0.131 2.753,-0.183 3.957,-0.162 z m -46.539,19.447 c 0.261,0 0.551,0 0.877,0.03 4.65,0.508 9.769,1.086 14.203,3.155 4.108,1.985 4.108,1.987 -2.566,10.371 -6.675,8.384 -6.675,8.384 -9.213,4.578 -3.421,-5.075 -3.049,-10.878 -4.961,-16.453 -0.421,-1.179 -0.162,-1.673 1.66,-1.676 z m 73.612,3.484 c 4.894,0.45 9.608,2.834 14.769,1.932 6.59,-1.285 7.038,0.399 2.41,9.053 -2.368,4.427 -1.809,4.075 -4.673,8.039 -4.243,-4.52 -7.615,-9.294 -12.04,-14.305 -2.851,-3.214 -3.029,-4.769 -0.466,-4.719 z m -43.559,8.412 h 0.186 c 2.192,0.358 -3.894,14.597 -4.278,22.553 -0.1,3.456 -0.941,3.684 -4.826,1.307 -8.048,-4.923 -8.089,-5.682 -0.76,-14.557 3.902,-4.153 7.493,-7.124 8.903,-8.947 0.314,-0.212 0.571,-0.327 0.775,-0.356 z m 32.438,0.272 c 3.364,3.757 5.874,9.12 9.513,13.092 4.878,5.257 4.877,5.258 1.104,8.593 -6.622,5.852 -8.387,4.572 -10.28,-7.441 -1.448,-9.193 -1.511,-14.214 -0.337,-14.244 z m -16.768,1.883 c 4.372,0.598 5.963,20.599 6.787,24.271 0.743,3.062 0.39,3.676 -2.322,4.055 -1.759,0.246 -5.536,0.2 -8.395,-0.104 -5.197,-0.554 -5.199,-0.551 -4.129,-6.949 1.353,-6.37 4.391,-17.01 6.008,-20.236 0.744,-0.811 1.427,-1.123 2.051,-1.037 z" fill="#00B894" transform="translate(350.45848,-67.614449) matrix(0.26458333,0,0,0.26458333,-2738.2259,-2682.6333) translate(-3313.5291,-2437.8203)"/>
</svg>