<?xml version="1.0" ?><svg height="205.87006mm" viewBox="0 0 230.06407 205.87006" width="230.06407mm" xmlns="http://www.w3.org/2000/svg">
    <path d="m -8097.2344,13452.143 c -2.4273,0.06 -5.2058,0.624 -8.2968,1.808 -19.781,7.577 -22.3839,19.159 -21.6309,33.944 0,0 16.3608,3.436 32.3809,-10.159 13.5168,-11.47 10.6544,-25.912 -2.4532,-25.593 z m -161.8613,78.084 c -13.208,-1.014 -2.2532,16.125 23.5488,38.517 25.801,22.391 43.9239,-4.607 43.9239,-4.607 l -2.252,48.099 c 0,0 -9.9337,-6.628 -12.5957,2.034 -2.662,8.661 -18.2246,115.55 -18.2246,115.55 0,0 -47.2006,-8.662 -66.1426,-7.004 -18.942,1.659 -82.2184,10.228 -84.9824,18.705 -2.765,8.477 1.1328,59.415 1.1328,59.415 l -87.7539,-6.522 -109.9336,33.346 c 0,0 -77.4382,15.215 -103.0352,25.719 -25.597,10.505 -30.5104,22.854 -29.6914,54.367 l -0.5254,32.763 c -0.766,47.745 156.9063,67.952 156.9063,67.952 0,0 24.9831,137.319 25.6641,167.81 0.682,30.492 33.824,19.43 36.998,-3.146 3.174,-22.575 0.7168,-159.965 0.7168,-159.965 0,0 182.6611,9.228 231.7051,7.478 49.044,-1.751 258.0957,-12.574 258.0957,-12.574 0,0 -1.2023,120.202 5.5547,150.887 6.758,30.684 25.5152,36.673 33.9062,9.513 8.391,-27.161 25.2363,-163.472 25.2363,-163.472 0,0 9.834,-20.124 38.502,-25.285 28.669,-5.16 29.5915,-27.737 30.1035,-66.899 0.511,-39.162 -23.2435,-61.369 -98.6015,-72.795 -75.357,-11.426 -163.5176,-22.304 -163.5176,-22.304 0,0 -23.9539,-155.998 -34.0899,-185.024 -10.136,-29.026 -20.7519,-24.787 -20.7519,-24.787 l 22.7988,-43.492 -40.4434,-5.713 c 0,0 -49.0439,-27.553 -62.2519,-28.566 z" fill="#FFFFFF" transform="translate(109.4508,12.838339) matrix(0.26458333,0,0,0.26458333,3447.6279,-2425.9332) translate(-4730.5688,-4305.3989)"/>
    <path d="m -13253.625,9892.9736 c -6.717,-8.093 -1.833,-15.562 11.857,-18.132 25.691,-2.9685 14.026,-48.7278 14.805,-69.412 1.394,-36.909 3.36,-70.547 4.371,-74.749 1.699,-7.049 0.08,-7.771 -20.907,-9.384 -12.512,-0.96 -23.199,-1.389 -23.749,-0.952 -0.548,0.44 0.706,5.286 2.794,10.768 5.013,13.189 21.292,127.813 19,133.786 -2.95,7.691 -13.971,5.261 -18.197,-4.01 -2.171,-4.768 -4.884,-14.071 -6.027,-20.675 -4.336,-25.03 -12.545,-115.498 -10.743,-118.413 1.035,-1.674 -1.823,-3.815 -6.354,-4.759 -4.53,-0.941 -26.036,-5.191 -47.787,-9.441 -50.875,-9.943 -72.672,-20.279 -92.393,-43.8208 -21.071,-22.0686 -15.677,-24.6264 -16.692,-55.276 -1.106,-33.3853 -0.48,-37.8016 6.717,-47.5368 15.609,-21.111 65.71,-41.1552 104.145,-41.6651 16.808,-0.2238 25.06,-2.0123 29.448,-6.3852 6.906,-6.8848 42.119,-17.9154 82.034,-25.6974 19.316,-3.7664 37.95,-4.5954 65.696,-2.9224 l 38.729,2.3353 -2.187,-19.7753 c -1.243,-11.2572 -0.509,-24.1191 1.707,-29.8589 4.641,-12.0287 25.629,-22.1975 53.359,-25.855 16.444,-2.1686 18.877,-3.5323 18.877,-10.5838 0,-10.9233 10.813,-19.9951 23.833,-19.9951 13.192,0 19.313,5.7336 19.313,18.091 0,8.3415 2.02,9.9242 17.072,13.3686 9.393,2.1487 17.744,3.2382 18.561,2.4208 0.817,-0.8173 3.6,-19.9007 6.181,-42.4072 5.879,-51.221 14.559,-79.1421 25.068,-80.6428 5.835,-0.8333 7.184,-3.03 5.922,-9.6413 -1.438,-7.5205 -2.654,-8.0997 -9.981,-4.7602 -6.623,3.0176 -11.679,2.1881 -24.504,-4.0209 -18.898,-9.1484 -45.511,-36.52 -45.511,-46.809 0,-10.5949 12.415,-15.9782 25.961,-11.2564 6.089,2.122 12.485,3.8584 14.219,3.8584 4.662,0 -6.461,-19.8881 -17.037,-30.4654 -12.866,-12.866 -11.299,-33.4625 3.144,-41.3324 9.568,-5.2137 10.479,-5.0514 17.139,3.0575 5.672,6.9061 6.602,11.8148 4.806,25.363 -1.893,14.2726 -0.841,18.8442 6.995,30.3937 l 9.228,13.5944 -2.074,-17.5037 c -2.545,-21.4974 4.113,-29.8759 18.526,-23.3091 12.173,5.5462 14.74,19.5284 7.691,41.8882 -9.425,29.9037 -7.521,32.0979 10.83,12.479 l 16.732,-17.8866 -0.695,-27.8025 c -0.577,-23.0569 -1.899,-28.6446 -7.742,-32.7354 -15.819,-11.0735 -1.683,-41.4955 15.106,-32.51 4.906,2.6265 6.621,7.5466 6.51,18.7056 -0.08,8.328 2.227,23.2316 5.126,33.1194 4.666,15.8968 5.305,16.6575 5.518,6.5717 0.329,-15.4331 20.365,-41.3256 35.291,-45.6062 8.794,-2.5222 13.591,-1.8982 20.57,2.6745 19.71,12.9151 5.574,39.905 -25.726,49.113 -10.752,3.1635 -16.204,7.2117 -19.09,14.1741 -2.219,5.3602 -11.221,16.7977 -20.004,25.4168 -8.78,8.619 -15.966,16.9848 -15.966,18.5907 0,4.5754 30.016,-11.8688 35.261,-19.3167 6.41,-9.1082 13.135,-8.3744 20.055,2.1886 8.829,13.4717 7.467,26.4909 -3.279,31.3872 -6.89,3.1394 -10.105,3.1208 -13.303,-0.075 -7.48,-7.4803 -16.382,-4.5261 -27.686,9.1864 -12.785,15.5089 -13.324,18.2975 -4.757,24.5621 3.462,2.5306 6.434,9.181 6.607,14.7788 0.161,5.5974 4.495,24.0748 9.602,41.0605 5.111,16.9857 11.89,52.5814 15.064,79.1016 3.174,26.5203 6.636,55.0953 7.693,63.4997 l 1.926,15.2811 h 30.121 c 39.558,0 124.726,14.8704 165.394,28.8779 36.235,12.4803 57.579,25.4661 64.428,39.2006 7.748,15.5346 13.883,52.7794 12.143,73.7324 -1.615,19.4725 -10.711,35.946 -18.428,33.376 -1.929,-0.644 -15.8,3.166 -30.823,8.463 l -27.32,9.632 -2.489,39.091 c -5.52,86.619 -15.452,138.141 -28.868,149.723 -8.375,7.232 -29.083,5.442 -39.222,-3.39 -8.279,-7.21 -11.48,-36.52 -11.822,-108.235 l -0.297,-62.115 -8.988,1.785 c -58.258,11.574 -279.429,17.631 -406.908,11.148 l -52.746,-2.683 1.901,48.001 c 2.311,58.28 -2.608,108.327 -11.623,118.288 -7.828,8.654 -34.46,9.732 -41.151,1.669 z m 554.976,-29.809 c 3.287,-5.318 31.367,-156.295 29.428,-158.234 -0.663,-0.663 -11.191,0.855 -23.393,3.374 l -22.183,4.584 0.834,76.536 c 0.768,70.572 1.329,76.537 7.21,76.537 3.506,0 7.155,-1.26 8.104,-2.797 z m -158.329,-167.961 c 97.627,-6.911 155.932,-13.879 209.832,-25.0813 36.078,-5.5486 48.95,-14.8899 47.868,-36.0731 0,-14.8316 -0.873,-26.9665 -1.938,-26.9665 -1.068,0 -7.996,3.0887 -15.396,6.863 -7.399,3.7753 -22.304,8.5618 -33.117,10.6383 -10.814,2.0764 -37.459,7.8337 -59.211,12.7929 -52.517,11.9704 -134.142,20.0792 -226.518,22.4981 -77.008,2.0198 -243.669,-3.0661 -318.204,-9.7052 -77.37,-6.8954 -139.544,-23.8681 -160.891,-43.9217 -13.187,-16.5213 -8.1,6.8614 -8.1,17.6833 -2.472,24.0217 0.837,25.7407 20.726,36.3427 22.102,11.7795 67.91,22.4575 126.691,29.5285 89.534,10.77 303.4,13.534 418.258,5.401 z m 38.374,-68.5594 c 93.425,-6.0378 174.729,-17.649 190.432,-27.1987 13.432,-8.1687 17.652,-22.4852 9.336,-31.674 -3.315,-3.664 -16.854,-9.3838 -30.09,-12.711 -53.919,-13.5563 -194.045,-39.9387 -196.817,-37.0557 -0.523,0.5431 -1.753,6.1465 -2.737,12.4523 -2.36,15.1328 -4.418,18.0212 -17.992,25.2452 -8.328,4.4314 -20.627,6.1435 -45.013,6.2668 -31.761,0.1591 -33.983,-0.329 -41.601,-9.1689 -7.327,-8.5006 -9.886,-9.1856 -28.536,-7.6391 -11.266,0.9344 -21.363,3.1141 -22.43,4.8438 -1.068,1.7296 0.579,3.1448 3.662,3.1448 8.807,0 6.976,16.9398 -2.484,22.9628 -4.449,2.8331 -21.425,9.3112 -37.721,14.396 -37.602,11.7326 -126.928,18.6606 -169.258,13.1276 -54.515,-7.1259 -78.976,-17.0159 -89.998,-36.3899 -12.304,-15.4567 -10.572,-16.9297 -7.092,-34.8853 l -24.596,6.7918 c -56.708,15.6592 -91.114,31.8361 -91.114,42.8406 0,7.2624 39.605,22.9027 77.455,30.5879 45.008,9.1389 133.7,15.3951 271.31,19.1435 105.768,2.88 143.758,2.1249 255.284,-5.0805 z m -279.807,-55.2147 c -1.615,-16.9547 6.081,-14.635 -95.925,-28.9065 -43.508,-6.0866 -82.717,-11.6193 -87.134,-12.2946 -6.985,-1.0681 -7.753,0 -5.901,8.1501 1.173,5.1579 4.787,15.0409 8.031,21.9621 5.48,11.6835 7.831,13.0102 32.867,18.5324 18.747,4.1345 45.632,6.0529 88.186,6.2921 l 61.219,0.3444 z m 49.694,1.4861 c 31.119,-12.7463 33.697,-15.5872 30.626,-33.7594 -1.373,-8.1239 -2.756,-14.7649 -3.077,-14.7577 -6.558,0.1484 -54.626,22.266 -56.789,26.13 -4.115,7.3552 -2.214,35.3957 2.273,33.4881 1.977,-0.8408 14.112,-5.8363 26.967,-11.101 z m 146.271,-39.0399 c 0.362,-0.3363 -1.003,-34.5644 -3.028,-76.0626 -2.028,-41.4982 -2.718,-91.2268 -1.537,-110.5079 1.747,-28.492 1.219,-35.0564 -2.826,-35.0564 -3.921,0 -5.499,11.9939 -7.451,56.6296 -2.473,56.5887 -6.912,115.3622 -11.41,151.0736 l -2.384,18.9378 13.991,-2.2015 c 7.696,-1.2108 14.287,-2.4766 14.645,-2.8126 z m -169.643,-9.3029 c 17.798,-5.7493 30.742,-10.5715 28.765,-10.7157 -17.714,-1.2939 -134.064,-15.1773 -137.529,-16.4108 -4.983,-1.7733 -5.552,2.7762 -2.351,18.786 2.111,10.5514 2.645,10.7801 33.26,14.2636 17.113,1.9473 34.35,3.7632 38.303,4.0353 3.956,0.2721 21.754,-4.2092 39.552,-9.9584 z m 138.109,-54.4233 c 8.85,-136.7703 6.472,-198.8909 -3.153,-82.3945 -2.37,28.6745 -6.558,71.4383 -9.309,95.031 -3.775,32.3692 -3.988,44.1158 -0.876,47.868 7.203,8.6783 9.552,-1.9691 13.338,-60.5045 z m 61.462,59.6059 c 4.705,-5.6686 4.538,-7.7507 -9.528,-119.9548 -3.068,-24.4594 -7.685,-51.1562 -10.263,-59.3263 -4.633,-14.6873 -4.69,-14.4902 -5.032,17.5053 -0.189,17.7979 0.715,62.6971 2.012,99.7761 2.324,66.5334 2.459,67.4162 10.336,67.4162 4.39,0 10.002,-2.4375 12.475,-5.4165 z m -99.795,-7.6784 c 5.393,-1.5182 6.291,-6.3762 6.291,-33.9578 0,-31.4737 -0.189,-32.1492 -8.09,-30.5234 -32.4,6.6588 -75.808,5.2752 -114.828,-3.6605 -9.549,-2.1864 -9.654,-2.0036 -8.988,15.6943 l 0.671,17.9063 37.753,4.5854 c 49.522,6.0146 53,7.4629 55.972,23.3028 2.562,13.6477 4.733,14.1105 31.219,6.6529 z m -225.521,-7.5719 c -1.364,-5.4343 -2.81,-10.2103 -3.214,-10.6135 -0.901,-0.9007 -51.007,8.9192 -63.401,12.4256 -6.135,1.7356 0.715,3.2074 21.573,4.6358 16.808,1.151 34.377,2.3941 39.042,2.7625 7.54,0.5957 8.203,-0.4234 6,-9.2104 z m 194.059,-74.4375 c 19.778,-0.9161 36.362,-1.7351 36.855,-1.8203 0.494,-0.086 0.898,-3.1232 0.898,-6.7513 0,-5.9744 -2.796,-6.4687 -29.663,-5.2426 -36.906,1.6844 -89.156,7.8799 -94.196,11.1693 -4.925,3.2133 21.362,7.0746 37.567,5.5187 6.922,-0.6645 28.765,-1.9578 48.539,-2.8738 z m 98.349,-177.6319 c -5.05,-1.8286 -6.337,0.2826 -8.613,14.1199 l -2.028,12.3224 7.079,-12.5845 c 3.894,-6.9215 5.499,-13.1575 3.562,-13.8578 z m -41.153,-8.0835 c -7.57,-8.3655 -26.368,-19.0731 -28.948,-16.4911 -2.549,2.547 24.865,24.0504 30.658,24.0504 3.902,0 3.494,-1.81 -1.71,-7.5593 z m 121.228,-94.0146 c 2.637,-4.8734 2.009,-6.2921 -2.783,-6.2921 -7.564,0 -22.83,13.778 -22.83,20.6053 0,6.4596 20.605,-5.0551 25.613,-14.3132 z" fill="#00B894" transform="translate(109.4508,12.838339) matrix(0.26458333,0,0,0.26458333,3447.6279,-2425.9332)"/>
</svg>