<?xml version="1.0" ?><svg height="134.34016mm" viewBox="0 0 132.89732 134.34016" width="132.89732mm" xmlns="http://www.w3.org/2000/svg">
    <path d="m -2218.7442,-315.71719 c -1.2035,-15.84651 7.1426,-35.29555 14.8608,-45.491 7.7182,-10.19546 20.6691,-15.70525 43.0387,-19.42553 22.3697,-3.72025 66.8597,15.1397 68.548,61.71428 1.7267,47.63372 -40.3963,66.39993 -66.2195,66.94148 -25.8232,0.54158 -53.8703,-13.98637 -60.228,-63.73923 z" fill="#FFFFFF" paint-order="markers stroke fill" transform="translate(-20.38606,184.20822) translate(2242.5955,199.27937)"/>
    <path d="m -2185.9093,-377.33246 c -22.4502,11.32891 -34.7214,27.74879 -36.0986,51.53797 -2.0515,35.43022 11.6099,60.87753 38.6493,71.99405 42.5816,17.50603 93.5359,-16.70942 94.044,-63.77081 0.243,-22.48329 -17.3663,-48.93245 -39.9671,-60.03096 -19.1134,-7.97815 -40.4693,-7.80303 -56.6276,0.26975 z m 29.4158,-0.51469 c 30.9495,0.44806 58.5531,25.80971 58.6026,59.35348 0.038,25.4877 -17.2157,50.69996 -40.583,59.30284 -19.3047,7.10707 -35.8841,6.49493 -49.8761,-2.10011 -19.2507,-14.69967 -28.6174,-36.53628 -28.8453,-56.78723 -0.1061,-12.89093 1.9353,-17.18143 6.6266,-26.76583 6.71,-13.70971 17.5285,-23.43211 32.4114,-29.12742 7.2011,-2.75569 14.5216,-3.97913 21.6638,-3.87573 z m -3.3352,5.61257 c -11.7426,0 -14.1426,0.75043 -25.1375,7.85689 -14.6735,9.48396 -23.2219,20.69468 -26.1343,34.27491 -3.4844,16.24685 4.2058,41.71443 13.3161,51.67108 18.179,21.12126 42.563,20.17982 63.7412,10.00629 19.1503,-9.36324 27.0695,-21.77706 29.5719,-46.35531 1.5536,-15.2577 -1.6952,-23.6357 -14.5495,-37.51967 -13.9862,-15.1065 -23.8685,-19.93419 -40.8079,-19.93419 z m -4.2101,4.30827 c 1.9618,0.0497 2.541,1.25831 2.541,3.64525 0,2.18717 0.8948,3.9765 1.9885,3.9765 1.0935,0 1.988,-1.80667 1.988,-4.01474 0,-3.36826 0.8804,-3.80564 5.4679,-2.71766 23.0011,5.45448 42.2516,26.45801 42.2516,46.09848 0,23.28405 -9.3515,38.75503 -29.0137,47.99707 -14.733,6.92545 -33.0182,6.01618 -45.286,-0.57689 -16.735,-8.99349 -27.3514,-46.25189 -18.138,-65.66765 4.6297,-9.75668 16.9427,-21.20147 27.3637,-25.43462 5.5308,-2.24671 8.8752,-3.3555 10.837,-3.30574 z m 24.2885,10.62726 c -1.4598,-0.006 -2.8802,0.91618 -1.9126,3.4494 0.2308,0.60419 1.5961,1.46661 2.4164,1.39681 0.8202,-0.0698 2.0172,-0.79819 2.1172,-2.18488 0.1,-1.38667 -0.8757,-2.55388 -2.4055,-2.65358 -0.072,-0.005 -0.1437,-0.007 -0.2155,-0.008 z m -19.4846,2.87321 c -0.537,-0.0233 -1.1249,0.27372 -1.758,0.90692 -1.5107,1.51074 -0.9841,40.53748 0.5813,43.07024 0.6255,1.01202 1.8826,1.84019 2.7931,1.84019 2.4079,0 21.9687,-17.92337 21.9687,-20.12952 0,-4.48447 -6.5279,-3.93451 -11.6597,0.98237 -3.0019,2.87602 -6.0804,5.22914 -6.841,5.22914 -0.7603,0 -1.3818,-6.65779 -1.3818,-14.79496 0,-10.88298 -1.3756,-17.0033 -3.7026,-17.10438 z m -25.1282,0.0863 c -1.6403,0 -2.9828,0.8945 -2.9828,1.98799 0,1.09354 1.3425,1.98851 2.9828,1.98851 1.6403,0 2.9822,-0.89497 2.9822,-1.98851 0,-1.09349 -1.3419,-1.98799 -2.9822,-1.98799 z m 60.6433,13.91801 c -1.0935,0 -1.988,0.89499 -1.988,1.98851 0,1.09366 0.8945,1.98799 1.988,1.98799 1.0934,0 1.9885,-0.89433 1.9885,-1.98799 0,-1.09352 -0.8951,-1.98851 -1.9885,-1.98851 z m -71.5791,1.98851 c -1.0935,0 -1.988,1.34185 -1.988,2.98224 0,1.64029 0.8945,2.98277 1.988,2.98277 1.0937,0 2.4319,-1.39209 2.4319,-3.03237 0,-1.6404 -1.3382,-2.93264 -2.4319,-2.93264 z m 78.6051,19.48408 c -1.6403,0 -3.0495,1.29394 -3.0495,2.38745 0,1.09345 1.0102,2.71611 2.6505,2.71611 1.6402,0 3.3151,-1.62266 3.3151,-2.71611 0,-1.09351 -1.2759,-2.38745 -2.9161,-2.38745 z m -77.1462,4.47828 c -1.502,0 -3.4904,0.62866 -5.4354,1.88567 -2.3243,1.5019 -1.7757,2.58204 2.4852,2.60604 3.0072,0.0166 5.4678,-1.51249 5.4678,-2.60604 0,-1.25701 -1.0156,-1.88567 -2.5176,-1.88567 z m 72.0379,14.04307 c -1.467,-0.0414 -2.284,1.54766 -0.9849,3.64939 v 0 c 0.732,1.1842 2.2416,1.58987 3.3548,0.90175 1.359,-0.83943 1.3244,-1.95125 -0.1034,-3.37912 -0.7976,-0.79753 -1.5986,-1.15321 -2.2655,-1.17202 z m -66.8858,8.54883 c -0.2213,-0.009 -0.4409,0.0443 -0.646,0.17105 -1.0937,0.6758 -1.9885,2.07094 -1.9885,3.10007 0,1.02887 0.8948,1.87069 1.9885,1.87069 1.0935,0 2.5978,-0.81643 2.5978,-2.5213 0,-1.38524 -0.9928,-2.58272 -1.9518,-2.62051 z m 52.3777,7.93595 c -1.0737,-0.0542 -2.3472,0.91344 -2.3472,2.29857 0,3.49261 2.2129,3.76759 3.9171,1.00976 0.6294,-1.01796 0.2344,-2.41305 -0.8769,-3.10007 -0.2084,-0.1288 -0.4452,-0.19574 -0.693,-0.20826 z m -38.8927,1.18236 c -1.1964,0 -2.481,1.33579 -3.0758,2.91662 -0.911,2.42127 -0.048,5.31973 3.1409,3.87108 2.4173,-1.09803 2.2066,-6.7877 -0.065,-6.7877 z m 21.2493,2.8298 c -0.92,-0.10773 -1.5787,1.48708 -1.5787,4.01216 0,2.7985 0.8946,5.08806 1.988,5.08806 1.0934,0 1.988,-1.73662 1.988,-3.8592 0,-2.12269 -0.8946,-4.41224 -1.988,-5.08806 -0.1409,-0.0871 -0.2778,-0.13757 -0.4093,-0.15296 z" fill="#00B894" transform="translate(-20.38606,184.20822) translate(2242.5955,199.27937)"/>
</svg>