<?xml version="1.0" ?><svg height="169.83714mm" viewBox="0 0 146.93773 169.83714" width="146.93773mm" xmlns="http://www.w3.org/2000/svg">
    <path color="#000" d="m 10592.689,9439.6974 c -44.874,-0.4666 -93.18,20.4515 -126.485,64.6226 0,0 -71.722,106.4335 -23.097,156.4459 63.318,65.1249 184.604,3.4368 184.604,3.4368 l 229.403,265.536 -101.578,102.4213 46.008,28.238 55.226,-49.076 53.833,47.512 30.044,-31.729 20.667,21.881 -76.759,81.427 37.684,32.977 64.775,-70.641 21.323,28.927 44.496,-61.278 -379.971,-446.9877 c 0,0 54.356,-94.7119 1.216,-143.3177 -21.588,-19.7462 -50.685,-30.0758 -81.389,-30.3952 z m -1.181,49.7266 c 15,-0.1339 28.365,4.1531 38.459,12.2411 26.918,21.5679 14.76,73.768 -11.81,100.4934 -26.57,26.7254 -63.833,60.7979 -112.234,33.9148 -48.4,-26.8831 -20.788,-80.4913 4.567,-106.2789 26.483,-27.6436 56.019,-40.146 81.018,-40.3704 z" fill="#FFFFFF" overflow="visible" paint-order="fill markers stroke" transform="translate(-1.7423074,1.7204128) matrix(0.22656218,0,0,0.22656218,-2357.3442,-2137.7372)"/>
    <path d="m 10755.536,10032.165 c 0.843,-2.878 6.37,-10.066 12.283,-15.971 49.137,-64.8882 71.313,-70.0129 70.786,-90.3419 -0.598,-3.8991 -0.796,0.6837 -66.618,-79.7021 -102.301,-124.9324 -140.146,-174.3204 -151.171,-170.0441 -24.066,9.3348 -57.747,24.9567 -84.88,26.9772 -138.42,10.3079 -160.581,-121.8914 -65.52,-223.7834 43.019,-46.1099 119.19,-63.9214 177.726,-42.0658 47.354,17.6806 71.165,64.1475 65.799,112.7363 2.303,24.1811 -34.044,55.5395 -23.3,69.9717 114.294,134.1676 172.525,196.4379 258.028,299.6968 61.611,75.1326 74.877,90.4223 96.463,111.1743 32.197,29.869 9.09,45.707 -11.773,72.31 l -14.286,18.167 -10.734,0.386 c -21.778,4.034 -15.365,-19.771 -29.034,-5.779 -4.404,4.528 -11.971,12.252 -16.813,17.165 -8.942,9.073 -17.933,20.396 -26.078,32.841 -5.544,8.47 -16.213,13.276 -24.833,11.187 -7.786,-1.887 -38.574,-33.462 -41.038,-42.085 -2.214,-7.75 9.066,-22.143 32.129,-40.996 45.697,-37.354 50.657,-43.019 44.246,-50.541 -3.01,-3.531 -4.333,-3.533 -8.463,-0.02 -2.695,2.295 -6.055,6.284 -7.473,8.864 -8.815,16.053 -11.429,18.96 -19.327,21.49 -7.699,2.466 -17.219,0.688 -17.835,-3.331 -0.173,-1.124 -7.846,-11.784 -17.051,-23.689 -13.106,-16.95 -17.333,-21.398 -19.486,-20.505 -1.512,0.627 -10.921,8.932 -20.907,18.457 -21.367,20.378 -34.373,28.45 -41.989,26.063 -4.397,-1.378 -14.955,-9.713 -27.303,-21.553 -1.304,-1.251 -2.896,-2.47 -3.538,-2.71 -4.9,-1.84 -9.347,-9.818 -8.01,-14.377 z m 45.252,9.899 c 2.344,-0.175 6.483,-2.663 9.197,-5.53 2.715,-2.867 11.422,-11.205 19.349,-18.528 7.928,-7.323 17.102,-16.206 20.387,-19.7389 4.848,-5.2121 7.47,-6.3665 13.888,-6.1372 6.85,0.2482 8.184,1.0702 9.914,6.111 3.939,9.6481 28.407,44.4261 33.141,45.0811 0.926,-0.143 5.929,-5.742 11.116,-12.443 10.047,-12.979 19.815,-20.045 27.592,-19.959 4.283,1.485 33.188,34.148 33.265,35.657 0.188,7.451 -2.194,9.99 -46.584,49.629 -35.627,31.824 -36.482,33.315 -25.465,44.805 4.073,4.248 8.369,7.82 9.544,7.937 11.154,-20.586 41.019,-41.58 53.896,-54.997 8.604,-9.003 16.62,-16.223 17.813,-16.044 4.249,0.634 19.539,12.318 19.993,15.278 0.348,2.268 2.419,0.842 8.371,-5.768 11.633,-12.692 14.602,-17.73 14.519,-29.573 -38.288,-40.042 -72.755,-88.7471 -95.042,-115.7811 -21.25,-25.7597 -27.847,-32.7967 -29.46,-31.4227 -72.022,-73.6223 -168.093,-214.5157 -245.503,-279.3253 -10.518,-8.8065 -11.28,-13.9596 -2.209,-21.9061 15.612,-17.3751 26.985,-44.0683 29.055,-60.766 9.347,-76.2184 -58.215,-98.044 -115.275,-94.2206 -21.118,1.415 -46.976,10.6104 -64.693,24.1359 -57.483,43.8854 -114.701,171.9707 -4.764,199.5349 69.319,17.3801 111.874,-44.1196 139.883,-17.9295 60.553,56.6211 107.171,119.2629 138.951,157.7019 99.04,119.8209 92.681,111.6721 91.385,117.116 -1.393,5.8563 -5.965,10.1965 -9.531,9.0488 -1.644,-0.5294 -2.762,0.3282 -3.131,2.4021 -0.315,1.7738 -6.89,9.4166 -14.608,16.9838 -14.789,14.497 -20.233,20.4502 -30.373,33.2108 -3.418,4.3011 -10.994,12.5481 -16.833,18.3251 -5.841,5.778 -10.923,12.239 -11.29,14.357 -0.861,4.941 7.857,13.175 13.504,12.754 z m -288.904,-533.8105 c 46.049,-41.4447 96.158,-47.0104 128.698,-9.6826 39.693,45.533 -6.862,114.5624 -42.698,139.5272 -19.682,13.7107 -39.432,18.3447 -64.674,16.4099 -16.08,-1.2324 -19.765,-4.3811 -29.806,-8.9652 -58.129,-26.538 -34.268,-98.8163 8.48,-137.2893 z m 0.463,113.9102 c 16.68,12.0108 34.363,13.2667 59.365,4.2172 9.809,-3.5501 15.44,-5.4433 25.995,-17.8671 13.339,-15.7001 57.701,-69.116 19.356,-100.8625 -49.276,-40.7963 -136.789,45.1869 -123.108,90.0524 3.295,10.8077 3.087,13.439 18.392,24.46 z" fill="#00B894" transform="translate(-1.7423074,1.7204128) matrix(0.22656218,0,0,0.22656218,-2357.3442,-2137.7372)"/>
</svg>