<?xml version="1.0" ?><svg height="113.54271mm" viewBox="0 0 80.604828 113.54271" width="80.604828mm" xmlns="http://www.w3.org/2000/svg">
    <path d="m -12654.188,9213.9191 c 0,0 -11.042,-78.019 -2.727,-105.813 8.314,-27.794 47.918,-68.425 72.178,-51.516 24.26,16.909 47.1,53.921 47.1,53.921 0,0 20.391,-32.248 47.712,-52.738 27.32,-20.489 72.754,8.552 36.426,45.611 -36.328,37.059 -77.11,46.591 -77.11,46.591 l -4.268,71.847 c 0,0 64.65,-8.953 75.142,-5.212 10.493,3.742 -18.411,72.248 -18.411,72.248 l -14.452,7.215 -30.884,140.486 -131.85,-1.692 -25.439,-136.834 -31.676,-19.064 5.84,-61.201 z" fill="#FFFFFF" transform="translate(-82.085488,-166.07834) matrix(0.26335596,0,0,0.26335596,3432.5361,-2209.3017)"/>
    <path d="m -7744.2246,13325.055 c -1.961,0.05 -3.8307,3.205 -4.4277,9.443 -1.288,13.48 -21.1606,26.548 -27.1016,17.818 -6.596,-9.696 -10.9884,-7.067 -9.8164,5.885 0.743,8.22 -1.5142,16.825 -6.9102,26.33 l -8.0097,14.115 -9.4727,-16.593 c -6.397,-11.204 -8.303,-18.098 -5.875,-21.231 5.528,-7.121 5.4839,-17.097 -0.08,-17.629 -2.738,-0.261 -6.3559,3.409 -8.0429,8.157 -2.706,7.618 -4.1021,8.121 -11.8711,4.283 -4.845,-2.393 -14.7622,-4.918 -22.0332,-5.613 -9.348,-0.893 -14.3318,-3.487 -17.0078,-8.85 -5.699,-11.419 -11.7815,-10.031 -11.1485,2.547 0.303,5.989 -0.9339,10.748 -2.7519,10.574 -1.815,-0.174 -8.7046,2.802 -15.3086,6.613 -6.6,3.813 -14.7959,6.175 -18.2129,5.256 -6.907,-1.861 -8.5944,2.333 -3.4434,8.569 4.913,5.951 -4.191,23.029 -10.582,19.851 -7.085,-3.525 -10.7152,3.067 -4.9082,8.908 3.068,3.081 4.3095,11.212 3.3105,21.67 l -1.6015,16.742 -12.3867,-2.662 c -6.88,-1.477 -12.5475,-1.066 -12.7325,0.93 -0.4,4.161 7.7119,8.742 17.0489,9.635 6.337,0.606 10.1918,7.671 9.2968,17.037 -0.243,2.572 -6.1842,5.193 -13.1992,5.828 -16.93,1.528 -16.8992,7.651 0.051,9.271 12.756,1.22 13.6741,2.17 17.8301,18.454 l 4.2871,16.789 -26.7774,-1.608 c -27.422,-1.643 -27.6748,-1.583 -31.9218,8.121 -5.348,12.198 -4.5006,45.592 1.5664,62.162 3.121,8.522 8.886,14.671 18.166,19.379 9.318,4.727 13.0577,8.727 11.8887,12.723 -3.016,10.303 11.017,102.627 17.58,115.637 6.737,13.359 3.1407,23.101 41.3575,22.576 30.7445,-0.423 42.9305,-0.53 70.1516,-2.058 18.5695,-1.042 21.9981,-1.233 31.3112,-1.262 4.5964,-0.01 10.0382,-0.67 13.2442,-4.022 11.15,-11.656 30.5895,-89.179 30.1035,-114.672 -0.405,-21.532 2.2799,-28.194 14.7109,-36.508 6.18,-4.132 11.3174,-10.786 11.4454,-14.787 0.116,-3.999 1.673,-18.906 3.621,-25.789 11.6769,-41.262 8.9759,-47.047 -26.0078,-47.092 -4.9976,0 -10.654,0.105 -17.0214,0.247 -6.2025,0.137 -10.9899,0.455 -15.1426,0.812 -0.3627,-1.907 -2.0444,-3.762 -5.2969,-4.953 -10.545,-3.864 -8.3123,-17.749 3.5117,-21.828 5.134,-1.772 9.4986,-4.863 9.6856,-6.875 0.187,-2.011 -3.6767,-4.041 -8.5977,-4.512 -14.21,-1.358 -10.3564,-13.369 6.4316,-20.047 12.937,-5.143 14.8185,-5.075 23.1915,0.852 10.604,7.507 18.3989,3.885 9.2109,-4.283 -5.935,-5.276 -5.714,-5.883 4.916,-13.569 6.12,-4.426 14.9454,-7.745 19.6074,-7.349 6.832,0.56 8.2404,-0.804 7.2364,-7.012 -1.782,-11.022 6.459,-23.383 16.6211,-24.926 9.62,-1.458 12.528,-8.041 3.916,-8.865 -8.379,-0.801 -12.0933,-18.966 -5.8203,-28.403 6.669,-10.03 3.1974,-14.009 -8.1016,-9.285 -7.221,3.025 -10.4751,2.714 -16.9981,-1.625 -4.435,-2.948 -8.4935,-5.127 -9.0195,-4.841 -4.035,2.2 -7.5516,-1.53 -8.7226,-9.252 -0.94,-6.199 -2.9873,-9.261 -4.9473,-9.213 z m 3.2676,39.888 c 0.6473,0 1.2844,0.02 1.9121,0.09 6.002,0.607 4.9316,2.195 -6.1934,9.188 -7.398,4.651 -20.0578,13.795 -28.1308,20.324 -17.604,14.239 -18.5106,11.547 -2.3086,-6.844 13.124,-14.898 25.0109,-22.672 34.7207,-22.754 z m -140.5391,4.491 c 1.576,0.15 0.9059,4.248 -1.4941,9.109 -2.401,4.863 -6.7073,22.332 -9.5723,38.818 -3.769,21.691 -6.5458,29.849 -10.0488,29.514 -7.516,-0.718 -6.4264,7.061 1.3886,9.924 5.47,2.002 6.6924,5.567 5.6504,16.455 -0.983,10.296 -2.7981,13.761 -6.9941,13.359 -3.116,-0.298 -5.1553,1.537 -4.5293,4.08 0.624,2.542 3.625,4.432 6.668,4.198 3.739,-0.29 6.2736,4.344 7.8086,14.289 l 1.5195,9.834 -11.6953,0.257 -13.6895,0.303 -1.1347,-0.256 -0.1895,-26.035 c -0.307,-42.958 5.2614,-91.207 11.6524,-100.926 6.795,-10.34 20.7391,-23.299 24.6601,-22.923 z m 21.3281,2.556 c 4.722,-0.353 9.501,9.014 13.709,29.707 7.027,34.55 6.7855,36.749 -3.9355,35.723 -4.806,-0.459 -9.8966,0.691 -11.3106,2.559 -4.017,5.293 7.6098,9.266 14.1348,4.826 3.211,-2.185 6.455,-3.23 7.207,-2.319 0.75,0.909 0.6884,20.64 -0.1406,43.844 l -1.1231,31.584 -9.623,0.215 -10.8965,0.242 -21.5898,0.479 v 0 l -1.0332,0.02 0.8515,-20.543 c 3.228,-77.74 13.358,-125.56 23.75,-126.338 z m 140.2696,1.606 -0.8301,8.687 c -1.066,11.158 -12.2558,22.737 -40.8008,42.211 -12.592,8.593 -24.309,15.486 -26.043,15.32 -1.735,-0.165 -3.947,-3.983 -4.914,-8.488 -1.456,-6.756 1.8894,-10.848 19.1504,-23.422 11.503,-8.378 28.2317,-19.525 37.1777,-24.769 z m -116.0098,15.302 c 0.5643,0.04 1.4039,0.587 2.5234,1.436 6.515,4.941 20.0317,45.238 21.8907,65.25 1.023,11.026 1.6572,32.624 1.4062,47.994 l -0.2207,13.643 -8.9102,0.197 -7.1503,0.16 -3.1075,0.07 -0.5449,0.01 1.6602,-20.779 c 2.693,-33.697 1.0424,-62.013 -5.2266,-89.582 -3.219,-14.156 -4.0133,-18.529 -2.3203,-18.399 z m -19.8594,19.223 c -2.6883,0.25 -4.8974,2.233 -5.1406,4.817 -0.279,2.954 0.09,5.426 0.8359,5.498 0.744,0.07 3.5873,-2.097 6.3203,-4.817 4.071,-4.048 3.9202,-5.041 -0.8378,-5.496 -0.3993,-0.04 -0.7937,-0.04 -1.1778,0 z m 3.1055,50.754 c -6.14,-0.588 -10.6766,4.991 -8.1817,10.055 2.2771,4.613 5.1987,4.98 12.0567,1.502 6.04,-3.063 3.428,-10.859 -3.875,-11.557 z m 3.0117,29.748 c -4.3913,0.175 -9.6013,1.904 -10.8359,4.721 -1.047,2.383 -0.2894,4.487 1.6836,4.676 6.641,0.634 15.3233,-2.894 15.6523,-6.366 0.18,-1.866 -1.8986,-2.819 -4.6816,-3.009 -0.5799,-0.04 -1.1911,-0.05 -1.8184,-0.02 z m 106.9024,42.904 c 2.3172,0.1 2.1415,1.714 0.7265,5.518 -1.407,3.786 -4.4923,10.636 -6.6933,22.553 -3.613,19.552 -4.9769,23.91 -14.3809,26.168 -20.594,4.947 -90.3273,14.238 -145.1523,8.531 -30.732,-3.198 -55.6364,-1.124 -59.2344,-10.781 -0.644,-1.733 -2.6973,-10.745 -4.3633,-24.071 0.1178,-14.037 -10.5833,-26.916 6.7422,-20.763 25.3,8.982 180.4837,3.099 215.2207,-5.838 3.4567,-0.889 5.7444,-1.376 7.1348,-1.317 z m -31.3184,84.985 -1.9395,14.427 c -2.89,18.114 -15.2931,77.269 -17.1171,84.323 -5.325,20.59 -2.5132,19.098 -60.3672,20.824 -30.135,0.899 -61.0316,-1.128 -65.1641,-2.865 -2.6795,-1.126 -4.7168,-8.776 -4.9668,-18.68 -0.233,-9.228 -4.0266,-34.367 -8.4316,-55.869 -4.401,-21.503 -8.0247,-40.139 -8.0547,-41.414 -0.029,-1.279 12.5378,-0.219 27.9238,2.347 44.16,6.409 107.1902,1.473 138.1172,-3.093 z" fill="#00B894" transform="translate(-82.085488,-166.07834) matrix(0.26335596,0,0,0.26335596,3432.5361,-2209.3017) translate(-4730.5688,-4305.3989)"/>
</svg>