<?xml version="1.0" ?><svg height="122.4381mm" viewBox="0 0 93.957428 122.4381" width="93.957428mm" xmlns="http://www.w3.org/2000/svg">
    <path color="#000" d="m 9841.7899,8750.2017 c -1.037,-30.499 -2.593,-39.368 37.52,-54.151 40.114,-14.783 307.4301,-38.949 366.0361,-10.737 58.606,28.212 56.582,37.105 34.753,100.366 -21.828,63.261 -47.21,411.268 -47.134,448.303 0.08,37.034 -107.981,41.321 -160.706,37.589 -52.724,-3.731 -179.9811,3.024 -191.7381,-58.596 -11.758,-61.62 -38.731,-462.774 -38.731,-462.774 z" fill="#FFFFFF" overflow="visible" paint-order="fill markers stroke" transform="translate(68.943022,-38.618836) matrix(0.19704475,0,0,0.19704475,-2005.3652,-1667.4392)"/>
    <path d="m 10072.259,9279.5721 c -47.937,-0.1179 -88.9375,-8.1644 -134.484,-16.1542 -25.5139,-4.4757 -37.1053,-10.5051 -42.0346,-22.3026 -1.9261,-4.6096 -3.3993,-5.7479 -7.8811,-6.0894 -3.0318,-0.2311 -6.4322,-1.1835 -7.5567,-2.1168 -2.2403,-1.8594 -5.257,-17.4834 -8.4634,-43.8352 -0.3959,-3.2534 -1.5123,-11.3219 -2.4808,-17.93 -0.9684,-6.6082 -1.635,-12.6925 -1.4813,-13.5208 0.1539,-0.8285 0.1458,-1.8865 -0.018,-2.3512 -0.337,-0.9575 -1.1185,-8.0367 -2.5188,-22.8164 -14.9897,-156.4235 -36.2475,-366.2335 -38.0184,-410.0285 -0.05,-20.7371 39.9751,-29.6493 47.5217,-32.0634 84.9776,-29.5531 203.7064,-37.6727 289.5264,-28.6503 52.326,5.0109 144.683,31.1745 139.582,51.8125 -37.506,184.4502 -59.427,403.8164 -60.597,514.1744 -0.22,9.1927 0.157,22.6216 -8.083,29.0175 -9.557,7.4182 -12.78,11.5629 -54.001,17.7012 -36.62,5.4531 -75.894,5.2343 -109.012,5.1532 z m 57.982,-23.9166 c 0.244,-0.3671 3.235,-6.7101 6.645,-10.9968 l 10.514,-14.1336 c -13.743,-4.8057 -31.068,-6.2902 -43.269,-8.5293 -3.516,-0.6377 -6.038,1.2638 -15.089,11.3797 -5.977,6.6799 -12.198,18.5851 -13.825,20.2591 -1.627,1.6739 -2.958,3.3821 -2.958,3.796 0,1.8181 56.781,0.026 57.982,-1.7751 z m 92.724,-21.6732 c 2.479,-7.3071 4.691,-18.649 1.429,-20.475 -2.941,-1.5593 -6.744,-3.4972 -11.856,-6.6898 -5.113,-3.1928 -10.374,-6.3399 -11.693,-6.9938 -5.896,1.8338 -23.04,18.6152 -23.732,23.6077 4.558,1.9059 3.984,1.5546 7.47,3.1856 10.542,4.9322 15.58,9.1139 14.469,12.009 -1.143,2.9777 -7.243,2.3175 -16.294,-1.7638 -12.891,-5.8127 -18.228,-1.0194 -25.346,12.0182 l -2.663,4.878 24.908,-1.2212 c 33.054,-2.7051 38.015,-7.0914 43.308,-18.5549 z m -179.438,20.5831 c 0,-0.6971 -0.632,-1.2675 -1.406,-1.2675 -0.773,0 -7.605,-11.2447 -15.182,-18.7912 l -13.777,-13.7209 -6.366,5.5756 c -11.6779,10.2272 -21.1592,22.8477 -20.0958,23.9111 7.7577,3.4414 50.2218,12.682 56.8268,4.2929 z m -81.1247,-6.5578 c 0,-0.5857 -4.2862,-7.8522 -9.5249,-13.0491 l -9.5248,-9.4492 -11.1789,0.4831 c -6.1484,0.2656 -12.8634,1.5746 -14.9222,2.9085 -2.0588,1.3342 -5.4346,2.4257 -7.5016,2.4257 h -3.7584 l 4.0818,3.8028 c 2.245,2.0914 4.0996,3.484 4.1214,3.0945 0.022,-0.3894 1.9368,0.3072 4.2555,1.548 2.3186,1.241 11.8254,3.176 21.1262,4.3 21.5614,2.6059 22.8259,5.2187 22.8259,3.9357 z m 111.7407,-26.7019 c -2.523,-1.5595 -35.686,-2.1568 -35.686,-0.6429 0,0.6872 1.446,2.7972 3.213,4.689 1.767,1.8918 6.046,6.4638 9.509,10.1602 l 6.297,11.7909 9.226,-14.9823 c 5.415,-5.8183 8.489,-10.3674 7.441,-11.0149 z m -92.3044,6.6407 4.8576,-5.0704 h -9.6118 c -7.668,0 -9.6118,0.5447 -9.6118,2.6934 0,1.4814 1.5211,3.0912 3.3802,3.5773 1.8592,0.4863 3.3803,1.5559 3.3803,2.377 0,2.792 2.7363,1.5049 7.6055,-3.5773 z m -57.6756,-16.2944 4.8584,-0.9678 -4.4562,-4.1319 c -3.7075,-4.431 -8.3956,-4.8364 -8.3956,-4.8364 -10.1836,7.4243 -14.1885,15.4734 -17.9912,13.8754 -3.42,-1.4373 0.2604,3.8192 3.8027,1.598 7.0624,-3.5659 14.4162,-4.0024 22.1819,-5.5373 z m 241.774,-2.891 c 4.137,-5.3285 9.854,-11.8661 12.704,-14.5282 2.85,-2.662 4.759,-5.8625 4.244,-7.1121 -6.658,-8.3228 -19.377,-13.1979 -26.319,-19.3527 -2.767,-2.5037 -3.382,-2.4434 -7.899,0.7732 -9.097,7.578 -15.169,16.7708 -23.266,25.603 -8.215,8.9131 -8.599,12.1653 -1.866,15.7912 6.478,3.4886 29.8,7.1246 34.151,6.6347 1.616,-0.1819 4.113,-2.4807 8.251,-7.8091 z m -168.3733,-1.8919 c 1.2082,-1.208 -38.7235,-41.6776 -40.5296,-41.0755 -0.7796,0.2597 -6.6962,5.7049 -13.1482,12.1005 l -11.731,11.6281 7.6055,6.285 c 4.1832,3.4566 8.8255,8.0265 10.3166,10.1553 2.6669,3.8074 3.0704,3.8515 24.7821,2.7052 12.1391,-0.6408 22.3563,-1.4502 22.7046,-1.7986 z m 85.7213,0.796 c 5.911,0 7.851,-0.7561 9.409,-3.668 1.715,-3.2033 1.352,-4.1133 -2.866,-7.1828 -2.656,-1.9334 -9.899,-7.8882 -16.095,-13.2332 -6.197,-5.345 -12.375,-9.7181 -13.73,-9.7181 -2.062,0 -29.957,28.4155 -31.264,31.8474 22.304,-0.6522 39.945,1.8519 54.546,1.9547 z m -183.048,-24.0878 -7.1796,-7.1791 0.9794,8.4505 c 0.5388,4.6478 1.3575,10.2904 1.8195,12.5392 l 0.8399,4.0889 5.3602,-5.3602 5.3603,-5.3601 z m 327.492,-38.1489 c -0.123,-4.5671 2.203,-5.5104 -2.062,-8.857 -3.038,-2.3841 -10.58,-8.287 -16.76,-13.1176 l -11.236,-8.7828 c -9.562,7.4101 -32.579,38.0717 -29.452,38.9107 10.674,5.4746 16.481,14.7694 27.702,20.2528 1.162,0.029 11.018,-8.3784 21.345,-18.2077 5.362,-5.1041 6.082,-5.3436 8.762,-2.9174 2.656,2.4034 2.701,3.3105 0.497,10.0058 -1.375,4.1769 -5.556,10.5008 -9.662,14.6157 l -7.238,7.2532 12.558,7.2227 c 6.064,12.1685 5.704,-39.4631 5.546,-46.3784 z m -180.821,16.0056 c -17.195,-15.891 -30.145,-27.2551 -46.478,-41.5385 -8.3515,10.2083 -21.0462,17.7681 -28.0289,29.0526 -1.3921,2.4592 1.0634,5.812 14.235,19.4363 8.7545,9.0553 18.2989,19.2348 21.2099,22.6212 l 5.292,6.1568 c 11.275,-13.9142 23.942,-22.4746 33.77,-35.7284 z m 93.205,-7.4625 -10.688,-8.1126 c -5.878,-4.462 -13.606,-10.692 -17.173,-13.8443 -6.363,-5.6238 -6.554,-5.6736 -10.117,-2.6455 -11.368,10.7767 -20.269,20.066 -30.456,30.9185 9.728,8.4303 19.495,16.8146 29.194,25.2782 2.258,1.973 4.54,3.3792 5.07,3.125 12.376,-11.9768 21.379,-21.5235 34.17,-34.7193 z m -195.518,-3.542 c -0.5943,-0.5902 -6.1475,-6.6546 -12.3404,-13.4766 -19.7296,-21.7337 -29.7705,-31.8188 -32.7365,-32.8801 -1.587,-0.568 -4.7885,-4.0473 -7.1144,-7.7317 -4.179,-6.6198 -2.2588,-9.6537 -3.5809,-8.3316 -0.3741,0.374 -4.2512,13.9421 -2.4189,30.1513 l 3.3317,29.4712 15.5472,14.7262 15.5473,14.7261 12.4227,-12.7907 c 6.8325,-7.0352 11.9365,-13.2739 11.3422,-13.8641 z m 147.983,-35.4213 c -16.211,-12.4181 -29.811,-28.6211 -43.841,-39.4659 -10.445,12.2978 -22.871,22.1275 -35.632,31.7166 17.556,16.1833 35.397,34.3757 46.192,39.5625 12.556,-8.4032 23.524,-21.8788 33.281,-31.8132 z m -143.0706,-45.9314 c -11.2662,11.727 -16.1967,18.6715 -29.9918,26.9706 l 4.3623,4.6832 c 8.162,8.7622 15.6915,17.0355 24.9467,27.4106 l 9.2387,10.3567 c 10.0652,-10.1515 20.1302,-20.3031 30.1953,-30.4547 -8.4554,-11.6123 -22.0171,-24.2455 -38.7512,-38.9664 z m 209.8016,63.8012 c 2.494,-3.021 9.597,-10.7195 15.783,-17.1076 l 11.249,-11.6147 -4.14,-2.7511 c -8.842,-9.6408 -16.36,-14.8498 -25.508,-22.5481 -13.641,12.8796 -26.626,21.6768 -39.067,34.0775 11.415,6.5432 27.412,24.3607 34.146,25.4368 1.651,0 5.042,-2.4717 7.537,-5.4928 z m 70.261,-16.4785 c 0.588,0 1.206,-5.1337 1.374,-11.4082 3.631,-22.5962 3.179,-34.073 7.017,-55.8427 -8.937,-6.1678 -18.058,-12.0818 -26.879,-18.4165 -9.728,9.2239 -28.561,20.2657 -41.286,33.7485 9.323,7.2451 19.647,19.313 29.261,24.8985 9.153,0.5048 14.242,-6.2409 21.627,-13.1196 5.177,-4.2159 10.49,-0.6169 8.682,4.5554 -6.202,8.3061 -13.164,13.3923 -21.714,19.9794 7.888,4.8947 13.557,12.7171 21.918,15.6052 z m -85.481,-47.7191 c -9.853,-6.2809 -36.791,-25.2555 -50.228,-35.0958 -3.622,0 -30.052,26.107 -30.052,29.6843 0,1.1214 1.878,3.2698 4.174,4.7743 4.09,2.6798 7.943,5.9761 24.915,21.3147 8.575,7.75 9.289,11.6651 12.318,11.7687 16.506,-8.5104 25.621,-19.0327 38.873,-32.4462 z m -107.113,-4.1137 c -16.863,-8.7081 -34.591,-35.0415 -48.6372,-39.4327 -1.6372,0 -22.2921,22.0832 -24.876,26.5963 8.2697,12.3687 27.4133,28.8563 41.7512,41.1113 12.658,-8.3668 20.873,-17.2582 31.762,-28.2749 z m -99.9253,-8.0228 c 0,-0.3784 -6.8524,-7.7593 -15.2276,-16.4019 l -15.2278,-15.7139 -9.7013,9.4137 c -5.3357,5.1774 -10.9732,9.853 -12.5277,10.3902 -5.1723,1.787 -1.3783,8.3788 13.5749,23.586 8.0025,8.1383 15.0315,14.603 15.6199,14.3658 7.9961,-9.0125 16.6247,-14.9584 23.4896,-25.6399 z m 257.0673,-37.6545 -7.269,-6.1558 c -11.406,-10.601 -27.947,-24.1902 -38.168,-31.1843 -10.762,6.6069 -26.995,23.6356 -35.053,31.0522 -5.459,5.0002 -5.729,5.6785 -3.248,8.1591 15.098,8.6185 32.576,29.27 46.275,34.7953 13.767,-12.3702 23.482,-22.6229 37.463,-36.6665 z m -128.312,16.7752 14.674,-14.7558 c -14.229,-12.3451 -28.131,-27.0156 -47.009,-39.7175 -1.405,0 -30.506,27.0618 -30.506,28.4923 0,3.2209 42.844,40.7878 46.478,40.753 0.929,-0.013 8.293,-6.6564 16.363,-14.772 z m -91.5729,-22.3941 c -10.6456,-11.0298 -21.4527,-29.0047 -32.2422,-30.389 -1.7479,0 -23.5312,25.0053 -23.5312,27.0117 9.8089,11.8272 19.7397,21.0286 31.0191,30.7908 7.2605,-9.6251 18.7071,-16.9855 24.7543,-27.4135 z m 266.2669,-1.7979 c 0.04,-8.2887 2.325,-15.0703 1.975,-15.0703 -1.604,0 -18.46,12.7137 -19.912,15.4261 -0.918,5.0702 12.854,15.9914 16.818,15.7575 0.574,-0.5737 1.078,-7.8248 1.119,-16.1133 z m -347.436,0.1405 c -4.9633,-4.275 -12.814,-15.6945 -18.732,-21.9712 -2.5442,4.3528 0.1513,28.2032 5.2499,37.1822 4.8825,-4.6099 10.6348,-8.6492 13.4821,-15.211 z m 214.644,-13.4049 c 4.672,-4.5841 12.836,-12.4096 18.143,-17.3902 l 9.65,-9.0554 c -13.382,-10.3096 -33.567,-27.4125 -46.831,-39.5844 -3.118,0 -40.917,33.5757 -40.917,36.5443 9.442,8.6466 34.513,28.0458 46.387,37.8203 1.397,0 8.897,-3.7505 13.568,-8.3346 z m 136.085,-24.6162 c -16.103,-13.6726 -28.037,-19.638 -45.026,-32.3498 -5.913,-2.8057 -6.018,-2.7882 -10.467,1.7389 -2.974,4.1865 -27.025,22.8 -24.552,26.2303 12.222,12.6047 30.848,24.976 45.373,35.6417 10.859,-8.4099 32.523,-19.6542 34.672,-31.2611 z m -259.9333,-32.963 c -10.3775,8.7625 -17.0918,16.7526 -26.9266,27.3238 12.143,9.0808 18.8632,25.2136 32.9334,28.9205 10.7535,-8.6395 17.1605,-15.5115 29.5945,-25.9812 -9.425,-7.981 -23.865,-20.9606 -35.6013,-30.2631 z m -65.1984,42.5485 13.7225,-12.9737 -11.8808,-10.9846 c -18.0297,-16.6695 -14.701,-16.3179 -21.2719,-10.5486 -4.6408,4.0747 -7.0354,4.8983 -13.8931,4.7788 -10.6799,0.6303 -10.9936,-7.6352 -6.255,-11.0338 3.066,-2.1074 6.9128,-5.6157 8.5484,-7.7962 2.9341,-3.9113 5.4155,-4.0506 -1.4658,-10.3856 -3.8362,-3.5315 -9.9287,-9.2729 -13.539,-12.7587 -5.9004,-5.6973 -11.5877,-8.6806 -9.2081,-4.8303 0.5125,0.8292 1.296,4.0616 1.7412,7.183 0.445,3.1213 1.1512,7.5765 1.5691,9.9004 0.4179,2.324 -0.8827,9.7574 0.2083,16.5191 1.7813,13.0589 -0.4445,11.225 12.3872,23.6797 5.722,6.2621 11.9754,16.131 16.9949,21.9306 5.0195,5.7998 12.118,10.4885 12.6758,10.4194 0.5578,-0.07 3.5132,-5.964 9.6663,-13.0995 z m 247.3027,-39.5907 17.978,-15.6332 -6.406,-5.7267 c -11.098,-10.7635 -21.415,-20.2046 -32.134,-30.1881 -3.244,-3.0211 -6.706,-5.4929 -7.694,-5.4929 -12.302,11.0019 -22.004,19.5537 -35.419,31.0876 14.168,15.2485 35.438,26.6527 47.973,41.5748 0.142,0.013 6.581,-7.6909 15.702,-15.6215 z m -91.17,-23.3371 c -12.712,-10.6079 -25.088,-23.2321 -35.615,-32.407 -6.462,6.4458 -36.147,30.9108 -37.904,37.9363 8.039,9.9283 28.732,25.6955 33.909,30.4979 13.296,-11.9226 26.549,-23.8485 39.61,-36.0272 z m -102.5147,8.3402 c -7.3927,-9.5316 -18.8343,-18.4048 -25.4678,-26.9038 -5.0467,4.3373 -20.8029,19.8043 -26.6618,26.3842 8.7728,12.6486 16.6387,16.6803 24.7323,27.6898 6.0811,-7.9231 23.1412,-19.5159 27.3973,-27.1702 z m 280.2717,-35.1479 c -1.962,-7.7664 -26.456,18.8864 -37.689,26.3543 -3.669,2.4042 -3.739,2.7815 -1.223,6.6209 9.101,10.6961 19.57,14.3557 30.166,22.4843 7.857,-17.1932 4.627,-32.4629 8.746,-55.4595 z m -339.7333,17.1879 c 2.3898,-2.5563 10.2822,-8.1653 14.4402,-12.4647 l 7.5601,-7.8169 -15.0175,-17.9397 c -19.1334,-31.1459 -18.2387,-19.3843 -47.8187,7.6404 0,0 -1.1236,1.7042 1.543,2.9914 l 12.3268,12.0085 c 6.7798,6.6046 11.6298,13.858 13.8764,16.1186 5.2479,5.2804 7.7467,5.1777 13.0897,-0.5376 z m 116.0743,-34.0509 -14.015,-13.5153 -14.014,-13.5152 c -11.6462,12.8439 -29.0524,25.43 -39.3057,38.4411 0,2.6357 21.7083,25.4982 24.5065,25.5014 14.1542,-11.818 29.9472,-26.1375 42.8282,-36.912 z m 206.155,8.4192 14.633,-10.8433 -5.806,-3.9451 c -7.672,-6.5304 -33.368,-26.8503 -44.703,-30.1268 -4.11,-1.8618 -5.82,0.8301 -8.369,0.8301 -15.868,7.8382 -21.846,16.6792 -36.016,30.4105 l 7.16,6.3436 c 7.266,7.207 30.284,34.5517 36.257,35.8653 13.18,-7.2217 26.276,-19.056 36.844,-28.5343 z m -108.004,-10.6961 c -11.425,-10.956 -24.365,-22.3122 -34.934,-31.3793 -2.727,-2.3438 -4.258,-1.2509 -19.013,13.577 -8.826,8.8692 -16.048,16.8873 -16.048,17.8178 3.842,6.7016 27.807,30.5612 33.277,30.8195 13.774,-9.7001 23.122,-19.2255 36.718,-30.835 z m -257.5964,-4.6854 c 5.774,-10.0433 10.7875,-15.2998 18.3588,-22.1388 l 5.683,-5.1668 -4.339,-7.0369 c -3.781,-3.8702 -15.7776,-12.729 -21.5102,-21.2422 l -9.5656,-14.2052 -1.5555,13.3601 c 1.4657,19.9862 4.3643,42.8961 7.2067,56.9613 0.7759,3.8392 1.4038,4.3565 3.3386,2.7508 1.3108,-1.0879 2.3832,-2.5649 2.3832,-3.2823 z m 120.8186,-31.4884 c -11.9067,-12.6989 -22.2581,-22.5371 -31.6063,-36.3356 l -7.0014,3.8213 c -7.532,6.4449 -32.3529,32.6499 -32.3529,34.1573 0,1.3193 24.9275,30.8885 28.7179,33.6505 0.9372,0.6829 2.2848,1.2533 2.9947,1.2676 8.9961,-13.6362 30.1985,-26.208 39.248,-36.5611 z m 70.2038,7.4419 c 8.344,-8.5933 17.644,-16.0086 17.568,-16.4785 -0.08,-0.4699 -4.27,-4.2768 -9.32,-8.4598 -5.051,-4.1831 -11.939,-9.9414 -15.308,-12.7962 l -3.59,-5.1906 c -5.611,4.4894 -27.898,23.3226 -30.092,27.8146 l -2.915,6.1413 10.671,12.2967 c 7.263,6.7632 14.243,12.2967 15.511,12.2967 1.268,0 9.132,-7.0309 17.475,-15.6242 z m 115.631,-17.3921 c -14.146,-12.5755 -24.098,-21.5779 -37.292,-32.811 -12.175,9.4341 -23.074,20.1906 -34.032,30.9619 14.326,14.0592 27.308,22.6104 36.87,33.1753 15.455,-15.6044 18.523,-19.3007 34.454,-31.3262 z m 82.171,20.763 c 4.211,-17.9148 8.434,-35.2131 12.629,-53.0713 1.257,-5.9459 0.741,-6.273 -12.789,-8.102 -7.038,-0.9516 -8.074,-0.6002 -12.676,4.2973 -2.756,2.9335 -7.125,6.65 -9.71,8.2592 -6.487,4.0385 -24.916,19.1492 -26.203,22.5011 5.347,12.1542 28.543,21.7108 39.278,28.9134 3.554,2.4119 7.116,4.3853 7.916,4.3853 0.8,0 1.5,-3.2324 1.555,-7.183 z m -336.636,-33.4113 c -1.1089,-2.9977 25.2667,-21.5374 25.5563,-23.8991 0,-0.7536 -3.7925,-5.3743 -8.4281,-10.2685 -6.3967,-8.3429 -17.2829,-18.236 -17.7684,-29.2232 0,-1.4652 -1.0155,-1.9958 -2.6324,-1.3753 -1.4477,0.5555 -2.2321,2.0527 -1.743,3.3271 -0.5532,5.6295 -26.6294,26.6926 -37.7377,32.9333 l -4.0857,3.2724 c 8.535,13.9848 24.4946,28.4658 34.2317,37.0958 4.5282,-5.5294 6.4527,-5.338 12.6073,-11.8625 z m 88.655,3.8345 c 21.391,-21.9465 26.851,-25.6415 24.555,-27.817 -4.672,-4.4266 -14.806,-11.478 -16.497,-11.478 -0.959,0 -2.627,-1.6519 -3.708,-3.6708 -1.731,-3.2336 -1.285,-4.2347 3.743,-8.405 3.14,-2.6039 7.396,-4.7547 9.459,-4.7798 23.783,9.4128 52.791,38.6353 64.993,50.6577 13.477,-8.4436 21.762,-17.8688 33.399,-29.5769 -8.189,-8.0543 -16.377,-16.1087 -24.566,-24.1631 h -19.352 c -10.644,0 -34.944,-0.5192 -54,-1.16 l -34.6468,-1.1656 -6.7603,8.0755 c -9.6705,11.5517 -10.4262,12.7523 -11.6938,18.5804 -1.0624,4.8841 -2.553,6.4097 12.7941,22.3938 9.0582,9.4339 16.7578,17.1529 17.1098,17.1529 0.353,0 2.68,-2.0916 5.171,-4.6479 z m 225.703,-43.538 c -8.338,-8.8976 -22.359,-17.3168 -31.906,-27.2491 l -9.54,1.8027 c -8.811,1.6649 -13.186,2.8983 -26.599,16.1319 l -14.524,14.3291 c 11.595,7.5076 29.291,29.5637 39.012,31.3403 12.481,-9.1252 46.793,-31.1148 43.557,-36.3549 z m -370.6535,2.6038 c 6.9132,-6.7377 34.3142,-26.4006 36.4364,-27.6189 3.8517,-2.2113 1.2421,-4.0745 -7.3794,-5.2691 -4.4269,-0.6134 -12.4854,-1.7521 -14.8093,-2.5307 -15.4319,-5.1695 -26.2056,-7.439 -26.9258,-6.7189 -0.736,0.736 0.9487,21.0548 3.4637,41.7717 0.9416,7.7555 1.6052,7.7818 9.2144,0.3659 z m 109.8017,-22.2971 c -6.0768,-0.6159 -15.4689,-1.5599 -20.8713,-2.0976 l -9.8225,-0.9778 0.7927,4.6329 c 5.9145,7.4739 11.4985,12.4221 17.68,18.893 l 10.3674,-9.6653 10.3674,-9.6653 z m 300.6748,12.7512 c 0.61,-2.4336 0.685,-4.85 0.165,-5.3699 -1.481,-1.4806 -7.966,6.2573 -6.811,8.1264 1.948,3.1519 5.536,1.6635 6.646,-2.7565 z m -124.122,-9.4933 c -6.526,-1.6162 -13.637,-1.8171 -20.281,0.2756 0,1.4203 7.353,8.5721 8.813,8.5721 3.836,-2.025 9.954,-4.4185 11.468,-8.8477 z m 130.381,-16.1108 c -0.513,-0.8305 0.145,-5.5964 1.462,-10.5911 1.318,-4.9945 2.092,-9.3843 1.722,-9.755 -0.371,-0.3706 -3.956,0.8692 -7.966,2.7552 -16.611,6.778 -31.141,10.8648 -48.428,16.4694 -2.825,0.9214 19.904,22.6997 23.798,22.6997 5.199,-3.5343 31.972,-15.7778 29.412,-21.5782 z m -33.639,-29.101 c 10.149,-4.5684 13.723,-7.3237 3.474,-11.9682 -23.21,-10.4138 -62.212,-18.9591 -91.582,-22.3744 -89.894,-10.4535 -182.4362,8.3787 -244.6652,19.1875 -4.0588,1.6793 -60.6375,14.868 -53.4958,19.4009 7.8018,7.5393 50.4646,9.6642 77.4189,12.7276 93.7021,4.9075 230.5561,17.5677 308.8501,-16.9734 z" fill="#00B894" transform="translate(68.943022,-38.618836) matrix(0.19704475,0,0,0.19704475,-2005.3652,-1667.4392)"/>
</svg>