<?xml version="1.0" ?><svg height="87.56015mm" viewBox="0 0 101.99306 87.56015" width="101.99306mm" xmlns="http://www.w3.org/2000/svg">
    <path color="#000" d="m 11654.108,9187.6417 c 4.943,-62.444 18.065,-114.13 66.689,-188.383 48.623,-74.253 103.088,-102.725 122.771,-104.666 19.683,-1.941 -0.27,-93.584 -1.798,-106.688 -1.528,-13.103 61.656,-35.59 199.526,-35.266 137.871,0.323 155.576,36.156 155.576,36.156 l -34.243,415.428 c 0,0 -126.725,16.177 -161.328,17.229 -34.602,1.051 -134.545,-33.891 -134.545,-33.891 l -17.346,-153.521 c 0,0 -134.096,166.624 -142.275,169.455 -8.178,2.831 -53.027,-15.853 -53.027,-15.853 z" fill="#FFFFFF" overflow="visible" paint-order="fill markers stroke" transform="translate(-381.63411,-40.083682) matrix(0.17921947,0,0,0.17921947,-1705.0075,-1526.8371)"/>
    <path d="m 11954.662,9229.7483 c -34.802,-4.6927 -42.15,-6.3238 -62.274,-13.8215 -18.669,-6.9563 -21.314,-8.4511 -25.117,-14.1989 -2.339,-3.5333 -5.513,-6.8242 -7.055,-7.3133 -4.811,-1.5275 -5.992,-11.277 -6.825,-24.5702 -0.607,-9.6947 -7.758,-76.0267 -8.501,-109.4342 -0.132,-5.912 -1.85,-4.599 -7.745,5.9153 -4.719,8.417 -18.511,30.0424 -22.367,35.0697 -0.714,0.9295 -5.242,7.0139 -10.063,13.5209 -4.82,6.5068 -9.561,12.68 -10.534,13.7182 -4.258,4.5433 -26.258,32.0507 -26.667,33.3428 -0.471,1.4822 -7.356,9.4237 -23.269,26.8352 -44.526,48.211 -71.083,37.0001 -90.651,17.2652 -13.404,-14.9884 -14.088,-21.6765 -2.457,-90.3165 3.251,-19.1821 12.144,-45.0791 31.348,-83.6227 -9.492,-19.8632 -20.732,-51.6485 -13.342,-68.4091 3.377,-7.371 9.294,-13.2631 17.426,-17.3513 8.652,-4.3494 20.724,-4.0687 36.039,0.838 21.157,6.7785 17.219,7.9047 33.743,-9.6495 10.405,-14.9741 27.228,-29.9752 39.007,-41.1337 12.062,-11.4878 26.315,-12.2158 36.674,-12.2158 h 8.548 v -6.3379 c 0,-3.4858 -1.543,-13.0561 -3.428,-27.4642 -1.885,-14.4081 -4.202,-29.6595 -5.15,-36.9908 -0.949,-7.3311 -2.834,-17.5907 -4.192,-22.7992 -9.849,-40.4659 110.516,-46.896 126.192,-46.9762 54.569,-0.8153 112.923,-1.5793 163.757,2.9284 25.703,2.4994 70.863,7.497 89.814,29.3112 9.976,11.4827 0.575,61.881 -2.673,90.3748 -12.828,112.5963 -20.86,200.4611 -23.802,299.1996 -0.6,21.1567 -1.323,27.5036 -3.39,29.7878 -7.711,21.5093 -13.169,22.9947 -35.671,29.3949 -17.608,5.1564 -40.102,6.4906 -105.403,6.8775 -46.136,0.2733 -70.732,-0.2592 -81.97,-1.7745 z m 152.11,-27.9827 c 17.881,-2.3523 21.415,-2.5426 31.865,-5.5805 5.154,-1.498 9.855,-3.5082 10.447,-4.4673 0.592,-0.9589 1.314,-9.8853 1.601,-19.8365 11.415,-117.132 14.456,-250.9633 30.784,-343.1677 2.116,-11.1468 -1.235,-10.0007 -5.914,-10.0007 -56.196,20.169 -222.069,21.2108 -315.447,0.7334 -0.243,0.3007 0.956,7.5183 2.664,19.1378 4.72,32.1288 6.264,45.0857 7.377,81.125 0.559,18.1263 1.705,45.1258 2.547,59.9986 0.84,14.873 4.149,46.816 4.254,70.9844 0.215,50.0086 1.268,88.422 2.474,90.3751 0.452,0.7308 0.92,11.3332 1.04,23.5611 1.693,13.6473 -5.951,19.5407 6.364,24.9141 64.912,18.7055 155.082,18.9649 219.944,12.2232 z m -139.526,-74.1738 c -0.7,-26.4923 -1.152,-49.3087 -1.006,-50.7031 0.145,-1.3943 -1.948,-47.7876 -1.553,-103.0962 0.395,-55.3088 0.772,-101.4233 0.84,-102.4769 0.355,-5.611 20.549,-2.011 22.886,4.0802 1.283,3.3444 3.075,63.9038 2.787,94.1713 -0.716,75.1676 1.761,165.4274 2.415,184.2915 0.657,18.9116 0.349,22.6771 -2.165,26.5163 -31.37,9.1807 -23.915,-42.0288 -24.204,-52.7831 z m -57.372,49.5788 c -10.209,-5.3946 -10.984,-6.8518 -10.997,-20.6865 0,-7.0599 -0.712,-17.3997 -1.563,-22.977 -2.034,-13.2913 -6.038,-48.2159 -6.98,-105.5845 -1.548,-94.3154 -2.464,-129.8727 -3.919,-152.1563 -1.415,-21.6696 -1.321,-22.9649 1.876,-25.774 7.23,-6.3517 18.529,-1.3151 21.484,9.5767 2.538,9.3484 6.425,43.2823 10.253,193.6582 0.533,20.9151 1.314,42.2104 1.736,47.3229 0.421,5.1126 1.612,18.8025 2.644,30.4218 2.424,27.2797 2.113,36.3685 -1.432,41.9432 -2.831,4.4537 -5.515,7.059 -7.186,6.9763 -0.465,-0.023 -3.128,-1.2472 -5.916,-2.7208 z m 143.335,1.1081 c -2.037,-0.8206 -5.079,-3.5908 -6.76,-6.1559 -2.728,-4.1619 -3.054,-8.8537 -3.026,-43.611 0.01,-21.421 0.743,-46.1725 1.613,-55.0034 2.709,-67.1069 -4.106,-113.1354 0.931,-181.686 1.239,-17.0671 3.686,-21.1877 12.389,-20.8467 3.548,0.139 8.138,1.6188 10.2,3.2883 2.36,8.9978 5.673,118.3886 3.652,193.8366 -3.438,31.9777 -4.145,83.8041 -1.248,91.6344 1.504,4.0626 -0.454,13.9895 -3.576,18.1373 -1.812,2.4101 -8.709,2.6077 -14.175,0.4064 z m 58.026,-22.1273 c 0.132,-4.0883 3.246,-21.5035 3.824,-38.7002 0.578,-17.1969 -1.16,-43.816 -0.764,-59.1536 1.851,-55.6495 4.87,-115.1655 7.864,-164.8016 0.843,-14.1652 1.745,-19.0093 3.843,-20.6055 6.498,-4.9476 18.655,-0.557 22.208,8.0211 1.836,4.433 1.752,8.2643 -0.513,23.3186 -5.175,49.8366 -7.077,90.7447 -8.824,139.7015 -2.071,59.1742 -0.283,83.2887 -0.555,99.7902 -0.297,18.0168 -3.082,25.9724 -9.191,26.2598 -11.566,1.3612 -18.19,-2.4003 -17.892,-13.8303 z m -398.586,30.1155 c 10.06,-10.2033 20.176,-21.7313 28.504,-32.4786 2.159,-2.7886 5.197,-6.5914 6.749,-8.4504 4.126,-4.944 16.184,-19.9576 26.314,-32.7619 8.601,-10.8718 25.496,-34.6666 31.121,-43.8279 21.967,-31.8104 41.8,-53.852 39.477,-64.9564 -0.881,-2.5509 -2.796,-50.7524 -2.535,-63.8014 0.114,-5.731 -0.408,-8.6474 -1.365,-7.6055 -5.489,5.9825 -17.236,21.5181 -17.236,22.7952 0,0.8454 -1.974,3.668 -4.389,6.2721 -29.513,42.0463 -60.755,91.7392 -82.267,132.398 -4.125,7.9013 -10.288,19.3095 -13.696,25.3515 -14.828,26.2888 -25.135,56.4753 -27.513,71.3465 -0.912,5.6981 -0.641,6.3379 2.675,6.3379 2.293,0 7.661,-4.0261 14.161,-10.6191 z m -41.08,-7.2199 c 0,-4.183 6.844,-22.9984 13.488,-37.0893 10.284,-26.0892 22.52,-51.8986 33.767,-74.274 21.859,-32.1003 42.265,-68.5999 62.415,-98.5651 5.216,-7.6832 10.311,-15.4736 11.323,-17.3119 1.013,-1.8384 3.104,-4.7386 4.648,-6.445 1.544,-1.7063 2.808,-3.5705 2.808,-4.1428 0,-0.5722 2.658,-3.9348 5.907,-7.4724 7.452,-8.1142 3.471,-18.271 -3.917,-10.6812 -5.249,5.3933 -34.265,32.4631 -54.628,62.9295 -41.331,64.0662 -64.252,110.5167 -70.742,136.5267 -1.05,7.9012 -2.935,19.3094 -4.188,25.3516 -3.5,16.8767 -5.034,36.1693 -2.765,34.7667 1.037,-0.6402 1.884,-2.2571 1.884,-3.5928 z m 49.097,-202.6498 5.134,-6.3285 -4.783,-1.9977 c -8.213,-3.4311 -20.234,-2.7565 -24.358,1.3671 -4.634,4.6344 -6.062,16.7321 -3.186,27.0018 l 5.443,10.2441 c 10.811,-17.1319 13.776,-20.525 21.75,-30.2868 z m 121.604,-70.5868 c 0,-0.9206 -1.203,-1.2123 -2.673,-0.648 -1.471,0.5643 -3.372,1.0258 -4.225,1.0258 -0.855,0 -1.553,0.6551 -1.553,1.4559 0,0.8005 1.901,1.0922 4.226,0.6479 2.324,-0.4443 4.225,-1.5609 4.225,-2.4816 z m 270.535,-99.6076 c 41.813,-4.5528 72.58,-8.9153 68.892,-20.0092 1.23,-13.8458 -84.498,-20.3467 -109.573,-22.0876 -54.864,-1.7078 -221.508,2.241 -218.024,22.9068 0,2.6525 6.515,8.4743 9.495,8.484 10.536,3.8589 22.225,2.7986 32.758,4.8555 77.849,10.1958 163.071,11.8428 216.452,5.8505 z" fill="#00B894" transform="translate(-381.63411,-40.083682) matrix(0.17921947,0,0,0.17921947,-1705.0075,-1526.8371)"/>
</svg>