<?xml version="1.0" ?><svg height="125.84309mm" viewBox="0 0 195.51466 125.84309" width="195.51466mm" xmlns="http://www.w3.org/2000/svg">
    <path d="m 2996.7969,5992.8184 c -28.9089,-0.054 -52.0371,16.5859 -52.0371,16.5859 -7.8516,19.394 116.2675,95.7676 116.2675,95.7676 0,0 29.4839,-53.0692 -16.539,-93.7364 -15.8204,-13.9793 -32.5487,-18.5891 -47.6914,-18.6171 z m -288.5469,3.1796 c -17.7268,-0.01 -39.6281,6.7174 -63.7676,28.8165 -65.7827,60.2217 -20.7148,101.9316 -20.7148,101.9316 24.6399,10.8245 129.6328,-114.334 129.6328,-114.334 0,0 -17.4966,-16.4016 -45.1504,-16.4141 z m 132.6465,12.1934 c -1.2904,0.02 -2.6141,0.181 -3.9688,0.4629 -12.0044,2.4979 -16.1109,13.2535 -18.4023,34.1016 -8.2464,1.0567 -16.6737,2.433 -25.2832,4.1601 -81.6888,16.3871 -119.6083,97.9455 -121.1953,157.4805 -1.587,59.5351 33.8277,114.3361 46.1894,126.8144 12.3621,12.4783 17.7081,18.9418 2.2559,35.1036 -15.4522,16.1616 -17.5371,38.6486 -2.5899,40.1406 14.9477,1.4899 34.4961,-46.3047 34.4961,-46.3047 0,0 58.8033,26.0845 110.8399,18.793 52.0369,-7.2915 110.0868,-48.786 115.5996,-42.6973 5.5128,6.0888 24.8904,34.4292 36.918,24.2812 12.0279,-10.1479 -1.6699,-29.9179 -14.8672,-41.6445 -13.197,-11.7266 -1.7546,-31.2719 7.7675,-62.0918 9.5218,-30.82 -2.5881,-111.1018 -34.996,-161.9922 -22.5931,-35.4776 -61.6807,-52.7046 -110.9532,-54.3457 -3.999,-24.3117 -11.8939,-32.4148 -21.8105,-32.2617 z" fill="#FFFFFF" paint-order="markers stroke fill" transform="translate(-55.32724,-14.418046) matrix(1.0937102,0,0,1.0937102,1952.4311,-338.4912) matrix(0.26458333,0,0,0.26458333,-2398.7881,-1260.5215)"/>
    <path d="m -1683.6314,434.12575 c -2.2181,-3.63622 -1.8853,-5.56418 1.8363,-10.63181 l 2.7886,-3.79766 -4.1351,-4.91886 c -4.518,-5.37399 -8.6299,-10.04377 -10.5653,-26.12217 -1.8636,-15.48193 4.0267,-29.92435 8.4595,-35.66223 0.6996,-0.90557 -0.7973,-3.62801 -1.8114,-2.50594 -1.345,1.48822 -4.7374,3.71913 -7.8362,6.91237 -7.9192,8.1605 -11.1142,7.10109 -13.8671,-4.59802 -2.0971,-8.91199 2.0954,-16.73017 12.8024,-23.87496 7.4598,-4.9785 13.6551,-5.89078 21.2309,-3.12659 8.2015,2.99257 8.1592,4.05976 -0.5051,12.74003 -4.8722,4.88093 -7.9703,7.63473 -7.2632,8.35279 0.6161,0.62563 0.6978,2.50953 3.0351,0.37637 4.7938,-4.37496 11.4201,-7.48674 16.1645,-9.12425 7.0217,-2.42343 8.9571,-3.71088 10.4013,-6.91857 2.8588,-6.34934 9.6486,-6.47837 11.2732,-0.21461 0.5545,2.13794 2.1009,2.96338 8.4181,4.49348 4.2568,1.03097 14.9447,5.65275 17.7238,8.34599 1.8347,1.77803 2.4364,0.35588 3.6289,-0.78781 1.0577,-1.01351 -0.098,-2.63368 -4.3072,-6.0384 -8.8275,-7.14032 -8.8139,-7.11246 -4.7836,-9.79614 7.8318,-5.2157 19.2325,-6.0744 25.9345,-1.95358 10.3189,6.34525 14.2101,16.19536 10.4249,26.39054 -1.2179,3.27915 -2.8131,6.32778 -3.5447,6.77433 -0.7544,0.46022 -4.8058,-2.31235 -9.3531,-6.40058 -4.4124,-3.96694 -8.4801,-6.93324 -9.039,-6.59232 -1.2231,0.74613 -4.1973,2.65193 -3.479,3.85632 1.2844,2.15334 3.6041,6.90658 6.002,11.76729 7.1144,14.42149 6.8968,28.77235 1.4442,40.76266 -2.4761,5.44478 -2.4656,5.52501 1.2512,9.43385 4.0316,4.24026 4.4668,9.85955 0.9656,12.46897 -2.71,2.01933 -7.0988,0.59992 -9.0085,-2.91299 -0.8983,-1.65158 -2.079,-3.11121 -2.6243,-3.24331 -0.5456,-0.13153 -4.1554,1.83761 -8.0218,4.37746 -3.9912,2.62128 -10.948,5.75391 -16.1908,6.78272 -13.4899,2.6472 -19.0932,0.21358 -32.385,-2.3965 l -1.7379,3.66422 c -4.0077,8.45202 -9.6237,10.18746 -13.3266,4.11736 z m 9.1688,-7.34545 c 1.4582,-3.46405 1.4315,-4.43024 -0.1279,-4.80803 -2.1522,-0.52132 -5.9673,6.448 -5.0563,9.2355 0.8069,2.4692 3.1078,0.50478 5.1842,-4.42747 z m 36.7238,-2.86836 c 9.2735,-2.04817 19.5176,-7.83526 24.463,-13.81945 4.2999,-5.20297 8.7364,-13.61415 8.4679,-29.77901 -0.2452,-14.75091 -9.4984,-29.98784 -19.0058,-35.4998 -14.5931,-8.46039 -31.7355,-6.36548 -45.7734,0.64642 -11.6837,5.83645 -20.2583,23.23713 -19.1733,38.9101 1.0616,15.33377 6.8589,26.47232 17.6353,33.88101 7.169,4.92902 23.8756,7.76157 33.3863,5.66073 z m -25.1838,-5.72966 c -13.1558,-5.43494 -20.7494,-17.91883 -21.3078,-35.0288 -0.3856,-11.81316 0.1595,-14.35908 4.8011,-22.42358 2.8612,-4.97103 5.5009,-7.36585 13.1817,-11.96025 11.5191,-6.88976 20.2051,-7.97059 32.2407,-4.01226 9.3116,3.0622 14.8593,7.81847 20.2543,17.36507 15.0605,26.64913 -8.7062,63.56819 -38.0799,59.15333 -3.1132,-0.46945 -8.1047,-1.85896 -11.0901,-3.09351 z m 22.0785,-1.15021 c 5.1809,-0.64547 13.7645,-6.00943 18.5751,-11.60838 3.4417,-4.00572 5.4811,-7.97461 7.5295,-14.65419 2.5747,-8.39476 2.6448,-9.86647 0.8339,-17.60471 -2.0023,-8.55751 -7.7427,-17.8414 -13.4508,-21.7545 -3.9849,-2.73188 -20.8937,-5.74659 -25.6765,-4.57788 -2.1179,0.51743 -7.4509,3.2769 -11.8508,6.13243 -12.5329,8.13327 -18.0295,20.15548 -15.8419,34.64867 0.9363,6.20288 6.4754,17.26211 10.3156,20.5956 6.3948,5.55096 20.9524,9.89525 29.5659,8.82296 z m -4.7106,-1.93575 c -0.342,-0.5611 -0.3648,-2.08252 -0.05,-3.38088 0.7735,-3.19438 3.4732,-1.33583 3.1511,2.16916 -0.2461,2.68234 -1.8268,3.29955 -3.1007,1.21172 z m -14.9479,-5.81946 c -1.0601,-2.16661 0.1422,-3.41701 2.6924,-2.79928 1.8346,0.44478 1.4792,3.71939 -0.4735,4.35772 -0.6902,0.22566 -1.6887,-0.47539 -2.2189,-1.55844 z m -10.9316,-9.3593 c 0.2469,-1.01566 1.279,-1.64574 2.2951,-1.39961 1.016,0.24663 1.6464,1.27886 1.4003,2.29467 -0.2471,1.01636 -1.2792,1.64646 -2.2951,1.40035 -1.016,-0.24651 -1.6463,-1.27884 -1.4003,-2.29541 z m 38.8037,6.68236 c 0.2593,-1.07258 1.0773,-1.57128 1.8168,-1.1082 2.0994,1.31422 1.8361,4.05732 -0.339,3.53047 -1.0728,-0.25939 -1.7378,-1.34966 -1.4778,-2.42227 z m -44.7404,-19.85552 c 0.249,-1.02613 1.5426,-1.5821 2.9106,-1.25078 1.3687,0.33204 2.2646,1.4179 2.0162,2.44402 -0.2491,1.02629 -1.5423,1.58263 -2.9111,1.251 -1.368,-0.3319 -2.2643,-1.41783 -2.0157,-2.44424 z m 25.0502,-0.061 c -1.5284,-2.50541 -0.2654,-7.03603 2.4185,-8.67277 1.2191,-0.74372 3.095,-4.26829 4.1878,-7.86804 1.5375,-5.06571 2.4826,-6.49595 4.234,-6.409 1.9294,0.0964 2.0144,1.10445 0.5902,6.9844 l -1.6643,6.87166 12.1547,-4.23556 c 6.6851,-2.32941 12.4123,-4.17283 12.7278,-4.09641 0.3137,0.0777 0.3959,0.86865 0.18,1.76028 -0.2151,0.89182 -5.2479,3.51496 -11.1825,5.82965 -6.9465,2.70939 -11.3251,5.22822 -12.2933,7.0717 -1.4934,2.84466 -6.3649,5.53688 -8.9052,4.9216 -0.7297,-0.17742 -1.8311,-1.14772 -2.4469,-2.15733 z m 30.9584,5.69472 c 0.2594,-1.07258 1.0771,-1.57162 1.8168,-1.10866 2.0995,1.3147 1.8358,4.05772 -0.339,3.53093 -1.0725,-0.25935 -1.7377,-1.34981 -1.4778,-2.42227 z m -53.7966,-22.61086 c -0.2372,-0.72498 0.2153,-1.53038 1.0081,-1.78883 1.6898,-0.55245 3.6557,1.14428 3.2528,2.80791 -0.3629,1.49847 -3.6988,0.70073 -4.258,-1.03138 z m 55.1211,7.71891 c 1.3404,-2.14248 5.2641,-1.54287 4.7158,0.72091 -0.2763,1.14236 -1.5227,1.68248 -3.0355,1.31606 -1.5052,-0.36393 -2.1997,-1.20661 -1.6803,-2.03697 z m -47.7102,-19.70524 c 0.3078,-1.26868 1.2609,-1.67721 2.5465,-1.09087 2.475,1.12876 1.7816,3.27521 -1.0301,3.1835 -1.1723,-0.0361 -1.8042,-0.90962 -1.5176,-2.09302 z m 44.2373,6.73397 c 1.2048,-2.54046 3.4305,-2.17471 3.302,0.54054 -0.068,1.41059 -0.8678,2.0719 -2.135,1.76491 -1.1834,-0.286 -1.6694,-1.24783 -1.1666,-2.30748 z m -27.4058,-13.27071 c -0.7457,-1.22223 0.834,-2.87594 2.3856,-2.5001 0.6373,0.15437 0.9576,1.11192 0.7114,2.12847 -0.4624,1.90422 -2.0457,2.09469 -3.097,0.37163 z m 15.6813,2.45808 c 1.3478,-2.94457 4.3285,-2.67194 3.6014,0.32986 -0.3667,1.51267 -1.4163,2.37333 -2.559,2.09648 -1.1471,-0.27732 -1.5724,-1.26795 -1.0424,-2.42634 z m 32.2295,65.17424 c 0.3755,-1.54654 -2.7788,-6.31768 -4.4421,-6.72048 -2.5169,-0.6095 -2.4903,1.61486 0.054,4.50281 2.4156,2.74256 4.06,3.57323 4.3884,2.21767 z m -80.1436,-79.16935 8.7728,-8.30641 -4.288,-1.44715 c -5.8115,-1.96116 -12.0733,0.10521 -18.72,6.17794 -6.376,5.82531 -7.9608,10.65138 -5.7578,17.53233 l 1.5464,4.8302 4.8368,-5.2402 c 2.6604,-2.88203 8.7844,-8.97802 13.6098,-13.54671 z m 94.2723,4.35606 c -1.1832,-9.45095 -7.976,-15.96033 -16.8078,-16.10733 -6.3389,-0.10527 -10.6948,0.7818 -11.0504,2.25031 -0.1307,0.54663 1.6806,2.14613 4.0287,3.55482 2.3482,1.40842 8.1899,5.75502 12.9817,9.65852 9.4478,7.69616 11.748,7.83285 10.8478,0.64368 z m -57.6059,-10.72883 c -0.1682,-1.99455 -2.4321,-1.98227 -3.3813,0.0181 -0.5947,1.24946 -0.1851,1.72484 1.3142,1.53033 1.1955,-0.15488 2.1257,-0.8516 2.0671,-1.54848 z m -72.5561,27.34453 c -4.2272,-10.73221 -3.8229,-19.36913 1.2765,-27.27143 3.2543,-5.04329 3.7265,-3.14553 1.3158,5.28754 -1.6228,5.67755 -1.7103,8.64963 -0.4166,14.14079 0.901,3.82394 2.1184,7.43816 2.7054,8.03207 1.6007,1.6192 0.4632,4.69112 -1.5563,4.20211 -0.9701,-0.23437 -2.4663,-2.21088 -3.3248,-4.39108 z m -13.0538,-5.11771 c -3.4067,-6.01755 -3.2475,-17.37186 0.2594,-18.51805 0.818,-0.26762 1.0554,1.02627 0.5619,3.06361 -0.4705,1.93973 0.1735,6.55131 1.4296,10.24794 1.2561,3.69695 2.1546,7.25666 1.9961,7.91059 -0.4809,1.98659 -2.2172,0.88119 -4.247,-2.70409 z m 155.8053,-0.0764 c 3.4067,-8.3836 5.396,-18.28925 4.4252,-22.03255 -0.946,-3.64795 0.339,-4.86879 2.3225,-2.2071 4.1894,5.62152 -2.2751,32.16862 -7.5245,30.89725 -1.4203,-0.34377 -1.2717,-1.61761 0.7763,-6.65786 z m 13.2708,-0.47729 c -0.089,-1.03887 0.8516,-3.94252 2.0881,-6.45256 1.2376,-2.50966 2.2859,-6.21649 2.3279,-8.23786 0.083,-3.87588 2.2739,-4.64456 2.7499,-0.96471 0.502,3.8748 -2.507,13.74208 -4.7746,15.65933 -1.7714,1.49701 -2.2639,1.49639 -2.3924,-0.004 z" fill="#00B894" transform="translate(-55.32724,-14.418046) matrix(1.0937102,0,0,1.0937102,1952.4311,-338.4912)"/>
</svg>