<?xml version="1.0" ?><svg height="119.52673mm" viewBox="0 0 116.21146 119.52673" width="116.21146mm" xmlns="http://www.w3.org/2000/svg">
    <path color="#000" d="m 9969.4423,9551.0088 c -36.6535,-0.3521 -76.6575,11.9554 -109.9263,36.9367 -66.5376,49.9624 -107.6299,104.8223 -63.1355,179.1535 44.4944,74.3314 93.8863,61.7182 151.5794,42.4924 l 50.8882,44.3306 -4.2154,36.7356 55.9233,-4.7737 -19.593,57.4297 75.246,-13.5907 -28.305,50.9422 32.115,-2.205 -8.029,35.8809 52.522,-1.838 -9.915,35.59 79.308,5.064 43.951,-24.613 -206.444,-301.3621 c 0,0 37.585,-85.8465 -2.147,-137.1559 -19.866,-25.6546 -53.169,-38.6653 -89.8227,-39.0172 z m -59.2136,57.9148 c 5.8622,-0.2384 10.9099,2.8682 15.5532,9.6339 11.4297,16.6541 8.5719,35.0257 -5.7153,43.4753 -14.287,8.4495 -35.7858,10.8986 -44.6304,-0.9797 -8.8444,-11.8783 2.5849,-30.6153 2.5849,-30.6153 13.3305,-13.6692 23.6396,-21.1659 32.2076,-21.5142 z" fill="#FFFFFF" overflow="visible" paint-order="fill markers stroke" transform="translate(82.732435,-5.464017) matrix(0.22656218,0,0,0.22656218,-2295.3299,-2155.5208)"/>
    <path d="m 9968.4907,9538.1544 c -124.9738,-0.4576 -266.1949,149.2913 -171.6324,252.9634 14.9537,20.9665 43.6678,38.8367 67.6829,42.1255 28.4319,3.8439 55.3648,-6.6713 84.4838,-8.6192 5.733,2.7824 37.0846,38.7135 37.1091,42.5307 -2.8501,5.7958 -1.4427,8.9249 -6.2736,18.7987 -6.6374,14.2547 3.7635,21.3936 21.4085,14.6948 8.023,-2.9272 20.487,-1.2344 30.252,-4.0845 8.417,3.0436 -6.902,24.3434 -9.293,33.3851 -1.555,4.8901 -4.435,10.5681 -6.401,12.6175 -2.857,2.978 -2.795,4.6254 0.31,8.2011 4.699,5.413 18.309,6.1151 29.144,1.503 12.47,-5.3082 26.329,-9.5353 33.586,-10.2465 25.894,4.2008 -19.697,42.1686 2.345,49.3817 3.813,1.1585 8.444,1.1585 10.292,0 4.991,-3.131 6.552,1.3877 3.947,11.4213 -1.845,7.102 -1.459,9.722 1.895,12.949 6.085,5.854 11.627,6.871 29.148,5.355 8.577,-0.743 16.632,-0.568 17.902,0.386 1.27,0.953 1.354,6.553 0.185,12.445 -1.169,5.892 -1.163,12.25 0.02,14.13 17.187,22.158 88.785,21.374 106.224,8.961 2.338,-7.736 10.828,-12.613 16.843,-17.746 17.946,-14.393 16.153,-20.438 -18.4,-61.9963 -53.226,-94.3259 -110.703,-163.3729 -165.014,-242.7548 -0.744,-1.1627 0.681,-4.6565 3.169,-7.7639 23.486,-61.532 14.787,-89.2672 -9.395,-127.0625 -11.048,-17.968 -16.047,-24.3436 -25.008,-31.8883 -24.816,-20.6156 -54.192,-29.5756 -84.5254,-29.6868 z m -3.0762,24.8235 c 36.5155,-0.3718 70.4395,14.7659 91.9155,52.5381 14.461,23.4867 25.162,64.734 4.082,111.6654 -11.656,8.5096 -6.145,8.3334 1.266,20.0144 4.815,7.5867 12.996,19.2296 18.183,25.8764 60.484,79.1683 101.199,145.1722 158.885,233.1848 l -0.265,-0.227 c 2.977,4.207 5.956,9.007 7.674,12.602 l 4.679,9.784 -8.581,5.607 c -9.696,6.331 -11.252,5.833 -20.602,-6.59 -37.061,-44.2697 -64.664,-90.8585 -99.418,-138.2182 -29.182,-39.5582 -55.255,-70.8855 -86.998,-113.3441 -7.161,-11.8196 -12.158,-13.0129 -20.586,-4.9206 -8.091,7.7686 -8.335,17.6438 -0.546,22.0952 8.249,6.0695 13.577,15.7744 18.965,22.2385 20.497,24.5704 43.492,50.734 64.693,77.7123 8.697,11.5167 18.56,23.8418 21.919,27.3924 13.273,14.8711 27.199,42.7103 41.94,60.4834 5.408,7.5689 9.414,14.0251 8.9,14.3471 -16.544,1.805 -34.456,1.5065 -51.887,3.5358 -3.052,-1.5009 2.296,-18.7185 6.667,-21.4601 14.988,-21.0325 -20.083,-13.3878 -26.113,-11.4974 4.334,-3.6425 18.29,-28.1482 18.53,-33.7199 0.262,-6.045 -4.617,-9.846 -15.664,-12.2028 -17.656,-3.5974 -33.63,1.0421 -50.381,8.1692 -15.014,8.722 -6.017,-2.549 -3.59,-9.6786 4.866,-13.5283 14.51,-21.3487 17.742,-35.9984 -0.117,-8.599 -37.429,-8.7643 -49.778,-7.1194 -13.668,3.2223 -5.968,-9.8787 -2.077,-15.8406 3.18,-1.9948 2.626,-2.8649 -8.967,-14.0982 -8.3893,-8.7493 -16.9474,-23.4719 -28.1005,-32.3128 -3.8105,-2.8536 -2.3345,-6.6945 7.145,-18.6009 12.7051,-15.9579 7.8082,-25.7139 -6.8162,-13.5812 -9.2799,7.6987 -35.9122,20.0979 -51.8551,24.1438 -7.2532,1.8407 -18.8908,4.8347 -25.8605,6.6502 -9.639,2.511 -16.7004,2.3934 -29.5014,-0.4851 -17.1192,-3.8498 -25.6739,-8.3989 -41.7012,-22.1812 l -8.3606,-7.1671 c -87.233,-88.1261 39.344,-217.7261 144.4635,-218.7964 z m -54.2931,37.4218 c -3.4111,0.1569 -6.4394,1.0123 -10.1094,2.6135 -13.7859,6.1339 -42.5363,30.984 -41.4712,46.1398 1.7292,50.6254 64.2531,34.771 83.7786,-0.2649 5.603,-7.5517 5.1473,-21.2205 -1.1136,-33.3212 -5.3512,-10.3419 -5.7493,-10.6302 -18.6743,-13.5909 -5.2042,-1.192 -8.999,-1.7334 -12.4101,-1.5763 z m -1.1105,20.222 c 6.7663,1.1987 9.8369,5.5431 10.6263,15.033 0.7341,10.9344 -11.902,22.5317 -25.1968,19.4688 -8.4945,-1.976 -8.7056,-2.1928 -9.5222,-9.854 -0.8919,-9.097 14.4969,-24.4528 24.0927,-24.6478 z m 137.0631,130.4066 c -4.684,0.2562 -9.195,2.7136 -11.233,7.2501 -1.766,3.9325 2.781,13.8154 8.958,19.4688 40.259,39.1131 88.838,114.4114 115.431,153.8355 7.084,11.3378 16.596,23.4332 23.055,33.1107 7.942,11.9205 21.233,25.27 23.633,23.7351 2.403,-11.3423 3.456,-14.9395 -2.591,-24.5649 -45.921,-72.7938 -101.785,-146.0008 -144.977,-206.8711 -2.734,-4.2757 -7.591,-6.2204 -12.276,-5.9642 z m 136.179,260.2997 c 4.774,7.401 9.6,14.884 14.976,21.782 6.638,8.464 3.496,15.092 -8.66,9.229 -17.975,-8.557 -31.764,4.366 -12.57,-25.609 z" fill="#00B894" transform="translate(82.732435,-5.464017) matrix(0.22656218,0,0,0.22656218,-2295.3299,-2155.5208)"/>
</svg>