<?xml version="1.0" ?><svg height="181.8437mm" viewBox="0 0 93.024185 181.8437" width="93.024185mm" xmlns="http://www.w3.org/2000/svg">
    <path color="#000" d="m 8201.3244,4584.2221 -68.965,-268.6878 -22.1268,4.7725 c 0,0 -9.3007,0.8052 -7.0707,-28.8568 2.23,-29.662 -13.862,-43.795 -11.633,-74.7657 2.23,-30.9706 29.276,-67.7864 29.276,-67.7864 0,0 -25.786,-40.5671 -18.903,-75.5508 6.882,-34.9838 43.361,-66.3678 43.361,-66.3678 15.1827,-14.8303 32.5531,-26.3638 50.214,-38.1244 0,0 8.918,-18.4951 22.49,-17.71 13.571,0.7852 22.974,25.7362 22.974,25.7362 l 34.51,28.4406 23.168,-11.3413 24.25,14.8927 84.6305,-92.9277 c 12.3181,2.738 24.3279,13.3954 27.1094,31.5088 l -94.4029,93.2874 1.842,19.3676 -26.464,25.0382 c 12.2493,16.1514 -6.3631,44.647 -12.893,68.3098 0,0 30.342,19.8038 25.882,75.2892 -4.459,55.4854 -27.724,79.564 -27.724,79.564 0,0 -70.9399,265.154 -71.107,272.5392 -0.2756,12.1839 -25.1207,13.9594 -28.4175,3.3725 z" fill="#FFFFFF" overflow="visible" paint-order="fill markers stroke" transform="translate(-104.5759,-266.49765) matrix(0.26458333,0,0,0.26458333,-2035.12,-768.62512)"/>
    <path d="m 8190.3269,4576.6637 c -13.4873,-72.0504 -43.7513,-196.3429 -62.3625,-252.4628 -1.7476,-1.15 -5.3845,-0.3613 -8.0829,1.7498 -6.4448,5.0458 -17.7107,0.8872 -23.6211,-8.7192 -3.7552,-6.1043 -3.8951,-10.3698 -0.6828,-20.8323 3.955,-12.8813 2.4486,-24.8069 -6.1839,-48.9516 -6.7032,-18.7495 1.6842,-67.4506 15.3751,-89.2791 l 7.0552,-11.2485 -7.924,-17.0591 c -10.2606,-22.0899 -10.2838,-65.2346 -0.045,-83.6438 11.5678,-20.7989 26.6853,-38.5825 38.1237,-44.8481 6.1358,-3.3611 12.7402,-7.8967 14.6757,-10.0785 6.3079,-7.1114 21.8878,-14.9127 23.6627,-11.8489 0.9529,1.6443 -2.893,7.1122 -8.5458,12.151 -5.6527,5.0387 -10.3394,11.3284 -10.415,13.9774 -0.1735,6.0875 -0.9216,6.1513 21.9631,-1.8667 17.3396,-6.0747 18.8161,-7.3324 14.5164,-12.3646 -2.6325,-3.0812 -6.249,-9.8058 -8.0368,-14.9439 -2.7684,-7.957 -1.9193,-10.8349 5.7282,-19.4149 16.1825,-18.1553 45.3874,-10.2847 50.6761,13.6572 0.8988,4.0686 8.4784,12.6143 16.8435,18.9905 13.5251,10.3096 15.6675,11.0038 19.3426,6.2669 7.6501,-9.8598 22.0181,-10.3916 31.3666,-1.1608 l 8.4258,8.3203 14.1512,-14.9236 c 7.7829,-8.2078 17.8264,-20.183 22.3193,-26.6113 13.3772,-19.1417 34.7333,-44.1316 40.651,-47.568 7.7831,-4.5203 22.5644,0.4353 32.4208,10.8709 6.7856,7.1838 7.9499,11.0766 6.139,20.5252 -2.8267,14.7476 -6.9169,19.4423 -51.6879,59.3275 -34.5144,30.7475 -36.7171,33.4854 -37.0761,46.0806 -0.3128,10.973 -2.4489,15.0204 -11.8291,22.414 -10.3849,8.1855 -11.2847,10.2647 -9.6965,22.4052 1.3437,10.2739 -0.4447,17.9862 -7.7005,33.2053 -9.3194,19.5476 -9.3636,19.924 -3.1682,27.1002 14.4729,16.7635 19.883,35.1726 18.9711,64.5526 -0.9868,31.7393 -14.6745,84.7206 -23.622,91.4259 -5.7898,4.3391 -14.5401,34.749 -22.1131,76.8528 -11.7559,68.5843 -35.1902,144.9747 -50.788,185.8802 -3.303,12.2637 -13.2763,22.7229 -23.8078,24.9669 -10.1822,-0.079 -21.667,-10.6839 -25.0182,-22.8947 z m 26.613,-15.753 c -9.6635,-1.7777 -12.109,1.1144 -6.7402,7.9717 4.0284,5.1458 4.811,5.1027 9.1953,-0.507 4.2369,-5.4211 3.9523,-6.2857 -2.4551,-7.4647 z m -1.4345,-19.23 c 7.5446,-10.8284 7.3402,-11.8315 -2.4681,-12.1111 -9.9326,-0.2831 -13.4472,4.0646 -10.7898,13.3466 2.5989,9.078 6.3128,8.732 13.2579,-1.2355 z m 16.5686,0.2305 c 1.8086,-8.1884 1.5963,-8.3267 -4.626,-3.0099 -7.7183,6.5947 -8.5256,11.2712 -1.9775,11.4578 2.5895,0.074 5.5608,-3.7276 6.6035,-8.4479 z m 0.3213,-20.8333 c 9.6344,-8.2321 8.1699,-14.566 -3.4449,-14.8971 -6.6409,-0.1893 -11.4146,2.0268 -13.9659,6.484 -7.3343,12.8123 5.1833,18.8608 17.4108,8.4131 z m -24.0305,-13.8337 c 0.068,-2.3781 -2.2063,-5.2947 -5.0533,-6.4815 -6.0046,-2.5025 -10.2601,5.2018 -7.3883,13.3751 1.579,4.4932 2.9354,4.7764 7.1339,1.4895 2.8514,-2.2324 5.2399,-6.0048 5.3077,-8.3831 z m 37.7732,-10.7914 c 0.1411,-4.9475 -2.075,-6.871 -8.1132,-7.0431 -9.8986,-0.2822 -15.081,5.9294 -8.5947,10.3016 8.2444,5.557 16.5026,3.9465 16.7079,-3.2585 z m -25.9657,-5.5674 c 2.6813,-6.4323 -6.194,-9.7322 -11.1167,-4.1332 -2.9267,3.3288 -2.8195,4.9435 0.4214,6.3526 7.1192,3.0946 8.6095,2.7855 10.6953,-2.2194 z m -21.778,-3.9105 c 3.1279,-3.5572 2.8185,-5.1056 -1.369,-6.851 -7.8183,-3.259 -8.2366,-3.0376 -8.4507,4.4704 -0.2255,7.9116 4.0461,8.9472 9.8197,2.3806 z m 51.6239,-7.1626 c 0.049,-1.7186 1.0876,-5.5207 2.3082,-8.4491 -9.6519,-2.0834 -26.5637,-9.4367 -31.2796,-3.7247 -6.2933,7.8175 -6.129,10.1079 0.8729,12.1521 10.8588,3.1709 28.0084,3.1839 28.0985,0.022 z m -40.5174,-10.0309 c 5.5825,-6.3493 4.7655,-7.1423 -10.8377,-10.5196 -10.2618,-2.2214 -12.723,-1.7295 -12.8455,2.5667 -0.1529,5.3645 8.3209,12.4118 15.3961,12.8045 2.109,0.1182 5.8381,-2.0662 8.2871,-4.8516 z m 48.0166,-14.0766 c 0.05,-1.7615 -1.4402,-3.2461 -3.312,-3.2994 -1.8717,-0.053 -3.4712,2.2903 -3.5544,5.2085 -0.083,2.9183 1.4072,4.4028 3.3119,3.2994 1.9047,-1.1034 3.5043,-3.4473 3.5545,-5.2085 z m -18.0359,-1.0546 c 5.2569,-7.579 10.475,-5.663 15.3379,-11.0716 1.909,-3.5457 -23.6753,-10.4023 -27.8564,-6.0896 -4.6475,4.7932 -12.8895,13.394 -12.9392,15.1382 9.6689,3.6645 22.8693,4.5984 25.4577,2.023 z m -32.426,-8.7267 c 5.4577,-3.2729 6.181,-8.3964 7.8904,-10.0556 2.0054,-1.9463 -15.8865,-7.774 -18.1365,-5.1798 -4.9227,5.6756 -11.3729,5.5253 -8.1567,-1.7649 1.2849,-2.9122 -4.1293,-2.3465 -6.9369,-2.4266 -6.0979,-0.1738 -6.051,-0.5276 -1.7423,13.0661 4.54,14.9061 9.6518,14.6035 27.082,6.3608 z m 59.9134,-23.7249 c 3.1436,-12.5884 0.6371,-17.0948 -9.6732,-17.3887 -10.6529,-0.3036 -26.1237,18.8431 -19.0675,23.5984 2.5581,1.7238 9.5057,3.2961 15.4394,3.4938 9.218,0.3068 11.1543,-1.1054 13.3013,-9.7035 z m -37.6351,-5.4132 8.9746,-10.8136 -9.1319,-2.7317 c -7.478,-2.2367 -10.5549,-1.091 -16.9921,6.3275 -10.891,12.5515 -10.2982,14.3239 5.8802,17.5708 1.2619,0.2539 6.333,-4.4057 11.2692,-10.353 z m -28.2907,-5.2434 c 7.0907,-7.1289 7.6369,-8.9744 3.4839,-11.7696 -7.7618,-5.2235 -14.0561,-4.2626 -22.7807,3.4778 -9.6821,8.5901 -10.2009,11.7213 -2.322,14.0219 11.153,3.2568 13.2276,2.707 21.6188,-5.7301 z m -22.3239,-14.2098 c 1.2423,-2.9806 -0.021,-6.0843 -2.9797,-7.3175 -6.661,-2.7763 -8.9971,-0.3791 -6.5142,6.6886 2.4948,7.0993 6.6813,7.3766 9.4939,0.6289 z m 94.1919,-3.7194 c 0.129,-4.5266 1.2331,-10.6255 2.4537,-13.5539 1.5089,-3.6204 0.201,-5.5082 -4.0893,-5.8992 -4.8052,-0.4366 -7.8658,-6.75 4.5115,-6.9632 3.4993,-0.06 2.1916,-4.4968 6.1023,-18.8651 12.6223,-46.3775 11.8709,-56.7789 -2.7549,-38.1322 -6.6789,8.5151 -9.9401,9.8009 -23.8506,9.4044 -9.4425,-0.2692 -21.1325,-3.3363 -28.2371,-7.409 -12.9484,-7.4221 -38.8916,-9.7506 -46.2121,-4.1467 -7.1863,5.5009 -5.4743,15.4952 2.9201,17.0474 5.1654,0.9551 10.6907,-1.8308 17.1375,-8.6411 7.1722,-7.5765 9.5083,-8.6332 9.4887,-4.2918 -0.015,3.167 -1.5839,6.6614 -3.4887,7.7649 -5.5874,3.2367 -4.1554,7.7698 3.2741,10.3629 3.7983,1.326 9.1826,0.6286 11.965,-1.5496 4.0526,-3.1725 5.0284,-2.9094 4.9077,1.3249 -0.083,2.9066 3.8866,2.6979 8.075,3.6293 6.5895,1.4651 5.4781,7.1581 -2.5564,7.3306 -6.5745,0.1396 -10.6037,0.99 -14.4735,7.9781 -6.6372,11.9851 -3.6414,10.5156 13.3837,12.679 6.9374,0.8813 11.7136,-0.4821 11.6576,1.4819 -0.052,1.8379 4.0631,1.425 9.1879,2.3643 6.8765,1.2605 5.9895,6.0318 -2.3944,5.365 -9.4713,-0.7533 -12.3676,-0.8489 -19.3525,8.8256 -9.7918,13.562 -8.7487,17.2675 4.9728,17.6586 6.6277,0.1889 8.6863,-2.5974 10.809,-5.2299 2.5058,-3.1078 4.0438,-5.2435 5.9155,-5.1901 1.8719,0.053 2.8507,3.1467 0.8424,7.0857 -2.4059,4.718 1.4198,7.2815 9.3609,7.5078 8.529,0.2432 10.2481,-1.0635 10.4441,-7.9386 z m -49.6293,-16.1685 4.5744,-8.6584 -7.7158,-2.0193 c -8.7,-2.2766 -10.0957,-2.5875 -24.7853,20.3424 -0.9179,1.4332 3.6768,2.4099 9.8865,1.9847 8.5468,-0.5846 12.931,-3.4157 18.0402,-11.6494 z m -28.6414,-2.5194 7.6013,-12.1705 -9.4308,-1.5137 c -7.8191,-1.2552 -10.5258,-1.2373 -17.062,6.3256 -9.5379,11.0358 -9.8448,13.2363 -2.1609,15.4798 11.685,3.4123 13.8332,2.5836 21.0524,-8.1212 z m -24.3456,-19.3291 c -0.8502,-2.4196 0.5992,-4.3381 3.2206,-4.2633 2.6212,0.075 8.1336,-4.3192 12.2496,-9.7646 l 7.4837,-9.9 -8.5957,-2.4197 c -11.8983,-3.3493 -16.4064,-1.0909 -23.8748,11.9607 -5.3591,9.3652 -5.8365,13.0311 -2.8129,21.6012 3.5235,9.9872 3.8072,10.1087 8.7584,3.7533 2.8145,-3.6124 4.4214,-8.5479 3.5711,-10.9676 z m 41.0501,-6.9077 c 6.5492,-11.8258 6.7148,-11.4021 -5.7776,-14.7794 -7.2544,-1.961 -9.831,-1.1817 -11.4164,3.4529 -1.1263,3.2921 -3.4911,8.5268 -5.2556,11.6324 -3.1595,5.5605 -1.9009,5.3197 14.7754,8.0508 1.3622,0.2228 4.5153,-2.6526 7.6742,-8.3567 z m -52.4369,-18.2078 c 3.2526,-5.682 2.7822,-6.7326 -3.0897,-6.8999 -10.226,-0.2915 -8.2459,-6.4173 2.382,-7.3695 13.1218,-1.1753 13.6346,-7.6654 1.1335,-14.353 -9.7124,-5.1961 -11.3783,-5.266 -16.7186,-0.7014 -5.5684,4.7578 -5.5298,6.0099 0.6308,20.4729 7.2988,17.1356 10.035,18.6823 15.662,8.8527 z m -32.0999,-30.978 c 7.966,-11.1096 12.0342,-13.8713 20.0926,-13.6416 5.5575,0.1584 13.4727,2.6346 17.5896,5.503 6.1362,4.2753 11.5976,4.6946 30.3019,2.3262 21.5472,-2.7284 23.6225,-2.3855 37.2933,6.1583 16.8825,10.5513 27.6528,9.6982 38.8483,-3.0766 5.7221,-6.5295 10.787,-8.4611 22.0862,-8.4224 14.607,0.05 14.6867,-0.018 21.6355,-18.3133 9.401,-24.7511 11.6191,-71.9191 4.101,-87.1999 -5.8316,-11.8532 -13.0806,-18.6609 -11.8332,-11.1131 1.4775,8.9388 -4.8579,19.7878 -11.4459,19.6 -3.6176,-0.1031 -6.5311,-1.7973 -6.475,-3.7643 0.1064,-3.7323 -23.1084,-27.688 -26.9654,-27.8266 -1.2166,-0.035 -7.6403,5.0486 -14.2754,11.3158 -13.1481,12.4194 -24.0525,12.6381 -30.0588,0.6029 -4.5506,-9.1187 -12.7395,-8.2983 -16.8662,1.6895 -4.8139,11.6512 -18.3201,17.0343 -29.267,11.6643 -4.6186,-2.2654 -8.331,-6.4489 -8.2499,-9.2967 0.2191,-7.6854 -5.8252,-6.4408 -10.5859,2.1798 -11.6729,21.1371 -28.2191,28.033 -39.2479,16.3569 -7.553,-7.9958 -9.6737,-4.3696 -11.9666,20.4612 -1.6321,17.6733 -0.6238,24.8679 5.3434,38.1475 7.7386,17.2208 8.5147,28.6497 3.4153,50.3018 -4.0518,17.2042 2.6334,15.7272 16.5301,-3.6527 z m 165.6876,-32.1054 c -1.1629,-1.2311 -1.3055,-3.4674 -0.3168,-4.9692 2.2198,-3.373 11.712,0.2518 11.593,4.4271 -0.1,3.492 -8.1255,3.8777 -11.2762,0.5421 z m -177.7487,-14.6105 c -2.7465,-7.8166 0.4907,-17.2147 5.8974,-17.0606 2.8165,0.08 5.7507,4.8947 6.8654,11.265 1.6546,9.4542 0.9733,11.0971 -4.5365,10.9401 -3.566,-0.1017 -7.2676,-2.4166 -8.2263,-5.1445 z m 185.2413,-12.5163 c -1.0843,-1.1481 -0.278,-5.0453 1.7918,-8.661 2.0695,-3.6161 2.943,-10.2865 1.9405,-14.8239 -1.3343,-6.0405 -0.4182,-8.2095 3.4206,-8.1001 6.3089,0.1799 13.1656,14.9297 10.2228,21.9901 -2.4762,5.9413 -14.5365,12.6009 -17.3757,9.5949 z m -158.4905,-70.6121 c 14.3693,-19.2697 27.8841,-21.6334 33.3399,-5.8306 3.9532,11.4511 9.8646,12.4173 12.1208,1.9811 0.7718,-3.5692 3.0118,-8.3595 4.9778,-10.6451 10.7285,-5.3301 24.3048,-8.9686 36.4827,7.0003 5.6409,7.3971 9.9269,3.3133 17.21,-6.3214 8.9105,-11.7881 19.5036,-12.6349 31.6245,-2.5283 l 8.4293,7.0283 14.9305,-27.2669 c 15.8094,-28.8725 17.332,-40.1159 4.4235,-32.6668 -6.2734,3.6202 -7.9408,3.0563 -13.4954,-4.5648 -3.4856,-4.7826 -6.3058,-11.0083 -6.2667,-13.8348 0.092,-6.7 -14.0941,-16.5076 -16.0666,-11.1078 -0.7697,2.1068 -3.7644,3.7629 -6.6554,3.6805 -4.223,-0.1203 -4.7538,-2.8037 -2.7003,-13.6524 1.9063,-10.0723 0.9373,-16.7405 -3.8138,-26.2468 l -6.3701,-12.7437 7.6532,-3.5468 c 10.5838,-4.9054 9.7836,-12.0176 -2.1918,-19.4772 -8.8077,-5.4863 -11.7704,-5.7878 -22.8602,-2.3253 -17.5779,5.488 -18.3751,7.1186 -5.8197,11.9007 17.2909,6.5859 7.4658,12.1034 -11.8445,6.6516 -12.9376,-3.653 -18.3923,-3.4967 -33.1743,0.9497 -9.73,2.9266 -21.9227,4.3488 -27.0952,3.1602 -7.2758,-1.6723 -11.4458,-0.1389 -18.4247,6.7693 -12.7237,12.5977 -20.8059,28.0994 -16.8398,32.2986 5.1125,5.4124 3.4275,19.082 -2.3314,18.9178 -5.5353,-0.1578 -6.2091,2.2221 -5.705,20.1467 0.3659,13.0072 10.4492,38.725 17.6734,45.0769 3.9237,3.4497 3.8224,5.4757 -0.6808,13.6085 -6.523,11.7792 -7.6635,31.4123 -1.7199,29.6175 2.2987,-0.6938 9.1343,-7.907 15.1907,-16.0289 z m -11.3864,-63.6566 c -3.0991,-3.2812 -2.4141,-14.8278 0.8744,-14.7341 4.241,0.1209 10.6711,7.9982 10.5313,12.9021 -0.1321,4.6363 -7.6203,5.839 -11.4057,1.832 z m 11.6978,-72.3512 c -2.4499,-4.2291 7.0041,-8.0754 11.9109,-4.846 1.9267,1.2681 3.4623,3.7465 3.4121,5.508 -0.1223,4.2917 -12.7695,3.7456 -15.323,-0.6616 z m 176.3487,36.9972 c 16.6778,-12.89 18.094,-16.1159 10.8141,-24.6357 -5.7963,-6.7837 -4.1939,-9.1596 15.8232,-23.4581 22.3808,-15.9872 75.8268,-67.6782 78.8088,-76.2211 2.703,-7.7431 -5.496,-20.585 -13.2843,-20.807 -5.7856,-0.1649 -23.3773,17.8226 -41.3066,42.2352 -31.1671,42.4389 -47.9283,54.5342 -57.9068,41.7888 -2.2502,-2.8741 -7.4318,-5.3209 -11.5149,-5.4372 -8.6414,-0.2464 -31.2201,20.3392 -29.2961,26.71 0.786,2.6037 4.4972,0.1282 9.3071,-6.2513 10.0173,-13.2521 23.4366,-13.8036 34.4279,-1.4144 6.354,7.1622 6.8981,9.4996 3.1919,13.7147 -5.5558,6.3191 -10.4839,6.426 -10.3071,0.2232 0.074,-2.5785 -1.8838,-6.462 -4.3497,-8.6299 -3.4762,-3.0562 -7.3519,-1.3107 -17.2512,7.77 -7.0224,6.4418 -12.8019,12.9028 -12.8434,14.3583 -0.041,1.4552 3.6506,6.352 8.2047,10.8816 4.5541,4.5293 8.2255,10.1533 8.1586,12.4974 -0.067,2.3438 2.5386,5.0386 5.7899,5.9878 3.251,0.9497 6.4138,1.9185 7.0288,2.1534 0.6144,0.2355 8.0418,-4.9247 16.5051,-11.4657 z m -87.7443,-92.632 c 3.1881,-5.5695 2.8401,-8.3345 -1.7212,-13.6729 -9.395,-10.9953 -25.0867,-7.0714 -25.4698,6.3693 -0.3942,13.8268 20.2784,19.3795 27.191,7.3036 z" fill="#00B894" transform="translate(-104.5759,-266.49765) matrix(0.26458333,0,0,0.26458333,-2035.12,-768.62512)"/>
</svg>