<?xml version="1.0" ?><svg height="118.40174mm" viewBox="0 0 120.74442 118.40174" width="120.74442mm" xmlns="http://www.w3.org/2000/svg">
    <path d="m 5888.739,-643.06557 c 12.549,-55.5993 2.5852,-161.71003 -1.3968,-194.19393 -3.982,-32.484 -10.147,-45.0845 34.554,-59.5347 44.701,-14.4501 117.661,-41.5008 141.424,-58.0318 23.764,-16.531 46.499,-31.4436 77.328,-9.4793 30.828,21.9642 131.533,50.2865 150.03,55.0262 18.497,4.7396 37.122,11.6757 34.297,45.3157 -2.826,33.6399 -12.717,176.7542 -13.102,192.476 -0.386,15.7218 3.596,33.4088 -35.967,53.9858 -39.563,20.577 -94.668,62.0779 -109.568,69.9388 -14.901,7.8608 -62.391,10.4579 -104.412,-7.8632 -42.022,-18.321 -181.2412,-38.86067 -173.1872,-87.63957 z" fill="#FFFFFF" transform="translate(47.615128,-159.66222) matrix(0.26458333,0,0,0.26458333,-1603.0357,419.4904)"/>
    <path d="m 6061.9258,-545.42596 c -13.0655,-3.82613 -30.605,-9.76139 -38.9778,-13.18978 -8.3692,-3.42861 -31.3596,-10.18693 -51.0891,-15.0188 -34.8409,-8.53304 -52.7646,-22.83943 -64.0245,-38.4693 -6.1912,-8.5914 -4.8997,-8.34503 39.5924,7.54944 12.9369,4.62151 29.5097,8.79917 36.8289,9.28398 14.6385,0.96962 61.5187,16.90998 94.8648,32.25653 11.7488,5.40799 24.9216,9.21951 29.633,11.23241 11.1799,4.56409 12.272,8.02257 1.8718,11.51489 -11.3251,3.80269 -19.8727,3.28074 -48.6995,-5.15937 z m 68.5953,3.84609 c -1.3419,-2.52785 1.2158,-5.49182 5.6806,-6.58679 19.2226,-4.71615 27.5942,-9.14807 52.7075,-27.91037 24.505,-18.30514 80.3717,-48.29099 101.6453,-54.55691 17.252,-5.08053 -1.5418,15.5506 -46.0752,42.40892 -23.4156,14.12341 -43.9776,27.64491 -45.6924,30.0478 -1.7145,2.40257 -12.5245,9.49634 -24.0228,15.76311 -21.2562,11.58478 -39.8395,9.14206 -44.243,0.83424 z m -35.0453,-38.75595 c -0.064,-0.53368 0.139,-16.8055 0.4796,-36.15751 0.8523,-48.36662 -6.5938,-121.62667 -13.6434,-134.20853 -3.2012,-5.71796 -13.4292,-14.04117 -22.7313,-18.4964 -25.3066,-12.12375 -22.0726,-21.65862 4.0299,-11.87873 38.5094,14.42791 42.6007,24.60713 48.5447,120.79178 3.646,59.03178 1.6343,75.29383 -9.7586,78.82127 -3.729,1.1549 -6.8439,1.66266 -6.9209,1.12812 z m 57.1361,-23.92155 c -10.1505,-11.58879 -7.3975,-14.16202 13.98,-13.07037 17.0493,0.87173 19.1209,1.90456 14.2035,7.08913 -11.0244,11.62703 -21.3277,13.81289 -28.1835,5.98124 z m -187.7028,-29.39696 c -23.4473,-16.31131 -32.555,-36.31352 -30.5784,-67.15394 0.9337,-14.09535 4.1284,-27.27573 7.3713,-30.11512 4.5716,-4.00264 5.4167,0.19035 4.0894,20.22867 -2.0515,30.97267 1.3439,39.09293 28.0884,67.20128 22.7895,23.95081 18.3344,28.83698 -8.9707,9.83911 z m -78.1701,-15.41124 c -1.4072,-4.33133 -1.5513,-33.56809 -0.3266,-64.97119 1.2214,-31.40287 -1.8074,-71.91432 -3.7379,-84.15151 -1.9338,-12.23708 -3.6888,-35.65031 -3.9019,-52.0293 -0.5609,-42.78487 12.0696,-48.71406 68.0972,-64.42492 57.5048,-16.12636 101.2653,-40.83805 122.6007,-55.86365 22.8388,-16.08402 49.7155,-15.34834 85.2385,2.3332 23.1599,11.52738 56.0753,29.38527 109.1361,42.75589 36.4264,9.17857 64.0612,11.7288 68.6159,35.12753 7.8729,40.44545 -4.0353,82.3402 -6.7574,123.43617 -5.7079,86.17275 -8.1079,105.20673 -14.2408,112.83577 -6.8705,8.54535 -7.4695,4.67374 -8.7033,-56.22242 -0.8193,-40.28348 1.0429,-82.95371 4.843,-111.10853 5.0821,-37.63536 5.0964,-48.17307 0.088,-59.66071 -6.6514,-15.25493 -9.0878,-16.26439 -66.9672,-27.73786 -40.013,-7.93148 -80.8502,-23.06081 -101.1989,-37.4922 -7.0469,-4.99678 -20.5314,-10.82462 -29.9678,-12.95065 -15.8922,-3.58166 -18.7789,-2.53213 -39.3289,14.29824 -26.6853,21.85262 -70.1976,41.52395 -120.1841,54.33158 -48.132,12.33337 -56.3553,20.66184 -50.5581,51.20399 8.1197,42.74759 9.3495,105.59988 2.9891,152.7122 -5.9574,44.12128 -10.2764,54.43066 -15.7386,37.57815 z m 248.6686,-56.18215 c -4.711,-14.58344 -0.4262,-33.60183 13.1979,-58.60031 9.3646,-17.17995 32.6256,-38.54249 41.3423,-37.96512 6.609,0.43777 4.1956,6.6102 -4.3852,11.21191 -11.6559,6.25207 -29.7765,39.45166 -38.5337,70.6002 -7.2925,25.93412 -7.8011,26.58197 -11.6213,14.75332 z m -158.302,-92.74546 c -27.8331,-10.97532 -67.2666,-36.2828 -59.6378,-38.27585 2.786,-0.72795 23.0303,7.00198 44.9916,17.17826 58.6906,27.19735 69.4595,42.71248 14.6462,21.09759 z m 107.2654,-10.51786 c -3.4514,-2.73848 -5.2861,-4.95575 -4.0758,-4.92681 31.2877,0.7497 60.036,-7.92434 119.2693,-35.98669 36.0692,-17.08934 67.5843,-30.93885 70.0307,-30.77681 12.3303,0.81673 0.6771,14.30773 -22.5839,26.14578 -72.4963,36.88998 -106.4972,49.87696 -131.4362,50.20059 -13.7106,0.17802 -27.7528,-1.91765 -31.2041,-4.65606 z m -106.0968,-22.68117 c -25.1086,-12.31933 -47.8478,-31.84461 -36.1914,-31.07252 3.1861,0.21104 21.2702,8.34411 40.1865,18.07365 18.9163,9.72956 36.8854,17.85499 39.9367,18.0571 3.0513,0.20212 6.633,2.42091 7.966,4.93096 4.5151,8.51864 -26.2487,2.59745 -51.8978,-9.98919 z m 295.8082,5.90007 c -5.3148,-6.06866 -8.4123,-6.61964 -16.5358,-2.94006 -13.3905,6.06381 -16.7353,1.11708 -6.1632,-9.11498 14.7079,-14.2365 37.8905,-6.59099 36.6532,12.08831 -0.6461,9.75382 -5.3911,9.74271 -13.9542,-0.0333 z m -202.5623,-85.3172 c -3.8309,-7.22889 16.3658,-17.92818 34.9755,-18.52677 19.1458,-0.61586 38.2292,7.53888 40.7779,17.42468 0.9932,3.85141 -5.1555,4.19155 -22.4436,1.24225 -13.0951,-2.23427 -30.0061,-2.35111 -37.5818,-0.26049 -7.5758,2.09107 -14.6535,2.14532 -15.728,0.12033 z" fill="#00B894" transform="translate(47.615128,-159.66222) matrix(0.26458333,0,0,0.26458333,-1603.0357,419.4904)"/>
</svg>