<?xml version="1.0" ?><svg height="131.86304mm" viewBox="0 0 212.48466 131.86304" width="212.48466mm" xmlns="http://www.w3.org/2000/svg">
    <path d="m 11497.979,3348.0684 -117.405,24.7832 -3.308,87.9492 c -13.556,-7.7202 -29.959,-13.8877 -47.897,-18.8594 -43.554,-12.0713 -69.117,10.2956 -95.707,23.7871 -26.59,13.4915 -32.666,25.2804 -31.877,52.9024 l 26.354,107.7187 116.062,37.4922 71.565,-78.3223 c 0,0 1.77,-24.7309 0.746,-50.4179 l 49.433,20.9492 59.018,-16.2149 0.08,59.8848 -18.541,-9.7285 -87.344,62.416 11.045,123.7676 105.176,52.0488 87.484,-79.9277 -2.193,-79.5567 70.771,-39.5742 16.256,-128.7851 -63.041,-48.2149 -61.406,14.4531 7.832,-53.1523 c -26.148,-31.1726 -51.436,-63.9967 -93.103,-65.3984 z m 365.15,126.6386 -104.533,52.5352 16.545,116.414 114.045,61.3711 82.962,-43.0722 14.381,-132.0684 z" fill="#FFFFFF" transform="translate(-2.5912162,-160.50607) matrix(0.26458333,0,0,0.26458333,-1706.6807,415.78709) translate(-4730.5688,-4305.3989)"/>
    <path d="m 6773.5894,-473.8937 c -42.4484,-15.1131 -69.4677,-33.6288 -80.2901,-55.0201 -9.7713,-19.3148 -18.2255,-113.1187 -11.5194,-127.8361 6.6145,-14.5163 80.3168,-66.28818 97.1598,-65.3651 9.5464,0.52319 20.346,9.377 32.2552,15.8696 11.9091,6.4926 34.5227,17.9361 50.25,25.4297 18.9518,9.0313 30.1139,16.9649 33.1052,23.5295 4.1755,9.1627 4.8783,9.3856 9.3667,2.9733 2.6724,-3.8116 30.1393,-17.18549 43.3684,-23.50739 7.8205,-3.66831 9.5865,-5.68823 9.5865,-28.32821 0,-12.053 2.0109,-36.3364 4.4737,-53.963 2.4627,-17.6263 3.2659,-36.2298 1.7865,-41.341 -1.4765,-5.1109 -11.5283,-16.8231 -22.336,-26.0262 -22.0465,-18.778 -29.9722,-20.0985 -65.676,-10.9442 -12.42,3.1845 -32.5885,6.8331 -44.8196,8.1085 -26.3608,2.7477 -26.8125,3.6389 -26.9838,53.0354 -0.1181,33.4136 -3.5081,46.4676 -10.8993,41.9 -6.4757,-4.0018 -9.5911,-50.2305 -4.8221,-71.5163 5.9826,-26.691 16.0049,-36.2003 43.9514,-41.6986 18.441,-3.6277 22.1912,-5.5828 18.7245,-9.7592 -2.4893,-3.001 -3.2217,-10.2785 -1.7245,-17.1072 4.1725,-18.9914 -0.2658,-25.391 -31.1623,-44.9648 -39.9265,-25.2921 -48.6022,-27.8921 -73.9974,-22.1785 -11.4278,2.5705 -35.8367,6.7583 -54.2423,9.3061 -28.6124,2.68254 -33.2175,-0.11919 -34.6556,27.4327 -1.376,26.411 -9.0477,28.8779 -13.1818,4.2395 -3.1036,-18.4791 -0.3662,-35.3226 6.6883,-41.1779 2.8349,-2.3506 20.7798,-6.6669 39.8823,-9.592 19.1025,-2.9249 43.5911,-7.3531 54.4195,-9.8401 32.5117,-7.4682 56.9442,0.5383 96.1089,31.4951 28.9299,22.8689 35.8751,41.5152 25.5133,68.5141 -2.1497,5.6014 0.8003,6.0402 25.2948,3.7635 25.1589,-2.3381 29.3019,-1.6492 44.7427,7.4396 9.3579,5.509 24.5448,16.9959 33.7461,25.5266 16.1437,14.9622 16.7342,16.3533 16.7342,39.3917 0,21.0981 -2.3121,35.9788 -15.7125,101.1171 -3.7148,18.0601 -9.6324,23.1941 -37.0415,32.1308 -28.7497,9.3732 -29.4141,10.2496 -24.9434,32.8664 2.1173,10.7058 2.5838,29.6117 1.0335,42.0131 -2.7757,22.2222 -3.446,23.1914 -46.3964,67.1436 -48.5727,49.7087 -50.1082,50.3545 -87.7846,36.94 z m 45.7792,-26.2586 c 5.2473,-5.6605 22.9222,-20.21091 38.0898,-33.7198 12.4448,-11.08389 30.6462,-25.28394 28.836,-35.22966 l -0.382,-22.39554 c -0.7375,-43.23477 -8.7672,-65.5249 -27.0163,-69.5329 -6.653,-1.4608 -26.7506,-12.236 -44.663,-23.945 -17.9155,-11.7095 -25.2665,-14.87713 -27.6218,-16.64878 -6.2287,-4.68518 -23.8862,1.99788 -33.932,10.28758 -10.0459,8.2895 -26.8864,20.9195 -37.4254,28.0655 -22.1489,11.36449 -18.6498,17.94736 -16.2647,41.033 1.5916,15.4223 3.4815,40.1536 4.1961,54.9587 0.7175,14.8054 3.4667,29.5243 6.1096,32.709 11.0616,13.3266 75.4266,44.4224 92.3528,44.6161 4.4943,0.05 12.4672,-4.5381 17.7175,-10.1982 z m -17.6969,-18.2535 c -1.4115,-4.8724 -3.638,-25.0161 -4.9432,-44.7641 l -2.3771,-35.9052 15.2401,-10.3571 c 21.8841,-14.8704 30.3147,-12.8789 11.7969,2.7864 l -15.3966,13.0265 2.3801,42.0361 c 2.2206,39.1854 -0.7294,53.785 -6.7002,33.1774 z m -35.317,-2.2443 c -1.0985,-1.7759 -1.6596,-18.7576 -1.2491,-37.7372 l 0.7441,-34.5085 -14.3069,-12.4625 c -7.8666,-6.8544 -18.9637,-15.6736 -24.654,-19.5977 -14.6613,-10.1085 -8.8647,-15.7179 8.6698,-8.3908 33.4537,13.9774 44.1374,33.9085 44.1374,82.3324 0,26.6242 -1.1753,33.5931 -5.6726,33.5931 -3.1212,0 -6.5702,-1.4529 -7.6687,-3.2288 z m 84.2116,-26.4269 c 0,-1.1525 2.6576,-8.4557 5.9058,-16.2299 3.2483,-7.7739 5.9059,-17.6095 5.9059,-21.8567 0,-4.4763 2.07,-6.9937 4.9225,-5.9897 6.7563,2.3777 5.144,24.5223 -2.6488,36.4179 -5.6903,8.6813 -14.0854,13.2465 -14.0854,7.6584 z m -81.4447,-80.3911 c -13.1346,-8.0077 -20.9215,-19.0006 -20.9215,-29.5284 0,-4.1651 3.8093,-1.9693 11.5046,6.6311 10.8845,12.1622 12.9161,12.8382 37.5288,12.4897 27.282,-0.3859 31.7292,3.8828 13.6513,13.1066 -13.6602,6.9689 -27.3588,6.0839 -41.7632,-2.699 z m 366.665,34.0443 c -22.144,-8.6624 -83.5383,-50.0565 -93.3775,-62.9594 -5.3507,-7.0126 -10.9583,-20.6941 -12.4643,-30.4036 -1.506,-9.7092 -5.5456,-31.2467 -8.9798,-47.8602 -9.3638,-45.3117 -6.9069,-49.1573 48.7853,-76.3402 24.7632,-12.0864 51.0472,-22.9525 58.4148,-24.1479 9.8982,-1.6064 24.9847,2.1689 57.8685,14.4838 59.156,22.1544 65.3276,25.6678 72.8724,41.491 5.9826,12.5461 5.9531,17.6712 -0.4105,71.6767 -7.6953,65.3164 -9.0714,71.9452 -14.933,71.9452 -2.2767,0 -10.0606,5.1995 -17.2982,11.5542 -31.8532,27.968 -66.8691,39.796 -90.4777,30.5604 z m 48.4487,-26.2536 c 22.5603,-10.2416 52.7983,-31.3651 50.4153,-35.2213 -1.063,-1.7171 0.7353,-25.9052 3.9953,-53.7516 5.6844,-48.5777 5.6224,-51.0339 -1.5266,-60.6132 -4.5357,-6.0807 -18.3348,-14.0075 -35.2964,-20.2754 -15.3168,-5.6602 -37.1773,-15.5608 -48.5756,-22.0011 -14.7953,-6.44306 -22.0322,-10.84093 -47.5138,2.33369 -25.4985,13.1833 -66.7025,35.80811 -67.6445,38.14561 -0.939,2.3373 1.6507,18.2831 5.7523,35.4351 4.1046,17.1518 6.5531,40.18563 7.4945,51.0951 1.8353,21.26944 8.3298,23.90493 28.197,33.4667 15.494,7.4562 36.3063,19.3149 46.2488,26.3526 20.9156,14.8009 34.378,15.9605 58.4502,5.0338 z m -45.6552,-1.3654 c -2.3712,-2.8546 -6.8508,-22.1106 -9.9573,-42.7915 -7.3735,-49.0942 -12.3994,-58.0734 -41.0487,-73.3427 -44.1521,-23.5331 -40.9807,-33.2317 4.2316,-12.9457 41.6983,18.7086 50.312,32.7781 57.7888,94.3948 4.4412,36.5758 0.5965,48.6764 -11.0144,34.6851 z m 44.3145,-15.093 c -1.5532,-2.5124 0.5375,-6.8216 4.6893,-9.6635 14.4841,-9.9147 24.9345,-22.8314 27.3412,-33.7906 3.6291,-16.5284 9.6796,-13.3579 9.6796,5.0728 0,13.1087 -2.5158,18.6584 -13.3856,29.5293 -13.7783,13.7784 -23.4167,16.7906 -28.3245,8.852 z m -102.9803,-24.9579 c -15.1722,-6.5947 -23.4079,-21.4432 -17.6231,-31.78 3.5022,-6.2549 4.6154,-5.6719 10.347,5.4098 3.5317,6.8307 11.7084,15.1527 18.1664,18.4936 22.0555,11.4048 12.736,18.1457 -10.8903,7.8766 z m 78.7427,-18.3164 c -2.7078,-2.7226 -4.9225,-13.5908 -4.9225,-24.1517 0,-15.7828 1.9637,-21.1654 11.0292,-30.2309 l 11.0292,-11.0295 -14.9655,2.0077 c -8.2327,1.1041 -14.9064,0.4453 -14.8325,-1.4637 0.1476,-3.8483 54.0799,-29.2384 61.8756,-29.1312 11.921,0.1653 1.2816,13.3487 -18.2904,22.6678 -6.5053,3.097 -7.3735,4.2537 -2.3801,3.1626 24.908,-5.4393 37.4047,-6.549 37.4047,-3.3218 0,1.9971 -8.8144,5.8897 -19.5838,8.6506 -31.5195,8.0775 -38.8989,16.1552 -40.2749,44.0825 -0.9361,18.9844 -2.1498,22.7216 -6.089,18.7576 z m -560.0729,43.7222 c -5.4127,-1.7369 -21.3585,-5.1351 -35.4351,-7.5518 -14.0766,-2.4164 -35.3377,-9.2131 -47.2469,-15.1036 -25.7318,-12.7265 -34.5492,-27.7088 -46.9663,-79.7937 -13.0844,-54.8864 -11.7172,-74.8464 6.2455,-91.0553 11.289,-10.1888 75.1126,-48.18822 89.8714,-50.95682 9.1895,-1.7245 26.533,7.40612 56.018,15.99772 55.8871,16.2848 60.0212,18.653 71.4903,40.9385 9.5557,18.57 9.6768,19.9175 5.6608,63.1439 -4.642,49.9352 -9.2722,61.5316 -35.9578,90.0604 -29.8807,31.9454 -45.2566,40.2325 -63.6799,34.3207 z m 80.0391,-121.9051 c -2.1446,-48.35895 -10.3146,-68.4031 -27.7132,-72.5652 -6.0417,-1.4452 -27.1847,-10.7628 -46.984,-20.7054 -29.1387,-17.67918 -39.2385,-10.70542 -59.0586,-0.5643 -12.6828,9.6325 -31.2685,22.2365 -41.2996,28.0091 -10.0341,5.7727 -19.4392,13.6166 -20.9009,17.4306 -1.4646,3.814 2.1763,32.3685 8.0881,63.454 12.2458,64.3903 5.9354,57.1196 64.4801,74.3004 18.385,5.3952 37.8713,12.1389 43.3047,14.9861 9.4612,4.9573 14.7443,6.95099 46.1159,-28.9139 11.8374,-13.53285 35.9721,-30.653 35.5122,-40.59855 z m -95.7871,88.5619 c 0,-18.7375 -13.6189,-84.8997 -18.9755,-92.1893 -3.8978,-5.307 -16.4507,-12.7436 -28.3126,-16.7752 -22.3212,-7.5879 -30.7164,-13.1488 -26.3874,-17.4787 3.0208,-3.0209 35.4322,5.2311 50.9971,12.9834 14.9772,7.4609 25.2268,29.7484 30.235,65.7437 5.7405,41.2796 5.46,49.7108 -1.6507,49.7108 -3.2482,0 -5.9059,-0.8977 -5.9059,-1.9947 z m 25.8145,-26.442 c -6.8891,-9.8356 -7.8134,-21.8632 -2.3446,-30.5117 3.2276,-5.1021 3.9038,-5.1021 5.6549,0 1.0926,3.1876 2.5159,10.2251 3.1655,15.6387 0.7855,6.5696 3.4697,9.6614 8.0674,9.2964 8.029,-0.6376 8.8352,2.9319 2.1645,9.6023 -6.6795,6.6783 -9.724,5.9448 -16.7077,-4.0257 z m -7.1579,-67.0412 c -3.1921,-8.3899 3.5258,-20.5601 18.7157,-33.897 14.0677,-12.3506 25.4513,-14.8662 28.3156,-6.2578 0.7589,2.277 -6.6057,10.1214 -16.3622,17.4326 -9.7594,7.3114 -18.7658,16.5222 -20.0178,20.4685 -2.6311,8.2818 -7.9316,9.4039 -10.6513,2.2537 z m -49.1721,-32.9405 c -2.7049,-1.1918 -4.9196,-4.6769 -4.9196,-7.7444 0,-3.9288 4.9462,-5.5934 16.7313,-5.6318 9.2043,-0.038 21.1636,-1.1425 26.5764,-2.4737 14.6504,-4.13187 20.6884,0.16646 12.4669,8.7872 -8.0378,8.4306 -41.382,11.2316 -50.855,7.0627 z m 327.7779,96.9343 c -3.1567,-14.3799 3.4667,-35.9596 13.9496,-45.448 10.728,-9.708 12.8305,-5.6235 5.7878,11.2365 -3.2778,7.8421 -5.959,18.5999 -5.959,23.906 0,22.416 -9.5498,29.5582 -13.7784,10.3055 z m -21.6568,-20.8811 c 0,-11.4771 -2.0965,-22.964 -4.6597,-25.5263 -6.4699,-6.471 -0.378,-11.3401 7.8016,-6.2342 14.0501,8.7717 16.2913,52.6277 2.6902,52.6277 -4.4176,0 -5.8321,-5.0628 -5.8321,-20.8672 z m -143.4591,-30.8235 c -12.922,-10.1637 -8.3981,-17.3963 7.1786,-11.4751 7.1047,2.7013 16.2115,2.7825 27.2171,0.2451 24.3528,-5.6209 31.0973,-5.0445 29.6238,2.5321 -1.4617,7.5099 -23.0919,16.3421 -41.0989,16.7821 -6.9364,0.1683 -16.8937,-3.3415 -22.9206,-8.0816 z m 128.916,-28.939 c -18.2905,-18.8863 -26.2988,-33.55 -18.32,-33.55 1.4145,0 12.0716,8.9831 23.6795,19.9624 l 21.1076,19.9624 22.5839,-2.637 c 12.4201,-1.4505 29.6209,-4.1329 38.2257,-5.9608 34.0413,-7.2335 15.8867,8.4572 -20.39,17.6219 -39.0672,9.8693 -43.3726,8.878 -66.8867,-15.3989 z m -116.6318,-4.6113 c -1.4794,-1.4797 -2.6901,-20.2293 -2.6901,-41.6655 0,-21.4362 -1.7688,-42.2809 -3.9333,-46.3208 -2.1616,-4.0405 -14.5639,-13.1916 -27.5597,-20.3362 -22.0259,-12.1094 -29.1602,-19.0473 -19.5809,-19.0473 9.9307,0 51.5818,24.6764 57.8804,34.2906 12.3403,18.8349 8.4985,105.6953 -4.1164,93.0792 z m 19.2501,-12.7268 c -3.6321,-5.8784 0.6083,-49.6048 6.2277,-64.1875 4.4855,-11.6458 16.9676,-17.3618 46.4555,-21.2735 11.7586,-1.5597 19.8348,-0.9228 21.453,1.692 2.4687,3.9948 -8.7761,8.0417 -40.0033,14.4009 -15.1958,3.094 -18.7038,8.8508 -22.2208,36.4598 -3.4136,26.822 -7.9433,39.3306 -11.9121,32.9083 z m -8.968,-91.5984 c -13.0342,-3.6064 -26.1275,-17.6886 -22.2621,-23.9426 1.2077,-1.9536 5.4274,-0.6287 9.3755,2.9438 3.9451,3.5727 14.8444,7.3418 24.217,8.3754 29.5322,3.2573 37.3515,5.5535 30.7606,9.0315 -10.5242,5.5562 -29.2281,7.152 -42.091,3.5919 z" fill="#00B894" transform="translate(-2.5912162,-160.50607) matrix(0.26458333,0,0,0.26458333,-1706.6807,415.78709)"/>
</svg>