<?xml version="1.0" ?><svg height="225.16554mm" viewBox="0 0 144.28217 225.16554" width="144.28217mm" xmlns="http://www.w3.org/2000/svg">
    <path d="m 37463.596,-3346.4668 c -59.721,7e-4 -108.133,45.6426 -108.131,101.9434 0,46.0906 32.807,86.4468 80.015,98.4316 v 37.4668 h 55.36 v -37.248 c 47.638,-11.6929 80.886,-52.2431 80.887,-98.6504 0,-56.3008 -48.41,-101.9427 -108.131,-101.9434 z m -302.561,232.1758 c 0,0 -54.102,26.5025 -61.635,70.3613 -7.532,43.8588 38.805,45.7051 38.805,45.7051 0,0 45.197,-39.9533 51.703,-67.9942 6.505,-28.0408 -23.097,-19.2949 -23.097,-19.2949 0,0 -2.678,-7.6678 -5.776,-28.7773 z m 235.387,112.3906 c -30.015,5.5216 -62.221,26.6912 -78.414,68.9297 -12.747,47.0232 -23.775,104.8097 9.235,111.8773 22.154,10.3198 32.431,10.8357 37.109,11.8239 0,0 37.781,-3.6155 75.121,-35.5801 28.968,-35.5302 43.916,-74.4677 36.163,-114.6197 -9.328,-32.5521 -40.843,-40.83 -79.214,-42.4311 z m -73.096,226.2073 c -16.936,29.7949 -35.777,20.8845 -31.541,108.9493 -0.446,34.5293 7.768,75.7256 15.926,105.8984 74.882,29.209 185.662,-16.8725 185.23,-36.7149 -0.432,-19.8424 -5.932,-42.0126 -8.265,-91.6484 -0.657,-13.9601 -1.732,-26.3192 -3.643,-37.2012 -41.719,-66.1949 -86.781,-76.095 -157.707,-49.2832 z" fill="#FFFFFF" paint-order="markers stroke fill" transform="translate(-91.900579,68.737532) matrix(0.26458333,0,0,0.26458333,-8843.0667,1476.4937) translate(-3313.5291,-2437.8203)"/>
    <path d="m 37440.4,-3402.4238 c -6.088,0 -6.889,4.3461 -3.998,21.8203 1.986,12.0014 4.668,23.5878 5.948,25.7519 4.643,7.8383 7.916,-2.6242 7.916,-16.9648 0,-20.1729 -0.839,-30.6074 -9.866,-30.6074 z m 133.95,32.08 c -0.264,-0.01 -0.541,0.041 -0.821,0.1622 -19.952,8.4427 -30.769,13.6052 -33.789,21.4765 -4.928,12.8407 13.929,9.4578 27.44,-4.9238 6.622,-7.0488 10.698,-14.1479 9.068,-15.7793 -0.422,-0.4212 -1.108,-0.9162 -1.898,-0.9356 z m -228.764,19.2637 c -11.56,0 -11.693,2.067 -1.154,18.1504 7.012,10.7021 22.513,17.8138 22.513,10.3301 0,-10.1756 -13.727,-28.4805 -21.359,-28.4805 z m 123.924,35.3106 c -1.227,-7e-4 -2.47,0.016 -3.733,0.051 -95.776,2.6639 -100.32,76.5611 -59.166,108.5254 20.184,19.0576 16.815,35.7995 16.815,62.1016 0,22.251 0.404,35.5948 4.39,40.4688 6.11,7.4719 14.771,4.6511 16.33,11.1191 5.307,22.0112 35.708,18.445 39.321,4.6328 1.425,-5.4523 5.827,-11.1592 9.785,-12.6777 4.929,-1.8918 7.189,-11.4007 7.189,-30.1934 0,-24.5137 0.927,-38.0004 13.213,-49.8516 29.039,-28.0124 43.379,-60.8736 25.86,-95.2226 -11.183,-21.9233 -31.982,-38.9335 -70.004,-38.9531 z m -1.131,11.1582 c 0.906,-0.01 1.812,1e-4 2.715,0.023 25.277,0.6519 48.971,13.4348 58.166,35.4649 5.557,13.3136 5.614,37.2071 -8.565,58.1328 -16.553,24.4308 -26.321,30.4236 -22.759,8.1289 1.312,-8.2078 3.027,-15.2989 7.427,-22.4219 5.321,-8.6128 3.405,-34.8872 -3.556,-37.207 -3.489,-1.1628 -9.057,3.8392 -12.375,11.1211 -7.565,16.6024 -12.046,16.5959 -27.481,-0.061 -19.317,-20.844 -32.813,-2.5266 -15.248,20.6953 4.146,5.4816 6.757,17.6431 7.527,26.9551 1.871,13.7542 0.742,23.1505 0.06,28.7773 -0.987,8.1262 -17.738,5.9702 -17.443,2.4727 -2.181,-45.8357 -45.917,-47.1034 -41.389,-85.3887 3.475,-29.3721 35.65,-42.9185 64.74,-46.2011 2.729,-0.308 5.461,-0.47 8.18,-0.4922 z m 140.189,10.1015 c -10.346,-0.044 -21.14,1.3867 -22.955,4.3223 -1.502,2.4301 -1.763,5.3879 -0.574,6.5762 4.032,4.0328 43.764,-1.7736 43.764,-6.3965 0,-2.943 -9.889,-4.4596 -20.235,-4.502 z m -315.043,32.6407 c -7.653,0.09 -7.504,4.1074 -8.101,6.7148 -0.81,3.5331 8.35,8.5129 20.097,8.4668 14.519,-0.056 26.578,-3.661 20.862,-7.3555 -5.021,-3.2446 -10.837,-4.5614 -26.207,-7.1972 -2.703,-0.4635 -4.885,-0.6496 -6.651,-0.6289 z m 182.85,34.0293 c 8.131,-0.012 8.89,3.0524 6.035,24.375 -1.796,13.414 -4.182,27.2766 -5.295,30.8066 -5.273,16.7278 -11.121,3.2872 -10.611,-24.377 0.481,-26.0889 1.992,-30.7947 9.871,-30.8046 z m 120.479,16.0566 c -4.655,0.1191 -9.025,1.6564 -9.129,6.6934 0,5.5614 4.887,8.0449 15.836,8.0449 19.643,0 17.887,-12.093 -2.102,-14.459 -1.469,-0.1994 -3.053,-0.319 -4.605,-0.2793 z m -418.959,29.2402 c -0.472,-0.014 -0.938,6e-4 -1.381,0.02 -17.103,2.5165 -26.191,40.167 -24.928,67.33 0.288,2.2457 -28.321,-3.054 -29.109,14.9004 -5.549,4.6312 -15.912,-4.0393 -17.512,10.2461 -0.588,4.2447 -5.001,7.5986 -10.061,8.791 -10.403,2.4514 -8.004,8.3518 -10.925,21.8653 -2.091,9.6721 2.671,37.7575 10.128,44.998 7.895,6.8847 18.075,5.6693 15.006,-9.4394 -0.81,-1.2361 -0.938,-1.933 -0.416,-2.2559 5.483,0.7588 8.304,11.9537 17.342,5.9649 6.971,-4.5766 -1.317,-15.8338 -1.293,-25.0254 -0.46,-5.2125 0.482,-6.2545 1.865,-2.0606 1.474,4.4698 3.321,6.4473 5.647,7.9531 16.377,10.5998 16.147,-1.6208 11.83,-20.4863 -1.06,-8.4727 0.148,-17.6947 -0.395,-27.9101 0.14,-2.8204 3.968,-16.2506 10.621,-13.9473 2.022,3.5364 4.607,8.2319 9.815,8.4219 4.899,-0.3166 3.576,-3.0454 4.363,-7.7637 0.157,-42.5863 9.456,-48.0884 15.008,-76.9082 1.36,-3.5127 -2.297,-4.6003 -5.605,-4.6934 z m 175.494,8.7442 c -1.453,0.01 -3.34,0.5704 -5.698,1.8633 -19.469,10.6747 -30.083,23.7646 -26.593,29.4101 6.57,10.6311 14.713,-0.9922 29.896,-14.7519 6.846,-6.2041 8.691,-16.557 2.395,-16.5215 z m 225.304,21.2968 c -5.729,-0.067 -7.849,6.5238 -1.043,14.7247 6.713,8.0894 20.348,10.1891 20.348,3.1347 0,-2.3859 -4.393,-8.3043 -9.76,-13.1621 -3.594,-3.2534 -6.942,-4.6667 -9.545,-4.6973 z m -122.304,0.3106 c 2.907,0.01 6.104,0.1713 9.445,0.4394 13.364,1.0705 21.673,-1.9067 21.504,4.6934 -0.169,6.6001 -13.842,8.2176 -25.072,7.1172 -11.23,-1.0998 -20.668,1.8243 -20.555,-6.252 -0.19,-4.5806 5.957,-6.0167 14.678,-5.998 z m -3.164,25.7578 c 5.806,0.1 12.121,1.2676 14.156,1.2676 4.068,0 18.068,-2.0985 17.758,5.4668 -0.299,7.2525 -15.124,4.8066 -20.938,4.8066 -5.815,0 -22.089,1.2838 -22.082,-6.3769 0,-4.2939 5.3,-5.2638 11.106,-5.1641 z m -271.213,36.8672 c -4.228,0.1441 -9.199,1.4447 -15.201,4.0527 -19.71,10.1004 -17.887,33.6167 9.453,18.0313 3.216,-1.8335 10.768,-9.3065 7.929,3.3125 -0.852,3.8777 -7.675,10.9531 -8.703,10.9531 -16.337,15.7029 -26.969,26.8283 -41.388,44.084 -14.958,22.5797 -12.432,27.7256 -13.793,59.6055 0.299,20.5838 0.202,43.9113 2.476,65.455 2.542,46.5771 9.288,91.2827 31.932,130.6641 21.067,35.1752 59.902,57.6945 93.644,47.9551 -4.054,25.0267 -0.899,33.3045 8.258,42.8242 6.628,6.891 20.014,13.1446 28.235,10.1074 1.99,21.7378 4.709,44.6409 7.49,66.5957 0.915,8.026 1.627,17.5025 5.881,25.0762 12.512,13.4506 19.545,-7.3351 18.084,-16.4102 0.113,-4.7668 -2.73,-10.0334 -2.993,-15.1875 -7.848,-34.7705 -9.41,-76.3952 -9.648,-115.4453 -0.03,-7.6333 -0.612,-44.7063 10.723,-51.8008 40.018,-24.3759 96.106,-32.3019 133.804,-5.3086 -6.37,24.2891 -16.788,66.9645 -22.459,88.0997 -4.5,40.5743 4.414,81.5858 36.42,61.623 2.041,-18.0837 4.746,-35.8289 7.789,-53.3066 0.05,0.7676 0.09,1.5899 0.149,2.3183 -0.491,32.8428 -0.399,41.599 0.48,46.3555 1.462,7.9141 9.734,34.476 22.367,22.3476 0.806,-1.9097 0.967,-6.4763 0.891,-23.5156 -0.147,-36.3253 7.748,-86.4422 -8.572,-126.2832 10.9,-54.3201 20.4,-106.754 17.912,-159.3457 1.667,-72.7331 -24.044,-100.9577 -87.022,-116.9922 -25.896,-7.3338 -58.415,-2.8443 -73.445,7.4453 -11.097,7.8195 -18.664,14.7529 -20.84,19.0997 -9.346,14.0966 -15.821,33.1365 -20.75,53.4863 -5.894,-2.1854 -11.796,-3.2198 -18.386,-2.3223 -10.09,2.3084 -8.897,11.7219 -0.655,15.3711 4.926,2.1844 9.908,4.2433 14.846,6.3008 -4.992,25.4434 -8.288,51.158 -12.244,70.5332 -14.228,55.3135 -24.188,92.9264 -30.346,119.3379 -65.389,25.3942 -104.073,-50.6951 -110.637,-127.5254 -0.199,-31.8373 -6.653,-70.688 -2.297,-106.6621 1.581,-13.0511 9.887,-30.4264 28.346,-49.5606 2.666,-2.8325 5.549,-5.978 6.406,-6.9922 11.675,-12.6821 33.47,-28.7466 26.022,-50.1347 -5.153,-9.2793 -10.856,-14.5596 -20.158,-14.2422 z m 224.785,94.4492 c 12.794,8.0138 27.325,16.2348 38.094,24.416 1.725,1.3509 4.018,2.9418 5.095,3.5352 2.506,1.3806 11.31,18.1057 12.385,23.5351 2.711,14.037 4.256,25.9822 3.9,37.1094 -1.457,7.3722 -3.818,14.4882 -7.103,20.8281 -11.303,21.024 -28.556,38.2395 -49.443,54.7696 -12.524,9.9126 -66.704,15.4916 -82.959,-4.4883 -12.919,-15.8794 -10.929,-34.4716 -11.034,-50.9395 0.631,-9.6378 2.39,-22.0235 3.461,-24.375 0.516,-1.1329 1.032,-2.986 1.145,-4.1191 0.176,-1.7365 0.473,-2.0341 1.894,-1.875 8.941,2.6477 22.472,13.0619 25.438,-3.2051 -0.586,-10.4916 -13.707,-11.2394 -19.916,-15.9336 19.956,-39.0613 51.445,-58.1325 79.043,-59.2578 z m 21.5,39.4395 c -5.547,-0.014 -11.168,2.2968 -12.283,9.2636 -1.314,8.2137 1.115,8.6944 2.427,10.6797 7.703,11.652 20.367,8.7163 20.633,-6.9883 0.07,-3.8466 -3.459,-11.7383 -5.422,-12.2519 -1.664,-0.4352 -3.506,-0.6982 -5.355,-0.7031 z m -51.332,0.1797 c -6.607,-0.3104 -13.614,6.1188 -12.908,16.0585 0.422,0.7063 0.735,3.304 1.347,3.9102 6.171,11.4139 25.458,6.1699 21.27,-11.4277 -1.923,-5.74 -5.744,-8.3547 -9.709,-8.541 z m 66.252,49.7675 c -2.444,-0.083 -5.652,0.5305 -9.686,1.8164 -1.21,0.235 -3.039,1.0932 -4.07,1.9043 -20.354,15.8193 -37.449,33.1968 -68.67,32.9258 -19.555,-0.1698 -8.446,19.9553 11.838,15.8535 11.658,-2.3574 24.702,-7.468 35.971,-12.5605 0.826,0.017 0.792,0.1614 -0.162,0.7187 -3.799,4.2935 -5.75,9.6187 -0.348,13.9649 12.612,10.1458 37.542,-24.7939 40.935,-43.8125 1.265,-7.0891 -0.43,-10.6285 -5.808,-10.8106 z m -24.723,91.0586 c -1.184,6.0748 -1.447,13.0357 -2.002,20.0313 -9.453,-1.1849 -19,-1.5811 -27.801,-1.2813 -22.777,1.2097 -42.929,4.2742 -60.724,10.8281 2.71,-6.3136 5.302,-14.0403 7.668,-23.7812 20.467,9.6083 48.309,11.2189 82.859,-5.7969 z" fill="#00B894" transform="translate(-91.900579,68.737532) matrix(0.26458333,0,0,0.26458333,-8843.0667,1476.4937) translate(-3313.5291,-2437.8203)"/>
</svg>