<?xml version="1.0" ?><svg height="246.3307mm" viewBox="0 0 144.28267 246.3307" width="144.28267mm" xmlns="http://www.w3.org/2000/svg">
    <path d="m 35023.763,-6130.4594 c -59.721,3e-4 -108.134,45.6424 -108.132,101.9435 10e-4,46.0916 32.808,86.4485 80.017,98.4327 v 37.4657 h 55.358 v -37.248 c 47.638,-11.6927 80.887,-52.2429 80.888,-98.6504 0,-56.301 -48.411,-101.943 -108.131,-101.9435 z m -302.561,312.1774 c 0,0 -54.101,26.5012 -61.634,70.36 -7.532,43.8588 38.804,45.7055 38.804,45.7055 0,0 45.198,-39.9523 51.704,-67.9932 6.505,-28.0409 -23.098,-19.2956 -23.098,-19.2956 0,0 -2.678,-7.6672 -5.776,-28.7767 z m 249.755,110.9012 c -35.208,0.7174 -78.138,23.46 -95.515,78.1551 -23.169,72.9269 -10.69,102.8841 49.077,115.9637 0,0 53.984,-5.1353 96.669,-57.7248 42.685,-52.5894 16.324,-112.9834 -18.828,-130.1366 -8.788,-4.2883 -19.667,-6.4965 -31.403,-6.2574 z m -10.056,214.0675 c -37.666,0.363 -83.826,10.9458 -98.701,26.0394 -21.637,21.9542 -14.686,128.3605 5.678,202.4326 74.882,29.209 185.663,-16.873 185.231,-36.7154 -0.432,-19.8424 -5.934,-42.0114 -8.267,-91.6472 -2.334,-49.6359 -9.968,-79.0363 -41.575,-93.7362 -9.877,-4.5937 -25.244,-6.5382 -42.366,-6.3732 z" fill="#FFFFFF" paint-order="markers stroke fill" transform="translate(-181.10273,87.635543) matrix(0.26458333,0,0,0.26458333,-8985.0297,1549.1865)"/>
    <path d="m 38314.096,-3748.5938 c -6.088,0 -6.887,4.3442 -3.996,21.8184 1.986,12.0014 4.667,23.5879 5.947,25.752 4.643,7.8383 7.916,-2.6243 7.916,-16.9649 0,-20.1729 -0.84,-30.6055 -9.867,-30.6055 z m 133.861,31.9747 c -0.165,-0.02 -0.522,0.1747 -0.732,0.2656 -19.952,8.4427 -30.767,13.6052 -33.787,21.4765 -4.928,12.8406 13.926,9.4598 27.437,-4.9218 6.622,-7.0488 10.698,-14.1499 9.068,-15.7813 -0.422,-0.4212 -1.898,-0.1445 -1.898,-0.9355 0,-0.066 -0.03,-0.097 -0.09,-0.1035 z m -228.676,19.3671 c -11.56,0 -11.691,2.067 -1.152,18.1504 7.012,10.7021 22.514,17.8138 22.514,10.3301 0,-10.1756 -13.73,-28.4805 -21.362,-28.4805 z m 123.926,35.3106 c -1.226,-6e-4 -2.472,0.018 -3.734,0.053 -95.776,2.6638 -100.318,76.5611 -59.164,108.5254 20.184,19.0576 16.812,35.7996 16.812,62.1016 0,22.2511 0.405,35.5928 4.391,40.4668 6.11,7.4719 14.773,4.6531 16.332,11.1211 5.307,22.0112 35.705,18.443 39.318,4.6308 1.425,-5.4523 5.827,-11.1592 9.785,-12.6777 4.929,-1.8918 7.19,-11.4007 7.19,-30.1934 0,-24.5137 0.929,-38.0004 13.215,-49.8515 29.039,-28.0125 43.378,-60.8737 25.859,-95.2227 -11.182,-21.9233 -31.982,-38.9335 -70.004,-38.9531 z m -1.131,11.1602 c 0.906,-0.01 1.81,0 2.713,0.021 v 0 c 25.278,0.632 48.969,13.4348 58.164,35.4649 5.557,13.3136 5.615,37.2071 -8.564,58.1328 -16.553,24.4308 -26.322,30.4236 -22.76,8.1289 1.312,-8.2078 3.03,-15.2989 7.43,-22.4219 5.321,-8.6128 3.404,-34.8872 -3.557,-37.207 -3.489,-1.1628 -9.059,3.8392 -12.377,11.1211 -7.565,16.6024 -12.046,16.5959 -27.481,-0.061 -19.317,-20.8441 -32.811,-2.5266 -15.246,20.6954 4.146,5.4816 6.756,17.643 7.526,26.955 1.871,13.7542 0.741,23.1506 0.06,28.7774 -0.987,8.1262 -17.738,5.9701 -17.443,2.4726 -2.181,-45.8357 -45.917,-47.1033 -41.389,-85.3886 3.475,-29.3721 35.652,-42.9186 64.742,-46.2012 2.729,-0.308 5.461,-0.4676 8.18,-0.4902 z m 140.188,10.0996 c -10.346,-0.044 -21.14,1.3866 -22.955,4.3222 -1.502,2.4301 -1.764,5.3879 -0.575,6.5762 4.032,4.0328 43.766,-1.7736 43.766,-6.3965 0,-2.943 -9.89,-4.4595 -20.236,-4.5019 z m -315.043,32.6406 c -7.653,0.09 -7.505,4.1074 -8.102,6.7148 -0.81,3.5331 8.351,8.5129 20.098,8.4668 14.519,-0.056 26.577,-3.659 20.861,-7.3535 -5.021,-3.2446 -10.835,-4.5634 -26.205,-7.1992 -2.703,-0.4635 -4.886,-0.6496 -6.652,-0.6289 z m 182.849,34.0293 c 8.131,-0.012 8.89,3.0543 6.035,24.3769 -1.796,13.414 -4.179,27.2747 -5.293,30.8047 -5.273,16.7278 -11.123,3.2873 -10.613,-24.3769 0.481,-26.0889 1.992,-30.7948 9.871,-30.8047 z m 120.481,16.0566 c -4.655,0.1191 -9.025,1.6564 -9.129,6.6934 0,5.5614 4.887,8.0449 15.836,8.0449 19.643,0 17.885,-12.093 -2.104,-14.459 -1.469,-0.1994 -3.051,-0.319 -4.603,-0.2793 z m -243.465,37.9863 c -1.453,0.01 -3.339,0.5685 -5.697,1.8614 -19.469,10.6748 -30.086,23.7646 -26.596,29.4101 6.57,10.6311 14.715,-0.9922 29.898,-14.7519 6.846,-6.2041 8.691,-16.5551 2.395,-16.5196 z m 225.303,21.295 c -5.729,-0.067 -7.847,6.5237 -1.041,14.7246 6.713,8.0894 20.345,10.1911 20.345,3.1367 0,-2.3859 -4.39,-8.3063 -9.757,-13.1641 -3.594,-3.2534 -6.944,-4.6666 -9.547,-4.6972 z m -122.303,0.3105 c 2.907,0.01 6.102,0.1733 9.443,0.4414 13.364,1.0705 21.673,-1.9087 21.504,4.6914 -0.169,6.6001 -13.84,8.2196 -25.07,7.1192 -11.23,-1.0998 -20.67,1.8224 -20.557,-6.2539 -0.19,-4.5806 5.959,-6.0168 14.68,-5.9981 z m -3.164,25.7578 c 5.806,0.1 12.119,1.2696 14.154,1.2696 4.068,0 18.068,-2.1005 17.758,5.4648 -0.299,7.2525 -15.122,4.8066 -20.936,4.8066 -5.815,0 -22.091,1.2838 -22.084,-6.3769 0,-4.2939 5.302,-5.2638 11.108,-5.1641 z m -275.332,23.8907 c -0.472,-0.014 -0.936,5e-4 -1.379,0.02 -17.103,2.5165 -26.193,40.1671 -24.93,67.3301 0.288,2.2457 -28.321,-3.054 -29.109,14.9004 -5.549,4.6312 -15.912,-4.0393 -17.512,10.246 -0.588,4.2448 -5,7.5987 -10.06,8.7911 -10.403,2.4514 -8.005,8.3517 -10.926,21.8652 -2.091,9.6721 2.672,37.7575 10.129,44.998 7.895,6.8847 18.077,5.6693 15.008,-9.4394 -0.81,-1.2361 -0.94,-1.933 -0.418,-2.2559 5.483,0.7588 8.303,11.9537 17.341,5.9649 6.971,-4.5766 -1.317,-15.8338 -1.293,-25.0254 -0.46,-5.2125 0.485,-6.2545 1.868,-2.0606 1.474,4.4698 3.318,6.4474 5.644,7.9532 16.377,10.5998 16.147,-1.6209 11.83,-20.4864 -1.06,-8.4727 0.151,-17.6947 -0.392,-27.9101 0.14,-2.8204 3.968,-16.2486 10.621,-13.9453 2.022,3.5364 4.604,8.2299 9.812,8.4199 4.899,-0.3166 3.576,-3.0454 4.364,-7.7637 0.156,-42.5863 9.455,-48.0884 15.007,-76.9082 1.36,-3.5127 -2.297,-4.6002 -5.605,-4.6933 z m 254.578,57.9707 v 0 c -0.404,-0.01 -0.818,-2e-4 -1.24,0.01 -4.07,0.209 -5.966,0.9802 -18.041,7.3262 -3.52,1.85 -4.291,4.1271 -2.385,7.0351 1.109,1.692 1.065,1.7893 -2.182,5.3613 -2.178,2.397 -3.053,4.896 -6.955,3.084 -4.804,-1.666 -11.006,-2.8106 -14.072,2.2774 -3.099,7.941 -11.393,12.4087 -18.504,18.9257 -3.124,1.67 -3.249,6.6279 -0.244,9.6329 0.424,0.425 2.246,0.9965 4.051,1.2675 4.792,1.309 1.583,2.0941 -2.711,1.9121 -3.16,-0.121 -8.528,-0.4122 -6.719,-6.1562 1.383,-4.175 -0.35,-9.903 -4.158,-11.168 -3.308,-1.472 -7.534,-2.5019 -7.42,-5.6679 2.306,-2.917 0.781,-9.1272 -2.412,-9.8262 -1.037,-0.227 -2.306,-0.5431 -2.819,-0.7051 -1.378,-0.433 -6.42,1.1497 -7.998,2.5117 -5.448,2.412 -10.8,2.3289 -15.277,6.9199 -0.184,0.704 -0.576,1.2774 -0.869,1.2774 -2.134,0 -0.02,6.1022 2.797,8.0762 1.47,1.029 1.462,1.0474 -1.358,3.5214 -2.2,1.932 -2.956,3.1732 -3.386,5.5762 -0.972,5.78 -3.45,15.5109 9.375,15.8399 2.493,0.746 2.88,1.1211 2.88,2.7871 0,1.058 -0.403,2.3065 -0.898,2.7695 -1.265,1.181 -0.433,5.9908 1.508,8.7168 0.85,1.194 1.828,2.1699 2.172,2.1699 -0.67,4.593 -3.065,7.5892 1.455,12.1992 8.108,8.12 1.594,1.9221 -7.24,4.9571 -0.964,0.964 -2.493,0.8879 -2.493,-0.1231 2.05,-3.278 4.146,-4.0564 3.834,-8.3164 -0.528,-3.524 -1.739,-4.8544 -5.556,-6.1054 -2.766,-0.905 -3.389,-2.0751 -1.334,-2.5 5.185,-3.4301 6.513,-8.1838 1.91,-13.0918 -2.989,-1.362 -15.158,-3.9873 -21.1,-1.7793 -6.678,2.523 -17.288,7.8636 -22.838,18.5976 -3.592,3.517 -2.087,9.3408 2.84,11.0098 1.512,0.512 3.6,0.9414 4.639,0.9414 2.56,1.264 1.304,1.9783 0.666,4.8183 0.04,1.37 0.911,2.9861 2.613,4.8301 2.329,2.522 2.448,2.8276 1.317,3.4336 -2.622,0.584 -3.875,-0.1811 -6.164,-2.2851 -2.193,-0.574 -7.101,0.306 -8.362,1.5 -4.597,4.335 -10.269,9.9109 -13.605,16.9179 -4.172,8.344 -2.752,16.3055 10.588,12.3535 3.408,-1.811 5.553,-2.3103 3.699,-0.8593 -2.537,3.955 -1.086,8.9631 3.885,10.9531 3.146,1.222 4.365,1.2419 8.111,0.1289 0.755,-0.224 1.199,0.01 1.199,0.6328 0,0.98 -2.755,1.8516 -5.863,1.8516 -8.05,4.846 -8.15,16.2753 5.406,16.4843 8.532,1.2663 16.36,0.4646 24.272,-1.1953 -1.243,3.6514 -2.288,7.3881 -4.897,11.3946 -2.833,4.3783 -3.592,5.0442 -4.359,3.8027 -8.396,-4.1815 -16.274,-6.7039 -25.502,-5.4473 -10.09,2.3084 -8.895,11.7219 -0.653,15.3711 6.403,2.8396 12.931,5.4723 19.286,8.1582 -1.622,5.9217 -10.033,70.3966 7.105,91.9981 19.443,24.5059 58.992,43.5926 115.861,12.7793 24.817,-13.4463 49.087,-42.2942 60.217,-74.3926 5.894,4.0295 12.844,6.1821 16.104,4.8262 2.007,-1.076 2.546,-1.9461 3.914,0.1699 0.722,0.863 1.334,2.2178 1.334,3.0098 3.254,8.143 9.84,9.5186 18.037,4.1836 1.014,-1.014 2.117,-1.8438 2.451,-1.8438 13.792,-7.44 10.024,-14.9972 8.455,-23.0762 -0.102,-2.209 -0.461,-4.532 -0.799,-5.164 -0.995,-1.858 -6.758,-4.9048 -8.609,-4.5508 -0.908,0.174 -9.943,-2.1965 -10.559,-2.6465 -0.975,-0.714 7.053,1.0963 9.676,-0.4707 6.161,-9.283 7.153,-7.4446 11.16,-10.4746 0.59,-1.536 3.363,-2.4613 4.211,-1.4063 0.901,1.122 2.875,2.1488 6.588,3.4278 2.891,0.997 3.221,0.9651 7.315,-0.6719 3.036,-1.215 4.194,-2.5397 6.216,0.4473 7.432,8.207 19.444,-3.8207 25.659,-10.9727 -2.362,-9.381 7.259,-21.689 -4.364,-23.623 -4.211,-1.773 -15.164,6.2958 -16.588,1.7168 -2.13,-6.849 -2.816,-21.2033 4.174,-20.0723 8.452,-2.318 11.817,-6.5762 10.953,-13.8652 -1.442,-7.8 -5.712,-7.6255 -14.193,-9.6075 -1.322,0.07 -3.004,-0.3451 -3.738,-0.9121 -1.31,-1.021 -1.309,-1.0477 0.04,-2.3047 11.237,-5.641 30.833,-6.4758 17.545,-27.4668 -3.371,-3.552 -10.358,-2.9305 -15.465,-1.8945 -3.015,1.024 -8.682,0.9121 -8.682,-0.1699 0,-0.223 0.513,-1.7392 1.135,-3.3691 2.488,-6.964 -4.695,-13.2329 -11.998,-7.9649 -2.217,1.25 -4.898,1.698 -7.775,-0.543 -1.618,-1.618 -6.823,-1.7149 -11.26,-0.2089 -8.295,2.229 1.61,-5.4728 6.207,-5.3438 5.081,-0.349 10.979,-4.6092 11.33,-12.1992 -0.212,-6.571 -9.455,-10.6717 -14.211,-4.9317 -0.774,1.057 1.598,5.0288 -4.949,0.3848 -3.518,-2.496 -9.894,-0.07 -14.489,2.25 -3.624,2.37 -7.286,-0.3822 -2.291,-4.3242 2.925,-2.684 3.369,-2.8676 5.985,-2.4766 8.172,1.22 15.771,-0.3916 19.135,-4.0566 10.356,-9.335 5.346,-20.659 -5.436,-13.377 -1.929,2.075 -4.296,2.8116 -6.928,2.1446 -1.04,-0.263 -3.534,-0.7472 -5.543,-1.0762 -3.505,-0.575 -3.798,-0.4977 -7.213,1.8633 -1.959,1.354 -4.703,3.7369 -6.103,5.2949 -0.44,0.519 -0.641,0.7791 -0.807,0.9961 1.067,-1.448 5.302,-8.0938 1.108,-12.7988 -2.683,-2.683 -5.969,-3.641 -9.188,-3.127 -2.845,0.455 -5.396,2.8638 -5.396,5.0918 -0.937,3.809 -1.952,3.1372 -2.086,-0.8418 -0.692,-2.506 -1.566,-3.1165 -6.842,-4.7695 -4.902,-1.912 -8.8,-14.3438 -17.924,-14.3438 -6.934,0.3 -15.095,-1.3715 -24.322,7.9805 -3.075,3.117 -9.296,3.079 -10.098,2.584 -0.974,-0.604 -0.586,-2.1497 0.653,-2.5977 5.13,-2.57 11.026,-4.8534 13.794,-10.2734 2.541,-4.974 -1.343,-8.8668 -7.394,-9.0488 z m -30.195,34.8164 c 2.149,0.06 4.878,1.6626 7.916,1.3886 3.934,-0.143 4.242,-0.05 4.629,1.4961 0.234,0.938 -0.07,2.6517 -0.7,3.9707 -1.316,2.747 -5.151,9.0432 -5.808,9.5332 -2.166,3.81 -4.376,7.0604 -7.897,1.3184 0.809,-4.355 -2.395,-8.8352 -6.332,-8.8652 -2.563,-0.515 -5.079,-0.6507 -2.052,-3.1387 2.646,-1.723 5.623,-3.2382 8.298,-5.1172 0.577,-0.451 1.23,-0.6049 1.946,-0.5859 z m -220.264,0.1894 c -4.228,0.1441 -9.199,1.4448 -15.201,4.0528 -19.71,10.1004 -17.887,33.6166 9.453,18.0312 3.216,-1.8335 10.769,-9.3065 7.93,3.3125 -0.852,3.8777 -7.676,10.9531 -8.703,10.9531 -16.337,15.7029 -26.97,26.8283 -41.389,44.084 -14.958,22.5797 -12.432,27.7256 -13.793,59.6055 0.299,20.5838 0.202,43.9114 2.476,65.4551 2.542,46.5771 9.288,91.2846 31.932,130.666 22.46,37.5007 65.113,60.6156 100.262,45.5937 12.231,-3.0141 19.123,-13.0411 26.933,-20.6015 0.1,0 0.05,5.7934 -0.107,12.875 -0.724,34.713 4.788,84.2153 10.537,129.6132 0.915,8.026 1.629,17.5025 5.883,25.0762 12.512,13.4506 19.543,-7.335 18.082,-16.4101 0.113,-4.7668 -2.729,-10.0334 -2.992,-15.1875 -7.848,-34.7705 -9.411,-76.3933 -9.649,-115.4434 -0.03,-7.6333 -0.612,-44.7063 10.723,-51.8008 40.952,-24.9444 98.738,-32.6733 136.418,-3.373 19.63,15.2643 17.222,69.8863 19.287,96.7988 -0.491,32.8428 -0.399,41.597 0.48,46.3535 1.462,7.9141 9.735,34.4761 22.368,22.3477 0.806,-1.9097 0.964,-6.4764 0.888,-23.5157 -0.182,-45.0072 11.994,-111.19 -24.857,-152.7617 -15.771,-16.822 -51.901,-23.0468 -80.281,-22.0801 -49.287,2.6176 -86.315,13.8796 -113.659,50.5235 -77.923,51.7775 -124.11,-31.9559 -131.339,-116.5762 -0.199,-31.8373 -6.655,-70.688 -2.299,-106.6621 1.581,-13.0511 9.887,-30.4244 28.346,-49.5586 2.665,-2.8325 5.549,-5.9799 6.406,-6.9941 11.675,-12.6821 33.469,-28.7467 26.021,-50.1348 -5.153,-9.2793 -10.854,-14.5596 -20.156,-14.2422 z m 314.799,9.8028 c 0.105,0.02 0.162,0.1 0.162,0.25 -0.01,0.546 -1.095,2.0612 -2.406,3.3652 -1.31,1.304 -2.381,2.6245 -2.381,2.9355 0,0.311 -0.769,0.8569 -1.709,1.2149 -0.94,0.357 -2.565,1.8466 -3.606,3.3086 -2.239,3.144 -4.199,4.2298 -6.269,3.4648 -1.445,-0.535 -1.463,-0.6451 -0.445,-3.0801 0.58,-1.388 1.126,-3.5298 1.216,-4.7578 0.09,-1.228 0.325,-2.1366 0.518,-2.0176 0.193,0.118 2.614,-0.03 5.385,-0.3378 4.394,-0.482 5.336,-0.8414 7.377,-2.8204 1.071,-1.037 1.84,-1.5763 2.158,-1.5253 z m -87.58,84.5878 c 15.478,-0.038 29.56,5.6553 39.459,16.7071 0.568,1.6518 1.875,3.1862 3.574,4.4804 1.854,2.6189 3.507,5.4718 4.93,8.5606 1.496,2.7189 2.887,5.4063 4.136,8.1621 -0.152,0.5552 -0.286,1.0871 -0.369,1.5586 -1.676,5.4518 -0.353,8.5652 4.457,10.1973 0.118,0.4918 0.246,0.9736 0.354,1.4765 4.473,18.297 2.296,41.1585 -6.606,58.3399 -11.303,21.024 -28.556,38.2394 -49.443,54.7695 -12.524,9.9126 -66.702,15.4936 -82.957,-4.4863 -12.919,-15.8794 -10.928,-34.4716 -11.033,-50.9395 0.631,-9.6378 2.388,-22.0254 3.459,-24.3769 0.516,-1.1329 1.031,-2.9841 1.144,-4.1172 0.176,-1.7365 0.474,-2.0361 1.895,-1.877 8.941,2.6477 22.471,13.0619 25.437,-3.2051 -0.586,-10.4916 -13.707,-11.2393 -19.916,-15.9335 20.058,-39.2598 51.769,-58.3317 79.467,-59.2793 0.673,-0.023 1.343,-0.035 2.012,-0.037 z m 19.064,39.4981 c -5.547,-0.014 -11.166,2.2969 -12.281,9.2637 -1.314,8.2137 1.114,8.6943 2.426,10.6797 7.703,11.652 20.368,8.7163 20.634,-6.9883 0.07,-3.8466 -3.46,-11.7364 -5.423,-12.25 -1.664,-0.4352 -3.507,-0.7002 -5.356,-0.7051 z m -51.332,0.1816 c -6.607,-0.3104 -13.614,6.117 -12.908,16.0567 0.422,0.7063 0.736,3.3039 1.348,3.9101 6.171,11.4139 25.457,6.1718 21.269,-11.4258 -1.923,-5.74 -5.744,-8.3547 -9.709,-8.541 z m 65.299,49.7676 c -2.306,0.079 -5.203,0.6893 -8.732,1.8145 -1.21,0.235 -3.04,1.0932 -4.071,1.9043 -20.354,15.8193 -37.449,33.1967 -68.67,32.9257 -19.555,-0.1698 -8.446,19.9573 11.838,15.8555 11.658,-2.3574 24.702,-7.47 35.971,-12.5625 0.826,0.017 0.795,0.1615 -0.16,0.7188 -3.798,4.2935 -5.752,9.6186 -0.35,13.9648 12.612,10.1458 37.543,-24.7939 40.936,-43.8125 1.265,-7.0891 -0.429,-10.6265 -5.807,-10.8086 v 0 c -0.305,-0.01 -0.624,-0.011 -0.953,0 z" fill="#00B894" transform="translate(-181.10273,87.635543) matrix(0.26458333,0,0,0.26458333,-8985.0297,1549.1865) translate(-3313.5291,-2437.8203)"/>
</svg>