<?xml version="1.0" ?><svg height="162.30707mm" viewBox="0 0 200.20122 162.30707" width="200.20122mm" xmlns="http://www.w3.org/2000/svg">
    <path d="m 18645.569,-367.35737 513.196,1.26757 6.137,52.6053 -177.672,292.8151 -127.067,0.996 -15.896,246.8194 -126.06,1.9919 4.125,-257.4129 -291.358,-6.338 -2.616,-26.2574 114.088,-171.4878 z" fill="#FFFFFF" transform="translate(-231.00648,95.51663) matrix(0.26458333,0,0,0.26458333,-4641.9532,4.0305197)"/>
    <path d="m 18662.691,233.1313 c 0,-5.6433 15.829,-12.3081 35.395,-14.9036 l 15.178,-2.0135 0.455,-89.9306 c 0.249,-49.461695 1.32,-101.695194 2.375,-116.074694 1.075,-14.6156004 0.717,-26.8901 -0.814,-27.8362 -3.763,-2.3256 -132.952,-7.855 -218.881,-9.3683 -64.474,-1.1356 -71.106,-1.743 -74.99,-6.8707 -8.261,-10.9053 -2.587,-36.3101 8.745,-39.1543 3.59,-0.9008 9.377,-6.6947 12.862,-12.8754 41.676,-73.906506 69.03,-117.087506 109.225,-172.430206 51.377,-70.7373 71.322,-97.4356 78.241,-104.7268 6.809,-7.1753 10.864,-8.3276 37.368,-10.6183 16.35,-1.4135 134.085,-2.5699 261.631,-2.5699 h 220.534 c 9.557,0.48069 16.981,3.58432 18.53,13.9133 3.342,22.28363 10.486,42.4698 0.478,61.9315 -8.786,17.082 -78.134,130.9435 -116.739,191.66811 -13.979,21.988296 -29.07,46.561996 -33.539,54.607996 -8.786,15.8202 -21.972,34.515 -26.871,38.0942 -1.679,1.2259 -29.065,2.2498 -60.859,2.2753 l -57.807,0.048 -3.61,67.5016 c -1.987,37.125899 -3.955,87.979694 -4.375,113.008394 l -0.762,45.5067 21.224,1.517 c 18.627,1.331 21.336,2.2919 22.129,7.8498 2.066,14.453 -1.377,14.8696 -127.273,15.399 -101.686,0.4275 -117.85,-0.1137 -117.85,-3.947 z m 175.029,-19.3028 1.907,-62.9507 c 1.277,-42.2282 4.357,-79.416494 9.353,-112.969294 4.096,-27.5099 6.951,-50.5127 6.345,-51.1175 -0.603,-0.6046 -28.835,-1.8403 -62.737,-2.7463 l -61.637,-1.6462 -1.071,117.691994 -1.069,117.6917 16.239,-1.95 c 32.773,-2.40813 58.963,-1.97989 92.67,-2.0037 z m 160.09,-272.280994 c 16.019,-27.886664 127.164,-222.506706 149.078,-251.601406 6.827,-9.0604 10.036,-25.2578 5.001,-25.2094 -3.736,0.036 -39.862,57.5843 -82.833,131.9477 -22.176,38.3774 -50.134,84.79421 -62.131,103.14871 -11.993,18.354196 -24.013,37.678596 -26.708,42.942796 -4.853,9.4718 -5.213,9.5947 -34.554,11.8111 -27.8,2.0999 -254.827,-2.3641 -342.13,-6.7273 -30.611,-1.5296 -37.402,-2.5921 -30.339,-4.7449 5.299,-1.6154 84.509,-2.1608 189.611,-1.3059 99.28,0.8075 186.829,0.5673 194.551,-0.5342 12.072,-1.722 15.489,-3.9156 24.373,-15.6546 12.403,-16.3889 30.916,-48.434496 58.706,-101.631706 51.994,-99.5248 94.692,-171.7237 104.044,-175.9251 3.671,-1.6498 6.213,-4.3802 5.65,-6.0677 -0.675,-2.0264 -86.115,-3.3371 -251.689,-3.8612 l -242.116,-1.15528 c -5.474,-0.0261 -9.4,2.52637 -12.192,7.22298 -4.846,8.1509 -47.291,66.8966 -67.071,91.6089 -32.261,40.3055 -138.87,196.017006 -138.87,202.832706 0,1.5464 22.339,1.8626 52.333,0.7409 29.433,-1.101 56.316,-0.7407 61.434,0.8232 8.949,2.7345 8.848,2.8257 -6.067,5.4733 -8.342,1.4808 -35.308,2.6924 -59.919,2.6924 -43.741,0 -44.75,0.1456 -44.75,6.5098 v 6.5097 l 108.458,0.3395 c 59.651,0.1866 143.954,1.4666 187.337,2.8444 43.383,1.3774 117.216,2.7322 164.074,3.0104 l 74.331,-0.309101 c 8.92,-0.03709 16.621,-15.691676 22.388,-25.730699 z m -244.107,-16.0751 c -22.524,-1.1774 -93.107,-3.2108 -156.849,-4.5188 -63.742,-1.3076 -117.473,-3.3526 -119.401,-4.5445 -5.106,-3.1556 -1.919,-10.5916 20.083,-46.876006 38.052,-62.7513 88.019,-134.9779 124.739,-180.3096 24.084,-29.731 35.229,-39.1024 41.034,-34.5069 5.623,4.4497 102.211,7.7682 250.16,8.5951 70.35,0.3932 129.396,1.6331 131.211,2.7549 5.164,3.1912 3.935,10.1356 -4.262,24.1253 l -7.564,12.9049 8.322,-1.1802 c 4.577,-0.6494 11,0.806 14.276,3.234 5.064,3.7552 5.347,5.1431 1.902,9.2933 -5.352,6.4481 -23.39,6.3992 -27.012,-0.073 -2.93,-5.2377 -10.435,6.4454 -56.763,88.3812 -11.322,20.023 -25.152,43.2131 -30.734,51.5338 -5.58,8.3205 -10.147,16.0818 -10.147,17.247 0,1.1655 12.096,1.3353 26.882,0.3773 24.97,-1.6178 27.362,-1.2616 33.633,5.01051 8.873,8.8725 6.402,19.6894 -7.486,32.772196 -10.073,9.4885 -11.412,9.859 -35.541,9.841 -15.498,-0.023 -28.165,-1.6325 -33.172,-4.2443 -7.263,-3.7892 -8.755,-3.6144 -14.451,1.6902 -13.504,12.5803 -10.923,1.1259 8.007,-35.532496 10.831,-20.98111 19.105,-38.73791 18.385,-39.45911 -1.805,-1.8035 -121.08,58.523206 -126.603,64.031606 -3.896,3.8867 0.02,4.4366 31.855,4.4728 19.965,0.025 39.369,0.8646 43.122,1.8708 8.379,2.2449 8.865,8.9196 0.96,13.15 -6.38,3.4135 -58.839,3.3963 -124.586,-0.041 z m -168.838,-19.9924 79.343,-1.9708 44.293,-26.705896 c 44.526,-26.84621 55.148,-32.83941 149.869,-84.57361 28.367,-15.4925 52.938,-29.2294 54.609,-30.5259 1.667,-1.2967 9.175,-5.6476 16.684,-9.6685 61.336,-32.8466 76.521,-43.3034 88.6,-61.0086 6.632,-9.723 11.594,-18.108 11.03,-18.6334 -0.568,-0.5257 -7.858,0.1798 -16.2,1.5697 -8.342,1.3891 -47.613,2.6068 -87.266,2.7063 l -72.094,0.182 -38.637,19.6313 c -82.854,42.0973 -118.642,62.0204 -200.946,111.8701 -49.237,29.8226 -88.437,51.8378 -78.225,43.934 8.091,-6.2629 121.404,-76.6117 158.62,-98.4781 18.355,-10.784 58.376,-32.1697 88.935,-47.5238 l 55.565,-27.9179 -23.709,-2.2078 c -23.424,-2.1812 -23.983,-2.0672 -46.463,9.4963 -99.514,51.189 -134.437,69.6164 -150.454,79.3857 -22.484,13.714 -37.639,21.6707 -37.639,19.7587 0,-3.7159 83.707,-52.6406 137.179,-80.1779 32.902,-16.9431 58.841,-30.8253 57.642,-30.8492 -1.197,-0.025 -26.067,-2.0492 -55.268,-4.5004 l -53.092,-4.4572 -8.567,9.8098 c -4.712,5.3952 -23.823,30.297 -42.472,55.3367 -18.649,25.0401 -36.973,49.6137 -40.718,54.6082 -25.149,33.5176 -44.023,60.7869 -46.393,67.0236 -1.525,4.0059 -3.829,7.2927 -5.122,7.3043 -1.292,0.023 -5.727,5.1309 -9.856,11.3766 -4.127,6.24561 -11.979,16.95741 -17.444,23.80341 -12.32,15.431796 -12.399,17.623896 -0.541,15.252496 5.168,-1.0334 45.099,-2.7661 88.737,-3.8502 z m 184.448,-9.502196 c 12.273,-6.2918 44.84,-24.53341 72.371,-40.53671 96.722,-56.222 107.754,-62.4543 114.075,-64.4515 3.509,-1.1076 10.237,-9.1532 14.953,-17.879 16.137,-29.8631 20.276,-37.1055 23.416,-40.9673 6.755,-8.3094 -1.212,-6.9227 -18.022,3.1368 -19.78,11.837 -81.998,46.0471 -172.345,94.7626 -60.174,32.4467 -112.95,62.22471 -124.129,70.037706 -5.066,3.5408 -2.147,4.1916 22.753,5.0699 15.71,0.5543 32.177,1.2913 36.59,1.6376 4.414,0.3463 18.065,-4.5184 30.338,-10.810096 z m 49.618,-3.7443 c 31.044,-19.21611 86.011,-47.44051 100.824,-51.77011 14.385,-4.2042 17.386,-7.0838 29.525,-28.3336 10.607,-18.5667 10.878,-18.6544 -45.36,14.6143 -42.447,25.1096 -93.054,53.43851 -127.461,71.35101 l -18.203,9.476196 19.719,-1.096 c 16.961,-0.9429 22.688,-2.9341 40.956,-14.241796 z m 152.867,0.9185 c 8.883,-9.3328 5.079,-12.9225 -13.773,-12.9922 -11.237,-0.041 -13.28,1.1168 -18.96,10.7453 -3.503,5.9354 -6.367,11.524396 -6.367,12.419696 0,0.8956 7.167,0.6855 15.926,-0.4669 11.251,-1.4794 18.057,-4.330596 23.174,-9.705896 z m -39.1,-11.8073 c 0,-5.726 -4.934,-2.9541 -9.315,5.2347 -2.982,5.5717 -2.709,5.8222 3.016,2.7582 3.464,-1.8534 6.299,-5.4505 6.299,-7.9929 z m 108.205,-130.67261 c -4.684,-4.6841 -1.573,-13.4679 5.759,-16.2552 12.458,-4.7375 16.487,-3.6336 16.487,4.519 0,9.9344 -15.743,18.2398 -22.246,11.7362 z m 27.024,-26.2569 c -8.529,-6.2372 -3.694,-16.5866 8.848,-18.9394 11.964,-2.2445 16.713,-0.088 16.713,7.5873 0,10.4934 -16.632,17.8802 -25.561,11.3521 z m -5.788,-34.4188 c -7.178,-7.1767 2.515,-19.2138 15.468,-19.2138 6.456,0 14.675,12.7911 11.51,17.9134 -2.219,3.5886 -23.657,4.6222 -26.978,1.3004 z" fill="#00B894" transform="translate(-231.00648,95.51663) matrix(0.26458333,0,0,0.26458333,-4641.9532,4.0305197)"/>
</svg>