<?xml version="1.0" ?><svg height="178.64265mm" viewBox="0 0 128.05066 178.64265" width="128.05066mm" xmlns="http://www.w3.org/2000/svg">
    <path d="m 17267.279,121.1343 c 0,0 148.255,-460.1324 156.623,-478.0897 8.367,-17.9573 3.969,-30.6047 -38.512,-38.0386 -42.482,-7.434 -258.214,-39.5834 -270.551,-41.0316 -12.337,-1.4481 -31.754,2.124 -38.19,19.5986 -6.437,17.4746 -116.609,393.226802 -119.935,427.789902 -3.326,34.563 8.368,58.216498 34.972,64.781498 26.605,6.565 275.593,44.9899 275.593,44.9899 z" fill="#FFFFFF" transform="translate(-100.77225,80.249901) matrix(0.26458333,0,0,0.26458333,-4384.0885,36.28623)"/>
    <path d="m 17219.948,232.50606 c -7.602,-2.7674 -9.135,-5.2577 -12.405,-20.1492 -2.337,-10.6523 -14.533,-19.9558 -36.388,-27.7609 -29.56,-10.5564 -50.189,-21.4203 -61.52,-32.398 -10.675,-10.3397 -20.173,-28.036 -22.465,-41.8582 -0.78,-4.692 -2.08,-8.9406 -2.89,-9.4414 -1.482,-0.916301 -79.769,-16.094 -100.833,-19.5488 -9.125,-1.4967 -12.865,-3.5874 -19.379,-10.8316 -10.321,-11.477 -13.413,-22.1051 -13.413,-46.0922 0,-18.8347996 1.01,-24.62799961 22.597,-129.4479 8.727,-42.367 22.222,-94.3746 38.733,-149.2618 14.897,-49.5148 59.3,-170.6629 65.243,-178.0024 5.922,-7.313 37.903,-10.0709 78.953,-6.8087 40.513,3.2195 128.281,12.7256 161.975,17.5435 32.036,4.5808 84.178,18.0276 92.066,23.7428 3.37,2.4419 7.742,4.4399 9.714,4.4399 1.973,0 6.085,2.498 9.137,5.5511 4.438,4.436 5.553,7.8576 5.553,17.0342 0,6.3157 -1.508,15.0892 -3.349,19.4967 -1.843,4.4075 -8.415,27.0185 -14.607,50.2467 -6.194,23.2282 -17.585,65.6401 -25.315,94.2486 l -14.058,52.0155 -0.703,44.1001 c -1.081,67.6052 -6.739,98.5681 -32.16,175.9927 -17.623,53.6701 -26.193,70.8195 -45.653,91.3491 l -15.423,16.2718 1.327,14.2149 c 1.204,12.8826 0.76,15.0347 -4.734,22.9623 -10.07,14.5302 -24.988,23.7549 -39.687,24.5399 -6.914,0.3691 -16.055,-0.5979 -20.316,-2.1487 z m 23.445,-200.3379 c -0.354,-0.42 -19.295,-3.1434 -42.094,-6.052 -22.798,-2.9085 -57.225,-8.3441 -76.505,-12.079 -19.279,-3.735 -45.277,-7.9091996 -57.77,-9.2758996 -12.495,-1.3667 -33.866,-4.30270001 -47.493,-6.5244 l -24.775,-4.0394 0.25,-15.6867004 c 0.295,-18.3929 11.288,-64.3861 28.072,-117.456 6.295,-19.9016 18.589,-59.5917 27.32,-88.2002 20.798,-68.1499 54.948,-169.4709 59.417,-176.2932 6.296,-9.6078 31.963,-10.1936 94.133,-2.1484 102.029,13.203 171.298,26.465 179.128,34.2948 7.455,7.4561 7.431,18.4399 -0.09,42.6884 -3.81,12.2674 -12.057,40.2094 -18.33,62.0934 -6.273,21.8839 -15.605,50.8882 -20.737,64.454 -5.133,13.5657 -12.185,33.0135 -15.669,43.2174 l -6.339,18.5523 4.517,23.2862 c 2.482,12.8074 5.064,24.8127 5.737,26.6784 1.256,3.4843 2.905,-1.8253 28.786,-92.7232 30.037,-105.4981 33.328,-116.7926 40.195,-137.9541 3.834,-11.8166 8.868,-25.2605 11.183,-29.8754 4.813,-9.5926 5.566,-25.021 1.384,-28.3798 -1.555,-1.2488 -6.39,-2.7869 -10.743,-3.418 -4.353,-0.6312 -21.716,-4.7504 -38.581,-9.1538 -31.981,-8.3494 -46.056,-10.7823 -126.511,-21.8665 -26.745,-3.6843 -58.292,-8.1552 -70.11,-9.9352 -41.475,-6.248 -53.203,-6.7094 -64.162,-2.5243 -5.533,2.1133 -10.582,5.5201 -11.222,7.5707 -1.816,5.8313 -27.086,71.516 -38.5,100.076 -20.214,50.5731 -47.509,144.3655 -67.065,230.4452 -3.815,16.792 -10.173,44.2697 -14.129,61.0617 -9.131,38.7458 -9.983,67.7491 -2.471,84.0044 5.598,12.1128 2.849,11.2799 54.811,16.6139 17.891,1.8367 48.423,5.8605 67.847,8.9419 19.422,3.0813 56.178,7.2375 81.678,9.2359 25.497,1.9985 47.377,3.9931 48.622,4.4326 1.243,0.4394 7.04,0.8794 12.881,0.9776 13.14,1.812359 -7.567,-24.186495 7.335,-65.0393 z m -158.5,26.909 c -6.51,-2.7864 -12.076,-11.1033 -10.479,-15.6625 3.147,-8.992 12.528,-18.3948 20.834,-20.8832 10.741,-3.2182 17.995,-1.5921 27.109,6.0778 8.253,6.9438 9.381,17.7925 2.708,26.0329 -3.582,4.4244 -6.692,5.3487 -19.787,5.8794 -8.546,0.3464 -17.719,-0.3036 -20.385,-1.4444 z m 27.942,-15.1149 c 0.459,-1.3964 -1.484,-3.1456 -4.319,-3.8869 -5.859,-1.5322 -22.168,2.71 -22.168,5.7659 0,2.9371 25.496,1.1283 26.487,-1.879 z m 139.961,-29.688 c 0.67,-2.1767 4.156,-11.0815996 7.749,-19.7884996 6.341,-15.3642004 6.465,-16.3974004 4.171,-35.0539004 -6.359,-51.731 7.924,-134.6052 25.605,-148.5649 1.626,-1.2842 5.699,-2.9892 9.052,-3.789 4.925,-1.1752 7.35,-0.1087 12.647,5.5587 l 6.555,7.0129 12.505,-35.836 c 23.267,-66.6716 45.187,-135.899 44.38,-140.1558 -0.536,-2.8174 -3.069,-4.4532 -7.57,-4.8886 -3.721,-0.3598 -22.54,-3.6286 -41.82,-7.2639 -19.279,-3.6353 -44.72,-8.1466 -56.538,-10.025 -11.817,-1.8785 -37.258,-5.9279 -56.537,-8.9987 -47.167,-7.5127 -76.42,-10.9244 -85.783,-10.0048 -7.277,0.7149 -7.922,1.4629 -10.402,12.0698 -4.424,18.9183 -61.868,201.8365 -80.254,255.5543 -8.666,25.3194 -26.186,83.2453 -32.716,108.1689 -2.088,7.9633 -2.174,11.13 -0.32,11.6885 1.399,0.4213004 22.388,1.8262004 46.642,3.1219004 27.059,1.4454 59.832,4.9179 84.809,8.9854 22.389,3.6463 51.394,7.8661997 64.453,9.3776996 13.061,1.5114 28.326,3.5434 33.924,4.5155 15.851,2.7528 18.147,2.554 19.448,-1.6845 z" fill="#00B894" transform="translate(-100.77225,80.249901) matrix(0.26458333,0,0,0.26458333,-4384.0885,36.28623)"/>
</svg>