<?xml version="1.0" ?><svg height="192.80357mm" viewBox="0 0 151.19867 192.80357" width="151.19867mm" xmlns="http://www.w3.org/2000/svg">
    <path d="m 18250.684,2072.0059 c -37.209,-0.1891 -79.93,15.1382 -102.258,62.0253 -39.694,83.355 -12.378,145.4547 27.459,190.7813 37.418,36.6198 87.781,2.8165 148.105,-44.3027 60.324,-47.1192 14.372,-161.4588 -8.678,-187.4512 -10.083,-11.3717 -35.688,-20.9057 -64.628,-21.0527 z m 242.755,274.5742 -157.212,110.5 47.804,98.3359 168.451,-132.1387 z m -380.201,1.5742 c -21.334,0.3153 -43.391,8.9174 -55.156,40.6797 -17.926,48.3996 -22.907,193.7267 -14.086,233.9316 0,0 83.087,33.5465 111.115,32.9063 28.028,-0.6402 110.549,-6.1465 103.151,-26.377 -7.399,-20.2306 -12.664,-18.4377 -21.627,-43.9179 -8.963,-25.4802 -12.946,-128.6815 -14.369,-157.875 -1.422,-29.1934 -50.935,-68.6302 -77.682,-75.1602 -9.195,-2.2447 -20.171,-4.3527 -31.346,-4.1875 z" fill="#FFFFFF" transform="translate(206.37914,94.133932) matrix(0.26458333,0,0,0.26458333,-4099.0598,41.02735) translate(-3313.5291,-2437.8203)"/>
    <path d="m 14929.039,185.98606 c -4.806,-5.095 -13.545,-10.8202 -19.421,-12.723 -28.93,-9.3662 -45.354,-21.4356 -63.948,-46.9921 -31.852,-43.781999 -44.933,-75.420699 -47.063,-113.830499 -1.322,-23.8455 1.277,-35.5881 6.575,-29.7047 1.327,1.4739 4.518,10.5846003 7.089,20.2460003 9.472,35.5747997 28.164,69.4922997 57.839,104.9507987 12.079,14.4327 31.647,29.5992 34.506,26.7422 0.835,-0.8355 -0.58,-14.0867 -3.145,-29.4471 -2.735,-16.390999 -4.916,-45.831599 -5.279,-71.268599 -0.548,-38.3728997 -1.287,-44.655 -6.468,-54.8073 -11.243,-22.0396 -25.429,-33.4075 -57.328,-45.9398 -25.24,-9.916 -43.127,-12.4169 -54.583,-7.631 -28.956,12.0985 -42.743,79.6547348 -43.501,205.439709 -0.186,30.90397 1.234,85.56593 -15.063,46.27069 -6.48,-15.6267 -6.725,-18.4203 -6.755,-77.0205 0,-38.080699 1.354,-69.895799 3.677,-85.127999 10.284,-67.454 31.785,-106.5462 63.3,-115.0917 32.88,-8.916001 97.78,14.7013 121.795,44.3225 19.112,23.57 21.362,31.2055 23.654,80.2278 2.998,64.0801 10.346,111.867599 18.179,118.233399 6.251,5.0777 27.314,4.0726 48.108,-2.2958 21.184,-6.4881 66.361,-26.7789 65.226,-29.2966 -0.418,-0.9244 -5.212,-10.7638 -10.653,-21.865399 -19.928,-40.6513 -30.273,-68.0114 -27.452,-72.6028 3.571,-5.8098 82.24,-66.2453 114.368,-87.8623 33.625,-22.6238 41.57,-26.3949 53.508,-25.3996 8.961,0.7472 11.415,2.8712 24.835,21.4957 8.191,11.3666 20.198,27.4669 26.684,35.7787 16.379,20.9901 14.934,27.543 -11.922,54.0518 -11.077,10.9332 -20.139,21.898 -20.139,24.3662 0,21.0202 -58.142,77.280899 -79.866,77.280899 -2.408,0 -25.235,10.5004 -50.728,23.3341 -57.117,28.7538 -75.529,35.7953 -100.018,38.2537 -17.486,1.755 -19.266,2.5018 -20.705,8.6765 -2.563,10.9838 -14.569,10.6214 -25.306,-0.7639 z m 149.609,-100.235399 c 0,-0.5542 -2.468,-6.5843 -5.484,-13.4004 -5.922,-13.3898 -9.838,-17.2948 -13.583,-13.5489 -3.652,3.6513 8.729,27.6873 14.336,27.8337 2.602,0.068 4.731,-0.3301 4.731,-0.8844 z m 22.376,-19.0528 c 2.114,-2.1151 4.591,-10.1486 5.505,-17.8521 1.855,-15.6639 5.428,-21.5417 13.097,-21.5417 3.5,0 6.709,3.5907 9.884,11.0625 l 4.697,11.0624 31,-22.1625 c 35.22,-25.1817997 50.843,-39.2285 52.944,-47.6029 0.819,-3.2623 -1.154,-10.8952 -4.529,-17.5091 -8.086,-15.8505 -29.777,-40.1708 -35.863,-40.2128 -11.67,-0.081 -126.138,77.31420027 -126.138,85.2840003 0,1.7947 6.385,13.0257997 14.188,24.9578997 7.804,11.9321 16.26,25.4444 18.793,30.0274 4.996,9.0453 10.39,10.5188 16.422,4.4869 z m -52.105,-28.8423 c 0,-4.1521 -10.649,-18.659 -13.697,-18.659 -4.098,0 -2.896,5.3885 3.071,13.7709 5.683,7.9791 10.626,10.2534 10.626,4.8881 z m 212.16,-107.8156 c -2.599,-4.2043 16.915,-12.5507 20.639,-8.8275 5.458,5.458 0.411,11.505 -9.602,11.505 -5.16,0 -10.128,-1.2049 -11.037,-2.6775 z m -389.068,-24.663 c -30.757,-10.576101 -48.883,-30.646001 -59.696,-66.095901 -9.348,-30.6474 -10.623,-50.8725 -5.611,-88.9807 5.493,-41.754 15.801,-64.0306 41.871,-90.481 19.105,-19.385 50.458,-37.1609 70.147,-39.7711 28.32,-3.754 77.021,12.0547 97.138,31.5309 20.552,19.8982 36.655,70.722 36.841,116.2873 0.1,25.4412 -0.658,30.0531 -7.371,44.5909 -4.119,8.9181 -10.596,20.7231 -14.397,26.2333 l -6.911,10.0183 5.693,7.2365 c 7.201,9.1551 7.172,13.2706 -0.122,18.3809 -5.124,3.5889 -6.934,3.6048 -15.238,0.1345 -9.198,-3.8424 -9.694,-3.7176 -20.535,5.1583 -34.727,28.428601 -83.84,38.813901 -121.809,25.757801 z m 77.124,-33.910901 c 23.927,-11.2335 35.738,-21.5647 34.15,-29.8694 -1.511,-7.9109 5.08,-15.1937 12.093,-13.3599 6.599,1.7261 13.927,-6.2118 23.244,-25.1863 6.779,-13.8036 7.311,-17.3329 7.122,-47.345 -0.162,-27.0916 -1.23,-35.0989 -6.451,-48.6446 -13.149,-34.122 -23.281,-45.8866 -49.99,-58.0545 -44.731,-20.3778 -112.848,20.9426 -133.57,81.0255 -14.193,41.1543 -4.134,109.0698 19.557,132.031 21.843,21.1711 60.524,25.0469 93.845,9.4032 z m -73.215,-11.3194 c -28.643,-15.2348 -36.365,-63.4839 -14.351,-89.6464 11.685,-13.8867 16.13,-11.3855 40.954,23.0454 12.328,17.0963 27.203,34.9334 33.059,39.6382 12.513,10.0573 13.367,14.8553 3.317,18.6761 -16.466,6.2604 -29.083,-3.5258 -45.484,-35.2811 -12.984,-25.1391 -18.994,-30.6299 -24.814,-22.6695 -6.813,9.3176 -2.226,33.9472 8.137,43.6825 3.405,3.1988 13.401,8.0112 22.214,10.6943 13.484,5.55445 20.856,0.0459 10.029,10.8739 -7.432,7.4321 -20.228,7.8139 -33.061,0.9866 z m 118.05,-72.4621 c -6.574,-6.572 4.319,-27.6007 12.641,-24.4073 5.316,2.0406 6.173,18.023 1.23,22.9661 -3.533,3.5332 -11.004,4.3095 -13.871,1.4412 z m -29.836,-15.8086 c -4.689,-4.6875 -2.406,-16.87279 4.83,-22.87909 3.424,-2.841 7.14,-2.92138 10.402,1.32799 4.401,5.73212 3.185,11.17573 0.541,16.63322 -2.792,5.76315 -11.067,9.62498 -15.773,4.91788 z m 287.471,132.465501 c 6.978,-7.428701 16.041,-9.019661 16.215,-2.7976 0.132,4.711145 -3.899,8.995767 -18.616,12.897764 -10.27,0.907746 -2.146,-5.261139 2.401,-10.100164 z m -29.728,-14.262301 c 0,-4.9586 6.968,-16.6548 12.005,-20.1529 8.023,-5.5707 9.206,1.7422 2.551,15.765 -4.713,9.9353 -14.556,12.9019 -14.556,4.3879 z m -88.64,-263.2818 c -4.802,-4.8005 -3.947,-11.4977 2.172,-17.0355 4.475,-4.0499 6.588,-4.3675 12.162,-1.828 11.68,5.3221 7.568,22.1065 -5.417,22.1065 -3.121,0 -7.134,-1.4594 -8.917,-3.243 z m -53.063,-7.3733 c -8.974,-9.9144 2.931,-25.403 14.688,-19.1109 7.219,3.8639 7.333,17.6947 0.183,21.5247 -7.291,3.9018 -9.472,3.5477 -14.866,-2.4138 z m 78.646,-37.1274 c -4.563,-4.5638 -0.322,-14.8998 18.746,-45.6826 22.376,-36.1261 30.879,-45.9843 37.479,-43.4519 7.418,2.8466 7.754,9.8584 1.16,24.2527 -18.2,39.7423 -48.39,73.8758 -57.385,64.8818 z m -61.567,-12.6646 c -2.954,-6.4857 2.893,-33.7035 12.859,-59.8518 7.649,-20.0683 20.704,-27.3442 24.185,-13.4778 2.993,11.923 -6.817,61.6466 -14.521,73.6079 -5.464,8.4835 -18.605,8.3212 -22.523,-0.2783 z" fill="#00B894" transform="translate(206.37914,94.133932) matrix(0.26458333,0,0,0.26458333,-4099.0598,41.02735)"/>
</svg>