<?xml version="1.0" ?><svg height="295.21234mm" viewBox="0 0 206.80206 295.21234" width="206.80206mm" xmlns="http://www.w3.org/2000/svg">
    <path d="m 40500.332,10386.189 c -12.885,-0.223 -25.139,1.487 -34.105,5.252 -28.691,12.05 -49.375,50.366 -49.375,50.366 0,0 -57.807,4.655 -61.491,17.98 -2.834,18.489 18.56,17.022 42.717,18.807 24.157,1.786 97.124,-11.283 115.33,-9.307 18.206,1.977 42.362,13.961 55.043,15.555 12.68,1.594 6.942,-44.308 -2.125,-70.383 -6.234,-17.927 -37.647,-27.779 -65.994,-28.27 z m -410.443,3.932 c -1.801,-0.05 -3.669,-0.05 -5.606,0 -30.987,0.917 -55.166,45.112 -60.42,74.061 -5.254,28.949 -4.932,78.403 -24.5,102.093 -19.569,23.691 -8.256,13.124 13.725,13.365 21.981,0.242 44.068,-16.018 60.312,-32.326 l 1.868,-1.554 c -5.444,59.032 39.319,99.408 86.138,105.017 47.648,5.708 81.324,-22.761 97.901,-73.062 16.577,-50.303 -34.357,-126.424 -71.69,-132.799 -7,-1.196 -14.083,-1.979 -21.15,-2.024 -2.445,-0.01 -4.877,0.226 -7.313,0.401 -8.447,-12.381 -18.245,-26.409 -22.545,-31.221 -7.639,-8.549 -19.708,-21.168 -46.72,-21.957 z m 345.132,99.006 c -12.645,0.234 -15.317,7.039 -17.177,18.922 0.283,19.891 11.123,18.296 25.574,19.508 14.452,1.211 21.178,-7.076 22.312,-18.934 1.133,-11.859 -6.729,-17.279 -24.652,-19.191 -2.24,-0.239 -4.25,-0.339 -6.057,-0.305 z m 69.301,1.246 c -9.469,-0.03 -11.145,5.465 -12.521,15.955 -1.7,21.549 10.414,19.508 21.394,21.74 10.98,2.231 13.812,-7.332 13.743,-17.023 -0.07,-9.69 -1.558,-17.596 -16.506,-20.082 -2.335,-0.389 -4.357,-0.584 -6.11,-0.59 z m 11.494,95.809 c -19.354,-0.737 -60.784,8.058 -80.248,10.066 -22.244,2.295 -22.315,14.024 -29.328,32.322 0,0 -44.896,8.915 -86.408,23.387 -41.513,14.472 -104.988,32.449 -104.988,32.449 l 9.078,22.041 c -8.185,-14.715 -20.444,-23.543 -33.17,-25.224 -24.094,-3.182 -84.701,-0.676 -107.471,20.041 0,0 -30.025,53.711 -39.408,73.527 -9.383,19.817 -21.02,226.201 -3.629,288.803 17.39,62.602 86.202,47.402 148.381,22.519 62.18,-24.884 48.665,-76.34 33.902,-138.267 -14.763,-61.926 6.884,-142.318 10.887,-188.594 1.225,-14.163 -0.06,-26.644 -3.096,-37.27 l 6.842,16.614 95.474,-31.103 c -29.359,127.219 -26.651,197.832 -12.245,297.971 4.251,25.82 47.314,45.249 47.314,45.249 0,0 6.66,32.386 9.848,47.56 3.188,15.173 -10.059,57.762 -10.059,57.762 l 43.215,5.547 7.365,-99.84 70.135,-19.828 c 0,0 19.478,13.197 30.316,38.316 10.839,25.119 17.57,59.484 24.866,59.739 7.297,0.255 40.38,-20.595 38.396,-31.114 -1.983,-10.519 -26.131,-51.696 -41.787,-73.437 -15.655,-21.74 -17.355,-27.607 -15.584,-41.697 1.771,-14.089 -3.26,-38.379 -8.361,-62.733 -5.1,-24.354 -7.306,-103.442 -3.623,-124.545 3.684,-21.102 28.408,-90.402 28.408,-90.402 0,0 6.092,12.304 18.629,36.34 12.541,24.035 69.992,100.731 114.976,98.564 44.984,-2.168 40.732,-92.38 39.741,-118.711 -0.992,-26.33 -11.193,-62.86 -34.5,-60.82 -23.306,2.04 -13.741,38.826 -17.85,69.875 -4.108,31.048 -19.98,29.452 -23.522,10.389 -3.542,-19.062 -38.463,-84.027 -53.552,-104.11 -15.089,-20.082 -41.94,-11.156 -41.94,-11.156 0,0 -8.5,-7.332 -7.367,-17.596 1.134,-10.265 1.065,-27.35 -12.82,-31.685 -1.736,-0.542 -4.052,-0.843 -6.817,-0.949 z m -197.478,651.98 c -9.24,0.08 -9.799,4.337 -15.871,10.391 -7.47,7.452 -15.684,17.447 -32.916,20.355 -17.232,2.908 -13.731,8.784 -15.75,23.444 1.75,3.755 12.628,36.704 39.553,60.572 25,23.392 88.585,14.436 54.884,-12.654 -19.723,-8.965 -13.527,-21.385 -13.527,-21.385 0,0 19.989,-29.44 28.066,-43.373 8.078,-13.934 -19.248,-34.288 -36.48,-36.711 -3.231,-0.455 -5.827,-0.658 -7.959,-0.639 z m 272.531,19.352 c -13.205,0.261 -35.091,8.259 -42.512,19.39 -5.049,16.114 7.202,23.141 7.202,23.141 0,0 -8.209,11.146 -9.555,19.566 -1.346,8.42 12.383,14.844 12.383,14.844 0,0 -7.943,9.57 -6.395,29.803 1.549,20.233 18.31,24.17 40.725,22.898 22.415,-1.272 106.151,-45.555 104.4,-52.218 -1.75,-6.664 -11.174,-28.532 -43.013,-17.204 -31.839,11.328 -39.847,-0.242 -40.856,-6.603 -1.01,-6.361 -6.464,-43.918 -12.926,-51.127 -1.616,-1.803 -5.052,-2.577 -9.453,-2.49 z" fill="#FFFFFF" paint-order="markers stroke fill" transform="translate(-68.024562,1.3780463) matrix(0.26458333,0,0,0.26458333,-9622.8483,-2101.3139) translate(-3313.5291,-2437.8203)"/>
    <path d="m 40503.957,10374.604 c -16.332,-0.265 -32.845,2.368 -45.836,7.957 -18.406,7.916 -38.438,26.667 -46.021,43.082 -4.23,9.151 -7.023,10.619 -24.307,12.777 -29.406,3.673 -44.209,10.864 -44.209,21.475 0,16.192 13.516,20.999 57.861,20.593 32.585,-0.937 63.389,-5.405 93.164,-4.136 26.788,1.142 35.972,2.994 45.616,9.009 14.875,9.283 24.391,9.544 34.982,0.961 7.373,-5.978 8.116,-9.19 7.848,-33.959 -0.414,-38.659 -9.132,-55.995 -34.36,-68.336 -12.258,-5.998 -28.406,-9.159 -44.738,-9.423 z m -408.519,9.263 c -19.638,1.371 -40.346,11.988 -57.897,30.285 -16.534,17.235 -21.833,33.874 -25.498,80.059 -4.239,53.396 -7.481,63.551 -22.254,69.725 -19.859,8.297 -18.771,12.644 5.315,21.199 22.607,8.028 50.543,2.871 64.185,-11.852 7.587,-8.183 8.3,-8.341 10.473,-2.308 18.029,50.09 30.371,68.114 54.256,79.236 v 0 c 24.717,11.515 62.303,11.579 86.834,0.156 19.313,-8.991 44.004,-34.627 50.406,-52.334 3.233,-8.941 6.608,-11.872 15.603,-13.558 14.311,-2.686 16.193,-14.331 2.858,-17.676 -7.526,-1.889 -8.625,-4.051 -8.625,-17.006 0,-30.219 -18.8,-72.28 -41.895,-93.732 -10.089,-9.372 -54.759,-28.674 -66.353,-28.674 -5.908,0 -9.312,-2.419 -10.922,-7.762 -3.853,-12.795 -22.85,-30.077 -37.363,-33.984 -6.15,-1.656 -12.579,-2.227 -19.123,-1.77 z m 401.267,10.66 c 17.322,-0.304 35.454,3.69 46.352,10.832 11.196,7.335 17.869,25.177 17.869,47.78 0,19.245 -1.659,21.234 -13.801,16.545 -2.847,-1.1 -7.216,-4.885 -9.713,-8.403 -10.747,-15.153 -49.72,-27.004 -88.777,-27.004 -12.241,0 -22.254,-1.518 -22.254,-3.373 0,-8.143 34.988,-30.739 53.568,-34.597 5.296,-1.099 10.982,-1.679 16.756,-1.78 z m -396.512,6.229 c 11.55,-0.31 21.776,4.457 31.797,14.478 6.303,6.304 11.41,12.776 11.36,14.391 -0.05,1.613 -8.69,8.134 -19.192,14.49 -30.869,18.689 -56.605,61.293 -56.605,93.713 0,10.381 -2.039,14.586 -7.948,18.799 -24.132,17.207 -57.211,19.188 -49.462,12.313 21.103,-18.724 16.293,-29.075 19.134,-66.61 4.627,-61.12 13.882,-79.375 48.455,-95.57 8.125,-3.804 15.531,-5.818 22.461,-6.004 z m 66.541,43.881 c 9.203,0 46.587,18.767 54.01,27.107 6.554,7.387 6.542,7.387 -3.713,7.387 -6.384,0 -13.221,-3.128 -18.033,-8.25 -4.264,-4.538 -14.624,-10.878 -23.025,-14.086 -15.496,-5.918 -20.243,-12.158 -9.239,-12.158 z m -26.363,7.269 c 2.097,-0.109 3.584,1.101 5.014,3.412 1.286,2.084 9.302,8.207 17.812,13.604 12.894,8.782 19.911,7.962 3.608,14.773 -23.527,9.829 -44.714,38.973 -56.645,77.92 -11.415,37.256 -2.432,36.952 16.203,-0.549 23.31,-46.915 41.453,-61.236 77.573,-61.236 10.624,0 22.364,-1.633 26.089,-3.625 5.915,-3.167 7.478,-1.96 12.317,9.486 3.048,7.214 6.315,23.6 7.263,36.418 l 1.719,23.303 -10.814,3.77 c -12.556,4.379 -13.845,8.398 -3.549,11.089 17.167,4.491 -2.229,18.346 -30.193,21.571 -28.448,3.281 -32.272,4.658 -32.272,11.65 0,3.619 3.868,9.623 8.592,13.34 l 8.59,6.756 -7.727,2.07 c -12.894,3.457 -27.546,2.166 -45.678,-4.019 -13.689,-4.674 -19.439,-9.166 -27.869,-21.778 -15.137,-22.649 -26.9,-61.084 -23.984,-78.351 3.719,-22.005 20.307,-53.073 35.801,-67.043 9.462,-8.53 14.655,-12.378 18.15,-12.561 z m 267.859,0.229 c 15.985,-0.226 33.923,0.09 47.702,0.441 9.185,0.232 27.505,2.926 31.379,3.881 12.645,3.342 17.511,3.287 1.73,3.799 -6.644,0.215 -36.959,1.19 -54.035,4.775 -17.078,3.583 -34.042,4.536 -36.887,5.639 -2.847,1.099 -17.504,0.966 -26.043,-3.029 -10.947,-6.246 -15.809,-7.77 0.168,-12.676 5.968,-1.832 20.001,-2.604 35.986,-2.83 z m 96.432,28.539 c -11.187,0.381 -16.848,5.379 -19.914,11.467 -7.18,14.261 -15.776,12.551 -17.824,5.463 -1.529,-5.293 -9.363,-10.127 -14.588,-13.514 -6.66,-3.268 -15.149,-2.881 -21.449,-1.709 -11.348,2.112 -18.391,4.991 -22.621,19.976 -13.59,-0.119 -14.613,12.295 -0.06,12.129 3.642,12.743 15.315,19.38 30.246,19.748 17.396,0.428 28.33,-9.545 28.33,-14.466 0,-6.87 14.91,-2.901 21.576,5.572 8.778,11.161 28.286,12.278 38.077,1.769 6.304,-6.765 8.675,-10.706 35.367,-8.482 24.777,2.065 29.585,1.583 33.715,-3.395 4.16,-5.015 4.043,-6.372 -0.862,-9.959 -4.172,-3.05 -13.289,-3.356 -34.299,-1.138 -21.307,2.246 -26.757,0.499 -27.775,-2.551 -2.584,-7.757 -3.418,-19.256 -22.775,-20.781 v 0 c -1.832,-0.144 -3.543,-0.184 -5.141,-0.129 z m -64.769,14.816 c 12.936,-0.469 20.493,14.465 7.412,21.465 -8.719,4.664 -11.422,4.513 -19.102,-1.101 -7.873,-5.76 -5.037,-15.038 5.863,-19.151 2.023,-0.764 3.98,-1.146 5.827,-1.213 z m 63.97,0.02 c 0.777,0.107 4.64,0.594 5.547,1.08 11.265,6.027 9.68,13.957 4.92,19.693 -6.182,7.448 -15.285,5.436 -18.549,-3.392 -3.772,-10.197 2.639,-18.129 8.082,-17.381 z m -268.131,36.027 c -6.073,-1.17 -8.74,9.288 -3.666,14.363 4.077,4.075 9.704,0.227 9.704,-6.636 0,-3.612 -2.719,-7.087 -6.038,-7.727 z m -25.488,9.692 c -5.919,0 -9.643,8.379 -6.9,15.525 2.476,6.45 7.063,6.612 12.189,0.435 4.81,-5.792 1.441,-15.96 -5.289,-15.96 z m 304.858,36.119 c -4.373,-0.1 -9.469,1.137 -16.143,3.492 -8.145,2.874 -23.644,5.224 -34.445,5.224 -10.802,0 -27.845,2.438 -37.875,5.416 -15.987,4.747 -18.935,7.079 -23.914,18.936 -5.14,12.244 -6.878,13.535 -18.389,13.563 -29.287,0.08 -93.086,19.022 -147.822,43.884 -10.105,4.59 -17.48,7.046 -22.721,7.727 -2.265,0.295 -4.548,0.493 -6.645,-0.141 -3.835,-1.159 -18.582,-2.765 -33.005,-2.894 -14.422,-0.132 -31.257,-1.996 -37.409,-4.139 -3.768,-1.314 -7.617,-1.978 -11.662,-1.953 -12.134,0.07 -26.026,6.333 -44.76,19.746 -22.275,15.951 -35.931,36.617 -42.298,64.01 -3.057,13.149 -8.809,23.842 -19.756,36.73 -18.94,22.303 -52.214,73.114 -60.967,93.108 -12.867,29.385 -15.242,53.602 -9.076,92.541 3.088,19.481 8.808,45.945 12.715,58.812 l 7.105,23.393 -8.031,10.865 c -6.626,8.965 -7.993,14.986 -7.838,34.42 0.199,24.799 4.585,34.508 15.584,34.508 3.471,0 7.663,-2.426 9.324,-5.393 2.738,-4.889 3.432,-4.889 7.492,0 5.039,6.072 15.925,7.175 19.157,1.943 1.172,-1.895 5.867,-3.449 10.431,-3.449 8.87,0 15.442,-8.712 15.442,-20.474 0,-3.921 1.551,-7.125 3.451,-7.125 1.897,0 3.493,-4.271 3.543,-9.489 l 0.1,-9.484 9.395,10.945 c 13.16,15.333 31.318,25.266 46.256,25.266 20.659,0.02 29.368,5.349 40.654,24.879 29.228,50.581 73.982,229.321 80.955,323.32 0.724,9.762 3.387,16.918 7.373,19.834 v 0.02 c 17.894,13.086 46.832,0.101 82.137,-36.852 25.367,-26.549 32.598,-39.281 28.457,-50.078 -5.275,-13.739 -13.158,-9.293 -48.23,27.211 -19.385,20.177 -37.136,36.682 -39.444,36.682 -2.848,0 -4.197,-6.888 -4.197,-21.399 0,-55.275 -48.403,-242.047 -77.949,-300.773 -6.572,-13.069 -11.519,-24.033 -10.989,-24.362 5.438,-3.382 30.254,-11.135 31.536,-9.853 0.923,0.923 -0.533,7.939 -3.235,15.596 -2.701,7.658 -4.914,17.657 -4.914,22.22 0,9.439 8.687,14.274 16.641,9.258 7.059,-4.453 17.256,-33.918 17.592,-50.84 0.22,-10.952 3.1,-16.468 15.564,-29.793 9.628,-10.295 16.151,-20.942 17.615,-28.742 2.414,-12.867 2.037,-16.878 -6.697,-71.193 -2.901,-18.026 -5.183,-51.404 -5.113,-74.174 l 0.154,-41.399 7.725,24.153 c 9.271,28.989 14.584,37.979 25.328,42.875 14.894,6.786 32.176,4.197 54.722,-8.197 17.189,-9.447 24.122,-11.489 33.737,-9.928 17.685,2.869 28.173,-0.882 43.916,-15.707 10.266,-9.673 13.706,-15.42 12.849,-21.477 -0.807,-5.699 -3.335,-8.206 -8.15,-8.076 -5.261,0.144 -6.962,-1.985 -6.902,-8.625 0.06,-6.546 -1.911,-9.1 -7.676,-9.918 -4.269,-0.606 -7.764,-3.371 -7.764,-6.144 0,-3.383 -3.698,-5.062 -11.211,-5.09 -6.168,-0.03 -15.816,-0.134 -21.443,-0.207 -15.378,-0.247 -23.652,11.86 -21.738,31.804 1.408,14.642 0.7,16.434 -9.125,23.061 -5.86,3.951 -16.443,9.904 -23.516,13.226 -12.238,5.731 -13.184,5.731 -19.518,0 -18.833,-17.046 -33.334,-77.505 -29.824,-124.347 0.726,-10.517 1.499,-20.124 2.283,-30.584 -0.02,-3.452 30.378,-8.013 45.567,-12.02 40.262,-5.94 37.448,-14.727 23.812,19.857 -11.459,39.561 -14.103,66.895 -7.037,72.76 8.896,7.382 14.772,-0.763 19.179,-26.584 2.174,-12.726 7.256,-36.597 11.297,-53.051 5.91,-24.062 8.915,-30.627 15.354,-33.562 9.111,-4.15 10.079,-8.133 3.334,-13.729 -0.882,-0.733 -2.356,-1.157 -4.641,-1.242 -6.855,-0.254 -21.02,2.561 -48.492,9.363 -26.654,6.598 -28.126,7.74 -37.871,11.579 -18.194,7.173 -21.848,8.177 -24.125,2.109 -0.537,-1.432 -1.252,-4.313 -1.545,-5.767 -1.171,-5.853 -5.116,-14.836 -8.769,-19.967 l -3.971,-5.574 c -3.176,-6.993 8.557,-5.873 18.94,-7.842 11.86,-2.248 38.645,-9.448 59.525,-15.994 20.878,-6.546 50.563,-13.831 65.965,-16.188 27.787,-4.256 28.059,-4.22 35.047,4.049 4.402,5.21 6.274,10.922 4.99,15.236 -8.398,28.267 -11.894,53.541 -11.924,86.248 -0.03,34.653 0.604,38.471 7.363,43.985 8.768,7.152 16.268,7.424 39.413,1.443 25.513,-2.588 18.196,-21.998 19.38,-43.918 1.175,-21.704 2.33,-49.792 2.588,-62.422 l 0.455,-22.964 17.202,-2.366 c 10.132,-1.395 23.249,-6.466 31.912,-12.336 8.089,-5.483 18.631,-10.005 23.427,-10.033 20.442,-0.147 42.28,26.885 60.346,74.703 18.83,49.842 42.421,70.791 60.899,54.073 5.242,-4.746 6.306,-11.088 6.306,-37.52 0,-17.495 0.97,-36.657 2.156,-42.588 3.275,-16.371 12.903,-14.036 22.319,5.416 6.454,13.328 7.701,21.061 7.033,43.59 -2.34,78.828 -23.84,107.951 -62.557,84.74 -37.655,-22.572 -86.015,-93.963 -90.756,-133.972 -3.654,-30.873 -12.261,-30.134 -17.617,1.519 -1.285,7.589 -8.347,31.654 -15.691,53.477 -17.837,52.964 -23.678,100.858 -18.242,149.506 2.165,19.388 4.972,37.941 6.234,41.232 1.844,4.802 -2.036,7.946 -19.65,15.922 -34.468,15.613 -116.421,39.661 -135.793,39.842 -17.721,1.453 -17.204,0.506 -19.114,-16.09 -3.422,-29.757 -13.246,-25.837 -15.925,6.355 -2.274,27.316 7.637,46.925 31.591,62.506 9.489,6.173 18.259,14.715 19.493,18.979 4.142,14.319 2.975,49.629 -2.207,66.714 -7.757,25.566 -6.972,28.546 9.449,36.002 23.849,10.825 46.369,7.009 47.832,-8.105 0.214,-2.235 1.378,-24.231 2.586,-48.881 l 2.193,-44.814 17.151,-2.444 c 9.433,-1.344 24.016,-5.061 32.404,-8.265 15.152,-5.789 15.292,-5.771 21.666,2.41 11.596,14.882 22.966,42.332 27.504,66.4 2.518,13.356 6.519,24.456 9.185,25.477 7.147,2.743 31.009,-6.189 46.5,-17.41 13.488,-9.771 13.747,-10.355 11.823,-26.608 -2.728,-23.014 -20.548,-56.595 -40.178,-75.719 l -16.477,-16.046 2.494,-28.387 c 2.701,-30.705 1.439,-43.27 -5.421,-54.018 -7.346,-11.508 -11.839,-67.362 -8.129,-100.996 4.169,-37.76 9.454,-64.293 16.173,-81.172 l 5.229,-13.129 7.529,18.536 c 10.218,25.137 38.099,65.995 55.184,80.869 28.107,24.473 57.54,31.309 81.33,18.9 31,-16.172 44.314,-84.357 32.789,-167.949 -3.619,-26.256 -36.134,-43.199 -51.123,-26.637 -7.192,7.945 -16.2,42.685 -16.27,62.721 -0.03,8.616 -1.457,17.888 -3.179,20.605 -3.21,5.075 -4.608,2.566 -30.608,-54.965 -18.814,-41.622 -39.96,-62.099 -64.14,-62.099 -8.129,0 -8.965,-1.256 -8.965,-13.531 0,-9.464 -2.639,-16.672 -8.776,-23.969 -7.222,-8.581 -12.5,-12.45 -19.789,-12.613 z m -2.327,15.728 v 0 c 3.677,0.05 7.66,1.686 8.877,4.86 1.049,2.734 1.389,7.218 0.752,9.958 -0.996,4.316 -2.212,4.287 -8.916,-0.207 -4.268,-2.865 -7.763,-7.344 -7.763,-9.96 0,-3.163 3.373,-4.702 7.05,-4.653 z m -73.755,7.465 c 7.872,-0.575 19.5,0.584 25.845,2.572 10.169,3.185 9.092,3.431 -9.076,2.076 -16.095,-1.2 -22.046,-0.25 -27.137,4.334 -6.191,5.565 -6.458,5.507 -5.232,-1.035 1.007,-5.362 4.48,-7.134 15.6,-7.947 z m 59.927,10.647 c 4.181,0.54 9.118,6.41 11.633,14.833 1.402,4.701 -0.06,9.18 -4.248,12.969 -6.095,5.516 -6.593,5.123 -10.666,-8.469 -3.069,-10.241 -3.215,-15.308 -0.529,-17.994 1.107,-1.108 2.417,-1.52 3.81,-1.339 z m -60.404,2.201 c 2.74,-0.306 4.013,2.65 1.551,9.125 -1.85,4.867 -3.364,13.406 -3.364,18.974 0,5.571 -1.165,10.004 -2.587,9.848 -12.385,-1.301 -14.48,-10.999 -5.95,-27.494 3.403,-6.579 7.61,-10.147 10.35,-10.453 z m -233.654,0.531 c 11.388,-0.154 17.508,1.061 16.181,3.205 -2.554,4.133 -17.982,4.133 -27.597,0 -5.057,-2.171 -2.002,-3.025 11.416,-3.205 z m 248.689,3.019 c 3.711,-1.096 6.011,7.753 4.697,20.01 -1.089,10.153 -3.19,14.664 -6.832,14.664 -4.203,0 -4.907,-3.158 -3.492,-15.697 0.974,-8.631 2.755,-16.679 3.957,-17.881 0.581,-0.582 1.14,-0.94 1.67,-1.096 z m 21.963,1.672 c 3.827,-0.562 6.039,1.372 6.039,5.278 0,3.389 0.968,11.008 2.154,16.939 1.873,9.37 1.194,10.785 -5.177,10.785 -7.347,0 -7.453,-0.321 -8.766,-26.412 -0.158,-3.138 2.428,-6.104 5.75,-6.59 z m -45.1,45.723 c 2.654,0.06 5.876,0.488 9.752,1.236 8.53,1.646 16.626,3.066 17.989,3.139 1.364,0.08 1.721,2.089 0.793,4.461 -2.226,5.695 -39.514,7.029 -39.444,1.412 0.1,-7.36 2.95,-10.433 10.91,-10.248 z m -7.787,22.225 c 1.74,0.08 3.947,0.392 6.787,0.861 6.854,1.134 15.295,2.077 18.754,2.105 4.12,0.02 5.891,2.119 5.139,6.075 -0.868,4.544 -5.663,6.489 -19.402,7.873 -10.04,1.015 -18.725,1.36 -19.307,0.777 -0.579,-0.579 -0.29,-5.065 0.645,-9.969 1.167,-6.097 2.166,-7.963 7.384,-7.722 z m -261.328,0.765 c 5.086,0.356 13.17,3.459 13.17,5.887 0,5.483 -5.307,6.047 -11.859,1.258 -3.634,-2.66 -5.879,-5.563 -4.987,-6.459 0.619,-0.619 1.981,-0.805 3.676,-0.686 z m -33.777,6.451 c 0.823,-0.04 1.588,0.04 2.342,0.229 3.013,0.772 5.81,3.47 11.14,8.799 6.377,6.376 8.789,10.674 5.803,10.345 -2.81,-0.308 -13.647,-1.473 -24.084,-2.587 -21.748,-2.322 -23.464,-6.799 -5.285,-13.795 4.639,-1.785 7.615,-2.88 10.084,-2.991 z m 71.043,2.688 c 7.534,0 5.3,5.903 -6.026,15.914 -14.416,12.741 -14.469,12.765 -21.13,8.547 -3.663,-2.319 -1.311,-5.548 10.005,-13.746 8.135,-5.892 15.852,-10.715 17.151,-10.715 z m -107.045,19.178 c 2.773,0.347 6.447,1.844 11.103,4.472 6.313,3.566 18.89,8.455 27.952,10.864 9.06,2.411 17.226,5.593 18.142,7.078 2.229,3.607 -15.413,51.754 -21.633,59.033 -2.704,3.164 -4.401,9.373 -3.773,13.797 1.443,10.192 14.771,12.888 19.494,3.945 3.931,-7.444 13.234,-42.397 16.125,-60.582 3.672,-23.116 9.445,-14.765 8.346,12.074 -0.57,13.757 -0.729,31.716 -0.364,39.905 0.624,14.077 1.177,14.829 10.147,13.798 10.68,-1.229 14.391,-12.317 8.34,-24.894 -1.92,-3.985 -4.377,-15.977 -5.461,-26.645 -1.656,-16.298 -0.825,-20.857 5.211,-28.531 8.034,-10.213 26.696,-21.077 30.178,-17.568 4.111,4.137 1.281,61.504 -4.506,91.371 -11.028,56.894 -10.91,122.593 0.32,180.318 1.722,8.861 0.418,10.186 -18.066,18.36 -10.955,4.843 -33.981,11.843 -51.172,15.55 -38.115,8.22 -87.877,11.824 -95.075,6.885 -4.44,-3.054 -5.052,-19.089 -4.285,-114.66 0.492,-61.107 2.389,-116.656 4.217,-123.443 1.829,-6.784 11.132,-24.69 20.672,-39.791 9.54,-15.103 17.344,-30.146 17.344,-33.432 0,-4.7 1.357,-7.31 4.267,-7.869 0.728,-0.14 1.552,-0.151 2.477,-0.03 z m 338.283,1.517 c 16.099,0 17.25,0.575 17.25,8.625 0,6.133 -1.872,8.625 -6.469,8.625 -3.558,0 -11.32,0.973 -17.25,2.158 -10.236,2.047 -10.781,1.609 -10.781,-8.623 0,-10.626 0.23,-10.785 17.25,-10.785 z m 0.254,34.498 c 14.805,0 17.324,0.932 16.355,6.041 -0.865,4.548 -5.18,6.294 -17.503,7.086 -14.544,0.937 -16.356,0.266 -16.356,-6.037 0,-6.221 2.145,-7.09 17.504,-7.09 z m -1.982,22.424 c 18.587,0 19.847,3.727 3.562,10.529 -16.16,6.753 -19.084,6.329 -19.084,-2.765 0,-6.9 1.725,-7.764 15.522,-7.764 z m -403.311,44.063 c 0.832,0.835 -1.013,34.734 -4.105,75.328 -6.132,80.535 -4.916,134.135 3.582,158.004 2.974,8.36 5.002,15.523 4.507,15.916 -0.494,0.394 -5.553,-2.169 -11.246,-5.696 -5.692,-3.523 -12.807,-6.427 -15.808,-6.427 -6.327,-0.02 -17.39,-43.505 -24.28,-95.424 -5.577,-42.035 0.03,-65.392 26.481,-110.34 10.642,-18.082 20.032,-32.195 20.869,-31.361 z m 486.625,147.416 c 1.481,-0.304 1.211,2.088 1.211,9.757 0,26.475 -17.413,44.396 -54.178,55.75 -33.921,10.478 -61.397,11.792 -83.308,3.983 -30.834,-10.986 -50.557,-29.595 -27.475,-25.922 21.204,3.377 119.564,-20.654 152.023,-37.143 7.012,-3.121 10.245,-6.121 11.727,-6.425 z m 8.158,60.843 10.485,10.047 c 11.19,10.72 34.316,53.655 34.316,63.713 0,3.322 -3.827,8.548 -8.502,11.611 -12.533,8.213 -14.427,7.162 -18.867,-10.474 -5.09,-20.21 -11.427,-32.499 -24.352,-47.217 l -10.191,-11.607 8.553,-8.036 z m -306.353,2.868 c 1.108,-0.177 1.817,-0.179 2.021,0.02 4.592,4.593 -4.185,20.179 -13.301,23.619 -5.607,2.116 -10.193,5.63 -10.193,7.809 0,7.456 -46.196,32.602 -59.582,32.422 -2.333,-0.03 -9.546,-4.732 -16.029,-10.448 -13.608,-11.992 -19.535,-11.549 -18.614,1.389 0.87,12.195 -8.032,12.04 -21.707,-0.375 -13.796,-12.525 -20.742,-21.624 -23.552,-30.856 -2.168,-7.131 -1.642,-7.382 9.054,-4.314 24.907,7.144 99.142,-0.473 134.108,-13.76 7.562,-2.875 14.47,-4.981 17.795,-5.511 z m 164.42,35.642 c 10.358,4.997 26.843,3.502 30.699,5.748 1.278,1.133 -6.011,67.637 -8.235,75.149 -1.147,3.863 -5.226,6.035 -11.332,6.035 -12.565,0 -14.389,-2.344 -10.265,-13.199 4.479,-11.774 5.5,-43.614 1.939,-60.45 z m -235.621,131.359 c -4.104,0.207 -10.191,4.445 -16.965,13.874 -29.406,40.934 -110.79,100.645 -162.176,118.99 -20.323,7.255 -21.293,8.132 -22.309,20.162 -1.934,23.002 19.9,54.876 45.866,66.969 21.038,9.796 29.575,10.126 40.168,1.55 7.947,-6.434 7.982,-6.716 1.691,-13.67 -3.533,-3.903 -11.547,-8.789 -17.807,-10.857 -10.446,-3.446 -39.531,-30.678 -39.531,-37.01 0,-1.49 8.15,-6.538 18.111,-11.217 48.152,-22.611 131.556,-89.79 150.934,-121.576 10.185,-16.702 8.857,-27.558 2.018,-27.215 z m 185.125,27.977 c -4.9,0.209 -9.783,2.354 -15,6.357 -4.525,3.472 -11.091,7.361 -14.592,8.643 -3.5,1.281 -7.125,5.233 -8.053,8.787 -1.591,6.091 -14.328,14.205 -22.295,14.205 -1.99,0 -8.129,3.208 -13.641,7.133 -8.328,5.933 -10.005,9.572 -10.005,21.563 0,8.593 2.972,19.313 7.332,26.503 8.222,13.563 12.516,17.122 20.748,17.196 9.679,0.09 10.208,-10.148 1.209,-23.393 -5.366,-7.898 -8.515,-17.222 -8.36,-24.793 l 0.235,-12.135 6.297,14.159 c 5.7,12.809 12.287,18.617 21.099,18.617 4.807,0 3.795,-9.477 -2.262,-21.192 -7.075,-13.677 -3.577,-16.913 5.629,-5.21 4.489,5.707 10.572,9.152 16.164,9.152 4.93,0 11.744,2.518 15.145,5.592 5.911,5.35 5.85,5.857 -1.455,11.828 -6.121,5.004 -6.781,7.108 -3.32,10.625 2.372,2.412 4.314,6.666 4.314,9.459 0,2.792 2.57,7.915 5.711,11.385 6.355,7.022 21.889,8.596 21.889,2.218 0,-2.248 -3.404,-7.715 -7.565,-12.144 l -7.568,-8.053 7.568,-5.303 c 4.161,-2.916 7.565,-8.379 7.565,-12.144 0,-3.763 3.017,-11.051 6.699,-16.192 12.348,-17.236 10.726,-27.993 -7.137,-47.373 -9.943,-10.79 -18.175,-15.83 -26.344,-15.49 z m 263.814,20.879 c -9.952,0.305 -22.75,3.773 -36.061,10.07 -18.883,8.935 -21.573,11.399 -21.543,19.834 0.01,5.299 2.118,13.65 4.68,18.557 3.903,7.499 3.899,9.946 -0.03,15.322 -6.204,8.483 -5.924,10.982 2.006,17.772 6.084,5.208 6.238,6.59 1.726,15.32 -10.858,20.997 -1.939,48.958 17.407,54.574 v 0 c 16.919,4.91 27.726,2.368 101.102,-23.82 11.978,-4.274 27.25,-12.976 34.078,-19.416 10.816,-10.2 12.091,-13.087 10.127,-22.922 -4.998,-25.02 -34.657,-38.05 -54.02,-23.734 -5.556,4.107 -14.769,8.402 -20.478,9.543 -10.015,2.002 -10.381,1.634 -10.381,-10.432 0,-8.057 -2.549,-15.051 -7.16,-19.662 -5.894,-5.894 -6.74,-9.633 -4.797,-21.129 1.703,-10.085 1.056,-14.792 -2.33,-16.936 -3.417,-2.166 -8.362,-3.123 -14.332,-2.941 z m -277.637,3.527 c 0.392,-0.06 1.103,1.652 2.492,5.082 3.913,9.646 10.218,14.174 23.797,17.08 6.354,1.357 10.236,3.692 8.623,5.184 -8.775,8.131 -17.856,6.918 -26.679,-3.566 -4.96,-5.896 -8.932,-14.097 -8.803,-18.221 0.107,-3.663 0.179,-5.498 0.57,-5.559 z m 277.274,26.959 c 2.452,0.5 1.545,2.892 -3.264,6.881 -6.893,5.721 -23.944,8.029 -29.857,4.041 -4.333,-2.924 -4.052,-3.511 1.726,-3.693 3.795,-0.113 12.722,-2.281 19.838,-4.822 3.264,-1.165 5.948,-1.913 8.006,-2.266 1.543,-0.264 2.734,-0.308 3.551,-0.141 z m -0.121,25.596 c 7.388,-0.474 8.398,0.874 8.398,5.322 0,5.282 -3.232,6.957 -16.387,8.489 -9.012,1.05 -19.877,2.981 -24.146,4.291 -4.322,1.327 -7.764,0.914 -7.764,-0.934 0,-7.072 12.854,-13.944 30.186,-16.135 4.079,-0.517 7.25,-0.875 9.713,-1.033 z m 79.33,20.322 c 2.867,-0.284 4.572,0.934 7.097,3.461 5.053,5.053 4.114,6.309 -11.242,15.002 -9.22,5.218 -22.457,13.271 -29.42,17.891 -6.962,4.619 -22.233,11.381 -33.941,15.023 -29.494,9.181 -37.309,8.695 -41.598,-2.588 -6.3,-16.568 -3.312,-20.105 16.965,-20.105 14.886,0 19.558,-1.477 24.654,-7.766 4.856,-5.999 9.863,-7.76 22.026,-7.76 9.194,0 22.251,-3.165 31.394,-7.605 7.17,-3.484 11.198,-5.271 14.065,-5.553 z m -91.631,6.678 c 2.188,0 4.378,0.216 6.039,0.65 3.32,0.869 0.602,1.579 -6.039,1.579 -6.64,0 -9.356,-0.71 -6.037,-1.579 1.66,-0.434 3.848,-0.65 6.037,-0.65 z" fill="#00B894" transform="translate(-68.024562,1.3780463) matrix(0.26458333,0,0,0.26458333,-9622.8483,-2101.3139) translate(-3313.5291,-2437.8203)"/>
</svg>