<?xml version="1.0" ?><svg height="301.37784mm" viewBox="0 0 105.49825 301.37784" width="105.49825mm" xmlns="http://www.w3.org/2000/svg">
    <path color="#000" d="m 10242.503,3044.7728 c -29.068,0.6385 -61.173,24.6696 -67.864,64.4323 -17.443,103.6689 114.015,120.3479 118.151,2.0433 1.645,-47.0332 -22.981,-67.0755 -50.287,-66.4756 z m -0.845,173.4658 c -23.709,0.027 -55.21,22.9483 -69.482,44.3563 -27.796,48.5981 -47.953,159.9243 8.911,242.3215 56.865,82.3973 120.307,-11.7435 107.258,-42.01 -13.05,-30.2665 -29.706,-83.7345 -18.037,-183.6995 5.288,-45.2968 -9.006,-60.9907 -28.65,-60.9683 z m -38.63,383.2046 c -23.242,-0.3705 -74.073,41.0927 -60.119,81.0427 16.974,-23.4876 84.64,-75.8645 63.336,-80.6803 -0.998,-0.2257 -2.074,-0.3442 -3.217,-0.3624 z m 57.977,108.6814 c -5.263,-0.4629 -82.376,35.0872 -82.376,35.0872 19.171,29.4216 117.37,-15.847 82.572,-35.038 -0.05,-0.026 -0.112,-0.041 -0.196,-0.049 z" fill="#FFFFFF" overflow="visible" paint-order="fill markers stroke" transform="translate(91.90602,155.33465) matrix(0.26458333,0,0,0.26458333,-2742.173,-920.15652)"/>
    <path d="m 10475.9,2861.1133 c -3.341,0.076 -6.679,2.4714 -12.414,8.1445 -6.125,6.0891 -32.504,26.7164 -21.816,37.6524 1.305,0.9139 2.373,2.0623 2.373,2.5507 0,0.4885 -2.745,3.7582 -6.098,7.2657 -3.354,3.5077 -8.973,9.6964 -12.486,13.7539 -5.119,5.9085 -11.752,13.1618 -16.779,20.3925 -3.799,5.0894 -9.333,11.8665 -12.295,15.0606 -2.963,3.1941 -9.69,11.5572 -14.947,18.584 -5.258,7.0269 -10.178,13.5591 -10.934,14.5176 -8.863,11.4229 -20.618,28.261 -23.414,43.75 -0.759,8.7604 0.111,11.8624 8.072,28.8418 33.029,70.4928 40.197,76.1159 82.777,155.414 -6.198,5.1432 -14.652,22.8997 -19.875,37.6211 -1.632,4.5999 -3.445,9.3039 -4.031,10.4531 -2.641,5.1859 -6.397,21.4392 -8.937,38.6758 -3.03,20.5639 -0.264,60.6563 6.049,87.6914 1.64,7.0269 3.605,15.6508 4.367,19.1641 1.367,6.3024 2.344,9.1464 6.084,17.7246 2.418,5.5463 1.258,6.7563 -2.828,2.9512 -3.337,-3.1084 -41.406,-28.8067 -42.674,-28.8067 -0.403,0 -2.397,-1.1762 -4.43,-2.6152 -3.96,-2.8015 -6.428,-4.4131 -11.619,-7.5801 -20.945,-13.212 -48.766,-50.2367 -70.02,-23.0644 -2.122,3.8864 -1.971,17.0206 0.284,24.7461 8.394,28.9465 46.672,69.871 77.832,95.2343 3.098,2.6606 11.121,9.1498 17.828,14.4199 6.708,5.27 14.547,11.4646 17.422,13.7657 6.898,5.521 13.323,10.2351 26.902,19.7343 6.172,4.3179 11.994,8.5862 12.937,9.4864 0.943,0.9001 4.362,3.6965 7.596,6.2148 l 5.881,4.5801 -4.299,2.6426 c -2.365,1.4545 -4.764,2.6616 -5.332,2.6816 -2.533,0.089 -27.404,23.9161 -37.015,35.461 -4.951,5.9474 -8.993,21.0793 -8.993,33.6738 0.03,9.303 0.766,20.1242 13.223,21.4668 10.02,-0.1702 20.23,-12.8231 25.105,-21.5684 0,-1.2707 9.903,-15.8683 13.028,-19.2031 1.572,-1.6789 4.5,-5.7161 6.504,-8.9727 6.44,-10.0187 22.495,-25.1992 27.537,-42.3496 0.674,-4.4952 0.387,-5.3715 -2.922,-8.914 -7.365,-7.8123 -30.537,-14.843 -46.469,-28.6817 -10.439,-7.4057 -41.886,-31.0819 -44.717,-33.6679 -1.278,-1.167 -5.1,-4.2123 -8.496,-6.7676 -9.253,-6.8391 -44.663,-42.4073 -60.191,-62.1875 -8.877,-11.4054 -18.466,-27.257 -19.4,-32.0723 -0.229,-1.178 -0.848,-3.152 -1.377,-4.3867 -0.529,-1.2348 -0.995,-4.3707 -1.045,-6.9688 -0.07,-4.084 0.23,-4.6797 2.238,-4.3886 11.432,1.995 20.518,12.3914 30.416,18.3066 5.889,4.6757 14.122,8.8719 20.687,14.6426 30.747,20.1584 66.231,44.4466 91.85,72.9883 4.082,3.5135 8.603,7.4333 10.045,8.7109 33.815,29.1657 76.542,20.0288 102.613,-8.4785 1.058,-1.4197 2.037,-1.1707 6.387,1.6211 8.845,5.6762 11.696,7.2321 27.207,14.8535 43.005,19.7543 107.858,48.6277 57.127,95.4785 -34.98,31.7891 -65.9,47.4843 -113.459,70.3867 -5.429,2.5805 -11.44,5.3779 -13.357,6.2149 -7.065,3.0827 -20.939,7.9166 -31.94,13.8398 -9.038,3.6612 -19.691,8.0429 -29.09,12.7598 -6.098,2.9106 -11.625,5.291 -12.283,5.291 -8.599,3.487 -6.907,8.9667 0.106,12.7774 0.851,0 4.342,1.3338 7.759,2.9648 v 0 c 5.67,2.7062 7.127,2.9094 16.666,2.3281 17.424,-1.1095 31.899,-3.1029 48.51,-11.4804 13.335,-6.2478 18.83,-12.371 20.08,-22.377 0.539,-4.3141 0.337,-6.8395 -0.641,-8.0176 -1.163,-1.4018 -1.026,-1.8589 0.737,-2.4746 1.19,-0.4153 8.205,-3.5573 15.59,-6.9824 47.532,-21.9999 78.134,-37.95 119.847,-83.6563 10.311,-11.298 11.703,-34.1363 0.35,-49.2949 -25.982,-27.1098 -44.338,-34.0254 -85.424,-54.2265 -6.725,-3.0887 -22.712,-12.7335 -24.322,-14.6739 -1.246,-1.5017 -1.161,-2.3376 0.494,-4.8633 4.349,-6.6372 0.82,-28.0053 -8.139,-49.291 -4.58,-11.0133 -7.872,-27.9933 -12.904,-40.5879 -0.573,-2.6806 -1.494,-13.2773 -2.305,-26.5507 -1.037,-20.6161 3.107,-41.1506 4.098,-61.7207 3.334,-21.0754 4.167,-66.1842 1.377,-74.5997 -1.69,-5.096 -1.693,-5.0942 9.31,-17.3496 4.08,-4.5448 7.887,-9.1049 8.456,-10.1328 0.57,-1.0279 3.972,-5.2659 7.562,-9.4179 14.833,-17.1951 26.254,-31.0047 40.172,-47.6192 3.166,-4.1522 7.423,-9.3794 9.461,-11.6152 6.956,-7.632 14.433,-17.9185 17.336,-23.8516 4.476,-9.1498 4.277,-20.0637 -0.621,-34.2187 -8.119,-23.4568 -19.615,-46.9278 -30.725,-62.7227 -2.022,-2.8746 -4.699,-7.2948 -5.947,-9.8223 -2.162,-4.3788 -6.423,-11.4975 -8.371,-13.9863 -9.178,-11.9688 -15.798,-27.1018 -18.854,-41.7187 0,-1.3296 2.495,-5.0306 5.528,-8.2246 3.034,-3.1939 6.252,-7.2452 7.152,-9.002 1.104,-2.1186 3.536,-3.0845 3.566,-5.9726 1.712,-11.5612 -11.149,-5.174 -14.883,-2.6661 -1.215,0.9609 -1.36,0.5193 -0.71,-2.1914 0.448,-1.8683 1.284,-4.3118 1.857,-5.4297 2.248,-4.3866 -3.722,-9.7505 -9.555,-8.5839 -3.127,0.6254 -3.236,0.4961 -2.648,-3.1309 0.748,-4.611 -0.874,-6.1967 -7.412,-7.2422 -4.515,-0.7219 -4.887,-0.5576 -6.699,2.9473 -1.428,2.7612 -2.421,3.4973 -3.875,2.873 -1.074,-0.4616 -3.393,-1.0866 -5.153,-1.3887 -2.928,-0.5025 -3.438,-0.01 -6.017,5.8223 -1.55,3.5043 -3.174,8.2748 -3.61,10.5996 -0.953,4.9452 -3.103,8.0775 -1.429,14.5762 0.795,7.5348 1.769,10.663 5.023,16.125 8.545,14.0497 18.05,6.3247 29.432,18.7969 1.03,2.8745 2.8,6.9258 3.933,9.0019 5.337,9.9138 12.428,22.9768 19.713,34.2989 8.204,12.9122 8.197,12.9041 14.197,23.3183 8.415,14.6641 16.167,34.0104 22.245,51.2695 0.862,3.194 1.572,7.7833 1.582,10.1993 -0.181,11.1085 -19.198,31.4952 -25.049,40.3242 -3.119,4.1523 -6.064,8.072 -6.545,8.7109 -0.481,0.6387 -3.367,3.9726 -6.412,7.4082 -10.172,11.5052 -20.69,23.9194 -31.088,36.0703 -1.689,2.8512 -14.308,18.3939 -15.563,19.17 -0.587,0.3625 -3.597,-0.4444 -6.689,-1.793 -9.058,-3.9509 -19.751,-5.7755 -32.045,-5.4649 -17.314,0.4739 -31.647,8.3083 -47.633,20.3204 -7.692,6.1645 -10.1,6.8514 -10.201,2.9101 -0.03,-1.0803 -1.307,-4.0561 -2.842,-6.6113 -1.536,-2.5553 -4.042,-6.7358 -5.57,-9.291 -9.212,-15.4016 -14.463,-23.5497 -31.197,-48.4024 -12.523,-18.6003 -26.514,-42.3848 -32.674,-55.5488 -3.992,-8.54 -13.635,-26.7089 -14.18,-41.4277 0,-23.4641 35.118,-55.7735 51.004,-79.6543 4.404,-5.5692 10.72,-11.58 15.193,-18.8028 2.231,-2.4353 4.064,-4.7555 4.084,-5.1543 0.01,-0.3987 1.881,-2.7857 4.149,-5.3047 2.269,-2.519 5.456,-6.1609 7.082,-8.0937 l 2.957,-3.5137 2.472,2.9317 c 6.005,7.1133 24.015,9.8115 34.364,5.1484 10.685,-4.8145 20.959,-17.0751 20.959,-25.0117 0,-3.3066 -0.613,-4.8738 -2.246,-5.7481 -5.311,-2.7245 -10.784,4.8507 -16.723,8.5371 -5.227,4.246 -13.263,8.8438 -15.459,8.8438 -2.593,0 -0.03,-5.148 6.629,-13.3359 11.181,-13.7391 13.597,-21.5079 6.689,-21.5079 -2.057,0 -2.308,-0.5101 -1.716,-3.4726 0.972,-4.8608 -0.148,-6.9745 -3.721,-7.0195 l -3.07,-0.039 2.679,-2.2324 c 1.474,-1.2287 3.144,-3.8485 3.709,-5.8203 0.954,-3.325 0.746,-3.7194 -2.849,-5.4336 -1.746,-0.8324 -3.265,-1.277 -4.784,-1.2422 z m 90.877,36.7754 c 0.04,0.051 0.01,0.2085 -0.08,0.4843 -0.387,1.1701 -0.705,2.5162 -0.705,2.9903 0,0.474 -1.829,3.4335 -4.064,6.5781 -4.412,6.2051 -5.348,6.3245 -1.914,0.2441 3.279,-5.8078 6.496,-10.6544 6.759,-10.2968 z m -49.463,103.084 c -7.605,0.1086 -16.109,2.3559 -22.451,6.2578 -10.228,6.249 -21.436,12.5253 -30.441,22.9922 -1.946,2.2077 -4.763,6.0557 -6.26,8.5527 l -2.724,4.541 -4.827,-4.8066 c -4.442,-4.4236 -5.187,-4.7501 -9.361,-4.0957 -5.959,0.9343 -6.498,1.3566 -6.488,5.0507 0.01,3.1779 6.161,11.9881 10.478,15.0118 1.728,1.2102 2.112,2.3813 1.551,4.7324 -0.41,1.7186 -1.122,3.6483 -1.58,4.2871 -1.213,1.6904 -3.065,10.1928 -4.695,21.5527 -1.691,11.7853 0,36.2105 3.025,43.5938 10.323,25.2262 27.52,40.0315 49.734,42.8183 11.589,1.4764 23.377,-1.0263 35.555,-7.5097 0.319,-0.3254 2.805,-2.0348 5.527,-3.7989 16.193,-11.0237 30.139,-28.8701 34.631,-47.875 4.807,-22.6226 5.049,-35.2966 0.994,-51.7988 -6.087,-24.7692 -12.354,-36.5996 -23.193,-43.7715 -6.739,-4.5157 -7.395,-12.0846 -19.949,-14.5117 -2.797,-0.8795 -6.069,-1.272 -9.526,-1.2226 z m -8.152,16.4921 c 2.485,0.026 4.006,1.6862 10.027,3.1368 2.991,0.2803 7.821,1.6599 10.733,3.0664 48.211,24.5531 25.183,107.7554 -5.088,123.9004 -8.733,5.7707 -19.476,10.9993 -33.172,7.7675 -14.778,-4.098 -23.273,-11.0355 -30.57,-24.9648 -3.479,-6.6403 -4.348,-9.8138 -5.313,-19.4043 -0.635,-6.3059 -0.785,-13.2242 -0.332,-15.375 l 0.823,-3.9102 3.878,5.6524 c 10.697,15.5903 30.604,22.7277 49.549,17.7656 10.461,-2.7401 22.039,-9.2163 29.979,-16.7676 7.33,-6.9717 9.898,-18.0182 5.515,-23.7207 -1.75,-2.2769 -5.003,-7.7041 -15.936,-3.3949 -10.934,4.3091 -42.677,6.8342 -58.884,5.2524 -5.264,-0.1527 -7.103,0.256 -8.258,1.8359 -0.817,1.1179 -2.399,2.0332 -3.515,2.0332 -2.271,0 -1.988,-2.4155 1.322,-11.2813 1.804,-4.8302 1.867,-4.8725 4.986,-3.2597 4.558,2.3312 8.752,0.67 9.449,-4.8535 0.757,-2.0479 0.244,-3.1441 -2.593,-5.5313 l -3.537,-2.9766 4.076,-6.1406 c 5.803,-8.7421 21.649,-22.7767 30.164,-26.7148 3.367,-1.5588 5.206,-2.1308 6.697,-2.1153 z m -10.154,10.1211 c -2.063,0.078 -4.437,1.8426 -8.309,5.5469 -8.475,8.1077 -10.443,14.088 -5.717,17.3848 6.391,4.3475 14.54,-6.4183 19.186,-12.3223 l 2.953,-4.3945 -3.309,-3.4531 c -1.784,-1.863 -3.2,-2.8222 -4.804,-2.7618 z m 21.002,3.5821 c -0.203,0 -0.401,0.031 -0.588,0.08 -1.201,0.3141 -3.331,2.4722 -4.733,4.795 -1.402,2.323 -4.042,5.9652 -5.867,8.0937 -3.653,4.3805 -1.865,14.8193 5.065,11.5195 7.167,-3.7861 13.779,-11.6671 13.779,-16.4257 0,-3.4598 -4.608,-8.138 -7.656,-8.0625 z m 11.711,47.9765 c -0.06,4.7586 -0.638,5.5087 -5.764,10.0332 -6.953,6.0912 -17.634,11.2065 -27.748,12.8438 -5.842,0.5457 -8.299,0.1936 -13.104,-1.8731 -5.571,-2.3969 -14.292,-9.8007 -13.031,-11.0625 0.318,-0.318 2.373,-0.031 4.567,0.6387 5.058,1.5451 20.954,1.2889 28.959,-0.4668 0.958,-0.2102 4.878,-1.0264 8.711,-1.8144 8.57,-1.7623 15.198,-4.9834 17.41,-8.2989 z m -7.266,119.3809 3.412,3.916 c 5.491,6.3007 7.688,12.0229 9.186,23.9238 1.475,11.7188 0.9,35.0138 -1.285,52.086 -0.648,5.0639 -1.415,11.0356 -1.702,13.2715 -0.287,2.2359 -0.794,5.8949 -1.128,8.1308 -1.685,11.2763 -3.182,36.171 -3.102,51.6856 0.127,25.2618 2.155,36.9639 10.57,60.9765 3.917,11.1791 7.895,22.9388 8.838,26.1328 0.943,3.1941 2.23,6.7267 2.86,7.8496 1.457,2.5945 2.819,18.292 1.904,21.9395 -1.984,6.5374 -11.753,18.6547 -32.332,26.5117 -8.678,3.733 -15.169,3.8499 -30.668,0.5528 -5.307,-1.1286 -10.422,-3.206 -14.483,-5.8809 -7.633,-5.0265 -17.127,-14.0644 -18.138,-17.2656 -0.407,-1.2906 -2.437,-4.4369 -4.512,-6.9922 -4.451,-5.4817 -10.996,-18.0708 -15.187,-29.211 -7.328,-19.9344 -11.722,-40.8341 -14.965,-61.7558 -0.942,-7.232 -1.996,-13.6083 -2.342,-14.168 -1.319,-2.1336 -0.563,-39.323 1.002,-49.3398 3.259,-20.1612 9.677,-38.7707 17.937,-57.4942 7.708,-14.0092 23.03,-29.4122 34.512,-40.0312 10.481,-8.0264 23.992,-13.975 38.162,-14.293 z m -60.967,381.2402 c 0.639,0 -7.441,10.3487 -9.523,12.1973 -0.72,0.6386 -2.462,2.9907 -3.873,5.2266 -1.41,2.2356 -3.256,4.9512 -4.1,6.0351 -1.898,2.4373 -18.219,7.0481 -18.189,5.1387 0.01,-0.7167 3.67,-4.6898 8.131,-8.8301 8.549,-8.214 13.462,-16.7942 27.554,-19.7676 z m -34.681,43.5918 c 2.295,-0.032 2.326,1.1559 0.562,3.8457 -1.112,1.6976 -2.579,4.1384 -3.258,5.4239 -0.678,1.2858 -2.801,4.5411 -4.718,7.2343 v 0 c -4.65,6.5355 -6.855,6.5389 -5.94,0.01 0.38,-2.715 0.846,-6.6285 1.035,-8.6953 0.428,-4.6822 1.306,-5.4821 7.739,-7.0468 2.023,-0.4923 3.536,-0.7591 4.58,-0.7735 z m 100.673,66.6817 c 0.335,0 0.51,0.1492 0.51,0.4687 0,1.9941 -4.274,8.0482 -7.285,10.3184 -6.136,4.6262 -20.637,10.9184 -28.719,12.4609 -4.152,0.7925 -9.119,1.8676 -11.035,2.3887 -6.681,1.8164 -11.627,2.2596 -13.318,1.1914 -1.366,-0.8628 -1.077,-1.3139 1.457,-2.2774 5.223,-1.9858 13.974,-5.8204 17.472,-7.6582 1.809,-0.9494 3.975,-1.7265 4.815,-1.7265 0.839,0 5.212,-1.5679 9.715,-3.4844 4.504,-1.9163 9.519,-3.4844 11.146,-3.4844 1.626,0 5.353,-1.8306 8.282,-4.0664 3.51,-2.6796 5.956,-4.1178 6.96,-4.1308 z m -26.334,101.5214 c -4.317,0.91 -9.741,45.918 -7.099,114.2676 0.156,6.0688 0.01,13.756 -0.322,17.0821 -3.233,34.1606 10.228,25.4536 8.482,-8.3711 1.525,-7.9267 2.344,-20.3766 3.057,-46.459 1.593,-54.3652 -0.967,-77.1835 -4.118,-76.5196 z m 31.036,55.2891 c -2.44,0 -4.246,3.492 -5.327,10.3457 -3.385,22.2905 -0.464,51.9013 -2.89,75.6953 0.787,5.1011 2.937,5.1745 4.127,0.1406 4.398,-20.5304 4.893,-42.3687 5.4,-63.2089 -0.07,-0.9581 0.254,-6.3129 0.729,-11.9004 0.736,-8.6698 0.595,-10.2626 -0.955,-10.8574 -0.375,-0.1437 -0.736,-0.2145 -1.084,-0.2149 z m -1.696,124.168 c -14.231,-0.016 -33.083,0.4456 -39.416,1.1992 -7.039,0.8376 -19.241,3.318 -30.263,6.1504 -4.514,1.1489 -20.521,1.0012 -17.842,8.9082 1.283,2.816 5.727,5.3734 13.631,7.8476 3.122,0.9771 9.391,1.8824 27.875,4.0254 3.194,0.3704 5.894,0.7558 6,0.8575 0.955,0.9186 46.409,-2.0636 60.785,-3.9883 20.544,-2.7504 23.888,-3.8706 26.564,-8.8946 0.765,-1.4374 2.338,-2.6132 3.494,-2.6132 1.156,0 2.971,-0.9589 4.034,-2.1328 1.803,-1.9928 1.797,-2.2535 -0.11,-3.9278 -2.528,-2.2203 -6.761,-3.6721 -11.334,-3.8887 -9.254,-0.438 -22.52,-1.9204 -26.494,-2.9589 -1.508,-0.3942 -8.385,-0.5746 -16.924,-0.584 z" fill="#00B894" transform="translate(91.90602,155.33465) matrix(0.26458333,0,0,0.26458333,-2742.173,-920.15652) translate(-271.76436,29.55388)"/>
</svg>