<?xml version="1.0" ?><svg height="94.692131mm" viewBox="0 0 57.108318 94.692131" width="57.108318mm" xmlns="http://www.w3.org/2000/svg">
    <path color="#000" d="m 14828.027,4883.8843 a 88.63207,80.832177 0 0 0 -88.633,80.8362 88.63207,80.832177 0 0 0 88.633,80.8306 88.63207,80.832177 0 0 0 88.633,-80.8306 88.63207,80.832177 0 0 0 -88.633,-80.8362 z m -22.233,187.7421 c -51.014,-1.4847 -63.336,47.7337 -76.937,72.2155 -14.079,46.2739 87.9,25.5955 157.258,37.1383 16.938,-73.6491 15.891,-85.3814 -55.977,-105.3934 -8.983,-2.5015 -17.056,-3.7483 -24.344,-3.9604 z" fill="#FFFFFF" overflow="visible" paint-order="fill markers stroke" transform="translate(-100.19903,-80.743473) matrix(0.2881372,0,0,0.2881372,-4142.4922,-1318.1027)"/>
    <path d="m 14792.54,4854.792 c -12.501,0 -26.424,7.1912 -24.355,12.5812 1.162,3.0312 -2.037,7.0057 -7.721,9.5955 -5.339,2.4327 -9.707,7.0453 -9.707,10.2452 0,7.3177 1.855,7.2846 13.332,-0.2352 5.08,-3.3289 12.331,-5.4381 16.115,-4.6829 5.408,1.0793 3.765,3.5044 -7.667,11.3265 -29.072,24.0048 -33.468,39.301 -38.11,71.1814 -15.202,2.2484 -8.17,15.7115 2.935,15.2759 11.446,40.8818 36.952,62.523 81.214,69.4791 34.107,5.3604 74.783,-8.2918 92.974,-36.976 9.584,-15.1109 11.276,-21.5849 11.198,-42.8632 -0.143,-39.0017 -4.913,-53.73 -22.507,-69.4706 -8.836,-7.905 -23.26,-15.94 -33.711,-18.7765 -22.314,-6.0569 -22.342,-6.0788 -16.709,-12.8668 7.888,-9.504 -3.093,-11.6722 -12.822,-2.5319 l -8.794,8.2623 -14.402,-9.7747 c -7.921,-5.375 -17.487,-9.7692 -21.263,-9.7692 z m -3.053,11.6065 c 5.525,-0.074 12.186,2.4468 14.805,5.6016 6.332,7.6316 -1.943,7.6316 -15.294,0 l -9.561,-5.4672 z m 120.77,94.2128 c 1.564,23.5505 0.719,27.6442 -8.655,41.8382 -5.716,8.6534 -17.386,20.2688 -25.936,25.812 -51.583,30.3029 -127.205,-5.203 -126.635,-49.9066 22.443,-5.2873 10.422,-15.6543 -3.236,-14.4811 0.187,-17.4377 22.74,-64.5501 54.62,-72.5203 23.854,26.0725 91.382,-4.279 109.842,69.2578 z m -135.283,-23.7153 c -7.371,1.1937 -9.078,5.7196 -3.902,13.5142 3.754,5.6527 13.593,7.0403 12.244,-4.6382 -0.808,-5.8503 -0.813,-9.8339 -8.342,-8.876 z m 50.76,5.8462 c -11.286,-5.7576 -13.49,6.5687 -7.158,13.0125 4.99,5.0804 12.485,1.8327 12.485,-5.3662 0,-4.2065 -2.718,-6.3147 -5.327,-7.6463 z m -30.321,45.9105 c -6.314,0.253 -6.415,2.4723 -6.415,8.3184 0,10.2493 12.625,24.1173 24.855,27.302 23.129,6.023 63.108,-7.0265 70.373,-22.972 3.977,-8.7283 3.716,-8.8471 -19.785,-8.8729 -23.472,1.6277 -46.022,-4.5183 -69.028,-3.7755 z m 37.559,11.4496 c 29.466,0 37.435,5.743 18.871,11.5672 -24.857,7.7992 -47.37,0.5704 -47.37,-10.8387 0,-1.6827 12.725,-0.7285 28.499,-0.7285 z m -40.752,66.6755 c -6.256,-0.082 -11.374,0.1517 -14.592,0.7954 -14.048,2.8095 -27.212,17.6245 -42.398,47.7086 -13.177,26.1035 -13.72,30.1309 -4.04,30.1309 5.108,0 9.581,-5.8428 15.361,-20.0816 4.483,-11.0473 13.572,-25.8921 20.199,-32.9821 l 12.049,-12.8891 39.204,1.7419 c 43.383,1.9295 54.032,6.2574 66.761,27.134 8.905,14.6046 9.599,36.0798 1.769,54.817 -3.139,7.5172 -4.757,15.205 -3.596,17.0848 3.307,5.3501 7.525,4.0795 15.41,-4.6381 11.642,-12.8709 9.552,-55.9964 -3.68,-75.9908 -5.53,-8.3574 -13.929,-17.7182 -18.664,-20.8043 -8.153,-5.3123 -56.67,-11.67 -83.783,-12.0266 z" fill="#00B894" transform="translate(-100.19903,-80.743473) matrix(0.2881372,0,0,0.2881372,-4142.4922,-1318.1027)"/>
</svg>