<?xml version="1.0" ?><svg height="71.183868mm" viewBox="0 0 78.107399 71.183868" width="78.107399mm" xmlns="http://www.w3.org/2000/svg">
    <path color="#000" d="m 14330.507,4935.2171 c -18.679,-0.4371 -37.352,7.8641 -51.647,10.4413 -14.565,2.6257 -17.312,13.6897 -22.384,22.5743 -5.071,8.8846 -24.681,7.8494 -33.065,13.3261 -8.386,5.4768 1.899,19.6557 6.699,45.5184 4.801,25.8626 -0.205,35.5404 21.297,46.1289 4.869,34.2604 85.944,48.3321 110.35,40.1632 24.408,-8.1688 37.932,-35.0506 43.004,-52.5764 5.071,-17.5257 -14.807,-106.0091 -21.095,-113.5549 -6.289,-7.5458 -21.536,-7.1555 -45.166,-11.2591 -2.655,-0.4613 -5.326,-0.6995 -7.993,-0.7618 z m 98.459,120.1031 c -3.19,-0.2445 -6.477,1.0142 -8.992,4.1901 -8.114,17.5865 14.677,30.6731 19.342,14.9728 3.209,-10.7937 -3.335,-18.6247 -10.35,-19.1629 z m -167.756,46.3699 c -7.935,-0.1904 -16.347,1.6269 -22.788,3.3385 -17.174,4.5641 -27.855,36.2699 -16.563,48.7449 11.292,12.4749 48.819,-5.3549 63.762,-24.5237 0.718,-21.3368 -11.187,-27.2423 -24.411,-27.5597 z m 107.656,19.6391 c -3.829,0.016 -7.841,0.3137 -12.043,0.9242 -44.831,6.5112 -60.179,30.6714 -56.122,50.0836 0,0 136.585,12.8395 130.431,-7.1812 -5.575,-18.1437 -25.259,-43.9874 -62.266,-43.8266 z" fill="#FFFFFF" overflow="visible" paint-order="fill markers stroke" transform="translate(41.70839,-118.38103) matrix(0.2881372,0,0,0.2881372,-4131.5134,-1301.9459)"/>
    <path d="m 14434.231,5044.7608 -15.658,4.0658 c -12.45,-1.0303 -8.726,-1.668 -9.775,-10.7978 -0.667,-5.7839 0.624,-10.5142 2.867,-10.5142 6.201,0 4.87,-10.3527 -1.652,-12.8555 -5.036,-1.9325 -4.968,-3.8074 0.571,-15.4212 5.875,-12.3188 5.861,-14.148 -0.183,-26.8875 -3.568,-7.5188 -8.955,-13.6678 -11.971,-13.6678 -3.015,0 -6.569,-4.3193 -7.893,-9.5955 -2.461,-9.8071 -16.496,-16.3916 -24.456,-11.4721 -2.314,1.4307 -6.286,0.9547 -8.823,-1.0642 -2.536,-2.0189 -12.516,-4.8151 -22.182,-6.2122 -13.412,-1.9387 -18.726,-1.1558 -22.428,3.3049 -2.788,3.3584 -8.326,5.0326 -13.018,3.938 -14.617,-3.41 -38.219,7.4586 -44.494,20.4905 -3.797,7.8863 -8.562,11.9437 -14.094,11.9985 -23.207,0.2301 -37.009,13.7967 -28.271,27.7895 2.603,4.166 5.423,10.3935 6.269,13.8358 9.867,40.2152 10.09,43.0526 3.954,49.8316 -3.354,3.7069 -6.1,8.3437 -6.1,10.3013 0,5.0422 11.537,11.6077 25.942,14.7714 14.334,3.1483 16.483,9.7466 3.175,9.7466 -14.982,0 -52.061,23.5097 -52.061,33.0101 0,2.6421 5.814,11.145 12.918,18.8997 11.135,12.1537 14.688,13.8413 25.756,12.217 7.061,-1.0366 15.992,0.026 19.84,2.3638 5.65,3.4322 8.265,2.7027 13.594,-3.7923 3.632,-4.4233 10.304,-10.0252 14.829,-12.4466 5.733,-3.0679 8.587,-8.74 9.405,-18.7205 l 1.171,-14.3232 22.944,3.9939 22.944,3.9883 -21.986,10.1389 c -15.093,5.8275 -30.076,23.4594 -23.573,37.3053 6.602,12.3353 16.951,7.337 16.951,-8.1895 0,-12.2845 7.281,-13.6424 26.429,-23.3406 38.073,-19.2847 70.73,-11.5097 83.337,17.0649 8.239,23.8143 27.041,16.2262 16.029,-1.7463 -14.077,-22.204 -15.753,-29.4327 -33.705,-35.7307 -22.757,-7.9836 -24.214,-3.9231 -11.908,-16.2278 8.615,-8.6156 9.239,-11.1184 13.905,-13.3852 7.068,-3.4327 6.265,15.0033 9.995,16.9446 23.471,12.2165 19.712,-5.2824 33.549,-7.9341 14.768,-2.8306 23.459,-14.5449 9.039,-21.2648 23.331,-6.2373 -0.571,-46.0078 -21.182,-30.4108 z m -91.554,-101.3762 c 1.877,0 4.383,2.5254 5.567,5.6128 2.3,5.9926 -2.458,11.1093 -6.537,7.03 -3.645,-3.6443 -2.954,-12.6428 0.97,-12.6428 z m -22.289,0.6499 c 2.017,-0.2384 2.511,1.5081 1.261,4.7669 -1.279,3.3305 -4.003,6.0553 -6.056,6.0553 -5.026,0 -1.879,-8.6929 3.837,-10.5982 0.349,-0.1164 0.67,-0.1901 0.958,-0.224 z m 53.898,3.5458 c 0.641,-0.026 1.219,0.1832 1.703,0.6665 1.615,1.6151 1.325,7.4919 -0.644,13.0629 -4.309,12.192 -13.136,16.2687 -13.136,6.0665 0,-8.0786 7.589,-19.6248 12.077,-19.7959 z m -105.271,7.338 c 2.776,-0.3186 5.239,3.8883 5.239,11.4105 0,6.3095 -0.646,11.472 -1.441,11.472 -4.39,0 -10.561,-12.2171 -8.665,-17.1576 1.425,-3.712 3.203,-5.5337 4.867,-5.7249 z m 50.706,17.2807 c 19.144,-0.1135 24.959,1.6865 41.183,12.7492 18.109,12.3492 33.631,31.9072 28.999,36.5391 -1.213,1.2123 -5.502,2.2014 -9.533,2.2014 -4.173,0 -6.637,2.0567 -5.719,4.7782 0.885,2.629 5.765,4.8372 10.838,4.907 8.351,0.1147 9.126,1.5655 8.218,15.2979 -1.461,22.0939 -7.462,37.6629 -18.518,48.0502 -8.209,7.7104 -14.36,9.3435 -39.083,10.3573 -24.695,1.0126 -32.037,-0.1988 -46.331,-7.6349 -23.43,-12.1905 -32.179,-25.4047 -32.724,-49.4227 -0.533,-23.4724 10.705,-49.813 28.304,-66.3505 10.479,-9.8453 15.011,-11.3574 34.366,-11.4721 z m -78.057,6.3467 c 3.952,0.187 7.422,2.4294 13.13,7.1811 6.042,5.031 7.917,8.9722 5.45,11.4385 -2.467,2.4662 -6.169,1.0963 -10.761,-3.9771 -3.852,-4.2562 -11.47,-7.8622 -16.927,-8.0103 -8.977,-0.2432 -9.193,-0.5785 -2.276,-3.5514 4.945,-2.1248 8.309,-3.2264 11.384,-3.0808 z m 111.622,33.671 c -7.916,0 -10.559,4.5212 -5.91,10.1221 2.324,2.7994 5.753,4.1494 7.618,2.9968 5.272,-3.2584 3.988,-13.1189 -1.708,-13.1189 z m -48.142,7.6176 c -6.865,1.5281 -9.147,8.0969 -4.155,11.3437 7.008,4.5019 12.975,0.4535 10.578,-7.0966 0,0 -2.339,-4.6479 -6.423,-4.2471 z m -67.591,23.7009 c 0.654,0.1551 1.545,0.8285 2.715,1.9997 2.341,2.3398 3.597,6.2301 2.791,8.6488 -1.901,5.7012 -7.042,0.5604 -7.042,-7.0412 0,-2.6902 0.442,-3.8661 1.536,-3.6073 z m 136.408,7.5228 c -5.208,0.212 -13.858,2.005 -28.96,5.2039 -14.721,3.1184 -34.081,5.6688 -43.019,5.6688 -10.87,0 -16.256,1.6617 -16.256,5.0189 0,5.6136 17.911,23.4796 26.769,26.7027 28.56,10.3922 77.59,-13.9829 70.849,-35.2226 -1.685,-5.3077 -2.688,-7.6442 -9.383,-7.3717 z m 53.254,14.6929 c 2.104,0 3.827,1.7227 3.827,3.8259 0,2.1032 -1.723,3.8259 -3.827,3.8259 -2.103,0 -3.825,-1.7227 -3.825,-3.8259 0,-2.1032 1.722,-3.8259 3.825,-3.8259 z m -69.397,0.7338 c 11.158,0.321 10.829,4.3217 -0.947,12.0378 -16.92,11.0864 -38.822,10.7886 -45.877,-0.6274 -3.071,-4.968 4.248,-7.382 31.833,-10.5029 6.275,-0.7097 11.272,-1.0145 14.991,-0.9075 z m -113.494,41.4405 c 1.719,0.2276 4.371,2.6528 6.985,7.5396 2.394,4.4724 8.011,7.6462 13.522,7.6462 5.829,0 9.423,2.1887 9.423,5.7361 0,6.6251 -2.341,7.4092 -5.736,1.9156 -1.3,-2.1031 -6.284,-3.8258 -11.081,-3.8258 -5.591,0 -10.286,-3.4327 -13.079,-9.5619 -2.919,-6.4053 -2.246,-9.7426 -0.03,-9.4498 z m -10.621,27.2124 c 1.738,0.2592 2.355,2.1135 1.721,5.383 -0.727,3.7486 -3.634,7.5834 -6.464,8.5256 -3.292,1.096 -4.672,-0.738 -3.827,-5.0974 0.728,-3.7485 3.64,-7.5889 6.47,-8.5312 0.823,-0.2739 1.521,-0.3664 2.1,-0.2802 z" fill="#00B894" transform="translate(41.70839,-118.38103) matrix(0.2881372,0,0,0.2881372,-4131.5134,-1301.9459)"/>
</svg>