<?xml version="1.0" ?><svg height="89.193504mm" viewBox="0 0 64.005524 89.193504" width="64.005524mm" xmlns="http://www.w3.org/2000/svg">
    <path color="#000" d="m 15261.417,4886.8214 c -25.624,-0.08 -52.406,13.4175 -69.2,42.3533 -17.915,30.865 -27.466,183.1197 -33.112,233.5576 76.747,35.8834 190.37,16.939 190.37,16.939 0,0 29.484,-129.7944 14.009,-189.5794 -14.501,-38.4479 -59.744,-102.2443 -102.067,-103.2705 z m 66.52,124.6629 -4.812,88.516 c -15.819,-22.2396 -42.886,-39.0916 -118.921,-32.4948 l 1.328,-41.0931 c 42.39,23.9738 83.889,31.7048 122.405,-14.9281 z" fill="#FFFFFF" overflow="visible" paint-order="fill markers stroke" transform="translate(-50.9568,85.080986) matrix(0.2881372,0,0,0.2881372,-4315.7121,-1491.6285)"/>
    <path d="m 15252.654,4881.5305 c -12.278,0.1782 -19.042,2.6832 -32.364,9.934 -11.23,6.1119 -21.379,13.6176 -22.556,16.6818 -1.175,3.0641 -4.934,5.5704 -8.353,5.5704 -3.559,0 -6.212,3.5528 -6.212,8.3171 0,4.5751 -2.779,13.6845 -6.171,20.2427 -3.392,6.5581 -6.999,27.0129 -8.02,45.4556 -1.687,30.4642 -6.193,83.8343 -12.889,152.6558 -2.316,23.7987 -1.916,25.6591 5.185,24.2973 6.307,-1.2096 8.182,-6.4362 10.421,-29.0534 1.502,-15.1692 5.475,-31.7655 8.829,-36.8827 16.459,-25.1205 82.991,-34.0671 113.287,-15.2312 8.399,5.2219 17.028,12.7741 19.173,16.7828 5.219,9.7509 6.891,47.2055 2.942,65.8469 -2.911,13.7429 -2.221,15.5277 8.128,21.075 9.118,4.8878 12.088,5.0588 15.362,0.868 2.232,-2.8579 6.176,-4.4863 8.763,-3.6145 7.357,2.4809 10.206,-5.2316 18.168,-49.1771 12.234,-67.535 13.525,-98.1346 5.759,-136.6163 -3.798,-18.8304 -9.388,-38.7991 -12.417,-44.3795 -3.03,-5.5803 -8.136,-15.6269 -11.35,-22.3234 -7.188,-14.976 -21.819,-28.4884 -35.284,-32.5905 -5.571,-1.6975 -12.203,-5.9169 -14.732,-9.3754 -3.071,-4.2003 -13.396,-6.8506 -31.104,-7.9782 -5.765,-0.3671 -10.472,-0.5647 -14.565,-0.5052 z m 9.394,11.2241 c 7.127,0.086 12.704,1.4873 13.649,4.3219 0.819,2.4555 4.241,4.4649 7.604,4.4649 12.32,0 31.198,29.1392 35.051,54.1055 1.81,11.7214 1.199,14.6365 -2.472,11.8483 -2.68,-2.0341 -24.962,-4.0875 -49.516,-4.5598 -24.555,-0.4723 -47.578,-1.7327 -51.17,-2.806 -12.347,-3.6906 -15.899,7.278 -8.001,24.7252 9.465,20.9111 18.958,28.9993 39.44,33.6012 21.387,4.8056 42.336,-2.0877 60.823,-20.005 l 13.697,-13.2751 v 10.3979 c 0,13.5149 -12.459,29.063 -29.927,37.3524 -50.796,24.1039 -117.707,-25.0803 -103.603,-76.1556 4.71,-17.0652 12.91,-24.2398 23.761,-20.7956 10.125,3.2136 11.107,-4.054 1.29,-9.5477 -6.562,-3.6721 -6.497,-4.5045 1.005,-12.7937 4.412,-4.8758 13.315,-11.6028 19.78,-14.9457 7.707,-3.9856 19.425,-6.0444 28.589,-5.9331 z m -22.188,25.9976 c -4.811,0.1379 -9.32,5.7682 -6.182,10.8436 1.5,2.4266 4.339,4.4112 6.307,4.4112 6.269,0 9.201,-8.6575 4.519,-13.3406 -1.401,-1.3997 -3.04,-1.9603 -4.644,-1.9142 z m 40.034,3.0794 c -7.271,0 -10.124,8.1449 -4.738,13.5309 4.1,4.0996 8.002,3.2766 12.996,-2.7408 5.362,-6.4603 2.052,-10.7901 -8.258,-10.7901 z m -24.374,52.8986 c 18.353,0.1979 37.592,1.5011 41.121,3.7335 5.051,3.1947 4.75,5.0492 -2.022,12.5321 -4.369,4.8291 -12.877,11.3326 -18.909,14.4523 -19.488,10.0772 -35.845,5.7498 -48.001,-12.6926 -4.378,-6.6423 -7.975,-13.444 -7.991,-15.1181 -0.03,-2.1947 17.448,-3.105 35.802,-2.9072 z m 86.202,26.5266 c 4.448,-1.3585 5.259,47.7275 1.153,81.8984 -1.408,11.719 -4.408,21.307 -6.67,21.307 -5.454,0 -0.667,-97.176 5.071,-102.9141 0.154,-0.1508 0.302,-0.2475 0.446,-0.2913 z m 20.582,26.0987 c 5.685,0 4.04,29.4957 -4.822,86.5058 -4.573,29.4249 -9.717,54.899 -11.426,56.6083 -1.708,1.7093 -0.72,-13.8123 2.2,-34.4929 2.92,-20.6805 6.49,-53.5804 7.93,-73.1117 1.442,-19.5313 4.195,-35.5095 6.118,-35.5095 z m -41.151,3.5016 v 26.6575 c 0,23.6549 -3.781,32.8925 -9.607,23.4648 -1.085,-1.755 -10.772,-7.5852 -21.522,-12.9541 -19.285,-9.6316 -50.909,-12.3407 -70.703,-6.058 -6.15,1.9519 -7.746,0.4566 -7.746,-7.2826 0,-13.9303 2.319,-14.8135 21.46,-8.1684 23.791,8.2589 58.743,5.2569 75.194,-6.4563 z m -133.231,-8.3743 c 1.999,4.5811 -4.753,50.8004 -4.753,51.7847 0,0.9843 -1.827,1.7895 -4.06,1.7895 -2.232,0 4.752,-49.4209 4.752,-51.7846 0.758,-2.8662 1.672,-7.1849 4.061,-1.7896 z" fill="#00B894" transform="translate(-50.9568,85.080986) matrix(0.2881372,0,0,0.2881372,-4315.7121,-1491.6285)"/>
</svg>