<?xml version="1.0" ?><svg height="93.890434mm" viewBox="0 0 63.591606 93.890434" width="63.591606mm" xmlns="http://www.w3.org/2000/svg">
    <path color="#000" d="m 14573.845,4859.5164 a 86.262038,84.188423 0 0 0 -86.259,84.186 86.262038,84.188423 0 0 0 86.259,84.1916 86.262038,84.188423 0 0 0 86.264,-84.1916 86.262038,84.188423 0 0 0 -86.264,-84.186 z m -5.018,188.2912 c -53.514,1.5066 -62.608,47.2846 -71.073,98.1674 -4.349,27.9585 171.549,27.3555 171.827,9.349 0.599,-38.6006 -12.967,-97.6112 -82.674,-106.5194 -6.534,-0.8351 -12.544,-1.1529 -18.08,-0.997 z" fill="#FFFFFF" overflow="visible" paint-order="fill markers stroke" transform="translate(-27.271408,-95.08158) matrix(0.2881372,0,0,0.2881372,-4140.6989,-1300.1336)"/>
    <path d="m 14581.233,4842.2244 c -3.832,-0.2272 -9.102,0.6877 -17.768,2.6271 -11.084,2.4807 -25.041,5.0289 -31.009,5.6632 -6.45,0.6852 -14.46,5.6656 -19.735,12.2675 -4.883,6.1109 -10.119,9.8777 -11.634,8.3744 -4.718,-4.6764 -16.052,3.9655 -18.62,14.1999 -1.348,5.367 -5.846,13.1559 -9.998,17.3088 -9.687,9.6856 -9.652,21.4762 0.09,27.5598 5.212,3.2548 7.652,8.9194 7.652,17.7793 0,29.2598 30.49,65.6699 68.966,82.3599 15.397,6.6788 40.898,7.7036 55.31,2.2238 18.335,-6.9709 47.265,-35.3555 55.468,-54.4192 6.436,-14.9626 9.599,-18.2388 17.616,-18.2388 6.124,0 9.173,-1.7826 8.167,-4.7781 -0.882,-2.629 -4.875,-4.7864 -8.873,-4.7894 -4.336,0 -7.721,-3.0876 -8.396,-7.6461 -3.038,-20.5239 -10.112,-40.3925 -16.408,-46.0896 -5.49,-4.9697 -6.087,-7.7694 -2.778,-13.0685 5.971,-9.5614 1.298,-18.5735 -11.169,-21.5381 -5.874,-1.3967 -13.636,-5.1098 -17.248,-8.2454 -3.866,-3.3565 -10.096,-4.7728 -15.152,-3.4507 -5.236,1.3695 -11.23,-0.1437 -15.349,-3.8705 -2.904,-2.6285 -5.294,-3.9999 -9.124,-4.2293 z m -2.521,36.1861 c 0.675,-0.017 1.401,-0.011 2.186,0.021 3.765,0.1511 8.875,0.851 16.054,2.0501 20.009,3.3418 24.849,5.9797 39.087,21.2636 13.928,14.9512 16.255,19.8108 16.255,33.9903 0,15.8347 -0.492,16.5471 -11.47,16.5471 -7.648,0 -11.473,1.9119 -11.473,5.736 0,3.569 3.608,5.736 9.556,5.736 5.258,0 9.563,0.9445 9.563,2.1006 0,10.5085 -24.106,38.2909 -45.782,52.7668 -25.576,17.0793 -75.092,-2.8512 -100.487,-40.449 -13.361,-19.7831 -14.972,-50.0046 -3.008,-56.4079 4.128,-2.2092 6.589,-6.3997 5.473,-9.3098 -0.4,-1.0397 -0.554,-2.1361 -0.505,-3.1815 a 14.986934,13.174044 0 0 0 7.328,-2.3191 c 0.262,0.4196 0.51,0.8643 0.705,1.3723 3.579,9.3261 16.633,6.5217 25.118,-5.3942 4.349,-6.1086 7.91,-12.7532 7.91,-14.7658 0,-2.0127 4.567,-2.7821 10.155,-1.7142 6.537,1.2497 11.688,-0.1485 14.446,-3.921 1.966,-2.6875 4.166,-4.0043 8.889,-4.1228 z m -50.475,10.1109 c 1.017,0.06 1.686,0.8084 1.686,2.123 0,2.1031 -1.717,4.8898 -3.819,6.1897 -2.104,1.2999 -3.827,0.6411 -3.827,-1.4621 0,-2.1031 1.723,-4.8842 3.827,-6.184 0.789,-0.4874 1.522,-0.7026 2.133,-0.6666 z m 28.736,40.8187 c -7.649,0 -10.711,7.409 -5.299,12.8218 4.099,4.0988 10.627,0.5907 11.992,-6.4473 0.835,-4.2985 -1.346,-6.3745 -6.693,-6.3745 z m 51.557,0.7506 c -6.123,-0.3662 -9.827,6.3355 -6.436,11.0407 5.332,6.9528 10.548,5.0542 14.077,-0.6555 3.019,-4.8854 -1.717,-10.1384 -7.641,-10.3852 z m -67.465,56.671 c -2.059,0.1614 -3.49,1.1751 -3.49,3.1705 0,3.976 11.348,14.1144 19.118,17.079 10.671,4.0718 47.57,-6.8501 43.793,-12.9619 -1.099,-1.7787 -6.353,-1.5803 -11.674,0.4426 -14.235,5.4123 -30.519,4.4824 -35.944,-2.0558 -3.195,-3.8487 -8.369,-5.9437 -11.803,-5.6744 z m 36.841,57.4777 c -15.918,-0.029 -31.801,1.2076 -40.886,3.7306 -21.775,6.0482 -33.94,25.1313 -38.276,60.0544 -1.979,15.9495 -2.665,31.4213 -1.528,34.3824 4.032,10.5092 9.048,0.7628 11.746,-22.8151 3.494,-30.5408 9.866,-42.6647 28.646,-54.5201 19.823,-12.513 61.277,-13.5344 83.766,-2.0615 28.678,14.6308 45.196,44.6747 41.077,74.7194 -1.224,8.9286 -1.149,17.3175 0.174,18.642 1.325,1.3245 5.809,2.4087 9.965,2.4087 6.964,0 7.365,-1.8252 5.12,-23.3025 -4.551,-43.5353 -28.333,-78.912 -58.721,-87.3509 -9.211,-2.5575 -25.158,-3.8571 -41.077,-3.8874 z" fill="#00B894" transform="translate(-27.271408,-95.08158) matrix(0.2881372,0,0,0.2881372,-4140.6989,-1300.1336)"/>
</svg>