<?xml version="1.0" ?><svg height="90.665657mm" viewBox="0 0 58.935951 90.665657" width="58.935951mm" xmlns="http://www.w3.org/2000/svg">
    <g paint-order="markers stroke fill">
        <path d="m -6619.2285,-392.24805 c 0,0 -24.422,3.49346 -36.461,6.89844 0,0 -30.0236,2.92021 -42.996,-2.87305 -12.9729,-5.79326 -55.9688,1.14844 -55.9688,1.14844 l -2.4082,49.61914 c 0,0 22.212,-6.23404 39.3125,-6.45703 17.1001,-0.2211 31.6453,13.22275 57.1484,13.40039 25.5028,0.17688 46.8281,-9.5088 48.4004,-16.76172 1.5727,-7.25253 -7.0273,-44.97461 -7.0273,-44.97461 z m -98.3262,84.11328 -73.1172,11.98438 0.3379,227.835937 75.3301,-2.386719 0.7383,-70.845708 56.9511,75.222661 58.918,-11.320312 11.3555,-229.119139 -52.4317,-0.97266 -13.1211,104.05664 z" fill="#FFFFFF" transform="translate(-76.574984,-34.7973) translate(3411.4242,1113.7036) matrix(0.26458333,0,0,0.26458333,-1536.012,-972.91664)"/>
        <path d="m -3288.864,-1078.9063 c -0.3278,0 -0.6351,0.088 -0.9054,0.2729 -7.9976,3.1049 -11.062,3.4761 -16.5577,1.5431 -6.0679,-2.1344 -15.2889,-1.5981 -18.0991,0.8206 -1.3482,1.1606 -1.5898,4.8268 -1.7911,7.6155 -0.1896,2.6269 0.3732,8.0535 0.8356,9.1524 0.6096,1.4494 3.2634,0.358 3.9734,0.021 2.9745,-2.222 8.1734,-3.1911 11.5052,-1.1782 2.9021,1.7534 7.6671,3.0332 12.8287,2.6763 3.715,-0.2569 6.1445,-1.1508 8.1907,-2.0825 3.4107,-1.5529 5.9533,-2.9804 5.994,-6.3996 0.2253,-1.9995 -0.2932,-6.1882 -1.5741,-9.1927 -0.5133,-1.2039 -2.6075,-3.1574 -4.2581,-3.2458 h -5e-4 c -0.048,0 -0.095,0 -0.1416,0 z m -0.2378,4.2034 -5e-4,5e-4 c 0.1395,-0.01 0.2415,0.023 0.3054,0.085 0.5107,0.4946 1.3599,2.1869 1.5245,3.8174 0.3765,2.0755 0.2366,4.5922 -0.679,5.828 -0.7095,0.6161 -1.4787,0.9344 -2.2237,1.4067 -1.6833,1.0669 -10.989,3.1921 -15.9695,0.17 -4.9807,-3.0221 -12.4202,-3.0635 -15.4802,-0.9514 -1.2518,0.864 -1.1143,-3.2268 -1.0248,-4.6979 0.2177,-3.5825 0.8173,-4.0196 1.7023,-4.3677 0.8846,-0.3482 5.7931,-1.3029 9.127,-0.6842 3.3338,0.6189 9.4875,3.077 14.5697,2.1079 2.802,-0.5341 5.434,-2.5129 8.1488,-2.714 z m -28.0572,17.5607 c -5.959,-0.013 -12.7639,1.4907 -15.5349,3.4334 -1.9207,1.3465 -1.9605,3.4778 -2.1136,12.8596 -0.093,5.6755 -0.025,14.3568 0.1493,19.2919 0.1746,4.9352 0.3793,13.9293 0.4543,19.9864 0.076,6.05727 0.3932,11.40746 0.7064,11.88916 1.9233,2.7269 12.2029,0.93252 20.4773,-0.0951 3.3521,-0.4164 3.4041,-1.21303 4.1336,-6.50503 l 0.7622,-5.53453 3.1104,5.16349 c 4.3226,7.174 5.2755,7.85043 11.0335,7.82743 6.7488,-0.0266 13.9352,-2.78156 15.0662,-5.77536 1.5738,-4.1655 3.8198,-50.78546 2.6991,-56.02086 -1.3449,-6.2807 -2.5615,-6.8895 -11.7073,-5.8601 -4.2365,0.4768 -7.1347,-0.5483 -7.7142,3.9724 l -2.5885,20.1848 -3.6138,-6.2808 c -10.4234,-18.1174 -10.0244,-18.5238 -15.32,-18.5368 z m 27.9069,3.8385 c 0.7455,0 1.6095,0.082 2.498,0.068 4.7262,-0.078 5.0148,0.4387 5.6539,3.4143 0.3708,1.7274 -1.0951,37.4125 -2.1616,51.58029 -0.2746,3.6479 0.5706,2.91679 -3.3507,4.11499 -1.7136,0.5453 -4.5629,1.17488 -6.3319,1.39888 -3.0784,0.3897 -3.4737,0.003 -9.2232,-9.04026 -6.6336,-10.433 -7.8831,-11.7299 -10.5059,-10.9006 -1.4523,0.4591 -1.726,1.3598 -1.4624,4.811 0.8464,11.07938 0.8355,13.45695 -0.063,13.90255 h -0.014 c -0.5324,0.2641 -8.3598,1.56462 -12.2871,1.67122 -3.7175,0.101 -2.8578,0.6362 -3.0458,-2.882 -0.6147,-12.46137 -0.9519,-52.28817 -1.3539,-53.56317 -0.462,-1.4645 3.8839,-2.2402 10.6097,-3.2111 4.761,-0.6873 5.806,-1.1345 6.6104,0.4015 l 6.6529,12.7036 c 7.0545,13.5163 9.524,16.1928 12.0891,13.1041 0.5525,-0.6655 1.5052,-7.1879 2.0971,-14.4942 l 1.2805,-11.4732 c 0.1513,-1.3552 1.0649,-1.6017 2.3074,-1.6056 z" fill="#00B894" transform="translate(-76.574984,-34.7973) translate(3411.4242,1113.7036)"/>
    </g>
</svg>