<?xml version="1.0" ?><svg height="75.026596mm" viewBox="0 0 58.033779 75.026596" width="58.033779mm" xmlns="http://www.w3.org/2000/svg">
    <path d="m -3450.3096,-963.55736 51.5569,0.97708 1.6021,15.52603 -15.332,0.90559 -0.1986,53.45341 -16.4575,-0.34555 -2.5818,-54.06111 -18.0595,-1.46562 z" fill="#FFFFFF" paint-order="markers stroke fill" transform="translate(-84.600594,-21.089389) translate(3537.3488,986.52371)"/>
    <path d="m -3441.5908,-945.68503 c -10.8623,-0.4759 -10.801,-0.4063 -10.9315,-12.3457 -0.1391,-6.1667 -1.5046,-7.4706 4.5984,-7.401 18.2252,0.2079 48.3075,-0.3453 50.0379,0.8474 1.4403,0.9931 3.1401,8.3454 3.1712,13.7188 0.03,5.0855 -1.7435,6.602 -7.5979,6.4975 -9.6491,-0.172 -8.6239,-3.2937 -8.0614,24.5428 0.6153,30.45146 0.9469,29.52446 -10.3783,29.02806 -4.2093,-0.1844 -7.5451,0.3049 -8.3926,0.3852 -0.6168,0.058 -2.205,-0.4806 -2.3063,-1.4521 -0.3486,-3.344 -0.8678,-40.12266 -1.0138,-48.85276 0.011,-5.1387 -1.3217,-4.6261 -9.1257,-4.9682 z m 26.5053,46.4281 -0.01,-45.4749 c 0.1065,-4.4465 -0.565,-3.3734 3.7303,-3.906 1.9934,-0.2472 5.5379,-0.5238 7.8519,-0.2749 5.1687,0.5561 4.1665,-0.5745 3.7865,-5.2417 -0.241,-2.9785 -0.7095,-5.7004 -1.038,-6.0481 -0.7693,-0.8149 -15.6847,-1.3948 -33.7972,-1.314 -15.9751,0.071 -14.5318,-0.5673 -13.6216,8.0258 0.5753,5.4317 3.4047,3.6736 7.9631,3.473 5.4015,-0.2376 7.8024,0.038 9.0569,1.0435 2.4434,1.9564 3.7027,14.4958 3.5463,35.3042 -0.071,9.4424 -0.085,17.55266 -0.033,18.02266 0.052,0.4701 1.0747,0.6312 2.2708,0.3582 1.8228,-0.275 5.6534,-0.312 7.3299,-0.3027 3.6289,0.215 3.0781,0.8375 2.9617,-3.66506 z" fill="#00B894" transform="translate(-84.600594,-21.089389) translate(3537.3488,986.52371)"/>
</svg>