<?xml version="1.0" ?><svg height="74.38829mm" viewBox="0 0 52.663338 74.38829" width="52.663338mm" xmlns="http://www.w3.org/2000/svg">
    <path d="m -3385.6738,-1155.57 46.4541,-0.169 -1.7045,17.6406 -27.3293,2.0799 0.043,10.3478 15.398,0.676 -1.0978,13.9487 -14.098,1.5859 -1.17,22.5805 -15.7447,-1.2479 z" fill="#FFFFFF" paint-order="markers stroke fill" transform="translate(-109.21192,-43.733402) translate(3497.5784,1203.2854)"/>
    <path d="m -3384.6781,-1085.8415 c -2.1431,-0.8983 -2.5291,-3.1051 -2.4185,-13.8302 0.041,-3.9594 -0.3466,-18.2085 -0.8607,-31.6647 -0.588,-15.3889 -0.5402,-24.798 0.13,-25.3608 1.0505,-0.883 30.6188,-3.1369 39.1308,-2.8255 2.4119,0.085 6.0938,0.7089 8.1833,1.3793 4.7928,1.5378 5.7073,4.4302 4.0446,12.7896 -1.7921,9.0106 2.1396,9.7819 -15.926,10.6049 -13.9831,0.637 -14.5707,0.7532 -14.2169,2.8072 0.203,1.1785 0.3175,2.7506 0.2543,3.4934 -0.097,1.0137 1.6704,1.3407 7.0537,1.3114 3.9426,-0.021 7.496,0.3355 7.8967,0.7924 0.7973,0.9103 0.8767,12.6349 0.104,15.2981 -0.6004,2.0686 -5.7513,3.6901 -11.1202,3.5007 -3.756,-0.1325 -4.0369,0.039 -3.5747,2.1885 0.276,1.2828 0.389,6.1401 0.2514,10.7941 -0.1961,6.6366 -0.5633,8.5505 -1.7071,8.874 -2.739,0.7759 -15.2743,0.6651 -17.2247,-0.1524 z m 9.8784,-3.6091 4.0098,0.1274 0.3425,-10.0495 c 0.185,-5.5274 0.7117,-10.5385 1.1633,-11.1363 0.4508,-0.5976 3.502,-1.3184 6.7804,-1.6018 3.2784,-0.2835 6.157,-0.8232 6.3971,-1.1995 0.2404,-0.3763 0.3453,-4.9142 0.3203,-7.3199 -0.084,-2.5787 0.9705,-2.3997 -3.9593,-2.5737 -3.5807,-0.1263 -9.2348,-0.5447 -9.8624,-1.2614 -1.2065,-1.3775 -0.405,-14.1696 0.8915,-14.2274 9.7652,-0.4348 25.55,-2.1107 25.8563,-2.3958 0.1315,-0.1224 0.8138,-2.8337 1.5168,-6.0253 1.1759,-4.8803 2.3188,-5.5671 -2.5222,-6.6639 -3.7331,-0.8456 -21.3867,-0.7255 -34.3608,0.076 -5.0396,0.3218 -6.7732,-7e-4 -6.4074,4.1184 0.1045,2.0407 0.6892,13.4542 1.2994,25.3629 0.6099,11.9089 0.9297,24.7895 0.7102,28.6237 -0.3653,6.4111 -0.2286,6.933 1.709,6.4949 1.159,-0.262 3.9114,-0.4191 6.1167,-0.3491 z" fill="#00B894" transform="translate(-109.21192,-43.733402) translate(3497.5784,1203.2854)"/>
</svg>