<?xml version="1.0" ?><svg height="75.536812mm" viewBox="0 0 55.915638 75.536812" width="55.915638mm" xmlns="http://www.w3.org/2000/svg">
    <path d="m -3389.3163,-962.79883 16.5369,0.23831 c 0,0 3.6675,35.46084 3.257,38.88062 -0.4104,3.41978 4.2766,6.74423 6.4215,6.14846 2.1449,-0.59578 4.5281,-3.47936 5.2033,-8.63882 0.6753,-5.15946 1.4432,-37.05753 1.4432,-37.05753 l 18.3905,0.0238 c 0,0 -0.768,40.06028 -2.7672,50.29578 -1.9992,10.23551 -7.2556,21.19787 -23.2628,19.57735 -16.0073,-1.62053 -22.4022,-9.66356 -24.5604,-23.97421 -2.1581,-14.31064 -0.662,-45.49378 -0.662,-45.49378 z" fill="#FFFFFF" paint-order="markers stroke fill" transform="translate(-131.9039,-36.381886) translate(3523.3731,1001.9568)"/>
    <path d="m -3370.0753,-891.02757 c -7.3148,-2.0282 -15.4553,-9.41576 -18.4029,-16.70046 -1.9628,-4.8521 -2.9449,-17.4109 -2.977,-38.0715 l -0.014,-9.2634 c 0.1345,-10.2417 -0.412,-9.1936 2.4491,-9.8872 4.2461,-1.0293 14.5754,-0.6513 16.349,0.667 2.0804,1.5463 3.2775,9.8291 3.8754,26.8142 0.5783,16.4296 3.4507,21.6004 7.7805,14.0058 1.2266,-2.1515 1.7355,-6.3652 2.1008,-17.3942 0.265,-8.0051 0.3266,-16.738 0.1344,-19.4065 -0.5351,-4.6446 -0.8702,-4.8231 3.4383,-5.0578 6.7163,-0.3659 17.9314,-0.3846 18.8483,0.2734 1.2231,0.8778 1.2416,4.8347 0.1186,25.7136 -1.3428,24.9691 -2.4521,31.6904 -6.3139,38.2606 -2.2607,3.8462 -7.9812,8.84466 -11.5919,10.12886 -3.4931,1.2424 -11.1602,1.2023 -15.7943,-0.082 z m 17.4336,-5.92256 c 2.1216,-1.3138 4.7496,-4.3795 6.598,-7.6981 3.7672,-6.7633 5.6234,-19.9625 5.9105,-42.031 l 0.095,-7.2775 c 0.053,-7.2442 -0.1776,-7.4756 -7.3198,-7.5635 -5.0049,-0.062 -7.2048,-0.3871 -6.7847,3.3961 0.2269,2.0436 0.4348,10.0136 0.1958,17.752 -0.3474,11.3563 -0.8029,14.8113 -2.3456,17.9155 -3.7409,7.5255 -7.6156,9.2207 -11.9653,5.2349 -3.9534,-3.6228 -4.9265,-8.0083 -5.419,-24.4164 -0.2595,-8.6431 -0.6999,-16.4778 -0.9791,-17.4105 -0.614,-2.052 -3.7427,-2.9117 -9.0823,-2.4956 -2.5568,0.1995 -3.9003,0.7521 -3.7579,1.5464 0.1215,0.68 0.4268,8.9763 0.6776,18.4361 0.7809,29.4441 1.7451,33.8115 8.9791,40.6791 4.4466,4.22156 9.2079,6.03256 15.9786,6.07776 4.2505,0.028 6.5868,-0.5153 9.2193,-2.14526 z" fill="#00B894" transform="translate(-131.9039,-36.381886) translate(3523.3731,1001.9568)"/>
</svg>