<?xml version="1.0" ?><svg height="75.92173mm" viewBox="0 0 58.935886 75.92173" width="58.935886mm" xmlns="http://www.w3.org/2000/svg">
    <path d="m -3401.9542,-1057.0204 19.4369,-3.3464 16.1216,29.8251 3.9784,-30.2112 14.2235,0.7489 -2.8083,66.7291 -17.1747,3.44001 -13.5084,-20.80391 -0.6761,19.97316 -18.8519,0.1521 z" fill="#FFFFFF" paint-order="markers stroke fill" transform="translate(-64.216642,-42.567973) translate(3468.5094,1105.7243)"/>
    <path d="m -3402.9411,-988.82867 c -0.3132,-0.5328 -0.6308,-6.4503 -0.7064,-13.14983 -0.075,-6.6993 -0.2798,-16.6467 -0.4544,-22.1051 -0.1748,-5.4584 -0.2418,-15.0601 -0.1492,-21.3373 0.1531,-10.3766 0.3602,-11.5617 2.2809,-13.051 2.771,-2.1487 9.5756,-3.8122 15.5346,-3.7975 5.2956,0.014 4.7298,-0.7087 15.1533,19.3297 l 3.6137,6.947 2.5881,-22.3249 c 0.5796,-5 3.4781,-3.8663 7.7146,-4.3937 9.1458,-1.1386 10.3622,-0.4651 11.7071,6.4816 1.1207,5.7905 -1.1254,57.35343 -2.6992,61.96053 -1.131,3.3113 -8.3171,6.358 -15.0659,6.3875 -5.758,0.025 -6.7108,-0.7225 -11.0334,-8.6572 l -3.1108,-5.71113 -0.7621,6.12133 c -0.7295,5.8531 -0.7816,6.7346 -4.1337,7.1951 -8.2744,1.1366 -18.5539,3.1211 -20.4772,0.1049 z m 19.2988,-4.7262 c 0.8985,-0.4928 0.9094,-3.1223 0.063,-15.37643 -0.2636,-3.8171 0.01,-4.8135 1.4624,-5.3213 2.6227,-0.9172 3.8723,0.5172 10.5059,12.0564 5.7495,10.00193 6.1448,10.43003 9.2232,9.99903 1.769,-0.2478 4.6183,-0.944 6.3319,-1.5472 3.9213,-1.3252 3.076,-0.5167 3.3506,-4.5514 1.0665,-15.67003 2.5325,-55.13893 2.1617,-57.04943 -0.6391,-3.2911 -0.928,-3.8621 -5.6542,-3.776 -2.3693,0.043 -4.5632,-0.6977 -4.8052,1.7005 l -1.2805,12.6898 c -0.5919,8.081 -1.5448,15.295 -2.0973,16.031 -2.5651,3.4162 -5.0343,0.4561 -12.0888,-14.4933 l -5.9646,-12.6131 c -1.3991,-3.2068 -0.8533,-2.5615 -4.2394,-2.2043 l -3.0593,0.3227 c -7.7388,0.8163 -11.0718,1.9319 -10.6098,3.5516 0.402,1.4102 0.7391,45.4595 1.3538,59.24213 0.188,3.8912 -0.6718,3.2996 3.0457,3.1879 3.9273,-0.1179 11.7548,-1.5565 12.2872,-1.8486 z" fill="#00B894" transform="translate(-64.216642,-42.567973) translate(3468.5094,1105.7243)"/>
</svg>