<?xml version="1.0" ?><svg height="75.530594mm" viewBox="0 0 61.750374 75.530594" width="61.750374mm" xmlns="http://www.w3.org/2000/svg">
    <path d="m -7803.7031,34.830078 c -18.9963,0.115896 -36.9972,6.818333 -47.3887,18.28125 -22.1684,24.454186 -49.6404,50.484432 -46.9883,131.052732 2.6525,80.56827 36.3807,109.52675 84.9707,115.9668 45.9878,-2.20675 63.6016,-37.37891 63.6016,-37.37891 l 42.4863,29.85743 27.8223,-33.41602 -35.2793,-36.43359 c 0,0 3.5022,-23.23875 4.4531,-63.36524 0.9509,-40.12652 -7.6545,-60.302295 -34.8769,-96.916014 -14.4622,-19.451059 -37.2717,-27.779787 -58.8008,-27.648438 z m 1.084,85.970702 c 1.0261,-0.006 2.0834,0.053 3.1718,0.17969 17.4142,2.02658 24.7182,23.68886 23.1172,41.74805 -1.6014,18.05918 -19.2295,34.08409 -31.7246,38.77539 -12.4955,4.69133 -23.4694,-18.60073 -20.8672,-43.73047 2.4864,-22.08143 10.9103,-36.87898 26.3028,-36.97266 z" fill="#FFFFFF" paint-order="markers stroke fill" transform="translate(-8.9905371,-75.453482) translate(3637.329,1041.7083) matrix(0.26458333,0,0,0.26458333,-1536.012,-972.91664)"/>
    <path d="m -3619.8801,-899.84263 c -6.8261,-8.6824 -8.5795,-15.1034 -8.452,-28.6945 0.058,-6.2888 0.5525,-12.9259 1.097,-14.749 2.511,-8.4094 10.6364,-17.4814 18.9166,-21.1215 8.9337,-3.9269 17.623,-1.5765 25.4919,6.8962 10.3449,9.766 11.1001,25.8773 8.2841,38.1034 -1.006,4.3675 -1.4949,4.8904 2.6977,7.8874 6.2545,4.4711 6.8747,8.5392 2.1439,14.0648 -4.0256,4.70166 -6.1887,4.36616 -11.4129,0.1033 -3.4999,-3.5864 -3.4029,-4.122 -6.5847,-0.4615 -1.5124,1.74006 -4.1002,3.74026 -5.658,4.61926 -9.4279,5.3197 -20.0666,1.565 -26.5236,-6.64786 z m 28.7334,-1.8252 c 4.8166,-5.2039 4.8922,-5.2333 10.0853,-0.9942 2.6704,2.1796 5.2134,3.9632 5.6516,3.9632 1.0391,0 4.6376,-4.1848 4.7022,-5.4684 0.029,-0.5469 -1.8967,-2.6154 -4.2766,-4.5968 -4.8012,-3.9979 -5.7259,-5.0264 -3.3268,-16.7903 3.1763,-15.5749 -3.8174,-27.7998 -13.6207,-33.8183 -8.1314,-4.992 -15.1379,-3.5719 -22.9725,4.6559 -6.4368,6.7599 -8.4287,12.0331 -8.9776,23.7642 -0.5931,12.6753 1.0158,18.5105 7.8741,27.8985 7.8828,10.78986 17.4307,8.38746 24.861,1.3862 z m -14.0527,-16.6931 c -4.1068,-2.6548 -4.8163,-14.0868 -1.2548,-20.2212 1.2304,-2.1192 3.1125,-4.1221 4.1825,-4.4506 7.6085,-2.3379 13.5558,7.923 9.9485,17.1652 -2.4257,6.2144 -8.9714,10.0304 -12.8762,7.5066 z m 6.6688,-5.3193 c 1.113,-1.1566 2.3297,-3.8559 2.7036,-5.9983 1.3033,-7.4687 -5.1973,-11.9079 -8.5202,-5.8184 -1.3058,2.393 -1.1169,10.7406 0.2928,12.9491 1.0158,1.5908 3.3665,1.109 5.5238,-1.1324 z" fill="#00B894" transform="translate(-8.9905371,-75.453482) translate(3637.329,1041.7083)"/>
</svg>