<?xml version="1.0" ?><svg height="73.93013mm" viewBox="0 0 50.527946 73.93013" width="50.527946mm" xmlns="http://www.w3.org/2000/svg">
    <path d="m -7864.7227,-694.39062 c -2.0319,0.0103 -3.1562,0.0371 -3.1562,0.0371 l 2.3769,256.02344 c 0,0 71.3593,5.88201 110.6426,-8.05273 39.2837,-13.93474 58.0488,-38.1099 58.4317,-77.55078 0.3832,-39.44051 -53.836,-55.44336 -53.836,-55.44336 0,0 9.0812,-17.92484 20.0782,-39.58985 10.9972,-21.66538 -2.0795,-40.81964 -33.8672,-58.93945 -27.8146,-15.85517 -86.4465,-16.55661 -100.67,-16.48437 z m 54.1114,53.11914 c 0,0 28.1634,1.54221 36.1367,14.5332 7.9733,12.99099 -33.916,35.20508 -33.916,35.20508 0,0 -7.1996,-10.73995 -6.4883,-23.19727 0.7109,-12.4577 4.2676,-26.54101 4.2676,-26.54101 z m 3.8281,100.15234 c 0,0 49.9531,12.45771 49.7891,28.70703 -0.1626,16.24895 -49.5645,26.45508 -49.5645,26.45508 z" fill="#FFFFFF" paint-order="markers stroke fill" transform="translate(34.831789,-48.746365) translate(3585.3488,1207.8522) matrix(0.26458333,0,0,0.26458333,-1536.012,-972.91664)"/>
    <path d="m -3617.0929,-1086.7746 c -1.7475,-0.8282 -2.2433,-2.163 -2.4047,-6.4763 -0.428,-11.4321 -0.8139,-43.6734 -0.6405,-53.5639 0.1767,-10.0999 0.2408,-10.3664 2.7562,-11.4749 4.029,-1.7757 19.3329,-0.4756 25.6991,2.1833 6.8651,2.8672 11.7079,7.9652 12.8175,13.493 0.8432,4.1993 0.2782,6.4108 -3.4444,13.4826 -0.6533,1.2407 -0.034,1.9518 2.615,3.0081 9.4087,3.7505 12.9193,15.8113 7.4469,25.5837 -4.4665,7.9762 -14.4346,13.6579 -26.3569,15.0229 -6.7421,0.772 -15.4547,0.179 -18.4884,-1.255 z m 25.419,-5.3806 c 7.3579,-2.1579 12.1969,-5.5143 15.1404,-10.5017 2.9891,-5.0649 3.4134,-8.6854 1.5185,-12.9604 -1.5846,-3.5742 -6.6838,-7.4936 -10.0569,-7.73 -5.7966,-0.4081 -6.8315,-2.6888 -2.713,-5.9824 3.9538,-3.1618 6.1778,-9.2695 4.817,-13.2295 -2.5818,-7.5149 -12.3287,-12.4063 -25.4855,-12.7899 l -7.6809,-0.2237 -0.1774,3.5585 c -0.097,1.9575 0.1638,9.78 0.5814,17.3837 0.4176,7.6039 0.5958,20.336 0.3955,28.2938 -0.3016,11.9863 -0.084,14.5729 1.2672,15.0759 3.1943,1.189 17.1979,0.6298 22.3944,-0.8943 z m -10.3524,-8.2792 c -1.387,-1.1745 -1.6168,-3.0276 -1.1593,-9.3528 0.515,-6.1662 -1.1797,-8.202 5.1157,-7.0722 7.1111,1.2762 12.3043,4.6402 12.4594,8.0713 0.1564,3.4622 -1.4447,5.2513 -6.5686,7.3394 -5.8868,2.3991 -7.9594,2.6125 -9.8472,1.0143 z m 9.0186,-5.0327 c 4.3297,-2.5631 4.1046,-4.3678 -0.8232,-6.5949 -2.418,-1.0928 -4.7327,-2.0098 -5.1439,-2.038 -0.4113,-0.028 -0.9321,2.4923 -1.1569,5.6009 -0.3891,5.3801 -0.294,5.628 1.9875,5.1531 1.3182,-0.2745 3.6296,-1.2289 5.1365,-2.1211 z m -10.0328,-23.9594 c -0.8052,-1.037 -1.5079,-4.7168 -1.5613,-8.1772 -0.09,-5.7979 0.082,-6.3252 2.1863,-6.7229 5.3069,-1.0027 11.4435,0.9944 12.3972,4.0345 0.7307,2.3279 -3.0587,8.0588 -6.9893,10.5708 -4.203,2.6859 -4.1771,2.6848 -6.0329,0.2948 z m 7.9001,-9.3155 c -0.3229,-1.029 -1.7662,-1.7424 -3.8061,-1.882 -2.8986,-0.1983 -3.2315,0.05 -2.8221,2.1024 0.2553,1.2801 0.3887,3.4611 0.2962,4.8469 -0.7041,4.6118 1.0077,1.5404 3.3573,-0.4443 2.2202,-1.8755 3.3186,-3.5737 2.9898,-4.622 z" fill="#00B894" transform="translate(34.831789,-48.746365) translate(3585.3488,1207.8522)"/>
</svg>