<?xml version="1.0" ?><svg height="74.303535mm" viewBox="0 0 55.642403 74.303535" width="55.642403mm" xmlns="http://www.w3.org/2000/svg">
    <path d="m -6419.4902,-324.66602 c -20.7868,0.40322 -43.491,8.12822 -60.3887,21.47657 -31.807,25.12592 -52.004,77.41798 -54.3262,111.14648 11.1787,102.497123 53.1376,128.40234 101.1992,127.576173 48.062,-0.826205 75.2259,-53.800953 87.6465,-112.023433 12.4207,-58.22287 -7.4539,-104.92693 -28.8926,-130.97657 -10.0495,-12.21076 -26.897,-17.55499 -45.2382,-17.19922 z m -12.5684,81.96094 c 0.7812,-0.005 1.5822,0.0179 2.4024,0.0703 17.4965,1.11799 21.1682,19.00177 21.6542,42.66993 0.4861,23.66815 -10.2488,32.68004 -28.621,34.55468 -18.3723,1.87427 -23.0059,-39.46289 -23.0059,-39.46289 3.7573,-25.61603 11.6857,-37.72108 27.5703,-37.83203 z" fill="#FFFFFF" paint-order="markers stroke fill" transform="translate(-98.951905,-35.40392) translate(3365.7231,1096.635) matrix(0.26458333,0,0,0.26458333,-1536.012,-972.91664)"/>
    <path d="m -3246.0056,-988.36047 c -23.7114,-10.40136 -25.9583,-40.71373 -12.6044,-59.26403 7.3156,-10.1623 18.848,-15.9427 28.5094,-12.7067 11.5629,3.8729 13.2038,5.7796 16.8471,19.3612 3.7971,14.1544 2.5202,26.298 -3.9546,37.6104 -6.9478,12.13803 -17.954,19.75581 -28.7975,14.99913 z m 11.9892,-5.5343 c 6.4968,-2.4032 13.8541,-12.27953 16.2917,-21.86933 2.4846,-9.7744 0.5417,-29.0938 -4.7778,-34.9112 -11.4368,-12.5072 -25.8692,-5.2164 -33.2089,7.2949 -4.6918,7.9977 -6.9138,19.572 -5.4105,26.746 2.0352,9.7107 9.4557,21.13203 15.0259,23.12693 3.4842,1.2478 8.0556,1.1012 12.0796,-0.3873 z m -9.8799,-22.29053 c -3.2172,-3.0242 -3.0191,-15.3327 0.2134,-19.1839 3.1095,-3.7032 8.5359,-4.2359 12.1901,-1.1964 2.21,1.8381 2.6469,3.1542 2.6469,7.9761 0,3.176 -0.5917,6.7204 -1.2456,7.9156 -5.1551,9.4224 -10.1906,7.8861 -13.8048,4.4886 z m 8.421,-5.0431 c 2.9474,-4.2307 2.9764,-11.5733 0.097,-13.8794 -1.9985,-1.6012 -2.2156,-1.5799 -4.3234,0.4229 -2.9381,2.7923 -4.3939,8.0335 -2.4342,12.7069 2.0535,4.897 5.0081,3.1215 6.6606,0.7496 z" fill="#00B894" transform="translate(-98.951905,-35.40392) translate(3365.7231,1096.635)"/>
</svg>