<?xml version="1.0" ?><svg height="75.005295mm" viewBox="0 0 44.554722 75.005295" width="44.554722mm" xmlns="http://www.w3.org/2000/svg">
    <path d="m -3439.488,-1156.4654 37.0506,-1.196 0.3323,18.5896 -21.4071,1.6509 0.058,8.5668 12.7691,0.676 -1.0111,14.8847 -12.0613,2.3139 0.4044,6.3959 22.0715,0.78 -0.1011,15.0926 -39.2173,-1.2479 z" fill="#FFFFFF" paint-order="markers stroke fill" transform="translate(-92.934759,-41.830256) translate(3535.8393,1202.1869)"/>
    <path d="m -3442.1857,-1088.2591 c -1.2422,-1.6629 -0.7173,-67.0716 0.3841,-69.2465 0.6484,-1.279 4.7888,-1.185 14.8316,-1.7529 26.9979,-1.5264 25.0515,-1.5675 26.114,0.5501 1.3638,2.718 2.4443,15.4116 1.5887,18.6687 -0.8474,3.2277 -2.543,3.7293 -14.0732,4.1627 -8.4216,0.3165 -8.7579,0.4294 -8.781,2.9466 -0.023,2.5495 0.1265,2.6045 5.7433,2.1195 7.1529,-0.6177 8.0259,0.6058 7.9295,11.1138 -0.077,8.3977 -1.0366,9.7956 -6.5796,9.582 -4.9784,-0.1918 -7.3079,0.5984 -7.3252,2.4849 -0.017,1.8616 8.5917,2.3435 15.5198,0.869 6.7528,-1.4375 8.2915,0.3526 8.4188,9.7955 0.1703,12.5961 1.425,12.2713 -21.9189,11.0602 -6.8316,-0.3543 -18.7527,1.7951 -21.8519,-2.3536 z m 37.9787,-3.8141 c 0.4348,-0.6279 0.8153,-5.26 0.8428,-7.7219 0.021,-2.3123 0.1799,-2.4661 -1.5045,-2.3829 l -6.7829,0.3348 c -11.5808,0.4467 -13.9198,-0.3588 -13.8793,-4.7789 0.044,-4.7742 1.9371,-6.5477 7.5026,-8.1651 3.4338,-0.9979 4.9307,-0.4074 4.7665,-2.9901 l -0.033,-6.7495 c -0.01,-2.1197 -0.09,-2.0533 -1.6198,-2.0895 l -8.1248,-0.1917 c -2.0757,-0.1229 -2.2315,0.027 -2.1567,-1.9516 l 0.065,-8.228 c -0.06,-3.2914 0.3418,-2.6884 4.145,-2.8095 2.0432,-0.065 10.7431,-0.4967 14.3948,-0.6695 2.6241,-0.1241 2.6465,0.2033 2.6498,-2.0855 l 0.01,-5.4334 c 0.079,-8.6408 2.2074,-8.0267 -20.4349,-6.8952 l -9.6561,0.4826 c -4.717,0.2993 -4.2327,0.016 -4.2736,3.5281 0.3447,8.8193 0.3138,35.3748 0.2032,43.4985 -0.1105,8.1238 0.053,15.1978 0.3634,15.72 0.8186,1.3773 32.5655,0.9787 33.5342,-0.4214 z" fill="#00B894" transform="translate(-92.934759,-41.830256) translate(3535.8393,1202.1869)"/>
</svg>