<?xml version="1.0" ?><svg height="73.884041mm" viewBox="0 0 52.319504 73.884041" width="52.319504mm" xmlns="http://www.w3.org/2000/svg">
    <path d="m -7398.5879,-694.71289 c -14.7882,0.1106 -23.6055,1.9668 -23.6055,1.9668 l 3.3848,240.94726 c 0,0 38.325,24.18332 83.9121,14.73828 45.5868,-9.44541 96.9589,-65.00307 94.3926,-126.27148 -2.5659,-61.26841 -50.8825,-108.92684 -98.6523,-122.88086 -23.885,-6.97682 -44.6435,-8.6106 -59.4317,-8.5 z m 50.5879,91.63281 c 0,0 41.6015,1.96545 39.1992,37.14453 -2.4019,35.17909 -38.0527,57.19141 -38.0527,57.19141 z" fill="#FFFFFF" paint-order="markers stroke fill" transform="translate(-66.328877,-26.444547) translate(3567.8615,1185.5108) matrix(0.26458333,0,0,0.26458333,-1536.012,-972.91664)"/>
    <path d="m -3488.7657,-1086.0564 c -5.7275,-1.4174 -12.2004,-4.3894 -12.2061,-5.6043 0,-0.4134 -0.3794,-43.9868 -0.5238,-61.6814 -0.089,-4.6538 -0.3688,-3.2942 4.2418,-4.8056 5.8111,-1.9049 16.4518,-0.7558 24.1029,2.6028 10.8827,4.7774 21.8918,19.1444 23.6981,30.9263 1.5108,9.8553 -4.3392,26.3927 -11.4017,32.2317 -7.5034,6.2036 -18.4192,8.6794 -27.9106,6.3305 z m 20.2063,-7.3651 c 5.4069,-3.0996 10.5029,-9.3365 12.2252,-14.9628 0.6313,-2.0622 1.4161,-6.9048 1.7442,-10.7612 0.5487,-6.4502 0.3143,-7.5722 -2.9267,-14.0125 -4.46,-8.8631 -12.4657,-16.7402 -19.5766,-19.2624 -5.9673,-2.1166 -18.4298,-3.3619 -20.3792,-2.0363 -0.9393,0.6385 -1.0371,2.654 -0.3688,7.5837 1.5088,11.1237 2.2866,40.5763 1.2326,46.6758 -0.5422,3.1399 -0.5804,6.1241 -0.084,6.6316 1.8486,1.8925 11.3137,3.7176 17.213,3.3191 4.1133,-0.2778 7.6722,-1.3125 10.9213,-3.175 z m -14.4639,-14.82 c -0.2707,-11.1583 0.3558,-25.7978 1.1342,-26.5801 1.4155,-1.4221 7.8902,1.1822 11.1087,4.4685 6.0876,6.2154 3.734,18.0885 -4.692,23.6686 -5.3729,3.5584 -7.4378,3.1326 -7.5509,-1.557 z m 8.496,-6.8693 c 2.892,-4.5774 2.8526,-9.7124 -0.099,-12.7851 -1.269,-1.3213 -2.7013,-2.4024 -3.1832,-2.4024 -0.4819,0 -0.8761,4.2038 -0.8761,9.3418 0,5.1379 0.4384,9.3417 0.9745,9.3417 0.536,0 1.9686,-1.5732 3.1832,-3.496 z" fill="#00B894" transform="translate(-66.328877,-26.444547) translate(3567.8615,1185.5108)"/>
</svg>