<?xml version="1.0" ?><svg height="415.96945mm" viewBox="0 0 368.12244 415.96945" width="368.12244mm" xmlns="http://www.w3.org/2000/svg">
    <path d="m 1790.6558,852.40611 -1.4831,-89.60809 c 0,0 -1.9776,-97.97265 -2.2742,-116.4816 -0.2966,-18.50894 -0.8899,-75.81538 11.4697,-105.26949 12.3595,-29.4541 95.7123,-96.54893 135.8561,-104.11267 40.1437,-7.56374 39.8471,-7.56374 39.8471,-7.56374 0,0 73.4651,-9.34346 120.728,-3.55942 47.263,5.78404 106.8854,22.60223 125.8696,55.97169 18.9843,33.36946 22.9393,49.20881 22.8404,79.10784 -0.099,29.89903 -6.4269,200.83961 -5.7348,214.27635 0.6922,13.43675 -8.8988,108.7399 -8.8988,108.7399 -6.2734,86.69436 -432.5873,75.59388 -438.22,-31.50077 z" fill="#FFFFFF" paint-order="markers stroke fill" transform="translate(-156.98513,-14.765272) matrix(0.80192303,0,0,0.80192303,-1274.246,-324.44025)"/>
    <path d="m 2054.4375,422.99023 c -0.7333,0.013 -1.3112,1.22302 -1.2852,2.68946 0.026,1.46644 0.6476,2.65558 1.3809,2.64258 0.7331,-0.013 1.3112,-1.22302 1.2852,-2.68946 -0.026,-1.46644 -0.6477,-2.65558 -1.3809,-2.64258 z m -16.2539,0.51563 c -3.3786,0.19866 -4.3914,3.6321 -4.6309,13.80664 -0.1474,6.26375 -0.7597,11.3978 -1.3593,11.4082 -0.5996,0.0106 -1.5417,-4.02191 -2.0938,-8.96289 -0.5521,-4.94096 -1.1424,-10.1826 -1.3125,-11.64648 -0.1701,-1.46389 -0.9066,-2.50439 -1.6367,-2.3125 -0.73,0.19189 -1.4106,5.45478 -1.5117,11.69531 -0.1792,11.06132 -0.2665,11.3475 -3.4649,11.4043 -3.2099,0.057 -3.2847,-0.16871 -3.4687,-10.52735 -0.1846,-10.39716 -1.8524,-14.91492 -3.3242,-9.00586 -0.4108,1.64931 -0.6853,6.74729 -0.6153,11.33008 0.1227,7.88359 -0.043,8.33537 -3.0468,8.38867 -3.0246,0.0537 -3.2301,-0.48504 -4.334,-11.39257 -0.8686,-8.58296 -1.5333,-11.06189 -2.6543,-9.90039 -1.4466,1.49897 -1.0084,21.91868 -0.7188,24.66992 0.042,2.64808 11.6797,1.52068 20.9512,1.71289 1.8074,0.0375 4.3508,0.76158 5.8887,0.33008 2.7674,-0.77653 2.8001,-0.53812 3.2246,23.36718 l 0.4297,24.15039 -3.1602,0.0566 -3.1602,0.0566 -0.9921,-21.97071 c -0.9165,-20.30183 -1.6427,-24.98154 -3.5664,-22.98828 -0.403,0.41755 -0.5323,10.76656 -0.2891,22.99805 0.3382,16.98595 0.055,22.11975 -1.2012,21.72851 -1.8097,-0.56362 -4.6081,-25.9553 -3.4609,-31.40429 0.636,-3.02133 0.4009,-3.12191 -5.9981,-2.56055 -6.2592,0.54909 -6.6886,0.38511 -7.1093,-2.74023 -0.2463,-1.82925 -1.0438,-3.15361 -1.7735,-2.94336 -0.8083,0.23288 -1.1909,8.05518 -0.9785,20.01953 0.1918,10.80103 -0.076,20.31656 -0.5937,21.14453 -0.5181,0.82801 0.2031,2.50346 1.6015,3.72461 1.8044,1.57561 2.8082,1.77188 3.459,0.67578 0.6343,-1.0679 4.8252,-1.40031 13.5898,-1.07617 6.9701,0.25777 12.8076,0.65396 12.9727,0.8789 0.1654,0.22496 0.2209,10.68831 0.1231,23.25391 l -0.1797,22.84766 -12.1641,1.13672 c -6.6908,0.62486 -13.5048,1.48144 -15.1426,1.90429 -6.3542,1.64046 -1.0489,2.80769 12.6524,2.78321 8.0171,-0.0142 14.6985,0.56496 15.1816,1.3164 1.0775,1.67623 3.2758,35.92621 2.4004,37.40039 -0.3525,0.59375 -3.2183,1.12564 -6.3691,1.18164 l -5.7305,0.10157 -1.0742,-10.61524 c -1.1556,-11.40706 -2.0252,-14.66806 -3.9004,-14.63476 -1.6079,0.0285 -1.2054,17.65191 0.5,21.9082 1.2643,3.15544 1.0892,3.40194 -2.4551,3.46484 -4.2945,0.0762 -4.5265,-0.70093 -6.6406,-22.21875 -0.5934,-6.0404 -1.6018,-10.97439 -2.2403,-10.96289 -0.6386,0.0113 -1.0292,7.49039 -0.8671,16.61914 0.256,14.4172 -0.01,16.77568 -2.0137,17.95508 -1.7759,1.04389 -1.9408,1.71871 -0.711,2.91797 1.1243,1.09631 6.1292,1.30425 16.8497,0.70312 l 15.2519,-0.85351 1.125,14.06054 c 0.6186,7.73394 1.5652,18.40502 2.1035,23.7129 l 0.9785,9.65039 -3.5175,0.0625 c -1.9342,0.0343 -3.5556,-0.68753 -3.6036,-1.60352 -0.5913,-11.22755 -3.1927,-29.53803 -4.3554,-30.66016 -1.0839,-1.0461 -1.4811,-0.85574 -1.4531,0.69922 0.03,1.71753 -0.9906,2.02104 -5.1758,1.53516 -7.3995,-0.85907 -8.6185,2.06217 -7.502,17.98242 l 0.8711,12.42383 -3.4141,0.0606 c -2.6133,0.0464 -3.0398,0.42062 -1.8203,1.59765 0.9384,0.90558 7.5622,1.67853 16.1153,1.87891 l 14.5215,0.33984 1.0605,11.9375 c 0.5833,6.56528 1.4425,12.52937 1.9082,13.25391 3.7604,5.84965 4.6204,-13.97624 2.3359,-53.85938 -1.0624,-18.5503 -2.3084,-45.12346 -2.7675,-59.05078 l -0.834,-25.32226 8.3242,-0.54492 c 4.5788,-0.29966 8.3166,-1.0255 8.3066,-1.61133 -0.01,-0.58583 -3.7682,-0.93937 -8.3496,-0.78711 l -8.3281,0.27539 -1.0293,-57.96485 c -0.8962,-50.478 -1.2884,-58.00759 -3.0352,-58.2871 -0.5837,-0.0934 -1.1149,-0.1319 -1.5976,-0.10352 z m 31.5664,0.0117 c -2.12,-0.26546 -4.5229,1.31909 -4.8262,3.7539 -0.3015,2.42134 -1.5578,3.04063 -8.0468,3.96485 -12.1495,1.73034 -14.323,4.30184 -2.6875,3.17969 l 9.5351,-0.91993 0.5508,70.33203 c 0.551,70.46157 2.756,118.59064 5.7773,126.10157 0.8463,2.10371 1.7948,3.55846 2.1094,3.23242 0.3146,-0.32592 1.0756,-10.47529 1.6895,-22.55273 0.6138,-12.07748 1.324,-22.18179 1.58,-22.45508 0.256,-0.27339 5.1389,-0.96136 10.8496,-1.52735 7.9677,-0.78977 10.3747,-1.49484 10.3477,-3.02929 -0.04,-2.24564 -3.8719,-2.41192 -14.8867,-0.65039 l -6.8555,1.0957 -1.1387,-12.34375 c -0.6265,-6.78923 -0.9661,-14.14743 -0.7519,-16.35156 0.3762,-3.8718 0.6802,-4.04497 8.9316,-5.10352 4.6975,-0.60268 9.3337,-1.41682 10.3028,-1.80859 2.3113,-0.93428 2.2286,-3.47119 -0.1114,-3.42969 -1.3209,0.0235 -2.0448,-2.66215 -2.625,-9.73438 -0.4406,-5.37229 -1.2522,-10.46981 -1.8027,-11.32617 -2.2485,-3.49761 -3.4446,0.64395 -3.2559,11.27344 0.1538,8.65916 -0.2222,11.26211 -1.6328,11.28711 -1.0081,0.0179 -3.7957,0.46043 -6.1933,0.98437 l -4.3594,0.95313 0.4473,-27.2207 c 0.2459,-14.97134 0.758,-30.45645 1.1367,-34.41016 l 0.6875,-7.1875 11.2031,0.49805 c 8.0693,0.35975 11.0547,0.0768 10.6738,-1.01367 -0.2909,-0.83266 -3.9337,-1.63325 -8.0957,-1.7793 l -7.5664,-0.26563 -0.3047,-8.26367 c -0.1674,-4.54447 -0.7665,-10.0538 -1.33,-12.24414 l -1.0235,-3.98242 -0.9316,4.91601 c -0.5073,2.70346 -0.663,8.25669 -0.336,12.3418 0.4244,5.30133 0.1172,7.43498 -1.0722,7.45508 -1.2755,0.0213 -1.7735,-6.00751 -2.1231,-25.70117 -0.2967,-16.70932 -0.9722,-26.22633 -1.9277,-27.14844 -0.5557,-0.53636 -1.2308,-0.83144 -1.9375,-0.91992 z m 9.8926,0.625 c -1.1471,0.40079 -1.9494,3.09308 -2.1387,7.18359 -0.1665,3.59868 -1.0058,7.01814 -1.8652,7.59766 -1.1554,0.77913 -1.035,1.38567 0.4609,2.33008 2.6134,1.64991 13.5344,1.48951 17.9102,-0.26368 4.2716,-1.71143 4.3742,-4.11169 0.1718,-4.03711 -3.283,0.0583 -4.8164,-2.7185 -4.9648,-8.99218 -0.04,-1.70909 -0.6584,-2.70113 -1.3906,-2.23047 -0.7251,0.46616 -1.2785,3.14785 -1.2285,5.95898 0.084,4.72369 -1.4351,6.75727 -5.0977,6.82227 -0.5505,0.01 -0.7806,-3.36336 -0.5117,-7.4961 0.3901,-5.99379 0.118,-7.38443 -1.3457,-6.87304 z m -85.5098,2.80859 c -0.7701,0.0264 -1.7087,0.32615 -2.916,0.90235 -2.7677,1.32084 -3.3251,2.51689 -3.2461,6.95703 0.079,4.4723 -0.346,5.3686 -2.5703,5.4082 -2.2151,0.0393 -2.6818,-0.84199 -2.7598,-5.20703 -0.051,-2.88961 -0.7262,-5.63045 -1.5,-6.08984 -2.6505,-1.57374 -5.2337,2.39621 -5.1777,7.95898 0.4936,5.65077 -1.8722,4.60642 -6.4609,4.95312 -2.0936,0.0372 -2.6871,-1.03874 -3.0997,-5.61328 -0.7809,-8.65501 -6.6126,-8.22077 -6.4961,1.39453 0.041,3.36532 -0.5134,4.18464 -1.8535,4.24024 -1.8881,0.36169 -3.6848,-0.35758 -6.1621,-0.0566 -1.403,0.17041 -1.1167,-0.89137 -1.4472,-3.36719 -0.6803,-5.09715 -5.6679,-4.94843 -6.1661,0.18359 -0.2606,2.68353 -1.1416,3.73812 -3.2656,3.91211 -1.5992,0.13099 -5.0367,0.40164 -7.6406,0.60352 -12.2361,0.94874 -22.5113,4.81497 -22.4473,8.44531 0.043,2.39797 10.5109,2.42801 32.6016,0.0937 8.0916,-0.85499 21.4571,-1.88626 29.7012,-2.29297 l 14.9902,-0.74023 0.2051,11.60937 c 0.2006,11.29499 0.1173,11.62775 -3.084,12.29883 -4.1014,0.85977 -4.6923,0.29307 -4.7793,-4.58008 -0.069,-3.86907 -0.1229,-3.89651 -6.9902,-3.32226 -6.8826,0.57552 -6.9271,0.55467 -7.9141,-3.80469 -0.546,-2.41124 -1.3327,-4.71235 -1.7481,-5.11328 -0.4153,-0.40093 -5.0574,-0.22006 -10.3144,0.40234 -7.6319,0.90356 -9.6769,1.62323 -10.1484,3.56641 -0.467,1.92514 -2.4409,2.64389 -9.4434,3.44336 -11.4232,1.3042 -12.1742,1.60421 -12.1172,4.83789 0.035,1.99988 -0.8239,2.72388 -3.2851,2.76758 -2.4441,0.0434 -3.3441,-0.65218 -3.3789,-2.60742 -0.035,-1.96222 -0.9369,-2.64937 -3.4141,-2.60547 -2.3635,0.042 -3.7601,-0.92739 -4.6914,-3.25196 -1.6519,-4.12285 -7.9657,-4.601 -8.918,-0.67578 -0.5054,2.08328 -2.2449,2.64449 -10.2461,3.30078 -6.125,0.5024 -11.2158,1.74734 -13.9629,3.41602 -4.1874,2.54347 -4.2935,2.83485 -3.4062,9.27734 0.5039,3.65829 1.4769,16.29996 2.164,28.0918 1.2336,21.16819 1.2144,21.44963 -1.6035,22.24023 -2.1838,0.61267 -2.8664,0.2043 -2.9004,-1.74023 -0.025,-1.41888 -0.9681,-2.52656 -2.1347,-2.50586 -1.5065,0.0267 -1.8309,0.80294 -1.1641,2.78125 0.8255,2.44897 0.8448,2.86973 -3.1465,2.95703 l -4.8867,0.10742 -1.1582,-22.33007 c -1.4173,-25.2168 -1.1342,-23.31709 -3.4844,-23.27539 -2.9045,0.0516 -3.0412,1.82645 -1.9375,25.03906 l 1.0293,21.65039 -5.4375,0.0977 c -5.4003,0.0959 -5.4434,0.0583 -6.2265,-5.55664 -0.4338,-3.10944 -1.2329,-10.74282 -1.7754,-16.96289 -1.0494,-12.03427 -2.4564,-15.27523 -4.7168,-10.86523 -0.9649,1.88251 -0.9273,6.69393 0.123,15.81055 2.2513,19.54145 2.3028,19.09102 -2.1387,19.16992 -3.3841,0.0601 -3.9306,-0.50771 -4.7402,-4.91797 -0.5034,-2.7415 -0.9682,-7.08251 -1.0332,-9.64844 -0.1472,-5.82156 -1.8901,-8.60818 -4.6797,-7.48047 -3.0209,1.22117 -4.6644,6.649 -4.5176,14.92188 0.1379,7.76389 -0.7542,8.72179 -8.2851,8.89062 -6.3557,0.14245 -10.8405,3.00616 -10.7715,6.87891 0.057,3.22492 0.2565,3.28218 9.5508,2.79687 l 9.4922,-0.49609 0.9179,15.64844 c 0.5051,8.60558 0.8573,15.71157 0.7813,15.79297 -0.075,0.0815 -2.9075,0.56057 -6.293,1.06445 l -6.1543,0.91602 -0.9355,-5.24805 c -1.0677,-5.99229 -4.5282,-7.66978 -10.709,-5.19336 -4.5765,1.83363 -3.1714,4.67713 1.7773,3.5957 l 3.5801,-0.7832 0.6738,23.55664 c 0.3705,12.95554 1.0099,24.55446 1.4219,25.77734 0.5635,1.67176 -0.3343,2.4764 -3.6191,3.24024 -5.5357,1.28728 -7.6664,3.06902 -7.6074,6.36719 0.038,2.12585 0.724,2.46885 3.7011,1.8496 9.2561,-1.92521 27.152,-4.22104 27.8262,-3.57031 0.4124,0.39794 0.8896,3.89381 1.0625,7.76953 l 0.3145,7.04688 -8.4551,1.2207 c -6.155,0.88931 -9.0109,0.77934 -10.4922,-0.40625 -2.5249,-2.02079 -10.2749,-0.97167 -15.457,1.41016 -1.4097,0.64794 -3.5809,1.13816 -3.6329,3.11133 l 0.8614,29.42187 c 0.8691,29.69242 1.0669,30.47929 3.6523,29.85938 5.5195,-1.32359 30.6959,-6.40124 33.8828,-6.83399 3.035,-0.41195 3.372,0.0433 3.8379,5.20703 0.5718,6.33764 -1.1576,7.37007 -4.8906,2.92383 -1.8715,-2.22913 -3.1768,-2.58723 -6.5176,-1.79102 -4.0778,0.97176 -4.1835,1.19365 -4.4258,9.24219 -0.2257,7.50198 -0.5315,8.29056 -3.3711,8.74414 -3.0009,0.47935 -3.1069,0.21113 -2.789,-6.96875 0.2596,-5.86612 -0.1188,-7.6011 -1.7578,-8.08789 -3.2301,-0.9595 -14.7523,1.79171 -16.0743,3.83789 -0.6499,1.00579 -0.8119,14.20996 -0.3613,29.3418 0.6466,21.71001 0.4413,27.98254 -0.9687,29.74414 -3.5013,4.37466 0.169,5.03405 14.7929,2.65625 7.5975,-1.23526 17.2557,-2.71428 21.4629,-3.28516 l 7.6504,-1.03711 0.1172,6.68946 0.1191,6.68945 -9.1074,2.94336 c -10.3485,3.34515 -12.7486,5.51773 -11.4433,10.35352 0.7475,2.76925 0.306,3.59759 -2.5215,4.73047 -5.5669,2.23026 -6.3234,1.79737 -5.6035,-3.19727 0.7805,-5.41681 -1.1473,-6.50399 -8.4844,-4.78516 l -4.6484,1.08985 0.496,27.92968 c 0.2728,15.36156 0.7445,28.72989 1.0489,29.70704 0.5928,1.90296 1.4034,1.7883 14.1113,-2.00391 4.3775,-1.30631 15.1266,-4.28234 23.8867,-6.61133 8.76,-2.32889 24.2838,-6.72502 34.4981,-9.76953 74.4449,-22.18989 92.2345,-27.28347 103.9609,-29.77344 16.1326,-3.42552 34.5137,-8.64737 35.3398,-10.03906 2.7191,-4.5792 -2.7839,-362.92381 -5.6152,-365.65625 -0.5351,-0.51643 -1.1381,-0.76275 -1.9082,-0.73633 z m 112.2285,1.3125 c -0.8441,-0.0952 -1.5701,-0.073 -1.9765,0.0899 -1.926,0.77141 -3.3659,22.55907 -5.6719,85.86328 -0.9397,25.7982 -0.1208,76.48807 1.6699,103.32031 1.0775,16.14528 1.3362,17.31373 3.8223,17.26953 2.5234,-0.0448 2.6325,-0.81533 2.0469,-14.37305 l -0.6172,-14.32421 5.9843,-0.10547 5.9844,-0.10743 0.627,13.99805 c 0.861,19.21851 3.3718,18.32428 3.0273,-1.07812 l -0.2656,-14.98047 5.0312,-0.50586 5.0293,-0.50391 -0.057,17.75195 -0.057,17.75391 -8.5489,0.81836 c -11.2999,1.08197 -12.8169,4.22818 -1.9453,4.03516 l 7.6445,-0.13477 -0.6503,12.2168 c -0.2007,3.77558 -0.3528,16.40203 -0.4336,20.82226 0.5946,4.88579 3.2893,3.84769 3.5293,0.7793 0.025,-0.97654 0.9556,-9.78914 0.9843,-10.875 0.3054,-11.55722 0.626,-21.10754 0.711,-21.22266 0.085,-0.11513 1.2879,-0.43709 2.6738,-0.71484 3.5317,-0.70772 4.2515,2.29456 0.7832,3.26758 -3.024,0.84842 -2.3412,3.63327 0.877,3.57617 1.5954,-0.0283 1.8323,2.65634 1.4335,16.31055 -0.038,1.30448 -0.3254,11.63644 -0.2871,12.88476 0.1451,4.72563 4.2439,3.79326 4.2969,0.41602 0.047,-2.97485 0.5616,-12.87657 0.4942,-16.38086 l -0.3985,-20.66211 6.4199,-0.11523 6.42,-0.11329 -0.1,12.00391 c -0.045,5.46262 -0.3284,12.45734 -0.6036,17.94141 l 0.041,0.008 c -0.1416,1.73191 -0.2827,3.41502 -0.3242,4.04883 l -0.6308,9.67969 -4.5098,0.0801 c -2.9656,0.0526 -4.4986,0.7163 -4.4766,1.9375 0.043,2.3976 2.991,3.42234 9.504,3.30664 4.8144,-0.0854 5.2265,0.19484 5.2675,3.57422 0.066,5.3865 -1.2941,6.77668 -7.2011,7.36328 -6.8143,0.6765 -6.2882,3.08555 0.7636,3.49805 l 5.4043,0.31641 -0.086,16.25781 -0.084,16.25976 -7.6602,0.53516 -7.6582,0.53516 -0.166,-9.39649 c -0.092,-5.16908 -0.6477,-9.39286 -1.2343,-9.38086 -2.7447,0.0488 -4.1975,3.9215 -4.0743,10.85938 l 0.1348,7.58398 -4.6504,0.95703 c -4.6745,0.77804 -5.8154,4.03594 -1.1331,5.7717 1.8015,0.66782 11.9333,1.15288 22.502,1.11328 l 19.2148,-0.0723 1.0742,12.77344 c 1.7737,21.09369 1.8398,44.71162 0.1289,46.48438 -1.1677,1.20992 -0.4493,3.23538 3.0332,8.54687 2.5104,3.82884 7.1893,11.46932 10.3985,16.97852 7.3004,12.53234 15.914,25.53493 28.955,43.70898 5.5859,7.78428 10.9454,14.14015 11.9102,14.12305 3.4098,-0.0605 4.8981,-3.74031 3.9043,-9.6543 -1.0697,-6.36569 0.6167,-33.29023 3.1211,-49.81445 3.0259,-19.96523 3.3984,-26.46389 1.4765,-25.78516 -0.9563,0.33783 -2.3469,2.51353 -3.0898,4.83399 l -1.3496,4.21875 -3.041,-4.47852 c -2.9838,-4.3924 -2.993,-4.49348 -0.4297,-5.35742 4.4519,-1.50048 2.8303,-3.50704 -2.4258,-3.00195 l -4.9922,0.47851 -0.2617,-6.21094 c -0.1443,-3.41586 0.1242,-6.86262 0.5977,-7.66015 0.5148,-0.86708 3.5418,1.17677 7.5273,5.08203 7.4452,7.29515 9.6998,7.97285 10.7969,3.24805 0.8591,-3.70023 -1.0784,-7.85644 -6.0664,-13.01758 l -3.4844,-3.60742 1.1914,-23.69141 c 2.1285,-42.27827 2.0773,-41.83869 4.8301,-40.42773 1.7315,0.88748 2.8667,0.6752 4.0058,-0.74805 2.0416,-2.55075 0.4251,-10.84403 -2.4101,-12.36524 -1.8194,-0.97613 -2.0139,-3.84209 -1.4922,-22.01367 l 0.5996,-20.89062 3.2656,-0.0586 c 3.939,-0.0699 3.4104,-3.20139 -0.6289,-3.72656 -2.3919,-0.31109 -2.8723,-1.64861 -3.8164,-10.62695 -2.0393,-19.39442 -3.6618,-15.19599 -3.2812,8.49023 0.2001,12.46509 0.041,23.96355 -0.3555,25.55274 l -0.7207,2.89062 -4.6426,-3.03125 c -2.5531,-1.66714 -5.1988,-3.21508 -5.8789,-3.43945 -0.7524,-0.24827 -0.8305,-5.63399 -0.2012,-13.76172 0.5687,-7.34453 1.2932,-18.59064 1.6114,-24.99219 l 0.5781,-11.64062 8.0684,3.89453 c 9.8266,4.74347 12.694,4.4995 11.9726,-1.01953 -0.2852,-2.18169 -1.0312,-4.48407 -1.6582,-5.11524 -1.8831,-1.89535 -1.1032,-70.47942 0.8242,-72.47656 1.9734,-2.04486 0.7856,-7.13241 -2.1582,-9.24219 -1.1711,-0.83934 -3.7851,-1.82815 -5.8086,-2.19726 -2.1875,-0.39905 -3.6938,-1.54188 -3.7168,-2.82032 -0.031,-1.76994 0.908,-2.0074 5.3106,-1.34374 4.319,0.65102 5.3405,0.41058 5.3105,-1.25 -0.023,-1.29476 -1.7693,-2.35065 -4.7168,-2.84961 -2.6812,-0.45388 -4.6958,-1.58423 -4.7148,-2.64454 -0.039,-2.19612 -0.3962,-2.14382 4.9277,-0.71875 3.2109,0.85948 4.6538,0.67167 5.7949,-0.7539 1.7399,-2.17387 0.4726,-2.87467 -6.1425,-3.40235 l -4.0059,-0.32031 0.2441,-13.67383 c 0.1715,-9.62629 -0.2058,-13.66353 -1.2753,-13.64453 -2.3738,0.0421 -3.581,5.05987 -4.3477,18.08008 -1.1816,20.06609 -1.6692,22.23067 -4.9141,21.82617 -2.7533,-0.34322 -2.8545,-1.09187 -4.0058,-29.33984 -0.7316,-17.94864 -1.6897,-28.99436 -2.5156,-29.00586 -2.3433,-0.0326 -3.2746,14.83696 -2.2383,35.76367 0.8931,18.03414 0.7736,20.19725 -1.0684,19.20899 -1.7323,-0.92949 -2.2146,-5.27661 -2.918,-26.28907 -0.4636,-13.84621 -1.4927,-27.52563 -2.2871,-30.39843 -1.2043,-4.3558 -1.0848,-5.4962 0.7246,-6.86915 2.9015,-2.20178 0.6618,-4.81033 -7.2929,-8.48828 -3.268,-1.511 -5.9566,-3.59253 -5.9746,-4.62695 -0.018,-1.03442 -0.9334,-1.8652 -2.0332,-1.8457 -1.0998,0.0195 -1.9848,0.86655 -1.9668,1.88086 0.03,1.71384 -3.7268,3.49421 -7.6055,3.60547 -1.0077,0.0289 -1.6981,-1.73198 -1.7461,-4.45508 -0.084,-4.70702 -4.0637,-9.69962 -5.1074,-6.40625 -0.3737,1.17902 -3.7625,1.6795 -11.4219,1.6875 -10.585,0.0114 -10.4297,-0.20274 1.4102,-1.94336 7.5738,-1.11345 7.1146,-2.9044 -0.9922,-3.87305 -5.3106,-0.63456 -6.6943,-1.33226 -7.0645,-3.5625 -0.6927,-4.17328 -3.8249,-4.47968 -3.7519,-0.36719 0.054,3.04714 -0.4752,3.45405 -4.6036,3.52735 -4.2955,0.0763 -4.6713,-0.23602 -4.7363,-3.91797 -0.039,-2.19966 -0.6711,-3.98761 -1.4043,-3.97461 -0.7333,0.013 -1.3026,1.82185 -1.2636,4.02148 0.063,3.55499 -0.3727,4.00917 -3.9278,4.07227 -3.7772,0.0671 -4.0047,-0.22548 -4.0937,-5.26172 -0.079,-4.44373 -0.5399,-5.32456 -2.7617,-5.28516 -2.2219,0.0395 -2.6494,0.93518 -2.5704,5.37891 0.085,4.76738 -0.2516,5.33883 -3.166,5.39063 -2.943,0.0523 -3.309,-0.557 -3.7773,-6.26758 -0.3736,-4.55421 -1.0798,-6.31465 -2.5196,-6.28907 -2.5045,0.0445 -3.2492,6.27082 -1.1914,9.95704 1.3839,2.47894 1.1337,2.71215 -2.9785,2.78515 l -4.4902,0.0801 0.4766,-7.32617 c 0.4393,-6.75173 0.2276,-7.41165 -2.7071,-8.44336 -0.875,-0.30765 -1.8368,-0.52161 -2.6816,-0.61719 z m -58.4218,13.51172 c -1.2519,0.0222 0.057,22.57118 1.5468,26.64258 1.4142,3.86538 3.2163,-4.55736 2.291,-10.70899 -2.017,-13.41035 -2.6301,-15.95509 -3.8378,-15.93359 z m 8.207,3.85352 c -1.2043,0.0214 -2.1085,12.55609 -1.2285,17.02539 0.3239,1.64451 1.0491,2.98285 1.6113,2.97265 2.2722,-0.0404 3.2527,-11.00788 1.5234,-17.03125 -0.4714,-1.64188 -1.3293,-2.97709 -1.9062,-2.96679 z m 34.8555,2.04882 c -1.5395,0.0273 -2.9978,21.42416 -1.7188,25.21875 0.5263,1.56135 1.5087,2.48341 2.1816,2.05079 1.5839,-1.01798 1.1395,-27.29794 -0.4609,-27.26954 z m 62.5839,1.55665 0.098,13.66601 c 0.054,7.51688 -0.223,17.274 -0.6152,21.68164 -0.6215,6.98376 -1.0978,8.07456 -3.7051,8.49219 l -2.9922,0.48047 -0.4277,-21.75586 c -0.3721,-18.88271 -0.6685,-21.42669 -2.2422,-19.27149 -2.1685,2.96978 -6.4709,2.56591 -7.1543,-0.67187 -0.4231,-2.00479 0.6711,-2.33175 8.2773,-2.4668 z m -37.4257,0.27539 c 1.6069,-0.0189 3.6998,0.0165 6.4296,0.0781 6.4203,0.14493 11.7961,0.37012 11.9454,0.5 0.3198,0.27826 -1.5703,44.08627 -1.9122,44.32031 -0.1281,0.0877 -2.1757,0.56464 -4.5507,1.06055 l -4.3164,0.90234 -0.1817,-9.63086 c -0.2572,-13.92754 -2.2324,-35.77506 -3.1484,-34.82812 -0.4308,0.44543 -0.9203,10.39144 -1.0879,22.10156 -0.2411,16.8588 -0.7124,21.55901 -2.2656,22.58008 -1.0789,0.70924 -3.4728,1.32759 -5.3203,1.37109 l -3.3594,0.0781 1.2304,-21.69141 c 0.6746,-11.9305 1.2408,-22.89213 1.2598,-24.35937 0.024,-1.87155 0.4566,-2.42576 5.2774,-2.48242 z m 58.5312,4.01757 0.9609,7.84571 c 0.5281,4.31553 1.0651,13.75783 1.1934,20.98242 0.244,13.74227 -0.014,14.2699 -5.791,11.9082 -1.4777,-0.60411 -5.0857,-1.09894 -8.0195,-1.09961 h -5.334 l -0.6035,-19.6582 -0.6036,-19.65625 9.0997,-0.16211 z m -34.1875,3.93946 c 2.3163,-0.0411 2.6586,0.5566 2.0899,3.63086 -0.3744,2.02361 -1.1857,9.94348 -1.8028,17.59961 -0.6172,7.65613 -1.4125,14.2219 -1.7676,14.58984 -0.3552,0.36794 -0.7907,-7.53016 -0.9687,-17.55078 -0.3118,-17.56262 -0.2231,-18.22213 2.4492,-18.26953 z m -179.8379,2.12695 c 0.7072,0.1003 1.0814,0.39649 1.0899,0.88086 0.015,0.82487 -1.6226,1.53553 -3.6387,1.58203 -5.0595,0.11497 -9.6412,1.55489 -9.6152,3.02148 0.012,0.69741 2.8813,0.79217 6.6718,0.22071 5.6191,-0.84719 6.6545,-0.66691 6.6875,1.16797 0.031,1.74328 -1.4064,2.19818 -7.2929,2.30273 -7.2582,0.12887 -7.3343,0.0898 -7.4043,-3.86914 -0.059,-3.32111 0.4665,-4.01004 3.0957,-4.05664 1.7415,-0.0309 5.0351,-0.46394 7.3183,-0.96289 1.3407,-0.29298 2.3808,-0.38741 3.0879,-0.28711 z m -57.8633,2.09375 c 0.7913,-0.014 1.8713,3.11776 2.3985,6.95898 0.5275,3.84124 0.9665,17.7845 0.9785,30.98633 0.018,20.0813 -0.168,22.37361 -1.1348,14.02344 -2.3772,-20.53188 -3.7324,-51.94225 -2.2422,-51.96875 z m 282.6621,4.55273 c 2.0177,0.35168 2.3071,3.38781 2.8653,29.98243 0.5689,27.10776 0.426,29.64483 -1.7012,30.24218 -2.1618,0.60707 -2.3588,-1.46264 -2.8652,-29.98242 -0.4965,-27.95968 -0.3478,-30.59934 1.7011,-30.24219 z m -257.1425,0.98243 c 1.2513,0.0223 2.914,0.11349 5.1015,0.24218 5.0208,0.29538 9.4309,0.79925 9.7989,1.11914 0.3681,0.31987 1.2285,9.37555 1.9121,20.125 0.6838,10.74948 1.7207,21.8378 2.3047,24.63868 l 1.0605,5.09179 c -5.5882,0.16226 -8.9237,0.46791 -14.4141,0.58008 -3.687,-0.40506 -1.7957,0.48775 -2.664,-6.83203 -1.4946,-12.60133 -5.5196,-39.52849 -6.3516,-42.49414 -0.5578,-1.98826 -0.5021,-2.53759 3.252,-2.4707 z m 265.4961,0.55859 c 2.2367,-0.25091 6.872,0.40356 8.0195,1.42187 1.0528,0.93423 -0.5211,1.21073 -4.875,0.85743 -2.3871,-0.19371 -4.3503,-0.96204 -4.3633,-1.70703 -0.01,-0.3048 0.4732,-0.48863 1.2188,-0.57227 z m -283.3829,1.14648 c 1.1776,0.73264 2.2207,9.17035 3.9786,31.20704 1.017,12.7467 1.1802,21.10296 0.4257,21.88476 -0.7545,0.78182 -1.4664,0.54793 -1.8632,-0.61328 -1.3269,-3.88337 -4.089,-51.20758 -3.0547,-52.33789 0.1757,-0.19195 0.346,-0.24381 0.5136,-0.14063 z m -15.0234,0.59961 c 1.4854,-0.59905 1.9262,3.26993 2.4297,21.36133 0.3381,12.15041 1.0457,24.66239 1.5742,27.80469 0.5551,3.3008 0.43,5.72353 -0.2969,5.73633 -1.3795,0.0245 -2.5735,-10.04391 -4.3554,-36.72461 -0.9436,-14.12896 -0.8207,-17.58527 0.6484,-18.17774 z m 81.1758,0.1836 0.096,5.33398 c 0.091,5.15475 -0.054,5.33386 -4.3496,5.41016 -5.5378,0.0983 -6.234,-0.57165 -6.332,-6.10938 -0.076,-4.29561 0.099,-4.44746 5.2539,-4.53906 z m -40.502,0.7207 c -1.833,0.0325 -3.6927,0.66499 -4.1328,1.40625 -0.4519,0.76122 0.6489,1.32246 2.5313,1.28906 1.833,-0.0325 3.6927,-0.66694 4.1328,-1.4082 0.4519,-0.76123 -0.6489,-1.32051 -2.5313,-1.28711 z m -61.0429,0.41602 7.3965,0.32226 7.3964,0.32227 0.8672,27.10351 0.8653,27.10352 -3.8184,0.83398 c -2.1006,0.45827 -4.5175,0.84418 -5.3711,0.85938 -1.0577,0.0188 -2.2368,-7.50164 -3.7012,-23.60352 -1.1821,-12.99769 -2.484,-25.7273 -2.8925,-28.28711 z m 131.4863,0.1582 c 0.046,-0.0973 2.0053,0.0812 4.3535,0.39648 l 4.2695,0.57227 -0.1816,14.86523 c -0.1797,14.72103 -0.2143,14.86968 -3.5078,15.33204 l -3.3262,0.46679 -0.8457,-15.72851 c -0.4655,-8.65071 -0.8077,-15.8071 -0.7617,-15.9043 z m 50.2773,0.45508 c -4.1413,-0.0706 -10.8163,1.53981 -10.7871,3.16797 0.023,1.27318 1.2706,1.55545 4.3516,0.98632 9.3588,-1.72879 10.682,-2.21648 9.3906,-3.46289 -0.4754,-0.4588 -1.5746,-0.66788 -2.9551,-0.6914 z m -94.8359,1.17773 0.3555,18.9961 c 0.1955,10.44816 0.7415,20.34053 1.2129,21.98242 0.771,2.68535 0.3832,2.99286 -3.8731,3.06836 -5.7088,0.10137 -5.6335,0.29308 -7.8945,-19.86133 -0.9443,-8.41789 -2.1019,-17.24964 -2.5723,-19.625 l -0.8554,-4.31836 6.8144,-0.12109 z m 236.0586,1.14258 c 4.4437,-0.0789 5.3399,0.3504 5.3789,2.57227 0.026,1.46641 -0.4031,2.57828 -0.9551,2.4707 -0.552,-0.10758 -2.9575,-0.40283 -5.3457,-0.65625 -6.5509,-0.69512 -5.8003,-4.26739 0.9219,-4.38672 z m -276.3086,0.90625 1.3086,20.3125 c 1.4726,22.85026 0.9844,32.13463 -0.8945,17.01758 -1.3168,-10.59521 -4.9587,-31.01818 -6.2227,-34.89453 -0.5785,-1.7741 0.016,-2.33431 2.5254,-2.37891 z m 65.2305,0.33984 c 1.3224,0.0764 1.7469,0.74605 1.7754,2.33985 0.033,1.86372 -0.5818,2.48325 -1.9649,1.98047 -1.275,-0.46342 -2.0005,0.0536 -1.9765,1.41015 0.021,1.17827 0.9392,2.12692 2.039,2.10742 1.6665,-0.0296 2.0465,2.6317 2.2832,15.96289 0.2315,13.04001 -0.071,16.00336 -1.6367,16.03126 -1.0565,0.0187 -2.205,-0.41113 -2.5508,-0.95508 -0.5624,-0.88459 -3.2785,-33.65727 -3.0625,-36.95118 0.048,-0.73428 1.6014,-1.55145 3.4531,-1.8164 0.6593,-0.0943 1.1999,-0.13484 1.6407,-0.10938 z m -32.5801,0.53907 c -1.4197,0.009 -1.9739,0.99813 -1.0273,2.4707 1.1387,1.77132 3.013,1.77526 4.0624,0.008 0.4432,-0.7465 -0.1656,-1.71149 -1.3515,-2.14258 -0.6425,-0.23353 -1.2104,-0.3388 -1.6836,-0.33593 z m -71.1309,0.30078 c -0.6125,0.057 -1.175,0.27928 -1.5859,0.70508 -0.6811,0.70566 -0.8233,1.92843 -0.3164,2.71679 1.3358,2.07796 6.1034,1.67261 6.0644,-0.51562 -0.031,-1.76149 -2.3244,-3.07724 -4.1621,-2.90625 z m 51.8672,3.91601 c -1.3179,0.0234 -0.087,18.99614 1.5781,24.3086 0.3999,1.27645 1.3712,2.31087 2.1563,2.29687 0.9611,-0.0171 1.0843,-2.96116 0.3789,-9.00976 -1.5276,-13.09916 -2.5848,-17.62281 -4.1133,-17.59571 z m 268.2012,0.84961 0.6445,12.53321 c 0.3542,6.89343 0.4381,17.88356 0.1875,24.42187 l -0.4551,11.88867 -4.1601,-1.66992 c -3.7157,-1.49101 -4.2664,-2.43137 -5.1465,-8.80273 -0.542,-3.92346 -1.1101,-14.03286 -1.2598,-22.46485 l -0.2734,-15.33008 5.2344,-0.2871 z m -339.0879,1.74414 c -2.2574,0.0401 -3.5154,6.85427 -1.6641,9.01367 0.7663,0.89386 1.0603,2.53756 0.6543,3.6543 -0.4059,1.1167 -0.1555,2.02061 0.5547,2.00781 1.4901,-0.0265 1.4809,0.013 1.9102,-8.36718 0.2366,-4.61672 -0.1589,-6.3316 -1.4551,-6.3086 z m 112.6016,0.50586 0.25,13.07813 c 0.1377,7.19295 0.636,14.42061 1.1074,16.0625 0.7694,2.67973 0.3795,2.99396 -3.8106,3.06836 -4.6416,0.0824 -4.672,0.0432 -5.5839,-6.90235 -0.5044,-3.84164 -1.1128,-10.88135 -1.3516,-15.64453 l -0.4336,-8.66015 4.9102,-0.50196 z m 79.7207,0.99024 c -0.9151,0.13526 -2.0598,7.59067 -2.0118,14.16015 0.066,8.94332 0.028,9.04211 -3.9179,9.9043 -2.1918,0.47899 -3.9759,1.45656 -3.9629,2.17383 0.019,1.06989 13.338,0.19126 14.0332,-0.92578 0.2025,-0.32557 -3.3537,-23.82725 -3.7676,-24.89844 -0.1172,-0.30331 -0.2423,-0.43339 -0.373,-0.41406 z m -172.8789,0.82422 c -1.4664,0.026 -3.0267,0.65326 -3.4668,1.39453 -0.4401,0.74127 0.3988,1.32688 1.8652,1.30078 1.4665,-0.026 3.0266,-0.65327 3.4668,-1.39453 0.4401,-0.74127 -0.3987,-1.32688 -1.8652,-1.30078 z m 196.7539,3.0664 c -0.9612,-0.60474 -1.9285,3.81226 -2.1504,13.72266 -0.2017,9.00097 -0.8439,13.77198 -1.9043,14.14648 -0.88,0.31081 -1.5835,1.4568 -1.5645,2.54492 0.022,1.24714 0.8943,1.7178 2.3574,1.27539 1.2767,-0.38603 5.9976,-1.16081 10.4903,-1.72265 7.1922,-0.89943 8.1677,-1.36632 8.1777,-3.9082 0.01,-1.58779 0.021,-6.92335 0.037,-11.85547 0.055,-17.4085 -3.4703,-12.37267 -3.9941,5.70508 -0.127,4.38271 -0.5181,2.99972 -1.4473,-5.1211 -0.7002,-6.11874 -1.6134,-11.45412 -2.0293,-11.85547 -1.6655,-1.60733 -2.369,1.43275 -2.8554,12.3418 -0.2802,6.28307 -1.0245,11.43186 -1.6543,11.44336 -0.6299,0.0112 -1.2339,-4.62832 -1.3457,-10.31055 -0.1985,-10.17498 -1.1542,-15.80151 -2.1153,-16.40625 z m 143.0859,3.17578 c -1.2763,0.44765 -1.8889,3.59993 -2.0449,10.53516 -0.1784,7.92464 0.1038,9.55893 1.416,8.19922 0.9014,-0.934 1.822,-5.67624 2.0449,-10.53711 0.3245,-7.07555 0.042,-8.70873 -1.416,-8.19727 z m -26.7773,0.20508 c -0.7677,-0.009 -1.1099,2.32337 -0.4629,7.00586 0.5306,3.84119 0.9865,8.03346 1.0195,9.31641 0.029,1.28303 0.5876,2.3241 1.2422,2.3125 2.3207,-0.0412 2.8022,-4.60475 1.2226,-11.58789 -1.0602,-4.68732 -2.2538,-7.03788 -3.0214,-7.04688 z m -311.8672,2.86719 c -1.3726,0.0244 -1.4585,8.06468 -0.1211,11.37305 0.7177,1.77525 1.0962,1.86035 1.8262,0.41015 1.1992,-2.38222 -0.165,-11.8106 -1.7051,-11.7832 z m 290.7617,3.30664 c 0.6091,-0.0601 1.0545,-0.0307 1.1894,0.0996 0.27,0.26056 0.2568,11.33772 -0.031,24.61719 -0.5123,23.60212 -0.81,25.04883 -4.8145,23.45117 -0.8442,-0.33676 -1.3502,-9.15402 -1.3632,-23.73438 -0.02,-22.50001 0.066,-23.22302 2.8496,-24.0039 0.7891,-0.22141 1.5608,-0.36963 2.1699,-0.42969 z m -11.7988,1.10937 c 4.7294,0.18988 4.6611,2.61586 4.6699,23.89844 l 0.01,22.65821 -3.9375,0.0703 -3.9395,0.0684 -0.2285,-12.33008 c -0.1248,-6.78217 -0.701,-17.27378 -1.2793,-23.31445 l -1.0508,-10.98243 3.4219,-0.0605 c 0.8857,-0.0157 1.6583,-0.0347 2.334,-0.008 z m -12.8457,0.45118 c 3.6884,-0.13977 4.8228,0.81529 4.0117,3.04687 -0.4647,1.27832 -2.4234,1.94674 -5.5762,1.90234 -11.1599,-0.1571 -13.0029,-2.89369 -2.998,-4.45117 1.8196,-0.28326 3.333,-0.45146 4.5625,-0.49804 z m -13.1543,1.30664 -0.018,22.98633 c -0.01,12.64134 -0.1248,23.07306 -0.2559,23.18554 -0.1325,0.11104 -2.1799,0.65443 -4.5527,1.20703 l -4.3164,1.00391 -0.4277,-24.10156 -0.4278,-24.10157 4.9981,-0.0898 z m -12.2989,0.2207 -0.6914,7.01367 c -0.3809,3.85737 -0.9606,14.61572 -1.289,23.9082 -0.5832,16.50728 -0.6717,16.91152 -3.8145,17.57032 l -3.2168,0.67383 -0.096,-24.5 -0.096,-24.50196 4.6016,-0.082 z m -13.83,1.75 c 0.725,-0.004 1.4009,0.0813 1.8554,0.25586 0.909,0.34916 -0.1456,0.64465 -2.3457,0.65625 -2.2002,0.0119 -2.9454,-0.27373 -1.6543,-0.63477 0.6456,-0.18055 1.4195,-0.27341 2.1446,-0.27734 z m -245.8125,3.68945 c -0.1629,-0.055 -0.3408,-0.0418 -0.5411,0.0332 -0.2669,0.10002 -0.5728,0.31289 -0.9355,0.625 -2.242,1.92886 -2.2856,4.2001 -0.1191,6.29101 1.6973,1.63805 4.0027,1.52479 3.8378,-0.18945 -0.051,-0.53414 -0.4989,-2.47913 -0.996,-4.32031 -0.4055,-1.50217 -0.7576,-2.27433 -1.2461,-2.43946 z m 288.7343,1.35938 0.336,18.83203 0.334,18.83203 -4.9844,0.91602 v -0.002 c -2.7415,0.50335 -5.7098,0.93319 -6.5977,0.95899 -1.1909,0.032 -1.712,-5.11672 -1.9824,-19.6211 l -0.3672,-19.66211 6.6328,-0.12695 z m -43.6816,0.1289 c 2.3321,-0.0414 2.5163,0.60173 1.8262,6.37696 -0.4221,3.5328 -0.7192,13.13885 -0.6602,21.34765 0.097,13.46909 -0.1277,14.92995 -2.3105,14.96875 -2.1288,0.0378 -2.4442,-1.19541 -2.5957,-10.28906 -0.097,-5.68248 0.1227,-15.28832 0.4863,-21.3457 0.5837,-9.7271 0.9631,-11.0179 3.2539,-11.0586 z m -172.1699,5.72266 c -2.2429,0.0398 -4.0677,0.67302 -4.0547,1.40625 0.013,0.73321 1.4895,1.30719 3.2793,1.27539 1.7897,-0.0318 3.6125,-0.66498 4.0527,-1.40625 0.4668,-0.78631 -0.898,-1.31769 -3.2773,-1.27539 z m 117.3867,1.27539 c -0.8348,-0.0992 -1.3594,3.65689 -1.2363,10.58594 0.1114,6.2756 0.7185,11.40212 1.3496,11.39062 1.54,-0.0273 2.7257,-12.57433 1.6523,-17.48632 -0.6519,-2.9833 -1.2647,-4.43069 -1.7656,-4.49024 z m -32.3574,1.35352 c -0.2232,0.0562 -0.4704,0.18283 -0.7481,0.36133 -1.9736,1.2687 -2.7752,27.59328 -0.9062,29.76562 2.9937,3.4796 4.0054,-0.54185 3.75,-14.92188 -0.223,-12.55947 -0.5338,-15.59837 -2.0957,-15.20507 z m 199.5175,0.88281 c -0.16,-0.0381 -0.3343,-0.003 -0.5156,0.11328 -0.7251,0.46617 -1.3041,1.71298 -1.2851,2.76953 0.019,1.05655 0.634,1.90949 1.3672,1.89649 0.7332,-0.013 1.3121,-1.25984 1.2851,-2.76954 -0.02,-1.13227 -0.3713,-1.89553 -0.8516,-2.00976 z m -211.2578,0.29883 c -1.2285,-0.007 -1.7644,5.36151 -2.0156,19.05664 -0.3043,16.59045 -0.1929,17.4506 2.1856,16.93359 2.3312,-0.50676 2.4501,-1.74776 1.7168,-17.83203 -0.4336,-9.50841 -1.0258,-17.53353 -1.3165,-17.83398 -0.2049,-0.21184 -0.3948,-0.32319 -0.5703,-0.32422 z m 186.836,0.90625 c -1.6811,0.0299 -2.8477,2.13353 -1.7637,3.17968 1.5279,1.47467 3.0917,0.86038 3.0547,-1.20117 -0.02,-1.09982 -0.6012,-1.99121 -1.291,-1.97851 z m -353.2969,4.91015 c -0.2802,-0.022 -0.584,0.0968 -0.877,0.40039 -0.4322,0.44784 -0.3016,1.56538 0.2891,2.48438 0.8641,1.34372 1.178,1.33922 1.6055,-0.0234 0.4576,-1.45849 -0.1772,-2.79542 -1.0176,-2.86133 z m 143.9414,0.14063 0.1543,8.66406 0.1543,8.66602 -7,0.14258 c -8.5629,0.17431 -12.9765,1.34607 -12.9395,3.43359 0.049,2.78066 -9.1126,1.0215 -10.1113,-1.94141 -0.7296,-2.16459 -1.9227,-2.53149 -7.084,-2.16992 -3.4141,0.23915 -7.5474,-0.25344 -9.1836,-1.0957 -3.6192,-1.86324 -12.5515,-0.0173 -15.6992,3.24414 -2.9488,3.05544 -6.8996,2.81142 -8.0137,-0.49414 -0.802,-2.37925 -1.6262,-2.63927 -5.789,-1.82617 -9.4745,1.85064 -9.507,1.87921 -9.3809,8.97656 0.1028,5.78498 -0.2203,6.5814 -2.6758,6.625 -1.6699,0.0297 -3.0896,-1.01568 -3.5351,-2.60352 -0.5395,-1.92323 -1.8654,-2.63443 -4.8164,-2.58203 -2.2397,0.0398 -5.2003,-0.91239 -6.5801,-2.11719 -3.0835,-2.69183 -16.0624,-2.46937 -20.248,0.34766 -3.7556,2.52768 -18.5304,4.26379 -20.4571,2.4043 -0.8918,-0.86041 -4.9475,-1.1421 -10.2363,-0.71094 l -8.7598,0.71289 -0.074,-4.19727 -0.074,-4.19921 11.6504,-1.03711 c 6.4074,-0.5702 20.1205,-1.79108 30.4746,-2.71289 10.354,-0.9218 24.425,-2.65214 31.2695,-3.84571 6.8444,-1.19357 22.9224,-3.60529 35.7266,-5.35937 12.8042,-1.75405 27.6437,-3.85131 32.9765,-4.66211 5.3331,-0.8108 12.0717,-1.51686 14.9747,-1.56836 z m -181.9394,4.2207 c -0.7336,0.068 -1.4626,0.84953 -1.7383,2.30274 -0.2301,1.21224 0.5201,2.06176 1.8007,2.03906 1.373,-0.0244 2.0119,-0.90903 1.7051,-2.36328 -0.2955,-1.4002 -1.0341,-2.04657 -1.7675,-1.97852 z m 377.875,3.71094 c 0.3136,-0.11115 0.7181,-0.0397 1.2382,0.13086 1.291,0.42327 3.0743,1.63212 3.961,2.6875 0.8867,1.05568 2.2225,1.52658 2.9687,1.04687 0.7463,-0.47971 4.2536,0.50815 7.7949,2.19532 3.5414,1.68717 10.808,4.67162 16.1465,6.63086 8.3102,3.04972 9.6314,3.96644 9.1934,6.37109 -0.2814,1.54475 -0.7923,7.61466 -1.1367,13.48828 -0.3444,5.87372 -1.4065,15.72276 -2.3594,21.88672 -0.9529,6.16387 -1.665,15.02742 -1.582,19.69726 0.09,5.09087 -0.4147,8.50063 -1.2618,8.51563 -0.9633,0.0171 -1.5161,-10.32184 -1.7382,-32.49023 -0.1791,-17.88332 -0.7922,-33.24266 -1.3633,-34.13086 -1.2968,-2.0173 -15.5438,-8.1096 -16.543,-7.07422 -0.404,0.41858 -1.0305,3.16723 -1.3926,6.10742 l -0.6582,5.3457 -5.1367,-3.36718 c -4.1071,-2.69231 -5.516,-3.03994 -7.0312,-1.73633 -1.6185,1.39244 -1.9196,0.34804 -2.0528,-7.15625 -0.1037,-5.84136 0.012,-7.81498 0.9532,-8.14844 z m -243.5997,11.42187 0.5235,29.41016 c 0.5011,28.22239 0.4167,29.41098 -2.0664,29.45508 -1.4232,0.0253 -2.943,-0.50953 -3.3789,-1.1875 -0.6668,-1.03722 -2.3573,-19.51201 -4.5762,-50.01367 l -0.4844,-6.65821 4.9922,-0.50195 z m -25.9921,0.62696 0.8925,27.65429 c 0.4913,15.20924 1.222,28.69618 1.6231,29.97266 v 0.002 c 0.5608,1.78522 -0.06,2.33416 -2.6934,2.38086 -3.3856,0.0601 -3.4245,-0.0527 -3.6094,-10.46289 -0.1726,-9.72025 -2.1332,-30.22074 -4.1836,-43.74023 l -0.8574,-5.65235 4.4141,-0.0762 z m 38.1718,0.76562 c 2.2724,-0.0282 2.5687,0.46652 2.0567,1.875 -0.4418,1.21493 -0.5914,14.15747 -0.3321,28.76172 l 0.4727,26.55274 -4.666,0.084 -4.666,0.082 -0.586,-22.99219 c -0.3214,-12.64625 -0.6979,-25.39282 -0.8359,-28.32421 l -0.252,-5.33008 5.834,-0.52149 c 1.2399,-0.111 2.2172,-0.17809 2.9746,-0.1875 z m 33.3321,1.96094 c 1.6291,-0.0289 2.56,0.64373 2.2519,1.62695 -0.7952,2.53742 -4.9492,2.9716 -4.9922,0.52149 -0.022,-1.23661 1.1029,-2.11944 2.7403,-2.14844 z m -6.1114,0.10742 0.1797,25.66797 c 0.1531,21.91 -0.1201,25.73761 -1.8691,26.13672 -1.7155,0.39152 -2.0856,-1.33953 -2.2696,-10.62891 -0.2233,-11.25589 -2.686,-34.45805 -4.1074,-38.69726 -0.6339,-1.89025 0.041,-2.33384 3.6446,-2.39844 z m 224.375,0.28516 c 6.5177,3.03366 8.4088,4.18516 8.4258,5.13281 0.024,1.3665 -0.9194,1.31126 -5.6738,-0.33008 -2.0295,-0.70059 -3.7056,-2.1736 -3.7246,-3.27344 -0.02,-1.0998 0.4179,-1.78739 0.9726,-1.52929 z m -268.5058,1.01172 c -0.1595,-0.004 -0.3344,0.0475 -0.5157,0.16406 -0.7252,0.46614 -1.3098,1.41353 -1.2968,2.10351 0.012,0.68989 0.6221,1.24347 1.3554,1.23047 0.7332,-0.013 1.3169,-0.96039 1.2969,-2.10351 -0.015,-0.85727 -0.3614,-1.38186 -0.8398,-1.39453 z m -24.7344,0.34179 c -0.3768,-0.1279 -0.8005,0.0881 -1.3242,0.63086 -0.7923,0.82081 -1.0243,2.52604 -0.5137,3.78907 0.6752,1.67015 1.3215,1.8882 2.3691,0.80273 0.7922,-0.82089 1.0223,-2.52602 0.5118,-3.78906 -0.3376,-0.83509 -0.6662,-1.30569 -1.043,-1.4336 z m 317.6133,0.99805 c 0.4146,-0.0217 0.9611,0.11177 1.6777,0.31445 1.6586,0.46913 3.5079,1.29058 4.1094,1.82618 0.6013,0.53561 0.962,3.92995 0.8008,7.54296 -0.2918,6.54071 -0.3093,6.56387 -3.9825,5.3379 -3.4048,-1.13653 -3.699,-1.78356 -3.8164,-8.39649 -0.091,-5.10736 -0.033,-6.5599 1.211,-6.625 z m -304.2598,0.17773 c 0.6564,-0.0687 1.1348,-0.0439 1.2754,0.0918 0.2812,0.27136 0.8228,12.37739 1.2031,26.90039 0.6103,23.3061 0.4399,26.45981 -1.4453,26.86914 -2.375,0.51564 -3.1212,-4.50461 -5.3125,-35.73828 l -1.1777,-16.77929 3.1113,-0.87305 c 0.8554,-0.23998 1.6893,-0.40197 2.3457,-0.47071 z m 132.0215,0.0176 c -0.6633,0.72623 -1.0706,4.94225 -0.7793,12.16211 l 0.498,12.32617 -4.8574,0.5 c -3.8501,0.39652 -4.8466,1.05731 -4.8086,3.19336 0.042,2.35382 0.6774,2.5917 5.0332,1.88086 2.7425,-0.44756 6.0729,-0.85475 7.4004,-0.90625 2.0566,-0.0794 2.2958,-0.9293 1.6114,-5.74609 -0.4418,-3.10935 -1.2434,-9.69745 -1.7813,-14.63867 -0.7333,-6.73589 -1.6531,-9.49771 -2.3164,-8.77149 z m -92.459,0.1211 c 2.5663,-0.0456 4.6755,0.45052 4.6875,1.10351 0.012,0.653 -2.0738,1.46934 -4.6348,1.81446 -3.2108,0.43277 -4.6665,0.0909 -4.6875,-1.10352 -0.019,-1.09073 1.6965,-1.76225 4.6348,-1.81445 z m 210.7246,0.67773 c 0.037,0.13566 0.013,9.69901 -0.051,21.25195 l -0.1171,21.00586 -4.9883,0.0879 -4.9883,0.0898 -0.459,-20.50391 -0.459,-20.5039 5.4981,-0.83789 c 3.0227,-0.4602 5.5257,-0.72509 5.5644,-0.58985 z m -293.2539,0.81445 c 2.5348,0.29502 2.6103,2.29483 2.7637,7.5918 0.1223,4.21521 0.8845,16.71183 1.6933,27.77149 0.8639,11.81139 0.9803,20.40527 0.2832,20.82812 -0.6526,0.39595 -4.0281,1.18314 -7.5019,1.75 l -6.3164,1.03125 -0.4668,-17.74219 c -0.2569,-9.75855 -0.6856,-19.54073 -0.9531,-21.73633 -0.2676,-2.19558 -0.8823,-7.05582 -1.3653,-10.80273 l -0.8789,-6.8125 4.9766,-0.91406 c 3.8386,-0.70471 6.2447,-1.14185 7.7656,-0.96485 z m 279.2735,0.9961 0.1562,9.3418 c 0.087,5.13794 -0.1405,14.29807 -0.5039,20.35546 l -0.6602,11.01368 -3.8027,0.0664 c -2.091,0.0371 -3.8757,-0.38124 -3.9687,-0.92969 -0.092,-0.54844 -0.7017,-9.491 -1.3536,-19.87304 l -1.1855,-18.87696 5.6582,-0.54882 z m -14.9864,0.95508 c 1.2591,-0.024 1.7513,4.85496 2.0196,19.96484 0.2881,16.2292 0.01,20.0025 -1.5059,20.0293 -1.5198,0.027 -1.8915,-3.6412 -2.0215,-19.96485 -0.1196,-15.0039 0.2575,-20.00709 1.5078,-20.02929 z m -13.7441,0.24023 c 1.7897,-0.0318 3.6538,0.56572 4.1426,1.32617 0.5972,0.92905 1.5674,0.80164 2.957,-0.38672 1.8668,-1.59628 2.006,-0.46962 1.4277,11.57813 -0.3523,7.3408 -0.5914,16.49632 -0.5234,20.3457 l 0.1133,7 -6.1543,0.10938 c -5.7319,0.10179 -6.1032,-0.0974 -5.4043,-2.9043 0.413,-1.65759 0.6218,-10.66301 0.4668,-20.01172 l -0.2832,-16.99805 z m -147.6426,0.14453 c 0.3108,-0.10077 0.7273,-0.0724 1.2676,0.0215 2.2237,0.38619 2.5073,2.34076 3.1914,22.0625 0.6474,18.6632 0.4718,21.64468 -1.2813,21.67578 -1.7008,0.0302 -2.0945,-2.5194 -2.4062,-15.625 -0.2045,-8.6144 -0.724,-18.55915 -1.1563,-22.09961 -0.522,-4.27564 -0.5475,-5.73284 0.3848,-6.03516 z m 120.7285,0.23242 10.7051,0.19336 10.7031,0.19532 -0.02,12.00195 c -0.011,6.60121 -0.3222,15.45772 -0.6914,19.68164 -0.6409,7.33211 -0.8412,7.68269 -4.4121,7.74609 l -3.7383,0.0664 0.4434,-19.55469 c 0.3135,-13.7843 0.028,-19.28462 -0.9707,-18.64258 -0.7792,0.50092 -1.7051,5.56244 -2.0567,11.24805 -0.3516,5.68552 -0.9088,14.39298 -1.2383,19.34961 -0.587,8.8317 -0.6751,9.01418 -4.3847,9.08008 -2.082,0.037 -4.0409,-0.37929 -4.3536,-0.92383 -0.3126,-0.54453 -0.4377,-9.86747 -0.2773,-20.7168 z m -225.3242,0.25977 c -2.6521,0.22273 -7.016,1.70352 -6.998,2.73828 0.03,1.71334 7.6739,1.40668 8.7168,-0.34961 0.4694,-0.79056 0.5312,-1.74817 0.1367,-2.1289 -0.2785,-0.2687 -0.9715,-0.33401 -1.8555,-0.25977 z m 42.3027,0.42383 c -0.7332,0.013 -1.3216,0.62424 -1.3086,1.35742 0.013,0.73318 0.6223,1.32159 1.3555,1.30859 0.7333,-0.013 1.3236,-0.62423 1.3106,-1.35742 -0.013,-0.73318 -0.6243,-1.32159 -1.3575,-1.30859 z m -87.3379,0.54101 c 7.3317,0.0871 8.675,0.46914 8.711,2.47852 0.032,1.81011 -1.0297,2.39613 -4.457,2.45703 -2.4746,0.0439 -6.3673,0.48741 -8.6504,0.98633 -3.7979,0.82995 -4.1569,0.61251 -4.2129,-2.5586 -0.061,-3.40364 0.096,-3.46436 8.6093,-3.36328 z m 56.8985,0 c 2.016,-0.0358 2.4781,1.06478 2.6348,6.28711 0.4983,16.59595 1.7687,41.17618 2.2167,42.88867 0.2754,1.05178 -0.5461,2.15947 -1.8242,2.46289 -2.0453,0.48549 -2.3699,-0.69751 -2.7187,-9.87304 -0.2182,-5.73414 -0.3339,-11.44263 -0.2559,-12.6836 0.078,-1.24086 -0.7523,-7.97059 -1.8457,-14.95507 -1.0934,-6.98449 -1.6881,-13.00944 -1.3203,-13.39063 0.3678,-0.3811 1.769,-0.71243 3.1133,-0.73633 z m 295.4961,0.31641 c 0.5543,0.23829 3.2726,1.26006 6.041,2.27148 3.232,1.1807 5.0492,2.69813 5.0762,4.23828 0.053,2.97842 -0.697,2.95327 -7.0039,-0.23437 -2.7753,-1.40275 -5.064,-3.48549 -5.084,-4.62891 -0.02,-1.14342 0.4163,-1.88478 0.9707,-1.64648 z m -324.502,0.38672 c 1.6333,-0.14889 2.1291,0.32099 2.1524,1.60742 0.032,1.77751 -1.517,2.19405 -8.627,2.32031 -4.8881,0.0868 -8.6745,-0.42771 -8.6875,-1.17969 -0.013,-0.73326 2,-1.37016 4.4746,-1.41406 2.4746,-0.0439 6.3672,-0.48742 8.6504,-0.98633 0.8217,-0.17956 1.4927,-0.29802 2.0371,-0.34765 z m 222.1914,0.25586 c -1.6724,-0.0773 -2.5785,20.69856 -0.8183,23.85156 0.7661,1.37231 2.0356,2.08253 2.8203,1.57812 1.7105,-1.09961 0.3524,-21.67725 -1.6582,-25.125 -0.1178,-0.2019 -0.2323,-0.29953 -0.3438,-0.30468 z m 118.6602,0.12109 3.6816,0.81445 c 2.025,0.44793 3.7358,0.87814 3.8008,0.95704 0.066,0.0791 -0.019,12.21079 -0.1875,26.95898 l -0.3066,26.81445 -3.0235,-1.28711 c -3.4393,-1.46613 -4.0527,-3.53098 -1.0644,-3.58398 1.0998,-0.0195 1.9819,-0.99942 1.9609,-2.17774 -0.024,-1.35735 -0.7657,-1.84825 -2.0234,-1.33984 -1.72,0.69534 -2.0434,-2.4081 -2.4121,-23.17578 z m -239.3652,0.29883 c 3.2586,-0.0579 4.6761,0.52138 4.7011,1.91797 0.025,1.39669 -1.372,2.02423 -4.6308,2.08203 -3.2586,0.0579 -4.6762,-0.51933 -4.7012,-1.91602 -0.025,-1.39656 1.3722,-2.02618 4.6309,-2.08398 z m -28.6622,0.50976 c -0.7333,0.013 -1.3178,0.92359 -1.2988,2.02344 0.02,1.09982 0.6359,1.98956 1.3692,1.97656 0.7332,-0.013 1.3178,-0.92361 1.2988,-2.02343 -0.02,-1.09984 -0.636,-1.98955 -1.3692,-1.97657 z m -60.0312,2.56446 c -2.1573,0.0916 -4.0435,1.27793 -3.2266,2.54883 0.4695,0.73028 1.9816,1.30965 3.3614,1.28515 3.2844,-0.0583 4.7129,-2.54583 2.0234,-3.52344 -0.689,-0.25042 -1.4391,-0.34106 -2.1582,-0.31054 z m 26.1836,0.17969 c 2.2095,-0.89318 2.852,5.98578 2.6015,27.83984 -0.1397,12.21088 -0.6899,17.98766 -1.7167,18.00586 -2.235,0.0353 -3.103,-44.949 -0.8848,-45.8457 z m 47.0586,1.02148 c -1.3467,0.0239 -1.1775,21.82495 0.1797,23.13477 2.1886,2.11206 2.8223,-1.90278 1.9238,-12.16993 -0.5287,-6.04155 -1.4751,-10.97634 -2.1035,-10.96484 z m -91.7949,1.63086 c 6.9155,-0.12279 8.0049,0.19324 8.0429,2.3418 0.035,1.94567 -1.2959,2.69357 -6.1269,3.44336 -9.2922,1.44207 -9.7905,1.32519 -9.8555,-2.31055 -0.057,-3.18469 0.2962,-3.3389 7.9395,-3.47461 z m 107.1582,0.76367 c 4.434,-0.0787 4.5142,0.024 5.4648,6.9043 0.5308,3.84117 1.054,11.8628 1.1699,17.82617 0.1905,10.12189 0.01,10.89913 -2.7812,11.69922 -7.5605,2.17067 -7.409,2.51152 -7.9004,-17.6875 l -0.4551,-18.66211 z m -132.461,1.17188 c 1.0874,-0.0193 2.1762,0.0413 3.0039,0.18554 1.6554,0.28845 0.3093,0.57226 -2.9902,0.63086 -3.2994,0.0586 -4.6539,-0.1764 -3.0098,-0.52344 0.8221,-0.17349 1.9088,-0.27366 2.9961,-0.29296 z m 355.7305,0.42773 c 0.5543,0.23829 3.3292,1.27975 6.166,2.31445 4.9017,1.78796 5.1229,2.11506 4.4649,6.58204 -0.3808,2.58515 -0.6505,7.25092 -0.6055,10.36718 0.096,6.2969 -0.093,6.39893 -6.2891,3.45117 l -4.3711,-2.08007 -0.1855,-10.53321 c -0.1028,-5.79376 0.2659,-10.33986 0.8203,-10.10156 z m -344.0059,3.19727 1.5196,20.3164 c 2.0404,27.26384 2.0496,26.86279 -0.6641,27.43555 -1.4188,0.29952 -2.3383,-0.32547 -2.3613,-1.60547 -0.038,-2.14596 -3.4543,-2.69301 -7.2461,-1.16016 -2.7711,1.1201 -2.6288,2.89179 0.2871,3.59961 1.285,0.31241 0.3934,0.67358 -1.9863,0.80079 l -4.3301,0.23046 -0.5899,-17.32617 c -0.3244,-9.52912 -0.6677,-20.37024 -0.7617,-24.09375 l -0.1719,-6.77148 8.1524,-0.71289 z m 386.2676,2.01953 c 0.4796,0.006 1.0818,0.12807 1.8555,0.32031 3.3341,0.82779 3.3952,1.06345 3.3242,12.31836 -0.04,6.31148 -0.4594,12.95924 -0.9336,14.77344 -0.7454,2.85126 -1.2733,3.12394 -3.8867,2.00195 -2.7259,-1.17019 -3.0374,-2.22958 -3.1758,-10.75977 -0.084,-5.20389 0.1673,-11.6482 0.5606,-14.32031 0.4887,-3.32005 0.817,-4.35064 2.2558,-4.33398 z m -372.2266,1.74609 c 7.1857,-0.12759 7.3907,-0.0289 8.2754,4.01953 0.499,2.2832 1.0326,11.20109 1.1856,19.81641 l 0.2773,15.66406 -4.1504,0.90625 c -9.5982,2.09753 -10.4718,1.65016 -10.5976,-5.4375 -0.063,-3.55205 -0.6195,-12.84406 -1.2363,-20.64844 l -1.1211,-14.18945 z m 20.4493,0.17188 c -0.479,0.18038 -0.7135,1.54104 -0.67,3.98828 0.062,3.46154 0.6097,4.84997 1.7461,4.42383 1.8582,-0.69669 1.508,-6.24047 -0.5175,-8.19532 -0.2132,-0.20569 -0.399,-0.27692 -0.5586,-0.21679 z m -44.0996,0.89453 c -0.2982,-0.007 -0.5936,0.12623 -0.877,0.41992 -0.9046,0.9379 -0.8292,3.5409 0.2344,8.10351 0.8618,3.69709 1.2278,7.65833 0.8125,8.80079 -0.4151,1.14245 0.014,2.97061 0.9531,4.0625 2.4936,2.89817 3.174,1.37631 3.207,-7.15821 0.028,-7.24234 -2.2427,-14.18094 -4.33,-14.22851 z m -41.0645,1.66211 c -0.511,0.1763 -0.8622,0.85302 -0.8457,1.76953 0.022,1.2221 0.6812,1.9955 1.4648,1.71875 0.7835,-0.27676 1.4124,-1.07294 1.4004,-1.76953 -0.012,-0.6965 -0.6701,-1.46998 -1.4629,-1.71875 -0.1982,-0.0622 -0.3862,-0.0588 -0.5566,0 z m 64.9648,2.01367 c -0.7812,-0.19915 -1.2888,1.79753 -1.4238,4.81055 -0.1643,3.66807 0.3663,8.74394 0.8008,10.29296 0.4346,1.54893 1.2398,2.80903 1.791,2.79883 1.9076,-0.0339 1.8793,-10.75468 0.5117,-14.91601 -0.6428,-1.95611 -1.2109,-2.86684 -1.6797,-2.98633 z m 194.6641,5.45898 c -1.2471,-0.38652 -1.6268,2.20235 -1.4863,10.11328 0.146,8.22211 -0.2612,10.81664 -1.7969,11.4375 -3.198,1.29268 -2.2453,3.34609 1.7324,3.73243 6.2194,0.60388 12.324,-0.64887 12.291,-2.52149 -0.017,-0.97093 -1.6846,-1.92493 -3.705,-2.12109 -3.5693,-0.34659 -3.6973,-0.63722 -4.5157,-10.23828 -0.5297,-6.21558 -1.4652,-10.07551 -2.5195,-10.40235 z m -235.0156,1.17969 0.1777,8.99805 c 0.098,4.94903 0.5637,10.34054 1.0352,11.98242 0.807,2.81112 0.4602,2.99336 -5.9629,3.10742 l -6.8223,0.12109 -0.1015,-5.81445 c -0.057,-3.19708 -0.5358,-8.58884 -1.0625,-11.98242 l -0.9571,-6.16992 6.8477,-0.1211 z m -7.2852,2.79492 c -2.0817,0.037 -2.6158,1.62414 -1.0547,3.13086 1.5612,1.50672 3.1269,0.91575 3.0899,-1.16601 -0.02,-1.09982 -0.9354,-1.98435 -2.0352,-1.96485 z m 377.9375,5.1836 c 0.819,0.13944 2.1599,0.73255 4.2364,1.8125 2.955,1.53686 5.3823,3.24324 5.4023,3.79296 0.039,1.34283 -1.1728,1.15197 -6.3418,-1 -2.4014,-0.99981 -4.3824,-2.66638 -4.4004,-3.70312 -0.013,-0.72858 0.2846,-1.04179 1.1035,-0.90234 z m -96.2285,2.16601 c -0.5412,0.0459 -0.6741,3.31396 -0.582,11.28906 0.1333,11.5407 -0.15,13.51055 -1.8555,12.89063 -1.5169,-0.55136 -2.0543,-2.96906 -2.1758,-9.81055 -0.1685,-9.48958 -1.0404,-13.28364 -3.0449,-13.24804 -0.6548,0.0116 -1.0936,5.42057 -0.9765,12.01953 l 0.2128,11.99804 -4,0.0703 c -2.6662,0.0473 -3.9868,0.73713 -3.9628,2.07031 0.028,1.58195 1.9144,1.96272 9.0332,1.82031 8.9603,-0.1795 14.251,-1.9375 11.5996,-3.85351 -0.7429,-0.5369 -1.5271,-5.47373 -1.7442,-10.97071 -0.2172,-5.49699 -1.0373,-11.48304 -1.8203,-13.30273 -0.2778,-0.64557 -0.5032,-0.98796 -0.6836,-0.97266 z m -126.8808,0.3711 c -0.6965,0.0124 -1.4701,0.67006 -1.7188,1.46289 -0.2488,0.79285 0.5475,1.42404 1.7695,1.40234 1.222,-0.0217 1.9955,-0.68132 1.7188,-1.46484 -0.2768,-0.7835 -1.0729,-1.41309 -1.7695,-1.40039 z m -13.9141,0.44726 c -1.8003,0.032 -3.0056,2.48315 -1.9941,4.05664 0.4737,0.737 1.4148,0.98474 2.0898,0.55078 1.6007,-1.02947 1.5267,-4.63622 -0.096,-4.60742 z m 211.043,2.70703 -0.6289,12.45313 c -0.346,6.84916 -0.9405,15.87164 -1.3223,20.05078 -0.4202,4.59866 -1.4166,7.89047 -2.5234,8.33789 -1.006,0.40712 -1.8462,0.60917 -1.8672,0.44922 -0.021,-0.15996 -0.3169,-9.28743 -0.6563,-20.2832 l -0.6172,-19.99219 3.8086,-0.50781 z m -11.0391,0.24024 0.1875,10.54882 c 0.103,5.80155 -0.1195,15.14544 -0.4941,20.76368 l -0.6797,10.21484 -7.8047,0.13867 -7.8027,0.13867 -0.3321,-17.66406 c -0.1826,-9.71487 -0.7311,-19.05574 -1.2187,-20.75586 -0.7924,-2.76173 -0.486,-3.04998 2.875,-2.71679 l 3.7617,0.37304 0.8848,18.65235 c 0.4871,10.25975 1.0941,18.86104 1.3476,19.11328 0.2535,0.25234 1.1789,-0.002 2.0567,-0.56641 1.4781,-0.9503 1.2485,-7.88183 -1.127,-33.92187 -0.2594,-2.84344 0.3266,-3.40156 4.0215,-3.82422 z m 22.9434,0.42773 0.1718,20.61914 c 0.094,11.3403 0.048,20.66982 -0.1,20.73242 -0.1479,0.0629 -2.3734,-0.1942 -4.9472,-0.57226 -3.2032,-0.47062 -4.5446,-1.3071 -4.25,-2.65235 0.2368,-1.08095 0.5435,-10.06866 0.6816,-19.97265 l 0.252,-18.00781 4.0957,-0.0723 z m 13.9863,0.0117 c 0.8006,0.0633 2.2944,0.72671 5.0547,2.03711 3.2921,1.5629 6.03,3.59198 6.082,4.50781 0.1254,2.18931 -2.2494,2.02348 -7.6113,-0.52734 -2.4783,-1.17898 -4.3901,-3.10443 -4.4141,-4.44922 -0.019,-1.09377 0.088,-1.63164 0.8887,-1.56836 z m -62.8438,0.18945 c 2.523,-0.0448 4.5984,0.51878 4.6114,1.25196 0.013,0.73319 -2.4107,1.37688 -5.3868,1.42968 -3.2678,0.058 -5.0946,-0.43794 -4.6113,-1.25195 0.4401,-0.74123 2.8637,-1.38489 5.3867,-1.42969 z m -16.1855,0.28711 c 6.9941,-0.12419 9.0042,0.95657 7.4433,4.00196 -0.9492,1.85212 -2.7672,2.58239 -6.5957,2.65039 -4.7491,0.0843 -5.2907,-0.24367 -5.3437,-3.23828 -0.052,-2.90495 0.5241,-3.34357 4.4961,-3.41407 z m -249.9492,0.76758 c -0.4596,-0.0556 -0.9267,0.1163 -1.3575,0.5625 -1.1049,1.14391 -1.0886,2.2521 0.067,4.32031 1.8856,3.37776 4.1494,3.6028 4.0644,0.4043 -0.077,-2.90718 -1.3915,-5.11655 -2.7715,-5.28711 z m -21.2032,2.83203 c -0.4361,-0.0622 -0.8934,0.2107 -1.4648,0.80274 -0.8315,0.8615 -1.0966,2.21167 -0.5898,3 1.0382,1.61511 4.7836,1.90453 4.7246,0.36523 -0.021,-0.54971 -0.6192,-1.88545 -1.3301,-2.9668 -0.4885,-0.74314 -0.9037,-1.139 -1.3399,-1.20117 z m 389.9043,1.56446 c 0.3835,-0.1 1.0113,0.10781 1.9707,0.5996 1.3831,0.70885 2.887,0.90485 3.3418,0.4336 0.4548,-0.47125 0.8433,0.14313 0.8653,1.36523 0.022,1.22201 -0.7113,2.18623 -1.6289,2.14453 -3.151,-0.14288 -5.0246,-1.36407 -5.0586,-3.29687 -0.013,-0.73849 0.1263,-1.14615 0.5097,-1.24609 z m -238.0468,3.09765 c 1.5102,1.07766 -1.8117,3.22325 -5.0801,3.28125 -2.2382,0.0397 -4.5547,1.11885 -5.543,2.58203 -2.0107,2.97703 -11.2696,4.60618 -14.6836,2.58399 -1.7553,-1.03957 -3.4247,-0.81687 -6.6523,0.88867 -2.3697,1.25227 -5.9112,2.65848 -7.8711,3.12305 -1.9599,0.46446 -3.9207,2.04203 -4.3574,3.50781 -0.6362,2.13504 -1.8703,2.64358 -6.2032,2.55078 -4.0151,-0.0859 -5.9565,0.59487 -7.5351,2.64453 -2.6441,3.43297 -12.0818,5.39734 -12.1328,2.52539 -0.037,-2.05728 -1.029,-2.29442 -7.6016,-1.82226 -3.7175,0.26714 -4.2913,-0.15247 -4.7285,-3.44922 -0.4678,-3.52706 -0.8581,-3.73401 -6.4941,-3.47071 -3.2978,0.15407 -8.0862,0.85995 -10.6407,1.57032 -4.5454,1.26417 -4.6506,1.45196 -4.9082,8.79687 -0.1613,4.60119 -0.9265,7.77398 -1.9785,8.19922 -0.9438,0.38152 -5.1018,1.17767 -9.2402,1.76953 l -7.5254,1.07617 -0.1,-4.48633 c -0.1639,-7.34378 -1.5087,-8.29977 -10.1875,-7.24804 -6.7087,0.81313 -8.7437,1.87286 -10.1406,5.2793 -0.1871,0.45637 -1.7338,1.29061 -3.4356,1.85351 -2.7974,0.92511 -3.0584,0.65745 -2.7168,-2.77734 0.3571,-3.59241 0.1098,-3.78692 -4.5469,-3.56641 -4.7719,0.22615 -7.4424,-1.98147 -5.7812,-4.7793 0.7447,-1.2543 0.8992,-1.28435 25.2051,-5.04882 8.7773,-1.35944 18.6481,-3.07494 21.9355,-3.8125 3.2874,-0.73748 12.865,-2.09389 21.2832,-3.01368 8.4183,-0.91986 24.5888,-2.76247 35.9336,-4.0957 20.7357,-2.4369 54.8451,-5.29116 55.7266,-4.66211 z m 194.1093,2.41211 c 1.0101,-0.0179 2.6197,0.87661 3.5762,1.98828 1.4168,1.6467 1.3644,5.04531 -0.2812,18.3418 -1.1109,8.97602 -2.2697,21.57493 -2.5743,27.99805 -0.3046,6.4231 -1.139,11.68837 -1.8554,11.70117 -0.7477,0.0133 -0.9789,-1.75602 -0.543,-4.15625 0.4176,-2.29947 0.5511,-15.80373 0.2988,-30.00977 -0.3737,-21.05024 -0.1177,-25.83668 1.3789,-25.86328 z m 44.1758,1.34375 c 0.2005,-0.0856 0.4644,-0.0761 0.8125,0.0117 0.4648,0.11712 1.0797,0.37213 1.8867,0.72266 2.6074,1.13258 3.3765,2.45512 3.4375,5.91015 0.084,4.73536 -0.5346,5.18278 -4.2793,3.08985 -1.5197,-0.84935 -2.3855,-2.94164 -2.4375,-5.88868 -0.044,-2.47049 -0.021,-3.58883 0.5801,-3.8457 z m -409.5527,0.49609 c 1.1682,0.12505 1.4391,0.50126 0.7578,1.12305 -1.1443,1.0439 -13.1881,2.03654 -13.2051,1.08789 -0.01,-0.54782 2.8251,-1.37094 6.3008,-1.82812 2.9118,-0.383 4.9783,-0.50786 6.1465,-0.38282 z m 168.3398,2.99219 c 2.8237,-0.0501 4.4215,0.46159 3.9453,1.26367 -0.4402,0.74124 -2.5643,1.37772 -4.7207,1.41602 -2.1563,0.0383 -3.9323,-0.53048 -3.9453,-1.26367 -0.013,-0.73318 2.1113,-1.36962 4.7207,-1.41602 z m 205.5274,0.47656 c 0.75,0.025 2.1118,0.62897 4.5351,1.82813 2.1831,1.08021 3.9849,2.84867 4.0039,3.92969 0.019,1.08093 -0.1166,1.93052 -0.3007,1.88672 -3.1099,-0.737 -9.0835,-4.67021 -9.1075,-5.9961 -0.02,-1.11897 0.1192,-1.67346 0.8692,-1.64844 z m -379.6016,1.2793 c 8.1862,-0.14536 9.4352,3.03564 1.7461,4.44727 -7.5318,1.38273 -8.3142,1.22802 -8.3652,-1.66211 -0.041,-2.31071 0.8423,-2.68264 6.6191,-2.78516 z m 238.1719,1.88672 c -0.5204,0.58223 -0.7121,3.16843 -0.625,8.07617 0.092,5.15699 0.6258,9.82214 1.1855,10.36719 0.5598,0.54494 1.1244,-3.05545 1.2559,-8.00195 0.1346,-5.05868 -0.3828,-9.59448 -1.1836,-10.36719 -0.2483,-0.23968 -0.4593,-0.26832 -0.6328,-0.0742 z m 6.6504,0.21289 c -0.9173,0.95078 -0.8368,11.26672 0.3574,14.2207 0.7097,1.75558 1.112,1.83932 1.9668,0.40821 1.1726,-1.96332 -0.033,-11.24872 -1.8711,-14.41407 -0.1715,-0.29522 -0.3221,-0.35067 -0.4531,-0.21484 z m -70.8125,1.47852 c 4.3911,-0.0779 4.618,0.15742 5.4062,5.57226 0.4527,3.10906 1.079,10.91345 1.3907,17.3418 l 0.5664,11.6875 -4.6426,1.3789 c -2.5536,0.75846 -5.0927,1.3941 -5.6426,1.4043 -0.5499,0.0139 -1.1498,-8.3737 -1.332,-18.63867 l -0.3321,-18.66406 z m -10.0196,0.006 c 0.9805,0.1779 1.4427,0.55255 1.4532,1.13671 0.019,1.09763 -2.042,1.71351 -5.9707,1.78321 -3.2995,0.0586 -6.0076,-0.43241 -6.0196,-1.0918 -0.012,-0.6594 2.674,-1.46215 5.9688,-1.7832 2.0879,-0.2034 3.588,-0.22285 4.5683,-0.0449 z m 226.8067,0.29296 7.7246,3.24805 c 9.1963,3.86486 8.65,3.43778 7.7129,6.01563 -0.5332,1.46668 -2.6446,2.12468 -7.1816,2.24023 -3.5343,0.0902 -6.7979,-0.19451 -7.252,-0.63281 -0.4542,-0.43821 -0.867,-3.06364 -0.916,-5.83399 z m -241.6094,0.20899 c 0.3402,-0.12818 0.6366,-0.12518 0.8067,0.0391 0.3402,0.32832 1.2057,9.72301 1.9238,20.87891 0.9611,14.92885 0.9001,20.29054 -0.2266,20.31054 -0.842,0.0149 -1.5673,-1.02195 -1.6113,-2.30468 -0.044,-1.28272 -0.7859,-10.10448 -1.6504,-19.60352 -1.0031,-11.02691 -1.1177,-17.74162 -0.3145,-18.57422 0.3462,-0.35852 0.7321,-0.61791 1.0723,-0.74609 z m 230.7735,2.71484 c 2.1161,-0.21127 7.2505,2.58311 7.9746,4.64844 0.3194,0.91117 -0.3032,1.67231 -1.3828,1.69141 -2.7896,0.0495 -8.5563,-4.73933 -7.2911,-6.05469 0.1575,-0.16376 0.3969,-0.25498 0.6993,-0.28516 z m -242.6661,1.52539 c 0.4165,-0.0436 0.9769,0.004 1.7071,0.0937 2.9627,0.36555 3.2601,1.1562 4.4179,11.70508 0.6832,6.22215 1.1374,14.90913 1.0098,19.30469 -0.1781,6.1288 -0.7369,8.09728 -2.3945,8.44336 -1.8577,0.38795 -2.3285,-1.7593 -3.3496,-15.26367 -0.6536,-8.64286 -1.5651,-17.70953 -2.0254,-20.14844 -0.5772,-3.05699 -0.6145,-4.00388 0.6347,-4.13477 z m 22.2266,0.84375 c 3.2995,-0.0586 6.0085,0.49328 6.0215,1.22657 0.013,0.73316 -2.6751,1.38085 -5.9746,1.43945 -3.2995,0.0586 -6.0105,-0.49337 -6.0235,-1.22656 -0.013,-0.73328 2.6772,-1.38086 5.9766,-1.43946 z m -71.4297,1.26953 c 2.6223,-0.0466 2.7912,0.68988 3.0957,13.61329 0.1771,7.51473 0.8724,16.65335 1.5449,20.30859 0.6719,3.65534 0.9455,8.60251 0.6075,10.99219 -0.3464,2.44861 -1.4108,4.35875 -2.4395,4.37695 -1.3724,0.0244 -1.9157,-2.53102 -2.1894,-10.29688 -0.5029,-14.26218 -0.9001,-19.57275 -2.2364,-29.96484 -1.0965,-8.52696 -1.015,-8.9825 1.6172,-9.0293 z m 125.4766,0.97266 0.2324,13.06445 c 0.2279,12.83635 0.1778,13.06434 -2.9102,13.11914 -2.856,0.0507 -3.2319,-0.66553 -4.1113,-7.84375 -0.5322,-4.34462 -1.3795,-10.21045 -1.8828,-13.03515 l -0.9141,-5.13477 4.793,-0.0859 z m -135.0332,0.5293 c 2.3533,-0.0418 2.7334,1.20226 3.705,12.14062 0.5956,6.70318 1.183,17.79554 1.3047,24.64844 0.1693,9.53908 -0.1996,12.46779 -1.5703,12.49219 -1.3887,0.0246 -2.0733,-4.82614 -3.0566,-21.61719 -0.6972,-11.90609 -1.6592,-22.99092 -2.1367,-24.63281 -0.686,-2.35879 -0.3181,-2.99445 1.7539,-3.03125 z m 195.8183,0.52344 c -1.444,0.0256 -2.0656,1.306 -2.0156,4.14843 0.091,5.1005 3.2219,4.58762 3.7441,-0.61328 0.2542,-2.53061 -0.2485,-3.56145 -1.7285,-3.53515 z m -8.3789,0.57031 c -0.2598,0.29486 -0.2797,1.45031 -0.2597,3.69531 0.023,2.62781 0.433,5.15472 0.9101,5.61523 1.3613,1.31373 3.1417,-0.38383 3.0957,-2.95312 -0.023,-1.283 -0.9431,-3.48256 -2.0449,-4.88672 -0.9414,-1.19967 -1.4413,-1.76556 -1.7012,-1.4707 z m 113.543,0.57031 c 0.2986,-0.30934 2.1828,0.47195 4.1894,1.73633 3.4761,2.19043 3.6181,2.68095 3.0079,10.38867 -0.3521,4.44905 -0.9346,14.24526 -1.295,21.76953 -0.3603,7.52426 -1.0192,13.66358 -1.4648,13.64258 -0.4457,-0.0215 -2.476,-0.90486 -4.5117,-1.96289 -3.3779,-1.75561 -3.7109,-2.58998 -3.8125,-9.54688 -0.11,-7.56191 2.8446,-34.94746 3.8867,-36.02734 z m -249.5566,0.31055 c 3.1768,0.27885 3.6746,4.07384 3.9902,20.71289 l 0.2832,14.99609 -3.9981,0.0723 -4,0.0703 -0.498,-13.99414 c -0.2742,-7.69633 -0.5645,-15.64079 -0.6465,-17.65625 -0.121,-2.98822 0.4945,-3.75202 3.336,-4.13281 0.5703,-0.0765 1.0793,-0.10816 1.5332,-0.0684 z m 35.6542,0.48047 0.1973,11.18945 c 0.1594,8.97307 -0.2149,11.35625 -1.8945,12.03515 -2.8484,1.15152 -5.5959,1.11773 -6.3125,-0.0781 -0.3261,-0.54429 -1.0969,-5.93267 -1.7149,-11.97266 l -1.125,-10.98046 5.4258,-0.0977 z m -62.6328,2.44531 0.5196,14.66015 c 0.2857,8.06279 0.5859,16.53969 0.6679,18.8379 0.1097,3.09172 -0.589,4.467 -2.6855,5.28515 -2.4286,0.94775 -2.9614,0.52535 -3.7207,-2.94922 -0.4873,-2.2298 -1.0114,-11.17775 -1.166,-19.88476 l -0.2813,-15.83008 3.3321,-0.0605 z m 26.1524,0.0469 c -0.4776,0.0296 -0.8041,0.5665 -0.7891,1.42383 0.02,1.14312 0.636,2.06769 1.3692,2.05469 0.7332,-0.013 1.3235,-0.58748 1.3105,-1.27734 -0.012,-0.69 -0.6279,-1.61458 -1.3691,-2.05469 -0.1854,-0.11005 -0.3623,-0.15637 -0.5215,-0.14649 z m -86.1192,2.35157 c 3.9279,-0.0697 4.0026,0.0549 4.1856,6.92773 0.1027,3.84877 0.8281,14.78771 1.6113,24.30859 0.7831,9.52088 1.3441,17.40762 1.2481,17.52735 -0.096,0.11962 -2.4178,0.67779 -5.1582,1.24023 l -4.9825,1.02344 -0.4531,-25.47852 -0.4512,-25.47656 z m 71.0899,0.0918 c 4.0987,-0.0578 5.0614,0.27601 3.6113,1.25 -2.6417,1.77448 -11.0347,1.92176 -9.998,0.17578 0.4401,-0.74123 3.3136,-1.38218 6.3867,-1.42578 z m 277.6933,0.38477 c 0.6442,-0.0114 11.5279,5.02398 12.3985,5.73633 0.3758,0.30747 -3.9793,36.72173 -5,41.80664 -0.6907,3.44089 -1.5915,3.66525 -4.9199,1.23047 -2.0947,-1.53216 -2.4114,-4.41342 -2.7813,-25.2461 -0.2296,-12.93374 -0.093,-23.52034 0.3027,-23.52734 z m 21.9668,0.9414 c -0.7333,0.013 -1.3131,1.22309 -1.2871,2.68946 0.026,1.46647 0.6476,2.65753 1.3809,2.64453 0.7331,-0.013 1.3111,-1.22495 1.2851,-2.69141 -0.026,-1.46637 -0.6457,-2.65558 -1.3789,-2.64258 z m -393.7011,0.32422 c 2.5522,-0.0453 2.6841,0.91682 3.2597,23.61133 0.33,13.01278 0.7611,24.79331 0.9571,26.17774 0.5766,4.07228 -2.6388,4.02009 -3.4981,-0.0566 -0.4318,-2.04815 -1.3686,-14.0658 -2.082,-26.70508 -1.2626,-22.37307 -1.227,-22.98135 1.3633,-23.02735 z m 96.6191,2.48047 c 1.9746,0.20063 2.4626,1.92001 3.0391,6.08399 3.1571,22.80428 3.2174,21.40154 -0.9688,22.41601 -2.0882,0.50616 -4.7706,1.19963 -5.9609,1.54102 -2.3044,0.661 -3.4977,-4.90774 -4.4336,-20.70899 -0.3974,-6.71039 -0.1761,-7.35778 2.8223,-8.25195 2.5962,-0.7742 4.3172,-1.20046 5.5019,-1.08008 z m -74.1348,0.27149 c -1.0681,0.0161 -2.0601,1.20586 -1.3574,2.29882 0.4339,0.67501 1.355,1.21778 2.0449,1.20508 1.4332,-0.0254 1.6357,-1.83703 0.3457,-3.08203 -0.3132,-0.30229 -0.6771,-0.42726 -1.0332,-0.42187 z m 70.5977,2.26171 c -1.0998,0.0195 -1.9896,0.63586 -1.9766,1.36915 0.013,0.73316 0.9237,1.31637 2.0235,1.29687 1.0998,-0.0195 1.9895,-0.63401 1.9765,-1.36719 -0.013,-0.73329 -0.9235,-1.31831 -2.0234,-1.29883 z m 268.7187,0.56446 c -0.7362,0.0131 -1.2178,3.15504 -1.0761,7.01953 0.2023,5.50476 0.4723,6.28163 1.2656,3.64453 1.4612,-4.85839 1.3576,-10.69156 -0.1895,-10.66406 z m -350.8242,0.89453 c 2.7105,-0.0481 2.7937,0.53079 3.1739,21.94727 0.3086,17.38082 0.02,22.00254 -1.377,22.02734 -1.3685,0.0243 -1.8522,-3.68873 -2.1426,-16.43945 -0.2063,-9.05937 -0.8391,-18.94971 -1.4062,-21.97852 -0.9355,-4.99508 -0.7728,-5.51184 1.7519,-5.55664 z m 229.0391,12.28711 c -2.2329,3.88412 -3.4133,5.37763 -3.9023,6.31055 -14.7222,0.40621 -9.3528,6.32669 -2.4571,7.17968 -1.0036,4.50806 -1.0791,9.46953 0.014,13.15625 -1.5573,1.12082 -2.3067,1.69608 -5.3047,4.3125 -6.5395,5.70717 -10.5811,13.93368 -14.0039,28.50782 -3.8876,16.55309 -3.9467,30.65455 -0.1367,32.60742 4.157,2.13073 8.5907,1.47205 15.3535,-2.2793 3.4689,-1.92418 6.8281,-3.70312 6.8281,-3.70312 0,0 3.9813,23.62054 2.8574,37.34375 -0.9443,11.53068 -4.7059,21.26823 4.3868,31.63085 1.9754,2.16947 2.2166,3.55762 1.2753,7.3125 -3.1824,12.69608 -3.1861,39.44863 -2.8144,64.2754 0.1309,8.7435 0.8715,16.8535 0.3926,26.23046 -0.073,0.56231 -10.8819,-2.06029 -13.2071,-2.27929 -6.3396,-1.20554 -8.8422,-0.32671 -8.7812,3.08593 0.052,2.93924 8.4487,7.05146 17.8496,8.72852 4.014,0.71608 7.2171,2.60148 12.1973,-0.90625 2.9394,-2.07034 2.3025,1.29584 1.914,-37.94336 -0.2012,-18.74752 -1.2274,-41.41238 0.8301,-62.72851 l 4.6152,-0.082 c 4.5026,-0.08 4.5949,0.0252 3.793,4.26758 -0.6246,3.30451 1.823,55.69355 1.752,72.83399 -0.01,1.48886 -0.722,2.03229 -2.0411,1.55273 -2.1,-0.76343 -5.953,1.71953 -5.916,3.8125 0.035,1.98889 8.5524,6.32662 12.3047,6.26172 1.9379,-0.0335 3.8159,-0.86294 4.1739,-1.84766 0.3577,-0.9847 -0.4882,-21.50366 -1.8829,-45.52539 l -2.5097,-43.22851 c 12.1347,-5.81248 16.2871,-14.77091 18.08,-27.25391 2.9711,-20.68381 1.6791,-47.96396 -4.3261,-66.68164 -2.8833,-8.98674 -9.94,-14.72298 -17.5059,-16.59375 -5.7448,-1.42054 -6.8805,-1.30849 -11.168,1.09961 -5.492,3.0847 -9.8412,9.36178 -14.0566,20.28516 -1.0944,2.83587 -1.6875,4.36977 -2.2734,6.8164 -2.1745,1.80229 -4.1065,2.94725 -7.086,4.77344 -3.52,2.15746 -7.5267,3.95373 -8.9043,3.99023 -2.2823,0.0612 -2.4381,-0.67452 -1.7441,-8.28125 1.318,-14.44412 2.105,-18.58906 3.6191,-19.07031 0.8085,-0.25699 3.0958,-0.854 5.084,-1.32617 3.5571,-0.84467 10.2105,-9.09569 10.1485,-12.58594 -0.017,-0.92955 -1.2917,-2.90793 -2.834,-4.39648 -2.2962,-2.21609 -2.5088,-3.07666 -1.1758,-4.74219 1.4134,-1.76587 2.1171,-1.47768 5.5273,1.99414 7.826,7.96735 21.2406,10.11975 30.8536,5.23633 4.4413,-2.3647 5.4223,-2.47657 7.7773,-0.88867 1.6147,1.0887 2.895,3.68307 3.1953,6.47265 0.9964,9.25488 10.7753,22.03121 16.7227,21.84961 2.2534,-0.0689 7.345,-13.09648 8.7246,-22.32226 1.3745,-9.19118 -6.4211,-17.50913 -14.7168,-15.70313 -4.7929,1.0433 -5.6457,-1.27602 -5.5449,-15.08398 0.097,-13.24958 -1.2825,-19.0154 -10.0684,-24.39649 -10.7997,-6.6145 -27.5098,-6.68726 -35.9082,7.92188 z m 99.1641,-11.40234 c 2.126,0.18428 2.6704,1.19159 2.707,3.24218 0.045,2.56309 -0.6348,3.34839 -2.9414,3.40039 -1.6496,0.0374 -5.2409,0.47918 -7.9824,0.98243 -4.6505,0.85378 -4.99,0.69142 -5.045,-2.41797 -0.05,-2.81556 0.7148,-3.47497 4.9258,-4.24805 2.3269,-0.42718 4.1762,-0.72598 5.6426,-0.87695 1.0998,-0.11323 1.9847,-0.14346 2.6934,-0.082 z m -287.334,0.50585 c 0.598,0.0352 1.0717,0.18935 1.2715,0.5 0.3691,0.57414 -0.8165,1.35518 -2.6348,1.73633 -1.8183,0.38124 -3.3142,0.24719 -3.3242,-0.29883 -0.019,-1.07189 2.8933,-2.04299 4.6875,-1.9375 z m 103.9629,0.0371 c -1.0998,0.0195 -1.9876,0.63587 -1.9746,1.36914 0.013,0.73318 0.9216,1.31638 2.0214,1.29688 1.0998,-0.0195 1.9896,-0.634 1.9766,-1.36719 -0.013,-0.73328 -0.9236,-1.31833 -2.0234,-1.29883 z m -115.127,2.04493 c 0.7165,-0.0127 0.9866,0.51034 0.5996,1.16211 -0.9495,1.59923 -6.0482,2.95861 -6.0722,1.61914 -0.02,-1.10552 3.199,-2.74095 5.4726,-2.78125 z m -74.0273,0.36914 c 0.2216,0.214 0.99,10.10298 1.709,21.97656 1.1432,18.88214 1.0535,21.5934 -0.7286,21.625 -1.1206,0.0199 -3.8595,0.43332 -6.0859,0.91992 -3.9412,0.86121 -4.0696,0.7316 -4.8867,-4.91406 -0.4616,-3.18931 -1.2953,-13.05824 -1.8516,-21.93164 l -1.0117,-16.13281 6.2266,-0.9668 c 3.4241,-0.53127 6.4072,-0.79017 6.6289,-0.57617 z m 20.3593,0.58398 c 1.4769,-0.0262 2.8631,1.18548 3.3672,2.94141 1.3871,4.83091 1.6901,40.9761 0.3438,41 -0.6732,0.0119 -2.1665,0.40155 -3.3184,0.86718 -1.8595,0.75173 -2.1385,-1.71101 -2.498,-21.95898 -0.3808,-21.44618 -0.2557,-22.80771 2.1054,-22.84961 z m 290.5332,10.58399 c 6.0051,9.94801 3.3524,23.19734 -5.7832,29.67382 -2.3876,1.6926 -4.8537,3.08466 -5.4785,3.09766 -2.5358,0.0451 -1.3382,-22.08226 1.5977,-29.52734 0.6499,-1.6483 -1.0015,-3.18618 -6.7891,-6.31836 -4.2765,-2.3143 -7.1448,-4.64863 -6.5058,-5.29493 7.4531,-5.68075 19.6858,2.94691 22.9589,8.36915 z m -183.6816,-9.81446 c -1.4673,0.026 -1.6264,13.71712 -0.1758,15.11719 1.6413,1.58549 1.7957,0.92793 1.6524,-7.14258 -0.079,-4.44367 -0.736,-7.98771 -1.4766,-7.97461 z m -117.9258,0.75977 c 1.7897,-0.0318 3.2644,0.5422 3.2774,1.27539 0.013,0.73318 -1.8099,1.36645 -4.0528,1.40625 -2.3792,0.0423 -3.7462,-0.48907 -3.2793,-1.27539 0.4401,-0.74122 2.2649,-1.37455 4.0547,-1.40625 z m 179.2969,0.81836 c -1.4664,0.026 -2.6556,0.64572 -2.6426,1.3789 0.013,0.73319 1.225,1.31321 2.6914,1.28711 1.4665,-0.026 2.6556,-0.64768 2.6426,-1.38086 -0.013,-0.73318 -1.225,-1.31125 -2.6914,-1.28515 z m 222.1621,0.0566 c -1.7384,0.0309 -2.0875,1.67331 -1.9238,9.03515 0.227,10.19105 1.9338,9.1034 3.2324,-2.05859 0.689,-5.92305 0.4853,-7.00846 -1.3086,-6.97656 z m -325.3184,0.625 c 0.6196,-0.0783 1.0804,-0.053 1.2325,0.0937 0.3041,0.29355 1.0535,6.54466 1.666,13.89062 1.0743,12.88335 1.0136,13.38412 -1.7246,14.15235 -1.5612,0.438 -3.0734,0.40784 -3.3614,-0.0684 -0.288,-0.47607 -1.0499,-6.65043 -1.6933,-13.72071 -1.129,-12.40568 -1.07,-12.89021 1.6953,-13.82226 0.788,-0.26558 1.5659,-0.44708 2.1855,-0.52539 z m -91.3359,0.10351 c -2.9154,0.0518 -4.64,1.82381 -3.1621,3.25 1.3651,1.31757 4.7339,0.29386 5.334,-1.62109 0.3048,-0.97277 -0.6058,-1.65671 -2.1719,-1.62891 z m 288.8926,1.17969 4.5488,4.25391 c 2.5015,2.33918 5.6323,4.23198 6.959,4.20898 1.7484,-0.0311 2.1786,0.60429 1.5605,2.30469 -2.2288,6.13138 -3.3632,16.28439 -2.6015,23.29687 0.4307,3.96619 0.6136,5.8721 0.2226,6.80078 -7.8081,1.6665 -14.4169,-1.12833 -18.9648,-8.35351 -3.7431,-5.94706 -3.7501,-10.99206 -0.031,-19.36328 2.9226,-5.44524 4.7012,-8.49789 8.3067,-13.14844 z m -209.0293,1.59766 c 1.2457,0.28249 1.3756,1.92524 1.4746,7.50195 0.077,4.34802 0.5593,10.59869 1.0703,13.89062 0.8856,5.70667 0.7625,6.02059 -2.6523,6.73633 -2.1358,0.44768 -3.8411,0.1087 -4.2246,-0.83984 -0.3537,-0.87496 -0.5705,-7.24784 -0.4805,-14.16211 0.1545,-11.88579 0.3255,-12.59759 3.1543,-13.05078 0.7035,-0.11268 1.2429,-0.17031 1.6582,-0.0762 z m -17.6016,1.3125 c -0.9083,0.38706 -1.0312,3.4943 -0.2793,8.75195 1.4222,9.94389 4.2043,9.82022 2.9981,-0.13281 -0.4971,-4.10243 -1.2471,-7.78903 -1.666,-8.19336 -0.2254,-0.21749 -0.4307,-0.35822 -0.6153,-0.42383 -0.1615,-0.0574 -0.3077,-0.0572 -0.4375,-0.002 z m 318.3594,0.64843 -0.2051,7.92383 c -0.1127,4.3587 -0.4815,11.68159 -0.8183,16.27149 l -0.6114,8.3457 -7.2812,0.12891 -7.2813,0.1289 0.625,-15.67969 c 0.343,-8.62413 0.6895,-15.78057 0.7715,-15.90234 0.082,-0.12168 3.4454,-0.44478 7.4746,-0.71875 z m -360.7207,0.24414 0.3438,19.33008 c 0.3179,17.91966 0.1634,19.33245 -2.1231,19.37305 -2.1958,0.039 -2.5857,-1.52647 -3.5469,-14.27148 -0.5938,-7.874 -1.5168,-16.55984 -2.0508,-19.30079 -0.9516,-4.88485 -0.888,-4.98394 3.2032,-5.05664 z m 163.5586,0.2461 c 0.773,-0.0805 1.376,-0.0385 1.6094,0.18359 0.2612,0.2485 0.091,1.09803 -0.3789,1.88867 -1.0259,1.72769 -7.3529,2.04913 -7.3829,0.375 -0.015,-0.86595 3.8335,-2.20588 6.1524,-2.44726 z m 49.2969,4.73047 c -1.1923,0.11955 -2.5684,0.38174 -3.8418,0.75781 -4.0298,1.19013 -4.7325,2.04462 -5.416,6.58008 -1.0382,6.88658 -4.528,8.53441 -4.6407,2.1914 -0.044,-2.49998 -0.6885,-4.90549 -1.4297,-5.3457 -0.8686,-0.51576 -1.2495,4.64401 -1.0742,14.51563 0.2636,14.84792 0.1802,15.33254 -2.707,15.79687 -1.6623,0.26735 -3.1727,1.60448 -3.418,3.02734 -0.42,2.43604 0.2919,2.49612 16.002,1.32813 9.0425,-0.67223 16.9547,-1.75436 17.582,-2.4043 2.3457,-2.43051 -0.9316,-4.04465 -7.957,-3.91992 l -7.252,0.12891 -0.1367,-6.99805 c -0.075,-3.84928 -0.571,-10.14126 -1.1016,-13.98242 L 2021,663.6212 l 4.0215,-0.0723 c 4.6128,-0.0819 8.2822,-3.35402 5.0703,-4.52149 -0.5356,-0.19467 -1.544,-0.21725 -2.7363,-0.0976 z m 55.1699,0.0391 c -1.8392,0.16791 -3.7362,2.37696 -2.9277,4.37695 0.987,2.44156 2.4061,2.367 4.4882,-0.23437 1.2284,-1.53475 1.2692,-2.47277 0.1563,-3.54688 -0.498,-0.48065 -1.1037,-0.65167 -1.7168,-0.5957 z m -87.8613,2.62109 0.094,5.1875 c 0.086,4.81694 -0.2178,5.24621 -4.2285,5.98633 -2.3759,0.43845 -9.9618,1.83737 -16.8574,3.10938 -15.0249,2.77166 -16.8845,3.68878 -17.9199,8.83789 -0.4386,2.18092 -1.8704,4.32758 -3.1817,4.76953 -1.3113,0.44195 -3.4362,2.0075 -4.7207,3.47851 -1.2845,1.47095 -3.4466,2.69465 -4.8066,2.71875 -1.3598,0.0241 -3.4794,1.26136 -4.709,2.75 -3.0218,3.65882 -5.3747,3.44906 -7.332,-0.65234 -1.6175,-3.38922 -1.729,-3.40996 -12.3477,-2.29687 -12.2483,1.28403 -12.7104,1.46132 -12.6504,4.83007 0.029,1.65414 -1.2375,2.78709 -3.8027,3.39844 -2.238,0.53341 -4.1134,2.00648 -4.4805,3.51953 -0.9673,3.98711 -7.9693,3.63064 -10.8164,-0.55078 -1.628,-2.39097 -3.4224,-3.27644 -6.5449,-3.21094 -6.3148,0.12303 -13.8804,2.6677 -14.709,4.94727 -0.3974,1.09283 -1.6408,2.00354 -2.7637,2.02344 -2.0248,0.036 -2.2243,-0.15627 -2.5879,-2.50977 -0.3572,-2.31233 -2.1982,-3.14653 -6.5097,-2.94726 -2.7251,0.1259 -5.2572,-0.76667 -6.8457,-2.41211 -1.7111,-1.77251 -3.8618,-2.45661 -6.6914,-2.13282 -2.9558,0.33823 -4.3032,-0.13471 -4.6329,-1.625 -0.3655,-1.65204 1.609,-2.49663 9.2247,-3.94336 13.9743,-2.65468 56.7991,-12.77537 70.7695,-16.72461 10.7071,-3.02684 61.4074,-13.82955 74.0644,-15.78124 z m 199.6777,2.11328 c -0.3841,-0.0319 -0.794,0.17859 -1.2305,0.63086 -0.7201,0.7462 -0.8618,2.05268 -0.3144,2.9043 0.6636,1.03218 1.4317,1.09595 2.3047,0.19141 0.7202,-0.7462 0.8618,-2.05279 0.3144,-2.9043 -0.3317,-0.51609 -0.6901,-0.79037 -1.0742,-0.82227 z m -163.5918,2.41211 c -0.7332,0.013 -1.2798,3.02345 -1.2148,6.68946 0.065,3.66611 0.7199,6.65362 1.4531,6.64062 0.7332,-0.013 1.2798,-3.02333 1.2148,-6.68945 -0.065,-3.66603 -0.7199,-6.65363 -1.4531,-6.64063 z m -158.3359,7 c -1.155,-0.23341 -1.8738,0.90736 -0.8965,2.42774 0.5048,0.78526 1.5235,1.03904 2.2617,0.56445 0.9005,-0.57897 0.8631,-1.32323 -0.1113,-2.26367 -0.4354,-0.42016 -0.8689,-0.65071 -1.2539,-0.72852 z m 310.9746,1.26368 c 0.4175,0.0822 1.1987,0.84468 2.6445,2.3457 3.1143,3.23332 3.1273,3.37467 2.8926,31.47851 l -0.2344,28.23243 -3.875,-3.22071 c -3.8234,-3.17709 -3.876,-3.40213 -3.918,-16.83398 -0.023,-7.48715 0.4295,-19.01757 1.0059,-25.62305 0.5763,-6.60545 1.0364,-13.19452 1.0234,-14.64453 -0.011,-1.2184 0.043,-1.81661 0.461,-1.73437 z m -167.4649,1.66211 c 1.2129,-0.42449 1.6985,1.7715 1.8125,8.19726 0.1249,7.03267 -0.2529,8.7831 -1.9062,8.8125 -1.6825,0.0299 -2.017,-1.48439 -1.8125,-8.19726 0.1553,-5.09786 0.8804,-8.45352 1.9062,-8.8125 z m -156.5136,0.30273 c -0.1621,-0.003 -0.3392,0.0534 -0.5235,0.17187 -0.737,0.47375 -0.9848,1.41289 -0.5508,2.0879 1.1756,1.82869 1.9698,1.47044 1.9278,-0.8711 -0.015,-0.8572 -0.3674,-1.38092 -0.8535,-1.38867 z m 135.5293,0.74219 0.2363,13.3125 c 0.13,7.32153 -0.096,16.10169 -0.502,19.51172 -0.6247,5.24841 -1.1888,6.20765 -3.6816,6.25195 -2.8516,0.0506 -2.9833,-0.52433 -4.1426,-18.15039 -0.6587,-10.01176 -1.0062,-18.40131 -0.7734,-18.64258 0.2328,-0.24126 2.3214,-0.85405 4.6426,-1.36133 z m 226.1679,2.98633 c 1.3406,-0.0238 11.4019,8.21518 11.4219,9.35351 0.032,1.78222 -1.6526,1.17291 -6.9961,-2.5332 -4.3177,-2.99502 -6.7731,-6.77871 -4.4258,-6.82031 z m -242.7656,0.30859 c 4.8735,-0.0865 4.9686,0.005 4.2266,4.0918 -0.4174,2.29935 -0.6441,10.64185 -0.5039,18.53711 0.2022,11.39106 -0.1451,14.51714 -1.6875,15.14062 -2.6908,1.08774 -2.914,0.41784 -4.127,-12.39453 -0.5892,-6.2238 -1.4814,-14.45909 -1.9824,-18.30078 l -0.9121,-6.98633 z m -9.6172,1.52539 c 2.1775,-0.0575 2.3659,1.47328 2.3359,18.92383 -0.029,16.54097 -0.3194,19.04805 -2.2636,19.45703 -2.5183,0.52969 -3.1353,-2.42229 -4.9102,-23.49805 -1.1036,-13.10374 -0.5714,-14.73976 4.8379,-14.88281 z m 20.3164,0.95117 c -2.0616,0.0366 -2.6198,1.62112 -1.0918,3.0957 1.0839,1.04622 3.1453,-0.19592 3.1153,-1.87695 -0.012,-0.68989 -0.9237,-1.23825 -2.0235,-1.21875 z m 206.1621,0.3418 c 2.453,-0.0436 2.9995,4.50916 4.1699,34.74609 0.6774,17.50868 0.9674,31.84071 0.6446,31.84571 -0.3228,0.006 -1.8758,-1.67118 -3.4512,-3.72461 -2.7654,-3.60477 -2.8566,-4.75344 -2.6406,-33.29102 0.123,-16.2569 0.6982,-29.56587 1.2773,-29.57617 z m -397.9883,0.58984 c -1.2631,0.19082 -2.7753,1.00689 -3.1152,2.0918 -0.3131,0.99922 0.5,1.29189 2.2363,0.80469 1.5014,-0.42123 2.7191,-1.33953 2.7071,-2.04102 -0.01,-0.44248 -0.2834,-0.70647 -0.7012,-0.82422 -0.3134,-0.0883 -0.7059,-0.0948 -1.127,-0.0312 z m 320.4221,3.30078 c 0.063,3.527 -3.208,6.68606 -4.6308,4.47266 -0.5358,-0.8335 0.2749,-2.80948 1.8027,-4.39258 2.3953,-2.24749 2.8373,-2.04676 2.8281,-0.0801 z m 102.2967,-0.33007 c 2.2891,-0.0406 11.2955,7.46773 11.3555,9.46679 0.085,2.82494 0.6175,2.98523 -6.3399,-1.91601 -4.9165,-3.46395 -7.602,-7.50478 -5.0156,-7.55078 z m -252.8184,0.48828 c -0.7333,0.013 -1.3216,0.62424 -1.3086,1.35742 0.013,0.73319 0.6242,1.32159 1.3575,1.30859 0.7332,-0.013 1.3216,-0.62424 1.3086,-1.35742 -0.013,-0.73319 -0.6243,-1.32159 -1.3575,-1.30859 z m 236.5293,2.46484 c 1.0486,0.15813 3.3262,1.54011 6.7539,4.37109 3.5272,2.91304 5.0696,5.17571 4.793,7.03321 -0.3582,2.40624 -1.1092,2.03374 -6.1797,-3.06055 -5.449,-5.47467 -7.1148,-8.6073 -5.3672,-8.34375 z m -79.4297,0.35352 c 0.4857,-0.013 1.0151,0.0152 1.5645,0.082 2.1976,0.26717 4.7041,1.14862 5.9238,2.44922 1.8645,1.98788 2.3014,4.06595 1.8867,8.96875 -0.2968,3.50948 -1.3527,8.42643 -2.3476,10.92773 -2.249,6.70549 -2.0924,4.23719 -6.1328,-0.20312 -2.3773,-2.6126 -5.0732,-7.10585 -5.9922,-9.98633 -1.4276,-4.4743 -1.36,-5.56214 0.4726,-7.46094 1.1799,-1.2226 2.137,-2.78004 2.125,-3.46094 -0.016,-0.86617 1.0429,-1.27749 2.5,-1.3164 z m 49.4063,0.10937 -0.4609,8.37891 c -0.7136,12.95197 -1.4879,17.05644 -3.1582,16.74414 -0.8448,-0.15793 -1.7462,0.76662 -2.004,2.05469 -0.2913,1.45519 0.3238,2.32778 1.627,2.30468 1.4417,-0.0256 2.1209,1.21385 2.1699,3.96289 0.063,3.55494 -0.3746,4.00722 -3.9297,4.07032 -2.1996,0.039 -3.9866,0.73831 -3.9726,1.55468 0.016,0.88072 1.6001,1.22488 3.8984,0.84571 3.396,-0.56017 3.9763,-0.16151 4.7188,3.23632 0.4654,2.13087 0.5238,4.41887 0.1289,5.08399 -0.7108,1.1971 -8.924,1.86799 -10.0137,0.81836 -0.6036,-0.58148 0.2791,-46.26776 0.9043,-46.80274 0.204,-0.17455 2.5591,-0.75321 5.2324,-1.28515 z m -370.0527,2.0625 c 1.3294,0.12507 1.3331,0.70754 0.2207,1.79492 -0.6728,0.65764 -3.8369,1.66984 -7.0313,2.24805 -4.5948,0.83171 -5.6902,0.67109 -5.2402,-0.76953 0.3128,-1.00161 3.2136,-2.24364 6.4453,-2.75781 1.5632,-0.24869 2.8323,-0.41248 3.8262,-0.49024 0.7453,-0.0583 1.3361,-0.0671 1.7793,-0.0254 z m 155.664,1.63867 0.3809,21.41797 c 0.3223,18.15109 0.075,21.42693 -1.6192,21.45703 -1.562,0.0277 -2.0321,-1.76984 -2.1464,-8.20703 -0.081,-4.53297 -0.9219,-13.53781 -1.8692,-20.01172 -0.9474,-6.47378 -1.4945,-11.98101 -1.2168,-12.23828 0.2777,-0.25718 1.8475,-0.90696 3.4883,-1.44336 z m -36.2246,6.07422 c 3.9972,-0.14504 4.6924,0.91259 -0.6348,2.17774 -2.0085,0.47704 -5.3803,1.44982 -7.4941,2.16015 -4.8729,1.63737 -4.7745,1.64776 -4.8125,-0.50781 -0.021,-1.18741 2.7277,-2.31085 7.9434,-3.24609 1.9653,-0.3524 3.6656,-0.53564 4.998,-0.58399 z m 24.2324,0.28125 c 0.8308,-0.0258 1.4856,0.0407 1.7657,0.20703 0.5602,0.33261 1.1681,8.96769 1.3496,19.18946 0.3142,17.69627 0.2027,18.58771 -2.336,18.63281 -1.571,0.0279 -2.7707,-0.90885 -2.9179,-2.28125 -0.1376,-1.28116 -0.393,-3.9032 -0.5684,-5.82617 -0.4138,-4.53366 -2.2357,-19.27922 -3.0449,-24.64258 -0.5534,-3.66825 -0.193,-4.27428 2.9336,-4.92969 0.9805,-0.20544 1.9875,-0.32379 2.8183,-0.34961 z m 258.1524,0.44727 3.2226,2.44726 c 1.773,1.34564 4.0441,2.43177 5.045,2.41407 1.4839,-0.0263 1.9173,5.50618 2.3515,29.96289 0.2931,16.49736 0.3267,29.9999 0.074,30.0039 -0.2524,0.004 -2.932,-2.40291 -5.955,-5.34961 -5.1879,-5.05698 -5.4292,-5.62309 -4.2793,-10.0957 0.67,-2.60611 0.8406,-14.78353 0.3789,-27.06055 z m 16.0918,2.05469 c 0.3964,-0.007 2.5202,1.26817 4.7187,2.83398 3.2099,2.28618 3.9829,3.78406 3.9239,7.59961 -0.1411,9.13383 -1.2664,11.48276 -5.3125,11.08984 -3.6624,-0.35574 -3.6741,-0.38666 -3.8614,-10.93359 -0.1032,-5.81708 0.135,-10.58286 0.5313,-10.58984 z m -380.0645,2.74804 c 3.2588,-0.0579 4.6762,0.51943 4.7012,1.91602 0.019,1.09982 -1.115,2.02187 -2.5215,2.04687 -1.4065,0.025 -3.5004,0.42501 -4.6523,0.89063 -1.5014,0.60695 -2.1066,0.0526 -2.1426,-1.96094 -0.041,-2.32144 0.7591,-2.82408 4.6152,-2.89258 z m 179.8301,0.0898 c -0.2338,-0.0128 -0.4816,0.0682 -0.7461,0.23828 -1.2715,0.8174 -0.079,19.91404 1.6738,26.80078 0.4181,1.64284 1.3842,2.97444 2.1446,2.96094 0.9109,-0.0162 1.05,-4.45289 0.4082,-13.00782 -0.9109,-12.14146 -1.8441,-16.90282 -3.4805,-16.99218 z m -96.1797,0.49023 c 1.3324,0.11124 1.6075,0.46846 0.9473,1.08398 -1.367,1.27427 -15.8462,2.53087 -15.8672,1.37696 -0.012,-0.69519 3.4232,-1.62435 7.6328,-2.06446 3.5663,-0.37287 5.9547,-0.50772 7.2871,-0.39648 z m 86.4531,1.14844 c -0.7677,-0.46882 -1.3099,3.91574 -1.1406,13.45117 0.1437,8.0898 0.6685,15.10188 1.166,15.58203 2.9095,2.80789 3.4547,-0.14584 2.4707,-13.36133 -0.7358,-9.88133 -1.7283,-15.20305 -2.4961,-15.67187 z m -73.7441,0.56054 1.2324,15.50196 c 0.9738,12.26002 0.864,15.74373 -0.5234,16.6582 -0.9649,0.63593 -2.805,1.18505 -4.0879,1.21875 -1.9789,0.0524 -2.3548,-1.22274 -2.4824,-8.4082 -0.083,-4.65836 -0.6013,-12.15003 -1.1524,-16.64844 l -1.0019,-8.17969 4.0078,-0.0703 z m 156.2871,0.25 v 0 c 6.1488,0.21177 12.468,7.06765 15.1211,18.79688 1.9688,8.70419 5.2814,28.4547 2.7031,48.64648 -1.172,9.1778 -4.1775,26.88645 -21.4902,28.77344 -0.093,-0.59794 -0.091,-2.67909 0,-4.625 0.2369,-5.07479 -2.212,-5.79394 -4.8418,-1.42187 -1.2406,2.06234 -2.4305,3.99987 -2.6426,4.30468 -4.4533,4.19702 -4.0805,-18.61712 -2.5097,-23.67773 3.7405,-12.05072 -0.7011,-27.12351 -1.6211,-43.28711 l 8.6914,-8.36523 c 6.3131,-6.07693 8.4438,-8.97902 7.7871,-10.60352 -1.3847,-3.42545 -5.0771,-2.6054 -9.8477,2.18555 -5.0412,5.06267 -5.4823,3.95206 -1.4082,-3.54883 2.7372,-5.03951 6.3654,-7.30479 10.0547,-7.17774 z m -275.4609,1.2168 c 1.5562,-0.0186 2.2272,0.87431 2.2617,2.83203 0.018,1.00724 -1.4122,1.80439 -3.3008,1.83789 -3.9624,0.0704 -4.5981,-3.2941 -0.8223,-4.35351 0.7247,-0.2033 1.3426,-0.3102 1.8614,-0.31641 z m 86.3398,0.45117 c 1.8443,-0.0327 2.4093,2.62813 3.6777,17.33789 0.9376,10.87444 1.0324,17.86047 0.254,18.66602 -2.5715,2.66087 -3.3835,1.08772 -3.6192,-7.00586 -0.1336,-4.58165 -0.749,-12.97123 -1.3672,-18.64453 -0.9852,-9.04151 -0.8552,-10.31962 1.0547,-10.35352 z m -23.209,0.0781 c 1.306,-0.11678 2.1859,-0.0792 2.3223,0.14258 1.3574,2.20703 4.4695,38.93643 3.3887,39.99218 -0.6664,0.65093 -3.6593,1.6255 -6.6524,2.16602 l -5.4433,0.98242 -1.9707,-18.38281 c -1.0841,-10.11083 -2.2551,-19.34479 -2.6036,-20.52149 -0.4899,-1.65465 0.8851,-2.46968 6.0743,-3.59179 1.8451,-0.39897 3.5788,-0.67033 4.8847,-0.78711 z m -26.5781,0.95898 c 1.4434,0.098 1.7595,0.95269 1.9004,3.39063 0.1191,2.0636 0.7514,12.28931 1.4043,22.72265 0.9489,15.16782 0.8337,19.11187 -0.5762,19.67969 -2.5139,1.0125 -4.2072,0.91411 -4.2402,-0.24609 -0.015,-0.54981 -0.6661,-5.80404 -1.4473,-11.67578 -0.7811,-5.87176 -1.6489,-15.75745 -1.9277,-21.96875 l -0.5078,-11.29297 3.539,-0.48633 c 0.7665,-0.105 1.3744,-0.1557 1.8555,-0.12305 z m 68.3555,0.48633 c 1.4083,-0.0471 2.3821,0.0199 2.582,0.21289 1.2744,1.22987 2.3107,28.69315 1.1289,29.91602 -0.624,0.64568 -3.5987,1.61217 -6.6113,2.14843 l -5.4766,0.97461 -0.8867,-5.79492 c -0.4869,-3.18704 -1.353,-10.34531 -1.9258,-15.9082 l -1.041,-10.11524 7.043,-0.96093 c 1.9368,-0.26438 3.7791,-0.42561 5.1875,-0.47266 z m 10.7011,0.62305 c -0.7332,0.013 -1.3235,0.62424 -1.3105,1.35742 0.013,0.73319 0.6242,1.32159 1.3574,1.30859 0.7332,-0.013 1.3216,-0.62424 1.3086,-1.35742 -0.013,-0.73319 -0.6222,-1.32159 -1.3555,-1.30859 z m -55.914,0.99218 c -2.7825,0.0494 -4.5103,1.83794 -3.0957,3.20313 1.0607,1.02353 1.0459,1.02337 3.6308,-0.0215 2.9249,-1.18241 2.5795,-3.23703 -0.5351,-3.18165 z m -77.336,0.28321 0.2227,21.0664 0.2227,21.06641 -4.0411,0.88281 c -2.2228,0.48573 -4.4944,0.89215 -5.0468,0.90235 -0.7422,0.0132 -3.5462,-41.22041 -2.8633,-42.10547 0.064,-0.0836 2.6789,-0.52595 5.8105,-0.98242 z m 44.9903,0.29101 0.3633,14.26758 c 0.2527,9.94095 -0.1281,14.59171 -1.2579,15.33789 -0.8917,0.58902 -2.6719,1.09913 -3.955,1.13281 -1.8956,0.0503 -2.3518,-1.12537 -2.4532,-6.27148 -0.067,-3.48266 -0.5775,-10.37355 -1.1328,-15.31445 l -1.0097,-8.98438 4.7226,-0.084 z m -20.416,0.36328 c 1.5535,-0.0276 2.0593,1.59374 2.1543,6.9629 0.071,3.84932 0.656,14.64042 1.2988,23.98046 0.9707,14.10447 0.8517,16.98608 -0.7031,17.01368 -1.5199,0.0254 -1.9673,-3.8225 -2.3789,-20.44727 -0.2789,-11.2629 -0.9318,-22.05268 -1.4512,-23.97656 -0.7098,-2.62942 -0.4421,-3.50621 1.0801,-3.53321 z m 93.7812,0.37891 c -0.8433,0.11802 -1.7506,0.74303 -2.0781,1.78711 -0.354,1.12796 0.2634,1.61733 1.6484,1.30469 1.2185,-0.27497 2.1731,-1.09954 2.1211,-1.83203 -0.07,-0.98842 -0.848,-1.37778 -1.6914,-1.25977 z m -24.3867,1.05664 c 2.5663,-0.0456 4.6755,0.45052 4.6875,1.10352 0.012,0.653 -2.0738,1.46923 -4.6348,1.81445 -3.2111,0.43278 -4.6665,0.0909 -4.6875,-1.10352 -0.019,-1.0906 1.6965,-1.76235 4.6348,-1.81445 z m 139.2559,0.16016 c -2.0013,0.33304 -3.2634,8.33468 -1.5313,12.61914 0.4656,1.15191 1.7584,2.07839 2.873,2.05859 1.6298,-0.0289 1.8786,-1.34388 1.2657,-6.71875 -0.4193,-3.67592 -1.1894,-7.09609 -1.711,-7.59961 -0.3095,-0.29866 -0.6106,-0.40695 -0.8964,-0.35937 z m -214.4668,1.17383 c 0.6967,-0.0124 1.4009,10.02961 1.6367,23.30859 0.3524,19.84864 0.1174,23.33503 -1.584,23.36523 -1.139,0.0202 -2.0907,-1.25396 -2.209,-2.96093 -2.9133,-41.88981 -2.8268,-43.62439 2.1563,-43.71289 z m -24.1055,0.42968 c -0.7332,0.013 -1.3236,0.62219 -1.3106,1.35547 0.013,0.73319 0.6243,1.32355 1.3575,1.31055 0.7332,-0.013 1.3216,-0.62424 1.3086,-1.35742 -0.013,-0.73329 -0.6222,-1.3216 -1.3555,-1.3086 z m 69.582,0.32032 c 1.6171,0.39334 2.3827,5.88648 3.0742,19.29492 0.8155,15.81227 0.6774,17.61965 -1.3886,18.19922 -2.0459,0.57401 -2.454,-1.24601 -3.7852,-16.83789 -1.1632,-13.62268 -1.1266,-17.91782 0.1699,-19.45508 0.7573,-0.89784 1.3907,-1.33229 1.9297,-1.20117 z m 318.5703,0.96875 c -0.3789,-0.0413 -0.7186,0.0383 -0.9531,0.28125 -0.3843,0.39819 -0.292,1.35747 0.2051,2.13086 1.1173,1.73802 3.4206,1.81115 3.3906,0.10742 -0.021,-1.17964 -1.5059,-2.39557 -2.6426,-2.51953 z m -303.2734,0.0781 c -1.9812,0.12142 -4.7547,1.56232 -4.0703,2.62695 0.9835,1.52978 2.0978,1.49941 4.5683,-0.125 1.0629,-0.70132 1.5443,-1.65606 1.0625,-2.12109 -0.3268,-0.31547 -0.9001,-0.42133 -1.5605,-0.38086 z m 111.2637,0.48438 c 1.4232,-0.0253 2.5983,0.55393 2.6113,1.28711 0.013,0.73316 -1.5124,1.35927 -3.3887,1.39257 -1.9349,0.0344 -3.0651,-0.52274 -2.6113,-1.28711 0.4401,-0.74121 1.9656,-1.36727 3.3887,-1.39257 z m -92.3086,1.48632 1.082,9.72461 c 0.5961,5.34846 0.9111,11.52832 0.6992,13.73243 -0.3298,3.42998 -1.009,4.07856 -4.7109,4.50195 l -4.3262,0.49414 -0.4277,-10.74414 c -0.2359,-5.90985 -0.4971,-12.09532 -0.5781,-13.74414 -0.1196,-2.41495 0.6694,-3.09088 4.0566,-3.48047 z m 80.8554,0.25586 c 1.5147,-0.32164 2.1645,0.14669 1.8028,1.30079 -0.311,0.99235 -1.6313,2.03213 -2.9336,2.30859 -1.5145,0.32164 -2.1645,-0.14864 -1.8028,-1.30274 0.311,-0.99236 1.6313,-2.03008 2.9336,-2.30664 z m -60.5586,0.86914 c -1.5089,0.0268 -1.6923,12.37512 -0.205,13.81055 1.7102,1.65049 3.7454,-0.0382 4.0879,-3.39258 0.4095,-4.01058 -1.9911,-10.45157 -3.8829,-10.41797 z m 51.2832,1.32032 c 0.4637,0.16837 0.7249,0.52703 0.7344,1.05859 0.017,0.94565 -1.1633,2.05525 -2.623,2.46484 -1.6408,0.46029 -2.6666,0.0884 -2.6856,-0.9746 -0.017,-0.94575 1.1654,-2.05527 2.625,-2.46485 0.8204,-0.23015 1.4857,-0.25233 1.9492,-0.084 z m 214.1172,1.96875 c -0.7333,0.013 -1.3216,0.62423 -1.3086,1.35742 0.013,0.73328 0.6222,1.32159 1.3555,1.30859 0.7332,-0.013 1.3236,-0.62218 1.3106,-1.35547 -0.013,-0.73318 -0.6244,-1.32354 -1.3575,-1.31054 z m -192.7246,0.16601 c 1.609,0.16496 2.1181,1.50957 1.293,3.7793 -0.4268,1.17387 -1.9108,2.15499 -3.2988,2.17969 -3.434,0.061 -3.4015,-4.75548 0.039,-5.72071 0.7721,-0.21661 1.4305,-0.29326 1.9668,-0.23828 z m -11.7422,2.20703 c 0.9999,0.22071 1.8296,1.07338 1.8536,2.41602 0.055,3.10681 -3.732,4.89937 -4.795,2.26953 -0.423,-1.04517 -0.3906,-2.53579 0.07,-3.3125 0.7021,-1.1824 1.8713,-1.59375 2.8711,-1.37305 z m -174.5644,0.37696 c 3.2118,0.007 4.0905,3.29676 5.2207,19.55664 l 1.2266,17.64648 -3.2793,0.0586 -3.2793,0.0586 -0.4551,-18.66211 c -0.2499,-10.26385 0.01,-18.65899 0.5664,-18.6582 z m 416.4316,0.63672 c 0.3669,0.013 1.8007,0.85114 3.1875,1.86328 2.4166,1.76358 2.4613,2.74617 1.0723,23.60937 -1.8592,27.92375 -4.0114,26.10448 -4.543,-3.83984 -0.2115,-11.9109 -0.084,-21.64531 0.2832,-21.63281 z m -94.1718,0.59375 c -1.4298,0.0254 -1.9732,1.49268 -1.9082,5.14648 0.05,2.8106 0.5281,5.53308 1.0644,6.05078 1.2588,1.2148 2.7775,-2.86707 2.8145,-7.56445 0.019,-2.4127 -0.6553,-3.65581 -1.9707,-3.63281 z m -158.8145,0.0547 c 1.1849,-0.1253 2.3015,0.61218 2.332,2.32032 0.034,1.90777 -0.807,2.7786 -2.7148,2.8125 -1.9078,0.0339 -2.6391,-0.6702 -2.3594,-2.27539 0.3038,-1.74347 1.5573,-2.73212 2.7422,-2.85743 z m -173.6582,0.28907 c -0.695,-0.66702 -1.4814,1.5342 -1.9668,6.97851 -0.4303,4.8296 -0.3703,9.42238 0.1328,10.20508 2.1874,3.40251 3.4123,0.78721 3.2559,-6.95313 -0.1218,-6.02712 -0.7269,-9.56346 -1.4219,-10.23046 z m 233.3418,9.08007 c -2.2333,-0.033 -5.0848,-0.002 -8.6543,0.0762 -13.9599,0.30527 -17.7893,1.33073 -15.9063,4.25976 1.0705,1.66516 28.6828,-0.0428 30.6329,-1.89453 1.7611,-1.6723 0.6275,-2.34228 -6.0723,-2.44141 z m -36.8418,0.15625 c 0.9904,0.17583 0.939,1.02944 0.748,2.94922 -0.2667,2.68276 -1.286,3.68709 -4.4472,4.38672 -6.0133,1.33086 -7.1727,2.44301 -7.0957,6.79883 0.062,3.46755 -0.3946,3.92939 -3.9317,3.99219 -2.6663,0.0473 -4.0092,-0.59465 -4.0332,-1.92774 -0.025,-1.38348 -1.4262,-1.97532 -4.5468,-1.91992 -3.4809,0.0618 -4.6907,-0.56504 -5.3028,-2.74609 -0.5967,-2.12705 -1.3856,-2.56333 -3.1875,-1.76172 -1.3169,0.58587 -5.3854,1.60437 -9.041,2.26367 -19.8799,3.5851 -24.9621,4.61888 -35.8769,7.29688 -21.6619,5.31468 -22.2388,5.53737 -21.4629,8.30273 1.2423,4.42772 -1.9811,6.34541 -14.9043,8.86133 -6.9438,1.35179 -17.4023,3.72965 -23.2422,5.28515 -5.84,1.55552 -11.6631,3.15773 -12.9395,3.56055 -2.0283,0.64001 -2.339,-0.27303 -2.4629,-7.25 -0.1638,-9.22693 -2.9368,-7.75247 23.7793,-12.64062 14.5028,-2.65359 38.2501,-7.53401 85.0371,-17.47657 6.9416,-1.47507 17.108,-3.46582 22.5918,-4.42383 5.4839,-0.95788 12.5448,-2.26845 15.6914,-2.9121 1.4028,-0.2869 2.4625,-0.49965 3.2559,-0.60352 0.5951,-0.0779 1.041,-0.0938 1.3711,-0.0352 z m 189.5195,2.5 c 0.4225,-0.007 6.1412,7.7276 9.4707,12.8086 0.819,1.24976 -0.2694,1.69598 -4.3027,1.76758 l -5.3984,0.0957 -0.1289,-7.33203 c -0.072,-4.03267 0.09,-7.33485 0.3593,-7.33985 z m -299.5371,4.19532 c -1.8165,0.044 -3.6696,1.28322 -2.8887,2.49804 1.0719,1.66763 4.2951,1.67202 5.2832,0.008 0.4097,-0.69008 0.1,-1.63897 -0.6894,-2.10743 -0.4987,-0.29607 -1.0996,-0.41311 -1.7051,-0.39843 z m -36.6816,2.29492 c 0.6793,0.0909 1.1292,0.32485 1.1367,0.74023 0.011,0.6047 -0.9223,1.47972 -2.0742,1.94531 -3.3481,1.35346 -6.139,1.0482 -5.6172,-0.61523 0.4146,-1.32172 4.5168,-2.3429 6.5547,-2.07031 z m 146.8359,2.70703 c 0.8097,0.59 0.8345,3.43045 0.5059,11.68359 -0.2733,6.86673 -0.7584,15.63981 -1.0781,19.4961 -0.3198,3.85627 -1.0556,7.02095 -1.6348,7.03125 -1.0148,0.018 -1.7306,-4.7512 -4.043,-26.9336 -0.9204,-8.82914 -0.7774,-10.32006 0.9981,-10.35156 1.141,-0.0203 3.0146,-0.41814 4.164,-0.88281 0.4605,-0.18616 0.818,-0.23961 1.0879,-0.043 z m 217.7442,0.9668 c -1.0998,0.0195 -1.9839,0.93532 -1.9649,2.03515 0.02,1.09982 0.9354,1.98435 2.0352,1.96485 1.0998,-0.0195 1.9838,-0.93533 1.9648,-2.03516 -0.02,-1.09983 -0.9353,-1.98434 -2.0351,-1.96484 z m -253.045,2.56836 c 0.9806,0.0114 1.7181,0.1341 1.9746,0.36523 0.5129,0.46237 1.2223,10.10976 1.5762,21.43945 l 0.6426,20.59961 -3.5137,1.00782 c -4.2213,1.20961 -4.3648,0.77341 -5.7109,-17.39454 -0.5156,-6.95863 -1.3755,-15.41648 -1.9102,-18.79492 l -0.9707,-6.14258 4.4766,-0.77734 c 1.2313,-0.21387 2.4549,-0.31412 3.4355,-0.30273 z m -111.0058,0.0644 c 1.7002,-0.15603 2.0474,0.41628 2.0781,2.14258 0.059,3.29887 -7.6985,5.21909 -8.916,2.20703 -0.9649,-2.38665 -0.4105,-2.8613 4.6484,-3.9668 0.9057,-0.19793 1.6227,-0.3308 2.1895,-0.38281 z m 98.0488,2.08984 c 0.5897,-0.0105 1.6841,9.64134 2.4316,21.44922 1.1087,17.51733 1.0273,21.68833 -0.4453,22.6582 -4.2554,2.80279 -4.7599,0.71955 -6.0488,-24.95117 -0.8925,-17.77752 -0.6188,-19.07315 4.0625,-19.15625 z m 24.2852,0.90235 c 1.3442,-0.0239 2.4605,0.80771 2.4785,1.84765 0.018,1.03983 0.3836,2.75751 0.8125,3.81836 0.5528,1.36779 -0.1762,1.94688 -2.5078,1.98828 -2.3931,0.0425 -3.4668,-0.79242 -3.9434,-3.0664 -0.7671,-3.65905 -0.1678,-4.52879 3.1602,-4.58789 z m -14.1954,1.58593 c -2.0296,0.036 -2.6856,2.8681 -1.0332,4.46289 1.7202,1.66013 3.1271,0.82385 3.0801,-1.83203 -0.026,-1.48127 -0.936,-2.65066 -2.0469,-2.63086 z m -154.8613,0.71094 c 1.0494,-0.0538 1.8572,0.0157 2.1485,0.26172 0.3507,0.29621 -0.2343,1.11321 -1.3008,1.81445 -2.4797,1.63079 -9.263,1.81855 -9.291,0.25782 -0.016,-0.90594 5.2951,-2.17261 8.4433,-2.33399 z m 133.6621,0.0195 c 1.1386,0.0834 1.881,0.32332 1.8887,0.76367 0.015,0.83287 -0.1235,1.52196 -0.3066,1.53516 -0.1831,0.0113 -3.1517,0.93207 -6.5977,2.04492 -6.1257,1.97827 -9.6421,0.98781 -6.832,-1.92383 1.4457,-1.49799 8.4318,-2.67021 11.8476,-2.41992 z m 259.1348,0.0156 c 0.6167,0.01 1.0538,0.13449 1.1602,0.37109 0.2125,0.4732 -0.105,2.2631 -0.7051,3.97852 l -1.0918,3.11914 -2.3106,-3.17188 c -2.2296,-3.06068 -2.2041,-3.2025 0.7051,-3.98047 0.8294,-0.22181 1.6255,-0.32615 2.2422,-0.3164 z m -214.0723,0.19922 c 1.6484,-0.18411 3.4297,0.0626 3.9492,0.89453 0.3398,0.54406 0.9511,7.5839 1.3575,15.64453 0.7063,14.01163 0.6174,14.67531 -2.0293,15.10156 -2.5792,0.41545 -2.8931,-0.53434 -4.584,-13.91992 -0.9982,-7.9017 -1.8258,-15.11663 -1.8418,-16.0332 -0.015,-0.88822 1.5001,-1.5034 3.1484,-1.6875 z m 219.8399,2.51953 3.2519,2.94531 c 3.067,2.78058 3.2653,3.81729 3.5235,18.35938 0.1505,8.47674 -0.5028,21.73608 -1.4532,29.46484 -0.9503,7.72877 -1.8461,16.4405 -1.9902,19.35742 l -0.2617,5.30274 -2.4629,-3.64063 c -2.5603,-3.78334 -2.7663,-14.41143 -1.125,-58.00586 z m -282.1563,0.7539 c 0.6033,0.13419 1.0394,0.43749 1.1856,0.88086 0.282,0.85483 1.0773,11.29489 1.7675,23.20117 1.0568,18.22939 0.9549,21.65335 -0.6406,21.68165 -1.4725,0.0262 -2.3142,-4.09884 -3.7793,-18.50586 -1.0369,-10.19658 -2.2684,-20.29052 -2.7363,-22.43164 -0.7026,-3.21473 -0.3506,-4.034 2.0137,-4.69727 0.8167,-0.22914 1.5862,-0.26309 2.1894,-0.12891 z m -7.8554,1.81446 1.0527,11.71093 c 0.5789,6.44105 1.5002,15.33191 2.0488,19.75586 l 0.9981,8.04297 -4.6543,1.51953 -4.6563,1.51954 -0.8847,-4.81446 c -0.4865,-2.64838 -0.9943,-8.7136 -1.1309,-13.47851 -0.1363,-4.76503 -0.7726,-11.5268 -1.4121,-15.02539 -1.2798,-7.00138 -1.3305,-6.90781 4.5254,-8.27149 z m -108.7872,0.28515 c 0.9825,0.0272 1.7165,0.18223 1.9258,0.50782 0.3229,0.50224 -0.7511,1.29839 -2.3847,1.76757 -4.3196,1.24027 -7.6323,1.1455 -7.6563,-0.21679 -0.019,-1.0713 5.1678,-2.14028 8.1152,-2.0586 z m 382.6778,0.97657 2.8008,3.61718 c 1.5402,1.98967 3.5432,3.60399 4.4511,3.58789 1.2666,-0.0225 1.626,5.16774 1.543,22.3086 -0.06,12.28638 -0.212,22.96718 -0.3398,23.73437 -0.4119,2.4728 -7.7126,-6.84966 -7.7676,-9.91797 l -0.055,-2.96484 2.6074,3.10156 c 1.434,1.70612 3.1008,2.59389 3.7031,1.97071 0.6021,-0.62319 -0.5798,-2.52491 -2.6269,-4.22461 l -3.7227,-3.08985 -0.2968,-19.0625 z m -247.375,0.43554 c 0.783,0.27712 -0.9642,1.41298 -5.2696,3.34961 -7.4418,3.34765 -7.3534,3.33616 -7.3964,0.93946 -0.021,-1.17781 2.3407,-2.44319 6.2578,-3.35157 2.0908,-0.48489 3.6865,-0.79193 4.7832,-0.92578 0.8225,-0.10038 1.364,-0.10409 1.625,-0.0117 z m -31.7305,1.50196 c -0.6045,0.21775 -0.9686,1.07852 -0.9453,2.36718 0.031,1.71824 0.7215,2.6508 1.707,2.30274 0.911,-0.32171 1.642,-1.38368 1.625,-2.36133 -0.017,-0.97764 -0.7851,-2.01551 -1.707,-2.30469 -0.2493,-0.0782 -0.4782,-0.0764 -0.6797,-0.004 z m 68.25,0.3164 c 1.2407,0.26086 1.4179,2.65555 1.8867,11.47071 0.3548,6.66744 0.085,12.69874 -0.5996,13.40429 -3.2342,3.33515 -4.3684,0.9752 -5.2754,-10.98047 -0.514,-6.77522 -0.8471,-12.39438 -0.7402,-12.48828 0.1069,-0.0942 1.4939,-0.59656 3.082,-1.11523 0.6999,-0.22861 1.233,-0.37797 1.6465,-0.29102 z m 237.9531,4.14063 4.627,4.875 c 4.1183,4.33656 4.564,5.49349 4.0391,10.49218 -0.3247,3.09005 -1.1198,13.42832 -1.7676,22.97461 -0.648,9.54628 -1.4732,23.66349 -1.834,31.3711 l -0.6563,14.01367 -3.7675,-6.05078 c -4.4361,-7.12675 -4.6193,-9.99213 -2.17,-33.85742 0.9799,-9.54777 1.7233,-23.31394 1.6543,-30.58985 z m -275.3457,0.5039 c 1.0287,0.4009 1.5433,4.11626 2.1309,14.38868 0.4743,8.28967 0.5179,15.482 0.1,15.98242 -0.4187,0.50051 -2.9643,1.35392 -5.6582,1.89843 -4.7591,0.96184 -4.92,0.86524 -5.6914,-3.46093 -0.4367,-2.44883 -1.0517,-9.35986 -1.3652,-15.35742 l -0.5704,-10.9043 4.42,-0.91016 c 2.4302,-0.50073 5.2016,-1.22775 6.1601,-1.61523 0.1697,-0.0686 0.3277,-0.0788 0.4746,-0.0215 z m 301.666,2.15235 c -0.7332,0.013 -1.3168,0.92362 -1.2968,2.02343 0.019,1.09982 0.6359,1.98957 1.3691,1.97657 0.7332,-0.013 1.3169,-0.9236 1.2969,-2.02344 -0.02,-1.09982 -0.636,-1.98956 -1.3692,-1.97656 z m -342.3984,0.86523 c 0.7256,0.17585 1.0416,0.78751 1.0606,1.86328 0.022,1.24431 -1.2232,2.0217 -3.2969,2.0586 -3.7234,0.0661 -4.5046,-1.86493 -1.2813,-3.16797 1.6566,-0.66967 2.792,-0.92976 3.5176,-0.75391 z m 36.5625,2.2832 c -1.8846,0.65477 -2.4762,7.93396 -1.2422,15.27149 0.925,5.50073 2.4435,7.09073 4.1035,4.29492 1.3765,-2.3182 -1.2289,-20.13367 -2.8613,-19.56641 z m -47.4101,0.45899 c 1.5096,-0.0268 2.3854,0.55759 1.9453,1.29883 -0.4402,0.74133 -1.6642,1.36216 -2.7207,1.38086 -1.0566,0.0188 -1.9324,-0.56554 -1.9454,-1.29883 -0.013,-0.73318 1.211,-1.35406 2.7208,-1.38086 z m -8.6407,1.48633 c 1.8763,-0.0333 3.0942,0.47323 2.7071,1.125 -1.2928,2.17757 -6.051,2.81103 -6.086,0.81054 -0.02,-1.12262 1.3361,-1.89934 3.3789,-1.93554 z m -8.4218,1.67578 c 0.549,-0.0732 1.0629,-0.0649 1.4726,0.0391 0.5463,0.13867 0.9068,0.44875 0.916,0.9668 0.014,0.78418 -0.5239,1.43556 -1.1972,1.44726 -0.6732,0.012 -2.2487,0.43561 -3.5,0.94141 -1.5968,0.64545 -2.101,0.3557 -1.6895,-0.9707 0.3899,-1.25677 2.3508,-2.20436 3.9981,-2.42383 z m 27.6289,1.21094 c 0.7469,-0.0331 1.3635,0.0369 1.6699,0.21875 0.6125,0.36379 1.2405,7.75597 1.3945,16.42578 0.2535,14.2781 0.045,15.82826 -2.2031,16.45898 -2.2493,0.63113 -2.5783,-0.44264 -3.5235,-11.45117 -0.5734,-6.68066 -1.4379,-14.00556 -1.9199,-16.27734 -0.7449,-3.51153 -0.4256,-4.25536 2.1309,-4.97266 0.827,-0.23207 1.7042,-0.36929 2.4512,-0.40234 z m -37.1329,1.43164 c 1.5097,-0.0268 2.3835,0.55751 1.9434,1.29882 -0.4401,0.74123 -1.6641,1.36402 -2.7207,1.38282 -1.0566,0.0188 -1.9323,-0.56564 -1.9453,-1.29883 -0.013,-0.73328 1.2129,-1.35601 2.7226,-1.38281 z m -8.623,1.81445 c 0.7822,-0.0486 1.4115,0.0387 1.6992,0.31641 0.4501,0.43429 -0.055,1.36321 -1.1211,2.06445 v 0.002 c -2.4779,1.62885 -6.598,1.75883 -6.625,0.20899 -0.019,-1.08088 3.7004,-2.446 6.0469,-2.5918 z m 35.082,0.38281 c 2.6428,-0.0469 2.8416,0.60881 2.8926,9.61719 0.03,5.31689 -0.3088,12.67442 -0.7539,16.34961 -0.8031,6.63178 -0.8199,6.59571 -2.0156,-4.63281 -0.6628,-6.22252 -1.5995,-13.55697 -2.0821,-16.29883 -0.7823,-4.44511 -0.5704,-4.99026 1.959,-5.03516 z m -8.8007,1.49024 c 2.9248,-0.0519 3.6584,4.1494 3.3574,19.24609 -0.3167,15.88098 -2.998,19.58308 -3.2832,4.5332 -0.1019,-5.37682 -0.6198,-12.91859 -1.1504,-16.75976 -0.7944,-5.749 -0.6037,-6.98973 1.0762,-7.01953 z m -8.4825,1.48437 c 2.7104,-0.0481 2.8595,0.61069 3.3203,14.60938 0.2655,8.06324 0.5499,15.65994 0.6329,16.88086 0.083,1.22101 -0.516,2.45469 -1.3301,2.74218 -0.9504,0.33563 -1.859,-2.94894 -2.5391,-9.17773 -0.5825,-5.3358 -1.4775,-13.14525 -1.9902,-17.35352 -0.8732,-7.1677 -0.7528,-7.65387 1.9062,-7.70117 z m -34.3476,1.40625 c 0.4409,0.23431 1.2827,7.49467 1.8711,16.13477 0.5884,8.64019 1.4517,16.65648 1.9199,17.81445 0.6558,1.62212 -0.9432,2.79778 -6.9649,5.11523 -4.299,1.65458 -8.1646,3.01349 -8.5898,3.02149 -1.4965,0.0266 -2.2109,-4.79607 -3.2617,-21.99219 l -1.0606,-17.36328 7.6407,-1.57813 c 4.2031,-0.86814 8.0043,-1.38664 8.4453,-1.15234 z m 25.039,0.0918 c 2.7264,-0.0484 2.8503,0.54117 3.1231,14.94726 0.1565,8.24852 0.6692,16.34054 1.1406,17.98243 0.606,2.11065 0.2805,2.99473 -1.1133,3.01953 -1.4944,0.0265 -2.2296,-2.45869 -3.0351,-10.2793 -0.5845,-5.6739 -1.4874,-13.76073 -2.0078,-17.96875 -0.8869,-7.17187 -0.7682,-7.65387 1.8925,-7.70117 z m -7.1523,1.72851 c 0.2931,0.34025 3.617,35.96412 3.4121,36.56836 -0.042,0.12447 -1.6564,0.65441 -3.5879,1.17578 -3.2627,0.88076 -3.5726,0.58646 -4.3516,-4.14843 -0.4611,-2.80306 -1.3291,-11.15877 -1.9296,-18.56836 l -1.0918,-13.47266 3.6054,-0.97266 c 1.9828,-0.53507 3.7576,-0.79776 3.9434,-0.58203 z m -25.6914,2.85547 c -2.9197,0.0518 -4.7067,1.80875 -3.2598,3.20508 1.3671,1.31935 2.633,0.96656 4.3867,-1.22461 1.3544,-1.69221 1.1671,-2.02117 -1.1269,-1.98047 z m 22.4453,0.93555 c -0.7332,0.013 -1.3235,0.62413 -1.3105,1.35742 0.013,0.73318 0.6242,1.32159 1.3574,1.30859 0.7333,-0.013 1.3235,-0.62423 1.3105,-1.35742 -0.013,-0.73328 -0.6241,-1.32159 -1.3574,-1.30859 z m 340.2227,2.10351 c -0.3919,-0.0477 -0.7603,0.0545 -1.0469,0.35157 -0.4007,0.41568 -0.3572,1.67502 0.098,2.79883 1.0424,2.57874 3.5869,2.63021 3.5411,0.0723 -0.028,-1.59237 -1.4162,-3.07953 -2.5918,-3.22266 z m -391.3086,0.13672 c 2.331,-0.0414 2.8021,1.56051 4.582,15.58789 1.0911,8.59858 2.3375,17.27778 2.7695,19.28711 0.6876,3.19859 0.372,3.66139 -2.5312,3.71289 -3.7047,0.0658 -3.9957,-1.14869 -6.291,-26.22656 -1.0645,-11.62991 -0.9826,-12.31783 1.4707,-12.36133 z m 28.2402,2.875 c -0.8434,0.11802 -1.7506,0.74503 -2.0781,1.78907 -0.3538,1.12796 0.2634,1.61732 1.6484,1.30468 1.2185,-0.27507 2.1751,-1.09954 2.1231,-1.83203 -0.07,-0.98846 -0.8501,-1.37973 -1.6934,-1.26172 z m -15.6738,3.57032 c 2.6662,-0.0473 4.0111,0.59463 4.0351,1.92773 0.024,1.33319 -1.2967,2.02291 -3.9629,2.07031 -2.6663,0.0474 -4.0111,-0.59454 -4.0351,-1.92773 -0.024,-1.33309 1.2966,-2.02291 3.9629,-2.07031 z m 105.1836,3.62109 c 0.182,0.0899 0.037,0.38499 -0.42,0.89453 -1.9788,2.20728 -8.6018,3.68168 -8.6328,1.92188 -0.014,-0.81267 1.1249,-1.49649 2.5313,-1.52149 1.4065,-0.025 3.6478,-0.45475 4.9824,-0.95312 0.8477,-0.31656 1.357,-0.43168 1.5391,-0.3418 z m 310.3711,0.68555 4.8164,7.07422 c 4.5986,6.754 4.7711,7.4062 3.8261,14.42578 -0.5442,4.04359 -1.6164,13.95899 -2.3828,22.03515 -1.1156,11.75503 -1.8301,14.77748 -3.5879,15.14844 -4.7869,1.01034 -5.8554,-4.83374 -5.1992,-28.45117 0.3407,-12.26065 1.0495,-24.07776 1.5742,-26.26172 z m -413.2754,1.86132 c 1.4256,0.0622 1.835,1.11132 2.4199,4.29493 0.4823,2.62533 0.9705,9.72263 1.0879,15.77148 0.2071,10.84631 0.1638,10.99834 -3.1231,11.05664 -3.14,0.0558 -3.3415,-0.35256 -3.4609,-7.07617 -0.07,-3.92509 -0.5671,-10.73357 -1.1055,-15.12891 -0.9514,-7.76522 -0.8835,-8.01063 2.3731,-8.69336 0.7451,-0.15617 1.3334,-0.24534 1.8086,-0.22461 z m 38.0234,10.45118 c -0.7333,0.013 -1.3188,0.92363 -1.2988,2.02343 0.02,1.09983 0.6359,1.98957 1.3691,1.97657 0.7332,-0.013 1.3169,-0.92362 1.2969,-2.02344 -0.019,-1.09984 -0.634,-1.98956 -1.3672,-1.97656 z m -20.0566,0.35742 c -2.6073,0.0463 -5.6322,3.24076 -4.293,4.5332 1.51,1.45732 5.3752,0.8777 6.9062,-1.03515 1.6949,-2.11762 0.6208,-3.55545 -2.6132,-3.49805 z m 7.5996,9.70312 c 0.4089,0.18777 0.6423,0.56924 0.6523,1.12305 0.019,1.05953 -3.5605,3.05724 -8.582,4.78906 -8.1205,2.8004 -8.6182,2.83414 -8.6582,0.58399 -0.031,-1.74142 1.6647,-2.83693 6.2636,-4.05078 3.4676,-0.9153 7.3489,-1.99663 8.625,-2.40235 0.707,-0.22468 1.2903,-0.2307 1.6993,-0.043 z m 376.1914,4.36914 c -0.597,-0.10335 -1.3214,0.38777 -1.9766,1.66602 -0.8179,1.59567 -1.1147,3.48121 -0.6582,4.19141 1.3188,2.0514 2.9758,1.47092 3.6426,-1.27735 0.627,-2.58428 -0.013,-4.40782 -1.0078,-4.58008 z m -410.3223,4.20899 c 1.6593,-0.1272 1.9191,0.70956 1.166,2.78125 -0.935,2.5726 -6.1561,2.8457 -6.2011,0.32422 -0.018,-1.01435 1.2843,-2.21426 2.8945,-2.66602 0.8781,-0.24638 1.5875,-0.39705 2.1406,-0.43945 z" fill="#00B894" transform="translate(-156.98513,-14.765272) matrix(0.80192303,0,0,0.80192303,-1274.246,-324.44025)"/>
</svg>