<?xml version="1.0" ?><svg height="115.68136mm" viewBox="0 0 103.42855 115.68136" width="103.42855mm" xmlns="http://www.w3.org/2000/svg">
    <path color="#000" d="m 555.00688,4881.0935 c 80.0162,-11.31 239.799,14.2334 240.0486,-33.9299 -6.9334,-32.0497 -35.3651,-19.2764 -54.3442,-26.2115 l -35.4086,-251.8755 c 10.5693,-10.5393 6.0508,-19.087 -0.099,-27.4195 l -4.4863,-47.9292 c 1.8373,-19.694 -9.3014,-30.9097 -23.8604,-39.8904 -13.4933,7.9938 -17.8477,23.7868 -18.2563,42.9472 l -1.1039,50.1305 c -11.5022,7.9658 -14.7311,16.3114 -4.0758,25.2946 l -33.4557,251.4934 c -45.5696,36.2881 -83.6294,28.6879 -64.9583,57.3903 z" fill="#FFFFFF" overflow="visible" paint-order="fill markers stroke" transform="translate(68.969861,35.939354) matrix(0.26458333,0,0,0.26458333,-212.31523,-1212.4448)"/>
    <path d="m 548.28508,4878.9153 c -10.9297,-12.6327 -8.2564,-21.8989 9.2722,-32.1397 4.9865,-2.9133 6.8581,-3.2387 14.8046,-2.5741 7.6155,0.6369 9.1838,0.4006 9.6325,-1.451 0.2948,-1.2164 1.0914,-2.1855 1.7702,-2.1534 0.6788,0.032 1.3748,-2.9204 1.5468,-6.561 0.2753,-5.8316 0.8118,-6.9533 4.5077,-9.425 2.3074,-1.5431 5.221,-2.8224 6.4747,-2.843 1.2537,-0.021 3.9966,-0.059 6.0953,-0.086 2.8541,-0.036 3.6404,-0.5788 3.1198,-2.1538 -0.4645,-1.4053 0.6607,-2.795 3.3831,-4.1784 2.2436,-1.1399 4.1599,-2.6695 4.2587,-3.3991 0.099,-0.7294 0.4369,-2.8158 0.7516,-4.6363 1.2681,-7.3361 3.2772,-22.2143 7.5227,-55.7071 2.4513,-19.3393 4.7109,-36.652 5.0211,-38.4727 2.6975,-15.8283 6.53,-41.1322 7.6278,-50.363 0.7381,-6.2054 1.6939,-13.0679 2.1242,-15.2501 0.4303,-2.1821 1.9564,-15.0244 3.3915,-28.5384 1.4349,-13.514 3.0653,-28.7541 3.6229,-33.8669 0.7096,-6.5058 0.848,-5.1614 1.1542,-10.7835 -4.0635,-5.8536 -6.8678,-5.3828 -7.0211,-15.675 -1.8367,-8.9579 5.9897,-11.9812 10.2011,-14.9041 3.0705,-2.1311 2.2412,-3.9235 3.5885,-17.1031 0.808,-7.9035 1.428,-19.9152 1.8868,-20.5847 1.5401,-2.2475 -4.1091,-1.4263 -7.0382,-1.9869 -7.2,-6.7382 -11.1631,-18.4066 0.43,-17.7506 l 6.5344,0.3086 0.6019,-5.9783 c 0.331,-3.288 1.6108,-8.0393 2.844,-10.5582 2.4852,-5.0768 8.5791,-11.5943 10.745,-11.492 0.7675,0.036 1.507,-2.2961 1.6433,-5.1829 0.2788,-5.9032 1.8667,-7.3201 7.4313,-6.6308 6.2524,0.7744 8.8833,3.0092 8.2739,7.0282 -0.4586,3.0242 0.018,3.6684 3.0848,4.169 7.5979,1.2404 17.7516,13.2775 17.3623,24.9949 l -0.1445,4.3314 c 4.8633,0.3908 10.0892,-0.8032 11.5332,3.4237 1.0031,3.0667 3.6754,2.6969 6.482,1.0139 48.5323,-9.5029 109.1412,-19.1766 154.4434,-32.4327 0.7249,-0.5818 2.6755,-0.9936 4.3347,-0.9153 1.6592,0.078 5.9304,-0.6959 9.4917,-1.7206 3.5612,-1.0247 7.212,-1.9362 8.1126,-2.0255 0.9006,-0.089 2.0741,-0.5595 2.6077,-1.0449 0.5337,-0.4856 2.6294,-0.8044 4.6571,-0.7086 2.0278,0.096 5.2519,-0.3379 7.1645,-0.9636 2.9673,-0.9705 18.4526,-4.9352 18.3519,-2.8028 -0.1773,3.7558 -29.9568,11.9536 -46.7532,15.7548 -55.0549,13.2735 -108.8673,23.8036 -160.5698,35.1263 -7.0102,1.5352 -13.521,1.1152 -18.6017,4.3654 2.1637,12.5317 0.9172,37.0075 3.1593,37.2682 1.198,0.057 12.1549,3.9117 13.7661,12.632 7.4494,2.0951 12.6555,3.6691 33.3401,8.2056 16.9351,3.7144 16.1806,3.5405 31.6908,7.3014 7.2585,1.7601 15.8771,3.6893 19.1525,4.2872 3.2755,0.5979 10.9965,2.455 17.1578,4.1267 6.1613,1.6718 15.0688,3.8433 19.7944,4.8255 4.7256,0.9822 17.4952,4.0484 28.3769,6.8135 10.8817,2.7653 26.1914,6.6338 34.0217,8.5966 21.1501,3.2005 37.3275,13.7254 16.5124,9.9362 -9.0622,-1.6971 -28.4139,-5.2394 -37.7354,-7.3569 -3.6169,-0.887 -8.3624,-1.9486 -10.5455,-2.3594 -2.183,-0.4106 -5.4522,-1.1412 -7.2648,-1.6235 -4.7919,-1.2748 -11.4621,-2.6504 -20.4902,-4.2254 -4.3689,-0.7622 -9.1247,-1.8109 -10.5684,-2.3304 -2.5443,-0.9154 -25.626,-5.7815 -35.0241,-7.3837 -2.549,-0.4345 -7.7816,-1.5784 -11.6283,-2.5419 -3.8464,-0.9635 -12.168,-2.8208 -18.4925,-4.1273 -6.3244,-1.3066 -16.1942,-4.5026 -18.3701,-5.0664 -20.3992,-5.2858 -29.5565,-7.3132 -29.6326,-5.7008 -0.1048,2.218 -0.6413,4.8384 -9.4106,4.748 0,0 -3.5062,0.5207 -1.1409,10.1245 0.9101,3.6947 2.34,11.5298 3.1777,17.4112 0.8377,5.8816 2.6112,15.9742 3.9412,22.4282 l 2.4182,11.7345 c 6.2427,1.9118 5.3719,6.7337 2.1036,11.1128 1.4072,7.2313 1.826,11.3796 3.6147,20.879 3.9308,20.8764 7.142,39.6691 7.9691,46.638 0.4702,3.9618 1.1038,8.3147 2.7531,7.7695 8.7482,10.0157 0.1985,10.8664 0.372,14.2798 0.2178,4.1715 2.1615,18.4004 3.3014,26.5298 1.1399,8.1295 2.9593,21.1298 4.0432,28.8896 1.0837,7.7597 2.3412,20.2285 2.7942,22.8194 0.9067,5.186 -0.4724,7.0094 15.9917,6.4924 9.3467,0.076 19.7256,1.7484 26.0648,8.8104 6.065,7.0884 9.0289,13.7778 8.3618,18.8724 -0.5698,4.3517 -1.0759,4.9029 -4.6525,5.0664 -3.2855,0.1503 -4.4002,-0.5875 -6.1482,-4.0693 -1.1743,-2.3389 -2.1209,-4.9541 -2.1034,-5.8114 0.017,-0.8575 -1.4598,-2.7578 -3.2826,-4.223 -2.9815,-2.3966 -4.9874,-2.6588 -19.9843,-2.6123 -9.1686,0.028 -17.1402,0.3125 -17.7149,0.6312 -0.5747,0.3187 -3.05,-0.1099 -5.5007,-0.954 -21.4003,-3.0383 -49.7052,-0.1703 -69.2759,0.8291 -3.9789,0.2023 -11.1791,-1.2625 -16.0006,-0.8104 -4.8216,0.4521 -15.2123,0.3327 -23.0907,-0.2654 -9.4115,-0.7144 -14.512,-0.6022 -14.8712,0.327 -0.3008,0.7779 -2.3672,1.4199 -4.592,1.4268 -7.4813,0.023 -11.6237,2.8046 -14.018,9.4133 -2.0699,5.7135 -2.4908,6.0771 -6.667,5.7612 -2.8668,-0.2175 -5.123,0.4881 -6.3224,1.9757 -1.2593,1.5617 -4.1327,2.3827 -8.8474,2.5277 -6.8855,0.212 -15.0879,3.6872 -19.1155,8.0989 -2.6167,2.8664 -1.3472,11.0294 2.0292,13.0468 3.8658,2.3098 2.4516,6.9598 -2.4378,8.0157 -3.4942,0.7544 -4.5291,0.2022 -8.7391,-4.6641 z m 107.8623,-59.6405 c 7.3458,-0.4805 13.8108,-1.1259 14.3668,-1.4342 0.5559,-0.3084 3.6785,-0.4883 6.939,-0.3998 l 5.9282,0.1607 c 1.4131,-7.6599 0.3007,-12.2762 0.5485,-17.2237 -1.2389,-3.2713 0.4619,-19.0352 2.9595,-23.2152 1.2158,-2.0346 4.1759,-6.447 9.2898,-5.6248 11.0074,1.7699 15.592,12.8736 17.821,37.3866 0.5683,6.2513 0.5715,8.2548 4.7448,7.2684 2.8064,-0.5478 10.4712,-0.7022 12.2467,-1.6059 0.7525,-1.098 -1.8205,-29.7966 -3.8161,-40.6326 -1.5481,-8.4064 -4.0208,-27.4768 -4.6684,-36.004 l -1.3729,-5.861 c -20.6406,0.9874 -39.9058,-0.1591 -59.6934,2.0639 -9.7023,2.1333 -20.6896,-2.9413 -21.3021,6.1136 -0.1238,2.0916 -0.6735,7.154 -1.7313,14.8126 -1.0576,7.6586 -2.52,19.0023 -3.2497,25.2081 -0.7297,6.2059 -2.1158,16.3518 -3.0803,22.5465 -0.9645,6.1947 -1.8088,12.328 -1.8764,13.6295 -0.1349,2.6028 -1.019,4.5751 25.9463,2.8113 z m 43.6027,-22.5889 c -0.6056,-6.1124 -2.8715,-7.3763 -3.1372,-1.7499 -2.1123,10.3221 -1.534,9.8544 -1.3128,18.6998 -0.096,2.0393 4.2679,1.0594 5.4832,1.1168 0.8418,-6.3062 -0.127,-11.0294 -1.0332,-18.0667 z m 19.9706,-76.7846 c -2.9391,-21.8042 -6.5841,-45.1779 -10.7126,-64.9364 -1.827,-8.6106 -2.2954,-9.4368 -5.3405,-9.4215 -6.1003,0.031 -29.9361,0.4932 -38.3238,0.7437 -10.9363,0.048 -12.1132,1.175 -12.805,7.847 -3.69,19.6333 -5.6322,37.5179 -8.1367,57.8468 -2.2011,7.9862 -2.0443,8.5798 2.3205,8.7859 3.0328,0.9196 55.5566,1.5129 72.9981,-0.8655 z m -21.6892,-11.5386 c 0.043,-0.9043 -0.6922,-2.629 -1.6331,-3.8324 -2.2054,-2.8208 -4.2311,-13.319 -3.9045,-20.2354 0.237,-5.0171 0.5171,-5.3882 3.9158,-5.1888 6.196,0.3637 9.885,9.0291 10.1298,23.7957 0.1104,6.6605 0.099,6.68 -4.2374,6.8923 -2.7842,0.1363 -4.3203,-0.3785 -4.2706,-1.4314 z m -6.7233,-76.6925 c 8.8897,-1.3371 14.5131,0.8036 11.4439,-7.7505 -0.9427,-2.5938 -1.9132,-7.5622 -2.1567,-11.041 -0.2434,-3.4788 -1.4343,-11.7916 -2.6463,-18.4727 -1.212,-6.6812 -2.3892,-13.3578 -2.6162,-14.8368 -0.8947,-5.8307 -2.2842,-6.7262 -8.1657,-5.2625 -3.0003,0.7467 -10.2425,1.5003 -16.0937,1.6745 l -10.6385,0.3168 -0.039,4.1469 c -0.022,2.2807 -0.9069,12.2148 -1.9676,22.0757 -2.2222,20.6593 -1.9887,17.9495 -2.0807,24.143 l -0.073,4.8829 15.0169,-0.01 c 8.2594,0 17.2667,0.055 20.0163,0.1284 z m -3.757,-12.4239 c 0.025,-0.7329 -0.7915,-3.1548 -1.8225,-5.3823 -2.7002,-5.8344 -1.0205,-10.3889 3.554,-9.6367 2.039,0.3352 4.1137,1.837 4.8456,3.5076 0.7039,1.6068 1.9811,3.8524 2.838,4.9902 2.6564,3.527 -0.979,8.8481 -5.6696,8.2986 -2.0887,-0.2447 -3.7741,-1.0445 -3.7455,-1.7774 z m -9.2626,-58.1345 c 1.8535,-0.3841 4.2886,-0.7566 5.4112,-0.8277 6.2175,-0.3939 15.5284,-1.5649 16.4381,-2.0672 2.6672,-1.4731 -0.717,-2.7586 -5.2589,-1.9977 -4.2089,0.7052 -18.4729,1.3462 -33.7666,1.5177 -1.8893,0.021 -3.5439,0.9573 -3.8369,2.1709 -0.4435,1.8372 0.7467,2.1176 8.564,2.0181 4.9935,-0.064 10.5957,-0.43 12.4491,-0.8141 z m -9.9848,-19.8975 c 0.8211,-0.8995 0.7631,-6.2092 1.3723,-11.299 0.954,-14.2496 4.8032,-13.5523 14.2597,-10.0543 3.7651,1.3436 9.327,8.6631 9.1665,12.0631 -0.2523,5.3419 -5.9231,8.5929 -9.3897,4.7827 -1.1844,-1.3019 -1.5603,-0.88 -1.6915,1.8983 1.1477,6.0727 9.5923,2.2004 13.5768,3.6936 1.0172,-12.8762 0.8099,-24.7366 -1.7416,-39.1529 l -4.6743,-1.1779 c -11.594,0.1251 -22.2878,0.9121 -23.8019,1.7518 -1.6855,11.2352 -1.8486,42.5405 2.9237,37.4946 z m 7.9097,-68.913 c -5.8999,1.2936 -7.8506,2.3875 -10.5822,7.0003 -2.1453,3.6227 -2.5036,7.2798 2.1721,6.5801 10.0118,0.9578 17.2198,1.7442 21.1115,1.2584 5.5276,-0.6901 4.3431,-1.5598 4.9555,-5.9005 0.921,-10.9045 -9.0284,-10.7508 -17.6569,-8.9383 z" fill="#00B894" transform="translate(68.969861,35.939354) matrix(0.26458333,0,0,0.26458333,-212.31523,-1212.4448)"/>
</svg>