<?xml version="1.0" ?><svg height="234.94722mm" viewBox="0 0 178.4507 234.94722" width="178.4507mm" xmlns="http://www.w3.org/2000/svg">
    <path d="m 2092.2097,487.7123 c 0,0 439.8497,5.9142 480.7729,5.2421 40.9231,-0.6721 81.9889,-27.8723 59.735,40.9476 -22.2538,68.82 -60.1831,168.2005 -68.547,349.3905 -8.3639,181.1899 83.9374,414.6669 90.2103,429.5868 6.2728,14.92 -22.702,17.7428 -89.0155,19.8934 -66.3134,2.1506 -372.0571,-17.7734 -406.8422,1.7473 -34.785,19.5208 -35.8451,-0.4032 -54.9625,-49.061 -19.1174,-48.6579 -73.1838,-247.3217 -64.3719,-459.9645 8.812,-212.6429 53.0209,-337.7822 53.0209,-337.7822 z" fill="#FFFFFF" transform="translate(-9.6417707,10.633346) matrix(0.26458333,0,0,0.26458333,-523.48879,-135.7617)"/>
    <path d="m 2123.7382,1354.0408 c -30.0105,-1.6007 -48.254,-59.3006 -68.3422,-135.7212 -29.9614,-113.9807 -40.5221,-185.576 -40.4135,-337.47822 0.079,-113.73186 3.2028,-154.94602 17.9292,-236.74072 8.727,-48.46987 26.7561,-154.91505 28.8778,-160.87434 6.4094,-18.00226 44.5849,-7.76053 168.4798,-3.78484 73.375,2.35448 145.9839,1.73662 233.6416,-1.98772 108.7588,-4.62113 129.0743,-4.55996 140.2424,0.42268 15.9891,7.1336 16.7756,16.38369 1.9468,22.90123 -41.0091,18.02414 -375.7257,23.77108 -504.2857,8.65864 -9.9893,-1.17429 -9.786,-1.98644 -26.6768,106.5635 -16.3902,105.33239 -21.7804,189.95695 -18.713,293.7806 4.1811,141.49749 12.7445,229.70019 52.141,346.13679 10.6489,31.4739 26.0859,58.753 26.9705,63.0647 1.5053,7.3344 6.1913,7.8021 72.7301,7.2612 74.4638,-0.6059 324.1845,-7.4641 386.1336,-11.4763 l 36.0885,-2.2078 -10.8698,-31.7416 c -26.4292,-77.1776 -72.2904,-174.8531 -74.2623,-311.03964 -1.9819,-136.87764 6.8833,-239.0348 49.6127,-373.85214 27.5082,-86.79195 35.164,-106.12747 42.0198,-106.12747 8.878,0 4.588,30.15397 -17.278,121.44921 -34.148,142.5756 -33.267,202.76379 -33.3962,294.39512 -0.1954,138.57242 17.2927,249.20032 83.0233,381.09822 11.057,25.7231 20.1032,49.5404 20.1032,52.9267 0,9.107 -7.4645,11.7851 -18.0916,6.4908 -6.7083,-3.3419 -12.7571,-3.4341 -21.2059,-0.3237 -10.2591,3.7772 -109.858,7.0046 -344.0858,14.565 -63.7688,2.2435 -127.9336,-3.3748 -182.3195,-6.3587 z m 131.5463,-131.3202 c -25.0982,-2.7165 -33.3188,-9.5893 -19.5068,-16.3086 22.9592,-11.1701 214.26,-10.1447 230.9831,1.2379 6.9733,4.7466 6.7121,5.6276 -3.2133,10.8519 -11.7399,6.1797 -162.0172,9.2237 -208.263,4.2188 z m -79.5137,-16.0566 c 1.31,-14.7299 2.1684,-15.5167 16.9374,-15.5167 13.1182,0 15.7984,1.5859 17.0915,10.1129 1.7799,11.7382 -9.1386,20.9203 -24.8769,20.9203 -9.4513,0 -10.3897,-1.5911 -9.152,-15.5165 z m -16.6666,-81.5179 c -9.0702,-12.8862 -4.7686,-26.2832 9.5103,-29.6192 21.4253,-5.0058 32.8988,18.6477 15.9649,32.913 -11.1332,9.3789 -17.0978,8.6078 -25.4752,-3.2938 z m 65.831,3.2092 c -9.3747,-3.4292 -6.1746,-13.7421 5.5521,-17.8926 19.2957,-6.8288 127.4793,-14.0412 146.8042,-9.7869 19.2923,4.247 25.5548,15.049 12.3797,21.3527 -8.5853,4.1078 -155.3891,9.7456 -164.736,6.3268 z m -13.7725,-91.8982 c -3.2966,-1.9445 -5.2738,-7.0368 -4.3937,-11.3157 1.3924,-6.7691 7.5614,-8.1766 47.4973,-10.8357 47.3321,-3.1521 62.9042,-0.2856 62.9042,11.5796 0,3.3901 -5.1312,7.9796 -11.4022,10.1987 -14.0047,4.9566 -86.3523,5.2418 -94.6056,0.3731 z m -67.173,-6.4832 c -8.5219,-9.5581 -3.7959,-20.8875 8.7129,-20.8875 7.0454,0 11.5438,2.6707 12.53,7.44 1.5394,7.4392 -6.1995,19.4553 -12.53,19.4553 -1.846,0 -5.7668,-2.7033 -8.7129,-6.0078 z m 96.5117,-76.81387 c -29.4061,-4.34054 -44.6482,-10.7787 -42.1403,-17.79907 2.0109,-5.62871 142.4071,-9.19571 188.8193,-4.79733 31.3611,2.97234 36.843,10.54312 13.3353,18.41655 -18.6431,6.24427 -126.876,9.07132 -160.0143,4.17985 z m -100.3319,-15.00318 c -6.5157,-10.83782 -1.0419,-22.78992 9.7787,-21.35248 13.5203,1.796 16.5695,28.14676 3.2571,28.14676 -4.9231,0 -10.7892,-3.05736 -13.0358,-6.79428 z m -7.3831,-99.22894 c -8.4855,-7.89881 -7.3926,-17.61402 2.643,-23.49638 10.6479,-6.24106 21.7186,-0.47167 21.7186,11.31846 0,14.03471 -14.5521,21.30913 -24.3616,12.17792 z m 62.4943,3.10611 c -6.1332,-9.23752 2.327,-11.77769 47.2984,-14.19976 25.1342,-1.35332 75.2509,-4.59881 111.3707,-7.21146 36.1196,-2.61301 68.6243,-3.69612 72.2322,-2.40731 9.1133,3.25537 8.2358,18.1466 -1.2185,20.68511 -4.2783,1.14891 -57.0104,3.37335 -117.1822,4.94339 -79.3433,2.07018 -110.2546,1.573 -112.5006,-1.80997 z M 2450.679,833.504 c -5.7274,-9.96232 -6.034,-36.19921 -0.4607,-39.40585 2.2778,-1.31022 7.2373,1.73253 11.0218,6.76171 6.8489,9.10235 6.9935,9.02734 31.7924,-16.48192 14.0229,-14.42457 28.6349,-25.62568 33.4293,-25.62568 4.6847,0 8.5173,1.50604 8.5173,3.34693 0,4.44057 -28.8965,48.98641 -42.7879,65.96039 -12.9937,15.87714 -33.935,18.62353 -41.5122,5.44442 z m -55.1589,-81.08834 c -11.4978,-7.82599 -17.499,-34.80743 -8.4604,-38.03612 3.7702,-1.34691 10.6969,-0.21417 15.393,2.51516 7.2234,4.19884 11.0699,3.10956 24.9705,-7.07179 20.4891,-15.00729 53.2459,-30.6781 59.8458,-28.63024 6.6229,2.05506 -28.4238,37.05509 -59.1297,59.05146 -21.5484,15.43613 -25.6012,16.94846 -32.6192,12.17153 z M 2207.155,741.71658 c -8.734,-8.34354 -6.5533,-15.91843 5.8455,-20.30655 6.2713,-2.21945 40.133,-4.0352 75.249,-4.0352 53.2932,0 65.0535,1.12338 71.149,6.79788 6.7072,6.24324 6.7203,7.33994 0.1602,13.4475 -9.5992,8.93693 -143.5679,12.53803 -152.4037,4.09637 z m -70.5253,-5.48007 c -4.3391,-10.52492 0.3339,-20.89428 9.9963,-22.18374 11.3677,-1.5172 16.768,9.00887 10.3495,20.1728 -5.395,9.3841 -16.8404,10.51491 -20.3458,2.01094 z m 10.1464,-96.09976 c -5.2261,-4.8644 -3.1695,-24.36598 3.4439,-32.65593 13.1445,-16.47795 31.4437,7.69158 20.3857,26.92528 -4.7269,8.22172 -17.781,11.36103 -23.8296,5.73065 z m 87.0494,-0.1 c -16.4161,-2.0503 -19.1785,-11.04468 -5.4872,-17.86539 5.1221,-2.55184 50.3372,-5.51303 105.5705,-6.91418 84.0481,-2.13173 98.8868,-1.55568 114.112,4.43031 16.5577,6.5101 17.0884,7.26518 9.851,14.00959 -6.756,6.29594 -19.4438,7.18784 -108.6247,7.6363 -55.5366,0.27931 -107.4761,-0.30418 -115.4216,-1.29663 z m 238.7595,-23.00332 c -10.804,-16.28277 -10.7345,-50.68739 0.1031,-50.68739 3.6336,0 7.3755,3.7241 8.3153,8.27572 6.1859,29.96187 7.5853,29.97328 37.6287,0.30714 20.0953,-19.84374 30.0062,-26.82692 35.3601,-24.91461 6.8919,2.46222 6.9109,3.61535 0.2566,15.70159 -10.3619,18.81716 -31.6109,47.03228 -42.5944,56.55757 -14.3054,12.40581 -28.6351,10.48426 -39.0679,-5.23899 z" fill="#00B894" transform="translate(-9.6417707,10.633346) matrix(0.26458333,0,0,0.26458333,-523.48879,-135.7617)"/>
</svg>