<?xml version="1.0" ?><svg height="70.552544mm" viewBox="0 0 62.628693 70.552544" width="62.628693mm" xmlns="http://www.w3.org/2000/svg">
    <path d="m -1155.0258,-232.03021 26.2936,-17.96413 30.6351,19.63865 -0.4734,31.27197 -27.1859,17.71079 -29.9875,-16.44756 z" fill="#FFFFFF" paint-order="markers stroke fill" transform="translate(-137.63288,-32.880889) translate(1295.9145,283.45598)"/>
    <path d="m 1536.4766,2730.1152 c -8.8131,0.09 -16.5247,4.2799 -28.9063,11.8848 -11.5098,7.069 -32.4553,21.0265 -46.5469,31.0156 -19.9933,14.1726 -26.19,19.9688 -28.2109,26.3965 -2.6426,8.4076 -5.336,60.9214 -5.1621,100.832 0.147,35.2399 -0.4817,34.5159 56.2539,64.7832 26.75,14.27 51.3359,27.1548 54.6328,28.6309 h 0.035 c 12.8073,5.7335 18.1896,4.3666 44.164,-11.209 36.6554,-21.9802 71.351,-46.9597 77.2168,-55.5937 4.69,-6.9573 4.9221,-9.2349 3.9043,-38.543 -0.5953,-17.1317 -1.4184,-42.9387 -1.8281,-57.3457 -0.4997,-17.4888 -2.0936,-28.4517 -4.8027,-32.9844 -5.4762,-9.1662 -25.4821,-22.6238 -69.0332,-46.4355 -27.2343,-14.8902 -40.3858,-21.5511 -51.7168,-21.4356 z m 3.1328,13.5039 c 2.1951,0.079 4.5774,1.307 8.3144,4.0254 20.5085,11.7087 72.7608,43.848 82.3672,50.5762 17.6636,12.3711 18.839,7.8354 15.8067,29.625 -0.9139,9.5656 -1.5608,26.4364 -1.4512,37.4883 0.136,11.052 0.1553,28.0393 0.068,37.748 -0.153,18.1556 1.4682,17.9935 -14.6972,28.2481 -8.0017,5.8283 -28.7009,19.7803 -46.0645,30.9004 l -23.7578,15.2148 c -7.5968,4.8654 -9.439,4.3729 -13.9121,1.1817 -8.098,-5.7762 -71.4728,-39.2659 -88.9648,-45.9668 -13.1641,-5.0422 -9.3147,-5.5958 -9.2051,-20.4903 0.074,-9.3028 0.4643,-30.9927 0.8691,-48.2011 0.4093,-17.2094 0.2296,-37.9971 -0.3926,-46.1954 -0.8983,-11.8114 -0.3887,-15.455 2.4512,-17.5468 8.3702,-6.1632 61.8317,-41.317 78.5508,-51.9356 4.6827,-2.9737 7.1952,-4.7731 10.0176,-4.6719 z m 8.2187,57.0938 c -15.0812,0.1142 -26.9223,4.3222 -38.8984,13.5 -20.962,16.0649 -32.1567,64.3078 -20.2051,87.0723 2.4983,4.7577 9.2593,11.6776 15.0234,15.3769 19.6309,12.5988 51.372,10.66 70.7735,-4.3242 6.0007,-4.635 11.14,-10.6106 11.4121,-13.2793 1.1437,-11.0914 -11.7253,-15.916 -20.7617,-7.7832 -14.2247,12.8005 -43.6605,15.1749 -54.4824,4.3945 -4.6424,-4.6249 -5.1856,-7.8937 -4.1368,-24.8906 1.0235,-16.5713 2.2636,-21.1649 8.086,-30.002 11.9637,-18.1604 29.5397,-23.7099 53.1386,-16.7793 21.3139,6.2594 21.4926,6.2453 22.3086,-1.6601 1.2526,-12.1478 -8.4884,-18.7116 -31.2578,-21.0606 -3.8669,-0.3989 -7.5197,-0.5908 -11,-0.5644 z m 67.4043,37.0312 c -2.4209,0 -4.8878,1.4673 -4.9804,4.5176 -0.11,3.6268 0.4357,6.4841 -5.0332,6.2891 -5.6591,-0.2028 -5.935,-2.3275 -5.7422,-5.6817 0.094,-1.5898 -2.427,-3.2886 -4.8047,-3.5078 -2.38,-0.2193 -4.4911,1.3907 -4.6914,3.5762 -0.2015,2.1854 0.3891,9.1047 -7.2735,7.9004 -6.0945,-0.9588 -8.2099,7.3104 0.4063,8.0293 3.9949,0.3333 6.1143,-0.2373 5.7363,4.7402 -0.2997,3.9553 -2.2455,4.1301 -6.2226,3.9082 -4.0986,-0.2288 -5.1066,4.2865 -0.3614,6.7324 3.2232,1.6613 8.019,1.0726 8.3516,3.754 l 0.2793,2.4121 c 0.7559,6.1543 10.4731,5.0537 9.998,-0.9981 -0.1897,-2.3983 -0.3217,-3.9159 4.3789,-3.9121 4.3979,0.011 4.6621,0.8432 4.6621,3.1602 0,8.6022 11.8837,5.1956 11.1758,-2.0801 -0.5136,-5.3161 4.8388,-3.4963 7.7325,-3.4942 7.7264,0 8.0423,-8.1966 0.2187,-8.3632 -3.134,-0.067 -7.9727,1.4586 -7.4395,-2.9043 0.4884,-3.9879 4.3113,-2.5525 7.793,-3.3145 7.2461,-1.5853 7.0211,-9.9348 -0.8769,-9.8203 -7.1698,0.1032 -8.8624,1.4679 -8.6016,-6.6094 0.09,-2.8495 -2.2842,-4.3293 -4.7051,-4.334 z m -5.6133,23.4864 c -0.1051,5.9974 -3.4155,5.0451 -5.8027,5.1445 -4.8419,0.2002 -4.1592,-2.205 -3.9551,-4.4141 0.203,-2.2091 -0.6954,-5.3657 4.8477,-5.2773 4.5627,0.073 4.9697,1.1463 4.9101,4.5469 z" fill="#00B894" transform="translate(-137.63288,-32.880889) translate(1295.9145,283.45598) matrix(0.26458333,0,0,0.26458333,-1536.012,-972.91664)"/>
</svg>