<?xml version="1.0" ?><svg height="65.593803mm" viewBox="0 0 68.55262 65.593803" width="68.55262mm" xmlns="http://www.w3.org/2000/svg">
    <path d="m 440.54924,-1333.9388 a 38.12978,37.186234 0 0 1 -38.12978,37.1862 38.12978,37.186234 0 0 1 -38.12978,-37.1862 38.12978,37.186234 0 0 1 38.12978,-37.1863 38.12978,37.186234 0 0 1 38.12978,37.1863 z" fill="#FFFFFF" paint-order="markers stroke fill" transform="translate(-53.428409,-46.137374) matrix(0.83316919,0,0,0.83316919,-247.8048,1190.538)"/>
    <path d="m 1020.5801,494.51367 c -54.32394,0.24511 -110.48072,44.56555 -125.36526,97.53321 -13.23632,47.10158 6.17952,91.8699 45.47071,124.69335 19.55958,16.33883 47.90286,25.54189 74.30665,25.6836 76.5332,0.42606 134.5896,-55.7626 135.1777,-129.52539 0.5074,-63.61991 -47.8585,-94.15005 -96.3887,-112.52344 -10.7315,-4.06287 -21.9263,-5.9122 -33.2011,-5.86133 z m -3.25,16.98242 c 14.3761,-0.19235 28.9805,2.88634 43.1133,9.58203 45.3684,21.49404 93.2036,67.54031 67.5918,126.90626 -6.5117,15.09371 -10.6128,21.93139 -24.0957,35.82031 -17.74,18.27419 -32.9657,27.33655 -56.2813,33.50195 -20.9642,5.54411 -50.87037,4.81111 -68.33008,-2.0625 -33.60383,-13.22983 -70.15105,-53.44782 -69.91992,-95.5293 0.10483,-19.1008 0.47453,-22.31074 8.74414,-38.97265 21.43442,-43.18477 59.43206,-68.71429 99.17776,-69.2461 z m 11.4785,20.75586 c -2.4959,0.0105 -4.9879,0.88412 -7.1895,2.71094 -3.5637,2.95786 -3.7947,8.70407 -1.9609,49.01953 2.8796,63.29197 2.5516,73.66466 -2.5742,81.48828 -3.9133,5.9743 -5.5429,6.5073 -16.6211,5.44336 -16.5328,-1.58891 -25.25392,-7.5378 -25.25392,-17.22851 0,-8.81689 6.91365,-16.604 19.35547,-21.80274 10.02485,-4.18847 13.04545,-9.49038 8.51755,-14.94726 -7.83833,-9.44466 -29.16088,-1.67615 -42.16208,15.4707 -9.71074,12.80723 -11.37746,32.02428 1.93555,45.67578 14.17965,14.53988 34.34836,20.67992 53.42973,16.14649 11.012,-2.61631 22.2938,-14.13227 26.5605,-25.89454 3.6083,-9.94809 4.0611,-42.24558 0.9316,-66.54492 -1.2514,-9.74324 -1.9552,-18.03851 -1.5527,-18.4414 0.4003,-0.40026 6.884,2.13895 14.4102,5.64257 16.5188,7.68983 25.9567,8.09526 32.6464,1.40625 7.7927,-7.79263 3.5081,-15.43011 -10.6757,-19.03125 -19.016,-4.82834 -28.7864,-12.74268 -37.4668,-30.34961 -2.7882,-5.65511 -7.5652,-8.78363 -12.3301,-8.76367 z" fill="#00B894" transform="translate(-53.428409,-46.137374) matrix(0.83316919,0,0,0.83316919,-247.8048,1190.538) matrix(0.31756255,0,0,0.31756255,78.578278,-1530.59)"/>
</svg>