<?xml version="1.0" ?><svg height="79.360558mm" viewBox="0 0 74.934547 79.360558" width="74.934547mm" xmlns="http://www.w3.org/2000/svg">
    <path d="m -1820.787,30.734431 c 1.3759,-1.78316 4.6507,-10.55045 4.6507,-10.55045 0,0 -12.4111,-13.0023101 -7.4852,-26.4008901 4.9259,-13.3985499 17.6673,-20.4321799 31.1792,-20.0854699 13.512,0.34673 24.7673,11.31821 26.0607,23.2803399 1.2934,11.96213 -3.3023,29.5462001 -13.5119,32.1219001 -10.2096,2.57569 -22.8409,-0.29718 -25.5653,-1.80793 -2.7244,-1.51074 -9.0814,1.48596 -11.0903,2.67475 -2.0089,1.18878 -4.2379,0.76775 -4.2379,0.76775 z" fill="#FFFFFF" paint-order="markers stroke fill" transform="translate(243.85703,-249.76888) translate(1589.1914,285.84322)"/>
    <path d="m -1831.7497,42.426405 c -0.8878,-1.0698 -0.5319,-3.24598 0.8367,-5.11714 1.0253,-1.4018 2.3886,-0.89641 2.3886,0.88555 0,1.14145 0.1466,1.14867 3.2366,0.16015 2.5479,-0.81475 3.4047,-0.86707 4.0259,-0.246 1.254,1.25407 -0.1722,2.79653 -3.7517,4.05637 -4.0134,1.41276 -5.7251,1.47907 -6.7361,0.26099 z m 37.1823,-1.20782 c -0.7337,-0.53649 -1.0401,-1.28847 -0.7903,-1.93935 0.5732,-1.49362 9.9914,-1.56965 10.5611,-0.0852 0.2063,0.53782 0.018,1.41052 -0.4228,1.93933 -1.032,1.24361 -7.681,1.30426 -9.348,0.0852 z m -8.4225,-1.32337 c -4.9868,-2.20128 -5.3611,-5.85072 -0.4491,-4.37901 3.3134,0.99274 5.1387,2.94948 4.0147,4.30386 -0.9712,1.17025 -1.0795,1.17252 -3.5656,0.0751 z m -13.8644,-1.65807 c -1.5235,-0.94155 -0.3647,-2.92641 2.5517,-4.37064 1.6001,-0.79233 3.4908,-1.37413 4.2019,-1.29286 1.8385,0.20998 2.0669,2.76996 0.3299,3.69952 -2.7355,1.46401 -6.2954,2.45104 -7.0835,1.96398 z m 35.5204,-0.93306 c 0,-1.14 5.5054,-3.87146 6.801,-3.37426 1.3999,0.53725 1.1674,2.12579 -0.4803,3.27994 -1.8488,1.29495 -6.3207,1.36167 -6.3207,0.0944 z m -17.2902,-3.55652 c -1.5097,-0.70635 -4.0125,-2.15629 -5.5618,-3.22217 -3.9371,-2.98591 -3.3747,-1.65968 -7.9403,0.61664 -5.7699,2.87671 -9.6609,3.51028 -10.7983,1.7583 -0.5761,-0.88769 -0.3043,-1.93797 1.3381,-5.17157 1.1337,-2.23174 2.5326,-4.78552 3.1089,-5.67508 1.0178,-1.57136 0.9771,-1.69202 -1.4291,-4.24125 -3.7831,-4.008189 -6.8182,-11.6893494 -7.1843,-18.18275845 -0.2761,-4.89551015 -0.1466,-5.61772015 1.7086,-9.58373015 6.6318,-14.1719144 26.7027,-22.7538744 41.0421,-17.5489044 11.4726,4.1643 17.6609,12.99605 19.2746,27.50806455 1.8443,16.58712845 -2.7075,26.56087845 -14.8501,32.53866845 -3.6111,1.77775 -5.0153,2.09493 -10.0794,2.27674 -4.8213,0.17317 -6.3795,-0.0209 -8.629,-1.07295 z m 13.8207,-4.89433 c 11.9004,-3.90026 14.8088,-14.029089 14.7823,-23.6058494 -0.028,-10.0272892 -0.8066,-13.8940792 -3.9106,-18.7469036 -3.9498,-6.17519 -11.1662,-10.43817 -18.3917,-10.86493 -14.4726,-0.85478 -30.383,11.17448 -30.383,22.9714745 0,4.992239 4.3359,16.7154195 7.4958,20.2665985 1.2862,1.44551 1.1381,2.77025 -0.7191,6.43505 -0.8947,1.7659 -1.4511,3.21073 -1.2361,3.21073 0.2147,0 2.2112,-1.01814 4.4365,-2.26255 4.738,-2.64972 5.3467,-2.71301 8.4549,-0.8791 7.2409,4.27216 13.2586,5.51153 19.471,3.47548 z m 13.4083,3.88957 c -0.3873,-1.00928 3.6794,-6.43921 5.2837,-7.05482 1.0916,-0.41888 2.878,0.14495 2.878,0.90838 0,1.43609 -1.0738,2.83664 -3.7301,4.86488 -3.2447,2.4775 -3.9,2.66697 -4.4316,1.28156 z m -57.7109,-0.58994 c -1.3192,-1.58935 2.0371,-8.15857 4.1681,-8.15857 1.6257,0 1.5502,2.15655 -0.1873,5.35773 -1.9602,3.61118 -2.8114,4.21006 -3.9808,2.80084 z m 2.3975,-11.85169 c -1.5255,-1.73872 -2.9689,-4.928979 -2.6431,-5.841939 0.1595,-0.44444 0.842,-0.80807 1.5184,-0.80807 1.4867,0 4.6887,4.582389 4.3674,6.250349 -0.3071,1.59441 -2.0102,1.80432 -3.2427,0.39966 z m 64.4165,0.41499 c -0.6348,-1.02703 0.308,-6.517209 1.4148,-8.239519 0.8099,-1.26018 1.1218,-1.36565 1.966,-0.66491 0.7909,0.65633 0.9197,1.63636 0.6075,4.623369 -0.2179,2.08479 -0.5607,4.05666 -0.7618,4.38195 -0.503,0.81396 -2.7037,0.74513 -3.2265,-0.10096 z m -70.0477,-12.9794595 c -0.9793,-2.80909 -0.8884,-5.51465 0.1992,-5.93201 1.576,-0.60485 2.9696,1.71704 2.9696,4.9481001 0,2.5369899 -0.1964,3.0197099 -1.2296,3.0197099 -0.798,0 -1.4787,-0.7146 -1.9392,-2.0358 z m 71.0548,-3.11877 c -1.1107,-2.07528 -0.5816,-7.392179 0.761,-7.646999 1.3082,-0.2483 2.6981,3.68122905 2.358,6.666499 -0.2661,2.3344401 -2.0879,2.9071701 -3.119,0.9805 z m -71.3335,-6.912409 c -0.7627,-0.76259 -0.4596,-5.3604101 0.5055,-7.6703701 0.6373,-1.5249604 1.3608,-2.2417904 2.2627,-2.2417904 1.8546,0 1.9003,1.20869 0.2628,6.9492804 -0.8838,3.0984201 -1.9012,4.0928701 -3.031,2.9628801 z m 68.4664,-6.8415401 c -1.3098,-2.0087804 -2.3926,-7.1287244 -1.6622,-7.8592444 0.3513,-0.35133 0.9386,-0.29473 1.4636,0.1411 1.4027,1.16417 3.9157,7.0394244 3.4879,8.1544644 -0.5631,1.46753 -2.1885,1.25195 -3.2893,-0.4363 z m -62.4331,-8.4578444 c 0,-2.05521 4.6465,-7.05617 6.0542,-6.516 1.6985,0.65181 1.2345,2.33596 -1.4544,5.27743 -2.8218,3.08703 -4.5998,3.56577 -4.5998,1.23857 z m 55.8422,-2.91476 c -1.104,-0.77626 -4.773,-5.77089 -4.773,-6.49768 0,-1.39154 1.9686,-0.68533 4.5232,1.62276 1.4233,1.28577 2.5878,2.8546 2.5878,3.48628 0,1.252 -1.3727,2.06729 -2.338,1.38864 z m -46.1455,-6.52225 c 0,-1.30213 2.5379,-3.4449 5.3434,-4.51158 1.8704,-0.71108 4.2254,0.51973 3.4366,1.79601 -0.5985,0.96861 -6.4845,3.96445 -7.7888,3.96445 -0.5485,0 -0.9912,-0.5577 -0.9912,-1.24888 z m 31.3524,-3.51111 c -6.1246,-2.71528 -3.3703,-5.75774 2.9302,-3.23679 2.0645,0.82607 2.5906,1.34932 2.4372,2.42418 -0.2404,1.68447 -2.5962,2.04116 -5.3674,0.81261 z m -19.0699,-2.63181 c 0,-2.27171 8.0254,-3.99546 9.6255,-2.06743 1.2174,1.46685 -0.9252,2.5914 -5.4913,2.88214 -3.5337,0.22502 -4.1342,0.10665 -4.1342,-0.81471 z" fill="#00B894" transform="translate(243.85703,-249.76888) translate(1589.1914,285.84322)"/>
</svg>