<?xml version="1.0" ?><svg height="33.587952mm" viewBox="0 0 57.529274 33.587952" width="57.529274mm" xmlns="http://www.w3.org/2000/svg">
    <path color="#000" d="m 10663.485,-1286.9563 202.269,7.836 c 0,0 1.435,104.1493 -98.312,104.1923 -99.747,0.043 -99.317,-91.4482 -103.957,-112.0283 z" fill="#FFFFFF" overflow="visible" paint-order="fill markers stroke" transform="translate(-67.745324,-83.709459) matrix(0.26458333,0,0,0.26458333,-2751.5346,425.75757)"/>
    <path d="m 10729.871,-1168.7843 c -16.346,-4.2568 -24.623,-9.068 -37.962,-22.0603 -24.024,-30.3179 -33.671,-55.8039 -36.296,-91.8226 -0.662,-9.042 3.597,-11.9664 13.092,-8.9913 4.209,1.318 40.109,3.0698 79.779,3.8931 39.67,0.822 80.454,1.67 90.631,1.8842 38.446,0.4519 34.449,1.6973 33.006,14.8701 -3.556,39.0561 -18.5,64.6757 -41.102,82.9338 -28.967,19.1501 -67.394,27.0442 -101.147,19.293 z m 66.136,-22.8849 c 8.222,-2.9751 15.324,-6.563 15.783,-7.972 1.205,-3.6983 -18.192,-10.4873 -34.074,-11.9287 -15.663,-1.4194 -41.793,5.3228 -52.126,13.4507 -8.171,6.4266 -7.835,7.8745 2.536,10.9509 14.107,4.1853 50.555,1.7673 67.881,-4.5009 z m -79.908,-18.336 c 17.723,-12.1936 25.041,-14.1752 52.356,-14.1752 28.407,0.8648 39.18,6.0306 58.333,17.7944 12.328,-9.9238 18.517,-20.1085 23.129,-28.2662 -19.824,2.2154 -19.392,-6.3501 -20.839,-5.0748 -2.829,2.4919 -11.898,4.5787 -18.937,5.3085 -13.482,1.3986 -22.522,-0.996 -32.505,-8.6121 -5.748,-4.3853 -5.749,-4.3853 -11.634,2.8257 -11.842,14.509 -31.27,16.0322 -44.372,3.4789 l -6.265,-6.0021 c -8.889,11.8794 -20.718,11.8561 -30.708,11.9119 l 4.968,8.7252 c 4.802,8.4355 13.334,19.1956 15.22,19.1956 0.506,0 5.57,-3.1997 11.254,-7.1098 z m 34.419,-34.659 c 8.258,-3.14 11.348,-16.2102 9.597,-27.8832 -1.044,-0.6999 -34.424,-0.9778 -35.415,0.2702 -1.959,8.1888 0.348,15.8816 6.452,23.6328 5.178,6.5838 9.943,7.5629 19.366,3.9802 z m -45.832,-7.4045 c 6.954,-5.8579 7.341,-10.4095 6.04,-22.6005 -8.966,0.7999 -29.54,0.065 -37.517,-1.7947 -0.958,11.2327 3.604,32.7152 17.839,29.3609 5.85,-0.4363 8.281,-2.2257 13.638,-4.9657 z m 112.436,-9.8861 c 0,-10.8808 -0.661,-12.6975 -5.03,-13.8403 -5.691,0.8713 -40.487,-3.8918 -38.341,1.9245 1.528,18.1022 17.076,26.7585 28.073,25.7002 13.119,-1.0389 15.278,-4.5983 15.298,-13.7844 z m 38.019,-4.088 c 0.359,-7.5681 0.09,-8.5355 -9.262,-8.5199 l -11.961,0.026 c -0.719,11.0639 -1.678,23.951 9.579,21.8162 8.696,-1.3038 11.228,-5.7359 11.644,-13.317 z" fill="#00B894" transform="translate(-67.745324,-83.709459) matrix(0.26458333,0,0,0.26458333,-2751.5346,425.75757)"/>
</svg>