<?xml version="1.0" ?><svg height="67.126976mm" viewBox="0 0 67.313576 67.126976" width="67.313576mm" xmlns="http://www.w3.org/2000/svg">
    <path color="#000" d="m 16079.438,1676.3672 c -58.057,0.1165 -105.059,45.8174 -105.059,102.1523 0,56.4175 47.133,102.1534 105.275,102.1543 43.032,3e-4 81.732,-25.4117 97.731,-64.1738 l -53.559,1.1582 c 0,0 -31.276,15.4468 -56.857,13.1816 -25.582,-2.2651 -34.371,-35.5 -34.371,-35.5 0,0 106.13,-4.7457 151.783,-6.3847 0.367,-3.4671 0.551,-6.9502 0.551,-10.4356 0,-56.4178 -47.135,-102.153 -105.278,-102.1523 z m 2.22,47.7887 c 36.93,-0.2875 48.44,37.5043 48.44,37.5043 l -95.52,2.0058 c 0,0 17.907,-39.283 47.08,-39.5101 z" fill="#FFFFFF" overflow="visible" paint-order="fill markers stroke" transform="translate(134.1602,-11.69634) matrix(0.26458333,0,0,0.26458333,-3473.6966,222.29349) translate(-3313.5291,-2437.8203)"/>
    <path d="m 12641.674,-543.5708 c -13.941,-3.79078 -21.854,-17.47367 -19.342,-32.98889 2.028,-12.52762 5.423,-23.80903 19.336,-44.50712 22.414,-33.34969 42.248,-56.93667 45.097,-59.81261 7.251,-7.32069 11.935,-2.05142 5.036,8.58662 -47.449,74.06895 -58.86,94.14307 -51.307,106.06161 8.257,13.03 21.804,5.02462 30.166,-0.22586 8.134,-5.1603 21.643,-14.36772 21.643,-15.78229 0,-0.59928 -3.397,-4.7269 -7.548,-9.17256 -9.93,-10.63272 -15.201,-21.07256 -15.954,-31.59599 0.679,-8.39135 7.188,-1.74051 9.427,1.80701 6.255,9.97376 12.719,16.99512 26.338,28.61538 15.21,12.97828 32.066,19.77915 57.267,23.1066 24.03,3.17274 42.993,0.61857 59.497,-8.01336 10.592,-5.54101 25.565,-20.60827 31.222,-31.42183 2.692,-6.75196 7.98,-8.51697 -1.092,-7.27214 -14.501,1.2373 -23.409,1.48204 -38.3,2.05706 l -7.601,6.16267 c -29.826,24.24228 -89.173,13.76828 -94.41,-35.66325 -1.285,-8.36093 4.217,-8.65229 9.54,-9.45067 48.194,-8.10926 100.881,0.31459 140.378,-5.75621 0.753,-1.30499 -2.215,-13.83396 -4.192,-21.45134 -3.685,-14.19779 -13.553,-31.26083 -26.395,-45.64362 -9.112,-10.20521 -23.761,-19.56799 -36.67,-23.43607 -5.065,-1.51763 -5.94,-2.16326 -5.94,-4.38331 0,-3.18851 3.768,-5.32853 9.419,-5.351 12.056,0.12018 23.143,6.52776 32.561,9.69981 2.274,-3.02602 2.122,-2.86229 3.898,-6.42583 4.998,-10.03301 6.694,-16.61762 6.308,-20.66383 -0.297,-3.10478 -0.815,-3.73671 -3.305,-4.02345 -8.789,-1.01221 -35.716,10.74127 -57.519,25.10684 -6.533,4.30446 -23.054,16.64173 -36.715,27.41596 -13.66,10.77404 -25.703,19.59814 -26.76,19.60864 -2.948,0.0301 -3.494,-3.09701 -1.264,-7.23617 2.58,-4.79374 27.489,-28.86008 41.804,-40.394 14.815,-11.93472 27.645,-20.169 44.532,-28.57879 27.819,-13.85363 44.461,-15.01549 51.997,-3.62985 5.986,9.04716 3.735,22.60705 -6.986,42.06323 -2.781,5.0483 -1.967,8.62343 -2.138,8.98942 -0.172,0.36599 2.057,3.52465 4.952,7.01915 7.369,8.89343 14.976,23.17269 18.69,31.10944 3.201,11.07883 14.848,41.29457 5.175,51.43765 -4.883,6.10904 -21.449,4.12812 -29.575,4.65056 -14.848,0.95459 -47.1,1.91155 -71.669,2.12655 -24.571,0.215 -44.899,0.61664 -45.176,0.89252 9.153,32.39358 56.62,29.53357 71.828,18.01667 3.085,-2.43865 6.702,-4.84597 8.036,-5.34947 1.334,-0.50365 14.088,-1.00625 28.342,-1.11717 33.23,-0.25821 33.094,-0.31032 36.13,-0.10454 8.005,0.54268 3.77,22.36336 -5.068,35.30005 -13.358,18.12456 -37.278,36.94246 -55.804,41.55801 -45.171,10.77278 -81.125,-2.86606 -107.003,-17.70056 l -7.784,6.1012 c -15.857,12.18579 -32.652,25.21995 -53.102,19.65913 z m 16.721,-122.8538 c -2.672,-6.50435 -3.878,-13.17487 -2.209,-21.17577 6.2,-29.73095 35.318,-62.63126 68.583,-76.33428 10.092,-4.15754 19.126,-4.6986 22.703,-1.8018 2.418,1.95723 2.437,2.10901 0.632,4.86181 -1.095,1.67379 -5.955,4.89302 -11.823,7.83367 -15.243,7.63833 -23.742,13.57506 -34.932,24.39956 -16.891,16.34011 -28.054,33.45178 -34.812,53.36141 -1.47,3.76142 -4.738,16.88345 -8.142,8.8554 z m 73.139,-0.83951 c -21.092,0.91837 -15.525,-12.07258 -8.196,-27.51795 19.434,-30.18836 54.004,-34.28404 77.788,-18.54477 12.363,8.2686 21.587,23.89657 22.638,35.19852 0.792,8.48939 -0.05,8.92043 -20.397,10.43316 -17.999,1.33811 -48.205,1.5194 -71.833,0.43104 z m 60.769,-14.81933 c 7.673,-0.59883 14.219,-1.35653 14.546,-1.68393 1.161,-1.16097 -1.272,-5.63955 -6.302,-10.67084 -24.285,-23.28752 -56.042,-8.98677 -66.142,12.99235 -0.462,0.92073 43.172,0.51221 57.898,-0.63758 z" fill="#00B894" transform="translate(134.1602,-11.69634) matrix(0.26458333,0,0,0.26458333,-3473.6966,222.29349)"/>
</svg>