<?xml version="1.0" ?><svg height="52.134521mm" viewBox="0 0 74.899757 52.134521" width="74.899757mm" xmlns="http://www.w3.org/2000/svg">
    <path d="m -971.23183,-459.3081 -2.6479,0.41032 0.38913,2.81067 3.69072,-1.54046 z m -14.01776,4.35012 -3.67006,3.20292 2.26759,1.90066 4.05762,-3.09129 z m 25.7447,0.31935 c -2.39609,0.0151 -4.95207,0.34026 -7.59386,1.13277 -13.0058,3.90154 -24.25488,15.38605 -26.64489,19.87785 -2.3899,4.4918 -4.13514,19.528 -4.13514,19.528 l 22.28752,1.70068 c 0,0 -1.01166,-15.36647 3.29025,-21.38889 4.30189,-6.02239 6.96963,-12.04438 15.17322,-14.40531 8.20362,-2.36096 13.96195,-1.7911 13.96195,-1.7911 0,0 -6.93901,-4.71334 -16.33905,-4.654 z m -39.97483,12.20703 -3.02358,4.63227 c 0.5336,0.30012 3.77962,1.67069 3.77962,1.67069 l 3.13468,-5.52265 z m 34.4651,4.94078 -2.2066,1.82211 2.86805,2.93108 2.64531,-2.72077 z m -4.89998,7.73078 -1.30845,3.95534 2.94609,1.40041 1.88928,-3.91139 z m -35.2061,3.53417 -2.8293,5.39295 2.8789,0.83042 2.9791,-5.17176 z m 33.13335,8.34522 0.10853,3.71036 3.32383,0.95033 0.34468,-4.22145 z" fill="#FFFFFF" paint-order="markers stroke fill" transform="translate(-91.842206,-99.920217) translate(1101.4564,561.65593)"/>
    <path d="m -955.29047,-461.73236 c -2.79963,0.1124 -3.8998,3.21051 -1.36165,4.49017 1.22687,0.61854 2.77781,0.20357 3.65712,0.007 1.58644,-0.35438 2.92143,-3.33571 -0.41444,-4.19767 -0.19434,-0.0502 -0.38857,-0.10067 -0.5829,-0.15089 -0.46369,-0.1198 -0.89816,-0.16489 -1.29813,-0.14883 z m -15.94114,0.83664 c -1.91974,0.0689 -3.88102,0.81293 -4.06022,2.16575 -0.11319,0.85315 0.33255,2.07925 0.99065,2.72438 2.046,2.00576 6.90872,-0.11951 6.8807,-3.00704 -0.0135,-1.34604 -1.8914,-1.95204 -3.81113,-1.88309 z m -0.61648,2.49441 c 0.25328,0.008 0.47146,0.0729 0.59375,0.19275 0.24371,0.23963 -0.18489,0.41521 -0.95293,0.39172 -0.84918,-0.0265 -1.02351,-0.19728 -0.44439,-0.43564 0.26199,-0.10766 0.55025,-0.15677 0.80357,-0.14883 z m 15.90032,2.11873 c -8.08715,-0.17261 -16.52408,2.13567 -22.55004,5.3103 -6.59271,3.57748 -14.49105,11.52604 -17.16434,17.27334 -2.3835,5.12377 -5.86305,20.67584 -4.84935,21.67258 0.347,0.341 4.83511,0.88797 9.97462,1.21595 3.74517,0.24291 8.51453,0.89775 13.12322,1.20922 3.4875,-0.0345 5.0527,-1.5911 3.71192,-3.69123 -0.77031,-8.02481 0.29004,-14.66297 3.7946,-21.40283 3.41498,-6.56728 9.43497,-11.20817 16.48116,-12.62351 5.27966,-1.0605 6.99387,0.32867 11.85871,2.16265 5.43658,2.04954 8.35236,3.73462 6.07044,-1.55083 -2.42073,-5.60691 -12.36382,-9.403 -20.45094,-9.57564 z m -29.30158,0.26615 c -0.62939,0.003 -1.24904,0.3915 -2.43035,1.25058 -2.3745,1.72619 -2.87523,3.57018 -1.36943,5.04618 0.4858,0.4762 1.73895,0.85789 2.78484,0.84699 4.30451,-0.0426 6.22708,-4.53943 2.76987,-6.47867 -0.76978,-0.43196 -1.26542,-0.66612 -1.75493,-0.66508 z m -0.23307,2.92229 v 0 c 0.18976,0 0.34555,0.039 0.44183,0.13333 0.18471,0.18142 0.12369,0.68199 -0.13642,1.11207 -0.57168,0.94631 -2.57969,1.0637 -2.57969,0.15142 -0.006,-0.60029 1.45198,-1.39158 2.27428,-1.39735 z m 26.00513,0.69453 c 1.22436,-0.0206 2.34614,0.0497 3.30833,0.21964 3.76581,0.66473 5.31338,1.4983 2.82876,1.52291 -0.85349,0.008 -3.37238,0.71734 -5.59758,1.57509 -5.81951,2.24322 -12.63999,8.45148 -15.82539,15.06212 -2.21969,4.60751 -2.56622,6.12526 -2.90113,12.70725 -0.35798,7.02995 -0.21497,6.79135 -1.65518,6.65694 -0.8424,-0.0783 -4.90373,-0.34263 -9.81543,-0.42013 -4.91149,-0.0774 -6.63168,-1.06243 -6.63265,-1.2051 -0.0146,-1.43002 2.28523,-12.32151 3.62923,-15.04042 3.6435,-7.36952 12.12578,-15.5402 20.43388,-18.65103 3.96015,-1.48347 8.55411,-2.36554 12.22716,-2.42727 z m 7.06107,5.85031 c -1.24614,0.90792 -1.75445,3.63273 -0.10575,3.95401 1.78519,0.34788 3.60788,0.31626 4.4351,-0.54221 0.95975,-0.99602 0.66879,-2.49338 -0.20156,-3.40553 -1.01798,-1.06685 -2.88166,-0.91419 -4.12779,-0.006 z m -6.21252,2.72386 c -0.33333,0.0164 -0.71007,0.17396 -1.21492,0.45061 -1.5123,0.82884 -2.14423,3.63347 -1.05833,4.69792 1.0105,0.99057 3.86686,0.39732 4.57025,-0.9493 0.5547,-1.0613 0.41027,-1.78438 -0.59944,-3.00654 -0.70702,-0.85561 -1.14204,-1.22002 -1.69756,-1.19269 z m -39.27409,0.32401 c -1.61134,0.013 -2.29737,0.54419 -3.77807,2.55437 -1.0876,1.47709 -1.9689,3.09734 -1.9689,3.60082 0.01,0.50326 0.9145,1.23526 2.0206,1.62676 3.15767,1.11808 3.64009,0.97142 5.65079,-1.71979 2.63771,-3.53002 2.19038,-5.8356 -1.17203,-6.0389 -0.27297,-0.0164 -0.5222,-0.0251 -0.75239,-0.0233 z m -0.86199,2.92283 c 0.27292,-0.0175 0.17524,0.49389 -0.24132,1.61229 -0.23739,0.63666 -0.72377,1.15975 -1.08156,1.16374 -1.0082,0.01 -0.7811,-1.17359 0.42063,-2.19107 0.44138,-0.37372 0.73853,-0.57454 0.90225,-0.58496 z m 34.27958,2.02932 c -3.00374,-0.0615 -4.95999,2.78059 -2.574,5.27048 2.11839,2.21059 3.82693,2.12256 5.68854,-0.293 1.8006,-2.33641 1.61774,-3.22951 -0.90797,-4.43074 -0.76425,-0.36343 -1.51342,-0.53256 -2.20657,-0.54674 z m -0.55449,2.04018 c 0.74303,0.003 1.68003,0.587 1.49966,1.30275 -0.22178,0.88009 -2.06806,0.69139 -2.51976,0.0326 -0.24815,-0.36195 -0.1039,-0.89889 0.31006,-1.13945 0.22755,-0.13224 0.48713,-0.19656 0.71004,-0.19587 z m -4.87463,6.21977 c -1.9349,0.11356 -2.78352,4.22926 -1.53686,5.68701 0.9843,1.16223 2.44375,1.36027 3.65353,0.88106 1.20978,-0.47913 2.1699,-1.63557 2.1549,-3.18169 -0.0201,-2.04505 -1.49477,-3.54934 -4.27157,-3.38638 z m 1.02629,1.65261 c 0.67869,-0.007 1.05632,0.48559 0.92242,1.20613 -0.3366,1.83182 -2.03314,2.09974 -2.05415,0.32351 -0.009,-0.89516 0.45593,-1.52463 1.13173,-1.52964 z m -35.46503,1.8092 c -1.6266,0.0161 -2.5055,0.66701 -3.9842,2.95021 -2.0786,3.20984 -1.6394,4.78851 1.464,5.26478 2.7348,0.41961 4.4594,-0.65121 5.4756,-3.39926 1.1995,-3.2435 0.2154,-4.84703 -2.9554,-4.81573 z m -0.2382,2.18903 c 0.1847,-0.003 0.3529,0.65259 0.3529,1.45415 0.01,0.82473 -0.4713,1.46418 -1.1038,1.46918 -0.8932,0.009 -0.9646,-0.28504 -0.3535,-1.45471 0.4212,-0.80584 0.9193,-1.46764 1.1044,-1.46862 z m 34.19169,5.69939 c -1.2665,-0.0334 -2.07835,0.66844 -2.44017,1.6428 -0.76181,2.05166 -0.0352,4.42285 1.68259,4.96093 0.94925,0.29734 3.18567,0.75298 3.69023,-0.0987 0.82092,-1.38576 1.07545,-4.30834 0.53742,-5.15988 -0.32856,-0.52001 -1.6405,-1.05664 -2.89957,-1.28468 -0.1995,-0.0361 -0.38957,-0.0557 -0.5705,-0.0605 z m 0.52089,2.20038 c 0.22482,0.0119 0.42124,0.10851 0.51678,0.38394 0.26236,0.75652 0.0547,1.24618 -0.37105,1.70172 -0.92257,0.98708 -1.66851,-0.23178 -0.95136,-1.50535 0.15952,-0.28329 0.27027,-0.52324 0.57412,-0.5674 0.0786,-0.0114 0.15658,-0.0169 0.23151,-0.013 z" fill="#00B894" transform="translate(-91.842206,-99.920217) translate(1101.4564,561.65593)"/>
</svg>