<?xml version="1.0" ?><svg height="84.930595mm" viewBox="0 0 59.293797 84.930595" width="59.293797mm" xmlns="http://www.w3.org/2000/svg">
    <path d="m -1047.6002,-257.75909 52.37257,1.20481 -4.2471,46.63493 -18.83467,9.22311 -24.3744,-9.84631 z" fill="#FFFFFF" paint-order="markers stroke fill" transform="translate(-140.95255,-50.476294) translate(1191.1334,333.72472)"/>
    <path d="m -1030.0147,-203.02079 c -6.4004,-2.90116 -12.0061,-5.18612 -12.4574,-5.07755 -1.6187,0.38912 -2.77,-3.63021 -4.4639,-15.58958 -3.639,-25.68949 -4.1214,-34.78758 -1.8941,-35.72689 5.2461,-2.21222 52.08027,-1.08239 54.89597,-0.88576 3.4371,0.24002 2.3945,5.44565 0.5337,18.12488 -1.8607,12.67922 -3.8658,28.33797 -3.9683,30.72506 -0.089,2.65873 -5.12337,4.49372 -6.72757,5.57294 -2.6562,1.80142 -8.7316,5.20061 -12.6642,7.27728 -2.228,1.17652 -6.8537,-1.51925 -13.2542,-4.42038 z m 26.8566,-8.68976 c 1.3451,-0.8032 1.2688,-1.48247 1.4096,-2.95036 0.8723,-9.10711 3.98367,-33.27026 4.50487,-35.92094 1.1716,-5.95876 -0.6498,-4.82909 -10.63697,-4.94036 -6.3372,-0.0602 -17.328,-0.17471 -24.4247,-0.25473 -7.0959,-0.08 -13.315,0.0626 -13.8196,0.31776 -1.0267,0.51874 1.5011,19.69586 5.5522,41.8766 0.4211,2.30599 0.5171,2.74923 4.2768,3.90854 2.1073,0.64981 6.7723,2.38653 10.3567,3.89035 6.8457,3.03604 7.4646,3.22032 10.3379,1.487 3.3622,-1.76267 9.5157,-5.5544 12.4432,-7.41386 z m -25.2007,-2.51391 c -5.6041,-3.76974 -6.0827,-4.3151 -5.264,-6.00034 0.846,-1.74215 3.6178,-1.1283 8.653,1.91684 5.0464,3.16538 4.2546,3.06511 10.7495,-0.35341 2.6234,-1.38075 1.9157,-1.5884 2.5339,-9.008 0.1854,-2.22467 -1.0559,-1.85791 -3.0082,-1.88968 l -4.8998,0.0646 c -10.8613,0.14315 -12.7711,-0.35682 -14.029,-1.8512 -1.1872,-1.4106 -3.5119,-15.52451 -2.7987,-16.99272 0.4696,-0.96582 4.189,-1.06819 19.8893,-0.54672 7.358,0.24427 8.7361,0.46652 9.0207,1.45524 0.1847,0.64157 -0.092,1.46108 -0.6129,1.82093 -1.5857,1.09231 -9.5465,1.55415 -16.4934,0.95688 -3.6115,-0.31044 -6.5669,-0.31129 -6.5686,-0.001 0,0.30932 0.233,2.77708 0.5202,5.48398 0.3699,3.48579 0.8364,4.90021 1.5998,4.84846 9.787,-0.66388 19.8714,-0.60864 20.9829,0.11496 1.8294,1.1913 2.081,5.34517 0.7245,11.96448 -1.1455,6.78262 -0.7773,5.39386 -6.6177,8.7001 -3.0656,1.73557 -6.3087,3.01994 -7.379,2.92215 -1.0505,-0.0902 -4.2047,-1.71793 -7.01,-3.6052 z m -21.0365,-52.14025 c 0,-2.26617 -1.114,-12.36523 -0.6888,-14.43244 0.2441,-1.18506 0.8347,-2.24681 1.3129,-2.3594 0.9917,-0.23334 2.1984,3.78524 1.9621,6.53392 -0.1349,1.54217 0.1149,1.78868 1.5563,1.53256 0.9431,-0.16763 2.4313,-0.24782 3.3072,-0.17811 1.4344,0.12324 1.6156,-0.25817 1.8245,-3.76736 0.1886,-3.15728 0.4816,-3.92322 1.5554,-4.04741 1.9533,-0.22593 2.566,2.94003 2.0892,10.80065 -0.3865,6.37649 -0.5087,6.80856 -1.9025,6.68872 -1.1022,-0.0947 -1.6066,-0.86992 -1.9395,-2.98015 -0.4178,-2.64795 -0.6447,-2.86888 -3.1755,-3.08646 -2.7172,-0.23363 -2.7254,-0.23431 -2.9312,2.91335 -0.1527,2.34077 -0.5216,3.18419 -1.4371,3.28943 -0.6767,0.078 -1.533,-0.30663 -1.533,-0.90719 z m 19.8233,-0.83143 c -1.0368,-0.63147 -0.7164,-3.64095 -0.7377,-6.84066 l -0.039,-5.81794 -2.574,-0.22129 c -2.0434,-0.17567 -2.4995,-0.48347 -2.2131,-1.49395 0.6627,-2.33983 13.1762,-2.18443 12.9748,0.16125 -0.055,0.64683 -1.0419,1.19775 -2.3644,1.32072 -2.1458,0.1996 -2.3334,0.37535 -2.1895,3.19537 0.3489,6.83832 0.9645,12.02409 -2.8573,9.6965 z m 8.9598,-0.24852 c -0.3163,-0.73601 -0.439,-4.1946 -0.2731,-7.68561 0.2782,-5.8522 0.4188,-6.35392 1.7937,-6.432 0.8944,-0.0506 2.4996,1.07898 4.0054,2.81858 l 2.5132,2.90334 1.7938,-3.26676 c 3.5877,-6.53349 6.2916,-4.58152 6.5302,4.71403 0.1348,5.17186 -0.044,6.41604 -1.0341,7.2489 -1.9801,1.66645 -3.2727,-0.47443 -3.4082,-5.66446 l -0.1203,-4.60881 -1.7917,3.01069 c -2.0396,3.42718 -3.8275,3.72894 -5.0621,0.85427 -1.2756,-2.9701 -1.6895,-2.43532 -1.8299,2.36325 -0.1015,3.45084 -0.3836,4.46246 -1.3335,4.73553 -0.8533,0.0607 -1.5296,-0.44183 -1.7834,-0.99095 z m 20.3,1.20143 c -1.8526,-0.99067 -2.0908,-2.45658 -1.6805,-9.57922 0.2658,-4.62573 0.5301,-5.59874 1.5519,-5.71785 1.58207,-0.18464 1.89087,1.19613 1.99067,7.52748 0.088,5.64384 -1.47,5.08999 3.856,5.33386 3.3726,0.15451 3.805,0.34835 3.6914,1.66356 -0.1078,1.2479 -0.7613,1.67167 -4.0186,1.546 -1.7452,-0.0673 -3.8478,0.0514 -5.39087,-0.77383 z" fill="#00B894" transform="translate(-140.95255,-50.476294) translate(1191.1334,333.72472)"/>
</svg>