<?xml version="1.0" ?><svg height="29.450859mm" viewBox="0 0 53.639153 29.450859" width="53.639153mm" xmlns="http://www.w3.org/2000/svg">
    <path color="#000" d="m 14770.758,809.64062 c -25.63,-0.043 -75.731,0.95978 -95.77,2.10743 0,0 -31.103,11.43074 -31.853,45.49414 -0.749,34.0635 25.649,43.61759 40.722,44.77929 15.073,1.1617 83.569,-2.62142 112.133,-4.60742 28.565,-1.9861 36.143,-28.55601 34.061,-43.69531 -2.082,-15.1393 -29.938,-43.58194 -49.967,-43.99414 -2.504,-0.0515 -5.665,-0.0778 -9.326,-0.084 z m -11.117,28.52735 c 14.698,0.1499 24.025,9.18037 23.9,15.13867 -0.125,5.9583 1.498,12.70323 -17.822,13.49024 -19.321,0.7869 -52.88,3.44879 -65.289,1.08789 -12.408,-2.3608 -17.989,-5.50952 -18.239,-13.97852 -0.25,-8.469 15.907,-13.60352 15.907,-13.60352 0,0 46.844,-2.28466 61.543,-2.13476 z" fill="#FFFFFF" overflow="visible" paint-order="fill markers stroke" transform="translate(-79.013794,-133.44124) matrix(0.26458333,0,0,0.26458333,-2916.5654,566.91617) translate(-3313.5291,-2437.8203)"/>
    <path d="m 11359.373,-1528.0834 c -16.825,-5.2346 -29.032,-16.2102 -34.747,-31.2412 -3.589,-17.836 -4.808,-40.6417 3.516,-53.4288 12.059,-18.3191 21.928,-22.2395 61.493,-24.4263 51.529,-2.8491 87.662,-0.3779 103.538,7.0812 7.057,3.3152 21.653,20.3149 27.094,31.5555 6.935,14.3246 5.404,35.794 -3.513,49.2681 -12.315,17.8801 -53.306,18.9008 -68.952,19.7072 -61.274,2.8764 -82.795,3.2374 -88.429,1.4843 z m 95.409,-17.7334 c 21.9,-1.4194 40.167,-6.9747 47.699,-14.5064 4.694,-4.6944 5.815,-8.1214 5.815,-17.7763 0,-12.6014 -2.564,-18.0022 -14.697,-30.9569 -26.113,-20.2059 -66.624,-13.9831 -87.614,-13.0805 -50.245,2.1972 -52.612,2.8529 -63.646,17.6321 -9.338,12.5066 -7.303,39.7937 3.738,50.1381 12.191,11.4197 16.7,12.3145 55.192,10.9549 19.835,-0.7 43.916,-1.783 53.513,-2.405 z m -73.813,-17.4101 c -16.482,-3.6568 -21.824,-11.3885 -19.587,-28.3467 1.415,-10.7262 7.924,-12.8105 46.99,-15.0492 23.363,-1.4272 71.821,-1.061 72.674,21.1552 1.407,12.6624 -4.313,16.9854 -13.228,19.7033 -9.126,2.7829 -76.829,4.7593 -86.849,2.5374 z m 42.819,-16.3569 c 42.711,-0.361 45.22,-5.38 29.206,-11.0093 -10.638,-3.7387 -9.638,-3.9555 -41.255,-1.6947 -28.158,2.0141 -36.064,4.0126 -36.064,9.1147 0.608,10.2861 37.764,3.6867 48.113,3.5893 z" fill="#00B894" transform="translate(-79.013794,-133.44124) matrix(0.26458333,0,0,0.26458333,-2916.5654,566.91617)"/>
</svg>