<?xml version="1.0" ?><svg height="63.845718mm" viewBox="0 0 62.243385 63.845718" width="62.243385mm" xmlns="http://www.w3.org/2000/svg">
    <path color="#000" d="m 18153.309,-558.73633 c -3.108,-0.0912 -7.145,0.23714 -12.387,1.27539 -20.971,4.1531 -65.542,33.5913 -81.723,67.1836 -16.18,33.5923 -17.463,120.33377 55.553,146.51367 73.017,26.1799 116.183,-8.93704 140.658,-47.52344 24.475,-38.5864 9.348,-85.95301 3.799,-98.41211 -5.549,-12.4591 -16.297,-17.24309 -14.078,4.94141 2.22,22.1846 -8.938,64.6618 -26.813,87.6875 -17.874,23.0257 -71.789,39.53281 -109.757,10.04101 -37.969,-29.4918 -26.93,-85.26756 -8.413,-117.75586 18.517,-32.4883 55.961,-42.63515 63.438,-49.62695 0,0 -0.954,-4.05067 -10.277,-4.32422 z m 54.072,6.65235 c -0.25,0.0501 -0.483,0.21406 -0.688,0.50976 -1.635,2.3656 -29.321,35.01205 -53.505,60.71875 -24.184,25.7068 -17.291,49.25816 0.876,59.35156 12.091,2.1554 33.471,-7.46488 39.254,-21.23828 5.782,-13.7734 17.289,-83.90234 17.873,-89.52734 0.511,-4.92188 -2.063,-10.16517 -3.81,-9.81445 z" fill="#FFFFFF" overflow="visible" paint-order="fill markers stroke" transform="translate(46.430202,26.598173) matrix(0.26458333,0,0,0.26458333,-3943.0957,768.15289) translate(-3313.5291,-2437.8203)"/>
    <path d="m 14746.688,-2814.7146 c -29.153,-50.3551 -25.613,-109.7221 14.905,-151.019 23.773,-24.2299 80.79,-48.9143 105.545,-33.0091 9.669,6.2123 -9.148,15.728 -14.681,17.1485 -29.077,7.3833 -51.876,27.1005 -66.619,49.8377 -16.061,31.6544 -12.39,70.5025 15.625,94.6833 33.261,27.4112 72.781,23.2702 99.327,-6.608 15.943,-17.944 28.446,-64.2063 24.272,-86.3118 -1.936,-9.3663 -5.157,-23.3854 -3.735,-25.6304 0.686,-1.0814 2.158,-1.2625 5.573,-0.6856 9.932,1.678 28.089,20.3913 31.61,39.2125 8.622,46.0871 7.866,88.6026 -36.817,128.6833 -47.8,42.877 -141.298,31.5575 -175.005,-26.3014 z m 120.803,31.6314 c 8.727,-0.9826 35.373,-13.0284 44.241,-21.4077 33.66,-31.8045 40.951,-66.4788 36.196,-102.0321 -1.257,-9.3998 -14.021,-32.82 -10.844,-15.9563 3.309,24.1886 -0.24,57.658 -20.164,86.1169 -51.213,60.2692 -132.293,45.0427 -155.334,-33.5746 -6.668,-31.2968 3.897,-62.8679 22.983,-83.5209 16.224,-17.2531 29.942,-27.5238 50.693,-34.3315 13.551,-5.4031 -10.624,-0.1328 -20.169,4.0936 -39.901,17.6665 -64.393,48.0998 -68.725,89.3391 -1.385,15.3443 2.75,37.6002 9.956,53.6069 18.418,40.9622 66.97,62.6432 111.167,57.6666 z m -47.366,-131.6552 c 20.179,-31.1248 41.619,-52.7276 67.271,-76.6898 6.785,-6.3423 10.879,-6.7953 14.712,-1.6278 3.501,4.7209 4.274,24.1841 1.761,40.5413 -7.569,49.2735 -14.276,68.4581 -26.3,80.4828 -36.231,32.9084 -73.365,-9.5671 -57.444,-42.7065 z m 36.814,34.5598 c 14.569,-5.9889 17.799,-15.9119 30.479,-66.58 1.787,-7.1391 3.9,-19.3345 4.238,-24.8921 5.263,-24.3896 -10.529,2.5787 -15.748,9.2342 -29.278,37.3325 -35.199,38.3226 -40.436,53.2232 -8.418,21.3649 1.303,37.3037 21.467,29.0147 z" fill="#00B894" transform="translate(46.430202,26.598173) matrix(0.26458333,0,0,0.26458333,-3943.0957,768.15289)"/>
</svg>