<?xml version="1.0" ?><svg height="58.007423mm" viewBox="0 0 59.770611 58.007423" width="59.770611mm" xmlns="http://www.w3.org/2000/svg">
    <path color="#000" d="m 1266.6059,269.70111 c 0,15.5218 -12.9507,28.10471 -28.9263,28.10473 -15.9756,4e-5 -28.9264,-12.58289 -28.9264,-28.10473 0,-15.52184 12.9508,-28.10477 28.9264,-28.10473 15.9756,2e-5 29.0845,9.51513 29.0845,25.03693 z" fill="#FFFFFF" overflow="visible" paint-order="fill markers stroke" transform="translate(209.45857,64.716841) matrix(0.93613515,0,0,0.93613515,-1338.3264,-287.68397)"/>
    <path d="m 1217.5251,244.83756 c 20.5868,-13.93981 47.7079,-5.13047 51.5346,18.37259 1.3966,8.24558 0.8813,14.98013 -4.1736,22.14543 -7.6328,10.81945 -22.4961,16.71244 -35.4808,14.22005 -7.3109,-1.36319 -16.5681,-8.04104 -20.0042,-14.15769 -6.6572,-13.45528 -3.8286,-32.48698 8.124,-40.58038 z m -4.1316,37.06105 c 2.0575,4.4096 8.2933,9.45739 14.6047,11.8497 7.1168,2.69763 6.2012,1.58776 10.3952,-6.31234 l 2.7243,-7.27896 -2.5783,0.14445 c -7.3226,0.41026 -11.7997,-3.00789 -12.8088,-8.96608 -0.3765,-2.22276 0.025,-4.48764 1.0812,-6.09098 1.4275,-2.16817 1.4422,-2.75736 0.098,-3.91378 -2.8148,-3.20966 -4.0939,-6.89774 -6.796,-10.27113 -0.4537,-0.57045 -0.6155,-1.3295 -2.569,1.01381 -6.9304,8.31075 -9.5604,18.23267 -5.1274,27.73331 z m 24.3354,-5.56642 c 3.6843,-0.62402 6.8637,-3.09651 6.2971,-6.44158 -0.6166,-3.64079 -2.4626,-5.50516 -6.5116,-5.34192 -3.9653,0.15987 -5.002,0.51236 -6.4537,2.5561 -2.9469,6.10366 0.7501,10.12312 6.6682,9.2274 z m -5.9546,-16.05639 c 2.6725,-1.16314 6.8115,-1.25944 10.0059,0.41659 4.1064,2.37824 20.5247,-3.18199 20.5247,-3.18199 -4.2616,-7.48441 -12.3163,-12.98306 -20.3097,-13.74969 -6.1329,-0.53508 -14.4055,1.00161 -16.7389,3.39117 -0.93,1.30927 5.2204,12.59687 6.518,13.12392 z m 10.9423,34.58732 c 3.6176,-0.61274 11.2234,-4.98364 15.2721,-8.77658 5.0253,-4.70787 7.8154,-12.49275 6.895,-19.2378 l -0.6196,-4.54106 -8.4208,2.04722 c -8.6315,1.17091 -8.9793,0.33221 -8.05,2.47748 0.9483,4.22767 0.11,7.69207 -1.6095,11.48562 0.077,0.45732 -1.1355,4.07461 -2.6955,8.03842 -3.21,8.15655 -3.2803,8.93158 -0.7717,8.5067 z" fill="#00B894" transform="translate(209.45857,64.716841) matrix(0.93613515,0,0,0.93613515,-1338.3264,-287.68397)"/>
</svg>