<?xml version="1.0" ?><svg height="79.36055mm" viewBox="0 0 188.71988 79.36055" width="188.71988mm" xmlns="http://www.w3.org/2000/svg">
    <path d="m -1815.7378,-152.84288 c 1.3759,-1.78316 4.6507,-10.55045 4.6507,-10.55045 0,0 -12.4111,-13.00231 -7.4852,-26.40089 4.9259,-13.39855 17.6673,-20.43218 31.1792,-20.08547 13.512,0.34673 24.7673,11.31821 26.0607,23.28034 1.2934,11.96213 -3.3023,29.5462 -13.5119,32.1219 -10.2096,2.57569 -22.8409,-0.29718 -25.5653,-1.80793 -2.7244,-1.51074 -9.0814,1.48596 -11.0903,2.67475 -2.0089,1.18878 -4.2379,0.76775 -4.2379,0.76775 z" fill="#FFFFFF" paint-order="markers stroke fill" transform="translate(410.23703,243.55316) translate(1417.6767,-23.665535)"/>
    <path d="m -1826.615,-141.38688 c -0.8878,-1.0698 -0.5319,-3.24598 0.8367,-5.11714 1.0253,-1.4018 2.3886,-0.89641 2.3886,0.88555 0,1.14145 0.1466,1.14867 3.2366,0.16015 2.5479,-0.81475 3.4047,-0.86707 4.0259,-0.246 1.254,1.25407 -0.1722,2.79653 -3.7517,4.05637 -4.0134,1.41276 -5.7251,1.47907 -6.7361,0.26099 z m 37.1823,-1.20782 c -0.7337,-0.53649 -1.0401,-1.28847 -0.7903,-1.93935 0.5732,-1.49362 9.9914,-1.56965 10.5611,-0.0852 0.2063,0.53782 0.018,1.41052 -0.4228,1.93933 -1.032,1.24361 -7.681,1.30426 -9.348,0.0852 z m -8.4225,-1.32337 c -4.9868,-2.20128 -5.3611,-5.85072 -0.4491,-4.37901 3.3134,0.99274 5.1387,2.94948 4.0147,4.30386 -0.9712,1.17025 -1.0795,1.17252 -3.5656,0.0751 z m -13.8644,-1.65807 c -1.5235,-0.94155 -0.3647,-2.92641 2.5517,-4.37064 1.6001,-0.79233 3.4908,-1.37413 4.2019,-1.29286 1.8385,0.20998 2.0669,2.76996 0.3299,3.69952 -2.7355,1.46401 -6.2954,2.45104 -7.0835,1.96398 z m 35.5204,-0.93306 c 0,-1.14 5.5054,-3.87146 6.801,-3.37426 1.3999,0.53725 1.1674,2.12579 -0.4803,3.27994 -1.8488,1.29495 -6.3207,1.36167 -6.3207,0.0944 z m -17.2902,-3.55652 c -1.5097,-0.70635 -4.0125,-2.15629 -5.5618,-3.22217 -3.9371,-2.98591 -3.3747,-1.65968 -7.9403,0.61664 -5.7699,2.87671 -9.6609,3.51028 -10.7983,1.7583 -0.5761,-0.88769 -0.3043,-1.93797 1.3381,-5.17157 1.1337,-2.23174 2.5326,-4.78552 3.1089,-5.67508 1.0178,-1.57136 0.9771,-1.69202 -1.4291,-4.24125 -3.7831,-4.00819 -6.8182,-11.68935 -7.1843,-18.18276 -0.2761,-4.89551 -0.1466,-5.61772 1.7086,-9.58373 6.6318,-14.17191 26.7027,-22.75387 41.0421,-17.5489 11.4726,4.1643 17.6609,12.99605 19.2746,27.50806 1.8443,16.58713 -2.7075,26.56088 -14.8501,32.53867 -3.6111,1.77775 -5.0153,2.09493 -10.0794,2.27674 -4.8213,0.17317 -6.3795,-0.0209 -8.629,-1.07295 z m 13.8207,-4.89433 c 11.9004,-3.90026 14.8088,-14.02909 14.7823,-23.60585 -0.028,-10.02729 -0.8066,-13.89408 -3.9106,-18.7469 -3.9498,-6.17519 -11.1662,-10.43817 -18.3917,-10.86493 -14.4726,-0.85478 -30.383,11.17448 -30.383,22.97147 0,4.99224 4.3359,16.71542 7.4958,20.2666 1.2862,1.44551 1.1381,2.77025 -0.7191,6.43505 -0.8947,1.7659 -1.4511,3.21073 -1.2361,3.21073 0.2147,0 2.2112,-1.01814 4.4365,-2.26255 4.738,-2.64972 5.3467,-2.71301 8.4549,-0.8791 7.2409,4.27216 13.2586,5.51153 19.471,3.47548 z m 13.4083,3.88957 c -0.3873,-1.00928 3.6794,-6.43921 5.2837,-7.05482 1.0916,-0.41888 2.878,0.14495 2.878,0.90838 0,1.43609 -1.0738,2.83664 -3.7301,4.86488 -3.2447,2.4775 -3.9,2.66697 -4.4316,1.28156 z m -57.7109,-0.58994 c -1.3192,-1.58935 2.0371,-8.15857 4.1681,-8.15857 1.6257,0 1.5502,2.15655 -0.1873,5.35773 -1.9602,3.61118 -2.8114,4.21006 -3.9808,2.80084 z m 119.7626,-3.15814 c -2.1503,-1.10599 -2.9152,-2.5593 -2.4087,-4.57715 0.3148,-1.25436 0.8436,-1.71618 1.9653,-1.71618 0.844,0 1.7021,0.43636 1.9066,0.96968 0.5126,1.33555 3.8672,1.22861 5.0695,-0.16162 0.9254,-1.07019 2.4542,-4.86536 2.4542,-6.09268 0,-0.31162 -0.8583,-0.12277 -1.9072,0.41969 -4.0255,2.08162 -8.2598,0.60776 -10.4202,-3.62697 -1.5768,-3.09095 -1.3269,-4.76866 1.1493,-7.71138 3.0855,-3.66699 9.457,-5.62199 11.9767,-3.67489 2.5489,1.96964 3.8173,6.02146 3.9353,12.57118 0.1063,5.90569 -0.018,6.55047 -1.725,9.46671 -2.6303,4.47488 -7.8409,6.2704 -11.9958,4.13361 z m 5.3574,-15.42741 c 1.5793,-0.7196 2.1649,-0.84311 2.9809,-4.334 0.3734,-1.59769 0,-2.95323 -1.5453,-2.95323 -2.2022,0 -4.5647,1.15487 -5.8166,2.94223 -0.7561,1.07942 -0.8164,1.7041 -0.2657,2.75108 1.2568,2.38973 2.1943,2.71128 4.6467,1.59392 z m -122.7225,6.73386 c -1.5255,-1.73872 -2.9689,-4.92898 -2.6431,-5.84194 0.1595,-0.44444 0.842,-0.80807 1.5184,-0.80807 1.4867,0 4.6887,4.58239 4.3674,6.25035 -0.3071,1.59441 -2.0102,1.80432 -3.2427,0.39966 z m 64.4165,0.41499 c -0.6348,-1.02703 0.308,-6.51721 1.4148,-8.23952 0.8099,-1.26018 1.1218,-1.36565 1.966,-0.66491 0.7909,0.65633 0.9197,1.63636 0.6075,4.62337 -0.2179,2.08479 -0.5607,4.05666 -0.7618,4.38195 -0.503,0.81396 -2.7037,0.74513 -3.2265,-0.10096 z m 19.544,-2.4775 c -2.9228,-2.1173 -3.7758,-4.14037 -2.3476,-5.56854 1.2353,-1.23528 1.1176,-1.25482 4.7523,0.78834 2.6596,1.49505 3.3435,1.63895 4.7479,0.9991 2.2989,-1.0475 3.8803,-3.67245 3.3898,-5.62686 -0.3062,-1.21987 -1.0491,-1.75991 -3.1419,-2.28388 -4.5516,-1.1396 -6.8852,-2.4668 -8.2376,-4.68494 -2.4419,-4.00482 -1.1286,-9.77073 2.7104,-11.90107 5.035,-2.79397 14.659,1.08596 12.1984,4.91774 -0.5232,0.81474 -1.4824,1.09491 -2.5368,0.14066 -2.3761,-1.88184 -6.7461,-2.00125 -8.2449,0.23474 -1.8343,2.79933 -0.4756,4.50636 4.8486,6.09199 7.0278,2.09296 9.879,5.89253 7.0978,11.72391 -3.1644,6.63486 -10.9774,8.02988 -15.2364,5.16881 z m 74.1485,0.86506 c -4.8672,-2.64088 -1.5125,-11.16201 4.4671,-11.34714 1.3606,-0.0421 2.8375,-0.0293 3.2819,0.0284 1.406,0.18251 0.8781,-1.07077 -1.1808,-2.80329 -2.3778,-2.00073 -4.3763,-2.12309 -6.5644,-0.40185 -1.8106,1.42424 -2.4362,1.1568 -2.4362,-1.04131 0,-2.1205 2.8531,-3.78584 6.4863,-3.78584 5.1818,0 9.2469,4.13188 10.0856,10.25119 0.8574,6.25559 -2.546,10.1324 -8.8546,10.08595 -1.7347,-0.2446 -3.739,-0.19462 -5.2849,-0.98611 z m 7.5454,-4.14367 c 2.1196,-0.8059 2.1128,-1.81443 -0.018,-2.62446 -2.0232,-0.7692 -4.9835,0.41674 -5.313,2.12855 -0.1667,0.86931 0.2269,1.12637 1.7276,1.12637 1.2164,-0.11951 2.4935,-0.22335 3.6034,-0.63046 z m 12.2055,4.14926 c 0,-2.62751 -2.5773,-25.12035 -1.0914,-28.03267 0.4392,-0.86079 1.0894,-1.65604 1.4451,-1.76723 2.0151,-0.63018 2.2566,0.80714 4.0053,23.84221 0.2701,3.55875 0.2482,5.37912 -0.4378,5.97962 -1.353,1.18427 -3.9212,1.32499 -3.9212,-0.0219 z m -31.0113,-5.63275 c 0.2304,-1.98062 0.2468,-4.06021 0.031,-4.62199 -0.5173,-1.3483 -2.7084,-1.29045 -5.0528,0.13341 -1.6184,0.9829 -1.9089,1.58625 -2.0186,4.19471 -0.1485,3.49838 -1.2093,5.13982 -3.1456,4.86318 -1.254,-0.17921 -1.3624,-0.66212 -1.5338,-6.83043 -0.1594,-5.74269 -0.037,-6.69419 0.9087,-7.05709 0.6874,-0.26378 1.4757,0.0511 2.1238,0.84826 1.0196,1.25422 1.0539,1.25193 3.2272,-0.21542 3.783,-2.55437 8.114,-1.67308 10.1246,2.0602 1.3983,2.5966 1.2219,9.12638 -0.7455,10.74516 -3.9961,3.28806 -4.1046,-2.52404 -3.919,-4.11999 z m -41.9347,3.27755 c -0.4902,-0.49025 -0.7756,-2.95139 -0.7756,-6.68749 0,-4.93716 0.1977,-6.09068 1.1993,-6.99719 2.6898,-2.43422 3.9511,0.32513 3.965,8.67472 0,4.3011 -0.6543,5.78569 -2.5786,5.78569 -0.5688,0 -1.3833,-0.34909 -1.8101,-0.77573 z m -110.5451,-9.01741 c -0.9793,-2.80909 -0.8884,-5.51465 0.1992,-5.93201 1.576,-0.60485 2.9696,1.71704 2.9696,4.9481 0,2.53699 -0.1964,3.01971 -1.2296,3.01971 -0.798,0 -1.4787,-0.7146 -1.9392,-2.0358 z m 71.0548,-3.11877 c -1.1107,-2.07528 -0.5816,-7.39218 0.761,-7.647 1.3082,-0.2483 2.6981,3.68123 2.358,6.6665 -0.2661,2.33444 -2.0879,2.90717 -3.119,0.9805 z m 39.3862,-5.78817 c -1.2702,-2.37344 0.8303,-4.55113 3.1779,-3.2947 1.6772,0.89759 2.0704,2.40726 0.9254,3.55238 -1.3608,1.3606 -3.3025,1.23865 -4.1033,-0.25768 z m -110.7197,-1.12424 c -0.7627,-0.76259 -0.4596,-5.36041 0.5055,-7.67037 0.6373,-1.52496 1.3608,-2.24179 2.2627,-2.24179 1.8546,0 1.9003,1.20869 0.2628,6.94928 -0.8838,3.09842 -1.9012,4.09287 -3.031,2.96288 z m 68.4664,-6.84154 c -1.3098,-2.00878 -2.3926,-7.12872 -1.6622,-7.85924 0.3513,-0.35133 0.9386,-0.29473 1.4636,0.1411 1.4027,1.16417 3.9157,7.03942 3.4879,8.15446 -0.5631,1.46753 -2.1885,1.25195 -3.2893,-0.4363 z m -62.4331,-8.45784 c 0,-2.05521 4.6465,-7.05617 6.0542,-6.516 1.6985,0.65181 1.2345,2.33596 -1.4544,5.27743 -2.8218,3.08703 -4.5998,3.56577 -4.5998,1.23857 z m 55.8422,-2.91476 c -1.104,-0.77626 -4.773,-5.77089 -4.773,-6.49768 0,-1.39154 1.9686,-0.68533 4.5232,1.62276 1.4233,1.28577 2.5878,2.8546 2.5878,3.48628 0,1.252 -1.3727,2.06729 -2.338,1.38864 z m -46.1455,-6.52225 c 0,-1.30213 2.5379,-3.4449 5.3434,-4.51158 1.8704,-0.71108 4.2254,0.51973 3.4366,1.79601 -0.5985,0.96861 -6.4845,3.96445 -7.7888,3.96445 -0.5485,0 -0.9912,-0.5577 -0.9912,-1.24888 z m 31.3524,-3.51111 c -6.1246,-2.71528 -3.3703,-5.75774 2.9302,-3.23679 2.0645,0.82607 2.5906,1.34932 2.4372,2.42418 -0.2404,1.68447 -2.5962,2.04116 -5.3674,0.81261 z m -19.0699,-2.63181 c 0,-2.27171 8.0254,-3.99546 9.6255,-2.06743 1.2174,1.46685 -0.9252,2.5914 -5.4913,2.88214 -3.5337,0.22502 -4.1342,0.10665 -4.1342,-0.81471 z" fill="#00B894" transform="translate(410.23703,243.55316) translate(1417.6767,-23.665535)"/>
</svg>