<?xml version="1.0" ?><svg height="124.28311mm" viewBox="0 0 161.25212 124.28311" width="161.25212mm" xmlns="http://www.w3.org/2000/svg">
    <path d="m -1717.3663,-117.10583 c -27.0126,0.003 -50.6433,18.256481 -56.5702,44.610881 -7.0085,-0.114874 -13.7792,0.712349 -20.7806,0.972295 l 0.5674,29.154899 21.5568,-0.09612 c 7.4236,24.281912 29.8352,40.8674082 55.2266,40.8698567 25.5821,-0.00134 48.1153,-16.8314827 55.377,-41.3612997 l 22.0415,-0.09818 0.6605,-29.058692 c -7.4375,-0.973244 -14.7892,-2.148264 -22.2855,-2.008146 -6.6987,-25.322567 -29.5999,-42.966594 -55.7935,-42.985494 z m 0.6222,16.57522 c 16.6726,0.0145 31.5485,10.709871 37.2013,26.746685 l -74.861,1.400431 c 5.2369,-16.752803 20.4578,-28.128986 37.6597,-28.147116 z m 35.8262,57.659527 c -6.5194,14.203007 -20.481,23.273162 -35.8262,23.274548 -15.2134,-0.0096 -29.0749,-8.933739 -35.6578,-22.956738 z" fill="#FFFFFF" paint-order="markers stroke fill" transform="translate(-139.60698,77.24325) translate(1936.6023,43.3345)"/>
    <path d="m -1724.2198,2.8102584 c -15.3413,-2.40678762 -30.9225,-10.5060998 -40.2112,-22.8896004 -4.1358,-5.513619 -8.6513,-13.90327 -9.8555,-18.11251 l -0.8428,-2.9449 -8.9297,0.2457 c -5.8958,0.16234 -10.4879,0.271895 -11.5868,-0.383035 -1.7772,-1.0593 -0.6971,-5.284782 -0.8247,-18.509927 -0.049,-5.038654 -0.5813,-10.23968 -0.5199,-10.957102 0.1157,-1.350959 0.2588,-2.493495 1.66,-2.507101 2.6316,-0.02555 3.4504,0.119095 11.7555,-0.510385 l 7.8682,-0.59636 0.4922,-3.12476 c 1.3463,-8.54713 10.7053,-22.841618 19.5378,-29.841558 6.3916,-5.06559 15.8491,-10.05622 22.7569,-12.00851 10.4973,-2.96684 29.7128,-0.43922 41.175,5.41624 12.3156,6.29135 25.8721,21.322688 30.4013,33.708628 l 1.4566,3.98369 10.2576,0.58421 c 5.6416,0.32133 10.6384,0.99165 11.1038,1.48962 0.5256,0.56262 0.9385,6.22433 1.0902,14.95508 0.1379,7.96691 0.5565,14.0497 0.9658,14.0497 1.2235,0 0.7963,3.10702 -0.5005,3.64077 -0.6722,0.27667 -6.1531,0.50304 -12.1798,0.50304 h -10.9581 l -0.8866,3.93664 c -3.2127,14.26621 -17.6032,30.0568904 -33.3138,36.55522041 -9.8838,4.08829999 -17.814,5.21508639 -29.9115,3.31720999 z m 50.5331,-25.0574404 c 4.3149,-5.687756 10.1223,-15.99586 10.1223,-17.70252 0,-0.77492 -1.9787,-1.04911 -7.5715,-1.04911 h -7.5716 l -0.9626,2.85554 c -2.0725,6.14685 -14.8127,16.49346 -24.1459,19.60908 -6.0365,2.01507 -17.9723,2.13138 -23.9338,0.23328 -9.7251,-3.09659 -19.1354,-10.37301 -24.7991,-19.17553 l -2.266,-3.52225 h -7.7724 c -9.002,0 -8.7353,-0.80236 -3.137,9.43724 4.4287,8.10023 12.7854,17.179685 19.483,21.6822904 9.3,6.252072 20.9592,8.4447504 27.8863,8.63358 16.6515,0.45391469 34.6622,-7.8121237 44.6683,-21.0016004 z m -33.7007,-0.16552 c 5.9133,-1.64351 10.5243,-4.14255 16.4043,-8.89071 4.69,-3.78725 8.62,-8.58695 7.7741,-9.49435 -0.5173,-0.55491 -66.2992,-0.2883 -66.8206,0.27082 -0.1817,0.19476 1.0553,2.10733 2.7484,4.25001 4.6135,5.8379 14.7007,12.85217 20.6972,14.39177 4.2314,1.08644 14.3944,0.80716 19.1966,-0.52754 z m -50.0578,-22.72651 c 13.1744,-0.41528 44.6767,-0.77239 70.0052,-0.7936 l 46.0521,-0.0385 0.5019,-7.58619 c 0.8929,-13.48758 0.6858,-17.94833 -0.85,-18.32837 -0.7436,-0.18395 -26.5609,-0.30242 -57.3716,-0.26305 -52.6456,0.0672 -89.6708,1.509226 -92.5682,1.457591 -1.9108,-0.03405 -1.079,3.093972 -1.2961,8.041237 -0.1514,3.448341 0.1347,9.185779 0.1781,12.671667 0.08,6.430952 -0.1768,6.372631 5.9507,5.748147 3.0256,-0.30839 16.2238,-0.493582 29.3979,-0.908862 z m -22.9829,-7.44362 c -2.1265,-1.79415 -3.0057,-4.97244 -2.355,-8.51347 0.5962,-3.24426 1.4932,-2.81862 2.0592,0.97715 0.9733,6.52873 5.1077,7.32881 5.1326,0.99329 0.022,-3.70247 0.9819,-5.48261 2.6145,-4.8107 0.9095,0.37433 1.237,1.62328 1.237,4.71663 0,3.3622 -0.381,4.61618 -1.8966,6.24174 -2.2952,2.4619 -4.2099,2.57337 -6.7917,0.39536 z m 24.2872,0.19593 c -0.379,-0.8018 -0.5261,-3.97517 -0.3272,-7.05195 0.3575,-5.52323 0.3903,-5.59415 2.59,-5.59415 3.1836,0 5.3189,2.62474 5.3189,6.53829 0,3.73553 -1.7548,6.31604 -4.7985,7.05631 -1.5452,0.37586 -2.2746,0.12733 -2.7832,-0.9485 z m 4.4792,-6.53608 c 0,-0.9698 -0.5702,-2.27509 -1.2814,-2.90067 -1.1608,-1.02126 -1.241,-0.92584 -0.7832,0.93446 0.2803,1.13955 0.52,3.00427 0.5322,4.14382 0.022,1.64363 0.1774,1.81493 0.7715,0.82877 0.4119,-0.68373 0.7543,-2.03661 0.7609,-3.00638 z m -17.3088,6.18315 c -0.8767,-3.00671 -1.1558,-10.58294 -0.4078,-11.07873 0.4501,-0.29845 2.1642,0.41255 3.809,1.57999 l 2.9903,2.12259 0.5036,-2.45851 c 0.9468,-4.62384 2.2881,-2.86052 3.1548,4.14727 0.6757,5.46294 -0.9664,6.3982 -4.6007,2.62023 -1.3732,-1.42773 -2.6542,-2.59615 -2.8464,-2.59646 -0.1929,-2.8e-4 -0.3497,1.36344 -0.3497,3.03049 0,2.96148 -1.6088,4.84182 -2.2531,2.63313 z m 24.2747,0.3919 c -2.4281,-0.93075 -2.8589,-2.5171 -2.0845,-7.67511 0.7125,-4.74471 0.8827,-5.03383 3.4066,-5.78124 2.6681,-0.79024 4.8594,-0.44246 4.8594,0.77128 0,0.87782 -2.0289,1.65753 -4.3129,1.65753 -1.1461,0 -1.8686,0.48085 -1.8686,1.24316 0,0.86821 0.8154,1.24312 2.7043,1.24312 1.4874,0 2.7045,0.33306 2.7045,0.74011 0,0.90846 -1.9149,1.7462 -3.991,1.7462 -2.5105,0 -1.16,2.04568 1.5391,2.3316 1.767,0.18724 2.4519,0.68091 2.4519,1.76805 0,1.92039 -2.8307,2.94363 -5.4088,1.9553 z m 25.0149,-0.0644 c -1.8582,-0.31407 -4.7109,-3.28923 -4.95,-5.16191 -0.5874,-4.60767 2.3244,-8.28763 6.5575,-8.28763 3.2305,0 3.8279,2.00407 0.6566,2.20148 -3.7018,0.23046 -5.2473,4.46912 -2.338,6.41171 1.0633,0.70999 1.5421,0.63632 2.1167,-0.32556 0.4084,-0.68372 0.5944,-1.67847 0.4129,-2.2105 -0.3631,-1.06668 1.2057,-1.93331 3.4998,-1.93331 1.7684,0 1.9744,1.50694 0.3001,2.19605 -0.7354,0.3027 -1.0111,1.0639 -0.73,2.0146 0.9597,3.24255 -1.7429,5.73447 -5.5256,5.09507 z m 57.8186,-0.37135 c -1.6053,-0.84565 -1.7596,-1.44311 -1.6145,-6.25489 0.1052,-3.46312 0.5109,-5.46405 1.1638,-5.7328 1.6319,-0.6717 6.3786,1.38131 7.6323,3.30114 3.326,5.09354 -1.9309,11.4523 -7.1816,8.68655 z m 5.1029,-5.42232 c 0.2169,-1.5474 -2.2842,-4.34078 -3.886,-4.34078 -0.6998,0 -0.8235,6.11503 -0.1379,6.84957 0.8991,0.96443 3.791,-0.83807 4.0246,-2.50874 z m -79.4371,-0.56436 c 0,-4.57866 0.2449,-5.5239 1.7174,-6.63009 2.3588,-1.77207 5.7044,-1.61734 7.5372,0.34858 1.8498,1.9838 1.3015,3.99339 -1.2784,4.68795 l -1.8984,0.51103 1.9836,2.22065 c 1.091,1.22135 1.9835,2.66642 1.9835,3.21123 0,1.98056 -3.0291,0.92481 -4.7398,-1.65194 l -1.7544,-2.64255 -0.6382,2.64255 c -0.3537,1.46337 -1.1458,2.64255 -1.7755,2.64255 -0.8831,0 -1.137,-1.19194 -1.137,-5.33996 z m 6.9543,-4.60518 c 0,-0.45583 -0.6955,-0.82877 -1.5453,-0.82877 -0.8501,0 -1.7976,-0.028 -2.1058,-0.0623 -0.3079,-0.0341 -0.6846,0.33877 -0.837,0.82877 -0.1576,0.50697 0.7499,0.89093 2.1056,0.89093 1.3103,0 2.3825,-0.37294 2.3825,-0.82877 z m 24.5591,7.3944 c -1.7426,-2.52812 -1.7618,-2.53369 -2.1817,-0.62594 -0.2331,1.05867 -1.0169,2.04737 -1.742,2.19714 -1.1409,0.23565 -1.3183,-0.50523 -1.3183,-5.50112 0,-6.2244 0.3721,-6.77953 4.5446,-6.77953 3.764,0 5.1119,3.05632 2.6401,5.98605 -1.2497,1.48096 -1.2052,1.65232 0.8971,3.45032 1.2943,1.10691 1.9812,2.29277 1.6557,2.8579 -0.9595,1.66529 -2.671,1.06193 -4.4955,-1.58482 z m -0.6061,-7.3944 c 0.9373,-0.64964 0.8264,-0.80582 -0.5794,-0.81609 -0.9562,-0.007 -1.7385,0.36026 -1.7385,0.81609 0,1.03836 0.8199,1.03836 2.3179,0 z m 7.3055,7.9109 c -4.8677,-5.22101 0.796,-12.51165 6.4308,-8.2783 1.316,0.98854 1.7174,2.1123 1.7174,4.80682 0,1.93418 -0.4173,3.96424 -0.9271,4.51121 -1.5591,1.67241 -5.1785,1.15132 -7.2211,-1.03973 z m 5.4344,-2.90703 c 0.589,-1.99002 -0.8015,-5.00387 -2.3086,-5.00387 -1.3746,0 -2.6301,2.48005 -2.0977,4.14381 0.8823,2.75729 3.6834,3.30399 4.4063,0.86006 z m 21.6348,2.19599 -2.5595,-2.74527 -0.4477,2.40211 c -0.7471,4.00657 -2.3958,2.22507 -2.3605,-2.55079 0.023,-2.32909 0.2662,-4.48685 0.5535,-4.795 0.2872,-0.30815 1.7937,0.637 3.3473,2.10032 2.9701,2.79697 3.8828,2.63125 4.3088,-0.78247 0.1444,-1.1659 0.7653,-2.07191 1.4176,-2.07191 1.4817,0 2.0761,8.26049 0.7206,10.01242 -1.3374,1.72858 -2.1415,1.47524 -4.9801,-1.56941 z m -15.7741,-0.26716 c -1.5755,-2.14841 -2.1396,-6.07936 -1.0411,-7.25749 0.3082,-0.33058 0.9476,0.63284 1.4206,2.14097 1.2886,4.10724 3.2755,4.05546 3.8952,-0.10149 0.7485,-5.01929 3.396,-4.1289 3.396,1.14204 0,2.46845 -2.8079,6.25971 -4.636,6.25971 -0.7884,0 -2.154,-0.98266 -3.0347,-2.18369 z m -72.1634,-19.05273 4.6146,-0.51736 0.8915,-3.57445 c 1.1184,-4.4849 6.4027,-11.55062 11.2673,-15.06582 8.0313,-5.803468 22.4652,-8.243248 33.6987,-5.696178 11.0421,2.503638 22.8755,10.744638 27.4497,19.116068 l 1.9357,3.5429 6.6379,0.57768 c 3.6508,0.31774 6.8537,0.34645 7.1171,0.0639 0.7935,-0.85129 -3.4852,-8.82699 -7.9843,-14.88281 -8.8862,-11.960898 -19.7241,-19.427418 -33.2242,-22.889688 -8.7511,-2.24426 -20.5803,-1.89108 -27.766,0.82898 -10.6269,4.02285 -20.6186,11.30378 -27.1441,19.780198 -4.0899,5.31278 -9.609,15.70994 -9.609,18.10225 0,1.26873 4.323,1.48796 12.1151,0.61444 z m 46.8019,-1.64558 c 15.618,-0.28407 28.3962,-0.75958 28.3962,-1.05669 0,-1.18912 -6.3964,-8.74109 -9.6842,-11.43368 -8.2715,-6.822391 -15.4544,-7.294482 -21.9959,-7.28532 -10.5505,0.0258 -18.2528,1.88184 -23.8574,5.74917 -4.1537,2.86599 -12.4585,12.59312 -12.4585,14.59186 0,0.28593 2.5207,0.39193 5.6018,0.23552 3.0811,-0.15646 18.3801,-0.51679 33.998,-0.80086 z" fill="#00B894" transform="translate(-139.60698,77.24325) translate(1936.6023,43.3345)"/>
</svg>