<?xml version="1.0" ?><svg height="83.797699mm" viewBox="0 0 57.867081 83.797699" width="57.867081mm" xmlns="http://www.w3.org/2000/svg">
    <path d="m -1183.7011,-260.00834 54.0549,-0.55256 -5.5613,44.05694 -21.6079,13.42112 -24.9611,-15.35512 z" fill="#FFFFFF" paint-order="markers stroke fill" transform="translate(-91.270974,-12.213809) translate(1277.5014,296.65989)"/>
    <path d="m 343.52539,2702.7363 c -4.69344,0.1115 -5.36725,2.9625 -6.51953,21.3555 -0.74532,11.8663 -2.34801,22.396 -3.55859,23.4004 -1.21134,0.9844 -6.82088,1.2929 -12.46485,0.6406 -15.73417,-1.8175 -18.79468,8.6582 -4.53906,15.5371 40.67452,15.0032 39.83943,-11.9476 37.63672,-45.4101 -0.81903,-12.4413 -4.6597,-15.3288 -9.5625,-15.5118 -0.34996,-0.013 -0.67929,-0.019 -0.99219,-0.012 z m 45.28906,1.9727 c -6.86505,-0.1459 -15.61204,2.6491 -21.41406,9.5058 -6.13002,7.244 -1.13923,22.4576 12.21875,26.9922 13.24158,4.4957 11.88177,10.1293 -2.31641,9.5977 -13.73404,-0.5147 -16.2627,7.0898 -4.46679,13.4355 7.54847,4.0173 11.67238,5.4999 23.6875,-0.414 6.07521,-3.949 8.49294,-8.001 8.80664,-14.75 0.44107,-9.5795 -9.24264,-19.331 -19.64844,-21.5742 -2.30324,-0.4966 -6.51361,-4.0941 -1.85156,-8 1.42601,-1.1948 5.52884,-2.5708 9.80273,-2.4102 8.37657,0.3138 10.8306,-5.5473 2.92383,-10.4668 -1.88965,-1.1757 -4.62171,-1.8497 -7.74219,-1.916 z m 10.61328,77.4316 c -20.73502,-0.048 -43.24793,0.3599 -62.99804,1.3047 -28.89789,1.3831 -60.17301,2.5247 -69.50391,2.5625 -14.88416,0.043 -16.91615,0.7305 -16.6289,5.6172 0.18179,3.0635 1.85493,21.8806 3.71484,41.8164 1.8599,19.9352 4.30389,55.2188 5.43359,78.4082 1.12819,23.1895 2.93739,43.5814 4.01758,45.3145 2.61241,4.187 32.31657,24.0159 67.49414,45.0547 15.67862,9.3785 25.79188,14.426 26.67969,15.1699 7.85235,6.5796 15.85641,-4.0459 27.86133,-11.6192 12.00567,-7.5724 31.34021,-19.6645 42.96679,-26.8691 11.62545,-7.2056 21.89559,-14.9475 22.8125,-17.2051 0.92221,-2.2572 4.70786,-37.7498 8.41407,-78.8711 3.70733,-41.1206 7.63024,-79.3439 8.71875,-84.9414 1.09039,-5.5998 0.57591,-11.0338 -1.14454,-12.082 -3.65999,-2.2332 -33.27951,-3.5801 -67.83789,-3.6602 z m 45.82618,17.4043 c 9.23641,-0.1074 7.71163,0.4126 5.05273,15.1211 -1.49291,8.2585 -5.86752,39.1775 -8.97656,68.8594 -5.97355,57.0291 -8.44636,71.866 -11.98438,71.8887 -1.19508,0.01 -16.58218,9.9326 -34.03906,22.2695 L 373.5,2993.0938 c -11.14809,7.8586 -10.04674,8.1248 -21.66992,1.498 -14.97714,-8.4696 -50.25752,-28.7437 -61.01367,-35.1504 -10.78073,-6.4213 -9.5128,-4.1279 -9.89453,-17.3613 -1.47213,-26.0328 -10.68068,-125.1853 -11.59571,-136.4473 -0.56504,-6.9565 11.83312,-4.1805 175.92774,-6.0879 z m -142.10938,17.2422 c -10.09666,-0.077 -14.3133,0.5707 -16.16992,2.4238 -3.21033,3.2049 -3.56637,5.1413 -0.38477,8.3203 4.73311,4.7291 14.56675,5.6839 43.3418,6.5293 9.71528,-0.2629 13.42085,-2.4734 12.3418,53.543 0.009,16.1209 0.43909,26.2025 -1.8086,59.3711 -0.35867,5.2928 1.33038,1.618 -13.7832,-5.582 -16.29165,-8.7589 -17.14066,-9.7705 -16.67578,-19.8867 0.6565,-14.2096 -1.65882,-19.5306 -8.60938,-19.7911 -7.28881,-0.273 -10.71584,9.5467 -9.35937,26.8086 1.14444,14.5622 5.0411,25.8188 32.49219,35.4571 l 3.72851,1.3086 c 8.93783,3.1381 16.23189,6.5368 19.7461,6.6679 6.52422,0.2445 9.74886,-4.161 11.7539,-30.4062 1.62218,-21.2313 1.73112,-52.1754 2.50781,-77.8887 1.33985,-44.3784 -1.7436,-44.6941 -23.23437,-45.6094 -16.62423,-0.708 -28.03376,-1.206 -35.88672,-1.2656 z m 104.12305,1.3574 c -8.081,0 -16.46532,1.1303 -22.06446,4.9727 -11.94519,8.1969 -15.89366,31.2136 -15.66992,44.584 0.223,13.3705 8.23401,24.0535 23.61328,28.0176 15.37928,3.9641 18.33212,9.6323 17.4375,20.7246 -0.37417,13.4376 -5.86755,20.1173 -15.15234,24.2441 -9.7799,4.3469 -20.83188,8.9282 -24.70703,10.5137 -8.51112,3.4826 -9.31592,18.4546 0.24023,18.6562 9.55616,0.2015 42.45257,-12.201 49.50782,-20.7851 7.7983,-9.4877 7.42944,-21.2527 9.14648,-32.6075 1.71704,-11.3548 0.90442,-27.8038 -13.13086,-32.9101 -14.03527,-5.1063 -31.33052,-6.6184 -29.33984,-22.0078 1.41127,-10.9083 1.37146,-19.8285 12.3457,-23.6582 10.97461,-3.8297 25.1399,-2.4934 30.29102,-2.2246 5.15149,0.2687 9.3009,-10.8066 -0.70313,-15.5098 -3.88684,-0.5711 -12.65599,-2.0131 -21.81445,-2.0098 z" fill="#00B894" transform="translate(-91.270974,-12.213809) translate(1277.5014,296.65989) matrix(0.26458333,0,0,0.26458333,-1252.4483,-999.54419)"/>
</svg>