<?xml version="1.0" ?><svg height="59.58091mm" viewBox="0 0 57.487991 59.58091" width="57.487991mm" xmlns="http://www.w3.org/2000/svg">
    <path color="#000" d="m 1420.5918,325.41016 c -2.5588,1.82571 -6.335,4.67557 -8.0879,6.92187 -2.7172,3.482 -1.8164,4.99609 -1.8164,4.99609 l -3.4414,3.94727 -2.2891,0.70508 -2.5547,-7.64258 -3.5878,4.79883 -4.1641,-1.42188 c -1.1959,-2.16118 -2.7171,-4.18308 -3.9441,-5.34288 -4.4389,4.76296 -6.9309,14.03594 -7.009,19.59484 0.5443,20.81169 16.2999,26.79184 26.3554,29.07226 6.7635,1.2094 14.9154,1.02323 22.6387,-5.71484 7.485,-6.53012 8.6333,-18.63224 6.5606,-24.45508 -0.1739,-4.50218 -1.3953,-8.71766 -3.4102,-12.42383 l -6.1191,1.54102 -5.1602,-12.82031 c -1.2683,-0.68537 -2.5956,-1.27344 -3.9707,-1.75586 z" fill="#FFFFFF" overflow="visible" paint-order="fill markers stroke" transform="translate(-127.00301,-218.473) matrix(0.93613515,0,0,0.93613515,-1166.1746,-82.194848)"/>
    <path d="m 1423.9329,321.18059 c -1.4642,-0.0333 -4.3479,1.24176 -7.4301,3.6262 -4.5809,3.54386 -6.7979,8.01306 -6.8079,10.69591 0,1.52105 -2.7703,4.95507 -3.9902,4.95507 -0.2484,-2.74947 -0.2964,-6.74199 -2.6127,-8.83235 -1.2063,-1.00116 -1.6319,-0.91647 -2.6934,0.53516 -0.6932,0.94802 -1.9903,3.16874 -2.1106,3.55325 -0.4523,1.44582 -1.8106,0.0682 -3.593,-2.43488 -1.0639,-1.49422 -3.7738,-5.12836 -4.4617,-5.12836 -1.9014,0 -5.345,8.11589 -7.0554,13.28749 -1.9414,5.86945 -2.6478,17.74827 -0.2833,23.59214 6.5032,16.07279 24.3816,22.4552 39.6476,18.79079 14.3863,-4.42723 23.0693,-19.59843 19.4456,-32.77956 -0.8953,-3.25662 -3.0603,-7.96693 -3.5858,-10.37655 -0.9926,-4.55195 -5.4658,-10.66482 -7.5717,-5.42515 -0.4524,1.12573 -1.0388,1.64478 -2.2227,-2.02093 -0.8362,-2.58912 -1.0345,-6.28404 -1.3406,-8.19914 -0.3939,-2.46349 -1.8699,-3.80579 -3.3341,-3.83909 z m -2.3357,4.7889 c 0.7746,-0.29952 2.345,3.34285 4.3067,9.50782 2.425,7.62166 3.3624,9.50976 4.7246,9.50976 1.0956,0 1.6992,-0.64476 1.6992,-1.8125 0,-3.19743 1.3032,-1.91702 3.4727,3.41211 3.2904,7.60813 3.0551,11.2994 2.457,14.40039 -1.6606,8.60952 -8.1773,17.23973 -17.4648,18.53906 -13.8087,1.93183 -27.4777,-4.27283 -33.0098,-14.99609 -3.3792,-6.55012 -2.8944,-20.00339 0.9961,-27.64063 1.0966,-2.15264 2.6392,-2.10527 2.9551,0.0899 0.2479,1.72278 1.4365,2.38501 7.289,4.05859 3.8459,1.09978 7.4116,2.25763 7.9239,2.57422 1.87,1.15577 0.8431,2.34768 -2.2618,2.09961 -4.6378,-0.37054 -9.6601,3.1348 -11.2153,6.54811 -0.5273,1.15712 -0.8372,3.52964 -0.6809,4.83262 0.4566,3.80549 3.5565,5.79671 7.6145,5.66438 2.4861,-0.0811 1.4953,-1.74886 -1.7656,-3.11133 -2.3981,-1.00205 -2.5666,-2.42899 -2.5327,-4.10565 0.088,-4.36009 5.5567,-7.83594 9.0879,-7.83594 3.9224,0 3.2789,1.56746 -1.1641,2.83789 -5.8462,1.67163 -5.7774,2.00162 -4.3086,5.30273 2.6515,6.77458 10.557,12.21464 16.5342,10.43584 3.2953,-0.98067 7.5269,-4.19002 6.9474,-8.79786 l -0.6246,-4.96672 c 0.5196,-0.11828 1.2216,1.05288 1.873,1.86624 0.8094,1.05265 1.4804,3.08894 1.4903,4.52539 0.01,1.43646 0.3783,2.61133 0.8203,2.61133 0.478,0 2.483,-3.19016 2.483,-7.61966 0,-4.21213 -0.7876,-6.84039 -1.6339,-8.37998 -2.7261,-6.08649 -8.9582,-6.45458 -11.2709,-7.58728 -2.2717,-1.11257 -2.6145,-0.66947 -2.7702,-1.90396 -0.3969,-3.14754 5.4272,-9.05262 7.2638,-9.76277 z m -19.7447,9.90158 c 0.3248,0.0144 0.5924,0.78167 0.5924,1.36405 0,0.77651 -0.4081,1.41211 -0.9062,1.41211 -0.4981,0 -0.9063,-0.38289 -0.9063,-0.85157 0.2051,-0.72878 0.5218,-1.77282 1.2201,-1.92459 z m 9.9596,5.49295 c 2.7711,-0.0576 9.9679,1.764 12.2691,5.1586 0.3966,0.78823 0.6759,1.42186 0.8301,1.90039 0.5936,3.23606 0,1.93374 -1.9551,0.60937 -1.8551,-0.96215 -2.3694,-0.96853 -3.293,-0.0449 -0.8692,0.86927 -0.8977,1.46078 -0.1386,2.87891 1.097,2.0501 1.1444,6.10566 -0.7154,8.20679 -2.0463,2.31171 -3.9808,2.49728 -6.0761,2.36632 -4.8711,-0.30446 -7.6972,-3.82625 -9.0748,-7.99788 0,0 1.2029,-0.5788 4.4614,-1.66158 4.5276,-1.50444 9.5106,-6.00427 3.0869,-8.72459 -2.8308,-1.79996 -1.8464,-2.64048 0.6055,-2.69143 z" fill="#00B894" transform="translate(-127.00301,-218.473) matrix(0.93613515,0,0,0.93613515,-1166.1746,-82.194848)"/>
</svg>