<?xml version="1.0" ?><svg height="55.190159mm" viewBox="0 0 55.861267 55.190159" width="55.861267mm" xmlns="http://www.w3.org/2000/svg">
    <path color="#000" d="m 12699.532,-1005.2468 c -52.582,1.0881 -121.338,53.49227 -108.808,112.21161 11.46,53.70984 54.683,80.66948 111.207,80.67037 33.841,-0.002 59.964,-8.3179 79.027,-35.48527 -0.582,-9.38353 -10.491,-20.19987 -19.203,-16.60263 -11.677,4.82108 -38.635,28.08786 -61.36,4.09567 -22.725,-23.99254 -3.874,-48.13821 1.273,-53.33575 5.148,-5.19754 23.52,-10.62577 27.705,-3.13055 4.185,7.49521 -7.116,25.68978 2.342,30.24727 9.459,4.55714 31.641,3.16028 41.518,-8.32738 42.271,-65.51144 -35.413,-100.53547 -73.701,-110.34334 z" fill="#FFFFFF" overflow="visible" paint-order="fill markers stroke" transform="translate(264.8551,-38.844948) matrix(0.26458333,0,0,0.26458333,-3594.443,306.21622)"/>
    <path d="m 12590.633,-939.01098 c 15.166,-58.07446 79.167,-80.47942 133.736,-68.32702 55.87,14.86768 86.364,63.5847 63.239,107.89364 -8.604,16.28681 -27.745,25.84218 -45.129,28.6221 -20.002,3.19849 -29.214,-8.57551 -23.439,-23.76655 2.898,-13.5279 -7.762,-19.40024 -15.667,-12.31984 -16.353,14.73038 -12.967,34.24185 7.674,44.23464 14.269,6.90682 14.959,9.68887 42.012,-2.53367 31.639,-14.29447 45.557,13.21219 19.907,38.50076 -37.827,29.97852 -90.89,30.16767 -127.723,14.2178 -60.867,-26.35744 -69.528,-69.39739 -54.61,-126.52186 z m 15.584,62.82585 c 4.513,18.55829 26.17,41.17308 45.299,50.70485 1.304,0 -2.19,-10.20278 -3.929,-16.5014 -8.917,-32.29445 16.69,-70.32756 50.171,-78.73067 9.769,-2.45193 12.789,-3.48228 3.826,-11.94234 -11.604,-10.9534 -25.697,-13.68592 -41.376,-13.56456 -16.91,0.13091 -30.697,5.88465 -44.755,18.67789 -14.99,13.64168 -16.089,23.17699 -9.236,51.35623 z m 81.321,-81.72126 c 17.302,6.04917 48.888,28.96286 45.282,56.12735 -2.696,20.31676 5.73,17.90162 18.002,14.38222 12.059,-3.45854 20.589,-11.24777 25.8,-23.56053 16.238,-38.36344 -13.742,-75.19734 -68.84,-84.57838 -25.902,-4.4103 -48.541,1.10107 -66.858,16.27619 -11.413,9.45393 -29.712,32.01954 -29.712,36.63717 24.258,-21.17129 56.017,-22.38473 76.326,-15.28402 z m -15.496,134.23163 c 27.06,15.16415 68.029,3.44545 91.163,-15.66516 17.314,-14.63449 13.196,-22.04061 -10.17,-11.43749 -17.44,7.91307 -33.852,10.14993 -50.747,1.97149 -14.417,-6.97899 -20.148,-24.27944 -20.148,-40.27152 0,-8.01992 -0.195,-8.11156 -6.012,-2.84538 -18.924,19.97002 -24.396,50.84249 -4.086,68.24806 z" fill="#00B894" transform="translate(264.8551,-38.844948) matrix(0.26458333,0,0,0.26458333,-3594.443,306.21622)"/>
</svg>