<?xml version="1.0" ?><svg height="203.99911mm" viewBox="0 0 209.52133 203.99911" width="209.52133mm" xmlns="http://www.w3.org/2000/svg">
    <path d="m 28415.67,22506.477 c -10.494,0.315 -26.695,11.539 -39.428,27.185 -16.177,19.878 -25.508,52.635 -35.619,58.094 -10.11,5.46 -36.708,13.998 -63.773,53.474 -27.065,39.476 -32.354,93.79 -32.354,93.79 l 9.178,70.132 c 0,0 -30.553,63.004 -38.02,107.385 -10.098,60.013 23.36,107.496 23.36,107.496 l 212.047,-172.465 c 0,0 -9.332,-24.355 -4.666,-45.773 4.667,-21.418 9.953,-111.431 8.087,-127.809 -1.867,-16.379 -27.22,-57.394 -27.22,-57.394 0,0 2.49,-17.218 4.045,-36.676 1.556,-19.458 -26.131,-28.416 -26.131,-28.416 0,0 26.131,-39.056 17.576,-46.756 -1.604,-1.443 -3.674,-2.169 -6.084,-2.264 -0.326,-0.01 -0.66,-0.01 -0.998,0 z m 52.768,217.007 c 0,0 -11.299,59.627 -12.506,63.28 -1.206,3.652 10.53,0.789 32.798,13.228 3.94,2.201 9.165,5.986 15.141,10.967 l -323.898,267.896 c -8.305,-15.331 -23.387,-45.881 -25.362,-68.99 -2.742,-32.083 21.83,-92.399 36.418,-119.349 14.589,-26.95 54.297,-78.875 54.297,-78.875 l -8.226,-60.713 c 0,0 -41.683,18.658 -65.157,38.599 -23.473,19.941 -53.089,72.952 -68.007,105.43 -14.918,32.478 -33.786,136.526 -9.874,198.816 23.915,62.291 120.989,185.098 304.172,166.934 183.183,-18.164 231.119,-173.349 243.954,-231 12.832,-57.651 -1.537,-156.764 -51.227,-219.449 -49.69,-62.686 -122.523,-86.774 -122.523,-86.774 z m 90.298,147.221 c 12.788,17.919 23.325,37.039 27.729,54.756 12.614,50.741 -4.828,100.101 -17.772,125.965 -12.943,25.864 -67.788,79.171 -144.461,107.898 -76.674,28.727 -136.785,14.51 -173.97,4.836 -5.229,-1.36 -15.315,-5.116 -20.116,-8.361 z m -30.533,34.483 -231.094,201.13 62.084,58.61 c 0,0 85.785,-10.47 156.832,-67.5 71.048,-57.03 69.963,-124.879 69.963,-124.879 z" fill="#FFFFFF" transform="translate(-259.60838,-196.60167) matrix(0.26458333,0,0,0.26458333,-6266.7998,-5110.3317) translate(-3313.5291,-2437.8203)"/>
    <path d="m 24999.727,20825.753 c -47.886,-7.493 -104.483,-29.045 -146.576,-55.817 -38.874,-24.725 -64.569,-63.016 -84.805,-126.384 -10.66,-44.146 -14.64,-75.376 -7.814,-122.06 l 2.166,-13.563 -6.687,13.285 c -8.141,16.175 -15.059,21.231 -22.508,16.458 -5.667,-3.633 -5.868,-6.933 -2.307,-37.701 2.255,-16.497 5.895,-19.407 -10.293,-22.143 -7.946,-1.343 -15.953,-0.748 -21.647,1.613 -11.738,4.862 -16.907,0.547 -11.515,-9.614 2.073,-3.908 6.429,-8.99 9.679,-11.294 5.665,-4.018 5.508,-4.358 -3.838,-8.287 -5.359,-2.254 -12.346,-4.099 -15.521,-4.099 -3.178,0 -6.64,-2.245 -7.693,-4.99 -2.255,-5.882 8.857,-16.107 17.508,-16.107 9.509,0 6.428,-4.469 -7.869,-11.415 -14.477,-7.033 -17.187,-13.555 -7.732,-18.616 9.715,-5.2 19.583,-3.576 38.199,6.277 25.212,13.343 42.002,27.867 48.396,41.871 4.84,10.596 6.644,11.996 14.566,11.303 8.18,-0.714 10.329,-3.419 22.604,-28.462 23.11,-47.157 53.412,-79.18 98.183,-103.75 20.083,-11.021 22.303,-10.012 22.502,-13.325 0.883,-14.719 3.807,-21.765 0.916,-22.154 -13.975,-1.883 -16.341,-24.659 5.113,-23.765 0,0 4.991,-12.688 8.553,-21.806 8.321,-21.312 12.926,-28.149 36.605,-54.361 19.294,-21.359 39.364,-36.051 49.246,-36.051 2.808,0 5.694,-1.696 6.413,-3.77 12.115,-34.871 15.521,-40.903 32.956,-58.352 28.286,-28.309 51.978,-38.005 63.027,-25.795 7.862,8.683 6.241,24.751 -3.883,38.518 l -8.875,12.064 8.52,8.04 c 10.348,9.767 14.383,30.248 9.109,46.228 -3.227,9.778 -2.884,11.398 3.976,18.735 13.769,14.728 18.963,30.7 27.61,84.923 1.583,9.925 2.683,10.823 17.509,14.295 26.952,6.31 56.775,23.011 77.174,43.223 23.102,22.886 51.165,64.902 63.899,95.67 5.253,12.695 9.907,23.476 10.339,23.962 1.389,1.555 22.633,-9.45 22.633,-11.726 0,-1.205 6.916,-10.47 15.369,-20.588 20.019,-23.955 37.263,-34.133 58.357,-34.436 18.717,-0.271 26.439,4.609 25.128,15.88 -0.837,7.184 -2.32,7.931 -18.99,9.542 -9.945,0.963 -21.976,3.8 -26.736,6.304 -8.43,4.437 -7.926,4.606 19.356,6.544 31.232,2.217 39.95,6.734 38.415,19.904 -0.873,7.489 -1.447,7.674 -21.525,7.011 l -20.628,-0.679 10.834,11.991 c 11.393,12.612 12.83,17.68 7.712,27.241 -4.801,8.972 -16.55,7.103 -29.631,-4.717 -22.805,-20.601 -40.578,-17.31 -44.649,8.266 -2.26,14.197 -3.3,15.844 -10.028,15.844 -7.063,0 -7.498,-0.937 -7.377,-15.823 0.137,-16.126 -4.044,-18.054 -9.296,-10.972 0,0 2.166,8.814 4.457,23.623 6.883,44.501 3.856,96.327 -12.801,140.573 -28.653,76.122 -59.892,115.743 -131.511,150.673 -59.069,30.265 -129.589,41.726 -194.294,32.761 z m 115.693,-22.47 c 34.317,-7.694 44.265,-11.763 77.65,-31.758 52.813,-31.626 75.474,-56.879 103.28,-115.09 17.913,-37.497 27.101,-70.935 27.971,-101.79 0.681,-24.089 -4.465,-65.002 -8.066,-70.83 -12.719,3.132 -20.268,4.377 -33.487,5.212 6.096,79.731 -7.206,134.497 -72.548,185.955 -68.076,54.763 -158.322,81.326 -232.39,68.403 -39.759,-6.935 -60.72,-15.337 -63.23,-25.344 -1.728,-6.887 -0.02,-9.6 12.587,-20.128 8.022,-6.694 33.767,-29.122 57.212,-49.841 162.178,-143.331 253.377,-220.007 261.685,-220.007 2.56,0 8.499,7.121 13.198,15.822 l 8.542,15.823 c 8.594,1.336 33.226,-0.119 38.133,-3.979 3.887,-3.808 -15.029,-42.697 -32.729,-67.279 -24.292,-33.736 -46.834,-53.561 -83.083,-73.061 l -30.944,-16.643 -3.581,18.698 c -4.992,26.066 -5.186,25.33 7.245,27.663 19.057,3.575 40.038,17.828 40.038,27.202 0,2.358 -20.682,20.617 -45.963,40.577 -25.277,19.958 -59.657,47.473 -76.399,61.145 -16.74,13.672 -47.253,38.418 -67.805,54.993 -20.548,16.577 -46.18,38.125 -56.96,47.888 -10.777,9.762 -34.436,29.883 -52.578,44.714 -29.427,24.059 -33.973,26.774 -42.192,25.188 -19.784,-3.814 -28.801,-28.364 -28.801,-78.412 0,-30.889 4.139,-54.59 13.608,-77.903 2.027,-4.994 0.384,-5.233 -23.043,-3.387 -13.874,1.092 -26.242,2.901 -27.483,4.017 -4.507,4.048 -14.303,56.686 -16.031,86.117 -3.378,57.12 15.734,113.411 45.76,146.019 33.477,36.161 82.635,62.471 150.174,80.375 24.498,6.494 31.922,7.104 72.501,5.963 26.591,-0.747 54.482,-3.351 67.729,-6.322 z m -96.362,-84.04 c 0,-0.637 -9.781,-10.694 -21.742,-22.348 l -21.742,-21.191 -8.09,5.762 c -4.45,3.169 -14.671,11.726 -22.712,19.016 l -14.619,13.253 18.083,2.057 c 9.945,1.132 19.439,2.524 21.096,3.097 4.208,1.449 49.726,1.774 49.726,0.354 z m 74.658,-15.795 c 47.372,-15.427 86.633,-39.601 122.364,-75.344 33.222,-32.69 39.73,-52.978 41.786,-92.641 l -17.881,-16.78 c -9.832,-9.23 -20.094,-20.034 -22.804,-24.009 -5.958,-8.744 -5.396,-9.045 -47.725,25.688 -15.911,13.053 -62.311,50.18 -103.112,82.503 -40.802,32.323 -73.871,59.861 -73.489,61.196 0.384,1.336 14.236,13.174 30.781,26.309 33.772,26.81 30.045,26.116 70.08,13.078 z m -200.739,-91.99 c 13.513,-14.26 30.716,-15.925 13.448,-30.159 -16.037,-13.22 -21.509,-31.08 -21.326,-69.601 0.08,-17.821 -0.628,-32.4 -1.589,-32.4 -1.887,0 -15.526,31.296 -20.881,47.918 -6.498,20.171 -2.495,105.786 4.945,105.786 0.828,0 12.258,-9.695 25.403,-21.544 z m 58.015,-53.048 c 10.087,-9.529 34.497,-30.891 54.244,-47.467 19.749,-16.575 53.985,-45.564 76.082,-64.42 l 40.176,-34.283 -1.759,-15.445 c -1.181,-10.366 0.364,-25.354 4.693,-45.582 7.195,-33.632 8.258,-75.482 2.818,-110.906 -4.154,-27.057 -9.81,-41.006 -19.895,-49.062 -11.577,-8.608 -7.68,-6.726 -2.857,-20.878 2.739,-8.039 4.979,-18.392 4.979,-23.005 0,-8.538 -8.793,-19.236 -18.289,-22.249 -8.416,-2.673 -8.891,-12.589 -1.114,-23.272 3.932,-5.398 9.412,-12.91 12.177,-16.691 11.901,-16.268 -9.053,-7.999 -31.003,12.233 -15.813,14.574 -26.815,32.404 -29.686,48.111 -1.852,10.127 -3.334,11.603 -14.539,14.494 -6.864,1.771 -14.809,3.897 -17.657,4.721 -16.596,4.809 -55.372,63.023 -58.748,88.202 -1.32,9.844 -0.552,11.586 6.548,14.821 6.33,2.887 7.843,5.424 7.092,11.927 -0.732,6.37 -3.196,8.924 -10.745,11.147 -9.527,2.804 -9.794,3.337 -9.778,19.59 0.02,26.503 4.916,39.169 21.22,54.986 12.159,11.796 18.924,15.487 40.375,22.029 31.941,9.742 38.254,17.174 20.79,24.472 -7.993,3.339 -15.707,4.154 -26.166,2.766 -14.518,-1.925 -47.901,-16.578 -51.674,-22.682 -1.047,-1.696 -3.067,-3.083 -4.491,-3.083 -3.132,0 -19.514,49.29 -24.037,72.332 -4.291,21.866 -4.551,80.673 -0.404,91.168 1.802,4.557 4.598,11.678 6.213,15.823 1.618,4.143 3.875,7.533 5.019,7.533 1.142,0 10.331,-7.798 20.416,-17.33 z m 92.386,-238.376 c -9.552,-17.011 20.837,-43.686 33.031,-28.993 5.352,6.451 5.271,22.967 -1.901,28.866 -6.779,5.576 -26.612,6.752 -31.13,0.127 z m -33.269,-78.102 c -7.838,-7.841 -1.933,-23.187 7.804,-21.337 6.769,1.286 9.513,14.752 4.138,21.228 -4.384,5.282 -7.24,4.811 -11.942,0.109 z m 26.156,-2.606 c -3.421,-3.421 -4.696,-12.452 -0.16,-18.654 3.621,-4.951 7.097,-4.287 11.412,-0.704 6.955,5.774 5.496,20.59 -2.451,21.728 -3.385,0.483 -7.624,-1.193 -8.801,-2.37 z m -172.165,207.814 c 2.578,-0.987 10.1,-10.373 16.721,-20.857 6.621,-10.48 16.516,-21.825 21.993,-25.211 5.477,-3.384 13.495,-11.499 17.818,-18.029 7.319,-11.062 7.574,-12.559 3.703,-21.852 -5.99,-16.256 -6.195,-29.433 -7.341,-38.293 -3.924,0 -42.928,28.299 -55.12,40.917 -14.712,15.23 -45.482,61.092 -52.905,78.858 l -4.344,10.401 27.396,-2.068 c 15.069,-1.138 29.502,-2.879 32.079,-3.866 z m 303.102,-73.667 c -1.085,-1.017 -6.34,-3.304 -11.678,-5.086 -9.521,-3.176 -9.763,-3.024 -12.791,7.877 -6.064,21.829 -4.542,23.21 11.662,10.581 8.132,-6.338 13.895,-12.354 12.807,-13.372 z" fill="#00B894" transform="translate(-259.60838,-196.60167) matrix(0.26458333,0,0,0.26458333,-6266.7998,-5110.3317)"/>
</svg>