<?xml version="1.0" ?><svg height="64.683632mm" viewBox="0 0 63.986847 64.683632" width="63.986847mm" xmlns="http://www.w3.org/2000/svg">
    <path d="m -1020.0665,-409.05533 56.35843,0.0993 1.3649,57.50846 -57.13823,0.55791 z" fill="#FFFFFF" paint-order="markers stroke fill" transform="translate(-17.440124,-90.444763) translate(1040.8773,502.62676)"/>
    <path d="m -1023.0467,-348.79985 c -0.4929,-0.69454 -0.5157,-6.56648 -0.088,-22.62695 0.6123,-22.99527 0.316,-34.6743 1.3704,-37.2259 1.1071,-2.67757 5.2085,-3.28184 17.7444,-3.31317 21.97455,-0.055 35.3351,-1.024 40.19417,1.64378 2.26045,1.24112 3.43295,0.93864 3.48825,26.40751 0.0634,29.16971 2.07749,32.90202 -0.1819,34.18633 -0.5549,0.31546 -8.38564,0.87325 -18.03027,1.23956 -9.64453,0.36629 -18.7884,0.84937 -20.32309,0.81154 -9.52786,-0.23487 -22.37816,1.0813 -24.17396,-1.1227 z m 44.83311,-3.82978 c 0.22762,-0.21124 -1.52214,-4.6207 -3.88829,-9.79882 -2.36625,-5.1781 -5.13519,-11.876 -6.15341,-14.88421 -1.47081,-4.34473 -1.94859,-5.21961 -2.32359,-4.25451 -0.41798,1.07486 -5.43365,12.76676 -6.32265,14.73824 -0.23832,0.52818 0.26267,0.75974 1.64339,0.75974 2.71585,0 3.15222,1.28969 2.73279,8.07883 -0.1918,3.07802 -0.33947,5.79584 -0.33117,6.03961 0.0156,0.52747 14.04478,-0.12278 14.6438,-0.67888 z m -21.42912,-0.42634 2.31495,-0.30332 0.80848,-4.35922 c 0.44471,-2.39757 0.70352,-4.48069 0.57512,-4.62915 -0.1283,-0.14851 -1.6159,0.0641 -3.3055,0.47246 -5.25454,1.26984 -6.62624,-0.59193 -3.45194,-4.68548 0.9568,-1.23394 3.58869,-6.20939 5.84834,-11.05651 2.25999,-4.84711 4.5971,-9.31943 5.19351,-9.93849 1.03931,-1.07834 1.14517,-1.08076 2.52345,-0.0574 0.92225,0.68488 2.46151,3.59724 4.28888,8.11512 1.5676,3.87579 4.22241,9.91867 5.89945,13.42865 1.67693,3.50998 3.6275,7.78808 4.33462,9.50686 l 1.28561,3.12507 4.38675,-0.28808 c 2.69477,-0.17697 5.0704,-0.33392 5.27719,-0.39 0.2067,-0.0561 -0.77048,-2.29 -2.1717,-4.96427 -2.72655,-5.20356 -15.07244,-33.57765 -17.31979,-40.65999 -0.74538,-2.3492 -1.40908,-4.94383 -1.47486,-5.7658 -0.0974,-1.21208 -0.53598,-1.5756 -2.32268,-1.92355 -3.76054,-0.73227 -9.15933,-0.5829 -9.42148,0.2607 -0.12981,0.41786 -1.15316,3.08452 -2.27403,5.92594 -1.12074,2.8414 -3.56416,11.44495 -5.59486,17.60647 -2.0795,6.30931 -5.4034,14.81639 -7.5115,19.9978 -2.108,5.18139 -3.9886,9.88391 -4.179,10.44999 -0.3167,0.94078 0.2694,1.00374 6.815,0.73236 3.9386,-0.16333 8.2031,-0.43342 9.47599,-0.60028 z m -16.31249,-11.49375 c 1.222,-3.00855 3.4422,-8.75215 4.9337,-12.76358 3.0783,-8.27879 7.2199,-20.24046 8.5135,-23.65394 0.9519,-2.51166 2.3503,-6.78459 2.3503,-6.78459 -5.6732,-0.26077 -9.9757,-0.2818 -14.9539,-0.25202 -3.704,-0.01 -3.6361,0.0393 -3.6743,2.73083 -0.022,1.53004 0.019,9.47289 0.017,16.40939 0,6.93651 0.3016,15.91151 0.036,21.24334 -0.2802,5.63992 -0.266,9.45274 0.036,9.11683 1.1564,-2.22864 1.9642,-4.13987 2.7422,-6.04626 z m 50.86042,-31.90891 c -0.64626,-10.58869 0.13962,-10.42883 -3.14426,-10.79386 -7.70611,-0.85663 -13.35137,-0.65816 -13.68158,-0.12126 -0.19592,0.31853 1.64621,5.0421 4.09368,10.49682 2.44746,5.4547 7.23822,14.647 9.33485,19.78054 2.09632,5.13355 3.92245,9.21893 4.05781,9.07862 0.19616,-9.52779 -0.10594,-18.26711 -0.6605,-28.44086 z" fill="#00B894" transform="translate(-17.440124,-90.444763) translate(1040.8773,502.62676)"/>
</svg>