<?xml version="1.0" ?><svg height="73.213257mm" viewBox="0 0 70.516197 73.213257" width="70.516197mm" xmlns="http://www.w3.org/2000/svg">
    <path color="#000" d="m 10655.189,-928.65473 c 14.556,-47.7961 47.397,-113.99767 135.006,-110.43267 87.609,3.565 115.477,71.50757 103.178,135.34627 -12.298,63.8387 -59.523,143.75236 -150.863,121.40876 -91.34,-22.3435 -98.744,-98.40186 -87.321,-146.32236 z" fill="#FFFFFF" overflow="visible" paint-order="fill markers stroke" transform="translate(-132.46946,-0.66616613) matrix(0.26458333,0,0,0.26458333,-2683.0213,277.52642)"/>
    <path d="m 10790.034,-1046.3926 c -14.774,0.162 -31.231,2.6781 -49.629,7.9024 -101.295,25.7949 -135.348,171.02038 -53.1,241.32808 58.447,45.7828 147.371,32.4179 186.821,-25.7793 35.878,-49.9395 42.922,-94.6312 21.687,-151.2168 -21.705,-43.36148 -53.014,-72.81288 -105.779,-72.23438 z m -9.725,15.5098 c 38.611,0.1246 79.846,19.9636 97.051,57.65228 21.327,45.3152 5.149,102.0365 -30.451,150.3047 -14.974,15.0856 -40.661,35.3709 -71.653,36.0488 -22.837,0.7831 -27.949,-0.3299 -27.949,-6.0878 0,-3.7477 9.106,-40.5842 15.176,-61.3965 2.864,-9.1005 30.532,8.7473 53.815,-11.7949 27.199,-21.7733 41.639,-76.0161 27.541,-103.4551 -20.183,-36.47718 -64.93,-59.86838 -102.827,-18.5098 -14.161,15.0726 -24.521,47.8831 -19.187,60.7598 2.179,5.1671 9.94,13.4423 15.014,8.0156 1.92,-2.4842 3.49,-6.8136 3.49,-9.6211 0,-2.8088 1.747,-10.5159 3.883,-17.1309 4.474,-13.8532 13.011,-22.14 26.566,-25.789 18.598,-4.8976 38.961,11.6219 43.531,33.9473 2.333,28.1375 -12.259,54.4177 -28.422,51.1855 -11.054,-2.2115 -12.736,-5.3836 -10.574,-19.9316 3.524,-23.7134 2.768,-31.5913 -3.781,-39.375 -3.955,-4.6996 -8.15,-7.1504 -12.215,-7.1504 -9.905,0.0143 -15.442,16.0634 -15.725,45.5879 -0.775,29.8972 -11.673,77.8825 -19.902,111.2988 -2.369,2.714 -20.983,-10.3507 -32.828,-23.043 -29.289,-32.1502 -36.692,-70.962 -27.635,-110.9219 10.962,-37.0277 22.946,-58.9621 65.494,-86.45308 14.501,-9.5599 32.732,-14.2015 51.588,-14.1406 z" fill="#00B894" transform="translate(-132.46946,-0.66616613) matrix(0.26458333,0,0,0.26458333,-2683.0213,277.52642)"/>
</svg>