<?xml version="1.0" ?><svg height="85.158607mm" viewBox="0 0 57.867085 85.158607" width="57.867085mm" xmlns="http://www.w3.org/2000/svg">
    <path d="m -1113.786,-257.19291 52.5025,0.23937 -5.1553,44.3435 -21.3683,13.61083 -24.7502,-14.72795 z" fill="#FFFFFF" paint-order="markers stroke fill" transform="translate(-81.770222,-18.142533) translate(1198.9249,300.26993)"/>
    <path d="m 1745.9961,2610.8574 c -3.9307,-0.016 -7.5348,0.4654 -9.8984,1.5254 -18.7057,10.5859 -16.8737,25.5138 4.9531,40.6699 6.3243,4.3915 19.553,12.0554 -3.7735,13.3672 -9.5984,0.5398 -12.3478,8.0534 -5.83,14.0254 l 1.6836,1.541 c 7.2215,6.6173 30.5175,1.6744 37.2031,-9.4277 5.7664,-9.5729 1.5482,-17.5629 -15.4805,-29.332 -7.2227,-4.9933 -13.0928,-10.8321 -13.0058,-12.9746 0.1296,-3.9651 2.629,-4.0264 17.2793,-0.4141 8.0439,1.9829 11.2262,-5.2057 7.8847,-12.5508 -2.132,-3.9563 -12.368,-6.3948 -21.0156,-6.4297 z m -56.1328,1.1699 c -4.5987,0.033 -9.631,1.0663 -15.1035,2.9825 -20.4802,7.171 -18.0667,25.3455 4.7949,36.1093 22.1178,10.4137 23.4987,15.5443 0.5898,14.8106 -13.9494,-0.4468 -18.2826,9.6692 -7.1504,13.4141 l 2.4942,0.8378 c 9.3411,3.1425 29.4789,2.2358 36.2597,-0.875 7.3527,-3.3736 8.9917,-13.843 6.4239,-23.1113 -2.6786,-9.668 -23.3269,-17.0615 -30.8496,-18.9629 -4.5351,-1.1463 -13.2395,-7.9437 -2.9746,-10.7793 4.0441,-1.1172 9.9104,1.6697 14.6835,2.6504 8.583,1.7638 12.7684,-7.0176 6.4317,-11.9844 -4.4924,-3.5209 -9.6871,-5.1337 -15.5996,-5.0918 z m -65.7754,2.4981 c -1.3379,0 -2.6581,0.1239 -3.9277,0.3808 -10.5196,2.1285 -24.9013,17.1207 -27.6875,28.8614 -3.12,13.155 3.3446,27.8925 15.5332,35.4023 7.1191,4.3727 12.6349,5.6462 20.8203,4.7539 16.1091,-1.7566 26.424,-6.4256 26.6054,-12.0468 0.24,-7.3596 -3.8912,-8.5166 -18.8222,-5.2715 -19.7885,4.3007 -28.7451,-0.2943 -28.2852,-14.5039 0.4611,-14.1403 10.9622,-23.1272 25.0371,-21.4278 8.2738,0.9984 9.9813,0.2817 10.1211,-4.2676 0.1994,-6.0826 -10.0295,-11.8988 -19.3945,-11.8808 z m 108.1504,80.8848 c -20.735,-0.048 -43.248,0.3579 -62.9981,1.3027 -28.8979,1.383 -60.173,2.5247 -69.5039,2.5625 -14.8841,0.043 -16.9161,0.7305 -16.6289,5.6172 0.1818,3.0635 1.855,21.8805 3.7149,41.8164 1.8599,19.9351 4.3039,55.2207 5.4336,78.4101 1.1281,23.1896 2.9373,43.5795 4.0175,45.3125 2.6124,4.187 32.3166,24.0179 67.4942,45.0567 15.6786,9.3786 25.7899,14.4241 26.6777,15.1679 7.8524,6.5797 15.8584,-4.0458 27.8633,-11.6191 12.0057,-7.5725 31.3383,-19.6626 42.9648,-26.8672 11.6255,-7.2055 21.8976,-14.9474 22.8145,-17.2051 0.9222,-2.2572 4.7078,-37.7498 8.4141,-78.871 3.7073,-41.1206 7.6302,-79.3459 8.7187,-84.9434 1.0904,-5.5999 0.5759,-11.0338 -1.1445,-12.082 -3.66,-2.2332 -33.2795,-3.5782 -67.8379,-3.6582 z m 45.8262,17.4043 c 9.236,-0.1493 7.7116,0.4126 5.0527,15.121 -1.4929,8.2586 -5.8675,39.1775 -8.9766,68.8594 -5.9735,57.0291 -8.4463,71.866 -11.9844,71.8887 -1.195,0.01 -16.5821,9.9307 -34.039,22.2676 l -21.8067,15.4101 c -11.148,7.8586 -10.0467,8.1248 -21.6699,1.4981 -14.9771,-8.4696 -50.2575,-28.7417 -61.0136,-35.1485 -10.7808,-6.4212 -9.5148,-4.1298 -9.8965,-17.3632 -1.4722,-26.0328 -9.3368,-123.1567 -10.4922,-134.3965 -0.7246,-7.0467 7.9003,-5.4401 174.8262,-8.1367 z m -60.4004,18.9648 c -12.486,-0.063 -28.0055,0.4941 -46.3438,1.6836 -35.4157,2.2975 -46.1646,5.0967 -40.5644,10.5625 2.3085,2.2515 17.0545,3.4515 47.0371,3.8242 27.3777,0.3387 42.5914,1.4794 40.7734,3.0586 -1.5965,1.3855 -19.257,9.8765 -39.248,18.8672 -28.2116,12.6878 -36.612,17.7253 -37.5039,22.5078 -1.6895,9.0224 8.9181,11.7655 46.9843,13.0195 l 26.1426,0.8614 c 8.3728,0.059 6.5118,-0.6931 5.9668,7.9941 -1.8992,32.607 0.6391,32.369 -20.0859,45.2637 -13.4174,8.3479 -15.1875,9.265 -19.5782,5.4843 -6.7166,-5.785 -28.6443,-16.5315 -34.0332,-16.6816 -7.9547,-0.2211 -8.8154,5.7111 -1.8183,12.5254 3.7753,3.6759 14.1228,10.6315 22.9941,15.4551 v 0 c 8.8709,4.8235 17.1872,8.8439 18.4824,8.8847 4.7494,0.2328 25.1539,-10.2767 36.6504,-18.875 6.6501,-4.9737 12.2806,-11.8002 12.877,-15.6054 0.5801,-3.7204 2.7816,-14.072 4.8886,-23.0039 2.1075,-8.932 3.9645,-20.3227 4.127,-25.3145 0.3541,-10.8563 -1.9748,-11.6914 -38.2266,-13.6933 l -25.1992,-1.3868 24.1504,-12.2187 c 13.2824,-6.7199 30.3237,-16.9288 37.8692,-22.6875 12.0034,-9.1612 13.2322,-11.0454 9.8261,-15.0742 -2.9695,-3.5122 -15.3541,-5.3425 -36.164,-5.4473 z" fill="#00B894" transform="translate(-81.770222,-18.142533) translate(1198.9249,300.26993) matrix(0.26458333,0,0,0.26458333,-1536.012,-972.91664)"/>
</svg>