<?xml version="1.0" ?><svg height="55.294319mm" viewBox="0 0 57.779144 55.294319" width="57.779144mm" xmlns="http://www.w3.org/2000/svg">
    <path color="#000" d="m -37.297081,-177.99141 1.232884,-2.10954 c 0,0 -1.882002,-2.68506 -0.470501,-4.15463 1.4115,-1.46956 2.806394,-2.17196 4.693928,-1.56919 1.887538,0.60277 3.326712,2.37621 2.994594,4.09485 -0.332115,1.71864 -1.72942,2.83412 -3.51491,2.94908 -1.78549,0.11497 -2.396747,-0.23032 -2.396747,-0.23032 z" fill="#FFFFFF" overflow="visible" paint-order="fill markers stroke" transform="translate(-61.630077,-163.37593) matrix(6.4020867,0,0,6.4020867,300.95389,1357.2002)"/>
    <path d="m -37.297081,-177.99141 c -0.106599,-0.12038 -0.11133,-0.22346 -0.0237,-0.51583 0.200626,-0.37476 0.407519,-0.79694 0.639555,-1.10387 0.132781,-0.17404 0.241373,-0.36279 0.241373,-0.41954 0,-0.0567 -0.173903,-0.40472 -0.386478,-0.77344 -0.462374,-0.80191 -0.56279,-1.27414 -0.480548,-2.25903 0.432123,-2.3203 2.222194,-3.45934 4.149528,-3.40956 2.877183,0.0743 5.209503,2.15002 4.739785,4.91815 -0.520962,3.07041 -3.34499,3.6662 -5.729012,2.88866 l -0.611255,-0.34529 -0.52727,0.31285 c -0.633081,0.37568 -1.648036,0.86596 -1.782271,0.86095 -0.05311,-0.002 -0.156475,-0.0713 -0.229713,-0.15405 z m 1.560191,-1.15301 c 0.303698,-0.18994 0.552126,-0.38543 0.552126,-0.43441 0,-0.15432 0.347557,-0.0983 1.233671,0.19851 1.884138,0.58518 4.021641,0.45322 4.650822,-2.04123 0.604657,-2.45828 -1.607329,-4.41778 -3.953592,-4.37375 -1.380063,0.0259 -2.541161,0.86446 -3.109925,1.92764 -0.44312,0.8463 -0.424572,1.54663 0.0717,2.70831 0.20295,0.47515 0.404778,0.87836 0.448512,0.89604 0.140418,0.0568 0.08693,0.22005 -0.258344,0.78848 -0.496315,0.81698 -0.462206,0.84786 0.365027,0.33041 z m 2.415972,-1.3382 c -0.665403,-0.30978 -1.31529,-0.92314 -1.7326,-1.63522 -0.484739,-0.827 -0.481086,-1.34526 0.01291,-1.83922 0.533245,-0.53328 1.131264,-0.98967 1.516041,-0.42115 0,0 0.205564,0.29167 0.322994,0.5626 0.200583,0.46281 0.280708,0.59477 -0.267888,0.76859 -0.381834,0.12097 -0.448266,0.17659 -0.403991,0.33792 0.07008,0.2553 1.00819,1.10785 1.220518,1.10921 0.184526,10e-4 0.289381,-0.51083 0.461044,-0.76652 0.390919,-0.54875 1.410976,-0.11745 1.822353,0.41513 0.124027,0.17707 0.2271,0.50478 -0.153072,0.93068 -0.283241,0.31732 -0.675157,0.56228 -0.861135,0.64003 -0.508141,0.21231 -1.358196,0.16753 -1.937169,-0.10202 z m 1.542764,-0.48625 c 0.447434,-0.18698 0.787151,-0.60743 0.636941,-0.78843 -0.206062,-0.24824 -0.418804,-0.14102 -0.601504,0.30331 -0.138674,0.33715 -0.246188,0.45344 -0.482748,0.52192 -0.221039,0.0641 -0.248094,0.0906 -0.09888,0.0969 0.11299,0.005 0.358762,-0.0554 0.546192,-0.13369 z m -0.993003,-0.0208 c -0.576483,-0.20454 -1.337739,-0.91543 -1.641312,-1.53267 -0.286437,-0.58248 -0.256188,-0.67555 0.265564,-0.8171 0.252203,-0.0685 0.476398,-0.13902 0.498223,-0.1568 0.07299,-0.0595 -0.309216,-0.41965 -0.445402,-0.41965 -0.261248,0 -0.607976,0.49271 -0.607976,0.86408 0,0.73654 1.220351,2.10536 1.882645,2.11171 0.131538,0.001 0.146932,-0.0145 0.04826,-0.0496 z" fill="#00B894" transform="translate(-61.630077,-163.37593) matrix(6.4020867,0,0,6.4020867,300.95389,1357.2002)"/>
</svg>