<?xml version="1.0" ?><svg height="49.390594mm" viewBox="0 0 71.15152 49.390594" width="71.15152mm" xmlns="http://www.w3.org/2000/svg">
    <path d="m -1109.0737,-794.51227 -3.8338,6.58866 c 0,0 -14.5879,-8.26506 -15.5951,-12.22215 -1.0071,-3.95709 5.7074,-24.37608 8.2849,-27.89457 2.5775,-3.5185 17.0463,-4.98048 17.0463,-4.98048 l 0.6065,5.27287 16.1474,-1.13059 1.971,-4.06431 c 0,0 10.8299,2.59258 13.5591,4.14228 2.7291,1.5497 9.2054,29.09339 9.2054,29.09339 0,0 -14.9994,11.12079 -15.6601,11.26699 -0.6606,0.1462 -4.0829,-2.86548 -4.1262,-3.95709 -0.043,-1.09161 2.2418,-3.90835 2.2418,-3.90835 z" fill="#FFFFFF" paint-order="markers stroke fill" transform="translate(-5.0873495,-41.880542) translate(1135.8116,877.58483)"/>
    <path d="m -1118.9228,-787.82944 c -1.8454,-0.9641 -5.0722,-3.4137 -7.2646,-5.33879 -7.0238,-6.16753 -4.3353,-14.56107 -2.198,-20.94805 4.2412,-12.6187 8.0473,-17.97091 14.6934,-20.66229 3.0783,-1.2465 10.0925,-1.23044 11.1239,0.0256 0.412,0.50181 0.9397,1.86752 1.1725,3.03492 0.42,2.10502 0.4567,2.12259 4.5337,2.16797 7.0821,0.0723 9.014,-0.44524 9.4823,-2.5714 1.1124,-5.05005 12.8368,-3.90594 18.4727,1.80265 3.1285,3.16865 7.9371,22.18376 9.1892,28.47522 0.6321,3.17611 -0.8821,4.64702 -3.0042,6.76695 -4.4938,4.48824 -12.8692,9.00092 -15.969,8.60364 -2.2547,-0.28888 -5.271,-4.22158 -4.7526,-6.1968 0.2092,-0.7976 0.028,-1.12633 -0.5089,-0.92686 -2.5269,0.93711 -11.5785,1.73937 -16.6574,1.47636 -5.7418,-0.29735 -5.8483,-0.27412 -6.0395,1.30621 -0.256,2.1174 -3.0243,4.07109 -6.2921,4.44055 -1.9572,0.22105 -3.481,-0.1495 -5.9814,-1.45585 z m 46.3374,-5.49726 c 4.3964,-2.3975 7.4028,-5.01363 8.0324,-6.98951 0.5692,-1.78586 -0.611,-7.72658 -3.5217,-17.72652 -1.1873,-5.64253 -1.6103,-8.26246 -6.5586,-10.61119 -2.2144,-1.05106 -5.0648,-2.01912 -6.3342,-2.15109 -1.9868,-0.20643 -2.364,-0.007 -2.7114,1.43233 -0.6693,2.77427 -4.5224,4.32534 -12.4982,4.1562 -4.3917,-0.0931 -8.615,0.6208 -8.4522,-3.41881 0.1393,-3.45638 -0.9326,-2.85427 -4.2003,-2.26641 -1.9156,0.3446 -3.7542,0.93542 -5.8483,1.58211 -4.3992,1.35816 -4.7321,1.85587 -8.3763,12.52457 -3.1798,10.21572 -6.7471,16.37131 1.3655,21.74751 3.5524,2.35416 5.9739,3.50505 7.3815,3.5095 1.8956,0.005 1.9673,-0.0656 0.7527,-0.75309 -6.9449,-3.93067 -5.201,-7.51208 2.7143,-5.57419 8.2746,2.02572 19.1906,1.47611 31.0578,-1.56364 4.8356,-1.23853 6.1557,-0.9799 6.1557,1.2059 0,1.1027 -0.8516,2.03941 -3.0197,3.32085 -2.8318,1.67398 -3.6448,2.97449 -2.5514,4.08199 0.5969,0.6046 1.617,0.21796 6.6124,-2.50651 z m -35.8713,-9.70105 c -6.1546,-3.24238 -5.4318,-11.82656 1.0918,-12.96632 3.0647,-0.53537 7.3414,1.47469 8.6794,4.07954 3.0058,5.85147 -3.7938,12.03577 -9.7712,8.88678 z m 5.6536,-3.74264 c 1.2558,-1.23961 1.3103,-3.85755 0.1958,-4.98642 -1.2003,-1.21578 -4.5835,-1.83971 -5.9355,0.26802 -2.535,3.95182 3.131,7.29345 5.7397,4.7184 z m 16.3893,3.67401 c -3.7998,-1.89403 -4.646,-6.83024 -2.5684,-9.76954 1.2412,-1.75609 5.1519,-3.07545 7.2012,-2.42962 4.1158,1.29668 7.4254,5.65497 5.286,9.67449 -1.4149,2.6586 -6.1896,4.38353 -9.9188,2.52467 z m 6.6888,-5.54629 c -0.019,-2.65594 -1.4468,-3.53965 -3.4602,-3.71098 -3.3938,-0.28882 -4.6843,4.6005 -1.6935,6.13027 2.3,1.17627 5.1674,-0.12651 5.1537,-2.41929 z" fill="#00B894" transform="translate(-5.0873495,-41.880542) translate(1135.8116,877.58483)"/>
</svg>