<?xml version="1.0" ?><svg height="134.52943mm" viewBox="0 0 171.70486 134.52943" width="171.70486mm" xmlns="http://www.w3.org/2000/svg">
    <path d="m 45530.605,14338.285 -396.207,98.785 c 0,0 -18.074,-31.67 -37.226,-45.459 -19.152,-13.789 -55.782,-40.182 -120.061,1.723 -64.279,41.906 -48.597,97.707 -26.093,136.488 8.738,15.297 47.999,59.249 119.939,52.463 71.939,-6.787 73.734,-103.416 73.734,-103.416 0,0 352.038,6.572 381.844,4.633 29.805,-1.939 33.398,-42.553 31.602,-88.121 -1.795,-45.568 -27.532,-57.096 -27.532,-57.096 z m -482.027,284.131 c -1.741,-0.01 -3.461,0.08 -5.152,0.268 -27.053,3.016 -75.245,27.572 -88.697,61.941 -14.125,36.088 -28.848,93.398 -18.793,137.242 1.676,23.592 196.547,22.623 193.554,-0.322 -2.992,-22.946 -13.647,-101.371 -19.033,-140.26 -5.05,-36.458 -35.769,-58.715 -61.879,-58.869 z" fill="#FFFFFF" paint-order="markers stroke fill" transform="translate(571.62416,191.85378) matrix(0.26458333,0,0,0.26458333,-12457.31,-3983.5189)"/>
    <path d="m 45116.239,14815.571 c -2.514,-4.692 -6.773,-30.022 -9.468,-56.294 -2.695,-26.265 -4.26,-52.215 -6.728,-52.868 -8.795,-2.327 -38.111,-8.735 -49.945,-11.728 -23.342,-5.904 -35.674,-32.843 5.179,-31.407 10.059,0.344 37.924,3.264 37.924,3.264 -10.415,-43.73 -77.92,-37.204 -98.774,-16.57 -16.207,16.036 -43.68,42.34 -46.252,108.929 -2.113,54.723 -1.774,77.748 -17.299,58.669 -1.757,-2.159 -3.527,-29.061 -3.471,-60.2 -0.351,-78.983 36.851,-139.323 109.837,-146.649 42.866,-3.886 74.641,18.533 83.278,59.751 0,0 9.956,1.833 27.904,5.805 61.409,13.59 79.3,13.62 84.251,-8.404 29.439,-130.942 22.287,-149.31 9.298,-159.335 -8.2,-6.328 -16.551,-23.774 -16.551,-23.774 l -27.12,-0.452 c -38.568,-0.643 -31.38,2.781 -44.209,2.573 26.889,6.261 19.256,24.893 -2.198,24.83 -1.475,6.535 -4.325,14.88 -9.522,27.749 -25.227,62.47 -114.378,71.739 -163.989,36.109 -24.209,-17.383 -44.964,-50.929 -53.485,-79.985 -6.597,-22.493 -0.279,-61.055 13.762,-84.166 26.57,-43.689 94.896,-62.307 145.89,-39.752 22.479,9.946 54.48,40.155 54.522,51.465 0,4.108 2.87,5.219 8.165,3.173 4.483,-1.728 23.335,-5.568 41.894,-8.528 18.56,-2.964 33.746,-6.909 33.746,-8.773 0,-4.133 19.951,-9.991 83.785,-24.602 26.881,-6.151 57.585,-14.389 68.229,-18.306 10.644,-3.918 32.323,-9.21 48.176,-11.762 15.853,-2.555 31.231,-6.577 34.173,-8.937 6.63,-5.32 50.02,-14.693 68.009,-14.693 28.609,0 51.677,55.549 44.751,107.757 -4.044,30.48 -8.884,39.442 -27.407,50.735 -18.255,11.129 -74.974,12.589 -88.585,2.275 -6.584,-4.987 -21.508,-6.08 -63.98,-4.681 l -55.396,1.823 -16.08,16.08 c -8.845,8.842 -19.891,17.291 -24.548,18.767 -7.065,2.244 -10.142,14.44 -18.586,73.699 -5.568,39.058 -12.48,79.034 -15.361,88.84 -7.674,26.11 -19.255,35.091 -77.492,30.842 -20.345,-1.485 -35.785,-4.324 -53.259,-6.594 0.03,4.091 2.614,37.177 5.025,60.08 3.055,29.064 2.859,43.478 -0.653,47.713 -6.912,8.325 -12.053,7.6 -17.44,-2.468 z m -39.831,-246.207 c 46.465,-16.031 50.204,-58.006 50.204,-58.006 -12.313,-2.764 -12.716,-18.641 4.408,-22.882 -23.511,-7.047 -23.326,-33.623 -12.81,-49.391 6.613,-9.44 6.019,-11.06 -9.634,-26.263 -24.016,-23.324 -40.27,-31.145 -70.728,-30.908 -85.754,0.673 -126.171,99.654 -61.523,160.052 25.399,26.047 61.253,40.795 100.083,27.398 z m -10.311,-91.501 c 1.892,-4.933 0.398,-7.519 -4.34,-7.519 -13.716,0 -3.362,-11.64 11.671,-13.117 23.805,-2.337 38.566,14.23 17.955,20.155 -28.62,8.227 -28.257,8.221 -25.286,0.481 z m 447.043,-115.742 c 3.757,-12.033 3.148,-12.796 -10.172,-12.796 -25.209,0 -37.086,7.434 -42.392,26.541 -6.965,25.07 -6.124,64.068 1.783,82.992 6.212,14.872 8.32,16.142 26.762,16.147 h 20.021 c -2.782,-34.11 -6.939,-76.335 3.998,-112.884 z m -290.331,95.424 c -5.525,-20.155 -5.928,-26.064 -26.187,-22.545 -53.503,9.297 -66.838,13.629 -66.838,21.731 0,11.347 5.85,12.827 52.365,13.246 19.914,-2.217 45.822,6.399 40.66,-12.432 z m 321.736,-21.836 c 0.678,-25.956 -0.279,-43.583 -3.515,-65.184 -2.546,-16.96 -3.246,-17.692 -9.174,-9.583 -6.84,9.352 -8.665,60.283 -3.321,92.638 2.737,16.578 3.535,17.406 9.258,9.584 3.442,-4.712 6.483,-17.066 6.752,-27.455 z m -186.794,18.042 c -2.5,-6.567 -4.542,-23.324 -4.542,-37.238 0,-13.913 -1.572,-25.319 -3.492,-25.339 -13.82,-0.174 -109.348,25.494 -111.006,29.817 -1.146,2.988 0.865,13.741 4.472,23.899 l 6.556,18.472 3.414,-13.965 c 4.838,-19.769 15.222,-34.91 23.945,-34.91 5.914,0 6.846,3.129 4.499,15.13 l -2.959,15.127 9.29,-15.127 c 11.561,-18.831 20.473,-19.783 17.852,-1.906 -1.936,13.186 -1.905,13.202 10.808,5.907 15.439,-8.86 19.76,-5.739 13.79,9.964 -3.934,10.35 -3.39,11.482 4.525,9.411 6.154,-1.609 9,0.03 9,5.174 0,4.388 3.828,7.524 9.19,7.524 7.951,0 8.578,-1.621 4.658,-11.94 z m 83.775,-72.18 c 2.779,-10.361 5.362,-9.126 -21.415,-6.081 -42.507,4.835 -48.281,8.112 -48.281,27.397 0,16.589 9.696,45.069 19.267,56.603 3.198,3.854 13.595,5.785 27.83,5.163 l 22.724,-0.988 c -2.56,-26.659 -5.339,-49.929 -0.125,-82.094 z" fill="#00B894" transform="translate(571.62416,191.85378) matrix(0.26458333,0,0,0.26458333,-12457.31,-3983.5189)"/>
</svg>