<?xml version="1.0" ?><svg height="136.29646mm" viewBox="0 0 173.50172 136.29646" width="173.50172mm" xmlns="http://www.w3.org/2000/svg">
    <path d="m 47946.139,14338.902 -396.207,98.785 c 0,0 -18.074,-31.67 -37.226,-45.459 -19.152,-13.789 -55.782,-40.182 -120.061,1.723 -64.279,41.906 -48.597,97.707 -26.093,136.488 8.738,15.297 47.999,59.249 119.939,52.463 71.939,-6.787 73.734,-103.416 73.734,-103.416 0,0 352.038,6.572 381.844,4.633 29.805,-1.939 33.398,-42.553 31.602,-88.121 -1.795,-45.568 -27.532,-57.096 -27.532,-57.096 z m -482.027,284.131 c -1.741,-0.01 -3.461,0.08 -5.152,0.268 -27.053,3.016 -75.245,27.572 -88.697,61.941 -14.125,36.088 -28.848,93.398 -18.793,137.242 1.676,23.592 196.547,22.623 193.554,-0.322 -2.992,-22.946 -13.647,-101.371 -19.033,-140.26 -5.05,-36.458 -35.769,-58.715 -61.879,-58.869 z" fill="#FFFFFF" paint-order="markers stroke fill" transform="translate(119.47046,152.46606) matrix(0.26458333,0,0,0.26458333,-12642.574,-3942.5274)"/>
    <path d="m 47362.135,14367.19 c -47.79,45.939 -35.203,147.289 6.138,184.171 7.831,10.384 16.662,19.574 26.039,26.307 33.494,24.055 74.855,30.766 112.28,17.723 16.467,8.334 28.022,-4.582 25.275,-19.383 18.535,7.338 16.318,-13.115 14.028,-22.346 6.69,20.84 27.532,-8.915 13.501,-24.566 0,0 3.705,-7.436 4.856,-15.203 21.454,0.06 32.657,-18.652 5.769,-24.913 12.828,0.208 5.641,-3.217 44.208,-2.574 l 27.123,0.453 c 0,0 8.348,17.446 16.548,23.774 12.989,10.025 20.142,28.394 -9.296,159.336 -4.951,22.024 -22.843,21.992 -84.25,8.402 -17.948,-3.972 -27.907,-5.805 -27.907,-5.805 -8.637,-41.218 -40.409,-63.636 -83.275,-59.75 -72.986,7.326 -110.191,67.666 -109.84,146.649 -0.06,31.139 1.716,58.04 3.473,60.199 15.525,19.079 15.186,-3.945 17.299,-58.668 2.572,-66.589 30.044,-92.894 46.25,-108.93 20.853,-20.634 88.362,-27.159 98.777,16.571 0,0 -27.869,-2.92 -37.928,-3.264 -40.853,-1.436 -28.52,25.502 -5.178,31.406 11.834,2.993 41.153,9.402 49.948,11.729 2.468,0.653 4.029,26.602 6.724,52.867 2.695,26.272 6.957,51.603 9.471,56.295 5.387,10.068 10.525,10.794 17.437,2.469 3.512,-4.235 3.712,-18.649 0.657,-47.713 -2.411,-22.903 -4.998,-55.989 -5.028,-60.08 17.474,2.27 32.913,5.108 53.258,6.593 58.237,4.249 69.818,-4.731 77.492,-30.841 2.881,-9.806 9.796,-49.784 15.364,-88.842 8.444,-59.259 11.521,-71.453 18.586,-73.697 4.657,-1.476 15.701,-9.926 24.546,-18.768 l 16.082,-16.08 55.393,-1.822 c 42.472,-1.399 57.399,-0.308 63.983,4.679 13.61,10.314 70.329,8.854 88.583,-2.275 18.523,-11.293 23.365,-20.254 27.409,-50.734 6.926,-52.208 -16.141,-107.756 -44.75,-107.756 -17.989,0 -61.38,9.371 -68.01,14.691 -2.942,2.36 -18.323,6.383 -34.176,8.938 -15.853,2.552 -37.532,7.843 -48.176,11.761 -10.644,3.917 -41.345,12.156 -68.226,18.307 -63.834,14.611 -83.785,20.469 -83.785,24.602 0,1.864 -15.186,5.809 -33.746,8.773 -18.559,2.96 -37.414,6.799 -41.897,8.527 -5.295,2.046 -8.162,0.936 -8.162,-3.172 -1.011,-11.512 -6.745,-22.627 -9.378,-31.065 15.21,-31.628 -7.703,-46.282 -34.59,-37.545 22.856,-19.616 -18.875,-34.894 -45.796,-13.361 14.706,-43.245 -77.251,-0.918 -103.103,23.931 z m 556.76,-15.762 c 13.32,0 13.928,0.764 10.171,12.797 -10.937,36.549 -6.78,78.772 -3.998,112.882 h -20.017 c -18.442,0 -20.554,-1.274 -26.766,-16.146 -7.907,-18.924 -8.744,-57.922 -1.779,-82.992 5.306,-19.107 17.181,-26.541 42.389,-26.541 z m 33.724,6.613 c 1.876,-0.274 2.747,3.986 4.338,14.586 3.236,21.601 4.196,39.23 3.518,65.185 -0.269,10.389 -3.31,22.744 -6.752,27.456 -5.723,7.822 -6.521,6.994 -9.258,-9.584 -5.344,-32.355 -3.522,-83.287 3.318,-92.639 2.223,-3.041 3.71,-4.839 4.836,-5.004 z m -97.305,17.406 c 5.537,-0.195 3.876,1.751 2.139,8.227 -5.214,32.165 -2.435,55.435 0.125,82.094 l -22.724,0.988 c -14.235,0.622 -24.633,-1.31 -27.831,-5.164 -9.571,-11.534 -19.263,-40.014 -19.263,-56.602 0,-19.285 5.77,-22.563 48.277,-27.398 10.041,-1.142 15.956,-2.029 19.277,-2.145 z m -89.669,17.83 c 1.92,0.02 3.494,11.426 3.494,25.338 0,13.914 2.041,30.672 4.541,37.239 3.92,10.319 3.291,11.939 -4.659,11.939 -5.362,0 -9.191,-3.135 -9.191,-7.523 0,-5.144 -2.846,-6.783 -9,-5.174 -7.915,2.071 -8.457,0.94 -4.523,-9.41 5.97,-15.703 1.65,-18.825 -13.789,-9.965 -12.713,7.295 -12.747,7.279 -10.811,-5.907 2.621,-17.877 -6.291,-16.924 -17.852,1.907 l -9.291,15.127 2.959,-15.127 c 2.347,-12.001 1.416,-15.131 -4.498,-15.131 -8.723,0 -19.107,15.141 -23.945,34.91 l -3.412,13.965 -6.559,-18.473 c -3.607,-10.158 -5.614,-20.91 -4.468,-23.898 1.658,-4.323 97.185,-29.991 111.004,-29.817 z m -232.169,19.824 c 7.909,17.422 5.141,16.801 4.215,21.745 h 0.01 c -0.581,1.828 -1.779,3.796 -3.562,6.342 -12.621,11.503 -13.393,43.008 11.965,48.636 -5.806,30.63 -14.452,40.258 -29.366,45.539 -6.106,-5.13 -18.986,0.697 -17.679,8.397 -11.368,-7.785 -19.991,3.359 -19.43,12.244 0,0 -14.397,-12.339 -20.035,1.889 -3.394,8.846 -10.007,10.45 -13.787,2.836 -1.827,-3.679 -9.435,-9.828 -16.467,-1.981 -7.801,8.705 -16.639,-0.09 -34.904,-17.346 -18.158,-14.997 -17.777,-25.242 -11.163,-37.781 7.445,-14.114 20.076,-22.8 24.646,-40.324 10.152,-38.928 46.281,-46.247 66.388,-51.985 19.628,-5.602 50.007,-18.393 59.169,1.789 z m 85.79,23.133 c 13.724,-0.951 14.636,5.778 19.47,23.414 5.162,18.831 -20.746,10.215 -40.66,12.432 -46.515,-0.419 -52.363,-1.899 -52.363,-13.246 0,-8.102 13.335,-12.433 66.838,-21.73 2.532,-0.44 4.754,-0.735 6.715,-0.87 z m -121.457,23.047 c -2.642,-0.241 -5.478,-0.243 -8.454,0.05 -15.033,1.477 -25.385,13.117 -11.669,13.117 4.738,0 6.229,2.585 4.337,7.518 -2.971,7.74 -3.33,7.746 25.289,-0.481 18.034,-5.185 8.988,-18.517 -9.503,-20.203 z" fill="#00B894" transform="translate(119.47046,152.46606) matrix(0.26458333,0,0,0.26458333,-12642.574,-3942.5274)"/>
</svg>