<?xml version="1.0" ?><svg height="171.85144mm" viewBox="0 0 206.0768 171.85144" width="206.0768mm" xmlns="http://www.w3.org/2000/svg">
    <path d="m 8587.5701,17293.149 73.6773,-38.508 c 0,0 -4.9118,70.531 -2.5105,90.374 2.4014,19.843 133.8198,4.126 166.347,-9.037 32.5271,-13.163 58.6144,-40.177 58.6144,-40.177 l 10.0419,-150.198 80.7721,-53.929 -35.5834,-47.741 -32.418,-76.523 c 0,0 -36.8932,-72.299 -49.009,-85.659 -12.1158,-13.36 -55.741,-65.013 -55.741,-65.013 0,0 -29.4709,-97.053 -84.5924,-101.474 -55.1215,-4.42 -86.2297,29.077 -86.2297,29.077 l -77.716,14.342 -90.9232,16.012 -96.1625,83.498 -120.7216,36.64 c 0,0 150.0834,143.321 171.6954,159.923 21.612,16.601 62.9804,61.199 92.6696,109.627 29.6893,48.429 77.7896,128.766 77.7896,128.766 z" fill="#FFFFFF" transform="translate(-6.013104,-49.562417) matrix(0.26458333,0,0,0.26458333,-2172.5058,-4370.2766)"/>
    <path d="m 8650.4258,17339.917 c -1.7541,-4.613 -3.1893,-21.569 -3.1893,-37.676 v -29.286 l -12.9195,6.592 c -25.7921,13.158 -46.2093,19.763 -54.5918,17.659 -5.7877,-1.452 -10.1419,-6.37 -14.3623,-16.215 -4.8929,-11.415 -35.9293,-59.569 -45.8531,-71.14 -1.2918,-1.509 -8.4858,1.704 -15.9867,7.139 -24.4501,17.712 -44.1035,16.472 -54.5881,-3.443 -4.3222,-8.21 -5.7641,-19.57 -6.0667,-47.799 l -0.3973,-37.028 -17.5992,-9.624 c -23.4999,-12.852 -27.9737,-17.306 -38.0436,-37.89 -6.6935,-13.68 -8.1241,-20.32 -6.5289,-30.295 1.9832,-12.403 1.4925,-13.239 -16.7593,-28.561 -32.8178,-27.549 -104.3616,-96.899 -118.2573,-114.63 -7.1289,-10.741 -18.3087,-13.939 -6.0219,-21.807 4.0531,-2.595 25.0283,-10.112 46.6123,-16.703 77.8806,-23.786 72.3672,-20.965 106.3814,-54.395 37.1845,-36.546 56.7637,-48.029 89.1738,-52.299 12.9537,-1.707 33.8533,-5.173 46.4437,-7.7 47.4324,-9.518 48.0544,-9.533 46.8543,-1.157 -0.775,5.411 -4.9353,8.898 -15.0713,12.634 l -14.0005,5.158 -1.3261,42.338 c -0.7295,23.289 -0.5259,47.671 0.4525,54.183 2.0836,13.872 40.3831,64.087 83.9052,110.01 l 27.7382,29.271 16.6379,-18.903 c 14.1993,-16.131 20.4606,-20.374 42.7192,-28.959 14.3449,-5.533 29.7213,-10.058 34.1698,-10.058 10.7285,0 12.4001,-3.556 5.7656,-12.263 -5.3823,-7.067 -5.7462,-7.097 -23.4534,-1.858 -15.2002,4.499 -21.4271,4.734 -40.194,1.534 -19.8119,-3.381 -42.4648,-12.711 -58.6126,-24.14 -4.679,-3.313 -7.1375,-2.499 -14.895,4.934 -17.729,16.986 -27.7274,8.325 -11.9863,-10.382 l 8.3929,-9.974 -9.5464,-13.986 c -12.2439,-17.938 -23.5907,-48.528 -23.5907,-63.601 0,-6.47 1.6582,-17.296 3.6847,-24.061 4.7601,-15.888 36.4428,-57.01 54.5798,-70.841 28.1574,-21.473 68.9265,-26.013 98.4263,-10.963 26.5865,13.563 56.7022,51.151 68.9877,86.106 8.6724,24.675 32.093,57.519 41.1817,57.752 10.642,0.272 28.4871,13.806 34.8162,26.403 3.203,6.375 5.4187,18.714 5.7229,28.044 0.6513,19.972 29.9419,45.094 49.14,63.324 70.1561,66.619 81.3997,81.9 70.8578,96.3 -4.6493,6.352 -18.2773,7.836 -31.9838,3.487 -6.5963,-2.094 -6.6395,-1.898 -1.3584,6.162 6.872,10.487 4.3376,18.722 -8.0072,26.016 -5.3114,3.137 -20.3974,13.867 -33.5244,23.844 -13.1269,9.978 -25.6121,19.139 -27.7449,20.36 -2.6212,1.499 -4.9972,24.949 -7.3331,72.375 -2.7159,55.139 -4.524,71.226 -8.4473,75.147 -7.2664,7.267 -15.5232,0.808 -18.9478,-14.821 -1.6377,-7.476 -1.2399,-41.956 0.9589,-83.088 4.1932,-78.442 1.2012,-112.845 -13.9687,-160.616 -16.8996,-53.211 -40.2233,-71.587 -90.6421,-71.411 -22.489,0.08 -32.169,1.823 -50.6891,9.127 -21.169,8.349 -22.8198,9.698 -21.9361,17.946 0.6223,5.811 -2.4809,13.735 -8.8996,22.727 l -9.8552,13.808 -2.1687,153.703 c -1.3095,92.813 -3.4487,155.322 -5.3996,157.789 -5.4918,6.949 -15.448,4.68 -18.8619,-4.299 z m -51.3695,-61.612 c 5.3518,-4.059 4.6648,-5.624 -9.2962,-21.152 -17.4988,-19.462 -28.4514,-23.205 -16.539,-5.65 4.1492,6.114 9.4341,15.679 11.7442,21.256 4.695,11.334 5.8593,11.794 14.091,5.546 z m 16.5081,-19.187 c -12.7486,-14.565 -31.82,-30.505 -44.734,-37.389 -19.7071,-10.505 -23.7366,-9.705 -15.6271,3.102 5.3818,8.502 8.5625,10.418 16.0017,9.638 7.5504,-0.793 12.5791,2.384 26.9181,17.001 9.6984,9.889 18.9257,17.179 20.5052,16.203 1.5798,-0.976 0.2012,-4.825 -3.0639,-8.555 z m 31.0538,-16.463 c 0.7869,-6.529 -1.1275,-9.543 -8.4667,-13.34 -10.501,-5.431 -40.3443,-36.537 -53.0498,-55.298 -4.4967,-6.64 -9.1284,-12.082 -10.293,-12.095 -1.1643,0 -9.5998,6.233 -18.7452,13.875 -23.9242,19.999 -22.566,27.925 6.2104,36.232 20.5716,5.938 42.2124,19.344 58.6084,36.305 10.1915,10.541 11.8897,11.22 17.9867,7.198 3.7028,-2.443 7.19,-8.239 7.7492,-12.877 z m 0.6043,-24.343 c 0,-1.348 -5.5913,-9.811 -12.4079,-18.805 -6.8165,-8.993 -18.6277,-25.532 -26.2468,-36.756 -12.5526,-18.491 -14.4576,-20.028 -20.2948,-16.382 -9.3884,5.862 -8.1829,9.834 9.3819,30.895 25.1675,30.178 49.6214,50.427 49.5676,41.048 z m -158.3105,-24.264 c 7.9381,-5.7 14.4324,-12.69 14.4314,-15.533 0,-5.752 -19.6387,-38.615 -33.4823,-56.034 -8.7176,-10.968 -8.9555,-11.052 -8.9087,-3.096 0.081,13.687 6.2431,72.779 8.2492,79.1 2.4637,7.763 2.8422,7.677 19.7104,-4.437 z m 161.2715,-65.097 c 0.2923,-22.405 -0.4577,-25.511 -7.8396,-32.444 -4.4894,-4.219 -8.5923,-7.05 -9.1176,-6.294 -0.5252,0.757 -7.327,9.83 -15.115,20.166 -16.1998,21.495 -17.3563,16.085 12.4143,58.061 l 15.0757,21.256 2.1294,-17.985 c 1.171,-9.894 2.2747,-29.135 2.4528,-42.76 z m -101.7648,15.798 14.0061,-14.383 -16.3908,-25.108 c -21.8687,-33.499 -28.4113,-46.827 -35.2788,-71.869 -5.1029,-18.608 -9.3519,-25.092 -36.5059,-55.708 l -30.7313,-34.652 -8.8184,13.907 c -10.978,17.309 -33.4533,36.832 -47.8881,41.595 l -10.9339,3.611 10.2,8.581 10.2003,8.583 5.8214,-7.189 c 8.1378,-10.049 13.9389,-9.014 25.915,4.625 10.5214,12.99 13.9608,7.996 3.626,18.997 l -6.7473,7.181 11.38,11.03 c 6.2587,6.068 11.9716,10.394 12.6949,9.62 0.7233,-0.778 3.3641,-8.772 5.8683,-17.766 3.4529,-12.398 6.2403,-16.595 11.534,-17.357 9.7512,-1.408 11.5674,6.967 7.5904,35.007 l -3.3423,23.568 16.2312,20.058 c 8.9273,11.035 20.7941,28.621 26.3711,39.087 11.6414,21.841 12.5882,21.802 35.1981,-1.418 z m -30.2628,-20.829 c -2.7499,-2.752 -5.0001,-6.661 -5.0001,-8.692 0,-2.61 1.1482,-2.541 3.9244,0.221 5.4474,5.447 9.3293,4.91 7.0691,-0.981 -1.0352,-2.698 -4.1127,-4.905 -6.8383,-4.905 -4.1755,0 -4.2712,-0.824 -0.6061,-5.239 3.9385,-4.747 4.9039,-4.558 10.211,1.996 3.2238,3.981 5.8615,9.862 5.8615,13.065 0,7.979 -8.5288,10.615 -14.6215,4.523 z m 397.242,4.852 c 0,-1.165 -2.8945,-5.595 -6.4317,-9.84 l -6.4317,-7.722 -0.1079,13.927 c -0.103,13.117 0.271,13.689 6.4316,9.843 3.5972,-2.247 6.5404,-5.041 6.5404,-6.208 z m -364.4448,-53.354 c -13.5777,-20.56 -26.1999,-38.318 -28.05,-39.463 -7.093,-4.383 9.7774,31.59 27.7317,59.134 15.512,23.799 19.3296,27.855 21.8961,23.268 2.4189,-4.321 -2.3692,-13.85 -21.5778,-42.939 z m 388.2688,35.148 12.7297,-8.823 -17.2735,-7.623 c -9.5004,-4.194 -22.3747,-11.515 -28.6093,-16.271 l -11.3358,-8.645 2.1193,10.597 c 1.895,9.475 23.0082,39.584 27.757,39.584 1.0355,0 7.6114,-3.968 14.6126,-8.819 z m -329.4878,-40.776 c 1.139,-3.456 -5.4538,-15.092 -18.0145,-31.795 -10.8961,-14.488 -22.7554,-31.333 -26.3543,-37.433 -9.2164,-15.621 -22.4657,-62.016 -24.9026,-87.203 -2.1233,-21.944 -5.8658,-31.721 -17.5278,-45.782 l -6.7799,-8.177 1.9656,42.514 c 1.0811,23.382 0.4625,53.551 -1.3743,67.04 -3.3172,24.363 -3.2743,24.615 6.3754,37.607 9.838,13.248 46.0709,67.175 57.0023,84.841 l 5.9551,9.625 10.9295,-12.894 c 6.011,-7.093 11.7376,-15.346 12.7255,-18.343 z m 352.6678,19.346 c -9.1942,-15.43 -17.1849,-22.51 -30.3929,-26.938 -8.2369,-2.761 -21.4412,-8.717 -29.3433,-13.234 -7.9018,-4.521 -14.8255,-7.758 -15.3862,-7.196 -0.5605,0.558 2.626,7.129 7.0809,14.6 6.2931,10.554 13.2892,16.181 31.3595,25.222 23.5529,11.782 41.3928,15.451 36.682,7.546 z m -308.951,-18.493 c 0.2452,-3.441 -1.3164,-3.108 -6.2144,1.325 -7.4245,6.72 -8.4924,13.501 -2.4526,15.574 3.8509,1.322 7.94,-6.65 8.667,-16.899 z m -19.6882,-31.238 c 7.4106,-9.815 13.4738,-18.824 13.4738,-20.021 0,-1.197 -8.4617,-11.243 -18.804,-22.322 -19.6782,-21.08 -62.6738,-71.805 -75.1123,-88.613 -4.73,-6.394 -7.2907,-8.011 -7.3581,-4.648 -0.1643,8.155 19.1175,74.505 24.9645,85.908 4.8892,9.533 46.5399,67.542 48.4961,67.542 0.4761,0 6.9291,-8.03 14.34,-17.846 z m -32.3099,-35.919 c 0,-2.804 1.4717,-5.1 3.2704,-5.1 1.7986,0 3.2702,1.387 3.2702,3.078 0,1.693 -1.4716,3.986 -3.2702,5.097 -1.7987,1.114 -3.2704,-0.272 -3.2704,-3.075 z m 347.5524,20.399 c -11.1576,-11.158 -21.255,-19.32 -22.439,-18.135 -1.1836,1.184 1.8202,8.93 6.6755,17.215 8.7032,14.851 16.7792,20.593 29.5423,20.998 4.9186,0.147 1.554,-4.747 -13.7788,-20.078 z m -524.1463,7.255 c 4.1438,-2.635 3.5286,-4.501 -3.9636,-12.016 -8.7507,-8.776 -8.9606,-8.812 -15.7127,-2.701 l -6.8433,6.194 7.5369,5.798 c 8.6068,6.622 12.0714,7.12 18.9827,2.725 z m 488.7397,-24.892 c -9.3943,-20.76 -16.4875,-30.514 -36.0445,-49.558 -17.0185,-16.569 -26.8016,-23.71 -32.4958,-23.71 -6.4515,0 -8.3833,-0.436 -8.5762,0.709 -0.4611,2.736 1.6703,21.68 2.1861,25.488 10.6273,9.653 20.528,26.194 35.4796,42.479 7.365,8.022 48.0058,33.577 50.0872,31.497 0.5825,-0.583 -4.2037,-12.69 -10.6364,-26.905 z m -525.2528,-17.395 c 12.5524,-6.404 36.01,-29.628 42.8672,-42.442 5.2327,-9.778 2.4273,-16.479 -13.2194,-31.583 l -13.378,-12.914 -5.4122,8.173 c -11.3148,17.091 -25.7822,29.401 -47.1729,40.141 l -22.1392,11.113 17.8556,16.889 c 9.8208,9.286 20.21,16.887 23.0872,16.887 2.8773,0 10.7575,-2.82 17.5117,-6.264 z m 121.3513,-59.958 c 0.2084,-35.167 -2.1805,-38.593 -16.3681,-23.493 l -7.8859,8.396 7.8263,5.904 c 8.6673,6.536 7.752,14.063 -2.3693,19.479 -5.005,2.678 -7.7449,1.793 -13.546,-4.383 -6.0059,-6.392 -6.6338,-8.933 -3.6064,-14.589 2.0161,-3.766 5.156,-6.85 6.9776,-6.85 1.8219,0 -1.0644,-6.36 -6.414,-14.135 -10.7461,-16.453 -13.5769,-10.502 -0.4508,-22.894 5.1017,-4.814 10.1237,-8.753 11.1605,-8.753 1.0367,0 7.0154,5.519 13.2862,12.263 l 11.4014,12.264 0.089,-20.801 c 0.086,-20.446 -0.2809,-21.321 -21.6781,-51.507 -11.9719,-16.887 -23.1817,-30.705 -24.9113,-30.705 -1.9402,0 -2.2548,9.492 -0.8217,24.787 2.2413,23.919 1.555,30.227 -9.7169,89.29 l -3.9838,20.875 28.1474,30.605 28.1475,30.604 2.2641,-12.236 c 1.2455,-6.73 2.3492,-26.585 2.4527,-44.121 z m 322.1912,16.055 c -0.8708,-4.642 -1.7607,-12.027 -1.7607,-12.027 -2.2907,-0.06 -5.9355,-0.779 -9.623,-1.589 -16.6626,-3.66 -14.9319,-21.245 2.0912,-21.245 5.8725,0 7.7841,-1.8 7.8113,-7.358 0.024,-4.047 0.8607,-12.508 1.8685,-18.804 1.1614,-7.253 0.1717,-13.669 -2.7009,-17.518 -4.1088,-5.503 -5.9878,-2.332 -20.0653,33.885 -8.5421,21.975 -14.7475,42 -13.7889,44.499 0.9584,2.497 4.5632,4.54 8.0104,4.54 3.447,0 11.2194,2.082 17.2717,4.628 6.052,2.546 11.4666,4.17 12.0321,3.605 0.5656,-0.564 0.05,-6.241 -1.1464,-12.616 z m -480.2095,-4.138 c 13.9186,-7.785 25.4064,-17.458 33.7991,-28.464 l 12.714,-16.673 -6.1354,-8.616 c -10.7237,-15.062 -15.0485,-17.135 -30.8009,-14.773 -13.4668,2.019 -15.4007,3.574 -24.741,19.901 -5.5731,9.74 -16.2067,22.909 -23.6305,29.263 l -13.4977,11.553 9.3887,9.801 c 5.1639,5.388 12.1857,9.798 15.6038,9.798 3.4183,0 15.7031,-5.305 27.2999,-11.79 z m 440.4128,-13.311 c 3.228,-10.158 11.0237,-29.628 17.3236,-43.265 7.276,-15.746 10.7789,-27.483 9.6024,-32.173 -2.306,-9.187 -8.268,-9.717 -8.268,-0.733 0,17.456 -20.3633,50.659 -39.8664,65.001 l -12.6895,9.334 8.582,10.197 c 12.7444,15.149 18.445,13.265 25.3159,-8.361 z m -305.7306,-2.9 c -5.8629,-3.94 -8.6814,-1.308 -5.9108,5.911 1.636,4.263 3.0542,4.687 5.9635,1.775 2.9094,-2.908 6.0467,-3.587 2.5835,-5.915 z m -163.9558,-26.615 c 4.626,-7.896 7.864,-14.849 7.1959,-15.453 -4.4293,-4.01 -23.5335,3.309 -28.1582,10.787 -2.9235,4.726 -9.0043,12.644 -13.5128,17.594 -7.9497,8.727 -8.0095,9.136 -1.9864,13.539 5.4855,4.012 7.4858,3.568 17.1306,-3.788 6.0059,-4.581 14.7048,-14.787 19.3309,-22.679 z m 125.1845,-12.879 c 1.7535,-12.341 4.8794,-27.279 6.9465,-33.198 3.5758,-10.24 1.569,-53.007 -2.4873,-53.007 -0.947,0 -7.3387,4.449 -14.2037,9.884 -11.605,9.193 -12.6423,11.432 -14.7653,31.885 -1.256,12.101 -4.3434,28.172 -6.8609,35.716 l -4.5773,13.718 13.9667,13.029 c 16.3585,15.261 17.369,14.432 21.9813,-18.027 z m 301.9666,20.656 c 16.9506,-9.934 33.9728,-28.313 40.3456,-43.567 6.1158,-14.638 5.7045,-49.794 -0.7638,-65.273 -7.1952,-17.221 -20.6958,-36.193 -37.6707,-52.934 -27.6185,-27.24 -60.8258,-29.129 -98.1759,-5.579 -21.4937,13.554 -46.894,46.42 -51.8548,67.099 -3.1157,12.988 -2.6718,17.596 3.2119,33.32 12.9434,34.596 40.4117,62.384 72.0202,72.862 22.1145,7.332 54.7998,4.673 72.8875,-5.928 z m -127.5649,-45.404 c -6.8498,-8.553 -8.1567,-18.881 -2.6558,-20.993 7.0989,-2.722 18.6146,8.219 17.4164,16.551 -1.1297,7.859 -9.9083,10.5 -14.7606,4.442 z m -335.9261,42.372 c 10.5795,-12.565 6.7776,-14.831 -15.0227,-8.962 -15.0525,4.621 -17.0617,0.1 -6.2168,11.638 4.1092,4.373 8.5554,7.952 9.8806,7.952 1.3252,0 6.4366,-4.783 11.3589,-10.628 z m 560.7901,-12.385 -9.678,-11.325 -0.1326,13.9 c -0.063,6.647 0.091,11.582 -0.2072,13.771 -0.3152,2.319 5.2145,0.323 9.8853,0.128 17.9815,-0.75 7.1978,-8.151 0.1325,-16.474 z m -350.1596,4.096 c -0.058,-1.285 -3.0712,-5.896 -6.6919,-10.245 -6.0484,-7.265 -7.0105,-7.482 -11.8419,-2.649 -4.831,4.831 -4.8097,5.943 0.263,13.685 4.576,6.984 6.623,7.837 11.9504,4.987 3.5361,-1.894 6.38,-4.493 6.3202,-5.778 z m -88.2815,-20.15 c 1.8738,-3.502 4.6138,-15.189 6.0885,-25.974 2.4633,-18.012 2.2212,-19.361 -2.9758,-16.579 -3.1115,1.665 -10.8728,9.304 -17.2476,16.979 l -11.5902,13.954 8.6156,8.992 c 10.2356,10.685 12.6029,11.049 17.1095,2.628 z m 130.6614,-71.523 c 0.2182,-27.548 -0.3066,-30.307 -5.4806,-28.77 -3.1477,0.935 -9.77,2.664 -14.7161,3.844 -10.0835,2.406 -10.1201,2.646 -5.653,37.06 2.3654,18.223 5.3599,27.082 12.1568,35.974 l 9.0183,11.795 2.2159,-14.716 c 1.2188,-8.094 2.3252,-28.43 2.4587,-45.187 z m -34.0721,-0.397 -2.3006,-19.822 h -13.11 c -10.1487,0 -12.6961,1.079 -11.2779,4.772 2.4212,6.311 26.3358,37.129 27.8271,35.862 0.6391,-0.545 0.1275,-9.91 -1.1386,-20.812 z" fill="#00B894" transform="translate(-6.013104,-49.562417) matrix(0.26458333,0,0,0.26458333,-2172.5058,-4370.2766)"/>
</svg>