<?xml version="1.0" ?><svg height="140.04338mm" viewBox="0 0 191.73206 140.04338" width="191.73206mm" xmlns="http://www.w3.org/2000/svg">
    <path d="m 49723.238,14255.135 c -8.901,-1.101 -38.609,24.732 -38.609,24.732 0,0 -4.674,-8.912 -23.367,-6.91 -18.693,2.003 -24.256,9.613 -24.256,9.613 0,0 -15.91,-10.814 -31.488,-5.707 -15.577,5.107 -36.385,38.553 -36.385,38.553 0,0 -19.139,9.813 -25.926,14.82 -6.787,5.007 -8.566,27.838 -8.566,27.838 0,0 -25.482,10.314 -30.155,19.326 -4.673,9.013 34.272,33.846 34.272,33.846 0,0 -12.462,22.833 -16.578,41.758 -4.117,18.926 27.148,24.434 31.265,24.934 4.116,0.5 2.891,24.533 7.787,35.748 4.716,10.802 35.1,-1.503 75.092,-15.125 20.116,13.303 49.211,24.282 87.797,20.642 71.939,-6.787 73.734,-103.416 73.734,-103.416 0,0 352.038,6.574 381.844,4.635 29.805,-1.939 33.4,-42.553 31.604,-88.121 -1.795,-45.568 -27.533,-57.098 -27.533,-57.098 l -396.208,98.785 c 0,0 -0.988,-1.622 -1.449,-2.398 7.896,-20.623 14.379,-38.461 15.346,-43.957 2.781,-15.822 -17.247,-7.81 -20.807,-7.209 -3.561,0.601 -11.461,-14.921 -22.142,-24.635 -10.682,-9.713 -18.582,-11.816 -18.582,-11.816 0,0 -7.789,-27.736 -16.69,-28.838 z m -21.496,304.201 c -1.741,-0.01 -3.459,0.08 -5.15,0.268 -27.053,3.016 -75.245,27.572 -88.697,61.941 -14.125,36.088 -28.848,93.396 -18.793,137.24 1.676,23.592 196.545,22.625 193.552,-0.32 -2.992,-22.946 -13.647,-101.373 -19.033,-140.262 -5.05,-36.458 -35.769,-58.713 -61.879,-58.867 z" fill="#FFFFFF" paint-order="markers stroke fill" transform="translate(-162.12156,170.6996) matrix(0.26458333,0,0,0.26458333,-12934.424,-3940.1606)"/>
    <path d="m 49696.95,14255.535 c -10.014,8.546 -12.182,11.411 -18.016,7.766 -9.931,-6.204 -26.638,-1.418 -43.379,12.42 -19.645,16.237 -11.542,24.25 11.453,11.326 14.167,-7.964 19.58,-9.043 23.863,-4.762 8.55,8.553 17.886,6.631 29.686,-6.099 14.401,-15.54 19.224,-14.706 28.591,4.935 5.855,12.277 10.151,15.986 16.579,14.307 6.394,-1.672 9.921,1.316 13.429,11.385 2.911,8.342 9.106,14.739 15.936,16.453 6.866,1.725 11.17,6.195 11.17,11.607 0,10.777 -7.338,11.503 -13.049,1.295 -3.262,-5.823 -11.909,-7.045 -18.948,-3.278 -5.627,3.011 -11.067,3.921 -15.016,0.957 -10.842,-8.137 -24.757,-10.397 -32.796,3.462 -5.211,8.984 -14.623,11.511 -19.728,0.175 -2.264,-5.026 -25.518,-8.415 -23.627,8.698 1.57,14.215 -5.685,13.906 -14.265,11.74 -6.827,-1.723 -20.101,6.76 -16.177,18.781 3.255,9.969 0.102,10.408 -6.677,12.182 -15.474,4.478 -12.594,20.227 -5.017,27.166 9.041,8.182 14.421,21.522 7.948,25.383 -14.279,8.516 -9.945,35.94 2.723,42.984 6.281,3.492 2.528,7.621 -11.842,12.037 -11.104,3.414 -17.953,3.691 -18.941,0.764 -2.037,-6.011 -14.743,-5.952 -14.743,0.07 0,2.561 -4.347,4.654 -9.66,4.654 -8.033,0 -9.407,-2.44 -8.144,-14.683 1.19,-11.531 -2.672,-18.001 -9.647,-19.025 -4.881,-0.721 -10.884,-2.559 -16.131,-7.807 -8.467,-8.466 -14.536,-14.964 -3.925,-25.073 20.524,-19.555 10.343,-34.711 -9.51,-42.585 -16.464,-6.53 -16.622,-15.86 -5.822,-18.797 20.336,-5.531 20.947,-16.789 20.947,-27.276 0,-7.771 3.776,-19.883 16.232,-16.955 16.451,3.868 23.688,-11.289 27.77,-23.799 3.701,-11.342 16.075,-18.074 22.119,-18.935 12.609,-1.797 16.925,-16.589 6.061,-20.762 -12.719,-4.879 -30.535,8.412 -42.241,31.512 -8.969,17.699 -12.096,18.644 -19.863,16.613 -14.796,-3.869 -29.702,14.131 -26.176,30.193 2.373,10.805 1.312,13.084 -6.086,13.084 -13.244,0 -25.981,16.188 -22.775,28.952 1.476,5.889 9.053,14.471 16.842,19.068 16.66,9.841 17.269,12.882 4.845,24.127 -15.8,14.299 -15.889,42.071 9.307,47.1 18.995,3.792 20.486,14.226 18.621,23.173 -1.219,5.849 3.666,12.716 8.145,14.989 12.362,6.269 57.049,3.678 61.525,-3.567 1.179,-1.906 2.59,-2.803 4.527,-2.76 2.451,2.211 4.931,4.322 7.487,6.157 49.611,35.63 138.763,26.36 163.99,-36.11 5.197,-12.869 8.046,-21.213 9.521,-27.748 21.454,0.06 29.087,-18.569 2.198,-24.83 12.829,0.208 5.641,-3.215 44.209,-2.572 l 27.121,0.451 c 0,0 8.351,17.446 16.551,23.774 12.989,10.025 20.14,28.395 -9.299,159.335 -4.951,22.024 -22.841,21.995 -84.25,8.405 -17.948,-3.972 -27.905,-5.807 -27.905,-5.807 -8.637,-41.218 -40.413,-63.636 -83.279,-59.75 -72.986,7.326 -110.187,67.666 -109.836,146.649 -0.06,31.139 1.714,58.042 3.471,60.201 15.525,19.079 15.186,-3.947 17.299,-58.67 2.572,-66.589 30.045,-92.894 46.252,-108.93 20.854,-20.634 88.358,-27.158 98.773,16.57 0,0 -27.865,-2.919 -37.924,-3.263 -40.853,-1.436 -28.519,25.502 -5.177,31.406 11.834,2.993 41.15,9.402 49.945,11.729 2.468,0.653 4.031,26.604 6.726,52.869 2.695,26.272 6.955,51.601 9.469,56.293 5.387,10.068 10.528,10.793 17.44,2.468 3.512,-4.235 3.709,-18.648 0.654,-47.712 -2.411,-22.903 -4.995,-55.99 -5.025,-60.081 17.474,2.27 32.912,5.109 53.257,6.594 58.237,4.249 69.819,-4.732 77.493,-30.842 2.881,-9.806 9.793,-49.781 15.361,-88.839 8.444,-59.259 11.521,-71.456 18.586,-73.7 4.657,-1.476 15.704,-9.925 24.549,-18.767 l 16.08,-16.08 55.394,-1.823 c 42.472,-1.399 57.397,-0.307 63.981,4.68 13.611,10.314 70.331,8.856 88.586,-2.273 18.523,-11.293 23.362,-20.257 27.406,-50.737 6.926,-52.208 -16.141,-107.756 -44.75,-107.756 -17.989,0 -61.38,9.374 -68.01,14.694 -2.942,2.36 -18.321,6.38 -34.174,8.935 -15.853,2.552 -37.531,7.844 -48.175,11.762 -10.644,3.917 -41.348,12.156 -68.229,18.307 -63.834,14.611 -83.785,20.468 -83.785,24.601 0,1.864 -15.186,5.81 -33.746,8.774 -18.559,2.96 -37.412,6.799 -41.895,8.527 -0.728,0.281 -1.294,0.357 -1.929,0.52 l 2.863,-2.704 -0.131,0.03 6.689,-16.008 c 8.424,-20.156 1.24,-38.002 -16.121,-40.051 -7.049,-0.832 -14.642,-6.734 -19.459,-15.127 -4.703,-8.193 -11.757,-13.765 -17.427,-13.765 -6.214,0 -11.022,-4.459 -12.207,-10.04 -5.384,-25.368 -28.459,-26.83 -44.736,-12.941 z m 458.189,33.108 c 13.32,0 13.929,0.763 10.172,12.796 -10.937,36.549 -6.78,78.773 -3.998,112.883 h -20.022 c -18.442,0 -20.55,-1.274 -26.762,-16.146 -7.907,-18.924 -8.748,-57.922 -1.783,-82.992 5.306,-19.107 17.184,-26.541 42.393,-26.541 z m 33.724,6.613 c 1.876,-0.275 2.747,3.988 4.338,14.588 3.236,21.601 4.194,39.227 3.516,65.183 -0.269,10.389 -3.31,22.743 -6.752,27.455 -5.723,7.822 -6.523,6.994 -9.26,-9.584 -5.344,-32.355 -3.518,-83.286 3.322,-92.638 2.223,-3.041 3.711,-4.839 4.836,-5.004 z m -97.304,17.406 c 5.536,-0.194 3.875,1.751 2.138,8.227 -5.214,32.165 -2.435,55.434 0.125,82.093 l -22.724,0.989 c -14.235,0.622 -24.632,-1.308 -27.83,-5.162 -9.571,-11.534 -19.266,-40.015 -19.266,-56.604 0,-19.285 5.772,-22.561 48.279,-27.396 10.042,-1.142 15.956,-2.03 19.278,-2.147 z m -89.67,17.83 c 1.92,0.02 3.492,11.425 3.492,25.338 0,13.914 2.041,30.671 4.541,37.238 3.92,10.319 3.293,11.942 -4.658,11.942 -5.362,0 -9.19,-3.138 -9.19,-7.526 0,-5.144 -2.846,-6.782 -9,-5.173 -7.915,2.071 -8.459,0.939 -4.525,-9.411 5.97,-15.703 1.65,-18.824 -13.789,-9.964 -12.713,7.295 -12.745,7.279 -10.809,-5.907 2.621,-17.877 -6.29,-16.924 -17.851,1.907 l -9.291,15.127 2.959,-15.127 c 2.347,-12.001 1.416,-15.131 -4.498,-15.131 -8.723,0 -19.108,15.141 -23.946,34.91 l -3.414,13.965 -6.556,-18.473 c -3.607,-10.158 -5.617,-20.91 -4.471,-23.898 1.658,-4.323 97.186,-29.991 111.006,-29.817 z m -269.545,20.426 c 4.342,5.942 9.721,7.423 19.705,5.426 6.158,-1.233 11.263,-0.501 14.945,1.5 7.084,7.825 8.479,13.29 3.387,20.558 -10.516,15.768 -10.701,42.346 12.81,49.393 -17.124,4.241 -16.721,20.117 -4.408,22.881 0,0 -3.74,41.975 -50.205,58.006 -26.282,9.067 -51.078,5.017 -72.293,-6.514 8.597,-7.005 -1.354,-17.409 -5.135,-25.203 -12.691,-11.305 -15.833,-22.018 -3.131,-31.612 11.343,-8.567 8.034,-25.605 -1.167,-31.289 -13.167,-8.134 -10.672,-17.395 0.448,-20.635 4.435,-1.293 11.626,-4.932 6.817,-10.043 -6.261,-6.655 -1.344,-11.972 9.125,-12.145 4.801,-0.08 12.242,-1.324 13.177,-6.173 1.996,-10.346 8.82,-8.94 9.69,-7.541 4.828,7.764 18.517,5.473 29.762,-5.004 7.725,-7.292 10.617,-9.571 16.473,-1.605 z m 123.164,22.531 c 13.724,-0.951 14.638,5.779 19.472,23.414 5.162,18.831 -20.746,10.215 -40.66,12.432 -46.515,-0.419 -52.365,-1.899 -52.365,-13.246 0,-8.102 13.335,-12.434 66.838,-21.731 2.532,-0.44 4.754,-0.733 6.715,-0.869 z m -125.557,22.871 c -1.41,0 -2.864,0.08 -4.351,0.227 -15.033,1.477 -25.388,13.115 -11.672,13.115 4.738,0 6.232,2.589 4.34,7.522 -2.971,7.74 -3.333,7.742 25.287,-0.485 18.034,-5.184 8.987,-18.516 -9.504,-20.203 -1.321,-0.12 -2.689,-0.182 -4.1,-0.176 z m -104.722,105.403 0.298,0.03 -0.257,0.09 z" fill="#00B894" transform="translate(-162.12156,170.6996) matrix(0.26458333,0,0,0.26458333,-12934.424,-3940.1606)"/>
</svg>