<?xml version="1.0" ?><svg height="133.49228mm" viewBox="0 0 178.33253 133.49228" width="178.33253mm" xmlns="http://www.w3.org/2000/svg">
    <path d="m 49413.136,14247.18 -396.207,98.785 c 0,0 -18.074,-31.67 -37.226,-45.459 -19.152,-13.789 -55.782,-40.182 -120.061,1.723 -64.279,41.906 -48.597,97.707 -26.093,136.488 8.738,15.297 47.999,59.249 119.939,52.463 71.939,-6.787 73.734,-103.416 73.734,-103.416 0,0 352.038,6.572 381.844,4.633 29.805,-1.939 33.398,-42.553 31.602,-88.121 -1.795,-45.568 -27.532,-57.096 -27.532,-57.096 z m -482.027,284.131 c -1.741,-0.01 -3.461,0.08 -5.152,0.268 -27.053,3.016 -75.245,27.572 -88.697,61.941 -14.125,36.088 -28.848,93.398 -18.793,137.242 1.676,23.592 196.547,22.623 193.554,-0.322 -2.992,-22.946 -13.647,-101.371 -19.033,-140.26 -5.05,-36.458 -35.769,-58.715 -61.879,-58.869 z" fill="#FFFFFF" paint-order="markers stroke fill" transform="translate(-380.24493,198.88598) matrix(0.26458333,0,0,0.26458333,-12525.613,-3967.4834)"/>
    <path d="m 49406.061,14243.518 c -17.989,0 -61.38,9.371 -68.01,14.691 -2.942,2.36 -18.319,6.383 -34.172,8.938 -15.853,2.552 -37.534,7.843 -48.178,11.761 -10.644,3.917 -41.347,12.156 -68.228,18.307 -63.834,14.611 -83.785,20.469 -83.785,24.602 0,1.864 -15.187,5.809 -33.747,8.773 -18.559,2.96 -37.409,6.799 -41.892,8.527 -5.295,2.046 -8.166,0.937 -8.166,-3.171 -0.01,-2.91 -2.188,-7.09 -5.723,-11.834 -3.775,-18.119 -20.825,-37.614 -44.603,-50.499 -16.131,-8.74 -35.228,-13.576 -54.881,-13.882 -25.268,-0.394 -51.452,6.703 -73.422,22.615 -14.836,10.745 -26.354,27.289 -34.178,43.973 -11.029,23.511 -12.245,31.776 -13.054,88.765 -0.555,38.911 -4.346,81.205 -9.954,111.078 -10.501,55.937 -7.732,75.828 11.981,86.159 7.088,3.713 12.567,10.683 14.826,22.583 -1.753,11.246 -2.715,23.001 -2.66,35.276 -0.06,31.139 1.714,58.04 3.471,60.199 15.525,19.079 15.185,-3.945 17.298,-58.668 1.735,-44.916 14.804,-71.282 28.098,-88.752 0.385,0.65 0.763,1.332 1.1,2.194 1.965,5.025 3.724,14.641 3.898,21.369 0.178,6.724 3.207,14.618 6.723,17.533 15.929,13.224 29.643,-9.553 31.941,-53.041 0.687,-13.017 1.342,-18.745 4.373,-21.611 0,-0.234 -0.01,-0.452 0,-0.684 27.449,-5.764 61.726,0.501 68.903,30.633 0,0 -27.865,-2.92 -37.924,-3.264 -40.853,-1.436 -28.522,25.502 -5.18,31.406 11.834,2.993 41.151,9.402 49.946,11.729 2.468,0.653 4.031,26.602 6.726,52.867 2.695,26.272 6.955,51.603 9.469,56.295 5.387,10.068 10.527,10.794 17.439,2.469 3.512,-4.235 3.71,-18.649 0.655,-47.713 -2.411,-22.903 -4.996,-55.989 -5.026,-60.08 17.474,2.27 32.913,5.109 53.258,6.593 58.237,4.249 69.818,-4.731 77.492,-30.841 2.881,-9.806 9.794,-49.782 15.362,-88.84 8.444,-59.259 11.521,-71.455 18.586,-73.699 4.657,-1.476 15.703,-9.926 24.548,-18.768 l 16.08,-16.08 55.397,-1.822 c 42.472,-1.399 57.394,-0.308 63.978,4.679 13.611,10.314 70.331,8.856 88.586,-2.273 18.523,-11.293 23.363,-20.256 27.407,-50.736 6.926,-52.208 -16.141,-107.756 -44.75,-107.756 z m -22.284,18.621 c 13.32,0 13.929,0.764 10.172,12.797 -10.937,36.549 -6.78,78.773 -3.998,112.883 h -20.019 c -18.442,0 -20.552,-1.275 -26.764,-16.147 -7.907,-18.924 -8.746,-57.922 -1.781,-82.992 5.306,-19.107 17.181,-26.541 42.39,-26.541 z m 33.725,6.613 c 1.876,-0.275 2.747,3.986 4.338,14.586 3.236,21.601 4.194,39.23 3.516,65.186 -0.269,10.389 -3.31,22.743 -6.752,27.455 -5.723,7.822 -6.521,6.994 -9.258,-9.584 -5.344,-32.355 -3.52,-83.287 3.32,-92.639 2.223,-3.041 3.71,-4.839 4.836,-5.004 z m -97.305,17.406 c 5.537,-0.194 3.876,1.751 2.139,8.227 -5.214,32.165 -2.435,55.435 0.125,82.094 l -22.725,0.988 c -14.235,0.622 -24.632,-1.308 -27.83,-5.162 -9.571,-11.534 -19.265,-40.015 -19.265,-56.604 0,-19.285 5.774,-22.561 48.281,-27.396 10.041,-1.142 15.954,-2.03 19.275,-2.147 z m -89.67,17.83 c 1.92,0.02 3.493,11.425 3.493,25.338 0,13.914 2.041,30.672 4.541,37.239 3.92,10.319 3.292,11.939 -4.659,11.939 -5.362,0 -9.189,-3.135 -9.189,-7.523 0,-5.144 -2.846,-6.783 -9,-5.174 -7.915,2.071 -8.459,0.94 -4.525,-9.41 5.97,-15.703 1.649,-18.825 -13.79,-9.965 -12.712,7.295 -12.744,7.28 -10.808,-5.906 2.621,-17.877 -6.291,-16.925 -17.852,1.906 l -9.291,15.127 2.959,-15.127 c 2.347,-12.001 1.416,-15.131 -4.498,-15.131 -8.723,0 -19.107,15.141 -23.945,34.91 l -3.414,13.965 -6.557,-18.473 c -3.607,-10.158 -5.616,-20.91 -4.47,-23.898 1.658,-4.323 97.185,-29.991 111.005,-29.817 z m -305.005,13.348 c 3.064,0 13.09,3.142 22.283,6.981 9.188,3.842 23.85,6.982 32.582,6.982 8.645,0 14.915,1.57 18.644,4.289 5.675,6.703 4.758,9.502 -0.01,16.311 -10.516,15.768 -10.701,42.343 12.81,49.39 -17.124,4.241 -16.721,20.119 -4.408,22.883 0,0 -3.738,41.975 -50.203,58.006 -28.383,9.792 -55.156,4.508 -77.438,-9.195 -4.828,-21.717 -2.704,-44.106 3.295,-64.727 10.901,-36.237 36.434,-90.92 42.446,-90.92 z m 158.625,29.61 c 13.724,-0.951 14.638,5.778 19.472,23.414 5.162,18.831 -20.746,10.214 -40.66,12.431 -46.515,-0.419 -52.365,-1.899 -52.365,-13.246 0,-8.102 13.335,-12.433 66.838,-21.73 2.532,-0.44 4.754,-0.734 6.715,-0.869 z m -121.457,23.046 c -2.642,-0.241 -5.476,-0.243 -8.452,0.05 -15.033,1.477 -25.388,13.117 -11.672,13.117 4.738,0 6.232,2.587 4.34,7.52 -2.971,7.74 -3.333,7.745 25.287,-0.482 18.035,-5.185 8.988,-18.517 -9.503,-20.204 z m 116.421,27.129 27.121,0.453 c 0,0 8.351,17.446 16.551,23.774 12.989,10.025 20.14,28.394 -9.299,159.336 -4.951,22.024 -22.841,21.992 -84.25,8.402 -17.948,-3.972 -27.904,-5.805 -27.904,-5.805 -8.637,-41.218 -40.411,-63.636 -83.277,-59.75 -5.589,0.561 -10.895,1.534 -16.063,2.702 -2.572,-8.647 -6.324,-15.86 -9.783,-22.19 49.147,14.22 110.7,-1.557 130.977,-51.769 5.197,-12.869 8.046,-21.213 9.521,-27.748 21.454,0.06 29.086,-18.569 2.197,-24.83 12.829,0.208 5.641,-3.218 44.209,-2.575 z" fill="#00B894" transform="translate(-380.24493,198.88598) matrix(0.26458333,0,0,0.26458333,-12525.613,-3967.4834)"/>
</svg>