<?xml version="1.0" ?><svg height="725.007" viewBox="0 0 158.778 191.825" width="600.104" xmlns="http://www.w3.org/2000/svg">
    <path d="M107.83 4.261c-11.871-.373-22.559 9.485-27.835 21.125 0 0-1.229 13.314 2.194 22.396 3.422 9.082 19.428 14.958 27.677 13.505 8.248-1.454 13.391-10.456 21.201-24.26 7.81-13.805.122-23.946-14.883-30.77-2.814-1.278-5.615-1.91-8.354-1.996zm-39.407 36.94c-4.465-.046-9.462 2.637-17.067 6.498-22.992 11.672-35.075 56.093-15.863 75.49 6.019 14.443 22.586 12.202 30.388 9.828 7.8-2.373 18.053-18.654 9.138-29.553-8.916-10.9-4.308-15.612 3.94-22.299 8.246-6.686 14.3-15.982 3.342-30.09-5.48-7.055-9.413-9.829-13.878-9.874z" fill="#FFFFFF"/>
    <path d="M126.105 0c-10.64-.025-26.29 3.744-34.038 6.212-2.626.837-3.767-.863-9.348 1.38-3.674 1.476-6.09 4.939-10.18 9.03-6.534 6.533-8.356 8.449-7.01 9.075 2.788 1.3 2.936.219 8.021-4.842 10.628-10.575 13.378-12.898 7.824-4.178-3.232 5.074-3.845 7.627-3.91 16.294-.066 8.581-.43 10.126-2.203 9.36-9.282-4.01-12.044-3.902-22.42.88-16.934 7.806-24.777 18.595-29.057 39.966-1.974 9.86-1.543 19.342 1.317 29.018.926 3.131.897 3.138-3.792.798-2.6-1.296-7.992-2.63-11.983-2.96-6.668-.553-7.33-.331-8.153 2.74-3.172 11.85-.12 20.448 11.734 33.07 6.432 6.85 15.642 19.056 15.642 20.73 0 .666-2.388 1.215-5.308 1.219-4.643.006-12.247 1.497-18.636 3.653-1.347.455-1.538 1.146-.581 2.103.957.957 4.523.79 10.853-.512 5.185-1.066 9.426-1.519 9.426-1.006 0 .513-3.209 2.434-7.131 4.272-5.46 2.557-6.625 3.624-4.972 4.549 1.257.704 3.308.592 4.914-.268 3.9-2.087 5-1.83 2.915.683-3.026 3.646-.254 4.143 6.055 1.086 3.303-1.6 7.714-3.306 9.803-3.788 2.09-.483 4.203-2.152 4.697-3.708.943-2.971-5.099-10.9-22.317-29.292-10.364-11.07-14.238-19.302-12.632-26.833 1.127-5.285 1.321-5.432 6.62-5 7.526.615 13.832 4.756 17.305 8.258 8.715 8.788 9.58 8.218 14.799 12.687l1.342 13.065c.662 6.742 1.56 13.752 1.995 15.578.436 1.827.192 4.055-.543 4.954-.736.899-1.793 5.934-2.35 11.189-.868 8.196-.693 9.554 1.228 9.554 1.617 0 2.499-1.958 3.175-7.05 1.157-8.728 3.408-7.912 3.408 1.236 0 3.717.425 7.182.944 7.701 2.437 2.438 3.302.197 3.334-8.611l.033-9.555 3.077 5.308c2.89 4.987 6.766 7.16 6.766 3.795 0-2.34-8.177-13.675-11.59-16.066-2.324-1.627-3.835-4.708-4.855-13.156-1.313-10.873-1.288-12.64-1.5-16.808 16.716 1.771 20.434-1.548 31.902-12.837 9.063-8.921 18.875-16.057 22.083-16.057.42 0 .765 2.163.765 4.806 0 3.068-2.572 9.596-7.108 18.048-8.888 16.562-16.692 32.93-17.793 37.315-.73 2.907.09 3.82 6.208 6.921 3.878 1.965 8.556 3.911 10.394 4.323 1.84.413 5.179 1.164 7.422 1.672 6.954 1.574 3.672-2.756-3.816-5.035-7.487-2.279-9.132-5.14-2.032-3.535 2.53.572 6.192 1.18 8.139 1.352 1.946.172 4.655.779 6.017 1.348 1.668.696 2.476.39 2.476-.936 0-3.364-7.972-6.885-17.64-7.788-5.09-.475-9.253-1.488-9.253-2.251 0-.764 5.095-11.103 11.323-22.975 11.994-22.862 13.742-29.66 8.98-34.922-3.4-3.757-8.9-3.187-16.652 1.73-3.746 2.375-6.906 4.128-7.023 3.894-.117-.235-2.188-3.294-4.601-6.797-7.477-10.853-7.443-12.12.52-19.611 3.845-3.617 7.754-8.009 8.686-9.76.933-1.752 2.152-3.17 2.708-3.146 1.686.068 20.518 27.644 25.343 37.11 2.578 5.057 5.19 13.103 6.09 18.763.866 5.45 2.219 13.222 3.004 17.272.988 5.093.964 8.227-.075 10.168-2.814 5.258-.912 12.012 2.039 7.239 1.592-2.577 3.3-1.47 4.223 2.735 1.098 4.998 3.686 7.43 6.231 5.857 1.427-.881 1.5-1.843.307-4.072-3.431-6.411-1.227-6.19 4.682.473 4.574 5.156 6.671 6.626 7.846 5.493 1.183-1.142-.118-3.466-4.958-8.848-3.609-4.015-5.983-7.299-5.273-7.299s4.683 2.53 8.827 5.622c6.827 5.093 9.964 6.045 9.964 3.023 0-1.92-15.09-11.57-20.368-13.028-6.4-1.767-7.354-3.625-9.346-18.172-2.718-19.853-6.328-27.08-29.033-58.129-11.38-15.56-11.602-16.468-3.452-14.13 13.647 3.913 18.285 6.54 30.555-12.906 2.321-3.679 2.81-4.567 5.565-9.978 4.08-7.889 3.996-1.944 5.408 10.633.623 5.55 2.268 9.395 2.268 9.395 1.398 1.701 1.675-17.187-.788-25.672-2.643-9.107-4.172-13.823-5.559-17.148-.64-1.535-.569-1.665.456-1.665.91 0 3.202 4.899 5.454 9.764 4.463 9.644 6.032 6.628 2.413-3.993-2.205-6.472-7.155-10.83-12.304-10.83-1.087 0-4.052-1.036-6.59-2.302-3.453-1.722-4.131-2.606-2.695-3.516 2.804-1.777 11.686-1.284 16.89 1.868 6.44 3.9 12.197 2.417 6.617-.734C139.902 2.095 133.75.016 126.105 0zM98.063 7.832c.786 0 1.064.592.616 1.316-1.534 2.483 2.054 3.095 5.205.888 3.51-2.459 13.195-2.985 14.552-.79.48.778-.157 1.416-1.417 1.416s-1.908.616-1.443 1.369c.466.753 2.626 1.013 4.802.578 3.218-.643 4.661.045 7.73 3.693 4.498 5.345 5.016 12.504 1.19 16.068-1.454 2.091.726 5.54-4.37 6.274-2.99.43-5.033-2.673-5.078-5.451 0-2.83.801-3.499 4.628-3.867 2.545-.245 4.259-1.04 3.809-1.769-1.296-2.096-7.311-1.541-9.752.9-3.539 3.539-2.653 7.465 2.376 10.531 3.328 2.029 3.873 2.806 1.972 2.81-1.76.003-4.384 3.118-3.835 4.549.45 1.174 2.176 1.474 1.357 3.608l-1.488 3.88-1.97-3.727c-3.39-6.42-16.487-7.053-20.28-.98-2.213 3.545-1.04 4.94 6.375 7.582 5.327 1.9 5.362 1.954 1.238 1.962-13.216.02-25.114-15.349-22.67-29.284 1.254-7.15 6.741-16.488 10.057-17.115 1.488-.281 3.213-1.395 3.836-2.476.622-1.08 1.775-1.965 2.56-1.965zm-4.97 17.618c-.565.007-1.077.088-1.513.255-5.91 2.268-5.18 12.786 1.096 15.819 8.955 4.327 16.227-.891 12.535-8.995-1.596-3.502-8.16-7.126-12.118-7.079zm2.68 3.614c4.012 0 5.36.726 6.668 3.598 1.387 3.045 1.22 3.985-1.091 6.1-3.712 3.397-8.92 2.288-10.652-2.266-2.044-5.378-.642-7.432 5.074-7.432zm27.281 3.152c-.896.11-2.308 1.298-.826 3.097 1.26 1.53 3.198.132 2.944-1.947-.178-1.452-1.49-1.227-2.118-1.15zm-28.858.494c-.778 0-1.72 1.236-1.24 2.015.482.779 1.511 1.416 2.29 1.416.778 0 1.955-1.392 1.474-2.17-.481-.78-1.745-1.261-2.524-1.261zM71.921 44.73c9.943 4.813 16.74 17.238 13.233 24.191-.92 1.824-5.2 6.645-9.51 10.712-7.612 7.184-7.816 7.573-7.132 13.644.418 3.709 2.221 8.238 4.435 11.14 2.067 2.71 3.73 6.738 3.73 9.035 0 5.165-6.637 13.494-13.258 16.635-3.795 1.743-9.207 2.668-14.491.274-.868-17.152-1.286-36.51 1.58-44.678.575-3.503 2.833-11.017 5.018-16.7 5.35-13.918 6.337-18.686 3.869-18.686-2.962 0-12.046 24.554-14.14 38.219-1.013 6.617-1.843 18.242-1.843 25.834 0 7.59 1.316 14.525.813 14.524-2.35-.002-11.439-11.205-14.114-18.356-3.884-10.38-3.757-18.59.501-32.546 5.01-16.416 12.105-24.703 28.121-32.848 4.9-3.169 8.124-2.998 13.188-.394zm37.23 2.735c.824 0 1.499.637 1.499 1.416 0 .778-.281 1.416-.625 1.416-.343 0-1.018-.638-1.499-1.416-.48-.779-.2-1.416.624-1.416zm-9.379 3.205c.296-.014.738.208 1.323.666.973.761 4.473 1.224 7.778 1.028 3.304-.196 5.656.213 5.225.91-.82 1.328-9.956 1.562-13.003.332-.973-.392-1.769-1.376-1.769-2.185 0-.486.15-.736.446-.75z" fill="#00B894"/>
</svg>