<?xml version="1.0" ?><svg height="679.298" viewBox="0 0 56.387 179.731" width="213.115" xmlns="http://www.w3.org/2000/svg">
    <path d="M18.302 177.389c-1.564 1.122-15.675-73.532-2.031-93.948 2.943-10.483 7.3-31.436 1.875-32.685 2.757-4.358 4.136.207 4.717-3.689 1.08-7.25 6.007-28.883 8.94-35.833 0 0-6.739-10.817 4.964-10.593 6.003.115 1.102 8.413 1.102 8.413l-2.898 41.558 8.774 3.22c-15.58.664-6.095 41.651-9.142 62.477z" fill="#FFFFFF"/>
    <path d="M15.668 175.894c-3.842-8.272-7.79-37.483-7.891-58.402-.098-19.98.016-20.795 4.326-30.712 4.856-11.174 6.823-22.853 4.96-29.447-1.06-3.755-2.079-4.418-8.795-5.72-11.727-2.275-10.817-4.897 1.7-4.897h10.437L24.48 29.73c2.241-9.342 4.619-16.986 5.284-16.986.666 0 .25-1.465-.923-3.256-1.905-2.906-1.9-3.59.047-6.37 2.406-3.434 8.844-4.217 11.646-1.415 2.201 2.201 2.169 6.096-.07 8.463-1.164 1.23-1.938 8.013-2.261 19.814l-.491 17.943 5.05 1.395c5.169 1.427 13.626 6.703 13.626 8.5 0 .551-3.652.986-8.115.966l-8.116-.036-2.045 5.662c-1.53 4.235-1.962 11.49-1.715 28.78l.33 23.12-7.308 29.254c-9.045 36.213-10.019 38.362-13.75 30.33zm7.228-23.368c1.962-7.98 4.567-18.013 5.787-22.294 2.507-8.794 4.772-44.01 2.686-41.758-.721.779-2.8 5.145-4.622 9.703-2.397 6-2.857 8.569-1.667 9.304 1.198.74.893 2.718-1.12 7.283-1.52 3.447-3.013 8.966-3.317 12.265-.304 3.299-1.061 6.484-1.683 7.078-1.185 1.13-.267-13.337 1.233-19.446.478-1.946-.453-.689-2.07 2.795-1.617 3.484-3.688 6.796-4.603 7.362-.92.568-1.5 3.432-1.3 6.405.69 10.2 5.027 35.812 6.066 35.812.573 0 2.647-6.53 4.61-14.51zm-2.487-7.95c-.61-.986-.727-2.176-.26-2.643 1.267-1.267 2.649.597 1.964 2.65-.479 1.438-.812 1.437-1.704-.005zm-5.285-26.932c.908-3.03 3.984-10.515 6.835-16.632 4.184-8.976 5.357-13.445 6.08-23.154.746-10.014 1.141-11.457 2.357-8.606 1.393 3.268 1.533 3.139 3.037-2.785 1.881-7.412 1.04-8.906-2.428-4.31-2.896 3.84-5.155 3.095-7.537-2.485-1.442-3.378-1.692-2.69-2.49 6.862-.51 6.103-2.564 15.129-4.83 21.232-2.733 7.36-4.174 14.417-4.697 23.002-.809 13.305.829 16.37 3.673 6.876zm21.407-63.991l3.578-.141-3.54-1.134c-1.946-.623-5.956-1.196-8.912-1.274l-5.375-.141 2.543 3.371c2.265 3.002 2.85 3.157 5.336 1.416 1.536-1.076 4.402-2.02 6.37-2.097zm-4.208-7.842c1.537-3.346 0-6.217 0-6.217 0-.754-1.2-1.37-2.666-1.37-1.783 0-2.912 1.286-3.408 3.884-.912 4.77-.22 6.024 3.327 6.024 1.602 0 2.747-.967 2.747-2.321zm1.152-15.836c.315-3.19-.154-4.491-1.616-4.491-2.234 0-4.42 6.316-2.988 8.633 1.636 2.647 4.157.378 4.604-4.142zm1.68-12.276c0-2.725-.638-4.955-1.416-4.955-.779 0-1.424.796-1.435 1.77-.012.973-.404 3.202-.873 4.954-.627 2.341-.248 3.185 1.435 3.185 1.671 0 2.288-1.336 2.288-4.954zm.591-8.645c2.362-.906 3.177-7.634.925-7.634-1.582 0-5.763 4.01-5.763 5.527 0 1.02 1.472 2.966 2.243 2.966.196 0 1.364-.387 2.595-.859z" fill="#00B894"/>
</svg>