<?xml version="1.0" ?><svg height="414.622" viewBox="0 0 90.422 109.702" width="341.753" xmlns="http://www.w3.org/2000/svg">
    <path d="M3.717 38.338c5.634-9.867 19.97-14.353 38.866-14.356 30.906-5.743 32.846 1.948 43.193 6.71-5.659 4.377-11.834 8.65-26.417 11.214 10.371 27.96 1.86 48.463-10.519 66.36 4.991-21.327-16.995-43.76-21.083-61.135-8.422-2.518-19.265-2.591-24.04-8.793z" fill="#FFFFFF"/>
    <path d="M47.717 106.871c.49-1.874.043-2.831-1.322-2.831-1.134 0-3.684-2.28-5.666-5.065-3.713-5.22-3.795-10.102-.19-11.485 2.782-1.067 2.399-3.984-1.731-13.186-3.56-7.931-3.834-8.173-10.262-9.039-9.073-1.221-20.11-6.621-24.711-12.09C.743 49.501 0 47.194 0 41.27c0-13.214 9.346-22.16 23.15-22.16 8.242 0 13.332 2.35 15.919 7.352 1.989 3.846 1.118 5.292-1.629 2.705-2.44-2.299-10.2-3.267-11.345-1.416-1.296 2.097 5.509 8.344 9.089 8.344 1.358 0 3.212.744 4.12 1.653 2.442 2.44 3.704-1.915 2.693-9.291-.457-3.337-.203-6.695.565-7.463.92-.919-.093-3.272-2.957-6.876-3.135-3.945-4.236-6.69-3.932-9.799C36.056.407 36.563 0 41.05 0c4.014 0 5.038.586 5.394 3.09.281 1.975-.611 3.65-2.477 4.65-3.547 1.897-3.567 2.692-.178 6.755 2.515 3.013 2.895 3.066 7.693 1.061 2.776-1.16 9.073-2.109 13.994-2.109 10.577 0 20.375 4.233 23.676 10.228 2.052 3.726 1.955 4.007-2.818 8.208-6.558 5.773-15.168 9.805-21.018 9.843-3.969.028-4.582.44-3.723 2.509 3.206 7.714 4.86 15.601 4.11 19.6-.655 3.489-.163 5.244 2.109 7.516 1.63 1.63 2.942 3.76 2.916 4.733-.057 2.164-4.894 8.139-6.588 8.139-.675 0-3.062 4.3-5.304 9.555-3.858 9.043-8.534 15.924-10.823 15.924-.57 0-.703-1.274-.296-2.831zm-2.676-11.567c-.572-3.89-3.991-5.198-3.991-1.526 0 2.937 1.144 4.6 3.165 4.6.703 0 1.075-1.383.826-3.074zm7.333-1.998c0-2.989-.625-4.864-1.522-4.565-.837.279-1.474.969-1.415 1.533.058.565.106 2.619.106 4.565 0 1.946.637 3.539 1.416 3.539.778 0 1.415-2.283 1.415-5.072zm-1.416-12.703c0-4.914-2.922-16.197-4.195-16.197-.565 0-2.12 1.206-3.454 2.68-2.296 2.538-2.27 2.971.488 8.119 1.603 2.99 2.915 6.243 2.915 7.227 0 .985.955 1.79 2.123 1.79 1.334 0 2.123-1.345 2.123-3.619zm8.503-4.908c.843-3.133 1.346-9.913 1.116-15.065l-.418-9.37-6.016-1.77c-6.992-2.06-7.262-1.447-4.076 9.254 1.39 4.67 2.707 6.49 4.933 6.822 1.67.249 3.036 1.113 3.036 1.92 0 .808-.956 1.102-2.123.654-2.354-.903-2.697 1.539-1.239 8.828 1.204 6.02 2.948 5.556 4.787-1.273zm7.068-.049c0-.732-.637-1.332-1.416-1.332-.778 0-1.415.993-1.415 2.207s.637 1.813 1.415 1.332c.779-.481 1.416-1.474 1.416-2.207zM45.763 62.513c.522.522.949.3.949-.491 0-1.427-2.897-10.624-3.635-11.54-.21-.26-2.39 1.444-4.845 3.79-4.339 4.146-4.397 4.362-2.109 7.854 2.177 3.323 2.59 3.436 5.523 1.515 1.742-1.142 3.595-1.65 4.117-1.128zm-16.785-4.688c-1.924-3.62-3.499-7.385-3.499-8.369 0-.989-2.582-2.224-5.778-2.764-3.177-.537-7.477-1.863-9.554-2.947-4.486-2.34-7.316-2.544-7.316-.527 0 3.688 4.22 10.936 7.691 13.21 3.27 2.143 17.79 7.615 20.933 7.889.562.048-.552-2.873-2.477-6.492zm12.678-12.27c2.287-3.626-2.126-6.918-10.33-7.706-8.28-.796-20.002.683-20.002 2.523 0 .7 2.605 2.052 5.788 3.006 4.474 1.34 6.398 1.353 8.474.057 4.302-2.687 5.55-2.007 4.644 2.525-.462 2.312-.438 5.253.054 6.537.789 2.054 1.435 1.917 5.4-1.14 2.476-1.91 5.164-4.52 5.972-5.802zm14.304-2.33c-2.25-2.486-2.134-2.662 2.332-3.562 2.584-.522 5.932-1.3 7.44-1.73 2.675-.762 2.677-.828.083-2.725-3.245-2.373-6.484-2.445-13.63-.304-4.601 1.379-5.473 2.25-5.473 5.47 0 3.118.987 4.212 5.308 5.881 5.882 2.272 7.566.977 3.94-3.03zM20.64 34.68c5.667 0 6.221-1.613 1.435-4.175-2.923-1.564-3.918-1.448-7.033.823-4.037 2.941-4.95 5.543-1.479 4.211 1.232-.472 4.416-.859 7.078-.859zm53.575.16c.426-.69-.623-1.62-2.332-2.066-3.567-.933-4.625-.35-3.289 1.812 1.131 1.83 4.551 1.986 5.62.255zM9.582 31.07c6.033-4.226 18.55-7.71 22.416-6.241 4.85 1.844 5.449 1.717 3.42-.727-4.836-5.828-19.39-3.565-26.898 4.182-4.993 5.151-4.429 6.632 1.062 2.786zm47.39-3.077c3.045-2.756 3.184-4.636.344-4.636-2.302 0-10.604 6.805-10.604 8.692 0 1.561 7.197-1.284 10.26-4.056zm22.297 3.929c0-1.587-8.846-8.565-10.858-8.565-.764 0-2.885 1.592-4.713 3.539l-3.325 3.538 6.263.02c3.445.012 7.218.64 8.386 1.394 2.71 1.752 4.247 1.778 4.247.073zm3.675-10.93c-5.688-4.893-13.786-6.58-22.695-4.731-4.126.856-8.701 2.537-10.166 3.734-2.586 2.114-2.581 2.149.168 1.198 6.845-2.37 15.09-2.38 21.249-.028 3.494 1.334 6.353 2.957 6.353 3.606 0 .65 1.752 1.773 3.893 2.497 5.415 1.831 6.15-2.016 1.198-6.276zM43.615 2.211c.354-1.06-.177-1.592-1.238-1.238-1.022.34-2.137 1.455-2.477 2.477-.354 1.062.177 1.593 1.238 1.239 1.022-.34 2.137-1.455 2.477-2.477z" fill="#00B894"/>
</svg>