<?xml version="1.0" ?><svg height="544.284" viewBox="0 0 116.825 144.008" width="441.542" xmlns="http://www.w3.org/2000/svg">
    <path d="M73.275 1.946c-15.94-.08-26.843 20.986-26.843 20.986l-11.707-5.706c.652 9.689 5.24 13.572 9.227 18.342 5.69 8.258 3.844 26.187 4.815 40.502 0 0-7.829-8.134-14.768-4.865-6.939 3.27-6.722 7.456-3.017 15.303 3.706 7.847 8.285 18.766 4.688 42.535 0 0 6.429 14.093 24.884 14.289 18.456.196 34.966-1.138 34.966-1.138 2.16-29.822.2-54.605.639-82.138 4.923-5.82 7.384-10.391 10.935-27.366l7.41-18.212-9.917 6.25S91.617 3.56 74.833 2.023a18.106 18.106 0 00-1.558-.077zm-39.51 34.779l-7.927 2.604 7.313 17.337c6.165-6.822.614-19.941.614-19.941zm-20.775.029c-3.075 3.758-4.615 5.624-9.751 6.113 0 0 1.683 6.242 3.303 8.818 1.62 2.576 13.713 10.034 13.399 3.608-.315-6.425-6.95-18.539-6.95-18.539z" fill="#FFFFFF"/>
    <path d="M93.396 142.194c-.497-1.294-.532-8.914-.077-16.933 1.396-24.66-2.247-39.706-10.667-44.06-2.943-1.522-7.033-2.015-13.61-1.642l-9.403.535.382 17.628c.21 9.696.74 21.61 1.175 26.475.817 9.128.23 10.113-4.077 6.845-1.818-1.379-2.892-5.17-3.853-13.598-1.937-16.98-3.37-15.914-2.276 1.692.526 8.458.384 15.453-.321 15.889-1.608.994-2.986-10.44-3.222-26.752l-.185-12.74-1.22 8.367c-.672 4.602-1.39 13.52-1.598 19.817-.222 6.76-.956 11.299-1.791 11.08-.854-.224-1.218-5.14-.918-12.386.304-7.356-.048-12.015-.91-12.015-2.175 0-3.127 3.75-3.127 12.32 0 6.247-.372 7.535-1.827 6.327-1.382-1.146-1.58-4.383-.811-13.267 1.049-12.138-.065-16.796-8.316-34.761-1.635-3.56-1.739-5.065-.456-6.61 1.32-1.592.603-3.472-3.506-9.192-4.8-6.68-6.836-7.94-11.755-7.267-2.14.293-4.831-2.853-7.804-9.125C-.394 41.191-.91 38.205 1.39 38.205c1.155 0 2.432.796 2.837 1.77.758 1.82 2.41.318 6.085-5.54 1.448-2.31 1.865-2.362 3.725-.477 2.597 2.634 8.09 17.377 8.09 21.715 0 4.219 8.425 15.723 10.209 13.94 1.731-1.731-1.44-13.107-4.308-15.46-1.574-1.29-8.562-19.514-8.712-22.721-.041-.87 6.414 3.041 7.44 4.508.74 1.06 1.7.758 3.004-.945 1.062-1.386 2.875-2.134 4.065-1.677 2.87 1.102 4.734 17.62 2.466 21.858-2.048 3.827-.48 11.27 2.603 12.358 1.289.455 3.467 1.792 4.84 2.972 2.373 2.04 2.45 1.307 1.55-14.724-.928-16.516-1.048-16.986-5.712-22.467-4.62-5.428-8.832-15.518-7.172-17.178.449-.45 3.669.445 7.155 1.987l6.338 2.804 2.503-5.552C52.032 7.314 64.123-.02 73.75 0c9.396.02 20.05 5.061 26.423 12.507l4.99 5.83 3.941-4.115c7.813-8.155 10.45-.741 4.376 12.305-1.903 4.087-4.057 7.431-4.786 7.431-1.886 0-1.562 7.912-2.52 10.328 4.345 1.912 3.626 5.121-1.424 4.498-1.937 2.202-3.322 6.61-5.29 9.535-3.184 4.693-3.212 5.104-2.053 30.187.647 13.986 1.429 28.932 1.738 33.214.334 4.615-.054 8.167-.953 8.723-.834.516-1.415 3.507-1.292 6.648.234 5.973-1.95 9.153-3.504 5.103zm-50.057-39.937c-.016-3.034-.325-3.424-1.394-1.77-1.79 2.77-1.79 5.662 0 5.662.779 0 1.406-1.751 1.394-3.892zm2.853-22.421c0-1.018-1.593-3.57-3.54-5.67-2.681-2.894-3.538-3.254-3.538-1.488 0 2.633-1.574 3.021-3.685.91-.951-.951-2.296-.782-4.066.512-2.567 1.877-2.547 2.179.658 10.268 5.878 14.833 5.453 14.602 10.061 5.466 2.26-4.48 4.11-8.98 4.11-9.998zm48.127 1.011c0-8.068-1.568-14.522-3.373-13.88-1.555.552-1.632 9.68-.137 16.18 1.188 5.164 3.51 3.643 3.51-2.3zm-43.43-4.777c-1.005-6.452-1.866-6.724-1.866-.59 0 2.855.581 5.19 1.292 5.19.71 0 .969-2.07.574-4.6zm34.937-1.062c0-4.901-2.193-5.657-3.595-1.239-.599 1.887-.239 3.462.966 4.225 2.673 1.694 2.629 1.743 2.629-2.986zm-13.093 1.435c4.919-.016 6.015-.5 6.015-2.658 0-2.022-1.405-2.844-6.015-3.52-3.31-.484-7.45-1.282-9.201-1.772-2.894-.81-3.185-.409-3.185 4.392 0 4.79.298 5.204 3.185 4.43 1.751-.469 5.892-.861 9.2-.872zm-17.11-10.282c-.394-.973-.715-.177-.715 1.77 0 1.946.322 2.742.714 1.77.393-.974.393-2.567 0-3.54zm30.303-1.442c2.622-1.766 6.639-6.24 8.927-9.942 4.057-6.561 0 0 4.113-7.536-3.709-2.254-1.157-4.12 1.141-3.562 4.652-5.396 2.783-24.428-4.78-30.704-3.78-3.137-10.433-3.392-19.362-.743-4.85 1.44-9.327 3.573-9.949 4.74-1.437 2.702-6.098 45.34-5.069 46.37 1.096 1.095 13.694 4.38 17.238 4.493 1.637.053 5.12-1.35 7.741-3.116zM72.547 54.45c-2.412-2.412-3.033-4.92-1.217-4.92 1.378 0 4.99 5.73 4.146 6.575-.35.35-1.668-.394-2.929-1.654zm4.314-20.019c-1.78-1.78-.943-6.134 1.18-6.134 1.32 0 2.123 1.337 2.123 3.54 0 3.436-1.378 4.519-3.303 2.594zm13.905-1.245c-1.13-2.033-.453-4.28.368-5.1 1.998-1.998 4.425 1.856 3.232 5.134-.977 2.687-2.7 1.586-3.6-.032zM50.024 59.1c-.339-1.76-.629-.653-.644 2.46-.016 3.115.26 4.556.615 3.202.355-1.353.367-3.901.028-5.662zm-37.172-8.82c-2.583-4.795-5.883-7.297-7.497-5.683-1.32 1.32 4.233 10.42 6.697 10.973 3.542.797 3.66.02.8-5.29zm46.107-17.737c2.039-16.68 4.635-21.786 11.365-22.349 8.26-.69 9.17-1.375 6.202-4.655-3.103-3.429-6.85-2.836-14.632 2.313-5.881 3.892-11.998 13.47-11.034 17.277.423 1.667.966.987 1.687-2.109.585-2.513 2.061-5.38 3.281-6.37 1.92-1.559 2.048-1.42.956 1.03-.694 1.557-1.401 11.112-1.572 21.233-.335 19.92.763 18.055 3.747-6.37zM33.98 46.344c-1.086-7.095-1.487-7.745-3.524-5.708-1.102 1.102-1.015 2.97.308 6.63 2.512 6.947 4.341 6.423 3.216-.922zm-17.812-.708c-2.179-5.127-3.948-7.14-3.948-4.49 0 2.025 3.796 8.383 5.005 8.383.328 0-.148-1.752-1.057-3.893zM50.72 35.091c-1.32-1.321-1.698-.944-1.698 1.698 0 2.643.377 3.02 1.698 1.699 1.322-1.321 1.322-2.076 0-3.397zm-6.044-9.235c.055-.954-1.812-2.722-4.147-3.93-5.18-2.677-5.507-.958-1.16 6.076 2.741 4.436 3.205 4.692 4.147 2.29.583-1.486 1.105-3.483 1.16-4.436zm65.728-6.01c-.953-.952-3.308 3.091-3.275 5.62.017 1.23.851.636 1.986-1.414 1.077-1.945 1.657-3.838 1.289-4.206zM85.255 5.357c-1.292-.723-3.444-1.05-4.782-.727-1.958.473-1.743.873 1.106 2.052 4.12 1.705 7.144.616 3.677-1.325z" fill="#00B894"/>
</svg>