<?xml version="1.0" ?><svg height="154.00952mm" viewBox="0 0 140.90105 154.00952" width="140.90105mm" xmlns="http://www.w3.org/2000/svg"><path color="#000" d="m 585.38672,650.76562 c -1.49346,0.13489 -3.0712,1.63204 -4.21094,5.0254 -1.76107,5.7321 -15.08594,46.63867 -15.08594,46.63867 0,0 -4.1035,-7.04136 -6.26562,-20.45899 -2.16212,-13.41762 -7.93501,-21.47565 -29.24414,-21.34375 -21.30917,0.1321 -19.01239,10.43261 -22.62891,16.82617 -3.61651,6.39357 -3.02344,28.58204 -3.02344,28.58204 0,0 -14.38294,16.1656 -15.35156,19.59961 -0.96858,3.43396 -1.96646,16.32477 -2.20117,20.84179 -0.23482,4.51703 0.38052,15.90238 10.00781,21.23828 5.18972,3.13933 2.29567,10.49471 3.99219,11.80078 l -3.76367,7.51172 c 5.48708,-0.39991 7.57829,6.77211 9.39844,-2.25586 0.73072,-3.62443 0.33653,-5.92029 -0.39063,-7.38867 0.6642,-0.46997 1.38729,-1.0035 2.21094,-1.63867 0,0 18.31579,6.23367 32.3164,6.1543 4.78344,-0.0271 9.65634,-0.96455 14.27344,-2.5293 -0.15704,4.39777 0.54102,8.23047 0.54102,8.23047 l -0.50977,5.27539 c 0,0 4.53571,3.53022 5.47852,-1.65234 0.94276,-5.18257 3.98433,2.05277 3.98437,2.05273 4e-5,-4e-5 2.59043,-6.1347 -0.36523,-11.17969 -1.14657,-1.95698 -2.68821,-3.51566 -4.15039,-4.70508 6.81707,-3.12444 12.68732,-7.57221 16.23437,-12.42382 6.66278,-9.11328 5.21485,-13.71289 5.21485,-13.71289 -3.66562,-11.57186 -5.12042,-24.90236 -11.93555,-33.9668 l 10.56641,-28.50195 c 10.47719,3.3527 6.99946,27.42593 10.16992,41.6289 11.02718,-20.08229 18.84003,-41.86223 24.77929,-64.63086 l -26.97656,-1.79101 c 3.09873,-7.22407 0.22117,-13.52331 -3.06445,-13.22657 z" fill="#FFFFFF" overflow="visible" paint-order="fill markers stroke" transform="translate(-147.89904,-154.61834) matrix(4.0124687,0,0,4.0124687,-365.9145,-535.36301) scale(0.26458333)"/><path d="m 149.46694,209.8875 c -0.24481,-0.29498 -0.34035,-0.90313 -0.21829,-1.38949 0.11939,-0.47569 0.0577,-0.96338 -0.13699,-1.08373 -0.2147,-0.13269 -0.35408,0.34482 -0.35408,1.2131 0,0.78756 -0.15875,1.43193 -0.35277,1.43193 -0.19403,0 -0.35278,-0.23812 -0.35278,-0.52916 0,-0.29105 -0.15875,-0.52917 -0.35278,-0.52917 -0.19403,0 -0.35278,0.23812 -0.35278,0.52917 0,0.29104 -0.13663,0.52916 -0.30364,0.52916 -0.42587,0 -0.78205,-3.39576 -0.45494,-4.33735 0.32472,-0.9347 0.20585,-6.21863 -0.14723,-6.54494 -0.13701,-0.12661 -0.31998,-0.0318 -0.4066,0.21076 -0.0866,0.24254 -0.4441,0.44098 -0.79439,0.44098 -0.4567,0 -0.70706,0.37429 -0.88488,1.32291 -0.38072,2.03098 -1.14726,3.61598 -1.74878,3.61598 -0.69395,0 -1.96232,-1.07679 -1.96232,-1.66591 0,-0.72084 -0.75349,-0.52005 -0.95611,0.25479 -0.24801,0.94841 -1.05607,0.89565 -1.35074,-0.0882 -0.13075,-0.43656 -0.5342,-1.03187 -0.89655,-1.32291 -0.36236,-0.29104 -0.8742,-1.15504 -1.13744,-1.91999 l -0.47861,-1.39083 -0.52635,1.05509 c -0.29062,0.58256 -0.46146,1.61094 -0.38146,2.29621 0.20309,1.73963 -0.50562,4.10535 -1.36815,4.56696 -0.3968,0.21236 -0.88319,0.85006 -1.08086,1.41711 -0.19768,0.56705 -0.50263,1.031 -0.67768,1.031 -0.48462,0 -0.37968,-1.19228 0.17127,-1.94574 0.40334,-0.5516 0.40937,-0.79641 0.0343,-1.39034 -0.58337,-0.92363 -0.0931,-2.3917 0.6974,-2.08835 0.29849,0.11454 0.54271,0.0495 0.54271,-0.14452 0,-0.19403 -0.2457,-0.44706 -0.54599,-0.5623 -0.40851,-0.15676 -0.53108,-0.67703 -0.48678,-2.06621 0.0326,-1.02119 -0.0169,-2.1742 -0.11001,-2.56226 -0.0931,-0.38805 -0.0548,-1.02159 0.085,-1.40786 0.13982,-0.38626 0.1154,-1.18001 -0.0543,-1.76388 -0.33636,-1.15735 -0.0773,-3.00187 0.42163,-3.00187 0.17153,0 0.2973,0.72576 0.2795,1.61281 -0.0385,1.91743 0.56525,2.81893 0.8694,1.29819 0.12534,-0.62673 0.54784,-1.1709 1.10684,-1.4256 0.52321,-0.23839 0.90411,-0.70361 0.90411,-1.10424 0,-0.79354 -0.77065,-1.42062 -0.97872,-0.7964 -0.0761,0.22838 -0.30422,0.41524 -0.50688,0.41524 -0.2323,0 -0.28508,-0.52147 -0.14282,-1.41111 0.26537,-1.65956 0.001,-1.76945 -1.06074,-0.44097 -0.87419,1.09377 -1.46572,0.90715 -0.83862,-0.26459 0.76004,-1.42014 0.12781,-1.0696 -1.08715,0.60277 -1.50575,2.07266 -1.73733,2.63657 -1.3051,3.17803 0.22874,0.28656 0.13574,0.97152 -0.27958,2.05901 -0.49401,1.29355 -0.52953,1.68699 -0.17223,1.90781 0.55544,0.34328 0.1452,1.8773 -0.44907,1.67921 -0.22607,-0.0754 -0.42475,-0.28253 -0.44151,-0.46039 -0.0167,-0.17786 -0.15631,-0.61033 -0.31011,-0.96105 -0.16884,-0.38497 -0.0584,-1.20104 0.27878,-2.05931 0.4149,-1.05622 0.46079,-1.578 0.17853,-2.02996 -0.51204,-0.81991 0.35399,-2.45963 2.52333,-4.7776 1.55217,-1.65852 1.69002,-1.9585 1.95477,-4.25379 0.15666,-1.3582 0.32749,-3.54994 0.37962,-4.87053 0.0923,-2.33838 0.13454,-2.43686 1.61711,-3.77096 2.0823,-1.87378 3.99084,-2.27528 7.56492,-1.59145 2.79355,0.5345 3.50968,0.86939 5.1581,2.41213 0.80324,0.75175 0.97014,1.20584 0.97014,2.63945 0,2.41508 0.38992,5.00497 0.75351,5.00497 0.16766,0 0.30483,-0.26654 0.30483,-0.59232 0,-0.72029 0.60745,-2.62136 1.44524,-4.52296 0.34193,-0.77611 0.97239,-2.60174 1.40103,-4.05695 0.9085,-3.08432 1.19371,-3.52777 2.269,-3.52777 1.18326,0 1.66835,0.79783 1.38934,2.28505 l -0.24017,1.2802 3.24149,-0.0656 c 2.03751,-0.0412 3.39061,0.0835 3.64298,0.33592 0.57651,0.5765 -0.0664,3.32801 -1.87181,8.01045 -0.81698,2.11891 -1.82323,4.72978 -2.23612,5.80193 -0.94366,2.45039 -2.21609,4.24897 -2.83733,4.01058 -0.34618,-0.13284 -0.51543,-1.29231 -0.62848,-4.30559 -0.15064,-4.01512 -0.7821,-6.41685 -1.68711,-6.41685 -0.17994,0 -0.81584,1.52556 -1.41311,3.39012 -0.84915,2.65088 -0.99567,3.4989 -0.67192,3.88899 0.4818,0.58054 2.09467,6.57086 1.83935,6.83145 -0.37828,0.38606 -1.10666,-1.18858 -1.51216,-3.26901 -0.36431,-1.86917 -0.86831,-3.01499 -2.17979,-4.95575 -0.12427,-0.1839 -0.93025,0.40068 -1.79106,1.29907 -1.34405,1.40272 -1.54134,1.79545 -1.39678,2.78037 0.0926,0.63081 0.36344,1.30576 0.60192,1.49988 0.65167,0.53045 0.94514,3.59342 0.42563,4.44224 -0.36204,0.59154 -0.33929,0.76734 0.13417,1.03665 0.37563,0.21368 0.51204,0.62822 0.39984,1.21515 -0.11957,0.62552 -0.016,0.89084 0.3478,0.89084 0.425,0 0.51158,-0.66552 0.48187,-3.70416 -0.0199,-2.0373 0.0561,-3.70417 0.16897,-3.70417 0.55046,0 1.09919,1.80082 0.87809,2.88171 -0.13222,0.64638 -0.22485,1.85432 -0.20585,2.6843 0.019,0.82999 -0.0853,1.70302 -0.23183,1.94007 -0.14651,0.23705 -0.22162,0.85769 -0.16691,1.3792 0.0547,0.52151 -0.0627,1.25113 -0.26081,1.62137 -0.26889,0.50242 -0.21221,0.88453 0.22347,1.50654 0.32105,0.45837 0.60673,1.51479 0.63485,2.3476 0.0576,1.70623 0.0554,1.71034 -0.54278,0.98963 z m -1.29122,-3.0853 c 0.29628,-1.13298 -0.37894,-1.65004 -0.77707,-0.59505 -0.17716,0.46945 -0.25201,0.97261 -0.16633,1.11813 0.29735,0.505 0.73852,0.26039 0.9434,-0.52308 z m -14.90374,-1.78627 c -0.45279,-0.45279 -0.91195,-0.10284 -0.57673,0.43955 0.12985,0.2101 0.3977,0.28212 0.59523,0.16004 0.24094,-0.14891 0.23486,-0.34623 -0.0185,-0.59959 z m 15.41072,-1.80559 c -0.0558,-0.37427 -0.28647,-0.74134 -0.51254,-0.81573 -0.54518,-0.17939 -0.93421,1.1163 -0.62637,2.08621 0.23934,0.75409 0.2561,0.75614 0.74265,0.0908 0.27377,-0.37442 0.45209,-0.98697 0.39626,-1.36124 z m -5.92234,0.10455 c 0,-0.19402 -0.15875,-0.25466 -0.35278,-0.13474 -0.19402,0.11991 -0.35277,0.37677 -0.35277,0.5708 0,0.19403 0.15875,0.25467 0.35277,0.13475 0.19403,-0.11992 0.35278,-0.37678 0.35278,-0.57081 z m -0.15492,-0.78325 c 0.31459,0.12072 0.53854,-0.25849 0.69338,-1.17409 0.38038,-2.24931 0.55581,-2.64882 1.07553,-2.44939 0.83409,0.32007 1.33061,-1.23166 1.35826,-4.24489 0.0218,-2.3737 -0.0928,-3.00422 -0.65973,-3.6315 -0.59529,-0.65861 -0.63637,-0.9454 -0.31037,-2.16675 0.3276,-1.22737 0.29419,-1.4513 -0.26085,-1.74835 -0.82553,-0.44182 -3.55638,-0.43789 -4.72598,0.007 -0.98644,0.37504 -1.07709,0.54101 -1.42073,2.60125 -0.12487,0.74869 -0.58953,1.70119 -1.03255,2.11667 -1.52404,1.42927 -1.49056,7.98736 0.0408,7.98736 0.25206,0 0.45829,-0.32687 0.45829,-0.72638 0,-0.43609 0.15426,-0.63104 0.386,-0.48781 0.2123,0.13121 0.30882,0.64231 0.21448,1.13578 -0.15681,0.82034 0.32624,2.90063 0.67354,2.90063 0.0807,0 0.47082,-0.19844 0.86701,-0.44097 0.61198,-0.37464 0.77596,-0.343 1.0901,0.21039 0.25092,0.44201 0.48521,0.53591 0.72897,0.29215 0.19757,-0.19757 0.56831,-0.27897 0.82387,-0.1809 z m -5.48952,-5.48395 c 0,-1.0528 0.13373,-1.46606 0.44097,-1.36269 0.48833,0.16431 0.40276,1.99678 -0.11854,2.53862 -0.1967,0.20445 -0.32243,-0.25408 -0.32243,-1.17593 z m 2.91041,-8.0367 c -0.24253,-0.0974 -0.44097,-0.38505 -0.44097,-0.63916 0,-0.95915 2.4531,-1.23097 3.18208,-0.3526 0.24543,0.29573 0.38393,0.59217 0.30778,0.65875 -0.28372,0.24807 -2.62402,0.50368 -3.04889,0.33301 z m 1.58016,-0.68426 c -0.11723,-0.11723 -0.4215,-0.12976 -0.67616,-0.0278 -0.28142,0.11261 -0.19783,0.19621 0.21314,0.21313 0.37188,0.0153 0.58024,-0.0681 0.46302,-0.18528 z m -7.53348,12.95624 c -0.11168,-0.55838 -0.0425,-1.31531 0.15383,-1.68208 0.29131,-0.54432 0.20061,-0.74058 -0.49369,-1.06824 -0.67658,-0.3193 -0.85057,-0.30421 -0.85057,0.0738 0,0.26134 0.14706,0.56604 0.32679,0.67713 0.20053,0.12393 0.20053,0.64219 0,1.3414 -0.44872,1.56461 -0.42469,1.67327 0.36995,1.67327 0.57943,0 0.66255,-0.17093 0.49369,-1.01524 z m 1.36386,-4.10787 c -0.13641,-0.71359 -0.26728,-0.8091 -0.66098,-0.48236 -0.37149,0.30831 -0.39352,0.52473 -0.0906,0.88977 0.61916,0.74604 0.93892,0.5727 0.75155,-0.40741 z m 11.71815,0.56137 c 0.11163,-0.18063 0.0416,-0.42812 -0.15557,-0.54999 -0.19719,-0.12187 -0.35853,0.0259 -0.35853,0.3284 0,0.61966 0.21169,0.7109 0.5141,0.22159 z m -13.56688,-0.55355 c 0.35968,-0.43339 0.33558,-0.52916 -0.1332,-0.52916 -0.31479,0 -0.57236,0.23812 -0.57236,0.52916 0,0.29104 0.0599,0.52917 0.1332,0.52917 0.0733,0 0.33082,-0.23813 0.57236,-0.52917 z m 28.10046,-18.26586 c 0.3151,-1.12094 0.46377,-2.14722 0.33038,-2.28061 -0.13339,-0.1334 -1.47942,-0.19567 -2.99116,-0.13838 -1.8763,0.0711 -3.15847,-0.0671 -4.03999,-0.43542 -0.71025,-0.29675 -1.29546,-0.50797 -1.30047,-0.46936 -0.005,0.0386 -0.39401,1.18144 -0.86446,2.53963 -0.77223,2.22948 -0.80034,2.50373 -0.28922,2.82223 2.91718,1.81781 3.73267,3.56982 3.66788,7.88009 -0.0214,1.42391 0.0639,2.7552 0.18945,2.95843 0.2524,0.4084 4.39067,-9.6503 5.29759,-12.87661 z m -24.56395,11.18734 c 0.48104,-1.26522 0.43986,-1.45719 -0.35726,-1.66564 -0.38572,-0.10087 -0.8926,-0.63532 -1.12639,-1.18767 l -0.42509,-1.00428 -0.12917,0.94325 c -0.19104,1.39511 0.5513,3.81925 1.16956,3.81925 0.28837,0 0.67912,-0.40721 0.86835,-0.90491 z m 9.89575,-0.7134 0.85524,-0.91276 -1.05833,0.11901 c -0.78367,0.0881 -1.08759,0.32501 -1.17107,0.91276 -0.14836,1.04468 0.32195,1.00395 1.37416,-0.11901 z m -13.07948,-1.20391 c 0,-0.19403 -0.16812,-0.35278 -0.3736,-0.35278 -0.20548,0 -0.27549,0.15875 -0.15557,0.35278 0.11992,0.19403 0.28804,0.35278 0.3736,0.35278 0.0856,0 0.15557,-0.15875 0.15557,-0.35278 z m 17.63178,-2.82222 c 0.44564,-1.45521 0.88467,-2.84427 0.9756,-3.08681 0.0973,-0.2595 -0.12068,-0.44097 -0.52968,-0.44097 -0.53201,0 -0.83602,0.44833 -1.29631,1.91168 -0.33071,1.05143 -0.82869,1.99894 -1.10662,2.1056 -0.68001,0.26094 -0.63854,1.24802 0.0861,2.04869 0.75719,0.8367 0.89442,0.65053 1.87095,-2.53819 z m -3.19269,0.77293 c 0.0139,-0.45793 -0.12966,-0.71911 -0.32798,-0.59654 -0.19403,0.11991 -0.34162,0.80397 -0.32798,1.52012 0.02,1.0494 0.0836,1.16517 0.32798,0.59654 0.16675,-0.38805 0.31434,-1.07211 0.32798,-1.52012 z m -1.93212,1.0835 c 0.12938,-0.33716 0.32949,-1.62241 0.4447,-2.85611 0.16039,-1.71765 0.0935,-2.31496 -0.28569,-2.54983 -0.56582,-0.3505 -6.36868,-0.4152 -8.87362,-0.0989 l -1.6757,0.21157 v 2.18018 c 0,1.31903 0.19643,2.44881 0.49731,2.86028 0.49035,0.6706 0.50812,0.67031 1.27176,-0.0208 0.64503,-0.58374 1.2762,-0.70087 3.77685,-0.70087 2.6897,0 3.06244,0.0813 3.57894,0.78059 0.70279,0.95153 0.95962,0.99088 1.26545,0.1939 z m -7.32929,-2.25202 c 0.44989,-0.44988 0.92459,-0.63946 1.19017,-0.47532 0.33256,0.20553 0.45653,0.81993 -0.0328,1.17772 -0.35751,0.26142 -1.27551,0.86273 -1.65192,0.56401 -0.32864,-0.26081 -0.0868,-0.68511 0.49452,-1.26641 z m -1.77056,-0.54821 c -0.48297,-0.48297 -0.20449,-1.17287 0.47343,-1.17287 0.38806,0 0.70556,0.13931 0.70556,0.30959 0,0.46261 -0.91193,1.13034 -1.17899,0.86328 z m 5.39838,-0.6605 c -0.3299,-0.3975 -0.30164,-0.54879 0.13371,-0.71584 0.59509,-0.22837 1.29134,0.0624 1.29134,0.53933 0,0.55559 -1.00693,0.68032 -1.42505,0.17651 z m -7.39439,-2.12069 c 0,-0.27959 -0.15875,-0.50835 -0.35278,-0.50835 -0.19403,0 -0.35278,0.32687 -0.35278,0.72638 0,0.39951 0.15875,0.62826 0.35278,0.50835 0.19403,-0.11992 0.35278,-0.44679 0.35278,-0.72638 z m 3.88055,-1.77317 c 0,-0.35901 -0.46246,-0.49906 -1.64791,-0.49906 -1.03834,0 -1.88656,-0.21597 -2.29306,-0.58385 -0.61299,-0.55475 -0.64517,-0.52399 -0.64588,0.61736 l -7.9e-4,1.20121 2.2938,-0.1183 c 1.6865,-0.087 2.29379,-0.25042 2.29379,-0.61736 z m 8.21192,-0.1623 c -0.16766,-0.64117 -0.42417,-0.70938 -2.32013,-0.61701 -2.85621,0.13916 -2.94511,0.77389 -0.16752,1.19607 2.60444,0.39587 2.73468,0.36555 2.48765,-0.57906 z m -5.44841,-0.10965 c 0.20366,-1.06791 -0.60062,-1.58882 -1.19975,-0.77705 -0.27798,0.37663 -0.50542,0.90361 -0.50542,1.17106 0,0.7376 1.55802,0.37758 1.70517,-0.39401 z M 139.8492,178.128 c 0.16439,-0.29376 0.23328,-1.09609 0.15309,-1.78296 0.10766,-2.68909 -4.53556,0.4765 -4.65026,1.20611 0,1.12535 3.90957,1.62682 4.49717,0.57685 z m 6.76016,-0.37973 c 0.33909,-0.32822 -1.23236,-1.57923 -2.38274,-1.89686 -0.68761,-0.18986 -1.27775,-0.30981 -1.31143,-0.26657 -0.0337,0.0433 -0.17255,0.6936 -0.3086,1.44522 l -0.24736,1.36659 2.05265,-0.2541 c 1.12896,-0.13976 2.11782,-0.31719 2.19748,-0.39428 z m -4.90733,-1.58502 c 0,-0.61896 -0.16344,-1.03326 -0.37924,-0.96132 -0.20858,0.0695 -0.36733,0.2415 -0.35277,0.38217 0.0145,0.14067 0.0265,0.57327 0.0265,0.96132 0,0.38806 0.15875,0.70556 0.35278,0.70556 0.19403,0 0.35278,-0.48948 0.35278,-1.08773 z m 13.53598,-1.82269 c 0.32282,-1.2046 0.27961,-1.32291 -0.4832,-1.32291 -0.50397,0 -0.70556,0.23518 -0.70556,0.82314 0,1.43293 0.84364,1.7876 1.18876,0.49977 z m -22.12666,33.78774 c -0.10888,-0.28371 -0.0628,-0.59939 0.10245,-0.7015 0.16523,-0.10211 0.38949,0.0465 0.49836,0.33018 0.10887,0.28372 0.0628,0.59939 -0.10246,0.70151 -0.16523,0.10211 -0.38948,-0.0465 -0.49835,-0.33019 z m 1.03522,-0.49109 c -0.15197,-0.24588 -0.18103,-0.54233 -0.0646,-0.65878 0.31572,-0.31572 0.65997,0.14863 0.48944,0.66021 -0.11949,0.35848 -0.20259,0.3582 -0.42485,-0.001 z m -4.43899,-7.45568 c 0,-0.19402 0.14939,-0.35277 0.33196,-0.35277 0.18258,0 0.43007,0.15875 0.54999,0.35277 0.11991,0.19403 -0.0295,0.35278 -0.33196,0.35278 -0.30249,0 -0.54999,-0.15875 -0.54999,-0.35278 z m 20.95721,-0.75907 c -0.13811,-0.22346 0.0185,-0.60346 0.34809,-0.84444 0.43657,-0.31923 0.53343,-0.70017 0.35688,-1.40359 -0.3214,-1.28057 0.56642,-1.03905 1.0038,0.27308 0.24409,0.73228 0.15643,1.07828 -0.41893,1.65364 -0.84274,0.84274 -0.95092,0.86969 -1.28984,0.32131 z m 3.28239,-0.65298 c -0.32299,-0.46114 -0.50775,-0.91794 -0.41058,-1.01511 0.30294,-0.30294 1.30829,0.92218 1.14897,1.40015 -0.0999,0.29968 -0.35022,0.16914 -0.73839,-0.38504 z m -6.21575,-6.1334 c -0.22258,-0.56049 -0.33374,-1.09002 -0.24702,-1.17674 0.25951,-0.25952 0.97898,1.31861 0.80894,1.77439 -0.0865,0.23178 -0.33933,-0.0372 -0.56192,-0.59765 z m 1.37893,-0.39205 c -0.24932,-0.30041 -0.37394,-0.62559 -0.27693,-0.7226 0.097,-0.097 0.38038,0.0694 0.62971,0.36983 0.24933,0.30041 0.37394,0.62559 0.27693,0.7226 -0.097,0.097 -0.38038,-0.0694 -0.62971,-0.36983 z" fill="#00B894" transform="translate(-147.89904,-154.61834) matrix(4.0124687,0,0,4.0124687,-365.9145,-535.36301)"/></svg>