<?xml version="1.0" ?><svg height="146.6691mm" viewBox="0 0 178.6785 146.6691" width="178.6785mm" xmlns="http://www.w3.org/2000/svg">
    <path color="#000" d="M 911.75765,557.76678 778.73482,430.70082 977.60548,40.223269 l 91.47232,93.438981 52.372,-95.644031 89.2264,91.968961 47.9821,-72.215394 68.1959,144.155114 117.0969,-85.72129 -132.9208,344.53902 -162.0963,121.67692 -41.3684,-110.6517 -68.298,92.61211 -67.17497,-91.0502 z" fill="#FFFFFF" overflow="visible" paint-order="fill markers stroke" transform="translate(55.880278,-1.8448728) matrix(0.26458333,0,0,0.26458333,-261.19324,-5.9745911)"/>
    <path d="m 1148.934,582.42155 c -2.8671,-2.25683 -11.3177,-17.71226 -16.3866,-29.96963 -2.3457,-5.67172 -4.7266,-10.89224 -5.291,-11.60116 -0.5645,-0.70899 -2.2817,-5.34948 -3.8161,-10.31213 -1.5346,-4.96265 -3.314,-10.18317 -3.9543,-11.60115 -0.6405,-1.41792 -2.0832,-5.47831 -3.206,-9.02305 -2.1411,-6.75942 -7.8335,-21.07319 -10.4284,-26.22239 -1.5208,-3.01789 -5.0449,1.1419 -15.2935,18.05199 -4.0798,6.73144 -14.49,23.25106 -18.1456,28.7946 -2.3377,3.54482 -6.1738,9.69582 -8.525,13.66898 -12.5768,21.25304 -20.1765,28.42171 -27.2711,25.72433 -2.9337,-1.11539 -7.1798,-6.04389 -19.5024,-22.63727 -2.1055,-2.8352 -4.2908,-5.73499 -4.8561,-6.44391 -1.4201,-1.78069 -6.149,-8.65828 -13.29466,-19.33517 -3.3214,-4.96281 -6.7172,-9.60322 -7.5462,-10.31222 -0.8292,-0.70891 -3.0209,-3.89994 -4.8706,-7.09113 -1.8496,-3.19119 -4.5831,-6.90639 -6.0745,-8.25607 -1.4915,-1.34967 -2.7117,-3.05803 -2.7117,-3.79629 0,-1.69471 -6.49786,-11.14829 -7.66272,-11.14829 -0.47684,0 -2.78889,3.62535 -5.13785,8.05633 -2.34887,4.43091 -5.32164,9.21638 -6.60584,10.63438 -1.28436,1.41791 -2.94382,4.02821 -3.68776,5.80054 -0.74386,1.7724 -2.80876,5.54275 -4.58858,8.37865 -1.77991,2.83582 -3.61818,6.02606 -4.08532,7.08955 -0.46706,1.06341 -1.57458,2.80356 -2.46122,3.86705 -0.88655,1.06341 -3.73421,5.99388 -6.32802,10.9566 -2.59381,4.96273 -5.78374,10.4733 -7.08869,12.24563 -1.30487,1.77241 -4.79337,7.45896 -7.75217,12.63672 -9.7239,17.01643 -21.68279,16.68923 -23.9576,-0.65551 -0.86329,-6.58289 -1.18718,-6.99939 -17.15653,-22.06499 -8.95212,-8.44545 -20.97798,-19.92758 -26.72416,-25.51584 -17.12727,-16.65649 -32.63184,-30.73597 -45.5683,-41.37973 -34.86429,-28.6851 -36.67346,-31.57062 -29.72502,-47.4106 1.24398,-2.83582 4.36803,-9.91899 6.9422,-15.74043 2.57425,-5.82136 4.68049,-10.82929 4.68049,-11.12881 0,-0.29944 4.27952,-9.45784 9.51013,-20.35197 16.55024,-34.47065 20.59272,-42.99239 20.70845,-43.65438 0.0615,-0.35442 0.58941,-1.39574 1.17188,-2.31401 0.58247,-0.91827 4.53265,-8.42322 8.77803,-16.67778 4.24545,-8.25457 8.54548,-16.18817 9.55557,-17.63031 1.01009,-1.44204 1.83646,-3.46237 1.83646,-4.48943 0,-1.02712 0.75806,-2.7832 1.68454,-3.90247 0.92639,-1.11925 3.88984,-6.96547 6.58533,-12.99169 5.91026,-13.21319 25.79699,-53.29144 43.49307,-87.65292 7.11969,-13.82477 14.11426,-27.45613 15.54353,-30.29202 3.15877,-6.26776 29.08907,-54.65146 30.7415,-57.361072 2.22945,-3.655725 6.7435,-12.246412 6.77324,-12.890169 0.0465,-1.000386 7.50101,-14.588666 9.19327,-16.757221 0.82985,-1.063493 2.96937,-4.833834 4.7544,-8.378573 1.7851,-3.544816 3.85427,-7.605208 4.59822,-9.023119 2.56075,-4.880848 5.53446,-12.336101 5.54448,-13.900574 0.0213,-3.371118 6.17831,-4.718587 9.52619,-2.08502 1.7138,1.348021 3.4839,2.450876 3.9338,2.450876 1.3766,0 13.3408,10.435193 35.27256,30.764525 6.6032,6.120642 13.0351,11.12857 14.2931,11.12857 3.4982,0 6.5711,3.173359 6.5711,6.78617 0,1.951234 2.2191,5.876737 5.5582,9.832058 3.057,3.621179 9.1737,11.369479 13.5925,17.218379 4.419,5.84897 8.2432,10.63437 8.4984,10.63437 0.983,0 19.1845,-32.59713 28.0706,-50.271515 3.0296,-6.02622 5.8367,-11.246735 6.2381,-11.601154 0.4013,-0.354497 2.9785,-5.575013 5.7274,-11.601154 2.7487,-6.026219 5.7556,-11.87243 6.6821,-12.991613 0.9265,-1.119341 1.6845,-2.613373 1.6845,-3.32016 0,-3.982061 6.616,-7.594323 8.8551,-4.834701 1.205,1.485276 2.8535,2.935371 3.6629,3.222503 2.647,0.939174 17.4253,14.411733 32.0329,29.202812 15.4692,15.663675 16.8987,18.181022 19.8494,22.037188 9.2313,11.857411 8.5839,13.407088 17.4241,23.400574 2.2221,2.4814 5.6746,6.96665 7.6721,9.96734 3.4391,5.16608 5.8906,6.13996 5.8906,2.3402 0,-0.9458 0.8751,-2.05536 1.9446,-2.46579 1.0697,-0.41042 2.6534,-2.35763 3.5196,-4.32724 0.8661,-1.96947 3.1813,-5.84322 5.145,-8.60813 1.9634,-2.76499 3.57,-5.810242 3.57,-6.767322 0,-0.957158 0.5982,-1.740223 1.3294,-1.740223 0.7312,0 1.6921,-1.015059 2.1351,-2.255721 0.8691,-2.433759 10.6009,-19.473771 17.8042,-31.174396 14.3383,-23.290419 12.9008,-24.015979 33.0308,16.672976 7.1902,14.533604 13.5758,27.432056 14.1902,28.663096 0.6144,1.23112 1.1171,2.86809 1.1171,3.63798 0,1.14703 10.6932,26.48547 18.8986,44.78193 1.0491,2.33949 2.9944,7.56001 4.3225,11.60108 1.3283,4.04114 4.3794,11.58569 6.7805,16.76565 4.9458,10.67003 4.0628,10.96024 12.9695,-4.26201 10.6258,-18.16046 17.2238,-23.03492 22.3973,-16.54668 2.9072,3.64594 2.9072,3.64594 4.9349,0.75088 1.1152,-1.59217 2.8165,-2.89499 3.7806,-2.89499 0.9642,0 1.9465,-0.43504 2.1828,-0.96678 0.2363,-0.53174 3.0399,-2.9771 6.2302,-5.43429 9.2995,-7.16228 37.7474,-31.89081 47.5274,-41.31354 12.1644,-11.71988 14.972,-12.70859 17.3274,-6.10171 0.4423,1.24066 1.6791,2.25572 2.7484,2.25572 5.3029,0 6.9226,9.22198 2.5062,14.26903 -0.9738,1.11296 -2.8553,5.17335 -4.1811,9.0232 -1.3259,3.84978 -3.6497,9.3093 -5.1643,12.13227 -1.5144,2.8228 -3.1104,7.03473 -3.5465,9.35955 -0.4362,2.3249 -1.3074,4.54489 -1.9359,4.93338 -0.6286,0.38851 -1.1429,1.69377 -1.1429,2.90082 0,1.2069 -2.6102,8.20788 -5.8005,15.55759 -3.1904,7.34987 -5.8005,14.06062 -5.8005,14.91279 0,0.85225 -1.4478,4.40314 -3.2173,7.89085 -1.7695,3.48762 -3.2196,7.3221 -3.2225,8.52087 0,1.19893 -0.5704,2.52889 -1.2609,2.95573 -0.6907,0.42675 -2.1065,3.50631 -3.1467,6.84344 -1.6418,5.26713 -14.212,37.43284 -17.4835,44.73782 -0.6351,1.41792 -1.5536,4.02822 -2.0413,5.80054 -0.9709,3.52928 -11.9632,30.33573 -16.6499,40.60401 -1.6181,3.54481 -3.3411,7.89525 -3.8288,9.66758 -0.4878,1.77249 -1.6742,4.96281 -2.6364,7.08963 -4.6034,10.1752 -6.3705,14.7477 -10.1453,26.25253 -2.241,6.82988 -5.0793,13.84813 -6.3072,15.59608 -1.228,1.74788 -2.6092,5.22825 -3.0695,7.7341 -0.4601,2.50577 -1.2029,4.84598 -1.6505,5.2004 -0.4478,0.35449 -3.337,6.73514 -6.4207,14.17918 -9.4421,22.79473 -10.8375,25.94924 -17.9093,40.49073 -4.1546,8.54296 -6.6883,15.37316 -6.4528,17.39538 0.6603,5.67062 -14.3323,19.57443 -44.6077,41.36813 -4.4319,3.19032 -13.1692,9.47906 -19.4161,13.9752 -6.2468,4.49599 -12.0016,8.72329 -12.7882,9.39379 -4.1341,3.52439 -17.6685,12.72333 -18.7195,12.72333 -0.6696,0 -2.2104,0.99314 -3.424,2.20689 -1.2138,1.21361 -3.0582,2.33169 -4.0988,2.48433 -1.0406,0.1528 -3.1342,1.4262 -4.6526,2.82975 -1.5184,1.40363 -6.886,5.36116 -11.9281,8.79443 -21.0605,14.34074 -35.3036,26.55718 -35.3036,30.28011 0,4.2621 -7.8823,6.48989 -11.8663,3.35393 z m 8.7656,-24.81207 c 2.0598,-1.77145 4.4703,-3.22163 5.3565,-3.2225 0.8862,0 1.6113,-0.48008 1.6113,-1.06491 0,-1.02705 19.7348,-15.69389 21.1169,-15.69389 2.2823,0 18.8425,-13.07081 18.8425,-14.87225 0,-0.73574 2.0829,-6.2463 4.6285,-12.2457 2.5456,-5.99932 4.9673,-12.05228 5.3815,-13.45095 0.4141,-1.39858 1.5181,-4.00888 2.4532,-5.80053 0.9351,-1.79173 1.7036,-4.56272 1.7081,-6.15788 0,-1.59516 0.4463,-2.90027 0.9822,-2.90027 0.5359,0 1.7347,-1.88521 2.6641,-4.18928 4.8114,-11.92812 9.2408,-20.82724 15.879,-31.90209 8.4024,-14.01827 8.4413,-14.36709 1.0493,-9.43954 -11.1124,7.40801 -21.1732,11.58578 -22.5471,9.36279 -1.0394,-1.68209 5.4464,-7.6501 16.0344,-14.75385 5.328,-3.57456 9.1483,-7.0505 9.1483,-8.3232 0,-2.65509 5.9573,-11.73099 12.3008,-18.74032 5.0891,-5.62305 16.8802,-21.3283 19.8532,-26.44334 6.2112,-10.6866 13.1509,-26.97021 13.1765,-30.9178 0,-0.3545 0.4797,-1.22457 1.0608,-1.93349 1.018,-1.24191 2.9692,-10.9566 2.2005,-10.9566 -0.2071,0 -4.4093,2.10955 -9.3383,4.6879 -4.9289,2.57835 -11.1,5.76441 -13.7135,7.08009 -2.6135,1.31568 -5.1374,3.01583 -5.6086,3.77823 -0.4711,0.76224 -2.8714,1.2125 -5.3339,1.0003 -5.17,-0.44544 -4.9119,-0.7915 -14.099,18.90133 -3.3076,7.08964 -11.7865,24.78138 -18.8422,39.31498 -7.0557,14.53361 -16.8868,36.28574 -21.8467,48.33811 -24.3223,59.10128 -36.4224,85.89021 -42.0305,93.05312 -2.775,3.54419 -9.2993,5.41465 -9.2993,2.66607 0,-2.33011 2.716,-10.4131 3.7932,-11.28878 0.436,-0.35441 2.7273,-4.99491 5.0917,-10.31205 2.3644,-5.31723 6.2418,-13.72799 8.6161,-18.69079 2.3745,-4.96265 6.7261,-15.40368 9.6701,-23.20223 2.9441,-7.79855 6.1129,-15.91933 7.0416,-18.04616 6.7354,-15.42356 7.175,-11.46729 -3.294,-29.64739 -4.2993,-7.46614 -3.6357,-7.32573 -13.1034,-2.77154 -21.5594,10.37075 -40.0272,3.90484 -50.9907,-17.85266 -1.7862,-3.54482 -4.2487,-7.89525 -5.4724,-9.66759 -8.4102,-12.18235 -5.8359,-50.7967 4.7799,-71.6973 7.8052,-15.36677 -2.9708,-35.0756 -11.0144,-20.14506 -2.1961,4.07641 -5.1726,9.44198 -6.6141,11.9233 -1.4415,2.48141 -4.3807,7.70192 -6.5316,11.60116 -2.1508,3.89924 -4.9107,8.59707 -6.1334,10.43961 -13.1878,19.87481 -15.6485,25.58472 -12.0063,27.85929 1.3542,0.84578 2.8385,3.25153 3.2987,5.34633 0.46,2.09465 2.8324,6.61595 5.2719,10.04718 2.4395,3.43121 4.4355,6.65672 4.4355,7.1678 0,0.511 3.7273,8.63359 8.2831,18.05026 8.6239,17.82561 13.3751,28.90163 23.103,53.85805 3.7896,9.7221 6.6903,15.302 8.4286,16.21349 1.9068,0.99999 2.2574,1.78242 1.2501,2.78991 -1.8094,1.80933 8.3943,32.26707 16.3976,48.94652 3.1345,6.53264 5.6992,12.36221 5.6992,12.95454 0,0.87599 2.5911,4.17051 3.2799,4.17051 0.1024,0 1.8716,-1.44931 3.9316,-3.22093 z M 920.00633,542.44537 c 3.32875,-5.13083 6.47483,-10.4445 6.99112,-11.80822 0.51627,-1.36379 1.99816,-3.53906 3.29301,-4.83383 1.29478,-1.29486 2.35425,-3.13439 2.35425,-4.088 0,-0.95353 1.16012,-2.78361 2.57795,-4.06678 1.41799,-1.28334 2.57811,-3.02348 2.57811,-3.86705 0,-0.84373 1.1453,-2.57054 2.54507,-3.83732 1.39993,-1.26685 2.93056,-3.51752 3.40157,-5.00154 0.76452,-2.40883 6.04271,-10.69873 17.61846,-27.67115 3.80142,-5.57367 3.80142,-5.57367 -0.71443,-12.2457 -2.48369,-3.66961 -6.01108,-8.99227 -7.83854,-11.82802 -1.82755,-2.83582 -5.0727,-7.47631 -7.21151,-10.31213 -2.13883,-2.83582 -4.27859,-6.02614 -4.75505,-7.08956 -0.47652,-1.06349 -2.80678,-4.35138 -5.17846,-7.30656 -2.37176,-2.95517 -4.31219,-5.92943 -4.31219,-6.60947 0,-0.68006 -0.80231,-1.90241 -1.78305,-2.71624 -2.24839,-1.86604 -3.37301,0.62735 -3.37301,7.47782 0,2.6476 -0.55329,7.9657 -1.22946,11.81791 -0.67611,3.8523 -1.52875,9.9044 -1.8946,13.44922 -0.36594,3.54474 -1.85919,13.28971 -3.31843,21.65542 -1.45925,8.36571 -2.29682,15.78689 -1.86138,16.49147 0.43542,0.70457 0.26441,1.98065 -0.3803,2.83574 -0.64447,0.85517 -1.23687,2.83842 -1.31623,4.40739 -0.0793,1.56889 -1.02176,9.10958 -2.09417,16.75715 -5.48327,39.10216 -4.40732,44.27841 5.90127,28.38945 z m 129.52677,5.81718 c 0.4378,-1.24066 1.7791,-3.41584 2.9807,-4.83383 2.0573,-2.42808 11.9525,-17.85471 17.2247,-26.85377 1.3155,-2.24539 2.9106,-4.27591 3.5448,-4.51215 0.6341,-0.23642 1.153,-0.94446 1.153,-1.57362 0,-0.62918 1.6691,-3.62616 3.7092,-6.65997 25.1565,-37.41084 23.7595,-33.73539 17.6902,-46.54282 -2.4096,-5.0846 -4.802,-10.6948 -5.3163,-12.46728 -1.2927,-4.45394 -10.7573,-23.41758 -12.8669,-25.78026 -0.9495,-1.06341 -2.1258,-3.53417 -2.614,-5.49053 -2.222,-8.90251 -4.1995,-3.85625 -8.9714,22.89222 -3.2392,18.15746 -4.4566,24.45094 -10.222,52.84962 -1.7272,8.50747 -3.8007,19.23855 -4.6079,23.84678 -0.8072,4.60822 -1.9968,10.76571 -2.6438,13.68341 -3.2817,14.8011 -2.5566,31.34849 0.9397,21.4422 z m -14.2754,-20.45657 c 1.0393,-7.00459 2.207,-14.77782 2.5951,-17.27398 0.669,-4.30335 0.4344,-4.65808 -4.5286,-6.8477 -2.8788,-1.27008 -9.3164,-5.46339 -14.3058,-9.31845 -4.9895,-3.85506 -9.6431,-7.00926 -10.3413,-7.00926 -0.6984,0 -1.2696,-0.76563 -1.2696,-1.70149 0,-0.93586 -1.912,-3.98111 -4.2489,-6.76732 -3.79746,-4.52753 -10.11986,-16.13483 -12.58876,-23.11198 -2.4315,-6.87137 -8.9026,-28.87537 -9.6665,-32.8699 -0.4745,-2.48132 -1.3764,-5.15165 -2.0041,-5.93409 -0.6277,-0.78235 -1.0982,-2.81255 -1.0455,-4.51151 0.052,-1.69905 0.029,-9.17963 -0.053,-16.62376 -0.082,-7.44405 0.576,-18.67761 1.4621,-24.96335 2.5646,-18.19321 -17.69407,-35.94797 -25.20052,-22.08565 -2.43234,4.49172 -4.43493,7.92365 -12.01924,20.598 -0.85714,1.43235 -2.59728,4.63442 -3.86705,7.11583 -1.26977,2.48124 -3.23102,5.53643 -4.35825,6.78909 -4.4903,4.9897 -5.61453,8.47599 -3.52202,10.92229 1.0672,1.2476 4.17659,6.03868 6.90978,10.64691 2.7332,4.60831 9.3706,14.46924 14.74967,21.91329 5.37907,7.44405 11.84562,16.72496 14.37025,20.6242 2.52455,3.89923 10.03675,15.50038 16.69378,25.78033 6.6571,10.27988 14.7226,22.11074 17.92376,26.29072 5.9542,7.77496 15.2417,20.94793 24.8407,35.23289 6.5193,9.70206 7.0712,9.3004 9.4741,-6.89511 z m -136.90979,3.91628 c 0.43031,-1.12147 0.78243,-4.96998 0.78243,-8.55228 0,-3.58236 0.58034,-10.0605 1.28973,-14.39595 6.18327,-37.79223 11.13322,-76.88619 12.71001,-100.38415 0.97562,-14.53834 1.02854,-14.72135 6.81102,-23.59253 10.24642,-15.71914 12.70361,-19.81179 12.70361,-21.15854 0,-0.72415 0.5801,-1.31663 1.28901,-1.31663 0.70892,0 1.28894,-0.53214 1.28894,-1.18253 0,-0.65039 2.6103,-5.59757 5.80062,-10.99376 3.19032,-5.39618 5.80055,-10.06437 5.80055,-10.37383 0,-0.30945 1.74022,-3.30658 3.86705,-6.66027 6.31713,-9.96103 -0.67973,-18.30032 -17.1858,-20.48292 -10.49262,-1.38738 -15.82317,23.6383 -10.03597,47.1152 2.86533,11.62307 2.00629,14.52602 -4.12247,13.9322 -3.26542,-0.31631 -4.19355,-1.05568 -4.54339,-3.61999 -0.24186,-1.77241 -1.25825,-4.13967 -2.25864,-5.26066 -1.0003,-1.12092 -1.54452,-2.31252 -1.20927,-2.64778 0.33533,-0.33525 0.13631,-3.6031 -0.44197,-7.2619 -3.57322,-22.60383 3.16618,-45.12523 14.94402,-49.93942 3.60115,-1.47202 0,-5.2583 -13.29215,-13.99531 -15.77868,-10.36736 -32.1172,40.88726 -26.97123,84.60987 1.06562,9.05381 1.79639,16.91467 1.62403,17.46859 -0.36806,1.18276 7.46377,8.21994 11.51502,10.34645 2.80837,1.47416 10.72942,12.1333 10.72942,14.43831 0,2.70614 -5.27045,0.94399 -11.75932,-3.93165 -9.97956,-7.4984 -9.47566,-8.15179 -7.58091,9.82796 1.87283,17.77267 -1.97166,47.40216 -7.57973,58.41674 -5.10637,10.02919 -14.05691,11.95526 -9.957,2.14261 4.62701,-11.07391 8.87426,-36.77797 8.00979,-48.47402 -2.62536,-35.51924 -2.99074,-36.68591 -14.16798,-45.25049 -5.7525,-4.40795 -11.27151,-8.64456 -12.26448,-9.41477 -2.44574,-1.89704 -1.18923,6.61003 3.88543,26.30696 9.20037,35.71061 5.92872,66.62754 -7.88516,74.5157 -3.81878,2.18062 -3.81878,2.18062 20.97285,26.86395 26.46481,26.34908 26.04555,25.99655 27.23194,22.90484 z m 338.82059,-29.31175 c 4.7824,-3.31693 9.249,-6.03072 9.9259,-6.03072 0.6769,0 1.6946,-0.81019 2.2616,-1.80033 0.5669,-0.99013 3.3511,-3.14977 6.187,-4.7992 8.8,-5.11853 10.8563,-7.70326 11.6866,-14.68932 0.4201,-3.53386 1.2438,-7.5851 1.8304,-9.00309 3.4108,-8.24297 5.1405,-13.83431 4.5669,-14.76252 -0.3596,-0.58191 0.1373,-1.71474 1.1046,-2.51745 0.9671,-0.80264 2.1201,-3.72128 2.5622,-6.48595 0.4421,-2.76451 4.0108,-12.1153 7.9301,-20.77943 8.0295,-17.74917 8.0926,-19.20353 0.6109,-14.08824 -1.0634,0.72714 -6.4922,3.88259 -12.0642,7.01225 -5.5718,3.1295 -10.8601,7.03371 -11.7516,8.67596 -0.8917,1.64225 -4.8615,8.32879 -8.8221,14.85892 -11.4258,18.83901 -23.4098,43.00446 -26.7136,53.8668 -0.8625,2.83582 -1.984,5.73609 -2.4924,6.44509 -0.5085,0.70892 -1.8577,4.22092 -2.9983,7.80438 -1.1407,3.58348 -2.499,7.64386 -3.0182,9.02305 -0.7013,1.86281 0.5277,1.32372 4.7777,-2.09583 3.1469,-2.53196 9.6343,-7.31736 14.4165,-10.63437 z m -195.681,-10.22008 c 0.4937,-3.72206 0.9079,-7.05737 0.9202,-7.41179 0.013,-0.3545 0.5798,-1.31616 1.2611,-2.137 0.6812,-0.82078 1.1662,-3.72112 1.0777,-6.44501 -0.088,-2.72396 0.7194,-8.14295 1.7954,-12.04227 1.0757,-3.89923 2.2437,-10.56992 2.5953,-14.82365 0.643,-7.77796 2.59,-18.96324 3.9266,-22.55776 0.3954,-1.06342 1.2833,-5.7039 1.973,-10.31214 0.6896,-4.60822 2.139,-12.40283 3.2204,-17.32146 1.8919,-8.60339 1.8694,-9.03346 -0.5949,-11.32909 -2.8512,-2.65636 -3.1246,-3.77066 -1.367,-5.5728 0.6569,-0.67358 3.331,-5.26856 5.9425,-10.21133 2.6114,-4.94269 7.3742,-13.0096 10.5838,-17.9265 7.4706,-11.44402 7.5605,-10.58175 -2.2524,-21.58742 -19.3368,-21.68745 -17.5519,-21.31063 -25.1779,-5.31565 -3.2955,6.91231 -7.3069,15.17815 -8.9143,18.36847 -1.6075,3.19024 -5.393,13.55161 -8.4121,23.0253 -5.4464,17.08908 -5.8225,20.58641 -3.1726,29.50201 0.7097,2.38722 0.3628,2.90027 -1.961,2.90027 -3.7398,0 -3.2287,16.37472 0.966,30.93641 4.2277,14.67694 3.2926,18.73378 -2.2508,9.76438 -3.6711,-5.94009 -6.2211,-16.25158 -7.1705,-28.99543 -0.8587,-11.52756 0.01,-10.05758 -15.76926,-26.80281 -3.0131,-3.19822 -5.4784,-6.24031 -5.4784,-6.76015 0,-1.71853 -5.1531,-5.64427 -6.1307,-4.67039 -1.9541,1.9465 -1.8676,35.94174 0.1121,43.96367 10.035,40.66498 19.88796,57.29733 44.65426,75.37884 8.8262,6.44374 8.5481,6.49044 9.6235,-1.6167 z M 850.97754,467.29002 c 3.86105,-14.78587 2.85041,-31.91975 -3.30233,-55.9852 -3.07491,-12.02672 -5.61138,-25.17586 -5.8373,-30.26007 -0.69038,-15.54212 -19.41382,-29.61631 -24.59167,-18.48521 -1.753,3.76867 -3.70139,7.72226 -4.32977,8.78568 -1.3361,2.2614 -8.96466,18.79885 -10.40568,22.55784 -3.04731,7.94961 -5.32094,12.24562 -6.48075,12.24562 -0.72044,0 -1.30984,1.16012 -1.30984,2.57803 0,1.41799 -0.64219,2.57811 -1.42698,2.57811 -0.7848,0 -1.08424,0.89295 -0.66537,1.98445 0.41886,1.0915 0.23924,2.97663 -0.39915,4.18928 -0.63824,1.21267 -1.84206,4.04824 -2.67506,6.30153 -0.833,2.25311 -2.32112,4.40612 -3.30683,4.78436 -4.58267,1.75853 0.0135,6.4219 29.00679,29.43197 7.3942,5.8683 16.60222,13.48455 20.46225,16.925 8.42661,7.51088 11.74014,5.85387 15.26169,-7.63139 z M 1287.61,466.7324 c 3.4317,-2.83582 6.6997,-5.15606 7.2621,-5.15606 0.5624,0 1.651,-1.59517 2.4191,-3.54482 0.768,-1.94966 1.9709,-4.4149 2.673,-5.4783 2.5864,-3.9181 18.188,-36.53218 21.4679,-44.87777 4.6,-11.7041 6.8629,-17.04475 8.8402,-20.86202 0.9182,-1.77242 2.0991,-5.25271 2.6246,-7.73411 0.5254,-2.48133 1.3175,-4.80149 1.76,-5.15599 1.142,-0.91449 7.8945,-15.26927 7.8945,-16.78231 0,-0.69133 1.7402,-4.94017 3.8671,-9.44167 2.1269,-4.50158 3.867,-9.02753 3.867,-10.05774 0,-1.03028 0.5009,-2.42421 1.1131,-3.0977 1.7254,-1.89823 4.118,-9.80169 2.7023,-8.92673 -0.6806,0.4206 -1.2374,1.60052 -1.2374,2.6222 0,1.02161 -0.5097,1.85744 -1.1325,1.85744 -0.6231,0 -1.8535,1.74015 -2.7346,3.86706 -0.8809,2.12683 -2.041,3.86705 -2.5779,3.86705 -0.537,0 -1.697,1.74015 -2.5781,3.86705 -0.881,2.12683 -2.0723,3.86705 -2.6476,3.86705 -0.575,0 -1.4251,1.19547 -1.889,2.65676 -0.9976,3.14323 -17.1956,27.22278 -19.2088,28.55526 -0.7647,0.50619 -1.3903,3.09228 -1.3903,5.74691 0,4.07103 -0.7017,5.29971 -4.4817,7.84919 -8.6163,5.81111 -24.0808,37.92862 -31.7879,66.01888 -1.8436,6.71944 -3.6351,12.95508 -3.9811,13.85687 -1.2257,3.19386 2.9989,1.57134 9.156,-3.5165 z m -92.0063,-20.86936 c 0,-1.59965 4.1176,-10.56172 13.6883,-29.79214 3.1058,-6.24054 5.647,-11.63397 5.647,-11.98532 0,-2.22487 -29.3933,22.24973 -30.7538,25.60736 -0.2539,0.62695 0.7094,2.23103 2.1408,3.5647 1.4316,1.33366 3.0116,4.33552 3.5111,6.67084 1.2827,5.99687 5.7666,10.61134 5.7666,5.93456 z m -35.6901,-13.51177 c 15.4843,-4.99151 15.7467,-1.74266 -3.1872,-39.45357 -8.6212,-17.17104 -16.3927,-32.67025 -17.27,-34.44257 -2.875,-5.80835 -3.4564,-9.02636 -1.623,-8.98258 2.2826,0.0545 4.7482,3.63648 13.3692,19.42297 4.0118,7.34561 8.368,14.10796 9.6807,15.02757 1.3129,0.91945 2.1072,2.40142 1.7649,3.29318 -0.3421,0.89161 0.5219,2.84916 1.92,4.34982 1.3982,1.50082 3.5024,5.66446 4.676,9.2525 1.1736,3.58813 2.9441,7.19644 3.9346,8.01832 0.9903,0.82196 1.8006,2.78369 1.8006,4.35944 0,1.57575 1.1493,3.90491 2.5539,5.1761 2.7507,2.48937 3.0073,2.38998 9.9284,-3.84512 1.5741,-1.41799 3.6147,-3.1885 4.5352,-3.93474 0.9203,-0.74614 5.5265,-4.62353 10.2359,-8.61647 5.4738,-4.64105 10.2519,-7.57681 13.2457,-8.13853 4.357,-0.81731 5.0279,-1.60905 9.6272,-11.36317 4.3333,-9.18925 13.9106,-28.77353 16.7894,-34.33143 0.5508,-1.0635 1.5694,-3.09369 2.2635,-4.51152 0.694,-1.41791 2.1683,-4.31826 3.276,-6.44509 1.1076,-2.1269 4.7903,-9.66759 8.1837,-16.75714 6.9324,-14.4836 10.8835,-22.43352 22.8485,-45.97447 9.8197,-19.32027 10.9404,-21.93269 8.2029,-19.12093 -6.4937,6.66974 -13.725,16.30703 -13.725,18.2914 0,1.71072 -0.9895,2.33295 -3.7093,2.33295 -2.0401,0 -4.4075,0.84128 -5.2609,1.86959 -2.9631,3.57038 -16.2052,10.35592 -23.2553,11.91669 -17.4806,3.86957 -22.3727,1.29114 -31.6157,-16.66438 -6.612,-12.84442 -4.8461,-16.82286 2.5331,-5.70588 6.4365,9.69701 13.9722,16.31808 18.5725,16.31808 7.8175,0 21.4257,-6.01533 30.3621,-13.42096 5.4209,-4.49228 -3.9852,-24.74312 -12.0948,-26.03988 -20.0704,-3.20941 -28.6008,-23.54623 -22.6477,-53.99278 2.8339,-14.49433 4.1199,-18.57483 10.3161,-32.73414 3.2249,-7.36927 5.8635,-14.404 5.8635,-15.63259 0,-1.22859 0.87,-2.95588 1.9335,-3.83842 1.0634,-0.88253 1.9335,-2.08589 1.9335,-2.67412 0,-1.80561 13.2276,-20.49214 17.0794,-24.12791 1.2408,-1.17101 2.2718,-2.72538 2.2913,-3.45403 0.019,-0.72863 2.0337,-2.775 4.476,-4.54733 5.5434,-4.022767 5.6633,-2.83054 -1.7217,-17.118187 -3.4284,-6.632746 -6.5644,-13.325364 -6.9689,-14.872406 -1.3407,-5.127197 -3.1317,-2.98838 -15.1772,18.126618 -6.57,11.516755 -15.7786,26.763145 -20.4635,33.880945 -4.6852,7.11778 -9.0983,13.86673 -9.8073,14.99775 -0.7089,1.13093 -7.4483,11.26195 -14.9764,22.51342 -7.528,11.25147 -15.1458,23.0675 -16.9282,26.2579 -7.1667,12.82786 -22.8562,38.16464 -32.0889,51.81981 -2.7328,4.04185 -4.9688,7.67881 -4.9688,8.08197 0,0.40317 -1.5789,3.18677 -3.5088,6.1858 -5.9557,9.25519 -14.5374,24.51657 -14.5374,25.853 0,0.69834 -1.3664,3.06458 -3.0366,5.2583 -6.9425,9.11959 -9.0674,15.07008 -6.9235,19.3892 1.0742,2.16415 3.1562,6.64435 4.6266,9.95614 3.6256,8.16639 3.9764,8.20109 10.0496,0.99684 17.4898,-20.74701 31.9999,-18.65844 40.794,5.87201 1.7791,4.96265 4.1547,10.76319 5.2791,12.89009 1.1245,2.12691 2.0482,4.95539 2.0525,6.28559 0.043,13.04722 20.16,32.46672 32.7659,31.6297 8.6315,-0.573 9.7795,-0.12463 9.7795,3.81989 0,5.27754 -2.6562,6.93833 -9.9355,6.21214 -18.3949,-1.8352 -31.5865,-10.66032 -36.0256,-24.10054 -0.8194,-2.48132 -2.7109,-7.70184 -4.203,-11.60108 -1.4924,-3.89939 -3.6617,-10.85958 -4.8211,-15.46734 -6.9456,-27.60591 -15.0223,-29.7788 -31.9242,-8.5887 -5.9647,7.47812 -5.9968,7.57112 -5.1617,14.95247 0.9808,8.66964 -2.1384,12.28876 -4.7699,5.53406 -1.3711,-3.5202 -1.3711,-3.5202 -3.5035,-0.38265 -10.0909,14.84858 -15.4456,49.47298 -8.6951,56.22342 1.1283,1.12841 2.0514,2.65921 2.0514,3.40212 0,2.71197 9.5888,17.32075 15.3505,23.38688 9.5326,10.03629 15.3601,11.66821 27.5893,7.72598 z m 57.3959,-84.53052 c -5.1731,-9.4531 -12.6827,-26.01177 -12.6827,-27.9653 0,-0.74788 -0.58,-1.35977 -1.289,-1.35977 -0.709,0 -1.289,-0.77179 -1.289,-1.71514 0,-0.94328 -1.403,-4.4862 -3.1178,-7.87342 -1.7148,-3.38713 -3.466,-7.54588 -3.8916,-9.24154 -0.4256,-1.69581 -1.3427,-3.08319 -2.0383,-3.08319 -0.6954,0 -1.2644,-0.93027 -1.2644,-2.06736 0,-2.34564 -7.182,-16.54408 -14.4515,-28.56938 -2.6861,-4.44353 -4.8838,-8.32983 -4.8838,-8.63628 0,-0.30646 -1.7824,-3.19813 -3.9609,-6.42608 -7.0494,-10.44544 -0.6993,-16.90828 6.6749,-6.79311 5.2618,7.21758 21.7773,35.20592 21.7773,36.90529 0,0.73549 1.4011,4.39839 3.1135,8.13986 1.7123,3.74132 3.8214,9.12276 4.6868,11.95866 0.8652,2.83574 2.8502,7.47623 4.4111,10.31206 1.5605,2.83589 3.1583,7.55882 3.5504,10.49553 0.392,2.93663 1.9099,6.99703 3.3731,9.02304 1.6318,2.25958 2.9966,6.79848 3.5304,11.74006 0.922,8.53855 0.3369,9.8805 -2.2485,5.15607 z m -19.6266,-111.49977 c -1.6341,-9.44689 -2.4858,-29.96963 -1.2439,-29.96963 2.981,0 5.5255,19.00647 4.4437,33.19212 -0.2669,3.49883 -2.4106,1.33974 -3.1998,-3.22249 z m 57.0244,180.12863 c 2.2319,-2.13306 4.0581,-4.52839 4.0581,-5.32298 0,-0.79459 -2.3197,0.80563 -5.1548,3.55602 -2.8352,2.75031 -5.1555,5.14566 -5.1562,5.32298 0,1.31986 2.8488,-0.30299 6.2529,-3.55602 z m 35.1967,-19.33786 c 9.2642,-4.85442 38.2697,-42.32529 40.8744,-52.80363 0.26,-1.04575 1.2586,-2.49591 2.2193,-3.22258 0.9608,-0.72667 3.0683,-3.70976 4.6835,-6.6292 1.6151,-2.91943 5.1953,-8.71997 7.9558,-12.89009 8.2238,-12.42303 13.1552,-20.25305 15.3336,-24.34649 1.1298,-2.12305 3.5929,-5.60003 5.4736,-7.72693 1.8805,-2.1269 4.2495,-5.46221 5.2645,-7.41187 1.0149,-1.94966 2.4104,-3.54481 3.1011,-3.54481 0.6908,0 1.256,-0.58397 1.256,-1.29762 0,-1.56526 8.287,-23.03018 11.7243,-30.36799 1.3501,-2.88236 2.4548,-5.66943 2.4548,-6.19345 0,-0.84845 3.1811,-8.50556 6.4953,-15.63503 0.6592,-1.418 3.0014,-7.79855 5.205,-14.17919 2.2036,-6.38064 4.5329,-12.15223 5.1763,-12.82565 0.6434,-0.67358 1.1697,-1.98144 1.1697,-2.90666 0,-0.92513 1.4093,-4.60334 3.1318,-8.17387 1.7225,-3.57061 3.5681,-8.35325 4.1014,-10.62814 1.3616,-5.80826 1.1508,-5.16024 7.0097,-21.53789 2.9165,-8.15297 6.1909,-17.32028 7.2761,-20.37177 3.1223,-8.77929 2.1017,-8.22861 -19.4918,10.51668 -19.1413,16.61641 -17.2295,11.59224 -18.1025,47.57397 -0.4259,17.55504 -1.1057,32.78154 -1.5106,33.83668 -1.5913,4.14645 -6.9055,0.96039 -6.9055,-4.13999 0,-3.97543 -0.3586,-3.87541 -10.862,3.02687 -16.5981,10.90723 -21.977,14.32371 -24.9081,15.82042 -2.7432,1.40079 -2.9003,2.25194 -2.9003,15.71535 0,15.25672 -3.6806,39.88601 -7.3511,49.19152 -2.4425,6.19251 -4.8712,10.74008 -12.4517,23.31662 -7.4879,12.42294 -7.5491,12.52345 -11.1247,18.23965 -3.1994,5.11505 -4.5635,7.46172 -9.9044,17.03686 -1.5434,2.76688 -3.7185,5.78799 -4.8339,6.71361 -1.1152,0.9256 -2.0278,2.21659 -2.0278,2.86903 0,1.34573 -8.6315,13.36725 -15.0535,20.96568 -7.4135,8.77139 -6.0679,9.13086 7.5217,2.00991 z m -279.2811,-10.30614 c -1.2872,-1.42232 -2.6812,-2.24491 -3.098,-1.82818 -0.4168,0.41674 0.3673,1.58049 1.7422,2.58593 3.5319,2.58245 4.0942,2.2681 1.3558,-0.75775 z M 873.9137,368.06095 c -1.78504,-33.09653 5.92052,-62.88409 21.12864,-81.67672 4.602,-5.6867 4.602,-5.6867 1.45625,-7.7341 -1.73012,-1.12612 -5.34814,-4.02008 -8.04008,-6.43104 -4.65052,-4.16507 -12.53047,-1.6895 -12.53047,3.9367 0,0.55241 -2.22425,4.44565 -4.9427,8.65166 -11.01726,17.04577 -22.97015,75.46741 -16.78245,82.02633 1.56849,1.66244 19.66569,17.17458 20.18741,17.30371 0.21772,0.0545 0,-7.18058 -0.4766,-16.07654 z m 144.3887,8.77685 c 2.3625,-13.09132 23.9834,-62.9666 27.9919,-64.57241 2.6824,-1.07446 0.4816,-5.49322 -6.4858,-13.02246 -7.5584,-8.16788 -7.5584,-8.16788 -12.6627,-3.06363 -5.6425,5.64253 -16.2737,20.06791 -18.4046,24.97297 -0.7511,1.72911 -2.4146,4.88417 -3.6965,7.01099 -11.31456,18.77196 -16.49246,33.34982 -13.06326,36.77891 3.2289,3.22898 4.2145,3.21604 3.1805,-0.0418 -1.7801,-5.60846 3.82,-1.32215 13.96456,10.68848 6.9023,8.17198 7.9019,8.30797 9.1759,1.24918 z m 273.9775,-10.79135 c 0,-2.20366 -1.1163,-1.11303 -3.1146,3.04305 -2.0142,4.18928 -2.0142,4.18928 0.5501,1.14616 1.4105,-1.67365 2.5645,-3.55878 2.5645,-4.18921 z m 6.7354,-10.49159 c 2.4246,-3.72206 5.4007,-8.92609 6.6137,-11.56463 1.2129,-2.63846 4.7961,-8.66082 7.9627,-13.38304 3.1665,-4.72228 5.7575,-9.13047 5.7575,-9.79632 0,-0.66569 0.9476,-2.15806 2.106,-3.31645 3.4328,-3.43281 -0.075,-3.27851 -6.9276,0.30449 -7.8409,4.09991 -11.7292,7.63959 -12.4863,11.36679 -0.3201,1.57559 -0.8494,4.31479 -1.1761,6.08712 -1.2051,6.53604 -4.5844,17.51268 -6.548,21.26874 -4.4771,8.56466 -1.0514,7.85968 4.6981,-0.9667 z m -456.04574,-9.02312 c 1.62639,-19.46029 5.1417,-37.8417 9.12085,-47.69363 1.89058,-4.68057 -1.65338,-2.02886 -3.87612,2.90027 -1.27876,2.8359 -2.81697,5.15614 -3.41829,5.15614 -0.60132,0 -1.09323,0.96939 -1.09323,2.15428 0,1.18481 -0.77455,3.07002 -1.72121,4.18936 -0.94675,1.11919 -2.49403,4.06513 -3.43856,6.54654 -0.94462,2.48132 -2.2491,5.20986 -2.89894,6.06337 -2.38658,3.13479 -10.03714,20.0971 -9.36665,20.76744 1.59153,1.59161 14.26793,10.47077 15.00312,10.50903 0.44016,0.0228 1.20027,-4.74391 1.68903,-10.5928 z m 141.24628,5.80061 c 0.015,-3.25949 11.7906,-27.1663 17.94296,-36.42891 2.8867,-4.34618 5.2487,-8.42077 5.2487,-9.05459 0,-0.63382 1.1605,-2.4781 2.579,-4.09818 1.4184,-1.62017 5.3982,-6.1361 8.8441,-10.03534 7.0687,-7.99867 7.0629,-8.87766 -0.1031,-15.8664 -6.099,-5.94797 -6.3013,-10.322 -0.5079,-10.98343 3.0275,-0.34566 4.9681,0.80516 10.3957,6.16538 10.2118,10.08495 23.3594,0.56424 33.8788,-24.5329 7.0919,-16.91996 9.4536,-22.3006 10.7049,-24.38949 7.5486,-12.60027 7.3736,-14.87106 -1.925,-24.99925 -2.9979,-3.26541 -5.1631,-5.93708 -4.8115,-5.93708 0.3517,0 -0.2683,-1.01506 -1.3777,-2.25572 -1.1094,-1.24074 -2.2143,-3.416 -2.4556,-4.83384 -0.6138,-3.60807 4.1926,-4.0734 7.2442,-0.70126 1.3115,1.44915 3.4155,2.63483 4.6758,2.63483 1.2602,0 2.6305,1.06831 3.0449,2.37405 0.8058,2.53874 6.831,8.74047 7.6126,7.83569 1.3973,-1.61755 11.4468,-29.27775 13.1624,-36.22846 1.7372,-7.03782 4.9279,-17.89282 9.6185,-32.72311 1.6778,-5.30452 1.8412,-4.76008 -3.2595,-10.86502 -7.4264,-8.88894 -5.8244,-12.34486 3.849,-8.30315 2.6445,1.10498 4.912,1.83006 5.0387,1.61133 8.3936,-14.490076 12.6337,-15.049353 7.8681,-1.03794 -3.0004,8.8215 -3.0004,8.8215 3.3356,15.68742 3.4847,3.77626 6.6212,7.74452 6.9697,8.81842 2.7826,8.57073 14.9239,17.03212 16.969,11.8258 4.7737,-12.15269 6.8827,-4.19101 2.7311,10.31001 -1.2626,4.40969 -1.0841,5.03002 2.4693,8.5832 2.1065,2.10663 6.2738,7.94353 9.2605,12.97095 5.1341,8.64203 9.1823,11.73099 9.1823,7.00664 0,-1.17376 1.4502,-4.03538 3.2226,-6.3591 1.7723,-2.32372 3.2224,-4.82358 3.2224,-5.55513 0,-0.73164 1.6754,-3.2382 3.723,-5.57029 2.0475,-2.33207 4.9859,-6.66319 6.5295,-9.62467 1.5436,-2.96148 3.6387,-6.07513 4.6556,-6.91916 1.017,-0.84413 1.8492,-2.09395 1.8492,-2.77746 0,-0.68336 1.833,-3.79511 4.0734,-6.91483 4.5287,-6.30601 5.0417,-5.01439 -5.5945,-14.08445 -1.6627,-1.41799 -4.2871,-4.31826 -5.8319,-6.44508 -3.2336,-4.45189 -2.4889,-4.74809 -15.7718,6.27485 -16.7445,13.89553 -16.0561,4.96849 0.8894,-11.53308 7.9881,-7.77899 4.4311,-14.19252 -24.1312,-43.511207 -24.1511,-24.790526 -26.3825,-25.803927 -31.0268,-14.092023 -2.5532,6.438538 -8.3053,17.533661 -14.8802,28.702539 -1.0435,1.772406 -3.6268,6.41282 -5.7411,10.312056 -12.2247,22.546645 -14.8176,27.137595 -19.2927,34.159005 -2.7111,4.25372 -6.5739,10.71569 -8.5839,14.3599 -2.0101,3.64421 -5.675,10.02477 -8.1444,14.17903 -2.4691,4.15442 -5.6877,9.87363 -7.1522,12.70945 -1.4645,2.8359 -5.7816,10.66671 -9.5937,17.40177 -3.8121,6.73514 -8.0666,14.56588 -9.4548,17.4017 -5.1304,10.48141 -25.7805,46.0356 -38.55656,66.38426 -5.9243,9.43567 -21.62728,37.26222 -26.55056,47.04916 -1.78322,3.54466 -4.30556,7.98471 -5.60523,9.86653 -3.15576,4.5695 -3.02711,7.53516 0.32681,7.53516 2.65463,0 16.64548,13.04967 16.64548,15.52579 0,0.6772 0.5801,1.23135 1.2891,1.23135 0.7089,0 1.2937,-1.01513 1.2995,-2.25572 z m 278.55356,-11.06972 c 3.1149,-2.36624 10.3041,-6.7644 15.9758,-9.77368 15.5849,-8.26917 15.788,-8.71225 13.2032,-28.79168 -1.3792,-10.71435 -6.4177,-20.30732 -8.2896,-15.78247 -0.2932,0.70892 -1.5187,3.14883 -2.7234,5.42197 -1.2046,2.27308 -6.755,13.29421 -12.3341,24.49125 -15.9281,31.96709 -15.968,32.13424 -5.8319,24.43461 z m -170.9471,-19.54446 c 6.3568,-12.23868 8.7722,-16.52979 9.7947,-17.40168 0.4157,-0.3545 3.1942,-5.54355 6.1743,-11.53127 2.9803,-5.98764 5.9021,-11.49813 6.4931,-12.24569 0.5909,-0.74726 3.1666,-5.26785 5.7239,-10.0456 2.5572,-4.77775 6.1108,-11.00173 7.897,-13.83124 1.7863,-2.82951 3.2477,-5.51537 3.2477,-5.96864 0,-0.45326 3.8118,-6.70042 8.4707,-13.88259 16.1737,-24.9333 19.8876,-31.03548 19.8876,-32.67687 0,-0.9077 0.4995,-1.6503 1.1098,-1.6503 5.9485,0 6.9027,-11.84639 1.3733,-17.04774 -3.2217,-3.03058 -8.0721,-8.30773 -10.7789,-11.72713 -5.5341,-6.99103 -5.1808,-7.12427 -11.3621,4.28355 -4.783,8.82741 -11.9818,20.36949 -16.079,25.78034 -15.5123,20.48608 -17.1345,23.86074 -13.8168,28.74317 7.6802,11.3025 6.3535,15.51206 -2.358,7.48207 -6.0321,-5.5601 -7.6164,-4.7275 -15.6016,8.19872 -1.3299,2.15278 -2.7978,4.20412 -3.262,4.55861 -1.3509,1.03163 -10.4327,16.82135 -10.4327,18.13861 0,0.65812 -0.4384,1.19665 -0.9743,1.19665 -0.5359,0 -1.781,1.88513 -2.7669,4.18928 -0.9859,2.30408 -3.6128,6.79951 -5.8373,9.98983 -11.9015,17.06849 -11.8848,16.39973 -0.7049,28.35838 4.9711,5.31722 10.3335,11.55965 11.9167,13.87225 4.0571,5.92667 5.8012,4.93125 11.8857,-6.78271 z m 224.3043,-11.48858 c 2.1268,-1.11658 4.447,-2.04984 5.156,-2.0739 3.1352,-0.10633 8.1288,-7.45943 9.6105,-14.15134 0.8634,-3.89931 2.052,-9.11975 2.6413,-11.60115 3.9544,-16.65066 2.7087,-36.76953 -2.0041,-32.37159 -5.1539,4.80929 -23.4639,12.4664 -22.2785,9.31663 0.6943,-1.8449 11.4681,-9.64266 18.9423,-13.70999 7.7312,-4.20712 8.2711,-8.05753 3.2533,-23.19639 -3.0475,-9.19517 -3.566,-9.30119 -8.2128,-1.68028 -9.6659,15.85205 -11.1291,17.82955 -14.2628,19.27664 -3.1338,1.44718 -7.8452,9.4823 -15.2244,25.96454 -3.4869,7.78869 -3.4586,8.43711 0.5531,12.62442 3.5322,3.68688 8.2162,18.93556 8.2869,26.97833 0.096,10.89041 1.0089,11.20232 13.5392,4.62408 z m -353.58262,1.34968 c 9.33423,-16.92603 9.72328,-17.85937 7.01241,-16.81915 -1.20288,0.46162 -2.18346,-0.99849 -3.10253,-4.61951 -2.86776,-11.29762 -6.93084,-14.99956 -17.80667,-16.22366 -23.45931,-2.6402 -24.11356,-2.62938 -29.79128,0.49617 -6.75557,3.71891 -6.46339,4.39746 5.75866,13.37649 5.47995,4.02599 12.57392,9.63256 15.76424,12.45907 5.91666,5.24213 17.96705,14.00731 19.58706,14.24727 0.49309,0.0725 1.65321,-1.23956 2.57811,-2.91668 z m 94.39152,-19.99613 c 1.7358,-2.74961 4.0608,-6.95506 5.1665,-9.34536 1.1057,-2.3903 3.0909,-6.08624 4.4117,-8.21316 1.3208,-2.12682 3.5647,-5.89724 4.9867,-8.37857 5.7523,-10.03746 8.6568,-14.85623 9.3234,-15.46821 0.3862,-0.35448 1.2822,-1.58529 1.9911,-2.73516 0.7089,-1.14987 3.8866,-5.79036 7.0613,-10.31214 3.1748,-4.52177 5.598,-9.01846 5.3851,-9.99258 -0.4544,-2.0784 -8.9945,-11.13369 -9.7693,-10.3586 -0.2908,0.29068 -2.3554,4.58898 -4.5883,9.55163 -13.2693,29.49255 -18.5614,38.51772 -28.7014,48.94826 -11.7572,12.09416 -11.0161,9.84933 -5.3298,16.14336 5.7408,6.35445 6.149,6.361 10.063,0.16053 z m -201.65146,-0.47913 c 0.011,-0.53167 -0.5603,-0.96671 -1.2693,-0.96671 -0.70891,0 -1.2801,1.30511 -1.26929,2.90027 0.0182,2.76727 2.48093,0.892 2.53859,-1.93356 z m 5.17579,-8.45588 c 0,-1.58546 -0.46406,-1.51351 -2.57804,0.39961 -1.41782,1.28318 -2.57794,3.20319 -2.57794,4.26659 0,1.58546 0.4639,1.51352 2.57794,-0.39953 1.41792,-1.28318 2.57804,-3.20319 2.57804,-4.26667 z m 121.16741,-5.08042 c 2.4813,-4.78462 4.9466,-8.89257 5.4784,-9.12883 1.8934,-0.8416 0.9281,-5.4641 -1.289,-6.17278 -25.89431,-8.27562 -34.37938,-29.29258 -20.18031,-49.98501 1.49411,-2.17731 1.15184,-2.86966 -3.08769,-6.24473 -8.40389,-6.69017 -9.38527,-6.9134 -12.37208,-2.81318 -1.4594,2.00346 -4.11584,5.16183 -5.90332,7.01881 -1.78748,1.85689 -6.44367,6.81661 -10.34717,11.02167 -12.01994,12.94847 -22.75346,19.86637 -25.05249,16.14652 -0.69542,-1.12526 12.25998,-16.55489 17.96128,-21.39117 0.83576,-0.70907 4.32607,-4.76946 7.75627,-9.02319 3.43028,-4.25374 7.00579,-8.19794 7.94566,-8.76486 3.22165,-1.94319 1.54634,-4.13249 -7.59511,-9.92585 -16.25758,-10.30299 -18.1121,-12.35914 -14.45062,-16.02062 2.72042,-2.72034 2.81263,-2.69825 10.89398,2.62426 22.33744,14.71156 21.7997,15.14841 36.65657,-29.78568 8.8428,-26.74459 9.08764,-24.34026 -3.65809,-35.91168 -11.36964,-10.322159 -13.69264,-11.548701 -13.69264,-7.22989 0,1.44023 -0.87007,2.95241 -1.93349,3.36047 -1.06349,0.40806 -1.93356,1.52424 -1.93356,2.4803 0,0.95614 -1.44797,3.87234 -3.21787,6.48035 -1.76995,2.60801 -7.06352,12.63972 -11.76372,22.29272 -4.70013,9.65291 -8.97445,17.8409 -9.49846,18.19532 -0.52394,0.3545 -1.3896,2.09472 -1.92347,3.86705 -0.5338,1.77249 -1.66853,4.09265 -2.52132,5.15615 -0.85288,1.06341 -4.3394,7.44405 -7.74791,14.17911 -3.40851,6.73513 -6.70256,12.43905 -7.32005,12.6753 -0.61741,0.23641 -1.15057,1.39653 -1.18465,2.57803 -0.034,1.18158 -1.1367,4.17856 -2.45041,6.65996 -1.31378,2.4814 -3.88132,7.41187 -5.70564,10.95661 -1.82439,3.54481 -3.88551,7.31515 -4.58038,8.37865 -13.58481,20.79355 -13.91052,36.54645 -0.71137,34.40447 5.36227,-0.87015 7.33907,0.96434 5.4668,5.07348 -1.24627,2.73524 -0.84957,3.5546 3.64451,7.52846 7.18911,6.35682 8.73331,6.5795 15.02631,2.16603 16.1361,-11.31663 52.80735,-4.5721 60.26797,11.08439 4.00864,8.41249 3.61533,8.49666 9.02307,-1.93064 z m -117.2008,-0.50659 c 0.81359,-1.52014 3.84858,-5.3345 6.74451,-8.47614 5.36582,-5.82129 5.59916,-9.42621 0.67271,-10.39852 -1.83078,-0.36128 -11.40236,16.46946 -11.38959,20.02745 0.01,2.55421 2.35244,1.87416 3.97237,-1.15279 z M 1277.3287,254.7606 c 7.3081,-8.91828 12.5763,-13.80371 14.2096,-13.17691 2.2447,0.86132 5.1651,-1.85208 7.0989,-6.59543 0.9491,-2.32814 3.1676,-5.36724 4.9299,-6.75352 3.0116,-2.36892 5.866,-6.66706 9.3962,-14.14929 0.8362,-1.77249 2.3816,-4.8579 3.4342,-6.85654 2.7964,-5.30996 1.4118,-5.39879 -4.1888,-0.26891 -4.9128,4.50001 -9.188,6.69483 -10.4949,5.38799 -0.3761,-0.37619 2.1329,-4.48943 5.5755,-9.14074 3.4425,-4.6513 6.2543,-8.89193 6.2484,-9.42369 -0.014,-1.23671 -9.4504,-26.01754 -11.0377,-28.98548 -0.6583,-1.23104 -1.197,-2.80025 -1.197,-3.48692 0,-1.11059 -2.2134,-6.22146 -10.3596,-23.9222 -1.3052,-2.83582 -4.147,-9.97641 -6.3151,-15.86805 -5.9214,-16.09074 -6.1627,-16.44249 -9.3217,-13.58362 -9.6268,8.71193 -25.0638,34.68711 -33.5908,56.52096 -8.4449,21.62419 -8.3182,20.45199 -3.0388,28.11731 2.5412,3.68965 4.6202,7.17041 4.6202,7.73481 0,1.11998 4.4575,10.66995 6.4296,13.77508 0.6753,1.06341 3.3019,6.42899 5.8365,11.92339 4.1481,8.99141 4.97,9.98982 8.2249,9.98982 4.0779,0 15.4065,-5.52618 17.8574,-8.71099 0.886,-1.15167 1.6111,-1.57693 1.6111,-0.94516 0,0.63177 0.696,0.45255 1.5468,-0.3982 1.8938,-1.89381 3.6093,-2.00251 3.6093,-0.22891 0,4.32086 -17.1782,18.01736 -22.5975,18.01736 -2.3316,0 -2.4036,-0.70016 0.7927,7.70933 4.279,11.25833 4.2277,11.24248 10.7207,3.31851 z m -7.6067,-54.92628 c -13.7694,-4.01796 -18.9954,-37.04088 -7.032,-44.43469 0.6977,-0.43109 2.4841,-3.1672 3.9703,-6.08018 5.527,-10.83386 20.4634,-23.52051 20.4634,-17.38118 0,0.9014 -2.9609,5.68688 -6.5799,10.63437 -22.8657,31.26023 -16.8616,58.94353 10.0176,46.18848 4.0134,-1.90453 4.674,-1.91984 6.4435,-0.15042 6.9336,6.93376 -13.3662,15.28464 -27.2829,11.22362 z m -269.1664,47.12103 c 5.0834,-8.65167 5.8741,-11.21085 4.0046,-12.96236 -2.9249,-2.74029 -22.87016,-16.04049 -24.05466,-16.04049 -0.6274,0 -1.8575,-0.86369 -2.7335,-1.91929 -2.21152,-2.6648 -3.36565,-1.60194 -7.8005,7.1835 -4.43586,8.78735 -3.88495,11.27767 4.13392,18.68906 13.99978,12.93923 21.02608,14.28055 26.45014,5.04958 z m 290.9721,3.68247 c 1.228,-3.20026 -0.1254,-3.63728 -1.7668,-0.5704 -0.7918,1.47967 -0.9009,2.68846 -0.2425,2.68846 0.6581,0 1.5623,-0.95314 2.0093,-2.11806 z m 59.0347,-17.86166 c 2.6083,-1.77241 5.3049,-3.2225 5.9924,-3.2225 0.6874,0 1.4433,-0.4871 1.6796,-1.08243 0.548,-1.38037 22.0184,-12.54853 23.3097,-12.12493 1.1472,0.37634 1.1106,1.33887 0.9672,-25.41228 -0.142,-26.52405 1.3857,-25.64624 -16.4983,-9.47977 -5.3447,4.83147 -11.0175,9.65449 -12.6063,10.71791 -15.7822,10.56377 -17.5474,15.34435 -12.1382,32.8699 0.6564,2.1269 1.5147,5.46221 1.9072,7.41187 0.8755,4.34728 1.4277,4.3715 7.3867,0.32223 z m -105.0533,-6.73664 c -1.7262,-3.38437 -3.7408,-7.60363 -4.4773,-9.37611 -7.0443,-16.95593 -8.4295,-18.84256 -9.3817,-12.77738 -1.5398,9.80596 3.1984,21.24879 11.3182,27.33417 5.8983,4.42057 6.653,2.88197 2.5408,-5.18068 z M 1016.775,217.9084 c 2.88,-5.29293 7.2457,-13.39391 9.7017,-18.00214 2.4558,-4.60823 4.8972,-8.95867 5.4252,-9.66759 0.9823,-1.31907 7.5261,-13.27362 14.8176,-27.06936 2.2481,-4.25374 6.5267,-11.74614 9.5076,-16.64986 5.613,-9.23318 5.6139,-9.1334 -0.099,-12.40923 -1.2076,-0.6925 -4.2802,-4.39966 -6.8281,-8.23815 -13.1312,-19.78316 -13.5056,-19.75744 -20.5026,1.40915 -3.4784,10.52196 -8.8799,24.53865 -12.0035,31.14812 -4.2404,8.97304 -5.3253,12.44363 -4.2825,13.70023 2.4153,2.91012 -0.4246,7.23169 -13.99346,21.29406 -15.1532,15.7043 -14.4786,13.99609 -7.5452,19.10697 3.0131,2.22101 8.3786,6.646 11.92326,9.83324 7.9236,7.12434 7.5055,7.2586 13.8791,-4.45544 z m 89.0371,-2.53393 c 1.2565,-2.12691 2.8315,-3.86705 3.5005,-3.86705 0.6689,0 1.2161,-0.62358 1.2161,-1.38581 0,-0.76216 2.9003,-5.23787 6.4451,-9.94605 3.5448,-4.70802 6.4451,-9.21503 6.4451,-10.01554 0,-0.80034 1.1601,-2.50522 2.5781,-3.7884 1.4178,-1.28318 2.5779,-2.87881 2.5779,-3.54569 0,-0.66687 1.1081,-2.76869 2.4625,-4.6707 10.6523,-14.95965 10.5819,-16.16498 -1.818,-31.16304 -14.8382,-17.94724 -12.8765,-16.30798 -14.4108,-12.04282 -2.634,7.32258 -8.0284,25.72047 -8.8413,30.15343 -0.7599,4.14456 -10.1073,30.0986 -13.6044,37.7737 -3.1017,6.80754 9.7538,18.75381 13.4492,12.49797 z M 986.85694,192.49439 c 7.2042,-7.48444 10.3629,-11.92946 12.5952,-17.72393 1.63856,-4.25381 4.73016,-11.41254 6.86996,-15.90837 3.8907,-8.17434 3.8907,-8.17434 -6.0985,-17.40168 -17.08196,-15.77924 -15.24726,-16.19503 -21.84846,4.95176 -2.65567,8.50746 -5.20964,16.04822 -5.67545,16.75714 -0.4658,0.70892 -1.5961,3.49394 -2.51201,6.1888 -0.91582,2.69494 -3.64705,8.40618 -6.06944,12.69171 -5.5676,9.85011 -5.80591,8.86488 3.6521,15.09997 9.9541,6.56223 7.77842,7.09288 19.0866,-4.6554 z m 30.02156,-61.22819 c 1.9966,-6.55789 4.427,-13.41955 5.401,-15.24805 0.974,-1.82856 2.0897,-5.13398 2.4793,-7.3456 0.3896,-2.21147 1.2549,-5.45812 1.9227,-7.21483 1.3293,-3.496067 -11.2631,-17.294408 -36.31996,-39.79837 -13.38004,-12.016706 -11.2399,-12.016706 -17.92957,0 -3.05875,5.494395 -6.2766,11.149947 -7.15069,12.567937 -7.68725,12.467992 -8.89904,16.314058 -5.83193,18.508251 1.62687,1.163751 6.12687,4.616749 10,7.673362 4.71148,3.71812 7.21356,4.99799 7.56016,3.86705 0.285,-0.92979 1.11393,-4.590717 1.84203,-8.135376 4.0471,-19.700873 5.4452,-22.895925 10.6102,-24.246628 4.6783,-1.223308 6.3933,11.427612 2.2627,16.691431 -0.987,1.257858 -4.8529,21.513213 -4.9186,25.771283 -0.013,0.80239 4.473,6.09089 9.9674,11.7522 5.49426,5.66139 11.03186,11.82053 12.30566,13.68705 3.4013,4.98402 3.8268,4.51869 7.7996,-8.52971 z" fill="#00B894" transform="translate(55.880278,-1.8448728) matrix(0.26458333,0,0,0.26458333,-261.19324,-5.9745911)"/>
</svg>