<?xml version="1.0" ?><svg height="170.76723mm" viewBox="0 0 112.47482 170.76723" width="112.47482mm" xmlns="http://www.w3.org/2000/svg">
    <path color="#000" d="m 12233.864,3918.3228 c -45.438,15.8491 -51.31,30.1594 -69.606,49.7433 -4.435,103.1839 52.242,85.8702 75.065,34.0667 40.04,-50.3173 6.475,-49.4162 6.475,-49.4162 0,0 -7.289,-33.5596 -11.934,-34.3938 z m 254.063,108.2002 c -40.082,0.174 -86.185,29.3242 -103.543,82.7299 -43.414,155.302 138.373,143.668 165.998,35.2135 20.66,-81.1193 -17.029,-118.1406 -62.455,-117.9434 z m -10.366,230.3117 c -7.802,-0.077 -16.332,0.3084 -25.651,1.1627 -119.299,10.9365 -79.441,65.9971 -66.581,229.7537 143.742,8.2083 180.955,-38.4969 180.955,-38.4969 -5.327,-125.9087 3.354,-191.5068 -88.723,-192.4195 z" fill="#FFFFFF" overflow="visible" paint-order="fill markers stroke" transform="translate(-45.305135,12.37915) matrix(0.26458333,0,0,0.26458333,-3170.2989,-1030.0741)"/>
    <path d="m 12375.141,4487.4867 c 0,-0.6045 -0.796,-2.2714 -1.77,-3.7042 -0.973,-1.4328 -1.77,-3.4141 -1.77,-4.4028 0,-0.9888 -0.317,-3.1566 -0.705,-4.8172 -0.388,-1.6608 -1.209,-7.4807 -1.824,-12.9331 -3.199,-30.3683 -8.91,-66.52 -9.865,-88.5124 -0.23,-5.4524 -0.627,-12.3032 -0.878,-15.2241 -0.512,-5.9245 -0.528,-10.6121 -0.12,-29.9173 0.157,-7.3023 0.207,-13.2768 0.109,-13.2768 -8.053,7.7961 -15.162,18.135 -27.775,21.243 -0.766,0 -1.116,0.1486 -6.161,2.6227 -1.795,0.8801 -3.211,1.1944 -3.606,0.7997 -0.394,-0.3946 -1.006,-0.221 -1.556,0.4422 -17.586,7.2069 -34.346,-2.8516 -49.796,-10.0453 -1.056,-0.4784 -1.92,-1.1954 -1.92,-1.5933 0,-0.3978 -0.619,-0.7232 -1.375,-0.7232 -0.755,0 -1.575,-0.3258 -1.821,-0.7239 -18.463,-11.0471 -26.155,-23.0282 -37.152,-37.7963 -2.642,-3.5229 -3.551,-5.3002 -3.261,-6.3728 -7.083,-12.8908 -11.267,-24.6301 -15.17,-35.1221 -0.669,-1.7526 -1.12,-3.813 -1,-4.5786 0.119,-0.7657 -0.157,-1.8445 -0.616,-2.3973 -10.866,-24.852 -11.666,-64.7787 -12.877,-86.2661 -0.134,-2.4065 -0.48,-5.1151 -0.768,-6.0189 -0.29,-0.9038 -0.622,-9.2908 -0.742,-18.6378 -0.12,-9.3469 -0.503,-18.5876 -0.857,-20.5348 -0.352,-1.9473 -0.537,-4.6557 -0.409,-6.0188 0.238,-2.5318 0.329,-9.3202 0.22,-16.2864 0.285,-25.3646 -0.613,-44.8596 7.873,-54.0208 5.617,-5.8632 6.349,-6.7222 6.349,-7.4423 14.869,-17.7936 25.832,-29.2672 42.678,-45.4598 1.06,0 8.098,-7.295 8.976,-11.2935 2.928,-13.0124 -4.411,-2.7797 -8.175,-3.4166 -19.32,16.8884 -34.819,-2.6631 -13.418,-13.2129 2.07,-0.9791 3.925,-2.201 4.122,-2.7154 0.197,-0.5142 2.445,-1.9941 4.996,-3.2886 19.805,-8.6057 23.283,-2.7867 31.012,11.1312 7.68,22.055 -14.793,38.6195 -26.832,51.697 -0.884,1.0457 -3.858,4.291 -6.607,7.2117 -13.164,14.3 -26.225,29.0401 -27.808,45.7928 -0.186,2.0134 -0.825,4.4033 -1.421,5.3108 -0.593,0.9075 -1.119,3.2432 -1.167,5.1905 -0.08,3.1373 -0.174,21.787 -0.133,25.4915 0.04,3.5046 0.896,28.472 1.252,36.4671 0.217,4.8682 0.512,11.8783 0.657,15.5782 0.144,3.6998 0.46,8.0016 0.7,9.5593 0.655,4.2227 1.079,11.3277 1.061,17.7025 -2.872,56.2222 37.754,147.6146 100.867,142.398 1.331,-0.5563 2.589,-0.8447 2.792,-0.6406 0.204,0.2042 1.315,-0.3011 2.469,-1.1224 1.154,-0.8214 2.407,-1.4934 2.787,-1.4934 0.378,0 1.094,-0.4887 1.589,-1.0859 0.496,-0.597 1.253,-0.9622 1.679,-0.8112 0.431,0.1508 2.054,-0.5668 3.613,-1.595 4.051,-2.6736 5.454,-3.5013 7.257,-4.2812 0.878,-0.3789 1.593,-1.0155 1.593,-1.4144 0,-0.3992 0.305,-0.7257 0.676,-0.7257 0.53,0 6.845,-5.6336 10.114,-9.0195 28.197,-37.7863 66.373,-49.3972 117.196,-52.0961 2.822,-0.1354 5.344,-0.4599 5.606,-0.7216 28.365,-1.3052 58.01,4.7821 77.179,23.4907 4.316,4.2285 6.289,6.8293 8.274,10.9031 1.435,2.9423 3.083,5.5316 3.662,5.7541 0.646,0.2481 1.052,1.3333 1.052,2.8094 0,1.3327 0.633,3.2077 1.417,4.2054 0.779,0.9903 1.417,2.237 1.417,2.7703 0,0.5335 0.436,1.5984 0.97,2.3668 0.533,0.7681 1.131,2.5118 1.329,3.8749 0.881,6.0706 2.147,11.1127 3.196,12.7432 1.094,1.6985 1.328,2.6619 1.822,7.5243 0.12,1.216 0.573,3.1279 0.997,4.2485 0.423,1.1208 1.148,8.4107 1.61,16.1999 0.461,7.7891 1.074,15.8183 1.364,17.8433 0.288,2.0246 0.33,3.9958 0.1,4.3806 -0.238,0.3845 -0.332,4.4636 -0.211,9.0644 0.294,11.0347 0.147,18.0822 -0.394,18.957 -0.779,1.2609 -1.076,11.5865 -0.972,33.8752 0.08,17.5704 -0.09,22.2831 -0.919,24.2524 -4.553,8.3918 -10.605,2.7152 -14.446,-2.8412 -0.918,-1.3504 -2.241,-2.6372 -2.943,-2.8596 -1.649,-0.5241 -3.297,-4.0545 -4.148,-8.8906 -0.372,-2.1191 -1.059,-5.9242 -1.527,-8.4556 -0.907,-4.9048 -0.999,-13.9301 -0.493,-47.7968 -1.05,-25.548 0.917,-52.6878 -8.536,-76.4747 -3.112,-7.6595 -9.354,-20.1807 -10.061,-20.1807 -3.39,-2.7689 -23.196,-16.7943 -27.461,-13.8556 -0.223,0.2225 -0.908,-0.049 -1.523,-0.6039 -21.023,-3.5032 -67.707,-6.8662 -93.474,5.6472 -1.896,0.9517 -3.968,1.7305 -4.604,1.7305 -0.638,0 -1.336,0.4597 -1.552,1.0218 -0.214,0.5621 -2.595,1.7039 -5.288,2.5374 -2.776,0.8592 -4.896,1.9148 -4.896,2.4381 0,0.5501 -1.28,1.1147 -3.167,1.3977 -12.062,6.6819 -11.085,45.5477 -11.054,53.4191 0.246,40.2674 1.854,83.1885 9.946,119.043 0.34,1.3632 0.991,4.7875 1.448,7.6097 0.456,2.8221 1.108,5.304 1.45,5.5151 0.342,0.2113 0.428,1.3528 0.192,2.5369 3.904,16.7061 -17.7,27.8195 -18.642,16.9209 z m 60.146,-253.9882 c -3.192,-0.07 -6.15,-0.4952 -6.72,-0.9684 -0.559,-0.465 -1.877,-0.6811 -2.927,-0.4803 -1.052,0.2006 -2.567,-0.049 -3.368,-0.5567 -0.803,-0.5071 -2.838,-1.1442 -4.526,-1.4159 -1.686,-0.2718 -3.916,-0.9378 -4.955,-1.4799 -1.039,-0.5422 -2.369,-0.9979 -2.954,-1.0127 -0.582,-0.014 -1.679,-0.4947 -2.435,-1.0664 -0.757,-0.5718 -1.797,-1.0397 -2.314,-1.0397 -2.764,0 -17.201,-10.7324 -17.201,-12.7867 0,-0.2599 -0.984,-1.7113 -2.188,-3.2251 -19.855,-26.9975 -10.293,-59.6191 -8.831,-87.477 0.07,-2.213 0.576,-3.8738 1.482,-4.8754 1.357,-1.4996 1.357,-1.5318 0.01,-2.5173 -0.75,-0.5489 -1.861,-1.0249 -2.468,-1.0572 -2.997,-0.1603 -4.463,-0.4801 -4.887,-1.0666 -21.419,-7.2206 -24.663,-20.9627 -14.449,-21.7371 1.266,0.035 2.432,-0.1459 2.59,-0.402 0.158,-0.2559 2.947,-0.4325 6.195,-0.3923 5.023,0.062 6.595,0.3971 10.509,2.2394 2.532,1.1915 5.635,2.3801 6.896,2.6412 1.261,0.2612 2.474,0.769 2.697,1.1283 0.791,1.2802 1.577,0.5953 4.498,-3.9195 4.663,-7.1598 4.464,-13.4904 8.914,-19.9576 21.571,-32.7443 56.351,-52.5899 88.585,-60.7931 2.504,-1.3312 3.099,-1.4159 4.217,-0.5991 5.083,1.6151 10.122,4.0621 9.24,10.3982 -0.401,2.1333 -0.88,2.6138 -3.509,3.5093 -2.797,-3.0466 -29.336,5.1116 -27.792,8.8713 0.33,0.5322 1.285,0.3275 3.02,-0.6466 7.923,-3.806 14.342,-3.815 22.55,-4.5035 5.824,-0.4954 10.271,-0.4714 11.132,0.06 27.292,-1.6724 55.742,27.5669 62.829,52.8561 0.418,1.8623 1.034,3.9336 1.371,4.6027 0.335,0.6692 1.164,3.1286 1.837,5.4652 0.674,2.3368 1.509,4.9807 1.858,5.8753 7.702,51.299 -44.379,99.9116 -76.883,122.6448 -1.454,0 -4.623,1.5345 -4.623,2.238 0,0.3269 -0.399,0.6054 -0.885,0.6184 -0.488,0.013 -2.16,0.6397 -3.718,1.3922 -1.558,0.7524 -3.319,1.379 -3.914,1.3921 -0.596,0.013 -1.71,0.4454 -2.479,0.9603 -15.668,7.1679 -31.011,7.4608 -46.405,7.083 z m 46.973,-27.3319 c 0.865,-0.8663 2.074,-1.575 2.685,-1.575 1.24,0 5.654,-3.2344 8.43,-6.1763 1.001,-1.0601 2.929,-2.3004 4.282,-2.756 4.651,-2.3191 14.23,-10.7549 15.836,-15.2127 0.255,-0.8172 1.26,-1.8488 2.233,-2.2927 0.975,-0.4437 2.087,-1.6369 2.473,-2.6515 0.386,-1.0147 2.292,-3.4431 4.235,-5.3965 5.214,-7.5574 12.252,-14.8799 16.263,-23.0779 1.097,-2.2627 2.982,-5.6735 4.189,-7.5797 1.21,-1.906 2.199,-4.0041 2.199,-4.6623 0,-0.6581 0.476,-2.1092 1.058,-3.2247 0.582,-1.1156 1.06,-2.871 1.063,-3.9009 0,-1.0301 0.681,-4.0572 1.511,-6.7271 1.321,-4.2513 1.457,-5.9534 1.108,-13.7055 -0.244,-5.4256 -0.986,-11.1805 -1.914,-14.87 -1.767,-8.2872 -4.991,-15.0589 -8.845,-22.061 -16.858,-26.8354 -30.139,-32.2093 -68.686,-21.832 -1.947,0.4999 -4.6,1.6931 -5.897,2.6516 -1.719,1.2727 -2.899,1.6341 -4.374,1.339 -1.261,-0.2522 -2.126,-0.085 -2.303,0.4452 -2.266,0.6479 -5.524,-1.5751 -3.357,-4.0909 0.39,-0.2407 0.707,-0.8823 0.707,-1.4259 0,-0.5434 0.718,-1.7353 1.593,-2.6484 0.878,-0.9132 2.687,-2.999 4.022,-4.635 1.334,-1.6358 2.964,-2.9744 3.621,-2.9744 1.74,0 5.167,-2.8757 4.373,-3.6688 -0.856,-0.8552 -10.928,4.3637 -14.662,7.5963 -17.694,11.195 -45.015,36.6752 -48.514,59.73 0,0.7463 2.913,2.3201 4.603,2.4868 0.39,0.038 1.345,0.4248 2.124,0.8585 0.78,0.4339 2.611,1.1737 4.071,1.6443 1.459,0.4704 3.052,1.4096 3.54,2.087 0.488,0.6774 1.403,1.4239 2.036,1.659 1.207,0.4495 4.162,5.9127 4.162,7.6963 -1.72,16.4164 -10.111,7.3582 -17.604,7.0072 -1.393,0 -5.767,-2.0123 -6.503,-2.9919 -0.211,-0.2824 -1.167,-0.601 -2.125,-0.7081 -1.465,-0.1639 -1.772,0.1395 -1.952,1.9298 -0.119,1.1684 -0.649,3.0803 -1.181,4.2487 -1.105,2.4247 -2.918,15.1989 -3.568,25.1373 0.109,16.9813 -0.887,35.3455 11.378,52.5258 1.359,2.4583 6.302,6.0748 9.688,7.0893 1.462,0.4388 2.661,1.0309 2.661,1.3162 0,0.2852 1.036,0.6827 2.302,0.8832 1.265,0.2007 4.691,1.0542 7.612,1.8968 17.204,3.6402 41.208,3.7334 55.427,-9.3831 z m 4.23,-29.9602 c -1.438,-1.1334 -2.301,-2.4428 -2.301,-3.4909 0,-0.9224 -0.319,-1.8741 -0.709,-2.1147 -1.293,-0.8001 -0.801,-4.5031 0.709,-5.3108 0.779,-0.4168 1.416,-1.2088 1.416,-1.7599 0,-0.5511 0.558,-1.3269 1.239,-1.7237 0.986,-0.5747 1.021,-0.7263 0.168,-0.7434 -0.589,-0.013 -2.727,1.0936 -4.752,2.4568 -2.025,1.3631 -4.042,2.4783 -4.484,2.4783 -0.442,0 -1.65,0.4441 -2.683,0.987 -9.977,5.2389 -16.176,6.9704 -25.171,7.0308 -20.413,6.2212 -32.163,-19.2612 -12.21,-16.3462 32.102,-2.4631 49.821,-17.6431 70.81,-33.9555 1.063,-0.8364 2.954,-1.7191 4.202,-1.9615 13.309,-4.2431 16.218,-1.5216 15.974,9.2764 -1.838,11.6747 -29.118,55.4344 -42.208,45.1771 z m -44.017,-87.0567 c -0.631,-0.6251 -0.958,-3.2992 -1.393,-4.0275 -1.164,-16.3994 18.035,-23.5398 23.323,-7.756 4.319,18.1461 -15.566,23.5532 -21.93,11.7835 z m 54.689,-0.2086 c -1.888,-1.5679 -1.98,-1.9306 -1.988,-7.789 -1.834,-6.8377 9.933,-10.3005 13.481,-9.0201 1.538,0.5584 3.607,1.1846 4.6,1.3919 2.049,0.4276 4.498,4.3034 5.186,8.2103 -1.029,16.1638 -13.938,19.5993 -21.279,7.2069 z m -332.503,-69.1398 c -0.682,-0.5984 -1.482,-1.088 -1.777,-1.088 -5.149,-3.9899 -11.638,-37.9404 -8.671,-45.3132 0.565,-1.054 1.119,-3.6631 2.634,-12.3968 0.501,-2.8841 5.582,-9.6246 6.88,-9.1264 0.563,0.2165 1.333,-0.231 1.755,-1.0229 0.949,-1.7715 5.467,-4.6124 6.409,-4.0297 1.769,1.0929 3.469,-1.0673 3.964,-5.0359 1.65,-14.7307 12.334,-5.7876 18.056,-10.5632 10.344,-17.2189 17.73,-15.3132 27.435,-16.095 l 1.151,2.2247 c 1.639,3.1718 2.03,2.7649 1.432,-1.493 -0.705,-5.0252 -0.841,-15.4972 -0.219,-16.8505 1.924,-9.0565 3.182,-17.9911 3.52,-27.5828 0.01,-0.5841 0.318,-1.6994 0.669,-2.4782 4.598,-14.567 7.077,-21.3118 21.734,-22.5204 3.651,-0.1884 8.808,0.6782 7.205,4.8179 -5.725,29.7182 -15.316,35.3933 -15.476,79.307 l -1.155,7.7892 -3.341,0.2158 c -6.549,0.7431 -5.814,-5.4081 -8.455,-6.4329 -0.669,-0.2473 -1.422,-1.2595 -1.67,-2.2498 -0.593,-2.3622 -1.123,-2.2517 -2.482,0.5168 -0.844,1.721 -1.657,2.3387 -3.29,2.5016 -3.945,0.3939 -4.749,2.1576 -5.177,11.3643 0.559,10.534 -0.688,20.0442 0.405,28.781 4.452,19.4537 5.363,30.9329 -12.199,21.1244 -2.7,-1.3377 -4.301,-3.5925 -5.821,-8.2015 -1.427,-4.3247 -2.399,-3.2509 -1.925,2.1242 0.706,7.9884 1.322,11.1263 2.295,11.7024 0.511,0.3023 0.754,1.0073 0.539,1.5661 -0.215,0.559 0.12,2.0336 0.738,3.2765 0.619,1.2432 1.127,3.4972 1.127,5.009 0,2.5962 -0.187,2.8323 -3.363,4.2519 -7.68,6.2386 -8.069,-1.9951 -12.699,-2.2616 -0.532,0 -1.273,-0.8047 -1.647,-1.7883 -0.739,-1.9414 -2.299,-2.8693 -3.539,-2.1034 -0.538,0.3329 -0.405,1.0545 0.43,2.3291 3.165,15.5799 -7.331,16.831 -15.472,9.7316 z m 14.1,-16.135 c -0.197,-0.4868 -0.357,-0.089 -0.357,0.8851 0,0.9736 0.16,1.3719 0.357,0.8851 0.197,-0.4868 0.197,-1.2833 0,-1.7702 z" fill="#00B894" transform="translate(-45.305135,12.37915) matrix(0.26458333,0,0,0.26458333,-3170.2989,-1030.0741)"/>
</svg>