<?xml version="1.0" ?><svg height="152.4444mm" viewBox="0 0 209.12923 152.4444" width="209.12923mm" xmlns="http://www.w3.org/2000/svg">
    <path color="#000" d="m 995.33456,1350.2535 c 0,0 -122.02698,-94.3711 -150.18956,-180.3958 -69.69835,-212.89867 154.21774,-229.94246 171.0608,-116.0813 29.5192,-101.9465 233.2792,-79.32046 144.763,105.2622 -48.7887,101.739 -165.63424,191.2149 -165.63424,191.2149 z" fill="#FFFFFF" overflow="visible" paint-order="fill markers stroke" transform="translate(173.78552,-60.888446) matrix(0.39156405,0,0,0.39156405,-474.76778,-320.14901)"/>
    <path d="m 972.83259,1348.4713 c -65.55495,-54.2652 -108.66166,-118.1203 -133.03125,-167.4465 -1.8091,-2.4519 -3.2891,-5.2116 -3.2891,-6.1327 0,-3.1724 -4.0374,-3.9134 -15.6693,-2.8756 -17.1807,1.5327 -36.0063,0.6121 -42.3996,-2.0736 -6.65983,-4.8597 -16.9794,-13.9989 -2.2892,-11.3309 15.51274,2.056 31.69683,0.4501 46.8341,-0.022 4.979,-0.1473 5.6716,-0.5054 4.8463,-2.5052 -7.2861,-17.6546 -9.5559,-53.2589 -4.8236,-75.6667 5.39783,-24.1045 14.42691,-47.3094 30.0773,-66.4459 30.10243,-31.96107 55.86319,-46.33412 94.0907,-38.95919 35.05184,6.76227 56.98006,25.78089 68.62836,58.73839 0.8163,2.3772 1.1795,2.16 3.3448,-2 23.1278,-42.10613 71.5903,-51.44262 104.0268,-45.15709 39.8188,8.46366 53.0764,32.78739 63.4171,65.02329 9.7781,36.6766 3.2583,68.4426 -9.9094,99.2774 -0.2708,0.6289 2.7292,0.7993 6.6667,0.3787 37.8223,-5.0209 71.4536,0.5273 102.7447,-0.1953 9.7202,-0.2464 11.2452,0.049 13.8906,2.6949 2.04,2.04 2.9015,4.3834 2.7476,7.4749 l -0.224,4.5032 -21.3333,-0.3372 c -67.1992,-1.0624 -110.724,0.2236 -114.3333,3.378 -1.2834,1.1216 -2.3334,2.7962 -2.3334,3.7214 0,0.9253 -0.5144,1.8823 -1.1432,2.1267 -36.1471,57.2011 -46.4366,80.6656 -136.5153,165.9476 -9.766,8.656 -28.71869,28.0545 -37.7615,19.8859 -6.61339,-4.2156 -13.80796,-9.5191 -16.25961,-12.0022 z m 75.19751,-56.181 c 3.5652,-4.1337 8.2896,-9.3959 10.4988,-11.6939 48.6317,-51.2804 56.0236,-70.1652 79.3167,-110.7791 0,-1.4761 -7.3224,-1.1127 -28.6667,1.423 -4.4,0.5227 -9.35,0.9016 -11,0.8419 -1.65,-0.06 -5.7,-0.2084 -9,-0.3307 -9.4155,2.0577 -17.993,-15.5069 -20.5639,-16 -0.6021,0 -4.3216,3.3461 -8.2654,7.4358 -8.1348,8.4355 -12.2764,10.8632 -17.4023,10.2008 -4.1315,-0.5339 -5.8665,-2.9383 -11.0769,-15.35 -2.089,-4.9757 -4.2123,-8.5757 -4.7187,-8 -0.5063,0.5757 -3.2057,7.6468 -5.9987,15.7134 -7.5964,23.2592 -22.44343,49.116 -26.3825,70.0879 -0.7731,9.2273 -2.7257,16.8153 -5.4055,21.0056 -1.9825,3.0999 -6.6125,4.0219 -9.7786,1.9474 -3.1844,-2.0865 -8.4075,-10.12 -8.4075,-12.9314 0,-1.4803 -7.8992,-26.7626 -10.2405,-32.7761 -0.42826,-1.1 -0.95586,-3.3251 -1.17226,-4.9446 -0.312,-2.3349 -9.8832,-29.7476 -15.2656,-43.7221 -1.4885,-3.8649 -5.0052,-17.2252 -7.3699,-28 -3.4152,-15.5613 -4.7553,-19.7316 -5.9456,-18.5029 -9.40982,13.2913 -17.52103,53.9419 -33.88426,55.0219 -11.04783,0.036 -38.52794,-1.2243 -39.28194,-0.4699 37.52332,66.0726 83.129,125.5961 131.31346,162.8041 7.55372,5.9571 44.5344,-27.3515 58.6978,-42.9811 z m -64.8716,-74.4338 c 10.04218,-22.2952 19.7278,-47.8409 26.7336,-69.1016 6.01,-18.5101 7.0349,-19.0768 14.3241,-16.2164 5.8823,2.3554 9.9358,1.6819 17.6294,16.0864 5.5628,17.4715 15.7263,-18.6798 32.256,-13.4882 14.9657,9.5534 5.386,20.4942 26.1753,19.7548 8.5628,-0.2458 20.6687,-0.8703 26.902,-1.3876 6.2333,-0.5174 13.4933,-0.7806 16.1333,-0.5848 4.4308,0.3286 5.123,-0.1474 9,-6.1892 6.2449,-9.8018 9.0919,-18.133 12.176,-28.9784 4.9522,-21.7115 6.3952,-42.7375 1.1436,-62.6666 -6.6702,-24.8982 -18.6208,-41.5248 -34.0149,-47.3247 -37.9892,-19.76099 -94.4961,13.4226 -107.7139,52.6578 -3.3629,11.2797 -13.4245,15.0542 -19.931,8.7894 -4.84777,-6.4955 -6.83532,-13.3148 -10.2248,-22.6399 -4.94241,-15.5617 -12.90863,-36.3292 -33.61516,-45.8242 -47.17167,-18.84437 -90.01972,14.7649 -109.0612,53.0777 -8.4315,17.913 -11.1006,31.0544 -11.0886,54.5972 0.013,20.4538 1.7943,30.7185 7.838,45.0974 l 2.1426,5.0974 c 10.49488,-1.4616 33.76063,2.0458 41.2432,-3.4159 3.9809,-3.0261 9.7361,-14.3877 20.6565,-40.7789 1.9723,-4.7667 4.7279,-11.1373 6.1233,-14.157 2.5538,-5.5259 8.5467,-12.5097 10.7347,-12.5097 1.7007,0 10.9129,5.9739 12.5711,8.152 1.6713,2.1952 6.7893,20.9095 13.268,48.5147 5.4333,23.151 11.03476,40.3503 18.67216,57.3333 0.9894,2.2 2.8058,7.6 4.0363,12 1.2305,4.4 2.5389,8.5141 2.9075,9.1424 0.9156,1.5612 2.9578,-1.8874 2.9829,-5.0374 z" fill="#00B894" transform="translate(173.78552,-60.888446) matrix(0.39156405,0,0,0.39156405,-474.76778,-320.14901)"/>
</svg>