<?xml version="1.0" ?><svg height="92.575409mm" viewBox="0 0 279.96094 92.575409" width="279.96094mm" xmlns="http://www.w3.org/2000/svg">
    <path color="#000" d="m 1446.6959,708.94941 c 63.3876,5.23768 94.6606,27.57667 100.6908,91.94327 6.0302,64.36659 -2.945,88.66189 -78.1125,93.14228 -75.1674,4.48039 -432.8619,23.28025 -475.354,18.48434 -42.49207,-4.79592 -139.88718,-69.41496 -142.34135,-128.85941 -2.45417,-59.44445 35.83073,-81.84655 112.96152,-86.57939 77.13083,-4.73284 482.15553,11.86891 482.15553,11.86891 z" fill="#FFFFFF" overflow="visible" paint-order="fill markers stroke" transform="translate(-17.763325,-136.08276) matrix(0.39156405,0,0,0.39156405,-313.41916,-132.95623)"/>
    <path d="m 870.49669,852.76482 c -25.27508,-38.25806 -35.65692,-93.78203 -9.32541,-127.32553 37.05536,-47.20451 129.07694,-37.28369 181.47652,-37.83538 366.3111,15.56841 468.2874,-3.2611 492.2509,49.11305 18.5169,29.92255 28.9939,71.15515 25.0506,103.65586 -2.4756,15.37465 -5.9666,30.44258 -17.4229,41.04752 -26.9536,31.59119 -45.0702,16.90215 -303.9861,33.84402 -11.733,-0.16528 -203.0842,8.10388 -208.5876,8.16711 -74.29714,1.68108 -117.70181,-22.73497 -159.45601,-70.66665 z m 214.69741,49.49081 c 1.7944,-20.74737 -1.156,-41.31796 -1.0888,-57.8863 0.3224,-49.19851 -3.4031,-93.40425 -5.25,-138.32976 -79.13977,-3.18332 -173.80043,-9.01412 -208.23896,35.30434 -25.35605,36.62692 -0.24761,89.02828 25.49502,115.8637 28.08906,28.33677 64.00078,39.70873 104.39034,44.35498 28.3232,-0.36011 58.483,2.03038 84.6924,0.69304 z m 244.831,-9.79915 c 100.4278,-4.13913 149.7741,-3.92006 178.437,-15.5288 19.3883,-10.75422 27.0654,-19.26719 31.8228,-35.28758 7.1885,-27.50574 -1.1218,-68.2263 -14.269,-91.95562 -19.5936,-27.35685 -39.6634,-31.60842 -97.9539,-34.02549 l -107.5814,-4.12868 0.5282,13.57013 c 3.7428,48.52885 3.2579,100.60136 3.4536,148.22669 -3.2439,24.35619 -13.8979,4.35219 -13.6001,-8.2977 -1.6377,-32.50666 -1.6754,-61.9585 -1.8786,-84.87622 0.7478,-19.43286 -2.0735,-45.26791 -4.6152,-68.61068 -0.7652,-0.50042 -33.8134,-1.92011 -73.4403,-3.15491 -49.0441,2.74304 -111.7597,-5.74152 -135.5829,-0.76399 1.0371,1.31663 1.3516,9.50723 0.9864,25.68789 0.6094,63.34635 3.8556,113.03991 3.4304,168.32596 78.0997,-3.14028 164.964,-7.15048 230.263,-9.181 z m -172.8747,-23.94841 c 3.7535,-4.14618 10.3055,-4.42348 13.8987,-0.58934 3.8112,4.06658 5.5373,6.49407 5.5054,7.74237 -0.072,2.80038 -5.3425,5.74507 -10.5239,5.32909 -8.3335,-0.66904 -14.0098,-6.81585 -8.8802,-12.48212 z m 79.9622,3.2569 c -11.4763,-6.28239 -5.6676,-23.22596 7.8201,-15.81394 8.3929,4.61226 11.7584,8.99976 9.1726,11.95822 -2.0448,2.33958 -7.741,9.70732 -16.9927,3.85572 z m -43.0847,-33.02745 c -6.8722,-4.37776 -9.1191,-13.5863 -3.9446,-18.97306 6.9803,-7.2666 27.8667,2.02172 25.5351,12.25421 -2.2095,7.93865 -13.9434,11.59021 -21.5905,6.71885 z m -66.4217,-2.31293 c -5.8017,-3.33459 -8.858,-7.53111 -7.4929,-11.2922 2.96,-8.15507 20.6613,-5.351 24.8745,1.26405 5.5174,8.66273 -7.0912,15.94266 -17.3816,10.02815 z m 142.2363,-10.00606 c 1.0687,-15.99281 20.7432,-6.7623 22.1024,1.32295 1.0663,6.34308 -0.4212,10.54309 -4.4706,12.10905 -10.1955,3.94274 -18.3601,-2.53301 -17.6318,-13.432 z m -106.6018,-29.99829 c -6.502,-2.13183 -12.2456,-9.76833 -9.0945,-15.00973 4.5402,-7.55206 20.2862,-8.93757 24.8751,4.35387 3.1613,9.15639 -12.2526,11.81259 -15.7806,10.65586 z m 63.0183,-4.57796 c -5.012,-4.63275 -7.7281,-9.85074 -3.2567,-15.17855 12.3798,-14.75086 26.8217,2.44634 25.1466,10.58554 -1.3557,6.58701 -1.815,8.12549 -9.8651,8.58639 -6.672,0.38199 -7.6382,0.0611 -12.0248,-3.99338 z m -101.9292,-38.55282 c -4.7869,-2.02471 -7.5357,-6.71801 -7.9638,-13.26707 -0.5911,-9.04156 1.3129,-10.85267 11.5348,-10.97182 7.0492,-0.0822 9.2643,-0.0538 11.4575,3.03618 8.8018,12.40091 -2.0462,26.69383 -15.0285,21.20271 z m 139.4586,1.66249 c -31.0853,-20.97923 6.2718,-31.15792 13.688,-18.01741 4.4985,4.52449 4.8036,8.43603 1.1572,14.8369 -2.937,5.15573 -8.2219,7.65051 -14.8452,3.18051 z m -81.2383,-11.67269 c -9.145,-21.26655 20.9889,-15.90125 24.8722,-12.02875 2.1537,2.14772 2.8911,2.58547 1.2928,11.16427 -2.7719,14.87791 -21.3201,12.13115 -26.165,0.86448 z" fill="#00B894" transform="translate(-17.763325,-136.08276) matrix(0.39156405,0,0,0.39156405,-313.41916,-132.95623)"/>
</svg>