<?xml version="1.0" ?><svg height="166.06281mm" viewBox="0 0 160.54495 166.06281" width="160.54495mm" xmlns="http://www.w3.org/2000/svg">
    <path color="#000" d="m 512.66016,1027.0547 c -46.92471,-0.9606 -70.19467,61.7299 -91.68164,134.1094 -10.85306,80.3929 -60.94417,132.1608 6.8457,160.3359 67.78987,28.1751 68.03981,-58.6055 88.41016,-94.3691 20.37036,-35.7636 69.20917,-181.447 11.77148,-197.6758 -5.38478,-1.5215 -10.49142,-2.301 -15.3457,-2.4004 z m 116.5332,124.9199 c -12.84708,0.048 -24.17207,7.5657 -34.81641,16.3281 -42.24342,39.0695 -4.00698,74.0817 38.9043,158.0059 42.91128,83.9242 64.8684,136.5177 129.40234,98.6504 64.53393,-37.8673 1.33511,-69.8745 -52.67968,-182.1992 -33.75924,-70.203 -59.39875,-90.8659 -80.81055,-90.7852 z" fill="#FFFFFF" overflow="visible" paint-order="fill markers stroke" transform="translate(211.39285,20.466359) matrix(0.39156405,0,0,0.39156405,-363.34226,-419.08125)"/>
    <path d="m 717.82193,1442.1081 c -14.7713,0.01 -21.856,-1.9449 -33.0852,-9.1281 -11.20902,-8.5226 -17.17365,-23.3058 -23.5348,-35.2212 -24.83161,-50.0379 -54.37803,-99.5843 -79.23935,-148.3215 -11.2456,-22.4269 -12.4751,-25.7847 -12.4667,-34.0475 -3.28313,-60.5271 68.93868,-104.068 112.90725,-44.8338 10.92056,11.4672 15.19354,21.9518 22.3596,34.5361 29.4034,63.0255 60.80257,104.7504 73.2335,126.3473 4.917,4.5912 13.6368,20.838 17.7036,32.986 1.8484,5.5213 2.432,11.1222 2.3616,22.6667 -0.7397,44.083 -41.47349,54.8983 -80.2395,55.016 z m 32.2395,-19.9452 c 19.52453,-7.3415 25.61136,-8.8423 27.992,-28.7139 0.7317,-6.5172 -1.1328,-19.6575 -2.9734,-20.9545 -0.5741,-0.4047 -4.2017,-7.0357 -8.0613,-14.7357 -8.7527,-17.4622 -13.1675,-25.5136 -18.6032,-33.9277 -7.83331,-15.4641 -18.30432,-29.2817 -25.1168,-41.9394 -7.7573,-14.4815 -9.872,-15.9245 -23.5313,-16.0577 -14.34955,0.8883 -30.69571,6.8965 -38.92,18.5547 -4.1242,5.9511 -4.0407,6.5181 2.5568,17.3701 1.1146,1.8333 3.7772,6.9333 5.9168,11.3333 5.5538,11.4213 17.9714,35.5333 24.6845,47.9314 5.5632,10.2745 5.6915,10.7819 4.2011,16.6245 -1.1823,4.6344 -2.2899,6.2184 -4.7944,6.857 -3.7632,0.9594 -6.5903,-0.7512 -6.5903,-3.9877 0,-1.9488 -6.0212,-14.0957 -28.9175,-58.3367 -2.7264,-5.2679 -5.4761,-9.2572 -6.1106,-8.8651 -0.79158,4.7756 -2.80741,9.7574 -4.8725,13.5815 l 13.895,27.7642 c 7.6423,15.2703 16.9707,32.8642 20.7299,39.0976 3.7592,6.2333 7.7384,13.556 8.8425,16.2727 2.3725,5.8372 8.3919,9.8515 19.7665,13.1822 9.587,2.8073 29.5284,2.2822 39.9062,-1.0508 z m -42.475,-19.3983 c -2.6256,-4.01 -2.0366,-12.3463 0.9444,-13.3692 0.8934,-0.3066 3.9575,1.4284 6.809,3.8555 5.6694,4.8256 11.9056,5.3795 14.8732,1.321 13.38434,-8.1964 7.943,8.9397 2.4121,14.0575 -10.77433,7.3027 -18.4775,3.8499 -25.0387,-5.8648 z m -67.3303,-108.133 c 1.1224,-4.0648 1.0226,-5.5842 -0.4818,-7.3333 -7.80044,-11.1091 -12.00869,-24.5882 -17.8605,-34.8729 -13.2174,-23.092 -15.2503,-30.3634 -9.8541,-35.2468 9.53158,-6.2362 21.18137,26.555 24.1561,31.9135 4.4961,8.0667 9.3928,17.3396 10.8816,20.6066 l 2.7068,5.9399 2.1754,-4.1128 c 8.6679,-13.0307 30.183,-21.7948 44.509,-23.937 3.4833,-0.4725 6.3333,-1.2814 6.3333,-1.7975 0,-2.6283 -20.7449,-40.7944 -30.3477,-55.8332 -22.15675,-30.8432 -59.32743,-38.6202 -76.6617,-8.8437 -12.52285,24.7287 -8.66475,42.6883 17.9822,83.7079 6.61193,11.9204 13.66213,22.4441 19.8192,34.2698 4.1863,8.0871 4.5111,8.3991 4.8562,4.6667 0.2034,-2.2 1.0069,-6.3072 1.7856,-9.1272 z m -250.47196,-33.0243 c 7.84284,-36.2125 10.98779,-49.8906 16.34811,-75.143 1.2387,-5.8453 3.7369,-16.0453 5.5516,-22.6667 1.8148,-6.6214 3.6259,-13.5388 4.0247,-15.3722 0.904,-4.1559 15.6039,-51.8571 18.4899,-60 21.22617,-55.0054 47.83017,-82.1438 101.8074,-65.6115 53.83603,25.41 21.99725,105.9212 17.9606,121.6115 -3.3035,12.8334 -6.8609,26.8063 -7.9054,31.0511 -2.811,11.4237 -40.19006,103.018 -45.80148,121.3217 -19.91275,64.9527 -127.00417,41.1268 -110.47543,-35.1909 z m 95.43223,27.1294 c 6.74491,-16.1059 27.08268,-70.8087 28.88848,-77.1204 l 3.2834,-11.4758 -2.95,0.8667 c -37.75736,18.3278 -54.78265,1.8163 -72.3224,-11.2484 -0.3453,0 -0.6277,0.9081 -0.6277,2.0181 0,1.1099 -0.5495,3.0599 -1.221,4.3333 -1.821,3.4528 -7.2226,20.5839 -7.4566,23.6486 -0.112,1.4666 -1.789,6.0967 -3.7266,10.2891 -1.9377,4.1923 -4.4076,9.5923 -5.4886,12 -3.0855,6.8719 -5.8343,9.5823 -9.7861,9.6491 -1.7054,0.029 -3.93603,6.3606 -5.2092,13.6678 -10.95453,53.578 58.40205,66.8651 76.61632,23.3719 z m -62.63122,-77.6446 c 0.5525,-1.1 3.0665,-8.1439 5.5864,-15.6531 4.2993,-12.811 4.4431,-13.7918 2.3315,-15.9034 -2.7449,-2.7449 -2.7105,-2.819 -6.2898,13.5565 -1.4426,6.6 -4.1358,17.4 -5.9848,24 -4.2877,15.3051 -4.198,20.8274 0.1083,6.6667 1.7841,-5.8667 3.6958,-11.5667 4.2484,-12.6667 z m 99.0366,-27.6003 c 9.10355,-31.447 17.33039,-62.4074 25.1929,-93.6872 6.36,-26.0562 -9.97912,-56.8155 -38.6559,-53.1737 -18.9695,2.5835 -31.8613,11.4217 -39.4362,27.0361 -2.5113,5.1768 -5.6523,10.3152 -6.9798,11.4187 -1.3276,1.1035 -4.5779,7.7064 -7.2229,14.6731 -4.6095,12.141 -7.001,19.5022 -14.9442,46 -1.9785,6.6 -4.4576,14.42 -5.5091,17.3779 -2.4243,6.8197 -2.4237,9.1038 0,8.173 1.0526,-0.404 2.1776,-0.018 2.5,0.8573 1.0739,2.9162 3.1825,-0.7976 6.6831,-11.7707 3.5178,-11.0268 5.112,-14.5672 9.509,-21.1177 2.3986,-3.5733 2.6217,-3.6463 3.5421,-1.1584 0.5402,1.4603 0.4792,4.9764 -0.1355,7.8135 -4.555,21.0239 -7.1768,32.2416 -8.1233,34.7568 -0.8935,2.3744 -0.2977,3.6095 3.1343,6.4973 14.78673,11.6031 26.03768,15.1841 40.9623,14.5218 3.7126,0.2123 26.35507,-5.3743 29.4832,-8.2178 z m -56.8007,-96.6898 c 2.7207,-8.3745 5.0185,-12.8468 8.2204,-16 6.08494,-14.7472 26.12239,-14.7457 13.8369,4.9022 -2.1348,2.0453 -5.2118,7.0943 -6.8378,11.22 -7.43644,21.7332 -23.08625,23.9573 -15.2195,-0.1222 z" fill="#00B894" transform="translate(211.39285,20.466359) matrix(0.39156405,0,0,0.39156405,-363.34226,-419.08125)"/>
</svg>