<?xml version="1.0" ?><svg height="223.62637mm" viewBox="0 0 224.07265 223.62637" width="224.07265mm" xmlns="http://www.w3.org/2000/svg">
    <path color="#000" d="m 1134.8906,1352.7598 c -47.7549,-0.3343 -54.6797,21.7304 -54.6797,21.7304 0,0 -1.1971,52.318 0.5977,78.8809 1.7949,26.5629 11.0684,25.2168 11.0684,25.2168 0,0 2.8183,18.0722 -12.1661,25.0371 -14.9503,6.9491 -75.5514,5.3471 -79.0722,78.2539 0,0 -2.69344,238.8852 -0.79886,266.166 1.89456,27.2809 17.64936,53.4857 114.87106,62.9981 97.2216,9.5124 142.4927,-31.948 145.6836,-46.0371 3.1909,-14.0892 16.5521,-228.6552 13.461,-289.9473 -3.0912,-61.2921 -64.6158,-75.0232 -67.9063,-86.5996 -3.2906,-11.5764 3.5996,-22.9824 3.5996,-22.9824 l -1.3047,-97.627 c 0,0 -16.5525,-13.1018 -68.6035,-14.9863 -1.6266,-0.059 -3.2095,-0.093 -4.75,-0.1035 z m 297.8672,125.2617 c -11.0856,0.052 -22.7186,3.0957 -33.0469,4.5488 -24.896,3.5027 -40.1509,15.8061 -39.1328,46.7871 -8.7175,55.8346 26.0246,81.1456 73.6211,73.3574 47.5965,-7.7882 49.824,-65.5695 34.6797,-100.33 -8.5187,-19.5529 -21.8681,-24.4304 -36.1211,-24.3633 z m 53.8438,187.2637 c -18.4157,-0.049 -41.1571,5.1001 -51.2149,21.7539 -17.8804,29.6066 -29.0158,69.9778 -2.0996,99.0117 37.2245,16.55 79.4123,37.9104 102.5742,-8.418 23.1619,-46.3283 15.3984,-74.3889 -1.4004,-83.666 -16.7987,-9.2771 -18.2625,-14.4298 -20.7441,-22.1035 -1.0857,-3.3573 -12.7919,-6.5401 -27.1152,-6.5781 z" fill="#FFFFFF" overflow="visible" paint-order="fill markers stroke" transform="translate(277.76715,-109.16126) matrix(0.39156405,0,0,0.39156405,-663.81741,-418.47389)"/>
    <path d="m 997.03731,1868.4081 c -10.83492,-16.1279 -9.91996,-90.1201 -9.3438,-132.5136 -0.45567,-46.7742 -2.51817,-96.9361 -1.49235,-134.7689 0.9038,-30.6968 1.72269,-35.4448 9.82618,-57.3193 18.33046,-43.1211 88.32996,-34.532 85.11516,-64.0381 -4.3655,-1.9299 -8.5307,-3.4811 -9.5005,-7.5846 -3.9397,-27.6229 -7.4075,-65.8663 -4.4839,-90.0311 1.3929,-9.9778 1.7837,-10.8448 7.1428,-15.8449 9.315,-8.9207 22.2118,-14.849 34.6691,-16.1839 29.7338,-4.5184 102.2627,-5.7342 105.6987,17.9791 7.2031,49.7115 7.8847,104.9207 0.065,105.3599 -0.029,1.9326 3.4318,13.6634 4.9408,16.7474 7.6434,18.8537 54.923,23.3011 61.5467,80.7144 8.2241,91.3129 -4.6164,172.6961 -8.1631,254.7579 -1.3399,26.3206 4.324,52.4426 -20.7718,67.6856 -17.8954,10.7913 -39.4615,18.0205 -57.937,21.2131 -59.7982,10.0832 -162.7036,3.5783 -197.31189,-46.173 z m 254.61139,-9.7975 c 0.3304,-24.8198 0.9386,-36.2752 3.8306,-72.1464 2.8747,-51.2097 7.9742,-103.2117 9.7359,-156.448 -1.1904,-28.7263 -1.3593,-56.7114 -13.6537,-84.2411 -6.813,-17.3948 -22.9391,-22.1441 -35.0001,-31.9077 -4.0783,-3.4069 -5.9335,-3.5757 -5.4236,-0.4932 -0.7844,4.8884 -6.5407,5.237 -9.1427,3.4502 -6.234,-4.3523 -9.7439,-11.1908 -10.9467,-21.3286 -0.6368,-5.3674 -1.3114,-9.9761 -1.499,-10.2416 -19.3419,9.5522 -63.8415,10.7208 -87.4519,2.4203 -1.8153,-0.9863 -2.2568,0.076 -3.0576,7.3581 -1.2003,10.914 -5.1986,17.3077 -11.8398,18.9326 -3.7079,0.9073 -5.4274,0.7132 -7.5238,-0.8491 -49.6745,14.8731 -67.3571,23.9847 -71.6946,76.9891 -1.0721,14.5792 -1.0193,15.0417 1.9527,17.1166 6.4403,2.9745 25.9336,10.0552 29.6826,8.6916 -16.8395,-11.7622 -8.8369,-29.8552 2.8559,-31.8443 1.8405,-0.1474 5.2414,-1.5845 7.5574,-3.1936 4.4308,-3.0783 5.4332,-4.459 2.4886,-3.4274 -11.1383,0.4702 -20.2254,-18.5081 -14.6522,-26.4604 5.4249,-7.2631 11.8844,-11.0901 19.8569,-11.7644 11.1985,-0.8016 13.811,5.0581 21.6592,11.0807 7.9704,4.2184 3.3968,-3.4636 0.1836,-5.2455 -13.2209,-7.1647 -2.3585,-15.6278 5.2769,-9.7648 5.3883,5.2877 10.488,8.5059 12.2812,14.7288 2.3469,8.3084 4.1725,9.2148 16.7681,8.3254 21.4373,-1.5137 30.8184,-3.4845 62.6996,-13.1722 13.9211,-4.2302 24.2694,-6.5804 27.4826,-6.2418 1.4882,0.1567 3.0099,0.1506 3.3816,-0.013 26.813,3.0254 -30.2071,21.0221 -32.6521,21.6745 -22.3304,5.9625 -49.5914,11.5794 -71.5901,8.1525 l -7.9487,-1.3751 c -6.4695,15.8755 -14.5712,12.8782 -13.9241,4.1713 0.6817,-6.0812 -0.1832,-8.3397 -4.0066,-10.4617 -2.2087,-1.226 -6.3269,-4.4437 -9.1514,-7.1507 -7.9427,-6.5422 -18.9687,2.9492 -16.4429,12.3806 1.4778,4.6065 5.4766,10.8721 8.1845,11.1428 7.8911,0.5428 9.5877,1.0287 16.2038,4.6409 13.4377,8.2217 21.2447,20.3879 13.9363,34.5954 l -2.2065,4.1151 c 4.0685,-0.429 8.9461,0.7076 12.767,-0.8525 0.5989,-0.415 1.2512,-4.6515 1.4495,-9.4144 0.3884,-9.3321 2.8873,-15.3238 8.9302,-21.4131 11.3608,-9.5564 15.6577,-2.3762 9.3145,8.2305 -4.8606,8.2379 -5.0778,14.2116 -5.7924,23.2136 13.4378,-0.8173 38.6412,0.032 50.4758,-4.89 0,0 0.9171,-4.0433 1.2606,-8.2522 0.1638,-15.5044 -2.1435,-14.4812 -15.0663,-11.3992 -17.245,6.9661 -19.4476,-6.7114 -4.1081,-13.0076 8.8426,-3.4793 23.7125,-0.8077 28.038,5.0375 3.2138,4.3428 3.6765,4.2621 4.9618,-0.8649 2.2844,-9.1116 12.1868,-19.6703 22.1506,-23.6182 15.6181,-2.5667 13.0952,2.3557 3.9475,9.2268 -8.3769,6.29 -16.3092,19.4862 -16.5459,27.5256 -5.2356,9.9938 -9.765,6.9135 -9.765,6.9135 0,0 -2.8505,8.4537 3.319,8.1454 13.7506,-1.3252 19.6948,-1.7643 21.1011,7.435 0.6965,4.9458 0.2103,32.934 0.3961,33.1625 0.1858,0.2283 2.3908,-0.755 4.9,-2.1852 26.6455,-15.8284 32.5707,9.815 32.3001,29.3675 -0.2133,7.2446 -2.74,11.9988 -9.8577,18.5478 -8.9264,8.8815 -21.4317,12.4604 -29.1613,3.0816 -1.6635,1.56 -3.3139,32.8696 -3.4795,66.0102 -0.1571,31.4515 -2.2441,48.1871 -3.0718,61.417 -2.3309,17.463 -51.5493,18.3917 -66.5728,19.9635 l -22.4742,0.3671 c 1.2629,7.661 2.0157,15.9733 2.6337,22.4594 3.6038,-3.0437 7.7586,-7.0576 7.9503,-11.3192 1.3196,-8.8302 9.5174,-8.0875 12.1506,-1.2234 3.6935,9.8842 10.1184,10.2692 27.6145,1.6551 12.2512,-7.5995 16.8084,2.3366 8.1229,7.3447 -10.5278,6.6164 -16.6848,9.0945 -25.6011,8.6613 -5.7188,-0.2778 -10.2148,-1.1014 -10.4598,-1.9156 -0.8271,-2.7482 -3.6999,-1.476 -9.7136,4.3011 -6.7147,6.4506 -7.2583,6.6105 -12.4987,3.6777 -2.7356,-1.5309 -4.442,-1.7194 -6.7567,-0.7459 -5.5674,2.3415 -12.8177,-1.0781 -18.258,-8.6111 -4.6681,-6.4638 -4.9648,-6.6365 -10.4916,-6.105 -15.7593,0.9771 -35.0536,-3.7064 -37.7035,-18.9383 -1.2042,-7.5586 -0.2673,-12.4143 2.8094,-14.5607 1.7048,-1.1891 1.1785,-1.8463 -3.1181,-3.8926 -5.7955,-2.7602 -11.9161,-6.0843 -19.4165,-10.5454 -6.2452,-3.7901 -5.1823,-4.1553 -4.4425,2.7372 -0.5954,8.6949 0.2633,24.369 3.2733,32.7847 17.9145,50.087 227.6892,63.8107 238.2787,0.2923 z m -49.2007,-0.1588 c 6.9538,-5.1862 -2.6226,-3.6391 -2.7312,-11.362 7.402,-9.5433 25.0195,-1.9368 25.1486,6.6481 0.8606,19.7405 -31.7977,11.7859 -22.4174,4.7139 z m 11.7519,-50.5124 c 2.6361,-3.9973 3.0257,-5.851 2.4358,-11.5885 -0.9697,-9.4328 -3.2763,-14.7922 -7.3775,-17.1422 -7.5012,-4.2981 -1.1147,-9.4648 8.2238,-6.6529 6.5142,1.9614 8.6497,4.3806 11.9378,13.5239 3.1299,8.7033 3.0123,18.691 -0.2927,24.8495 -3.6794,9.448 -22.7328,9.7126 -14.9272,-2.9898 z m 19.8366,-66.0983 c 1.998,-18.1168 -14.0452,-6.088 -19.3199,-11.2257 -5.3356,-8.6818 7.192,-11.4538 12.9039,-11.1953 12.3806,1.77 23.4901,10.7077 23.2386,21.6521 -0.2805,9.5261 -10.2397,21.656 -20.4177,24.8683 -21.1065,5.1718 2.8743,-17.5631 3.5951,-24.0994 z m -10.2838,-122.6442 c 4.0224,-11.0455 2.2156,-27.5855 -9.7825,-28.039 -6.0673,-0.1786 -10.6222,-4.5132 -8.3273,-7.9246 3.0877,-4.59 12.2052,-4.6466 20.6323,-0.1281 12.6126,3.8172 17.2005,20.1629 16.3397,28.2378 0.3737,16.0399 -27.4842,27.8454 -18.8622,7.8539 z m -93.172,-72.5124 c -6.2597,-20.1184 -18.1206,1.9694 -27.3698,-6.2834 -3.5382,-3.3967 -2.9957,-5.308 3.1515,-11.1036 5.94,-5.6001 10.6884,-6.4142 20.0321,-3.4341 5.0249,1.6025 12.3777,8.4479 15.1171,14.0737 2.2986,11.7847 -4.8926,14.7477 -10.9309,6.7474 z m -41.013,302.2572 c -2.7296,-0.08 -3.304,0.551 -3.3978,3.734 -0.2344,7.9621 5.9234,21.4043 8.9924,19.6302 2.111,-6.4065 0.7485,-22.9529 -5.5946,-23.3642 z m -12.5586,1.0248 c -13.1809,-2.2163 -19.8281,-4.8899 -29.0179,-9.8404 -2.0747,-0.5834 -2.8833,-0.3906 -2.3358,0.5567 0.4607,0.7968 1.343,4.6219 1.9609,8.5 1.9642,14.1583 5.7281,10.1258 27.346,13.6181 0.7434,-4.2313 0.7682,-8.7164 2.0468,-12.8344 z m 101.6632,-35.8858 c -0.2026,-11.7837 2.2602,-14.3628 3.8245,-56.4269 2.9745,-79.9895 4.1104,-122.1985 3.3252,-123.5585 -0.4535,-0.7855 -3.5378,-1.1199 -7.3131,-0.7928 -57.6634,5.7459 -118.4059,7.2001 -164.1556,-8.7733 -3.1768,-1.1114 -6.1578,-1.8011 -6.6243,-1.5327 -0.1,70.8987 0.1636,127.9172 2.3064,176.5319 1.0926,0.9212 2.6137,3.0271 3.3804,4.6802 17.1387,16.5666 50.247,24.0089 74.6968,27.7743 13.4919,0.5166 88.9896,8.4067 90.5597,-17.9022 z m 45.7939,-148.68 c -6.3628,-6.8362 -12.3889,2.5751 -17.4701,0.1431 -2.1808,-3.7725 -3.2714,0.1194 -3.6516,13.0308 -0.4186,14.2195 -0.3891,14.3735 3.1759,16.7211 14.9644,6.7751 24.1243,-19.2099 17.9458,-29.895 z m -153.1652,-50.1626 c 6.2468,-8.2777 6.8795,-10.4849 4.3576,-15.2021 -4.295,-10.037 -25.5559,-19.3256 -28.6284,-3.6906 -2.7773,14.1325 14.111,32.1775 24.2708,18.8927 z m 121.3742,-149.8437 c 10.5114,-4.3549 9.12,-3.0151 8.424,-38.3364 0.2681,-19.2413 0.1198,-35.374 -0.3295,-35.8506 -0.4492,-0.4765 -1.7491,0.013 -2.8883,1.0865 -4.1259,3.8898 -31.7876,6.2619 -72.3278,6.2023 -14.4158,-1.2889 -28.444,-0.6037 -39.7937,-8.532 -1.5352,-0.045 -0.7055,56.5028 0.9692,66.0571 2.938,15.4264 4.7565,14.356 18.6187,17.1291 27.8148,5.8398 64.6292,1.1579 87.3274,-7.756 z m -35.8617,-86.5968 c 21.8278,-1.0254 31.6724,-2.7268 34.568,-5.9736 2.8654,-3.2132 2.6084,-5.3085 -0.7232,-5.8982 -23.0261,-5.1776 -46.3867,-3.3817 -68.7908,-1.8005 -9.959,0.7111 -24.1095,4.6336 -28.097,7.7882 -1.7964,1.4212 -3.0383,2.8219 -2.7594,3.1127 3.3657,3.5102 27.9963,4.5476 65.8024,2.7714 z m 251.7408,378.8258 c -5.4976,-37.0677 0.6351,-62.515 29.016,-83.2763 25.6026,-20.2834 78.3825,-26.6339 88.6608,-0.3131 2.1972,4.346 0.2125,5.7328 -1.5558,9.3565 2.0431,7.8734 2.8589,4.1571 6.6162,0.3088 7.3571,-17.7252 41.3522,46.8383 19.8429,91.222 -14.6691,22.2839 -21.7089,29.2516 -51.5126,34.5053 -28.2823,4.9854 -81.3717,-14.1668 -91.0675,-51.8032 z m 84.9442,29.2784 c -7.5211,0.8722 -39.0793,-4.4568 -41.7096,-11.9985 -1.1547,-4.238 -5.1933,-10.9956 -12.458,-9.8521 -3.0639,-1.5085 -6.9301,-6.5851 -9.3817,-8.869 -2.4517,-2.2837 -4.801,-3.6316 -5.2207,-2.9951 4.0081,15.7543 29.0759,46.861 68.1443,41.7408 19.8543,-2.6641 19.9683,-10.2691 0.6257,-8.0261 z m 39.2538,-37.1654 c 3.1271,-6.4683 5.3106,-7.5658 6.0908,-15.3388 0.678,-6.7568 0.2632,-11.2163 -1.7048,-18.3413 -2.2135,-8.0123 -7.166,-16.8848 -9.4629,-16.9525 -0.3665,-0.011 -2.6862,2.7722 -5.155,6.1843 -15.2603,20.4259 -35.9678,41.6231 -55.0645,63.997 14.9766,16.9429 54.7935,2.1757 65.2964,-19.5487 z m -43.4356,-24.1773 c 11.6554,-12.2568 21.456,-26.0169 22.6857,-26.7211 7.8136,-4.4746 5.6946,-9.2759 3.7025,-7.8133 0.032,-1.0748 -12.2687,8.3141 -24.588,23.2444 -13.5607,16.4347 -27.8824,32.5874 -31.8524,37.7588 -3.9932,5.2018 -4.3567,6.2041 -2.4397,6.7278 11.4854,-7.1661 23.8203,-24.0939 32.4919,-33.1966 z m -41.0263,15.089 c 17.1413,-20.5848 36.6952,-43.9008 51.4225,-58.9041 3.5918,-3.6334 6.5348,-6.9081 6.5399,-7.2771 0.026,-1.9444 -8.1236,-4.2451 -15.8435,-4.4724 -24.4095,2.9781 -50.6285,17.9884 -60.0201,39.6291 -5.3552,12.9338 -3.0142,27.4236 5.6858,35.1927 2.3012,2.0549 4.5884,3.7236 5.0828,3.708 0.4945,-0.016 3.7041,-3.5597 7.1326,-7.8762 z m -94.0199,-173.11 c -2.5938,-16.7345 -6.337,-41.3203 -1.2076,-57.4823 8.2583,-18.9418 21.3239,-33.5125 38.8714,-33.2589 4.2056,-1.0947 11.9415,3.0491 12.3656,0.6046 0.3457,-1.9931 0.4377,-4.9708 6.1826,-7.5132 18.1472,-3.2355 40.3812,4.6189 51.8411,15.7329 22.3527,20.5176 23.8938,38.7443 20.567,66.7676 -1.7688,14.3199 -4.74,23.5396 -10.3288,32.0507 -4.4842,6.8291 -12.9692,15.2842 -15.27,15.2164 -36.8987,19.8669 -95.5582,17.8114 -103.0213,-32.1178 z m 77.3612,26.3888 c 17.8603,-5.8183 30.4323,-12.1436 30.991,-22.9268 0.069,-2.3487 -2.8633,-1.0895 -8.1059,3.4804 -16.5669,12.3597 -39.7096,12.8106 -59.6055,8.3691 -14.1708,-3.1634 -26.7031,-19.7754 -24.2173,-11.0245 9.0406,17.8954 17.9632,19.4736 29.227,22.0943 8.0439,1.7636 22.1912,2.6882 31.7107,0.01 z m -9.2496,-21.8307 c 1.4412,-0.8549 1.4885,-1.3256 0.2174,-2.1638 -2.3692,-1.5624 -11.9362,-24.3475 -16.216,-38.6204 -2.0313,-6.7741 -5.9492,-18.6065 -8.7065,-26.2941 -6.1,-17.0078 -7.7527,-17.7185 -17.4824,-7.5171 -8.5437,8.9578 -10.4069,13.0801 -11.9847,26.5172 -1.7593,14.8406 4.0563,25.5636 14.4649,37.0008 6.4773,6.9737 33.7829,14.5913 39.7073,11.0774 z m 15.1586,-7.1382 c 1.0676,-1.2119 1.3065,-2.4313 0.5846,-2.9841 -2.0234,-1.5495 -11.3813,-22.9197 -17.2631,-39.4235 -8.2908,-23.263 -9.8867,-26.9408 -11.7198,-27.0097 -1.1868,-0.045 -1.3305,0.6295 -0.4919,2.3063 0.6517,1.3031 4.3374,11.7661 8.1904,23.2511 3.8531,11.4851 8.86,24.8382 11.1266,29.6736 2.2667,4.8355 4.4804,10.4531 4.9194,12.4836 0.9101,4.2086 2.0719,4.6337 4.6538,1.7027 z m 21.5229,-22.1753 c 4.948,-10.0176 5.9284,-22.2693 2.6547,-33.1678 -5.3322,-15.3778 -18.5874,-24.3861 -31.1507,-26.8857 -9.8855,-1.9288 -12.1015,-0.019 -7.5674,6.5211 7.9125,17.8832 22.2943,57.3795 22.0137,67.7874 l -0.9735,4.2116 5.802,-5.7717 c 3.191,-3.1745 7.3405,-8.8872 9.2212,-12.6949 z" fill="#00B894" transform="translate(277.76715,-109.16126) matrix(0.39156405,0,0,0.39156405,-663.81741,-418.47389)"/>
</svg>