<?xml version="1.0" ?><svg height="134.22543mm" viewBox="0 0 89.297516 134.22543" width="89.297516mm" xmlns="http://www.w3.org/2000/svg">
    <path d="m 20582.398,21547.629 c -4.535,0.03 -9.296,0.425 -14.294,1.232 -79.973,12.92 -85.154,73.981 -80.762,115.868 16.519,66.486 53.19,81.206 108.097,74.98 54.909,-6.226 69.616,-75.867 70.862,-93.684 1.167,-16.702 -15.872,-98.84 -83.903,-98.396 z m 44.733,211.322 c -10.887,-0.383 -22.893,17.01 -22.893,17.01 0,0 -26.481,-2.182 -58.929,1.004 -32.45,3.186 -60.769,38.109 -63.85,49.908 -3.081,11.799 -14.619,34.631 -15.209,68.553 -13.176,15.398 -18.156,32.566 -14.223,60.765 3.933,28.199 27.139,68.669 58.342,77.813 31.202,9.144 124.613,-0.648 152.539,-8.553 27.925,-7.906 25.763,-41.001 22.615,-69.849 -3.146,-28.849 -38.316,-22.313 -38.316,-22.313 0,0 -6.847,-71.372 -8.355,-99.512 -1.508,-28.141 -22.161,-43.619 -22.161,-43.619 0,0 25.371,-25.583 13.768,-30.48 -1.088,-0.459 -2.202,-0.687 -3.328,-0.727 z" fill="#FFFFFF" paint-order="markers stroke fill" transform="translate(67.372232,-33.349028) translate(-3951.7909,-4336.7988) matrix(0.26458333,0,0,0.26458333,-1524.344,-1328.9457)"/>
    <path d="m 20550.038,21544.179 c -39.801,11.651 -68.602,47.134 -73.329,85.389 -3.866,31.292 0.344,50.994 16.102,75.352 14.839,22.939 25.397,32.015 47.72,41.016 v -0.01 c 11.323,4.567 20.411,5.778 43.465,4.801 50.542,-2.142 85.698,-36.543 91.188,-79.151 2.193,-17.024 2.3,-19.966 2.3,-19.966 10.293,-1.501 16.982,-4.197 18.049,-7.958 2.325,-8.194 -5.294,-11.949 -19.51,-11.545 0,0 -0.705,-2.006 -5.679,-20.919 -9.284,-35.302 -27.741,-56.369 -74.282,-69.372 -14.258,-3.984 -34.073,-1.123 -46.024,2.363 z m 31.48,11.645 c 8.233,-0.06 14.325,1.957 27.171,7.781 23.768,10.776 34.929,23.04 41.479,45.569 5.995,20.623 5.02,25.343 5.02,25.343 -18.113,3.294 -20.222,17.086 -8.684,18.405 8.617,0.984 9.841,1.478 7.334,16.326 -7.193,42.604 -44.025,59.31 -72.402,60.162 -41.407,1.243 -60.453,-9.114 -78.725,-42.685 -11.649,-21.403 -14.187,-56.895 -5.479,-76.582 13.168,-29.768 40.947,-49.628 75.01,-53.631 3.549,-0.417 6.531,-0.668 9.276,-0.688 z m 12.481,64.668 c -1.148,-0.07 -3.94,0.604 -5.011,1.012 -5.794,2.224 -6.574,10.725 -1.453,15.846 4.302,4.301 14.873,-0.424 14.873,-6.647 0,-4.961 -3.437,-9.904 -8.409,-10.211 z m -40.581,5.34 c -7.14,0 -10.965,6.613 -8.117,14.035 2.976,7.754 14.836,6.232 15.926,-3.205 0.785,-6.806 -2.6,-10.83 -7.809,-10.83 z m 49.516,44.193 c -6.753,0.141 -14.28,1.15 -22.311,3.207 -22.667,5.808 -32.793,11.662 -36.227,20.942 -3.631,9.816 -0.658,16.918 8.465,20.222 15.746,5.704 58.584,-1.402 71.979,-11.939 22.048,-17.342 7.353,-33.04 -21.906,-32.432 z m 9.603,7.592 c 1.245,-0.01 2.93,0.214 5.033,0.381 5.147,0.409 9.387,1.383 9.387,3.07 0,1.688 -3.445,2.289 -7.49,3.069 -5.341,1.03 -8.357,2.923 -9.387,-3.069 -0.471,-2.739 0.382,-3.429 2.457,-3.451 z m -14.764,0.186 c 0.595,0.01 1.141,0.05 1.616,0.105 3.796,0.449 3.019,2.215 3.019,4.694 v 0 c 0,2.776 -2.841,4.603 -7.16,4.603 -4.038,0 -5.997,1.415 -7.654,0.264 -1.656,-1.151 -3.012,-4.87 -1.799,-6.832 1.249,-2.022 7.814,-2.939 11.978,-2.836 z m -20.849,3.859 c 1.647,-0.11 1.721,1.195 2.306,4.369 0.517,2.799 0.273,3.729 -5.128,4.471 -3.646,0.5 -5.835,2.011 -6.967,-2.553 -0.726,-2.921 1.245,-3.342 4.674,-4.658 2.57,-0.986 4.127,-1.563 5.115,-1.629 z m -16.289,5.787 c 0.346,0 0.569,0.129 0.599,0.453 0.102,1.091 0.483,2.506 0.854,3.698 0.37,1.191 0.627,1.97 -2.471,2.798 -3.098,0.829 -7.363,2.415 -6.746,0 v 0.01 c 0.382,-2.293 2.313,-4.313 4.143,-5.414 1.286,-0.775 2.8,-1.539 3.621,-1.545 z m 66.998,2.416 c 0.739,2.264 -3.359,4.52 -5.86,5.854 -6.341,3.38 -7.332,2.782 -8.746,0.496 -2.904,-4.703 0.05,-4.053 8.297,-5.354 z m -25.992,3.315 c 1.265,-0.09 2.747,1.983 3.295,4.603 0.691,3.867 -3.82,3.805 -8.44,4.77 -6.518,1.36 -8.372,0.705 -9.144,-4.449 -0.598,-3.989 2.441,-4.756 5.851,-4.756 3.375,0 7.172,-0.08 8.438,-0.168 z m -22.537,2.121 c 1.623,0.06 1.273,1.174 1.824,3.924 0.819,4.092 1.242,5.617 -4.828,6.392 -4.037,0.515 -4.747,-0.95 -5.514,-4.928 -0.717,-3.718 -0.187,-3.893 6.131,-5.127 1.082,-0.211 1.845,-0.283 2.387,-0.261 z m -16.523,3.692 c 1.53,-0.41 2.128,0.607 2.846,3.594 1.171,4.867 -0.549,4.188 -6.21,4.059 -2.671,-0.06 -4.268,-1.17 -5.754,-2.672 -1.642,-1.66 2.008,-3.075 9.118,-4.981 z m 77.427,51.632 c -0.249,0 -0.509,0.02 -0.778,0.06 -9.061,1.122 -28.764,9.524 -31.996,13.644 -2.417,3.088 -9.657,3.93 -27.24,3.182 -26.945,-1.143 -57.686,6.405 -75.963,18.652 -12.374,8.291 -28.913,31.739 -33.715,47.795 -5.005,16.738 -7.483,52.711 -3.63,52.711 1.756,0 6.362,-11.997 10.236,-26.66 12.052,-45.625 28.291,-62.562 70.293,-73.322 22.456,-5.754 47.142,-4.513 54.389,2.734 4.313,4.315 4.502,10.089 1.644,50.295 -3.431,48.282 -13.921,96.053 -21.094,96.053 -5.034,0 -13.502,-11.969 -13.502,-19.086 0,-10.077 -21.124,-29.884 -34.08,-31.955 l -11.843,-1.895 1.941,-31.734 c 1.457,-23.81 0.95,-32.931 -2.027,-36.518 -3.587,-4.321 -4.503,-4.298 -9.52,0.242 -5.972,5.404 -11.32,27.258 -12.674,51.778 -0.83,15.027 -0.992,15.253 -12.842,17.701 -18.411,3.803 -31.346,13.403 -38.798,28.797 -7.925,16.37 -8.265,32.878 -1.235,60.008 12.355,47.683 32.256,64.339 86.557,71.521 22.391,2.961 31.001,3.342 50.91,1.213 37.536,-4.015 74.368,-11.039 84.203,-16.125 14.743,-7.624 29.074,-25.97 26.938,-34.482 -1.783,-7.1 2.28,-10.179 5.836,-4.424 0.975,1.578 9.649,5.816 19.277,9.418 21.723,8.128 38.539,6.405 37.037,-3.795 -0.773,-5.249 -4.347,-7.177 -18.547,-10 -21.96,-4.367 -27.819,-9.19 -6.959,-5.729 8.438,1.401 22.221,2.59 30.625,2.59 12.53,0.03 15.485,-0.996 16.412,-5.726 1.376,-7.025 -4.103,-10.865 -16.351,-11.465 -8.998,-0.441 -8.962,-0.495 1.535,-2.35 14.767,-2.609 14.828,-12.247 0.105,-17.203 -9.548,-3.215 -9.937,-3.761 -3.834,-5.357 7.762,-2.031 8.897,-9.062 2.344,-14.5 -5.012,-4.16 -30.533,-0.08 -49.769,7.96 -9.75,4.074 -10.435,4.025 -7.875,-0.548 1.542,-2.755 8.192,-8.032 14.779,-11.727 19.091,-10.709 17.751,-26.185 -1.895,-21.871 -5.643,1.24 -15.757,8.012 -23.441,15.695 -11.205,11.206 -14.509,12.985 -19.328,10.407 -3.197,-1.711 -9.985,-3.112 -15.082,-3.112 -11.208,0 -11.587,-1.526 -15.291,-61.373 -2.222,-35.89 -3.667,-43.6 -10.817,-57.695 l -8.252,-16.27 9.557,-12.068 c 9.645,-12.176 11.477,-25.6 3.758,-25.459 z m -24.059,17.541 c 0.645,-0.08 1.33,0.07 2.014,0.488 1.571,0.971 2.857,3.756 2.857,6.188 0,5.063 -4.85,5.919 -7.672,1.353 -2.033,-3.29 0,-7.7 2.801,-8.029 z m 0.623,36.607 c 0.07,0.01 0.143,0.05 0.215,0.122 1.157,1.157 1.766,8.604 1.358,16.544 -1.078,20.823 -3.463,20.308 -3.463,-0.748 0,-9.23 0.832,-16.054 1.89,-15.918 z m 10.684,19.747 c 0.102,0 0.202,0.05 0.301,0.146 1.497,1.497 4.034,19.858 5.638,40.801 1.604,20.943 3.671,42.504 4.59,47.914 1.462,8.587 1.638,12.091 1.638,12.091 l -10.715,3.048 c -5.46,1.554 -8.546,4.177 -9.724,4.177 -1.182,0 -1.22,-11.392 -0.09,-25.316 1.132,-13.925 2.931,-38.844 3.996,-55.377 1.057,-16.405 2.835,-27.472 4.36,-27.484 z m -12.668,20.72 -1.467,23.016 c -1.822,28.62 -9.336,79.958 -18.187,124.279 l -6.743,33.756 -9.802,0.963 -9.801,0.965 5.801,-14.774 c 7.414,-18.881 30.699,-111.586 36.08,-143.656 z m -105.154,52.293 c 17.436,0.1 24.087,1.473 30.584,6.324 4.566,3.41 8.78,7.631 9.363,9.383 0.583,1.752 -13.022,6.97 -30.235,11.596 -17.212,4.626 -38.66,9.169 -47.664,10.098 -15.103,1.559 -16.369,1.195 -16.369,-4.731 0,-21.177 19.435,-32.87 54.321,-32.67 z m 39.238,25.957 c 4.7,0 11.842,15.508 8.621,18.721 -1.347,1.344 -20.32,12.871 -42.164,25.617 -21.844,12.745 -40.682,23.174 -41.861,23.174 -2.098,0 -12.018,-22.338 -12.018,-27.061 0,-5.026 76.557,-40.451 87.422,-40.451 z m -55.18,14.424 c 0.974,0.02 1.514,0.08 1.514,0.191 0,0.443 -7.767,4.242 -17.26,8.44 v 0 c -20.347,8.997 -19.564,8.876 -19.564,3.029 0,-2.531 -0.348,-5.638 -0.766,-6.904 -0.422,-1.267 7.864,-2.992 18.412,-3.836 7.912,-0.633 14.745,-0.977 17.666,-0.922 z m 159.715,1.375 c 5.248,-0.32 4.923,4.63 0.227,19.529 -2.92,9.263 -5.755,16.84 -6.303,16.84 -1.49,0 -4.83,-18.163 -4.83,-26.26 0,-4.471 2.347,-7.827 6.369,-9.103 1.819,-0.578 3.326,-0.932 4.537,-1.006 z m 13.006,0.596 c 1.214,0.03 3.056,1.458 6.57,4.304 5.606,4.54 7.601,9.734 8.651,22.52 1.943,23.69 -2.262,36.776 -14.463,45.006 v 0 c -5.629,3.797 -12.101,6.904 -14.383,6.904 -8.654,0 -3.367,-36.534 10.81,-74.687 1.012,-2.72 1.6,-4.077 2.815,-4.043 z m -31.645,5.849 c 0.206,0 0.346,0.03 0.411,0.1 0.898,0.899 7.318,64.027 7.318,72.022 0,2.204 -3.859,3.834 -9.084,3.834 -8.133,0 -9.431,-1.369 -12.354,-13.042 -1.796,-7.172 -5.339,-17.657 -7.875,-23.298 -7.23,-16.088 -3.185,-30.329 10.204,-35.922 5.221,-2.183 9.939,-3.697 11.38,-3.692 z m -69.322,2.059 c 1.383,0 2.36,0.521 3.174,1.502 3.674,4.427 -12.587,31.914 -34.203,57.816 -6.69,8.018 -14.453,14.483 -17.25,14.362 -10.806,-0.46 -29.953,-9.378 -36.783,-17.131 l -7.151,-8.117 28.631,-14.264 c 15.747,-7.846 36.469,-19.296 46.051,-25.445 9.493,-6.094 14.49,-8.706 17.531,-8.723 z m 14.066,6.936 c 0.07,-0.01 0.123,0 0.165,0.04 1.894,1.896 -6.761,36.409 -13.948,55.618 -5.782,15.453 -7.458,17.395 -14.742,17.082 -19.648,-0.852 -19.795,-1.846 -3.418,-23.213 8.464,-11.043 18.88,-26.967 23.147,-35.385 3.999,-7.892 7.793,-13.961 8.796,-14.144 z m 27.997,32.244 c 1.754,-0.06 3.771,7.581 8.572,29.002 1.617,7.214 0.781,8.246 -7.693,9.49 l -9.51,1.394 1.974,-14.888 c 1.087,-8.189 3.14,-17.985 4.565,-21.766 0.757,-2.012 1.405,-3.211 2.092,-3.232 z" fill="#00B894" transform="translate(67.372232,-33.349028) translate(-3951.7909,-4336.7988) matrix(0.26458333,0,0,0.26458333,-1524.344,-1328.9457)"/>
</svg>