<?xml version="1.0" ?><svg height="408.29639mm" viewBox="0 0 100.2426 408.29639" width="100.2426mm" xmlns="http://www.w3.org/2000/svg">
    <path color="#000" d="m 208.74033,1841.5335 0.97093,-94.5862 c 0,0 -64.55697,1.9902 -61.55892,-52.709 2.99805,-54.6992 -5.99388,-419.9853 -2.16992,-449.3281 3.82396,-29.3428 49.04397,-35.1171 49.04397,-35.1171 l 3.3981,-50.2421 29.97662,1.9659 4.49039,52.2082 c 0,0 51.7005,-3.4951 54.85593,24.3565 3.15544,27.8516 3.15544,455.5653 4.85452,472.0578 1.69908,16.4925 -8.73815,31.1283 -25.48618,32.6574 -16.74804,1.5291 -38.22925,4.4781 -38.22925,4.4781 l 6.06813,97.7537 c 0,0 58.86091,-3.1674 62.01634,19.9877 3.15543,23.1551 -24.87937,25.0118 -83.86162,23.5919 -58.98225,-1.4198 -70.06726,-17.2047 -68.08441,-28.3977 1.98285,-11.1929 63.71537,-18.677 63.71537,-18.677 z" fill="#FFFFFF" overflow="visible" paint-order="fill markers stroke" transform="translate(452.98925,91.19457) matrix(0.39156405,0,0,0.39156405,-476.60594,-427.25059)"/>
    <path d="m 84.796875,858.24023 c -1.851,0 -1.997478,1.89947 -1.205078,15.66797 0.4959,8.6167 1.450194,19.26602 2.121094,23.66602 2.3666,15.5218 1.168575,16.97456 -6.015625,7.28906 -2.8463,-3.8374 -4.88756,-5.28906 -7.44336,-5.28906 -5.3106,0 -5.482478,1.05079 -1.267578,7.80469 l 3.867188,6.19531 -5.365235,0.41406 c -7.4671,0.5762 -6.611275,4.19403 1.453125,6.14063 3.4413,0.8306 6.139097,2.29591 6.341797,3.44531 0.1941,1.1 -3.536715,6.20068 -8.291015,11.33398 -4.7543,5.1333 -8.658782,10.38262 -8.675782,11.66602 -0.0402,3.1069 0.312688,2.99718 5.304688,-1.66602 2.3551,-2.2 5.056959,-4 6.005859,-4 0.9488,0 4.746753,-3.30725 8.439453,-7.34765 3.6926,-4.0403 6.996397,-6.88723 7.341797,-6.32813 0.3455,0.559 0.692485,7.54148 0.771485,15.51758 0.0787,7.9762 0.499246,15.92556 0.935546,17.66406 0.8409,3.3502 2.44796,4.07827 3.88086,1.75977 0.4762,-0.7705 0.8415,-5.42109 0.8125,-10.33399 -0.0598,-10.1656 1.266853,-17.86115 3.189453,-18.50195 0.72,-0.24 2.929098,1.06519 4.908203,2.90039 8.5167,7.8971 12.76226,0.79352 4.38086,-7.33008 -2.5666,-2.4877 -4.66602,-4.9364 -4.66602,-5.4414 0,-0.5049 3.33722,-1.33611 7.41602,-1.84571 7.8606,-0.9821 10.16982,-3.1957 7.14062,-6.8457 -1.7422,-2.0993 -6.10632,-2.04711 -14.89062,0.17969 -2.016606,0.5112 -3.666016,0.37953 -3.666016,-0.29297 0,-0.6724 3.034636,-4.62706 6.744136,-8.78906 7.2886,-8.1776 8.90391,-13.54943 4.84571,-16.11133 -2.3885,-1.5078 -3.92351,-0.26349 -11.728518,9.50781 -2.2414,2.806 -3.44051,0.78818 -4.34961,-7.32422 -0.474899,-4.2373 -1.818828,-12.20508 -2.986328,-17.70508 -1.1675,-5.5 -2.375193,-11.35 -2.683593,-13 -0.3083,-1.65 -1.507716,-3 -2.666016,-3 z m 198.417965,10.14844 c -3.5734,-0.0138 -4.34952,3.04556 -3.46289,11.69922 1.1183,10.9153 1.11807,10.91263 -2.86523,10.39063 -5.352,-0.7013 -5.6006,3.26799 -0.5332,8.49609 2.4302,2.5074 4.09823,4.88038 3.70703,5.27148 -0.3912,0.3912 -4.68331,0.91085 -9.53711,1.15625 -8.7203,0.4409 -12.90235,2.23164 -12.90235,5.52344 0,2.3799 5.91752,3.66469 15.66602,3.40039 4.5834,-0.1244 8.33422,0.25495 8.32422,0.84375 -0.005,0.5887 -1.20121,2.87031 -2.65821,5.07031 -1.457,2.2 -2.6582,5.01602 -2.6582,6.25782 -0.012,3.0904 5.33076,6.73079 7.38086,5.02929 1.1561,-0.9595 1.77505,0.42046 2.34375,5.22266 0.4251,3.5887 1.72753,8.80836 2.89453,11.60156 l 2.12305,5.08008 3.57227,-3.57422 c 3.4114,-3.4113 3.56519,-4.15042 3.37109,-16.26172 -0.1857,-11.5834 0.72166,-14.99678 3.00586,-11.30078 1.3303,2.1524 11.00814,7.94531 13.27344,7.94531 3.5044,0 2.33785,-6.93295 -1.99415,-11.84765 -4.6147,-5.2357 -4.9566,-6.81836 -1.4746,-6.81836 3.6273,0 5.93402,-3.40801 4.95312,-7.31641 -0.9312,-3.7101 -1.71052,-3.94898 -6.70312,-2.05078 -4.1986,1.5964 -4.44174,0.0305 -0.89844,-5.80859 3.2258,-5.3157 4.73765,-12.29974 2.90625,-13.43164 -0.7673,-0.4742 -4.41271,1.95755 -8.09961,5.40625 -3.6869,3.4486 -7.01744,5.95716 -7.40234,5.57226 -0.38491,-0.385 -1.24677,-3.62712 -1.91407,-7.20312 -2.9715,-15.9247 -3.57574,-17.18637 -8.71093,-18.16797 -0.62793,-0.12004 -1.19655,-0.18357 -1.70704,-0.18555 z m -73.71093,4.51953 c -3.3539,0 -3.69999,6.61728 -2.48829,47.45508 2.0849,70.2621 2.93602,224.10072 1.25782,227.23632 -1.40161,2.5967 -14.86912,-2.9557 -18.74805,6.9746 -1.8574,2.2099 -2.36066,4.4052 -1.91406,8.334 0.3335,2.9333 0.94001,12.2326 1.34961,20.666 0.4095,8.4333 0.87545,16.5191 1.03515,17.9688 0.2468,2.2411 -0.78674,2.7723 -6.90234,3.5449 -15.36224,2.0085 -41.09388,11.8701 -47.11133,27.8223 -2.0693,7.652 -2.2622,13.2559 -1.6582,47.998 1.83843,106.1891 1.52913,236.1489 10.0293,357.9219 -0.1277,3.6241 -1.52722,16.8248 -0.66602,29.334 0.81639,24.4821 -5.18576,64.299 15.93359,72.7558 11.46602,3.9328 25.15702,9.0347 38.53125,11.3203 l 0.81836,4.8067 c 6.30828,41.1332 -3.57908,62.2699 5.76563,104.9277 2.1581,4.0781 4.19404,11.9761 15.37305,2.1445 1.98129,-1.7425 2.32036,-3.3101 1.66796,-7.6992 -5.29548,-36.1016 -5.90545,-76.3221 -1.6289,-102.1797 5.33192,0.1393 1.30513,61.7426 3.52148,74.0782 0.7062,8.1096 1.29174,17.7102 1.30274,21.3339 0.0108,3.6238 0.77697,8.0886 1.70117,9.9219 3.80977,6.8362 11.77867,0.9021 14.54492,-4.4238 0.96537,-5.8734 21.09318,-0.7 26.03906,0.5566 15.8977,5.4093 21.0997,8.996 17.8125,12.2832 -13.23565,16.0676 -75.16643,16.2669 -89.44922,12.7286 -18.856,-3.1278 -34.65381,-6.6752 -38.6914,-8.6895 -11.33771,-5.7286 3.21571,-16.9377 13.93945,-15.4297 1.4618,1.4618 14.67342,0.423 18.66992,-0.9082 3.7371,-1.2448 7.4043,-6.2353 7.4043,-10.0723 0,-0.8401 -1.25,-2.659 -2.7793,-4.0429 -5.4095,-4.8956 -38.92046,0.299 -47.15625,7.4414 -12.53078,13.3871 -8.40581,24.3152 -5.30859,33.4414 27.87999,28.5108 168.99558,25.4168 166.65625,-18.5586 -0.2802,-3.5618 -1.52716,-5.4561 -10.06836,-15.3008 -7.46352,-7.897 -29.39722,-13.7739 -40.90625,-13.9785 -7.8024,-0.2001 -14.37096,-0.5487 -14.59766,-0.7754 -6.82149,-19.4762 1.62173,-53.9819 -2.51367,-75.6387 l -0.78125,-4.6992 18.45117,-2.1894 c 19.2202,-2.2804 25.96016,-4.456 32.69336,-10.5586 8.66638,-7.9657 0.48541,-17.2965 -12.65234,-12.7539 -9.6692,4.2534 -43.46962,8.3713 -59.04492,7.1933 -27.29012,-2.4185 -61.17452,-2.8083 -60.78321,-34.9609 0.6066,-5.6228 1.38761,-7.8879 2.62891,-7.6231 0.9713,0.2073 7.25725,0.3874 13.96875,0.4004 16.4943,0.032 24.70733,-1.9425 28.64453,-6.8886 2.37309,-3.0051 3.70651,-10.3651 -3.10742,-11.3731 -11.26683,2.6099 -23.13651,2.3837 -37.01953,2.3477 -1.65039,0.878 -2.51307,0.7366 -2.88867,-0.4727 -0.9734,-13.7257 0.001,-29.4587 0.77148,-31.0898 0.575,-1.4984 3.19058,-1.9688 10.94727,-1.9688 10.2426,0 27.72696,-2.9131 29.53906,-4.9219 0.5346,-0.5927 1.31397,-2.5768 1.73047,-4.4101 0.8731,-3.8435 -3.12679,-9.6999 -5.96289,-8.7305 -3.3354,1.1403 -23.09078,1.745 -29.48438,0.9024 l -6.36719,-0.8399 -0.75,-14.666 c -0.412,-8.0666 1.15426,-16.1666 1.03516,-18 -0.2077,-3.1957 0.11351,-3.3395 7.7832,-3.4688 9.9381,-0.1671 22.57973,-3.8349 26.04883,-7.5585 3.1176,-3.3464 3.15821,-3.7233 0.75781,-7.0059 -1.687,-2.3071 -3.40206,-2.5048 -18.53906,-2.1387 -19.31489,0.4672 -16.04975,1.4745 -16.22265,-14.4941 -0.0595,-5.5 -0.24426,-12.4006 -0.41016,-15.334 l -0.30274,-5.334 9.9004,-0.1992 c 13.7274,-0.2776 18.94591,-1.2882 27.44531,-5.3125 7.8944,-3.7379 10.47262,-8.0245 7.19922,-11.9688 -1.7889,-2.1554 -2.02292,-2.146 -15.82422,0.6758 -3.7853,0.774 -10.45119,0.69 -18.33399,-0.2324 l -12.38672,-1.4492 v -4.2188 c 10e-6,-2.32 -0.3815,-9.614 -0.8496,-16.209 l -0.85157,-11.9902 13.85157,-0.8711 c 7.6181,-0.479 16.25029,-1.5849 19.18359,-2.457 2.9334,-0.8721 5.77987,-1.478 6.32617,-1.3457 12.36082,-2.0743 2.5377,-18.9187 -21.4414,-13.5664 -7.2085,-0.2355 -13.64343,0.162 -14.60743,0.9043 -1.0299,0.7929 -2.19126,0.8405 -2.88476,0.1172 -1.0745,-1.1205 -1.92028,-19.6766 -1.55078,-34.0118 l 0.1582,-6.1367 10.46484,-0.8066 c 19.20669,-1.4812 29.53638,-8.0076 25.76758,-16.2793 -1.4001,-3.0728 -2.17968,-3.465 -5.27148,-2.6543 -5.737,1.5043 -29.78594,2.3893 -30.99414,1.1406 -0.6009,-0.621 -1.26727,-9.8276 -1.48047,-20.4609 l -0.38867,-19.334 5.42578,-0.209 c 5.8356,-0.2239 9.85883,-1.0605 22.09375,0.3496 14.3177,1.6503 15.82854,-19.9023 -2.0293,-16.8047 -6.87324,1.1958 -11.83552,0 -18.07812,0 -3.642,0 -6.82006,-0.5886 -7.06446,-1.3086 -2.53693,-11.8596 0.004,-38.1335 0.0332,-51.4726 0.63031,0.3895 5.28099,0.844 10.33399,1.0098 7.45759,0.2447 10.40696,-0.3085 15.66016,-2.9356 7.1557,-3.5786 10.19335,-7.0204 10.19335,-11.543 10e-6,-4.7539 -4.53343,-6.3597 -10.83593,-3.8379 -4.3445,1.7383 -6.82238,1.8742 -13.82227,0.7559 -13.643,-2.1794 -12.67725,-0.6153 -12.65625,-20.4766 0.0248,-23.9002 -0.18003,-23.3865 9.10547,-22.83 35.30098,1.9998 72.51339,-0.4649 107.93359,-8.0821 4.36359,-0.9212 7.81937,-1.9769 10.36719,-3.373 -1.81571,5.0849 -1.88679,9.1409 -1.39453,28.0937 0.3333,12.8333 0.92465,36.2333 1.31445,52 2.97461,119.7724 4.03361,273.1057 4.00391,408.0157 4.39369,10.721 15.52548,8.5057 15.18945,-14.9903 1.734,-35.0609 7.19682,-124.7692 4.76172,-207.0254 -1.73887,-59.2205 -3.37649,-115.3411 -3.97461,-176 -0.7723,-83.4103 -1.22346,-91.4492 -5.38476,-95.9394 -3.39119,-3.5591 -6.49349,-4.3506 -9.13086,-2.6934 0.15261,-12.511 -23.3624,-14.979 -34.14258,-17.7461 l -12.66602,-2.5351 -0.17968,-20.0039 c -0.0981,-11.0026 -0.56933,-21.2412 -1.04883,-22.752 -0.9467,-2.9826 -9.43683,-6.9961 -14.79883,-6.9961 -2.7072,0 -3.31456,-0.6638 -3.35156,-3.666 -0.0247,-2.0167 -0.29677,-48.7348 -0.60547,-103.8164 -0.3087,-55.08147 -1.1379,-105.18023 -1.8418,-111.33203 -0.704,-6.1518 -1.2832,-12.08555 -1.2832,-13.18555 -0.04,-30.682 -2.44011,-46.66602 -7.00781,-46.66602 z m -82.77149,130.666 0.83985,13.5 c 0.7871,12.6469 0.68775,13.4354 -1.55665,12.4942 -4.2636,-1.7881 -8.39453,-2.3357 -8.39453,-1.1133 0,1.5979 3.63961,6.9495 7.78711,11.4511 l 3.37696,3.668 -4.58204,-0.014 c -2.5206,-0.01 -7.58329,-0.9299 -11.25,-2.0488 -6.60929,-2.0169 -12.66601,-1.6919 -12.66601,0.6797 0,2.1114 5.43065,5.1618 12.34375,6.9336 3.6464,0.9345 6.90769,2.421 7.24609,3.3027 0.3383,0.8817 -2.13063,5.1004 -5.48633,9.375 -3.3558,4.2746 -6.10311,9.1079 -6.10351,10.7422 -8e-4,2.7367 0.28892,2.8477 3.66601,1.3887 2.01671,-0.8712 6.48936,-4.6083 9.93946,-8.3047 l 6.27344,-6.7207 0.29296,8.666 c 0.1609,4.7666 0.36036,10.4671 0.44336,12.668 0.083,2.1999 0.61409,4.7511 1.17969,5.668 0.56689,0.9152 2.42155,1.664 4.12109,1.664 5.53021,0 6.50717,-2.9348 6.23047,-18.7129 -0.2785,-15.8859 0.25053,-16.8588 6.51953,-11.9551 5.9862,4.6825 9.75052,3.0951 6.60352,-2.7851 -1.0654,-1.9907 -0.89515,-3.1127 0.71875,-4.7266 1.933,-1.933 1.90967,-2.2728 -0.26953,-3.9257 -1.3122,-0.9955 -4.33535,-1.8306 -6.71875,-1.8536 -6.0296,-0.059 -5.7171,-3.614 1,-11.375 2.9334,-3.3892 5.33398,-6.4097 5.33398,-6.7129 0,-0.3032 -1.7183,-1.4403 -3.8164,-2.5253 -3.5167,-1.8186 -4.04351,-1.7577 -6.75391,0.7675 -1.6171,1.5065 -3.10865,2.5286 -3.31445,2.2715 -0.2059,-0.257 -1.15448,-4.3681 -2.10938,-9.1348 -2.2683,-11.3238 -3.39924,-13.332 -7.49804,-13.332 z m 79.55469,162 4.66601,0.3692 c 11.63501,0.9223 11.6204,0.895 12.2168,22.9589 l 0.3418,12.6622 c -6.68624,0.3 -10.83669,1.7662 -16.06836,-1.3047 -0.4205,-1.0958 -0.85334,-9.3493 -0.96094,-18.3399 z m -16.23633,55.3867 c 2.35223,0.012 4.88737,0.3994 6.07617,1.1524 1.2405,0.7857 -0.20123,1.3279 -4.42773,1.664 -6.5463,0.5206 -7.81336,0.1907 -6.63086,-1.7226 0.46,-0.7445 2.6302,-1.1061 4.98242,-1.0938 z m 39.91406,39.0098 c -4.64745,-0.067 -9.82241,0.7321 -15.58593,2.5391 -5.0753,3.5427 -6.3079,5.1388 -5.8711,7.6015 0.2528,1.4253 3.18553,1.9112 12.33203,2.0469 40.73617,2.1766 33.79551,81.2134 36.02149,116.082 0.81172,12.715 1.5793,71.7362 -0.2793,83.5977 -1.7995,11.4836 -6.84316,22.3358 -12.63086,27.1758 -4.9649,4.1519 -17.8138,10.2395 -23.5957,11.1777 -8.0219,1.3738 -5.36071,8.1177 4.36914,5.4824 12.3121,-0.8809 22.57947,-5.8772 31.73047,-15.4375 10.8863,-11.3733 15.14189,-21.1028 17.1543,-46.2519 1.47489,-18.4327 -0.008,-55.1255 -1.08594,-75.0762 -1.97861,-36.6067 2.36681,-118.2892 -42.5586,-118.9375 z" fill="#00B894" transform="translate(452.98925,91.19457) matrix(0.39156405,0,0,0.39156405,-476.60594,-427.25059)"/>
</svg>