<?xml version="1.0" ?><svg height="129.18155mm" viewBox="0 0 84.010567 129.18155" width="84.010567mm" xmlns="http://www.w3.org/2000/svg">
    <path d="m 17344.98,3421.6914 c 0,0 -14.345,15.9654 -23.982,66.6211 -9.636,50.6556 6.571,58.9345 38.766,61.2012 25.304,-9.7567 39.312,-33.1146 34.494,-58.541 -4.818,-25.4264 -49.278,-69.2813 -49.278,-69.2813 z m -223.613,25.7227 c 0,0 -15.549,14.0931 -33.398,66.8183 -17.85,52.7252 -1.205,72.6313 29.347,81.4024 30.772,0.887 44.132,-30.7466 37.123,-55.1875 -7.008,-24.4409 -33.072,-93.0332 -33.072,-93.0332 z m 120.678,106.041 c 0,0 -17.304,10.8405 -33.182,61.4961 -15.879,50.6557 7.996,52.7251 45.885,54.5976 33.618,-6.2088 32.632,-34.1972 23.543,-60.2148 -9.089,-26.0177 -36.246,-55.8789 -36.246,-55.8789 z m 127.793,110.8711 c 0,0 -14.017,35.0839 -24.748,70.5625 -10.732,35.4787 7.665,52.2327 27.486,50.2617 19.821,-1.971 36.904,-19.4142 32.961,-44.5449 -3.942,-25.1308 -35.699,-76.2793 -35.699,-76.2793 z m -258.983,56.4707 c 0,0 -15.329,58.9344 -19.71,82.4883 -4.38,23.5539 8.979,42.7702 32.742,41.1933 23.763,-1.5768 33.618,-16.4583 32.195,-33.5078 -1.424,-17.0495 -34.277,-76.3765 -45.227,-90.1738 z m 149.258,71.2519 c 0,0 -31.537,53.1206 -37.888,79.8282 -6.352,26.7075 -8.544,65.1429 32.302,60.8066 40.846,-4.3362 49.499,-23.258 47.528,-41.293 -1.971,-18.035 -41.942,-99.3418 -41.942,-99.3418 z" fill="#FFFFFF" transform="translate(-111.87664,-161.0495) matrix(0.24082065,0,0,0.24082065,-3200.3812,-73.246565) translate(-3313.5291,-2437.8203)"/>
    <path d="m 13914.715,1503.9517 c -19.382,-9.7216 -23.118,-27.1873 -14.502,-67.833 5.724,-27.005 23.299,-72.0059 31.443,-82.5683 10.419,-13.5125 6.95,-12.0867 19.599,-3.8599 13.139,8.6084 29.891,34.527 39.716,61.449 18.481,50.6453 9.166,81.6933 -28.402,94.6498 -15.458,5.3309 -35.06,4.5785 -47.854,-1.8376 z m 43.38,-21.9035 c 6.486,-3.0783 13.154,-9.6126 16.091,-15.7699 4.605,-9.6596 4.567,-12.1318 -0.489,-30.427 -6.358,-23.0122 -26.174,-65.9057 -30.449,-65.9057 -1.596,0 -7.375,13.9166 -12.841,30.9258 -11.291,35.1245 -15.789,73.9655 -9.454,81.5986 5.276,6.359 23.284,6.1547 37.142,-0.4217 z m -173.871,-69.8651 c -20.652,-12.8155 -24.057,-40.5494 -10.33,-84.1009 6.909,-21.9205 20.73,-54.2552 25.367,-59.3522 5.112,-5.6174 36.37,39.4023 47.039,67.7455 15.421,40.9697 13.858,63.0135 -5.295,74.691 -13.205,8.0522 -44.542,8.6133 -56.781,1.0166 z m 45.943,-22.7086 c 4.958,-5.4769 4.784,-7.5937 -2.719,-33.487 -9.929,-34.265 -23.418,-62.1028 -26.944,-55.6053 -4.543,8.3741 -15.879,57.9588 -15.879,69.4617 0,18.2194 7.14,25.4767 25.065,25.4767 10.728,0 16.739,-1.7163 20.477,-5.8461 z m 207.569,-34.5277 c -23.557,-14.6114 -24.499,-48.14 -2.872,-102.3843 17.675,-44.332 17.924,-44.6737 25.856,-35.2117 12.858,15.34 36.252,62.7433 40.089,81.2279 6.071,29.269 -0.927,46.7238 -23.37,58.2831 -10.053,5.1777 -29.802,4.2249 -39.703,-1.915 z m 35.166,-21.8976 c 6.686,-4.6823 7.258,-7.0345 5.993,-24.5819 -0.874,-12.0689 -5.696,-30.1955 -12.763,-47.9509 -10.586,-26.6002 -11.513,-27.8978 -13.593,-19.0313 -1.227,5.2337 -4.914,19.4785 -8.198,31.655 -10.875,40.3588 -6.113,65.0869 12.539,65.0869 4.747,0 11.957,-2.33 16.022,-5.1778 z m -156.642,-86.4256 c -13.47,-3.4846 -22.251,-9.6044 -28.178,-19.6405 -10.801,-18.2813 -4.509,-45.1378 23.907,-102.0639 12.116,-24.2752 18.543,-30.5955 18.543,-18.2382 0,3.489 1.92,6.3437 4.27,6.3437 2.349,0 9.38,4.9609 15.623,11.0242 26.908,26.1317 41.797,80.4234 28.036,102.2161 -10.887,17.2362 -38.869,26.395 -62.201,20.3586 z m 36.853,-29.3065 c 5.648,-5.6481 6.404,-9.0594 4.72,-21.3374 -2.174,-15.8722 -16.267,-48.2471 -26.313,-60.4461 l -6.276,-7.6239 -11.211,28.241 c -12.445,31.3474 -16.417,48.3912 -13.222,56.7147 10.037,14.919 40.288,16.0608 52.302,4.4517 z m -172.196,-53.6276 c -22.385,-11.8252 -31.179,-33.5583 -24.895,-61.5411 1.931,-8.5986 11.782,-33.577 21.895,-55.5075 10.111,-21.9303 20.096,-45.9397 22.188,-53.35394 2.093,-7.41425 4.953,-13.48034 6.352,-13.48034 3.368,0 8.967,12.11862 29.32,63.43718 14.249,35.9271 17.14,46.6495 17.968,66.6091 1.157,27.999 -4.361,41.8051 -21.218,53.0656 -13.527,9.0369 -35.346,9.3631 -51.61,0.7714 z m 41.77,-22.1181 c 10.225,-10.224 8.539,-35.3604 -4.733,-70.5443 -6.095,-16.1531 -11.091,-31.1534 -11.103,-33.334 -0.05,-10.0793 -6.052,-1.8559 -15.032,20.6171 -14.176,35.4852 -16.709,44.5272 -16.709,59.6636 0,11.2011 1.673,14.9255 9.76,21.7298 12.066,10.1531 28.711,10.9752 37.817,1.8678 z m 198.243,-20.1218 c -16.033,-7.3899 -21.685,-16.3704 -23.162,-36.7981 -1.138,-15.7347 0.782,-24.9328 12.391,-59.3538 7.558,-22.4031 13.853,-43.89154 13.988,-47.75135 6.161,-22.76809 55.612,44.91815 62.745,59.15505 8.518,19.2514 9.07,52.4998 1.071,64.373 -13.062,19.3911 -46.874,29.668 -67.033,20.3752 z m 38.996,-26.4134 c 18.707,-11.6855 15.757,-40.5476 -7.363,-72.036 -8.438,-11.4922 -15.842,-20.3944 -16.455,-19.7822 -2.978,2.9787 -19.935,68.204 -19.935,76.6823 0,21.6321 21.465,29.0581 43.753,15.1359 z" fill="#00B894" transform="translate(-111.87664,-161.0495) matrix(0.24082065,0,0,0.24082065,-3200.3812,-73.246565)"/>
</svg>