<?xml version="1.0" ?><svg height="122.77877mm" viewBox="0 0 129.00195 122.77877" width="129.00195mm" xmlns="http://www.w3.org/2000/svg">
    <path d="m 12942.706,398.6082 c -17.106,-17.9608 -21.299,-60.9762 4.36,-95.0112 25.66,-34.035 98.361,-36.9781 116.977,-46.7886 18.615,-9.8106 30.942,-24.6773 31.948,-44.072 1.006,-19.3946 -8.385,-58.1085 9.811,-77.9559 18.196,-19.8475 46.958,-20.6021 66.664,-17.8853 19.706,2.7167 39.579,8.3766 39.579,8.3766 0,0 -2.6,-58.7122 42.43,-102.6332 45.03,-43.921 81.171,-43.9964 113.874,-34.2614 32.703,9.7351 84.525,51.6185 73.624,102.7087 -10.902,51.0902 -33.123,130.48 -33.123,130.48 0,0 21.299,34.186 25.659,55.3163 4.361,21.1304 -8.636,45.6567 -33.206,72.6734 -24.569,27.0167 -48.803,51.8449 -90.646,55.7691 -41.843,3.9242 -68.089,4.9052 -68.089,4.9052 0,0 -90.814,44.4493 -142.049,50.1092 -51.235,5.6599 -128.548,-15.6214 -157.813,-61.7309 z" fill="#FFFFFF" transform="translate(-16.426639,-103.25625) matrix(0.24082065,0,0,0.24082065,-3094.1804,110.92288)"/>
    <path d="m 13054.624,476.97066 c -32.903,-4.78504 -91.382,-33.60142 -115.105,-56.7199 -21.239,-20.69572 -26.003,-35.33314 -21.003,-64.52213 4.766,-27.81707 20.158,-58.30415 36.497,-72.29099 15.769,-13.49812 35.576,-21.2697 80.774,-31.6946 50.515,-11.65125 57.66,-21.3131 53.865,-72.85419 -2.02,-27.46153 -1.678,-30.03028 5.378,-40.41907 9.952,-14.65024 42.958,-31.8983 60.952,-31.85155 7.29,0.0191 20.287,2.168 28.883,4.77559 8.596,2.60756 17.354,4.74107 19.462,4.74107 2.274,0 6.075,-11.28141 9.341,-27.735938 8.966,-45.14715 16.101,-60.51835 38.111,-82.1012995 10.712,-10.50619 28.042,-23.4001305 38.508,-28.6531905 16.982,-8.52242 22.118,-9.5431 47.684,-9.47703 24.553,0.0633 31.387,1.3425 47.755,8.93782 25.239,11.71152 46.134,34.17257 57.516,61.82737 13.315,32.35484 12.36,56.30096 -4.801,120.182068 -7.527,28.01651 -14.408,54.23163 -15.294,58.25598 -0.974,4.43551 2.569,16.34576 9.002,30.24505 14.061,30.38079 16.11,55.85327 6.077,75.52174 -3.89,7.62562 -18.785,25.57534 -33.097,39.8884 -20.208,20.2075 -31.664,28.73649 -51.258,38.161 -23.205,11.1604 -27.935,12.25211 -58.773,13.56483 -34.89,1.48538 -37.175,2.18722 -74.032,22.71798 -47.211,26.29821 -127.008,45.23604 -166.442,39.50099 z m 82.774,-39.31778 c 52.288,-13.97429 113.486,-49.22856 157.206,-90.5582 31.313,-29.60403 76.619,-90.61741 94.283,-126.97555 15.28,-31.453 43.049,-123.287658 42.932,-141.992728 -0.167,-25.69664 -28.715,-64.05907 -56.554,-75.9754595 -34.775,-14.8837905 -64.364,-11.27945 -96.537,11.7591795 -27.834,19.93233 -37.228,37.9796 -49.064,94.265578 -6.371,30.29651 -15.449,49.5353 -37.261,78.95959 -18.973,25.59248 -47.314,49.62227 -74.107,62.83541 -18.001,8.87817 -28.679,11.94103 -98.352,28.21435 -15.571,3.63693 -34.666,10.33617 -42.431,14.8872 -25.229,14.78479 -44.035,53.89022 -39.054,81.20417 3.171,17.38261 19.74,32.80677 52.49,48.86538 42.405,20.79157 57.116,24.49185 90.735,22.82113 16.636,-0.82665 41.708,-4.5662 55.714,-8.31005 z m -15.024,-89.27499 c -21.435,-11.31861 -22.92,-23.16217 -5.821,-46.39182 9.339,-12.68838 16.54,-18.16821 66.239,-50.40563 24.654,-15.99131 39.026,-33.27148 64.656,-77.74251 17.049,-29.5793 31.125,-43.73112 48.028,-48.28241 17.734,-4.77547 32.387,-1.56244 45.541,9.98692 21.689,19.04404 26.471,52.68248 11.798,82.99358 -10.117,20.89725 -41.695,56.88226 -66.418,75.68632 -20.971,15.95004 -77.927,46.00269 -105.866,55.85994 -18.883,6.66225 -43.689,5.93522 -58.157,-1.70439 z m 74.771,-30.50271 c 45.859,-22.9963 68.343,-38.28068 97.392,-66.20379 39.162,-37.64498 52.557,-63.36598 44.974,-86.34676 -9.222,-27.94387 -46.332,-32.41386 -65.984,-7.9479 -2.173,2.70694 -12.421,18.54969 -22.77,35.20608 -23.392,37.65059 -44.691,57.82803 -81.52,77.23567 -23.56,12.41403 -30.354,17.75109 -38.205,30.01819 -14.352,22.41925 -15.066,25.54249 -7.117,31.11096 14.204,9.94848 34.577,6.31182 73.23,-13.07245 z m 147.254,70.66566 c 12.607,-6.10824 27.915,-18.04982 45.303,-35.341 29.364,-29.19973 40.754,-49.32853 37.406,-66.09872 -3.24,-16.23352 -11.385,-40.21214 -14.259,-41.98936 -1.45,-0.89615 -7.018,6.13215 -12.371,15.61846 -24.007,42.53662 -74.136,102.62613 -108.67,130.26341 l -11.144,8.91726 22.347,-1.07223 c 16.598,-0.79596 27.245,-3.44588 41.388,-10.29782 z m -209.343,-175.89122 c 10.967,-7.76542 27.027,-22.63459 35.69,-33.04251 15.401,-18.50744 33.861,-47.01726 31.509,-48.66759 -3.322,-2.33268 -43.768,-9.4875 -51.478,-9.1062 -11.695,0.57846 -39.976,16.10823 -45.957,25.23674 -3.74,5.70872 -4.255,13.00566 -2.491,35.29399 1.765,22.29525 1.177,30.60143 -2.844,40.22331 -2.786,6.6692 -5.067,12.70397 -5.067,13.41061 0,2.59006 21.225,-9.60475 40.638,-23.34835 z" fill="#00B894" transform="translate(-16.426639,-103.25625) matrix(0.24082065,0,0,0.24082065,-3094.1804,110.92288)"/>
</svg>