<?xml version="1.0" ?><svg height="233.60677mm" viewBox="0 0 189.78262 233.60677" width="189.78262mm" xmlns="http://www.w3.org/2000/svg">
    <path d="m 15683.123,3579.6895 c -29.825,-0.3813 -63.617,9.9696 -81.488,23.3535 -21.995,16.4724 -46.977,43.9727 -57.739,93.5312 -10.762,49.5586 -42.657,87.3823 -58.996,108.3086 -9.348,33.0862 19.555,47.3784 38.571,55.1445 19.017,7.7661 27.26,-1.8386 48.627,7.6348 21.367,9.4734 52.003,-2.9689 74.705,-5.4433 22.703,-2.4745 7.543,-23.1895 7.543,-23.1895 0,0 26.706,27.0058 66.22,29.1973 39.513,2.1916 85.312,-54.931 97.645,-87.7344 12.333,-32.8035 -10.605,-109.7207 -14.768,-122.3047 -4.164,-12.5841 -5.735,-41.9239 -15.24,-51.6094 -9.505,-9.6855 -52.16,-17.7447 -85.31,-24.8144 -6.216,-1.3256 -12.887,-1.9863 -19.77,-2.0742 z m 649.084,131.3535 -362.061,1.7675 c 0,0 -9.033,0.4937 -8.876,12.4415 0.157,11.9478 -6.127,117.5685 -5.813,133.3339 0.314,15.7654 -8.955,90.5645 -8.955,90.5645 l -21.525,132.3437 c 0,0 114.691,12.6553 146.82,14.6348 32.13,1.9796 212.178,6.2207 212.178,6.2207 0,0 11.783,-36.4084 23.959,-97.7734 12.176,-61.3649 24.273,-293.5332 24.273,-293.5332 z m -698.414,186.3965 c -24.575,0.5703 -51.627,14.7022 -70.076,39.3144 0,0 -38.466,78.4022 -56.463,157.6953 -17.997,79.2931 24.324,156.3611 54.978,167.5742 30.655,11.2132 85.834,15.0407 115.895,-13.6152 30.061,-28.6558 15.129,-42.7172 15.92,-73.4199 0.791,-30.7026 19.383,-89.0808 37.973,-117.5586 18.591,-28.4779 17.403,-85.0777 8.998,-119.1621 -8.405,-34.0845 -76.536,-39.4249 -102.346,-40.7598 -1.613,-0.083 -3.241,-0.1064 -4.879,-0.068 z m 484.148,314.9902 c -4.95,-0.053 -10.16,0.1844 -15.507,0.6699 -28.519,2.5897 -45.53,7.3667 -48.471,16.6895 0,0 -0.896,26.1843 6.521,52.0234 7.418,25.8391 13.941,37.8667 29.608,53.6348 15.666,15.7682 18.545,42.3554 18.545,42.3554 l 7.033,0.5176 c 0,0 14.067,-41.0899 20.078,-54.0957 6.011,-13.0059 24.17,-73.7752 21.996,-91.5 -1.766,-14.4014 -18.349,-20.0664 -39.803,-20.2949 z m -180.595,1.5801 c -9.5,-0.1816 -18.862,2.9607 -26.108,8.7011 -16.562,13.1209 -18.545,50.0664 -18.545,50.0664 0,0 -33.57,-2.2442 -41.627,30.961 -8.057,33.2052 13.11,51.9082 13.11,51.9082 0,0 -41.502,75.0992 2.556,86.8965 44.057,11.7973 88.821,-58.5254 88.821,-58.5254 0,0 38.494,-21.3508 48.277,-49.8946 9.784,-28.5438 -20.016,-47.1308 -20.016,-47.1308 0,0 1.664,-31.5937 -13.363,-54.2676 -8.453,-12.7541 -20.892,-18.4814 -33.105,-18.7148 z m 302.207,2.4433 c -0.925,-0.021 -1.871,0.1008 -2.836,0.3867 -10.295,3.05 -20.269,6.2731 -21.74,27.1055 -1.471,20.8324 2.876,57.3764 6.265,89.3731 3.389,31.9967 9.719,29.0611 25.705,27.9101 0,0 13.239,-3.2796 12.983,-11.6816 -0.256,-8.402 -1.409,-98.9259 -3.071,-109.5723 -1.507,-9.6483 -8.37,-23.3141 -17.306,-23.5215 z m -174.379,271.6699 c -7.737,-0.1727 -93.23,10.3 -126.865,12.084 -33.635,1.784 -86.966,-4.6618 -99.883,-6.0429 -12.917,-1.3812 -26.664,-5.2361 -29.094,-0.92 -2.429,4.3162 -7.865,36.2559 -7.865,36.2559 8.505,34.1835 26.089,54.6122 60.107,75.6172 34.019,21.005 64.712,31.1343 97.324,29.0625 32.612,-2.0717 59.916,-24.2863 77.373,-41.4356 17.457,-17.1493 40.413,-52.0229 39.454,-62.2089 -0.959,-10.1861 -2.813,-42.2396 -10.551,-42.4122 z" fill="#FFFFFF" transform="translate(26.720896,-107.64091) matrix(0.21810534,0,0,0.21810534,-2679.2016,-139.2763) translate(-3313.5291,-2437.8203)"/>
    <path d="m 12605.585,2198.7939 c -28.569,-5.1833 -52.939,-16.2186 -77.43,-35.0648 -25.022,-19.2534 -34.236,-31.8904 -41.913,-57.4809 -5.518,-18.3928 -5.85,-23.218 -2.545,-36.9992 5.348,-22.296 10.241,-23.9391 54.876,-18.43 48.285,5.9595 93.349,4.9983 149.595,-3.1911 25.858,-3.7647 52.942,-6.4052 60.189,-5.8681 12.192,0.9035 13.517,1.9286 17.705,13.7112 6.053,17.0187 3.076,45.5108 -7.068,67.668 -11.673,25.4947 -40.176,51.8464 -73.051,67.5375 -29.911,14.2756 -40.513,15.3467 -80.358,8.1174 z m 48.532,-22.0805 3.264,-14.0639 -32.925,-2.2442 c -18.109,-1.2343 -33.599,-1.5724 -34.418,-0.7518 -2.719,2.7176 7.978,24.3463 13.682,27.6678 3.081,1.7944 14.948,3.306 26.368,3.3592 l 20.767,0.096 3.262,-14.0643 z m 35.532,-7.2288 c 10.103,-6.4581 25.711,-19.0824 34.689,-28.054 15.578,-15.5661 28.806,-35.5249 25.645,-38.6876 -0.817,-0.8159 -10.592,2.6609 -21.726,7.7261 -22.744,10.3483 -39.599,27.0315 -51.965,51.4355 -12.025,23.7261 -11.958,23.763 13.357,7.58 z m -121.834,-9.7478 c -18.97,-25.6377 -36.902,-40.8388 -57.342,-48.6102 -20.007,-7.6068 1.999,18.4084 36.294,42.9076 13.393,9.5673 25.595,17.4501 27.116,17.5179 1.521,0.063 -1.208,-5.249 -6.068,-11.8153 z m 65.284,-9.2245 c 30.576,2.0038 30.972,1.938 34.473,-5.7442 5.587,-12.2671 26.198,-33.4976 38.636,-39.8006 6.246,-3.1662 19.716,-8.3757 29.928,-11.5763 l 18.568,-5.8194 -2.152,-14.4588 c -1.184,-7.9518 -2.657,-14.9792 -3.276,-15.6156 -0.618,-0.6372 -16.015,1.8392 -34.212,5.5014 -18.197,3.6625 -43.345,7.6125 -55.883,8.778 -22.674,2.1073 -30.363,5.5416 -14.467,6.462 10.305,0.5974 18.655,8.4826 16.081,15.1897 -2.409,6.2789 -9.353,6.3881 -21.067,0.3303 -7.992,-4.1331 -9.534,-4.1331 -12.966,0 -5.248,6.325 -18.746,5.9567 -21.256,-0.5794 -1.279,-3.3371 0.516,-7.3257 4.893,-10.8698 6.772,-5.4832 6.406,-5.6424 -17.777,-7.7462 -13.577,-1.1814 -38.168,-4.886 -54.644,-8.2324 -16.476,-3.3464 -31.812,-6.0844 -34.081,-6.0844 -2.285,0 -5.021,5.3238 -6.139,11.9389 -1.108,6.5664 -2.64,14.2528 -3.405,17.0804 -1.06,3.9119 1.564,5.5387 10.97,6.8001 6.798,0.9119 17.71,4.1961 24.248,7.2983 14.154,6.7163 43.139,32.5383 49.166,43.799 3.856,7.206 5.229,7.6679 13.856,4.6606 5.841,-2.0354 21.648,-2.5473 40.506,-1.3114 z m 293.001,-111.9846 c 0,-1.4391 2.302,-9.377 5.117,-17.6396 5.064,-14.8573 5.028,-15.1553 -3.183,-27.0037 -9.217,-13.2985 -10.365,-24.2511 -4.16,-39.5978 5.433,-13.4263 3.647,-20.3406 -5.869,-22.7289 -12.808,-3.2146 -16.986,-14.297 -24.329,-64.536 -7.82,-53.4975 -6.571,-65.2105 8.914,-83.6125 17.796,-21.1513 45.991,-7.9201 50.75,23.8168 1.186,7.9086 2.347,35.9483 2.581,62.3105 0.418,47.3981 0.334,48.0078 -7.536,54.8531 -5.74,4.9913 -8.111,10.474 -8.501,19.6548 -0.296,7.0025 -1.542,17.445 -2.767,23.2046 -1.588,7.4737 -0.814,12.0341 2.708,15.9245 9.828,10.8599 12.075,22.3607 6.826,34.9248 -6.927,16.578 -20.551,30.1221 -20.551,20.4294 z m 12.538,-126.8398 c 4.828,-4.1974 -3.493,-116.5825 -9.136,-123.3823 -8.901,-10.7267 -22.504,7.6141 -22.504,30.3438 0,7.3776 2.142,25.7153 4.763,40.7499 2.62,15.035 5.573,34.1463 6.564,42.4698 1.727,14.5262 2.145,15.0515 10.358,13.0831 4.707,-1.1283 9.186,-2.597 9.955,-3.2643 z m -401.727,95.2165 c -20.64,-12.7971 -22.438,-36.3978 -5.096,-66.8383 8.985,-15.7717 9.215,-17.0162 4.071,-22.1595 -14.558,-14.557 -17.161,-43.3176 -5.895,-65.1029 5.11,-9.8819 20.186,-21.4157 32.187,-24.6259 6.554,-1.7529 9.078,-5.2566 11.958,-16.5984 7.731,-30.4418 27.182,-46.4128 52.33,-42.9659 29.451,4.0363 46.488,23.2731 50.339,56.8378 1.366,11.8982 4.482,19.6679 10.819,26.9725 17.314,19.9548 17.789,41.4651 1.535,69.2023 -8.648,14.7561 -27.824,30.375 -37.294,30.375 -2.982,0 -9.198,6.6087 -14.126,15.0171 -4.84,8.2591 -15.654,21.8694 -24.028,30.2451 -15.053,18.1615 -19.367,20.7949 -42.054,20.7174 -12.695,0.036 -24.381,-4.6064 -34.746,-11.0763 z m 62.953,-24.9926 c 14.809,-16.5176 37.77,-63.6613 46.316,-95.0942 9.682,-35.6264 10.176,-77.3709 1.06,-89.7453 -9.133,-12.3954 -22.555,-18.5938 -32.553,-15.0306 -15.866,5.6555 -20.437,16.9478 -24.608,60.7827 -4.358,45.7881 -10.852,66.4751 -31.774,101.2175 -18.782,31.1896 -19.539,34.7942 -9.434,44.9008 7.378,7.3769 10.303,8.211 24.135,6.8821 13.351,-1.283 17.429,-3.395 26.858,-13.913 z m -20.788,-34.8987 c 0,-0.9919 7.371,-18.4195 16.38,-38.7279 9.974,-22.4791 17.722,-45.437 19.807,-58.6859 3.443,-21.8624 8.386,-29.4542 8.386,-12.88 0,16.0038 -9.274,44.9531 -25.246,78.8155 -13.668,28.9756 -19.327,38.1919 -19.327,31.4783 z m 28.971,-21.1094 c 12.901,-25.5583 18.317,-40.8094 23.51,-66.2297 4.221,-20.664 4.229,-20.6729 4.527,-6.1492 0.167,7.9996 -2.01,22.3237 -4.835,31.8314 -6.373,21.4594 -25.673,60.2774 -29.971,60.2774 -1.755,0 1.291,-8.8783 6.769,-19.7299 z m 66.697,-22.3272 c 6.412,-12.1923 8.355,-32.6503 3.396,-35.7159 -1.55,-0.957 -4.487,5.0474 -6.528,13.3429 -2.042,8.2957 -6.507,22.6583 -9.919,31.9167 -3.415,9.2585 -6.199,17.8545 -6.187,19.1022 0.05,3.0961 11.643,-14.1957 19.238,-28.6459 z m -113.082,-26.1186 c 2.574,-8.6657 4.68,-19.9684 4.68,-25.1174 0,-8.9761 -0.296,-9.1685 -7.163,-4.6686 -9.85,6.4524 -15.666,19.4781 -15.91,35.6258 -0.425,28.1186 9.219,25.0566 18.393,-5.8398 z m -148.887,88.0739 c -27.414,-20.9927 -42.23,-48.0776 -42.23,-77.2046 0,-11.3816 0.989,-23.5592 2.195,-27.0613 1.798,-5.2187 -0.896,-8.3278 -14.933,-17.2359 -21.875,-13.8805 -63.88,-54.5709 -77.173,-74.7558 -21.924,-33.2915 -34.508,-84.5623 -31.729,-129.2746 1.813,-29.1594 15.86,-88.6802 28.107,-119.0898 8.18,-20.3093 16.048,-28.1184 22.165,-21.9999 2.713,2.7111 0.793,14.7347 -7.612,47.6838 -6.182,24.2323 -13.025,58.3853 -15.205,75.8956 -3.477,27.9158 -3.283,35.6229 1.573,62.5782 3.069,17.0162 9.721,39.5781 14.903,50.5334 10.544,22.2976 43.493,58.4679 75.422,82.7976 18.629,14.1964 20.747,15.0306 30.991,12.2021 14.205,-3.922 27.824,-0.045 60.439,17.1987 18.892,9.9878 25.733,15.3208 26.49,20.6442 1.898,13.3668 -10.573,12.3528 -56.734,-4.6131 -9.586,-3.5227 24.315,28.3545 38.959,36.636 17.128,9.6851 20.705,15.5208 13.766,22.4606 -7.825,7.8236 -35.234,-2.4798 -53.723,-20.1945 -8.206,-7.864 -14.921,-13.1015 -14.921,-11.6389 0,7.3881 16.726,24.8968 36.612,38.3227 14.723,9.9398 22.287,17.1362 22.287,21.2034 0,9.3355 -20.678,7.6475 -35.8,-2.9224 -26.282,-18.3689 -27.239,-18.4854 -10.723,-1.3059 11.378,11.8335 16.502,19.5316 15.222,22.8672 -2.944,7.6772 -15.633,6.0092 -28.348,-3.7268 z m 375.701,-11.143 c -2.555,-3.9398 -5.537,-14.8662 -6.633,-24.2807 -1.726,-14.8557 -3.646,-18.5348 -14.525,-27.8474 -15.652,-13.3967 -33.001,-52.4055 -33.82,-76.0392 -0.303,-8.7686 -2.223,-19.0611 -4.262,-22.8726 -8.62,-16.1041 -3.928,-20.9767 28.505,-29.602 57.724,-15.3517 110.365,0.1624 95.403,28.1149 -1.898,3.5501 -3.453,13.8634 -3.453,22.9187 0,29.0678 -11.998,66.1103 -26.568,82.0358 -5.263,5.7494 -6.739,11.5147 -6.791,26.5214 -0.05,15.2558 -1.333,20.0992 -6.251,23.6949 -8.871,6.4887 -16.275,5.5826 -21.605,-2.6438 z m 29.905,-78.7963 c 3.775,-7.8796 9.269,-23.6602 12.211,-35.0676 9.921,-35.9151 6.511,-24.4186 -29.962,-20.9162 -19.331,1.8561 -39.441,-1.2264 -44.494,-2.5098 -9.002,-2.2862 -9.145,-2.1197 -7.108,8.1825 4.723,23.8709 19.018,53.3977 32.641,67.4126 7.645,7.865 13.899,16.7724 13.899,19.7943 3.023,23.2397 17.342,-25.5687 22.813,-36.8958 z m -6.894,-82.7759 c -6.404,-4.1385 -63.674,-4.1385 -63.674,0 0,1.928 13.498,3.1646 34.223,3.135 23.274,-0.036 32.698,-1.0363 29.451,-3.135 z m -438.695,-38.9772 c -5.238,-45.1437 12.94,-105.0182 30.191,-130.6437 20.583,-30.5719 21.313,-32.986 21.418,-70.7476 0.1,-37.4486 -2.705,-47.0566 -17.889,-61.2359 -11.069,-10.3364 -40.097,-19.3054 -70.456,-21.7686 -30.78,-2.4974 -45.128,2.2121 -74.651,24.5022 -9.407,7.1021 -17.903,12.1134 -18.88,11.1361 -3.911,-3.9124 7.113,-22.022 19.675,-32.3149 21.459,-17.5839 32.147,-20.6051 72.887,-20.6051 59.3,0 91.456,13.7118 106.719,45.5075 3.536,7.3649 10.836,29.8663 16.22,50.0032 14.888,55.6623 40.902,123.8636 55.37,145.1529 9.372,13.795 9.828,12.8379 14.515,-30.5401 4.418,-40.8633 11.392,-79.4767 19.558,-108.2454 3.725,-13.1327 9.394,-35.7924 12.596,-50.3548 6.939,-31.5569 11.404,-39.1463 27.528,-46.8009 32.441,-15.399 86.638,2.2313 87.118,28.3397 0.07,4.216 5.494,10.6846 14.482,17.2991 7.899,5.8108 16.717,15.5095 19.599,21.5526 4.761,9.9852 4.782,11.4435 0.238,15.9868 -4.47,4.47 -5.967,4.4954 -14.15,0.24 -5.033,-2.6177 -12.597,-8.4488 -16.809,-12.9581 -4.212,-4.5092 -12.942,-10.9517 -19.399,-14.3168 l -11.735,-6.118 1.406,7.3655 c 2.311,12.0871 -11.289,18.7633 -33.553,16.4692 -10.012,-1.0318 -21.335,-2.8019 -25.16,-3.9335 -6.06,-1.7929 -7.419,-0.3321 -10.566,11.356 -8.199,30.4516 -15.742,70.8084 -20.518,109.7922 -6.698,54.6786 -10.36,69.6824 -19.393,79.4273 -22.195,23.95 -49.828,-5.9709 -76.177,-82.4862 -13.14,-38.1559 -17.615,-48.539 -17.615,-40.8725 0,1.8112 -7.7,14.8661 -17.113,29.0106 -19.159,28.7878 -29.059,52.6481 -35.812,109.6357 -2.356,19.898 -12.249,68.9322 -19.644,11.1655 z m 249.615,-249.7427 c 11.944,-1.6786 13.811,-2.6162 8.018,-4.0268 -10.188,-2.4808 -32.247,-0.1786 -32.247,3.3655 0,3.4235 3.833,3.5281 24.229,0.6615 z m 160.427,167.4727 c -87.275,-6.6963 -121.611,-10.2127 -148.042,-15.1614 -27.464,-5.142 -28.696,-5.7329 -29.677,-14.2328 -0.564,-4.8773 1.874,-21.3307 5.418,-36.5627 3.541,-15.2322 7.414,-35.2485 8.605,-44.4807 1.989,-15.4127 5.776,-22.807 9.678,-18.9031 5.764,5.7624 2.937,41.8093 -6.81,86.8804 -3.484,13.0295 -0.38,9.8519 48.312,13.5039 121.432,8.9102 153.263,10.7399 221.964,12.7577 47.622,1.3986 73.233,1.0369 73.98,-1.0445 2.321,-6.4556 17.863,-93.3237 22.216,-124.1639 4.888,-34.613 12.237,-113.4279 15.69,-168.2178 2.235,-42.4872 11.54,-35.0481 -29.193,-32.6771 -77.915,4.5355 -115.186,5.6647 -185.049,5.6066 -41.17,-0.036 -88.976,-1.0636 -106.239,-2.2874 -34.258,-0.9158 -30.344,-1.4004 -30.184,18.3911 -0.258,38.2855 -6.211,82.2405 -12.736,84.3634 -5.54,1.8017 -6.486,-7.6724 -4.048,-40.4856 1.237,-16.6348 2.383,-47.15 2.548,-67.8115 0.439,-55.2479 4.25,-59.536 52.927,-59.536 11.619,0 13.809,-1.0787 15.449,-7.6081 3.644,-14.5274 21.065,-11.6821 21.065,3.441 0,4.8488 97.275,5.5786 173.185,1.2993 42.941,-2.4207 44.426,-2.7434 50.408,-10.9561 7.645,-10.4947 14.257,-10.7939 18.789,-0.8502 3.121,6.8515 6.158,7.8361 30.394,9.8549 27.075,2.2554 35.303,6.8319 27.075,15.0591 -2.314,2.3139 -2.842,17.1375 -1.607,45.1535 1.249,28.3764 0.143,58.5006 -3.465,94.2396 -10.398,103.0803 -25.487,205.4043 -35.556,241.1645 -4.016,14.268 -5.833,16.7143 -12.416,16.7143 -4.243,0 -8.966,-2.2393 -10.499,-4.9767 -2.524,-4.5132 -3.169,-4.5132 -6.915,0 -3.534,4.2588 -14.064,4.9128 -72.985,4.5339 -37.872,-0.2455 -83.899,-1.5973 -102.285,-3.0079 z m 196.594,-351.4073 c 21.977,-0.1029 26.268,-0.9608 26.266,-5.2504 0,-2.8199 0.909,-11.774 2.022,-19.8981 4.147,-17.7817 -0.44,-14.7709 -16.745,-14.7709 -15.32,0 -19.499,1.1697 -22.746,6.3674 -5.167,8.2756 -11.908,8.085 -17.928,-0.5072 -4.811,-6.8696 -4.856,-6.8717 -67.834,-3.1543 -34.658,2.0458 -83.832,3.7065 -109.269,3.6903 -43.629,-0.027 -41.891,-3.1456 -47.507,3.413 -3.803,9.4538 -23.197,5.0623 -22.072,-2.9467 0.762,-4.5965 -3.935,-3.6793 -26.76,-3.6793 -27.204,0.5054 -24.553,-7.2033 -24.553,18.5715 0,10.2144 1.074,19.7189 2.388,21.1212 1.313,1.4023 69.006,1.3384 150.429,-0.1416 58.104,-0.6976 116.203,-2.4272 174.309,-2.8148 z m -188.7,298.4985 c -3.88,-9.2889 -4.043,-12.1407 -0.805,-14.196 6.263,-3.9743 11.426,-3.1516 14.482,2.3074 2.524,4.5131 3.169,4.5131 6.915,0 5.461,-6.5794 9.742,-6.3146 9.615,0.5947 -0.143,7.9351 -7,15.9407 -16.862,19.6908 -7.892,3 -8.83,2.4101 -13.345,-8.3969 z m -36.547,3.8287 c 0,-2.6266 -1.433,-4.7756 -3.186,-4.7756 -1.75,0 -3.182,1.4327 -3.182,3.1837 0,1.7511 -1.433,3.1837 -3.183,3.1837 -4.246,0 -4.029,-7.4008 0.511,-17.3605 4.403,-9.6639 8.966,-10.1743 18.918,-2.1156 6.533,5.2897 6.955,6.9718 3.605,14.3265 -4.078,8.9493 -13.483,11.4313 -13.483,3.5578 z m -92.328,-1.2207 c 0,-1.5466 -3.042,-3.6079 -6.762,-4.5804 -5.619,-1.4693 -6.383,-3.2757 -4.523,-10.6864 3.556,-14.1623 15.929,-18.3806 16.18,-5.5153 0.07,3.3506 1.144,7.7518 2.397,9.7804 2.686,4.3483 -0.36,13.8142 -4.448,13.8142 -1.564,0 -2.844,-1.2655 -2.844,-2.8125 z m 40.592,-2.6463 c -9.833,-4.9858 -11.094,-10.8491 -3.89,-18.0551 10.762,-10.7614 26.421,5.5634 16.746,17.456 -3.589,4.4094 -5.194,4.4842 -12.856,0.5992 z m 72.428,-35.8358 c -33.605,-1.9741 -51.788,-7.0823 -57.371,-16.1187 -1.134,-1.8346 -4.568,-2.5409 -7.629,-1.5694 -3.331,1.0572 -7.963,-0.8853 -11.542,-4.8404 -5.115,-5.6508 -5.308,-7.0322 -1.33,-9.5474 7.034,-4.4493 9.384,-3.6965 12.197,3.9043 2.411,6.5178 2.683,6.3666 4.45,-2.4722 3.097,-15.4859 14.009,-26.7862 25.64,-26.5541 8.396,0.1678 9.033,0.6443 3.749,2.8079 -8.075,3.305 -16.144,12.4861 -18.885,21.4867 -2.679,8.8048 5.702,14.5122 30.029,20.4468 24.19,5.9019 126.372,5.0178 162.683,-1.4077 45.05,-7.972 57.096,-15.6501 47.736,-30.4288 -2.051,-3.2407 -3.364,-1.7792 -4.971,5.535 -2.72,12.3799 -6.008,14.5311 -14.298,9.3535 -8.465,-5.2862 -8.267,-14.3986 0.466,-21.47 l 6.962,-5.6383 -12.533,-4.3486 c -13.77,-4.7766 -101.583,-6.1484 -152.619,-2.3842 -28.383,2.0935 -28.517,2.069 -14.327,-2.6018 20.246,-6.6629 142.147,-9.9022 165.131,-4.3881 33.231,7.9717 49.167,35.2085 30.645,52.3741 -17.758,16.4571 -95.836,23.6388 -194.183,17.8614 z m -119.367,-27.1032 c -4.718,-12.4033 -4.049,-14.3781 4.855,-14.3781 9.092,0 13.665,7.8645 8.935,15.3657 -5.213,8.262 -10.416,7.8893 -13.79,-0.9876 z m 93.376,2.9182 c -1.053,-2.7442 -0.403,-6.5005 1.442,-8.3472 1.846,-1.8467 2.605,-5.32 1.684,-7.7184 -2.109,-5.4962 7.817,-9.5926 12.325,-5.0859 1.846,1.8466 5.332,2.6 7.744,1.674 2.65,-1.0169 4.389,0.425 4.389,3.6417 0,8.7494 -6.531,18.2603 -11.285,16.4357 -2.438,-0.9348 -5.277,-0.3294 -6.311,1.345 -2.856,4.6179 -7.844,3.6465 -9.988,-1.9449 z m 50.774,-11.1919 c 0.96,-7.1487 2.478,-13.732 3.376,-14.6296 3.123,-3.1238 20.668,2.5793 22.483,7.3083 2.304,6 -12.693,20.319 -21.28,20.319 -5.558,0 -6.112,-1.5684 -4.579,-12.9977 z m 48.598,10.0662 c -1.122,-1.8174 -0.549,-6.0954 1.277,-9.5068 1.827,-3.4114 2.46,-8.4432 1.409,-11.1819 -2.956,-7.7054 6.941,-9.5134 15.991,-2.9211 7.581,5.5211 11.055,18.1348 5.84,21.2035 -6.43,3.7856 -22.679,5.3802 -24.517,2.4063 z m 44.3,-4.3561 c -1.005,-4.0081 -0.279,-11.3605 1.612,-16.3386 3.214,-8.453 3.818,-8.7106 9.135,-3.8987 4.055,3.6698 6.677,4.1689 9.11,1.7345 2.435,-2.4343 4.066,-2.3698 5.668,0.2247 4.002,6.4761 -1.122,17.5025 -10.035,21.5864 -11.839,5.4255 -13.381,5.0964 -15.49,-3.3079 z m -79.837,-57.978 c -1.335,-3.5021 -4.609,-8.0012 -7.276,-9.9982 -3.985,-2.9863 -4.174,-5.1058 -1.06,-11.9388 4.642,-10.1899 9.04,-10.4889 16.836,-1.1447 7.61,9.121 7.617,12.6633 0.05,21.9331 -5.969,7.318 -6.194,7.3483 -8.558,1.1486 z m -115.936,-3.2946 c -4.837,-5.8285 4.809,-16.1296 14.945,-15.9592 7.873,0.1327 9.026,1.3721 9.026,9.7027 0,8.6658 -0.977,9.561 -10.53,9.6571 -5.793,0.054 -11.841,-1.4719 -13.441,-3.4006 z m 63.765,-2.4615 c 0,-4.2849 2.221,-9.634 4.936,-11.8868 4.078,-3.3853 5.864,-3.1663 10.294,1.2618 6.568,6.5701 2.101,15.8376 -8.391,17.3985 -5.408,0.805 -6.839,-0.6101 -6.839,-6.7735 z m 144.064,5.2395 c -5.838,-2.3552 -4.852,-12.0347 1.841,-18.0921 8.24,-7.4575 13.281,-6.5353 13.281,2.4298 0,15.4872 -4.363,20.0044 -15.122,15.6623 z m 42.98,-0.09 c -7.483,-1.9554 -7.054,-11.3975 0.845,-18.5452 6.215,-5.6251 6.557,-5.6202 10.778,0.1552 3.257,4.4525 3.518,7.8164 1.032,13.274 -1.831,4.0205 -4.176,7.1439 -5.208,6.9408 -1.031,-0.203 -4.384,-1.0245 -7.447,-1.8253 z m -103.14,-5.8268 c -1.007,-2.6281 1.98,-9.7781 6.641,-15.8889 8.677,-11.3749 14.517,-14.232 14.517,-7.1006 0,2.2053 2.866,5.7991 6.368,7.9861 7.93,4.9528 8.472,16.523 0.795,17.0133 -3.063,0.1958 -10.276,0.8988 -16.029,1.5621 -7.196,0.8303 -11.029,-0.2842 -12.292,-3.572 z m -456.395,-48.8833 c -26.839,-8.8371 -50.184,-28.3176 -64.627,-53.929 -7.188,-12.7427 -7.89,-13.2029 -9.721,-6.3673 -1.084,4.0524 -1.991,11.3078 -2.015,16.1231 -0.05,11.0202 -5.58,11.3564 -9.676,0.5884 -6.236,-16.4066 -1.836,-52.6931 9.616,-79.2924 3.037,-7.0551 13.625,-23.5026 23.527,-36.5503 11.609,-15.2963 18.694,-28.0185 19.94,-35.8165 2.218,-13.8812 6.452,-15.739 9.37,-4.1134 3.266,13.0223 -1.137,27.2205 -16.221,52.2964 -17.803,29.5978 -25.186,48.6481 -22.695,58.5673 3.445,13.7252 29.737,45.896 44.656,54.639 8.591,5.0343 21.411,9.1439 31.903,10.2267 14.837,1.5316 20.238,0.4883 35.088,-6.7758 20.088,-9.8288 37.399,-28.1684 48.309,-51.178 9.914,-20.9145 9.599,-25.7443 -1.943,-29.768 -5.254,-1.8312 -9.552,-4.5501 -9.552,-6.0421 0,-5.1788 7.684,-10.3534 15.373,-10.3534 7.653,0 7.717,-0.2554 6.215,-24.6735 -1.764,-28.7417 -14.336,-67.7226 -25.811,-80.0455 -4.253,-4.566 -9.456,-11.6481 -11.562,-15.7379 -5.299,-10.2808 -7.182,-6.9832 -2.739,4.7887 4.212,11.1605 1.693,20.8293 -4.778,18.3457 -4.677,-1.7947 -11.717,-21.3792 -11.717,-32.5943 0,-9.814 -4.505,-10.9653 -22.265,-5.6908 -22.362,6.6404 -22.894,7.2999 -13.814,17.075 15.392,16.564 26.932,48.0957 16.309,44.5545 -5.163,-1.721 -27.479,-37.5837 -27.763,-44.6143 -0.119,-3.0643 -1.717,-5.5714 -3.543,-5.5714 -6.013,0 -33.054,27.8863 -46.027,47.4632 -7.003,10.5703 -14.525,19.2581 -16.714,19.3064 -12.469,0.2752 7.45,-45.9169 29.909,-69.3562 17.963,-10.2508 7.502,-18.7757 -18.765,-24.378 -5.48,-1.1326 -8.756,-0.4549 -8.756,1.81 0,1.9911 -4.506,8.751 -10.012,15.0222 -5.507,6.2713 -18.329,29.0248 -28.494,50.5634 -10.164,21.5386 -19.859,39.1612 -21.542,39.1612 -8.109,0 15.272,-68.7853 29.9,-87.9617 l 8.149,-10.6842 -8.885,3.3779 c -14.384,5.4685 -29.233,18.3762 -35.642,30.9827 -3.288,6.465 -9.778,26.081 -14.422,43.5913 -14.031,52.8854 -46.977,110.9402 -71.924,126.7362 -18.069,11.4394 -17.603,2.0525 1.253,-25.3206 26.096,-37.8832 40.179,-67.729 53.116,-112.5585 8.438,-29.2419 14.945,-42.21 29.838,-59.4766 11.673,-13.5343 45.205,-32.8504 57.024,-32.8504 3.546,0 12.302,-4.243 20.499,-6.8032 33.056,-10.3251 93.715,-3.4625 132.521,29.2548 11.089,9.3497 16.021,8.8124 24.172,31.532 0,10.7385 2.557,21.3742 7.519,31.2859 10.305,20.5796 17.192,43.3493 19.754,65.3167 1.993,17.0824 2.834,18.5991 11.246,20.2817 20.392,4.0783 20.523,20.1535 0.167,20.1535 -12.158,0 -12.545,0.351 -16.17,14.7544 -5.566,22.0983 -15.031,38.5728 -33.204,57.7872 -20.957,22.1598 -42.189,33.038 -67.244,34.4547 -10.542,0.5957 -22.749,-0.096 -27.125,-1.5371 z m 9.002,-279.084 c 38.983,-5.7746 -28.473,-13.0481 -42.135,-11.3815 -1.588,0.1937 10.977,3.7897 18.694,7.9909 13.462,7.3288 10.811,5.2616 23.441,3.3906 z m 311.491,279.7478 c -4.353,-4.3514 -1.855,-15.6845 5.475,-24.8453 6.543,-8.1782 8.264,-8.879 12.72,-5.1816 5.747,4.7716 6.855,14.8014 1.967,17.8227 -1.75,1.0822 -3.183,4.7484 -3.183,8.1472 0,4.3512 -2.199,6.1794 -7.428,6.1794 -4.088,0 -8.386,-0.9551 -9.551,-2.1224 z m -35.776,-5.2689 c -3.214,-8.3749 -0.05,-26.0373 4.652,-26.0373 7.464,0 11.595,9.8224 8.185,19.4699 -3.546,10.0305 -10.201,13.4356 -12.837,6.5674 z m 93.348,-5.6216 c -3.066,-5.3839 -5.574,-11.7887 -5.574,-14.2331 0,-6.054 14.728,-15.2803 20.721,-12.9806 7.801,2.9934 0.817,37.1074 -7.578,37.0229 -1.101,-0.01 -4.506,-4.4252 -7.569,-9.8092 z m 87.791,4.7563 c -1.156,-3.0122 0.02,-9.1918 2.633,-13.7325 3.529,-6.1531 7.006,-8.0897 13.653,-7.6036 11.806,0.8637 13.09,2.6225 9.444,12.9405 -1.913,5.411 -5.442,8.7378 -9.35,8.8115 -3.455,0.063 -8.081,1.2304 -10.28,2.5896 -2.478,1.5319 -4.797,0.3898 -6.1,-3.0055 z m 45.269,2.1188 c -3.027,-4.8981 0.514,-14.3153 7.899,-20.9971 6.036,-5.464 6.538,-5.461 12.653,0.072 7.316,6.622 8.089,12.1177 2.368,16.8645 -6.48,5.379 -20.563,7.8728 -22.92,4.059 z m 50.494,-0.7202 c -2.669,-4.3192 5.053,-21.7948 9.633,-21.7948 2.077,0 6.229,1.7915 9.223,3.981 4.883,3.5707 4.957,4.6784 0.707,10.7462 -5.344,7.6289 -16.685,11.726 -19.565,7.0676 z m -143.555,-4.6789 c -2.029,-5.2854 4.64,-17.1159 9.647,-17.1159 2.23,0 6.836,2.0651 10.234,4.5891 4.947,3.6741 5.475,5.737 2.65,10.347 -4.006,6.5365 -20.255,8.1085 -22.531,2.1798 z m -558.398,-4.8524 c -1.944,-3.6308 -2.987,-12.3197 -2.321,-19.3084 l 1.211,-12.7071 -6.483,7.7715 c -3.565,4.2743 -9.561,11.9419 -13.324,17.0392 -5.704,7.7284 -7.82,8.6855 -12.734,5.7618 -6.272,-3.7316 -9.393,-21.8817 -6.053,-35.1906 3.281,-13.0736 8.119,-8.0373 8.119,8.4516 0,8.7552 1.194,15.9185 2.65,15.9185 1.459,0 7.257,-5.7307 12.887,-12.7348 11.268,-14.0237 25.852,-17.866 25.852,-6.8117 0,3.2577 0.881,12.3534 1.958,20.2127 1.559,11.3812 0.922,14.6874 -3.135,16.2442 -3.252,1.2476 -6.373,-0.4332 -8.627,-4.6469 z m 28.842,0.3511 c -3.73,-6.9694 -1.476,-18.9818 3.562,-18.9818 1.689,0 3.845,2.5071 4.793,5.5714 0.948,3.0643 3.051,8.0592 4.675,11.0997 4.157,7.7834 3.775,8.7983 -3.305,8.7983 -3.438,0 -7.817,-2.9194 -9.725,-6.4876 z m 50.515,-4.4523 c -3.655,-8.0216 -1.905,-17.7133 3.2,-17.7133 3.092,0 6.722,10.6283 6.796,19.8981 0.07,8.1165 -5.896,6.8142 -9.996,-2.1848 z m -24.252,0.8447 c -4.752,-4.7511 -5.186,-15.3746 -0.63,-15.3746 1.805,0 4.109,2.1489 5.117,4.7755 1.007,2.6266 3.947,4.7755 6.532,4.7755 5.877,0 3.694,7.64 -2.528,8.8481 -2.519,0.4892 -6.34,-0.8727 -8.491,-3.0245 z m -111.9,-8.5253 c -5.533,-10.3351 -4.062,-32.8573 2.889,-44.2577 9.463,-15.5169 17.71,-12.7927 9.233,3.0486 -1.946,3.6353 -3.999,15.1468 -4.565,25.581 -1.172,21.6259 -2.679,24.7429 -7.557,15.6281 z m 214.101,-25.7508 c -7.302,-3.3146 -15.012,-9.276 -17.139,-13.2474 -3.365,-6.2869 -2.892,-8.0082 3.658,-13.311 6.559,-5.3113 10.585,-5.8057 31.463,-3.8645 13.171,1.2242 25.019,2.8789 26.333,3.6772 6.929,4.2123 -1.643,24.4582 -12.441,29.3777 -10.651,4.8532 -16.442,4.3752 -31.874,-2.632 z m 29.193,-16.1191 c 1.201,-1.9469 -3.744,-3.1837 -12.736,-3.1837 -8.99,0 -13.938,1.2368 -12.734,3.1837 1.081,1.751 6.812,3.1837 12.734,3.1837 5.921,0 11.652,-1.4327 12.736,-3.1837 z m 380.187,10.347 c -0.143,-1.3133 -0.828,-5.9694 -1.521,-10.347 -0.738,-4.659 1.297,-11.2595 4.905,-15.9185 5.014,-6.4775 7.213,-7.3086 11.812,-4.4642 7.316,4.528 8.723,21.7426 2.297,28.1673 -5.081,5.0816 -17.025,6.831 -17.493,2.5624 z m 108.508,-9.7357 c 0,-14.3396 6.852,-22.7336 13.83,-16.9426 2.91,2.4154 3.66,7.3749 2.344,15.5124 -1.492,9.2263 -3.562,12.1945 -9.054,12.9791 -6.34,0.906 -7.12,-0.3592 -7.12,-11.5489 z m -155.425,-3.8395 c 0.191,-13.9859 3.723,-18.3714 10.353,-12.8671 7.169,5.9485 8.097,19.0958 1.595,22.5754 -9.882,5.2895 -12.129,3.4639 -11.948,-9.7083 z m 106.416,4.8893 c -4.057,-6.192 -4.506,-9.5816 -1.913,-14.4283 3.947,-7.3763 5.936,-7.6561 13.515,-1.9031 7.204,5.4694 7.072,12.3233 -0.365,19.0542 -5.614,5.081 -6.221,4.9342 -11.237,-2.7228 z m -152.261,-2.8224 c -1.7,-8.8996 4.042,-17.9408 11.397,-17.9408 5.976,0 6.963,9.897 1.924,19.3114 -4.527,8.4587 -11.58,7.733 -13.321,-1.3706 z m 240.871,0.8438 c -2.343,-3.7888 7.746,-19.1785 13.92,-21.2366 4.817,-1.6053 4.857,6.1663 0.1,16.6292 -3.859,8.4706 -10.313,10.5927 -14.012,4.6074 z m -676.256,-93.0584 c -0.215,-30.7009 42.036,-107.1966 59.195,-107.1966 6.607,0 5.427,2.4721 -5.951,12.4703 -12.578,11.0524 -34.054,50.6325 -45.057,83.0404 -7.416,21.8429 -8.113,22.8387 -8.187,11.6859 z m 141.236,2.3594 c -2.469,-9.8377 0.209,-21.5002 8.242,-20.0733 4.865,0.8641 6.674,1.3274 5.841,12.8925 -1.203,16.6855 -10.506,21.4299 -14.083,7.1808 z m 31.75,0.2744 c -2.851,-7.4297 1.617,-20.6869 6.97,-20.6869 6.796,0 9.267,8.5746 5.103,17.7133 -3.997,8.7702 -9.344,10.0872 -12.073,2.9736 z m -88.261,-38.9931 c 0.549,-15.1914 1.998,-21.4899 4.942,-21.4899 5.538,0 7.517,32.2526 2.362,38.4627 -6.707,8.0837 -8.092,4.8653 -7.304,-16.9728 z m 22.144,-10.3544 c -12.374,-17.2233 -13.947,-22.2784 -6.941,-22.2784 5.692,0 24.154,24.8124 24.154,32.464 0,9.6031 -5.21,6.52 -17.213,-10.1856 z m 37.86,-7.1559 c -12.099,-33.4637 -13.651,-41.9738 -7.259,-39.8436 5.206,1.7354 18.248,27.7775 18.358,36.6599 0.09,7.6678 -8.58,10.156 -11.099,3.1837 z" fill="#00B894" transform="translate(26.720896,-107.64091) matrix(0.21810534,0,0,0.21810534,-2679.2016,-139.2763)"/>
</svg>