<?xml version="1.0" ?><svg height="142.20544mm" viewBox="0 0 94.637337 142.20544" width="94.637337mm" xmlns="http://www.w3.org/2000/svg">
    <path d="m 13743.999,130.0787 c -2.778,-26.8347 100.995,-48.2833 173.776,-46.6482 72.78,1.6351 193.76,27.6042 192.264,45.3979 -1.496,17.7936 -13.573,21.16 -13.573,21.16 0,0 -11.969,129.4608 -19.878,161.0085 -7.909,31.5477 -22.871,118.1114 -48.734,163.9901 -25.863,45.8788 -43.391,71.4632 -48.093,104.9345 -4.702,33.4713 -2.992,77.6188 -17.207,75.9837 -14.214,-1.6351 -24.26,4.7129 -28.321,-50.207 -4.061,-54.9198 -66.582,-120.5158 -91.483,-152.5445 -24.902,-32.0286 -56.963,-97.4322 -72.139,-176.4938 -15.176,-79.0615 -14.963,-125.0364 -14.963,-125.0364 z" fill="#FFFFFF" transform="translate(-136.06391,-60.852986) matrix(0.24082065,0,0,0.24082065,-3170.5038,42.24105)"/>
    <path d="m 13938.848,661.59928 c -3.405,-3.4044 -6.994,-11.6422 -7.978,-18.30624 -9.308,-63.12703 -18.82,-83.58584 -58.928,-126.7345 -35.718,-38.43022 -48.022,-56.09946 -70.933,-101.87282 -20.812,-41.58088 -32.094,-71.89535 -38.656,-103.8743 -6.167,-30.05653 -15.186,-129.42511 -12.624,-139.08778 1.478,-5.58057 -0.597,-9.99992 -8.553,-18.20928 -15.031,-15.50718 -14.376,-27.47928 2.355,-43.086 15.269,-14.24251 30.334,-18.645502 60.007,-23.781304 62.09,-10.746401 124.377,-11.047385 172.506,-6.853583 89.035,8.08923 124.26,19.883297 139.673,34.364217 10.761,10.11066 10.159,25.00409 -1.486,36.69992 -8.861,8.89892 -9.185,10.43808 -12.7,60.07198 -7.777,109.88392 -36.437,224.51928 -70.721,282.87577 -7.354,12.51718 -15.575,27.05629 -18.271,32.30945 -2.696,5.25306 -6.127,11.70008 -7.627,14.3266 -11.382,19.9383 -14.923,33.36849 -17.86,67.75087 -2.813,32.93484 -4.229,38.8521 -11.629,48.5512 -6.743,8.8414 -10.616,11.0455 -19.405,11.0455 -6.631,0 -13.434,-2.4521 -17.17,-6.1897 z m 28.476,-25.90019 c 0,-12.97752 0,-12.98599 -10.349,-10.80747 -14.694,3.09656 -16.888,6.29669 -10.745,15.67264 3.334,5.08912 8.267,8.12252 13.207,8.12252 7.104,0 7.887,-1.2887 7.887,-12.98769 z m -8.761,-29.19613 c 5.184,-3.97138 9.277,-37.30745 4.592,-37.37614 -1.211,-0.0191 -6.585,-0.0361 -11.946,-0.0361 h -9.744 l 2.053,15.12249 c 3.751,27.60977 5.234,29.80575 15.045,22.28579 z m -1.299,-56.99623 c 14.188,-3.2752 16.524,-5.063 21.734,-16.63987 3.209,-7.13379 11.225,-21.31681 17.813,-31.5179 18.123,-28.06569 30.107,-53.36371 40.57,-85.64481 5.208,-16.0643 9.04,-29.63634 8.515,-30.16005 -0.523,-0.52342 -8.088,1.7589 -16.808,5.07267 -52.64,20.0011 -146.437,22.2706 -196.109,4.74506 l -12.601,-4.446 13.245,24.61964 c 16.278,30.26067 31.197,50.30103 61.81,83.03733 12.982,13.88159 26.051,30.05537 29.043,35.94169 10.513,20.68878 9.708,20.32004 32.788,14.99224 z m 33.644,-166.6775 c 20.482,-4.24762 57.629,-15.75935 61.721,-19.12708 1.201,-0.9872 22.925,-106.96748 22.932,-111.87463 0,-2.47239 -5.054,-1.75052 -15.472,2.20771 -49.372,18.76011 -106.402,26.67345 -177.652,24.65075 -46.746,-1.32688 -56.66,-2.56551 -77.481,-9.68144 -13.133,-4.48795 -24.303,-7.7452 -24.819,-7.23827 -2.777,2.72164 12.825,64.68168 22.051,87.57688 10.036,24.90032 11.538,26.89277 23.343,30.92425 32.214,11.00237 118.25,12.33513 165.377,2.56183 z m -42.397,-119.48176 c 14.725,-1.81315 49.88,-8.54625 78.125,-14.96249 l 51.351,-11.66586 5.158,-31.05711 c 7.295,-43.92764 8.577,-40.98895 -15.019,-34.44565 -26.316,7.2966 -102.641,18.07479 -146.967,20.75358 -48.577,2.93562 -93.732,-2.8997 -150.023,-19.38742 l -6.755,-1.9792 6.817,38.99244 6.817,38.99254 20.556,5.79635 c 40.535,11.43041 100.697,15.02665 149.94,8.96282 z m 60.831,-108.03856 c 43.416,-6.53725 83.464,-16.78753 86.824,-22.22323 6.723,-10.87721 -125.523,-32.66854 -198.885,-32.77169 -59.694,-0.0812 -127.934,11.40001 -138.748,23.34942 -5.22,5.76684 -5.213,6.40507 0.143,12.31304 6.863,7.58276 35.9,17.47366 70.167,23.90038 34.444,6.46046 121.974,4.24545 180.508,-4.56792 z" fill="#00B894" transform="translate(-136.06391,-60.852986) matrix(0.24082065,0,0,0.24082065,-3170.5038,42.24105)"/>
</svg>