<?xml version="1.0" ?><svg height="179.80872mm" viewBox="0 0 35.095032 179.80872" width="35.095032mm" xmlns="http://www.w3.org/2000/svg">
    <path d="m 13267.662,1194.5511 c 3.055,-27.4166 1.528,-236.8983 4.413,-265.1551 2.885,-28.2567 12.813,-54.5278 46.078,-56.9716 33.264,-2.4439 62.286,27.0348 60.928,65.9833 -1.358,38.9484 -6.364,254.0051 -6.534,268.3626 -0.17,14.3574 -15.444,26.4239 -50.236,30.0896 -34.792,3.6657 -51.594,-1.9093 -54.649,-42.3088 z" fill="#FFFFFF" transform="translate(-88.495541,-133.34397) matrix(0.24082065,0,0,0.24082065,-3102.4066,-74.113175)"/>
    <path d="m 13254.684,1603.2787 c -2.452,-3.6857 -0.218,-8.2229 10.105,-20.5309 12.437,-14.8293 13.313,-17.073 14.248,-36.5127 0.869,-18.0833 -0.725,-24.5782 -12.552,-51.1618 -16.178,-36.3536 -18.186,-46.1525 -15.214,-74.1924 2.782,-26.2442 10.829,-42.6839 35.858,-73.2344 21.576,-26.3386 25.88,-38.8114 24.633,-71.3894 -0.467,-12.2146 -0.411,-23.6862 0.129,-25.4912 0.537,-1.8058 -6.798,-5.0112 -16.301,-7.124 -17.878,-3.9737 -27.344,-8.8505 -32.645,-16.8139 -4.354,-6.5432 -6.258,-57.3276 -5.218,-139.0768 0.494,-38.686 0.809,-82.5936 0.704,-97.57186 -0.105,-14.97819 1.239,-40.84513 2.988,-57.48252 2.774,-26.16912 4.51,-32.33444 13.051,-45.71764 12.421,-19.47143 27.659,-27.37099 48.528,-25.15906 19.565,2.07376 32.736,1.58981 49.811,26.00918 27.623,39.50672 26.061,84.50588 17.627,230.3493 -4.752,82.1415 -6.196,95.7269 -10.93,102.9319 -6.709,10.1742 -24.559,21.3391 -36.872,23.0614 -8.379,1.1725 -9.117,2.2652 -8.732,12.9304 2.041,56.4353 -2.477,72.6831 -29.359,105.6183 -25.185,30.853 -29.723,40.0893 -32.174,65.4773 -1.89,19.6484 -0.889,24.8591 10.546,54.5755 20.963,54.475 18.787,88.6165 -7.419,116.343 -9.935,10.5121 -15.792,11.6848 -20.798,4.1638 z m 67.357,-376.9168 c 23.235,-2.3551 45.02,-12.5237 42.85,-20.0014 -1.44,-4.9626 -0.134,-40.4401 5.737,-155.9809 4.477,-88.0443 0.156,-122.39422 -19.248,-153.05166 -10.758,-17.0009 -15.507,-17.74768 -10.65,-1.67512 4.507,14.92418 4.31,55.68303 -0.269,55.19777 -1.728,-0.18319 -3.501,-10.98098 -3.942,-23.99543 -1.268,-37.51123 -10.395,-54.6344 -19.832,-37.21251 -2.555,4.71465 -6.318,23.16125 -8.366,40.99204 -3.584,31.20357 -7.953,39.87027 -10.995,21.8097 -2.183,-12.95571 2.625,-53.82466 7.108,-60.41908 3.282,-4.82865 3.229,-5.93327 -0.246,-5.22778 -2.424,0.49172 -7.42,5.5317 -11.099,11.20002 -7.751,11.94038 -12.981,52.086 -12.934,99.28626 0.02,15.84909 -0.226,52.56099 -0.535,81.58199 -0.313,29.0207 0.03,66.8651 0.753,84.0986 0.723,17.2333 0.65,37.6352 -0.167,45.3374 -2.01,18.9646 4.628,21.8306 41.835,18.0597 z" fill="#00B894" transform="translate(-88.495541,-133.34397) matrix(0.24082065,0,0,0.24082065,-3102.4066,-74.113175)"/>
</svg>