<?xml version="1.0" ?><svg height="143.22523mm" viewBox="0 0 42.651054 143.22523" width="42.651054mm" xmlns="http://www.w3.org/2000/svg">
    <path color="#000" d="m 2234.0032,1210.2756 c 0,0 -27.2954,-179.1193 -26.1809,-201.7327 1.1146,-22.61344 24.3165,-42.03548 78.3194,-40.21182 54.0029,1.82366 58.123,22.28411 54.9332,57.69112 -3.1898,35.407 -28.489,180.4796 -28.489,180.4796 25.1149,4.9813 5.2084,29.4979 3.2423,46.23 0,0 38.6024,160.209 39.109,184.4638 0.5066,24.2547 -45.002,35.1217 -45.002,35.1217 l 1.1477,32.3966 c 0,0 -55.7075,-6.7129 -59.8282,-39.8967 -4.1207,-33.1838 -17.2515,-254.5416 -17.2515,-254.5416 z" fill="#FFFFFF" overflow="visible" paint-order="fill markers stroke" transform="translate(-98.799921,85.54982) matrix(0.26458333,0,0,0.26458333,-483.49052,-340.5225)"/>
    <path d="m 2246.0659,1476.7831 c -0.1903,-4.612 -0.4874,-7.0506 -1.8022,-14.7926 -5.3664,-64.1377 -6.6855,-124.6717 -14.8048,-190.6666 -0.4493,-3.6667 -1.9129,-8.4667 -3.2522,-10.6667 -1.3394,-2.2 -2.9307,-7.6 -3.5363,-12 -1.3823,-10.0435 -0.6556,-38.5155 0.9983,-39.1111 1.6309,-1.7274 1.0745,-4.1466 2.5082,-5.7778 0.8042,-0.2804 0.815,-2.4126 0.029,-5.7778 -4.0512,-58.4972 -18.358,-100.5592 -23.304,-158.6668 -0.2868,-3.6666 -1.1422,-10.8666 -1.901,-16 -1.3067,-15.3057 3.1807,-36.19319 15.5576,-47.49399 13.8521,-10.3211 30.4882,-9.2908 45.0102,-11.3477 28.7707,-3.5509 55.0986,5.2858 75.0149,13.7877 7.7667,3.3221 9.0179,6.9068 8.7303,25.01189 -6.1227,53.6797 -10.0378,107.4947 -20.8971,161.3756 -1.0553,5.1333 -2.9009,14.7333 -4.1013,21.3333 -1.2004,6.6 -1.1953,9.0458 -1.5777,10.997 2.6283,10.3059 12.1496,7.1838 10.3711,21.9768 -0.7752,6.0644 -1.3761,14.7858 -1.3353,19.3807 0.049,5.5295 -0.6495,9.4587 -2.0655,11.6198 -3.8826,7.2288 2.7656,19.0811 5.1188,27.5833 6.1577,39.6782 16.0001,74.8679 25.3878,119.8093 -0.3872,0.6265 0.5224,6.7253 2.0213,13.5528 1.4989,6.8275 3.0929,16.6787 3.5421,21.8917 1.019,11.827 -1.725,19.1357 -8.8112,23.4681 -15.8329,9.6804 -24.768,13.2403 -38.5484,15.3583 l -4.4833,0.689 0.906,6.8302 c 0.4984,3.7567 1.7681,7.7829 2.8219,8.9472 2.785,3.0775 1.0809,14.0549 -2.5802,16.6192 -12.774,2.3638 -64.8119,-10.182 -65.017,-27.9308 z m 50.996,10.874 c 0.6057,-6.3409 -1.1964,-24.9739 -3.3851,-34.9999 -7.6179,-58.3543 -10.9849,-125.7215 -20.7996,-177.1017 -0.7193,-3.5393 -1.3079,-8.1298 -1.3079,-10.2011 0,-3.6199 -0.2458,-3.7617 -6.3333,-3.6528 -6.1305,0.1096 -17.2979,-1.174 -21.9269,-2.5204 -1.9334,-0.5622 -2.1462,0.076 -1.4707,4.4093 0.4343,2.7867 1.3983,6.5667 2.1423,8.4 5.976,63.1021 8.3223,129.0279 12.2908,186 0.9964,4.4 2.2248,10.0915 2.7297,12.6476 0.5049,2.5563 1.8893,5.4161 3.0764,6.3554 9.8511,5.8414 22.8391,7.9807 30.1584,11.0425 3.7777,1.5848 4.6448,1.5167 4.8259,-0.3789 z m 49.8462,-47.9344 c 0.9463,-10.0975 -1.2822,-29.7945 -3.5278,-31.1824 -0.6294,-0.3889 -1.1443,-2.1596 -1.1443,-3.9347 -6.0442,-51.1249 -17.0324,-92.2972 -28.2656,-136.6979 -0.5088,-2.2 -3.2667,-8.9468 -4.1423,-11.02 -1.4677,-3.475 -2.0036,-3.7048 -6.8593,-2.9415 -2.8969,0.4554 -5.8969,1.3189 -6.6667,1.919 -0.7697,0.6 -3.1934,1.5213 -5.3861,2.0472 -2.1927,0.5259 -4.4124,1.6452 -4.9329,2.4873 8.5358,66.2808 11.5059,131.6824 21.7437,192.6002 l 1.4909,8.5609 6.237,-0.7596 c 16.6655,-2.855 30.1808,-7.6821 31.4534,-21.0785 z m -34.0054,-202.2532 c 1.4626,-0.799 2.0988,-3.9209 2.3676,-11.6191 l 1.0178,-11.1766 c -4.356,4.3198 -12.1307,4.0701 -17.2474,6.3446 -5.6812,2.5885 -24.9075,4.6934 -35.3362,3.8685 -5.5742,-0.4409 -13.9188,-2.0894 -18.5432,-3.6633 -4.6242,-1.5739 -8.6814,-2.588 -9.0158,-2.2536 -0.3346,0.3344 -0.751,2.9301 -0.9255,5.7681 0,0 0.5211,5.3882 6.8784,7.1182 6.2276,1.6946 9.4568,1.7153 24,0.1537 9.2424,-0.9924 18.9043,-1.9977 21.4709,-2.2339 8.2382,-1.2798 16.2636,-4.2391 21,-4.0052 2.9195,0.2287 3.6766,0.9596 3.7152,3.5867 0.027,1.8148 -0.5809,3.9501 -1.3502,4.7451 -1.5304,1.5815 -16.8876,5.5425 -25.365,6.5422 -6.0126,0.7091 -14.6733,1.9442 -18.6666,2.6622 -1.4667,0.2637 -7.3667,0.5253 -13.1111,0.5814 -10.976,0.1072 -12.8397,1.6549 -6.1169,5.08 18.2625,2.175 47.7926,-2.5531 65.228,-11.499 z m -42.9159,-29.2982 c -1.6427,-49.6865 -2.8994,-101.2905 -3.5421,-143.7049 -0.2403,-17.1023 0.4962,-16.2003 -14.1644,-17.3487 -10.0968,-0.791 -25.8746,-5.209 -28.0443,-7.8529 -0.7333,-0.8936 -2.9833,-2.6649 -5,-3.9362 -3.6221,-2.2835 -3.6667,-2.2729 -3.6667,0.8768 0,1.7535 0.5976,7.9725 1.328,13.82 0.7304,5.8474 1.6036,13.3317 1.9404,16.6317 7.8591,41.0361 10.2462,83.0032 18.723,119.2396 1.1978,5.0817 2.0124,11.5328 1.81,14.3358 -0.2472,3.4242 0.3829,5.8471 1.9208,7.3849 3.375,3.3751 15.4046,6.9656 22.2778,6.6493 l 6,-0.2762 z m 33.8363,-4.1808 c 0.5882,-2.5666 2.0968,-7.9666 3.3521,-12 1.2555,-4.0333 2.4159,-8.2333 2.5787,-9.3333 8.3493,-49.8696 15.7044,-107.3729 21.321,-156.635 0.8675,-2.2606 -0.939,-2.7317 -2.9114,-0.7593 -21.6547,8.357 -40.0534,6.5485 -61.5177,0.6893 l -12.2238,-5.495 -0.8845,6.4318 c -0.4866,3.5375 -1.4284,6.7678 -2.0931,7.1786 -2.8753,1.777 -0.6589,2.9733 7.1249,3.8455 21.369,2.3945 23.3075,3.099 20.9008,7.596 -0.884,1.6518 -1.0698,9.5919 -0.5196,22.1933 0.7218,52.0139 4.3187,98.9476 4.3328,138.795 l -0.6238,6.4931 c 7.8507,-0.6417 19.5758,-2.2915 21.1636,-9 z m -61.3628,-172.3966 c -0.7607,-0.9164 -1.1538,-6.0448 -0.891,-11.6218 0.2587,-5.49 0.5146,-12.5505 0.5686,-15.6902 0.4392,-10.74419 26.0971,-19.19689 37.2258,-18.40099 13.7371,1.2139 18.7595,2.7628 23.7386,7.3214 5.2585,4.8143 6.0902,7.41699 4.7497,14.86339 -1.7161,9.533 -1.1527,10.4096 5.8511,9.1012 3.305,-0.6175 8.8269,-2.527 12.271,-4.2434 6.0023,-2.9915 6.2975,-3.4081 7.1192,-10.0518 0.4716,-3.81209 1.6202,-7.84999 2.5522,-8.97309 2.5496,-3.072 -0.2851,-5.1678 -13.4116,-9.916 -20.5487,-7.433 -39.1882,-10.0747 -55.4835,-7.8634 -4.3079,0.5846 -12.0359,1.4169 -17.1735,1.8495 -24.0872,1.4042 -37.8511,13.842 -36.8949,34.80279 l 0.446,8.5033 10.0433,6.2597 c 12.475,7.7752 24.4674,10.2991 19.289,4.0594 z m 51.7757,-16.9417 c 0,-3.3605 -1.2003,-3.8206 -6.3333,-2.4279 -6.2443,1.6941 -5.6118,4.7674 1,4.8587 4.3553,0.06 5.3333,-0.3856 5.3333,-2.4308 z m -23.0931,-3.4739 c 2.0487,-5.3386 6.5272,-8.2586 14.1218,-9.2075 4.2009,-0.5249 7.638,-1.3971 7.638,-1.9384 0,-1.51379 -18.5858,-2.62659 -25.3334,-1.51669 -3.3,0.5427 -7.35,1.84089 -9,2.88479 -3.5712,2.2594 -3.9426,6.3812 -0.6666,7.3974 1.2833,0.3982 4.1333,1.5409 6.3333,2.5396 5.2707,2.3925 5.9336,2.3772 6.9069,-0.1592 z" fill="#00B894" transform="translate(-98.799921,85.54982) matrix(0.26458333,0,0,0.26458333,-483.49052,-340.5225)"/>
</svg>