<?xml version="1.0" ?><svg height="319.20355mm" viewBox="0 0 593.04614 319.20355" width="593.04614mm" xmlns="http://www.w3.org/2000/svg">
    <path d="m -3088.5198,-1287.4956 c 0,0 7.6427,-19.4024 11.4355,-23.8424 3.7928,-4.44 13.6598,-3.0798 13.6598,-3.0798 0,0 6.1027,-18.3245 12.1769,-20.1724 6.0742,-1.8478 12.9469,-2.8744 12.9469,-2.8744 0,0 10.9507,-17.9139 14.8861,-20.2237 3.9354,-2.3098 8.5552,-2.0018 8.5552,-2.0018 0,0 8.0704,-16.0148 12.7473,-18.2733 4.6768,-2.2584 10.6084,-4.0036 10.6084,-4.0036 0,0 10.9594,-19.1079 15.0659,-22.1363 4.1065,-3.0285 12.8898,-4.4143 12.8898,-4.4143 0,0 14.1446,-22.046 16.8823,-24.2018 2.7377,-2.1558 14.0306,-3.362 14.0306,-3.362 0,0 15.1664,-27.4824 17.8886,-29.2064 2.7223,-1.724 7.8643,-1.5789 7.8643,-1.5789 0,0 4.2951,-13.647 6.2511,-15.6795 1.956,-2.0325 6.6342,-3.5025 6.6342,-3.5025 0,0 3.9297,-9.0163 6.8939,-11.0488 2.9643,-2.0326 35.8128,-10.2716 35.8128,-10.2716 l 3.835,-49.0543 71.6722,-16.0511 58.1956,14.5181 5.1421,43.9354 c 0,0 28.9441,5.1408 31.626,5.2316 2.6819,0.091 7.5618,16.0606 7.5618,16.0606 0,0 5.8478,-0.5807 7.2997,4.174 1.4519,4.7546 13.4499,20.9242 13.4499,20.9242 0,0 6.0696,0.018 8.2878,4.065 2.2181,4.047 9.8001,18.674 9.8001,18.674 0,0 6.6477,0.2683 9.5313,3.6257 2.8835,3.3573 11.1309,21.4141 11.1309,21.4141 0,0 7.4207,-2.5043 10.4656,3.5933 3.0449,6.0976 11.0503,17.9661 11.0503,17.9661 0,0 5.1824,-1.107 9.2153,6.9869 4.033,8.0938 10.5399,20.1906 10.5399,20.1906 0,0 4.6984,0.3812 6.5536,3.0851 1.8551,2.704 15.3051,24.7353 15.3051,24.7353 0,0 7.5349,-1.9237 9.4304,3.4662 1.8955,5.3898 12.3812,23.6826 12.3812,23.6826 0,0 7.6021,0.4537 9.7194,4.1558 2.1173,3.7021 10.0824,22.2127 10.0824,22.2127 l -47.6494,4.1739 c 0,0 7.9852,10.0175 -0.6251,11.9956 -8.6104,1.9781 -66.1205,6.4424 -66.1205,6.4424 l -52.6754,-13.2158 -167.3292,18.348 -124.2267,-12.6271 c 0,0 -37.8695,6.8779 -43.9593,7.4949 -6.0898,0.6171 -52.8319,-4.6095 -52.8319,-4.6095 l 5.7873,-11.2152 z" fill="#FFFFFF" paint-order="markers stroke fill" transform="translate(92.650188,70.250057) translate(3003.3964,1504.6957)"/>
    <path d="m -2880.2557,-1259.033 c -17.0279,-1.3602 -43.8472,-4.2222 -59.5982,-6.3587 -29.8127,-4.0449 -37.3557,-4.0212 -57.7646,0.18 -5.8023,1.194 -14.8627,2.1711 -20.1332,2.1711 -10.2808,0 -49.0971,-4.1866 -50.3401,-5.4293 -0.4126,-0.4124 0.2105,-2.6679 1.3874,-5.0129 1.1751,-2.3449 2.391,-4.786 2.7022,-5.4245 0.3114,-0.6389 -4.6715,-1.161 -11.0724,-1.161 -6.4013,0 -16.5729,-0.7295 -18.6908,-1.5347 -3.8091,-1.448 -2.1189,-3.5891 -0.1783,-11.9373 2.5152,-10.8206 10.3806,-23.9862 15.305,-25.8586 2.1137,-0.8034 5.9796,-1.2895 8.5913,-1.0798 4.4768,0.3598 4.9084,-0.1053 7.5575,-8.1176 3.9116,-11.8346 9.8112,-16.2116 16.8045,-12.469 2.3445,1.2546 3.3117,0.259 6.3943,-6.5789 5.1585,-11.4438 10.2184,-16.5716 16.3516,-16.5716 4.3516,0 5.2429,-0.7108 6.797,-5.4192 2.6957,-8.168 9.9742,-14.7048 16.3727,-14.7048 3.3973,0 5.2986,-0.7442 5.2986,-2.0748 0,-3.8961 9.161,-20.3666 12.4618,-22.4053 1.8113,-1.1185 5.9539,-2.0708 9.2065,-2.1155 5.7584,-0.079 5.9961,-0.3114 9.1056,-8.8374 1.7557,-4.8156 5.5706,-11.3519 8.4772,-14.5255 4.4569,-4.8658 6.2806,-5.7698 11.6399,-5.7698 6.2932,0 6.3973,-0.092 10.7607,-9.6746 5.6032,-12.3032 11.831,-19.7376 16.5342,-19.7376 2.8281,0 4.3596,-1.6662 7.0959,-7.7203 1.9189,-4.2462 4.6624,-8.0929 6.0963,-8.548 1.4345,-0.4552 3.6733,-3.5399 4.9752,-6.855 2.9014,-7.3864 10.17,-11.1815 26.447,-14.4362 6.7796,-1.3557 12.0987,-2.8017 13.9206,-3.2135 3.0515,-0.6896 2.7844,-2.3832 3.902,-18.4355 0.6675,-9.5855 0.953,-18.9436 0.8461,-20.8133 -0.2736,-4.784 1.4449,-6.3552 3.1057,-8.0161 3.4419,-3.4421 29.2895,-8.1216 50.4034,-12.6733 7.8552,-1.6935 16.8998,-3.6625 20.099,-4.3756 4.6387,-1.0339 10.4392,-0.096 28.6382,4.6306 12.5516,3.2599 24.4424,5.9509 26.4231,5.9801 1.9811,0.031 7.122,2.0206 9.5267,4.4255 3.66,3.6602 4.0805,7.731 4.9107,16.7045 1.9361,20.9257 2.7509,25.6524 4.5043,26.126 0.9759,0.2637 9.9456,0.4849 16.6932,1.3583 13.5892,1.759 14.7988,3.8114 18.1545,14.6483 1.3936,4.5005 2.5959,5.805 5.3516,5.805 4.1472,0 13.3696,11.1371 16.1178,19.4652 1.115,3.3783 2.7434,5.3029 4.4864,5.3029 3.7666,0 7.0045,3.9502 11.7708,14.3609 2.7733,6.0578 4.9484,8.8591 6.8779,8.8591 3.6135,0 8.1669,8.926 11.9512,17.3643 2.1445,4.7821 3.851,6.565 6.2833,6.565 5.3095,0 8.3465,3.2133 12.3457,13.0632 2.9168,7.1836 4.8585,9.7217 8.8819,11.6103 3.7794,1.7736 6.5615,5.1336 10.4599,12.6319 3.7293,7.1735 6.5793,10.6941 9.5721,11.8236 3.2488,1.2265 5.664,4.5894 10.1691,14.1611 5.5672,11.8288 6.192,12.5533 10.8267,12.5578 6.0336,0 9.3326,3.8508 15.2521,17.7789 3.4064,8.0153 4.9805,10.0895 7.6558,10.0895 4.5983,0 9.0091,5.1126 14.5626,16.8796 3.5442,7.5092 5.8333,11.3449 4.6747,13.51 -2.148,4.3867 -2.8599,2.8951 -23.8666,4.976 l -21.6721,1.7517 2.3126,5.1598 c 1.6819,3.7527 -1.981,5.1473 -4.9428,6.2733 -5.7115,2.1711 -61.9116,10.5526 -68.4169,9.7088 -5.9682,-0.7741 -43.067,-10.5375 -49.8325,-13.1146 -2.0566,-0.7833 -6.9331,-0.9101 -10.8363,-0.2808 -3.9027,0.6283 -17.5452,2.2945 -30.3166,3.7017 -33.1099,3.6491 -70.0526,5.1411 -93.3659,8.6806 -11.0679,1.6806 -24.841,5.106 -28.5155,5.1253 -16.1724,3.0455 -31.8921,-0.8192 -47.4993,-2.1493 z m 37.6525,-23.5673 c 0.609,-3.2534 1.4897,-6.9104 1.9566,-8.1273 0.6933,-1.8061 -0.4653,-2.2206 -11.0295,-2.261 -7.1152,-0.043 -20.2513,-1.0496 -29.191,-2.2727 -8.9394,-1.2233 -17.1248,-2.2462 -18.1889,-2.2729 -1.0641,-0.044 -1.9353,-0.8425 -1.9353,-1.8127 0,-1.2914 6.5923,-1.4679 24.6377,-0.6595 13.5507,0.6072 27.8083,0.6282 31.6836,0.049 7.3807,-1.1071 6.654,-1.5179 8.4737,-11.7999 l 1.0019,-5.6616 -7.9882,-1.8701 c -4.9467,-1.1581 -13.1472,-1.6718 -16.9788,-2.7261 -6.4535,-1.7764 -4.7789,-2.9363 10.5894,-2.4053 l 15.5302,0.5731 3.3478,-11.2489 c 1.841,-6.1861 3.4318,-11.8582 3.5354,-12.6042 0.2149,-1.5409 -92.8381,-1.8399 -95.3195,-0.3072 -1.8922,1.1695 -7.2882,17.5216 -6.1556,18.6542 0.4256,0.4256 21.1042,2.3949 34.2514,3.2908 12.7341,0.8677 25.9427,3.5383 3.3234,2.977 -8.9794,-0.2229 -19.3548,0.6126 -27.8145,-0.5888 -21.5624,-3.0646 -21.7038,-3.0286 -24.789,6.3552 -1.4695,4.4701 -2.993,8.9982 -3.3857,10.0623 -0.5355,1.4497 2.5086,1.9351 12.1448,1.9351 18.0164,0 13.9587,3.1883 -4.7993,3.7715 -16.4995,0.5125 -16.5452,0.5493 -18.0094,14.5618 l -0.9703,9.2785 6.7866,0.8412 c 3.7325,0.462 12.7074,1.2563 19.9445,1.7648 7.237,0.5082 20.4726,1.9438 29.4123,3.1902 8.9394,1.2466 24.2646,2.8491 34.0562,3.5608 9.7909,0.7123 18.6778,1.3005 19.7158,1.513 3.7406,0.7659 5.2731,-10.0723 6.1637,-15.7603 z m -32.362,-42.3567 c 1.1176,-0.4471 2.4524,-0.3905 2.9672,0.1229 0.5142,0.5144 -0.3993,0.8803 -2.0322,0.8132 -1.803,-0.074 -2.1697,-0.441 -0.935,-0.9351 z m 65.8812,52.8928 c 14.5837,-1.2901 34.8745,-3.3612 45.0917,-4.6036 10.2168,-1.2418 33.2047,-3.0339 51.0839,-3.9825 17.8796,-0.9488 32.7432,-1.9567 33.0307,-2.2401 0.7954,-0.7856 -2.9931,-18.1885 -4.6391,-21.3075 -1.2505,-2.37 -2.8128,-2.6049 -11.437,-1.7214 -6.8164,0.6985 -9.9886,0.4861 -9.9886,-0.6684 0,-0.9302 2.6123,-2.1255 5.8054,-2.6561 9.5393,-1.5854 9.5818,-1.6253 8.5893,-7.9958 -1.5921,-10.2123 -3.1297,-12.8517 -7.4874,-12.8517 -2.9334,0 -3.9001,-0.7255 -3.6109,-2.7093 0.4081,-2.8 -1.3231,-16.1269 -2.7145,-20.898 -0.706,-2.42 -3.298,-2.7206 -24.2931,-2.8181 -14.5714,-0.066 -22.3264,-0.6143 -20.4066,-1.4388 1.7025,-0.7319 10.1947,-1.3795 18.8716,-1.4392 8.6765,-0.061 16.0516,-0.6315 16.389,-1.2699 0.7288,-1.3801 -2.5017,-24.6569 -3.5649,-25.6855 -1.4984,-1.4494 -11.9469,-1.6509 -24.7298,-0.477 -7.464,0.6853 -14.7964,0.5989 -16.9435,-0.1976 -3.0365,-1.129 -1.3511,-1.6183 8.5137,-2.4717 27.2687,-2.3585 27.0057,-2.2804 27.0057,-8.0552 0,-2.8281 -0.7462,-8.6219 -1.6582,-12.8749 -1.6436,-7.6633 -1.716,-7.7366 -8.127,-8.2029 -6.9512,-0.506 -8.8266,-3.2333 -2.8092,-4.0846 3.4643,-0.4901 3.6245,-1.0053 2.9995,-9.6427 -0.3641,-5.0182 -1.1312,-9.5958 -1.7073,-10.1718 -0.5761,-0.5763 -3.6105,-1.464 -6.7427,-1.9733 -5.7355,-0.9321 -9.2416,-4.7844 -4.3543,-4.7844 2.2551,0 2.4719,-1.0399 1.5319,-7.353 -1.3787,-9.2623 -2.7877,-10.9354 -9.7038,-11.524 -6.2682,-0.5327 -8.4074,-3.5044 -3.4554,-4.7995 2.8496,-0.7451 3.1181,-1.5842 2.1686,-6.7761 -1.9279,-10.5436 -3.3425,-12.8917 -7.7673,-12.8917 -3.4004,0 -3.7817,-0.3814 -2.2388,-2.2401 1.2663,-1.5257 1.5169,-4.9817 0.7853,-10.8362 -0.4442,-8.9101 -0.9298,-8.5958 -9.3057,-8.5958 -9.0152,0 -7.8405,-0.1296 -9.7267,11.997 l -1.0227,6.5791 4.1086,0.1546 c 2.8414,0.1069 6.9085,0.6855 9.0373,1.3348 4.9523,1.5109 1.9147,2.8863 -7.7122,3.4921 l -5.8792,0.4366 -1.797,8.1271 -1.7967,8.127 5.3543,0.1094 c 12.0724,0.2467 13.5249,2.4466 2.5516,3.9405 l -8.9942,1.3687 -1.7956,7.7397 c -2.9102,12.5441 -3.8237,13.1585 2.0507,13.1585 2.861,0 11.3659,-0.2515 15.5288,0.3488 7.0486,1.0163 4.492,1.9058 0.1672,2.8812 -2.5543,0.5761 -8.5918,1.13 -13.4169,1.2304 l -7.7143,0.1843 -1.6763,7.816 c -2.2585,10.5309 -3.1896,12.3708 -0.025,14.9435 1.4898,1.2115 2.0124,2.5188 1.1606,2.9049 -4.5859,2.0795 -4.7225,4.3068 -7.5071,15.9659 -1.6744,7.0103 -3.0444,13.0501 -3.0444,13.4217 0,0.373 3.4284,0.6763 8.9122,0.6763 5.4842,0 10.3443,0.6042 10.8007,1.3422 0.8324,1.3472 -9.6971,3.3015 -17.7869,3.3015 -2.7764,0 -3.5562,0.9695 -4.0775,2.7093 -4.4166,14.7298 -6.6389,24.9941 -5.4898,25.3484 2.8674,0.884 5.8739,0.013 8.1742,0.2028 3.0475,0.2519 1.5336,3.7049 -4.8761,3.8766 -8.8532,0.2373 -7.2429,4.8809 -9.3686,12.6374 -1.8239,6.6554 -3.3164,12.5283 -3.3164,13.0513 0,0.5232 3.2955,0.5565 8.6168,0.074 11.5181,-1.0439 9.6937,1.416 -3.0217,4.0742 -8.6422,1.8062 -7.731,1.998 -10.0579,14.4832 l -1.4107,7.5707 14.6496,-0.9815 c 17.4918,-1.1719 26.2352,1.1439 10.9248,2.7974 -28.5379,3.0821 -26.3449,2.774 -27.7053,7.8107 -2.0751,7.6844 -4.0081,19.3504 -3.2063,19.3504 0.4125,0 11.6241,-1.0553 26.2072,-2.3454 z m 30.3857,-30.0774 c 0,-2.317 6.7526,-3.1397 25.5419,-3.1133 10.8143,0 17.6057,0.5673 16.2541,1.3225 -3.1256,1.7451 -41.796,3.402 -41.796,1.7908 z m -8.9561,-26.2862 c 2.3107,-0.7517 11.0183,-1.8092 19.35,-2.3508 8.3316,-0.541 18.4569,-1.3699 22.501,-1.8416 8.7875,-1.025 10.2162,1.8389 1.5481,3.1032 -10.8937,1.5889 -47.7828,2.5144 -43.3991,1.0892 z m 69.3281,-4.7598 c 3.0566,-1.9751 10.8362,-1.9751 10.8362,0 0,0.8512 -2.9605,1.5376 -6.579,1.5245 -4.8185,0 -5.9576,-0.4257 -4.2572,-1.5245 z m -66.5641,-23.2203 c 5.7071,-1.8276 14.2875,-1.8276 13.1581,0 -0.5263,0.8517 -6.595,2.1564 -11.0146,2.0718 -6.3469,-0.1229 -5.2002,-1.0945 -2.1435,-2.0718 z m -6.1919,-63.2874 c 0,-1.9299 5.7211,-3.2311 14.319,-3.2556 8.7634,-0.043 9.7446,2.2748 1.5477,3.6294 -8.3799,1.3854 -15.8667,1.2084 -15.8667,-0.373 z m 36.3777,-1.7285 c -2.4721,-1.0623 -1.908,-1.3524 2.8005,-1.4394 3.5604,-0.066 5.5175,0.5047 4.9396,1.4394 -1.13,1.828 -3.4854,1.828 -7.7401,0 z m -4.3437,-25.7583 c -1.4445,-1.4446 0.3027,-3.654 2.8873,-3.654 1.2269,0 2.2304,1.0449 2.2304,2.3222 0,2.3314 -3.2677,3.1823 -5.1177,1.3318 z m -235.2052,161.5592 c 10.4106,-15.3603 17.3837,-24.1154 59.2062,-74.341 51.1519,-61.4288 54.7791,-65.9577 89.8945,-112.2346 13.7609,-18.1346 24.5783,-33.4135 24.0391,-33.9528 -1.2898,-1.2897 -0.3292,-2.4621 -25.7193,31.3211 -12.1589,16.1769 -26.7632,34.6364 -32.4545,41.0221 -13.6972,15.3694 -39.24,45.8401 -56.6423,67.5701 -7.722,9.6428 -22.7928,27.119 -33.4908,38.8364 -10.6981,11.7175 -25.5824,28.6185 -33.0768,37.5583 l -13.6257,16.2538 c -1.7911,3.179 9.3982,3.8777 11.4155,2.0816 0.4256,0.092 5.1302,-6.2599 10.4541,-14.115 z m 384.2879,12.1251 c 0,-1.2269 -0.5708,-2.5837 -1.2681,-3.0145 -2.7343,-1.6895 -41.2421,-60.514 -57.0763,-87.1881 -9.2035,-15.505 -21.9586,-36.9943 -28.3442,-47.7538 -6.3854,-10.7594 -14.9943,-25.2409 -19.131,-32.1815 -4.1366,-6.9401 -13.7666,-25.3315 -21.3996,-40.8695 -8.1122,-16.5121 -14.7768,-28.2512 -16.0397,-28.2512 -2.3437,0 16.7022,39.7029 26.1238,54.4572 2.8927,4.5305 7.4478,12.5791 10.1224,17.8865 2.6745,5.3069 10.6612,19.239 17.7479,30.9599 7.0867,11.721 18.7958,31.0731 26.0198,43.0047 7.2245,11.9311 22.0342,38.2278 32.9108,58.4369 l 19.7757,36.7438 h 5.2793 c 3.5643,0 5.2792,-0.7245 5.2792,-2.2304 z m -409.1198,-1.8219 c 0.6283,-1.9159 -26.1796,-4.6359 -28.9305,-2.9356 -3.7232,2.301 -0.954,3.7824 8.0912,4.3283 14.6568,0.8851 20.2139,0.5139 20.8393,-1.3927 z m 438.5316,-0.2984 c 5.5342,-0.5872 9.8881,-1.5902 9.6753,-2.2287 -0.5977,-1.7934 -1.0103,-1.7843 -17.389,0.3817 -8.4641,1.1204 -15.0252,2.6259 -14.5802,3.3455 0.445,0.7196 3.3791,0.9172 6.5207,0.4388 3.1409,-0.4787 10.2394,-1.351 15.7732,-1.9381 z m -69.3145,-31.637 c -8.4642,-16.3916 -21.2786,-39.5551 -28.4763,-51.4749 -7.1976,-11.9197 -21.1148,-34.9078 -30.9269,-51.0844 -9.8122,-16.1765 -20.0942,-33.4175 -22.8492,-38.3129 -2.7547,-4.8958 -5.3059,-8.9011 -5.6692,-8.9011 -2.3029,0 0.052,6.4807 3.7728,10.3721 2.7101,2.8355 5.2122,7.8896 6.4364,13.0003 1.1013,4.5988 3.2616,10.1031 4.8,12.2317 3.113,4.3064 5.9068,15.0676 5.9647,22.9758 0,2.8457 1.3932,6.8971 3.0503,9.0034 1.6963,2.1567 3.8495,8.8135 4.9294,15.2412 1.603,9.5404 2.4618,11.5478 5.2362,12.2446 4.2929,1.0774 6.7942,6.7406 7.9777,18.0614 0.7459,7.1393 1.7081,9.5869 4.4845,11.4059 2.4879,1.6302 4.0839,4.9606 5.3885,11.2443 1.0316,4.9704 3.036,9.7569 4.521,10.7968 2.7359,1.9163 6.3522,10.3335 9.2337,21.4922 l 1.6276,6.3036 17.4293,3.7987 c 9.5867,2.0895 17.6615,3.2603 17.9446,2.6015 0.2852,-0.6585 -6.4106,-14.6086 -14.8751,-31.0002 z m -392.5814,15.7689 c 34.857,-37.5245 45.8745,-49.8395 58.7468,-65.6645 7.604,-9.348 20.0951,-23.6433 27.7574,-31.7669 7.663,-8.1241 24.3174,-26.5982 37.0107,-41.0537 12.693,-14.456 28.8909,-32.6036 35.9955,-40.3287 12.345,-13.4233 25.3402,-29.6419 25.2498,-31.5133 -0.044,-0.4847 -4.0287,3.6298 -8.9011,9.1437 -4.8721,5.5136 -19.6559,21.8224 -32.8525,36.2414 -13.1966,14.4191 -26.3896,29.0646 -29.3174,32.5452 -2.9278,3.4808 -9.8937,11.2401 -15.4802,17.2429 -5.586,6.003 -14.7688,16.4516 -20.4063,23.2199 -5.6372,6.7685 -17.0673,19.6202 -25.4001,28.56 -32.9711,35.373 -53.586,58.7972 -67.3171,76.4913 -5.9493,7.6662 2.5612,0.1798 14.9145,-13.1173 z m 56.4198,13.972 c 1.6469,-0.8815 2.9944,-2.5902 2.9944,-3.7974 0,-4.0506 3.539,-10.0123 6.5014,-10.9526 4.5056,-1.4296 7.4176,2.1128 7.5532,9.189 0.136,7.052 0.074,7.1732 5.1581,-10.2101 1.4252,-4.8729 3.9132,-9.7853 5.5285,-10.9167 1.6156,-1.1315 4.4521,-6.1063 6.3038,-11.0551 4.1572,-11.111 7.9376,-15.2116 12.8808,-13.9707 3.2826,0.8236 3.732,0.2765 4.6903,-5.716 1.7543,-10.9709 6.4022,-19.8817 10.5081,-20.1454 1.9637,-0.127 4.8896,-0.2985 6.5027,-0.3863 1.9684,-0.1053 3.6394,-2.1935 5.0822,-6.3497 3.9062,-11.2514 8.2531,-18.8832 11.609,-20.3804 1.9957,-0.8909 4.0695,-4.0511 5.2244,-7.9635 1.0536,-3.5674 1.7311,-6.4863 1.5064,-6.4863 -0.3949,0 -38.0996,45.1706 -51.0422,61.1461 -3.4485,4.2573 -13.6179,16.4477 -22.5976,27.09 -24.029,28.4777 -26.9987,32.5086 -23.9512,32.5086 1.4045,0 3.901,-0.7214 5.5477,-1.6027 z m 424.7611,-3.2467 c -2.1752,-6.8529 -90.4608,-139.289 -105.7012,-158.56 -5.6052,-7.0881 -2.1715,-1.1062 6.8156,11.8731 4.486,6.4782 12.6706,19.3654 18.188,28.6382 9.1465,15.3709 25.8145,40.0326 57.0359,84.3883 6.3666,9.0447 13.9611,21.0584 16.8773,26.6974 5.0977,9.8586 8.9622,13.8246 6.7844,6.963 z m -28.5728,-0.5687 c 8.0882,-1.2466 15.2696,-2.2792 15.9585,-2.2944 0.6885,0 0.8839,-0.6237 0.4344,-1.3521 -0.4502,-0.7283 -5.8896,-0.4168 -12.0882,0.6925 -6.1985,1.1092 -13.5341,2.0535 -16.3011,2.0983 -2.7666,0.044 -5.031,0.778 -5.031,1.6292 0,1.922 -0.6586,1.9523 17.0283,-0.7735 z m -421.8321,-2.3222 c 0.5262,-0.8513 0.395,-1.5533 -0.294,-1.5599 -0.6884,0 -7.1218,-0.6862 -14.2958,-1.5112 -12.7144,-1.4618 -17.1423,-0.6193 -17.1423,3.2607 0,1.8992 30.5557,1.7166 31.7339,-0.1887 z m 417.6652,-3.1528 c 16.8036,-2.4217 18.7761,-2.9812 16.9515,-4.8058 -1.0947,-1.0948 -5.4135,-1.0474 -13.7687,0.1492 -17.6221,2.5263 -20.688,3.2428 -20.688,4.8352 0,1.836 3.7922,1.7968 17.5052,-0.18 z m -455.9381,-10.7499 c 4.4477,-5.9434 8.0871,-11.1258 8.0871,-11.5163 0,-0.3906 -2.6126,-0.9593 -5.8054,-1.2634 -5.6478,-0.538 -3.4472,-4.4971 3.5398,-3.5612 3.2052,0.4293 4.8064,1.0028 6.1084,-0.2202 2.2421,-2.106 3.7354,-2.7975 7.3849,-7.1562 4.1013,-4.8983 5.8139,-8.0221 4.618,-8.44 -5.6966,-1.9906 -5.4465,-6.0857 3.2489,-5.6483 3.8467,0.1935 7.4891,-3.6016 13.8838,-10.8402 8.1877,-9.2685 8.5111,-9.9298 5.2863,-10.814 -2.8706,-0.7872 -3.0532,-1.1923 -1.1128,-2.4661 1.2774,-0.8385 3.7417,-1.5349 5.4762,-1.548 1.7352,0 6.6102,-3.5325 10.8346,-7.8214 5.8941,-5.9838 7.1846,-8.1038 5.5482,-9.1148 -2.9861,-1.8455 -0.7323,-4.7596 3.6813,-4.7596 2.681,0 5.9242,-2.7887 11.9056,-10.2375 4.5209,-5.6307 11.8156,-14.1641 16.2095,-18.9633 4.3941,-4.7988 9.4948,-10.641 11.3356,-12.9825 l 3.3464,-4.2568 h -4.6391 c -4.9402,0 -6.4566,1.5029 -16.9717,16.8269 -4.729,6.8913 -7.0208,8.744 -13.402,10.8358 -7.0217,2.3015 -8.2517,3.4674 -13.9973,13.2654 -4.683,7.9854 -7.4177,11.0413 -10.6574,11.9075 -5.6588,1.5134 -9.279,4.8887 -14.1392,13.1821 -2.9619,5.0537 -4.9005,6.7384 -7.7541,6.7384 -4.2647,0 -6.3867,1.9794 -13.71,13.1579 -3.3698,5.1438 -8.1343,10.0223 -14.2344,10.0623 -3.2532,0.021 -8.1955,4.5998 -9.9162,9.53 -0.2487,0.7125 -1.8342,4.1439 -4.076,7.5311 -3.3371,5.0428 -4.9712,6.1592 -9.0178,6.1592 -5.6725,0 -9.6854,3.6986 -14.5657,13.4248 -5.3256,8.3165 -0.8742,6.6833 7.178,7.4461 5.7307,0.5427 11.4642,1.2128 12.7415,1.4883 1.2769,0.2764 3.0365,0.5823 3.9097,0.681 0.8737,0.1013 5.2276,-4.6833 9.6753,-10.627 z m 45.2241,5.407 c 2.4621,-2.9672 1.1992,-3.3696 -14.098,-4.4947 -10.3356,-0.7604 -12.1237,-0.4989 -14.4911,2.1169 -2.6388,2.9158 -2.4572,2.9966 7.9205,3.5297 5.8418,0.2984 12.452,0.682 14.6891,0.8487 2.2369,0.1667 4.9277,-0.7338 5.9795,-2.0006 z m 475.0152,-0.25 c 15.9342,-1.1287 16.0376,-1.2472 10.9035,-12.1694 -2.5722,-7.4973 -4.124,-6.949 -11.5187,-6.949 -8.6496,0 -11.4562,-1.7775 -8.4754,-5.3693 1.3681,-1.6484 0.7648,-4.5529 -2.6395,-12.7029 -4.3293,-10.3659 -4.5144,-10.5581 -9.7673,-10.1584 -6.7875,0.5165 -10.5213,-1.6243 -8.0424,-4.6108 1.3567,-1.6354 0.5946,-4.2183 -3.3473,-11.3409 -4.8035,-8.6801 -5.5346,-9.3031 -12.4006,-10.5696 -4.9277,-0.9092 -7.0495,-1.9886 -6.5365,-3.3261 0.9785,-2.549 -5.4459,-18.3983 -9.0898,-22.4247 -1.538,-1.6991 -4.3797,-3.0896 -6.3153,-3.0896 -2.8501,0 -4.1283,-1.6293 -6.7261,-8.5722 -2.0641,-6.0594 -2.1518,-11.4972 -8.4986,-11.552 -6.9757,0 -10.1728,-1.3356 -9.2088,-3.8473 1.7846,-4.6509 -8.7595,-23.0865 -12.7829,-22.3501 -4.7926,0.8771 -8.5786,-0.3116 -7.7633,-2.4354 0.4892,-1.2739 -0.5932,-6.1902 -2.4051,-10.9245 -2.7329,-7.142 -4.0502,-8.7589 -7.7366,-9.4961 -5.392,-1.0787 -9.178,-5.6512 -13.6876,-16.531 -2.9251,-7.057 -3.9102,-8.125 -6.9591,-7.5422 -4.0777,0.7794 -6.0691,-2.0271 -7.7334,-10.8982 -0.5976,-3.1867 -1.6245,-6.1259 -2.281,-6.5317 -1.7473,-1.0799 -22.2201,-3.8427 -22.9639,-3.0989 -0.3467,0.3478 1.4406,3.2766 3.9743,6.5088 2.5335,3.2319 5.4283,7.4437 6.4329,9.3594 1.1413,2.1758 3.2586,3.483 5.6421,3.483 3.8563,0 5.1055,2.1159 2.2805,3.862 -0.861,0.5321 1.2607,4.6516 4.8298,9.3794 4.5786,6.0641 7.3996,8.4305 10.0491,8.4305 2.0265,0 3.6842,0.6968 3.6842,1.548 0,0.8513 -1.0448,1.5481 -2.3221,1.5481 -3.2857,0 -3.058,0.6342 3.9277,10.921 5.612,8.2635 6.7972,9.2032 11.6104,9.2032 5.7803,0 7.3298,2.8705 2.2642,4.1952 -1.7029,0.4455 -3.0962,1.1262 -3.0962,1.5131 0,0.3862 3.0879,5.0301 6.8619,10.3189 6.7213,9.4189 6.9916,9.6042 13.1582,9.0162 7.4294,-0.7088 8.6132,2.1316 1.6416,3.9383 l -4.6545,1.2063 6.7888,10.1196 c 6.7388,10.0452 6.8366,10.1158 13.1686,9.5117 3.9926,-0.3818 6.3798,0.044 6.3798,1.1021 0,0.9408 -1.2191,1.7215 -2.7093,1.7347 -6.7356,0.057 -6.6553,2.3581 0.4344,12.4493 6.4027,9.1131 7.5704,10.0395 13.5416,10.7467 3.5942,0.4257 6.5346,1.395 6.5346,2.1532 0,1.1665 -1.15,2.0383 -6.7655,5.1289 -0.3159,0.1755 2.6096,4.7768 6.5005,10.2295 l 7.074,9.9134 7.6177,-0.7319 c 9.2982,-0.8934 12.4103,2.0653 3.8057,3.6183 -3.2164,0.5805 -6.3284,1.3274 -6.9151,1.6596 -0.5871,0.3334 2.1992,5.7979 6.192,12.1466 7.2157,11.4734 7.2994,11.5426 14.0276,11.5765 5.8393,0.044 6.5041,0.3554 4.8413,2.3564 -1.0595,1.277 -2.8863,2.3217 -4.0592,2.3217 -3.1849,0 -2.6658,2.831 2.1242,10.2843 5.497,8.5534 17.9237,6.6723 31.1099,5.7383 z m -62.0694,-3.8199 c 9.3497,-1.6276 13.3129,-4.4757 6.192,-4.4499 -5.3258,0 -31.1104,3.1046 -31.812,3.8062 -0.3423,0.3422 -0.1094,1.4441 0.5138,2.4528 1.1712,1.8945 5.7075,1.5675 25.1062,-1.8091 z m -406.0469,-5.8773 c 0.9048,-1.4639 -19.7152,-3.969 -24.7061,-3.0015 -1.5507,0.3028 -3.1093,1.417 -3.4634,2.4814 -0.4841,1.4525 2.8377,1.9348 13.3252,1.9348 7.6834,0 14.3632,-0.6367 14.8443,-1.4147 z m 394.6034,-2.4126 c 8.3925,-1.1996 15.495,-2.4169 15.7829,-2.7048 0.2895,-0.2896 0.044,-1.3112 -0.5586,-2.2739 -0.7982,-1.2918 -5.5114,-1.1729 -17.9976,0.4538 -9.3035,1.2119 -17.2078,2.4959 -17.5649,2.8531 -1.094,1.0935 1.2777,3.9545 3.2347,3.9023 1.0142,-0.044 8.7109,-1.0308 17.1035,-2.2305 z m -388.0192,-6.3636 c 0.3379,-1.0237 -4.0076,-2.2546 -11.1548,-3.1606 -10.3216,-1.3085 -11.9921,-1.1663 -14.1366,1.2031 -2.2757,2.5148 -1.8992,2.7268 5.8568,3.2963 12.6727,0.9308 18.8299,0.5069 19.4346,-1.3388 z m 383.5954,-1.4401 c 7.663,-1.259 14.5939,-2.2919 15.4031,-2.2949 0.8087,0 0.71,-0.7661 -0.2195,-1.6956 -2.0544,-2.0545 -36.5287,2.8105 -35.196,4.9668 1.1326,1.8324 3.6697,1.7088 20.0121,-0.9763 z m -2.8661,-7.7111 c 12.5555,-2.1804 14.3805,-3.0449 11.8244,-5.6014 -1.197,-1.1966 -6.5535,-1.1326 -18.8598,0.2282 -9.4537,1.044 -17.1885,2.2019 -17.1885,2.5735 0,0.3731 0.7451,2.0673 1.6556,3.7686 1.3192,2.4648 2.6049,2.8851 6.3237,2.0685 2.567,-0.5639 9.8771,-1.9299 16.2446,-3.0357 z m -373.3274,0.8114 c 1.8872,-3.0532 -21.6489,-5.6997 -25.1393,-2.8263 -2.0961,1.7257 -1.4796,2.1373 4.3987,2.9355 11.272,1.5309 19.7545,1.4862 20.7406,-0.1094 z m 5.4459,-7.5672 c 0,-1.4244 -20.1319,-4.6014 -23.0324,-3.6347 -0.9544,0.316 -1.7354,1.1808 -1.7354,1.9167 0,1.1843 2.9281,1.5789 20.511,2.7614 2.3415,0.158 4.2568,-0.3115 4.2568,-1.0434 z m 361.847,-3.511 c 15.9691,-2.3594 17.1449,-5.252 1.5476,-3.8079 -23.1202,2.1409 -25.7459,2.6798 -24.8196,5.0941 0.6121,1.5955 2.3016,2.0225 5.686,1.4358 2.6482,-0.4591 10.5616,-1.6837 17.586,-2.722 z m -352.6741,-5.0823 c 1.5213,-1.8328 -0.057,-2.358 -9.8386,-3.2747 -6.4073,-0.6002 -12.7103,-0.6846 -14.0061,-0.1887 -4.6295,1.7763 -2.2341,3.9374 4.997,4.5075 15.1348,1.1935 17.0792,1.0855 18.8477,-1.0453 z m 349.0443,-2.964 c 9.3755,-1.3937 11.7283,-2.2156 10.0618,-3.5139 -1.5336,-1.1954 -6.97,-1.2704 -18.4294,-0.2546 -8.9397,0.7926 -16.4977,1.6829 -16.7961,1.9795 -0.2984,0.2983 -0.084,1.2817 0.4783,2.1897 1.2765,2.0646 8.9345,1.9407 24.6854,-0.3993 z m -341.5435,-5.3987 c 0.4432,-1.3309 -3.3411,-1.8381 -13.7065,-1.8381 -7.8756,0 -13.9628,0.3555 -13.527,0.792 0.8557,0.8558 22.7788,3.6052 25.1694,3.1568 0.7982,-0.1492 1.7271,-1.0996 2.0641,-2.1107 z m 334.4317,-1.976 c 20.6481,-2.6353 16.0191,-5.1589 -5.2919,-2.8854 -9.2741,0.9894 -17.1059,2.0281 -17.4039,2.308 -1.6051,1.5083 2.13,3.944 4.9677,3.2398 1.8229,-0.4525 9.8007,-1.6504 17.7281,-2.6624 z m -328.628,-4.7951 c 1.2571,-1.2572 -25.1049,-3.2792 -27.0532,-2.0751 -4.1024,2.5353 -0.5394,3.4709 12.2781,3.2239 7.6415,-0.1492 14.2901,-0.6644 14.7751,-1.1488 z m 324.9869,-2.9954 c 6.4207,-0.9547 11.6736,-2.2628 11.6736,-2.9065 0,-3.6364 -4.6492,-4.1463 -19.2403,-2.1084 -16.4241,2.2931 -17.2271,2.5545 -15.6535,5.1002 1.3098,2.1194 8.5782,2.0926 23.2202,-0.084 z m -201.3286,-2.6732 8.079,-1.0087 2.8056,-10.0618 c 4.011,-14.3849 5.2735,-13.9321 -5.224,-13.9321 -9.1307,0 -13.2695,-1.8658 -8.3378,-3.7587 1.4148,-0.5429 6.6014,-1.4082 11.5257,-1.923 l 7.8952,-0.9355 2.3975,-10.5423 c 1.3185,-5.7978 2.3976,-11.5984 2.3976,-12.8894 0,-2.0549 -3.1423,-2.2322 -32.6107,-1.4196 -18.518,0.5104 -34.5076,1.5889 -35.5318,2.3959 -1.6679,1.3143 -4.3598,9.716 -7.4949,21.7196 -1.4853,5.6869 -1.2921,4.3205 14.9173,4.2568 21.4475,0 18.4157,2.7636 -4.9028,4.4688 -9.7266,0.7117 -18.5022,0.9881 -19.5013,0.6143 -2.399,-0.8969 -4.8248,3.8742 -8.25,16.2262 l -2.8107,10.1355 32.7547,-1.169 c 18.0152,-0.6428 36.8662,-1.6226 41.8914,-2.177 z m -119.8192,-1.6354 c -1.2774,-0.7187 -7.3649,-1.649 -13.5285,-2.0672 -8.3258,-0.5646 -11.6568,-0.2149 -12.9603,1.3542 -1.4631,1.7627 0.7835,2.1063 13.5282,2.0667 9.1341,-0.044 14.3485,-0.5725 12.9606,-1.3537 z m 312.3309,-4.8899 c 12.2014,-1.7281 16.0497,-3.2801 12.9219,-5.2131 -2.5236,-1.56 -32.6795,2.6522 -32.6795,4.5645 0,2.6889 1.8166,3.9593 4.5319,3.1686 1.3388,-0.3905 8.1903,-1.5241 15.2257,-2.52 z m -304.5909,-1.4494 c 0,-0.8513 -2.6125,-1.5539 -5.8054,-1.5613 -3.1927,0 -9.4619,-0.4529 -13.932,-0.9895 -5.4521,-0.6551 -8.1267,-0.4169 -8.1267,0.7195 0,1.0239 4.446,1.9075 11.223,2.23 6.1727,0.2942 12.4419,0.6728 13.932,0.8418 1.4897,0.171 2.7091,-0.3906 2.7091,-1.2405 z m 307.0982,-6.999 c 6.2692,-0.8232 7.1937,-1.3331 5.418,-2.9887 -1.6711,-1.5578 -5.1999,-1.6723 -16.073,-0.5199 -7.6625,0.8117 -14.5332,2.054 -15.2679,2.7609 -3.0286,2.9136 0.811,4.1204 9.4054,2.9549 4.9274,-0.6682 12.3599,-1.6613 16.5175,-2.2072 z m -301.6167,0.7043 c 1.5373,-2.4872 0.8382,-2.7123 -12.067,-3.8817 -9.157,-0.8298 -12.5451,-0.5819 -14.5416,1.0645 -2.6878,2.2155 -2.9329,2.1695 22.1966,4.1945 1.8653,0.1493 3.8508,-0.4693 4.412,-1.3773 z m 5.3544,-7.4492 c 0,-2.083 -23.4659,-5.2055 -25.3045,-3.3665 -2.1415,2.1409 0.9544,3.0081 12.9205,3.6175 5.5342,0.2809 10.5845,0.6468 11.223,0.8109 0.6384,0.1625 1.161,-0.3158 1.161,-1.0619 z m 286.7684,-1.1123 c 5.7469,-0.5784 10.4488,-1.6516 10.4488,-2.3854 0,-1.4801 -27.7865,-1.861 -31.5097,-0.4345 -1.338,0.5135 -1.9615,1.9173 -1.4473,3.2578 0.6718,1.7499 2.3371,2.1313 6.4816,1.4831 3.0677,-0.4801 10.2795,-1.3454 16.0266,-1.9232 z m -282.9758,-5.1117 c -2.2594,-2.1383 -23.9166,-3.8971 -23.9166,-1.9421 0,1.4406 3.6017,1.968 20.8207,3.0479 2.7523,0.1711 3.9823,-0.2677 3.0959,-1.1058 z m 288.5749,-4.0783 c 0.4256,-0.4256 0,-1.5379 -0.9255,-2.4722 -1.161,-1.1611 -6.6386,-1.3449 -17.3116,-0.581 -14.8387,1.062 -17.1236,1.7855 -14.4521,4.5768 1.1997,1.2536 31.3153,-0.1491 32.6892,-1.5236 z m -281.8827,-1.5894 c -1.5885,-1.5884 -21.9381,-3.8741 -24.3571,-2.7358 -1.5126,0.7117 0.4427,1.4849 5.3582,2.119 10.555,1.3612 20.0513,1.6696 18.9989,0.6168 z m 267.5982,-5.3243 c 6.4198,0 8.2983,-0.5366 8.2983,-2.3705 0,-3.7315 -3.6689,-4.2664 -17.8905,-2.6091 -14.1167,1.6456 -15.5741,2.18 -13.7947,5.059 0.7534,1.219 3.4714,1.5129 8.1113,0.8772 3.8377,-0.5262 10.7121,-0.9566 15.2756,-0.9566 z m -262.6028,-1.3481 c 0,-1.7381 -21.0808,-3.8444 -23.5012,-2.3484 -3.0127,1.8617 3.1761,3.4679 13.826,3.5876 5.3214,0.061 9.6752,-0.4975 9.6752,-1.2392 z m 6.7458,-7.1504 c 0.9767,-2.5453 -1.0862,-3.2084 -13.8874,-4.4625 -7.3596,-0.7206 -11.4347,0.6722 -11.4347,3.9084 0,0.6406 4.3537,1.412 9.6751,1.7144 5.3214,0.3028 10.8196,0.6837 12.2185,0.8478 1.399,0.1623 2.9418,-0.7394 3.4285,-2.0081 z m 257.8602,-3.3045 c 0.3686,-0.3467 -0.044,-1.3454 -0.9132,-2.2168 -1.4409,-1.4407 -29.5649,0.824 -31.3255,2.5226 -0.3334,0.3204 0.1713,1.5245 1.1231,2.6715 1.4497,1.7468 4.0602,1.7257 16.0875,-0.1311 7.8962,-1.2179 14.6592,-2.4994 15.0281,-2.8473 z m -252.222,-5.0638 c -3.5456,-1.9742 -21.4089,-3.3877 -22.4063,-1.7737 -0.9009,1.4573 5.4416,2.4761 17.7623,2.8531 4.453,0.1361 6.1285,-0.2544 4.644,-1.0794 z m 239.5541,-1.2396 c 4.4698,-0.4969 8.1267,-1.5833 8.1267,-2.4148 0,-0.9334 -3.9975,-1.1282 -10.4487,-0.5095 -17.4957,1.6784 -22.1339,2.6289 -21.0878,4.3223 0.6025,0.9745 3.7601,1.1878 8.1336,0.5489 3.9318,-0.5744 10.8061,-1.4507 15.2762,-1.9469 z m -204.5318,-8.9934 c 0.1054,-3.826 0.044,-6.9563 -0.18,-6.9563 -0.5862,0 -8.525,12.222 -8.525,13.1246 0,0.4441 1.9158,0.8031 4.2573,0.7977 3.9821,0 4.2691,-0.4581 4.449,-6.966 z m 50.8865,3.4214 11.3204,-1.8636 1.7999,-10.0623 c 0.9899,-5.5341 1.6622,-10.2044 1.4946,-10.3786 -0.1668,-0.1755 -3.7483,0.3027 -9.2502,1.0598 -5.5017,0.7568 -16.8443,1.3585 -25.2058,1.337 -17.8322,-0.049 -19.9415,1.1343 -23.5129,13.1607 -1.2685,4.2721 -2.3069,8.4438 -2.3069,9.2706 0,1.7723 27.0608,0.2764 45.6609,-2.5236 z m -83.5868,0.4718 c -7.2174,-1.9514 -19.3503,-2.8698 -19.3503,-1.4648 0,1.3251 7.3285,2.3954 17.8023,2.5995 5.8795,0.1148 5.9577,0.057 1.548,-1.1347 z m 226.0088,-0.7996 c 13.689,-1.4967 15.2668,-2.0909 12.9544,-4.8774 -1.552,-1.8705 -4.4245,-2.1159 -15.1742,-1.2966 -7.293,0.5559 -14.5303,1.3674 -16.0823,1.8036 -2.7071,0.7604 -2.71,0.9166 -0.066,3.8364 1.6746,1.85 3.995,2.7504 5.9183,2.2963 1.7398,-0.4126 7.3433,-1.2036 12.4515,-1.7623 z m -217.4951,-4.632 c 1.6878,-2.0334 0.2678,-2.3221 -11.4203,-2.3221 -14.9456,0 -18.2889,2.6315 -4.4463,3.5003 4.8953,0.3072 10.0345,0.6901 11.4202,0.8512 1.3858,0.1624 3.3868,-0.7525 4.4464,-2.0294 z m 214.7864,-4.9168 c 10.4212,-0.8872 13.2856,-2.1397 9.8082,-4.2889 -1.8778,-1.1601 -32.6414,2.3721 -32.6414,3.7483 0,2.4208 2.5657,3.3186 6.955,2.434 2.5605,-0.5161 9.7056,-1.3678 15.8782,-1.8934 z m -210.142,-2.0493 c -3.0681,-1.9824 -22.7688,-1.9824 -23.9943,0 -0.6104,0.9879 3.9773,1.5394 12.6797,1.5245 9.376,0 12.9109,-0.4929 11.3146,-1.5245 z m 4.6439,-6.1919 c -3.0665,-1.9817 -21.221,-1.9817 -22.4463,0 -0.6086,0.9851 3.7193,1.5393 11.9057,1.5244 8.8767,0 12.1431,-0.4888 10.5406,-1.5244 z m 210.6769,-0.8653 c 0.735,-0.4547 0.5317,-2.1147 -0.4515,-3.6895 -1.607,-2.5728 -3.3692,-2.7798 -17.3834,-2.0431 -8.5772,0.4512 -15.8329,1.0229 -16.1234,1.2703 -0.2896,0.2457 -0.043,1.9953 0.5613,3.8843 1.0596,3.3386 1.5204,3.4057 16.5749,2.4192 8.5168,-0.5582 16.0866,-1.3867 16.8221,-1.8412 z m -203.7109,-5.3267 c 0.6078,-0.9833 -3.5961,-1.548 -11.5186,-1.548 -7.285,0 -12.4753,0.644 -12.4753,1.548 0,0.8934 4.8712,1.548 11.5187,1.548 6.335,0 11.9491,-0.6967 12.4752,-1.548 z m 25.9575,-2.0435 c 0.4037,-1.8562 1.2356,-4.7676 1.8482,-6.4707 0.6942,-1.9298 -0.6726,-1.0548 -3.6292,2.3222 -5.597,6.3934 -5.7572,7.0109 -1.8901,7.3021 1.862,0.1405 3.205,-1.0136 3.6711,-3.1536 z m 43.0007,-0.294 c 5.9555,-1.3081 7.0909,-4.4137 9.0767,-14.3437 l 1.6934,-8.468 -9.1487,0.903 c -28.3984,2.803 -29.5829,2.7723 -31.7476,7.0533 -4.0093,7.9306 -6.0059,15.9546 -4.2414,17.0451 1.7381,1.0742 26.768,-0.5205 34.3676,-2.1897 z m -61.2449,-53.1594 c -0.3334,-0.3322 -3.8335,-0.1202 -7.78,0.4721 -6.6594,0.9987 -7.3965,1.5755 -10.2465,8.0182 -1.7203,3.8884 -4.5487,7.4889 -6.4303,8.185 -2.1519,0.796 -4.4965,4.2211 -6.521,9.5264 -2.3568,6.1763 -4.1138,8.5086 -6.9056,9.1677 -3.442,0.8127 -12.0894,12.336 -12.2004,16.2576 -0.044,0.8518 11.3706,-10.2802 25.3221,-24.7374 13.9509,-14.457 25.0939,-26.5574 24.7617,-26.8896 z m 183.0884,51.3972 c 6.6264,-0.7961 7.8124,-1.3682 6.3894,-3.0826 -1.2685,-1.5283 -6.1644,-2.1054 -17.8663,-2.1054 -15.6391,0 -16.0696,0.092 -14.4623,3.0961 1.8107,3.3823 9.8169,4.0283 25.9392,2.0919 z m -194.2844,-1.9733 c 5.8549,-0.066 10.4487,-0.7992 10.4487,-1.6667 0,-2.5362 -22.5128,-1.943 -24.6648,0.6499 -1.4725,1.7737 -1.2852,2.0953 0.9715,1.6662 1.5371,-0.294 7.4975,-0.5846 13.2446,-0.6494 z m 198.894,-14.6228 c -3.6048,-5.4229 -10.6695,-16.0016 -15.6987,-23.5081 -5.0291,-7.5066 -9.8612,-15.5472 -10.7371,-17.8684 -1.865,-4.9404 -4.1783,-5.5743 -25.4551,-6.9751 -13.7578,-0.9057 -14.8363,-0.7789 -12.688,1.491 1.7579,1.8579 6.1266,2.6175 17.3952,3.025 l 15.0474,0.5439 4.5008,6.2132 c 2.4753,3.4172 5.6171,8.3721 6.9818,11.0108 2.5008,4.8366 25.542,35.9276 26.6254,35.9276 0.3203,0 -2.3669,-4.4367 -5.9717,-9.8599 z m -183.6124,5.7624 c 1.9427,-2.3407 1.1256,-2.4863 -9.9546,-1.7754 -16.7062,1.072 -19.633,4.3252 -3.8914,4.3252 9.0043,0 12.2217,-0.5927 13.846,-2.5498 z m 179.3802,-0.3818 c 0,-2.4565 -4.6162,-3.2616 -18.7029,-3.2616 -12.6633,0 -15.5647,0.8206 -12.7736,3.6123 1.567,1.567 31.4765,1.2338 31.4765,-0.3511 z m -174.1385,-6.3781 c 0.6423,-1.0385 -2.8562,-1.2273 -10.3577,-0.559 -14.7415,1.3139 -15.3594,2.1278 -1.6143,2.1278 6.0515,0 11.4388,-0.706 11.972,-1.5688 z m 167.9465,-1.3067 c 0,-1.3757 -14.6001,-3.3166 -24.947,-3.3166 -4.6228,0 -5.7216,0.5075 -5.0252,2.3219 0.7047,1.836 3.9348,2.3221 15.4314,2.3221 7.9974,0 14.5408,-0.5973 14.5408,-1.3274 z m -140.8688,-6.7917 c 0,-0.8636 -1.0267,-0.696 -2.3222,0.379 -1.2768,1.06 -2.3222,2.6237 -2.3222,3.4751 0,0.8634 1.0269,0.6957 2.3222,-0.379 1.2774,-1.0599 2.3222,-2.6238 2.3222,-3.4753 z m -23.2201,1.927 c 1.6274,-1.0515 -0.7768,-1.5077 -8.0359,-1.5242 -5.6966,-0.014 -10.7881,0.673 -11.3143,1.5242 -1.2527,2.027 16.2135,2.027 19.3502,0 z m 51.3406,-2.5276 9.2597,-0.9887 1.6789,-6.6673 c 2.6815,-10.6491 4.1351,-10.3348 -10.4209,-9.1222 -8.5497,0.712 -13.158,0.5483 -13.158,-0.4674 0,-1.9241 3.9616,-2.9042 17.2402,-4.2651 l 9.216,-1.0531 2.2584,-9.2446 c 2.2356,-9.1515 2.2257,-9.2345 -0.9864,-8.2387 -1.7847,0.5532 -6.1917,2.0854 -11.0873,3.4048 -4.8954,1.3193 -6.3386,1.1828 -9.3028,2.2341 -4.0295,1.429 -3.8835,4.4339 -4.8983,9.8125 -0.5759,3.0523 -4.6496,2.7704 -7.182,10.7226 -1.121,3.5203 -3.2177,11.1061 -3.8153,13.1491 -1.0448,3.5724 -0.8575,3.6761 4.8965,2.7134 3.2906,-0.5505 10.6262,-1.4458 16.3013,-1.9894 z m 60.6757,0.2057 c -0.4902,-1.2771 -1.165,-2.322 -1.4993,-2.322 -0.3336,0 -0.6088,1.0449 -0.6088,2.322 0,1.2771 0.6749,2.3221 1.4995,2.3221 0.8249,0 1.0987,-1.045 0.6086,-2.3221 z m 45.8801,-0.8226 c 0,-2.2093 -1.9951,-2.6542 -16.786,-3.742 -10.1308,-0.7453 -12.7753,-0.5223 -12.2636,1.0332 1.0346,3.1469 29.0496,5.759 29.0496,2.7088 z m -150.1564,-4.7731 c 1.449,-0.8498 -1.9978,-1.218 -9.164,-0.9792 -6.4175,0.2138 -11.7266,1.1107 -12.0313,2.0321 -0.6484,1.965 17.5953,1.0586 21.1953,-1.0529 z m 143.9644,-4.2425 c 0,-1.1993 -15.4625,-3.2815 -24.5704,-3.3089 -3.0896,-0.014 -3.3666,0.3577 -1.7456,2.311 1.4148,1.7045 5.1705,2.3221 14.1216,2.3221 6.7072,0 12.1944,-0.596 12.1944,-1.3242 z m -137.1016,-3.4816 c 0.7947,-0.7341 1.1431,-1.6058 0.7741,-1.937 -1.5059,-1.3523 -22.1399,1.4566 -22.6783,3.0872 -0.6876,2.083 19.5549,1.0199 21.9042,-1.1502 z m 132.4024,-5.0653 c -1.34,-1.2599 -7.4991,-2.5065 -15.0676,-3.0498 -12.3875,-0.8892 -12.7482,-0.8205 -11.1685,2.1309 1.4314,2.6748 3.2845,3.0499 15.0677,3.0499 11.4729,0 13.104,-0.3111 11.1684,-2.131 z m -125.6657,-3.2124 c 1.9872,-1.9872 -1.3898,-2.3622 -11.2993,-1.2549 -5.8085,0.6492 -10.8065,1.9195 -11.1062,2.8228 -0.5577,1.6803 20.6405,0.1971 22.4055,-1.5679 z m 80.4122,-1.9185 c -1.5564,-3.4159 -1.9956,-3.6583 -2.4411,-1.3465 -0.2982,1.5506 0.395,3.4147 1.5447,4.1423 2.9756,1.8855 2.9978,1.8157 0.8964,-2.7958 z m -78.9187,-4.5017 c 5.8633,-0.8866 6.8055,-3.7164 1.2371,-3.7164 -5.7796,0 -19.2867,3.1663 -20.2662,4.7506 -0.8034,1.3 6.0612,0.927 19.0291,-1.0342 z m 117.3528,0.104 c -1.653,-1.25 -5.4841,-2.2804 -8.5141,-2.2898 -3.0299,-0.014 -8.1214,-0.4487 -11.3142,-0.9764 -3.9308,-0.6497 -5.805,-0.3783 -5.805,0.8408 0,2.953 6.2965,4.5975 17.8019,4.6493 9.8551,0.044 10.5642,-0.157 7.8314,-2.2239 z m -119.0592,-11.672 7.5816,-1.6259 -0.5037,-6.4679 c -0.3452,-4.4319 -0.6109,-10.1075 -0.8237,-10.3588 -5.4091,-0.5451 -9.2826,0.9651 -14.997,1.8243 v 11.5052 c 0,4.5817 0.082,6.749 0.4638,6.749 0.3819,0 4.1094,-0.7317 8.279,-1.6259 z m 21.6639,-10.8389 c 0.1798,-7.682 -0.3631,-10.7259 -2.2314,-10.0086 -1.2551,0.4815 -2.9463,0.8756 -3.7579,0.8756 -0.8492,0 -0.7321,1.3899 0.2763,3.2722 0.9633,1.7998 1.6456,7.1381 1.3091,10.0212 -0.4634,3.9681 -0.044,5.2387 1.7863,5.2293 1.8759,-0.014 2.4459,-2.055 2.6184,-9.3897 z m 16.4823,-3.369 c 0.8012,-8.1431 0.6139,-8.901 -2.1998,-8.901 -1.6914,0 -2.7516,0.5237 -2.3564,1.1637 0.395,0.6401 0.9063,4.2973 1.1345,8.1271 0.745,12.5128 2.1679,12.3508 3.4217,-0.3897 z m 80.0477,2.0263 c 0,-4.2066 -0.5226,-7.965 -1.1611,-8.3515 -2.5021,-1.5149 -34.2544,-7.4913 -44.3619,-8.3497 -9.399,-0.8432 -11.4642,-2.8441 -10.7629,6.752 0.3408,4.6629 -0.011,9.1865 -0.011,11.622 0,4.3353 2.2965,4.4279 10.6307,4.4279 8.4685,0 8.5137,-0.025 8.5137,-4.7457 0,-6.8222 2.5727,-10.7343 7.059,-10.7343 4.1239,0 6.873,4.6548 6.873,11.637 0,3.4423 0.6626,3.733 9.6753,4.2449 5.3213,0.3024 10.5458,0.6838 11.6099,0.8479 1.3274,0.2044 1.9351,-2.1044 1.9351,-7.3505 z m -61.9031,-11.1317 c 0.4299,-6.5081 -0.1553,-5.5693 -5.805,-3.627 -3.1926,1.0976 -5.7356,2.7571 -5.6505,3.6876 0.084,0.9306 0.2589,5.1749 0.3862,9.4319 l 0.2326,7.74 c 3.5574,0 7.1148,0 10.6722,0 0.2375,-6.5552 0.2099,-11.5316 0.1645,-17.2325 z m -42.6108,-3.0696 c 8.4602,-2.1258 20.0317,-3.4673 25.5654,-4.3961 17.8875,-3.0016 17.0282,-2.5278 17.0282,-9.3873 0,-3.3895 -0.5054,-6.1626 -1.1237,-6.1626 -0.6178,0 -14.7128,4.3831 -32.7264,7.7914 -31.282,5.9188 -31.1896,5.4043 -31.1896,9.3908 0,5.1409 0.8349,6.2057 4.5821,6.0048 2.9673,-0.1591 9.4039,-1.1156 17.864,-3.241 z m 103.7819,-5.6237 c -0.5871,-2.3397 -1.1852,-4.3039 -1.3286,-4.365 -0.1449,-0.061 -3.1288,-0.9332 -6.633,-1.9381 -9.5857,-2.7488 -11.119,-2.4435 -10.2614,2.0428 1.0079,5.2714 -2.1142,4.935 -3.4461,-0.3716 -1.2383,-4.9345 -3.2729,-6.538 -8.3377,-6.5708 -2.6956,-0.017 -3.4033,0.6158 -2.7091,2.4249 0.517,1.3468 0.9399,3.6503 0.9399,5.1192 0,2.1428 2.6776,3.1448 13.545,5.0685 19.9774,3.5364 19.4822,3.5746 18.231,-1.4102 z m -101.3712,-9.0142 c 13.1003,-2.6191 25.931,-6.003 30.9883,-6.9979 6.2604,-1.2317 9.1946,-2.5386 9.1946,-4.0953 0,-1.2708 -0.9179,-1.9339 -2.0671,-1.4929 -1.1366,0.4361 -12.9672,1.5077 -26.5171,5.0426 -13.5498,3.5347 -27.1316,5.4221 -30.3243,6.2577 -3.3674,0.8812 -5.8055,2.4695 -5.8055,3.7816 0,3.14 -0.6842,2.5455 24.5311,-2.4958 z m 66.4989,1.8558 c 0,-4.9453 -0.3467,-5.2752 -6.5789,-6.2661 -3.6184,-0.5752 -8.1465,-1.4365 -10.0618,-1.9136 -3.234,-0.8057 -3.4832,-0.3572 -3.4832,6.2659 v 7.1339 h 10.0622 10.0617 z m 34.0562,-2.9522 c 0,-1.2775 -4.3043,-2.6575 -12.1281,-3.8886 -10.3607,-1.6303 -33.0978,-7.4603 -41.1591,-10.5538 -2.6811,-1.0286 -3.5315,3.182 -0.9636,4.7692 0.8126,0.5022 8.9982,2.2994 18.1893,3.9938 9.1913,1.6945 20.1948,4.0487 24.4515,5.2318 10.0128,2.7827 11.61,2.8442 11.61,0.4476 z" fill="#00B894" transform="translate(92.650188,70.250057) translate(3003.3964,1504.6957)"/>
</svg>