<?xml version="1.0" ?><svg height="65.081894mm" viewBox="0 0 121.0331 65.081894" width="121.0331mm" xmlns="http://www.w3.org/2000/svg">
    <path d="m 23157.357,17404.115 c 13.121,-9.708 28.227,-9.571 46.651,-4.723 35.571,9.359 48.108,39.622 85.914,48.981 37.806,9.359 113.223,-12.945 149.182,-14.607 23.308,-1.077 30.1,-9.545 16.119,6.904 -13.98,16.449 -72.682,109.337 -81.72,122.895 -9.039,13.557 -40.916,27.201 -65.894,34.723 -24.977,7.522 -70.752,12.245 -124.011,-27.376 -53.258,-39.622 -63.755,-48.456 -105.448,-47.232 -41.694,1.225 -28.476,-2.798 -10.982,-26.239 17.493,-23.441 90.189,-93.326 90.189,-93.326 z" fill="#FFFFFF" transform="translate(-304.60845,9.8623652) matrix(0.26039162,0.04690999,-0.04690999,0.26039162,-4872.634,-5624.5323)"/>
    <path d="m 23247.715,17618.049 c -40.474,-7.76 -61.107,-24.297 -87.483,-49.353 -32.803,-31.278 -65.71,-41.694 -105.2,-33.294 -11.964,2.544 -12.68,2.184 -14.798,-7.468 -3.501,-15.934 5.738,-29.289 51.266,-74.112 62.401,-61.431 73.18,-64.775 84.724,-66.636 19.965,-3.22 47.608,5.576 76.091,29.073 12.901,10.642 28.327,20.744 34.278,22.452 20.248,5.808 59.743,3.443 95.986,-5.744 38.237,-9.692 86.516,-14.309 100.083,-6.822 6.622,3.654 6.14,6.957 0.908,8.053 -3.308,0.694 -16.339,16.2 -28.957,34.457 -51.822,74.98 -79.24,109.211 -95.986,119.841 -36.661,23.269 -81.431,35.198 -110.912,29.553 z m 60.037,-33.413 10.294,-4.39 -11.857,-2.373 c -11.718,-2.342 -11.779,-2.449 -5.146,-8.855 3.691,-3.566 12.674,-9.618 19.965,-13.445 14.244,-7.478 26.584,-23.229 39.001,-49.773 4.279,-9.149 7.782,-17.04 7.782,-17.534 0,-0.495 -3.86,-0.156 -8.577,0.737 -15.075,2.882 -9.217,-4.453 11.441,-14.327 31.299,-14.959 43.524,-7.832 26.278,15.323 -14.976,20.107 -25.051,35.109 -36.443,54.26 -6.015,10.114 -15.71,21.302 -21.547,24.858 -15.356,9.366 -7.949,7.963 12.767,-2.423 15.807,-7.924 20.862,-13.536 45.241,-50.257 15.095,-22.733 34.381,-49.08 42.86,-58.549 9.876,-13.226 23.592,-18.526 1.165,-14.94 -7.838,1.254 -31.754,7.833 -53.151,14.619 -35.562,11.28 -41.409,12.186 -68.065,10.562 -16.038,-0.979 -33.658,-3.498 -39.155,-5.597 -13.617,-5.203 -19.211,1.024 -5.884,6.546 14.129,5.852 22.39,15.691 19.494,23.212 -2.241,5.816 -2.535,5.821 -5.734,0.127 -5.071,-9.035 -11.845,-7.266 -19.704,5.146 l -7.06,11.147 11.869,12.156 c 6.525,6.685 11.866,14.825 11.866,18.09 0,5.612 0.517,5.619 9.437,0.07 16.649,-10.343 21.283,-18.655 21.363,-38.322 0.05,-12.853 1.323,-17.883 4.263,-16.903 5.618,1.873 10.373,25.666 7.864,39.354 -3.728,20.354 -37.159,44.612 -46.983,34.096 -2.206,-2.362 -8.322,-3.661 -13.591,-2.887 -5.271,0.773 -14.556,-0.329 -20.633,-2.45 -10.253,-3.571 -11.764,-3.074 -20.804,6.82 -7.889,8.639 -10.688,9.89 -14.694,6.566 -4.303,-3.571 -4.279,-5.399 0.205,-14.055 2.831,-5.47 3.948,-10.124 2.484,-10.34 -1.462,-0.206 -4.205,-0.605 -6.091,-0.86 -1.889,-0.257 -6.552,-3.548 -10.367,-7.322 -3.816,-3.774 -10.763,-9.415 -15.438,-12.539 -6.815,-4.55 -7.658,-6.551 -4.248,-10.085 3.458,-3.585 6.526,-3.33 16.411,1.388 15.288,7.289 16.23,7.25 21.323,-0.905 3.41,-5.457 3.116,-8.571 -1.564,-16.729 -5.405,-9.414 -5.389,-10.575 0.256,-19.178 7.274,-11.1 20.711,-16.715 33.357,-13.939 16.743,3.678 14.241,-4.688 -8.133,-27.171 -17.304,-17.388 -25.813,-23.199 -40.252,-27.488 -10.069,-2.99 -18.958,-7.836 -25.34,-2.148 -6.526,5.817 -111.8,104.437 -111.8,113.316 0,1.508 6.468,1.288 14.371,-0.488 16.213,-3.644 54.341,1.041 73.443,9.021 6.462,2.701 19.837,12.428 29.724,21.613 24.521,22.787 35.735,30.072 55.769,36.216 20.947,6.425 58.085,6.955 71.99,1.024 z m -151.211,-72.309 c -7.125,-28.385 40.725,-79.887 62.765,-67.554 5.424,3.036 4.953,3.858 -4.183,7.302 -20.28,7.649 -31.9,22.836 -46.615,60.927 -3.913,10.125 -9.334,9.819 -11.967,-0.675 z m -59.56,-8.466 c -3.568,-2.319 -4.041,-5.119 -1.714,-10.126 5.43,-11.696 73.942,-72.048 84.398,-74.345 12.647,-2.777 28.651,0.84 34.362,7.771 4.097,4.965 2.448,5.271 -17.324,3.219 l -21.851,-2.268 -28.294,29.997 -28.292,29.996 10.131,4.262 c 5.573,2.342 9.491,6.208 8.707,8.588 -1.726,5.235 -33.056,7.504 -40.123,2.906 z m 162.753,27.166 c -4.844,-5.352 -7.247,-5.983 -10.985,-2.878 -3.88,3.22 -3.944,4.508 -0.337,6.796 2.447,1.553 7.392,2.848 10.987,2.878 6.313,0.05 6.325,-0.181 0.335,-6.796 z m -26.537,-10.305 c 2.357,-3.775 3.037,-6.862 1.512,-6.862 -3.576,0 -11.009,7.412 -11.009,10.978 0,5.053 5.168,2.815 9.497,-4.116 z m 23.732,-28.044 c 4.365,-4.104 7.939,-8.736 7.939,-10.293 0,-5.424 -7.518,-2.783 -13.916,4.887 -11.557,13.853 -7.206,17.79 5.977,5.406 z m -16.075,-9.696 c 2.788,-5.206 2.61,-6.849 -0.738,-6.808 -7.343,0.07 -14.013,5.8 -11.507,9.856 3.554,5.75 8.149,4.604 12.245,-3.048 z" fill="#00B894" transform="translate(-304.60845,9.8623652) matrix(0.26039162,0.04690999,-0.04690999,0.26039162,-4872.634,-5624.5323)"/>
</svg>