<?xml version="1.0" ?><svg height="53.678394mm" viewBox="0 0 102.84148 53.678394" width="102.84148mm" xmlns="http://www.w3.org/2000/svg">
    <path color="#000" d="m 3372.7819,818.16473 c 12.608,-44.56321 17.206,-81.3408 4.4035,-120.23934 l 96.8467,-66.91303 277.2104,-4.96062 c -35.3786,43.19292 -7.9419,78.32605 -20.7685,117.82919 l -80.5985,61.09109 z" fill="#FFFFFF" overflow="visible" paint-order="fill markers stroke" transform="translate(-275.77177,-174.25478) matrix(0.26458333,0,0,0.26458333,-614.44511,9.8729283)"/>
    <path d="m 3748.085,621.28657 c -4.8078,-0.0566 -15.1462,2.88168 -33.2256,2.20322 -14.6525,2.98037 -42.2233,4.73858 -137.253,4.37102 -52.7936,-0.20419 -99.2171,-0.48519 -103.164,-0.62442 -6.0786,-0.21444 -7.8237,0.40971 -11.4125,4.06987 -6.5685,6.69914 -25.4907,20.67214 -32.0519,23.67082 -3.1178,1.42491 -7.3656,4.31116 -11.1667,7.58395 -6.1863,5.32641 -37.2094,26.52654 -40.2116,27.47941 -2.4626,0.7816 -3.0375,5.24756 -2.4143,7.88495 -9.88,-1.87968 -7.9812,12.13957 -5.3424,17.63702 2.6236,5.16122 5.9475,34.03471 5.2412,45.52813 -0.6561,10.67741 -6.786,35.84291 -10.5688,43.38467 -3.0807,6.1419 -2.4949,10.3949 2.108,15.27865 l 4.1585,4.41087 14.3597,-0.89458 c 7.8982,-0.49304 21.8437,-1.55224 30.989,-2.35158 28.2295,-2.46741 52.6275,-3.60009 116.3945,-5.40731 18.2906,-0.51838 36.9963,-1.24752 41.5689,-1.61865 4.5726,-0.37116 22.3479,-1.03967 39.5008,-1.48801 25.4867,-0.66614 31.5738,-0.42947 33.2986,1.29537 2.8229,2.82288 7.3217,2.3216 11.501,-1.28208 12.8556,-10.18795 27.6216,-22.43528 41.9255,-35.38664 20.1548,-15.78251 34.8004,-30.26007 36.1817,-35.76309 0.5918,-2.35823 0.5157,-4.48525 -0.1706,-4.72751 -6.92,-2.52329 -2.1294,-8.83553 -2.0039,-15.88536 0,-2.729 1.3545,-6.15934 3.2129,-8.13753 3.363,-3.57967 4.3233,-10.79364 1.6563,-12.44213 -2.2319,-1.37953 -3.4386,-25.03134 -1.8224,-35.72766 2.5933,-17.1625 3.362,-19.26648 9.2801,-25.36475 2.4949,-2.59406 7.4318,-8.27778 2.5885,-12.93148 0.6195,-3.61992 -0.2729,-4.73122 -3.1575,-4.76517 z m -16.8663,11.64941 c 2.3329,-0.0731 0.8611,1.7687 -4.5969,6.59638 -2.5604,2.26472 -9.8909,9.28453 -16.2906,15.59972 -6.3996,6.31518 -12.1531,11.48333 -12.7853,11.48333 -0.6321,0 -3.5585,2.25078 -6.5034,5.00209 -2.9449,2.75132 -9.4835,7.47972 -14.5302,10.50683 l -9.176,5.50253 -48.8828,1.06951 -51.2565,0.45171 c 1.0284,-2.00765 0.9733,-3.10897 3.7975,-6.91303 0.011,-0.73591 3.7137,0.42904 9.5392,1.00307 11.457,1.12895 16.5574,-3.12229 18.2347,-7.3426 2.7857,-7.00898 -4.262,-12.05288 -6.9329,-12.9802 -2.9717,-1.03174 -1.2096,-3.02332 2.9051,-6.92631 8.2956,-0.25163 10.7794,8.36848 18.6887,7.05695 2.8608,-0.47439 4.2686,-2.58275 2.9096,-6.48123 -1.8405,-5.11659 -9.8049,-6.22668 -15.0174,-7.49319 l 4.588,-4.38208 c 2.8055,-3.74254 -6.3337,-5.4954 -8.4298,-3.00702 -0.8076,1.64777 -3.343,4.14047 -5.4627,4.14959 -3.6226,0.0157 -6.3534,0.0382 -11.5121,-0.44949 -3.3011,-0.31208 -1.2576,-1.32473 0.3321,-4.04996 1.4872,-1.65648 -5.4308,-2.1437 -7.0834,-0.57129 -2.8144,2.66201 -5.3138,4.76531 -7.8365,4.82495 -5.0664,0.11983 -14.7086,1.70441 -19.5256,3.21074 -8.6844,2.71562 -6.8244,10.16722 1.5876,13.36548 3.7255,1.41645 -0.1281,5.47986 -3.6713,6.89089 -3.5432,1.41102 -6.775,0.16993 -14.7671,-0.17936 -8.898,-0.38888 -11.3955,-1.1802 -13.4741,-1.39944 -6.9477,-0.68185 -2.5303,11.09699 5.3122,10.05734 8.9005,0.23264 12.3912,0.86863 12.3912,2.26079 -0.2332,2.87866 -7.4558,3.70425 -4.6744,8.11318 2.607,2.0402 5.6122,2.46575 1.6496,2.46008 l -59.3298,-0.0443 c -62.7514,-0.0459 -70.6692,-0.34446 -70.6692,-2.66818 0,-0.79899 1.8698,-2.24972 4.1562,-3.22401 2.2864,-0.97437 5.1788,-2.57413 6.4259,-3.55617 1.2471,-0.98202 6.4625,-4.01314 11.5896,-6.73367 5.1272,-2.72053 11.2493,-6.53178 13.6046,-8.47189 6.171,-5.08289 6.8433,-5.55013 12.6414,-8.75532 9.4192,-5.20681 24.2839,-16.32229 26.6424,-19.92202 1.1906,-1.81694 1.8612,-2.64567 2.7679,-2.6638 0.7053,-0.0141 1.5531,0.46184 2.903,1.34629 4.7312,3.10003 14.6748,3.8206 55.694,4.03667 2.3481,-0.23999 3.7191,-0.12854 8.3323,-0.279 29.151,-0.26337 66.9356,0.8253 103.1264,0.67979 34.0557,-0.13392 44.4843,-1.01523 68.8026,-4.42859 2.4942,-0.35009 7.0805,-1.28443 10.1924,-2.0748 1.6165,-0.41057 2.8161,-0.64655 3.5938,-0.67093 z m -221.8768,11.27962 c -2.9171,-0.0545 -6.0565,0.55966 -8.8793,2.01944 -3.6123,1.86793 -5.678,1.98369 -11.1025,0.61778 -4.9141,-1.23738 -7.4994,-1.23207 -9.8469,0.0244 -4.0876,2.18751 -4.0152,3.92977 0.352,8.29696 3.4576,3.45766 3.4765,3.61737 0.7905,7.11011 -1.5116,1.96553 -2.7627,4.76501 -2.7812,6.21995 -0.028,2.26426 -1.6134,2.65867 -10.9939,2.73909 -24.496,0.20999 -37.2841,0.78574 -38.2166,1.71828 -0.5423,0.5414 -0.5405,2.38254 0,4.09203 0.9361,2.94938 2.0997,3.10563 22.7741,3.07122 11.3471,0.2478 26.2045,-1.62469 26.6756,-0.92557 7.9526,3.04785 7.9368,-0.21695 8.0246,-4.98881 0.1951,-10.61211 13.2643,-19.00918 25.8098,-18.82594 5.3823,0.0492 6.8739,-0.526 7.6437,-2.95166 1.5032,-4.7362 -3.8344,-8.09716 -10.2521,-8.21724 z m 167.5934,2.58186 c -10.0953,8e-4 -20.9484,0.41957 -24.8178,1.25552 -2.3212,0.50144 -6.3922,0.8057 -9.0477,0.67535 -6.1363,-0.30119 -6.8592,0.9734 -3.9525,6.97503 2.0873,4.30986 2.094,5.21144 0.075,8.25268 -2.3246,3.502 -19.1383,12.80993 -24.5522,13.59135 -1.8039,0.26035 -3.217,1.80174 -3.5052,3.82186 -0.4382,3.07109 0.1401,3.38566 6.2333,3.38566 3.6945,0 9.6942,-1.07909 13.3322,-2.39807 3.638,-1.31898 7.6344,-2.62717 8.8815,-2.90738 1.2471,-0.2802 2.2675,-0.62876 2.2675,-0.77279 0,-0.14403 7.3679,-0.41539 16.3725,-0.60229 16.399,-0.34036 19.0622,-1.23732 19.1293,-6.45688 0.039,-2.95684 -2.5103,-3.68959 -13.6069,-3.91045 -10.4963,-0.20891 -10.5577,-0.23471 -10.5577,-4.4308 0,-2.32104 0.1708,-4.73062 0.3786,-5.35417 0.2078,-0.62354 10.2406,-1.13372 22.2957,-1.13372 21.8968,0 21.9188,-0.002 22.4242,-3.57387 0.2782,-1.96652 -0.2087,-4.29193 -1.0828,-5.16595 -0.8355,-0.83558 -10.1722,-1.25186 -20.2674,-1.25108 z m -99.9223,6.9684 c 2.4638,-0.017 6.8588,-0.0145 7.1056,0.70414 0.4302,1.25274 -2.4221,3.82738 -4.3976,4.61238 -1.9754,0.78501 -11.0247,-0.0621 -11.6871,-1.13372 -0.6159,-0.99679 5.2758,-3.13001 6.4215,-3.8418 0.3128,-0.19431 1.7362,-0.33535 2.5576,-0.341 z m 153.8536,2.40251 c 0.3117,0.34097 0.227,2.85086 -0.1882,5.5778 -1.3531,8.55495 -23.0109,7.47816 0.1882,-5.5778 z m -166.8028,8.32131 c 2.5674,0.0114 7.9025,0.95942 11.6316,1.24223 -1.5925,2.4141 -3.5439,4.55559 -5.8944,5.4538 l -12.0812,-1.18021 c 1.4888,-1.84982 2.3124,-4.36418 4.8604,-5.15489 0.079,-0.26398 0.6277,-0.36472 1.4836,-0.36093 z m 21.813,4.41531 c 1.5697,0.0401 3.4216,0.4039 2.1324,2.06151 -2.0628,2.65217 -7.0282,2.11466 -7.0282,2.11466 l 3.1133,-4.10753 c 0,0 0.8406,-0.0927 1.7825,-0.0686 z m 142.0294,6.78017 c 0.4743,0 0.8635,7.40564 0.8635,16.45886 0,13.54095 -0.4699,16.98599 -2.6461,19.42158 -3.2738,3.66409 -19.2975,17.02572 -20.4181,17.02572 -0.4507,0 -9.2201,8.40388 -19.4879,18.67537 -10.2678,10.27152 -21.2196,20.88543 -24.3373,23.58667 l -5.6686,4.91132 v -6.46354 c 0,-5.77659 0.8437,-7.31251 7.936,-14.44384 4.3648,-4.38886 8.6597,-8.86254 9.5458,-9.94219 0.8861,-1.07964 5.5861,-5.3645 10.4449,-9.52147 31.9315,-27.31961 41.5749,-37.39402 41.5977,-43.45997 0.011,-2.68504 -3.8528,-3.7506 -4.7762,-1.31751 -0.2771,0.73019 -3.2266,3.15146 -6.5521,5.38074 -3.3256,2.22929 -8.7668,6.59702 -12.0923,9.70526 -3.3255,3.10825 -9.066,8.0002 -12.7566,10.86997 -3.6905,2.86978 -11.831,10.09786 -18.0908,16.0625 -6.2596,5.96463 -11.9138,10.51449 -12.5638,10.11269 -1.6488,-1.01899 -1.489,-20.20323 0.1682,-20.20323 0.7425,0 1.7424,1.02035 2.221,2.26744 0.4785,1.24709 2.2421,2.26743 3.9215,2.26743 3.5236,0 6.3972,-2.13006 18.3542,-13.60463 4.7651,-4.57267 11.4749,-10.69475 14.9089,-13.60463 3.434,-2.90988 7.7678,-6.64968 9.6322,-8.31247 7.2924,-6.50364 18.9771,-15.87207 19.7959,-15.87207 z m -180.1972,4.51938 13.4894,0.74179 c -2.9167,3.18193 -6.3734,3.81852 -7.1078,7.90504 -1.0375,0.95027 -15.7857,1.40306 -15.7857,0.49378 0,-2.61785 7.3568,-6.34963 9.4041,-9.14061 z m 142.5917,10.01969 c 0.3751,0.0323 0.547,0.19696 0.4362,0.52478 -0.2825,0.83596 -5.5236,5.92828 -11.6471,11.31505 -9.4188,8.2855 -11.9449,9.76414 -16.3969,9.59677 -3.8995,-0.14661 -5.6702,-1.09175 -6.8334,-3.64474 -1.9416,-4.26133 -5.5701,-5.839 -6.5077,-2.82987 -0.3842,1.23308 -1.0187,3.26343 -1.4083,4.51052 -0.5882,1.88292 -7.026,3.13913 -12.9957,2.53759 -16.0156,-1.61385 -123.2545,-2.4687 -215.1897,-1.71609 -31.7513,0.25993 -35.7972,1.14852 -37.7634,-0.77284 -0.5384,-3.0271 -0.9999,-5.56768 0.9871,-7.61512 2.7214,0.45272 6.5891,-0.80357 14.3389,-0.62421 36.8803,0.85344 212.5123,0.42686 241.7944,-0.58679 29.2955,-1.0141 36.3087,-2.05969 41.2789,-6.15353 2.8351,-2.33525 8.281,-4.68154 9.9067,-4.54152 z m -239.4627,31.70428 c 64.5826,-0.0252 154.9098,0.33145 177.4071,0.90786 17.9556,0.46007 18.1465,0.50258 18.6643,4.17174 0.4118,2.91776 0.09,3.37009 -1.5124,2.12793 -1.8382,-1.42572 -14.7738,-1.91593 -57.9658,-2.19879 -25.4616,-0.24559 -57.5768,0.57349 -91.6784,-0.93443 -38.784,0.39045 -71.0982,1.07041 -71.8097,1.51014 -0.7115,0.43975 -6.3102,1.21218 -12.4421,1.71608 -15.3365,1.26029 -18.3122,2.17224 -18.3122,5.61103 0,4.28477 6.2291,5.9494 18.5979,4.97108 27.2629,-2.15643 40.8079,-2.43955 131.0531,-2.73022 52.7934,-0.17003 97.8573,-0.86171 100.1436,-1.53893 4.1525,-1.23014 4.1585,-1.22465 4.1585,6.4901 0,6.3101 -0.4844,7.74056 -2.6461,7.81867 -6.2277,0.22524 -62.4508,0.13708 -110.7258,-0.17271 -52.5742,-0.3374 -102.4024,0.73539 -124.7091,2.68373 -6.6512,0.58093 -13.1743,1.08193 -14.4948,1.11379 -1.3206,0.0319 -3.532,0.99133 -4.9136,2.13236 -2.2741,1.87836 -2.5138,1.44935 -2.5375,-4.53487 -0.015,-3.63522 -1.0348,-11.37012 -2.2674,-17.18958 -1.2327,-5.81944 -2.2409,-10.97819 -2.2409,-11.46341 0,-0.32297 29.4817,-0.4765 68.2313,-0.49157 z m 274.2404,5.64424 1.0961,6.39266 c 1.9621,11.67342 -9.3285,12.12507 -17.969,21.80418 -4.9018,4.97111 -9.5045,9.05252 -10.2278,9.06975 -1.4384,0.0342 -29.5028,23.95491 -35.9491,30.64141 -3.8767,4.02111 -7.9911,5.35808 -9.2978,3.02251 -0.3488,-0.62354 -0.3099,-3.72186 0.086,-6.88646 0.6252,-4.99406 1.188,-5.69191 4.2559,-5.28995 2.3272,0.30493 5.8512,-1.47341 10.3163,-5.2058 7.0947,-5.88885 14.3143,-10.16064 20.6395,-19.27323 3.5287,-2.90987 7.1673,-6.23682 8.0843,-7.39353 1.631,-2.05702 7.0576,-8.95673 21.8973,-20.96052 4.5306,-3.66489 6.3624,-5.23125 7.0679,-5.92102 z m -88.2596,33.45136 c 0.7959,-0.0646 2.5556,0.69381 4.2205,1.86001 3.1345,2.19551 3.3693,3.2199 2.5088,10.89655 -2.368,21.12343 -2.932,24.46334 -4.2758,25.29388 -0.7876,0.48674 -9.7124,1.1275 -19.8335,1.42379 -10.1209,0.29627 -27.2445,0.9101 -38.0526,1.36401 -10.8082,0.45392 -33.2558,1.19347 -49.8836,1.64522 -34.8156,0.94587 -38.6025,1.12915 -88.4301,4.2758 -20.3692,1.28633 -40.7762,2.98497 -45.3488,3.77316 -14.0486,2.42157 -19.3484,2.99605 -20.1567,2.18773 -0.4265,-0.42655 0.2311,-3.60533 1.4613,-7.0636 3.732,-10.49076 8.3125,-31.59208 8.3391,-38.40916 0.026,-6.70137 1.2025,-7.89965 4.2027,-4.28467 1.3432,1.61845 2.9527,1.79687 6.6097,0.73515 42.2092,-3.81705 89.9408,-2.18038 139.7464,-3.28823 62.1656,0.50901 97.4453,0.39214 98.6136,-0.32993 0.072,-0.0441 0.1653,-0.0705 0.279,-0.0797 z m -49.0289,23.40509 c -2.1918,-0.0117 -5.0062,0.008 -7.9161,0.0597 -5.8197,0.10317 -34.3894,0.50974 -63.4882,0.90565 -59.5008,0.80953 -61.1853,0.89649 -91.2468,4.6323 -14.8637,1.84714 -37.5393,2.87026 -38.0769,4.27138 -1.2508,3.25917 -2.9887,5.54531 5.6995,6.80895 7.7308,1.06865 31.6122,-0.69511 43.8121,-2.40472 5.6521,-0.26234 12.6588,-0.87941 15.5687,-1.37065 2.9098,-0.49123 21.9548,-1.16162 42.324,-1.49022 85.4082,-1.37777 117.8423,-2.8118 122.7251,-5.42503 5.9531,-3.18598 1.9671,-5.1356 -10.9917,-5.3763 -6.9964,-0.12995 -13.4022,-0.34838 -14.2335,-0.48714 -0.4158,-0.0693 -1.9843,-0.11224 -4.1762,-0.12401 z" fill="#00B894" transform="translate(-275.77177,-174.25478) matrix(0.26458333,0,0,0.26458333,-614.44511,9.8729283)"/>
</svg>