<?xml version="1.0" ?><svg height="80.705971mm" viewBox="0 0 44.189472 80.705971" width="44.189472mm" xmlns="http://www.w3.org/2000/svg">
    <path color="#000" d="m 2916.4663,1050.8735 c -0.9606,-38.1543 118.0659,-39.2809 109.3737,-7.4382 -4.8138,17.6347 0,23.4614 0,23.4614 27.8767,3.1969 35.3775,40.7655 18.1735,48.2666 -20.1835,11.9089 11.3082,28.1942 14.8167,26.4775 l -13.2276,25.8275 5.2684,35.0059 c -8.5915,5.1731 -14.4057,10.1302 3.0718,13.2758 l -3.8793,29.4945 24.2237,4.1525 -2.2007,23.2791 -31.2509,12.5358 6.4727,24.9788 -102.6197,1.8719 0.8241,-29.0285 28.9978,-10.7022 0.5753,-17.6406 -34.179,-12.9865 -4.2039,-22.1026 15.8895,-11.2107 -8.2324,-18.3562 c -1.6127,-7.4595 -17.3857,-24.7669 0.2164,-22.9861 l 4.9148,-18.0205 c -31.691,-14.7607 -14.4034,-21.6496 -2.551,-32.8217 l -1.6871,-30.8984 c 0,0 -29.825,-5.9908 -28.7868,-34.4351 z" fill="#FFFFFF" overflow="visible" paint-order="fill markers stroke" transform="translate(65.897386,-158.74996) matrix(0.26458333,0,0,0.26458333,-836.33036,-110.32152)"/>
    <path d="m 2959.5826,1321.3758 c -10.001,-2.5374 -19.1214,-2.0476 -22.2443,-10.6913 1.1412,-8.3261 -0.8106,-24.4792 2.5391,-27.5401 6.6998,-8.4302 22.7538,-8.2773 29.5491,-12.5765 0.324,-0.324 0.1912,-3.9739 -0.2949,-8.1108 -0.7803,-6.6387 -1.2348,-7.5218 -3.8711,-7.5218 -2.7152,0 -6.3932,-1.2468 -16.9792,-5.7558 -8.5825,-4.2887 -9.7568,-1.9792 -13.2603,-9.1337 -3.2317,-6.6266 -4.423,-13.0884 -3.8917,-21.1105 0.22,-3.3208 0.8552,-3.7385 13.8687,-9.1185 3.138,-1.2973 3.5013,-1.939 2.3333,-4.1214 -0.7608,-1.4216 -1.3833,-5.9596 -1.3833,-10.0845 0,-4.7046 0.1056,-5.0046 -1.588,-5.5756 -4.3122,-0.2064 -6.5516,-2.0407 -9.8623,-7.2852 -2.6812,-4.2473 -3.2703,-6.6893 -2.95,-12.2277 0.3541,-6.1239 0.7633,-6.9718 3.554,-7.3666 6.6195,-1.9944 6.4198,-0.6603 8.5703,-1.2205 0.3813,-2.0167 1.0844,-4.8829 1.5624,-6.3693 0.7462,-2.3206 0,-2.9338 -5.2432,-4.3375 -4.6603,-1.2464 -6.4563,-2.5049 -7.5604,-5.2973 -0.7587,-11.5337 -4.038,-27.3611 4.8253,-29.4559 3.4082,-2.0899 5.8441,-1.5962 5.5073,-5.2957 -0.4369,-3.1883 -0.5207,-6.2724 -1.9931,-8.1443 -2.6008,-7.1963 -1.2135,-11.7718 1.1752,-13.2616 -0.666,-1.2848 -12.3133,-3.5141 -17.9019,-5.8446 -3.8618,-1.5939 -4.5543,-2.4244 -7.0261,-7.5679 -6.0851,-12.6619 -6.7483,-23.4929 -2.117,-34.5772 2.3328,-5.583 3.9139,-6.9724 13.7116,-12.0491 14.9588,-7.751 23.5814,-8.9134 43.8086,-11.7447 30.6866,-3.9462 47.9659,4.1389 53.884,13.0132 4.5604,6.8706 3.7096,14.1403 3.8802,26.51 0.087,6.2895 0.6935,6.8495 10.7052,9.8835 8.022,2.431 15.722,9.5798 15.722,14.5966 0.7632,12.2508 -0.8601,16.3542 -0.6477,27.1231 0.7488,4.2068 -2.3271,8.8904 -6.7633,10.2984 -3.1287,0.993 -6.5839,6.1177 -5.0318,7.4628 0.6103,0.5288 4.7095,1.7711 9.1095,2.7607 13.8801,3.1215 16.9653,7.7502 11.3284,16.9957 -1.6707,2.7402 -2.6617,6.7163 -2.6617,10.6793 0,6.9019 -5.1271,9.5122 -10.1564,8.7215 2.0775,2.6296 0.7131,10.8533 0.01,14.0038 6.9156,0.2494 8.0108,5.5874 6.4658,9.8601 -0.9067,2.5075 -1.6486,6.0619 -1.6486,7.8986 0,3.3501 -4.8605,9.1378 -7.6738,9.1378 -2.9202,0 2.3051,3.8084 5.0003,8.8147 0.8314,7.1619 1.3058,16.6135 0.5829,19.7386 -0.7786,3.1019 -0.4839,3.4487 2.9461,3.4668 6.028,0.032 13.7833,3.2704 17.1144,7.147 4.7005,5.4704 5.7752,18.8252 2.0955,26.0382 -1.6318,3.1984 -3.7419,5.4664 -5.0924,5.4736 -1.2684,0.01 -5.3063,1.4879 -8.973,3.2916 -3.6666,1.8037 -8.9166,3.2982 -11.6666,3.3211 -5.5448,0.1578 -6.2586,-0.3164 -3.0224,2.8089 1.877,1.8771 1.3193,17.2832 -0.619,23.1549 -2.2963,9.8187 -58.4316,13.3625 -87.7257,11.1851 z m 66.365,-13.1069 c 0,-0.7333 -0.2646,-1.3333 -0.588,-1.3333 -0.3234,0 -0.9588,0.6 -1.412,1.3333 -0.4532,0.7333 -0.1887,1.3333 0.588,1.3333 0.7765,0 1.412,-0.6 1.412,-1.3333 z m -74.4667,-5.3333 c 0.1093,-2.2 0.26,-4.7418 0.3333,-5.6484 0.073,-0.9067 -0.9166,-1.8507 -2.2,-2.0978 -1.9006,-0.366 -2.3333,0.5164 -2.3333,4.7595 0,2.8649 0.4,5.6089 0.8889,6.0978 1.8866,1.8866 3.1191,0.7285 3.3111,-3.1111 z m 34.7747,0.6666 c 0.1972,-0.7333 -1.2914,-1.5232 -3.308,-1.7552 -2.9075,-0.3345 -3.6667,0.1247 -3.6667,2.218 0,2.1594 0.6021,2.4789 3.308,1.7553 1.8193,-0.4866 3.4693,-1.4847 3.6667,-2.2181 z m 49.0253,0.6667 c 0,-0.7333 -0.2645,-1.3333 -0.588,-1.3333 -0.3233,0 -0.9588,0.6 -1.412,1.3333 -0.4532,0.7333 -0.1887,1.3333 0.588,1.3333 0.7765,0 1.412,-0.6 1.412,-1.3333 z m -30,-2.6667 c 0.4673,-0.7562 -0.6528,-1.3333 -2.588,-1.3333 -1.8765,0 -3.412,0.6 -3.412,1.3333 0,0.7334 1.1645,1.3334 2.588,1.3334 1.4233,0 2.9588,-0.6 3.412,-1.3334 z m 35.3333,-4.7453 c 0,-2.2001 -2.1072,-2.5718 -3.3333,-0.588 -1.0873,1.7594 0.5069,4.2561 2.0921,3.2764 0.6827,-0.4219 1.2412,-1.6317 1.2412,-2.6884 z m -19.1074,-7.7028 c 0.3094,-0.3095 -2.9147,-0.9662 -7.165,-1.4594 -13.6392,-1.5828 -23.5924,-3.7403 -28.978,-6.2816 -2.8877,-1.3627 -6.2177,-2.4775 -7.4,-2.4775 -1.1822,0 -2.7489,-0.5994 -3.4814,-1.3319 -0.8871,-0.887 -3.7599,-0.3833 -8.6,1.5078 -3.9975,1.5619 -8.652,3.3638 -10.3434,4.0042 -1.6913,0.6405 -2.683,1.799 -2.2037,2.5745 1.7816,2.8827 8.3725,4.2827 23.9456,5.0864 14.6501,0.756 42.8832,-0.2798 44.2259,-1.6225 z m -5.4166,-14.9943 c -0.4452,-1.1599 -0.8093,-2.6979 -0.8093,-3.4178 0,-0.7198 -1.95,-1.1207 -4.3333,-0.8909 -3.3212,0.3202 -4.4328,1.1185 -4.7595,3.4178 -0.3835,2.7003 0.1307,3 5.1427,3 4.5302,0 5.4178,-0.3933 4.7594,-2.1091 z m 26.9502,-4.2379 c 0.3229,-2.2637 -0.2382,-2.9863 -2.3184,-2.9863 -2.1211,0 -2.6811,0.7665 -2.4652,3.3744 0.3494,4.2224 4.17,3.9124 4.7836,-0.3881 z m -49.0928,0.347 c 0,-1.1 -0.8079,-2 -1.7952,-2 -2.3076,0 -9.9131,-3.7825 -10.9371,-5.4395 -1.2412,-2.0083 -3.2401,-0.04 -2.3404,2.3047 0.7999,2.0844 10.1659,7.0486 13.406,7.1055 0.9167,0.016 1.6667,-0.8707 1.6667,-1.9707 z m 75.75,-5.9167 c 0.3333,-1 -0.1667,-1.5 -1.1667,-1.1666 -0.9625,0.3208 -2.0125,1.3708 -2.3333,2.3333 -0.3334,1 0.1666,1.5 1.1666,1.1667 0.9626,-0.3209 2.0126,-1.3709 2.3334,-2.3334 z m -45.75,-6.8616 c 7.3333,-0.7424 17.5333,-1.6677 22.6666,-2.0562 12.9704,-0.9816 20.1166,-2.9156 18.1266,-4.9057 -2.0815,-2.0814 -18.9494,-1.9656 -28.1266,0.1932 -10.9745,2.5815 -30.9722,5.5155 -32.2425,4.7305 -0.6131,-0.379 -2.3885,-0.2846 -3.9456,0.2095 -2.2252,0.7063 -2.4367,1.1482 -0.988,2.0657 2.3581,1.4935 7.9496,1.4395 24.5095,-0.237 z m -46,-18.031 c 0,-3.4141 -0.5724,-4.5276 -2.3334,-4.5387 -1.2833,-0.01 -4.5833,-0.3866 -7.3333,-0.8411 -4.6373,-0.7665 -5,-0.5905 -5,2.4265 0,4.5882 2.6707,7.521 7.3333,8.0533 6.0859,0.6948 7.3334,-0.1728 7.3334,-5.1 z m 17.7388,0.5015 c 0.8438,-6.2908 0.5549,-7.1098 -1.96,-5.5555 -0.9526,0.5887 -2.7922,1.1485 -4.088,1.244 -3.3676,0.2481 -4.3047,1.6064 -2.5591,3.7098 0.8315,1.0018 1.1569,2.1764 0.7232,2.6101 -1.4657,1.4657 0.9492,3.6327 4.0481,3.6327 2.6123,0 3.1939,-0.8554 3.8358,-5.6411 z m 17.7801,2.3048 c 0.4228,-1.1016 0.3861,-3.5273 -0.081,-5.3904 -1.9143,-7.6275 -9.5111,-4.6417 -7.9572,3.1275 0.6761,3.3808 1.5189,4.2659 4.0617,4.2659 1.7647,0 3.5544,-0.9013 3.9771,-2.003 z m 14.1965,-3.9604 c -0.4838,-6.5636 -1.3114,-7.68 -4.4484,-6.0011 -2.3516,1.2585 -2.5064,1.8045 -1.0198,3.5956 0.964,1.1616 1.556,3.2727 1.3156,4.6915 -0.3216,1.8987 0.2062,2.4467 2.0001,2.0762 1.7712,-0.3658 2.3593,-1.5575 2.1525,-4.3622 z m -83.6593,-3.4608 c 0.4841,-0.7834 1.5696,-1.1657 2.4121,-0.8497 6.535,2.4514 7.5318,2.4302 7.5318,-0.1603 0,-2.602 -2.3994,-4.2325 -6.2287,-4.2325 -1.1059,0 -3.1368,-1.35 -4.5132,-3 l -2.5028,-3 -0.044,6.3334 c -0.043,5.9822 1.3864,8.0783 3.3451,4.9091 z m 40.0529,-10.5758 c 1.04,0 1.891,-0.6 1.891,-1.3333 0,-0.7334 -1.65,-1.3421 -3.6667,-1.3528 -4.8396,-0.026 -15.0191,-3.6158 -18.1948,-6.4171 -3.0596,-2.0601 -6.0447,-2.4052 -11.2596,-0.2322 -4.6528,1.821 -7.6237,3.8104 -6.096,5.2405 0.6693,0.6266 4.8171,1.5285 9.2171,2.0042 4.4,0.4757 11.3,1.3638 15.3333,1.9736 4.0333,0.6097 8.1324,0.8855 9.1091,0.6128 0.9766,-0.2726 2.6266,-0.4957 3.6666,-0.4957 z m 6.8908,-2.1113 c -1.2706,-1.2706 -3.818,0.7875 -2.871,2.3196 0.5628,0.9107 1.3085,0.8877 2.2661,-0.07 0.7851,-0.785 1.0572,-1.7974 0.6049,-2.2497 z m 25.0002,-0.5554 c 2.5709,-1.1048 2.5618,-1.1492 -0.2547,-1.2396 -1.6067,-0.052 -3.2921,0.5063 -3.7453,1.2396 -0.9747,1.5771 0.33,1.5771 4,0 z m 12.3416,-2.3333 c 0.795,-2.4211 -4.3522,-2.0638 -6.4358,0.4467 -1.5402,1.856 -1.2884,2.059 2.0674,1.6667 2.1016,-0.2457 4.0674,-1.1967 4.3684,-2.1134 z m 12.6985,-3.049 c -0.9623,-3.68 -4.3735,-3.2951 -4.3735,0.4934 0,1.7112 0.3948,3.5059 0.8774,3.9885 1.572,1.572 4.1988,-1.7953 3.4961,-4.4819 z m -37.0245,-6.3047 c 0.7418,-0.5388 1.3848,-2.7796 1.4286,-4.9796 0.044,-2.2 0.5511,-5.05 1.1271,-6.3334 1.0279,-2.29 0.1187,-2.5442 -8.238,-2.3046 -0.55,0.016 -1,2.0648 -1,4.5534 0,2.4886 -0.45,4.9757 -1,5.5269 -0.55,0.5512 -1,1.8021 -1,2.7799 0,1.9 6.3464,2.4536 8.6823,0.7574 z m -18.1954,-7.7304 0.171,-7.4175 -4.329,0.4175 c -4.177,0.4028 -4.3245,0.6207 -4.2045,6.2096 0.1253,5.8283 1.8343,8.1477 6.0336,8.1874 1.712,0.016 2.1932,-1.5125 2.3289,-7.397 z m 38.0692,1.1798 c 1.942,-5.6995 2.4874,-6.06 6.7279,-4.4478 2.2792,0.8666 3.3867,2.0852 2.9439,3.2392 -0.4108,1.0706 0.3189,2.1192 1.7317,2.4887 2.8545,0.7465 9.338,-0.3038 9.4524,-1.5312 0.044,-0.4645 0.2483,-2.9446 0.4553,-5.5113 0.2072,-2.5666 0.8347,-6.0876 1.3946,-7.8244 -7.0648,2.1202 -17.3222,3.4182 -21.5582,3.9897 -10.8052,1.556 -14.3366,3.1284 -11.2752,5.0205 0.9564,0.5911 1.7936,2.9971 1.8604,5.3466 0.1067,3.7549 0.527,4.2232 3.4727,3.8698 2.4049,-0.2886 3.7589,-1.5988 4.7952,-4.6398 z m -57.6294,-4.4396 c -0.7032,-8.0519 -9.5934,-13.0427 -9.5934,-5.3855 0,6.4616 2.3704,10.1936 6.4231,10.1129 3.2641,-0.065 3.5413,-0.4784 3.1703,-4.7274 z m 37.3622,-17.5672 c -2.0366,-2.0367 -3.5396,-0.5339 -2.41,2.4099 0.6671,1.7381 1.2454,1.9103 2.4315,0.7242 1.1861,-1.1862 1.1811,-1.9316 -0.021,-3.1341 z m 10.3778,1.5778 c 0,-1.4667 -0.6,-2.6667 -1.3334,-2.6667 -0.7333,0 -1.3333,1.2 -1.3333,2.6667 0,1.4666 0.6,2.6666 1.3333,2.6666 0.7334,0 1.3334,-1.2 1.3334,-2.6666 z m -25.0198,-4.0518 c -0.5013,-6.5542 -1.2529,-8.0157 -3.649,-7.0963 -1.5967,0.6127 -1.9546,2.1323 -1.4864,6.3109 0.339,3.0271 0.6626,5.6978 0.7192,5.9349 0.056,0.2371 1.1526,0.2139 2.436,-0.052 1.769,-0.366 2.248,-1.5989 1.9802,-5.0977 z m -16.5664,-0.9482 c -0.3588,-4.3341 -0.8578,-5 -3.7472,-5 -2.7673,0 -3.4028,0.7166 -3.7428,4.2209 -0.3069,3.1644 0.1938,4.3772 2,4.8453 5.426,1.4062 5.9131,1.0454 5.49,-4.0662 z m 67.033,2.9299 c 1.9362,-1.1967 1.4156,-8.1076 -0.746,-9.9016 -1.3723,-1.1389 -4.4062,-1.3482 -10.0498,-0.6932 -6.7218,0.7802 -7.8229,1.2528 -6.5349,2.8049 0.9083,1.0943 1.2027,3.599 0.7117,6.0537 l -0.8373,4.1871 8.1181,-0.8485 c 4.4651,-0.4667 8.6672,-1.1878 9.3382,-1.6024 z m -86.4672,-3.8019 c 3.6801,-8.5577 -3.049,-3.7193 -6.3508,-6.0144 -3.6648,-0.155 -6.1244,-1.5542 -3.3774,5.6712 1.179,3.1005 1.8931,3.4826 5.0606,2.7073 2.0284,-0.4965 4.1288,-1.5603 4.6676,-2.3641 z m 12.7722,-20.4814 c 0.3048,-3.1553 -0.2166,-4.5753 -1.9201,-5.229 -1.3453,-0.5163 -2.5612,-0.2292 -2.8629,0.6758 -1.2815,0.4307 -4.8829,-1.0611 -5.79,1.2995 0.8425,0.2808 1.1456,1.8401 0.7014,3.6093 -0.629,2.5065 -0.1729,3.2333 2.3356,3.7214 5.771,1.1227 7.1032,0.402 7.536,-4.077 z m 20.7135,2.6791 c 0.3425,-0.5542 0.308,-2.6542 -0.076,-4.6667 -0.5957,-3.1158 -1.3576,-3.659 -5.1321,-3.659 -4.5279,0 -7.0479,1.8141 -4.6116,3.3199 0.7453,0.4606 1.355,2.002 1.355,3.4254 0,1.9751 0.9287,2.588 3.9214,2.588 2.1566,0 4.2014,-0.4534 4.544,-1.0076 z m 15.2859,-4.0951 c 0.3024,-3.0623 -0.1362,-4.2306 -1.588,-4.2306 -2.4444,0 -4.0072,2.1936 -2.3102,3.2425 0.6764,0.4181 0.8952,2.0399 0.4863,3.604 -0.5351,2.0461 -0.2195,2.6715 1.1252,2.2293 1.0279,-0.338 2.0568,-2.5183 2.2867,-4.8452 z m 47.9154,0.2842 c 4.7446,-5.2668 4.0104,-7.7082 -2,-6.6508 -2.75,0.4839 -9.0798,1.2519 -14.0662,1.7068 -7.111,0.6487 -8.9083,1.239 -8.3334,2.7372 0.4031,1.0505 0.733,3.1315 0.733,4.6243 0,2.5742 0.5334,2.6678 10.3333,1.8135 8.6901,-0.7575 10.8104,-1.4303 13.3333,-4.231 z m -33.0937,-5.5148 c 0.1333,-2.3656 -3.8337,-2.0739 -4.764,0.3503 -0.4256,1.1093 0.015,2.9675 0.9791,4.1292 1.585,1.91 1.8458,1.8764 2.7221,-0.3503 0.5331,-1.3544 1.0113,-3.2126 1.0628,-4.1292 z m -64.1705,-17.4441 c 0.3032,-1.9049 -0.6419,-2.7372 -3.8334,-3.3755 -7.905,-1.581 -9.0988,-1.1882 -8.57,2.8196 0.2662,2.0166 0.5252,5.0506 0.5758,6.7422 l 0.092,3.0756 c 3.7229,2.2695 5.4664,0.9905 8.2012,1.4912 3.1167,-1.8517 3.3132,-9.3625 3.5345,-10.7531 z m 35.1845,3.6777 c 1.3081,-6.0426 0.4025,-8.1788 -3.2476,-7.6605 -2.6423,0.3752 -2.9492,1.0723 -2.5367,5.7602 0.2582,2.9333 0.7631,5.815 1.1222,6.4037 1.3406,2.198 3.7058,-0.087 4.6621,-4.5034 z m -16.8445,2.7664 c 1.3753,0 1.6444,-1.1252 1.0366,-4.3334 -1.019,-5.3787 -2.746,-7.6666 -5.7869,-7.6666 -1.488,0 -2.5983,1.3093 -3.0313,3.575 -0.8759,4.5816 1.5684,10.0964 4.0524,9.1432 1.0293,-0.395 2.7074,-0.7182 3.7292,-0.7182 z m 42.7189,0.3129 c 2.0112,-1.3481 3.2701,-7.1102 2.3349,-10.6865 -0.6022,-2.3032 -1.75,-2.9598 -5.174,-2.9598 -5.1284,0 -6.3297,2.1181 -3.5936,6.3357 1.0714,1.6513 1.6343,4.2013 1.2511,5.6667 -0.7216,2.7594 2.1557,3.6722 5.1816,1.6439 z m 17.3712,-5.3333 c 0.8245,-0.5388 1.9221,-2.9296 2.4392,-5.313 0.8981,-4.1399 0.7604,-4.3333 -3.0871,-4.3333 -5.1356,0 -6.1568,1.7284 -3.9572,6.6978 1.8724,4.2301 2.262,4.4795 4.6051,2.9485 z m -50.4119,-22.1973 c 0.3558,-4.2376 0.047,-4.9401 -2,-4.5499 -2.5108,0.4788 -3.8713,5.1346 -2.5254,8.6421 1.3622,3.5498 4.0912,1.0821 4.5254,-4.0922 z m 13.5794,1.9934 c 0,-1.4067 0.3641,-3.5066 0.8093,-4.6666 0.5311,-1.384 0.072,-2.109 -1.3333,-2.109 -1.1786,0 -2.1508,0.75 -2.161,1.6666 -0.013,0.9167 -0.3798,3.0166 -0.8221,4.6666 -0.5911,2.2055 -0.2331,3 1.3516,3 1.236,0 2.1555,-1.0911 2.1555,-2.5576 z m -28.8334,-1.794 c -0.092,-1.2732 -0.2416,-2.915 -0.3333,-3.6483 -0.2015,-1.6119 -8.1255,-1.7413 -10.5989,-0.1731 -1.312,0.8319 -0.6271,1.853 2.6666,3.9758 5.0803,3.2742 8.5079,3.2102 8.2656,-0.1544 z m 68.0576,0.8756 c 2.7587,-1.0586 2.9534,-9.8572 0.2182,-9.8572 -4.4127,0 -6.1091,1.7057 -6.1091,6.1426 0,4.5866 1.3691,5.4498 5.8909,3.7146 z m -41.2636,-16.4909 c 16.155,-0.7397 33.4658,-2.2274 38.4683,-3.306 18.0663,-3.8952 23.8291,-11.4786 12.5711,-16.5427 -9.3303,-4.1971 -13.18,-4.5349 -17.6667,-1.5503 -10.0732,6.7008 -12.5795,7.6749 -27.5572,10.7105 -7.5768,1.5356 -21.1261,3.1525 -30.1095,3.5931 -15.6522,0.7676 -16.3333,0.9222 -16.3333,3.7095 0,1.5996 0.2529,3.1585 0.5623,3.464 1.2401,1.2255 12.0573,1.2044 40.065,-0.078 z m -34.1912,-20.4872 c 0.8623,-4.4779 -1.0186,-8.8792 -3.7949,-8.8792 -2.1733,0 -2.6412,0.9053 -2.6412,5.1111 0,2.8111 0.4208,5.5319 0.9349,6.0461 1.6354,1.6353 5.0172,0.2348 5.5012,-2.278 z m 19.6132,-4.5458 c 1.4396,-6.4236 1.3722,-7 -0.8201,-7 -5.2333,0 -8.9849,2.5191 -9.8903,6.6413 -1.1318,5.1532 1.219,8.3052 5.7872,7.7594 2.8646,-0.3422 3.5835,-1.423 4.9232,-7.4007 z m -35.744,0.3144 c -0.5248,-8.0461 -2.8682,-8.2642 -3.3784,-0.3144 -0.3229,5.0332 0.023,6.3333 1.6824,6.3333 1.6455,0 2.0054,-1.277 1.696,-6.0189 z m 52.0978,-3.071 c 0.4249,-7.286 0.013,-7.6982 -6.1235,-6.0557 -2.7932,0.7483 -2.9996,1.4007 -2.4195,7.6485 0.349,3.7567 0.6731,6.9285 0.7204,7.0484 0.047,0.1199 1.7362,-0.2205 3.7528,-0.7565 3.327,-0.8842 3.704,-1.6148 4.0698,-7.8847 z m -64.773,-0.3756 c -0.6252,-7.6637 -1.6,-10.5345 -3.5768,-10.5345 -2.9364,0 -3.4032,1.803 -1.9306,7.4585 2.1346,8.1985 2.4433,8.7986 4.2113,8.1869 0.9999,-0.3459 1.5181,-2.3895 1.2961,-5.1109 z m 82.5652,2.0312 c 3.2382,-1.6746 3.8878,-2.6895 3.2002,-5 -0.4744,-1.5945 -1.0186,-3.6551 -1.2092,-4.5792 -1.2918,-6.2623 -9.2762,-3.4495 -9.947,3.5042 -0.8026,8.3217 0.9796,9.6826 7.956,6.075 z m -43.5286,-15.8839 c 20.3025,-1.4917 46.3156,-8.1777 48.4849,-12.4617 2.0803,-0.9317 1.9402,-3.936 -0.076,-6.6476 -13.5836,-14.7036 -46.8086,-8.6374 -63.9595,-5.737 -7.0763,1.1859 -20.3473,5.0494 -23.9873,11.9147 -4.8343,4.9331 2.5691,12.3037 13.3199,13.261 12.472,0.527 18.1376,0.7097 26.218,-0.3294 z" fill="#00B894" transform="translate(65.897386,-158.74996) matrix(0.26458333,0,0,0.26458333,-836.33036,-110.32152)"/>
</svg>