<?xml version="1.0" ?><svg height="189.5466mm" viewBox="0 0 59.808945 189.5466" width="59.808945mm" xmlns="http://www.w3.org/2000/svg">
    <path d="m 19.1133,151.16948 c -5.367,-5.24717 -8.7173,-14.06763 -7.6018,-20.01342 1.7456,-9.30607 13.5121,-13.32152 18.9135,-6.45459 4.8295,6.13922 3.2136,12.14379 -4.5818,17.02855 -2.1587,1.35261 -2.2308,1.74173 -0.5377,2.9032 2.4018,1.64737 6.3555,0.6058 9.6316,-2.53728 2.8603,-2.74391 4.1635,-12.52328 2.8429,-21.33008 l -0.8787,-5.86013 -7.0169,-1.45663 C 11.8832,109.712 0.7478,93.84085 2.0987,73.84628 2.8252,63.0967 5.9216,57.25689 17.1007,45.55184 l 9.4419,-9.8866 -1.2847,-7.7111 C 24.5514,23.71303 23.6202,13.20393 23.189,4.60062 c -0.6984,-13.93176 -0.4822,-16.43579 1.9735,-22.89744 3.3636,-8.84921 8.7484,-14.27137 15.3707,-15.47681 26.4751,-4.81928 28.5325,34.46485 3.5018,66.85547 l -5.8921,7.62468 0.9049,9.65636 0.9045,9.65636 5.1813,0.82847 c 10.1004,1.61514 16.6776,10.39677 16.6635,22.24892 0,9.36955 -2.0744,15.04641 -7.8579,21.61692 l -5.2277,5.93873 0.7589,14.10616 c 0.7076,13.14875 0.5536,14.45739 -2.272,19.28169 -6.7409,11.50991 -20.1289,14.90832 -28.0851,7.12935 z M 35.0154,98.78092 c -1.416,-10.47116 -1.8065,-11.40594 -4.7622,-11.40594 -4.9979,0 -8.8582,-4.97136 -8.8582,-11.40752 0,-4.68352 0.7453,-6.48441 4.0535,-9.79241 3.899,-3.89917 4.0077,-4.30463 2.8556,-10.65388 l -1.1983,-6.6004 -6.0485,6.30229 c -7.6602,7.98154 -10.7134,15.62099 -9.6914,24.25053 1.3369,11.28562 6.4911,18.97026 15.282,22.78323 7.8993,3.42627 9.2266,2.87505 8.3675,-3.4759 z m 14.7673,-5.42394 c 5.1054,-11.20558 1.7145,-24.23147 -6.3086,-24.23147 -1.0963,0 -1.3014,1.63558 -0.6943,5.54004 3.5587,22.88628 4.2504,24.73226 7.0029,18.69143 z M 32.6602,82.48672 c -0.3548,-1.25462 -1.0321,-4.21561 -1.5087,-6.57993 -0.708,-3.51296 -1.2024,-4.01996 -2.7044,-2.77336 -2.1698,1.8009 -2.373,5.5918 -0.4885,9.11311 1.7193,3.21282 5.5943,3.41076 4.7016,0.24018 z M 43.6529,13.72537 c 9.9501,-20.96315 9.3031,-40.442 -1.2555,-37.79195 -4.9725,1.24805 -6.2879,2.74798 -8.6531,9.86883 -1.8571,5.59132 -1.9399,8.31229 -0.6426,21.0821 0.8196,8.0642 1.8213,15.79839 2.2263,17.18707 0.7283,2.49748 0.7575,2.49748 2.6745,0 1.066,-1.38868 3.6086,-6.04441 5.6504,-10.34605 z" fill="#00B894" transform="translate(-1.9881776,34.177329)"/>
</svg>