<?xml version="1.0" ?><svg height="76.518143mm" viewBox="0 0 139.33546 76.518143" width="139.33546mm" xmlns="http://www.w3.org/2000/svg"><g color="#000"><path d="m 6721.2852,3181.9796 c 67.5223,5.6144 31.8593,15.3848 88.3725,13.2381 56.5132,-2.1466 43.8528,-13.5406 88.4395,-17.9991 44.5867,-4.4585 42.2013,19.4854 98.8981,15.6874 56.6968,-3.7981 50.2746,-25.7602 99.4486,-11.394 49.1739,14.3663 119.0815,-6.2749 119.0815,-6.2749 0,0 -118.7213,34.9317 -161.2829,-89.17 -40.2492,-117.3593 -126.1739,-134.3148 -202.4699,-161.9537 -32.5036,-22.2913 -42.285,-5.3119 -42.2984,18.291 -41.5079,-3.6101 -43.8009,23.0411 11.1925,25.2649 3.5709,10.7922 2.5835,19.1115 -17.6145,17.0083 -89.1835,8.489 -52.56,64.1938 -11.9265,33.6864 22.4534,-7.6511 4.318,11.9841 1.2844,21.4669 -36.7834,55.4866 11.7945,58.8303 14.4953,25.4299 28.6988,-27.6016 35.4744,-3.3353 47.771,28.4994 -5.1855,57.2556 27.9761,51.8193 -133.3912,88.2194 z" fill="#FFFFFF" overflow="visible" paint-order="fill markers stroke" transform="translate(114.13407,19.676129) matrix(0.26458333,0,0,0.26458333,-1886.9473,-788.63949)"/><path d="m 6815.8463,2909.2623 c -5.1284,3.1694 -8.8555,10.7992 -8.8555,18.1308 0,4.6272 7e-4,4.6276 -9.666,4.4297 -11.3145,-0.2317 -14.3209,0.4158 -19.6973,4.2441 -7.2825,5.1857 -8.6795,11.6755 -4.625,21.4786 4.0603,9.8168 18.3265,18.9621 22.7227,14.5664 0.7999,-0.7998 3.4765,-0.7774 7.2656,0.06 14.0383,3.1042 16,3.9131 16,6.5918 0,2.1917 -0.9252,2.6152 -5.7187,2.6152 -3.146,0 -9.0448,-0.8656 -13.1075,-1.9238 -12.3116,-3.2067 -26.0413,-2.949 -33.8398,0.6367 -14.3356,6.5915 -22.6077,16.6449 -24.3438,29.5879 -0.8876,6.6176 2.7366,16.0772 7.0411,18.3809 1.8165,0.9722 3.3027,2.1903 3.3027,2.7071 0,0.5167 3.7506,0.8567 8.334,0.7539 6.8374,-0.1533 10.4758,-1.212 20.2676,-5.8965 7.1679,-3.4292 13.3687,-5.5495 15.5293,-5.3106 3.4781,0.3848 3.2678,0.7506 -6.3887,11.0645 -20.1364,21.5072 -19.7422,20.8299 -19.7422,33.8808 0,13.4876 2.4635,18.7396 11.666,24.875 8.2433,5.4959 16.8777,5.1791 23.0957,-0.8476 5.3295,-5.1656 7.827,-11.7632 7.375,-19.4805 -0.4938,-8.4316 2.842,-11.0957 13.8965,-11.0957 8.2623,0 8.7687,0.1841 10.0918,3.6641 0.7662,2.0153 2.1562,4.5666 3.0879,5.668 0.9317,1.1013 3.14,5.9013 4.9062,10.6679 2.7069,7.3053 3.2102,11.0753 3.2032,24 0,8.4334 -0.5437,16.5334 -1.1993,18 -0.6555,1.4667 -1.3424,3.3725 -1.5253,4.2344 -0.8927,4.2045 -9.1043,18.9366 -12.6993,22.7832 -13.7709,12.7447 -38.2917,14.6905 -57.8984,16.918 -11.0229,1.199 -27.8767,3.5771 -28.6289,4.039 -0.3874,0.2379 -4.0038,0.8506 -8.0371,1.3613 -4.0334,0.5108 -8.234,1.3908 -9.334,1.9551 -1.1,0.5643 -4.1919,1.4212 -6.8711,1.9043 -5.0381,0.9085 -6.9624,3.2824 -5.5801,6.8848 0.6804,1.773 2.945,1.9715 15.3633,1.3418 8.0116,-0.4063 15.5885,-1.2855 16.8359,-1.9531 1.2475,-0.6676 6.7641,-1.2802 12.2598,-1.3614 17.69,-0.2614 52.8788,-5.3724 66.5059,-9.6601 9.1675,-2.8845 10.2401,-3.5259 16.9082,-10.1055 16.6626,-20.3761 21.0217,-47.7028 16.166,-73.1074 -4.4202,-20.7038 -15.1672,-34.793 -29.7422,-38.9883 -18.5634,-4.1958 -26.6751,2.9121 -29.2402,18.3203 -2.4297,15.1745 -8.2524,21.0205 -14.8321,14.8907 -3.1999,-2.9813 -5.1209,-14.231 -3.2382,-18.9688 0.6893,-1.7346 4.4513,-7.1962 8.3593,-12.1367 3.9081,-4.9405 8.1844,-10.4912 9.502,-12.334 1.3175,-1.8428 3.1175,-3.3582 4,-3.3672 2.7836,-0.029 7.6035,-9.0117 7.6035,-14.1699 0,-3.9697 -0.9761,-5.7931 -5.1816,-9.6856 -5.0003,-4.6281 -5.4533,-4.7691 -13,-4.0742 -5.3622,0.4937 -10.9608,2.3103 -17.8184,5.7832 -13.5263,6.8501 -17.9205,7.8647 -20.711,4.7812 -2.0167,-2.2285 -1.9841,-2.8341 0.4297,-8.291 3.1649,-7.1547 10.7219,-13.7483 19.6387,-17.1348 7.9387,-3.0149 13.7806,-3.1619 22.3477,-0.5625 9.8349,2.9842 23.5208,3.0508 27.9609,0.1368 4.519,-2.9658 4.9136,-9.0956 1.0703,-16.6289 -3.2984,-6.4656 -12.5713,-10.1493 -29.4023,-11.6817 -7.8042,-0.7105 -10.825,-2.3188 -13.6719,-7.2793 -4.8394,-8.4322 -3.0228,-9.4423 16.0332,-8.9121 14.6785,0.4084 16.7099,-0.3881 19.793,-7.7637 1.336,-3.1961 1.3925,-5.0892 0.2422,-8.1367 -0.8245,-2.1843 -1.1199,-4.9598 -0.6563,-6.1679 1.0624,-2.7684 7.991,-2.9297 10.2246,-0.2383 0.8936,1.0766 4.4172,3.5204 7.8301,5.4316 6.0506,3.3883 6.453,3.435 16.2109,1.8555 10.0075,-1.6199 10.0092,-1.6191 17.9551,2.6211 4.3703,2.3321 8.9143,5.1166 10.0977,6.1875 1.1833,1.0709 3.1057,1.9472 4.2734,1.9472 6.5832,0 35.602,8.21 39.4649,11.1661 0.9881,0.7562 2.9701,1.5545 4.4043,1.7734 11.377,1.7363 39.7835,27.1555 70.4648,63.0547 7.3963,6.0904 10.2208,14.8532 16.1562,21.6934 15.8017,26.0482 33.2942,54.8604 46.4747,78.543 1.5953,3.0607 6.4574,10.5674 10.8027,16.6816 4.3453,6.1142 7.9004,11.4892 7.9004,11.9434 0,0.4542 4.05,4.8185 9,9.6992 27.9829,25.6531 68.252,22.9042 98.6797,23.6992 29.9382,0.7403 32.5448,0.6203 35,-1.6016 5.592,-5.0607 2.0998,-10.6447 -7.3711,-11.7851 -3.6533,-0.4399 -13.5433,-1.1238 -21.9766,-1.5215 -40.3282,-1.9017 -69.0757,-5.9286 -80.5117,-11.2754 -8.9781,-4.1976 -23.5442,-17.868 -28.1524,-26.4238 -1.4751,-2.7389 -5.4869,-8.8989 -8.916,-13.6875 -3.429,-4.7886 -7.7925,-11.6873 -9.6972,-15.3321 -14.0653,-24.4308 -29.5107,-52.6433 -45.0547,-75.6172 -13.5199,-19.7848 -56.1003,-64.3323 -70.334,-73.584 -12.2468,-7.9601 -27.6058,-13.721 -44.666,-16.7519 -5.1334,-0.912 -11.2532,-2.54 -13.5996,-3.6192 -2.3465,-1.0791 -4.8091,-1.6269 -5.4727,-1.2168 -3.0634,-2.0798 -9.7528,-5.6082 -12.4258,-7.9863 -2.9014,-2.6257 -18.0153,-4.07 -23.3808,-2.2344 -4.4466,1.5213 -10.4151,-0.4874 -14.3399,-4.8242 -6.8292,-6.1659 -14.0973,-7.9844 -22.5937,-2.9096 z m 86.3633,51.996 c -2.3395,0.069 -4.8669,0.6286 -7.5508,1.6778 -3.6593,1.4304 -4.3561,3.5752 -3.7188,11.4433 0.3169,3.9113 -2.3245,3.8484 -8.2832,-0.1953 -8.6646,-6.2868 -27.5834,-7.5545 -29.5722,1.1719 -0.7092,3.7803 -1.4869,4.6895 -4.0059,4.6895 -1.7189,0 -4.5422,1.1469 -6.2734,2.5488 -2.4997,2.0241 -3.1465,3.8381 -3.1465,8.8125 0,5.5148 0.551,6.7242 4.6152,10.1172 2.539,2.1196 5.9557,3.8554 7.5918,3.8554 2.5265,0 2.9314,-0.6535 2.6856,-4.3339 -0.1592,-2.3834 -0.7402,-5.0487 -1.2891,-5.9219 -0.7257,-1.1544 0.1972,-1.3936 3.3809,-0.877 6.0886,0.9881 10.1648,-3.2825 7.8925,-8.2695 -2.4834,-5.4507 -1.9776,-6.3516 3.1016,-5.5273 5.9756,0.9697 19.1435,8.8279 20.1602,12.0312 0.4305,1.3565 2.6382,3.2476 4.9062,4.2012 3.8216,1.6068 4.3795,1.4755 7.6387,-1.7852 3.7379,-3.7397 6.1067,-11.5387 3.916,-12.8926 -0.7213,-0.4457 -0.9902,-1.327 -0.5996,-1.9589 0.3906,-0.632 0.099,-1.5258 -0.6465,-1.9864 -0.7453,-0.4606 -1.3535,-1.755 -1.3535,-2.8769 0,-6.0197 16.251,14.0782 23.9551,29.625 2.2062,4.4522 4.4202,8.5022 4.9179,9 1.187,1.187 1.5029,1.1545 4.5469,-0.4746 5.6301,-3.0132 0.614,-21.6528 -8.7441,-32.4942 -1.8392,-2.1307 -3.3438,-4.2881 -3.3438,-4.7949 0,-1.4284 -8.4186,-9.7578 -12.7656,-12.6289 -2.3112,-1.5265 -5.0077,-2.2455 -8.0156,-2.1563 z m -38.17,46.7872 c -0.3229,2.2 -0.1858,4 0.3028,4 1.2067,0 3.9724,6.2326 3.1367,7.0684 -0.367,0.3669 -4.0015,-0.5054 -8.0762,-1.9375 -9.6769,-3.4013 -13.8671,-2.4271 -18.2871,4.2519 -6.1533,9.2983 -4.2857,15.8197 5.5274,19.3086 12.4682,4.4329 20.3476,9.7008 20.3476,13.6016 0,1.6799 6.8838,15.1473 9.3906,18.373 0.5699,0.7334 2.3713,5.4756 4.0039,10.5371 2.5663,7.9562 2.8626,11.026 2.1895,22.666 -0.4282,7.4052 -1.6826,16.3185 -2.7871,19.8067 -2.441,7.7092 -8.2603,15.6582 -11.4649,15.6582 -2.4975,0 -4.2975,4.3341 -3.0976,7.4609 1.5204,3.9622 8.9992,1.6184 14.7109,-4.6113 3.192,-3.4815 9.5715,-16.0111 10.4492,-20.5215 0.2503,-1.2861 0.7854,-2.8735 1.1895,-3.5273 1.4185,-2.2953 1.0006,-31.0834 -0.4727,-32.5567 -0.7941,-0.7941 -1.4433,-3.0496 -1.4433,-5.0117 0,-5.7846 -6.1124,-17.9143 -11.9297,-23.6738 -3.0844,-3.0538 -5.4043,-6.6203 -5.4043,-8.3086 0,-3.7844 -6.7939,-9.8586 -16.0918,-14.3887 -4.2458,-2.0686 -7.4305,-4.5528 -7.6992,-6.0039 -0.7901,-4.2659 1.6352,-5.0141 7.332,-2.2617 18.2437,8.8144 31.6304,-10.3079 15.1621,-21.6583 -3.6383,-2.8461 -6.3909,-2.1387 -6.9883,1.7286 z m 42.5528,6.666 c -7.145,0 -8.7867,8.6033 -2.3653,12.3965 2.1462,1.2678 5.1951,4.3981 6.7754,6.9551 1.5803,2.557 3.2903,4.6484 3.8008,4.6484 2.1715,0 5.5215,-5.6707 5.5215,-9.3476 0,-4.9527 -9.0901,-14.6524 -13.7324,-14.6524 z m -197.5567,2.4629 c -2.9738,0.063 -5.4972,0.5297 -6.6757,1.5078 -2.694,2.2358 -2.5958,9.1996 0.1718,12.2578 2.5436,2.8107 10.9985,3.3015 15.5469,0.9024 5.5031,-2.9027 9.0502,-7.7147 7.6348,-10.3594 -1.4084,-2.6315 -10.1354,-4.4477 -16.6778,-4.3086 z m 185.8164,27.0176 c -1.8138,-0.077 -3.6403,0.4169 -5.7988,1.4004 -6.3846,2.909 -3.2691,14.8731 6.2227,23.9023 3.016,2.8691 5.9856,5.2168 6.5996,5.2168 0.6139,0 2.3165,-1.1993 3.7832,-2.666 1.4666,-1.4667 3.2025,-2.666 3.8574,-2.666 1.7513,0 2.8189,-3.5607 2.7324,-9.1094 -0.066,-4.2242 -1.0119,-5.6644 -6.9336,-10.5586 -4.4497,-3.6775 -7.4398,-5.3913 -10.4629,-5.5195 z m -144.5508,1.3047 c -7.8708,0.2745 -21.2171,7.8857 -26.0273,17.3144 -5.3086,10.4058 -2.363,27.6964 5.168,30.334 5.8821,2.0601 8.3159,1.23 12.8828,-4.3945 8.1956,-9.2477 24.853,-43.024 7.9765,-43.2539 z m 192.2852,7.1933 c -0.6553,4.0384 0.3808,6.7037 7.2637,18.6993 4.4148,7.6941 8.808,13.9902 9.7637,13.9902 3.444,0 5.6673,-5.6259 4.2168,-10.668 -0.7384,-2.5666 -1.6781,-4.9653 -2.0899,-5.332 -0.4117,-0.3667 -2.55,-4.116 -4.75,-8.3301 -4.7794,-5.2534 -11.8486,-23.4936 -14.4043,-8.3594 z m -29.9394,28.6895 c -3.734,0 -5.2598,3.2624 -2.8711,6.1406 1.2256,1.4768 1.7036,6.3553 1.5976,16.2969 -0.083,7.8042 0.1321,14.6485 0.4785,15.209 0.971,1.5711 3.6987,1.2138 6.5313,-0.8574 2.2172,-1.6213 2.5704,-3.5922 2.5879,-14.4239 0.024,-14.6199 -2.859,-22.3652 -8.3242,-22.3652 z m -2.7598,56 c -5.3782,0 -9.7795,3.818 -8.752,7.5937 0.4384,1.6108 1.7841,3.1437 2.9922,3.4063 1.2081,0.2626 3.6979,0.1055 5.5313,-0.3496 2.691,-0.6681 3.412,-1.775 3.7461,-5.7403 0.3912,-4.6435 0.2004,-4.9101 -3.5176,-4.9101 z" fill="#00B894" overflow="visible" style="isolation:auto;mix-blend-mode:normal;solid-color:#000;solid-opacity:1;marker:none" transform="translate(114.13407,19.676129) matrix(0.26458333,0,0,0.26458333,-1886.9473,-788.63949)"/></g></svg>