<?xml version="1.0" ?><svg height="125.76149mm" viewBox="0 0 96.307541 125.76149" width="96.307541mm" xmlns="http://www.w3.org/2000/svg">
    <path color="#000" d="m 1087.4512,645.20898 c -13.6494,0.19043 -27.5343,3.02603 -38.5,8.02344 -31.9004,14.53794 -42.0615,45.28261 -39.334,58.7832 -63.78015,10.19965 -79.67475,8.3306 -95.34376,53.06836 -10.47033,29.89464 47.26758,82.85547 47.26758,82.85547 0,0 -16.28019,2.46374 -10.10743,32.95313 12.82537,63.34897 74.50391,69.3125 74.50391,69.3125 0,0 23.421,24.43562 28.9863,56.50782 -5.656,2.3501 -18.0542,8.2074 -19.5468,15.0234 -1.5104,6.8972 9.7983,14.3804 19.9921,12.5469 -2.7702,30.4409 -12.2661,43.9937 -23.1875,65.2031 -12.2737,23.836 32.9466,9.3012 49.168,1.1621 16.2215,-8.1391 9.0427,14.0192 34.5234,12.4043 25.4806,-1.6149 33.4659,-22.116 17.8731,-33.914 -34.4736,-26.0839 -13.2202,-105.66513 6.9355,-136.58011 6.9983,3.33545 32.1995,-19.7371 40.9844,-54.77734 83.514,-21.76764 20.8145,-54.9707 20.8145,-54.9707 0,0 10.7918,-0.4469 43.5683,-40.50196 26.0111,-31.78728 23.5325,-49.5704 -11.279,-61.26231 40.5072,-51.43379 -83.3928,-7.72597 -83.3928,-7.72597 0,0 -6.605,-12.9189 -10.2657,-46.89648 -2.4022,-22.29779 -27.6023,-31.57839 -53.6601,-31.21485 z" fill="#FFFFFF" overflow="visible" paint-order="fill markers stroke" transform="translate(279.77758,22.945608) matrix(0.26458333,0,0,0.26458333,-519.66178,-191.70167)"/>
    <path d="m 1080.8516,638.69531 c -26.2678,3.72135 -63.329,24.77976 -75.3262,47.92383 -3.2165,6.5743 -3.6126,8.66733 -3.002,15.86133 1.4027,15.40176 12.9804,26.16854 25.1309,36.18164 15.5681,12.18791 36.0181,15.94791 53.6641,18.10547 15.6871,0.15345 27.971,-2.36415 40.1582,-8.44336 3.3527,-1.39304 1.1471,1.86266 0.166,2.9668 -22.444,13.32432 -46.4616,4.70617 -76.7969,20.35156 -0.3667,-0.0957 -0.7344,-1.3602 -0.8164,-2.8086 -0.2554,-4.5188 -7.2817,-16.95756 -12.3438,-21.85156 -14.2714,-13.7968 -48.734,-13.78452 -74.8398,0.0254 -11.20412,5.25454 -19.29214,13.29636 -19.33398,23.75977 0.2721,17.11704 16.63077,27.01177 34.66601,26.59765 15.4242,0.0798 23.83409,-1.92184 33.33397,-7.93554 8.2806,-5.242 9.9339,-7.22229 10.875,-13.02149 0.7089,-4.3683 0.4522,-4.73992 -5.1523,-7.45312 -6.5586,-3.1749 -15.1258,-3.59646 -22.3887,-1.10156 -4.2788,1.4699 -4.6684,2.04638 -4.6914,6.92578 -0.0138,2.9269 -0.50058,6.07158 -1.08008,6.98828 -7.0136,7.55006 -26.52924,-1.66778 -29.45508,-11.04883 -2.0113,-8.0136 10.27543,-16.66858 28.86133,-20.33008 2.4004,-0.4729 8.89899,-0.8404 14.44141,-0.8164 18.19712,0.0781 26.83112,7.09953 28.84182,23.45703 0.6337,5.1552 0.1265,7.51188 -2.8711,13.33398 -2.0025,3.8895 -4.9334,8.14664 -6.5117,9.46094 -3.6837,3.0672 -17.68198,9.82571 -22.86918,11.04101 -2.2,0.5156 -4.6877,1.47702 -5.5293,2.13672 -30.64973,5.854 -67.05501,-5.181 -62.95508,-39.72656 0.4364,-9.5295 0.96137,-11.27774 5.35157,-17.86914 6.4691,-9.7127 13.94469,-16.99862 20.46679,-19.94922 7.79304,-3.51375 19.2536,-7.63578 30,-10.62891 11.5609,-2.5632 12.17484,-2.83109 11.74024,-5.08789 -0.2547,-1.3227 -2.13985,-2.32984 -4.96485,-2.65234 -18.40071,0.35126 -36.44838,4.98439 -50.63086,13.67969 -11.2826,6.82368 -22.81333,16.54171 -28.77343,37.15039 -2.1128,8.6331 -2.10502,9.72858 0.11328,19.33398 3.06984,16.76146 18.24943,35.15123 27.45312,44.54883 8.3467,9.9156 14.57787,15.63281 17.03907,15.63281 0.876,0 0.0393,1.84702 -1.85938,4.10352 -6.9332,8.39608 -9.91882,24.82683 -8.57812,35.48633 3.0984,16.3165 16.20961,34.44915 27.04101,48.41015 12.4276,12.3153 15.04269,14.51321 20.90039,17.56641 7.41773,5.00059 16.72633,7.50208 25.69923,6.56055 16.0677,-1.9694 27.1904,34.35309 28.2695,46.05074 -8.736,3.5899 -4.8891,1.5456 -9.4199,7.6465 -1.807,2.386 -2.0277,2.3293 -5.2539,-1.334 -2.0333,-6.2831 -5.2257,-8.80664 -8.6191,-13.51949 -12.0557,-16.8497 -24.93735,-18.22175 -32.56645,-3.46875 -3.1987,6.1856 -4.16793,16.03974 -2.17383,22.08204 2.2161,6.7147 13.12552,14.1478 23.91598,16.2929 8.0673,1.6037 8.5507,2.9917 2.209,6.3555 -15.19188,8.0582 -19.17559,8.2965 -28.94139,1.7246 -13.64637,-6.9977 -21.26499,-0.2871 -11.91601,8.7266 8.6354,8.2969 12.5933,9.9496 23.3164,9.7363 5.5032,-0.1095 10.9489,-1.0335 13.2715,-2.2519 3.9199,-2.0559 10.1764,-4.3052 4.3086,0.098 -0.5739,0.4306 -7.5956,4.0661 -16.04299,7.6778 -15.5513,6.6492 -19.11206,9.8386 -15.16406,13.5859 4.1518,3.9407 38.86205,-11.3286 51.52735,-19.0859 9.9637,-6.1026 5.8764,-13.6413 13.8379,-15.5489 2.79,-0.6622 5.312,-0.9535 5.6035,-0.6621 0.3297,7.8548 -15.7699,54.7854 -25.9785,59.0918 -3.0415,0.9653 -4.6805,6.9539 -2.5918,9.4707 7.7362,6.4504 18.93,-11.2549 21.2871,-16.3847 5.3226,-10.4233 9.8076,-22.6728 13.1875,-32.4102 2.1643,-6.2333 3.9877,-13.7327 4.0527,-16.666 0.1342,-6.0728 2.9662,-10.6941 5.8692,-9.5801 1.5748,0.6043 1.8227,2.6812 1.2539,10.5 -1.4172,18.457 -5.5802,38.4676 -14.4531,55.7813 -3.1716,3.5045 -3.2362,9.4863 1.3599,10.1608 5.234,0.7681 6.8189,-1.1644 8.6713,-4.2116 13.7885,-22.6822 14.8221,-48.191 15.9727,-65.6504 0.014,-0.9167 1.2267,-1.666 2.6933,-1.666 1.4667,0 2.7031,0.7493 2.7461,1.666 0.043,0.9166 0.2619,3.7673 0.4863,6.334 0.2245,2.5667 0.8587,11.5667 1.4102,20 2.0728,31.7025 5.7265,44.4739 13.0508,45.6191 1.635,0.2547 3.968,0.239 5.1836,-0.035 8.3232,-6.3677 0.915,-9.685 -1.211,-13.9179 -2.4181,-4.9949 -5.3655,-26.1329 -6.5058,-46.666 l -0.7969,-14.334 h 4.1016 c 4.5204,0 4.3803,-0.3042 8.8457,19.334 3.1644,16.2838 19.0979,36.8315 36.5586,36.3984 2.3573,-0.2762 3.8209,-1.5578 4.7226,-4.1367 1.4559,-4.164 0.1946,-7.1733 -3.9824,-9.5078 -12.2009,-6.8191 -16.9454,-10.5692 -18.707,-14.7852 -1.3046,-3.2803 -2.3867,-7.0227 -3.7871,-9.748 -2.5872,-5.0031 -4.9079,-22.0499 -3.0938,-22.7285 0.7457,-0.2792 3.6301,-2.5625 6.4102,-5.0743 5.7091,-5.1577 7.5978,-10.8062 5.0019,-14.9629 -2.1535,-3.4484 -5.9352,-2.553 -10,2.3672 -3.6893,4.4656 -6.285,2.4567 -6.0176,-4.6562 0.194,-5.1613 11.2551,-35.70968 14.1817,-39.16798 0.9309,-1.1 2.3967,-4.09942 3.2578,-6.66602 2.17,-6.4684 9.7205,-18.66601 11.5547,-18.66601 5.4326,0 17.4013,-10.64809 21.9101,-19.49219 1.077,-2.1124 3.2319,-5.6418 4.7871,-7.8418 3.4201,-4.8383 7.9687,-14.65558 9.1036,-19.64648 0.5867,-2.5798 1.8967,-3.87425 4.4765,-4.42773 14.0408,-3.01251 17.757,-4.0851 23.9278,-6.9004 9.6996,-4.4254 22.9732,-17.03437 24.2402,-23.02539 1.7996,-8.5098 -3.5665,-17.02533 -17.4063,-27.61523 l -6.2187,-4.75781 8.8848,-6.70899 c 9.1742,-6.9284 20.8873,-17.04788 29.8769,-30.13476 13.8795,-20.20534 29.7531,-37.97526 12.8066,-52.29102 -14.3876,-10.18704 -37.7776,-19.99104 -57.3066,-24.51562 -12.7296,-1.7508 -6.5224,-4.15367 14.3164,-5.54297 10.2481,-0.6832 12.7733,-0.43768 16.1856,1.57812 8.5701,5.92432 9.7903,-5.29866 5.914,-9.12695 -3.3075,-2.9931 -14.095,-4.85393 -23.6601,-4.08203 -22.4855,0.0518 -42.317,5.52195 -61.7618,14.84375 -3.078,0.7096 -3.1512,0.54277 -2.289,-5.20703 0.8122,-5.4162 0.4723,-6.48978 -3.8692,-12.17578 -4.7048,-6.1616 -4.7191,-6.21972 -1.2128,-4.88672 2.876,1.0935 3.8867,0.90143 5.3398,-1.01367 2.6899,-3.54521 2.4,-11.13791 -0.4551,-11.90821 -14.0532,-5.7601 -11.4597,-29.99825 -33.1777,-37.83398 -13.8434,-5.45344 -26.9144,-4.49248 -40.4824,-3.35999 z m 26.5351,10.69922 c 21.9197,5.9644 22.056,30.29975 29.959,37.03906 2.1884,2.0167 4.7723,3.66797 5.7402,3.66797 1.9852,1.79018 -5.3547,-1.14492 -7.5742,-2.63476 -1.8333,-1.2404 -9.2097,-3.89765 -16.3926,-5.90625 -24.6083,-7.20939 -44.2386,-0.13025 -59.2656,6.83007 -7.9455,5.25808 -15.5246,12.02791 -10.9121,21.48243 11.9195,20.45074 62.9058,27.66476 68.7188,4.49023 0.78,-3.9001 0.2772,-4.89368 -4.8711,-9.64648 -5.2235,-4.8224 -5.9884,-5.13516 -8.5079,-3.47266 -1.5631,1.0315 -2.9473,3.58955 -3.1777,5.87695 -0.3088,3.066 -1.3893,4.45801 -4.4473,5.72461 -8.6062,3.5648 -20.8706,0.67802 -28.9023,-6.80468 -3.5184,-3.278 -3.6022,-4.2702 -0.5762,-6.8418 17.8539,-10.70813 36.1948,-9.38634 53.1016,-4.33399 7.4408,2.2393 16.8126,10.29169 16.5664,14.60547 -1.1897,20.84993 -23.2274,26.46783 -37.334,30.06055 -26.0167,6.11908 -50.1615,-1.77562 -70.5351,-22.20508 -11.1011,-12.1464 -11.4471,-26.12908 -2.7715,-35.98437 16.6687,-18.93523 57.4101,-38.41552 81.1816,-31.94727 z m 82.7422,79.36524 c 11.142,0.10935 24.0083,2.32008 27.3828,5.64257 0.8767,0.8631 -0.1411,1.00275 -2.9726,0.40625 -11.5838,-0.53924 -33.0863,3.59789 -33.6934,18.625 0.5912,11.76436 5.8115,6.05966 11.1641,2.12696 9.1797,-6.7814 22.2248,-10.58899 22.1308,-6.45899 -0.021,0.9167 -2.3218,4.23159 -5.1133,7.36719 -8.993,9.01614 -30.5014,13.64839 -40.6093,5.63281 -12.5899,-14.68062 -10.3632,-23.65595 6.7304,-31.43945 2.8266,-1.21694 7.5127,-1.81147 12.7793,-1.89649 0.7242,-0.0117 1.4584,-0.0131 2.2012,-0.006 z m 47.3574,13.10742 c 0.942,0.003 2.0044,0.2217 2.9239,0.48242 19.9077,5.988 14.2456,23.83531 -0.051,33.75195 -17.1687,11.68283 -58.1569,27.37363 -76.8477,18.97266 -15.404,-8.95404 -26.2943,-20.50842 -24.957,-35.86719 0.879,-9.6943 2.9234,-12.66034 4.3262,-6.27344 2.2698,10.3343 13.8681,23.18841 24.1386,26.75391 23.3403,6.03226 46.4388,0.95632 58.2832,-14.83008 8.2786,-11.1418 10.5684,-15.96278 9.6817,-20.39648 -0.306,-2.00293 0.9319,-2.59821 2.5019,-2.59375 z m -120.7929,23.85742 c 1.4191,0.0899 2.3073,1.1994 2.9804,3.64258 0.5955,2.1632 0.8897,4.12593 0.6543,4.36133 -0.2354,0.2354 -3.5983,-0.25259 -7.4746,-1.08399 -12.1866,-2.6134 -22.4632,0.42445 -36.6894,10.84375 -9.475,6.9396 -22.971,21.99509 -24.0274,26.80469 -0.7252,3.3018 -0.2115,4.76106 2.7813,7.88476 3.4886,3.6414 4.1462,3.80722 13.1328,3.32032 12.886,-0.6983 22.7329,-4.70516 40.5566,-16.50586 4.3032,-5.64787 3.8717,-10.95708 -0.1875,-14.16016 -3.4286,-2.60176 -6.0376,-3.13829 -7.5742,0.83008 0,3.5467 -15.7929,13.58021 -23.373,14.84961 -2.1782,0.3648 -5.0117,1.08516 -6.295,1.60156 -3.4102,1.3725 -2.9083,-1.60286 0.8555,-5.07226 8.645,-7.9684 15.5332,-12.88698 22.5313,-16.0879 7.2562,-3.41929 19.7771,-4.46878 24.3378,2.38086 1.9475,2.9722 1.9067,3.65659 -0.5449,8.99219 -4.126,8.9794 -21.216,23.01931 -33.1406,27.22461 -3.5039,1.2358 -11.1724,2.48043 -17.0391,2.76563 -9.5623,0.4649 -11.4006,0.13985 -17.7695,-3.12305 -8.7472,-4.4815 -15.1129,-12.10927 -15.2891,-18.32227 -0.2216,-7.8178 3.9625,-14.77613 12.0411,-20.01953 21.4403,-12.20923 41.7415,-17.3048 59.6855,-19.99609 3.6666,-0.4364 7.8086,-0.93492 9.2051,-1.10742 0.2253,-0.0279 0.4398,-0.0363 0.6426,-0.0234 z m 21.7461,31.52148 c 0.666,-0.0742 1.4033,0.60448 2.4863,1.75196 29.4816,15.48859 47.4413,14.47338 73.625,6.88476 10.0323,-0.60611 -12.579,19.20545 -16.3811,18.03053 -12.6846,-3.91975 -34.7272,-11.92375 -56.824,-15.38209 -10.2059,-1.59731 -9.2548,0.25241 -6.4121,-5.26563 1.6727,-4.18535 2.5237,-5.91013 3.5059,-6.01953 z m -121.8633,17.64453 c 2.2848,0.0451 2.8867,1.57455 2.916,4.80274 0.017,1.8823 -1.0864,2.18229 -6.6387,1.80469 -3.6622,-0.2492 -8.7582,0.0209 -11.3242,0.59961 -7.37222,1.6628 -4.21528,-0.76626 6.1387,-4.72266 4.3349,-1.65651 7.1311,-2.51946 8.9082,-2.48438 z m 133.2636,6.91407 c 3.4733,0.2032 7.1747,1.22734 8.2247,2.27734 1.6567,1.6567 1.4813,2.08756 -1.3223,3.25586 -6.356,2.6488 -13.9383,8.91184 -16.3008,13.46484 -8.5414,21.1158 23.917,36.00176 39.0703,37.70118 2.5667,0.2776 -0.1333,0.56657 -6,0.64257 -8.5997,0.1119 -12.6975,-0.59463 -21.1465,-3.64453 -10.3071,-3.7633 -20.3356,-10.30015 -29.9922,-16.06836 -0.7237,0 -4.6593,-3.74873 -8.748,-8.33203 -9.6416,-10.8083 -9.9775,-14.8062 -1.7793,-21.1875 10.3004,-10.53693 26.0064,-9.0376 37.9941,-8.10937 z m -197.91402,0.69922 c 14.7362,5.89324 29.00535,3.51907 39.36627,0.68491 3.13265,-0.48879 5.06037,-0.28466 -9.78033,4.25454 -5.1333,1.5701 -11.31699,4.00917 -13.74219,5.42187 -2.4253,1.4127 -4.85474,2.56836 -5.39844,2.56836 -1.5537,0 -12.19336,-10.60529 -12.19336,-12.15429 0,-0.55425 0.61355,-0.81533 1.74805,-0.77539 z m 51.95312,10.74414 c 0.3487,-0.01 0.5882,0.0316 0.6875,0.13086 0.3972,0.3972 -3.2773,4.54781 -8.16601,9.22461 -4.8887,4.6769 -8.88867,9.13133 -8.88867,9.89843 0,0.7671 -1.44966,3.11937 -3.22266,5.22657 -3.6047,4.2839 -6.43805,16.6983 -4.78515,20.9707 3.8743,10.0143 21.54879,13.44586 37.84769,7.34766 16.4753,-6.16422 28.2331,-25.91739 21.3105,-35.80079 -1.9159,-2.7353 -2.9905,-3.03741 -8.8086,-2.47851 -7.6108,0.7314 -9.2915,2.54144 -8.1504,8.77344 0.4821,2.6324 0.1065,5.75582 -0.9199,7.67382 -4.3289,8.08842 -26.60547,14.71186 -26.60547,7.91016 0,-4.244 6.96187,-16.54517 12.20897,-21.57227 8.2702,-7.9233 14.9209,-11.27766 21.5801,-10.88476 12.2712,0.7241 27.5449,12.25492 27.5449,20.79492 0,5.3841 -5.3524,16.71383 -10.4297,22.07813 -9.9891,8.63487 -24.379,17.76962 -36.9043,20.70507 -19.48595,3.6917 -35.07909,3.83002 -45.94332,-13.60547 -5.26804,-10.2596 -4.56775,-23.09306 -0.60938,-30.98046 6.00451,-10.35151 15.24979,-17.35289 25.88672,-20.48243 3.3,-0.9515 8.32441,-2.5822 11.16601,-3.625 2.13117,-0.7824 4.15517,-1.27488 5.20117,-1.30468 z m 204.7539,12.36133 c 8.6296,7.565 9.991,10.53388 7.1055,15.49218 -2.5448,4.3727 -4.2266,4.71689 -4.2266,0.86719 0,-3.1726 -6.9046,-10.17256 -11.9648,-12.13086 -6.0147,-2.32931 -11.9758,-1.29208 -18.1309,-3.0293 -2.5837,-0.7977 -4.6528,4.23672 -3.2539,7.91602 1.1404,2.9998 2.0378,3.37695 8.0254,3.37695 4.9513,0 6.9589,0.56707 7.5605,2.13477 0.4505,1.174 -0.017,2.6643 -1.041,3.3125 -7.5037,3.37258 -32.292,-3.37979 -38.7343,-12.69922 -3.4904,-7.6605 7.9634,-14.90978 25.7011,-16.26758 12.7863,-1.03044 22.287,5.23471 28.959,11.02735 z M 1086.6543,841.375 c 1.5817,-0.0639 2.9866,1.59327 5.6348,6.37305 4.7372,8.55 4.7842,9.36321 0.5566,9.79101 -7.7625,0.7859 -14.7815,2.33421 -15.4453,3.40821 -1.2196,1.9735 -3.2155,1.26671 -3.332,-1.17969 -0.2907,-6.1042 -0.9656,-8.25266 -3.6719,-11.69336 -1.6067,-2.0425 -2.712,-3.92289 -2.4551,-4.17969 0.2569,-0.2569 3.8673,-0.72697 8.0234,-1.04297 3.5311,-0.43719 7.2928,-0.61137 10.6895,-1.47656 z m -1.5039,30.88867 c 1.8698,-0.0319 4.6192,0.22092 8.6914,0.68164 3.7359,0.4227 4.334,1.00085 4.334,4.21875 0,4.9307 5.3549,9.77664 13.4531,12.18164 6.3333,1.8808 12.5116,1.12605 21.7813,-2.66015 2.0868,-0.8524 2.3967,-0.61143 1.666,1.29297 -0.494,1.2872 -0.8985,2.54597 -0.8985,2.79687 0,0.2509 -3.4493,2.08347 -7.666,4.07227 -4.2166,1.9889 -8.709,4.13407 -9.9824,4.76757 -3.6948,1.8383 -14.6703,1.23414 -18.8672,-1.03906 -7.4412,-4.0304 -17.3481,-18.02743 -16.582,-23.42773 0.282,-1.98863 0.9539,-2.83159 4.0703,-2.88477 z m 30.3613,1.97071 c 0.4889,0 0.9774,0.31139 1.5996,0.93359 1.2445,1.2444 0.8893,1.59961 -1.5996,1.59961 -2.4888,0 -2.844,-0.35521 -1.5996,-1.59961 0.6223,-0.6222 1.1107,-0.9336 1.5996,-0.93359 z m -51.2871,13.19921 c 2.0336,0 5.1554,6.05601 4.0469,7.84961 -1.7444,2.8225 -0.9109,19.61502 1.2988,26.16602 4.8117,14.2654 16.272,24.65234 27.2012,24.65234 4.5095,0 5.3976,2.4852 2.0742,5.8086 -7.2532,15.65701 -12.2108,29.13649 -18.7793,41.78711 -0.8168,0.27 -2.1445,-2.87117 -3.0547,-7.22657 -6.2664,-29.9854 -10.0587,-38.51358 -15.3926,-34.61328 -2.6689,1.9514 -2.5584,3.06079 2.5918,25.99219 2.4174,10.7639 2.021,13.58398 -1.914,13.58398 -3.2334,0 -6.3901,-4.29034 -8.2696,-11.24414 -2.2174,-8.2038 -9.3002,-22.44841 -12.8085,-25.75781 l -3.1836,-3.00195 4.6328,-2.73438 c 5.3529,-3.1583 11.3583,-10.54016 14.041,-17.25976 2.888,-7.2341 3.4565,-20.4647 0.9687,-22.5293 -3.5712,-2.9639 -6.9339,-0.35309 -12.2871,9.53711 -10.1836,18.8143 -21.3452,25.65227 -35.1699,21.54687 -7.8727,-2.338 -22.57388,-12.70677 -25.36328,-17.88867 -0.9045,-1.6804 0.48704,-2.06004 8.71094,-2.36914 23.11754,-0.8688 49.52814,-11.96314 63.88084,-26.83594 2.8988,-3.0038 5.9482,-5.46289 6.7754,-5.46289 z m 91.2656,4.46875 c 4.2226,0.40962 8.7143,1.16246 12.959,1.41407 3.1408,0.1773 6.0658,0.67522 6.4981,1.10742 0.4322,0.4323 -0.9149,2.6844 -2.9922,5.0039 -2.0772,2.3195 -5.3945,6.7205 -7.3711,9.7793 -8.2767,9.53873 -12.6695,27.05415 -29.4063,22.60547 -4.2172,-0.6388 -4.7745,-3.04427 -1.2207,-5.26367 7.3342,-8.48004 10.6774,-20.9232 15.8887,-29.29102 2.5772,-4.1154 3.513,-5.3232 5.6445,-5.35547 z m -71.1757,17.57422 c 0.5153,0.0593 1.3904,0.49206 2.7871,1.18555 9.8905,4.9111 10.9155,5.10415 22.9804,4.31445 6.666,-0.4364 13.3592,-1.45833 14.875,-2.26953 2.4428,-1.3075 2.606,-1.19871 1.4317,0.95899 -2.0753,3.8132 -9.6151,10.33155 -16.4473,14.21875 -10.0254,5.7039 -15.5341,4.38391 -21.582,-5.17579 -2.058,-3.2531 -4.0268,-7.71285 -4.3731,-9.91015 -0.3915,-2.48406 -0.5308,-3.42118 0.3282,-3.32227 z m 32.8906,30.50586 c 0.9704,-0.11845 2.9962,0.71128 4.8554,2.03516 2.1249,1.513 4.5209,2.75 5.3243,2.75 2.0447,0 1.824,3.37171 -0.3379,5.16601 -2.3965,1.9889 -9.0961,15.79767 -13.666,28.16797 -4.5371,12.2815 -6.0551,14.16779 -12.2891,15.27149 -2.7021,0.4784 -6.0342,1.20097 -7.4043,1.60547 -1.3701,0.4044 -2.2701,0.22004 -2,-0.41016 0.2701,-0.6304 1.6685,-4.14344 3.1074,-7.80664 3.039,-7.6458 8.2865,-15.93266 11.1446,-24.66016 5.9326,-13.7191 9.6575,-21.22881 10.9179,-22.00781 0.092,-0.0569 0.2091,-0.0944 0.3477,-0.11133 z M 1008,1000.3066 c 4.7462,4.0713 6.827,10.8033 10.1777,15.127 1.4341,1.8334 2.6227,3.784 2.6387,4.334 0.092,3.1133 -13.8678,-1.2109 -18.8086,-5.8262 -3.784,-3.5348 -4.10556,-4.4603 -3.48046,-10.0059 1.82996,-11.30976 4.37216,-10.46742 9.47266,-3.6289 z m 96.4062,13.6563 c 0.2032,7.0581 -0.077,7.9633 -2.6679,8.6582 -5.1766,1.3885 -5.7616,0.909 -7.7988,-6.4102 l -2.0098,-7.2246 4.5527,-0.8535 c 8.0135,-1.5278 7.6088,-3.9851 7.9238,5.8301 z m -18.3124,-4.5293 -0.1758,5.6855 c -0.097,3.1269 -0.8846,6.2736 -1.7481,6.9903 -3.9654,3.2909 -4.5675,-4.8902 -0.7011,-9.5274 z m -35.6763,13.6239 c 0,1.1 -2.4718,3.4632 -3.5718,4.3761 -1.6266,1.35 -2,1.2866 -2,-0.3398 0,-1.1 0.9,-2.7472 2,-3.6602 1.3472,-1.1187 3.4057,-1.8118 3.5718,-0.3761 z" fill="#00B894" transform="translate(279.77758,22.945608) matrix(0.26458333,0,0,0.26458333,-519.66178,-191.70167)"/>
</svg>