<?xml version="1.0" ?><svg height="78.483276mm" viewBox="0 0 47.162949 78.483276" width="47.162949mm" xmlns="http://www.w3.org/2000/svg">
    <path d="m 472.05717,4403.8533 c -4.50443,-1.7897 -9.36583,-7.0062 -10.01176,-12.9876 -0.6459,-5.9812 1.75078,-13.0638 3.82453,-16.1388 2.07375,-3.0747 20.15948,-26.8163 23.18509,-30.0593 3.02562,-3.2433 12.4764,-15.5271 13.93823,-15.8637 1.46182,-0.3365 4.02849,0.3673 2.61768,8.2913 -1.41081,7.924 -10.33471,32.6906 -11.43955,38.8096 -1.10488,6.119 -3.56958,12.9876 -5.94926,16.4907 -2.37969,3.5031 -5.6093,11.6414 -16.16496,11.4578 z" fill="#FFFFFF" paint-order="markers stroke fill" transform="translate(-291.03717,-169.6651) translate(-169.09269,-4156.5494)"/>
    <path d="m 503.57286,4326.2145 c -2.73675,0 -5.43504,2.7141 -12.50052,12.5713 -3.72361,5.1949 -10.76664,14.6082 -15.65108,20.9184 -14.01558,18.1073 -16.13807,22.5293 -15.04517,31.3505 0.71789,5.7944 1.92089,7.8448 6.71722,11.4485 2.57445,1.9344 3.53281,2.3027 5.64523,2.1704 6.63233,-0.416 11.87919,-3.7263 17.18277,-10.84 3.01898,-4.0494 4.08599,-6.7928 4.12265,-10.6025 0.0257,-2.6681 2.82461,-11.9636 8.38697,-27.8566 6.03036,-17.2299 6.49721,-29.16 1.14193,-29.16 z m -0.21622,4.2689 c 0.36561,-0.167 0.54387,0.038 0.73406,0.5188 0.6781,1.7161 0.61676,1.8692 -0.87212,2.192 -0.76746,0.167 -1.95327,0.5202 -2.63546,0.7858 -0.87602,0.3412 -0.60684,-0.1871 0.91574,-1.7996 0.9396,-0.9951 1.49222,-1.5307 1.85778,-1.697 z m 0.0863,5.7452 c 0.51112,0.069 0.54701,0.4838 0.54144,1.3045 -0.0158,2.357 -0.95325,3.0996 -5.35905,4.2481 -5.34942,1.3944 -5.34442,1.3946 -4.58686,0.093 1.5108,-2.5963 3.30833,-4.0497 6.01407,-4.864 1.89278,-0.5695 2.87928,-0.8493 3.3904,-0.7812 z m -0.68954,7.4985 c 0,0.1581 -0.28521,1.1068 -0.63408,2.1076 -0.57144,1.6392 -1.07905,1.9146 -5.11651,2.7791 -2.46519,0.5278 -5.94755,1.5604 -7.73835,2.2947 -1.79075,0.7345 -3.25195,1.1302 -3.24777,0.8793 0.003,-0.2506 1.09116,-1.6228 2.41562,-3.0487 1.67694,-1.8052 3.35969,-2.8748 5.54256,-3.523 3.49279,-1.0372 8.77853,-1.9338 8.77853,-1.489 z m -2.60547,6.9952 c 0.10144,0.084 -0.47032,1.7798 -1.27005,3.7692 l -1.45354,3.6166 -5.10378,0.7922 c -2.80714,0.4356 -7.60822,1.7329 -10.66906,2.8826 -3.06083,1.1497 -5.55493,1.9199 -5.54165,1.7116 0.0141,-0.2084 1.47847,-1.9955 3.25594,-3.971 3.23,-3.5898 3.23678,-3.5934 11.91457,-6.273 4.7754,-1.4745 8.76603,-2.6121 8.86757,-2.5282 z m -4.64409,10.9588 c 0.36422,0.062 0.42577,0.2519 0.30162,0.5876 -0.17193,0.465 -0.91116,2.6596 -1.64251,4.8767 l -1.32911,4.031 -5.58526,-0.2164 c -6.16164,-0.2391 -13.09701,0.9898 -17.10011,3.0307 -1.31297,0.6695 -2.47468,1.2175 -2.58189,1.2175 -0.52401,0 1.75639,-3.575 3.0334,-4.7551 3.48148,-3.2171 14.17655,-7.2553 22.78894,-8.6031 1.08371,-0.1706 1.7507,-0.232 2.11492,-0.1688 z m -3.20237,11.483 -0.39154,2.4174 c -0.89443,5.528 -0.78196,5.3399 -2.52191,4.1998 -1.17654,-0.7709 -2.34443,-0.9256 -4.7949,-0.6377 -3.37007,0.396 -11.66102,3.1935 -16.14621,5.448 -1.42662,0.7172 -3.10314,1.7523 -3.72563,2.3002 -1.07171,0.9434 -1.1097,0.8983 -0.71315,-0.8476 1.53888,-6.7749 1.71512,-7.1209 4.18258,-8.2052 3.41775,-1.5019 14.51512,-3.9991 19.25865,-4.3333 z m -3.92003,9.3272 c 0.78228,0.018 1.19142,0.1442 1.05108,0.4305 -0.17727,0.3621 -0.48734,1.1204 -0.6895,1.6852 -0.20516,0.5733 -1.37017,1.2116 -2.63638,1.4446 -5.70758,1.05 -11.32437,5.125 -15.10331,10.957 -1.07137,1.6535 -2.02644,3.006 -2.12218,3.006 -0.51602,0 -3.2605,-4.3112 -3.83011,-6.0167 -0.56185,-1.6824 -0.47234,-2.2295 0.5887,-3.5784 1.57046,-1.9966 3.73498,-3.1195 10.42195,-5.4073 4.27166,-1.4613 9.97288,-2.5508 12.31975,-2.5209 z m -1.92322,7.3012 c 0.654,-0.1704 1.13221,-0.1859 1.32455,0 0.62666,0.6268 -8.60058,9.0388 -11.21779,10.2267 -1.45744,0.6615 -3.01299,1.209 -3.45673,1.2165 -1.1507,0.02 1.95413,-3.8781 5.69702,-7.1524 2.14801,-1.8789 5.69092,-3.7858 7.65295,-4.297 z" fill="#00B894" transform="translate(-291.03717,-169.6651) translate(-169.09269,-4156.5494)"/>
</svg>