<?xml version="1.0" ?><svg height="168.40987mm" viewBox="0 0 115.49617 168.40987" width="115.49617mm" xmlns="http://www.w3.org/2000/svg">
    <path d="m 5956.0762,594.829 c 0,0 -76.0928,-57.1961 -104.8247,-128.685 -28.7319,-71.4889 7.0019,-93.5439 20.1606,-81.9189 13.1588,11.6251 49.8584,39.6556 65.1901,26.1836 15.3317,-13.4721 12.9173,-45.1966 -10.5029,-77.5731 -23.4201,-32.3764 -40.8041,-62.3626 -20.6435,-79.9632 20.1606,-17.6006 46.1159,-5.6496 66.0351,15.8623 19.9192,21.5118 28.6111,35.0926 41.4077,22.381 12.7966,-12.7116 -11.5893,-64.7529 -25.4724,-102.3443 -13.883,-37.5914 -12.5552,-53.7796 7.2433,-74.6396 19.7985,-20.86 41.5285,1.3037 50.0998,9.7781 8.5713,8.4744 18.1083,2.9334 16.9011,-11.6251 -1.2072,-14.5585 -18.1083,-52.3672 3.0181,-67.7949 21.1264,-15.4277 38.0275,14.6671 49.4961,15.319 11.4686,0.6519 12.9173,-7.4965 24.5066,-25.9663 11.5893,-18.4698 18.4705,-25.9664 35.0095,-23.4675 16.5389,2.4988 25.1102,24.3366 21.1264,44.6534 -3.9839,20.3167 -14.7282,34.4407 -5.3118,41.2854 9.4163,6.8447 17.9875,0.1086 32.1121,-4.2372 14.1245,-4.3458 24.1445,11.0819 21.3678,27.1614 -2.7766,16.0796 -27.1625,49.1079 -42.4942,64.9702 -15.3317,15.8622 -40.6834,36.6136 6.6398,26.8355 47.3231,-9.7781 59.6367,6.6274 45.2708,38.8951 -14.3659,32.2678 -74.9686,68.8815 -89.6967,82.5708 -14.7281,13.6894 -31.0256,34.3321 3.6217,31.5073 34.6473,-2.8248 61.2061,-5.1064 56.498,27.2701 -4.7081,32.3764 -35.0094,44.3274 -63.3792,52.2586 -28.3697,7.9311 -63.4998,29.8776 -65.6728,42.3718 -2.1731,12.4943 43.0978,5.9755 46.3573,16.9487 3.2595,10.9733 0.845,34.1148 -38.9933,52.8019 -39.8384,18.687 -145.0704,39.1609 -145.0704,39.1609 z" fill="#FFFFFF" transform="translate(-317.96025,-112.3427) matrix(0.17558739,-0.19792274,0.19792274,0.17558739,-752.46345,1335.0725)"/>
    <path d="m 5920.5163,668.48207 c -2.8939,-7.54177 2.012,-25.00282 13.9607,-49.68954 l 11.5992,-23.96353 -36.0282,-34.69463 c -55.7299,-53.66795 -78.5593,-92.01672 -81.4247,-136.77849 -1.1855,-18.52631 -0.4364,-23.96976 4.7812,-34.7487 11.888,-24.55669 35.6951,-24.48802 60.3202,0.17381 9.0818,9.09546 15.8829,13.31355 23.0229,14.27816 24.7236,3.34019 23.1458,-19.24521 -5.377,-76.96966 -17.1666,-34.74206 -20.478,-43.75832 -20.3982,-55.54265 0.1054,-15.72969 4.9379,-23.48112 19.2476,-30.88104 19.196,-9.92679 32.037,-4.57734 64.2805,26.77839 18.8454,18.32673 28.9724,21.84847 32.3376,11.24527 3.4202,-10.77594 -1.4758,-26.42002 -19.4976,-62.29835 -16.6847,-33.21607 -17.828,-36.77321 -18.8164,-58.53649 -0.8037,-17.69647 0.071,-25.26013 3.7088,-32.01197 5.1281,-9.52271 27.4973,-25.651107 39.8906,-28.761678 9.7238,-2.440398 23.1142,3.073865 28.8976,11.900428 7.6183,11.62704 11.0261,8.49758 8.883,-8.157879 -6.8356,-53.123511 -5.5659,-60.094454 11.8211,-64.89518 28.9751,-3.766162 31.9318,2.962284 43.6999,11.211793 9.196,6.547972 9.9741,5.961484 19.8837,-14.99084 11.9007,-25.1618351 37.8374,-39.6063067 53.1281,-29.5874513 9.1988,6.0273631 24.3293,35.9946583 24.2892,48.1075363 -0.027,5.159545 -1.9484,15.701371 -4.2918,23.426612 -2.3439,7.725251 -4.261,15.128822 -4.261,16.452457 0,4.13784 8.0584,2.642533 17.8137,-3.305429 23.0097,-14.029019 39.4118,-2.025357 39.4118,28.843441 0,31.6184 -12.5535,51.42348 -46.3101,73.06079 -10.7248,6.87438 -19.4992,13.79489 -19.4992,15.37904 0,4.33206 3.6712,3.57045 20.4599,-4.24535 23.5736,-10.97403 42.8786,-8.39694 51.934,6.93318 6.6411,11.24247 6.3907,40.90289 -0.4725,55.98708 -6.7287,14.78761 -27.5156,35.14828 -49.9043,48.8805 -9.749,5.97972 -27.1181,17.90678 -38.5984,26.50458 -25.4433,19.05528 -24.3772,24.19185 3.4801,16.76875 23.0774,-6.14904 32.8556,-6.15934 41.7926,-0.0429 9.1808,6.28294 10.7542,8.67849 14.4314,21.9695 4.3935,15.88249 -1.237,36.95862 -13.4998,50.53227 -8.1152,8.98256 -14.8147,12.36524 -41.8181,21.11583 -39.275,12.72706 -74.7298,29.86514 -75.9992,36.73673 -0.8099,4.38399 1.5937,5.00718 19.3135,5.00718 16.3368,0 21.3281,1.08929 25.8888,5.64989 13.2605,13.26054 9.6301,36.29551 -8.5919,54.51795 -22.0493,22.04912 -61.9131,36.73094 -116.5884,42.93942 -15.3041,1.7378 -34.1549,4.03548 -41.8904,5.10589 l -14.0649,1.94618 -3.5993,17.69088 c -3.9766,19.54435 -13.1854,42.26881 -20.3272,50.16015 -5.6443,6.23702 -14.7679,6.66493 -17.0191,0.79829 z m 81.88,-91.34632 c 10.2683,-3.82819 29.6137,-9.50125 42.9901,-12.60709 13.3766,-3.10586 31.942,-8.5169 41.2563,-12.02447 27.7344,-10.4444 53.0565,-38.53977 41.3929,-45.92638 -2.1801,-1.38073 -9.1496,-2.53011 -15.4876,-2.55413 -21.4977,-0.0815 -29.6691,-12.72427 -20.1376,-31.15595 6.8334,-13.2144 37.4942,-30.17974 80.3032,-44.43344 33.0944,-11.01929 38.6274,-16.76039 38.6274,-40.08248 0,-18.84028 -6.5328,-22.53175 -32.1172,-18.14948 -16.645,2.85134 -20.5841,2.64705 -29.3216,-1.51956 -10.7932,-5.14709 -11.8631,-8.78707 -7.2799,-24.76828 3.984,-13.89166 17.052,-26.42794 51.551,-49.4524 16.5238,-11.0281 31.9949,-22.15449 34.3802,-24.72513 14.299,-15.41102 17.1228,-21.41929 17.1228,-36.43351 0,-20.64931 -4.6786,-23.13605 -29.1156,-15.47561 -29.752,9.32635 -45.2778,6.99176 -45.2778,-6.80849 0,-3.30886 10.7458,-16.6456 25.6916,-31.886 33.4449,-34.10428 44.622,-58.84443 33.4725,-74.09171 -3.5433,-4.846 -4.3528,-4.88077 -12.7335,-0.54701 -11.2961,5.84154 -23.3014,5.90784 -31.4876,0.17383 -7.7005,-5.393656 -8.607,-21.824221 -2.0672,-37.47558 5.1872,-12.415032 5.4747,-28.583574 0.6732,-37.865073 -5.9446,-11.49098 -9.1641,-8.321398 -11.2984,11.124022 -4.9414,45.017143 -11.1495,66.201431 -69.8066,238.213611 -34.4483,101.01861 -93.0555,240.37912 -121.0757,287.90123 -4.8382,8.20574 -8.7969,15.50672 -8.7969,16.22434 0,3.04555 11.1058,0.84507 28.542,-5.65547 z m -29.5256,-25.326 c 8.2913,-15.19341 19.5718,-38.28675 25.0676,-51.31832 45.9218,-108.88957 72.6701,-175.40646 85.8546,-213.50201 8.5306,-24.64938 23.4166,-66.06195 33.0795,-92.0281 29.5114,-79.30189 33.9218,-92.34762 41.1774,-121.802233 8.4529,-34.317155 11.6016,-55.597379 8.2253,-55.597379 -5.0213,0 -15.237,12.065026 -22.5163,26.592976 -10.245,20.446951 -14.785,24.910116 -25.338,24.910116 -7.0937,0 -11.5304,-2.753699 -20.4757,-12.708603 -5.4793,-4.900305 -12.9071,-11.838624 -23.67,-9.599312 -11.5828,2.939962 -12.1794,3.593417 -10.9528,11.993349 0.7138,4.886145 3.5381,17.147958 6.2761,27.248358 8.716,32.151658 1.6029,51.737008 -18.7905,51.737008 -9.368,0 -12.3368,-1.76785 -21.6221,-12.87577 -13.1777,-15.76446 -21.1448,-16.62735 -34.451,-3.73055 -8.2654,8.0111 -9.4354,10.97058 -9.4354,23.8661 0,21.38108 6.0008,38.13869 22.4792,62.77626 21.9058,32.75147 28.3284,60.13888 18.8087,80.2002 -5.7773,12.17512 -18.0556,17.52521 -32.1701,14.01829 -7.7915,-1.93588 -13.2588,-6.38596 -21.5956,-17.57801 -7.9543,-10.6781 -15.9754,-17.39067 -27.9036,-23.35129 -17.6754,-8.83257 -24.8364,-8.84759 -32.7806,-0.0686 -7.6382,8.43987 -3.6207,22.2399 18.1455,62.33142 23.1523,42.64369 26.4037,51.15438 26.4037,69.10814 0,16.20824 -7.5316,27.35093 -20.9241,30.95637 -11.1888,3.01228 -20.6279,-0.14165 -32.0096,-10.69463 -22.3837,-20.75446 -44.9618,-26.59147 -50.1434,-12.96333 -7.6401,20.09522 1.6317,54.70853 24.4699,91.35125 7.5315,12.0837 15.1016,23.47018 16.8224,25.30327 1.7209,1.8333 10.7196,12.98993 19.9971,24.79272 18.1949,23.14593 35.8598,40.3044 40.1963,39.04321 1.485,-0.43198 9.4841,-13.21655 17.7755,-28.40997 z" fill="#00B894" transform="translate(-317.96025,-112.3427) matrix(0.17558739,-0.19792274,0.19792274,0.17558739,-752.46345,1335.0725)"/>
</svg>