<?xml version="1.0" ?><svg height="129.87946mm" viewBox="0 0 94.302238 129.87946" width="94.302238mm" xmlns="http://www.w3.org/2000/svg">
    <path d="m 6144.7448,1165.5506 c -48.0182,-45.218 -49.7142,-61.34 -29.6801,-98.831 20.034,-37.4909 62.1163,-59.0506 62.1163,-59.0506 0,0 71.3383,-152.0623 87.2384,-178.201 15.9001,-26.1387 34.7682,8.5857 34.7682,8.5857 0,0 19.186,-12.497 22.8961,-6.01 3.71,6.487 -0.848,33.2935 -0.848,33.2935 0,0 32.0122,-22.9907 36.6762,-14.0233 4.664,8.9673 -1.5901,32.5302 -1.5901,32.5302 0,0 32.7542,-20.224 34.1322,-13.2601 1.378,6.964 -9.858,32.8165 -9.858,32.8165 0,0 13.78,-7.3456 15.2641,2.4803 1.484,9.8259 -3.6041,22.4182 -3.6041,22.4182 0,0 28.7261,-10.0167 32.1182,-2.7665 3.392,7.2502 -8.692,30.8131 -8.692,30.8131 0,0 13.038,-7.2501 16.112,0.1908 3.074,7.441 -22.5781,49.2248 -46.8522,65.8238 -24.2741,16.599 -109.4985,74.8864 -109.4985,74.8864 0,0 -22.3662,60.8631 -64.2364,69.5442 -41.8702,8.6811 -66.4623,-1.2402 -66.4623,-1.2402 z" fill="#FFFFFF" transform="translate(-364.08698,-130.85194) matrix(0.26458333,0,0,0.26458333,-1246.8124,-83.259384)"/>
    <path d="m 6088.614,1291.905 c 3.3664,-22.4487 10.452,-75.9937 31.5302,-107.5436 3.9105,-5.7551 7.1099,-11.4916 7.1099,-12.7482 0,-1.2564 -4.2534,-6.0191 -9.4524,-10.5838 -16.1493,-14.1793 -25.9849,-35.7726 -26.1613,-57.4348 -0.1329,-16.4735 1.0475,-20.6978 9.8622,-35.2603 9.4882,-15.6752 31.9936,-39.2054 64.7779,-67.7283 12.7412,-11.08497 16.7017,-17.38011 29.652,-47.1294 31.7751,-72.99342 43.659,-98.00053 55.9199,-117.67342 18.2375,-29.26149 35.7258,-34.753 46.0434,-14.458 2.5436,5.00289 5.0303,9.55876 5.5264,10.1238 0.4963,0.56504 4.8412,-1.7775 9.6556,-5.20567 12.6065,-8.97656 21.3781,-6.93082 22.5431,5.25738 0.5082,5.3147 -0.4576,11.04441 -2.146,12.73265 -1.6882,1.68844 -3.0694,4.80266 -3.0694,6.92051 0,2.32301 5.2709,-0.17382 13.287,-6.29474 14.83,-11.32361 18.6117,-12.1734 25.1357,-5.64925 5.317,5.31683 5.6483,11.37402 1.3044,23.83542 -4.329,12.4176 -1.2316,14.2936 8.3856,5.0797 9.342,-8.95038 10.1215,-9.10382 16.0626,-3.16272 3.2488,3.24877 4.0166,7.50336 2.7659,15.32497 -1.5253,9.53815 -0.9655,11.02809 4.7018,12.50989 5.8489,1.52963 6.2702,2.87364 4.636,14.79575 -1.716,12.51847 -1.534,12.97213 4.0131,10.00341 3.1957,-1.71033 9.9358,-2.71078 14.9776,-2.22301 8.5954,0.83135 9.2223,1.65476 10.0544,13.20304 0.5346,7.41987 2.5254,12.94487 5.0072,13.89725 2.2659,0.86955 4.1198,4.84044 4.1198,8.82441 0,8.5714 -26.6524,49.68073 -42.1037,64.94203 -11.1818,11.0441 -74.6695,54.4591 -92.3765,63.1702 -7.6769,3.7765 -12.3523,9.6075 -20.0291,24.9794 -10.5633,21.152 -27.1035,45.0556 -38.5771,55.751 -17.064,15.907 -52.0904,25.4366 -84.7969,23.0709 l -17.0992,-1.2369 -12.3236,23.0826 c -6.778,12.6955 -17.9836,38.8373 -24.9011,58.0931 -6.9176,19.2556 -13.3929,35.0285 -14.3895,35.0507 -0.9968,0.023 -11.2785,7.1417 -9.6459,-6.316 z m 100.1579,-138.6412 c 9.4422,-0.9585 23.6056,-4.9467 31.4741,-8.8624 25.2966,-12.589 47.8565,-33.718 27.8976,-26.1284 -4.3278,1.6455 -14.4636,3.6013 -22.5241,4.3462 -12.6383,1.1676 -14.8511,0.6052 -16.0785,-4.0879 -0.7825,-2.9932 0.3402,-9.6352 2.4951,-14.76 6.3225,-15.0371 4.7,-15.5583 -9.5052,-3.0545 -14.8836,13.1009 -24.5963,14.4184 -26.1378,3.5448 -0.574,-4.048 5.3556,-17.5971 15.3876,-35.1614 8.977,-15.7169 15.443,-29.4546 14.3694,-30.5282 -1.0738,-1.0739 -2.8481,-0.5453 -3.9428,1.1742 -6.3915,10.0399 -34.1942,39.1664 -40.4977,42.4263 -16.754,8.6637 -21.9445,-6.2194 -11.6331,-33.3568 3.1102,-8.1851 5.131,-15.4059 4.4909,-16.046 -1.8655,-1.8654 -27.5834,34.0612 -33.3608,46.6034 -10.6516,23.1246 -3.7179,46.713 19.8224,67.4339 11.227,9.8822 14.6396,11.4305 21.9352,9.9512 4.7521,-0.9635 16.3655,-2.5361 25.8077,-3.4944 z m 125.8965,-94.7797 c 46.3849,-30.2511 56.7468,-37.4329 65.9138,-45.684 11.0382,-9.9354 36.2584,-41.08194 34.6046,-42.73584 -2.6125,-2.61254 -25.0794,11.17488 -50.9055,31.23934 -62.62,48.6501 -90.6266,68.0577 -95.508,66.1846 -2.2976,-0.8817 -4.1776,-2.631 -4.1776,-3.8874 0,-3.1016 16.8577,-23.2258 38.3197,-45.7453 53.9223,-56.57878 90.5058,-101.03108 86.4688,-105.06807 -2.3884,-2.38823 -87.9221,82.30476 -108.3776,107.31227 -8.5506,10.4534 -16.5619,17.6284 -19.136,17.1385 -10.1395,-1.9299 -5.5039,-13.5549 22.0687,-55.34438 43.0892,-65.30654 67.5058,-109.90671 62.7647,-114.64778 -1.7741,-1.77408 -30.2161,21.09309 -52.0648,41.85936 -22.8978,21.76327 -35.992,36.52277 -71.7311,80.85256 -18.5857,23.05364 0.8264,-30.34674 26.999,-74.27027 21.4615,-36.01761 31.8564,-61.17902 31.8564,-77.11021 0,-20.95167 -11.3076,-5.87028 -37.879,50.52024 -9.2691,19.6714 -26.0598,54.43598 -37.3125,77.25465 -16.5314,33.52312 -33.457,73.80633 -33.5247,79.78903 0,0.6071 6.5894,-5.6031 14.6584,-13.8005 22.9713,-23.3364 36.8342,-25.7118 36.8299,-6.3106 0,5.733 -3.8811,18.7928 -8.6222,29.022 l -8.62,18.5984 12.3476,-13.1541 c 6.7914,-7.2346 15.6768,-15.3352 19.7453,-18.001 6.8051,-4.4589 7.7667,-4.4773 12.0114,-0.2326 2.5378,2.5378 4.6142,5.6527 4.6142,6.9219 0,4.5304 -9.2303,24.2901 -16.0014,34.2549 -3.7888,5.5756 -6.8887,11.698 -6.8887,13.6049 0,5.6381 50.1042,-18.0544 81.5466,-38.5604 z m 25.9008,-55.177 c 1.055,-1.7069 13.9823,-12.05253 28.7277,-22.99073 33.5592,-24.89466 58.1594,-54.9948 40.5091,-49.56616 -12.459,3.83205 -18.8914,8.54844 -29.7798,21.83559 -6.0464,7.37847 -19.1735,22.50753 -29.1713,33.61998 -9.9977,11.11265 -16.8333,20.20462 -15.1905,20.20462 1.6428,0 3.8501,-1.3963 4.9048,-3.1033 z m 30.3189,-103.52506 c 4.4874,-9.07377 8.1591,-17.70505 8.1591,-19.18061 0,-4.00651 -16.961,6.38145 -18.5782,11.37854 -0.7676,2.37193 -7.2021,14.50199 -14.2989,26.95522 -7.0969,12.45345 -12.9035,23.70601 -12.9035,25.00583 0,6.12114 30.4058,-29.56816 37.6215,-44.15898 z m -63.3731,-34.26136 c 0,-4.55029 1.3918,-10.87402 3.0932,-14.05261 3.8602,-7.2128 0.9765,-10.65407 -4.2895,-5.1192 -3.3754,3.5477 -13.1099,32.26948 -13.1099,38.68076 0,1.21247 3.2189,-0.81955 7.1531,-4.51575 4.4314,-4.16296 7.1531,-9.868 7.1531,-14.9932 z" fill="#00B894" transform="translate(-364.08698,-130.85194) matrix(0.26458333,0,0,0.26458333,-1246.8124,-83.259384)"/>
</svg>