<?xml version="1.0" ?><svg height="122.33189mm" viewBox="0 0 113.44589 122.33189" width="113.44589mm" xmlns="http://www.w3.org/2000/svg">
    <path d="m 4748.6728,1241.3301 c 18.9819,-8.5415 73.8569,16.8501 110.6991,3.9602 36.8422,-12.89 81.8812,-42.63 88.9562,-92.8697 7.0751,-50.2398 -18.3779,-119.3485 -74.8923,-150.6416 -56.5144,-31.293 -193.7883,-88.9872 -229.5951,-96.9852 -35.8068,-7.998 -39.862,-19.6455 -51.9414,8.6192 -12.0794,28.2647 -51.8552,153.7476 -51.7689,218.9738 0.086,65.2262 10.6989,172.3059 54.3573,191.8738 43.6584,19.5679 68.2487,0.7765 86.3678,-19.8008 18.1191,-20.5773 33.0458,-53.6563 67.8173,-63.1297 z" fill="#FFFFFF" transform="translate(-62.717481,-154.28048) matrix(0.26458333,0,0,0.26458333,-1136.4905,-79.869893)"/>
    <path d="m 4773.7578,1340.2681 c -6.9838,-7.5358 -18.8068,-35.2342 -28.9585,-67.8422 -4.4707,-14.3605 -5.8882,-16.2506 -11.037,-14.7147 -8.5258,2.5432 -11.5146,5.9497 -32.6557,37.217 -27.4018,40.5463 -64.187,55.0035 -98.9799,38.8234 -59.6194,-28.5934 -63.926,-93.2918 -67.8145,-139.7828 -5.7892,-71.0833 1.1969,-124.2669 30.0844,-229.02205 17.692,-64.15697 22.4381,-77.37137 28.6448,-79.75317 2.3195,-0.88993 11.7126,1.05517 20.8734,4.32282 9.1607,3.26765 34.6821,9.7489 56.714,14.40306 77.2467,16.31747 142.9158,42.60035 198.831,79.5783 33.1667,21.93364 52.9881,43.12014 69.2958,74.06764 20.9754,39.805 26.9491,73.0455 19.2062,106.8715 -6.5889,28.7852 -43.0342,71.0741 -73.443,85.2188 -14.3056,6.6542 -20.0211,7.64 -43.6437,7.5288 -17.9578,-0.083 -35.7665,-2.2521 -52.4784,-6.3878 -13.9129,-3.443 -26.4526,-5.5454 -27.8657,-4.672 -1.4132,0.8734 -0.7449,4.4178 1.4849,7.8766 10.649,16.518 33.3575,74.493 32.5285,83.0455 -1.1925,12.3004 -10.9682,13.8154 -20.7866,3.2213 z m -112.3619,-24.9497 c 4.6182,-3.5614 17.5981,-19.8511 28.8441,-36.1993 15.0612,-21.8948 23.4073,-31.259 31.6868,-35.5515 10.8798,-5.6411 11.0174,-5.8935 4.2919,-7.8781 -3.8215,-1.1277 -24.3581,-7.3203 -45.6374,-13.7611 -21.2789,-6.4409 -40.2441,-11.7108 -42.1449,-11.7108 -5.9297,0 -52.2153,-18.3173 -52.2153,-20.6639 0,-4.8582 6.7634,-3.5992 96.6735,17.9976 20.9096,5.0226 38.6279,8.5214 39.374,7.7752 0.7461,-0.7461 -1.9167,-6.1805 -5.9175,-12.0758 -4.0009,-5.8956 -11.1447,-18.3871 -15.8759,-27.7586 -4.7307,-9.3719 -10.1625,-17.5467 -12.0707,-18.1665 -1.9079,-0.6197 -18.92,-5.8608 -37.8046,-11.6468 -39.3397,-12.0532 -61.5177,-20.8904 -61.5177,-24.5136 0,-3.7783 2.8763,-3.3261 47.9307,7.5352 22.9151,5.5241 42.2859,9.4222 43.046,8.662 0.76,-0.7601 -2.454,-9.4645 -7.1425,-19.3431 -4.6882,-9.8788 -10.8641,-24.1487 -13.7238,-31.7113 -3.5018,-9.2602 -7.8791,-15.1354 -13.4058,-17.9934 -4.5134,-2.334 -18.9998,-11.2067 -32.1919,-19.7172 -22.5115,-14.5223 -30.7746,-21.5149 -25.3968,-21.4922 2.7596,0 40.978,15.4445 49.3703,19.9358 3.2331,1.7303 5.8783,2.294 5.8783,1.2526 0,-1.0412 -5.0666,-15.572 -11.2587,-32.2901 -6.1923,-16.71813 -12.7068,-38.12213 -14.4767,-47.56435 -4.1653,-22.22256 -14.6599,-58.66336 -16.8854,-58.63182 -1.7492,0.0257 -31.088,95.83137 -38.9201,127.09487 -10.2434,40.8878 -13.6676,78.7908 -11.9092,131.8266 3.3598,101.3476 20.3845,131.2578 56.3426,149.3212 16.2291,8.0794 40.7795,7.9179 55.0567,-2.7316 z m 214.56,-88.5558 c 15.3431,-6.5676 41.6848,-33.096 51.0066,-51.3681 8.1974,-16.0682 11.301,-38.6147 8.2691,-60.0666 -3.5091,-24.8247 -24.219,-65.7182 -42.7825,-84.478 -33.5936,-33.94821 -106.04,-73.78463 -174.6091,-96.01335 -58.335,-18.91087 -106.9684,-33.49053 -108.0632,-32.39567 -0.511,0.51118 2.8658,8.48815 7.5043,17.72673 4.6383,9.23858 10.6468,24.52277 13.352,33.965 2.7049,9.44226 9.7251,32.61864 15.6001,51.50309 10.3812,33.3706 10.7786,34.0942 14.1432,25.7516 9.4497,-23.4311 18.4408,-41.48858 20.6576,-41.48858 4.8834,0 2.1959,16.24158 -7.3381,44.34998 l -9.705,28.6127 8.5153,21.4597 c 4.6835,11.8028 12.129,27.728 16.5453,35.3893 l 8.03,13.9296 7.772,-16.7909 c 9.6166,-20.7756 22.5576,-57.0559 28.3329,-79.4308 4.8482,-18.7819 8.7331,-24.5848 13.3608,-19.9568 5.6915,5.6913 -19.5903,96.6807 -33.5908,120.8937 -7.1149,12.3049 -7.16,12.7442 -2.3493,22.8902 6.5452,13.8048 30.6644,51.8335 32.8748,51.8335 4.7895,0 30.8261,-93.9415 43.0218,-155.2246 2.3232,-11.6747 4.5821,-16.4524 7.7781,-16.4524 13.929,0 -14.7836,123.1263 -39.2434,168.2869 l -8.4028,15.5138 8.6031,-1.7206 c 4.7317,-0.9464 21.7511,0.7582 37.8208,3.7876 16.0695,3.0295 32.4364,6.0978 36.3706,6.8183 11.6045,2.1254 31.919,-1.0731 46.5258,-7.3253 z" fill="#00B894" transform="translate(-62.717481,-154.28048) matrix(0.26458333,0,0,0.26458333,-1136.4905,-79.869893)"/>
</svg>