<?xml version="1.0" ?><svg height="131.60394mm" viewBox="0 0 180.12564 131.60394" width="180.12564mm" xmlns="http://www.w3.org/2000/svg">
    <path color="#000" d="m 1752.4497,1768.1649 c 0,0 42.1598,25.3162 78.0751,21.2351 35.9154,-4.0811 87.5211,-10.5293 87.5211,-10.5293 0,0 65.4821,15.6715 101.3974,16.8959 35.9154,1.2243 93.5069,-10.3661 93.5069,-10.3661 0,0 65.0287,13.5494 116.2715,8.652 51.2429,-4.8974 104.1183,-7.5908 106.3857,-16.0796 2.2674,-8.4888 3.3558,-12.4067 -6.3486,-17.5489 -9.7044,-5.1422 -25.4855,-17.3856 -40.813,-18.1202 -15.3275,-0.7347 -24.125,8.1622 -24.125,8.1622 l -44.1686,-29.4657 -43.0803,-1.0611 -9.7951,-60.7273 -45.3477,-64.5635 -0.3628,-43.1783 -10.1579,-8.8969 14.9648,-14.4472 1.3682,-31.9478 c 22.7352,-10.4402 49.2427,-20.4909 58.0373,-32.3708 -16.4913,-2.3783 -33.6019,-4.394 -69.7448,4.7341 -2.3886,-20.2378 -32.1919,-44.7424 -46.0733,-43.7497 -3.2358,-41.3071 -16.2398,-53.8676 -40.4501,-53.218 -39.5432,1.0611 -31.1085,66.6857 -31.1085,66.6857 0,0 -25.6668,15.1818 -31.8341,45.0557 -6.1673,29.8739 5.6231,63.2575 5.6231,63.2575 0,0 -11.2462,-0.2448 -13.1508,18.61 -1.9046,18.8548 6.258,32.4042 6.258,32.4042 0,0 -20.7104,27.4392 -37.5479,55.9931 -19.5565,33.165 -4.7172,95.404 -3.1997,95.1902 0,0 -30.539,-33.0754 -63.28,-30.4635 -32.741,2.6119 -26.1203,34.5264 -26.1203,34.5264 0,0 -64.9107,-21.6565 -82.7006,15.3318 z" fill="#FFFFFF" overflow="visible" paint-order="fill markers stroke" transform="translate(-29.07701,-145.18868) matrix(0.30508702,0,0,0.30508702,-504.24635,-271.10009)"/>
    <path d="m 2092.624,1774.3106 c -7.2602,-1.0507 -9.3333,-2.2232 -9.3333,-5.2788 0,-3.9012 10.8161,-8.0762 25.3376,-9.7799 11.785,-1.3827 14.0237,-1.2856 21.3241,0.9248 8.5145,2.578 14.3651,8.0689 12.8379,12.0488 -0.8171,2.1295 -5.5643,2.6721 -6.7396,0.7705 -0.4018,-0.6502 -2.7095,-1.5534 -5.1282,-2.0072 -3.858,-0.7237 -7.4479,-0.3198 -22.2985,2.5094 -7.9312,1.5109 -10.3313,1.6328 -16,0.8124 z m -340.1752,-6.1455 c -5.2028,-2.8269 -5.6289,-5.616 -1.8445,-12.0736 3.8614,-6.5891 8.4261,-10.1707 16.0197,-12.5695 9.8542,-4.9566 19.9977,-2.6547 29.3333,-2.1014 6.6,0.3837 15.2319,1.3112 19.182,2.0609 11.8821,2.2555 11.4847,2.5197 11.4847,-7.6367 0,-12.9637 1.6494,-14.838 19.3333,-21.9689 4.0099,-1.6169 11.0167,-2.3845 22.6667,-2.4832 10.4006,-0.088 23.9575,3.6808 32.1092,8.9264 7.7279,4.9729 12.1814,7.3463 12.7389,6.7887 0.2483,-0.2483 -0.821,-4.009 -2.3762,-8.3572 -5.7281,-16.0151 -4.2852,-37.2102 3.8444,-56.4727 2.6212,-6.2108 3.1601,-8.7187 1.9592,-9.1191 -0.9111,-0.3036 -2.4119,-1.2485 -3.3353,-2.0997 -8.6232,-5.5227 -16.83,-12.0119 -22.7773,-18.2143 -5.6049,-5.8666 -10.7114,-10.6666 -11.3476,-10.6666 -0.6362,0 -1.9799,-1.2026 -2.986,-2.6723 -1.246,-1.8203 -3.955,-2.9313 -8.496,-3.4848 -7.8025,-0.9509 -19.3096,-5.9392 -26.1918,-11.3537 -2.6722,-2.1024 -5.2877,-3.8226 -5.8121,-3.8226 -1.9654,0 -7.2842,-6.0905 -7.3064,-8.3664 -0.051,-5.2184 12.1297,-5.9856 17.977,-1.1324 5.3515,4.4419 11.5591,8.3842 12.1972,7.746 0.3598,-0.3597 0.013,-1.9126 -0.7715,-3.4506 -0.7841,-1.5382 -2.0514,-4.0295 -2.816,-5.5364 -1.9378,-3.8186 -3.0185,-18.8763 -1.5126,-21.0747 1.9169,-2.7981 9.7479,-2.7195 13.9029,0.1396 3.0103,2.0716 3.668,3.5213 3.6741,8.0991 0.01,6.752 2.3063,15.5758 4.0552,15.5758 0.6989,0 1.262,-1.05 1.2514,-2.3333 -0.026,-3.1604 5.0228,-19.6424 8.22,-26.8337 2.5588,-5.7554 2.6667,-5.8238 8.0465,-5.1023 9.1595,1.2287 9.4536,2.2143 5.65,18.936 -1.8348,8.0667 -4.5837,18.484 -6.1084,23.1495 l -2.7724,8.4829 3.1591,2.9292 c 1.7375,1.6111 4.6847,4.6939 6.5494,6.8505 4.5425,5.2539 15.7499,14.4435 21.6705,17.7688 l 4.7974,2.6946 c 8.7507,-16.1453 17.9081,-27.1847 29.811,-39.9091 l -1.6848,-6.0176 c -0.9266,-3.3096 -2.1227,-6.2881 -2.6579,-6.6189 -1.7287,-1.0684 -0.3644,-23.7374 1.9621,-32.6042 2.9881,-11.3877 5.5195,-16.059 8.7025,-16.059 2.7634,0 2.6813,-0.9788 -0.7315,-8.72 -2.949,-6.6894 -4.775,-21.7951 -3.99,-33.0071 1.2505,-11.4606 3.295,-21.9015 7.954,-32.2729 3.0968,-7.2636 11.4435,-24.2972 20.8438,-24.6667 3.3446,0.2863 3.1821,-5.2243 0.8484,-5.3333 -4.2189,0 -12.9097,-5.5066 -13.7075,-8.6851 -1.435,-5.7176 0.079,-6.9421 11.0284,-8.9205 10.3878,-1.877 10.427,-1.8996 10.0104,-5.806 -1.9813,-18.577 -1.8367,-21.1739 1.4493,-26.016 8.2854,-17.1429 28.6037,-22.528 45.8386,-19.4284 9.3127,2.118 21.7579,11.8942 25.6313,20.1345 2.2568,4.8012 5.3173,18.8497 5.4727,25.1211 0.014,0.5864 0.8792,0.5864 1.9214,0 1.0423,-0.5864 6.8923,-0.7663 13,-0.3996 l 11.105,0.6666 c 1.3102,9.9778 -3.8914,10.9756 -9.9267,12.0063 -5.5287,0.9167 -5.7525,1.11 -3.3333,2.8795 6.8475,2.0573 12.2707,7.2639 17.9266,10.2649 4.2594,2.2368 7.6422,5.6213 11.6607,11.6667 3.1134,4.6838 5.6634,9.4736 5.6667,10.6438 0,1.5756 1.1308,2.0462 4.3393,1.8126 2.3833,-0.1735 5.2333,-0.6452 6.3333,-1.0484 1.9351,-0.7091 8.2572,-1.6267 19.3334,-2.8056 12.8514,-1.3682 33.0388,-0.5826 38.2107,1.4868 4.7059,1.8829 5.2227,2.5406 4.8608,6.1869 -0.3155,3.1792 -1.5823,4.7404 -5.7382,7.0713 -2.9333,1.6452 -7.4333,4.179 -10,5.6306 -12.5826,10.0619 -26.829,14.4065 -36.108,18.775 l -10.1079,4.763 v 14 c 0,15.516 -1.6124,20.5348 -8.6334,26.892 -3.6269,3.284 -3.7311,3.622 -1.35,4.3777 4.078,1.2943 5.0962,4.964 8.1251,29.2843 0.8525,6.8452 0.6703,10.7953 -0.7071,15.3333 -2.2853,7.5289 -2.3009,8.1111 -0.2176,8.1191 0.9167,0 4.0667,2.1192 7,4.7017 2.9333,2.5824 5.9511,5.1796 6.7061,5.7716 0.755,0.592 3.6476,3.7263 6.4279,6.9649 4.8943,5.7014 5.1165,5.8039 6.9859,3.222 2.8951,-3.9985 5.4161,-6.9712 15.8305,-18.6666 5.2241,-5.8667 12.0951,-13.8368 15.2689,-17.7115 l 5.7706,-7.0447 0.5658,-21.622 c 0.9236,-35.2985 0.6624,-34.1934 7.6661,-32.4357 4.961,1.2452 6.7679,7.6732 6.4128,22.8139 l -0.3126,13.3333 2.6036,-3.3333 c 1.4319,-1.8334 5.4193,-8.2012 8.8608,-14.1507 l 6.2573,-10.8173 4.3518,1.3356 c 2.3935,0.7345 5.0913,2.7172 5.995,4.406 1.3874,2.5921 1.1818,4.0686 -1.3198,9.4817 -1.6298,3.5263 -4.7726,8.7011 -6.9841,11.4997 -4.7344,5.9912 -4.1747,7.3615 1.8657,4.5678 9.3,-4.3012 13.8054,-3.9086 12.8373,1.1186 -0.5477,2.8438 -14.1008,14.2138 -21.5262,18.0588 -4.6946,2.431 -5.376,2.4726 -9.2048,0.5626 -2.2742,-1.1346 -4.3003,-2.0628 -4.5023,-2.0628 -9.8343,17.258 -23.0521,28.7016 -31.732,39.0993 -2.8466,3.4135 -6.8875,7.9975 -8.9797,10.1868 -4.1327,4.3244 -4.0804,4.9892 1.2309,15.6684 5.1833,14.9303 12.8789,30.0826 14.3806,46.3788 0.6765,7.8984 1.3392,15.1507 2.0555,23.0156 14.3692,-0.6153 32.1786,-1.9023 42.6529,2.0463 11.9875,4.5584 20.1132,9.8673 31.3123,20.4576 2.5452,2.4069 3.3949,2.5894 5.4367,1.1672 12.0549,-6.6452 25.0743,-0.8474 35.6865,-0.6856 4.3164,0 26.2064,11.5042 34.3011,18.0242 4.113,3.313 6.5501,7.6528 5.3392,9.5079 -0.4988,0.7643 -2.488,1.776 -4.4203,2.2484 -2.7988,0.6843 -4.5025,-0.047 -8.3764,-3.5955 -7.2597,-6.3598 -16.1679,-8.7706 -23.5721,-12.499 -6.4455,-3.285 -25.2538,-3.2627 -28.8968,0.035 -1.6672,1.5087 -2.3751,3.4811 -1.9838,5.5278 -2.1954,11.8449 -16.6912,5.7752 -16.9909,-1.9262 0,-1.5338 -0.8385,-4.4102 -1.8635,-6.3922 -7.2939,-11.6067 -36.9415,-27.9448 -53.4698,-20.0526 -8.8094,2.6876 -19.5719,3.3215 -26.7236,8.605 -4.7546,3.6078 -8.8364,3.0712 -11.8714,-1.5608 -2.5435,-3.8819 -0.9218,-9.268 4.0174,-13.3432 3.3242,-2.7427 3.3323,-2.8042 1.9183,-14.6667 -2.3898,-20.0488 -3.4703,-26.0881 -7.0376,-39.3375 -4.4276,-16.4448 -7.7568,-24.1473 -10.0557,-23.2652 -4.7902,1.8382 -9.2718,-5.752 -5.5775,-9.4462 1.8627,-1.8628 -5.4206,-11.5171 -15.328,-20.3179 -2.1952,-1.9501 -5.943,-5.5359 -8.3283,-7.9685 l -4.3369,-4.423 -16.3383,-0.019 c -20.4665,-0.025 -19.6717,-0.095 -19.6717,1.715 0,0.8347 -2.4243,4.1475 -5.3873,7.362 -4.818,5.227 -19.0915,32.4024 -21.948,41.7871 -12.4045,23.7682 -8.6721,45.6836 -13.9711,49.9832 -0.7184,0.444 -10.0532,0.8725 -20.744,0.9523 -10.6908,0.08 -18.7142,0.5921 -17.8297,1.1388 1.2309,0.7606 1.0632,2.9802 -0.7146,9.4598 -1.2775,4.6563 -2.6255,10.3603 -2.9956,12.6758 -0.37,2.3153 -2.276,5.7457 -4.2356,7.623 l -3.5627,3.4135 -4.4507,-4.1595 c -4.211,-3.9356 -4.4037,-4.5129 -3.5797,-10.7244 0.479,-3.6108 2.0526,-9.563 3.4969,-13.2273 2.8411,-7.2079 2.5267,-9.1352 -1.4901,-9.1352 -1.6147,0 -2.588,0.9135 -2.588,2.4292 0,1.336 -0.8405,5.086 -1.8678,8.3333 -1.0274,3.2472 -3.2026,10.2542 -4.8339,15.5708 -4.5055,15.6647 -6.8285,7.6303 -12.1659,0.051 -4.4625,-10.7961 0.499,-17.7726 3.0622,-31.0512 0.7016,-3.6666 2.1503,-8.5688 3.2193,-10.8936 3.2563,-8.7632 5.2021,-18.5563 7.5135,-26.4397 2.1582,-7.3333 4.3869,-15.1401 4.9528,-17.3484 1.051,-3.8445 19.6254,-37.5022 25.1198,-37.9759 0.9167,0 1.6667,-0.5521 1.6667,-1.2158 0,-0.6639 -6.7421,-1.1139 -14.9825,-1 -13.1202,0.181 -15.0383,0.4972 -15.4317,2.5433 -0.2471,1.2852 -4.1723,6.0852 -8.7226,10.6667 -8.0592,8.1145 -22.381,28.2128 -24.058,33.7617 -0.6333,2.0952 0.6039,4.2249 5.1085,8.7941 4.4931,4.5575 5.7599,6.7343 5.1893,8.9164 -1.1089,4.2404 -8.8015,5.3252 -18.914,2.6672 -1.1717,-0.308 -2.9928,2.5835 -5.1587,8.1907 -4.5164,11.6924 -5.9013,36.9224 -2.5135,45.7932 -1.192,14.6596 20.9906,19.4073 12.6546,28.7401 -2.2959,2.4643 -3.6908,2.8743 -7.4077,2.177 -2.5185,-0.4724 -5.7456,-2.0256 -7.1714,-3.4514 -5.5589,-2.5933 -10.4192,-6.5893 -15.0759,-9.3374 -4.2993,-2.5235 -9.9993,-5.9486 -12.6667,-7.6112 -8.1049,-5.0522 -11.1422,-6.0348 -20.6345,-6.6756 -9.5936,-0.6478 -22.9668,1.4754 -29.3202,4.6549 -3.5738,1.7884 -7.5617,8.6175 -7.5617,12.9489 0,2.677 5.2098,7.3919 7.2869,6.5948 2.7097,-1.0397 11.3798,4.8067 11.3798,7.6736 0,4.0864 -3.4019,4.4239 -19.1995,1.9047 -32.4956,-5.182 -41.8792,-6.1792 -52.555,-5.5852 -12.6567,0.7043 -17.9638,3.3651 -23.6157,11.8403 -3.6471,5.469 -4.8939,5.8364 -10.1384,2.9869 z m 270.4074,-82.6719 c 1.6376,-13.0444 7.3021,-24.5215 12.4487,-35.9817 8.7587,-12.7013 11.5765,-41.8861 25.5161,-48.0625 4.8911,-1.5524 2.312,-2.5999 -5.8628,-2.3812 -4.5838,0.1226 -16.2216,0.3857 -25.8618,0.5849 l -17.5275,0.3623 0.1272,4.4858 c 0.092,3.2624 -0.8048,5.2848 -3.2895,7.415 -1.8792,1.6109 -4.1822,5.029 -5.1178,7.5957 -6.5988,12.261 -10.1924,24.2175 -13.9469,36.8469 -1.0718,3.5675 -3.4718,11.5332 -5.3333,17.7015 -1.8615,6.1683 -3.3846,11.6363 -3.3846,12.1511 0,0.5149 3.45,1.6117 7.6667,2.4374 11.6151,2.2747 13.5264,2.4852 24.3333,2.6815 l 10,0.1816 0.2323,-6.0183 z m 83.859,-98.52 c 9.6963,-0.5473 10.5106,-2.2021 8.6882,-17.655 -0.8502,-7.2086 -2.0655,-13.626 -2.7007,-14.2612 -0.6509,-0.6511 -4.077,-0.5283 -7.8519,0.2813 -4.3354,0.9297 -8.0248,0.9947 -10.462,0.1839 -9.4047,-3.1286 -24.2526,-3.8696 -61.7648,-3.083 -21.6333,0.4538 -44.872,0.8806 -51.6415,0.9486 l -12.3082,0.124 -1.291,6.6666 c -0.7101,3.6667 -1.5374,10.4263 -1.8385,15.0215 -0.4995,7.6233 -0.3011,8.4149 2.2659,9.0413 29.0404,-1.5593 62.4179,1.5091 88.1466,1.8474 9.5334,0.104 23.0334,0.6378 30,1.1861 6.9667,0.5481 13.1315,0.7812 13.6996,0.5177 0.5681,-0.2634 3.7443,-0.6321 7.0583,-0.8192 z m -1.014,-50.4452 c 4.0279,-3.1074 8.1229,-7.5632 9.0999,-9.9016 1.9162,-4.5858 4.0139,-19.1149 2.7599,-19.1149 -0.4199,0 -2.4525,0.6917 -4.5169,1.5372 -13.3821,6.2125 -25.2014,7.5152 -39.0868,9.9179 -1.8333,0.319 -7.1493,0.8381 -11.8133,1.1536 -11.7148,1.6978 -20.1136,2.1699 -23.4304,-10.6087 -2.2742,-9.9107 -2.288,-11.7625 -0.1301,-17.4127 6.421,-13.0867 13.0736,-11.3706 22.7072,-15.8784 10.2459,-4.8396 11.4703,-5.3045 22.6667,-8.6073 11.2913,-3.3308 21.6589,-5.3315 22.6244,-4.366 0.3899,0.3899 0.7089,-0.048 0.7089,-0.9743 0,-2.4854 -4.3247,-9.8388 -6.9345,-11.791 -1.2473,-0.933 -3.1272,-2.5558 -4.1775,-3.606 -15.5868,-17.0762 -31.6373,-20.5301 -50.2213,-16.8324 -10.5979,2.0725 -28.61,7.4784 -36.6667,11.0045 -5.0068,2.1913 -15.9935,9.3663 -19.7809,12.918 -11.5947,14.7909 -17.9642,35.7012 -18.2209,54.0685 0,10.9283 3.8457,27.2478 7.0428,29.9011 1.1211,0.9304 7.0426,1.0692 17.6562,0.4137 18.4618,-1.14 74.3785,-0.7569 79.3028,0.5435 1.8333,0.4841 6.6333,1.1873 10.6667,1.5625 4.0333,0.3752 7.5833,0.9164 7.8888,1.2027 1.6261,1.5229 5.283,-0.06 11.855,-5.1299 z m -75.7207,-55.4549 c -9.0068,-9.0067 -7.1706,-24.9964 2.388,-20.796 1.2405,0.5451 2.6941,0.8996 3.2303,0.7879 0.5361,-0.112 1.962,1.3034 3.1686,3.1449 3.5047,5.3489 0.7323,20.6349 -3.7426,20.6349 -0.6999,0 -2.9699,-1.6973 -5.0443,-3.7717 z m 45.0028,-15.2283 c -2.8947,-2.2434 -5.8886,-10.2598 -5.287,-14.1561 0.4333,-2.8055 1.0064,-3.0719 5.1598,-2.3979 2.5699,0.4171 5.519,1.4608 6.5535,2.3195 2.743,2.2764 2.3867,11.0303 -0.5573,13.6945 -2.9235,2.6458 -3.1278,2.6646 -5.869,0.54 z m -17.026,41.616 c 0,-0.67 -1.0946,-3.0181 -2.4324,-5.218 -1.8639,-3.065 -2.7988,-3.6334 -4,-2.4322 -1.9108,1.9108 -2.033,5.3688 -0.2527,7.1492 1.7069,1.7068 6.6851,2.08 6.6851,0.501 z m 27.5505,-3.0553 c 0.2872,-0.2872 -1.3793,-4.2373 -3.7034,-8.7781 -2.9275,-5.7199 -4.8152,-8.0296 -6.1453,-7.5192 -1.0559,0.4052 -2.7043,0.7366 -3.6631,0.7366 -0.9588,0 -3.0712,1.0754 -4.6942,2.3895 -2.7452,2.2229 -2.835,2.7765 -1.2881,7.9395 0.9145,3.0524 2.6259,5.8402 3.8032,6.1953 2.2756,0.6861 14.8108,-0.084 15.6909,-0.9636 z m 21.7023,-8.3283 c 1.6657,-1.5909 1.5336,-2.6058 -1,-7.6788 -1.6057,-3.2152 -2.9195,-6.6066 -2.9195,-7.5366 0,-1.2404 -1.4969,-1.4518 -5.6166,-0.793 -6.8486,1.0951 -6.7736,1.0244 -5.2388,4.9371 0.6844,1.7447 2.0111,5.7471 2.9482,8.894 1.6233,5.4516 1.8974,5.6813 5.8055,4.8661 2.256,-0.4706 4.9655,-1.6806 6.0212,-2.6888 z m 18.4857,-8.4746 c 4.0243,-1.5854 4.3278,-2.0966 3.5109,-5.9132 -1.2026,-5.6188 -1.2968,-5.6502 -4.9951,-1.6596 -1.7747,1.9149 -3.9079,3.4817 -4.7405,3.4817 -0.8326,0 -1.5138,0.5509 -1.5138,1.2243 0,2.218 1.6457,5.5644 2.4976,5.0786 0.4597,-0.262 2.8181,-1.2573 5.2409,-2.2118 z m 34.9282,-17.6563 c 0,-0.7669 -1.0312,-0.9911 -2.3072,-0.5015 -1.2689,0.487 -6.9689,1.5447 -12.6666,2.3504 -5.6978,0.8058 -10.3517,1.8216 -10.3421,2.2574 0.01,0.4357 1.9107,2.0193 4.2245,3.5192 l 4.2071,2.7269 8.4421,-4.4828 c 4.6432,-2.4655 8.4422,-5.1068 8.4422,-5.8696 z m -129.3333,-55.0855 c 23.218,-1.6908 26.6666,-2.2869 26.6666,-4.6101 0,-2.182 -2.063,-14.9904 -3.394,-21.0717 -1.0296,-4.7043 -10.0777,-9.6708 -17.5795,-9.6492 -13.8112,0.4804 -30.2732,3.5208 -28.5374,26.5942 0.021,4.4462 0.4346,8.7247 0.9186,9.5078 0.5383,0.871 3.2825,1.1202 7.0695,0.6418 3.4042,-0.43 10.0895,-1.0657 14.8562,-1.4128 z m -27.6678,321.5036 c -5.9012,-2.9224 -7.0727,-15.627 -2.1461,-23.2729 1.6543,-2.5673 2.7035,-2.934 6.2347,-2.1795 6.7208,1.4363 7.1872,2.3831 6.9209,14.0474 -0.3003,13.154 -2.6219,15.559 -11.0095,11.405 z m 111.9036,-3.3 c -2.1678,-1.8906 -2.9682,-3.8297 -2.6667,-6.4605 0.3973,-3.4661 0.8725,-3.7591 6.0992,-3.7591 3.497,0 5.6678,-0.6082 5.6667,-1.588 0,-2.7268 2.5394,-3.3269 7.3577,-1.7366 4.0545,1.338 4.6406,2.0884 4.6406,5.9413 0,5.3561 -4.4656,8.8004 -12.5786,9.7019 -4.1296,0.4589 -6.1595,-0.041 -8.5189,-2.099 z m -95.6405,-5.1177 c -1.4123,-4.9364 -1.281,-7.5611 0.6065,-12.1177 1.301,-3.1408 2.4028,-3.7883 6.742,-3.9612 7.1133,-0.2838 8.4091,1.6989 5.9073,9.0386 -2.3825,6.9895 -3.9581,8.796 -8.681,9.9526 -3.0118,0.7374 -3.6461,0.3337 -4.5748,-2.9123 z m 73.3335,-34.828 c -9.5736,-5.3471 -10.1407,-6.146 -10.2148,-14.3904 -0.062,-6.9357 0.3355,-8.0755 3.9442,-11.2999 5.5838,-4.9892 20.0353,-7.5969 25.8964,-4.673 2.2259,1.1104 6.0303,2.391 8.4541,2.8457 6.0461,1.1343 12.6579,7.8181 12.6579,12.7959 0,8.1228 -13.1037,15.8921 -27.9785,16.5886 -6.3088,0.2955 -9.8031,-0.2158 -12.7593,-1.8669 z m 22.1243,-10.9676 c 6.1504,-3.1377 6.604,-5.5025 1.851,-9.6484 -4.9577,-4.3244 -9.5058,-5.1935 -15.0518,-2.8761 -5.2632,2.199 -6.8014,3.9508 -6.8319,7.78 -0.058,7.3046 10.2355,9.7426 20.0327,4.7445 z m -30.1025,-66.5443 c 13.7222,-14.9594 29.0098,-3.6732 36.907,4.4895 5.1616,5.3889 1.5051,13.9504 -7.6964,18.0207 -22.1089,8.7387 -37.7095,-4.7397 -29.2106,-22.5102 z m 28.716,10.4495 c -0.7394,-5.4353 -8.6368,-9.3274 -13.0096,-10.3313 -5.3535,-1.1956 -5.7219,-1.086 -6.4779,1.9261 -1.5193,6.0533 0.4129,9.4993 6.4848,11.5655 4.8589,1.6533 6.1935,1.6644 9.336,0.077 2.0167,-1.0181 3.6667,-2.4753 3.6667,-3.238 z" fill="#00B894" transform="translate(-29.07701,-145.18868) matrix(0.30508702,0,0,0.30508702,-504.24635,-271.10009)"/>
</svg>