<?xml version="1.0" ?><svg height="392.68799mm" viewBox="0 0 325.90305 392.68799" width="325.90305mm" xmlns="http://www.w3.org/2000/svg">
    <path d="m 6468.5437,5085.486 c -5.1309,0.088 -10.3752,1.9099 -13.2901,3.9667 -5.1818,3.6567 -8.6557,11.6588 -4.0628,18.9192 4.5932,7.2604 9.4216,14.2558 -1.2956,20.8272 -10.7172,6.5715 -12.0129,7.5788 -12.3661,11.7124 -0.3535,4.1335 -1.7079,10.0692 -1.7079,10.0692 0,0 -5.4175,-3.816 -8.3618,-0.7953 -2.9445,3.0208 -7.832,7.1016 -9.9519,7.4197 -2.12,0.318 -6.4774,-1.484 -9.8929,2.7554 -3.4155,4.2397 -3.7095,8.0556 0.8837,10.8112 4.5929,2.7559 15.6636,7.5256 15.6636,7.5256 0,0 -7.0663,1.2186 -3.4153,10.5456 3.6507,9.3274 14.6626,16.8001 16.5473,25.7034 1.8843,8.9032 -2.6504,28.0344 -2.6504,28.0344 0,0 -10.0692,-1.6958 -21.0809,3.4448 -11.0117,5.1406 -39.1595,56.3345 -51.7023,76.3669 -12.5429,20.0321 -40.966,70.1725 -40.966,70.1725 4.4751,23.1592 45.6957,53.2608 62.2427,52.6247 16.547,-0.6358 151.6911,-4.7164 163.7627,-13.1429 12.0715,-8.4262 24.2613,-29.6778 16.4294,-47.5371 -7.832,-17.8596 -39.8071,-94.9684 -41.5147,-101.4336 -1.7079,-6.4654 -15.9584,-31.2141 -23.7903,-36.4076 -7.8319,-5.1935 -24.7908,-7.8967 -24.7908,-7.8967 l -0.8247,-12.454 c 0,0 -6.7908,-0.7486 -5.7309,-6.5252 1.06,-5.7764 17.195,-13.9907 21.7294,-17.3292 4.5342,-3.3388 5.7708,-7.5787 6.0653,-13.7263 0.2942,-6.1473 -11.7777,-9.4331 -15.8409,-12.2416 -4.0629,-2.8088 -4.8872,-12.7718 3.5925,-12.4008 8.4796,0.3709 16.1934,4.0274 24.0254,2.7027 7.8319,-1.3251 10.8353,-7.2075 8.7152,-11.235 -2.1198,-4.0278 -8.7152,-10.9704 -3.5331,-12.8783 5.1819,-1.9079 14.1913,-12.613 9.0682,-19.3435 -5.1231,-6.7305 -14.898,-5.2991 -20.6101,-2.1725 -5.7119,3.1269 -16.017,12.1887 -19.4913,7.8429 -3.4742,-4.3455 0.7654,-11.2346 4.5341,-16.3752 3.7687,-5.1405 0.4123,-17.6475 -5.7707,-23.9009 -2.7051,-2.7359 -6.6273,-3.717 -10.618,-3.6488 z m 32.8688,129.6262 c -2.1733,0 -4.455,0.394 -6.7252,1.0872 -6.0539,1.8484 -9.7835,3.9645 -14.1076,8.7075 -2.7836,2.5537 4.2158,3.2346 10.4319,1.2645 6.2159,-1.9701 5.3782,0.219 8.432,4.2081 3.0541,3.9888 3.5136,8.9259 7.0813,9.7286 3.5673,0.8025 4.2699,-4.6939 4.8374,-7.1262 0.5676,-2.4324 4.8109,-0.7298 5.919,-3.6484 1.108,-2.9189 -2.5139,-6.6888 -6.4596,-10.6779 -2.466,-2.493 -5.787,-3.5515 -9.4092,-3.5434 z m -97.6457,0.2124 c -1.7809,-0.016 -3.0214,0.6867 -3.4277,1.8231 -0.9998,2.7971 -0.4594,6.0079 -0.4594,6.0079 0,0 -10.5944,-1.9703 -15.567,1.5079 -4.9729,3.478 -10.8914,7.5153 -15.1345,12.4773 -4.2431,4.9617 -13.3511,9.2671 -13.3511,9.2671 -2.2704,3.9888 -3.3244,10.1912 0.5131,10.264 3.8378,0.073 12.7026,-7.3213 15.1619,-9.3157 2.4596,-1.9944 14.4864,-11.8453 18.3782,-13.0126 3.8917,-1.1676 12.3776,-2.2134 14.9448,-1.1431 2.5675,1.0702 10.5401,4.7674 12.7563,2.7243 2.2161,-2.043 3.2707,-8.3181 -3.4587,-15.0311 -3.9957,-3.9858 -7.7531,-5.5456 -10.3559,-5.5691 z" fill="#FFFFFF" paint-order="markers stroke fill" transform="translate(4.3836518,182.5007) translate(-6284.0346,-5263.1754)"/>
    <path d="m 6482.9817,5469.1463 c -4.5668,-2.2663 -11.445,-4.6514 -15.2844,-5.3002 -3.974,-0.6715 -8.0327,-2.681 -9.4233,-4.6663 -2.1118,-3.015 -2.9957,-3.1951 -6.5362,-1.3311 -2.252,1.1856 -6.3152,4.0027 -9.0293,6.2607 -5.9939,4.9859 -11.4926,5.1434 -25.6611,0.7334 -7.7755,-2.4203 -12.0315,-2.9151 -15.0827,-1.7553 -2.3381,0.8892 -10.9854,3.2743 -19.2165,5.3007 -14.557,3.5836 -15.3057,3.6019 -27.4054,0.6888 -16.4945,-3.9721 -17.2308,-4.6945 -15.8705,-15.5829 1.5998,-12.8043 -1.8437,-15.5883 -18.824,-15.2157 -15.0351,0.3316 -21.7387,-2.3534 -33.6529,-13.4699 -7.0296,-6.5591 -7.8139,-8.2831 -7.1583,-12.6564 0.9314,-6.2127 6.6199,-16.0327 20.561,-29.8668 26.9923,-26.736 30.0118,-30.4196 51.1547,-62.4113 12.358,-18.6988 25.6167,-39.909 29.464,-47.133 10.0189,-18.8143 12.6544,-22.1613 21.5496,-27.3744 5.7084,-3.3452 10.7974,-4.7723 18.1179,-5.0806 14.0485,-0.5918 14.5136,-1.0668 13.2137,-13.5049 -1.105,-10.5713 -6.0237,-21.2716 -14.4631,-31.4623 -4.8014,-5.7975 -5.1167,-9.4019 -1.2994,-14.8515 2.961,-4.2274 9.4637,-4.6326 10.7686,-0.671 0.4057,1.2302 -0.1931,2.0155 -1.3346,1.7458 -1.1397,-0.2722 -2.9616,0.8596 -4.0493,2.5108 -1.6216,2.4623 -0.9991,4.0309 3.4659,8.7284 13.0518,13.7322 16.5117,30.4804 10.4698,50.6777 -2.7623,9.2327 -6.3963,13.507 -6.3963,7.522 0,-3.836 -2.3446,-4.5025 -9.1882,-2.6128 -6.6332,1.8314 -13.8123,11.4956 -16.2158,21.8297 -0.6546,2.8156 -3.1881,9.6785 -5.6306,15.2504 -4.1299,9.4237 -4.2384,10.3331 -1.5533,13.0182 3.3585,3.3579 4.8558,2.1529 8.1558,-6.5655 1.2722,-3.3605 3.3021,-7.288 4.5109,-8.7285 1.209,-1.4399 3.8856,-7.1355 5.948,-12.6569 2.063,-5.5214 4.9286,-11.2169 6.368,-12.6564 3.9226,-3.9225 10.4099,-3.1679 14.2014,1.6528 4.8523,6.1681 6.3571,25.5276 2.9338,37.748 -1.4602,5.2136 -3.1397,20.0097 -3.7321,32.8809 -0.9857,21.4225 -0.8055,23.5998 2.1333,25.7483 6.9708,5.0973 7.5027,3.5104 7.6166,-22.7214 0.07,-15.28 1.142,-29.9801 2.7542,-37.6461 1.4553,-6.9173 2.6459,-16.7403 2.6459,-21.8287 0,-14.0524 9.3203,-23.5329 15.6438,-15.9135 3.7073,4.4664 7.1666,18.7197 9.6967,39.9502 2.1323,17.8898 3.2823,22.1117 8.5587,31.422 3.3525,5.9153 8.0757,13.1122 10.4965,15.9926 3.7142,4.4204 4.6827,4.8287 6.2102,2.6182 0.995,-1.44 1.3237,-4.1893 0.7293,-6.1097 -1.9669,-6.3591 -2.6304,-26.1437 -0.9599,-28.6213 3.1887,-4.7302 6.7856,-0.3068 13.5179,16.628 3.7435,9.4151 12.3111,28.1418 19.0394,41.6142 10.2197,20.4639 12.8053,24.3959 15.711,23.8927 1.913,-0.3316 3.6267,-0.7418 3.8082,-0.9121 0.1832,-0.1682 -1.961,-5.0052 -4.7613,-10.7443 -2.8002,-5.7396 -5.1092,-12.0671 -5.131,-14.0618 -0.049,-4.0205 -7.6135,-23.5215 -11.3831,-29.323 -4.128,-6.3532 -13.0806,-30.2122 -14.8629,-39.6112 -2.2461,-11.8453 -20.3002,-47.9262 -26.6574,-53.2755 -6.1255,-5.1547 -11.6949,-5.3848 -15.7481,-0.6507 -1.679,1.9611 -3.7722,3.1215 -4.6515,2.5781 -2.8038,-1.7329 -4.164,-16.3874 -1.7869,-19.2521 1.4222,-1.7136 1.5118,-2.6024 0.2623,-2.6024 -3.2179,0 -5.8534,-6.6831 -3.9656,-10.0565 0.9318,-1.6646 7.0529,-6.5639 13.6026,-10.8874 9.1683,-6.0508 12.0334,-8.9401 12.4511,-12.5545 0.7105,-6.1547 -5.0236,-11.8894 -11.8894,-11.8894 -2.8934,0 -6.7853,-1.5478 -8.6968,-3.4599 -2.8691,-2.8685 -3.1502,-4.2758 -1.6449,-8.2345 2.7048,-7.1138 4.8425,-9.0462 11.362,-10.2694 4.3442,-0.8145 7.5562,-0.1336 12.1442,2.5726 7.3928,4.362 15.1965,4.7466 19.0057,0.9373 3.6658,-3.6657 3.493,-4.8266 -1.6211,-10.9043 -5.8138,-6.9093 -5.5129,-9.5013 1.7458,-15.038 7.1969,-5.4888 7.7892,-10.2846 1.7586,-14.236 -5.3185,-3.4846 -11.7073,-2.2074 -18.7958,3.7574 -13.7841,11.5989 -25.7325,2.3435 -14.385,-11.1423 6.1543,-7.3137 5.6323,-13.365 -1.7927,-20.7901 -5.6465,-5.6465 -6.8099,-6.0829 -14.036,-5.2685 -8.3484,0.9408 -14.7204,5.224 -14.7204,9.8948 0,1.5483 1.964,5.7055 4.3644,9.2376 2.4001,3.5327 4.3467,7.8392 4.3254,9.5702 -0.055,4.6054 -5.2477,10.6028 -12.1819,14.0735 -5.8712,2.9389 -7.3048,5.4428 -9.633,16.821 -0.7758,3.7944 -1.5309,4.5556 -3.0318,3.0547 -3.3174,-3.3174 -6.0905,-2.2679 -7.3587,2.7849 -1.534,6.1113 -3.6445,7.3424 -10.6424,6.2067 -4.5278,-0.7348 -6.0499,-0.1781 -7.6398,2.792 -1.7711,3.3089 -1.2707,4.1318 4.6317,7.6199 6.0354,3.5673 6.2626,3.9612 2.5884,4.4817 -5.0508,0.7161 -11.9146,-3.6578 -13.4798,-8.5898 -1.7602,-5.5452 4.2917,-12.7965 11.254,-13.4853 3.0913,-0.3068 7.1381,-2.0729 8.9923,-3.9275 3.7775,-3.7776 8.662,-4.3664 11.6265,-1.4019 1.4634,1.4632 1.8898,-0.1484 1.6583,-6.2637 -0.2574,-6.7643 0.4255,-8.8293 3.8092,-11.5712 2.2669,-1.8359 5.4838,-3.3377 7.149,-3.3377 1.665,0 4.4648,-1.5883 6.2215,-3.5292 3.4921,-3.8591 3.8894,-2.4444 -5.5693,-19.8394 -2.492,-4.5832 -2.4896,-5.5644 0.049,-10.8443 3.2684,-6.8545 13.9535,-12.9202 22.7591,-12.9202 7.5526,0 15.0257,5.9969 19.308,15.4938 3.8231,8.4775 2.7835,13.7426 -4.308,21.8193 -3.2442,3.695 -4.8202,7.0202 -4.1523,8.7606 1.6548,4.3125 4.7941,3.3737 10.5816,-3.1635 6.1346,-6.9291 17.0892,-10.6855 23.7626,-8.1485 5.7168,2.1733 11.7463,10.0576 11.7463,15.3597 0,5.2181 -8.8431,14.4686 -13.831,14.4686 -4.5669,0 -4.612,2.0575 -0.1337,6.1097 4.3066,3.8973 4.5267,11.6187 0.4355,15.3048 -4.8509,4.3714 -11.8513,5.2997 -21.4393,2.8423 -5.8281,-1.4938 -9.8042,-1.7047 -11.5366,-0.612 -4.1453,2.6147 -3.0334,5.0592 2.8483,6.2621 7.3632,1.5062 11.9488,6.0716 13.2928,13.2353 1.3968,7.4468 -1.3158,13.7629 -6.6254,15.4256 -4.5584,1.4276 -19.074,10.9279 -21.0276,13.7623 -2.1055,3.0551 -1.5088,6.2251 1.1718,6.2251 1.5493,0 2.7171,2.154 3.0551,5.6347 0.5053,5.2027 1.1495,5.7351 8.4023,6.9426 12.3041,2.0476 20.1983,6.4032 25.8087,14.2389 6.7302,9.4004 23.0663,42.0779 29.9203,59.8509 2.9645,7.6863 7.8119,16.6646 10.7725,19.9518 16.823,18.6795 57.789,87.6607 57.3447,96.5614 -0.055,1.0648 -2.397,3.7533 -5.2092,5.9736 -4.0458,3.1951 -7.5403,4.1051 -16.7458,4.361 -10.6756,0.2969 -12.1155,0.8056 -17.4963,6.1864 -4.611,4.6114 -6.7912,5.6297 -10.2105,4.7717 -4.6728,-1.1728 -19.2908,5.176 -23.4468,10.1838 -1.5999,1.9273 -5.3151,2.7547 -12.3739,2.7547 -9.6785,0 -10.2343,0.2474 -13.6927,6.1098 -2.9843,5.0581 -4.5915,6.0938 -9.3375,6.0177 -3.1526,-0.049 -9.4687,-1.9462 -14.0355,-4.2126 z m -82.6208,-59.4674 c 0.6844,-6.4957 2.4253,-12.4516 -1.336,-4.3907 -1.3579,2.9107 -4.6237,13.0598 -5.1875,16.8699 -0.6842,6.4957 -0.7317,7.8022 3.0295,-0.2572 1.3578,-2.9107 2.9304,-8.4093 3.494,-12.22 z m -21.0552,4.4699 c -1.3301,-1.3564 -4.0627,4.0571 -3.9395,7.805 0.089,2.7018 0.6389,2.307 2.4307,-1.7457 1.2732,-2.8806 1.9526,-5.6071 1.5088,-6.0593 z m 83.1325,-4.8821 c 1.2306,-5.2571 1.5785,-11.2383 0.8125,-13.9652 -1.1065,-3.9395 -1.7231,-2.3382 -3.5415,9.1954 -1.2115,7.6809 -2.2377,15.1436 -2.2803,16.584 -0.1436,4.8038 2.677,-1.8482 5.0093,-11.8142 z m -123.1162,-25.2812 c 2.6319,-4.5609 4.3465,-8.2919 3.8097,-8.2919 -1.6701,0 -9.83,12.8944 -9.83,15.5344 0,3.1075 0.1535,2.923 6.0203,-7.2425 z m 164.286,-7.8981 c -2.2634,-2.2634 -2.8893,1.5835 -1.5434,9.4835 1.7789,10.3164 2.6113,14.1098 3.2822,3.5674 0.297,-4.6639 -1.2014,-12.5139 -1.7388,-13.0509 z m -143.0304,-30.5071 c 6.8857,-13.5773 3.2288,-9.5078 -9.0189,10.0377 -3.0453,5.2655 -5.3903,8.9393 0.571,3.7974 2.2263,-1.9205 6.1355,-9.2742 8.4479,-13.8351 z m 35.6252,-14.4932 c 2.108,-3.4109 3.4901,-6.5443 3.0714,-6.9634 -0.4205,-0.4206 -2.5227,2.3722 -4.6752,6.2018 -4.8508,8.631 -3.6206,9.2153 1.6038,0.7616 z m -13.3264,-3.836 c 1.5869,-3.1204 2.4924,-5.6734 2.0124,-5.6734 -1.0054,0 -6.1997,9.6776 -6.1997,11.551 0,1.8226 0.9467,0.4949 4.1873,-5.8776 z m -47.8289,-65.5669 c 0,-1.4176 1.2351,-3.0515 2.7454,-3.631 1.9145,-0.7344 2.5746,-0.1732 2.1817,1.8506 -0.7166,3.6955 -4.9271,5.2167 -4.9271,1.7804 z m 18.6202,-4.1144 c -0.6398,-0.6404 -1.1633,-3.749 -1.1633,-6.9085 0,-4.5461 1.3222,-6.7615 6.3398,-10.6196 3.4866,-2.6811 10.1901,-8.2133 14.896,-12.2938 6.8807,-5.9662 9.875,-7.4196 15.2875,-7.4196 5.2378,0 6.6764,-0.6507 6.4878,-2.9353 -0.1337,-1.6142 1.9179,-4.1675 4.5585,-5.6733 4.3213,-2.4648 5.2773,-2.4712 9.5779,-0.064 4.8015,2.6855 9.1348,11.0546 6.8872,13.3022 -0.6625,0.6625 -3.0194,-0.5003 -5.2378,-2.5845 -4.9885,-4.6866 -7.1361,-4.8845 -4.7569,-0.4404 2.3342,4.3604 -0.1633,5.2081 -9.9551,3.3792 -8.6898,-1.6236 -14.7917,0.5315 -18.7924,6.6377 -1.4781,2.2555 -6.0059,6.1474 -10.062,8.6488 -8.0757,4.9795 -11.7395,8.8362 -11.7395,12.358 0,4.3887 4.7064,2.2139 15.5745,-7.1984 16.7497,-14.5051 28.0518,-18.399 36.0255,-12.4125 3.069,2.3045 2.5316,2.447 -5.6955,1.5122 -8.1034,-0.9204 -9.9883,-0.4502 -17.4568,4.3462 -4.605,2.9582 -11.4778,8.5622 -15.2732,12.4536 -6.3156,6.4753 -12.5575,8.8555 -15.5022,5.9113 z m 174.5673,-5.2375 c -2.0086,-2.0085 -1.2712,-4.0729 1.4549,-4.0729 1.4404,0 2.6186,1.1781 2.6186,2.6186 0,2.7256 -2.065,3.4634 -4.0735,1.4543 z m -67.4991,-7.3576 c 0,-5.3448 -0.8749,-7.535 -3.5901,-8.9878 -1.9744,-1.0565 -4.353,-3.6375 -5.2863,-5.7347 -1.5736,-3.538 -1.623,-3.4984 -0.6829,0.5504 2.5182,10.8488 2.8702,17.0693 1.0303,18.2064 -1.2767,0.7888 -1.9641,-0.7828 -2.0006,-4.5743 -0.049,-3.1772 -1.197,-7.2849 -2.5915,-9.1286 -1.6492,-2.1793 -2.202,-5.5378 -1.5815,-9.6008 0.6349,-4.1542 -0.5448,-10.9251 -3.5178,-20.1939 -5.4021,-16.8397 -5.6554,-23.7223 -1.0267,-27.9117 2.9561,-2.675 4.1813,-2.8151 8.6062,-0.9822 8.3162,3.4451 10.6409,10.8122 10.6409,33.7236 0,15.9555 0.5502,20.4906 2.7023,22.2769 1.8804,1.5603 2.5445,4.6387 2.1823,10.115 -0.6755,10.2135 -4.8846,12.1453 -4.8846,2.2417 z m -4.8059,-42.6178 c 0.1436,-10.6998 -3.875,-18.9631 -9.7808,-20.1245 -4.4264,-0.8709 -3.6831,8.8368 1.8792,24.5552 4.1063,11.6025 4.995,12.9627 6.2756,9.6014 0.821,-2.1536 1.5523,-8.4682 1.626,-14.0321 z m 46.0426,39.2653 c -2.3866,-3.8617 -5.7188,-16.0565 -4.3873,-16.0565 0.8403,0 2.9087,2.8582 4.5966,6.3517 3.305,6.8411 6.7906,7.4661 5.9518,1.0674 -0.4156,-3.1774 0.3316,-3.928 3.9197,-3.928 5.4604,0 4.5703,-2.7657 -2.7676,-8.5979 -4.8494,-3.8542 -5.9727,-4.0606 -12.5367,-2.3004 -3.9651,1.0634 -8.5844,2.4638 -10.2644,3.1116 -1.6804,0.6477 -3.0551,0.4502 -3.0551,-0.4355 0,-2.4579 13.0206,-9.2361 17.7424,-9.2361 4.8434,0 11.9339,4.4763 11.9339,7.5343 0,1.155 1.5711,3.0808 3.4915,4.2798 4.3052,2.689 4.4887,7.4161 0.4355,11.2413 -1.6805,1.5859 -4.068,4.1175 -5.3062,5.6253 -2.3762,2.8937 -8.2928,3.7073 -9.7551,1.3409 z m -148.1842,-11.8632 c -2.1737,-2.1734 1.004,-5.9391 5.0123,-5.9391 4.5915,0 5.3022,1.6681 2.0827,4.8879 -2.2595,2.2596 -5.4189,2.7277 -7.095,1.0512 z m 69.1292,-3.4377 c -1.4554,-3.792 2.2386,-7.3572 4.882,-4.7133 2.2347,2.2342 0.8506,7.4488 -1.9774,7.4488 -1.0203,0 -2.3277,-1.2312 -2.9046,-2.7355 z m 102.7427,-0.8868 c 0.3415,-1.0321 1.3718,-1.8764 2.2837,-1.8764 0.9126,0 1.9403,0.8443 2.2842,1.8764 0.3414,1.0323 -0.6838,1.8769 -2.2842,1.8769 -1.6003,0 -2.628,-0.8446 -2.2837,-1.8769 z m -152.937,-12.6406 c -1.7284,-1.2633 -2.8537,-3.8166 -2.5013,-5.6732 1.1761,-6.2008 17.1955,-4.8964 17.1955,1.3998 0,0.9516 -2.3564,1.3847 -5.2369,0.9615 -2.8804,-0.4206 -5.2369,-0.1187 -5.2369,0.6749 0,0.7938 1.3748,1.4554 3.0547,1.4702 2.6108,0 2.6741,0.2722 0.4355,1.7187 -3.4213,2.2114 -3.9889,2.1703 -7.7115,-0.5519 z m 142.1283,-6.4308 c 0,-0.96 -1.1781,-1.7458 -2.6186,-1.7458 -1.44,0 -2.6181,-0.7854 -2.6181,-1.7453 0,-0.9604 2.3563,-1.7458 5.2367,-1.7458 4.0736,0 5.2369,0.7759 5.2369,3.4911 0,1.9398 -1.1633,3.4916 -2.6182,3.4916 -1.4405,0 -2.6187,-0.7853 -2.6187,-1.7458 z m -127.4341,-27.9306 c 0,-0.96 0.7393,-1.7458 1.6429,-1.7458 0.9035,0 2.1277,0.7858 2.7216,1.7458 0.5933,0.9601 -0.1435,1.7458 -1.6429,1.7458 -1.4968,0 -2.7216,-0.7857 -2.7216,-1.7458 z m 20.1497,-27.8103 c -1.291,-2.0887 1.9933,-4.1585 4.3184,-2.7216 1.9522,1.207 0.6706,4.3467 -1.7744,4.3467 -0.8467,0 -1.9912,-0.7314 -2.544,-1.6251 z m 13.0181,-11.4673 c 0,-1.4405 1.1782,-2.6186 2.6187,-2.6186 1.4401,0 2.6182,1.1781 2.6182,2.6186 0,1.44 -1.1781,2.6183 -2.6182,2.6183 -1.4405,0 -2.6187,-1.1783 -2.6187,-2.6183 z m -4.1774,-17.5998 c -1.5082,-3.9295 -1.3112,-9.4583 0.3365,-9.4583 2.7034,0 5.5863,4.2344 5.5863,8.2048 0,4.5669 -4.3027,5.4774 -5.9232,1.2535 z" fill="#00B894" transform="translate(4.3836518,182.5007) translate(-6284.0346,-5263.1754)"/>
</svg>