<?xml version="1.0" ?><svg height="178.48201mm" viewBox="0 0 68.807739 178.48201" width="68.807739mm" xmlns="http://www.w3.org/2000/svg">
    <path d="m 3807.8804,598.4958 c -48.3096,-40.8745 -120.0937,-98.4355 -120.0937,-203.4539 0,-105.0184 31.2992,-256.7286 58.6861,-298.2155 27.3868,-41.4868 57.1551,-39.0374 79.949,1.0717 22.794,40.109 89.475,297.1437 96.7895,326.8428 7.3145,29.6991 -21.263,96.1393 -52.5623,127.9816 -31.2992,31.8422 -62.7686,45.7733 -62.7686,45.7733 z" fill="#FFFFFF" transform="translate(-55.554462,-126.96137) matrix(0.26458333,0,0,0.26458333,-917.76458,112.74823)"/>
    <path d="m 3815.2584,717.18405 c -1.8498,-5.87629 -5.7182,-23.99809 -8.5959,-40.27071 -2.8778,-16.27261 -6.6568,-36.72643 -8.3976,-45.45277 -1.7408,-8.72633 -3.1651,-20.09115 -3.1651,-25.25582 0,-6.42588 -2.0258,-10.03281 -6.4174,-11.42682 -10.073,-3.19684 -59.3249,-54.25809 -76.7135,-79.53108 -8.6567,-12.58178 -19.7424,-33.86995 -24.6347,-47.30753 -8.4955,-23.33219 -8.8815,-27.09406 -8.5824,-83.60476 0.6341,-119.77195 32.9699,-271.8108 66.0388,-310.503787 17.7389,-19.189681 45.4799,-24.469546 61.8035,-16.599018 29.8915,14.47022 41.0138,36.159898 67.4331,131.502205 9.2692,33.44911 22.5314,77.82933 29.4716,98.62221 16.2602,48.71483 30.264,105.9571 34.5984,141.42835 6.6679,54.56303 -38.6763,129.97836 -104.2374,173.36458 -8.2669,5.47091 -12.0507,10.14845 -11.006,13.60754 6.6789,22.118 10.4893,66.63728 8.8211,103.071 -0.6147,13.43543 -12.0296,12.29228 -16.4165,-1.64359 z m 12.9594,-144.60922 c 19.0125,-14.77667 46.2676,-43.6567 56.7691,-59.61665 6.0988,-9.26863 14.2575,-25.41378 18.1304,-35.87814 12.4729,-33.70061 9.6244,-56.15146 -20.7349,-163.42489 -7.9316,-28.02477 -19.1865,-73.14341 -25.011,-100.2628 -19.9356,-92.81738 -39.3405,-133.143004 -64.0698,-133.143004 -5.8691,0 -6.2358,23.622544 -1.5553,100.177804 15.2166,248.87798 26.8295,335.89836 24.6204,373.46085 -0.8243,14.01249 -0.4608,25.47729 0.8077,25.47729 1.2685,0 6.2382,-3.05585 11.0434,-6.79046 z m -27.8663,-42.77278 c -1.264,-27.57305 -4.3705,-76.76086 -6.9028,-109.30609 -10.3616,-133.15138 -12.6204,-177.99234 -12.875,-255.58841 -0.2018,-61.55349 -1.2405,-81.357505 -4.2667,-81.363294 -9.0423,-0.02573 -26.2546,22.884744 -36.2938,48.290584 -14.0977,35.67598 -22.6537,75.77135 -32.4846,152.23371 -14.6665,114.07334 -8.5189,169.14947 23.9404,214.47863 18.6802,26.08632 64.7639,80.91072 68.2276,81.16824 1.7192,0.12876 1.9928,-20.72678 0.6549,-49.91337 z" fill="#00B894" transform="translate(-55.554462,-126.96137) matrix(0.26458333,0,0,0.26458333,-917.76458,112.74823)"/>
</svg>