<?xml version="1.0" ?><svg height="150.37001mm" viewBox="0 0 74.467438 150.37001" width="74.467438mm" xmlns="http://www.w3.org/2000/svg">
    <path d="m 6607.8534,1238.7866 c -22.6841,-27.665 -51.7282,-103.3146 6.4661,-255.7585 58.1943,-152.4439 160.4844,-206.8201 182.5324,-193.5599 22.049,13.2601 51.729,88.9097 -1.378,224.9454 -53.106,136.0357 -89.04,216.8367 -129.7441,229.6199 -40.7042,12.7831 -57.8764,-5.2469 -57.8764,-5.2469 z" fill="#FFFFFF" transform="translate(-233.39725,-91.880468) matrix(0.26458333,0,0,0.26458333,-1502.4915,-113.21603)"/>
    <path d="m 6564.9481,1338.4485 c -8.4499,-8.4499 -3.7818,-31.7315 13.2243,-65.9515 l 14.8386,-29.8589 -6.085,-13.3384 c -20.6871,-45.344 -19.9221,-123.0166 2.0655,-209.7243 20.0426,-79.03875 59.4558,-148.32372 113.1516,-198.91198 42.0355,-39.60266 79.4036,-54.23233 103.2075,-40.40589 25.0081,14.5258 37.469,48.58844 36.9234,100.93383 -0.4587,44.02012 -7.698,72.26828 -34.8311,135.91084 -55.1491,129.3573 -87.413,192.4139 -109.9325,214.8525 -19.9368,19.8654 -33.5476,25.4953 -61.6357,25.4953 h -23.259 l -11.9948,37.5879 c -14.6796,46.001 -22.9808,56.1027 -35.6728,43.4106 z m 82.3655,-98.3067 c 15.2305,-4.2299 36.5878,-27.2205 51.1625,-55.0759 15.2054,-29.06 54.9348,-116.8271 75.3849,-166.5329 8.417,-20.45813 18.0254,-43.4822 21.3525,-51.1643 3.327,-7.6821 9.3716,-30.21472 13.4325,-50.07238 8.675,-42.42267 8.1435,-69.34871 -1.8949,-95.97259 -5.6914,-15.09534 -6.7933,-16.39687 -10.0777,-11.90472 -2.0283,2.77386 -9.6116,23.27617 -16.8516,45.56092 -7.24,22.28475 -19.6801,56.61263 -27.6444,76.28381 -7.9644,19.6714 -22.8091,57.01113 -32.9885,82.97726 -21.315,54.3732 -43.6857,104.1854 -77.6806,172.9688 -22.2706,45.0617 -23.611,48.7669 -18.8905,52.2186 6.1252,4.4789 10.6653,4.6099 24.6958,0.7134 z m -12.1169,-65.6689 c 7.6593,-19.6714 21.8572,-54.436 31.5513,-77.2546 9.694,-22.8189 23.1835,-56.2959 29.977,-74.3934 6.7932,-18.0976 21.5635,-54.79349 32.8227,-81.54659 19.3628,-46.00752 52.6733,-138.77231 49.8312,-138.77231 -0.7238,0 -7.9405,3.35694 -16.0372,7.45979 -19.4246,9.84332 -65.2914,55.86134 -86.6758,86.96255 -19.3744,28.17713 -43.8256,76.21496 -52.4307,103.0062 -28.861,89.86036 -34.8791,185.31926 -14.144,224.35996 3.3838,6.3713 2.6878,7.7523 25.1055,-49.8216 z" fill="#00B894" transform="translate(-233.39725,-91.880468) matrix(0.26458333,0,0,0.26458333,-1502.4915,-113.21603)"/>
</svg>