<?xml version="1.0" ?><svg height="162.1534mm" viewBox="0 0 246.96602 162.1534" width="246.96602mm" xmlns="http://www.w3.org/2000/svg">
    <path color="#000" d="m 8287.5929,2455.5966 c -17.235,35.713 -79.461,107.5676 -119.002,105.8568 -39.54,-1.7108 -55.889,-18.0207 -55.889,-18.0207 0,0 -37.513,19.0472 -61.085,9.8087 -23.572,-9.2384 -53.988,-23.2672 -53.988,-23.2672 l -24.713,-45.6219 7.097,-14.2569 c 0,0 -41.188,-22.1266 -33.838,-87.9363 7.351,-65.8096 53.862,-73.7935 64.254,-75.0481 10.392,-1.2546 16.475,-46.8765 39.034,-65.3534 22.558,-18.4769 43.976,-17.5645 48.918,-17.5645 4.943,0 72.0688,21.145 83.1373,69.5735 12.9349,90.8096 50.7821,121.1213 106.0747,161.83 z" fill="#FFFFFF" overflow="visible" paint-order="fill markers stroke" transform="translate(-181.3552,115.02157) matrix(0.26458333,0,0,0.26458333,-1764.5106,-701.55614)"/>
    <path d="m 7552.9637,2819.74 c 45.3317,-16.8548 95.9329,-52.5932 133.2886,-94.1394 19.9418,-22.179 13.3165,-18.9354 -21.5278,10.5394 -44.5526,37.6869 -93.4613,66.043 -135.001,78.2705 -12.6266,3.7166 -25.7751,8.6241 -29.2187,10.9054 -12.3558,8.1855 26.5765,4.0472 52.4589,-5.5759 z m 189.639,-184.2382 c 100.8586,-82.324 152.0374,-115.6528 188.6718,-122.8676 l 17.9464,-3.5344 -18.7835,-0.458 c -26.0233,-0.6346 -82.9886,28.5844 -138.4829,71.0314 -85.4085,65.3283 -102.129,77.6299 -140.9197,103.6808 -112.5485,75.5841 -226.8279,105.118 -240.4672,62.1448 -2.1132,-6.6587 -0.3782,-10.9316 6.5657,-16.1694 5.2391,-3.9517 8.133,-9.2312 6.5044,-11.8662 -8.3514,-13.5128 -31.9848,3.7508 -32.5546,23.7799 2.826,35.9341 39.9522,41.3281 58.3406,41.3807 104.7255,0.2974 229.4385,-95.5629 293.179,-147.122 z m 32.6652,134.3398 c 13.6997,-14.5825 11.7775,-21.1696 -3.8231,-13.1021 -36.4663,18.8574 -26.1588,-17.5945 20.5967,-72.8405 21.4379,-25.3308 64.3338,-60.5746 117.3787,-96.4401 40.428,-27.3347 70.1529,-52.2284 66.6585,-55.8252 -2.4456,-2.5173 -107.7818,62.3071 -141.6779,87.1893 -29.5517,21.693 -84.4042,81.1994 -95.2069,103.2844 -12.0716,24.6794 -13.0906,44.1635 -2.7074,51.7558 11.6859,8.5449 28.6261,6.7883 38.7814,-4.0216 z m -210.0646,-117.9199 c 48.4445,-9.528 86.4025,-25.7782 136.2667,-58.3362 26.0665,-17.0201 45.5156,-30.9574 43.2199,-30.9721 -2.296,0 -23.8967,11.2422 -48.0022,25.0149 -52.0572,29.743 -75.3985,38.9779 -119.4514,47.2602 -80.9102,15.2118 -134.9656,12.954 -179.6503,-7.5034 -24.2304,-11.0929 -30.5435,-19.9017 -22.9632,-32.0399 2.6582,-4.2564 4.8327,-9.6425 4.8327,-11.9695 0,-6.9227 -13.2533,-4.8045 -19.234,3.0739 -16.8049,22.1379 4.314,50.3633 47.7132,63.7678 32.1517,9.9308 111.0934,10.7861 157.2686,1.7043 z m 722.3897,-196.3251 c -3.4762,-13.8503 -7.3128,-10.6296 -24.9874,20.9752 -25.9212,46.3517 -68.8991,77.5286 -106.8746,77.5286 -26.5189,0 -37.4587,-5.5286 -37.4587,-18.9303 0,-6.3626 -2.3893,-10.2887 -6.2612,-10.2887 -3.4436,0 -6.2611,1.7444 -6.2611,3.876 0,17.9241 -56.5938,24.5901 -75.715,8.9184 -8.3374,-6.8332 -5.8812,-7.3375 -1.6743,-14.2501 2.7346,-4.4934 10.9292,-12.199 4.6533,-16.6657 -5.6278,-4.0052 -20.5494,2.7418 -22.9299,8.9457 -3.7129,9.6756 -12.3762,6.1359 -9.733,-3.9706 1.4986,-5.7308 -0.2098,-10.8412 -4.7272,-14.1446 -6.3419,-4.6373 -19.8908,-14.5058 7.2836,-13.3719 17.3863,0.7256 22.5033,-16.7333 6.3551,-16.7333 -8.6445,0 -22.3721,-1.076 -31.5666,-12.5201 -27.5482,-34.2874 -32.4034,-58.5804 -20.0332,-100.2353 8.2525,-27.7896 21.6536,-38.5538 47.9974,-38.5538 h 19.8338 l 2.9581,-19.8272 c 1.627,-10.9048 5.4263,-25.7522 8.4429,-32.9945 6.3119,-15.1542 36.5768,-34.8346 53.5686,-34.8346 14.432,0 14.3488,-7.3769 -0.1252,-11.0093 -8.1295,-2.0405 -17.3011,0.3553 -33.1723,8.6651 -24.8809,13.0267 -31.791,21.7479 -40.2348,50.7781 -5.8911,20.2545 -6.1259,20.4602 -26.0609,22.7969 -16.5532,1.94 -22.486,5.0997 -33.4994,17.8402 -25.1032,29.0403 -32.6682,89.4545 -15.3376,122.4891 5.0389,9.6052 12.9847,20.1418 17.6571,23.4145 7.5008,5.2541 7.7516,6.5671 2.1428,11.2222 -9.5432,7.9204 -7.7281,15.5049 6.1701,25.7804 6.8873,5.0919 12.5223,12.3025 12.5223,16.0235 0,11.1218 10.9211,22.6248 21.9382,23.1069 5.6758,0.2473 15.3674,4.4225 21.5375,9.2759 14.4057,11.3314 50.815,16.1356 71.2282,9.3989 13.2596,-4.3762 16.296,-4.0453 23.6096,2.5737 5.9723,5.4043 16.4325,7.941 36.2619,8.7929 55.2682,0.4345 138.1532,-66.4773 132.4919,-114.0722 z m -257.7434,-33.9887 c -1.5402,-13.3454 -15.9299,-19.1213 -15.9299,-6.3939 0,8.1542 4.5346,15.687 10.7676,15.687 1.9892,0 5.8889,-2.9994 5.1623,-9.2931 z m -36.8006,-4.9473 c 0,-5.9735 -2.6807,-8.6542 -8.6542,-8.6542 -10.6969,0 -9.4149,18.638 1.4658,20.7333 5.0089,0.9645 7.1884,-6.1053 7.1884,-12.0791 z" fill="#00B894" transform="translate(-181.3552,115.02157) matrix(0.26458333,0,0,0.26458333,-1764.5106,-701.55614)"/>
</svg>