<?xml version="1.0" ?><svg height="106.08324mm" viewBox="0 0 126.79414 106.08324" width="126.79414mm" xmlns="http://www.w3.org/2000/svg">
    <path d="m 9444.4316,19905.898 c -12.0593,0.168 -27.1519,2.358 -38.1757,9.954 -19.598,13.503 -0.5109,47.768 -18.2715,49.513 -17.7607,1.746 -35.0117,22.045 -35.0117,22.045 0,0 -25.3148,-6.704 -37.3594,-0.365 -12.0446,6.338 -35.624,28.383 -30.0117,38.846 5.6122,10.462 44.3027,-1.735 44.3027,-1.735 0,0 -7.5534,14.883 -4.6953,34.358 2.858,19.474 15.9218,20.023 15.9219,20.023 0,0 -8.2667,1.928 -14.6973,7.164 -6.4306,5.236 -20.0055,15.341 -26.334,41.338 -6.3285,25.997 55.5215,20.773 55.5215,20.773 0,0 2.1502,21.576 10.0098,50.237 7.8596,28.661 29.0876,53.282 57.6679,66.326 28.5804,13.044 45.627,1.1 45.627,1.1 0,0 7.0469,7.166 29.707,29.396 10.4114,13.136 56.4434,7.535 70.1211,-5.326 13.6777,-12.861 29.9082,-49.424 29.9082,-49.424 0,0 43.6842,-25.351 66.2422,-41.978 22.558,-16.627 37.3594,-54.473 37.3594,-54.473 0,0 22.4583,-9.922 37.4629,-20.945 15.0047,-11.024 -7.3485,-50.249 -21.6387,-60.537 -14.2902,-10.289 -41.5469,-11.391 -41.5469,-11.391 0,0 19.3941,-32.154 17.1485,-48.965 -2.2457,-16.811 -19.8004,-47.215 -51.545,-69.537 -31.7445,-22.323 -93.7011,4.133 -93.7011,4.133 l -66.1426,-7.074 c 0,0 -13.1702,-20.116 -18.5801,-21.77 -2.3668,-0.723 -9.9096,-1.816 -19.2891,-1.686 z m 242.4922,7.727 c -1.5461,0.07 -2.7357,0.583 -3.4375,1.674 -4.4912,6.981 -5.0049,10.471 17.8594,29.211 0,0 28.276,24.896 34.8086,16.537 6.5326,-8.36 -6.228,-23.976 -14.9043,-30.039 -7.3207,-5.116 -25.977,-17.753 -34.3262,-17.383 z m 35.7813,93.975 c -0.4775,-0.02 -0.9587,-0.01 -1.4434,0 -1.6044,0.08 -3.247,0.41 -4.9121,1.022 0,0 -4.7937,9.921 1.2285,21.404 6.0224,11.483 22.4555,16.169 27.0489,7.074 4.0324,-7.984 -7.121,-28.929 -21.9219,-29.509 z m -69.3321,102.447 20.3106,21.953 c 0,0 -29.8029,45.014 -61.0371,61.641 l 7.3476,-76.981 z m -53.0117,9.885 -4.4824,39.113 -12.7187,23.096 1.7382,-60.192 z m -189.5136,20.705 24.7031,89.564 c 0,0 -32.7671,-13.318 -41.8516,-32.334 -9.0845,-19.015 -11.7383,-49.699 -11.7383,-49.699 z" fill="#FFFFFF" transform="translate(-9.9302642,37.166595) matrix(0.50522512,0,0,0.50522512,-382.01932,-110.26151) matrix(0.52369393,0,0,0.52369393,-4080.9717,-10277.742)"/>
    <path d="m 9435.4668,19901.746 c -25.1786,0 -26.291,0.239 -33.6426,7.279 -9.0809,8.696 -11.7767,17.518 -7.6875,25.159 v 0 c 2.8924,5.405 3.178,5.229 8.1406,-5.017 3.2934,-6.8 7.9052,-11.763 12.8262,-13.801 9.6381,-4 49.1873,-3.994 53.1817,0 4.0174,4.018 6.996,3.661 6.996,-0.838 0,-2.068 -3.0984,-5.792 -6.8867,-8.275 -5.46,-3.578 -12.2864,-4.514 -32.9277,-4.514 z m 241.7129,2.555 c -0.7367,0 -1.3625,0.08 -1.8652,0.277 -7.3467,2.819 -9.6186,10.385 -5.5059,18.338 4.8834,9.444 34.6789,37.227 46.7695,43.611 10.7903,5.698 23.562,6.688 28.0723,2.178 5.8521,-5.852 3.3536,-16.327 -6.4922,-27.219 -14.1108,-15.61 -49.9283,-37.103 -60.9785,-37.185 z m -79.6895,15.306 c -23.9894,0 -28.0459,0.688 -39.5234,6.731 -10.9864,5.785 -13.4404,6.258 -17.4082,3.357 -6.5785,-4.81 -38.5587,-9.717 -51.6387,-7.924 -17.1146,2.345 -36.2981,13.159 -40.3222,22.729 -4.6839,11.14 -2.1068,13.689 5.9941,5.928 13.1458,-12.595 30.8243,-16.101 63.8027,-12.655 l 15.8555,1.659 -11.5312,7.175 c -13.1412,8.18 -17.5453,14.786 -16.4063,24.614 0.6783,5.852 3.3823,7.907 18.6172,14.15 9.8021,4.017 21.8313,7.662 26.7324,8.102 4.9012,0.439 10.9167,1.583 13.3672,2.545 6.132,2.405 5.8589,-4.375 -0.4043,-10.043 -2.6727,-2.419 -6.2574,-7.771 -7.9648,-11.893 -2.4299,-5.866 -3.8475,-6.879 -6.5254,-4.656 -2.858,2.372 -2.8103,4.304 0.291,11.726 l 3.7129,8.887 -8.2403,-5.455 c -4.532,-3.001 -11.9625,-7.326 -16.5136,-9.611 -7.6209,-3.827 -10.9309,-8.188 -6.3653,-8.387 1.0503,-0.05 9.491,-1.062 18.7578,-2.258 9.2667,-1.196 19.8647,-1.596 23.5508,-0.89 5.7851,1.105 6.7012,2.554 6.7012,10.599 0,5.127 1.704,11.753 3.7852,14.725 3.4048,4.861 3.2424,6.704 -1.6133,18.388 -2.9682,7.143 -6.6746,12.977 -8.2383,12.957 -1.5637,-0.01 -8.5726,-1.775 -15.5742,-3.912 -13.57,-4.141 -26.255,-3.22 -41.1133,2.989 -9.4691,3.956 -9.6121,3.763 -8.7539,-11.78 0.924,-16.734 -17.7125,-34.536 -49.1914,-46.99 -32.4054,-12.82 -66.2393,-8.46 -88.8594,11.451 -9.7924,8.62 -11.8131,9.486 -14.5176,6.227 -4.1629,-5.016 -18.5994,-4.811 -28.7422,0.408 -4.4814,2.306 -13.304,8.67 -19.6054,14.143 -33.9517,29.486 -34.0981,50.332 -0.293,41.572 22.326,-5.785 23.2562,-5.558 20.3477,4.976 -3.111,11.268 1.1426,28.22 8.0019,31.891 4.5592,2.44 4.7636,2.115 2.4609,-3.941 -6.1165,-16.088 -2.472,-25.398 24.2618,-61.959 20.1545,-27.563 33.614,-35.967 57.6015,-35.967 16.0644,0 44.8578,9.343 55.6563,18.058 l 6.3652,5.137 -12.7285,-1.517 c -18.042,-2.151 -37.1833,2.243 -61.8926,14.203 -24.0388,11.635 -42.3155,27.978 -45.7929,40.947 -2.8564,10.654 -0.2374,18.418 6.5585,19.437 4.1931,0.628 4.9764,-0.271 3.8829,-4.453 -0.7533,-2.881 0.5223,-8.127 2.8359,-11.658 4.727,-7.214 23.5211,-21.596 28.2227,-21.596 1.9461,0 3.6023,6.284 4.5273,17.186 0.802,9.452 2.2631,19.262 3.248,21.801 1.6732,4.312 0.3866,4.502 -19.5722,2.883 -19.0182,-1.543 -23.4281,-1.017 -40.1602,4.802 -10.3377,3.595 -22.214,9.744 -26.3926,13.666 -9.821,9.218 -19.6276,30.069 -19.6582,41.801 -0.022,7.965 1.377,10.137 10.3575,16.08 9.0321,5.977 12.596,6.793 27.3711,6.256 l 16.9843,-0.619 1.8282,15.09 c 6.3223,52.209 25.7525,83.162 63.6464,101.388 19.5871,9.421 33.6034,11.516 43.0879,6.44 4.3913,-2.35 7.0698,-0.887 18.9649,10.363 13.999,13.24 21.8347,15.538 23.5,6.891 0.5335,-2.771 -4.9232,-10.714 -14.1055,-20.53 -16.6324,-17.78 -26.1601,-38.768 -28.1855,-62.093 -1.2326,-14.194 -0.4524,-14.983 11.621,-11.748 4.971,1.331 5.5668,2.718 4.2305,9.841 -1.5572,8.301 4.2491,24.184 8.8418,24.184 1.198,0 3.5305,5.442 5.1817,12.094 4.254,17.137 13.7154,37 23.3183,48.949 9.1771,11.42 17.5645,13.63 17.5645,4.627 0,-3.09 -4.6317,-12.223 -10.295,-20.297 -13.0242,-18.567 -20.2558,-39.453 -20.2558,-58.502 v -14.877 h 8.8476 c 8.4458,0 8.7354,0.297 6.3653,6.531 -1.3657,3.591 -2.4342,10.179 -2.375,14.639 0.1461,11.003 25.5499,66.391 30.9258,67.426 2.8058,0.54 8.134,-5.297 16.2441,-17.799 26.0047,-40.088 43.2285,-86.936 46.1543,-125.537 0.849,-11.202 2.8021,-21.21 4.3398,-22.238 5.12,-3.426 7.2244,-2.012 5.625,3.779 -0.8703,3.151 -3.2798,16.793 -5.3554,30.316 -6.2816,40.929 -18.5917,74.422 -41.8614,113.887 -4.2927,7.281 -7.8066,14.906 -7.8066,16.945 0,11.664 19.4099,-5.978 35.0801,-31.884 8.0024,-13.231 11.5566,-16.819 17.9512,-18.127 12.7196,-2.602 40.634,-22.243 63.0566,-44.369 16.915,-16.692 21.7379,-23.257 26.3281,-35.846 5.4708,-15.004 5.9443,-15.498 17.9492,-18.574 6.7822,-1.739 16.6295,-6.871 21.8809,-11.41 8.9564,-7.744 9.5179,-9.087 9.0723,-21.676 -0.2613,-7.381 -1.9952,-17.048 -3.8536,-21.483 -7.6508,-18.256 -27.0181,-33.894 -49.2226,-39.746 l -10.6992,-2.818 6.0273,-8.879 c 7.9078,-11.653 9.8627,-24.552 6.7012,-44.184 -4.9447,-30.704 -22.4281,-50.389 -57.2461,-64.453 -18.7675,-7.58 -23.0817,-8.34 -47.3809,-8.342 z m 94.084,1.629 c 6.6936,0.36 28.635,16.686 33.5254,25.703 3.1834,5.869 -0.061,5.515 -7.9473,-0.865 -22.2589,-18.007 -28.1938,-23.347 -27.1308,-24.41 0.3303,-0.33 0.8603,-0.465 1.5527,-0.428 z m -100.7207,11.477 c 1.6115,-0.02 3.3453,-0.01 5.2344,0.02 15.2654,0.238 21.1894,1.796 39.5918,10.405 33.5845,15.711 45.351,30.634 47.7539,60.57 1.0991,13.692 0.5482,16.503 -4.1484,21.199 -8.502,8.502 -13.0044,7.097 -11.2813,-3.521 1.1133,-6.86 -0.4246,-12.742 -6.6152,-25.317 -13.0309,-26.469 -33.9418,-39.526 -71.5508,-44.675 -11.3272,-1.551 -25.8606,-2.03 -32.2949,-1.065 -14.8293,2.224 -13.0975,-0.829 5.9277,-10.455 10.8027,-5.466 16.1022,-7.014 27.3828,-7.158 z m -6.9609,32.81 c 1.1555,-0.06 2.6675,0.137 4.5976,0.506 6.324,1.209 6.3483,1.307 2.0586,8.569 -5.4134,9.164 -7.3782,9.242 -9.0761,0.359 -1.303,-6.816 -1.0468,-9.26 2.4199,-9.434 z m 24.7031,3.852 c 2.5795,-0.08 2.5035,5.055 -2.0547,12.057 -3.3749,5.183 -6.3559,11.143 -6.623,13.244 -0.9038,7.109 0.1072,10.49 2.664,8.91 1.4003,-0.865 2.4926,-0.647 2.4258,0.486 -0.066,1.133 -3.2171,8.004 -7.0019,15.268 -6.8399,13.128 -9.4338,14.104 -18.0957,6.814 -1.5427,-1.298 17.6802,-45.23 22.707,-51.894 2.5468,-3.377 4.6273,-4.845 5.9785,-4.885 z m 12.1133,7.336 c 0.2353,-0.02 0.4337,0.03 0.5859,0.185 0.7188,0.718 -0.881,4.154 -3.5547,7.633 -2.6737,3.481 -4.8874,5.114 -4.9179,3.631 -0.07,-3.335 5.6123,-11.21 7.8867,-11.449 z m 6.7246,2.715 c 1.0058,0 3.604,1.836 6.2519,4.484 l 5.502,5.502 -11.9375,10.729 c -13.8993,12.489 -16.3631,19.866 -4.6035,13.785 4.034,-2.086 10.2664,-7.277 13.8496,-11.535 l 6.5156,-7.743 3.9727,5.672 c 6.3728,9.099 4.8106,11.572 -10.0313,15.887 -8.4463,2.455 -14.0019,5.498 -14.0019,7.668 0,6.636 4.8148,6.67 17.7265,0.127 7.054,-3.575 12.9709,-6.192 13.1504,-5.818 2.2338,4.67 0.7339,12.842 -2.5722,14.013 -2.2649,0.802 -5.5795,2.591 -7.3653,3.975 -4.7906,3.712 3.1069,11.475 13.6953,13.461 7.2508,1.36 7.9621,2.102 4.9239,5.14 -4.2153,4.215 -4.7102,4.284 -7.8848,1.11 -4.753,-4.753 -34.34,-10.715 -44.584,-8.985 -8.8676,1.499 -10.0039,1.114 -10.0039,-3.396 0,-4.287 23.8069,-60.543 27.0684,-63.963 0.074,-0.08 0.1844,-0.113 0.3281,-0.113 z m -288.7793,7.625 c 2.5559,0.03 4.4956,0.895 5.6094,2.697 0.9211,1.49 -2.3535,8.776 -7.2774,16.191 -8.4515,12.73 -9.6965,13.584 -22.25,15.25 -7.3136,0.97 -16.8602,2.425 -21.2148,3.233 l -7.918,1.469 11.457,-12.106 c 15.4608,-16.335 32.4657,-26.846 41.5938,-26.734 z m 381.3516,15.599 c -3.881,-0.03 -6.801,1.98 -9.4454,6.016 -7.903,12.061 2.9194,34.497 18.0489,37.416 8.8437,1.706 16.7295,-0.941 20.6582,-6.936 5.5614,-8.488 -0.6249,-21.839 -14.0469,-30.312 -6.4908,-4.098 -11.3339,-6.157 -15.2148,-6.184 z m -267.545,5.426 c 13.1378,0.13 26.6697,3.675 30.7735,8.619 3.6838,4.439 4.6232,3.638 -17.9512,15.307 -23.7702,12.287 -26.4494,17.354 -8.25,15.605 l 12.9648,-1.246 -6.2695,7.451 c -8.7648,10.418 -8.2383,20.999 1.4981,30.094 4.2723,3.991 9.9768,7.958 12.6757,8.815 4.353,1.381 4.7328,3.226 3.3633,16.328 -1.064,10.18 -0.5982,15.355 1.4981,16.65 4.3657,2.698 5.0626,1.316 8.1289,-16.092 2.2988,-13.051 3.6022,-15.636 7.873,-15.636 4.0577,0 4.8021,1.185 3.6016,5.728 -0.8328,3.151 -2.8677,11.742 -4.5215,19.094 -2.0174,8.967 -4.2835,13.367 -6.8887,13.367 -2.1358,0 -8.8875,2.422 -15.0039,5.383 -6.1165,2.961 -11.6183,4.888 -12.2246,4.281 -0.6064,-0.606 0.5979,-10.761 2.6758,-22.568 4.8528,-27.576 4.8977,-31.925 0.2891,-28.1 -5.1107,4.242 -12.25,31.989 -11.4746,44.598 0.5885,9.568 -0.461,12.008 -8.7286,20.275 -13.3133,13.314 -12.4929,25.885 2.2286,34.123 3.0512,1.708 3.213,3.602 0.8769,10.303 -1.5744,4.516 -2.3983,12.194 -1.8301,17.061 0.6074,5.203 -0.068,8.764 -1.6386,8.646 -5.7479,-0.432 -8.6911,-2.825 -7.4512,-6.057 0.7139,-1.86 -2.1287,-13.09 -6.3164,-24.955 -11.6845,-33.104 -13.8989,-48.413 -8.5567,-59.154 2.4079,-4.841 6.2423,-8.831 8.5215,-8.865 7.5021,-0.114 10.9072,-7.605 10.1524,-22.334 -0.3241,-6.324 -16.0445,-25.102 -22.8125,-27.25 -3.2015,-1.016 -5.4423,-7.719 -8.7618,-26.207 -5.5614,-30.976 -5.6311,-29.809 2.002,-33.287 6.2298,-2.839 6.37,-2.672 6.5801,7.865 0.3905,19.596 8.2577,51.393 12.9336,52.271 7.0337,1.32 7.6541,-7.778 2.2011,-32.259 -7.8505,-35.244 -7.8423,-35.278 8.9297,-37.373 2.8691,-0.359 5.8804,-0.511 8.9121,-0.481 z m 271.0235,4.422 c 4.1303,0 14.0371,11.922 14.0371,16.893 0,3.707 -7.0673,4.627 -11.7129,1.525 -4.3373,-2.896 -9.0674,-13.146 -7.3496,-15.926 0.8476,-1.371 3.1092,-2.492 5.0254,-2.492 z m -187.6172,13.912 c 3.7421,-0.04 7.4477,0.451 11.1914,1.44 23.0197,6.081 36.192,11.143 40.6836,15.634 2.561,2.561 6.0874,4.707 7.8379,4.766 1.7504,0.06 -3.4,2.844 -11.4473,6.188 -8.0471,3.342 -18.3053,8.69 -22.7949,11.886 -6.7667,4.819 -11.8837,5.905 -29.9238,6.352 -11.9689,0.296 -27.4906,1.147 -34.4922,1.888 -13.3802,1.418 -24.1856,-1.976 -24.1856,-7.593 0,-1.819 8.286,-10.282 18.4141,-18.807 17.5383,-14.763 31.3521,-21.617 44.7168,-21.754 z m 138.1406,31.822 c 0.5931,0 1.2051,0 1.832,0 8.3595,0.125 19.3983,1.776 24.254,4.26 12.6485,6.47 25.5165,17.47 30.5703,26.135 5.3109,9.106 5.0933,9.147 -13.4727,2.56 -7.6801,-2.724 -19.9959,-5.662 -27.3691,-6.529 -7.3732,-0.866 -13.4063,-2.404 -13.4063,-3.416 0,-1.012 -2.7653,-5.916 -6.1465,-10.898 -3.3813,-4.983 -5.482,-9.727 -4.6679,-10.541 1.0253,-1.026 4.2548,-1.516 8.4062,-1.573 z m -68.0449,0.123 c 25.1747,0.04 52.6328,14.617 52.6328,32.075 0,4.836 -1.4331,9.287 -3.1836,9.892 -1.7502,0.606 -15.786,2.932 -31.1894,5.168 -43.9738,6.384 -67.8419,7.262 -73.5469,2.703 -4.2177,-3.369 -4.418,-4.774 -1.6406,-11.48 4.0369,-9.746 25.548,-29.948 36.9707,-34.721 6.038,-2.523 12.9081,-3.649 19.957,-3.637 z m -249.2246,22.506 c 12.0895,-0.05 20.2239,1.377 35.7969,5.889 15.784,4.573 29.2793,12.602 29.2793,17.42 0,0.921 -6.2126,1.161 -13.8067,0.531 -24.6193,-2.041 -63.3232,9.334 -85.8808,25.24 -13.5016,9.521 -17.1639,4.647 -9.6446,-12.832 7.2103,-16.761 27.6187,-35.768 38.8008,-36.138 1.9217,-0.06 3.728,-0.102 5.4551,-0.11 z m 323.8535,10.563 c 1.6111,0 11.3017,3.562 21.5332,7.916 32.9528,14.023 36.4335,18.431 21.7285,27.519 -11.7725,7.276 -13.0517,6.805 -13.334,-4.927 -0.5148,-21.406 -10.4141,-15.672 -16.6347,9.634 -2.4503,9.968 -6.4119,21.912 -8.8028,26.543 -5.5736,10.797 -33.7627,40.144 -52.3906,54.541 -15.1837,11.736 -17.3789,12.816 -17.3789,8.539 0,-7.405 8.0528,-20.129 15.7539,-24.888 13.8155,-8.539 39.7806,-37.145 45.209,-49.809 6.6147,-15.432 10.4735,-36.855 7.0215,-38.988 -1.4467,-0.894 -5.4259,1.71 -8.8418,5.787 -4.7257,5.639 -5.8706,6.194 -4.7871,2.32 4.2326,-15.134 8.3211,-24.187 10.9238,-24.187 z m -155.7578,1.342 c 3.5155,0.208 3.0206,3.095 -0.1,11.939 -1.9937,5.651 -3.625,12.994 -3.625,16.318 0,4.751 -1.3631,6.045 -6.3653,6.045 -7.2233,0 -7.5566,-1.826 -3.664,-19.976 2.2041,-10.277 3.8274,-12.804 8.8496,-13.764 2.1143,-0.404 3.7324,-0.632 4.9043,-0.562 z m 10.7832,21.83 c 0.7417,-0.136 4.3997,2.346 8.4941,5.791 3.768,3.17 6.3389,4.845 10.7051,5.728 -0.52,2.663 -0.9878,5.752 -1.2773,9.172 -7.5378,-3.342 -15.7351,-5.674 -21.4844,-5.674 -5.8775,0 -5.9019,-0.107 -1.5899,-7 2.4091,-3.851 4.6783,-7.43 5.043,-7.955 0.023,-0.03 0.06,-0.05 0.1094,-0.06 z m -135.25,4.781 c 6.793,-0.03 11.2637,1.082 11.2637,3.646 0,6.661 -15.5173,17.318 -23.5079,16.145 -10.1511,-1.49 -12.9875,4.839 -10.9472,24.428 2.4314,23.341 10.8901,44.318 22.3594,55.449 12.4538,12.086 28.5863,21.576 43.4238,25.545 7.8009,2.086 12.4454,5.013 14.2539,8.982 2.5435,5.582 2.189,5.889 -6.8106,5.867 -14.7103,-0.04 -49.2822,-18.025 -59.9296,-31.179 -17.3865,-21.481 -32.3006,-68.171 -27.6407,-86.53 3.2689,-12.878 1.6407,-15.429 -4.7871,-7.5 -3.756,4.633 -6.8296,5.717 -14.4199,5.09 l -9.6465,-0.795 10.7403,-5.74 c 14.5228,-7.761 40.7037,-13.343 55.6484,-13.408 z m 243.4863,1.332 c 3.564,-0.05 5.9579,1.14 8.4863,3.934 2.4744,2.734 6.0386,4.97 7.9219,4.97 8.4922,0 1.7138,11.93 -19.1719,33.737 -6.3705,6.651 -12.3248,12.091 -13.2324,12.091 -2.084,0 0.2073,-49.09 2.3906,-51.218 0.8876,-0.865 5.2094,-2.244 9.6036,-3.063 1.4965,-0.279 2.8139,-0.434 4.0019,-0.451 z m -73.4863,6.34 c 1.047,0 1.9692,0.02 3.1308,0.02 h 5.6094 c -0.5613,6.92 -1.2976,17.129 -2.3144,28.946 -1.6593,-3.863 -4.1075,-7.532 -7.3399,-10.764 -0.031,-0.03 -0.069,-0.06 -0.1,-0.09 z m 18.4785,0.02 h 6.0977 l -0.022,7.002 c -0.015,4.598 -3.1059,19.002 -7,34.295 0.586,-15.944 0.8248,-32.582 0.9238,-41.297 z m -75.3262,18.102 c 25.7492,0.297 45.7813,9.268 45.7813,23.33 0,2.939 -3.3811,6.07 -9.1699,8.488 -9.2037,3.846 -44.0192,6.588 -58.3008,4.594 -4.2009,-0.587 -13.5239,-1.7 -20.7188,-2.477 -7.195,-0.776 -15.0699,-2.865 -17.498,-4.64 -4.081,-2.984 -3.8131,-3.912 3.5254,-12.27 6.2189,-7.083 11.5018,-9.937 24.3847,-13.174 10.9689,-2.755 21.9204,-3.967 31.9961,-3.851 z m -104.7812,5.65 c 2.1729,-0.12 3.1117,2.116 4.1113,8.496 2.9414,18.778 8.9645,42.33 12.7793,49.977 2.1161,4.242 3.4726,8.086 3.0156,8.543 -0.4571,0.457 -6.0677,-2.49 -12.4687,-6.549 -9.0343,-5.729 -13.3697,-10.993 -19.3789,-23.523 -4.2577,-8.878 -8.447,-19.706 -9.3086,-24.063 -1.4637,-7.4 -1.0149,-8.013 6.832,-9.33 4.6195,-0.775 10.3341,-2.175 12.6992,-3.111 0.6487,-0.257 1.2173,-0.412 1.7188,-0.44 z m 165.0742,34.891 c -1.7645,15.108 -4.02,30.503 -6.9824,43.705 -1.4015,3.055 -2.7955,6.021 -4.0977,8.691 -5.0052,10.265 -10.4214,19.759 -12.0351,21.098 -1.3239,1.099 -3.6936,-0.663 -6.4493,-4.062 5.5653,-12.495 12.5244,-41.21 15.8125,-59.118 4.2622,-1.748 7.4367,-3.78 10.2188,-6.359 1.3259,-1.229 2.4969,-2.557 3.5332,-3.955 z m -29.3477,14.711 c -3.6993,13.477 -7.4354,29.474 -10.9433,36.857 -4.1215,-8.559 -7.3203,-17.539 -7.3203,-22.853 0,-10.432 0.2812,-10.794 9.5488,-12.375 3.1951,-0.545 6.0691,-1.084 8.7148,-1.629 z m -57.7265,0.48 c 2.1004,0 3.7399,2.005 3.6406,4.455 -0.099,2.451 -1.0445,6.664 -2.1016,9.362 -1.7834,4.552 -2.0442,4.585 -3.6386,0.429 -2.9008,-7.559 -1.9161,-14.246 2.0996,-14.246 z" fill="#00B894" transform="translate(-9.9302642,37.166595) matrix(0.50522512,0,0,0.50522512,-382.01932,-110.26151) matrix(0.52369393,0,0,0.52369393,-4080.9717,-10277.742)"/>
</svg>