<?xml version="1.0" ?><svg height="98.550339mm" viewBox="0 0 98.317146 98.550339" width="98.317146mm" xmlns="http://www.w3.org/2000/svg">
    <path d="m -36.96775,3234.9434 22.153589,15.2128 -1.477857,-12.3754 6.4743545,8.0939 4.3772401,-23.0786 4.92614477,24.6113 9.02189463,-11.8814 -2.3927064,13.0974 23.1106664,-16.9354 -14.342137,24.3456 13.511715,-1.1655 -12.273121,7.4229 26.826369,4.1672 c 0,0 -11.499056,4.2942 -13.216149,4.7882 -1.717093,0.494 -12.188693,3.2424 -12.188693,3.2424 l 10.75309,8.0436 -12.188693,-3.6102 12.090162,18.1769 -21.0276013,-12.9329 c 0,0 3.3075563,16.4161 3.3919843,17.4295 0.08446,1.0133 -9.75375814,-13.7433 -9.75375814,-13.7433 0,0 -2.75388916,23.9533 -4.85102956,23.3199 -2.0971139,-0.6334 -5.0950282,-21.9388 -5.0950282,-21.9388 l -9.4722681,12.9961 2.603817,-14.8455 -17.959334,13.3001 12.498334,-21.1913 -15.862167,5.7632 11.330119,-11.0707 -24.982593,-3.0398 0.605208,-1.5076 25.0952,-6.4598 -12.498335,-8.2336 14.004317,1.9889 z" fill="#FFFFFF" paint-order="markers stroke fill" transform="translate(54.192438,-152.08085) translate(1069.0111,-1736.6723) translate(-1070.4741,-1328.9457)"/>
    <path d="m -1076.0576,1986.5318 c -0.3842,-0.447 -1.0485,-3.5881 -1.4762,-6.9803 -0.4278,-3.3924 -1.3004,-8.1352 -1.9393,-10.5394 l -1.1614,-4.3717 -3.249,5.0057 c -4.0922,6.3044 -5.2412,7.4394 -6.4997,6.4201 -1.3071,-1.0587 -1.2259,-3.4235 0.2997,-8.7239 0.7284,-2.5306 1.2443,-4.6789 1.1466,-4.7739 -0.098,-0.094 -2.5877,1.9737 -5.533,4.597 -10.2035,9.0882 -13.9717,11.3324 -14.0596,8.3737 -0.032,-1.0837 3.2594,-6.5517 7.9134,-13.146 4.0103,-5.6821 6.2496,-9.1363 6.0489,-9.3312 -0.1067,-0.1044 -1.4622,0.3799 -3.0121,1.0748 -3.4025,1.5252 -10.1013,3.5039 -11.8619,3.5039 -1.5033,0 -2.2625,-1.4428 -1.5259,-2.9004 0.287,-0.5675 2.9189,-2.7537 5.8489,-4.8581 4.8558,-3.4876 5.1774,-3.8389 3.6345,-3.972 -0.9308,-0.081 -5.4421,-0.3812 -10.025,-0.6689 -9.4502,-0.5931 -11.6221,-1.2653 -11.692,-3.6193 -0.042,-1.4165 0.3413,-1.694 3.9256,-2.8411 2.1848,-0.6995 7.3854,-2.0725 11.5568,-3.0515 4.1717,-0.9791 7.6986,-1.8974 7.8379,-2.0408 0.1392,-0.1432 -1.0509,-0.9997 -2.6444,-1.9028 -3.935,-2.2297 -8.063,-5.5405 -8.0912,-6.4895 -0.056,-1.8916 1.6204,-2.3406 6.0753,-1.6268 2.3612,0.378 4.9643,0.8725 5.7845,1.0987 1.2767,0.352 1.0362,-0.083 -1.6715,-3.0229 -3.7332,-4.0536 -10.1331,-14.7928 -10.206,-17.1262 -0.037,-1.2599 0.232,-1.6337 1.1858,-1.6337 2.1803,0 11.9874,6.1979 19.5061,12.3273 1.3287,1.0832 2.5062,1.8764 2.6167,1.7627 0.1104,-0.1145 -0.3843,-2.0601 -1.0992,-4.3247 -1.5568,-4.9317 -1.68,-6.716 -0.4951,-7.1758 1.3218,-0.5132 3.5221,1.1573 5.5372,4.2037 0.986,1.4905 1.9931,2.7105 2.2381,2.7109 0.2453,4e-4 0.4177,-1.0013 0.3834,-2.2267 -0.07,-2.7013 1.5806,-14.2922 2.5591,-17.9117 0.7816,-2.8912 2.2634,-4.3153 3.371,-3.2397 0.3706,0.3599 1.4557,5.1659 2.4117,10.6801 0.956,5.5143 1.9773,11.2037 2.2694,12.6433 l 0.5314,2.6175 2.1216,-3.611 c 2.393,-4.073 5.1864,-6.7857 6.4815,-6.2943 1.3413,0.5089 1.7297,3.7378 0.8829,7.3429 -0.422,1.7966 -0.6936,3.3381 -0.6037,3.4256 0.09,0.087 2.6163,-1.8742 5.6141,-4.3589 2.9978,-2.4847 7.3592,-6.098 9.6922,-8.0298 2.3327,-1.9315 4.5924,-3.5119 5.0211,-3.5119 1.3714,0 2.3201,1.6663 1.9406,3.4083 -0.3344,1.5358 -6.756,11.9166 -11.7933,19.0645 -1.2266,1.7407 -2.1371,3.2511 -2.0234,3.3561 0.1139,0.1043 2.0677,-0.1733 4.3417,-0.6185 4.9514,-0.9693 8.9679,-1.0766 9.5009,-0.2537 1.012,1.5623 -0.5079,3.0674 -5.4968,5.444 -2.8627,1.3633 -5.103,2.636 -4.9788,2.8279 0.1243,0.192 1.9232,0.4297 3.9974,0.5286 5.4543,0.2599 19.0922,2.3513 19.7972,3.036 0.7489,0.7275 -0.3373,2.1839 -2.4594,3.2984 -2.2013,1.1563 -7.6067,2.4855 -15.621,3.8413 -3.8412,0.65 -7.0655,1.2655 -7.1649,1.3679 -0.099,0.1028 2.1424,1.7393 4.9818,3.6376 5.4864,3.6675 6.2859,4.6055 5.1438,6.033 -0.7841,0.98 -3.1485,0.7554 -7.3515,-0.6978 l -2.3205,-0.8025 1.764,2.2259 c 4.7045,5.9358 8.9379,12.4238 8.8145,13.5089 -0.2375,2.0897 -2.7538,1.7539 -6.7324,-0.8983 -2.0001,-1.3331 -5.5439,-3.6348 -7.8748,-5.1146 -2.3314,-1.4799 -4.9894,-3.2121 -5.9068,-3.8496 -0.9174,-0.6376 -1.6642,-0.9506 -1.6595,-0.6959 0.01,0.2549 0.8024,3.4564 1.7725,7.1145 0.9702,3.6582 1.6145,7.0728 1.4321,7.5881 -0.9989,2.8214 -4.6221,0.5963 -7.3974,-4.5435 -0.8256,-1.5288 -1.7414,-2.9255 -2.035,-3.1038 -0.294,-0.1782 -0.6523,1.0084 -0.7969,2.6369 -0.3479,3.9214 -3.3407,15.9621 -4.3877,17.6532 -0.9401,1.5184 -2.1122,1.7145 -3.1356,0.5241 z m 3.2178,-18.3368 c 0.4416,-3.6812 0.9234,-7.1608 1.0707,-7.7326 0.2321,-0.9004 -0.1701,-1.0396 -3.0045,-1.0396 -1.7998,0 -3.3981,0.2138 -3.5519,0.4751 -0.1537,0.2612 0.4288,2.7341 1.2945,5.4951 0.8656,2.7611 1.8796,9.4724 2.1327,10.8577 0.2532,1.3853 0.6614,2.392 0.9072,2.2373 0.2459,-0.1549 0.7098,-6.6119 1.1513,-10.293 z m 10.7375,-2.3464 c -0.573,-2.0638 -1.2525,-4.8887 -1.51,-6.2773 -0.512,-2.7601 -0.742,-2.9252 -2.3763,-1.7036 -1.0573,0.7903 -0.9952,1.0359 1.6566,6.5432 1.5155,3.1473 2.8716,5.6025 3.0134,5.4561 0.142,-0.1464 -0.2108,-1.9546 -0.7837,-4.0184 z m -22.1546,-0.4898 c 2.949,-4.6423 3.5032,-6.8271 1.7316,-6.8271 -0.8426,0 -1.5685,1.216 -2.9709,4.9787 -2.784,7.4685 -2.5512,7.8156 1.2393,1.8484 z m -7.5225,-5.4119 4.0575,-3.7321 -1.6431,-1.6634 c -1.951,-1.9752 -2.4167,-2.0536 -2.8684,-0.4832 -0.1868,0.6492 -1.855,3.5974 -3.7071,6.5515 -1.852,2.9542 -3.3629,5.5212 -3.3574,5.7044 0.012,0.3903 1.9284,-1.2353 7.5185,-6.3772 z m 41.601,-0.9698 c -2.0455,-2.5322 -4.393,-5.406 -5.2169,-6.3862 l -1.4978,-1.7823 c -0.8706,2.1198 -3.1031,3.185 -4.1189,4.4236 0.01,0.1809 2.5239,1.7206 5.5967,3.4215 3.0728,1.7005 6.1337,3.4968 6.8018,3.9911 2.4922,1.8437 2.0505,0.8085 -1.5649,-3.6677 z m -16.2801,-4.7792 c 4.1943,-2.1726 8.6844,-4.9706 9.7557,-11.7462 -3.6909,-0.6949 -3.7763,-3.1673 0.2563,-3.3796 0.4611,-0.013 0.812,-3.8654 -0.8498,-8.2094 -1.1654,-3.0467 -2.2677,-4.3282 -5.5216,-6.419 -4.9564,-2.3162 -14.7293,-2.383 -19.6101,0.1443 -8.4556,4.4826 -15.0846,15.8808 -6.1301,25.9458 4.3237,4.86 15.9676,6.8406 22.0996,3.6641 z m -9.0819,-8.0611 c -0.04,-1.3445 1.2111,-1.872 1.8536,-0.7817 0.8202,1.3916 4.2684,2.166 6.9026,1.5502 7.6677,-2.6984 3.0946,2.9022 -0.8912,3.2083 -2.9018,0.3052 -7.603,-0.9803 -7.865,-3.9768 z m 1.5735,-7.7707 c -0.4637,-0.5394 -0.6436,-1.5312 -0.4424,-2.4403 0.256,-1.157 0.6619,-1.4858 1.6601,-1.3444 1.0754,0.1515 1.3327,0.5725 1.3828,2.2581 0.068,2.3044 -1.261,3.0848 -2.6005,1.5266 z m 6.2285,-0.5289 c -1.4986,-1.0726 -0.9594,-3.9598 0.7397,-3.9598 1.5247,0 2.3635,2.7246 1.206,3.9175 -0.6941,0.7153 -0.9959,0.7219 -1.9456,0.042 z m -30.2444,14.0907 c 4.2788,-1.6037 4.5529,-1.9036 3.4778,-3.8065 -0.5918,-1.0481 -0.8999,-0.9384 -4.5558,1.6226 -2.1565,1.5107 -4.1684,2.9698 -4.4705,3.2424 -1.0676,0.9624 1.4258,0.4867 5.5485,-1.0585 z m 49.6438,-1.9116 c -0.1765,-0.2724 -1.4344,-1.2514 -2.7954,-2.1757 -2.0009,-1.3586 -2.6083,-1.5339 -3.1721,-0.9155 -0.4318,0.4733 -0.4685,0.8557 -0.096,1.0038 0.3307,0.1314 1.6856,0.7449 3.0109,1.3629 2.6994,1.2586 3.5261,1.4548 3.0529,0.7245 z m 5.6309,-8.3782 c 10.4473,-2.7563 12.1505,-3.3514 10.8776,-3.8016 -1.1719,-0.4144 -11.7842,-2.0219 -16.5601,-2.5083 l -3.7244,-0.3792 -0.1018,3.9937 c 3.9771,1.5018 2.1486,3.4705 -0.8072,3.4038 0,0 -0.5672,1.6324 0.7319,1.6271 3.7098,-0.8023 6.5816,-1.5453 9.584,-2.3355 z m -53.9406,-5.2718 -3.0846,0.8246 c -1.6965,0.4534 -6.5396,1.5117 -10.7622,2.3515 -4.2228,0.8396 -8.0731,1.7131 -8.5566,1.941 -0.4834,0.2277 3.1357,0.5585 8.0419,0.7354 4.9065,0.1766 10.1255,0.377 11.5978,0.4452 l 2.6771,0.1246 c -0.4893,-2.2964 -0.3195,-4.3947 0.087,-6.4223 z m 2.2421,-5.1924 c -0.022,-0.7406 -4.3094,-2.5876 -8.1229,-3.4992 -2.1942,-0.5245 -1.8746,-0.1962 2.9192,2.9972 2.7534,1.8342 3.9703,2.3468 4.5003,1.8959 0.3995,-0.34 0.7161,-0.9671 0.7034,-1.3939 z m 45.3789,-2.2918 2.9283,-1.4152 -3.5552,0.3102 c -3.7421,0.3265 -4.8261,0.8221 -4.1344,1.89 0.6099,0.9417 1.4889,0.7969 4.7613,-0.785 z m -40.1772,-3.6668 1.9841,-2.1272 -2.4373,-2.0468 c -3.7958,-3.188 -10.1029,-8.1747 -12.7546,-10.0845 l -2.4073,-1.7337 2.0849,3.5646 c 1.1466,1.9603 3.6727,5.4357 5.6136,7.7229 1.9409,2.2872 3.919,4.76 4.396,5.4953 0.477,0.7351 1.0178,1.3366 1.2018,1.3366 0.184,0 1.2275,-0.9573 2.3188,-2.1272 z m 43.0735,-15.9168 c 1.2808,-2.082 0.7283,-1.7643 -4.5879,2.6381 -2.2322,1.8487 -5.6294,4.483 -7.5491,5.854 -1.9197,1.3711 -3.4509,2.6541 -3.4029,2.8506 1.8034,1.3137 3.3847,2.2299 5.332,4.2019 l 4.5791,-6.9189 c 2.5183,-3.8053 5.0513,-7.687 5.6288,-8.6257 z m -35.5548,11.0636 c -0.022,-0.245 -0.8859,-1.9159 -1.9187,-3.713 -1.0857,-1.89 -1.7396,-2.6414 -1.5505,-1.7822 0.1797,0.8168 0.5382,2.4876 0.7966,3.7131 0.3469,1.6454 0.7631,2.2277 1.5918,2.2277 0.6172,0 1.1036,-0.2006 1.0808,-0.4456 z m 7.3726,-1.1032 c 1.2186,-0.473 1.0523,-4.2986 -0.5778,-13.3033 -1.392,-7.6907 -1.3485,-7.7531 -2.9078,4.1586 -1.2675,9.6823 -1.2828,9.5053 0.823,9.5053 0.9536,0 2.1518,-0.1617 2.6626,-0.3606 z m 9.3757,-3.6538 c 0.5594,-1.8762 1.1494,-3.7896 1.3112,-4.2517 0.6577,-1.877 -1.0366,0.1314 -2.9243,3.4669 -1.9074,3.3698 -1.9073,4.0174 8e-4,4.1539 0.3274,0.023 1.0529,-1.4925 1.6123,-3.3691 z" fill="#00B894" transform="translate(54.192438,-152.08085) translate(1069.0111,-1736.6723)"/>
</svg>