<?xml version="1.0" ?><svg height="151.10417mm" viewBox="0 0 115.54351 151.10417" width="115.54351mm" xmlns="http://www.w3.org/2000/svg">
    <path d="m 4659.6418,-804.1996 c 0,0 -120.2906,-11.401 -204.2035,-57.3188 -83.9129,-45.9179 -129.3561,-103.7597 -126.6829,-123.7376 2.6731,-19.978 42.0726,-13.0745 46.2567,-34.3076 4.184,-21.2331 -26.1502,-26.9859 -40.5618,-51.0431 -14.4117,-24.0572 -4.4165,-44.8719 17.6659,-43.9305 22.0823,0.9413 26.9636,14.3297 32.7748,0.7322 5.8112,-13.5976 -22.431,-35.5628 -20.339,-61.2936 2.092,-25.7307 9.0654,-30.3329 24.9879,-31.6927 15.9226,-1.3598 23.8257,1.1506 16.8523,-22.1744 -6.9733,-23.3251 -17.4335,-40.3742 0,-50.7293 17.4335,-10.3551 35.3318,3.0333 47.1865,15.5849 11.8547,12.5515 29.0557,44.4534 41.0267,23.8479 11.9709,-20.6055 20.339,-25.6261 36.494,-18.1997 16.1549,7.4263 8.368,27.9272 11.0411,41.1064 2.6732,13.1791 14.9928,34.726 30.6829,12.6561 15.69,-22.0698 32.0775,-20.1871 42.5376,-15.3756 10.46,4.8114 16.736,24.8939 16.736,43.6167 0,18.7228 8.0193,42.1524 28.707,20.8147 20.6878,-21.3377 31.9614,-43.826 55.4384,-38.7007 23.477,5.1252 33.9371,36.1904 32.7749,84.8277 -1.1623,48.6373 -54.6249,231.2627 -64.5038,260.1313 -9.8789,28.8687 -24.8717,45.1857 -24.8717,45.1857 z" fill="#FFFFFF" transform="translate(-120.63302,45.313991) matrix(0.26458333,0,0,0.26458333,-1021.8977,297.18478)"/>
    <path d="m 4701.296,-731.24975 c -12.0068,-13.24002 -21.3376,-27.08918 -30.5568,-45.35477 l -8.8114,-17.45695 -23.5129,-1.96102 c -29.8756,-2.49138 -84.8228,-14.04359 -119.8987,-25.20746 -32.1221,-10.22385 -102.7623,-44.95862 -129.6322,-63.74192 -24.2013,-16.91794 -44.8552,-40.10187 -56.1316,-63.00744 -10.1426,-20.60241 -15.0734,-42.55027 -11.6075,-51.66641 3.4329,-9.02888 16.0765,-18.02968 28.1306,-20.02588 22.1502,-3.6681 21.7789,-6.9169 -2.9279,-25.6183 -18.006,-13.6294 -28.1212,-31.4064 -28.1212,-49.4217 0,-24.7475 9.5322,-31.8749 33.364,-24.9469 27.752,8.0678 30.6815,1.7778 10.5566,-22.6675 -16.8002,-20.407 -19.7244,-37.3762 -9.5579,-55.465 8.3971,-14.9408 16.3438,-19.01 32.7367,-16.7631 12.1027,1.6588 13.012,1.336 12.9536,-4.5991 -0.035,-3.5108 -2.6097,-11.9959 -5.7224,-18.8558 -11.7153,-25.8181 -6.0703,-44.5786 15.8202,-52.5775 25.8219,-9.4352 41.005,-2.1366 54.6447,26.267 10.4155,21.689 16.1856,22.412 28.542,3.5765 7.1696,-10.9289 10.5953,-13.609 18.365,-14.3677 13.3696,-1.3054 28.8381,6.4813 37.2312,18.7418 5.7217,8.3582 7.0247,13.5376 6.6266,26.3409 -0.2725,8.7651 -0.9163,18.4628 -1.4307,21.5497 -1.885,11.3144 8.1296,7.9557 15.9213,-5.3394 4.1529,-7.087 10.3935,-14.8762 13.8671,-17.3093 15.7295,-11.0174 43.5171,0.3272 51.8573,21.1712 2.7768,6.9397 4.6883,19.8609 4.6883,31.6885 0,25.6454 3.0162,25.8328 28.1756,1.7514 23.0192,-22.0324 27.8242,-24.6994 44.4994,-24.6994 17.176,0 30.7727,11.5608 38.0142,32.3227 7.425,21.2883 7.3884,103.68 -0.064,142.2155 -12.1652,62.90912 -31.9947,123.85549 -65.7763,202.16707 l -10.067,23.33703 9.9227,10.99832 c 17.423,19.31126 40.3049,48.0524 41.7868,52.48706 2.2687,6.78803 -3.1091,14.30646 -10.2332,14.30646 -3.5846,0 -9.7283,-3.54084 -13.6528,-7.86859 z m -50.1644,-88.7615 c -28.7852,-43.16695 -39.5482,-57.87926 -42.3424,-57.87926 -1.8093,0 -4.7577,-1.46754 -6.5512,-3.26142 -1.794,-1.79378 -19.538,-10.06822 -39.4318,-18.38769 -38.3523,-16.03908 -118.3682,-57.81754 -144.0842,-75.23054 -29.4091,-19.91365 -6.8534,-12.26567 54.4451,18.46103 62.4593,31.30856 115.5371,55.52835 121.6909,55.52835 1.8944,0 -6.1864,-15.64989 -17.9575,-34.7773 -11.771,-19.1273 -25.9867,-42.97561 -31.5905,-52.99616 l -10.1885,-18.21886 -48.6289,-24.3054 c -51.6996,-25.8404 -67.3424,-35.4557 -80.8171,-49.6773 -10.1934,-10.7581 -6.7493,-11.4586 7.7841,-1.5831 11.2437,7.6405 105.5714,53.2397 107.0577,51.7532 0.4723,-0.4724 -9.5337,-21.0311 -22.2356,-45.6863 -15.8528,-30.7708 -24.6005,-44.8375 -27.8969,-44.8596 -5.4047,-0.037 -37.846,-20.1572 -51.8672,-32.1696 -15.999,-13.707 -8.1897,-13.2113 18.1771,1.1538 14.0121,7.6343 26.5771,13.8802 27.922,13.8802 1.3449,0 -1.3116,-6.7597 -5.9034,-15.0217 -8.5419,-15.37 -27.2713,-56.533 -41.9859,-92.2763 -5.0636,-12.3004 -8.6435,-18.0085 -9.2772,-14.7927 -0.5674,2.8797 1.6576,11.4877 4.9447,19.1285 6.6943,15.5615 7.6112,28.7373 2.6476,38.0561 -6.1005,11.4543 -10.9284,13.1473 -25.1663,8.8253 -14.9784,-4.3125 -12.8435,-7.3875 -17.1494,5.5962 -3.7185,11.2674 -1.2616,19.556 9.636,32.5071 4.1106,4.8853 9.4049,13.5039 11.765,19.1524 3.7786,9.0436 3.7918,11.4657 0.1094,20.2783 -5.8078,13.9003 -15.0274,17.5937 -33.3567,13.363 -21.1616,-4.8849 -22.6253,-4.5366 -22.6253,5.384 0,13.6802 7.2695,24.4309 24.0525,35.571 20.4373,13.5655 26.1078,22.4337 24.9188,38.9711 -6.2058,18.1809 -21.0511,21.6701 -35.3803,25.61098 -9.1269,2.53483 -10.7298,4.17395 -10.7298,10.97232 0,12.22015 15.3575,40.20052 30.6413,55.82634 18.6166,19.03323 45.0354,35.7388 93.2949,58.99422 44.0224,21.21343 75.2296,32.13088 130.7179,45.72982 19.6715,4.8209 39.6289,9.88148 44.3501,11.24569 15.3569,4.43741 16.7917,3.8035 11.0108,-4.86572 z m 20.3494,-22.11306 c 1.1386,-6.29499 7.0725,-26.51768 13.1863,-44.93953 37.8333,-113.99856 55.1993,-201.96816 50.0512,-253.53916 -3.4188,-34.2446 -12.8576,-47.1666 -30.9344,-42.3495 -8.6739,2.3115 -10.2956,3.7018 -24.7214,21.1931 -13.8048,16.7383 -24.4206,23.4922 -36.9258,23.4922 -14.6932,0 -22.7581,-14.5214 -25.2241,-45.4179 -1.783,-22.3402 -4.5938,-28.3037 -14.5142,-30.7935 -9.7848,-2.4559 -15.1779,1.1496 -23.2111,15.518 -10.7303,19.1923 -26.6304,19.7362 -39.1321,1.3386 -5.6862,-8.3682 -7.2327,-14.2012 -7.2327,-27.2779 0,-13.8453 -1.1774,-17.8108 -7.0234,-23.6566 -8.722,-8.7223 -13.9629,-8.8794 -19.5308,-0.5854 -18.0183,26.8406 -26.7975,26.2625 -56.7572,-3.7376 -20.4244,-20.4519 -28.6997,-25.9276 -28.7117,-18.9976 -0.021,9.3188 53.2456,127.8935 57.4429,127.8835 0.9056,0 4.0067,-8.0495 6.8917,-17.8831 7.0229,-23.937 16.2739,-45.0612 19.7341,-45.0612 1.5483,0 2.0992,1.8655 1.2242,4.1454 -0.8749,2.2799 -3.6283,14.19 -6.1191,26.4667 -2.4907,12.2768 -6.4806,29.1697 -8.8668,37.5393 l -4.3385,15.2177 21.9507,41.2303 c 12.073,22.6762 23.5429,43.4073 25.4891,46.0687 2.9963,4.098 6.9221,-5.3127 25.6354,-61.455 12.1535,-36.4615 23.2775,-66.2939 24.7204,-66.2939 3.2006,0 3.2354,-1.6255 -0.401,18.7882 -5.3563,30.0674 -11.4472,53.3188 -24.4919,93.4953 -10.7597,33.1391 -12.2383,40.3361 -9.4064,45.7804 9.5491,18.35746 55.1671,93.72894 56.7286,93.72894 0.9967,0 6.5137,-13.84146 12.2602,-30.75879 67.2436,-197.96635 68.0788,-200.23055 68.0788,-184.55055 0,16.6559 -13.1735,64.7119 -43.2266,157.68896 -10.8661,33.61763 -20.562,66.15896 -21.5462,72.31402 -1.637,10.23789 0,14.13606 19.0949,45.75808 19.8383,32.83545 21.0565,34.22959 24.3206,27.83086 1.8898,-3.70481 4.3676,-11.88636 5.5063,-18.18103 z" fill="#00B894" transform="translate(-120.63302,45.313991) matrix(0.26458333,0,0,0.26458333,-1021.8977,297.18478)"/>
</svg>