<?xml version="1.0" ?><svg height="110.51707mm" viewBox="0 0 112.48311 110.51707" width="112.48311mm" xmlns="http://www.w3.org/2000/svg">
    <path color="#000" d="m 6778.682,3538.7987 c -19.6088,109.7926 -96.8848,188.0229 -205.6572,188.0229 -108.7724,0 -196.9499,-90.4129 -196.9499,-201.9429 0,-111.53 88.3223,-196.3318 196.9499,-201.9429 140.9478,-7.2806 226.4152,99.6358 205.6572,215.8629 z" fill="#FFFFFF" overflow="visible" paint-order="fill markers stroke" transform="translate(137.21007,-28.364704) matrix(0.26458333,0,0,0.26458333,-1821.6576,-848.91414)"/>
    <path d="m 6596.9558,3315.7045 c -80.8869,-0.5157 -163.473,39.7978 -196.3947,101.5167 -9.8877,14.9669 -20.3548,34.0322 -25.961,53.2623 -24.8607,74.4483 13.4084,148.7017 28.7887,174.6403 65.3512,110.2136 244.6408,120.1076 330.017,13.3895 45.1554,-54.2212 77.871,-119.6439 44.425,-217.1608 -30.4046,-88.6492 -104.8905,-125.1635 -180.875,-125.648 z m 24.1421,15.0693 c 1.5445,0.068 1.6335,2.5204 1.1211,5.0825 -0.8069,4.0344 1.4498,8.5531 6.8791,13.7716 2.2472,2.16 4.0865,4.3436 4.0865,4.8528 0,0.5091 -2.6987,0.664 -5.9961,0.3438 -6.7686,-0.6573 -13.1509,1.8817 -15.0304,5.9811 -1.4158,3.0882 -6.398,3.6902 -19.429,2.3454 -8.1492,-0.91 -37.5496,-4.626 -43.0763,3.3469 -0.5012,0.7835 -1.4055,1.4239 -2.0099,1.4239 -1.6228,0 -7.6538,6.8115 -10.1009,11.408 -3.1363,5.8913 -2.4013,12.6944 2.469,22.8711 5.6848,10.5541 7.9176,20.6238 36.2905,12.5848 3.6865,-1.8452 24.7119,-12.5025 26.7539,-10.2829 1.3702,2.2171 -6.4302,10.5922 -13.6364,14.6398 -5.2256,2.9349 -14.086,3.7766 -19.0001,1.9347 -4.8334,0.6347 -10.9851,1.4183 -15.7899,1.9347 -1.2737,0.9225 -4.6634,1.9585 -7.814,2.3571 -3.3157,0.4194 -7.4177,1.3117 -9.116,1.9831 -9.4875,3.7508 -14.6859,6.3773 -17.1922,8.687 -7.5513,5.1081 -16.9101,11.0706 -11.3512,22.2684 0.7291,1.369 4.4092,5.3489 8.1779,8.8423 l 6.8524,6.3517 c -3.3018,1.4836 -3.9851,6.513 -6.5502,8.036 -0.8749,0.5013 -2.7026,3.0549 -4.0615,5.674 -2.2087,4.2573 -2.3434,5.4443 -1.2787,11.2043 1.151,6.226 4.6332,11.9568 11.0275,18.1469 10.7116,10.3697 27.7392,13.3925 40.3469,7.1613 3.4472,-1.7038 7.2932,-4.6395 8.5468,-6.5236 1.2536,-1.884 3.1766,-3.7144 4.2734,-4.0664 1.1774,-0.3778 1.9948,-1.7754 1.9948,-3.412 0,-1.5247 0.5192,-2.7711 1.1552,-2.7711 0.636,0 2.0474,-1.4113 3.135,-3.135 2.342,-3.7113 4.3876,-4.2158 10.4598,-2.5807 3.1548,0.8495 5.7807,2.7559 8.6971,6.315 5.1942,5.9383 11.5309,8.6343 17.2138,12.7852 7.0647,5.1872 7.2696,5.4721 5.0046,6.976 -5.4828,3.6405 0.2109,10.7836 9.6034,12.0473 8.1389,1.095 11.6971,3.0406 19.4023,10.61 9.6254,9.4558 10.6915,11.2015 16.122,26.3983 5.4411,15.2258 6.9436,25.9883 7.173,51.3777 0.1684,18.6299 -0.3153,23.2881 -4.6006,44.2631 -1.8365,8.989 -3.3402,16.5541 -3.3402,16.8099 0,0.2558 -0.4508,0.464 -1.0016,0.464 -5.1382,1.5816 -10.4777,8.2786 -18.3706,9.1427 0,0.6412 -1.2566,0.3423 -2.7928,-0.6643 -3.1509,-2.0645 -6.2382,-1.4743 -11.0975,2.1183 -2.6151,1.9334 -3.3959,2.0593 -4.9177,0.7963 -4.2331,-3.6589 -7.6836,-5.4914 -12.4029,-17.1254 -1.5713,-7.6468 -12.4918,-31.0944 -16.0069,-34.3692 -1.2173,-1.1341 -3.5645,-2.0615 -5.2149,-2.0615 -6.8798,0 -16.8145,-4.6889 -24.4887,-11.5566 -6.2755,-5.6162 -12.6056,-8.0258 -25.0996,-9.5551 -12.7169,-1.5566 -21.332,-4.7808 -23.4753,-8.7855 -2.0305,-3.7941 -2.7179,-8.8736 -2.5073,-18.5359 0.5155,-23.6539 13.8142,-43.2782 35.6462,-52.6012 11.8671,-4.6512 40.277,-18.26 49.5566,-9.6135 0.3506,0.5673 2.8168,0.9229 5.4803,0.7896 4.4806,-0.2245 4.8681,-0.4991 5.1831,-3.6592 0.2609,-2.6165 -0.2718,-3.7242 -2.2786,-4.7374 -4.5355,-2.2899 -16.4672,-4.8396 -19.868,-4.245 -1.7951,0.3139 -6.5978,0.7995 -10.6718,1.0783 -8.7915,0.6017 -23.737,4.9294 -33.5713,9.7203 -7.3812,1.2687 -11.018,7.281 -16.8349,10.2729 -1.3935,0.01 -12.67,12.36 -15.3976,16.8649 -5.8886,9.7255 -8.6076,17.7592 -10.1093,29.8638 -2.7157,21.8893 1.8737,32.3415 17.5143,39.8929 6.3543,3.0679 9.5497,3.8385 18.4257,4.4386 13.7395,-2.5428 33.0431,21.4696 39.2337,19.5843 3.6672,0.7997 6.9277,2.1301 7.2447,2.9563 0.3171,0.8262 1.2202,1.5023 2.0081,1.5023 3.8499,6.4578 9.2625,18.2112 10.9256,24.5805 1.5374,6.4357 9.7589,21.0014 11.8537,21.0014 1.7931,0 6.1895,5.1884 5.2533,6.1246 -41.8938,17.0865 -87.7785,4.6891 -121.9374,-3.1149 -7.3471,-3.3237 -17.7662,-11.798 -24.0846,-16.0436 0,0 -1.8506,-2.9965 -3.2869,-8.8423 -3.3745,-10.1778 -5.1036,-21.2902 -8.4767,-30.882 -1.8047,-8.5662 -3.7897,-11.2744 -9.949,-17.3957 -13.6437,-13.156 -13.144,-12.491 -13.3343,-17.7564 -0.2303,-6.3714 -1.1577,-10.6173 -3.1534,-14.4427 -0.8772,-1.6814 -1.6008,-3.9115 -1.6008,-4.9562 0,-1.0446 -0.3913,-2.0713 -0.8613,-2.2802 -0.4701,-0.209 -3.8466,-3.5472 -7.5035,-7.4201 l -6.6506,-7.0427 4.7642,-8.7321 c 2.6203,-4.8028 5.118,-11.121 5.5505,-14.0405 0.8293,-5.5981 -0.8078,-15.1638 -3.2702,-19.1068 -8.1288,-10.15 -21.9838,-9.8531 -32.563,-4.6406 -3.0945,1.5933 -7.0141,4.2154 -8.7104,5.8258 -3.6462,3.4617 -4.1852,3.5812 -4.1766,0.9331 0,-1.0968 -0.3188,-6.1264 -0.7145,-11.1776 l -0.7194,-9.1844 5.6956,-5.0614 c 5.3126,-4.72 11.3026,-8.2458 22.372,-13.1724 4.9549,-2.1827 10.6806,-3.6242 15.0403,-5.1581 7.7496,-2.7358 12.3034,-6.4551 17.1253,-13.9838 2.5275,-3.9461 2.7134,-4.9302 1.6127,-8.5167 -0.9487,-3.0908 -0.9122,-4.2419 0.1518,-4.8377 4.6871,-2.6243 10.7327,-8.5809 12.3595,-12.1792 1.0422,-2.305 2.2599,-6.9272 2.7076,-10.2712 0.7552,-5.641 0.5858,-6.3194 -2.367,-9.4015 -1.7503,-1.8268 -3.6832,-3.3218 -4.2935,-3.3218 -0.6103,0 -2.5446,-1.6077 -4.3001,-3.574 -3.9524,-4.4269 -3.3108,-6.007 5.7224,-14.0889 11.8014,-10.5584 18.3472,-17.6019 18.3472,-19.7411 0,-1.1697 -0.8963,-2.9387 -1.9931,-3.9312 -2.6843,-2.4289 -12.598,-6.7339 -16.7264,-7.2631 -4.1316,-0.5297 -4.1878,-0.5887 -2.554,-2.6842 2.2611,-2.9003 9.8789,-8.1634 9.8789,-6.8258 4.5555,6.9436 17.4923,0.3666 21.5206,-2.5039 1.4948,-1.1349 3.289,-2.0714 3.9879,-2.0817 0.699,-0.01 3.5651,-2.0286 6.3701,-4.4853 2.8878,-2.5295 5.607,-4.0809 6.2682,-3.5774 2.1321,1.6236 12.5106,3.9988 15.9819,3.6574 7.5266,-0.7401 20.569,-5.9942 25.6404,-10.3295 1.567,-1.3396 5.2922,-4.533 8.2781,-7.0963 2.9858,-2.5632 7.7833,-7.7983 10.6601,-11.6333 3.7479,-4.9964 5.4759,-8.5653 8.045,-9.1809 21.7022,-5.7725 40.9303,-3.8448 55.516,-0.1833 z m 27.7113,6.5131 c 0.5486,-0.038 1.46,0.3977 2.968,1.2135 1.3691,0.7408 3.7716,1.5379 5.3385,1.7712 11.8708,1.7723 33.0279,12.6029 44.6736,22.6473 57.5565,41.2769 82.6219,100.8183 72.1387,174.0394 -1.026,3.5294 -2.2231,6.6364 -2.6591,6.9059 -1.0359,0.6403 -7.1269,-3.7282 -9.3131,-6.6789 -2.5055,-3.3817 -4.5187,-10.703 -4.5538,-16.5594 -0.043,-7.0456 -2.8171,-16.8717 -5.6005,-19.8346 -1.8385,-1.9569 -3.4555,-2.4117 -7.9292,-2.2251 -6.6902,0.279 -11.9164,3.3251 -20.0499,11.6867 -3.1103,3.1975 -6.5288,5.8141 -7.597,5.8141 -2.2666,0 -7.398,-10.0972 -11.2928,-22.2217 -4.1393,-12.8855 -9.3079,-18.8364 -16.5344,-19.035 -5.1127,-0.1405 -14.0964,4.3962 -15.3774,7.7656 -0.7913,2.0814 -1.6687,2.6926 -3.1784,2.2135 -4.0305,-1.2792 -6.7667,3.0501 -9.8189,15.5345 -1.6721,6.84 -10.5078,15.6527 -16.4559,16.4142 -9.4452,0.2154 -29.4866,-15.0769 -35.294,-21.5106 -4.0482,-4.7408 -9.7895,-6.7297 -19.3221,-6.6938 -7.8941,0.03 -8.6086,0.2536 -13.4429,4.2149 -2.8078,2.3008 -7.0632,6.8223 -9.4566,10.0475 -7.9297,10.6855 -9.9212,12.1308 -16.708,12.1308 -7.1186,0 -11.0077,-1.2948 -14.5012,-4.8276 -9.4449,-9.5513 -10.4558,-13.1946 -5.8426,-21.0665 1.7,-2.9009 4.5556,-6.7041 6.3451,-8.4534 4.4155,-4.3163 4.4644,-9.9411 0.1201,-13.8902 -9.3867,-8.5329 -12.3335,-11.0097 -13.1056,-11.014 -0.4701,0 -0.8547,-1.2611 -0.8547,-2.7961 0,-3.1814 4.0983,-6.7075 13.8451,-11.9088 6.7567,-3.6056 10.5796,-4.5722 20.1619,-5.1047 3.3474,-0.186 6.4474,-0.9252 6.8908,-1.6426 0.5477,-0.8862 2.432,-1.0229 5.8793,-0.4257 15.9588,2.7652 37.7298,-5.9619 46.1478,-18.4991 3.9987,-5.955 6.1047,-15.7077 3.9529,-18.3005 -5.0689,-6.1076 -12.8618,-6.2782 -24.9793,-0.5476 -10.2584,2.9114 -18.7325,10.1539 -29.3064,11.8471 -7.9714,1.0705 -13.6471,-5.4831 -14.9085,-17.2139 -0.5829,-5.4207 -0.3698,-6.1453 2.6492,-8.9724 9.3938,-8.7968 16.4368,-10.523 33.4846,-8.203 9.0814,1.2359 27.0319,1.5545 34.4242,0.611 1.0705,-0.1367 2.8523,-1.9319 3.9613,-3.9913 1.109,-2.0594 2.5424,-3.7325 3.1833,-3.7176 0.641,0.015 4.2421,1.2938 8.0027,2.8429 10.8917,4.4867 16.5419,3.5243 16.506,-2.8128 -0.025,-4.3634 -3.1011,-12.3515 -6.4469,-16.7381 -1.6336,-2.1418 -2.7714,-4.067 -2.5273,-4.2783 0.2441,-0.2115 1.5979,-0.984 3.0081,-1.7178 1.6046,-0.8348 2.564,-2.3853 2.564,-4.1432 0,-1.7992 0.106,-2.6278 0.8113,-2.6758 z m -110.9633,1.0349 c 2.0949,0.024 1.6959,0.716 -2.6659,4.6307 -8.1298,7.2964 -8.2798,7.4103 -13.7,10.398 -8.0291,4.4259 -11.6303,4.5095 -18.2037,0.419 -3.1025,-1.9306 -5.6551,-3.7699 -5.6722,-4.0864 -0.1003,-1.9024 33.6728,-11.4373 40.2418,-11.3613 z m -102.1645,57.5207 7.1647,0.2086 c 3.9411,0.1149 8.6651,0.83 10.4982,1.5892 l 3.3336,1.3805 -3.7676,3.8979 c -2.0722,2.1444 -5.3768,4.8966 -7.3433,6.1162 -1.9663,1.2197 -5.9412,5.0919 -8.8322,8.6037 -4.3353,5.2659 -5.255,7.194 -5.255,11.0056 0,4.1525 0.6942,5.2955 6.8375,11.2511 3.7606,3.6457 6.8374,7.1147 6.8374,7.7088 0,2.6359 -2.4899,7.1515 -6.2148,11.2744 -3.0538,3.3803 -5.1565,4.6172 -8.642,5.0847 -8.5133,1.1419 -10.1887,4.9714 -4.5171,10.3246 4.0266,3.8004 4.1966,5.1556 1.1351,9.0476 -10.6526,8.5396 -22.2082,10.0337 -33.8767,16.1872 -5.3239,2.8322 -9.8881,5.1481 -10.1427,5.1481 -0.2546,0 -0.2179,-1.1538 0.082,-2.564 5.2399,-24.1063 11.1735,-49.8238 31.1208,-77.3086 5.8095,-8.5925 8.7499,-12.6308 14.8634,-20.4088 z m 250.7354,93.444 c 1.9301,2.4029 4.2311,7.48 5.058,11.029 1.6934,7.5399 7.4808,18.3906 12.3394,23.1349 3.3586,3.2795 5.5501,4.401 9.4682,4.8426 8.821,0.3843 15.8528,-3.8517 21.3237,-9.3765 2.768,-2.8204 5.3644,-5.128 5.7708,-5.128 0.4063,0 1.0781,3.7173 1.4922,8.2613 0.4141,4.5441 1.5157,10.569 2.4472,13.3894 2.4149,7.3112 11.834,16.8117 19.3722,19.5375 3.6076,1.3045 4.6839,2.9546 3.9797,6.103 -0.7762,3.4698 -0.056,6.8377 1.7428,8.1528 1.8901,1.3821 1.9099,1.7716 0.277,5.2183 -15.8748,33.014 -45.6097,84.8795 -79.6589,101.1594 l -6.759,4.7408 0.631,-4.3669 c 2.9456,-10.1683 2.4103,-10.8424 3.4438,-20.3503 0.3993,-3.7436 1.1968,-9.3118 1.7727,-12.3745 2.9124,-26.359 -3.0851,-48.6526 -7.5017,-71.3526 -0.2967,-1.5669 -2.7264,-7.1964 -5.3985,-12.5097 -6.4592,-12.8438 -18.584,-25.0454 -27.7571,-27.9307 -6.4341,-2.0238 -7.9681,-3.2057 -3.5956,-2.7726 2.6443,0.2618 8.1055,-1.4794 11.1108,-3.5424 0.9402,-0.6453 2.4786,-1.4569 3.4187,-1.8028 2.748,-1.0113 10.4611,-11.6504 12.1775,-16.7965 0.8679,-2.6018 1.8855,-5.4983 2.2603,-6.4384 0.3749,-0.9402 0.6275,-3.7611 0.5626,-6.2683 -0.065,-2.507 0.1654,-3.9167 0.5124,-3.1332 0.8792,1.9845 7.8383,1.7846 9.5466,-0.2738 0.581,-0.6999 1.3591,-1.1341 1.9632,-1.1518 z m -275.9568,54.2722 c 0.7343,0.032 1.4444,0.1321 2.1283,0.3038 7.0158,1.7608 5.7103,16.543 -2.4371,27.5819 -3.9516,5.8598 -4.8283,10.9193 -1.0751,16.8699 0.8842,1.3496 2.993,3.7227 4.6858,5.2733 6.1009,5.5889 7.7003,7.4233 8.909,10.2261 1.3289,3.0815 1.3854,3.3768 3.0148,15.6613 1.2294,9.2688 2.6063,11.7968 8.6719,15.9185 18.501,12.5102 15.6444,21.7 20.3438,36.2254 1.6278,5.0142 2.9645,9.7582 2.973,10.5417 0.01,0.7834 -1.0099,1.4239 -2.2635,1.4239 -1.2536,0 -2.2803,-0.4122 -2.2803,-0.9165 0,-1.7837 -7.9036,-9.5194 -9.0209,-8.8289 -0.6237,0.3854 -2.0505,-0.7253 -3.17,-2.4689 -2.7142,-4.2275 -3.8477,-5.7088 -6.9443,-9.0759 -2.5986,-2.8257 -9.5101,-13.8218 -12.7717,-20.3188 -0.9402,-1.8727 -2.5848,-4.1729 -3.6541,-5.113 -2.3167,-2.0368 -7.2849,-11.0715 -17.5477,-31.9087 -7.7793,-15.7885 -13.7386,-26.7341 -15.4778,-45.1862 l 7.5185,-6.8892 c 6.9259,-6.3464 13.257,-9.5402 18.3974,-9.3197 z" fill="#00B894" transform="translate(137.21007,-28.364704) matrix(0.26458333,0,0,0.26458333,-1821.6576,-848.91414)"/>
</svg>