<?xml version="1.0" ?><svg height="72.469116mm" viewBox="0 0 98.707443 72.469116" width="98.707443mm" xmlns="http://www.w3.org/2000/svg"><g color="#000"><path d="m 5434.5296,2275.474 a 119.67592,111.68277 0 0 1 -119.6759,111.6828 119.67592,111.68277 0 0 1 -119.6759,-111.6828 119.67592,111.68277 0 0 1 119.6759,-111.6828 119.67592,111.68277 0 0 1 119.6759,111.6828 z" fill="#FFFFFF" overflow="visible" paint-order="fill markers stroke" transform="translate(-156.38596,19.642645) matrix(0.26458333,0,0,0.26458333,-1200.3046,-589.88107)"/><path d="m 5476.0122,2155.242 c -1.6972,0.032 -3.8373,0.1401 -6.5899,0.2989 -18.4752,1.0656 -48.2417,11.2303 -57.332,19.5781 -3.2673,3.0005 -12.1997,8.043 -14.2481,8.043 -0.8252,0 -3.5509,1.5634 -6.0566,3.4746 -123.3213,-75.7119 -219.5763,36.1496 -200.4297,115.1914 3.0886,12.2029 6.185,21.8549 8.2774,25.7969 1.2338,2.3243 0.6603,4.1609 -1.3223,4.2382 -0.489,0.019 -2.3874,0.9836 -4.2207,2.1426 -1.8333,1.159 -5.5675,3.2422 -8.2969,4.6309 -14.8444,7.5519 -46.8351,38.9721 -53.9238,52.9609 -1.7948,3.5418 -3.6116,9.3784 -4.0371,12.9707 -0.9131,7.7098 1.7308,18.5054 4.7968,19.584 1.1695,0.4114 3.027,1.5064 4.127,2.4336 1.1,0.9272 3.8,1.9394 6,2.248 2.2,0.3087 4.9,0.3899 6,0.1817 1.1,-0.2082 4.4007,-0.7708 7.334,-1.252 2.9333,-0.4811 8.5548,-1.7782 12.4941,-2.8808 3.9392,-1.1026 7.8405,-2.1416 8.668,-2.3086 0.8273,-0.167 3.3039,-1.0994 5.5039,-2.0723 26.3737,-11.6635 48.5687,-22.8026 62.5312,-31.3828 6.5255,-4.01 12.2714,-7.291 12.7696,-7.291 0.4981,0 4.7114,1.5472 9.3633,3.4375 18.3415,7.4528 45.0726,7.9481 68.0019,1.2597 4.0334,-1.1764 9.134,-2.6222 11.334,-3.2128 2.2,-0.5907 6.6636,-2.366 9.918,-3.9454 3.2544,-1.5793 6.3489,-2.8711 6.8789,-2.8711 0.5299,0 5.0683,-2.3223 10.084,-5.1601 5.0156,-2.8379 11.2435,-6.2943 13.8398,-7.6816 14.0884,-7.528 35.1393,-29.7482 43.1582,-45.5528 10.1669,-20.0382 11.7224,-27.1001 10.9043,-49.5176 -0.6408,-17.5589 -0.263,-19.2431 4.5547,-20.3125 1.0975,-0.2436 2.2954,-1.1294 2.6621,-1.9687 0.3666,-0.8394 6.7984,-7.8751 14.293,-15.6348 11.2993,-13.9958 44.7942,-38.5453 36.3047,-57.9043 -1.8855,-3.8102 -10.0194,-12.2676 -11.7989,-12.2676 -0.5788,0 -2.1948,-1.2713 -3.5918,-2.8242 -1.7478,-1.9428 -2.8597,-2.5267 -7.9511,-2.4297 z m -6.2149,18.7481 c 1.6248,0.025 1.625,1.0873 1.625,4.4883 -0.6892,15.564 -12.35,28.1723 -20.3613,36.3261 -8.1528,8.2634 -15.2969,15.0235 -15.875,15.0235 -0.5783,0 -2.5276,-2.8487 -4.332,-6.3321 -6.5742,-16.8598 -21.5564,-25.3961 -26.4493,-28.5742 1.3239,-1.3238 4.194,-2.6169 6.3789,-2.873 2.185,-0.2562 5.8935,-1.46 8.2403,-2.6758 2.347,-1.2158 4.9992,-2.2109 5.8945,-2.2109 0.8953,0 2.5747,-0.7993 3.7324,-1.7754 2.3935,-2.0182 22.7259,-8.7038 28.7715,-9.461 2.2,-0.2755 6.25,-0.9268 9,-1.4472 1.5625,-0.2957 2.6365,-0.4995 3.375,-0.4883 z m -55.248,56.209 c 5.7672,12.2154 5.6609,12.8442 -3.3184,19.6289 -4.3675,3.3 -10.194,8.1013 -12.9492,10.6679 -8.0614,7.5096 -12.2612,11.0377 -19.041,16 -3.5067,2.5667 -9.8491,7.3556 -14.0957,10.6426 -15.0652,11.6605 -36.2818,26.6895 -37.6758,26.6895 -0.637,0 -1.357,0.5352 -1.6016,1.1894 -0.511,1.3681 -21.994,16.178 -32.2187,22.211 -3.7909,2.2367 -11.3926,7.054 -16.8926,10.705 -5.5,3.6511 -13.0818,8.2721 -16.8477,10.2676 -3.766,1.9955 -7.1326,3.627 -7.4824,3.627 -1.4826,0 -21.7222,-16.8076 -28.0957,-23.3321 -6.0708,-6.2147 -9.6638,-12.604 -14.3242,-25.4726 -34.1047,-107.2592 109.8732,-196.1191 204.543,-82.8242 z m 6.9785,36.7832 c 1.7361,-0.2498 2.0783,3.2653 1.5625,11.5332 -0.3896,6.2446 -1.2912,12.0946 -2.0039,13 -0.7127,0.9054 -1.7248,3.4465 -2.2481,5.6465 -0.5235,2.2 -2.7052,6.8591 -4.8496,10.3535 -2.1444,3.4943 -3.8984,6.8251 -3.8984,7.4023 0,1.1369 -19.7677,21.4899 -26.1113,26.8848 -3.5374,3.0084 -24.2569,16.0254 -25.5079,16.0254 -0.2899,0 -3.3439,1.2335 -6.7871,2.7402 -11.8282,5.1761 -15.5877,6.6803 -18.2617,7.3106 -0.7333,0.1728 -4.932,1.3996 -9.332,2.7265 -4.4,1.3269 -8.4306,2.3014 -8.9551,2.166 -0.5246,-0.1353 -2.412,0.3103 -4.1953,0.9883 -1.7833,0.6781 -3.5253,0.9494 -3.8711,0.6035 -0.3459,-0.3458 -7.0105,-0.8089 -14.8086,-1.0293 -14.4043,-0.407 -17.9759,-1.3485 -13.8594,-3.6523 1.2588,-0.7045 6.2837,-3.9605 11.166,-7.2344 4.8821,-3.2739 9.3497,-5.9512 9.9297,-5.9512 0.5802,0 3.6815,-2.0054 6.8907,-4.455 5.6825,-4.3376 15.2055,-10.4367 21.7812,-13.9512 1.79,-0.9567 3.2539,-2.3067 3.2539,-3 0,-0.6933 0.6064,-1.2617 1.3477,-1.2617 0.7415,0 7.0357,-4.1987 13.9863,-9.3321 6.9505,-5.1333 13.3233,-9.3339 14.1621,-9.3339 0.8387,0 2.5713,-1.2058 3.8496,-2.6797 1.2784,-1.4739 6.5133,-5.8233 11.6348,-9.666 22.1833,-16.6451 29.6875,-22.6267 29.6875,-23.6641 0,-0.6086 2.25,-2.4744 5,-4.1465 2.75,-1.672 5.9702,-4.1203 7.1562,-5.4414 1.4152,-1.5763 2.4921,-2.4685 3.2813,-2.582 z m -214.6563,75.9238 c 1.9085,0.115 4.1785,2.4026 10.2305,8.5 5.3258,5.3657 12.1966,11.8109 15.2695,14.3223 3.0728,2.5114 5.2679,5.0842 4.877,5.7167 -0.3909,0.6326 -3.5124,2.5458 -6.9356,4.252 -3.4232,1.7062 -9.8226,5.0831 -14.2226,7.5039 -14.5933,8.0291 -33.3085,17.2526 -35.0469,17.2734 -0.9424,0.011 -3.1123,0.9356 -4.8203,2.0547 -1.708,1.1192 -7.378,3.2205 -12.6016,4.668 -8.8328,2.4477 -17.5312,3.4464 -17.5312,2.0137 0,-3.3313 6.6073,-15.7998 10.7598,-20.3047 2.882,-3.1269 5.2441,-5.2485 5.2441,-4.7149 0,0.5337 1.2707,-1.103 2.8164,-3.6386 4.2563,-6.9819 28.7861,-30.7246 31.7441,-30.7246 0.6667,0 1.4117,-0.4704 1.6563,-1.0469 0.2444,-0.5765 2.3934,-2.4173 4.7754,-4.0899 1.6242,-1.1404 2.64,-1.8541 3.7851,-1.7851 z" fill="#00B894" overflow="visible" style="isolation:auto;mix-blend-mode:normal;solid-color:#000;solid-opacity:1;marker:none" transform="translate(-156.38596,19.642645) matrix(0.26458333,0,0,0.26458333,-1200.3046,-589.88107)"/></g></svg>