<?xml version="1.0" ?><svg height="96.009155mm" viewBox="0 0 86.214073 96.009155" width="86.214073mm" xmlns="http://www.w3.org/2000/svg">
    <path d="m 4913.6922,-394.1445 c 0,0 -77.5541,20.2733 -113.8377,5.726 -36.2835,-14.5473 -37.0574,-40.5466 -29.4911,-55.4034 7.5662,-14.8567 41.5284,-21.3566 41.5284,-21.3566 0,0 -24.4184,-16.1722 -8.598,-41.0109 15.8203,-24.8386 47.9768,-23.4458 65.6027,-7.4283 17.626,16.0174 39.8088,50.3737 39.8088,50.3737 0,0 -6.1046,-82.7182 25.2781,-98.8904 31.3828,-16.1722 51.3302,32.654 51.3302,32.654 0,0 49.0946,-22.6721 66.7205,16.0948 17.6259,38.7669 -6.9644,55.4034 -24.2464,66.7007 -17.282,11.2973 -50.5562,25.3803 -50.5562,25.3803 0,0 99.3929,3.9464 93.9762,50.219 -5.4168,46.2726 -46.4293,39.3085 -46.4293,39.3085 0,0 -8.684,-2.7082 -8.684,18.8032 0,21.5113 -39.8947,57.1057 -61.9916,30.1004 -22.0969,-27.0053 -40.4106,-111.271 -40.4106,-111.271 z" fill="#FFFFFF" transform="translate(-182.92269,-60.852569) matrix(0.26458333,0,0,0.26458333,-1076.0931,213.88048)"/>
    <path d="m 4851.4663,-224.85136 c -5.8467,-13.99341 -5.3281,-25.29899 2.5903,-56.4423 8.2253,-32.3523 17.4522,-55.41835 31.2808,-78.19885 5.6857,-9.36629 9.9309,-17.43618 9.4341,-17.93292 -0.4969,-0.49705 -9.1267,1.2032 -19.1775,3.7782 -27.3198,6.9988 -75.0169,4.60306 -89.76,-4.5087 -33.1457,-20.48515 -37.1273,-69.33932 -6.6454,-81.53588 6.0144,-2.4064 12.8408,-4.37531 15.1696,-4.37531 5.2001,0 5.2007,0.15015 -0.058,-12.43465 -13.0807,-31.30633 6.8586,-61.94162 40.3233,-61.95438 15.4048,0 32.0358,9.18778 51.3389,28.38021 l 15.5983,15.5086 -0.2474,-23.09936 c -0.2763,-25.82577 3.8291,-37.78499 17.451,-50.83564 9.8139,-9.40235 30.5873,-12.64185 46.7856,-7.29584 12.7341,4.2026 24.7484,18.03636 24.7484,28.4964 0,4.33809 0.6644,8.55187 1.4764,9.36399 0.812,0.812 8.1252,-0.24811 16.2516,-2.35611 18.4025,-4.77366 32.6343,-1.5056 46.5135,10.68063 26.2621,23.05845 17.288,65.52443 -18.7188,88.58045 -13.8675,8.87979 -14.7001,9.95793 -8.2937,10.742 38.8529,4.75659 61.3779,30.46543 56.0246,63.94364 -4.032,25.21579 -20.3246,40.37801 -44.5311,41.44203 l -12.9566,0.56949 0.8294,10.17166 c 0.9893,12.13309 -4.2467,23.16484 -16.8373,35.47423 -26.5178,25.92626 -57.993,13.8364 -80.0383,-30.74263 -5.0242,-10.15974 -10.6382,-27.39443 -12.4756,-38.29891 l -3.3405,-19.82635 -11.7555,26.85394 c -13.4287,30.67674 -28.5262,81.71755 -31.6408,106.96973 -1.8387,14.908 -2.9723,17.28919 -8.6122,18.08981 -5.1159,0.7265 -7.3933,-1.22829 -10.7271,-9.20718 z m 147.7522,-72.92476 c 9.1533,-9.1532 11.1087,-13.09746 11.1087,-22.40777 0,-10.43579 -1.6335,-12.7669 -21.3787,-30.50887 -31.1976,-28.03246 -54.0143,-44.72211 -57.0642,-41.74021 -1.5837,1.54831 -1.3747,12.66589 0.5283,28.12282 3.6928,29.99241 14.6741,54.60097 30.6081,68.59109 13.9034,12.20733 22.4172,11.72366 36.1978,-2.05706 z m 51.5615,-48.49789 c 7.6637,-6.84738 9.2362,-10.50559 10.1475,-23.60558 1.2535,-18.01811 -3.5716,-25.75755 -20.4562,-32.81245 -14.9859,-6.26146 -60.2603,-8.52414 -74.2751,-3.7123 -6.1745,2.12023 -11.6704,5.21369 -12.2135,6.8746 -0.5429,1.66103 3.8652,5.78001 9.7958,9.15341 10.5506,6.00123 27.8069,20.06559 50.8008,41.40418 14.1538,13.13521 23.7216,13.84831 36.2007,2.69814 z m -184.9475,-52.12655 c 11.0158,-1.58965 25.0858,-4.25068 31.2667,-5.91297 l 11.2374,-3.02218 -8.3763,-4.99794 c -30.3814,-18.12757 -61.9923,-34.70787 -74.5672,-39.11187 -12.6535,-4.4314 -16.342,-4.64809 -26.631,-1.56539 -21.8086,6.53402 -28.1561,19.43167 -18.6293,37.85406 7.3796,14.27071 19.6709,19.74567 44.2109,19.69306 11.8028,-0.0253 30.4727,-1.34681 41.4888,-2.93677 z m 96.5028,-29.50759 c 19.4122,-7.31176 66.6928,-30.86146 73.8748,-36.79594 13.1073,-10.83089 18.3525,-31.99181 11.2289,-45.30215 -4.6758,-8.73702 -18.3398,-14.14788 -35.7272,-14.14788 -19.0107,0 -25.8463,3.05434 -28.2475,12.62255 -0.9734,3.87794 -10.6982,23.54738 -21.6107,43.71009 -22.8801,42.27438 -24.8187,46.67352 -20.5687,46.67352 1.7061,0 11.1787,-3.0421 21.0504,-6.76019 z m -57.2798,-12.55349 c -1.3567,-2.75382 -6.0947,-12.36264 -10.529,-21.35272 -9.9364,-20.1454 -32.3055,-45.70061 -45.4721,-51.94857 -21.7363,-10.31453 -42.4505,-1.16956 -42.4505,18.74135 0,18.95095 2.0372,21.32392 22.7793,26.53434 17.3569,4.36002 61.0577,23.97642 67.7803,30.42525 4.9711,4.76903 10.583,3.06277 7.892,-2.39965 z m 43.2952,-34.33535 c 31.152,-56.97098 29.8905,-53.02092 20.7568,-64.99606 -6.4919,-8.51126 -9.4703,-10.11261 -18.8085,-10.11261 -21.3336,0 -25.7717,12.43096 -25.7945,72.24751 0,23.21197 0.5127,42.20374 1.1589,42.20374 0.6461,0 10.8553,-17.70422 22.6873,-39.34258 z" fill="#00B894" transform="translate(-182.92269,-60.852569) matrix(0.26458333,0,0,0.26458333,-1076.0931,213.88048)"/>
</svg>