<?xml version="1.0" ?><svg height="178.19157mm" viewBox="0 0 116.78096 178.19157" width="116.78096mm" xmlns="http://www.w3.org/2000/svg">
    <path d="m 5934.4519,-1352.8605 c 0,0 32.3105,14.0767 45.6685,20.6527 13.358,6.576 34.023,-2.5687 34.023,-2.5687 0,0 19.4091,28.7699 39.8457,38.0174 20.4366,9.2475 45.5542,1.0275 45.5542,1.0275 0,0 2.9684,19.317 16.8973,34.4213 13.9289,15.1042 39.1607,22.7077 39.1607,22.7077 0,0 5.366,31.7497 20.665,46.2374 15.2989,14.4878 29.2278,19.8308 29.2278,19.8308 0,0 -3.3111,23.7352 10.2754,34.2157 13.5864,10.4805 34.4797,15.3097 34.4797,15.3097 0,0 -8.2203,26.8177 5.1377,45.621 13.358,18.8033 44.4125,36.4763 44.4125,36.4763 0,0 -9.2478,19.0087 -5.1377,39.9697 4.1102,20.9609 25.6885,46.3402 25.6885,46.3402 0,0 -19.295,19.4197 -22.2634,38.6339 -2.9684,19.2142 1.1418,51.9915 1.1418,51.9915 0,0 -19.2959,23.2437 -32.0821,40.0724 -12.7863,16.8288 -19.7516,47.0595 -19.7516,47.0595 0,0 -44.9835,-0.1027 -67.361,-5.1375 -22.3775,-5.0347 -37.1056,-13.6657 -37.1056,-13.6657 0,0 -7.6494,-19.5225 -26.031,-27.2288 -18.3815,-7.7062 -59.2548,-15.6179 -59.2548,-15.6179 0,0 2.0551,-36.2708 -6.051,-54.4575 -8.1062,-18.1867 -27.7436,-23.4269 -42.3575,-24.7627 -14.6139,-1.3358 0.1142,-33.5992 -11.1888,-47.4705 -11.3029,-13.8712 -52.6329,-27.2287 -52.6329,-27.2287 0,0 16.8974,-28.6672 10.9605,-47.8815 -5.9369,-19.2142 -40.9874,-50.4502 -40.9874,-50.4502 0,0 21.2358,-17.8785 18.039,-42.333 -3.1968,-24.4544 -25.8027,-47.2649 -25.8027,-47.2649 0,0 34.9364,-18.906 29.5703,-42.744 -5.366,-23.838 -25.4601,-44.0797 -25.4601,-44.0797 0,0 20.5508,-14.385 21.8067,-42.8467 1.2558,-28.4617 0.9133,-42.8467 0.9133,-42.8467 z" fill="#FFFFFF" transform="translate(-414.83575,74.732691) matrix(0.26458333,0,0,0.26458333,-1144.946,288.23628)"/>
    <path d="m 6290.391,-699.90495 c -7.8423,-5.46515 -42.24,-57.38504 -45.8482,-69.20371 -1.0667,-3.49423 -4.648,-3.96061 -14.7992,-1.9279 -7.7004,1.5423 -26.1573,0.81991 -43.4312,-1.69962 -31.8702,-4.64861 -37.155,-7.37312 -63.9016,-32.94204 -14.0142,-13.39724 -30.8148,-19.56315 -54.5187,-20.00939 -17.8258,-0.33541 -15.847,2.94668 -25.326,-42.00677 -6.6091,-31.3445 -12.316,-41.70933 -22.4375,-40.74917 -31.6858,3.0052 -34.6824,1.2633 -31.4037,-18.25399 0.918,-5.46536 0.3339,-16.75275 -1.2984,-25.08295 -3.5235,-20.38703 -1.7341,-14.75965 -21.7709,-21.03355 -10.3423,-3.23803 -22.3007,-6.57613 -26.5746,-7.41801 -11.1286,-2.19164 -12.7759,-11.60554 -4.5969,-26.26725 9.6545,-17.3057 10.8865,-27.1991 5.56,-44.6459 -3.9439,-12.9171 -5.9806,-15.744 -14.223,-19.7393 -5.2913,-2.5649 -11.6442,-4.0454 -14.1183,-3.2901 -2.6153,0.7986 -5.9084,-1.3024 -7.8684,-5.0192 -3.7096,-7.0359 -1.0494,-19.1831 4.5772,-20.9007 1.9693,-0.6013 5.9928,-4.5594 8.9409,-8.7959 7.3842,-10.6116 4.4524,-29.774 -6.7616,-44.1892 -4.5558,-5.8566 -10.2439,-15.3446 -12.64,-21.0845 -4.3259,-10.3618 -4.2823,-10.4728 6.1116,-15.5564 19.348,-9.4628 24.227,-32.716 11.0273,-52.5552 -13.3401,-20.0503 -13.2129,-19.2693 -4.6609,-28.6084 11.2985,-12.3385 12.8938,-30.9953 5.5864,-65.3352 -3.259,-15.3148 -5.5527,-29.2623 -5.097,-30.9943 2.1659,-8.233 13.3995,-5.6532 38.8977,8.9333 23.8901,13.666 29.2561,15.4917 46.3415,15.7682 10.6277,0.1717 21.1215,-0.2369 23.3198,-0.908 2.3586,-0.7199 7.5233,3.751 12.6002,10.9073 4.7316,6.6703 14.616,16.4419 21.9656,21.7148 11.928,8.558 14.5336,9.2293 24.2791,6.254 6.0046,-1.8334 13.2346,-6.1156 16.0668,-9.5161 4.6828,-5.6228 5.7007,-5.8893 11.239,-2.9417 7.1304,3.7949 9.4899,16.796 4.6862,25.8222 -7.3813,13.8689 17.7927,40.7495 37.5466,40.0917 15.9941,-0.5327 19.6081,2.4168 19.9819,16.3074 0.4069,15.1086 6.4103,25.8201 21.3949,38.1736 9.2248,7.6053 13.8506,9.591 17.9876,7.6528 5.2963,-2.4814 17.1716,-12.5025 12.0895,17.2695 -2.9509,17.2868 1.6246,30.2309 25.067,30.397 23.2605,0.1648 19.9536,10.9439 19.7304,40.6666 0.5715,25.0473 27.2358,47.8903 41.3798,48.3355 19.3114,0.4837 4.8608,14.5829 4.9918,24.1305 0.3608,26.2881 1.9001,44.44505 14.6114,58.20554 6.3651,6.8899 11.549,14.67927 11.5198,17.30978 -0.027,2.63051 -5.2067,10.34054 -11.5063,17.13369 -13.8116,14.89307 -25.2449,37.58659 -17.344,61.68923 4.7844,14.59505 1.3582,15.84443 -11.1153,24.74531 -14.1337,10.08509 -23.5907,54.81881 -30.4047,60.52384 -9.1596,7.66858 -9.7249,6.34307 20.5327,48.15046 11.2732,15.57629 20.0928,30.3139 20.0576,33.51585 -0.072,6.52738 -10.6437,11.01288 -16.4383,6.97477 z m -36.0308,-107.17027 c 3.426,-21.62276 15.9275,-46.60858 29.2074,-55.29065 8.9605,-5.85815 6.5073,-5.26029 2.4597,-12.22578 -8.2248,-14.15547 -4.2335,-35.97814 0.788,-50.61295 2.608,-7.59907 8.3955,-17.16151 12.861,-21.24935 9.1578,-8.38355 9.2085,-9.99503 0.5427,-17.21236 -16.2264,-13.51372 -22.5668,-38.33679 -15.5703,-60.96079 6.0881,-15.0466 0.4063,-13.5736 -12.0235,-22.5826 -27.9408,-20.2503 -34.3872,-31.9272 -30.6987,-55.6066 1.2127,-7.7836 0.9399,-14.1886 -0.606,-14.234 -9.2722,-0.2714 -25.1279,-6.5137 -32.3016,-12.7169 -6.4561,-5.5829 -8.9105,-10.2244 -10.8956,-20.6062 -2.0455,-10.698 -3.6563,-13.6209 -7.9877,-14.4948 -2.984,-0.6024 -11.6672,-6.6997 -19.296,-13.5499 -14.1885,-12.7402 -22.2904,-29.3986 -21.9813,-45.1966 0.099,-5.1105 -0.9348,-6.4457 -4.2181,-5.4434 -2.3929,0.7305 -11.2157,-1.9745 -19.6067,-6.0113 -15.8993,-7.6488 -28.5846,-22.9432 -32.1181,-38.7251 -1.547,-6.9097 -2.6449,-7.4725 -10.1243,-5.189 -20.3284,6.2064 -49.1803,-9.4679 -64.6689,-35.1325 -6.6738,-11.0583 -7.2455,-11.3312 -17.1096,-8.1702 -15.3699,4.9252 -23.0645,4.0799 -39.9016,-4.3836 l -15.3389,-7.7102 7.8883,9.5583 c 15.2659,18.497 66.7384,87.5141 75.4203,101.1279 12.8456,20.1422 39.6265,72.4363 86.1209,168.1651 22.6186,46.5704 52.3876,106.14039 66.1532,132.37801 19.9091,37.94832 58.1758,118.09395 61.3984,128.59395 1.4341,4.59231 8.005,5.99985 11.607,-12.51848 z m -20.8027,9.30187 c -0.9301,-1.71743 -7.0476,-13.95302 -13.5945,-27.19082 -6.5469,-13.23781 -17.584,-33.77788 -24.5267,-45.64421 -22.1737,-37.8996 -69.128,-122.75844 -86.384,-156.11802 -9.1878,-17.7626 -21.2136,-41.0161 -26.7241,-51.6741 -5.5104,-10.6584 -25.147,-49.2894 -43.6377,-85.8467 -27.0949,-53.5696 -71.3472,-129.3805 -88.7089,-151.9721 -1.8382,-2.3919 -3.5498,1.7109 -5.0059,11.9991 -2.5672,18.1383 -6.5373,28.3417 -13.7431,35.3204 -8.4357,7.3373 -3.9501,6.1747 3.9876,14.2498 10.8907,11.08 14.8115,28.3969 10.6886,47.2113 -2.6707,12.1875 -11.7074,24.6787 -19.5965,27.0874 -5.7197,1.7461 -3.9956,6.7951 3.9402,11.5405 4.4458,2.6583 8.4318,9.5862 13.2919,23.1024 6.0235,16.7518 6.4722,20.8242 3.3924,30.7833 -1.9523,6.3126 -6.6427,14.4758 -10.4232,18.1405 -3.7804,3.6647 -7.2869,7.1168 -7.7923,7.6718 -0.5055,0.5549 4.8029,3.9478 11.7966,7.5396 24.9801,12.8297 35.9844,48.3331 23.0659,74.419 -6.9372,14.0086 -5.9495,16.36512 6.4441,15.37025 25.9846,-2.0863 46.6361,21.2781 43.813,49.56803 -1.1709,13.0023 -2.2624,11.43296 8.4139,9.49682 10.8373,-1.97612 25.8672,5.90884 33.7066,17.6829 8.8444,13.28367 16.4606,39.96384 15.8006,55.35161 -0.3064,7.13904 -0.1675,13.10505 0.308,13.25846 0.4758,0.15236 7.0631,0.73694 14.6386,1.29725 27.4023,2.02639 53.7147,17.89318 64.0939,38.64961 4.7703,9.53944 5.2923,9.71153 39.3315,12.95818 33.8434,3.228 46.7886,1.96038 43.4235,-4.25226 z" fill="#00B894" transform="translate(-414.83575,74.732691) matrix(0.26458333,0,0,0.26458333,-1144.946,288.23628)"/>
</svg>