<?xml version="1.0" ?><svg height="129.44475mm" viewBox="0 0 112.27618 129.44475" width="112.27618mm" xmlns="http://www.w3.org/2000/svg">
    <path d="m 3831.3997,-1524.67 c -6.4403,-30.1394 -16.8521,-164.6074 -1.3954,-207.0151 15.4567,-42.4077 32.8456,-35.9355 43.2574,-22.3148 10.4117,13.6207 21.5749,30.719 21.5749,30.719 0,0 36.0657,-98.6293 58.6068,-115.2446 22.541,-16.6153 37.5684,-4.4436 42.5059,6.2791 4.9376,10.7226 10.5191,33.0374 10.5191,33.0374 0,0 45.4041,-83.1732 78.4643,-104.1355 33.0602,-20.9623 112.92,-21.7351 102.6155,23.5706 -10.3045,45.3056 -65.0471,109.3519 -72.6681,117.1765 -7.621,7.8247 23.0777,5.7961 23.5071,30.719 0.4294,24.923 -30.5914,60.5687 -58.07,77.8602 -27.4786,17.2915 -28.7667,28.9802 -28.7667,28.9802 0,0 17.0668,13.2342 -3.1128,28.2073 -20.1796,14.9731 -158.8607,71.9675 -186.6613,77.5703 -27.8006,5.6029 -30.3767,-5.4096 -30.3767,-5.4096 z" fill="#FFFFFF" transform="translate(-79.933342,125.95448) matrix(0.04020587,-0.26151067,0.26151067,0.04020587,419.00412,1050.7363)"/>
    <path d="m 3781.1634,-1454.7043 c 0,-9.6398 11.5435,-34.195 26.1426,-55.61 l 13.6544,-20.029 -5.5137,-37.1968 c -3.0326,-20.458 -6.3046,-59.7291 -7.271,-87.269 -1.5795,-44.996 -1.1559,-52.3531 4.1784,-72.5685 9.5132,-36.0533 24.7,-56.1892 42.3778,-56.1892 13.7444,0 18.803,3.4565 29.5353,20.1813 l 9.3935,14.6382 7.6084,-22.4169 c 9.6539,-28.4437 16.2065,-40.9956 33.2087,-63.6134 15.78,-20.992 27.0888,-28.8795 41.4285,-28.8945 12.1709,-0.021 19.4054,6.0237 26.7566,22.3257 l 5.3677,11.9032 10.3168,-17.7141 c 5.6742,-9.7428 19.2053,-27.139 30.0691,-38.6581 24.6456,-26.1327 54.5321,-42.0903 87.2555,-46.5891 31.4649,-4.3257 45.4305,-0.9168 62.5232,15.2618 8.1601,7.7238 9.2994,10.6161 9.2994,23.6125 0,18.2229 -11.3015,53.8521 -24.705,77.8858 -5.5196,9.8972 -17.6368,26.1206 -26.9271,36.0519 -9.1927,11.2577 -21.4982,13.7288 -9.8075,24.7118 14.297,13.4314 14.4426,36.9251 0.377,60.9253 -8.7227,14.8845 -22.9234,27.7129 -53.8401,48.6377 -15.3264,9.3689 -41.0414,20.2797 -19.3293,24.56 12.0585,2.3772 2.4647,19.5126 -12.4613,30.3311 -9.4355,6.8389 -22.1748,15.7306 -56.4579,32.5318 -54.8239,26.8672 -101.7866,42.0399 -145.1062,46.8809 -30.7004,-0.3285 -36.8683,17.1082 -51.0133,36.4202 -18.6117,25.357 -27.0605,31.5671 -27.0605,19.8894 z m 153.0785,-97.7897 c 33.7592,-17.6712 79.0738,-32.2544 104.8348,-54.6909 6.8143,-6.1974 7.0416,-4.3941 -0.1929,-9.4615 -3.6881,-2.5832 -5.9276,-7.2994 -5.9276,-12.4833 0,-8.7434 5.3482,-13.472 46.9228,-41.4874 47.2909,-31.8673 62.8459,-67.1692 29.5968,-67.1692 -4.5237,0 -10.7154,-1.3329 -13.7596,-2.9619 -7.7775,-4.1625 -7.3307,-18.5666 0.7746,-24.9636 18.2883,-14.4339 47.1058,-43.9083 55.2238,-56.4823 9.0483,-14.0153 25.2841,-54.4255 23.6847,-58.9502 -2.8823,-8.1547 -116.1627,101.8233 -155.5394,151.0054 -12.3821,15.4653 -33.4926,41.1226 -46.9121,57.0162 -13.4198,15.8936 -35.0117,41.6452 -47.9821,57.2255 -12.9704,15.5806 -36.3337,41.8477 -51.9183,58.3717 -15.5846,16.5239 -27.8502,30.8482 -27.2571,31.8319 1.7362,2.8799 54.3038,-13.0479 88.4516,-26.8004 z m -91.3034,2.7356 c 5.007,-2.9098 18.4625,-17.7952 52.2996,-57.8575 2.6668,-3.1574 17.965,-22.471 33.9962,-42.9193 99.8988,-127.424 146.6154,-179.2734 200.8539,-222.9228 18.9679,-15.2645 34.4871,-28.4921 34.4871,-29.3948 0,-0.9024 -9.4055,-1.0371 -20.9008,-0.2993 -30.1075,1.9323 -49.4078,11.6112 -74.9797,37.6012 -19.2377,19.5526 -39.7012,52.5582 -44.8916,72.4064 -0.8822,3.3735 -4.9777,8.3439 -9.1012,11.046 -6.9289,4.54 -8.031,4.5627 -14.5383,0.2989 -4.3054,-2.8208 -8.2574,-9.3407 -10.1723,-16.7814 -5.7593,-22.3796 -11.8101,-39.2662 -14.7121,-41.0598 -6.8771,-4.2503 -39.2564,38.4602 -49.0515,64.7022 -2.6525,7.1064 -7.4566,24.9885 -10.6757,39.7383 -7.0605,32.3502 -9.556,37.472 -18.2572,37.472 -8.6182,0 -12.087,-4.3185 -26.0012,-32.3693 -13.7725,-40.1007 -27.7308,-10.2055 -34.0201,13.0219 -5.3332,20.4755 -7.5029,171.1322 -2.4612,170.894 1.1802,-0.056 4.8369,-1.6653 8.1261,-3.5767 z" fill="#00B894" transform="translate(-79.933342,125.95448) matrix(0.04020587,-0.26151067,0.26151067,0.04020587,419.00412,1050.7363)"/>
</svg>