<?xml version="1.0" ?><svg height="112.92598mm" viewBox="0 0 169.91411 112.92598" width="169.91411mm" xmlns="http://www.w3.org/2000/svg">
    <path color="#000" d="m 14369.533,2847.3549 c 134.459,96.6938 415.732,-4.4485 618.78,34.1978 -17.239,-45.793 -48.826,-76.3791 -85.892,-109.9827 l -23.818,28.1151 c -76.973,-110.3461 -28.44,-160.6905 -181.308,-320.1317 l -156.653,179.0389 -23.242,-30.991 z" fill="#FFFFFF" overflow="visible" paint-order="fill markers stroke" transform="translate(-60.388095,-183.78791) matrix(0.26458333,0,0,0.26458333,-3738.4644,-468.10551)"/>
    <path d="m 14697.377,2463.8942 c -7.141,2.533 -19.828,15.646 -24.019,19.0315 -25.017,30.3609 -50.846,57.5672 -68.577,81.0731 -24.735,29.2345 -47.39,50.9398 -65.146,81.2701 -6.002,-9.4931 -13.423,-18.2154 -22.235,-17.6676 -10.906,-1.2367 -26.684,24.0051 -33.625,35.1008 -26.758,43.548 -58.215,84.4516 -89.91,121.0135 -13.025,18.5158 -24.564,36.8063 -34.837,53.807 -4.827,8.1086 6.412,21.4906 15.262,8.5534 42.014,-40.2008 72.943,-105.172 104.496,-140.4319 3.86,-5.8022 6.387,12.4053 15.401,15.863 4.929,1.7217 5.848,1.6321 10.19,-0.9948 12.561,-8.2043 12.081,-15.5956 23.796,-22.743 0.671,0 2.258,2.1719 5.107,6.9956 8.553,13.343 10.565,24.5224 24.469,10.8876 7.045,12.0637 14.82,25.6138 21.523,35.1634 2.632,3.2752 6.086,8.5525 6.086,9.2971 0,0.2759 0.775,2.0766 1.723,4.0011 2.874,5.8725 6.475,12.3463 14.916,6.291 0,-0.2561 1.296,-1.6698 2.879,-3.1415 1.583,-1.4716 4.93,-4.726 7.437,-7.2319 10.073,-10.0674 22.214,-19.404 23.471,-18.0512 0.215,0.2316 1.947,2.2375 3.849,4.4576 1.902,2.2201 5.109,5.7016 7.124,7.7364 21.216,23.1637 44.048,56.298 67.374,76.9175 4.098,5.7022 15.55,13.8258 18.375,1.9743 -21.379,-31.4331 -42.206,-54.6132 -69.548,-89.1343 -6.36,-6.7183 -21.583,-28.1259 -32.916,-25.2699 -11.99,6.9436 -22.689,17.4365 -32.205,25.5799 -11.26,-13.0893 -18.51,-30.9079 -27.605,-43.2633 -9.529,-16.5534 -16.279,-30.3003 -21.408,-44.0942 8.908,-13.6998 22.065,-24.3667 36.956,-46.3403 1.484,-1.5254 3.216,-3.5675 3.846,-4.5381 1.519,-2.3363 2.649,-3.2666 4.962,-4.0838 1.645,-0.5804 2.087,-0.5709 3.066,0.064 6.865,10.8652 19.89,27.0753 33.679,40.2513 4.756,4.7622 8.047,9.9137 14.866,13.703 0.969,0.9377 1.317,0.9948 3.126,0.5082 2.073,-0.5584 2.366,-0.8713 8.312,-8.8436 3.479,-4.6644 6.114,-7.9651 8.421,-10.5454 5.921,-6.6351 13.02,-17.7332 21.953,-23.9521 0.809,-0.4986 1.925,-1.4253 2.479,-2.0593 1.633,-1.8665 6.806,-6.0508 7.482,-6.0508 4.887,4.07 9.152,23.0641 20.663,28.3277 4.355,-0.6444 5.096,-1.1042 7.951,-5.0381 2.721,-3.1192 3.331,-6.4387 5.941,-10.1443 0.555,-0.2969 1.761,-0.5379 2.681,-0.534 1.468,0.01 17.845,17.3208 21.94,21.7481 7.407,8.1051 9.522,11.884 16.485,5.0787 1.471,-2.6579 10.14,-8.2302 12.156,-11.2012 9.12,1.8785 14.097,11.1868 19.85,8.8628 3.621,7.7258 7.281,16.5431 10.982,24.6686 0.682,1.664 1.554,3.7062 1.937,4.5381 8.516,19.028 13.313,40.6684 19.421,61.7565 5.306,17.818 10.732,27.4999 18.481,43.7761 2.373,5.0781 5.392,9.4157 8.907,13.9912 4.399,4.846 9.283,14.02 15.707,15.8633 2.128,0 4.369,-1.678 5.651,-4.23 0.712,-1.4174 2.402,-4.0799 3.755,-5.9163 3.759,-5.1186 7.313,-12.1477 11.8,-16.9043 4.354,-1.2984 16.59,15.3146 20.974,18.1444 17.836,18.56 37.334,40.2238 53.126,66.6417 1.97,5.1159 8.906,12.2449 11.933,17.1258 5.831,4.2588 15.933,5.6885 9.886,-11.476 -7.777,-7.4608 -10.404,-16.8744 -14.688,-23.0855 -21.292,-37.7269 -54.104,-68.8389 -76.515,-96.5402 -1.01,-2.2702 -8.02,-5.8077 -9.397,-1.7549 -6.877,14.6386 -11.249,23.5082 -15.744,27.1869 -11.098,-25.643 -27.754,-57.676 -36.371,-86.5583 -28.356,-77.0767 -90.946,-164.7283 -124.555,-208.6659 -8.678,-8.7998 -10.799,-17.513 -23.552,-16.7643 z m 0.206,22.1037 c 1.939,0 11.91,9.0293 18.654,16.8924 23.872,28.2734 50.429,70.5446 71.92,109.0057 4.063,6.1613 5.409,6.4686 8.368,12.4647 -7.026,-5.5721 -17.097,-5.8009 -25.112,1.4354 0,0 -1.93,5.7179 -7.771,-1.7579 -20.864,-13.954 -26.11,-37.2772 -35.546,-24.54 -1.511,2.5982 -6.523,10.4657 -9.036,12.0428 -10.088,-7.7687 -11.442,-15.6667 -19.448,-24.6979 -2.006,-5.0827 -3.25,-3.4184 -5.905,-0.7062 -15.441,12.7873 -29.231,34.3203 -41.944,46.6551 -1.726,1.9413 -3.404,3.6734 -3.727,3.8497 -13.797,-12.5999 -26.919,-34.344 -41.115,-47.4175 30.74,-45.6348 67.581,-74.938 90.662,-103.2263 z m -178.327,158.1287 c 0.552,-0.019 1.608,1.1077 4.332,4.5168 0.833,1.0413 2.307,2.8222 3.277,3.9574 9.873,12.5782 14.704,31.6315 21.712,47.2514 0.816,1.5971 0.911,2.1903 0.443,2.7536 -0.327,0.3949 -0.786,0.718 -1.018,0.718 -0.829,0 -5.803,-7.3894 -8.146,-12.1017 -3.765,-7.5648 -6.015,-9.3326 -11.615,-9.1221 -11.419,1.177 -18.443,17.9123 -32.036,22.232 -0.845,0 -1.576,-1.2768 -2.627,-4.5847 -0.564,-1.7771 -1.395,-4.2058 -1.847,-5.3972 -0.775,-2.0473 -2.015,-3.4409 -2.936,-3.9294 1.202,-3.7047 4.399,-7.2281 6.303,-10.7256 3.718,-6.1129 7.974,-11.141 11.319,-17.7189 4.546,-5.9335 8.438,-11.6313 12.63,-17.775 0.06,-0.046 0.13,-0.072 0.209,-0.074 z" fill="#00B894" transform="translate(-60.388095,-183.78791) matrix(0.26458333,0,0,0.26458333,-3738.4644,-468.10551)"/>
</svg>