<?xml version="1.0" ?><svg height="220.33752mm" viewBox="0 0 193.47485 220.33752" width="193.47485mm" xmlns="http://www.w3.org/2000/svg">
    <path d="m 4410.7793,656.5868 c 0,0 -151.2281,-57.3916 -169.969,-74.609 -18.7408,-17.2175 3.6441,-21.434 15.4872,-21.0827 11.8432,0.3514 16.0079,-1.9911 16.0079,-1.9911 0,0 -106.979,-104.5932 -121.4251,-131.7663 -14.446,-27.1732 -9.679,-26.9049 9.9425,-19.7054 19.6215,7.1995 16.8673,-8.5218 23.8952,-18.2433 7.0278,-9.7214 74.3126,10.5413 74.3126,10.5413 0,0 -34.3583,-92.9978 -36.3104,-113.0262 -1.9522,-20.0285 41.7765,-13.7037 41.7765,-13.7037 0,0 -19.6519,-76.2488 -12.6241,-124.8559 7.0278,-48.6072 3.3838,-68.7528 34.0979,-38.3001 30.7142,30.4526 58.3049,63.365 58.3049,63.365 l 28.1112,-11.5955 34.3582,35.3719 c 0,0 34.8788,-88.3127 39.4339,-97.6827 4.5551,-9.3701 22.515,7.9645 22.515,7.9645 0,0 51.7976,-76.1316 60.9077,-85.3846 9.1102,-9.2529 22.5858,3.1907 22.5858,3.1907 0,0 39.6234,-42.5448 52.768,-52.1492 13.1446,-9.6043 19.7821,9.7215 22.9055,26.5875 3.1235,16.8661 7.0278,72.2666 7.0278,72.2666 0,0 21.3438,-13.8208 31.2348,-16.3976 9.891,-2.5768 3.3837,25.6505 0.5205,38.5343 -2.8632,12.8838 -14.446,64.8876 -14.446,64.8876 0,0 27.9811,-14.2893 29.1524,2.9281 1.1713,17.2175 -2.8632,117.2427 -2.8632,117.2427 0,0 110.623,-33.2636 142.5085,-37.1288 31.8854,-3.8651 33.4472,14.7578 16.3982,37.1288 -17.049,22.3711 -53.2292,62.8966 -53.2292,62.8966 0,0 28.762,7.2617 24.8577,15.4605 -3.9044,8.1988 -50.8866,56.2203 -50.8866,56.2203 0,0 23.1657,22.9566 -6.1168,42.7508 -29.2826,19.7943 -81.3405,42.6338 -81.3405,42.6338 0,0 99.8211,55.1661 117.0001,63.8334 17.1791,8.6673 7.0278,24.7136 -20.4327,32.0925 -27.4606,7.3789 -58.435,18.1545 -58.435,18.1545 0,0 17.3092,17.803 0.7808,23.1908 -16.5283,5.3878 -144.5907,18.7401 -144.5907,18.7401 0,0 10.802,18.8571 -5.5962,22.371 -16.3982,3.5138 -107.7599,5.3878 -148.6253,-20.7312 z" fill="#FFFFFF" transform="translate(-83.179242,-38.753854) matrix(0.26458333,0,0,0.26458333,-1009.0918,49.767496)"/>
    <path d="m 4356.5181,788.03127 c -1.771,-1.77107 -3.2202,-4.77584 -3.2202,-6.67716 0,-5.61898 18.2525,-48.10733 35.2133,-81.96975 8.6751,-17.31942 15.7724,-32.57871 15.7724,-33.90964 0,-1.33092 -5.1321,-3.20156 -11.4047,-4.15694 -23.2086,-3.53526 -91.2976,-32.28386 -124.1096,-52.40247 -23.4224,-14.36099 -46.5105,-33.78367 -50.4577,-42.4467 -2.4635,-5.40655 -2.1787,-7.18254 1.5939,-9.94118 2.5261,-1.84702 7.5027,-2.8022 11.0595,-2.12235 3.5562,0.67983 8.1677,0.2103 10.2475,-1.04358 2.866,-1.72772 -1.7862,-7.46452 -19.216,-23.69658 -29.9694,-27.90995 -60.5452,-64.13959 -79.1802,-93.82147 -22.9071,-36.48672 -19.029,-47.50281 13.5323,-38.43998 l 14.4742,4.02883 v -10.04653 c 0,-16.65182 3.6104,-17.64068 39.0123,-10.68347 17.0072,3.34234 31.5968,5.40204 32.4215,4.57777 0.8243,-0.82448 -3.2746,-9.74352 -9.109,-19.82011 -13.8943,-23.9968 -20.2939,-42.06987 -26.2753,-74.20416 -6.8901,-37.01334 -6.1173,-37.76293 33.4838,-32.49479 13.3221,1.77235 14.3681,1.52985 12.6556,-2.93268 -5.8043,-15.12582 -14.9822,-70.93757 -15.0541,-91.54526 -0.06,-16.98764 9.563,-66.143055 15.0095,-76.675226 4.7845,-9.252308 9.019,-8.557657 29.2617,4.80031 12.8131,8.455306 49.9779,44.852546 62.3658,61.077726 5.5099,7.21666 6.1181,7.38833 11.8775,3.35436 11.8482,-8.29865 27.0064,-2.64941 39.6228,14.76723 4.2934,5.92693 8.6997,10.77229 9.7917,10.768 1.0921,0 6.4907,-15.46337 11.9965,-34.35278 11.9076,-40.85096 16.0912,-51.074329 25.4499,-62.196853 8.5922,-10.211557 12.7732,-10.464777 21.9103,-1.327911 8.4532,8.453369 4.8317,12.306451 38.7808,-41.260638 21.896,-34.5484924 24.9715,-38.2391158 31.865,-38.2391158 4.8395,0 9.2152,2.2081947 11.9641,6.0376648 l 4.334,6.037886 11.2478,-13.2811526 c 36.8784,-43.5439384 45.2431,-49.7762384 57.9726,-43.1935034 13.3966,6.927605 25.7296,47.9165505 24.0384,79.89225 -0.8058,15.232471 0.6017,17.259117 7.0426,10.142033 5.7964,-6.405057 15.4716,-6.985757 21.1854,-1.271913 11.3176,11.317381 8.9937,49.026011 -4.8128,78.098853 -5.3668,11.30087 -9.3255,20.97936 -8.7969,21.50791 0.5285,0.52855 4.8045,-0.37898 9.5025,-2.01656 11.8766,-4.14042 15.1849,-0.54099 19.4449,21.15705 4.0209,20.47935 4.8788,73.97196 1.4647,91.32721 l -2.2788,11.58498 13.4165,-6.79883 c 16.8224,-8.52463 67.6074,-24.02684 96.9392,-29.59089 22.731,-4.31189 47.4384,-5.49152 54.9171,-2.62173 7.9766,3.061 8.0661,17.93296 0.2017,33.58989 -9.588,19.08898 -28.7226,45.98003 -45.1318,63.42628 -12.8692,13.68266 -13.0463,14.08825 -6.1528,14.08825 3.904,0 9.5244,2.42643 12.4903,5.39237 5.0798,5.07971 5.1528,5.96578 1.2586,15.28547 -5.1736,12.3822 -13.0516,22.68261 -30.058,39.29944 -12.8955,12.60045 -13.2825,13.42342 -12.1,25.72924 1.09,11.3444 0.2968,13.76526 -7.3729,22.50061 -9.7422,11.09571 -39.1942,30.21065 -63.1165,40.96342 l -16.1009,7.23684 29.5182,9.73666 c 48.462,15.98484 92.5792,46.04849 92.5792,63.08828 0,18.11579 -23.9672,33.0873 -65.9117,41.17329 l -22.9262,4.41961 1.6189,9.5828 c 1.3193,7.80915 0.4767,10.6298 -4.5542,15.24169 -11.6761,10.70427 -92.8278,24.62127 -126.0195,21.61156 l -15.6682,-1.42084 v 8.72162 c 0,5.47263 -2.1109,10.62637 -5.6665,13.83374 -5.14,4.63699 -9.5658,5.04772 -47.6316,4.41874 -38.5051,-0.63671 -61.6367,-3.77625 -95.8906,-13.01634 -4.8522,-1.30861 -6.105,0.2631 -9.1334,11.4633 -3.9384,14.56444 -23.9616,63.64925 -32.6617,80.06671 -10.8927,20.55447 -20.7725,27.33977 -28.5231,19.58921 z m 199.5705,-126.29674 c 0.3789,-2.60499 -0.9836,-6.40806 -3.0272,-8.4521 -6.7562,-6.75613 10.221,-11.49742 47.1146,-13.15732 35.6351,-1.60325 91.3164,-8.53514 101.1975,-12.59894 5.2976,-2.17836 5.6273,-3.32152 3.0721,-10.65106 -3.9845,-11.43025 -0.1331,-15.08461 22.8774,-21.70727 10.506,-3.02344 27.3194,-8.57698 37.3635,-12.34078 17.7997,-6.6703 18.1422,-6.97523 13.5355,-12.06567 -2.5992,-2.87237 -12.0247,-10.01693 -20.9452,-15.87712 -18.7772,-12.33542 -85.1509,-45.39611 -91.1385,-45.39611 -6.1169,0 -10.1037,-9.11348 -6.1513,-14.06078 1.7876,-2.23782 12.9108,-7.89221 24.7178,-12.56547 33.5066,-13.26183 73.7953,-39.84579 73.7953,-48.69295 0,-1.22578 -3.7573,-5.74046 -8.3496,-10.03238 -6.9916,-6.53424 -7.8823,-8.6772 -5.4761,-13.17342 1.5808,-2.95327 6.2438,-7.55722 10.3624,-10.23152 11.3887,-7.39348 43.7152,-39.26124 43.7152,-43.09435 0,-2.00304 -5.7267,-4.29193 -14.0554,-5.61748 -9.842,-1.56678 -14.3144,-3.58312 -14.9198,-6.72695 -0.501,-2.60198 6.7317,-12.74789 17.2031,-24.13092 17.9561,-19.52033 46.6569,-60.48567 46.6569,-66.59458 0,-7.40528 -90.3032,10.19912 -140.3103,27.3533 -14.4326,4.95072 -15.9964,5.02133 -22.1387,0.99679 -7.7603,-5.08486 -7.8063,-5.65332 -2.2968,-28.35782 4.2635,-17.56835 6.459,-86.72777 2.8675,-90.31926 -0.9668,-0.96697 -6.4954,0.37834 -12.2859,2.98955 -5.7904,2.61098 -11.8406,3.93634 -13.4446,2.9449 -4.9102,-3.03461 -3.257,-23.69614 3.4811,-43.50702 9.2788,-27.280549 13.975,-58.651514 9.2199,-61.590411 -1.3362,-0.825979 -7.7136,2.827951 -14.1712,8.119678 -6.4582,5.291726 -12.8438,9.621422 -14.191,9.621422 -5.1824,0 -8.3251,-13.346599 -11.0577,-46.96052 -5.5481,-38.4486555 -1.8281,-73.835485 -30.3404,-34.2141453 -10.2606,9.9624113 -21.1005,29.3211753 -28.6646,34.1043133 -12.7689,8.075044 -14.1912,8.410033 -19.8815,4.681419 -5.6681,-3.7138 -10.1506,-10.854962 -13.5621,-5.257433 -4.0054,6.572002 -35.9393,65.797347 -42.0072,77.907657 -3.8297,7.64305 -13.0386,11.76502 -20.1705,9.02828 -2.2086,-0.84745 -6.3045,-5.30461 -9.1022,-9.90426 -3.0622,-5.03572 -5.8091,-7.19349 -6.9034,-5.42307 -1.5131,2.44877 -23.8403,64.99927 -34.3098,96.12259 -5.6891,16.91125 -19.02,10.65105 -40.8835,-19.19906 l -7.6742,-10.47746 -6.2772,7.29735 c -8.4802,9.8592 -13.6703,7.70357 -30.4644,-12.65174 -16.2655,-19.71452 -59.1284,-63.58615 -62.124,-63.58615 -2.4603,0 -3.4785,4.50266 -7.728,34.1693 -3.3848,23.63027 -2.1444,50.85566 4.3659,95.84082 3.137,21.6768 5.1234,28.01233 10.5633,33.69011 8.4498,8.81968 8.4494,12.72534 0,16.57584 -5.3206,2.42451 -9.9778,2.0612 -22.6085,-1.76312 -24.0057,-7.26838 -24.891,-6.26663 -18.8587,21.33774 2.8877,13.21504 11.9692,38.67517 21.2394,59.54552 8.9073,20.05315 16.1947,37.42902 16.1947,38.61358 0,5.028 -9.0791,10.58774 -17.2898,10.58774 -4.8711,0 -20.7572,-3.01893 -35.3028,-6.7087 -14.5454,-3.68976 -27.4739,-6.70871 -28.7301,-6.70871 -1.2562,0 -1.8876,4.38056 -1.4033,9.73431 1.3157,14.54254 -4.6321,17.12091 -22.2872,9.66218 -7.7067,-3.25627 -14.4927,-5.4398 -15.0802,-4.85223 -0.5874,0.58735 9.5379,14.15927 22.5006,30.15957 26.1551,32.28429 68.882,75.36641 93.5677,94.34551 20.1117,15.46274 22.9371,18.9525 22.1211,27.3252 -0.6042,6.20504 -1.6605,6.69368 -14.0708,6.50763 -7.3793,-0.11159 -17.6435,-1.1011 -22.8092,-2.2009 l -9.3923,-1.99982 8.0503,6.96127 c 22.9058,19.80659 143.5652,69.80751 143.5652,59.49317 0,-5.70205 -18.3053,-60.9258 -21.4524,-64.71751 -1.7,-2.04832 -11.2819,-6.85442 -21.2932,-10.68002 -10.011,-3.82561 -21.0013,-9.93496 -24.4225,-13.57687 -7.4197,-7.898 -5.1264,-12.75968 18.1598,-2.14854 13.1602,5.99688 28.3184,15.06775 21.2917,2.67023 -1.2617,-2.2261 -1.2459,-16.33098 -8.9512,-42.54714 -3.6965,-12.57599 -3.7449,-12.61482 -33.1608,-26.58354 -16.2026,-7.69391 -29.4593,-15.00756 -29.4593,-16.25243 0,-3.30049 -19.6539,-19.56718 6.8917,-10.96766 13.4511,4.35758 45.8471,23.26766 46.3642,21.82451 1.1902,-3.32132 -3.5606,-31.76282 -10.5675,-63.26597 l -5.4832,-24.6524 -19.3084,-18.85635 c -31.8408,-31.09585 -38.1551,-48.85369 -7.7282,-21.73473 15.4935,13.80926 21.1582,16.63421 18.2716,9.11218 -0.9085,-2.36764 -7.6571,-27.67283 -14.9967,-56.23344 -11.3958,-44.34417 -24.1463,-104.43987 -21.3751,-123.19819 1.9547,-13.23113 12.2956,-9.54748 16.7043,33.2839 1.4758,14.33783 9.8586,45.52978 15.4329,63.24062 5.5746,17.71084 12.7077,40.95612 15.8516,51.65632 5.1448,17.51104 10.9285,25.73416 10.9285,15.53869 0,-3.49126 23.6223,-61.05755 29.2252,-71.22019 1.2206,-2.21399 4.5027,-4.02518 7.2938,-4.02518 7.7345,0 5.9904,12.67985 -5.5671,40.47864 -5.4707,13.15819 -13.6115,34.60386 -18.0905,47.65688 l -8.1435,23.73286 5.8418,27.25284 c 3.213,14.98935 7.3344,35.08392 9.1582,44.65513 l 3.3168,17.40204 15.9137,-31.62463 c 18.8426,-37.44489 23.4776,-43.33641 30.9499,-39.33741 2.881,1.54187 5.2383,4.06058 5.2383,5.59688 0,1.53672 -7.3053,16.51253 -16.234,33.28022 -8.9288,16.76727 -19.0961,37.78933 -22.5942,46.71568 l -6.3604,16.22947 8.8996,34.34099 c 4.8947,18.88726 13.4347,47.585 18.9778,63.77221 15.5286,45.34696 14.5734,43.22955 17.4719,38.73246 5.6292,-8.7332 40.6193,-119.97538 40.486,-128.71503 -0.4114,-26.92818 -12.5887,-98.70374 -25.8612,-152.42941 -15.3605,-62.17775 -16.9103,-71.45303 -11.6451,-69.69807 8.0019,2.66742 37.8365,102.95876 48.1174,161.74976 l 3.2846,18.78426 7.4636,-26.83462 c 4.1052,-14.75886 9.9996,-40.11769 13.0994,-56.35255 3.0995,-16.23506 7.3815,-36.96377 9.5155,-46.06415 4.4499,-18.97717 7.5061,-25.55103 -10.791,-81.14227 -22.4567,-68.22928 -31.8473,-103.79709 -15.0152,-87.33615 1.3936,1.3629 9.8922,26.08117 18.9735,54.84242 9.0812,28.76105 16.9712,52.75291 17.5332,53.31472 0.5618,0.56224 1.6218,-1.83737 2.3553,-5.33228 4.1531,-19.7948 21.686,-95.05133 25.9511,-111.39068 4.2827,-16.40696 4.619,-22.54527 2.3349,-42.64628 -1.4675,-12.914402 -3.8134,-28.440868 -5.2137,-34.503649 -1.4003,-6.06255 -2.5635,-14.645549 -2.5859,-19.073307 -1.3957,-15.04065 3.8724,-9.307766 7.675,-2.865424 3.4843,5.903542 6.4107,21.112973 8.1902,27.016517 1.7791,5.903751 3.7769,12.41975 4.439,14.4803 1.3276,4.129483 19.7534,-36.628525 32.2487,-68.10787 7.2806,-18.3419604 14.5194,-26.6887833 13.0009,-11.941353 -0.5986,5.81443 -13.2685,44.124102 -20.4278,63.754931 -4.4803,12.285629 -7.4805,23.003215 -6.6662,23.817405 0.8137,0.81395 4.6786,-2.32173 8.5881,-6.967949 10.1184,-12.024899 16.895,-15.21208 21.8367,-10.270357 5.2268,5.226924 1.8482,10.361349 -17.1705,26.094906 -8.0288,6.64153 -16.6967,14.1642 -19.2624,16.71703 -4.516,4.49387 -30.269,109.57777 -34.3271,140.06975 l -1.7597,13.22192 12.1393,-8.71776 c 6.6766,-4.79472 25.8892,-22.5178 42.6944,-39.38463 16.8053,-16.86684 31.8231,-30.6673 33.3728,-30.66795 6.6062,0 9.0527,6.03123 5.3296,13.14466 -4.9882,9.53023 -54.7497,57.31437 -78.5293,75.40848 -12.5294,9.53365 -20.3408,17.60912 -22.0633,22.80943 -1.467,4.42755 -6.3308,27.97498 -10.8088,52.32736 -4.4779,24.35237 -11.1336,55.06432 -14.7901,68.24868 -3.6565,13.18458 -6.3536,24.26612 -5.9935,24.62643 1.49,1.48972 82.9308,-79.47293 96.1227,-95.55842 7.868,-9.59353 18.8438,-22.0311 24.3907,-27.63956 8.596,-8.69158 10.8881,-9.76714 15.526,-7.28511 9.5344,5.10267 5.8961,13.80883 -16.2775,38.94985 -3.9053,4.42755 -12.4291,14.08803 -18.9418,21.46757 -6.513,7.37954 -26.2472,27.30414 -43.8543,44.27721 -41.7832,40.27799 -67.5675,67.12356 -70.8785,73.79492 -1.4651,2.95177 -5.6617,15.02732 -9.3259,26.83462 -9.895,31.88449 -30.6011,90.51883 -33.9699,96.19489 -1.6183,2.72646 -2.4137,5.48616 -1.7671,6.13274 1.9577,1.95776 38.2417,-24.11568 63.7497,-45.8105 22.6758,-19.28619 24.0009,-20.99546 24.0009,-30.95551 0,-6.1205 3.8415,-19.32075 9.1581,-31.46946 5.037,-11.50966 11.2198,-27.28462 13.7394,-35.05559 4.412,-13.60647 8.0805,-18.84906 11.0863,-15.84299 2.3885,2.38845 -4.1602,28.70868 -12.982,52.17628 -4.5906,12.21289 -7.6615,22.89012 -6.824,23.72748 0.8377,0.83736 11.7061,-9.15424 24.1521,-22.20448 28.8145,-30.21258 33.2624,-35.49895 63.854,-75.8911 49.2825,-65.07095 54.2492,-71.45926 68.9772,-88.71795 8.1866,-9.5933 20.0405,-25.38136 26.3421,-35.08455 10.9242,-16.82176 44.0105,-50.78592 49.473,-50.78592 5.5935,0 2.049,8.07355 -9.0031,20.50639 -6.3736,7.17009 -14.8585,16.77305 -18.8551,21.33989 -3.9967,4.56638 -15.8848,20.86841 -26.4179,36.22663 -10.5334,15.358 -25.5815,37.28202 -33.4406,48.72042 -7.859,11.43819 -13.3978,20.78128 -12.3083,20.76218 1.0896,-0.0257 9.6356,-2.43438 18.9914,-5.36704 22.4452,-7.03555 32.6334,-7.05464 32.6334,-0.058 0,7.61216 -7.0823,10.38023 -35.8575,14.01463 l -25.5531,3.22754 -21.3747,32.34888 c -23.3465,35.33305 -30.8172,45.1006 -56.2343,73.52088 l -16.9222,18.92181 27.6561,-1.48309 c 33.671,-1.80561 43.1826,0.87857 41.9223,11.83155 0.5524,14.2988 -24.1764,8.52396 -37.0759,9.15811 -55.1324,2.71057 -53.0936,2.03781 -83.3901,27.51789 -14.6992,12.36246 -35.778,27.65632 -46.8414,33.98625 -11.0637,6.33016 -19.151,12.47427 -17.9716,13.65413 3.025,3.02472 51.0765,7.0102 79.5253,6.59604 20.6356,-0.30044 23.9955,-0.9953 24.5904,-5.08401 z" fill="#00B894" transform="translate(-83.179242,-38.753854) matrix(0.26458333,0,0,0.26458333,-1009.0918,49.767496)"/>
</svg>