<?xml version="1.0" ?><svg height="113.25961mm" viewBox="0 0 104.97952 113.25961" width="104.97952mm" xmlns="http://www.w3.org/2000/svg">
    <path d="m 1273.543,141.10938 c -1.9678,-0.003 -4.3733,1.33737 -6.9141,5.0039 -7.3915,10.66627 -0.7637,13.07422 -0.7637,13.07422 l -9.7714,54.78516 c 0,0 2.6756,-5.00807 -3.4415,14.45117 -6.1171,19.45924 -25.4023,43.35351 -25.4023,43.35351 0,0 12.3623,-36.39697 14.3164,-47.90429 1.9541,-11.50733 1.1035,-43.84961 1.1035,-43.84961 0,0 4.5455,-9.02256 3.3985,-13.64844 -1.1469,-4.62588 -12.5738,-2.44675 -15.25,4.39648 -2.6762,6.84324 2.2519,8.25782 2.2519,8.25782 0,0 0.5103,9.78757 -0.1269,23.62695 -0.6372,13.83939 -6.3301,17.31836 -6.3301,17.31836 0,0 -6.1602,-31.99953 -9.5586,-42.20703 -3.3984,-10.2075 -10.0254,-17.20313 -10.0254,-17.20313 0,0 -1.4449,-2.6771 -2.252,-5.42968 -0.8071,-2.75258 -5.6905,-4.62477 -9.3437,-2.10157 -3.6533,2.52321 -6.2456,5.81159 -4.5039,10.70508 1.7417,4.89348 8.623,1.60547 8.623,1.60547 0,0 6.4547,5.04604 10.8301,18.19727 4.3755,13.15124 3.8257,33.83275 -0.125,47.86328 -3.9506,14.03054 -6.414,45.49414 -6.414,45.49414 0,0 -10.1095,-22.78407 -13.5079,-33.41211 -3.3984,-10.62803 -4.6738,-33.75781 -4.6738,-33.75781 0,0 12.0225,-5.00804 12.7871,-9.86329 0.7647,-4.85525 -9.8981,-7.98933 -18.8613,-4.08984 -8.9633,3.8995 -1.4453,11.46875 -1.4453,11.46875 0,0 -2.8883,8.25645 -3.3555,18.96094 -0.4673,10.70449 6.7129,36.47265 6.7129,36.47265 0,0 -10.0268,-11.164 -15.9316,-18.16015 -5.9047,-6.99614 -4.8848,-19.38281 -4.8848,-19.38281 0,0 7.52,-10.35993 4.6738,-14.8711 -2.8461,-4.51118 -10.1953,-5.2375 -14.9531,-2.59961 -4.7577,2.6379 -7.6895,4.81622 -7.8594,12.88282 -0.1699,8.06659 7.7324,7.91406 7.7324,7.91406 0,0 -0.043,13.84042 6.9239,26.87695 6.9667,13.03654 18.2232,26.30137 22.0039,39.07031 3.7807,12.76894 -1.5293,39.72266 -1.5293,39.72266 0,0 -3.1003,-24.23911 -16.3965,-41.5957 -13.2962,-17.35659 -22.5996,-19.49805 -22.5996,-19.49805 0,0 -2.7608,-3.01934 -5.2246,-6.68945 -2.4638,-3.67011 -10.7901,-6.90817 -14.9531,-0.71485 -4.163,6.19332 -4.5883,8.01594 0.6367,14.40039 5.225,6.38445 15.4199,0.57422 15.4199,0.57422 0,0 14.7404,9.86282 23.2363,26.53125 8.496,16.66843 7.3067,35.28742 6.9668,52.5293 11.427,12.11903 52.6328,-4.47266 52.6328,-4.47266 0,0 7.2904,-5.73221 10.4512,-2.33203 3.1607,3.40019 12.19,-3.51693 13.252,-6.26953 1.062,-2.7526 1.7002,-6.95927 4.3339,-15.67578 2.6338,-8.71651 22.7696,-31.38721 30.2461,-38.49805 7.4764,-7.11083 19.752,-19.26758 19.752,-19.26758 0,0 -0.9991,4.06984 7.3496,4.7793 8.3487,0.70947 8.4961,-5.84899 7.6465,-10.66602 -0.8496,-4.817 -7.7311,-5.8503 -14.5703,-2.5625 -6.8392,3.28782 -25.1917,14.83361 -38.6153,30.9668 -13.4236,16.1332 -20.4317,40.10433 -21.6211,46.8711 -1.1895,6.76678 -4.4843,2.57617 -4.4843,2.57617 0,0 1.8955,-5.90277 1.1308,-13.54883 -0.7646,-7.64607 6.5822,-25.84311 11.5098,-32.99219 4.9277,-7.14907 31.774,-39.37811 35.3848,-43.46875 3.6108,-4.09064 4.8428,-4.12739 9.3457,-5.04492 4.5029,-0.91754 9.9823,-5.23798 4.7148,-12.04297 -5.2675,-6.805 -13.5078,4.39649 -13.5078,4.39649 l -29.1406,23.625 c 0,0 7.1354,-32.3806 16.5234,-51.83985 9.3881,-19.45925 25.9126,-33.3361 29.1836,-36.39453 3.271,-3.05843 17.5024,-11.73742 13.6367,-18.42773 -3.8657,-6.69031 -16.4394,4.43554 -16.4394,4.43554 l -24.6387,26.53125 c 0,0 6.7534,-36.85405 9.0898,-41.36523 1.5333,-2.96046 -0.628,-7.86445 -4.3847,-7.87109 z m -106.3809,37.69531 c -4.6824,0.1 -12.7336,5.07153 -11.7871,10.81445 1.5718,5.12286 4.2905,4.05171 8.666,3.28711 4.3754,-0.76461 6.5405,-5.69594 6.3281,-11.73633 -0.06,-1.69886 -1.3747,-2.40437 -3.207,-2.36523 z m 144.5879,33.17969 c -3.8224,0.0422 -8.4291,1.89769 -9.6504,6.84374 -0.977,6.11686 6.1603,6.9193 10.918,5.2754 4.7578,-1.64391 6.0742,-7.83756 3.8652,-10.51368 -0.8283,-1.00354 -2.8394,-1.63078 -5.1328,-1.60546 z" fill="#FFFFFF" transform="translate(-286.17691,-43.155866) matrix(0.50522512,0,0,0.50522512,-276.73284,-27.535651)"/>
    <path d="m 1190.4176,358.89543 c 0,-1.7111 1.7604,-9.4111 3.9013,-17.1111 4.6699,-16.7957 8.0899,-34.3552 8.0899,-41.5368 0,-8.7483 -3.9247,-25.0885 -9.2384,-38.4632 -6.9172,-17.4106 -9.6504,-29.3684 -9.2791,-40.5962 0.2868,-8.6719 0.091,-9.4362 -2.5098,-9.8199 -2.3108,-0.3409 -2.9876,0.4728 -3.7432,4.5007 -2.3632,12.5969 2.9849,36.1364 13.0067,57.2488 6.3772,9.84261 4.4305,20.71756 4.4305,32 0,22.1212 -0.1057,22.9794 -4.3959,35.6666 -4.1269,12.2043 -6.6049,15.4408 -8.9354,11.6701 -0.4521,-0.7315 0.845,-7.1815 2.8823,-14.3334 3.2559,-11.4293 3.6754,-15.0195 3.4657,-29.6589 -0.3638,-25.3867 -3.2725,-34.3885 -16.3757,-50.6778 -8.0185,-9.9682 -11.9744,-18.2007 -11.9744,-24.9198 0,-3.7369 -0.4317,-4.5331 -2.109,-3.8895 -1.16,0.4451 -2.7439,0.8093 -3.5199,0.8093 -2.0915,0 -0.3812,13.4903 2.3895,18.8483 1.2747,2.465 5.9949,9.3011 10.4894,15.1915 4.4945,5.8904 9.4794,12.8256 11.0776,15.4116 9.267,14.9942 9.5438,52.5439 0.4725,64.0762 -1.3963,1.7752 -2.7476,4.7077 -3.0028,6.5167 -0.2579,1.8285 -1.352,3.2891 -2.4639,3.2891 -1.6256,0 -2.1597,-3.12 -2.8533,-16.6667 -1.302,-25.4337 -7.4638,-41.2052 -20.8939,-53.4795 -9.7979,-8.9548 -11.8953,-6.5302 -2.5317,2.9265 9.4618,9.5558 12.0929,13.5621 17.1133,26.0578 3.6504,9.0859 4.2984,12.5542 4.8252,25.8285 0.6209,15.6484 -0.7684,23.4041 -4.0012,22.335 -1.1373,-0.3762 -1.9058,-5.5425 -2.4457,-16.4417 -0.9288,-18.7522 -1.6259,-22.2606 -6.6465,-33.4504 -5.0381,-11.2291 -18.1852,-27.5966 -21.1022,-26.2713 -1.1719,0.5325 -4.8533,1.211 -8.181,1.5079 -8.9108,0.7949 -12.4738,-2.4681 -12.1639,-11.1398 0.3181,-8.9007 3.5473,-13.0864 10.498,-13.6074 4.1803,-0.3134 6.2499,0.3556 9.4622,3.0586 2.2613,1.9028 4.4802,4.6214 4.9309,6.0413 0.4507,1.42 3.4382,3.7402 6.6388,5.156 13.3523,5.9063 23.4759,19.7201 28.8079,39.3087 l 2.5867,9.5031 -0.5222,-14.6666 c -0.6053,-17.0016 -1.656,-20.0091 -12.7648,-36.5388 -11.4295,-17.0069 -13.7313,-22.1862 -14.477,-32.575 -0.4858,-6.7678 -1.2066,-9.3082 -2.8002,-9.8693 -8.899,-3.1333 -8.9915,-14.3453 -0.1841,-22.3159 3.2099,-2.9049 16.1781,-4.0824 20.3713,-1.8496 3.6546,1.9459 3.0918,10.7093 -1,15.5721 -4.2283,5.0251 -4.2022,8.8671 0.1159,17.0445 3.4775,6.5856 8.5557,12.9716 9.5357,11.9915 0.2915,-0.2914 -0.4109,-3.6979 -1.5608,-7.57 -2.5988,-8.751 -2.7006,-22.5154 -0.2107,-28.4746 1.9841,-4.7488 -1.6686,-7.8669 -1.7553,-14.25818 -0.018,-1.37115 1.8831,-5.09052 3.7251,-6.93252 3.9278,-3.9277 18.4669,-4.1528 22.6733,-0.3509 5.7008,5.1525 2.2926,14.8261 -6.1216,17.375 -1.6124,0.4884 -3.2734,1.9646 -3.691,3.2804 -1.9771,6.229 4.2918,31.1948 12.3551,49.2049 l 2.5286,5.6479 0.794,-13.0322 c 0.4367,-7.1677 2.1185,-18.7285 3.7374,-25.6908 1.9006,-8.1734 2.9903,-17.3827 3.0756,-25.9919 0.129,-13.0132 -5e-4,-13.6094 -5.3931,-24.83333 -4.9167,-10.2334 -5.9211,-11.5 -9.1191,-11.5 -5.6313,0 -7.8016,-3.0814 -6.7121,-9.5299 1.0093,-5.9742 4.6051,-9.4701 9.7408,-9.4701 5.5551,0 8.2823,2.3831 8.2823,7.2376 0,2.6928 0.7749,4.7745 1.9444,5.2232 1.0695,0.4104 4.0469,3.9246 6.6164,7.8094 5.0613,7.6516 11.4003,28.49213 11.4764,37.72983 0.081,9.7946 2.3764,1.9221 3.3644,-11.5367 0.8142,-11.0926 0.6142,-13.3585 -1.4943,-16.92793 -2.3683,-4.0092 -2.3629,-4.2936 0.1992,-10.4757 3.3801,-8.1557 7.3585,-9.8466 14.7156,-6.2545 4.2587,2.0793 5.2533,3.3141 5.6028,6.9558 0.2536,2.6436 -0.5296,5.8672 -1.9437,8 -2.0189,3.0452 -2.3905,6.91723 -2.5175,26.23903 -0.1845,28.0454 -2.9687,42.4378 -13.4039,69.2879 -8.8431,22.7537 -10.866,32.2694 -13.0629,61.4499 -1.5928,21.1558 -1.8221,22.3406 -3.5991,18.5955 -2.6901,-5.6699 -2.4116,-42.0156 0.4194,-54.7267 1.1506,-5.1663 5.4068,-17.7663 9.4583,-28 4.0514,-10.2336 8.2704,-23.1066 9.3756,-28.6066 5.0068,-24.9167 6.2538,-55.7678 2.3071,-57.074 -1.5392,-0.5094 -1.7357,1.0439 -1.0966,8.6677 1.0615,12.6612 -0.9317,26.8698 -5.1621,36.7987 -6.5578,15.3913 -13.4964,36.2283 -15.0374,45.1581 -0.8431,4.8861 -2.4209,10.5861 -3.506,12.6667 -1.0851,2.0805 -1.9847,5.2828 -1.9989,7.1161 -0.014,1.8334 -1.21,9.9334 -2.6572,18 -1.625,9.0583 -2.638,20.6575 -2.6489,30.3334 -0.01,8.6166 -0.5428,15.6666 -1.1844,15.6666 -1.3238,0 -2.7924,-6.2936 -2.917,-12.5 -0.067,-3.3449 -0.7903,-2.2131 -3.6667,5.7388 -3.6121,9.9859 -6.9241,13.7605 -6.9076,7.8723 z m -60.7638,-79.9801 c 1.8537,-0.8446 3.7317,-2.674 4.1733,-4.0653 1.0545,-3.3226 -2.653,-8.8407 -7.0677,-10.5192 -4.0293,-1.5319 -5.7884,0.3748 -7.1314,7.7295 -0.8541,4.6779 -0.2607,6.261 2.7808,7.4188 3.0112,1.1463 3.5907,1.1012 7.245,-0.5638 z m 91.3267,-54.3716 c 1.3492,-10.797 0.4223,-21.4225 -3.1931,-36.6031 -2.2988,-9.65253 -9.2164,-24.82293 -11.3191,-24.82293 -2.9239,0 -2.5114,2.9126 1.2531,8.8486 9.9058,15.61983 12.0499,34.17163 6.7667,58.54713 -1.4231,6.5657 -2.9333,17.3376 -3.3562,23.9376 l -0.7688,12 4.6781,-15.9073 c 2.573,-8.749 5.2457,-20.449 5.9393,-26 z m -65.1198,-3.134 c 5.9915,-4.0377 8.136,-9.8334 4.5963,-12.4217 -3.9645,-2.8989 -7.2984,-2.2414 -11.5132,2.2707 -3.6325,3.8886 -5.1457,10.1371 -2.9794,12.3034 1.6865,1.6865 5.3974,0.8795 9.8963,-2.1524 z m 37.029,-18.8682 c 1.7764,-1.7763 1.6382,-2.1331 -1.241,-3.2036 -3.606,-1.3409 -10.5549,-0.6611 -12.5066,1.2233 -0.7934,0.7661 -0.6688,1.2231 0.3334,1.2231 0.88,0 1.6,0.9785 1.6,2.1745 0,1.7608 0.9336,2.0229 4.9076,1.378 2.6993,-0.438 5.8072,-1.6959 6.9066,-2.7953 z m 48.9366,-29.36523 c 1.1802,-1.8011 1.7586,-3.9011 1.2854,-4.6667 -1.4176,-2.2938 -6.7901,-1.5755 -9.3469,1.2497 -1.9564,2.1618 -2.0854,3.0095 -0.7101,4.6667 2.4944,3.0055 6.3428,2.4572 8.7716,-1.2497 z m -42.3508,-11.6586 c 2.2892,-2.2892 1.9759,-6.4 -0.4877,-6.4 -3.6491,0 -7.2456,2.6706 -7.2456,5.3802 0,3.0084 5.0754,3.6777 7.7333,1.0198 z m 25.2083,187.94503 c -1.7004,-3.6863 -2.3273,-8.7326 -2.4016,-19.3334 -0.1493,-21.2946 4.3881,-36.4704 16.0492,-53.6783 2.4437,-3.606 4.0683,-7.715 4.0717,-10.2981 0,-2.3639 2.412,-14.6639 5.3529,-27.3333 7.7768,-33.5015 17.5677,-52.4357 35.8827,-69.39223 4.4569,-4.1263 8.1035,-8.3807 8.1035,-9.4542 0,-1.0735 1.9092,-3.5583 4.2426,-5.5218 4.9388,-4.1557 10.2994,-3.8349 15.3599,0.9192 6.3976,6.0102 2.1268,16.9032 -8.6281,22.0067 -2.6434,1.2544 -9.4538,6.87243 -15.1341,12.48453 -9.2621,9.1506 -11.2241,12.0469 -19.0108,28.0631 -7.0977,14.5989 -14.1629,33.957 -14.1629,38.8051 0,0.902 20.1185,-14.4034 23.3334,-17.7512 0.7333,-0.7636 2.656,-2.8448 4.2727,-4.6248 3.5133,-3.8682 9.5254,-4.2684 13.5683,-0.903 7.0332,5.8546 1.6398,20.3333 -7.5744,20.3333 -4.6786,0 -12.1222,7.6746 -30.9333,31.8932 -18.0917,23.2923 -21.8065,31.1235 -23.1364,48.7735 l -0.8037,10.6667 3.0678,-11.4824 c 3.745,-14.0167 10.9391,-29.4699 18.9382,-40.6795 6.1298,-8.5903 20.9452,-21.2642 30.5596,-26.1423 2.956,-1.4998 7.0705,-4.1449 9.1435,-5.8781 6.9227,-5.7879 18.4876,-3.0885 20.2016,4.7153 2.5709,11.7053 -12.3449,23.3793 -18.5508,14.5191 l -2.0648,-2.9478 -5.5217,5.2811 c -10.0467,9.6091 -16.3895,16.7899 -26.3,29.7746 -11.517,15.0896 -15.8636,22.2019 -18.2656,29.888 -2.3159,8.06194 -3.3675,6.61631 -3.4592,-0.0415 -0.1884,-13.6506 22.1516,-45.30085 45.5519,-66.19805 l 7.3064,-6.5248 -6.6666,3.7257 c -24.6409,13.7707 -43.5042,41.0003 -50.5802,73.0136 -0.7131,4.3499 -0.8323,3.67392 -3.7843,0.9219 -2.6899,-2.5075 -2.9601,-3.9817 -2.8757,-15.6895 0.1089,-15.1223 2.6113,-22.8819 11.5519,-35.821 8.7343,-12.6407 25.5712,-32.8512 32.3068,-38.7801 4.9413,-4.3495 5.7132,-5.6057 4.2109,-6.8525 -2.6928,-2.2348 -26.8811,21.132 -35.5737,34.3655 -10.1322,15.4251 -13.5385,27.3415 -14.5302,50.8328 -2.2376,5.69809 3.1737,27.9829 -3.1172,14.345 z m 81.725,-79.6784 c 0,-3.218 -2.0547,-4.4749 -4.802,-2.9375 -1.9792,1.1077 -1.9801,1.2746 -0.011,2.0304 1.1802,0.4529 2.1459,1.7777 2.1459,2.944 0,1.1663 0.6,1.7497 1.3333,1.2965 0.7334,-0.4533 1.3334,-1.9533 1.3334,-3.3334 z m -55.1911,-15.5721 c 2.7981,-14.4605 1.923,-15.4064 -2.2463,-2.4279 -4.5704,14.2275 -4.9043,16.9132 -1.7047,13.7136 1.2052,-1.2052 2.9831,-6.2838 3.951,-11.2857 z m 39.2059,-9.7888 c 1.7438,-3.2584 0.708,-5.3057 -2.6845,-5.3057 -2.7025,0 -6.9991,5.0451 -5.8627,6.8839 1.3459,2.1777 7.1063,1.1141 8.5472,-1.5782 z m -29.3537,-26.3841 c 6.6686,-17.3427 18.3231,-33.3316 30.5142,-41.86293 2.1743,-1.5215 2.8942,-2.9546 2.2836,-4.5457 -0.7457,-1.9433 -2.0935,-1.1387 -8.2331,4.915 -12.387,12.21363 -26.7237,36.32273 -29.2802,49.23863 -1.349,6.8149 -0.084,4.7381 4.7155,-7.745 z m 44.0056,-54.39463 c 0,-2.7377 -0.5669,-3.2983 -2.9864,-2.9531 -3.0651,0.4373 -4.4931,3.7181 -3.1462,7.2281 1.2315,3.2093 6.1326,-0.2073 6.1326,-4.275 z m -3.4496,61.48273 c -2.7271,-4.1621 -1.5573,-10.3992 1.8282,-9.7472 1.2558,0.2418 2.2843,1.6219 2.2857,3.0668 0,3.3407 3.2783,4.0134 6.6948,1.375 2.6137,-2.0185 2.609,-2.0665 -0.4608,-4.668 -3.6028,-3.0531 -2.8059,-5.3697 1.847,-5.3697 4.8495,0 9.0103,4.7489 7.9867,9.1156 -2.1154,9.0243 -15.6188,13.1911 -20.1816,6.2275 z m -146.3438,-31.1147 c -4.4073,-4.87 -2.0714,-10.8827 5.7848,-14.89073 8.9326,-4.5571 13.3419,-2.9747 13.3419,4.78803 0,6.1576 -6.2751,12.541 -12.3283,12.541 -2.7551,0 -5.4744,-0.9753 -6.7984,-2.4383 z m 10.5759,-6.2181 c 2.5379,-3.8734 1.6839,-7.34363 -1.8073,-7.34363 -3.2578,0 -5.6419,2.55423 -5.6419,6.04443 0,5.6007 4.1559,6.3255 7.4492,1.2992 z m 94.4941,-3.6769 c 0.5188,-2.3834 1.3823,-7.77193 1.9189,-11.97453 0.9598,-7.5162 2.0634,-10.2111 3.5664,-8.7081 1.563,1.563 0.6893,15.486 -1.2653,20.16413 -2.5939,6.2082 -5.5373,6.5698 -4.22,0.5185 z m 8.7706,-11.17013 c 0.026,-2.1065 0.9048,-5.3299 1.9528,-7.1633 2.9023,-5.077 2.6012,-7.0822 -0.7909,-5.2668 -3.3922,1.8154 -8.6302,0.6985 -9.6913,-2.0666 -0.7451,-1.9417 0.4185,-5.7575 3.0495,-9.9999 0.6821,-1.1 1.5682,-3.059 1.969,-4.3534 1.1178,-3.6101 7.0052,-5.3441 11.2534,-3.3146 4.2833,2.0464 5.09,6.0992 2.2912,11.5115 -1.1445,2.2133 -2.0809,5.8731 -2.0809,8.1331 0,5.0095 -2.8062,12.0426 -5.7935,14.52 -1.9667,1.631 -2.2014,1.4137 -2.1593,-2 z m 0.8669,-19.3957 c 4.0189,-3.7756 3.936,-6.4342 -0.2005,-6.4342 -3.3121,0 -6.0469,3.2769 -6.0469,7.2456 0,2.9353 2.6217,2.5947 6.2474,-0.8114 z" fill="#00B894" transform="translate(-286.17691,-43.155866) matrix(0.50522512,0,0,0.50522512,-276.73284,-27.535651)"/>
</svg>