<?xml version="1.0" ?><svg height="186.93034mm" viewBox="0 0 147.85454 186.93034" width="147.85454mm" xmlns="http://www.w3.org/2000/svg">
    <path d="m 3845.7827,-828.95 c 0,0 -12.984,-23.7318 -28.7791,-34.2123 -15.795,-10.4805 -39.6215,-10.9624 -39.6215,-10.9624 0,0 -9.37,-22.0453 -22.0863,-39.8742 -12.7164,-17.829 -27.7083,-27.1049 -27.7083,-27.1049 0,0 4.5511,-35.2965 -6.2912,-46.4998 -10.8424,-11.2034 -43.771,-31.2008 -43.771,-31.2008 0,0 14.4564,-23.6113 8.7006,-37.2239 -5.7558,-13.6127 -21.0154,-29.996 -21.0154,-29.996 0,0 20.3462,-10.4806 21.6847,-24.6956 1.3386,-14.2149 -10.7085,-44.6929 -10.7085,-44.6929 0,0 19.4092,-1.3251 27.1728,-16.6243 7.7637,-15.2991 8.9684,-43.3677 8.9684,-43.3677 0,0 21.4171,-0.3614 37.346,-21.5634 15.9289,-21.202 25.2988,-46.018 25.2988,-46.018 0,0 30.3855,4.4572 42.9679,-2.8912 12.5825,-7.3484 25.9682,-37.224 25.9682,-37.224 0,0 21.9524,2.6503 37.212,-7.7098 15.2596,-10.3601 25.2988,-34.6942 25.2988,-34.6942 0,0 22.6218,3.8549 49.3931,-1.9275 26.7712,-5.7823 57.5582,-28.3095 57.5582,-28.3095 0,0 9.9053,20.7201 24.3619,35.6579 14.4565,14.9378 41.7632,21.3225 41.7632,21.3225 0,0 1.874,28.5505 15.2596,40.5971 13.3856,12.0466 39.4876,22.5271 39.4876,22.5271 0,0 -21.5508,28.7913 -12.5825,43.0063 8.9684,14.215 41.3616,36.5012 41.3616,36.5012 0,0 -2.4094,33.4896 8.0314,52.2823 10.4408,18.7926 22.0863,34.9351 22.0863,34.9351 l -2.4094,81.3146 c 0,0 -16.8658,15.6605 -23.6926,32.7667 -6.8267,17.1062 -1.2047,57.2213 -1.2047,57.2213 0,0 -19.2753,5.3005 -32.6609,19.2746 -13.3857,13.974 -24.0942,34.0919 -24.0942,34.0919 0,0 -21.8186,-2.289 -44.9757,11.6851 -23.1572,13.9741 -25.4328,28.0686 -25.4328,28.0686 0,0 -25.2988,-8.794 -46.3143,0.9637 -21.0154,9.7578 -40.2907,16.9858 -40.2907,16.9858 0,0 -21.417,-17.829 -43.9049,-15.9015 -22.4879,1.9274 -62.3771,13.4921 -62.3771,13.4921 z" fill="#FFFFFF" transform="translate(-24.346547,104.80446) matrix(0.26458333,0,0,0.26458333,-942.78574,268.08471)"/>
    <path d="m 3814.5335,-704.49409 c -7.4768,-4.62099 -2.4374,-48.97754 9.6195,-84.67394 l 10.6729,-31.59777 -10.6508,-15.78158 c -11.0389,-16.35636 -27.4521,-28.76149 -38.0831,-28.78384 -8.7069,-0.0211 -17.3563,-9.29481 -27.498,-29.49135 -4.9145,-9.7868 -16.4694,-24.12036 -26.21,-32.51216 -15.6478,-13.48176 -17.5779,-16.69128 -18.9706,-31.54799 -1.7456,-18.62349 -9.125,-30.67335 -29.4274,-48.05118 -13.6963,-11.7237 -13.8885,-12.2016 -11.5966,-28.8655 1.8125,-13.1792 5.4924,-24.0069 -4.1709,-30.1628 -23.6217,-15.0483 -9.6818,-25.3764 1.2153,-29.6402 6.7303,-2.6335 6.0325,-19.5828 -0.5189,-35.956 -6.0987,-15.2423 -2.155,-32.7677 6.616,-29.402 7.4754,2.8685 15.5089,-11.9841 19.8602,-36.7175 4.2872,-24.371 9.2665,-30.3334 25.332,-30.3334 14.4563,0 25.157,-12.7382 37.2205,-44.3077 6.977,-18.2588 10.8068,-24.1199 15.7604,-24.1199 3.5989,0 6.5436,1.5395 6.5436,3.4213 0,4.6629 18.2278,4.3231 28.8985,-0.5388 4.7805,-2.1781 13.2472,-12.0321 18.8146,-21.8971 9.2532,-16.3958 11.1724,-17.9366 22.34,-17.9366 15.3022,0 26.6725,-7.3251 38.0452,-24.5105 8.1603,-12.3311 10.4035,-13.5582 28.2201,-15.4348 28.951,-3.0498 42.3457,-7.4459 68.3221,-22.4223 12.9616,-7.4729 24.5071,-13.5872 25.6571,-13.5872 4.0945,0 16.748,15.613 23.5693,29.0818 10.4644,20.6627 19.5794,29.0755 31.56,29.1285 20.9095,0.093 25.9196,3.1766 25.9196,15.9536 0,9.4261 2.1889,25.9652 19.1261,36.0203 33.1525,19.6817 32.0072,15.1624 21.9305,47.1807 -4.8776,15.4988 0.4657,16.9959 19.6729,31.573 19.4123,14.7326 19.6972,15.2005 21.4898,35.3109 2.2219,24.9247 -0.6732,33.3451 20.5607,53.9849 14.716,15.7823 25.6701,13.3803 16.2291,28.725 -8.6068,13.9884 -9.1616,12.5686 -9.8223,35.9111 -0.4528,16.0004 0.8077,28.2648 3.2017,31.1493 3.1055,3.7418 1.5064,7.9695 -7.4897,19.7974 -16.5701,21.78669 -18.9964,27.47498 -21.2189,49.74902 -3.2299,32.36336 -3.9372,33.76241 -23.7021,46.88558 -10.3672,6.88335 -22.5811,18.42671 -27.1422,25.6518 -8.3152,13.17212 -14.4998,16.68628 -43.0834,24.48128 -10.1435,2.76617 -20.4894,9.30367 -30.3872,19.20171 -13.4265,13.42643 -16.684,15.00753 -30.9189,15.00753 -8.7512,0 -24.3297,2.41315 -34.6189,5.36236 -32.3983,9.28658 -37.2682,9.61672 -44.5565,3.02102 -13.7809,-12.47167 -79.3198,-8.80935 -83.3087,4.65525 -2.3914,8.07273 -24.8531,96.19283 -27.3221,107.18789 -2.2328,9.94348 -8.8319,14.07575 -15.7005,9.83087 z m 47.6861,-208.97166 c -2.745,-1.65227 -6.5313,-4.2027 -8.4142,-5.6675 -3.9192,-3.04906 -116.0633,-163.07245 -122.3814,-175.35855 -3.3977,-6.6068 -2.3149,-14.2892 1.4472,-13.0746 8.1034,2.6163 94.0792,120.58121 127.2898,174.65004 3.1785,5.17473 6.9666,9.40875 8.4179,9.40875 4.8406,0 29.2043,-103.08969 25.0434,-105.96379 -1.4413,-0.9955 -16.0824,-21.825 -32.5354,-46.288 -16.4534,-24.4629 -47.2376,-61.3077 -62.1828,-82.778 -14.945,-21.4704 -23.9986,-35.9997 -21.8986,-45.2151 0.8679,-3.8075 1.8215,-3.068 5.9877,2.954 3.1942,4.6172 12.874,16.9341 21.5107,27.3711 20.3449,24.5862 66.7657,85.3969 84.2582,110.3771 l 13.6911,19.5519 12.9091,-47.5466 12.9092,-47.5466 -19.3778,-30.1688 c -10.6578,-16.593 -29.3368,-43.7912 -41.5088,-60.4403 -12.1719,-16.6493 -22.1307,-32.7274 -22.1307,-35.7288 0,-3.4922 3.3883,-1.2582 9.4086,6.2024 5.175,6.4131 14.8977,17.872 21.6063,25.4646 14.7999,16.7502 39.9223,48.6817 49.7407,63.2227 l 7.1958,10.6571 12.7696,-44.8494 12.769,-44.8493 -14.3195,-29.0392 c -7.8759,-15.9715 -13.5795,-29.7794 -12.6746,-30.6844 2.472,-2.4719 12.7801,8.8049 23.5102,25.7191 6.2385,9.8342 10.1656,13.3975 11.3121,10.2642 9.9484,-27.1847 32.6441,-93.9852 32.6441,-96.0812 0,-1.4834 -6.5433,0.7427 -14.5408,4.9463 -11.5249,6.0579 -20.4539,7.6882 -43.0466,7.8599 -28.0591,0.2125 -28.5818,0.3738 -33.3952,10.2642 -7.308,15.017 -25.5515,26.014 -43.1555,26.014 -14.3323,0 -15.0613,0.5229 -21.1059,15.1382 -8.8371,21.3654 -19.5345,28.7696 -41.5665,28.7696 -17.7152,0 -18.0067,0.1675 -20.1461,11.5711 -4.6025,24.5325 -33.8785,53.3949 -54.1885,53.4227 -8.7629,0 -9.4088,0.9952 -9.4088,14.3288 0,17.9715 -11.9524,43.2046 -22.8083,48.1509 -5.5803,2.5422 -7.5324,5.4981 -6.0345,9.1362 10.968,26.643 8.0297,47.4802 -7.7055,54.6499 -9.497,4.0252 -9.9229,3.4299 -1.5921,9.2652 14.985,10.4958 21.9284,34.7782 14.1179,49.3727 -2.9606,5.5317 -1.4801,7.8004 9.6924,14.8534 26.1754,16.52363 38.7518,39.33116 31.7879,57.6478 -2.9634,7.7943 -2.2839,9.27395 5.8461,12.73011 21.4124,9.10222 41.7026,35.27658 41.7026,53.7966 0,10.7807 0.5233,11.33774 7.2607,7.73216 15.7926,-8.45211 46.3124,6.05416 56.3711,26.7932 3.8435,9.04354 5.9987,-9.6008 8.5037,-22.53093 5.9495,-30.70699 10.7452,-35.86826 6.415,-38.47489 z m 29.1134,63.03694 c 23.5323,-6.43933 37.4219,-5.82756 53.4599,2.35431 l 13.7314,7.00535 18.3487,-8.97742 c 14.5124,-7.10015 22.4795,-8.78605 38.103,-8.0622 18.8847,0.87464 20.0639,0.43347 26.8022,-10.02984 8.781,-13.63501 30.488,-24.5766 48.7575,-24.5766 12.8093,0 14.0542,-0.82835 16.0205,-10.66028 2.3311,-11.65555 21.6811,-32.25874 38.6846,-41.18999 10.4899,-5.50999 10.6908,-6.05207 7.5017,-20.24589 -5.3335,-23.7391 2.5826,-47.46613 21.6456,-64.87753 10.188,-9.3054 10.2164,-9.4348 6.2126,-28.7188 -2.2115,-10.6543 -3.0486,-25.1286 -1.8597,-32.1652 1.7935,-10.6144 0.674,-14.5224 -6.5695,-22.9399 -12.2642,-14.2524 -20.1187,-39.9887 -18.2236,-59.7114 1.5483,-16.1138 1.4084,-16.3836 -11.423,-22.0451 -28.2387,-12.4587 -39.9112,-39.4957 -27.4073,-63.4846 4.4892,-11.2498 13.3251,-13.7355 -1.2205,-13.7355 -15.7013,0 -42.8315,-30.2325 -42.8315,-47.7294 0,-4.7885 -2.224,-7.0128 -7.0125,-7.0128 -17.0941,0 -38.744,-17.7645 -42.692,-35.0301 -2.9884,-13.0678 -7.3027,-14.5425 -10.0552,-3.4366 -1.2792,5.1616 -9.2349,29.1786 -17.679,53.3709 -8.444,24.1922 -14.6129,44.7256 -13.7089,45.6301 0.9044,0.9042 15.2295,-3.8107 31.8336,-10.4777 16.6045,-6.6669 31.3788,-10.9326 32.832,-9.4793 1.4535,1.4534 -14.6556,11.7785 -35.7978,22.9448 l -38.44,20.302 -7.8734,25.6606 c -11.5327,37.5882 -19.1209,68.4454 -17.2832,70.2832 0.8851,0.8851 19.1769,-6.6648 40.6486,-16.7773 60.1125,-28.3112 98.9201,-44.3755 101.3444,-41.9512 3.5301,3.5301 -7.631,10.3556 -65.7267,40.1943 -30.1082,15.464 -61.5537,31.722 -69.8794,36.1292 l -15.1369,8.0126 -12.9593,45.1324 c -7.1274,24.8229 -12.3345,45.757 -11.5713,46.5204 2.2031,2.203 111.6762,-38.7685 183.8989,-73.7439 26.9194,-13.0363 24.6284,0.1073 8.8706,7.8468 -7.0774,3.4757 -59.4681,31.8906 -100.3293,49.1678 -39.0729,16.5207 -75.7476,29.9528 -89.0152,32.6017 -9.9932,1.9951 -6.64,2.0305 -19.1263,45.82359 -7.0941,24.88007 -14.5912,49.43859 -14.5912,49.43859 -1.0087,2.29452 9.5855,0.0896 27.789,-8.32073 16.4652,-7.60808 45.3333,-19.99075 64.1511,-27.51706 18.8174,-7.52601 121.1074,-54.74709 131.4571,-59.50129 16.3303,-4.329 36.9958,-7.7773 -1.962,15.26087 -37.2444,19.63663 -138.4677,67.02858 -197.7288,87.37362 l -30.5984,10.50476 -6.1033,23.94975 c -7.9715,31.27954 -8.0204,37.40887 -0.2727,34.09895 3.2932,-1.40691 13.6364,-4.65072 22.9849,-7.20896 z" fill="#00B894" transform="translate(-24.346547,104.80446) matrix(0.26458333,0,0,0.26458333,-942.78574,268.08471)"/>
</svg>