<?xml version="1.0" ?><svg height="48.642548mm" viewBox="0 0 48.162392 48.642548" width="48.162392mm" xmlns="http://www.w3.org/2000/svg">
    <path d="m -1316.3233,2970.4423 c -9.1789,-4.681 -17.5418,-13.523 -13.0544,-23.4052 4.4875,-9.8822 28.8624,-18.1123 28.8624,-18.1123 0,0 2.8557,-3.1819 7.3771,-2.417 4.5214,0.7649 4.0115,7.0062 4.0115,7.0062 0,0 4.6914,12.5134 2.6856,21.9673 -2.0057,9.4538 -12.2044,16.0929 -29.8822,14.961 z" fill="#FFFFFF" paint-order="markers stroke fill" transform="translate(-90.439988,-10.915978) translate(-101.94562,-4241.9261) translate(1524.344,1328.9457)"/>
    <path d="m 235.59959,4255.1067 c -0.91038,-0.4976 -2.05329,-0.9602 -3.43165,-1.3954 -5.3358,-1.6837 -9.06521,-0.9039 -10.45869,2.1873 -0.79864,1.7716 -2.83616,2.8206 -8.20066,5.3089 -7.80583,3.6207 -19.47079,11.5683 -20.91802,18.6174 -1.07552,5.2385 2.18118,10.9329 7.4356,15.5304 3.35954,2.9395 11.61033,6.1401 15.79914,6.1293 5.76041,-0.015 14.61434,-2.8937 18.038,-6.2972 3.45893,-3.4389 6.78529,-8.4133 6.68236,-13.784 -0.0398,-2.0804 -0.25647,-7.7636 -1.64503,-11.5825 -2.10844,-5.7993 -2.31229,-7.3113 -1.23434,-9.1668 1.3129,-2.26 0.66563,-4.057 -2.06625,-5.5483 z m -4.10548,2.6673 c 1.57938,0.5684 2.66008,1.2757 1.73395,1.5823 -0.57563,0.1902 -2.72319,-0.1444 -4.77254,-0.7452 -3.42649,-1.0046 -3.5621,-1.1322 -1.68724,-1.5792 1.06843,-0.255 3.14654,0.1736 4.72583,0.7421 z m 1.16989,10.0472 c 0.35239,-0.1385 1.14244,1.5851 2.14649,5.2576 1.73723,6.3552 1.81329,7.1071 1.08321,10.6778 -0.74511,3.6444 -1.12457,3.5085 -1.32638,-0.4755 -0.087,-1.715 -0.72814,-6.0128 -1.42571,-9.5496 -0.74432,-3.7742 -0.82984,-5.7733 -0.47713,-5.9115 z m -8.86332,-3.9383 c 0.0804,0.2118 -1.05373,1.6593 -2.51948,3.2162 -1.4657,1.5567 -5.57858,8.2299 -9.13976,14.8279 -5.48169,10.1563 -6.65856,11.8968 -7.67007,11.3487 -2.80284,-1.5187 -3.56173,-2.6729 -2.81199,-4.275 1.98939,-4.2509 7.60736,-12.5573 10.85716,-16.0544 3.54578,-3.8159 11.00312,-9.8059 11.28414,-9.0634 z m 1.76039,2.41 c 0.35731,0.8293 -0.81034,4.9635 -3.68815,13.9663 -4.67238,14.6175 -5.77518,17.0711 -7.62032,16.9657 -2.54657,-0.1455 -6.01418,-2.0866 -5.5322,-3.0965 3.57246,-7.4852 12.6881,-23.79 14.59029,-26.0967 1.27297,-1.5435 2.03611,-2.2363 2.25047,-1.7388 z m -7.07656,-2.7961 c 0.0978,0.2595 -1.76876,2.062 -4.14862,4.006 -2.3798,1.9441 -5.56975,5.0843 -7.08926,6.9772 -1.51959,1.8933 -4.03243,5.6893 -5.58442,8.4371 -2.52983,4.479 -2.92781,4.8531 -3.83997,3.6137 -0.55956,-0.7603 -0.6917,-2.1029 -0.29517,-2.9825 1.82031,-4.0381 20.31926,-21.7373 20.95744,-20.0515 z m 8.99701,4.0558 c 0.10924,0.1257 0.18541,0.9937 0.32702,2.7169 0.40426,4.9146 -0.20184,16.8798 -1.0689,21.1029 -0.67744,3.2994 -0.93443,3.5849 -4.18164,4.6489 -1.90266,0.6234 -3.7311,1.0108 -4.06414,0.8606 -0.33305,-0.1501 0.45447,-2.6425 1.75096,-5.5384 2.07202,-4.6259 5.00732,-14.2716 6.71204,-22.0511 0.27319,-1.2469 0.41544,-1.865 0.52459,-1.7399 z m 3.02663,1.9346 c 0.49074,0.2212 2.45236,12.1155 2.62349,15.9094 0.1001,2.2156 -0.1216,4.7021 -0.49193,5.5236 -0.37037,0.8217 -1.27366,1.6566 -2.0077,1.8553 -1.01289,0.2752 -1.20121,-0.8362 -0.77831,-4.6068 0.30623,-2.7321 0.52882,-8.0763 0.49348,-11.8754 -0.0353,-3.7996 0.0367,-6.8623 0.16097,-6.8061 z m -22.9792,-0.8 c 0.0906,0.2374 -1.76433,2.4156 -4.12127,4.838 -2.35699,2.4223 -4.66409,5.2438 -5.12689,6.2703 -0.88894,1.972 -2.61626,2.7208 -2.81257,1.2192 -0.23041,-1.7614 11.51573,-13.7671 12.06073,-12.3275 z" fill="#00B894" transform="translate(-90.439988,-10.915978) translate(-101.94562,-4241.9261)"/>
</svg>