<?xml version="1.0" ?><svg height="78.981026mm" viewBox="0 0 122.20213 78.981026" width="122.20213mm" xmlns="http://www.w3.org/2000/svg">
    <path d="m 238.15015,3125.4037 c 0,0 -23.13839,0.3744 -22.02886,-15.7271 1.10953,-16.1015 16.82792,-16.6007 16.82792,-16.6007 0,0 0.99396,-17.4329 10.74859,-21.7805 9.75464,-4.3479 19.62486,3.7028 19.62486,3.7028 0,0 7.11949,-10.4846 19.87913,-8.5085 12.75961,1.9765 19.11633,16.6423 19.11633,16.6423 0,0 11.58073,-10.3806 22.00571,-2.1426 10.42498,8.2381 4.41502,26.3782 4.41502,26.3782 0,0 4.71551,9.7356 -0.53165,15.2276 -5.24716,5.4919 -19.94847,3.058 -19.94847,3.058 0,0 -5.52732,14.9603 -19.8329,15.2487 -11.37271,0.2292 -14.42392,-9.9647 -14.42392,-9.9647 0,0 -10.19384,12.0449 -21.91327,8.8413 -11.71943,-3.2038 -13.93849,-14.3748 -13.93849,-14.3748 z" fill="#FFFFFF" paint-order="markers stroke fill" transform="translate(-0.56419213,88.571038) translate(858.72172,-1824.6105) translate(-1070.4741,-1328.9457)"/>
    <path d="m -819.29941,1814.2748 c -5.3447,-1.549 -10.2024,-5.6984 -12.8163,-10.9467 -1.8436,-3.7018 -2.7199,-4.7578 -3.3913,-4.0863 -2.1396,2.1397 -12.3715,-0.3453 -16.5223,-4.0116 -3.589,-3.1701 -6.136,-8.4002 -6.1282,-12.5824 0.012,-4.9986 2.8013,-11.3389 6.2813,-14.2676 2.9707,-2.4993 9.9312,-4.9763 12.0738,-4.2966 1.3765,0.4369 1.4639,0.1822 0.9342,-2.718 -2.2005,-12.0323 6.6121,-22.5571 18.8878,-22.5571 4.9674,0 8.2846,1.3608 10.6508,4.3683 1.77716,2.1957 1.27235,2.6333 2.4493,0.049 2.2324,-4.8998 12.9568,-8.3606 21.1154,-6.8135 7.2552,1.3762 15.8334,8.2716 17.2244,13.8458 0.67805,3.3322 0.63109,2.1414 2.9116,0.2223 6.4199,-5.4018 16.9586,-4.1098 24.0132,2.9449 5.9196,5.9203 7.3624,15.2751 3.539,22.948 -1.8781,3.7688 -1.954,4.2918 -0.8691,5.9843 2.4614,3.8391 1.94,9.5291 -1.2018,13.1074 -4.4882,5.1119 -8.7252,6.3752 -16.183,4.8239 -2.7512,-0.572 -5.0276,-0.9883 -5.0595,-0.9246 -8.4824,16.946 -23.8926,20.7244 -34.4102,8.4365 -1.5948,-1.8629 -2.899,-2.9729 -2.899,-2.4668 0,1.7214 -5.1976,6.8485 -8.4311,8.3174 -3.4492,1.5669 -8.093,1.805 -12.169,0.6236 z m 11.7603,-5.9715 c 1.1055,-0.5653 3.6934,-2.5121 5.7522,-4.3262 4.0899,-3.6041 5.1615,-3.6228 7.741,-0.1321 2.069,2.7982 9.2447,6.4843 12.6241,6.4843 4.2736,0 10.6145,-3.7777 14.1078,-8.4046 1.743,-2.3084 3.1689,-4.6041 3.1689,-5.1006 0,-1.8014 2.7845,-2.3613 7.6452,-1.5363 4.2641,0.7233 5.2838,0.6203 8.6631,-0.8745 2.7002,-1.1945 4.1369,-2.4234 4.8686,-4.164 1.4646,-3.4824 0.7527,-7.1708 -1.5893,-8.2382 -2.1884,-0.9968 -2.4873,-3.1485 -0.6497,-4.6733 3.6752,-3.0501 5.0156,-11.7135 2.544,-16.4487 -2.7038,-5.1802 -9.029,-9.2237 -14.4243,-9.2212 -2.5983,0 -5.7117,1.3711 -9.7895,4.3061 -2.7779,1.9993 -4.058,1.334 -6.4248,-3.3371 -2.2095,-4.3603 -6.6152,-8.6268 -10.6478,-10.312 -6.4892,-2.7114 -17.1189,-0.6189 -21.6403,4.2592 -2.91916,3.4204 -2.37941,2.054 -6.4838,-0.1633 -11.682,-6.3107 -22.5974,0.3292 -24.0951,14.6564 -0.4984,4.7665 -0.625,4.9975 -3.0213,5.5025 -4.1869,0.8836 -9.6256,4.2552 -11.6621,7.2298 -2.7929,4.0804 -3.1895,9.888 -0.9246,13.5517 0.9686,1.567 2.7827,3.577 4.0315,4.466 2.835,2.019 11.6175,4.3278 14.0951,3.706 1.5882,-0.3991 2.2065,0.1594 4.3111,3.8886 5.0609,8.9667 14.2875,12.7264 21.8,8.8824 z m 8.2377,-19.2626 c -2.4674,-1.0729 -5.0217,-4.6963 -4.0181,-5.7005 0.2549,-0.2541 1.435,0.1732 2.6229,0.9525 1.2771,0.8371 4.0139,1.4952 6.6989,1.6109 2.497,0.107 4.8107,0.2232 5.1422,0.2567 0.3315,0.037 0.6027,0.59 0.6027,1.2373 0,2.7713 -6.2982,3.7078 -11.0486,1.6431 z m 10.2452,-7.9961 c 0,-1.5644 0.8359,-1.9815 5.1566,-2.574 3.3305,-0.4563 3.6831,-0.3483 3.6831,1.1257 0,1.9433 -1.4477,2.6061 -5.6912,2.6061 -2.2059,0 -3.1485,-0.3464 -3.1485,-1.1578 z m -10.7147,-5.8068 c -1.0191,-1.0192 -0.5304,-3.5342 0.7859,-4.0394 1.5622,-0.5996 3.5993,1.7749 2.9569,3.448 -0.4466,1.1645 -2.7984,1.5362 -3.7428,0.5914 z m 7.5982,-0.4913 c -0.983,-0.9829 -1.2018,-3.2262 -0.3942,-4.0337 0.8914,-0.8909 3.5107,1.0437 3.5107,2.5926 0,1.8134 -1.8762,2.6814 -3.1165,1.4411 z" fill="#00B894" transform="translate(-0.56419213,88.571038) translate(858.72172,-1824.6105)"/>
</svg>