<?xml version="1.0" ?><svg height="178.7623mm" viewBox="0 0 87.775726 178.7623" width="87.775726mm" xmlns="http://www.w3.org/2000/svg">
    <path d="m 6768.3189,522.628 c 2.927,-44.0176 5.245,-212.2944 -41.714,-300.5492 -46.959,-88.2548 -80.745,-73.3261 -90.7466,-62.3491 -10.0017,10.9769 -32.0784,51.8112 -32.0784,51.8112 0,0 -50.9839,-92.0967 -64.2787,-96.1581 -13.2949,-4.0615 -11.2214,50.3842 -11.2214,50.3842 0,0 -51.3498,-65.2031 -80.3789,-79.5829 -29.0291,-14.3799 -59.5219,-22.8321 -55.4968,3.5126 4.025,26.3447 57.5703,125.3569 57.5703,125.3569 0,0 -18.4176,-2.3052 -24.2722,6.4764 -5.8546,8.7815 23.5404,47.64 37.689,63.337 14.1487,15.6971 30.1269,40.1757 30.1269,40.1757 0,0 -40.0066,-9.0011 -49.0324,1.6466 -9.0258,10.6476 5.6107,42.9199 61.9613,82.6565 56.3506,39.7366 131.2408,84.0835 182.4689,99.2317 51.228,15.1482 79.403,14.0505 79.403,14.0505 z" fill="#FFFFFF" transform="translate(-373.39788,-55.761713) matrix(0.2332124,0.12496527,-0.12496527,0.2332124,-1082.6521,-758.37666)"/>
    <path d="m 6786.9693,561.8625 c -24.9309,-31.48919 -26.6613,-33.16133 -33.9184,-32.78064 -8.8355,0.46354 -88.2862,-21.0051 -118.8157,-32.10574 -30.7941,-11.19677 -57.3159,-24.36654 -93.048,-46.20407 -46.5008,-28.41876 -70.7859,-48.49489 -93.4617,-77.26258 -16.6054,-21.06756 -18.9223,-25.20755 -19.0844,-34.10985 -0.2585,-14.23247 14.2944,-25.43224 33.3397,-25.65757 7.366,-0.0879 13.428,-0.82276 13.4717,-1.63457 0.043,-0.81182 -10.4405,-12.04744 -23.2983,-24.96742 -24.8057,-24.92642 -36.7896,-42.07588 -40.4709,-57.91437 -2.7745,-11.93756 3.1082,-23.57897 13.5472,-26.8095 l 7.4305,-2.2994 -13.05,-19.47312 c -14.6961,-21.92915 -30.4565,-56.27742 -34.5731,-75.34923 -7.5193,-34.835403 7.112,-50.539346 37.1854,-39.911037 29.0272,10.258777 67.0166,38.694917 89.0134,66.628917 l 7.9664,10.11541 1.4309,-16.787 c 1.9097,-22.4062 9.1879,-27.33484 28.3209,-19.17803 11.7212,4.99687 15.6248,8.49736 29.2111,26.19468 10.7384,13.98953 17.705,25.99984 22.1006,38.108 3.5303,9.72421 7.0482,17.13744 7.8179,16.47349 0.7696,-0.66419 3.5039,-6.87803 6.0758,-13.80928 7.8707,-21.21026 28.3863,-33.25319 50.0319,-29.36921 16.1257,2.89361 30.198,13.53544 47.9762,36.28093 26.4198,33.80148 42.9868,72.16914 58.238,134.87287 14.5134,59.67042 17.531,112.20164 10.4452,181.82996 -1.3229,13.00109 -0.9324,25.79446 0.8679,28.4295 1.8006,2.63481 12.5359,16.34514 23.8583,30.46515 16.8811,21.05533 20.8964,27.59665 22.3187,36.35967 2.3118,28.51384 -38.2494,-26.764 -40.9272,-30.13596 z m -48.5624,-58.13046 c -5.236,-5.39495 -15.2705,-15.95673 -22.2983,-23.47061 -11.9869,-12.81547 -14.4323,-14.05325 -39.482,-19.98255 -37.369,-8.84565 -56.3893,-15.47517 -88.971,-31.01088 -36.4498,-17.38079 -64.9106,-37.51227 -59.2678,-41.92287 0.9637,-0.75324 13.0607,4.09106 26.882,10.76501 36.8162,17.77715 70.3509,30.68404 101.7997,39.18034 l 27.7999,7.51064 -45.3952,-60.75605 -45.3953,-60.75562 -27.7284,-10.72918 c -37.4962,-14.50863 -42.1742,-20.78494 -12.9605,-17.38915 l 21.9698,2.55347 -44.8718,-57.40899 c -40.7252,-52.10397 -78.2759,-95.98052 -107.8455,-126.04074 -8.4811,-8.62204 -10.8138,-9.91713 -10.1528,-5.63808 1.0257,6.64174 31.4424,74.56681 40.5828,90.6272 10.0227,17.61085 10.7181,20.67528 5.6002,24.67556 -2.6261,2.05262 -8.8401,3.36231 -13.8083,2.90993 -4.9686,-0.45216 -9.1578,0.191 -9.3094,1.42836 -0.1524,1.23757 18.247,26.35327 40.8859,55.81239 21.1661,34.70443 61.7577,58.87257 9.4984,50.74321 -35.5129,-5.5634 -40.9674,-2.6127 -28.6041,15.4741 20.363,29.78961 90.0061,80.75343 151.1551,110.61342 27.9684,13.65712 73.1949,31.7081 129.9485,51.86534 10.5839,3.75886 10.5783,1.86827 -0.025,-9.05854 z M 6631.3278,403.62891 c -7.1231,-1.14509 -28.1358,-8.37055 -46.6952,-16.05631 -60.1925,-24.92707 -72.3608,-38.15027 -22.0953,-24.0116 45.2979,12.74165 76.4578,24.87149 81.9539,31.90316 6.4763,8.28577 2.5887,10.6972 -13.1634,8.16475 z m 126.1374,53.76279 c 0.3066,-134.01106 -56.9344,-294.09984 -105.2386,-294.32731 -15.0272,-0.0709 -25.231,11.92683 -35.6799,41.95055 -5.7276,9.9699 -2.2278,29.24958 -15.067,20.96391 -4.5459,-2.93331 -9.6409,-11.98154 -17.9592,-31.88621 -11.4609,-27.42712 -35.8399,-64.3544 -43.0898,-65.26816 -5.3014,-0.66804 -8.5176,17.58702 -5.6778,32.23064 3.0294,15.62325 1.8736,19.21795 -6.1049,18.98426 -4.2378,-0.12447 -10.2078,-6.23917 -26.8365,-27.48656 -11.77,-15.02367 -27.4749,-32.95897 -34.9168,-39.84344 -21.1332,-19.549919 -59.478,-37.391456 -60.6048,-28.198801 -0.1674,1.3642 7.9036,9.588377 17.9348,18.275651 36.9898,32.03408 79.4008,80.0796 151.011,171.07418 38.2817,48.64318 69.7145,86.99239 69.8519,85.2196 0.1974,-2.55175 -6.324,-69.31308 -11.2691,-115.35856 -1.3743,-12.79873 5.7926,-8.72677 11.8684,6.74283 8.3523,21.26648 18.4527,96.59921 16.2885,121.48915 l -1.0208,11.74078 25.9937,30.32737 c 23.402,27.30395 25.6564,29.33853 22.613,20.40918 -1.8591,-5.45525 -6.1727,-29.7984 -9.5851,-54.09563 -3.4126,-24.29744 -8.4975,-57.04997 -11.2997,-72.78353 -2.8022,-15.73356 -4.2855,-29.82716 -3.296,-31.3186 6.3557,-9.58301 23.679,41.93919 34.6234,102.97464 10.2655,57.25019 10.6035,65.30013 2.9065,69.25386 -6.3188,3.24619 -6.3155,3.25499 6.8448,17.05395 14.7978,15.51617 27.4085,27.16081 27.5449,25.43459 0.049,-0.63177 0.1246,-15.73269 0.1652,-33.55834 z" fill="#00B894" transform="translate(-373.39788,-55.761713) matrix(0.2332124,0.12496527,-0.12496527,0.2332124,-1082.6521,-758.37666)"/>
</svg>