<?xml version="1.0" ?><svg height="164.06804mm" viewBox="0 0 96.194809 164.06804" width="96.194809mm" xmlns="http://www.w3.org/2000/svg">
    <path d="m 155.69129,86.211596 c -1.30084,-0.01369 -2.58438,0.480691 -3.72852,1.630859 -7.78982,9.245161 -0.48804,29.312695 1.60547,42.939455 2.0935,13.62675 6.33074,17.35251 14.60742,12.05078 8.27668,-5.30173 -2.48387,-39.6097 -3.65234,-46.664063 -0.87635,-5.29077 -4.92951,-9.915949 -8.83203,-9.957031 z m 71.63672,23.714844 c -8.37406,-0.39434 -9.78565,15.72954 -11.29492,36.58594 -1.50928,20.85639 3.45634,23.48552 9.25,24.53711 15.96911,-0.0438 12.9024,-13.84558 14.26562,-30.01367 1.36322,-16.16809 -3.84665,-30.71504 -12.2207,-31.10938 z m -102.39258,30.98633 c -0.57558,0.006 -1.14346,0.12735 -1.69727,0.38477 -4.43045,2.05934 -8.42426,0.87634 -5.89257,11.91796 0,0 4.8203,18.35988 7.49804,23.48633 2.67774,5.12645 3.70073,25.28261 14.94727,19.45508 11.24654,-5.82752 -2.82405,-39.43596 -4.77149,-44.86914 -1.70402,-4.75403 -6.0549,-10.41393 -10.08398,-10.375 z m 153.0332,87.5625 c -4.30086,0.0422 -9.5741,6.90084 -14.70898,14.25781 -6.0858,8.71938 -6.76769,13.538 -3.45703,21.77539 5.35548,0.30671 12.17214,-4.81927 17.625,-11.74219 5.45286,-6.92292 7.44745,-20.37371 2.82226,-23.57226 -0.72269,-0.49977 -1.48479,-0.72656 -2.28125,-0.71875 z" fill="#FFFFFF" transform="translate(-51.688279,4.1709624) matrix(0.50522512,0,0,0.50522512,0.67488566,-35.602486)"/>
    <path d="m 141.95381,384.6697 c -1.1537,-1.2834 -4.2223,-6.8334 -6.8191,-12.3334 -2.5968,-5.5 -6.0882,-12.2076 -7.7587,-14.9058 -4.4441,-7.1784 -1.8988,-7.795 4.8472,-1.1743 5.9457,5.8352 17.4971,27.1233 16.0172,29.5179 -1.1956,1.9344 -3.9971,1.4422 -6.2866,-1.1044 z m -33.991,-8.6667 c -1.999,-2.4952 -6.9912,-12.6923 -6.9912,-14.2802 0,-2.8995 4.0008,-1.2075 7.2654,3.0727 4.7467,6.2233 4.4796,17.1412 -0.2742,11.2075 z m 58.1667,-1.3277 c -2.175,-4.064 -2.3108,-23.0461 -0.1802,-25.1805 2.4275,-2.4317 3.2286,-0.9041 5.1469,9.8141 2.587,14.4543 2.4287,18.3608 -0.7444,18.3608 -1.4409,0 -3.3409,-1.3475 -4.2223,-2.9944 z m 23.5142,1.67 c -1.4468,-2.3411 0.7125,-14.8807 2.4621,-14.2975 2.048,0.6826 2.037,14.5648 -0.012,15.2478 -0.8495,0.2832 -1.952,-0.1445 -2.45,-0.9503 z m 37.9945,-6.1556 c 0,-5.4398 6.4871,-18.6339 11.4573,-23.3031 1.7652,-1.6583 3.2094,-2.399 3.2094,-1.646 0,1.7755 -11.87575,26.96195 -12.31857,27.67221 -2.00041,3.20863 -2.34813,-0.0758 -2.34813,-2.72311 z m 32.4357,-3.9745 c -0.9526,-2.4825 2.8764,-11.2122 4.9179,-11.2122 2.5135,0 2.8505,3.5972 0.7974,8.511 -2.1421,5.1269 -4.3788,6.184 -5.7153,2.7012 z M 155.07571,344.003 c -0.3373,-1.65 -0.9129,-15 -1.2791,-29.6667 -0.3897,-15.61298 -1.8177,-35.2332 -3.445,-47.33329 -3.2912,-24.474 -10.5793,-62.63783 -12.4129,-65 -0.7115,-0.91667 -2.429,-1.66667 -3.8167,-1.66667 -3.7261,0 -6.8778,-6.21293 -11.667,-22.99932 -2.3539,-8.25037 -5.4506,-18.64297 -6.8816,-23.09468 -3.3189,-10.32479 -3.2936,-10.72559 0.9262,-14.63633 3.6989,-3.42806 9.4742,-4.25424 13.7484,-1.96678 4.0901,2.18896 8.8272,11.9252 13.893,28.55435 5.5817,18.32313 5.7927,21.05381 2.151,27.84831 l -2.6795,4.99938 4.6298,15.93156 c 8.8232,30.36118 13.7453,63.38835 14.9077,100.03017 0.8401,26.4837 0.015,32 -4.7867,32 -1.7027,0 -2.8971,-1.0899 -3.2876,-3 z m -14.5629,-154.87298 c 2.0842,-4.37061 1.9994,-5.14696 -2.278,-20.85004 -5.2442,-19.25223 -8.2885,-24.61031 -13.983,-24.61031 -3.2534,0 -4.0174,0.60619 -4.3479,3.44996 -0.4014,3.45372 9.6518,34.65526 13.669,42.4237 2.7376,5.29401 4.2616,5.20325 6.9399,-0.41331 z m 46.0971,154.87298 c -0.7452,-0.9167 -3.2729,-7.9089 -5.6171,-15.5384 -2.3443,-7.6294 -4.86658,-11.91712 -5.23873,-13.04348 -1.14814,-3.47497 -0.0225,-4.51782 0.95843,-3.91152 2.352,1.4536 11.0291,17.6053 12.8331,23.8877 2.3433,8.1607 0.6759,13.0485 -2.9357,8.6057 z m 36.5839,0.7778 c -4.578,-4.5779 7.9706,-36.526 28.0563,-71.4298 5.5447,-9.63528 5.8373,-10.62368 4.418,-14.92399 -1.341,-4.06339 -1.1022,-5.45827 2.0294,-11.85388 1.9521,-3.98671 6.1962,-10.62091 9.4312,-14.74268 4.9684,-6.33031 6.5518,-7.4971 10.1957,-7.51332 3.7884,-0.0169 4.7604,-0.82887 7.9801,-6.66667 2.0165,-3.65609 4.3415,-6.64745 5.1667,-6.64745 1.9512,0 0.5779,7.0391 -2.6472,13.5691 -1.7356,3.51396 -2.2604,6.91266 -1.853,12 0.5435,6.7876 0.2617,7.53427 -6.4548,17.09756 -7.7876,11.08838 -11.0425,14.00001 -15.6503,14.00001 -2.6649,0 -4.9771,3.50084 -16.292,24.66666 -13.053,24.41726 -21.269,43.75866 -21.269,50.06966 0,3.1762 -1.3099,4.1761 -3.1111,2.3748 z m 52.896,-97.61913 c 3.672,-6.7465 4.5764,-12.6993 2.1567,-14.19476 -1.928,-1.19154 -4.6394,1.31774 -12.167,11.25983 -6.3975,8.44947 -7.2993,12.4736 -3.3613,14.99931 2.2926,1.47041 9.5872,-5.11101 13.3716,-12.06438 z m -153.3916,90.21863 c -1.2669,-1.6174 -8.3933,-16.7919 -8.3933,-17.8721 0,-0.2781 1.2132,-0.5056 2.696,-0.5056 3.4708,0 10.8931,11.3938 10.356,15.8972 -0.4463,3.7411 -2.7221,4.9529 -4.6587,2.4805 z m 85.6014,-2.5909 c -0.9392,-3.7421 4.5325,-19.9853 7.0053,-20.796 3.6531,-1.1976 0.3907,18.004 -3.6858,21.6932 -2.4014,2.1732 -2.5596,2.1304 -3.3195,-0.8972 z M 192.97161,334 c 0,-1.7885 5.0382,-27.2476 8.6408,-43.66406 1.9312,-8.8 5.847,-31.6 8.7019,-50.66667 2.8548,-19.06666 6.4188,-40.96666 7.9199,-48.66666 3.3451,-17.15862 3.3442,-16.96103 0.079,-17.9975 -5.7814,-1.83497 -6.6745,-4.22632 -6.6745,-17.87185 0,-13.18391 3.8344,-38.8384 6.5684,-43.94692 2.395,-4.47512 6.3772,-6.00122 10.838,-4.15348 4.7282,1.95849 11.304,11.94541 13.1489,19.96975 2.8918,12.5774 1.1514,38.4788 -2.936,43.69677 -0.731,0.93323 -2.3259,1.38041 -3.5441,0.99375 -5.3602,-1.70124 -6.3758,1.56666 -12.632,40.64281 -3.3461,20.9 -7.3473,44.6 -8.8915,52.66667 -2.8621,14.95091 -14.2735,56.48419 -17.9115,65.19119 -1.8745,4.4863 -3.3068,6.1349 -3.3068,3.8062 z m 42.226,-173.76315 c 2.0015,-7.57394 2.1735,-24.36512 0.32,-31.23424 -1.7173,-6.36426 -6.5495,-13.97816 -8.8794,-13.99089 -0.9166,-0.005 -1.6783,0.44089 -1.6926,0.99089 -0.014,0.55 -0.8952,7 -1.9577,14.33333 -1.0625,7.33333 -1.9508,18.34837 -1.9741,24.47788 -0.041,10.91239 0.02,11.1288 2.9688,10.38881 1.6561,-0.41565 3.9061,-0.19045 5,0.50044 3.1914,2.01566 4.5547,0.81662 6.215,-5.46622 z m -61.034,141.16888 c -1.0741,-2.00705 -1.9093,-20.18031 -2.6502,-57.66667 -0.595,-30.10483 -1.3708,-55.93605 -1.724,-57.40272 -0.3531,-1.46667 -1.3748,-10.04757 -2.2705,-19.06868 l -1.6284,-16.40201 -4.3709,-1.82628 c -5.9837,-2.50015 -7.7864,-6.66083 -11.8922,-27.44745 -4.0412,-20.45957 -4.2886,-25.695768 -1.5262,-32.306998 1.4314,-3.42589 1.7699,-7.59897 1.2415,-15.30744 -0.9067,-13.22931 1.4182,-16.085167 3.6908,-4.53366 1.8127,9.21399 2.0503,9.61354 7.2714,12.23159 3.5774,1.79384 4.6818,4.04765 10.4538,21.333328 7.56,22.64 8.3989,31.47573 3.7092,39.06391 -1.6119,2.60798 -3.6106,4.96844 -4.4416,5.24545 -1.0726,0.35752 -0.6675,4.73704 1.3962,15.09428 5.1435,25.81408 6.9679,46.87921 8.1343,93.92396 1.1246,45.35856 0.9726,47.89726 -2.8717,47.97956 -0.5242,0.011 -1.6588,-1.29833 -2.5215,-2.91017 z m -5.2149,-170.14374 c -0.04,-6.2839 -8.73606,-36.687724 -9.91439,-38.890456 -5.85222,-10.939969 -7.93011,10.022026 -6.88101,11.719576 0.3818,0.61772 2.2908,8.27561 4.2423,17.01752 1.9515,8.74191 4.1619,17.05895 4.9119,18.48231 1.303,2.47276 1.5039,2.42495 4.5139,-1.07435 1.7326,-2.01426 3.1399,-5.27882 3.1273,-7.2546 z m -52.0101,0.32088 c -1.5959,-4.19751 -1.7075,-11.24653 -0.1781,-11.24653 1.2079,0 4.2111,8.90593 4.2111,12.48803 0,3.36874 -2.5825,2.57378 -4.033,-1.2415 z m 110.1017,-27.57986 c -0.2829,-0.91667 -0.8198,-5.108568 -1.1933,-9.315328 -0.7206,-8.11708 0.9207,-11.16923 3.8511,-7.16158 2.0644,2.8232 3.6582,12.922798 2.5111,15.912088 -1.001,2.60865 -4.4229,2.98257 -5.1689,0.56482 z" fill="#00B894" transform="translate(-51.688279,4.1709624) matrix(0.50522512,0,0,0.50522512,0.67488566,-35.602486)"/>
</svg>