<?xml version="1.0" ?><svg height="88.603661mm" viewBox="0 0 97.43502 88.603661" width="97.43502mm" xmlns="http://www.w3.org/2000/svg">
    <g color="#000">
        <path d="m 3895.0038,2437.0382 -16.0664,58.5019 -64.8808,6.1641 49.6894,41.6933 -8.2207,56.2618 60.7735,-49.8731 61.5175,27.0098 -33.125,-54.2442 38.7305,-39.2265 -59.6523,2.4648 z m 206.2246,167.3281 -8.3437,50.4336 -63.7598,4.4824 42.8399,42.5879 -25.9043,52.9004 66.0039,-45.9512 43.7109,27.3457 -22.541,-46.1738 38.3555,-37.4336 -45.9532,-1.0078 z" fill="#FFFFFF" overflow="visible" paint-order="fill markers stroke" transform="translate(-87.336169,-16.092733) matrix(0.26458333,0,0,0.26458333,-920.86429,-626.33877)"/>
        <path d="m 3884.8706,2428.0903 c -0.8667,-0.035 -1.4208,0.2706 -1.9082,0.9082 -1.3719,1.795 -3.7187,12.6055 -4.9843,22.9629 -1.1471,9.3863 -3.6264,21.0877 -4.8028,22.666 -0.5465,0.7334 -1.4191,3.6123 -1.9394,6.3965 -0.5204,2.7841 -1.2676,4.7384 -1.6621,4.3437 -0.3945,-0.3943 -1.4199,-0.1335 -2.2774,0.5782 -2.6935,2.2354 -19.5412,3.7658 -31.6094,2.8711 -11.0252,-0.8173 -18.8654,-0.1795 -20.7343,1.6894 -0.4701,0.4701 -0.062,3.0418 0.9043,5.7149 1.6781,4.6408 1.5995,4.9764 -1.7442,7.4121 -4.5366,3.3047 -4.824,10.3252 -0.584,14.2754 1.605,1.4953 3.4411,2.7187 4.0801,2.7187 0.6391,0 3.912,2.1013 7.2735,4.668 3.3614,2.5667 6.9253,4.666 7.9199,4.666 0.9945,0 1.8095,0.45 1.8105,1 0,0.55 2.5924,2.637 5.7578,4.6367 3.1654,1.9996 7.729,5.8029 10.1407,8.4531 3.7059,4.0725 4.2447,5.4712 3.4863,9.0313 -0.4936,2.3168 -1.147,6.0129 -1.4512,8.2129 -0.3042,2.2 -1.1968,6.9993 -1.9844,10.666 -0.7875,3.6666 -1.7785,9.9666 -2.2031,14 -0.4246,4.0333 -1.3933,7.7323 -2.1523,8.2188 -2.174,1.3933 2.8634,13.1066 6.2187,14.4609 4.9092,1.9814 6.1599,1.4952 13.2656,-5.166 18.6616,-17.4942 55.1491,-43.2931 59.377,-41.9825 1.2149,0.3767 8.2096,3.5808 15.543,7.1211 16.3639,7.9 22.6926,10.6817 24.3086,10.6817 0.6819,0 2.0021,1.4235 2.9336,3.164 0.9354,1.7478 3.9603,3.9127 6.7578,4.836 4.345,1.434 5.5074,1.3612 8.1758,-0.5078 4.1416,-2.9009 4.4499,-9.5371 0.6875,-14.8164 -3.3372,-4.6826 -6.5088,-10.1755 -9.5801,-16.5918 -1.2063,-2.52 -3.6399,-6.4772 -5.4063,-8.793 -1.7663,-2.3158 -3.2109,-4.6284 -3.2109,-5.1406 0,-0.5123 -2.4427,-4.1675 -5.4277,-8.1211 -4.3119,-5.7111 -5.1573,-7.6913 -4.1172,-9.6348 1.3408,-2.5053 12.6686,-12.5902 18.7285,-16.6738 1.8602,-1.2535 8.0548,-6.6086 13.7656,-11.9004 12.2491,-11.3502 13.2032,-14.6885 5.8067,-20.3301 -5.6048,-4.2749 -7.5403,-4.3147 -38.5274,-0.8125 -24.1141,2.7254 -28.8945,2.4031 -28.8945,-1.9472 0,-1.0131 -0.5279,-2.0428 -1.1719,-2.2872 -0.644,-0.2445 -3.7406,-5.2446 -6.8828,-11.1113 -10.331,-19.2888 -18.4922,-29.357 -22.8672,-28.2129 -1.4184,0.371 -4.5814,-0.1627 -7.0293,-1.1855 -1.7419,-0.7278 -2.9223,-1.1036 -3.7891,-1.1387 z m 10.5098,23.1914 c 0.7682,0 1.8864,2.0851 4.4453,6.8594 2.5021,4.6682 5.6467,10.2863 6.9883,12.4863 1.3416,2.2 2.8594,4.9 3.3711,6 0.5117,1.1 2.9183,5.1244 5.3477,8.9414 5.9655,9.3731 9.3305,9.8728 42.4101,6.3028 6.6667,-0.7194 6.6671,-0.7197 0.709,4.3515 -16.376,13.9386 -20.3146,18.5931 -21.0176,24.8301 -0.7009,6.2187 2.3173,13.8548 8.1153,20.5254 1.4102,1.6225 3.2322,4.1184 4.0468,5.5469 0.8147,1.4285 2.8704,4.4511 4.5703,6.7168 3.0144,4.0175 3.025,4.1191 0.3809,4.1191 -1.4911,0 -5.5505,-1.8 -9.0195,-4 -3.4691,-2.2 -6.9398,-4.0104 -7.7129,-4.0234 -0.7731,-0.013 -4.0445,-1.8133 -7.2715,-4 -6.3909,-4.3305 -12.109,-5.0701 -15.7852,-2.0411 -3.2242,2.6566 -14.4312,10.6217 -21.6816,15.4102 -3.3,2.1795 -7.1994,4.8895 -8.666,6.0215 -1.4667,1.1319 -5.0667,3.8946 -8,6.1387 -9.4073,7.1968 -9.822,7.2325 -9.1504,0.8046 0.3243,-3.1042 1.5099,-9.8898 2.6367,-15.08 3.1318,-14.4253 2.4144,-17.484 -5.1016,-21.7032 -3.4552,-1.9396 -8.6185,-5.7449 -11.4726,-8.455 -2.8541,-2.7101 -9.0261,-7.1573 -13.7168,-9.8828 -4.6907,-2.7256 -10.0992,-6.2073 -12.0176,-7.7383 -1.9184,-1.5309 -4.6184,-3.5441 -6,-4.4727 -2.1767,-1.4632 -1.8896,-1.5657 2.1543,-0.7656 10.6378,2.1046 41.5992,0.8364 49.1699,-2.0137 1.9238,-0.7242 5.1391,-1.6734 7.1465,-2.1113 4.611,-1.0059 8.3906,-6.397 6.6563,-9.4961 -0.8476,-1.5145 -0.2475,-5.6428 1.8925,-13.0039 1.7245,-5.9314 3.1819,-12.3146 3.2383,-14.1856 0.056,-1.871 0.8057,-5.7218 1.666,-8.5566 0.6844,-2.255 1.0705,-3.5226 1.668,-3.5254 z m 198.8672,145.5059 c -2.197,0.045 -2.9707,0.5364 -2.9707,1.6523 0,1.081 -0.5901,2.1657 -1.3125,2.4102 -1.4897,0.5041 -4.0797,11.1226 -4.6602,19.1113 -1.26,17.3408 -2.4463,26.7173 -3.4277,27.0859 -0.6142,0.2307 -0.8147,1.2072 -0.4453,2.17 0.7622,1.9861 -2.7862,2.6462 -25.3125,4.7109 -7.9702,0.7305 -15.0155,1.0054 -15.6563,0.6094 -0.6407,-0.396 -2.169,-0.1576 -3.3964,0.5293 -1.2413,0.6947 -3.8784,0.7753 -5.9414,0.1836 -2.6253,-0.7529 -4.167,-0.5114 -5.2754,0.8242 -0.8614,1.0378 -2.7066,1.8867 -4.1016,1.8867 -1.5397,0 -3.0841,1.4401 -3.9297,3.6641 -1.2091,3.1801 -0.9892,3.9276 1.6699,5.666 1.6851,1.1015 3.9991,2.9039 5.1407,4.0039 1.1415,1.1 5.9542,5.2935 10.6953,9.3203 14.6679,12.458 23.9531,21.9057 23.9531,24.3711 0,1.2985 -1.5071,4.7493 -3.3496,7.668 -1.8426,2.9188 -3.0349,5.3066 -2.6485,5.3066 0.3865,0 -1.1296,3.6299 -3.3691,8.0664 -5.8508,11.5904 -9.3942,29.4407 -6.8047,34.2793 2.2998,4.2971 10.3571,3.2401 15.9805,-2.0977 2.4609,-2.3359 5.1657,-4.248 6.0117,-4.248 0.846,0 2.2421,-1.1257 3.1016,-2.502 1.3376,-2.1418 16.4729,-15.9588 29.2578,-26.7089 2.1009,-1.7665 6.4847,-4.3959 9.7402,-5.8418 5.9191,-2.6289 5.9186,-2.6285 8.9356,0.8789 1.6593,1.9291 3.6455,3.5078 4.414,3.5078 0.7685,0 1.3965,0.4999 1.3965,1.1113 0,0.6115 3.1684,3.2931 7.0391,5.959 3.8706,2.6658 8.237,5.9146 9.7031,7.2207 2.8829,2.5684 10.2314,6.3849 14.7148,7.6406 3.8464,1.0773 9.877,-3.8537 9.877,-8.0761 0,-1.8059 -0.8494,-4.6122 -1.8887,-6.2364 -1.0392,-1.6242 -4.0767,-8.9537 -6.748,-16.2871 -2.6714,-7.3333 -5.5173,-15.132 -6.3243,-17.332 -0.8069,-2.2 -1.9362,-4.537 -2.5097,-5.1914 -1.8147,-2.0705 15.253,-22.1426 18.8281,-22.1426 0.7205,0 1.3086,-0.5771 1.3086,-1.2832 0,-0.7061 3.0948,-4.2523 6.877,-7.8789 6.8766,-6.5938 6.876,-6.5938 4.6035,-11.3828 -2.0518,-4.3237 -2.8153,-4.8028 -7.875,-4.9453 -3.0823,-0.087 -6.2042,-0.01 -6.9375,0.1738 -7.2198,1.7971 -29.2146,0.036 -34.7227,-2.7793 -2.9055,-1.4851 -7.1302,-9.7036 -10.5742,-20.5703 -2.9971,-9.4565 -6.313,-15.3293 -8.6738,-15.3633 -1.1166,-0.016 -2.9293,-1.9646 -4.0293,-4.332 -1.7329,-3.7296 -2.7581,-4.3596 -7.668,-4.7149 -1.0723,-0.078 -1.963,-0.1127 -2.6953,-0.098 z m 5.9844,24.6738 c 0.3588,0 0.8214,1.5 1.748,4.5 1.0193,3.3 1.9014,6.6007 1.959,7.334 0.1565,1.9903 9.8412,18.8716 11.7148,20.4199 2.2149,1.8302 18.1015,5.8536 19.5586,4.9531 0.6454,-0.3989 2.7642,-0.1215 4.7071,0.6172 2.4383,0.927 4.3746,0.8924 6.2539,-0.1133 1.7254,-0.9234 3.1888,-0.9928 3.9941,-0.1875 1.264,1.264 -1.2797,3.7326 -11.2676,10.9317 -6.1008,4.3973 -10.4889,12.0202 -8.7285,15.166 0.8778,1.5687 0.8437,3.7147 -0.1055,6.4375 -1.109,3.1813 -0.9885,4.859 0.5508,7.5957 3.2014,5.6913 7.4464,16.5028 6.752,17.1973 -0.5593,0.5593 -3.0011,-1.4408 -12.6387,-10.3516 -4.3749,-4.045 -9.3134,-6.6379 -10.1289,-5.3184 -0.4482,0.7251 -2.1296,1.3364 -3.7363,1.3594 -3.759,0.054 -12.8304,4.546 -22.8047,11.293 -4.3357,2.9328 -10.7844,7.9646 -14.332,11.1816 -6.4263,5.8273 -7.5105,6.1965 -5.2735,1.7989 0.6478,-1.2734 1.9666,-4.1145 2.9317,-6.3145 0.965,-2.2 3.0488,-5.8 4.6289,-8 3.7823,-5.2663 4.7978,-12.3986 2.1992,-15.4336 -1.0984,-1.2828 -2.7711,-2.0355 -3.7188,-1.6719 -0.9476,0.3637 -2.5047,-0.5891 -3.4589,-2.1172 -0.9543,-1.528 -2.3398,-2.7858 -3.0801,-2.7968 -1.5609,-0.023 -22.7389,-21.0784 -21.9043,-21.7774 1.5994,-1.3395 26.0049,-3.3099 35.5058,-2.8672 16.04,0.7474 16.7098,-0.01 16.6114,-18.7363 -0.042,-8.0293 0.3798,-17.2996 0.9394,-20.5996 0.5088,-3 0.7642,-4.5 1.1231,-4.5 z" fill="#00B894" overflow="visible" style="isolation:auto;mix-blend-mode:normal;solid-color:#000;solid-opacity:1;marker:none" transform="translate(-87.336169,-16.092733) matrix(0.26458333,0,0,0.26458333,-920.86429,-626.33877)"/>
    </g>
</svg>