<?xml version="1.0" ?><svg height="169.51158mm" viewBox="0 0 84.719818 169.51158" width="84.719818mm" xmlns="http://www.w3.org/2000/svg">
    <path d="m 4827.3272,-1441.8924 c -17.3819,-26.6747 -82.4889,-163.7556 -77.1638,-271.9917 5.3252,-108.2361 113.1334,-176.5958 133.6301,-191.0634 20.4966,-14.4676 72.743,-50.275 72.743,-50.275 0,0 58.3752,101.0926 76.2596,126.1398 17.8843,25.0471 28.0322,88.5239 6.9326,142.6871 -21.0995,54.1633 -47.524,125.2356 -103.8898,171.8033 -56.3658,46.5678 -85.5032,80.2955 -108.5117,72.6999 z" fill="#FFFFFF" transform="translate(-215.41986,136.16055) matrix(0.23491529,-0.12173392,0.12173392,0.23491529,-684.76567,933.03247)"/>
    <path d="m 4788.0413,-1355.1105 c 0,-8.2275 12.7705,-47.7585 23.5025,-72.7536 l 5.8564,-13.6392 -9.3433,-17.5298 c -5.1387,-9.6412 -15.7603,-35.0494 -23.6036,-56.4622 -39.6012,-108.114 -45.0536,-130.2224 -45.0536,-182.6738 0,-32.5552 3.789,-51.3273 16.829,-83.3698 21.8783,-53.7614 70.2695,-109.3979 114.79,-131.9764 7.0815,-3.5915 27.3189,-15.9367 44.9718,-27.4336 23.506,-15.3087 32.5903,-22.8712 33.9418,-28.2561 9.9478,-13.6265 18.637,-12.4565 21.2313,1.0211 0,19.41 0.2602,20.0907 16.1434,42.2039 8.8792,12.3616 24.3357,35.7168 34.348,51.9004 54.8021,88.579 57.446,115.1734 21.9346,220.6381 -20.2338,60.0926 -39.005,89.2507 -88.7019,137.7846 -38.9364,38.0256 -67.4786,61.0339 -83.869,67.6081 -27.6356,11.0847 -31.0504,13.5356 -32.9516,23.6513 -2.2807,12.1353 -12.483,32.6608 -28.8784,58.0991 -13.3481,20.7101 -21.1474,24.8363 -21.1474,11.1879 z m 52.7267,-138.5151 c 11.205,-36.1323 28.9145,-95.5099 46.1562,-154.7557 19.7874,-67.992 54.7941,-227.677 60.2988,-275.0545 l 1.9834,-17.0697 -18.3496,14.4091 c -10.0925,7.9251 -31.0254,22.0445 -46.5184,31.3765 -59.1853,35.6496 -104.8096,95.7014 -118.1019,155.4474 -9.0135,40.5131 -2.4349,98.5051 17.5603,154.8012 4.1922,11.8028 15.2887,44.958 24.6593,73.678 9.3703,28.7203 18.0282,52.2185 19.2397,52.2185 1.2114,0 7.094,-15.7728 13.0722,-35.0508 z m 21.6236,27.9247 c 14.4741,-9.137 89.3317,-83.9206 107.0406,-106.9347 20.573,-26.7359 37.0691,-60.5277 51.3507,-105.1893 22.8537,-71.469 23.637,-93.6879 4.7143,-133.7377 -13.0247,-27.5667 -67.9739,-118.0625 -70.1866,-115.5904 -0.3735,0.4171 -3.5031,22.647 -6.955,49.4002 -7.7475,60.0475 -37.2682,208.3614 -50.6872,254.6542 -5.4739,18.8845 -14.279,49.7863 -19.5668,68.6709 -5.2879,18.8843 -14.1951,47.786 -19.7938,64.2255 -5.5988,16.4398 -10.1795,30.2812 -10.1795,30.759 0,2.0429 3.6536,0.4399 14.2633,-6.2577 z" fill="#00B894" transform="translate(-215.41986,136.16055) matrix(0.23491529,-0.12173392,0.12173392,0.23491529,-684.76567,933.03247)"/>
</svg>