<?xml version="1.0" ?><!-- Created with Inkscape (http://www.inkscape.org/) --><svg height="267.37097mm" id="svg63041" inkscape:version="1.2.1 (0b8a7e5fb6, 2022-09-14, custom)" sodipodi:docname="palm_tree.svg" version="1.1" viewBox="0 0 186.03377 267.37097" width="186.03377mm" xmlns="http://www.w3.org/2000/svg" xmlns:inkscape="http://www.inkscape.org/namespaces/inkscape" xmlns:sodipodi="http://sodipodi.sourceforge.net/DTD/sodipodi-0.dtd" xmlns:svg="http://www.w3.org/2000/svg">
  <sodipodi:namedview bordercolor="#666666" borderopacity="1.0" id="namedview63043" inkscape:current-layer="layer1" inkscape:cx="2421.0276" inkscape:cy="411.432" inkscape:deskcolor="#d1d1d1" inkscape:document-units="mm" inkscape:pagecheckerboard="0" inkscape:pageopacity="0.0" inkscape:showpageshadow="2" inkscape:window-height="1016" inkscape:window-maximized="1" inkscape:window-width="1866" inkscape:window-x="54" inkscape:window-y="27" inkscape:zoom="0.2102413" pagecolor="#ffffff" showgrid="false"/>
  <defs id="defs63038"/>
  <g id="layer1" inkscape:groupmode="layer" inkscape:label="Capa 1" transform="translate(566.20331,-39.984032)">
    <g id="g60116" transform="translate(-4438.9745,-3186.1222)">
      <path d="m 3874.7832,3263.4425 c 5.4665,-5.1327 17.9059,-15.3011 24.6205,-17.8774 6.7149,-2.576 20.424,-4.532 29.7858,-4.2804 9.362,0.2519 15.3233,1.2592 15.3233,1.2592 0,0 -14.1396,-1.569 -16.5931,-3.4671 -2.4535,-1.8982 0.7964,-6.5659 5.8754,-8.5998 5.0792,-2.0336 23.3725,1.1041 29.8288,4.9779 6.4564,3.8737 15.2588,16.6375 15.2588,16.6375 0,0 11.2985,-10.5558 24.0609,-13.616 12.7622,-3.0604 30.6036,0.9491 37.7487,2.576 7.145,1.6269 15.0865,8.3672 15.9258,9.1226 0.8392,0.7553 -1.7217,1.6076 -7.4248,5.2295 -5.7033,3.6218 -20.3594,7.8636 -22.361,7.7861 -2.0013,-0.077 -1.3126,0.4456 -6.564,2.1886 -5.2512,1.7431 -18.3147,-4.8421 -21.6289,-4.3386 -3.3144,0.5038 -8.5656,4.0868 -8.5656,4.0868 0,0 33.229,14.4102 42.5479,22.5258 9.3189,8.1153 16.4425,20.5113 17.8628,30.6991 1.4203,10.1877 0.6673,13.403 0.495,16.347 -0.1722,2.944 -3.7663,0.4262 -8.2211,-1.3364 -4.455,-1.7624 -7.9846,-2.3241 -12.7407,-6.4109 -4.7565,-4.0867 -28.2147,-25.799 -29.6352,-28.5107 -1.4203,-2.7114 -5.983,-3.6798 -7.9415,-5.0165 -1.9584,-1.3364 -4.9067,-1.2589 -4.9067,-1.2589 0,0 0.6456,-5.3456 -4.0463,-4.5902 -4.6916,0.7554 -7.3816,0.9297 -7.9629,5.2681 -0.581,4.3386 -3.0575,89.7014 -2.2614,102.8721 0.7964,13.1707 12.4722,80.6564 12.6014,86.1378 0.1291,5.4811 -7.2314,8.3089 -14.6561,8.2703 -7.425,-0.039 -19.3961,1.6081 -20.4507,-13.9835 -1.0544,-15.5916 -0.576,-44.6259 3.0612,-61.5926 3.6372,-16.9669 6.1799,-52.3608 6.5244,-60.4761 0.3442,-8.1156 2.6307,-52.1028 2.6307,-52.1028 0,0 -4.1105,3.2732 -5.2943,6.2368 -1.1837,2.9633 -1.9153,10.2459 -3.1422,14.2552 -1.2266,4.0092 -9.5985,19.078 -11.7075,20.8597 -2.1093,1.782 -9.7063,14.9334 -11.6433,12.609 -1.9367,-2.3241 -1.7002,-21.4214 0.1291,-27.174 1.8294,-5.7523 11.6219,-27.6971 13.946,-31.6482 2.3243,-3.9512 1.3128,-9.2194 1.3128,-9.2194 0,0 -16.7436,10.3233 -19.9718,13.2094 -3.2282,2.8858 -11.9015,11.9504 -16.1626,15.0492 -4.2614,3.0991 -9.5771,6.8178 -13.7522,9.239 -4.1752,2.4209 -15.8613,5.6361 -18.4224,5.7523 -2.5612,0.1161 -4.5019,-0.5477 -4.2434,-4.0727 0.2582,-3.5253 10.4201,-22.5978 18.6626,-32.3014 8.2428,-9.7036 20.1443,-16.56 25.4815,-20.0271 5.3374,-3.4669 10.6746,-6.5273 10.6746,-6.5273 0,0 -5.9184,-1.1621 -7.0159,-1.0263 -1.0975,0.1354 -5.6817,-0.4842 -10.9543,1.1231 -5.2729,1.6076 -5.3375,2.3051 -8.8884,2.5374 -3.5513,0.2326 -30.7687,-4.4209 -27.1997,-7.4012 z" fill="#00B894" id="path60112" style="fill:#ffffff;stroke-width:1.5;paint-order:markers stroke fill;stop-color:#000000"/>
      <path d="m 3874.9221,3319.8055 c 3.6143,-13.1213 4.5092,-14.9856 10.9587,-22.8308 6.759,-8.2214 13.6883,-14.1734 25.3284,-21.756 5.0619,-3.2973 9.1457,-6.4602 9.0755,-7.0286 -0.4323,-3.494 10.4161,-17.7088 13.0912,-17.1536 0.493,0.1027 -1.2899,3.7021 -3.9618,7.9997 -2.672,4.2974 -4.7599,7.9009 -4.6395,8.0079 0.1194,0.1074 1.7734,-0.5807 3.6732,-1.5275 2.0768,-1.035 4.434,-3.2004 5.9098,-5.4295 2.1042,-3.1778 5.8345,-6.6274 7.3732,-6.8177 0.9826,-0.1217 0.6189,1.8987 -0.8214,4.5625 l -1.5074,2.7883 2.7315,-0.9068 c 7.2023,-2.3909 13.6339,-3.2811 16.966,-2.3482 4.1719,1.1677 3.7332,2.378 -1.3255,3.6561 -12.7722,3.2263 -30.6672,10.7158 -38.8781,16.2715 -2.615,1.7694 -2.9361,2.4798 -3.5343,7.8166 -0.3622,3.2285 -0.8036,9.7067 -0.9809,14.3954 -0.5249,13.8601 -2.3391,20.3573 -5.0866,18.2149 -1.5452,-1.2048 0.6619,-26.1157 3.091,-34.8883 0.3889,-1.4039 -0.4829,-1.0202 -4.9286,2.1701 -6.8969,4.9489 -15.1301,12.9884 -19.7362,19.2715 -1.9828,2.704 -5.171,8.8312 -7.0852,13.6157 -7.0567,17.6385 -10.3478,18.7427 -5.713,1.9168 z m 4.0734,6.3134 c 2.0306,-5.3772 6.6141,-13.8774 8.6484,-16.0393 1.0987,-1.1678 1.4267,-1.2151 2.1536,-0.3106 1.622,2.0194 -0.7718,7.7418 -7.7633,18.5579 -4.8012,7.4275 -6.2742,6.3571 -3.039,-2.2082 z m 1.0691,-69.8143 c 3.763,-4.16 8.6764,-8.6962 10.9188,-10.0804 13.3825,-8.2618 34.275,-10.3166 59.3791,-5.8403 6.0711,1.0825 16.7254,6.0532 22.2864,10.3974 6.1129,4.7752 4.6357,1.9692 -3.1952,-6.0699 -11.2612,-11.5611 -18.8265,-14.7797 -31.0085,-13.1929 -4.0704,0.5303 -7.3503,0.6015 -7.405,0.1623 -0.2421,-1.9574 5.0883,-4.4125 11.2807,-5.1953 5.6254,-0.7113 7.0393,-0.5428 13.0431,1.5533 7.9301,2.7686 15.5034,8.6599 20.1809,15.6984 l 3.0297,4.5594 3.748,-3.6684 c 5.6531,-5.5334 10.6658,-7.4726 23.0395,-8.9134 17.5883,-2.048 34.8757,1.0326 44.6486,7.9561 2.5363,1.7968 4.9004,3.2309 5.254,3.1873 0.3533,-0.043 1.3924,0.8051 2.3091,1.8865 1.5193,1.7922 1.5642,2.0973 0.5089,3.4505 -1.0554,1.3538 -1.6734,1.1069 -6.9923,-2.7917 l -5.8348,-4.2767 3.6162,3.7456 c 3.6363,3.7663 4.4847,6.283 2.2124,6.5643 -0.6734,0.083 -4.1989,-2.9078 -7.8342,-6.6467 -3.6354,-3.7388 -7.1589,-7.0218 -7.8297,-7.2954 -2.8747,-1.1718 -16.2415,-2.0658 -24.0216,-1.6065 -14.1494,0.8352 -22.7463,4.7847 -29.8424,13.71 -4.3097,5.4204 -5.9173,5.7393 -11.2374,2.23 -8.7949,-5.8013 -16.3108,-8.9923 -23.9734,-10.1783 -16.4735,-2.5499 -33.4006,-1.8113 -44.3089,1.9335 -7.2883,2.5022 -9.5135,3.7468 -14.6819,8.2116 -4.6435,4.0121 -11.9017,9.0713 -13.2535,9.2386 -1.7801,0.2196 -0.6971,-1.3647 5.9634,-8.7277 z m 10.7918,58.8392 c 5.3463,-14.2755 7.5934,-17.6915 8.2336,-12.5177 0.3533,2.8564 -2.2456,11.9823 -4.8707,17.1028 -3.3866,6.6055 -8.5446,12.7282 -8.6639,10.2838 -0.024,-0.3478 2.3685,-7.0387 5.301,-14.8689 z m -3.251,-55.9092 c 7.3744,-6.3046 11.8101,-8.8333 12.0532,-6.8711 0.1718,1.391 -5.6068,7.5683 -9.4933,10.1476 -3.7207,2.4696 -10.6717,5.184 -10.7915,4.2143 -0.028,-0.2267 3.6761,-3.5965 8.2316,-7.4908 z m 10.3018,57.2579 c 1.5153,-9.1399 4.8856,-19.7875 6.5432,-20.6708 2.673,-1.4239 2.712,2.4437 0.1218,12.0742 -2.791,10.3766 -5.6202,17.7014 -6.899,17.8597 -1.1482,0.1408 -1.1165,-1.1176 0.234,-9.2631 z m -3.8142,-52.7607 c 6.8646,-10.6347 13.3446,-17.0751 13.7647,-13.6804 0.071,0.5829 -3.3254,5.4769 -7.5503,10.8758 -5.5147,7.0476 -7.9681,9.5925 -8.6986,9.0229 -0.7304,-0.5697 -0.028,-2.3235 2.4842,-6.2183 z m 7.0465,6.4962 c 1.5263,-6.1746 10.7241,-17.8273 16.952,-21.4766 3.2917,-1.9291 2.7663,-0.3552 -1.3738,4.1146 -2.0458,2.2085 -5.4302,6.9886 -7.5205,10.6224 -2.0904,3.6338 -4.5062,7.424 -5.3682,8.4223 -1.9314,2.2374 -3.4274,1.3016 -2.6895,-1.6827 z m 14.0414,-10.7111 c 4.5854,-5.7362 12.1781,-12.0801 13.3577,-11.1603 0.5857,0.4566 -15.6952,20.7571 -17.0267,21.2303 -0.7694,0.2733 -1.2678,-0.25 -1.4215,-1.4925 -0.1576,-1.2739 1.543,-4.1397 5.0905,-8.5775 z m 1.6621,39.6307 c 0.7885,-9.6207 1.6318,-13.3018 3.0884,-13.482 1.316,-0.1623 1.7598,6.6366 1.0523,16.1124 -0.661,8.8497 -2.1289,13.193 -3.7805,11.1864 -1.1756,-1.4285 -1.2238,-3.2784 -0.3602,-13.8168 z m 10.7851,41.1447 c 0.031,-11.3091 3.7272,-24.3551 9.9632,-35.1743 5.3958,-9.3614 6.3657,-11.9498 5.1326,-13.6976 -0.5982,-0.8474 -1.2051,-2.4917 -1.349,-3.6537 -0.377,-3.0461 1.7552,-11.2767 3.4212,-13.2068 1.9457,-2.2539 3.5567,-1.301 3.4309,2.0297 l -0.1026,2.7077 4.1963,-5.2314 c 6.4855,-8.0855 17.2944,-14.3847 23.3916,-13.6323 1.2071,0.1479 2.2581,0.7822 2.3355,1.4071 0.1456,1.1814 -1.3506,2.1336 -8.4663,5.385 -5.189,2.3714 -12.3668,8.4934 -14.9182,12.7242 -1.045,1.7333 -3.0936,6.5545 -4.5524,10.714 l -2.652,7.5625 2.9039,4.7903 c 3.4514,5.6939 6.0004,13.5077 5.7445,17.6097 -0.3738,5.99 -3.5071,4.7613 -5.3826,-2.1104 -1.8247,-6.685 -4.9432,-14.8358 -5.6433,-14.7491 -0.3701,0.046 -1.1645,1.0835 -1.7655,2.3059 -1.0332,2.1014 -0.9582,2.3764 1.373,5.0377 3.4062,3.8888 5.0859,8.2978 6.1575,16.1633 0.7161,5.2551 0.639,7.2733 -0.3557,9.2965 -1.7564,3.573 -2.3622,2.3947 -4.9439,-9.6136 -1.1828,-5.5017 -2.8315,-11.2164 -3.6634,-12.6988 -1.4392,-2.5637 -1.5481,-2.605 -2.2303,-0.8453 -0.5435,1.402 -0.3359,2.6094 0.857,4.985 2.24,4.4605 4.2616,20.9806 3.0834,25.1946 -0.8496,3.0385 -0.9694,3.1311 -2.2336,1.7304 -0.7348,-0.8143 -1.9383,-3.5043 -2.675,-5.9781 l -1.3392,-4.4974 0.4048,8.4756 c 0.4455,9.3218 0.1147,10.8756 -2.2803,10.6941 -1.4643,-0.1098 -1.6963,-0.9183 -2.5556,-8.889 -0.9052,-8.3978 -0.9773,-8.6258 -1.7125,-5.4142 -0.466,2.0362 -0.3746,5.9115 0.2339,9.8687 1.051,6.8464 0.8269,8.0617 -1.3855,7.5125 -1.5441,-0.3831 -2.4505,-6.671 -2.4219,-16.8025 z m 10.5001,-6.037 c 0.6142,-0.8341 -0.5648,-13.436 -1.2489,-13.3512 -0.3996,0.05 -0.3464,3.1612 0.1194,6.9151 0.4644,3.7538 0.9732,6.65 1.1307,6.4361 z m -13.474,-41.3292 c 0.4386,-7.5995 0.7964,-9.6404 1.7097,-9.7536 1.2876,-0.1599 2.53,5.9672 2.4193,11.9295 -0.1098,5.8613 -1.3585,9.0204 -3.2285,8.1617 -1.2052,-0.5535 -1.3616,-2.3477 -0.9005,-10.3376 z m 21.9076,157.0301 c 0.3914,-11.7227 2.6241,-27.7303 6.3254,-45.3457 2.7291,-12.9893 3.5683,-19.0645 3.5763,-25.8839 0,-4.9009 0.3456,-14.2982 0.7555,-20.8826 0.4101,-6.5845 1.0582,-18.6729 1.4406,-26.8636 0.3822,-8.1905 1.0897,-17.986 1.5721,-21.7676 0.5862,-4.5973 0.5505,-8.7964 -0.1074,-12.6721 -1.1728,-6.8999 -0.058,-8.2679 2.6831,-3.2939 2.162,3.9226 3.0651,9.5242 1.9863,12.32 -0.9379,2.4305 -0.6899,2.6086 3.292,2.3641 l 3.2393,-0.1981 1.4987,-9.5045 c 1.4833,-9.4082 1.4797,-9.5281 -0.3517,-11.8358 -1.9975,-2.5179 -3.2293,-8.9296 -1.9173,-9.9834 0.443,-0.3559 1.3382,-0.3057 1.9892,0.1098 0.8887,0.5692 2.0703,-0.2988 4.7407,-3.4834 1.9565,-2.3329 4.0695,-4.3049 4.6957,-4.3825 1.8129,-0.2243 8.4636,5.5832 9.3861,8.1959 0.462,1.3091 0.6893,3.1894 0.5048,4.1786 -0.1838,0.9889 0.1934,2.2944 0.8369,2.9008 1.5361,1.4453 3.4384,7.4773 3.1514,9.9937 -0.1623,1.4227 -0.7371,1.9732 -2.0359,1.9491 -1.5326,-0.028 -1.961,-0.7299 -2.7965,-4.5784 -1.0772,-4.9623 -2.7912,-5.4135 -2.1928,-0.5772 0.2929,2.3679 0.043,2.9645 -1.3095,3.1319 -1.1606,0.1432 -1.8252,-0.4226 -2.1747,-1.8522 -0.449,-1.8383 -0.9035,-2.0183 -4.238,-1.6783 -2.0543,0.21 -3.7048,0.627 -3.6675,0.9278 0.038,0.3008 -0.4068,8.9835 -0.9866,19.2953 -1.0716,19.0567 -1.6386,52.7142 -1.2926,76.7565 0.2386,16.596 5.295,59.3949 8.7613,74.1576 1.2778,5.4423 2.7984,13.136 3.3792,17.0971 0.8884,6.0612 0.8376,7.5131 -0.3211,9.1652 -1.8183,2.5921 -6.4313,4.3877 -13.8243,5.3805 -5.112,0.6861 -6.8997,0.5166 -11.6963,-1.1103 -3.114,-1.0564 -6.3623,-2.042 -7.2184,-2.1904 -3.1755,-0.5497 -4.6121,-4.9679 -6.3098,-19.4062 -0.881,-7.4898 -1.4988,-16.6854 -1.3735,-20.4343 z m 11.8782,23.7159 c 3.2529,0.4257 9.0211,0.3352 13.7408,-0.2147 l 8.1347,-0.9487 -0.6464,-2.2534 c -0.3555,-1.2394 -1.0124,-3.5448 -1.4597,-5.1227 l -0.8135,-2.8693 -6.8617,1.1325 c -3.774,0.6227 -9.425,1.1033 -12.558,1.0677 -6.3139,-0.071 -6.5521,0.1838 -5.5663,5.983 0.3991,2.348 0.75,2.5358 6.0301,3.2264 z m -2.9373,10.0645 c 3.4113,4.2471 13.1614,5.022 22.2205,1.7658 4.1879,-1.5053 5.4759,-3.1641 4.59,-5.9107 -0.5889,-1.8254 -1.0383,-1.8961 -8.7496,-1.3747 -7.1405,0.4827 -12.7673,-0.1098 -19.2666,-2.0255 -1.2884,-0.38 -1.4862,0 -1.2063,2.2525 0.1839,1.4886 1.2695,3.8704 2.412,5.2926 z m 0.4408,-21.6667 c 4.9934,-0.4645 20.5775,-2.7792 20.8501,-3.0969 0.1122,-0.1313 -0.083,-0.7735 -0.433,-1.4302 -0.4612,-0.8653 -2.5528,-1.1047 -7.6055,-0.87 -3.8332,0.1789 -8.896,0 -11.2506,-0.4175 -5.3705,-0.9296 -5.3734,-0.9293 -5.6159,0.8906 -0.6276,4.709 -0.1289,5.3132 4.0549,4.924 z m 5.0812,-9.5929 c 9.2504,0.2399 13.1564,-0.117 13.6762,-1.2487 0.2028,-0.4438 -0.1528,-3.0725 -0.7938,-5.8415 l -1.1641,-5.0346 -3.0212,0.3249 c -2.5057,0.2695 -7.342,-0.1981 -15.4988,-1.4989 -0.9131,-0.1456 -1.4285,1.411 -1.929,5.8258 -0.3758,3.3132 -0.3583,6.3038 0.038,6.6451 0.3969,0.3417 4.3084,0.714 8.6922,0.8276 z m 1.6793,-16.3774 c 4.9306,0.2291 9.1691,0.1576 9.4183,-0.1623 0.2494,-0.3199 0.16,-1.1343 -0.2005,-1.8099 -0.466,-0.8749 -1.8273,-1.0835 -4.7264,-0.7247 -2.2399,0.2771 -5.9876,0.1718 -8.3289,-0.234 -5.4088,-0.9362 -5.5509,-0.9107 -5.3198,0.9563 0.1647,1.3231 1.5334,1.6187 9.1576,1.9743 z m -1.5009,-5.391 c 8.8716,0.1814 10.5707,-0.1408 10.3453,-1.9617 -0.1551,-1.2528 -1.4568,-1.6598 -6.8409,-2.1396 -3.6571,-0.3258 -7.4914,-0.7104 -8.5207,-0.8545 -1.4816,-0.2077 -1.8877,0.1551 -1.949,1.7423 -0.043,1.1026 0.1718,2.2493 0.4757,2.5485 0.3041,0.2991 3.2247,0.5984 6.4896,0.665 z m -1.2201,-7.9949 c 2.4492,0 5.8637,-0.1862 7.5879,-0.3964 3.1055,-0.376 3.1308,-0.4123 2.7179,-3.7499 -0.2462,-1.9902 -0.8584,-3.4298 -1.4958,-3.5174 -12.1075,-1.6641 -12.0388,-1.6767 -12.7494,2.3369 -0.9272,5.2357 -0.8472,5.3438 3.9394,5.3268 z m 1.0305,-10.9438 c 1.6518,0.3755 4.229,0.5602 5.7274,0.4103 2.679,-0.2678 2.716,-0.336 2.2584,-4.0331 -0.256,-2.0685 -0.4051,-4.046 -0.3314,-4.394 0.16,-0.7545 -9.0967,-1.7521 -9.6531,-1.0406 -0.572,0.7315 -1.5722,6.7407 -1.2676,7.6168 0.1456,0.4168 1.6146,1.0649 3.2663,1.4406 z m 3.0228,-11.9185 4.48,-0.5542 -0.024,-4.453 c -0.033,-9.2438 -0.2338,-9.7214 -4.1738,-9.8957 -4.0721,-0.1813 -4.8202,0.7067 -4.4106,5.2304 0.1456,1.6153 0.081,3.9143 -0.1456,5.1091 -0.9059,4.7933 -0.5623,5.1609 4.2651,4.5634 z m 0.5655,-19.5864 c 2.6289,-0.3251 3.293,-0.7576 3.4956,-2.2767 0.3315,-2.485 -0.117,-2.9147 -3.2894,-3.1507 -3.4433,-0.2562 -4.1287,0.3589 -3.7558,3.3713 0.2843,2.2982 0.5151,2.4319 3.5496,2.0561 z m 0.105,-9.3468 3.6527,-0.4521 -0.055,-5.1736 c -0.028,-2.8457 -0.2076,-5.2938 -0.3962,-5.4407 -0.1886,-0.1456 -1.6316,-0.2148 -3.2076,-0.1503 l -2.8655,0.1169 -0.3616,5.1359 c -0.1981,2.8248 -0.375,5.4241 -0.3912,5.776 -0.024,0.3521 1.6141,0.4369 3.6233,0.1886 z m 0.5426,-13.6437 c 2.6222,-0.3244 3.3064,-0.7293 3.1734,-1.8777 -0.093,-0.8052 -0.052,-2.3088 0.093,-3.3415 0.2077,-1.484 -0.3316,-2.097 -2.5738,-2.9258 -3.2722,-1.2097 -3.494,-1.0527 -3.9143,2.7731 -0.6054,5.5097 -0.4177,5.8223 3.2218,5.3719 z m -0.4683,-12.3563 c 3.0368,0.4239 4.0465,0.1313 3.8907,-1.1288 -0.1576,-1.2779 -2.0257,-1.9613 -4.5167,-1.6531 -2.2307,0.2759 -1.7413,2.4513 0.626,2.7819 z m 0.9168,-5.0809 c 3.1307,0.2924 3.0147,0.4178 3.2324,-3.4961 0.1671,-2.9958 0.077,-3.1069 -2.6146,-3.1816 -3.6432,-0.1026 -4.0166,0.2741 -3.6023,3.6222 0.3041,2.4566 0.6788,2.8404 2.9845,3.0555 z m 0.4602,-10.8446 c 2.9001,-0.1098 3.0049,-0.2291 3.4716,-3.9871 0.6839,-5.5068 0.3218,-7.3435 -1.4084,-7.1432 -0.8054,0.091 -2.2895,0.055 -3.2982,-0.089 -1.6548,-0.2316 -1.856,0.2291 -2.0587,4.7212 -0.1241,2.7377 -0.105,5.3451 0.039,5.7937 0.1455,0.4487 1.6095,0.7647 3.2545,0.7024 z m 0.9005,-13.6692 c 3.4505,0.4927 4.0437,0.1074 3.7303,-2.4269 -0.1671,-1.3399 -0.8775,-2.0837 -2.1928,-2.2916 -1.0711,-0.1696 -2.6282,-0.4099 -3.4603,-0.5347 -1.2017,-0.1791 -1.4485,0.296 -1.1988,2.3128 0.2669,2.157 0.7374,2.6 3.1216,2.9404 z m 10.4333,-30.7851 c 1.4198,2.0118 5.243,1.4809 7.7831,-1.0806 1.5874,-1.6008 1.8996,-2.7163 1.5506,-5.5376 -0.799,-6.4557 -4.7677,-6.9533 -8.4037,-1.0539 -2.4545,3.9824 -2.6127,5.2874 -0.93,7.6721 z m -44.4121,4.509 c 0.2623,-6.6958 3.5631,-12.6955 5.2465,-9.536 0.8916,1.6738 -0.6932,16.8378 -1.8576,17.7731 -2.0364,1.6358 -3.6245,-2.224 -3.3889,-8.2371 z m 21.1896,9.2237 c 1.3722,-1.4583 3.1539,1.6767 3.9259,6.9072 0.6364,4.313 -0.2533,7.385 -1.7916,6.1855 -1.309,-1.021 -3.1084,-12.0574 -2.1343,-13.0927 z m 10.8489,-14.8031 c 2.9252,-0.3618 6.2036,9.8606 3.9356,12.2708 -1.7442,1.8539 -2.6004,0.531 -3.9577,-6.1162 -1.0168,-4.9792 -1.0131,-6.0264 0.024,-6.1546 z m 18.1947,-17.7903 c 1.7848,-2.2889 12.9788,-1.2355 23.2918,2.1919 7.3787,2.452 9.3793,3.6295 19.8021,11.6543 12.7739,9.8343 16.9154,14.2466 22.2723,23.7269 3.3209,5.8778 3.6489,6.9617 4.4546,14.7223 0.9352,9.0081 -0.039,19.1097 -1.9284,20.0077 -0.923,0.4386 -1.2245,-1.0957 -1.7778,-9.0448 -0.5283,-7.5884 -0.7971,-9.0293 -1.2963,-6.9494 -0.8324,3.4675 -4.2795,11.8584 -5.1635,12.5685 -1.2284,0.9866 -1.1904,-3.1094 0.091,-9.9212 1.3634,-7.2443 1.3728,-20.223 0.024,-19.1311 -0.4408,0.354 -0.8842,1.9679 -0.9851,3.5861 -0.2998,4.8036 -4.2624,14.7754 -7.4592,18.7711 -3.8118,4.7645 -4.1456,3.0992 -1.0911,-5.4425 2.357,-6.5925 5.4366,-20.7925 5.0995,-23.516 -0.3951,-3.192 -1.4905,-1.275 -3.3983,5.9473 -2.3035,8.7205 -6.6855,19.9847 -7.8291,20.1262 -1.1113,0.1385 -1.1289,-0.7535 -0.1027,-5.1838 3.4271,-14.8064 5.6508,-25.651 5.5034,-26.8409 -0.095,-0.7687 -1.435,-2.3389 -2.9773,-3.4892 l -2.8047,-2.0919 0.3929,3.2921 c 0.969,8.1247 -2.609,24.4352 -6.1969,28.2486 -2.3006,2.4451 -2.4047,0.2974 -0.3969,-8.1828 1.1097,-4.687 2.1975,-11.7344 2.4171,-15.6609 0.2196,-3.9266 0.7274,-7.6516 1.1284,-8.2777 0.5364,-0.8376 -1.0639,-2.4927 -6.0549,-6.2621 -7.694,-5.8114 -19.7902,-10.7429 -29.1917,-11.9016 -5.2607,-0.648 -6.9404,-1.5 -5.8123,-2.9471 z m 6.0998,-8.604 c 1.2529,-1.5258 3.0224,-4.4891 3.9327,-6.5853 0.9099,-2.0961 2.0067,-3.8544 2.4372,-3.9078 1.4212,-0.1767 2.0817,2.2777 1.3379,4.9701 -0.8068,2.9197 -6.781,10.1287 -8.5785,10.3511 -1.9128,0.2364 -1.5255,-1.9101 0.8707,-4.8281 z m 6.6645,21.3948 c 0.1933,-2.6296 1.5902,-1.5653 3.4085,2.5979 2.4107,5.5198 4.0795,18.4894 2.4878,19.3375 -0.6247,0.3328 -1.5719,0.1958 -2.1047,-0.3064 -0.9074,-0.8537 -4.0158,-18.5853 -3.7916,-21.629 z m 1.7738,-21.1129 c 0.676,-1.717 1.4404,-5.1528 1.6981,-7.6349 0.3037,-2.922 0.9015,-4.5662 1.6961,-4.6646 2.0796,-0.2573 1.777,7.6041 -0.481,12.496 -2.7645,5.9892 -5.2819,5.8195 -2.9132,-0.1958 z m 7.4236,41.9327 c 0.1074,-3.7471 -0.1838,-10.1068 -0.6469,-14.1331 -0.4634,-4.0262 -0.4953,-7.3634 -0.071,-7.4159 1.0859,-0.1337 2.9677,4.2504 4.3419,10.1167 1.9923,8.5052 0.6698,22.6807 -2.0013,21.454 -1.405,-0.6451 -1.8182,-3.1975 -1.6225,-10.0217 z m 0.098,-47.7423 c 0.3201,-2.9565 0.9252,-5.4181 1.3451,-5.4699 0.8716,-0.1074 1.7741,6.8472 1.6244,12.5158 -0.071,2.6718 -0.5297,3.9588 -1.5285,4.2819 -1.1711,0.3791 -1.4813,-0.1145 -1.7253,-2.7451 -0.1623,-1.764 -0.036,-5.6264 0.2843,-8.5827 z m 7.9146,50.9932 c 0.6424,-3.8129 1.1454,-9.127 1.1177,-11.8091 -0.052,-5.0222 1.1252,-8.5229 2.5024,-7.442 0.4298,0.3372 1.1254,3.687 1.5456,7.4441 0.6118,5.4686 0.4158,8.2887 -0.9833,14.1433 -0.961,4.0219 -2.1156,7.8876 -2.5659,8.5907 -2.5468,3.9766 -3.2858,-1.0196 -1.6165,-10.927 z m -1.1524,-58.8306 c 1.3933,-0.1718 5.1725,6.1124 7.6456,12.7144 3.3085,8.8322 3.6371,11.3456 1.5179,11.6077 -1.3408,0.1671 -1.9782,-0.8697 -3.7611,-6.1107 -1.1807,-3.4709 -2.9987,-8.6872 -4.0402,-11.5917 -2.1959,-6.1248 -2.2744,-6.5068 -1.3622,-6.6197 z m 6.313,1.08 c 1.8152,0.3578 5.4871,4.8784 7.0189,8.6414 2.1058,5.1734 2.7628,10.7732 1.2853,10.9561 -0.854,0.105 -2.2297,-2.3239 -4.4906,-7.9296 -1.7924,-4.4454 -3.6581,-8.9431 -4.1461,-9.9953 -0.676,-1.4588 -0.5972,-1.856 0.3325,-1.6726 z m 10.4018,3.2638 c 3.6019,2.9784 8.5709,11.0754 8.3957,13.6809 -0.05,0.7512 -0.6508,1.4349 -1.3342,1.5194 -0.7978,0.098 -2.3465,-2.077 -4.3305,-6.0847 -1.6985,-3.431 -3.761,-6.9836 -4.5832,-7.8948 -3.0471,-3.3768 -1.7718,-4.2173 1.8522,-1.2208 z m 2.7564,-3.0776 c 1.7549,-0.9351 5.5498,1.3926 9.3538,5.7373 3.86,4.4087 5.1753,7.3671 3.7754,8.4913 -1.6809,1.3502 -3.3133,0.3699 -5.977,-3.5901 -1.4022,-2.0846 -3.8375,-4.936 -5.4118,-6.337 -3.2836,-2.9215 -3.4691,-3.3804 -1.7404,-4.3015 z" fill="#00B894" id="path1046-3" sodipodi:nodetypes="ssssssssssscsssssssssssscscsccssssscscsscssssssscssssssssssssssssssssssssssssssssssssssssssssssssssssssscsssssscssssssssssssssscssssssssssssssssssssssssssscssssssssssssssscsssssscssssssscsscsssssssssssssssssssssscsssssssssssssscssssssscssssscsssssscssssssssssscssscsssscsssssssssssssssccsssssssssssssssssssssssssssssssssssssssssssssscsscssssssssssssssssssssssssssssssssssssssssssssssssssssssssssssssss" style="fill:#000000;stroke-width:0.842111"/>
    </g>
  </g>
</svg>