<?xml version="1.0" ?><svg height="147.68501mm" viewBox="0 0 54.065632 147.68501" width="54.065632mm" xmlns="http://www.w3.org/2000/svg">
    <path color="#000" d="m 1235.2064,1013.8525 c -10.0957,-79.88184 -14.0763,-151.96719 -9.4424,-213.06938 0,0 -87.9536,-38.23186 -52.7399,-131.30301 35.2137,-93.07115 39.0266,-107.48019 57.3003,-66.05242 33.9365,-55.06733 39.1974,-13.64135 39.1974,-13.64135 21.9448,-20.32781 26.3167,-6.09669 32.2427,5.07803 0,0 17.2729,-35.13164 29.1335,11.19234 11.8607,46.32398 58.3582,181.79617 -77.8572,196.77765 -12.1196,16.32306 -1.2073,90.25573 0.014,151.32561 35.0242,-64.50323 64.0605,-107.97729 85.8299,-112.56703 -26.9083,102.34997 -14.1456,176.09066 -43.3386,219.51626 -35.6774,53.0713 -29.0184,58.9673 -59.4186,59.0709 -30.4003,0.1036 -45.5486,-12.9285 -55.2731,-122.9088 -2.8963,-32.75608 -11.5153,-71.19588 -11.5153,-71.19588 4.211,-33.21622 25.1929,70.9766 65.8672,87.77708 z" fill="#FFFFFF" overflow="visible" paint-order="fill markers stroke" transform="translate(99.581649,-13.34921) matrix(0.26458333,0,0,0.26458333,-405.87849,-136.8588)"/>
    <path d="m 1207.6194,1113.643 c -25.3541,-20.0906 -30.2566,-82.1961 -33.9287,-115.25479 -2.425,-27.13973 -11.1071,-48.65593 -13.3554,-73.92124 -0.7551,-8.86776 -0.5912,-9.92484 1.8974,-12.24333 3.3355,-3.10759 9.5726,-4.49886 12.6895,-2.83084 19.7996,18.62164 22.3993,50.51668 35.5381,69.93008 5.7992,8.93533 20.5978,25.76942 17.2402,16.77303 -0.4744,-1.2225 -1.0956,-5.0808 -1.3806,-8.5739 -0.2847,-3.49313 -1.384,-14.92503 -2.4426,-25.40433 -3.7253,-36.87781 -8.0783,-109.91618 -8.2159,-137.85358 0.4719,-13.49209 3.3785,-15.81715 -10.3613,-27.18788 -9.631,-5.52373 -27.8785,-25.47232 -32.6144,-32.35321 -12.3962,-18.01076 -16.909,-37.53653 -14.3293,-61.99853 4.9127,-42.73393 19.406,-84.16583 41.4753,-119.06121 13.4228,-16.56614 24.3448,-10.3721 31.5456,4.981 0.3265,0.75079 1.2695,0.4467 2.2328,-0.72031 10.8129,-13.09873 19.6488,-20.20864 25.1147,-20.20864 4.5362,0 12.2297,4.9123 14.8629,10.54403 3.9364,-2.19574 10.6352,-9.92205 19.5249,-4.51054 3.6755,2.23738 5.7214,9.47491 8.6717,5.77657 2.5193,-3.17084 9.2838,-14.04469 18.2133,-4.96639 23.3492,24.00672 33.5574,89.23256 34.3792,126.5291 0.3281,24.34018 -6.2427,55.09126 -20.4919,73.67255 -24.2553,25.76884 -54.1727,35.19524 -78.7714,39.88789 l -0.8186,7.68319 c -1.0002,9.38639 -1.0575,32.48141 -0.1233,49.60048 0.3814,6.98616 0.9957,18.98971 1.3653,26.67455 0.3696,7.68485 1.039,18.831 1.4876,24.76923 l 0.8158,10.79681 2.2422,-6.50992 c 5.4286,-15.76152 18.5781,-36.61483 39.5473,-62.71683 7.8242,-9.73955 47.0396,-48.27272 51.5507,-51.27913 10.919,-7.27702 13.7882,6.19583 7.6257,13.21015 -17.9584,30.13071 -27.0749,75.00203 -30.7839,103.48508 -7.5347,60.50667 -10.2056,79.37366 -13.1266,92.72596 -3.538,25.8949 -19.81,49.3228 -30.1183,69.8265 -1.3613,4.6442 -6.8696,8.4164 -6.948,13.0824 -11.8889,28.408 -51.9766,22.0941 -70.21,7.646 z m 49.979,-3.5578 c 7.3949,-3.7277 8.7766,-4.9202 8.0115,-6.9138 -0.481,-1.2537 -1.8709,-1.3829 -5.6777,-0.5275 -8.3141,1.8681 -9.4566,-0.2121 -11.2534,-20.4907 -0.8356,-9.4314 -2.5859,-20.6675 -3.8895,-24.9692 -6.2599,-18.8797 -16.9602,-33.5886 -29.3703,-46.163 -17.7587,-17.89849 -25.6201,-30.02942 -31.6905,-48.90182 -3.4511,-10.7289 -4.6943,-9.1955 -1.7036,2.1014 1.8442,6.9659 5.479,28.40943 5.7799,34.09833 0.2211,4.18009 5.0593,36.52099 6.1757,41.28199 0.6553,2.7944 2.7153,12.5116 4.5777,21.5937 5.002,24.3927 6.752,28.1533 18.6678,40.1164 11.2565,11.8648 26.0496,15.6509 40.3724,8.7742 z m 10.634,-22.7365 c 0.9181,-1.4855 -0.4889,-5.1955 -1.9704,-5.1955 -0.6238,0 -1.1342,1.429 -1.1342,3.1755 0,3.139 1.721,4.2588 3.1046,2.02 z m -3.1326,-37.4548 c -0.7898,-4.9626 -1.652,-10.7376 -1.916,-12.8335 -1.5258,-12.1139 -2.4177,-15.6207 -5.87,-23.0794 -9.9097,-21.41009 -13.9963,-44.74722 -16.9777,-96.95614 -0.7772,-30.91881 -6.6307,-63.67518 -2.7117,-94.94102 0.9371,-6.90372 0.797,-8.03844 -1.0809,-8.75903 -1.242,-0.47662 -2.6801,-0.0762 -3.3895,0.94504 -1.0938,1.5738 -0.6369,28.13752 0.9262,53.8517 3.5927,59.09985 6.7196,97.75393 9.402,116.22483 0.6596,4.54113 1.5722,14.25833 2.0282,21.59382 0.7777,12.5112 1.0962,13.7111 5.1423,19.3737 7.0391,11.0565 11.6108,24.7081 13.3937,36.6649 l 1.7164,11.9179 0.3866,-7.4899 c 0.2125,-4.1195 -0.2598,-11.5503 -1.0496,-16.5129 z m 24.4013,2.5306 c 17.1878,-36.6938 12.476,-71.57762 20.0738,-107.4548 4.9972,-23.59665 5.8938,-60.82037 16.2503,-82.14829 0.6388,-4.52749 7.2781,-14.73645 -0.585,-5.91918 -15.0033,18.48327 -32.0269,37.96456 -43.196,58.59685 -7.4811,14.04796 -9.0827,20.286 -12.6217,49.1589 -0.2281,5.9742 -2.0696,11.4377 -4.5616,16.7128 -0.991,2.0783 -0.7698,3.7663 0.9158,6.98633 9.0911,20.94729 15.564,45.65099 15.8085,68.86469 0.046,7.3122 0.3426,8.4912 1.824,7.2618 3.1231,-3.5532 3.8803,-7.8723 6.0919,-12.0591 z m -24.2486,-257.19333 c 1.8151,-1.8274 4.0474,-4.7516 4.9607,-6.49811 9.3743,-16.56728 27.1379,-35.90126 30.9862,-52.26879 1.1238,-6.26205 4.0073,-8.66371 6.48,-5.39703 3.4117,4.50734 1.3635,16.03198 -4.6713,26.28378 -6.4323,10.88958 -13.3371,22.8345 -20.9293,31.59963 -1.959,2.16454 -1.9536,2.32278 0.079,2.32278 1.1992,0 10.2673,-3.05436 15.3352,-5.52557 37.147,-18.11364 51.5188,-74.87752 35.6594,-145.01331 -4.8993,-21.66631 -14.4029,-58.0823 -19.6616,-50.5438 -19.7106,29.12643 -52.1246,76.61126 -58.0436,92.54036 1.9668,10.34011 1.554,11.27546 2.6152,15.81652 4.1151,17.61138 -2.7469,25.26013 -11.1158,12.39023 -3.7632,-5.78714 -11.7702,-34.80015 -15.6577,-51.49099 -3.7273,-15.8197 -7.4925,-30.99929 -11.074,-46.68378 -3.9078,-17.16822 -5.9473,-17.10446 -6.9335,-17.09265 -5.7966,-4.28262 -22.2411,30.90315 -26.6725,46.48181 -6.558,23.05539 -14.0912,49.53637 -14.4571,71.81752 3.0623,28.04736 6.4874,37.93378 21.173,53.40785 3.105,3.28935 9.4146,10.73193 7.8187,2.93723 -0.3816,-1.39718 -2.1928,-7.68475 -4.0246,-13.97232 -3.7356,-12.82208 -5.8021,-36.4506 -3.3221,-37.98334 3.8392,-2.3728 10.5259,7.64255 8.5465,12.80084 0.5021,10.95947 8.5719,57.53646 22.8007,58.84321 1.4366,0 1.3889,-0.84901 -0.2677,-4.76331 -5.5644,-13.1476 -7.3333,-30.22037 -3.464,-33.4316 3.3144,-2.75062 6.1436,0.16005 7.0043,7.20594 1.1867,9.71402 7.192,28.76727 11.6633,37.00437 l 2.231,4.10998 9.8209,-0.78738 c 8.323,-0.66734 10.3243,-1.29419 13.1213,-4.11007 z m -11.4247,-137.18709 c 4.7286,-11.43101 12.0774,-18.84262 15.7897,-28.01719 -4.558,-15.3531 -4.6865,-35.2358 -12.4569,-47.50748 l -9.6714,10.20978 c -5.3191,5.61537 -10.3433,10.42975 -11.1648,10.6985 1.5397,6.28089 8.5192,47.8068 11.8436,57.10611 2.8022,5.62137 2.2477,3.17401 5.6598,-2.48972 z m 34.0524,-56.7173 c 2.7344,-5.47476 2.7726,-5.92852 0.7594,-9.00095 l -2.12,-3.23543 -2.8377,5.30557 c -2.9509,5.51715 -3.0736,12.69604 -0.2171,12.69604 0.8449,0 2.8319,-2.59439 4.4154,-5.76523 z" fill="#00B894" transform="translate(99.581649,-13.34921) matrix(0.26458333,0,0,0.26458333,-405.87849,-136.8588)"/>
</svg>