<?xml version="1.0" ?><svg height="176.79546mm" viewBox="0 0 179.05829 176.79546" width="179.05829mm" xmlns="http://www.w3.org/2000/svg">
    <path color="#000" d="m 6016.412,2064.9369 c -16.7199,-0.4203 -38.7714,13.2307 -58.3692,20.4063 -62.2648,-6.3669 -107.9717,-0.5742 -76.2246,62.1094 -20.7593,7.701 -40.3655,15.7623 -21.25,35.875 -36.541,0.6674 -67.75,6.0148 -79.668,28.2949 l -2.3515,27.9453 c -104.8892,-3.5811 -34.9309,24.0509 -9.7481,58.2773 -28.1438,19.229 -17.9462,51.2262 -13.7988,83.4571 28.3088,23.1409 -0.01,30.2293 -12.9805,41.666 l 3.6114,16.1543 c -63.8609,-7.5655 -75.6874,92.1635 0.2109,79.9101 l 36.1641,-3.9746 c 7.396,23.4315 12.1516,39.9619 49.5332,25.7871 l 109.8164,25.2246 c 36.2301,-1.6987 33.9881,-13.3501 48.4785,-20.6738 l -14.1836,110.4473 c -33.0039,45.7658 -30.305,58.0721 -24.1107,58.9095 56.6897,7.6636 105.8149,1.1482 127.4835,-0.1331 l -46.8552,-52.7801 23.6679,-134.3965 c 8.743,26.19 39.2434,24.8592 70.1504,23.0156 21.1841,-0.5214 41.5914,-1.9211 26.2246,-43.6953 23.3044,13.2487 38.6375,-2.1931 53.5293,-19.2285 34.4634,20.996 88.2785,-3.5345 53.877,-36.1797 131.2605,-18.8437 98.1342,-48.9936 37.2168,-81.0527 4.0084,-19.6658 31.6979,-46.4604 -40.875,-43.0664 41.987,-88.4864 -16.8661,-77.7347 -52.4961,-89.8379 42.8451,-57.6662 9.3204,-69.5826 -53.6367,-63.8614 1.7254,-14.1357 20.6747,-34.6456 -43.086,-24.5293 -20.4409,-12.5263 -9.4934,-44.8053 -63.8691,-35.9785 -1.1039,-36.3957 -11.7081,-47.721 -26.4609,-48.0918 z" fill="#FFFFFF" overflow="visible" paint-order="fill markers stroke" transform="translate(143.95058,166.71155) matrix(0.26458333,0,0,0.26458333,-1646.9846,-711.00198)"/>
    <path d="m 6023.1944,2723.6857 c -107.1182,3.3669 -80.4864,-12.5227 -80.377,-17.3938 l 13.3358,-29.9573 c 8.7451,-19.6452 12.8761,-31.4056 12.0004,-34.1646 -0.8058,-2.5388 0.4084,-7.1624 3.0617,-11.6595 5.3493,-9.0664 8.1791,-27.4234 9.4852,-61.5317 0.9723,-25.3914 0.906,-25.859 -4.6953,-33.1406 -3.1247,-4.0622 -8.7329,-8.8611 -12.4623,-10.6643 -3.7297,-1.8032 -8.1919,-6.0065 -9.9161,-9.3409 -4.6465,-8.9853 -19.5759,-20.2096 -35.1421,-26.4207 -14.5718,-5.8143 -18.4309,-9.3708 -16.2724,-14.9962 1.9592,-5.1049 6.0083,-4.3439 25.6691,4.8246 12.655,5.9014 22.2646,12.4474 33.3905,22.7457 10.8929,10.0826 19.0514,15.681 26.9508,18.4943 11.1973,3.9876 19.129,9.7938 19.129,14.0027 0,1.1926 -2.2648,3.0294 -5.033,4.0818 -4.7131,1.7919 -4.9031,2.4948 -2.9908,11.056 1.1233,5.0284 2.8091,18.664 3.746,30.3013 1.8664,23.1786 3.3534,33.5714 6.6936,46.7793 2.0773,8.214 1.648,9.7309 -7.7837,27.5064 -5.4901,10.3472 -10.813,19.7176 -11.8284,20.8231 -1.0157,1.1056 -1.8466,3.7575 -1.8466,5.8932 0,3.1835 0.7374,3.4884 4.0932,1.6924 5.222,-2.7948 13.874,0.3099 16.9664,6.0882 1.5036,2.8095 1.6235,7.145 0.3535,12.7966 -1.0562,4.7011 -1.7836,8.6307 -1.6162,8.7324 0.1671,0.1018 8.0921,0.3397 17.611,0.529 9.5657,0.1902 15.954,-0.4128 14.2823,-1.348 -1.6638,-0.9307 -3.0249,-4.0568 -3.0249,-6.947 0,-6.2242 -8.9807,-24.6742 -14.8835,-30.577 -4.8299,-4.83 -5.3075,-9.8491 -1.3864,-14.5723 3.1802,-3.831 9.3717,-32.9993 12.0764,-56.8921 4.7559,-42.0113 13.1242,-79.8371 19.0605,-86.1561 l 4.7512,-5.0574 -7.5951,1.2325 c -6.5246,1.0588 -8.5214,0.3062 -14.1678,-5.3402 -6.5247,-6.5248 -6.6047,-6.5429 -10.9581,-2.4871 -2.4119,2.2471 -9.4093,6.6274 -15.5496,9.7341 l -11.1642,5.6486 -10.0702,-3.8458 c -11.2461,-4.295 -26.2849,-17.3619 -26.2849,-22.8386 0,-6.7318 6.1326,-6.0646 15.1423,1.6474 10.1306,8.6713 15.7216,9.3579 28.5972,3.5119 9.1897,-4.1724 14.2934,-10.1147 16.5364,-19.2536 0.7249,-2.9533 5.6334,-11.0465 10.9078,-17.985 10.9607,-14.4187 16.2064,-25.3479 20.947,-43.6429 5.9101,-22.8074 11.9353,-36.1382 20.5659,-45.5014 8.8381,-9.5881 12.8502,-10.9001 19.0169,-6.2189 5.8181,4.4167 4.4197,8.43 -5.333,15.3043 -7.4183,5.2289 -10.1421,9.184 -15.2168,22.0951 -6.449,16.4075 -10.1573,33.7111 -7.2247,33.7111 2.6448,0 6.2738,-7.9284 10.0735,-22.0078 3.691,-13.6766 9.0983,-17.8473 14.1614,-10.9229 5.5614,7.6056 -11.0589,48.9161 -28.6168,71.1286 -12.2995,15.56 -11.393,18.8097 2.9836,10.6961 12.0535,-6.8027 23.9464,-10.2614 38.2142,-11.1135 10.5344,-0.6292 21.2725,-4.8886 22.879,-9.0753 0.6733,-1.7548 6.9808,-7.4282 14.0163,-12.6075 9.5424,-7.0248 19.5425,-11.642 39.3668,-18.1768 30.0043,-9.8903 35.5157,-10.1651 36.4814,-1.8186 0.7018,6.0663 0.354,6.222 -20.7515,9.2845 -21.293,3.0897 -50.8718,20.9319 -58.3442,35.1939 -3.4339,6.5542 -5.3149,7.244 -25.015,9.1741 l -14.593,1.4297 5.7326,4.5709 c 7.8129,6.2298 5.6986,9.9896 -8.8461,15.7323 -16.349,6.455 -22.3393,12.2642 -27.9334,27.0883 -2.596,6.8792 -6.2051,16.3163 -8.0203,20.9712 -1.9913,5.1069 -3.4265,16.016 -3.6188,27.5065 -0.1926,11.5113 -1.6991,22.9459 -3.8092,28.9112 -4.5356,12.8229 -8.9802,43.7421 -7.2554,50.4716 0.7406,2.8888 9.7066,13.9129 19.9246,24.498 l 18.5786,19.2455 3.4369,13.8179 c 0.3843,5.209 -22.969,8.5798 -60.5922,4.7031 z m 39.0029,-9.2566 c 2.538,-1.6063 2.3837,-2.8378 -0.9898,-7.9022 l -3.9965,-5.9992 -1.2776,6.3476 c -1.8702,9.2935 -0.021,11.5289 6.2639,7.5538 z m -63.691,-10.2202 c 0.8106,-5.6812 -1.2888,-6.1047 -5.1363,-1.0363 -3.8784,5.1091 -3.6205,7.3155 0.7575,6.4811 2.0365,-0.3881 4.007,-2.8383 4.3788,-5.4448 z m -27.9736,-12.1447 c 3.3323,-8.728 6.8529,-15.8691 7.8232,-15.8691 1.6289,0 16.3006,-29.6274 16.3006,-32.9166 0,-3.8888 -7.1826,5.3838 -15.9667,20.6129 -12.4308,21.5513 -21.1588,44.0419 -17.0915,44.0419 1.6293,0 5.5014,-6.8777 8.9344,-15.8691 z m 20.7047,-71.411 c 1.4606,-7.7835 1.1525,-14.1256 -0.7433,-15.2972 -0.9774,-0.6041 -2.107,3.6624 -2.5103,9.4811 -0.735,10.6095 1.578,14.7446 3.2536,5.8161 z m 93.344,-127.4902 c 9.6203,-4.7683 9.9239,-5.1272 3.35,-3.959 -7.7692,1.3807 -22.3714,9.254 -17.1033,9.222 1.7457,-0.011 7.9346,-2.379 13.7533,-5.263 z m -158.4386,77.1437 c -3.3525,-0.9919 -8.1616,-3.7447 -10.6871,-6.1174 -3.7701,-3.5416 -5.7889,-3.9706 -11.2779,-2.3964 -8.497,2.4369 -18.8353,0.8564 -26.955,-4.1208 -5.0949,-3.1229 -8.9703,-3.6547 -19.6062,-2.6903 -10.9076,0.9891 -13.9998,0.529 -17.4537,-2.5967 -4.7517,-4.3001 -5.4958,-10.5405 -1.5526,-13.0192 1.4546,-0.9144 8.3577,-1.7446 15.3401,-1.8447 6.9824,-0.1001 14.844,-0.9492 17.4702,-1.8866 3.9034,-1.3935 6.0546,-0.3073 11.7875,5.9516 8.2067,8.9597 13.1001,9.5178 26.179,2.986 10.6042,-5.296 15.9865,-3.77 17.2349,4.8861 1.0601,7.3507 4.2694,10.3633 11.0398,10.3633 7.1022,0 9.9656,3.5617 5.9349,7.3816 -4.2496,4.0272 -10.5475,5.147 -17.4539,3.1035 z m 32.5329,-14.7368 c -1.9432,-3.6311 -1.4708,-4.5577 3.2371,-6.3477 13.3956,-5.093 21.3503,0.1359 11.114,7.3056 -6.403,4.4848 -11.6248,4.1362 -14.3511,-0.9579 z m -164.5171,-0.5489 c -7.6155,-4.4194 -11.6274,-11.8514 -11.8974,-22.0399 l -0.2507,-9.4616 -33.8541,1.3847 c -20.2634,0.8288 -35.9969,0.5653 -39.1918,-0.6566 -13.0324,-4.9841 -28.5479,-28.6326 -28.2003,-42.9831 0.227,-9.3844 7.8179,-25.116 15.8164,-32.7791 4.8521,-4.6485 6.5017,-5.2089 9.0668,-3.08 3.7085,3.0778 2.2201,8.1173 -5.956,20.1656 -7.2615,10.7003 -7.2694,21.8288 -0.023,32.7785 9.4017,14.2072 14.2805,15.3425 54.5717,12.6989 43.5292,-2.856 43.6394,-2.8157 43.6394,15.9771 0,16.0913 2.2077,18.1703 17.469,16.4501 10.9392,-1.233 12.315,0.4299 6.3347,7.6559 -4.6526,5.6215 -20.6457,7.8815 -27.5246,3.8895 z m 331.8295,-4.5642 c -6.2994,-6.7054 -4.2313,-9.5394 5.9628,-8.1721 7.1929,0.9648 9.2246,0.1873 16.1894,-6.1956 l 7.9644,-7.2988 -6.1161,-10.8805 c -5.5508,-9.8749 -5.81,-11.1866 -2.8032,-14.1936 2.6155,-2.6152 4.5337,-2.8491 9.1072,-1.1103 14.1572,5.3826 26.8453,1.6791 39.0154,-11.388 7.8044,-8.3796 13.9054,-9.6497 17.1579,-3.5722 5.0821,9.4963 -19.3956,29.7012 -36.1128,29.8089 l -7.6748,0.05 1.0248,9.0899 c 0.8632,7.6586 0.1163,10.1696 -4.7449,15.9465 -11.0749,13.1618 -30.3616,17.0797 -38.9701,7.9164 z m 103.7132,-50.7184 c -3.5221,-4.244 -0.3816,-8.701 7.5308,-10.6868 8.4724,-2.1265 15.4406,-7.4873 14.1395,-10.878 -1.5245,-3.9724 3.0162,-9.3348 7.9042,-9.3348 7.0526,0 7.0464,-4.7188 -0.021,-10.481 -5.0285,-4.1041 -6.6762,-6.9984 -6.1413,-10.7882 0.7177,-5.0849 1.1165,-5.1831 21.8898,-5.3855 23.1594,-0.2256 40.1302,-4.5313 57.1328,-14.4955 21.1212,-12.3779 12.3469,-26.7391 -26.0414,-42.6217 -16.6593,-6.8927 -22.8655,-11.8476 -24.3112,-19.4103 -1.5122,-7.9113 0.1925,-10.8382 8.2877,-14.2201 4.6175,-1.9293 7.1489,-4.4319 7.1489,-7.0677 0,-7.4083 -5.6284,-9.679 -22.645,-9.1357 -25.1371,0.8025 -29.4603,-6.3658 -17.3864,-28.8282 3.6656,-6.8194 7.0038,-16.7562 7.6279,-22.7057 1.3773,-13.1285 -3.1465,-19.7473 -19.1154,-27.9683 -8.9007,-4.5821 -13.8874,-5.6364 -27.1921,-5.7485 -17.5622,-0.1481 -21.4999,-2.0687 -20.3856,-9.9437 0.6791,-4.8009 1.3808,-4.9942 17.2234,-4.7443 17.854,0.2816 26.4409,3.1053 45.2727,14.8874 18.6164,11.6474 23.2453,27.0392 14.8524,49.3865 -2.8407,7.5643 -5.8764,15.4195 -6.7461,17.456 -1.3988,3.276 -0.203,3.7028 10.367,3.7028 17.5223,0 32.2977,8.466 36.0045,20.6298 2.2081,7.2465 -0.3796,12.4696 -8.5736,17.3041 -4.0895,2.4129 -6.8296,5.3675 -6.0891,6.5658 0.7406,1.1983 6.7474,4.8229 13.3481,8.0547 32.0444,15.6887 39.7345,22.1464 42.8417,35.9753 2.2448,9.9909 0.351,16.298 -6.9236,23.0597 -7.2636,6.7515 -36.0654,21.2616 -44.9633,22.6521 -4.1347,0.6462 -10.8189,1.6882 -14.8537,2.3157 -6.7033,1.0424 -7.2353,1.645 -6.1669,6.9869 1.695,8.4747 -13.073,26.6647 -26.3341,32.4361 -14.0545,6.1167 -24.2058,7.228 -27.689,3.0311 z m -516.1197,-42.1304 c -1.8361,-2.2124 -1.0628,-4.1155 3.4042,-8.3767 11.1198,-10.6079 23.765,-12.0925 23.765,-2.7901 0,3.3688 -2.1938,5.5909 -7.9346,8.037 -13.133,5.596 -16.7053,6.1773 -19.2346,3.1298 z m 32.0533,-14.2561 c -5.3589,-2.0707 -10.1288,-8.9612 -12.1133,-17.4985 -1.1349,-4.8825 -0.2175,-7.0478 5.0832,-11.9994 3.5573,-3.3231 10.7322,-8.1063 15.9443,-10.6294 5.212,-2.5231 9.4245,-5.2166 9.3615,-5.9856 -0.063,-0.769 -4.586,-4.2546 -10.0505,-7.7458 -10.6257,-6.7885 -13.2581,-12.974 -8.9482,-21.0267 1.7799,-3.3259 1.8067,-6.1452 0.1015,-10.631 -1.2765,-3.3577 -2.7792,-13.9026 -3.3393,-23.4333 l -1.0184,-17.3284 8.8184,-7.9668 c 10.1884,-9.2046 28.8607,-18.1632 48.0476,-23.0524 7.3674,-1.8774 13.8104,-3.4134 14.3178,-3.4134 2.3913,0 -10.2066,-21.2661 -13.708,-23.1399 -8.1783,-4.377 -6.9201,-14.9459 1.7791,-14.9459 12.3337,0 39.5412,49.5531 27.9781,50.9564 -0.7943,0.096 -8.7536,0.4971 -17.6873,0.8904 -18.6365,0.8204 -31.5228,5.6662 -45.4781,17.1014 -9.9948,8.19 -10.8909,11.5693 -5.7827,21.8088 2.0528,4.1148 2.8418,8.9093 2.0111,12.2189 -1.0275,4.0939 -0.2898,6.2014 2.9695,8.4843 5.5161,3.8636 5.5649,11.609 0.1037,16.5506 -2.3276,2.1063 -4.2318,4.514 -4.2318,5.3503 0,0.8364 5.9676,4.3713 13.2615,7.8554 14.7182,7.0305 19.184,11.1812 18.0977,16.8213 -0.5264,2.7344 -3.5157,4.1806 -10.7931,5.2216 -11.875,1.6986 -28.8589,9.4515 -30.5906,13.9642 -0.6707,1.7483 0.5269,6.4221 2.6619,10.3862 3.3559,6.2318 3.4725,7.5981 0.8613,10.0931 -2.0431,1.9521 -4.5204,2.3058 -7.6576,1.0936 z m 95.7533,-40.6633 c -1.7262,-2.6342 -4.693,-10.858 -6.5931,-18.2749 -3.2889,-12.8383 -3.2665,-13.7375 0.468,-18.7396 2.1576,-2.8898 8.0565,-6.806 13.1087,-8.7026 7.5777,-2.8445 9.6745,-4.8797 11.9766,-11.6244 4.5191,-13.2394 15.3357,-27.147 28.7982,-37.0278 12.2689,-9.0046 12.5004,-9.3574 9.3223,-14.2077 -6.4037,-9.7734 -2.0344,-19.5885 13.4122,-30.1292 10.9558,-7.4762 25.1889,-9.2083 29.8193,-3.629 4.3843,5.2828 1.3349,8.5261 -8.1489,8.6673 -7.3158,0.109 -10.2755,1.4943 -16.5087,7.7274 l -7.5946,7.5945 7.7347,4.968 c 9.9613,6.3981 12.14,13.7971 5.618,19.0782 -2.6317,2.1311 -6.1457,3.8748 -7.8086,3.8748 -11.5893,0 -38.8252,25.5028 -38.8252,36.3544 0,1.4068 2.4157,5.0792 5.3682,8.161 5.3558,5.5903 5.3587,5.6147 1.2676,10.6671 -3.7844,4.6735 -4.6585,4.8622 -11.337,2.4471 -10.2921,-3.7216 -15.8177,-3.2565 -20.8273,1.7529 -5.5115,5.5114 -3.9284,15.2934 3.8097,23.5395 6.6565,7.0938 5.1523,12.2926 -3.5566,12.2926 -4.2775,0 -7.3946,-1.5709 -9.5035,-4.7896 z m -106.2718,-112.7767 c -0.6983,-1.8198 -0.1926,-5.6732 1.1244,-8.5631 3.1647,-6.9459 3.3172,-6.6321 -4.0043,-8.2401 -15.3745,-3.3768 -24.3276,-18.3058 -18.1467,-30.2583 5.0917,-9.8465 17.1389,-12.0333 26.5293,-4.8156 5.1002,3.92 5.2034,3.9075 9.1462,-1.105 5.7518,-7.3123 20.8001,-7.1855 28.2235,0.2377 6.7947,6.7949 4.7614,10.1567 -5.1882,8.5771 -8.0631,-1.2801 -25.1421,3.3793 -24.0036,6.5486 1.1828,3.2923 -5.8034,3.1705 -10.5935,-0.1847 -5.4311,-3.804 -12.2639,-4.3982 -12.2639,-1.0664 0,5.7084 5.0398,10.3687 14.6743,13.5687 7.4636,2.479 10.1465,4.358 9.3151,6.5243 -0.6745,1.7578 0.089,3.0426 1.8095,3.0426 1.6373,0 4.0452,1.0682 5.3507,2.3737 2.8361,2.836 1.2107,8.2057 -2.4837,8.2057 -1.4406,0 -4.3428,1.9043 -6.4491,4.2318 -4.5742,5.0544 -11.2726,5.5285 -13.04,0.923 z M 6180.325,2242.27 c -4.9084,-2.8589 -4.6695,-5.9344 0.924,-11.8885 6.3212,-6.7284 2.7011,-9.8815 -10.7965,-9.4038 -8.6228,0.3052 -10.9865,-0.4032 -12.8284,-3.8447 -1.8016,-3.3665 -1.393,-5.0836 2.0226,-8.4991 6.2704,-6.2704 5.398,-7.0896 -5.9475,-5.5846 -8.502,1.1279 -10.8513,0.6678 -13.9234,-2.7267 -2.0324,-2.2459 -3.381,-6.1344 -2.9964,-8.641 0.8319,-5.4247 10.5874,-11.8898 14.7151,-9.752 25.4779,13.1959 28.3756,15.27 30.2591,21.6579 1.083,3.6723 4.6222,8.2133 7.9194,10.1611 11.6283,6.8689 12.6297,18.4794 2.2951,26.6085 -6.0777,4.7808 -6.5783,4.863 -11.6431,1.9129 z m 24.2269,-15.0648 c -3.8367,-3.8367 -3.0562,-7.5911 1.9055,-9.1659 3.2344,-1.0265 3.8105,-2.045 2.1159,-3.7396 -4.6947,-4.6947 -2.5289,-11.5258 5.0769,-16.0133 8.2244,-4.8526 8.9871,-6.9131 4.0694,-10.9945 -2.6234,-2.1772 -5.2228,-2.2607 -12.1663,-0.3906 -7.1599,1.9282 -9.7307,1.7934 -13.5909,-0.713 -9.6606,-6.2723 -4.3141,-16.4357 9.9099,-18.8388 7.2835,-1.2305 9.7637,-0.4937 18.5561,5.5125 14.1624,9.6746 15.7159,12.0597 14.309,21.9702 -0.6605,4.6549 -1.1455,12.4871 -1.0775,17.4047 0.1142,8.3352 -0.4455,9.2315 -8.2719,13.2243 -9.498,4.8454 -17.0986,5.4816 -20.8361,1.744 z M 5780.9,2211.6215 c -1.1349,-2.9851 -2.0633,-6.7246 -2.0633,-8.31 0,-4.6716 10.1989,-11.3402 22.9923,-15.0335 6.5559,-1.8926 16.3016,-5.3356 21.6576,-7.6512 5.3559,-2.3156 11.5448,-3.8656 13.7532,-3.4443 5.4342,1.0365 6.5833,9.8334 1.5188,11.6268 -2.1183,0.7501 -5.9533,3.2543 -8.5224,5.565 -3.7326,3.357 -6.3954,3.9255 -13.2511,2.8292 -11.2152,-1.7934 -23.7633,4.3096 -27.523,13.3863 -3.2658,7.8844 -5.8387,8.1944 -8.5621,1.0317 z m 68.3531,-28.8676 c -6.2746,-6.698 -9.2838,-15.5016 -7.2124,-21.101 1.0624,-2.8723 6.9185,-7.1377 15.2796,-11.1295 15.0497,-7.1849 14.701,-6.0779 8.7725,-27.8558 -7.069,-25.967 -3.5564,-32.4768 22.3551,-41.4296 18.8203,-6.5027 45.6006,-6.61 59.8671,-0.2399 l 9.7296,4.3444 5.877,-7.3654 c 11.0805,-13.8869 42.8661,-24.4428 59.1349,-19.6386 16.6037,4.9031 30.6519,20.9747 30.7981,35.234 0.053,5.1218 3.9844,7.337 10.1577,5.7226 8.6034,-2.2498 30.0906,13.3033 30.0906,21.7806 0,1.5964 2.4739,5.0385 5.4974,7.6492 14.2215,12.2794 16.4332,22.7317 4.8101,22.7317 -4.7108,0 -6.7564,-1.3736 -8.6654,-5.8186 -1.3745,-3.2003 -2.6592,-6.0924 -2.8552,-6.4269 -0.1967,-0.3345 -2.6484,0.4363 -5.45,1.7129 -7.8531,3.578 -16.6117,-0.5148 -16.6117,-7.7623 0,-3.1375 1.5216,-7.3857 3.381,-9.4406 1.8597,-2.0548 2.7558,-4.7482 1.9911,-5.9852 -2.0376,-3.297 -14.4906,-2.7424 -19.2499,0.8573 -5.7706,4.3646 -14.4233,3.9763 -18.7848,-0.8431 -3.1149,-3.442 -3.4778,-6.5191 -2.3078,-19.5718 1.3172,-14.6911 1.1063,-15.7858 -4.1001,-21.2819 -3.0187,-3.1868 -7.9083,-6.4014 -10.8657,-7.1437 -12.6409,-3.1727 -38.2858,5.1688 -51.626,16.7923 -11.6721,10.1701 -19.3381,12.2023 -25.3853,6.7297 -8.8268,-7.9882 -37.0203,-8.023 -54.4105,-0.067 -13.5092,6.1803 -15.7568,11.9934 -10.1867,26.3472 9.2572,23.8547 9.6892,25.6264 7.3256,30.0429 -1.2645,2.3627 -8.4159,7.0402 -15.8919,10.3945 -13.9686,6.2673 -16.2178,9.6962 -10.2646,15.6494 1.8307,1.8306 3.0111,4.993 2.6233,7.0277 -1.0563,5.542 -8.6667,5.5886 -13.8227,0.085 z m 300.5759,-9.2154 c -0.6982,-1.8198 -0.1459,-5.7733 1.2258,-8.7855 3.0208,-6.6299 2.0539,-7.7008 -11.4605,-12.6939 -7.7892,-2.8778 -10.5794,-5.0074 -10.5794,-8.0743 0,-6.06 13.1053,-6.7194 23.9177,-1.2033 8.7714,4.4748 19.4579,15.5613 19.4579,20.1863 0,4.5912 -10.8572,13.8794 -16.2242,13.8794 -2.787,0 -5.6388,-1.4889 -6.3373,-3.3087 z" fill="#00B894" transform="translate(143.95058,166.71155) matrix(0.26458333,0,0,0.26458333,-1646.9846,-711.00198)"/>
</svg>