<?xml version="1.0" ?><svg height="211.49513mm" viewBox="0 0 215.73077 211.49513" width="215.73077mm" xmlns="http://www.w3.org/2000/svg">
    <path d="m 26411.101,-2795.2917 c -20.582,-8.0829 -58.004,-28.739 -62.62,-110.2409 -4.614,-81.502 1.998,-179.5063 10.853,-200.3868 8.858,-20.8806 52.766,-72.6333 52.766,-72.6333 l -76.716,-39.2916 -1.127,-72.6281 54.638,13.1876 -7.296,-23.7608 51.275,19.3423 36.856,-20.2249 2.869,18.5232 44.228,-11.7767 -4.312,80.7054 -62.769,42.7495 c 0,0 37.945,57.2755 46.927,101.282 8.981,44.0065 1.247,129.9988 -0.997,164.4632 -2.245,34.4641 0.929,50.7231 -19.835,77.685 -42.535,55.2326 -64.74,33.0049 -64.74,33.0049 z" fill="#FFFFFF" paint-order="markers stroke fill" transform="translate(22.772187,30.981223) matrix(0.26458333,0,0,0.26458333,-6904.851,879.40613)"/>
    <path d="m 26439.324,-3440.8223 c -43.619,0.3325 -87.894,7.6567 -132.5,20.0664 -224.465,74.1699 -387.192,333.4595 -238.664,587.3907 57.331,89.104 146.177,162.0189 283.103,185.0547 162.399,27.3206 296.113,-28.5008 401.264,-146.7364 97.85,-114.2359 104.457,-335.9287 -16.537,-499.4511 -5.054,-6.8311 -63.45,-65.2061 -85.535,-80.9063 -67.556,-47.1061 -138.433,-65.9721 -211.131,-65.418 z m 4.349,52.0137 c 87.501,2.6135 170.033,39.6638 217.676,86.832 10.365,10.2624 24.098,18.2153 14.844,27.3399 -13.11,12.9276 -63.207,56.5254 -63.207,56.5254 -37.278,35.2419 -77.32,71.1024 -118.473,107.4394 -7.24,-19.8309 -15.801,-36.0371 -24.552,-45.1894 -4.27,-4.4676 -7.768,-9.3563 -7.768,-10.8633 0,-1.5073 12.63,-10.2638 28.066,-19.459 37.856,-22.5553 38.969,-24.7387 37.977,-75.25 -0.966,-49.1778 -0.337,-48.7576 -45.387,-30.248 -3.828,1.573 -4.662,0.4903 -4.662,-6.0391 0,-15.9362 -8.279,-15.4608 -36.379,2.0879 -5.669,3.5405 -9.083,2.6115 -46.853,-12.7422 -12.069,-4.9058 -18.053,-1.4686 -18.053,10.3691 0,4.2184 -0.412,7.67 -0.914,7.67 -0.503,0 -7.889,-2.3982 -16.41,-5.3301 -31.365,-10.7907 -34.705,-6.8039 -32.381,38.6484 1.856,36.3229 5.167,48.721 13.892,52.0391 6.87,2.6114 54.471,33.9287 54.471,35.8359 0,0.6121 -6.59,7.346 -14.646,14.9649 -17.536,16.5837 -25.807,32.5575 -34.391,66.4101 -8.394,33.11 -12.09,69.4777 -11.875,118.1739 -60.152,53.9166 -119.741,109.3051 -175.18,166.5546 -5.469,-0.024 -44.458,-55.6571 -57.162,-75.6933 -110.1,-199.9172 45.784,-464.805 280.365,-506.084 20.354,-3.3635 40.81,-4.5953 61.002,-3.9922 z m -54.078,95.7598 14.309,6.6601 c 7.872,3.664 15.866,6.6695 17.766,6.6895 2.72,0.021 3.065,5.8178 1.626,27.3457 -1.005,15.026 -2.557,32.5788 -3.453,39.0058 l -1.627,11.6856 -10.898,-11.8242 -10.897,-11.8242 -1.703,-27.8477 c -0.938,-15.3161 -2.472,-30.5573 -3.414,-33.8691 z m 74.246,3.7617 c 0.174,0.1559 0.947,15.6269 1.723,34.3789 l 1.408,34.0957 -14.25,15.1875 -14.252,15.1895 -0.799,-43.6348 -0.798,-43.6348 13.326,-5.9316 c 7.331,-3.2626 13.462,-5.8063 13.642,-5.6504 z m 48.989,2.1016 -1.397,17.748 c -0.767,9.7621 -1.768,23.8436 -2.226,31.293 -0.458,7.4491 -1.628,14.8311 -2.6,16.4043 -0.974,1.573 -8.346,6.5736 -16.387,11.1113 -17.899,10.1015 -19.068,10.1862 -12.65,0.9199 8.017,-11.5681 8.476,-14.839 5.771,-40.9883 -1.429,-13.8172 -1.539,-25.6625 -0.252,-26.9511 1.266,-1.2647 8.475,-3.9274 16.022,-5.918 z m -170.577,4.7089 8.395,4.3418 c 4.618,2.3879 12.414,4.4558 17.326,4.5957 l 8.928,0.252 v 18.2812 c 0,25.0737 4.225,39.7148 15.144,52.4708 h -0.01 c 5.092,5.9495 8.864,10.7404 8.385,10.6445 -0.482,-0.095 -11.021,-6.0915 -23.42,-13.3262 -12.402,-7.2345 -24.518,-13.1543 -26.924,-13.1543 -3.571,0 -4.697,-4.0642 -6.092,-21.9883 -0.941,-12.094 -1.727,-26.5178 -1.727,-32.0527 z m 367.219,38.3106 c 3.756,0.1195 25.29,40.4535 35.983,65.4805 50.212,117.5135 31.014,252.9218 -35.69,341.7558 -87.467,116.486 -276.234,177.9224 -420.176,117.4785 -19.556,-8.2117 -74.088,-38.4622 -87.064,-48.5215 -4.909,-3.8065 -2.028,-7.4497 29.643,-37.4804 35.028,-33.1257 69.95,-64.9655 104.978,-96.4473 4.107,56.7009 13.895,80.381 39.994,107.1367 11.533,11.8219 18.883,16.9538 28.324,19.7774 v 0 c 15.183,4.541 24.041,3.4304 42.668,-5.3535 16.612,-7.833 30.017,-22.6099 42.057,-46.3594 10.497,-20.7021 13.538,-35.4092 18.707,-90.4844 4.976,-53.0903 4.999,-109.9818 0.07,-138.6855 45.476,-41.2068 91.487,-83.5869 139.106,-130.1446 32.669,-32.0182 60.299,-58.1862 61.398,-58.1523 z m -304.986,84.4336 h 20.633 20.629 l 9.582,13.0508 c 9.609,13.0913 17.532,29.7135 23.771,49.5605 -41.071,36.1497 -82.859,72.7397 -124.974,110.2149 3.061,-84.2265 12.971,-126.7426 36.273,-155.4629 z m 86.674,119.918 c 0.328,2.5125 0.715,4.9218 1.008,7.496 2.575,22.6415 2.314,39.5908 -1.485,96.5372 -2.533,37.9905 -5.308,70.9101 -6.17,73.1543 -1.336,3.478 -9.556,4.08 -55.703,4.08 -29.776,0 -55.953,0.697 -58.174,1.5489 -8.666,3.3253 -14.497,-19.7417 -16.498,-60.0606 45.151,-40.406 90.809,-81.1277 137.022,-122.7558 z" fill="#00B894" transform="translate(22.772187,30.981223) matrix(0.26458333,0,0,0.26458333,-6904.851,879.40613)"/>
</svg>