<?xml version="1.0" ?><svg height="67.915642mm" viewBox="0 0 63.836319 67.915642" width="63.836319mm" xmlns="http://www.w3.org/2000/svg">
    <path d="m -3669.4256,-429.92653 c 2.0636,-16.6809 8.7798,-31.97733 30.5791,-33.0241 21.7993,-1.04677 26.6394,20.6316 26.7895,29.64738 0.1501,9.01581 -3.9021,37.14366 -30.2039,33.66569 -26.3017,-3.478 -27.1647,-30.28897 -27.1647,-30.28897 z" fill="#FFFFFF" paint-order="markers stroke fill" transform="translate(-73.164436,-114.54218) translate(3745.6938,580.28307)"/>
    <path d="m -3648.1944,-398.57649 c -8.9078,-2.49455 -17.3937,-8.91997 -20.716,-15.6856 -3.4913,-7.10988 -4.5735,-16.89107 -2.7329,-24.69988 1.3454,-5.70673 4.6129,-11.42486 9.2374,-16.16442 7.9876,-8.18641 14.57,-11.03559 24.4084,-10.56521 7.7592,0.37098 12.8491,2.91774 19.09,9.55171 7.0925,7.53953 10.1957,15.24224 10.2144,25.35447 0.025,14.25105 -8.4779,27.44193 -20.3907,31.62834 -4.2167,1.48177 -14.7498,1.8018 -19.1106,0.58059 z m 19.429,-6.49958 c 14.029,-6.84359 19.4193,-26.41679 11.4359,-41.3953 -6.4539,-12.10888 -18.4775,-17.25546 -31.2184,-13.36295 -12.6266,3.85762 -21.5162,19.02738 -19.2163,32.79223 1.7579,10.52161 6.0596,16.83948 14.8999,20.85958 7.7747,3.53554 17.2471,4.44886 24.0989,1.10644 z m -12.2774,-12.44262 c -0.5356,-0.64535 -0.7251,-3.368 -0.6482,-9.3107 0.06,-4.61926 0.081,-8.76224 0.049,-9.20662 -0.033,-0.44437 -0.9627,0.37713 -2.0653,1.82558 -1.1028,1.44842 -2.6088,2.721 -3.3469,2.82795 -2.092,0.30313 -1.718,-2.11686 1.1742,-7.59708 4.6697,-8.84876 7.6409,-11.33344 9.158,-7.65823 1.0705,2.59335 1.4054,26.24218 0.3577,28.14404 -0.9993,1.81392 -3.5598,2.19293 -4.6785,0.97506 z" fill="#00B894" transform="translate(-73.164436,-114.54218) translate(3745.6938,580.28307)"/>
</svg>