<?xml version="1.0" ?><svg height="68.230972mm" viewBox="0 0 64.507683 68.230972" width="64.507683mm" xmlns="http://www.w3.org/2000/svg">
    <path d="m -3599.1875,-430.02783 c 2.1338,-16.6809 9.0784,-31.97733 31.619,-33.0241 22.5406,-1.04677 27.5453,20.6316 27.7005,29.64738 0.1552,9.01581 -4.0348,37.14366 -31.231,33.66569 -27.1962,-3.478 -28.0885,-30.28897 -28.0885,-30.28897 z" fill="#FFFFFF" paint-order="markers stroke fill" transform="translate(159.35974,-202.47774) translate(3442.1622,668.26005)"/>
    <path d="m -3566.8886,-465.78222 c -5.2342,-0.0146 -10.3445,1.66385 -16.5612,5.19296 -5.7586,3.26911 -10.4854,7.85533 -13.3625,12.96407 -3.9365,6.99066 -5.6126,16.68768 -4.2328,24.4874 1.313,7.42208 7.6809,15.95108 15.5458,20.82095 3.8502,2.38404 14.058,5.0012 18.5203,4.74854 12.6068,-0.71397 24.4383,-11.02493 28.3714,-24.72252 2.7898,-9.71977 1.9471,-17.98128 -2.773,-27.19369 -4.1534,-8.10599 -8.3359,-11.96627 -15.6868,-14.47715 -3.4954,-1.19389 -6.6806,-1.81183 -9.8212,-1.82056 z m -1.9409,4.51807 c 13.3208,-0.2017 23.4426,8.08142 26.2805,21.50618 3.5104,16.60622 -7.1027,33.91302 -22.4802,36.59208 -7.5105,1.30845 -16.3569,-2.19927 -22.8441,-7.75456 -7.3765,-6.31669 -9.7547,-13.58085 -8.522,-24.17682 1.6126,-13.86218 14.3646,-25.96696 27.5658,-26.16688 z m 0.5746,12.37185 c -4.4223,-0.0511 -9.0935,3.03936 -9.0935,6.82646 0,2.6792 1.6963,2.9517 3.6685,0.58911 1.9508,-2.33647 5.3551,-3.19473 6.6213,-1.66915 1.3055,1.57313 0.2943,4.68008 -3.1114,9.55653 -7.6444,10.94602 -8.3954,12.21336 -8.3954,14.16812 0,1.07828 0.3424,2.3176 0.7607,2.75436 0.5904,0.61647 2.5979,0.70524 8.9757,0.39636 4.5181,-0.21885 9.2254,-0.66433 10.4603,-0.99012 2.5203,-0.66488 3.3741,-2.24413 2.2996,-4.25194 -0.673,-1.2575 -0.9345,-1.28454 -8.3328,-0.85783 -6.4115,0.36981 -7.5561,0.30612 -7.1267,-0.39791 0.2813,-0.46128 2.1202,-3.01263 4.0861,-5.66994 1.9661,-2.6573 4.1487,-5.94346 4.8503,-7.30239 2.3849,-4.61948 1.1849,-10.82144 -2.4107,-12.45971 -1.0134,-0.46175 -2.1247,-0.67892 -3.252,-0.69195 z" fill="#00B894" transform="translate(159.35974,-202.47774) translate(3442.1622,668.26005)"/>
</svg>