<?xml version="1.0" ?><svg height="72.653503mm" viewBox="0 0 52.669746 72.653503" width="52.669746mm" xmlns="http://www.w3.org/2000/svg">
    <path d="m -3619.4832,-625.33667 11.3104,6.40898 c 0,0 6.168,-6.21398 8.5948,-7.60497 2.4267,-1.391 14.0116,2.22297 8.9703,9.28195 -5.0413,7.05898 -19.7607,24.36193 -21.7252,28.65191 -1.9645,4.29001 -2.4557,13.40297 -2.4557,13.40297 l 40.2726,-1.027 1.5167,-15.30096 -20.4974,-1.32599 c 0,0 14.6183,-16.18496 16.1495,-22.15192 1.5312,-5.96699 3.5824,-17.80995 -4.9113,-23.62094 -8.4936,-5.81099 -17.7095,-5.00499 -22.1008,-2.59998 -4.3913,2.40498 -15.1239,15.88595 -15.1239,15.88595 z" fill="#FFFFFF" paint-order="markers stroke fill" transform="translate(232.72463,1.0894659) translate(3390.2881,644.24074)"/>
    <path d="m -3616.6935,-573.63783 c -1.4265,-1.02034 0.9724,-13.6958 3.3722,-17.81713 2.9983,-5.14951 7.5584,-11.72759 13.4889,-17.52135 8.1118,-7.92513 9.4124,-14.37959 3.0145,-15.49627 -2.0468,-0.3571 -3.5962,0.11552 -7.4214,3.4538 -3.9365,3.4352 -5.5072,4.82519 -6.5514,3.85882 -0.7307,-0.67645 -3.8129,-1.95541 -6.5208,-3.39237 -2.7081,-1.43697 -5.9492,-2.76126 -5.6862,-5.1008 0.1579,-1.40399 7.2325,-8.20803 9.8768,-10.79442 6.3956,-6.25543 13.5163,-9.2156 20.4218,-8.85297 8.6729,0.45545 12.8426,2.91844 16.5042,9.59316 5.5312,10.08265 1.864,23.05591 -7.7212,34.40658 -6.8576,7.15435 -3.3628,6.43971 5.246,6.68109 10.0753,-0.46172 8.401,0.0447 7.9236,9.43792 -0.3921,7.27565 -0.888,9.86205 -2.1699,11.01316 -1.3284,1.19297 -3.97,1.74161 -15.9524,1.38394 -8.3104,-0.24792 -17.8859,-0.39766 -21.2787,-0.33265 -3.3931,0.0651 -5.8128,-0.48154 -6.5349,-0.51992 z m 28.1035,-4.48455 c 10.5009,-0.0692 11.1099,-0.1952 12.1345,-2.50817 0.5935,-1.33949 1.1985,-4.8647 1.2917,-6.59454 0.1939,-2.0958 -0.3953,-2.34164 -11.1095,-2.09421 -9.1865,-0.45046 -13.4375,0.72633 -10.0287,-4.4136 0.345,-0.52028 2.4173,-2.40927 4.1543,-4.68893 1.737,-2.27966 4.7177,-6.12956 6.6237,-8.55528 5.2824,-7.5746 7.6488,-15.77839 6.0396,-22.7244 -1.5204,-6.5228 -4.5037,-9.24983 -11.7481,-10.73934 -6.3625,-1.30801 -13.5714,1.62342 -20.3336,8.26867 -2.9533,2.90242 -5.3916,5.68014 -5.4181,6.17271 -0.027,0.49267 1.7302,1.53501 3.9041,2.31635 3.8082,1.36885 4.0545,1.3117 6.7559,-1.56974 3.5902,-3.82924 8.3893,-5.18943 12.8549,-3.64357 4.4148,1.52829 5.9682,4.02034 5.7292,9.19148 -0.1602,3.51308 -1.0043,5.12787 -4.9227,9.44325 -2.5999,2.86306 -7.6897,8.99027 -11.3106,13.61602 -5.5026,7.03004 -6.7151,9.28648 -7.3878,13.7494 -1.4546,6.21362 -0.3324,5.32039 5.4515,5.09269 3.4409,-0.13547 11.2311,-0.27915 17.3118,-0.31925 z" fill="#00B894" transform="translate(232.72463,1.0894659) translate(3390.2881,644.24074)"/>
</svg>