<?xml version="1.0" ?><svg height="68.116669mm" viewBox="0 0 64.782433 68.116669" width="64.782433mm" xmlns="http://www.w3.org/2000/svg">
    <path d="m -3457.6232,-358.10418 c 2.1324,-16.6809 9.0726,-31.97733 31.599,-33.0241 22.5264,-1.04677 27.5279,20.6316 27.683,29.64738 0.1551,9.01581 -4.0322,37.14366 -31.2113,33.66569 -27.1789,-3.478 -28.0707,-30.28897 -28.0707,-30.28897 z" fill="#FFFFFF" paint-order="markers stroke fill" transform="translate(-14.172293,-203.79336) translate(3474.2401,597.46961)"/>
    <path d="m -3424.5422,-393.67603 c -4.7087,-0.02 -9.5087,1.34155 -15.3024,4.13877 -5.9633,2.87903 -10.9847,7.14063 -14.195,12.04681 -4.3925,6.71349 -6.7097,16.27782 -5.8514,24.15201 0.8167,7.49295 6.6037,16.42602 14.1274,21.80797 3.6831,2.63474 13.6945,5.92507 18.1637,5.96966 12.6264,0.12571 25.1168,-9.37626 29.9517,-22.78207 3.4299,-9.5128 3.1386,-17.81189 -0.9586,-27.31771 -3.6053,-8.36418 -7.5217,-12.49341 -14.6896,-15.48743 -3.9762,-1.66088 -7.5835,-2.51246 -11.2458,-2.52801 z m -1.9063,4.40852 c 0.4123,-0.002 0.8245,0.008 1.2366,0.0289 13.3047,0.68432 22.8537,9.62158 24.7928,23.2053 2.3986,16.80287 -9.342,33.36564 -24.8636,35.01647 -7.5809,0.80626 -16.1741,-3.28148 -22.2777,-9.25577 -6.9398,-6.7931 -8.8308,-14.19888 -6.8963,-24.68945 2.4516,-13.29541 15.2248,-24.25033 28.0082,-24.30549 z m -0.2068,12.96768 c -3.0889,0.014 -6.5276,1.32396 -8.8976,4.08864 -3.726,4.34648 -2.9332,9.60039 1.9027,11.94139 2.8809,1.39472 4.4512,1.67639 6.795,0.61805 1.9334,-0.87303 1.9842,-0.26567 1.2583,2.20245 -0.443,1.50617 -1.347,5.22539 -2.5192,8.15558 -2.1689,5.42082 -2.4714,6.76383 -1.6971,7.53804 0.239,0.23973 1.2658,0.35323 2.282,0.25373 1.6291,-0.15957 2.1107,-0.70731 4.0742,-4.63538 1.3991,-2.79918 2.5864,-6.41698 3.1957,-9.73635 0.9812,-5.34676 1.6686,-12.4334 0.5705,-16.25638 -0.7844,-2.73099 -3.6762,-4.18463 -6.9645,-4.16977 z m -1.0071,4.45451 c 1.216,0.001 2.385,0.34333 2.8608,0.91674 1.1176,1.34648 0.5054,4.05541 -1.1865,5.25084 -0.8367,0.59122 -2.0642,1.2341 -2.7383,1.38493 -4.9186,1.1005 -5.6081,-4.20306 -1.555,-6.88537 0.699,-0.46258 1.6732,-0.66802 2.619,-0.66714 z" fill="#00B894" transform="translate(-14.172293,-203.79336) translate(3474.2401,597.46961)"/>
</svg>