<?xml version="1.0" ?><svg height="68.230972mm" viewBox="0 0 64.507683 68.230972" width="64.507683mm" xmlns="http://www.w3.org/2000/svg">
    <path d="m -3598.8873,-356.9561 c 2.1324,-16.6809 9.0726,-31.97733 31.599,-33.0241 22.5264,-1.04677 27.5279,20.6316 27.683,29.64738 0.1551,9.01581 -4.0322,37.14366 -31.2113,33.66569 -27.1789,-3.478 -28.0707,-30.28897 -28.0707,-30.28897 z" fill="#FFFFFF" paint-order="markers stroke fill" transform="translate(112.79624,-314.48198) translate(3488.7257,706.74578)"/>
    <path d="m -3566.8886,-392.26371 c -5.2342,-0.0146 -10.3445,1.66385 -16.5612,5.19296 -5.7586,3.26911 -10.4854,7.85533 -13.3625,12.96407 -3.9365,6.99066 -5.6126,16.68768 -4.2328,24.4874 1.313,7.42208 7.6809,15.95108 15.5458,20.82095 3.8502,2.38404 14.058,5.0012 18.5203,4.74854 12.6068,-0.71397 24.4383,-11.02493 28.3714,-24.72252 2.7898,-9.71977 1.9471,-17.98128 -2.773,-27.19369 -4.1534,-8.10599 -8.3359,-11.96627 -15.6868,-14.47715 -3.4954,-1.19389 -6.6806,-1.81183 -9.8212,-1.82056 z m -1.9409,4.51807 c 13.3208,-0.2017 23.4426,8.08142 26.2805,21.50618 3.5104,16.60622 -7.1027,33.91302 -22.4802,36.59208 -7.5105,1.30845 -16.3569,-2.19927 -22.8441,-7.75456 -7.3765,-6.31669 -9.7547,-13.58034 -8.522,-24.1763 1.6126,-13.86218 14.3646,-25.96748 27.5658,-26.1674 z m 7.6987,13.07982 c -0.9068,-0.0221 -2.0919,0.12459 -3.5842,0.37104 -2.3153,0.38238 -5.972,0.69556 -8.1256,0.69556 -4.5668,0 -6.2587,1.10937 -4.4494,2.91869 0.8426,0.84271 2.1499,1.02065 7.1195,0.96945 3.348,-0.0344 6.0083,0.10354 5.9133,0.30696 -0.095,0.20342 -1.0855,2.85997 -2.2004,5.903 -1.9435,5.30521 -2.1186,5.55538 -4.2535,6.08438 -2.7162,0.67311 -3.3237,2.41499 -1.1332,3.24786 l 1.4981,0.56948 -2.0526,5.06067 c -2.2504,5.54919 -2.4321,6.5881 -1.3426,7.67757 0.8288,0.82834 2.2667,0.93384 3.3497,0.24546 0.4032,-0.25631 1.8144,-3.19191 3.1357,-6.52415 1.3939,-3.5152 2.8744,-6.29381 3.5264,-6.61872 0.6183,-0.308 1.5183,-0.7416 2.0004,-0.96376 1.3713,-0.63166 1.4229,-1.63087 0.1483,-2.84944 -1.1535,-1.10246 -1.1408,-1.20919 0.8563,-7.20421 2.5232,-7.57443 2.8325,-9.8109 -0.4062,-9.88984 z" fill="#00B894" transform="translate(112.79624,-314.48198) translate(3488.7257,706.74578)"/>
</svg>