<?xml version="1.0" ?><svg height="71.20475mm" viewBox="0 0 47.49902 71.20475" width="47.49902mm" xmlns="http://www.w3.org/2000/svg">
    <path d="m -3610.7824,-549.97759 42.611,0.48704 -9.0719,28.15894 5.2552,1.60211 -5.9103,14.53446 -6.6793,0.0513 -7.2348,22.21185 -17.5315,-2.01227 8.1889,-20.9686 -4.1728,-1.56368 0.1,-12.29149 10.254,-1.46113 2.7629,-14.03461 -17.1754,-0.55113 z" fill="#FFFFFF" paint-order="markers stroke fill" transform="translate(-183.89881,-86.469661) translate(3797.2982,638.89244)"/>
    <path d="m -3608.1738,-481.88073 c -2.7641,-1.18246 -3.264,-2.57751 -2.1817,-4.58718 0.6999,-1.29917 1.9796,-4.93384 3.5515,-8.53666 1.5718,-3.60282 2.8149,-5.79066 3.0563,-6.46179 0.7011,-1.94895 -0.6721,-1.48446 -2.0296,-1.6335 -2.1924,-0.24072 -2.0294,-2.22547 -2.1278,-8.65127 -0.1241,-8.05788 0.6901,-10.90758 8.679,-10.70986 2.9924,0.0741 2.1785,-0.68288 4.057,-5.00742 2.7887,-6.4199 0.048,-5.29295 -5.487,-5.29863 -5.3177,-0.005 -9.307,0.0888 -9.9775,-0.61882 -1.4807,-1.56416 -3.3417,-14.38198 -2.5956,-16.52214 0.4759,-1.36535 3.0292,-1.22863 11.779,-1.92804 13.6004,-1.08745 31.2867,-0.59059 33.8783,0.89158 1.0681,0.61088 1.7059,1.48921 1.6701,2.7609 -0.069,2.44693 -5.9492,19.83797 -8.0483,23.50799 -1.074,1.87764 -0.9709,2.17246 0.7764,2.22162 3.0039,0.0845 3.2788,3.50505 1.7691,9.45995 -1.7387,6.85842 -3.2899,10.82573 -7.7265,10.15084 -3.3386,-0.50786 -3.9601,1.52804 -5.6955,7.11224 -1.0303,3.31524 -1.9502,7.46132 -2.0447,9.21348 -0.2368,4.40861 -2.2337,4.74759 -11.0056,5.26081 -2.8783,-0.0904 -7.9125,0.39594 -10.2969,-0.6241 z m 13.4544,-4.37219 c 2.7662,-0.0838 2.6713,-1.95864 4.5113,-8.35167 1.086,-3.77335 3.1873,-9.44415 3.9163,-12.16733 0.3415,-1.27551 3.0386,-0.74299 4.6329,-0.69814 1.8484,0.052 2.6807,-1.15936 4.5512,-6.62512 0.6126,-1.78888 1.8878,-4.64746 -0.7228,-4.33788 -3.3939,0.40247 -3.8221,-0.24351 -3.803,-0.91964 0.019,-0.67623 2.4934,-7.05047 5.4992,-14.16485 3.0055,-7.11449 5.731,-14.38113 3.1436,-14.32758 -0.7211,0.0149 -31.2824,-0.3747 -34.2613,0.0708 -1.9245,0.28778 -0.6739,5.38247 0.01,7.90407 0.8038,3.77825 1.1531,2.47255 6.8495,2.43935 15.9033,-0.0334 14.3965,0.42876 11.0215,9.61601 -1.9949,5.43055 -3.4113,9.48473 -5.1844,9.45648 -7.3149,-0.11654 -8.2128,1.33448 -8.4533,4.27533 -0.613,7.49721 1.2303,6.32098 3.3404,6.10635 6.5294,-0.66413 3.2253,1.86064 -0.9102,12.36259 -1.7985,4.56728 -4.8477,9.52748 -3.3095,9.40729 3.4842,0.2227 6.0072,0.45028 9.1686,-0.0461 z" fill="#00B894" transform="translate(-183.89881,-86.469661) translate(3797.2982,638.89244)"/>
</svg>