<?xml version="1.0" ?><svg height="67.915695mm" viewBox="0 0 63.836369 67.915695" width="63.836369mm" xmlns="http://www.w3.org/2000/svg">
    <path d="m -3527.4486,-430.02783 c 2.1338,-16.6809 9.0784,-31.97733 31.619,-33.0241 22.5406,-1.04677 27.5453,20.6316 27.7005,29.64738 0.1552,9.01581 -4.0348,37.14366 -31.231,33.66569 -27.1962,-3.478 -28.0885,-30.28897 -28.0885,-30.28897 z" fill="#FFFFFF" paint-order="markers stroke fill" transform="translate(112.46051,-270.593) translate(3416.3925,736.84752)"/>
    <path d="m -3496.1285,-466.25403 c -8.859,-0.0446 -15.1129,2.93959 -22.6012,10.61434 -4.6245,4.73956 -7.8918,10.45767 -9.2372,16.16439 -1.8406,7.8088 -0.7586,17.58991 2.7327,24.69979 3.3222,6.76562 11.8082,13.1908 20.716,15.68534 4.3608,1.22121 14.8943,0.90145 19.111,-0.58032 11.9128,-4.18641 20.4155,-17.37753 20.3905,-31.62856 -0.019,-10.11222 -3.1219,-17.81501 -10.2144,-25.35453 -6.2409,-6.63396 -11.3306,-9.18037 -19.0898,-9.55135 -0.6149,-0.0294 -1.217,-0.0461 -1.8076,-0.0491 z m -0.5354,4.62763 c 9.5272,-0.0291 17.9689,5.18143 23.011,14.64148 7.9834,14.9785 2.593,34.55182 -11.436,41.39541 -6.8518,3.34241 -16.3241,2.42914 -24.0988,-1.10639 -8.8403,-4.0201 -13.142,-10.33811 -14.8998,-20.85971 -2.2999,-13.76484 6.5892,-28.9347 19.2158,-32.79232 2.7871,-0.85148 5.5402,-1.27032 8.2078,-1.27847 z m 0.4687,13.856 c -2.4634,0.0456 -5.0891,0.94724 -6.7572,2.67012 -2.2884,2.36357 -2.3242,2.70995 -1.4573,4.08141 0.5072,0.80222 0.8161,0.78634 2.5771,-0.13126 3.05,-1.58936 4.904,-1.84898 6.2363,-0.87385 1.0303,0.75419 1.0941,1.09002 0.4672,2.46548 -0.6681,1.46656 -1.6507,2.07293 -6.4162,3.95842 -1.385,0.548 -1.6765,0.99757 -1.5213,2.34611 0.1451,1.25941 0.5651,1.71425 1.7136,1.85466 3.3635,0.41134 5.5221,1.48445 6.3996,3.18121 2.0349,3.93504 0.4375,6.40692 -3.7362,5.78104 -2.9546,-0.44307 -5.1056,0.39234 -5.0886,1.97869 0.015,1.71282 0.931,2.65636 3.1068,3.20135 4.921,1.23269 9.0606,-0.41588 11.0432,-4.39766 1.1845,-2.41802 1.4155,-8.23017 -1.9797,-10.42314 -2.8354,-1.83135 -2.9238,-2.128 0.216,-4.26072 1.7338,-1.17769 3.058,-6.98839 0.123,-9.96787 -1.1923,-1.01689 -3.0103,-1.49947 -4.9263,-1.46399 z" fill="#00B894" transform="translate(112.46051,-270.593) translate(3416.3925,736.84752)"/>
</svg>