<?xml version="1.0" ?><svg height="71.621468mm" viewBox="0 0 48.000538 71.621468" width="48.000538mm" xmlns="http://www.w3.org/2000/svg">
    <path d="m -3632.3729,-550.90054 c 0,0 -10.6385,2.88415 -17.2894,8.60051 -6.6508,5.71637 -14.8825,16.54671 -16.3778,33.72146 -1.4954,17.17475 9.499,26.62057 28.298,24.73647 18.799,-1.8841 13.4301,-21.6091 13.0741,-28.36364 -0.3561,-6.75454 -17.2894,-8.1902 -17.2894,-8.1902 0,0 1.5096,-7.3055 4.8137,-11.5223 3.3041,-4.21676 9.7555,-9.58752 9.7555,-9.58752 z m -10.7456,42.85165 c 0.3814,-0.005 0.7695,0.0244 1.1611,0.0853 3.1332,0.48704 4.7139,3.7425 4.3863,5.83168 -0.3275,2.08917 -2.7485,4.20421 -6.5226,3.85816 -3.774,-0.34605 -4.7992,-4.30671 -4.7992,-4.30671 0.7727,-3.76818 3.1045,-5.4365 5.7744,-5.4684 z" fill="#FFFFFF" paint-order="markers stroke fill" transform="translate(-105.62256,-38.439268) translate(3774.7467,590.90079)"/>
    <path d="m -3651.8534,-481.80369 c -15.2411,-2.71727 -18.5478,-19.62339 -16.8791,-31.26086 1.8824,-12.49889 9.7149,-25.50973 20.7398,-33.56183 5.0578,-3.69417 13.1929,-6.50919 16.4535,-5.69354 1.9307,0.48296 6.288,8.60039 6.288,11.7147 0,0.75634 -2.3056,3.40674 -5.1237,5.88974 -4.9881,4.39522 -9.1529,9.7382 -9.1529,11.74254 0,0.54552 2.6019,1.30272 5.7821,1.68285 9.5149,1.13704 12.6094,6.78021 12.6221,19.03278 0,10.55279 -7.3748,18.9074 -17.5585,20.7918 -5.582,1.03291 -7.3877,0.69296 -13.1713,-0.33818 z m 18.2315,-6.4734 c 5.1636,-3.65846 7.3509,-7.86793 7.3509,-14.14621 0,-8.16411 -1.8726,-11.83906 -7.0407,-13.8171 -2.3198,-0.88786 -5.761,-1.61416 -7.6475,-1.61416 -2.9219,0 -3.5147,-0.39716 -4.0056,-2.68254 -1.1236,-5.23297 4.5913,-13.8323 12.5139,-18.83035 2.3131,-1.45921 2.1167,-1.59626 0.9776,-5.58995 -1.4922,-5.23145 -2.3921,-3.64499 -6.7829,-1.69739 -8.7384,3.8765 -20.3237,15.60426 -23.3182,25.13149 -4.0329,12.83087 -3.3783,30.33719 9.5473,34.34736 6.3534,1.97115 14.8283,1.43309 18.4052,-1.10115 z m -14.6199,-9.53681 c -5.3923,-5.15759 -1.5748,-12.31121 6.1116,-11.4529 6.6508,0.74266 8.5837,7.15036 3.5962,11.92122 -2.7319,2.61319 -6.686,2.42255 -9.7078,-0.46832 z m 7.6942,-3.94603 c 1.028,-1.15405 1.0129,-1.75899 0,-2.92636 -2.7126,-3.12628 -7.4922,-0.71035 -5.7497,2.92636 1.0882,2.27124 4.3502,1.57102 5.7497,0 z" fill="#00B894" transform="translate(-105.62256,-38.439268) translate(3774.7467,590.90079)"/>
</svg>