<?xml version="1.0" ?><svg height="68.049149mm" viewBox="0 0 63.977264 68.049149" width="63.977264mm" xmlns="http://www.w3.org/2000/svg">
    <path d="m -3386.8223,-358.54316 c 2.1324,-16.6809 9.0726,-31.97733 31.599,-33.0241 22.5264,-1.04677 27.5279,20.6316 27.683,29.64738 0.1551,9.01581 -4.0322,37.14366 -31.2113,33.66569 -27.1789,-3.478 -28.0707,-30.28897 -28.0707,-30.28897 z" fill="#FFFFFF" paint-order="markers stroke fill" transform="translate(-108.96049,-348.5517) translate(3497.7829,742.66707)"/>
    <path d="m -3356.0348,-394.11528 c -6.7999,0.0172 -12.5238,2.47849 -19.4944,8.06928 -5.1657,4.14311 -9.1029,9.42244 -11.1311,14.92363 -2.7749,7.52761 -2.8881,17.36751 -0.2857,24.84862 2.4763,7.1189 10.1197,14.52723 18.6588,18.08468 4.1802,1.74165 14.6743,2.70243 19.0396,1.74356 12.333,-2.7093 22.3741,-14.7705 24.0792,-28.91916 1.209,-10.03971 -0.9363,-18.06242 -7.0611,-26.40717 -5.3893,-7.34253 -10.1323,-10.4881 -17.7891,-11.79825 -2.1237,-0.3634 -4.1122,-0.55 -6.0162,-0.54519 z m -0.341,4.62091 c 11.0211,-0.12003 20.2199,6.30865 24.539,17.51108 6.106,15.83687 -1.6203,34.61102 -16.3762,39.70093 -7.207,2.48594 -16.4987,0.42967 -23.7867,-4.02353 -8.2865,-5.06361 -11.7896,-11.85668 -12.2571,-22.51387 -0.6119,-13.94223 10.0534,-27.921 23.0549,-30.21727 1.6399,-0.28963 3.2516,-0.44019 4.8261,-0.45734 z m 6.5784,13.60175 c -3.2885,0.006 -6.6068,2.32554 -8.5525,6.30246 -1.3561,2.77138 -1.506,3.85107 -1.543,10.98641 -0.041,8.2552 0.4299,10.57835 2.62,12.91652 2.5959,2.77095 9.0872,1.10786 12.3439,-3.16208 2.3175,-3.03832 3.4018,-7.20689 3.3848,-13.11599 -0.011,-7.70006 -1.3675,-11.245 -5.0265,-13.13718 -1.0376,-0.53655 -2.1306,-0.79205 -3.2267,-0.79014 z m -15.0006,0.22635 c -1.2312,-0.0561 -2.4632,1.69785 -4.5512,5.98774 -2.8363,5.82776 -3.1463,7.17251 -1.8934,8.21242 0.905,0.75091 1.7917,0.29855 2.7114,-1.38338 0.4742,-0.86641 0.5598,1.22081 0.3173,7.70083 -0.1837,4.88926 -0.1659,9.32613 0.039,9.85986 v 0 c 0.4573,1.19198 3.05,1.27644 4.0013,0.13022 0.429,-0.51687 0.9611,-6.15562 1.3824,-14.64923 0.6644,-13.398 0.6489,-13.84415 -0.5116,-15.00477 -0.5328,-0.53272 -1.0143,-0.83175 -1.496,-0.85369 z m 13.3273,4.58266 c 3.5162,0.0198 4.6439,2.27952 4.5599,9.13329 -0.073,5.88211 -1.2765,9.68093 -3.6633,11.55847 -3.7438,2.94492 -4.7155,1.13611 -4.7155,-8.77776 0,-9.26433 0.8549,-11.9313 3.8189,-11.914 z" fill="#00B894" transform="translate(-108.96049,-348.5517) translate(3497.7829,742.66707)"/>
</svg>