<?xml version="1.0" ?><svg height="72.049782mm" viewBox="0 0 49.493591 72.049782" width="49.493591mm" xmlns="http://www.w3.org/2000/svg">
    <path d="m -3466.4539,-550.47317 c -11.5641,0.11536 -20.8921,9.76669 -23.242,19.21278 -0.5999,20.70016 23.8849,22.13405 23.8849,22.13405 0,0 -2.4636,5.48542 -4.5429,10.27895 -2.0793,4.79356 -6.2948,14.77838 -5.7821,15.09882 0.5127,0.32041 12.5466,1.17874 12.5466,1.17874 0,0 20.321,-32.68249 20.0504,-46.5248 -0.2706,-13.84236 -11.3507,-21.49387 -22.9149,-21.37854 z m 0.7902,16.19539 c 0.2181,-10e-4 0.4353,0.009 0.6501,0.03 2.7487,0.26916 4.3154,1.98694 3.8881,5.55005 -0.4273,3.56315 -1.7661,5.25465 -5.2694,4.24212 -3.5035,-1.01254 -5.3692,-4.40903 -5.3692,-4.40903 0.8008,-3.80464 3.526,-5.39823 6.1004,-5.41311 z" fill="#FFFFFF" paint-order="markers stroke fill" transform="translate(-325.10905,-26.898838) translate(3816.3115,579.27606)"/>
    <path d="m -3476.0946,-481.35486 c -3.7452,-2.68885 -2.3881,-7.88298 2.9572,-16.68748 5.122,-8.4368 5.7163,-10.22588 2.9657,-10.22588 -3.7598,0 -11.5476,-2.99374 -14.7962,-6.14214 -8.8331,-8.5615 -8.2763,-21.88323 1.6458,-31.39413 7.4575,-7.1486 19.58,-8.6378 29.4714,-3.6207 11.9683,6.0703 14.7965,18.49753 9.7697,34.80583 -2.2319,7.2401 -15.0692,29.7536 -17.8245,32.04022 -2.5368,2.10551 -11.4659,3.17945 -14.1891,1.22428 z m 9.8134,-5.22794 c 2.8183,-0.56363 3.9335,-2.00209 9.685,-12.49199 10.4571,-19.0716 12.3279,-29.6094 6.9912,-39.3803 -3.2097,-5.8767 -7.372,-8.3212 -15.7342,-9.2405 -6.85,-0.7531 -13.2642,2.2789 -17.3889,8.2195 -8.717,12.5554 -1.1493,25.997 14.6367,25.997 3.2439,0 6.773,0.36259 5.7753,3.09867 -0.9969,2.73412 -5.5787,15.12323 -10.1589,21.63033 -1.8926,3.02734 -2.1309,2.88478 1.7251,2.88478 1.3701,0 2.7169,-0.36722 4.4687,-0.71749 z m -5.0032,-37.52505 c -2.7083,-2.02009 -4.0913,-7.22189 -0.3919,-11.03573 2.8839,-2.97304 7.3305,-2.90327 10.5351,-0.52167 4.7033,3.4954 4.0968,9.94247 -1.2293,12.547 -2.4831,1.21428 -5.3423,1.67446 -8.9139,-0.9896 z m 7.2057,-3.6346 c 1.6156,-1.9467 0.5241,-4.8524 -1.6613,-4.4223 -2.6822,0.5278 -4.2562,3.7536 -2.4067,4.9326 2.0731,1.3217 2.6027,1.2553 4.068,-0.5103 z" fill="#00B894" transform="translate(-325.10905,-26.898838) translate(3816.3115,579.27606)"/>
</svg>