<?xml version="1.0" ?><svg height="103.12395mm" viewBox="0 0 82.557037 103.12395" width="82.557037mm" xmlns="http://www.w3.org/2000/svg">
    <path d="m 553.92921,695.03668 c -3.18979,-1.59309 -4.71459,-4.11679 -1.47222,-8.47016 3.24239,-4.35338 20.24295,-25.55243 20.24295,-25.55243 0,0 -2.19078,-3.47009 -1.61242,-5.3313 0.57835,-1.86124 2.36606,-4.10102 2.36606,-4.10102 0,0 -4.60944,-2.1609 -6.48475,-3.88019 -1.87534,-1.71926 -3.97701,-4.16939 -3.01509,-8.32321 2.42148,-10.45654 9.25204,-17.44108 17.30288,-26.6276 2.99238,-3.41449 11.48607,-11.51186 18.14103,-12.47645 6.65496,-0.9646 7.18073,-0.1444 9.16122,2.22156 1.98048,2.36598 6.09917,3.97483 6.09917,3.97483 0,0 2.36606,-1.82967 5.95897,0 3.59291,1.82968 7.83429,4.85812 7.16828,11.35663 -0.66601,6.49852 -7.3786,24.21171 -14.56441,32.76074 -7.18582,8.549 -20.944,21.688 -27.51638,20.41038 -6.57238,-1.27762 -9.63951,6.24615 -12.00557,9.40078 -2.36604,3.15463 -14.72213,20.78895 -19.76972,14.63744 z" fill="#FFFFFF" transform="translate(-72.316748,-99.623001) translate(-476.85201,-498.19711)"/>
    <path d="m 553.29411,700.00338 c -2.72706,-1.5883 -4.65259,-6.3182 -3.99632,-9.8163 0.65836,-3.5097 9.24581,-16.7767 15.79221,-24.3983 2.90319,-3.3798 4.26339,-5.8092 4.26339,-7.6139 0,-1.4578 0.64259,-3.2933 1.42796,-4.0785 1.28334,-1.2835 1.04748,-1.6219 -2.32749,-3.3438 -3.59071,-1.832 -4.56893,-3.1306 -3.05713,-4.0588 1.09916,-0.6746 11.55018,4.3993 14.89561,7.2322 1.66411,1.4091 2.96457,2.93073 3.31583,3.56221 0.48042,0.86367 1.5169,1.67203 2.90785,1.05609 1.10767,-0.4905 0.53435,-1.1851 -2.48402,-3.1274 -5.03906,-3.2422 -8.54207,-7.0358 -7.72234,-8.3622 0.66464,-1.0752 8.78318,4.1529 11.91919,7.6753 0.90897,1.0208 1.9061,1.6026 2.21613,1.2925 0.30994,-0.3098 -1.62717,-3.0922 -4.3048,-6.183 -5.89054,-6.7998 -4.58173,-7.3893 2.1888,-0.9859 3.40625,3.2213 5.19596,4.3371 5.87218,3.6611 0.67616,-0.6763 -0.61751,-2.5628 -4.24441,-6.1897 -3.2372,-3.2372 -4.75962,-5.3694 -4.01152,-5.6189 1.40336,-0.4678 11.33737,5.8822 11.33737,7.2469 0,0.5069 0.41894,0.9215 0.93101,0.9215 2.1079,0 0.63434,-2.5733 -4.36889,-7.6292 -2.91497,-2.9456 -5.0181,-5.6375 -4.67381,-5.9817 0.72106,-0.7213 6.39991,2.8956 10.3261,6.5765 1.7141,1.607 3.00234,2.1902 3.57453,1.6179 0.57221,-0.5723 -0.80639,-2.6932 -3.82544,-5.8851 -2.59604,-2.7446 -4.72822,-5.3047 -4.73829,-5.6886 -0.0607,-2.3148 7.29707,1.7849 10.11562,5.6367 1.59958,2.1857 1.91657,2.3021 2.45917,0.9025 0.43317,-1.1176 -0.68036,-3.1321 -3.65762,-6.6172 -5.89683,-6.9022 -5.36672,-8.2442 1.03759,-2.6265 6.82113,5.983 8.44006,5.1376 2.22086,-1.16 -2.61028,-2.6432 -4.74596,-5.1067 -4.74596,-5.4747 0,-1.4166 1.86651,-0.5332 6.33442,2.9987 2.55191,2.0172 4.84098,3.4664 5.08696,3.2203 0.24598,-0.2461 -1.80429,-2.7903 -4.55609,-5.6544 -4.48237,-4.6649 -6.20776,-7.7505 -4.33434,-7.7505 0.3679,0 2.89647,2.1998 5.61908,4.888 4.04923,3.9981 5.11084,4.6333 5.83358,3.4909 1.29285,-2.0434 1.1703,-2.2871 -1.69252,-3.3677 -1.43744,-0.5423 -3.94052,-3.0001 -5.58583,-5.484 -5.50065,-8.3044 -3.15881,-8.8222 4.36952,-0.966 5.15628,5.3806 6.3298,4.7557 1.3052,-0.6953 -3.85283,-4.1799 -9.05127,-12.41819 -8.47079,-13.2567 0.98358,-1.42079 2.14544,0.8636 4.26486,2.4223 3.19467,2.3495 4.17877,2.6598 5.75685,1.815 2.91182,-1.5584 9.12418,0.5078 12.90976,4.2934 3.20034,3.1999 3.2113,3.2406 2.69865,9.9245 -1.05173,13.7118 -8.37901,27.0368 -22.90562,41.6545 -11.07441,11.1442 -15.89557,14.1819 -21.82388,13.7506 -3.45366,-0.1274 -3.13712,-1.20201 -5.13014,1.21436 -5.53151,6.70649 -18.62415,24.16234 -19.46661,24.80244 -1.83398,1.3933 -6.58995,1.4782 -8.85642,0.1579 z m 7.94906,-7.7377 c 1.32128,-1.2243 5.62179,-7.1014 9.5567,-13.0601 3.93485,-5.9587 7.91471,-11.2408 8.84404,-11.7383 0.92941,-0.4974 3.5604,-0.9043 5.84676,-0.9043 5.29106,0 10.89888,-4.0397 20.09715,-14.4772 9.87907,-11.2099 16.58638,-23.9263 18.31199,-34.7173 0.56089,-3.5073 0.3383,-4.0997 -2.66883,-7.107 -4.26988,-4.2698 -6.38323,-4.2619 -2.63241,0.01 3.06273,3.4885 3.46301,4.6235 1.95833,5.5536 -0.51202,0.3164 -0.93877,1.7025 -0.94833,3.0805 -0.0188,2.8768 -4.70588,12.5127 -9.91319,20.3851 -4.06181,6.1407 -13.71116,16.1478 -18.22234,18.8984 -4.28565,2.613 -7.0401,2.3225 -12.85303,-1.3547 -4.77568,-3.0213 -5.09546,-3.0996 -5.3848,-1.3197 -0.16919,1.0406 0.40978,2.685 1.28642,3.6533 1.50594,1.6643 1.50106,1.9042 -0.0876,4.3456 -0.92474,1.421 -5.69511,7.4017 -10.60096,13.2905 -13.05464,15.6689 -11.99718,13.8909 -9.47504,15.9329 2.83241,2.294 3.98669,2.2149 6.88477,-0.4712 z m 8.11022,-48.046 c 0,-0.5119 0.60367,-0.931 1.34157,-0.931 0.73776,0 1.60042,0.4191 1.91686,0.931 0.31644,0.512 -0.28726,0.9311 -1.34155,0.9311 -1.05421,0 -1.91688,-0.4191 -1.91688,-0.9311 z m -6.94251,-0.8665 c -1.00195,-1.6214 1.52845,-2.154 3.042,-0.6403 1.38816,1.3886 1.34884,1.5068 -0.49996,1.5068 -1.10353,0 -2.24745,-0.39 -2.54204,-0.8665 z m 12.16575,-1.5285 c -0.39175,-1.021 -0.0932,-1.3734 0.9869,-1.1639 0.85191,0.1651 1.7233,0.8242 1.9364,1.4642 0.5699,1.7119 -2.26291,1.4206 -2.9233,-0.3003 z m -10.62286,-2.4463 c -1.57268,-1.5724 -1.38808,-2.6064 0.46543,-2.6064 1.231,0 1.33445,-0.2485 0.46551,-1.1174 -1.60446,-1.6041 -1.37594,-2.7929 0.46887,-2.4378 1.10521,0.2132 1.65362,1.3626 1.80911,3.7922 0.23093,3.6119 -1.03322,4.5453 -3.20892,2.3694 z m 16.06754,-0.8067 c -0.33752,-0.5459 -0.39004,-1.2163 -0.1169,-1.4896 0.66689,-0.6665 2.48265,0.5085 2.48265,1.6065 0,1.1901 -1.60721,1.1107 -2.36569,-0.1164 z m -8.37875,-0.9308 c -0.33752,-0.5459 -0.39004,-1.2163 -0.11692,-1.4896 0.6669,-0.6668 2.48263,0.508 2.48263,1.6065 0,1.1896 -1.60717,1.1105 -2.36565,-0.1169 z m 2.43449,-4.0445 c -0.77886,-0.9384 -0.79982,-1.493 -0.0736,-1.942 1.08001,-0.6675 3.72833,1.0647 3.72833,2.4384 0,1.2867 -2.45169,0.9538 -3.6551,-0.4964 z m -6.35283,-1.217 c -0.64006,-0.2297 -1.16375,-1.2653 -1.16375,-2.3017 0,-1.3353 0.42879,-1.7192 1.47265,-1.3186 0.80994,0.3108 1.64782,0.5651 1.86187,0.5651 0.68427,0 0.41667,2.6678 -0.30887,3.0779 -0.38397,0.217 -1.22185,0.2069 -1.8619,-0.024 z m 9.5425,-3.0552 c -0.31644,-0.5122 0.10235,-0.9308 0.93093,-0.9308 0.82846,0 1.2474,0.4186 0.93096,0.9308 -0.31645,0.512 -0.73538,0.9311 -0.93096,0.9311 -0.19555,0 -0.61449,-0.4191 -0.93093,-0.9311 z m -7.91333,-3.2583 c 0,-0.9591 0.61018,-1.4156 1.62928,-1.2192 1.9622,0.3775 1.83857,2.0299 -0.18373,2.4508 -0.84346,0.176 -1.44563,-0.3373 -1.44563,-1.2316 z m 13.67965,-1.061 c -0.74383,-0.744 0.0968,-2.1976 1.27084,-2.1976 0.48187,0 0.87608,0.6283 0.87608,1.3967 0,1.4393 -1.09852,1.8492 -2.14692,0.8009 z m 10.36427,-0.56761 c 0.69857,-0.18992 1.78402,0.58054 2.09342,0.88954 0.30937,0.3096 -0.74035,1.0205 -1.72157,0.98 -1.08466,-0.044 -1.92598,-1.44701 -1.15423,-1.65683 z m -19.20282,-1.81649 c -1.4796,-1.4796 -1.42543,-3.5378 0.0932,-3.5378 1.55682,0 3.44455,1.8878 3.44455,3.4446 0,1.5187 -2.05808,1.5724 -3.53772,0.093 z m 19.5133,-1.8992 c -1.45595,-1.4558 -1.36196,-2.5694 0.21689,-2.5694 1.47535,0 2.73005,2.4958 1.60444,3.1912 -0.40767,0.2518 -1.22727,-0.029 -1.82127,-0.6218 z m -16.90659,-4.0436 c 0,-1.6442 2.0042,-1.3576 2.57955,0.3685 0.20262,0.608 -0.29479,1.1057 -1.10559,1.1057 -0.81064,0 -1.47396,-0.6636 -1.47396,-1.4742 z m 19.04667,0.4812 c -0.33753,-0.5461 -0.38032,-1.2263 -0.0953,-1.5113 0.7659,-0.7659 3.39181,0.4294 3.39181,1.5441 0,1.2634 -2.51092,1.2386 -3.29671,-0.033 z m -8.34051,-0.8689 c -0.31644,-0.5125 -0.13167,-0.9313 0.41058,-0.9313 0.54218,0 0.9859,0.4188 0.9859,0.9313 0,0.5117 -0.18468,0.9308 -0.41058,0.9308 -0.22587,0 -0.66945,-0.4191 -0.9859,-0.9308 z m -5.70738,-2.3092 c -0.78592,-2.0482 0.078,-2.6853 1.4306,-1.0552 0.76143,0.9173 0.80093,1.5261 0.12617,1.9434 -0.54051,0.3341 -1.24098,-0.066 -1.55671,-0.8882 z m 17.00895,-0.1995 c -1.04846,-1.0483 -0.63853,-2.1469 0.80108,-2.1469 0.76804,0 1.39653,0.3943 1.39653,0.8761 0,1.1739 -1.45387,2.0145 -2.19761,1.2708 z m -8.97407,-1.2158 c 0,-0.5122 0.39415,-0.9311 0.87598,-0.9311 0.48179,0 1.13498,0.4189 1.45142,0.9311 0.31645,0.5117 -0.0774,0.9308 -0.87607,0.9308 -0.79822,0 -1.45133,-0.4191 -1.45133,-0.9308 z m -5.58586,-3.2295 c 0,-0.8326 0.54582,-1.1576 1.39648,-0.8313 0.76804,0.2947 1.39639,0.9101 1.39639,1.3673 0,0.4572 -0.62835,0.8314 -1.39639,0.8314 -0.76813,0 -1.39648,-0.6155 -1.39648,-1.3674 z m 3.75775,-1.8502 c -1.37951,-1.6621 -0.47577,-3.4103 1.3924,-2.6935 1.45421,0.558 1.92823,4.0492 0.54964,4.0492 -0.44929,0 -1.32328,-0.6099 -1.94204,-1.3557 z m 11.60326,0.4249 c -0.31645,-0.5122 0.0774,-0.9311 0.87607,-0.9311 0.79819,0 1.45139,0.4189 1.45139,0.9311 0,0.512 -0.3942,0.9308 -0.87607,0.9308 -0.48175,0 -1.13495,-0.4188 -1.45139,-0.9308 z m -6.86877,-4.9141 c -1.54904,-1.5489 -1.27008,-2.5339 0.71783,-2.5339 2.09324,0 3.3076,2.4344 1.55072,3.1086 -0.67325,0.2585 -1.69412,0 -2.26855,-0.5747 z m 4.69349,-2.7541 c -1.96195,-1.9621 -1.13749,-2.6424 2.86282,-2.3624 2.69965,0.1889 4.03508,0.7392 4.22834,1.7425 0.34646,1.7992 -5.40876,2.3022 -7.09116,0.6199 z" fill="#00B894" transform="translate(-72.316748,-99.623001) translate(-476.85201,-498.19711)"/>
</svg>