<?xml version="1.0" ?><svg height="52.178944mm" viewBox="0 0 135.27533 52.178944" width="135.27533mm" xmlns="http://www.w3.org/2000/svg">
    <path d="m 612.9265,457.24839 c -0.52774,-6.21223 6.10058,-5.81327 9.7736,-6.15522 3.67303,-0.34197 73.87185,-1.01724 73.87185,-1.01724 l 7.54671,-4.98602 0.23231,-10.75264 1.7309,-1.36784 c 0,0 -3.0398,-6.61117 -0.71781,-9.36583 2.32198,-2.75466 9.85811,-1.15885 17.71068,-0.8359 7.85283,0.32295 11.08868,-0.3524 14.0589,-4.69241 2.97021,-4.34001 7.09268,1.44381 6.52277,6.36421 -0.56991,4.92038 -3.85419,20.36691 -3.85419,20.36691 0,0 4.67757,-0.89434 4.08649,4.36798 -0.59108,5.26235 3.56738,10.18273 -9.66814,11.13261 -13.23551,0.9499 -24.21228,2.64067 -27.80109,2.4507 -3.58854,-0.18997 -2.68076,-2.75466 -9.09796,-3.76153 -6.41726,-1.00687 -74.30479,3.05861 -79.26546,2.20372 -4.9607,-0.8549 -5.12956,-3.9515 -5.12956,-3.9515 z" fill="#FFFFFF" transform="translate(-47.609899,-119.31247) translate(-563.29019,-294.42197)"/>
    <path d="m 740.10387,413.73528 c -1.8389,0.036 -3.7196,1.2443 -6.0141,2.8624 -6.0589,3.967 -6.7316,3.6537 -14.5278,2.7384 -14.4579,-0.9105 -18.9531,1.9225 -16.3757,10.3207 0.5702,1.8577 0.6216,3.3727 0.1255,3.6794 -0.464,0.2867 -0.8428,2.8012 -0.8428,5.5872 0,4.3812 -0.2427,5.0648 -1.7946,5.0648 -0.987,0 -2.558,0.9427 -3.4912,2.0948 -1.6936,2.0909 -1.7514,2.0946 -30.55714,2.0946 -32.27545,0 -51.54045,1.4752 -53.94368,4.1308 -2.74518,3.0334 -2.23687,8.8092 0.95871,10.903 2.16327,1.4174 5.68695,1.5543 34.76285,1.3556 19.82339,-0.1355 35.92966,-0.6892 41.58146,-1.4292 8.4648,-1.1083 9.3787,-1.0743 11.0871,0.4091 1.0241,0.8891 2.4899,1.8499 3.258,2.1356 2.5752,0.9579 26.7727,-1.2598 33.4946,-3.0698 5.9473,-1.6014 7.6959,-3.643 8.1864,-9.5583 0.3788,-4.5679 0.1582,-5.481 -1.7946,-7.4338 -2.0544,-2.0544 -2.182,-2.7243 -1.6583,-8.6788 0.312,-3.5488 1.2645,-8.0106 2.1165,-9.9142 2.2209,-4.9626 1.9768,-8.7626 -0.7364,-11.4759 -1.3382,-1.3163 -2.5767,-1.8412 -3.8348,-1.8164 z m -0.2932,6.5513 c 0.4242,-0.01 0.71,0.191 0.9546,0.5673 1.2545,1.9309 -4.2958,6.1179 -9.6238,7.2605 -2.5077,0.5378 -5.2715,0.9 -6.1423,0.8047 -0.8708,-0.095 -5.1447,-0.4096 -9.497,-0.6983 -6.1461,-0.4076 -7.9138,-0.833 -7.9138,-1.9078 0,-0.7612 1.2448,-1.9808 2.7657,-2.7098 2.3565,-1.1294 3.5269,-1.1399 7.9138,-0.07 8.1516,1.989 13.331,1.5892 17.8116,-1.376 1.931,-1.2778 3.0241,-1.8595 3.7312,-1.8711 z m 0.615,5.4317 c 0.2244,0.032 0.2028,0.4077 0.07,1.0992 -0.189,0.9813 -2.1922,2.8047 -4.4525,4.0516 -3.4185,1.8858 -5.6881,2.323 -13.4887,2.598 -7.2474,0.2555 -9.9612,0 -11.9395,-1.121 -2.423,-1.3736 -3.4593,-3.2539 -1.7933,-3.2539 0.4219,0 4.6613,0.6689 9.4207,1.4865 9.9352,1.7067 14.9405,0.8987 19.8122,-3.2007 1.3882,-1.1679 2.0831,-1.6998 2.3716,-1.6597 z m -1.7346,9.7671 c 0.1807,0.01 0.3682,0.097 0.5591,0.2877 0.1924,0.1924 -0.2087,2.6424 -0.8906,5.4454 -0.4132,1.6992 -1.1816,7.6079 -1.2395,5.0976 l -0.1023,-4.833 c -0.074,-3.4774 0.6968,-6.0213 1.6733,-5.9977 z m -26.0214,1.8656 c 0.1568,0.048 0.3541,0.125 0.57,0.3409 0.2919,0.2921 0.3885,1.9333 0.2141,3.6467 l -0.1132,1.1032 c 0.063,3.1371 -0.4584,6.4785 -0.6314,9.4602 0,0.768 -0.4054,1.3965 -0.9014,1.3965 -0.439,0 -0.5983,-0.5013 -0.4295,-1.147 0.2523,-4.1297 0.3404,-8.0787 0.4922,-12.4031 0.046,-1.2373 0.2851,-2.5564 0.7992,-2.3974 z m -5.4849,0.026 c 0.1237,0.016 0.2757,0.1202 0.4568,0.3014 0.285,0.2847 0.3857,2.7633 0.2251,5.5081 l -0.024,0.4173 c -0.027,2.11 -0.041,5.3528 0.2141,6.9536 0.3815,2.3994 -0.2545,2.2637 -0.3709,2.4889 -0.3094,0.3093 -0.5284,-0.2405 -0.4883,-1.2219 0.01,-0.1526 0.017,-0.2842 0.03,-0.4023 -0.1201,-2.7475 -0.4309,-10.7326 -0.4309,-10.7326 l -0.01,-0.4295 c -0.054,-2.4762 -0.025,-2.9393 0.3982,-2.883 z m 11.1103,1.0255 c 0.512,0 0.927,0.9426 0.9164,2.0947 0,0.4326 -0.076,0.9227 -0.1759,1.4088 -0.252,3.5301 -0.6056,7.0539 -0.8605,10.5839 -0.1515,0.8331 -0.7998,1.3655 -1.2915,0.6491 -0.4379,-0.638 0.01,-2.5155 0.1214,-4.1907 0.082,-1.2079 0.2269,-4.1479 0.3968,-6.3837 -0.01,-0.2312 -0.022,-0.3932 -0.023,-0.6709 -0.01,-1.9201 0.4044,-3.4912 0.9164,-3.4912 z m 9.8666,0 c 1.2739,0 1.3949,0.8371 0.8373,5.8191 -0.938,8.3816 -2.3252,8.9084 -2.3252,0.8837 0,-5.5207 0.2624,-6.7028 1.4879,-6.7028 z m 5.0294,0 c 0.512,0 0.9067,0.9426 0.8769,2.0947 -0.029,1.1521 -0.4001,3.7709 -0.8237,5.8191 -0.7359,3.5577 -0.7759,3.4643 -0.8782,-2.0947 -0.061,-3.3298 0.2923,-5.8191 0.825,-5.8191 z m -9.9266,0.3969 c 0.3877,0.116 0.4831,2.3414 0.2455,6.1122 -0.2409,3.8219 -0.7999,7.0694 -1.2424,7.2169 -1.065,0.355 -0.3016,-12.0657 0.8142,-13.2473 0.067,-0.071 0.1274,-0.098 0.1827,-0.082 z m 17.5962,8.1237 c 0.1172,-0.046 0.335,0.4867 0.7637,1.5561 1.0043,2.5046 -0.1287,5.2255 -2.7616,6.6345 -0.9527,0.5098 -20.5415,2.9494 -29.2438,3.7925 -3.3004,0.6177 -4.5029,-0.074 -7.03,-1.9419 -2.7158,-1.9112 -3.3092,-0.922 -22.68838,-0.9996 -10.8852,0.6282 -27.12233,1.53 -36.08294,2.0047 -8.96058,0.4746 -18.38668,1.066 -20.94689,1.3146 -7.00051,0.6795 -10.05115,-1.9015 -6.27994,-5.3145 1.43722,-1.3006 6.40494,-1.4855 41.19555,-1.5328 27.1724,-0.4086 38.6595,1.0521 40.3732,-1.3024 l 1.0855,-1.0869 c 2.4746,-3.0465 3.0447,-2.946 3.3971,0.5987 0.2629,2.6434 0.7524,3.0683 4.9462,4.2917 4.8468,1.4138 10.892,1.2408 23.1153,-0.6628 8.0923,-1.2603 9.919,-2.2532 9.9934,-5.4318 0.029,-1.2489 0.047,-1.8741 0.1636,-1.9201 z" fill="#00B894" transform="translate(-47.609899,-119.31247) translate(-563.29019,-294.42197)"/>
</svg>