<?xml version="1.0" ?><svg height="100.25188mm" viewBox="0 0 88.316719 100.25188" width="88.316719mm" xmlns="http://www.w3.org/2000/svg">
    <path d="m 634.26835,703.67855 c -7.60442,-5.10561 -4.56668,-8.36454 0.10057,-14.03138 4.66725,-5.66688 17.70337,-22.84855 17.70337,-22.84855 0,0 -1.93127,-8.52746 -1.46857,-9.97585 0.46271,-1.44841 -11.96535,-11.98739 8.97493,-33.48307 20.96514,-21.5212 31.83042,-8.72013 32.45604,-6.31779 2.31873,2.44018 6.80129,0.34938 9.91949,2.05944 5.00936,2.8606 15.90218,13.39021 6.50736,29.95627 -9.39483,16.56609 -19.91628,27.35667 -28.60702,28.04467 -8.69074,0.68797 -14.68575,1.5027 -14.68575,1.5027 0,0 -17.94478,22.25106 -23.05463,24.87628 -5.10982,2.62523 -7.84579,0.21728 -7.84579,0.21728 z" fill="#FFFFFF" transform="translate(-88.85138,-109.73359) translate(-537.81392,-500.09756)"/>
    <path d="m 632.60332,708.90028 c -3.98054,-1.7325 -5.93802,-4.8615 -5.93802,-9.4922 0,-4.4971 2.19319,-7.6015 15.03966,-21.2886 7.74427,-8.2511 7.8446,-8.4185 6.5792,-10.9869 -1.5615,-3.1691 -0.77378,-9.0532 1.60538,-11.9914 1.64448,-2.0307 1.65082,-2.0246 2.28424,2.1992 0.34928,2.3294 1.23308,5.0255 1.96379,5.9904 0.73084,0.9652 1.34199,2.3961 1.35828,3.1793 0.016,0.7834 -5.44585,7.7999 -12.13805,15.5916 -12.8757,14.9916 -13.91118,17.1527 -9.31305,19.4366 1.87119,0.9294 2.83027,0.83 5.58583,-0.5795 3.7881,-1.9373 12.67203,-10.9511 18.65497,-18.9283 2.22708,-2.9691 4.87481,-5.8404 5.88413,-6.3804 1.00921,-0.5403 4.93634,-1.1443 8.72704,-1.3422 3.79055,-0.1979 8.06208,-0.965 9.49235,-1.7047 1.4303,-0.7398 6.1302,-5.0705 10.4445,-9.6243 8.7475,-9.2331 14.2061,-18.8206 15.2319,-26.7533 0.7431,-5.7457 -2.0687,-12.0401 -6.6537,-14.8958 -3.841,-2.3918 -3.8253,-3.2583 0.059,-3.2583 4.3137,0 9.0387,3.4136 11.6087,8.3862 1.8519,3.5835 2.1072,5.2139 1.7834,11.393 -0.5551,10.5934 -5.5147,20.1975 -16.2624,31.4915 -10.4289,10.9588 -13.2208,12.4375 -23.72741,12.5656 l -8.116,0.099 -3.94362,5.906 c -5.85347,8.7656 -14.18336,17.2286 -19.62758,19.9419 -5.4291,2.7054 -6.52184,2.8133 -10.58264,1.0459 z m 26.74452,-44.1881 c -3.01537,-2.8167 -3.71612,-4.7437 -1.72764,-4.7511 0.63999,0 -0.18211,-1.2658 -1.82714,-2.8075 -1.85832,-1.7417 -2.78291,-3.3451 -2.44171,-4.2341 0.77945,-2.0315 4.32451,-1.2563 4.9289,1.0776 0.69681,2.6909 8.09945,10.8842 9.43237,10.4397 0.61369,-0.2045 -1.01257,-2.7636 -3.72722,-5.8658 -5.31611,-6.0748 -5.99159,-9.3118 -1.9431,-9.3118 1.98521,0 2.32741,0.4271 2.32741,2.9044 0,2.3273 0.97814,3.7843 4.92393,7.334 2.70806,2.4362 5.16241,4.1907 5.45415,3.8991 0.29165,-0.2913 -1.14085,-2.5445 -3.18323,-5.0062 -4.79727,-5.783 -6.04304,-8.2904 -5.29286,-10.6537 0.44707,-1.4086 1.19006,-1.8068 2.79787,-1.4994 1.30519,0.2493 2.38426,-0.09 2.67206,-0.84 0.60767,-1.5835 4.22806,-1.6621 4.3726,-0.095 0.0586,0.64 0.16386,1.5917 0.23278,2.1145 0.0691,0.5228 2.10858,3.0224 4.53269,5.5541 3.24177,3.3862 4.68187,4.3286 5.44557,3.565 1.7981,-1.7981 -0.043,-4.8627 -5.3087,-8.8386 -5.3194,-4.0164 -6.19666,-6.5789 -2.43587,-7.1155 1.35506,-0.1931 2.30961,0.2977 2.71591,1.3968 1.02046,2.7598 8.92886,9.7261 9.91836,8.7368 1.0259,-1.0261 -6.0301,-9.4721 -8.7748,-10.5037 -1.11438,-0.4186 -1.77838,-1.5592 -1.77838,-3.0546 0,-4.0833 4.41128,-4.1797 5.00858,-0.1096 0.2388,1.6264 6.9605,8.953 8.2139,8.953 3.0132,0 -3.8332,-10.8365 -7.1712,-11.3506 -1.2858,-0.1979 -1.8619,-1.0031 -1.8619,-2.6014 0,-2.772 2.8221,-3.715 3.6796,-1.2295 0.8295,2.4042 7.764,10.0991 8.4673,9.3961 0.6286,-0.6286 -6.6881,-10.9328 -8.6503,-12.1822 -1.6512,-1.0514 -1.4532,-4.0677 0.3112,-4.7448 1.9101,-0.7329 3.1642,0.067 3.2141,2.0529 0.021,0.866 1.6965,3.4595 3.7214,5.764 3.199,3.6399 3.682,3.9145 3.6842,2.0947 0,-1.1523 -0.3864,-2.0947 -0.8619,-2.0947 -0.4754,0 -2.2065,-2.0714 -3.8467,-4.6024 -1.6403,-2.5316 -3.5553,-4.8226 -4.2559,-5.0912 -1.5945,-0.6122 -1.6805,-4.8535 -0.11,-5.4308 2.0433,-0.7514 3.4911,0.318 3.4911,2.5786 0,2.4226 1.4072,3.7013 4.0736,3.7013 1.0319,0 2.4836,1.3332 3.5484,3.2583 2.7536,4.9784 1.8748,10.5156 -3.0287,19.0863 -8.8286,15.4305 -18.54468,22.8076 -30.03803,22.8076 -4.46674,-0.28147 -6.5688,-0.54698 -8.9027,-2.7006 z m 22.2449,-4.7289 c 0,-0.3923 -2.23258,-3.216 -4.96127,-6.274 -4.60601,-5.162 -5.02258,-5.4203 -5.81858,-3.6087 -0.7186,1.6359 -0.10451,2.7176 3.79754,6.6879 4.06601,4.1368 6.98231,5.4713 6.98231,3.1948 z m -35.03927,-8.8593 c -0.32175,-0.8384 -0.15493,-1.9544 0.37075,-2.4802 1.51761,-1.5176 4.41192,-0.4945 4.41192,1.5592 0,2.368 -3.9365,3.1261 -4.78267,0.921 z m 6.49171,-4.7204 c -0.30792,-0.8025 -0.11345,-1.9053 0.43214,-2.4508 1.44814,-1.4484 3.91008,-0.177 3.91008,2.019 0,2.2958 -3.49359,2.6434 -4.34222,0.4318 z m 7.44774,-1.8619 c -0.30786,-0.8025 -0.11345,-1.9055 0.4322,-2.4508 1.44814,-1.4483 3.91011,-0.177 3.91011,2.0188 0,2.296 -3.49359,2.6437 -4.34231,0.432 z m -14.27718,-2.7302 c 0,-2.0156 0.37641,-2.4035 2.09469,-2.1595 1.37489,0.1952 2.09469,0.9371 2.09469,2.1595 0,1.2221 -0.7198,1.964 -2.09469,2.1595 -1.71828,0.2442 -2.09469,-0.1442 -2.09469,-2.1595 z m 21.40543,-0.01 c -0.87896,-1.0592 -0.93515,-1.7495 -0.20242,-2.4821 1.41231,-1.4124 4.13526,-0.1754 3.76924,1.7121 -0.41817,2.1556 -2.11312,2.5218 -3.56696,0.77 z m -13.49219,-2.3194 c -0.85953,-1.3909 0.33647,-2.7929 2.38235,-2.7929 1.18638,0 1.80703,0.6395 1.80703,1.8618 0,1.9749 -3.11633,2.6673 -4.18938,0.9311 z m 19.50029,-1.9431 c -0.81237,-1.3144 0.98188,-3.1088 2.29649,-2.2963 0.55672,0.344 1.01208,1.2292 1.01208,1.9672 0,1.5671 -2.3959,1.806 -3.30857,0.3291 z m -11.58697,-1.3443 c 0,-1.9146 2.78363,-2.8888 3.75641,-1.3147 1.03074,1.6676 0.26769,2.7402 -1.94938,2.7402 -1.00205,0 -1.80703,-0.635 -1.80703,-1.4255 z m -11.48205,-0.126 c -1.16759,-1.1676 -0.62225,-4.092 0.8698,-4.6646 1.95727,-0.7511 3.27596,1.4753 2.13573,3.606 -0.93834,1.7532 -1.95328,2.1106 -3.00553,1.0586 z m 8.23878,-2.7556 c -1.01782,-1.0179 -1.2201,-1.8426 -0.60308,-2.4596 1.2312,-1.2311 3.84635,-0.169 3.84635,1.5621 0,2.1458 -1.56264,2.5779 -3.24327,0.8975 z m 8.82214,-0.8215 c -0.87896,-1.0592 -0.93515,-1.7492 -0.20242,-2.4821 1.41231,-1.4123 4.13526,-0.1752 3.76924,1.7124 -0.41817,2.1555 -2.11312,2.5215 -3.56696,0.7697 z m 10.56895,-0.031 c -0.70255,-1.8304 0.12877,-2.6713 1.95029,-1.972 0.81828,0.3138 1.18792,1.1526 0.87154,1.977 -0.70577,1.8391 -2.11515,1.8367 -2.82183,-0.01 z m -5.5945,-4.6773 c -0.30786,-0.8025 -0.11345,-1.9053 0.43215,-2.4511 1.44811,-1.4481 3.91007,-0.1768 3.91007,2.019 0,2.2958 -3.49359,2.6437 -4.34222,0.4321 z m -18.00112,-1.3341 c 0,-1.5324 0.48252,-1.9227 2.09469,-1.6938 1.15206,0.1638 2.09469,0.926 2.09469,1.6938 0,0.7684 -0.94263,1.5307 -2.09469,1.6939 -1.61217,0.2294 -2.09469,-0.1611 -2.09469,-1.6939 z m 8.06845,1.2415 c -1.28152,-1.2817 -0.55293,-3.1033 1.24132,-3.1033 1.24124,0 1.86189,0.6207 1.86189,1.8618 0,1.7944 -1.82167,2.5228 -3.10321,1.2415 z m 17.99884,-1.7066 c 0,-0.9591 0.61012,-1.4158 1.62918,-1.2195 1.9623,0.3779 1.8386,2.0302 -0.1837,2.4511 -0.84346,0.176 -1.44563,-0.3373 -1.44563,-1.2316 z m -12.59341,-2.3683 c -0.85471,-1.383 1.30123,-3.6711 2.88621,-3.0628 2.04057,0.7829 1.65492,4.0344 -0.47859,4.0344 -0.99386,0 -2.07729,-0.4374 -2.40762,-0.9716 z m 7.64757,-0.5606 c -1.36944,-1.3695 -0.64921,-4.1918 0.98918,-3.8764 0.89604,0.1725 1.62919,1.1112 1.62919,2.0857 0,1.852 -1.51851,2.8908 -2.61837,1.7907 z m -14.14425,-2.1998 c -0.86532,-1.4002 0.41335,-4.6469 1.83019,-4.6469 1.74028,0 2.60238,2.7808 1.33538,4.3077 -1.2571,1.5148 -2.36569,1.6333 -3.16557,0.3392 z m 20.02104,-0.8033 c 0,-2.2696 1.17193,-3.1189 3.22003,-2.3328 2.1538,0.8266 1.3624,3.551 -1.1348,3.9074 -1.5669,0.2233 -2.08523,-0.168 -2.08523,-1.5746 z m -12.93569,-3.2599 c -1.55104,-1.869 -0.22853,-4.4585 2.10578,-4.124 2.28588,0.3278 3.21563,3.4144 1.37902,4.5786 -1.72561,1.0932 -2.25766,1.0239 -3.4848,-0.4546 z m 8.64388,-2.8419 c -0.84704,-2.2074 0.35141,-4.4365 2.19433,-4.0817 1.03057,0.1984 1.63196,1.1626 1.63196,2.6162 0,2.6538 -2.93841,3.7793 -3.82629,1.4655 z m 6.48784,-0.076 c -0.3286,-0.8562 0.053,-2.1754 0.8628,-2.9856 1.9776,-1.9775 4.6005,-0.8437 4.2215,1.8246 -0.3672,2.5855 -4.2017,3.4613 -5.0843,1.161 z" fill="#00B894" transform="translate(-88.85138,-109.73359) translate(-537.81392,-500.09756)"/>
</svg>