<?xml version="1.0" ?><svg height="125.13523mm" viewBox="0 0 46.269909 125.13523" width="46.269909mm" xmlns="http://www.w3.org/2000/svg">
    <path d="m 803.29667,584.22971 c 0.10239,-2.45801 7.1292,-4.90448 16.23351,-5.42378 9.10405,-0.51929 20.73407,0.8078 21.59317,6.39316 0.85937,5.58532 -0.43074,105.63614 -1.13612,109.19044 -0.70511,3.55431 -6.43678,4.58137 -9.65544,4.24672 -3.21839,-0.33467 -10.43755,-1.22325 -8.4246,-17.96772 2.01322,-16.74447 3.43668,-34.91992 3.43668,-34.91992 0,0 -20.45229,-4.17745 -20.88833,-6.31235 -0.43577,-2.13489 16.57985,-2.94269 19.82391,-2.67726 3.24432,0.2654 4.7879,-3.39987 4.67254,-7.70427 -0.11536,-4.3044 1.07712,-33.69667 1.19248,-36.05083 0.11536,-2.35416 -0.92313,-5.21605 -6.59077,-5.98924 -5.66764,-0.77317 -20.25703,-2.78495 -20.25703,-2.78495 z" fill="#FFFFFF" transform="translate(-109.87478,-15.090243) translate(-689.68353,-561.30291)"/>
    <path d="m 843.87947,695.19878 c -2.0742,4.4734 -6.6315,6.8244 -12.0978,6.2421 -11.8384,-1.261 -15.6987,-11.979 -11.2795,-31.3161 1.1875,-5.1961 2.2143,-12.1941 2.2818,-15.5511 0.118,-5.8561 0.03,-6.1056 -2.1561,-6.1497 -4.7667,-0.096 -17.0261,-4.9819 -18.9726,-7.5616 -3.6615,-4.8527 -2.5761,-5.3946 11.2751,-5.6295 11.0632,-0.1879 12.595,-0.4083 12.9026,-1.8571 0.3223,-1.5182 -0.6124,-1.6441 -12.2046,-1.6423 -11.306,0 -14.9018,-0.5043 -13.4553,-1.8939 0.2696,-0.259 6.2176,-0.8466 13.2177,-1.306 9.3475,-0.613 12.734,-1.1599 12.7521,-2.0595 0.018,-0.9805 -2.3638,-1.1522 -11.9486,-0.8604 -8.9316,0.2723 -13.56297,0.083 -14.06647,-0.76905 -1.28241,-3.38859 3.18243,-2.02419 13.59617,-2.72955 6.6316,-0.4471 12.2583,-0.9914 12.504,-1.2094 1.4657,-1.3004 -3.7015,-2.214 -13.7365,-2.4283 -8.7625,-0.1871 -12.64043,-0.49144 -12.32993,-1.37384 0.4449,-1.2642 9.53553,-2.13726 20.39223,-2.09386 11.7973,0.047 7.5003,-1.7513 -5.4647,-2.287 -8.7833,-0.3633 -14.64006,-1.04972 -14.84751,-1.90411 -0.48799,-2.00975 3.55861,-0.91269 8.23041,-0.82329 10.1441,0.1935 19.0534,-0.6881 18.6947,-1.8499 -0.198,-0.6416 -4.6094,-1.29577 -11.6423,-1.7264 -7.5321,-0.4612 -15.34502,0.0971 -15.02976,-1.98564 0.0795,-0.52486 7.79306,-0.57831 15.39236,-0.59566 11.0853,-0.0253 11.6449,-0.1188 11.682,-1.9608 0.031,-1.5344 -0.3966,-1.8397 -2.0655,-1.4756 -4.025,0.8781 -21.74799,0.75883 -23.72899,0.0857 -1.0965,-0.3723 -1.9826,-1.2282 -1.969,-1.9021 0.033,-1.6275 5.63549,-1.63303 12.96359,-1.61233 8.0516,0.021 16.6624,-0.9687 14.9331,-1.719 -0.7616,-0.3302 -6.5145,-0.8591 -12.7842,-1.1748 -6.9495,-0.3498 -13.76337,-1.12098 -14.40727,-1.79128 -2.0858,-2.1715 5.73257,-2.92922 17.46577,-2.19742 5.65256,-0.11373 16.39393,1.93553 5.1887,-0.7378 -3.3131,-0.7904 -12.45515,-1.7069 -16.11155,-1.8044 -7.479,-0.1998 -8.9549,-1.5071 -6.2166,-5.5082 2.9375,-4.2923 12.54555,-5.8115 24.45085,-5.6325 16.3566,0.2462 18.5826,1.9385 20.0526,15.2475 0.4535,4.1063 0.6212,28.4128 0.3728,54.0149 -0.3781,38.9488 -0.6776,47.0358 -1.8338,49.5292 z m -5.1423,-110.4373 c -1.5297,-3.1099 -4.2173,-4.0431 -12.0203,-4.1736 -5.07192,-0.49913 -29.50954,3.47829 -16.42205,3.773 10.1677,0.1913 21.66493,1.43781 21.68956,3.96227 0.0356,3.64905 -0.73905,45.66694 -0.70176,48.0402 0.0482,3.07128 -9.18645,2.46543 -14.94585,2.62603 -9.34995,0.44233 -13.34407,-0.33473 -1.9711,2.1932 3.86782,0.85972 10.06773,0.52431 12.3056,1.7375 1.6802,0.9432 1.7684,1.8574 1.242,12.8717 -0.3999,8.369 -1.1801,13.8795 -2.6523,18.7352 -4.3862,14.4663 -2.3121,21.6228 6.3704,21.9799 3.061,0.126 4.7663,-0.269 5.5408,-1.2842 0.8278,-1.0854 1.3556,-15.2784 2.0294,-54.5661 0.7843,-45.7364 0.72,-53.4872 -0.4644,-55.8951 z" fill="#00B894" transform="translate(-109.87478,-15.090243) translate(-689.68353,-561.30291)"/>
</svg>