<?xml version="1.0" ?><svg height="313.03552mm" viewBox="0 0 159.92464 313.03552" width="159.92464mm" xmlns="http://www.w3.org/2000/svg">
    <path d="m 29149.797,10437.168 c -2.762,-0.262 -6.25,2.922 -10.547,11.412 -15.278,30.187 -26.221,77.8 -5.406,86.744 28.411,5.21 23.001,-39.489 24.363,-59.758 0.979,-14.569 -1.349,-37.73 -8.41,-38.398 z m -168.098,54.164 c -2.005,-0.02 -4.714,3.084 -8.289,10.873 -13.46,29.322 -24.905,76.253 -10.049,86.254 20.763,6.67 19.848,-38.201 22.27,-58.35 1.779,-14.798 1.612,-38.724 -3.932,-38.777 z m 261.955,112.504 c -2.072,0.106 -4.192,2.887 -6.162,9.758 -7.007,24.432 -8.368,61.524 8.221,65.984 21.659,0.811 11.387,-32.29 9.539,-47.719 -1.329,-11.09 -6.304,-28.294 -11.598,-28.023 z m -189.086,13.797 c -2.072,-0.12 -4.446,3.231 -7.064,11.918 -9.31,30.892 -14.21,78.949 1.877,86.818 21.482,3.758 14.418,-40.562 14.053,-60.853 -0.262,-14.585 -3.57,-37.574 -8.866,-37.883 z m 111.936,137.066 c -2.633,0.137 -5.329,3.737 -7.834,12.629 -8.91,31.614 -10.638,79.611 10.453,85.383 27.539,1.049 14.474,-41.782 12.125,-61.748 -1.689,-14.351 -8.012,-36.615 -14.744,-36.264 z m -208.775,41.58 c -1.909,-0.06 -4.072,2.187 -6.415,7.95 -8.33,20.49 -12.463,52.252 2.407,57.25 19.806,2.221 12.958,-26.932 12.465,-40.315 -0.355,-9.619 -3.579,-24.745 -8.457,-24.885 z m 304.41,35.055 c -2.071,0.106 -4.193,2.889 -6.164,9.76 -7.007,24.432 -8.367,61.524 8.222,65.984 21.659,0.811 11.385,-32.292 9.537,-47.721 -1.328,-11.09 -6.301,-28.294 -11.595,-28.023 z m -200.186,104.254 c -39.909,-0.05 -103.106,14.233 -152.123,44.629 -56.019,34.738 -101.588,98.768 -117.449,150.834 -15.862,52.065 -5.226,48.6 8.435,50.25 l 244.063,5.189 c 0,0 5.145,234.055 10.074,277.776 4.929,43.721 -22.909,114.904 61.35,109.953 84.258,-4.951 59.869,-123.688 54.826,-144.729 -5.043,-21.041 -34.014,-17.988 -36.215,-0.66 -2.2,17.328 -9.535,44.227 -12.928,68.32 -3.392,24.094 -26.497,16.998 -29.431,-3.052 -2.934,-20.051 -12.832,-307.022 -12.832,-307.022 0,0 199.78,-2.723 245.347,-4.373 45.568,-1.65 35.665,-11.882 31.172,-27.973 -4.492,-16.09 -65.004,-125.831 -125.791,-168.738 -60.787,-42.907 -115.797,-44.804 -152.93,-49.508 -4.641,-0.588 -9.867,-0.888 -15.568,-0.896 z" fill="#FFFFFF" transform="translate(-0.96517347,2.2372556) matrix(0.26458333,0,0,0.26458333,-6735.1285,-2110.2845) translate(-3313.5291,-2437.8203)"/>
    <path d="m 25841.168,7967.4337 c -1.749,0.06 -3.335,0.347 -4.336,0.851 -4.209,2.121 -9.469,11.438 -12.816,22.69 -1.284,4.317 -3.758,12.262 -5.498,17.654 -1.739,5.393 -3.849,13.35 -4.69,17.68 -0.841,4.331 -2.433,10.074 -3.541,12.764 -3.631,8.819 -6.32,33.707 -4.777,44.205 2.052,13.123 5.288,22.751 19.623,23.406 15.468,0.26 28.26,-8.926 30.442,-21.861 5.312,-34.442 -3.636,-67.474 -4.817,-101.86 l 1.74,-13.488 -6.015,-1.512 c -1.654,-0.415 -3.566,-0.587 -5.315,-0.529 z m -172.283,46.717 c -3.381,0.483 -6.088,3.515 -7.285,8.691 -9.733,36.977 -39.407,87.081 -26.551,129.012 4.854,4.914 12.951,5.879 19.236,6.469 27.428,2.838 32.793,-31.224 32.444,-59.598 1.125,-38.995 0.595,-45.705 -3.893,-49.238 -2.696,-2.121 -3.333,-5.583 -3.008,-16.379 0.37,-12.319 -0.06,-14.022 -4.308,-16.989 -2.334,-1.632 -4.606,-2.258 -6.635,-1.968 z m 166.537,10.779 c 0.742,-0.286 0.982,2.33 0.631,8.033 -0.332,5.411 -0.179,17.521 0.34,26.916 0.898,16.206 0.708,17.289 -3.721,21.174 -16.99,14.758 -4.463,-22.213 -4.717,-31.367 3.603,-15.739 6.232,-24.279 7.467,-24.756 z m -168.238,56.588 c 0.911,0.39 0.962,5.636 -0.1,15.627 -2.004,18.932 -5.092,31.95 -8.517,35.881 -4.462,5.119 -5.832,2.124 -4.137,-9.035 0.946,-6.235 2.392,-12.649 3.213,-14.258 0.821,-1.61 2.834,-8.231 4.472,-14.717 2.382,-9.424 4.154,-13.888 5.065,-13.498 z m 259.957,35.31 c -0.441,0 -0.818,0.132 -1.111,0.409 -0.689,0.648 -1.4,5.704 -1.586,11.234 -0.182,5.53 -1.846,15.357 -3.694,21.836 -10.909,38.235 -14.768,57.363 -14.168,70.26 0.674,14.502 2.49,19.632 9.944,28.123 7.819,8.905 24.583,7.574 34.494,-2.74 5.244,-5.457 7.919,-31.724 4.34,-42.618 -1.538,-4.679 -3.304,-12.089 -3.926,-16.463 -3.794,-26.702 -6.608,-41.175 -9.291,-47.8 -0.894,-2.205 -2.611,-6.892 -3.815,-10.414 -1.919,-5.622 -8.101,-11.841 -11.187,-11.827 z m -181.594,51.055 c -5.77,-0.111 -10.77,9.595 -14.508,28.936 -11.071,57.293 -11.242,75.069 -0.839,86.865 6.065,6.878 12.249,5.992 21.388,-3.055 9.892,-9.793 11.333,-16.121 12.496,-54.836 0.802,-26.679 0.53,-29.459 -3.904,-39.75 -5.191,-12.048 -10.145,-18.073 -14.633,-18.16 z m 187.061,21.391 c 3.291,0.1 4.208,25.957 1.424,40.14 -2.079,10.588 -5.048,9.939 -7.459,-1.632 -1.326,-6.362 3.724,-38.578 6.035,-38.508 z m -187.889,7.226 1.33,8.951 c 0.76,5.107 0.147,17.844 -1.428,29.659 v 0 c -3.363,25.221 -5.237,31.184 -6.836,21.73 -0.607,-3.594 -0.517,-7.423 0.2,-8.508 0.715,-1.086 1.858,-6.973 2.535,-13.086 0.678,-6.113 1.54,-12.885 1.918,-15.052 0.377,-2.167 1.041,-8.386 1.48,-13.817 z m 104.063,91.709 c -2.035,-0.124 -3.302,2.011 -3.069,6.448 0.171,3.23 -2.16,15.6 -5.178,27.488 -12.313,48.51 -14.248,80.008 -5.628,91.603 10.447,10.373 27.147,13.742 40.152,3.559 5.872,-5.53 6.159,-6.512 6.717,-23.109 0.635,-19.964 -19.767,-79.35 -25.321,-98.885 -2.838,-4.597 -5.639,-6.98 -7.673,-7.104 z m -204.887,23.186 c -4.358,-0.172 -6.266,5.893 -6.654,18.832 -0.238,7.911 -1.766,17.257 -3.399,20.787 -3.798,8.216 -9.755,32.43 -11.812,48.014 -1.977,14.982 -0.468,25.465 4.414,30.65 v 0 c 4.807,5.109 9.071,5.128 22.521,0.104 8.805,-3.29 11.585,-5.454 14.092,-10.963 5.834,-12.822 6.131,-22.088 1.375,-42.864 -3.533,-15.47 -2.426,-41.807 -9.848,-57.65 -4.578,-4.455 -8.075,-6.803 -10.689,-6.906 z m 209.826,25.537 c 0.468,0.136 1.283,4.396 3.037,12.43 1.842,8.224 4.122,17.704 5.068,21.068 0.947,3.362 2.091,12.878 2.54,21.146 v 0 c 0.172,3.242 1.368,26.952 -12.588,14.237 -4,-4.248 -4.728,-6.963 -4.44,-16.559 0.19,-6.313 1.347,-14.562 2.571,-18.33 1.225,-3.767 2.513,-13.525 2.863,-21.682 0.364,-8.459 0.483,-12.446 0.951,-12.31 z m 90.523,35.504 c -0.979,0.09 -2.006,0.452 -3.181,1.037 -4.16,2.305 -5.19,25.146 -6.731,33.668 -6.338,31.288 -4.437,56.502 5.135,68.09 2.412,2.919 5.047,3.543 12.77,3.01 11.338,-0.779 20.342,-7.537 23.447,-17.598 4.968,-16.091 -2.876,-57.06 -21.174,-80.18 -4.82,-6.092 -7.329,-8.294 -10.266,-8.027 z m -299.912,17.318 c 0.54,0 0.926,1.717 1.432,5.563 0.62,4.702 -0.107,9.929 -1.906,13.717 l -2.905,6.119 0.276,-9.893 c 0.151,-5.441 1.007,-11.613 1.904,-13.717 0.495,-1.161 0.875,-1.786 1.199,-1.789 z m 309.024,46.545 c 0.852,0.389 1.355,3.935 1.205,8.949 -0.279,9.294 -2.128,14.283 -2.401,6.479 -0.07,-1.907 -0.337,-5.906 -0.601,-8.887 -0.265,-2.979 0.37,-5.91 1.41,-6.51 0.135,-0.08 0.265,-0.09 0.387,-0.03 z m -194.99,1.658 c -17.02,0.788 -13.454,3.959 -13.088,19.041 0.174,15.636 0.588,15.186 -0.909,30.953 l -18.742,1.42 c -68.547,4.811 -108.425,25.368 -147.574,51.512 -65.386,45.751 -116.008,117.137 -118.801,192.252 0.299,15.317 1.904,18.291 10.664,19.772 60.432,6.454 128.182,1.649 193.516,4.287 h 58.178 l 0.435,16.035 c 0.296,10.945 0.668,27.573 0.826,36.949 0.315,18.687 2.655,78.6 4.332,110.883 0.585,11.263 1.189,26.615 1.342,34.117 0.153,7.502 0.859,20.175 1.567,28.162 0.708,7.987 1.87,23.741 2.584,35.008 0.713,11.267 1.844,24.72 2.511,29.894 -6.484,78.772 21.006,126.008 95.707,90.092 8.123,-3.228 21.164,-16.319 32.67,-32.793 12.146,-17.387 16.279,-67.119 8.432,-101.441 -1.219,-5.331 -2.571,-12.139 -3.006,-15.131 -0.946,-6.511 -9.217,-18.147 -14.121,-19.867 -17.227,-5.535 -37.262,0.985 -46.272,16.672 -3.009,5.485 -3.781,9.462 -3.716,19.127 0.09,13.181 -6.151,53.649 -8.633,55.986 -2.439,2.297 -4.866,-4.517 -8.01,-22.496 -2.391,-13.675 -2.642,-20.764 -1.369,-38.449 1.344,-18.673 2.047,-22.141 5.062,-24.981 1.926,-1.813 3.538,-4.578 3.586,-6.142 0.106,-3.511 -4.565,-9.217 -7.619,-9.309 -2.989,-0.09 -3.515,-3.865 -4.027,-28.848 -0.238,-11.59 -1.007,-22.733 -1.709,-24.761 -0.702,-2.029 -1.604,-9.065 -2.002,-15.635 -0.398,-6.57 -1.317,-18.096 -2.041,-25.615 -0.724,-7.519 -1.086,-35.558 -0.803,-62.309 l 0.479,-45.148 h 102.33 c 31.694,-1.531 64.762,-3.345 96.33,-3.641 13.929,-0.674 32.562,-1.238 41.406,-1.252 15.539,-0.02 26.767,-0.03 40.596,-4.932 4.999,-4.168 5.778,-5.84 4.906,-10.517 -0.57,-3.059 -1.75,-7.115 -2.619,-9.012 -0.869,-1.897 -3.537,-9.253 -5.928,-16.346 -5.02,-14.729 -13.151,-30.853 -20.801,-46.503 -16.193,-24.226 -33.525,-48.003 -52.123,-69.532 -32.398,-37.505 -68.635,-68.192 -109.375,-82.566 -24.503,-9.651 -58.588,-18.559 -89.959,-21.432 -12.804,0.621 -7.879,-23.326 -8.906,-40.351 0.532,-8.353 -0.82,-13.823 -15.306,-13.153 z m -23.606,75.051 c 1.545,-0.06 3.322,-0.07 5.576,0.01 2.351,0.08 3.806,0.282 3.795,0.582 -0.02,0.599 -2.937,3.21 -6.48,5.803 -6.46,4.727 -18.515,23.217 -28.467,43.666 -17.932,37.852 -22.393,94.677 -27.033,129.15 -1.916,8.383 -3.698,21.18 -3.963,28.436 -0.415,11.367 -0.95,13.197 -3.852,13.236 -16.026,0.205 -46.732,-0.68 -60.062,-1.731 l -16.309,-1.287 0.881,-17.476 c 1.392,-27.62 9.965,-63.787 17.377,-76.258 25.718,-43.274 39.6,-76.631 82.219,-102.734 17.923,-10.784 20.911,-13.475 19.633,-17.69 -0.632,-2.082 0.16,-2.994 2.582,-2.965 6.94,0.01 9.469,-0.569 14.103,-0.738 z m -43.08,3.108 v 0 c 3.41,-0.179 6.727,-0.174 9.93,0.03 0.926,0.08 1.336,0.281 0.857,0.642 -0.848,0.641 -5.568,2.982 -10.488,5.201 -49.113,22.5 -79.589,74.562 -98.658,115.819 -8.667,18.751 -12.821,40.723 -13.754,68.24 l -0.85,25.066 -5.111,0.854 c -2.812,0.467 -9.746,0.686 -15.408,0.48 -5.663,-0.204 -31.817,-0.252 -48.344,-0.105 -16.586,0.147 -30.485,-0.411 -31.022,-1.248 6.055,-44.618 32.446,-89.4 58.551,-125.27 30.694,-42.175 103.141,-87.021 154.297,-89.716 z m 130.943,0.728 c 0.661,0.06 1.716,0.301 3.127,0.629 3.15,0.732 9.151,2.525 13.334,3.986 60.518,16.945 87.874,48.512 128.58,89.684 7.061,8.586 18.771,24.615 26.022,35.621 8.421,12.766 19.723,27.731 25.152,44.498 4.527,8.913 8.498,17.672 8.824,19.463 0.327,1.791 1.468,4.813 2.536,6.715 3.881,6.915 2.343,8.222 -11.633,9.886 -7.377,0.879 -18.507,1.461 -24.735,1.295 -6.227,-0.165 -11.88,0.164 -12.562,0.733 -0.682,0.568 -8.02,1.042 -16.307,1.056 -8.287,0.01 -17.686,0.461 -20.886,0.995 -7.796,1.3 -9.391,-0.706 -4.217,-5.299 4.923,-4.371 4.768,-7.061 -2.112,-36.356 -20.931,-75.408 -57.974,-126.218 -115.32,-166.037 -6.212,-5.599 -1.786,-7.047 0.197,-6.869 z m -36.541,0.756 c 12.06,-1.617 70.413,55.348 88.838,85.023 6.57,10.581 26.103,38.536 28.822,45.223 1.349,3.316 4.285,9.966 6.524,14.777 2.239,4.812 7.135,20.699 10.879,35.303 3.744,14.604 7.287,27.77 7.875,29.26 1.415,3.583 -1.802,4.422 -19.863,5.176 -48.541,2.025 -85.76,2.738 -87.571,1.679 -1.491,-0.872 -1.24,-3.53 0.889,-9.39 3.263,-8.98 1.892,-65.336 -5.106,-96.285 -9.697,-42.892 -16.141,-71.802 -30.599,-101.932 -1.923,-4.007 -2.373,-8.084 -1.707,-8.49 0.29,-0.177 0.63,-0.292 1.019,-0.344 z m -31.974,1.582 c 0.871,-0.08 1.988,0.515 3.611,1.588 3.627,2.397 7.223,7.182 9.902,13.18 26.421,59.621 43.049,125.484 36.702,193.353 l -1.809,7.934 -10.029,0.787 c -10.776,0.847 -84.109,-0.156 -91.243,-1.248 -4.973,-0.761 -4.934,-0.291 -1.714,-19.139 4.57,-46.786 9.629,-85.561 21.004,-130.971 8.505,-22.857 17.231,-39.503 30.011,-58.529 1.336,-4.809 2.112,-6.821 3.565,-6.955 z m -8.211,238.012 h 8.695 c 0.61,3.623 0.504,11.332 0.162,28.949 3.543,61.982 4.105,118.251 12.666,165.092 l 0.178,8.525 -8.07,0.277 c -5.519,0.19 -8.267,-0.431 -8.694,-1.964 -6.32,-67.409 -4.979,-118.698 -4.937,-200.879 z m 8.105,220.4 c 0.41,-0.04 0.912,-0.03 1.471,0 1.118,0.07 2.468,0.28 3.779,0.609 l 4.77,1.2 -1.369,20.754 c -0.938,14.209 -0.684,25.342 0.802,35.302 3.08,20.636 3.795,24.072 6.422,30.864 3.223,8.289 7.656,17.103 21.037,19.332 11.575,2.242 15.114,0.773 22.623,-9.397 5.1,-6.906 6.77,-13.908 11.731,-49.166 4.869,-34.611 6.686,-38.835 16.623,-38.666 1.774,0.03 5.093,8.331 6.338,15.854 4.061,24.531 4.883,33.083 4.467,46.402 -0.516,16.471 -3.125,27.659 -9.329,40.008 -5.165,9.987 -19.888,24.135 -31.078,29.535 -16.391,7.115 -33.346,7.999 -47.242,-6 -10.768,-12.439 -8.51,-55.858 -11.623,-75.779 -2.679,-30.738 -1.964,-59.697 -0.342,-60.633 0.193,-0.111 0.51,-0.183 0.92,-0.219 z" fill="#00B894" transform="translate(-0.96517347,2.2372556) matrix(0.26458333,0,0,0.26458333,-6735.1285,-2110.2845)"/>
</svg>