<?xml version="1.0" ?><svg height="179.96677mm" viewBox="0 0 206.16585 179.96677" width="206.16585mm" xmlns="http://www.w3.org/2000/svg">
    <path d="m 4083.8652,14943.28 -68.4951,-241.377 c 0,0 -44.6003,-128.721 -56.9039,-153.131 -12.3035,-24.411 -20.2728,-50.205 -20.2728,-50.205 l 130.3057,-126.582 181.5694,-4.08 128.8156,-83.621 195.5559,26.536 c 0,0 39.6097,88.721 50.9345,143.959 11.3249,55.238 40.1263,196.164 55.5058,242.846 15.3795,46.682 18.5015,92.697 18.5015,92.697 0,0 -51.9168,1.296 -72.8888,-2.479 -20.9719,-3.775 -96.8904,-9.941 -96.8904,-9.941 l -161.1075,88.707 -163.6762,-8.81 c 0,0 -80.8407,62.37 -120.9537,85.481 z" fill="#FFFFFF" transform="translate(93.995338,18.108554) matrix(0.26458333,0,0,0.26458333,-2011.3822,-4440.1632) translate(3313.5291,2437.8203)"/>
    <path d="m 7385.7925,17377.933 c -3.9158,-8.545 -11.2512,-27.163 -16.3011,-41.376 -15.1944,-54.964 -27.1781,-106.7 -38.734,-150.753 -19.0199,-72.33 -35.3335,-121.83 -58.1982,-176.594 -28.1628,-67.451 -28.399,-68.256 -23.0201,-78.523 6.2243,-11.878 95.5877,-110.717 110.1393,-121.815 l 11.4025,-8.698 91.7017,-2.385 c 50.4356,-1.313 95.3806,-3.454 99.8771,-4.762 4.4968,-1.307 21.4203,-11.856 37.6081,-23.44 16.1877,-11.584 35.0407,-23.923 41.8952,-27.421 6.8548,-3.497 20.3964,-11.432 30.0928,-17.635 16.2499,-10.394 19.6258,-11.275 43.1314,-11.253 14.2997,0 42.4123,3.544 63.9987,8.038 21.1735,4.404 52.8133,10.337 70.3106,13.185 17.4975,2.848 35.0627,6.529 39.0341,8.182 14.2627,5.938 35.0709,57.443 52.8502,130.813 8.9349,36.871 17.9532,78.076 20.0409,91.566 7.7912,50.346 20.8401,104.647 38.1144,158.608 33.0447,103.226 33.5087,108.931 9.3828,115.385 -44.053,-2.233 -83.2073,-1.436 -147.57,-15.845 -19.401,-4.343 -81.5008,30.953 -133.741,62.005 -34.0852,27.843 -58.1572,26.738 -99.743,25.137 -29.6776,-1.143 -65.6046,-4.028 -79.8381,-6.407 -17.8437,-4.189 -23.6875,-6.821 -35.1378,6.218 -19.6137,22.339 -103.2202,83.304 -114.2421,83.304 -3.9005,0 -8.3749,-5.325 -13.0544,-15.534 z m 73.48,-71.583 c 9.8755,-30.493 22.4995,-58.173 28.109,-61.642 3.9453,-2.438 4.3465,-17.904 0.617,-23.779 -1.8101,-2.852 -18.0192,12.033 -52.6376,48.333 l -50.0222,52.456 3.8076,15.434 c 2.0943,8.489 5.2569,20.952 7.0279,27.692 2.2916,23.285 17.7253,0.255 28.4667,-8.632 24.9773,-20.664 25.3464,-21.196 34.6316,-49.862 z m 43.9907,-13.14 c 0.6068,-0.331 -0.669,-9.141 -2.8353,-19.575 l -3.9388,-18.971 -7.7808,9.72 c -7.2944,9.112 -14.3265,26.95 -19.1016,48.458 l -2.0664,9.305 17.3098,-14.167 c 9.5205,-7.792 17.8064,-14.438 18.4131,-14.77 z m -59.164,-50.672 40.5592,-41.375 -7.1786,-38.747 c -13.3537,-72.078 -13.9504,-74.123 -23.1056,-79.262 -8.4795,-4.761 -13.6433,-2.492 -36.4762,16.026 -1.3779,1.116 3.381,8.408 10.5755,16.2 23.9251,25.915 31.7521,60.93 20.9127,93.553 -7.1376,21.481 -38.5853,65.075 -55.9303,77.53 -14.5185,10.426 -15.205,11.581 -11.9437,20.08 1.5197,3.958 4.3433,1.908 12.0072,-8.727 5.5112,-7.647 28.272,-32.522 50.5798,-55.278 z m 211.8352,37.288 c -1.26,-6.745 -2.8,-12.781 -3.4223,-13.414 -2.0212,-2.055 -33.2162,8.569 -40.9457,15.089 -8.9162,7.521 -6.772,6.144 3.4176,7.704 6.3191,0.968 18.5997,2.217 27.3436,2.453 l 15.8976,0.432 z m 38.1202,4.096 9.7044,-8.165 -9.0178,-3.429 c -15.2936,-5.813 -20.1872,-3.179 -16.9552,9.132 1.5346,5.846 3.6392,10.63 4.6772,10.63 1.038,0 6.2542,-3.675 11.5914,-8.168 z m -114.0475,-12.025 c 21.8202,-24.309 43.2272,-38.673 57.6391,-38.673 h 12.3504 l -1.6099,-17.168 c -1.7897,-19.087 -5.0168,-23.004 -17.0516,-20.692 -27.159,5.215 -103.2363,34.591 -118.3864,45.709 -5.1541,3.783 -5.1909,5.507 -0.5036,23.463 2.7826,10.657 5.5223,20.112 6.0884,21.012 0.5661,0.9 11.5422,1.636 24.3913,1.636 h 23.3619 z m 28.1675,9.032 c 4.0765,-4.339 15.8836,-11.059 26.2379,-14.929 16.8449,-6.301 18.6658,-7.881 17.3037,-15.004 -1.2626,-6.604 -3.447,-7.961 -12.8151,-7.961 -12.8874,0 -31.6544,11.793 -51.5605,32.401 l -12.9272,13.381 h 13.1747 c 9.6972,0 15.1309,-2.082 20.5865,-7.888 z m -205.783,-14.438 c 35.7587,-37.58 49.189,-76.963 37.8684,-111.046 -5.7134,-17.201 -28.5781,-46.491 -36.2928,-46.491 -8.0142,0 -7.9961,5.398 0.054,16.311 11.9746,16.229 16.3794,42.552 11.5983,69.303 -3.8473,21.53 -20.0613,59.976 -32.8923,77.995 -7.5171,10.557 -7.9793,12.985 -2.4718,12.985 2.2003,0 12.1614,-8.577 22.1358,-19.057 z m 314.7878,1.424 c 3.1478,-2.39 5.7231,-5.125 5.7231,-6.082 0,-3.848 -27.1349,-12.259 -39.5492,-12.259 -19.7275,0 -15.9295,9.119 6.8464,16.441 22.3831,7.194 20.2071,7.042 26.9797,1.9 z m -331.6158,-20.793 c 25.9225,-51.84 28.5989,-93.279 7.6455,-118.377 -8.7614,-10.495 -8.9736,-10.556 -16.0055,-4.584 -7.0318,5.969 -7.0551,6.315 -1.7664,26.062 5.1416,19.195 5.0712,21.329 -1.7241,52.324 -5.8521,26.692 -6.4855,35.014 -3.6414,47.847 1.8935,8.542 4.0381,15.532 4.7658,15.532 0.7279,0 5.5546,-8.461 10.7261,-18.804 z m 356.1412,6.298 c 2.9533,-1.874 -2.3163,-11.837 -19.0017,-35.922 -12.6986,-18.329 -23.8941,-33.327 -24.8794,-33.327 -0.985,0 -8.9898,3.301 -17.7886,7.338 -14.8585,6.817 -15.9742,8.155 -15.6713,18.805 0.6961,24.478 3.1191,27.595 23.4283,30.138 10.2057,1.276 24.1199,5.26 30.9207,8.848 13.8096,7.289 17.0798,7.875 22.992,4.12 z m 22.4682,-15.133 c 1.8447,-4.807 -46.2082,-70.469 -51.5716,-70.469 -7.8567,0 -2.5181,10.106 28.9406,54.776 14.6794,20.846 19.3976,24.118 22.631,15.693 z m -173.767,-44.426 c 14.361,-3.774 26.7822,-7.534 27.6026,-8.356 0.8202,-0.819 -0.7811,-3.762 -3.5588,-6.541 -4.5535,-4.552 -8.2337,-4.258 -37.4134,3.009 -31.1259,7.753 -63.4752,18.732 -72.7734,24.696 -3.0303,1.943 -3.7424,6.009 -2.2457,12.826 l 2.1914,9.977 30.0431,-14.373 c 16.5238,-7.904 41.793,-17.461 56.1542,-21.238 z m 209.0669,27.392 c 10.5157,-5.013 11.5397,-6.828 13.3834,-23.71 1.0981,-10.054 3.7771,-23.34 5.9539,-29.529 3.4663,-9.851 2.6725,-16.218 -6.3947,-51.3 -15.941,-61.67 -43.5333,-140.259 -49.2103,-140.156 -1.4822,0.03 -10.6354,2.79 -20.3407,6.144 l -17.6459,6.095 1.7476,74.164 c 1.3153,55.824 0.7387,76.048 -2.3319,81.785 -3.7952,7.091 -1.9192,10.211 26.9297,44.779 17.055,20.439 32.2494,37.159 33.7654,37.159 1.516,0 7.8805,-2.444 14.1435,-5.431 z m 200.688,-24.819 c -3.7124,-13.041 -7.7458,-27.389 -8.9634,-31.885 -2.0978,-7.748 -3.7418,-8.275 -31.4237,-10.075 -16.0653,-1.045 -29.4398,-1.781 -29.7209,-1.636 -0.2809,0.147 4.1338,14.186 9.8107,31.203 11.6633,34.956 11.9996,35.213 46.8602,35.778 l 20.1871,0.323 z m -631.7757,-12.241 c 2.0284,-15.292 -2.9589,-44.029 -8.204,-47.271 -1.1525,-0.712 -5.2017,1.165 -8.9982,4.172 l -6.9026,5.468 8.4431,33.83 c 9.0098,36.096 11.3035,36.653 15.6617,3.801 z m 465.4134,24.117 c 0.7382,-0.665 -0.529,-9.57 -2.8167,-19.793 -4.7326,-21.147 -8.03,-18.729 -11.0337,8.094 -1.8756,16.752 -1.694,17.271 5.2829,15.128 3.9736,-1.221 7.829,-2.764 8.5675,-3.429 z m 98.3406,-24.914 c -4.9231,-16.615 -8.1702,-32.243 -7.2159,-34.73 1.3068,-3.405 5.8531,-4.038 18.404,-2.566 16.9945,1.994 41.2362,-0.393 41.1456,-4.054 -0.1716,-6.954 -8.4094,-10.196 -35.7192,-14.059 l -30.785,-4.354 -4.1921,-17.968 c -2.3058,-9.882 -4.2547,-20.524 -4.3308,-23.646 -0.157,-6.4 16.5006,-14.5 36.3313,-17.672 6.9212,-1.106 12.584,-3.572 12.584,-5.475 0,-4.669 -17.014,-82.02 -18.4036,-83.666 -3.2286,-3.829 -27.6582,18.44 -34.9702,31.876 -12.0074,22.059 -13.4128,36.77 -7.2612,76.001 5.6167,35.819 4.4835,57.955 -5.2112,101.797 -2.2739,10.284 -3.2489,19.582 -2.1662,20.664 2.1985,2.2 29.0487,7.081 42.2079,7.674 l 8.5334,0.386 z m -50.8579,16.307 c 4.8951,-23.528 8.9383,-78.3 7.2644,-98.406 -1.0721,-12.874 -2.0124,-24.883 -2.09,-26.681 -0.2874,-6.681 -6.4827,6.831 -6.5308,14.243 -0.032,4.982 -7.0294,14.805 -19.8006,27.796 -10.8627,11.055 -20.4875,23.038 -21.388,26.636 -0.9006,3.599 1.0481,18.315 4.3305,32.702 l 5.968,26.164 12.9673,1.989 c 7.132,1.094 14.0429,2.197 15.3579,2.452 1.3146,0.255 3.0792,-2.847 3.9213,-6.895 z m -366.6807,-11.988 c 13.1224,-5.624 37.1157,-12.855 76.2197,-22.967 11.7108,-3.029 13.2534,-4.476 11.9625,-11.229 -2.2496,-11.767 7.8206,-28.083 20.6404,-33.44 9.9194,-4.145 11.0342,-5.786 9.2704,-13.641 -1.1025,-4.911 -6.6024,-12.61 -12.222,-17.106 -5.6196,-4.496 -19.5249,-15.998 -30.9004,-25.559 l -20.683,-17.384 -17.6814,2.207 -17.6814,2.209 19.7383,25.465 c 24.3098,31.362 28.2716,47.273 14.4733,58.126 -13.0773,10.287 -36.1856,18.182 -46.0069,15.717 -4.681,-1.175 -15.1692,-8.276 -23.3073,-15.776 l -14.7965,-13.639 2.2766,12.933 c 1.252,7.112 4.3184,22.962 6.814,35.22 2.4956,12.259 4.5377,22.928 4.5377,23.708 0,2.298 1.9566,1.753 17.346,-4.844 z m 165.7883,-10.6 c 15.0189,-9.225 7.6528,-11.661 -7.761,-2.566 -6.5232,3.848 -11.8604,7.589 -11.8604,8.31 0,3.343 9.2204,0.645 19.6214,-5.744 z m -36.7482,-5.62 c -0.6707,-3.248 -3.591,-4.873 -7.5186,-4.182 -8.8297,1.551 -9.6137,2.865 -5.0139,8.408 4.964,5.982 14.0101,2.931 12.5325,-4.226 z m 33.3754,-19.46 c 0.066,-2.808 -3.2033,-1.655 -9.283,3.273 -5.1622,4.182 -8.753,8.712 -7.9796,10.063 2.0171,3.525 17.1399,-8.155 17.2626,-13.336 z m -36.791,-0.568 c 1.7081,0 -3.4053,-21.467 -5.725,-24.037 -4.2834,-4.74 -16.246,10.382 -16.246,20.54 0,9.251 0.3657,9.476 10.6067,6.54 5.8338,-1.672 10.9476,-3.043 11.3643,-3.043 z m 25.7298,-18.44 c -1.1138,-3.347 -5.0455,-9.766 -8.737,-14.262 l -6.7118,-8.175 2.1789,16.35 c 1.1985,8.994 2.9455,17.597 3.8825,19.118 3.0656,4.979 11.4889,-6.713 9.3874,-13.031 z m 47.3059,3.186 c 2.6295,-7.946 2.2873,-13.065 -1.4764,-22.074 -5.429,-12.992 -11.7739,-15.555 -11.7739,-4.753 0,3.833 -3.0862,11.967 -6.8584,18.069 -8.5639,13.858 -6.5053,19.94 6.5891,19.469 8.2951,-0.296 10.7066,-2.207 13.5196,-10.711 z m -358.5059,-7.242 c 2.1154,-3.425 -12.6466,-20.017 -17.8073,-20.017 -2.0056,0 -2.8818,2.575 -1.9465,5.722 0.9352,3.149 2.658,9.742 3.8286,14.653 1.777,7.453 3.1221,8.395 8.1489,5.705 3.3111,-1.774 6.8104,-4.501 7.7763,-6.063 z m 193.1013,2.224 c 18.3132,-8.898 18.7241,-14.243 2.8068,-36.518 -18.2004,-25.471 -34.3387,-41.318 -42.0811,-41.318 -12.2502,0 -11.598,3.939 3.2879,19.852 19.919,21.297 24.2851,42.285 8.7955,42.285 -5.7432,0 -24.092,-18.094 -36.978,-36.465 -9.8865,-14.093 -9.8828,-3.698 0,15.888 10.6606,21.121 32.7251,43.468 42.916,43.468 3.5439,0 13.1053,-3.235 21.2472,-7.192 z m 306.5791,-17.779 16.1103,-23.014 2.5739,-37.507 c 2.7136,-39.54 4.2363,-44.286 22.1019,-68.899 l 11.1811,-15.402 -61.5001,1.955 c -33.8251,1.076 -61.8561,2.232 -62.2913,2.57 -0.4351,0.336 5.0651,16.688 12.2223,36.339 13.9274,38.235 26.3054,79.627 32.9593,110.217 2.2607,10.392 5.5554,18.414 7.3213,17.825 1.7662,-0.587 10.4607,-11.426 19.3213,-24.084 z m -479.0665,1.226 c 4.9551,-3.827 1.4893,-11.27 -14.4099,-30.945 -7.4081,-9.167 -15.5456,-15.126 -24.1995,-17.719 -18.0815,-5.415 -21.2646,-1.231 -13.2622,17.439 5.0082,11.682 8.3806,15.189 16.087,16.732 5.3625,1.072 13.232,6.245 17.4875,11.493 7.4898,9.237 9.7433,9.607 18.2971,3 z m 308.2906,-6.534 c 0,-1.575 -3.3111,-1.847 -7.358,-0.604 -10.1373,3.117 -10.5367,3.826 -5.5437,9.843 4.0146,4.837 4.7389,4.791 8.6419,-0.547 2.3428,-3.203 4.2598,-7.115 4.2598,-8.692 z m 286.3729,-8.933 c -3.9864,-12.573 -8.177,-23.789 -9.3127,-24.925 -2.2312,-2.231 -44.872,4.982 -44.872,7.592 0,0.868 2.2921,9.463 5.0935,19.099 l 5.0935,17.522 20.2512,1.155 c 11.1379,0.636 22.6683,1.44 25.6227,1.788 4.7745,0.559 4.566,-1.913 -1.8762,-22.231 z m -581.4224,-14.203 c -20.1617,-33.595 -40.0059,-47.752 -67.1318,-47.891 -14.7198,-0.08 -15.9795,1.594 -10.4141,13.808 2.8584,6.274 5.4612,7.417 14.4832,6.364 22.7419,-2.656 38.1649,7.773 58.168,39.332 3.3926,5.352 7.5039,8.17 10.334,7.086 3.7354,-1.435 2.6185,-5.274 -5.4393,-18.699 z m 132.3966,13.838 c -0.9886,-3.782 -9.6442,-14.913 -19.2347,-24.736 -13.8238,-14.159 -18.5786,-17.22 -22.946,-14.777 -5.0257,2.813 -4.9343,3.392 1.041,6.59 3.6025,1.928 12.7152,11.67 20.2504,21.65 14.0304,18.585 24.2424,24.096 20.8893,11.273 z m 154.665,-3.027 13.6987,-6.632 2.3515,-39.396 c 1.2933,-21.669 1.6302,-40.118 0.749,-40.998 -1.4694,-1.47 -53.2551,20.428 -58.5154,24.742 -4.3136,3.537 11.3427,57.126 18.4193,63.045 8.4463,7.063 7.0353,7.11 23.2969,-0.761 z m -250.6713,-11.918 c 6.4652,-4.805 12.3587,-9.209 13.0972,-9.791 0.7382,-0.578 -1.1955,-3.857 -4.2974,-7.285 -9.3874,-10.372 -7.6708,-25.306 4.3325,-37.69 l 10.5569,-10.892 -6.3483,-20.682 -6.3483,-20.678 -17.6055,0.856 c -39.8237,1.935 -62.7291,7.046 -84.6557,18.891 -32.1828,17.382 -37.4765,21.939 -33.5774,28.907 2.5704,4.592 7.9359,5.901 25.7749,6.289 31.1048,0.674 46.1361,9.567 65.2723,38.613 8.0436,12.209 16.2943,22.199 18.3346,22.199 2.0401,0 8.9992,-3.932 15.4642,-8.737 z m 291.3617,-40.317 c 0,-47.229 -4.3028,-61.366 -7.7142,-25.344 -1.7618,18.604 -3.3413,62.711 -2.4593,68.676 0.1986,1.349 2.5702,2.452 5.2681,2.452 4.1267,0 4.9054,-7.267 4.9054,-45.784 z m -92.7378,23.71 c -0.8862,-3.146 -2.5739,-10.505 -3.7505,-16.352 -1.9494,-9.683 -3.2046,-10.622 -14.1427,-10.575 -21.4088,0.1 -22.1,4.198 -3.1703,18.853 19.2615,14.915 23.4401,16.516 21.0635,8.074 z m -168.883,-5.722 c 3.1444,-3.789 3.1902,-5.967 0.2011,-9.568 -2.1282,-2.566 -3.6057,-6.612 -3.2831,-8.994 0.3225,-2.381 0.4122,-7.134 0.1986,-10.561 -0.3728,-5.994 -0.6306,-6.009 -6.8444,-0.385 -9.4219,8.525 -11.1453,17.301 -5.1848,26.398 6.0756,9.271 9.2487,9.933 14.9121,3.11 z m 22.892,-11.096 c 0,-1.606 -2.2074,-3.767 -4.9054,-4.802 -4.9849,-1.913 -6.6976,1.57 -2.7251,5.543 3.1252,3.125 7.6305,2.688 7.6305,-0.741 z m 24.1843,-3.242 c 5.4604,-2.144 4.4877,-3.829 -8.1758,-14.17 -13.4927,-11.015 -28.6079,-17.051 -28.941,-11.554 -0.5789,9.553 0.4323,12.263 4.5745,12.263 2.5976,0 8.852,3.632 13.8984,8.075 10.1232,8.906 9.8662,8.83 18.6439,5.386 z m 48.5788,-5.475 c 6.7449,-1.194 12.2635,-2.713 12.2635,-3.375 0,-0.662 -9.7351,-13.374 -21.6333,-28.25 l -21.6335,-27.048 -21.6975,-2.033 c -11.9336,-1.119 -27.8521,-3.13 -35.3742,-4.469 l -13.6768,-2.438 5.7097,19.184 c 5.2374,17.601 6.417,19.103 14.2629,18.166 10.7923,-1.288 23.9408,5.476 43.4326,22.346 9.0987,7.876 17.4862,12.604 20.6921,11.667 2.965,-0.866 10.9096,-2.553 17.6545,-3.75 z m 356.2,-48.723 c 7.0349,-7.99 17.8807,-16.371 24.1019,-18.62 12.9121,-4.67 14.8482,-9.318 3.8812,-9.318 -18.379,0 -51.6064,42.497 -51.1397,65.406 0.2208,10.816 0.5121,10.5 5.2998,-5.744 3.0112,-10.218 10.2555,-23.088 17.8568,-31.724 z m -294.1918,37.843 c 4.1827,-3.748 -4.9901,-15.528 -47.0874,-60.481 -35.3498,-37.746 -42.3323,-46.974 -47.1711,-62.323 -5.5185,-17.507 -5.4783,-18.891 1.431,-48.968 3.9105,-17.024 7.1101,-32.516 7.1101,-34.426 0,-1.977 -6.8816,-3.473 -15.9702,-3.473 -19.1055,0 -18.9716,-0.329 -22.1015,54.099 -2.58,44.862 0.2848,52.368 36.7899,96.383 14.1947,17.115 31.4754,38.851 38.4013,48.304 l 12.5927,17.188 16.8397,-2.109 c 9.2618,-1.162 17.8863,-3.049 19.1655,-4.194 z m 50.6698,-17.464 c 35.0799,-16.29 33.7279,-12.567 23.9351,-65.869 -9.0754,-49.397 -25.0582,-99.937 -50.5765,-159.932 -4.357,-10.246 -6.2065,-11.79 -10.8956,-9.105 -14.8373,8.501 -14.841,8.513 -6.4072,21.873 29.6405,46.954 48.1895,110.33 48.1658,164.564 -0.024,33.923 -6.0464,46.354 -27.0125,55.668 -7.6193,3.387 -12.382,6.297 -10.5832,6.469 1.7986,0.171 16.8169,-5.98 33.3741,-13.668 z m -20.3716,-7.063 c 17.9773,-17.976 18.5745,-54.123 1.9918,-120.589 -6.7677,-27.127 -14.0571,-46.645 -24.739,-66.243 -13.7087,-25.147 -15.7628,-27.45 -21.6657,-24.291 -6.2965,3.37 -6.1703,3.89 3.6705,15.097 11.7472,13.379 14.5226,19.769 23.1995,53.395 8.2361,31.919 5.9171,48.972 -8.8893,65.359 l -10.9072,12.075 8.0694,30.153 c 12.2257,45.682 15.1413,49.175 29.27,35.044 z m -325.6516,-9.968 c 27.5327,-17.649 47.445,-23.87 85.6315,-26.751 16.0418,-1.212 29.1669,-3.086 29.1669,-4.162 0,-4.047 -30.2861,-90.414 -32.5816,-92.913 -1.3181,-1.436 -6.1325,-0.908 -10.6989,1.172 -11.2883,5.143 -25.3185,-1.687 -32.3444,-15.746 -4.5257,-9.055 -5.9102,-9.916 -9.3323,-5.794 -3.2127,3.873 -2.5623,11.246 3.2462,36.801 10.703,47.089 10.7025,47.092 -6.586,55.286 -8.0939,3.836 -19.3937,7.976 -25.1107,9.2 -9.8606,2.114 -10.9964,1.288 -22.1125,-16.09 l -11.7179,-18.319 -13.1139,10.54 c -7.2126,5.795 -13.6062,9.764 -11.3905,14.328 17.3524,35.74 32.8693,66.946 33.5008,66.946 0.4533,0 11.0026,-6.524 23.4433,-14.498 z m 278.7907,-32.652 c -4.9729,-19.411 -8.4863,-26.592 -15.7061,-32.101 -5.1151,-3.902 -15.3718,-13.053 -22.7924,-20.333 -11.9461,-11.722 -13.74,-15.488 -15.6536,-32.861 -1.2143,-11.026 -0.676,-24.627 1.2289,-31.046 3.9541,-13.326 4.469,-29.477 0.9374,-29.404 -8.7265,0.172 -12.4521,12.493 -19.378,64.048 -2.8205,20.993 7.0036,38.237 43.1764,75.783 17.68,18.352 32.6962,32.815 33.3694,32.143 0.673,-0.675 -1.659,-12.477 -5.182,-26.229 z m 115.6734,7.091 c -3.7479,-34.527 -14.2901,-83.745 -27.8447,-129.993 -7.1162,-24.282 -14.9619,-52.172 -17.4347,-61.975 -2.4728,-9.803 -5.9638,-18.312 -7.7574,-18.91 -1.7936,-0.599 -6.7474,1.737 -11.0082,5.184 -6.0031,4.862 -6.9158,7.28 -4.0542,10.739 8.5481,10.328 30.4359,59.124 40.1417,89.489 5.7494,17.985 13.6428,53.672 17.5412,79.3 3.8981,25.63 8.3357,46.602 9.8612,46.602 1.5257,0 1.7753,-9.196 0.5551,-20.436 z m 34.4905,3.683 c 8.8768,-3.819 16.14,-7.24 16.14,-7.603 0,-0.361 -3.8039,-11.587 -8.4527,-24.942 -34.7009,-99.684 -56.8714,-167.891 -59.9029,-184.29 -1.9607,-10.608 -4.2569,-19.977 -5.1029,-20.824 -0.8458,-0.845 -6.477,2.8 -12.5138,8.099 -8.3694,7.349 -10.3862,11.143 -8.4927,15.97 1.3658,3.483 10.6569,32.086 20.6472,63.561 17.7777,56.013 28.4157,100.52 33.0258,138.168 1.2663,10.343 3.6996,18.805 5.4072,18.805 1.7076,0 10.3678,-3.124 19.2448,-6.944 z m -235.67,-1.579 c 0,-1.089 -4.2132,-7.343 -9.3626,-13.898 -22.9038,-29.151 -28.3704,-60.325 -18.8326,-107.396 2.917,-14.394 5.3035,-27.219 5.3035,-28.497 0,-1.278 -5.5186,-1.867 -12.2635,-1.308 -11.8244,0.979 -12.3326,1.531 -14.1893,15.445 -2.737,20.512 -15.3568,31.017 -34.6455,28.842 -7.7648,-0.874 -14.1178,-0.656 -14.1178,0.487 0,1.144 7.9215,24.14 17.6033,51.105 l 17.6034,49.027 24.0924,3.664 c 29.5856,4.501 38.8087,5.102 38.8087,2.529 z m 357.97,-12.632 c 51.1742,-4.351 55.9108,-5.297 61.1518,-12.219 l 5.6806,-7.505 -24.3533,-2.057 c -20.1864,-1.708 -26.335,-3.666 -35.9344,-11.447 -6.3696,-5.163 -17.3795,-14.06 -24.4666,-19.769 -7.9188,-6.38 -19.6115,-11.778 -30.3351,-14.005 -63.6052,-13.206 -95.0628,-54.855 -99.5198,-131.768 l -1.6339,-28.872 c -0.072,-1.268 -4.8721,-1.955 -9.7055,-2.533 -6.0336,0 -9.9727,0.591 -9.9727,1.172 0,1.804 51.793,158.413 64.3323,192.929 6.5343,17.986 12.5244,34.541 13.3116,36.791 1.8704,5.342 22.0604,5.185 91.445,-0.717 z m -535.3814,-22.875 c 12.0604,-5.615 17.1688,-9.881 17.1688,-14.335 0,-7.001 -9.8812,-57.022 -11.64,-58.923 -0.6083,-0.658 -4.794,3.022 -9.3021,8.175 -7.2001,8.231 -7.9656,11.417 -6.2973,26.205 1.6617,14.731 1.0574,17.283 -4.8374,20.438 -10.407,5.57 -19.5796,4.322 -21.8977,-2.983 -1.15,-3.622 -3.3736,-5.796 -4.9414,-4.827 -3.574,2.21 16.0793,34.319 20.9791,34.274 1.9794,0 11.3251,-3.627 20.768,-8.024 z m 599.2747,-11.163 c 0,-6.99 -10.9637,-51.44 -13.4782,-54.646 -1.5339,-1.955 -17.1561,-10.657 -34.7162,-19.342 -30.7158,-15.187 -33.0432,-15.798 -61.36,-16.095 -27.1984,-0.284 -30.3764,-1.028 -41.8577,-9.784 -6.8337,-5.211 -16.1292,-15.797 -20.6566,-23.523 -7.136,-12.175 -8.1331,-17.425 -7.491,-39.418 l 0.741,-25.37 -10.7323,-2.781 c -18.0526,-4.677 -20.36,-1.948 -17.9878,21.284 2.7789,27.213 10.7739,60.235 18.1011,74.766 3.2663,6.477 12.275,18.25 20.0194,26.163 14.242,14.548 14.1305,14.503 75.7596,33.115 6.9433,2.098 19.452,9.902 27.7971,17.346 8.345,7.442 18.1158,15.202 21.7132,17.243 7.6897,4.365 44.1484,5.224 44.1484,1.042 z m -319.2227,-11.523 c 2.9028,-6.119 5.0574,-16.053 4.7879,-22.074 -0.4378,-9.786 -0.6342,-10.005 -1.8454,-2.031 -0.7453,4.906 -4.9398,11.742 -9.3208,15.187 -7.7774,6.117 -10.1629,13.482 -5.7851,17.86 4.1541,4.153 6.9102,2.127 12.1634,-8.942 z m -29.2066,0.494 c -1.2228,-4.048 -5.6432,-11.038 -9.8234,-15.534 -11.4732,-12.342 -15.3318,-25.633 -12.9747,-44.688 2.1384,-17.289 -0.727,-42.272 -4.4271,-38.6 -3.9982,3.965 -8.583,45.885 -6.7562,61.771 1.6128,14.029 3.8566,17.91 17.4882,30.252 8.6006,7.786 16.3302,14.156 17.1767,14.156 0.8467,0 0.5389,-3.311 -0.6835,-7.357 z m -270.9082,-7.16 c 0.9934,-2.588 0.4895,-7.059 -1.1195,-9.934 -2.6105,-4.665 -3.5544,-4.532 -8.7695,1.23 -3.2143,3.553 -4.8775,8.022 -3.6958,9.935 3.1066,5.026 11.4745,4.268 13.5848,-1.231 z m 291.5434,-29.504 c -1.684,-18.957 -11.5307,-41.389 -25.2728,-57.574 l -9.5344,-11.229 4.836,21.258 c 5.2174,22.933 17.3731,65.401 19.9359,69.651 0.8664,1.435 3.8081,0.759 6.5372,-1.505 3.6472,-3.03 4.574,-8.487 3.4981,-20.601 z m -32.3488,-8.79 c -2.9011,-10.031 -4.4554,-12.237 -5.269,-7.474 -1.2742,7.459 4.8341,26.251 7.625,23.461 0.9673,-0.966 -0.094,-8.16 -2.356,-15.987 z m -179.5076,-10.89 c 7.4737,-9.004 -23.7107,-28.951 -32.1183,-20.543 -4.1813,4.181 3.1723,20.195 11.384,24.788 6.3208,3.539 15.9035,1.578 20.7343,-4.245 z m 55.6524,-8.243 c 7.3982,-7.4 9.2464,-29.501 2.4526,-29.333 -2.2483,0.05 -9.9743,3.729 -17.1688,8.161 -7.1947,4.432 -16.3055,8.064 -20.2462,8.074 -9.2683,0 -12.02,4.746 -7.5872,13.028 5.0209,9.382 33.1904,9.429 42.5496,0.08 z m 160.4,-7.699 c -4.3802,-13.274 -21.5761,-38.086 -26.3941,-38.086 -1.8172,0 1.5942,7.12 7.5807,15.825 5.9868,8.702 12.8316,20.521 15.2107,26.265 5.678,13.708 8.4365,10.641 3.6027,-4.004 z m 307.1838,11.784 c -0.034,-1.348 -1.9661,-9.81 -4.292,-18.802 l -4.2289,-16.352 -24.3229,-2.109 c -30.7527,-2.666 -69.7709,-11.591 -85.5306,-19.563 -14.8827,-7.527 -18.9135,-14.628 -21.2712,-37.472 -1.0051,-9.74 -2.9729,-17.706 -4.3727,-17.706 -1.4,0 -4.873,-0.893 -7.7182,-1.987 -4.4,-1.687 -5.173,1.293 -5.173,19.945 0,25.418 5.1402,38.363 21.5553,54.286 11.2059,10.871 12.3209,11.191 44.8397,12.908 30.9013,1.634 35.2678,2.745 59.5102,15.146 28.0534,14.35 31.1019,15.501 31.0043,11.706 z m -532.9891,-28.068 c 0,-6.787 -3.8706,-9.023 -8.6923,-5.021 -6.339,5.261 -5.3938,9.382 2.1517,9.382 3.5974,0 6.5406,-1.962 6.5406,-4.361 z m 43.4934,-1.268 10.4659,-5.627 -22.2189,-2.948 c -12.2203,-1.623 -23.0088,-2.158 -23.9742,-1.194 -0.9656,0.966 -0.1128,4.825 1.8947,8.577 4.5616,8.523 19.2372,9.04 33.8325,1.192 z m 473.5539,-24.623 c -2.3097,-6.263 -5.9267,-7.679 -24.3369,-9.531 -11.8934,-1.197 -26.1123,-3.159 -31.5978,-4.366 -12.0812,-2.653 -27.9962,-15.523 -34.3213,-27.755 -3.2703,-6.323 -8.6832,-10.011 -18.2664,-12.444 l -13.6185,-3.456 1.7016,12.016 c 3.1213,22.042 8.1045,30.018 22.7895,36.483 19.2259,8.462 55.7286,15.828 80.0291,16.147 19.754,0.257 20.2563,0.05 17.6207,-7.094 z m -10.1571,-18.534 c 0,-10.287 -3.8346,-11.989 -24.1097,-10.697 -19.3196,1.229 -21.3996,0.66 -32.2233,-8.844 -13.559,-11.905 -20.9661,-13.623 -15.6128,-3.621 7.1515,13.365 22.4836,19.058 69.4931,25.81 1.349,0.197 2.4527,-0.998 2.4527,-2.648 z m -13.1084,-19.803 c 8.7804,-5.551 -0.8691,-8.641 -22.7505,-7.285 -19.908,1.233 -20.672,1.57 -13.0812,5.773 9.3397,5.171 28.748,5.99 35.8317,1.512 z" fill="#00B894" transform="translate(93.995338,18.108554) matrix(0.26458333,0,0,0.26458333,-2011.3822,-4440.1632)"/>
</svg>