<?xml version="1.0" ?><!-- Created with Inkscape (http://www.inkscape.org/) --><svg height="175.42426mm" id="svg80278" inkscape:version="1.1.1 (eb90963e84, 2021-10-02)" sodipodi:docname="offline_5.svg" version="1.1" viewBox="0 0 266.80591 175.42426" width="266.80591mm" xmlns="http://www.w3.org/2000/svg" xmlns:inkscape="http://www.inkscape.org/namespaces/inkscape" xmlns:sodipodi="http://sodipodi.sourceforge.net/DTD/sodipodi-0.dtd" xmlns:svg="http://www.w3.org/2000/svg">
  <sodipodi:namedview bordercolor="#666666" borderopacity="1.0" id="namedview80280" inkscape:current-layer="layer1" inkscape:cx="447.29053" inkscape:cy="398.8926" inkscape:document-units="mm" inkscape:pagecheckerboard="0" inkscape:pageopacity="0.0" inkscape:pageshadow="2" inkscape:window-height="1016" inkscape:window-maximized="1" inkscape:window-width="1866" inkscape:window-x="54" inkscape:window-y="27" inkscape:zoom="0.64052329" pagecolor="#ffffff" showgrid="false"/>
  <defs id="defs80275"/>
  <g id="layer1" inkscape:groupmode="layer" inkscape:label="Capa 1" transform="translate(13.198535,-42.819164)">
    <g id="g80255" style="display:inline" transform="matrix(0.26458333,0,0,0.26458333,-3492.3709,-853.07248)">
      <path d="m 16605.9,8817.7891 c -4.574,-0.3113 -9.522,1.6404 -14.384,5.1621 -15.56,11.2745 17.644,263.2406 23.433,301.6972 5.79,38.4565 16.679,53.9635 27.707,51.2344 11.027,-2.7291 14.61,-9.057 13.783,-27.541 -0.827,-18.484 -28.256,-244.756 -30.599,-288.2988 -1.611,-29.9356 -9.875,-41.5691 -19.94,-42.2539 z m 320.711,30.0957 c -25.363,15.0105 -78.431,245.6253 -89.183,288.9199 -10.752,43.2946 -23.295,67.1124 -13.922,86.9609 9.373,19.8485 17.644,0.3739 23.709,-11.039 6.065,-11.413 81.325,-275.2754 90.974,-307.7774 9.649,-32.502 4.274,-47.8844 -11.578,-57.0644 z m -362.525,333.9511 c 0,0 -154.247,113.5101 -182.643,141.1739 -20.814,18.608 -4.548,36.2225 15.026,49 19.574,12.7775 320.484,90.9316 320.484,90.9316 0,0 191.188,-127.4038 201.526,-137.5762 10.338,-10.1723 1.791,-46.3945 1.791,-46.3945 0,0 5.099,-27.6638 21.503,-28.9043 16.403,-1.2406 32.945,7.1948 86.979,53.9629 54.034,46.768 52.794,42.6733 86.152,36.7187 33.358,-5.9546 58.446,-29.6484 58.446,-29.6484 1.028,-15.7609 -4.377,-26.5941 -20.981,-28.8457 0,0 -16.238,12.3468 -28.23,19.9141 -11.992,7.5672 -30.462,14.0191 -55.412,-4.2168 -24.949,-18.2358 -74.161,-73.0684 -106.829,-77.1621 -32.669,-4.0938 -78.57,30.6406 -78.57,30.6406 L 16645,9198.2109 Z m 749.283,38.1758 c -3.948,-0.07 -7.709,0.079 -10.99,0.5547 -17.497,2.5373 -49.002,26.0996 -49.002,26.0996 -8.885,19.6506 16.972,21.8049 18.57,21.1426 0,0 14.007,-23.4383 39.381,-22.6328 25.374,0.8055 38.039,6.2012 38.039,6.2012 9.845,-5.0025 4.325,-16.4158 1.701,-26.6211 0,0 -20.591,-4.4401 -37.699,-4.7442 z" fill="#00B894" id="path79612" style="fill:#ffffff;stroke-width:20;stroke-linecap:round;stroke-linejoin:round;stop-color:#000000" transform="translate(-3214.0181,-5425.6289)"/>
      <path d="m 13393.058,3386.0522 v 0 c -2.155,-0.02 -4.493,0.312 -7.043,0.926 -20.233,4.87 -23.068,13.089 -20.006,57.986 7.947,116.492 33.722,293.867 44.453,305.893 6.81,7.632 6.283,7.789 -14.342,4.287 -48.746,-8.276 -55.096,-6.297 -113.482,35.367 -29.418,20.993 -71.381,55.334 -93.248,76.314 -34.246,32.852 -39.762,40.085 -39.762,52.139 0,10.263 3.402,16.857 12.77,24.736 28.537,24.015 67.156,37.38 229.465,79.405 54.236,14.042 103.886,25.724 110.341,25.955 7.344,0.264 20.976,-6.153 36.444,-17.147 13.588,-9.662 43.411,-29.434 66.269,-43.943 56.338,-35.755 109.082,-79.243 114.67,-94.545 5.733,-15.681 5.862,-35.556 0.256,-39.02 -7.633,-4.717 -5.038,-23.58 3.244,-23.58 20.73,0 38.533,10.456 71.211,41.828 57.814,55.504 94.697,66.791 137.088,41.948 11.364,-6.659 22.757,-15.467 25.318,-19.571 3.53,-5.651 8.513,-6.945 20.538,-5.332 18.214,2.443 26.994,-5.505 15.427,-13.963 -4.205,-3.075 -6.057,-8.114 -4.484,-12.211 2.084,-5.428 -0.04,-7.002 -9.572,-7.072 l -12.25,-0.1 10.654,-8.186 c 16.256,-12.489 6.59,-15.855 -15.17,-5.283 l -19.334,9.392 9.477,-12.818 c 5.212,-7.051 8.077,-14.221 6.361,-15.935 -4.946,-4.948 -17.136,4.545 -24.143,18.806 -7.838,15.958 -33.287,31.363 -51.812,31.363 -11.425,0 -18.296,-4.981 -41.889,-30.378 -34.167,-36.783 -55.404,-49.886 -86.859,-53.582 -27.198,-3.197 -64.263,5.592 -81.819,19.4 -9.187,7.227 -13.134,7.824 -26.793,4.053 -13.938,-3.849 -15.099,-5.097 -8.929,-9.608 7.051,-5.156 19.93,-44.319 64.328,-195.697 12.798,-43.623 26.233,-88.964 29.865,-100.754 7.539,-24.487 8.851,-75.845 2.252,-88.172 -2.476,-4.627 -8.942,-8.293 -14.625,-8.293 -16.967,0 -29.903,20.911 -44.117,71.307 -61.215,217.065 -80.314,298.487 -73.154,311.869 3.902,7.29 3.247,7.891 -5.733,5.283 -25.415,-7.382 -135.267,-32.594 -142.101,-32.594 -9.968,-0.02 -14.091,-11.214 -7.19,-19.527 7.497,-9.035 2.672,-116.381 -8.279,-184.137 -4.573,-28.296 -11.662,-75.992 -15.752,-105.99 -7.33,-53.751 -13.46,-70.713 -28.543,-70.824 z m 3.016,22.527 c 0.493,0.123 0.83,0.409 0.966,0.871 1.569,5.336 21.92,163.312 31.569,245.043 4.833,40.96 7.771,77.135 6.521,80.387 -1.247,3.252 -4.74,5.762 -7.763,5.576 -14.491,-0.893 -16.211,-5.003 -16.211,-38.773 0,-40.496 -11.749,-156.837 -25.924,-256.715 -3.447,-24.279 -3.004,-28.577 3.431,-33.375 3.047,-2.273 5.93,-3.381 7.411,-3.014 z m 318.228,25.213 c 0.397,0.03 0.784,0.167 1.162,0.403 7.611,4.703 4.758,39.133 -6.111,73.791 -5.771,18.397 -18.271,61.424 -27.779,95.615 -9.506,34.192 -25.734,90.047 -36.053,124.125 -10.321,34.079 -20.561,62.561 -22.758,63.293 -10.256,3.418 -13.612,-8.479 -7.357,-26.067 3.469,-9.75 13.111,-43.772 21.422,-75.605 8.314,-31.834 19.734,-73.314 25.373,-92.178 5.642,-18.864 16.207,-57.302 23.482,-85.416 14.517,-56.109 22.665,-78.47 28.619,-77.961 z m -361.26,336.252 c 1.476,-0.08 3.125,-0.06 5.01,0.04 12.565,0.73 35.622,5.814 88.02,18.035 226.152,52.75 238.982,56.518 229.929,67.485 -3.004,3.639 -28.616,24.983 -56.914,47.433 -28.295,22.45 -64.657,50.716 -80.154,63.617 -27.71,23.068 -29.646,23.579 -63.5,14.739 -34.188,-8.938 -122.48,-31.512 -154.313,-39.207 -31.83,-7.696 -76.783,-20.017 -99.89,-27.379 l -42.012,-13.387 24.682,-21.365 c 36.857,-31.905 125.298,-100.203 138.797,-107.182 3.042,-1.573 5.917,-2.603 10.345,-2.834 z m 750.686,11.717 c -11.689,0.133 -23.479,3.304 -35.934,9.289 -11.872,5.704 -23.949,13.546 -26.838,17.426 -3.982,5.342 -9.054,6.225 -20.906,3.631 -17.952,-3.93 -27.353,3.269 -16.519,12.648 3.939,3.409 5.37,8.582 3.466,12.537 -2.522,5.238 -0.537,6.982 8.959,7.834 l 12.202,1.106 -11.291,7.283 c -17.226,11.113 -7.869,15.261 14.685,6.51 l 20.039,-7.774 -10.494,11.996 c -5.773,6.6 -9.217,13.513 -7.648,15.362 4.524,5.337 17.449,-3.126 25.603,-16.764 9.121,-15.261 35.748,-28.526 54.211,-27.006 7.43,0.612 12.821,3.31 21.578,12.59 19.594,24.759 27.913,-30.938 20.514,-42.412 -4.175,-6.475 -9.527,-11.005 -15.268,-14.762 -12.43,-6.533 -24.344,-9.63 -36.359,-9.494 z m 5.383,19.793 c 5.97,0.115 10.595,1.815 14.799,5.049 4.391,3.38 0.504,4.226 -14.084,3.074 -16.247,-1.285 -23.19,0.659 -35.809,10.023 -11.102,8.238 -16.593,11.626 -18.963,10.721 -1.42,-0.543 -1.719,-2.63 -1.43,-6.143 0.313,-3.795 10.458,-10.265 23.838,-15.203 14.077,-5.196 23.974,-7.668 31.649,-7.521 z m -655.18,6.924 c -20.978,0.61 -12.341,10.198 21.535,20.511 36.231,11.033 40.731,10.963 40.731,-0.642 0,-9.786 -19.7,-17.274 -51.45,-19.557 -4.218,-0.303 -7.819,-0.399 -10.816,-0.312 z m 289.053,2.359 c 34.784,-0.163 61.417,17.316 88.297,56.385 7.317,10.638 12.122,19.342 10.675,19.342 -1.445,0 -11.663,-9.224 -22.712,-20.498 -31.212,-31.851 -48.922,-43.523 -70.547,-46.487 -23.944,-3.281 -41.715,0.634 -41.715,9.188 0,7.186 -3.726,7.931 -12.34,2.474 -9.798,-6.205 -1.678,-12.426 22.853,-17.519 8.999,-1.868 17.462,-2.847 25.489,-2.885 z m -49.674,57.762 c 3.822,-0.67 3.585,3.701 0.109,12.97 -4.977,13.265 -44.433,44.879 -117.429,94.09 -28.421,19.16 -55.251,38.786 -59.616,43.612 -11.934,13.7 -18.252,6.255 -32.336,1.773 -10.611,-3.384 -55.95,-15.778 -100.753,-27.543 -200.042,-52.53 -206.804,-54.703 -210.004,-67.451 -3.901,-15.533 -0.06,-16.399 24.673,-5.57 46.504,20.36 184.27,55.359 294.387,79.273 20.237,4.395 23.274,7.992 49.735,-14.754 44.099,-37.907 98.346,-74.828 126.781,-99.123 12.752,-10.896 20.631,-16.607 24.453,-17.277 z m 247.543,5.724 c 1.461,0.425 1.93,2.481 1.93,6.006 0,3.807 -9.58,11.089 -22.51,17.108 -24.184,11.26 -35.906,12.855 -46.088,6.275 -4.654,-3.008 -0.849,-4.171 13.785,-4.221 16.297,-0.05 23.057,-2.559 34.865,-12.927 10.388,-9.121 15.582,-12.948 18.018,-12.241 z m -669.791,12.911 c -12.335,0.561 -17.061,7.261 -12.703,18.623 3.271,8.517 21.782,8.214 30.494,-0.498 10.127,-10.127 5.877,-16.471 -12.043,-17.985 -2.069,-0.174 -3.986,-0.221 -5.748,-0.14 z m 45.828,8.06 c -3.398,-0.19 -7.223,1.182 -10.982,4.303 -7.637,6.338 -8.148,19.772 -0.868,22.713 8.885,3.584 11.645,3.817 18.129,-4.112 7.677,-9.388 2.893,-22.39 -6.279,-22.904 z m 37.287,9.35 c -2.363,-0.423 -5.914,-0.691 -9.967,1.479 -14.162,7.579 -9.947,25.154 5.714,24.929 10.858,-0.02 14.191,-17.365 11.505,-20.767 -2.832,-3.402 -4.888,-5.218 -7.252,-5.641 z m 15.505,30.38 c 3.006,9.473 16.106,9.962 25.131,0.936 11.46,-11.459 5.007,-24.827 -10.898,-22.578 -3.081,0.749 -7.675,3.088 -10.981,6.776 -3.305,3.688 -5.323,8.724 -3.252,14.866 z m 60.679,-5.587 c -21.593,0 -19.135,10.503 5.445,23.299 11.201,5.831 25.67,10.689 32.156,10.8 9.63,0.163 11.789,-1.678 11.789,-10.054 0,-7.968 -3.842,-11.789 -17.234,-17.149 -9.481,-3.793 -23.949,-6.896 -32.156,-6.896 z" fill="#00B894" id="path55112" sodipodi:nodetypes="ssssssssscsssscssssssssccsscscssssssssssscsscsssssssssssssssssssssssssssssscsscsssssssssccsscsssscscssssssssssssssssssssssssssccssssssssssscsscssscsssssssscscssscssssssss" style="display:inline;fill:#000000;stroke-width:4.28731"/>
    </g>
  </g>
</svg>