<?xml version="1.0" ?><!-- Created with Inkscape (http://www.inkscape.org/) --><svg height="107.70583mm" id="svg73795" inkscape:version="1.1.1 (eb90963e84, 2021-10-02)" sodipodi:docname="offline_4.svg" version="1.1" viewBox="0 0 166.24217 107.70583" width="166.24217mm" xmlns="http://www.w3.org/2000/svg" xmlns:inkscape="http://www.inkscape.org/namespaces/inkscape" xmlns:sodipodi="http://sodipodi.sourceforge.net/DTD/sodipodi-0.dtd" xmlns:svg="http://www.w3.org/2000/svg">
  <sodipodi:namedview bordercolor="#666666" borderopacity="1.0" id="namedview73797" inkscape:current-layer="layer1" inkscape:cx="422.31095" inkscape:cy="597.16798" inkscape:document-units="mm" inkscape:pagecheckerboard="0" inkscape:pageopacity="0.0" inkscape:pageshadow="2" inkscape:window-height="1016" inkscape:window-maximized="1" inkscape:window-width="1866" inkscape:window-x="54" inkscape:window-y="27" inkscape:zoom="0.64052329" pagecolor="#ffffff" showgrid="false"/>
  <defs id="defs73792"/>
  <g id="layer1" inkscape:groupmode="layer" inkscape:label="Capa 1" transform="translate(6.7025217,9.6540273)">
    <g id="g73347" style="display:inline" transform="matrix(0.26458333,0,0,0.26458333,-3640.5648,-968.40731)">
      <path d="m 16961.771,9131.1094 4.848,308.5918 593.285,-1.0918 c 0,0 -1.182,-189.3549 -5.808,-288.6035 l -3.994,-0.1446 -25.163,-6.457 c 0,0 -12.732,9.3683 -27.89,9.2773 -15.158,-0.091 -38.197,-8.0957 -38.197,-8.0957 0,0 -26.782,13.0965 -46.79,14.0059 -20.009,0.9095 -52.849,-14.5508 -52.849,-14.5508 0,0 -16.877,6.3656 -34.561,6.8203 -17.685,0.4548 -33.853,-16.916 -33.853,-16.916 0,0 -36.38,17.0981 -58.914,18.1895 -22.535,1.0913 -53.862,-19.0078 -53.862,-19.0078 0,0 -22.03,9.367 -29.507,16.6425 -7.478,7.2756 -22.636,4.093 -31.125,4.6387 -8.488,0.5456 -38.5,-19.1894 -38.5,-19.1894 0,0 -43.555,14.824 -61.543,14.1874 -13.092,-0.4633 -35.369,-7.6226 -55.577,-18.2968 z" fill="#00B894" id="path73263" style="fill:#ffffff;stroke-width:20;stroke-linecap:round;stroke-linejoin:round;stop-color:#000000" transform="translate(-3214.0181,-5425.6289)"/>
      <path d="m 14037.29,3623.6385 c -8.864,0 -10.134,5.218 -10.842,23.414 l -0.301,15.763 -141.771,-1.136 -131.284,-1.817 c -23.844,-0.33 -18.494,4.307 -17.857,17.44 0.592,12.196 0.194,38.976 0.859,96.601 0.512,44.423 3.299,112.104 1.182,150.27 -3.172,57.18 1.25,62.224 -1.824,84.654 0.246,27.362 15.395,18.486 50.502,21.23 v 0 c 96.582,2.416 276.962,-2.785 358.42,-0.806 34.486,0.834 131.702,-0.09 162.966,-0.09 64.214,0 49.839,-4.586 52.477,-21.998 3.123,-20.612 4.914,-269.553 -1.85,-332.34 0.108,-35.23 -69.731,-15.418 -99.043,-18.588 -36.164,0.369 -97.467,1.783 -136.23,3.141 l -71.518,2.246 -0.798,-15.178 c -1.865,-15.642 -2.709,-22.81 -13.088,-22.81 z m 270.345,45.609 c 7.835,0.04 12.757,0.247 13.782,0.643 4.69,1.811 5.996,7.533 5.707,25.005 -0.206,12.462 -1.112,22.659 -2.01,22.659 -0.898,0 -5.813,-1.599 -10.92,-3.553 -6.902,-2.641 -10.469,-2.158 -13.885,1.879 -5.487,6.482 -35.067,6.938 -47.332,1.308 -7.01,-3.219 -11.544,-2.806 -20.681,1.879 -15.543,7.967 -43.05,7.4 -68.307,-1.41 -15.508,-5.41 -24.071,-6.385 -34.949,-3.975 -14.921,3.307 -29.453,0.744 -42.514,-7.5 -5.666,-3.575 -10.459,-3.771 -19.08,-0.783 -11.325,3.926 -13.434,5.235 -14.942,-8.302 -0.843,-7.569 -1.583,-16.032 -0.166,-17.59 2.859,-3.142 200.454,-10.572 255.297,-10.26 z m -536.67,1.457 c 4.341,0.03 10.203,1.024 18.112,1.246 15.491,0.427 69.525,2.458 120.076,4.514 50.551,2.055 96.607,2.709 102.348,1.453 11.554,-2.529 14.894,-0.481 14.894,-0.481 l 2.445,40.118 h -14.97 c -8.234,0 -22.649,-3.761 -32.032,-8.356 -20.938,-10.256 -13.621,-10.438 -34.873,1.459 l -2.837,1.666 c -25.305,14.861 -34.904,14.008 -52.497,5.277 -8.198,-4.069 -17.741,-9.485 -21.211,-12.035 -5.18,-3.81 -8.966,-3.154 -21.234,3.676 -21.538,11.994 -27.453,10.702 -39.324,-8.598 -11.586,-18.829 -10.985,-18.475 -21.693,-12.795 -6.027,3.197 -7.293,6.513 -5.731,15.026 1.157,6.306 5.917,11.888 3.807,12.174 -6.425,0.868 -13.126,-2.606 -19.662,-7.237 -6.856,-4.858 -8.186,-8.88 -7.057,-21.314 1.201,-13.245 4.206,-15.848 11.439,-15.793 z m 187.403,44.494 c 2.632,-0.04 5.106,2.798 13.17,9.104 9.308,7.191 18.48,8.999 34.656,11.33 8.73,1.258 22.982,0.49 22.982,0.49 1.317,19.256 1.961,55.665 9.098,55.599 l -78.891,31.475 c -40.534,16.172 -75.005,29.371 -76.556,29.451 -3.292,0.171 -2.997,0.935 -4.448,-11.486 -0.628,-5.365 -11.088,-30.275 -23.244,-55.354 -12.159,-25.079 -26.495,-50.891 -26.465,-52.472 0.03,-1.582 6.794,2.749 21.45,-5.805 15.663,-9.142 17.135,-6.844 33.765,1.272 19.898,9.711 37.677,8.106 60.356,-5.446 8.703,-5.201 11.494,-8.118 14.127,-8.158 z m 113.48,3.477 c 3.903,0.07 7.381,2.813 15.334,8.271 15.56,10.679 32.041,11.938 48.037,3.668 10.075,-5.21 12.258,-5.054 26.512,1.902 19.502,9.517 57.126,10.266 74.262,1.481 9.165,-4.7 13.423,-5.129 18.576,-1.877 8.279,5.223 40.062,5.409 49.389,0.461 4.411,-2.34 10.441,-2.474 15.984,-0.354 8.557,3.274 9.031,5.617 12.338,61.047 7.006,117.39 7.061,201.52 4.59,207.69 -2.196,5.489 -6.21,6.002 -29.731,3.804 -14.952,-1.398 -101.874,-4.594 -172.25,-3.927 l -339.834,3.218 c -25.759,-3.563 -23.533,18.11 -24.781,-81.765 0.274,-45.456 -1.573,-103.767 -4.107,-129.582 -5.165,-52.61 -5.531,-71.44 -1.387,-71.34 1.549,0.03 15.466,12.429 28.041,11.967 0,0 7.92,12.795 30.08,55.593 14.442,27.893 30.458,55.292 35.588,60.887 l 9.324,10.174 -17.553,6.439 c -32.669,11.987 -33.186,14.314 -13.191,59.204 18.392,41.283 22.385,43.326 55.254,28.291 32.563,-14.897 143.488,-58.789 188.994,-74.784 19.129,-6.724 37.711,-15.41 41.299,-19.302 5.821,-6.317 5.999,-8.789 1.68,-23.028 -2.663,-8.773 -9.327,-26.514 -14.813,-39.427 -10.976,-25.84 -14.616,-27.54 -38.1,-17.795 -7.535,3.127 -17.286,5.061 -17.437,3.484 -1.711,-17.922 0.02,-56.674 0.02,-56.674 9.652,-5.207 13.98,-7.8 17.883,-7.726 z m 89.977,33.216 c -6.947,0.436 -13.512,5.089 -13.627,12.067 -0.08,4.782 0.966,9.821 2.32,11.199 5.358,5.448 19.92,2.158 24.115,-5.447 3.465,-6.279 3.212,-9.149 -1.201,-13.637 -3.133,-3.186 -7.439,-4.443 -11.607,-4.182 z m -81.649,40.225 c 2.358,-0.07 3.786,0.535 4.575,1.766 6.166,9.617 17.668,55.907 14.541,58.515 -1.823,1.522 -17.766,7.596 -35.428,13.498 -17.657,5.901 -53.393,19.917 -79.404,31.145 -26.015,11.229 -59.2,24.588 -73.748,29.687 -14.548,5.099 -28.999,10.03 -32.114,10.959 -3.896,1.161 -9.97,-6.597 -19.472,-24.867 -14.324,-27.543 -16.135,-27.779 14.603,-39.582 24.514,-11.24 55.966,-23.935 185.555,-74.9 10.449,-4.11 16.962,-6.104 20.892,-6.221 z m 107.782,8.953 c -2.945,-0.189 -6.673,0.997 -13.137,3.432 -11.101,4.181 -14.537,7.651 -15.615,15.783 -0.761,5.733 0.595,12.858 3.013,15.832 2.421,2.974 9.555,5.408 15.854,5.408 22.31,0 33.477,-21.715 18.326,-35.636 -3.335,-3.065 -5.497,-4.63 -8.441,-4.819 z m -6.25,10.403 c 5.673,0 7.216,2.092 6.211,8.414 -1.562,9.82 -13.582,13.566 -16.657,5.191 -2.908,-7.923 1.453,-13.605 10.446,-13.605 z m -125.215,4.519 c -7.554,-1.459 -15.446,11.259 -12.301,19.824 1.321,3.59 5.537,5.638 10.238,4.969 10.253,-1.459 12.033,-22.867 2.063,-24.793 z m -43.213,14.264 c -5.26,0 -7.568,15.394 -3.002,20.035 4.356,4.431 12.647,2.673 14.99,-3.178 2.674,-6.677 -4.567,-16.857 -11.988,-16.857 z m -37.695,15.383 c -1.702,0.04 -3.782,0.248 -6.252,0.65 -15.77,2.563 -97.344,36.861 -97.414,40.957 -0.03,1.714 2.271,3.117 5.107,3.117 7.704,0 58.277,-16.902 82.848,-27.689 20.995,-9.218 27.623,-17.309 15.711,-17.035 z m 176.628,10.914 c -8.963,0 -13.339,5.893 -10.459,14.088 0.906,2.583 5.554,4.695 10.325,4.695 4.774,0 9.449,-2.112 10.392,-4.695 2.997,-8.195 -1.296,-14.088 -10.258,-14.088 z m -169.599,8.076 c -1.526,0.113 -3.389,0.402 -5.641,0.851 -13.872,2.765 -80.96,30.778 -91.972,38.403 -16.705,11.566 14.964,4.051 68.621,-16.285 22.534,-8.541 35.002,-15.25 35.062,-18.864 0.05,-3.21 -1.493,-4.445 -6.07,-4.105 z m 205.836,21.976 c -25.277,0 -34.907,7.499 -35.207,27.45 -0.585,37.274 40.683,67.265 70.668,51.359 6.086,-3.229 7.594,-2.32 9.476,5.723 1.236,5.259 5.587,11.93 9.674,14.826 10.857,7.694 18.887,3.191 17.213,-9.658 -1.204,-9.25 0.228,-11.193 10.832,-14.674 23.594,-7.745 19.644,-25.018 -4.83,-21.114 -14.091,2.247 -15.199,1.745 -17.449,-7.912 -7.088,-30.418 -27.541,-46 -60.377,-46 z m 4.53,16.101 c 3.842,0.205 14.262,4.507 21.239,10.069 9.054,7.215 20.18,28.699 16.66,32.164 -0.977,0.958 -9.262,2.665 -18.414,3.793 -12.916,1.593 -19.256,0.311 -28.314,-5.726 -14.633,-9.756 -24.511,-30.628 -16.555,-35.612 8.199,-4.465 15.816,-5.199 25.384,-4.688 z m -15.958,9.679 c -1.143,4.101 0.383,7.894 3.682,9.168 6.585,2.544 15.585,-6.528 12.148,-12.243 -1.792,-2.439 -5.479,-3.275 -8.854,-2.699 -3.374,0.576 -6.436,2.565 -6.976,5.774 z" fill="#00B894" id="path15727-2" sodipodi:nodetypes="scccsssscssssscccccssssssssssssssssssssccsscsssssssssssssscccssssssssssssssssssssccsscsscssssssssccssssssssssssssscsssssssssssssssssssssssssssssssssscsssscscssssssssssscscscscsc" style="display:inline;fill:#000000;stroke-width:3.75667"/>
    </g>
  </g>
</svg>