<?xml version="1.0" ?><!-- Created with Inkscape (http://www.inkscape.org/) --><svg height="74.692833mm" id="svg71298" inkscape:version="1.1.1 (eb90963e84, 2021-10-02)" sodipodi:docname="offline_3.svg" version="1.1" viewBox="0 0 106.03952 74.692833" width="106.03952mm" xmlns="http://www.w3.org/2000/svg" xmlns:inkscape="http://www.inkscape.org/namespaces/inkscape" xmlns:sodipodi="http://sodipodi.sourceforge.net/DTD/sodipodi-0.dtd" xmlns:svg="http://www.w3.org/2000/svg">
  <sodipodi:namedview bordercolor="#666666" borderopacity="1.0" id="namedview71300" inkscape:current-layer="layer1" inkscape:cx="425.4334" inkscape:cy="434.80074" inkscape:document-units="mm" inkscape:pagecheckerboard="0" inkscape:pageopacity="0.0" inkscape:pageshadow="2" inkscape:window-height="1016" inkscape:window-maximized="1" inkscape:window-width="1866" inkscape:window-x="54" inkscape:window-y="27" inkscape:zoom="0.64052329" pagecolor="#ffffff" showgrid="false"/>
  <defs id="defs71295"/>
  <g id="layer1" inkscape:groupmode="layer" inkscape:label="Capa 1" transform="translate(7.5816988,-33.289185)">
    <g id="g71275" style="display:inline" transform="matrix(0.26458333,0,0,0.26458333,-3194.4029,-629.58532)">
      <path d="m 12153.727,2734.716 c -27.049,-1.7755 -92.311,-6.4013 -91.791,-54.3407 0.519,-47.9395 25.751,-69.6664 40.704,-75.6939 14.952,-6.0275 68.22,-1.7288 68.22,-1.7288 0,0 1.921,-54.1071 49.842,-69.3861 47.92,-15.2789 99.371,-1.1681 114.791,23.4091 15.42,24.5771 20.508,43.5006 17.029,58.4525 -3.478,14.9519 -5.711,29.0627 -5.711,29.0627 0,0 67.77,4.2403 77.271,21.248 9.501,17.0078 23.882,46.0238 4.932,55.9761 -18.95,9.9524 -275.287,13.0011 -275.287,13.0011 z" fill="#00B894" id="path71190" style="display:inline;fill:#ffffff;stroke-width:20;stroke-linecap:round;stroke-linejoin:round;stop-color:#000000"/>
      <path d="m 12104.039,2785.8238 c -3.934,-3.9338 -0.96,-11.3333 9.919,-24.6899 6.379,-7.8309 11.195,-14.5426 10.703,-14.9147 -0.491,-0.3719 -8.341,-2.6404 -17.444,-5.0402 -23.984,-6.323 -41.468,-17.1421 -50.361,-31.1642 -13.154,-20.7449 -15.314,-36.3872 -8.106,-58.7084 5.371,-16.63 27.401,-41.0395 46.339,-51.3481 19.706,-10.7248 45.883,-14.3055 68.321,-5.1328 3.69,1.5087 4.408,0.3982 4.408,-6.8253 1.758,-46.7171 47.839,-64.6963 85.106,-70.4693 24.263,-2.1868 50.393,0.9031 71.754,14.4943 l 9.719,6.4301 10.538,-9.2677 c 5.796,-5.0973 13.714,-12.5291 17.594,-16.5151 7.993,-8.2118 20.357,-9.8894 22.956,-3.1148 2.049,5.3406 -3.731,13.9847 -20.706,30.9631 l -13.685,13.688 5.968,16.5346 c 5.611,15.5442 7.403,40.4102 4.28,59.3499 -0.739,4.4824 0.972,5.2068 15.54,6.578 19.051,1.7927 42.316,10.0971 52.651,18.794 14.938,12.5686 20.64,43.3119 11.578,62.4104 -14.925,27.3614 -42.706,23.3205 -57.511,23.5409 -19.379,0.2792 -65.37,1.6902 -102.201,3.1364 -36.831,1.4462 -80.563,2.6277 -97.186,2.6255 h -30.223 l -19.14,20.1641 c -17.607,18.5491 -25.821,23.4762 -30.812,18.4848 z m 131.1,-147.8655 c 65.683,-65.2374 85.551,-86.3692 83.512,-88.8245 -4.59,-5.5307 -30.435,-13.8226 -47.545,-15.2542 -45.825,-0.7022 -87.528,19.9995 -91.972,66.3813 -1.367,17.7938 -5.947,13.9118 -19.228,9.5577 -35.876,-9.1952 -73.073,4.4167 -90.075,37.469 -6.085,12.568 -6.849,30.8612 -1.781,42.7022 5.16,12.0596 16.466,21.367 33.218,27.3469 15.443,5.5121 40.743,9.7064 45.167,7.4877 1.386,-0.6948 41.302,-39.7845 88.704,-86.8661 z m -146.732,25.972 c -2.716,-4.3932 1.102,-18.9777 6.895,-26.3422 14.09,-17.9128 57.429,-22.6796 57.429,-6.3165 0,5.7334 -7.177,8.4597 -16.266,6.1786 -11.28,-2.8313 -28.082,5.415 -36.775,18.0486 -8.289,12.0475 -8.809,12.4359 -11.283,8.4315 z m 109.658,-75.5529 c 0,-16.5131 17.696,-35.2305 39.284,-41.5503 13.29,-3.8904 21.161,-2.9108 21.161,2.6337 0,4.8218 -5.242,8.206 -15.753,10.1703 -11.753,2.1963 -28.168,13.8314 -33.175,23.5142 -4.775,9.2322 -11.517,12.2956 -11.517,5.2321 z m 109.556,133.4938 c 19.394,-1.2757 48.295,-2.4177 64.224,-2.5378 35.299,-0.2664 49.265,-2.9126 52.645,-13.6482 13.122,-41.6814 -46.855,-54.6312 -71.512,-48.6211 -9.82,2.6264 -11.943,2.4844 -15.461,-1.0334 -3.758,-3.7584 -3.657,-5.4589 1.273,-21.6949 2.943,-9.6895 5.35,-23.9944 5.35,-31.7887 0,-13.6327 -5.241,-31.6397 -9.208,-31.6397 -1.051,0 -26.892,24.7652 -57.426,55.0337 -30.533,30.2687 -65.431,64.4367 -77.552,75.929 -12.121,11.4926 -22.037,21.9467 -22.037,23.2318 0,2.4949 68.667,0.7844 129.704,-3.2307 z" fill="#00B894" id="path15626" sodipodi:nodetypes="csssssssccccsssscssssccsccsccssccccssssssssssssssssssscssssssss" style="display:inline;fill:#000000;stroke-width:2.51854"/>
    </g>
  </g>
</svg>