<?xml version="1.0" ?><svg height="118.85287mm" viewBox="0 0 90.218086 118.85287" width="90.218086mm" xmlns="http://www.w3.org/2000/svg">
    <path d="m 3091.3795,-739.66043 c -1.7939,0.007 -3.6132,0.24688 -5.4369,0.76326 -14.5901,4.13098 -17.9995,15.90406 -18.4258,26.49709 1.2131,18.50091 11.9341,33.63823 33.2786,28.62202 21.3442,-5.0162 20.8525,-28.26785 17.4429,-36.97242 -2.9838,-7.6165 -14.3018,-18.96039 -26.8588,-18.90995 z m -0.569,65.4544 c -7.1785,-0.0902 -14.1627,3.00915 -17.556,6.65696 -4.7215,5.0752 -6.1313,24.90403 -6.2953,34.31676 0.3934,4.45555 14.6232,2.41962 24.7872,3.54087 10.1639,1.12126 28.1638,1.20952 27.6722,-3.39359 -0.4919,-4.60311 -1.5415,-12.77647 -4.0659,-21.09742 -2.5247,-8.32098 -6.7542,-14.134 -16.2295,-18.29449 -2.665,-1.17014 -5.5037,-1.69381 -8.3127,-1.72909 z" fill="#FFFFFF" paint-order="markers stroke fill" transform="translate(-279.57741,-47.5439) translate(-2783.863,795.44656)"/>
    <path d="m 3097.8485,-747.90266 c -2.4985,0.002 -5.658,0.81036 -7.4585,1.90841 -2.8897,1.7635 -3.2465,1.78401 -4.7558,0.27492 -1.5095,-1.50939 -1.9017,-1.48626 -5.2363,0.30954 -1.9829,1.06774 -3.8177,2.49605 -4.0783,3.17397 -0.3615,0.94112 -0.9054,0.96177 -2.3089,0.0853 -1.3812,-0.86217 -2.4598,-0.86202 -4.3574,0.003 -3.6211,1.64989 -4.7799,7.18114 -4.964,23.72516 -0.055,4.90998 0.18,8.64565 0.773,12.02769 -1.149,0.44458 -1.8711,0.86332 -1.8903,1.21698 -0.639,1.54863 1.1799,2.56916 2.6433,2.21847 0.5423,2.06046 1.2383,4.09326 2.1099,6.30918 2.8828,5.83299 4.8033,8.35848 7.9949,10.5115 4.4199,2.98194 8.5341,4.7866 12.6958,5.5702 v -10e-4 c 4.8341,0.90994 14.9245,-0.30264 18.6975,-2.24689 4.9151,-2.53292 9.7803,-7.65757 11.7466,-12.37186 1.0403,-2.49409 1.6944,-4.23105 2.0898,-4.18165 3.7124,0.46377 4.5208,-2.48744 0.4,-4.25659 -0.1975,-0.0847 0.046,-2.19399 0.046,-6.74481 0,-6.57126 -1.6161,-10.89876 -6.61,-17.70176 -1.9925,-2.7148 -3.458,-5.02876 -3.254,-5.13922 0.2031,-0.11162 1.2692,-0.70068 2.3688,-1.30948 1.0991,-0.60851 2.1469,-1.86672 2.3312,-2.79621 0.6036,-3.06919 -1.7943,-4.59197 -7.2316,-4.59197 -4.8103,0 -5.2308,-0.20074 -6.287,-2.99827 -1.0181,-2.69752 -1.5663,-2.99413 -5.4658,-2.99413 z m 7.9762,17.84491 c 2.422,-0.004 3.5027,1.83879 6.982,8.13645 0.2148,0.38875 0.4233,0.7954 0.6269,1.21129 -1.5451,-1.60581 -2.9947,-2.09345 -4.5594,-2.10323 -0.7398,-0.005 -1.5062,0.097 -2.3198,0.23617 -2.6042,0.44538 -4.6522,2.03377 -6.0813,4.08243 -1.429,2.04867 -1.8739,0.53416 -3.4458,-0.51986 -1.572,-1.05404 -4.4142,-2.77585 -8.2408,-1.49913 -3.8269,1.27669 -7.7967,4.37958 -7.8285,9.39735 0,0 0.011,0.34589 0.044,0.84853 -2.279,0.45263 -6.8513,1.39521 -10.7606,2.41536 -0.3024,-3.03398 0.01,-5.6609 1.0738,-6.83989 0.8637,-0.95469 2.0475,-2.99011 2.6304,-4.52273 0.9158,-2.40882 1.3343,-2.63922 3.0882,-1.70067 2.4626,1.31788 3.5558,0.72754 5.4559,-2.94762 1.3038,-2.52103 2.1522,-2.88893 8.1396,-3.53002 3.6763,-0.39378 8.856,-1.27916 11.5114,-1.96784 1.5826,-0.41056 2.7358,-0.69511 3.6835,-0.69659 z m 2.527,10.26914 c 1.9352,0.002 3.929,0.887 4.5419,2.80809 0.957,2.99879 2.1777,5.87902 0.6273,7.76439 -3.3634,4.34596 -9.3938,2.86198 -11.1523,-0.17674 0.3557,-0.235 0.7451,-0.66951 1.2046,-1.3255 2.012,-2.87231 3.2599,-2.79118 4.4313,0.28991 1.1394,2.99668 2.6325,3.22702 3.486,0.53743 1.4122,-4.4491 -4.0032,-8.4317 -8.3224,-6.12004 -0.023,0.0121 -0.043,0.0274 -0.066,0.0398 0.5359,-1.28306 1.2695,-2.32655 2.3022,-3.01325 0.7944,-0.52818 1.8616,-0.80511 2.9471,-0.80408 z m -17.8862,2.62723 c 1.8709,-0.0117 3.6862,0.57318 4.7516,1.47226 1.7092,1.44241 1.9479,5.40224 0.8687,7.21196 0.2268,-0.65241 0.2609,-1.59494 -0.019,-2.80448 -1.3381,-5.77909 -9.2607,-5.63373 -10.6412,-0.13333 -0.9115,3.63097 0.7,4.65631 3.0096,1.5627 2.0547,-2.7523 2.5073,-2.68862 4.1088,0.32918 0.9117,1.7179 2.0112,2.31426 2.7786,1.98644 -1.499,1.55941 -4.2001,3.29722 -6.7107,2.53628 -2.8899,-0.87587 -4.5796,-3.34952 -4.6364,-4.6762 -0.073,-1.70751 0.063,-4.91376 2.7942,-6.5319 1.1094,-0.65738 2.4158,-0.94489 3.6959,-0.95291 z m 51.6697,0.72812 c -1.2001,0.0903 -2.1512,1.56376 -2.1518,3.86333 -3e-4,1.72781 -1.4346,6.06425 -3.1879,9.63713 -4.107,8.37244 -4.0834,14.97433 0.1271,35.1901 1.6846,8.08633 3.0623,15.85965 3.0623,17.2744 0,3.29839 -1.166,2.70206 -10.4934,-5.36556 -10.0053,-8.65402 -22.2154,-17.13651 -27.744,-19.27479 -8.8396,-3.4185 -21.146,-1.80853 -28.3864,3.71398 -5.6616,4.31824 -7.6241,9.99692 -8.1313,23.52415 -0.2926,7.80358 -0.048,12.31187 0.7498,13.80225 h -5e-4 c 2.2797,4.2596 3.5301,1.71855 4.1734,-8.48113 1.012,-16.04061 3.6705,-22.61408 10.4996,-25.95862 4.8679,-2.38396 15.5355,-2.43863 20.0531,-0.10232 6.6879,3.45844 11.8622,13.29159 15.3132,29.09848 0.5949,2.72584 1.5417,5.50991 2.1033,6.1867 1.8276,2.20204 3.8866,0.34351 3.8586,-3.50418 -0.014,-3.54992 -2.0798,-13.62732 -3.6142,-17.63251 -0.4638,-1.21051 1.5793,0.10573 5.1795,3.33726 7.1715,6.43699 14.9921,11.14454 18.5653,11.14454 6.0449,0.0215 6.3891,-4.78598 1.8629,-26.0134 -1.6445,-7.71264 -2.99,-14.18092 -2.99,-14.37638 0,-0.19434 1.4615,-0.62968 3.2479,-0.96738 1.7865,-0.33739 4.66,-1.47582 6.3862,-2.52853 3.1026,-1.89296 3.1384,-2.00098 2.9988,-9.57254 -0.1518,-8.29256 -1.4792,-10.49394 -6.3278,-10.49394 -2.1204,0 -2.3074,-0.42963 -2.3074,-5.29632 0,-2.91337 -0.5048,-5.80149 -1.1214,-6.41821 -0.5826,-0.58269 -1.1794,-0.82757 -1.7249,-0.78651 z m -25.383,7.68377 c 0.3698,3.6384 0.1592,4.07985 0.1592,4.07985 -4.6801,-0.82698 -4.4844,3.0008 -0.832,3.961 0.3034,0.0797 -4.0962,7.86355 -8.5747,10.96419 -10.0812,6.98004 -27.7719,2.99117 -34.0201,-7.67085 -1.162,-1.98263 -2.0501,-4.39472 -2.6231,-6.79855 4.2335,-1.15435 8.7536,-2.39535 10.5632,-2.89233 0.1324,0.57988 0.3012,1.11864 0.5178,1.52703 0.8894,1.67756 4.4465,3.83037 7.384,4.17184 2.9375,0.34145 7.1289,-2.15286 8.0657,-3.68194 0.937,-1.5291 0.8639,-2.58724 3.2556,-0.28216 4.3653,4.20733 11.5783,2.2662 15.7474,-2.27118 0.183,-0.20531 0.2991,-0.59214 0.357,-1.1069 z m -10.6143,12.19873 c -0.5871,-5.9e-4 -1.3058,0.29606 -2.2743,0.90176 -3.9377,2.46295 -7.5857,2.84838 -11.4949,1.21491 -2.0132,-0.84222 -3.8794,-1.30989 -4.1486,-1.04076 -0.8388,0.83883 2.1569,3.78011 5.2927,5.19658 1.6493,0.74391 4.5484,1.14041 6.4425,0.87695 4.1685,-0.57735 9.0374,-4.94792 7.3701,-6.6151 -0.3537,-0.35372 -0.7309,-0.53388 -1.1875,-0.53434 z" fill="#00B894" transform="translate(-279.57741,-47.5439) translate(-2783.863,795.44656)"/>
</svg>