<?xml version="1.0" ?><svg height="112.14943mm" viewBox="0 0 89.261299 112.14943" width="89.261299mm" xmlns="http://www.w3.org/2000/svg">
    <path d="m 1983.1574,-739.29853 c -1.7939,0.007 -3.6132,0.24688 -5.4369,0.76326 -14.5901,4.13098 -17.9995,15.90406 -18.4258,26.49709 1.2131,18.50091 11.9341,33.63823 33.2786,28.62202 21.3442,-5.0162 20.8525,-28.26785 17.4429,-36.97242 -2.9838,-7.6165 -14.3018,-18.96039 -26.8588,-18.90995 z m -0.569,65.4544 c -7.1785,-0.0902 -14.1627,3.00915 -17.556,6.65696 -4.7215,5.0752 -6.1313,24.90403 -6.2953,34.31676 0.3934,4.45555 14.6232,2.41962 24.7872,3.54087 10.1639,1.12126 28.1638,1.20952 27.6722,-3.39359 -0.4919,-4.60311 -1.5415,-12.77647 -4.0659,-21.09742 -2.5247,-8.32098 -6.7542,-14.134 -16.2295,-18.29449 -2.665,-1.17014 -5.5037,-1.69381 -8.3127,-1.72909 z" fill="#FFFFFF" paint-order="markers stroke fill" transform="translate(60.990783,93.828953) translate(-2017.8687,647.00836)"/>
    <path d="m 1958.4614,-633.69758 c -0.7978,-1.49064 -1.0428,-5.99877 -0.7503,-13.80224 0.5074,-13.5273 2.4704,-19.20588 8.132,-23.52438 7.2401,-5.52225 19.5466,-7.13225 28.386,-3.71372 5.529,2.13823 17.7384,10.62059 27.7439,19.27462 9.3272,8.06766 10.4939,8.66401 10.4939,5.3656 0,-1.4147 -1.3784,-9.18824 -3.0625,-17.27462 -4.2109,-20.21585 -4.2347,-26.81772 -0.1273,-35.19007 1.753,-3.57257 3.1876,-7.90964 3.1882,-9.63716 0,-3.34504 2.0118,-4.94139 3.8765,-3.07671 0.6165,0.61645 1.1211,3.5046 1.1211,6.41761 0,4.86698 0.1868,5.29702 2.3074,5.29702 4.8488,0 6.176,2.20129 6.3276,10.49371 0.1381,7.57165 0.1043,7.67981 -2.998,9.57257 -1.7262,1.05293 -4.6002,2.1907 -6.3863,2.52838 -1.7865,0.33768 -3.2483,0.77278 -3.2483,0.96747 0,0.19546 1.3457,6.66385 2.9902,14.37619 4.5261,21.22782 4.1817,26.03527 -1.8633,26.01349 -3.5732,0 -11.3935,-4.70727 -18.565,-11.14421 -3.6004,-3.23152 -5.6432,-4.54802 -5.1797,-3.33753 1.5342,4.00522 3.6003,14.08254 3.6145,17.63224 0.029,3.84796 -2.0309,5.70666 -3.8584,3.5046 -0.5619,-0.67689 -1.5086,-3.46102 -2.1036,-6.18686 -3.4507,-15.80699 -8.6256,-25.63976 -15.3136,-29.09849 -4.5176,-2.33599 -15.1848,-2.28168 -20.0526,0.10126 -6.8291,3.34458 -9.488,9.91807 -10.4997,25.95842 -0.6436,10.1999 -1.8938,12.74086 -4.1735,8.48158 z m 23.0362,-46.5006 c -13.0715,-2.46057 -22.0298,-12.54679 -24.0947,-27.1281 -1.2442,-8.78551 -0.3498,-14.04939 3.4675,-20.41009 9.6539,-16.08575 31.9906,-17.64068 44.5139,-3.09864 6.3185,7.33721 9.0935,13.61184 9.0935,20.56335 0,4.82878 0.5239,6.27057 0.5239,6.27057 4.1417,1.23359 4.3935,6.11019 -1.1547,5.27371 0,0 -0.8651,1.41629 -1.905,3.91046 -1.9664,4.71433 -6.8323,9.83875 -11.7475,12.37173 -3.7727,1.94416 -13.8631,3.15695 -18.6969,2.24701 z m 18.4888,-9.17582 c 4.4783,-3.10064 8.3871,-10.39739 8.0311,-10.54879 -2.9502,-1.25466 -2.9777,-5.29125 1.1438,-4.48388 0,0 0.5124,-0.46379 -0.1392,-5.83952 -1.3724,-11.31927 -10.8114,-23.93479 -19.7226,-26.35992 -10.1596,-2.76465 -21.8145,2.59251 -25.2582,11.60939 -2.7708,7.25575 -1.8558,21.5006 1.7797,27.70419 6.3957,10.91301 23.9604,14.9842 34.1654,7.91853 z m -13.9919,-0.53421 c -3.1359,-1.41654 -6.1312,-4.35716 -5.2924,-5.19592 0.2691,-0.2691 2.1354,0.19822 4.1482,1.04051 3.9092,1.63347 7.5575,1.24762 11.4952,-1.2151 1.7216,-1.07702 2.6531,-1.17567 3.4615,-0.36714 1.6672,1.66723 -3.2017,6.03728 -7.3697,6.61491 -1.8945,0.26343 -4.7937,-0.13347 -6.4428,-0.87726 z m -0.969,-19.24439 c -1.1759,-3.22917 -2.8973,-3.01187 -4.1086,-0.32925 -1.5887,3.51849 -3.9212,2.06828 -3.0099,-1.56259 1.3805,-5.50046 8.7182,-5.47851 10.6412,0.13348 0.9146,2.66925 -1.8121,6.45601 -3.5227,1.75836 z m 15.4607,-0.90519 c -1.1715,-3.08116 -2.4196,-3.16293 -4.4316,-0.29043 -1.1321,1.6163 -1.8435,1.91087 -2.6545,1.09973 -1.4955,-1.4954 -0.2408,-5.05891 2.2497,-6.39184 4.3191,-2.31175 9.7342,1.67076 8.3223,6.11998 -0.854,2.68932 -2.3469,2.45919 -3.4859,-0.53744 z" fill="#00B894" transform="translate(60.990783,93.828953) translate(-2017.8687,647.00836)"/>
</svg>