<?xml version="1.0" ?><svg height="112.47342mm" viewBox="0 0 89.232201 112.47342" width="89.232201mm" xmlns="http://www.w3.org/2000/svg">
    <path d="m 2973.6075,-738.53682 c -1.7939,0.007 -3.6132,0.24688 -5.4369,0.76326 -13.9403,3.94699 -17.671,14.87001 -18.3477,25.07495 -1.0251,0.16742 -1.6434,0.42106 -1.7353,0.78238 -0.9187,3.61024 6.125,27.14573 5.4818,31.4725 -0.643,4.32679 -2.0516,6.3387 -4.0421,13.09067 -1.9904,6.75196 0.03,4.10644 1.3777,10.50014 0,0 0.5457,0.13944 0.7317,0.18758 -1.7129,7.99698 -2.3432,18.45993 -2.4494,24.55665 0.3934,4.45554 14.6231,2.41962 24.7871,3.54086 10.1639,1.12126 28.1638,1.20952 27.6722,-3.39359 -0.4826,-4.51637 -1.5058,-12.47017 -3.9284,-20.62768 0.1252,-5.54104 -0.1494,-13.10667 -1.1855,-16.69304 -1.1944,-4.13386 -6.768,-12.73249 -2.9709,-17.25217 0.585,-0.69621 1.1838,-1.70283 1.7782,-2.90474 8.5896,-9.07267 7.6728,-23.6868 5.1263,-30.18782 -2.9838,-7.61649 -14.3018,-18.96039 -26.8588,-18.90995 z" fill="#FFFFFF" paint-order="markers stroke fill" transform="translate(-198.26951,-35.631935) translate(-2748.1912,776.03153)"/>
    <path d="m 2948.0055,-633.35628 c -0.8512,-1.53518 -1.0433,-6.09195 -0.6999,-14.80179 0.2719,-6.91264 0.1043,-13.61365 -0.3751,-14.89159 -0.6482,-1.73035 -0.088,-4.27488 2.1935,-9.97447 3.3066,-8.25827 3.3619,-12.24335 0.3062,-22.18157 -2.1343,-6.94237 -3.487,-17.97777 -2.7808,-22.68751 0.8692,-5.79618 6.0677,-14.12444 10.911,-17.48033 8.1677,-5.65963 19.9026,-6.65428 28.3004,-2.39865 9.85,4.99135 18.1714,17.75059 18.1714,27.86161 0,4.82873 0.4092,6.77987 0.4092,6.77987 3.6049,1.30404 2.6703,6.1463 -0.6654,4.77236 0,0 -1.2404,1.40927 -2.2819,3.90226 -0.861,2.06123 -2.634,4.87207 -3.9397,6.24633 -4.0469,4.25874 -4.0633,6.93473 -0.09,14.42584 1.9629,3.70009 3.5689,7.35543 3.5689,8.12286 0,1.56378 6.2415,7.56081 14.7987,14.21905 5.3322,4.14883 5.7094,4.28935 6.0186,2.24056 0.1813,-1.20228 -1.1123,-9.23421 -2.8744,-17.84887 -4.2562,-20.80674 -4.2794,-26.69585 -0.1396,-35.15102 1.7496,-3.57289 3.1817,-7.90954 3.182,-9.63706 9e-4,-3.34512 2.0122,-4.94148 3.8766,-3.07712 0.6168,0.61672 1.1212,3.50461 1.1212,6.41799 0,4.86671 0.187,5.29675 2.3075,5.29675 4.8485,0 6.1758,2.20118 6.3277,10.49401 0.1381,7.57129 0.1043,7.67952 -2.9985,9.57247 -1.7258,1.05301 -4.5997,2.19072 -6.3861,2.52812 -1.7866,0.33768 -3.2481,0.77311 -3.2481,0.96745 0,0.19547 1.3453,6.6639 2.9898,14.37655 4.5263,21.22744 4.182,26.03493 -1.8628,26.01339 -3.5732,0 -11.3938,-4.7072 -18.5653,-11.14446 -3.6002,-3.23125 -5.6433,-4.54771 -5.1795,-3.33748 1.5343,4.0052 3.6001,14.0825 3.6146,17.63244 0.028,3.812 -2.0335,5.71856 -3.8098,3.54541 -0.5348,-0.6544 -1.7482,-4.33806 -2.6958,-8.18574 -0.948,-3.8477 -1.851,-7.14182 -2.0072,-7.3203 -0.1557,-0.17847 -2.0113,0.81136 -4.123,2.20005 -4.8919,3.2168 -12.5697,4.93866 -18.3308,4.11087 -5.2295,-0.75158 -12.3028,-4.57744 -16.2695,-8.80022 -1.5278,-1.62638 -3.0456,-2.68929 -3.3732,-2.36182 -0.3272,0.3275 -0.9805,5.18226 -1.2198,10.80055 -0.2917,6.84874 -0.8898,14.68936 -4.1811,8.75321 z m 41.8889,-16.27548 c 5.4438,-3.75327 6.956,-8.38151 5.2602,-15.95932 -0.6598,-2.94851 -1.8004,-6.18231 -2.5343,-7.1863 -1.2678,-1.73375 -1.5034,-1.68276 -4.7055,1.02042 -8.1931,6.91689 -18.0828,8.79004 -25.6394,5.83442 -7.6653,-2.99814 1.7761,-2.03738 5.2787,-2.25358 7.4813,-0.46179 9.8354,-1.03999 13.9917,-3.43748 9.2208,-5.31827 11.7642,-8.93564 3.8089,-5.41657 -5.0908,2.25218 -15.4667,3.48875 -19.911,2.37342 -3.8919,-0.97678 -1.2762,-2.48787 4.6092,-2.66267 2.4733,-0.0736 5.8463,-0.44079 7.4953,-0.81644 2.5323,-0.57651 1.9888,-0.80286 -3.4977,-1.45585 -7.072,-0.84167 -11.8511,-2.70233 -14.5223,-5.65425 -0.9417,-1.04025 -2.5592,-6.02224 -3.5946,-11.07109 -2.2182,-10.81528 -1.7262,-13.6689 3.721,-21.57816 4.5477,-6.60299 12.6815,-10.96032 22.3059,-11.94958 l 6.4112,-0.65895 -2.6793,-2.30458 c -4.1217,-3.54541 -10.087,-4.8021 -16.8719,-3.55448 -7.189,1.32212 -12.4023,5.1803 -14.9123,11.03568 -2.4657,5.75227 -2.6305,20.97672 -0.3323,30.70501 2.2197,9.39542 2.2865,17.13356 0.1814,21.10364 -0.9324,1.75925 -1.695,5.14744 -1.695,7.52964 0,3.90463 0.5165,4.83837 5.2468,9.48127 2.8857,2.83235 7.2705,6.32167 9.744,7.75401 3.8995,2.25812 5.4409,2.56352 11.596,2.29948 4.883,-0.42455 8.2331,-1.10092 11.2453,-3.17769 z m -5.7494,-36.71734 c 5.0446,-1.689 9.8034,-5.59843 11.7057,-9.61667 1.2855,-2.71509 1.5135,-3.50393 1.5135,-3.50393 -2.9078,-0.80802 -2.4867,-4.49711 1.1768,-4.28447 0,0 0.6877,-0.75685 0.04,-6.13092 -0.4075,-3.37884 -1.8644,-7.89821 -3.4837,-10.80509 -2.574,-4.62107 -3.0976,-5.02023 -6.9577,-5.30607 -14.5808,-1.08021 -28.0902,10.5841 -28.0748,24.24111 0,8.49171 1.4716,12.01814 5.7465,13.85842 6.3191,2.72017 13.1178,3.29412 18.3339,1.54762 z m -8.5959,-3.1981 c -3.1358,-1.41646 -6.131,-4.35733 -5.2926,-5.19587 0.2691,-0.26913 2.1358,0.1983 4.1487,1.04024 3.909,1.63348 7.557,1.24792 11.4947,-1.21503 1.7219,-1.0768 2.6532,-1.17567 3.4617,-0.36715 1.6674,1.66718 -3.2016,6.03754 -7.3699,6.61489 -1.8941,0.26346 -4.7933,-0.13317 -6.4426,-0.87708 z m -0.9689,-19.24467 c -1.4261,-2.74979 -2.5684,-2.98602 -4.1086,-0.32918 -1.9362,3.33998 -3.9211,2.06832 -3.0097,-1.56264 1.3805,-5.50043 9.303,-5.64568 10.641,0.13317 0.9541,4.12078 -1.7055,5.26259 -3.5227,1.75865 z m 15.4604,-0.90483 c -1.1713,-3.0811 -2.4193,-3.16296 -4.4312,-0.29066 -1.1321,1.61619 -1.8434,1.9111 -2.6545,1.10003 -1.4956,-1.4955 -0.2407,-5.05905 2.2496,-6.39223 4.3191,-2.31138 9.7343,1.67086 8.322,6.12026 -0.8535,2.68931 -2.3466,2.45899 -3.4859,-0.5374 z" fill="#00B894" transform="translate(-198.26951,-35.631935) translate(-2748.1912,776.03153)"/>
</svg>