<?xml version="1.0" ?><svg height="117.72706mm" viewBox="0 0 97.109726 117.72706" width="97.109726mm" xmlns="http://www.w3.org/2000/svg">
    <path d="m 2099.0355,-743.17117 c -0.6765,0.002 -1.3662,0.0412 -2.0686,0.12144 -14.9836,1.71143 -25.8034,6.46188 -30.2296,19.35644 -4.4263,12.89459 -0.164,43.52296 -0.7871,49.42438 -0.6228,5.90139 1.2787,6.66848 3.574,5.39967 2.295,-1.26881 4.2624,-2.89165 6.0983,1.77043 0.2837,0.72031 1.3227,1.36994 2.8861,1.94459 -4.2504,6.02502 -5.5486,24.57316 -5.7056,33.58193 0.3934,4.45554 14.6227,2.41962 24.7866,3.54087 10.164,1.12125 28.1639,1.21003 27.6723,-3.39308 -0.4919,-4.60311 -1.541,-12.77698 -4.0654,-21.09794 -1.3689,-4.51156 -3.2413,-8.28436 -6.1769,-11.45769 2.888,-2.48362 5.2315,-5.72749 5.6193,-7.33806 0.4262,-1.77041 3.7706,2.47841 5.1475,0.4129 1.0332,-1.54965 -1.2371,-17.04908 -2.4355,-24.69514 3.7075,-8.4524 2.7129,-18.42894 0.7307,-23.48952 -0.3984,-1.01699 -0.9507,-2.10191 -1.6294,-3.21582 -2.5569,-7.54457 -10.6892,-20.89688 -23.4167,-20.8654 z" fill="#FFFFFF" paint-order="markers stroke fill" transform="translate(-223.27569,231.27455) translate(-1838.6373,513.84214)"/>
    <path d="m 2071.3439,-631.46452 c -1.7657,-3.29947 -0.7526,-24.28873 1.416,-29.33583 2.3068,-5.36928 1.4855,-7.36483 -1.9267,-4.68088 -5.0738,3.99141 -7.43,0.29488 -7.4428,-11.67704 0,-4.22415 -0.4635,-11.65419 -1.0198,-16.51058 -2.083,-18.18257 3.0998,-36.30944 12.3983,-43.36222 14.6097,-11.08131 30.3434,-10.75866 43.0813,0.88294 6.5358,5.97361 8.1541,10.334 9.1634,24.69607 0.5519,7.85118 0.696,9.93579 0.696,9.93579 2.8442,0.51286 4.6859,5.75194 -1.0818,4.90479 -0.3767,-0.0553 -0.5135,0.66271 -0.7521,1.66804 -0.2387,1.00533 0.093,2.63298 0.9382,5.12224 1.5232,4.48598 2.1216,17.80868 0.9387,20.89091 -0.8102,2.112 -4.0491,2.01335 -5.2649,-0.15864 -1.1416,-2.04004 -1.9722,-1.498 -2.352,1.53483 -0.1954,1.55554 1.0551,3.23488 4.4158,5.93479 2.5776,2.07088 8.1993,6.64575 12.4923,10.166 9.6688,7.9282 9.6824,7.89276 5.2608,-13.72399 -4.2559,-20.80668 -4.2792,-26.69576 -0.138,-35.15096 1.7499,-3.57287 3.1816,-7.90947 3.1822,-9.6373 8e-4,-3.34489 2.012,-4.94155 3.8765,-3.07687 0.6168,0.61676 1.1214,3.5046 1.1214,6.41792 0,4.86683 0.187,5.29687 2.3074,5.29687 4.8486,0 6.1757,2.20113 6.3273,10.49371 0.1381,7.57149 0.1043,7.6798 -2.998,9.57271 -1.7262,1.05309 -4.5999,2.19071 -6.3863,2.52808 -1.7865,0.33768 -3.2483,0.77309 -3.2483,0.96747 0,0.19546 1.3457,6.66386 2.9902,14.37665 4.5261,21.22736 4.1817,26.03482 -1.8633,26.01334 -3.5729,0 -11.3934,-4.70743 -18.565,-11.14452 -3.6001,-3.23151 -5.6432,-4.54802 -5.1794,-3.33737 1.5342,4.00506 3.6,14.08238 3.6145,17.63239 0.029,3.84765 -2.0312,5.70666 -3.8587,3.5043 -0.5619,-0.67674 -1.5083,-3.46103 -2.1034,-6.18687 -3.4509,-15.80684 -8.6258,-25.6396 -15.3138,-29.09818 -4.5176,-2.3363 -15.1845,-2.28183 -20.0526,0.10126 -6.8291,3.34458 -9.4877,9.91807 -10.4997,25.95872 -0.6433,10.19975 -1.8938,12.74087 -4.1732,8.48159 z m 17.294,-41.94245 c 6.9012,-1.71019 15.511,-0.79917 21.7835,2.30516 2.9296,1.44998 5.678,2.41853 6.108,2.15311 0.4299,-0.26634 1.3148,-2.26327 1.9667,-4.43863 1.3434,-4.48404 1.5177,-4.58285 4.0454,-2.29534 1.7454,1.57994 1.8122,1.51903 1.3698,-1.249 -0.255,-1.6008 -0.7403,-4.65449 -1.0763,-6.78628 l -0.6107,-3.8765 -3.1789,3.01504 c -5.5209,5.23688 -9.3619,6.64974 -18.1692,6.68318 -11.8262,0.046 -20.489,-4.18855 -25.2934,-12.36038 l -2.6898,-4.57579 -0.5649,7.26081 c -0.3108,3.99341 -1.0978,7.7935 -1.7491,8.44477 -0.9124,0.9124 -1.1787,-2.93019 -1.1606,-16.75513 0.028,-17.64069 0.068,-18.02117 2.7482,-22.86805 2.6816,-4.85026 6.4319,-7.96763 4.7545,-3.95214 -0.4328,1.03713 -1.015,2.94002 -1.2932,4.22921 -0.4828,2.23658 -0.2833,2.18503 4.3761,-1.13194 6.0276,-4.29165 13.8201,-8.23289 18.1123,-9.16093 1.78,-0.38463 3.4898,-1.1097 3.7994,-1.61047 0.3098,-0.50122 -0.3582,-2.99416 -1.4846,-5.54004 l -2.0477,-4.62933 -5.8828,0.42544 c -7.6643,0.55446 -18.4724,5.73412 -21.1981,10.15863 -4.9182,7.98496 -6.7924,21.16999 -5.085,35.77599 0.6008,5.14084 1.385,12.63378 1.7424,16.65051 0.608,6.82878 0.7622,7.2022 2.3707,5.7467 2.4932,-2.25652 3.6626,-1.93419 5.0393,1.38922 l 1.2203,2.94615 3.648,-2.38815 c 2.0066,-1.3136 5.7863,-2.91807 8.3997,-3.56582 z m 24.2309,-13.73396 c 6.6359,-4.5074 8.1665,-10.29632 8.1665,-10.29632 -3.1425,-0.78309 -2.6117,-5.00334 1.2543,-4.60491 0,0 0.2667,-0.5957 -0.3841,-5.97127 -0.9468,-7.82203 -2.3847,-9.69822 -10.6053,-13.83798 -5.7696,-2.9055 -7.6807,-3.41823 -10.7212,-2.87681 -4.9954,0.88954 -17.9047,7.65741 -22.0623,11.56628 -3.2113,3.01933 -3.3446,3.4239 -2.8157,8.54771 1.3989,13.55385 12.6176,21.94415 27.6735,20.69637 3.851,-0.31911 6.6764,-1.309 9.4943,-3.22307 z m -13.9919,-0.53406 c -3.1358,-1.41639 -6.1313,-4.35762 -5.2924,-5.19592 0.2691,-0.2691 2.1353,0.19837 4.1482,1.04004 3.9095,1.63379 7.5574,1.24793 11.4952,-1.21509 1.7216,-1.07671 2.653,-1.17567 3.4615,-0.36714 1.6673,1.66723 -3.2017,6.03789 -7.3699,6.61522 -1.8943,0.26342 -4.7936,-0.13348 -6.4426,-0.87711 z m -0.9691,-19.2447 c 0,-3.47138 -2.6549,-3.14817 -4.1087,-0.32909 -2.8136,2.64345 -3.9209,2.06827 -3.0096,-1.56275 1.3808,-5.50061 8.5336,-5.41163 10.6413,0.13348 1.7579,4.62427 -3.523,5.5442 -3.523,1.75989 z m 16.489,-0.92791 c -1.1714,-3.08085 -2.4196,-3.16263 -4.4313,-0.29043 -1.1321,1.61645 -1.8436,1.91117 -2.6545,1.10034 -1.4954,-1.49555 -0.2407,-5.05937 2.2495,-6.39214 4.3189,-2.31175 9.7341,1.67075 8.3222,6.12028 -0.8535,2.68917 -2.3468,2.45857 -3.4859,-0.53805 z m 5.9674,-15.51041 c 0,-3.38171 -14.7432,-17.54909 -16.4537,-15.81175 -0.1954,0.20114 0.3889,2.72001 1.302,5.60018 1.3425,4.23612 2.2328,5.44063 4.6581,6.3047 1.6488,0.58729 4.5721,2.13992 6.496,3.45044 4.3069,2.93357 3.9976,2.89813 3.9976,0.45643 z" fill="#00B894" transform="translate(-223.27569,231.27455) translate(-1838.6373,513.84214)"/>
</svg>