<?xml version="1.0" ?><svg height="118.2623mm" viewBox="0 0 97.109612 118.2623" width="97.109612mm" xmlns="http://www.w3.org/2000/svg">
    <path d="m 2206.8388,-739.33525 c -0.6765,0.002 -1.3662,0.0412 -2.0686,0.12144 -14.9836,1.71143 -25.8034,6.46188 -30.2296,19.35644 -4.4263,12.89459 -0.164,43.52296 -0.7871,49.42438 -0.6228,5.90139 1.2787,6.66848 3.574,5.39967 2.295,-1.26881 4.2624,-2.89165 6.0983,1.77043 0.2837,0.72031 1.3227,1.36994 2.8861,1.94459 -4.2504,6.02502 -5.5486,24.57316 -5.7056,33.58193 0.3934,4.45554 14.6227,2.41962 24.7866,3.54087 10.164,1.12125 28.1639,1.21003 27.6723,-3.39308 -0.4919,-4.60311 -1.541,-12.77698 -4.0654,-21.09794 -1.3689,-4.51156 -3.2413,-8.28436 -6.1769,-11.45769 2.888,-2.48362 5.2315,-5.72749 5.6193,-7.33806 0.4262,-1.77041 3.7706,2.47841 5.1475,0.4129 1.0332,-1.54965 -1.2371,-17.04908 -2.4355,-24.69514 3.7075,-8.4524 2.7129,-18.42894 0.7307,-23.48952 -0.3984,-1.01699 -0.9507,-2.10191 -1.6294,-3.21582 -2.5569,-7.54457 -10.6892,-20.89688 -23.4167,-20.8654 z" fill="#FFFFFF" paint-order="markers stroke fill" transform="translate(-552.99608,129.60573) translate(-1616.9971,612.21028)"/>
    <path d="m 2205.0916,-741.81001 c -7.3519,-0.1507 -14.9377,2.53896 -22.2426,8.07961 -9.2985,7.05277 -14.4812,25.17966 -12.3982,43.36221 0.5563,4.85639 1.0196,12.28648 1.0196,16.51062 0.013,11.97191 2.3692,15.66873 7.443,11.67733 3.4122,-2.68395 4.2333,-0.68843 1.9265,4.68085 -2.1686,5.04709 -3.1817,26.03621 -1.416,29.33567 h 5e-4 c 2.2794,4.25928 3.5301,1.71809 4.1734,-8.48165 1.012,-16.04063 3.6706,-22.61404 10.4996,-25.95862 4.8681,-2.38309 15.535,-2.43758 20.0526,-0.10129 6.688,3.45858 11.8629,13.29166 15.3138,29.09849 0.5951,2.72583 1.5413,5.50996 2.1032,6.1867 1.8275,2.20236 3.8877,0.34347 3.8587,-3.50418 -0.014,-3.55001 -2.0801,-13.62746 -3.6143,-17.63252 -0.4638,-1.21065 1.5795,0.10576 5.1796,3.33727 7.1715,6.43708 14.9918,11.14454 18.5647,11.14454 6.045,0.0215 6.3896,-4.78606 1.8635,-26.0134 -1.6445,-7.71278 -2.9906,-14.18093 -2.9906,-14.37639 0,-0.19438 1.4619,-0.6297 3.2484,-0.96738 1.7864,-0.33737 4.66,-1.47544 6.3862,-2.52853 3.1023,-1.8929 3.1364,-2.00106 2.9983,-9.57254 -0.1516,-8.29257 -1.4787,-10.49342 -6.3273,-10.49342 -2.1204,0 -2.3073,-0.43052 -2.3073,-5.29735 0,-2.91331 -0.5046,-5.80093 -1.1214,-6.41769 -1.8645,-1.86468 -3.876,-0.26807 -3.8768,3.07681 -6e-4,1.72783 -1.4323,6.06427 -3.1822,9.63714 -4.1412,8.45519 -4.1179,14.34468 0.138,35.15134 4.4215,21.61673 4.4081,21.65191 -5.2607,13.72371 -4.293,-3.52024 -9.9147,-8.09491 -12.4923,-10.16578 -3.3607,-2.69991 -4.6111,-4.3795 -4.4157,-5.93504 0.3798,-3.03283 1.2102,-3.57483 2.3518,-1.53479 1.2158,2.17199 4.4546,2.27064 5.2648,0.15864 1.1829,-3.08222 0.5847,-16.40474 -0.9385,-20.89071 -0.8452,-2.48926 -1.1771,-4.11684 -0.9384,-5.12217 0.2386,-1.00533 0.3757,-1.72341 0.7524,-1.66811 5.7677,0.84715 3.9258,-4.39175 1.0816,-4.90461 0,0 -0.1442,-2.08466 -0.6961,-9.93583 -1.0093,-14.36206 -2.6275,-18.72256 -9.1633,-24.69617 -6.3689,-5.82079 -13.4866,-8.81206 -20.8385,-8.96276 z m 1.372,4.5651 2.0474,4.62917 c 1.1264,2.54588 1.7945,5.03901 1.4847,5.54023 -0.3096,0.50077 -2.0193,1.22561 -3.7993,1.61024 -4.2921,0.92804 -12.0849,4.86955 -18.1125,9.1612 -4.6594,3.31696 -4.8588,3.36829 -4.376,1.13171 0.2782,-1.28919 0.8601,-3.19207 1.2929,-4.2292 1.6774,-4.01548 -2.0726,-0.89804 -4.7542,3.95222 -2.2146,4.00499 -2.6214,5.10878 -2.7135,15.27245 -0.625,0.30322 -0.9992,0.58788 -1.0129,0.83974 -0.3986,0.966 0.1599,1.72621 0.9912,2.07688 -0.01,1.44066 -0.01,2.91511 -0.013,4.6793 -0.018,13.82492 0.2482,17.66745 1.1606,16.75505 0.6513,-0.65127 1.4379,-4.45156 1.7487,-8.44497 l 0.5654,-7.26053 2.6897,4.57543 c 4.8044,8.17182 13.4669,12.40648 25.2931,12.36048 8.8073,-0.0334 12.6485,-1.44644 18.1694,-6.68331 l 3.1791,-3.0148 0.6103,3.87625 c 0.336,2.13178 0.8215,5.18586 1.0765,6.78666 0.4424,2.76803 0.3754,2.82896 -1.37,1.24902 -2.5277,-2.28751 -2.7018,-2.18908 -4.0452,2.29495 -0.6519,2.17536 -1.5369,4.17267 -1.9668,4.43901 -0.43,0.26542 -3.1781,-0.70338 -6.1077,-2.15336 -6.2725,-3.10433 -14.8824,-4.01547 -21.7836,-2.30529 -2.6134,0.64775 -6.3934,2.2526 -8.4,3.5662 l -3.6479,2.38796 -1.2201,-2.94607 c -1.3767,-3.32341 -2.5463,-3.64558 -5.0395,-1.38906 -1.6084,1.4555 -1.7623,1.08183 -2.3703,-5.74694 -0.3574,-4.01672 -1.1418,-11.50983 -1.7426,-16.65066 -1.7074,-14.60599 0.1668,-27.79064 5.085,-35.7756 2.7257,-4.4245 13.5339,-9.60461 21.1982,-10.15907 z m 5.9934,1.2299 c 3.0292,0.13733 15.9872,12.78733 15.9872,15.95768 0,2.4417 0.3092,2.47726 -3.9977,-0.4563 -1.9239,-1.31052 -4.8469,-2.86315 -6.4957,-3.45044 -2.4253,-0.86407 -3.3156,-2.06841 -4.6581,-6.30452 -0.9131,-2.88017 -1.4977,-5.39904 -1.3023,-5.60018 0.1069,-0.10858 0.2647,-0.1554 0.4666,-0.14624 z m -1.6515,14.40015 c 2.0906,0.052 4.2474,0.88529 8.5746,3.06441 1.151,0.5796 2.1565,1.11236 3.0588,1.62574 -0.2192,-0.0293 -0.4268,-0.0463 -0.6165,-0.0475 -0.7398,0 -1.5062,0.0975 -2.3198,0.23668 -2.6041,0.4453 -4.6517,2.03322 -6.0808,4.08192 -1.4289,2.0487 -1.8744,0.53413 -3.4463,-0.51986 -1.572,-1.054 -4.4142,-2.77584 -8.2408,-1.49914 -3.8269,1.2767 -7.7967,4.38008 -7.8285,9.39788 0,0 0.012,0.34573 0.044,0.84853 -2.1771,0.43238 -6.4683,1.31621 -10.2485,2.28203 -0.4131,-4.30157 -0.1223,-4.88042 2.8944,-7.71684 4.1576,-3.90887 17.0668,-10.67668 22.0622,-11.56622 0.7602,-0.13536 1.4498,-0.20492 2.1467,-0.18759 z m 10.4949,7.66723 c 1.9352,0 4.9945,1.39498 5.6074,3.31608 0.957,2.9987 1.1117,5.37101 -0.4387,7.2564 -3.6573,4.72577 -10.4679,2.55809 -11.5104,-1.00614 0.1038,0.24105 0.247,0.45884 0.4325,0.64441 0.8109,0.81083 1.522,0.51626 2.6541,-1.10019 2.0117,-2.8722 3.2599,-2.79043 4.4313,0.29042 1.1391,2.99662 2.6326,3.22712 3.4861,0.53795 1.4119,-4.44952 -4.0031,-8.4323 -8.322,-6.12056 -1.0395,0.55634 -1.8592,1.50276 -2.358,2.52388 0.5359,-2.43771 1.4221,-4.44232 3.0701,-5.53816 0.7944,-0.5282 1.8621,-0.80509 2.9476,-0.80409 z m -17.8867,2.62723 c 1.8709,-0.012 3.6867,0.57317 4.7521,1.47226 1.1534,0.97333 1.6363,3.09355 1.4976,4.9258 -0.044,-0.14757 -0.093,-0.2987 -0.1524,-0.45475 -2.1077,-5.54511 -9.261,-5.63445 -10.6418,-0.13384 -0.9113,3.63101 0.1961,4.20614 3.0097,1.56269 1.4538,-2.81907 4.1088,-3.1422 4.1088,0.32918 v 0.002 c 0,1.56709 0.9059,2.32552 1.8422,2.35025 -1.5511,1.4268 -3.9872,2.80008 -6.2693,2.10839 -2.8899,-0.87589 -4.5797,-3.3496 -4.6365,-4.6762 -0.073,-1.70749 0.063,-4.9138 2.7937,-6.5319 1.1094,-0.6574 2.4158,-0.94533 3.6959,-0.95343 z m 26.7379,8.07858 c 0.4271,3.98902 0.2181,4.5005 0.2181,4.5005 -3.866,-0.39843 -4.3967,3.8218 -1.2542,4.60489 0,0 -1.5306,5.78913 -8.1665,10.29653 -2.8179,1.91406 -5.6435,2.90395 -9.4945,3.22305 -13.9787,1.15851 -24.644,-5.9949 -27.219,-17.87177 3.7781,-1.03099 8.4444,-2.31142 10.1379,-2.77658 0.1325,0.5801 0.3007,1.11854 0.5173,1.52704 0.8894,1.6775 4.4465,3.83044 7.384,4.17184 2.9375,0.3415 7.1289,-2.15285 8.0657,-3.68195 0.937,-1.52909 0.8639,-2.58663 3.2556,-0.28163 4.3653,4.20739 11.5788,2.2657 15.7479,-2.2717 0.327,-0.47239 0.5921,-0.95384 0.8077,-1.44022 z m -10.5699,12.5951 c -0.5871,-5.8e-4 -1.3054,0.2961 -2.2738,0.90175 -3.9378,2.46302 -7.5859,2.8487 -11.4954,1.21491 -2.0129,-0.84167 -3.879,-1.30934 -4.1481,-1.04024 -0.8389,0.8383 2.1569,3.77967 5.2927,5.19606 1.649,0.74363 4.5482,1.14037 6.4425,0.87695 4.1682,-0.57733 9.0369,-4.94787 7.3696,-6.6151 -0.3537,-0.35373 -0.7309,-0.53388 -1.1875,-0.53433 z" fill="#00B894" transform="translate(-552.99608,129.60573) translate(-1616.9971,612.21028)"/>
</svg>