<?xml version="1.0" ?><svg height="122.9241mm" viewBox="0 0 105.52248 122.9241" width="105.52248mm" xmlns="http://www.w3.org/2000/svg">
    <path d="m 2415.2411,-743.22284 c -0.1596,-0.003 -0.3129,-0.002 -0.4584,0.006 -2.3278,0.11803 -6.3283,2.59674 -6.3283,2.59674 0,0 -6.3932,1.20983 -8.262,2.03605 -1.869,0.82618 -3.3445,5.63584 -3.3445,5.63584 0,0 -4.5904,1.3866 -6.6885,3.39307 -2.0982,2.00647 -1.6066,3.30524 -2.1312,7.14117 -0.5247,3.83592 -2.4263,2.53758 -4.2297,5.34076 -1.8031,2.80317 0.4919,2.59613 0,7.08122 -0.4916,4.48504 -3.1473,3.95421 -2.8851,6.96391 0.2624,3.00972 2.3607,4.01277 1.7048,7.81916 -0.6556,3.8064 4.8198,5.01631 8.0657,5.57692 3.2459,0.56063 1.2461,5.39995 3.7052,7.3179 2.1265,1.65862 7.9026,0.11878 12.7558,-0.93896 5.5033,5.55769 13.5592,8.1483 24.3138,5.62085 12.466,-2.92969 17.4768,-12.07941 18.8148,-20.91862 2.4441,-2.57726 4.6431,-5.27416 4.7713,-6.74946 0.2953,-3.3933 -2.2622,-12.42257 -2.59,-15.04869 -0.3278,-2.62614 -5.5738,-7.61246 -5.5738,-7.61246 0,0 -2.1643,-6.43274 -3.607,-7.58352 -1.4425,-1.15077 -9.5736,-1.56367 -11.1146,-2.18332 -1.5409,-0.61965 -2.1313,-4.89811 -3.2132,-5.07515 -1.0821,-0.17703 -7.5081,0.79634 -7.5081,0.79634 0,0 -3.8035,-1.16681 -6.197,-1.21543 z m 6.2326,75.16233 c -7.1784,-0.0902 -14.1627,3.00916 -17.556,6.65696 -4.7215,5.0752 -6.1312,24.90405 -6.2952,34.31677 0.3934,4.45555 14.6231,2.41962 24.7871,3.54087 10.1639,1.12126 28.1638,1.20951 27.6722,-3.39359 -0.4919,-4.60311 -1.5415,-12.77648 -4.0659,-21.09742 -2.5247,-8.32097 -6.7542,-14.13401 -16.2295,-18.29449 -2.665,-1.17014 -5.5037,-1.69382 -8.3127,-1.7291 z" fill="#FFFFFF" paint-order="markers stroke fill" transform="translate(94.29095,236.39002) translate(-2472.6316,509.43834)"/>
    <path d="m 2396.1847,-627.08459 c -0.7977,-1.49064 -1.0428,-5.99877 -0.7502,-13.80224 0.5071,-13.5273 2.4701,-19.20588 8.1317,-23.52438 7.2401,-5.52225 19.5466,-7.13225 28.3859,-3.71372 5.529,2.13823 17.7385,10.62059 27.7441,19.27462 9.3274,8.06766 10.4937,8.664 10.4937,5.3656 0,-1.4147 -1.3781,-9.18824 -3.0624,-17.27462 -4.2108,-20.21586 -4.2344,-26.81772 -0.1273,-35.19008 1.7529,-3.57256 3.1879,-7.90963 3.1882,-9.63715 0,-3.34504 2.0121,-4.94139 3.8765,-3.07671 0.6168,0.61645 1.1214,3.5046 1.1214,6.41761 0,4.86698 0.1868,5.29702 2.3073,5.29702 4.8485,0 6.1758,2.20129 6.3277,10.49371 0.1396,7.57164 0.1043,7.67981 -2.9983,9.57256 -1.7259,1.05293 -4.5999,2.19071 -6.3864,2.52839 -1.7864,0.33768 -3.2479,0.77278 -3.2479,0.96747 0,0.19546 1.3457,6.66385 2.9899,14.37618 4.5261,21.22783 4.1819,26.03528 -1.863,26.0135 -3.5732,0 -11.3938,-4.70727 -18.5654,-11.14422 -3.6,-3.23151 -5.6431,-4.54802 -5.1793,-3.33752 1.5342,4.00491 3.6,14.08253 3.6144,17.63224 0.029,3.84796 -2.0311,5.70666 -3.8587,3.5046 -0.5618,-0.67689 -1.5082,-3.46103 -2.1034,-6.18686 -3.4509,-15.80699 -8.6258,-25.63976 -15.3137,-29.09849 -4.5176,-2.33599 -15.1846,-2.28168 -20.0523,0.10279 -6.8291,3.34459 -9.488,9.91807 -10.5,25.95842 -0.6435,10.1999 -1.8938,12.74086 -4.1732,8.48158 z m 23.0359,-46.5006 c -3.8814,-0.7309 -8.154,-2.53774 -12.1543,-5.14084 -3.0851,-2.00752 -4.3854,-2.27232 -8.2844,-1.68763 -5.4727,0.82049 -8.5438,-1.17705 -8.5438,-5.55784 0,-2.31237 -0.3462,-2.63869 -2.3864,-2.24854 -1.3125,0.25207 -3.3911,-0.0829 -4.6192,-0.73888 -1.9331,-1.03452 -2.1561,-1.75667 -1.6593,-5.3814 0.4729,-3.4483 0.2295,-4.40089 -1.3771,-5.40473 -2.6634,-1.66308 -2.4478,-4.38309 0.5718,-7.22031 2.1315,-2.0023 2.2864,-2.50168 0.9994,-3.22184 -0.9014,-0.50445 -1.523,-2.24732 -1.523,-4.27064 0,-2.6077 0.6826,-3.92298 2.8786,-5.54664 1.9528,-1.44354 2.719,-2.73857 2.3825,-4.02546 -0.7794,-2.98006 2.3444,-6.70144 6.7277,-8.01442 3.0017,-0.89951 4.0053,-1.72123 4.0167,-3.28935 0,-1.1499 0.346,-2.5853 0.7496,-3.19009 1.376,-2.06075 5.4118,-3.56904 7.8869,-2.94799 1.7949,0.45044 3.2922,-0.0706 5.4802,-1.91362 3.477,-2.92559 5.5206,-3.15711 8.6318,-0.97791 2.0105,1.40825 2.4321,1.40825 4.4423,0 4.6088,-3.22783 10.7711,-0.81221 10.7711,4.22246 0,1.94247 0.4031,2.07656 4.747,1.57901 6.223,-0.71279 9.6482,2.05109 9.0362,7.2915 -0.3327,2.85241 -0.037,3.49156 1.831,3.96041 3.4061,0.85487 5.6925,3.92498 5.1269,6.88448 -0.2805,1.46103 0.3166,4.16508 1.3758,6.24271 2.5224,4.94799 2.4614,11.64421 -0.1304,14.2358 -1.0995,1.09942 -2.4984,1.99893 -3.1089,1.99893 -0.6105,0 -0.09,0.82663 1.1585,1.83676 2.5034,2.0273 1.9431,4.1594 -1.0933,4.1594 -1.282,0 -2.4494,1.25376 -3.4896,3.74793 -1.9664,4.71432 -6.832,9.83875 -11.7471,12.37173 -3.7731,1.94416 -13.8635,3.15695 -18.6973,2.24701 z m 18.4888,-9.17582 c 4.4784,-3.10064 8.8374,-10.14621 6.7461,-10.90365 -1.9478,-0.70543 -1.4679,-2.99386 0.7493,-3.57348 2.3526,-0.61538 2.7868,-4.70743 0.4997,-4.70743 -1.815,0 -1.9897,-1.63439 -0.2491,-2.3363 0.6871,-0.27769 0.3498,-0.55385 -0.7496,-0.61476 -1.9942,-0.11046 -1.1513,-1.56837 1.642,-2.58399 0.3165,-0.11508 0.3257,-0.57188 -2.1798,-5.24432 -1.5715,-2.93066 -2.098,-3.72417 -3.0069,-3.49695 -7.9842,1.99586 -16.7795,2.40212 -20.4012,1.81344 -4.1793,-0.67935 -1.9406,-1.28197 1.4696,-1.41223 1.9238,-0.0736 5.8951,-0.4216 8.8245,-0.7734 l 6.9756,-1.01413 c 0,0 -2.7944,-0.93245 -3.6135,-2.04886 -1.7252,-2.35145 -3.8714,-2.58607 -5.9933,-0.70457 -1.9996,1.77304 -4.5762,1.37303 -6.8235,-0.34774 -0.6834,-0.52332 -2.3926,-0.16617 -3.0571,1.29304 -1.1499,2.52301 -4.1499,5.08881 -7.5332,5.08881 -1.5426,0 -3.282,0.69684 -3.282,2.44385 0,1.30684 -1.1533,3.24956 -1.9665,3.92431 -1.0739,0.89091 -1.5702,1.9951 -0.4997,3.05477 2.5844,2.55825 2.4819,7.9149 -0.5039,11.27385 -1.8821,2.1173 -1.2938,3.08745 0.1472,5.28797 2.0057,3.06075 9.4212,7.49401 14.2242,8.50368 6.388,1.34305 14.206,0.11353 18.5914,-2.92191 z m -13.9917,-0.53421 c -3.1358,-1.41654 -6.1313,-4.35716 -5.2925,-5.19592 0.2691,-0.2691 2.1354,0.19822 4.1482,1.0405 3.9094,1.63348 7.5575,1.24763 11.4952,-1.21509 1.7218,-1.07702 2.6531,-1.17567 3.4616,-0.36714 1.6671,1.66723 -3.2016,6.03728 -7.3699,6.61491 -1.8944,0.26343 -4.7936,-0.13348 -6.4426,-0.87726 z m -8.8334,-14.31528 c -0.7453,-1.1648 -0.7422,-3.62321 1.292,-1.28266 1.0996,1.26514 4.1657,1.40891 4.8004,1.3204 1.5977,-0.22281 2.757,1.25495 0.6889,2.30673 -1.1909,0.60566 -5.4025,-0.18952 -6.7813,-2.34447 z m 24.9493,-0.1347 c -0.2719,-0.44139 0.3539,-1.33262 1.3921,-1.98113 1.1134,-0.69546 2.1233,-0.79794 2.4618,-0.24931 0.3156,0.51089 -0.3107,1.40227 -1.392,1.98082 -1.0813,0.57871 -2.1893,0.69147 -2.4619,0.24931 z m -17.085,-4.79442 c -1.3396,-3.01922 -2.4484,-2.56622 -4.1087,-0.32924 -2.3008,3.09993 -3.9208,2.06827 -3.0095,-1.56259 1.3805,-5.50046 9.4218,-5.67216 10.6412,0.13347 0.9758,4.64586 -1.5034,6.30996 -3.523,1.75836 z m 15.4607,-0.90518 c -1.1715,-3.08116 -2.4196,-3.16293 -4.4313,-0.29043 -1.1321,1.61599 -1.8436,1.91086 -2.6545,1.09973 -1.4955,-1.49509 -0.2409,-5.05892 2.2496,-6.39184 4.3188,-2.31175 9.7343,1.67076 8.3221,6.11997 -0.8537,2.68933 -2.3469,2.45919 -3.4859,-0.53743 z m -29.4824,0.49969 c 0.34,-0.54955 1.5174,-0.99938 2.6165,-0.99938 1.0994,0 1.7211,0.44983 1.3811,0.99938 -0.3397,0.54956 -1.5171,0.99954 -2.6163,0.99954 -1.0994,0 -1.7209,-0.44998 -1.3813,-0.99954 z m 0.4997,-2.998 c -1.164,-0.75253 -0.8714,-0.97239 1.3083,-0.9842 1.6201,0 2.5463,0.40733 2.1896,0.9842 -0.7667,1.24072 -1.5777,1.24072 -3.4979,0 z m 14.8783,-5.39329 c -1.8851,-0.30968 -1.5269,-1.16781 0.5297,-1.42418 4.2372,-0.52823 9.7048,-0.50455 7.5492,0.86012 -1.6043,0.63305 -5.381,0.80771 -8.0789,0.56406 z m -22.8734,27.76579 c 0,-0.33738 -0.381,-2.77054 -2.1281,-4.40012 -2.343,-2.18538 -2.4982,-6.63564 1.1306,-7.67948 4.6816,-1.5938 3.5836,-6.39396 0.7604,-9.21753 -1.5904,-1.59021 -1.5541,-5.43445 0.6821,-5.71175 2.1526,-0.26693 2.4205,-1.3405 2.7009,-3.3749 0.4705,-3.41406 2.8655,-4.53058 6.1303,-4.30323 2.5615,0.17837 4.2495,-1.55722 5.5095,-4.11553 1.2789,-2.59651 5.7837,-5.76013 7.8108,-1.63419 0.8273,1.68384 2.4216,1.73801 4.0332,0.008 2.5925,-2.78298 6.0633,-2.14657 8.0686,0.82724 1.0062,1.49221 2.7688,2.14317 4.7913,1.75345 4.1042,-0.79084 6.4856,1.74537 9.9722,8.94666 1.9259,3.97744 2.4393,4.5069 2.4393,2.53129 0,-2.01165 -2.0962,-6.00061 -1.8712,-8.91484 0.253,-3.27758 -1.3067,-4.34825 -3.2464,-4.80841 -3.7839,-0.89769 -5.3219,-4.43251 -4.4642,-7.34957 1.1142,-3.78935 -1.6936,-3.87515 -5.3461,-3.96092 -4.1196,-0.0967 -7.7235,-0.92911 -7.9891,-3.94891 -0.181,-2.05803 -2.4884,-4.07607 -5.4933,-2.10723 -2.0553,1.34663 -4.0637,1.07186 -6.344,0.13277 -2.5969,-1.07595 -4.5677,-2.83599 -6.1822,0.92613 -1.4885,3.46829 -6.4766,3.41956 -7.9971,3.05201 -2.9169,-0.70509 -4.965,1.66017 -4.965,4.1973 0,0.98957 -0.9015,2.91034 -3.3459,3.05712 -4.1683,0.2503 -5.9849,2.13113 -5.1883,6.3789 0.4734,2.52317 0.2238,3.32218 -1.1814,3.76772 -3.1884,1.01197 -4.5952,4.40012 -3.2128,7.73765 1.0763,2.59803 0.9703,3.16354 -0.9229,4.92727 -2.3414,2.18104 -2.7598,4.41086 -1.0292,5.48052 0.6131,0.3791 0.8963,2.08192 0.6332,3.80668 -0.6935,4.54833 0,5.55309 4.2241,6.23044 3.176,0.50798 3.9469,1.11737 4.6897,3.70743 0.5846,2.03866 1.7352,3.33522 3.3613,3.78827 3.3898,0.94446 3.9711,0.98466 3.9711,0.27478 z" fill="#00B894" transform="translate(94.29095,236.39002) translate(-2472.6316,509.43834)"/>
</svg>