<?xml version="1.0" ?><svg height="298.6835mm" viewBox="0 0 360.15442 298.6835" width="360.15442mm" xmlns="http://www.w3.org/2000/svg">
    <path d="m 20839.391,16412.129 c 0,0 -25.829,53.173 -30.162,53.635 -4.333,0.462 -11.574,3.644 -9.864,13.496 1.711,9.852 0.74,27.4 0.74,27.4 l 14.028,3.233 -0.229,38.021 c 0,0 -46.524,-5.234 -57.3,4.207 -10.776,9.441 -5.065,29.463 -5.065,29.463 0,0 -71.114,41.508 -87.285,58.707 -16.17,17.198 -78.278,142.718 -99.41,209.033 -21.132,66.314 -10.658,196.629 -10.658,196.629 l -21.684,185.217 c -0.954,60.628 384.573,36.892 446.816,52.596 74.404,4.105 106.62,-9.186 105.479,-18.883 -1.14,-9.698 -15.1,-72.391 -15.1,-72.391 l -35.679,-156.283 -19.604,-105.547 -25.258,-40.125 c 0,0 -31.643,-165.121 -39.625,-184.516 -7.982,-19.396 -34.31,-21.533 -34.31,-21.533 0,0 -7.355,-38.484 -8.951,-51.209 -1.597,-12.725 -8.953,-63.42 -11.12,-63.215 -2.167,0.205 -23.205,-3.283 -23.205,-3.283 l -3.99,-51.619 15.451,-6.158 -3.08,-44.899 -16.762,-3.847 z m 626.904,525.183 c -21.169,-0.294 -38.282,10.982 -65.08,35.952 -30.625,28.538 -95.58,164.768 -125.483,213.388 -29.903,48.619 -28.456,75.565 -26.562,123.641 3.34,30.515 258.378,23.552 319.719,-0.596 61.341,-24.147 87.902,-80.896 79.861,-109.189 -8.04,-28.294 -81.488,-177.894 -96.936,-196.106 -15.449,-18.212 -50.32,-62.196 -76.158,-66.261 -3.229,-0.509 -6.337,-0.786 -9.361,-0.829 z" fill="#FFFFFF" transform="translate(128.67241,-113.72965) matrix(0.31957989,0,0,0.31957989,-5630.9164,-4347.0168) translate(-3313.5291,-2437.8203)"/>
    <path d="m 17935.64,14872.472 c -3.712,-6.007 -5.486,-51.801 -2.669,-68.827 3.42,-20.664 18.427,-53.045 34.835,-75.164 11.449,-15.435 35.237,-59.778 33.176,-61.84 -0.581,-0.58 -9.917,0.227 -20.749,1.794 -41.512,6.001 -157.191,2.848 -216.035,-5.889 -12.228,-1.815 -22.767,-2.766 -23.421,-2.111 -0.656,0.656 7.122,27.472 17.284,59.594 23.573,74.521 27.808,102.194 17.012,111.155 -5.542,4.6 -9.19,-1.895 -13.992,-24.916 -2.35,-11.277 -8.784,-34.999 -14.295,-52.715 -12.669,-40.721 -19.046,-65.568 -21.344,-83.153 l -1.809,-13.839 -31.854,-9.638 c -38.803,-11.74 -85.115,-31.154 -96.234,-40.34 -4.515,-3.729 -8.777,-6.21 -9.474,-5.515 -0.696,0.698 0.282,9.139 2.174,18.758 1.893,9.62 2.655,18.277 1.694,19.239 -2.509,2.509 -10.154,-4.492 -14.876,-13.627 -8.291,-16.029 -19.937,-125.303 -13.356,-125.303 4.784,0 14.884,31.298 14.914,46.221 0,4.697 2.486,9.417 6.361,12.132 7.584,5.313 11.039,5.671 10.067,1.044 -0.841,-4.011 7.696,-6.381 14.114,-3.919 4.044,1.551 4.007,2.275 -0.353,7.094 -2.791,3.084 -3.686,6.089 -2.104,7.067 13.326,8.235 106.644,30.653 110.705,26.593 0.772,-0.774 -0.52,-8.935 -2.875,-18.135 -2.354,-9.201 -6.298,-28.93 -8.766,-43.845 -6.483,-39.2 -6.093,-38.134 -19.939,-54.355 -18.488,-21.66 -21.521,-30.162 -26.031,-72.975 -4.815,-45.694 -18.155,-108.821 -26.95,-127.529 -11.132,-23.685 -32.352,-31.058 -51.652,-17.944 -5.597,3.806 -14.965,7.816 -20.814,8.914 -6.914,1.298 -10.144,3.265 -9.236,5.628 0.765,2 3.009,9.029 4.985,15.623 2.517,8.401 5.782,12.842 10.907,14.842 7.221,2.817 7.24,2.904 1.486,6.818 -5.44,3.697 -5.678,5.632 -3.569,28.983 2.506,27.729 1.103,39.458 -5.003,41.8 -6.263,2.404 -8.768,-5.129 -15.402,-46.306 -8.18,-50.773 -9.69,-54.509 -41.1,-101.773 -9.391,-14.128 -21.198,-34.711 -26.239,-45.743 -6.94,-15.184 -12.054,-22.053 -21.067,-28.3 -11.621,-8.053 -12.127,-8.139 -21.55,-3.645 -5.31,2.532 -19.843,12.056 -32.298,21.165 -12.456,9.111 -20.574,14.892 -23.475,16.587 -4.54,2.657 -3.357,3.565 8.539,6.562 21.859,5.504 30.844,16.804 51.194,37.207 27.256,27.328 40.436,54.612 47.098,97.495 0.854,5.495 0.432,11.761 -0.938,13.925 -1.717,2.714 -5.321,-4.808 -11.621,-24.261 -12.402,-38.287 -23.797,-58.763 -45.583,-81.898 -18.623,-19.776 -28.602,-26.296 -51.121,-33.401 -23.203,-7.319 -27.114,-2.109 -68.559,91.383 -41.361,93.306 -57.504,162.886 -57.395,247.382 0.05,38.169 1.82,44.242 10.156,34.83 9.7,-10.952 30.409,-22.469 40.398,-22.469 6.508,0 10.068,-1.582 11.247,-4.997 7.397,-21.412 16.98,-43.27 21.587,-49.237 11.896,-15.408 34.451,-21.3 50.148,-13.098 24.414,12.754 44.795,53.751 40.593,81.651 -2.444,13.769 -6.15,27.309 -9.177,10.892 -7.899,-42.877 -31.899,-85.413 -54.319,-76.888 -11.612,4.414 -18.478,15.147 -30.925,48.328 -4.376,11.67 -13.187,24.593 -22.204,22.33 -4.596,-1.154 -11.496,1.201 -22.122,7.552 -18.042,10.783 -27.07,25.359 -32.344,49.1 -1.867,8.402 -6.735,30.049 -10.818,48.102 -5.411,23.929 -7.824,44.231 -8.903,74.925 -1.224,34.892 -7.635,41.101 -11.189,41.101 -6.694,0 -3.138,-70.723 6.305,-125.44 4.187,-24.25 8.338,-45.268 9.227,-46.704 0.887,-1.437 0.08,-35.68 -1.05,-69.629 -4.082,-122.26 5.054,-174.523 68.075,-282.294 26.892,-45.987 26.972,-60.867 42.473,-76.062 35.945,-35.236 75.171,-61.832 81.595,-61.991 5.035,-0.129 7.51,-14.255 3.371,-19.243 -3.018,-3.634 -2.222,-5.454 4.873,-11.136 12.194,-9.768 25.697,-13.45 42.832,-11.682 14.811,1.529 14.998,1.452 16.693,-7.023 0.978,-4.897 3.186,-8.08 5.149,-7.427 5.227,1.743 7.916,14.917 9.769,47.869 1.337,23.745 0.827,31.098 -2.45,35.401 -6.894,9.056 -10.706,2.768 -10.753,-17.73 -0.02,-10.504 -1.077,-20.725 -2.34,-22.714 -1.379,-2.171 -11.806,-4.352 -26.07,-5.451 l -20.99,0.623 -0.704,5.848 c -0.563,4.676 6.367,11.843 11.605,16.167 5.238,4.322 13.53,14.371 18.425,22.326 8.131,13.217 9.629,14.323 17.361,12.832 4.657,-0.898 12.167,-2.343 16.692,-3.211 6.127,-1.178 10.301,0.213 16.368,5.424 7.991,6.871 8.148,7.589 8.43,38.197 0.15,17.156 1.216,32.698 2.353,34.537 1.134,1.836 5.921,3.341 10.635,3.341 8.414,0 8.541,-0.218 7.058,-12.131 -0.833,-6.671 -3.061,-46.308 -4.956,-88.083 l -3.442,-75.951 -30.846,-1.626 c -16.965,-0.895 -32.156,-2.436 -33.755,-3.424 -3.538,-2.187 -3.802,-32.734 -0.327,-38.218 4.354,-6.876 8.838,-0.45 8.838,12.665 0,13.371 0.02,13.39 18.552,13.39 2.355,0 15.199,-0.15 28.545,-0.357 l 24.26,-0.359 v -14.102 c 0,-16.351 -3.395,-20.082 -9.937,-10.92 -4.328,6.067 -4.851,6.159 -8.358,1.475 -4.915,-6.561 -10.247,-6.373 -10.247,0.364 0,8.162 -7.489,13.358 -12.844,8.913 -2.355,-1.954 -4.282,-5.965 -4.282,-8.913 0,-2.948 -1.284,-5.359 -2.855,-5.359 -1.57,0 -2.855,3.212 -2.855,7.136 0,4.44 -1.618,7.136 -4.281,7.136 -2.586,0 -4.281,-2.645 -4.281,-6.679 0,-4.39 -2.498,-7.815 -7.298,-10.001 -4.012,-1.828 -6.619,-4.421 -5.79,-5.76 0.828,-1.338 18.358,-3.351 38.959,-4.47 43.981,-2.391 46.051,-1.469 51.518,22.957 4.252,18.999 0.76,28.566 -12.058,33.035 -8.236,2.869 -8.746,3.826 -7.161,13.406 0.939,5.675 1.721,15.774 1.738,22.447 0.02,11.879 0.234,12.132 9.706,12.132 19.885,0 27.237,14.514 27.363,54.028 0.05,11.662 1.314,25.149 2.838,29.97 1.523,4.82 3.526,13.261 4.451,18.757 1.445,8.597 3.744,10.999 16.497,17.239 12.902,6.315 16.027,9.633 24.19,25.689 11.454,22.529 22.287,73.891 26.765,126.902 4.029,47.693 6.08,55.552 18.323,70.205 5.559,6.653 11.956,15.674 14.216,20.043 4.913,9.501 15.384,61.649 17.963,89.461 l 1.843,19.871 9.989,2.125 c 29.201,6.217 112.542,8.758 180.266,5.499 75.546,-3.634 89.749,-5.507 114.18,-15.055 12.91,-5.047 17.117,-8.349 20.97,-16.455 8.018,-16.868 28.975,-44.476 43.436,-57.215 21.783,-19.197 27.349,-21.241 58.093,-21.344 25.487,-0.09 28.028,0.441 37.627,7.758 5.66,4.316 11.061,10.265 11.999,13.219 0.987,3.115 5.459,6.121 10.644,7.158 16.588,3.319 45.687,42.531 53.47,72.057 1.711,6.489 5.211,13.542 7.78,15.675 8.711,7.227 52.535,76.118 59.803,94.006 9.61,23.648 12.886,68.3 4.612,81.367 -10.993,2.906 -22.489,-38.543 -26.259,-50.455 -7.388,-23.561 -33.121,-73.868 -37.799,-73.887 -1.136,0 -4.211,4.163 -6.833,9.267 -2.62,5.101 -10.294,16.34 -17.051,24.974 -15.032,19.21 -23.732,38.286 -25.93,56.866 -1.861,15.693 2.909,26.17 18.858,41.427 10.851,10.382 11.15,14.231 0.914,11.714 -10.646,-2.616 -28.445,-20.401 -32.394,-32.366 -3.965,-12.013 -1.304,-34.669 6.018,-51.238 6.621,-14.985 3.662,-15.535 -7.671,-1.428 -24.721,30.769 -26.863,58.256 -6.983,89.604 7.895,12.449 17.114,18.62 44.598,29.855 4.686,1.916 3.83,2.509 -4.795,3.322 -19.824,1.865 -44.945,-16.924 -56.348,-42.146 -8.23,-18.199 -8.064,-48.016 0.36,-65.461 3.458,-7.169 18.551,-25.605 33.536,-40.969 14.985,-15.367 29.805,-32.306 32.933,-37.645 5.069,-8.653 5.274,-10.733 1.89,-19.16 -2.09,-5.197 -5.027,-14.486 -6.525,-20.638 -3.543,-14.542 -30.12,-66.243 -37.668,-73.275 -3.216,-2.997 -9.327,-5.448 -13.578,-5.448 -10.117,0 -46.52,33.577 -78.555,64.615 -26.515,25.691 -29.691,19.443 -1.573,-12.476 10.004,-11.355 29.289,-29.908 42.857,-41.23 13.568,-11.323 25.86,-21.592 27.314,-22.816 1.547,-1.306 0.475,-4.626 -2.582,-8.006 -4.485,-4.954 -8.756,-5.776 -30.045,-5.776 -22.706,0 -25.766,0.687 -35.951,8.064 -20.667,14.97 -36.692,36.487 -68.217,91.578 -46.006,80.399 -74.653,128.133 -82.497,137.454 -17.524,20.827 -27.152,51.927 -27.679,89.396 -0.304,21.787 -3.104,36.359 -6.063,31.572 z m -59.3,-232.474 c 0,-13.45 -0.426,-14.272 -7.387,-14.272 -7.103,0 -7.31,0.466 -5.38,12.131 2.423,14.647 3.354,16.411 8.652,16.411 3.034,0 4.115,-3.748 4.115,-14.27 z m 48.56,6.422 c 0.02,-4.318 0.814,-10.74 1.762,-14.272 1.552,-5.793 0.708,-6.422 -8.603,-6.422 -10.141,0 -10.324,0.192 -10.324,11.416 0,6.281 -1.284,11.419 -2.853,11.419 -3.123,0 -3.727,-3.074 -2.941,-14.985 0.46,-6.975 -0.462,-7.85 -8.261,-7.85 -8.452,0 -8.777,0.46 -8.777,12.369 0,6.801 0.856,13.223 1.901,14.27 1.046,1.047 10.038,1.903 19.981,1.903 17.809,0 18.076,-0.107 18.115,-7.848 z m 35.483,-5.709 c -2.381,-16.666 -3.246,-17.586 -14.827,-15.782 -9.004,1.403 -9.276,1.856 -9.276,15.392 v 13.947 h 13.018 13.02 z m -134.658,-1.428 c -1.822,-14.277 -0.733,-12.399 -8.612,-14.823 -5.714,-1.755 -6.422,-0.986 -6.422,6.968 0,11.768 4.623,19.986 11.245,19.986 4.619,0 5.128,-1.633 3.789,-12.131 z m 28.889,2.856 c -2.657,-15.371 -3.447,-16.413 -12.438,-16.413 -9.513,0 -11.037,4.771 -5.868,18.367 2.134,5.613 4.781,7.321 11.346,7.321 8.086,0 8.473,-0.515 6.96,-9.275 z m 134.944,-5.709 -1.239,-14.986 -9.607,0.979 c -5.286,0.537 -9.925,1.281 -10.314,1.657 -0.388,0.372 1.339,6.674 3.835,14.006 3.756,11.018 5.757,13.328 11.554,13.328 6.713,0 6.96,-0.637 5.771,-14.984 z m -200.832,4.281 c 0.872,-4.319 2.454,-10.098 3.515,-12.844 1.358,-3.507 0.546,-4.995 -2.723,-4.995 -4.846,0 -10.226,10.61 -10.226,20.166 0,8.449 7.641,6.565 9.434,-2.327 z m 14.466,-5.71 c 1.027,-6.717 0.701,-12.129 -0.731,-12.129 -2.648,0 -5.829,22.094 -3.515,24.409 1.895,1.896 2.216,0.97 4.246,-12.28 z m -31.564,0.617 c 6.878,-14.424 6.273,-15.602 -8.034,-15.602 h -12.844 v 10.941 c 0,12.588 1.455,14.748 9.937,14.748 4.209,0 7.641,-3.164 10.941,-10.087 z m 245.694,-0.265 c 5.717,-8.417 6.422,-11.336 3.761,-15.598 -3.229,-5.168 -14.236,-5.013 -20.089,0.278 -2.742,2.482 3.573,25.672 6.992,25.672 1.265,0 5.465,-4.659 9.336,-10.352 z m -273.926,-7.486 c 1.775,-9.976 1.429,-10.704 -5.095,-10.704 -5.137,0 -6.734,1.327 -6.008,4.994 3.529,17.847 4.756,21.243 6.852,18.967 1.291,-1.405 3.205,-7.37 4.251,-13.257 z m -19.24,5.887 c -0.91,-2.279 -1.587,-1.602 -1.723,1.723 -0.129,3.009 0.55,4.696 1.498,3.746 0.948,-0.948 1.049,-3.41 0.225,-5.469 z m -10.511,-8.975 v -12.362 l -13.555,-3.102 c -7.454,-1.706 -13.92,-2.736 -14.367,-2.291 -0.445,0.448 0,5.97 1.022,12.271 1.693,10.597 2.721,11.673 13.651,14.31 6.501,1.57 12.142,3.006 12.534,3.194 0.394,0.193 0.715,-5.22 0.715,-12.02 z m -36.592,-10.19 c -0.896,-9.416 -2.23,-11.363 -8.638,-12.593 -4.167,-0.801 -7.875,-1.163 -8.239,-0.806 -1.364,1.335 6.482,20.333 9.227,22.352 6.27,4.607 8.675,1.791 7.65,-8.953 z m -21.482,-5.989 c -2.119,-7.945 -4.604,-11.417 -8.166,-11.417 -8.089,0 -7.005,16.55 1.303,19.889 9.894,3.978 10.115,3.706 6.863,-8.472 z m -21.098,-14.985 c -0.598,-1.177 -2.961,-2.141 -5.254,-2.141 -3.098,0 -3.686,2.014 -2.291,7.85 3.019,12.63 5.13,14.15 6.938,4.994 0.932,-4.71 1.203,-9.526 0.607,-10.703 z m -18.409,0.22 c -1.166,-11.81 -8.03,-14.439 -8.03,-3.074 0,4.577 0.856,9.179 1.903,10.226 4.365,4.366 6.967,1.33 6.127,-7.152 z m -17.783,-12.422 c -0.959,-3.828 -5.75,-9.032 -10.643,-11.562 l -8.9,-4.603 1.912,8.117 c 2.177,9.249 16.501,23.645 18.263,18.358 0.614,-1.842 0.33,-6.48 -0.632,-10.31 z m -7.424,-354.271 c 0.06,-15.206 -2.288,-18.145 -14.454,-18.145 -4.904,0 -5.474,2.205 -5.474,21.174 0,11.646 -0.886,23.484 -1.97,26.305 -1.301,3.394 2.066,1.779 9.94,-4.761 11.128,-9.245 11.911,-10.855 11.958,-24.573 z m -71.774,-12.703 c -1.308,-9.567 -3.1,-18.558 -3.978,-19.98 -2.17,-3.51 -21.242,-3.305 -21.242,0.229 0,3.289 23.465,36.763 25.931,36.99 0.915,0.09 0.597,-7.672 -0.711,-17.239 z m 63.603,-43.975 c -0.873,-29.743 -2.303,-34.033 -12.2,-36.622 -5.711,-1.493 -5.885,-0.815 -4.106,16.106 1.021,9.714 2.635,25.115 3.588,34.223 1.535,14.679 2.402,16.462 7.645,15.698 5.593,-0.815 5.867,-2.397 5.073,-29.405 z m 26.96,375.639 c -1.804,-2.92 4.819,-6.006 12.894,-6.006 6.615,0 7.238,4.42 0.959,6.831 -6.442,2.472 -12.02,2.141 -13.853,-0.825 z m 16.824,-17.614 c -2.423,-3.921 -1.691,-4.465 9.122,-6.779 9.76,-2.089 16.081,2.887 9.201,7.244 -5.468,3.464 -16.06,3.194 -18.323,-0.465 z m 20.572,-13.131 c -3.685,-3.686 -1.808,-6.133 7.086,-9.234 12.132,-4.228 16.702,-3.942 16.702,1.048 0,7.247 -18.395,13.579 -23.788,8.186 z m 19.063,-19.626 c -2.087,-5.442 -1.48,-6.063 8.298,-8.518 8.861,-2.224 10.329,1.466 3.359,8.437 -5.673,5.673 -9.5,5.698 -11.657,0.08 z m -31.667,-141.879 c 0.653,-1.962 2.9,-3.568 4.994,-3.568 2.094,0 4.342,1.606 4.995,3.568 0.708,2.122 -1.317,3.57 -4.995,3.57 -3.679,0 -5.702,-1.448 -4.994,-3.57 z m -23.548,-13.747 c 0,-4.746 1.526,-5.723 7.824,-4.994 4.719,0.543 8.202,2.885 8.773,5.897 0.734,3.879 -1.012,4.995 -7.826,4.995 -6.962,0 -8.771,-1.216 -8.771,-5.898 z m -33.682,-8.944 c -4.748,-4.749 -4.279,-9.907 1.089,-11.969 7.602,-2.916 14.592,-1.944 18.321,2.55 7.505,9.042 -10.869,17.961 -19.41,9.419 z m -57.657,-176.286 c 0,-9.741 7.408,-15.031 11.721,-8.375 4.397,6.782 1.621,15.329 -5.298,16.312 -5.476,0.779 -6.423,-0.392 -6.423,-7.937 z m -1.971,-44.74 c -1.905,-4.964 2.312,-13.882 6.564,-13.882 1.399,0 2.945,4.174 3.438,9.275 0.672,6.962 -0.242,9.276 -3.659,9.276 -2.502,0 -5.356,-2.1 -6.343,-4.669 z m -14.372,-97.002 c 4.461,-22.309 13.777,-40.467 24.609,-47.974 9.909,-6.865 13.063,-7.514 32.88,-6.754 21.36,0.82 21.811,0.987 17.714,6.548 -3.646,4.95 -7.084,5.626 -25.824,5.078 -11.889,-0.346 -21.619,-0.06 -21.619,0.617 0,2.752 10.132,23.336 15.158,30.801 7.823,11.611 4.807,16.081 -9.988,14.805 -6.767,-0.585 -13.467,-1.126 -14.889,-1.206 -1.419,-0.09 -0.355,-2.604 2.368,-5.615 4.125,-4.557 4.374,-6.555 1.482,-11.955 -3.379,-6.313 -3.648,-6.136 -10.173,6.7 -8.349,16.432 -14.091,20.818 -11.718,8.955 z" fill="#00B894" transform="translate(128.67241,-113.72965) matrix(0.31957989,0,0,0.31957989,-5630.9164,-4347.0168)"/>
</svg>