<?xml version="1.0" ?><svg height="128.61577mm" viewBox="0 0 115.78036 128.61577" width="115.78036mm" xmlns="http://www.w3.org/2000/svg">
    <path color="#000" d="m 1436.4898,2610.9509 c 0,0 6.7037,-47.5101 67.623,-50.6775 60.9193,-3.1673 241.2472,-3.3936 266.8886,-0.905 25.6415,2.4887 59.8299,-3.7706 43.2385,168.0201 22.5124,46.4219 11.8152,52.5252 -3.1633,49.2353 -1.8666,158.7269 10.8725,243.0278 -63.2027,248.7214 -89.3811,6.8701 -250.9675,-1.0557 -271.4974,0.3771 -20.5299,1.4328 -64.1874,-7.9938 -70.4721,-47.2085 43.6575,-0.7542 66.7013,-0.6033 66.7013,-0.6033 18.6895,0.3504 39.7722,-370.3302 23.7141,-369.8253 -2.8648,0.09 -59.83,2.8657 -59.83,2.8657 z" fill="#FFFFFF" overflow="visible" paint-order="fill markers stroke" transform="translate(-5.8227617,-92.319769) matrix(0.26458333,0,0,0.26458333,-364.85199,-581.74293)"/>
    <path d="m 1476.356,3033.1849 c -1.8002,-0.6691 -4.6263,-0.9603 -6.2806,-0.6471 -5.1066,0.967 -30.2561,-3.7769 -33.6589,-6.349 -1.1,-0.8315 -5.1375,-2.9292 -8.9723,-4.6615 -4.9205,-2.2228 -8.6478,-5.286 -12.6666,-10.4097 -3.1319,-3.9931 -6.4364,-8.0455 -7.3434,-9.0054 -0.9068,-0.9599 -1.9957,-4.6347 -2.4196,-8.1663 -0.4238,-3.5315 -1.2565,-6.7324 -1.8502,-7.113 -2.3959,-1.5359 -2.9926,-9.4534 -0.9476,-12.5744 1.9601,-2.9914 2.748,-3.1174 21.1178,-3.377 10.4951,-0.1484 24.4819,-0.4561 31.0819,-0.684 12,-0.4142 12,-0.4142 14.198,-4.9021 1.2089,-2.4683 1.9492,-4.8964 1.6449,-5.3957 -0.3041,-0.4994 -0.013,-1.2427 0.6508,-1.652 1.0878,-0.6722 2.1074,-4.5022 3.7556,-14.1068 13.8537,-107.4361 23.7399,-201.3338 19.9387,-306.5992 -0.9044,-23.6014 -1.5357,-26.1265 -6.1883,-24.7468 -1.1,0.3262 -11.711,0.7291 -23.5802,0.8954 -14.2574,0.1996 -21.4966,0.7798 -21.3334,1.7098 0.3471,1.9782 -4.6212,0.9162 -7.4197,-1.5862 -3.5965,-3.2157 -3.6123,-3.1545 6.3115,-24.4129 3.7624,-8.1159 20.4332,-26.9808 26.4577,-29.2601 0.3981,0 2.4129,-0.6922 4.4773,-1.5382 9.2626,-5.5647 15.4744,-3.7198 23.167,-5.1605 3.9893,-0.7658 25.8532,-1.6781 48.5865,-2.0274 82.4331,0.4746 164.3205,-9.6882 238.5631,1.4937 5.9236,1.0425 10.9048,1.8963 11.0693,1.8973 20.9146,2.4334 36.7993,80.2015 34.4288,118.0018 -1.0085,14.6198 -2.7935,23.3334 -4.7797,23.3334 -0.7051,0 -1.282,2.9272 -1.282,6.5049 0,5.9619 -0.3319,6.6424 -3.976,8.1518 -6.6124,2.7389 -7.9975,1.2336 -8.234,-8.9482 -0.116,-4.973 -0.093,-9.9419 0.049,-11.0419 0.4052,-29.4096 4.1397,-81.619 -13.8391,-107.428 -1.9045,-2.3713 -4.6416,-3.6287 -9.5765,-4.3994 -6.0015,-0.9373 -7.3473,-0.7129 -10.2391,1.7075 -1.8312,1.5326 -5.5242,4.5041 -8.2069,6.6032 -9.2393,15.9554 -13.2627,20.3868 -34.6441,17.2755 -70.7242,-4.6044 -164.1441,3.9664 -218.4598,6.8925 -10.2468,0.5507 -11.3348,1.0499 -8.8402,4.0555 6.2308,95.4136 3.0882,194.664 -11.3404,288.6266 -0.3028,1.8333 -1.7446,11.1333 -3.2039,20.6666 -3.1832,20.796 -6.0931,33.6298 -8.8029,38.8259 -1.1018,2.1124 -2.0068,4.3363 -2.0112,4.9419 0,0.6057 8.8417,0.7672 19.6584,0.3591 121.4235,-1.2713 191.4829,7.2663 223.1521,5.8214 3.9804,-1.8598 18.7787,-2.1262 24.6589,-0.444 2.0167,0.5769 3.6667,1.9331 3.6667,3.0138 0,2.417 6.7108,22.1571 7.846,23.0794 0.4513,0.3666 1.4965,1.8666 2.3227,3.3333 2.3258,4.1292 13.6878,3.6855 18.3248,-0.7155 1.9032,-1.8065 3.4708,-3.9415 3.4834,-4.7445 0.013,-0.803 1.1348,-2.4662 2.4938,-3.6959 1.3588,-1.2298 5.2553,-7.7728 8.6588,-14.54 14.4271,-49.9917 -8.1967,-97.1676 8.3113,-192.1764 4.1104,-8.1692 4.2084,-7.839 -3.6108,-12.1624 -4.3589,-2.4101 -4.3589,-2.4101 -4.1952,10.3702 0.1693,13.2123 -1.7548,19.4007 -6.0321,19.4007 -1.022,0 -2.0582,0.5981 -2.3027,1.3292 -0.2589,0.7747 -2.3901,0.3575 -5.1084,-1 -5.7484,-2.8707 -9.642,-9.9889 -12.6916,-23.2024 -5.6121,-24.3158 -11.5179,-48.1638 -12.6924,-51.253 -1.0664,-2.805 -2.0169,-3.3055 -5.6179,-2.9584 -3.9789,0.3837 -4.3362,0.8003 -4.3597,5.0846 -0.017,3.0937 -1.7023,7.2595 -5,12.3592 -2.7359,4.2309 -4.9744,8.2323 -4.9744,8.892 0,0.6596 -0.8596,2.898 -1.9101,4.9741 -3.7202,7.3515 -8.7566,20.6517 -8.7566,23.1245 0,1.379 -2.1,6.0904 -4.6666,10.4698 -2.5667,4.3793 -4.6667,8.5473 -4.6667,9.2621 0,1.6205 -3.2484,2.9183 -7.3043,2.9183 -3.4521,0 -11.3049,-8.0288 -11.4564,-11.7131 -0.2096,-5.1021 -1.387,-15.7249 -1.9144,-17.272 -0.8345,-2.4478 -5.7282,-0.2066 -15.0829,6.9078 -16.6067,12.6294 -22.4316,4.7263 -12.386,-16.805 2.2792,-4.8853 4.144,-9.2754 4.144,-9.7557 0,-0.4803 1.5,-2.8399 3.3333,-5.2435 1.8334,-2.4036 3.3334,-4.8009 3.3334,-5.3272 0,-0.5263 3.9,-7.5272 8.6666,-15.5574 4.7667,-8.0303 8.6667,-14.9566 8.6667,-15.392 0,-0.4353 -1.714,-2.9779 -3.8088,-5.6501 -6.9607,-8.8791 -9.836,-18.2035 -10.1324,-32.8585 -0.1093,-5.3791 0.6948,-7.9543 4.1608,-13.3333 8.1639,-12.6699 24.6193,-26.4642 35.7804,-29.9941 2.9333,-0.9277 6.0653,-2.2671 6.96,-2.9764 2.5611,-2.0305 25.6707,-0.5768 31.04,1.9525 19.0976,8.9963 26.6817,18.0083 30.5916,36.3513 5.0739,13.9462 -0.7104,16.0383 0.8799,21.9913 11.3074,15.4688 32.2482,45.8248 33.0866,51.5372 0.124,0.8447 0.9148,2.3664 1.7572,3.3816 1.4932,1.7991 7.1291,13.7613 7.7378,16.4232 0.1677,0.7334 0.95,3.7334 1.7385,6.6667 1.5447,5.7467 1.4348,7.343 -0.8961,13.0239 -2.4003,5.8498 -12.6575,8.3707 -18.2655,4.489 -1.4465,-1.0012 -4.1253,-2.2877 -5.9529,-2.859 -3.0271,-0.9461 -3.154,-0.8351 -1.4255,1.2477 2.8157,3.3926 5.931,25.8489 1.9893,53.4082 -0.5771,85.8497 9.8028,113.6571 -9.9815,163.8634 -3.0416,8 -12.1181,11.9085 -22.1349,15.8091 -5.5616,2.1658 -9.1185,4.4688 -10.4609,6.7734 -3.764,6.4619 -7.5871,6.9148 -61.4835,7.2842 -67.9535,1.3691 -150.1815,0.3219 -224.574,1.5183 -2.6,0.5697 -6.2,0.4883 -8,-0.1808 z m 234.2049,-17.0162 c 21.8167,-0.017 39.6667,-0.2558 39.6667,-0.5316 0,-0.2757 -1.2084,-2.4658 -2.6854,-4.8668 -1.4768,-2.4011 -3.8732,-8.318 -5.3252,-13.1486 -2.6398,-8.7831 -2.6398,-8.7831 -15.648,-8.4746 -51.566,4.329 -146.0727,-5.7335 -216.8192,-4.4247 -105.6294,2.0836 -93.3333,1.4048 -93.3333,5.1518 0,1.6867 0.6695,3.7362 1.4877,4.5544 0.8183,0.8183 2.1767,2.8883 3.0186,4.6 0.842,1.7118 3.5138,4.1068 5.9377,5.3223 2.4237,1.2155 5.4153,3.0725 6.648,4.1267 1.9369,1.6563 15.3747,6.3055 23.5747,8.1564 76.1408,0.075 187.3732,-0.3649 253.4777,-0.4653 z m 6.4329,-240.369 c 5.5176,-14.3713 13.7904,-32.253 18.0392,-38.9921 1.3871,-2.2 2.5658,-4.3043 2.6194,-4.6763 0.053,-0.3719 -2.5964,-0.462 -5.8888,-0.2001 -6.2882,0.5001 -20.331,-4.1639 -22.4134,-7.444 -2.2362,-3.5225 -3.565,-1.7737 -13.4144,17.6537 -1.4872,2.9334 -3.0373,5.6334 -3.4449,6 -0.4076,0.3667 -1.5475,2.0989 -2.5331,3.8494 -0.9857,1.7504 -2.9357,5.2187 -4.3333,7.7072 -3.3005,5.8763 -3.3888,8.9284 -0.208,7.193 13.5097,-7.3704 21.8293,-9.7225 23.6976,-6.6996 0.4701,0.7608 0.8044,7.6608 0.7429,15.3333 -0.061,7.6725 0.3391,13.9465 0.8904,13.9421 0.5514,0 3.3623,-6.1543 6.2464,-13.6666 z m 67.894,3.6464 c -0.41,-1.0685 0.2654,-6.4862 1.5008,-12.0393 2.2463,-10.0965 2.2463,-10.0965 6.4704,-9.2074 2.3232,0.4891 4.7942,1.4259 5.4908,2.082 0.6967,0.6561 2.598,1.1929 4.2254,1.1929 3.5033,0 10.3389,3.4741 15.0848,7.6666 2.9637,2.6182 5.4232,3.8066 5.4232,2.6205 0,-0.2088 -1.2527,-3.9588 -2.7836,-8.3333 -4.0199,-11.4864 -16.1378,-35.2234 -24.6424,-48.2708 -7.3391,-11.2592 -7.3391,-11.2592 -11.3932,-6.1378 -2.2298,2.8168 -6.1379,6.2013 -8.6848,7.5212 -2.5468,1.3198 -4.9859,3.3253 -5.42,4.4566 -0.7508,1.9568 2.5953,20.0577 5.0178,27.1436 0.6268,1.8334 1.4964,6.0334 1.9324,9.3334 0.436,3.3 1.3198,7.8 1.9639,10 0.6441,2.2 1.8391,6.5673 2.6556,9.7051 0.8164,3.1379 2.0289,5.3686 2.6944,4.9573 0.6656,-0.4113 0.8745,-1.6221 0.4645,-2.6906 z m -39.997,-62.7418 c 9.2374,-2.3716 13.3904,-4.9863 6.1314,-3.8603 -21.387,4.9921 -30.6512,-2.1334 -39.477,-24.8257 -2.3499,-5.873 -1.9391,-16.5347 0.8744,-22.6939 0.8752,-1.9158 4.1433,-5.0965 7.2628,-7.0683 4.6722,-2.9533 5.5616,-4.1602 5.0474,-6.8501 -0.7413,-3.8777 -1.3518,-3.9828 -5.6833,-0.9783 -7.6303,5.2929 -12.1412,9.5605 -19.1613,18.1276 -4.9146,5.9976 -5.1303,6.6521 -4.379,13.2804 1.6964,14.9646 6.5852,22.8198 19.0963,30.6835 10.2496,6.4423 17.5612,7.4526 30.2883,4.1851 z m 30.0266,-17.6875 c 2.2519,-2.8432 3.7104,-5.5534 3.2412,-6.0227 -1.9688,-1.9688 -3.9174,-0.5353 -6.0902,4.4802 -1.2708,2.9333 -2.8482,5.3333 -3.5052,5.3333 -0.6571,0 -1.5454,0.9139 -1.974,2.0309 -1.3447,3.504 3.7786,-0.077 8.3282,-5.8217 z m -24.5009,0.085 c 5.9071,-2.0924 7.0715,-3.1745 10.2195,-9.4976 4.6548,-9.3497 3.9769,-19.0633 -1.9424,-27.8341 -3.8379,-5.6867 -4.1422,-5.8505 -9.4547,-5.0896 -3.0189,0.4324 -6.9967,0.7891 -8.8392,0.7927 -1.8425,0 -5.1281,1.6553 -7.3013,3.6703 -2.1731,2.0151 -4.3675,3.6637 -4.8763,3.6637 -0.5089,0 -2.5496,1.4123 -4.5348,3.1385 -3.2919,2.8622 -3.5395,3.7289 -2.8147,9.8495 0.4372,3.6911 1.7134,7.7261 2.836,8.9666 1.1227,1.2405 2.0412,2.85 2.0412,3.5767 0,2.137 6.9175,7.5306 11.9823,9.3425 5.9405,2.1253 4.9171,2.172 12.6844,-0.5792 z m -18.2901,-7.8973 c -0.7778,-1.571 -1.5811,-9.5566 -1.6498,-16.3973 -0.06,-6 -0.06,-6 6.6066,-6.2281 7.7481,-0.2651 9.6157,-0.6551 13.579,-2.836 5.0067,-2.755 6.8875,-1.913 8.6163,3.8568 1.3407,4.4749 1.2903,6.4585 -0.2799,11 -1.603,4.6371 -2.5677,5.6132 -5.9154,5.9856 -2.2,0.2446 -4.9,1.2212 -6,2.1702 -2.3699,2.0444 -14.1984,3.981 -14.9568,2.4488 z m 48.1452,-24.3348 c -1.2688,-5.2888 -3.1356,-8.6764 -6.8019,-12.3426 -5.0601,-5.0602 -10.1863,-7.3219 -5.9265,-2.6149 4.4062,5.9194 7.5109,13.01 7.54,18.9821 0,6.9985 0.2829,7.7677 3,8.1535 3.902,0.5542 4.4762,-2.6414 2.1884,-12.1781 z m -31.3319,-26.9612 c -0.7071,-1.1441 -9.6487,-0.4202 -10.9559,0.887 -0.3236,0.3235 2.18,0.5326 5.5634,0.4647 3.3834,-0.068 5.8101,-0.6762 5.3925,-1.3517 z m -282.5232,-37.1458 c 6.6,-0.7318 17.1,-1.6195 23.3333,-1.9725 6.2334,-0.3531 18.8334,-1.2228 28,-1.9326 49.2856,-4.782 94.2608,-6.5029 141.3334,-8.0751 3.6417,-0.3762 79.0832,0.2959 82.3757,0.7339 3.9659,0.5275 4.7775,0 8.6667,-5.666 5.0848,-7.4038 14.0512,-16.3764 16.3653,-16.3764 0.9021,0 1.9856,-0.9 2.4077,-2 -83.4747,-3.7346 -142.2484,-1.0339 -228.5168,-0.7316 -18.719,0.059 -37.619,0.7442 -42,1.5225 -4.3809,0.7783 -9.2866,1.6127 -10.9017,1.8543 -14.7333,3.7723 -29.6871,15.7719 -36.4419,28.7762 -3.1676,6.2089 -3.9546,6.0109 15.3783,3.8673 z m 126.9995,328.2893 c -4.3876,-0.5048 -6.6435,-4.173 -6.0794,-9.8851 0.3155,-3.194 1.2019,-4.373 3.7466,-4.9834 1.8333,-0.4397 16.0828,-0.7793 31.6656,-0.7545 15.5826,0.025 28.3326,-0.405 28.3333,-0.955 5e-4,-0.55 1.6511,-0.9954 3.6677,-0.9896 2.6735,0.01 4.1182,0.9824 5.3334,3.5991 2.2056,4.7491 2.1152,10.3584 -0.1978,12.278 -1.7364,1.441 -56.5265,2.8346 -66.4694,1.6905 z m -42.9995,-34.6134 c -4.7389,-0.5496 -7.3333,-3.4853 -7.3333,-8.298 0,-7.1462 1.9042,-7.9774 20,-8.7293 9.1666,-0.3809 51.9044,-0.8988 94.9728,-1.151 85.4996,-0.5007 81.8248,-0.8314 80.5512,7.2503 -1.4643,9.2908 -0.5926,9.1131 -45.993,9.3778 -22.4753,0.131 -44.7644,0.084 -49.531,-0.1036 -27.1655,-1.0715 -83.5939,0.105 -87.9508,1.8337 -0.3938,0.1562 -2.5159,0.075 -4.7159,-0.1799 z m -8.4052,-26.9226 c -2.838,-2.389 -2.9515,-2.988 -1.4901,-7.8654 2.3657,-7.8962 0.7114,-7.7333 89.8953,-8.8529 73.6389,-0.9245 101.7228,-0.979 103.0267,-0.1999 0.5353,0.3198 3.5673,0.6108 6.7376,0.6466 3.1704,0.036 6.5818,0.7436 7.581,1.5728 2.7911,2.3165 3.7171,8.7133 1.736,11.9927 -1.721,2.8489 -2.211,2.8882 -31.748,2.5484 -74.1434,-0.8529 -135.3166,-0.073 -164,2.0899 -7.2426,0.5463 -9.1714,0.2288 -11.7385,-1.9322 z m 7.8816,-23.7746 c -1.9556,-3.6541 -1.8719,-8.5869 0.1903,-11.2158 3.1338,-3.9953 22.5066,-5.281 87.2346,-5.7897 34.3376,-0.2698 72.6522,-0.8021 85.1435,-1.1829 19.7779,-0.6029 23.3035,-0.3944 27.2949,1.6143 5.8312,2.9346 7.1646,7.6061 3.6288,12.7144 -2.2325,3.2255 -3.1666,3.6125 -6.7789,2.8082 -4.0669,-0.9054 -38.6283,-0.8742 -57.5229,0.052 -10.0466,0.4925 -69.5111,0.5193 -82.6667,0.037 -4.4,-0.1612 -14,0.2223 -21.3333,0.8523 -36.589,3.1431 -33.572,3.1337 -35.1903,0.11 z m 26.5236,-62.4277 c -9.1361,-3.2041 -10.6423,-8.1672 -4.3791,-14.4304 3.621,-3.6209 3.621,-3.6209 29.5667,-3.1866 28.1984,0.472 29.4791,0.8146 29.4791,7.8856 0,7.4624 -7.1859,10.6957 -20,8.9989 -7.3802,-0.9772 -19.35,-0.681 -28,0.6928 -2.5667,0.4076 -5.5667,0.4255 -6.6667,0.04 z m 35.8176,-28.2137 c -22.9056,-0.023 -24.5477,-0.1922 -27.2732,-2.8153 -1.7991,-1.7316 -2.8271,-4.2423 -2.7077,-6.6134 0.3426,-6.815 2.0909,-7.6251 15.7434,-7.2957 6.831,0.1648 20.6598,0.3719 30.7308,0.4602 18.0932,0.1587 18.3438,0.2023 21.065,3.6617 4.0854,5.1938 3.1168,11.2527 -2.0426,12.7759 -12.5663,4.097 -25.2281,-0.1527 -35.5157,-0.1734 z m 32.9875,-55.6897 c -4.044,-2.9571 -51.232,-2.8529 -80.3587,0.1775 -3.7879,0.394 -9.3379,0.057 -12.3333,-0.7501 -5.3146,-1.431 -5.4464,-1.607 -5.4464,-7.2725 0,-6.8068 0.646,-7.2081 13.2237,-8.2154 4.8269,-0.3866 11.1763,-1.0047 14.1096,-1.3735 33.1124,2.3313 99.1819,-10.2687 81.8377,16.3526 -1.8409,2.2288 -8.5625,2.8876 -11.0326,1.0814 z m 16.336,-30.5731 c -0.3664,-0.3663 -20.123,-1.0123 -43.9036,-1.4355 -41.5948,-0.7402 -43.3515,-0.8763 -46.2375,-3.581 -3.0419,-2.8508 -4.0979,-9.5108 -1.7392,-10.9686 0.9893,-0.6114 90.8981,-1.3964 96.8585,-0.8457 3.6583,0.338 5.9784,11.9961 2.8807,14.4745 -2.192,1.7537 -7.0155,3.1999 -7.8589,2.3563 z" fill="#00B894" transform="translate(-5.8227617,-92.319769) matrix(0.26458333,0,0,0.26458333,-364.85199,-581.74293)"/>
</svg>