<?xml version="1.0" ?><svg height="55.619583mm" viewBox="0 0 132.87318 55.619583" width="132.87318mm" xmlns="http://www.w3.org/2000/svg">
    <path color="#000" d="m 1675.0617,3733.9074 75.7505,-45.3475 38.8291,18.9873 4.8256,-39.9946 65.7626,-42.3176 160.7032,198.1554 -298.6252,-28.2791 3.825,-32.0389 c 0,0 -62.4053,-21.3883 -51.0708,-29.165 z" fill="#FFFFFF" overflow="visible" paint-order="fill markers stroke" transform="translate(198.50822,-189.21242) matrix(0.26458333,0,0,0.26458333,-602.66573,-769.21633)"/>
    <path d="m 2015.19,3830.2771 c -2.5664,-1.366 -5.1835,-2.164 -5.8157,-1.7732 -0.6323,0.3907 -1.5326,0.124 -2.0006,-0.5916 -52.1267,-7.5291 -85.8795,-13.4166 -132.1842,-17.0803 -6.9667,-0.553 -18.0667,-1.2818 -24.6667,-1.6196 -6.6,-0.3378 -16.2,-0.8506 -21.3333,-1.1397 -11.4482,-0.6447 -31.57,-0.9461 -49.3334,-0.7393 -7.3333,0.085 -14.8041,0.1701 -16.6016,0.1882 -13.0431,0.132 -42.0131,-2.8148 -45.9236,-4.6705 -5.9691,-2.8325 -7.2242,-8.9324 -2.5883,-12.5791 2.805,-2.2064 3.3899,-15.4625 3.3899,-25.1996 0,0 -14.4379,-1.7073 -27.6097,-5.4573 -5.1333,-1.4652 -10.4095,-2.6816 -11.7249,-2.7029 -1.3153,-0.021 -3.9511,-1.485 -5.8572,-3.2524 -2.7597,-2.559 -3.304,-4.0226 -2.6717,-7.1839 0.5779,-2.8895 0.1234,-4.5772 -1.6692,-6.1996 -3.3916,-3.0693 -4.0671,-7.928 -1.5299,-11.0045 2.768,-3.3566 6.8261,-5.7032 17.7264,-10.251 9.7199,-4.0553 12.9854,-6.7552 10.8062,-8.9345 -0.8987,-0.8985 -2.4936,-0.8153 -4.8376,0.2527 -2.8615,1.3037 -4.5946,1.1741 -9.5373,-0.7135 -3.3223,-1.2688 -6.7899,-2.0515 -7.706,-1.7391 -1.9537,0.666 -10.7807,-3.6737 -13.0612,-6.4216 -1.0138,-1.2214 -1.2652,-3.9822 -0.7037,-7.7268 0.8737,-5.8261 0.8737,-5.8261 10.3674,-6.0657 12.1958,-1.6582 21.0892,2.2242 32.0654,5.1451 6.1324,1.6517 6.3333,1.8652 6.3333,6.727 0,5.0214 0,5.0214 8.8302,0.1751 21.3189,-11.7003 25.0799,-13.5131 28.0363,-13.5131 2.0269,0 3.1335,0.7793 3.1335,2.2067 0,2.0051 0.2369,1.9922 2.5939,-0.1408 2.4954,-2.2583 2.8941,-2.165 10.5077,2.4601 4.3527,2.644 8.6093,4.8074 9.4592,4.8074 0.85,0 3.8292,1.165 6.6204,2.589 5.0751,2.5891 5.0751,2.5891 4.4472,-7.194 -0.7733,-12.0501 1.5617,-22.9583 5.1589,-24.1 1.4003,-0.4444 2.546,-1.7468 2.546,-2.8942 0,-4.5066 5.5287,-10.8501 12.3762,-14.2003 1.7909,-4.4482 22.8034,-10.6085 24.9572,-12.895 0.3666,-0.4583 1.5666,-1.2516 2.6666,-1.7627 1.1,-0.5112 4.4,-2.3776 7.3334,-4.1475 21.8092,-14.6307 29.1147,-8.9897 42.7477,5.9931 8.022,8.872 17.1439,18.9391 20.2707,22.3713 3.1269,3.4321 9.6393,11.7903 14.4721,18.5736 13.7987,15.7405 24.4285,34.4556 36.3775,49.2983 13.3836,16.5272 27.6853,33.8966 32.5366,39.5164 3.0775,3.5646 6.4954,7.8344 7.5954,9.4882 1.8782,2.824 4.5137,5.8942 11.6666,13.5904 1.65,1.7754 3,4.0368 3,5.0254 0,1.5976 13.879,16.2593 21.218,22.4146 3.6579,3.068 3.5204,7.471 -0.3748,12 -3.6833,4.2827 -5.209,4.4247 -11.5093,1.0711 z m -126.2177,-32.1096 c -0.6139,-0.5889 -3.4362,-1.4291 -6.2718,-1.8669 -2.8356,-0.4379 -5.7132,-1.1408 -6.3946,-1.5619 -19.8796,-5.7986 -87.3169,-19.3071 -143.3153,-24.2105 -0.3744,0.6057 -0.9393,4.2312 -1.2553,8.0565 -0.3161,3.8253 -0.8637,8.2417 -1.217,9.8143 -0.6077,2.7052 -0.014,2.9076 11.0144,3.7564 6.4112,0.4933 13.7568,0.8916 16.3234,0.8849 2.5667,0 14.9148,0.23 27.4404,0.5257 21.301,-2.2228 44.6,1.5012 63.2263,2.5574 20.1797,1.1092 37.1845,2.823 38.2128,3.8514 0.4543,0.4542 1.3944,0.4744 2.0893,0.045 0.695,-0.4295 0.7614,-1.2627 0.1474,-1.8518 z m 95.9537,-5.6281 c -1.5007,-1.65 -4.4552,-5.6664 -6.5657,-8.9255 -5.7067,-8.4306 -13.0705,-16.5948 -18.5042,-23.4801 -5.1333,-6.5138 -10.2333,-12.7747 -11.3333,-13.9132 -4.0447,-4.1863 -16,-19.9943 -16,-21.156 0,-0.6594 -0.9816,-2.0134 -2.1813,-3.0091 -1.1998,-0.9956 -3.665,-4.2191 -5.478,-7.1632 -1.8132,-2.9441 -3.9816,-5.9529 -4.8187,-6.6863 -0.8371,-0.7333 -3.322,-4.0192 -5.522,-7.302 -9.1831,-13.7026 -20.9093,-28.6191 -31.6652,-40.2798 -6.3,-6.83 -13.9784,-15.4182 -17.0629,-19.0848 -3.0847,-3.6667 -5.7868,-6.8708 -6.0048,-7.1202 -0.218,-0.2495 -3.5923,1.9238 -7.4984,4.8296 -6.4379,4.789 -12.2072,8.1254 -36.0912,20.8716 -4.2108,2.2471 -7.6547,4.3856 -7.6531,4.7523 0,0.3667 3.4467,3.1875 7.6559,6.2686 8.7142,6.3787 11.3853,8.4537 25.9129,20.1302 22.6018,18.6243 41.1966,31.2133 61.0735,49.5048 3.3,3.0684 8.1,7.1647 10.6666,9.1027 2.5667,1.9378 5.5667,4.5293 6.6667,5.7585 3.3549,3.7491 21.5728,16.6245 29.5327,20.8721 10.7212,5.9058 21.878,10.6022 31.7798,16.3266 5.9299,3.4502 6.4528,3.4001 3.0907,-0.2968 z m -36.692,-1.6667 c -1.9772,-1.8333 -4.2399,-3.3333 -5.0281,-3.3333 -0.7884,0 -1.7606,-0.8523 -2.1603,-1.894 -57.9407,-34.5885 -106.5578,-48.6939 -162.5228,-74.1662 -18.3196,-8.3634 -21.2449,-9.994 -25.4821,-14.2045 -4.2916,-4.2647 -4.2916,-4.2647 -7.4048,-1.3013 -1.7122,1.6297 -5.5131,4.497 -8.4464,6.3717 -13.1268,8.3892 -16.6609,10.5276 -17.3989,10.5276 -0.4342,0 -3.6356,2.4 -7.1144,5.3333 -3.4788,2.9334 -6.7938,5.3334 -7.3667,5.3334 -0.573,0 -2.6343,1.1189 -4.5809,2.4866 -1.9465,1.3676 -7.8893,4.7252 -13.2061,7.4611 -5.3168,2.736 -10.0022,5.5171 -10.412,6.1801 -0.6852,1.1086 0.2725,1.3891 6.1874,1.8126 1.1596,0.083 4.4596,0.8485 7.3333,1.701 10.9444,3.2468 26.9448,6.8927 33.9437,7.7346 25.8375,3.6164 53.8099,7.7706 74.6146,12.4384 3.3,0.754 9.9,2.0157 14.6666,2.8038 9.7507,1.6122 34.5742,6.069 40.6667,7.3011 2.2,0.4451 7,1.4036 10.6667,2.1304 7.4012,1.4668 9.4008,1.9105 17.7521,3.9385 9.3236,2.6428 28.6607,3.5169 36.3623,7.4043 2.1728,1.1235 4.6858,1.9252 5.5846,1.7815 0.8988,-0.1438 2.5343,0.1146 3.6343,0.5742 1.1,0.4596 6.5,1.697 12,2.7499 5.5,1.0528 10.2939,1.9715 10.6531,2.0413 0.3592,0.071 -0.9647,-1.3728 -2.9419,-3.2061 z m -86.9167,-66.0305 c -6.236,-6.0311 -12.7158,-11.8962 -14.3997,-13.0334 -1.6837,-1.1373 -5.5216,-4.2132 -8.5284,-6.8353 -3.0068,-2.6221 -9.138,-7.372 -13.6249,-10.5555 -4.4868,-3.1833 -10.1267,-7.5237 -12.5331,-9.6453 -2.4063,-2.1215 -5.1251,-3.867 -6.0417,-3.8787 -0.9167,-0.012 -1.6667,-0.4919 -1.6667,-1.0671 0,-0.5753 -1.7697,-2.0913 -3.9329,-3.3691 -3.9328,-2.3232 -3.9328,-2.3232 -4.6122,2.0458 -0.3734,2.403 -0.9065,9.354 -1.1844,15.4466 -0.5658,12.4069 -0.6276,12.3212 11.7295,16.2705 2.9333,0.9375 8.3333,3.0588 12,4.7143 3.6667,1.6553 13.2667,5.8046 21.3333,9.2208 8.0667,3.4161 17.1062,7.3749 20.0876,8.7973 2.9816,1.4225 6.3962,2.5863 7.588,2.5863 1.1919,0 2.6123,0.7204 3.1566,1.6009 0.6844,1.1076 1.1401,1.1489 1.4784,0.1341 0.2689,-0.8066 -4.6134,-6.4013 -10.8494,-12.4322 z m -230.7342,-28.0418 c -2.1669,-0.647 -6.0669,-1.4268 -8.6667,-1.7328 -9.0977,-1.0706 -13.2307,-2.5162 -16.1852,-5.6612 -2.7807,-2.9599 -2.8602,-3.5286 -1.1983,-8.5644 1.7802,-5.3939 1.7802,-5.3939 10.885,-5.081 5.0077,0.172 9.1049,0.7013 9.1049,1.176 0,0.4748 1.8272,0.9152 4.0604,0.9787 7.1491,0.2032 12.3993,4.3369 13.6701,10.7628 1.7466,8.8321 -1.5677,11.1386 -11.6702,8.1219 z m -89.5484,-17.573 c -12.5119,-2.9786 -12.5119,-2.9786 -12.5119,-9.3333 -3.5119,-16.3585 2.3016,-8.3311 16.4955,-7.1541 5.7726,0.4634 10.9868,1.1461 11.5872,1.5172 0.6005,0.3711 4.6445,0.7247 8.9869,0.7858 9.2983,0.131 9.8135,0.3862 13.2783,6.578 2.3306,4.1648 2.4368,5.1686 0.8644,8.1696 -1.6389,3.128 -7.5023,5.681 -9.1844,3.9989 -5.276,1.1621 -23.6032,-3.1618 -29.516,-4.5621 z" fill="#00B894" transform="translate(198.50822,-189.21242) matrix(0.26458333,0,0,0.26458333,-602.66573,-769.21633)"/>
</svg>