<?xml version="1.0" ?><svg height="105.84939mm" viewBox="0 0 105.48698 105.84939" width="105.48698mm" xmlns="http://www.w3.org/2000/svg">
    <path color="#000" d="m 1505.0517,2200.5598 48.0808,144.9147 63.1222,-19.2489 c 31.5215,30.0089 76.7968,36.2936 118.7673,48.2788 36.9446,-50.9101 75.849,-114.7316 129.6255,-161.5045 -62.6559,-61.033 -33.7258,-80.6247 -135.7117,-192.4098 l -93.4662,9.3115 c -96.3502,-63.3529 -87.0106,-44.4402 -72.3385,53.7562 -52.7175,69.6767 -115.797,84.6894 -58.0794,116.902 z" fill="#FFFFFF" overflow="visible" paint-order="fill markers stroke" transform="translate(6.9498169,23.722926) matrix(0.26458333,0,0,0.26458333,-394.81748,-547.34445)"/>
    <path d="m 1722.5564,2378.539 c -0.3888,-0.6291 -5.3803,-2.2233 -11.0922,-3.5429 -28.7821,-14.2004 -65.8415,-13.8429 -89.7186,-36.8277 0,-0.5143 -1.8,-1.5625 -4,-2.3294 -2.2294,-0.7772 -4,-2.3527 -4,-3.5592 0,-2.8409 -6.1406,-2.2609 -10.5131,0.993 -1.7489,1.3015 -3.9807,2.3664 -4.9595,2.3664 -34.7618,8.6123 -47.411,28.9088 -60.4816,-6.6667 -6.366,-15.5745 -11.3151,-31.189 -16.0389,-46.6667 -9.9616,-22.1206 -14.9854,-50.5915 -24.3926,-71.6212 -0.9723,-2.1286 -0.879,-3.5216 0.3339,-4.983 2.6232,-3.1608 0.9378,-5.3005 -7.4872,-9.5055 -3.6297,-1.2647 -14.9676,-9.9897 -18.0719,-9.6061 -3.0927,0.4665 -8.1302,-6.9264 -5.3891,-7.909 0.9167,-0.3285 1.6667,-1.4474 1.6667,-2.4863 0,-1.0389 0.75,-1.9108 1.6666,-1.9375 1.75,-0.051 9,-10.5858 9,-13.0774 7.548,-4.3292 13.0596,-16.1307 18.4502,-21.1978 11.642,-10.2603 16.7907,-16.1439 27.5498,-28.9958 3.6667,-4.3868 12.4371,-13.7757 19.4899,-20.8642 12.681,-12.7453 12.788,-12.9069 9.6558,-14.5832 -1.8693,-1.0005 -3.7055,-3.6936 -4.4805,-6.5716 -3.3121,-25.6797 -1.3543,-94.5618 5.8734,-89.6783 0.5407,0.5407 1.6907,1.0402 2.5556,1.11 19.5826,15.1006 55.5892,23.1358 71.5726,41.6848 0,2.3063 7.579,1.9092 8.4821,-0.4444 29.9369,-4.166 57.9438,-9.4149 84.1159,-8.8547 2.1623,0.067 4.9707,-0.8184 6.241,-1.968 2.1105,-1.9099 2.5156,-1.8496 4.6983,0.6996 1.3137,1.5344 3.0853,2.7897 3.9368,2.7897 2.2865,0 3.2783,5.3484 1.5802,8.5214 -2.0039,3.7442 -4.5344,6.1453 -6.4767,6.1453 -0.887,0 -4.1157,2.25 -7.1748,5 -7.2398,6.5082 -12.6388,11 -13.2216,11 -0.2559,0 -5.8013,3.0838 -12.3232,6.853 -16.6428,9.6181 -22.7136,12.9454 -51.858,28.4226 -5.1334,2.7261 -9.9334,5.4299 -10.6667,6.0085 -4.3697,3.4474 -28.1337,15.0492 -30.8255,15.0492 -4.7184,0 -5.1458,1.9065 -1.5077,6.7243 4.8598,9.6654 12.9165,20.9808 16.2623,29.6091 1.2603,3.3 2.5417,6 2.8475,6 1.2343,-10e-5 15.2233,-14.6494 15.2233,-15.942 0,-0.7653 0.4828,-1.3914 1.0729,-1.3914 0.5901,0 8.5616,-7.35 17.7145,-16.3334 15.0299,-14.7514 23.4545,-22.4064 33.2126,-30.1785 1.8334,-1.4602 5.4334,-4.3761 8,-6.4797 2.5667,-2.1036 9.7667,-7.5717 16,-12.1514 6.2334,-4.5796 12.6843,-9.5598 14.3354,-11.067 1.6511,-1.5073 3.9011,-2.3954 5,-1.9738 2.6878,1.0314 2.5153,-0.039 -0.5336,-3.3117 -3.7427,-4.0173 -4.2901,-9.0162 -1.3132,-11.9931 4.3962,-4.3962 11.1939,-2.6501 13.7802,3.5396 1.1335,2.7129 3.5863,5.2126 6.4466,6.5699 4.123,1.9565 28.6112,26.6746 30.2846,30.5691 0.3667,0.8533 3.5322,5.4346 7.0343,10.1807 11.6053,15.7272 21.9648,32.9728 32.4159,53.9626 19.2204,47.5954 49.1654,66.7877 40.3348,71.6865 -0.8966,1.7106 -0.6715,2.5686 0.8242,3.1426 1.7238,20.1882 -39.73,36.0748 -49.918,54.5042 -6.4196,11.9477 -9.579,17.2866 -11.8353,20 -1.2195,1.4667 -3.3555,4.9167 -4.7465,7.6667 -17.6191,26.8215 -32.6276,48.4032 -49.291,73.9909 -1.5501,2.3783 -3.3711,4.3283 -4.0467,4.3333 -0.6756,0.01 -2.2637,0.9461 -3.529,2.0912 -1.2654,1.1451 -4.9845,2.2615 -8.2648,2.4807 -3.2803,0.2193 -6.6008,0.7922 -7.3789,1.2731 -0.7781,0.4808 -1.7328,0.3596 -2.1215,-0.2694 z m 11.1619,-16.8857 c 21.9221,-22.8768 33.1193,-41.9767 47.2632,-67.2666 1.1536,-0.9574 2.0974,-2.3073 2.0974,-2.9997 0,-1.2292 5.6767,-9.3299 9,-12.8431 2.401,-2.5381 2.0496,-4.2904 -0.6666,-3.3255 -1.2834,0.4559 -5.6334,2.712 -9.6667,5.0135 -13.6689,7.7997 -15.3254,8.7021 -22.2009,12.0937 -3.7771,1.8633 -7.6006,4.2711 -8.4966,5.3507 -0.8959,1.0796 -2.4055,1.9629 -3.3546,1.9629 -0.949,0 -2.8597,1.557 -4.246,3.4601 -2.3542,3.2318 -3.2846,3.4737 -14.1048,3.6666 -27.2564,2.4586 -51.8053,4.9219 -80.2638,12.9755 -8.0666,2.2741 -16.0166,4.4514 -17.6666,4.8384 -4.0993,0.9614 -3.7685,2.0683 1.287,4.3061 2.3578,1.0437 5.7112,3.5901 7.4518,5.6588 22.4503,18.2949 52.4675,15.0493 74.7367,27.734 12.0931,-0.5412 11.1807,2.1799 18.8305,-0.6254 z m -171.2181,-30.1565 c 0.6026,-0.9749 1.1962,-1.0159 1.7494,-0.1208 13.5401,-2.3593 31.1978,-10.7307 44.4793,-14.8822 12.316,-3.9605 30.8918,-9.11 34.7883,-9.6437 2.0744,-0.2841 4.3686,-0.8855 5.0982,-1.3365 2.726,-1.6848 29.5341,-8.1794 34.7969,-8.43 1.5971,-0.076 2.3333,-1.2078 2.3333,-3.5871 0,-2.542 -0.5374,-3.2697 -2,-2.7085 -1.1743,0.4506 -2,0.018 -2,-1.048 0,-1.7476 -3.6132,-4.0791 -5.6557,-3.6495 -0.544,0.1144 -2.1654,-0.7992 -3.6032,-2.0303 -4.286,-3.6698 -29.0696,-16.3147 -30.0516,-15.3327 -0.4992,0.4991 -1.6085,0.01 -2.4652,-1.0953 -29.536,-15.9721 -61.9998,-24.6244 -90.5576,-38.8054 -6.8794,-3.3196 -14.589,-6.401 -19.9696,-9.9309 -3.8333,-2.5245 -7.5361,-4.5901 -8.2284,-4.5901 -0.6923,0 -2.3596,-0.9963 -3.7052,-2.214 -1.3456,-1.2177 -2.7957,-1.8649 -3.2225,-1.4381 -0.4268,0.4268 1.0769,6.7012 3.3415,13.9431 2.2646,7.2419 4.1175,14.1536 4.1175,15.3594 0,1.2057 0.5525,2.5338 1.2279,2.9511 1.1457,0.7081 4.4353,10.1645 12.5459,36.0652 -1.9669,6.8665 16.8105,40.8792 16.8929,45.7486 0,2.9258 4.7158,8.2514 7.3066,8.2514 1.0281,0 2.2797,-0.664 2.7813,-1.4757 z m 164.6987,-45.9317 c 0.6185,-0.3823 1.1087,-9.2237 1.0891,-19.6475 -0.02,-10.4237 0.3206,-27.0507 0.7559,-36.9487 0.716,-16.2831 1.6905,-26.6378 6.0852,-64.6631 2.6195,-22.6656 3.9106,-48.0469 3.9857,-78.3525 0.071,-28.8023 -1.144,-40.2506 -3.2772,-30.8712 -1.1041,4.8547 -2.6368,6.7954 -9.7587,12.3564 -4.2727,7.2753 -10.5028,8.5001 -15.4508,13.2696 -23.4447,20.6241 -47.1041,43.6537 -66.8711,64.9311 -5.4562,5.8666 -9.9386,11.8666 -9.9609,13.3333 -0.022,1.4667 1.2558,4.7667 2.8402,7.3333 13.2451,26.8868 33.1223,54.616 46.2079,80 3.1644,6.2334 7.8118,14.3265 10.3275,17.9848 2.5156,3.6583 4.5739,7.5079 4.5739,8.5548 0,1.8883 1.2696,3.5294 8.3333,10.7712 2.0167,2.0675 3.6667,4.3652 3.6667,5.1059 0,1.2466 14.6015,-1.3949 17.4533,-3.1574 z m 26.7207,-5.4327 c 1.0043,-0.7872 4.826,-2.8696 8.4927,-4.6277 3.6666,-1.758 6.9666,-3.516 7.3333,-3.9067 0.3667,-0.3906 4.8667,-2.7412 10,-5.2235 5.1333,-2.4822 11.7333,-6.0431 14.6667,-7.9131 2.9333,-1.8699 7.4542,-4.6199 10.0465,-6.111 16.5552,-12.1959 31.0663,-18.5821 46.2868,-31.1747 7.6559,-6.3269 9.0447,-9.5576 3.6667,-8.5295 -2.0643,0.3946 -3.3334,0.025 -3.3334,-0.9698 0,-0.8838 -2.7,-4.6935 -6,-8.4658 -13.2803,-17.2232 -22.9267,-37.0291 -29.3846,-49.5714 -3.7152,-6.1105 -8.0443,-15.5667 -8.6543,-16.6667 -0.61,-1.1 -4.2485,-7.7 -8.0853,-14.6667 -6.914,-12.5535 -15.5496,-25.5885 -17.5196,-26.4444 -0.5626,-0.2444 -1.0228,-1.0435 -1.0228,-1.7756 0,-1.5298 -8.0368,-11.6418 -14.1598,-17.816 -2.2878,-2.307 -5.2213,-5.8148 -6.5189,-7.7951 -3.4399,-5.25 -5.3142,-3.6401 -5.3708,4.6133 -0.027,3.9698 -0.5904,16.2178 -1.2516,27.2178 -0.6612,11 -1.073,20.4977 -0.9153,21.1058 0.1578,0.6082 -0.3232,6.0082 -1.0689,12 -1.5101,12.1338 -5.7802,58.7315 -5.7636,62.8942 0.01,1.4667 -0.5352,8.6667 -1.2023,16 -0.6672,7.3334 -1.4586,16.9334 -1.7589,21.3334 -0.8273,12.1261 -0.9176,45.8323 -0.1261,47.113 0.9696,1.5688 9.4254,1.1186 11.6435,-0.6198 z m -71.8986,-10.8071 c -1.4304,-2.0274 -4.3633,-6.9861 -6.5177,-11.0195 -2.1544,-4.0333 -5.3812,-9.756 -7.1707,-12.7171 -1.7895,-2.9611 -3.9582,-6.5611 -4.8194,-8 -13.7626,-25.2387 -26.7627,-42.144 -38.8951,-66.1739 -1.9757,-3.9321 -4.5183,-6.8005 -6.9042,-7.7887 -4.3208,-1.7898 -5.6243,-4.2369 -4.5458,-8.5342 0.6998,-2.7881 -2.5564,-10.1581 -6.8272,-15.4527 -0.8873,-1.1 -2.0524,-3.4376 -2.5892,-5.1948 -1.1142,-3.6468 -14.0796,-24.576 -15.642,-25.2497 -0.5669,-0.2444 -1.0308,-1.0003 -1.0308,-1.6797 0,-1.6733 -14.8367,-23.8758 -15.9549,-23.8758 -1.3272,0 -12.5329,11.1703 -26.0451,25.9627 -18.4155,20.616 -38.0496,40.747 -53.8962,59.1639 -7.824,9.1255 -7.8258,9.0975 0.8051,12.9429 2.3331,1.0395 4.6001,2.4693 5.0376,3.1772 5.876,4.9645 12.782,6.1775 19.0855,11.0769 53.0277,30.0346 107.8796,46.183 152.3014,70.2633 1.1934,1.5941 11.9988,6.7318 12.0405,5.725 0.022,-0.5382 0.7275,0.206 1.567,1.6538 0.9562,1.6491 1.7273,2.0299 2.0641,1.0195 0.2957,-0.8872 -0.6326,-3.2718 -2.0629,-5.2991 z m -85.6087,-180.4315 c 0,-0.7766 0.5987,-1.0419 1.3306,-0.5896 18.4205,-8.2115 38.9175,-15.417 53.0503,-26.1883 0.2095,0.1569 1.3024,-0.6362 2.4286,-1.7624 1.1262,-1.1262 2.9487,-2.0476 4.0501,-2.0476 4.0327,0 0.9726,-4.7624 -6.2067,-9.6597 -27.4844,-9.5434 -51.2983,-33.6628 -77.9569,-45.007 -0.5378,0 -2.8541,-1.5789 -5.1474,-3.5086 -4.1697,-3.5085 -4.1697,-3.5085 -4.929,-0.3333 -1.1552,4.8315 -0.6354,61.3228 0.6032,65.5489 1.0865,3.7069 1.0865,3.7069 5.4339,0.3909 2.3911,-1.8237 4.693,-2.9704 5.1152,-2.5482 0.4223,0.4223 1.7392,-0.2037 2.9265,-1.391 3.0892,-3.0892 5.7933,-2.6681 7.5442,1.1746 1.1327,2.4861 1.1347,4.1762 0.01,6.6493 -1.7017,3.7348 -1.1889,5.3861 4.4442,14.3086 3.6781,5.8258 7.3052,8.2902 7.3052,4.9634 z m 79.7528,-50.5835 c 7.6382,-3.4432 15.3353,-7.8891 23.8472,-8.0045 1.6866,0 3.0666,-0.6806 3.0666,-1.5124 0,-1.6126 -5.4539,-1.3594 -32.6666,1.5166 -15.5267,1.6409 -18.0312,2.5369 -14.7358,5.2718 5.3646,4.4523 19.228,6.2984 20.4886,2.7285 z" fill="#00B894" transform="translate(6.9498169,23.722926) matrix(0.26458333,0,0,0.26458333,-394.81748,-547.34445)"/>
</svg>