<?xml version="1.0" ?><svg height="114.86641mm" viewBox="0 0 132.9471 114.86641" width="132.9471mm" xmlns="http://www.w3.org/2000/svg">
    <path color="#000" d="m 794.01182,2978.4021 c 26.0439,-82.6046 28.4126,-161.1032 11.5638,-236.2688 46.7456,-26.5514 97.0628,-46.2028 127.872,-103.542 330.23588,6.1485 241.86608,-14.9197 344.90228,-62.8945 l -42.7358,67.5701 39.3002,-6.1839 c -12.5239,87.2418 -35.3118,174.3626 -21.9544,261.9092 -52.3274,10.6488 -76.8685,61.4867 -115.3027,92.2301 z" fill="#FFFFFF" overflow="visible" paint-order="fill markers stroke" transform="translate(-200.98808,-241.8849) matrix(0.26458333,0,0,0.26458333,-7.4392308,-437.57232)"/>
    <path d="m 1112.5886,3002.0391 c -1.2833,-0.2813 -2.3333,-1.6676 -2.3333,-3.0804 0,-2.922 2.4161,-2.7101 -38,-3.3337 -57.1895,0.4005 -125.64088,-7.7674 -170.66678,-9.2419 -11.7333,-0.374 -21.9333,-0.7214 -22.6667,-0.772 -1.8529,-0.1277 -20.9719,-0.077 -49.3333,0.1318 -13.2,0.097 -25.0513,-0.2325 -26.3363,-0.7322 -1.285,-0.4997 -3.7507,-0.5535 -5.4795,-0.1196 -2.1468,0.5388 -3.8798,-0.025 -5.4668,-1.7786 -2.1564,-2.3828 -2.1698,-2.8754 -0.1871,-6.8499 3.0175,-6.0487 2.6731,-8.8674 -1.5303,-12.5226 -3.0228,-2.6287 -3.4055,-3.6126 -2.1798,-5.6028 0.8178,-1.3277 3.0452,-2.4415 4.9499,-2.4751 4.394,-0.077 4.3783,-0.056 5.4741,-7.6056 0.7189,-4.9532 0.5162,-6.3333 -0.93,-6.3333 -1.0172,0 -3.242,-1.4825 -4.9441,-3.2943 -2.5674,-2.7328 -2.8064,-3.6418 -1.4025,-5.3333 0.968,-1.1663 3.8317,-2.0391 6.6906,-2.0391 4.9983,0 4.9983,0 6.0539,-7 0.5805,-3.85 1.1775,-9.7 1.3265,-13 0.149,-3.3 0.6364,-9.75 1.0831,-14.3333 0.8122,-8.3334 0.8122,-8.3334 -4.4881,-8.3334 -2.9151,0 -5.3002,-0.5319 -5.3002,-1.182 0,0 -13.6582,-6.1299 10.1986,-7.2388 0.5248,-0.5247 0.6347,-16.3154 0.155,-22.2458 -0.5428,-6.7093 1.1592,-12 3.8604,-12 2.6502,0 2.7091,-6.7098 0.1907,-21.7252 -1.2812,-7.6385 -2.2159,-9.6701 -5.9621,-12.9593 -5.2964,-4.6503 -5.5396,-6.2978 -1.1747,-7.9573 2.4827,-0.9439 3.1186,-1.9772 2.6465,-4.3003 -1.6962,-8.3472 -4.9871,-34.6236 -5.1383,-41.0269 -0.141,-5.9726 3.5256,-7.0354 7.3774,-2.1386 2.0156,2.5624 3.5014,3.2437 5.8101,2.6642 1.7061,-0.4282 47.7122,-0.96 102.2358,-1.1818 54.5236,-0.2218 102.13388,-0.4396 105.80058,-0.484 3.6667,-0.044 10.2667,0.1667 14.6667,0.4693 4.4,0.3025 8.6,0.5902 9.3333,0.6393 0.7334,0.049 2.6848,1.2166 4.3365,2.5945 5.5009,4.5889 2.7358,6.2011 -13.3988,7.8123 -8.2157,0.8204 -15.8377,1.5233 -16.9378,1.562 -1.1,0.039 -5,0.3772 -8.6666,0.7522 -3.6667,0.375 -47.46668,0.9239 -97.33338,1.2199 -49.8666,0.2959 -93.0962,0.5804 -96.0656,0.6322 -5.3684,0.094 -5.3958,0.1204 -4.8553,4.7501 0.299,2.5608 0.9535,4.4026 1.4545,4.093 3.8045,-2.3514 168.9031,-3.5193 223.46648,-1.5808 11.7334,0.4168 32.1334,1.1064 45.3334,1.5324 13.2,0.426 26.85,1.069 30.3333,1.429 5.5025,0.5686 6.3333,0.3319 6.3333,-1.8042 0,-1.3523 -0.72,-3.1787 -1.6,-4.0587 -1.091,-1.091 -1.1659,-2.034 -0.2355,-2.9645 2.4683,-2.4682 0.5032,-9.2511 -2.9297,-10.1127 -1.7189,-0.4314 -3.8707,-1.6825 -4.7817,-2.7801 -1.3791,-1.6618 -0.7747,-2.7789 3.612,-6.6766 3.2808,-2.915 4.6395,-4.9212 3.6016,-5.3179 -0.9167,-0.3504 -1.6667,-1.3863 -1.6667,-2.302 -71.2189,5.9218 -145.60868,-2.6196 -210.66668,2.6313 -4.7667,0.3966 -29.1807,0.7289 -54.2535,0.7383 -39.6663,0.015 -46.0119,-0.2615 -48.8607,-2.1281 -6.6228,-4.3395 -4.74,-10.0984 3.9011,-11.9317 2.266,-0.4808 7.1568,-2.8741 10.8684,-5.3185 3.7115,-2.4443 8.4574,-5.3197 10.5464,-6.3897 20.3861,-7.8424 78.2416,-47.2922 97.7983,-86.2838 0,-1.3028 14.8814,-2.3589 24,-1.7031 1.8333,0.1318 22.12,0.4675 45.0816,0.7459 130.63398,9.3096 255.99958,-37.4664 284.38578,-67.9732 5.0213,-1.4997 5.0213,-1.4997 5.9083,3.75 0.9029,5.3441 -0.6218,8.4683 -6.1887,12.6813 -1.1805,0.8934 -3.8787,5.0993 -5.996,9.3464 -4.9204,10.015 -9.0201,16.1763 -13.6952,23.3887 -1.5222,2.3834 -3.5315,5.531 -4.465,6.9948 -0.9336,1.4637 -3.3474,4.8501 -5.3641,7.5252 -2.0166,2.6751 -3.6666,5.1642 -3.6666,5.5315 6.3537,-0.8381 27.6255,-5.8851 31.8722,-8.9572 4.2772,-3.1556 4.5984,-3.1994 7.5448,-1.0284 5.574,4.1069 5.985,7.1334 1.5335,11.2917 -2.1866,2.0426 -5.2133,3.9027 -6.726,4.1336 -3.1074,0.4742 -4.4121,2.8235 -2.2949,4.132 1.7068,1.0549 1.8712,14.6691 0.2149,17.7978 -13.9493,85.9006 -28.3732,164.0796 -19.4376,244.193 -8.5846,14.997 -5.1653,7.7725 -14.8695,-3.9767 -1.1065,-1.1067 -3.365,0.018 -8.6667,4.3156 -3.9437,3.1968 -8.6538,6.8401 -10.4669,8.0964 -4.6579,3.2271 -1.1418,2.8461 4.5104,-0.4887 2.5847,-1.5251 5.7316,-2.574 6.9931,-2.3311 1.6969,0.3268 -0.4809,3.2162 -8.3707,11.1061 -14.1009,16.5457 -39.0784,23.6245 -53.8362,38.0534 -0.3666,0.5078 -4.0863,3.1019 -8.2658,5.7649 -9.9971,6.3695 -11.4421,8.9158 -6.2889,11.0825 3.0473,1.2813 3.8881,2.4855 3.8881,5.5688 0,5.2662 -4.6884,6.9328 -22,7.8207 -10.0628,0.516 -13.9875,1.2546 -16,3.0109 -3.2533,2.839 -9.836,5.0396 -13,4.3459 z m 12.321,-20.3037 c 2.282,-2.282 2.2629,-2.3786 -0.4714,-2.3881 -6.2843,-0.022 -28.2936,-4.5508 -29.9272,-6.1583 -2.172,-2.1373 -0.742,-8.7993 1.8888,-8.7993 1.0205,0 1.8555,0.8 1.8555,1.7778 0,0.9778 0.75,1.7935 1.6666,1.8127 0.9167,0.019 7.8167,0.4087 15.3334,0.8654 13.6666,0.8304 13.6666,0.8304 13.6666,-4.2033 0,-5.0322 -10e-4,-5.0336 -5.6666,-5.039 -13.4734,-0.013 -32.9728,-2.2409 -34.3728,-3.9277 -1.1091,-1.3365 -0.8578,-2.092 1.0323,-3.1036 2.7147,-1.4529 31.0112,-2.7004 31.0087,-1.3671 -9e-4,0.4483 1.4984,0.5284 3.3318,0.1779 3.0062,-0.5747 3.3333,-1.2677 3.3333,-7.0617 0,-3.5334 -0.7024,-8.1134 -1.5609,-10.1778 -0.8584,-2.0645 -1.4033,-6.6035 -1.2107,-10.0868 0.2791,-5.0499 -0.08,-6.3334 -1.7725,-6.3334 -1.1674,0 -2.1226,-0.6 -2.1226,-1.3333 0,-0.7333 0.6,-1.3333 1.3334,-1.3333 1.413,0 1.8375,-7.8015 0.5998,-11.0267 -0.4642,-1.2097 -1.9354,-1.6816 -4.0076,-1.2855 -1.8008,0.3443 -4.1485,-0.1 -5.2172,-0.9866 -1.6983,-1.4095 -1.6848,-2.0064 0.1075,-4.7419 2.0505,-3.1294 2.0505,-3.1294 -11.3777,-3.177 -9.9877,-0.035 -14.2603,-0.5929 -16.6763,-2.1759 -3.0952,-2.0281 -9.3928,-2.022 -12.6843,0.012 -71.7576,-0.5023 -139.36618,-2.0023 -199.41098,-2.0732 -5.8667,-0.01 -13.0667,-0.096 -16,-0.2004 -2.9334,-0.1044 -12.6247,-0.075 -21.5363,0.066 -16.2028,0.2558 -16.2028,0.2558 -17.3518,3.9225 -0.6319,2.0167 -1.0598,4.5667 -0.9509,5.6667 0.1089,1.1 0.2673,3.05 0.3519,4.3333 0.1152,1.7485 1.3235,2.3333 4.8204,2.3333 2.5667,0 4.6667,-0.6211 4.6667,-1.3802 0,-0.837 0.9184,-0.9552 2.3333,-0.3005 1.2834,0.5938 4.7334,0.9567 7.6667,0.8064 74.0273,5.8401 143.5261,-4.6043 206.16008,2.9733 0.4866,0.3007 6.7996,0.8638 14.029,1.2513 32.1381,1.7229 57.5409,3.9352 58.7197,5.114 1.6519,1.6519 -0.8323,2.539 -9.8529,3.5187 -8.7734,0.9529 -15.3825,0.8318 -36.3891,-0.6668 -79.71368,-5.87 -165.30318,-0.5974 -237.83788,-1.1701 -15.241,-0.1461 -15.241,-0.1461 -16.0736,6.1325 -0.4579,3.4532 -1.5652,6.7532 -2.4606,7.3333 -3.0044,1.9466 12.4901,2.3908 73.0386,2.094 65.4598,-3.6643 121.20448,-4.179 196.16428,0.014 1.2335,1.2335 0.4514,1.9206 -2.8308,2.4869 -1.4667,0.253 -3.3251,1.301 -4.1298,2.3287 -65.4827,-0.672 -149.40638,5.3983 -212.87028,5.7109 -45.5592,0.2632 -51.6736,0.5421 -51.7252,2.3594 -0.032,1.1336 -0.8158,4.1783 -1.7414,6.766 -1.9293,5.3936 -7.4599,4.9645 42.4666,3.2948 75.3447,-2.5826 139.632,-1.3624 208.52278,6.0393 11.082,-0.9601 21.5562,3.1637 31.3506,3.878 0.6636,0.046 0.1207,1.2829 -1.2067,2.7496 -2.2223,2.4556 -9.8098,3.7456 -11.5857,1.9698 -0.3833,-0.3833 -10.2333,-0.9551 -21.8889,-1.2708 -68.49248,-1.2149 -138.09548,-5.5263 -207.85878,-2.8047 -14.6667,0.6287 -30.2062,1.2096 -34.5322,1.291 -7.8837,0.1483 -9.6864,1.3962 -10.0407,6.9503 -0.066,1.0415 13.7767,1.512 47.5729,1.6168 26.2167,0.081 51.8667,0.4783 57,0.8822 59.5042,3.4081 119.13418,8.5696 172.29518,8.4954 37.1683,-0.067 40.8514,-0.2765 43.0259,-2.4511 z m 36.586,-30.0123 c 2.8022,-2.5666 5.6194,-4.6666 6.2606,-4.6666 0.6412,0 1.1657,-0.4636 1.1657,-1.0302 0,-0.5665 1.95,-2.0856 4.3334,-3.3758 2.3833,-1.2901 6.4333,-4.2035 9,-6.4742 13.8212,-10.3848 27.9663,-23.447 41.3333,-31.7865 2.9333,-1.8129 5.3333,-4.0546 5.3333,-4.9814 0,-0.9269 1.05,-1.7099 2.3334,-1.7399 1.2833,-0.03 4.692,-1.74 7.5749,-3.7999 5.2415,-3.7454 5.2415,-3.7454 5.5552,-23.6121 0.1725,-10.9267 0.014,-19.1167 -0.3527,-18.2 -1.8665,4.6686 -6.4599,-0.1118 -5.8664,-6.1054 0.273,-2.7582 0,-2.9393 -2.4685,-1.6198 -1.5267,0.8171 -2.7759,2.0645 -2.7759,2.7721 0,0.7075 -0.8466,1.2864 -1.8814,1.2864 -28.5566,26.3728 -46.146,37.7525 -79.4457,69.6667 0,0.55 -0.7844,1 -1.7356,1 -0.9512,0 -4.0262,2.3521 -6.8334,5.2269 -5.104,5.227 -5.104,5.227 -4.1645,14 0.5168,4.8252 1.3418,8.757 1.8334,8.7373 0.4917,-0.02 3.983,-2.8905 7.7585,-6.3797 11.0323,-10.1956 21.8385,-19.4801 24.3463,-20.9179 1.2791,-0.7333 3.1799,-2.0762 4.2241,-2.9841 10.282,-8.9408 36.1865,-28.1763 44.53,-33.0659 3.1751,-1.8607 8.5323,-5.812 11.9048,-8.7806 6.1184,-5.3857 6.1343,-5.3906 7.2965,-2.2834 0.7217,1.9297 0.6564,3.4376 -0.1716,3.965 -0.735,0.468 -0.9692,1.4449 -0.5204,2.171 0.8892,1.4388 -8.2862,10.2442 -18.386,17.6447 -13.4865,10.3767 -26.6044,21.4877 -39.0883,31.2335 -4.5833,3.5712 -8.3333,7.0047 -8.3333,7.6298 0,0.6252 -0.5955,1.1367 -1.3232,1.1367 -2.7275,0 -21.5149,17.3107 -20.5252,18.9119 1.3073,2.1152 4.0526,1.0343 9.0887,-3.5786 z m -24.1124,-40.0545 c -0.4336,-1.13 -0.2648,-1.894 0.3752,-1.6977 31.4501,-23.6395 65.224,-51.3617 95.6769,-74.9105 2.1157,-1.0893 4.6271,-3.1858 5.581,-4.6589 1.4769,-2.2809 4.8315,-20.6759 3.9558,-21.6916 -0.4387,-0.5088 -13.3056,9.3723 -13.8279,10.619 -17.3234,16.5333 -48.4251,27.8933 -61.6,45.6431 -13.484,6.9882 -17.5711,22.6455 -29.0894,26.6878 -1.4409,0.4573 -2.9845,1.7818 -3.4302,2.9432 -1.0916,2.8447 0.6446,19.1201 2.0396,19.1201 0.6091,0 0.7526,-0.9245 0.319,-2.0545 z m -25.8315,-27.5893 c 4.1653,0.048 8.207,-0.3121 8.9814,-0.8009 0.8256,-0.521 1.6635,-8.5015 2.0253,-19.291 0.5829,-17.3811 0.4662,-18.5081 -2.103,-20.3076 -2.7201,-1.9052 -2.7201,-1.9052 0.2066,-7.1125 2.2485,-4.0008 2.9266,-7.3978 2.9266,-14.6616 0,-8.6134 -0.2965,-9.6487 -3.3333,-11.6385 -4.0201,-2.6341 -4.2853,-6.4217 -0.6667,-9.5201 3.6305,-3.1086 3.5451,-9.1499 -0.1431,-10.1144 -1.5454,-0.4041 -4.1837,-0.2124 -5.8629,0.426 -1.6792,0.6385 -3.3876,0.8264 -3.7964,0.4176 -0.4088,-0.4089 -9.0205,-0.9467 -19.1371,-1.1953 -10.1166,-0.2486 -21.969,-0.7455 -26.3386,-1.1041 -4.6816,-0.3843 -8.6519,-0.065 -9.6666,0.777 -1.2249,1.0165 -1.722,1.0165 -1.722,0 0,-1.31 -21.0489,-2.0693 -52.6667,-1.9 -60.37348,0.3149 -120.79108,0.1951 -181.13958,2.1116 -2.176,0.1135 -2.4062,1.052 -1.917,7.8152 0.3058,4.2275 0.9143,8.0446 1.3522,8.4825 1.178,1.1779 17.6693,1.9478 55.0377,2.5693 74.0081,1.2606 147.64988,4.0223 222.31428,1.9822 7.8728,-0.2426 14.7083,-0.047 15.19,0.4348 1.5989,1.5989 -2.2244,4.6766 -4.9304,3.969 -1.5321,-0.4007 -3.7866,0.3222 -5.3129,1.7035 -59.115,5.8233 -124.40288,3.6042 -199.66788,2.4293 -43.2857,-0.5343 -77.5888,-1.6681 -79.1212,-2.6152 -0.8035,-0.4966 -0.9477,4.8781 -0.3893,14.5149 0.7401,12.7728 0.5599,15.4939 -1.0899,16.4545 -2.2069,1.285 -4.4567,7.151 -2.7427,7.151 0.6031,0 1.0935,5.3681 1.0899,11.929 0,10.3711 0.3071,12.0114 2.395,12.5597 1.3209,0.3469 23.2209,0.6396 48.6667,0.6504 66.7552,-0.8592 128.5518,3.439 190.13088,5.0462 9.4595,0.2393 17.5095,0.7455 17.8889,1.1249 10.7139,-1.4427 22.6277,-2.3747 33.5418,-2.2874 z m -194.96318,-49.9995 c -17.4167,0.252 -31.6667,-0.018 -31.6667,-0.6002 0,-0.5821 -1.05,-0.9704 -2.3333,-0.8628 -4.8078,0.4029 -8.3333,-0.2712 -8.3333,-1.5933 0,-2.1682 5.1747,-3.5608 16.6666,-4.4852 13.7372,-1.7084 178.82998,-3.8747 178.99478,4.8674 -0.2394,0.7183 -7.3111,1.5428 -15.715,1.8322 -45.2929,6.4463 -94.26268,0.2618 -137.61308,0.8419 z m 227.40758,35.0466 c 29.9838,-26.8057 70.1107,-49.9382 95.9258,-71.9838 1.2834,-1.1474 2.8857,-2.0861 3.5608,-2.0861 1.3141,0 2.9945,-6.1321 3.4712,-12.6667 0.1605,-2.2 0.66,-7 1.11,-10.6667 0.45,-3.6666 1.149,-10.2666 1.5535,-14.6666 0.4044,-4.4 0.9971,-8.9 1.3171,-10 0.32,-1.1 2.0965,-13.1 3.9478,-26.6667 1.8512,-13.5667 3.6474,-26.2916 3.9916,-28.2777 0.6252,-3.6079 0.6176,-3.6057 -8.9964,2.6042 -5.2922,3.4184 -10.8222,7.3334 -12.2889,8.7001 -1.4667,1.3666 -7.6398,5.8947 -13.7182,10.0624 -19.0002,13.4596 -38.3879,26.4161 -56.8952,40.5509 -2.1707,1.6647 -4.1173,2.8811 -4.3258,2.7032 -0.4532,-0.3869 -18.4346,12.9482 -22.7745,16.8896 -1.6759,1.522 -3.6535,2.7673 -4.3948,2.7673 -0.7544,0 -1.211,2.6413 -1.0371,6 0.1708,3.3 0.8692,6 1.5521,6 0.6828,0 3.185,-1.65 5.5605,-3.6667 6.0663,-7.4193 16.3697,-9.7845 22.5529,-16.8353 15.1038,-13.0343 33.3285,-23.0313 48.1468,-36.3801 1.4666,-1.3482 5.1479,-4.0642 8.1805,-6.0357 3.0326,-1.9714 8.9025,-6.3446 13.0442,-9.718 4.1417,-3.3735 8.0784,-5.7949 8.7481,-5.381 0.702,0.4339 0.444,2.9458 -0.6092,5.9308 -1.0048,2.848 -1.5246,5.4805 -1.1552,5.85 0.3695,0.3695 -2.5262,3.1483 -6.435,6.1752 -3.9087,3.0269 -8.3068,6.5823 -9.7734,7.901 -1.4667,1.3186 -5.3667,4.1312 -8.6667,6.2502 -3.3,2.1189 -7.4016,5.302 -9.1146,7.0734 -13.7814,15.7676 -47.3999,32.7289 -57.5521,47.0929 0,0.5921 -0.9,1.0766 -2,1.0766 -1.1,0 -2.0017,0.45 -2.0038,1 0,0.55 -1.8004,2.2 -3.9962,3.6667 -3.7037,2.4739 -3.9895,3.2449 -3.954,10.6667 0.038,8 0.038,8 3.2655,4.3333 1.775,-2.0167 3.8561,-3.6667 4.6246,-3.6667 0.7685,0 1.3973,-1.2354 1.3973,-2.7453 0,-1.7318 0.5669,-2.395 1.5356,-1.7963 21.0832,-11.2847 44.6478,-34.9669 62.4644,-47.9559 10.2157,-7.3504 14.0797,-10.2561 16.5413,-12.439 0.9943,-0.8817 2.1793,-1.2317 2.6333,-0.7778 0.4539,0.454 0.8254,0.2217 0.8254,-0.5161 0,-0.7378 1.5,-2.025 3.3333,-2.8603 3.0508,-1.3901 3.3333,-1.2479 3.3333,1.6769 0,4.5758 -1.3306,7.4138 -3.476,7.4138 -1.0215,0 -1.8573,0.8077 -1.8573,1.795 0,1.8254 -7.0808,8.4456 -18.0455,16.8717 -15.5383,12.5792 -31.1295,26.1235 -45.9545,38.0046 -9.0323,7.215 -13.78,11.1699 -19.7769,16.4747 -1.956,1.7302 -5.2296,4.5609 -7.2745,6.2904 -3.2193,2.7228 -3.8078,4.3576 -4.3874,12.1874 -1.0316,13.9351 -1.6356,20.9162 -1.936,22.3762 -0.1509,0.7334 -0.2033,3.0045 -0.1164,5.0469 0.1884,4.431 1.9389,3.7867 9.8988,-3.6436 z m -4.2548,-111.382 c 2.4827,-2.1883 4.9893,-3.9883 5.5703,-4 0.5809,-0.012 1.7809,-0.6192 2.6666,-1.3501 5.6422,-4.6555 18.1904,-13.3378 19.2767,-13.3378 10.8699,-8.8646 26.958,-17.9457 38.5458,-27.3334 4.0512,-3.3 7.9919,-6 8.7572,-6 0.7654,0 2.7817,-1.5 4.4808,-3.3333 1.6991,-1.8333 3.5679,-3.3359 4.1529,-3.3391 0.585,0 4.1426,-2.3402 7.9058,-5.1934 3.7632,-2.8532 7.9632,-5.544 9.3333,-5.9795 1.3702,-0.4356 4.0351,-2.2244 5.9221,-3.9753 1.887,-1.7508 4.587,-3.5743 6,-4.0522 4.9339,-1.6685 8.4059,-5.7937 10.6495,-12.6531 1.2433,-3.8011 1.9936,-7.1778 1.6675,-7.5039 -0.6988,-0.6989 -5.0616,2.4487 -11.1299,8.0298 -2.392,2.2 -5.9624,5.2 -7.9342,6.6667 -1.9718,1.4667 -5.0596,4.0167 -6.8617,5.6667 -1.8021,1.65 -3.5493,3 -3.8827,3 -0.3333,0 -1.7552,1.05 -3.1599,2.3333 -1.4046,1.2833 -6.3546,5.1557 -11,8.6052 -4.6453,3.4495 -11.3013,8.3995 -14.791,11 -3.4897,2.6005 -6.8662,4.7281 -7.5034,4.7281 -0.6372,0 -1.8978,0.8908 -2.8014,1.9795 -0.9035,1.0887 -4.277,3.2951 -7.4966,4.903 -8.727,5.5117 -16.4458,12.3961 -25.6077,17.1742 -3.1646,1.6336 -6.6803,4.384 -7.8125,6.112 -1.1322,1.728 -2.5056,2.8655 -3.052,2.5277 -0.5465,-0.3377 -2.9889,1.1675 -5.4277,3.3448 -2.4388,2.1774 -5.1179,3.9588 -5.9535,3.9588 -2.3383,0 -7.3337,6.3644 -7.3337,9.3435 0,3.6376 1.5285,3.3413 6.8194,-1.3222 z m 5.898,-26.2637 c 2.2279,-2.0667 4.3279,-3.8688 4.6666,-4.0048 0.3388,-0.136 1.816,-0.6919 3.2827,-1.2353 1.4667,-0.5434 5.0667,-2.9117 8,-5.2629 2.9333,-2.3512 8.4833,-6.1968 12.3333,-8.5458 3.85,-2.349 7,-4.8194 7,-5.4898 0,-0.6704 0.45,-1.0931 1,-0.9393 7.8851,-0.038 11.4568,-13.2627 19.3334,-13.6309 0.9166,-0.01 3.1666,-1.2223 5,-2.6943 1.8333,-1.472 6.6333,-5.0332 10.6666,-7.9137 10.1654,-7.2598 13.0189,-9.4916 17.4691,-13.6625 2.1254,-1.992 3.8842,-3.192 3.9086,-2.6667 0.024,0.5253 1.0813,-0.2449 2.3486,-1.7116 1.2673,-1.4666 5.2973,-5.0191 8.9556,-7.8944 9.6215,-7.5621 9.6218,-7.5625 5.2765,-6.7365 -2.1771,0.4138 -7.2584,0.8997 -11.2917,1.0797 -6.8377,0.3052 -7.7388,0.7534 -13.3333,6.6311 -3.3,3.4671 -8.6384,8.8425 -11.8631,11.9453 -3.2247,3.1028 -10.7258,10.4415 -16.6691,16.3082 -9.4152,9.2939 -31.7916,26 -34.8247,26 -0.582,0 -2.9147,1.4134 -5.1839,3.1409 -2.2693,1.7275 -6.8259,4.4974 -10.1259,6.1554 -3.3,1.6579 -7.0073,3.8988 -8.2384,4.9797 -1.2311,1.081 -6.3311,4.0312 -11.3333,6.556 -9.095,4.5905 -9.095,4.5905 -2.805,4.2803 3.4595,-0.1706 6.6884,0.088 7.1753,0.5751 1.151,1.151 4.219,-0.5943 9.2521,-5.2632 z m -237.05078,2.0118 c 0.9167,-0.1176 1.6667,-0.5682 1.6667,-1.0014 0,-0.9114 109.69648,-0.7952 111.47948,0.1181 103.3023,3.158 105.7151,-19.4242 178.5222,-102.0234 3.3925,-2.8255 5.9099,-5.3956 5.5943,-5.7112 -0.3156,-0.3156 -3.2038,0.3005 -6.4182,1.3692 -6.8043,2.2621 -17.2537,5.2879 -19.1777,5.5532 -0.7334,0.1011 -2.2334,0.5249 -3.3334,0.9417 -73.5522,16.2525 -103.9543,21.2249 -220.00008,17.5032 -6.9666,-0.5029 -14.1026,-0.999 -15.8577,-1.1023 -2.3419,-0.1379 -4.5594,1.5432 -8.3333,6.3175 -2.8283,3.578 -5.1423,7.2763 -5.1423,8.2183 -28.0073,31.6892 -48.0902,50.1423 -78.6394,68.4658 -4.6394,2.7729 -4.6394,2.7729 26.6667,2.169 17.2183,-0.3321 32.056,-0.7 32.9727,-0.8177 z m 247.28648,-31.1027 c 2.698,-1.8333 5.4324,-3.3333 6.0765,-3.3333 4.5655,0 54.9704,-47.4006 54.9704,-51.694 0,-0.5539 1.3353,-1.5993 2.9673,-2.3232 1.632,-0.7239 4.3345,-3.4162 6.0055,-5.9828 1.6711,-2.5667 5.4358,-7.3665 8.3661,-10.6662 2.9303,-3.2997 5.3278,-6.6567 5.3278,-7.46 0,-0.8033 1.1771,-2.5258 2.6157,-3.8277 1.4387,-1.302 3.8997,-4.845 5.4689,-7.8734 2.8532,-5.5061 2.8532,-5.5061 -0.6157,-2.2737 -1.9079,1.7779 -3.5118,3.8779 -3.5641,4.6667 -0.08,1.2056 -12.2123,12.4803 -25.2381,23.4543 -1.8334,1.5445 -4.6879,3.9719 -6.3435,5.3941 -1.6556,1.4222 -3.4556,2.5974 -4,2.6114 -1.8405,0.048 -10.9899,8.7439 -10.9899,10.4456 -21.9153,27.4486 -49.3934,52.1223 -47.2276,52.1955 0.7014,0 3.4827,-1.5 6.1807,-3.3333 z" fill="#00B894" transform="translate(-200.98808,-241.8849) matrix(0.26458333,0,0,0.26458333,-7.4392308,-437.57232)"/>
</svg>