<?xml version="1.0" ?><svg height="122.80821mm" viewBox="0 0 98.261017 122.80821" width="98.261017mm" xmlns="http://www.w3.org/2000/svg">
    <path color="#000" d="m 2578.5285,2086.1989 281.7027,3.7559 27.7387,33.8337 -21.7395,363.3515 -238.0562,-0.6259 -2.7822,39.202 c -11.3351,-37.5522 -26.4593,-10.8815 -40.3426,-5.2425 l 6.6947,-39.5151 -53.2974,-16.0408 c 0,0 -0.7825,-350.5496 40.0818,-378.7188 z" fill="#FFFFFF" overflow="visible" paint-order="fill markers stroke" transform="translate(-76.968032,95.251605) matrix(0.26458333,0,0,0.26458333,-590.99079,-643.45795)"/>
    <path d="m 2610.779,2516.4989 c -8.4179,-1.2892 -12.5093,14.2911 -22.6916,14.4209 -6.271,0 -7.9751,-1.9516 -7.9751,-9.1336 0,-6.3715 3.146,-24.7121 5.4832,-31.9663 1.678,-5.208 0.7225,-6.753 -2.8114,-4.5461 -3.8248,2.3887 -18.3401,1.7439 -24.6055,-1.0931 -2.9698,-1.3446 -6.9118,-2.7553 -8.76,-3.1348 -4.5295,-0.9298 -15.6775,-8.4357 -18.1628,-12.2286 -5.9613,-9.0982 -8.129,-36.0596 -5.7231,-71.1811 3.0036,-90.6533 12.5365,-135.4144 20.2756,-224.1322 0.9991,-23.9716 3.0955,-58.3005 13.2533,-76 6.9589,-12.7819 22.908,-18.4492 24.2889,-21.6671 7.5417,-6.4685 29.3475,-3.1692 41.5631,-1.9158 74.4306,5.3501 140.8427,-2.8842 202.1818,1.5969 8.1475,1.1435 16.7885,2.0482 23.5668,2.2695 12.8601,0.4028 14.1185,0.6868 17.6488,3.9847 2.0907,1.953 3.8013,4.789 3.8013,6.3024 4.3281,7.104 7.4086,3.5834 12.1624,10.4845 10.7988,13.2685 8.4792,22.9706 10.4499,24.3272 1.7361,1.0731 1.5837,15.7253 -0.1889,18.1525 -3.5653,11.8889 -4.6689,24.3025 -6.319,36.5477 -6.8155,82.611 -12.2376,154.5466 -11.097,229.4074 -0.546,0.4075 -1.2808,16.6688 -1.633,36.1362 -0.352,19.4674 -1.0562,36.534 -1.565,37.9258 -0.5087,1.3918 -2.6579,5.0879 -4.7758,8.2136 -3.8069,5.6182 -3.9374,5.6812 -11.4422,5.5254 -79.6244,0.815 -155.048,-2.6074 -220.2949,-4.3599 -0.6827,21.3004 -1.2257,27.8939 -2.867,34.8133 -3.85,22.0753 -22.7267,6.0705 -23.7628,-8.7494 z m 2.703,-21.3706 c 4.8288,0.285 5.5582,0.7638 6.2224,4.0847 1.5702,7.8515 2.889,4.6244 2.9723,-7.2731 -0.7927,-15.1276 4.2273,-27.6533 5.6749,-42.3537 l 0.4274,-4.6667 -11.3333,-0.7804 c -6.2334,-0.429 -12.1381,-1.029 -13.1216,-1.3333 -1.7814,15.8485 -7.6653,44.0473 -8.1957,61.4471 l -0.013,4.6666 c 5.3,-6.3709 9.591,-14.1987 17.3666,-13.7912 z m 238.6303,-16.4942 c 0.6122,-2.719 -12.0904,-1.8549 -26.8296,-1.6598 -18.7118,0.2476 -30.3646,-2.2836 -29.7024,1.5067 -0.4092,3.4843 9.3974,1.1785 29.4316,1.966 20.6518,0.8117 26.5031,0.8397 27.1004,-1.8129 z m 9.3334,0.2857 c 0,-0.7333 -0.6,-1.3333 -1.3334,-1.3333 -0.7333,0 -1.3333,0.6 -1.3333,1.3333 0,0.7333 0.6,1.3333 1.3333,1.3333 0.7334,0 1.3334,-0.6 1.3334,-1.3333 z m -75.7358,-1.1822 c -0.1297,-1.2544 -90.8069,-3.0226 -108.2642,-3.5178 -6.2334,-0.1768 -16.7334,-0.6627 -23.3334,-1.0796 -12.5668,-0.794 -18.8166,0.2512 -15.2448,2.5496 1.9018,1.2237 138.1206,4.6467 143.8424,3.7144 1.65,-0.2688 3.2982,1.2174 3,-1.6666 z m -198.6165,-3.7581 c 0,-0.69 -0.291,-4.303 -1.0244,-4.7562 -0.7333,-0.4532 -11.1478,-3.0893 -11.3228,1.2547 -0.1247,3.097 4.6164,3.9324 5.3497,3.9324 0.7334,0 6.9975,0.2592 6.9975,-0.4309 z m -23.5935,-6.024 c 0,-0.7272 -1.9708,-1.7682 -3.4985,-2.691 -14.2908,-15.0279 -13.1892,-46.4339 -0.163,-59.6217 l 4.4467,-4.723 c 3.8581,-3.9 181.8803,4.4405 261.4934,9.5307 l 10.3333,0.7354 0.057,-5.133 c 0.032,-2.8232 0.6385,-15.0331 1.3489,-27.1331 2.1632,-39.7747 2.9563,-80.615 4.7028,-119.3333 1.9495,-32.7284 4.2875,-61.7436 5.8395,-86.8179 0.7306,-11.8164 1.6041,-22.3164 1.941,-23.3333 0.3368,-1.0167 0.9479,-7.3826 1.3579,-14.1463 1.074,-17.7194 2.1065,-29.9366 2.8133,-33.2874 0.7918,-3.7537 -0.069,-4.2038 -9.5636,-4.9982 -4.3342,-0.3627 -21.3693,-1.9115 -37.8556,-3.4419 -75.5245,-5.1914 -142.0122,-0.2645 -205.5184,-4.9885 -10.3272,-0.9306 -10.8915,1.8421 -18.1353,7.9562 -12.4138,10.4776 -17.6902,31.1008 -18.8409,73.642 -5.806,133.8318 -27.3143,196.6453 -18.735,277.7903 0.063,16.2952 15.127,29.8793 17.9765,19.994 z m -2.4463,-92.7024 c 9.3372,-83.4988 15.6162,-192.0071 25.1321,-267.8375 1.8937,-4.9808 7.208,-6.7814 11.573,-3.9213 5.3101,4.8124 1.4288,16.2589 1.103,24.4271 -16.9212,80.9255 -18.952,138.6077 -24.7724,214.3317 -3.721,41.025 -4.4777,44.6667 -9.2807,44.6667 -2.7988,0 -3.0275,-0.7107 -3.755,-11.6667 z m 280.6063,87.6502 c 1.4224,-0.146 0.027,-5.0103 -1.4477,-5.9218 -0.6784,-0.4193 -7.1284,-0.081 -14.3333,0.7504 -50.6187,1.8995 -88.3737,0.2718 -131.4332,-0.037 -9.9745,0.2331 -53.9825,-5.4394 -54.313,0.2251 -0.6352,4.0874 6.0249,2.9069 13.9083,3.0114 61.3804,1.0695 130.9421,6.402 187.6189,1.9721 z m 19.6307,-18.3168 c -0.8897,-56.507 2.8803,-124.3719 4.8623,-174.3334 4.6408,-55.6929 12.6979,-107.7231 9.123,-154.8371 -1.9597,-4.6644 -2.2705,-4.8914 -3.2202,-2.3522 -0.5782,1.5457 -1.4303,10.5457 -1.8935,20 -0.4632,9.4541 -1.4204,24.6893 -2.1271,33.856 -5.9492,67.9058 -7.0003,123.3811 -10.7913,189.3333 -0.7953,13.5667 -1.5391,34.3688 -1.6527,46.2268 -0.179,18.6786 -0.5264,21.9135 -2.5982,24.2028 -7.5828,8.0865 -2.6187,36.0316 6.274,36.2371 1.8228,0 2.0958,-2.4757 2.023,-18.3333 z m -269.8882,10.7986 c 0.01,-3.9619 -5.5333,-2.3736 -8.4248,-3.0218 -4.9309,-1.1055 -8.5463,0.4934 -8.3693,4.7117 0.4531,3.6653 17.7381,8.8478 16.7941,-1.6899 z m -25.9249,-14.132 c 0.017,-6.7833 0.5543,-14.5833 1.1929,-17.3333 1.0146,-4.3693 0.8555,-5 -1.2618,-5 -3.161,0 -5.7092,7.6436 -5.7785,17.3333 -0.055,7.7019 2.4931,17.3334 4.5856,17.3334 0.6765,0 1.2443,-5.55 1.2618,-12.3334 z m 272.5157,7.3216 c -0.9634,-2.7571 -74.4769,-0.524 -75.9869,-0.524 -1.5099,0 -116.7743,-6.3029 -117.4977,-2.6087 -0.9359,4.7795 62.8401,5.7158 121.5305,7.9062 78.9079,2.9449 74.1316,-1.0047 71.9541,-4.7735 z m -247.2142,-3.6549 c 0,-3.1515 -0.4,-3.3333 -7.3333,-3.3333 -5.6297,0 -7.3334,0.4646 -7.3334,2 0,1.4776 1.5468,2 5.9213,2 5.9091,-0.3556 9.2224,2.2881 8.7454,-0.6667 z m 72.5019,-9.3936 c 3.2207,-1.9906 -0.5543,-2.6858 -9.633,-1.7739 -5.1768,0.5199 -9.4123,1.5232 -9.4123,2.2296 0,1.4453 16.6127,1.0477 19.0453,-0.4557 z m 36.6214,-1.0443 c 0,0 8.4181,1.8833 9.6666,-1.4439 0,-1.221 -7.1627,-1.651 -41,-0.057 -1.6494,0.078 -3,0.6992 -3,1.4152 0,0.7945 4.804,1.0757 12.3334,0.7216 6.7833,-0.3189 16.6833,-0.6047 22,-0.6349 z m 137.1651,3.5748 c 0.2811,-0.8445 -0.8639,-1.5582 -2.5563,-1.5934 -18.1674,-0.3786 -22.9029,-0.4298 -30.3321,-0.328 -11.4925,0.1574 -8.9899,2.5146 3.2667,3.0768 18.2242,0.8357 29.1002,0.4114 29.6217,-1.1554 z m -42.9551,-0.4702 c 0.4914,-0.7951 -1.1234,-1.3334 -4,-1.3334 -2.8765,0 -4.4913,0.5383 -4,1.3334 0.4532,0.7333 2.2532,1.3333 4,1.3333 1.7468,0 3.5468,-0.6 4,-1.3333 z m -211.3333,-5.9794 c 0,-0.9318 -0.8496,-2.3992 -1.8879,-3.2609 -1.5074,-1.2511 -2.0621,-1.0176 -2.7527,1.1581 -0.4757,1.4987 -0.5069,3.3042 -0.07,4.012 1.0601,1.7154 4.7101,0.2358 4.7101,-1.9092 z m 21.3333,-3.354 c 0,-0.7333 -0.9,-1.3333 -2,-1.3333 -1.1,0 -2,0.6 -2,1.3333 0,0.7334 0.9,1.3334 2,1.3334 1.1,0 2,-0.6 2,-1.3334 z m 16,-10.2264 c 4.416,-0.7557 4.4876,-0.8493 1.3334,-1.7412 -1.8334,-0.5184 -10.2124,-1.0041 -18.6202,-1.0793 -14.2997,-0.128 -18.7132,0.7756 -18.7132,3.8316 0,1.1692 27.8277,0.3877 36,-1.0111 z" fill="#00B894" transform="translate(-76.968032,95.251605) matrix(0.26458333,0,0,0.26458333,-590.99079,-643.45795)"/>
</svg>