<?xml version="1.0" ?><svg height="178.74237mm" viewBox="0 0 155.54671 178.74237" width="155.54671mm" xmlns="http://www.w3.org/2000/svg">
    <path color="#000" d="m 931.12252,3140.2858 -104.2402,37.2207 c 93,106.6967 245.59568,98.7754 245.59568,98.7754 l 79.2149,-57.834 c -95.2555,-0.6732 -162.09858,-34.5295 -220.57038,-78.1621 z m 354.82228,7.8262 c -73.8104,99.7156 -158.4812,136.6674 -244.8554,163.7675 l -27.8888,65.7539 -121.63278,-6.4902 -132.9785,65.9473 130.4336,27.58 -80.2734,56.5938 c 85.3322,50.0304 167.5063,103.9873 293.63278,103.2598 l 119.7227,-94.1934 c -79.7321,-14.4713 -165.3805,-11.6349 -234.88478,-56.0215 l 168.39648,-28.1523 101.8008,-94.3867 -112.7227,9.5449 c 59.166,-37.6056 122.8741,-65.4699 173.2735,-121.8711 z m -107.0703,474.3515 c -24.641,59.9646 -50.1844,118.8466 -131.4941,110.8946 32.0251,42.6595 84.3047,71.7675 84.3047,71.7675 139.441,-32.2457 144.6251,-93.9163 138.1738,-158.1367 -46.0968,7.5091 -64.9434,-12.0851 -90.9844,-24.5254 z" fill="#FFFFFF" overflow="visible" paint-order="fill markers stroke" transform="translate(241.70145,123.21868) matrix(0.26458333,0,0,0.26458333,-436.60121,-952.46111)"/>
    <path d="m 1123.0353,3808.877 c -1.4797,-0.6528 -3.4703,-2.6441 -4.4235,-4.4253 -1.0586,-1.978 -6.1536,-5.4307 -13.0906,-8.8711 -6.2466,-3.098 -15.5584,-8.4616 -20.693,-11.9191 -17.2587,-10.5819 -64.8203,-51.0593 -47.7908,-52.5369 2.3218,-1.8801 5.3371,-2.4161 13.5904,-2.4161 18.9087,2.2035 37.9543,-2.6778 55.098,-10.519 11.882,-5.6334 29.9154,-23.8406 41.7453,-42.1477 5.2126,-8.0667 9.9714,-15.2667 10.5751,-16 0.6036,-0.7333 2.5785,-3.7305 4.3886,-6.6605 6.7193,-10.8767 8.0487,-15.4455 8.711,-29.9364 1.8248,-12.9174 8.2171,-3.7412 14.2706,-3.4079 1.202,0 2.9634,0.9435 3.9141,2.0907 0.9507,1.1473 7.7286,4.3494 15.0619,7.1158 18.7172,7.061 19.4961,7.3212 24.2648,8.1083 2.3457,0.3872 5.6457,1.2175 7.3334,1.8453 4.822,1.7936 21.0825,1.6174 28.4088,-0.308 4.4848,-1.1785 7.858,-1.3484 10.3291,-0.52 4.1103,1.3779 5.9553,6.0579 3.9012,9.896 -1.2343,2.3063 -0.9363,7.8094 0.674,12.4434 0.3822,1.1 0.9911,8.1164 1.3531,15.5921 0.7856,16.2244 -1.904,31.3139 -7.9099,44.3771 -9.7839,21.2808 -41.8862,55.9246 -61.6878,66.5716 -9.8024,5.7311 -19.1235,10.1369 -28.2953,14.3342 -4.2376,1.948 -8.1159,3.461 -8.6185,3.3622 -0.5026,-0.099 -3.5026,0.7445 -6.6667,1.8742 -6.6469,2.3732 -40.2058,3.9266 -44.4433,2.0571 z m 46.0772,-18.8169 c 10.8436,-3.4814 32.8972,-14.1931 37.3849,-18.1583 19.4201,-11.8731 36.4267,-31.1849 48.7292,-49.3496 11.3842,-17.1336 14.1089,-30.7703 12.4175,-62.1496 -0.328,-6.0851 -0.4608,-6.2729 -3.7958,-5.3667 -1.9007,0.5166 -9.2031,0.9014 -16.2274,0.8552 -12.3114,-0.081 -19.5147,-1.6206 -31.43,-6.7184 -2.3108,-0.9886 -4.6769,-1.7976 -5.2579,-1.7976 -2.1868,0 -21.3289,-9.8034 -24.1724,-12.3796 -3.3149,-3.0033 -3.7838,-2.4453 -4.8011,5.713 -0.8046,6.4532 -4.5639,15.5388 -9.3785,22.6666 -2.2291,3.3 -8.2834,12.3236 -13.454,20.0526 -12.7089,18.9968 -18.4485,25.9304 -28.8128,34.8065 -11.5696,9.9083 -26.8105,17.3184 -39.6345,19.2703 -14.697,3.7983 -37.665,-0.9057 -33.851,4.1462 0.9473,0 17.5637,18.2198 17.5637,18.8251 0,1.2787 19.0288,13.566 21.009,13.566 0.7322,0 2.0222,0.8325 2.8667,1.8501 2.6318,3.1712 18.9491,10.4124 30.6362,13.5956 6.1482,1.6746 11.8432,3.7094 12.6557,4.5219 2.1162,2.1161 13.9372,0.4219 27.5525,-3.9493 z m -22.9179,-8.4363 c -14.9339,-13.5549 -41.8968,-14.0929 -56.8022,-27.1535 -2.1926,-2.0673 -2.0732,-3.1564 0.748,-6.8228 2.3554,-3.0609 2.3554,-3.0609 7.9616,-0.5509 8.2508,4.5137 11.5278,7.8462 25.6238,12.3359 5.4142,1.895 7.2054,2.6893 12.6666,5.6161 2.2,1.1789 6.8522,3.4923 10.3383,5.1405 7.8576,3.7154 11.9421,7.4136 11.3836,10.3072 -0.4807,2.4902 -6.721,3.0804 -11.9197,1.1275 z m 8.5948,-12.1849 c -6.0149,-1.6307 -11.7149,-3.5778 -12.6666,-4.327 -0.9517,-0.749 -4.7304,-2.4618 -8.397,-3.8061 -7.5876,-2.7819 -16.6667,-8.088 -16.6667,-9.7408 0,-1.4619 4.5235,-5.5232 6.1518,-5.5232 0.7014,0 5.7541,1.5232 11.2284,3.3851 5.4742,1.8617 10.5531,3.5469 11.2865,3.7446 0.7333,0.1979 4.6912,1.9747 8.7953,3.9484 4.1041,1.9738 8.0623,3.5886 8.796,3.5886 2.9253,0 7.2737,5.2293 6.8461,8.233 -0.5688,3.9959 -2.2658,4.0508 -15.3738,0.4974 z m 41.5174,-8.6827 c -7.6389,-0.9123 -14.6942,-5.5408 -21.2477,-8.0445 -4.4,-1.6646 -9.2,-3.536 -10.6667,-4.1588 -1.4666,-0.6227 -9.5666,-3.6174 -18,-6.6546 -8.4333,-3.0373 -16.0833,-6.1209 -17,-6.8526 -0.9166,-0.7318 -1.6666,-3.0215 -1.6666,-5.0884 0,-5.198 4.6148,-7.774 9.3688,-5.2298 1.2203,0.653 3.6615,1.4811 5.4249,1.8402 5.4069,1.1008 12.0504,3.3008 13.6688,4.5262 0.8456,0.6403 5.4375,2.518 10.2041,4.1727 12.0881,4.196 16,5.9321 16,7.1007 0,0.5544 0.75,0.9909 1.6667,0.9702 0.9167,-0.021 5.3892,1.9292 9.9389,4.3334 5.6047,2.9613 8.5255,5.3794 9.0574,7.4985 1.2565,5.0051 -3.4413,8.8941 -6.7486,5.5868 z m 23.9246,-30.0348 c -4.4886,-0.9764 -9.2886,-2.3809 -10.6667,-3.1213 -1.3781,-0.7404 -6.7056,-3.0319 -11.8389,-5.0922 -12.6931,-5.0942 -23.9167,-11.4921 -24.3005,-13.852 -0.1742,-1.071 0.876,-3.3686 2.3337,-5.1057 2.4137,-2.8761 3.0368,-3.0144 6.9753,-1.5483 2.3786,0.8855 5.8248,2.3794 7.6581,3.3196 1.8334,0.9404 5.7334,2.4652 8.6667,3.3888 2.9333,0.9235 6.057,2.2524 6.9416,2.9534 7.2864,0.01 13.1615,7.3445 21.0212,7.7114 5.7029,0 9.5933,7.9106 5.7705,11.7334 -1.8974,1.8974 -2.0841,1.8917 -12.561,-0.3871 z m 20.8392,-15.3109 c -1.0937,-0.6915 -5.1437,-1.6515 -9,-2.1332 -12.5268,-1.2893 -25.8737,-11.7241 -36.3448,-14.5688 -5.0458,-1.1083 -6.9721,-3.6523 -5.9249,-7.8247 1.7088,-6.8083 6.6706,-6.1784 30.5915,3.8839 7.0627,2.1134 17.107,7.2186 23.1907,7.2741 4.09,0 5.476,1.9079 5.476,7.5376 0,3.2331 -2.7024,7.1497 -4.9048,7.1087 -0.6023,-0.013 -1.99,-0.5862 -3.0837,-1.2776 z m -17.3448,-33.2836 c -14.2517,-3.5691 -39.9783,-13.5531 -41.3034,-16.0291 -3.4713,-6.4863 3.2524,-11.7299 10.713,-8.3545 4.1707,1.8868 9.2756,3.5961 20.5904,6.894 2.2,0.6413 9.1,2.707 15.3333,4.5905 6.2333,1.8836 14.4479,3.4373 18.2546,3.4527 7.7629,0.032 8.9863,1.0106 7.1843,5.7502 -0.9877,2.598 -2.583,3.5016 -7.6762,4.3486 -10.4351,1.7352 -13.9595,1.6356 -23.096,-0.6524 z m -130.9803,-50.1324 c -0.1942,-0.1699 -5.7531,-0.6118 -12.3531,-0.9819 -6.6,-0.3701 -16.5,-1.5891 -22,-2.7087 -5.5,-1.1196 -12.4,-2.49 -15.3333,-3.0454 -5.7653,-1.0918 -5.7097,-1.0775 -8.6667,-2.2192 -1.1,-0.4247 -5.3,-1.1672 -9.3333,-1.6499 -26.07258,-4.706 -143.45398,-30.022 -183.99998,-63.5012 -0.3667,-0.4512 -1.8721,-1.1957 -3.3453,-1.6545 -1.4733,-0.4588 -5.8756,-2.9398 -9.7831,-5.5131 -3.9074,-2.5733 -7.5035,-4.6788 -7.9912,-4.6788 -0.4878,0 -4.1854,-3.6477 -8.217,-8.1061 -4.0315,-4.4584 -8.7271,-8.6615 -10.4346,-9.34 -2.6788,-1.0648 -2.9754,-1.8272 -2.1629,-5.5606 22.43,-16.0149 45.8649,-29.8414 72.954,-44.3073 8.9916,-4.7416 13.5037,1.9845 6.7309,10.0336 -4.094,4.8655 -31.3715,23.1845 -47.0842,31.6209 -5.5,2.9531 -10,6.145 -10,7.0931 0,1.7071 6.4044,6.0629 18,12.2425 3.3,1.7587 8.7,4.7279 12,6.5983 11.9771,6.7885 16.6673,9.0589 18.7136,9.0589 1.1476,0 2.7831,0.6967 3.6346,1.5482 0.8514,0.8514 3.167,1.7206 5.1457,1.9317 1.9787,0.2109 3.9521,0.8652 4.3852,1.454 1.4345,1.9496 7.7102,4.6563 11.2752,4.8628 1.9308,0.112 3.5109,0.6865 3.5115,1.2771 5e-4,0.5906 3.4509,2.6069 7.6676,4.4808 4.2166,1.8738 10.1061,4.5406 13.0876,5.9262 2.9815,1.3856 5.9815,2.5176 6.6667,2.5155 0.6851,0 3.6457,1.1409 6.579,2.54 9.5597,4.5595 20.544,8.3636 21.8389,7.5633 0.6967,-0.4305 1.4838,-0.132 1.7491,0.6646 0.2654,0.796 4.0666,2.3364 8.4473,3.4229 17.1631,4.2573 29.9054,6.9893 32.2137,6.9069 1.3297,-0.048 6.31768,0.9262 11.08428,2.1634 4.7667,1.2373 10.7667,2.4542 13.3334,2.7044 3.992,0.389 8.5284,1.3006 27.3333,5.4921 1.4667,0.3269 4.7667,0.9185 7.3334,1.3147 2.5666,0.3961 5.7337,1.031 7.0379,1.411 2.4424,0.7116 7.9576,1.594 14.9621,2.394 2.2,0.2512 7.1397,0.9008 10.9771,1.4436 5.7716,0.8164 7.1187,0.6179 7.7967,-1.149 0.9527,-2.4826 7.8328,-6.2015 11.4729,-6.2015 1.377,0 2.849,-0.9 3.2711,-2 0.4221,-1.1 1.5103,-2 2.4182,-2 0.9078,0 2.7366,-1.2 4.064,-2.6667 1.3273,-1.4666 3.2754,-2.6666 4.3291,-2.6666 1.0536,0 3.5107,-1.2408 5.46,-2.7575 1.9493,-1.5167 8.6442,-6.4065 14.8775,-10.8664 6.2334,-4.4599 11.6334,-8.4772 12,-8.9272 0.3667,-0.45 3.8167,-3.1833 7.6667,-6.0741 3.85,-2.891 7,-5.7328 7,-6.3155 0,-0.5827 0.563,-1.0593 1.251,-1.0593 0.6881,0 3.2218,-1.8 5.6305,-4 2.4087,-2.2 5.1118,-4 6.0069,-4 0.8951,0 2.6427,-1.7187 3.8836,-3.8194 1.2409,-2.1005 3.9885,-4.8425 6.1058,-6.0933 3.8192,-2.256 8.6826,-8.3047 7.5711,-9.4163 -0.3184,-0.3184 -7.4497,-0.906 -15.8473,-1.3058 -8.3975,-0.3998 -18.8683,-1.3547 -23.2683,-2.122 -4.4,-0.7674 -12.128,-1.9544 -17.1734,-2.6378 -5.0454,-0.6834 -11.3454,-1.8458 -14,-2.5832 -2.6546,-0.7374 -6.884,-1.3441 -9.3986,-1.3481 -2.5146,0 -6.4146,-0.5825 -8.6666,-1.2855 -6.7474,-2.106 -22.3109,-5.7214 -29.428,-6.8362 -5.6165,-0.8798 -23.6785,-4.8908 -33.3334,-7.4024 -1.4666,-0.3816 -3.8666,-0.8839 -5.3333,-1.1163 -8.6162,-1.3649 -34.3325,-11.3153 -36.6667,-14.1873 -0.3667,-0.4512 -1.9797,-1.2299 -3.5845,-1.7306 -1.6049,-0.5005 -4.72018,-2.9628 -6.92288,-5.4716 -3.3226,-3.7841 -3.8771,-5.3498 -3.2542,-9.1884 0.7509,-4.627 0.7509,-4.627 -35.0771,-4.7042 -33.883,-0.073 -42.3041,-0.3347 -67.828,-2.1076 -5.8666,-0.4076 -11.5666,-0.759 -12.6666,-0.781 -1.1,-0.023 -4.7,-0.6146 -8,-1.317 -3.3,-0.7024 -8.8161,-1.5063 -12.258,-1.7863 -3.4419,-0.2801 -6.8088,-0.8496 -7.4819,-1.2656 -1.3081,-0.8085 -23.5983,-4.9052 -30.2601,-5.5615 -2.2,-0.2168 -4,-0.4861 -4,-0.5986 0,-0.3396 -4.9438,-1.1707 -12,-2.0175 -3.6667,-0.44 -8.7667,-1.766 -11.3334,-2.9465 -2.5666,-1.1806 -6.3166,-2.1468 -8.3333,-2.1471 -2.0167,-4e-4 -3.6667,-0.5007 -3.6667,-1.1119 0,-0.611 -1.1502,-1.111 -2.5561,-1.111 -1.4059,0 -5.4559,-1.2454 -9,-2.7674 -11.6317,-4.995 -20.9462,-7.8993 -25.335,-7.8993 -3.8458,0 -4.4659,-0.5399 -5.6827,-4.9467 -1.7723,-6.4188 1.1688,-11.8065 5.6871,-10.418 12.8907,3.9616 11.8793,4.0564 27.8472,-2.6068 8.2717,-3.4516 15.6095,-6.8201 16.3062,-7.4854 0.6967,-0.6654 2.2825,-1.2098 3.524,-1.2098 1.2416,0 2.6173,-0.938 3.0573,-2.0845 0.4399,-1.1464 1.4102,-1.7073 2.1561,-1.2463 0.7459,0.461 11.8325,-4.3092 24.637,-10.6002 12.8044,-6.2912 24.6483,-12.0304 26.3198,-12.7538 7.5665,-3.2747 39.104,-20.4535 40.334,-21.9704 2.1188,-2.6128 8.6722,-3.6986 10.9439,-1.8133 1.091,0.9055 2.9836,1.7685 4.2058,1.9178 1.2222,0.1493 5.2221,0.8873 8.8888,1.6401 6.3196,1.2974 39.7563,3.418 52.6666,3.3402 11.6675,-0.07 42.46928,-2.1508 43.69488,-2.9512 1.5566,-1.0167 12.3051,-23.6029 12.3051,-25.8572 0,-0.9134 1.2009,-3.9013 2.6688,-6.6398 1.4677,-2.7386 2.7441,-5.4297 2.8364,-5.9803 0.2406,-1.436 0.6308,-2.6938 3.7246,-12.0064 1.5237,-4.5862 2.7703,-9.4871 2.7703,-10.8909 0,-5.2191 1.4991,-6.7704 6.5426,-6.7704 2.7082,0 5.6509,0.7269 6.5394,1.6153 35.5394,0.942 51.7518,-13.1779 74.2513,-24.5711 5.1333,-2.5885 11.7482,-6.1324 14.6998,-7.8753 2.9515,-1.7429 8.8015,-5.1762 13,-7.6295 4.787,-5.6128 10.8799,-6.6939 15.5023,-9.9681 40.1237,-26.0164 79.0321,-62.3956 104.3984,-100.5324 5.7595,-8.8678 8.1964,-10.4013 14.3723,-9.0449 10.1057,2.2196 18.1244,8.3552 23.5321,18.006 5.337,9.5247 12.4993,32.9257 15.2058,49.6812 0.9563,5.9205 1.4375,4.8234 3.1471,10.1754 3.3228,18.7943 2.9281,16.9146 -15.4446,38.184 -18.6712,20.3816 -34.0146,34.6335 -44.6583,41.4815 -29.4907,23.9758 -71.0978,39.1665 -98.2359,53.8109 -0.6313,0.6026 1.1687,0.8662 4,0.5857 2.8312,-0.2806 9.9477,-0.8852 15.8143,-1.3437 5.8667,-0.4584 11.2667,-1.2952 12,-1.8594 0.7334,-0.5643 4.8699,-1.1242 9.1924,-1.2443 4.3225,-0.1201 8.2513,-0.4608 8.7307,-0.7571 0.4794,-0.2963 6.5429,-1.5163 13.4743,-2.7112 6.9315,-1.1948 13.8026,-2.9126 15.2693,-3.8174 3.6563,-2.2554 11.5451,-2.5462 14.125,-0.5207 2.6627,2.0905 4.5117,11.1175 2.5283,12.3433 -8.9932,16.1543 -25.7699,33.1188 -39.6067,47.0834 -8.2756,8.3005 -15.0466,15.6065 -15.0466,16.2356 0,0.6292 -0.8247,1.3378 -1.8328,1.575 -2.2805,0.5364 -12.2663,9.1388 -26.9647,23.2292 -11.6444,11.1628 -14.6992,12.7683 -28.9889,15.2351 -3.7841,0.6532 -8.0803,1.4464 -9.5469,1.7627 -1.4667,0.3164 -5.6667,0.9512 -9.3334,1.4106 -14.3555,4.9072 -31.2759,3.9543 -44.3963,6.0254 -19.7138,4.1343 -40.6332,4.6414 -58.2703,6.0604 -8.8001,0.7933 -18.5501,1.4217 -21.6667,1.3961 -3.1167,-0.025 -5.66668,0.3684 -5.66668,0.8753 0,1.1998 7.35708,6.4367 9.04258,6.4367 0.7136,0 2.0611,0.92 2.9943,2.0444 0.9331,1.1244 2.3512,1.8263 3.1513,1.5595 0.8001,-0.2667 2.2526,0.313 3.2278,1.2884 0.9753,0.9752 4.0936,2.1441 6.9297,2.5977 2.836,0.4535 5.4501,1.5897 5.809,2.5252 0.3734,0.9731 4.2586,2.1101 9.0823,2.6579 4.6363,0.5265 9.0297,1.3844 9.763,1.9065 0.7334,0.522 5.5334,1.722 10.6667,2.6665 17.1254,5.6907 34.3129,5.3081 49.9518,10.995 1.8068,0.6837 8.7068,2.0876 15.3333,3.1197 6.6265,1.0323 15.721,2.4989 20.2099,3.2595 11.4403,1.9381 30.1445,4.0573 41.1717,4.6649 5.1333,0.2828 14.5602,0.8393 20.9487,1.2367 3.83,0.9461 18.1851,-2.3806 18.3846,-0.5223 0,0.7333 1.1016,1.3333 2.4481,1.3333 1.9126,0 2.4917,1.1127 2.6474,5.0871 0.184,4.6953 -0.5593,5.7991 -9.6521,14.3333 -5.4183,5.0855 -12.4262,11.3463 -15.5731,13.913 -3.147,2.5666 -6.6761,5.5666 -7.8426,6.6666 -1.1664,1.1 -5.9999,5.2828 -10.7409,9.2951 -8.0542,8.0446 -17.4612,14.504 -24.4428,20.8909 -3.8153,3.5378 -16.5454,12.4807 -17.7661,12.4807 -0.3597,0 -4.0494,2.3311 -8.1993,5.18 -4.1499,2.8491 -10.0617,6.2497 -13.1374,7.5571 -3.0756,1.3073 -5.5068,2.7262 -5.4025,3.1533 0.7177,2.9387 -2.3649,6.5599 -6.6967,7.8668 -4.576,1.3805 -17.1324,2.9159 -17.9556,2.1955 z m -87.5881,-171.8326 c 6.1087,-0.8077 16.3979,-1.6098 35.9017,-2.799 6.2333,-0.3802 14.3333,-1.256 18,-1.9466 3.6667,-0.6905 10.8667,-1.6561 16,-2.1457 5.1333,-0.4897 9.8724,-1.2069 10.5312,-1.5939 0.6588,-0.3869 4.2588,-0.8266 8,-0.9772 8.965,-0.3605 22.4584,-2.1144 24.1355,-3.1372 0.7333,-0.4472 3.4333,-0.8584 6,-0.9138 4.1875,-0.091 14.9642,-1.436 21.9487,-2.7404 1.4385,-0.2687 4.032,-2.2986 5.7633,-4.5107 1.7314,-2.2123 3.8795,-4.0223 4.7737,-4.0223 0.8941,0 4.3006,-2.7678 7.57,-6.1508 3.2694,-3.3829 9.5443,-9.1478 13.9443,-12.8109 19.8047,-16.488 42.1619,-38.274 50.5074,-49.2171 4.7121,-6.1788 4.7121,-6.1788 -0.8977,-4.8793 -3.0853,0.7147 -14.9097,2.2958 -26.2764,3.5135 -20.6667,2.2139 -20.6667,2.2139 -20.6667,7.343 0,4.7599 -0.9446,6.0243 -13.1283,17.573 -7.2206,6.8441 -15.3206,13.9665 -18,15.8273 -2.6794,1.8609 -6.74,5.0525 -9.0236,7.0924 -9.793,8.7481 -21.6122,17.2481 -30.6793,22.0636 -6.8311,3.628 -6.8311,3.628 -10.3417,0.8667 -2.2284,-1.753 -3.1422,-3.4 -2.5021,-4.5099 1.492,-2.5871 14.0641,-12.2321 17.2709,-13.2499 1.5254,-0.4841 4.2214,-2.211 5.991,-3.8376 1.7697,-1.6265 6.0856,-5.0573 9.5909,-7.624 7.8413,-5.7416 18.2804,-14.9604 31.3303,-27.6681 9.9285,-9.6681 9.9285,-9.6681 -0.022,-8.827 -10.1484,0.8579 -13.0305,-0.1399 -14.869,-5.1477 -0.4672,-1.2727 -1.7325,-1.0514 -5.1191,0.8951 -24.5444,14.1073 -56.1596,29.4583 -78.4984,38.1153 -9.9,3.8367 -19.8907,7.7986 -22.2015,8.8042 -2.3108,1.0054 -5.0408,1.8282 -6.0666,1.8282 -1.0259,0 -2.4352,0.558 -3.1319,1.24 -3.521,3.447 -30.5926,11.2183 -36.01398,10.3386 -3.105,-0.5039 -5.0758,0.013 -7.0449,1.8473 -1.6401,1.528 -3.0655,2.0103 -3.5629,1.2055 -0.456,-0.7379 -1.4804,-0.9391 -2.2764,-0.4471 -0.8671,0.536 -1.0633,0.2733 -0.4895,-0.6552 0.5268,-0.8523 -0.036,-2.5432 -1.2503,-3.7576 -3.1116,-3.1116 -1.7527,-8.2627 4.6781,-17.7324 2.948,-4.3411 5.3599,-8.2676 5.3599,-8.7257 0,-0.458 1.6979,-3.341 3.7731,-6.4064 6.72998,-9.9415 7.00718,-9.3459 -3.9202,-8.423 -23.1881,1.9585 -55.3214,0.9117 -80.1919,-2.6124 -14.339,-2.0318 -14.339,-2.0318 -20.6667,1.2786 -3.4802,1.8208 -12.9276,6.4226 -20.9943,10.2261 -8.0667,3.8036 -20.7229,9.85 -28.1249,13.4364 -7.402,3.5864 -14.452,6.5207 -15.6667,6.5207 -1.2146,0 -2.2084,0.4534 -2.2084,1.0078 0,0.5543 -1.95,1.8423 -4.3333,2.8623 -2.3834,1.02 -6.6961,2.9664 -9.5838,4.3255 -2.8878,1.359 -6.0195,2.471 -6.9595,2.471 -0.9399,0 -3.6772,1.1047 -6.0829,2.4548 -2.4056,1.3502 -6.6818,3.2159 -9.5027,4.146 -2.8209,0.9302 -6.7209,2.5218 -8.6667,3.537 -1.9458,1.0152 -4.4078,1.8496 -5.4711,1.854 -3.6041,0.016 0.8205,2.9728 5.2126,3.4841 2.2846,0.266 5.1813,1.0211 6.4372,1.6779 2.5063,1.3108 14.6377,4.1716 20.9502,4.9404 2.2,0.2678 6.1,1.0522 8.6667,1.7429 4.5929,1.2359 16.2552,3.3233 30.6666,5.4891 4.0334,0.6061 9.1334,1.7066 11.3334,2.4457 4.1491,1.3937 23.6701,3.4303 30.6666,3.1993 2.2,-0.072 4.9,0.1882 6,0.5795 1.1,0.3915 14.3,1.0153 29.3334,1.3864 15.0333,0.3712 27.5706,0.8995 27.8606,1.174 0.7744,0.7329 49.3255,-0.4103 56.23768,-1.3243 z m -95.09828,-9.7418 c -2.0167,-0.3055 -3.6667,-1.2979 -3.6667,-2.2054 0,-2.3329 7.7208,-9.1794 13.8117,-12.2477 2.8298,-1.4256 7.6298,-4.7025 10.6667,-7.2821 3.0369,-2.5796 7.3216,-5.5516 9.5216,-6.6043 2.2,-1.0527 6.7417,-3.8132 10.0926,-6.1345 5.0826,-3.521 6.464,-3.949 8.3333,-2.5822 1.2324,0.9012 2.2402,3.3724 2.2394,5.4915 -10e-4,3.2021 -1.0711,4.4607 -6.3333,7.4499 -3.4826,1.9781 -7.832,4.9917 -9.6653,6.6968 -4.9726,4.6248 -22.2903,15.7064 -24.545,15.7064 -1.0804,0 -2.3351,0.6 -2.7884,1.3333 -0.4532,0.7333 -1.5386,1.2435 -2.412,1.1336 -0.8734,-0.1093 -3.238,-0.4497 -5.2546,-0.7553 z m 147.12618,-0.3091 c -1.7639,-0.4381 -3.8639,-1.8659 -4.6667,-3.1729 -1.8226,-2.9676 1.5197,-6.0454 33.8738,-31.1922 12.8334,-9.9745 24.5334,-19.484 26,-21.132 1.4667,-1.648 5.0667,-4.4638 8,-6.2572 2.9334,-1.7935 5.6475,-3.498 6.0313,-3.7879 0.3839,-0.2898 1.9816,0.673 3.5503,2.1397 3.9025,3.6484 2.7936,8.8878 -2.364,11.1708 -2.1517,0.9525 -6.2604,3.9286 -9.1305,6.6137 -7.7324,7.2343 -22.3825,18.8821 -23.7488,18.8821 -0.6549,0 -2.3865,1.35 -3.848,3 -1.4615,1.65 -4.6647,4.5 -7.1182,6.3334 -2.4536,1.8333 -5.1228,3.9333 -5.9315,4.6666 -0.8088,0.7334 -5.0638,4.0782 -9.4556,7.4328 -6.1301,4.6827 -8.73,5.9146 -11.1921,5.3031 z m -44.3969,-2.3096 c -5.1912,-1.3664 -3.8118,-9.7596 1.604,-9.7596 1.2871,0 3.0871,-0.9 4,-2 0.9129,-1.1 2.4923,-2 3.5097,-2 1.0174,0 2.8772,-1.2 4.133,-2.6667 1.2558,-1.4666 2.79,-2.6666 3.4093,-2.6666 0.6193,0 3.0926,-1.5 5.4962,-3.3334 2.4036,-1.8333 4.9136,-3.3466 5.5777,-3.3629 0.6641,-0.016 2.7075,-1.2031 4.5408,-2.6371 4.5674,-3.5726 6.6667,-3.3133 6.6667,0.8235 0,2.3829 -1.7978,5.1777 -5.6667,8.8092 -8.3264,7.8153 -8.8553,8.2173 -18.6901,14.206 -8.8808,5.4077 -10.0579,5.7781 -14.5806,4.5876 z m -139.27768,-3.8392 c -0.9921,-2.5855 4.3304,-8.2977 13.8244,-14.8364 3.8815,-2.6733 7.0573,-5.2645 7.0573,-5.7583 0,-0.4937 1.5799,-1.6176 3.5109,-2.4973 1.931,-0.8799 8.081,-5.1073 13.6667,-9.3945 9.2383,-7.0906 25.5211,-16.6046 28.8224,-16.8408 0.7333,-0.052 2.366,0.7698 3.6282,1.8276 2.1615,1.8112 2.1398,2.1202 -0.3729,5.3146 -1.4672,1.8654 -3.8077,4.038 -5.2009,4.8282 -2.3012,1.3049 -7.7534,5.0416 -27.3877,18.7694 -3.6667,2.5636 -7.2823,5.1606 -8.0347,5.771 -0.7524,0.6105 -3.1524,2.2401 -5.3333,3.6214 -2.181,1.3815 -6.4272,4.4834 -9.436,6.8932 -6.0192,4.8208 -13.3393,5.9636 -14.7444,2.3019 z m -41.4795,-3.4816 c -2.9644,-2.9644 -1.7313,-4.8656 5.3612,-8.2663 3.85,-1.846 11.2,-5.7702 16.3333,-8.7206 5.1334,-2.9504 10.6542,-5.9582 12.2685,-6.6838 1.6144,-0.7257 5.5144,-2.9757 8.6667,-4.9998 3.1523,-2.0243 7.8315,-4.8211 10.3982,-6.2151 2.5666,-1.3941 7.0666,-4.1403 10,-6.1027 5.2535,-3.5146 15.475,-8.1172 18.027,-8.1172 1.5142,0 1.7351,6.6942 0.2859,8.6667 -0.5388,0.7333 -3.9796,2.8191 -7.6463,4.6351 -3.6666,1.8158 -12.9666,7.2661 -20.6666,12.1116 -15.7485,9.9101 -41.379,23.1324 -47.4075,24.4565 -2.4693,0.5424 -4.604,0.252 -5.6204,-0.7644 z m 304.69458,-8.3067 c -1.2834,-0.9677 -2.3334,-2.716 -2.3334,-3.8852 0,-2.654 5.4847,-8.2338 10.7899,-10.9773 2.2077,-1.1416 4.3558,-2.9665 4.7736,-4.0553 0.4178,-1.0888 2.337,-2.8182 4.2648,-3.843 1.9278,-1.0249 5.2733,-3.5366 7.4345,-5.5816 2.1611,-2.045 6.6611,-6.0498 10,-8.8997 3.3388,-2.8497 9.487,-8.4498 13.6626,-12.4446 8.4817,-8.1144 16.2835,-13.7787 18.9783,-13.7787 2.4355,0 3.6075,5.1763 1.8962,8.374 -1.6577,3.0973 -31.6921,32.9593 -33.1496,32.9593 -0.5537,0 -3.0844,2.25 -5.624,5 -2.5395,2.75 -5.5601,5.6 -6.7125,6.3333 -1.1523,0.7334 -5.2943,3.5042 -9.2045,6.1575 -8.7731,5.9532 -11.7826,6.8985 -14.7759,4.6413 z m -125.6168,-22.7645 c 3.9668,-1.8144 8.8784,-3.7007 10.9146,-4.1917 2.0362,-0.491 6.1022,-1.9274 9.0355,-3.1919 2.9333,-1.2645 9.0833,-3.7179 13.6667,-5.4519 4.5833,-1.734 8.3333,-3.6484 8.3333,-4.2544 0,-0.606 0.6671,-0.6894 1.4824,-0.1856 0.8153,0.5039 1.9101,0.2242 2.4329,-0.6217 0.5228,-0.8459 2.898,-1.7844 5.2783,-2.0856 2.3804,-0.3013 5.0356,-1.0855 5.9005,-1.7428 0.8649,-0.6573 3.6726,-1.986 6.2392,-2.9527 6.4301,-2.4218 27.4881,-12.9369 42.4028,-21.1733 6.8216,-3.7671 12.9287,-6.8493 13.5715,-6.8493 0.6427,0 1.9614,-0.7639 2.9305,-1.6974 0.9691,-0.9336 8.6619,-5.2322 17.0952,-9.5524 8.4334,-4.3202 17.1334,-8.9112 19.3334,-10.2022 2.2,-1.291 9.25,-4.8919 15.6666,-8.0021 6.4167,-3.1101 11.6667,-6.1553 11.6667,-6.767 0,-0.6117 0.6744,-1.1123 1.4987,-1.1123 1.6049,0 22.0839,-10.0006 24.429,-11.9296 0.7731,-0.6359 4.7056,-2.8878 8.739,-5.0043 24.2944,-12.7486 43.383,-28.6381 68.2976,-56.8514 6.6321,-7.5102 8.9646,-11.0753 8.2871,-12.6667 -0.5186,-1.218 -1.3758,-4.6146 -1.9049,-7.548 -2.5419,-14.091 -4.5082,-23.1802 -6.181,-28.5708 -0.014,-6.9697 -4.5114,-12.0473 -5.8285,-17.4137 -0.8775,-3.6582 -2.6548,-8.0082 -3.9495,-9.6667 -1.2947,-1.6585 -2.7594,-4.31 -3.2548,-5.8922 -0.9189,-2.9345 -4.7994,-5.4259 -4.7994,-3.0814 0,0.7103 -0.6969,1.2915 -1.5488,1.2915 -1.767,0 -9.5378,8.1667 -13.0702,13.7361 -2.4328,3.8355 -23.5022,27.0148 -35.3763,38.9186 -6.4303,6.4464 -12.0841,11.1354 -30.5602,25.3453 -12.4581,13.0332 -35.1266,25.3391 -48.7778,33.4921 -3.3,1.9852 -11.6499,6.5514 -18.5553,10.1473 -6.9054,3.5959 -15.0054,8.21 -18,10.2537 -16.7756,9.5382 -41.8826,21.9806 -60.8781,21.2983 -8.2585,-0.3371 -8.2585,-0.3371 -10.7263,7.5691 -1.3572,4.3484 -2.4765,8.6891 -2.4873,9.646 -0.011,0.9569 -1.2451,4.4298 -2.7428,7.7175 -1.4977,3.2877 -4.3765,10.0048 -6.3972,14.9268 -3.5214,8.5772 -10.9106,23.1571 -16.0232,31.6159 -1.3297,2.2 -4.3933,7.6 -6.808,12 -2.4147,4.4 -5.2134,8.9472 -6.2194,10.1049 -1.9015,2.1884 -2.3734,3.8951 -1.077,3.8951 0.4137,0 3.9977,-1.4846 7.9645,-3.2991 z m 34.7889,-24.4225 c -1.3292,-2.1506 0.3906,-15.9025 3.1196,-24.9451 10.0847,-33.4159 12.1874,-37.6105 17.9677,-35.8443 4.413,1.3484 6.0749,3.2702 6.0595,7.0076 -0.014,3.4251 -2.3567,12.1806 -5.0398,18.8367 -0.739,1.8333 -2.4321,7.2333 -3.7624,12 -1.3302,4.7667 -3.187,10.1667 -4.1261,12 -0.9391,1.8333 -1.7312,3.9333 -1.7601,4.6667 -0.029,0.7333 -1.1788,2.6833 -2.5553,4.3333 -2.4209,2.9021 -8.5658,4.109 -9.9031,1.9451 z m 39.9969,-19.109 c -1.7367,-2.0283 -2.1929,-4.0122 -1.6097,-7 0.4476,-2.2932 1.0483,-5.4851 1.3348,-7.0932 0.2866,-1.6081 0.8503,-3.4566 1.2527,-4.1078 1.2071,-1.9531 6.1865,-25.9006 6.1865,-29.7526 0,-5.337 4.9586,-8.1392 11.3028,-6.3874 4.933,1.362 4.933,1.362 4.1354,8.9335 -0.4386,4.1643 -0.9417,9.2214 -1.1179,11.2381 -0.1761,2.0166 -0.6748,3.6666 -1.1081,3.6666 -0.4333,0 -1.5136,3.2429 -2.4006,7.2065 -1.6832,7.5216 -7.1257,19.7849 -10.5595,23.7935 -2.6277,3.0676 -4.4699,2.9441 -7.4164,-0.4972 z m 51.2163,-41.4208 c -2.2771,-2.4442 -2.7187,-4.6916 -2.7187,-13.8368 0,-11.2753 0.7883,-13.1331 6,-14.1401 1.6755,-0.3238 3.6579,0.7275 5.3334,2.8283 3.7667,4.7229 3.8491,21.1476 0.1266,25.2603 -3.2301,3.5689 -5.3375,3.5419 -8.7414,-0.1117 z m 51.561,-8.4992 c -4.195,-4.1951 -4.1789,-3.9422 -2.1275,-33.2494 0.9036,-12.9093 2.1915,-22.4538 3.2615,-24.1709 0.9884,-1.586 3.6164,-3.1088 5.9584,-3.4525 6.3582,-0.9332 6.9327,2.1875 5.2726,28.6411 -1.3634,21.7245 -2.6262,27.849 -6.8894,33.4135 -1.773,2.3142 -2.0365,2.2573 -5.4756,-1.1818 z m 29.4355,-17.1445 c -2.5683,-3.5348 -3.6432,-13.6442 -4.2261,-39.7474 -0.3575,-16.0127 -0.2128,-17.132 2.55,-19.7276 3.238,-3.0419 5.3341,-3.0099 8.9093,0.1362 2.1135,1.8599 2.4452,5.2546 2.9064,29.7504 0.5015,26.6321 0.4185,27.7461 -2.2518,30.2339 -3.576,3.3315 -5.088,3.2078 -7.8878,-0.6455 z m 26.035,-27.1556 c -2.345,-5.569 -4.4092,-16.908 -5.8632,-32.2081 -0.7278,-7.659 -1.9105,-14.633 -2.6282,-15.4977 -1.4227,-1.7143 -0.3024,-5.9954 1.9773,-7.5564 0.7868,-0.5388 3.0116,-0.9888 4.9439,-1 4.5222,-0.026 7.4619,4.407 8.5195,12.8483 0.4455,3.5555 1.1611,7.6646 1.5903,9.1312 0.4291,1.4667 0.9084,5.0667 1.065,8 0.1567,2.9334 0.714,9.5334 1.2386,14.6667 1.0573,10.347 -0.077,13.0997 -5.957,14.4561 -2.7537,0.6352 -3.6397,0.1203 -4.8862,-2.8401 z m 29.027,-36.3483 c -0.7941,-3.7027 -1.4438,-8.9567 -1.4438,-11.6754 0,-2.7188 -0.6271,-7.0393 -1.3936,-9.6011 -0.7665,-2.5618 -1.7032,-7.0246 -2.0816,-9.9172 -0.3784,-2.8927 -1.0114,-5.7826 -1.4066,-6.4221 -1.0016,-1.6205 3.6366,-4.8916 7.0084,-4.9428 6.9803,-0.106 12.6327,15.0898 13.0258,35.0179 0.1607,8.1427 -0.1714,9.4545 -2.9668,11.7209 -1.7313,1.4037 -4.5315,2.5521 -6.2229,2.5521 -2.6146,0 -3.2913,-1.0081 -4.5189,-6.7323 z m -236.3828,367.8696 c -9.6775,-3.5397 -4.6574,-12.1465 15.6056,-26.7552 3.6667,-2.6436 8.1213,-6.3609 9.8991,-8.2609 1.7779,-1.9 3.845,-3.4545 4.5937,-3.4545 0.7487,0 2.8942,-1.4224 4.7676,-3.1608 10.5769,-9.8146 36.4763,-23.6359 39.1954,-20.9168 1.6553,1.6553 -0.01,7.6785 -2.823,10.2254 -1.2647,1.144 -10.2524,7.989 -19.9728,15.211 -9.7203,7.2218 -18.4867,13.9206 -19.4808,14.886 -4.3574,4.2313 -10.9602,9.9156 -13.6899,11.7856 -1.6302,1.1166 -5.381,4.2666 -8.3352,7 -2.9542,2.7332 -5.5474,4.9222 -5.7626,4.8644 -0.2153,-0.057 -2.014,-0.6988 -3.9971,-1.4242 z m 40.463,-3.668 c -3.6131,-2.2693 -0.9155,-5.9924 15.608,-21.5406 1.2107,-1.1394 6.2513,-5.241 11.2013,-9.1148 4.95,-3.8739 9,-7.5919 9,-8.262 0,-0.6702 0.6551,-1.2186 1.4558,-1.2186 1.8373,0 7.4696,-4.2217 16.4538,-12.3333 5.6706,-5.1199 7.9481,-6.3333 11.8859,-6.3333 4.6081,0 4.8708,0.234 4.865,4.3333 0,2.9865 -1.2685,5.6801 -4.0676,8.6667 -2.2338,2.3833 -4.4871,4.3333 -5.0074,4.3333 -0.5204,0 -2.4428,1.35 -4.2721,3 -11.8012,10.6444 -48.1512,37.4313 -52.6467,38.7961 -1.4667,0.4454 -3.4809,0.2983 -4.476,-0.3268 z m -74.4068,-6.8008 c -3.22208,-1.2993 -5.01478,-5.4569 -3.88628,-9.0126 0.4092,-1.2894 3.17448,-3.8394 6.14498,-5.6667 2.9706,-1.8275 6.29,-4.6725 7.3766,-6.3225 1.0866,-1.65 2.8806,-3 3.9867,-3 1.1061,0 2.3283,-0.8266 2.7159,-1.8368 0.5857,-1.5262 7.5836,-6.9751 37.4193,-29.1366 0.8476,-0.6296 3.9517,-1.4353 6.898,-1.7904 4.527,-0.5457 5.4904,-0.2257 6.2175,2.0654 1.1939,3.7617 -2.4585,7.9876 -14.1801,16.4065 -5.3954,3.8751 -11.5589,8.5261 -13.6967,10.3355 -9.5963,8.1221 -17.9316,15.4028 -23.8021,20.7902 -3.4956,3.208 -7.2456,5.8328 -8.3334,5.8328 -1.0877,0 -1.9777,0.6 -1.9777,1.3334 0,1.573 -0.9854,1.5734 -4.8827,0 z m -45.65298,-17.8164 c -3.3499,-1.971 -4.0314,-3.0674 -3.315,-5.3333 1.6819,-5.3195 4.8782,-8.9511 15.0424,-17.0907 5.5779,-4.4668 11.3417,-9.266 12.8083,-10.6649 3.666,-3.4965 25.70188,-18.544 31.57038,-21.558 5.5154,-2.8328 9.5988,-1.5904 11.1836,3.4029 1.1072,3.4887 -1.4654,5.8878 -19.0602,17.7739 -12.68378,8.5685 -27.63088,20.4528 -37.67068,29.9513 -6.3419,6 -6.3419,6 -10.5588,3.5188 z m -50.5515,-7.0316 c -2.1138,-3.7772 1.1166,-10.2082 7.9468,-15.8205 24.702,-20.2973 26.8664,-21.9609 28.6004,-21.9821 0.8031,-0.013 2.546,-1.2179 3.8734,-2.6846 1.3273,-1.4666 3.0929,-2.6666 3.9236,-2.6666 0.8308,0 3.5878,-1.7756 6.1267,-3.9459 2.539,-2.1701 5.2163,-3.9717 5.9497,-4.0033 0.7333,-0.032 4.6509,-2.0583 8.7058,-4.5035 4.0548,-2.4452 9.9048,-4.8507 13,-5.3456 5.384,-0.8609 5.6275,-0.7521 5.6275,2.5152 0,4.4748 -6.078,10.5177 -18.6667,18.5592 -5.5,3.5133 -10.2,6.9135 -10.4444,7.5559 -0.2445,0.6424 -1.0683,1.168 -1.8307,1.168 -1.2597,0 -18.147,11.3996 -19.7249,13.315 -0.3666,0.4451 -4.2666,3.5662 -8.6666,6.9355 -4.4,3.3695 -9.8,7.6908 -12,9.6029 -4.5184,3.9272 -10.5945,4.5634 -12.4206,1.3004 z m -28.6582,-13.5674 c -9.2936,-1.1052 -5.0738,-8.9912 13.0772,-24.4388 22.0233,-18.7432 30.1607,-25.1283 35.5778,-27.9162 2.7002,-1.3897 5.2909,-3.1438 5.7571,-3.8981 0.4662,-0.7543 3.2922,-2.6185 6.2801,-4.1429 4.6133,-2.3535 5.9032,-2.5195 8.5541,-1.1008 1.7169,0.9189 3.4648,2.752 3.8842,4.0734 0.8166,2.5728 -1.3949,7.837 -3.2923,7.837 -1.7132,0 -35.7468,24.9988 -44.4726,32.6666 -4.1726,3.6667 -7.5941,7.4167 -7.6033,8.3334 -0.01,0.9166 -1.0802,1.6666 -2.3797,1.6666 -1.2996,0 -4.4496,1.6572 -7,3.6826 -3.1626,2.5116 -5.8281,3.5409 -8.3826,3.2372 z m -21.4154,-24.9378 c -1.2603,-1.2602 -1.9652,-2.9718 -1.5662,-3.8034 0.3989,-0.8315 1.0589,-2.4212 1.4666,-3.5326 0.4077,-1.1114 6.1124,-5.9114 12.677,-10.6666 6.5647,-4.7554 15.9815,-11.5768 20.9263,-15.159 4.9447,-3.5821 9.5905,-7.1821 10.3238,-8 2.2948,-2.5593 12.235,-7.487 15.1029,-7.487 1.5068,0 3.0869,-0.5619 3.5113,-1.2486 1.4815,-2.397 6.134,-0.8909 6.9198,2.2402 0.5613,2.2364 -0.143,3.8978 -2.563,6.0461 -9.7723,8.6751 -17.9876,14.9961 -33.8992,26.0828 -9.6772,6.7428 -18.521,13.1859 -19.653,14.3179 -3.2459,3.2458 -10.5439,3.9126 -13.2463,1.2102 z m 185.54128,-244.0106 c -22.4155,-1.522 -49.22058,-3.7026 -67.04708,-7.4508 -9.2221,-1.9523 -43.661,-14.5534 -52.8724,-19.3459 -1.9465,-1.0127 -4.2017,-1.8413 -5.0116,-1.8413 -0.8098,0 -3.9573,-1.8 -6.9943,-4 -3.037,-2.2 -6.069,-4 -6.7377,-4 -2.6946,0 -16.7982,-7.4465 -23.1719,-12.2344 -3.7333,-2.8044 -7.1961,-5.099 -7.6952,-5.099 -0.8733,0 -11.4834,-6.595 -12.8503,-7.9875 -0.8361,-0.8518 -4.8094,-3.3165 -9.9875,-6.1956 -7.6165,-4.2349 -18.2876,-14.5159 -20.99,-20.2228 -2.2021,-4.6504 -2.4358,-6.3578 -1.232,-9 1.8004,-3.9514 5.6072,-4.2062 8.8762,-0.5941 1.3273,1.4667 2.8902,2.6667 3.4731,2.6667 0.583,0 3.8526,1.95 7.266,4.3333 8.1041,5.6586 25.9588,17 26.7628,17 0.3452,0 4.1658,2.3502 8.4903,5.2225 8.0638,5.3561 18.9002,11.0982 35.3411,18.727 5.1334,2.3819 10.3834,4.8677 11.6667,5.524 10.2348,5.2339 20.8396,9.4613 31,12.3574 2.9333,0.8362 5.9754,1.9349 6.7601,2.4418 0.7847,0.5068 2.8847,1.1876 4.6667,1.5127 1.7819,0.3252 5.8231,1.2886 8.9804,2.1409 32.65128,6.0808 68.34608,7.6736 94.64188,7.1283 19.4129,-11.9232 38.1496,-18.7266 53.5347,-33.8476 3.4645,-3.46 3.4645,-3.46 -12.5596,-3.4704 -32.3986,-0.021 -53.9532,-3.457 -69.8418,-11.1335 -2.9628,-1.4315 -6.1659,-2.6215 -7.1179,-2.6444 -0.9521,-0.023 -4.7311,-1.5175 -8.3978,-3.3211 -7.5939,-3.7356 -9.4303,-4.0038 -10.9338,-1.5968 -11.3768,12.1297 -26.73488,16.7346 -39.45688,25.3256 -2.1666,1.4916 -7.0459,2.8652 -11.6667,3.2842 -7.7628,0.7039 -7.9426,0.6452 -7.9426,-2.5917 0,-3.666 2.3383,-6.0301 9.3333,-9.4363 4.4361,-2.1602 6.3077,-3.1754 11.6667,-6.3284 1.2833,-0.755 8.783,-4.505 16.6661,-8.3333 7.88298,-3.8283 14.33298,-7.4293 14.33328,-8.0023 3e-4,-0.5731 -1.0494,-1.4214 -2.3328,-1.8852 -1.2833,-0.4638 -5.4955,-2.2174 -9.3604,-3.8968 -3.86498,-1.6794 -7.46498,-3.1249 -7.99998,-3.2121 -0.5351,-0.087 -2.7729,-1.2407 -4.9729,-2.5632 -2.2,-1.3225 -6.7,-3.8939 -10,-5.7142 -12.0658,-5.4253 -22.1935,-14.014 -32.0633,-20.9368 -3.6987,-2.5209 -9.151,-7.2155 -12.1163,-10.4324 -4.9813,-5.4041 -5.5678,-5.6894 -7.7109,-3.7499 -26.81,11.8575 -56.5756,20.6868 -84.8844,30.2742 -0.9662,1.5634 -8.9035,1.468 -13.1812,-0.1584 -2.9418,-1.1185 -3.4146,-2.0355 -3.1413,-6.0936 0.367,-5.4489 1.0123,-6.0665 6.8661,-6.5718 5.1094,-0.4411 7.9086,-1.1412 14.898,-3.726 2.9333,-1.0848 8.0333,-2.7524 11.3333,-3.7057 17.813,-5.9015 45.7773,-12.8177 59.2073,-23.2529 9.6767,-6.9118 14.0358,-6.5059 28.3733,4.9051 8.768,7.254 25.4238,18.9474 37.0958,26.0435 18.61168,8.4058 34.95118,17.1813 52.09708,25.0542 5.192,2.3872 10.892,4.7608 12.6666,5.2748 1.7746,0.5139 5.3266,1.9081 7.8933,3.0982 2.5666,1.19 6.1204,2.3768 7.8972,2.6371 1.7768,0.2604 4.1768,0.9693 5.3334,1.5754 1.1565,0.6061 4.8027,1.5424 8.1027,2.0807 3.3,0.5383 7.2,1.2247 8.6667,1.5253 3.7254,0.7635 47.947,0.7051 55.7751,-0.074 3.5431,-0.3525 7.1431,-1.1715 8,-1.8201 2.7386,-2.0727 11.063,-1.837 12.8905,0.365 4.7022,5.6658 0.6459,17.0056 -6.6015,18.455 -22.9402,16.0972 -46.6033,39.299 -79.384,55.5244 -7.1507,0.7411 -20.4158,3.4344 -34.2997,1.9931 z m -22.833,-30.1503 c -1.4672,-5.4813 -1.0494,-6.0923 6.7859,-9.9247 8.1668,-5.3897 18.7829,-10.5916 25.8799,-15.3815 4.5988,-3.7333 12.4856,-1.7508 12.6965,2.1517 0,2.3811 -15.615,15.5807 -25.2326,20.6221 -4.3239,2.2665 -10.432,4.4733 -13.5735,4.9039 -5.1891,0.7112 -5.7892,0.4942 -6.5562,-2.3715 z m -38.21408,-7.7303 c 0,-2.8529 2.247,-4.9899 8.9004,-7.1561 4.7961,-1.7101 11.83658,-4.1362 15.35408,-7.2253 2.6128,-2.2947 15.3173,-9.4734 18.7455,-10.5922 1.2833,-0.4188 2.3333,-1.2354 2.3333,-1.8145 0,-1.7145 5.0868,0.1316 5.8512,2.1235 0.3862,1.0065 -0.1039,2.5974 -1.0893,3.5353 -7.1066,6.7644 -17.9725,15.5353 -22.4416,18.1147 -7.9421,6.2315 -9.77878,6.3321 -18.65358,7.7796 -2.9723,0.7138 -8.9398,-2.236 -9,-4.765 z m -50.5883,-19.9443 c -0.7765,-1.4508 -1.4117,-3.4709 -1.4117,-4.4891 0,-2.2092 13.3547,-9.0362 25.0589,-12.8101 2.4158,-0.779 6.1654,-2.6788 8.3325,-4.2219 5.5137,-3.9262 9.5695,-2.5208 9.0179,3.1249 -0.2543,2.6018 -1.4399,4.7056 -3.1293,5.5527 -1.496,0.75 -5.979,3.4637 -9.9623,6.0304 -13.1833,8.4948 -25.4086,11.4796 -27.906,6.8131 z m -34.7514,-14.825 c -1.7747,-3.316 2.1572,-9.5611 5.4096,-8.5922 5.3032,-1.6642 11.6911,-3.59 16.512,-6.0194 7.2396,-1.7185 13.0979,-5.983 19.4822,-8.0638 5.1319,-1.6501 9.6175,-3.4642 9.9679,-4.0313 1.3529,-2.1889 5.968,0.4033 5.968,3.352 3.092,5.3163 -24.7,16.2896 -36.4652,21.1792 -9.6844,4.1781 -11.85,4.854 -15.5507,4.854 -2.5315,0 -4.391,-0.9355 -5.3238,-2.6785 z m -16.327,-12.8403 c -1.2833,-0.3722 -2.3333,-1.8205 -2.3333,-3.2185 0,-2.6609 5.7908,-6.2071 15,-9.1856 2.75,-0.8895 5,-2.1707 5,-2.8471 0,-0.6765 1.38,-1.23 3.0666,-1.23 1.6867,0 3.6367,-0.5275 4.3334,-1.1722 0.6966,-0.6448 3.6666,-1.9146 6.6,-2.822 4.9989,-1.5463 19.8144,-7.9158 24.9819,-10.7403 2.7755,-1.5171 7.2837,-1.6597 8.1501,-0.2579 1.1832,1.9146 -0.782,8.3258 -2.5521,8.3258 -0.9767,0 -3.3944,1.5 -5.3726,3.3333 -1.9782,1.8333 -4.6161,3.3333 -5.8621,3.3333 -1.2459,0 -3.2944,1.1373 -4.5523,2.5272 -1.2579,1.3899 -3.9008,2.8233 -5.8733,3.1852 -4.2111,0.7728 -21.2,6.9573 -24.6154,8.9608 -2.8097,1.6482 -12.6722,2.7646 -15.9709,1.808 z" fill="#00B894" transform="translate(241.70145,123.21868) matrix(0.26458333,0,0,0.26458333,-436.60121,-952.46111)"/>
</svg>