<?xml version="1.0" ?><svg height="96.382179mm" viewBox="0 0 77.421677 96.382179" width="77.421677mm" xmlns="http://www.w3.org/2000/svg">
    <path color="#000" d="m 142.40918,2386.7148 -3.21699,-328.6402 217.27628,-4.3036 58.6881,55.321 -5.9992,290.0642 z" fill="#FFFFFF" overflow="visible" paint-order="fill markers stroke" transform="translate(139.58967,133.80536) matrix(0.26458333,0,0,0.26458333,-174.45615,-674.32067)"/>
    <path d="m 407.80387,2406.4447 c -86.28787,2.0241 -179.97797,-0.089 -256.72496,-7.4693 -2.56666,-0.2637 -5.37888,-0.5222 -6.24936,-0.5745 -0.87048,-0.052 -3.74481,-2.3451 -6.3874,-5.0951 -4.43897,-4.6194 -4.74177,-5.4438 -3.97778,-10.83 0.79039,-98.6291 -2.47524,-197.4567 -2.68553,-296.17 0.0191,-20.8717 1.0418,-31.2275 3.38602,-34.2849 1.00437,-1.31 1.94452,-2.5803 2.08922,-2.8231 0.14471,-0.2427 1.50299,0.2222 3.0184,1.0332 1.98117,1.0603 5.10384,1.0808 11.1142,0.073 11.20737,-1.8792 19.1172,-2.4878 44.35889,-3.4131 33.22213,-1.2178 146,-1.5185 146,-0.3892 0,1.3759 6.09539,0.3575 13.20408,-2.2062 5.87076,-2.1171 5.87076,-2.1171 10.06348,1.9466 2.306,2.2351 4.72855,4.0638 5.38345,4.0638 18.00042,16.631 33.84664,31.4842 49.75215,49.4954 1.68841,1.9205 3.09228,4.6196 3.11971,5.9982 0.50601,94.3827 -4.93309,186.9002 1.0914,282.4831 0.17687,2.3745 -0.30901,5.6745 -1.07972,7.3334 -0.7707,1.6589 -2.03253,4.599 -2.80404,6.5336 -1.13698,2.851 -2.44465,3.6167 -6.90196,4.0418 -3.02456,0.2885 -5.62117,0.4025 -5.77026,0.2534 z m -3.67095,-18.8103 c 6.60893,-77.9514 -3.3542,-174.0735 0.2975,-245.9952 0.74653,-13.2 1.62753,-26.0147 1.95776,-28.4771 0.50557,-3.7698 0.23896,-4.3582 -1.68776,-3.7247 -19.36419,6.3665 -46.77175,9.6349 -49.20948,5.8684 -0.59328,-0.9166 -1.10668,-11.7146 -1.14087,-23.9955 -0.0675,-24.2071 0.71415,-31.0972 -4.79742,-28.2735 -59.77996,-3.178 -131.8621,0.067 -183.1404,-1.3072 -20.87818,-2.0594 -18.82781,-3.3027 -19.4024,11.7651 1.14951,90.0013 3.18521,195.7395 3.19274,285.1265 -0.0314,23.6488 -0.0314,23.6488 4.7558,23.502 2.63295,-0.081 12.88719,0.5066 22.78719,1.3051 75.5925,6.023 155.51746,4.3128 226.38734,4.2061 z m -62.78076,-27.3469 c -42.54713,-5.0285 -101.65088,2.6653 -144.84203,-6.4746 -4.43755,-1.067 -5.7349,-2.6488 -5.21076,-6.3533 0.42801,-3.0251 0.91717,-3.16 11.99257,-3.3054 56.53399,3.232 107.90082,3.1166 157.1347,8.3295 10.81273,1.1394 10.27073,0.9029 11.54086,5.035 0.86247,2.8058 0.50644,3.0141 -5.50102,3.2182 -15.14359,0.5145 -21.91635,0.3933 -25.11432,-0.4494 z m 0.41862,-19.1429 c -41.83908,-4.537 -96.33749,0.2382 -137.50195,-4.33 -11.92858,-1.3501 -14.81634,-2.15 -18.44057,-5.108 -4.23053,-3.4527 -4.25932,-3.5524 -1.85659,-6.4276 2.16876,-2.5952 3.03456,-2.775 7.77391,-1.614 2.93333,0.7186 9.60237,1.2213 14.82008,1.1171 44.9956,1.4171 102.08134,2.9856 147.80966,5.599 6.41594,0.3549 12.26594,1.0164 13,1.4701 1.9119,1.1816 1.65073,8.2643 -0.33203,9.0038 -1.79077,0.668 -24.61661,0.9296 -25.27251,0.2896 z M 184.41225,2274.916 c 0,-5.7902 3.52805,-6.3758 33.25405,-5.5203 36.08719,0.7933 69.67459,4.4842 105.41261,5.5911 11.89172,0.3467 12,0.3819 12,3.907 0,1.7901 -0.75,3.7401 -1.66666,4.3333 -22.80208,3.8486 -141.59438,-3.947 -149,-8.3111 z m 130.05365,-13.6658 c -31.72046,-3.0434 -76.92762,-5.1 -120.37372,-9.8832 -2.79852,-1.3413 -3.67993,-2.7144 -3.67993,-5.7327 0,-3.3576 0.61616,-4.0823 4,-4.7046 2.2,-0.4046 6.4,-0.3206 9.33333,0.1867 2.93333,0.5073 11.33333,1.3116 18.66667,1.7873 38.78328,2.6392 72.59689,5.4417 111.43185,8.1025 7.24813,0.4975 11.43636,0.1341 14.83831,-1.2873 4.31246,-1.8018 4.92134,-1.7745 6.7538,0.3033 1.3196,1.4963 1.65664,3.219 0.9775,4.9966 -2.08265,5.4512 -4.42713,6.0901 -23.3391,6.3601 -10.02187,0.1432 -18.39579,0.085 -18.60871,-0.1288 z m 9.94635,-31.3069 c -35.81338,-2.0495 -85.56123,-1.8863 -132.04503,-6.3228 -3.83911,-1.5902 -5.68051,-5.4078 -4.31932,-8.955 0.69167,-1.8025 4.90415,-1.9436 34.9088,-1.1694 43.86275,1.7121 89.87671,4.5245 130.78888,5.427 20.31273,0.4345 18.67081,0.1074 18.64625,3.7161 -0.0435,6.3889 -1.03261,6.6814 -24.84408,7.3463 -12.35786,0.3451 -22.76884,0.3261 -23.1355,-0.042 z m -124.01756,-56.7734 c -11.8716,0.3629 -21.31578,-1.4556 -21.31578,-4.1043 0,-2.7704 4.07347,-5.6777 8.71307,-6.2186 47.53903,-2.3346 98.5015,1.8067 143.76833,2.0273 18.23144,0.068 33.68144,0.4535 34.33334,0.8564 0.65189,0.4029 1.18526,1.912 1.18526,3.3535 0,4.8302 -3.48149,5.2385 -48.44352,5.6807 -41.05845,-0.125 -82.18017,-2.6627 -118.2407,-1.595 z m -9.96554,-25.2967 c -6.4213,-0.5227 -8.68357,-2.1893 -8.68357,-6.3973 0,-2.3494 0.77661,-3.213 3,-3.336 1.65,-0.091 6.6,-0.3624 11,-0.6027 4.4,-0.2402 9.8,-0.7337 12,-1.0967 55.49461,-1.3623 78.23823,-0.04 137.33333,-0.9 24,-0.3616 24,-0.3616 25.26476,3.2228 2.5135,7.1235 0.63759,7.5476 -33.98821,7.6848 -44.01394,4.0613 -87.40273,-2.8514 -131.94321,0.9463 -4.76667,0.5014 -11.05906,0.7168 -13.9831,0.4789 z m 93.47079,-30.5399 c -0.17693,-0.1683 -21.28404,-0.63 -46.90469,-1.0262 -59.54203,-0.9206 -54.583,-0.436 -54.583,-5.3346 0,-4 0,-4 34,-3.9863 44.9659,0.018 98.57158,1.8416 101.58746,3.4557 1.3269,0.7101 2.41254,2.0686 2.41254,3.0189 0,3.6658 -5.85426,4.929 -21.09531,4.5519 -8.30241,-0.2054 -15.24007,-0.5112 -15.417,-0.6794 z m 106.84564,-16.5068 c 5.18651,-1.9386 3.36348,-5.6817 -7.62164,-15.6491 -5.84189,-5.3006 -10.98573,-9.7651 -11.43075,-9.9212 -0.44501,-0.156 -1.06952,6.172 -1.38781,14.0622 -0.57869,14.3459 -0.57869,14.3459 8.43076,13.4877 4.95519,-0.472 10.35944,-1.3628 12.00944,-1.9796 z" fill="#00B894" transform="translate(139.58967,133.80536) matrix(0.26458333,0,0,0.26458333,-174.45615,-674.32067)"/>
</svg>