<?xml version="1.0" ?><svg height="142.83292mm" viewBox="0 0 98.153503 142.83292" width="98.153503mm" xmlns="http://www.w3.org/2000/svg">
    <path color="#000" d="m 1997.1831,2565.5397 c 13.8407,160.8193 14.6058,316.0025 -13.8645,458.5842 l 25.1769,36.8037 312.1382,-9.0496 21.0559,-16.9071 1.5689,-431.2722 -26.9822,-24.3584 z" fill="#FFFFFF" overflow="visible" paint-order="fill markers stroke" transform="translate(25.848078,149.06661) matrix(0.26458333,0,0,0.26458333,-549.91355,-817.82735)"/>
    <path d="m 2052.0953,3064.7489 c -12.6216,-1.3173 -22.4922,-1.6371 -35.0866,-1.137 -5.0048,0.1988 -10.1949,0.013 -11.5334,-0.411 -2.2305,-0.7079 -5.3537,-5.5684 -5.3537,-8.3318 0,-1.2222 7.8788,-3.0877 11.9148,-2.8211 4.2197,0.2786 0.3685,-2.0856 -4.3089,-2.6452 -9.0874,-1.0871 -12.5705,-4.0193 -12.6361,-10.6374 l -0.04,-4.0631 c 7.2031,0.2262 38.8673,2.4838 40.1185,0.8508 0.3277,-0.5303 0.054,-0.9642 -0.6088,-0.9642 -6.4597,0 -39.2563,-5.4329 -42.7207,-7.0768 -3.219,-1.4437 -6.34,-1.2412 -8.5218,-3.3882 -5.6678,-0.934 -0.6217,-26.0853 1.5826,-41.5086 15.1701,-148.1169 19.4086,-262.5485 6.9457,-397.0645 -0.8158,-8.4729 -0.6616,-9.906 1.1403,-10.5974 1.146,-0.4398 3.4531,0.098 5.1268,1.1942 3.3959,2.2251 7.4319,9.3642 6.3152,11.1709 12.526,165.2358 7.3364,257.8509 -11.1154,427.087 110.3556,12.1431 216.5439,-0.674 299.2575,1.2195 11.2654,0.2707 11.5391,0.01 11.6379,-11.1909 2.5466,-35.557 3.1665,-72.0657 3.3455,-105.4836 1.8903,-82.9557 2.1877,-178.8916 8.2902,-252.262 0.8325,-26.8625 -10.7237,-69.3113 2.7271,-53.5582 -0.3673,-1.4398 -1.7931,-2.2184 -4.0626,-2.2184 -2.9021,0 -3.6314,0.6736 -4.2889,3.9614 -0.4357,2.1788 -0.7923,5.2307 -0.7923,6.7819 -1.6272,7.8264 -8.3473,12.9643 -13.9847,14.1481 -29.9598,12.7226 -31.7761,-29.5661 -28.7984,-30.0511 0.8714,-0.049 0.4436,-0.5489 -0.9507,-1.1109 -3.4907,-1.407 -5.7045,0.7212 -5.7045,5.4835 0,6.7076 -2.1596,11.9958 -6.5287,15.9862 -5.281,4.8235 -8.1933,4.7622 -13.7537,-0.2897 -4.3417,-3.9447 -4.4367,-4.2414 -4.4367,-13.849 0,-9.1828 -0.1883,-9.8653 -2.9106,-10.5486 -3.3282,-0.8354 -5.3292,0.048 -5.3292,2.3529 -3.2127,10.1855 -12.2225,26.0791 -19.7719,24.0477 -7.1802,-2.69 -12.1494,-14.8132 -10.029,-24.4672 0.5016,-2.2839 0.3313,-3.854 -0.4182,-3.854 -0.6956,0 -2.0754,-0.3111 -3.0661,-0.6913 -7.8679,9.5016 -8.7548,41.3166 -22.4913,30.7259 -6.1985,-5.4038 -7.8944,-10.0447 -8.0794,-22.1102 -0.114,-7.4337 -0.6184,-10.457 -1.7449,-10.4581 -3.9385,13.4906 -13.9173,29.3453 -27.3657,20.7232 -5.2947,-3.6974 -13.4066,-16.3943 -13.4803,-21.0996 -0.031,-1.9994 -1.0767,-2.2307 -8.5923,-1.9015 -8.0735,0.3537 -8.5762,0.5537 -8.9033,3.544 -0.6899,6.3043 -3.3253,14.6698 -5.9905,19.0147 -2.6402,4.919 -4.2032,9.216 -8.8881,8.4831 -7.5689,-1.2283 -14.9534,-12.2158 -16.5641,-24.6456 -0.5666,-4.3735 -1.4582,-6.6552 -2.6004,-6.6552 -1.0509,0 -1.7386,1.3785 -1.7392,3.486 0,3.9142 -5.8016,16.8813 -11.6245,25.9868 -3.0346,4.7455 -4.5757,6.0214 -7.2727,6.0214 -12.1854,-4.1875 -17.57,-19.1004 -17.8486,-31.3743 -0.016,-4.5163 0.2338,-4.4195 -10.6675,-4.1261 -11.8066,0.3178 -28.4121,-1.17 -28.4121,-2.694 -5.4315,-1.707 -7.1187,-7.1899 -5.9852,-11.0918 0.7751,-2.4422 1.5123,-2.572 10.803,-1.9008 l 9.9712,0.7202 c 10.5063,-16.4596 22.5436,-30.7939 42.446,-24.4102 5.5987,1.9149 7.1925,2.0056 10.9855,0.6254 6.0406,-2.1981 18.9008,-2.145 22.8177,0.094 4.1171,2.3535 8.172,2.3727 10.1015,0.048 10.9904,-9.0498 42.2698,-12.4495 52.0133,-0.6576 0,0.6851 3.6921,1.2435 8.2215,1.2435 9.6456,0 19.3193,2.2688 22.6952,5.3226 9.577,2.5737 10.4325,-6.1031 20.9302,-6.4976 4.9672,-0.1067 17.5457,5.8207 19.3064,9.0978 1.5398,2.8661 5.0141,2.8077 11.6303,-0.1954 10.2986,-4.6746 15.174,-3.7283 23.938,4.6465 4.6163,4.4112 4.7296,4.4434 8.8736,2.5264 10.5668,-4.8882 14.9259,-4.9089 25.2948,-0.1204 l 7.1531,3.3035 c 1.3253,-7.1305 17.2155,-10.8169 19.622,-3.7665 1.5273,4.5818 -0.7565,7.7755 -4.2306,5.9162 -7.6261,-1.562 -7.7445,6.0462 -5.3128,9.9182 3.3081,5.1725 5.5516,6.5259 10.892,6.5702 3.9265,0.033 5.8409,1.0085 10.026,5.1109 2.8451,2.7889 6.1618,5.0706 7.3708,5.0706 2.3285,0 3.7367,2.4276 3.7367,6.4419 0,1.3374 0.7824,2.4317 1.7385,2.4317 0.9561,0 4.0696,2.1391 6.9188,4.7537 5.054,4.6377 5.2101,5.0318 6.3999,16.1625 1.2576,11.7634 1.894,31.7832 1.8537,58.3118 -10.9862,121.9506 0.2878,276.319 -10.0024,363.5633 -4.4885,3.9892 -11.3944,2.4949 -11.0603,-2.9172 0.1567,-2.4403 0.5371,-36.6668 0.8453,-76.0589 0.8019,-102.4976 2.5932,-186.7941 4.1213,-193.9503 1.0456,-4.8967 1.6036,-137.7412 0.6176,-147.0473 -0.7685,-7.2534 -0.981,-5.8878 -1.7762,11.4089 -0.4969,10.8067 -1.4176,22.786 -2.046,26.6206 -0.6284,3.8346 -1.2314,17.4592 -1.34,30.2767 -0.1085,12.8176 -0.6884,33.3535 -1.2885,45.6354 -0.6002,12.2818 -1.1793,30.6021 -1.2869,40.7116 -6.6283,105.9093 -6.3969,162.8266 -8.4226,258.7507 0.9521,2.1068 -1.929,3.7736 -7.456,4.3136 -12.3823,2.4431 9.9616,1.0845 14.5097,4.9816 2.6806,2.4259 3.5889,8.1784 1.336,8.46 -2.0184,0.3355 -4.1131,0.8145 -6.0214,0.9892 -2.1128,0.1877 -2.1128,0.2586 0,1.4891 1.2201,0.7107 2.2184,2.0279 2.2184,2.9272 0,1.5661 -4.8737,4.5394 -8.8736,5.4133 -96.3438,1.2468 -168.6356,16.5242 -263.6709,7.7739 z m 58.3118,-15.1335 c 0,-0.8096 -5.9322,-1.1654 -16.1626,-0.9693 -17.0221,0.3262 -22.5624,1.359 -12.9934,2.4222 8.937,0.9931 29.156,-0.014 29.156,-1.4529 z m 48.4875,0.086 c 12.3755,-0.096 22.5008,-0.5874 22.5008,-1.0915 0,-1.0843 -58.0725,-1.5065 -64.9439,-0.4722 -8.9486,1.347 -3.3501,2.9209 8.2886,2.3301 6.4096,-0.3253 21.7791,-0.6702 34.1545,-0.7664 z m 129.6402,-450.0209 c 1.0154,-4.6232 0.4106,-5.4751 -3.0967,-4.362 -2.8987,0.9201 -3.336,3.3162 -1.2995,7.1213 1.7006,3.1777 3.3147,2.1647 4.3962,-2.7593 z m -145.1688,-21.0534 c 0,-2.2973 -0.7001,-2.9268 -3.2546,-2.9268 -2.7729,0 -3.1332,0.4221 -2.4347,2.8522 0.4509,1.5687 1.1321,3.9571 1.5137,5.3076 0.6769,2.3952 0.7366,2.397 2.4347,0.075 0.9575,-1.3095 1.7409,-3.6979 1.7409,-5.3076 z m -92.6275,-2.6099 c 0.049,-0.8715 -0.7666,-1.5846 -1.8124,-1.5846 -2.1199,0 -2.2315,0.5381 -1.0374,5.0027 0.7683,2.8723 0.9009,2.9191 1.7951,0.6339 0.5311,-1.3571 1.0057,-3.1805 1.0547,-4.052 z m 231.0164,-10.5994 c -0.2302,-0.9549 -1.0859,-2.1893 -1.9015,-2.7432 -1.8435,-1.2518 -10.3886,-0.079 -14.0012,1.9215 -2.6061,1.4433 -2.5701,1.5202 1.1095,2.3729 6.1686,1.4295 15.2815,0.4739 14.7932,-1.5512 z m -38.2447,-3.4652 c 0,-4.0231 -4.0891,-8.5456 -6.6079,-7.3083 -10.4765,5.146 -12.5947,9.218 -5.1951,9.9867 11.7715,1.2229 11.803,1.2158 11.803,-2.6784 z m -37.7483,-1.7272 c 1.6646,-2.507 1.6032,-3.2307 -0.59,-6.9477 -1.9037,-3.2266 -3.1987,-4.0842 -5.8233,-3.8568 -4.7275,0.4098 -8.7497,3.5887 -9.229,7.2941 -0.6385,4.9349 1.0329,6.3088 7.6755,6.3088 4.894,0 6.4783,-0.5565 7.9668,-2.7984 z m -61.9858,-3.0318 c -0.4877,-1.2711 -1.1778,-1.5152 -1.9892,-0.7037 -1.4517,1.4517 -0.047,4.3692 1.6113,3.3449 0.6185,-0.3824 0.7886,-1.5709 0.3779,-2.6412 z m 25.5047,0.4777 c 1.8155,-2.592 1.7762,-3.0141 -0.4916,-5.2818 -2.2405,-2.2405 -9.2628,-3.4134 -10.8619,-1.8143 -0.3578,0.3578 0.2203,2.7346 1.2846,5.2819 2.3001,5.5048 6.9029,6.3342 10.0689,1.8142 z m -133.1816,-2.8026 c 6.6226,-8.6827 3.3799,-9.5236 -5.2419,-1.3594 l -6.0165,5.6974 3.9694,0.01 c 3.0366,0.01 4.7496,-1.0158 7.289,-4.3451 z m 86.3106,1.1211 c 6.0781,-9.8008 13.0531,-15.5792 -1.6851,-14.1007 -8.2534,0.8627 -16.0379,3.743 -20.0007,7.4004 -2.4377,2.2499 -2.54,2.8449 -1.0142,5.9033 1.6227,3.2528 2.1262,3.401 11.5447,3.3977 8.6536,0 10.0064,-0.3184 11.1553,-2.6007 z m -46.7769,0.2943 c 0.3523,-0.9179 0.7622,-3.3001 0.911,-5.2937 0.2802,-3.7547 -0.036,-3.8763 -8.6031,-3.3052 -2.2781,0.1519 -2.4308,2.6486 -0.4303,7.0392 1.5963,3.5035 6.9798,4.5373 8.1224,1.5597 z m -15.9317,409.2263 c -13.7704,-0.528 -14.736,-0.7408 -17.4303,-3.8405 -3.4372,-3.9545 -3.6395,-6.5223 -0.5899,-7.4901 83.2888,5.451 151.8983,-1.3977 227.1822,7.5299 9.6187,-2.2512 17.6677,7.7436 8.4164,10.1386 -73.9792,3.4725 -149.8999,-3.7232 -217.5784,-6.3379 z m 170.4987,-38.8518 c -53.988,-3.9898 -106.8792,-4.7295 -161.6252,-6.8842 -8.0179,-0.3213 -15.4906,-0.6165 -16.606,-0.656 -2.2149,-0.079 -6.2117,-7.3633 -6.2117,-11.3219 61.3298,-5.1599 133.536,2.6728 188.133,7.0064 13.6076,1.0796 24.3144,2.796 27.2538,4.3691 3.2662,2.3398 1.3725,4.7641 -1.1155,7.0089 -1.8109,1.1192 -21.1202,1.4284 -29.8284,0.4777 z m 28.5221,-42.482 c -43.819,-2.8244 -81.5927,-4.6501 -122.9619,-6.1808 -23.2174,-0.8591 -63.4531,-1.0141 -80.1103,-0.3086 -10.9187,0.4624 -12.9961,-0.4369 -15.1265,-6.5481 -1.0664,-3.059 -1.0493,-4.4423 0.068,-5.5606 1.7184,-1.719 71.5485,-2.1197 97.0698,-0.557 40.786,1.4598 84.9965,4.6759 121.0605,6.6653 14.2735,0.7611 35.9945,3.946 39.4222,5.7805 2.5511,1.3652 3.9338,5.9635 2.1289,7.079 -2.133,1.3183 -16.5586,1.1899 -41.5511,-0.3697 z m -192.6827,-55.7311 c -2.4401,0.4706 -5.6575,1.12 -7.1496,1.4429 -2.1083,0.4565 -3.1677,-0.371 -4.7537,-3.7133 -2.8505,-6.007 -2.5668,-7.8466 1.4452,-9.3725 85.0873,1.1199 130.3168,-2.7096 214.5496,7.5835 7.476,-0.087 8.6826,9.2596 1.257,7.7434 -58.5212,-0.02 -134.2853,-3.8772 -205.3485,-3.684 z m 209.7959,-44.9341 c -8.0948,-1.0837 -19.4383,-1.8769 -45.0015,-3.147 -53.1597,-2.2523 -101.5528,-4.2772 -157.7196,-4.4355 -18.7683,-0.044 -35.0902,-0.5978 -36.2711,-1.2298 -1.1809,-0.632 -2.8608,-2.8719 -3.733,-4.9777 -3.2217,-7.7778 -5.0506,-7.5203 49.6468,-6.9909 47.125,3.9885 206.999,-3.621 207.6564,17.1701 0,2.2001 -3.6658,5.1604 -5.938,4.7952 -0.5687,-0.091 -4.4568,-0.6244 -8.64,-1.1844 z m -173.2111,-59.3243 c -21.1674,0.082 -40.6408,-0.2748 -43.2742,-0.7929 -5.1264,-1.0086 -7.2546,-3.5912 -7.2546,-8.8034 v -3.2524 l 14.8948,-0.1155 c 43.8773,0.083 79.8471,-0.1191 120.1097,3.2311 64.3175,5.4114 78.9208,8.4083 66.0279,13.5507 -2.9305,1.1688 -7.4299,1.5193 -13.9442,1.0863 -45.7785,-0.944 -95.468,-5.0446 -136.5594,-4.9039 z m 190.9582,-30.0441 c -76.7122,-7.01 -154.2023,-15.2609 -222.772,-17.5091 -24.8468,-0.7987 -28.7881,-2.0848 -28.8369,-9.4103 -0.019,-2.8923 0.082,-2.9105 12.3402,-2.2199 87.8823,2.5043 177.7851,5.4898 248.1071,20.8918 3.7549,0.8637 3.8758,1.165 3.3451,8.3296 -1.2487,3.7742 -9.8891,0.2871 -12.1835,-0.082 z" fill="#00B894" transform="translate(25.848078,149.06661) matrix(0.26458333,0,0,0.26458333,-549.91355,-817.82735)"/>
</svg>