<?xml version="1.0" ?><svg height="57.260685mm" viewBox="0 0 75.8153 57.260685" width="75.8153mm" xmlns="http://www.w3.org/2000/svg">
    <path d="m 23747.01,1467.7219 c 6.727,-8.667 41.991,-3.8237 60.968,-2.0393 18.978,1.7844 85.045,4.7796 85.045,4.7796 0,0 108.2,-17.3977 113.582,-10.3239 5.382,7.0738 -10.905,45.3743 -37.247,59.6493 -26.342,14.2751 -38.734,22.496 -66.775,11.4074 -28.042,-11.0887 -26.696,-7.7749 -44.895,0.8284 -18.198,8.6033 -51.551,2.2942 -80.017,-17.7164 -28.466,-20.0105 -40.717,-31.4816 -30.661,-46.5851 z" fill="#FFFFFF" transform="translate(-15.339377,-54.987188) matrix(0.26458333,0,0,0.26458333,-6263.1802,-328.49528)"/>
    <path d="m 23748.017,1661.2635 c -2.896,-4.4093 -3.23,-23.9989 -1.365,-80.252 1.381,-41.6808 -1.431,-71.9895 -8.072,-86.9974 -3.738,-8.4507 -10.203,-20.4239 -8.445,-25.3386 6.759,-29.5576 38.433,-16.8062 59.988,-15.1149 18.194,1.4278 31.189,4.3563 61.169,8.3117 39.675,5.2346 41.003,5.2331 58.28,-0.07 39.028,-11.9788 46.101,-12.9187 75.4,-10.02 32.633,3.2291 33.699,4.113 29.869,24.7874 -7.883,42.5395 -84.992,83.3863 -117.028,61.9934 -9.872,-6.5919 -20.555,-5.9247 -37.966,2.3712 -7.647,3.6436 -19.217,6.9388 -25.711,7.3226 -18.516,1.0946 -43.235,-5.8277 -59.16,-16.5675 -7.745,-5.2216 -14.617,-9.5543 -15.274,-9.6279 -0.656,-0.073 -0.42,2.882 0.529,6.5682 4.769,18.5414 4.847,129.9958 0.09,134.6803 -4.016,3.9566 -8.895,3.1453 -12.307,-2.0465 z m 102.613,-139.2753 c 21.354,-7.4652 44.28,-9.532 57.296,-0.6412 8.033,5.4883 8.893,5.5844 24.643,2.7597 13.594,-2.4433 19.477,-5.4515 35.221,-18.0125 16.361,-13.0528 35.352,-36.5598 32.462,-40.1796 -2.878,-3.6021 -53.6,2.6825 -77.627,9.6177 -32.331,12.9773 -57.251,4.0963 -91.458,-0.2227 -55.827,-7.049 -65.06,-7.6486 -71.057,-4.6136 -3.791,1.9183 -7.068,5.0547 -7.283,6.9695 -0.767,6.8592 8.441,17.4702 24.073,27.7395 26.683,14.7484 45.511,28.0818 73.73,16.5832 z m -18.685,-19.2046 c -1.836,-4.5989 0.73,-8.1464 4.196,-10.9134 5.398,-4.3111 12.405,-1.1288 11.684,5.3064 -0.539,4.8265 -5.827,10.4612 -9.438,10.057 -1.091,-0.1222 -5.165,-1.2491 -6.442,-4.45 z m 70.865,0.6326 c -6.982,-8.7437 5.293,-21.6334 12.991,-13.6403 5.963,6.1932 0.823,18.3392 -7.372,17.4215 -1.57,-0.1759 -4.098,-1.8774 -5.619,-3.7812 z" fill="#00B894" transform="translate(-15.339377,-54.987188) matrix(0.26458333,0,0,0.26458333,-6263.1802,-328.49528)"/>
</svg>