<?xml version="1.0" ?><svg height="250.0434mm" viewBox="0 0 234.37727 250.0434" width="234.37727mm" xmlns="http://www.w3.org/2000/svg">
    <path d="m 2062.373,1222.9785 0.01,0.2813 c -9.6596,0.1277 -16.9729,-0.169 -21.793,-0.1875 -4.8514,-0.019 -7.1997,0.2458 -6.9453,1.5175 l 0.8457,36.0821 0.3496,-0.016 -0.074,10.918 -0.4082,-0.01 0.076,12.0625 -0.4766,0.01 -0.2129,12.5175 28.8946,0.3223 1.5371,80.6856 -29.0391,0.6757 0.1602,10.7989 h -1.209 l -0.1172,11.8438 2.2207,0.022 -2.7539,0.025 0.6152,11.6758 29.2539,0.3809 -0.3007,32.0078 -0.9239,-31.3965 -27.7246,-0.9629 -0.9687,44.6875 29.998,0.6504 -0.01,-0.1836 13.8007,0.3223 -0.2871,-7.8848 -0.025,-1.4121 0.3164,8.7774 12.0704,0.8183 -0.043,-1.0683 9.9785,0.2187 v -0.2422 l 71.5234,0.4043 v 0.2403 l 9.9883,-0.293 0.01,-0.3945 11.6211,0.1699 v -43.8242 h 0.4942 l 0.1601,8.2481 0.6094,35.5546 13.2344,-0.1679 0.457,-9.6856 -0.9394,-33.8828 0.7031,-0.01 0.7402,43.4141 43.9297,0.2558 0.8652,-44.2207 h -0.1191 l 0.4863,-12.207 h 0.029 l -0.3066,-11.5859 0.2558,-0.01 0.2227,-11.4707 -5.9023,-0.035 5.7753,-0.018 0.2793,-81.4394 h -0.019 l -0.1016,-12.3653 h -0.021 l 0.041,-12.1406 -5.3672,0.076 5.248,-0.2403 0.029,-10.8515 h -0.09 l -0.1699,-36.6817 -46.1797,-0.068 -0.029,12.7422 -0.3164,-12.5762 h -12.793 l -0.125,20.0039 -0.1504,-19.3731 c 0,0 -11.7919,-1.3465 -12.6914,-0.035 h -9.5351 v -0.336 l -72.1757,-0.7714 -0.012,0.4336 -9.7598,-0.5059 -0.3809,36.8398 h -0.3281 l 0.5156,-36.7265 -11.8808,-0.1524 v 0 z m 36.8458,36.375 h 71.9316 v 0.7656 h -71.9277 z m -36.1797,0.037 -0.01,0.7266 -27.2402,0.4961 z m -28.8536,37.002 0.2168,81.2969 29.4727,-2.0899 -1.793,-78.4668 z m 53.6524,0.086 h 0.3984 l 0.2715,56.2676 -0.4726,20.5508 0.2675,-27.2442 -0.5761,-42.2558 z m 105.9101,0 h 0.1524 l 1.0703,40.4473 -0.9883,15.7793 -0.123,-32.4649 z m 13.0918,0 h 0.1875 l -0.5781,16.5567 z m -107.4609,79.1211 h 71.4785 v 1.5645 h -71.4864 z m -11.7344,37.1074 h 0.4668 l 0.3145,24.7695 -0.8242,-20.418 z m 11.5117,0.057 49.7481,0.2441 h -49.7481 z" fill="#FFFFFF" paint-order="markers stroke fill" transform="translate(157.45988,-203.44013) matrix(1.0471985,0,0,1.0471985,-2284.3077,-1074.4295)"/>
    <path d="m 2089.0156,1220.2773 c -2.4417,-0.026 -2.7125,1.6851 -2.5742,3.0489 v 0 c 0.1277,3.0894 0.8875,8.7663 0.9492,16.0312 10e-5,0.014 -2e-4,0.021 0,0.035 l 0.1465,18 h -4 -4 l -0.012,-0.8887 -0.1309,-16.3066 c -0.07,-8.6216 -0.5693,-14.9069 -0.6054,-17.3614 -0.2319,-1.693 -1.0177,-1.5645 -2.0118,-1.289 -0.5963,0.1653 -1.8568,0.01 -1.9199,1.289 l 0.064,5.9297 c 0.01,0.8904 0.064,2.5971 0.1015,3.9551 0.021,0.7353 0.04,1.6319 0.062,2.4297 0.015,0.5286 0.018,0.7981 0.033,1.3516 0.031,1.1643 0.054,2.3931 0.078,3.6132 0.037,2.0525 0.071,4.1476 0.051,6.1817 l -0.1075,11.0957 h -5.1386 -5.1329 l -0.012,-0.8887 -0.1328,-16.4492 -0.1562,-17.3496 c -0.37,-2.5134 -1.0849,-1.7383 -1.8946,-1.709 -0.8095,0.029 -1.7159,-0.6842 -1.6972,1.7109 0.9425,6.5576 0.7484,29.4487 -0.5098,33.7969 h 0.061 c -0.093,0.312 -0.1855,0.6549 -0.2792,0.8086 -0.1814,0.2972 -1.3752,0.5475 -2.9825,0.7734 v 0.016 c -3.0868,0.4301 -8.4186,0.7199 -15.4687,0.7832 -3.7033,0.033 -4.9695,0.2138 -7.7715,0.3007 -2.907,-0.068 -1.871,3.6121 -0.2441,3.1153 8.136,0.476 16.4782,0.4199 20.1269,0.4199 1.3466,0 2.4161,0.02 3.2891,0.066 v 0.01 c 3.2735,0.1729 3.7177,0.7962 3.7363,3.0918 0.016,1.9957 -0.2769,2.7427 -3.7832,3.2617 -1.8203,0.2709 -4.4707,0.4836 -8.5176,0.7695 -6.4633,0.4565 -10.3242,-0.442 -14.5527,-0.1133 -2.6376,0.1786 -2.1462,4.5813 -0.2207,3.961 2.0057,-0.038 3.0562,0.027 5.2305,-0.045 l 17.9589,-0.5938 2,-0.066 2.1407,-0.07 -0.3946,4.5351 -0.3965,4.5332 -1.4785,0.062 v -0.059 l -17.9433,0.057 c -2.819,0.01 -5.7988,-0.2517 -8.0723,-0.1289 -1.8941,-0.036 -2.1946,4.4149 -0.1113,4.0273 1.7754,0.077 4.6164,0.071 6.7304,0.1348 l 17.3243,1.0332 v 0.1055 l 3.5957,0.1093 -0.336,3.25 c -0.1845,1.7881 -0.6698,3.5881 -1.0781,4 -0.017,0.017 -0.2769,0.03 -0.3242,0.047 -1.0559,0.3436 -7.9228,0.2832 -16.8535,0.2832 -3.4193,0 -6.5741,-0.1083 -8.8008,-0.022 -1.2001,1.1589 -0.8785,2.054 -0.5781,2.9532 2.9794,0.2833 7.2351,0.2736 12.205,0.4882 l 12.002,0.5176 1.998,0.09 2.5293,0.1093 0.1368,16.9903 c 0.077,6.6214 0.1925,12.3836 0.3789,18.2558 -11.6849,0.1306 -27.7591,0.2841 -28.3067,0.3516 -1.7673,0.07 -2.244,2.8165 0.047,2.8535 1.7511,0.028 6.7565,-0.6916 11.3047,-0.8086 0.9985,-0.026 11.2317,-0.032 17.0508,-0.055 0.1864,5.3714 0.4119,10.784 0.7558,17.2266 0.3454,5.6004 0.4928,10.2969 0.5215,13.8262 l -0.088,-0.1055 c 0,3.689 -0.1273,6.268 -0.332,6.6035 -0.4142,0.6792 -7.7752,1.0811 -16.4082,1.4688 -5.0476,0.2266 -8.3747,0.1329 -12.041,0.5722 -3.9318,0.7519 -2.2843,3.3265 -0.057,3.1739 2.5923,0 3.8407,-0.2727 8.2989,-0.4317 l 19.4043,-0.8848 0.2929,3.8477 0.029,5.4785 -20.4121,0.1133 c -3.3923,-0.1295 -6.4238,-5e-4 -9.0527,-0.022 -2.9101,0.4448 -1.6369,3.2587 -0.037,3.3067 6.5228,0.017 9.1206,-0.4184 10.7793,-0.4454 l 18.7441,-0.3027 0.043,3.6504 v 0.2031 l 0.023,4.336 -2.2305,0.123 -2.0019,0.1113 -12.7598,0.7051 c -4.7423,0.2621 -8.8937,0.1414 -12.1679,0.3418 -1.5273,0.093 -2.3421,2.1309 -0.8477,2.1582 3.028,0.055 7.5332,-0.062 12.0996,-0.1816 l 13.6172,-0.3516 2,-0.051 2.3144,-0.062 0.039,4.7969 0.039,4.7969 h -2.6035 -2 -13.3965 c -2.4614,0 -4.1825,-0.034 -5.6504,-0.047 -1.4679,-0.013 -3.5163,-0.1 -4.9649,-0.02 -2.2198,0.01 -2.1183,3.1261 0.076,3.1484 2.8338,0.2254 5.4367,-0.2233 10.2285,-0.123 l 13.6367,0.2871 4.0352,0.084 -0.1934,16.1797 c 0.028,0.8972 0.1072,1.6898 0.1563,2.5527 -0.034,0.2753 -0.1021,0.6288 -0.1016,0.8223 0.01,2.0166 -0.1727,10.5394 -0.6015,12.1894 -0.4108,1.5806 -0.7911,2.7658 -4.0782,3.5391 v 0.01 c -2.8308,0.6669 -7.8617,1.0235 -17.205,1.0235 -2.5645,0 -4.8278,-0.2489 -6.8614,-0.3203 -2.2861,0.1721 -2.1265,3.6946 -0.1425,3.5722 2.299,-0.035 4.2827,-0.2279 7.1992,-0.2109 7.9067,0.047 14.4942,-0.52 17.9219,-0.6289 1.311,-0.049 2.3688,-0.06 2.5937,0.078 0.3689,0.2268 0.6354,2.0998 0.8262,4.6875 0.1197,1.7185 3.0012,1.8602 3.3515,0 l -0.039,-4.7461 h 6 l 4.2929,-0.291 0.033,5.0371 c 0.2202,1.7617 3.5432,2.1559 3.9942,0 -0.2275,-3.6663 -0.2691,-5.1712 0.7422,-5.5605 1.421,-0.547 2.6043,-0.9054 3.584,-0.8399 1.7933,0.1198 2.8414,2.0139 3.4589,6.4004 1.0032,2.4618 3.9849,1.5283 4.5157,0 0.6527,-3.7123 1.6401,-5.5576 3.0351,-5.8262 1.5291,-0.2945 2.3624,1.1491 2.625,5.8262 0.55,2.0108 3.9968,1.4961 3.7188,0 l 0.1289,-5.334 16.5332,0.3965 c 8.8399,0.3353 14.1428,0.6213 18.4414,0.8672 0,0.4284 -0.051,3.2157 -0.047,3.3613 0.089,2.8437 3.8875,2.6038 3.9805,0.3164 0,-0.055 0.014,-3.1246 0.018,-3.457 4.6273,0.2724 7.5628,0.4355 12.2871,0.4355 h 16.6679 l 0.025,3.4141 c 0.8755,1.5517 4.1123,2.2384 3.9043,0 l -0.018,-1.1309 c 0.1335,-0.5772 0.266,-1.3326 0.3848,-2.4472 l 3.0899,0.2676 c 1.5879,0.2248 2.2163,0.6633 2.5449,3.3105 0.039,1.769 3.8519,1.4775 3.7929,0 l 0.061,-3.541 h 0.1016 c 0.2245,0.1908 0.426,0.2 0.5957,0.016 l 4.375,0.1094 3.7031,-0.1309 0.047,3.5449 c 0.2913,2.1928 4.3773,1.717 4.0136,0 l -0.055,-3.6835 6.6075,-0.2032 3.1464,-0.094 0.061,3.9804 c 0.4226,1.3082 4.1966,1.2497 4.0312,0 0.032,-1.2788 0.041,-2.8635 0.1211,-3.6757 5.9332,0.7618 23.0154,0.782 30.045,0.3789 1.3828,-0.079 2.3346,-0.064 2.916,2.5097 0.4802,2.2809 3.3454,2.4432 3.3691,0.5332 -0.4131,-3.8238 1.0918,-3.603 6.8867,-3.9296 1.2432,0.014 1.3077,-3.0414 -0.5527,-3.1524 -3.0889,-0.1747 -4.8611,-0.048 -6.2812,-0.7031 0.077,-2.8817 -0.081,-7.3114 -0.3907,-13.582 l 0.2364,-21.8868 6.9414,-0.2695 c 2.1456,0.021 1.6941,-2.9019 -0.1192,-3.0215 -7.6585,-0.3654 -6.6798,-0.8127 -6.8203,-3.8574 -0.206,-4.4696 0.6316,-4.7625 3.8145,-5.0527 1.0996,-0.1002 2.1666,-0.077 3.6504,-0.127 2.2889,0.1082 1.5535,-2.2181 -0.2852,-2.0723 -5.3403,-0.091 -6.6282,0.1932 -6.6582,-3.5039 l 0.3418,-5.2011 6.4941,-0.1309 c 2.5088,0.1468 2.1265,-3.0671 0,-3.1074 -5.0685,-0.3437 -6.0085,0.526 -5.9882,-3.2715 l -0.01,-4.7207 6.2754,-0.2617 c 1.8082,0.079 2.5192,-3.2126 -0.4375,-3.1934 -3.4233,0.1477 -5.2486,0.1232 -5.3457,-0.9472 0.1579,-12.1241 0.1521,-25.0346 0.1855,-37.7305 1.0701,0 5.4607,-0.048 5.6582,-0.039 2.0012,0.094 2.4604,-2.7331 0.5371,-2.8261 -0.6166,-0.03 -3.6812,-0.071 -6.1797,-0.1114 0.04,-12.7088 0.1272,-25.1606 0.4688,-36.3261 l 4.4473,-0.252 c 2.1682,-0.2745 2.8746,-2.8665 0.014,-2.959 l -3.416,-0.088 c -0.6029,-3.7183 -0.4847,-5.7249 0.027,-8.7988 l 3.3867,-0.092 c 2.6602,0.5325 2.2912,-4.0946 0,-3.9707 l -4.5899,-0.1172 0.051,-5.2598 c 0.028,-3.0155 1.5459,-2.7533 4.0293,-3.0449 1.7847,-1.312 2.6951,-2.6091 0.5996,-3.8418 -4.1894,-0.2996 -4.6588,-0.4187 -4.7793,-3.959 -0.1074,-3.1576 0.4615,-3.2671 4.6914,-3.5039 1.2516,0.5979 3.3492,-2.9663 -0.123,-3.0703 l -4.7735,-0.1328 0.07,-4.6543 v -0.1582 c -0.011,-1.3615 -0.1466,-2.0624 -0.3379,-5.3164 -0.1915,-3.2551 -0.4394,-7.0665 -0.6739,-10.6465 -0.5296,-8.0819 -0.9517,-13.2473 -1.1289,-15.707 -0.035,-1.5838 -1.4373,-0.63 -2.2343,-0.5176 -0.4779,0.067 -1.0926,-0.4693 -1.2696,0.5137 0.01,2.2042 0.8318,5.5947 0.8242,11.2285 0,1.1291 0.064,2.4652 0.1661,3.916 0.1021,1.451 0.2406,3.0157 0.3847,4.5996 0.2885,3.1684 0.5981,6.4121 0.6797,8.9785 l 0.1641,3.1133 0.025,4.6289 -4.67,0.086 c -5.4444,0.2815 -19.0116,0.6949 -29.9667,0.078 l -0.2676,-2.7949 -0.4942,-14.7227 c 0.2374,-8.9472 0.1017,-15.1837 0.3067,-18.1836 -0.5096,-1.1982 -1.1741,-0.7564 -1.9336,-0.8281 -0.7595,-0.072 -1.4948,-0.7075 -2.1074,0.7773 l 0.1621,15.1309 -0.1172,4.2676 c -0.2017,7.287 -0.1703,11.2785 -0.5899,13.5136 -0.491,2.6275 -1.6078,2.7964 -4.5625,2.5118 l -4.3379,-0.4161 -0.018,-2.0527 -0.055,-8.1953 c -0.012,-1.9548 -0.093,-4.166 -0.1758,-6.3867 -0.1155,-3.3596 -0.2187,-6.676 -0.1094,-9.1992 h -0.043 c 0.025,-0.6339 0.062,-1.221 0.1191,-1.7325 l -0.01,-7.5879 c -0.491,-1.0743 -1.62,-0.7182 -2.584,-0.5273 -0.5785,0.1146 -1.0903,-0.079 -1.4746,1.1621 l 0.059,8.2168 c 0,0.1226 0,0.3416 0.016,0.4688 0.057,4.5759 0.1634,11.9753 0.2031,16.8652 l 0.061,6.916 0.02,2.2227 h -4.6661 -4.6679 l -0.018,-2.2227 -0.1231,-15.1113 0.1583,-17.7988 c 0.01,-1.1151 -1.0421,-0.4121 -1.7618,-0.4141 -0.7197,0 -1.7698,-1.0956 -1.9531,0.4766 -0.2432,2.0876 0.2277,5.7012 0.5996,18.0703 7e-4,0.023 0,0.032 0,0.055 0.1238,4.1207 0.2075,7.2142 0.2207,9.5644 0.013,1.9739 -0.04,3.2911 -0.1406,4.3477 -0.024,0.2581 -0.034,0.5976 -0.066,0.8125 -0.2964,1.9796 -0.9344,2.2226 -2.1309,2.2226 -1.4453,0 -2.9012,-0.45 -3.2363,-1 -0.061,-0.1 -0.1263,-0.6794 -0.1914,-1.2226 -0.1302,-1.0839 -0.2617,-3.1622 -0.3848,-5.5274 -0.1521,-3.017 -0.2969,-6.6102 -0.3828,-10.6562 -2e-4,-0.01 2e-4,-0.017 0,-0.027 l -0.1601,-7.5683 -0.1192,-8.9551 c 0.1283,-1.161 -0.5992,-1.0126 -1.4551,-1.1543 -0.8559,-0.1423 -1.9613,-0.8708 -2.5371,0.8594 l 0.1367,9.25 0.047,5.9023 0.023,2.7676 0.123,15.1113 0.019,2.2227 h -16.6679 c -5.7608,0.08 -9.0038,0.11 -12.4805,0.1289 -0.065,-17.1419 -0.1309,-35.3008 -0.1309,-35.3008 0.019,-1.779 -0.9302,-1.6817 -1.914,-1.6641 v 0 c -0.9838,0.018 -1.9726,0.6902 -1.9726,1.5312 0,3.1353 0.067,8.8086 0.1191,11.8438 0.015,0.9123 0.072,14.2091 0.1192,23.623 -4.279,-0.013 -8.4894,-0.1083 -15.6075,-0.3457 -11.5436,-0.1416 -20.5104,0.5878 -20.3125,-1.5332 0.011,-0.1138 0.014,-0.3865 0.023,-0.5078 0.097,-1.1089 0.1843,-2.6444 0.2441,-4.6523 0.01,-0.303 0.02,-0.4841 0.027,-0.8145 0.06,-2.6515 0.062,-6.2129 -0.047,-11.2793 l 0.3144,-16.707 c -0.08,-1.9173 -0.7424,-1.3889 -1.5488,-1.4902 -0.8064,-0.1014 -2.1909,-0.7305 -2.2461,1.705 -0.073,3.2126 0.8859,10.5806 0.1875,21.6895 0.054,5.1806 0.3264,6.2634 -0.098,11.6699 -0.026,1.1477 -1.666,0.6779 -4.2344,0.7656 -2.5479,0.087 -2.668,-0.3084 -2.5977,-0.8359 -0.1182,-4.2335 0.1418,-7.7779 0.1407,-10.8262 0.01,-10.7341 1.2956,-19.7663 1.3906,-22.4375 0.5112,-2.4804 -1.3428,-3.0084 -2.5645,-3.0215 z m -19.4297,42.4493 c 5.5111,0 6.0026,0.2702 6.0274,3.332 0.024,3.0617 -0.4631,3.334 -5.9727,3.334 -5.5111,0 -6.0025,-0.2723 -6.0273,-3.334 -0.024,-3.0618 0.4615,-3.332 5.9726,-3.332 z m 14.0469,0 c 3.7195,0 4.0933,0.3643 3.7402,3.666 -0.3082,2.8821 -1.181,3.7576 -4.0664,4.0898 -2.3938,0.2756 -3.9523,-0.3054 -4.4863,-1.6679 -1.4371,-3.6674 0.4759,-6.0879 4.8125,-6.0879 z m 93.4414,0 c 1.7898,0 2.5198,0.9563 2.5391,3.332 0.021,2.6144 -0.6517,3.334 -3.1211,3.334 -2.6394,0 -3.0506,-0.5397 -2.5391,-3.334 0.3935,-2.1502 1.5013,-3.332 3.1211,-3.332 z m 9.9336,0 c 4.4014,0 4.7281,0.2725 4.3652,3.666 -0.2988,2.794 -1.1997,3.7598 -3.7753,4.0605 -4.1079,0.4795 -5.2873,-0.5444 -5.3204,-4.6152 -0.022,-2.6777 0.6378,-3.1113 4.7305,-3.1113 z m 13.334,0 c 4.4013,0 4.7243,0.2725 4.3613,3.666 -0.3268,3.0553 -1.1128,3.7358 -4.7207,4.084 -4.0322,0.3892 -4.3323,0.1388 -4.3633,-3.6661 -0.031,-3.7935 0.3061,-4.0839 4.7227,-4.0839 z m -105.8711,0.051 c 2.0725,0 2.6739,0.8889 2.6992,4 0.025,3.1111 -0.5588,4 -2.6328,4 -2.0741,0 -4.2267,-0.9396 -4.2519,-4.0507 -0.025,-3.1111 2.1114,-3.9493 4.1855,-3.9493 z m 72.2031,0.055 c 2.0627,-0.1322 2.2524,0.5502 2.2715,2.9102 0.015,1.8492 -0.9199,3.7287 -2.0762,4.1738 -1.1565,0.4451 -10.8534,0.8106 -16.6601,0.8106 -3.9832,0.065 -7.3703,0.056 -10.4453,0.017 -0.013,-3.4833 -0.014,-3.7984 -0.027,-7.4433 7.9211,-0.027 16.2693,-0.087 24.1875,-0.098 1.1673,-0.1932 2.0625,-0.327 2.75,-0.3711 z m 42.4102,0.2344 16.8164,0.125 c 8.9866,0.2991 16.7462,-0.2678 17.5976,0.2559 0.8472,0.5235 0.9009,2.4813 0.5293,3.9472 -0.5372,2.1202 -1.6617,2.3917 -5.5234,2.3887 -2.9654,0 -9.6328,0.4256 -16.418,0.1836 -12.2621,-0.4373 -13.1011,0.6383 -13.1289,-2.7852 z m -101.1582,0.2481 c 1.3539,0.01 2.8725,0.044 4.5722,0.098 8.4284,-0.068 15.7271,-0.065 23.4688,-0.096 0.015,3.1997 0.023,3.8558 0.037,7.3496 -6.6637,-0.1457 -12.0722,-0.3766 -18.7168,-0.2344 -14.8763,0.313 -17.4524,0.7706 -17.4648,-2.3086 -0.018,-4.3687 -1.6987,-4.4792 4.5234,-4.7558 1.037,-0.047 2.2262,-0.062 3.5801,-0.053 z m 54.1777,10.0761 v 0 c 5.1567,0.062 6.9126,1.1617 6.9356,3.998 l 0.033,4 h -16.4453 c -5.5705,0.1757 -9.3692,0.2112 -12.8223,0.209 -0.01,-2.8181 -0.017,-4.1873 -0.029,-7.5723 7.1472,-0.3564 13.705,-0.7007 22.3281,-0.6367 z m -92.3457,0 c 6.0332,0 6.0793,0.036 5.6992,4.2304 -0.4183,4.6144 -0.943,4.9087 -7.3828,4.127 -3.7879,-0.46 -4.3413,-1.0208 -4.3691,-4.4414 -0.03,-3.7598 0.2102,-3.916 6.0527,-3.916 z m 116.6348,0.1113 c 0.4462,0 0.933,0.033 1.4609,0.1074 2.4712,0.3492 3.2549,1.3878 3.6094,4.7793 0.4188,4.0055 0.1555,4.334 -3.4863,4.334 -3.1479,0 -4.1216,-0.7099 -4.8516,-3.5273 -0.9695,-3.742 0.1443,-5.6698 3.2676,-5.6934 z m -8.4961,0.1387 c 1.1838,0.2167 1.8483,1.1436 2.3476,3.0703 0.4941,1.9064 0.9453,4.7383 0.1231,4.7383 -1.1955,1.9602 -5.9444,1.507 -6.7891,-0.6485 -1.3301,-3.3942 0.048,-6.734 2.9492,-7.1504 0.5227,-0.075 0.9746,-0.082 1.3692,-0.01 z m 59.4648,0.4062 c 6.1689,0.01 6.3351,0.1144 6.3672,4.0742 l 0.031,4.0665 -16.5196,0.6875 c -9.1653,-0.1555 -17.112,0.445 -17.4843,0.074 -0.3723,-0.3693 -0.6912,-2.46 -0.709,-4.6465 l -0.031,-3.9766 11.7715,-0.2422 c 6.0538,0.471 13.0909,-0.037 16.5742,-0.037 z m -154.998,0.01 c 2.5856,0 3.4116,0.7712 3.75,3.498 0.355,2.8615 -0.2044,3.6189 -3.0723,4.168 -3.735,0.7151 -5.2171,-1.0372 -4.4394,-5.2539 0.2869,-1.555 1.6237,-2.4121 3.7617,-2.4121 z m 53.6582,0.1367 c 0.011,2.9124 0.013,4.4648 0.022,7.3926 -5.0958,-0.058 -10.0081,-0.1973 -18.9707,-0.1973 l -17.1172,0.051 -0.027,-3.332 -0.027,-3.334 17.1172,-0.051 c 7.7225,-0.039 13.5648,-0.2743 19.0039,-0.5293 z m 64.3281,0.5313 c 4.2961,0 4.6714,0.3175 4.7012,4 0.03,3.6826 -0.3406,4 -4.6367,4 -4.2963,0 -4.6673,-0.3174 -4.6973,-4 -0.03,-3.6825 0.3365,-4 4.6328,-4 z m -105.7812,0.051 c 1.9555,0 2.6734,0.8895 2.6933,3.334 0.019,2.4444 -0.6832,3.3321 -2.6387,3.3321 -1.9556,0 -4.2262,-0.9404 -4.246,-3.3848 -0.02,-2.4445 2.2358,-3.2813 4.1914,-3.2813 z m 57.5156,10.8985 16.3574,0.3847 0.4531,3.6661 0.4512,3.666 h -16.7969 c -2.1533,0 -7.1144,0.2819 -12.6992,0.5156 0,-1.3965 -0.02,-5.5785 -0.029,-8.1465 4.2288,-0.1317 8.3661,-0.2051 12.2637,-0.086 z m -16.0332,0.2265 c 0.01,2.8372 0.011,5.4412 0.016,8.1387 -3.5844,0.1194 -7.2024,0.2051 -10.4394,0.1406 -4.2322,-0.084 -25.1182,0.7656 -26.2325,-0.3418 -0.4929,-0.4889 -0.9079,-2.2889 -0.9218,-4 -0.024,-2.9951 0.3645,-3.1113 10.4453,-3.1113 9.1339,0.049 18.3362,-0.4799 27.1328,-0.8262 z m 90.2148,0.5274 c 9.3676,-0.05 17.3146,0.2279 17.8672,0.5449 0.5525,0.3168 -0.1635,2.1417 -0.1504,3.9316 0.026,3.2434 1.1637,3.153 -11.7929,2.9297 -21.9873,-0.3791 -23.005,1.3863 -23.043,-3.2929 l -0.033,-4.0215 z m -156.3965,0.2969 c 5.8555,0 6.0743,0.1397 5.6973,3.666 -0.3509,3.2809 -0.9892,3.7094 -6.0566,4.0762 -5.5172,0.3993 -5.6631,0.3053 -5.6953,-3.6661 -0.032,-3.9515 0.153,-4.0761 6.0546,-4.0761 z m 12.668,0 c 3.6766,0 4.0476,0.3714 3.6953,3.666 -0.3065,2.8799 -1.1775,3.7584 -4.0547,4.0898 -3.2915,0.3791 -3.6674,0.01 -3.6972,-3.6679 -0.03,-3.6736 0.3829,-4.0879 4.0566,-4.0879 z m 94.5781,0 c 3.5555,0 4.0044,0.4444 4.0332,4 0.027,3.3016 -0.5121,4 -3.08,4 -1.7112,0 -3.5132,-0.3998 -4.0059,-0.8887 -0.4929,-0.4889 -0.9081,-2.2889 -0.9219,-4 -0.021,-2.5679 0.673,-3.1113 3.9746,-3.1113 z m 10.5235,0 c 3.7453,0 5.4915,1.932 5.5254,6.1093 0.011,1.2722 -1.5129,1.8907 -4.6524,1.8907 -4.2948,0 -4.6672,-0.3175 -4.6972,-4 -0.028,-3.5227 0.4271,-4 3.8242,-4 z m 10.0976,0.123 c 0.5952,-0.028 1.3709,0.028 2.3809,0.125 3.6136,0.3482 4.4107,1.0307 4.7871,4.0859 0.418,3.3935 0.099,3.6661 -4.3027,3.6661 -4.4166,0 -4.7583,-0.2904 -4.7891,-4.084 -0.023,-2.8536 0.138,-3.7083 1.9238,-3.793 z m -103.4082,0.047 c 1.2039,0.1643 1.4633,1.125 1.4844,3.7363 0.028,3.5049 -0.4582,4.0938 -3.3887,4.0938 -2.946,0 -3.3668,-0.509 -3.0293,-3.6661 0.2808,-2.6253 1.2433,-3.7886 3.3887,-4.0937 0.6374,-0.091 1.1436,-0.1296 1.5449,-0.07 z m 51.7696,9.8847 c 2.5993,-0.01 5.5078,0.05 9.2128,0.2129 l 13.8907,0.6114 0.088,9.5605 c -0.3086,11.4947 -0.4927,19.2845 -0.586,26.8477 -11.6168,-0.1416 -26.7017,-0.3256 -28.7304,-0.3399 -0.018,-10e-5 -0.2776,0 -0.2969,0 0.084,-16.2345 0.1953,-32.4626 0.1953,-33.9004 0,-0.1179 -0.01,-2.5454 -0.01,-2.8515 2.0561,-0.07 4.0337,-0.1351 6.2364,-0.1407 z m -10.0274,0.2579 c 0.013,11.7958 0,21.9543 -0.092,24.5879 -0.066,1.823 -0.032,6.6145 0.027,12.0761 -3.9523,0.01 -20.9481,0.1551 -34.8555,0.2696 -0.3916,-7.1869 -0.8354,-14.0024 -1.1504,-19.9766 l -0.1348,-16.6055 h 18 c 8.6515,0 13.7739,-0.185 18.2051,-0.3515 z m -57.5371,0.1777 3.6699,0.4219 3.6699,0.4218 0.5118,17 c -0.041,7.4683 -0.047,13.1833 -0.07,19.0274 -3.838,0.035 -4.613,0.042 -8.4043,0.078 0.09,-3.1517 0.1817,-6.0892 0.2695,-10.3222 0.1551,-5.6125 0.4607,-11.6553 0.4277,-17.4024 z m 102.668,0 0.086,10.5586 c 0.047,5.8071 -9e-4,13.926 -0.2578,18.8594 -0.1311,2.5018 -0.1742,5.0138 -0.2363,7.5234 -3.6795,-0.044 -4.626,-0.054 -8.0762,-0.096 0.1229,-3.489 0.262,-6.7738 0.3594,-11.8437 -0.769,-25.9318 0.3662,-24.1087 4.459,-24.5801 z m -106.668,0.016 0.1387,17.2578 c -0.1114,7.8682 -0.1969,13.6601 -0.2696,19.7188 -4.3126,0.042 -4.9115,0.068 -8.8125,0.1094 -0.6401,-9.3957 -1.5647,-18.6672 -1.4023,-26.9258 l 0.3516,-9.3321 4.9961,-0.414 z m 124.9219,0.084 c 1.0064,-0.036 2.2164,0.3385 3.6445,0.8848 1.7834,0.6823 0.741,3.7413 0.8633,18.7949 -0.1327,6.1439 -0.2929,11.7003 -0.4414,17.4082 -2.7447,-0.029 -5.2598,-0.054 -8.1582,-0.086 0.042,-6.1547 0.044,-12.31 -0.018,-19.1504 -0.1258,-13.9417 1.0902,-17.7433 4.1094,-17.8516 z m -106.3555,0.3027 c 0.5843,0.068 2.4307,0.024 2.7442,0.3477 0.6268,0.6474 0.3022,8.7765 0.8984,17.7598 0.4657,7.4376 0.626,12.9249 0.7324,18.2754 -3.2209,0.027 -4.4588,0.031 -7.8144,0.061 -0.1063,-5.4327 -0.2148,-10.758 -0.3125,-18.7109 -0.1132,-13.9405 0.2073,-16.8427 1.9453,-17.5118 0.573,-0.2205 1.2222,-0.2891 1.8066,-0.2207 z m 91.4395,0.4395 h 4 c 3.9474,0 2.992,-0.2406 3.8945,8.3125 0.5029,4.7667 0.079,13.37 0.168,18.6875 0.059,3.5403 0.068,6.4158 0.049,9.2324 -3.5054,-0.039 -5.2956,-0.056 -8.8262,-0.098 0.014,-2.5126 0.044,-4.9557 0.01,-7.7129 -0.057,-4.6115 0.1719,-12.9219 0.3613,-18.4219 z m 59.7558,0.5801 v 0 c -0.3257,13.8278 -0.3852,25.0071 -0.459,35.873 -4.437,-0.042 -9.1374,-0.045 -11.1836,0.07 -1.389,0.079 -12.5076,-0.013 -25.6543,-0.1445 0.2176,-4.9423 0.5049,-10.253 0.9708,-16.9805 l 1.2441,-18.7441 h 11.8125 c 7.9057,0.3463 15.4436,0.2086 23.2695,-0.078 z m -160.6894,37.998 c 0.9685,2e-4 1.7217,0.01 2.6875,0.01 -0.026,5.3654 -0.061,10.7616 -0.17,18.0567 -0.1484,9.8973 -0.5456,18.4473 -0.8828,19 -0.8354,1.3698 -6.7972,1.2758 -7.6718,-0.1211 -0.388,-0.6194 -0.4044,-9.3506 -0.027,-19.4024 0.068,-8.0371 0.1805,-12.991 0.3047,-17.5234 2.6571,0 3.0528,-0.018 5.7598,-0.018 z m 6.0976,0.016 c 2.7864,0 5.2068,0.014 7.8379,0.022 0.092,5.3799 0.1458,10.7086 0.4141,18.0352 l 0.1504,18.668 h -4.8535 -4.8516 l 0.7851,-7 c 0.4312,-3.85 0.7433,-12.2514 0.7012,-18.668 -0.06,-4.7354 -0.121,-7.7263 -0.1836,-11.0567 z m -15.334,0.014 c -0.073,5.9283 -0.1323,12.1041 -0.2656,19.3731 -0.6147,16.7957 -0.8405,18.0251 -3.3769,18.3886 -1.4952,0.2142 -3.146,-0.035 -3.67,-0.5547 -0.524,-0.5198 -1.0211,-9.2461 -1.1035,-19.3906 0.3842,-5.8109 0.1436,-11.8077 -0.2207,-17.789 3.3129,-0.01 4.7739,-0.021 8.6367,-0.027 z m 26.9141,0.018 c 10.5777,0.042 19.4805,0.1134 20.8086,0.2656 1.1777,0.135 6.84,0.25 13.9512,0.3555 0.1527,11.5872 0.3906,25.1441 0.5683,36.3594 -4.1426,-0.178 -9.0922,-0.2891 -17.1738,-0.2891 h -17.334 l -0.1523,-18.834 c -0.1046,-6.0316 -0.3674,-12.0276 -0.668,-17.8574 z m 38.3711,0.666 c 10.295,0.1367 18.7349,0.2057 29.0449,0.2988 -0.051,5.9162 -0.081,11.5931 -0.021,19.7383 0.031,4.2771 -0.4108,14.9098 -0.6894,17.9531 -1.0994,0.069 -9.2678,-0.1231 -15.8711,-0.541 -4.9722,-0.4302 -8.3561,-0.7588 -12.4336,-0.998 -0.1264,-5.1314 -0.1055,-20.2353 -0.029,-36.4512 z m 104.1582,0.2305 c -0.088,12.1011 -0.2224,23.955 -0.7949,38.5566 l -18.2246,-0.1055 h -18.666 c 0.3077,-18.0358 0.3559,-27.5914 0.7519,-38.2421 14.8301,-0.075 27.7873,-0.1543 36.9336,-0.209 z m -71.1992,0.1074 c 2.6455,0.024 6.0293,0.063 8.0644,0.084 -0.1902,11.5183 -0.033,23.5695 -1.2168,38.2676 l -5.9921,-0.2852 c -0.3891,-3.1082 -0.9292,-13.6219 -1.004,-22.5 -0.059,-6.9991 0.024,-11.4481 0.1485,-15.5664 z m 11.207,0.1152 c 1.2092,0.014 4.8292,0.046 5.6113,0.059 0.4691,0.01 2.5273,-0.018 3.1543,-0.014 -0.1642,8.39 -0.6973,16.9122 -1.7988,37.5253 l -4.3281,0.4161 -4.3301,0.4179 c 0.8875,-16.6402 1.526,-26.9743 1.6914,-38.4043 z m 19.6152,0 c -0.3302,12.1461 -0.7121,24.238 -1.3085,38.2364 h -4 -4 c 0.7601,-15.9787 1.0816,-27.331 1.2031,-38.2032 1.9297,0.01 5.4227,-0.023 8.1054,-0.033 z m -133.2128,39.5684 c 3.805,0 4.0596,0.2972 3.7031,4.334 -0.3187,3.6107 -0.9944,4.4042 -4.0469,4.7558 -3.3902,0.3905 -3.6655,0.067 -3.7012,-4.3339 -0.036,-4.4166 0.2515,-4.7559 4.045,-4.7559 z m 10.582,0 c 3.6826,0 4.0021,0.3717 4.0371,4.668 0.033,4 -0.4036,4.666 -3.0703,4.666 -4.0382,0 -4.8983,-0.9666 -4.9356,-5.5547 -0.027,-3.3086 0.4656,-3.7793 3.9688,-3.7793 z m 12.668,0 c 4.4444,0 4.6669,0.2236 4.7031,4.668 0.036,4.4444 -0.1826,4.666 -4.627,4.666 -4.4444,0 -4.671,-0.2216 -4.707,-4.666 -0.036,-4.4444 0.1865,-4.668 4.6309,-4.668 z m 8.666,0 h 17.334 c 9.3112,0.04 12.6394,0.1264 17.1816,0.2051 0.059,4.2288 0.1315,8.9566 0.1113,10.4668 -3.2998,-0.042 -6.6302,-0.104 -12.209,-0.1895 -13.7605,-0.2111 -22.4551,-1.3017 -22.4004,-2.8105 0.02,-0.55 0.025,-2.5007 0.012,-4.334 z m 37.5801,0.2402 c 1.5968,0.023 4.1188,0.064 6.0039,0.072 2.6585,0.017 6.1393,0.1569 9.7968,0.416 l 13.2989,0.9434 0.029,3.6718 c 0.022,2.6817 -0.7771,3.8896 -2.9629,4.4766 -1.6464,0.4422 -8.2437,0.8113 -14.6602,0.8223 -4.948,0.077 -8.0942,0.078 -11.4062,0.053 -0.018,-4.7066 -0.043,-8.895 -0.1,-10.4551 z m 36.1464,1.125 c 1.5901,0.1338 3.321,1.716 3.8555,4.6348 0.3773,2.0611 -0.3423,2.7637 -3.1738,3.0898 -3.2915,0.3791 -3.6694,0.01 -3.6992,-3.6679 -0.024,-2.8758 1.4274,-4.1905 3.0175,-4.0567 z m 30.3731,0.1875 h 18 18 l -0.047,5.1153 0.033,4 -7.668,-0.2696 c -29.0923,-1.018 -28.1173,0.9066 -28.2324,-2.6465 z m -18.3672,0.5098 c 1.882,0.034 2.2937,1.1229 2.3184,4.1602 0.02,2.3702 -0.7157,3.1113 -3.086,3.1113 -3.7046,0 -4.8969,-0.9848 -4.9219,-4.0664 -0.011,-1.377 1.296,-2.5402 3.2793,-2.9199 0.9947,-0.1904 1.7829,-0.2965 2.4102,-0.2852 z m 10.2891,0.6055 c 3.3777,0 4.0044,0.5172 4.0273,3.332 0.023,2.8148 -0.595,3.334 -3.9727,3.334 -3.3778,0 -4.0045,-0.5192 -4.0273,-3.334 -0.023,-2.8148 0.5949,-3.332 3.9727,-3.332 z m -128.5899,9.332 c 2.9206,0 3.336,0.5791 3.3692,4.668 0.033,4.0889 -0.3744,4.666 -3.295,4.666 -2.9206,0 -3.3379,-0.5771 -3.3711,-4.666 -0.033,-4.0889 0.3763,-4.668 3.2969,-4.668 z m 11.332,0 c 3.7778,0 4.0022,0.2969 4.043,5.334 0.043,5.3591 -0.4684,5.7593 -5.6308,4.414 -1.6532,-0.4311 -2.3488,-1.9475 -2.375,-5.1777 -0.034,-4.1876 0.2966,-4.5703 3.9628,-4.5703 z m 10,0.8574 c 0.6535,-0.01 1.5223,0.09 2.6758,0.2246 4.3112,0.503 4.6733,0.8905 4.7071,5.0645 0.035,4.2777 -0.2132,4.5215 -4.629,4.5215 -4.5144,0 -4.669,-0.166 -4.7089,-5.0664 -0.03,-3.7531 -0.011,-4.7213 1.955,-4.7442 z m 117.0079,0.2676 c 2.5376,-0.085 8.518,0.209 15.6679,0.209 v 0 l 18.2637,0.1738 0.033,4.0508 0.029,4.0488 -17.5156,-0.498 c -15.4349,-0.4392 -16.6357,-0.5118 -17.3379,-3.0489 -0.415,-1.4984 -0.4317,-4.1492 -0.4472,-4.6992 0,-0.1375 0.4588,-0.2081 1.3047,-0.2363 z m -106.9981,0.209 h 15.8926 c 7.3533,0.2527 13.7661,0.3665 19.9668,0.4023 -0.032,0.7437 -0.1303,6.6003 -0.1856,8.9903 -4.9656,-0.01 -10.2159,-0.059 -17.5996,-0.059 h -18 l -0.037,-4.668 z m 76,0 c 3.5556,0 4.0043,0.4444 4.0332,4 0.028,3.5555 -0.4131,4 -3.9687,4 -3.5555,0 -4.0024,-0.4445 -4.0313,-4 -0.028,-3.5556 0.4113,-4 3.9668,-4 z m 10,0 c 2.8148,0 3.3398,0.6222 3.3672,4 0.028,3.3777 -0.4879,4 -3.3027,4 -2.8148,0 -3.3358,-0.6223 -3.3633,-4 -0.028,-3.3778 0.484,-4 3.2988,-4 z m -25.5469,0.09 c 7.1428,-0.1989 8.2234,0.8043 8.6289,4.0567 0.4175,3.3497 0.1509,3.4823 -8.6328,4.3125 -4.9843,0.471 -11.9143,0.7773 -15.3965,0.8652 -2.1565,0.054 -4.1251,0.034 -6.1269,0.045 0,-2.9647 0.014,-6.3515 0.01,-8.9355 7.1129,0 13.9765,-0.1203 21.5175,-0.3438 z m 34.836,0.033 c 0.5953,-0.028 1.3708,0.03 2.3808,0.127 3.6137,0.3482 4.4109,1.0287 4.7871,4.084 0.4181,3.3934 0.098,3.666 -4.3027,3.666 -4.4166,0 -4.7563,-0.2904 -4.7871,-4.084 -0.023,-2.8538 0.1362,-3.7083 1.9219,-3.793 z M 2187,1401.373 c 3,0 3.338,0.5321 3.377,5.3321 0.035,4.2828 -0.4374,5.334 -2.4004,5.334 -3.4445,0 -4.2323,-1.1466 -4.2735,-6.2227 -0.032,-3.8519 0.408,-4.4434 3.2969,-4.4434 z m 11.8574,0 c 4.7788,0 6.156,1.6516 6.2031,7.4415 0.024,2.8728 -0.5547,3.2246 -5.3066,3.2246 -5.1702,0 -5.6706,-0.4084 -5.7051,-4.6661 -0.045,-5.5021 0.3557,-6 4.8086,-6 z m 8.6563,0 24.0996,0.1915 c 9.7901,0.2485 9.8941,-1.1231 9.914,4.789 0.015,4.4585 -0.2448,4.9293 -1.4668,4.9277 -12.9437,0.7578 -23.0936,0.2281 -31.5683,0.1036 l -0.5234,-4.3457 z m -136.3848,0.1856 c 1.5102,0.1463 2.1241,0.9838 2.6621,3.0605 0.4863,1.8771 0.5465,4.3164 0.1328,5.418 -0.9566,2.5469 -7.3432,2.6183 -8.332,0.1 -1.6634,-4.245 7e-4,-8.0895 3.6973,-8.5156 0.7333,-0.085 1.3363,-0.105 1.8398,-0.061 z m 7.2402,0.018 c 0.4103,-0.011 0.9445,0.1044 1.6348,0.289 1.6535,0.4422 3.757,0.8113 4.6738,0.8223 2.4745,0.027 2.145,7.5738 -0.373,8.543 -5.4941,2.1149 -7.2176,1.005 -7.2637,-4.6797 -0.031,-3.7811 0.097,-4.9424 1.3281,-4.9746 z m 98.6348,0.4629 c 2.7861,0 3.4084,0.71 3.7871,4.332 0.4238,4.054 0.1835,4.334 -3.7168,4.334 -3.8987,0 -4.1431,-0.28 -3.7851,-4.334 0.3197,-3.622 0.9287,-4.332 3.7148,-4.332 z m -17.3398,0.098 v 0 c 5.3171,-0.098 9.3635,0.1143 9.8496,0.5801 0.6478,0.621 0.8021,2.6716 0.3437,4.5586 -0.8262,3.4078 -0.9243,3.4316 -14.5859,3.4316 -6.3186,0.086 -10.8338,0.077 -15.4492,0.059 0.01,-2.8253 0.01,-5.3624 0.012,-8.0488 4.9329,-0.053 9.4665,-0.1341 14.1738,-0.3828 1.9701,-0.1041 3.8839,-0.1687 5.6563,-0.2012 z m -65.9864,0.5742 c 4.2963,0 4.6694,0.3179 4.6993,4 0.03,3.6825 -0.3385,4 -4.6348,4 -4.2963,0 -4.6694,-0.3175 -4.6992,-4 -0.03,-3.6821 0.3384,-4 4.6347,-4 z m 42.8535,0.055 c -0.054,2.4728 -0.1029,4.748 -0.166,8.0059 -4.7698,-0.028 -9.5765,-0.07 -16.4668,-0.07 -16.5135,0 -17.2076,-0.1125 -17.9589,-2.8985 -0.4297,-1.593 -0.5438,-3.2867 -0.254,-3.7617 0.2896,-0.4749 8.3592,-0.865 17.9278,-1.0664 6.6678,-0.1403 11.9336,-0.1661 16.9179,-0.209 z m 38.2286,10.0801 c 0.5044,-0.047 1.1644,0.01 2.0234,0.1074 l 3.6699,0.4219 0.064,13.2031 c 0.021,4.2401 -0.5976,13.9634 -0.6172,16.8496 -0.039,5.8417 -0.4646,6.5644 -3.5391,6.5645 -1.586,0 -2.5363,-0.086 -3.0996,-1.0176 0.1733,-3.4828 0.2405,-7.6155 0.1,-11.5742 -0.313,-8.5847 -0.1863,-14.9837 -0.209,-17.7813 0.1982,-1.9784 0.055,-6.5852 1.6075,-6.7734 z m -72.6504,0.5293 h 17.4941 c 6.5239,0.2891 11.6724,0.2796 16.7031,0.2832 -0.2925,15.5554 -0.4851,27.4677 -0.5644,35.3555 -5.8325,-0.2679 -11.2264,-0.5137 -18.5996,-0.9258 l -15.7871,-0.875 -0.01,-0.7324 c 0.2578,-3.0454 0.2439,-7.5961 0.3984,-15.2325 z m 66.8574,0.1289 c 0.2815,0.2456 0.3549,7.8583 0.7187,14.6309 -0.1373,0.6712 -0.2045,2.2116 -0.1875,5.2207 l -0.9218,16.8633 -16.3379,-0.3829 c -4.3251,-0.2471 -8.6588,-0.443 -12.584,-0.6269 0.049,-6.4552 0.1185,-18.4973 0.1641,-35.5215 4.4021,0.022 8.871,0.086 14.291,0.4375 7.8874,0.5109 14.5739,-0.8684 14.8574,-0.6211 z m -73.7676,0.055 c 1.5355,0.089 2.8708,0.5546 3.2891,1.2226 0.5566,0.8893 0.3144,11.8768 -0.125,23.6739 -0.139,0.722 -0.276,1.4935 -0.3945,2.4101 -0.6921,5.3477 -2.1686,6.5879 -4.2071,6.5879 -1.3833,0 -2.6319,-0.7635 -3.3515,-2.666 0.2315,-2.4602 0.2387,-6.6227 -0.1465,-13.2402 l -0.4922,-17.5059 3.8515,-0.4394 c 0.5296,-0.061 1.0644,-0.073 1.5762,-0.043 z m 92.2969,0.3476 c 2.8937,0 4.0876,0.1481 4.0527,13.0723 -0.03,11.0635 0.2573,22.5822 -1.416,22.543 l -6.5664,-0.1543 c -0.168,-5.3426 -0.2873,-14.3646 -0.3437,-21.3262 -0.1025,-12.6227 0.951,-14.1348 4.2734,-14.1348 z m 6.5937,0.1348 h 5.6446 5.6445 c -2e-4,1.9235 1.3968,36.2687 -1.1074,36.4981 -6.5435,-0.2106 -9.8286,0.3445 -10.4922,-2.5215 0.038,-2.7115 0.4301,-7.164 0.2109,-12.3867 z m 14.4493,0.064 c 10.829,0.3164 21.6813,0.022 32.498,0.6679 -0.07,1.3666 -0.2773,10.3195 -0.2187,16.3262 0.052,5.5336 0.377,10.0075 0.832,13.6953 -0.1247,1.386 -0.2131,2.8149 -0.2031,4.0469 0.1132,3.016 -22.0468,0.418 -32.5352,1.4746 l -0.5527,-3.8125 c 0.1556,-2.6437 0.1797,-5.6512 0.1621,-9.2383 -0.037,-7.6102 -0.5067,-23.1343 0.018,-23.1601 z m -143.4317,0.6015 h 4.543 4.543 l 0.2832,17.8418 c 0.058,3.6711 0.038,7.9846 0.1074,11.3907 -0.3312,3.5816 0.7707,5.17 -4.3555,4.5898 -1.9339,-0.2189 -5.3801,0.7018 -5.5097,-0.6895 l -0.1504,-2.1269 c 0.077,-0.4339 0.1832,-0.7846 0.1875,-1.3965 0.014,-1.9852 0.1,-9.4594 0.1894,-16.6094 z m 11.7871,0 h 4.5782 4.5781 l 0.096,10.1953 c 0.5199,5.6097 0.4471,15.0668 0.4726,18.2129 9e-4,0.1194 0.023,0.2119 0.029,0.3243 -0.4267,3.6162 -0.3837,4.0136 -3.5097,4.0136 -3.1618,0 -5.0828,-0.5016 -5.5508,-3.6504 v -0.4277 z" fill="#00B894" transform="translate(157.45988,-203.44013) matrix(1.0471985,0,0,1.0471985,-2284.3077,-1074.4295)"/>
</svg>