<?xml version="1.0" ?><svg height="250.74989mm" viewBox="0 0 227.40054 250.74989" width="227.40054mm" xmlns="http://www.w3.org/2000/svg">
    <path d="m 42156.773,14813.451 c -57.257,-1.483 -119.847,4.946 -185.65,22.897 -210.57,57.442 -269.151,247.208 -252.83,429.632 13.623,152.268 86.193,229.475 148.809,270.561 -27.491,16.829 -37.719,32.674 -39.055,39.209 -3.062,14.975 3.859,79.305 4.392,118.838 5.055,40.733 83.733,56.422 196.612,44.682 112.879,-11.74 173.71,20.964 286.59,21.683 104.768,0.668 160.266,-38.095 162.447,-64.871 2.181,-26.775 10.333,-77.567 11.93,-102.484 1.504,-23.469 -21.424,-43.513 -43.448,-53.586 60.859,-81.344 100.124,-177.539 115.024,-309.047 15.884,-140.195 -40.366,-262.031 -126.926,-331.276 -51.774,-41.417 -151.929,-82.975 -277.895,-86.238 z" fill="#FFFFFF" paint-order="markers stroke fill" transform="translate(-20.961766,50.608616) matrix(0.26458333,0,0,0.26458333,-10136.731,-3324.9398) translate(-3313.5291,-2437.8203)"/>
    <path d="m 39164.559,13258.261 c -5.751,-9.427 -4.349,-27.221 -0.03,-55.5 1.94,-12.679 3.27,-23.32 2.954,-23.641 -0.313,-0.324 -9.077,2.828 -19.473,7.004 -34.514,13.867 -90.979,22.733 -196.889,30.922 -171.588,13.269 -168.847,13.214 -244.129,4.83 -77.424,-8.621 -113.233,-16.587 -153.949,-34.235 -15.323,-6.641 -28.555,-12.037 -29.408,-11.989 -0.851,0.05 -0.263,18.609 1.311,41.247 2.726,39.204 0.237,43.131 -7.979,43.595 -4.044,0.237 -11.983,-69.833 -10.964,-102.109 0.695,-22.016 2.385,-28.931 9.019,-36.86 13.092,-15.65 49.342,-36.687 77.828,-45.166 28.505,-8.484 71.838,-12.758 75.548,-7.449 2.631,3.763 -2.778,5.443 -41.584,12.897 -15.405,2.96 -33.529,7.247 -40.278,9.528 -16.577,5.598 -52.052,31.88 -58.791,43.551 -5.258,9.106 -5.142,9.756 3.16,17.651 24.471,23.267 74.927,37.547 171.391,48.504 76.555,8.698 160.219,7.037 293.309,-5.827 92.156,-8.906 126.66,-15.57 150.844,-29.134 10.548,-5.917 12.45,-8.927 12.745,-20.166 0.537,-20.537 -12.034,-29.232 -80.349,-55.58 -7.207,-2.781 -29.759,-9.791 -50.111,-15.576 -58.635,-16.666 -57.858,-21.574 1.672,-10.567 89.033,16.46 144.872,44.039 154.612,76.364 1.224,4.069 0.311,24.693 -2.03,45.83 -2.344,21.137 -4.021,44.052 -3.729,50.919 0.29,6.868 -1.459,15.557 -3.892,19.315 -4.287,6.615 -6.566,8.604 -10.813,1.642 z m -386.57,-86.936 c -34.985,-2.947 -52.981,-6.27 -67.519,-12.474 -18.041,-7.697 -19.979,-9.593 -21.601,-21.137 -1.459,-10.367 -0.105,-14.167 7.423,-20.808 5.064,-4.469 10.812,-13.811 12.772,-20.766 3.22,-11.425 2.68,-13.801 -5.588,-24.618 -13.245,-17.327 -18.578,-36.697 -18.549,-67.393 0.05,-49.353 29.393,-99.53 72.37,-123.727 21.345,-12.018 25.179,-12.989 57.934,-14.67 30.291,-1.551 37.906,-0.684 55.826,6.357 11.949,4.695 28.584,15.336 39.222,25.09 20.171,18.499 22.23,18.899 10.607,2.051 -9.28,-13.45 -10.544,-27.541 -3.555,-39.644 3.586,-6.214 4.387,-13.355 2.557,-22.877 -3.089,-16.097 0.953,-20.79 10.957,-12.714 12.071,9.743 13.848,26.551 4.779,45.174 -6.754,13.864 -7.023,15.799 -1.754,12.584 3.426,-2.091 10.652,-11.986 16.055,-21.993 5.404,-10.009 11.294,-18.277 13.085,-18.38 7.321,-0.413 8.922,20.384 2.818,36.592 -7.123,18.923 -4.637,20.476 8.395,5.24 5.082,-5.943 11.475,-10.091 14.203,-9.216 7.202,2.306 6.871,15.968 -0.653,26.73 -8.445,12.079 -8.068,14.156 1.996,11.017 11.763,-3.67 15.934,4.206 6.678,12.606 -4.105,3.726 -16.784,9.967 -28.178,13.869 -18.517,6.341 -20.411,7.861 -17.835,14.307 1.585,3.965 4.371,20.584 6.19,36.929 3.195,28.723 2.931,30.545 -7.868,54.466 l -11.173,24.747 7.455,8.451 c 4.1,4.647 7.621,11.354 7.821,14.904 0.211,3.549 3.805,11.441 8.01,17.537 9.854,14.28 10.012,20.324 0.785,30.025 -11.842,12.455 -35.876,23.049 -65.397,28.823 -36.284,7.1 -61.287,7.716 -118.268,2.918 z m 150.27,-32.305 c 12.779,-4.9 23.186,-9.78 23.125,-10.846 -0.05,-1.064 -3.491,-5.767 -7.623,-10.452 -4.437,-5.029 -7.813,-13.824 -8.247,-21.482 -0.403,-7.131 -1.812,-13.93 -3.134,-15.109 -1.322,-1.18 -8.334,3.852 -15.581,11.186 -7.249,7.331 -21.074,17.564 -30.722,22.735 -34.833,18.678 -105.131,13.933 -146.107,-9.859 l -19.088,-11.083 0.513,9.116 c 0.324,5.741 -3.186,12.753 -9.48,18.939 -5.498,5.401 -9.88,11.86 -9.74,14.354 0.463,8.208 23.004,13.806 65.984,16.386 60.178,3.613 130.336,-2.472 160.1,-13.885 z m -51.149,-53.918 c 12.066,-7.079 18.349,-13.691 22.365,-23.544 3.073,-7.534 4.963,-14.26 4.2,-14.942 -0.764,-0.682 -6.331,0.485 -12.369,2.592 -11.886,4.147 -15.897,-0.477 -4.255,-4.909 5.991,-2.28 6.325,-3.494 2.186,-7.986 -4.329,-4.698 -3.568,-5.114 6.743,-3.669 10.763,1.507 11.732,0.846 13.122,-8.94 1.82,-12.826 7.442,-14.314 8.129,-2.148 0.706,12.51 9.669,10.493 13.551,-3.05 1.772,-6.19 2.717,-20.234 2.098,-31.206 -2.051,-36.292 -33.389,-77.518 -70.374,-92.575 -26.435,-10.765 -70.047,-7.468 -72.664,5.493 -1.009,4.995 1.464,7.749 9.477,10.551 10.277,3.592 10.462,3.958 3.515,6.984 -4.034,1.756 -7.231,5.013 -7.104,7.238 0.158,2.971 -1.196,2.997 -5.125,0.08 -4.411,-3.257 -5.664,-2.333 -7.117,5.248 -2.073,10.805 -7.842,12.627 -8.406,2.655 -0.282,-5.014 -1.962,-6.196 -6.13,-4.319 -4.348,1.957 -5.275,1.127 -3.818,-3.412 1.056,-3.297 0.392,-5.907 -1.478,-5.802 -1.867,0.106 -3.483,-1.385 -3.591,-3.315 -0.106,-1.927 3.149,-3.694 7.241,-3.923 6.17,-0.351 6.654,-1.264 2.844,-5.364 -3.581,-3.85 -6.204,-4 -11.897,-0.669 -11.015,6.443 -32.123,29.906 -37.456,41.637 -13.334,29.34 -16.299,73.697 -6.393,95.737 8.445,18.794 47.28,48.321 62.429,47.468 2.004,-0.106 3.479,-6.133 3.276,-13.375 -0.369,-13.148 -0.363,-13.153 3.984,-3.739 5.169,11.189 8.571,11.681 13.119,1.896 4.964,-10.683 10.528,-9.424 7.036,1.591 -3.831,12.086 -3.902,11.939 4.527,9.219 6.288,-2.028 7.012,-1.235 5.227,5.727 -2.038,7.952 -1.678,8.039 22.127,5.34 16.971,-1.922 29.213,-5.682 40.979,-12.582 z m -124.624,-54.038 c -0.398,-7.054 -7.439,-10.151 -11.852,-5.208 -5.304,5.935 -10.857,5.443 -6.412,-0.572 2.944,-3.984 2.135,-5.379 -3.813,-6.58 -9.856,-1.993 -5.878,-9.127 5.448,-9.767 7.371,-0.416 8.342,-1.68 6.009,-7.813 -1.875,-4.921 -1.472,-6.601 1.23,-5.137 2.425,1.316 3.86,-0.598 3.621,-4.83 -0.211,-3.857 1.127,-8.076 2.988,-9.377 1.917,-1.34 3.603,1.52 3.89,6.607 0.279,4.935 2.083,8.882 4.01,8.772 1.928,-0.106 3.631,2.022 3.784,4.732 0.185,3.204 2.697,4.15 7.186,2.701 3.863,-1.245 7.005,-0.503 7.129,1.686 0.131,2.154 -1.578,4.015 -3.774,4.139 -5.388,0.305 -12.671,11.578 -12.381,19.162 0.279,7.326 -6.649,8.785 -7.063,1.485 z m 71.77,-20.089 c -4.085,-4.258 -4.951,-7.291 -2.563,-8.961 2.418,-1.688 1.978,-3.497 -1.327,-5.474 -3.518,-2.102 -2.399,-2.797 3.884,-2.418 5.433,0.332 10.981,-2.288 14.444,-6.814 5.588,-7.308 5.624,-7.305 6.183,0.529 0.345,4.887 2.723,7.76 6.251,7.56 4.358,-0.237 4.837,0.827 2.049,4.603 -2.002,2.709 -2.404,6.051 -0.89,7.428 1.511,1.375 -0.59,2.141 -4.672,1.699 -4.079,-0.443 -9.614,1.24 -12.302,3.739 -3.929,3.655 -6.094,3.284 -11.057,-1.891 z m 43.988,-47.359 c -0.105,-1.914 2.057,-5.577 4.814,-8.142 7.402,-6.881 5.814,-10.878 -4.097,-10.317 -4.822,0.271 -8.853,-1.082 -8.964,-3.01 -0.105,-1.93 2.928,-3.684 6.746,-3.9 4.724,-0.266 7.45,-3.513 8.527,-10.151 0.869,-5.367 1.883,-11.36 2.251,-13.314 0.369,-1.954 3.5,1.032 6.96,6.641 3.46,5.607 6.241,8.219 6.183,5.804 -0.05,-2.415 1.638,-4.487 3.773,-4.608 2.136,-0.132 3.087,2.259 2.117,5.287 -1.003,3.129 0.519,6.241 3.526,7.202 2.91,0.935 4.493,3.168 3.516,4.969 -0.977,1.802 0.742,4.082 3.823,5.067 9.114,2.92 6.82,8.974 -2.704,7.146 -6.125,-1.174 -9.751,0.211 -12.247,4.706 -2.478,4.453 -4.166,5.111 -5.601,2.186 -1.543,-3.147 -4.087,-2.686 -10.241,1.861 -4.503,3.329 -8.274,4.485 -8.382,2.573 z m -86.186,-62.785 c 1.082,-1.996 -0.49,-3.489 -3.497,-3.32 -3.005,0.184 -5.375,1.888 -5.267,3.815 0.105,1.928 1.683,3.421 3.497,3.318 1.814,-0.105 4.184,-1.817 5.267,-3.813 z m 352.657,176.705 c -4.535,-2.622 -4.527,-3.678 0.05,-7.67 13.843,-12.05 14.351,-31.515 0.806,-30.749 -10.596,0.598 -6.82,-5.477 16.592,-26.686 24.845,-22.503 36.71,-45.86 37.487,-73.791 0.659,-23.723 -2.952,-34.683 -13.408,-40.721 -7.558,-4.363 -10.02,-4.229 -23.173,1.266 -20.039,8.372 -29.938,8.369 -36.534,0 -4.234,-5.371 -4.864,-9.529 -2.625,-17.345 3.578,-12.492 22.627,-31.899 34.393,-35.041 4.729,-1.261 12.587,-3.362 17.464,-4.671 12.692,-3.405 37.45,-30.293 41.387,-44.95 2.535,-9.445 2.125,-16.366 -1.694,-28.587 -7.112,-22.743 -9.945,-24.731 -33.374,-23.407 -24.47,1.38 -27.575,5.536 -26.88,35.958 0.419,18.348 1.135,20.097 8.408,20.715 11.7,0.993 10.038,7.102 -2.117,7.787 -15.318,0.866 -23.304,-11.415 -21.501,-33.066 3.374,-40.439 9.554,-47.14 45.348,-49.163 18.498,-1.043 22.435,-0.03 31.554,8.113 13.759,12.287 22.135,41.972 17.748,62.898 -3.555,16.956 -25.329,42.78 -39.188,46.477 -39.012,10.404 -51.622,18.094 -59.864,36.505 -4.019,8.977 -3.911,10.354 0.94,11.908 3.017,0.966 10.978,-0.911 17.69,-4.171 20.608,-10.012 37.258,-9.035 48.455,2.844 8.365,8.874 9.869,13.556 11.046,34.409 2.028,35.901 -6.681,60.68 -30.217,85.968 -18.274,19.633 -18.906,20.981 -16.547,35.285 2.491,15.105 -0.519,22.878 -11.436,29.54 -3.266,1.991 -7.734,2.138 -10.82,0.35 z m -615.681,-28.56 c -15.657,-1.996 -34.988,-9.419 -38.822,-14.902 -1.264,-1.809 3.363,-1.29 10.28,1.151 16.938,5.98 42.472,4.139 53.777,-3.879 5.048,-3.581 14.715,-11.955 21.482,-18.606 14.815,-14.562 36.903,-22.923 47.522,-17.988 8.19,3.805 9.954,13.348 3.819,20.616 -6.125,7.252 21.877,0.131 29.466,-7.505 6.504,-6.533 6.752,-26.03 0.461,-36.339 -5.022,-8.232 -26.86,-7.763 -37.735,0.808 -9.356,7.371 -15.254,4.54 -13.171,-6.325 3.386,-17.651 -17.069,-14.28 -25.103,4.134 -9.133,20.929 -17.225,27.979 -33.156,28.877 -18.588,1.05 -24.223,-4.564 -33.171,-33.037 -7.523,-23.942 -12.313,-31.21 -20.271,-30.759 -3.254,0.184 -4.829,-2.563 -4.397,-7.666 0.537,-6.343 2.596,-7.836 10.185,-7.381 12.268,0.732 23.578,-6.227 23.125,-14.23 -0.184,-3.452 -4.505,-9.759 -9.582,-14.014 -12.634,-10.594 -11.944,-16.171 2.436,-19.718 13.3,-3.281 17.635,-12.898 12.797,-28.405 -2.156,-6.912 -5.582,-8.703 -19.043,-9.951 -22.172,-2.054 -44.531,-19.571 -45.437,-35.591 -0.348,-6.154 1.511,-14.383 4.131,-18.286 6.507,-9.695 5.941,-12.437 -2.472,-11.96 -9.364,0.527 -41.68,-26.609 -54.298,-45.597 -13.127,-19.758 -13.97,-38.233 -2.891,-63.412 10.846,-24.653 38.003,-55.272 60.686,-68.423 32.526,-18.859 66.461,-13.606 73.444,11.365 2.61,9.341 13.124,14.628 12.658,6.365 -0.284,-5.014 18.446,-15.197 29.055,-15.797 14.236,-0.803 22.449,4.722 26.989,18.159 5.229,15.481 1.969,26.517 -12.079,40.881 l -10.644,10.884 8.163,7.763 c 18.315,17.413 2.886,41.049 -27.894,42.735 -11.565,0.634 -32.223,-15.837 -36.199,-28.861 -3.431,-11.233 -7.829,-14.227 -20.002,-13.611 -10.315,0.524 -26.965,13.545 -26.557,20.774 0.561,9.948 19.697,25.208 36.629,29.213 37.376,8.84 51.206,21.617 53.51,49.432 0.896,10.814 -0.79,15.465 -8.184,22.588 -8.11,7.813 -26.253,13.332 -26.551,8.076 -0.05,-1.024 5.143,-7.02 11.557,-13.324 12.735,-12.521 13.872,-20.063 5.23,-34.691 -5.63,-9.527 -25.2,-19.976 -36.242,-19.352 -9.637,0.543 -25.339,-8.057 -37.742,-20.671 -18.965,-19.288 -15.747,-39.678 8.334,-52.818 22.175,-12.1 49.55,-7.786 54.093,8.519 6.822,24.51 8.279,26.235 20.663,24.479 16.65,-2.36 18.786,-6.555 9.214,-18.08 -11.079,-13.34 -9.341,-20.911 7.768,-33.859 12.226,-9.253 14.209,-12.595 13.622,-22.975 -0.432,-7.629 -2.71,-12.795 -6.123,-13.89 -6.957,-2.228 -23.702,5.806 -31.035,14.893 -6.468,8.011 -19.389,9.93 -25.132,3.737 -2.131,-2.299 -4.672,-8.851 -5.649,-14.562 -2.388,-13.967 -15.191,-17.722 -36.07,-10.586 -35.496,12.134 -76.412,63.667 -74.695,94.071 0.693,12.284 3.9,18.759 17.34,35.012 19.362,23.412 39.662,38.764 44.336,33.529 1.749,-1.957 6.323,-3.739 10.162,-3.955 6.246,-0.353 6.415,0.105 1.604,4.305 -7.268,6.354 -18.67,28.703 -18.283,35.834 0.477,9.155 24.874,26.214 36.521,25.555 15.194,-0.855 28.908,11.384 32.249,28.787 2.486,12.953 1.662,15.892 -7.278,25.901 -9.677,10.839 -9.851,11.694 -4.313,21.385 6.751,11.813 3.897,21.134 -9.496,31.033 -7.46,5.514 -7.81,6.846 -3.039,11.599 2.963,2.955 7.987,13.93 11.16,24.389 5.614,18.507 6.096,18.997 17.927,18.328 10.496,-0.593 13.106,-2.625 19.091,-14.865 11.071,-22.641 36.595,-33.139 46.488,-19.12 3.755,5.319 6.149,5.709 14.317,2.333 14.133,-5.84 32.842,-2.349 41.798,7.803 5.909,6.699 7.968,13.85 8.94,31.064 1.211,21.464 0.821,22.672 -9.736,29.99 -7.768,5.385 -16.418,7.766 -29.453,8.1 -20.126,0.522 -27.554,-4.152 -24.647,-15.499 1.03,-4.021 0.901,-7.255 -0.29,-7.186 -4.466,0.263 -24.365,13.363 -35.659,23.496 -17.693,15.874 -33.185,21.922 -50.488,19.713 z m 495.62,-46.109 c -0.975,-17.966 9.479,-33.834 25.914,-39.272 22.385,-7.402 33.837,-1.675 39.496,19.755 3.929,14.878 10.699,15.083 28.173,0.856 13.525,-11.01 14.317,-12.656 11.805,-24.527 -2.286,-10.812 -1.409,-13.782 5.848,-19.773 6.913,-5.709 10.189,-6.409 17.19,-3.684 4.985,1.941 8.822,6.37 9.051,10.452 0.429,7.562 -4.564,9.795 -8.692,3.889 -1.372,-1.964 -4.962,-2.949 -7.977,-2.188 -3.963,1 -5.308,5.698 -4.866,16.974 0.556,14.164 -0.732,16.739 -14.13,28.231 -11.568,9.922 -17.48,12.571 -27.439,12.303 -11.37,-0.309 -13.255,-1.783 -18.058,-14.109 -7.3,-18.739 -9.738,-20.208 -24.105,-14.549 -12.19,4.798 -22.043,19.099 -21.372,31.009 0.184,2.986 -2.059,5.564 -4.95,5.727 -3.597,0.211 -5.457,-3.299 -5.888,-11.096 z m 15.702,-102.968 c -2.286,-2.041 -4.271,-5.762 -4.414,-8.268 -0.158,-2.681 -4.402,-4.322 -10.335,-3.987 -8.403,0.474 -10.528,-1.167 -12.785,-9.867 -1.706,-6.573 -6.064,-11.742 -11.778,-13.967 -6.518,-2.536 -9.225,-6.262 -9.62,-13.229 -0.563,-9.97 -16.844,-25.103 -22.646,-21.048 -1.611,1.127 -8.845,-3.234 -16.073,-9.69 -15.66,-13.986 -25.14,-14.275 -37.387,-1.141 -11.747,12.601 -25.946,13.551 -36.134,2.426 -9.556,-10.436 -27.491,-13.72 -37.366,-6.842 -6.393,4.456 -7.999,4.082 -14.309,-3.32 -3.91,-4.585 -7.649,-7.539 -8.313,-6.562 -0.661,0.974 -3.673,6.264 -6.691,11.752 -8.111,14.757 -25.108,15.086 -31.094,0.6 -2.404,-5.816 -7.784,-11.625 -11.955,-12.908 -10.256,-3.149 -25.513,3.634 -27.225,12.103 -0.985,4.866 -4.453,7.062 -11.807,7.478 -11.2,0.632 -16.479,5.577 -17.98,16.84 -0.677,5.077 -3.234,6.894 -9.019,6.407 -9.738,-0.819 -17.827,5.961 -17.343,14.54 0.437,7.763 -17.843,25.506 -26.799,26.012 -3.631,0.21 -9.593,-2.399 -13.242,-5.788 -3.653,-3.392 -11.007,-6.955 -16.348,-7.921 -12.771,-2.312 -21.59,-17.327 -19.862,-33.814 1.011,-9.637 -0.561,-14.764 -6.644,-21.658 -4.382,-4.967 -8.213,-13.338 -8.508,-18.602 -0.648,-11.454 10.554,-28.728 18.933,-29.202 3.439,-0.185 7.431,-4.925 9.374,-11.108 2.413,-7.681 6.355,-11.541 13.736,-13.456 9.808,-2.543 10.275,-3.533 8.895,-18.93 -1.322,-14.786 -0.535,-16.774 8.766,-22.104 8.268,-4.737 9.898,-7.715 8.54,-15.596 -1.291,-7.479 1.253,-13.003 10.964,-23.813 6.952,-7.739 14.868,-14.939 17.588,-15.994 4.174,-1.62 3.947,-3.195 -1.446,-10.036 -6.986,-8.866 -9.121,-22.375 -4.092,-25.887 6.217,-4.345 32.724,0.913 42.846,8.5 13.835,10.367 22.011,9.003 29.727,-4.953 9.753,-17.643 45.058,-45.764 67.88,-54.069 29.803,-10.847 59.143,-13.669 83.551,-8.045 46.88,10.804 73.004,29.869 87.414,63.794 6.146,14.472 7.533,23.783 7.323,49.128 -0.237,28.395 0.316,31.236 5.98,30.917 9.348,-0.529 18.488,10.389 19.196,22.931 0.606,10.723 1.154,11.089 15.531,10.386 17.13,-0.84 25.659,3.776 31.605,17.097 4.879,10.934 3.073,24.735 -4.89,37.387 -5.506,8.751 -5.393,9.151 5.021,17.833 12.83,10.696 13.367,14.385 3.663,25.197 -5.266,5.867 -6.944,11.529 -5.732,19.344 1.264,8.135 -0.132,12.348 -5.251,15.966 -3.832,2.704 -6.849,6.983 -6.707,9.506 0.413,7.31 -8.421,24.797 -13.732,27.188 -2.668,1.201 -6.723,0.514 -9.006,-1.527 z m -127.919,-112.677 c 16.213,-8.695 41.769,-36.447 41.182,-44.724 -0.656,-9.221 -7.834,-13.687 -19.355,-12.036 -9.516,1.364 -13.574,-0.132 -19.931,-7.334 -4.39,-4.974 -8.21,-13.171 -8.495,-18.214 -0.476,-8.44 -1.685,-9.101 -15.333,-8.329 -12.703,0.716 -15.565,-0.503 -20.021,-8.542 -6.781,-12.232 -21.316,-12.184 -25.203,0.08 -5.883,18.559 -32.647,31.696 -43.97,21.582 -7.694,-6.873 -5.493,-13.053 4.856,-13.638 10.593,-0.598 17.916,-6.562 17.482,-14.235 -0.316,-5.617 -8.282,-3.337 -30.709,8.798 l -14.923,8.076 3.052,23.739 c 2.46,19.151 5.477,27.088 15.605,41.068 6.904,9.53 16.518,19.62 21.366,22.42 8.416,4.855 9.145,4.624 16.037,-5.093 9.622,-13.575 21.3,-12.466 20.552,1.948 -0.292,5.604 1.596,11.297 4.237,12.769 9.256,5.161 36.221,0.964 53.571,-8.339 z m -47.667,-22.383 c -3.421,-7.6 6.657,-19.138 12.308,-14.09 5.764,5.145 3.46,16.426 -3.721,18.235 -3.323,0.835 -7.186,-1.03 -8.587,-4.145 z m -42.851,-11.634 c -3.297,-7.325 0.184,-15.833 6.604,-16.197 7.434,-0.421 11.07,8.816 6.114,15.523 -5.145,6.965 -9.779,7.21 -12.718,0.68 z m 157.345,-40.21 c 5.477,-20.17 6.928,-53.376 2.186,-50.063 -2.112,1.477 -7.218,1.114 -11.347,-0.803 -10.425,-4.845 -9.714,-24.355 1.085,-29.838 9.422,-4.784 9.374,-7.947 -0.327,-22.006 -8.473,-12.284 -8.916,-12.455 -17.166,-6.673 -4.142,2.905 -8.777,3.192 -15.72,0.977 -7.792,-2.485 -9.975,-5.393 -10.457,-13.924 -0.519,-9.146 -2.652,-11.502 -14.062,-15.531 -21.669,-7.65 -51.177,-7.126 -76.722,1.361 -20.801,6.91 -22.475,8.211 -21.454,16.653 2.049,16.932 1.075,21.203 -5.777,25.384 -5.588,3.411 -8.482,2.681 -15.987,-4.021 -5.037,-4.5 -9.93,-6.77 -10.867,-5.04 -0.937,1.728 -0.05,4.042 1.983,5.143 4.919,2.67 5.706,20.171 1.135,25.287 -1.999,2.239 -3.455,11.929 -3.231,21.535 0.389,16.9 0.65,17.332 8.073,13.43 5.528,-2.905 7.034,-6.065 5.396,-11.315 -2.694,-8.637 8.355,-23.642 17.806,-24.174 6.786,-0.384 15.981,7.55 20.081,17.327 1.388,3.308 5.383,5.851 8.88,5.654 3.497,-0.211 14.485,1.266 24.42,3.252 17.314,3.465 18.341,3.26 24.837,-4.919 14.489,-18.238 38.967,-5.351 30.615,16.118 -2.818,7.239 -2.036,9.701 4.934,15.547 10.307,8.642 13.843,8.513 18.891,-0.687 5.672,-10.336 20.498,-10.352 25.925,-0.03 3.378,6.428 3.223,10.781 -0.708,19.921 -6.039,14.035 -6.144,18.794 -0.366,16.529 2.367,-0.927 5.94,-7.718 7.944,-15.094 z m -117.741,-61.062 c -7.515,-2.549 -6.483,-21.198 1.443,-26.033 9.024,-5.506 15.613,-3.354 18.659,6.091 1.543,4.779 0.132,10.017 -3.963,14.588 -6.551,7.337 -8.445,7.966 -16.139,5.354 z m 10.399,-15.597 c 1.006,-1.859 0.184,-4.279 -1.857,-5.377 -2.027,-1.101 -3.547,0.458 -3.378,3.463 0.347,6.159 2.504,6.946 5.235,1.914 z m 42.93,5.872 c -8.532,-7.621 -7.716,-17.04 2.104,-24.297 13.445,-9.935 23.77,-7.347 25.893,6.494 0.974,6.356 0,13.927 -2.117,16.824 -5.146,6.962 -18.61,7.473 -25.877,0.979 z m 11.449,-17.261 c -4.753,-4.245 -9.119,-0.511 -5.485,4.693 1.409,2.014 4.111,2.578 6.004,1.256 2.312,-1.617 2.141,-3.574 -0.519,-5.949 z m -91.577,-8.558 c -4.945,-4.413 -6.42,-16.216 -2.788,-22.304 3.486,-5.846 16.065,-8.94 22.867,-5.624 7.91,3.86 8.324,17.49 0.764,25.153 -7.184,7.278 -14.686,8.276 -20.843,2.775 z m 16.29,-10.438 c -0.185,-3.329 -8.387,-10.404 -11.829,-10.209 -3.252,0.184 -3.144,12.06 0.132,14.988 2.68,2.394 11.886,-1.372 11.694,-4.779 z m 33.421,-4.224 c -7.231,-6.457 -7.331,-8.161 -1.08,-18.246 6.573,-10.615 17.683,-10.986 23.052,-0.771 8.758,16.663 -8.184,31.33 -21.969,19.017 z m 11.439,-10.944 c -0.158,-2.894 -1.875,-5.169 -3.802,-5.061 -1.928,0.105 -3.374,2.565 -3.21,5.456 0.158,2.891 1.874,5.169 3.802,5.061 1.93,-0.105 3.373,-2.565 3.21,-5.456 z m 62.595,112.098 c -0.158,-2.891 -1.819,-4.195 -3.681,-2.894 -1.859,1.301 -3.25,4.729 -3.086,7.623 0.158,2.892 1.819,4.193 3.681,2.894 1.862,-1.3 3.249,-4.732 3.086,-7.623 z m -47.538,-32.273 c -0.334,-5.949 -9.417,-6.273 -12.576,-0.45 -2.402,4.426 5.835,10.411 10.161,7.386 1.485,-1.038 2.57,-4.161 2.415,-6.939 z m -195.751,5.293 c 13.105,-5.851 11.826,-16.324 -2.276,-18.596 -9.327,-1.504 -12.705,0.08 -22.266,10.459 -6.202,6.725 -11.197,13.569 -11.105,15.207 0.184,3.418 21.703,-0.848 35.647,-7.07 z m 48.259,-1.657 c -0.105,-1.722 -2.67,-3.928 -5.719,-4.905 -3.049,-0.977 -7.547,-6.628 -9.996,-12.556 -3.715,-8.992 -4.935,-9.796 -7.355,-4.834 -3.233,6.63 0.685,20.036 6.915,23.657 5.686,3.299 16.366,2.399 16.155,-1.362 z m 55.483,-13.851 c -0.08,-1.398 -1.24,-3.523 -2.58,-4.721 -3.268,-2.918 -11.871,5.324 -9.338,8.948 2.246,3.212 12.139,-0.295 11.918,-4.227 z m 168.163,-11.254 c -0.158,-2.778 -1.807,-5.878 -3.663,-6.883 -4.313,-2.341 -8.134,4.46 -5.014,8.924 3.518,5.032 9.003,3.744 8.677,-2.041 z m -217.65,7.686 c -0.131,-1.443 -1.801,-4.863 -3.755,-7.599 -4.4,-6.157 -8.911,-1.896 -5.656,5.343 2.407,5.343 9.785,7.115 9.411,2.256 z m -41.26,-12.331 c 0.995,-1.836 -0.872,-5.73 -4.148,-8.658 -6.917,-6.178 -30.701,-15.176 -33.079,-12.514 -2.472,2.771 7.56,12.411 19.692,18.918 12.35,6.625 14.98,6.962 17.535,2.254 z m 49.51,-18.317 c 0.456,-3.35 -1.422,-5.783 -4.337,-5.617 -5.543,0.313 -9.816,9.03 -6.064,12.379 3.744,3.347 9.54,-0.421 10.401,-6.762 z m 27.22,-27.173 c -0.429,-7.605 -1.351,-8.418 -5.332,-4.716 -2.646,2.462 -3.821,6.678 -2.61,9.369 3.624,8.055 8.501,5.201 7.942,-4.653 z m 139.089,-11.61 c -3.444,-3.073 -7.189,-4.55 -8.324,-3.278 -3.254,3.644 2.391,9.558 8.782,9.198 5.351,-0.303 5.314,-0.761 -0.458,-5.92 z m -378.544,337.956 c -5.138,-4.588 -3.029,-17.646 4.776,-29.577 10.339,-15.808 9.923,-20.274 -2.222,-23.787 -8.729,-2.527 -9.114,-3.188 -3.439,-5.909 3.515,-1.685 10.628,-1.845 15.805,-0.358 13.666,3.927 15.791,21.593 4.421,36.763 -5.472,7.302 -7.613,13.641 -6.02,17.825 1.83,4.808 0.743,6.591 -4.189,6.87 -3.666,0.211 -7.776,-0.616 -9.132,-1.827 z m 127.381,-13.256 c -10.383,-9.875 -11.257,-31.702 -1.259,-31.476 4.753,0.106 6.009,-2.575 5.491,-11.739 -0.848,-15.028 7.115,-16.329 13.89,-2.267 2.694,5.585 7.3,11.931 10.236,14.101 4.547,3.36 4.863,2.444 2.135,-6.156 -7.936,-25.03 -3.154,-46.059 8.511,-37.44 2.991,2.212 6.233,7.42 7.202,11.576 1.519,6.528 2.038,6.106 3.794,-3.108 4.74,-24.852 13.422,-36.315 21.822,-28.81 3.31,2.954 -0.898,48.894 -5.206,56.831 -4.092,7.542 -48.223,45.856 -53.136,46.132 -2.823,0.158 -8.89,-3.281 -13.48,-7.644 z m -255.605,1.809 c -4.166,-1.414 -11.189,-6.67 -15.605,-11.676 -11.721,-13.285 -13.619,-51.22 -3.434,-68.56 8.171,-13.906 29.853,-27.778 38.893,-24.881 4.896,1.569 4.127,3.175 -4.3,8.976 -18.935,13.032 -24.463,24.821 -23.085,49.242 1.129,19.974 2.196,22.689 11.294,28.74 19.847,13.2 20.402,13.83 15.394,17.414 -5.53,3.957 -9.28,4.102 -19.157,0.745 z m 655.234,-217.118 c -13.148,-11.739 0.105,-40.133 21.382,-45.777 10.512,-2.788 11.863,-4.387 10.457,-12.373 -1.943,-11.026 5.68,-29.451 13.672,-33.045 9.016,-4.058 9.861,-0.356 2.37,10.359 -9.072,12.98 -8.169,21.588 2.938,28.002 17.414,10.054 8.477,22.588 -14.825,20.793 -17.445,-1.346 -29.113,10.44 -25.216,25.468 2.786,10.739 -2.504,13.965 -10.778,6.573 z m 88.981,-10.188 c -4.943,-4.416 -2.61,-8.058 5.453,-8.513 16.682,-0.943 31.262,-24.542 27.32,-44.215 -1.261,-6.294 -4.458,-8.427 -14.133,-9.435 -6.875,-0.717 -14.485,-2.378 -16.91,-3.695 -5.427,-2.944 -6.402,-15.742 -2.21,-28.971 4.082,-12.879 -1.119,-35.307 -10.035,-43.27 -7.963,-7.112 -41.69,-7.01 -57.792,0.185 -8.498,3.791 -8.906,5.042 -5.548,17.016 5.558,19.839 5.55,38.717 0,44.952 -4.506,5.043 -6.025,4.94 -14.504,-0.987 -11.487,-8.029 -16.456,-8.021 -24.413,0.03 -5.177,5.245 -6.128,5.38 -6.381,0.906 -0.742,-13.185 23.46,-23.686 33.64,-14.594 5.443,4.861 5.406,3.858 -0.661,-18.269 -2.667,-9.722 -4.102,-21.559 -3.194,-26.304 2.459,-12.819 18.904,-20.729 47.962,-23.07 38.622,-3.11 50.554,5.048 55.881,38.217 2.069,12.887 1.448,21.358 -2.154,29.408 -6.818,15.233 -6.792,15.273 8.979,14.383 10.309,-0.582 15.32,1.119 19.721,6.701 8.721,11.068 9.227,37.896 0.937,49.751 -10.891,15.581 -34.288,26.609 -41.943,19.77 z m -545.962,-93.934 c -6.344,-10.398 -3.634,-34.933 4.695,-42.493 3.8,-3.449 13.548,-7.744 21.661,-9.543 20.992,-4.653 29.909,-15.054 28.858,-33.663 -1.006,-17.819 -7.571,-31.663 -16.045,-33.835 -6.983,-1.788 -22.482,4.29 -25.605,10.043 -3.242,5.978 -21.506,5.614 -28.426,-0.566 -4.827,-4.313 -5.838,-8.774 -4.514,-19.965 3.652,-30.888 2.115,-38.504 -8.684,-42.991 -12.558,-5.219 -29.393,0.653 -41.846,14.596 -6.888,7.713 -8.368,12.951 -7.583,26.838 0.597,10.613 -0.424,16.498 -2.655,15.289 -1.996,-1.085 -4.121,-10.709 -4.724,-21.392 -0.977,-17.301 0.106,-20.761 9.817,-31.644 12.421,-13.907 34.709,-23.349 48.755,-20.656 13.732,2.634 27.304,16.05 27.91,27.594 0.266,5.393 -1.351,17.496 -3.634,26.896 -4.937,20.332 -0.722,24.045 16.047,14.138 24.871,-14.696 46.788,-2.743 53.426,29.135 5.846,28.091 -7.373,46.211 -42.709,58.54 -8.315,2.899 -10.435,5.798 -10.799,14.767 -0.342,8.39 1.414,12.026 7.079,14.657 9.819,4.563 6.509,10.241 -6.391,10.967 -6.826,0.388 -11.652,-1.827 -14.633,-6.712 z m 429.566,-27.193 c -1.274,-1.823 -0.711,-6.771 1.256,-10.997 5.52,-11.884 -1.306,-15.133 -16.397,-7.802 -28.039,13.619 -39.847,7.083 -30.667,-16.974 9,-23.586 7.007,-38.082 -6.035,-43.923 -5.857,-2.62 -15.458,-4.492 -21.335,-4.161 -12.39,0.701 -14.225,-4.237 -3.916,-10.525 9.364,-5.714 27.947,-3.115 40.502,5.662 9.717,6.791 10.144,6.796 14.433,0.184 5.999,-9.258 5.306,-13.522 -3.889,-23.947 -15.412,-17.466 -41.092,-22.767 -54.627,-11.273 -3.584,3.042 -9.016,5.672 -12.076,5.846 -5.841,0.329 -18.296,-10.699 -18.623,-16.492 -0.105,-1.862 -4.144,-5.667 -8.976,-8.455 -6.865,-3.964 -12.456,-4.227 -25.564,-1.201 -26.712,6.164 -32.568,4.471 -33.366,-9.654 -0.595,-10.53 -1.783,-11.963 -9.556,-11.523 -26.335,1.488 -44.908,21.743 -39.942,43.559 2.765,12.148 2.578,12.593 -2.751,6.534 -8.622,-9.799 -8.78,-33.675 -0.29,-43.886 8.405,-10.109 31.839,-22.976 43.217,-23.726 15.542,-1.024 22.612,5.024 22.37,19.136 -0.132,7.12 1.261,12.613 3.078,12.208 33.032,-7.36 41.929,-7.473 51.686,-0.653 5.524,3.86 10.198,9.798 10.39,13.192 0.561,9.946 4.079,10.57 15.434,2.736 12.948,-8.937 22.459,-9.79 40.018,-3.592 17.714,6.252 32.65,19.442 36.136,31.908 3.191,11.415 -1.878,29.553 -9.18,32.836 -2.654,1.196 -4.684,4.985 -4.51,8.419 0.158,3.436 -3.071,14.746 -7.21,25.134 -4.142,10.389 -5.841,18.791 -3.779,18.676 2.062,-0.106 11.426,-3.413 20.808,-7.329 l 17.061,-7.117 7.194,7.897 c 8.129,8.921 9.219,14.972 4.524,25.081 -3.465,7.455 -11.602,9.688 -15.418,4.227 z m -306.814,-45.519 c -28.084,-25.082 -14.841,-66.506 21.927,-68.581 9.883,-0.558 27.573,10.834 27.978,18.017 0.356,6.283 1.004,6.215 15.244,-1.59 7.181,-3.937 15.271,-5.725 20.958,-4.635 11.768,2.257 12.422,8.498 0.959,9.145 -4.782,0.269 -14.889,3.384 -22.459,6.923 -16.189,7.56 -23.365,6.194 -25.577,-4.874 -1.34,-6.704 -4.016,-8.076 -16.134,-8.276 -9.841,-0.158 -16.258,1.698 -19.894,5.769 -10.017,11.218 -2.997,40.344 12.3,51.028 7.181,5.013 7.36,5.669 1.651,6.061 -3.521,0.237 -11.15,-3.802 -16.953,-8.987 z m 137.912,-13.59 c -12.224,-14.278 -22.857,-14.591 -42.03,-1.235 -15.644,10.899 -25.071,12.418 -35.054,5.651 -6.659,-4.516 -6.428,-4.727 3.768,-3.418 8.498,1.09 13.243,-0.848 21.754,-8.866 7.494,-7.065 16.081,-11.057 27.578,-12.822 15.791,-2.422 17.277,-1.906 27.517,9.538 5.954,6.654 12.63,11.997 14.831,11.873 4.482,-0.263 7.818,-8.371 7.289,-17.737 -0.424,-7.508 9.693,-18.388 17.511,-18.828 10.507,-0.595 24.005,6.746 24.373,13.253 0.44,7.781 -7.512,8.911 -13.956,1.983 -9.972,-10.725 -21.279,-3.223 -20.337,13.493 0.472,8.36 -8.199,18.009 -16.61,18.483 -3.621,0.21 -11.105,-4.911 -16.634,-11.368 z" fill="#00B894" transform="translate(-20.961766,50.608616) matrix(0.26458333,0,0,0.26458333,-10136.731,-3324.9398)"/>
</svg>