<?xml version="1.0" ?><svg height="287.80392mm" viewBox="0 0 265.91425 287.80392" width="265.91425mm" xmlns="http://www.w3.org/2000/svg">
    <path d="m 36377.818,14942.971 c -33.342,-0.822 -64.759,20.115 -64.759,20.115 0,0 -31.147,-14.792 -47.227,-15.248 -16.081,-0.457 -37.689,19.036 -42.66,44.053 -4.971,25.018 11.259,105.411 8.976,134.994 -2.282,29.582 0.05,26.34 24.706,6.892 24.653,-19.448 32.362,-56.015 34.087,-57.293 1.725,-1.278 25.262,36.112 62.545,56.655 40.125,25.793 78.168,9.952 103.836,-17.713 25.667,-27.665 23.335,-71.446 15.573,-100.846 -7.761,-29.399 -42.71,-60.762 -80.754,-69.801 -4.756,-1.13 -9.56,-1.691 -14.323,-1.808 z m -12.974,229.49 c -23.31,0.436 -49.848,17.191 -57.172,47.107 0,0 -12.136,206.643 -9.295,286.442 2.84,79.8 48.696,125.954 111.9,119.517 63.205,-6.437 55.678,-118.909 58.823,-138.494 3.145,-19.585 -9.91,-189.949 -19.498,-228.297 -9.587,-38.347 -55.849,-84.272 -80.147,-86.144 -1.519,-0.117 -3.057,-0.16 -4.611,-0.131 z m 648.674,430.613 c -9.023,-0.131 -18.093,0.315 -26.514,1.379 -33.684,4.254 -33.754,45.782 -42.281,73.057 -8.526,27.276 16.209,71.494 16.209,71.494 0,0 -4.727,11.777 -32.08,-3.418 -27.353,-15.196 -112.283,-5.624 -150.442,-1.141 -38.159,4.483 -129.673,-18.082 -152.467,-16.031 -22.794,2.051 -36.216,36.545 -36.216,36.545 0,0 -38.074,14.587 -58.926,31.074 -20.853,16.487 -77.162,35.557 -96.326,39.66 -10.366,20.394 22.948,32.931 33.67,34.602 10.722,1.672 39.425,-5.85 44.322,-6.762 4.896,-0.911 31.151,-21.272 37.23,-23.855 6.078,-2.584 33.854,-26.289 33.854,-26.289 0,0 16.125,63.137 41.789,84.107 25.665,20.97 108.397,22.488 169.519,17.93 61.122,-4.559 137.524,-26.591 158.799,-50.828 21.274,-24.237 15.112,-83.196 17.307,-93.073 2.195,-9.877 16.208,4.863 46.769,13.448 30.561,8.585 94.132,-4.331 117.686,-19.754 23.553,-15.423 17.473,-26.516 21.357,-44.826 3.883,-18.311 -9.876,-23.781 -32.923,-37.153 -23.047,-13.372 -39.342,-51.437 -49.219,-64.429 -7.409,-9.744 -34.049,-15.342 -61.117,-15.737 z" fill="#FFFFFF" paint-order="markers stroke fill" transform="translate(100.73735,79.462466) matrix(0.26458333,0,0,0.26458333,-8797.4196,-3384.4271) translate(-3313.5291,-2437.8203)"/>
    <path d="m 33242.602,13572.947 c -2.879,-5.217 -1.836,-7.228 7.904,-15.22 38.63,-31.711 72.88,-68.871 72.86,-79.053 0,-1.457 -5.717,-6.148 -12.696,-10.427 -24.89,-15.263 -38.523,-35.017 -44.917,-65.082 -2.321,-10.92 -5.108,-17.019 -7.774,-17.019 -2.285,0 -5.646,-2.295 -7.464,-5.096 -2.63,-4.046 -1.621,-8.011 4.901,-19.273 14.26,-24.626 10.042,-25.06 -17.748,-1.826 -32.626,27.281 -58.674,40.808 -87.462,45.423 l -21.882,3.508 6.792,5.339 c 11.045,8.682 18.62,8.959 35.64,1.306 16.242,-7.305 24.169,-7.33 24.169,-0.07 0,2.22 1.187,4.037 2.639,4.037 4.207,0 24.245,-22.768 24.245,-27.551 0,-5.068 6.324,-5.74 11.029,-1.175 2.361,2.293 5.077,2.228 9.815,-0.235 9.358,-4.859 10.481,-1.951 4.126,10.675 -4.919,9.775 -6.754,11.007 -16.025,10.772 -8.923,-0.231 -11.71,1.423 -18.861,11.175 -7.014,9.561 -9.701,11.199 -16.345,9.967 -4.678,-0.869 -12.546,0.798 -19.103,4.046 -21.342,10.567 -42.987,5.651 -57.732,-13.115 -8.09,-10.297 -10.682,-25.755 -5.209,-31.066 1.723,-1.674 13.077,-4.721 25.226,-6.768 26.222,-4.419 45.179,-13.714 92.04,-45.128 18.893,-12.665 35.852,-23.037 37.687,-23.051 1.838,0 6.963,-5.346 11.394,-11.844 17.639,-25.869 52.382,-31.88 106.829,-18.483 16.523,4.064 31.925,7.001 34.23,6.524 2.493,-0.518 -12.789,-18.427 -37.736,-44.227 -44.332,-45.842 -62.167,-77.581 -91.736,-107.932 -9.877,-10.14 -14.776,-22.782 -19.771,-25.646 -11.517,-6.602 -16.928,-18.239 -10.576,-22.746 3.558,-2.525 4.03,-5.081 1.947,-10.554 -5.693,-14.97 -20.958,-34.408 -33.115,-42.164 -6.926,-4.42 -22.134,-11.226 -33.793,-20.441 l -21.196,-16.75 -2.009,47.596 c -2.346,55.533 -7.958,87.514 -15.864,102.357 -2.684,5.038 -8.881,13.997 -13.774,19.907 l -8.894,10.747 13.684,14.774 c 17.065,18.423 69.361,93.809 73.945,106.594 3.866,10.78 0.07,18.062 -9.4,18.062 -6.163,0 -5.581,0.726 -40.654,-50.742 -14.128,-20.732 -31.802,-45.268 -39.275,-54.527 -13.57,-16.81 -13.606,-16.83 -25.712,-14.552 -6.671,1.255 -19.697,1.94 -28.955,1.522 -16.193,-0.73 -16.904,-0.455 -18.81,7.303 -9.596,39.049 -34.956,112.389 -48.333,139.778 -28.233,57.802 -69.488,111.945 -99.849,131.041 -8.153,5.129 -14.823,10.868 -14.823,12.757 0,8.222 29.026,40.813 42.791,48.046 25.121,13.201 28.925,21.98 12.644,29.18 -29.66,13.118 -90.745,-57.354 -81.317,-93.814 0.956,-3.701 6.165,-9.194 11.571,-12.21 33.238,-18.531 70.512,-64.197 99.619,-122.036 16.87,-33.526 52.189,-133.037 52.063,-146.688 0,-2.247 -7.095,-10.091 -15.718,-17.43 -20.701,-17.618 -30.305,-31.577 -39.754,-57.782 -7.656,-21.232 -7.831,-10.367 -8.902,-98.492 -0.602,-49.436 6.412,-103.583 4.631,-120.327 -5.802,-54.599 0.867,-110.127 5.117,-125.349 9.956,-35.662 22.101,-44.35 63.493,-52.369 50.343,-9.754 71.279,25.308 92.116,55.777 18.559,27.139 26.804,105.856 32.248,157.551 1.989,18.891 2.672,20.226 17.331,33.854 16.935,15.743 47.178,35.274 67.085,48.626 9.615,6.446 16.217,8.648 25.392,8.472 19.807,-0.386 30.009,4.453 48.008,22.768 17.892,18.207 27.024,34.642 24.142,43.454 -0.96,2.937 -0.351,6.179 1.354,7.202 1.704,1.021 14.113,15.158 27.571,31.412 13.46,16.254 44.043,42.781 67.965,69.578 23.923,26.8 49.543,55.679 56.937,64.181 l 13.441,15.457 40.53,-0.392 c 40.027,-0.388 40.759,-0.278 58.996,8.822 10.157,5.065 18.467,8.589 18.467,7.831 0,-0.762 -2.111,-5.344 -4.687,-10.183 -2.578,-4.84 -5.97,-16.523 -7.536,-25.964 -2.53,-15.252 -1.99,-19.51 4.847,-38.175 4.235,-11.555 8.921,-27.412 10.418,-35.24 4.756,-24.876 25.725,-39.108 51.534,-34.977 6.948,1.114 14.287,3.318 16.31,4.905 2.023,1.584 9.416,2.305 16.431,1.601 18.554,-1.864 39.011,4.795 49.061,15.965 4.673,5.193 13.725,18.162 20.117,28.818 10.377,17.302 13.818,20.494 32.157,29.85 13.285,6.775 22.63,9.83 26.465,8.648 9.694,-2.987 18.154,1.397 22.593,11.712 7.681,17.842 -1.97,36.08 -21.63,40.87 -5.283,1.286 -6.983,3.719 -6.983,9.988 0,11.609 -15.836,26.048 -42.441,38.695 -38.509,18.303 -79.644,18.87 -112.595,1.545 -8.936,-4.697 -16.729,-8.075 -17.316,-7.504 -0.586,0.569 0.314,4.563 2.004,8.876 1.689,4.311 3.069,18.062 3.069,30.554 0,21.155 -0.717,23.752 -10.453,37.796 -5.752,8.294 -10.456,15.757 -10.456,16.582 0,0.824 4.23,6.175 9.4,11.893 15.167,16.767 27.715,45.759 27.837,64.309 0.134,19.397 -6.377,42.504 -12.614,44.825 -10.073,3.752 -15.033,-6.297 -16.135,-32.698 -1.154,-27.619 -6.784,-42.432 -23.653,-62.25 -7.821,-9.187 -10.084,-10.386 -13.854,-7.351 -2.478,1.997 -14.101,8.345 -25.83,14.11 l -21.323,10.482 -12.958,28.083 c -7.129,15.445 -13.973,35.321 -15.209,44.17 -2.48,17.736 -10.696,28.792 -19.08,25.671 -4.108,-1.533 -5.027,-5.944 -5.027,-24.117 0,-19.487 1.304,-24.886 10.537,-43.585 5.795,-11.738 10.164,-21.646 9.707,-22.017 -0.455,-0.372 -17.632,1.14 -38.166,3.361 -20.537,2.217 -49.102,4.046 -63.478,4.059 -14.374,0 -26.136,1.095 -26.136,2.406 0,1.31 3.826,7.512 8.504,13.78 12.822,17.179 15.506,23.073 18.42,40.458 3.226,19.245 1.564,23.985 -7.828,24.4 -11.544,0.511 -11.544,-13.558 -14.001,-20.373 -7.306,-20.258 -32.73,-62.257 -39.124,-64.639 -2.128,-0.793 -11.136,-2.298 -20.02,-3.349 l -16.15,-1.907 -8.316,15.414 c -9.412,17.441 -27.642,37.62 -55.536,61.471 -15.015,12.837 -21.157,16.284 -29.019,16.284 -7.034,0 -10.951,-1.771 -13.287,-6.013 z m 196.457,-132.437 c -2.305,-38.821 -23.19,-122.601 -30.988,-124.31 -1.405,-0.307 -15.804,-4.092 -31.996,-8.408 -32.555,-8.677 -55.53,-8.852 -68.633,-0.518 -4.134,2.628 -11.986,13.604 -17.45,24.386 -8.79,17.343 -9.925,22.287 -9.846,42.844 0.07,19.391 1.386,25.638 7.946,37.735 9.223,17.008 35.722,42.044 44.504,42.044 1.058,0 4.868,-7.845 8.47,-17.432 16.185,-43.084 34.692,-40.687 22.63,2.932 -2.425,8.772 -4.424,17.466 -4.445,19.319 -0.04,4.165 29.6,8.809 59.395,9.309 l 22.092,0.37 z m 61.298,23.832 c 7.803,-0.946 14.188,-2.847 14.188,-4.23 0,-1.38 -1.393,-12.243 -3.098,-24.137 -5.91,-41.241 5.756,-78.213 29.402,-93.199 14.191,-8.992 44.561,-14.243 69.285,-11.98 l 19.417,1.776 -13.769,-8.482 c -17.403,-10.724 -32.306,-14.746 -54.734,-14.766 -22.703,-0.02 -70.398,5.878 -70.398,8.706 0,1.192 2.088,3.848 4.642,5.908 8.103,6.526 10.496,13.471 7.379,21.424 -2.26,5.769 -4.982,7.438 -12.142,7.438 -7.205,0 -12.835,-3.497 -25.661,-15.947 -12.45,-12.084 -18.552,-15.947 -25.195,-15.947 -10.026,0 -10.361,0.718 -4.47,9.527 11.119,16.616 25.702,74.105 30.072,118.558 l 1.905,19.356 9.495,-1.144 c 5.221,-0.629 15.88,-1.918 23.682,-2.861 z m 65.174,-11.787 c 8.923,-2.542 22.699,-8.015 30.61,-12.16 15.057,-7.89 15.079,-7.962 7.711,-25.748 -3.109,-7.503 -3.09,-10.032 0.112,-13.774 5.39,-6.304 7.447,-5.862 19.157,4.118 5.614,4.783 11.105,8.699 12.206,8.699 7.332,0 13.477,-37.337 8.883,-53.956 -3.995,-14.444 -65.877,-15.01 -89.765,-0.822 -18.122,10.765 -25.983,43.431 -19.042,79.133 4.214,21.687 4.492,21.821 30.13,14.51 z m 209.1,-118.923 c 21.043,-6.062 40.646,-16.128 52.903,-27.167 8.4,-7.565 9.32,-9.683 6.466,-14.858 -1.83,-3.318 -2.597,-8.86 -1.705,-12.312 2.295,-8.872 -0.531,-11.888 -17.896,-19.106 -20.696,-8.603 -33.233,-21.884 -47.441,-50.251 -15.447,-30.843 -22.894,-34.947 -65.846,-36.293 -26.924,-0.843 -30.829,-0.307 -38.086,5.233 -6.771,5.17 -8.085,8.423 -8.085,20.006 0,19.314 15.667,61.58 25.061,67.614 8.996,5.775 12.532,-1.466 16.703,-34.228 4.723,-37.087 5.301,-38.94 12.134,-38.94 15.877,0 15.604,43.324 -0.469,74.33 -5.562,10.739 -12.261,20.779 -14.882,22.314 -12.662,7.418 -35.07,-9.526 -43.664,-33.018 -6.434,-17.584 -11.072,-18.711 -8.292,-2.011 4.696,28.176 23.401,53.674 50.363,68.648 26.857,14.916 54.257,18.238 82.736,10.039 z m -5.449,-77.239 c -8.408,-10.2 -6.009,-25.057 3.475,-21.524 6.174,2.298 12.044,14.743 9.723,20.615 -2.152,5.446 -9.064,5.924 -13.198,0.909 z m -282.03,33.917 c 0.543,-0.437 -7.307,-10.368 -17.445,-22.067 -10.138,-11.702 -25.963,-31.06 -35.169,-43.019 -23.754,-30.863 -50.291,-54.152 -66.168,-71.061 -7.499,-7.988 -19.381,-19.462 -24.09,-27.073 l -10.454,-12.552 c -7.232,9.131 -14.365,11.078 -25.245,13.937 l 20.67,23.904 c 25.208,29.156 39.303,47.072 67.206,77.007 62.664,67.228 62.429,65.775 76.994,63.61 6.994,-1.042 13.162,-2.249 13.701,-2.686 z m -378.776,-117.316 c 13.335,-6.604 22.374,-21.039 29.028,-46.352 4.835,-18.395 8.68,-113.506 5.401,-138.959 -1.955,-15.197 -3.723,-18.176 -23.022,-38.783 -28.259,-30.18 -64.586,-79.464 -80.259,-114.147 -10.243,-22.669 -12.929,-32.065 -13.127,-45.901 -0.201,-13.437 0.748,-17.396 4.121,-17.396 2.401,0 6.013,3.262 8.027,7.247 28.98,57.38 40.865,74.125 57.991,98.584 19.314,27.579 38.646,49.221 38.646,43.262 0,-7.888 -4.645,-80.081 -12.208,-98.99 -9.221,-23.053 -38.658,-66.484 -49.534,-73.093 -13.296,-8.074 -27.576,-8.171 -43.593,-0.294 -30.02,14.766 -31.162,31.337 -32.319,114.618 -0.605,43.513 -1.975,87.739 -0.907,153.672 1.595,98.623 2.895,95.394 17.652,120.327 8.639,14.598 23.819,28.79 28.064,26.241 1.777,-1.065 3.231,-6.343 3.231,-11.726 0,-13.98 4.884,-24.662 11.278,-24.662 9.774,0 12.62,6.233 12.62,27.641 0,11.377 0.896,21.553 1.991,22.617 4.109,3.989 25.556,1.721 36.919,-3.906 z m -207.729,-446.051 c -0.95,-2.406 -0.305,-7.95 1.434,-12.324 5.415,-13.614 4.391,-88.655 -1.624,-118.935 -6.376,-32.092 -4.766,-47.014 7.019,-65.05 15.803,-24.189 44.902,-34.396 65.953,-23.132 16.137,8.635 13.662,13.422 -6.473,12.517 -20.854,-0.938 -32.603,4.433 -42.98,19.655 -6.506,9.543 -7.476,13.831 -6.708,29.64 l 0.898,18.48 4.047,-11.599 c 8.791,-25.197 29.922,-45.199 47.363,-44.829 3.439,0.07 2.148,1.484 -3.614,3.948 -18.74,8.018 -32.785,26.888 -36.132,48.55 l -1.952,12.629 8.715,-15.895 c 5.32,-9.703 13.899,-19.594 22.027,-25.393 16.646,-11.871 15.882,-11.132 28.155,-27.202 13.303,-17.411 33.829,-30.405 54.676,-34.606 20.823,-4.196 32.533,-2.713 58.965,7.465 21.698,8.354 47.829,30.085 59.515,49.494 4.073,6.765 7.041,8.65 12.136,7.704 16.619,-3.085 26.805,36.994 10.073,63.309 l -6.361,14.354 7.825,7.04 c 10.098,9.085 7.667,16.067 -5.593,16.067 -8.444,0 -10.922,1.775 -17.352,12.423 -8.512,14.098 -32.525,36.935 -45.898,43.646 -16.411,8.238 -36.283,8.92 -57.693,1.979 -31.047,-10.064 -58.547,-23.263 -70.573,-47.708 l -6.324,-8.507 -6.249,13.708 c -9.361,20.534 -17.439,30.164 -37.105,44.216 -18.46,13.191 -32.935,16.536 -36.17,8.356 z m 213.997,-35.175 c 14.901,-10.216 33.062,-35.009 30.33,-41.403 -5.202,-12.179 -4.973,-15.094 1.313,-16.689 6.683,-1.696 7.588,-5.897 4.504,-20.874 -2.593,-12.576 -6.655,-11.317 -8.976,2.781 -3.304,20.051 -24.139,20.659 -31.492,0.916 -3.937,-10.567 -9.506,-4.113 -44.171,-13.393 l -19.291,-0.815 -10.938,21.747 c -10.346,20.569 -21.771,34.693 -25.295,31.275 -0.879,-0.854 0.996,-5.955 4.166,-11.338 7.798,-13.247 16.266,-39.412 13.938,-43.068 -1.037,-1.632 -4.401,-2.964 -7.472,-2.964 -3.071,0 -7.845,-2.196 -10.61,-4.88 -4.709,-4.57 -4.686,-5.117 0.359,-8.696 2.959,-2.103 10.262,-3.823 16.227,-3.823 9.633,0 13.435,-0.67 20.196,-13.772 l 9.351,-13.773 -8.7,-3.585 c -4.785,-1.971 -16.035,-4.422 -25.001,-5.446 -14.758,-1.682 -17.014,-1.167 -23.808,5.429 -10.347,10.043 -15.409,28.517 -15.051,54.919 0.245,17.961 1.875,25.44 8.348,38.281 11.098,22.018 32.515,39.925 60.899,50.91 28.17,10.903 43.368,10.471 61.174,-1.739 z m -21.731,-19.293 c -13.198,-6.482 -9.452,-12.298 7.362,-11.428 16.272,0.84 21.261,3.702 18.521,10.636 -2.176,5.498 -15.47,5.906 -25.883,0.792 z m -135.753,-15.855 c 3.362,-10.293 5.062,-22.717 4.46,-32.582 -0.535,-8.77 -1.086,-21.494 -1.223,-28.271 -0.135,-6.777 -0.692,-12.321 -1.23,-12.321 -3.316,0 -9.523,22.611 -12.338,44.94 -1.808,14.352 -5.962,34.576 -9.23,44.941 -3.269,10.366 -5.899,19.501 -5.842,20.298 0.07,0.798 4.572,-3.461 10.034,-9.461 5.464,-6.002 12.38,-18.397 15.369,-27.544 z m -18.631,-26.975 c 5.352,-32.31 7.756,-39.001 19.829,-55.179 11.14,-14.925 11.821,-20.593 1.333,-11.098 -17.208,15.581 -31.118,56.035 -30.827,89.664 0.18,21.098 3.71,12.557 9.665,-23.387 z m 206.515,-52.723 c -3.598,-11.494 -31.298,-42.715 -37.932,-42.755 -3.219,-0.02 -47.056,40.83 -47.056,43.848 0,1.39 9.99,2.529 22.202,2.529 20.439,0 22.361,-0.518 24.207,-6.524 1.104,-3.586 3.872,-9.394 6.149,-12.904 3.621,-5.579 5.27,-6.002 13.091,-3.357 6.869,2.326 9.678,5.662 12.091,14.356 1.727,6.232 4.525,11.331 6.215,11.331 1.801,0 2.229,-2.702 1.033,-6.524 z m -81.873,-36.892 c -4.593,-2.756 -36.875,-8.776 -47.054,-8.776 -3.361,0 -7.784,1.956 -9.829,4.349 -3.238,3.786 -1.255,4.371 15.315,4.512 10.471,0.09 23.741,1.815 29.491,3.829 10.911,3.826 20.043,0.865 12.077,-3.914 z m 17.709,-10.138 6.929,-7.16 -8.65,-3.201 c -20.097,-7.437 -31.96,-3.618 -46.587,-2.004 l -12.841,5.77 21.307,3.644 c 11.719,2.005 23.817,5.062 26.884,6.791 3.067,1.73 5.677,3.184 5.802,3.233 0.135,0.05 4.347,-2.406 7.156,-7.073 z" fill="#00B894" transform="translate(100.73735,79.462466) matrix(0.26458333,0,0,0.26458333,-8797.4196,-3384.4271)"/>
</svg>