<?xml version="1.0" ?><svg height="232.04759mm" viewBox="0 0 240.64969 232.04759" width="240.64969mm" xmlns="http://www.w3.org/2000/svg">
    <path d="m 38175.047,16335.508 c -8.133,-0.105 -15.671,0.168 -19.826,0.551 -11.081,1.022 -39.783,32.739 -52.323,52.343 -12.54,19.604 -1.729,18.534 5.731,27.338 7.459,8.805 0.378,12.745 2.594,34.344 2.216,21.598 17.837,11.237 37.295,10.848 17.623,-0.353 40.494,3.419 56.873,8.504 6.33,35.754 31.823,60.12 50.13,71.138 69.197,52.742 139.696,-17.659 153.153,-60.556 13.458,-42.897 -11.462,-108.375 -54.266,-130.879 -13.375,-7.032 -29.217,-10.89 -45.588,-10.723 -26.558,0.272 -54.481,11.186 -75.537,36.279 -9.465,-13.612 -21.709,-30.854 -25.523,-34.257 -3.953,-3.527 -19.159,-4.755 -32.713,-4.93 z m 52.373,236.861 c -27.857,0.792 -46.968,18.854 -57.197,44.756 -34.208,89.076 -27.524,181.669 -13.198,241.053 14.325,59.384 45.061,79.385 103.231,73.681 58.171,-5.704 49.664,-62.274 41.676,-115.798 -7.988,-53.523 6.857,-130.332 8.767,-168.541 1.91,-38.209 -23.353,-63.369 -62.597,-72.823 -7.358,-1.773 -14.253,-2.51 -20.682,-2.328 z m 555.053,219.133 c -3.762,-0.09 -7.357,-0.06 -10.68,0.09 v 0 c -8.862,0.414 -15.786,1.771 -18.738,4.506 -11.808,10.94 -13.373,43.13 -19.016,60.554 -5.644,17.425 -4.862,51.026 5.904,65.559 10.766,14.534 -1.388,24.379 -1.388,24.379 0,0 -34.383,-17.738 -65.465,-24.223 -31.083,-6.486 -90.295,9.22 -120.77,13.986 -30.475,4.766 -110.349,-19.689 -137.177,-17.345 -26.828,2.344 -44.368,33.285 -44.368,33.285 0,0 -26.826,10 -51.136,27.738 -24.311,17.737 -79.443,41.727 -102.711,44.149 0,0 -0.323,17.693 14.09,27.617 14.412,9.921 49.575,2.107 59.039,-0.08 9.463,-2.188 31.6,-17.58 37.851,-18.908 6.252,-1.329 35.906,-32.332 35.906,-32.332 0,0 25.179,65.398 49.75,85.636 24.571,20.237 114.17,24.146 193.526,19.223 79.355,-4.922 111.829,-36.569 136.139,-59.385 24.31,-22.816 9.115,-76.416 9.81,-86.574 0.694,-10.158 16.756,-6.955 42.281,5.937 25.526,12.893 49.315,13.206 91.25,-0.546 41.935,-13.752 47.578,-43.601 54.09,-60.557 6.511,-16.956 -26.727,-29.042 -41.834,-36.309 -15.107,-7.267 -41.066,-60.867 -49.836,-66.259 -5.754,-3.538 -40.187,-9.531 -66.517,-10.143 z" fill="#FFFFFF" paint-order="markers stroke fill" transform="translate(42.666998,-30.617341) matrix(0.26458333,0,0,0.26458333,-9236.4183,-3643.6587) translate(-3313.5291,-2437.8203)"/>
    <path d="m 35025.648,14758.106 c -2.821,-5.111 -1.768,-7.302 7.451,-15.488 l 10.738,-9.534 -6.322,-14.196 c -12.327,-27.675 -38.662,-99.885 -38.662,-106.006 v -6.214 l -7.326,6.671 c -4.949,4.508 -9.45,6.13 -13.881,5.008 -3.75,-0.951 -11.437,0.748 -17.947,3.969 -21.577,10.671 -43.158,5.838 -57.967,-12.985 -8.09,-10.281 -10.682,-25.721 -5.211,-31.026 1.725,-1.674 13.106,-4.718 25.291,-6.771 27.147,-4.57 36.358,-9.042 86.643,-42.049 21.825,-14.326 41.187,-26.052 43.021,-26.055 1.835,0 6.964,-5.32 11.395,-11.811 17.636,-25.837 52.381,-31.841 106.828,-18.462 16.52,4.062 31.925,6.992 34.231,6.517 2.492,-0.518 -12.634,-18.245 -37.378,-43.802 -42.341,-43.728 -94.908,-110.634 -102.062,-129.896 l -3.956,-10.655 -16.011,11.116 c -8.805,6.114 -22.685,12.667 -30.841,14.564 l -14.829,3.448 0.112,19.261 c 0.07,10.592 2.019,29.032 4.342,40.978 10.856,55.841 11.62,63.063 7.921,75.031 -4.565,14.771 -14.804,26.543 -29.319,33.71 -6.293,3.108 -11.934,5.91 -12.535,6.228 -0.602,0.319 1.943,7.685 5.658,16.373 7.52,17.588 6.344,25.941 -3.45,24.518 -4.804,-0.696 -7.952,-5.226 -12.717,-18.303 l -6.336,-17.374 -16.549,-0.798 -16.55,-0.797 -9.851,23.357 c -22.34,52.974 -60.668,109.703 -100.868,149.295 -13.716,13.509 -24.938,25.116 -24.938,25.797 0,3.324 39.836,21.818 58.601,27.205 11.697,3.358 22.872,7.982 24.839,10.278 6.12,7.154 -6.835,11.282 -30.292,9.656 -23.752,-1.648 -55.206,-15.097 -76.297,-32.626 -17.768,-14.764 -17.035,-21.216 4.176,-36.742 40.284,-29.485 107.653,-121.979 125.99,-172.976 2.976,-8.278 2.614,-8.791 -10.493,-14.943 -33.91,-15.916 -54.288,-73.517 -59.325,-167.706 -2.95,-55.139 4.315,-98.66 24.81,-148.619 12.414,-30.263 24.054,-43.478 42.548,-48.307 19.809,-5.172 49.353,-2.529 68.714,6.145 44.564,19.967 61.174,62.065 49.567,125.624 -6.08,33.296 -6.022,36.199 0.733,36.199 7.364,0 41.038,-21.295 44.988,-28.448 1.723,-3.123 9.217,-9.132 16.65,-13.357 12.013,-6.824 15.705,-7.51 33.14,-6.15 10.791,0.843 20.877,2.286 22.416,3.206 5.086,3.047 12.102,18.985 11.222,25.493 -0.993,7.355 24.939,39.647 92.913,115.702 23.923,26.765 49.544,55.613 56.937,64.103 l 13.441,15.439 40.53,-0.39 c 40.027,-0.388 40.759,-0.279 58.996,8.809 10.155,5.06 18.467,8.58 18.467,7.821 0,-0.759 -2.111,-5.336 -4.689,-10.169 -2.576,-4.833 -5.968,-16.503 -7.534,-25.932 -2.53,-15.235 -1.99,-19.486 4.847,-38.131 4.235,-11.54 8.922,-27.379 10.419,-35.195 4.753,-24.846 25.726,-39.061 51.531,-34.934 6.95,1.111 14.289,3.313 16.312,4.897 2.024,1.582 9.416,2.304 16.429,1.6 18.554,-1.862 39.013,4.787 49.063,15.944 4.673,5.189 13.725,18.141 20.117,28.784 10.354,17.242 13.838,20.482 31.974,29.721 14.349,7.31 22.517,9.844 27.681,8.587 10.225,-2.489 18.79,2.789 22.543,13.892 4.76,14.081 0.298,25.553 -13.425,34.513 -7.07,4.617 -13.959,12.453 -17.19,19.556 -3.394,7.453 -10.335,15.146 -18.711,20.734 -44.543,29.711 -95.506,35.034 -135.306,14.136 -8.936,-4.693 -16.728,-8.067 -17.316,-7.498 -0.589,0.571 0.314,4.559 2.004,8.867 1.686,4.307 3.069,18.04 3.069,30.518 0,21.129 -0.716,23.724 -10.453,37.75 -5.751,8.283 -10.456,15.737 -10.456,16.561 0,0.824 4.23,6.17 9.4,11.878 15.167,16.749 27.715,45.705 27.837,64.232 0.134,19.373 -6.378,42.451 -12.613,44.772 -10.073,3.748 -15.033,-6.291 -16.136,-32.66 -1.153,-27.586 -6.784,-42.381 -23.655,-62.174 -7.821,-9.177 -10.082,-10.375 -13.852,-7.341 -2.478,1.993 -14.1,8.333 -25.829,14.094 l -21.324,10.466 -12.96,28.049 c -7.127,15.427 -13.971,35.281 -15.207,44.118 -2.48,17.714 -10.698,28.756 -19.079,25.638 -4.109,-1.528 -5.028,-5.935 -5.028,-24.086 0,-19.464 1.304,-24.857 10.537,-43.532 5.795,-11.724 10.164,-21.622 9.707,-21.992 -0.455,-0.372 -17.631,1.138 -38.166,3.357 -20.537,2.215 -49.102,4.041 -63.478,4.055 -14.374,0 -26.135,1.095 -26.135,2.404 0,1.307 3.826,7.502 8.503,13.762 12.822,17.159 15.506,23.046 18.421,40.411 3.226,19.22 1.573,24.37 -7.828,24.37 -3.932,0 -7.156,-0.326 -7.162,-0.723 0,-0.399 -3.085,-9.23 -6.84,-19.628 -7.308,-20.232 -32.73,-62.18 -39.124,-64.56 -2.128,-0.79 -11.136,-2.296 -20.019,-3.344 l -16.151,-1.905 -8.318,15.396 c -9.409,17.419 -27.64,37.573 -55.534,61.394 -15.015,12.821 -21.157,16.265 -29.019,16.265 -7.007,0 -10.951,-1.77 -13.26,-5.952 z m 52.836,-55.586 c 13.155,-13.305 27.908,-33.568 27.899,-38.32 0,-1.621 -5.715,-6.447 -12.694,-10.721 -24.89,-15.245 -38.523,-34.974 -44.917,-65.001 -2.321,-10.908 -5.108,-17.002 -7.774,-17.002 -2.285,0 -5.645,-2.288 -7.464,-5.085 -2.631,-4.042 -1.623,-8.003 4.902,-19.251 14.259,-24.597 10.04,-25.03 -17.748,-1.822 -32.629,27.244 -58.675,40.756 -87.463,45.366 l -21.882,3.503 6.793,5.334 c 11.045,8.67 18.619,8.948 35.639,1.304 16.243,-7.297 24.166,-7.322 24.166,-0.07 0,2.217 1.19,4.032 2.642,4.032 4.207,0 24.243,-22.742 24.243,-27.518 0,-5.063 6.326,-5.735 11.031,-1.172 2.361,2.288 5.076,2.223 9.815,-0.235 9.356,-4.855 10.48,-1.951 4.126,10.662 -4.892,9.707 -6.803,11.006 -16.011,10.872 -12.004,-0.179 -18.005,5.168 -8.381,7.463 9.784,2.334 30.326,41.853 53.025,102.011 1.651,4.38 4.101,7.965 5.441,7.965 1.342,0 7.917,-5.538 14.612,-12.309 z m 143.594,-76.742 c -2.305,-38.774 -23.189,-122.453 -30.988,-124.16 -1.407,-0.307 -15.805,-4.087 -31.999,-8.399 -32.552,-8.666 -55.529,-8.841 -68.63,-0.517 -4.134,2.625 -11.986,13.587 -17.45,24.357 -8.789,17.321 -9.925,22.26 -9.849,42.792 0.07,19.366 1.389,25.607 7.949,37.689 9.22,16.988 35.722,41.993 44.504,41.993 1.057,0 4.868,-7.834 8.468,-17.41 16.187,-43.034 34.694,-40.637 22.632,2.928 -2.426,8.763 -4.427,17.444 -4.444,19.297 -0.04,4.157 29.599,8.798 59.394,9.295 l 22.091,0.369 z m 61.298,23.801 c 7.803,-0.943 14.188,-2.843 14.188,-4.223 0,-1.38 -1.393,-12.228 -3.099,-24.108 -5.909,-41.191 5.756,-78.119 29.4,-93.084 14.194,-8.982 44.564,-14.229 69.288,-11.968 l 19.415,1.775 -13.767,-8.474 c -17.406,-10.711 -32.306,-14.726 -54.734,-14.746 -22.706,-0.02 -70.401,5.87 -70.401,8.695 0,1.19 2.091,3.845 4.644,5.899 8.105,6.52 10.497,13.455 7.38,21.4 -2.26,5.762 -4.985,7.429 -12.144,7.429 -7.206,0 -12.833,-3.496 -25.659,-15.929 -12.45,-12.069 -18.552,-15.926 -25.195,-15.926 -10.026,0 -10.364,0.716 -4.47,9.514 11.118,16.596 25.7,74.017 30.073,118.415 l 1.904,19.332 9.495,-1.143 c 5.219,-0.628 15.877,-1.915 23.682,-2.858 z m 65.174,-11.768 c 8.923,-2.541 22.699,-8.008 30.61,-12.15 15.057,-7.879 15.079,-7.951 7.71,-25.717 -3.108,-7.491 -3.088,-10.018 0.113,-13.756 5.39,-6.297 7.447,-5.854 19.157,4.114 5.615,4.778 11.106,8.688 12.206,8.688 7.332,0 13.478,-37.293 8.883,-53.891 -3.995,-14.426 -65.878,-14.991 -89.764,-0.82 -18.122,10.751 -25.984,43.377 -19.045,79.036 4.216,21.66 4.494,21.795 30.132,14.496 z m 209.097,-118.783 c 20.829,-5.991 41.539,-16.189 48.885,-24.07 5.457,-5.856 11.291,-32.635 8.62,-39.563 -0.667,-1.725 -8.313,-5.993 -16.995,-9.481 -21.095,-8.475 -33.824,-21.801 -48.18,-50.43 -15.447,-30.805 -22.894,-34.904 -65.846,-36.248 -26.925,-0.843 -30.829,-0.307 -38.086,5.226 -6.77,5.164 -8.085,8.412 -8.085,19.981 0,19.292 15.664,61.504 25.06,67.531 8.997,5.772 12.53,-1.463 16.705,-34.185 4.722,-37.042 5.3,-38.893 12.133,-38.893 15.875,0 15.602,43.271 -0.469,74.241 -5.565,10.724 -12.261,20.752 -14.882,22.286 -12.662,7.41 -35.07,-9.514 -43.667,-32.977 -6.433,-17.564 -11.072,-18.689 -8.289,-2.012 4.696,28.145 23.4,53.612 50.364,68.566 26.856,14.898 54.256,18.219 82.732,10.028 z m -5.445,-77.145 c -8.409,-10.188 -6.011,-25.027 3.471,-21.5 6.177,2.299 12.047,14.726 9.726,20.591 -2.155,5.442 -9.064,5.917 -13.197,0.909 z m -596.63,40.322 c 31.786,-12.015 35.487,-19.932 29.543,-63.186 -2.267,-16.494 -5.014,-45.295 -6.105,-64.007 l -1.985,-34.017 -15.483,-6.873 c -21.868,-9.705 -36.177,-24.94 -50.418,-53.679 -11.796,-23.802 -12.34,-26.109 -12.331,-52.408 0,-28.843 4.59,-47.545 12.352,-50.435 8.438,-3.139 10.042,1.345 10.075,28.161 0.05,29.909 4.195,46.153 18.45,72.085 9.015,16.395 27.991,34.17 36.482,34.17 3.87,0 13.952,-58.271 13.825,-79.9 -0.112,-18.207 -13.668,-46.218 -27.006,-55.777 -21.964,-15.743 -66.367,-20.609 -81.658,-8.948 -9.362,7.14 -26.396,56.058 -33.723,96.843 -6.504,36.213 -4.168,134.49 4.001,168.154 8.72,35.941 26.621,62.765 43.736,65.529 4.234,0.683 6.99,-2.856 11.948,-15.351 9.091,-22.907 15.288,-31.068 20.14,-26.532 3.018,2.821 3.117,7.929 0.475,24.467 -1.835,11.495 -2.671,21.946 -1.858,23.223 2.127,3.332 19.004,2.464 29.54,-1.519 z m 314.6,-6.445 c 0.541,-0.437 -7.297,-10.355 -17.419,-22.041 -10.122,-11.687 -31.726,-38.188 -48.01,-58.896 -16.284,-20.705 -43.035,-51.225 -59.451,-67.822 -29.164,-29.484 -29.98,-30.056 -35.764,-24.981 -3.743,3.284 -8.726,4.671 -13.572,3.771 -7.584,-1.404 -7.608,-1.346 -2.698,6.16 2.729,4.167 8.478,12.035 12.779,17.483 4.302,5.449 15.212,19.281 24.248,30.737 15.467,19.612 62.857,70.369 97.806,104.752 15.206,14.961 16.028,15.351 28.377,13.518 6.996,-1.039 13.162,-2.247 13.704,-2.681 z m -307.877,-354.438 c -33.919,-10.511 -71.037,-41.426 -81.437,-67.828 -3.053,-7.752 -7.867,-13.994 -12.299,-15.952 -4.006,-1.769 -8.04,-5.133 -8.968,-7.475 -1.467,-3.708 -2.621,-3.668 -8.883,0.31 -4.774,3.032 -9.96,3.895 -15.407,2.561 -4.514,-1.106 -15.436,-2.296 -24.269,-2.645 -21.711,-0.858 -28.675,-8.566 -26.181,-28.97 1.389,-11.383 0.578,-15.566 -4.152,-21.396 -11.712,-14.434 -5.02,-37.974 14.838,-52.208 5.034,-3.607 9.152,-8.404 9.152,-10.658 0,-2.254 7.656,-10.142 17.009,-17.53 16.27,-12.848 17.665,-13.369 32.113,-11.968 8.305,0.806 20.786,1.991 27.733,2.632 14.395,1.331 23.712,8.146 29.61,21.656 l 4.078,9.342 14.18,-8.722 c 32.249,-19.839 86.448,-26.651 112.971,-14.204 30.706,14.413 60.332,58.605 63.298,94.424 1.049,12.658 2.985,19.446 5.847,20.51 7.754,2.885 9.607,13.823 5.348,31.585 -4.357,18.175 -14.645,30.033 -26.052,30.033 -6.043,0 -6.076,0.202 -0.966,5.685 7.256,7.773 3.873,14.586 -7.243,14.586 -5.782,0 -16.005,4.633 -28.444,12.888 -10.682,7.089 -24.471,14.25 -30.647,15.914 -16.67,4.487 -41.87,3.43 -61.229,-2.57 z m 55.114,-15.7 c 7.443,-2.17 19.619,-8.007 27.059,-12.97 11.684,-7.793 13.467,-10.317 13.079,-18.496 -0.369,-7.852 0.577,-9.378 5.528,-8.914 5.206,0.488 5.961,-1.156 5.869,-12.783 -0.09,-10.788 -1.33,-13.875 -6.499,-16.111 -5.368,-2.32 -7.913,-1.084 -15.886,7.718 -11.63,12.842 -25.038,14.162 -37.587,3.697 -6.844,-5.709 -8.055,-8.877 -7.623,-19.954 0.471,-12.031 -0.18,-13.34 -7.454,-15.109 -4.382,-1.067 -17.173,-6.191 -28.423,-11.386 -11.251,-5.195 -21.113,-8.809 -21.916,-8.031 -0.801,0.779 -1.46,4.68 -1.46,8.667 0,7.841 -7.613,17.847 -13.581,17.847 -2.032,0 -4.615,3.582 -5.744,7.962 -2.424,9.423 -9.851,18.1 -15.49,18.1 -5.045,0 -5.022,1.299 0.202,11.096 5.31,9.952 30.661,33.11 43.046,39.318 10.541,5.285 37.61,12.817 47.1,13.109 3.438,0.111 12.338,-1.587 19.78,-3.76 z m -33.134,-14.905 c -15.196,-13.31 -19.671,-23.64 -15.125,-34.914 3.254,-8.063 3.603,-8.204 6.858,-2.766 5.841,9.765 23.907,24.839 31.777,26.514 15.785,3.365 17.952,4.495 17.952,9.365 0,7.93 -6.244,11.968 -18.512,11.968 -8.773,0 -13.971,-2.304 -22.95,-10.167 z m -78.589,-74.765 c 0.508,-5.849 2.525,-10.834 4.481,-11.075 1.954,-0.245 5.569,-0.579 8.034,-0.743 2.885,-0.201 4.55,-3.434 4.673,-9.104 0.244,-11.132 3.41,-16.153 9.542,-15.131 3.011,0.501 5.482,-1.903 6.623,-6.44 1.395,-5.562 4.207,-7.574 12.146,-8.687 8.223,-1.152 10.938,-3.219 13.315,-10.135 4.819,-14.016 7.475,-16.554 15.328,-14.644 4.888,1.191 7.756,0.368 8.912,-2.552 2.668,-6.743 12.122,-8.174 20.183,-3.055 6.145,3.905 8.366,4.059 13.514,0.944 4.812,-2.914 8.171,-2.994 15.353,-0.366 13.366,4.893 16.067,-3.372 4.131,-12.634 -10.854,-8.423 -22.547,-10.652 -48.315,-9.207 -29.277,1.642 -57.243,14.838 -67.424,31.813 -18.278,30.477 -35.414,86.114 -25.555,82.968 2.272,-0.723 4.548,-6.103 5.059,-11.952 z m 178.109,1.141 c 7.279,-7.367 8.128,-9.967 6.385,-19.55 -4.514,-24.786 -7.297,-29.499 -17.259,-29.222 -5.518,0.157 -10.749,-1.743 -12.98,-4.703 -5.438,-7.21 -52.265,-9.477 -62.428,-3.02 -3.927,2.493 -8.929,4.165 -11.116,3.712 -3.798,-0.786 -22.646,14.072 -20.126,15.862 3.359,2.385 40.504,16.471 43.419,16.464 1.85,0 5.156,-2.099 7.343,-4.653 15.868,-18.536 53.399,-0.448 45.994,22.168 -1.337,4.087 -0.631,7.261 1.969,8.858 6.63,4.073 9.964,3.025 18.799,-5.916 z m -235.793,-5.984 c 5.856,-6.273 20.759,-7.821 24.146,-2.507 1.152,1.805 5.662,-6.992 10.026,-19.549 4.362,-12.558 12.144,-30.841 17.295,-40.632 l 9.362,-17.797 -9.246,-12.187 c -8.291,-10.93 -10.246,-12.031 -18.955,-10.659 -5.933,0.932 -11.844,-0.05 -15.194,-2.503 -9.17,-6.737 -23.517,-5.245 -29.106,3.027 -2.694,3.981 -6.853,7.239 -9.248,7.239 -2.396,0 -5.189,3.219 -6.206,7.151 -1.019,3.931 -7.766,12.883 -14.993,19.889 -14.936,14.481 -16.245,21.252 -5.921,30.654 6.428,5.855 7.04,8.303 5.558,22.227 -1.095,10.277 -0.557,15.647 1.562,15.647 1.777,0 4.06,-1.304 5.074,-2.897 3.13,-4.909 13.194,-3.206 17.123,2.897 2.052,3.185 5.888,5.791 8.525,5.791 2.635,0 7.225,-2.606 10.198,-5.791 z" fill="#00B894" transform="translate(42.666998,-30.617341) matrix(0.26458333,0,0,0.26458333,-9236.4183,-3643.6587)"/>
</svg>