<?xml version="1.0" ?><svg height="291.87088mm" viewBox="0 0 265.914 291.87088" width="265.914mm" xmlns="http://www.w3.org/2000/svg">
    <path d="m 36207.256,12514.389 c -57.236,60.536 -27.035,146.382 39.972,179.41 40.125,25.793 78.168,9.952 103.836,-17.713 25.667,-27.665 23.335,-71.446 15.573,-100.846 -7.761,-29.399 -42.255,-70.119 -80.299,-79.158 -26.764,-5.727 -55.901,3.444 -79.082,18.307 z m 34.42,219.889 c -23.31,0.436 -46.881,13.987 -54.205,43.903 0,0 1.807,208.69 4.648,288.489 2.84,79.8 48.696,125.954 111.9,119.517 63.205,-6.437 55.678,-118.909 58.823,-138.494 3.145,-19.585 -9.91,-189.949 -19.498,-228.297 -9.587,-38.347 -52.586,-85.073 -76.884,-86.945 -1.519,-0.117 -23.23,1.798 -24.784,1.827 z m 665.584,429.456 c -9.023,-0.131 -18.093,0.315 -26.514,1.379 -33.684,4.254 -33.754,45.782 -42.281,73.057 -8.526,27.276 16.209,71.494 16.209,71.494 0,0 -4.727,11.777 -32.08,-3.418 -27.353,-15.196 -112.283,-5.624 -150.442,-1.141 -38.159,4.483 -129.673,-18.082 -152.467,-16.031 -22.794,2.051 -36.216,36.545 -36.216,36.545 0,0 -38.074,14.587 -58.926,31.074 -20.853,16.487 -77.162,35.557 -96.326,39.66 -10.366,20.394 22.948,32.931 33.67,34.602 10.722,1.672 39.425,-5.85 44.322,-6.762 4.896,-0.911 31.151,-21.272 37.23,-23.855 6.078,-2.584 33.854,-26.289 33.854,-26.289 0,0 16.125,63.137 41.789,84.107 25.665,20.97 108.397,22.488 169.519,17.93 61.122,-4.559 137.524,-26.591 158.799,-50.828 21.274,-24.237 15.112,-83.196 17.307,-93.073 2.195,-9.877 16.208,4.863 46.769,13.448 30.561,8.585 94.132,-4.331 117.686,-19.754 23.553,-15.423 17.473,-26.516 21.357,-44.826 3.883,-18.311 -9.876,-23.781 -32.923,-37.153 -23.047,-13.372 -39.342,-51.437 -49.219,-64.429 -7.409,-9.744 -34.049,-15.342 -61.117,-15.737 z" fill="#FFFFFF" paint-order="markers stroke fill" transform="translate(-31.446334,50.515437) matrix(0.26458333,0,0,0.26458333,-9514.029,-3351.2707)"/>
    <path d="m 39572.018,14913.145 c -29.118,0.603 -56.821,10.639 -71.942,27.376 -14.666,16.232 -19.294,28.72 -22.224,59.959 -5.01,53.399 9.687,91.154 47.908,123.086 15.702,13.12 20.247,15.61 44.777,24.51 21.731,7.886 43.984,7.512 60.469,-1.01 13.558,-7.012 37.543,-30.46 46.111,-45.076 6.427,-10.971 8.908,-12.799 17.352,-12.799 13.258,0 15.691,-7.194 5.593,-16.552 l -7.828,-7.254 6.364,-14.787 c 12.55,-29.174 6.544,-68.402 -9.989,-65.241 -5.232,0.999 -8.399,-1.48 -14.795,-11.591 -4.476,-7.074 -7.25,-14.302 -6.164,-16.061 6.309,-10.206 -32.917,-34.946 -66.457,-41.918 -9.606,-1.996 -19.47,-2.844 -29.175,-2.642 z m 37.324,51.667 c 1.394,-0.136 2.446,1.088 4.258,3.565 2.774,3.793 6.245,4.761 12.552,3.5 5.837,-1.168 10.767,-0.09 14.905,3.269 7.644,6.2 17.614,20.699 20.396,29.661 1.232,3.965 0.828,6.72 -0.984,6.72 -1.692,0 -4.488,-5.253 -6.217,-11.672 -2.413,-8.956 -5.223,-12.395 -12.092,-14.789 -7.821,-2.727 -9.469,-2.291 -13.09,3.455 -2.279,3.618 -5.045,9.6 -6.148,13.295 -1.958,6.565 -3.037,6.723 -43.973,6.723 h -41.967 l 1.801,-6.723 c 0.99,-3.695 1.824,-8.839 1.844,-11.429 0.03,-3.542 2.287,-4.379 9.064,-3.385 7.417,1.089 10.885,-0.645 19.428,-9.701 8.287,-8.788 10.762,-10.07 12.201,-6.321 2.552,6.644 13.76,5.833 21.711,-1.574 3.18,-2.962 4.916,-4.457 6.311,-4.594 z m -69.272,63.321 c 6.37,0.149 15.047,0.676 24.494,1.547 61.939,5.71 58.185,4.756 62.188,15.83 7.378,20.403 28.21,19.826 31.519,-0.873 2.323,-14.526 6.382,-15.824 8.975,-2.866 3.085,15.429 2.179,19.758 -4.504,21.506 -6.287,1.642 -6.514,4.646 -1.312,17.192 2.734,6.587 -15.43,32.131 -30.33,42.656 -17.807,12.58 -33.002,13.025 -61.172,1.791 -25.532,-10.179 -47.737,-27.955 -58.168,-46.564 l -6.504,-11.602 11.687,-17.773 c 6.427,-9.777 12.045,-18.83 12.479,-20.118 0.217,-0.645 4.279,-0.875 10.648,-0.726 z m 88.95,67.41 c -1.909,-0.04 -4.191,0.03 -6.924,0.205 -11.809,0.758 -14.219,1.903 -14.219,6.75 0,3.692 2.747,6.593 7.467,7.887 13.597,3.722 26.115,-2.146 22.83,-10.701 -1.072,-2.8 -3.43,-4.008 -9.154,-4.141 z m -55.448,67.217 c -5.431,-0.09 -11.265,0.433 -17.558,1.652 -41.392,8.019 -53.537,16.707 -63.493,52.369 -4.25,15.222 -2.919,70.751 2.883,125.35 1.781,16.744 -5.233,70.89 -4.631,120.326 1.071,88.125 1.247,77.26 8.903,98.492 9.449,26.205 19.053,40.163 39.754,57.781 8.623,7.339 15.716,15.185 15.716,17.432 0.126,13.651 -35.192,113.162 -52.062,146.688 -29.107,57.839 -66.381,103.504 -99.619,122.035 -5.406,3.016 -10.614,8.51 -11.57,12.211 -9.428,36.46 51.656,106.932 81.316,93.814 16.281,-7.2 12.476,-15.98 -12.645,-29.181 -13.765,-7.233 -42.791,-39.823 -42.791,-48.045 0,-1.889 6.672,-7.629 14.825,-12.758 30.361,-19.096 71.614,-73.239 99.847,-131.041 13.377,-27.389 38.738,-100.729 48.334,-139.778 1.906,-7.758 2.618,-8.032 18.811,-7.302 9.258,0.418 22.284,-0.267 28.955,-1.522 12.106,-2.278 12.141,-2.259 25.711,14.551 7.473,9.259 25.147,33.795 39.275,54.527 35.073,51.468 34.491,50.743 40.655,50.743 9.47,0 13.266,-7.283 9.4,-18.063 -4.584,-12.785 -56.88,-88.171 -73.945,-106.594 l -13.684,-14.773 8.893,-10.748 c 4.893,-5.91 11.091,-14.868 13.775,-19.906 7.906,-14.843 13.517,-46.825 15.863,-102.358 l 2.01,-47.596 21.195,16.75 c 11.659,9.215 26.867,16.022 33.793,20.442 12.157,7.756 27.423,27.194 33.116,42.164 2.083,5.473 1.61,8.028 -1.948,10.553 -6.352,4.507 -0.941,16.144 10.576,22.746 4.995,2.864 9.895,15.506 19.772,25.646 29.569,30.351 47.402,62.09 91.734,107.932 24.947,25.8 40.23,43.708 37.737,44.226 -2.305,0.477 -17.708,-2.459 -34.231,-6.523 -54.447,-13.397 -89.189,-7.387 -106.828,18.482 -4.431,6.498 -9.557,11.846 -11.395,11.846 -1.835,0.01 -18.792,10.386 -37.685,23.051 -46.861,31.414 -65.819,40.708 -92.041,45.127 -12.149,2.047 -23.504,5.093 -25.227,6.767 -5.473,5.311 -2.881,20.77 5.209,31.067 14.745,18.766 36.391,23.682 57.733,13.115 6.557,-3.248 14.425,-4.914 19.103,-4.045 6.644,1.232 9.332,-0.408 16.346,-9.969 7.151,-9.752 9.936,-11.404 18.859,-11.173 9.271,0.235 11.107,-0.997 16.026,-10.772 6.355,-12.626 5.233,-15.535 -4.125,-10.676 -4.738,2.463 -7.456,2.528 -9.817,0.235 -4.705,-4.565 -11.027,-3.893 -11.027,1.175 0,4.783 -20.039,27.551 -24.246,27.551 -1.452,0 -2.639,-1.817 -2.639,-4.037 0,-7.26 -7.928,-7.235 -24.17,0.07 -17.02,7.653 -24.593,7.376 -35.638,-1.306 l -6.793,-5.338 21.882,-3.508 c 28.788,-4.615 54.835,-18.143 87.461,-45.424 27.79,-23.234 32.008,-22.8 17.748,1.826 -6.522,11.262 -7.53,15.228 -4.9,19.274 1.818,2.801 5.18,5.096 7.465,5.096 2.666,0 5.452,6.099 7.773,17.019 6.394,30.065 20.026,49.819 44.916,65.082 6.979,4.279 12.698,8.969 12.698,10.426 0.02,10.182 -34.232,47.342 -72.862,79.053 -9.74,7.992 -10.781,10.003 -7.902,15.22 v 0 c 2.336,4.242 6.251,6.014 13.285,6.014 7.862,0 14.005,-3.448 29.02,-16.285 27.894,-23.851 46.125,-44.03 55.537,-61.471 l 8.314,-15.414 16.151,1.908 c 8.884,1.051 17.891,2.555 20.019,3.348 6.394,2.382 31.819,44.38 39.125,64.638 2.457,6.815 2.456,20.884 14,20.373 9.392,-0.415 11.054,-5.153 7.828,-24.398 -2.914,-17.385 -5.598,-23.28 -18.42,-40.459 -4.678,-6.268 -8.504,-12.469 -8.504,-13.779 0,-1.311 11.763,-2.407 26.137,-2.407 14.376,-0.01 42.942,-1.841 63.479,-4.058 20.534,-2.221 37.711,-3.733 38.166,-3.361 0.457,0.371 -3.912,10.279 -9.707,22.017 -9.233,18.699 -10.537,24.097 -10.537,43.584 0,18.173 0.919,22.584 5.027,24.117 8.384,3.121 16.6,-7.936 19.08,-25.672 1.236,-8.849 8.08,-28.724 15.209,-44.169 l 12.957,-28.082 21.322,-10.483 c 11.729,-5.765 23.352,-12.112 25.83,-14.109 3.77,-3.035 6.035,-1.836 13.856,7.351 16.869,19.818 22.498,34.631 23.652,62.25 1.102,26.401 6.062,36.45 16.135,32.698 6.237,-2.321 12.747,-25.43 12.613,-44.827 -0.122,-18.55 -12.669,-47.541 -27.836,-64.308 -5.17,-5.718 -9.4,-11.069 -9.4,-11.893 0,-0.825 4.705,-8.288 10.457,-16.582 9.736,-14.044 10.453,-16.64 10.453,-37.795 0,-12.492 -1.381,-26.243 -3.07,-30.554 -1.69,-4.313 -2.59,-8.308 -2.004,-8.877 0.587,-0.571 8.38,2.806 17.316,7.503 32.951,17.326 74.087,16.759 112.596,-1.544 26.605,-12.647 42.439,-27.085 42.439,-38.694 0,-6.269 1.702,-8.702 6.985,-9.988 19.66,-4.79 29.31,-23.029 21.629,-40.871 -4.439,-10.315 -12.898,-14.698 -22.592,-11.711 -3.835,1.182 -13.18,-1.874 -26.465,-8.649 -18.339,-9.356 -21.781,-12.547 -32.158,-29.849 -6.392,-10.656 -15.444,-23.626 -20.117,-28.818 -10.05,-11.17 -30.507,-17.829 -49.061,-15.965 -7.015,0.704 -14.409,-0.02 -16.432,-1.602 -2.023,-1.587 -9.36,-3.79 -16.308,-4.904 -25.809,-4.131 -46.779,10.1 -51.535,34.976 -1.497,7.828 -6.183,23.686 -10.418,35.241 -6.837,18.665 -7.376,22.921 -4.846,38.173 1.566,9.441 4.957,21.125 7.535,25.965 2.576,4.839 4.688,9.422 4.688,10.184 0,0.758 -8.31,-2.767 -18.467,-7.832 -18.237,-9.1 -18.969,-9.21 -58.996,-8.822 l -40.531,0.392 -13.44,-15.457 c -7.394,-8.502 -33.014,-37.382 -56.937,-64.182 -23.922,-26.797 -54.505,-53.324 -67.965,-69.578 -13.458,-16.254 -25.869,-30.389 -27.573,-31.41 -1.705,-1.023 -2.313,-4.266 -1.353,-7.203 2.882,-8.812 -6.251,-25.246 -24.143,-43.453 -17.999,-18.315 -28.2,-23.156 -48.007,-22.77 -9.175,0.176 -15.776,-2.024 -25.391,-8.47 -19.907,-13.352 -50.151,-32.884 -67.086,-48.627 -14.659,-13.628 -15.341,-14.963 -17.33,-33.854 -5.444,-51.695 -21.689,-130.412 -40.248,-157.551 -18.233,-26.66 -36.541,-56.836 -74.559,-57.429 z m -7.343,16.867 c 7.234,0.05 14.129,2.092 20.777,6.129 10.876,6.609 40.312,50.039 49.533,73.092 7.563,18.909 20.209,91.102 20.209,98.99 0,5.959 -19.332,-15.683 -38.646,-43.262 -17.126,-24.459 -29.013,-41.204 -57.993,-98.584 -2.014,-3.985 -5.624,-7.246 -8.025,-7.246 -3.373,0 -4.322,3.958 -4.121,17.395 0.198,13.836 2.884,23.233 13.127,45.902 15.673,34.683 51.999,83.966 80.258,114.146 19.299,20.607 21.066,23.587 23.021,38.784 3.279,25.453 -0.565,120.564 -5.4,138.959 -6.654,25.313 -15.693,39.747 -29.028,46.351 -11.363,5.627 -32.811,7.895 -36.92,3.906 -1.095,-1.064 -1.99,-11.24 -1.99,-22.617 0,-21.408 -2.847,-27.64 -12.621,-27.64 -6.394,0 -11.277,10.682 -11.277,24.662 0,5.383 -1.454,10.659 -3.231,11.724 -4.245,2.549 -19.425,-11.642 -28.064,-26.24 -14.757,-24.933 -16.057,-21.703 -17.652,-120.326 -1.068,-65.933 5.563,-110.404 0.908,-153.672 -9.311,-86.542 -5.702,-99.853 24.318,-114.619 8.009,-3.939 15.582,-5.883 22.817,-5.834 z m 289.162,372.201 10.455,12.551 c 4.709,7.611 16.591,19.086 24.09,27.074 15.877,16.909 42.414,40.198 66.168,71.061 9.206,11.959 25.029,31.317 35.167,43.019 10.138,11.699 17.989,21.63 17.446,22.067 -0.539,0.437 -6.707,1.643 -13.701,2.685 -14.565,2.165 -14.331,3.619 -76.995,-63.609 -27.903,-29.935 -41.997,-47.852 -67.205,-77.008 l -20.67,-23.904 c 10.88,-2.859 18.013,-4.805 25.245,-13.936 z m 350.998,58.789 c 4.265,-0.02 9.558,0.106 16.289,0.317 42.952,1.346 50.398,5.45 65.845,36.293 14.208,28.367 26.746,41.649 47.442,50.252 17.365,7.218 20.189,10.233 17.894,19.105 -0.892,3.452 -0.125,8.994 1.705,12.312 2.854,5.175 1.936,7.293 -6.464,14.858 -12.257,11.039 -31.862,21.106 -52.905,27.168 -28.479,8.199 -55.877,4.877 -82.734,-10.039 -26.962,-14.974 -45.667,-40.473 -50.363,-68.649 -2.78,-16.7 1.857,-15.572 8.291,2.012 8.594,23.492 31.002,40.436 43.664,33.018 2.621,-1.535 9.321,-11.576 14.883,-22.315 16.073,-31.006 16.345,-74.33 0.468,-74.33 -6.833,0 -7.411,1.853 -12.134,38.94 -4.171,32.762 -7.708,40.003 -16.704,34.228 -9.394,-6.034 -25.06,-48.299 -25.06,-67.613 0,-11.583 1.315,-14.836 8.086,-20.006 5.443,-4.155 9,-5.496 21.797,-5.551 z m 84.617,61.033 c -6.698,0.617 -7.615,13.107 -0.258,22.032 4.134,5.015 11.045,4.537 13.197,-0.909 2.321,-5.872 -3.548,-18.317 -9.722,-20.615 -1.186,-0.441 -2.26,-0.596 -3.217,-0.508 z m -434.977,66.793 c 11.451,0.09 25.334,2.301 41.612,6.639 16.192,4.316 30.591,8.101 31.996,8.408 7.798,1.709 28.683,85.488 30.988,124.309 l 1.678,28.271 -22.092,-0.369 c -29.795,-0.5 -59.435,-5.145 -59.395,-9.31 0.02,-1.853 2.021,-10.547 4.446,-19.319 12.062,-43.619 -6.446,-46.015 -22.631,-2.931 -3.602,9.587 -7.413,17.431 -8.471,17.431 -8.782,0 -35.281,-25.037 -44.504,-42.045 -6.56,-12.097 -7.875,-18.343 -7.945,-37.734 -0.08,-20.557 1.056,-25.501 9.846,-42.844 5.464,-10.782 13.317,-21.758 17.451,-24.387 6.551,-4.167 15.57,-6.205 27.021,-6.119 z m 226.584,8.17 c 22.428,0.02 37.332,4.042 54.735,14.766 l 13.767,8.482 -19.416,-1.775 c -24.724,-2.263 -55.094,2.986 -69.285,11.978 -23.646,14.986 -35.312,51.959 -29.402,93.2 1.705,11.894 3.097,22.756 3.097,24.136 0,1.383 -6.384,3.285 -14.187,4.231 -7.802,0.943 -18.461,2.232 -23.682,2.861 l -9.496,1.145 -1.904,-19.356 c -4.37,-44.453 -18.953,-101.942 -30.072,-118.558 -5.891,-8.809 -5.556,-9.528 4.47,-9.528 6.643,0 12.746,3.864 25.196,15.948 12.826,12.45 18.455,15.947 25.66,15.947 7.16,0 9.882,-1.671 12.142,-7.44 3.117,-7.953 0.724,-14.897 -7.379,-21.423 -2.554,-2.06 -4.642,-4.717 -4.642,-5.909 0,-2.828 47.695,-8.725 70.398,-8.705 z m 45.739,39.262 c 18.955,0.174 35.426,3.926 37.423,11.148 4.594,16.619 -1.55,53.956 -8.882,53.956 -1.101,0 -6.593,-3.915 -12.207,-8.698 -11.71,-9.98 -13.767,-10.423 -19.157,-4.119 -3.202,3.742 -3.22,6.271 -0.111,13.774 7.368,17.786 7.346,17.858 -7.711,25.748 -7.911,4.144 -21.688,9.618 -30.611,12.16 -25.636,7.31 -25.913,7.176 -30.127,-14.51 -6.941,-35.702 0.919,-68.368 19.041,-79.133 11.944,-7.094 33.386,-10.5 52.342,-10.326 z" fill="#00B894" transform="translate(-31.446334,50.515437) matrix(0.26458333,0,0,0.26458333,-9514.029,-3351.2707) translate(-3313.5291,-2437.8203)"/>
</svg>