<?xml version="1.0" ?><svg height="109.44721mm" viewBox="0 0 185.82877 109.44721" width="185.82877mm" xmlns="http://www.w3.org/2000/svg">
    <path d="m -6267.6895,8.5878906 -7.5976,8.4453124 -23.959,-3.998047 c -1.91,3.4379 4.6914,8.855469 4.6914,8.855469 0,0 -4.2767,2.167679 -6.7265,16.292969 -2.4498,14.1253 11.2532,27.877396 17.2324,29.222656 5.9792,1.34527 16.8166,5.791411 29.4394,-9.193359 12.6227,-14.98478 -3.4043,-38.003907 -3.4043,-38.003907 z m -94.0468,7.2128904 c 0,0 -49.33,37.666542 -58.6309,49.138672 -9.301,11.47212 5.5234,26.382813 5.5234,26.382813 0,0 7.4037,21.373874 11.3418,31.570314 3.9381,10.19644 20.0073,16.07458 37.9864,15.17773 17.9791,-0.89685 21.9245,-13.82729 21.3847,-20.14258 -0.5398,-6.31528 -8.5949,-24.176913 -10.2558,-30.492183 -1.6609,-6.31528 -10.9004,-11.765625 -10.9004,-11.765625 l -1.6817,-3.742188 c 10e-5,0 9.7568,1.868381 22.0059,-9.005859 12.249,-10.87425 9.6759,-17.116004 8.0567,-27.990234 -1.6195,-10.87423 -9.6745,-19.3177 -24.8301,-19.13086 z m 145.3535,26.644531 c -5.8616,0.09801 -11.9074,1.64082 -16.3438,3.25 -10.2975,8.557391 -12.1667,14.573514 -12.748,24.251954 -0.5813,9.67844 12.2073,20.589766 24.8301,18.347656 12.6227,-2.24212 26.8239,-15.358015 23.1699,-32.734375 -2.1695,-10.317214 -10.3413,-13.258481 -18.9082,-13.115235 z m -59.6113,35.648438 c -7.3806,0.03737 -14.9685,2.129522 -17.3145,4.857422 -4.692,5.45581 -10.9611,43.160808 -11.75,57.996098 18.1867,8.59479 39.2802,4.63421 39.5293,-0.0742 0.2492,-4.70843 8.6367,-44.320304 5.6055,-55.306644 -1.5156,-5.49317 -8.6898,-7.510024 -16.0703,-7.472656 z m 62.2812,16.265625 c -6.9685,0.163855 -13.5016,3.509822 -16.7715,7.687505 -4.6505,5.94156 -0.3739,25.82159 1.6192,36.62109 6.2698,5.67999 46.4214,5.23144 45.1757,-3.92383 -1.2457,-9.15528 -11.4595,-34.52958 -21.1757,-38.714843 -2.4291,-1.046318 -4.9553,-1.563816 -7.4493,-1.660156 -0.4676,-0.01806 -0.9338,-0.02069 -1.3984,-0.0098 z" fill="#FFFFFF" paint-order="markers stroke fill" transform="translate(-148.99034,115.95575) matrix(0.74711192,0,0,0.74711192,1257.0387,732.55562) translate(4946.0726,-1138.2098)"/>
    <path d="m -1364.1152,-995.34585 c -0.4295,-0.6949 0.07,-5.38055 1.1091,-10.41275 1.0394,-5.0322 1.8724,-10.4111 1.8511,-11.9531 -0.037,-2.6707 -0.1673,-2.6296 -2.7503,0.8658 -5.6147,7.598 -11.0274,12.8429 -13.254,12.8429 -3.7603,0 -2.7049,-2.8379 4.8361,-13.0032 10.5764,-14.2572 13.3126,-19.0089 15.2769,-26.5313 2.2439,-8.5931 5.8274,-13.6326 12.8686,-18.0981 5.9083,-3.747 13.4464,-4.6305 20.4902,-2.4019 1.9504,0.6171 5.0768,1.4574 6.9476,1.8675 8.7336,1.9141 10.2339,13.7619 5.0959,40.2412 -5.0008,25.77245 -4.6558,24.61615 -7.4654,25.02345 -4.4717,0.6482 -4.5112,-1.8635 -0.3716,-23.60995 0.6402,-3.3636 1.7798,-11.0693 2.5323,-17.1238 2.0424,-16.433 -0.3493,-20.1817 -12.8765,-20.1817 -5.7113,0 -11.7261,3.3085 -15.5656,8.562 -2.8074,3.8414 -6.6255,18.8261 -8.9876,35.2737 -0.9989,6.9552 -2.5149,14.10375 -3.3689,15.88575 -1.6358,3.4127 -5.0485,4.8883 -6.3679,2.7535 z m -69.1154,-0.992 c -1.6541,-0.3099 -5.6649,-1.611 -8.913,-2.8913 -3.2479,-1.28015 -7.7134,-2.32755 -9.9232,-2.32755 -4.9265,0 -14.7791,-3.239 -19.8045,-6.5105 -5.771,-3.757 -10.3512,-11.0014 -11.1337,-17.6103 -0.7056,-5.9596 2.3236,-21.4442 4.8001,-24.5375 0.863,-1.0777 0.8161,-3.0334 -0.1498,-6.2575 -0.7728,-2.5794 -1.4051,-6.504 -1.4051,-8.7214 0,-5.2229 5.0033,-13.6986 9.9263,-16.8157 3.7331,-2.3636 3.7811,-2.4985 1.3525,-3.7982 -9.1736,-4.9096 0.806,-24.6075 12.467,-24.6075 2.3661,0 3.6752,-1.1009 5.4543,-4.5868 1.2875,-2.5228 3.3627,-5.4803 4.6116,-6.5726 3.4226,-2.9932 11.1837,-5.1036 15.9339,-4.3328 2.9743,0.4826 5.3792,-0.018 8.1237,-1.6916 4.005,-2.442 11.1938,-3.2129 12.3603,-1.3256 0.3628,0.5871 2.7848,0.4924 5.4232,-0.2118 5.6638,-1.5118 11.6925,0.4448 13.9189,4.5172 0.777,1.4213 1.5863,7.2626 1.7982,12.9809 0.577,15.5632 1.007,18.7648 2.5915,19.293 2.0786,0.6929 1.7759,3.8953 -0.4487,4.749 -1.0403,0.3992 -3.1992,3.3065 -4.7976,6.4607 -4.9419,9.7524 -16.1365,18.3377 -24.1343,18.5089 l -4.0359,0.086 4.9579,2.2076 c 6.4499,2.8719 8.7318,6.5662 10.3631,16.7773 1.5262,9.5544 4.6123,13.8668 9.9234,13.8668 4.6185,0 5.4308,-1.9609 7.6167,-18.3907 1.0261,-7.7123 2.7397,-16.9024 3.8077,-20.4227 2.1407,-7.0549 5.5117,-10.0225 7.9913,-7.0347 1.4347,1.7286 1.295,3.5862 -0.6196,8.2368 -1.2706,3.0864 3.3426,2.82 9.3173,-0.5379 5.9746,-3.358 8.5015,-1.7687 4.7568,2.9919 l -2.5005,3.1789 2.4653,0.7825 c 2.8102,0.8919 3.0857,1.9545 1.0378,4.0023 -1.0881,1.0882 -0.9426,1.6138 0.6116,2.2102 2.3788,0.9128 2.6802,4.2831 0.5714,6.3919 -2.0869,2.0869 -11.4325,1.817 -15.8304,-0.4573 -2.0473,-1.0586 -3.8625,-1.7466 -4.0339,-1.5288 -0.1713,0.2178 -0.9638,4.4644 -1.7612,9.4371 -1.7613,10.9846 -4.9147,16.033 -10.0144,16.033 -3.2391,0 -3.5861,0.3894 -3.5861,4.0222 0,2.2121 -1.0267,6.9374 -2.2815,10.5006 -2.2502,6.3897 -2.3969,6.5205 -10.7024,9.5415 -13.2357,4.81425 -18.8346,5.75665 -26.106,4.39415 z m 14.6273,-8.60645 c 0.3364,-0.3393 -0.086,-0.8657 -0.9392,-1.1701 -0.853,-0.3043 -2.3272,-1.3298 -3.2762,-2.2788 -0.9491,-0.949 -2.1776,-1.7072 -2.7302,-1.6848 -1.1886,0.049 -6.5089,4.3509 -6.5089,5.264 0,1.7989 11.6534,1.686 13.4545,-0.1303 z m -16.4138,-11.2536 c 3.8289,-1.6584 5.8828,-3.7419 8.8212,-8.9485 2.1066,-3.7327 4.4851,-7.1915 5.2854,-7.6861 2.3288,-1.4393 4.725,2.98 3.8872,7.1692 -0.6627,3.3132 -0.4874,3.6156 1.5896,2.7418 1.284,-0.5401 4.1253,-1.6354 6.314,-2.4342 l 3.9795,-1.4521 -2.7563,-2.4778 c -1.5161,-1.3627 -6.0589,-4.3045 -10.0952,-6.5374 -4.0364,-2.2329 -8.9092,-5.9144 -10.8286,-8.1812 -2.7165,-3.2083 -3.856,-3.8177 -5.1424,-2.7501 -4.9897,4.1411 -10.4857,6.6407 -19.9751,7.405 -7.4942,0.6036 -11.7678,-4.3932 -9.5983,3.5449 1.8178,6.6513 4.3604,10.8895 10.4187,17.3663 6.1812,6.6082 7.608,6.7848 18.1003,2.2402 z m -26.4113,0.881 c -0.01,-0.1683 -1.6597,-3.5483 -3.6694,-7.5112 -2.6172,-5.1612 -3.6539,-8.9509 -3.6539,-13.3581 0,-5.6693 -2.2925,-10.6264 -4.9146,-10.6264 -1.4392,0 -2.2429,15.843 -1.027,20.2463 1.1293,4.0903 8.7036,11.5551 11.7244,11.5551 0.8558,0 1.549,-0.1376 1.5405,-0.3057 z m 56.9911,-2.1406 c 1.9879,0 2.4102,-5.5537 0.5115,-6.7272 -0.6727,-0.4157 -1.2231,0.097 -1.2231,1.1407 0,1.043 -1.1008,2.5839 -2.4463,3.4241 -2.9029,1.813 -3.2825,3.9682 -0.5115,2.9049 1.0642,-0.4084 2.7154,-0.7425 3.6694,-0.7425 z m -11.7197,-26.3152 c 0,-0.829 -7.6441,-5.4756 -9.0175,-5.4815 -0.5869,0 -0.3309,0.8826 0.5691,1.9669 2.1579,2.6001 8.4484,5.217 8.4484,3.5146 z m -30.5783,-2.9969 c 0,-0.649 -1.1009,-1.7692 -2.4462,-2.4892 -4.3951,-2.3522 -2.0536,-10.6448 2.6974,-9.5537 0.9107,0.2091 1.7943,-0.1702 1.9634,-0.843 0.1693,-0.6727 -1.0215,-1.391 -2.6463,-1.5964 -2.0317,-0.2568 -3.7618,0.6539 -5.542,2.917 -3.1101,3.9537 -3.2996,7.4858 -0.5639,10.5087 2.1314,2.3553 6.5376,3.0674 6.5376,1.0566 z m -10.3447,-16.6942 c 4.0488,-4.293 4.4358,-4.4297 10.3334,-3.6474 3.3698,0.4471 6.1269,0.541 6.1269,0.209 0,-0.3321 -1.5136,-3.1195 -3.3636,-6.1941 -4.1975,-6.9762 -9.7957,-9.1724 -17.4982,-6.8647 -14.2128,4.2583 -16.9378,23.1399 -4.4401,30.7643 l 3.8972,2.3774 0.369,-6.0922 c 0.3022,-4.9892 1.1306,-6.8998 4.5754,-10.5523 z m -8.5456,-4.0316 c -0.8365,-1.3534 0.4384,-5.0029 1.7476,-5.0029 1.6642,0 3.9257,3.5189 3.1098,4.839 -0.9717,1.5722 -3.9254,1.6719 -4.8574,0.1639 z m 8.6975,-2.149 c -1.792,-1.792 -0.7604,-5.3001 1.5587,-5.3001 3.1222,0 4.3239,2.1055 2.474,4.3344 -1.6147,1.9457 -2.7749,2.2235 -4.0327,0.9657 z m 19.3211,19.6444 c 1.6193,-1.6192 1.6884,-2.2992 0.3932,-3.8712 -1.389,-1.6858 -1.6165,-1.5999 -1.9621,0.7411 -0.2504,1.6971 -1.2647,2.6481 -2.8242,2.6481 -1.3383,0 -2.0932,0.5504 -1.6774,1.2232 1.1224,1.816 3.8458,1.4835 6.0705,-0.7412 z m 24.375,-2.2216 c -0.734,-1.9127 -9.0766,-5.6326 -12.429,-5.5419 -1.1637,0.031 0.5904,1.1139 3.8979,2.4053 3.3075,1.2916 6.5824,2.917 7.2776,3.6123 1.7149,1.7148 2.0458,1.5892 1.2535,-0.4757 z m -14.5175,-13.6099 c -5.0947,-3.4574 -4.8944,-3.4695 -6.0734,0.3662 -0.7943,2.584 -0.4944,2.752 4.9112,2.752 h 5.7572 z m 9.5753,-10.0633 c -2.1184,-1.8319 -4.5108,-4.6321 -5.3162,-6.2226 -1.88,-3.7128 -0.5348,-13.2026 2.079,-14.6653 2.9329,-1.6413 11.7678,1.0842 26.4817,8.1696 0.5752,0.277 0.9648,-1.5314 0.9648,-1.5314 -2.3397,-0.3847 -3.7434,-4.4774 0.7989,-4.1479 l -0.6797,-3.0802 c -0.6689,-3.0314 -5.3796,-0.8298 -5.2259,-4.0043 0.061,-1.2613 1.541,-2.2793 4.5376,-2.0867 1.045,-4.216 -5.9116,-14.261 -17.6479,-14.2838 -1.7101,0 -2.752,0.7341 -2.752,1.9503 0,3.3145 -7.6958,9.866 -14.3762,12.2388 -6.0331,2.1427 -6.3881,2.5113 -7.12,7.3924 -0.9623,6.4173 0.986,12.5253 5.318,16.6711 3.7276,3.5675 10.6246,6.893 14.3435,6.9157 2.0976,0.013 1.8972,-0.4597 -1.4056,-3.3157 z m 4.7692,-27.2198 c -3.4572,-1.3897 -3.5295,-3.2197 -0.1694,-4.2861 2.9233,-0.9279 6.7735,2.0495 5.4402,4.2068 -2.4974,1.6234 -3.3333,0.8519 -5.2708,0.079 z m 10.1339,22.5253 c 1.6581,-1.0864 3.0147,-2.471 3.0147,-3.0768 0,-0.8745 -18.7276,-10.8486 -20.3695,-10.8486 -0.233,0 -0.4237,2.1164 -0.4237,4.703 0,4.9906 2.0336,7.706 7.364,9.8327 4.4236,1.765 7.0216,1.6128 10.4145,-0.6103 z m 67.0485,89.37677 c -0.4268,-1.1121 -0.1046,-4.27685 0.7159,-7.03295 5.4218,-18.21082 7.6857,-30.75862 8.2969,-40.34482 0.7067,-11.0863 1.6195,-13.1605 4.6757,-10.6241 4.1303,3.4279 -0.308,35.6149 -7.4392,54.82552 -1.9743,5.31875 -4.8637,6.78735 -6.2493,3.17635 z m 38.7091,-9.10747 c 0,-2.0106 1.0708,-7.6523 2.3796,-12.5371 1.3088,-4.8847 2.7495,-11.5103 3.2016,-14.7236 1.5937,-11.3277 8.7243,-17.5159 21.7302,-18.8583 8.2774,-0.8542 13.8598,0.9513 21.4215,6.9285 6.5698,5.1931 9.9858,11.7711 13.1111,25.2474 2.1993,9.4832 1.597,13.9295 -1.8868,13.9295 -2.5097,0 -3.3331,-2.1753 -6.1299,-16.1927 -2.0199,-10.1239 -9.4394,-20.8642 -15.7113,-22.7433 -8.8051,-2.6381 -21.0872,-0.9282 -23.3215,3.2467 -0.7533,1.4075 -0.3319,6.0182 1.2525,13.7068 2.8046,13.6099 2.6494,21.7408 -0.4521,23.68555 -2.7854,1.7465 -6.1027,-0.2499 -7.0871,-4.26505 -0.6687,-2.7277 -0.8336,-2.6078 -2.2631,1.6446 -1.991,5.92285 -6.2447,6.55695 -6.2447,0.931 z m 42.4197,4.81319 c -0.3167,-0.5125 -0.6174,-10.57259 -0.6174,-15.31789 0,-4.7452 -0.6352,-10.9863 -1.4115,-13.8693 -0.7763,-2.8829 -1.1238,-5.5293 -0.7722,-5.8809 1.8653,-1.8653 4.5545,1.659 6.7911,8.9004 2.7689,8.9647 3.231,21.1085 1.291,24.73349 -1.2718,2.3761 -4.2063,3.17295 -5.281,1.4342 z m -46.3489,-65.18319 c -0.908,-3.0062 -2.4418,-5.0922 -4.2498,-5.7796 -3.4084,-1.2959 -3.6924,-3.5857 -0.5466,-4.4083 1.3327,-0.3486 2.8488,-2.487 3.6434,-5.1392 0.7485,-2.4982 3.299,-6.8064 5.6678,-9.5738 2.3688,-2.7674 4.3069,-5.7397 4.3069,-6.605 0,-0.8653 1.4642,-3.1016 3.2538,-4.9695 3.0177,-3.1498 3.3729,-3.2435 4.8935,-1.2901 1.5139,1.9448 1.7325,1.9518 2.8519,0.092 1.0186,-1.6923 2.9104,-1.9303 11.8402,-1.4895 5.8454,0.2886 12.0158,1.195 13.7119,2.0142 4.9879,2.4091 9.9277,13.2814 9.9277,21.8502 0,16.3648 -8.6129,24.4402 -30.5425,28.6365 -11.4187,3.5118 -21.4242,-3.021 -24.7582,-13.3379 z m 32.0611,3.9896 c 9.6807,-4.3888 14.6776,-10.804 14.6776,-18.8437 -0.022,-18.927 -16.8521,-20.6281 -30.6515,-13.6701 -7.2735,3.6675 -13.7336,15.8251 -11.3616,15.8856 4.4534,-0.144 3.0296,4.4525 -0.2059,4.7286 0,0 0.5824,3.8275 3.1838,7.6238 1.6068,2.345 4.0293,4.8026 5.3834,5.4615 4.1365,2.0125 13.1641,1.4484 18.9742,-1.1857 z m -15.9006,-3.7904 c -2.8821,-1.2176 -2.6836,-1.38 3.4533,-2.8253 3.5811,-0.8434 7.1312,-2.1537 7.8891,-2.9116 1.9706,-1.9706 4.5582,-1.701 4.5582,0.4746 0,2.2551 -7.0168,6.7279 -10.3965,6.6271 -1.3455,-0.04 -3.8223,-0.6542 -5.5041,-1.3648 z m -4.4519,-18.7391 c -1.0402,-2.7107 2.6917,-6.526 4.5578,-4.6599 1.9034,1.9034 0.8812,5.7816 -1.6526,6.2696 -1.1716,0.2256 -2.4789,-0.4988 -2.9052,-1.6097 z m 10.267,-0.913 c -0.9273,-2.5215 -0.1105,-5.3511 2.3829,-5.3511 2.4604,0 3.2988,1.7371 2.0678,4.9453 -0.8856,2.3077 -3.6583,2.5605 -4.4507,0.4058 z m -55.1496,13.2443 c -8.3606,-1.8009 -16.6151,-5.0153 -21.0045,-17.8719 -0.4379,-1.994 -1.9828,-4.4566 -3.4332,-5.4724 -2.1343,-1.495 -2.3778,-2.2619 -1.2775,-4.0237 0.7477,-1.1972 1.7519,-4.6324 2.2317,-7.6338 0.4796,-3.0014 2.2799,-7.6317 4.0005,-10.2896 2.2394,-3.4591 2.6863,-4.98 1.5724,-5.3513 -1.978,-0.6594 -6.1427,-4.7915 -6.1427,-6.0946 0,-3.2956 3.6406,-5.5341 9.0004,-5.5341 4.6493,0 5.6772,-0.3982 5.6772,-2.1994 0,-2.7461 4.2097,-5.1134 7.3312,-4.1226 1.2905,0.4095 3.7111,2.3666 5.379,4.3488 3.5929,4.2699 3.9326,4.3524 4.768,1.1578 1.2878,-4.925 11.887,-0.9095 13.8052,5.2301 0.4675,1.4961 2.9336,4.5149 5.4803,6.7083 6.4528,5.5579 9.0414,12.8753 8.1045,22.9088 -0.4054,4.3414 -1.5552,9.4754 -2.555,11.409 -2.5116,4.8569 -9.6332,11.7583 -14.532,14.083 -4.1961,1.9912 -16.127,3.2384 -18.4055,2.7476 z m -1.2129,-8.9633 c 3.7508,-4.7079 5.5936,-7.7503 5.0335,-8.3103 -0.3242,-0.3242 -2.5827,0.2434 -5.0189,1.2612 -2.4362,1.0179 -5.8232,1.8508 -7.5266,1.8508 -3.9736,0 -3.9314,1.6125 0.1257,4.8038 3.9301,3.0913 5.1844,3.1583 7.3863,0.3945 z m 14.8316,0.4102 c 4.508,-2.3617 10.826,-9.1541 12.4013,-13.3327 3.3227,-8.8132 0.276,-20.6966 -6.1941,-24.1593 -4.7267,-2.5297 -16.9213,-4.491 -22.0698,-3.5495 -6.0258,1.1019 -12.8093,7.3637 -14.4758,13.3624 -1.687,6.0728 -1.663,7.3256 0.5754,7.2043 4.8819,-1.243 4.0034,4.6889 -1.0638,4.4568 -1.7447,1.4811 1.248,7.4463 2.786,9.1864 0.4424,0 4.6483,-2.2579 9.3467,-5.0174 11.5184,-6.7652 13.5333,-7.4716 15.2863,-5.3593 1.8275,2.2019 -0.4128,13.5513 -3.3059,16.7481 -1.8482,2.0422 -1.7999,2.1905 0.7142,2.1905 1.4832,0 4.1829,-0.7787 5.9995,-1.7303 z m -15.3499,-23.6101 c -2.0821,-0.748 -1.9306,-4.605 0.2523,-6.4165 2.1878,-1.8158 4.3344,-0.6648 4.3344,2.3241 0,2.6626 -2.4592,4.8568 -4.5867,4.0924 z m -9.8843,-4.2117 c 0.2228,-1.5735 1.2307,-2.8608 2.2398,-2.8608 2.6526,0 2.2872,4.7718 -0.4051,5.2903 -1.7369,0.3345 -2.1489,-0.211 -1.8347,-2.4295 z m 1.0167,-16.9652 c 0,-1.5766 -3.4849,-3.0002 -4.6041,-1.881 -0.4561,0.4561 -0.019,1.3413 0.9701,1.9671 2.3677,1.4973 3.634,1.4673 3.634,-0.086 z m 25.6857,-3.5589 c 0,-1.4431 -2.3856,-2.9869 -3.2617,-2.1107 -0.8762,0.8761 0.6676,3.2617 2.1107,3.2617 0.6331,0 1.151,-0.5179 1.151,-1.151 z" fill="#00B894" transform="translate(-148.99034,115.95575) matrix(0.74711192,0,0,0.74711192,1257.0387,732.55562)"/>
</svg>