<?xml version="1.0" ?><svg height="283.24014mm" viewBox="0 0 183.82384 283.24014" width="183.82384mm" xmlns="http://www.w3.org/2000/svg">
    <path d="m 5313.9531,18580.523 c -34.0697,-0.01 -73.5664,23.685 -95.9453,59.436 -26.5044,47.097 -11.9537,131.445 58.875,150.73 70.8287,19.285 118.3104,-16.341 128.461,-79.171 10.1506,-62.83 -29.3232,-110.029 -66.7676,-126.168 -7.6059,-3.279 -15.9386,-4.823 -24.6231,-4.827 z m 193.5137,203.002 c -1.5621,0.03 -3.0182,0.278 -4.3398,0.77 -16.9177,6.293 -28.7598,55.928 -28.7598,55.928 0,0 93.9499,11.266 89.2129,-8.629 -4.3669,-18.34 -37.6805,-48.412 -56.1133,-48.069 z m -145.7344,45.077 c -22.0987,-0.06 -44.3613,1.394 -63.4219,3.703 -46.9184,5.684 -79.5117,18.675 -79.5117,18.675 5.0753,44.864 4.1718,90.033 28.9844,155.502 24.8126,65.469 36.8813,120.686 35.1895,151.137 -1.6918,30.45 3.9482,53.693 35.6406,67.904 31.6924,14.21 90.0015,14.009 109.8515,2.844 19.8501,-11.165 26.5049,-33.191 33.3848,-58.668 6.8798,-25.477 41.617,-104.752 32.707,-181.387 -8.9101,-76.633 -11.9552,-133.168 -47.4824,-147.683 -21.0942,-8.618 -53.0437,-11.94 -85.3418,-12.027 z m -196.1679,31.312 -104.7774,24.158 c 0,0 21.6552,44.051 52.4453,37.555 30.7902,-6.497 52.3321,-61.713 52.3321,-61.713 z" fill="#FFFFFF" transform="translate(-184.0107,71.316491) matrix(0.26458333,0,0,0.26458333,-260.39053,-4340.5278) translate(-3313.5291,-2437.8203)"/>
    <path d="m 1898.0469,17204.383 c -5.1515,-2.165 -6.4251,-3.863 -6.4251,-8.563 0,-3.223 1.4015,-7.025 3.1142,-8.447 5.5796,-4.631 43.5479,-21.599 61.2005,-27.353 l 17.2313,-5.615 0.3748,-24.043 c 0.2061,-13.223 -1.4843,-47.934 -3.7568,-77.136 -5.9701,-76.719 -7.9668,-131.098 -8.0056,-218.018 -3.3429,-63.253 -5.2741,-104.803 -6.1758,-135.609 -1.8529,-66.378 -4.055,-74.73 -35.929,-136.24 -28.1311,-76.452 -33.7347,-118.646 -32.8623,-138.712 -9.5368,0.379 -16.6956,2.046 -26.7104,3.79 l -1.2593,12.05 c -0.6928,6.627 -2.932,15.796 -4.9764,20.377 -15.3725,25.456 -41.5247,49.23 -71.9344,31.129 -8.8305,-4.275 -27.0171,-23.814 -29.5273,-31.722 -0.716,-2.256 -1.9617,-4.102 -2.7683,-4.102 -4.1293,0 -39.0499,12.03 -43.6275,15.029 -5.2565,3.444 -5.2886,3.616 -4.0914,21.843 1.8463,28.107 13.3383,71.731 23.3803,88.75 5.1144,8.669 26.0744,34.662 27.9498,34.662 0.7827,0 4.0941,-5.635 7.3585,-12.522 5.0482,-10.651 6.6464,-12.442 10.6934,-11.988 2.7365,0.306 6.3478,-1.172 8.4996,-3.482 8.0188,-8.607 20.7047,-7.253 20.6164,2.2 -0.042,4.465 0.5689,4.715 10.0222,4.098 8.744,-0.573 10.7199,0.03 15.0385,4.634 10.7428,11.435 5.9013,51.878 -7.2416,60.49 -4.0102,2.626 -8.3734,3.012 -23.3739,2.063 -21.4517,-1.359 -32.9045,-4.936 -45.6258,-14.254 -10.3561,-7.587 -36.9145,-38.392 -45.0143,-52.213 -14.2412,-24.301 -26.6362,-79.206 -24.3127,-107.696 1.6781,-20.579 5.1129,-26.007 20.9876,-33.165 38.7074,-16.114 82.756,-26.754 120.687,-38.554 44.5572,-13.901 110.3379,-26.618 155.1894,-30.002 95.5662,-7.21 110.767,-7.238 138.5436,-0.261 8.6513,2.172 21.6921,4.56 28.9796,5.307 l 13.25,1.355 2.3259,-15.638 c 1.3913,-9.354 4.2682,-18.951 7.1596,-23.886 9.5182,-16.241 29.5286,-24.414 46.4104,-18.955 17.3985,5.626 35.9278,24.842 42.9549,44.548 3.1595,8.86 3.6783,8.924 27.3419,3.41 41.8868,-9.762 64.1857,-18.226 65.888,-25.009 1.3523,-5.387 -6.5852,-35.469 -15.3098,-58.021 -11.4518,-29.601 -33.5364,-69.983 -45.5061,-83.211 -10.6653,-11.785 -23.9564,-21.996 -28.6314,-21.996 -3.5768,0 0.05,8.67 5.3076,12.688 3.4941,2.672 4.8053,5.634 4.8053,10.854 0,6.145 -1.8275,9.007 -12.689,19.868 -12.0081,12.008 -13.198,12.689 -22.1707,12.689 -5.215,0 -11.3224,-0.984 -13.5722,-2.19 -2.9581,-1.582 -4.6964,-1.582 -6.2796,0 -6.8592,6.86 -22.8236,-3.873 -28.7179,-19.307 -4.9309,-12.913 -4.7489,-33.774 0.3707,-42.518 5.2895,-9.033 12.4279,-14.006 21.9975,-15.327 4.3821,-0.604 11.3266,-2.511 15.4325,-4.238 23.4341,-9.851 67.8621,10.714 90.8903,42.073 22.4248,30.539 55.9284,110.305 58.3863,139.007 1.3018,15.201 0.026,20.631 -6.7361,28.668 -10.2743,12.21 -30.8828,19.584 -95.6721,34.233 -41.5974,9.407 -68.211,11.701 -93.2465,8.041 -4.3155,0.296 -23.6789,-5.864 -15.7328,3.349 4.9236,5.592 12.7591,22.394 17.281,37.06 8.362,27.119 10.6659,46.72 11.7658,100.103 0.8895,43.164 0.5036,54.674 -2.3848,71.126 -5.2959,30.162 -16.5288,63.008 -24.2286,92.077 -8.2167,31.021 -11.8986,69.023 -29.2884,81.371 l 10.1475,20.448 c 15.2369,30.704 25.0971,51.12 33.4455,98.213 2.7046,15.258 3.5743,31.264 3.6474,67.119 0.089,43.717 -0.2886,48.877 -5.2807,72.172 -5.6519,26.371 -17.6923,63.627 -27.6898,85.675 -3.2638,7.198 -5.5361,13.485 -5.0497,13.972 0.4864,0.487 18.7517,4.319 40.5896,8.516 21.8378,4.196 42.1297,8.572 45.093,9.723 15.1991,5.9 11.1133,26.168 -4.7976,23.798 -19.0762,-2.84 -68.5292,-13.969 -80.9583,-18.22 -9.0746,-3.103 -15.2604,-4.233 -17.0301,-3.113 -4.6671,2.955 -12.9929,2.025 -16.4935,-1.843 -4.7319,-5.227 -4.1035,-11.851 1.7888,-18.854 14.5157,-17.25 35.1775,-74.392 41.9094,-115.901 3.9813,-24.549 4.0206,-85.819 0.072,-113.592 -3.3277,-23.409 -10.88,-55.533 -17.9266,-76.25 -5.4025,-15.884 -19.903,-47.396 -24.1559,-46.042 -6.8616,2.185 -20.9113,3.92 -20.9113,3.92 -65.6722,6.918 -95.4741,-15.995 -109.8555,-29.43 -0.5733,0.573 0.015,27.714 1.3068,45.643 1.292,17.932 3.2202,60.55 4.2849,94.712 1.0648,34.16 2.8081,73.379 3.8743,87.154 10.4807,135.405 10.2839,142.81 -4.1897,157.557 -5.9863,6.099 -12.7351,10.266 -22.6589,13.99 -7.7733,2.918 -22.5336,8.834 -32.8005,13.149 -28.0592,11.793 -26.9361,11.511 -34.0124,8.535 z m 173.9801,-419.371 c 29.0755,-3.921 50.3904,-13.255 58.0872,-29.353 6.5678,-13.972 15.985,-55.995 14.1089,-56.649 -0.9308,-0.324 -5.6288,2.053 -10.4402,5.285 -16.5501,11.117 -55.9613,18.85 -81.4496,15.983 -6.9274,-0.78 -17.5211,-3.673 -23.5415,-6.429 -11.8338,-5.417 -12.5247,-4.874 -7.8953,6.206 3.2669,7.818 1.7637,11.553 -3.7921,9.422 -5.7759,-2.217 -9.7619,-12.753 -15.1372,-40.012 -4.5777,-23.216 -5.0135,-29.086 -3.8673,-52.092 1.3497,-27.09 2.934,-36.949 5.9378,-36.949 0.9824,0 1.7862,4.508 1.7862,10.018 0,11.725 -3.7442,10.918 37.0657,7.985 40.1386,-2.885 37.3343,-1.572 35.8563,-16.787 -0.8157,-8.397 -0.4824,-13.192 0.9797,-14.097 2.4743,-1.528 4.9983,3.498 8.28,16.49 1.9072,7.55 2.7216,8.46 6.58,7.348 2.4218,-0.697 13.4192,-4.028 24.4388,-7.403 11.0194,-3.375 21.2246,-6.451 22.678,-6.839 1.6119,-0.428 2.1662,-2.203 1.4212,-4.55 -1.3838,-4.359 2.2891,-7.65 5.2426,-4.697 2.4192,2.419 6.6367,18.927 9.7616,38.209 1.3066,8.061 2.8185,14.212 3.3602,13.672 4.5774,-4.578 8.7905,-80.103 5.4111,-97 -1.1452,-5.725 -1.5611,-5.961 -7.5133,-4.242 -9.0081,2.599 -37.9271,4.584 -44.1295,3.028 -7.1148,-1.785 -6.9167,-7.257 0.2618,-7.233 3.0304,0.02 15.7366,-1.906 28.2359,-4.26 l 22.726,-4.278 -1.4361,-16.224 c -4.3679,-49.344 -17.9078,-81.244 -40.5922,-95.637 -18.7953,-11.926 -29.9219,-13.857 -79.8431,-13.857 -41.2167,0 -41.7225,1.908 -68.4104,5.261 -75.6979,11.479 -68.5321,40.992 -29.6438,156.024 19.9645,40.038 25.1413,53.597 30.5508,80.021 3.777,18.448 4.6694,50.858 1.9003,82.573 -0.9758,11.175 -1.2027,22.597 -0.5043,25.38 5.3683,23.408 71.8533,38.606 93.5258,35.683 z m -77.2225,-240.544 c -45.892,-11.066 -46.6292,-15.027 -2.0035,-10.765 34.9186,3.336 51.164,2.499 68.8001,-3.545 l 12.7011,-4.353 -1.2763,-14.281 c -0.7019,-7.855 -2.2681,-20.878 -3.4805,-28.94 -1.8852,-12.538 -1.7577,-15.106 0.8828,-17.747 2.7804,-2.78 3.4836,-2.689 7.0787,0.905 6.0866,6.087 12.6951,25.868 13.9036,41.618 1.5161,19.76 -1.1774,24.233 -20.4954,34.038 -14.0062,7.109 -16.8468,7.811 -33.6821,8.316 -14.7464,0.441 -23.1452,-0.597 -42.4285,-5.246 z m 77.9375,162.015 c 0.7955,-0.798 7.2084,-30.275 7.2129,-33.155 2e-4,-0.12 -10.1426,-0.165 -22.5396,-0.09 -12.3969,0.08 -27.7956,-1.031 -34.2191,-2.454 -6.4236,-1.423 -12.169,-2.096 -12.7674,-1.498 -0.5985,0.598 0.605,8.567 2.6742,17.706 l 3.7622,16.618 9.0051,2.434 c 8.7646,2.369 44.614,2.707 46.8717,0.442 z m 32.8196,-6.741 c 5.8189,-1.549 17.2209,-3.439 25.338,-4.2 14.4095,-1.351 14.7866,-1.525 15.9671,-7.427 1.4041,-7.021 1.6478,-39.606 0.2963,-39.606 -0.502,0 -4.1919,2.225 -8.1997,4.945 -4.0077,2.72 -15.0924,7.411 -24.6325,10.426 -9.5399,3.013 -18.1087,6.104 -19.0414,6.868 -1.2389,1.015 -7.297,26.975 -7.3176,31.356 0,1.272 7.9535,0.203 17.5898,-2.362 z m -28.1109,-40.33 c 4.1636,-1.248 4.5079,-2.521 4.5049,-16.646 v -15.294 l -38.3559,-0.432 -38.3557,-0.431 1.2385,16.062 c 0.6813,8.834 1.8438,17.04 2.5834,18.238 1.4415,2.332 59.8875,1.053 68.3882,-1.497 z m 56.6003,-12.475 11.0194,-1.433 0.6606,-9.016 c 0.3632,-4.959 0.059,-14.719 -0.6766,-21.69 -1.2411,-11.762 -1.5816,-12.452 -4.7408,-9.593 -4.7189,4.271 -21.0072,11.354 -35.1448,15.282 l -11.8519,3.296 0.4799,14.798 c 0.264,8.14 0.8759,15.44 1.3596,16.223 0.4837,0.781 6.9536,-0.346 14.3773,-2.507 7.4238,-2.161 18.4565,-4.572 24.5173,-5.36 z m -347.54,-15.958 c -2.2347,-9.049 -5.0842,-10.116 -5.0842,-1.904 0,5.476 0.8421,7.413 3.2226,7.413 2.5096,0 2.9215,-1.219 1.8616,-5.509 z m 8.6779,-31.24 c 1.2274,-1.479 1.6462,-3.273 0.9306,-3.99 -1.5037,-1.503 -6.6786,2.31 -6.6786,4.921 0,2.637 3.219,2.116 5.748,-0.931 z m 38.7078,-156.104 c 1.2473,-4.14 1.8888,-7.906 1.4254,-8.37 -0.9148,-0.915 -56.7987,11.574 -67.4192,15.067 -3.5813,1.177 -6.5115,2.89 -6.5115,3.805 0,0.915 6.4706,5.805 14.3794,10.864 23.7761,15.782 49.9007,4.022 58.1259,-21.366 z m 399.7133,-51.155 c 5.9937,-3.811 -11.6679,-29.298 -24.5321,-35.403 -14.0274,-6.655 -24.2023,0.235 -34.6381,23.458 l -6.0772,13.524 c 19.9268,-4.227 47.3479,5.54 65.2474,-1.579 z m 7.8087,-176.89 c -2.8528,-3.39 -5.1869,-7.395 -5.1869,-8.898 0,-1.504 -0.8437,-3.254 -1.8748,-3.891 -3.7571,-2.324 1.8694,11.982 6.0763,15.447 6.4007,5.273 6.7854,4.234 0.9854,-2.658 z m -17.2081,-23.89 c 0,-1.101 -0.3976,-2.003 -0.8836,-2.003 -0.486,0 -1.4408,0.902 -2.1218,2.003 -0.681,1.103 -0.2835,2.005 0.8836,2.005 1.167,0 2.1218,-0.902 2.1218,-2.005 z m -250.5525,174.495 c -31.7053,-3.489 -69.1291,-30.893 -85.0248,-62.262 -12.4598,-29.284 -15.1998,-64.335 -4.1869,-90.148 20.1333,-46.606 64.6055,-78.183 110.1118,-78.183 33.6112,0 51.189,7.1 76.9199,31.067 22.0924,20.579 26.9786,29.568 33.4809,61.597 0.9572,4.714 2.1045,5.509 7.9497,5.509 7.8971,0 13.128,4.325 13.128,10.852 0,5.099 -3.8833,9.12 -13.5239,14.003 -6.3195,3.201 -6.5115,3.674 -6.5115,16.059 0,35.253 -23.2888,68.609 -60.1064,86.088 -24.5956,8.782 -43.5311,8.395 -72.2368,5.418 z m 61.8856,-26.227 c 23.7596,-11.24 42.6325,-36.349 45.3588,-60.348 l 1.2788,-11.257 -7.1237,-4.203 c -5.711,-3.37 -7.1236,-5.427 -7.1236,-10.374 0,-4.785 1.3647,-6.939 6.0705,-9.586 5.3782,-3.023 6.0066,-4.326 5.5099,-11.426 -0.6701,-9.573 -6.1838,-11.396 -7.217,-2.386 -1.3469,11.746 -12.3777,7.411 -12.3777,-4.864 0,-5.057 6.1939,-12.179 12.3877,-14.244 -9.0804,-53.049 -65.8714,-72.73 -101.8489,-60.638 -35.9845,12.231 -70.0971,52.877 -75.4264,89.869 -4.0706,28.255 6.3969,57.053 28.3218,77.918 34.9625,26.962 78.2371,37.49 112.1898,21.539 z m -9.1416,-45.395 c -1.3545,-0.549 -4.7974,-5.287 -7.6508,-10.53 -5.5196,-10.141 -15.5289,-16.637 -29.7403,-19.304 -13.5183,-2.535 -7.0292,-14.935 7.8162,-14.935 8.1058,0 25.9841,7.698 31.4235,13.53 10.4717,11.228 13.453,24.801 6.5552,29.846 -3.9229,2.867 -4.5164,2.966 -8.4038,1.393 z m 2.7472,-59.295 c -1.5472,-2.48 -3.3842,-6.971 -4.0823,-9.981 -0.7991,-3.446 -3.6698,-6.687 -7.7516,-8.75 -13.49,-6.818 -20.2125,-16.831 -11.2988,-16.831 8.9276,0 26.9075,6.756 32.2819,12.131 4.4177,4.417 5.5929,7.435 5.5929,14.362 0,13.284 -8.7518,18.669 -14.7421,9.069 z" fill="#00B894" transform="translate(-184.0107,71.316491) matrix(0.26458333,0,0,0.26458333,-260.39053,-4340.5278)"/>
</svg>