<?xml version="1.0" ?><svg height="77.691307mm" viewBox="0 0 44.460602 77.691307" width="44.460602mm" xmlns="http://www.w3.org/2000/svg">
    <path color="#000" d="M 139.86211,378.67482 C 127.27244,319.50575 109.41018,296.84525 81.325558,243.0992 53.240931,189.35314 90.364267,117.30441 142.98261,116.52968 c 52.61834,-0.77473 103.83778,76.79391 64.34715,132.96095 -39.49063,56.16704 -67.46765,129.18419 -67.46765,129.18419 z" fill="#FFFFFF" overflow="visible" paint-order="fill markers stroke" transform="translate(115.80869,16.944328) matrix(0.26458333,0,0,0.26458333,-132.13957,-46.387724)"/>
    <path d="m 136.36901,403.10258 c -0.33885,-0.32784 -3.94352,-0.91577 -8.01034,-1.30655 -6.35458,-0.61067 -12.24657,-1.97296 -23.3572,-5.40028 -23.644098,-7.29346 -7.701349,-24.60284 22.99055,-24.96137 0.47609,-0.009 0.609,-1.81241 0.29521,-4.01524 -0.31379,-2.20292 -0.83647,-6.77809 -1.16163,-10.16704 -0.64376,-6.71052 -1.83367,-11.46565 -6.1678,-24.6474 -1.55999,-4.74459 -3.23774,-10.54932 -3.72825,-12.89939 -0.49051,-2.35006 -1.3316,-5.12289 -1.86897,-6.16187 -0.53747,-1.03897 -2.2447,-5.21643 -3.79379,-9.28324 -4.10684,-10.78122 -10.5777,-21.08589 -18.687111,-29.75847 -7.419999,-7.93538 -19.361463,-24.63104 -19.361463,-27.06974 0,-0.77141 -1.411832,-4.59504 -3.137456,-8.49696 -3.40716,-7.70404 -9.545463,-33.96762 -8.549926,-36.58129 0.337824,-0.88685 0.84673,-4.10804 1.130853,-7.15816 0.685259,-7.35585 1.785979,-12.11513 3.890926,-16.82321 0.95487,-2.13582 1.73616,-4.52415 1.73616,-5.30738 0,-2.43713 9.774408,-20.5438 12.346667,-22.87168 1.342973,-1.21533 2.441753,-2.77329 2.441753,-3.46215 0,-0.68886 0.921226,-2.27031 2.04718,-3.51448 1.126046,-1.24426 2.662008,-3.49523 3.413352,-5.00227 0.751345,-1.50703 2.464306,-3.30549 3.806541,-3.99667 1.342233,-0.69117 5.490569,-3.55901 9.218454,-6.37288 13.29155,-10.03284 22.93305,-14.15354 36.97105,-15.80134 8.54679,-1.0033 8.62175,-1.00367 12.32366,-0.0684 1.69457,0.42803 4.4674,1.0533 6.16187,1.38946 21.90887,4.34586 43.38174,19.86233 58.41528,42.21106 2.43954,3.62658 4.43552,7.02209 4.43552,7.54561 0,0.52351 1.07224,3.37924 2.38278,6.34608 15.10914,34.20395 6.40653,69.94877 -25.4897,104.69555 -6.22241,6.93956 -10.24976,13.66718 -14.77871,20.60572 -12.80021,19.50381 -21.61235,37.16525 -25.07654,50.25883 -1.42025,5.368 -3.15031,11.70096 -3.84462,14.0733 -3.36252,11.48848 -2.57642,12.85965 7.85967,13.70795 10.96146,0.891 19.109,4.97466 23.37754,6.8676 9.74371,3.65068 4.09707,9.18148 -1.24716,12.2068 -4.38911,5.46653 -40.36718,17.62048 -46.98435,11.21958 z m 23.12132,-20.20135 c -1.17826,-0.30843 -3.39652,-0.31962 -4.92954,-0.0249 -1.5329,0.29485 -0.56888,0.54718 2.14229,0.56086 2.71128,0.0139 3.96552,-0.22747 2.78725,-0.53591 z m -15.72712,-43.58628 c 1.08168,-3.9538 4.83998,-17.29118 6.7219,-19.65012 0.81105,-1.01671 3.06851,-5.17595 5.01641,-9.24276 1.94792,-4.06682 5.92665,-10.82097 8.84155,-15.00923 2.91497,-4.18827 5.29988,-8.14787 5.29988,-8.79911 0,-1.72489 10.10983,-15.18919 20.98727,-27.95114 15.97991,-18.7483 24.52882,-40.8287 22.90255,-59.15369 -1.57007,-17.69277 -2.51616,-21.44644 -8.54216,-33.89016 -4.93027,-10.1809 -22.05979,-27.65121 -32.17073,-32.81079 -3.81967,-1.94922 -8.28595,-4.25334 -9.92506,-5.1204 -1.63912,-0.86707 -5.08926,-1.79421 -7.66688,-2.06031 -2.57771,-0.2661 -7.21749,-1.16912 -10.31067,-2.00669 -13.8342,-3.7461 -55.378204,25.36409 -55.378204,38.80398 0,0.65273 -1.05885,2.33167 -2.35293,3.73094 -6.898981,7.46002 -11.879907,35.61662 -8.802343,49.75879 3.547555,16.30165 12.520799,36.51927 19.563694,44.07892 10.301053,11.05684 20.710633,24.49785 24.261703,31.32715 5.91573,11.37691 16.57061,47.58729 16.67394,56.66599 0.049,4.33625 0.049,4.33625 1.90318,0.91808 0.47017,-3.80604 1.98121,-5.95826 2.9769,-9.58945 z m -2.21872,-103.77304 c -24.5191,-7.85284 -23.19629,-59.92841 1.52598,-60.07177 0.71992,0 2.86212,-0.8178 4.7604,-1.80788 8.62165,-4.49707 19.80493,-4.55151 25.23783,-0.12303 22.57489,18.40179 -4.06461,70.79717 -31.52421,62.00268 z m 15.32996,-16.29508 c 18.33468,-19.1352 13.96544,-48.30721 -4.94091,-32.98881 -15.45602,12.52293 -18.46288,24.71737 -8.62618,34.98469 4.64616,4.84958 7.39551,4.44512 13.56709,-1.99588 z" fill="#00B894" transform="translate(115.80869,16.944328) matrix(0.26458333,0,0,0.26458333,-132.13957,-46.387724)"/>
</svg>