<?xml version="1.0" ?><svg height="94.332291mm" viewBox="0 0 102.32711 94.332291" width="102.32711mm" xmlns="http://www.w3.org/2000/svg">
    <path d="m 10264.305,4578.1934 c -18.865,0.6154 -14.869,26.2871 -14.869,26.2871 l -285.7212,-0.252 c 0,0 0.6285,-22.8495 -10.2128,-23.416 -10.8414,-0.5665 -19.1641,7.9941 -19.1641,7.9941 0.2798,21.465 0.8392,134.8326 1.4687,148.2403 0.6295,13.4078 10.3507,19.6389 20.5625,16.3027 10.2119,-3.3362 16.0879,-28.1992 16.0879,-28.1992 l 284.184,-8.1211 c 0,0 3.218,20.1444 20.074,19.8926 16.857,-0.2517 18.256,-41.4198 17.137,-56.0235 -1.119,-14.6038 -1.96,-99.3311 -25.461,-102.4785 -1.469,-0.1967 -2.829,-0.2676 -4.086,-0.2265 z m -148.022,193.375 c -1.452,-0.01 -2.928,0.025 -4.428,0.1 -47.982,2.392 -74.001,27.1933 -77.917,70.6269 -3.318,36.7808 27.409,70.1513 72.812,67.9199 45.403,-2.2313 74.56,-45.3845 75.68,-72.8925 1.084,-26.6484 -21.134,-65.5249 -66.147,-65.7539 z" fill="#FFFFFF" transform="translate(-77.204241,-57.282176) matrix(0.26458333,0,0,0.26458333,-1295.6368,-10.767389) translate(-4730.5688,-4305.3989)"/>
    <path d="m 5330.7803,607.04728 c -39.4811,-18.52128 -52.9442,-66.20848 -30.8943,-109.42974 7.5443,-14.78789 31.6228,-32.66249 53.9055,-40.01643 9.5493,-3.15153 12.432,-6.18976 12.432,-13.10161 0,-8.87122 -0.4862,-8.99912 -34.3609,-9.02503 -18.8984,-0.0276 -45.3413,-1.0639 -58.7616,-2.33158 l -24.4009,-2.30544 -3.5343,12.32345 c -3.0903,10.77487 -5.8588,12.92293 -22.033,17.09334 -21.8862,5.64359 -30.7582,3.69424 -33.4814,-7.35624 -1.0993,-4.46065 -1.2828,-46.44854 -0.4077,-93.30636 1.7798,-95.33469 1.669,-94.96685 28.6472,-94.96685 13.3093,0 24.6476,7.62311 20.7405,13.9448 -5.3747,8.69657 4.6327,10.57132 40.2968,7.54909 20.4307,-1.73153 81.8614,-3.51487 136.5125,-3.96318 l 99.3658,-0.81465 v -9.81792 c 0,-10.91094 5.6966,-14.32772 23.876,-14.32772 25.0335,0 30.9724,16.70639 35.3697,99.49312 3.4318,64.61419 1.1918,77.75448 -14.7049,86.26223 -17.4612,9.34486 -44.5382,1.02522 -44.5382,-13.68473 0,-3.81961 -2.0653,-4.91149 -6.2516,-3.30499 -3.4386,1.31937 -22.2442,3.24789 -41.7904,4.28542 -61.9929,3.29106 -67.1139,4.41391 -67.1139,14.71548 0,7.26506 4.2432,11.14742 21.9528,20.08725 33.5262,16.92399 47.6616,43.03395 43.7606,80.8314 -2.5281,24.4939 -14.1739,41.24404 -38.6482,55.58696 -23.2347,13.61612 -72.6793,16.49191 -95.9406,5.57993 z m 67.3927,-19.24394 c 3.775,0 4.686,-2.60155 3.1101,-8.88157 -2.8543,-11.37204 4.2828,-15.93296 12.8293,-8.19841 9.0256,8.16778 10.6056,7.65788 19.0165,-6.1368 9.2699,-15.2042 9.3349,-37.1441 0.17,-57.33163 -12.8517,-28.30684 -43.6196,-34.9768 -80.6133,-17.47614 -28.9382,13.69003 -45.9788,42.30415 -25.1937,42.30415 7.1292,0 9.2243,1.65232 8.2421,6.50061 -0.8031,3.96502 -4.532,6.38582 -9.5591,6.20588 -9.8471,-0.35252 -11.302,11.54553 -2.7882,22.80186 4.9349,6.52433 5.4651,6.59202 5.572,0.70988 0.075,-4.10329 3.0134,-6.5006 7.9692,-6.5006 6.5878,0 7.5913,1.77021 6.2362,11.00143 -1.057,7.20209 0.1867,11.69232 3.597,13.00156 10.0406,3.85277 15.2415,1.93094 16.4184,-6.06738 1.4456,-9.82551 9.7622,-13.36214 12.3292,-5.24306 1.0224,3.2343 2.7092,8.56175 3.7478,11.83831 1.1472,3.61848 4.1832,5.07704 7.7334,3.71461 3.2146,-1.23337 8.247,-2.2427 11.1834,-2.2427 z m -35.4627,-35.04703 c -2.4327,-2.93117 -3.891,-10.87134 -3.2409,-17.64469 1.0204,-10.63072 3.1503,-12.95815 15.5682,-17.01228 7.9125,-2.58325 19.3242,-8.85176 25.3592,-13.93019 22.9262,-19.29091 30.3966,-4.40919 8.4597,16.85295 -7.1979,6.97643 -12.3386,14.63466 -11.424,17.01839 0.9147,2.3835 -0.8133,7.86891 -3.8394,12.18944 -6.4037,9.14235 -24.1849,10.59688 -30.8828,2.52638 z m 55.519,-5.81479 c 0,-5.59477 1.9396,-7.60054 6.5007,-6.72211 3.5755,0.68847 6.5008,3.71358 6.5008,6.72211 0,3.009 -2.9253,6.03377 -6.5008,6.72246 -4.5611,0.87843 -6.5007,-1.12756 -6.5007,-6.72246 z m -79.4685,-35.59331 c -3.4206,-8.91416 -2.9236,-9.59503 6.0651,-8.31261 10.6842,1.52441 13.8029,14.18864 3.4941,14.18864 -4.0175,0 -8.3191,-2.64426 -9.5592,-5.87603 z m 39.5356,-11.61415 c -6.6407,-2.43497 -5.755,-15.94217 1.045,-15.94217 6.7266,0 11.5824,10.33899 6.8776,14.64421 -1.8036,1.65014 -5.3689,2.23441 -7.9226,1.29796 z m -150.8899,-72.59143 c -1.232,-4.59696 -2.2627,-38.0292 -2.2906,-74.29371 -0.039,-50.27771 -1.1546,-65.93597 -4.6984,-65.93597 -3.5658,0 -4.6468,17.29423 -4.6434,74.28289 0,70.03166 0.4012,74.28335 6.9383,74.29394 5.3795,0 6.4318,-1.86266 4.6941,-8.34715 z m 322.9124,-48.29093 c -4.5065,-83.11658 -6.0593,-95.65337 -11.847,-95.65337 -4.0209,0 -4.9464,3.12228 -3.5785,12.07271 1.015,6.63991 2.8443,31.29615 4.0654,54.79177 2.6916,51.79222 5.3729,70.57921 10.0729,70.57921 2.1845,0 2.6805,-16.09517 1.2872,-41.79032 z m -178.7778,25.06805 c 43.0447,-1.15394 92.1057,-3.03283 109.0243,-4.17514 l 30.761,-2.07668 -1.0433,-43.30484 -1.0436,-43.3045 -131.334,-0.97687 -131.3339,-0.97651 2.3551,30.69425 c 1.2954,16.88185 3.2757,40.03543 4.4004,51.45225 l 2.0455,20.75811 18.9525,-2.99611 c 10.4242,-1.64771 54.1712,-3.94003 97.216,-5.09396 z" fill="#00B894" transform="translate(-77.204241,-57.282176) matrix(0.26458333,0,0,0.26458333,-1295.6368,-10.767389)"/>
</svg>