<?xml version="1.0" ?><svg height="80.848991mm" viewBox="0 0 112.28136 80.848991" width="112.28136mm" xmlns="http://www.w3.org/2000/svg">
    <path d="M 1.9765434,7.4582682 C -5.4898394,7.7061775 -10.1054,2.3712251 -5.9291668,-5.4428785 -1.7529332,-13.256982 8.1923361,-10.739699 10.931168,-20.371847 c 2.738834,-9.632149 8.061105,-30.399844 14.102077,-39.332749 6.040972,-8.932906 19.735144,-11.205468 29.097679,-8.880465 9.362532,2.325003 15.889107,11.292873 18.491975,23.94928 2.602867,12.656406 4.758962,25.942133 5.516517,29.298528 0.757555,3.356396 2.091648,5.8738112 11.984823,8.6881709 9.893171,2.8143597 10.799941,7.62180436 10.799941,10.3838453 0,2.7620409 -0.13597,4.4751942 -5.652485,3.985723 C 89.755177,7.231015 1.9765434,7.4582682 1.9765434,7.4582682 Z" fill="#FFFFFF" transform="translate(8.8794467,70.953861)"/>
    <path d="m 681.45703,0 c -8.7359,-0.0279685 -17.12221,0.59072248 -22.57031,1.9199219 -2.9022,0.708102 -8.77955,2.0518286 -13.06055,2.9863281 -20.9203,4.5659979 -35.84861,13.755733 -52.53711,32.332031 -26.26381,30.583102 -41.48743,87.578479 -54.79492,135.050779 -2.33511,17.9893 -7.27807,27.21924 -17.16406,32.05274 -2.41588,1.18119 -5.26362,2.67134 -6.32813,3.31054 -29.69937,17.0894 -38.47861,22.90309 -47.47461,61.21289 -0.91271,14.1352 -1.74738,22.79775 12.37305,28.43165 13.4459,6.56057 72.68665,5.64317 108.57031,4.42187 17.63182,0.2247 43.38131,1.71123 58.78711,1.73633 28.7913,0.047 82.01047,1.45309 90.35547,1.93359 16.132,0.9286 110.86736,-2.01399 113.28516,-1.93359 37.39868,2.2987 39.46605,-6.19286 39.80273,-12.91406 0.19994,-10.8572 4.94659,-24.87519 -12.0332,-36.86329 -2.51411,-1.1712 -8.2369,-4.35547 -12.7168,-7.07617 -8.5161,-5.1716 -36.65941,-14.96113 -46.09961,-17.73633 -17.3147,-5.0901 -18.39705,-7.72643 -24.75586,-60.33593 C 788.341,112.6461 786.93038,106.73596 770.80078,66.722656 760.99638,42.400457 743.76341,16.638419 714.10352,6.3535156 707.21211,4.3090182 692.68883,0.03639685 681.45703,0 Z m 6.83399,15.271484 c 11.1547,-0.02986 22.94866,4.398847 29.20117,7.214844 38.2615,22.211301 45.91231,60.247825 53.3164,84.353512 3.2656,11.63361 4.80975,21.89937 9.26953,61.63086 1.352,11.98941 0.76141,40.10955 12.0879,57.02149 0.81469,1.21643 1.5372,2.03373 1.98437,2.79297 5.09781,8.65543 41.71195,17.59371 62.78125,28.13476 12.4656,6.3294 21.34736,13.87896 15.38086,31.81836 -0.90783,2.89545 -15.80063,4.54427 -16.35742,-1.96404 -0.40731,-22.45004 -22.01466,-36.51795 -53.76758,-44.22346 -15.80569,-4.80094 -25.40458,-9.02086 -30.95703,-25.42773 -4.0308,-11.82751 -3.15191,-27.88713 -1.22461,-45.23633 2.2623,-20.3654 -3.88266,-69.00238 -11.22266,-85.921876 -6.25519,-22.2513 -28.41826,-47.038943 -56.57226,-54.056641 -2.3845,-0.4715 -14.30052,-3.614273 -18.94922,-3.701172 -52.7418,-4.186598 -77.17083,31.09076 -87.86133,82.630859 -2.2039,7.1846 -7.11597,32.54253 -8.12695,41.95313 -2.90011,26.99999 -14.08628,61.40907 -24.16406,74.32617 -4.50259,5.7715 -4.50329,5.77212 -18.35938,5.66992 -13.10412,-0.097 -14.30339,0.13189 -22.09961,4.21289 -14.91847,7.8091 -19.67194,38.05447 -18.28516,48.88867 1.03832,8.1117 -21.59028,2.99468 -23.07031,-5.21679 -5.83268,-25.3155 5.07482,-38.01656 17.75781,-47.28126 10.21573,-7.68917 15.52457,-10.67818 34.77344,-19.58398 7.53563,-4.6631 14.88051,-8.85666 17.42969,-28.28516 4.77392,-35.5972 19.27432,-61.99335 28.89844,-100.748042 1.78019,-4.9855 1.96403,-5.366916 7.00195,-14.541016 2.24999,-4.097201 6.59329,-10.025279 9.65039,-13.171875 3.0571,-3.1464 8.46061,-8.864986 12.00781,-12.708985 3.5473,-3.843898 8.38927,-8.211178 10.75977,-9.705078 2.3706,-1.4941 6.80472,-4.326465 9.85351,-6.292968 12.0074,-7.7448 37.56789,-12.524432 58.86329,-12.582032 z m 37.32812,64.398438 c 12.0463,-0.0973 8.21891,4.882937 13.31641,12.773437 0.6361,0.7737 1.34927,1.550058 4.82617,2.664063 6.5958,2.113202 9.31364,11.177588 3.84766,14.054688 -3.0467,2.3204 -11.19874,-3.40601 -19.99024,6.24219 -6.7817,7.44251 -15.36065,7.39842 -16.31836,-0.084 -0.52519,-4.1021 0.21916,-5.22224 7.21484,-10.86914 7.79891,-6.295489 7.79817,-6.294609 4.66016,-10.507811 -1.61359,-2.285597 -4.24533,-14.06613 2.44336,-14.273437 z M 631.875,85.710938 c 1.43326,-0.03842 2.90054,0.146977 4.37695,0.589843 2.3826,0.714686 1.5157,4.322834 0.875,7.332031 -1.7723,8.320408 5.6454,15.471058 9.7793,18.906248 7.1896,5.9745 -0.55686,17.19868 -8.47266,13.48828 -2.3472,-1.10039 -4.696,-2.57117 -5.2207,-3.26757 -3.43776,-4.56357 -7.09101,-2.68016 -9.44531,-4.28321 -16.35965,-11.1393 -5.74746,-32.394259 8.10742,-32.765622 z m 53.16797,32.835942 c 7.1264,-0.1711 15.66229,2.22149 18.50195,3.86914 14.47041,8.3961 30.1995,32.45107 11.875,39.48437 -7.9133,2.7498 -10.71548,1.89162 -10.61328,15.16602 0.0299,3.93019 3.84481,14.79639 3.50781,17.55859 -0.42664,3.49767 -4.08084,9.53711 -4.76953,4.08008 -0.23261,-1.84318 -0.16902,-2.1283 -0.36523,-4.10938 -0.45809,-4.62515 -2.38766,-5.86674 -4.72266,-5.83398 -1.14035,0.016 -2.3784,0.33732 -3.58789,0.71484 -6.39844,4.76405 -1.71047,6.28146 -1.99023,10.58789 -0.12371,2.30009 -7.30157,1.45582 -7.10938,-1.33203 0.002,-0.77413 -0.0264,-1.5551 -0.10351,-2.33398 -0.55398,-5.59321 -3.64103,-7.654 -6.75586,-7.61328 -0.71881,0.009 -1.43777,0.12998 -2.12891,0.3457 -2.49338,0.77825 -2.0061,4.15679 -1.87695,10.53906 0.002,2.76106 -4.54713,3.51664 -4.71485,1 -0.82939,-7.6268 -2.7353,-11.08871 -6.87109,-11.05469 -0.13379,0.001 -0.26971,0.005 -0.4082,0.0137 -3.23447,0.19593 -3.0443,1.94834 -3.3086,7.51562 -0.14079,5.09803 -5.42935,2.53391 -6.35547,-1.88086 -0.92613,-4.41476 2.51017,-10.68017 5.17383,-12.89844 7.87613,-10.13994 -8.02007,-20.94192 -9.9082,-35.6289 -1.88813,-14.68699 12.48927,-27.75427 36.53125,-28.18945 z m -19.35938,17.77929 c -3.4875,0.064 -4.89845,11.00821 -0.96875,16.22461 1.1733,1.5576 10.05957,4.52517 12.75977,-0.0703 2.5447,-5.9522 -4.99192,-16.27672 -11.79102,-16.15235 z m 28.20899,0.37891 c -1.241,-0.01 -2.34859,0.41833 -3.11719,1.39844 -2.7118,3.45849 -2.89276,13.80718 -0.28125,16.08398 3.4239,2.9854 13.27227,-3.96262 12.63867,-8.91602 -0.5915,-4.6209 -5.51723,-8.546 -9.24023,-8.5664 z m -11.57617,28.86328 c -2.6105,0.0291 -5.32617,1.14475 -6.32227,2.31055 -2.119,2.4801 -1.35644,10.87703 1.22266,13.46093 6.2923,6.3042 14.76232,-5.51545 10.14062,-13.38086 -1.0437,-1.77589 -3.01072,-2.41332 -5.04101,-2.39062 z m 67.18945,13.37305 c 5.528,0.0809 8.03257,9.65716 0.20117,20.32226 -2.9865,6.5572 4.53925,30.30916 -9.94141,15.58789 -2.48198,-1.66009 -3.57372,-10.4769 -9.79882,-11.5625 -7.3206,-3.2458 -7.78578,-3.9929 -8.50008,-8.56001 -1.0141,-6.48539 5.02063,-7.99055 11.2364,-4.75835 3.81749,0.1481 4.25753,1.46576 8.07813,-4.46484 3.0753,-4.6768 6.21191,-6.60149 8.72461,-6.56445 z m -112.6952,11.25605 c 7.6697,0.0631 4.40895,14.87697 -4.83593,20.55468 -4.29651,4.21779 -7.82454,4.16403 -5.54114,7.13653 7.7165,10.04501 6.06985,20.32554 -4.56445,25.05274 -7.9081,2.4462 -13.59565,-8.90814 -14.56055,-20.55274 -1.127,-8.9614 -12.85987,-7.00019 -8.17187,-20.08789 3.2197,-5.8675 13.21213,3.46243 16.67773,0.33203 8.1814,-7.39019 6.58838,-4.92074 13.88098,-9.83184 2.995,-1.8504 5.34544,-2.61863 7.11523,-2.60351 z" fill="#00B894" transform="translate(8.8794467,70.953861) matrix(0.26458333,0,0,0.26458333,-132.46348,-70.953621)"/>
</svg>