<?xml version="1.0" ?><svg height="170.40866mm" viewBox="0 0 161.36246 170.40866" width="161.36246mm" xmlns="http://www.w3.org/2000/svg">
    <path color="#000" d="m 107.31066,1100.7773 c 0,0 -17.975536,-580.96109 -18.98217,-597.91498 -1.006634,-16.95389 24.59054,-19.15398 29.04847,8.80047 69.02608,-27.04854 164.37248,8.97795 226.20428,48.7909 81.00002,52.15521 328.18436,-1.76476 316.65729,-12.55363 l -35.95106,45.55543 57.37793,23.94248 c -59.00612,9.51186 3.30786,50.73357 -31.20559,65.87421 l 7.9093,119.45358 c -45.84326,3.31729 -16.33963,11.85058 -12.07961,18.63635 -6.93871,18.07279 -14.15797,36.34566 18.55081,26.1426 l 4.31408,86.45177 c 0,0 -83.98181,84.51052 -285.16415,9.70645 -201.18234,-74.80411 -241.15991,-8.28287 -241.15991,-8.28287 l -1.92351,187.36384 c 0,0 -35.89702,4.176 -33.59616,-21.9666 z" fill="#FFFFFF" overflow="visible" paint-order="fill markers stroke" transform="translate(223.55622,-77.32543) matrix(0.26458333,0,0,0.26458333,-243.83456,-49.986851)"/>
    <path d="m 140.90682,1122.7442 c -2.0267,-1.5348 -2.3128,-2.8399 -1.5251,-6.9576 0.9706,-5.0745 1.0431,-34.8747 0.1032,-42.4017 -1.0367,-8.3015 -2.2332,-24.4859 -2.8093,-38 -0.3282,-7.7 -0.8497,-15.8 -1.1587,-18 -0.8728,-6.2126 -2.421,-31.8432 -2.8592,-47.3334 -0.2178,-7.7 -0.4396,-14.4904 -0.4928,-15.0898 -0.053,-0.5995 -1.2337,-0.7291 -2.6231,-0.288 -4.2435,1.3468 -7.1236,-2.8032 -6.1097,-8.80388 0.8703,-5.1516 0.8703,-5.1516 -4.7368,-5.1516 -5.6051,0 -7.0011,19.72788 -3.4909,49.33328 0.6796,5.7315 1.8601,30.4588 2.9599,62 0.2812,8.0667 0.761,18.8667 1.066,24 1.3834,23.2786 -8.4857,42.2543 -17.0526,32.7879 -2.1024,-2.3231 -2.1256,-2.8896 -0.2653,-6.4871 1.1211,-2.1678 2.4204,-5.6724 2.8873,-7.7878 1.2178,-5.5166 0.7619,-68.6816 -0.5081,-70.405 -0.5842,-0.7928 -1.1974,-5.9413 -1.3626,-11.4413 -0.1653,-5.5 -0.5708,-11.5 -0.9012,-13.3333 -0.3304,-1.8334 -1.1974,-14.6803 -1.9268,-28.5488 -1.155497,-21.97278 -1.650197,-25.51748 -3.846597,-27.56378 -3.717096,-3.4629 -4.620496,-17.9072 -4.829896,-77.2208 -0.1147,-32.4768 -0.7322,-53.8015 -1.6812,-58.0528 -0.8249,-3.6958 -1.8971,-13.2958 -2.3825,-21.3333 -0.4854,-8.0376 -1.0788,-14.932 -1.3187,-15.3209 -0.2399,-0.389 -0.7884,-20.189 -1.2188,-44 -0.4304,-23.8111 -1.094,-52.293 -1.4746,-63.293 -0.3806,-11 -1.0069,-34.6999 -1.3917,-52.6665 -0.8226,-38.40013 -1.1236,-43.84943 -3.204102,-58.00013 -4.0036,-27.2308 -2.3775,-36.7543 5.449502,-31.9169 0.7592,0.4692 0.8455,-2.255 0.2215,-6.9905 -3.0455,-23.1101 0.355,-30.1872 15.906493,-33.1047 8.6346,-1.6199 16.4889,7.1134 19.1487,21.2914 1.0446,5.5678 0.035,5.4372 14.8169,1.9184 6.4746,-1.5413 13.8499,-3.0628 16.3896,-3.3813 2.5397,-0.3184 4.9397,-1.0074 5.3333,-1.531 0.3937,-0.5236 2.8158,-1.0328 5.3824,-1.1315 2.5667,-0.099 10.7969,-0.9349 18.2894,-1.8582 16.141,-1.989 22.9003,-1.0134 54.8695,7.9197 5.4041,1.5101 10.394,2.3943 11.0888,1.9649 0.6947,-0.4293 1.97317,0.059 2.84107,1.0847 0.8678,1.026 4.8779,2.9698 8.9112,4.3195 4.0334,1.3498 10.6334,3.9332 14.6667,5.7409 4.0333,1.8077 9.7333,4.2338 12.6667,5.3913 2.9333,1.1576 7.4333,3.3675 10,4.9109 2.5666,1.5435 6.4666,3.8621 8.6666,5.1526 5.91,3.4665 45.7114,22.7024 52.6667,25.4536 3.3,1.3054 7.0419,2.9118 8.3153,3.5698 1.2733,0.6581 3.4033,1.1965 4.7333,1.1965 1.3299,0 2.9881,0.5551 3.6847,1.2336 1.5991,1.5575 21.5681,6.3122 31.2667,7.4447 4.0333,0.471 9.6591,1.3643 12.5017,1.9851 3.9326,0.8589 76.2935,0.769 87.4983,-0.1086 1.7478,-0.1369 7.4446,-0.7344 31.3896,-3.2918 2.9643,-0.3166 12.8643,-2.1091 22,-3.9832 9.1358,-1.8742 21.7104,-4.2716 27.9438,-5.3276 6.2333,-1.056 16.7333,-3.1269 23.3333,-4.602 6.6,-1.4751 16.4043,-3.6179 21.7873,-4.7617 5.383,-1.1438 11.083,-2.5633 12.6667,-3.1546 1.5836,-0.5912 4.0793,-0.6266 5.546,-0.079 1.9765,0.7384 3.3749,0.1326 5.4035,-2.3413 5.6088,-6.8398 16.896,-4.499 17.613,3.6527 0.3146,3.5763 -2.1866,9.5916 -3.62,8.7057 -0.4774,-0.2951 -5.337,3.6222 -10.799,8.7052 -5.4619,5.0829 -10.3808,9.2448 -10.9308,9.2487 -0.55,0 -1,0.5737 -1,1.2662 0,0.6926 -2.0972,3.5426 -4.6603,6.33343 -6.1351,6.6799 -5.9205,7.6616 2.0771,9.5077 3.7125,0.8569 8.6625,2.9915 11,4.7433 5.2002,3.8976 15.5832,9.2126 15.5832,7.977 0,-0.4952 1.05,0.016 2.3333,1.1361 1.2833,1.1201 4.5416,3.0616 7.2405,4.3145 3.2502,1.5088 5.3887,3.6595 6.3334,6.3691 2.0685,5.934 1.9716,6.1116 -4.2406,7.7681 -21.9536,5.8542 -30.4566,15.6455 -20.777,23.925 8.8568,7.5759 11.3008,21.6281 5.1017,29.3333 -4.128,5.1311 -5.7257,9.6828 -4.2403,12.0803 1.5799,2.55 2.1175,22.9239 1.8244,69.1278 -0.1226,19.3644 0.2896,35.8644 0.9167,36.6667 5.6331,7.2069 -2.1256,14.4804 -11.3396,10.6305 -4.5399,-1.8968 -13.1031,-1.4093 -14.4836,0.8246 -0.5815,0.9407 6.2513,4.4851 7.9496,4.1238 1.95,-0.4149 14.0481,6.8186 14.0481,8.3994 0,3.8935 -5.5742,14.3399 -7.2986,13.6782 -2.5912,-0.9944 -7.368,4.768 -7.368,8.8881 0,5.1273 3.9966,4.6623 10.198,-1.1864 5.4596,-5.149 10.5596,-6.593 14.1117,-3.9956 2.264,1.6554 3.012,15.6073 4.3297,80.7626 0.1855,9.1666 0.7618,19.7294 1.2807,23.4729 1.2453,8.98368 -5.6616,15.82238 -9.5205,9.42648 -0.5864,-0.972 -2.034,-2.1216 -3.217,-2.55478 -1.8636,-0.6822 -2.172,-4.0502 -2.3106,-25.2326 -0.1666,-25.4514 -1.1502,-51.1022 -2.3279,-60.7074 -0.6861,-5.5954 -0.6861,-5.5954 -7.0967,-4.8362 -15.6526,1.8538 -22.8069,-14.667 -12.7617,-29.4695 1.8228,-2.6861 3.3143,-5.3834 3.3143,-5.9939 0,-1.4331 -15.7978,-5.4321 -18.048,-4.5686 -0.972,0.373 -2.1192,-0.6809 -2.6559,-2.4398 -0.5197,-1.7031 -1.828,-4.1035 -2.9073,-5.3343 -3.0911,-3.5247 -0.9436,-7.3546 5.3402,-9.5242 10.0118,-3.4566 20.4399,-6.238 23.3882,-6.238 2.9272,0 3.5762,-11.7338 3.4662,-62.6666 -0.019,-8.606 -1.7248,-28.7599 -3.1606,-37.3334 -1.821,-10.8732 -1.8444,-10.756 3.8728,-19.362 6.6733,-10.0452 6.6461,-11.2159 -0.4759,-20.4173 -12.5195,-16.175 -10.7256,-25.8877 6.466,-35.0078 6.9324,-3.6777 7.1009,-4.0123 3.0372,-6.032 -1.6443,-0.8172 -6.5896,-3.3567 -10.9896,-5.6433 -5.9053,-3.0688 -10.0215,-4.2238 -15.7205,-4.4112 -5.9602,-0.1959 -8.4683,-0.9467 -11,-3.293 -5.6928,-5.2759 -4.408,-9.5452 8.3421,-27.72053 2.3585,-3.3621 3.9689,-6.1129 3.5787,-6.1129 -0.6502,0 -7.3254,1.4781 -33.2003,7.3517 -5.1333,1.1653 -12.2591,2.3772 -15.8348,2.6931 -3.5759,0.316 -7.2311,1.1799 -8.1227,1.9199 -0.8917,0.74 -1.8914,1.0752 -2.2217,0.7449 -0.3304,-0.3303 -6.2752,0.5926 -13.2107,2.0509 -20.1245,4.23143 -22.3102,4.49993 -53.2768,6.54463 -22.5053,1.486 -73.3126,2.0354 -78.6666,0.8506 -1.8334,-0.4057 -7.7063,-1.0565 -13.0511,-1.4463 -5.3447,-0.3897 -15.2447,-1.9663 -22,-3.5033 -6.7552,-1.53703 -14.4012,-3.23273 -16.991,-3.76813 -8.6571,-1.7897 -33.8954,-11.9352 -48.243,-19.3932 -7.8068,-4.0581 -15.1364,-7.3782 -16.2879,-7.3782 -1.1515,0 -2.0937,-0.4642 -2.0937,-1.0316 0,-0.5674 -3.9326,-3.1174 -8.7391,-5.6667 -4.8066,-2.5493 -11.8304,-6.2851 -15.6086,-8.3017 -3.7782,-2.0167 -7.6456,-3.6667 -8.5942,-3.6667 -0.9486,0 -1.7248,-0.7 -1.7248,-1.5556 0,-0.8555 -0.3842,-1.1713 -0.8537,-0.7018 -0.4696,0.4696 -2.4196,0.011 -4.3334,-1.0196 -4.3188,-2.3253 -13.9589,-6.4786 -20.1462,-8.6797 -2.5667,-0.9131 -6.78737,-2.4489 -9.37927,-3.4128 -12.1957,-4.5357 -39.9733,-9.9638 -50.9883,-9.9638 -20.4846,0 -65.6459,9.1747 -67.0578,13.6231 -1.1799,3.7176 -5.9535,5.1781 -9.5266,2.9149 -2.5897,-1.6405 -3.8266,-1.5427 -10.0798,0.797 -11.700293,4.3776 -11.662293,4.3121 -9.660293,16.665 1.0647,6.5694 2.044496,30.3845 2.550796,62.00003 0.4521,28.2334 1.075,57.9333 1.3841,65.9999 0.3092,8.0667 0.9348,32.6668 1.3902,54.6668 0.4555,22 1.382097,44.8 2.059197,50.6667 0.677,5.8666 1.6192,16.0666 2.0938,22.6666 0.4745,6.6 1.234,12.6 1.6876,13.3334 0.4536,0.7333 0.8889,22.9333 0.9673,49.3332 0.1594,53.7065 0.9091,64.6667 4.4233,64.6667 1.248,0 2.8766,0.6074 3.6191,1.35 0.7555,0.7554 3.2989,0.9602 5.7753,0.4649 4.96,-0.992 4.8628,1.3616 1.5344,-37.1483 -1.5916,-18.416 -3.8167,-75.4103 -4.8149,-123.3332 -0.4201,-20.1667 -1.0683,-42.3667 -1.4406,-49.3333 -3.8663,-72.359 -3.7221,-133.4876 0.3299,-139.80143 4.5878,-7.1489 5.6458,3.7434 7.8167,80.46793 0.3943,13.9334 1.2921,39.4335 1.9953,56.6668 0.7032,17.2333 1.5818,43.9333 1.9524,59.3333 1.7419,72.3765 2.3064,86.8552 4.2108,107.9999 1.1228,12.4667 2.2479,23.8667 2.5003,25.3334 0.2524,1.4666 0.5035,5.9366 0.558,9.9333 0.077,5.6519 0.4546,6.9111 1.6991,5.6667 0.88,-0.88 2.8508,-1.6 4.3795,-1.6 4.0342,0 16.566,-4.6253 24.8514,-9.1722 23.0227,-12.6347 67.0752,-17.2183 110.82427,-11.5314 9.3438,1.2146 17.5523,1.86 18.2412,1.4342 0.689,-0.4257 1.5807,-0.2434 1.9816,0.4054 0.4009,0.6487 4.3647,1.5908 8.8085,2.0935 8.2642,0.935 35.1948,9.1255 38.1969,11.617 0.9165,0.7607 2.281,1.0032 3.0322,0.539 0.7511,-0.4643 5.7274,1.236 11.0584,3.7785 5.3309,2.5424 12.3926,5.3292 15.6926,6.1929 3.3,0.8637 6.6,2.0095 7.3334,2.5459 0.7333,0.5365 4.6333,2.3569 8.6666,4.0452 4.0334,1.6884 10.5471,4.5374 14.4749,6.3313 3.9278,1.7939 8.2192,3.4692 9.5363,3.7228 1.3171,0.2536 4.1034,1.3347 6.1918,2.4023 2.0884,1.0676 5.8971,2.38258 8.4637,2.92218 2.5667,0.5398 6.1667,1.7288 8,2.6424 4.1925,2.0894 11.6492,4.745 16,5.6982 1.8334,0.4016 3.6334,1.1008 4,1.5536 1.8198,2.2476 21.8067,6.2996 36.9926,7.4996 5.3125,0.4197 11.0125,1.0294 12.6666,1.3549 7.8701,1.5484 45.0288,0.6931 55.6742,-1.2816 18.9316,-3.5116 36,-8.4285 36,-10.3705 0,-0.5995 1.4122,-1.0899 3.1385,-1.0899 1.7261,0 9.1969,-3 16.6017,-6.66668 7.4048,-3.6666 14.0926,-6.6666 14.8615,-6.6666 0.7691,0 1.3983,-0.7 1.3983,-1.5556 0,-0.8555 0.3989,-1.1566 0.8866,-0.6688 0.9052,0.905 12.4728,-5.2487 13.9008,-7.3951 1.8298,-2.75 10.4871,3.0748 10.5255,7.0816 0.089,9.30638 -55.904,37.21718 -81.3129,40.53168 -1.8334,0.2392 -6.3267,1.1231 -9.9852,1.9643 -15.7178,3.6136 -78.0729,1.434 -96.6815,-3.3796 -15.5528,-4.0231 -39.4266,-12.0648 -45.7149,-15.3987 -1.3098,-0.6944 -7.9098,-3.2985 -14.6666,-5.7869 -6.7569,-2.4884 -17.3852,-6.7395 -23.6185,-9.44688 -6.2334,-2.7076 -17.3334,-6.9756 -24.6667,-9.4847 -7.3333,-2.5091 -14.5333,-5.0971 -16,-5.7511 -5.4819,-2.4445 -24.0979,-9.446 -26.6667,-10.0294 -1.4666,-0.3331 -5.0666,-1.1907 -8,-1.9059 -45.1606,-11.0108 -109.67307,-10.0821 -134.24407,1.9324 -3.8991,1.9067 -9.7892,4.3576 -13.0892,5.4468 -3.3,1.0891 -7.2,2.5191 -8.6667,3.1776 -1.4666,0.6587 -3.8107,1.3784 -5.2089,1.5996 -2.5052,0.3961 -3.7789,63.35278 -1.5051,74.39488 0.3783,1.8372 1.7276,18.0404 2.9984,36.0071 4.9144,69.4799 2.3593,87.9757 -10.7789,78.026 z m -36.0482,-610.07311 c 6.1737,-2.3472 3.0061,-19.9528 -3.5898,-19.9528 -4.725897,0 -7.325393,7.3969 -6.727993,19.1445 0.2079,4.0868 1.440596,4.1834 10.317793,0.8083 z m 367.90907,392.62883 c -12.8844,-6.7183 -13.0499,-30.871 -0.2768,-40.3867 3.556,-2.6491 -0.2364,-8.5516 -22.2189,-34.582 -11.0039,-13.0304 -12.7358,-21.6129 -4.3612,-21.6129 3.877,0 5.2273,0.8837 8.6599,5.6667 2.2366,3.1166 4.8385,6.5442 5.782,7.6167 0.9434,1.0725 3.4403,4.3725 5.5486,7.3333 2.1083,2.9608 4.9505,6.5833 6.316,8.05 17.5224,18.8201 20.8621,26.7867 14.0166,33.435 -11.8956,11.5528 -12.8632,29.3747 -1.1494,21.1701 3.6551,-2.5602 9.7068,-12.6981 10.0563,-16.8466 0.6897,-8.1856 10.5291,-13.6855 25.5186,-14.264 10.9589,-0.423 12.8514,-2.0609 12.1981,-10.5563 -0.8212,-10.6765 -7.1141,-14.0149 -15.469,-8.2062 -4.2197,2.9338 -8.929,3.4375 -13.7406,1.4697 -2.0644,-0.8443 -4.2644,-1.5351 -4.8889,-1.5351 -0.6245,0 -1.3354,-0.45 -1.5799,-1 -0.2444,-0.55 -3.9631,-2.8 -8.2636,-5 -8.9609,-4.584 -13.6482,-9.6998 -19.7022,-21.5033 -2.351,-4.5837 -6.5101,-10.6373 -9.2426,-13.4525 -7.5482,-7.7769 -7.517,-11.6316 0.097,-12.0051 6.031,-0.2958 18.6438,14.6304 21.9854,26.0179 2.4376,8.3068 20.6053,20.2124 25.1227,16.4633 11.9357,-9.9058 32.6645,-2.8302 37.329,12.7421 5.6914,18.9994 -3.0424,30.6293 -21.6995,28.8953 -9.7178,-0.9032 -16.071,3.3197 -16.071,10.6819 0,3.3983 -7.4441,14.1603 -9.7946,14.1603 -0.8602,0 -2.2548,1.1063 -3.0992,2.4584 -3.7053,5.9331 -14.274,8.3354 -21.0732,4.79 z m -233.64847,-30.8846 c -4.9643,-2.4721 -8.3845,-10.6038 -8.3845,-19.9346 0,-6.5939 0.3241,-6.404 -6.3626,-3.7285 -15.4012,6.1623 -30.6534,-13.4214 -22.083,-28.3544 5.9098,-10.2973 45.75707,-22.7946 54.82017,-17.1933 1.6172,0.9995 7.1608,-4.1594 24.6604,-22.9493 7.1283,-7.6538 11.0137,-10.881 12.441,-10.3333 1.1415,0.438 3.0053,0.7964 4.1419,0.7964 4.0837,0 1.2525,9.6964 -4.5149,15.4624 -2.863,2.8624 -6.9824,7.5845 -9.1542,10.4936 -2.1719,2.9092 -4.8488,6.3211 -5.9488,7.582 -1.1,1.2609 -3.2,3.8637 -4.6667,5.784 -4.9553,6.4878 -8.9478,7.6905 -15.5636,4.6882 -16.45847,-7.4689 -48.45107,6.6122 -44.17427,19.4427 1.8053,5.4159 13.7379,0.1595 13.7379,-6.0516 0,-1.7316 6.6918,-1.8327 11.0721,-0.1673 3.9444,1.4997 4.9764,5.0036 6.0854,20.6605 0.9495,13.4055 1.9156,14.5017 8.15417,9.2524 4.0668,-3.422 4.2591,-3.9791 3.3558,-9.7218 -1.9785,-12.579 -0.4349,-18.7584 4.686,-18.7584 0.8492,0 5.2421,-3.4729 9.7619,-7.7174 4.5199,-4.2446 11.2179,-10.0573 14.8846,-12.9172 3.6667,-2.8598 7.7729,-6.3223 9.1251,-7.6944 2.5309,-2.5682 8.9066,-2.2791 12.443,0.5644 2.5648,2.0622 -1.1735,8.9422 -7.0472,12.9694 -5.927,4.0637 -9.439,7.0413 -20.971,17.7796 -4.5191,4.2082 -8.7097,7.6582 -9.3125,7.6667 -0.6028,0.01 -0.7062,3.1655 -0.2299,7.0155 2.0885,16.8816 -16.8421,32.3922 -30.95627,25.3637 z m 109.50187,-58.5351 c -1.6672,-0.8649 -3.3737,-1.2302 -3.7922,-0.8117 -0.4185,0.4185 -0.7609,-0.1542 -0.7609,-1.2728 0,-1.7037 -1.7204,-1.934 -10.604,-1.4192 -15.17,0.8791 -17.6232,-1.7728 -17.2811,-18.6809 0.2264,-11.1875 1.2018,-16.0257 7.8523,-38.9484 4.6395,-15.9915 4.172,-17.8985 -6.3005,-25.7005 -23.2206,-17.2993 -30.4953,-29.1995 -31.1296,-50.923 -0.4604,-15.7686 16.3852,-30.901 41.5963,-37.366 3.2267,-0.8274 6.7666,-1.8578 7.8666,-2.2898 1.1,-0.4321 3.8,-0.6724 6,-0.5341 2.2,0.1383 8.2,-1.0543 13.3333,-2.6502 16.1891,-5.0331 46.5956,-1.1526 65.0543,8.3021 1.3132,0.6726 2.9119,0.8989 3.5528,0.5028 0.6408,-0.3961 1.3664,-0.2561 1.6124,0.311 0.246,0.5672 3.6181,3.3372 7.4936,6.1558 15.7956,11.488 29.4703,29.1873 34.1208,44.163 4.8468,15.6078 5.6198,18.6971 5.3378,21.3333 -1.1542,10.7885 -2.6761,16.6294 -5.3787,20.6429 -1.7194,2.5536 -3.1263,5.2699 -3.1263,6.0364 0,1.3559 -7.9186,9.1462 -9.415,9.2626 -1.9882,0.1545 -23.6888,15.1056 -26.8238,18.4809 -4.3159,4.6465 -5.218,9.5499 -4.8983,26.6237 0.1343,7.1755 -0.3048,13.5761 -0.976,14.2234 -1.1584,1.1175 -14.9595,3.2251 -19.2202,2.9352 -1.1,-0.075 -9.5,-0.6016 -18.6667,-1.1705 -18.7064,-1.1612 -17.0717,0.4103 -17.373,-16.7012 -0.1004,-5.7023 -0.4195,-6.3334 -3.2026,-6.3334 -4.476,0 -6.0733,7.8426 -2.1377,10.496 3.4921,2.3544 3.6139,8.1848 0.1897,9.0803 -1.4541,0.3803 -2.846,2.2716 -3.2842,4.4627 -0.8326,4.1629 -3.9492,4.7416 -9.6391,1.7896 z m 40.9901,-20.4952 c -0.7022,-11.2738 -8.8737,-12.9812 -9.2888,-1.9408 -0.1025,2.7277 -0.5539,6.1173 -1.0031,7.5325 -0.7332,2.3101 -0.2258,2.5305 4.9661,2.1573 5.7826,-0.4157 5.7826,-0.4157 5.3258,-7.749 z m 18.4568,-1.303 c 0,-8.5574 -0.9607,-12.418 -2.8064,-11.2773 -1.3505,0.8346 -1.6542,18.3419 -0.3409,19.6551 1.9941,1.9942 3.1473,-1.0755 3.1473,-8.3778 z m -63.4321,3.3499 c 1.3126,-4.8855 0.8232,-10.0469 -0.9526,-10.0469 -0.945,0 -3.912,-1.1186 -6.5935,-2.4856 -5.834,-2.9744 -6.3551,-2.2695 -6.3551,8.5947 0,7.898 11.9293,11.2771 13.9012,3.9378 z m 22.3473,-26.5358 c 0.7441,-16.5025 0.8709,-16.8445 6.2454,-16.8445 6.7339,0 9.6998,4.3886 9.0066,13.3267 -0.6904,8.9026 -0.5689,9.1745 3.7323,8.3522 2.6024,-0.4975 3.3323,-1.6877 4.0759,-6.6462 1.3004,-8.6716 1.9095,-9.6993 5.748,-9.6993 5.019,0 9.6099,4.8883 9.6099,10.2324 0,5.949 2.2745,5.6016 5.1334,-0.7842 2.2298,-4.9804 8.4907,-10.6906 21.0521,-19.2005 8.4049,-5.694 16.5483,-12.986 17.9913,-16.1103 0.7124,-1.5422 2.2106,-4.4831 3.3295,-6.5352 9.3952,-17.2313 -11.0658,-59.6939 -33.5063,-69.5353 -2.9333,-1.2864 -6.5333,-2.8533 -8,-3.4821 -4.6492,-1.9931 -19.7005,-6.5848 -21.5842,-6.5848 -1.4158,0 -1.3246,0.7415 0.4184,3.4017 3.3088,5.0499 0.8898,6.5448 -6.2976,3.8915 -17.6885,-6.5297 -21.2015,-6.8399 -44.5366,-3.9332 -14.8127,1.8452 -35.7905,15.2806 -37.4199,23.966 -2.8063,14.9587 9.6747,37.6739 24.9341,45.3798 11.0077,5.5588 16.4018,13.737 15.2207,23.0763 -1.171,9.2587 -2.2447,14.0538 -3.497,15.6174 -2.4855,3.1032 -3.0444,12.6005 -0.7416,12.6005 1.1937,0 2.1704,0.53 2.1704,1.1778 0,1.1152 5.4532,3.1467 6.2657,2.3343 0.2102,-0.2102 0.988,-3.5769 1.7285,-7.4816 2.8465,-15.0096 13.2415,-12.2672 13.3095,3.5113 0.04,9.2537 5.1941,9.2255 5.6115,-0.031 z m 9.0848,-31.6887 c -11.7052,-3.4032 -17.9798,-22.7421 -8.3347,-25.6884 9.6538,-2.9489 28.77,6.7926 31.5733,16.0895 2.0068,6.6557 -12.6039,12.6908 -23.2386,9.5989 z m 28.9899,-29.0869 c -14.4717,-9.1777 -15.4192,-24.2156 -1.7667,-28.0381 19.4902,-5.4569 37.1251,17.8847 21.1102,27.9415 -7.9703,5.005 -11.5753,5.023 -19.3435,0.097 z m -60.9899,-8.5105 c -12.692,-5.9336 -19.9777,-22.8188 -12.9001,-29.8965 9.0391,-9.039 42.2221,2.9308 42.5314,15.3421 0.248,9.9512 -19.1244,19.4665 -29.6313,14.5544 z m 146,14.8375 c -7.7817,-4.3809 -4.0976,-10.0788 12.7441,-19.7101 1.9419,-1.1105 8.009,-4.8628 13.4825,-8.3383 11.8129,-7.501 28.5253,-9.9476 32.9166,-4.8189 1.1639,1.3592 2.6999,2.4713 3.4135,2.4713 0.7136,0 2.9167,1.5514 4.8957,3.4474 7.4523,7.1398 13.2235,-4.7815 8.4,-17.3512 -0.8606,-2.2428 -10.3381,-9.0094 -12.009,-8.574 -1.7692,0.461 -10.9772,-3.7989 -13.358,-6.1797 -3.1408,-3.1408 -1.4032,-7.2182 6.2202,-14.5969 9.3048,-9.0061 12.4124,-18.8488 6.1884,-19.6007 -8.3648,-1.0104 -16.3121,3.8059 -17.444,10.5716 -4.0093,23.9641 -4.3916,25.027 -9.732,27.0574 -1.6821,0.6396 -9.887,5.9436 -18.2331,11.7867 -16.2861,11.402 -20.7836,12.6806 -24.566,6.984 -3.0068,-4.5286 10.25,-16.0619 29.8449,-25.9648 6.1205,-3.0932 7.2294,-5.0993 8.126,-14.7004 1.7037,-18.2443 10.261,-27.3106 25.9474,-27.4905 20.9543,-0.2402 29.9883,23.5458 14.0943,37.1093 -4.1292,3.5237 -3.5643,4.2978 6.0125,8.2381 9.8051,4.0342 17.7136,26.0112 12.8287,35.6498 -4.7737,9.4192 -5.9388,10.3069 -13.126,10.0012 -6.3583,-0.2704 -7.9997,-0.9267 -19.1873,-7.6715 -2.8642,-1.7268 -5.8642,-2.9074 -6.6667,-2.6236 -0.8027,0.2838 -3.8364,0.7604 -6.7417,1.0592 -2.9054,0.2988 -5.5054,1.2121 -5.7779,2.0294 -0.2724,0.8173 -1.3096,1.486 -2.3051,1.486 -2.0968,0 -22.9578,14.0354 -25.9504,17.4598 -2.7549,3.1522 -6.8155,4.0721 -10.0176,2.2694 z m -236.8114,-65.7293 c -3.8661,-3.2999 -7.52947,-5.9999 -8.14097,-5.9999 -0.6115,0 -4.16,-2.0967 -7.8855,-4.6594 -3.7254,-2.5627 -7.311,-4.3273 -7.9678,-3.9213 -0.6569,0.406 -1.1943,0.1431 -1.1943,-0.5841 0,-2.7438 -5.0165,-2.7463 -10.6899,-0.01 -12.6348,6.1044 -27.5749,1.7751 -38.4421,-11.1399 -14.4177,-17.1345 -3.4248,-37.8451 16.4976,-31.0812 9.4604,3.2119 9.3011,3.377 9.3011,-9.64033 0,-18.7372 9.3197,-25.3445 26.6191,-18.8719 9.9311,3.7157 19.89707,17.956 16.72027,23.89183 -0.7367,1.3765 -1.33937,4.3068 -1.33937,6.5118 0,2.2049 -0.5,4.3179 -1.111,4.6956 -3.1207,1.9287 0.34,9.0225 6.93017,14.2053 3.7661,2.9619 8.0296,6.3656 9.4744,7.5637 3.8454,3.1889 18.025,11.035 19.9425,11.035 4.0349,0 5.2499,6.2392 2.0814,10.6889 -3.558,4.9967 -8.8239,4.8083 -14.6026,-0.5224 -1.8599,-1.7157 -6.0816,-4.5456 -9.3816,-6.2886 -3.3,-1.7431 -8.1138,-4.9787 -10.6974,-7.1902 -2.58357,-2.2116 -6.67147,-5.521 -9.08427,-7.3543 -9.7121,-7.3798 -12.5892,-17.8368 -7.9722,-28.9761 3.8255,-9.22963 1.5599,-15.36513 -6.4949,-17.58923 -7.804,-2.1548 -9.1122,0 -8.6583,14.29163 0.5278,16.6172 -9.5099,24.0035 -21.35,15.7104 -8.1056,-5.6774 -13.9107,3.893 -7.8954,13.0166 7.0465,10.6877 16.3336,12.3038 24.2696,4.2234 7.3745,-7.5087 9.8085,-7.5008 17.9853,0.059 3.6103,3.3378 9.5643,7.5852 13.2309,9.4387 3.6667,1.8534 7.61397,4.2225 8.77167,5.2646 1.1577,1.0421 2.8077,1.8947 3.6667,1.8947 0.8589,0 1.5616,0.5661 1.5616,1.2579 0,0.6919 1.7187,2.2732 3.8193,3.5141 4.3006,2.5404 8.7616,9.2093 7.5124,11.2306 -1.9845,3.211 -8.5732,1.2231 -15.4764,-4.6694 z" fill="#00B894" transform="translate(223.55622,-77.32543) matrix(0.26458333,0,0,0.26458333,-243.83456,-49.986851)"/>
</svg>