<?xml version="1.0" ?><svg height="128.54546mm" viewBox="0 0 95.668419 128.54546" width="95.668419mm" xmlns="http://www.w3.org/2000/svg">
    <path color="#000" d="m 17358.416,20859.312 c -52.366,4.945 -34.256,-63.881 -24.539,-110.301 -94.564,92.192 -144.309,5.428 -95.881,-41.097 -67.852,-77.438 6.264,-117.558 106.102,-46.83 -52.671,-44.601 -86.906,-152.952 21.27,-100.463 59.984,-61.64 98.776,-9.559 27.09,116.935 77.585,-87.693 137.11,-123.059 139.644,6.696 28.947,39.705 47.231,130.956 -94.291,52.009 59.976,63.228 65.536,124.233 -24.218,90.379 l -17.156,22.126 c -12.076,8.806 -22.599,14.034 -38.021,10.546 z" fill="#FFFFFF" overflow="visible" paint-order="fill markers stroke" transform="translate(-132.67903,-78.237703) matrix(0.26458333,0,0,0.26458333,-4418.594,-5352.8692)"/>
    <path d="m 17408.436,20527.02 c -23.454,-0.284 -35.754,39.219 -57.631,19.562 -20.848,-14.738 -39.202,-15.118 -54.369,1.453 -29.9,37.221 -5.175,60.895 18.474,89.871 53.667,43.568 -37.516,-32.592 -61.15,-27.584 -24.607,2.889 -40.136,13.566 -48.572,37.727 -13.009,31.516 13.337,37.753 24.667,60.607 -32.048,28.32 -24.865,95.758 36.166,89.782 24.632,-1.605 39.242,-20.294 59.374,-37.235 -12.022,29.2 -11.516,57.009 -10.571,73.274 1.706,29.362 38.689,45.027 65.946,32.868 -15.075,50.21 -26.115,83.061 -61.828,114.979 -29.847,26.675 -12.921,39.777 2.421,23.18 6.649,-4.997 15.411,-11.068 20.592,-17.141 39.035,-34.905 64.842,-123.511 61.074,-135.961 12.822,-46.187 30.517,7.631 71.301,-10.511 50.696,-36.632 -12.443,-84.411 -36.519,-105.629 39.8,33.152 82.334,48.732 103.285,35.172 14.857,-8.673 37.671,-29.831 6.81,-73.641 -13.616,-13.931 -14.369,-20.273 -10.506,-26.879 22.655,-49.199 -33.669,-104.449 -73.013,-75.371 -23.256,14.101 -68.208,86.992 -57.93,60.922 17.856,-38.026 61.667,-83.319 24.758,-117.676 -8.771,-8.49 -16.212,-11.69 -22.779,-11.769 z m 0.271,18.326 c 3.723,0.08 7.635,1.551 11.795,5.033 33.447,30.829 -40.352,96.218 -39.035,133.709 31.183,13.903 69.494,-58.894 83.465,-67.199 27.836,-25.424 47.855,-2.471 55.947,13.4 13.566,28.207 -12.181,41.246 -0.727,59.557 9.56,13.384 34.871,39.848 21.45,57.963 -21.846,34.948 -94.012,-21.371 -125.391,-46.692 -8.067,-6.888 -22.041,-13.505 -27.158,-9.971 -4.596,20.167 27.656,50.76 42.435,60.368 52.499,34.432 58.641,79.665 23.539,74.371 -76.54,-37.366 -59.65,24.597 -92.816,27.24 -27.77,-2.706 -31.308,-29.635 -31.471,-44.865 2.731,-42.145 16.386,-59.583 37.746,-91.602 4.492,-6.635 12.663,-17.016 7.323,-21.728 -5.419,-4.78 -15.856,4.177 -20.715,8.939 -27.71,21.825 -45.623,57.796 -72.248,72.83 -32.201,12.38 -51.722,4.511 -55.17,-25.199 -2.477,-25.549 46.117,-36.137 2.588,-65.24 -32.931,-35.984 23.496,-75.936 59.951,-43.133 21.478,13.855 52.655,41.882 77.674,44.553 34.564,7.746 -87.295,-83.398 -60.893,-122.711 23.168,-22.727 30.599,-8.025 48.025,4.349 18.943,15.871 33.582,-24.39 53.686,-23.972 z" fill="#00B894" transform="translate(-132.67903,-78.237703) matrix(0.26458333,0,0,0.26458333,-4418.594,-5352.8692)"/>
</svg>