<?xml version="1.0" ?><!-- Created with Inkscape (http://www.inkscape.org/) --><svg height="42.408337mm" id="svg20150" inkscape:version="1.2.1 (0b8a7e5fb6, 2022-09-14, custom)" sodipodi:docname="plus_line.svg" version="1.1" viewBox="0 0 41.628109 42.408337" width="41.628109mm" xmlns="http://www.w3.org/2000/svg" xmlns:inkscape="http://www.inkscape.org/namespaces/inkscape" xmlns:sodipodi="http://sodipodi.sourceforge.net/DTD/sodipodi-0.dtd" xmlns:svg="http://www.w3.org/2000/svg">
  <sodipodi:namedview bordercolor="#666666" borderopacity="1.0" id="namedview20152" inkscape:current-layer="layer1" inkscape:cx="-618.33711" inkscape:cy="292.52102" inkscape:deskcolor="#d1d1d1" inkscape:document-units="mm" inkscape:pagecheckerboard="0" inkscape:pageopacity="0.0" inkscape:showpageshadow="2" inkscape:window-height="1016" inkscape:window-maximized="1" inkscape:window-width="1866" inkscape:window-x="54" inkscape:window-y="27" inkscape:zoom="0.2102413" pagecolor="#ffffff" showgrid="false"/>
  <defs id="defs20147"/>
  <g id="layer1" inkscape:groupmode="layer" inkscape:label="Capa 1" transform="translate(-238.4317,-71.922954)">
    <path d="m 239.528,91.18682 c 0.5935,-0.45238 4.4837,-0.78592 8.6449,-0.74116 l 7.5654,0.0815 0.096,-8.46653 c 0.1032,-9.10134 0.9081,-11.00386 4.1558,-9.82291 2.0105,0.73122 2.2559,1.59635 2.9514,10.40829 0.3215,4.07166 0.6566,7.48631 0.7444,7.58831 0.089,0.10137 3.033,-0.0218 6.5444,-0.27454 6.9752,-0.50288 9.948,0.55582 9.8259,3.49995 -0.1043,2.51262 -2.2743,3.3684 -9.8865,3.90005 l -7.3251,0.51154 0.2641,6.68071 c 0.2974,7.52683 -0.5469,9.89654 -3.4804,9.77484 -2.8708,-0.1191 -3.4184,-1.53192 -3.7096,-9.56911 l -0.2692,-7.42323 -7.1486,-0.29657 c -3.9318,-0.16312 -7.8297,-0.69826 -8.6617,-1.18887 -1.7352,-1.02326 -1.8974,-3.45358 -0.3116,-4.66227 z" fill="#00B894" id="path1074" sodipodi:nodetypes="sscssssssscssscsss" style="fill:#000000;stroke-width:0.800611"/>
  </g>
</svg>