<?xml version="1.0" ?><!-- Created with Inkscape (http://www.inkscape.org/) --><svg height="62.027531mm" id="svg18879" inkscape:version="1.2.1 (0b8a7e5fb6, 2022-09-14, custom)" sodipodi:docname="plus.svg" version="1.1" viewBox="0 0 58.473305 62.027531" width="58.473305mm" xmlns="http://www.w3.org/2000/svg" xmlns:inkscape="http://www.inkscape.org/namespaces/inkscape" xmlns:sodipodi="http://sodipodi.sourceforge.net/DTD/sodipodi-0.dtd" xmlns:svg="http://www.w3.org/2000/svg">
  <sodipodi:namedview bordercolor="#666666" borderopacity="1.0" id="namedview18881" inkscape:current-layer="layer1" inkscape:cx="-318.68144" inkscape:cy="-30.916856" inkscape:deskcolor="#d1d1d1" inkscape:document-units="mm" inkscape:pagecheckerboard="0" inkscape:pageopacity="0.0" inkscape:showpageshadow="2" inkscape:window-height="1016" inkscape:window-maximized="1" inkscape:window-width="1866" inkscape:window-x="54" inkscape:window-y="27" inkscape:zoom="0.2102413" pagecolor="#ffffff" showgrid="false"/>
  <defs id="defs18876"/>
  <g id="layer1" inkscape:groupmode="layer" inkscape:label="Capa 1" transform="translate(-158.27606,-157.75742)">
    <g id="g15764" transform="translate(3536.7166,809.35529)">
      <path d="m -3376.6978,-626.58704 21.5058,-1.36742 0.8182,-21.4232 10.0127,0.33893 2.4155,22.88413 18.9864,1.07527 -0.2078,7.37481 -21.5318,1.39081 0.1169,24.12301 -9.5582,-0.7597 -0.2727,-24.16976 -21.6617,-0.6545 z" fill="#00B894" id="path15760" style="fill:#ffffff;stroke-width:1.5;paint-order:markers stroke fill;stop-color:#000000"/>
      <path d="m -3378.4213,-624.79966 c 0.074,-2.90813 2.3582,-3.13571 3.618,-3.29972 1.8299,-0.23824 10.2853,-0.855 14.8911,-1.06472 2.6752,-0.0535 2.3843,0.1447 2.4631,-2.14873 0.062,-1.857 0.076,-3.73612 0.028,-7.02551 -0.1788,-12.28725 1.0313,-12.61644 7.8204,-13.10237 3.888,-0.27821 5.5876,-0.22268 6.3389,0.45706 1.2334,1.11634 1.7335,4.44898 1.735,8.94955 0,2.17477 0.3732,7.53075 0.1771,10.44974 -0.1767,2.63021 -0.7366,2.98493 4.6971,2.94199 10.0016,-0.079 15.3115,0.93035 16.1319,3.97716 0.7465,2.77223 0.7356,7.96554 -0.019,8.68951 -0.8202,0.78572 -10.019,1.58015 -17.251,1.58015 -4.6429,-0.0671 -4.2149,0.017 -4.0683,3.62453 0.1495,1.99346 0.2703,6.95309 0.066,11.37047 -0.4566,9.87969 -0.9441,9.82769 -6.551,9.82769 -4.4586,-0.15013 -7.5898,0.78893 -7.708,-2.99412 l 0.1577,-19.54651 c 0.024,-2.93077 -0.6125,-2.86352 -3.1293,-2.94347 -5.9261,-0.26045 -12.304,0.14381 -17.8116,0.31756 -1.656,0.0523 -1.648,-7.62854 -1.5865,-10.06026 z m 5.6326,5.84669 c 1.4921,0.0393 2.6715,0.24373 6.7203,-0.0407 9.4892,-0.66532 13.0625,-0.1243 13.6358,0.57417 0.2815,0.34286 0.626,4.61716 0.642,11.85277 0.014,6.37396 0.3587,11.09533 0.3562,11.1872 -0.013,0.48241 0.048,1.12664 2.7613,1.20389 2.5689,0.0732 2.4957,-0.31956 2.486,-0.90231 l -0.097,-5.8086 c -0.2128,-12.73232 0.628,-16.63864 0.9524,-17.16347 0.2186,-0.35357 3.0473,-0.65917 8.6322,-0.93217 4.5689,-0.22351 9.1577,-0.52314 10.1973,-0.66603 2.3394,-0.24013 1.9014,-0.0821 1.7573,-2.31635 0.055,-1.0218 0.022,-2.05168 -1.878,-2.05652 l -7.4809,-0.24759 c -5.0734,-0.16791 -9.5367,-0.39091 -9.9161,-0.56602 -1.3976,-0.64462 -2.076,-8.68615 -2.076,-17.34896 0,-5.43198 0,-5.44405 -0.9884,-5.17977 -0.5437,0.1457 -2.0495,0.26763 -3.3463,0.27087 -2.2374,0 -2.1172,0.26699 -2.0666,1.46344 0.086,2.02621 0.6495,17.24683 0.197,18.4373 -0.7885,2.0738 -1.9301,1.87141 -11.7408,2.83121 -5.1086,0.49981 -8.3096,0.2663 -8.5835,0.23116 -1.3403,-0.17192 -1.6078,0.84447 -1.4148,2.45489 0.1729,1.44242 0.1554,2.69272 1.2506,2.72159 z" fill="#00B894" id="path1072" sodipodi:nodetypes="ssccssscssssccsccscssssssssssscccssscsssssssss" style="fill:#000000;stroke-width:0.43934"/>
    </g>
  </g>
</svg>