<?xml version="1.0" ?><svg height="335.35953mm" viewBox="0 0 165.50572 335.35953" width="165.50572mm" xmlns="http://www.w3.org/2000/svg">
    <path d="m 40409.518,16137.818 c -12.232,0.101 -23.338,1.566 -28.661,3.241 -10.645,3.351 -67.596,34.36 -80.55,46.82 -12.953,12.46 -7.237,36.15 4.929,47.619 0,0 8.459,-2.931 11.344,-3.936 l 10.604,16.211 c 0,0 36.815,-6.794 70.273,-15.808 33.458,-9.015 83.906,-23.317 83.906,-23.317 l -9.47,-15.773 c 3.368,-1.954 17.177,-10.369 19.722,-19.156 2.884,-9.958 -27.008,-23.408 -46.674,-30.959 -9.833,-3.776 -23.191,-5.042 -35.423,-4.942 z m 9.24,23.028 c -3.798,0.657 -7.595,1.618 -11.297,2.668 2.705,-0.964 5.73,-1.844 9.477,-2.539 0.653,-0.122 1.214,-0.09 1.82,-0.129 z m -20.91,8.304 c -0.795,7.064 5.508,21.182 11.98,27.006 7.653,6.888 18.671,6.12 24.344,-8.486 0.08,-0.207 0.13,-0.406 0.205,-0.611 0.08,4.159 -0.133,7.238 -0.133,7.238 l 18.541,-0.313 -81.799,18.969 c 5.046,-1.691 14.168,-4.867 16.112,-5.441 10.855,-3.21 11.538,-14.067 8.392,-24.356 -1.645,-5.38 -1.255,-10.129 2.358,-14.006 z m 90.31,45.403 -133.756,34.476 c 0,0 80.045,10.558 99.563,8.627 19.519,-1.931 73.676,-16.227 87.658,-27.968 13.981,-11.742 -53.465,-15.135 -53.465,-15.135 z m -161.154,41.625 c -2.732,14.717 -3.668,28.361 -6.315,42.695 -2.648,14.333 -7.144,43.034 11.729,61.787 18.873,18.753 48.975,31.741 78.736,30.781 29.761,-0.961 56.191,-7.915 70.752,-41.962 14.56,-34.047 12.768,-71.592 7.516,-80.661 -5.252,-9.069 -70.71,-9.26 -87.149,-10.49 -16.44,-1.23 -75.269,-2.15 -75.269,-2.15 z m 292.434,5.968 c -2.714,-0.156 -5.187,0.982 -7.288,4.256 -5.602,8.73 -63.756,102.102 -68.736,112.84 -4.98,10.738 -10.012,15.827 -0.207,20.776 0,0 32.113,20.446 41.605,23.808 9.493,3.361 15.615,-3.549 27.961,-20.262 12.346,-16.713 59.967,-105.505 57.84,-110.267 -2.127,-4.762 -27.806,-17.698 -36.209,-23.44 -5.253,-3.588 -10.444,-7.45 -14.966,-7.711 z m -161.526,150.795 c -0.641,0.02 -1.287,0.124 -1.937,0.323 -10.401,3.184 -44.5,40.336 -44.5,40.336 0,0 -33.027,-38.601 -39.354,-39.373 -6.323,-0.772 -33.99,23.066 -33.99,23.066 l 2.359,17.178 -2.926,1.248 -1.671,-17.865 -64.118,6.732 c -7.776,2.639 -9.476,11.433 -4.632,20.305 3.787,6.935 43.837,-1.352 61.548,-5.387 l -41.814,17.838 c 0,0 -6.648,101.901 -8.471,127.185 -1.823,25.283 15.012,105.09 22.625,115.994 6.156,8.818 11.632,13.08 13.924,14.756 l -7.49,-0.181 7.611,49.408 60.479,-1.158 c 0,0 27.555,11.871 45.355,14.283 17.8,2.413 36.779,-10.135 36.779,-10.135 l 58.547,-2.797 11.26,-44.295 -0.525,-0.01 c 0.02,-0.209 11.999,-132.691 11.892,-148.698 -0.107,-16.019 -16.943,-135.775 -16.943,-135.775 l -18.313,-2.18 c 0.629,0 1.358,0.01 1.909,-0.01 10.028,-0.42 31.188,-1.338 31.57,-9.674 0.359,-7.816 -12.465,-13.245 -19.426,-13.358 v 0 c -0.464,0 -0.902,0 -1.308,0.05 -6.501,0.65 -36.202,2.715 -36.202,2.715 l -8.023,16.531 -2.104,-0.25 5.789,-18.236 c 0,0 -8.294,-18.831 -17.9,-18.561 z m -212.615,348.43 c -12.591,-0.15 -18.682,0.936 -18.682,0.936 l -6.113,34.838 33.992,12.642 -26.592,79.613 58.116,-1.927 c 0,0 27.879,-93.415 27.236,-109.916 -0.643,-16.502 -30.559,-13.898 -53.184,-15.539 -5.656,-0.41 -10.576,-0.597 -14.773,-0.647 z m 131.33,25.736 -59.834,0.487 c 0,0 -6.647,22.964 -10.615,36.185 -3.967,13.221 -3.538,35.996 4.504,59.928 8.042,23.933 70.876,31.654 109.05,31.268 84.388,-6.852 90.607,-40.047 96.612,-66.971 6.005,-26.924 8.15,-59.738 8.15,-59.738 l -60.154,1.255 c 0,0 -25.093,9.943 -45.895,9.364 -20.802,-0.579 -41.818,-11.778 -41.818,-11.778 z" fill="#FFFFFF" paint-order="markers stroke fill" transform="translate(236.28751,-146.93888) matrix(0.26458333,0,0,0.26458333,-10845.992,-4122.1568)"/>
    <path d="m 40397.52,16135.216 c -11.128,0.457 -18.741,4.174 -44.26,17.568 -19.452,10.211 -39.498,18.568 -44.538,18.568 -5.742,0 -12.716,3.848 -18.655,10.295 -18.036,19.58 -9.521,66.653 12.063,66.653 3.497,0 9.393,2.024 13.099,4.5 6.337,4.232 5.829,5.355 -8.462,18.804 -8.385,7.897 -13.03,12.665 -16.031,19.612 -3.136,7.261 2.448,13.377 8.983,7.416 3.78,-4.14 9.149,-9.516 10.147,-9.516 1.008,0 -1.528,4.642 -2.575,15.221 -2.148,21.723 5.07,48.779 17.154,64.281 9.698,12.438 28.324,22.874 54.436,30.502 47.717,11.789 98.92,2.406 118.683,-42.928 4.548,-7.821 6.41,-12.334 7.925,-12.334 20.95,7.277 25.835,-10.642 1.981,-22.062 -1.465,-0.08 0.205,-5.288 0.205,-16.073 0,-7.148 -1.008,-19.714 -2.24,-27.923 l -2.236,-14.926 15.971,-5.608 c 25.286,-8.877 37.702,-19.487 34.87,-29.8 -2.849,-10.363 -17.89,-15.969 -42.858,-15.969 -20.995,0 -24.21,-4.845 -12.255,-18.492 10.401,-11.873 10.938,-18.441 2.305,-28.182 -8.721,-9.832 -63.519,-27.503 -90.618,-29.217 -5.284,-0.334 -9.384,-0.543 -13.094,-0.39 z m 16.098,7.468 c 5.138,0.155 9.594,1.314 13.48,3.446 5.036,2.763 19.338,9.535 31.781,15.044 12.44,5.512 23.46,11.258 24.481,12.768 3.747,5.538 -4.471,11.603 -19.014,14.035 -14.161,2.363 -15.034,2.028 -17.11,-6.613 -2.972,-12.361 -14.919,-23.395 -25.328,-23.395 -4.712,0 -14.739,2.357 -22.281,5.235 -12.984,4.956 -13.62,5.897 -11.83,17.564 1.041,6.783 2.478,14.27 3.196,16.641 0.86,2.833 -11.234,8.133 -35.317,15.469 -20.144,6.138 -39.443,12.238 -42.884,13.558 -4.693,1.796 -6.825,0.332 -8.527,-5.867 -4.414,-16.06 -0.482,-27.037 12.215,-34.117 6.647,-3.704 19.901,-11.44 29.455,-17.186 30.707,-18.47 52.266,-27.045 67.683,-26.582 z m 9.815,23.063 c 2.336,0.203 4.251,2.024 5.361,5.222 1.3,3.737 0.153,10.644 -2.549,15.352 -4.186,7.299 -5.807,7.935 -11.019,4.322 -3.362,-2.331 -7.794,-8.376 -9.85,-13.435 -3.248,-7.999 -2.831,-9.201 3.199,-9.201 3.816,0 9.394,-0.862 12.396,-1.915 0.858,-0.3 1.684,-0.413 2.462,-0.345 z m 286.111,29.629 c -1.113,-0.181 -2.503,-0.117 -4.165,0.183 -4.85,0.879 -21.721,23.987 -48.051,65.815 -2.346,3.728 -6.581,3.509 -24.491,-1.246 -15.204,-4.838 -19.509,-8.35 -29.255,3.5 -4.181,5.085 -19.533,28.09 -34.111,51.121 -27.697,43.749 -42.895,75.563 -39.715,83.131 1.027,2.451 14.623,11.885 30.209,20.968 32.149,18.73 33.385,18.629 52.262,-4.427 6.921,-8.453 14.339,-15.336 16.484,-15.336 4.686,0.04 11.309,13.67 36.566,75.242 21.169,51.613 32.892,88.097 30.894,96.158 -0.921,3.727 -10.83,-2.533 -34.265,-21.65 -33.909,-27.665 -112.913,-84.905 -120.349,-87.194 -2.994,-0.921 -2.809,-2.804 0.647,-6.629 2.657,-2.939 4.304,-10.331 3.664,-16.431 -1.972,-18.737 -14.72,-9.402 -31.606,-10.065 -28.943,0.982 -30.796,0.61 -37.823,-7.547 -14.626,-16.985 -19.012,-16.79 -41.313,1.825 -17.644,14.733 -19.695,20.921 -37.419,3.332 -22.009,-17.696 -32.792,-17.936 -52.083,-1.149 l -14.425,12.545 -33.1,-1.064 c -32.456,-1.049 -33.22,-0.894 -39.561,7.943 -6.18,8.594 -6.187,9.486 -0.06,19.229 5.785,9.208 5.853,10.509 0.66,13.164 -3.169,1.621 -19.329,12.267 -35.911,23.658 -64.962,44.628 -123.556,104.386 -123.556,126.01 0,15.76 14.308,31.222 41.288,44.629 12.543,6.232 38.875,19.321 58.517,29.083 29.03,14.432 35.71,19.18 35.71,25.374 0,4.19 1.539,11.316 3.419,15.832 3.205,7.695 2.689,8.185 -8.241,7.746 -11.244,-0.452 -11.682,0.01 -11.682,12.916 -0.01,7.359 -3.056,18.48 -6.765,24.715 -8.695,14.616 -3.778,26.38 12.246,29.306 6.064,1.108 11.023,3.045 11.023,4.301 0,1.26 -4.94,14.663 -10.983,29.787 -18.632,46.633 -13.816,56.71 25.329,52.928 30.322,-2.928 33.774,-3.847 37.529,-9.979 8.275,-13.505 10.396,-3.228 10.396,50.367 0,86.94 17.408,289.21 30.203,368.245 3.254,16.207 7.004,12.626 -5.191,21.498 -17.335,12.61 -49.262,31.962 -64.139,38.869 -18.562,8.622 -20.99,11.762 -15.855,20.521 5.985,10.222 22.878,8.473 51.697,-5.359 39.732,-19.072 69.214,-45.9 69.214,-62.986 0,-2.854 -2.218,-5.186 -4.925,-5.186 -5.249,0 -9.864,-39.76 -17.205,-148.141 -2.016,-29.845 -5.286,-76.499 -7.256,-103.677 -3.616,-49.929 -4.936,-149.643 -1.979,-149.643 0.882,0 12.832,2.414 26.557,5.367 50.123,10.792 120.747,2.138 144.796,-17.742 3.609,-2.987 7.103,-4.811 7.761,-4.057 0.663,0.757 -2.611,32.239 -7.282,69.957 -8.732,70.529 -18.34,209.91 -21.79,316.157 -1.517,46.624 -0.852,62.108 2.938,68.58 2.983,5.097 16.415,13.679 34.354,21.955 16.199,7.474 33.421,16.128 38.279,19.234 h 0.02 c 18.035,11.536 39.641,4.16 35.194,-12.017 -1.533,-5.582 -11.319,-12.069 -35.391,-23.461 -18.304,-8.661 -35.556,-15.746 -38.337,-15.746 -2.778,0 -6.097,-2.994 -7.366,-6.647 -2.635,-7.585 6.281,-189.941 15.131,-309.51 3.269,-44.16 6.355,-99.107 6.856,-122.105 0.499,-23.001 1.266,-42.574 1.703,-43.494 0.44,-0.918 3.966,14.138 7.837,33.457 8.075,40.285 13.553,47.487 33.305,43.799 17.79,-3.325 20.155,-13.191 12.655,-52.836 -3.411,-18.031 -9.245,-45.323 -12.956,-60.647 l -6.747,-27.857 8.271,-2.875 c 16.401,-5.695 25.601,-26.959 15.613,-36.082 -2.418,-2.208 -9.932,-4.016 -16.694,-4.016 -11.975,0 -12.144,-0.197 -6.593,-7.437 12.834,-16.737 3.151,-39.401 -16.837,-39.401 h -10.425 v -84.215 c 0,-62.558 -1.484,-91.455 -5.775,-112.375 -3.177,-15.487 -4.923,-28.935 -3.885,-29.886 1.041,-0.95 5.815,1.82 10.611,6.156 7.869,7.112 65.327,52.829 124.485,99.047 45.395,35.465 67.186,16.729 52.195,-44.871 -6.816,-28.013 -34.441,-102.126 -52.572,-141.043 -9.967,-21.39 -10.721,-25.504 -7.939,-43.073 1.688,-10.68 6.588,-26.841 10.887,-35.906 7.915,-16.701 7.623,-29.951 -0.942,-42.476 -3.101,-4.534 1.03,-12.728 20.866,-41.42 20.787,-30.07 26.541,-43.473 18.748,-44.746 z m -243.377,4.304 c 3.104,0.115 4.884,1.148 4.884,3.155 0,3.183 -6.964,6.164 -20.319,8.695 -11.172,2.12 -40.428,9.735 -65.011,16.924 -24.585,7.188 -46.579,13.083 -48.881,13.113 -5.968,0.06 -9.415,-9.975 -3.996,-11.611 27.117,-8.188 62.642,-16.05 79.249,-17.543 11.275,-1.011 24.619,-3.679 29.654,-5.928 10.399,-4.64 19.246,-6.996 24.42,-6.805 z m 29.122,22.776 c 7.229,0.05 13.316,1.406 21.547,3.732 l 14.65,4.141 -15.125,7.174 c -8.317,3.948 -25.625,8.729 -38.459,10.632 -23.25,3.445 -55.745,3.815 -80.108,0.909 -10.864,-1.294 -5.275,-3.49 36.631,-14.387 33.596,-8.738 48.814,-12.284 60.864,-12.201 z m -156.091,40.146 c 0.786,0.06 1.7,0.268 2.74,0.637 3.526,1.25 36.314,3.141 72.866,4.205 l 66.455,1.934 2.18,12.045 c 4.392,24.249 2.421,37.052 2.421,37.052 -15.125,0.122 -12.6,16.22 -5.544,17.614 2.041,0.403 -1.355,7.28 -12.775,23.027 -6.047,8.339 -16.625,17.462 -23.935,20.644 -22.162,9.655 -55.251,5.357 -84.084,-10.919 -15.282,-8.627 -22.391,-19.711 -28.024,-43.711 -3.732,-15.886 -3.456,-17.553 3.662,-22.104 8.824,-5.646 10.42,-12.904 2.2,-10.027 -8.018,2.813 -6.713,-2.112 2.462,-9.289 7.312,-5.718 7.462,-6.554 1.832,-10.313 -7.22,-4.823 -7.96,-11.243 -2.456,-10.795 z m 279.667,5.207 c 5.408,-0.247 13.745,4.427 23.546,11.787 8.787,6.598 9.284,8.05 4.697,13.733 -4.098,5.068 -6.198,5.538 -10.416,2.344 -5.826,-4.418 -11.767,0.445 -7.766,6.357 1.244,1.841 -1.128,3.346 -5.276,3.346 -9.002,0 -9.477,2.537 -1.911,10.174 7.766,7.834 0.278,23.613 -10.821,22.798 -21.759,-1.595 -28.362,6.152 -11.294,13.256 13.294,5.533 11.249,10.259 -5.493,12.705 -15.758,2.301 -19.644,9.426 -7.124,13.057 4.139,1.2 6.906,3.178 6.148,4.402 -0.758,1.224 -4.395,8.625 -8.081,16.446 -3.686,7.819 -7.687,14.139 -8.893,14.013 -1.208,-0.113 -10.306,-2.776 -19.478,-7.525 -8.181,-4.235 -17.972,-7 -12.81,-15.654 l 31.947,-53.559 c 20.234,-33.919 27.003,-47.865 34.151,-60.197 4.583,-7.909 7.073,-7.401 8.874,-7.483 z m -215.369,17.772 c -1.692,-0.01 -3.438,0.494 -4.992,1.584 -5.997,4.204 -7.709,12.027 -3.379,15.982 5.162,4.714 13.071,1.394 15.415,-5.355 2.608,-7.501 -1.97,-12.18 -7.044,-12.211 z m 35.02,1.392 c -7.618,0 -11.383,8.401 -7.698,17.17 3.828,9.111 16.815,4.401 16.815,-6.545 0,-7.737 -3.482,-10.625 -9.117,-10.625 z m -73.521,0.06 c -0.995,0.238 -1.616,0.829 -1.616,1.719 0,1.782 2.473,3.244 5.495,3.244 3.021,0 8.286,1.508 8.409,-0.53 0.201,-3.297 -5.388,-2.966 -8.409,-4.025 -1.511,-0.53 -2.883,-0.647 -3.879,-0.408 z m 295.502,6.633 -2.433,11.709 c -2.815,13.537 -7.069,18.934 -10.696,13.572 -1.392,-2.059 0.991,-8.589 5.3,-14.51 z m -285.137,2.834 -6.956,0.818 c -6.383,0.748 -4.637,4.184 -0.371,4.334 3.859,0.146 11.666,-2.96 10.453,-4.07 -1.219,-1.11 -0.332,-1.41 -3.126,-1.082 z m 234.846,0.123 c -0.438,-0.02 -0.92,0.102 -1.423,0.386 -2.017,1.138 -3.663,3.484 -3.663,5.215 0,1.732 1.646,3.151 3.663,3.151 2.013,0 3.66,-2.344 3.66,-5.213 0,-2.151 -0.924,-3.486 -2.237,-3.539 z m -222.005,11.14 c -3.256,-0.108 -2.389,3.645 1.735,6.399 7.958,5.315 12.628,6.292 21.101,0.633 3.118,-2.083 -0.131,-5.786 -6.503,-2.903 -3.258,1.474 -8.622,-0.944 -11.672,-2.556 -2.032,-1.074 -3.576,-1.537 -4.661,-1.573 z m 61.103,3.866 c -0.663,0.06 -1.482,0.346 -2.437,0.945 -2.61,1.642 -9.735,3.421 -13.768,0.383 -2.934,-2.21 -5.547,0.513 -1.15,4.701 4.098,3.905 15.078,3.579 18.627,-2.125 1.311,-2.107 0.718,-4.068 -1.272,-3.904 z m 152.154,3.785 c -2.014,0 -3.662,1.504 -3.662,3.342 0,1.84 1.648,3.343 3.662,3.343 2.014,0 3.662,-1.503 3.662,-3.343 0,-1.838 -1.648,-3.342 -3.662,-3.342 z m 32.494,17.586 c 1.063,0.488 2.156,2.759 3.977,7.129 4.863,11.683 4.032,12.912 -4.761,7.037 -5.194,-3.467 -5.882,-5.894 -2.999,-10.596 1.691,-2.759 2.721,-4.057 3.783,-3.57 z m -250.297,9.173 c -4.618,0 -1.352,8.528 6.003,15.682 13.901,13.514 50.638,9.053 50.638,-6.15 0,-5.624 -1.584,-6.553 -8.241,-4.823 -22.31,5.804 -28.672,5.929 -37.368,0.725 -4.99,-2.986 -9.957,-5.433 -11.032,-5.434 z m 222.256,40.665 c 1.139,0.171 7.178,3.317 8.917,3.576 2.133,0.319 -2.931,5.769 -9.535,16.787 -11.237,18.736 -12.128,19.508 -18.394,15.972 -4.532,-2.557 -4.033,-5.191 3.301,-17.423 8.761,-14.605 12.292,-19.424 15.711,-18.912 z m -154.151,40.367 c 1.591,-0.09 3.342,2.152 6.125,7.929 4.395,7.661 4.253,10.763 -1.056,23.465 -3.367,8.049 -7.396,15.358 -8.959,16.241 -2.869,1.618 -18.563,-11.802 -18.563,-15.874 0,-1.207 5.293,-9.047 11.76,-17.425 5.832,-7.558 8.042,-14.188 10.693,-14.336 z m -86.678,1.56 c 3.804,-0.759 6.137,3.246 12.773,11.387 14.765,14.232 11.385,14.455 -2.624,27.252 -14.521,14.274 -13.797,15.428 -22.456,-2.449 -4.241,-8.753 -7.708,-16.948 -7.708,-18.211 0,-1.262 4.648,-6.36 10.329,-11.334 4.589,-4.017 7.404,-6.189 9.686,-6.645 z m 118.381,12.76 24.223,1.125 c 29.656,1.375 28.47,7.236 -1.462,7.236 -12.301,0 -22.662,1.656 -24.154,3.856 -3.562,5.267 8.718,12.875 20.783,12.875 10.873,0 11.149,2.391 16.238,41.814 2.74,21.226 -0.191,29.886 -1.969,12.684 -0.702,-6.777 -9.137,-10.827 -18.293,-14.977 -12.932,-8.871 -16.457,-10.233 -32.956,-0.08 -16.378,10.082 -16.547,10.424 -16.299,32.196 0.346,30.269 11.487,44.93 34.049,56.173 10.882,5.423 28.567,-20.703 33.748,-28.464 l 7.391,-18.623 -0.363,21.316 c -0.596,35.054 -7.214,154.759 -9.32,161.42 -2.307,7.302 -3.775,7.525 -49.565,7.525 -25.954,0 -47.193,-0.752 -47.193,-1.67 0,-0.921 3.301,-4.683 7.329,-8.363 5.916,-5.399 7.375,-11.368 7.597,-30.945 0.15,-13.34 1.447,-46.086 2.879,-72.766 1.423,-26.679 1.455,-65.07 0.06,-85.312 -2.91,-42.236 -1.364,-54.046 6.316,-48.225 8.631,6.544 15.134,0.942 28.26,-24.338 z m -151.789,6.912 c 1.937,0.267 2.405,1.758 2.404,4.813 0,4.499 -4.015,7.377 -13.731,9.841 -20.085,5.094 -43.194,4.382 -48.534,-1.498 -10.88,-9.44 15.559,-6.653 20.142,-7.011 12.086,-0.949 26.511,-3.066 32.05,-4.707 2.15,-0.637 3.857,-1.082 5.205,-1.309 1.01,-0.171 1.818,-0.218 2.464,-0.129 z m 2.841,21.901 c 6.781,-0.746 8.522,4.97 14.016,20.535 5.331,15.103 13.122,16.151 24.766,3.34 l 8.362,-9.198 7.649,9.198 c 4.207,5.061 10.059,9.203 13.003,9.203 4,0 4.858,2.753 3.401,10.873 -1.074,5.98 -3.622,22.688 -5.67,37.125 -2.046,14.438 -6.982,37.917 -10.969,52.181 -17.536,62.732 -16.232,84.408 6.945,115.178 l 11.665,15.483 h -45.958 c -42.41,0 -45.959,-0.483 -45.959,-6.241 0,-3.434 -3.109,-9.847 -6.908,-14.259 -11.807,-13.707 -18.097,-55.983 -19.604,-131.719 -1.88,-94.358 -2.665,-91.202 25.712,-104.112 9.597,-4.367 15.48,-7.139 19.549,-7.587 z m -66.011,36.421 c 1.277,0 0.973,6.402 -0.683,14.223 -5.348,25.24 -3.849,129.276 2.158,149.713 2.974,10.119 5.424,20.282 5.454,22.582 0.104,10.221 -26.001,2.532 -82.328,-24.234 -32.207,-15.305 -60.109,-30.062 -61.993,-32.791 -6.484,-9.387 50.567,-66.687 111.435,-111.924 12.999,-9.66 24.676,-17.569 25.957,-17.569 z m 214.034,6.467 c 3.591,-0.09 7.304,1.905 13.527,4.94 13.164,6.437 11.919,9.057 11.401,18.66 -0.325,6.017 -1.039,14.985 -4.699,21.189 -9.286,15.672 -15.607,21.313 -26.174,10.969 -11.389,-11.148 -12.484,-11.084 -12.484,-28.768 0,-14.011 0.325,-15.416 5.637,-19.453 5.733,-5.284 9.201,-7.45 12.792,-7.537 z m -168.335,20.846 c -0.578,-0.264 -1.341,-0.224 -2.302,0.07 -7.345,2.234 -12.758,22.874 -7.482,31.785 7.882,13.312 46.477,5.087 52.822,3.936 23.693,-4.346 29.905,-9.305 26.623,-21.246 -2.917,-10.622 -11.673,-10.918 -14.538,-0.49 -2.304,8.39 -15.307,12.209 -43.141,12.119 -9.789,-0.03 -13.834,3.09 -11.354,-13.781 1.18,-8.031 1.103,-11.598 -0.628,-12.389 z m 29.523,220.26 h 25.148 l 0.636,15.052 c 0.35,8.279 -0.472,14.771 -1.83,14.422 -1.358,-0.349 -11.947,-1.177 -23.531,-1.84 -16.836,-0.966 -21.081,-2.344 -21.111,-6.89 -0.03,-3.129 -1.044,-9.075 -2.259,-13.215 -2.131,-7.27 -1.348,-7.529 22.947,-7.529 z m 131.663,0.168 c 6.008,-0.194 14.086,0.413 23.576,1.847 12.482,1.887 12.842,2.363 11.518,15.026 -1.355,12.991 -1.468,13.07 -17.161,13.07 -8.689,0 -18.178,0.832 -21.088,1.85 -3.894,1.365 -5.936,-1.789 -7.708,-11.911 -1.323,-7.573 -1.453,-15.183 -0.282,-16.912 1.204,-1.779 5.139,-2.775 11.145,-2.97 z m -56.697,0.498 c 17.513,0.753 23.436,2.227 23.436,5.849 0,3.276 -4.157,4.898 -12.821,5.024 -10.303,0.137 -12.816,1.478 -12.816,6.842 0,5.164 13.74,3.568 25.871,5.908 8.628,1.663 4.911,8.475 4.182,10.502 -1.359,3.769 -30.972,5.781 -45.431,3.088 -6.358,-1.186 -8.572,-4.667 -10.531,-16.592 -1.417,-8.632 -0.945,-16.5 1.1,-18.369 1.967,-1.796 14.122,-2.808 27.01,-2.252 z m -115.488,27.205 c 5.399,1.167 1.513,16.858 -11.409,53.67 l -11.293,33.9 c -5.748,19.171 -12.74,14.36 -21.833,15.029 -25.361,1.867 -11.24,-12.224 -4.669,-29.269 6.205,-16.098 12.868,-32.012 14.808,-35.354 2.511,-4.332 1.846,-8.422 -2.313,-14.22 -5.638,-7.859 -5.529,-8.135 3.119,-8.135 4.927,0 14.132,-3.973 20.453,-8.83 6.312,-4.852 10.684,-7.322 13.137,-6.791 z m -68.056,7.75 c 2.263,-0.282 5.423,0.745 9.016,3.146 6.731,4.494 6.601,4.725 -2.785,4.725 -5.42,0 -9.858,-1.42 -9.858,-3.152 0,-2.847 1.364,-4.438 3.627,-4.719 z m 125.334,6.701 c 10.522,-0.01 15.739,1.404 21.214,4.992 18.204,11.939 80.577,11.25 80.576,-0.887 0,-1.616 11.538,-2.935 25.642,-2.935 h 25.638 v 21.215 c 0,38.45 -14.47,67.179 -39.684,78.795 -7.385,3.401 -24.273,7.882 -37.534,9.959 -13.259,2.074 -30.567,3.583 -38.459,3.332 -53.329,-1.66 -67.833,-10.479 -70.393,-42.797 -1.288,-16.286 -2.955,-20.517 -8.749,-22.199 -3.939,-1.141 -6.41,-3.86 -5.495,-6.039 0.916,-2.184 3.585,-12.416 5.933,-22.741 l 4.268,-18.767 24.546,-1.469 c 4.894,-0.293 8.99,-0.456 12.497,-0.459 z" fill="#00B894" transform="translate(236.28751,-146.93888) matrix(0.26458333,0,0,0.26458333,-10845.992,-4122.1568)"/>
</svg>