<?xml version="1.0" ?><svg height="335.77216mm" viewBox="0 0 165.50569 335.77216" width="165.50569mm" xmlns="http://www.w3.org/2000/svg">
    <path d="m 43880.178,16118.732 c -12.232,0.101 -23.337,1.566 -28.66,3.241 -10.645,3.351 -67.597,34.36 -80.551,46.82 -12.953,12.46 -7.237,36.15 4.929,47.619 0,0 8.46,-2.931 11.344,-3.935 l 10.604,16.211 c 0,0 36.815,-6.795 70.273,-15.809 33.458,-9.015 83.906,-23.316 83.906,-23.317 l -9.47,-15.773 c 3.368,-1.954 17.177,-10.369 19.722,-19.156 2.884,-9.958 -27.007,-23.408 -46.673,-30.959 -9.833,-3.776 -23.192,-5.042 -35.424,-4.942 z m 9.24,23.028 c -3.797,0.657 -7.595,1.618 -11.297,2.668 2.705,-0.964 5.73,-1.844 9.477,-2.539 0.653,-0.121 1.214,-0.09 1.82,-0.129 z m -20.91,8.302 c -0.796,7.064 5.507,21.183 11.98,27.008 7.653,6.888 18.669,6.118 24.342,-8.488 0.08,-0.208 0.132,-0.407 0.207,-0.613 0.09,4.161 -0.133,7.242 -0.133,7.242 l 18.541,-0.313 -81.799,18.969 c 5.046,-1.691 14.168,-4.867 16.112,-5.441 10.855,-3.21 11.538,-14.067 8.392,-24.356 -1.645,-5.38 -1.255,-10.13 2.358,-14.008 z m 90.31,45.405 -133.756,34.476 c 0,0 80.043,10.558 99.561,8.627 19.519,-1.931 73.678,-16.226 87.66,-27.968 13.981,-11.742 -53.465,-15.135 -53.465,-15.135 z m -161.156,41.625 c -2.732,14.717 -3.665,28.361 -6.312,42.695 -2.648,14.333 -7.147,43.034 11.726,61.787 18.873,18.753 48.977,31.741 78.738,30.781 29.761,-0.961 56.191,-7.914 70.752,-41.962 14.56,-34.047 12.768,-71.592 7.516,-80.661 -5.252,-9.069 -70.709,-9.26 -87.148,-10.49 -16.44,-1.23 -75.272,-2.15 -75.272,-2.15 z m 292.436,5.969 c -2.714,-0.156 -5.186,0.981 -7.287,4.255 -5.602,8.73 -63.757,102.102 -68.737,112.84 -4.98,10.738 -10.012,15.827 -0.207,20.776 0,0 32.113,20.446 41.606,23.808 9.493,3.361 15.615,-3.549 27.961,-20.261 12.346,-16.713 59.966,-105.506 57.839,-110.268 -2.127,-4.762 -27.806,-17.698 -36.209,-23.44 -5.253,-3.588 -10.443,-7.449 -14.966,-7.71 z m -161.526,150.794 c -0.641,0.02 -1.287,0.124 -1.937,0.323 -10.401,3.184 -44.5,40.336 -44.5,40.336 0,0 -33.027,-38.601 -39.354,-39.373 -6.323,-0.772 -33.992,23.064 -33.992,23.064 l 2.361,17.18 -2.925,1.248 -1.672,-17.865 -64.117,6.73 c -7.776,2.639 -9.477,11.435 -4.633,20.307 3.787,6.935 43.833,-1.351 61.547,-5.387 l -41.815,17.838 c 0,0 -6.646,101.901 -8.469,127.185 -1.823,25.283 15.012,105.091 22.625,115.995 6.157,8.819 11.635,13.08 13.926,14.755 l -7.494,-0.181 7.613,49.408 60.479,-1.158 c 0,0 27.555,11.871 45.355,14.283 17.8,2.413 36.78,-10.135 36.78,-10.135 l 58.546,-2.797 11.26,-44.295 -0.527,-0.01 c 0.02,-0.212 12.001,-132.689 11.894,-148.696 -0.107,-16.019 -16.945,-135.777 -16.945,-135.777 l -18.301,-2.178 c 0.626,0 1.351,0.01 1.899,-0.01 10.028,-0.42 31.186,-1.338 31.568,-9.674 0.359,-7.816 -12.463,-13.245 -19.424,-13.358 v 0 c -0.464,0 -0.902,0 -1.308,0.05 -6.501,0.65 -36.201,2.715 -36.201,2.715 l -8.024,16.531 -2.103,-0.25 5.789,-18.238 c 0,0 -8.295,-18.829 -17.901,-18.559 z m -212.617,348.43 c -12.591,-0.15 -18.68,0.936 -18.68,0.936 l -6.115,34.838 33.994,12.642 -26.592,79.613 58.116,-1.927 c 0,0 27.877,-93.415 27.234,-109.916 -0.643,-16.502 -30.557,-13.898 -53.182,-15.539 -5.656,-0.41 -10.578,-0.597 -14.775,-0.647 z m 131.33,25.736 -59.834,0.487 c 0,0 -6.645,22.964 -10.613,36.185 -3.967,13.221 -3.538,35.996 4.504,59.928 8.042,23.933 70.877,31.654 109.051,31.268 84.387,-6.852 90.606,-40.047 96.611,-66.971 6.005,-26.924 8.15,-59.738 8.15,-59.738 l -60.156,1.256 c 0,0 -25.091,9.942 -45.893,9.363 -20.802,-0.579 -41.82,-11.778 -41.82,-11.778 z" fill="#FFFFFF" paint-order="markers stroke fill" transform="translate(-253.26078,186.76317) matrix(0.26458333,0,0,0.26458333,-11275.453,-4450.1426)"/>
    <path d="m 43867.003,16113.611 c -11.127,0.458 -18.738,4.175 -44.256,17.571 -19.457,10.212 -39.503,18.566 -44.545,18.566 -5.741,0 -12.713,3.847 -18.65,10.293 -18.04,19.581 -9.524,66.652 12.06,66.652 3.497,0 9.21,1.906 12.695,4.235 5.893,3.934 5.93,5.276 0.551,19.201 -9.199,23.817 -10.762,49.468 -4.236,69.52 10.321,31.708 27.018,45.97 67.742,57.865 53.378,15.595 92.984,1.266 118.682,-42.928 4.549,-7.819 9.21,-14.884 9.21,-14.884 31.694,1.261 13.824,-20.489 1.663,-21.183 -1.64,-0.07 -0.76,-3.615 -0.76,-14.402 0,-7.148 -1.008,-19.714 -2.242,-27.922 l -2.238,-14.925 15.974,-5.61 c 25.286,-8.875 37.699,-19.487 34.867,-29.799 -2.849,-10.363 -17.888,-15.966 -42.851,-15.966 -20.999,0 -24.21,-4.848 -12.258,-18.494 10.401,-11.872 10.938,-18.443 2.301,-28.184 -8.72,-9.833 -63.517,-27.504 -90.617,-29.217 -5.284,-0.334 -9.383,-0.541 -13.092,-0.389 z m 16.093,7.469 c 5.139,0.155 9.597,1.314 13.483,3.445 5.036,2.763 19.334,9.533 31.779,15.043 12.441,5.513 23.461,11.259 24.483,12.768 3.747,5.54 -4.471,11.606 -19.014,14.035 -14.161,2.364 -15.032,2.029 -17.111,-6.613 -2.972,-12.357 -14.92,-23.395 -25.329,-23.395 -4.71,0 -14.741,2.358 -22.283,5.239 -12.983,4.952 -13.614,5.892 -11.826,17.562 1.04,6.78 2.478,14.268 3.197,16.639 0.859,2.833 -11.238,8.132 -35.32,15.469 -20.144,6.139 -39.442,12.238 -42.885,13.558 -4.692,1.799 -6.823,0.332 -8.527,-5.865 -4.41,-16.061 -0.481,-27.038 12.217,-34.117 6.648,-3.705 19.902,-11.44 29.461,-17.188 30.703,-18.47 52.259,-27.044 67.675,-26.58 z m 9.819,23.061 c 2.334,0.202 4.248,2.023 5.359,5.222 1.299,3.736 0.154,10.645 -2.549,15.352 -4.185,7.299 -5.81,7.936 -11.021,4.322 -3.358,-2.331 -7.789,-8.375 -9.848,-13.435 -3.249,-7.999 -2.831,-9.201 3.198,-9.201 3.817,0 9.397,-0.862 12.402,-1.915 0.857,-0.3 1.681,-0.413 2.459,-0.345 z m 290.049,31.189 c -1.113,-0.181 -2.504,-0.116 -4.166,0.184 -4.85,0.879 -21.721,23.986 -48.051,65.814 -2.346,3.728 -6.58,3.509 -24.49,-1.246 -15.204,-4.838 -19.51,-8.35 -29.256,3.5 -4.181,5.085 -19.534,28.09 -34.112,51.121 -27.697,43.749 -42.894,75.563 -39.714,83.131 1.027,2.451 14.623,11.886 30.209,20.969 32.149,18.73 33.384,18.628 52.261,-4.428 6.921,-8.453 14.34,-15.336 16.485,-15.336 4.686,0.04 11.309,13.67 36.566,75.242 21.169,51.613 32.893,88.098 30.895,96.159 -0.921,3.727 -10.831,-2.534 -34.266,-21.651 -33.909,-27.665 -112.914,-84.904 -120.35,-87.193 -2.994,-0.921 -2.807,-2.804 0.649,-6.629 2.657,-2.939 4.304,-10.332 3.664,-16.432 -1.972,-18.737 -14.722,-9.401 -31.608,-10.064 -28.943,0.982 -30.795,0.61 -37.822,-7.547 -14.626,-16.985 -19.011,-16.791 -41.312,1.824 -17.644,14.733 -19.696,20.921 -37.42,3.332 -22.009,-17.696 -32.791,-17.935 -52.082,-1.148 l -14.426,12.545 -33.1,-1.065 c -32.456,-1.049 -33.219,-0.893 -39.56,7.944 -6.18,8.594 -6.188,9.485 -0.06,19.228 5.785,9.208 5.853,10.509 0.66,13.164 -3.169,1.621 -19.33,12.267 -35.912,23.658 -64.962,44.628 -123.554,104.386 -123.554,126.01 0,15.76 14.307,31.222 41.287,44.629 12.543,6.232 38.875,19.322 58.517,29.084 29.03,14.432 35.709,19.179 35.709,25.373 0,4.19 1.54,11.316 3.42,15.832 3.205,7.695 2.688,8.185 -8.242,7.746 -11.244,-0.452 -11.682,0.01 -11.682,12.916 -0.01,7.359 -3.054,18.48 -6.763,24.715 -8.695,14.616 -3.778,26.381 12.246,29.307 6.064,1.108 11.021,3.044 11.021,4.3 0,1.26 -4.939,14.664 -10.982,29.788 -18.632,46.633 -13.815,56.709 25.33,52.927 30.322,-2.928 33.772,-3.846 37.527,-9.978 8.275,-13.505 10.397,-3.228 10.397,50.367 0,86.94 17.408,289.209 30.203,368.244 3.254,16.207 7.003,12.626 -5.192,21.498 -17.334,12.61 -49.261,31.962 -64.138,38.869 -18.562,8.622 -20.991,11.763 -15.856,20.522 5.985,10.222 22.879,8.472 51.698,-5.36 39.732,-19.072 69.214,-45.9 69.214,-62.986 0,-2.854 -2.218,-5.185 -4.925,-5.185 -5.249,0 -9.864,-39.76 -17.205,-148.141 -2.016,-29.845 -5.286,-76.5 -7.256,-103.678 -3.616,-49.929 -4.936,-149.642 -1.979,-149.642 0.882,0 12.832,2.414 26.557,5.367 50.123,10.792 120.748,2.138 144.797,-17.742 3.609,-2.987 7.102,-4.811 7.76,-4.057 0.663,0.757 -2.611,32.239 -7.282,69.957 -8.732,70.529 -18.341,209.909 -21.791,316.156 -1.517,46.624 -0.85,62.108 2.94,68.58 2.983,5.097 16.414,13.679 34.353,21.955 16.199,7.474 33.422,16.129 38.28,19.235 h 0.02 c 18.035,11.536 39.64,4.159 35.193,-12.018 -1.533,-5.582 -11.318,-12.069 -35.39,-23.461 -18.304,-8.661 -35.555,-15.746 -38.336,-15.746 -2.778,0 -6.098,-2.993 -7.367,-6.646 -2.635,-7.585 6.281,-189.941 15.131,-309.51 3.269,-44.16 6.356,-99.108 6.857,-122.106 0.499,-23.001 1.264,-42.574 1.701,-43.494 0.44,-0.918 3.967,14.138 7.838,33.457 8.075,40.285 13.553,47.487 33.305,43.799 17.79,-3.325 20.156,-13.191 12.656,-52.836 -3.411,-18.031 -9.246,-45.322 -12.957,-60.646 l -6.746,-27.858 8.269,-2.875 c 16.401,-5.695 25.602,-26.959 15.614,-36.082 -2.418,-2.208 -9.932,-4.015 -16.694,-4.015 -11.975,0 -12.144,-0.198 -6.593,-7.438 12.834,-16.737 3.152,-39.4 -16.836,-39.4 h -10.426 v -84.215 c 0,-62.558 -1.485,-91.455 -5.776,-112.375 -3.177,-15.487 -4.922,-28.936 -3.884,-29.887 1.041,-0.95 5.815,1.82 10.611,6.156 7.869,7.112 65.326,52.829 124.484,99.047 45.395,35.465 67.187,16.729 52.196,-44.871 -6.816,-28.013 -34.442,-102.126 -52.573,-141.043 -9.967,-21.39 -10.719,-25.503 -7.937,-43.072 1.688,-10.68 6.588,-26.841 10.887,-35.906 7.915,-16.701 7.621,-29.952 -0.944,-42.477 -3.101,-4.534 1.031,-12.728 20.867,-41.42 20.787,-30.07 26.541,-43.473 18.748,-44.746 z m -247.319,2.746 c 3.104,0.115 4.885,1.146 4.885,3.153 0,3.184 -6.961,6.164 -20.314,8.695 -11.174,2.121 -40.431,9.737 -65.014,16.926 -24.584,7.188 -46.581,13.081 -48.883,13.111 -5.964,0.06 -9.416,-9.975 -3.996,-11.611 27.116,-8.187 62.644,-16.048 79.254,-17.541 11.271,-1.012 24.614,-3.68 29.652,-5.928 10.396,-4.639 19.243,-6.995 24.416,-6.805 z m 29.123,22.776 c 7.229,0.05 13.317,1.405 21.547,3.73 l 14.651,4.141 -15.123,7.176 c -8.318,3.945 -25.627,8.728 -38.457,10.63 -23.251,3.446 -55.744,3.815 -80.108,0.913 -10.865,-1.298 -5.278,-3.491 36.625,-14.391 33.596,-8.738 48.817,-12.283 60.865,-12.199 z m -154.504,40.605 c 0.521,0.02 1.082,0.146 1.69,0.361 3.233,1.146 35.782,2.957 72.332,4.02 l 66.455,1.937 2.178,12.042 c 4.393,24.247 2.654,38.244 0.765,38.059 -12.3,-1.211 -14.432,11.585 -4.845,15.152 2.286,0.851 -0.399,8.738 -11.819,24.482 -6.046,8.338 -16.623,17.463 -23.933,20.644 -22.164,9.655 -55.253,5.357 -84.084,-10.918 -24.311,-13.722 -34.191,-43.723 -27.283,-82.835 3.154,-17.857 4.899,-23.074 8.544,-22.944 z m 282.02,6.307 c 5.408,-0.247 13.746,4.427 23.547,11.787 8.787,6.598 9.282,8.049 4.695,13.732 -4.098,5.068 -6.198,5.538 -10.416,2.344 -5.826,-4.418 -11.766,0.445 -7.765,6.357 1.244,1.841 -1.128,3.346 -5.276,3.346 -9.002,0 -9.478,2.539 -1.912,10.176 7.766,7.834 0.279,23.612 -10.82,22.797 -21.759,-1.595 -28.361,6.152 -11.293,13.256 13.294,5.533 11.248,10.259 -5.494,12.705 -15.758,2.301 -19.643,9.425 -7.123,13.056 4.139,1.2 6.904,3.179 6.146,4.403 -0.758,1.224 -4.394,8.624 -8.08,16.445 -3.686,7.819 -7.687,14.14 -8.893,14.014 -1.208,-0.113 -10.306,-2.777 -19.478,-7.526 -8.181,-4.235 -17.973,-7 -12.811,-15.654 l 31.948,-53.559 c 20.234,-33.918 27.004,-47.865 34.152,-60.197 4.583,-7.909 7.072,-7.4 8.873,-7.482 z m -216.883,13.707 c -2.011,-0.17 -4.13,0.384 -6.109,1.885 -5.836,4.425 -7.566,14.027 -3.237,17.982 5.162,4.714 13.463,1.827 15.809,-4.925 2.607,-7.501 -0.429,-14.433 -6.463,-14.942 z m 34.047,3.697 c -7.617,0 -11.381,8.4 -7.697,17.172 3.828,9.108 17.046,3.632 17.046,-7.315 0,-7.736 -3.715,-9.857 -9.349,-9.857 z m 224.469,8.453 -2.434,11.709 c -2.815,13.537 -7.068,18.934 -10.695,13.572 -1.392,-2.059 0.99,-8.588 5.299,-14.509 z m -50.291,2.957 c -0.438,-0.02 -0.921,0.103 -1.424,0.387 -2.017,1.138 -3.662,3.484 -3.662,5.215 0,1.732 1.645,3.15 3.662,3.15 2.013,0 3.66,-2.344 3.66,-5.213 0,-2.151 -0.923,-3.486 -2.236,-3.539 z m -8.748,18.791 c -2.014,0 -3.662,1.504 -3.662,3.342 0,1.84 1.648,3.344 3.662,3.344 2.014,0 3.662,-1.504 3.662,-3.344 0,-1.838 -1.648,-3.342 -3.662,-3.342 z m 32.494,17.586 c 1.063,0.488 2.155,2.759 3.976,7.129 4.863,11.683 4.032,12.912 -4.761,7.037 -5.194,-3.467 -5.881,-5.894 -2.998,-10.596 1.691,-2.758 2.721,-4.057 3.783,-3.57 z m -252.785,7.414 c -4.617,0 -1.354,8.521 6.002,15.674 13.9,13.514 50.64,9.056 50.64,-6.146 0,-5.626 -1.584,-6.552 -8.24,-4.821 -22.311,5.804 -28.677,5.927 -37.375,0.721 -4.988,-2.985 -9.95,-5.428 -11.027,-5.428 z m 224.744,42.424 c 1.139,0.171 7.177,3.317 8.916,3.576 2.133,0.319 -2.931,5.769 -9.535,16.787 -11.237,18.736 -12.129,19.507 -18.395,15.971 -4.532,-2.557 -4.031,-5.19 3.303,-17.422 8.761,-14.605 12.292,-19.424 15.711,-18.912 z m -154.152,40.367 c 1.591,-0.09 3.342,2.153 6.125,7.93 4.395,7.661 4.254,10.763 -1.055,23.465 -3.367,8.049 -7.396,15.357 -8.959,16.24 -2.869,1.618 -18.565,-11.803 -18.565,-15.875 0,-1.207 5.293,-9.046 11.76,-17.424 5.832,-7.558 8.043,-14.188 10.694,-14.336 z m -86.678,1.561 c 3.804,-0.759 6.137,3.246 12.773,11.387 14.765,14.232 11.384,14.454 -2.625,27.251 -14.521,14.274 -13.796,15.428 -22.455,-2.449 -4.241,-8.753 -7.709,-16.948 -7.709,-18.211 0,-1.262 4.649,-6.36 10.33,-11.334 4.589,-4.017 7.404,-6.188 9.686,-6.644 z m 118.381,12.76 24.222,1.125 c 29.656,1.375 28.471,7.236 -1.461,7.236 -12.301,0 -22.662,1.655 -24.154,3.855 -3.562,5.267 8.718,12.875 20.783,12.875 10.873,0 11.15,2.392 16.239,41.815 2.74,21.226 -0.191,29.885 -1.969,12.683 -0.702,-6.777 -9.137,-10.826 -18.293,-14.976 -12.932,-8.871 -16.458,-10.233 -32.957,-0.08 -16.378,10.082 -16.547,10.423 -16.299,32.195 0.346,30.269 11.487,44.931 34.049,56.174 10.882,5.423 28.567,-20.704 33.748,-28.465 l 7.39,-18.623 -0.363,21.316 c -0.596,35.054 -7.212,154.759 -9.318,161.42 -2.307,7.302 -3.777,7.526 -49.567,7.526 -25.954,0 -47.193,-0.752 -47.193,-1.67 0,-0.921 3.302,-4.683 7.33,-8.363 5.916,-5.399 7.376,-11.369 7.598,-30.946 0.15,-13.34 1.447,-46.085 2.879,-72.765 1.423,-26.679 1.453,-65.071 0.06,-85.313 -2.91,-42.236 -1.363,-54.045 6.317,-48.225 8.631,6.544 15.133,0.943 28.259,-24.337 z m -151.789,6.912 c 1.937,0.267 2.405,1.757 2.404,4.812 0,4.499 -4.015,7.376 -13.731,9.84 -20.085,5.094 -43.195,4.384 -48.535,-1.496 -10.88,-9.44 15.56,-6.654 20.143,-7.012 12.086,-0.949 26.512,-3.066 32.051,-4.707 2.15,-0.637 3.857,-1.081 5.205,-1.308 1.01,-0.171 1.817,-0.218 2.463,-0.129 z m 2.841,21.9 c 6.781,-0.746 8.522,4.97 14.016,20.535 5.331,15.103 13.122,16.151 24.766,3.34 l 8.363,-9.197 7.648,9.197 c 4.207,5.061 10.058,9.203 13.002,9.203 4,0 4.86,2.753 3.403,10.873 -1.074,5.98 -3.622,22.688 -5.67,37.125 -2.046,14.438 -6.982,37.918 -10.969,52.182 -17.536,62.732 -16.234,84.408 6.943,115.178 l 11.666,15.482 h -45.959 c -42.41,0 -45.959,-0.482 -45.959,-6.24 0,-3.434 -3.109,-9.848 -6.908,-14.26 -11.807,-13.707 -18.096,-55.983 -19.603,-131.719 -1.88,-94.358 -2.664,-91.201 25.713,-104.111 9.597,-4.367 15.479,-7.14 19.548,-7.588 z m -66.011,36.422 c 1.277,0 0.972,6.402 -0.684,14.223 -5.348,25.24 -3.849,129.276 2.158,149.713 2.974,10.118 5.425,20.282 5.455,22.582 0.104,10.221 -26.001,2.531 -82.328,-24.235 -32.207,-15.305 -60.11,-30.062 -61.994,-32.791 -6.484,-9.387 50.568,-66.687 111.436,-111.924 12.999,-9.66 24.676,-17.568 25.957,-17.568 z m 214.035,6.467 c 3.591,-0.09 7.302,1.904 13.525,4.939 13.164,6.437 11.921,9.057 11.403,18.66 -0.325,6.017 -1.04,14.986 -4.7,21.19 -9.286,15.672 -15.607,21.313 -26.173,10.969 -11.389,-11.148 -12.485,-11.086 -12.485,-28.77 0,-14.011 0.325,-15.414 5.637,-19.451 5.733,-5.284 9.202,-7.45 12.793,-7.537 z m -168.336,20.845 c -0.578,-0.264 -1.342,-0.223 -2.303,0.07 -7.345,2.234 -12.756,22.874 -7.48,31.785 7.882,13.312 46.477,5.086 52.822,3.935 23.693,-4.346 29.903,-9.305 26.621,-21.246 -2.917,-10.622 -11.672,-10.918 -14.537,-0.49 -2.304,8.39 -15.307,12.209 -43.141,12.119 -9.789,-0.03 -13.833,3.09 -11.353,-13.781 1.18,-8.031 1.102,-11.598 -0.629,-12.389 z m 29.523,220.26 h 25.149 l 0.635,15.053 c 0.35,8.279 -0.473,14.771 -1.831,14.422 -1.358,-0.349 -11.947,-1.179 -23.531,-1.842 -16.836,-0.966 -21.079,-2.343 -21.109,-6.889 -0.03,-3.129 -1.045,-9.074 -2.26,-13.214 -2.131,-7.27 -1.348,-7.53 22.947,-7.53 z m 131.662,0.168 c 6.008,-0.194 14.087,0.414 23.577,1.848 12.482,1.887 12.841,2.362 11.517,15.025 -1.355,12.991 -1.467,13.071 -17.16,13.071 -8.689,0 -18.178,0.831 -21.088,1.849 -3.894,1.365 -5.937,-1.79 -7.709,-11.912 -1.323,-7.573 -1.452,-15.181 -0.281,-16.91 1.204,-1.779 5.138,-2.776 11.144,-2.971 z m -56.697,0.498 c 17.513,0.753 23.438,2.228 23.438,5.85 0,3.276 -4.159,4.897 -12.823,5.023 -10.303,0.137 -12.814,1.478 -12.814,6.842 0,5.164 13.738,3.568 25.869,5.908 8.628,1.663 4.913,8.475 4.184,10.502 -1.359,3.769 -30.973,5.781 -45.432,3.088 -6.358,-1.186 -8.572,-4.667 -10.531,-16.592 -1.417,-8.632 -0.946,-16.5 1.099,-18.369 1.967,-1.796 14.122,-2.808 27.01,-2.252 z m -115.486,27.205 c 5.399,1.167 1.512,16.858 -11.41,53.67 l -11.293,33.901 c -5.748,19.171 -12.739,14.36 -21.832,15.029 -25.361,1.867 -11.241,-12.225 -4.67,-29.27 6.205,-16.098 12.868,-32.011 14.808,-35.353 2.511,-4.332 1.847,-8.423 -2.312,-14.221 -5.638,-7.859 -5.531,-8.135 3.117,-8.135 4.927,0 14.132,-3.973 20.453,-8.83 6.312,-4.852 10.686,-7.322 13.139,-6.791 z m -68.057,7.75 c 2.263,-0.282 5.423,0.746 9.016,3.147 6.731,4.494 6.601,4.724 -2.785,4.724 -5.42,0 -9.858,-1.42 -9.858,-3.152 0,-2.847 1.364,-4.438 3.627,-4.719 z m 125.334,6.701 c 10.522,-0.01 15.738,1.405 21.213,4.993 18.204,11.939 80.577,11.25 80.576,-0.887 0,-1.616 11.539,-2.936 25.643,-2.936 h 25.638 v 21.215 c 0,38.45 -14.469,67.179 -39.683,78.795 -7.385,3.401 -24.274,7.882 -37.535,9.959 -13.259,2.074 -30.567,3.583 -38.459,3.332 -53.329,-1.66 -67.833,-10.479 -70.393,-42.797 -1.288,-16.286 -2.956,-20.517 -8.75,-22.199 -3.939,-1.141 -6.409,-3.86 -5.494,-6.039 0.916,-2.184 3.586,-12.415 5.934,-22.74 l 4.267,-18.768 24.545,-1.469 c 4.894,-0.293 8.991,-0.456 12.498,-0.459 z" fill="#00B894" transform="translate(-253.26078,186.76317) matrix(0.26458333,0,0,0.26458333,-11275.453,-4450.1426)"/>
</svg>