<?xml version="1.0" ?><svg height="64.471542mm" viewBox="0 0 56.507904 64.471542" width="56.507904mm" xmlns="http://www.w3.org/2000/svg">
    <path d="m -2131.1411,1189.5626 c -2.8644,-2.4858 -4.0306,-5.6345 -1.0026,-9.667 3.0281,-4.0325 7.9999,-14.1966 8.716,-15.8538 0.7161,-1.6572 1.78,-6.6472 0.7161,-9.446 -1.0639,-2.7988 -8.7364,-12.6131 -8.184,-15.7986 0.5524,-3.1855 4.624,-4.3271 10.5369,-5.3766 5.9129,-1.0496 21.6057,-6.3895 25.8614,-5.7818 4.2557,0.6076 5.2842,0.2394 5.3661,5.9843 0.082,5.7449 -4.0362,16.7376 -4.0362,16.7376 0,0 10.987,10.514 14.0764,16.9218 3.0895,6.4078 8.7569,20.1809 -6.7518,24.6185 -15.5086,4.4376 -39.8355,2.9093 -45.2983,-2.3384 z" fill="#FFFFFF" paint-order="markers stroke fill" transform="translate(120.1225,163.1172) matrix(0.89616699,0,0,0.89616699,1793.6803,-1171.1418)"/>
    <path d="m -2130.149,1193.6277 c -7.2676,-3.9584 -7.1945,-10.4957 0.2424,-21.748 6.0907,-9.2151 7.4206,-15.4898 4.2487,-20.0437 -2.8397,-3.4494 -7.9705,-7.6103 -7.6186,-12.557 0.3962,-5.5679 5.9457,-6.6864 13.0991,-7.6912 3.5011,-0.4918 9.3918,-2.1445 13.0908,-3.6726 8.5597,-3.5364 12.6077,-3.9616 16.1732,-1.6989 6.1103,4.8282 3.3312,9.3374 1.8601,14.6338 -1.0216,3.6781 -3.3822,7.4085 -1.3869,9.2021 1.662,1.494 11.1573,10.8217 14.8194,16.8666 3.2549,5.3732 3.9926,11.1894 2.1254,16.7552 -2.9007,8.6471 -8.1463,11.5451 -23.2209,12.8286 -10.6397,0.9059 -29.4628,-0.7127 -33.4324,-2.8749 z m 31.9287,-2.0913 c 12.6133,-0.6433 16.8373,-2.3979 18.8972,-7.849 2.588,-6.8509 1.0511,-12.3471 -6.4858,-23.2141 -3.3859,-4.8811 -4.8726,-5.2889 -2.1092,-0.5785 3.594,6.1267 4.8424,11.4646 4.265,18.2395 -0.5866,6.948 -1.9775,10.1712 -4.2839,9.9672 -1.5578,-0.1378 -1.5938,-0.4614 -0.8169,-7.335 0.5756,-5.0796 -0.6888,-14.4582 -2.5493,-18.9282 -1.0311,-2.4779 -1.1203,-2.1958 -1.1681,3.7006 -0.062,7.5952 -1.9027,12.4563 -5.6414,14.8965 -3.8464,2.5108 -4.7793,0.7044 -2.2836,-4.4221 2.2572,-4.637 3.4697,-18.7619 1.7827,-20.7757 -0.6442,-0.7694 -3.0164,-0.2559 -7.8924,1.7054 -4.1313,1.6626 -7.503,2.0109 -9.9232,1.7937 -4.5025,-0.4042 -4.8306,0.674 -5.2004,4.8541 -0.277,3.1313 -2.1136,6.7756 -5.3678,12.2211 -2.5006,4.1842 -4.5952,8.1569 -4.6546,8.8284 -0.2326,2.6293 3.3536,4.8847 9.7791,6.1503 7.0703,1.3925 9.4869,1.4687 23.6573,0.746 z m -11.0063,-40.6763 c 13.023,-3.8128 14.1841,-4.6855 17.141,-12.8843 2.3287,-6.4569 1.3325,-8.6341 -3.8444,-8.4005 -2.1062,0.095 -5.4204,1.1776 -7.3646,2.4058 -4.8667,3.0741 -10.7731,4.4227 -16.9693,3.8746 -5.9713,-0.5283 -9.0527,0.4382 -9.2712,2.9079 -0.1705,1.9268 5.1372,5.4765 8.4878,5.6766 2.0411,0.1217 2.0536,0.086 0.2818,-0.8292 -2.4217,-1.2506 -5.3622,-5.1958 -4.4452,-5.9637 0.3943,-0.3303 2.2138,0.095 4.0432,0.9459 3.0834,1.4336 3.8284,1.3668 10.2069,-0.916 3.7846,-1.3543 7.3151,-2.138 7.8454,-1.7415 1.299,0.9707 5.9261,-1.5951 6.0834,-3.3731 0.069,-0.7805 0.558,-1.3809 1.0863,-1.3341 0.5285,0.047 0.8506,1.3324 0.7158,2.857 -0.2569,2.9039 -2.635,4.7709 -7.2842,5.7185 -4.8775,0.994 -14.2289,5.0522 -12.9665,5.6268 0.7045,0.3206 3.216,0.8769 5.5806,1.2363 4.121,0.6264 4.2009,0.6988 1.9231,1.7422 -1.3501,0.6184 -5.6758,0.8632 -10.0132,0.5668 -7.4282,-0.5079 -7.584,-0.4714 -5.7198,1.3421 2.6485,2.5764 6.9796,2.7384 14.4824,0.5418 z" fill="#00B894" transform="translate(120.1225,163.1172) matrix(0.89616699,0,0,0.89616699,1793.6803,-1171.1418)"/>
</svg>