<?xml version="1.0" ?><svg height="98.975296mm" viewBox="0 0 122.39816 98.975296" width="122.39816mm" xmlns="http://www.w3.org/2000/svg">
    <path d="m 30800.148,25004.796 c 38.696,-63.834 128.479,-80.156 203,-92.599 74.52,-12.444 219.609,28.765 228.588,118.213 8.978,89.447 -1.078,154.169 -29.629,171.299 -28.551,17.13 -163.854,94.538 -288.563,52.522 -124.709,-42.017 -109.356,-43.229 -122.375,-116.355 -13.018,-73.125 -5.028,-111.264 8.979,-133.08 z" fill="#FFFFFF" paint-order="markers stroke fill" transform="translate(248.67531,-143.2802) matrix(0.26458333,0,0,0.26458333,-8392.1452,-6444.173)"/>
    <path d="m 30919.963,25264.813 c -51.403,-12.19 -92.984,-31.767 -106.345,-50.073 -2.93,-4.015 -7.141,-7.488 -9.356,-7.72 -7.465,-0.777 -24.03,-85.884 -25.706,-132.066 -1.042,-28.729 7.4,-63.83 20.087,-83.499 11.368,-17.625 45.445,-45.832 72.267,-59.815 55.238,-28.802 128.896,-39.845 209.644,-31.434 43.395,4.521 64.109,11.416 94.355,31.407 22.774,15.052 48.445,44.535 55.819,64.112 10.107,26.817 13.423,97.294 7.203,153.051 -3.596,32.254 -4.609,35.797 -12.043,42.22 -4.466,3.855 -14.441,12.496 -22.171,19.2 -25.542,22.159 -66.6,39.633 -123.292,52.472 -48.313,10.941 -119.363,11.89 -160.462,2.145 z m 80.563,-10.616 c 11.649,-0.377 15.013,-1.762 15.492,-6.376 0.339,-3.242 2.749,-5.672 5.357,-5.4 2.609,0.272 4.509,2.742 4.223,5.488 -0.413,3.961 1.652,4.776 9.975,3.946 27.116,-2.706 44.7,-7.21 45.153,-11.57 0.643,-6.163 9.477,-8.266 14.245,-3.391 2.833,2.897 8.209,2.561 20.883,-1.301 13.524,-4.125 16.814,-6.428 15.851,-11.101 -1.552,-7.511 7.581,-10.329 13.585,-4.192 6.27,6.414 32.525,-8.685 33.751,-19.412 0.703,-6.151 2.503,-7.305 10.154,-6.506 7.265,0.755 11.556,-1.615 19.622,-10.844 10.03,-11.475 10.4,-12.798 13.032,-46.585 l 2.706,-34.774 -6.595,10.882 c -8.258,13.628 -29.766,36.803 -43.888,47.291 -79.561,59.097 -211.946,58.816 -344.563,-0.73 -4.895,-2.198 -5.079,-1.221 -2.516,13.454 1.522,8.705 3.136,21.377 3.589,28.163 0.734,11.046 2.458,13.299 16.448,21.522 27.602,16.222 108.947,32.88 153.496,31.436 z m -66.651,-16.175 c -1.924,-2.878 -2.556,-5.999 -1.404,-6.933 3.574,-2.899 11.487,2.808 10.955,7.906 -0.644,6.194 -5.064,5.743 -9.551,-0.963 z m -58.997,-11.954 c -3.653,-5.47 -0.72,-8.572 7.31,-7.735 3.691,0.384 5.557,2.904 5.138,6.929 -0.751,7.21 -7.863,7.67 -12.448,0.806 z m 109.962,4.024 c -3.193,-3.934 -1.238,-10.786 2.935,-10.3 2.172,0.258 5.936,2.084 8.366,4.068 3.929,3.207 3.855,3.898 -0.649,6.227 -6.027,3.117 -8.13,3.117 -10.652,0 z m -139.121,-27.275 c -6.824,-3.591 -3.362,-11.53 4.199,-9.642 3.855,0.966 6.799,3.767 6.542,6.232 -0.52,5 -5.012,6.424 -10.741,3.41 z m 86.032,6.425 c -0.792,-2.942 -0.685,-5.96 0.238,-6.709 2.957,-2.398 11.964,3.72 10.438,7.088 -2.494,5.501 -9.16,5.262 -10.676,-0.379 z m -43.224,-5.097 c -3.891,-4.795 -0.939,-11.27 4.402,-9.654 2.982,0.904 5.214,3.639 4.961,6.08 -0.522,4.99 -6.394,7.234 -9.363,3.574 z m 153.944,11.213 c 2.153,-4.752 9.317,-4.876 9.077,-0.167 -0.1,1.75 -2.587,3.424 -5.551,3.724 -3.369,0.339 -4.69,-0.997 -3.526,-3.564 z m 61.145,-10.715 c 0.274,-2.634 3.305,-4.449 6.817,-4.084 3.514,0.367 6.106,2.766 5.832,5.403 -0.277,2.634 -3.305,4.449 -6.819,4.084 -3.512,-0.367 -6.104,-2.768 -5.83,-5.403 z m 61.482,-24.238 c -2.711,-5.612 5.247,-10.893 9.155,-6.077 3.269,4.027 0.284,10.536 -4.601,10.026 -1.533,-0.167 -3.584,-1.936 -4.554,-3.949 z m 37.885,-24.54 c -2.427,-5.029 2.131,-9.365 9.079,-8.643 7.36,0.768 7.374,8.869 0.02,10.846 -6.821,1.836 -7.191,1.745 -9.098,-2.203 z m -388.426,16.279 c -2.629,-22.946 -10.984,-44.89 -15.65,-41.106 -1.559,1.268 8.736,55.664 12.303,64.993 4.814,12.591 6.306,1.932 3.347,-23.887 z m 233.884,10.567 c 69.33,-5.815 123.266,-33.863 154.69,-80.446 12.076,-17.9 16.334,-30.98 10.292,-31.61 -5.324,-0.553 -54.932,5.582 -152.145,18.821 -50.82,6.919 -98.909,12.942 -106.865,13.381 -7.957,0.436 -18.209,2.195 -22.782,3.905 -4.572,1.709 -16.219,3.064 -25.882,3.011 -9.664,-0.05 -27.898,2.403 -40.52,5.458 -48.082,11.639 -47.82,11.337 -23.399,27.087 16.888,10.891 47.262,22.232 76.722,28.648 37.994,8.271 102.144,14.072 129.889,11.745 z m -108.265,-20.509 c -4.987,-4.695 -5.08,-5.796 -0.684,-8.171 8.028,-4.339 17.648,-0.658 16.904,6.469 -0.825,7.937 -8.714,8.766 -16.22,1.702 z m 65.364,5.331 c -5.549,-4.377 -0.689,-13.13 6.852,-12.343 7.202,0.749 13.695,9.368 10.335,13.721 -2.897,3.75 -11.573,3.057 -17.187,-1.378 z m -117.632,-23.215 c -5.658,-5.117 -3.16,-12.014 4.077,-11.261 5.178,0.542 8.254,10.522 4.243,13.774 -1.607,1.304 -5.35,0.167 -8.32,-2.513 z m 201.203,23.139 c -5.834,-3.093 -3.577,-11.042 2.944,-10.362 7.46,0.777 9.73,3.7 7.019,9.034 -2.26,4.451 -3.705,4.644 -9.963,1.328 z m -241.406,-31.467 c -2.644,-3.257 1.392,-7.398 6.676,-6.848 2.506,0.26 4.332,2.609 4.06,5.217 -0.496,4.761 -7.35,5.803 -10.736,1.631 z m 204.734,10.86 c -5.719,-4.516 -0.584,-13.12 7.339,-12.295 7.923,0.827 11.177,10.304 4.649,13.544 -2.587,1.283 -5.417,2.261 -6.285,2.17 -0.87,-0.1 -3.435,-1.631 -5.703,-3.419 z m -120.858,-18.079 c -4.451,-5.487 -0.703,-10.839 7.029,-10.033 6.025,0.627 7.713,2.246 6.504,6.235 -1.707,5.641 -10.123,8.001 -13.533,3.798 z m 58.404,-9.163 c -1.621,-6.027 1.314,-8.166 9.973,-7.265 6.84,0.713 11.64,8.235 7.432,11.65 -4.011,3.252 -16.177,0.19 -17.405,-4.385 z m 127.19,6.011 c -3.593,-4.425 -1.316,-7.594 4.983,-6.938 3.515,0.367 6.104,2.765 5.83,5.402 -0.501,4.814 -7.363,5.789 -10.813,1.536 z m -65.739,-13.24 c -3.593,-4.425 -1.317,-7.594 4.983,-6.938 3.514,0.365 6.103,2.766 5.829,5.4 -0.501,4.814 -7.363,5.789 -10.812,1.538 z m 37.87,-5.248 c -0.748,-2.791 -0.45,-5.815 0.663,-6.718 3.522,-2.859 11.416,2.911 10.889,7.958 -0.656,6.311 -9.785,5.331 -11.552,-1.242 z m 49.246,-9.393 c -0.973,-2.013 -0.398,-4.771 1.273,-6.128 4.13,-3.35 11.793,2.952 8.607,7.077 -3.226,4.182 -7.608,3.76 -9.882,-0.949 z m 49.851,6.33 c -5.135,-2.413 -3.743,-12.93 1.915,-14.451 5.066,-1.364 11.096,4.604 10.493,10.386 -0.463,4.451 -7.017,6.599 -12.408,4.065 z m -339.62,0.291 c 23.112,-4.442 23.916,-4.881 14.574,-7.952 -11.799,-3.881 -19.708,-13.628 -17.357,-21.393 0.935,-3.085 6.552,-8.002 12.482,-10.922 20.103,-9.907 12.7,-14.079 -20.457,-11.535 -13.194,1.013 -29.411,2.112 -36.04,2.441 -9.06,0.453 -12.202,2.099 -12.674,6.633 -0.763,7.305 3.145,20.206 11.263,37.18 6.809,14.24 4.411,13.964 48.209,5.548 z m 43.511,-18.838 c 0.36,-3.45 -10.442,-7.751 -22.862,-9.103 -10.8,-1.175 -8.106,4.189 3.836,7.642 13.619,3.933 18.728,4.327 19.026,1.461 z m 93.833,-2.327 c 5.098,-1.957 8.555,-5.033 7.685,-6.835 -0.871,-1.803 -2.599,-2.926 -3.841,-2.494 -15.662,5.445 -27.292,10.998 -27.516,13.141 -0.318,3.055 10.223,1.357 23.672,-3.812 z m -76.054,-14.935 c 1.059,-10.178 -17.788,-54.939 -23.892,-56.739 -5.862,-1.729 -18.737,5.736 -19.305,11.191 -0.348,3.341 36.379,49.661 40.255,50.772 1.281,0.37 2.604,-1.981 2.942,-5.224 z m 188.62,3.469 c 50.593,-6.904 98.518,-13.098 106.498,-13.761 14.334,-1.195 14.536,-1.374 16.937,-14.894 2.94,-16.556 -1.178,-32.359 -8.633,-33.136 -2.997,-0.312 -29.543,4.213 -58.988,10.054 -52.45,10.405 -126.458,21.73 -136.021,20.812 -2.654,-0.253 -8.936,4.485 -13.962,10.531 -12.405,14.927 -12.322,14.641 -5.219,17.738 3.483,1.519 5.998,5.463 5.646,8.851 -0.351,3.359 -0.1,6.165 0.558,6.234 0.655,0.07 42.589,-5.524 93.184,-12.429 z m -154.451,-25.589 c 4.766,-11.487 9.279,-26.78 10.03,-33.985 1.135,-10.91 0.327,-13.204 -4.85,-13.742 -3.416,-0.356 -7.972,1.95 -10.123,5.128 -5.038,7.439 -11.456,67.22 -6.986,65.063 1.796,-0.868 7.163,-10.975 11.929,-22.464 z m 46.859,-8.223 c 6.893,-9.416 6.895,-9.463 0.191,-6.724 -7.704,3.145 -32.059,25.444 -32.509,29.765 -0.527,5.061 25.151,-13.24 32.327,-23.041 z m -161.778,1.878 c 19.674,-0.956 23.208,-2.007 21.837,-6.49 -4.707,-15.404 -3.219,-20.039 9.57,-29.809 10.681,-8.159 15.166,-9.547 26.891,-8.326 13.238,1.381 14.52,2.37 21.625,16.656 l 7.551,15.188 5.093,-13.934 c 2.801,-7.663 8.206,-16.456 12.009,-19.543 15.218,-12.346 38.128,1.576 36.013,21.885 l -1.089,10.45 14.975,-8.381 c 18.439,-10.319 30.601,-7.796 31.955,6.631 l 0.856,9.131 26.584,-4.997 c 14.618,-2.749 36.836,-6.795 49.37,-8.993 24.617,-4.318 104.638,-19.711 112.272,-21.597 8.91,-2.2 -18.72,-31.788 -44.348,-47.493 -34.745,-21.286 -50.302,-25.771 -99.398,-28.651 -82.832,-4.861 -153.524,8.509 -198.776,37.599 -39.44,25.351 -60.678,48.392 -68.062,73.839 -2.809,9.68 -2.496,10.352 4.284,9.208 4.023,-0.678 17.877,-1.746 30.788,-2.373 z m -11.74,-20.06 c -1.021,-2.115 -0.215,-5.177 1.793,-6.807 4.692,-3.806 14.212,0.932 11.945,5.944 -2.311,5.102 -11.416,5.674 -13.738,0.863 z m 227.503,-9.976 c -0.763,-2.832 0.406,-6.604 2.594,-8.38 4.914,-3.987 14.508,6.203 10.605,11.263 -3.688,4.778 -11.606,3.049 -13.199,-2.883 z m -192.024,-24.858 c -2.293,-4.754 4.435,-10.211 8.612,-6.988 1.769,1.366 3.004,4.533 2.742,7.038 -0.553,5.324 -8.776,5.286 -11.354,-0.05 z m 143.48,-10.347 c 0.541,-5.205 2.319,-6.359 7.712,-5.012 3.856,0.963 6.788,3.887 6.516,6.495 -0.271,2.608 -3.743,4.864 -7.715,5.011 -5.555,0.215 -7.057,-1.287 -6.513,-6.494 z m -101.015,-12.117 c -2.539,-3.805 -2.532,-6.342 0.02,-8.421 4.666,-3.786 17.348,4.173 14.98,9.399 -2.537,5.605 -10.977,5.054 -15.008,-0.978 z m 266.7,27.64 c -0.751,-2.789 -0.453,-5.812 0.661,-6.718 3.524,-2.857 11.415,2.911 10.891,7.961 -0.658,6.311 -9.787,5.328 -11.554,-1.243 z m -218.832,-25.699 c -3.829,-5.729 -1.805,-15.237 3.495,-16.408 6.202,-1.371 17.264,12.112 14.463,17.629 -3.154,6.201 -13.468,5.503 -17.958,-1.221 z m 163.826,15.381 c -4.978,-5.017 -5.653,-7.523 -2.682,-9.978 6.347,-5.246 18.671,-0.563 18.964,7.205 0.358,9.405 -8.242,10.869 -16.282,2.773 z m -45.777,-6.953 c -5.016,-2.658 -4.069,-9.98 1.486,-11.473 6.59,-1.771 12.474,4.096 9.661,9.635 -2.537,4.99 -4.566,5.326 -11.147,1.838 z m -64.953,-28.644 c -3.049,-4.565 -2.796,-6.17 1.534,-9.682 7.057,-5.724 16.162,-0.725 14.042,7.708 -2.055,8.18 -10.697,9.277 -15.576,1.974 z m 145.366,15.03 c -2.695,-4.031 -2.568,-6.086 0.527,-8.597 4.994,-4.053 14.653,6.058 10.69,11.194 -3.457,4.477 -7.047,3.648 -11.217,-2.597 z m -67.543,-25.544 c 0.618,-5.946 3.906,-7.961 8.87,-5.438 6.456,3.28 4.203,11.062 -2.985,10.314 -3.479,-0.363 -6.128,-2.556 -5.885,-4.876 z" fill="#00B894" transform="translate(248.67531,-143.2802) matrix(0.26458333,0,0,0.26458333,-8392.1452,-6444.173)"/>
</svg>