<?xml version="1.0" ?><svg height="76.798523mm" viewBox="0 0 45.37442 76.798523" width="45.37442mm" xmlns="http://www.w3.org/2000/svg">
    <path color="#000" d="m 7952.0459,2316.113 c 6.3973,112.0159 92.1175,108.4806 98.5226,0.291 z m 48.5247,144.592 c -8.1435,15.898 -30.9218,32.0525 -48.3629,39.7915 l -5.2402,76.1257 c 15.7724,14.535 118.1323,0.8269 118.1323,0.8269 l 2.7002,-75.7378 c -4.0382,5.3114 -54.447,-40.3281 -67.2294,-41.0063 z" fill="#FFFFFF" overflow="visible" paint-order="fill markers stroke" transform="translate(96.355333,-35.26883) matrix(0.26458333,0,0,0.26458333,-2189.5972,-572.76758)"/>
    <path d="m 7962.1671,2586.0996 c -19.9521,-1.0501 -21.429,-5.471 -22.1493,-32.812 2.3347,-13.2493 -3.2168,-50.3502 3.1901,-55.5744 4.4234,-3.607 14.994,-6.1748 19.9983,-6.7182 -0.4189,-3.553 0.3462,-4.794 3.052,-4.9504 3.6945,-0.2133 5.6127,-1.8195 11.1907,-9.3701 6.5696,-8.8928 7.5592,-11.486 5.3329,-13.9757 -1.8772,-2.0993 -2.4074,-3.9676 -2.1689,-7.6417 0.1017,-1.5617 0.979,-2.0647 3.3316,-1.9095 5.9735,0.3939 7.0649,-0.033 8.1121,-3.1752 0.9502,-2.8503 0.4236,-3.7494 -5.7105,-9.7516 -5.4021,-5.286 -6.7571,-7.3446 -6.7571,-10.2657 0,-4.3834 3.275,-8.2229 8.4376,-9.8916 3.4509,-1.1155 3.7864,-1.6619 4.1101,-6.6921 0.3889,-6.0428 -0.9631,-9.5149 -4.4261,-11.3684 -2.1426,-1.1467 -2.2369,-0.9166 -1.5816,3.864 2.8379,18.2916 -25.1119,14.6788 -32.674,11.7451 -7.6948,-3.215 -4.287,-9.4554 4.4479,-8.1454 5.2277,0.7838 11.2329,-0.7047 11.2329,-2.7844 0,-0.6547 -1.2231,-1.1903 -2.7181,-1.1903 -4.0791,0 -21.9752,-6.2446 -27.9788,-9.763 -7.0872,-4.1534 -20.7774,-17.8146 -23.8106,-23.76 -3.9147,-7.6735 -4.1843,-14.2985 -0.871,-21.4038 5.5953,-11.9994 13.511,-17.0621 26.7009,-17.0774 3.072,0 5.3039,-0.462 4.9599,-1.0186 -0.3441,-0.5567 -0.9092,-5.9374 -1.2561,-11.9571 -3.9181,-17.3902 40.4634,-22.425 48.7839,-22.4217 18.5978,0.7467 66.5693,0.9678 64.9568,21.4534 1.8657,22.5098 1.5748,21.119 9.6367,22.2846 4.3908,0.6348 9.1074,4.332 11.8152,7.3731 2.8974,3.3001 3.6047,5.138 3.6047,9.3681 0,7.3626 -2.114,10.9248 -11.596,19.5413 -2.8642,2.6031 -6.9671,6.4312 -9.1174,8.5074 -2.1504,2.0761 -4.1128,3.7747 -4.361,3.7747 -4.1564,3.6534 -14.516,9.445 -15.878,14.3784 -0.3415,1.4138 0.2088,3.8276 1.0332,4.5119 4.631,5.1183 12.272,2.73 14.2435,1.5116 1.976,-1.2212 1.5303,-2.6449 -1.038,-3.3165 -1.2776,-0.334 -2.3149,-1.0483 -2.3052,-1.5873 0.048,-2.6224 2.4377,-4.0086 8.0596,-4.6745 5.5782,-0.6605 6.363,-0.4657 8.3073,2.0633 3.3765,4.3918 2.8052,9.2998 -1.5759,13.5401 -10.5524,10.2131 -28.0215,9.4959 -36.4042,-1.4945 -4.5614,-5.9803 -6.3457,-11.9371 -1.4367,-19.0629 4.1051,-5.9585 5.7818,-6.4857 1.4434,-1.8044 -2.486,2.8361 -6.1367,4.4711 -8.6628,6.2934 -4.4556,3.2274 -12.1126,5.4918 -16.4974,4.8787 -1.4358,-0.2008 -2.0273,0.5045 -2.0148,2.4019 0.025,3.8721 1.0162,4.8791 7.7714,7.8999 4.7669,2.1317 6.3989,3.587 7.7105,6.8749 2.8585,7.1672 0.9244,12.6815 -6.3497,18.1032 -3.8948,2.9028 -4.5484,3.959 -3.9536,6.388 0.3919,1.6006 0.6709,5.0299 0.62,7.6205 -0.089,4.5376 0.1141,4.8036 5.5472,7.2591 3.1019,1.4018 6.0028,2.5489 6.4467,2.5489 0.4437,0 5.6561,2.3434 11.5832,5.2075 5.9271,2.8641 12.4881,7.2919 14.5802,7.7104 4.1487,0.8297 7.5812,4.8824 6.5068,7.6824 3.399,4.225 10.0496,6.6049 14.2379,9.0612 6.5869,3.6577 6.697,1.1162 6.8323,22.6043 0.1682,26.7016 -1.4567,57.995 -4.4132,64.0658 -2.1893,4.496 -2.6459,4.8066 -6.5795,4.476 -2.3247,-0.1953 -5.0833,-0.7042 -6.13,-1.1309 -1.0467,-0.4268 -3.4857,-0.1476 -7.5495,0.6205 -31.026,5.9232 -63.4987,2.4044 -89.8525,1.0757 z m 88.8519,-16.9096 c 8.037,-1.485 6.0828,-1.2774 7.3698,-8.9247 2.3446,-19.095 0.4278,-33.5088 -0.4993,-52.6689 -31.6577,5.9494 -64.5703,6.9271 -101.515,2.2093 -2.65,16.9255 -2.0833,24.9046 -1.2394,47.1174 0.3327,5.9918 1.1653,11.5693 1.8503,12.3945 28.4414,6.4112 71.3161,4.2599 94.0336,-0.1276 z m -37.3245,-78.3638 c 19.61,-2.4343 26.4845,-4.4717 19.0464,-7.5288 -2.5085,-1.031 -13.0462,-7.0039 -15.8424,-8.2234 -2.7961,-1.2194 -5.2372,-2.2171 -5.4246,-2.2171 -0.1875,0 -0.6757,1.5249 -1.0851,3.3889 -1.5692,7.1444 -9.2237,11.4045 -13.5144,7.5214 -1.2025,-1.0882 -2.1864,-2.6816 -2.1864,-3.5408 0,-2.6311 -1.6272,-1.7363 -4.0369,2.2199 -1.262,2.0721 -2.5038,4.2262 -2.7595,4.7871 -0.4639,1.0172 9.1692,5.6579 25.8029,3.5928 z m -44.5587,-99.2694 c 0,-0.6374 -2.0388,-3.3236 -4.5309,-5.9693 -7.1188,-7.5576 -14.7499,-24.1177 -15.982,-34.6825 -0.7191,-6.1649 -1.641,-6.9292 -8.3866,-6.9527 -15.2044,-0.053 -21.6828,16.2458 -11.1707,28.1039 10.0501,8.9153 24.4929,19.8252 36.8762,20.5015 1.7567,0.087 3.194,-0.3633 3.194,-1.0009 z m 66.4696,-26.1352 c 4.9801,-9.887 8.1995,-21.9664 8.3211,-31.2217 0.1151,-8.7766 -0.036,-9.4117 -2.1991,-9.1724 -28.8897,4.8579 -47.8043,5.2819 -82.15,0.8511 l 0.7372,6.9955 c 0.8113,7.6956 5.3076,25.5851 8.0347,31.9668 0.9554,2.2358 2.7408,5.3718 3.9677,6.9687 22.1711,30.6414 45.7726,25.1808 63.2884,-6.388 z m 32.2549,-6.5717 c 0,-2.164 -0.9258,-3.1689 -3.9154,-4.2499 -4.9184,-1.7786 -7.276,-0.9039 -8.2629,3.0656 -1.4985,6.0272 -7.7706,17.7556 -13.4757,25.199 -3.5827,4.6744 -3.0614,4.3942 -4.8001,6.4667 7.6909,-7.06 29.7662,-19.7316 30.4541,-30.4814 z" fill="#00B894" transform="translate(96.355333,-35.26883) matrix(0.26458333,0,0,0.26458333,-2189.5972,-572.76758)"/>
</svg>