<?xml version="1.0" ?><svg height="170.67851mm" viewBox="0 0 120.7517 170.67851" width="120.7517mm" xmlns="http://www.w3.org/2000/svg">
    <path color="#000" d="m 7568.9826,2248.3513 c -140.8886,0.051 -105.0218,65.2557 -105.0218,65.2557 -173.1733,-18.5888 -63.3669,162.3672 0.7095,172.5505 -43.6426,36.8624 8.8948,83.541 38.5002,16.5066 15.7092,17.4852 34.4166,38.8988 67.2803,40.7527 -8.3437,22.0105 -3.9037,37.4848 18.259,48.836 -22.9432,15.2364 -23.0689,23.8075 -4.5596,29.767 -51.9266,23.0381 49.5195,31.2892 -44.6965,65.5806 -60.183,4.6339 -42.4408,36.6103 -45.7718,61.1929 l -3.5303,128.0378 225.5292,-2.6014 -3.554,-115.9189 c -3.6469,-31.2151 5.767,-72.2527 -75.5746,-73.1551 -61.9259,-16.5582 18.2136,-42.0873 -24.2088,-67.8862 28.1747,-3.4574 8.6534,-14.853 -0.4116,-27.9567 8.2216,-13.9401 10.6187,-29.5385 -2.644,-49.5948 28.4665,-4.5016 52.0765,-18.5912 72.621,-38.7383 -16.4943,72.0253 85.827,44.3927 29.7432,-11.9708 96.0467,-49.8884 160.981,-226.0543 4.296,-168.9333 0,0 8.7588,-69.5948 -140.1209,-71.6767 -2.3262,-0.033 -4.6083,-0.049 -6.8445,-0.048 z M 7440.0617,2331 c 7.734,0.1525 16.0661,2.8983 24.2241,8.7416 l 24.4555,136.2179 C 7373.9805,2404.9708 7398.2988,2330.1763 7440.0617,2331 Z m 319.5278,5.9411 c 29.1418,-0.7548 48.3668,43.6638 -70.4142,147.1968 23.2605,-24.5407 37.8401,-123.131 37.8401,-123.131 6.1987,-15.3758 20.27,-23.747 32.5741,-24.0658 z" fill="#FFFFFF" overflow="visible" paint-order="fill markers stroke" transform="translate(159.26367,174.27191) matrix(0.26458333,0,0,0.26458333,-2106.7005,-767.18508)"/>
    <path d="m 7505.6023,2884.4159 c -17.9295,-2.9524 -18.5611,-3.1424 -21.2215,-6.3824 -5.4038,-6.5811 -4.6021,-12.7001 1.6082,-12.2753 l 3.3528,0.2293 -2.9036,-1.2344 c -5.5856,-2.3747 -2.3402,-7.5872 -2.0671,-31.7451 0.4439,-39.2561 3.9769,-78.7732 -2.5639,-108.0161 10.6798,-31.3182 15.7367,-43.9319 49.7532,-43.7899 2.852,0.9942 4.337,0.7994 7.9392,-1.0415 7.8581,-4.697 38.2412,-11.1735 38.6942,-20.1766 0,-1.9976 -1.6765,-3.8246 -6.3643,-6.9362 -7.4017,-4.9129 -12.4645,-11.041 -12.9751,-15.7051 -0.2815,-2.571 0.4556,-3.8945 3.3921,-6.0898 2.0636,-1.5428 5.4332,-3.4824 7.4882,-4.3105 6.6288,-2.6712 6.6804,-3.9961 0.3158,-8.1202 -5.2335,-3.3913 -5.7943,-4.1711 -5.7943,-8.0586 0,-5.0658 3.8495,-9.8634 12.1264,-15.1124 l 5.3579,-3.3978 -3.2253,-1.1793 c -4.3122,-1.5767 -12.3415,-9.6658 -14.9381,-15.0495 -3.2107,-6.657 -3.4961,-17.1847 -0.6374,-23.5058 2.7793,-6.1453 2.6817,-6.2306 -8.6579,-7.5696 -3.7768,-0.446 -8.0244,-1.5393 -9.4389,-2.4297 -1.4147,-0.8905 -5.0475,-2.4596 -8.073,-3.4866 -6.4786,-2.1997 -21.9554,-13.5688 -29.5635,-21.7175 l -5.3649,-5.7459 -0.8299,6.6423 c -1.4311,11.4543 -7.4252,18.9642 -19.0722,23.8955 -1.516,0.6418 -7.0039,1.0977 -12.1953,1.0131 -10.123,-0.1651 -17.5856,-2.8257 -24.2935,-8.6611 -18.6944,-12.8559 -6.9468,-39.9355 12.5226,-43.5022 3.6923,0 1.4333,-1.8514 -5.5249,-4.5281 -3.9833,-1.5322 -9.3328,-4.1281 -11.888,-5.7688 -2.5551,-1.6405 -4.9694,-3.0003 -5.3648,-3.0213 -0.3953,-0.021 -2.2246,-1.1738 -4.0651,-2.5613 -1.8404,-1.3875 -6.5624,-4.9219 -10.4933,-7.8542 -11.6048,-8.6566 -32.7014,-30.8639 -38.6908,-40.7275 -1.5515,-2.5552 -3.1155,-4.9072 -3.4757,-5.2267 -1.7161,-1.5221 -14.0321,-28.1093 -15.8718,-34.263 -3.1073,-10.3948 -2.9097,-26.93 0.4374,-36.5862 1.4393,-4.1522 3.653,-9.1175 4.9194,-11.034 1.2665,-1.9163 2.9635,-4.4878 3.7714,-5.7144 17.6776,-28.0077 47.73,-34.7732 71.6458,-28.7281 5.3796,1.3702 10.02,2.2523 10.3118,1.9606 0.2919,-0.292 -0.9239,-2.9333 -0.904,-6.0921 0.097,-15.4218 -5.9149,-29.3764 7.3811,-30.6908 0.1734,-0.2326 1.5086,-2.1504 2.9673,-4.2619 2.8536,-4.1302 8.3769,-9.1535 15.1789,-10.5775 55.7569,-11.672 109.2949,-19.4612 159.1458,-10.381 19.9886,3.7432 38.7352,8.6362 57.0496,18.29 26.079,9.4935 22.9365,22.2886 25.5654,37.517 0.9273,6.058 1.8978,9.061 2.9282,9.061 6.9412,-3.8744 15.4755,-6.8873 23.1947,-8.5299 6.4972,-1.3311 18.5602,-0.9405 28.2893,0.916 21.5,7.0853 33.2082,15.408 39.6644,34.4149 5.483,16.3362 1.9924,47.8141 -6.7505,60.874 -2.1323,3.1856 -3.8772,6.2158 -3.8772,6.7341 0,0.5182 -3.136,5.6382 -6.9687,11.3777 -18.5752,28.7225 -40.6333,45.1948 -67.9689,66.3808 -3.7812,3.3954 -5.1633,4.3749 -6.1736,4.3749 -0.5876,0 -1.6125,0.6557 -2.2778,1.4572 -0.906,1.0919 -0.1127,1.9907 3.1639,3.5845 9.7554,4.7451 13.8545,10.9779 13.933,21.1853 0.6278,23.0097 -15.2348,36.7421 -36.0999,37.0727 -8.2049,0 -9.24,-0.2783 -13.3567,-3.5915 -2.4545,-1.9752 -5.9474,-5.7837 -7.7621,-8.4631 -2.962,-4.3736 -3.3183,-5.9305 -3.4843,-15.2249 l -0.1851,-10.353 -5.8074,5.6132 c -11.4637,11.0808 -27.5812,19.8012 -37.7476,20.4234 -4.1607,0.2545 -17.4218,2.9863 -17.4218,3.589 0,0.184 1.3468,2.8447 2.9927,5.9129 8.5781,15.9889 8.3259,29.9583 -0.688,38.1159 -3.318,3.0024 -2.847,5.8353 1.47,8.8444 7.0312,4.9008 12.4857,11.0656 12.4857,14.1113 0,3.0977 -6.8339,10.1295 -9.8442,10.1295 -3.4999,0 -2.8948,2.4569 1.0065,4.0869 6.815,2.8475 12.3221,8.4105 12.3221,12.4472 0,3.5473 -3.3041,9.9591 -7.3405,14.2446 -7.8276,8.3105 -10.5018,15.996 -7.2783,20.9161 2.7305,4.1669 10.3802,8.8452 16.9417,7.7498 56.9385,-3.1323 58.6783,8.1282 78.9451,47.9797 7.7606,13.527 4.3633,38.9232 5.3088,48.7925 1.457,13.4838 1.9525,19.1247 3.4178,38.909 0.3076,13.4377 2.696,27.5127 4.0938,40.2141 0.6174,5.6703 -3.7864,15.4285 -3.398,17.4262 -0.623,4.8695 0.1785,14.5748 -18.3313,14.5316 -2.7469,-0.371 -7.0848,-0.9588 -9.6401,-1.3062 -63.6693,-5.0624 -106.5515,4.0026 -192.2221,-0.2936 z m 202.1621,-19.007 c 7.2404,-0.2399 3.911,-15.6992 3.4338,-21.0768 -0.4192,-4.9506 -1.2665,-20.1513 -1.883,-25.2618 -1.3821,-11.4582 -2.0443,-19.8861 -2.722,-34.6467 -2.5445,-12.2894 1.9267,-42.6245 -4.9391,-46.8565 0,0 -23.9755,-1.0903 -32.2854,0.3036 -51.53,1.4199 -103.1944,4.9482 -162.605,4.0279 -3.8328,-0.4951 -7.1609,-0.7379 -7.3957,-0.5397 -0.2891,41.2671 -0.6933,76.8946 -3.3964,118.1651 -0.1415,2.7012 -2.3751,5.4241 -4.4491,5.4241 -2.8046,0 -1.7179,2.0417 1.5193,2.854 1.7155,0.4306 6.5251,1.0287 10.6881,1.3291 4.1631,0.3001 7.6802,0.6578 7.8159,0.7947 22.718,6.6942 184.8119,-1.7851 196.2186,-4.517 z m -161.7499,-5.765 c -0.295,-0.479 -2.0025,-0.871 -3.794,-0.871 -3.2063,0 -9.2405,-4.7064 -9.5102,-7.4175 -0.071,-0.7114 -0.3246,-18.2798 -0.5639,-39.041 1.1648,-58.4316 10.7622,-42.4244 11.1457,-49.2937 0,-0.9205 0.5824,-2.0336 1.294,-2.4734 1.3487,-0.8334 16.4659,-2.071 22.5159,-1.8431 3.4533,0.13 32.679,0.2033 51.6852,-1.2092 23.8853,-1.7752 36.8193,3.1482 45.5963,11.0214 3.3538,3.0083 6.0957,6.4344 6.0933,7.6135 0,1.179 0.7304,3.5311 1.6287,5.2266 3.9066,7.3742 2.79,25.3555 5.9513,48.9023 2.2889,13.9406 6.2104,11.5992 0.124,21.5454 -1.8726,3.05 -2.7687,3.4698 -7.1891,3.3669 -2.7775,-0.064 -5.2502,-0.7178 -5.4947,-1.4518 -0.5368,-1.6102 -10.4541,-1.772 -16.377,-0.2675 -22.9708,3.888 -29.6935,2.445 -103.1055,6.1921 z m 17.6031,-15.3346 c 32.7866,-1.7845 70.8307,0.7134 93.3636,-5.725 l 5.0923,-0.137 -0.7212,-7.8398 c -1.8609,-20.2234 1.7033,-29.079 -3.0674,-44.1809 -4.1262,-13.0616 -10.0863,-15.2789 -24.6798,-14.3414 -22.0783,1.4186 -49.048,-0.1793 -53.7269,0.2738 -4.9752,0.4819 -11.6053,0.4776 -24.042,-0.015 l -7.7812,-0.3086 0.4975,4.7505 c 0.5632,5.3777 0.7054,52.6228 0.1866,61.9893 -0.1869,3.3741 -0.1633,6.3114 0.052,6.5273 0.4622,0.4622 8.239,-0.058 14.826,-0.9928 z m -5.3717,-16.7324 c -1.038,-1.2078 -2.4805,-2.3937 -3.2055,-2.6353 -2.3103,-0.7702 -2.5002,-5.5533 -0.2681,-6.7479 1.1293,-0.6044 14.296,-1.6783 29.2593,-2.3864 14.9633,-0.7082 27.9719,0.1929 28.9079,-0.1268 0.936,-0.3198 6.1436,-0.8532 11.5724,-1.1853 5.4289,-0.3323 10.1511,1.0738 10.4937,0.9955 0.3424,-0.079 4.0993,0.256 8.3482,0.7435 6.0418,0.6933 7.8458,1.3471 8.2783,3.0006 0.304,1.1628 0.225,2.6361 -0.1759,3.274 -0.7714,1.2276 -27.317,4.8319 -39.0164,6.116 -3.8104,0.4182 -7.9917,-0.7705 -9.2917,-0.5123 -1.2999,0.2581 -11.5101,0.7373 -22.6892,1.0648 -18.9104,0.5542 -20.457,0.4428 -22.213,-1.6004 z m 7.5624,-28.3695 c -3.7502,-3.4368 -4.0853,-4.1829 -2.8856,-6.4246 0.8318,-1.5542 2.4659,-2.5361 4.2202,-2.5361 1.5746,0 2.8661,-0.3921 2.87,-0.8712 0.014,-1.7261 56.7892,0.7863 63.0022,2.4057 3.8486,1.0033 4.2105,4.1543 0.8284,7.215 -2.5631,2.3194 -3.0015,0.6658 -16.7712,1.6397 -5.0955,0.3602 -10.0608,0.8766 -11.034,1.1474 -1.985,0.5523 -12.1378,-0.2582 -26.4276,0.6829 l -9.5594,0.6296 z m -38.0791,-72.3778 c -0.4273,-0.6915 -1.2974,-1.257 -1.9335,-1.257 -2.3137,0 -11.013,-4.5248 -13.0705,-6.7984 l -2.1112,-2.3329 -4.2481,2.3419 c -2.3363,1.2882 -5.2598,3.3234 -6.4963,4.5233 -2.2212,2.1551 -2.2176,2.1927 0.3148,3.1294 4.135,1.5297 28.4617,1.8773 27.5448,0.3937 z m 55.1104,-7.1285 c 7.3463,-0.6539 14.6635,-1.3665 16.2605,-1.5836 1.597,-0.2171 7.7929,-0.7789 13.7685,-1.2485 15.2661,-1.1999 19.4467,-2.7631 5.9764,-2.2347 -6.0688,0.2379 -19.1351,0.7393 -29.0367,1.1141 -9.9014,0.3748 -19.832,0.9061 -22.0677,1.181 -2.2359,0.2746 -9.9567,0.5779 -17.1575,0.6739 -7.2008,0.096 -12.9161,0.3507 -12.7006,0.5661 0.2153,0.2153 3.2322,0.8628 6.7042,1.4388 8.7908,1.4579 22.5401,1.4914 38.2529,0.093 z m 107.6152,-0.5666 c 0.3783,-0.9858 0.3845,-2.0957 0.015,-2.4666 -0.6928,-0.6927 -1.5714,-0.3529 -6.5816,2.5449 l -2.9037,1.6796 4.392,0.018 c 2.8987,0.01 4.6256,-0.5922 5.0796,-1.7753 z m -113.4226,-20.7592 c 7.645,-0.5996 29.0847,-1.6937 39.1995,-2.0004 l 7.2591,-0.2201 v -3.8201 c 0,-3.2124 -0.6364,-4.1219 -4.0019,-5.7191 -3.416,-1.6209 -7.9594,-6.0467 -16.414,-15.9888 -1.1366,-1.3366 -1.8205,-4.5966 -1.8825,-8.9745 -0.094,-6.5858 0.1399,-7.1574 5.5447,-13.5805 3.1034,-3.6879 6.8357,-7.8564 8.2943,-9.2632 1.4586,-1.4067 2.6521,-2.8396 2.6521,-3.184 0,-0.3445 -2.8509,-2.2354 -6.3356,-4.2018 -3.4845,-1.9666 -6.6557,-4.5843 -7.047,-5.8173 -0.5208,-1.6411 -1.7797,-2.2417 -4.6984,-2.2417 -4.3173,0 -5.1988,1.5175 -1.9543,3.3645 3.7512,2.1356 0.2445,5.2582 -6.8007,6.0558 -5.9565,0.6743 -14.9767,4.8118 -14.9767,6.8696 0,0.529 2.8794,2.609 6.3985,4.6224 8.6582,4.9538 12.185,9.755 12.185,16.5881 -2.4609,10.0313 -18.8111,22.5939 -29.0367,25.7977 -2.5191,1.565 -25.8069,9.9329 -27.4038,12.3743 -0.7849,1.2698 18.5843,0.9418 39.0184,-0.6609 z m 26.133,-87.2802 c 8.1939,-1.0733 13.3568,-3.0615 13.3568,-5.1435 0,-2.3453 -8.0373,-10.6575 -9.4568,-9.7802 -9.1313,0.8783 -26.4603,3.7904 -27.71,14.227 0,0.6492 0.9146,1.413 2.0325,1.6975 2.1702,0.552 14.1131,0 21.7775,-1.0008 z m 1.5095,-34.0785 c 2.8842,-2.7166 4.0606,-6.4548 4.5507,-9.0679 4.0654,-15.1788 -21.7753,-30.2198 -30.7397,-11.2651 -3.1403,6.759 -3.3451,7.9531 -2.3985,13.9893 8.7211,16.674 21.1438,13.3414 28.5875,6.3437 z m 102.1511,-43.6709 c 2.7149,-1.0943 4.9362,-2.3974 4.9362,-2.8957 0,-0.4984 -1.9414,-1.2704 -4.3143,-1.7157 -4.6123,-0.8652 -9.6066,-5.27 -9.649,-8.5102 -0.015,-1.085 -1.0272,-3.276 -2.2509,-4.8689 -2.1471,-2.7946 -2.258,-2.8149 -3.1649,-0.5806 -1.9109,4.7077 -1.0677,13.7599 1.6348,17.5485 2.8945,4.058 4.8839,4.2168 12.8081,1.0226 z m -98.8064,-6.7472 c 5.6347,-1.5951 12.0742,-3.2505 14.3099,-3.6789 34.5439,-7.6178 42.3662,-22.3091 49.767,-33.0706 11.3892,-21.7418 24.2209,-46.0018 29.6591,-67.9991 2.8833,-11.444 6.2253,-23.5389 7.1497,-34.8438 0.3991,-5.1107 0.874,-11.0121 1.0558,-13.115 0.5893,-6.8246 -1.4698,-40.2248 -2.6739,-43.3694 -0.6437,-1.6812 -1.7318,-7.0919 -2.4177,-12.0236 -1.4095,-10.1347 -2.0014,-11.6456 -3.9542,-10.0932 -1.3313,1.0583 -20.9397,4.0636 -35.6116,5.4579 -19.982,1.899 -138.8371,0.2417 -152.1517,-2.1217 -13.7988,-2.4492 -41.8677,-11.489 -42.7806,-13.7777 -0.2129,-0.534 -0.9316,-0.9708 -1.597,-0.9708 -0.7556,0 -0.9082,1.4177 -0.4063,3.7748 0.442,2.0761 1.2802,10.0466 1.8629,17.7122 3.6257,24.7344 7.2088,50.4919 11.6867,73.753 1.302,6.7074 2.8953,15.0699 3.5407,18.5834 0.6455,3.5135 1.895,9.0014 2.7767,12.1953 0.8818,3.1941 2.6463,11.3434 3.9215,18.1096 4.0316,21.3934 9.5769,38.9043 15.3338,48.4215 11.6284,19.2237 30.3749,34.0309 49.5579,39.1435 15.4998,2.0504 37.2416,1.7413 50.9713,-2.0874 z m -27.4982,-26.3748 c -0.022,-41.3441 3.6664,-82.2422 7.4383,-121.0548 -0.5417,-1.7481 -1.0206,-1.5639 -3.4551,1.3292 -3.6213,6.3457 -8.3514,12.0082 -12.0955,17.5419 -12.2347,18.1426 -15.2485,19.8102 -21.9701,12.1548 -1.9824,-2.258 -3.6046,-4.5632 -3.6046,-5.1223 0,-0.5592 2.0117,-3.5615 4.4703,-6.672 2.4587,-3.1105 8.3284,-11.3893 13.044,-18.3974 6.4168,-7.0099 10.7746,-16.1223 15.1636,-23.0344 2.6178,-9.1417 19.1739,-7.2354 19.5886,-1.997 3e-4,1.0099 1.0427,4.578 2.3162,7.9289 1.8726,4.9269 2.3534,9.2601 2.5133,22.6486 -0.6837,32.0766 -5.0347,67.4041 -5.443,93.2124 -0.2134,14.6925 -0.4239,27.8897 -0.468,29.327 -0.07,2.2617 -0.7063,2.6132 -4.7341,2.6132 -6.1669,-0.7674 -13.6389,-5.6027 -12.7639,-10.4781 z m 46.5858,-97.3037 c -4.9968,-0.5145 -14.553,-9.9122 -15.6483,-15.3883 -4.9836,-32.8187 29.6425,-43.5764 35.188,-22.4282 2.3543,2.7079 2.7683,4.3266 2.6067,10.1928 -0.2856,10.3589 -3.3762,18.6058 -8.4571,22.5657 -4.7329,3.6889 -9.583,5.4809 -13.6893,5.058 z m 6.3862,-23.5574 c 1.9639,-5.433 1.9877,-10.3594 0.05,-10.3594 -2.3349,0 -5.4325,3.9192 -6.084,7.6975 -0.3164,1.8351 -0.8498,4.2464 -1.1853,5.3587 -1.9438,6.4427 4.8303,3.9121 7.2192,-2.6968 z m -153.1066,146.7286 c 3.0223,-4.3154 3.8588,-9.3967 2.2853,-13.8802 -1.8223,-5.192 0.2433,-9.4575 5.0452,-10.4179 4.8446,-0.9689 2.4077,-2.2382 -6.3915,-3.3292 -6.8361,-0.8476 -6.8522,-0.8424 -6.0038,1.9193 2.8403,9.2454 2.12,12.9488 -3.1427,16.1576 -5.5651,3.3932 -8.5264,2.9434 -11.5729,-1.7583 -2.8475,-4.3943 -5.0012,-4.7356 -4.8546,-0.769 0.05,1.3726 -0.3765,2.4958 -0.9494,2.4958 -1.4307,0 0.1339,4.744 2.4463,7.4177 2.9023,3.3557 8.2443,5.2627 14.8826,5.3128 5.2747,0.04 6.295,-0.3493 8.2555,-3.1486 z m 240.3614,-23.2292 c -3.2223,-4.103 -8.8629,0.3691 -9.2898,7.3654 -0.2288,3.7503 0.074,4.4807 1.7424,4.2013 3.4769,-0.5824 6.6865,1.9394 6.7653,5.3154 l 0.073,3.1531 1.1517,-2.8871 c 0.779,-5.2704 2.6595,-12.8299 -0.4432,-17.1481 z m -21.1813,-4.9362 c 0.3948,-0.6388 0.1643,-1.1615 -0.5123,-1.1615 -0.6764,0 -1.23,0.5227 -1.23,1.1615 0,0.6389 0.2305,1.1614 0.5123,1.1614 0.2817,0 0.8351,-0.5225 1.23,-1.1614 z m -230.283,-22.0678 c -1.3712,-1.2776 -3.0628,-2.323 -3.759,-2.323 -1.5006,0 -24.0793,-22.6015 -34.8717,-34.9071 -8.6586,-9.8725 -15.5791,-19.1562 -17.3376,-23.258 -1.1808,-2.7545 -2.1913,-4.4959 -6.0098,-10.3563 -2.2143,-3.3987 -4.7584,-10.6491 -8.09,-23.0565 -2.5822,-9.6163 -3.1129,-25.569 -1.0848,-32.5976 5.354,-14.2312 22.7852,-23.8931 36.7597,-23.0097 7.9367,0.6302 16.5179,2.7251 18.75,4.5776 1.2713,1.0551 1.4927,0.2757 1.2071,-4.2486 -0.3205,-5.0794 -0.7066,-5.7231 -4.635,-7.729 -2.6111,-1.3331 -8.1108,-2.482 -14.0759,-2.9407 -8.8943,-0.6835 -10.5752,-0.4579 -18.3632,2.4659 -10.8427,4.0703 -16.7878,7.195 -21.9295,11.5252 -10.5979,9.7219 -17.0436,23.2532 -18.2693,36.8914 -0.8356,10.5454 1.8107,20.1821 10.4266,37.9696 5.6986,11.7652 8.8163,16.5037 17.1941,26.1329 10.2781,11.8137 16.7978,18.3121 24.3354,24.256 11.0461,8.9699 24.5897,16.5451 34.2588,20.16 8.7071,3.2411 8.4718,3.222 5.4941,0.4479 z m 243.152,-16.2606 c 4.507,0 9.7105,-4.2794 19.0658,-15.6798 11.7701,-11.0438 19.5398,-25.9791 27.799,-38.2097 3.7434,-5.4407 10.2304,-18.8199 14.2313,-29.3514 4.9427,-13.0108 2.0943,-26.5621 -6.5631,-31.2244 -2.9005,-1.5621 -5.1276,-1.8205 -10.2127,-1.1853 -11.6464,3.3886 -19.4519,10.3784 -25.013,19.5552 -2.9721,4.9476 -3.9409,8.0312 -4.3288,13.7777 -1.2149,18.0047 -2.2432,24.709 -6.3018,41.0858 -3.6108,14.5701 -10.2905,32.8319 -15.1819,41.5065 -2.0386,3.6152 -1.1986,4.834 1.5509,2.2508 1.4784,-1.3889 3.708,-2.5254 4.9543,-2.5254 z m -234.8172,-1.3687 c -0.5006,-2.1219 -0.7799,-4.55 -0.6205,-5.3958 0.1594,-0.8458 -0.2102,-2.1525 -0.8214,-2.9036 -0.6111,-0.7513 -1.6901,-5.1369 -2.3979,-9.7461 -0.7078,-4.6095 -2.0952,-11.404 -3.0834,-15.0991 -2.0239,-7.5689 -4.3065,-20.5453 -7.5152,-42.7239 -2.2809,-15.7658 -4.1144,-25.5016 -5.3591,-28.456 -0.4036,-0.9581 -0.7938,-3.0488 -0.867,-4.6457 -0.1081,-2.3506 -1.5709,-3.645 -7.6827,-6.7958 -6.8714,-3.5423 -8.2431,-3.844 -15.2707,-3.3576 -8.7427,0.6052 -13.768,3.3811 -16.8258,9.2941 -2.6472,5.119 -3.8866,17.2026 -2.6556,25.8939 3.163,17.2205 10.7443,34.1251 21.4872,47.6734 11.4732,14.225 29.5192,32.4305 33.0798,33.372 1.5586,0.412 4.1402,2.2389 5.7372,4.0593 1.5971,1.8206 3.0842,3.1703 3.3046,2.9994 0.2205,-0.1709 -0.011,-2.0467 -0.5095,-4.1685 z m 286.6589,-29.5656 c 10.134,-10.6195 9.8808,-10.334 14.3128,-16.1336 9.5297,-12.4703 17.5366,-26.7207 19.2355,-34.2345 0.5055,-2.2359 1.7235,-7.201 2.7066,-11.0339 2.991,-11.6605 2.1772,-22.8482 -2.3894,-32.8524 -1.8469,-4.0456 -13.016,-13.5554 -17.1424,-14.5955 -11.7289,-2.9564 -18.1479,-3.9568 -22.6831,-3.5352 -7.825,0.7276 -12.9138,1.6549 -15.0484,2.7426 -1.0394,0.5295 -4.1086,1.8788 -6.8208,2.9984 -6.8296,2.8192 -10.7486,8.2511 -10.7486,14.898 0,6.2423 1.3687,7.5048 4.2625,3.9319 6.5932,-8.1404 18.8982,-13.1078 29.2622,-11.8131 17.4416,3.3658 27.5122,14.5373 29.6024,30.9508 1.4986,12.9674 -5.4033,34.0241 -16.6609,50.8294 -2.3535,3.5135 -6.7869,10.1907 -9.852,14.8384 -3.0651,4.6477 -6.0239,8.7291 -6.5752,9.0699 -1.0458,0.6462 -1.4016,2.8054 -0.4627,2.8054 0.2971,0 4.3477,-3.99 9.0015,-8.8666 z m -112.3287,-131.7978 c 10.2219,-0.5811 19.8912,-1.3483 21.4871,-1.705 1.5959,-0.3565 4.7309,-0.9033 6.9667,-1.2151 10.0509,-0.5835 27.3127,-7.2252 18.8501,-12.5479 -1.0506,-0.6165 -6.2877,-4.5879 -10.6592,-6.5564 -20.2715,-9.1282 -42.0418,-14.3221 -79.3781,-18.9376 -46.9027,-3.297 -79.9062,5.7691 -123.7939,12.0231 -6.1562,0.8773 -17.3124,6.809 -18.3125,8.4269 -0.8135,1.3161 4.2283,6.7185 6.6546,7.1305 0.9024,0.1533 3.2087,1.094 5.1251,2.0906 5.8948,3.0652 17.5756,6.288 26.7137,7.3708 1.2776,0.1513 4.9361,0.8831 8.1302,1.6263 3.1942,0.743 17.3058,1.631 31.3595,1.9733 14.0537,0.3424 26.0748,0.7858 26.7137,0.9855 2.6129,0.8169 62.8721,0.3169 80.143,-0.665 z" fill="#00B894" transform="translate(159.26367,174.27191) matrix(0.26458333,0,0,0.26458333,-2106.7005,-767.18508)"/>
</svg>