<?xml version="1.0" ?><svg height="123.18637mm" viewBox="0 0 78.331825 123.18637" width="78.331825mm" xmlns="http://www.w3.org/2000/svg">
    <path color="#000" d="m 8775.3778,2823.6482 c -4.7934,0.059 -10.3154,2.0066 -17.1191,7.2767 -30.5125,-7.2717 -51.9815,-1.726 -65.431,15.188 -22.3307,-10.2651 -22.576,11.8433 -29.9951,29.8759 -11.9916,8.5703 -38.2188,-7.3933 -25.6395,42.8116 -20.7979,19.4095 -23.2192,35.819 1.8018,47.7486 -15.3544,18.7595 -9.1115,32.42 14.5585,41.9675 5.4368,50.3746 22.9463,43.7053 40.6166,36.2781 7.0329,10.6628 12.1768,17.2093 12.1768,17.2093 0,0 -2.1609,156.6439 19.5162,192.0617 l 52.0737,-59.8929 54.3126,70.1164 12.5815,-230.851 c 27.6246,6.3389 22.3295,-5.9785 21.0137,-32.2629 26.8324,9.0531 21.7498,-12.1374 17.1972,-32.8262 13.9358,-3.5151 23.8138,-10.1057 5.7592,-37.8655 20.6829,-11.8499 8.358,-26.3709 -8.398,-41.2495 15.0684,-15.3881 10.1064,-28.9193 -32.7155,-38.9442 -8.3114,-20.2433 -19.9213,-33.0872 -45.3549,-14.9022 -9.3894,-2.8651 -16.4092,-11.8704 -26.9547,-11.7394 z" fill="#FFFFFF" overflow="visible" paint-order="fill markers stroke" transform="translate(-288.69027,-91.716083) matrix(0.26458333,0,0,0.26458333,-1990.1712,-651.76393)"/>
    <path d="m 8772.8301,2810.0065 c -3.252,0.057 -6.3922,0.8448 -9.4001,2.37 -6.8824,3.4901 -9.0643,5.8053 -10.9211,11.5882 -1.3568,4.2263 -1.5611,4.3553 -6.9211,4.3553 -4.0542,-0.019 -3.3697,-2.7874 -7.5489,-4.6821 -11.222,-8.283 -29.264,-8.2814 -36.9468,9.9784 -1.0072,4.2364 -5.011,6.4795 -13.2076,4.9392 -9.1668,-1.7226 -14.0261,0.307 -18.2642,2.7987 -4.6462,2.7318 -6.7054,11.1746 -7.8364,21.1888 -0.5075,4.4933 -1.2319,8.9661 -1.6096,9.9393 -1.1199,2.8868 -8.8507,5.6915 -12.1902,4.4218 -6.0112,-2.2855 -16.9821,1.981 -18.579,7.2257 -2.6031,9.317 0.5218,19.4697 4.4406,28.1269 l 3.3466,6.5436 c -11.2743,3.842 -16.3454,9.7247 -20.1952,16.1713 -5.1355,10.8365 -8.6423,28.4086 11.515,32.7241 0.8373,0 2.099,0.5782 2.8056,1.2845 1.2595,1.2597 0.7621,2.4474 -6.9144,16.4879 -2.5797,4.7211 -2.5802,9.3379 0,13.9885 3.8384,6.9189 9.0016,10.1875 18.5822,11.765 l 4.9374,0.8132 2.7714,13.3133 c 0.016,4.8076 0.5714,10.252 3.5269,15.2288 2.0274,5.2253 9.9887,12.5985 14.4753,13.4067 1.9163,0.3452 9.1455,0.195 16.0641,-0.3318 11.2961,-0.8601 9.9167,-5.1088 10.8753,-3.3176 0.587,1.0972 1.0685,3.0104 1.0685,4.2517 -0.6455,6.5041 4.1861,13.1034 5.4545,14.0125 -0.6897,7.8629 0.8822,16.9969 0.2483,25.6957 0.6586,10.5401 1.1457,30.6631 1.082,44.7169 -0.2415,53.4243 2.1429,89.7728 6.683,101.8945 1.0218,2.7277 2.4591,7.9393 3.1952,11.5812 1.3245,6.5512 2.843,9.1806 5.6827,9.839 0.8048,0.1866 2.8277,0.6565 4.4949,1.0445 2.2939,0.5342 3.2173,0.1862 3.794,-1.4308 9.8859,-16.4835 26.6123,-35.2595 39.0667,-47.9443 4.3538,-4.4144 10.4992,-9.3609 11.6288,-9.3609 0.3768,0 3.0847,3.2685 6.0177,7.2631 6.7149,9.1026 13.3113,16.7872 19.6082,26.6518 7.3132,8.7895 11.7579,20.1928 19.2237,27.659 4.8238,8.4311 15.5604,14.3502 15.6118,3.4675 0.011,-2.1922 2.6991,-6.5971 2.8565,-37.1663 -0.8387,-30.1946 4.6502,-62.4233 6.8309,-89.4339 2.2934,-28.8166 2.2265,-65.3406 1.6998,-74.6079 -0.7356,-12.9448 -0.8411,-17.1084 -1.373,-29.3418 l 8.1444,0.4184 c 10.4765,0.3726 12.1833,0.1505 15.183,-1.9855 3.2667,-2.3266 3.3767,-2.7215 3.3244,-11.8567 -0.062,-10.7124 0.7643,-11.9114 10.858,-15.7478 9.0386,-3.4354 10.3767,-4.9161 10.4175,-11.5386 0,-6.1708 -3.5354,-13.0323 -7.013,-18.5245 -1.3583,-1.5343 -1.846,-3.4034 -1.4359,-5.5055 0.5294,-2.7138 1.0445,-3.0769 3.4945,-2.462 4.2436,1.0651 11.4711,-1.7255 13.2944,-5.133 2.038,-3.8083 1.599,-13.1348 -0.8607,-18.3186 -1.0657,-2.2457 -3.6101,-6.2627 -5.6554,-8.927 l -3.7193,-4.8455 5.5652,-4.3996 c 11.4581,-9.1239 12.5708,-17.0571 -0.3453,-27.9688 -9.0999,-8.7925 -9.3128,-9.124 -7.9658,-12.3757 3.0784,-7.1437 10.7762,-11.1608 4.7315,-22.64 -7.5695,-11.8404 -22.7656,-15.0331 -36.4176,-16.277 -4.3493,-0.1767 -8.518,-0.9333 -9.2656,-1.6808 -0.7476,-0.7476 -1.371,-4.4507 -1.385,-8.2296 -0.023,-6.2613 -0.3858,-7.2446 -4.09,-11.0776 -2.2359,-2.3135 -5.7604,-5.0149 -7.8331,-6.0024 -4.7674,-2.271 -20.7246,-2.8647 -24.6885,-0.9187 -6.2198,3.0535 -10.5563,3.2756 -13.2008,0.6737 -9.4615,-9.3082 -18.5064,-13.9406 -26.8169,-13.7964 z m 3.7804,13.6671 c 3.6802,0 14.949,5.4547 15.7886,7.6425 1.0066,2.8747 -11.337,-0.7487 -14.5891,-0.1225 -6.5994,-0.2264 -11.9609,-0.8352 -11.913,-1.3525 0.1629,-1.7692 7.803,-6.1675 10.7135,-6.1675 z m -47.075,10.3392 c 0.7681,-0.02 1.3113,0.058 1.5107,0.2586 0.2239,0.2253 -3.5507,1.5212 -8.3894,2.8788 -8.0092,2.247 -8.5469,2.2783 -6.0023,0.3589 2.0099,-1.5161 9.5525,-3.4126 12.881,-3.4963 z m 101.1391,1.7489 c 2.4728,0.015 4.5577,0.2349 5.4224,0.6976 2.1492,1.1504 3.9165,6.9523 3.5046,11.5064 -0.1395,1.5424 -0.9245,3.4733 -1.7438,4.2925 -1.2115,1.2116 -2.0032,0.9392 -4.2466,-1.4615 -1.5168,-1.6231 -6.0322,-5.1074 -10.0347,-7.7445 -6.7657,-4.458 -7.0926,-4.8685 -4.6463,-5.8221 2.4241,-0.945 7.6233,-1.492 11.7444,-1.4684 z m -52.669,10.8921 c 59.8517,5.6047 76.8664,27.6099 94.7132,77.487 6.2156,26.0241 -1.9968,62.2144 -17.3965,76.6566 -7.0158,6.5795 -6.7079,6.3349 -16.9405,13.3744 -10.1785,7.0024 -11.1055,7.5684 -19.1437,11.6917 -18.4251,7.5418 -40.0609,15.0425 -58.8434,16.8826 -7.9935,0.7651 -31.0563,1.3324 -31.6111,0.7776 -0.1883,-0.1883 -3.4087,-0.9101 -7.156,-1.6027 -21.4052,-3.957 -49.542,-28.4235 -63.3027,-55.0459 -4.933,-9.5811 -10.7526,-26.5722 -8.6836,-45.3123 2.5125,-13.6084 3.4577,-17.0031 6.6642,-23.9416 4.9163,-10.6387 10.4292,-18.8325 19.4925,-28.9726 19.1192,-21.3906 23.7484,-24.9111 43.2435,-32.8719 10.7531,-4.3911 38.9218,-8.7492 58.9641,-9.1229 z m -98.2349,4.1293 c 3.7223,0 6.8239,2.399 3.7838,5.0276 -7.9993,6.9158 -7.7565,6.7831 -7.7565,4.2262 0,-4.3775 1.0926,-9.2538 3.9727,-9.2538 z m 106.3402,7.0436 c -4.1202,-0.1142 -7.1362,1.0685 -8.1053,4.2382 0,4.1843 4.1066,7.1719 13.3574,9.7182 3.8329,1.055 8.5368,2.3448 10.4533,2.8667 11.3001,3.0771 29.0673,13.0319 34.1156,19.1149 0.8759,1.0555 2.3292,1.919 3.2292,1.919 5.47,-0.2341 5.7973,-10.6559 -11.5303,-20.4741 -6.8519,-5.0277 -29.1594,-17.0401 -41.5199,-17.3829 z m -33.5441,2.5231 c -15.0717,0.1102 -26.5823,1.7763 -34.7588,5.0327 -11.7838,4.6931 -30.6588,19.1872 -37.8877,29.0933 -7.7332,10.5977 -18.0599,37.9787 -18.0599,47.8865 -0.4921,21.9893 9.3641,48.7315 29.8207,61.3507 10.8547,8.8661 23.3467,11.5908 22.5064,6.143 -0.2041,-1.3233 -1.9167,-3.2833 -3.806,-4.3556 -6.4138,-3.6401 -16.0433,-14.5973 -19.9433,-20.1277 -16.4842,-18.3045 -19.9993,-48.7128 -4.1922,-73.4273 0.361,0 1.5754,6.9247 2.6984,15.3888 1.1229,8.4643 2.5257,18.2642 3.1168,21.7774 0.5912,3.5135 1.6395,10.0461 2.3292,14.5178 1.3542,8.5567 4.2298,17.9856 7.1322,27.2541 0.9966,3.1826 7.3964,8.4967 10.186,7.6391 1.9177,-0.5895 22.6791,-2.6388 36.6797,-3.6205 4.4716,-0.3135 18.2297,-0.7654 30.5735,-1.0039 9.3776,-0.1889 21.3193,-2.3319 32.513,0.5361 l 3.117,0.025 -2.9025,2.273 c -13.0834,10.3381 -21.3118,12.4823 -51.2053,20.3385 -3.7183,0.9771 -1.9372,5.0482 2.0535,5.5549 19.971,0.8973 48.0639,-7.2378 62.4206,-18.9263 23.6937,-19.9616 32.5182,-36.916 33.2429,-63.8794 0.1624,-6.0443 -1.3229,-16.6849 -2.5045,-17.946 -0.5686,-0.6069 -1.05,-1.9123 -1.07,-2.9025 -0.046,-2.2646 -5.3773,-6.2465 -7.0115,-5.2368 -0.7833,0.4842 -1.0019,4.6893 -0.6124,11.7718 1.2068,21.9395 -5.1076,40.8805 -19.0552,57.1606 -2.3818,2.7801 -4.8373,2.6544 -2.6558,-0.1361 6.0915,-8.4587 -0.3711,-22.4695 0.7435,-32.1676 -1.282,-52.4564 -1.3831,-53.6936 -4.8558,-58.7446 -4.5027,-6.5494 -9.4159,-6.9201 -16.0812,-1.2149 -6.0893,5.1705 -8.1655,4.4544 -13.0392,13.383 -3.131,3.7622 -7.1349,9.4896 -8.8965,12.7263 -3.3269,6.1124 -5.1568,7.4324 -5.1568,3.7225 0,-1.1885 -1.2896,-4.0609 -2.8667,-6.3852 -5.1118,-8.2106 -13.9018,-31.478 -22.1552,-30.8611 -7.818,-0.8298 -14.0417,16.6152 -20.4573,27.7935 -3.4265,7.7732 -9.5934,19.9039 -10.3611,20.3806 -0.3696,0.2294 -3.7663,-3.0517 -7.5491,-7.2904 -7.9666,-8.9267 -7.6033,-8.5963 -14.4274,-13.0902 -2.8747,-1.8931 -6.4027,-3.4527 -7.8399,-3.464 -1.4374,-0.01 -2.6134,-0.5164 -2.6134,-1.1228 0,-3.3244 23.7991,-23.1443 32.5199,-27.0824 8.8817,-4.0108 22.4367,-7.7468 30.4577,-8.3928 14.7908,-1.1913 16.0014,-1.5355 16.0014,-4.5648 0,-4.8965 -2.8019,-5.9042 -16.1477,-5.8068 z m 112.4346,4.0561 c 1.3924,0.028 3.8441,0.4682 7.7412,1.1825 3.7905,0.6947 7.8057,2.0816 8.9235,3.0828 3.225,2.8885 2.5156,7.5073 -1.7966,11.6867 -2.1064,2.0417 -4.0809,3.7123 -4.3877,3.7123 -0.995,0 -4.1355,-4.1415 -6.0467,-7.9725 -1.0258,-2.0562 -2.9831,-5.5454 -4.3487,-7.7548 -1.7832,-2.8854 -2.4055,-3.9839 -0.085,-3.937 z m -216.7894,24.8535 c 2.3956,-0.021 4.3556,0.1251 4.3556,0.325 0,0.1999 -2.1355,4.1365 -4.7468,8.7483 -5.4578,9.6387 -5.2995,9.4226 -6.0177,8.1717 -1.8471,-3.2171 -1.8359,-9.418 0.023,-13.143 1.7713,-3.5477 2.5842,-4.0697 6.3853,-4.102 z m 233.6209,13.3932 c 0.9964,0 11.688,7.355 12.5612,8.6412 1.0444,1.6499 -1.9861,7.0626 -3.6204,7.9283 -1.7796,0.4654 -2.5974,-0.4811 -4.1413,-4.7996 -1.0579,-2.9592 -2.7018,-6.818 -3.6544,-8.5747 -0.9527,-1.7568 -1.4687,-3.1952 -1.1451,-3.1952 z m -126.7872,3.3551 c 1.1249,0.1589 2.3727,2.562 6.0041,9.8304 2.9987,6.0019 7.5183,14.0934 10.0449,17.9817 3.7792,5.8163 5.4365,7.322 9.3455,8.4932 6.2176,1.8629 7.2929,1.0749 12.9628,-9.4969 5.0679,-9.4496 10.8969,-17.9179 14.7032,-21.3625 l 2.4209,-2.1912 0.1804,10.3426 c 0.5291,30.4977 0.6725,32.7975 3.3109,53.1045 1.4125,10.8704 1.4603,10.335 -0.8779,9.6162 -5.1595,-1.5861 -68.0656,-2.7755 -75.7855,-1.4326 -2.2358,0.3889 -7.3933,0.9645 -11.4605,1.2778 -4.0672,0.3132 -9.1037,0.8891 -11.1933,1.2811 l -3.7989,0.7128 -0.7794,-9.6857 c -0.7014,-8.7275 -1.7157,-14.9757 -5.3134,-32.7157 -0.6253,-3.0831 -1.1364,-6.9707 -1.1364,-8.6395 0,-2.9744 0.041,-2.99 2.0433,-0.7827 1.1237,1.2386 3.838,4.6048 6.0331,7.4794 8.3825,10.9786 15.1273,15.6808 18.082,12.6053 2.1055,-2.1913 8.6493,-14.5962 9.036,-17.1293 0.5386,-3.5302 12.148,-26.2246 14.5075,-28.3599 0.6726,-0.6088 1.1594,-1.0012 1.6707,-0.929 z m -121.2085,29.1664 c 0.4005,-2e-4 0.6539,4.8332 0.5633,10.7424 -0.1591,10.3727 -0.259,10.7557 -2.9111,11.0844 -4.2346,0.5239 -6.3781,-4.7369 -5.0276,-9.7132 1.5443,-5.69 6.4681,-12.1129 7.3754,-12.1136 z m 258.5407,13.0273 c 0.3429,-0.097 0.6125,1.6728 0.6125,4.1326 0,4.4227 -1.1647,6.8384 -2.6047,5.3985 -0.6897,-0.6898 0.8817,-8.4461 1.9225,-9.4868 0.024,-0.024 0.047,-0.037 0.07,-0.045 z m -249.9964,37.6785 2.7034,5.7165 c 1.487,3.1442 2.7324,6.1086 2.7699,6.5877 0.071,0.9221 -3.7881,0.959 -7.1916,0.07 -2.5387,-0.6634 -2.5984,-4.0264 -0.1566,-8.7483 z m 238.0019,1.7013 c 1.2424,0.1437 2.6692,2.4176 2.9094,3.0097 4.069,3.6475 0.4249,7.4382 -3.0796,7.343 -2.8605,-0.078 -6.0013,-0.9752 -5.3202,-2.5486 0.7891,-1.9132 2.6228,-5.1907 4.3607,-7.0963 0.3223,-0.5663 0.7155,-0.7558 1.1297,-0.7078 z m -154.7807,24.6471 c -4.8867,-1.3919 -5.2412,2.7888 -4.0253,4.3251 5.6213,7.1027 17.2604,7.0737 22.8194,6.3925 6.6075,-0.8097 5.6205,-6.231 -0.3088,-6.8152 -2.3931,-0.5742 -13.008,-0.5021 -18.4853,-3.9024 z m 134.3354,5.7017 c 0.1799,-0.013 0.3406,1e-4 0.4781,0.03 3.0017,1.0265 4.4379,9.5995 1.8,9.9922 -0.9581,0.3676 -8.0716,0.8079 -10.0704,-1.9074 -1.946,-2.6435 5.0936,-7.921 7.7923,-8.1155 z m -192.4955,9.936 c 1.3627,-0.1687 3.788,1.5662 7.3804,5.1925 3.3694,3.4013 5.6,6.5091 4.9578,6.9059 -1.3895,0.8589 -11.6353,0.4552 -12.18,-0.4798 -0.2084,-0.3578 -0.7314,-2.7827 -1.1621,-5.3882 -0.6595,-3.9896 -0.3588,-6.0615 1.0039,-6.2304 z m 160.2155,15.3209 c 2.0093,0.01 1.8185,3.6094 -0.3555,6.7134 -1.414,2.0186 -2.8692,2.5521 -6.6778,2.4467 -5.8685,-0.1623 -8.9355,-0.8833 -8.9355,-2.0996 0,-1.0086 13.6994,-7.0693 15.9688,-7.0605 z m -113.8994,13.6788 c 0.6891,0.032 1.6907,0.2067 3.0114,0.4952 2.6978,0.5891 6.3418,1.3606 8.0986,1.7133 1.7567,0.3526 3.1951,1.0147 3.1951,1.4733 0,0.4587 -2.2225,1.3236 -4.9373,1.9207 -4.2625,0.9378 -5.264,0.7669 -7.3449,-1.2555 -3.3483,-3.2549 -4.0903,-4.4432 -2.0229,-4.347 z m 61.3189,1.7116 c 2.8329,0 2.2079,2.6132 -1.8375,7.2206 -1.9826,2.2581 -4.0468,4.1054 -4.5868,4.1054 -0.9819,0 -6.9076,-7.2055 -6.9076,-8.3996 0,-0.3478 1.9599,-0.971 4.3555,-1.3832 2.3955,-0.4124 5.7922,-1.0349 7.549,-1.3833 0.5458,-0.1081 1.0227,-0.16 1.4274,-0.1599 z m 22.6927,0.073 c 0.2492,-0.027 0.521,0.023 0.8286,0.1261 0.7217,9.3511 0.1374,18.5214 -0.075,28.3395 -2.1615,41.936 3.7889,90.0009 1.4171,118.7704 -0.011,1.6238 0.2125,2.9473 0.5888,3.9896 -5.6202,-7.2609 -11.2281,-14.268 -14.9822,-18.5992 -5.0586,-5.8902 -6.8221,-8.3106 -11.3906,-3.3177 -9.3204,7.9475 -18.0078,21.0095 -29.7773,27.472 -0.4124,-0.5087 -0.3847,-17.65 0.061,-38.0919 1.3555,-62.0955 0.6708,-106.4636 -0.2093,-107.3491 0.8206,-1.7984 3.7824,-6.1499 7.4963,-0.7538 2.4947,3.3004 4.0372,8.0102 8.3094,10.6302 5.9181,4.8494 10.8238,5.6732 18.5159,3.1101 6.5894,-2.1957 9.5597,-5.467 14.2388,-15.6866 2.9131,-6.3624 3.6706,-8.4994 4.9781,-8.6396 z m 38.3164,4.4491 c 1.2447,0.1528 0.7722,4.9151 0.3572,24.5524 0.096,27.2505 -1.1374,53.1332 -3.3226,79.2342 -1.9086,19.4717 -4.3321,40.6647 -4.3454,57.7834 0.01,13.255 -0.1781,24.0997 -0.4083,24.0997 -5.7979,-8.7449 -11.905,-18.7916 -17.6305,-26.6907 3.0908,-51.9677 -0.016,-106.2697 -0.5639,-158.739 0.4045,0.1091 0.7473,0.1926 0.934,0.2142 0.6389,0.075 3.2533,0.7465 5.8086,1.4939 2.5551,0.7474 7.3473,1.3662 10.6488,1.3662 4.9893,0.01 7.4239,-3.4489 8.5221,-3.3143 z m -100.2137,11.0861 -0.4015,8.335 c -0.8362,7.5258 -0.9274,96.3373 -0.1191,116.3051 0.3618,8.9362 1.1872,14.836 2.4943,17.8236 2.2574,5.1597 1.8036,6.2554 -5.8647,14.1178 -2.492,2.5552 -5.2664,6.0832 -6.164,7.84 -0.8975,1.7565 -1.9884,3.1933 -2.4245,3.1933 -0.784,0 -3.9715,-11.2651 -5.0938,-18.002 -2.6537,-15.9301 -2.9418,-22.8844 -3.7463,-90.4259 l -0.7045,-59.0678 2.7528,0.9937 c 1.5135,0.5462 6.5402,0.9226 11.1729,0.8352 z" fill="#00B894" transform="translate(-288.69027,-91.716083) matrix(0.26458333,0,0,0.26458333,-1990.1712,-651.76393)"/>
</svg>