<?xml version="1.0" ?><svg height="140.60577mm" viewBox="0 0 152.15506 140.60577" width="152.15506mm" xmlns="http://www.w3.org/2000/svg">
    <path d="m 4459.6953,907.40545 c -7.2065,-17.28748 -19.2781,-65.37018 -20.1502,-70.03802 -0.8721,-4.66783 13.9306,-18.32017 21.2058,-20.34428 7.275,-2.02409 27.4709,-0.7642 51.6602,4.52326 24.1893,5.28743 44.9818,-4.0069 44.9818,-4.0069 l 26.8055,77.59742 c 0,0 -25.2907,18.73324 -42.8935,17.59728 -17.6024,-1.13596 -38.9001,-11.00863 -56.2041,-8.63341 -17.3043,2.37522 -25.4055,3.30465 -25.4055,3.30465 z" fill="#FFFFFF" paint-order="markers stroke fill" transform="translate(86.817394,49.6492) translate(-4260.9137,-867.25108) translate(-261.62802,5.9869562)"/>
    <path d="m 4206.5304,956.02065 c -4.34,-5.0817 -9.3437,-21.11343 -19.4371,-62.27495 -3.6521,-14.89314 -8.1193,-31.4273 -9.927,-36.74258 -4.2006,-12.34992 -4.1328,-15.53538 0.4644,-21.88165 5.4227,-7.48614 10.9643,-11.7263 19.5827,-14.98438 11.0481,-4.17658 28.123,-3.13672 44.4273,2.70576 16.3443,5.85681 27.2215,5.97139 43.1892,0.45511 9.526,-2.44541 11.7125,-6.67089 14.5882,0.0482 1.6372,2.23272 4.1928,7.01996 5.6787,10.63831 4.7815,11.64244 21.5781,65.25838 21.1464,67.50046 -0.2296,1.1926 -1.7405,2.82791 -3.3573,3.6341 -1.6168,0.80602 -3.9799,2.35017 -5.2514,3.43147 -7.8454,6.67221 -20.4604,11.26945 -37.4552,13.64964 -6.5066,0.91133 -21.4533,-1.88677 -33.2499,-6.22457 -12.2556,-4.5066 -21.7477,-5.06589 -32.286,-1.90259 -12.877,3.86531 -12.7401,3.41887 -6.6118,21.55482 5.8435,17.2935 6.348,20.70382 3.239,21.8968 -2.7388,1.05093 -2.4913,1.12946 -4.7402,-1.50388 z m 68.9925,-52.318 c -0.8975,-7.42774 -3.6527,-7.76235 -8.5805,-7.76235 -4.942,0 -9.572,-2.25088 -9.2933,5.96513 0.3588,10.58063 4.6561,11.11569 13.2071,11.6821 h 5.861 z m 41.0356,-8.45935 c -1.8401,-6.357 -5.264,-8.28485 -11.2986,-4.29142 -5.1903,3.43463 -7.3105,3.9649 -4.1458,12.86306 0.6412,1.80307 2.6352,4.11512 8.0745,2.06389 5.8065,-2.18967 9.0369,-4.87723 7.8458,-8.9917 z m -86.2023,10.57471 c 5.4689,0 5.8122,-0.21441 5.7952,-3.61835 -0.04,-7.97782 -1.1871,-11.51672 -7.0346,-11.4974 -6.9993,0.023 -15.5968,1.83746 -15.5873,3.7207 0,0.82025 0.6283,5.73548 1.3981,8.5074 1.018,3.66646 1.9417,4.83185 3.3894,4.27621 1.0947,-0.42 8.8417,-1.38856 12.0392,-1.38856 z m -25.1986,-11.29959 c 4.9471,-2.84703 6.4678,-3.49673 5.1687,-8.79686 -0.7213,-2.94227 -1.0439,-8.95249 -3.9156,-7.64074 0,0 -12.7865,3.57707 -12.7951,5.91731 0,1.70193 3.0269,13.80036 3.5137,13.80036 0.3137,0 5.2821,-1.69946 8.0283,-3.28007 z m 89.4798,-2.73053 c -0.7494,-2.80145 -0.5017,-1.58663 -1.359,-4.44799 -1.4466,-4.82843 -3.1154,-9.56924 -6.7057,-8.85122 -2.128,0.42568 -10.5208,0.29572 -11.9353,0.29572 -2.2121,0 -1.1653,5.01973 -0.3763,8.69844 0.5046,2.35189 1.1786,4.72026 1.498,5.26302 0.7021,1.1926 14.7423,0.88067 15.916,1.04493 1.3717,0.19202 3.613,0.42881 2.9623,-2.0029 z m -41.0198,-2.66411 c -0.4423,-1.15274 -0.8332,-5.68184 -1.2477,-7.34565 -1.7075,-6.85364 -4.8374,-6.25098 -11.0389,-7.99091 -4.3483,-1.2201 -8.6646,-3.64938 -6.9476,1.3798 0.1406,0.4128 0.4552,4.80766 1.037,7.63064 0.9678,4.6954 1.5582,5.26365 6.9284,6.67138 3.3608,0.31113 12.4186,3.15931 11.2688,-0.34526 z m 14.2843,-17.67869 c -2.3111,-9.41423 -4.376,-9.93672 -9.6015,-10.32328 -5.4222,-0.40106 -8.7886,-3.27757 -7.3036,6.74052 1.4762,9.95712 5.6512,8.7043 10.053,9.16127 6.0056,0.62353 8.4086,0.76179 6.8521,-5.57851 z m -47.5901,0.0322 c 2.7422,-0.53645 7.2046,-2.44971 7.5355,-2.78073 1.2035,-1.20326 -3.6334,-12.88992 -5.3346,-12.88992 -3.8734,0 -17.0554,4.36265 -17.0554,5.45184 0,0.64081 0.6736,3.83939 1.4965,7.108 1.3966,5.54694 1.7256,5.88115 4.9342,5.01471 1.8906,-0.51064 5.6813,-1.36734 8.4238,-1.9039 z m 80.5015,0.88635 c 4.6004,-2.90403 7.7088,-2.08613 6.9867,-4.96408 -0.4627,-1.843 -1.6584,-6.68814 -2.0757,-8.77479 -0.4171,-2.08654 -2.3097,-3.72464 -2.6297,-3.72464 -0.3201,0 -3.3875,1.23606 -5.6908,3.65862 -2.3031,2.42244 -4.3935,2.21182 -6.3725,3.93565 -1.2953,1.12843 -1.6759,1.44892 -0.2756,6.12156 0.9062,3.02436 2.7035,7.12901 3.4127,7.12901 0.709,0 3.6995,-1.52168 6.6455,-3.38133 z M 4194.5668,860.9526 c 4.8317,-2.71543 5.8084,-3.62722 4.5364,-8.27629 -1.9352,-7.07089 -4.0824,-9.21406 -10.435,-4.84339 -3.2265,2.2198 -5.3424,7.17929 -4.9873,7.75362 0.355,0.57445 1.2405,2.60993 1.9681,4.5233 1.5944,4.19346 2.6647,4.35726 8.9178,0.84276 z m 89.4342,-9.18882 c -1.2592,-5.97575 -5.2052,-5.61855 -12.2961,-4.64661 -5.5688,0.76328 -6.1936,1.17272 -5.5346,3.62791 0.4087,1.52211 1.5146,8.57224 1.5246,9.47682 0,1.11706 2.3728,1.64472 7.359,1.64472 l 10.6115,-0.76196 z m -40.9048,-0.30448 c -1.115,-5.57512 -1.5123,-9.52329 -10.9972,-12.39521 -9.076,-2.74781 -12.0472,-3.95353 -7.5547,9.40343 1.0912,3.24514 4.311,4.54248 9.573,5.791 10.1787,2.41509 9.935,1.98169 8.9789,-2.79922 z m 18.098,-10.33869 c -1.2718,-5.67664 -3.4196,-7.2912 -9.8587,-8.8208 -3.702,-0.87944 -9.1359,-2.11413 -9.4376,-1.81255 -0.3014,0.30137 0.4217,5.50417 0.8637,7.72162 1.2304,6.17394 5.3283,4.76739 7.8696,5.31101 5.8523,1.25222 11.7004,2.67806 11.3927,1.30575 z m 37.4905,-2.27511 c 0,0 -1.849,-6.49558 -3.6273,-9.30303 -0.9587,-1.51379 -2.1949,-1.42165 -7.5453,0.56236 -7.9465,2.94666 -7.4597,2.51099 -6.4302,5.75391 3.1429,4.10781 3.2448,9.42858 5.3688,8.40198 3.9959,-1.61932 12.6895,-2.42548 12.234,-5.41522 z m -88.592,-2.15864 c 5.8357,-1.28856 5.8027,-3.9213 5.0332,-7.1495 -1.2331,-5.17157 -1.5301,-5.39528 -6.1012,-4.59816 -8.9144,1.55443 -15.672,4.15514 -14.9022,6.16117 0.4113,1.07206 1.3492,4.17187 1.3492,5.64435 0,2.17256 3.6274,4.00575 6.0298,3.25771 1.6283,-0.50709 5.1635,-2.55878 8.5912,-3.31557 z" fill="#00B894" transform="translate(86.817394,49.6492) translate(-4260.9137,-867.25108)"/>
</svg>