<?xml version="1.0" ?><svg height="104.49781mm" viewBox="0 0 134.179 104.49781" width="134.179mm" xmlns="http://www.w3.org/2000/svg">
    <path d="m -1905.3531,17193.097 c 60.2268,-0.514 340.9678,-4.459 359.0739,-5.66 18.1062,-1.201 34.1159,-6.175 34.5923,-21.269 0.4765,-15.094 5.9084,-27.358 5.9084,-27.358 l 18.4873,2.401 0.953,-48.713 -21.5368,-3.259 -1.6201,-31.046 37.4512,-3.517 -8.4813,-69.896 -28.8746,0.429 -7.3378,-41.853 c 0,0 -361.8374,1.115 -390.9026,1.03 -29.0652,-0.09 -51.269,4.888 -51.9361,24.356 -0.6671,19.468 9.6248,172.898 15.152,192.109 5.5271,19.21 13.1508,31.217 39.0712,32.246 z" fill="#FFFFFF" transform="translate(9.6371127,-118.59629) matrix(0.26458333,0,0,0.26458333,511.27931,-4330.7441)"/>
    <path d="m -1900.3804,17209.819 c -1.8946,-1.166 -3.4447,-3.31 -3.4447,-4.764 0,-3.023 -4.2339,-5.034 -10.6007,-5.034 -8.0381,0 -24.8415,-9.933 -29.5403,-17.462 -8.7562,-14.031 -14.8232,-35.542 -17.0039,-60.289 -8.4601,-96.013 -10.0259,-146.845 -4.9605,-161.048 5.5882,-15.668 16.0179,-21.746 44.8727,-26.147 21.3689,-3.26 23.8496,-3.97 62.506,-17.9 13.5327,-4.877 36.1201,-12.837 50.1943,-17.689 14.0741,-4.855 34.447,-12.235 45.2732,-16.401 52.7696,-20.306 130.9981,-42.374 143.9326,-40.601 5.4547,0.747 8.9384,0.291 10.3006,-1.351 1.1322,-1.364 7.2187,-4.945 13.5258,-7.96 7.1175,-3.403 12.7199,-7.663 14.7698,-11.236 5.0389,-8.78 14.5487,-6.874 20.1967,4.049 7.4614,14.428 -0.291,28.151 -12.4116,21.969 -5.0742,-2.588 -36.7085,5.678 -41.498,10.844 -4.1784,4.505 -24.0103,11.637 -51.3797,18.474 -9.2023,2.299 -33.5613,9.928 -54.131,16.954 -20.57,7.026 -54.2003,18.071 -74.734,24.546 -20.5338,6.477 -37.5987,12.038 -37.922,12.362 -2.554,2.554 64.6029,4.149 177.6133,4.219 73.6182,0.04 135.3334,0.267 137.1447,0.491 1.8113,0.226 5.9241,3.042 9.1395,6.257 5.587,5.586 8.0092,12.543 11.1586,32.045 l 1.1921,7.381 h 11.4802 c 18.5194,-0.123 16.2766,8.191 17.9572,22.917 1.0613,9.59 2.842,24.272 3.9573,32.625 1.677,12.561 1.5149,16.18 -0.9368,20.922 -3.5203,6.807 -6.7472,8.429 -19.8417,9.971 l -9.8421,1.16 -0.6176,8.619 c -0.5981,8.345 -0.4547,8.587 4.5253,7.637 7.4166,-1.419 12.519,3.764 13.0626,13.27 0.2476,4.33 0.2953,16.51 0.1063,27.065 -0.2985,16.632 -0.8986,19.746 -4.4983,23.346 -3.3406,3.34 -5.6289,3.917 -11.6892,2.949 l -7.5355,-1.205 -1.2251,9.354 c -3.6013,27.108 -7.6357,34.402 -31.8038,34.902 -8.2444,0.206 -11.298,5.56 -14.4878,8.244 -11.6129,9.772 -40.279,9.925 -45.4604,0.244 -2.1429,-4.004 -2.8131,-4.025 -95.9447,-2.811 -141.869,1.85 -171.2696,2.945 -179.4122,6.692 -8.4197,3.874 -27.2854,5.284 -31.9867,2.39 z m 114.3572,-28.792 18.018,-1.279 v -25.68 -25.68 l -5.8,9.146 c -17.4816,27.565 -71.5982,38.549 -113.2156,22.978 -16.7504,-6.267 -42.0641,-23.715 -48.7068,-33.572 l -5.7993,-8.607 1.312,21.653 c 1.3915,22.964 3.1185,27.537 13.2567,35.108 3.7374,2.79 9.9618,4.24 22.515,5.243 23.2308,1.859 95.978,2.283 118.42,0.69 z m 265.7484,-24.858 c 3.6216,-21.486 4.6378,-79.329 2.4775,-141.033 -1.1533,-32.941 -2.9188,-60.4 -3.9231,-61.02 -2.4618,-1.522 -159.9064,-0.834 -202.6211,0.886 l -34.0886,1.371 1.1783,12.085 c 1.9621,20.13 4.9411,119.532 4.9683,165.786 0.015,23.908 0.394,43.838 0.8443,44.289 0.4503,0.451 47.3554,0.569 104.2333,0.262 l 103.4145,-0.56 c 15.3504,-0.09 20.979,-7.012 23.5166,-22.066 z m -77.7184,-31.654 c -1.9422,-26.751 22.9837,-33.794 39.5489,-26.3 9.2562,4.414 14.8372,15.725 14.8372,30.073 0,9.858 -0.678,11.733 -6.06,16.761 -5.6615,5.288 -16.6882,9.792 -23.466,9.584 -18.8453,-2.668 -23.3259,-14.245 -24.8601,-30.118 z m 31.6568,10.233 c 4.028,-1.835 11.722,-11.487 1.1469,-21.026 -6.1291,-5.529 -2.1241,5.313 -4.3291,8.882 -1.0143,1.64 -3.7606,-0.129 -5.4536,-2.444 -1.5178,-2.075 0.5429,-8.818 -3.179,-8.394 -5.2391,0.597 -5.8652,1.435 -6.3905,8.56 -0.4308,5.84 0.4862,9.044 3.5214,12.302 4.6412,4.982 7.4986,5.394 14.6839,2.12 z m -151.5754,14.978 c -12.421,-6.131 -16.275,-23.315 -8.881,-39.6 4.3625,-9.608 8.8017,-12.462 19.3877,-12.462 10.834,0 20.0072,6.728 26.4165,19.375 5.3394,10.535 5.6711,17.67 1.2261,26.37 -4.4875,8.784 -25.95,12.338 -38.1493,6.317 z m 22.5814,-15.458 c 2.7941,-3.366 1.2429,-10.308 -3.7811,-16.92 -3.7076,-4.879 -2.2517,1.292 -5.3778,5.196 -3.1088,3.881 -7.6289,1.284 -6.4272,-3.083 0.8796,-3.196 3.3577,-8.018 1.1812,-8.018 -6.7468,0 -9.7267,16.768 -3.9981,22.497 3.8409,3.84 15.3181,4.045 18.403,0.328 z m 42.2567,16.583 c -5.7222,-2.312 -12.5744,-11.46 -12.5744,-16.788 0,-6.173 5.3796,-20.745 9.228,-24.997 4.5237,-4.999 14.0466,-9.434 20.2574,-9.434 5.3156,0 11.4325,5.179 15.5419,13.159 3.2829,6.373 2.7581,24.558 -0.8577,29.721 -6.1979,8.849 -20.7976,12.702 -31.5952,8.339 z m 17.0811,-13.887 c 2.8457,-1.524 3.8074,-4.147 3.8074,-10.389 0,-16.7 -13.1198,-23.869 -18.8003,-10.274 -3.4671,8.299 -3.6804,17.148 -0.4901,20.338 2.9019,2.902 10.3744,3.059 15.483,0.325 z m -81.173,-60.761 c -6.141,-0.658 -11.8396,-1.871 -12.6635,-2.695 -3.8171,-3.818 5.0401,-5.411 40.6056,-7.308 95.3111,-5.084 113.7906,-6.172 123.5739,-7.284 l 10.4362,-1.186 c -1.2953,-24.812 -2.8992,-49.602 -5.125,-74.346 l -88.0631,-0.436 c -77.4949,-0.383 -87.9564,-0.09 -87.175,2.517 5.7961,19.274 9.2411,72.726 5.1765,80.322 -2.7813,5.196 -7.2821,5.602 -9.7087,0.875 -0.9726,-1.894 -2.3323,-21.752 -3.0217,-44.128 -0.6895,-22.375 -1.7409,-41.952 -2.3364,-43.505 -1.4065,-3.664 9.6826,-4.698 78.8346,-7.342 29.2308,-1.117 66.6682,-2.927 83.1942,-4.023 31.377,-2.078 36.5211,-1.336 38.7166,5.581 1.5729,4.956 7.0196,73.534 7.0196,88.381 0,10.144 -0.665,12.635 -3.8244,14.326 -2.6975,1.444 -5.2889,1.379 -8.7952,-0.218 -3.7457,-1.707 -14.0871,-1.71 -41.9589,-0.01 -38.1799,2.328 -105.2498,2.585 -124.8853,0.479 z m -106.3435,75.521 c 26.8276,-6.156 40.7566,-18.401 48.2345,-42.4 4.4388,-14.245 7.1697,-29.546 5.0382,-28.228 -0.938,0.579 -1.7057,2.304 -1.7057,3.834 0,5.991 -10.4146,25.922 -17.322,33.152 -12.994,13.599 -40.1454,22.887 -66.904,22.887 -29.3779,0 -53.4412,-11.325 -62.8302,-29.569 -6.7716,-13.158 -9.6185,-38.443 -7.0153,-62.306 3.9359,-36.084 17.2851,-58.084 42.8567,-70.629 10.6863,-5.243 13.7473,-7.283 31.4944,-5.786 37.9181,3.199 39.8796,9.059 49.6302,15.788 13.3349,9.202 19.7915,14.922 28.3671,42.272 l 4.6291,14.763 0.6281,-8.356 c 1.409,-18.741 -22.9745,-51.955 -49.1273,-66.919 -17.2425,-9.865 -29.568,-12.3 -38.6046,-7.628 -7.3421,3.797 -10.1532,1.082 -4.6145,-4.457 3.8161,-3.816 3.7742,-3.855 -5.3413,-4.935 -5.0531,-0.6 -21.2434,-1.66 -35.9784,-2.355 -22.8198,-1.076 -27.8262,-0.772 -33.776,2.052 -12.8117,6.08 -14.1018,8.917 -14.92,32.823 -0.4058,11.854 -0.074,27.497 0.7386,34.759 l 1.4765,13.206 2.602,-11.173 c 5.9098,-25.373 18.8392,-41.066 44.4686,-53.972 13.028,-6.561 29.1537,-9.18 29.1537,-4.734 0,1.083 -2.1008,1.969 -4.6684,1.969 -5.8449,0 -31.2954,16.644 -40.9998,26.814 -13.3528,13.991 -19.2448,34.68 -19.2742,67.675 -0.021,23.686 6.8207,46.581 20.0201,66.995 5.0004,7.734 9.2755,11.506 18.1736,16.032 21.6004,10.992 50.3952,14.203 75.5703,8.426 z m 329.9322,-38.251 c 0.7452,-10.252 0.8153,-18.1 0.1559,-17.44 -1.6117,1.611 -4.7881,33.682 -3.5378,35.718 4.4847,-4.993 2.9482,-12.352 3.3819,-18.278 z m -441.1099,-2.522 c -10.6494,-25.405 -10.4211,-25.029 -9.2865,-15.254 1.3464,10.015 7.5586,28.676 15.4604,31.494 0.3483,0 -2.43,-7.308 -6.1739,-16.24 z m 89.5447,10.457 c 0.4921,-1.476 -0.2461,-2.215 -1.7224,-1.722 -1.4209,0.474 -2.9709,2.024 -3.4446,3.445 -0.4921,1.476 0.2461,2.214 1.7224,1.723 1.4209,-0.474 2.971,-2.024 3.4446,-3.446 z m -26.4767,-1.107 c -0.6232,-1.624 -1.8293,-2.953 -2.6802,-2.953 -0.851,0 -2.0571,1.329 -2.6803,2.953 -0.7668,1.999 0.099,2.952 2.6803,2.952 2.5808,0 3.447,-0.953 2.6802,-2.952 z m -15.7265,-8.132 c 3.6063,-4.948 3.6044,-5.137 -0.093,-8.836 -3.7257,-3.724 -3.8431,-3.69 -8.4012,2.475 -4.4388,6.004 -4.4788,6.358 -1.0067,8.896 4.7694,3.488 5.1938,3.375 9.5012,-2.535 z m 27.6051,-1.888 c 1.4779,-3.85 -0.1137,-6.711 -3.7327,-6.711 -4.0511,0 -5.586,3.716 -2.881,6.975 3.0794,3.71 5.1198,3.629 6.6137,-0.264 z m 50.1586,1.352 c 1.4919,-0.945 2.104,-2.703 1.3601,-3.906 -2.0385,-3.298 -4.6757,-2.643 -7.0254,1.748 -2.3109,4.318 0.5406,5.405 5.6653,2.158 z m -27.3178,-2.158 c 0,-1.082 -0.8858,-1.968 -1.9684,-1.968 -1.0826,0 -1.9683,0.886 -1.9683,1.968 0,1.082 0.8857,1.968 1.9683,1.968 1.0826,0 1.9684,-0.886 1.9684,-1.968 z m -65.8684,-13.92 c 2.4396,-4.718 2.6141,-6.664 0.7938,-8.858 -5.8209,-7.014 -9.5821,-0.967 -6.5156,10.476 1.5368,5.734 1.9854,5.607 5.7218,-1.618 z m 78.769,1.938 c 2.0285,-3.282 -2.5337,-7.046 -5.2491,-4.33 -2.2714,2.271 -0.8498,6.469 2.1905,6.469 0.9549,0 2.3313,-0.962 3.0586,-2.139 z m 29.3624,-3.654 c 3.8954,-7.532 0.03,-10.579 -5.2117,-4.107 -2.795,3.452 -3.1244,5.136 -1.4086,7.203 3.0132,3.63 3.183,3.551 6.6203,-3.096 z m -54.0734,2.098 c 0,-2.287 -5.7268,-6.981 -6.9833,-5.723 -1.7824,1.781 1.4442,7.45 4.2413,7.45 1.5081,0 2.742,-0.776 2.742,-1.727 z m -26.4567,-2.399 c 2.1112,-3.414 -4.4859,-9.023 -7.3024,-6.206 -1.7446,1.745 -1.6904,3.017 0.227,5.328 2.9693,3.578 5.2335,3.859 7.0754,0.878 z m 36.1881,-15.764 c -1.0979,-2.052 -2.8787,-3.73 -3.9572,-3.73 -3.2529,0 -4.4132,5.754 -1.7965,8.908 3.6196,4.361 8.5056,-0.03 5.7537,-5.178 z m 30.3661,1.73 c 1.4106,-2.236 1.2372,-4.076 -0.5924,-6.28 -3.456,-4.163 -5.4697,-3.928 -8.0779,0.945 -1.6217,3.031 -1.5643,4.798 0.2262,6.955 2.7973,3.372 5.6403,2.826 8.4441,-1.62 z m -82.5948,-0.789 c 1.2618,-3.288 -1.8574,-8.609 -5.0472,-8.609 -3.0995,0 -4.179,5.83 -1.6448,8.883 3.144,3.788 5.1649,3.706 6.692,-0.274 z m 25.5866,1.525 c 0.5706,-0.924 -0.2032,-3.36 -1.7197,-5.414 -2.1585,-2.924 -3.2803,-3.218 -5.1682,-1.358 -1.9023,1.876 -1.8794,3.017 0.1092,5.413 2.8147,3.392 5.2242,3.874 6.7795,1.359 z m 11.0875,-15.153 c 2.0919,-2.52 1.9628,-3.621 -0.7431,-6.328 -3.0553,-3.054 -3.4961,-3.054 -6.5513,0 -2.7059,2.707 -2.8352,3.808 -0.7432,6.328 1.3928,1.678 3.2013,3.051 4.0188,3.051 0.8175,0 2.6259,-1.373 4.0188,-3.051 z m 27.9191,-9.19 -3.985,-3.985 -2.3229,4.341 c -1.9076,3.563 -1.7122,5.015 1.0926,8.113 3.3604,3.713 3.4622,3.707 6.3079,-0.355 2.6076,-3.722 2.5002,-4.522 -1.0926,-8.114 z m -79.8406,3.516 c -0.6511,-1.697 -2.0974,-3.085 -3.214,-3.085 -2.2646,0 -2.7821,6.466 -0.6851,8.563 2.1609,2.161 5.1947,-2.101 3.8991,-5.478 z m 25.2564,4.804 c 0.6639,-1.074 0.4281,-3.343 -0.5238,-5.046 -1.5451,-2.76 -1.9967,-2.771 -4.2128,-0.103 -2.4904,3.001 -1.4547,7.101 1.7936,7.101 0.9549,0 2.2792,-0.88 2.943,-1.953 z m 84.4364,-8.567 c -4.806,-4.142 -5.9495,-4.445 -7.3563,-1.95 -1.1342,2.012 -0.2275,4.487 2.8418,7.754 3.9336,4.187 4.87,4.435 7.3562,1.948 2.4863,-2.486 2.1246,-3.473 -2.8417,-7.752 z m -97.2213,-8.116 c 0,-1.323 -1.6278,-3.879 -3.6174,-5.68 -3.3889,-3.066 -3.8539,-3.011 -7.3644,0.867 -3.698,4.086 -3.686,4.19 0.9194,7.919 3.5807,2.899 5.2942,3.258 7.3644,1.54 1.4839,-1.232 2.698,-3.322 2.698,-4.646 z m 23.6,1.929 c 1.3363,-1.609 1.8532,-4.429 1.1486,-6.265 -1.1629,-3.031 -1.6593,-2.96 -5.3801,0.76 -2.2545,2.254 -3.4964,5.074 -2.7598,6.267 1.8324,2.964 4.1047,2.716 6.9913,-0.762 z m 29.6359,-2.101 c 2.1197,-2.554 1.8666,-3.732 -1.5298,-7.129 l -4.0692,-4.068 -2.3026,4.302 c -1.7648,3.298 -1.7546,4.963 0.043,7.129 2.9995,3.614 4.7073,3.563 7.8583,-0.234 z m 357.0753,-53.53 c -3.8778,-3.32 -8.2784,-2.461 -13.2712,-2.461 2.0196,21.632 2.546,38.324 2.546,59.052 h 13.8789 c 1.4243,-18.474 0.8376,-40.111 -3.1537,-56.591 z m -328.0354,49.375 c 0.3229,-2.175 -0.8802,-5.172 -2.6736,-6.661 -2.812,-2.333 -3.6352,-2.193 -5.9843,1.02 -2.3528,3.217 -2.2763,4.219 0.5614,7.355 3.9592,4.374 7.2977,3.668 8.0965,-1.714 z m 21.0143,-3.118 c -1.6985,-8.061 -4.87,-11.759 -4.87,-5.678 0,4.548 3.2084,12.074 5.1466,12.074 0.5894,0 0.4648,-2.878 -0.2766,-6.396 z m -93.111,-2.765 c 4.4876,-4.062 4.4808,-4.967 -0.075,-10.221 -4.6389,-5.349 -5.0087,-5.313 -9.0471,0.849 -3.1383,4.791 -3.1337,5.309 0.078,8.858 4.1499,4.587 4.5204,4.607 9.0443,0.514 z m 27.2897,-5.684 c 1.9174,-2.311 1.9716,-3.585 0.2271,-5.33 -2.8165,-2.815 -9.4137,2.792 -7.3024,6.208 1.8418,2.981 4.106,2.699 7.0753,-0.878 z m 29.0597,-4.18 c 0.3229,-2.176 -0.8119,-5.116 -2.5219,-6.535 -2.6161,-2.172 -3.5439,-1.989 -5.85,1.156 -2.3673,3.227 -2.3113,4.213 0.4099,7.229 3.834,4.25 7.1716,3.475 7.962,-1.85 z m 28.5392,-1.705 c 3.3302,-4.575 3.3459,-5.261 0.2678,-11.748 -1.798,-3.788 -3.5931,-6.889 -3.989,-6.889 -0.3959,0 -2.5705,3.628 -4.8324,8.061 -3.9023,7.649 -3.9391,8.253 -0.7191,11.81 4.3058,4.759 4.9766,4.668 9.2727,-1.234 z m -100.0551,-4.784 c 3.424,-3.784 2.8386,-11.253 -0.7101,-9.061 -2.4498,1.515 -6.2876,12.924 -4.3473,12.924 0.8586,0 3.1343,-1.739 5.0574,-3.863 z m 29.7172,-1.551 c 2.0934,-2.853 1.9938,-4.036 -0.5802,-6.889 -3.8201,-4.235 -7.144,-4.381 -10.4014,-0.455 -2.0305,2.446 -1.8401,3.698 1.0482,6.89 4.3457,4.802 6.6663,4.908 9.9334,0.454 z m 25.6613,-9.547 c -1.2152,-3.166 -1.5881,-3.192 -4.4752,-0.304 -1.8856,1.885 -2.6175,4.535 -1.8238,6.604 1.2153,3.166 1.5882,3.191 4.4753,0.305 1.8857,-1.885 2.6175,-4.535 1.8237,-6.605 z m 31.1313,-1.278 c 4.6318,-5.879 4.7725,-6.598 1.735,-8.858 -5.3246,-3.964 -9.204,-2.855 -12.9337,3.698 -3.343,5.873 -3.343,6.246 0,8.783 4.9289,3.739 5.5585,3.535 11.1987,-3.623 z m -69.7421,-7.196 c -0.016,-0.643 -0.8483,-2.464 -1.8484,-4.045 -1.5558,-2.459 -2.4029,-2.344 -5.8751,0.797 -4.5789,4.144 -5.2588,8.204 -1.5964,9.53 2.3668,0.858 9.3819,-3.871 9.3199,-6.282 z m 26.2954,2.123 c 3.0514,-3.372 2.9392,-3.893 -1.7949,-8.341 l -5.0495,-4.743 -3.6803,4.879 c -3.375,4.473 -3.4204,5.165 -0.5474,8.339 3.9943,4.415 6.9887,4.378 11.0721,-0.132 z m 25.6419,-5.964 c 3.0625,-3.384 3.0682,-3.853 0.08,-6.333 -2.7891,-2.315 -3.7309,-2.058 -6.9285,1.891 -6.0994,7.532 0.2977,11.682 6.849,4.442 z m -38.9496,-11.601 c -1.5601,-1.56 -10.9405,5.868 -9.7805,7.746 0.6506,1.053 3.2748,-0.07 5.8806,-2.52 2.5881,-2.431 4.343,-4.783 3.8999,-5.226 z m 101.2098,-10.334 v -19.684 h -25.0525 -25.0522 l 12.7498,7.382 c 7.0124,4.06 18.0645,12.847 24.5602,19.525 6.4957,6.679 12.0319,12.215 12.3026,12.303 0.2706,0.09 0.4921,-8.699 0.4921,-19.526 z m -74.7994,10.623 c 0,-3.624 -9.5139,-5.835 -12.4466,-2.892 -1.7776,1.784 -1.1799,3.183 2.5699,6.016 5.1182,3.867 9.8767,2.362 9.8767,-3.124 z" fill="#00B894" transform="translate(9.6371127,-118.59629) matrix(0.26458333,0,0,0.26458333,511.27931,-4330.7441)"/>
</svg>