<?xml version="1.0" ?><svg height="392.48932mm" viewBox="0 0 289.23279 392.48932" width="289.23279mm" xmlns="http://www.w3.org/2000/svg">
    <path d="m 43388.584,18243.26 c -3.024,-0.258 -7.116,2.607 -10.539,8.265 -6.086,10.06 6.148,41.301 6.148,41.301 0,0 -7.452,26.437 -4.099,43.147 0,0 6.085,16.654 33.347,33.588 27.263,16.935 86.073,18.667 102.157,17.773 16.084,-0.894 32.974,-27.441 32.974,-27.441 0,0 64.09,20.455 93.526,6.818 29.436,-13.637 28.193,-28.448 24.902,-36.049 -3.292,-7.601 -22.045,-19.113 -36.08,-31.297 -14.035,-12.183 -5.651,-17.604 -0.621,-22.355 5.03,-4.75 23.783,-3.913 21.982,-13.694 -1.801,-9.78 -15.09,-14.866 -32.043,-11.904 -16.954,2.962 -21.239,13.638 -32.293,15.426 -11.054,1.789 -24.281,0.224 -36.701,-7.6 -12.42,-7.825 -30.74,-5.981 -42.353,2.012 -11.613,7.992 -6.023,21.126 5.652,17.885 11.675,-3.242 30.491,4.134 29.187,13.355 -1.304,9.222 -13.103,19.395 -13.103,19.395 0,0 -15.588,4.861 -33.721,5.14 -18.134,0.28 -42.29,-10.45 -51.357,-19.839 -9.066,-9.389 -32.666,-13.19 -43.223,-19.002 -10.557,-5.813 -8.88,-19.057 -9.439,-28.502 -0.245,-4.133 -1.951,-6.222 -4.303,-6.422 z m -272.684,45.896 c -11.604,0.03 -23.335,3.556 -27.98,10.223 -8.258,11.851 3.02,34.924 16.945,59.842 v 0 c 0,0 39.132,48.185 54.676,55.131 15.544,6.949 36.322,0.1 36.322,0.1 0,0 53.487,43.474 77.612,47.506 24.126,4.031 42.153,-39.346 46.74,-52.752 4.588,-13.406 -0.81,-38.324 -4.858,-37.644 -4.048,0.68 -19.969,5.538 -25.15,4.08 -5.182,-1.457 -24.505,-6.946 -31.467,-12.289 -6.963,-5.343 -13.275,-21.907 -13.275,-21.907 l -22.83,26.375 c 0,0 -6.964,0.194 -11.174,-2.914 -4.21,-3.109 -59.585,-59.21 -72.107,-69.265 -5.478,-4.399 -14.428,-6.5 -23.454,-6.481 z m 317.846,216.067 c -2.958,0.04 -6.251,0.988 -8.558,2.468 -6.153,3.949 -21.51,28.989 -24.934,35.971 -3.424,6.982 -24.721,24.51 -29.215,39.486 -4.495,14.976 9.898,32.069 22.9,55.04 0,0 1.338,3.66 4.495,11.654 3.157,7.993 45.32,31.348 55.539,36.789 10.22,5.442 42.858,15.65 56.181,18.588 13.323,2.937 33.655,10.979 42.912,14.398 9.256,3.418 40.505,10.063 48.692,9.485 8.186,-0.578 36.384,-6.838 46.496,-10.401 10.113,-3.564 15.838,-18.395 14.287,-32.697 -1.552,-14.301 -14.769,-38.522 -16.053,-47.912 -1.284,-9.39 12.362,-32.455 14.02,-42.182 1.659,-9.727 -22.579,-3.323 -31.996,1.252 -9.417,4.574 -42.217,6.211 -42.217,6.211 0,0 -7.063,-34.574 -20.172,-32.84 -13.109,1.733 -20.227,28.266 -20.227,28.266 0,0 -14.928,-3.662 -21.83,-9.44 -6.903,-5.779 -43.5,-19.55 -52.757,-28.603 -9.256,-9.053 -25.147,-9.534 -33.012,-13.338 -7.865,-3.804 -3.531,-22.536 1.338,-33.178 3.043,-6.651 -0.958,-9.088 -5.889,-9.017 z m -404.557,18.416 c -8.045,0.154 -16.312,3.232 -20.919,9.382 -8.19,10.935 -23.618,33.331 -34.061,49.018 -10.442,15.686 -39.052,27.773 -53.377,29.275 -14.324,1.503 -13.16,-22.882 -13.16,-22.882 l -8.734,-37.555 -20.653,23.617 -34.82,11.772 -23.914,-20.612 -2.174,29.416 c 0,0 -13.742,25.295 -21.273,43.252 -1.133,41.773 21.6,46.427 35.769,52.785 14.17,6.359 60.715,-12.855 60.715,-12.855 l 25.078,8.279 c 0,0 16.226,-2.06 23.602,-2.41 7.376,-0.349 18.787,-0.456 43.515,-12.683 24.728,-12.227 61.025,-46.989 67.158,-72.667 6.134,-25.678 3.3,-62.606 -6.211,-70.257 -4.16,-3.348 -10.283,-4.995 -16.541,-4.875 z m 218.084,186.888 c -3.698,-0.01 -7.653,0.496 -11.804,1.662 -22.138,6.222 -57.979,49.041 -75.487,67.538 -17.508,18.496 -34.127,8.734 -34.127,8.734 0,0 -6.407,-9.705 -15.796,-15.014 -9.388,-5.309 -27.339,-5.367 -41.168,11.873 -13.828,17.241 -29.372,18.724 -44.659,18.039 -15.288,-0.685 -28.863,-0.06 -37.617,21.467 -8.754,21.522 9.517,15.871 17.764,10.733 8.246,-5.137 19.092,-7.65 21.566,5.252 2.474,12.902 -15.034,41.161 -21.631,49.439 0,0 -14.844,12.217 -5.328,25.062 9.515,12.846 26.959,3.426 47.575,-9.191 20.617,-12.616 46.181,-57.66 46.181,-57.66 0,0 18.459,-0.97 31.336,-1.084 12.878,-0.114 98.705,-29.058 132.008,-51.494 33.303,-22.436 21.758,-53.779 19.918,-65.653 -1.494,-9.648 -12.704,-19.635 -28.731,-19.703 z m 244.995,113.549 c -13.147,-0.586 -25.323,6.33 -30.879,14.824 -17.437,61.425 33.932,83.494 66.314,96.446 32.383,12.953 50.76,2.442 66.481,11.609 15.721,9.166 36.423,18.631 64.045,16.34 27.622,-2.292 39.413,-15.196 47.716,-42.695 8.303,-27.499 -11.236,-45.582 -11.236,-45.582 0,0 -7.308,-21.521 -11.127,-20.127 -3.82,1.395 -9.355,11.009 -9.355,11.009 l -47.163,4.983 c 0,0 -12.953,-17.786 -17.492,-15.694 -4.539,2.093 -6.422,26.206 -6.422,26.206 0,0 -3.762,5.23 -10.183,6.525 -6.421,1.296 -17.88,-2.838 -37.199,-10.51 -19.319,-7.672 -26.792,-34.774 -45.502,-47.328 -5.847,-3.923 -12.023,-5.739 -17.998,-6.006 z m -710.666,124.459 c -0.137,0.01 -0.245,0.06 -0.321,0.153 -2.439,2.878 -19.732,25.957 -19.732,25.957 0,0 -40.064,8.488 -45.539,6.341 -5.476,-2.147 -15.883,-10.927 -17.998,-2.486 -2.114,8.44 -4.011,38.445 2.277,70.793 7.861,24.54 63.645,29.857 63.645,29.857 0,0 38.273,20.151 57.193,25.811 18.92,5.659 84.516,-3.952 119.863,-19.369 35.346,-15.418 33.991,-33.86 28.949,-60.645 -5.042,-26.785 -36.058,-36.462 -48.248,-39.617 -32.039,-8.292 -103.546,-1.756 -103.546,-1.756 0,0 -32.306,-35.44 -36.543,-35.039 z m 524.271,22.428 c -61.59,1.32 -138.911,31.895 -179.879,62.084 -40.968,30.189 -101.948,120.78 -113.588,153.195 0,0 34.279,-15.671 57.008,-15.424 22.73,0.248 50.316,23.59 50.316,23.59 0,0 41.701,-24.251 73.137,-28.375 31.436,-4.124 53.891,25.819 53.891,25.819 0,0 50.591,-26.725 70.846,-28.375 20.255,-1.649 59.39,29.613 59.39,29.613 0,0 45.457,-25.654 61.955,-25.076 16.497,0.577 50.225,25.982 50.225,25.982 0,0 37.945,-23.919 53.25,-25.816 15.306,-1.897 63.055,11.711 63.055,11.711 0,0 -66.262,-107.31 -102.006,-142.448 -35.744,-35.138 -136.011,-67.8 -197.6,-66.48 z m -246.158,259.65 c -7.982,-0.171 -15.917,0.793 -23.512,2.959 -40.51,11.547 -58.658,30.023 -71.672,59.717 0,0 -9.442,27.468 5.039,67.389 14.481,39.922 103.475,48.417 146.368,38.519 42.891,-9.898 42.433,-60.708 26.669,-107.64 -12.808,-38.133 -48.303,-60.203 -82.892,-60.944 z m 168.381,169.389 c -27.953,-1.072 -74.513,15.343 -88.535,52.543 -14.023,37.199 29.321,88.685 51.959,113.512 0,0 66.179,0.23 125.66,-0.76 59.482,-0.99 69.012,-21.528 64.521,-33.24 -4.491,-11.713 -22.452,-41.159 -43.349,-72.09 -20.896,-30.931 -82.302,-58.893 -110.256,-59.965 z" fill="#FFFFFF" paint-order="markers stroke fill" transform="translate(-16.89522,45.885857) matrix(0.26458333,0,0,0.26458333,-10393.133,-4185.6317) translate(-3313.5291,-2437.8203)"/>
    <path d="m 43450.998,18084.104 c -4.06,0 -6.154,8.714 -8.666,36.046 -1.315,14.334 -4.192,43.468 -6.391,64.731 -2.196,21.264 -3.03,41.169 -1.855,44.232 4.808,12.527 9.398,4.016 11.719,-21.722 4.599,-51.062 7.643,-123.287 5.193,-123.287 z m 23.719,45.173 c -1.734,0 -5.167,19.058 -7.635,42.35 -2.464,23.294 -5.5,50.397 -6.744,60.23 -1.805,14.261 -1.142,17.883 3.279,17.883 4.404,0 6.438,-10.687 9.897,-51.959 5.194,-61.983 5.307,-68.504 1.203,-68.504 z m -395.024,86.137 c -15.091,0 -26.755,5.717 -26.755,13.119 0,4.301 3.145,4.96 14.794,3.096 19.81,-3.168 19.36,3.536 -0.921,13.717 -23.671,11.878 -32.368,21.332 -32.368,35.174 0,15.151 14.257,27.365 31.94,27.365 8.095,0 12.445,1.777 12.445,5.084 0,2.799 1.088,10.522 2.418,17.17 l 2.416,12.08 -28.086,-1.801 c -31.424,-2.017 -40.101,0.522 -32.621,9.535 7.77,9.358 29.42,14.5 50.6,12.012 10.906,-1.282 20.573,-0.776 21.757,1.142 3.073,4.971 -2.84,7.649 -20.107,9.114 -18.733,1.588 -22.544,4.985 -13.232,11.793 9.13,6.678 18.221,6.644 31.291,-0.116 9.957,-5.148 10.864,-4.846 22.931,7.629 6.915,7.144 19.789,17.462 28.617,22.932 l 16.051,9.941 -1.738,22.942 c -0.957,12.619 -0.827,23.855 0.285,24.967 5.2,4.791 10.517,-0.639 14.055,-8.149 7.177,-31.686 7.928,-33.118 7.847,-14.765 -0.1,19.783 1.739,23.2 10.641,19.783 5.11,-1.961 5.756,-5.548 3.733,-20.803 -1.345,-10.135 -1.55,-18.428 -0.459,-18.428 1.092,0 7.993,6.647 15.334,14.774 13.723,15.191 39.159,25.912 61.466,25.912 12.567,0 27.9,-7.353 37.541,-18.004 l 6.938,-7.668 16.164,11.609 c 8.891,6.387 17.204,10.571 18.476,9.297 4.297,-4.299 -1.983,-13.646 -14.195,-21.127 l -12.144,-7.443 18.492,0.947 c 14.373,0.739 18.496,-0.286 18.496,-4.582 0,-3.524 -5.713,-6.738 -15.723,-8.85 -17.288,-3.642 -16.917,-2.722 -17.369,-44.802 -0.195,-18.033 -0.462,-18.473 -10.82,-17.735 -5.841,0.415 -13.446,3.314 -16.901,6.438 -5.648,5.113 -7.763,5.099 -21.095,-0.139 -12.841,-5.042 -15.278,-7.878 -18.241,-21.232 -2.608,-11.743 -5.357,-15.691 -11.552,-16.571 -6.28,-0.894 -9.837,2.199 -15.664,13.618 -4.147,8.13 -9.51,15.995 -11.922,17.486 -2.735,1.688 -16.979,-10.545 -37.963,-32.607 -42.55,-44.741 -48.793,-47.973 -89.809,-46.539 -38.333,1.342 -43.137,-3.582 -16.613,-17.022 19.171,-9.716 22.9,-14.824 22.9,-31.363 0,-13.38 -6.255,-18.93 -21.33,-18.93 z m 106.651,7.397 c -1.895,0 -4.298,2.912 -5.34,6.472 -1.624,5.568 -3.786,60.488 -2.688,68.43 0.688,4.99 6.939,2.91 9.235,-3.076 3.621,-9.435 2.576,-71.826 -1.207,-71.826 z m 203.334,11.873 c -11.914,0 -24.742,16.421 -24.742,31.67 0,13.458 9.069,28.562 17.152,28.562 6.536,0 6.593,-0.903 1.217,-18.852 -3.059,-10.195 -3.09,-16.026 -0.117,-21.14 3.588,-6.18 4.101,-5.567 4.218,4.9 0.138,14.712 7.432,22.439 25.873,27.405 7.767,2.091 19.125,9.064 25.242,15.492 17.089,17.977 28.537,22.31 58.924,22.31 22.546,-1.636 23.333,-1.349 32.254,17.918 7.898,18.428 15.158,11.832 1.946,24.244 -7.501,7.048 -10.09,7.66 -16.243,3.817 -9.83,-6.14 -15.136,-5.757 -20.423,1.478 -3.828,5.234 -7.845,5.516 -29.854,2.09 -13.987,-2.178 -32.931,-7.59 -42.098,-12.025 -14.794,-7.163 -16.391,-9.151 -14.248,-17.694 2.224,-8.859 1.636,-9.43 -7.388,-7.166 -12.42,3.118 -19.37,-8.051 -16.399,-26.355 2.31,-14.228 0.541,-15.436 -9.41,-6.43 -8.472,7.667 -9.004,27.691 -1.141,42.897 l 5.745,11.105 -17.04,8.279 c -9.37,4.552 -17.039,10.483 -17.039,13.174 0,8.839 19.487,7.261 36.129,-2.925 14.927,-9.138 19.959,-4.569 6.657,6.041 -5.879,4.687 -8.98,9.902 -7.405,12.451 4.249,6.875 11.49,5.196 20.936,-4.858 8.442,-8.988 9.021,-9.075 20.418,-3.015 7.926,4.21 24.162,6.734 50.035,7.781 19.912,1.513 35.34,-5.925 42.98,13.367 2.573,6.5 6.343,13.991 8.379,16.647 13.43,16.09 10.922,-15.162 8.729,-28.356 -1.892,-11.385 5.117,-11.625 11.789,-0.939 6.002,9.605 19.697,10.064 19.697,0.656 0,-3.781 -4.258,-10.873 -9.461,-15.762 -12.911,-12.132 -7.079,-15.974 13.28,-8.75 22.259,7.903 59.608,7.467 75.755,-0.885 21.674,-11.209 44.653,-32.655 44.653,-41.681 0,-8.446 -2.632,-9.946 -25.453,-14.543 -7.586,-1.526 -15.862,-7.169 -21.647,-14.752 -11.384,-14.924 -11.596,-17.217 -1.594,-17.217 21.628,0 28.962,-16.939 14.159,-32.695 -11.474,-12.211 -34.067,-11.981 -46.524,0.478 -13.046,13.047 -37.965,14.579 -49.451,3.039 -12.906,-12.964 -38.29,-11.801 -53.551,2.455 -19.593,18.303 -13.064,35.918 12.502,33.717 16.001,-1.38 23.098,4.018 16.289,12.387 -3.864,4.752 -10.17,5.358 -34.836,3.348 -25.769,-2.101 -32.507,-4.19 -46.679,-14.475 -9.693,-7.033 -21.152,-12.02 -27.629,-12.02 -14.645,0 -25.154,-12.897 -25.323,-31.056 -0.112,-12.401 -1.237,-14.117 -9.263,-14.117 z m -184.375,2.537 c -0.109,0.06 -0.22,0.182 -0.332,0.384 -3.992,7.154 -8.627,75.596 -5.342,78.881 6.956,6.957 8.665,-1.166 8.551,-40.965 -0.07,-23.76 -1.244,-39.137 -2.877,-38.3 z m 419.924,20.826 c 8.689,-0.04 18.277,2.788 18.277,6.383 0,1.79 -3.812,4.274 -8.471,5.523 -12.739,3.413 -16.531,2.889 -21.383,-2.957 -3.541,-4.266 -2.823,-5.837 3.575,-7.867 2.308,-0.732 5.105,-1.067 8.002,-1.082 z m -92.991,2.83 c 7.946,0.272 15.471,3.599 19.446,9.664 4.683,7.15 8.203,8.881 14.185,6.982 18.928,-6.006 41.742,-0.93 47.951,10.668 9.138,14.981 19.653,31.46 38.848,36.62 -2.793,9.973 1.346,17.219 2.914,18.929 1.372,1.497 -10.218,7.256 -17.603,9.713 -30.461,10.133 -70.09,4.415 -90.813,-13.701 -11.932,-11.209 -12.893,-35.428 -1.523,-38.402 9.882,-2.588 9.936,-18.132 0.08,-27.053 -5.781,-5.233 -11.014,-6.2 -23.53,-4.354 -14.831,2.186 -15.522,1.931 -8.789,-3.267 4.449,-3.435 9.923,-5.31 15.409,-5.727 v 0 c 1.144,-0.09 2.287,-0.111 3.422,-0.07 z m 79.272,36.687 c -0.508,-0.03 -1.045,0.02 -1.617,0.166 -4.836,2.707 -4.688,8.158 -4.055,11.071 0.633,2.914 4.064,6.011 9.338,5.32 6.554,0.1 5.66,-5.168 3.676,-8.807 -1.736,-3.183 -3.789,-7.515 -7.342,-7.75 z m -500.729,0.05 c 5.384,0.34 11.669,1.85 18.227,4.59 l 13.951,5.828 -10.352,10.807 c -6.878,7.181 -9.529,12.942 -7.904,17.182 2.13,5.554 4.017,4.862 14.529,-5.327 13.235,-12.831 17.276,-14.372 17.276,-6.599 0,2.81 -5.826,9.554 -12.947,14.986 -12.961,9.885 -17.182,20.594 -8.123,20.594 2.653,0 10.472,-5.83 17.376,-12.953 8.401,-8.664 13.785,-11.724 16.268,-9.242 2.485,2.483 -0.82,8.353 -9.98,17.732 -7.529,7.713 -13.692,15.201 -13.692,16.639 0,6.497 10.725,1.505 22.201,-10.334 8.844,-9.131 13.706,-11.788 16.446,-9.018 2.728,2.76 2.011,4.998 -2.401,7.488 -8.69,4.904 -17.75,14.32 -17.75,18.444 0,6.701 9.049,3.285 20.36,-7.678 10.265,-9.947 12.209,-10.572 18.531,-5.947 6.047,4.422 6.346,6.035 2.059,11.197 -3.251,3.917 -7.739,5.182 -12.805,3.609 -7.342,-2.283 -7.343,6.674 0.883,10.6 3.078,1.468 1.582,15.639 -5.358,15.754 -1.831,0.03 -5.324,1.327 -7.765,2.881 -2.688,1.709 -5.992,-0.08 -8.377,-4.545 -2.167,-4.051 -6.193,-6.5 -8.942,-5.443 -5.964,2.289 -34.813,-21.362 -46.566,-38.178 -5.809,-8.331 -7.638,-14.761 -6.004,-21.27 1.916,-7.642 1.003,-9.326 -5.059,-9.326 -7.775,0 -12.988,-12.128 -10.607,-24.678 1.078,-5.672 7.552,-8.358 16.525,-7.793 z m 476.08,1.936 c -4.271,-0.462 -8.499,5.773 -5.968,12.367 2.426,6.319 10.406,6.127 12.435,-0.295 0.614,-1.94 -0.478,-6.056 -2.43,-9.142 -1.184,-1.877 -2.613,-2.776 -4.037,-2.93 z m -342.82,53.283 c 0.533,-0.129 0.656,1.92 0.848,6.033 0.216,4.641 2.919,9.409 6.006,10.594 3.088,1.184 5.17,4.703 4.623,7.822 -0.543,3.118 1.089,6.396 3.632,7.284 2.546,0.89 4.625,-0.185 4.625,-2.391 0,-2.203 1.667,-4.006 3.7,-4.006 2.034,0 3.697,3.33 3.697,7.398 0,8.015 5.416,9.898 9.494,3.303 1.766,-2.862 8.089,-3.433 7.746,0.606 -0.67,7.894 6.282,4.438 11.789,-2.91 9.06,-12.088 12.901,-9.883 12.627,7.488 -0.254,16.151 -2.319,26.307 -16.896,42.373 -9.358,10.309 -17.362,10.736 -17.362,0.924 0,-4.067 1.666,-7.397 3.7,-7.397 2.036,0 3.699,-2.497 3.699,-5.549 0,-3.083 -3.289,-5.546 -7.399,-5.546 -4.888,0 -7.398,2.464 -7.398,7.265 0,3.996 -2.914,8.76 -6.473,10.586 -15.63,8.008 -24.934,7.512 -37.017,-1.982 -11.127,-8.74 -11.552,-9.831 -5.549,-14.243 5.993,-4.398 5.705,-5.077 -3.67,-8.656 -12.383,-4.73 -14.054,-13.532 -1.848,-9.748 4.577,1.417 12.484,3.544 17.569,4.725 8.052,1.87 8.631,1.401 4.472,-3.635 -2.628,-3.179 -8.871,-6.809 -13.873,-8.066 -12.21,-3.063 -11.495,-12.203 1.543,-19.686 5.855,-3.358 12.336,-10.354 14.405,-15.547 1.833,-4.601 2.777,-6.91 3.31,-7.039 z m -327.322,14.283 -2.531,9.41 c -1.392,5.179 -3.669,29.32 -5.059,53.647 -1.82,31.884 -1.337,44.23 1.732,44.23 2.341,0 5.033,-3.809 5.981,-8.468 3.169,-15.568 4.86,-79.877 2.353,-89.409 z m 88.836,20.909 c -8.598,-0.383 -17.351,0.787 -22.741,3.671 -10.641,5.696 -18.615,23.642 -18.615,41.895 0,14.991 1.702,17.619 26.381,40.658 27.166,25.354 30.591,31.966 20.418,39.402 -3.243,2.375 -14.725,18.656 -25.51,36.18 -16.083,26.126 -23.297,34.067 -40.062,44.104 -23.939,14.333 -25.981,12.917 -30.654,-21.27 -1.527,-11.177 -5.537,-23.035 -8.909,-26.353 -5.635,-5.539 -6.864,-5.189 -15.107,4.3 -4.938,5.683 -10.467,12.996 -12.291,16.254 -1.823,3.258 -10.657,7.575 -19.625,9.59 -15.357,3.45 -16.999,2.994 -28.119,-7.785 -17.381,-16.844 -20.865,-15.024 -20.865,10.918 0,12.298 0.706,19.772 -3.817,24.723 -5.424,5.937 -18.771,31.388 -18.771,42.738 0,9.047 -2.18,11.838 -11.903,15.225 -14.695,5.124 -11.01,9.927 6.461,8.423 14.706,-1.268 16.416,2.707 5.442,12.635 -12.171,11.018 -9.539,18.654 3.189,9.244 l 10.711,-7.92 14.281,9.688 c 10.991,7.456 18.975,9.693 34.649,9.693 24.48,0 36.753,-5.82 55.086,-26.111 10.338,-11.443 16.681,-15.297 25.158,-15.297 6.099,-0.383 22.518,5.066 22.564,-2.592 0,-2.753 -6.567,-5.899 -15.203,-7.281 -16.954,-2.712 -18.292,-10.145 -2.164,-12.045 5.916,-0.697 9.615,-3.099 8.705,-5.65 -0.87,-2.437 -5.204,-4.031 -9.635,-3.536 -5.586,0.621 -8.054,-1.186 -8.054,-5.894 0,-4.656 6.304,-9.406 20.052,-15.104 24.487,-10.151 39.436,-25.269 55.42,-56.043 13.87,-26.714 22.501,-31.573 36.973,-20.81 7.841,5.836 10.143,11.079 11.063,25.226 0.772,11.861 -0.177,17.033 -2.823,15.397 -8.296,-5.127 -12.009,2.314 -5.851,11.715 4.952,7.555 5.305,11.605 1.912,21.887 -5.252,15.907 -34.585,43.59 -59.654,56.293 -10.618,6.539 -21.678,9.619 -33.014,13.857 -10.14,-6.953 -12.48,-0.614 -27.906,-0.365 -19.041,0 -44.646,58.824 -34.145,78.441 7.934,14.827 26.536,6.904 20.531,-8.744 -2.868,-7.474 12.792,-58.402 17.959,-58.402 2.47,0 3.123,3.743 1.664,9.562 -3.573,14.235 -1.483,43.312 6.688,56.752 12.306,20.235 22.707,8.311 18.791,-4.668 -6.2,-20.546 -2.931,-37.627 -2.049,-56 l 18.801,-6.605 c 10.339,-3.631 31.243,-15.514 46.453,-26.405 21.762,-15.583 29.662,-23.941 37.096,-39.244 8.811,-18.15 10.347,-19.447 22.992,-19.277 20.8,0.265 44.797,-14.419 44.797,-27.412 0,-11.172 -5.902,-11.414 -25.848,-1.063 -12.582,6.524 -21.313,8.882 -25.766,6.947 -6.231,-2.704 -6.172,-3.036 0.795,-4.435 17.696,-3.55 28.962,-10.398 34.397,-20.906 5.083,-9.828 5.125,-11.916 0.33,-16.711 -4.794,-4.794 -6.373,-4.338 -12.645,3.635 -10.762,13.684 -22.638,19.194 -25.47,11.814 -1.242,-3.236 -2.258,-8.955 -2.258,-12.707 0,-3.753 -4.659,-11.835 -10.352,-17.959 -5.693,-6.121 -12.893,-18.565 -15.998,-27.648 -4.439,-12.984 -9.675,-19.092 -24.47,-28.54 -34.267,-21.88 -35.764,-23.405 -35.764,-36.455 0,-18.144 7.191,-25.845 22.752,-24.367 12.406,1.181 13.012,1.923 13.012,15.942 0,16.4 5.457,20.71 14.621,11.546 9.354,-9.357 7.993,-33.897 -2.284,-41.093 -4.763,-3.335 -13.204,-5.275 -21.802,-5.658 z m 262.045,5.65 c -4.7,0.548 -11.63,6.732 -9.114,10.805 3.151,5.101 12.165,4.514 14.672,-0.393 2.912,-5.699 -2.762,-10.738 -5.558,-10.412 z m 22.34,6.687 c -7.399,0 -10.361,7.172 -5.127,12.407 3.964,3.963 10.277,0.568 11.597,-6.241 0.808,-4.158 -1.301,-6.166 -6.47,-6.166 z m -352.153,12.102 c -4.272,1.647 -9.202,67.309 -5.449,75.959 2.237,5.153 3.584,3.23 5.871,-8.373 4.137,-20.915 4.131,-64.991 0,-67.543 -0.136,-0.08 -0.275,-0.1 -0.412,-0.04 z m 565.918,76.99 c -3.171,0.143 -6.269,10.679 -6.314,24.879 -0.04,11.383 1.36,15.848 4.644,14.768 5.187,-1.705 8.45,-26.455 4.756,-36.076 -0.963,-2.512 -2.029,-3.618 -3.086,-3.571 z m 15.111,0.74 c -6.291,-0.104 -8.396,29.108 -2.209,40.674 3.913,7.311 4.491,7.404 7.907,1.297 3.998,-7.141 0.696,-38.404 -4.385,-41.545 -0.455,-0.281 -0.893,-0.419 -1.313,-0.426 z m -86.552,7.032 c -8.494,0.1 -18.811,4.547 -25.92,14.068 -3.878,5.197 -7.441,14.941 -7.912,21.652 -0.533,7.61 -3.25,12.965 -7.215,14.229 -10.502,3.347 -29.404,27.613 -29.404,37.746 0,5.206 2.583,14.465 5.742,20.574 3.16,6.107 8.274,11.108 11.365,11.108 5.463,0 5.369,-4.345 -0.572,-26.659 -0.869,-3.276 2.657,-11.744 7.838,-18.822 5.181,-7.079 14.425,-20.493 20.541,-29.81 17.528,-26.703 21.931,-32.143 24.224,-29.924 1.177,1.141 0.245,8.248 -2.07,15.795 -5.525,18.004 3.069,32.953 18.945,32.953 6.386,0 14.038,3.712 19.391,9.41 11.19,11.91 18.824,12.045 18.824,0.336 0,-13.439 -20.916,-29.846 -34.566,-27.115 -9.306,1.86 -10.61,0.998 -10.61,-7.02 0,-5.026 1.995,-13.514 4.432,-18.865 5.796,-12.72 -2.112,-19.784 -13.033,-19.656 z m 61.927,57.154 c -0.358,0.04 -0.697,0.153 -1.009,0.346 -3.48,2.151 -1.451,21.505 3.056,29.134 2.837,4.808 10.386,0.736 11.758,-6.341 1.511,-7.794 -8.432,-23.725 -13.805,-23.139 z m 76.176,6.17 c -6.596,-0.687 -14.066,5.028 -22.332,17.152 -7.937,11.64 -13.757,12.109 -25.316,2.041 -8.773,-7.646 -12.6,-3.098 -8.106,9.639 2.208,6.265 6.397,10.297 10.719,10.297 4.235,0 9.503,4.908 13.076,12.15 8.337,16.727 11.143,9.908 14.996,-8.113 4.653,-20.789 12.625,-32.383 17.188,-25 1.322,2.139 3.666,11.116 5.209,19.947 2.454,14.032 3.968,15.977 12.045,15.432 21.553,-1.454 36.239,-4.293 45.965,-8.883 13.329,-6.289 16.583,-2.723 11.339,12.428 -4.609,13.314 -1.588,39.236 6.569,56.369 v 0 c 2.709,5.695 7.394,10.351 10.41,10.351 5.835,0 5.584,-1.596 -4.707,-29.654 -5.513,-15.055 -5.518,-17.052 -0.06,-23.084 7.77,-8.585 14.195,-32.119 11.279,-41.308 -1.257,-3.964 -5.543,-8.242 -9.522,-9.504 -7.313,-2.321 -38.485,9.338 -42.549,15.916 -1.211,1.965 -7.038,2.851 -12.947,1.984 -8.616,-1.264 -11.822,-4.611 -16.166,-16.902 -4.767,-13.482 -10.488,-20.571 -17.084,-21.258 z m -674.679,1.66 c 1.212,0.186 2.049,1.546 3.054,4.164 3.038,7.921 1.324,9.36 -7.375,6.199 -6.287,-2.289 -6.379,-3.002 -0.984,-7.482 2.506,-2.08 4.093,-3.067 5.305,-2.881 z m -72.237,18.893 c 0.45,0.08 0.945,0.268 1.463,0.588 2.07,1.279 3.764,3.075 3.764,3.988 0,0.91 -1.694,1.66 -3.764,1.66 -2.072,0 -3.764,-1.793 -3.764,-3.986 0,-1.645 0.95,-2.477 2.301,-2.25 z m 57.051,3.15 c 15.899,0.673 23.467,11.643 23.467,33.203 0,11.002 -1.694,18.819 -4.08,18.819 -2.228,0 -3.32,2.119 -2.397,4.707 2.875,8.058 -8.042,24.772 -22.672,34.712 -13.227,8.987 -30.677,12.435 -36,7.112 -5.143,-5.144 1.893,-8.487 8.795,-4.174 5.986,3.738 14.831,-1.679 20.178,-7.023 6.176,-6.178 1.001,-10.703 -6.959,-5.991 -10.572,6.258 -23.748,-4.526 -17.279,-8.525 6.679,-4.13 4.365,-13.289 -3.36,-13.289 -10,0 -12.704,5.73 -7.013,14.846 3.97,6.352 3.738,8.642 -1.391,13.773 -7.599,7.6 -14.514,3.421 -21.215,-6.117 -4.834,-6.881 -9.131,-14.557 -6.603,-25.092 4.831,-19.837 20.7,-39.136 38.746,-47.119 15.704,-6.946 28.243,-10.247 37.783,-9.842 z m -18.17,33.994 c -4.498,0.14 -8.391,5.998 -6.039,12.131 1.246,3.244 4.067,5.897 6.266,5.897 6.1,0 9.081,-11.245 4.263,-16.061 -1.425,-1.426 -2.991,-2.014 -4.49,-1.967 z m -35.603,1.975 c -1.872,-0.01 -4.003,0.638 -5.426,2.646 -2.385,3.368 -4.012,6.444 -1.772,10.069 3.208,5.191 11.637,5.347 12.91,-1.68 0.492,-2.716 0.862,-5.142 -1.845,-9.701 -0.383,-0.645 -1.995,-1.322 -3.867,-1.334 z m 539.091,7.777 c -12.172,-0.05 -23.125,1.091 -24.595,3.471 -3.195,5.17 10.018,11.209 30.789,14.066 l 18.033,2.481 -11.293,4.83 c -6.212,2.654 -15.107,4.914 -19.766,4.994 -8.989,0.18 -11.747,9.514 -3.765,12.736 v 0 c 13.817,5.574 62.718,-5.497 65.754,-14.89 0.748,-2.312 -3.995,-5.276 -10.543,-6.584 -10.001,-2.001 -11.16,-3.277 -7.264,-7.967 3.846,-4.637 2.922,-6.238 -5.43,-9.414 -6.354,-2.417 -19.747,-3.67 -31.92,-3.725 z m 229.098,16.803 c -4.135,-0.522 -11.006,6.202 -11.006,11.789 0,2.85 4.672,7.99 8.815,7.99 7.323,0 11.892,-11.977 3.767,-19.088 -0.451,-0.394 -0.985,-0.617 -1.576,-0.691 z m 25.01,1.914 c -8.094,0 -12.653,13.198 -7.828,15.912 6.157,3.463 8.22,3.098 13.476,-2.727 3.587,-3.975 2.124,-13.185 -5.648,-13.185 z m -333.477,9.605 v 0 c -3.928,-0.06 -6.643,3.853 -7.324,11.36 -0.549,6.038 -4.527,16.101 -8.846,22.365 -6.762,9.814 -10.25,11.522 -25.181,12.348 -25.335,1.401 -44.573,14.158 -64.385,42.693 -9.554,13.757 -23.139,27.989 -31.266,32.758 -15.157,11.405 -17.106,6.046 -30.299,-5.485 -13.092,-11.443 -18.338,-13.661 -29.507,-12.462 -10.878,1.168 -16.065,4.613 -25.989,17.281 -9.56,12.202 -16.308,16.841 -29.453,20.265 -10.67,2.779 -18.107,3.082 -19.881,0.807 -5.445,-7.019 -21.513,-1.668 -31.244,10.406 -7.536,9.348 -9.34,15.399 -8.082,27.121 1.394,12.985 2.946,15.273 11.158,16.418 10.239,1.432 14.078,-0.196 26.082,-11.06 7.41,-6.705 7.766,-6.633 8.645,1.836 1.545,14.598 -10.095,33.703 -30.516,50.082 -26.155,20.983 -30.324,31.764 4.502,36.176 9.64,1.221 19.303,-0.849 28.727,-1.01 18.767,-0.321 61,-38.087 69.062,-61.155 6.679,-19.133 12.458,-14.955 12.336,8.924 -0.107,21.263 8.059,35.646 16.514,29.075 3.245,-2.521 3.153,-9.862 -0.348,-27.114 -4.269,-21.066 -4.08,-23.59 1.735,-23.051 4.734,0.439 6.567,3.687 6.672,11.813 0.173,13.921 9.774,25.341 17.837,21.215 4.208,-2.156 5.368,-7.614 4.108,-19.344 l -1.752,-16.336 31.838,-9.889 c 35.606,-11.058 57.656,-22.524 75.08,-39.037 10.508,-9.956 13.025,-10.806 24.047,-8.107 17.406,4.262 38.217,1.269 44.377,-6.373 8.196,-10.17 2.141,-13.092 -21.799,-10.522 -12.148,1.305 -22.164,1.676 -22.254,0.817 -0.932,-8.683 4.788,-13.998 16.605,-15.463 18.778,-2.31 38.713,-12.233 37.995,-18.912 -0.481,-4.481 -5.097,-4.855 -23.707,-1.871 l -23.106,3.705 -1.148,-10.5 c -0.635,-5.776 -4.025,-14.817 -7.537,-20.088 -6.042,-9.061 -5.864,-10.047 3.222,-18.115 12.765,-11.322 18.482,-30.117 11.289,-37.106 -3.054,-2.969 -5.848,-4.433 -8.205,-4.467 z m 244.389,5.176 c -0.661,-0.06 -1.515,0.545 -2.6,1.629 -2.823,2.824 -6.075,12.144 -7.224,20.709 -1.601,11.957 -3.725,15.576 -9.123,15.576 -3.868,0 -7.032,-2.342 -7.032,-5.205 0,-7.534 -17.346,-9.713 -26.459,-3.33 -6.052,4.239 -6.822,6.603 -3.482,10.627 2.371,2.858 3.937,14.944 3.494,26.955 -0.433,11.977 -0.608,23.891 -0.353,26.481 v 0 c 0.248,2.586 3.674,4.703 7.612,4.703 8.327,0 15.427,-16.862 15.427,-36.635 0,-8.7 1.54,-12.399 4.704,-11.311 2.589,0.893 4.413,6.541 4.05,12.553 -1.128,18.831 2.137,27.865 10.069,27.865 8.453,0 13.376,-13.779 9.884,-27.673 -1.23,-4.87 -1.314,-9.769 -0.195,-10.887 1.12,-1.122 2.422,-14.079 2.897,-28.797 0.546,-16.956 0.307,-23.085 -1.676,-23.26 z m -89.967,2.791 c -7.994,0.142 -23.164,6.958 -20.174,9.947 4.459,4.459 19.041,2.845 23.565,-2.609 3.285,-3.958 3.169,-5.626 -0.479,-6.959 -0.775,-0.283 -1.77,-0.399 -2.912,-0.379 z m 23.906,14.25 c -1.338,0.07 -2.805,0.278 -4.381,0.649 -14.116,3.321 -18.892,8.427 -11.974,12.8 7.695,4.865 12.392,4.544 20.529,-1.408 8.38,-6.127 5.198,-12.525 -4.174,-12.041 z m 179.948,5.822 c -10.868,0 -17.766,9.844 -11.873,16.942 4.538,5.229 10.746,6.43 18.781,0.05 6.095,-7.347 2.175,-16.991 -6.908,-16.991 z m -95.319,11.295 c -3.778,0 -10.668,13.038 -10.668,20.188 0,3.094 2.592,8.216 5.756,11.381 6.029,6.027 16.83,4.404 16.83,-2.531 0,-7.206 -8.959,-29.038 -11.918,-29.038 z m -417.857,8.67 c -0.571,0.02 -1.158,0.268 -1.76,0.735 -3.49,2.715 -0.398,39.202 4.059,47.904 6.111,11.927 9.433,4.012 7.168,-17.076 -2.261,-21.055 -5.473,-31.728 -9.467,-31.563 z m 18.041,4.01 c -5.018,0.539 -7.12,14.551 -3.432,22.93 5.322,12.103 10.183,7.275 8.496,-8.434 -0.878,-8.176 -3.154,-14.701 -5.064,-14.496 z m 497.814,5.166 c -1.434,-0.08 -3.141,-0.02 -5.142,0.168 -16.229,1.544 -21.526,3.958 -18.709,8.518 3.845,6.222 30.002,2.783 30.002,-3.946 0,-3.002 -1.849,-4.499 -6.151,-4.74 z m -76.342,2.926 c -1.741,-0.111 -2.207,1.017 -2.207,3.332 0,3.011 2.662,8.137 5.915,11.389 6.523,6.525 20.435,8.043 20.435,2.232 0,-2.23 3.755,-1.974 9.514,0.65 10.436,4.754 21.868,-1.263 14.767,-7.771 -6.231,-5.715 -23.559,-8.306 -25.074,-3.748 -0.977,2.929 -5.18,2.31 -13.486,-1.988 -5.105,-2.638 -8.122,-3.986 -9.864,-4.096 z m -324.724,4.91 c 3.592,-0.01 7.227,0.485 10.961,1.463 8.644,2.268 10.708,5.027 11.869,15.848 1.298,12.08 0.538,13.196 -9.744,14.3 -12.637,1.357 -14.318,7.341 -2.721,9.694 10.576,2.151 10.115,6.01 -2.262,18.92 -16.916,17.646 -40.786,31.345 -72.087,41.373 -27.578,8.839 -33.608,6.197 -33.608,6.197 -1.975,-7.6 -21.349,-5.403 -20.086,5.019 0,0 -16.705,8.938 -29.707,2.782 -6.675,-3.166 -8.544,-2.802 -10.693,2.086 -8.891,20.186 -23.602,40.081 -39.965,54.064 -16.442,14.05 -23.958,19.699 -29.238,14.977 -6.365,-5.694 -14.229,-3.198 -2.371,-17.172 12.014,-14.159 16.405,-27.393 16.521,-38.248 0.09,-8.642 -1.412,-19.053 -7.506,-25.158 -6.318,-5.987 -16.828,-3.53 -26.793,4.64 -10.733,8.81 -11.748,2.573 -1.902,-11.713 7.356,-10.672 7.83,-10.809 33.06,-9.613 30.247,1.438 32.903,0.372 43.768,-17.561 9.384,-15.49 21.489,-19.026 32.256,-9.421 10.057,8.969 8.967,11.677 -4.735,11.777 -13.536,0.1 -16.103,7.976 -4.455,13.685 5.038,2.471 10.45,0.753 22.409,-7.123 8.677,-5.704 17.69,-9.456 20.035,-8.336 7.975,3.821 36.991,-16.809 58.16,-41.351 18.501,-21.444 33.267,-31.071 48.834,-31.129 z m 159.771,64.854 c -3.332,-0.08 -6.485,0.412 -9.531,1.474 -23.951,8.347 -30.422,44.537 -7.967,44.537 5.298,0 5.883,-1.6 4.088,-11.168 -1.8,-9.594 -0.938,-11.928 6.123,-16.554 10.402,-6.816 17.891,-1.756 17.891,12.091 0,10.789 11.477,24.029 23.433,27.03 6.996,1.759 7.613,3.216 5.85,13.877 l -1.969,11.914 -26.593,-1.164 c -17.533,-0.769 -26.594,0.02 -26.594,2.312 0,5.363 10.173,9.615 33.648,14.069 19.429,3.686 22.242,5.243 29.645,16.431 11.19,16.911 40.056,34.766 70.992,43.91 39.784,11.765 38.324,10.763 42.639,29.201 5.241,22.387 11.15,34.004 17.963,35.315 9.554,1.841 9.925,-8.148 1.119,-30.147 -10.164,-25.388 -10.297,-27.459 -1.772,-27.459 3.674,0 5.752,1.472 4.633,3.278 -1.113,1.804 1.712,11.44 6.277,21.414 4.567,9.974 8.303,21.354 8.303,25.291 0,3.934 1.033,8.185 2.291,9.447 v 0 c 1.261,1.245 5.263,1.866 8.893,1.346 10.285,-1.472 10.334,-17.946 0.101,-33.026 -6.869,-10.129 -7.346,-11.973 -2.582,-10.027 17.779,7.255 28.928,8.629 44.463,5.488 23.308,-4.709 31.913,-8.507 44.676,-19.712 l 11.242,-9.87 15.047,5.127 c 17.414,5.932 27.81,4.123 21.312,-3.711 -2.229,-2.684 -10.396,-6.479 -18.15,-8.431 -18.698,-4.708 -13.002,-10.289 -13.002,-10.289 30.147,1.094 32.227,-0.277 32.197,-3.94 -0.03,-3.663 -4.869,-7.924 -32.105,-8.525 0,0 1.869,-0.991 -0.123,-13.731 -1.375,-8.779 -5.443,-16.439 -12.162,-22.894 -6.145,-5.91 -10.388,-13.46 -10.844,-19.313 -1.428,-18.328 -17.172,-22.787 -23.324,-6.599 -2.178,5.725 -6.172,7.568 -19.897,9.195 -16.577,1.965 -17.599,1.618 -29.453,-9.959 -10.018,-9.782 -13.31,-11.35 -17.857,-8.5 -10.215,6.401 -7.978,43.26 2.625,43.26 1.715,0 3.117,-3.638 3.117,-8.084 0,-8.103 4.395,-10.821 8.017,-4.963 2.988,4.836 54.311,0.26 58.717,-5.234 3.001,-3.739 5.149,-2.041 11.739,9.277 10.735,18.447 13.212,31.606 8.935,47.488 -5.484,20.37 -24.661,26.98 -20.693,7.133 1.25,-6.234 0.357,-9.674 -2.825,-10.895 -6.779,-2.602 -13.41,2.601 -11.074,8.684 1.296,3.376 -1.785,9.276 -8.631,16.533 -9.118,9.668 -12.099,11.001 -20.767,9.264 -5.875,-1.173 -15.058,-7.357 -21.879,-14.729 -7.48,-8.086 -13.716,-12.122 -17.156,-11.103 -17.193,5.092 -24.536,5.182 -43.08,0.527 -25.807,-6.477 -63.475,-24.717 -73.85,-35.758 -6.689,-7.122 -7.301,-9.378 -3.977,-14.703 5.624,-9.004 4.865,-12.841 -2.539,-12.841 -5.155,0 -6.468,-2.157 -6.468,-10.602 0,-16.178 7.782,-24.971 22.099,-24.971 16.174,0 24.247,6.358 36.006,28.379 12.948,24.24 27.096,33.884 52.393,35.713 32.724,2.367 33.719,-10.804 1.525,-20.164 -17.621,-5.122 -28.211,-14.262 -40.65,-35.074 -12.583,-21.061 -32.557,-27.184 -64.512,-19.774 -28.932,6.71 -34.615,4.696 -39.928,-14.16 -3.692,-13.115 -5.937,-15.875 -15.445,-18.974 -3.759,-1.226 -7.271,-1.877 -10.604,-1.957 z m 169.791,2.375 c -0.244,-0.04 -0.506,0.09 -0.787,0.367 -4.01,4.012 -8.094,43.891 -5.248,51.301 4.588,11.958 8.553,-0.396 8.553,-26.659 0,-16.634 -0.81,-24.747 -2.518,-25.009 z m -23.07,0.08 c -0.23,-0.05 -0.465,0 -0.703,0.15 -1.55,0.959 -2.816,12.57 -2.816,25.807 0,25.724 4.481,32.51 7.347,11.127 2.012,-14.977 -0.378,-36.406 -3.828,-37.084 z m -714.16,12.332 c -0.141,0.07 -0.288,0.238 -0.441,0.511 -4.353,7.779 -9.147,126.748 -5.495,136.272 5.517,14.378 7.328,-1.135 8.221,-70.485 0.586,-45.346 -0.171,-67.332 -2.285,-66.298 z m 221.467,22.255 c -6.388,0.686 -7.729,12.586 -1.739,15.456 2.252,1.019 5.825,0.978 8.457,-1.036 3.623,-4.494 -1.272,-15.005 -6.718,-14.42 z m -22.596,5.592 c -0.69,-0.02 -1.431,0.06 -2.229,0.252 -6.938,1.674 -1.026,13.286 2.928,15.311 5.591,2.863 9.289,-2.903 7.539,-7.617 -1.116,-3.009 -3.409,-7.821 -8.238,-7.946 z m -172.334,12.819 c -4.145,0 -5.451,106.229 -1.355,110.324 6.921,6.919 9.475,-4.809 7.525,-34.549 -1.173,-17.867 -2.19,-42.222 -2.27,-54.129 -0.08,-11.906 -1.83,-21.646 -3.9,-21.646 z m 811.953,58.255 c -4.788,0.13 -7.945,7.304 -4.66,12.268 3.388,5.119 9.316,4.881 11.555,-0.949 1.068,-2.791 0.238,-6.683 -1.743,-8.758 -1.779,-1.865 -3.556,-2.604 -5.152,-2.561 z m -22.898,0.215 c -5.682,0 -8.957,5.604 -6.703,11.473 2.21,5.756 10.647,6.196 12.58,0.656 2.073,-5.937 -0.93,-12.129 -5.877,-12.129 z m -42.908,11.129 c -3.344,-0.175 -6.632,0.03 -9.493,0.733 -10.206,2.491 -9.057,6.034 3.237,9.978 17.337,5.561 28.944,4.934 27.707,-1.5 -0.904,-4.691 -11.422,-8.684 -21.451,-9.211 z m -645.569,14.557 c -1.178,0.108 -2.501,0.373 -3.959,0.816 -13.374,4.069 -21.33,13.37 -21.33,24.934 0,12.663 14.762,29.361 25.957,29.361 11.726,0 13.176,7.146 2.291,11.285 -7.226,2.748 -12.584,2.334 -20.119,-1.566 -15.082,-7.798 -35.044,-10.688 -45.773,-6.629 -8.56,3.241 -7.71,3.819 9.412,6.373 35.055,5.229 49.149,17.526 52.951,46.203 2.135,16.082 1.273,19.606 -7.145,29.305 -8.5,9.79 -10.453,10.481 -17.49,6.187 -8.898,-5.43 -16.652,-2.643 -13.74,4.94 3.148,8.204 -29.935,17.381 -70.709,19.619 -33.537,1.837 -37.074,1.418 -34.942,-4.133 2.673,-6.97 -5.13,-8.347 -15.582,-2.752 -4.151,2.221 -9.52,1.756 -15.271,-1.322 -8.742,-4.679 -8.61,-4.877 9.064,-13.432 13.632,-6.601 19.389,-12.147 23.991,-23.109 5.666,-13.502 7.08,-14.443 22.052,-14.463 21.243,-0.05 21.932,-9.422 0.944,-12.779 -8.284,-1.325 -15.063,-3.865 -15.063,-5.647 0,-1.781 6.779,-4.322 15.063,-5.646 20.348,-3.252 19.584,-10.755 -0.944,-9.256 -13.869,1.013 -16.15,0.108 -17.144,-6.799 -0.874,-6.094 1.789,-8.993 11.295,-12.312 9.413,-3.28 11.14,-5.142 7.105,-7.637 -3.088,-1.901 -9.22,-1.807 -14.574,0.226 -11.312,4.302 -17.372,-0.07 -27.437,-19.796 -9.589,-18.798 -20.51,-24.812 -29.797,-16.407 -3.779,3.42 -8.792,10.858 -11.139,16.524 -3.2,7.728 -8.92,11.727 -22.887,16.015 -18.179,5.579 -18.814,5.504 -26.849,-3.045 -4.525,-4.819 -10.517,-8.761 -13.311,-8.761 -6.949,0 -12.526,16.144 -12.129,35.107 0.58,27.536 -3.787,39.278 -17.648,47.453 -16.958,10.006 -16.393,16.448 0.816,9.258 18.58,-7.764 24.601,2.049 5.186,11.764 -18.305,9.159 -13.425,15.834 5.068,7.015 12.376,-5.904 13.345,-5.779 29.633,3.764 12.682,7.434 21.978,9.867 37.687,9.867 27.374,0 36.102,8.317 20.588,19.619 -11.59,8.441 -21.224,25.02 -18.683,32.141 3.267,9.151 10.592,4.336 21.591,-14.189 13.477,-22.701 24.108,-26.26 15.274,-5.116 -6.889,16.487 -7.195,24.774 -1.133,30.834 v -0.01 c 8.819,8.822 16.125,0.706 19.701,-21.881 l 2.082,-13.174 44.235,-0.254 c 39.575,-0.234 46.542,-1.315 66.175,-10.277 l 21.944,-10.02 14.611,7.453 c 17.324,8.84 36.98,9.624 47.129,1.881 9.087,-6.933 3.811,-11.338 -17.682,-14.777 -20.645,-3.301 -18.051,-8.126 3.561,-6.627 12.898,0.896 19.487,-0.409 22.912,-4.539 7.189,-8.658 1.745,-13.656 -14.883,-13.656 -14.232,0 -14.834,-0.497 -14.834,-12.26 0,-6.741 -1.51,-17.527 -3.357,-23.963 -3.127,-10.908 -2.485,-12.125 9.41,-17.797 12.24,-5.838 14.405,-10.324 12.996,-26.914 -0.881,-10.356 -17.487,-24.473 -28.789,-24.473 -13.038,0 -16.195,-10.769 -5.658,-19.3 8.715,-7.059 7.525,-13.978 -0.723,-13.221 z m 671.608,3.5 c -4.007,-0.09 -9.361,0.892 -15.303,3.15 -4.667,1.776 -7.589,4.686 -6.488,6.467 2.942,4.759 22.882,3.948 27.07,-1.1 4.332,-5.217 1.398,-8.362 -5.279,-8.517 z m -327.198,14.785 c -6.625,-0.05 -13.414,2.124 -18.595,6.523 -4.724,4.013 -17.043,7.925 -36.403,11.567 -47.954,9.018 -80.191,23.749 -129.17,59.029 -37.248,26.83 -69.082,58.587 -92.297,92.057 -21.469,30.957 -41.566,71.437 -39.941,80.447 1.457,8.073 12.898,10.117 19.84,3.547 10.114,-9.57 29.57,-17.986 42.736,-18.479 17.176,-0.644 30.496,4.365 45.879,17.25 12.367,10.267 19.301,11.612 33.621,-0.943 27.962,-20.249 60.382,-28.475 89.971,-4.75 16.362,12.976 18.481,14.03 37.512,1.043 7.741,-5.387 14.624,-9.284 15.298,-8.664 1.752,1.63 -0.152,88.257 -2.595,118.184 -1.134,13.892 -2.437,39.714 -2.893,57.384 l -0.824,32.131 c -15.618,-3.004 -25.565,-4.334 -46.678,-3.131 -36.551,2.081 -61.29,11.798 -80.211,33.53 -36.068,41.421 -48.35,53.008 -75.172,70.908 -15.815,10.556 -30.846,22.657 -33.4,26.894 -11.825,19.614 -5.692,40.057 13.699,45.662 16.984,4.908 61.059,1.941 92.164,-6.207 l 27.43,-7.185 9.158,8.498 c 5.149,14.029 15.083,8.47 13.422,-5.512 l -1.228,-10.334 21.88,-9.01 c 12.035,-4.956 28.747,-12.828 37.133,-17.496 14.479,-8.059 15.635,-8.257 22.815,-3.929 5.089,3.068 7.66,7.272 7.869,12.863 0.733,19.565 26.508,34.492 48.035,27.822 19.556,-6.059 32.615,-29.064 22.059,-38.855 -5.649,-5.241 -9.706,-3.979 -19.45,6.06 -10.072,10.37 -16.409,11.632 -26.324,5.229 -7.942,-5.131 -6.468,-9.924 3.166,-10.285 8.274,-0.31 16.975,-9.993 14.397,-16.022 -1.082,-2.532 0.05,-5.248 2.652,-6.361 6.731,-2.878 5.093,-13.264 -2.689,-17.078 -6.758,-3.31 -6.748,-3.343 1.992,-6.114 10.831,-3.431 15.169,0.981 39.039,39.704 13.103,21.257 17.938,26.822 23.131,26.629 14.851,-0.557 9.852,-19.574 -15.709,-59.745 -14.321,-22.507 -41.762,-51.623 -61.608,-65.373 l -10.24,-7.093 0.514,-75.213 c 0.283,-41.366 1.371,-92.911 2.414,-114.537 l 1.896,-39.327 14.742,-0.552 c 19.256,-0.652 30.115,21.784 52.276,27.295 27.84,6.923 57.601,-28.82 75.57,-25.018 4.215,0.891 14.612,7.339 23.102,14.328 16.366,13.404 23.906,13.284 44.89,-0.467 22.502,-12.081 25.546,-12.94 43.994,-12.427 16.006,0.447 22.624,2.261 34.366,9.42 27.084,16.516 37.854,14.156 30.732,-6.731 -8.135,-23.863 -42.043,-80.852 -63.103,-106.055 -11.849,-14.182 -34.703,-37.45 -50.786,-51.713 -25.177,-22.324 -33.972,-28.038 -63.332,-41.121 -35.585,-15.858 -74.574,-25.693 -98.377,-24.851 -10.598,0.382 -15.106,-1.062 -20.761,-6.651 -4.523,-4.466 -10.983,-6.729 -17.608,-6.775 z m -525.277,16.525 c 2.49,0.25 5.247,3.057 10.092,9.073 6.422,6.808 11.458,17.029 12.607,25.593 1.642,12.235 1.634,11.146 -5.974,14.805 -8.317,3.997 -10.789,9.182 2.021,9.012 11.576,0.346 10.677,1.605 -1.853,6.558 -9.535,3.766 -9.149,9.008 -1.34,9.038 15.684,0.06 -2.322,18.556 -27.592,24.918 -9.024,2.274 -21.967,4.13 -28.756,4.13 -11.748,0 -11.975,-0.258 -4.701,-5.351 4.204,-2.946 13.342,-5.911 20.31,-6.588 6.965,-0.681 13.413,-3.505 14.325,-6.283 1.24,-3.764 -2.014,-4.724 -12.883,-3.764 -13.79,1.217 -14.491,0.758 -13.508,-8.787 1.167,-11.27 -3.063,-15.553 -11.977,-12.131 -4.531,1.74 -5.449,5.592 -3.832,16.01 1.729,11.115 0.689,14.597 -5.466,18.332 -12.335,7.491 -21.445,-7.868 -24.207,-40.793 -2.47,-29.462 -0.939,-36.117 6.843,-29.66 3.296,2.739 13.115,3.252 28.61,1.498 20.252,-2.29 25.22,-4.449 35.131,-15.268 6.189,-6.756 8.949,-10.663 12.15,-10.342 z m 93.912,13.44 c -8.486,0.462 -18.571,4.753 -20.217,9.705 v 0 c -2.19,6.598 18.322,6.099 27.52,-0.672 7.084,-5.211 7.091,-5.464 0.281,-8.103 -2.102,-0.814 -4.753,-1.084 -7.582,-0.93 z m 495.25,6.617 c 2.351,0.02 7.717,1.21 16.186,3.383 22.437,5.759 54.185,19.388 73.148,31.402 21.708,13.755 59.453,49.488 81.137,76.822 14.576,18.373 42.647,60.955 42.795,64.918 0.03,0.7 -4.318,0.193 -9.653,-1.121 -18.315,-4.517 -41.696,-1.737 -57.029,6.776 -7.853,4.363 -14.944,7.952 -15.756,7.982 -0.815,0.03 -5.132,-11.47 -9.596,-25.551 -11.569,-36.496 -27.693,-72.116 -41.097,-90.785 -16.576,-23.096 -46.061,-50.899 -67.133,-63.306 -12.457,-7.335 -16.92,-10.553 -13.002,-10.52 z m -58.1,0.83 6.7,10.44 c 4.592,17.887 26.397,60.054 32.304,87.546 2.863,13.318 5.779,39.422 6.475,58.012 l 1.268,33.797 c -8.76,-7.399 -9.132,-7.573 -20.885,-14.971 -20.766,-13.068 -63.447,0.941 -84.1,15.307 -4.038,3.427 -7.362,5.615 -7.392,4.865 -0.264,-7.034 11.345,-66.43 17.605,-90.078 9.161,-34.603 28.107,-79.506 39.881,-94.527 z m -54.9,0.504 c 7.861,-0.433 3.024,4.338 -13.648,14.828 -27.731,17.449 -81.352,73.811 -102.911,108.176 v 0.01 c -8.074,12.869 -19.297,33.511 -24.939,45.871 l -10.26,22.478 c -22.777,-15.957 -63.751,-26.201 -87.148,-6.064 -7.501,6.458 27.89,-47.88 54.599,-76.893 45.748,-49.691 103.624,-87.516 156.254,-102.119 14.046,-3.897 23.334,-6.029 28.051,-6.289 z m 75.566,3.109 c 2.989,-0.467 10.735,2.66 24.94,9.112 55.021,24.997 91.306,73.757 123.4,165.832 8.292,23.79 7.921,29.388 -1,14.988 -2.8,-4.521 -11.43,-11 -19.181,-14.4 -19.036,-8.35 -46.656,-5.907 -70.551,6.234 l -16.867,8.572 0.775,-31.783 c 5.324,-48.992 -13.553,-106.116 -37.912,-146.109 -4.824,-7.919 -6.593,-11.979 -3.604,-12.446 z m -46.974,5.127 c 0.304,0.299 -5.437,14.103 -12.76,30.67 -14.953,33.843 -29.432,88.868 -33.654,127.908 -1.55,14.316 -3.612,26.054 -4.586,26.094 -0.975,0.04 -3.597,-2.629 -5.828,-5.922 -10.199,-15.043 -45.444,-20.123 -73.348,-10.574 -7.652,2.621 -18.979,8.398 -25.172,12.838 -6.194,4.44 -11.303,6.942 -11.353,5.563 -0.192,-5.129 29.656,-55.414 46.849,-78.92 26.246,-35.89 58.299,-67.37 90.639,-89.018 15.765,-10.549 28.91,-18.939 29.213,-18.639 z m -529.608,5.75 c -7.64,0 -11.001,10.593 -5.203,16.393 4.493,4.489 10.543,0.275 11.791,-8.215 0.904,-6.146 -0.733,-8.178 -6.588,-8.178 z m -35.537,7.225 c -3.749,0.131 -7.686,4.236 -7.029,9.107 0.685,5.078 2.113,6.565 7.143,5.598 8.239,-1.588 9.202,-12.207 1.468,-14.508 -0.514,-0.153 -1.046,-0.216 -1.582,-0.197 z m 356.752,195.674 c -3.149,0 -5.713,1.999 -7.658,5.982 -2.668,5.47 -3.466,5.653 -7.654,1.77 -5.478,-5.085 -13.609,-5.356 -18.016,-0.604 -2.251,2.42 -4.871,2.491 -9.471,0.248 -6.73,-3.286 -18.061,0.857 -17.849,6.526 0.06,1.57 -4.114,3.012 -9.272,3.205 -9.555,0.358 -19.94,7.746 -19.705,14.017 0.08,2.114 -3.123,3.113 -8.22,2.559 -11.206,-1.219 -17.821,6.807 -12.311,14.935 3.338,4.926 2.528,7.348 -6.076,18.194 -7.565,9.688 -11.543,21.183 -16.201,30.836 -20.203,-0.791 -27.463,16.675 -4.942,18.637 0,0 0.66,1.944 1.35,19.814 0.575,14.759 2.355,21.176 9.98,33.096 v 0 c 33.376,52.185 104.236,64.095 165.53,48.269 15.988,-4.129 34.383,-21.734 42.343,-37.31 5.856,-11.44 6.719,-17.211 5.858,-38.596 -1.095,-26.959 -6.02,-40.438 -24.545,-67.19 -4.957,-7.161 -10.109,-16.981 -11.441,-21.818 -1.331,-4.839 -4.139,-12.063 -6.239,-16.059 -2.102,-3.994 -5.908,-11.184 -8.459,-15.976 -3.253,-6.113 -6.769,-8.633 -11.785,-8.445 -3.929,0.147 -10.254,-2.617 -14.053,-6.141 -4.281,-3.974 -8.015,-5.956 -11.164,-5.951 z m -21.879,35.074 c 13.742,0.465 26.631,6.158 36.538,19.85 20.798,28.746 39.151,42.962 45.642,62.156 12.3,36.359 2.256,63.358 -28.019,75.334 -13.93,5.508 -53.302,7.72 -72.002,4.047 -12.551,-2.466 -42.449,-15.917 -52.467,-23.6 -12.955,-9.938 -22.761,-26.882 -23.26,-40.187 -0.432,-11.535 0.604,-15.127 0.604,-15.127 9.174,0.161 15.899,-2.505 17.582,-5.52 2.48,-4.458 -0.543,-10.783 -12.061,-14.096 0,0 0.971,-3.172 4.045,-11.46 4.264,-11.49 23.313,-29.698 41.736,-39.879 13.323,-7.22 27.92,-11.983 41.662,-11.518 z m -8.021,10.18 c -7.393,0.277 -11.799,9.082 -7.891,15.771 3.647,6.24 9.748,6.416 14.356,0.42 4.605,-5.991 0.426,-16.449 -6.465,-16.191 z m -33.606,11.302 c -0.842,0.1 -1.706,0.327 -2.574,0.698 -5.288,2.259 -8.863,14.262 -5.666,19.023 4.415,6.58 14.537,1.761 17.238,-8.205 1.792,-6.599 -3.097,-12.203 -8.998,-11.516 z m 34.832,80.934 c -13.096,0.301 -23.875,6.133 -28.375,15.699 -5.471,11.631 -4.834,16.041 3.633,25.168 5.344,5.763 11.163,8.238 21.825,9.285 27.393,2.689 37.935,-4.771 34.925,-24.718 -2.421,-16.057 -10.37,-23.691 -26.263,-25.219 -1.954,-0.188 -3.874,-0.258 -5.745,-0.215 z m 5.147,14.828 c 1.562,0.02 3.163,0.149 4.783,0.391 12.41,1.85 15.048,4.851 12.953,14.754 -1.252,5.924 -3.337,7.306 -11.107,7.42 -14.897,0.193 -26.035,-4.446 -26.279,-10.944 -0.254,-6.788 8.718,-11.774 19.65,-11.621 z m 174.187,58.608 c 13.105,0.285 26.877,2.465 32.528,5.146 9.236,4.385 9.837,5.59 10.406,20.775 0.556,14.83 -0.07,16.503 -7.894,20.924 -9.474,5.358 -12.656,12.928 -9.741,23.18 1.829,6.43 -0.31,7.763 -35.343,22.037 -52.532,21.4 -48.938,20.674 -56.014,11.373 -17.214,-22.626 -24.846,-46.426 -19.481,-60.752 9.961,-26.6 44.008,-43.588 85.539,-42.683 z m 72.385,30.753 c 0.543,-0.01 1.164,0.09 1.85,0.329 2.475,0.846 4.539,2.725 4.599,4.179 0.05,1.452 -1.897,2.717 -4.337,2.807 -2.44,0.09 -4.512,-1.791 -4.602,-4.18 -0.07,-1.98 0.861,-3.096 2.49,-3.135 z m -180.543,38.803 c 1.723,0.321 3.165,3.21 5.121,10.094 0.982,6.26 7.277,16.529 11.414,23.48 4.138,6.947 6.938,13.662 6.225,14.92 -0.714,1.254 -8.933,3.998 -18.262,6.094 -33.008,7.408 -71.56,9.347 -71.775,3.608 -0.125,-3.343 11.151,-13.799 24.75,-22.952 6.588,-4.436 19.133,-14.347 27.871,-22.027 8.131,-7.146 11.785,-13.751 14.656,-13.217 z" fill="#00B894" transform="translate(-16.89522,45.885857) matrix(0.26458333,0,0,0.26458333,-10393.133,-4185.6317) translate(-3313.5291,-2437.8203)"/>
</svg>