<?xml version="1.0" ?><svg height="55.706543mm" viewBox="0 0 39.286205 55.706543" width="39.286205mm" xmlns="http://www.w3.org/2000/svg">
    <path color="#000" d="m 61.973474,559.32626 24.630371,2.92949 -15.642641,21.61311 16.872354,1.2369 c 0,0 -25.552658,30.05981 -29.83856,33.67284 -4.285903,3.61303 -1.356293,-5.97291 1.139294,-12.64563 2.495587,-6.67272 5.316689,-11.2948 5.316689,-11.2948 0,0 -19.440275,-0.14648 -20.272138,-0.0814 -0.831864,0.0651 17.794631,-35.43053 17.794631,-35.43053 z" fill="#FFFFFF" overflow="visible" paint-order="fill markers stroke" transform="translate(-86.185017,-23.396823) matrix(0.78130453,0,0,0.78130453,54.275901,-411.59582)"/>
    <path d="m 47.43851,626.3665 c -1.5795,-1.57949 -1.3117,-2.39351 4.2918,-13.04439 2.956608,-5.5239 5.806293,-11.10016 9.24,-16.34078 l -7.9774,0.66529 c -10.782545,0.98665 -13.391795,-0.0558 -11.6617,-6.0401 0.9964,-3.16112 9.3265,-18.68585 11.8342,-22.0554 3.3675,-4.52473 5.64,-9.34306 5.3174,-11.27431 -0.2525,-1.51176 0.5175,-1.68812 6.2118,-1.42264 11.0727,0.51625 22.4353,2.26633 23.8788,3.67788 1.5465,1.51216 0.8514,2.7406 -8.0739,14.26907 l -4.8387,6.25 4.7669,0.0997 c 10.8446,0.22677 12.9912,2.53373 8.4708,9.10384 -4.776,6.94177 -35.7011,37.79646 -37.8826,37.79646 -1.041,0 -2.6509,-0.75808 -3.5774,-1.68462 z m 20.8218,-21.91143 c 4.9861,-5.27788 9.4861,-10.16477 10,-10.85978 3.6391,-4.92205 4.6207,-6.69104 4.0368,-7.27492 -4.709905,-0.75896 -10.500869,2.61849 -14.2966,0.19559 -2.9567,-1.93733 -2.9016,-2.69867 0.4441,-6.13792 5.168933,-6.16233 11.060406,-10.86552 11.7441,-17.16613 -5.612565,-1.15995 -10.044674,-1.07967 -16.0828,-1.35388 l -3.8919,5.84655 c -4.6916,7.04788 -12.5194,22.1557 -12.5194,24.16261 0,1.18945 1.0955,1.29939 6.25,0.62717 17.0132,-2.21878 18.0817,-1.14517 10.5475,10.59722 -7.1198,11.09631 -7.0436,10.95953 -6.1066,10.95958 0.445,2e-5 4.8886,-4.31822 9.8748,-9.59609 z" fill="#00B894" transform="translate(-86.185017,-23.396823) matrix(0.78130453,0,0,0.78130453,54.275901,-411.59582)"/>
</svg>