<?xml version="1.0" ?><svg height="290.3671mm" viewBox="0 0 307.11026 290.3671" width="307.11026mm" xmlns="http://www.w3.org/2000/svg">
    <path d="m 10789.569,-29.128664 c -1.845,0.005 -3.575,0.10082 -5.148,0.30024 -12.581,1.59532 -28.794,9.92248 -37.787,18.1715 -8.993,8.2490003 -12.406,19.8051102 -12.496,26.73117 -0.09,6.92605 11.198,103.851884 12.193,118.871314 0.994,15.01941 1.34,18.09361 9.771,22.25704 0,0 -0.865,3.89072 -0.994,5.99188 -0.13,2.10116 1.989,10.35055 2.767,12.64626 0.778,2.2957 3.848,2.45101 3.848,2.45101 l 5.058,-15.29157 71.685,19.76623 c 0,0 2.853,14.16376 3.675,17.51004 0.821,3.34632 6.399,0.89463 7.437,-0.97306 1.037,-1.86772 4.064,-14.16296 4.064,-14.16296 0,0 6.874,-1.51796 10.895,-1.98489 4.021,-0.46691 20.234,-6.69262 20.234,-6.69262 l 9.489,-4.42191 c 3.541,12.19975 37.095,27.09417 42.178,-7.83471 1.426,-3.3852 -1.687,-17.19851 -3.762,-21.90667 -2.075,-4.70815 -11.267,-6.99472 -11.267,-6.99472 0,0 0,-20.44855 -3.125,-28.32217 -9.246,-19.175844 -32.854,-29.774044 -53.574,-30.247074 -5.664,0.23345 -20.926,-6.92619 -20.926,-6.92619 0,0 3.545,-9.26046 6.312,-15.95304 2.767,-6.69258 9.736,-35.27086 9.131,-44.9206299 -0.605,-9.64976992 -17.864,-25.1962001 -28.716,-29.7487101 -9.497,-3.98345 -28.029,-8.35407 -40.942,-8.31576 z m 212.516,127.2005 -17.31,13.769194 -18.363,7.65121 -15.897,7.69194 7.453,26.68736 3.391,21.8666 4.654,0.86951 21.941,-14.56762 6.606,-4.17029 10.398,-12.13208 z" fill="#FFFFFF" paint-order="markers stroke fill" transform="translate(112.02515,64.641179) translate(-10813.304,4.8099107)"/>
    <path d="m 10796.885,-69.446597 c -0.24,0.01508 -0.482,0.06723 -0.724,0.160197 -1.714,0.657277 -11.661,19.813599 -11.661,22.45496 0,1.046577 1.853,4.502564 4.124,7.679635 2.266,3.177058 4.12,6.162066 4.12,6.633703 0,0.47165 -1.958,0.954919 -4.352,1.073836 -12.451,0.61867 -26.763,6.094874 -35.342,13.523723 -2.835,2.455651 -7.382,6.18099 -10.103,8.2785642 l -4.95,3.8137208 -7.504,-0.5141805 c -7.85,-0.5380585 -11.031,-2.5742869 -16.365,-9.0831665 -8.906,-8.610203 -12.105,-10.214547 -12.827,-6.430099 -0.419,2.195674 5.172,10.544376 11.134,16.6227585 4.301,4.38499669 6.244,5.77676785 12.809,5.30561926 4.437,0.26071922 8.267,0.68062719 8.526,0.93327634 0.255,0.2524694 -0.449,3.4513611 -1.56,7.10861 -2.62,8.6276439 -2.119,18.6951649 2.254,45.2990439 1.739,10.579927 3.843,25.007336 4.673,32.060575 0.832,7.053309 2.286,18.801791 3.231,26.106931 0.945,7.30526 2.184,18.64069 2.755,25.1902 1.334,15.28828 2.113,18.21026 5.506,20.62664 2.572,1.82134 2.727,2.3172 2.727,8.06773 0,3.36973 0.402,7.52967 0.893,9.2444 1.07,3.72617 4.303,7.4042 6.513,7.4042 2.63,0 6.12,-5.11483 7.338,-10.75232 0.626,-2.90276 1.198,-5.37533 1.278,-5.49475 0.07,-0.11938 7.526,2.25638 16.561,5.27978 14.024,4.69391 36.73,11.47513 48.026,14.34279 3.02,0.76677 3.241,1.08221 3.775,5.4498 0.82,6.65845 2.485,11.11641 4.744,12.69845 2.889,2.02365 5.044,1.69423 7.953,-1.2144 2.656,-2.6545 4.59,-7.81561 4.59,-12.29382 0,-2.19675 0.364,-2.51923 2.802,-2.51923 5.507,-0.56971 13.466,-1.755 18.688,-4.32428 3.462,-1.35516 6.305,-2.71495 9.449,-5.51233 0.09,0.0802 -0.413,2.82152 -1.114,6.09162 -2.841,13.25538 -1.082,21.77147 5.642,27.33477 3.558,2.94218 9.696,5.16175 15.891,6.43142 3.395,0.69563 6.486,1.13664 8.121,2.07106 5.848,3.34292 8.056,-1.03268 4.778,-3.39834 -0.459,-0.33152 0.764,-0.42412 3.451,-0.57212 6.78,-0.3718 9.512,0.17768 12.22,2.45618 3.224,2.715 3.409,2.74123 6.062,0.88263 2.665,-1.8651 2.569,-3.2967 -0.457,-6.8926 l -2.495,-2.96313 4.661,0.61754 c 5.851,0.7751 7.564,-0.63225 5.668,-4.63125 -2.63,-5.54038 -12.544,-7.51169 -27.736,-5.51439 -6.736,0.8857 -6.092,0.009 1.524,-2.07481 6.405,-1.75238 7.909,-3.86291 4.014,-5.63789 -1.911,-0.8701 -3.42,-0.70612 -8.329,0.90588 -7.061,2.3182 -10.395,2.49271 -11.127,0.58291 -0.929,-2.42158 1.421,-3.59075 6.793,-4.27674 13.068,-1.66882 19.396,-8.35948 22.901,-17.54518 l 1.757,-4.48758 c 6.647,-1.17991 12.742,-2.4695 19.703,-4.13153 0.462,1.34699 0.867,3.57651 1.173,6.28023 0.564,4.98258 0.852,5.55857 3.023,6.03064 1.319,0.28702 2.979,0.70609 3.688,0.9307 2.885,0.91283 25.332,-12.35575 28.131,-16.62741 0.812,-1.23993 2.033,-2.25465 2.714,-2.25465 0.68,0 1.698,-0.86091 2.261,-1.91357 0.564,-1.0527 2.643,-4.04101 4.622,-6.64094 3.225,-4.24044 4.065,-5.51448 3.816,-8.9178 -0.05,-0.64449 -0.141,-1.68515 -0.214,-2.5585 0.743,-1.31591 1.081,-3.04109 -0.328,-3.90468 -0.176,-1.98369 -0.332,-3.68142 -0.332,-3.68142 1.532,-1.60946 3.595,-6.67927 -0.272,-6.94222 0,0 -0.281,-2.05115 0.01,-2.26962 1.952,-1.45491 1.778,-5.71655 -0.367,-5.03897 0,0 -0.867,-5.12809 -1.411,-9.38754 -0.546,-4.25938 -1.359,-8.110172 -1.808,-8.557622 -1.095,-1.096407 -4.108,0.572053 -9.94,5.505612 -2.645,2.23743 -4.808,3.84103 -4.808,3.56309 0,-0.27791 2.513,-3.42858 5.588,-7.000611 3.074,-3.572053 5.377,-6.707286 5.117,-6.967533 -1.527,-1.526677 -9.163,6.622758 -14.122,15.071434 -1.605,2.73634 -2.748,3.78003 -3.723,3.40547 -21.452,-7.61236 -46.255,-7.67943 -67.609,0.0496 l -5.759,2.44792 -3.743,-3.20394 c -2.499,-2.13888 -9.442,-5.54653 -20.89,-10.25054 -20.254,-8.321965 -29.441,-12.646664 -32.922,-15.498795 -6.048,-4.948665 -13.64,-8.083456 -22.472,-9.275403 l -4.349,-0.587561 -0.03,-7.042981 c -0.116,-23.919618 -5.582,-58.4556157 -12.424,-78.492367 -2.236,-6.549458 -4.323,-12.675779 -4.64,-13.614156 -0.522,-1.553964 -0.216,-1.646466 3.454,-1.035079 6.807,1.135267 15.55,4.11299 24.194,8.241358 9.491,4.532535 15.955,10.2653756 20.103,17.91880251 4.836,8.92103359 3.649,21.48639049 0.55,32.54736749 -1.52,5.425252 -4.678,14.190095 -6.857,19.52439 -2.176,5.334322 -4.217,11.422318 -4.534,13.528889 -0.522,3.454131 -0.329,4.007125 1.953,5.632732 3.341,2.378561 12.651,5.110499 27.122,7.95972 23.831,4.691868 37.642,12.872317 41.976,24.863083 0.852,2.35046 1.599,3.06616 2.996,2.86597 2.278,-0.32577 2.101,-2.09873 -0.86,-8.653214 -2.738,-6.063867 -8.017,-11.147286 -15.809,-15.224394 -8.419,-4.403178 -14.838,-6.370811 -30.474,-9.341032 -15.295,-2.905441 -22.635,-4.807699 -23.413,-6.068363 -0.302,-0.48689 1.384,-4.891105 3.741,-9.787 2.361,-4.895975 5.999,-13.847844 8.088,-19.893876 4.271,-12.360294 7.518,-29.5848718 -2.942,-44.3673177 -4.556,-6.4390613 -9.802,-9.8289723 -24.636,-17.1348713 -8.935,-4.400498 -14.016,-6.313542 -19.238,-7.244519 -3.903,-0.69581 -7.561,-1.278979 -8.133,-1.297079 -0.568,-0.0176 -2.749,-2.662232 -4.845,-5.87716 -2.096,-3.214981 -4.578,-6.542457 -5.518,-7.393864 -1.659,-1.499937 -1.571,-1.816993 2.783,-10.193176 2.472,-4.754708 4.495,-9.620983 4.495,-10.814327 0,-2.267363 -1.509,-3.985954 -3.184,-3.881934 z m -0.638,42.446505 2.051,4.024043 c 3.606,7.066759 7.216,19.0978515 11.375,37.917066 5.025,22.723971 5.981,30.274321 5.981,47.30719 v 13.462227 l -2.979,0.630453 c -1.636,0.346747 -4.918,1.454084 -7.294,2.460831 -3.453,1.465187 -4.709,2.643394 -6.286,5.902482 -1.911,3.929781 -1.701,7.092272 0.234,3.636471 3.284,-5.868842 10.802,-8.32687 23.585,-7.71064 2.796,0.152817 5.124,0.340346 7.349,0.794783 l -0.322,0.05788 c 1.061,0.186027 2.067,0.405751 3.034,0.659391 0.266,0.087 0.532,0.169881 0.8,0.268201 l 0.109,-0.01499 c 3.402,0.999907 6.303,2.477764 9.184,4.607988 3.236,2.392484 2.861,3.554234 -1.145,3.567224 -6.361,0.0194 -17.231,6.992836 -19.549,12.543422 h 0.01 c -0.933,2.22638 -1.802,2.98523 -3.31,2.88923 -5.837,-0.37187 -13.294,-1.04446 -17.684,-1.55495 -1.11,-0.15974 -2.268,-0.35602 -3.668,-0.65629 -1.843,-0.39304 -1.895,-0.8824 -1.636,-15.315858 0.143,-8.200326 0.499,-19.856663 0.792,-25.902295 0.491,-10.12611 0.32,-11.822214 -2.149,-21.526334 -3.856,-15.153075 -10.47,-28.509398 -18.14,-36.6411746 -6.242,-6.6171902 -14.071,-11.3937226 -17.756,-10.8355144 -1.698,0.2567994 -1.36,0.7015627 2.254,2.9760458 4.474,2.81535152 16.569,15.0108492 15.725,15.8548462 -0.27,0.27116 -2.051,-0.875037 -3.954,-2.5471314 -3.633,-3.1879207 -18.997,-10.7569735 -25.723,-12.6700276 l -3.931,-1.1187948 2.955,-3.7331055 c 7.717,-9.7430297 25.278,-17.5719457 42.089,-18.7652627 z m 35.147,15.6099 c -0.678,-0.1411 -0.726,1.8702488 0.327,5.7386674 0.891,3.2715901 1.379,9.3048895 1.379,17.3240076 0.01,13.907198 -0.02,14.215899 -3.913,38.176997 -1.565,9.627463 -2.586,18.181089 -2.269,19.007626 0.667,1.735504 2.075,1.96093 2.991,0.478523 1.083,-1.749414 5.843,-29.170782 6.783,-39.064282 1.186,-12.483331 -0.141,-30.19473396 -2.795,-37.2866127 -1.068,-2.8529213 -1.976,-4.2651893 -2.503,-4.3749263 z m -91.849,13.9960445 8.044,2.8220499 c 12.918,4.5327568 20.069,8.7510056 27.768,16.3778116 3.814,3.781518 7.813,8.730627 8.885,10.997778 4.37,9.249933 7.573,33.336671 7.573,56.950529 0,8.040606 0.409,15.383759 0.908,16.317869 1.293,2.41346 5.425,3.51906 16.954,4.53667 16.16,1.42631 22.605,3.26007 30.615,8.708 7.98,5.42729 12.701,11.48507 15.621,20.04374 2.283,6.69558 5.481,26.38141 5.511,33.76899 0,5.16318 1.142,7.30242 2.923,5.52111 0.533,-0.53427 0.9,-6.16763 0.87,-13.38574 -0.03,-6.85468 0.05,-12.45685 0.157,-12.44885 0.106,0.008 1.843,0.60771 3.858,1.33376 2.014,0.72603 8.69,1.67669 10.482,0.69919 0.271,-0.14798 2.683,1.6918 6.31,3.75532 5.933,3.37587 9.549,4.24038 15.507,6.09162 10.161,2.79058 22.805,2.68114 30.526,2.39572 -0.594,1.54374 -1.279,2.75472 -2.085,4.19148 -1.726,3.04371 -5.838,7.88279 -9.243,7.99382 -3.066,0 -10.091,-4.84281 -12.365,-8.52609 -1.373,-2.2224 -2.941,-3.45135 -4.954,-3.88245 -1.617,-0.3468 -4.565,-1.40683 -6.548,-2.35541 -4.197,-2.63069 -5.466,-0.89862 -7.365,2.81378 -7.573,12.54815 -29.152,14.60217 -41.157,13.18475 -2.8,-4.93043 -6.433,-23.91364 -6.513,-34.12143 -0.06,-7.18734 0.281,-9.47732 1.976,-13.1532 2.309,-4.99905 1.914,-7.05509 -0.867,-4.53978 -5.564,5.03291 -7.893,16.32403 -6.243,30.26327 0.624,5.25458 1.675,11.88895 2.341,14.74329 0.657,2.85426 1.071,5.33215 0.89,5.50612 -0.979,0.97666 -27.762,-6.1418 -54.822,-14.56913 -25.816,-8.04077 -30.873,-9.99053 -31.694,-12.21941 -0.387,-1.04996 -0.958,-7.06179 -1.27,-13.35939 -0.311,-6.29755 -1.573,-18.66386 -2.802,-27.4805 -1.23,-8.81658 -2.931,-21.389391 -3.78,-27.93886 -0.849,-6.549502 -3.129,-20.564425 -5.065,-31.144352 -5.204,-28.411516 -5.547,-37.755673 -1.757,-47.7314539 z m 108.052,90.8084105 c 0.644,-0.0106 1.29,0.008 1.937,0.05478 l 4.121,0.29869 -5.32,1.643827 c -6.676,2.062984 -13.334,6.11639 -16.024,9.75599 -2.028,2.74428 -5.027,3.67591 -6.123,1.90221 -0.883,-1.4273 3.21,-6.25502 7.738,-9.127088 4.676,-2.966241 9.157,-4.454096 13.671,-4.528406 z m 9.363,3.774963 v 5.17e-4 c 1.124,0.0181 0.973,0.207828 -0.244,0.609265 -3.863,1.274672 -10.552,6.243262 -13.731,10.198862 -3.1,3.85838 -3.715,4.08046 -6.964,2.51406 -2.778,-1.34068 -2.607,-2.27279 1.063,-5.73299 4.429,-4.17677 11.149,-7.12931 17.03,-7.48171 0.959,-0.0575 1.717,-0.09339 2.286,-0.104903 0.213,-0.004 0.4,-0.0051 0.56,-0.0031 z m 3.498,2.560568 c 2.877,0.0244 3.051,0.148317 1.441,1.023706 -5.375,2.9234 -8.951,6.04497 -12.012,10.48877 -1.872,2.72118 -3.648,4.93356 -3.941,4.91856 -0.294,-0.0161 -1.255,-0.5763 -2.138,-1.2454 -1.49,-1.1325 -1.394,-1.48114 1.426,-5.04414 4.482,-5.66325 11.256,-10.175496 15.224,-10.141496 z m 9.043,1.980756 c 1.106,-0.0276 2.072,0.17661 2.828,0.65526 0.938,0.59398 0.19,1.28125 -2.861,2.63085 -2.27,1.00467 -5.9,3.41904 -8.062,5.36504 -2.166,1.9461 -5.048,5.28191 -6.407,7.41299 -2.432,3.82177 -2.489,3.84981 -4.112,2.05724 -1.343,-1.4842 -1.457,-2.22754 -0.626,-4.05454 3.192,-7.00468 13.264,-13.91761 19.24,-14.06684 z m 131.188,0.2589 0.65,7.74785 c 0.465,5.54382 0.216,6.92671 0.216,6.92671 -2.831,1.96876 -3.682,7.04471 0.855,5.61102 0.275,0.72538 0.168,1.82506 0.33,2.25206 -1.432,1.74393 -1.612,2.50382 -2.609,4.02508 -1.508,2.30203 0.757,5.23725 2.415,4.20388 0.758,-0.47259 0.486,1.15678 0.453,1.73633 -0.02,0.3287 -1.376,1.12097 -2.497,2.54868 -1.064,1.35503 0.157,4.43564 2.558,3.29127 0,0 0.166,1.96514 -0.473,3.12384 -1.105,1.46493 -1.565,2.50911 -2.259,3.39152 -1.285,1.67371 -1.411,1.68989 -1.441,0.18914 -0.08,-4.73849 -2.994,-27.49434 -4.124,-32.24971 l -1.303,-5.49631 3.614,-3.65042 z m -123.415,3.22978 c 0.149,-0.003 0.296,-0.002 0.44,0.003 1.065,0.0357 2.003,0.28651 2.768,0.77204 0.816,0.5181 -0.02,1.28706 -2.738,2.50476 -5.199,2.3327 -13.589,9.38982 -17.292,14.54692 -3.232,4.49975 -4.011,4.93424 -4.866,2.70784 -1.209,-3.1531 -0.35,-5.08349 4.71,-10.55284 5.606,-6.06042 12.365,-9.88868 16.978,-9.98131 z m 8.904,3.72432 c 1.41,0.0277 2.706,0.34365 3.855,0.9586 1.716,0.91857 1.269,1.2686 -4.469,3.50107 -3.505,1.3641 -8.659,3.99724 -11.453,5.85184 -2.794,1.8545 -7.196,5.60717 -9.779,8.33955 -2.584,2.73247 -4.934,4.58656 -5.222,4.12016 -0.717,-1.16108 6.819,-10.79013 12.16,-15.5329 5.416,-4.81093 10.677,-7.32151 14.908,-7.23832 z m 104.67,2.67425 v 5.2e-4 c 0.04,0.004 0.08,0.0181 0.101,0.0439 0.184,0.20686 1.034,6.76526 1.886,14.57431 0.852,7.80893 1.913,16.83774 2.357,20.06389 0.636,4.59869 0.519,6.4291 -0.537,8.47339 -0.743,1.4341 -1.519,2.60759 -1.727,2.60759 -0.527,0 -1.218,-5.75893 -2.374,-19.80241 -0.542,-6.60883 -1.508,-14.5433 -2.147,-17.632 -1.059,-5.14323 -1.015,-5.74436 0.527,-7.13858 0.809,-0.7326 1.606,-1.21894 1.914,-1.19063 z m -44.826,0.36225 v 0 c 0.793,0.005 1.601,0.0249 2.427,0.0589 12.021,0 22.407,2.38573 25.649,3.35276 0,0.42299 -0.514,0.78022 -1.146,0.79582 -1.734,0.0405 -12.37,4.6278 -18.674,8.05481 -5.812,2.88583 -5.955,2.09272 -3.903,6.55153 3.35,7.27375 4.808,13.08368 5.536,17.96273 -1.716,2.08936 -0.506,7.19498 -1.985,7.49618 -2.895,0.60184 -4.943,0.9743 -8.01,1.78181 -6.974,1.83652 -6.605,1.42187 -6.605,0.37 0,-0.44505 0.947,-0.73949 1.955,-1.00304 2.347,-0.61383 2.216,-3.91752 -1.828,-3.65559 -0.977,-12.2784 -6.563,-18.44653 -18.003,-21.25886 l 0.06,-7.17455 c 0.03,-5.58608 -0.231,-6.95151 -1.335,-6.95151 -1.103,0 -1.373,1.39953 -1.373,7.09983 v 7.09982 c -1.698,-0.1576 -3.473,0.12751 -5.127,0.11094 -1.919,-0.0192 -1.099,-1.56269 -0.784,-2.26232 0.736,-1.62232 0.747,-3.31166 0.03,-6.12779 -1.184,-4.6657 -0.88,-4.61703 2.812,-5.86579 10.172,-3.48617 18.426,-6.5182 30.309,-6.43579 z m -50.84,0.47543 c 0.622,0.006 1.124,0.10351 1.482,0.30386 1.382,0.77357 0.45,1.48529 -5.8,4.42246 -4.095,1.9253 -9.197,4.69639 -11.334,6.15777 -2.14,1.4617 -5.599,3.73059 -7.689,5.04207 -2.087,1.3115 -4.972,4.04704 -6.411,6.07921 -2.887,4.0801 -3.988,4.62776 -3.988,1.98386 0,-2.5078 6.377,-10.22394 11.584,-14.01671 7.597,-5.53506 17.805,-10.01322 22.156,-9.97252 z m 89.701,2.81326 0.579,2.89802 c 1.25,6.23584 3.309,40.59007 2.452,40.87554 -0.481,0.16026 -3.267,1.8266 -6.193,3.70313 -2.923,1.87641 -6.811,4.32606 -8.641,5.4436 l -3.327,2.03191 -2.026,-8.35504 c 5.074,0.75892 16.731,-3.42647 17.38,-8.14524 0,-1.37841 -2.529,-1.68476 -4.694,-0.56844 -5.162,2.66188 -5.542,2.31814 -1.857,-1.67949 3.446,-3.73848 5.021,-7.83104 3.015,-7.83104 -0.436,0 -2.353,1.24165 -4.264,2.75952 -1.911,1.51796 -3.623,2.62262 -3.778,2.45463 -0.169,-0.16798 0.823,-2.42044 2.199,-5.00538 2.072,-3.88331 2.298,-4.90659 1.301,-5.88956 -0.995,-0.97822 -1.605,-0.73239 -3.435,1.38079 l -2.226,2.56987 v -3.25716 c 0,-2.60716 -0.353,-3.25717 -1.768,-3.25717 -1.29,0 -2.243,1.27415 -3.524,4.70721 l -1.757,4.7072 -2.498,-7.53804 c -1.376,-4.14573 -2.358,-7.66185 -2.203,-7.81348 0.165,-0.1515 4.337,-2.15653 9.276,-4.45554 4.936,-2.29897 10.552,-5.4303 12.482,-6.95823 z m -83.674,1.40353 c 0.109,3.8e-4 0.214,0.004 0.315,0.0103 0.925,0.0592 1.54,0.37564 1.759,0.99425 0.371,1.0517 -6.834,4.19685 -10.547,4.60282 -2.487,0.2721 -6.561,2.74555 -6.561,3.98322 0,0.4679 -2.989,2.78282 -6.643,5.14439 -3.65,2.3618 -8.769,6.1109 -11.37,8.33128 -5.816,4.96667 -7.242,3.74469 -2.42,-2.07326 7.519,-9.07113 28.634,-21.0169 35.467,-20.99304 z m 4.134,4.40904 c 0.281,0.004 0.515,0.0367 0.682,0.10077 1.366,0.5239 1.683,3.27215 0.377,3.27215 -0.462,0 -1.402,0.21501 -2.088,0.47801 -0.685,0.263 -2.059,-0.1183 -3.051,-0.8475 -1.75,-1.2846 -1.724,-1.35756 0.87,-2.34766 1.105,-0.4239 2.367,-0.66815 3.21,-0.65577 z m 54.886,2.40812 c 0.294,0 -0.882,1.18373 -2.617,2.63085 -2.459,2.05285 -2.927,2.90873 -2.135,3.8933 0.561,0.6941 2.425,7.89771 3.288,12.74961 0.637,3.58164 1.594,5.20919 2.157,8.05946 -1.061,-0.36252 -2.369,-0.97659 -3.167,-4.16047 -1.11,-4.43253 -4.248,-14.28204 -5.25,-16.35611 -1.104,-2.85412 -1.613,-2.85468 7.724,-6.81664 z m -65.602,2.05776 c 2.996,0.0433 6.52,1.7914 10.097,5.13715 3.234,3.02608 3.176,4.26739 -0.267,5.69319 -1.532,0.6344 -4.147,2.74549 -5.812,4.69119 -1.667,1.94578 -3.24,3.53777 -3.473,3.53777 -1.335,0 -6.507,-8.85834 -6.905,-11.82822 -0.379,-2.816 -0.06,-3.85585 1.641,-5.44463 1.315,-1.22486 2.922,-1.8124 4.719,-1.78645 z m 13.445,0.80666 c 0.04,-0.002 0.07,3.6e-4 0.11,0.005 0.292,0.0412 0.562,0.30736 0.871,0.80719 0.446,0.7276 0.625,1.65172 0.366,2.05362 -0.641,1.0357 -1.96,0.90528 -2.685,-0.2651 -0.338,-0.5477 -0.137,-1.47202 0.444,-2.05362 0.348,-0.34972 0.633,-0.53426 0.894,-0.54726 z m 2.029,4.97438 c 0.504,-0.007 0.806,0.32641 0.806,0.94103 0,0.7399 -0.618,1.34513 -1.374,1.34513 -0.755,0 -1.374,-0.36816 -1.374,-0.81803 0,-0.4499 0.619,-1.05504 1.374,-1.34514 0.209,-0.0803 0.4,-0.12061 0.568,-0.12299 z m -26.478,0.71158 c 0.551,-0.0209 0.721,0.42539 0.732,1.24747 0,0.9356 0.236,2.53501 0.511,3.55431 0.399,1.4939 -0.317,2.24808 -3.703,3.89278 -4.861,2.3616 -5.951,2.47568 -8.169,0.85318 -1.477,-1.0797 -1.148,-1.54224 3.643,-5.12682 4.084,-3.05356 6.066,-4.38609 6.986,-4.42092 z m 34.334,6.10609 c 5.359,-0.0528 9.168,1.50738 11.79,4.62194 2.872,3.4266 2.911,4.44882 0.156,4.44882 -3.799,0 -11.22,6.16696 -9.499,7.88996 0.359,0.3576 2.735,-0.48334 5.28,-1.86914 2.547,-1.38548 5.46,-2.22936 6.191,-2.5125 1.211,-0.46907 1.292,-0.0444 1.504,1.0614 0.125,0.64972 0.09,2.05162 0.08,2.71254 -3.644,1.26219 -4.117,4.2111 -1.991,4.2571 l 1.267,0.0274 c 2.039,0.0441 -0.327,1.3371 -8.592,1.24592 -9.644,-0.10627 -14.323,-0.78104 -21.861,-3.15381 -7.403,-2.33006 -9.688,-3.32213 -9.688,-4.20595 0,-0.45427 1.007,-0.16543 2.241,0.64182 2.233,1.46292 1.834,1.21994 5.048,-4.09484 4.189,-6.92813 11.705,-11.00789 18.074,-11.07066 z m -31.822,3.0117 c 0.596,-0.0515 0.935,0.34998 1.527,1.16065 1.093,1.4963 0.925,1.87142 -1.524,3.36052 -3.31,2.0126 -3.999,2.06308 -5.38,0.39688 -0.852,-1.02588 -0.397,-1.69023 2.306,-3.36 1.621,-1.002 2.474,-1.50655 3.071,-1.55805 z m -19.098,4.41834 c 0.473,0.0342 0.816,0.34844 0.816,1.03353 0,0.6714 -0.854,1.75513 -1.901,2.40863 -1.735,1.083 -1.877,1.00221 -1.605,-0.91519 0.198,-1.38915 1.518,-2.44118 2.48,-2.52491 0.07,-0.006 0.143,-0.007 0.21,-0.002 z m 22.048,0.27698 c 0.414,-0.007 0.837,0.13837 1.34,0.4191 1.563,0.87568 1.493,1.03407 -0.875,1.93425 -3.952,1.502 -4.894,1.17615 -2.765,-0.95395 0.949,-0.94875 1.61,-1.38693 2.3,-1.3994 z m -18.309,3.38171 c 0.946,0 1.759,0.28931 2.117,0.86816 0.34,0.5503 -0.829,0.91176 -2.924,0.90176 -2.591,-0.0104 -3.137,-0.24256 -2.116,-0.90176 0.896,-0.57885 1.976,-0.86816 2.923,-0.86816 z m -113.855,11.15539 c 1.951,0.21692 7.544,3.61367 7.17,4.60644 -0.226,0.59825 -1.096,3.45781 -1.935,6.35465 -0.838,2.89693 -1.719,5.26738 -1.978,5.26738 -1.213,0 -4.809,-15.14254 -3.831,-16.12253 0.06,-0.0544 0.134,-0.0889 0.235,-0.10542 0.09,-0.0155 0.209,-0.015 0.339,-5.2e-4 z m 204.547,1.86604 c 0.508,-0.0228 0.826,0.35451 0.941,1.9451 0.112,1.53927 0.954,5.40961 1.245,6.92102 0.397,2.05927 0.19,2.74815 -0.83,2.74815 -1.006,0 -1.442,-1.34108 -1.676,-5.12681 -0.214,-3.47962 -0.746,-4.60196 -0.796,-6.18981 0.438,-0.12635 0.811,-0.28396 1.116,-0.29765 z m -37.057,5.58363 c -0.91,0.10684 -0.997,0.8429 -1.035,1.06351 -0.379,2.20754 1.793,3.59806 2.567,2.34662 0.296,-0.48284 0.501,-1.63461 0.05,-2.36368 -0.419,-0.67799 -0.852,-1.13219 -1.582,-1.04645 z m -83.958,18.93012 c 0.927,-0.0465 2.858,0.0799 4.978,0.34468 l 5.137,0.64182 -0.621,2.90421 c -0.341,1.59725 -1.169,4.24389 -1.841,5.8813 -1.877,4.56763 -3.61,3.69691 -6.252,-3.14348 -1.301,-3.3663 -2.198,-6.3019 -1.963,-6.52311 0.06,-0.0553 0.253,-0.0899 0.562,-0.10542 z" fill="#00B894" transform="translate(112.02515,64.641179) translate(-10813.304,4.8099107)"/>
</svg>