<?xml version="1.0" ?><svg height="257.77832mm" viewBox="0 0 200.60498 257.77832" width="200.60498mm" xmlns="http://www.w3.org/2000/svg">
    <path d="m 9604.7362,1626.3375 184.8608,0.577 c 5.012,89.5094 4.6663,161.0262 5.0425,245.6706 0,0 -182.8146,6.7412 -185.814,6.7412 -3.0023,0 -6.4731,-2.4353 -6.9436,-11.3297 -0.4694,-8.8943 2.8543,-241.6591 2.8543,-241.6591 z" fill="#FFFFFF" paint-order="markers stroke fill" transform="translate(497.98046,-131.6151) translate(-10095.898,-1492.0502)"/>
    <path d="m 9610.4979,1623.6653 c -4.8458,0.042 -6.9175,0.257 -7.1619,0.6522 -0.3609,0.5819 -1.0283,13.3216 -1.4826,28.3109 -0.4573,14.9893 -1.4825,42.0938 -2.2774,60.231 -1.9397,44.1475 -2.2458,125.4197 -0.5576,147.9356 1.4226,18.967 1.7439,19.8215 7.7608,20.4587 2.0847,0.2207 6.6781,0.2544 10.2077,0.073 44.4663,-2.279 72.7064,-3.2482 118.1654,-4.0561 59.038,-1.049 60.8378,-1.129 61.8406,-2.7507 1.4013,-2.268 1.742,-20.2197 1.4144,-74.6404 -0.3995,-66.3445 -1.5472,-100.6144 -5.1072,-152.5173 -1.4277,-20.8267 -1.6407,-21.901 -4.4534,-22.6364 -2.0949,-0.5484 -26.2771,-0.5512 -104.5337,0 -10.8332,0.075 -33.3368,-0.2234 -50.0094,-0.6604 -11.3391,-0.2982 -18.9611,-0.4315 -23.8057,-0.3907 z m -3.1316,3.4365 15.8026,0.2832 c 11.3939,0.2051 15.746,0.5807 15.598,1.3498 -2.3372,19.2282 -1.6851,38.8859 -1.8738,56.2761 -4.3899,8.3947 -1.979,15.2479 3.1321,17.8713 5.4157,2.7797 5.4522,2.7952 1.5292,4.4338 -2.6434,1.1046 -4.0824,1.2195 -6.164,0.4935 -2.0695,-0.7216 -2.6255,-0.6797 -2.3456,0.1742 0.6621,2.0086 4.7232,3.4963 8.5307,3.1238 l 3.7254,-0.3653 -1.2485,4.6777 c -1.4784,5.5303 -1.3716,13.282 1.5555,18.5172 5.1249,9.1661 15.9451,13.6421 24.3948,12.883 5.9611,-0.5567 9.708,-2.0341 14.6136,-5.7619 2.7752,-2.1078 2.1993,-2.6331 3.7858,-0.8926 3.4433,3.7775 7.1163,0.2644 3.9393,-3.5248 -0.8184,-0.9761 -1.1025,-1.1597 -1.5539,-2.3722 2.2415,-3.8571 6.324,-9.0252 7.9528,-15.8225 3.0505,-0.1751 10.1404,1.0063 10.3638,-1.3572 0.3369,-3.5628 2.7818,-79.4847 1.5904,-81.8635 -0.7169,-1.4283 -2.5704,-1.6175 -17.0316,-1.7322 -8.9239,-0.07 -20.4191,-0.2413 -25.5426,-0.3824 -1.6092,-0.044 -3.0248,-0.06 -4.2638,-0.044 -3.7095,0.042 -5.8136,0.3505 -6.6332,0.9509 -1.4256,1.0428 -1.6235,3.799 -1.9348,27.1756 0.038,5.6336 -0.2502,9.0451 -0.4022,14.6285 -5.5975,-1.8146 -10.5781,0.6329 -14.201,3.3063 0.5512,-16.5597 0.3029,-33.2072 1.4144,-49.7453 0.051,-0.7528 11.0444,-1.0027 40.4321,-0.9167 l 40.3505,0.1198 -0.6387,46.7166 c -0.3731,27.5333 -0.1967,51.9875 -0.4655,63.4235 -0.1561,6.5639 2.0226,2.8402 2.0244,1.4253 0,-1.5385 0.8565,-17.7312 1.1779,-43.5514 0.3194,-25.8202 0.8317,-51.8361 1.1359,-57.8135 l 0.1283,-10.1678 23.4449,0.09 c 12.6688,0.049 26.6441,0.7917 31.0741,0.7917 8.0519,0 8.0537,-10e-5 7.7871,2.2903 -0.2342,2.0374 -0.6731,2.2791 -3.931,2.1859 -18.3821,-0.5248 -42.5509,0 -45.9518,0 -0.9561,0 -1.8153,0.036 -1.8102,1.2615 l 0.2083,39.4244 c 0.2068,22.0215 0.3782,40.906 0.3782,41.9654 0,1.8522 0.6053,1.9583 15.7955,2.7482 8.6907,0.4518 20.8532,0.7945 27.0231,0.7622 l 11.2216,-0.06 v 7.6171 7.6165 l -33.2088,-0.2011 c -13.6802,-0.083 -10.0989,2.1604 -0.3556,2.5047 11.7047,0.4137 33.4274,0.818 33.8553,1.0818 0.4258,0.2638 0.6386,20.57 0.4723,45.1243 l -0.3059,44.6449 -18.7787,0.5865 c -10.3262,0.3228 -21.2923,1.153 -24.4001,1.1756 -5.5899,0.2363 -5.3357,-0.7546 -6.2006,-13.9593 -0.5222,-7.99 -0.7768,-16.4022 -1.0212,-18.6697 l -0.4408,-4.1238 10.4774,-6.7101 c 10.8819,-6.9705 13.8374,-9.9862 13.0556,-13.3124 -1.2776,-5.4364 -8.8651,-25.7731 -9.7219,-26.0584 -0.5404,-0.1818 -0.9834,-0.9404 -0.9834,-1.6882 0,-0.9439 -0.5616,-1.1805 -1.8381,-0.7752 -1.4257,0.4526 -2.1974,-0.078 -3.4355,-2.3724 -0.878,-1.6255 -2.3008,-3.6987 -3.1657,-4.608 -2.0827,-2.198 -4.7494,-1.2436 -14.5645,5.2146 -4.1573,2.7333 -6.4283,4.2179 -7.8124,5.2287 -3.5164,0.026 -7.3314,2.9043 -8.2967,6.0585 -1.3759,1.2988 -4.2899,3.394 -7.0915,5.6291 -5.375,4.2891 -6.1436,6.2998 -3.7233,9.7524 0.5587,0.7988 0.8903,1.3371 1.449,1.9575 -0.5973,0.6771 -2.2509,1.5558 -4.8162,3.3977 -7.7254,5.5493 -10.361,6.3492 -15.0374,4.5636 -4.8873,-1.8667 -16.8568,-12.982 -16.8568,-15.6539 0,-7.0681 -8.4955,-18.0259 -14.7857,-19.5357 -3.9324,-0.9439 -9.2436,-1.6587 -13.9759,1.1725 -0.4228,0.1695 -0.9143,0.2953 -0.9026,-1.1299 -0.068,-4.6401 0.7751,-24.6356 0.075,-27.9993 -0.3661,-1.4518 -0.735,-2.1157 -1.0697,-2.1022 -0.7401,0.028 -1.254,3.3432 -1.3141,8.785 l -0.2795,25.268 c -1.6492,1.7778 -3.1601,3.4387 -4.8266,5.0741 -2.8199,2.771 -6.7409,7.5117 -8.709,10.5347 -7.5509,11.5862 -12.3391,34.5354 -10.08,48.2989 2.9,17.6527 7.4761,31.8725 12.7,39.4673 l 2.8825,4.1889 -3.4432,2.5575 c -1.8931,1.4071 -7.3999,5.7065 -12.2355,9.5539 l -8.7922,6.995 -0.8253,-14.3092 c -1.1296,-19.5515 -0.8647,-92.1035 0.4078,-112.3245 2.0877,-33.1638 3.0843,-64.1538 3.7393,-116.1603 z m 155.0892,9.0072 c 2.4796,0.011 5.0495,0.034 7.5789,0.067 l 18.3968,0.2645 1.0826,19.8882 c 0.5952,10.9387 1.3478,28.8543 1.6733,39.8121 l 0.5912,19.9233 h -25.8563 -25.86 l 0.2595,-39.7759 0.1824,-39.1836 c 0,-1.0012 -0.1561,-0.7406 5.5981,-0.8925 1.521,-0.042 4.9748,-0.085 9.3116,-0.1012 v 0 c 2.1684,-0.013 4.5577,-0.013 7.0373,0 z m -100.5789,0.5224 c 3.7443,0.01 12.3639,0.1542 22.2865,0.385 l 24.057,0.5618 -0.6,10.6184 c -0.3265,5.8394 -0.6593,23.2901 -0.7323,38.7801 -0.1298,25.3448 -0.2827,28.1605 -1.6252,28.1673 -1.1725,-0.028 -5.5041,0.3486 -5.6816,-0.06 -0.4208,-2.0046 0.5557,-5.3775 2.0148,-6.9536 0.9633,-1.0401 1.7498,-2.5376 1.7498,-3.329 0,-1.8192 -1.7914,-5.9419 -4.0008,-9.2077 -0.9612,-1.4191 -1.4907,-3.3437 -1.2159,-4.4038 0.3143,-1.196 0.1046,-1.7541 -0.5788,-1.5297 -1.9448,0.6392 -1.6591,3.9917 0.7116,8.4548 2.3554,4.4257 2.9993,8.1838 1.5585,9.0744 -0.4289,0.2648 -0.7737,-0.5967 -1.4511,-2.6507 -6.1889,-13.7098 -17.8361,-18.163 -30.9614,-14.8596 -0.4352,-5.5473 -4.2262,-10.0991 -8.786,-12.7463 0.1421,-5.927 0.1998,-11.3624 0.4041,-17.4149 0.4187,-12.4431 0.7429,-22.7257 0.8646,-22.8456 0.032,-0.03 0.7388,-0.043 1.9869,-0.04 z m -13.4824,44.6506 c 1.457,-0.063 3.0958,0.494 5.362,1.6505 4.1035,2.0923 5.2718,3.3669 6.0921,6.6378 0.4755,1.8942 0.2079,2.6596 -1.2381,3.4298 -2.3219,1.2424 -2.8908,1.2456 -2.8908,0.026 0,-0.5364 -3.1746,-2.4424 -7.057,-4.2359 l -7.0574,-3.2618 2.529,-2.1751 c 1.5321,-1.3185 2.8041,-1.9992 4.2602,-2.0613 z m 8.8837,1.5053 1.9477,1.0428 c 2.1496,1.1513 3.8215,3.7657 3.8215,5.979 0,0.7889 -0.4107,1.4345 -0.9136,1.4345 -0.504,0 -0.9163,-0.6578 -0.9163,-1.4614 0,-0.8039 -0.8885,-2.7065 -1.9714,-4.2282 z m -15.6512,4.6834 c 0.054,0 0.1184,4e-4 0.1933,0.014 l 0.013,5e-4 c 0.6124,0.1091 1.9297,0.7893 4.4555,2.1322 5.7309,3.0463 8.5142,5.1218 8.5142,6.3479 0,0.9803 -5.3405,0.9068 -7.8491,-0.109 -2.038,-0.8255 -4.3233,-3.8476 -5.3413,-7.0663 -0.2608,-0.8306 -0.365,-1.29 0.015,-1.3193 z m -1.6655,3.0133 h 0.01 c 0.4908,-0.047 1.093,0.8422 1.895,2.6567 1.1296,2.5548 3.6587,4.2487 8.7173,5.8409 1.6619,0.5237 1.6641,0.6129 0.081,2.358 -1.8931,2.0913 -3.4099,2.1675 -7.4992,0.3768 -3.7385,-1.6368 -5.1776,-4.3193 -4.4354,-8.2791 0.361,-1.9248 0.7433,-2.9065 1.2361,-2.9533 z m 50.012,8.4976 c 6.7266,8.1969 6.5163,11.9801 2.1944,9.7302 -17.402,-9.059 -27.3141,5.3181 -39.4739,16.4994 -1.9428,1.8007 -2.2836,3.3692 -1.3393,3.0746 2.5035,-0.7808 8.6053,-5.9303 14.9025,-12.3098 9.8954,-10.0246 21.5387,-7.312 27.428,-1.6386 2.1739,2.0943 2.3556,2.0652 -0.2762,8.5425 -2.4596,6.0536 -12.4519,16.5346 -15.4781,15.997 -0.7138,0 -2.1709,-2.0679 -3.2376,-4.5946 -1.0697,-2.5265 -2.3707,-4.4529 -2.898,-4.2803 -3.1148,1.1334 -1.2985,7.0057 0.6583,11.0338 -5.7019,1.4659 -12.8911,-0.011 -18.8846,-5.6595 -9.5809,-9.0349 -8.4359,-23.0659 2.8211,-34.4961 9.8267,-8.9596 26.8571,-10.0951 33.5834,-1.8986 z m -2.4322,25 c -1.2823,-0.1034 -3.4244,2.3899 -3.4244,4.1125 0,2.6345 2.7666,1.5461 4.0447,-1.3462 0.5843,-1.3224 0.6856,-2.661 -0.6203,-2.7663 z m 17.5051,14.0919 c -1.7024,-0.1483 -2.889,-0.3278 -3.7725,-0.3442 -5.7194,-0.106 -5.0784,2.0756 0,2.3389 5.8935,0.3056 4.1149,3.4755 4.1149,8.3626 0,4.1985 0.2952,7.9295 0.6562,8.2915 1.1843,1.183 1.9609,-2.5113 2.0258,-9.6304 -0.412,-4.4635 0.3502,-8.7242 -3.0244,-9.0184 z m 37.3145,1.9656 c 0.1034,0.1662 0.8903,1.8762 1.7684,3.8029 1.5706,3.4527 1.5624,3.5264 -0.4858,5.2007 -0.7899,0.6444 -1.8799,1.0984 -2.3585,1.311 -0.7737,-0.627 -1.3549,-1.9536 -2.9884,-3.2768 -1.4986,-1.2136 -2.5136,-0.553 -1.1741,1.2066 0.8699,1.1513 2.407,3.2927 2.0339,3.6376 -0.6885,0.6338 -1.7081,1.2566 -2.791,1.865 -0.3305,0.1843 -2.169,-2.256 -3.3574,-3.7223 -1.0626,-1.3086 -2.6253,-0.9307 -1.4025,0.7757 0.7939,1.1054 3.2592,4.2283 2.9864,4.4896 -0.4958,0.4734 -2.763,1.7839 -3.1554,2.0945 0,0 -1.002,-1.1112 -2.2898,-2.5591 -0.9815,-1.1043 -2.2671,-0.8074 -1.4133,0.7571 0.6286,1.1505 2.0463,2.8372 1.6205,3.113 -0.4644,0.301 -2.2744,1.6475 -2.6608,1.9952 -0.439,0.3939 -0.795,0.4004 -2.2308,-1.2573 -1.6619,-1.9193 -2.4437,-0.9594 -1.3142,0.8868 0.5273,0.8633 1.4288,2.0279 1.0496,2.2598 -0.5273,0.3217 -2.319,1.7293 -2.9192,2.2076 -0.2332,0.1767 -1.2897,-1.4056 -2.7001,-2.6758 -1.5818,-1.4289 -2.3395,-0.5712 -1.4077,0.7902 0.5739,0.8369 2.3322,3.2747 2.1761,3.3842 -0.6855,0.4741 -2.4387,1.8585 -2.9295,2.0516 -0.1551,0.06 -1.6452,-1.7647 -1.9048,-2.0262 -1.667,-1.6649 -2.1509,-0.091 -1.5121,0.926 0.3427,0.5468 1.5604,2.4578 1.3555,2.5859 -0.4988,0.3116 -1.4954,1.5741 -1.8898,1.9012 -1.0099,0.8379 -1.8129,0.5017 -3.8246,-1.5984 -1.4002,-1.4617 -2.3969,-3.0689 -2.2154,-3.5729 0.1825,-0.504 3.2151,-3.2139 6.7407,-6.0224 4.8061,-3.8276 5.8524,-4.689 6.7872,-5.2973 6.0889,-0.9964 9.3481,-3.5266 7.1417,-5.593 1.0352,-1.2861 2.1577,-1.4968 7.7091,-5.1216 4.0579,-2.6511 7.4567,-4.6845 7.5561,-4.5191 z m -93.1995,7.5406 v 5e-4 c 1.3679,5e-4 2.6455,0.2981 3.8034,0.8977 3.8328,1.9817 8.1896,7.2722 9.309,11.3021 1.4124,5.0891 1.238,5.3135 -1.6883,2.1818 -5.7349,-6.1425 -7.5862,-0.7586 -4.1175,5.1795 l 5.4684,9.3627 -2.0666,7.5655 c -1.1377,4.161 -2.4883,11.3271 -3.0024,15.9236 -1.1001,9.8569 0.031,15.0089 4.4948,20.5703 1.5403,1.9161 2.7999,3.7799 2.7999,4.1408 0,0.3609 -1.7434,2.9134 -3.8727,5.673 -4.3905,5.6895 -8.358,8.5953 -15.475,11.3275 -2.7114,1.041 -7.4941,2.6121 -10.6283,3.4918 -5.3253,1.4936 -5.7925,1.4977 -7.0853,0.068 -3.6817,-4.0684 -9.6573,-28.4637 -9.6573,-39.4296 0,-9.968 4.2142,-27.6193 8.7669,-36.7177 2.8685,-5.734 11.9514,-16.97 15.4182,-19.0727 2.7031,-1.6397 5.2473,-2.466 7.5328,-2.465 z m 96.2939,4.4654 c 0.026,10e-4 0.036,0.013 0.028,0.037 -0.1034,0.3108 -3.1777,2.6051 -9.449,7.0595 -4.9461,3.5132 -9.3648,6.3882 -9.817,6.3882 -1.5321,0 8.4622,-7.3142 16.2615,-11.9031 1.7905,-1.0527 2.7924,-1.5888 2.9761,-1.5813 z m -91.8879,0.8015 c -0.09,0 -0.1753,-3e-4 -0.26,0.01 v 0.013 c -1.163,0.1843 -1.526,1.8101 -0.4258,2.9114 0.9612,0.9602 2.5766,0.1428 2.5766,-1.3043 0,-0.7068 -0.7219,-1.4242 -1.602,-1.5937 -0.1039,-0.02 -0.1988,-0.029 -0.2888,-0.033 z m -13.2499,0.079 c -1.088,0.032 -2.104,1.3033 -1.3973,2.449 0.3397,0.5475 0.9785,0.9953 1.4226,0.9953 1.4155,0 2.0778,-1.9541 1.0212,-3.0112 -0.3173,-0.3161 -0.6855,-0.4435 -1.0465,-0.4331 z m 5.9893,0.4615 c -0.5029,0.039 -1.0116,0.5658 -1.2195,1.5606 -0.1815,0.8301 0.3296,1.4222 1.2097,1.4222 0.945,0 1.3941,-0.601 1.1994,-1.6035 -0.1815,-0.9654 -0.6856,-1.4169 -1.1896,-1.3793 z m 106.6571,0.8196 c 0.051,-5e-4 0.087,0.01 0.1075,0.031 v -0.01 c 1.376,1.3754 6.5612,20.6301 5.7459,21.3336 -0.4208,0.3625 -4.8862,3.3582 -9.9235,6.6569 -5.0404,3.2985 -11.6046,7.8995 -14.5908,10.2258 -2.983,2.3263 -5.6763,4.2297 -5.9795,4.2297 -1.0099,0 -11.3858,-10.7241 -11.3858,-11.7879 1.0818,-1.1451 2.3626,-1.6655 5.7381,0.057 4.6034,2.347 14.1358,2.2843 16.5297,-0.109 0.9684,-0.9693 2.6434,-2.2338 3.7182,-2.8097 3.2771,-1.753 1.8674,-4.0105 -3.2045,-5.1314 l -4.5666,-1.0103 3.7853,-1.0614 c 4.0639,-1.1386 6.3563,-3.1238 5.3981,-4.6721 -0.8203,-1.3279 -3.1696,-0.7787 -10.173,0.5379 -3.9757,0.7473 -5.6765,0.654 -6.7614,0.026 8.4868,-6.4569 23.9948,-16.4923 25.5623,-16.507 z m -115.8271,4.9113 c -0.7564,0 -1.374,0.6185 -1.374,1.3741 0,0.7556 0.6176,1.3741 1.374,1.3741 0.7554,0 1.3757,-0.6185 1.3757,-1.3741 0,-0.7556 -0.6203,-1.3741 -1.3757,-1.3741 z m 6.8704,0.9163 c -0.5039,0 -0.9147,0.6185 -0.9147,1.3745 0,0.7556 0.4108,1.3736 0.9147,1.3736 0.503,0 0.9157,-0.618 0.9157,-1.3736 0,-0.756 -0.4127,-1.3745 -0.9157,-1.3745 z m 7.7866,2.7481 c -1.378,0 -1.882,1.9338 -0.786,3.0288 0.8538,0.8548 2.1596,-0.1768 2.1596,-1.7085 0,-0.726 -0.6172,-1.3203 -1.3736,-1.3203 z m -13.7407,2.7482 c -0.7635,0 -1.3736,0.8138 -1.3736,1.8314 0,1.0179 0.6101,1.8319 1.3736,1.8319 0.7625,0 1.3761,-0.814 1.3761,-1.8319 0,-1.0176 -0.6136,-1.8314 -1.3761,-1.8314 z m -7.0115,2.0675 c -0.5628,0.08 -1.1961,0.5743 -1.479,1.4237 -0.2078,0.5982 0.2898,1.0883 1.0878,1.0883 0.797,0 1.449,-0.6529 1.449,-1.4505 0,-0.8088 -0.494,-1.142 -1.0578,-1.0615 z m 15.6864,0.9002 c -1.0849,0.031 -2.103,1.3022 -1.3942,2.4479 0.3377,0.5476 0.9795,0.9953 1.4226,0.9953 1.4155,0 2.0756,-1.9541 1.018,-3.0111 -0.3143,-0.3157 -0.6854,-0.4424 -1.0464,-0.4321 z m 70.5445,3.8153 c 0.044,0.017 0.043,0.1597 0.043,0.4935 -0.9166,1.5029 -3.429,4.4029 -4.5981,6.5655 -0.2697,-0.3708 -1.0131,-1.3806 -1.1814,-1.6903 -0.2079,-0.3862 3.0061,-3.5377 4.884,-4.714 0.4593,-0.2876 0.6858,-0.5514 0.7953,-0.632 v 0 c 0.026,-0.02 0.045,-0.028 0.06,-0.023 z m -62.3001,0.7648 c -1.0859,0.031 -2.1029,1.3034 -1.3942,2.449 0.3377,0.5476 0.9786,0.9953 1.4227,0.9953 1.4155,0 2.0745,-1.9543 1.018,-3.0112 -0.3144,-0.3159 -0.6855,-0.4433 -1.0465,-0.4331 z m -15.0321,0.6966 c -1.6172,0 -2.6537,1.507 -1.8872,2.7477 0.9968,1.6117 3.2065,0.9802 3.2065,-0.9163 0,-1.0075 -0.5923,-1.8314 -1.3193,-1.8314 z m -7.8409,0.9147 c -1.2209,0 -1.8314,0.6116 -1.8314,1.833 0,1.2214 0.6105,1.8319 1.8314,1.8319 1.2228,0 1.8319,-0.6105 1.8319,-1.8319 0,-1.2214 -0.6091,-1.833 -1.8319,-1.833 z m 38.206,0.7281 c 0.025,0 0.062,0.01 0.1116,0.03 0.3945,0.1843 1.5922,1.1985 3.8401,3.1584 10.246,8.9336 15.2882,9.6747 26.3343,3.8727 5.5748,-2.9292 4.3502,-2.6513 5.4301,-3.0872 0.4593,0.8566 2.7962,3.7688 2.7962,3.7688 0.3792,0.2672 -4.7125,3.943 -9.3239,6.1686 -6.2532,3.0179 -11.0699,4.0058 -13.8431,2.8376 -2.0431,-0.8602 -10.8349,-10.041 -14.2601,-14.8911 -0.8428,-1.1931 -1.2603,-1.8381 -1.0852,-1.8578 z m -21.7445,1.325 c -1.088,0.032 -2.103,1.3019 -1.3973,2.4474 0.3407,0.5477 0.9796,0.9953 1.4237,0.9953 1.4145,0 2.0766,-1.9537 1.0201,-3.0107 -0.3164,-0.3158 -0.6856,-0.4424 -1.0465,-0.432 z m -22.8182,2.528 c -1.239,0 -2.0959,1.6697 -1.4206,2.7626 0.3163,0.512 0.9604,0.6938 1.4278,0.4041 1.1144,-0.6876 1.1062,-3.1667 0,-3.1667 z m 9.2149,2.959 c -0.9845,-0.1273 -1.8303,0.845 -1.3456,2.1074 0.2839,0.7396 0.8601,1.3446 1.2779,1.3446 1.3303,0 2.0358,-1.9523 1.0573,-2.9301 -0.3173,-0.3161 -0.66,-0.4799 -0.9896,-0.5219 z m 9.509,0.7043 c -1.4176,0 -1.8198,1.0815 -0.7896,2.1131 0.7321,0.7317 2.1627,-0.096 2.1627,-1.2501 0,-0.4742 -0.6177,-0.863 -1.3731,-0.863 z m 10.2717,1.0641 c -1.4925,-0.109 -2.8322,1.29 -2.0768,2.5104 0.8984,1.4543 2.9751,1.216 3.5987,-0.4134 0.3143,-0.8163 -0.051,-1.6374 -0.88,-1.9534 -0.2079,-0.083 -0.4289,-0.1275 -0.6419,-0.1431 z m 11.7213,0 c 0.1562,-0.1713 3.5317,2.9959 7.476,7.0352 7.7396,7.9284 11.7719,9.8968 17.7989,8.692 l 3.0877,-0.6186 -1.5787,2.2195 c -3.2092,4.5181 -11.8169,18.4747 -13.2659,21.5176 -1.7947,3.7579 -2.4485,3.8135 -6.7903,0.5865 -8.1086,-6.028 -11.4924,-12.716 -10.4541,-20.6737 0.6986,-5.3568 3.2671,-18.2908 3.7264,-18.7585 z m -41.6336,3.5062 c -1.236,0 -2.0959,1.67 -1.4206,2.7631 0.3164,0.5118 0.9604,0.6934 1.4278,0.4036 1.1143,-0.6875 1.1062,-3.1667 0,-3.1667 z m 87.469,1.1245 c 0.8882,0.8323 3.6847,3.5927 6.826,7.1195 3.7161,4.1707 6.401,6.413 7.6786,6.413 1.0799,0 4.0092,-1.142 6.7246,-3.207 2.5136,-1.9106 4.9104,-3.666 5.1284,-3.666 0.2079,0 0.5709,8.272 0.7524,17.8191 0.2079,11.4001 0.6887,17.7184 1.3772,18.4071 1.1214,1.1223 38.9748,1.3484 47.271,0.2822 l 4.3486,-0.5597 v 7.4456 7.4476 l -13.0525,0.052 c -7.1798,0.028 -20.8196,0.1298 -30.3154,0.2284 -9.4958,0.096 -17.5689,-0.028 -17.9421,-0.2801 -0.3741,-0.2519 -2.0281,-6.4351 -3.6768,-13.7403 -1.6467,-7.3052 -4.3865,-17.1985 -6.0849,-21.9847 -1.6822,-4.6702 -7.1557,-19.1604 -13.933,-18.4484 0.8568,-0.775 3.8231,-2.5578 4.8979,-3.328 z m -74.3959,0.7069 c -0.6692,0 -1.2196,0.8242 -1.2196,1.832 0,2.083 2.2975,2.4971 3.0458,0.5488 0.5739,-1.4982 -0.1045,-2.3808 -1.8262,-2.3808 z m 11.1476,0.8682 c -0.5039,-0.026 -1.0596,0.6382 -1.233,1.4785 -0.2079,0.9552 0.1552,1.3749 0.9167,1.1182 1.4256,-0.4755 1.674,-2.525 0.3163,-2.5967 z m -19.6272,3.7114 c -1.8332,0 -2.5656,1.776 -1.2697,3.0727 0.9815,0.9818 2.5441,0.1406 2.8716,-1.5441 0.2079,-1.0296 -0.3222,-1.5286 -1.6019,-1.5286 z m 23.2905,3.6628 v 0 c -1.6223,0 -2.3674,2.3041 -1.1415,3.53 0.7057,0.7047 1.3525,0.7191 2.1647,0.044 1.3658,-1.1342 0.6681,-3.576 -1.0232,-3.576 z m -7.7943,0.2424 c -0.499,0.048 -0.9085,0.5389 -0.9085,1.5156 0,1.1251 0.5911,1.9079 1.4408,1.9079 0.8537,0 1.3216,-0.6231 1.1482,-1.527 -0.2342,-1.149 -0.8733,-1.8034 -1.4624,-1.8903 -0.074,-0.011 -0.1468,-0.013 -0.2181,-0.01 z m 61.4221,0.2398 c 0.7433,-0.047 1.4054,0.4457 2.3321,1.4143 3.0592,3.2032 4.4003,5.5001 6.8156,14.4756 2.833,10.5276 7.1699,31.5671 6.6792,32.4063 -0.2343,0.3778 -3.5732,0.7055 -7.4476,0.7276 -3.8764,0.026 -11.1678,0.4129 -16.2052,0.8682 -5.0404,0.4551 -10.7765,1.1205 -12.7496,1.4785 -3.3127,0.6014 -3.5233,0.5173 -2.7466,-1.0966 0.4624,-0.9612 0.8514,-5.6942 0.8666,-10.5182 0.03,-8.6879 0.081,-8.8359 4.0359,-15.5732 5.7126,-9.6962 12.4088,-19.286 15.613,-22.3563 1.2441,-1.1908 2.0644,-1.7786 2.8066,-1.8262 z m -83.8569,1.3497 c -0.7554,0 -1.3731,0.6187 -1.3731,1.3746 0,0.7556 0.6177,1.3736 1.3731,1.3736 0.7554,0 1.3741,-0.618 1.3741,-1.3736 0,-0.7559 -0.6187,-1.3746 -1.3741,-1.3746 z m 12.8245,0 c -0.7554,0 -1.3741,0.6187 -1.3741,1.3746 0,0.7556 0.6187,1.3736 1.3741,1.3736 0.7554,0 1.3741,-0.618 1.3741,-1.3736 0,-0.7559 -0.6187,-1.3746 -1.3741,-1.3746 z m 69.0826,2.9415 c -0.5608,0.026 -1.2876,4.6498 -1.9781,13.8958 l -0.7902,10.5885 c -0.081,2.1219 -0.1813,2.1796 -3.5253,2.2463 -1.8099,0.036 -5.4353,0.5408 -8.1101,0.5478 -3.0064,0 -4.6477,0.3592 -4.2969,0.9255 0.3194,0.516 4.7444,0.853 10.1316,0.9163 7.0318,0.083 9.4053,0.5579 9.4935,-0.8517 l 0.051,-14.4916 c -0.03,-9.2036 -0.4077,-13.7962 -0.9664,-13.7769 z m -75.4956,2.5068 c -0.504,-0.026 -1.0566,0.6392 -1.231,1.4795 -0.2078,0.9553 0.1558,1.3745 0.9163,1.1177 1.4256,-0.4754 1.6754,-2.5255 0.3147,-2.5972 z m 10.1311,1.881 c -1.9265,0 -2.6684,1.7108 -1.404,3.2365 0.6053,0.7281 1.4638,1.0973 1.911,0.8211 1.3293,-0.8203 0.9237,-4.0576 -0.507,-4.0576 z m 9.4238,0.2336 c -0.5638,0.08 -1.1972,0.5758 -1.4801,1.4252 -0.2079,0.5982 0.2878,1.0883 1.0847,1.0883 0.8001,0 1.4521,-0.6528 1.4521,-1.4505 0,-0.8089 -0.494,-1.1435 -1.0567,-1.063 z m -25.9664,4.2085 c -0.4776,0 -1.0178,0.4428 -1.1963,0.9845 -0.1825,0.5413 0.3577,0.9839 1.1963,0.9839 0.8416,0 1.3789,-0.4426 1.1994,-0.9839 -0.1815,-0.5417 -0.7188,-0.9845 -1.1994,-0.9845 z m 8.2444,1.0527 c -1.379,0 -1.8827,1.9337 -0.7896,3.0287 0.8568,0.8548 2.1637,-0.1788 2.1637,-1.7079 0,-0.726 -0.6187,-1.3208 -1.3741,-1.3208 z m 22.8994,0.9157 c -1.4287,0 -1.8177,1.0834 -0.7632,2.1373 1.0545,1.054 2.1394,0.6666 2.1394,-0.7638 0,-0.7556 -0.6208,-1.3735 -1.3762,-1.3735 z m -12.3651,1.8329 c -0.5039,0 -0.9168,0.618 -0.9168,1.3736 0,0.7558 0.4129,1.3741 0.9168,1.3741 0.5039,0 0.9167,-0.6183 0.9167,-1.3741 0,-0.7556 -0.4128,-1.3736 -0.9167,-1.3736 z m 6.2854,1.0568 c -0.065,0 -0.1272,0.012 -0.1855,0.034 v -0.01 c -0.3539,0.1141 -0.6031,0.5762 -0.6031,1.2061 0,0.8397 0.4419,1.3786 0.9844,1.1979 0.5404,-0.1818 0.9845,-0.7193 0.9845,-1.1979 0,-0.4785 -0.4441,-1.0189 -0.9845,-1.1994 -0.065,-0.022 -0.1313,-0.034 -0.1958,-0.034 z m -14.07,2.6076 c -1.382,0 -1.8847,1.9336 -0.7896,3.0283 0.8548,0.8548 2.1627,-0.1792 2.1627,-1.7095 0,-0.726 -0.6177,-1.3188 -1.3731,-1.3188 z m -8.2444,1.8314 c -1.4176,0 -1.8198,1.0803 -0.7886,2.112 0.7321,0.7317 2.1627,-0.096 2.1627,-1.2505 0,-0.4741 -0.6187,-0.8615 -1.3741,-0.8615 z m 27.9032,0.2181 c -0.9663,0.039 -1.8097,0.8553 -1.3007,1.6774 0.291,0.469 0.8902,0.8537 1.3343,0.8537 1.2827,0 1.9548,-1.6484 0.9317,-2.2815 -0.3062,-0.1895 -0.6408,-0.2623 -0.9653,-0.2491 z m -12.7362,1.6144 c -1.1559,0 -1.9811,1.4314 -1.249,2.1631 1.0312,1.0316 2.111,0.6274 2.111,-0.7891 0,-0.7558 -0.3864,-1.374 -0.862,-1.374 z m 19.9569,1.1513 c -0.5628,0.08 -1.1967,0.5754 -1.4826,1.4247 -0.2079,0.5983 0.2915,1.0883 1.0915,1.0883 0.7969,0 1.4484,-0.6524 1.4484,-1.45 0,-0.8089 -0.4936,-1.1435 -1.0573,-1.063 z m -27.7957,2.513 c -0.7554,0 -1.3741,0.6182 -1.3741,1.3741 0,0.7556 0.6187,1.3741 1.3741,1.3741 0.7554,0 1.3725,-0.6185 1.3725,-1.3741 0,-0.7559 -0.6171,-1.3741 -1.3725,-1.3741 z m 15.1665,0 c -1.1559,0 -1.981,1.4297 -1.249,2.1617 1.0312,1.0317 2.111,0.6289 2.111,-0.7876 0,-0.7559 -0.3874,-1.3741 -0.862,-1.3741 z m 6.6415,2.8717 c -0.1023,0 -0.1987,9e-4 -0.2909,0.013 v 0.01 c -0.5577,0.098 -0.9085,0.5212 -0.9085,1.1607 0,0.8499 0.7839,1.4413 1.9084,1.4413 2.2337,0 1.9163,-2.1404 -0.3814,-2.5859 -0.1171,-0.023 -0.2253,-0.035 -0.3276,-0.039 z m -29.5956,0.7932 c -0.5039,0 -0.9162,0.6183 -0.9162,1.3741 0,0.7556 0.4123,1.3736 0.9162,1.3736 0.504,0 0.9167,-0.618 0.9167,-1.3736 0,-0.7558 -0.4127,-1.3741 -0.9167,-1.3741 z m 46.7904,0.4894 c 0.6124,-0.1014 1.0517,0.244 1.6986,0.8294 1.7552,1.5877 1.7341,1.7001 -1.4123,7.6311 -5.1904,9.7851 -2.8567,14.0191 2.928,5.3082 5.16,-7.772 5.8245,-6.7595 2.961,4.5191 -1.1792,4.6408 -7.2684,10.6431 -12.3393,12.1626 -2.0573,0.616 -5.5462,1.0776 -7.7566,1.0262 -11.9151,-0.2786 -30.058,-8.0601 -25.5064,-10.9399 0.7382,-0.4653 2.3975,-0.8523 3.6933,-0.8598 7.9769,-0.047 21.2872,-6.5911 29.4607,-14.4813 3.7446,-3.6168 5.2499,-5.0267 6.273,-5.1956 z m -31.3443,0.5674 c -0.065,0 -0.1272,0.012 -0.1855,0.034 v -0.01 c -0.3529,0.1143 -0.6026,0.5751 -0.6026,1.2051 0,0.8395 0.441,1.3789 0.9834,1.1984 0.5405,-0.1818 0.985,-0.7199 0.985,-1.1984 0,-0.4788 -0.4445,-1.0175 -0.985,-1.1979 -0.065,-0.023 -0.1308,-0.034 -0.1953,-0.034 z m 7.0512,3.5228 c -1.5291,0 -2.5637,1.3069 -1.7089,2.1616 1.0961,1.0947 3.0277,0.5921 3.0277,-0.7875 0,-0.7559 -0.5918,-1.3741 -1.3188,-1.3741 z m -15.6264,0.9167 c -0.7554,0 -1.3741,0.4106 -1.3741,0.9147 0,0.5037 0.6187,0.9162 1.3741,0.9162 0.7554,0 1.3741,-0.4125 1.3741,-0.9162 0,-0.5041 -0.6187,-0.9147 -1.3741,-0.9147 z m 7.2052,2.9704 c -1.1945,-0.1792 -2.4587,1.313 -1.758,2.4448 0.8983,1.4528 3.2535,1.2186 3.2535,-0.3235 0,-0.726 -0.4462,-1.5979 -0.9947,-1.9363 -0.1552,-0.1013 -0.3315,-0.158 -0.5008,-0.184 z m -9.8211,3.6628 0.014,5e-4 c -0.1815,0.032 -0.3824,0.098 -0.569,0.213 -0.7686,0.4751 -0.7532,0.9908 0.051,1.975 0.7665,0.9236 1.3971,1.0382 2.0593,0.3757 1.0697,-1.0702 -0.2079,-2.7734 -1.5555,-2.5642 z m 133.1252,7.3836 v 10e-4 l 30.3041,0.073 -0.2594,10.1291 -0.2594,10.1296 -7.7143,0.5731 c -4.2454,0.315 -28.7733,0.8387 -54.5047,1.1632 -47.5365,0.5998 -68.6211,1.4192 -97.9407,3.8044 -16.5642,1.3479 -24.4166,1.6491 -24.4166,0.9379 0,-0.2155 2.371,-1.8418 5.2658,-3.6137 2.8979,-1.7719 8.3195,-5.4405 12.0509,-8.153 l 6.7851,-4.9309 6.3852,3.2768 c 5.7015,2.9285 7.2753,3.3105 14.7412,3.5837 10.9984,0.4027 17.1581,-1.7674 23.9557,-8.4398 2.627,-2.5795 4.933,-5.1794 5.1226,-5.7779 0.2596,-0.7876 6.1699,-1.1799 21.4168,-1.3741 l 20.4691,-0.2615 c 1.2177,5.8114 0.9864,7.3141 2.0825,12.7848 0.5526,3.7175 3.4535,3.6538 13.2555,3.762 12.7779,0.1403 15.9489,0.026 15.9489,-3.2794 0,-2.384 -4.8073,-3.6285 -14.658,-3.7972 -11.9546,-0.2051 -7.6734,0 1.1085,-0.8681 8.6471,-0.7148 12.6328,-1.848 12.6328,-3.5895 0,-1.9228 -4.6115,-3.0928 -12.8246,-3.2535 -6.9588,-0.1376 -8.7556,-0.4496 -8.9767,-1.5622 -0.2342,-1.223 3.3859,-1.3823 30.0266,-1.3177 z" fill="#00B894" transform="translate(497.98046,-131.6151) translate(-10095.898,-1492.0502)"/>
</svg>