<?xml version="1.0" ?><svg height="274.37683mm" viewBox="0 0 307.10965 274.37683" width="307.10965mm" xmlns="http://www.w3.org/2000/svg">
    <path d="m 10046.557,-25.976774 c -1.845,0.005 -3.575,0.10082 -5.148,0.30024 -12.581,1.59532 -28.794,9.922489 -37.787,18.1714997 -8.993,8.24900004 -12.406,19.8051193 -12.496,26.7311793 -0.09,6.92605 11.198,103.851875 12.193,118.871305 0.994,15.01941 1.34,18.09361 9.771,22.25704 0,0 -0.865,3.89072 -0.994,5.99188 -0.13,2.10116 1.989,10.35055 2.767,12.64626 0.778,2.2957 3.848,2.45101 3.848,2.45101 l 5.058,-15.29157 71.685,19.76623 c 0,0 2.853,14.16376 3.675,17.51004 0.821,3.34632 6.399,0.89463 7.437,-0.97306 1.037,-1.86772 4.064,-14.16296 4.064,-14.16296 0,0 6.874,-1.51796 10.895,-1.98489 4.021,-0.46691 20.234,-6.69262 20.234,-6.69262 l 9.489,-4.42191 c 3.541,12.19975 37.095,27.09417 42.178,-7.83471 1.426,-3.3852 -1.687,-17.19851 -3.762,-21.90667 -2.075,-4.70815 -11.267,-6.99472 -11.267,-6.99472 0,0 0,-20.44855 -3.125,-28.32217 -9.246,-19.17584 -32.854,-29.77404 -53.574,-30.24707 -5.664,0.23345 -20.926,-6.92619 -20.926,-6.92619 0,0 3.545,-9.260455 6.312,-15.953035 2.767,-6.69258 9.736,-35.27086 9.131,-44.92063 -0.605,-9.6497793 -17.864,-25.1962 -28.716,-29.74871 -9.497,-3.983459 -28.029,-8.354079 -40.942,-8.315769 z m 212.516,127.200504 -17.31,13.76919 -18.363,7.65121 -15.897,7.69194 7.453,26.68736 3.391,21.8666 4.654,0.86951 21.941,-14.56762 6.606,-4.17029 10.398,-12.13208 z" fill="#FFFFFF" paint-order="markers stroke fill" transform="translate(412.80055,33.993495) translate(-10371.317,32.476773)"/>
    <path d="m 10054.123,-66.4659 c -0.24,0.015 -0.482,0.06711 -0.725,0.160196 -1.714,0.65728 -11.661,19.813595 -11.661,22.454961 0,1.046588 1.853,4.50255 4.124,7.679634 2.266,3.177074 4.12,6.162064 4.12,6.633704 0,0.471648 -1.958,0.954916 -4.352,1.073836 -12.451,0.618668 -26.763,6.094848 -35.342,13.523722 -2.835,2.455656 -7.382,6.1809891 -10.103,8.2785649 l -4.9495,3.8137207 -7.5039,-0.5141805 c -7.85,-0.538059 -11.0314,-2.5742707 -16.3654,-9.0831661 -8.906,-8.610234 -12.1046,-10.214561 -12.8266,-6.430099 -0.419,2.195676 5.1718,10.5443601 11.1336,16.6227581 4.301,4.3850112 6.2441,5.7767683 12.8091,5.3056193 4.437,0.2607194 8.2671,0.6806269 8.5261,0.9332763 0.255,0.2524696 -0.4491,3.4513563 -1.5601,7.1086103 -2.62,8.627672 -2.1189,18.695086 2.2541,45.299044 1.739,10.579958 3.8431,25.007319 4.6731,32.060575 0.832,7.053336 2.2859,18.801764 3.2308,26.106934 0.9447,7.30526 2.1837,18.64068 2.7547,25.19019 1.334,15.28834 2.113,18.21024 5.506,20.62665 2.572,1.82134 2.727,2.3172 2.727,8.06773 0,3.36973 0.402,7.52966 0.893,9.24439 1.07,3.7262 4.303,7.4042 6.513,7.4042 2.63,0 6.12,-5.11479 7.338,-10.75231 0.626,-2.90276 1.198,-5.37531 1.278,-5.49476 0.07,-0.11938 7.526,2.25638 16.561,5.27978 14.024,4.69394 36.73,11.47514 48.026,14.3428 3.02,0.76677 3.241,1.0822 3.775,5.44979 0.82,6.65848 2.485,11.11641 4.744,12.69845 2.889,2.02368 5.044,1.69424 7.953,-1.21439 2.656,-2.6545 4.59,-7.81559 4.59,-12.29383 0,-2.19675 0.364,-2.51922 2.802,-2.51922 5.507,-0.56971 13.466,-1.75498 18.688,-4.32429 5.041,-2.57447 12.283,-7.67619 12.768,-9.07851 1.692,-4.89176 -6.82,0.41548 -7.517,0.70796 -6.143,2.5764 -15.65,8.15743 -33.437,5.59553 -2.8,-4.93046 -6.433,-23.91361 -6.513,-34.12143 -0.06,-7.18737 0.281,-9.47729 1.976,-13.1532 2.309,-4.99905 1.914,-7.05512 -0.867,-4.53978 -5.564,5.03291 -7.893,16.32397 -6.243,30.26327 0.624,5.25458 1.675,11.88895 2.341,14.74329 0.657,2.85426 1.071,5.33215 0.89,5.50612 -0.979,0.97666 -27.762,-6.14178 -54.822,-14.56914 -25.816,-8.04077 -30.873,-9.99053 -31.694,-12.21941 -0.387,-1.04996 -0.958,-7.06176 -1.27,-13.35939 -0.311,-6.29755 -1.573,-18.66382 -2.802,-27.48049 -1.23,-8.81661 -2.931,-21.389366 -3.78,-27.938864 -0.849,-6.549516 -3.1285,-20.564392 -5.0644,-31.144352 -5.204,-28.411602 -5.547,-37.755642 -1.757,-47.7314533 l 0.8196,-2.1605916 8.0438,2.8220499 c 12.918,4.532772 20.069,8.750976 27.768,16.377812 3.814,3.781532 7.813,8.730622 8.885,10.997778 4.37,9.249962 7.573,33.336597 7.573,56.950529 0,8.040632 0.409,15.383762 0.908,16.317872 1.293,2.41346 5.425,3.51906 16.954,4.53667 16.16,1.42631 22.605,3.26006 30.615,8.70799 7.98,5.42732 12.701,11.48507 15.621,20.04374 2.283,6.69561 5.481,26.38139 5.511,33.769 0,5.16318 1.142,7.30242 2.923,5.52111 0.533,-0.53427 0.9,-6.16761 0.87,-13.38575 -0.03,-6.85468 0.05,-12.45685 0.157,-12.44885 0.106,0.008 1.843,0.60772 3.858,1.33377 2.014,0.72603 8.69,1.67668 10.482,0.69918 0.271,-0.14798 2.683,1.69181 6.31,3.75533 5.933,3.37587 9.549,4.2405 15.507,6.09174 10.161,2.79058 22.805,2.68083 30.526,2.39541 -0.594,1.54374 -1.279,2.75499 -2.085,4.19175 -1.166,2.0768 -3.103,4.55011 -4.305,5.49631 h 0.01 c -1.201,0.946 -2.437,1.71015 -2.75,1.70015 -2.279,-0.0813 -8.91,-4.20874 -12.588,-7.83311 l -3.252,-3.20652 -2.907,-0.91778 c -0.972,-0.0515 -3.727,-0.74541 -6.414,-1.63246 -2.328,-0.76781 -4.454,-1.27536 -5.289,-1.28726 -0.06,-7.9e-4 -0.106,4.5e-4 -0.15,0.004 -0.1,0.008 -0.169,0.0285 -0.202,0.0615 -0.271,0.2642 -0.479,2.27992 -0.479,4.47932 0,7.61837 4.598,14.98754 11.798,18.90634 2.464,1.34067 5.059,2.43809 5.765,2.43809 0.708,0 2.903,0.82423 4.879,1.83193 4.175,2.1279 7.639,2.36781 8.327,0.57671 0.302,-0.7843 1.791,-1.22076 3.973,-1.16376 3.843,0.1008 6.478,-1.51608 6.478,-3.97288 0,-0.9942 1.078,-1.89611 2.882,-2.41381 5.29,-1.51727 5.934,-6.77137 0.92,-7.51737 -1.083,-0.1609 -1.968,-0.36685 -1.968,-0.45785 0,-0.091 0.781,-2.22077 1.734,-4.73304 l 1.757,-4.48744 c 6.647,-1.17991 12.742,-2.46942 19.703,-4.13145 0.462,1.34699 0.867,3.57649 1.173,6.28024 0.564,4.98258 0.852,5.55857 3.023,6.03064 1.319,0.28702 2.979,0.70557 3.688,0.93018 2.885,0.91283 25.332,-12.35572 28.131,-16.62741 0.812,-1.23993 2.033,-2.25413 2.714,-2.25413 0.68,0 1.698,-0.86143 2.261,-1.91409 0.564,-1.0527 2.643,-4.04101 4.622,-6.64094 3.225,-4.24044 4.065,-5.51445 3.816,-8.9178 -0.05,-0.64449 -0.141,-1.68515 -0.214,-2.5585 0.743,-1.31591 1.081,-3.04057 -0.328,-3.90416 -0.176,-1.98372 -0.332,-3.68194 -0.332,-3.68194 1.532,-1.60946 3.595,-6.67875 -0.272,-6.9417 0,0 -0.281,-2.05113 0.01,-2.26963 1.952,-1.45491 1.778,-5.71706 -0.367,-5.03948 0,0 -0.867,-5.12755 -1.411,-9.38703 -0.546,-4.25938 -1.359,-8.11068 -1.808,-8.55813 -1.095,-1.096409 -4.108,0.57205 -9.94,5.50561 -2.645,2.23746 -4.808,3.84103 -4.808,3.56309 0,-0.27791 2.513,-3.42806 5.588,-7.00009 3.074,-3.572069 5.377,-6.707288 5.117,-6.967538 -1.527,-1.526686 -9.163,6.622228 -14.122,15.070918 -1.605,2.73637 -2.748,3.78055 -3.723,3.40599 -21.452,-7.61239 -46.255,-7.67948 -67.609,0.0496 l -5.759,2.44791 -3.743,-3.20394 c -2.499,-2.13888 -9.442,-5.54652 -20.89,-10.25053 -20.254,-8.321988 -29.441,-12.646655 -32.922,-15.498799 -6.048,-4.94868 -13.64,-8.083455 -22.472,-9.275403 l -4.349,-0.587561 -0.03,-7.042981 c -0.116,-23.919682 -5.582,-58.455555 -12.424,-78.4923662 -2.236,-6.5494758 -4.323,-12.6757778 -4.64,-13.6141558 -0.522,-1.553978 -0.216,-1.646469 3.454,-1.035079 6.807,1.135268 15.55,4.112975 24.194,8.241357 9.491,4.5325506 15.955,10.2653585 20.103,17.9188031 4.836,8.9210629 3.649,21.4863509 0.55,32.5473669 -1.52,5.42527 -4.678,14.19008 -6.857,19.52439 -2.176,5.33434 -4.217,11.422304 -4.534,13.52889 -0.522,3.454134 -0.329,4.007115 1.953,5.632731 3.341,2.378566 12.651,5.110487 27.122,7.959721 23.831,4.69188 37.642,12.872284 41.976,24.863086 0.852,2.35046 1.599,3.06616 2.996,2.86597 2.278,-0.32577 2.101,-2.09871 -0.86,-8.65322 -2.738,-6.063892 -8.017,-11.147269 -15.809,-15.224391 -8.419,-4.403192 -14.838,-6.370798 -30.474,-9.341032 -15.295,-2.905444 -22.635,-4.807696 -23.413,-6.068364 -0.302,-0.486888 1.384,-4.891089 3.741,-9.786999 2.361,-4.89599 5.999,-13.847828 8.088,-19.893876 4.271,-12.360326 7.518,-29.584827 -2.942,-44.3673181 -4.556,-6.4390772 -9.802,-9.8289459 -24.636,-17.1348719 -8.935,-4.40051 -14.016,-6.313541 -19.238,-7.244519 -3.903,-0.695808 -7.561,-1.278978 -8.133,-1.297078 -0.568,-0.0176 -2.749,-2.662217 -4.845,-5.877161 -2.096,-3.214992 -4.578,-6.542454 -5.518,-7.393864 -1.659,-1.499936 -1.571,-1.816962 2.783,-10.193176 2.472,-4.75472 4.495,-9.620979 4.495,-10.814327 0,-2.267846 -1.509,-3.986733 -3.185,-3.881933 z m -0.639,42.446504 2.051,4.024044 c 3.606,7.066786 7.216,19.09779281 11.375,37.917065 5.025,22.724036 5.981,30.274264 5.981,47.30719 v 13.462228 l -2.979,0.630452 c -1.636,0.34675 -4.918,1.454074 -7.294,2.460832 -3.453,1.465188 -4.709,2.643388 -6.286,5.902482 -1.911,3.929792 -1.701,7.092283 0.234,3.636471 3.284,-5.86886 10.802,-8.326869 23.585,-7.710641 2.796,0.152826 5.124,0.340347 7.349,0.794784 l -0.322,0.05788 c 1.061,0.186027 2.067,0.405754 3.034,0.659392 0.266,0.087 0.532,0.169873 0.8,0.2682 l 0.109,-0.01499 c 3.402,0.999909 6.303,2.47776 9.184,4.607988 3.236,2.392494 2.861,3.554224 -1.145,3.567224 -6.361,0.0194 -17.231,6.992825 -19.549,12.543425 h 0.01 c -0.933,2.22638 -1.802,2.98523 -3.31,2.88923 -5.837,-0.37187 -13.294,-1.04446 -17.684,-1.55495 -1.11,-0.15977 -2.268,-0.35602 -3.668,-0.65629 -1.843,-0.39304 -1.895,-0.88237 -1.636,-15.315861 0.143,-8.200344 0.499,-19.856647 0.792,-25.902295 0.491,-10.12614 0.32,-11.822183 -2.149,-21.526335 -3.856,-15.15312 -10.47,-28.509379 -18.14,-36.641174 -6.242,-6.61721676 -14.071,-11.3937233 -17.756,-10.8355143 -1.698,0.2567994 -1.36,0.7015602 2.254,2.9760457 4.474,2.8153643 16.569,15.0108466 15.725,15.8548466 -0.27,0.271158 -2.051,-0.875034 -3.954,-2.547132 -3.633,-3.1879336 -18.997,-10.7569713 -25.723,-12.67002743 l -3.931,-1.11879476 2.955,-3.73310551 c 7.717,-9.7430593 25.278,-17.5719453 42.089,-18.7652633 z m 35.147,15.6099002 c -0.678,-0.1410998 -0.726,1.8702354 0.327,5.7386678 0.891,3.27159342 1.379,9.3048724 1.379,17.324007 0.01,13.907242 -0.02,14.215836 -3.913,38.176998 -1.565,9.62749 -2.586,18.181087 -2.269,19.007625 0.667,1.735508 2.075,1.960942 2.991,0.478524 1.083,-1.749416 5.843,-29.170752 6.783,-39.064282 1.186,-12.483376 -0.141,-30.1947173 -2.795,-37.2866131 -1.068,-2.8529342 -1.976,-4.2651869 -2.503,-4.3749267 z m 16.203,104.8044558 c 0.644,-0.01062 1.29,0.0079 1.937,0.05478 l 4.121,0.29869 -5.32,1.643827 c -6.676,2.062993 -13.334,6.116393 -16.024,9.755993 -2.028,2.74428 -5.027,3.67591 -6.123,1.90221 -0.883,-1.4273 3.21,-6.25501 7.738,-9.12709 4.676,-2.966249 9.157,-4.454095 13.671,-4.528407 z m 9.363,3.77548 c 1.124,0.0181 0.973,0.20783 -0.244,0.60927 -3.863,1.27468 -10.552,6.24326 -13.731,10.19886 -3.1,3.85838 -3.715,4.08045 -6.964,2.51405 -2.778,-1.34068 -2.607,-2.27278 1.063,-5.73298 4.429,-4.1768 11.149,-7.12931 17.03,-7.48171 0.959,-0.0575 1.717,-0.0934 2.286,-0.10491 0.213,-0.004 0.4,-0.005 0.56,-0.003 z m 3.498,2.56005 c 2.877,0.0244 3.051,0.14831 1.441,1.02371 -5.375,2.9234 -8.951,6.04497 -12.012,10.48877 -1.872,2.72118 -3.648,4.93356 -3.941,4.91856 -0.294,-0.0161 -1.255,-0.5763 -2.138,-1.2454 -1.49,-1.1325 -1.394,-1.48114 1.426,-5.04414 4.482,-5.66328 11.256,-10.1755 15.224,-10.1415 z m 9.043,1.98076 c 1.106,-0.0276 2.072,0.17661 2.828,0.65526 0.938,0.59398 0.19,1.28124 -2.861,2.63084 -2.27,1.0047 -5.9,3.41905 -8.062,5.36505 -2.166,1.9461 -5.048,5.2819 -6.407,7.41298 -2.432,3.8218 -2.489,3.84984 -4.112,2.05724 -1.343,-1.4842 -1.457,-2.22753 -0.626,-4.05453 3.192,-7.00471 13.264,-13.91761 19.24,-14.06684 z m 131.188,0.2589 0.65,7.74784 c 0.465,5.54385 0.216,6.92671 0.216,6.92671 -2.831,1.96879 -3.682,7.04472 0.855,5.61103 0.275,0.72538 0.168,1.82506 0.33,2.25206 -1.432,1.74393 -1.612,2.50382 -2.609,4.02508 -1.508,2.30203 0.757,5.23724 2.415,4.20387 0.758,-0.47259 0.486,1.15678 0.453,1.73633 -0.02,0.3287 -1.376,1.12097 -2.497,2.54868 -1.064,1.35503 0.157,4.43565 2.558,3.29128 0,0 0.166,1.96514 -0.473,3.12384 -1.105,1.46493 -1.565,2.50911 -2.259,3.39152 -1.285,1.67371 -1.411,1.68989 -1.441,0.18914 -0.08,-4.73849 -2.994,-27.49431 -4.124,-32.24971 l -1.303,-5.49631 3.614,-3.65042 z m -123.415,3.22977 c 0.149,-0.003 0.296,-0.002 0.44,0.003 1.065,0.0357 2.003,0.28651 2.768,0.77204 0.816,0.5181 -0.02,1.28706 -2.738,2.50476 -5.199,2.3327 -13.589,9.38982 -17.292,14.54692 -3.232,4.49978 -4.011,4.93424 -4.866,2.70784 -1.209,-3.1531 -0.35,-5.08346 4.71,-10.55284 5.606,-6.06042 12.365,-9.88868 16.978,-9.98131 z m 8.904,3.72432 c 1.41,0.0277 2.706,0.34365 3.855,0.9586 1.716,0.9186 1.269,1.26858 -4.469,3.50108 -3.505,1.3641 -8.659,3.99724 -11.453,5.85184 -2.794,1.8545 -7.196,5.60716 -9.779,8.33954 -2.584,2.7325 -4.934,4.58656 -5.222,4.12016 -0.717,-1.16108 6.819,-10.7901 12.16,-15.5329 5.416,-4.81093 10.677,-7.32151 14.908,-7.23832 z m 104.67,2.67426 v 5.2e-4 c 0.04,0.004 0.08,0.0181 0.101,0.0439 0.184,0.20686 1.034,6.76523 1.886,14.57431 0.852,7.80896 1.913,16.83774 2.357,20.06389 0.636,4.59869 0.519,6.42909 -0.537,8.47338 -0.743,1.43413 -1.519,2.60759 -1.727,2.60759 -0.527,0 -1.218,-5.75889 -2.374,-19.8024 -0.542,-6.60886 -1.508,-14.5433 -2.147,-17.632 -1.059,-5.14326 -1.015,-5.74437 0.527,-7.13859 0.809,-0.7326 1.606,-1.21893 1.914,-1.19062 z m -44.82,0.36225 v 0 c 0.793,0.005 1.601,0.0249 2.427,0.0589 12.021,0 22.407,2.38574 25.649,3.35277 0,0.42299 -0.514,0.78022 -1.146,0.79582 -1.734,0.0405 -12.37,4.62779 -18.674,8.0548 -5.812,2.88586 -5.955,2.0927 -3.903,6.55154 3.35,7.27375 4.808,13.08365 5.536,17.96273 -1.716,2.08936 -0.506,7.19495 -1.985,7.49618 -2.895,0.60184 -4.943,0.97429 -8.01,1.7818 -6.974,1.83652 -6.605,1.42188 -6.605,0.37001 0,-0.44505 0.947,-0.73949 1.955,-1.00304 2.347,-0.61383 2.216,-3.91752 -1.828,-3.65559 0,0 -0.118,-0.92444 -0.616,-3.92121 -0.46,-2.76566 -1.216,-5.13957 -2.294,-7.18819 -0.5,-1.36863 -0.805,-3.1635 -0.721,-4.39302 0.227,-2.97053 -2.904,-7.0762 -5.17,-7.0559 -0.151,0.001 -0.299,0.0209 -0.441,0.0605 -0.789,0.2198 -3.105,0.65841 -5.146,0.97461 l -2.822,0.43667 -0.86,-0.30541 0.02,-6.95151 c 0.03,-5.5859 -0.231,-6.95152 -1.335,-6.95152 -1.103,0 -1.374,1.39958 -1.374,7.09983 v 7.09982 l -3.414,-5.1e-4 c -3.292,-6.7e-4 -3.378,-0.0829 -2.397,-2.24069 0.736,-1.62232 0.747,-3.31166 0.03,-6.12779 -1.184,-4.6657 -0.88,-4.61704 2.812,-5.8658 10.172,-3.48617 18.426,-6.51822 30.309,-6.43578 z m -50.846,0.47542 c 0.622,0.006 1.124,0.10351 1.482,0.30386 1.382,0.7736 0.45,1.48527 -5.8,4.42247 -4.095,1.9253 -9.197,4.69638 -11.334,6.15776 -2.14,1.4617 -5.599,3.73059 -7.689,5.04207 -2.087,1.3115 -4.972,4.04702 -6.411,6.07922 -2.887,4.0801 -3.988,4.62776 -3.988,1.98386 0,-2.5078 6.377,-10.22392 11.584,-14.01672 7.597,-5.53506 17.805,-10.01322 22.156,-9.97252 z m 89.701,2.81327 0.579,2.89801 c 1.25,6.23587 3.309,40.59008 2.452,40.87555 -0.481,0.16026 -3.267,1.8266 -6.193,3.70313 -2.923,1.87641 -6.811,4.32605 -8.641,5.44359 l -3.327,2.03192 -2.026,-8.35504 c 5.074,0.75892 16.731,-3.42644 17.38,-8.14524 0,-1.37841 -2.529,-1.68476 -4.694,-0.56844 -5.162,2.66188 -5.542,2.31814 -1.857,-1.67949 3.446,-3.73851 5.021,-7.83105 3.015,-7.83105 -0.436,0 -2.353,1.24166 -4.264,2.75953 -1.911,1.51796 -3.623,2.62262 -3.778,2.45463 -0.169,-0.16798 0.823,-2.42044 2.199,-5.00538 2.072,-3.88331 2.298,-4.9066 1.301,-5.88957 -0.995,-0.97822 -1.605,-0.73238 -3.435,1.3808 l -2.226,2.56987 v -3.25717 c 0,-2.60716 -0.353,-3.25716 -1.768,-3.25716 -1.29,0 -2.243,1.27414 -3.524,4.7072 l -1.757,4.70721 -2.498,-7.53804 c -1.376,-4.14576 -2.358,-7.66185 -2.203,-7.81348 0.165,-0.15153 4.337,-2.15653 9.276,-4.45554 4.936,-2.299 10.552,-5.4303 12.482,-6.95823 z m -83.674,1.40353 c 0.109,3.8e-4 0.214,0.004 0.315,0.0103 0.925,0.0592 1.54,0.37561 1.759,0.99425 0.371,1.0517 -6.834,4.19682 -10.547,4.60282 -2.487,0.2721 -6.561,2.74552 -6.561,3.98322 0,0.4679 -2.989,2.78279 -6.643,5.14439 -3.65,2.3618 -8.769,6.11089 -11.37,8.33127 -5.816,4.9667 -7.242,3.74473 -2.42,-2.07325 7.519,-9.07116 28.634,-21.01693 35.467,-20.99304 z m 4.134,4.40903 c 0.281,0.004 0.515,0.0367 0.682,0.10077 1.366,0.5239 1.683,3.27216 0.377,3.27216 -0.462,0 -1.402,0.215 -2.088,0.478 -0.685,0.263 -2.059,-0.11829 -3.051,-0.84749 -1.75,-1.2846 -1.724,-1.35756 0.87,-2.34766 1.105,-0.4239 2.367,-0.66816 3.21,-0.65578 z m 54.886,2.40813 c 0.294,0 -0.882,1.18372 -2.617,2.63084 -2.459,2.05285 -2.927,2.90874 -2.135,3.89331 0.561,0.6941 2.425,7.89771 3.288,12.74961 0.637,3.58164 1.594,5.20918 2.157,8.05945 -1.061,-0.36252 -2.369,-0.97656 -3.167,-4.16047 -1.11,-4.43253 -4.248,-14.28204 -5.25,-16.35611 -1.104,-2.85412 -1.613,-2.85467 7.724,-6.81663 z m -65.602,2.05775 c 2.996,0.0433 6.52,1.79141 10.097,5.13716 3.234,3.02608 3.176,4.26739 -0.267,5.69319 -1.532,0.6344 -4.147,2.74549 -5.812,4.69119 -1.667,1.94578 -3.24,3.53776 -3.473,3.53776 -1.335,0 -6.507,-8.85833 -6.905,-11.82821 -0.379,-2.816 -0.06,-3.85585 1.641,-5.44463 1.315,-1.22486 2.922,-1.81241 4.719,-1.78646 z m 13.445,0.80667 c 0.04,-0.002 0.07,2e-5 0.11,0.005 0.292,0.0412 0.562,0.30735 0.871,0.80718 0.446,0.7276 0.625,1.65173 0.366,2.05363 -0.641,1.0357 -1.96,0.90528 -2.685,-0.2651 -0.338,-0.5477 -0.137,-1.47203 0.444,-2.05363 0.348,-0.34972 0.633,-0.53425 0.894,-0.54725 z m 2.029,4.97437 c 0.504,-0.007 0.806,0.32641 0.806,0.94103 0,0.7399 -0.618,1.34514 -1.374,1.34514 -0.755,0 -1.374,-0.36814 -1.374,-0.81804 0,-0.4499 0.619,-1.05504 1.374,-1.34514 0.209,-0.0803 0.4,-0.12061 0.568,-0.12299 z m -26.478,0.71159 c 0.551,-0.0209 0.721,0.42539 0.732,1.24747 0,0.9356 0.236,2.535 0.511,3.5543 0.399,1.4939 -0.317,2.24809 -3.703,3.89279 -4.861,2.3616 -5.951,2.47568 -8.169,0.85318 -1.477,-1.0797 -1.148,-1.54224 3.643,-5.12682 4.084,-3.05356 6.066,-4.38609 6.986,-4.42092 z m 32.811,6.2482 c 0.55,0.0906 0.878,0.30668 0.878,0.67334 0,0.5543 -0.635,0.76392 -1.412,0.46612 -0.981,-0.3766 -1.732,0.31198 -2.467,2.25878 -0.581,1.5401 -1.802,2.99446 -2.71,3.23236 -2.005,0.5242 -2.254,4.93094 -0.421,7.43934 1.314,1.7954 3.347,1.24691 3.347,-0.90279 0,-0.7082 0.823,-1.72929 1.83,-2.26859 1.008,-0.5392 1.833,-1.72133 1.833,-2.62723 0,-2.2912 0.982,-3.03805 2.423,-1.84175 0.909,0.754 1.345,0.6867 1.708,-0.2651 0.592,-1.53676 7.934,-1.32835 9.561,0.14366 1.405,2.02783 1.023,2.70939 -1.186,2.70939 -3.796,0 -11.22,6.16725 -9.496,7.89048 0.356,0.35744 2.732,-0.48355 5.279,-1.86914 2.545,-1.38561 7.122,-2.54876 7.272,-2.34559 0.371,0.50288 0.595,1.78576 0.585,3.51761 -3.644,1.26219 -4.117,4.21111 -1.991,4.25711 l 1.267,0.0274 c 2.039,0.0441 -0.327,1.3371 -8.592,1.24592 -9.644,-0.10627 -14.323,-0.78102 -21.861,-3.15382 -7.403,-2.33006 -9.688,-3.32212 -9.688,-4.20594 0,-0.45427 1.007,-0.16543 2.241,0.64182 2.233,1.46292 2.248,1.4488 5.048,-4.09484 3.635,-7.19923 8.15,-10.35436 15.598,-10.89288 0.331,-0.0239 0.633,-0.0214 0.954,-0.0357 z m -30.299,2.86959 c 0.596,-0.0515 0.935,0.34995 1.527,1.16065 1.093,1.4963 0.925,1.87142 -1.524,3.36052 -3.31,2.0126 -3.999,2.06307 -5.38,0.39687 -0.852,-1.02588 -0.397,-1.6902 2.306,-3.36 1.621,-1.002 2.474,-1.50654 3.071,-1.55804 z m -19.098,4.41833 c 0.473,0.0342 0.816,0.34844 0.816,1.03353 0,0.6714 -0.854,1.75514 -1.901,2.40864 -1.735,1.083 -1.877,1.00221 -1.605,-0.91519 0.198,-1.38918 1.518,-2.44118 2.48,-2.52491 0.07,-0.006 0.143,-0.007 0.21,-0.002 z m 22.048,0.27699 c 0.414,-0.007 0.837,0.13837 1.34,0.4191 1.563,0.87568 1.493,1.03406 -0.875,1.93424 -3.952,1.502 -4.894,1.17616 -2.765,-0.95394 0.949,-0.94875 1.61,-1.38693 2.3,-1.3994 z m -18.309,3.38171 c 0.946,0 1.759,0.28931 2.117,0.86816 0.34,0.5503 -0.829,0.91175 -2.924,0.90175 -2.591,-0.0104 -3.137,-0.24255 -2.116,-0.90175 0.896,-0.57885 1.976,-0.86816 2.923,-0.86816 z m 37.185,3.72638 c -0.142,0.006 -0.266,0.0528 -0.361,0.14831 -0.292,0.2857 -0.253,1.37493 0.08,2.42053 v 0 c 0.669,2.1139 3.227,2.62021 3.227,0.63924 0,-1.28573 -1.95,-3.24907 -2.949,-3.20808 z m -151.04,7.42901 c 1.951,0.21692 7.544,3.61366 7.17,4.60643 -0.226,0.59825 -1.096,3.45781 -1.935,6.35465 -0.838,2.89693 -1.719,5.26738 -1.978,5.26738 -1.213,0 -4.809,-15.14254 -3.831,-16.12253 0.06,-0.0544 0.134,-0.0889 0.235,-0.10542 0.09,-0.0155 0.209,-0.015 0.339,-5.1e-4 z m 204.547,1.86603 c 0.508,-0.0228 0.826,0.35451 0.941,1.9451 0.112,1.53927 0.954,5.40962 1.245,6.92103 0.397,2.05927 0.19,2.74815 -0.83,2.74815 -1.006,0 -1.442,-1.34106 -1.676,-5.12682 -0.214,-3.47962 -0.746,-4.60195 -0.796,-6.1898 0.438,-0.12635 0.811,-0.28397 1.116,-0.29766 z m -37.057,5.58334 c -0.91,0.10684 -0.997,0.8429 -1.035,1.06351 -0.379,2.20757 1.793,3.59806 2.567,2.34662 0.296,-0.48284 0.501,-1.63461 0.05,-2.36368 -0.419,-0.67799 -0.852,-1.13219 -1.582,-1.04645 z m -83.958,18.93041 c 0.927,-0.0465 2.858,0.0799 4.978,0.34468 l 5.137,0.64182 -0.621,2.90422 c -0.341,1.59725 -1.169,4.24389 -1.841,5.8813 -1.877,4.56766 -3.61,3.69694 -6.252,-3.14348 -1.301,-3.3663 -2.198,-6.30188 -1.963,-6.52312 0.06,-0.0553 0.253,-0.0899 0.562,-0.10542 z" fill="#00B894" transform="translate(412.80055,33.993495) translate(-10371.317,32.476773)"/>
</svg>