<?xml version="1.0" ?><svg height="318.88422mm" viewBox="0 0 241.13058 318.88422" width="241.13058mm" xmlns="http://www.w3.org/2000/svg">
    <path d="m 11390.795,268.23559 c -3.417,-0.002 -7.171,0.52505 -11.204,1.64589 -18.439,5.12383 -24.206,18.66071 -25.95,33.28841 2.203,21.93329 17.098,26.72679 32.397,22.97483 15.298,-3.75196 27.402,-26.84267 25.987,-40.47866 -1.105,-10.65312 -9.025,-17.42195 -21.23,-17.43047 z m 107.429,55.35424 c -12.097,0.0646 -18.932,9.09483 -22.334,16.96227 -4.445,10.27586 -1.193,19.0559 1.264,24.16132 5.456,6.82889 14.201,7.38157 23.378,6.14588 9.178,-1.23571 19.332,-16.94205 20.705,-19.99878 1.373,-3.05674 9.864,-16.19417 -10.371,-24.51892 -4.742,-1.95111 -8.939,-2.77156 -12.642,-2.75177 z m -90.012,9.2878 -53.838,12.97492 -1.269,40.90862 0.542,99.60425 c 0,0 15.285,-2.34137 20.56,-4.06486 4.535,-1.48126 22.247,-11.25556 27.378,-14.10714 -2.344,2.50792 -11.535,6.19743 -13.932,7.63571 -2.494,1.49584 4.372,2.34148 7.154,3.25199 2.782,0.91051 62.944,11.51145 62.944,11.51145 l 22.945,-6.50348 c 0,0 100.052,-37.26653 104.171,-39.1201 4.12,-1.85353 0.868,-4.55224 -3.758,-5.95054 -4.625,-1.39829 -34.109,-9.75599 -34.109,-9.75599 l -7.48,7.64191 -0.404,0.009 15.219,-17.37413 c 0,0 14.381,-40.32278 12.863,-42.69662 -1.518,-2.37387 -5.998,-0.97588 -8.057,0.61753 -2.06,1.59342 -9.034,14.01569 -9.034,14.01569 0,0 -19.331,-3.67444 -21.029,-3.90209 -1.699,-0.22762 -10.912,1.23558 -10.912,1.23558 l -0.543,3.15433 -9.714,42.60463 0.97,-11.58224 -2.132,0.71572 -25.789,9.64128 c -0.05,-4.03958 1.375,-9.45022 2.484,-12.53567 1.59,-4.42254 10.839,-27.1855 9.936,-31.70556 -0.903,-4.52009 -10.587,-14.69823 -16.296,-16.38918 -10.153,-2.9592 -20.957,4.32495 -28.581,17.85266 -7.624,13.52771 -11.454,48.16012 -12.394,56.45236 -0.13,1.14803 -0.05,2.32218 0.192,3.50315 l -31.519,9.79682 c 0,0 -0.275,1.28536 -0.783,2.88044 0.632,-10.18359 4.408,-71.43517 4.175,-78.94143 -0.249,-8.16214 0.04,-51.3793 0.04,-51.3793 z m 99.593,102.93532 c 0.395,0.28175 1.675,1.12601 3.534,1.75287 l -3.688,0.0868 z m 2.437,18.0666 c 0.193,0.26106 0.363,0.52163 0.48,0.78032 2.638,5.82081 -13.695,18.82826 -17.163,20.12901 -3.469,1.30073 -11.996,0.74749 -21.825,0.51986 -5.405,-0.12519 -11.046,-2.3071 -15.982,-4.66639 8.736,2.82489 24.103,4.91168 31.375,3.82097 8.889,-1.33326 16.802,-6.69878 21.427,-13.82036 1.848,-2.84611 2.188,-5.02066 1.688,-6.76341 z" fill="#FFFFFF" paint-order="markers stroke fill" transform="translate(-92.116917,-104.83756) translate(-11257.376,-159.47837)"/>
    <path d="m 11389.881,264.31598 c -3.295,-0.006 -6.712,0.48776 -10.085,1.51257 -14.881,4.52013 -26.371,16.72538 -28.981,30.78468 -0.873,4.69792 1.061,16.35461 3.522,21.23643 3.649,7.23837 11.701,12.09251 20.38,12.29021 4.741,0.10797 4.998,0.25489 4.711,2.67373 -0.274,2.28813 -1.273,2.84133 -9.442,5.21571 -10.617,3.08655 -17.192,6.26197 -18.294,8.8377 -1.195,2.78301 -2.717,89.20178 -2.026,114.9811 0.723,27.02286 0.699,26.96127 9.678,26.15292 3.079,-0.27727 8.967,-1.67598 13.085,-3.10782 l 7.485,-2.60346 -0.647,8.83047 c -0.358,4.85674 -0.694,24.68939 -0.694,44.07173 l -0.06,35.24074 -3.002,2.13682 c -4.566,3.25162 -3.534,8.42001 2.076,10.38955 h 0.02 c 3.275,1.14933 11.474,-2.03171 12.565,-4.87412 0.854,-2.22789 -0.927,-5.26162 -3.586,-6.10557 l -2.193,-0.69608 0.668,-28.05204 c 0.365,-15.42862 0.676,-36.04719 0.676,-45.81839 v -17.76584 l 7.35,-3.8747 c 11.01,-5.80466 12.136,-6.97912 13.122,-13.6896 0.466,-3.1818 1.067,-14.23691 1.327,-24.56646 0.262,-10.32953 1.024,-27.46079 1.692,-38.06951 1.712,-27.15105 1.743,-64.3099 0.06,-67.25688 -1.589,-2.78066 -6.941,-3.04426 -15.445,-0.76119 -7.168,1.92708 -7.108,1.93544 -7.108,-0.81287 0,-1.745 1.099,-2.87 4.348,-4.4478 8.009,-3.89126 15.33,-11.7459 21.139,-22.68078 4.692,-8.82818 2.611,-25.24731 -4.079,-32.20837 -4.343,-4.51695 -11.01,-6.94916 -18.26,-6.96288 z m -0.648,5.37951 c 1.96,0.0136 3.942,0.25547 5.945,0.72554 10.406,2.44215 14.541,9.15236 13.71,22.24309 -0.354,5.55104 -1.039,7.44916 -4.72,13.10101 -6.116,9.38171 -12.504,15.52845 -18.142,17.44958 -5.691,1.93876 -12.9,2.02572 -17.07,0.20619 -5.088,-2.22088 -10.302,-8.87785 -11.562,-14.76603 -1.508,-7.0209 -1.428,-9.05212 0.595,-15.31431 1.117,-3.462 3.502,-7.27738 6.812,-10.89804 7.835,-8.57302 15.938,-12.80576 24.432,-12.74703 z m 10.487,10.53993 c -0.876,0.0315 -1.792,0.51936 -2.534,1.5322 -1.881,2.59668 -1.747,11.49084 0.202,12.23905 1.545,0.59258 2.011,4.00629 0.932,6.81871 -0.325,0.84796 -1.206,1.30676 -1.954,1.01957 -2.321,-0.89146 -3.68,3.0524 -1.916,5.56969 h -0.01 c 3.079,4.39546 6.955,1.40794 8.431,-6.49676 0.959,-5.12415 0.279,-7.78747 -2.362,-9.29246 -1.387,-0.78956 -1.958,-2.53008 -1.727,-5.1878 0.08,-0.8788 0.843,-1.10806 2.227,-0.66869 1.836,0.58271 2.063,0.29908 1.776,-2.2071 -0.248,-2.16375 -1.599,-3.37885 -3.061,-3.32641 z m -8.993,2.08411 c -1.554,0.0613 -2.689,3.76946 -2.876,9.86348 -0.236,8.10384 -1.237,12.55102 -2.949,13.12271 -1.077,0.36028 -1.932,-6.03821 -1.249,-9.40924 0.112,-0.55837 -0.104,-3.46567 -0.475,-6.46059 -0.519,-4.14119 -0.964,-5.16236 -1.862,-4.26382 -1.77,1.76062 -1.594,21.60244 0.201,23.76599 2.098,2.52857 5.911,2.08002 7.882,-0.92708 2.287,-3.47937 4.23,-23.38951 2.46,-25.13231 -0.395,-0.38958 -0.775,-0.57008 -1.132,-0.55914 z m -18.549,2.89129 c -1.707,-0.0718 -3.648,1.39607 -5.061,4.28553 -1.966,4.0208 -3.004,22.45675 -1.404,24.92768 2.175,3.36399 9.344,-0.34241 10.8,-5.58519 1.462,-5.2683 1.335,-7.4119 -0.57,-9.51673 -1.321,-1.45981 -1.43,-2.40871 -0.561,-4.90203 0.766,-2.18297 0.763,-4.00357 0,-6.19342 -0.687,-1.97285 -1.874,-2.96002 -3.201,-3.01584 z m -0.684,4.08709 c 0.559,0 1.015,1.11496 1.015,2.47789 0,1.36295 -0.456,2.76068 -1.015,3.10575 -0.59,0.36607 -1.013,-0.66659 -1.013,-2.4784 0,-1.70801 0.455,-3.10524 1.013,-3.10524 z m 0.794,12.60905 c 0.769,0.0707 0.848,1.43266 0.141,3.89589 -1.426,4.97832 -2.969,5.80282 -2.969,1.58802 0,-1.99758 0.613,-4.14062 1.361,-4.7625 0.626,-0.51904 1.118,-0.75357 1.467,-0.72141 z m 131.659,12.86899 c -5.258,4.9e-4 -12.851,3.7735 -19.2,8.99686 -8.822,9.38941 -13.381,15.11402 -14.09,26.77615 -0.717,11.79169 7.114,20.71922 18.206,23.65282 4.517,1.19486 11.596,-0.21384 15.64,-2.16731 1.501,-0.77686 3.709,-1.76224 3.853,-1.88206 3.189,3.16413 5.393,-0.84678 3.925,-3.10524 0.564,-0.8207 1.574,-2.23372 3.675,-4.68757 4.339,-5.1255 8.249,-10.77902 9.397,-16.63257 0.715,-3.64686 0.949,-5.69133 3.481,-7.05639 3.405,-1.83552 4.845,-5.06387 3.082,-7.18767 -0.671,-0.80815 -2.999,-2.0027 -5.177,-2.65462 -3.065,-0.91876 -3.828,-1.5855 -3.39,-2.96416 0.808,-2.5447 -3.192,-4.9966 -8.15,-4.9966 -3.646,0 -4.253,-0.351 -5.269,-3.04581 -1.056,-2.79553 -1.546,-3.04576 -5.979,-3.0458 z m -10.316,16.692 c 2.419,-0.0718 4.834,1.20451 9.163,4.35632 5.306,3.86518 13.249,6.71472 16.147,5.79448 0.792,-0.25136 1.335,-0.17532 1.652,0.17312 10e-4,0.0647 0.01,0.12852 0.01,0.19327 0,2.76987 -1.715,7.15717 -3.911,10.90062 -3.289,4.93164 -6.989,8.57261 -6.989,8.57261 -1.604,-1.61594 -5.123,0.62949 -3.889,3.41012 0.1,0.21926 -1.895,1.54303 -3.696,2.65824 -12.008,7.43424 -30.749,-4.75587 -26.021,-20.73365 1.176,-3.97428 10.156,-12.80101 14.049,-14.44098 1.282,-0.54032 2.382,-0.85157 3.482,-0.88418 z m -88.548,3.51348 v 0 c 1.78,0 1.895,0.88584 1.895,11.92899 -0.03,11.30124 -0.488,21.96436 -2.943,68.2718 -0.578,10.88789 -1.333,26.64719 -1.439,35.02422 -0.19,15.02833 -0.863,15.4663 -12.964,21.53408 -6.915,3.4683 -16.157,7.70856 -20.697,8.88732 -3.661,0.95064 -12.558,4.02492 -12.515,0.79581 0.04,-2.71224 -0.7,-21.40441 -0.44,-47.46066 0.592,-58.13996 0.555,-73.96681 -0.202,-79.90365 -0.546,-4.30491 -0.356,-4.94388 1.911,-6.43114 2.512,-1.64618 43.733,-12.64677 47.391,-12.64677 z m -10.587,8.31319 v 5.1e-4 c -4.075,0.24726 -22.021,4.48314 -25.637,6.1309 -2.82,1.28492 -3.125,3.18909 -3.954,24.64087 -0.325,8.37529 -1.045,18.94779 -1.58,23.49676 -0.724,6.15391 -0.422,14.02478 1.42,13.55783 0.903,-0.22906 16.648,-5.26939 19.441,-6.5195 1.675,-0.74939 4.761,-1.90893 6.856,-2.57659 2.546,-0.8128 3.959,-1.94235 4.267,-3.41891 0.739,-3.54483 2.765,-49.67104 2.305,-52.45778 -0.264,-1.59756 -1.191,-2.65277 -2.498,-2.84789 -0.139,-0.0208 -0.349,-0.0225 -0.62,-0.006 z m -0.884,3.97443 c 1.222,0.0434 1.226,0.56111 1.226,1.38958 0,0.95453 -2.109,2.07997 -5.836,3.11557 -3.212,0.89169 -8.553,2.50359 -11.873,3.5817 -7.609,2.47252 -7.669,2.46804 -7.669,-0.55863 0,-1.77957 0.67,-2.67286 2.285,-3.04374 14.414,-3.31293 19.832,-4.55683 21.867,-4.48448 z m 110.228,2.87425 c -1.716,-0.15155 -3.58,2.33262 -3.416,4.32996 0.377,2.77976 2.984,1.4606 3.869,0.60927 1.612,-1.62381 2.053,-4.20954 0.466,-4.69584 l -0.579,-0.17725 c -0.112,-0.0345 -0.226,-0.056 -0.34,-0.0661 z m 7.103,2.47633 c -0.399,-0.0309 -0.821,0.0317 -1.17,0.2005 -1.166,0.56493 -2.476,2.42073 -1.886,3.9579 0.782,2.04031 2.658,1.4721 3.794,-0.60306 0.595,-1.08586 0.734,-1.76179 0.599,-2.68252 -0.08,-0.51011 -0.672,-0.82124 -1.337,-0.87282 z m -118.27,1.21956 c 0.753,-0.0119 1.152,0.34012 1.152,1.03405 0,1.56868 -2.596,1.96185 -3.482,0.52762 -0.307,-0.49489 0.351,-1.13742 1.462,-1.42782 0.327,-0.0855 0.618,-0.12989 0.868,-0.13385 z m -6.379,1.44643 c 0.884,0 1.436,0.54256 1.206,1.20561 -0.628,1.88239 -2.812,2.19425 -2.812,0.40152 0,-0.88404 0.723,-1.60714 1.606,-1.60713 z m -5.067,1.12706 c 0.443,0.0781 0.414,0.5363 0.414,1.46244 0,0.86599 -1.511,2.20596 -3.355,2.97708 -1.845,0.77111 -4.587,1.71064 -6.093,2.08825 -2.316,0.5815 -2.733,0.36191 -2.733,-1.43454 0,-1.48904 0.831,-2.30281 2.791,-2.73162 1.537,-0.33597 4.115,-1.02986 5.735,-1.54202 1.885,-0.59512 2.799,-0.89767 3.241,-0.81959 z m 12.783,2.1363 -0.57,6.74378 c -0.314,3.70902 -0.858,12.5682 -1.212,19.68717 -0.351,7.11896 -0.777,12.94391 -0.921,12.94391 -0.155,0 -2.008,0.72146 -4.118,1.60352 l -3.838,1.60404 0.667,-13.94695 c 0.368,-7.67059 0.67,-16.56129 0.67,-19.75694 v -5.80998 l 4.66,-1.53427 z m -14.384,4.85811 c 0.622,0 0.999,7.28502 0.999,19.2629 v 19.26239 l -3.159,1.63453 c -1.739,0.89906 -4.965,2.27098 -7.169,3.04839 -3.695,1.30245 -3.965,1.27582 -3.493,-0.33951 1.715,-5.87205 2.656,-15.47552 2.656,-27.10894 v -13.30823 l 4.581,-1.22577 c 2.52,-0.67416 5.033,-1.22576 5.585,-1.22576 z m 91.915,7.19077 c -2.467,0.0718 -4.899,0.51525 -7.174,1.38441 -5.563,2.12373 -12.961,9.2956 -16.162,15.66365 -2.785,5.54761 -10.336,29.19424 -12.345,38.65758 -0.774,3.65441 -1.431,10.52753 -1.431,15.27349 l -0.201,7.29051 -3.251,0.88057 c -5.221,1.41434 -18.834,5.67069 -18.872,7.27552 -0.04,1.59556 4.386,0.64027 22.3,-4.40903 0,0 0.985,2.4115 1.652,4.3863 2.17,6.41581 5.901,9.5818 17.006,15.03267 12.46,6.11748 19.79,7.50505 32.72,6.19445 8.377,-0.8491 9.338,-0.74533 14.598,1.57872 9.672,4.27548 20.349,11.43509 20.349,13.64671 0,3.18318 -5.503,13.21735 -14.861,27.09809 -10.622,15.75277 -11.533,17.4795 -11.533,21.81004 0,4.37515 2.946,7.20844 10.212,9.81697 h -0.01 c 7.038,2.52692 15.98,2.39572 17.597,-0.25838 0.901,-1.47223 0.719,-2.13475 -0.91,-3.34347 -1.115,-0.82906 -2.943,-1.68293 -4.06,-1.89704 -13.012,-2.49583 -14.719,-2.97874 -14.719,-4.16874 0,-0.72793 3.942,-7.17549 8.765,-14.32781 10.876,-16.13898 17.629,-29.60928 17.629,-35.16839 0,-3.36405 -0.653,-4.65855 -3.907,-7.75663 -2.154,-2.04522 -7.814,-5.74338 -12.582,-8.21811 l -8.673,-4.49946 3.297,-3.80494 c 3.29,-3.79654 3.304,-3.80199 7.243,-2.43809 l 4.54,1.15755 -4.001,1.97249 c -2.515,1.23978 -3.106,2.06743 -2.291,2.88096 0.814,0.81353 3.188,0.62927 8.726,-0.67593 l 7.605,-1.79317 9.413,2.7466 c 11.304,3.29906 12.964,4.09792 12.964,6.23786 0,2.55344 -6.353,13.33126 -19.986,33.89819 -12.806,19.32238 -14.129,22.49492 -10.687,25.61033 2.878,2.60226 10.426,5.58579 15.997,6.32312 4.127,0.54604 5.395,0.34554 6.541,-1.03352 2.67,-3.21745 -0.362,-5.56264 -9.123,-7.05591 -7.263,-1.23789 -7.292,-1.12014 4.79,-19.52232 6.169,-9.40111 13.553,-21.47081 16.411,-26.82162 6.892,-12.92011 6.869,-15.75796 -0.173,-19.34972 -2.253,-1.14915 -6.351,-2.75978 -9.111,-3.57911 -2.759,-0.8193 -4.414,-1.47415 -5.131,-1.66811 1.033,-0.54285 24.115,-9.71689 31.784,-12.3946 3.632,-1.26695 7.44,-2.64372 8.464,-3.05976 1.75,-0.71012 1.827,-0.2037 1.281,8.26875 -0.32,4.96378 -1.091,17.70484 -1.715,28.31351 -0.625,10.60872 -1.546,19.7231 -2.044,20.25355 -1.445,1.53478 -1.053,4.34555 0.697,5.01778 5.922,2.27255 11.586,-1.55595 8.063,-5.4498 -1.493,-1.64803 -1.592,-4.73578 -0.97,-30.11754 0.642,-26.146 0.843,-28.44663 2.688,-30.47462 4.619,-5.0783 -0.135,-8.39443 -16.616,-11.59206 -5.778,-1.12086 -10.72,-2.26484 -12.394,-2.08153 -2.639,0.28866 -4.812,1.10138 0.463,2.6572 3.35,0.98774 11.171,2.94399 15.638,4.53151 7.511,2.6696 7.931,2.96404 5.582,3.92379 -5.868,2.39957 -34.879,13.81326 -40.49,16.21245 -2.606,1.02417 -6.942,2.49682 -9.969,3.75016 -0.264,-0.0207 -9.419,-1.85559 -9.69,-1.91616 -7.42,-1.6562 -7.871,-1.91094 -7.871,-4.47828 0,-6.45688 -5.652,-11.3737 -16.87,-14.69936 -6.983,-2.06977 -11.271,-4.38375 -12.546,-6.76703 -0.353,-0.65878 -0.666,-0.88554 -0.753,-1.79783 5.113,-1.24917 10.4,-2.95804 14.851,-4.97282 4.138,-1.88919 7.703,-3.25007 7.934,-3.02359 0.227,0.22638 -0.03,2.85694 -0.582,5.84564 -1.056,5.79136 -0.691,6.46422 4.417,8.12457 3.408,1.10809 25.775,0.66155 29.116,-0.50281 3.62,-1.26277 13.486,-13.71459 16.698,-20.97237 1.108,-2.50869 2.119,-6.77974 3.175,-8.81238 4.055,-1.85331 5.616,-4.56775 8.129,-12.25248 0.99,-4.2215 0.381,-5.50571 -3.143,-6.26215 l 2.818,-6.63164 c 3.136,-7.3785 2.906,-9.69088 -0.967,-9.69088 -4.556,0 -10.573,3.86674 -13.711,8.81393 -1.625,2.56232 -3.073,5.04369 -3.245,5.51388 -0.161,0.47019 -2.806,0.18496 -5.877,-0.63355 -3.07,-0.81854 -10.029,-1.49417 -15.458,-1.50017 -11.699,-0.0143 -11.923,0.17346 -14.57,12.19305 -0.918,4.17515 -1.902,8.56537 -2.162,9.756 -0.267,1.1906 -1.611,2.67634 -2.981,3.30161 -1.373,0.62528 -3.131,2.65488 -3.905,4.5098 -1.128,2.69904 -2.806,4.01635 -8.403,6.59649 -7.508,3.46055 -9.875,3.50066 -11.679,3.89744 0.192,-1.12483 3.345,-7.83032 5.854,-13.39608 2.513,-5.56575 4.57,-10.69049 4.57,-11.38845 0,-2.17169 1.453,-1.38752 3.243,1.76165 2.996,5.2646 10.973,8.64732 10.973,4.65294 0,-0.67974 -2.714,-5.35636 -6.032,-10.39213 -3.315,-5.03581 -6.345,-10.4838 -6.731,-12.10675 -2.183,-9.20387 -13.532,-15.86735 -24.221,-15.55616 z m 2.14,3.36465 c 0.526,0.006 1.039,0.0493 1.537,0.13333 0.22,0.0371 0.45,0.0949 0.68,0.15141 1.18,0.66334 1.648,1.90666 1.648,4.36149 0.01,2.08317 0.913,5.72939 2.004,8.10235 1.693,3.68981 2.426,4.31446 5.073,4.31446 2.303,0 3.51,-0.7155 4.709,-2.79156 0.266,-0.46131 0.487,-0.82619 0.669,-1.07797 1.302,6.08682 -0.593,14.66056 -5.665,25.57157 -2.875,6.18771 -5.371,13.00058 -5.894,14.63476 -0.444,-0.0503 -1.807,0.16141 -3.683,-1.2671 -3.574,-2.72167 -5.054,-9.77675 -5.558,-26.90224 -0.394,-13.42205 -0.757,-16.49718 -1.939,-16.49718 -4.089,0 -6.493,16.49374 -4.456,30.5754 1.765,12.20182 4.009,16.75626 9.44,19.158 1.863,0.82411 3.995,1.57405 4.768,1.69499 -0.01,1.32462 0.474,2.61447 0.896,3.78013 0.978,2.70467 3.404,5.16488 6.948,7.20214 1.201,0.85044 0.809,1.61517 0.134,1.87792 -0.648,0.25207 -5.724,2.50813 -11.622,4.48758 -14.439,4.84587 -32.948,5.60576 -33.684,0.71417 -2.549,-16.94178 5.356,-46.74033 10.847,-59.60101 4.454,-10.18782 15.255,-18.70595 23.148,-18.62264 z m 7.464,2.85048 v 0 c 0.112,0 0.377,0.1034 0.737,0.28008 v 10e-4 c 1.612,1.06884 3.156,2.31694 4.435,3.60339 0.598,1.27636 0.53,2.80289 -0.191,4.66122 -0.995,2.56386 -2.445,1.87738 -4.046,-1.91461 -1.508,-3.5676 -1.941,-6.63112 -0.937,-6.63112 z m 82.38,0.46612 c 0.09,0.004 0.16,0.0369 0.2,0.10128 0.329,0.5278 -0.419,1.8374 -1.657,2.91042 -5.568,4.82174 -6.823,5.703 -6.823,4.79867 0,-1.50945 6.895,-7.87059 8.28,-7.81037 z m -1.224,9.49141 -1.146,2.51664 c -0.63,1.38422 -2.218,3.21905 -3.527,4.07727 -2.366,1.54897 -3.336,5.57434 -1.344,5.57434 0.573,0 1.474,1.12025 -0.282,1.86345 -1.403,0.59413 -1.328,2.90092 -0.321,2.88148 1.688,-0.0326 0.191,1.35356 -0.635,1.78852 -0.948,0.49948 -1.788,2.92406 -0.234,3.07526 0,0 -0.339,0.87771 -1.55,4.71134 -3.218,10.17347 -5.35,9.85369 -2.461,-0.13022 1.328,-4.58053 2.415,-9.16776 2.415,-10.19369 0,-1.02597 0.473,-4.05793 1.05,-6.73758 0.832,-3.85963 1.776,-5.3455 4.544,-7.14943 z m -36.241,2.08773 c 5.041,0.049 6.721,0.34497 5.329,0.94412 -2.855,1.22613 -12.691,1.22613 -12.691,0 0,-0.58999 3.082,-0.98562 7.362,-0.94412 z m 24.664,5.00486 c 2.175,0 -2.993,13.99965 -6.611,29.32947 -2.238,9.48035 -5.884,11.27589 -5.733,9.52242 0,-2.81503 11.354,-38.85189 12.344,-38.85189 z m -11.31,0.78806 c 3.24,0.025 5.689,0.22085 5.923,0.75396 0,0.32143 -2.138,7.98687 -5.692,17.03359 -3.557,9.04643 -5.459,17.56096 -6.039,19.22208 -1.144,3.27128 -4.162,3.40375 -13.138,3.48041 -5.911,0.0505 -10.955,-0.0464 -11.215,-0.30283 -0.256,-0.2565 0,-2.30791 0.573,-4.55889 0.895,-3.52445 1.335,-3.99894 3.18,-3.41943 1.177,0.37011 4.44,0.91151 7.255,1.20354 3.982,0.41337 5.424,0.15867 6.512,-1.15083 1.22,-1.47089 1.114,-1.75654 -0.863,-2.27325 -2.018,-0.52766 -1.819,-0.7888 1.865,-2.43706 5.096,-2.28189 5.542,-4.98853 0.822,-4.99452 l -3.3,-0.003 3.3,-2.01177 c 1.813,-1.1064 3.299,-2.75667 3.299,-3.66747 0,-1.68188 -0.815,-1.66231 -7.106,0.17156 l -2.538,0.74001 2.285,-2.50011 c 2.544,-2.78448 3.021,-5.92212 0.904,-5.92212 -0.76,0 -3.387,1.5925 -5.839,3.5388 -2.703,2.14604 -4.547,3.0449 -4.719,2.2841 -0.145,-0.69 1.402,-7.12141 2.436,-10.75076 1.347,-5.04265 0.583,-3.68151 5.9,-3.90829 3.197,-0.13637 10.794,-0.56926 16.195,-0.52762 z m -146.02,13.77074 c -0.142,-0.009 -0.293,0.0168 -0.453,0.0827 -2.371,0.61803 -22.632,7.71877 -25.145,9.01754 -2.627,1.3593 -3.243,2.39759 -3.789,6.38204 -0.812,6.05123 -0.82,15.47561 0,19.57658 h -0.02 c 0.348,1.74487 1.214,3.17242 1.923,3.17242 0.708,0 6.702,-1.36213 13.323,-3.02669 8.55,-2.15015 12.55,-3.65232 13.813,-5.18832 1.488,-1.82895 1.776,-4.33374 1.776,-16.26205 0,-7.7551 -0.312,-8.01215 -0.03,-10.63191 0.141,-1.31969 -0.401,-3.06057 -1.395,-3.12229 z m -1.463,3.7145 c 0.375,0 0.461,0.83428 0.202,1.85363 -0.348,1.33017 -2.541,2.37456 -7.772,3.70004 -4.071,1.16913 -8.207,2.204 -12.18,3.65559 -4.446,1.64881 -4.855,1.66131 -4.561,0.14314 0.218,-1.13643 3.918,-3.2273 11.979,-5.50871 3.811,-1.07875 8.456,-3.39828 12.332,-3.84369 z m -1.554,7.10654 c 1.212,0 1.348,1.4421 0.78,8.3752 -0.373,4.60641 -1.185,8.7112 -1.801,9.12141 -3.044,2.03299 -3.655,0.74039 -3.655,-7.74371 0,-8.75513 0.481,-9.7529 4.676,-9.7529 z m -7.815,2.03037 c 1.128,0 -0.104,16.73113 -1.29,17.49661 -0.633,0.41022 -2.181,0.75319 -3.438,0.76119 -2.168,0.0148 -2.283,-0.35965 -2.283,-8.00675 v -8.02224 l 3.198,-1.11415 c 1.758,-0.61295 3.473,-1.11466 3.813,-1.11466 z m -10.031,3.22874 c 0.955,0.17551 0.989,1.78818 0.989,7.845 0,7.93787 -0.103,8.3044 -2.605,9.25525 -1.433,0.54456 -2.814,0.99012 -3.044,0.99012 -0.788,0 -0.466,-17.25793 0.319,-17.27233 0.418,-0.008 1.79,-0.28913 3.046,-0.6258 0.556,-0.14953 0.977,-0.25075 1.295,-0.19224 z m 18.071,21.13567 c -2.929,0 -24.558,7.71111 -24.952,8.89558 -0.542,1.61588 -0.461,1.60886 7.628,-0.6687 11.689,-3.29049 17.857,-5.63772 18.28,-6.95771 0.221,-0.69796 -0.208,-1.26917 -0.956,-1.26917 z m 104.566,3.39359 c 0.487,0.11867 0.977,0.236 1.481,0.34416 4.461,0.95879 9.039,2.49486 10.175,3.41323 2.642,2.14029 1.644,5.03173 -1.737,5.03173 -3.005,0 -4.248,1.60365 -2.697,3.47369 0.866,1.04555 0.299,2.07688 -2.486,4.52376 -1.986,1.74327 -3.938,3.16957 -4.337,3.16931 -0.4,-2.9e-4 -3.128,-0.91443 -6.067,-2.03088 -6.295,-2.39316 -9.378,-2.58363 -9.378,-0.58033 0,0.79701 1.143,2.34729 2.539,3.44527 1.395,1.09799 2.538,2.27334 2.538,2.61173 0,0.90404 -10.85,0.52523 -16.973,-0.59273 -2.915,-0.53185 -9.514,-3.10459 -14.662,-5.71696 -5.703,-2.8933 -8.083,-4.29785 -9.722,-6.2296 0.223,-0.41955 1.221,-0.4874 3.074,-0.0796 10.73,2.36233 26.229,-0.66642 41.133,-8.03775 3.251,-1.60797 5.25,-2.6041 7.119,-2.74505 z m -103.816,3.03185 c -2.259,-0.23807 -26.747,7.6209 -27.536,8.89662 -0.95,1.54029 1.437,1.07625 14.202,-2.76262 12.204,-3.66906 14.749,-4.81833 13.482,-6.08542 -0.02,-0.025 -0.07,-0.0409 -0.148,-0.0486 z m -6.833,6.78202 c -3.039,0.0127 -13.031,4.6398 -13.031,6.03477 0,1.50604 1.701,1.25111 8.553,-1.28261 6.314,-2.3337 8.607,-4.76946 4.478,-4.75216 z m 17.848,19.27892 c -3.826,0 -4.807,2.27073 -1.693,3.90933 4.334,2.28088 27.736,6.98821 44.921,9.03717 l 6.599,0.78703 -0.23,6.07715 c -1.493,38.12633 -2.563,55.15381 -3.589,57.19961 -1.042,2.0775 -1.476,3.65766 0.711,5.15576 3.266,2.23759 6.769,0.78595 8.833,-0.88832 1.515,-1.22854 1.234,-3.15086 0.365,-4.02973 -1.905,-1.92725 -1.988,-2.94558 -1.378,-16.05121 0.357,-7.69463 0.699,-21.41381 0.759,-30.48703 l 0.115,-16.49667 h 2.61 c 5.874,0 27.846,-8.58064 27.846,-10.87427 0,-1.85843 -3.977,-1.29914 -20.073,2.82205 -9.729,2.49152 -12.16,2.78122 -16.241,1.93373 -11.635,-2.41511 -46.404,-8.0946 -49.554,-8.0946 z" fill="#00B894" transform="translate(-92.116917,-104.83756) translate(-11257.376,-159.47837)"/>
</svg>