<?xml version="1.0" ?><svg height="135.98648mm" viewBox="0 0 101.75501 135.98648" width="101.75501mm" xmlns="http://www.w3.org/2000/svg">
    <path color="#000" d="m 15613.975,5541.627 c -26.836,0.081 -54.72,15.5301 -71.403,51.8845 -45.398,116.4618 111.674,145.5547 140.149,50.16 17.798,-59.6217 -24.019,-102.179 -68.746,-102.0445 z m 131.575,89.2761 -31.313,108.6187 c -1.824,25.0798 65.869,19.426 65.869,19.426 l 25.841,-113.8173 z m -195.596,105.4404 c -53.357,0.5501 -63.142,63.5828 -83.283,157.762 0.709,83.9948 178.049,120.0186 174.603,104.1499 -3.445,-15.8688 -4.56,-85.8188 7.499,-137.8026 12.059,-51.9836 29.59,-83.8127 -59.485,-116.0972 -15.31,-5.549 -28.26,-8.1263 -39.334,-8.0121 z" fill="#FFFFFF" overflow="visible" paint-order="fill markers stroke" transform="translate(-161.49902,-139.73752) matrix(0.2881372,0,0,0.2881372,-4293.6575,-1455.1926)"/>
    <path d="m 15645.553,5535.3153 c -1.284,0.022 -2.627,0.8195 -4.127,3.292 -3.272,-1.0822 -43.634,-9.6096 -71.765,12.3403 -19.685,13.5757 -30.417,34.2359 -37.101,56.4105 -0.855,3.5928 -2.194,8.9541 -2.844,11.3899 -0.726,2.72 -1.057,19.7887 -0.431,22.256 0.286,1.13 0.839,3.4411 1.228,5.1362 2.842,12.2759 7.813,25.6147 16.695,36.4714 4.201,4.8479 7.68,9.7716 13.951,13.5877 10.525,8.5538 23.561,15.4352 37.93,15.9422 14.738,0.4872 26.613,-0.3845 31.473,-2.3093 18.564,-6.9236 37.295,-14.6063 48.33,-34.4314 1.093,-2.2104 2.22,-3.8337 2.662,-3.8337 0.422,0 2.158,1.0128 3.859,2.2505 2.858,2.0791 5.99,2.2974 10.479,2.8623 8.614,1.0775 10.029,-11.4135 2.546,-12.6742 -0.933,0 -6.513,-2.3202 -7.939,-3.0971 -2.234,-1.2171 -2.559,-1.5903 -2.353,-2.6968 0.396,-2.1347 1.185,-4.6378 3.073,-9.7601 2.642,-7.2035 5.863,-15.4107 4.904,-26.1973 -0.445,-27.0245 -9.023,-68.5473 -44.19,-84.7344 -2.268,-0.1196 -4.242,-2.2406 -6.38,-2.2047 z m -14.956,14.7037 c 4.672,0.012 8.893,0.3606 11.21,1.0173 1.508,0.4277 3.732,1.0353 4.939,1.3499 21.432,5.9177 39.466,47.6874 31.157,74.7463 -0.07,1.1595 -0.18,-3.8201 -1.018,-5.4409 -1.819,-3.4475 -7.039,-2.2275 -9.388,1.3875 -1.744,2.1487 -3.171,4.2571 -3.171,4.6847 -0.437,4.1036 -5.917,6.2911 -4.854,10.6352 0.745,4.2943 6.096,9.685 12.562,3.1143 2.446,-3.2641 3.045,-2.1759 1.076,1.9519 -3.703,7.84 -7.531,16.9663 -12.55,24.7632 -2.419,3.2302 -11.225,12.0585 -12.926,12.9565 -0.845,0.4467 -2.695,1.67 -4.108,2.7186 -13.459,9.6455 -29.156,13.67 -46.749,12.2123 -11.139,-0.9806 -17.435,-3.186 -26.628,-10.8646 -4.031,-3.3109 -12.153,-12.2759 -12.153,-13.414 0,-0.1946 -0.779,-1.3175 -1.73,-2.4951 -6.423,-8.0098 -9.803,-25.2072 -9.884,-36.366 0.131,-6.5084 0.678,-10.0784 2.409,-15.7405 0.542,-1.7718 0.986,-3.6629 0.986,-4.2025 5.287,-22.6965 19.257,-36.3415 31.334,-47.9959 3.493,-2.8065 7.786,-5.4991 15.924,-9.9881 2.118,-1.1682 10.015,-3.2169 13.338,-3.4605 1.281,-0.094 5.418,-0.533 9.192,-0.9759 3.494,-0.4099 7.399,-0.6034 11.032,-0.5937 z m 117.275,72.6011 c -6.112,0.1052 -11.618,2.1249 -13.909,8.1521 -9.525,27.1452 -14.183,57.1474 -22.937,87.5395 -0.608,2.109 -1.359,6.113 -2.022,10.7871 -0.855,5.9731 -4.73,16.0398 1.809,19.8933 0.848,0.4376 2.658,1.7253 4.023,2.8616 11.786,9.6758 37.336,13.2253 53.05,13.5516 0.442,-0.2469 1.036,-0.2096 1.395,0.088 0.343,0.2855 1.66,0.5932 2.926,0.6833 2.648,0.1884 2.491,-0.7034 1.524,8.6389 -3.871,36.3566 -16.323,82.7649 -40.958,113.4908 -2.189,2.4667 -5.3,6.0834 -6.912,8.0369 -4.448,5.3892 -10.813,11.514 -11.969,11.514 -1.783,0 -6.659,-2.934 -10.109,-6.0828 -15.266,-14.1033 -28.732,-31.9273 -35.155,-52.883 -2.338,-4.3272 -3.475,-8.0067 -2.849,-9.2221 0.256,-0.4956 0.76,-2.519 1.118,-4.4967 0.359,-1.9776 1.062,-4.6497 1.563,-5.9375 1.086,-2.794 2.454,-13.1978 2.63,-20.0032 0.201,-13.3864 -3.096,-23.4009 -11.037,-33.2554 -21.078,-24.5145 -40.018,-34.0552 -81.767,-43.3141 -17.544,-3.8907 -41.778,-4.6312 -61.58,2.0963 -12.683,7.3058 -17.251,16.6678 -24.938,31.5812 -8.15,20.2674 -18.171,47.106 -23.218,71.6575 -0.288,1.8363 -0.753,4.4949 -1.031,5.9075 -0.666,3.3755 -1.41,10.2897 -1.962,18.2357 -0.246,3.5315 -3.06,23.4697 -3.509,26.8038 -1.678,13.0321 14.705,13.0864 16.596,-0.8639 1.603,-6.8621 3.871,-19.3796 4.606,-25.4268 1.439,-11.8346 1.834,-14.61 2.887,-20.2898 0.959,-5.1718 1.684,-8.2128 3.857,-16.1808 1.505,-5.5189 5.989,-18.8504 8.638,-25.6834 1.479,-3.8141 3.447,-9.3617 4.375,-12.3282 1.501,-4.802 6.449,-15.5312 10.223,-22.1694 11.56,-23.4558 27.464,-20.605 50.93,-18.2267 23.09,1.6117 45.32,6.8369 66.071,24.159 1.165,1.161 3.209,3.0355 4.542,4.1656 8.403,7.1275 13.742,13.9406 15.463,19.7375 0.431,1.4479 0.829,4.6493 0.886,7.1145 l 0.105,4.4823 -2.564,0.161 c -4.047,0.255 -4.37,0.8126 -4.37,7.5396 0,5.9434 1.029,14.2348 2.109,16.9971 0.522,1.3355 0.438,2.2567 -0.542,5.9067 -3.719,13.5413 -8.76,29.8897 -11.15,45.9327 -0.667,3.1078 -1.687,8.3087 -2.265,11.5577 -3.225,17.9216 -7.547,35.8554 -7.916,54.7063 0.07,1.13 0.261,4.4256 0.425,7.3235 0.713,11.2171 3.454,23.7795 6.798,35.4164 0.73,1.9199 1.666,4.3921 2.079,5.4937 7.506,18.0709 19.384,5.02 13.857,-9.797 -2.033,-6.8622 -1.857,-16.8423 -3.383,-25.0814 -2.848,-24.1798 3.267,-43.5305 7.921,-67.5476 1.778,-8.4187 3.37,-16.9959 3.408,-18.3493 0.06,-2.1088 1.747,-6.5644 2.488,-6.5644 0.353,0 1.72,2.0854 3.038,4.6336 3.063,5.9237 4.07,7.6071 6.106,10.2048 5.833,7.5209 9.434,14.6284 17.16,20.6051 1.445,1.13 4.391,3.6959 6.545,5.7013 32.617,33.8925 38.299,6.0408 56.211,-12.6359 30.098,-35.3636 37.929,-80.1717 44.69,-131.8815 l 0.102,-8.094 2.218,-1.0655 c 10.482,-6.0906 18.327,-24.705 20.372,-39.2585 0.925,-4.5665 0.645,-6.5766 -1.25,-8.961 -0.773,-0.9716 -1.801,-3.1094 -2.285,-4.7502 -0.485,-1.6407 -1.212,-3.737 -1.615,-4.6591 -1.34,-3.0548 -1.419,-5.3165 -0.293,-8.3402 2.739,-11.9155 2.951,-27.5051 5.433,-41.889 3.417,-20.5734 -24.157,-19.0606 -43.641,-23.7978 -2.26,-0.2924 -5.516,-0.9972 -7.236,-1.5666 -4.546,-1.4498 -10.412,-2.8476 -15.805,-2.7547 z m 1.879,15.1679 c 0.113,0 0.231,0 0.357,0 0.671,0.022 1.54,0.1446 2.671,0.3265 13.74,2.2517 26.971,4.6519 40.272,8.3944 3.309,1.092 3.943,4.2741 3.848,14.2379 -0.06,5.9494 -1.271,14.8793 -3.612,23.4043 -0.974,4.2811 -2.614,7.0395 -4.877,8.2047 -2.602,1.3395 -2.995,2.7235 -2.629,9.2596 0.23,4.0953 0.124,5.4495 -0.521,6.6781 -1.712,3.2631 -4.331,12.1024 -4.331,14.6224 0,0.8106 -0.139,1.8398 -0.311,2.2867 -0.526,1.3706 -1.743,0.8568 -1.743,-0.7359 0,-0.4752 -0.915,-2.4595 -2.032,-4.4094 -3.226,-5.6259 -4.575,-8.5396 -4.896,-10.5787 -0.411,-2.6058 -3.365,-4.8981 -7.592,-5.8887 -12.341,-2.8864 -10.736,8.6965 -4.707,21.341 -0.149,0.2401 -1.257,0.2232 -2.464,-0.038 -3.933,-0.8498 -7.243,-1.3666 -12.393,-1.9353 -6.759,-0.8377 -17.425,-1.8954 -16.354,-5.8293 3.757,-17.7244 5.846,-20.6564 12.271,-45.8062 3.357,-14.4406 5.351,-19.2502 6.989,-29.8671 0.158,-2.7071 0.37,-3.6193 2.054,-3.669 z m 10.684,10.9218 c -0.109,0 -0.184,0.011 -0.219,0.024 -0.332,0.1211 -2.187,0.4394 -4.124,0.7081 -4.55,0.6312 -5.552,1.475 -4.802,4.0467 1.035,3.5479 1.994,4.3876 6.719,5.8841 5.597,1.658 18.008,3.0056 23.322,-0.273 3.681,-5.0832 -1.59,-7.8682 -6.063,-8.7993 -3.711,-0.6355 -13.194,-1.6383 -14.833,-1.5906 z m -3.179,14.8858 c -1.544,0.014 -2.787,0.3451 -3.515,1.0038 -0.933,0.8456 -1.046,1.3386 -0.752,3.2995 0.518,3.4543 3.888,6.5479 7.907,7.2582 0.989,0.1747 3.687,0.3005 5.995,0.2791 3.283,-0.031 4.419,-0.2406 5.219,-0.9647 2.887,-2.6123 1.194,-6.6153 -3.251,-7.69 -0.565,-0.1366 -2.645,-0.8966 -4.623,-1.6892 -2.516,-1.0088 -4.996,-1.515 -6.98,-1.4967 z m 2.847,14.3681 c -1.426,-0.03 -2.999,0.3592 -4.214,1.1211 -1.475,0.9246 -1.545,3.5761 -0.167,6.2784 1.343,2.6313 2.144,3.198 5.574,3.9407 5.677,1.2296 11.862,0.6746 13.342,-1.1972 0.353,-0.4466 0.642,-1.5874 0.642,-2.535 -0.11,-3.5606 -6.789,-5.4591 -10.341,-6.2995 -0.556,0 -1.7,-0.3557 -2.542,-0.7909 -0.638,-0.3302 -1.439,-0.4996 -2.294,-0.5176 z m -33.519,51.3322 c 5.155,1.3098 5.818,1.8585 11.711,2.7126 1.271,0.4397 2.638,0.8959 3.034,1.0143 -5.261,8.4341 1.08,13.9759 5.724,13.0204 4.409,-1.1872 8.212,-5.4939 6.81,-9.3485 -1.032,-1.1407 -0.491,-2.7165 0.746,-2.1715 0.491,0.2168 2.859,0.5613 5.261,0.7659 5.778,0.4926 6.768,0.9577 8.898,4.1807 1.657,2.5246 2.32,7.8615 -2.039,12.5118 -13.132,2.1431 -30.013,-4.2995 -42.106,-10.6111 -1.756,-1.6651 1.949,-8.8146 1.961,-12.0746 z" fill="#00B894" transform="translate(-161.49902,-139.73752) matrix(0.2881372,0,0,0.2881372,-4293.6575,-1455.1926)"/>
</svg>