<?xml version="1.0" ?><svg height="274.37772mm" viewBox="0 0 307.12018 274.37772" width="307.12018mm" xmlns="http://www.w3.org/2000/svg">
    <path d="m 10080.993,275.43775 c -1.845,0.005 -3.575,0.10082 -5.148,0.30024 -12.581,1.59532 -28.794,9.92249 -37.787,18.1715 -8.993,8.249 -12.406,19.80512 -12.496,26.73118 -0.09,6.92605 11.198,103.85187 12.193,118.8713 0.994,15.01941 1.34,18.09361 9.771,22.25704 0,0 -0.865,3.89072 -0.994,5.99188 -0.13,2.10116 1.989,10.35055 2.767,12.64626 0.778,2.2957 3.848,2.45101 3.848,2.45101 l 5.058,-15.29157 71.685,19.76623 c 0,0 2.853,14.16376 3.675,17.51004 0.821,3.34632 6.399,0.89463 7.437,-0.97306 1.037,-1.86772 4.064,-14.16296 4.064,-14.16296 0,0 6.874,-1.51796 10.895,-1.98489 4.021,-0.46691 20.234,-6.69262 20.234,-6.69262 l 9.489,-4.42191 c 3.541,12.19975 37.095,27.09417 42.178,-7.83471 1.426,-3.3852 -1.687,-17.19851 -3.762,-21.90667 -2.075,-4.70815 -11.267,-6.99472 -11.267,-6.99472 0,0 0,-20.44855 -3.125,-28.32217 -9.246,-19.17584 -32.854,-29.77404 -53.574,-30.24707 -5.664,0.23345 -20.926,-6.92619 -20.926,-6.92619 0,0 3.545,-9.26045 6.312,-15.95303 2.767,-6.69258 9.736,-35.27086 9.131,-44.92063 -0.605,-9.64978 -17.864,-25.1962 -28.716,-29.74871 -9.497,-3.98346 -28.029,-8.35408 -40.942,-8.31577 z m 212.516,127.2005 -17.31,13.76919 -18.363,7.65121 -15.573,8.05486 7.129,26.32444 3.391,21.8666 4.654,0.86951 21.941,-14.56762 6.606,-4.17029 10.398,-12.13208 z" fill="#FFFFFF" paint-order="markers stroke fill" transform="translate(461.88708,-236.57809) translate(-10454.864,1.019666)"/>
    <path d="m 10088.584,235.56317 v 5.1e-4 c -0.24,0.015 -0.482,0.0671 -0.725,0.1602 -1.714,0.65728 -11.661,19.81359 -11.661,22.45496 0,1.04659 1.853,4.50255 4.124,7.67963 2.266,3.17708 4.12,6.16207 4.12,6.63371 0,0.47165 -1.958,0.95491 -4.352,1.07383 -12.451,0.61867 -26.763,6.09484 -35.342,13.52373 -2.835,2.45565 -7.382,6.18098 -10.103,8.27856 l -4.95,3.81372 -7.504,-0.51418 c -7.85,-0.53806 -11.031,-2.57426 -16.365,-9.08317 -8.9059,-8.61024 -12.1049,-10.21456 -12.8269,-6.43009 -0.4193,2.19567 5.172,10.54435 11.1339,16.62275 4.301,4.38502 6.244,5.77677 12.809,5.30562 4.437,0.26072 8.267,0.68063 8.526,0.93328 0.255,0.25247 -0.449,3.45135 -1.56,7.10861 -2.62,8.62768 -2.119,18.69506 2.254,45.29904 1.739,10.57997 3.843,25.00732 4.673,32.06058 0.832,7.05334 2.286,18.80174 3.231,26.10693 0.945,7.30528 2.184,18.64067 2.755,25.1902 1.334,15.28834 2.113,18.21024 5.506,20.62664 2.572,1.82134 2.727,2.3172 2.727,8.06773 0,3.36975 0.402,7.52967 0.893,9.2444 1.07,3.72619 4.303,7.40419 6.513,7.40419 2.63,0 6.12,-5.11478 7.338,-10.75231 0.626,-2.90276 1.198,-5.37531 1.278,-5.49476 0.07,-0.11938 7.526,2.25637 16.561,5.27979 14.024,4.69393 36.73,11.47513 48.026,14.34279 3.02,0.76677 3.241,1.08219 3.775,5.4498 0.82,6.65847 2.485,11.11641 4.744,12.69845 2.889,2.02368 5.044,1.69425 7.953,-1.2144 2.656,-2.6545 4.59,-7.81559 4.59,-12.29382 0,-2.19677 0.364,-2.51923 2.802,-2.51923 5.144,0 15.932,-2.89677 20.76,-5.57434 l 0.499,-0.27647 0.04,0.13281 c 4.639,-2.71374 9.83,-6.52959 10.279,-7.69927 0.498,-1.29631 0.421,-1.99209 -0.392,-2.07171 -1.045,-0.10236 -3.307,0.81363 -7.124,2.77968 -1.395,0.71796 -2.83,1.37186 -4.29,1.97094 l 0.04,0.12971 c -2.676,1.03389 -6.7,2.24896 -9.654,2.87527 h -0.01 c -6.481,1.37375 -18.996,1.77777 -19.645,0.63407 -2.8,-4.93045 -6.433,-23.9136 -6.513,-34.12143 -0.06,-7.18736 0.281,-9.47728 1.976,-13.1532 2.309,-4.99905 1.914,-7.05511 -0.867,-4.53978 -5.564,5.03291 -7.893,16.32397 -6.243,30.26327 0.624,5.2546 1.675,11.88895 2.341,14.74329 0.657,2.85428 1.071,5.33215 0.89,5.50612 -0.979,0.97666 -27.762,-6.14176 -54.822,-14.56913 -25.816,-8.04079 -30.873,-9.99054 -31.694,-12.21941 -0.387,-1.04996 -0.958,-7.06177 -1.27,-13.35939 -0.311,-6.29757 -1.573,-18.66382 -2.802,-27.4805 -1.23,-8.81663 -2.931,-21.38936 -3.78,-27.93886 -0.849,-6.54952 -3.129,-20.56438 -5.065,-31.14435 -5.204,-28.41163 -5.547,-37.75564 -1.757,-47.73146 l 0.82,-2.16059 8.044,2.82205 c 12.918,4.53278 20.069,8.75097 27.768,16.37781 3.814,3.78154 7.813,8.73062 8.885,10.99778 4.37,9.24997 7.573,33.33657 7.573,56.95053 0,8.04064 0.409,15.38375 0.908,16.31787 1.293,2.41348 5.425,3.51906 16.954,4.53667 16.16,1.42631 22.605,3.26005 30.615,8.708 7.98,5.42731 12.701,11.48505 15.621,20.04374 2.283,6.6956 5.481,26.38137 5.511,33.76899 0,5.16318 1.142,7.30242 2.923,5.52111 0.533,-0.53427 0.9,-6.16761 0.87,-13.38574 -0.03,-6.8547 0.05,-12.45686 0.157,-12.44886 0.106,0.008 1.843,0.60772 3.858,1.33377 2.014,0.72603 8.69,1.67668 10.482,0.69919 0.271,-0.14798 2.683,1.6918 6.31,3.75532 5.933,3.37587 9.08,4.37681 15.038,6.22805 3.15,0.98256 9.554,2.16538 14.245,2.34352 5.89,0.2237 15.247,0.23442 16.618,0.13803 -0.752,2.12911 -2.744,5.39204 -4.216,7.37479 -2.101,2.8145 -2.597,3.02697 -5.839,2.50837 -2.153,-0.3442 -3.542,-0.2023 -3.542,0.3607 0,0.5097 1.055,0.92656 2.344,0.92656 1.33,0 2.098,0.39673 1.777,0.91623 -0.312,0.50378 -1.597,0.9157 -2.857,0.9157 -1.259,0 -2.041,0.40024 -1.74,0.88935 0.806,1.3032 -3.595,2.15458 -8.361,1.61748 -6.693,-0.7547 -13.149,-8.0167 -13.149,-14.79548 0,-2.2063 -0.537,-3.50725 -1.71,-4.13515 -0.582,-0.31145 -1.053,-0.49487 -1.431,-0.52193 -1.135,-0.0812 -1.439,1.24645 -1.439,4.76146 0,11.71888 10.916,22.1098 22.24,21.17081 9.745,-0.8082 17.654,-8.07994 22.553,-17.03847 1.328,-2.42851 1.881,-4.59903 2.348,-5.50853 0,0 5.804,-1.06901 6.931,-1.30145 7.342,-1.50914 10.375,-2.25412 12.069,-2.43241 0.462,1.34699 0.867,3.57649 1.173,6.28024 0.564,4.98257 0.852,5.55857 3.023,6.03064 1.319,0.28702 2.979,0.70556 3.688,0.93017 2.885,0.91283 25.332,-12.3557 28.131,-16.62741 0.812,-1.23993 2.033,-2.25412 2.714,-2.25412 0.68,0 1.698,-0.86144 2.261,-1.9141 0.564,-1.0527 2.643,-4.04101 4.622,-6.64094 3.225,-4.24043 4.065,-5.51443 3.816,-8.9178 -0.05,-0.64449 -0.141,-1.68515 -0.214,-2.5585 0.743,-1.31591 1.081,-3.04056 -0.328,-3.90415 -0.176,-1.98372 -0.332,-3.68195 -0.332,-3.68195 1.532,-1.60946 3.595,-6.67874 -0.272,-6.94169 0,0 -0.281,-2.05113 0.01,-2.26963 1.952,-1.45491 1.778,-5.71707 -0.367,-5.03949 0,0 -0.867,-5.12755 -1.411,-9.38702 -0.546,-4.25941 -1.359,-8.11069 -1.808,-8.55814 -1.095,-1.0964 -4.108,0.57206 -9.94,5.50561 -2.645,2.23748 -4.808,3.84105 -4.808,3.56309 0,-0.27791 2.513,-3.42804 5.588,-7.00009 3.074,-3.57206 5.377,-6.70728 5.117,-6.96753 -1.527,-1.52669 -9.163,6.6222 -14.122,15.07091 -1.605,2.73639 -2.748,3.78056 -3.723,3.406 -21.452,-7.61242 -46.255,-7.67952 -67.609,0.0496 l -5.759,2.44791 -3.743,-3.20394 c -2.499,-2.1389 -9.442,-5.54651 -20.89,-10.25054 -20.254,-8.32199 -29.441,-12.64665 -32.922,-15.49879 -6.048,-4.94869 -13.64,-8.08346 -22.472,-9.27541 l -4.349,-0.58756 -0.03,-7.04298 c -0.116,-23.9197 -5.582,-58.45553 -12.424,-78.49236 -2.236,-6.54949 -4.323,-12.67578 -4.64,-13.61416 -0.522,-1.55398 -0.216,-1.64647 3.454,-1.03508 6.807,1.13527 15.55,4.11297 24.194,8.24136 9.491,4.53255 15.955,10.26535 20.103,17.9188 4.836,8.92107 3.649,21.48634 0.55,32.54737 -1.52,5.42527 -4.678,14.19007 -6.857,19.52439 -2.176,5.33434 -4.217,11.4223 -4.534,13.52889 -0.522,3.45413 -0.329,4.00711 1.953,5.63273 3.341,2.37857 12.651,5.11048 27.122,7.95972 23.831,4.69189 37.642,12.87227 41.976,24.86308 0.852,2.35049 1.599,3.06617 2.996,2.86598 2.278,-0.32577 2.101,-2.09872 -0.86,-8.65322 -2.738,-6.06391 -8.017,-11.14727 -15.809,-15.2244 -8.419,-4.40319 -14.838,-6.37079 -30.474,-9.34103 -15.295,-2.90544 -22.635,-4.80769 -23.413,-6.06836 -0.302,-0.48689 1.384,-4.89109 3.741,-9.787 2.361,-4.896 5.999,-13.84782 8.088,-19.89388 4.271,-12.36033 7.518,-29.58481 -2.942,-44.36731 -4.556,-6.43909 -9.802,-9.82894 -24.636,-17.13488 -8.935,-4.40051 -14.016,-6.31354 -19.238,-7.24451 -3.903,-0.69581 -7.561,-1.27898 -8.133,-1.29708 -0.568,-0.0176 -2.749,-2.66222 -4.845,-5.87716 -2.096,-3.215 -4.578,-6.54246 -5.518,-7.39387 -1.659,-1.49994 -1.571,-1.81695 2.783,-10.19317 2.472,-4.75473 4.495,-9.62098 4.495,-10.81433 0,-2.26785 -1.509,-3.98673 -3.185,-3.88193 z m -0.643,42.44702 2.051,4.02404 c 3.606,7.06679 7.216,19.09778 11.375,37.91707 5.025,22.72405 5.981,30.27424 5.981,47.30719 v 13.46222 l -2.979,0.63046 c -1.636,0.34675 -4.918,1.45407 -7.294,2.46083 -3.453,1.46519 -4.709,2.64338 -6.286,5.90248 -1.911,3.9298 -1.701,7.09229 0.234,3.63647 3.284,-5.86886 10.802,-8.32687 23.585,-7.71064 5.598,0.30598 9.324,0.7157 14.086,3.21427 l -5.988,2.94711 c -6.566,3.23322 -10.311,6.64579 -14.756,13.45189 h 0.01 c -2.817,4.31401 -3.074,4.47201 -7.491,4.59197 -4.323,0.11755 -6.66,-0.10325 -11.046,-1.04335 -1.843,-0.39304 -1.895,-0.88235 -1.636,-15.31586 0.143,-8.20035 0.499,-19.85664 0.792,-25.90229 0.491,-10.12615 0.32,-11.82218 -2.149,-21.52634 -3.856,-15.15313 -10.47,-28.50937 -18.14,-36.64117 -6.242,-6.61722 -14.071,-11.39372 -17.756,-10.83552 -1.698,0.2568 -1.36,0.70156 2.254,2.97605 4.474,2.81537 16.569,15.01085 15.725,15.85485 -0.27,0.27116 -2.051,-0.87504 -3.954,-2.54713 -3.633,-3.18794 -18.997,-10.75697 -25.723,-12.67003 l -3.931,-1.1188 2.955,-3.7331 c 7.717,-9.74307 25.278,-17.57195 42.089,-18.76527 z m 35.147,15.6099 c -0.678,-0.1411 -0.726,1.87023 0.327,5.73866 0.891,3.2716 1.379,9.30487 1.379,17.32401 0.01,13.90726 -0.02,14.21581 -3.913,38.177 -1.565,9.6275 -2.586,18.18109 -2.269,19.00763 0.667,1.7355 2.075,1.96094 2.991,0.47852 1.083,-1.74942 5.843,-29.17074 6.783,-39.06428 1.186,-12.48339 -0.141,-30.19471 -2.795,-37.28662 -1.068,-2.85293 -1.976,-4.26518 -2.503,-4.37492 z m 8.372,101.05068 c 2.645,0.0586 2.495,0.20355 -1.722,1.64279 -8.06,2.75125 -15.987,8.95352 -15.987,12.50776 0,0.68736 -0.413,1.5045 -0.917,1.81591 -1.269,0.78497 -1.142,-0.88703 0.335,-4.4235 2.329,-5.57407 12.006,-11.68214 18.291,-11.54296 z m 7.477,3.73414 c 3.258,-0.0844 6.401,0.60948 9.327,2.08462 5.345,2.69362 20.883,9.29075 31.898,13.54181 11.632,4.48916 17.672,9.82518 21.008,18.56011 1.784,4.67073 1.377,7.83746 -0.776,6.04976 -0.701,-0.5812 -1.527,-2.06691 -1.836,-3.30161 -4.437,-6.03079 -13.773,-10.04401 -19.321,-3.915 -1.411,1.55856 -2.856,3.96702 -3.342,5.23999 -1.542,4.06036 -1.096,10.82562 0.943,14.28181 1.04,1.76094 1.529,3.20136 1.09,3.20136 -0.439,0 -3.742,-1.81478 -7.34,-4.03335 -7.814,-4.81724 -10.81,-5.74499 -12.643,-3.91294 -3.415,3.50308 5.277,7.10025 7.561,9.76271 -2.798,1.04874 -5.897,0.0355 -9.1,-0.53175 l -1.759,-7.00939 c -3.069,-13.77773 -9.654,-22.93117 -21.613,-30.03641 -3.522,-2.09155 -8.346,-4.29888 -10.72,-4.90461 -2.376,-0.60573 -4.484,-1.57064 -4.665,-2.14457 -0.549,-1.64334 6.325,-7.9502 11.274,-10.34614 3.385,-1.63877 6.757,-2.50196 10.014,-2.5864 z m 153.446,8.59482 0.65,7.74785 c 0.465,5.54384 0.216,6.92671 0.216,6.92671 -2.831,1.96878 -3.682,7.04471 0.855,5.61102 0.275,0.72538 0.168,1.82506 0.33,2.25206 -1.432,1.74393 -1.612,2.50382 -2.609,4.02508 -1.508,2.30205 0.757,5.23725 2.415,4.20388 0.758,-0.47259 0.486,1.15678 0.453,1.73633 -0.02,0.3287 -1.376,1.12095 -2.497,2.54868 -1.064,1.35503 0.157,4.43566 2.558,3.29127 0,0 0.166,1.96514 -0.473,3.12384 -1.105,1.46495 -1.565,2.50911 -2.259,3.39152 -1.285,1.67371 -1.411,1.68991 -1.441,0.18914 -0.08,-4.73849 -2.994,-27.4943 -4.124,-32.24971 l -1.303,-5.49631 3.614,-3.65042 z m -9.841,9.62784 v 5.1e-4 5.2e-4 c 0.04,0.004 0.08,0.0176 0.101,0.0434 0.184,0.20686 1.034,6.76523 1.886,14.5743 0.852,7.80897 1.913,16.83775 2.357,20.06389 0.636,4.59871 0.519,6.4291 -0.537,8.47339 -0.743,1.43413 -1.519,2.60759 -1.727,2.60759 -0.527,0 -1.218,-5.75887 -2.374,-19.80241 -0.542,-6.60885 -1.508,-14.54328 -2.147,-17.632 -1.059,-5.14325 -1.015,-5.74436 0.527,-7.13858 0.809,-0.73262 1.606,-1.21893 1.914,-1.19062 z m -44.817,0.36276 v 0 c 0.793,0.005 1.601,0.0249 2.427,0.0589 12.021,0 22.407,2.38573 25.649,3.35276 0,0.42299 -0.514,0.78022 -1.146,0.79582 -1.734,0.0405 -12.37,4.62778 -18.674,8.05481 -5.812,2.88585 -5.955,2.0927 -3.903,6.55153 3.35,7.27377 4.808,13.08366 5.536,17.96273 -1.716,2.08936 -0.506,7.19495 -1.985,7.49618 -2.895,0.60184 -4.943,0.97428 -8.01,1.78181 -6.974,1.83652 -6.605,1.42187 -6.605,0.37 0,-0.44505 0.947,-0.73949 1.955,-1.00304 2.347,-0.61383 2.216,-3.91752 -1.828,-3.65559 0,0 -0.118,-0.92444 -0.616,-3.92121 -1.389,-8.34416 -5.396,-13.18812 -13.202,-15.96026 l -4.252,-1.51051 0.02,-6.95151 c 0.03,-5.58589 -0.231,-6.95151 -1.335,-6.95151 -1.103,0 -1.374,1.39956 -1.374,7.09982 v 7.09983 l -3.414,-5.2e-4 c -3.292,-6.7e-4 -3.378,-0.0829 -2.397,-2.24069 0.736,-1.62232 0.747,-3.31164 0.03,-6.12779 -1.184,-4.6657 -0.88,-4.61703 2.812,-5.86579 10.172,-3.48619 18.426,-6.51823 30.309,-6.43579 z m 38.852,3.28869 0.579,2.89802 c 1.25,6.23586 3.309,40.59007 2.452,40.87554 -0.481,0.16026 -3.267,1.8266 -6.193,3.70313 -2.923,1.87641 -6.811,4.32606 -8.641,5.4436 l -3.327,2.03191 -2.026,-8.35504 c 5.074,0.75894 16.731,-3.42643 17.38,-8.14524 0,-1.37841 -2.529,-1.68476 -4.694,-0.56844 -5.162,2.6619 -5.542,2.31814 -1.857,-1.67949 3.446,-3.73852 5.021,-7.83104 3.015,-7.83104 -0.436,0 -2.353,1.24165 -4.264,2.75952 -1.911,1.51798 -3.623,2.62262 -3.778,2.45463 -0.169,-0.16798 0.823,-2.42044 2.199,-5.00538 2.072,-3.88331 2.298,-4.90659 1.301,-5.88956 -0.995,-0.97824 -1.605,-0.73239 -3.435,1.38079 l -2.226,2.56987 v -3.25716 c 0,-2.60716 -0.353,-3.25717 -1.768,-3.25717 -1.29,0 -2.243,1.27413 -3.524,4.70721 l -1.757,4.7072 -2.498,-7.53804 c -1.376,-4.14575 -2.358,-7.66185 -2.203,-7.81348 0.165,-0.15153 4.337,-2.15653 9.276,-4.45554 4.936,-2.299 10.552,-5.4303 12.482,-6.95823 z m -24.654,8.22069 c 0.294,0 -0.882,1.18371 -2.617,2.63085 -2.459,2.05284 -2.927,2.90873 -2.135,3.8933 0.561,0.6941 2.425,7.89771 3.288,12.74961 0.637,3.58165 1.594,5.20919 2.157,8.05945 -1.061,-0.36251 -2.369,-0.97656 -3.167,-4.16046 -1.11,-4.43255 -4.248,-14.28204 -5.25,-16.35611 -1.104,-2.85414 -1.613,-2.85466 7.724,-6.81664 z m -64.486,4.1305 c 0.678,0.0216 1.473,0.18881 2.532,0.48369 3.352,0.93332 7.14,4.59225 7.14,6.89777 0,0.65385 -0.792,1.43983 -1.76,1.74718 -4.037,1.44488 -9.692,11.09855 -9.692,11.09855 -5.363,-4.77003 -5.988,-15.37033 -1.315,-19.03192 1.139,-0.89224 1.966,-1.2312 3.095,-1.19527 z m 22.13,10.61485 c 5.359,0.005 9.17,1.50786 11.789,4.62246 2.874,3.42667 2.911,4.44831 0.156,4.44831 -3.796,0 -11.22,6.16724 -9.496,7.89047 0.356,0.35744 2.732,-0.48355 5.279,-1.86914 2.545,-1.3856 7.122,-2.54876 7.272,-2.34559 0.371,0.50288 0.595,1.78575 0.585,3.51762 -3.644,1.26218 -4.117,4.2111 -1.991,4.2571 l 1.267,0.0274 c 2.039,0.0441 -0.327,1.33712 -8.592,1.24592 -9.644,-0.10627 -14.323,-0.78102 -21.861,-3.15381 -7.403,-2.33006 -9.688,-3.32213 -9.688,-4.20595 0,-0.45427 1.007,-0.16543 2.241,0.64182 2.233,1.46292 2.248,1.44882 5.048,-4.09484 3.635,-7.19924 8.15,-10.35435 15.598,-10.89287 0.83,-0.06 1.627,-0.0896 2.393,-0.0889 z m -160.952,22.15524 c 1.951,0.21692 7.544,3.61367 7.17,4.60644 -0.226,0.59825 -1.096,3.45779 -1.935,6.35465 -0.838,2.89692 -1.719,5.26738 -1.978,5.26738 -1.213,0 -4.809,-15.14254 -3.831,-16.12253 0.06,-0.0544 0.134,-0.0889 0.235,-0.10542 0.09,-0.0155 0.209,-0.015 0.339,-5.2e-4 z m 204.547,1.86604 c 0.508,-0.0228 0.826,0.35449 0.941,1.9451 0.112,1.53926 0.954,5.40961 1.245,6.92102 0.397,2.05927 0.19,2.74815 -0.83,2.74815 -1.006,0 -1.442,-1.34106 -1.676,-5.12682 -0.214,-3.47963 -0.746,-4.60195 -0.796,-6.1898 0.438,-0.12635 0.811,-0.28396 1.116,-0.29765 z m -36.695,5.57433 c -0.13,-0.0153 -0.252,-0.009 -0.362,0.009 -0.905,0.14351 -0.997,0.84289 -1.035,1.0635 -0.379,2.20758 1.793,3.59806 2.567,2.34662 0.296,-0.48283 0.425,-1.59298 0.05,-2.36368 -0.376,-0.76379 -0.828,-1.00945 -1.216,-1.05523 z m -16.803,2.86649 c -0.483,0.005 -0.916,0.18354 -1.11,0.49971 -0.299,0.4819 0.307,0.87592 1.345,0.87592 2.213,0 2.433,-0.5094 0.541,-1.2361 -0.185,-0.0709 -0.377,-0.11406 -0.566,-0.13126 -0.07,-0.006 -0.141,-0.009 -0.21,-0.008 z m -2.572,3.20756 c -1.239,0 -0.951,2.54252 0.34,3.00602 v 0.005 c 0.631,0.2212 1.475,0.21908 1.878,-0.01 0.844,-0.4804 -1.018,-3.00085 -2.218,-3.00085 z m -2.094,3.08147 c -0.734,-0.002 -1.429,0.8028 -0.96,1.56217 0.288,0.4689 0.915,0.85267 1.388,0.85267 0.986,0 1.146,-1.24164 0.277,-2.11254 -0.212,-0.21145 -0.46,-0.30166 -0.705,-0.3023 z m -62.851,9.7839 c 0.927,-0.0465 2.858,0.0799 4.978,0.34468 l 5.137,0.64182 -0.621,2.90422 c -0.341,1.59724 -1.169,4.24388 -1.841,5.88129 -1.877,4.56768 -3.61,3.69696 -6.252,-3.14348 -1.301,-3.36629 -2.198,-6.30187 -1.963,-6.52311 0.06,-0.0553 0.253,-0.0899 0.562,-0.10542 z" fill="#00B894" transform="translate(461.88708,-236.57809) translate(-10454.864,1.019666)"/>
</svg>