<?xml version="1.0" ?><svg height="257.77847mm" viewBox="0 0 200.60295 257.77847" width="200.60295mm" xmlns="http://www.w3.org/2000/svg">
    <path d="m 9600.2748,2321.929 184.8618,0.5767 c 5.009,89.5096 4.6632,161.0265 5.0394,245.6708 0,0 -182.8146,6.7413 -185.8139,6.7413 -3.0024,0 -6.4711,-2.4354 -6.9406,-11.3299 -0.4725,-8.8944 2.8533,-241.6589 2.8533,-241.6589 z" fill="#FFFFFF" paint-order="markers stroke fill" transform="translate(77.649338,-120.2887) translate(-9671.6457,-2199.7718)"/>
    <path d="m 9606.5766,2320.0605 c -4.8478,0.041 -6.9195,0.2573 -7.1639,0.6522 -0.3589,0.5819 -1.0257,13.3216 -1.482,28.3109 -0.4573,14.9893 -1.4804,42.0933 -2.2774,60.2305 -1.9376,44.1479 -2.2444,125.4199 -0.5561,147.9361 1.4195,18.9668 1.7454,19.8214 7.7582,20.4587 2.0878,0.2206 6.6811,0.2548 10.2077,0.073 44.4663,-2.2791 72.7069,-3.2487 118.1649,-4.0566 59.0389,-1.0489 60.8409,-1.1289 61.8437,-2.7507 1.3992,-2.2681 1.7394,-20.2194 1.4129,-74.6404 -0.4005,-66.3443 -1.5477,-100.6144 -5.1077,-152.5173 -1.4287,-20.8264 -1.6388,-21.901 -4.4515,-22.6364 -2.0978,-0.5484 -26.2796,-0.5512 -104.5352,0 -10.8302,0.075 -33.3353,-0.2208 -50.0109,-0.6604 -11.3392,-0.2978 -18.957,-0.4311 -23.8027,-0.3901 z m -3.131,3.4365 15.7995,0.2827 c 11.397,0.2051 15.7456,0.5811 15.6006,1.3503 -0.3558,1.868 -1.6476,31.5253 -2.0922,50.3527 -0.3324,2.0513 -0.4689,4.6005 -0.474,5.5405 -1.6558,0.337 -3.1389,2.7795 -3.1389,3.5156 0,0.7378 -0.8406,1.3379 -1.8748,1.3379 -3.2224,0 -6.3686,4.0267 -6.3686,8.1488 0,2.0081 0.441,3.9253 0.9834,4.2602 0.6469,0.3999 0.7815,2.8537 0.3891,7.1531 -0.9217,10.1278 2.5554,16.215 7.6921,13.4658 0.9937,-0.5319 2.0379,-0.9679 2.3228,-0.9679 0.2859,0 0.5204,6.0947 0.5204,13.5429 v 13.5433 l -3.916,3.8618 v 0.01 l -1.155,1.1338 c -2.8219,2.7708 -6.7409,7.5118 -8.7111,10.5347 -7.5489,11.5863 -12.3385,34.5353 -10.0774,48.2989 2.8979,17.6529 7.4756,31.8726 12.6995,39.4674 l 2.883,4.1894 -3.4437,2.5574 c -1.8931,1.4071 -7.3999,5.7061 -12.2355,9.5535 l -8.7937,6.9949 -0.8258,-14.3092 c -1.1275,-19.5515 -0.8627,-92.1028 0.4098,-112.3239 2.0847,-33.1639 3.0827,-64.1538 3.7367,-116.1604 z m 119.2976,0.8129 23.0213,0.7917 c 12.6613,0.4354 26.6457,0.7917 31.0757,0.7917 8.0518,0 8.0553,10e-5 7.7876,2.2908 -0.2342,2.0373 -0.6728,2.2784 -3.9347,2.1854 -18.378,-0.525 -42.5498,0 -45.9486,0 -0.9582,0 -1.8178,0.036 -1.8097,1.2614 l 0.2078,39.4245 c 0.2078,22.0213 0.3793,40.9057 0.3793,41.9654 0,1.8519 0.6022,1.9582 15.7944,2.7481 8.6906,0.4518 20.8511,0.7941 27.0231,0.7617 l 11.2226,-0.06 v 7.6176 7.6161 h -21.5284 c -11.838,0 -21.5264,0.3533 -21.5264,0.7849 0,0.4315 9.5769,1.0843 21.285,1.4521 11.7052,0.3673 21.6317,0.8844 22.0576,1.1483 0.4278,0.2638 0.6412,20.5697 0.4729,45.1244 l -0.3044,44.6453 -18.7787,0.5865 c -10.3293,0.3228 -21.2912,1.1524 -24.4021,1.1752 -5.5879,0.2363 -5.3363,-0.7546 -6.2012,-13.9594 -0.5212,-7.9899 -0.7757,-16.402 -1.017,-18.6697 l -0.4424,-4.1237 10.4774,-6.7102 c 10.8798,-6.9705 13.8379,-9.9861 13.0561,-13.3124 -1.2796,-5.4362 -8.8671,-25.7732 -9.7219,-26.0584 -0.5425,-0.1817 -0.987,-0.9401 -0.987,-1.6877 0,-0.9441 -0.5606,-1.1808 -1.8381,-0.7757 -1.4256,0.4529 -2.1944,-0.078 -3.4324,-2.3724 -0.8802,-1.6251 -2.3034,-3.6985 -3.1652,-4.6075 -2.0848,-2.1981 -4.7499,-1.244 -14.567,5.2142 -4.1553,2.7333 -6.4263,4.2183 -7.8104,5.2291 -3.5185,0.026 -7.3329,2.904 -8.2962,6.058 -1.3759,1.2988 -4.2899,3.3937 -7.0915,5.6291 -5.375,4.2888 -6.1437,6.2999 -3.7254,9.7524 0.5607,0.799 0.8924,1.3374 1.4511,1.958 -0.5973,0.6769 -2.2545,1.5551 -4.8168,3.3972 -7.7253,5.5491 -10.3635,6.3493 -15.0368,4.5636 -4.8894,-1.8667 -16.8604,-12.9819 -16.8604,-15.6538 0,-7.0679 -8.449,-18.2324 -14.7841,-19.5353 -2.8303,-0.5822 -9.4472,-0.468 -12.7987,0.9271 -0.2818,0.08 -0.5418,0.164 -0.7612,0.2527 -1.1914,0.4819 -1.3321,-1.2305 -1.0594,-12.9672 0.1815,-7.4371 0.4237,-13.6347 0.5555,-13.7723 0.1298,-0.1376 0.8647,2e-4 1.6252,0.2806 0.8963,0.3427 1.6002,2.3559 1.9896,5.6746 1.2309,10.4697 4.7927,15.2082 15.5949,20.0277 11.1579,4.9782 20.0702,0.541 28.5488,-5.8145 0.705,0.6281 0.8046,0.9249 1.5636,1.636 2.731,2.5585 6.1135,-0.2487 3.9393,-3.5249 -0.6862,-1.034 -2.0624,-2.276 -1.7655,-2.616 3.3864,-5.1761 4.9635,-8.8358 7.0292,-15.2273 0.2621,-0.7434 0.7619,-1.131 1.7043,-1.3152 2.1165,-0.5179 6.8129,0.2525 8.1432,-0.9136 1.3009,-1.3016 3.6248,-79.6025 2.4303,-81.9811 -0.7138,-1.4287 -2.5703,-1.6179 -17.0284,-1.7327 -8.9269,-0.07 -20.4221,-0.244 -25.5447,-0.3824 -1.6071,-0.045 -3.0247,-0.057 -4.2638,-0.045 h 0.01 c -3.7132,0.042 -5.8192,0.3505 -6.6425,0.9514 -1.4257,1.0428 -1.622,3.7995 -1.9343,27.1761 -0.02,6.7773 -0.3669,11.1777 -0.5374,17.2961 h -3.9445 c -3.1311,0 -4.6377,0.603 -7.276,2.9197 l -2.9445,1.9213 c 0.56,-17.7221 0.2897,-35.8253 1.5146,-53.9476 0.051,-0.753 11.046,-1.0024 40.4317,-0.9167 l 40.351,0.1168 -0.6372,46.717 c -0.3761,27.5332 -0.081,49.4158 -0.3524,60.8516 -0.1552,6.5642 1.0096,6.5559 1.8045,5.8317 0.291,-0.2649 0.9632,-19.5657 1.2826,-45.3859 0.3224,-25.8205 0.8306,-51.8364 1.1348,-57.8135 z m 35.7921,8.1943 c 2.4798,0.011 5.0496,0.034 7.5784,0.067 l 18.3942,0.2646 1.0831,19.8882 c 0.5942,10.9386 1.3474,28.8542 1.6749,39.812 l 0.5891,19.9233 h -25.8574 -25.8568 l 0.2605,-39.7758 0.1814,-39.1837 c 0,-1.0015 -0.1557,-0.7405 5.5955,-0.8924 1.525,-0.041 4.9785,-0.086 9.3141,-0.1013 h 0.01 c 2.1684,-0.013 4.5581,-0.013 7.0378,0 z m -100.5794,0.523 c 3.7443,0.01 12.3635,0.1536 22.286,0.3845 l 24.0606,0.5622 -0.6005,10.6174 c -0.3295,5.8395 -0.6619,23.2907 -0.7349,38.7806 -0.1298,25.3449 -0.2832,28.1603 -1.6257,28.1673 -0.4231,0 -2.5945,0.409 -4.3072,0.036 -1.568,-0.3415 -2.1321,-0.2848 -1.2564,-2.297 0.2332,-1.2359 -0.3115,-4.6038 -1.218,-7.4832 -2.0127,-6.3988 -10.0962,-15.2903 -14.8477,-16.3339 -2.1992,-0.4829 -3.3053,-1.4347 -4.2219,-3.6298 -0.6824,-1.6363 -2.3787,-3.8685 -3.7678,-4.9609 -2.5785,-2.0271 -7.6262,-2.6572 -9.1948,-1.1467 -0.4776,0.4614 -2.3109,0.976 -4.0762,1.1446 l -3.6928,0.1762 c 0.1259,-7.0325 0.2355,-14.0754 0.3457,-21.1315 0.2078,-12.4489 0.7434,-22.7259 0.8651,-22.8456 0.032,-0.03 0.7388,-0.043 1.9869,-0.04 z m -9.4051,44.605 v 0 c 2.7623,0 6.227,4.1052 6.227,7.3722 0,2.089 0.4939,3.0041 1.8019,3.3465 2.2592,0.5902 3.1209,3.1947 2.3787,7.1655 -0.4644,2.4675 -1.0566,3.1253 -3.0329,3.3559 -1.9843,0.2311 -2.5814,0.8997 -3.1026,3.4711 -0.803,3.9637 -3.7424,6.4342 -7.6523,6.4342 -1.6436,0 -3.5187,0.6364 -4.1656,1.4144 -0.7706,0.9288 -2.0015,1.2321 -3.5853,0.8842 -1.8251,-0.401 -2.9474,0.037 -4.5961,1.7911 -2.4538,2.6112 -5.962,3.061 -6.8006,0.8723 -0.872,-2.2714 -0.6511,-8.994 0.3922,-11.9879 0.7271,-2.0874 0.6255,-3.3368 -0.4341,-5.3806 -1.163,-2.2391 -1.1862,-2.9558 -0.155,-4.5165 0.6692,-1.0205 2.1294,-2.3201 3.2427,-2.8877 1.1143,-0.5679 2.638,-1.9081 3.3884,-2.9776 0.9247,-1.3214 2.3422,-1.944 4.4168,-1.944 2.4619,0 3.1629,-0.4285 3.607,-2.1994 0.5525,-2.1955 4.4101,-4.212 8.0651,-4.2137 z m 17.8088,0.073 c 0.1302,-0.01 0.2623,0 0.3958,0.01 1.0667,0.078 2.2358,0.6765 3.4272,1.7886 2.9192,2.7184 2.6563,5.4601 -0.5194,5.4601 -1.3892,0 -3.8092,0.3678 -5.3748,0.817 -3.3156,0.9508 -4.1074,0.5447 -5.6111,-2.8779 -1.158,-2.6347 -0.8673,-2.921 2.6066,-2.59 0.8051,0.075 1.9896,-0.495 2.6334,-1.2692 0.7001,-0.8449 1.5303,-1.2887 2.4423,-1.3337 z m 6.7443,10.9368 c 5.6974,0 8.6803,1.5357 12.9227,6.6823 2.5785,3.1279 5.3986,9.5106 5.3986,12.2214 0,2.1261 -2.8817,2.6247 -4.2607,0.738 -1.0931,-1.4957 -1.6203,-1.5694 -4.284,-0.6062 -4.0954,1.4813 -5.8059,1.3822 -6.4812,-0.3757 -0.4492,-1.17 -1.2726,-1.336 -3.991,-0.8051 -1.885,0.3678 -4.2376,0.7208 -5.2323,0.786 -0.9916,0.065 -2.3137,1.1434 -2.9372,2.3942 -1.6092,3.2283 -3.8065,4.5759 -6.5898,4.0426 -1.9651,-0.3765 -2.6922,0.052 -3.9677,2.3363 -0.8568,1.5382 -2.2847,2.7962 -3.1709,2.7962 -0.8872,0 -2.5235,1.1332 -3.6349,2.5187 l -2.0201,2.5198 -0.9911,-2.5787 c -1.9996,-5.2126 -0.9511,-8.8682 2.544,-8.8749 3.4637,0 7.8734,-2.9828 9.2129,-6.2218 0.6438,-1.5518 2.3035,-3.2557 3.7626,-3.8597 2.8482,-1.1799 4.5599,-4.7977 4.5599,-9.6393 0,-3.4637 1.3497,-4.0636 9.1602,-4.0741 z m 10.6329,21.4152 c 0.541,-0.031 1.1291,0.2737 1.774,0.9167 0.8051,0.8058 2.6432,1.4656 4.084,1.4656 2.4275,0 2.7113,0.2341 1.8878,2.5456 -2.6662,7.4841 -7.3982,14.4236 -16.3484,20.4306 -6.2136,4.1708 -12.5334,3.4475 -18.5187,1.2786 -4.0312,-1.4608 -8.415,-3.9362 -10.1808,-8.9002 -0.4741,-1.3327 -0.2079,-2.1922 2.1394,-4.3248 1.6518,-1.5026 3.6614,-2.7442 4.4664,-2.7585 0.8021,-0.026 2.2045,-0.851 3.1181,-1.8588 0.9298,-1.0269 2.8197,-1.8314 4.3052,-1.8314 2.6667,0 7.1453,-3.479 7.1453,-5.5526 0,-0.5838 0.6417,-0.809 1.4387,-0.5034 0.7919,0.3041 2.2409,0.1222 3.2225,-0.401 1.3161,-0.7047 2.2722,-0.6111 3.6582,0.3597 1.886,1.3203 4.9158,1.0881 6.9985,-0.5379 0.1815,-0.1454 0.3791,-0.2443 0.5809,-0.2941 0.075,-0.018 0.1516,-0.03 0.2289,-0.034 z m -3.3052,14.5004 c -0.042,2.6339 2.9962,1.637 4.0457,-1.3462 0.4826,-1.3708 0.3114,-2.2629 -0.1144,-2.4819 -2.2802,-1.1727 -3.9129,2.6754 -3.9313,3.8281 z m 19.697,10.0314 c -0.2355,0 -0.4842,0.011 -0.7468,0.028 h -0.01 c -0.6003,0.041 -1.2723,0.1218 -2.0257,0.2361 -5.3355,0.8003 -5.3416,2.3389 0,2.3389 h 4.1207 v 7.6336 c 0,4.1986 0.2959,7.9291 0.6599,8.291 1.1813,1.183 1.9598,-2.5108 2.0247,-9.6299 0.076,-6.9467 -0.49,-8.9145 -4.0225,-8.8982 z m 38.3077,1.8454 c 0.1044,0.1662 0.8934,1.8758 1.7684,3.8024 1.5706,3.4528 1.5634,3.5271 -0.4858,5.2012 -0.7888,0.6446 -1.8764,1.0984 -2.357,1.311 -0.7717,-0.6273 -1.3559,-1.9534 -2.9884,-3.2768 -1.4966,-1.2137 -2.5135,-0.5534 -1.1741,1.2062 0.87,1.1514 2.4092,3.2927 2.033,3.6375 -0.6854,0.6341 -1.7087,1.2566 -2.7916,1.865 -0.3265,0.1844 -2.1676,-2.2555 -3.3569,-3.7218 -1.0617,-1.3087 -2.6253,-0.9313 -1.3994,0.7752 0.7919,1.1054 3.2586,4.2289 2.9828,4.4901 -0.4928,0.4737 -2.762,1.7839 -3.1544,2.0945 0,0 -0.9994,-1.1111 -2.2872,-2.559 -0.9815,-1.1043 -2.2696,-0.8078 -1.4159,0.757 0.6287,1.1502 2.0465,2.837 1.6237,3.113 -0.4654,0.3008 -2.2777,1.6475 -2.665,1.9952 -0.436,0.3939 -0.792,0.4006 -2.2278,-1.2573 -1.6619,-1.919 -2.4452,-0.9591 -1.3156,0.8873 0.5293,0.8634 1.4303,2.0277 1.0511,2.2593 -0.5273,0.3218 -2.322,1.7293 -2.9192,2.2076 -0.2332,0.1766 -1.2927,-1.4056 -2.7001,-2.6758 -1.5838,-1.4287 -2.3421,-0.5713 -1.4072,0.7902 0.5739,0.8368 2.3322,3.275 2.174,3.3843 -0.6854,0.4741 -2.4387,1.8584 -2.9295,2.0515 -0.1561,0.06 -1.6437,-1.7647 -1.9063,-2.0262 -1.664,-1.6649 -2.1468,-0.091 -1.5111,0.926 0.3428,0.5468 1.5609,2.4578 1.3581,2.5859 -0.4978,0.3118 -1.4979,1.574 -1.8903,1.9012 -1.0099,0.8379 -1.8129,0.5023 -3.8246,-1.5978 -1.4023,-1.462 -2.3989,-3.0698 -2.2174,-3.5735 0.1815,-0.504 3.2171,-3.2138 6.7427,-6.0223 4.8062,-3.8274 5.8508,-4.6891 6.7877,-5.2974 6.0899,-0.9964 9.3476,-3.5265 7.1412,-5.5929 1.0332,-1.2861 2.1546,-1.4969 7.706,-5.1217 4.0609,-2.6511 7.4597,-4.6845 7.5561,-4.5191 z m -93.1995,7.5406 v 6e-4 c 1.3709,5e-4 2.6465,0.2975 3.8075,0.8971 3.8318,1.982 8.187,7.2727 9.3064,11.3026 1.4145,5.089 1.2381,5.3133 -1.6851,2.1818 -5.7391,-6.1427 -7.5879,-0.7584 -4.1212,5.1795 l 5.4704,9.3633 -2.0691,7.5649 c -1.1367,4.1612 -2.4857,11.3271 -2.9998,15.9236 -1.1001,9.8569 0.031,15.0084 4.4933,20.5698 1.5392,1.916 2.7983,3.7805 2.7983,4.1413 0,0.3607 -1.7417,2.9135 -3.8711,5.6731 -4.3884,5.6893 -8.3581,8.5958 -15.473,11.328 -2.7104,1.0407 -7.4962,2.6115 -10.6303,3.4912 -5.3233,1.4936 -5.7931,1.4975 -7.0859,0.068 -3.6827,-4.0682 -9.6568,-28.4632 -9.6568,-39.4291 0,-9.9681 4.2168,-27.6193 8.7685,-36.7177 2.8685,-5.734 11.9513,-16.97 15.415,-19.0727 2.7033,-1.6395 5.2504,-2.466 7.5329,-2.465 z m 96.2949,4.4654 c 0.026,0 0.036,0.013 0.029,0.037 -0.1045,0.3109 -3.1788,2.6051 -9.4491,7.0595 -4.9462,3.5132 -9.3633,6.3882 -9.8175,6.3882 -1.5301,0 8.4617,-7.3139 16.2621,-11.9031 1.7904,-1.0527 2.7913,-1.5888 2.9755,-1.5813 z m -92.1447,0.8077 v 0.012 c -1.166,0.187 -1.5271,1.8112 -0.4259,2.912 0.9582,0.9602 2.5756,0.1428 2.5756,-1.3043 0,-0.7068 -0.7219,-1.4245 -1.6051,-1.5943 -0.2078,-0.036 -0.3793,-0.039 -0.5446,-0.026 z m -12.9936,0.072 c -1.085,0.032 -2.103,1.3033 -1.3942,2.449 0.3376,0.5475 0.9786,0.9958 1.4227,0.9958 1.4154,0 2.0741,-1.9541 1.0175,-3.0112 -0.3143,-0.3157 -0.682,-0.4439 -1.046,-0.4336 z m 5.9904,0.462 c -0.504,0.036 -1.0134,0.566 -1.2212,1.5607 -0.1815,0.8298 0.3328,1.4221 1.2129,1.4221 0.943,0 1.392,-0.6007 1.1994,-1.6035 -0.1815,-0.9655 -0.6851,-1.4171 -1.1911,-1.3793 z m 106.657,0.8196 c 0.05,-4e-4 0.086,0.01 0.107,0.03 v -0.01 c 1.3759,1.3753 6.5616,20.6305 5.7464,21.3336 -0.4208,0.3625 -4.8876,3.3579 -9.925,6.6564 -5.0373,3.2988 -11.6037,7.9004 -14.5867,10.2268 -2.9862,2.3262 -5.6759,4.2292 -5.9831,4.2292 -1.01,0 -11.3858,-10.7241 -11.3858,-11.7879 1.0829,-1.1451 2.3622,-1.6655 5.7407,0.057 4.6034,2.3473 14.1358,2.2842 16.5277,-0.109 0.9684,-0.9696 2.6433,-2.2337 3.7202,-2.8096 3.2751,-1.7533 1.8648,-4.0106 -3.204,-5.1315 l -4.5702,-1.0103 3.7894,-1.0614 c 4.0609,-1.1388 6.3533,-3.1237 5.3981,-4.6721 -0.8213,-1.3279 -3.1706,-0.7787 -10.1761,0.538 -3.9758,0.7473 -5.6739,0.6536 -6.7588,0.026 8.4868,-6.4566 23.9945,-16.4919 25.5602,-16.5065 z m -115.8255,4.9113 c -0.7564,0 -1.374,0.618 -1.374,1.3736 0,0.7559 0.6176,1.3746 1.374,1.3746 0.7554,0 1.3731,-0.6187 1.3731,-1.3746 0,-0.7556 -0.6177,-1.3736 -1.3731,-1.3736 z m 6.8709,0.9163 c -0.5039,0 -0.9167,0.6184 -0.9167,1.374 0,0.7556 0.4128,1.3741 0.9167,1.3741 0.503,0 0.9163,-0.6185 0.9163,-1.3741 0,-0.7556 -0.4133,-1.374 -0.9163,-1.374 z m 7.784,2.7481 c -1.3789,0 -1.88,1.934 -0.787,3.0288 0.8548,0.8548 2.1632,-0.1795 2.1632,-1.7084 0,-0.726 -0.6177,-1.3204 -1.3762,-1.3204 z m -13.7381,2.7482 c -0.7636,0 -1.3741,0.8134 -1.3741,1.8314 0,1.0176 0.6105,1.8319 1.3741,1.8319 0.7635,0 1.373,-0.8143 1.373,-1.8319 0,-1.018 -0.6095,-1.8314 -1.373,-1.8314 z m -7.0115,2.0676 c -0.5628,0.08 -1.1997,0.5745 -1.4826,1.4236 -0.2079,0.5982 0.2913,1.0883 1.0883,1.0883 0.8,0 1.4516,-0.6528 1.4516,-1.4505 0,-0.8088 -0.4935,-1.1419 -1.0573,-1.0614 z m 15.6838,0.9007 c -1.086,0.031 -2.101,1.3018 -1.3942,2.4474 0.3397,0.5477 0.9785,0.9953 1.4226,0.9953 1.4155,0 2.0777,-1.9539 1.0201,-3.0107 -0.3163,-0.3161 -0.6855,-0.4424 -1.0485,-0.432 z m 70.5471,3.8147 c 0.044,0.017 0.044,0.1598 0.044,0.4935 -0.9196,1.5029 -3.4332,4.4031 -4.6012,6.5655 -0.2677,-0.3706 -1.013,-1.3804 -1.1813,-1.6903 -0.2079,-0.3861 3.0066,-3.5376 4.8865,-4.7139 0.4573,-0.2877 0.6832,-0.5515 0.7917,-0.632 0.026,-0.02 0.046,-0.028 0.06,-0.023 z m -62.3037,0.7648 c -1.0849,0.031 -2.0999,1.3029 -1.3942,2.4485 0.3407,0.5476 0.9796,0.9958 1.4237,0.9958 1.4145,0 2.0766,-1.9541 1.0201,-3.0112 -0.3164,-0.3159 -0.6856,-0.4435 -1.0496,-0.4331 z m -15.0306,0.6961 c -1.6183,0 -2.6517,1.5076 -1.8851,2.7482 0.9936,1.612 3.2039,0.98 3.2039,-0.9163 0,-1.0077 -0.5918,-1.8319 -1.3188,-1.8319 z m -7.8393,0.9152 c -1.2209,0 -1.833,0.6119 -1.833,1.833 0,1.2215 0.6121,1.8314 1.833,1.8314 1.2198,0 1.8304,-0.6099 1.8304,-1.8314 0,-1.2211 -0.6106,-1.833 -1.8304,-1.833 z m 38.2039,0.7281 c 0.025,0 0.062,0.01 0.1111,0.03 0.3975,0.1843 1.5947,1.1991 3.8426,3.159 10.2461,8.9335 15.2866,9.6742 26.3328,3.8721 5.5768,-2.9291 4.3487,-2.6515 5.4286,-3.0872 0.4604,0.8566 2.7967,3.7693 2.7967,3.7693 0.3793,0.2672 -4.712,3.9425 -9.3245,6.1681 -6.2489,3.0182 -11.0683,4.006 -13.8415,2.8381 -2.0441,-0.8605 -10.8334,-10.0411 -14.2606,-14.8916 -0.8411,-1.1928 -1.2583,-1.8381 -1.0852,-1.8578 z m -21.7439,1.325 c -1.0859,0.032 -2.1029,1.3019 -1.3942,2.4474 0.3377,0.5477 0.9785,0.9958 1.4226,0.9958 1.4155,0 2.0746,-1.9544 1.018,-3.0112 -0.3143,-0.316 -0.6834,-0.4423 -1.0464,-0.432 z m -22.8193,2.528 c -1.236,0 -2.0928,1.6693 -1.4175,2.7626 0.3163,0.5121 0.9579,0.6942 1.4273,0.4042 1.1113,-0.6876 1.1042,-3.1668 0,-3.1668 z m 9.2181,2.9585 c -0.9866,-0.1246 -1.8305,0.8456 -1.3478,2.1084 0.2859,0.7395 0.8598,1.3446 1.2806,1.3446 1.3293,0 2.0333,-1.9533 1.0568,-2.9311 -0.3173,-0.3158 -0.6621,-0.4798 -0.9896,-0.5219 z m 9.5058,0.7043 c -1.4145,0 -1.8202,1.0819 -0.787,2.1136 0.73,0.732 2.1637,-0.096 2.1637,-1.2506 0,-0.4742 -0.6203,-0.863 -1.3767,-0.863 z m 10.2723,1.0641 c -1.4905,-0.109 -2.8298,1.2903 -2.0774,2.5104 0.9014,1.4547 2.9757,1.2163 3.6013,-0.4129 0.3123,-0.8163 -0.051,-1.6381 -0.88,-1.9539 -0.2079,-0.083 -0.431,-0.127 -0.6439,-0.1426 z m 11.7233,0 c 0.1562,-0.1713 3.5317,2.996 7.476,7.0352 7.7406,7.9285 11.7734,9.8976 17.7974,8.6925 l 3.0892,-0.6186 -1.5787,2.2195 c -3.2122,4.5181 -11.8165,18.4747 -13.2685,21.5176 -1.7917,3.7581 -2.4459,3.8133 -6.7877,0.5865 -8.1087,-6.028 -11.492,-12.7162 -10.4557,-20.6737 0.6986,-5.3571 3.2687,-18.2913 3.728,-18.759 z m -41.6331,3.5062 c -1.2391,0 -2.0959,1.67 -1.4206,2.7632 0.3164,0.512 0.9583,0.6936 1.4278,0.4035 1.1123,-0.6875 1.1042,-3.1667 0,-3.1667 z m 87.4654,1.1245 c 0.8913,0.8325 3.6878,3.5932 6.8291,7.12 3.7161,4.1706 6.398,6.4125 7.6786,6.4125 1.0799,0 4.0062,-1.142 6.7246,-3.207 2.5116,-1.9106 4.9109,-3.666 5.1289,-3.666 0.2079,0 0.5709,8.2722 0.7504,17.8196 0.2078,11.3998 0.6882,17.7186 1.3756,18.4072 1.1245,1.1225 38.9778,1.348 47.271,0.2816 l 4.3522,-0.5597 v 7.4461 7.4471 l -13.053,0.052 c -7.1799,0.028 -20.8218,0.1328 -30.3175,0.2289 -9.4938,0.096 -17.569,-0.028 -17.9431,-0.2806 -0.3742,-0.2519 -2.0281,-6.435 -3.6737,-13.7403 -1.6487,-7.3051 -4.386,-17.1985 -6.0864,-21.9847 -1.6822,-4.67 -7.1537,-19.1602 -13.9309,-18.4484 0.8568,-0.775 3.8225,-2.5582 4.8942,-3.328 z m -74.3913,0.7074 c -0.6732,0 -1.2211,0.824 -1.2211,1.8315 0,2.083 2.2959,2.4974 3.0432,0.5488 0.577,-1.4982 -0.1034,-2.3803 -1.8221,-2.3803 z m 11.1445,0.8682 c -0.5039,-0.026 -1.0575,0.638 -1.2309,1.4785 -0.2079,0.955 0.1547,1.3745 0.9131,1.1177 1.4287,-0.4755 1.6786,-2.5245 0.3178,-2.5962 z m -19.6287,3.7114 c -1.8302,0 -2.565,1.7761 -1.2661,3.0727 0.9815,0.9816 2.5441,0.1403 2.8686,-1.5446 0.2078,-1.0296 -0.3198,-1.5281 -1.6025,-1.5281 z m 23.2921,3.6628 v 0 c -1.6203,0 -2.3659,2.3046 -1.14,3.5305 0.7037,0.7047 1.353,0.7189 2.1632,0.044 1.3688,-1.1342 0.6701,-3.576 -1.0232,-3.576 z m -7.7949,0.2419 c -0.4969,0.048 -0.9059,0.5394 -0.9059,1.5162 0,1.1251 0.5891,1.9073 1.4408,1.9073 0.8517,0 1.321,-0.6225 1.1446,-1.5265 -0.2333,-1.1489 -0.8697,-1.8036 -1.4619,-1.8908 -0.074,-0.011 -0.1466,-0.013 -0.2176,-0.01 z m 61.4221,0.2423 c 0.7422,-0.047 1.4074,0.446 2.3311,1.4144 3.0591,3.2032 4.402,5.5003 6.8193,14.4756 2.8329,10.5276 7.1663,31.5669 6.6755,32.4063 -0.2078,0.3778 -3.5727,0.7053 -7.446,0.7271 -3.8744,0.026 -11.1689,0.4135 -16.2063,0.8687 -5.0374,0.4552 -10.7723,1.12 -12.7486,1.4784 -3.3136,0.6011 -3.5238,0.5175 -2.7481,-1.096 0.4624,-0.9616 0.855,-5.6948 0.8702,-10.5187 0.03,-8.6881 0.081,-8.836 4.0354,-15.5733 5.7096,-9.6959 12.4069,-19.2858 15.611,-22.3562 1.2432,-1.1908 2.0663,-1.779 2.8065,-1.8263 z m -83.8548,1.3498 c -0.7554,0 -1.3726,0.6183 -1.3726,1.3741 0,0.7557 0.6172,1.3741 1.3726,1.3741 0.7564,0 1.3741,-0.6184 1.3741,-1.3741 0,-0.7558 -0.6177,-1.3741 -1.3741,-1.3741 z m 12.823,0 c -0.7554,0 -1.3741,0.6183 -1.3741,1.3741 0,0.7557 0.6187,1.3741 1.3741,1.3741 0.7584,0 1.3756,-0.6184 1.3756,-1.3741 0,-0.7558 -0.6172,-1.3741 -1.3756,-1.3741 z m 69.0821,2.9415 c -0.5587,0.026 -1.2857,4.6496 -1.9762,13.8957 l -0.7922,10.5885 c -0.081,2.122 -0.1814,2.1799 -3.5264,2.2464 -1.8069,0.037 -5.4347,0.5403 -8.1085,0.5473 -3.0074,0 -4.6462,0.3597 -4.2974,0.926 0.3194,0.5162 4.7435,0.8536 10.1317,0.9168 7.0339,0.083 9.4047,0.5573 9.496,-0.8522 l 0.051,-14.4921 c -0.03,-9.2037 -0.4077,-13.7955 -0.9664,-13.7764 z m -75.4936,2.5068 c -0.504,-0.026 -1.0566,0.6396 -1.233,1.48 -0.2079,0.9551 0.1552,1.3747 0.9167,1.1178 1.4277,-0.4754 1.677,-2.5262 0.3163,-2.5978 z m 10.1296,1.881 c -1.9265,0 -2.67,1.7107 -1.4025,3.2365 0.6053,0.7281 1.4643,1.0971 1.9115,0.8211 1.3263,-0.8206 0.9217,-4.0576 -0.509,-4.0576 z m 9.4258,0.2336 c -0.5638,0.08 -1.1998,0.5761 -1.4837,1.4252 -0.2069,0.5982 0.2914,1.0883 1.0883,1.0883 0.798,0 1.449,-0.6528 1.449,-1.4505 0,-0.8088 -0.4909,-1.1435 -1.0536,-1.063 z m -25.9669,4.208 c -0.4796,0 -1.0169,0.4432 -1.1994,0.9849 -0.1815,0.5416 0.3588,0.9834 1.1994,0.9834 0.8396,0 1.3793,-0.4418 1.1978,-0.9834 -0.1815,-0.5417 -0.7192,-0.9849 -1.1978,-0.9849 z m 8.245,1.0537 c -1.381,0 -1.8852,1.9336 -0.7891,3.0282 0.8537,0.8548 2.1626,-0.179 2.1626,-1.7079 0,-0.726 -0.6182,-1.3203 -1.3735,-1.3203 z m 22.8993,0.9146 c -1.4307,0 -1.8182,1.084 -0.7637,2.1379 1.0544,1.054 2.1373,0.6669 2.1373,-0.7633 0,-0.756 -0.6182,-1.3746 -1.3736,-1.3746 z m -12.3677,1.8335 c -0.504,0 -0.9141,0.6178 -0.9141,1.3736 0,0.7556 0.4101,1.3741 0.9141,1.3741 0.5039,0 0.9167,-0.6185 0.9167,-1.3741 0,-0.7558 -0.4128,-1.3736 -0.9167,-1.3736 z m 6.2854,1.0568 c -0.065,0 -0.1277,0.011 -0.186,0.034 v -0.01 c -0.3529,0.1143 -0.6026,0.5769 -0.6026,1.2066 0,0.8397 0.4441,1.3789 0.9845,1.1984 0.5425,-0.1818 0.9865,-0.7196 0.9865,-1.1984 0,-0.4786 -0.444,-1.0192 -0.9865,-1.1999 -0.065,-0.023 -0.1311,-0.034 -0.1959,-0.034 z m -14.0704,2.6076 c -1.378,0 -1.8822,1.9335 -0.7891,3.0282 0.8568,0.8548 2.1631,-0.1792 2.1631,-1.7094 0,-0.7261 -0.6176,-1.3188 -1.374,-1.3188 z m -8.2435,1.8314 c -1.4155,0 -1.8203,1.0803 -0.7901,2.112 0.732,0.7319 2.1627,-0.096 2.1627,-1.2505 0,-0.4739 -0.6172,-0.8615 -1.3726,-0.8615 z m 27.9053,0.2181 c -0.9683,0.039 -1.8098,0.8553 -1.3038,1.6774 0.291,0.4689 0.8933,0.8532 1.3374,0.8532 1.2827,0 1.9557,-1.648 0.9297,-2.281 -0.3042,-0.1896 -0.6408,-0.2623 -0.9633,-0.2491 z m -12.7367,1.6144 c -1.1549,0 -1.9832,1.4314 -1.2511,2.1631 1.0302,1.0316 2.111,0.6273 2.111,-0.7891 0,-0.7556 -0.3874,-1.374 -0.8599,-1.374 z m 19.9549,1.1513 c -0.5637,0.08 -1.1961,0.5757 -1.48,1.4247 -0.2069,0.5983 0.2908,1.0883 1.0877,1.0883 0.798,0 1.4521,-0.6528 1.4521,-1.4505 0,-0.8088 -0.494,-1.1431 -1.0598,-1.0625 z m -27.7968,2.513 c -0.7554,0 -1.373,0.6185 -1.373,1.3741 0,0.7556 0.6176,1.3741 1.373,1.3741 0.7565,0 1.3741,-0.6185 1.3741,-1.3741 0,-0.7556 -0.6176,-1.3741 -1.3741,-1.3741 z m 15.1701,0 c -1.156,0 -1.9842,1.43 -1.2521,2.1617 1.0312,1.0316 2.1141,0.6288 2.1141,-0.7876 0,-0.7556 -0.3895,-1.3741 -0.862,-1.3741 z m 6.6405,2.8717 c -0.1029,0 -0.1998,9e-4 -0.292,0.013 v 0.01 c -0.5557,0.096 -0.9064,0.5209 -0.9064,1.1607 0,0.8496 0.7814,1.4412 1.9079,1.4412 2.2307,0 1.9168,-2.1402 -0.3809,-2.5858 -0.1166,-0.023 -0.2257,-0.035 -0.3286,-0.039 z m -29.5977,0.7927 c -0.5029,0 -0.9136,0.6186 -0.9136,1.3746 0,0.7556 0.4107,1.3741 0.9136,1.3741 0.5039,0 0.9167,-0.6185 0.9167,-1.3741 0,-0.756 -0.4128,-1.3746 -0.9167,-1.3746 z m 46.7915,0.4899 c 0.6123,-0.1014 1.0532,0.2441 1.7001,0.8294 1.7531,1.5881 1.732,1.7002 -1.4123,7.6311 -5.1935,9.7851 -2.8562,14.0187 2.9264,5.3082 5.1591,-7.7721 5.824,-6.7594 2.9595,4.5191 -1.1782,4.6409 -7.267,10.6428 -12.3387,12.1625 -2.0563,0.6159 -5.5461,1.0777 -7.7525,1.0263 -11.9191,-0.2787 -30.0613,-8.0597 -25.5065,-10.9399 0.7341,-0.4653 2.3959,-0.8524 3.6887,-0.8599 7.9768,-0.047 21.2902,-6.5913 29.4617,-14.4812 3.7466,-3.6171 5.2505,-5.0269 6.2736,-5.1956 z m -31.3449,0.5684 c -0.065,0 -0.1278,0.011 -0.1866,0.033 v -0.01 c -0.3529,0.1142 -0.602,0.5749 -0.602,1.2046 0,0.8397 0.444,1.3788 0.9844,1.1984 0.5425,-0.1817 0.9866,-0.7199 0.9866,-1.1984 0,-0.4785 -0.4441,-1.0175 -0.9866,-1.1979 -0.065,-0.022 -0.1312,-0.033 -0.1958,-0.033 z m 7.0502,3.5213 c -1.529,0 -2.5621,1.3073 -1.7053,2.1621 1.0931,1.0949 3.0277,0.5917 3.0277,-0.788 0,-0.7556 -0.5944,-1.3741 -1.3224,-1.3741 z m -15.6264,0.9167 c -0.7554,0 -1.3726,0.4115 -1.3726,0.9152 0,0.5038 0.6172,0.9167 1.3726,0.9167 0.7564,0 1.374,-0.4129 1.374,-0.9167 0,-0.5037 -0.6176,-0.9152 -1.374,-0.9152 z m 7.2063,2.9709 c -1.1925,-0.1791 -2.4567,1.3132 -1.7581,2.4448 0.8984,1.453 3.2562,1.2187 3.2562,-0.3235 0,-0.726 -0.4493,-1.5977 -0.9938,-1.9363 -0.1562,-0.098 -0.333,-0.1585 -0.5043,-0.1845 z m -9.7876,3.6628 -0.017,5e-4 c -0.1815,0.031 -0.384,0.098 -0.5705,0.2129 -0.7686,0.4752 -0.7533,0.991 0.081,1.9751 0.7665,0.9236 1.4003,1.0381 2.0624,0.3757 1.0697,-1.0703 -0.208,-2.7735 -1.5555,-2.5642 z m 133.0917,7.3835 h 0.01 l 30.3046,0.073 -0.2599,10.1297 -0.2594,10.1296 -7.7163,0.5725 c -4.2455,0.3152 -28.7703,0.8387 -54.5027,1.1633 -47.5355,0.5997 -68.6231,1.4188 -97.9408,3.8044 -16.5661,1.3475 -24.4181,1.6491 -24.4181,0.9379 0,-0.2155 2.3705,-1.8415 5.2684,-3.6137 2.8949,-1.7716 8.3185,-5.4408 12.0499,-8.153 l 6.7857,-4.931 6.382,3.2768 c 5.7056,2.9284 7.2759,3.3103 14.7438,3.5838 10.9984,0.4025 17.1586,-1.7674 23.9531,-8.4398 2.6282,-2.5797 4.9336,-5.1793 5.1252,-5.7779 0.2606,-0.7878 6.1673,-1.1801 21.4153,-1.3741 l 20.4705,-0.262 c 1.2158,5.8114 0.985,7.3145 2.0831,12.7853 0.5506,3.7175 3.4536,3.654 13.2555,3.7625 12.7749,0.1402 15.9453,0.026 15.9453,-3.2794 0,-2.3842 -4.8032,-3.629 -14.6549,-3.7977 -11.9546,-0.2051 -7.6756,-1e-4 1.1064,-0.8681 8.646,-0.7149 12.6349,-1.8479 12.6349,-3.5895 0,-1.9228 -4.6146,-3.0933 -12.8246,-3.254 -6.9589,-0.1376 -8.7583,-0.4493 -8.9793,-1.5617 -0.2332,-1.223 3.3884,-1.3822 30.0272,-1.3178 z" fill="#00B894" transform="translate(77.649338,-120.2887) translate(-9671.6457,-2199.7718)"/>
</svg>