<?xml version="1.0" ?><svg height="264.99094mm" viewBox="0 0 203.9346 264.99094" width="203.9346mm" xmlns="http://www.w3.org/2000/svg">
    <path d="m 3916.5255,3137.2709 c -22.0741,0.1371 -52.2206,6.8542 -60.3906,11.3946 -9.0148,5.0102 -28.2662,16.5821 -31.2472,19.265 -2.9811,2.6829 -15.5158,8.9209 -16.8088,25.0181 -1.293,16.0973 24.5311,20.4614 25.3571,21.6896 0,0 3.4842,30.1578 6.2859,40.5014 2.8011,10.3436 0.2867,15.4828 28.2298,25.9881 27.9426,10.5052 58.0412,7.3376 74.5268,3.685 16.4859,-3.6525 32.8647,-15.7739 36.7435,-20.978 3.879,-5.2041 6.5364,-42.3763 8.4397,-47.7097 1.9037,-5.3331 6.6805,-5.3334 12.5709,-12.574 5.8901,-7.2404 6.4294,-18.3922 0.3953,-27.5399 -6.0338,-9.1477 -18.138,-13.1555 -23.4177,-17.4222 -5.2798,-4.2666 -31.9657,-19.6852 -54.1264,-21.1398 -2.0775,-0.1363 -4.2747,-0.1923 -6.5583,-0.1782 z m -88.4767,40.9385 c 0,0 6.0332,16.2912 3.5191,17.3902 -2.5141,1.0991 -8.1889,-1.4221 -9.4459,-6.9495 -1.2571,-5.5274 0.18,-8.986 5.9268,-10.4407 z m 157.0989,3.0061 c 4.0945,0.065 8.4407,6.1412 9.0511,10.9574 0.6107,4.8162 -9.5539,8.5985 -9.5539,8.5985 z m -86.5379,134.6934 -5.7898,-4.0881 c 0,0 -4.2087,7.4188 -5.2002,16.03 -0.9915,8.6111 3.9695,13.9155 18.6593,15.1877 9.1484,2.4972 22.5383,-7.4707 25.5385,-15.3448 3.0003,-7.8737 1.6452,-19.0346 -0.2852,-17.9663 -1.9305,1.068 -10.0908,6.1685 -10.355,2.0851 -4.7561,-22.227 -15.6498,-3.6023 -22.5676,4.0964 z" fill="#FFFFFF" paint-order="markers stroke fill" transform="translate(28.975775,284.77092) translate(-3834.5439,-3366.9416)"/>
    <path d="m 3930.4642,3082.1714 c -1.3363,0.038 -2.5877,1.6027 -1.7167,3.0122 0.4166,0.6741 1.2046,1.2258 1.7513,1.2258 1.741,0 2.5554,-2.4045 1.2547,-3.7052 -0.3887,-0.3887 -0.8439,-0.5456 -1.2893,-0.5328 z m -31.4063,7.8693 c -0.6125,-0.032 -1.6349,0.8135 -3.051,2.5672 -3.4704,4.2976 -5.3461,11.1003 -4.4209,16.0321 0.8924,4.7567 3.0457,4.3054 4.3129,-0.9038 0.5163,-2.1211 1.7465,-6.7761 2.7337,-10.3446 1.3287,-4.8021 1.4461,-7.297 0.4253,-7.3509 z m 25.1369,4.4581 c -1.3793,-0.2274 -6.0889,4.4497 -7.9649,8.0563 -2.6708,5.1344 -3.2121,17.3695 -1.0919,24.6631 2.3429,8.0594 2.3725,7.8707 -1.1679,7.4502 -2.5007,-0.2968 -3.5415,-1.5831 -6.2167,-7.6827 -2.7195,-6.2098 -3.1422,-8.4431 -2.7512,-14.6529 0.254,-4.0292 0.8569,-8.5941 1.34,-10.144 0.8029,-2.5767 0.7103,-2.6806 -1.0827,-1.2093 -5.9658,4.8948 -7.4659,15.5435 -3.7098,26.3333 1.4652,4.2095 2.3646,7.8215 1.9988,8.0259 -0.3655,0.2049 -4.4684,0.7308 -9.1178,1.1679 -23.2325,2.1841 -46.0849,10.6769 -57.9943,21.5526 -3.0707,2.8043 -8.7908,6.6293 -12.7114,8.5003 -11.5488,5.5117 -19.3329,17.2096 -18.0108,27.0666 1.3208,9.848 9.4748,18.8601 19.4877,21.5382 l 4.8752,1.3033 0.6004,6.2616 c 1.2263,12.782 4.2971,30.1453 6.5454,37.0107 3.0484,9.3084 9.1224,16.1522 18.1182,20.4147 9.0636,4.2944 23.9573,8.682 34.5814,10.1875 4.6494,0.6588 9.7212,1.3844 11.2711,1.6113 13.7782,2.0227 47.849,-3.9421 61.2283,-10.7187 6.8479,-3.4685 18.6057,-13.0977 20.5249,-16.8088 3.1653,-6.121 5.1381,-17.4992 5.8177,-33.554 0.6511,-15.3892 0.8031,-16.1996 3.2071,-17.1137 3.9193,-1.4899 10.733,-7.9233 14.243,-13.4478 4.1388,-6.5144 4.3882,-15.2328 0.6475,-22.6379 -3.1174,-6.1715 -14.3154,-15.4229 -19.9367,-16.4718 -2.5982,-0.4847 -5.8018,-2.5084 -9.0786,-5.7341 -8.9296,-8.7898 -34.7111,-19.4639 -47.0116,-19.4639 -3.6056,0 -4.0032,-0.4119 -7.3452,-7.6083 -4.6181,-9.9445 -4.9753,-19.613 -1.0227,-27.6733 1.4598,-2.9772 2.3404,-5.7263 1.957,-6.1097 -0.061,-0.061 -0.1375,-0.097 -0.2295,-0.1126 z m 18.1229,4.4865 c -0.6768,-0.028 -1.363,0.1874 -1.8996,0.724 -0.6607,0.6607 -0.8818,2.0332 -0.4914,3.0505 0.9023,2.3515 4.5139,1.7255 5.0136,-0.8692 0.3082,-1.6009 -1.1335,-2.8431 -2.6226,-2.9053 z m -14.2316,15.7753 c -0.5509,-0.01 -0.9685,0.6136 -0.9685,1.5177 0,1.033 0.5454,1.6981 1.2119,1.4744 0.6665,-0.222 1.2112,-0.8855 1.2112,-1.4744 0,-0.5891 -0.5447,-1.2512 -1.2112,-1.4748 -0.083,-0.028 -0.1648,-0.042 -0.2434,-0.043 z m -33.6399,8.2801 c -0.921,0 -1.8544,0.9339 -2.0748,2.0748 -0.2898,1.5062 0.169,1.9661 1.6754,1.6754 2.4666,-0.4751 2.8155,-3.7502 0.3994,-3.7502 z m 32.6714,18.4593 5.3542,0.7091 c 13.4878,1.7856 29.8971,8.5573 39.8793,16.4563 4.5382,3.5912 7.7416,9.3501 7.7416,13.9165 0,2.8611 -4.3493,11.8468 -5.7407,11.8788 -0.3681,0 -2.8013,-2.5201 -5.4075,-5.611 -3.7739,-4.4755 -5.9506,-5.9722 -10.6897,-7.3499 -4.0804,-1.186 -6.7313,-2.7853 -8.4336,-5.0876 -2.7797,-3.7599 -6.1972,-4.3049 -10.0542,-1.6035 -2.6972,1.8892 -3.2688,5.9838 -1.3384,9.5906 1.4486,2.7071 9.1142,3.0409 11.2319,0.4894 1.8399,-2.217 2.8684,-2.1398 8.6242,0.6465 4.2043,2.0353 11.6639,10.0233 11.6639,12.4902 0,0.4716 -2.1558,2.1114 -4.7904,3.6437 -5.1992,3.0241 -18.0862,6.5614 -30.9299,8.4899 v 0 c -15.7722,2.3684 -51.8384,0.6304 -65.3743,-3.1502 -9.2828,-2.5928 -13.9185,-5.332 -16.1866,-9.5638 -2.8056,-5.2347 -2.7649,-5.8891 0.572,-9.2263 3.9589,-3.9587 11.0942,-3.8957 13.7263,0.1214 1.7688,2.6918 1.7707,3.153 0.032,6.7986 -1.6043,3.3627 -1.636,3.999 -0.2299,4.5387 0.8997,0.346 2.2188,0.2679 2.9316,-0.1726 2.2253,-1.3752 4.213,-7.6871 3.6261,-11.515 -0.608,-3.9673 1.3262,-5.1457 2.48,-1.511 0.3757,1.184 1.4561,2.7942 2.4009,3.5786 1.4767,1.2256 1.6271,1.0418 1.0722,-1.3075 -0.7527,-3.1854 0.085,-4.6959 3.6463,-6.5717 5.1552,-2.7155 9.6849,1.6438 6.9733,6.7107 -1.7892,3.3429 -0.6137,3.9696 2.189,1.1669 1.4332,-1.4333 2.3481,-3.8015 2.3481,-6.0777 0,-2.0515 0.665,-4.6388 1.4775,-5.75 2.0377,-2.7867 10.7048,-3.6606 14.9608,-1.5084 3.7724,1.9074 25.2657,2.5392 25.2657,0.7426 0,-1.9764 -6.0953,-3.6413 -14.6529,-4.0014 -4.6494,-0.1958 -10.6138,-0.6741 -13.2545,-1.0635 -6.1642,-0.9093 -9.3906,-0.06 -12.8287,3.3781 -1.9637,1.964 -3.2408,2.4659 -4.4028,1.7307 -2.8972,-1.8326 -8.5642,-1.1445 -11.8484,1.4387 -4.0458,3.1825 -7.7699,3.6866 -10.9218,1.4789 -7.5751,-5.3057 -21.1341,1.9959 -21.1341,11.3812 0,2.086 -0.4124,3.7926 -0.9162,3.7926 -1.2375,0 -6.3958,-5.6104 -7.9633,-8.661 -2.2902,-4.458 -1.5576,-12.2343 1.495,-15.8616 6.1589,-7.3197 26.6074,-15.0938 46.8338,-17.8051 17.225,-2.3091 18.4305,-2.2347 17.5979,1.0827 -0.3744,1.4923 -0.9896,3.5164 -1.3663,4.4989 -0.4268,1.1118 0.064,2.0732 1.2996,2.5477 2.3739,0.9109 7.2657,-4.1848 7.2657,-7.5686 0,-1.7678 0.7906,-2.1911 4.0907,-2.1911 h 4.0907 l -0.7653,6.7624 c -0.6515,5.7591 -0.4985,6.7629 1.0325,6.7629 3.3398,0 7.3313,-5.2261 7.3313,-9.5984 z m -33.3638,8.0745 c -0.8353,0.052 -1.8,0.5553 -2.7042,1.6449 -1.1194,1.3488 -1.1193,2.0325 0,3.3811 1.8388,2.2164 3.0734,2.1352 4.3165,-0.2821 1.4369,-2.7938 0.2254,-4.8589 -1.6123,-4.7439 z m -22.3092,4.4623 c -5.4459,0 -8.2639,7.254 -4.4535,11.4644 3.8663,4.2724 11.6597,0.7958 11.6597,-5.2013 0,-3.0308 -3.7192,-6.2631 -7.2062,-6.2631 z m -0.9395,3.7754 c 0.685,-0.013 1.4729,0.3392 2.2407,1.1069 1.455,1.456 1.5108,2.0754 0.3162,3.5151 v 0 c -2.3218,2.7978 -4.5553,1.9368 -4.5553,-1.756 0,-1.8107 0.8556,-2.8448 1.9973,-2.866 z m 73.6456,9.0119 c 0.6199,0.066 1.173,0.4278 1.85,1.1048 0.942,0.9422 1.4065,2.5133 1.031,3.4913 -0.677,1.7639 -5.3215,2.4691 -6.764,1.0268 -1.4595,-1.4594 -0.7229,-3.6939 1.6341,-4.9553 0.9427,-0.5045 1.629,-0.7337 2.2489,-0.6676 z m 45.9962,1.8655 c 1.3952,0 8.835,8.4066 10.6737,12.0608 0.9981,1.9838 1.8149,5.212 1.8149,7.1737 0,5.3341 -5.2695,13.9922 -12.0308,19.7688 -3.302,2.8209 -6.0037,5.772 -6.0037,6.5577 0,0.7859 -0.9273,2.2685 -2.0609,3.2944 -3.5912,3.25 -5.8286,2.2216 -5.8286,-2.6789 0,-4.2529 3.5301,-8.2768 9.8377,-11.2143 2.9582,-1.3777 6.2662,-3.2929 7.3509,-4.2555 2.7033,-2.3989 2.4551,-7.6437 -0.6795,-14.3749 -2.5595,-5.4967 -4.5987,-16.3318 -3.0737,-16.3318 z m -77.2671,3.3807 c -4.3945,0 -7.8302,4.0586 -6.6317,7.8341 0.9697,3.0567 2.5886,2.9424 3.0391,-0.2139 0.6843,-4.7962 7.6859,-3.3116 7.6864,1.6293 3e-4,3.3477 2.7614,1.7627 3.1837,-1.8283 0.5006,-4.2513 -2.6084,-7.4212 -7.2775,-7.4212 z m -88.9305,0.081 c 1.0917,-0.091 1.7265,0.618 1.7265,2.1745 0,1.24 -0.5303,2.2542 -1.1783,2.2542 -2.7495,0 -6.7117,5.5938 -6.7117,9.4764 0,8.1722 4.7787,13.0659 12.7589,13.0659 2.8142,0 5.4138,1.2424 9.6366,4.6048 5.7657,4.5906 7.078,7.57 4.3367,9.8449 -1.8285,1.5179 -7.5706,3.7317 -7.5706,2.9192 0,-0.3355 0.5594,-1.6557 1.2434,-2.9337 1.5688,-2.9316 -0.194,-4.2464 -5.7521,-4.2844 -5.0599,-0.036 -14.9364,-4.6228 -17.3499,-8.0574 -5.4389,-7.7387 -4.3711,-17.3417 2.7621,-24.8404 2.5357,-2.6655 4.6947,-4.1065 6.0984,-4.224 z m 31.1081,6.6828 c -1.3697,0 -2.6804,4.1582 -1.773,5.626 1.3786,2.2307 2.8241,1.082 2.8241,-2.2443 0,-1.8598 -0.4731,-3.3817 -1.0511,-3.3817 z m 85.1912,1.1265 c -3.7446,0 -7.4951,3.1343 -7.4951,6.2632 0,3.3401 1.2235,3.536 3.1197,0.4997 1.7365,-2.78 4.6013,-2.9256 5.5438,-0.2811 0.3869,1.0846 1.1993,2.6123 1.8051,3.3952 1.2688,1.6378 4.1842,-0.1293 4.1842,-2.5368 0,-2.5778 -4.6439,-7.3402 -7.1577,-7.3402 z m -114.0085,0.5313 c 0.716,-0.032 1.2748,0.8977 2.2536,3.2401 0.9298,2.2257 1.6908,5.0778 1.6908,6.3376 0,1.5253 -0.7396,2.2903 -2.2148,2.2903 -4.1257,0 -6.2661,-8.4424 -2.8577,-11.2712 0.4448,-0.3691 0.8026,-0.5824 1.1281,-0.5968 z m 80.8948,6.4595 c -2.0502,0.041 -4.0146,0.4668 -5.3361,1.3328 -3.3873,2.2196 -4.6473,6.3702 -2.9156,9.6061 1.5257,2.8503 3.669,3.166 2.6277,0.387 -0.6326,-1.688 -0.4793,-1.7615 1.062,-0.509 2.356,1.9144 3.7041,-0.1646 1.5219,-2.3471 -1.9988,-1.9988 -0.2745,-4.1884 3.2985,-4.1884 3.249,0 5.072,2.1061 5.072,5.8606 0,3.3915 0.9975,3.9617 3.1554,1.8035 1.7782,-1.778 1.7269,-6.7218 -0.096,-9.2139 -1.3176,-1.802 -4.9733,-2.8003 -8.3902,-2.7316 z m -23.3541,0.3716 c -2.5307,-0.085 -5.13,1.3174 -5.13,3.9491 0,1.2179 0.5073,2.2148 1.1271,2.2148 0.6198,0 1.1276,-0.5072 1.1276,-1.127 0,-1.8337 4.5189,-1.2842 5.257,0.6392 0.9959,2.5947 3.0158,0.089 2.1436,-2.6587 -0.6303,-1.9861 -2.557,-2.9515 -4.5253,-3.0174 z m 97.5346,0.3922 -0.7845,5.9144 c -0.6097,4.5957 -1.6154,6.7454 -4.5108,9.6407 -3.9548,3.9548 -6.5839,11.1342 -5.3506,14.611 1.3895,3.9174 5.2387,7.165 8.4925,7.165 3.7698,0 3.7182,-0.5729 1.4356,16.0233 -2.5097,18.2479 -3.2101,20.2619 -8.863,25.4723 -8.7272,8.0447 -22.2552,13.4183 -41.7344,16.5778 -25.1832,4.0846 -56.2816,-0.5875 -74.334,-11.1667 -8.2822,-4.8539 -10.382,-9.3234 -14.2307,-30.2923 -1.8477,-10.0677 -3.3598,-18.6853 -3.3605,-19.1502 -3e-4,-0.4649 1.1923,-0.8454 2.6505,-0.8454 4.043,0 10.1051,-4.6486 11.2448,-8.6228 1.4368,-5.0105 -0.901,-9.0549 -7.9789,-13.8053 -4.7745,-3.2046 -5.9174,-4.5792 -5.9174,-7.1154 0,-3.7134 1.1515,-3.9762 3.9362,-0.8991 1.117,1.2346 4.245,3.5418 6.9515,5.1278 29.866,17.5027 100.4423,15.8242 124.966,-2.9724 z m 8.2997,0.2522 c 0.2388,0.01 0.5472,0.8688 0.8837,2.6288 0.2888,1.5097 0.102,3.4115 -0.415,4.2266 -0.5987,0.9444 -0.9565,-0.051 -0.9565,-2.7446 -0.011,-2.7181 0.1808,-4.1203 0.4878,-4.1108 z m -39.1697,21.841 c -18.4564,3.8471 -48.5001,5.1618 -63.9046,2.7962 -4.0296,-0.6186 -9.8622,-1.3623 -12.962,-1.6531 -7.8761,-1.0068 -4.7722,0.362 0.8337,2.2522 3.7079,1.2502 10.3206,2.2294 14.3617,2.7956 4.0411,0.5501 15.7162,0.8278 25.9447,0.5818 18.7998,-0.4521 30.6224,-1.693 36.6632,-5.1804 3.4409,-2.061 3.414,-2.4993 -0.9367,-1.5923 z m -102.695,32.4823 c -3.3864,1.11 -1.376,15.2924 2.8034,19.7786 2.7094,2.9081 5.0983,2.6553 4.7667,-0.5049 -0.4767,-4.5471 -6.4103,-19.6539 -7.5701,-19.2737 z m 64.8679,54.005 c -1.196,0.012 -2.1064,0.7097 -3.5182,2.4608 -1.3023,1.6147 -4.2825,5.1693 -6.6233,7.8992 -4.1782,4.8723 -4.2995,4.9325 -6.6591,3.2763 -4.3038,-3.0207 -6.0795,-1.3511 -9.3766,8.8176 -2.36,7.2775 -2.871,10.7395 -2.0919,14.1712 1.9983,8.8019 12.7572,14.83 25.3354,14.195 10.7269,-0.5414 20.1761,-6.7429 24.3324,-15.969 1.9935,-4.4262 3.4276,-18.9072 2.3445,-23.6777 -0.9117,-4.0158 -4.1508,-5.4144 -6.1102,-2.6355 -0.8325,1.1807 -2.7967,2.7952 -4.3651,3.5874 -2.4275,1.2264 -2.9288,1.0997 -3.3724,-0.8542 -0.8613,-3.7938 -5.9349,-10.3423 -8.5752,-11.0675 -0.4912,-0.1351 -0.9217,-0.2076 -1.3203,-0.2036 z m 1.0723,8.6661 c 1.6082,-0.052 2.1752,2.9951 3.1357,10.1797 0.6381,4.7805 1.5383,8.2441 2.1079,8.1148 0.5467,-0.1242 2.5238,-2.1337 4.394,-4.4654 3.3835,-4.2182 6.1832,-5.8579 6.6311,-3.885 0.1292,0.5689 -0.1849,1.4469 -0.6976,1.9508 -0.5129,0.5043 -1.1039,3.785 -1.3131,7.291 -0.2172,3.6339 -1.237,7.3187 -2.3725,8.5705 -2.9121,3.2108 -5.7093,3.5692 -5.6167,0.7194 0.041,-1.2738 -1.7981,-5.2874 -4.0881,-8.9189 -4.0469,-6.4175 -6.3946,-7.5848 -6.2368,-3.1016 0.043,1.2092 -1.37,4.7255 -3.1383,7.8145 -1.7684,3.0891 -3.0444,6.3694 -2.8355,7.2895 0.4996,2.2006 -0.4451,2.3175 -5.3687,0.6625 -7.0876,-2.3824 -10.2258,-10.0031 -7.2481,-17.5989 1.6802,-4.2866 1.8458,-4.4078 3.4695,-2.5363 0.938,1.0808 2.028,3.3873 2.4226,5.1253 0.3946,1.7378 1.5504,3.8846 2.5683,4.7707 1.7512,1.5248 1.9326,1.4667 3.3575,-1.0671 0.8286,-1.4734 1.2745,-4.34 0.9875,-6.3691 -0.2842,-2.0297 -0.5319,-4.0022 -0.5498,-4.3837 -0.017,-0.3818 2.3086,-3.0985 5.1681,-6.0369 2.5347,-2.6043 4.1226,-4.0903 5.223,-4.1258 z m -1.9033,24.553 c 1.0833,0.02 1.74,4.1589 1.0237,6.7655 -0.3605,1.3114 -1.018,2.425 -1.4609,2.4763 -2.0724,0.2356 -3.8329,-0.5168 -4.115,-1.759 -0.3197,-1.4083 3.1077,-7.1675 4.4463,-7.4714 0.036,-0.01 0.071,-0.012 0.1059,-0.011 z" fill="#00B894" transform="translate(28.975775,284.77092) translate(-3834.5439,-3366.9416)"/>
</svg>