<?xml version="1.0" ?><svg height="203.61205mm" viewBox="0 0 182.51561 203.61205" width="182.51561mm" xmlns="http://www.w3.org/2000/svg">
    <path d="m 6502.3573,3231.89 c 2.0735,-7.1638 2.8762,-11.9801 8.8299,-16.134 5.9534,-4.154 28.2289,-23.2079 34.6173,-25.8869 6.3884,-2.6789 30.0352,-6.3211 36.1894,-5.96 6.1542,0.3612 13.8137,1.0235 13.8137,1.0235 0,0 11.4387,-25.6458 13.5458,-29.7998 2.1072,-4.154 10.4688,-13.997 10.4688,-13.997 0,0 -2.8093,-2.6188 1.0036,-8.5788 3.8129,-5.96 8.2947,-7.1639 14.1814,-5.3277 5.8864,1.836 10.8032,9.2107 7.9602,12.9432 -2.8429,3.7327 -8.161,8.94 -8.161,8.94 0,0 0.4013,14.8399 -4.1807,24.3819 -4.5823,9.5419 -5.084,13.9065 -5.084,13.9065 0,0 19.9342,8.1272 25.0182,13.4249 5.084,5.2978 24.1152,14.2679 26.3226,19.9872 2.2074,5.7192 4.2812,16.8563 -2.0402,25.5857 -6.3214,8.7291 -23.0116,11.3178 -23.0116,11.3178 l -10.1677,30.1612 c 0,0 5.1507,4.5453 5.3182,9.6925 0.1672,5.1472 -2.7763,13.395 -20.0682,20.2581 -17.2921,6.863 -46.3573,5.8094 -55.4881,4.6955 -9.131,-1.1136 -28.5303,-10.2642 -29.0319,-16.9166 -0.5017,-6.6522 3.2109,-13.9367 3.2109,-13.9367 0,0 -14.0478,-20.5288 -16.4893,-25.4654 -2.4416,-4.9366 0.3344,-12.0403 -5.5856,-14.3883 -5.9201,-2.3479 -21.9745,-0.2709 -21.1717,-19.9268 z" fill="#FFFFFF" paint-order="markers stroke fill" transform="translate(-719.19988,86.704196) rotate(1.7995516,105950.96,-182378.19)"/>
    <path d="m 6576.0683,3327.8628 c -3.4742,-0.5109 -9.8144,-2.3148 -14.0894,-4.0091 -18.3374,-7.267 -25.5234,-15.8444 -21.4475,-25.5997 1.4215,-3.4021 1.4371,-4.1874 0.1055,-5.2935 -3.7855,-3.1417 -10.0966,-14.5594 -13.5846,-24.5761 l -3.7864,-10.8736 -4.8175,-1.239 c -7.4236,-1.9094 -13.9421,-5.6808 -16.839,-9.7423 -2.2349,-3.133 -2.6311,-5.0593 -2.6311,-12.788 0,-8.0013 0.3678,-9.6551 3.0468,-13.7031 1.7649,-2.6676 5.9775,-6.4255 10.0151,-8.9349 3.8327,-2.3819 10.3365,-7.685 14.453,-11.7845 13.1561,-13.1025 31.5361,-20.0241 53.4309,-20.1219 4.8452,-0.032 9.8055,0.4939 11.0228,1.1454 1.9355,1.0358 2.432,0.6464 3.9497,-3.0995 4.4545,-10.9956 11.2033,-23.2552 15.4702,-28.1024 4.5098,-5.1235 4.6763,-5.5814 4.3139,-11.8733 -0.3495,-6.0661 -0.1182,-6.8022 3.1622,-10.0832 3.4915,-3.4915 3.6598,-3.5321 12.55,-3.0173 10.6761,0.6179 14.2887,2.7058 16.7537,9.6837 2.1275,6.0214 0.7572,9.9969 -4.3948,12.7504 -3.8138,2.0384 -3.8825,2.2058 -3.9985,9.7074 -0.093,6.021 -0.9991,9.8055 -4.2909,17.917 -2.2953,5.6565 -4.1734,10.5397 -4.1734,10.8522 0,0.3131 2.9331,1.6653 6.5179,3.0056 3.5845,1.3406 10.0515,5.2593 14.3708,8.708 4.3191,3.4487 10.643,7.6862 14.0524,9.4167 8.3511,4.2385 14.3315,10.241 15.4479,15.5051 0.4926,2.3215 0.8393,8.1792 0.7709,13.0174 -0.1118,7.8777 -0.4789,9.2902 -3.5174,13.5255 -4.3551,6.0705 -9.1639,9.3256 -17.6051,11.9168 l -6.7687,2.078 -1.9413,7.0917 c -1.0678,3.9004 -3.0745,9.5109 -4.4593,12.4676 l -2.518,5.3759 2.4056,3.0579 c 2.8231,3.589 3.1915,10.3851 0.8093,14.9268 -1.5825,3.0181 -9.7295,10.4097 -15.2639,13.8495 -12.0877,7.5124 -37.9964,11.5659 -56.5208,8.8428 z m 36.8258,-9.4601 c 21.335,-5.0318 33.3783,-14.7543 30.298,-24.4594 -0.7773,-2.4497 -0.8336,-2.4359 -3.7471,0.9019 -4.5957,5.2654 -10.4777,9.0866 -17.7295,11.5184 -21.4542,7.1939 -51.9375,5.5337 -70.4268,-3.8357 l -5.5357,-2.8049 v 3.2484 c 0,3.8356 3.4372,8.5761 7.8869,10.8771 1.7487,0.9042 6.6492,2.6334 10.8899,3.8424 9.8017,2.7943 37.7881,3.2062 48.3643,0.7118 z m 1.4371,-17.9937 c 7.9339,-2.9765 12.9449,-5.867 16.0882,-9.2802 4.2494,-4.6146 10.7416,-16.8534 13.9603,-26.3174 1.5285,-4.4941 3.3155,-8.817 3.9711,-9.6071 0.6553,-0.7898 4.758,-2.31 9.1167,-3.3781 12.4263,-3.0452 17.9058,-9.1815 17.9058,-20.0522 0,-10.0972 -2.6142,-13.453 -15.0703,-19.3455 -3.6049,-1.7055 -9.5799,-5.8003 -13.2772,-9.0994 -6.6268,-5.9127 -14.6587,-10.6458 -18.0662,-10.6458 -1.0211,0 -3.2094,2.9774 -5.2811,7.1855 -3.463,7.0345 -3.4998,7.2761 -1.747,11.4711 0.985,2.3573 1.5806,5.7175 1.324,7.4674 -0.2588,1.7499 -0.2556,3.1816 0,3.1816 0.2588,0 2.442,-1.3949 4.8526,-3.0998 3.5567,-2.5154 4.3874,-3.7966 4.4069,-6.798 0.032,-4.8133 2.9688,-6.1041 5.8354,-2.5637 2.7503,3.3963 2.6857,9.6001 -0.1278,12.4145 -15.254,15.2537 -81.1423,16.6506 -96.6844,2.0496 -5.9584,-5.6005 0.042,-18.9097 8.5284,-18.9097 2.6733,0 2.6701,0 -0.8144,3.9842 -3.7695,4.2932 -4.4097,7.3818 -1.9524,9.4212 1.9582,1.6253 11.0109,4.2714 17.6154,5.1494 l 5.072,0.6741 4.7945,-10.14 c 3.6414,-7.7016 5.7986,-10.8228 8.9706,-12.9782 2.9749,-2.0214 4.5833,-4.2161 5.591,-7.63 0.7783,-2.6355 1.0329,-5.1743 0.5658,-5.6414 -1.2224,-1.2224 -25.5563,1.1598 -32.8837,3.2193 -10.5714,2.971 -23.7556,10.2007 -35.4401,19.433 -6.1635,4.8705 -12.1232,10.5647 -13.2437,12.6539 -2.2451,4.1861 -2.7221,13.4098 -0.8722,16.8662 1.5886,2.9681 8.4668,6.3082 15.0127,7.2897 3.4676,0.5202 5.6412,1.4713 6.0402,2.6436 3.0564,8.9825 10.057,25.2416 12.4357,28.8813 4.6075,7.0508 13.9101,16.3457 18.2863,18.2714 2.1892,0.9633 8.038,2.6886 12.9974,3.8343 11.3074,2.6123 34.3988,2.2803 42.0905,-0.6048 z m -40.8729,-41.355 c -1.9355,-1.5224 -2.9071,-3.2497 -2.688,-4.7788 0.5438,-3.7944 3.6529,-3.4286 8.3269,0.9793 3.4953,3.2966 4.005,4.2698 2.6752,5.1107 -2.5992,1.6442 -5.0478,1.2582 -8.3141,-1.3112 z m -13.9542,-1.2224 c -1.3307,-1.3308 -1.9276,-6.5374 -0.7493,-6.5374 1.9231,0 6.1594,3.9651 6.1594,5.7655 0,2.4176 -3.2944,2.8876 -5.4101,0.7719 z m 56.6406,-0.073 c -0.9444,-2.4615 -0.2428,-5.6159 1.3671,-6.152 2.1982,-0.732 3.0762,4.234 1.0985,6.2117 -1.6023,1.602 -1.8298,1.5966 -2.4656,-0.061 z m 8.8927,-1.4518 c -0.8607,-2.2429 2.1132,-7.6802 4.4679,-8.1684 2.3867,-0.4949 3.265,2.9353 1.6269,6.353 -1.687,3.5199 -5.0558,4.5235 -6.0948,1.8154 z m -75.1516,-1.2563 c -0.4131,-0.4131 -0.7515,-2.0135 -0.7515,-3.5561 0,-2.7333 0.057,-2.7528 2.2544,-0.7645 1.24,1.1221 2.2544,2.7221 2.2544,3.556 0,1.5761 -2.4477,2.0742 -3.7573,0.7646 z m 104.5528,-23.2904 c -0.9208,-2.3995 0.1214,-3.8174 4.3807,-5.9568 1.9754,-0.9924 4.4755,-2.8908 5.5561,-4.2187 1.6857,-2.0723 2.1224,-2.1748 3.0822,-0.7237 1.7627,2.6653 1.3768,4.227 -1.947,7.8748 -3.6679,4.0257 -10.0215,5.7612 -11.072,3.0244 z m -136.6129,-2.5097 c -1.6042,-1.1234 -2.5052,-2.9238 -2.5052,-5.0056 0,-4.0203 1.7502,-5.3047 3.295,-2.418 0.6349,1.186 2.5596,2.509 4.2772,2.94 4.1356,1.0381 5.9581,2.6602 5.2021,4.6299 -0.8262,2.1535 -7.114,2.0637 -10.2691,-0.1469 z m 93.1702,-4.5737 4.9414,-0.6179 -0.5891,-10.3333 c -0.6563,-11.512 0.57,-16.1374 9.3304,-35.1893 2.433,-5.2916 5.1976,-12.227 6.1437,-15.4124 2.1055,-7.0898 2.2684,-15.4582 0.3099,-15.9543 -0.7748,-0.1981 -3.1295,-0.9247 -5.2325,-1.618 -3.2643,-1.0764 -4.2749,-0.9393 -6.9121,0.9387 -3.8059,2.71 -5.7095,6.7172 -14.7159,30.976 -7.938,21.3823 -10.6624,26.5158 -15.6297,29.4501 -2.8014,1.6547 -11.3302,14.9891 -11.3302,17.7138 0,1.5969 21.0523,1.6259 33.6832,0.048 z m 25.773,-82.6515 c 3.4177,-2.8513 3.2554,-7.224 -0.3748,-10.0794 -4.2027,-3.3058 -6.7843,-3.8477 -10.3011,-2.1623 -5.174,2.4799 -4.8615,9.7342 0.5461,12.6682 4.134,2.2432 7.0782,2.1193 10.1298,-0.4265 z" fill="#00B894" transform="translate(-719.19988,86.704196) rotate(1.7995516,105950.96,-182378.19)"/>
</svg>