<?xml version="1.0" ?><svg height="174.50528mm" viewBox="0 0 235.66191 174.50528" width="235.66191mm" xmlns="http://www.w3.org/2000/svg">
    <path d="m 3301.5877,3337.7567 c 0,0 -34.7239,6.2902 -37.029,-11.5097 -2.305,-17.8001 14.0531,-16.3279 14.0531,-16.3279 0,0 -1.3383,-11.5766 3.4949,-18.0676 4.8328,-6.4911 24.3885,-18.4023 32.5675,-20.6775 8.1791,-2.2751 51.3797,-3.8812 51.3797,-3.8812 0,0 15.1686,-10.0377 31.8987,-8.7661 16.7299,1.2713 35.2444,13.6511 35.2444,13.6511 l 5.5769,6.3572 c 0,0 17.2503,-1.3385 22.8269,3.8812 5.5769,5.2194 7.733,29.1089 7.733,29.1089 0,0 23.9426,0.4016 24.24,12.3129 0.2974,11.9113 -16.284,21.4805 -27.9577,23.354 -11.6739,1.8738 -28.9986,-4.7511 -28.9986,-4.7511 0,0 -7.2869,15.9263 -21.5633,15.0563 -14.2761,-0.8696 -42.7542,-14.9894 -52.7923,-13.1156 -10.038,1.8738 -23.1246,15.1902 -34.7985,12.246 -11.6737,-2.9446 -25.8757,-18.8709 -25.8757,-18.8709 z" fill="#FFFFFF" paint-order="markers stroke fill" transform="translate(419.8648,-81.382947) translate(-3679.0342,-3105.4567)"/>
    <path d="m 3323.6894,3360.2169 c -11.7324,-2.0063 -23.3371,-10.4092 -25.3273,-18.3393 -0.6309,-2.5128 -1.2303,-2.9186 -3.2734,-2.2169 -1.3757,0.4724 -5.8115,1.0922 -9.8571,1.3771 -12.832,0.9033 -23.6156,-4.6488 -25.7803,-13.2736 -1.6593,-6.6109 4.187,-15.2017 12.7912,-18.7956 3.2997,-1.3785 4.4227,-2.5389 4.4227,-4.5702 0,-6.972 3.9744,-14.3886 12.054,-22.4926 l 8.1204,-8.1451 -2.4209,-6.0078 c -5.1893,-12.8788 -16.68,-50.9026 -17.366,-57.4677 -0.6098,-5.8326 -0.4299,-6.9212 1.144,-6.9212 1.0271,0 2.2818,0.6633 2.788,1.4744 1.7324,2.7752 12.3997,29.7694 17.0792,43.2199 2.5716,7.3919 5.6858,15.4206 6.9211,17.8415 l 2.2453,4.4017 8.0111,-2.2688 c 6.77,-1.9173 11.2442,-2.2232 28.8844,-1.9761 17.9134,0.2507 21.175,0.033 22.9988,-1.6305 3.6682,-3.3195 13.3689,-6.8383 22.2608,-8.0749 8.1177,-1.129 17.5888,-4e-4 25.4393,3.0316 1.4908,0.5757 2.4412,-0.5596 4.1279,-4.9316 2.3566,-6.1094 2.6863,-15.5687 1.6158,-46.3695 -0.3043,-8.7573 -0.1304,-17.1163 0.3851,-18.5757 1.6449,-4.6497 4.0674,-3.0604 5.393,3.5382 0.6843,3.4054 1.8451,9.1109 2.5799,12.6788 0.7346,3.5676 1.5944,14.9784 1.911,25.3574 0.4791,15.7245 0.2474,19.7555 -1.3941,24.1779 -1.0832,2.919 -2.2266,6.104 -2.5415,7.0776 -0.3628,1.122 2.0925,3.9965 6.7052,7.8509 6.7543,5.643 7.5313,5.9921 10.8019,4.852 2.5185,-0.8779 5.3265,-0.8254 9.8398,0.1839 11.0166,2.4656 15.8192,9.5081 15.8342,23.2194 0,7.3427 3.2292,12.2445 8.0532,12.2546 10.2904,0.033 16.7388,5.2054 16.695,13.421 -0.083,15.8128 -15.232,26.8862 -37.1255,27.1397 -8.806,0.1003 -11.5191,-0.331 -15.9221,-2.5292 -3.3737,-1.6856 -5.4645,-2.1811 -5.7387,-1.36 -1.15,3.4455 -7.8525,9.2945 -13.3709,11.6685 -8.8682,3.815 -19.4575,2.91 -32.5637,-2.7822 -22.5574,-9.7977 -35.6869,-10.2547 -43.738,-1.5225 -4.4432,4.8189 -13.6103,7.0355 -22.6828,5.4842 z m 98.3186,-7.6012 c 5.2896,-2.2099 11.7019,-9.4122 10.7013,-12.0196 -0.453,-1.1808 0.094,-2.5525 1.3945,-3.5047 1.8621,-1.3613 2.6415,-1.123 6.0178,1.8415 8.1227,7.1318 27.3964,7.4069 39.0833,0.5576 6.0656,-3.5545 8.5787,-7.098 9.4055,-13.2615 0.5195,-3.8745 0.1805,-4.9076 -2.1377,-6.532 -1.5154,-1.0612 -4.8928,-1.9374 -7.5052,-1.9471 -10.5255,-0.04 -14.99,-5.401 -16.0709,-19.3035 -0.476,-6.1228 -1.5151,-10.937 -2.7752,-12.8604 -2.7605,-4.2131 -11.4505,-6.9917 -18.7418,-5.9924 -5.1027,0.6994 -5.9696,0.4524 -9.3908,-2.6782 -2.0728,-1.897 -4.9529,-4.4352 -6.4009,-5.6401 l -2.6321,-2.1908 -2.9588,6.3555 c -3.3134,7.1177 -3.5903,10.5954 -1.6241,20.3863 1.1544,5.747 1.0865,7.0292 -0.452,8.5677 -4.9774,4.9774 -11.0658,-7.6469 -10.1036,-20.9493 0.3895,-5.3849 0.1805,-6.6126 -0.9678,-5.6601 -1.7171,1.4249 -3.9868,11.1711 -3.9868,17.1197 0,4.9329 -1.79,8.7101 -4.1279,8.7101 -0.9274,0 -2.2356,-1.0267 -2.907,-2.2814 -1.7501,-3.2697 -1.4115,-17.5333 0.5467,-23.0309 0.9153,-2.5699 1.5191,-4.8176 1.3419,-4.9947 -1.0852,-1.0853 -8.2641,8.4734 -9.9929,13.3053 -2.373,6.632 -5.3639,8.0923 -7.4042,3.6144 -0.9973,-2.1888 -0.9993,-3.9176 0,-6.762 1.6669,-4.7818 1.1437,-5.3291 -2.692,-2.8157 -2.8401,1.8609 -3.0888,1.8619 -3.7976,0 -3.0065,-7.8348 16.8339,-17.0682 32.7954,-15.2621 3.7729,0.4269 6.86,0.4797 6.86,0.117 0,-1.4055 -13.077,-4.3639 -19.2891,-4.3639 -11.8113,0 -24.2314,3.6778 -27.495,8.142 -1.1437,1.5647 -5.2285,2.0053 -24.1779,2.6081 -22.8255,0.7258 -30.4678,2.0454 -30.4678,5.2602 0,0.8943 1.2052,2.4162 2.6782,3.3814 2.3483,1.5385 3.475,1.5469 9.1404,0.067 3.5542,-0.9277 11.0039,-1.8969 16.5543,-2.154 5.5511,-0.2574 11.2216,-1.0718 12.6013,-1.8104 5.4739,-2.9293 9.1745,-1.7027 15.3942,5.1025 8.3825,9.1718 12.252,21.7951 7.8108,25.4814 -2.9169,2.4205 -5.4692,-0.034 -8.1972,-7.8703 -2.8959,-8.3223 -8.4387,-16.9796 -10.8712,-16.9796 -1.3122,0 -1.0204,0.9632 1.1611,3.833 4.406,5.7962 6.3912,10.2236 7.9285,17.6833 1.5275,7.4116 0.9722,10.902 -1.911,12.0082 -3.022,1.1598 -4.7146,-1.2363 -6.8332,-9.6736 -2.129,-8.4771 -4.8778,-13.7711 -9.0565,-17.4419 -2.573,-2.2604 -2.5877,-2.2594 -1.6021,0.077 0.5473,1.2971 2.3179,7.5262 3.9347,13.8419 3.3549,13.1028 2.6879,17.4126 -2.6934,17.4126 -3.6414,0 -4.5437,-1.7198 -7.1173,-13.5635 -1.128,-5.1894 -2.7856,-11.2162 -3.6839,-13.393 -1.5727,-3.8113 -1.8191,-3.9316 -6.6541,-3.2499 -18.7495,2.6441 -20.4448,2.3045 -26.6301,-5.3325 -1.5068,-1.8602 -3.5198,-3.382 -4.4736,-3.382 -4.9356,0 -20.834,20.1911 -18.6635,23.7032 0.6954,1.1253 7.5048,0.8114 18.043,-0.8315 2.1788,-0.3397 5.2358,-1.9929 6.7935,-3.6735 3.4234,-3.6943 4.7925,-2.8893 2.621,1.5408 -2.374,4.8444 -6.7198,7.4712 -14.4373,8.7272 -17.7131,2.8829 -27.8565,8.5272 -25.9756,14.4541 0.4641,1.4617 1.6954,3.2931 2.7361,4.0697 4.2971,3.2068 27.2497,6.0777 27.2497,3.4084 0,-2.271 4.9449,-6.32 8.8458,-7.2427 l 3.5381,-0.8372 -3.2432,3.468 c -4.3245,4.6236 -4.1563,8.7037 0.581,14.0993 8.9318,10.1728 24.7165,12.8925 37.2436,6.4167 15.0345,-7.772 22.6099,-7.7078 45.1499,0.3821 15.992,5.74 24.7396,6.7587 31.9984,3.7257 z m -17.9659,-27.1821 c -1.718,-2.0701 -9.6505,-2.368 -13.1522,-0.4941 -4.1088,2.1988 -3.8233,0.1538 0.3403,-2.4366 2.7408,-1.7053 5.6063,-2.392 9.2738,-2.2222 3.4251,0.1571 7.1893,-0.6526 10.6148,-2.2874 7.9829,-3.81 17.691,-2.9896 17.691,1.495 0,1.2334 -1.695,1.5874 -6.866,1.4326 -5.8503,-0.1738 -7.4959,0.2742 -11.1256,3.0383 -4.9761,3.7889 -4.8738,3.7665 -6.7761,1.4744 z m -76.7645,-7.3447 c -2.6715,-4.1125 -3.3134,-4.4495 -8.4724,-4.4495 -6.2922,0 -6.9041,-0.8459 -2.6348,-3.6431 6.0489,-3.9634 17.6727,2.0885 16.8693,8.7829 -0.5369,4.4719 -2.5659,4.2289 -5.7621,-0.6903 z m 114.424,-17.6914 c -2.2009,-3.4111 -3.7645,-4.5354 -6.7018,-4.8189 -2.1073,-0.2039 -3.8311,-0.8478 -3.8311,-1.4329 0,-1.8582 4.5639,-3.5883 7.5129,-2.8484 4.2048,1.0554 9.2715,6.8305 8.8028,10.0333 -0.6189,4.2285 -2.6663,3.8982 -5.7828,-0.9331 z" fill="#00B894" transform="translate(419.8648,-81.382947) translate(-3679.0342,-3105.4567)"/>
</svg>