<?xml version="1.0" ?><svg height="206.1292mm" viewBox="0 0 176.05632 206.1292" width="176.05632mm" xmlns="http://www.w3.org/2000/svg">
    <path d="m 6147.0409,3158.7645 c 2.7374,-6.4448 4.1794,-10.4259 9.3117,-13.2853 5.1327,-2.8593 14.078,-3.2115 17.6951,-3.1454 3.6171,0.066 11.2914,4.399 11.9269,7.0385 0.6355,2.6395 -7.2832,4.8831 -10.2894,6.9506 -3.0062,2.0677 -7.7478,8.9524 -7.7965,10.9318 -0.049,1.9796 10.7784,8.0285 13.8822,11.262 3.1038,3.2332 12.0735,13.5051 13.2223,21.5775 1.1488,8.0725 -1.6619,18.4105 -10.7294,22.0618 -9.0675,3.6512 -19.0635,6.4005 -29.1087,0.2857 -10.0451,-6.1147 -21.6543,-14.4071 -30.4773,-11.3937 -8.8231,3.0136 -10.1672,4.3992 -6.4524,7.8306 3.715,3.4314 71.6076,99.0486 75.1268,103.0518 3.5195,4.0031 4.3995,10.8436 -1.0752,13.1532 -5.4748,2.3095 -14.7376,3.1673 -19.2104,-3.7171 -4.4725,-6.8848 -42.111,-67.1746 -42.111,-67.1746 l -9.996,7.1925 c 0,0 -2.0286,8.9961 -6.0124,17.3326 -3.9838,8.3362 -17.6951,24.063 -30.3064,24.943 -12.6111,0.8798 -27.9109,-0.7699 -36.2453,-12.2296 -8.3341,-11.4599 -22.2652,-38.7783 -23.2675,-44.9151 -1.0019,-6.1367 2.371,-14.869 3.373,-19.994 1.0019,-5.125 3.4948,-23.3154 7.9676,-28.7264 4.4725,-5.4107 14.2976,-11.6557 18.2081,-12.4915 3.9106,-0.8358 17.0839,-2.8154 17.0839,-2.8154 0,0 -4.5387,-11.4395 -9.3533,-23.3392 -4.8149,-11.8996 -9.0675,-17.7503 -7.7967,-22.3694 1.271,-4.6191 4.8149,-10.2939 4.8149,-10.2939 l 42.2087,59.586 c 0,0 18.697,-3.2774 24.4649,-0.5059 5.7682,2.7715 14.4444,8.9302 24.465,7.2366 10.0208,-1.6938 11.3649,-3.4972 13.3202,-8.7981 1.9552,-5.3012 1.9063,-8.4686 0.6355,-9.7002 -1.2711,-1.2319 -18.7783,-8.3632 -17.4789,-25.5394 z" fill="#FFFFFF" paint-order="markers stroke fill" transform="translate(54.049314,-68.0879) translate(-6077.1512,-3065.6999)"/>
    <path d="m 6175.8244,3336.9532 c -6.715,-5.906 -17.3956,-21.7609 -34.7382,-51.5663 -5.4107,-9.2987 -9.9639,-17.0543 -10.1183,-17.2345 -0.1533,-0.179 -2.0592,0.7217 -4.233,2.0045 -3.8938,2.2972 -5.3485,5.5095 -5.3485,11.8094 0,5.4124 -6.7939,16.2001 -14.969,23.7691 -10.8365,10.0333 -14.4929,11.7749 -24.7176,11.7745 -8.6991,-3e-4 -23.4179,-2.3956 -28.251,-4.5976 -3.1704,-1.4444 -8.1374,-7.8671 -12.0458,-15.5754 -3.3238,-6.5558 -10.1873,-22.8702 -10.1873,-24.2156 0,-0.5844 -1.5752,-3.5174 -3.5008,-6.5179 -5.6248,-8.7658 -5.8268,-11.6624 -2.1151,-30.345 5.3337,-26.8499 7.1287,-30.2082 20.7545,-38.8319 5.5804,-3.5321 7.9562,-4.3219 14.3824,-4.7816 6.3398,-0.4537 7.4725,-0.8221 6.421,-2.0893 -0.7023,-0.846 -2.032,-1.5384 -2.9551,-1.5384 -1.301,0 -1.5151,-0.869 -0.9524,-3.8669 0.5802,-3.0937 0.2396,-4.32 -1.7046,-6.1312 -1.8371,-1.7113 -2.2451,-3.0008 -1.6725,-5.2824 0.5306,-2.1147 0.1629,-3.6739 -1.2225,-5.2066 -1.1243,-1.2422 -1.8716,-3.6142 -1.7288,-5.4864 0.163,-2.1203 -0.6112,-4.1609 -2.1624,-5.7124 -2.0956,-2.0956 -2.3403,-3.3302 -1.8556,-9.3662 0.6629,-8.2607 3.3723,-14.1773 6.4919,-14.1773 1.209,0 3.8522,1.818 5.8741,4.0395 9.7122,10.6733 35.8282,50.1813 35.8282,54.2009 0,1.4544 0.6688,1.6026 3.6631,0.8115 2.0148,-0.5322 7.2866,-0.9019 11.7155,-0.8217 6.6006,0.1214 9.648,0.8642 16.9068,4.1295 4.8701,2.1906 10.1815,4.3101 11.803,4.7098 4.6085,1.1362 11.766,-1.3374 15.0035,-5.1852 2.8081,-3.3368 3.9736,-8.9093 1.8639,-8.9093 -2.0598,0 -13.7983,-11.7174 -15.9357,-15.9073 -2.5762,-5.0494 -2.7561,-8.7365 -0.6694,-13.7159 4.0788,-9.733 12.7552,-15.5192 24.4042,-16.2748 6.8051,-0.4415 7.7275,-0.2077 12.9622,3.2765 4.1346,2.7525 5.7306,4.5749 5.9922,6.8434 0.1949,1.7004 -0.1501,3.0915 -0.7658,3.0915 -1.5633,0 -13.8194,8.2677 -16.2144,10.9385 -1.8857,2.1026 -1.8614,2.2969 0.5636,4.5065 1.394,1.2701 4.4497,3.197 6.7907,4.2823 8.3872,3.888 18.4068,18.4666 19.5966,28.513 1.1253,9.5016 -5.4207,19.9324 -15.8473,25.2515 -3.4023,1.7358 -6.466,2.2656 -12.458,2.1547 -7.3933,-0.1374 -8.9658,-0.6575 -22.599,-7.4783 -15.0124,-7.5108 -21.266,-8.9706 -26.4793,-6.1804 -1.9777,1.0585 -1.9253,1.3013 0.9195,4.25 3.2286,3.3465 32.8662,42.1998 45.7434,59.967 4.2819,5.9079 10.9356,14.5456 14.7859,19.195 10.9036,13.166 16.315,22.1677 16.315,27.1394 0,10.7637 -15.1955,17.4959 -23.3338,10.3378 z m 12.9388,-5.4178 c 1.378,-0.9652 2.5052,-2.7502 2.5052,-3.9672 0,-2.8107 -4.3024,-9.7269 -11.8662,-19.0752 -3.2602,-4.0293 -12.4756,-16.456 -20.4785,-27.6146 -8.0029,-11.1586 -18.6177,-25.8678 -23.5882,-32.6869 -4.9705,-6.8191 -11.2148,-16.0757 -13.8763,-20.5702 -2.6611,-4.4944 -5.1823,-8.1715 -5.6024,-8.1715 -1.4541,0 -9.8832,9.6042 -13.4408,15.315 -3.9408,6.3258 -4.4075,8.3546 -1.9215,8.3546 1.7474,0 4.5986,4.2708 3.5506,5.3184 -0.339,0.339 0.6828,1.6388 2.2707,2.8877 2.2359,1.7588 2.749,2.9615 2.2749,5.3318 -0.4933,2.4675 -0.077,3.3046 2.1467,4.3181 1.8653,0.8499 2.7589,2.1774 2.7589,4.0989 0,3.9513 3.7481,3.7592 10.5263,-0.5393 6.29,-3.989 10.3183,-4.5024 9.456,-1.2052 -0.3643,1.3934 0.4486,3.1161 2.2611,4.7903 3.8037,3.5132 9.964,11.974 16.6757,22.9025 6.8224,11.1088 23.5087,34.9685 27.3916,39.1677 3.2662,3.5324 5.3801,3.85 8.9562,1.3451 z m -93.3689,-27.2691 c 9.5806,-5.6188 13.6596,-9.9963 19.1525,-20.5542 2.5218,-4.8475 4.5852,-9.1167 4.5852,-9.487 0,-0.3699 -0.9387,-0.6732 -2.086,-0.6732 -1.1474,0 -3.6836,-0.5565 -5.6357,-1.2374 -2.6219,-0.9138 -3.5497,-1.9288 -3.5497,-3.8832 0,-1.7681 -1.0285,-3.1487 -3.0995,-4.1609 -2.34,-1.1435 -3.0273,-2.2176 -2.8046,-4.3829 0.2173,-2.1068 -0.4335,-3.2005 -2.4493,-4.1187 -1.5093,-0.6879 -2.9678,-2.4205 -3.2413,-3.8503 -0.432,-2.2611 -0.5166,-2.1873 -0.6502,0.5665 -0.099,2.032 -0.6074,2.8854 -1.4211,2.3825 -1.9167,-1.1847 -0.5323,-14.631 2.254,-21.8923 2.8701,-7.4785 9.4982,-16.4706 14.7498,-20.0097 2.1158,-1.426 6.6115,-3.396 9.9902,-4.3785 5.9616,-1.733 6.3811,-1.7036 14.1603,0.9886 4.4088,1.5259 13.0884,5.1302 19.2877,8.0096 7.9096,3.6736 12.7242,5.2366 16.1425,5.2404 12.4695,0 24.4895,-14.8932 18.3266,-22.7281 -1.8224,-2.317 -16.3971,-11.0803 -18.4282,-11.0803 -0.2939,0 -0.8521,1.9739 -1.238,4.3865 -1.2678,7.9297 -12.5379,14.8258 -21.3782,13.081 -1.963,-0.3876 -8.8946,-2.5423 -15.4038,-4.7884 -15.6304,-5.3941 -22.8051,-5.4564 -32.5122,-0.2811 -13.4577,7.1728 -16.408,10.6362 -31.2057,36.6337 -9.9145,17.4183 -17.2963,25.7998 -26.5337,30.1277 -6.153,2.8829 -7.1536,5.8348 -3.1928,9.4193 1.2991,1.1754 4.8705,7.2035 7.9368,13.3954 3.0659,6.192 6.6325,12.3845 7.9262,13.7613 2.5579,2.7228 5.6031,3.1924 22.9415,3.5391 9.8802,0.1981 10.3745,0.083 17.3767,-4.0238 z m -24.4473,-3.2826 c -0.7748,-0.3131 -1.4087,-1.2869 -1.4087,-2.1652 0,-1.8337 3.1465,-2.0861 5.6357,-0.4525 1.5026,0.9867 1.5026,1.2333 0,2.2199 -1.8464,1.2119 -2.1407,1.2397 -4.227,0.3978 z m 10.6375,-6.744 c -1.5487,-1.5486 -0.7454,-3.9401 1.1975,-3.566 1.085,0.2077 1.9726,1.0914 1.9726,1.9611 0,1.7796 -1.9886,2.7864 -3.1701,1.6049 z m 23.069,-8.9112 c 0.214,-1.1049 1.0719,-2.2362 1.9058,-2.5139 0.97,-0.323 1.3764,0.2173 1.1272,1.5039 -0.2141,1.1049 -1.0719,2.2359 -1.9058,2.5139 -0.9701,0.323 -1.3765,-0.2205 -1.1272,-1.5039 z m -47.8895,-1.2566 c -1.0771,-1.0771 -0.9266,-2.6299 0.2556,-2.6299 0.5537,0 1.2984,0.7608 1.6553,1.6905 0.6592,1.7183 -0.5415,2.3084 -1.9106,0.9394 z m 13.9015,-35.9743 c 0,-1.9902 2.4263,-1.6439 3.1228,0.4463 0.246,0.7361 -0.3566,1.3384 -1.3384,1.3384 -0.9815,0 -1.7844,-0.8032 -1.7844,-1.7847 z m 20.5695,-30.0568 c 0.2588,-0.7748 1.3129,-1.5726 2.3442,-1.7726 1.3077,-0.2524 1.6691,0.1725 1.1949,1.409 -0.7997,2.0838 -4.2292,2.4362 -3.5391,0.3636 z m 74.6123,0.1821 c -1.1617,-1.8793 1.4508,-4.0347 3.0055,-2.4797 1.3007,1.3007 0.4866,3.705 -1.254,3.705 -0.547,0 -1.3349,-0.5515 -1.7515,-1.2253 z m 4.0056,-9.4825 c 0,-0.9298 0.507,-1.6908 1.1272,-1.6908 0.6198,0 1.1272,0.761 1.1272,1.6908 0,0.9301 -0.5074,1.6908 -1.1272,1.6908 -0.6202,0 -1.1272,-0.7607 -1.1272,-1.6908 z m -127.7489,55.9863 c 6.9859,-5.5265 13.3309,-13.9242 20.1589,-26.681 2.9861,-5.5791 7.3665,-13.242 9.7336,-17.0288 2.3676,-3.7864 4.3047,-7.4246 4.3047,-8.085 0,-0.6604 -1.2426,-2.6774 -2.7615,-4.4819 -1.5856,-1.8851 -2.5458,-4.2002 -2.2553,-5.4405 0.2971,-1.2755 -0.6796,-3.4909 -2.3902,-5.4133 -2.7861,-3.1315 -3.0695,-3.2024 -7.5013,-1.8745 -11.8771,3.5586 -23.6699,11.232 -25.8713,16.8348 -0.6371,1.6208 -1.578,8.4205 -2.0911,15.1105 -0.5135,6.6901 -2.0682,15.9869 -3.4555,20.66 -2.7917,6.3534 -2.3723,8.8012 0.4742,14.6053 1.648,3.3602 3.7171,6.1096 4.5979,6.1096 0.8812,0 4.0567,-1.942 7.0569,-4.3152 z m 49.4135,-65.1975 c 2.4796,-1.6097 4.6749,-3.0676 4.8787,-3.2398 0.9455,-0.7981 -35.6892,-55.7125 -37.1797,-55.731 -0.4074,0 -0.9148,2.7797 -1.1272,6.1888 -0.3518,5.6478 -0.099,6.4504 2.8509,9.0358 2.6145,2.2921 3.1113,3.465 2.5838,6.1018 -0.4412,2.2065 -0.09,3.7328 1.0876,4.7092 1.1294,0.9371 1.5882,2.7512 1.3061,5.1663 -0.3358,2.8771 0.045,3.8736 1.672,4.3903 1.6812,0.5335 2.0397,1.5917 1.7764,5.2401 -0.278,3.8539 0.064,4.7171 2.1752,5.4983 2.2694,0.8397 3.0426,2.6711 2.6218,6.2124 -0.083,0.6975 1.1253,2.1043 2.6844,3.1257 2.9018,1.9014 3.7781,5.5983 1.6404,6.9195 -0.7541,0.4658 -0.4473,1.2843 0.8313,2.2195 1.7199,1.2576 2.4538,1.1499 4.8577,-0.7141 1.5576,-1.2077 4.8606,-3.5129 7.3406,-5.1228 z m 92.9542,-15.0649 c -1.9825,-2.5029 -5.4827,-5.5091 -7.778,-6.6801 -2.2956,-1.1713 -4.8359,-2.9273 -5.6452,-3.9024 -0.8093,-0.9751 -1.8902,-1.7732 -2.4021,-1.7732 -1.4863,0 1.14,6.3536 3.5149,8.5025 1.7157,1.5528 13.9127,8.1058 15.5386,8.3483 0.2077,0.032 -1.2457,-1.9918 -3.2282,-4.4951 z m -23.4473,-10.5113 c -0.7499,-9.4297 6.4738,-18.0512 17.5637,-20.9621 3.5528,-0.9327 4.7903,-1.8212 4.7903,-3.4395 0,-5.5542 -17.0065,-7.8332 -24.3921,-3.2688 -4.8487,2.9969 -9.647,11.111 -9.647,16.3134 0,4.2203 4.3982,11.7417 8.5776,14.6693 3.3312,2.333 3.5388,2.1116 3.1075,-3.3123 z m -9.2055,-13.1155 c 0,-1.4528 0.5707,-2.2519 1.4087,-1.9726 0.7751,0.2588 1.409,1.146 1.409,1.9726 0,0.8265 -0.6339,1.7141 -1.409,1.9723 -0.838,0.2811 -1.4087,-0.5198 -1.4087,-1.9723 z" fill="#00B894" transform="translate(54.049314,-68.0879) translate(-6077.1512,-3065.6999)"/>
</svg>