<?xml version="1.0" ?><svg height="237.83809mm" viewBox="0 0 194.81172 237.83809" width="194.81172mm" xmlns="http://www.w3.org/2000/svg">
    <path d="m 3589.4924,3328.4553 c 0.3718,-22.4174 7.9561,-31.5183 14.9456,-38.4776 6.9895,-6.9593 27.0652,-18.2015 37.4009,-22.6179 10.3354,-4.4167 48.4796,-9.5692 58.8894,-11.9782 10.41,-2.4091 44.2415,-2.6768 57.254,8.2976 13.0122,10.9744 14.7222,31.1166 13.2352,51.5932 -1.4872,20.4769 -8.551,56.4785 -55.0232,74.2114 -46.4723,17.7331 -83.7243,6.0227 -97.2569,-10.8405 -13.5329,-16.8632 -27.1399,-21.2797 -29.445,-50.188 z" fill="#FFFFFF" paint-order="markers stroke fill" transform="translate(176.68976,47.186002) rotate(4.1839641,45755.032,-49733.639)"/>
    <path d="m 3641.6333,3397.6356 c -18.132,-6.1515 -32.863,-17.5656 -44.2839,-34.2982 -6.0354,-8.8425 -15.1364,-30.5715 -15.1508,-36.1727 -0.032,-8.8278 5.6929,-22.2367 14.5357,-34.1001 4.5715,-6.1328 14.9329,-13.1922 19.2324,-13.1031 l 2.8532,0.061 -2.818,1.9033 c -15.4016,10.4043 -26.1896,30.5012 -23.4153,43.62 2.4934,11.7915 20.8599,20.859 42.2499,20.859 6.7428,0 9.3339,-0.3921 9.3081,-1.4087 -0.051,-1.9806 -2.266,-4.6238 -5.806,-6.9278 -2.5107,-1.6336 -3.4676,-1.7342 -5.6357,-0.5917 -3.2573,1.7161 -4.4401,3.4171 -3.7264,5.3593 0.3131,0.8541 -0.057,1.3033 -0.8569,1.0403 -2.2295,-0.7319 -2.3668,-6.4398 -0.2108,-8.8201 2.508,-2.7717 8.5524,-3.873 11.9276,-2.1736 1.4601,0.7349 3.7356,2.6158 5.0564,4.1797 2.2353,2.6465 2.6861,2.7497 6.5044,1.4895 5.4006,-1.7825 12.5935,-0.539 14.7581,2.5516 l 1.6726,2.3879 9.8742,-2.0004 c 11.5094,-2.3314 37.5996,-10.8806 45.8591,-15.0268 13.5676,-6.8111 34.7975,-25.9151 38.4117,-34.5656 3.1967,-7.6505 1.233,-15.0741 -5.9325,-22.4274 -10.3138,-10.5848 -37.2082,-13.6328 -66.6199,-7.5508 -10.3611,2.1429 -16.4249,1.9883 -15.6294,-0.3978 1.7256,-5.1772 18.3656,-9.7895 38.3258,-10.6234 24.1125,-1.0071 39.0652,2.5589 49.2944,11.7557 7.5805,6.8153 10.7614,13.4239 12.9813,26.9692 2.1052,12.8452 1.5707,26.1365 -1.7509,43.5369 -3.6723,19.2369 -13.1094,33.1924 -31.2801,46.2568 -18.3241,13.175 -35.9837,18.9123 -58.8574,22.1881 -15.3955,2.2048 -28.2058,0.3267 -40.8709,-3.9701 z m 56.0856,-6.622 c 12.9603,-3.303 25.1001,-8.9844 39.1716,-18.332 19.6854,-13.0769 27.833,-29.9693 30.8868,-64.0374 l 0.7074,-7.8901 -6.9964,7.5798 c -19.7785,21.4268 -46.3687,34.3573 -87.8311,42.7113 -15.1539,3.0532 -19.8675,3.5363 -33.4217,3.4254 -17.3515,-0.1406 -24.8416,-1.5684 -36.3405,-6.9201 l -7.0351,-3.2742 2.3822,4.7264 c 8.1601,16.1923 25.9851,33.7087 41.1125,40.4 13.6929,6.0571 37.3153,6.7204 57.3643,1.6109 z m -35.5372,-46.4578 c 1.1489,-1.146 -3.0266,-2.6275 -7.4505,-2.6442 -3.1196,0 -5.5475,0.7531 -7.3264,2.3072 l -2.6609,2.3243 8.4534,-0.7291 c 4.6494,-0.4006 8.6924,-0.9671 8.9844,-1.2582 z m 7.5271,-10.1969 c -0.4239,-0.4239 -4.1857,-0.847 -8.3594,-0.9403 -9.0707,-0.2012 -14.7738,-2.7595 -24.1288,-10.8196 l -6.3964,-5.5104 -2.209,2.8084 c -1.2151,1.5445 -2.5484,5.0702 -2.9628,7.8352 -0.5808,3.872 -1.1483,4.8752 -2.4707,4.3679 -4.9206,-1.8883 -3.9024,-12.8795 1.6167,-17.4503 l 3.1081,-2.5739 -3.0586,-5.6615 c -4.2017,-7.7777 -5.7628,-18.2199 -5.2963,-35.4222 l 0.3955,-14.5696 -4.3519,0.1853 c -3.1331,0.1342 -4.7114,-0.3905 -5.6357,-1.8729 -1.0851,-1.7397 -0.6761,-2.5717 2.6397,-5.3712 3.6481,-3.0803 3.8107,-3.4896 2.3221,-5.8312 -6.1152,-9.6208 -11.0151,-18.1832 -17.6393,-30.8239 -4.1865,-7.9892 -10.8519,-19.7753 -14.8115,-26.1915 -3.9599,-6.4162 -6.923,-12.3877 -6.5846,-13.2696 1.2684,-3.3052 4.1637,-3.009 8.1617,0.8349 5.051,4.8564 16.3118,21.6066 21.4606,31.9217 2.1847,4.3772 7.3418,13.6565 11.4599,20.62 5.505,9.3094 7.9351,12.4791 9.178,11.9718 3.8477,-1.5697 6.8737,-1.711 8.4601,-0.3943 2.1556,1.7889 2.1585,4.9606 0,6.7469 -2.2631,1.8781 -1.3426,2.9969 3.1585,3.8414 6.5978,1.2377 25.935,13.5692 33.4231,21.3139 11.5241,11.9197 20.2877,25.764 20.3149,32.0924 0,1.4505 0.871,2.8461 1.9835,3.2017 4.565,1.4592 6.8696,3.0902 8.0616,5.7063 1.8698,4.104 0.3163,5.4498 -2.8544,2.472 -3.7586,-3.5311 -9.9017,-3.2883 -13.7325,0.5425 -2.6065,2.6065 -2.7599,3.2458 -1.6474,6.8703 l 1.2266,3.9963 h -3.7014 c -4.4015,0 -6.6073,2.2777 -6.6073,6.8226 0,3.2021 -2.48,4.5989 -4.5283,2.5503 z m -20.2759,-18.6793 c -11.2237,-11.3423 -16.3552,-19.049 -20.4107,-30.6549 -1.4409,-4.1238 -2.8333,-7.7112 -3.0937,-7.9716 -0.2588,-0.262 -0.054,3.441 0.4585,8.2256 1.1924,11.1285 5.6724,20.8452 13.359,28.9724 5.2657,5.568 15.1581,11.8618 18.6435,11.8618 0.7528,0 -3.2777,-4.6951 -8.9566,-10.4333 z m 19.3286,5.9357 c -0.8112,-1.116 -5.6175,-7.3735 -10.68,-13.9054 -13.412,-17.3048 -18.0029,-24.4124 -24.8038,-38.4025 -5.4629,-11.2375 -6.0121,-11.996 -5.3872,-7.4408 1.0362,7.5511 4.8504,19.9337 8.5013,27.5982 4.7239,9.917 15.977,23.6527 24.5116,29.9197 7.2194,5.3015 10.8378,6.3287 7.8581,2.2308 z m -0.9134,-11.2861 c -6.1019,-12.1359 -12.2453,-22.1044 -21.5316,-34.9372 -15.6127,-21.5756 -18.4784,-23.038 -8.7716,-4.4765 4.8219,9.2208 32.5953,48.4348 34.3036,48.4348 0.294,0 -1.5058,-4.0595 -4.0004,-9.0211 z m 7.3102,-3.4292 c -3.6251,-10.2742 -14.3862,-26.9135 -24.5068,-37.8929 -7.553,-8.1939 -9.5045,-7.9907 -2.5045,0.262 7.1967,8.4837 17.5527,23.8495 23.9191,35.4912 2.3097,4.2235 4.3401,7.538 4.5124,7.3661 0.1725,-0.1725 -0.4672,-2.5231 -1.4202,-5.2248 z m 8.0249,-4.7941 c -0.9802,-5.2239 -10.0378,-17.8336 -18.8532,-26.2468 -9.3987,-8.97 -14.8606,-12.0206 -7.699,-4.3001 7.6278,8.2227 17.2793,21.5053 21.443,29.5104 3.9136,7.524 6.4217,8.0326 5.1092,1.0365 z m 40.569,3.2429 c -2.7592,-6.6038 -7.7399,-8.5808 -14.4801,-5.7478 -1.7112,0.7195 -1.9726,0.1502 -1.9726,-4.3104 0,-6.4169 -1.7007,-10.2675 -5.2491,-11.8842 -3.9768,-1.8119 -6.4651,-1.5505 -9.7362,1.0227 -4.2442,3.3385 -5.0015,0.6323 -0.9553,-3.4138 7.2639,-7.2639 19.3506,-2.1822 21.1197,8.8795 0.6949,4.3472 0.9886,4.6587 4.3938,4.6587 2.0068,0 4.9485,1.0224 6.537,2.2717 2.8653,2.254 2.8941,2.2544 3.5938,0.048 1.3719,-4.3226 7.1236,-7.9569 12.5928,-7.9569 6.415,0 12.0331,4.8315 11.4557,9.8515 -0.431,3.7484 -2.1176,3.827 -3.9739,0.1853 -3.1826,-6.2446 -8.941,-7.2335 -13.8041,-2.3707 -1.9467,1.9471 -3.4643,4.9728 -3.9573,7.8901 -0.9835,5.821 -3.3423,6.192 -5.5642,0.8748 z" fill="#00B894" transform="translate(176.68976,47.186002) rotate(4.1839641,45755.032,-49733.639)"/>
</svg>