<?xml version="1.0" ?><svg height="239.76236mm" viewBox="0 0 158.3204 239.76236" width="158.3204mm" xmlns="http://www.w3.org/2000/svg">
    <path d="m 6048.8489,3177.2224 c -7.2956,0.1453 -13.8256,6.0585 -13.8256,6.0585 0,0 -7.7384,1.2331 -16.0016,3.1921 -8.263,1.9587 -21.6452,8.7422 -25.1922,13.8208 -4.8696,10.9384 -1.9426,30.9593 1.8867,46.884 3.8293,15.925 17.7105,60.8826 17.7105,60.8826 0,0 -2.9425,13.6762 -5.4012,19.5166 -2.4588,5.8402 -6.86,33.3616 -7.908,54.1109 -1.048,20.7494 41.3606,30.2539 69.5353,27.2795 28.1749,-2.9747 39.3803,-17.6664 38.9774,-24.6672 -0.4032,-7.0012 -10.6464,-63.7543 -13.9516,-71.8075 -3.3051,-8.0531 -3.0231,-20.5316 -3.0231,-20.5316 0,0 10.1169,2.866 18.138,5.8767 8.0213,3.0109 17.8565,-1.2334 19.1869,-4.9698 1.33,-3.7362 10.6407,-24.5219 13.6638,-41.5349 3.0229,-17.013 -0.927,-25.9009 -8.2631,-30.8343 -7.3358,-4.9334 -26.6428,-1.4872 -26.6428,-1.4872 0,0 -1e-4,-10.701 -2.1363,-15.1629 -2.1363,-4.462 -7.2554,-10.7741 -15.2363,-14.1837 -7.9809,-3.41 -26.7643,-5.1149 -26.7643,-5.1149 0,0 -7.457,-7.4727 -14.7525,-7.3277 z m 57.3856,56.9335 c 0,0 14.5165,2.8432 16.7959,4.0669 2.2796,1.2237 -2.9993,26.5612 -2.9993,26.5612 0,0 -4.5188,16.4112 -11.2774,15.7272 -6.7585,-0.6837 -12.517,-4.6783 -12.517,-4.6783 z" fill="#FFFFFF" paint-order="markers stroke fill" transform="translate(-157.43306,-236.26718) translate(-5830.9309,-2938.0864)"/>
    <path d="m 6002.7132,3398.577 c -5.5602,-4.6997 -7.2686,-9.7574 -7.4553,-20.7623 -0.1893,-11.1531 0.756,-22.596 10.9827,-57.882 3.0789,-10.6233 2.9058,-13.7951 -0.2624,-23.0873 -5.4122,-15.8723 -13.2084,-47.8748 -15.8796,-65.184 -2.6424,-17.1204 -2.2732,-27.8299 1.1577,-33.5978 4.7341,-7.9591 18.1037,-14.3593 34.0779,-16.3141 4.4893,-0.5492 9.0534,-1.8351 10.6499,-3.0002 8.1473,-5.946 20.2099,-5.8465 26.4842,0.218 3.0412,2.94 4.8675,3.7884 8.0365,3.7346 5.3288,-0.09 16.6385,2.6578 22.4895,5.4651 9.5469,4.5807 13.923,10.3916 15.3954,20.4445 0.302,2.0622 -0.6617,4.8137 0.9065,6.1866 2.5581,2.2394 6.7991,0.088 10.1986,0.131 12.1525,0.1529 17.5375,2.325 22.4713,9.0629 6.1671,8.4209 6.2915,24.6333 0.356,46.3568 -3.9587,14.4871 -8.3325,23.7011 -13.4646,28.3638 -6.6181,6.0124 -13.1921,6.2592 -25.7538,0.9656 -3.6036,-1.5187 -6.8525,-2.4504 -7.2199,-2.0705 -1.7525,1.8134 -1.3264,11.165 2.0607,19.6456 8.0255,20.0946 13.8808,47.1331 13.4817,62.2545 -0.2055,7.7858 -0.6982,9.9712 -2.9505,13.0899 -6.52,9.027 -21.6438,17.6713 -37.01,19.979 -23.3614,3.5084 -49.9666,1.8786 -68.7525,-13.9997 z m 64.9602,6.1363 c 16.0561,-2.5115 31.1228,-10.7819 34.6682,-19.0298 3.8011,-8.8419 1.1464,-29.2105 -7.6311,-58.5529 -2.5835,-8.636 -4.1164,-16.1694 -4.7004,-16.7402 -0.6577,-0.6429 -2.0181,-0.1096 -3.5748,1.4047 -12.4086,12.0598 -49.3487,14.0087 -66.9614,3.5324 -2.1373,-1.2716 -4.0247,-2.1244 -4.1946,-1.896 -0.9926,1.3363 -10.4056,42.4457 -11.7686,52.6982 -2.1264,15.9987 -1.3502,19.7285 5.4125,26.0011 12.5447,11.6357 34.6031,16.3597 58.7502,12.5825 z m -22.1047,-32.5038 c 2.5645,-0.014 4.1851,-0.1022 4.5612,1.1987 0.4368,1.5106 0.9507,2.4259 2.1956,2.7292 3.2544,0.7922 2.6591,6.7648 -0.6224,9.1513 -6.9952,4.2846 -12.087,0.4728 -13.7157,-3.9618 -1.6286,-4.4345 0.4932,-9.0801 7.5813,-9.1174 z m 3.8035,6.1254 c 0.338,-2.6963 -0.091,-2.88 -4.0537,-1.7452 -2.7256,0.7802 -3.3589,3.3048 -1.0555,4.21 2.7029,1.0624 4.7933,0.057 5.1092,-2.4648 z m -5.1141,-14.427 c -12.3844,-0.5641 -21.7287,-2.3586 -23.7998,-4.5705 -1.5105,-1.613 -1.8646,-3.445 -1.5172,-7.8464 0.2501,-3.1578 0.9406,-6.2454 1.536,-6.8614 0.7044,-0.7288 5.6743,-0.5968 14.2365,0.3783 10.473,1.1924 15.4859,1.2186 24.5908,0.1278 6.2899,-0.7535 11.8407,-0.9702 12.335,-0.481 0.4939,0.4889 1.3058,4.0511 1.8039,7.9162 0.9702,5.5553 1.8639,6.607 -3.0852,8.7744 -4.4092,1.9309 -15.6779,3.0372 -26.1,2.5626 z m -13.0834,-7.9985 c 1.3765,-5.5087 0.9899,-6.9171 -2.5228,-7.6266 -5.0126,-1.0119 -5.1396,0.2949 -5.2715,4.672 -0.1247,4.1388 0.1403,5.6159 3.6266,5.5592 2.7103,-0.046 3.6791,-0.6496 4.1677,-2.6046 z m 11.8317,-0.363 c 0.8334,-4.1267 0.8412,-4.1163 -3.4764,-4.5418 -3.182,-0.3139 -3.4045,-0.076 -3.6659,3.8981 -0.2643,4.0221 -0.11,4.2291 3.0814,4.175 2.8339,-0.048 3.4694,-0.6006 4.0609,-3.5313 z m 12.9926,1.8326 c -0.013,-0.7747 0.2781,-2.555 0.6283,-3.9561 0.5843,-2.3395 0.2571,-2.5406 -4.0032,-2.4684 -4.5505,0.077 -4.6379,0.1518 -4.5721,4.0232 0.064,3.7564 0.2554,3.941 4.0112,3.8774 2.396,-0.041 3.9411,-0.6201 3.9358,-1.4761 z m 9.8576,0.5316 c 2.0093,-0.5755 2.5105,-1.5289 2.4571,-4.6764 -0.065,-3.8411 -0.1689,-3.9318 -3.6354,-3.177 -4.3894,0.9555 -4.1437,0.596 -3.3999,4.9778 0.6648,3.9172 0.7506,3.9714 4.5782,2.8756 z m 20.7846,-53.2375 c 0.6119,-0.7632 1.7497,-4.6267 2.5281,-8.5851 0.7783,-3.9587 3.3478,-15.3466 5.71,-25.3066 6.1096,-25.7641 8.4817,-39.1778 9.0842,-51.372 0.1753,-3.5479 0.5259,-10.6438 0.5259,-10.6438 0,0 -2.3047,1.7004 -3.457,2.5508 -8.8613,6.5395 -27.0878,10.7875 -47.7283,11.1238 -24.7633,0.3883 -43.2553,-2.5404 -54.9535,-8.7487 -2.7542,-1.4615 -5.2595,-2.3969 -5.5674,-2.0785 -0.3077,0.3184 0.6704,6.7771 2.174,14.3527 7.4836,37.7045 18.1813,75.1025 22.8606,79.9169 2.9427,3.028 11.7795,6.9665 18.5856,8.1177 10.9829,1.8577 38.5091,3.7726 50.2378,-9.3272 z m -38.2576,6.2982 c -2.1755,-0.9249 -5.0045,-1.3997 -6.2867,-1.0545 -3.7397,1.006 -10.801,-1.3644 -14.3853,-4.8293 -2.6815,-2.5918 -3.2593,-4.0072 -3.0334,-7.4308 0.226,-3.4403 0.8491,-4.4395 3.3352,-5.356 2.5797,-0.951 3.8162,-0.6035 7.9292,2.2297 2.6798,1.8463 6.0197,3.6931 7.4218,4.1047 2.3392,0.6863 2.5429,0.3913 2.4754,-3.5852 -0.1074,-6.3229 2.3796,-9.3856 7.694,-9.4758 3.467,-0.059 4.9446,0.6162 7.3204,3.3441 1.6813,1.9307 3.0002,4.818 3.0311,6.6357 l 0.055,3.218 6.7106,-2.5738 c 5.1642,-1.9804 7.1726,-2.2953 8.7136,-1.3654 5.1789,3.1255 1.747,10.1831 -6.8526,14.0912 -6.7558,3.0701 -19.2331,4.129 -24.1278,2.0474 z m 6.3972,-4.2818 c -0.727,-2.0942 -5.9458,-2.2392 -7.5723,-0.2103 -1.2452,1.5531 -0.8349,1.7621 3.319,1.6916 3.2872,-0.056 4.591,-0.5097 4.2533,-1.4813 z m 15.7632,-3.0924 c 4.5685,-2.1881 4.1255,-2.8542 -0.9742,-1.4645 -2.1254,0.5789 -5.2741,1.3945 -6.9973,1.812 -1.7234,0.4178 -2.8197,1.2484 -2.4363,1.8457 0.8038,1.2522 5.1093,0.3451 10.4078,-2.1932 z m -29.0501,1.0712 c -1.5614,-0.6604 -4.6311,-2.2005 -6.8216,-3.4224 -3.6457,-2.0337 -3.8374,-2.0468 -2.2577,-0.1534 1.8844,2.2576 7.5449,4.9356 10.2281,4.8388 0.9291,-0.048 0.4125,-0.6009 -1.1488,-1.2615 z m 15.4889,-10.354 c -2.621,-4.7037 -6.6465,-3.3447 -6.5913,2.2256 0.029,1.6801 0.8289,2.5766 2.5674,2.8334 3.427,0.5065 5.6019,-2.2275 4.0239,-5.059 z m -43.8184,-21.2016 c -2.3819,-5.364 -7.6283,-32.6129 -7.8074,-40.5494 -0.2081,-9.2563 2.4551,-7.7543 4.8525,2.7361 2.2117,9.6796 7.2095,35.6059 7.5048,38.9319 0.3554,3.9903 -2.6042,3.2629 -4.5499,-1.1186 z m 110.1899,19.6524 c 7.0632,-5.1278 16.5248,-36.2209 16.2341,-53.3492 -0.1125,-6.6284 -3.3259,-14.179 -6.7553,-15.8742 -3.6407,-1.7996 -17.1835,-3.5404 -21.1734,-2.7217 -3.8447,0.789 -3.9353,0.9343 -3.8466,6.1603 0.03,1.7841 0.091,5.3522 0.091,5.3522 l 6.2689,0.041 c 10.6504,0.07 14.0949,3.8424 14.2806,15.6479 0.127,7.4819 -3.234,23.6518 -6.2628,30.2127 -3.6091,7.8184 -10.172,10.2348 -19.366,7.1304 -3.8919,-1.3143 -4.2753,-1.2754 -3.9238,0.3966 0.5072,2.4123 14.1394,8.9294 18.5459,8.8659 1.8765,-0.032 4.535,-0.8645 5.9075,-1.8611 z m -9.2571,-18.0827 c 2.2924,-4.4366 5.3173,-20.1437 5.9247,-26.5681 0.5127,-6.5237 0.031,-8.1256 -5.8193,-9.9749 -3.117,-0.9853 -5.8967,-1.0352 -6.3244,-1.0779 -0.4275,-0.044 -1.1949,1.5465 -1.558,4.4976 -0.9168,7.4565 -4.5072,28.2606 -5.2098,30.1889 -0.7169,1.9671 4.6623,5.1016 8.9154,4.931 1.5578,-0.062 3.443,-0.7805 4.0714,-1.9966 z m -13.8108,-72.5835 c -1.0872,-3.2362 -11.1436,-8.3565 -22.2633,-11.7111 -5.8476,-1.7645 -10.7315,-3.0604 -10.8533,-2.88 -0.1217,0.1809 -0.6624,2.0591 -1.202,4.175 -1.5007,5.888 -5.5504,8.3684 -14.029,8.592 -9.2832,0.2437 -19.702,-3.9391 -20.9006,-8.3935 -0.8591,-3.1917 -1.5845,-3.1983 -14.5701,-0.1314 -10.685,2.523 -22.8789,9.9147 -21.0519,12.7615 1.143,1.781 13.968,7.0333 21.7634,8.9129 11.347,2.7357 22.2421,2.6648 41.4141,2.8191 3.8775,0.031 45.1554,-3.8369 41.6927,-14.1445 z m -38.9788,-9.3767 c 0.8331,-2.3075 -1.1125,-5.9749 -4.5747,-8.6217 -2.7609,-2.1105 -4.1443,-2.3662 -9.4236,-1.7417 -4.9535,0.5858 -6.663,1.3475 -8.5704,3.8183 -4.562,5.9114 -0.9409,8.1743 12.8783,8.0471 6.3609,-0.06 9.3355,-0.5194 9.6904,-1.502 z" fill="#00B894" transform="translate(-157.43306,-236.26718) translate(-5830.9309,-2938.0864)"/>
</svg>