<?xml version="1.0" ?><svg height="323.23605mm" viewBox="0 0 264.48492 323.23605" width="264.48492mm" xmlns="http://www.w3.org/2000/svg">
    <path d="m 7595.6132,976.6348 c 4.204,-53.1371 19.844,-153.4621 77.518,-210.4707 57.675,-57.0085 78.283,-82.152 201.654,-132.8124 123.371,-50.6605 221.432,-83.1478 285.469,-137.0446 64.037,-53.8967 73.907,-72.2021 66.439,-101.5777 -7.469,-29.3756 -49.238,-61.4895 -129.319,-60.7427 -80.08,0.7468 -358.126,19.3455 -355.221,-94.0492 2.904,-113.3948 138.648,-119.8393 212.228,-151.7044 73.58,-31.865 199.718,-67.2153 202.207,-139.7829 2.49,-72.5676 -0.691,-80.5339 -10.235,-104.5571 -9.543,-24.0233 115.626,-31.8651 128.489,-23.5254 12.863,8.3397 41.769,79.2891 33.194,129.2027 -8.575,49.9137 -25.864,82.152 -122.818,132.937 -96.954,50.7849 -159.885,71.8207 -160.3,107.2955 -0.414,35.4748 28.215,36.5951 109.126,36.844 80.91,0.2489 294.735,14.4388 359.049,76.1773 64.313,61.7385 123.9305,187.86088 25.776,268.2831 -98.255,80.50457 -192.8752,114.33206 -289.967,155.0347 -59.1538,24.79836 -148.6824,87.13097 -159.0554,164.55297 -10.373,77.4221 -8.5706,87.28323 -2.2106,122.30843 6.36,35.0252 -235.957,21.5822 -299.855,13.118 -63.899,-8.4642 -172.168,-49.4866 -172.168,-49.4866 z" fill="#FFFFFF" transform="translate(-12.868938,63.946889) matrix(0.26458333,0,0,0.26458333,-1995.0982,-14.78507)"/>
    <path d="m 8067.6364,1013.0034 c -26.6206,-40.62642 -22.7936,-109.51822 9.8746,-177.78692 16.3917,-34.2584 37.7709,-58.7267 68.8298,-78.7841 28.5223,-18.418 123.2759,-65.2414 183.8936,-90.8743 28.7881,-12.1729 73.6017,-33.0167 99.5875,-46.3199 39.1056,-20.0197 52.3583,-29.2765 76.903,-53.7197 45.7468,-45.5619 60.7861,-83.1544 54.4195,-136.0405 -14.4457,-119.9887 -153.4813,-183.388 -422.6761,-192.7376 -86.7039,-3.0114 -100.0777,-5.5964 -113.8944,-22.0155 -12.1484,-14.4389 -12.6149,-22.628 -2.4185,-42.61046 12.5323,-24.56599 39.3271,-44.98076 77.854,-59.31634 18.9873,-7.06429 57.5525,-24.55861 85.7057,-38.87618 74.6294,-37.95604 100.0659,-67.0075203 112.5243,-128.52113 6.9512,-34.31775 2.0907,-63.82931 -16.3887,-99.54201 -8.469,-16.36572 -14.6702,-30.48425 -13.7784,-31.37456 0.8888,-0.89031 5.2414,0.3201 9.6708,2.69012 22.6933,12.14627 43.8067,61.43063 43.8067,102.26696 0,28.37941 -11.6493,73.3935397 -24.8016,95.83697 -21.896,37.36161 -69.5149,67.63295 -169.8731,107.99061 -55.3231,22.24707 -67.5659,30.04988 -81.4093,51.87881 -13.9319,21.96651 -14.7971,35.14991 -2.4775,37.70031 4.8724,1.0087 54.9245,2.7149 111.228,3.7919 131.2369,2.5099 192.209,11.8199 274.7846,41.9554 108.3311,39.5365 165.3728,113.7766 159.3636,207.416 -2.6783,41.7335 -22.2887,79.6322 -61.6512,119.1483 -36.5041,36.6455 -72.8841,58.4169 -159.2218,95.2809 -112.7487,48.1413 -203.3445,94.5876 -227.4257,116.597 -45.1177,41.2341 -70.4716,117.0274 -62.5075,186.8553 4.0307,35.33422 0.6496,45.24742 -9.9219,29.11062 z m -249.0706,-28.97212 c -13.4683,-4.9931 1.6773,-69.5907 24.3469,-103.8465 11.1975,-16.922 18.3909,-21.5714 27.793,-17.9641 4.8015,1.8429 3.3279,7.1343 -8.0704,28.9661 -7.6717,14.6914 -17.4222,39.9564 -21.6715,56.1446 -7.9404,30.2652 -13.8108,39.8835 -22.398,36.6999 z m -226.9531,-7.3965 c -4.9196,-12.8228 -2.1173,-54.5512 5.7257,-85.2779 16.2854,-63.7749 44.2851,-110.6367 94.7447,-158.558 51.5611,-48.9663 89.2759,-70.6128 204.7944,-117.5442 162.349,-65.9557 235.2745,-104.6347 282.2497,-149.7028 25.218,-24.1948 32.6091,-37.2365 32.8985,-58.0484 0.2658,-19.3476 -9.7003,-31.0314 -36.1911,-42.4277 -54.0444,-23.2486 -115.4122,-29.6521 -229.9858,-23.9978 -94.6708,4.6721 -123.7158,2.0786 -160.2612,-14.3114 -24.5773,-11.0232 -46.8128,-32.0924 -54.4963,-51.6422 -7.3056,-18.5837 -3.3339,-51.4238 9.3549,-77.3564 8.0821,-16.52134 17.6821,-27.671 37.3013,-43.32388 35.7688,-28.54034 50.5571,-35.47234 159.9217,-74.97247 51.9716,-18.77087 109.3706,-41.29019 127.5576,-50.04296 39.0318,-18.78799 68.5021,-45.85098 74.8597,-68.74857 6.2277,-22.4328 5.1056,-98.66469 -1.7334,-117.64759 -6.9305,-19.23832 -6.9098,-17.71756 -0.2362,-17.71756 3.0533,0 9.6679,8.41584 14.6967,18.70207 7.5182,15.38032 9.4051,26.61739 10.6276,63.27385 2.0198,60.59349 -2.4125,75.23853 -31.4073,103.77296 -29.6386,29.17078 -63.296,45.46356 -185.4114,89.75393 -111.6354,40.48995 -127.1531,47.77216 -155.7522,73.09056 -48.9684,43.34746 -53.5395,99.19626 -9.9307,121.29416 36.5455,18.5193 46.674,19.606 174.6037,18.734 127.6934,-0.8706 153.127,1.2951 204.0237,17.3735 110.0172,34.7545 104.6163,112.982 -13.2262,191.5151 -35.5828,23.7135 -147.4515,77.4562 -238.8298,114.7348 -91.9749,37.5223 -119.7678,52.0368 -165.1986,86.2701 -70.386,53.0366 -112.7103,126.5828 -126.1461,219.2032 -2.3948,16.4927 -6.1067,32.201 -8.2564,34.908 -5.395,6.8038 -13.4329,6.1598 -16.2972,-1.3064 z m 315.2132,-193.2588 c -6.1864,-6.1857 -1.5444,-16.9043 13.9733,-32.2672 24.3203,-24.0793 62.1473,-41.5589 62.1473,-28.7172 0,2.6184 -69.2285,63.6093 -72.1991,63.6093 -0.7117,0 -2.4775,-1.1812 -3.9215,-2.6249 z m 160.4385,-116.0326 c -3.83,-6.1935 11.8944,-17.2548 37.7354,-26.5503 29.1986,-10.5018 37.4048,-11.5227 37.4048,-4.6533 0,6.0763 -54.4668,35.6811 -65.6436,35.6811 -3.703,0 -7.9759,-2.0147 -9.4966,-4.4775 z m 161.4719,-79.5043 c -3.7354,-9.7311 -0.313,-12.2925 37.7296,-28.2453 26.6088,-11.1586 36.885,-13.8508 40.2041,-10.5328 6.4344,6.4364 -4.3054,16.9403 -30.3768,29.7067 -28.8766,14.1392 -44.471,17.114 -47.5569,9.0714 z m 130.8206,-83.1967 c -1.255,-3.2668 3.892,-13.0478 11.9151,-22.6392 7.7662,-9.2878 16.8701,-22.6454 20.2305,-29.6831 7.5713,-15.8487 20.4018,-17.5832 20.4018,-2.7575 0,14.5122 -9.033,29.8459 -27.3146,46.3631 -17.5581,15.8616 -21.9137,17.3664 -25.2328,8.7167 z m 23.8243,-133.2957 c -7.8283,-9.5516 -24.5093,-22.6336 -38.0928,-29.8736 -24.4148,-13.0138 -28.5725,-20.9484 -12.231,-23.342 20.1094,-2.9453 56.9088,20.0645 65.6849,41.072 6.207,14.8564 7.1992,29.1368 2.0257,29.1368 -1.9046,0 -9.7299,-7.6469 -17.3868,-16.9932 z m -156.0298,-70.8325 c -19.6133,-6.8354 -20.2571,-14.5426 -1.2107,-14.5426 17.8593,0 39.6726,6.4947 48.0205,14.2975 4.9314,4.6093 2.9382,5.3566 -13.7813,5.1665 -10.7486,-0.1241 -25.6137,-2.337 -33.0285,-4.9214 z m -149.5008,-18.1428 c -3.2394,-2.052 -4.4235,-6.2714 -2.885,-10.285 2.3092,-6.0163 6.3636,-6.4784 34.9538,-3.9844 17.7884,1.5518 35.9194,4.8047 40.2897,7.2294 7.4769,4.1485 7.2495,4.5637 -3.8683,7.0583 -17.6733,3.9661 -62.2152,3.9543 -68.4902,-0.029 z m -113.5342,-11.9257 c -19.5572,-3.1714 -22.5987,-5.4514 -19.1792,-14.3689 2.1674,-5.6436 6.2779,-6.2277 28.0912,-3.9927 28.667,2.9367 45.1532,8.0866 45.1532,14.1041 0,2.2188 -6.0565,4.0346 -13.4594,4.0346 -7.4001,0 -15.8159,0.6579 -18.7009,1.462 -2.885,0.8044 -12.7419,0.248 -21.9049,-1.2391 z m -93.5812,-18.1348 c -23.6352,-12.1087 -28.2123,-29.6769 -11.7585,-45.1328 7.6333,-7.1727 10.9612,-8.2289 14.5668,-4.6237 3.6055,3.6052 3.5937,5.7517 -0.059,9.3974 -7.902,7.9035 -5.4009,15.9033 9.8569,31.5287 12.1513,12.4439 13.297,14.9265 6.8891,14.9064 -4.2285,0 -13.0046,-2.7477 -19.5011,-6.076 z m 41.9611,-86.73129 c 2.9264,-15.20019 56.4689,-39.49097 56.4689,-25.61871 0,6.4802 -30.2823,26.00997 -46.6504,30.08679 -9.532,2.37385 -11.0085,1.70236 -9.8185,-4.46808 z m 100.435,-47.59676 c -5.0377,-5.0371 -2.5218,-8.97247 12.0716,-18.88781 16.0432,-10.90221 37.7088,-13.80641 34.1683,-4.58058 -1.1428,2.97271 -10.6276,10.05974 -21.081,15.74914 -20.8683,11.35873 -21.3673,11.5111 -25.1589,7.71925 z m 86.1103,-48.32436 c -2.445,-3.95545 8.0143,-13.18689 24.2642,-21.41611 15.6771,-7.93777 24.8046,-8.14979 24.8046,-0.57582 0,9.28193 -44.5774,29.26085 -49.0688,21.99193 z m 76.6285,-56.55328 c 0,-7.6164803 26.1954,-31.61168 31.1593,-28.54329 6.7504,4.17219 5.1499,8.5738197 -7.8371,21.5622797 -12.612,12.6110603 -23.3222,15.8170603 -23.3222,6.9810103 z m 49.0599,-65.99232 c -3.0917,-5.00167 1.1517,-29.93855 6.9305,-40.73829 4.0101,-7.49158 4.2345,-7.49778 9.5232,-0.26281 3.5613,4.86967 4.5564,12.19648 2.9057,21.38008 -3.6882,20.5134 -12.987,29.93678 -19.3594,19.62191 z m -4.766,-90.12955 c -10.79,-18.89283 -11.0912,-23.79469 -1.4647,-23.79469 10.167,0 16.9026,9.21107 17.6054,24.07936 0.8475,17.83538 -5.8586,17.71697 -16.1407,-0.28349 z" fill="#00B894" transform="translate(-12.868938,63.946889) matrix(0.26458333,0,0,0.26458333,-1995.0982,-14.78507)"/>
</svg>