<?xml version="1.0" ?><svg height="318.38126mm" viewBox="0 0 420.85895 318.38126" width="420.85895mm" xmlns="http://www.w3.org/2000/svg">
    <path d="m 4957.8811,1963.4554 c -2.7246,-0.015 -5.5592,0.4791 -8.3023,1.5917 -9.7534,3.9557 -10.1385,7.2177 -13.1542,16.6594 -0.8022,3.1762 1.0266,20.3567 8.2455,25.5829 7.2189,5.2262 19.892,1.5306 27.6562,-3.5512 7.764,-5.0819 3.9461,-25.3231 0.9301,-32.0502 -2.1675,-4.8359 -8.4125,-8.1947 -15.3753,-8.2326 z m 55.1259,56.4121 c -1.0364,-8.2659 -14.1971,-14.3188 -20.9641,-14.4829 -5.9865,0.2046 -18.339,4.0237 -24.4771,9.2522 -9.9525,6.6607 2.0965,31.4405 2.0965,31.4405 0,0 11.9481,19.3227 24.5779,24.2558 12.6297,4.933 26.3968,3.4324 33.8485,-1.0914 7.4515,-4.524 -4.8751,-25.1199 -8.2599,-27.8479 -1.7793,-1.4341 -3.8401,-8.6535 -5.3992,-15.1861 2.019,6.1607 5.629,12.7663 8.138,16.571 l 11.2717,8.2399 c 0,0 11.8391,12.0118 16.4589,14.3794 4.6202,2.3677 36.8641,9.3844 42.7995,14.2353 5.9354,4.8508 15.3361,17.0938 23.0999,19.2304 7.7641,2.1367 13.2185,0.2307 19.5709,-5.7748 6.3527,-6.0058 -1.9812,-21.8187 -6.5051,-26.554 -4.5236,-4.7354 -23.0783,-21.1393 -32.7256,-26.4201 -13.9402,-7.6307 -33.847,-12.7015 -33.847,-12.7015 -3.3097,-9.16 -14.1253,-27.813 -25.5183,-28.7416 -10.8904,-0.8877 -22.4082,15.6193 -24.1655,21.1958 z m -131.584,-52.4222 c -3.6831,0.025 -14.6465,-0.2651 -19.5638,2.4636 -17.4855,9.7016 -10.0621,26.4371 -4.4474,40.7581 2.8554,7.5939 22.7061,16.3142 34.4165,11.6654 11.7105,-4.6486 12.4477,-30.1158 7.9887,-39.2399 -3.2054,-6.558 -8.9815,-15.7102 -18.394,-15.6472 z m 37.3127,62.0345 c -10.416,0.1114 -32.973,4.7158 -38.1382,6.8885 -5.9031,2.4832 -10.2021,7.3347 -11.4856,16.2279 0,0 7.0263,13.8881 16.7473,22.608 9.7214,8.7198 20.8864,24.3409 22.8756,31.0105 0.8781,2.9445 0.041,7.3234 -1.3586,11.5207 -76.3974,19.7821 -126.6239,51.2217 -130.9501,97.3827 -3.311,35.3287 42.0519,62.2865 73.2074,64.5532 31.1554,2.2667 173.5944,-1.8356 218.5484,-13.6623 44.9537,-11.8264 103.6517,-43.8572 124.349,-81.998 20.6975,-38.1408 -32.7986,-74.8523 -78.7378,-79.7802 -45.9395,-4.9273 -123.1672,-2.5027 -139.1326,-0.049 -3.3525,0.5154 -6.6702,1.0487 -9.9627,1.5948 0.205,-11.9563 -3.9874,-31.7273 -3.9874,-31.7273 0,0 3.3363,-10.3083 2.759,-14.8415 -0.5776,-4.5332 -18.2877,-12.993 -18.2877,-12.993 0,0 -15.5602,-14.986 -22.8111,-16.4874 -0.9063,-0.1877 -2.1469,-0.2634 -3.6349,-0.2475 z" fill="#FFFFFF" paint-order="markers stroke fill" transform="translate(-91.60442,214.56354) translate(-4684.6502,-2176.4512)"/>
    <path d="m 4958.6399,2265.6 c -3.637,-3.8713 -1.844,-5.2703 1.925,-1.5017 1.646,1.6435 2.488,3.2978 1.876,3.6761 -0.612,0.3784 -2.324,-0.6001 -3.801,-2.1744 z m 9.979,-3.5385 c -0.849,-3.3806 -0.07,-5.0268 1.583,-3.3194 1.639,1.6994 1.955,5.4388 0.507,5.9484 -0.724,0.2538 -1.662,-0.9293 -2.09,-2.629 z m 16.756,-0.5626 c 0,-1.3149 0.52,-2.0678 1.158,-1.6731 0.639,0.3947 1.162,1.4705 1.162,2.3907 0,0.9202 -0.523,1.6731 -1.162,1.6731 -0.638,0 -1.158,-1.0758 -1.158,-2.3907 z m -8.13,-1.1611 c 0,-1.3149 0.523,-2.0678 1.162,-1.6731 0.638,0.3946 1.162,1.4705 1.162,2.3907 0,0.9202 -0.524,1.6731 -1.162,1.6731 -0.639,0 -1.162,-1.0758 -1.162,-2.3907 z m -158.031,-6.765 c -2.235,-1.809 -2.452,-2.4935 -1.25,-3.9424 0.803,-0.9642 3.337,-2.106 5.634,-2.5371 6.29,-1.1797 23.237,-9.358 24.487,-11.816 0.685,-1.3461 0.692,-6.3022 0,-13.187 -2.28,-23.4101 1.577,-42.022 11.694,-56.403 6.856,-9.7455 20.252,-22.6375 30.073,-28.9372 3.979,-2.5544 7.244,-5.4422 7.247,-6.4172 0,-0.9751 2.1,-4.5544 4.654,-7.954 5.52,-7.3442 5.733,-9.9706 1.688,-20.7253 -3.241,-8.6104 -6.47,-12.514 -18.105,-21.8756 -4.242,-3.4124 -8.857,-8.0563 -10.256,-10.3197 -1.398,-2.2634 -2.919,-4.1153 -3.38,-4.1153 -0.46,0 -2.05,3.788 -3.534,8.4179 -7.172,22.401 -14.489,28.3177 -38.943,31.5039 -6.839,0.8909 -12.951,2.1371 -13.583,2.7692 -0.632,0.6321 -1.442,3.3223 -1.797,5.9784 -0.741,5.5221 -2.034,6.477 -10.272,7.5885 -6.231,0.841 -15.499,-1.77 -15.706,-4.4251 -0.688,-8.8103 0.77,-13.5168 4.183,-13.5168 0.813,0 1.777,-0.7837 2.146,-1.7416 0.434,-1.1372 2.241,-1.7417 5.207,-1.7417 2.495,0 5.141,-0.7272 5.878,-1.6161 2.024,-2.437 5.549,-2.9739 7.889,-1.2007 2.943,2.2314 8.278,2.0258 18.652,-0.7189 10.792,-2.8546 18.527,-7.338 21.528,-12.4781 3.186,-5.4536 12.471,-30.1446 13.481,-35.8446 0.471,-2.6589 1.778,-6.24 2.903,-7.9582 2.824,-4.3117 14.024,-9.1197 28.427,-12.2034 15.173,-3.2488 24.981,-2.7828 33.92,1.6115 3.439,1.6896 11.164,4.1102 17.171,5.3788 18.832,3.978 40.749,16.7921 40.749,23.8268 0,5.2185 -6.125,9.0324 -17.763,11.0586 -4.223,0.7358 -8.212,1.9775 -8.86,2.7594 -0.823,0.9889 -0.438,3.3407 1.267,7.727 3.508,9.0471 4.397,32.6597 1.596,42.37 -3.034,10.5076 -7.379,17.525 -15.403,24.8789 l -7.3,6.6886 -1.84,12.0471 c -2.225,14.5885 -2.518,30.8493 -0.619,34.3978 0.761,1.4219 2.696,2.9152 4.305,3.3184 4.407,1.1067 24.073,-5.5811 41.869,-14.2389 9.758,-4.7493 16.285,-7.2799 17.651,-6.8464 1.191,0.3782 5.17,3.0195 8.84,5.8692 3.67,2.8498 9.624,6.8323 13.234,8.8499 8.13,4.5454 9.772,6.4022 8.219,9.3041 -2.646,4.9445 -13.501,1.3676 -26.722,-8.8062 -5.04,-4.3863 -5.6561,-5.5082 -11.029,-2.1746 -9.607,5.96 -22.417,11.8468 -33.571,15.4283 -18.438,5.9199 -27.285,4.2566 -32.696,-6.1464 -3.515,-6.7559 -2.969,-24.3923 1.405,-45.6099 0.725,-3.5044 0.59,-3.647 -4.732,-4.9872 -6.82,-1.7173 -16.003,-6.2925 -21.815,-10.8702 l -4.427,-3.4868 -7.764,5.312 c -15.479,10.5888 -28.16,25.4387 -32.909,38.5394 -2.16,5.9515 -2.637,10.4345 -3.269,30.7688 -0.836,26.9274 -1.428,29.096 -9.153,33.4379 -6.786,3.8145 -17.266,7.2004 -22.282,7.2004 -2.518,0 -5.47,-0.9182 -7.036,-2.1892 z m 118.773,-111.8751 c 3.324,-6.0258 6.727,-7.2372 6.796,-2.4202 l 0.03,3.2781 4.598,-5.084 c 2.528,-2.7961 4.598,-5.4456 4.598,-5.8875 0,-0.4421 -4.361,-0.5749 -9.686,-0.2953 -11.796,0.6191 -20.492,-1.6032 -27.657,-7.0685 l -4.983,-3.8019 -3.785,5.5015 c -2.087,3.0326 -3.485,6.2817 -3.117,7.2403 1.623,4.2249 19.761,13.3015 26.788,13.405 3.16,0.046 4.078,-0.6522 6.402,-4.8674 z m 16.749,-19.6673 c 2.801,-1.0126 3.848,-2.1846 4.223,-4.7205 0.434,-2.9805 0.197,-3.2833 -1.932,-2.6003 -11.401,3.6369 -14.768,4.1521 -24.484,3.7476 -7.893,-0.3288 -11.658,-1.062 -15.383,-2.9959 -3.565,-1.849 -4.934,-2.1354 -4.934,-1.0301 0,2.2389 13.405,7.8376 21.479,8.9704 7.892,1.1073 15.561,0.6074 21.031,-1.3712 z m -1.293,-11.1654 c 5.213,-1.7784 5.842,-2.3672 6.171,-5.7546 0.408,-4.2521 0.03,-4.4691 -3.598,-2.091 -3.867,2.5303 -15.656,5.2926 -22.265,5.217 -3.219,-0.036 -9.509,-1.026 -13.978,-2.1984 -4.473,-1.1723 -8.324,-1.9485 -8.564,-1.7248 -1.442,1.3524 1.695,4.0903 7.033,6.1413 8.117,3.1193 26.63,3.3352 35.201,0.4105 z m -4.207,-10.174 c 7.531,-2.236 10.789,-4.9735 9.884,-8.2997 -0.629,-2.3121 -0.935,-2.4058 -3.186,-0.9698 -7.833,5.0004 -30.717,7.7507 -41.098,4.9397 -5.223,-1.4149 -6.096,-1.4178 -6.096,-0.02 0,3.7245 16.401,7.5713 28.131,6.5987 3.657,-0.3031 9.222,-1.3153 12.365,-2.2491 z m -13.965,-8.5943 c 9.173,-1.3265 19.475,-4.5074 21.157,-6.5335 0.698,-0.8422 0.935,-2.5935 0.523,-3.8919 -0.744,-2.3378 -0.803,-2.3337 -6.257,0.4298 -3.028,1.5348 -7.566,3.1526 -10.087,3.5952 -2.518,0.4426 -6.853,1.9099 -9.627,3.2604 -4.802,2.3358 -5.125,2.3552 -6.553,0.3983 -1.086,-1.4836 -2.35,-1.8456 -4.532,-1.2979 -2.393,0.6009 -3.025,0.3367 -3.025,-1.2659 0,-1.7433 -0.757,-1.9218 -5.424,-1.2819 -6.306,0.8641 -6.471,0.9664 -5.536,3.4064 1.544,4.0161 14.143,5.3813 29.361,3.181 z m -26.567,-10.7887 c 0,-0.7982 -1.293,-2.3652 -2.83,-3.4823 -2.212,-1.6093 -3.443,-1.784 -5.921,-0.8413 -3.032,1.1529 -3.064,1.2604 -1.054,3.4823 2.347,2.5942 9.864,3.2392 9.805,0.8413 z m 43.001,-7.8797 2.899,-2.2282 -6.125,-0.026 c -5.516,-0.023 -6.237,0.2695 -7.257,2.9525 -0.622,1.638 -1.132,3.1499 -1.132,3.3598 0,1.0557 9.094,-2.1217 11.615,-4.0584 z m -54.866,0.4716 c 2.837,-0.7604 3.094,-1.3563 1.596,-3.7177 -0.72,-1.1403 -2.442,-1.3279 -6.536,-0.7136 l -5.559,0.8334 2.784,2.139 c 3.051,2.3455 3.845,2.4961 7.715,1.4589 z m 24.138,-5.9444 c 4.111,-1.7562 7.481,-3.4881 7.491,-3.8488 0,-0.3607 -1.816,-1.5278 -4.051,-2.5937 -2.725,-1.299 -4.065,-2.7354 -4.065,-4.3571 0,-1.7479 -0.563,-2.2605 -2.031,-1.8471 -1.119,0.3147 -3.86,0.9226 -6.095,1.3509 -4.68,0.8965 -11.592,5.1439 -11.605,7.1287 0,2.2447 6.944,7.3601 10.009,7.3601 1.579,0 6.237,-1.4369 10.347,-3.193 z m -27.633,-2.0809 c 1.046,-0.3262 1.132,-1.2531 0.329,-3.3929 -1.0563,-1.4217 -0.4198,-3.1659 -0.305,-3.6187 -0.372,-0.3711 -1.761,-0.094 -3.088,0.6154 -1.326,0.7096 -4.242,1.3591 -6.483,1.4433 -4.496,0.1691 -5.066,1.403 -2.14,4.6363 1.827,2.0192 5.882,2.129 11.694,0.3166 z m 65.144,-4.6744 c 1.063,-0.8919 -17.556,-5.5059 -24.204,-5.9984 l -7.547,-0.559 7.547,4.0087 c 7.03,3.7335 8.106,3.9703 15.676,3.4474 4.47,-0.3088 8.308,-0.7133 8.528,-0.8987 z m 20.353,-2.7968 c 1.327,-1.3242 -14.932,-9.4859 -25.231,-12.6642 -9.794,-3.0234 -12.875,-3.0901 -4.449,-0.096 7.372,2.6193 17.213,9.5749 18.273,12.9169 0.665,2.0944 1.369,2.3003 5.575,1.6282 2.65,-0.4231 5.276,-1.2262 5.832,-1.7847 z m -80.679,-6.0731 c 6.787,-5.959 15.654,-9.3365 26.775,-10.1995 9.587,-0.744 9.798,-0.8214 6.131,-2.2538 -2.089,-0.8158 -4.328,-2.4733 -4.976,-3.6834 -1.6,-2.9872 -4.802,-2.7665 -7.915,0.5451 -1.419,1.5098 -6.863,4.7612 -12.103,7.2254 -8.695,4.0898 -10.384,4.4822 -19.395,4.5036 -5.427,0.013 -10.651,-0.2343 -11.608,-0.5491 -1.337,-0.4392 -1.656,0.235 -1.366,2.897 0.661,6.0623 2.053,6.7629 11.704,5.8884 7.435,-0.6738 9.248,-1.295 12.753,-4.3737 z m 17.964,0.2392 c 4.647,-0.8582 12.023,-1.2178 17.707,-0.8632 5.358,0.3342 9.742,0.4244 9.742,0.2004 0,-1.2802 -11.121,-3.0503 -18.842,-2.9998 -9.022,0.059 -18.056,2.75 -20.047,5.9706 -0.646,1.0468 -0.33,1.1202 1.303,0.286 1.195,-0.6175 5.756,-1.7847 10.137,-2.5938 z m -19.576,-9.8984 c 5.874,-1.6968 18.631,-8.4286 17.713,-9.3473 -1.195,-1.1949 -11.328,1.0793 -11.328,2.5424 0,4.0525 -11.392,7.3654 -16.256,4.7273 -2.528,-1.372 -3.466,-1.2947 -7.297,0.6016 -2.518,1.2461 -4.065,2.7102 -3.624,3.4257 0.948,1.5331 12.474,0.4521 20.792,-1.9497 z m 150.48,209.169 c -0.849,-1.0203 -0.958,-1.9462 -0.296,-2.3646 1.586,-0.9818 4.983,0.5314 4.493,2.0028 -0.665,1.994 -2.712,2.1699 -4.213,0.3618 z m 12.25,-2.9827 c -3.548,-5.3633 -3.673,-5.8675 -1.441,-5.8675 2.024,0 7.899,6.8008 7.336,8.4915 -0.908,2.7175 -2.965,1.801 -5.895,-2.624 z m 8.693,0.9032 c -2.189,-5.8476 -2.538,-7.7621 -1.524,-8.3872 1.645,-1.0189 4.924,3.3165 5.187,6.864 0.296,4.0436 -2.314,5.1302 -3.663,1.5232 z m -195.226,-0.3847 c -1.017,-1.2267 -1.139,-2.2271 -0.365,-3.0011 0.773,-0.7741 1.668,-0.5478 2.689,0.679 1.017,1.2266 1.138,2.2271 0.365,3.001 -0.774,0.7741 -1.672,0.5478 -2.689,-0.6789 z m 204.076,-0.8128 c -0.826,-2.4591 0.421,-5.5732 2.231,-5.5732 1.142,0 1.564,0.9977 1.317,3.1035 -0.395,3.3351 -2.712,4.949 -3.548,2.4697 z m -216.195,-0.8104 c -1.181,-1.9126 1.547,-8.2461 3.552,-8.2461 2.281,0 1.981,3.919 -0.537,7.0265 -1.54,1.902 -2.383,2.2427 -3.015,1.2196 z m 19.636,-4.097 c -1.079,-2.8267 -1.728,-5.8311 -1.438,-6.6763 0.586,-1.7308 5.533,7.2308 5.533,10.0281 0,3.4838 -2.156,1.7174 -4.095,-3.3518 z m 7.142,3.3601 c -1.158,-3.0247 -0.842,-7.3007 0.613,-8.1986 1.889,-1.1688 4.63,3.0347 4.226,6.4839 -0.392,3.3319 -3.759,4.5257 -4.839,1.7147 z m 27.203,-1.0473 c -1.988,-2.3981 -1.086,-9.2614 1.277,-9.7088 1.432,-0.2709 2.119,0.8213 2.705,4.302 1.1,6.4919 -0.865,9.1596 -3.982,5.4068 z m -14.357,-0.2452 c -1.458,-1.4575 -0.829,-4.763 1.435,-7.5394 1.995,-2.4435 2.321,-2.5247 3.015,-0.7475 1.488,3.8276 -2.146,10.5939 -4.45,8.2869 z m 28.921,-4.8743 c -0.872,-1.4089 1.53,-9.47 2.824,-9.47 0.595,0 1.398,1.2575 1.783,2.7945 1.1,4.3776 -2.662,9.8251 -4.607,6.6755 z m 20.205,-7.1478 c 0,-3.7222 1.616,-4.6792 2.781,-1.6468 1.191,3.1116 0.783,5.13 -1.037,5.13 -1.162,0 -1.744,-1.1611 -1.744,-3.4832 z m 13.366,-2.3034 c -0.856,-1.3855 0.23,-3.5021 1.797,-3.5021 1.415,0 1.422,3.1426 0,4.0142 -0.596,0.3674 -1.409,0.1369 -1.81,-0.5121 z m -65.661,-2.4318 c -0.711,-1.3271 -0.955,-3.2864 -0.54,-4.3541 0.681,-1.7557 0.912,-1.7258 2.412,0.3127 1.89,2.567 2.212,6.4543 0.537,6.4543 -0.616,0 -1.702,-1.0858 -2.409,-2.4129 z m 8.175,-0.9754 c 0,-2.9071 1.172,-5.9004 2.311,-5.9004 1.241,0 2.313,4.5045 1.55,6.498 -0.932,2.4247 -3.861,1.9712 -3.861,-0.5976 z m 15.92,0.7107 c -0.329,-0.8268 0.132,-2.7831 1.001,-4.3474 1.8284,-3.6828 2.8694,-3.1258 2.8976,0.3615 0.03,3.8683 -2.9136,6.5827 -3.9116,3.9859 z m 67.31,-2.7214 c -1.237,-1.2369 -0.931,-5.0508 0.405,-5.0508 1.718,0 2.798,3.4359 1.491,4.7418 -0.606,0.6063 -1.458,0.7453 -1.896,0.3091 z m 8.469,-2.7827 c -1.83,-3.4174 0.197,-5.417 2.824,-2.7885 1.073,1.073 1.764,2.5108 1.537,3.1951 -0.777,2.327 -3.012,2.1187 -4.361,-0.4066 z m 15.12,1.083 c 0,-2.0354 4.953,-10.3176 6.168,-10.3176 1.063,0 0.23,8.5804 -1.054,10.6293 -0.895,1.4501 -5.114,1.1931 -5.114,-0.3117 z m 10.45,-1.4673 c 0,-3.6786 3.218,-6.4979 4.716,-4.1313 1.985,3.136 0.612,6.8919 -2.518,6.8919 -1.54,0 -2.198,-0.8261 -2.198,-2.7606 z m -18.119,-1.2067 c -0.961,-2.5043 0.375,-5.6243 2.156,-5.031 0.796,0.2659 1.451,1.7027 1.451,3.1928 0,3.1824 -2.587,4.5 -3.607,1.8382 z m 79.271,-10.7399 c -1.156,-1.1561 -0.935,-7.3535 0.263,-7.3535 1.257,0 2.445,2.8669 2.445,5.9004 0,2.2309 -1.257,2.9052 -2.708,1.4531 z m 5.486,-2.0379 c -0.349,-0.908 0,-2.8073 0.741,-4.2207 1.096,-2.0443 1.583,-2.2409 2.396,-0.9615 1.675,2.6479 1.231,6.8331 -0.724,6.8331 -0.978,0 -2.064,-0.7429 -2.413,-1.6509 z m 24.02,-1.3486 c 0.07,-1.3526 0.329,-1.6278 0.701,-0.7015 0.336,0.8382 0.296,1.8396 -0.1,2.2254 -0.385,0.3859 -0.658,-0.2998 -0.609,-1.5239 z m -305.415,-1.8638 c -2.735,-2.9377 -3.014,-4.4254 -0.826,-4.4254 1.56,0 6.586,4.7092 6.586,6.1705 0,1.7256 -3.518,0.659 -5.76,-1.7451 z m 292.553,0.1221 c 0,-2.8297 2.712,-2.4297 3.278,0.4833 0.23,1.1457 -0.372,1.9356 -1.452,1.9356 -1.079,0 -1.826,-0.9927 -1.826,-2.4189 z m -285.397,-0.1353 c -1.666,-1.6661 -1.86,-5.5732 -0.264,-5.5732 0.616,0 1.709,1.101 2.429,2.4468 1.547,2.8902 -0.06,5.2217 -2.155,3.1264 z m 7.277,-1.0458 c -1.024,-3.2301 0.951,-5.1816 2.886,-2.8498 1.554,1.8706 0.912,5.2889 -0.994,5.2889 -0.615,0 -1.468,-1.0976 -1.892,-2.4391 z m 52.907,-5.6122 c -1.688,-3.1539 -1.497,-4.7207 0.576,-4.7207 1.8,0 4.187,4.49 3.242,6.0957 -0.905,1.5377 -2.584,0.9337 -3.818,-1.375 z m 175.919,-1.5277 c -1.185,-5.4363 -1.178,-7.0291 0.03,-7.4567 1.445,-0.5084 3.973,4.4597 3.973,7.8015 0,3.1428 -3.308,2.8581 -4.009,-0.3448 z m -168.194,0.7014 c -1.155,-1.156 -0.981,-7.1278 0.23,-7.8769 1.619,-1.0001 3.834,2.4244 3.413,5.279 -0.391,2.673 -2.248,3.9954 -3.643,2.5979 z m 18.365,-0.4026 c -0.944,-1.5267 0.395,-5.8141 1.814,-5.8141 1.408,0 1.412,5.4657 0,6.3365 -0.596,0.3675 -1.412,0.1323 -1.817,-0.5224 z m -10.262,-0.7826 c -1.415,-1.4141 -0.8,-3.8703 0.968,-3.8703 0.967,0 1.741,1.0321 1.741,2.3221 0,2.3133 -1.238,3.0202 -2.709,1.5482 z m 168.036,-2.0442 c -0.971,-2.5277 -0.03,-6.8107 1.58,-7.3471 1.001,-0.33 1.452,0.9893 1.452,4.2631 0,4.6208 -1.758,6.4072 -3.032,3.084 z m -20.567,-2.2931 c -0.342,-0.8955 -0.329,-1.9359 0.07,-2.3121 0.819,-0.8189 3.801,1.4731 3.801,2.9212 0,1.6611 -3.182,1.159 -3.86,-0.6091 z m 28.456,-2.726 c 0.231,-1.9009 1.073,-3.1931 2.11,-3.1931 1.037,0 1.889,1.2922 2.107,3.1931 0.296,2.6001 -0.1,3.193 -2.107,3.193 -2.017,0 -2.409,-0.5929 -2.11,-3.193 z m 12.79,-2.8447 c -1.978,-1.9778 -1.76,-6.7343 0.297,-6.7343 2.109,0 4.502,4.2488 3.65,6.4767 -0.777,2.0173 -2.113,2.1043 -3.96,0.2577 z m -185.776,-4.9512 c -0.862,-1.8923 -0.908,-3.1058 -0.132,-3.5833 1.662,-1.0266 4.549,1.6808 4.549,4.2645 0,3.1315 -2.88,2.6871 -4.414,-0.6812 z m 198.497,-0.1017 c 0.231,-1.1382 1.103,-2.3035 1.962,-2.5897 1,-0.3327 1.418,0.2255 1.162,1.5492 -0.231,1.1383 -1.106,2.3036 -1.965,2.5896 -0.998,0.3328 -1.416,-0.2254 -1.159,-1.5491 z m -190.598,-3.3544 c 0,-1.5588 0.484,-3.1339 1.076,-3.5002 1.31,-0.8093 2.847,3.5214 1.83,5.1629 -1.313,2.1288 -2.906,1.2181 -2.906,-1.6627 z m 142.812,0.026 c 0,-1.9512 0.639,-2.9994 1.823,-2.9994 1.212,0 1.699,0.8469 1.452,2.5214 -0.546,3.7173 -3.275,4.1154 -3.275,0.478 z m -15.015,-1.692 c -2.771,-5.1769 -0.355,-8.7749 3.529,-5.2589 2.685,2.429 2.488,6.6649 -0.336,7.2025 -1.073,0.2048 -2.511,-0.6699 -3.193,-1.9436 z m 105.193,0.2406 c -1.445,-1.4453 -0.797,-6.1925 0.846,-6.1925 1.659,0 3.024,2.4018 3.024,5.3199 0,1.6915 -2.488,2.2529 -3.87,0.8726 z m 15.686,-1.0289 c 0.527,-2.522 2.587,-2.6764 3.058,-0.2291 0.263,1.271 -0.329,2.0319 -1.521,2.0319 -1.116,0 -1.754,-0.751 -1.537,-1.8029 z m -94.723,-1.5597 c -2.054,-2.2689 -2.465,-6.5703 -0.734,-7.6416 1.573,-0.9714 5.849,3.588 5.849,6.2356 0,3.0617 -2.897,3.8578 -5.115,1.406 z m 17.118,0.3859 c -0.79,-2.058 1.333,-7.4731 2.933,-7.4731 1.425,0 2.402,4.1134 1.655,6.9666 -0.721,2.7599 -3.601,3.0779 -4.588,0.5065 z m 69.275,-0.5065 c 0,-1.2772 0.52,-2.3222 1.158,-2.3222 0.639,0 1.162,1.045 1.162,2.3222 0,1.2772 -0.523,2.3222 -1.162,2.3222 -0.638,0 -1.158,-1.045 -1.158,-2.3222 z m -104.887,0.387 c -0.424,-0.4257 -0.773,-2.0315 -0.773,-3.5684 0,-4.0552 3.946,-3.022 4.43,1.1594 0.352,3.0455 -1.682,4.3847 -3.657,2.409 z m 26.647,-2.1598 c -3.91,-3.91 -0.738,-9.7456 3.423,-6.2938 1.984,1.6478 1.823,7.0651 -0.231,7.7386 -0.724,0.2373 -2.159,-0.4127 -3.192,-1.4448 z m 25.991,-1.1299 c 0,-0.958 0.52,-1.7417 1.158,-1.7417 0.639,0 1.162,0.7837 1.162,1.7417 0,0.9579 -0.523,1.7416 -1.162,1.7416 -0.638,0 -1.158,-0.7837 -1.158,-1.7416 z m -123.479,-6.1872 c -2.357,-2.6063 -2.436,-3.6821 -0.263,-3.6821 1.859,0 5.305,3.0712 5.305,4.7273 0,1.8213 -3.015,1.1964 -5.045,-1.0452 z m 9.166,-0.4891 c -1.274,-5.831 -1.162,-7.1839 0.615,-7.552 1.268,-0.2614 2.258,1.0294 3.196,4.1564 1.771,5.91 1.755,6.008 -0.941,6.008 -1.445,0 -2.515,-0.9742 -2.87,-2.6124 z m 7.948,-2.5159 c -0.961,-2.5043 0.376,-5.6243 2.156,-5.031 0.797,0.2659 1.452,1.7027 1.452,3.1928 0,3.1824 -2.587,4.5 -3.608,1.8382 z m 112.822,0.6033 c -0.997,-1.615 0.606,-8.0429 2.37,-9.5082 1.241,-1.0301 1.814,-0.7101 2.646,1.4841 1.55,4.0805 0.329,9.0658 -2.254,9.0658 -1.165,0 -2.406,-0.4687 -2.762,-1.0417 z m 10.21,-0.7146 c -0.777,-2.0241 1.669,-5.4964 3.202,-4.5483 0.566,0.35 1.03,1.9117 1.03,3.4705 0,3.1703 -3.123,3.9657 -4.232,1.0778 z m -21.127,-0.8444 c -1.52,-1.5202 -1.843,-6.6879 -0.418,-6.6879 1.619,0 3.716,2.7115 3.716,4.808 0,2.6526 -1.609,3.5693 -3.298,1.8799 z m -17.45,-10.5683 c -1.267,-1.5257 -0.678,-3.0862 1.162,-3.0862 0.51,0 1.484,1.045 2.169,2.3222 0.97,1.8128 0.882,2.3222 -0.399,2.3222 -0.902,0 -2.221,-0.7012 -2.932,-1.5582 z m -224.186,-2.9773 c -1.603,-2.9966 -1.537,-3.5921 0.388,-3.5921 1.83,0 3.335,4.3243 1.827,5.2562 -0.546,0.3378 -1.543,-0.411 -2.215,-1.6641 z m 284.044,1.4586 c -0.437,-0.4364 -0.796,-2.0561 -0.796,-3.5994 0,-3.214 2.672,-3.0364 3.304,0.2195 0.445,2.2946 -1.277,4.6126 -2.508,3.3798 z m -294.602,-2.8281 c -0.715,-1.3318 -0.952,-2.7679 -0.527,-3.1911 0.787,-0.7877 4.062,2.9799 4.062,4.6736 0,1.845 -2.265,0.8963 -3.535,-1.4825 z m 260.426,0.4266 c -1.518,-0.5444 -2.008,-5.1888 -0.688,-6.5095 1.178,-1.1763 3.88,1.565 3.88,3.9339 0,2.4269 -1.109,3.3226 -3.192,2.5756 z m 11.796,-0.7656 c -0.4274,-1.1056 -0.2466,-3.1403 0.352,-4.5364 1.5283,-3.5646 1.8007,-4.2493 3.4258,-1.211 1.2148,2.271 0.4152,4.5417 -1.1948,5.947 -1.7823,1.5557 -2.0809,1.0992 -2.583,-0.1996 z m 9.271,-0.045 c -0.994,-2.5837 0.296,-5.3215 2.485,-5.3215 1.33,0 1.751,0.8812 1.488,3.1035 -0.422,3.5543 -2.926,4.952 -3.973,2.218 z m 18.119,0.1254 c 0,-0.8359 0.766,-2.534 1.705,-3.7736 1.612,-2.1318 2.6938,-2.8707 2.7268,0.6987 0,2.5967 -1.4898,4.5946 -2.6878,4.5946 -0.961,0 -1.744,-0.6839 -1.744,-1.5197 z m -282.145,-2.5441 c 0,-0.9579 0.523,-1.7416 1.161,-1.7416 0.639,0 1.162,0.7837 1.162,1.7416 0,0.9579 -0.523,1.7417 -1.162,1.7417 -0.638,0 -1.161,-0.7838 -1.161,-1.7417 z m 161.624,-0.8128 c -3.492,-3.4916 -0.1,-6.8967 9.637,-9.6751 3.831,-1.0934 7.159,-2.1606 7.396,-2.3717 0.23,-0.211 -1.396,-2.8902 -3.624,-5.9536 -2.228,-3.0633 -4.904,-7.2419 -5.944,-9.2856 -2.327,-4.5735 -2.482,-9.6367 -0.296,-9.6367 1.909,0 21.624,25.8912 21.624,28.396 0,2.5789 -4.19,4.8446 -13.909,7.5253 -9.986,2.753 -12.935,2.9515 -14.887,1.0014 z m 127.61,-16.3326 c -5.013,-1.6327 -16.756,-12.4582 -20.564,-18.9563 -2.008,-3.4243 -4.144,-5.3869 -6.823,-6.2714 -6.016,-1.9856 -12.875,-7.4923 -18.74,-15.042 -6.629,-8.5361 -17.046,-14.4225 -29.029,-16.4015 l -8.107,-1.3383 -6.744,4.3154 c -5.963,3.8142 -16.999,9.2983 -26.514,13.1757 -1.758,0.7156 -3.193,2.1134 -3.193,3.1062 0,2.8309 -5.272,12.3741 -9.136,16.5319 -3.351,3.6059 -8.281,5.1273 -8.281,2.5547 0,-0.6703 0.836,-2.8351 1.859,-4.8106 l 1.857,-3.5919 -4.026,2.4885 c -6.483,4.0055 -11.42,2.4671 -7.168,-2.2325 1.991,-2.1994 1.955,-2.2229 -1.56,-0.9982 -4.578,1.5962 -8.959,0.9973 -8.959,-1.2248 0,-0.9454 2.353,-3.0354 5.227,-4.6443 l 5.223,-2.9254 -4.065,-0.3134 c -6.796,-0.5244 -9.288,-1.3896 -9.288,-3.2284 0,-1.9395 0.813,-2.3144 7.409,-3.4151 l 4.502,-0.7518 -4.17,-2.8355 c -4.611,-3.1325 -4.825,-7.0452 -0.329,-5.8497 1.346,0.3574 7.412,1.9874 13.478,3.6221 8.149,2.1961 11.638,2.6683 13.353,1.8084 1.277,-0.6401 5.075,-2.2198 8.442,-3.5104 6.786,-2.6027 19.7903,-9.1983 22.0193,-10.9885 -1.4198,-0.7602 -2.0513,-0.6128 -5.5073,-3.1253 -2.623,-1.8992 -4.634,-4.3221 -4.634,-5.5795 0,-1.5125 -1.086,-2.4609 -3.393,-2.9681 -1.87,-0.41 -5.8959,-2.1529 -8.689,-4.2508 l -4.7932,-3.6002 c -6.0779,5.6574 -11.8267,2.8504 -3.6576,-4.395 -1.8844,-2.5781 -2.2236,-3.9809 -4.4312,-9.2302 l -6.385,0.073 c -8.93,0.1021 -18.636,1.6092 -19.551,3.0356 -1.293,2.0177 -10.367,6.1566 -13.494,6.1566 -1.85,0 -2.949,-0.6506 -2.949,-1.7416 0,-1.0836 -1.096,-1.7416 -2.903,-1.7416 -2.063,0 -2.903,-0.629 -2.903,-2.1771 0,-1.5019 -1.109,-2.3985 -3.571,-2.8911 -4.667,-0.9334 -4.298,-4.6288 0.517,-5.181 l 3.314,-0.3801 -2.62,-1.8351 c -2.415,-1.6926 -2.468,-1.9473 -0.648,-3.2763 1.577,-1.1544 3.4,-1.1074 9.16,0.236 3.953,0.9225 8.386,2.4628 9.854,3.4228 2.267,1.4874 4.038,1.5442 11.973,0.384 5.122,-0.7488 11.372,-1.0854 13.89,-0.7479 4.519,0.6065 4.575,0.5685 4.575,-3.1936 0,-9.2663 6.558,-20.5192 14.827,-23.421 16.65,-5.843 31.7135,-0.499 38.514,16.2415 1.8603,4.5794 1.518,18.7443 -0.391,23.1463 -3.571,8.2326 -14.173,15.8361 -22.18,15.908 l -3.486,0.033 3.486,2.839 c 6.368,5.1908 9.571,5.9645 14.254,3.4426 2.271,-1.2229 6.599,-4.4453 9.621,-7.161 10.354,-9.3099 13.03,-4.1902 3.228,6.1751 -3.291,3.4812 -5.772,6.5331 -5.516,6.7819 0.264,0.2489 5.174,1.3281 10.921,2.3984 11.184,2.0821 20.669,6.418 23.503,10.74 1.543,2.3567 2.659,2.6386 10.456,2.6386 9.953,0 14.541,-2.0614 18.119,-8.1353 l 2.149,-3.6514 -9.89,-9.6477 c -9.065,-8.8436 -11.398,-10.3902 -27.983,-18.5569 -9.953,-4.9 -18.095,-9.4013 -18.095,-10.0029 0,-1.4986 0.572,-1.4279 10.473,1.2927 18.589,5.1076 37.714,16.987 48.816,30.3192 9.867,11.8521 13.01,20.6167 9.93,27.7147 -1.34,3.0906 20.754,23.1546 25.52,23.1732 1.59,0.01 5.115,3.8153 5.115,5.5264 0,3.2793 -7.698,1.733 -18.418,-3.6995 -5.079,-2.5725 -12.237,-9.2592 -16.552,-15.4579 -1.794,-2.5776 -1.866,-2.5839 -6.632,-0.5805 -2.649,1.1138 -4.825,2.3553 -4.832,2.7589 -0.03,2.5302 10.111,12.5526 16.908,16.6916 4.427,2.6953 8.047,5.6247 8.047,6.5096 0,2.0411 -4.637,2.3831 -9.749,0.7189 z m -10.795,-30.5501 c 2.152,-1.5069 2.488,-2.5247 1.886,-5.7302 -0.906,-4.8333 0.164,-7.0541 2.504,-5.1236 2.607,2.1627 2.08,-2.0014 -0.852,-6.7467 l -2.492,-4.0321 -1.418,3.3722 c -0.78,1.8546 -3.058,4.7514 -5.062,6.4372 -3.318,2.7933 -5.816,3.5013 -16.404,4.6511 -2.62,0.2847 -2.284,0.7367 3.469,4.6599 7.109,4.8482 13.741,5.755 18.369,2.5122 z m -90.606,-51.3601 c 0.296,-0.8932 -1.007,-1.3787 -3.703,-1.3787 -4.772,0 -5.302,0.7787 -1.547,2.2818 3.097,1.2403 4.621,0.978 5.25,-0.9031 z m 9.578,-0.8108 c 1.866,-0.9649 4.713,-3.6986 6.329,-6.075 2.402,-3.5386 2.936,-5.7021 2.936,-11.9515 0,-6.4037 -0.8552,-8.2877 -3.328,-12.8747 -5.0773,-9.4182 -17.5345,-14.0699 -27.574,-8.0919 -4.1545,2.4738 -8.577,10.7857 -8.577,15.9436 0,5.2407 2.4239,14.1981 4.9249,15.5368 2.0899,-0.034 3.2041,1.9764 3.2041,2.8995 0,1.3175 1.106,1.527 5.141,0.9738 6.655,-0.9119 10.772,0.1712 11.694,3.0742 0.882,2.7804 0.951,2.7877 5.25,0.5652 z m -14.706,-9.2909 c -0.879,-2.2923 1.613,-5.2511 3.736,-4.4363 0.911,0.3496 1.655,1.886 1.655,3.4142 0,2.0187 -0.645,2.7785 -2.356,2.7785 -1.297,0 -2.663,-0.7904 -3.035,-1.7564 z m -10.851,-1.1316 c -1.3699,-2.14 -0.668,-5.2397 2.149,-5.2397 2.748,0 3.8934,3.505 2.36,5.3721 -1.0973,1.3361 -3.5613,1.348 -4.509,-0.1324 z m 53.098,82.1325 c -1.682,-1.7562 -4.384,-6.1974 -6.007,-9.8693 -2.445,-5.5261 -3.446,-6.6763 -5.815,-6.6763 -3.466,0 -16.852,-4.7437 -20.933,-7.4167 -2.886,-1.8914 -3.939,-5.7617 -1.905,-7.0174 1.711,-1.058 28.433,6.3495 30.424,8.4337 1.017,1.0651 2.745,4.3853 3.841,7.3783 1.096,2.9928 3.479,7.6543 5.296,10.3588 5.154,7.6764 1.385,11.3753 -4.901,4.8089 z m -87.923,-74.3099 c 0,-0.479 3.015,-2.0819 6.678,-3.5622 9.485,-3.8352 10.719,-4.1365 10.719,-2.6155 0,0.7425 -2.744,2.627 -6.095,4.1879 -5.967,2.7772 -11.342,3.7236 -11.302,1.9898 z m -118.17,-14.8819 c -10.862,-5.4117 -18.093,-16.8944 -19.541,-31.0211 -0.869,-8.4735 1.392,-18.2082 5.421,-23.3277 3.173,-4.0341 12.431,-8.7041 19.053,-9.612 12.918,-1.7704 24.876,6.6277 29.016,20.3779 1.491,4.9523 2.1004,6.2363 2.5171,7.2033 5.9887,-0.07 6.1417,5.7409 1.1998,5.8929 -0.546,0 0.3711,2.9549 -0.034,6.8159 -1.155,11.0497 -6.948,19.509 -16.364,23.8933 -7.656,3.5655 -13.797,3.5013 -21.268,-0.2225 z m 19.224,-6.7848 c 6.49,-3.3895 9.87,-8.2953 10.437,-15.1471 0.5,-6.036 -0.1763,-6.5451 -0.4674,-7.43 -5.4899,1.2598 -4.7034,-4.5653 -1.5178,-5.4257 0,0 0.1052,-0.6559 -1.9478,-6.4147 -2.66,-7.4738 -7.705,-12.851 -13.817,-14.7269 -5.553,-1.7044 -16.98,0.7687 -21.983,4.7576 -7.586,6.0492 -5.825,25.0178 3.482,37.4589 5.474,7.317 18.415,10.7908 25.807,6.9279 z m -7.106,-7.2484 c -1.879,-1.8779 -0.425,-4.1669 4.726,-7.4382 6.692,-4.2486 11.322,-4.2462 11.322,0.01 0,1.942 -1.099,3.4582 -3.482,4.8037 -3.986,2.2482 -11.398,3.7988 -12.566,2.6287 z m -3.8552,-20.0983 c -1.0772,-2.7447 -1.19,-7.3758 2.7722,-5.6261 1.1989,0.5294 1.719,1.4782 2.038,3.2629 0.6819,3.8147 -3.6673,5.2753 -4.8102,2.3632 z m 9.1052,-2.5954 c -0.8489,-2.667 -1.0624,-4.7543 1.2226,-5.6309 2.468,-0.9465 4.8954,2.7645 3.9644,5.1925 -0.833,2.1762 -4.3541,3.0552 -5.187,0.4384 z m 94.976,33.5998 c 0.329,-0.3507 3.848,-3.0371 7.837,-5.9699 3.992,-2.9327 7.257,-5.8558 7.257,-6.4956 0,-1.8235 -4.193,-1.3617 -5.859,0.645 -2.119,2.5527 -11.279,7.7661 -12.773,7.2687 -0.685,-0.2281 1.191,-2.2333 4.17,-4.4558 4.315,-3.2237 4.957,-4.1106 3.17,-4.3858 -1.235,-0.1896 -5.596,1.1736 -9.697,3.0296 -10.597,4.7964 -11.519,5.0481 -11.519,3.1434 0,-2.2483 6.263,-6.8451 14.409,-10.5745 5.609,-2.5672 7.837,-2.9866 13.021,-2.4516 7.23,0.7466 15.893,5.0771 16.505,8.253 0.359,1.8635 -0.1,2.0821 -3.08,1.4851 -2.413,-0.4826 -3.96,-0.1441 -4.983,1.0905 -2.758,3.3201 -11.352,8.5917 -15.209,9.3262 -2.107,0.4011 -3.568,0.4423 -3.249,0.091 z m -36.573,-12.3179 c -1.915,-1.1898 -4.736,-3.523 -6.266,-5.1847 -1.527,-1.6618 -3.1635,-2.7344 -3.1635,-2.7344 -4.0239,2.1226 -5.4755,-1.152 -1.5795,-5.1917 -0.2097,-1.1012 -0.085,-0.9891 -0.917,-4.8547 -1.899,-8.899 0.3386,-18.387 7.1218,-24.5355 13.0018,-11.7853 32.2138,-6.8544 37.1752,8.6088 2.324,7.8161 2.416,18.8704 0.198,23.1599 -5.191,10.0376 -23.816,16.1738 -32.577,10.7323 z m 14.94,-4.3406 c 3.014,-1.0277 7.362,-3.6425 9.663,-5.8108 4.176,-3.9391 4.18,-3.9485 3.518,-11.8213 -1.362,-16.252 -6.0565,-22.4031 -17.312,-22.2988 -8.022,0.074 -11.6762,3.5479 -15.397,10.4498 -3.824,7.3098 -1.61,16.7844 -1.0101,18.5999 4.3413,-0.6189 4.5549,2.4689 1.7756,4.8804 0.6512,0.8819 1.2125,1.6277 2.8585,3.4584 4.17,4.6361 7.972,5.2442 15.904,2.5424 z m -7.261,-1.508 c -2.462,-1.5598 -0.718,-6.2273 3.193,-8.5365 4.12,-2.4352 6.398,-2.5538 8.162,-0.4257 2.004,2.4138 0.332,5.2187 -4.618,7.7436 -5.134,2.6202 -4.66,2.534 -6.737,1.2186 z m -6.286,-14.7739 c -1.7716,-2.8487 -1.1838,-5.6837 1.8,-6.0231 2.1274,-0.242 2.613,1.1481 2.613,3.2578 0,2.8025 -3.126,4.8348 -4.413,2.7653 z m 9.35,-3.0397 c -0.879,-2.3936 0.339,-4.3541 2.706,-4.3541 1.599,0 2.225,0.8162 2.225,2.9028 0,2.0739 -0.626,2.9027 -2.199,2.9027 -1.208,0 -2.436,-0.6531 -2.732,-1.4514 z" fill="#00B894" transform="translate(-91.60442,214.56354) translate(-4684.6502,-2176.4512)"/>
</svg>