<?xml version="1.0" ?><svg height="61.370605mm" viewBox="0 0 106.40417 61.370605" width="106.40417mm" xmlns="http://www.w3.org/2000/svg">
    <path d="m 3745.4132,2029.2455 c -0.3485,-4.9618 15.6178,-29.1806 47.222,-32.4823 31.6045,-3.3017 52.6534,20.9909 53.6168,23.4072 0.9633,2.4163 -1.3322,24.7537 -45.7669,30.1951 -44.4346,5.4414 -53.7397,-15.7155 -55.0719,-21.12 z" fill="#FFFFFF" paint-order="markers stroke fill" transform="translate(201.70206,-2.0350393) translate(-3945.0646,-1991.5797)"/>
    <path d="m 3745.3811,2034.6286 c -3.8766,-6.8601 -2.4003,-14.1345 6.4437,-22.3729 22.124,-20.6134 51.796,-24.161 80.394,-10.4929 4.628,2.211 9.9518,7.0536 12.4513,9.5467 5.0032,4.9904 6.7103,12.222 3.3665,18.6327 -3.9019,7.4807 -23.7743,20.6306 -37.3366,23.4511 -21.5208,4.4755 -54.7649,-0.088 -65.3189,-18.7647 z m 81.878,3.4217 c 0,-3.2261 -1.11,-3.3064 -10.45,-0.7547 -7.05,1.9272 -18.1688,3.4677 -29.3674,3.197 -17.1423,-0.4143 -18.2346,-0.3735 -18.2346,1.2924 0,4.8765 8.0293,7.176 27.285,6.4378 7.1297,-0.2733 28.6851,-5.7932 30.767,-10.1725 z m -62.699,3.0746 c 0,-1.8491 -2.107,-3.5738 -3.124,-2.557 -0.954,0.9552 0.537,4.2301 1.929,4.2301 0.658,0 1.195,-0.7529 1.195,-1.6731 z m -8.706,-2.9712 c -0.395,-0.6386 -1.339,-1.1531 -2.103,-1.1434 -0.829,0.01 -0.688,0.4671 0.359,1.1434 2.231,1.4415 2.633,1.4415 1.744,0 z m 61.797,-4.2344 8.39,-1.9043 -0.714,-8.8319 c -0.392,-4.8575 -0.823,-8.9713 -0.958,-9.1417 -0.132,-0.1705 -5.167,-0.6334 -11.184,-1.0286 -15.354,-1.0086 -47.477,3.6937 -47.454,6.9467 0,2.5258 2.426,16.2757 3.022,17.2385 17.0283,1.5463 32.3781,0.4088 48.898,-3.2787 z m -55.036,-4.7641 c -0.386,-4.3105 -0.866,-8.0325 -1.07,-8.271 -0.198,-0.2387 -1.231,-0.1021 -2.288,0.3037 -1.576,0.605 -1.783,1.7252 -1.145,6.2392 1.109,7.8557 1.748,9.5656 3.581,9.5656 1.293,0 1.478,-1.5731 0.922,-7.8374 z m 70.245,5.1287 c 0.231,-1.1457 -0.368,-1.9357 -1.451,-1.9357 -1.076,0 -1.827,0.9928 -1.827,2.419 0,2.8296 2.712,2.4297 3.278,-0.4833 z m -78.316,-4.5481 c -0.931,-6.0706 -0.859,-5.9897 -3.818,-4.4073 -4.486,2.4006 -2.221,9.1781 3.107,9.3066 1.073,0.026 1.264,-1.2941 0.711,-4.8993 z m 86.179,-1.0398 c 2.199,-2.4778 2.199,-2.4838 -0.401,-1.1202 -1.435,0.754 -2.614,1.8749 -2.614,2.4911 0,1.6495 0.557,1.3966 3.015,-1.3709 z m -8.959,-5.0795 c -0.164,-3.6782 -0.928,-6.9648 -1.83,-7.7125 -2.409,-1.9997 -2.741,-0.7983 -1.932,6.9641 0.527,5.029 1.238,7.1579 2.387,7.1579 1.24,0 1.573,-1.5476 1.375,-6.4095 z m 8.772,1.7939 c 4.301,-1.6355 3.956,-5.4353 -0.586,-6.433 -4.457,-0.9782 -4.98,-0.4552 -3.999,3.9991 0.892,4.0622 0.645,3.932 4.585,2.4339 z m -85.429,-6.5535 c 0.362,-1.9037 0,-1.8229 -2.613,0.6314 -1.666,1.5482 -3.028,3.31 -3.028,3.9152 0,1.9266 5.207,-2.2707 5.641,-4.5466 z m 6.935,-3.9087 c 0.382,-4.0125 0.375,-4.0197 -2.031,-1.8424 -3.015,2.7284 -3.265,6.8016 -0.385,6.2557 1.373,-0.26 2.156,-1.6912 2.416,-4.4133 z m 21.5519,-2.4488 c 11.194,-2.0291 32.8591,-2.2068 38.2271,-0.7153 3.15,0.8746 3.256,0.7669 2.903,-2.9066 -0.335,-3.4836 -0.921,-4.0072 -6.753,-6.0299 -12.055,-3.0818 -27.2883,-3.5621 -37.5881,-0.1781 -11.625,3.8765 -14.6609,5.6766 -14.6609,10.4226 0,3.9619 -0.2596,3.3938 3.4854,2.3155 2.073,-0.5988 8.6405,-1.8664 14.3865,-2.9082 z m 55.2831,0.9995 c -3.617,-3.2854 -4.104,-3.4482 -4.48,-1.494 -0.493,2.5523 2.706,5.2641 6.149,5.2151 2.073,-0.03 1.849,-0.5229 -1.669,-3.7211 z m -8.347,-2.8316 c -0.536,-4.5203 -3.271,-4.9188 -3.271,-0.4766 0,2.4757 0.562,3.5801 1.82,3.5801 1.29,0 1.711,-0.9041 1.451,-3.1035 z" fill="#00B894" transform="translate(201.70206,-2.0350393) translate(-3945.0646,-1991.5797)"/>
</svg>