<?xml version="1.0" ?><svg height="246.36737mm" viewBox="0 0 223.68483 246.36737" width="223.68483mm" xmlns="http://www.w3.org/2000/svg">
    <path color="#000" d="m 21779.579,7747.8733 c -23.651,-0.4484 -54.13,8.0665 -86.412,35.8624 -30.486,31.3831 -36.763,74.4212 -6.277,112.9772 30.489,38.556 86.079,26.9005 129.118,-9.8622 43.036,-36.7628 18.831,-104.91 8.965,-121.0498 -4.931,-8.0697 -21.747,-17.4795 -45.394,-17.9276 z m -137.776,212.6317 c -22.724,-0.5779 -50.744,5.589 -75.962,28.5656 0,0 -45.727,34.9699 -87.869,156.0179 -42.145,121.0479 -1.206,160.4721 45.731,176.6365 46.937,16.1641 78.006,-30.4845 91.458,-60.074 13.448,-29.5894 38.552,-130.0165 72.623,-192.782 34.076,-62.7657 8.968,-94.1434 -12.55,-102.2131 -8.069,-3.0264 -19.796,-5.8041 -33.431,-6.1509 z" fill="#FFFFFF" overflow="visible" paint-order="fill markers stroke" transform="translate(-122.44378,159.12529) matrix(0.26458333,0,0,0.26458333,-5461.7936,-2204.4664)"/>
    <path d="m 21755.183,8654.5712 c -1.478,-3.8527 -0.715,-8.2236 1.697,-9.7141 5.962,-3.6856 66.157,7.0953 69.46,12.441 1.471,2.3761 -13.162,4.2774 -32.912,4.2774 -26.861,0 -36.216,-1.7134 -38.245,-7.0043 z m 11.398,-33.3241 c -3.16,-3.8105 -4.459,-10.9898 -2.884,-15.954 1.574,-4.9646 0.701,-33.716 -1.943,-63.8923 -5.565,-63.4679 -21.035,-116.3211 -45.026,-153.8235 -18.201,-28.4518 -29.165,-37.2501 -76.693,-61.5383 -31.115,-15.9011 -33.885,-16.5087 -41.955,-9.2066 -21.869,19.792 -69.267,25.8885 -93.433,12.0179 -13.928,-7.9927 -14.772,-7.9319 -25.437,1.8276 -37.449,34.2681 -113.934,49.048 -168.372,32.5361 -41.586,-12.6145 -71.235,-40.0626 -114.521,-106.0179 -7.319,-11.1534 -15.957,-20.2788 -19.192,-20.2788 -7.916,0 -40.564,42.4023 -40.564,52.6846 0,18.1373 -24.18,23.0482 -30.636,6.2221 -2.888,-7.5247 37.84,-65.0683 63.001,-89.0172 13.033,-12.403 14.676,-12.8256 21.876,-5.6237 4.284,4.2828 7.791,10.6688 7.791,14.1905 0,8.0775 54.004,81.3307 73.589,99.8158 24.439,23.0676 51.475,32.3969 92.664,31.9732 41.211,-0.4237 74.649,-10.4884 97.094,-29.2244 l 14.823,-12.3758 -9.065,-13.8746 c -7.447,-11.401 -8.953,-22.024 -8.442,-59.5897 0.941,-69.2302 25.641,-153.7487 59.766,-204.5023 7.708,-11.4675 13.205,-21.6607 12.217,-22.6516 -1.8,-1.799 -50.826,6.0646 -66.64,10.6888 -12.156,3.5535 -9.93,16.1938 6.159,35.0178 13.373,15.6477 18.791,33.5804 10.145,33.5804 -8.853,0 -43.741,-50.2104 -43.741,-62.9566 0,-11.9674 12.239,-23.0356 37.572,-32.472 29.802,-11.1015 33.166,-9.7248 47.505,-12.7179 44.668,-9.1816 62.45,-14.5587 74.707,-22.5898 14.743,-9.6596 63.512,-10.1585 85.728,-0.8767 8.897,3.7174 19.55,11.9084 23.676,18.2028 10.829,16.5316 14.508,51.7892 7.587,72.7571 l -5.873,17.797 29.949,28.2343 c 33.847,31.9091 47.012,37.3128 63.921,26.2353 14.436,-9.4586 37.829,-43.055 52.895,-75.9614 10.757,-23.5002 11.022,-26.1358 4.505,-45.0472 -8.001,-23.2336 -2.562,-47.1628 9.662,-42.4727 4.688,1.7993 8.027,-1.2275 9.992,-9.0581 2.083,-8.2945 6.234,-11.76 14.082,-11.76 6.123,0 12.55,2.2936 14.282,5.0967 1.732,2.8031 6.005,4.0012 9.494,2.6621 3.489,-1.3391 13.187,3.5402 21.55,10.8427 12.299,10.7365 14.54,15.4777 11.716,24.7738 -9.759,32.1134 -42.256,62.7797 -54.044,50.994 -6.813,-6.8161 -4.87,-9.4005 -31.294,41.6168 -12.232,23.6186 -24.879,46.2141 -28.103,50.2121 -14.328,17.7633 -34.007,28.5166 -52.19,28.5166 -16.286,0 -22.735,-3.6648 -48.261,-27.4359 -16.203,-15.0898 -30.833,-29.3211 -32.511,-31.6257 -10.567,-14.5161 -38.14,42.5973 -63.255,131.0118 -22.881,80.5513 -26.367,69.2706 30.507,98.6761 17.056,8.8187 36.101,20.7357 42.321,26.4826 34.476,31.8533 64.708,108.5673 69.721,176.9067 5.189,70.7306 6.978,79.2709 16.608,79.2709 11.234,0 55.078,-20.2415 66.773,-30.8263 7.125,-6.4471 10.99,-7.0172 18.899,-2.7862 18.533,9.9201 10.367,18.0872 -40.259,40.2583 -53.067,23.2403 -69.096,26.3168 -78.443,15.0547 z m -191.046,-314.5292 c 16.225,-7.3261 26.954,-31.2378 45.974,-102.4637 8.9,-33.3388 24.921,-78.0037 35.768,-99.7318 21.507,-43.08 21.926,-38.6962 -6.592,-69.2645 -14.786,-15.8495 -16.701,-26.295 -5.604,-30.5542 4.971,-1.9074 12.364,2.9942 21.819,14.4642 19.618,23.8008 27.92,22.7662 27.92,-3.4791 0,-32.6187 -12.085,-44.2881 -48.794,-47.1102 -35.832,-2.7548 -46.343,1.721 -79.201,33.726 -42.904,41.7892 -76.954,123.9301 -86.441,208.5145 -4.022,35.8542 1.228,78.5842 9.652,78.5842 2.412,0 4.394,-1.6104 4.405,-3.5786 0.04,-8.4215 29.208,-34.0627 35.839,-31.5183 11.112,4.2642 8.356,17.6356 -7.232,35.0969 -7.873,8.818 -14.314,17.6359 -14.314,19.5952 0,9.4922 44.059,7.9881 66.801,-2.2806 z m 145.53,-374.4554 c -32.386,-10.53 -60.703,-45.6627 -65.964,-81.8317 -1.37,-9.4289 -4.888,-12.242 -16.79,-13.4237 -24.553,-2.4377 -15.478,-15.205 10.807,-15.205 6.86,0 12.743,-4.3318 16.207,-11.9285 5.3,-11.6357 4.967,-11.9288 -13.548,-11.9288 -14.354,0 -18.985,-1.8938 -18.985,-7.7641 0,-6.4375 4.058,-7.374 23.759,-5.4813 18.265,1.7549 25.44,0.4291 31.015,-5.7329 10.747,-11.8762 9.222,-13.7281 -12.654,-15.3403 -30.013,-2.2119 -29.659,-13.3957 0.426,-13.3957 32.336,-2.4477 40.094,7.4288 40.094,7.4288 8.095,-6.1362 8.135,-6.8895 0.577,-11.119 -4.459,-2.4953 -7.158,-7.3901 -5.994,-10.8771 2.444,-7.3286 55.689,-6.824 63.297,0.5998 2.491,2.4334 8.503,4.4245 13.356,4.4245 20.355,0 42.807,11.6752 56.785,41.2199 7.679,16.2364 9.461,43.659 9.465,49.9305 0,6.2715 0.179,11.3788 0.179,11.3788 19.678,8.7919 19.596,20.0715 -5.916,14.8268 0,0 -5.085,5.9991 -6.663,10.9723 -4.155,13.0908 -47.667,52.3904 -66.909,60.4293 -17.069,7.1332 -36.122,8.1548 -52.537,2.8174 z m 61.956,-33.1452 c 20.258,-14.1214 46.622,-39.199 42.467,-45.921 -8.452,-3.5145 -7.984,-15.2208 7.905,-14.076 0,0 6.592,-26.6722 -2.92,-45.8523 -19.929,-40.1989 -38.624,-40.0594 -69.904,-34.2155 -37.911,7.0823 -74.746,40.3466 -84.733,76.52 -3.59,12.9953 -2.702,20.7246 4.129,35.983 20.491,45.7789 61.276,56.6861 103.056,27.5618 z m 7.229,-79.701 c 0,-8.6265 2.562,-11.9285 9.261,-11.9285 12.178,0 16.866,8.2136 9.652,16.9092 -9.061,10.9143 -18.913,8.3194 -18.913,-4.9807 z" fill="#00B894" transform="translate(-122.44378,159.12529) matrix(0.26458333,0,0,0.26458333,-5461.7936,-2204.4664)"/>
</svg>