<?xml version="1.0" ?><svg height="72.017838mm" viewBox="0 0 108.7022 72.017838" width="108.7022mm" xmlns="http://www.w3.org/2000/svg">
    <path d="M 204.68164 4.921875 C 196.29164 5.0018876 187.68759 5.8957669 178.93359 7.7597656 C 116.67959 21.015767 105.49811 33.173987 76.037109 46.333984 C 65.101623 51.218947 70.148333 52.216538 83.458984 51.943359 C 54.816252 60.111419 28.01608 73.593284 17.058594 88.748047 C -3.9674056 117.82607 5.8340919 139.20792 13.496094 148.29492 C 26.384094 148.8829 29.235001 135.84002 36.125 125.79102 C 43.014999 115.74205 86.192392 98.157102 130.02539 97.996094 C 173.85839 97.83622 209.61445 134.39808 229.68945 154.49609 C 249.76445 174.59407 260.21938 239.91343 269.48438 222.64844 C 276.58362 209.42068 276.90674 174.04361 267.32617 141.39258 C 272.70809 152.81917 277.27637 165.08896 280.75391 178.16016 C 285.80691 160.16216 300.42969 141.29297 300.42969 141.29297 L 338.81641 190.25586 C 340.12411 190.00249 341.37755 189.64621 342.60547 189.21875 C 338.37498 193.58577 334.80882 198.96741 332.38281 205.00781 C 324.24581 225.26582 336.60119 252.84785 367.36719 264.33984 C 382.03719 266.10382 388.75013 264.66101 399.20312 251.24414 C 409.65712 237.82814 404.90414 228.84911 401.99414 219.49414 C 399.08414 210.14011 393.61748 188.59902 377.52148 180.20703 C 374.00048 178.37105 370.25208 177.55428 366.45508 177.61328 C 364.82083 177.6386 363.17772 177.83452 361.54102 178.17188 C 362.63557 177.46739 363.75568 176.75314 364.94336 176.03125 C 364.94336 176.03125 344.83627 81.588977 320.32227 56.042969 C 299.25426 34.089968 255.95464 4.4188766 204.68164 4.921875 z M 175.24414 51.101562 C 178.61929 51.4186 181.90772 51.803927 185.06445 52.277344 C 190.80796 55.190468 196.61363 58.680466 202.39062 62.699219 C 193.65425 58.061071 184.51212 54.218671 175.24414 51.101562 z" fill="#FFFFFF" transform="translate(48.370887,-82.791098) matrix(0.26458333,0,0,0.26458333,-48.370887,82.791098)"/>
    <path d="M 11.025947,82.792686 H 9.5268174 c -11.1426624,0.04101 -21.8122494,2.520421 -30.4741784,7.083954 -19.162448,10.093325 -21.360342,11.70437 -24.56815,18.0086 -3.150394,6.19204 -3.698875,10.54417 -1.620573,12.84102 2.179638,2.55244 3.144308,5.63272 7.615767,-1.5539 2.829454,-4.47278 3.536156,-4.90749 11.468893,-7.04717 7.328165,-1.97776 9.321536,-2.12831 14.987852,-1.13004 10.3243062,2.17594 18.7137145,6.19919 24.376856,14.53356 l 2.044171,4.44209 c 1.125008,2.4437 2.801408,7.39564 3.726921,11.00641 0.924718,3.60944 1.518973,7.05008 1.3208,7.6446 0.276489,3.31311 1.789906,6.34312 4.52755,1.00039 1.484577,-2.79082 2.323835,-9.48769 2.669381,-11.63531 0.713846,-4.43098 4.753504,-14.06234 5.897827,-14.06234 0.416189,0 1.363398,1.46235 2.103966,3.24987 0.74004,1.78753 2.319073,3.9325 3.507317,4.76462 1.802871,1.26259 1.933575,1.78885 0.790046,3.16733 -0.909638,1.09775 -1.203854,3.68723 -0.869686,7.71154 0.429948,5.19086 1.008592,6.5114 4.034896,9.2165 3.295386,2.94349 3.935942,3.10965 9.520767,2.4683 8.687064,-0.99828 10.7442,-5.14536 5.341937,-10.76643 -2.006071,-2.08597 -5.277114,-1.30175 -2.744258,1.96744 1.959239,3.70708 0.54901,4.81648 -4.034367,3.88329 -5.71156,0 -8.08011,-2.59133 -8.08011,-8.84026 0,-4.56088 3.729831,-9.33741 7.292181,-9.33741 2.644246,0 7.898077,4.12539 7.034213,5.52318 -0.733955,1.18745 2.779977,8.37671 4.094691,8.37671 1.475581,0 0.872067,-5.04561 -0.765704,-6.40477 -0.875771,-0.7276 -1.315244,-1.76953 -0.976842,-2.31696 0.94959,-1.53643 -2.581275,-6.22564 -5.534554,-7.34853 -2.937404,-1.11707 -2.877343,-0.98055 -4.667779,-10.55476 C 44.495209,102.36524 37.197736,91.620244 25.148082,85.703102 20.252232,83.29804 18.171549,82.814382 11.025947,82.791098 Z m -2.3801921,3.316287 c 5.3644271,0.0053 9.9655311,0.82894 13.1810121,2.470415 6.529388,3.33375 13.264092,8.93736 15.934002,13.256682 2.404004,3.88938 8.01079,25.88974 7.010929,27.50794 v 0 c -1.014148,1.64094 -4.313766,1.13215 -6.205008,-0.95674 -0.972079,-1.07473 -2.928144,-4.80377 -4.344194,-8.28675 -2.920735,-7.17761 -5.288491,-8.24336 -5.754687,-2.59 -0.584465,7.09295 -1.346994,6.85059 -5.659967,-1.79943 C 18.234255,106.53772 11.100559,98.436969 5.0797008,95.579469 0.07695919,93.205892 -10.879966,91.570502 -16.667726,92.334884 c -7.06411,0.931862 -3.27369,-0.968905 7.5504145,-3.785923 6.2700957,-1.632479 12.3981102,-2.445809 17.7628018,-2.440517 z M -12.33147,96.613725 c 10.5769834,-0.103187 18.3091666,3.157273 25.227492,10.382775 7.104327,7.42104 9.999926,14.30655 9.999926,23.78102 0,4.39632 -0.426243,8.255 -0.946414,8.57673 -0.520171,0.32174 -1.502833,-1.62957 -2.1844,-4.3352 -1.935956,-7.68694 -7.0993,-16.97143 -11.4202103,-20.53299 -6.1854291,-5.09931 -15.6254978,-8.1907 -25.0126497,-8.19864 -6.938698,-0.003 -8.999802,0.47757 -15.288154,3.57135 -5.442744,2.67864 -7.982214,4.69238 -10.113433,8.01978 -3.284273,5.12842 -4.502415,3.40678 -2.348177,-3.31761 3.234002,-10.0965 10.835216,-15.526013 24.284252,-17.345817 2.768864,-0.37465 5.360722,-0.577585 7.801768,-0.601398 z" fill="#00B894" transform="translate(48.370887,-82.791098)"/>
</svg>