<?xml version="1.0" ?><svg height="130.99123mm" viewBox="0 0 116.49554 130.99123" width="116.49554mm" xmlns="http://www.w3.org/2000/svg">
    <path d="m 32504.844,22681.461 6.774,-84.766 c 0,0 -14.3,-0.484 -10.752,-25.062 3.548,-24.578 39.998,-64.961 69.458,-78.121 29.461,-13.16 40.643,-25.32 102.897,-38.576 62.254,-13.257 116.874,22.739 141.389,48.285 24.514,25.546 44.62,119.987 44.62,119.987 0,0 31.826,7.935 35.374,42.19 3.549,34.254 6.753,30.879 -13.773,44.243 -20.525,13.365 -54.072,-4.57 -54.179,-33.793 -0.108,-29.223 6.451,-38.415 6.451,-38.415 l -38.385,-48.963 c 0,0 -14.622,18.869 -19.676,36.867 -5.053,17.998 -30.535,92.604 -30.535,92.604 0,0 11.719,60.187 1.827,89.99 -9.891,29.804 -81.5,88.443 -92.037,91.926 -10.537,3.484 -27.525,-8.321 -27.525,-8.321 0,0 -32.041,37.834 -46.018,42.286 -13.978,4.451 -25.16,-4.065 -35.375,-21.772 -10.214,-17.708 -44.835,-66.768 -53.007,-95.216 -8.171,-28.449 -16.88,-17.418 -9.892,-48.77 6.989,-31.351 1.721,-63.283 22.364,-86.603 z" fill="#FFFFFF" paint-order="markers stroke fill" transform="translate(117.96802,136.55513) matrix(0.26458333,0,0,0.26458333,-8707.6217,-6075.7049)"/>
    <path d="m 32532.579,22896.914 c -3.004,-10.03 -8.4,-17.396 -15.086,-20.599 -12.667,-6.072 -19.269,-19.106 -25.366,-50.076 -2.547,-12.948 -6.581,-20.859 -14.238,-25.178 -17.081,-9.635 -6.58,-51.629 -1.294,-75.153 2.498,-11.112 8.631,-26.57 13.628,-34.351 6.392,-9.947 8.427,-17.741 6.859,-26.27 -1.951,-10.608 -4.122,-12.279 -17.367,-13.376 -19.703,-1.634 -19.879,-10.967 -0.304,-15.597 12.797,-3.029 15.644,-5.904 20.623,-20.845 5.216,-15.646 5.111,-18.068 -1.079,-24.909 -7.855,-8.681 -5.781,-25.131 6.126,-48.534 12.124,-23.827 20.429,-29.916 92.854,-68.064 32.738,-17.248 73.065,-26.619 115.179,-26.774 31.671,-0.128 39.304,1.304 59.041,11 45.542,22.364 73.122,62.976 84.655,124.654 6.767,36.186 6.54,35.67 17.643,39.892 11.161,4.244 24.507,21.967 20.918,27.774 -1.279,2.069 0.381,6.007 3.691,8.757 6.19,5.137 8.473,24.208 2.896,24.208 -4.969,0 -18.251,-27.173 -15.477,-31.661 3.265,-5.283 -16.592,-20.875 -26.586,-20.875 -13.464,0 -27.561,18.052 -27.561,35.29 0,23.618 8.953,33.414 30.54,33.414 17.323,3.527 22.653,-0.667 15.248,-14.678 -9.573,-12.356 2.789,-15.321 10.371,-7.437 20.418,21.245 12.643,36.919 -20.19,40.692 -21.108,2.425 -23.53,1.797 -35.985,-9.328 -11.438,-10.224 -13.624,-15.215 -15.249,-34.834 -1.263,-15.21 -0.151,-24.998 3.287,-29.147 4.322,-5.21 3.827,-7.198 -2.987,-11.97 -4.491,-3.145 -10.459,-11.251 -13.256,-18.007 -2.799,-6.756 -6.378,-12.285 -7.951,-12.285 -4.325,0 -19.593,36.403 -22.291,53.15 -1.306,8.117 -4.479,33.428 -10.09,43.976 -5.61,10.547 -10.251,17.307 -8.935,20.733 1.312,3.425 1.942,15.401 3.058,33.173 1.684,26.894 0.539,36.08 -6.827,54.811 -4.865,12.373 -12.144,26.012 -16.175,30.309 -6.788,7.236 -7.527,7.299 -9.997,0.859 -1.514,-3.941 -0.03,-9.948 3.421,-13.874 6.562,-7.459 9.98,-23.985 13.622,-65.874 1.898,-21.826 0.843,-29.501 -5.853,-42.625 -9.423,-18.472 -47.884,-54.634 -71.478,-67.208 -22.845,-12.173 -73.33,-12.424 -99.218,-0.494 -40.431,18.635 -64.768,50.486 -73.961,96.803 -3.057,15.409 -6.953,31.31 -8.656,35.333 -2.334,5.511 -0.963,7.871 5.553,9.579 5.119,1.335 9.606,6.604 10.981,12.889 7.828,35.725 15.552,55.581 25.243,64.875 5.974,5.731 12.884,15.014 15.352,20.635 7.099,16.143 25.727,36.261 33.581,36.261 7.453,0 44.651,-36.888 44.651,-44.282 0,-9.078 15.338,-4.009 17.824,5.89 3.705,14.764 12.149,12.439 29.284,-8.057 16.495,-19.736 28.572,-19.364 15.574,0.476 -17.605,26.87 -38.365,36.978 -48.227,23.484 -3.975,-5.43 -7.782,-3.16 -27.113,16.168 -13.037,13.037 -26.11,21.781 -30.989,22.488 -16.615,2.408 -36.014,-26.686 -41.917,-45.211 z m 209.099,-229.814 c -3.498,-13.647 -9.833,-32.365 -14.085,-41.601 l -7.727,-16.789 -0.339,30.931 c -0.324,29.34 0.331,31.689 12.722,45.684 7.183,8.115 13.673,12.916 14.421,10.667 0.749,-2.247 -1.497,-15.25 -4.992,-28.892 z m -165.962,-32.263 c 45.302,-10.911 71.628,-8.953 103.984,7.736 l 23.321,12.027 -0.479,-24.966 c -0.831,-43.372 -2.908,-47.876 -27.846,-60.358 -12.244,-6.129 -33.376,-13.104 -46.963,-15.496 -21.416,-3.773 -28.95,-3.203 -56.647,4.272 -29.982,8.087 -32.653,9.729 -43.347,26.634 -12.197,19.277 -19.075,50.29 -11.155,50.29 6.768,0 5.553,12.004 -1.488,14.706 -3.334,1.28 -6.063,5.854 -6.063,10.167 0,7.015 1.601,6.568 15.156,-4.204 10.535,-8.374 26.245,-14.718 51.527,-20.808 z m -11.839,-22.805 c -3.461,-9.021 8.012,-20.89 14.207,-14.698 3.231,3.231 3.201,6.768 -0.128,12.961 -5.495,10.269 -10.577,10.896 -14.093,1.737 z m 48.437,-0.937 c -3.426,-5.544 1.925,-16.531 8.053,-16.531 7.253,0 10.476,5.947 7.467,13.783 -2.684,6.997 -11.883,8.628 -15.52,2.748 z m 151.328,17.447 c 0,-35.809 -10.943,-61.833 -37.794,-89.881 -32.182,-33.611 -69.024,-44.522 -124.835,-36.969 -50.831,6.878 -79.559,27.399 -91.782,65.559 -8.143,25.415 -3.538,31.923 8.875,12.54 8.054,-12.576 17.653,-20.187 38.224,-30.311 23.767,-11.693 31.556,-13.513 57.781,-13.498 35.478,0.03 71.157,11.715 94.535,30.987 16.332,13.462 35.848,48.551 43.165,77.604 2.576,10.226 6.29,17.602 8.256,16.386 1.965,-1.216 3.575,-15.801 3.575,-32.417 z m 82.681,-5.417 c 3.779,-6.116 -17.412,-89.268 -26.498,-103.968 -10.091,-16.325 -35.546,-37.503 -60.224,-50.103 -24.306,-12.409 -69.557,-12.455 -116.953,-0.114 -40.91,10.647 -55.237,17.832 -28.537,14.31 21.875,-2.889 63.288,3.292 82.196,12.263 22.756,10.8 49.718,41.417 67.004,76.088 16.301,32.693 19.183,33.608 21.393,6.8 1.761,-21.367 10.709,-17.338 21.748,9.79 5.352,13.164 12.745,27.258 16.419,31.32 7.148,7.895 19.62,9.817 23.452,3.615 z m -155.428,252.045 c 0,-1.632 5.002,-13.149 11.116,-25.596 10.209,-20.789 14.243,-22.933 15.432,-12.582 1.367,11.887 -12.143,38.513 -20.627,41.34 -2.759,0.918 -5.921,-1.532 -5.921,-3.162 z m -115.318,-155.126 c -12.124,-4.914 -18.841,-14.687 -17.347,-25.232 1.016,-7.167 9.227,-13.282 35.579,-26.494 33.754,-16.923 49.321,-20.429 60.175,-13.552 4.532,2.87 4.635,6.196 0.585,18.472 -11.921,36.12 -49.872,58.608 -78.992,46.806 z m 49.509,-30.052 c 12.327,-13.45 17.387,-26.723 10.185,-26.723 -2.928,0 -27.677,9.071 -56.523,20.717 -23.879,9.638 -13.252,25.532 15.014,22.457 14.196,-1.547 20.886,-5.058 31.324,-16.451 z" fill="#00B894" transform="translate(117.96802,136.55513) matrix(0.26458333,0,0,0.26458333,-8707.6217,-6075.7049)"/>
</svg>