<?xml version="1.0" ?><svg height="109.11416mm" viewBox="0 0 120.0931 109.11416" width="120.0931mm" xmlns="http://www.w3.org/2000/svg">
    <path d="m 32502.518,23318.106 c 0,0 -16.943,-3.128 -19.028,-30.574 -2.085,-27.446 -2.954,-44.493 21.374,-71.235 24.328,-26.743 47.614,-58.334 103.482,-82.183 55.868,-23.849 136.933,-14.779 181.94,32.998 45.007,47.777 69.77,103.217 69.77,103.217 0,0 41.444,-5.239 46.831,27.368 5.387,32.607 -17.203,45.04 -35.797,51.374 -18.594,6.334 -40.228,-10.791 -41.705,-35.657 -1.477,-24.865 3.214,-32.92 -14.684,-41.99 -17.899,-9.071 -22.156,-12.198 -25.805,7.037 -3.65,19.236 -46.224,142.237 -87.669,166.008 -41.445,23.771 -89.667,41.521 -143.362,12.824 -53.696,-28.698 -55.347,-139.187 -55.347,-139.187 z" fill="#FFFFFF" paint-order="markers stroke fill" transform="translate(130.35012,106.7178) matrix(0.26458333,0,0,0.26458333,-8719.5121,-6221.2488)"/>
    <path d="m 32478.557,23509.565 c -9.158,-10.884 -10.564,-16.102 -10.076,-37.384 0.312,-13.605 -0.67,-30.288 -2.182,-37.074 -2.262,-10.144 -0.709,-14.495 8.704,-24.441 6.303,-6.652 15.6,-14.944 20.66,-18.424 7.663,-5.271 9.17,-12.478 5.976,-20.881 -3.163,-8.316 -3.231,-3.798 -20.289,-3.66 -22.742,0.184 -26.169,-14.669 -0.08,-18.13 11.164,-1.48 16.28,-3.492 17.253,-5.062 0.969,-1.574 2.221,-15.215 2.78,-30.317 1.285,-34.749 6.531,-41.607 47.572,-62.149 88.83,-44.461 174.793,-26.299 212.317,44.863 4.396,8.336 9.285,15.155 10.868,15.155 4.476,0 8.546,-34.468 5.321,-45.069 -4.179,-13.729 -32.958,-50.198 -50.718,-64.263 -26.378,-20.891 -50.306,-29.141 -84.533,-29.141 -72.426,0 -136.159,35.327 -151.452,83.949 -5.567,17.701 -6.092,24.857 -2.555,35.002 5.314,15.243 1.977,20.593 -6.025,9.65 -6.747,-9.226 -7.408,-34.444 -1.467,-55.844 2.434,-8.759 13.307,-25.021 25.667,-38.391 11.797,-12.76 29.216,-31.838 38.709,-42.395 28.104,-31.259 86.236,-55.421 133.59,-55.52 30.207,-0.06 66.478,9.905 89.305,24.555 31.092,19.954 88.354,99.443 88.354,122.652 0,4.354 3.849,6.316 12.391,6.316 14.955,0 28.025,6.402 28.025,13.727 0,4.257 -3.253,4.49 -15.823,1.134 -14.385,-3.837 -17.131,-3.219 -30.309,6.832 -16.192,12.349 -18.384,23.718 -8.323,43.171 4.91,9.496 8.84,11.924 19.306,11.924 16.096,0 31.104,-9.863 31.104,-20.438 0,-10.281 6.63,-10.039 12.244,0.449 3.816,7.132 2.198,10.542 -11.505,24.249 -19.181,19.176 -38.255,21.541 -55.281,6.852 -11.512,-9.929 -18.947,-34.66 -15.54,-51.691 1.676,-8.379 -0.304,-12.691 -8.882,-19.445 -6.067,-4.774 -12.206,-8.68 -13.636,-8.68 -4.228,0 -17.935,58.12 -14.028,59.492 12.391,4.348 24.086,12.688 31.165,22.231 6.709,9.033 7.368,12.743 3.707,20.78 -3.788,8.318 -3.046,11.109 4.964,18.634 12.683,11.916 19.229,38.826 14.026,57.666 -3.302,11.959 -7.756,16.427 -24.916,24.977 -23.516,11.721 -42.628,13.19 -59.304,4.568 -6.217,-3.216 -14.952,-4.893 -19.414,-3.726 -5.087,1.332 -12.377,-1.548 -19.56,-7.729 l -11.452,-9.849 -22.101,10.118 c -28.186,12.903 -67.751,15.962 -95.421,7.376 -11.009,-3.42 -20.178,-5.826 -20.374,-5.35 -0.213,0.472 -5.357,8.659 -11.465,18.194 -22.101,34.489 -57.61,43.924 -77.288,20.537 z m 193.961,-61.576 c 25.304,-11.782 49.98,-39.292 68.564,-76.434 22.004,-43.987 17.968,-69.008 -15.948,-98.861 -27.381,-24.103 -50.301,-30.607 -100.618,-28.546 -36.785,1.506 -44.284,3.192 -72.002,16.17 -38.725,18.138 -44.626,26.429 -43.02,60.437 l 1.216,25.657 13.378,1.286 c 16.107,1.545 16.617,13.109 0.747,16.992 -8.336,2.04 -9.857,4.521 -8.77,14.322 2.09,18.81 21.038,49.666 36.291,59.092 35.797,22.124 85.161,26.186 120.162,9.885 z m -83.319,-12.131 c -19.984,-7.144 -31.62,-15.937 -40.577,-30.665 -5.596,-9.202 -6.281,-12.912 -2.564,-13.916 2.786,-0.75 23.252,-5.173 45.481,-9.823 29.083,-6.089 51.336,-14.028 79.386,-28.315 21.435,-10.924 40.84,-18.705 43.126,-17.293 7.429,4.592 9.711,23.934 4.676,39.652 -8.741,27.287 -34.072,48.001 -72.745,59.485 -25.654,7.617 -37.418,7.798 -56.783,0.875 z m 55.994,-20.422 c 25.371,-8.955 47.319,-25.364 54.741,-40.931 11.743,-24.625 8.784,-26.689 -16.455,-11.485 -27.988,16.858 -64.688,28.712 -100.116,32.344 -14.396,1.476 -26.179,4.207 -26.179,6.069 0,1.863 6.821,6.985 15.156,11.388 18.196,9.605 49.821,10.74 72.853,2.615 z m -98.018,-110.345 c -4.608,-7.459 2.092,-21.321 10.552,-21.321 6.423,0 8.492,3.923 7.36,12.717 -1.798,13.961 -12.982,16.582 -17.912,8.604 z m 53.26,-3.668 c -5.047,-5.045 -3.007,-20.563 3.396,-25.877 8.552,-7.098 14.969,0.03 13.28,14.771 -1.263,11.036 -10.56,17.225 -16.676,11.106 z m 245.621,-27.992 c 5.738,-4.34 6.88,-7.626 4.039,-11.649 -12.327,-17.489 -54.454,-71.871 -69.422,-89.621 -22.572,-26.77 -54.704,-41.808 -95.403,-44.653 -37.906,-2.653 -91.935,12.393 -120.925,33.678 -10.815,7.937 -18.881,15.218 -17.92,16.175 0.958,0.958 13.975,-2.211 28.93,-7.041 54.72,-17.679 104.63,-16.594 138.466,3.005 22.156,12.836 61.127,51.885 72.081,72.226 4.449,8.263 10.608,13.97 15.073,13.97 8.647,0 31.026,12.289 31.026,17.037 0,4.763 5.128,3.62 14.055,-3.127 z m 51.618,30.483 c -15.656,-14.239 -16.08,-16.103 -3.659,-16.103 10.733,0 22.855,11.423 22.855,21.534 0,9.473 -4.088,8.315 -19.196,-5.431 z" fill="#00B894" transform="translate(130.35012,106.7178) matrix(0.26458333,0,0,0.26458333,-8719.5121,-6221.2488)"/>
</svg>