<?xml version="1.0" ?><svg height="81.089081mm" viewBox="0 0 60.957584 81.089081" width="60.957584mm" xmlns="http://www.w3.org/2000/svg">
    <path d="M 159.53516 4.3554688 C 157.18316 4.3954687 154.76506 4.7215313 152.28906 5.3945312 C 132.48006 10.778531 135.02786 14.06425 125.00586 40.28125 C 114.98286 66.49825 131.01547 80.302359 148.35547 89.318359 C 148.35547 89.318359 184.81109 89.526578 196.37109 85.642578 C 207.93109 81.758578 215.71241 59.702125 214.94141 48.328125 C 214.17141 36.953125 205.3882 20.445578 196.7832 18.767578 C 189.2552 17.299578 176.00116 4.0404688 159.53516 4.3554688 z M 142.2793 97.695312 C 140.98667 97.764853 138.16912 104.80955 126.26562 120.30273 C 101.30663 158.69873 85.623093 172.44803 59.871094 196.83203 C 34.118094 221.21603 38.543953 218.0788 34.251953 242.3418 C 48.072928 233.7162 60.592598 226.84529 72.21875 221.48438 C 59.539761 229.26694 47.308428 238.49787 38.074219 247.80078 C 15.493219 270.54978 2.6213908 286.64019 13.025391 294.61719 C 13.025391 294.61719 16.261703 299.26448 30.595703 293.02148 C 44.930703 286.77948 72.137719 270.96519 102.88672 260.49219 C 133.63672 250.01919 171.86291 280.33064 195.75391 276.93164 C 219.64391 273.53364 227.73537 259.79987 211.85938 239.54688 C 201.33854 226.12652 174.82966 213.13254 151.93945 206.25586 C 168.97479 207.88754 186.46641 212.28534 206.60938 218.19922 C 202.18338 180.65722 173.47844 149.63309 155.77344 128.87109 C 143.08231 109.04409 143.94125 97.605904 142.2793 97.695312 z" fill="#FFFFFF" transform="translate(-160.07921,-103.37091) matrix(0.26458333,0,0,0.26458333,-10310.04,-7957.6688) translate(39572.105,30466.922)"/>
    <path d="m 39744.2,30466.933 c -9.112,0.379 -24.647,10.752 -24.812,19.107 -0.03,1.667 1.758,3.029 3.98,3.029 2.225,0 4.045,-1.42 4.045,-3.154 0,-1.737 5.622,-5.277 12.492,-7.871 6.872,-2.596 11.352,-6.56 9.961,-8.816 -1.066,-1.725 -3.114,-2.402 -5.666,-2.295 z m -37.068,14.054 c -2.255,0 -7.799,5.91 -12.319,13.133 -7.349,11.749 -7.944,17.234 -5.607,51.975 3.233,48.133 0.83,53.513 -40.701,91.08 -33.735,30.517 -46.391,47.697 -46.391,62.976 0,5.547 -5.455,16.949 -12.125,25.342 -6.668,8.388 -10.773,17.413 -12.123,18.881 -13.386,14.557 -3,40.141 26.514,23.713 3.246,-2.323 6.957,-4.827 11.183,-7.496 33.335,-21.057 52.095,-30.911 76.868,-20.693 45.572,18.797 59.943,10.294 94.029,4.064 26.01,-7.909 15.36,-27.974 3.084,-43.814 -2.92,-3.843 -5.375,-16.081 -5.455,-27.196 -0.164,-23.085 -9.029,-40.359 -30.301,-59.037 -17.552,-15.41 -31.927,-38.337 -28.932,-46.142 1.595,-4.156 8.418,-5.957 22.528,-5.957 17.023,0 21.271,-1.577 26.73,-9.907 3.832,-5.832 5.411,-13.311 3.862,-18.185 -3.292,-10.376 -10.166,-10.847 -10.166,-0.696 0,12.713 -10.41,17.907 -31.194,15.563 -29.64,-3.34 -44.207,-27.074 -31.838,-51.871 7.609,-15.249 7.683,-15.733 2.354,-15.733 z m 61.754,4.703 c -9.002,-0.215 -19.137,1.887 -18.397,5.399 0.466,2.225 6.833,5.056 14.147,6.293 14.948,2.533 23.4,-1.842 16.634,-8.608 -1.991,-1.992 -6.984,-2.954 -12.384,-3.084 z m 6.213,19.543 c -9.536,0 -9.179,3.517 1.511,14.895 10.552,11.234 15.463,11.892 15.463,2.08 0,-9.311 -7.662,-16.975 -16.974,-16.975 z m -64.358,85.459 c 2.337,0 5.406,3.819 9.998,11.594 3.958,6.699 14.213,20.288 22.791,30.199 15.539,17.953 23.054,32.949 18.697,37.309 -1.26,1.258 -4.608,0.39 -7.439,-1.932 -2.831,-2.322 -12.899,-6.296 -22.373,-8.83 -20.714,-5.537 -59.377,0.243 -81.57,12.198 -7.902,4.253 -20.579,12.749 -28.168,18.875 -12.467,10.059 -13.342,10.271 -9.033,2.193 2.625,-4.919 13.296,-15.829 23.71,-24.248 35.978,-29.071 66.022,-59.196 68.37,-68.557 1.464,-5.835 2.955,-8.802 5.017,-8.801 z m -3.015,86.137 c 7.054,-0.153 13.786,0.597 20.082,2.293 17.656,4.753 49.505,27.58 51.271,36.746 1.352,7.029 -14.916,15.686 -29.48,15.686 -5.372,0 -18.993,-3.636 -30.27,-8.084 -11.279,-4.446 -29.078,-8.075 -39.553,-8.045 -22.245,0.05 -54.783,14.019 -69.259,29.738 -10.954,11.894 -11.956,12.207 -20.514,6.397 -4.989,-3.39 -1.979,-7.896 17.047,-25.493 33.473,-30.968 70.105,-48.576 100.676,-49.238 z" fill="#00B894" transform="translate(-160.07921,-103.37091) matrix(0.26458333,0,0,0.26458333,-10310.04,-7957.6688)"/>
</svg>