<?xml version="1.0" ?><svg height="328.11182mm" viewBox="0 0 149.74313 328.11182" width="149.74313mm" xmlns="http://www.w3.org/2000/svg"><path color="#000" d="m 15211.555,5489.2754 c -47.48,-0.068 -96.268,40.3572 -111.102,86.4453 -15.823,49.1606 -22.568,119.1454 79.52,146.6113 83.174,-8.3171 76.753,-52.8803 92.845,-110.83 12.697,-45.7234 -1.504,-115.6662 -51.795,-121.6622 -3.143,-0.3747 -6.303,-0.5599 -9.468,-0.5644 z m -49.004,271.5195 c -48.217,-0.2856 -78.775,24.3564 -98.578,77 -37.812,100.5192 -14.345,295.6138 24.341,391.1641 0,0 22.569,20.8899 93.278,16.6348 70.709,-4.2553 100.152,-23.9847 77.316,-80.5899 -22.836,-56.6052 34.658,-225.7904 46.694,-318.4394 12.035,-92.649 -43.253,-69.7173 -110.686,-82.3965 -11.59,-2.1793 -22.358,-3.3138 -32.365,-3.3731 z" fill="#FFFFFF" overflow="visible" paint-order="fill markers stroke" transform="translate(-30.961734,15.889227) matrix(0.26458333,0,0,0.26458333,-3904.2676,-1158.1037) translate(-33.44289,-1165.0869)"/><path d="m 15094.654,4357.4112 c -5.336,5.5562 -10.219,10.4678 -15.626,15.9205 -4.022,-2.9616 -8.911,-3.2789 -13.053,-5.8741 -23.535,-8.451 -12.734,10.7968 -1.375,16.6255 5.005,2.4891 5.567,3.9447 2.801,7.2647 -15.505,24.8611 -23.394,68.0941 -16.955,90.0148 9.963,33.9143 27.252,64.1602 60.836,76.6286 1.314,0.4744 2.86,1.2616 3.437,1.7489 29.048,10.8762 70.762,4.4007 93.966,-16.6465 45.957,-21.6582 66.812,-202.5858 -2.282,-222.3944 -41.939,-12.5201 -84.958,8.8134 -111.749,36.712 z m 133.998,21.2032 c 1.727,10.1623 2.665,34.9409 1.353,35.7513 -0.333,0.2055 -1.006,-0.1106 -1.496,-0.7012 -6.255,-3.8169 -9.977,5.8941 -12.742,7.706 -16.02,27.1952 -46.336,35.9019 -89.614,20.511 -10.489,-3.9494 -8.686,5.3192 -4.662,8.7959 47.86,35.074 80.867,7.4132 105.499,-16.2771 1.6,-1.5706 3.078,-2.6866 3.285,-2.4802 2.47,12.5578 -4.711,45.6038 -8.844,56.558 -1.155,2.9455 -4.936,11.3225 -5.929,13.1377 -18.119,50.585 -103.181,60.1002 -130.267,16.7824 -0.79,-1.3127 -1.786,-2.6935 -2.212,-3.0685 -21.903,-24.9157 -24.808,-81.985 -4.192,-108.7579 1.669,-2.8399 5.967,-13.244 8.504,-12.5805 8.962,3.5724 21.441,14.3373 26.043,4.1013 3.055,-6.9057 -0.559,-11.5609 -12.505,-16.1043 -2.164,-0.8225 -4.102,-1.7691 -4.309,-2.1034 14.224,-18.6315 36.159,-34.1116 55.289,-44.3753 34.84,-16.6643 68.876,0.5168 76.799,43.1048 z m -106.876,-16.7543 c -3.637,3.4233 -8.35,7.2088 -5.248,12.001 1.661,2.4268 2.225,2.6861 5.868,2.6979 3.618,0.012 5.615,-0.8306 9.683,-4.0822 3.684,-2.9433 7.406,-4.7801 8.419,-4.1542 0.457,0.283 1.104,2.0242 1.435,3.8694 0.967,5.3853 2.479,8.7201 4.516,9.9624 1.774,1.0821 2.851,1.1059 7.553,0.1698 2.4,-0.4778 3.097,-3.7283 2.251,-10.4837 -5.064,-19.6944 -21.608,-22.5035 -34.477,-9.9804 z m 55.775,9.425 c -2.633,2.5077 -4.9,6.3439 -4.889,8.2764 0.02,2.8204 0.684,3.7417 3.828,5.2509 4.992,2.397 8.948,1.1006 15.275,-5.0043 1.459,-1.4063 3.007,-2.557 3.441,-2.557 0.434,0 1.857,-0.9369 3.16,-2.0825 1.306,-1.1457 2.84,-1.9891 3.41,-1.8749 0.594,0.1193 1.557,1.9004 2.263,4.1822 0.675,2.1858 1.667,4.4872 2.205,5.114 0.536,0.6269 1.166,1.676 1.398,2.3323 0.456,1.2844 2.843,1.6299 3.534,0.5114 0.231,-0.375 1.324,-0.6812 2.427,-0.6812 2.005,0 4.658,-1.9717 4.817,-3.5798 0.386,-3.8905 -0.385,-8.5229 -1.691,-10.1361 -0.803,-0.9933 -2.227,-2.769 -3.166,-3.9455 -12.477,-12.8551 -25.817,-5.3921 -36.012,4.1941 z m -138.515,255.1342 c -1.734,3.7332 -5.289,5.5036 -8.142,7.6641 -109.43,69.9394 -197.36,134.5106 -138.96,194.8255 47.595,63.0312 80.797,79.5955 104.109,104.2204 0,0.2716 0.933,0.9743 2.07,1.5622 3.814,3.0161 4.761,7.566 8.116,11.165 2.417,2.5449 2.813,3.3614 2.638,5.4544 -13.913,10.813 -7.79,26.3608 -29.785,29.8348 -10.799,1.7053 -28.072,5.7612 -15.752,16.757 4.843,1.7715 12.605,2.445 17.982,0.5085 7.61,-2.7745 11.8,-1.3267 4.703,1.8571 -5.813,3.0322 -12.621,4.3015 -18.898,5.2864 -14.137,0.8804 -8.772,12.1526 -3.427,11.4023 14.399,1.7925 26.751,-1.2677 37.985,-8.6794 1.408,-0.9248 4.558,-3.3762 7.001,-5.4477 5.383,-6.3367 6.358,0.1783 5.747,1.7203 -4.512,14.8965 -14.489,14.6063 -21.309,23.1346 -5.998,7.5019 -4.099,13.4831 6.341,12.0091 8.236,-1.5635 15.579,-8.0805 21.139,-14.4022 3.804,-4.356 4.641,-4.9501 5.018,-3.5589 8.426,21.6938 19.387,53.8958 25.049,59.2263 0.732,11.7102 3.345,54.3311 3.269,70.0956 4.615,107.554 10.974,230.5332 32.664,310.4865 8.548,31.5113 12.324,45.5679 4.802,53.8291 -10.611,14.6523 -43.745,19.5905 -48.776,30.3446 -20.627,31.6836 63.685,-10.9678 74.387,-26.3593 0.44,-0.8218 0.796,-5.5952 0.85,-11.4276 -2.572,-11.864 -4.986,-21.1267 -7.75,-37.5312 -0.496,-0.9246 -1.453,-5.2133 -2.128,-9.5299 -20.241,-81.2139 -36.476,-213.6275 -36.739,-294.1356 -0.09,-29.0266 -1.214,-70.6323 -2.268,-77.2981 -0.71,-4.4895 0,-5.0902 4.496,-3.7575 3.568,1.0593 14.451,3.5817 25.359,3.8975 32.835,2.833 61.23,3.1305 91.553,-1.4709 3.561,-0.5384 8.26,-1.3286 10.437,-1.7569 2.179,-0.4285 4.109,-0.6294 4.292,-0.4465 0.183,0.1828 -0.03,1.766 -0.47,3.5179 6.436,134.62 -4.601,282.6432 -19.242,412.877 -2.662,19.9463 -13.263,27.012 13.88,37.0867 l 0.05,-0.3854 c 19.239,4.1041 39.503,6.9405 56.162,10.7054 16.854,5.5294 27.808,-10.8481 9.363,-19.0287 -20.864,-5.8579 -40.243,-6.8092 -58.798,-12.2518 -3.06,-0.9196 -3.068,-0.9323 -2.945,-3.9005 15.9,-147.2802 25.807,-262.707 19.367,-423.6983 -0.406,-2.1964 -0.738,-4.7189 -0.738,-5.6055 0,-2.7289 2.843,-4.6376 8.33,-5.5946 18.567,-5.8728 15.695,-33.5843 11.486,-57.6616 -0.61,-3.2543 -0.718,-6.5016 -0.726,-9.7915 l 2.07,0.5932 c 11.862,8.2794 39.804,18.9221 46.685,-5.4486 -0.423,-2.5037 -0.353,-2.6132 2.51,-3.9983 1.619,-0.7833 4.17,-1.8471 5.671,-2.3631 8.394,-1.8865 7.208,-16.4917 -0.491,-14.4014 -10.421,1.979 -19.271,8.2523 -31.409,-0.9328 -3.304,-1.3412 -2.348,-2.5338 1.299,-1.6212 4.553,1.1391 8.981,0.8754 15.121,-0.9009 9.331,-2.4982 17.355,-13.5096 11.385,-19.3662 -2.34,-2.187 -9.421,-0.5085 -11.85,1.3882 -5.906,3.5148 -11.404,3.9066 -15.644,3.428 -6.517,-0.741 -10.621,-2.1873 -11.319,-3.9894 0.631,-10.2537 -0.559,-8.08 -3.118,-15.8984 0,-0.2878 0.844,-1.0757 1.875,-1.7499 65.719,-47.0379 124.879,-97.8602 158.364,-127.5782 63.694,-73.2839 11.521,-75.1428 -111.091,-189.3849 -23.533,-40.802 -203.003,-68.2595 -261.86,-3.5248 z m 189.87,-14.6598 c 12.327,2.3088 20.742,7.7011 28.696,15.398 5.878,5.7132 6.366,6.3968 7.064,9.9033 6.444,80.9759 -29.243,162.6205 -44.502,226.4348 -5.196,25.3328 -7.514,55.6658 -8.101,75.2761 -0.304,10.3365 0.827,38.0354 1.739,42.6173 0.561,2.8127 1.359,9.4094 1.777,14.6598 6.652,37.688 16.886,64.8452 -10.637,71.2119 -30.143,4.9235 -76.533,7.668 -105.811,4.1081 -35.134,-0.5494 -42.295,-30.1992 -51.809,-59.2958 -3.539,-10.8967 -4.909,-15.7915 -4.909,-17.5344 -4.443,-16.57 -7.278,-34.3217 -9.874,-50.9935 -1.782,-11.375 -3.419,-26.4948 -4.467,-41.2529 -7.598,-82.7183 -18.075,-198.1827 24.618,-259.0946 37.345,-50.3085 126.927,-36.8366 176.216,-31.4381 z m 54.232,23.3417 c 5.403,3.1714 8.496,7.9913 14.25,11.965 54.912,60.462 152.383,103.621 107.48,146.6947 -45.365,44.5374 -100.065,96.5403 -150.165,125.4626 -6.915,4.1257 -12.15,8.4522 -17.551,14.3432 -1.713,1.9192 -2.261,1.8353 -2.744,-0.4205 0.894,-21.8377 -0.434,-47.8567 8.46,-73.9655 16.496,-67.1724 51.487,-130.5279 39.948,-222.3066 -0.21,-1.1262 -0.129,-1.7305 0.322,-1.7729 z m -260.246,19.7698 c 0.05,0 0.08,0.016 0.115,0.042 0.47,0.4697 -1.548,9.3742 -2.352,10.3818 -24.177,69.7597 -21.29,161.0478 -16.784,228.4733 0.562,8.6256 1.102,16.7278 1.201,18.005 0.1,1.2772 -0.128,2.4197 -0.502,2.5381 -0.659,0.2076 -3.541,-2.1052 -8.524,-6.8392 -1.312,-1.2469 -3.307,-2.8399 -4.432,-3.5407 -1.125,-0.7008 -2.822,-2.0462 -3.77,-2.9905 -24.82,-22.9948 -51.967,-45.3957 -71.453,-67.9597 -72.313,-62.9963 33.508,-126.7453 98.577,-172.4467 2.157,-1.4045 4.762,-3.3294 5.789,-4.2779 0.899,-0.8302 1.786,-1.3974 2.135,-1.3856 z m 225.626,338.3531 c 0.895,0.045 2.376,0.6717 3.912,1.75 5.619,4.114 11.432,7.933 18.751,8.5749 1.666,1.3531 -1.522,3.3734 -3.41,3.6817 -6.924,-0.9195 -15.656,-2.3108 -20.114,-13.4313 -0.02,-0.4195 0.325,-0.6023 0.861,-0.5753 z" fill="#00B894" transform="translate(-30.961734,15.889227) matrix(0.26458333,0,0,0.26458333,-3904.2676,-1158.1037)"/></svg>