<?xml version="1.0" ?><svg height="120.34536mm" viewBox="0 0 38.228153 120.34536" width="38.228153mm" xmlns="http://www.w3.org/2000/svg">
    <path color="#000" d="m 1725.0329,1580.649 c -5.3004,-25.0339 6.8755,-81.0885 25.1579,-97.5603 21.455,-19.3302 11.1999,-61.9812 5.3492,-73.1138 -5.8507,-11.1325 -3.8448,-16.3979 30.8413,-20.0837 34.6862,-3.6858 33.5996,10.5308 25.4923,23.0173 -8.1074,12.4865 -15.4583,50.2905 13.1222,71.6094 25.347,18.9069 28.0747,92.8553 23.1519,98.839 -2.6173,3.1813 -46.1367,3.4602 -46.1367,3.4602 l -11.2834,214.6026 -19.8923,-216.9344 z" fill="#FFFFFF" overflow="visible" paint-order="fill markers stroke" transform="translate(-4.8470031,-98.236702) matrix(0.26458333,0,0,0.26458333,-449.08694,-267.00387)"/>
    <path d="m 1785.3817,1830.5533 c -12.5423,-78.4624 -14.0438,-164.9697 -19.0244,-238.2751 l -21.037,-0.6667 c -24.6799,-0.7821 -24.3576,-0.5972 -28.1716,-16.1604 -7.8327,-47.3658 16.8727,-78.8587 34.1993,-114.3433 10.317,-24.1939 -0.101,-40.0444 -10.5989,-55.823 -4.0654,-6.0985 -4.4692,-7.416 -3.1568,-10.2965 -1.281,-19.2366 129.5025,-22.7683 87.8122,10.2578 -15.9952,25.9033 -17.5219,41.2693 3.8775,70.3654 28.3059,31.8186 33.9662,65.4036 29.4873,103.0784 -3.9656,18.337 -17.7859,12.7061 -34.0965,13.2522 -10.3835,-2.1802 -11.6295,1.3647 -13.3399,12.0027 -14.5841,207.6299 -10.7139,246.8648 -25.9512,226.6085 z m 3.7478,-111.7394 c 2.1703,-48.0304 3.985,-83.6003 6.4548,-125.8691 h -15.4344 c 1.6299,48.9849 8.9232,99.3303 7.1213,139.3334 -0.1789,2.9333 0.039,4.9744 0.4823,4.5357 0.4441,-0.4387 1.0633,-8.5387 1.376,-18 z m 52.0756,-177.449 c -5.0572,-34.5683 -33.2969,-54.2162 -43.7472,-85.0867 -5.3172,-18.9396 0.3579,-40.0372 12.1576,-52.5761 12.1027,-14.1106 -37.7652,-4.5634 -44.4275,-4.1813 -6.4577,0.3185 -6.8452,2.0884 -2.4125,11.0172 9.2522,18.6369 12.7065,33.9203 9.7704,43.2277 -8.2879,33.9884 -48.0968,76.9436 -40.225,118.9006 0.7356,1.1595 4.9922,1.8123 13.0398,2 26.4382,2.8144 42.9683,1.7818 65.4566,2.7933 11.1627,0.4824 23.1475,-2.286 24.8182,-1.6152 14.9894,1.0629 6.3388,-31.226 5.5696,-34.4795 z" fill="#00B894" transform="translate(-4.8470031,-98.236702) matrix(0.26458333,0,0,0.26458333,-449.08694,-267.00387)"/>
</svg>