<?xml version="1.0" ?><svg height="155.00046mm" viewBox="0 0 107.88036 155.00046" width="107.88036mm" xmlns="http://www.w3.org/2000/svg">
    <path color="#000" d="m 1480.5645,421.9082 c -3.5468,-0.09 -7.7271,4.62423 -12.6739,13.39844 -11.3069,20.05535 -23.0736,37.56348 -64.3281,53.34961 -57.9439,22.17233 -40.5558,87.57152 -30.6621,90.50195 0,0 -249.3647,328.55445 -258.5859,359.08203 -22.3943,53.8432 -5.0391,54.06887 38.2656,17.10157 29.0366,-24.7873 225.6958,-273.13437 254.9336,-347.24414 19.9375,-1.41654 100.4203,-54.49918 83.8691,-160.44141 -2.7457,-17.57513 -6.2583,-25.63232 -10.8183,-25.74805 z" fill="#FFFFFF" overflow="visible" paint-order="fill markers stroke" transform="translate(82.560364,-8.3603143) matrix(0.26458333,0,0,0.26458333,-260.17244,-119.48835) translate(-422.30624,73.517667)"/>
    <path d="m 672.17675,1049.485 c 8.92039,-36.4101 38.41275,-88.82322 60.88626,-118.47347 32.14138,-50.1771 74.51064,-103.2538 105.22998,-149.3333 10.26885,-14.58 19.00648,-26.0762 28.53457,-40.1755 27.35957,-30.4427 42.95697,-55.2856 70.93542,-82.9018 l 5.03499,-4.9436 -2.7384,-5.6678 c -3.63391,-7.5214 -6.14376,-20.3035 -7.26013,-36.9744 -0.016,-16.0401 12.48487,-35.08783 23.26183,-42.18749 13.94994,-8.96137 30.63095,-13.60508 44.66743,-22.8914 17.7948,-13.2201 31.6182,-28.7608 41.4376,-47.3525 5.3734,-10.3497 11.108,-15.29956 14.6146,-15.3673 11.7426,-0.22685 11.9694,3.82798 16.0741,19.4048 2.5434,10.053 4.1572,20.6636 5.3317,35.0569 1.6507,23.9711 1.4017,37.3941 -5.7034,59.12819 -14.5598,36.66994 -41.5397,81.068 -79.96213,92.0711 -6.22094,2.39583 -8.48122,9.3051 -11.1315,14.5084 -25.09592,49.27083 -50.45933,92.1274 -84.10468,138.6792 -50.76674,64.1188 -79.7702,106.0516 -136.1403,164.51547 -33.15092,34.1972 -50.90589,49.567 -56.28734,55.2649 -10.52521,9.5983 -38.92436,13.1246 -32.6806,-12.3604 z m 26.624,-6.1804 c 2.52664,-2.4053 11.63659,-11.8553 20.24434,-21 8.60774,-9.1445 20.45774,-21.6885 26.33333,-27.8757 14.29396,-16.6459 27.48488,-32.713 41.34956,-49.58137 45.19954,-62.4792 87.20327,-103.7416 114.02536,-143.3662 5.32845,-7.0058 9.48698,-13.2957 12.64131,-17.3155 0,-0.858 -1.73733,-2.1657 -3.86073,-2.9059 -12.30078,-6.6763 -20.75887,-12.3267 -32.5979,-18.119 -9.8699,9.6571 -17.315,21.9815 -24.39304,32.6673 -48.41326,67.2136 -90.49188,127.0582 -127.95205,187.93127 -3.37539,5.4663 -11.5464,20.4387 -18.1578,33.272 -15.88579,30.8358 -17.21551,35.4167 -7.63238,26.2931 z M 933.74182,751.34493 c 11.02165,-18.5727 18.31945,-32.2078 18.31945,-34.2276 -7.3427,-7.3188 -13.81271,-11.955 -22.47266,-18.8179 -12.09889,14.84815 -30.42263,33.71059 -44.19396,52.5701 13.30235,8.28071 25.24645,17.70071 35.48487,19.4754 6.0005,-5.51859 6.6609,-8.55 12.8623,-19 z m 28.01555,-50.3334 c 3.6057,-6.6055 5.4698,-14.5285 3.9486,-16.7821 -1.8583,-2.7527 -13.2241,-8.5512 -16.7618,-8.5512 -3.52586,1.03806 -14.45425,15.25577 -13.19065,16.63185 6.08874,2.2038 16.31855,15.70895 21.85165,15.62175 0.4824,-0.5061 2.3509,-3.6203 4.1522,-6.9203 z m 32.5912,-35.0903 c 3.50874,-4.538 6.97953,-9.243 7.71283,-10.4554 17.9731,-25.72452 29.1145,-55.64492 47.3169,-71.4119 2.7287,-2.1982 4.0162,-2.1049 4.0162,0.291 0,4.1593 2.6229,1.7717 4.028,-3.6667 0.8052,-3.11669 1.7921,-6.86669 2.1929,-8.33329 0.4591,-1.6797 -2.1915,0.1868 -7.1615,5.043 -5.6343,5.50529 -9.2352,7.92799 -12.5937,8.47299 -3.5861,0.582 -5.1826,1.7594 -6.7213,4.957 -4.4873,9.3247 -9.5632,17.8092 -13.6765,22.8603 -2.3888,2.9333 -7.8812,11.2188 -12.2054,18.4122 -4.3243,7.1934 -9.21719,15.2934 -10.87309,18 -1.65604,2.7066 -4.79274,8.3274 -6.97034,12.4907 -2.1776,4.1632 -4.5727,7.9486 -5.3224,8.412 -2.1802,1.3474 -1.5812,2.7679 1.2574,2.9817 1.758,0.1324 4.7204,-2.5184 9,-8.0536 z m -13.2618,-4.6094 c 7.6338,-15.7045 15.41354,-28.8165 23.55043,-39.6923 4.3501,-5.8142 8.5655,-11.7796 9.3675,-13.2563 4.6151,-5.5944 6.6846,-14.1474 11.3899,-18.685 3.2769,-2.9655 3.3007,-4.4315 0.1391,-8.5439 l -2.4683,-3.21059 -2.3728,3.62139 c -1.3051,1.9919 -4.0821,5.4513 -6.1712,7.6877 -9.0834,9.66914 -13.8159,21.59102 -20.31643,32.343 -3.5016,5.761 -12.9858,27.2631 -17.1002,38.7691 -0.7867,2.2 -1.995,4.7237 -2.685,5.6082 -1.2527,1.6057 -0.3568,4.4213 1.3869,4.3587 0.5067,-0.018 2.8828,-4.0681 5.2801,-9 z m 44.97453,-19.9565 c 7.6507,-10.5001 18.784,-28.8209 22.7946,-37.5102 5.732,-10.51936 6.2348,-15.84466 3.0828,-10.4722 -7.3885,10.15993 -14.0911,24.30618 -21.8651,36.3053 -5.205,8.0667 -10.8663,17.0667 -12.5809,20 l -3.1175,5.3333 4.5098,-4.9982 c 2.4802,-2.749 5.7096,-6.6451 7.1763,-8.658 z m -52.18913,-5.6771 c 8.1032,-16.19479 17.3339,-33.39265 28.99603,-46.4071 7.9811,-8.7326 11.2028,-13.36109 10.081,-14.48279 -0.4437,-0.4437 -3.6749,0.3883 -7.1806,1.8489 -7.58289,3.15929 -16.40643,2.68839 -19.79543,-1.0564 -2.2015,-2.4326 -1.89541,-1.57874 -5.7542,-0.043 -24.66235,9.81525 -31.47288,30.88194 -29.5809,51.37389 1.6148,14.1664 3.2771,16.8035 5.423,8.603 2.7261,-10.4181 7.1358,-21.6673 11.6156,-29.631 2.26301,-5.41106 12.78319,-21.45786 17.4954,-20.3429 0.57093,9.08647 -5.59122,16.42793 -7.8816,24.7278 -1.305,4.8087 -4.2155,14.6908 -6.4676,21.9602 -4.1285,13.3255 -5.5776,22.5261 -2.4333,15.4496 0.8145,-1.8333 3.2817,-7.2333 5.4826,-12 z m 70.08233,-67.59949 c 4.6693,-5.73472 8.4926,-11.73828 15.7594,-14.0942 1.5987,-0.4829 1.1126,-45.2791 -0.5225,-48.1455 -1.5938,-2.7943 -0.5492,-4.2147 -9.6796,13.1622 -4.9859,9.9849 -12.8716,19.1074 -19.5659,25.6691 -5.5635,5.4386 -9.9071,10.0964 -9.6526,10.3509 0.2544,0.2545 3.0933,0.7649 6.3087,1.1343 9.0941,1.0448 10.9748,4.0906 8.9672,14.5227 0.078,9.57787 7.2736,-1.33965 8.3853,-2.5995 z" fill="#00B894" transform="translate(82.560364,-8.3603143) matrix(0.26458333,0,0,0.26458333,-260.17244,-119.48835)"/>
</svg>