<?xml version="1.0" ?><svg height="155.00046mm" viewBox="0 0 253.32552 155.00046" width="253.32552mm" xmlns="http://www.w3.org/2000/svg">
    <path color="#000" d="m 1480.5645,421.9082 c -3.5468,-0.09 -7.7271,4.62423 -12.6739,13.39844 -11.3069,20.05535 -23.0736,37.56348 -64.3281,53.34961 -57.9439,22.17233 -40.5558,87.57152 -30.6621,90.50195 0,0 -249.3647,328.55445 -258.5859,359.08203 -22.3943,53.8432 -5.0391,54.06887 38.2656,17.10157 29.0366,-24.7873 225.6958,-273.13437 254.9336,-347.24414 19.9375,-1.41654 100.4203,-54.49918 83.8691,-160.44141 -2.7457,-17.57513 -6.2583,-25.63232 -10.8183,-25.74805 z m -587.94145,3.96094 c -2.03561,-0.007 -4.07454,-0.002 -6.11524,0.0137 -63.78371,0.50441 -129.95694,12.31897 -192.48828,39.97071 -190.5717,84.27196 -159.50589,285.91259 -59.06055,388.0664 100.44533,102.15378 342.61217,114.00826 426.26172,42.2832 83.6495,-71.72501 16.6863,-127.64272 -34.7988,-146.61132 -89.02863,-45.64316 -1.5376,-85.06223 75.5254,-69.15625 119.6266,24.69123 208.6849,-47.42159 94.5175,-154.21875 -57.8509,-54.11637 -175.5984,-99.91482 -303.84175,-100.34766 z m 70.62109,366.10547 a 63.780037,43.914284 0 0 1 0.16602,0 63.780037,43.914284 0 0 1 63.78124,43.91601 63.780037,43.914284 0 0 1 -63.78124,43.91407 63.780037,43.914284 0 0 1 -63.7793,-43.91407 63.780037,43.914284 0 0 1 63.61328,-43.91601 z" fill="#FFFFFF" overflow="visible" paint-order="fill markers stroke" transform="translate(174.58492,19.594276) matrix(0.26458333,0,0,0.26458333,-206.75183,-147.44294) translate(-422.30624,73.517667)"/>
    <path d="M 214.30148,941.64983 C 56.979263,781.16593 111.24245,578.37224 291.35936,522.26644 c 96.22994,-40.0699 283.90049,-45.2776 392.62362,7.3529 137.771,66.69199 166.08654,141.79829 151.74786,179.30119 -41.52099,108.5983 -238.1843,17.0157 -254.9137,74.5184 -5.48191,18.84256 52.61326,43.3598 66.73247,51.049 72.40487,30.017 40.96488,100.4075 20.4228,125.24097 -92.20201,111.4638 -365.25579,72.1129 -453.67093,-18.07907 z m 391.24813,40.74747 c 45.54649,-15.79844 69.37023,-74.83796 55.42666,-108.28677 -4.98998,-11.1102 -10.63724,-15.5117 -37.25545,-29.037 -125.57717,-51.9203 -60.32003,-128.0853 52.49545,-100.5823 43.4187,2.5623 133.77764,5.1807 141.44506,-42.0855 13.40217,-82.6184 -126.99459,-158.69759 -189.08619,-173.97359 -50.00505,-17.7297 -106.67477,-20.9522 -137.29564,-20.7689 -55.99654,-0.4428 -110.92843,7.8427 -164.52986,23.8192 -2.49334,0.7724 -8.31249,2.3544 -12.93142,3.5155 -21.67945,5.7099 -41.0666,16.913 -60.26862,26.5305 -78.65622,50.19159 -126.8092,108.91259 -109.82042,211.40269 19.3422,58.0611 31.10023,99.1939 71.3118,138.3177 16.05574,15.5309 20.13568,19.1523 26.47889,23.5024 103.25753,78.05957 275.38793,85.60047 364.02974,47.64607 z m -102,-23.5134 c -9.55952,-4.67457 -12.38046,-6.67837 -18.79454,-13.35057 -17.3605,-19.66105 -25.22084,-50.10881 -8.19592,-68.5105 21.84512,-24.40184 61.9746,-27.21958 88.32379,-17.294 21.09371,8.7843 29.50275,14.1345 40.73012,25.9149 9.91345,10.4018 13.12912,24.3295 8.61733,37.3238 -4.8987,14.1086 -16.92385,27.6446 -30.68078,34.53557 -27.17929,12.4215 -54.37116,13.5147 -80,1.3808 z m 52.19072,-14.64837 c 20.22262,-4.1699 36.04885,-14.6647 42.08185,-27.9056 -9.53746,-50.6984 -131.45111,-41.8457 -109.60591,5.153 4.93517,22.6171 55.51004,25.1294 67.52406,22.7526 z m -251.52406,-11.4022 c -2.56667,-0.7269 -5.86667,-2.4204 -7.33333,-3.7633 -2.12742,-1.9479 -5.36296,-2.5325 -16,-2.8915 -16.77556,-0.566 -22.50674,-3.0765 -26.89838,-11.7829 -7.6254,-15.1172 -0.36304,-49.9593 11.00822,-52.8133 5.81328,-1.4591 20.90721,0.3969 26.68074,3.2806 6.1099,3.0519 9.70464,2.6499 15.87608,-1.7756 2.2,-1.5776 7.35274,-3.8786 11.45052,-5.1133 13.90279,-4.1893 26.17215,-2.2701 34.26128,5.3588 4.5454,4.2869 4.64615,4.6024 3.85211,12.0657 -1.11099,10.4424 -5.77864,24.0115 -10.21933,29.7082 -2.01983,2.5909 -4.0887,6.6062 -4.59747,8.9226 -1.42851,6.504 -7.89468,14.3824 -14.38159,17.5227 -6.33738,3.0679 -15.61932,3.5697 -23.69885,1.2813 z m 19.18415,-11.6472 c 6.68378,-11.33736 18.0466,-33.4256 19.06521,-43.5256 3.18956,-22.96841 -31.48618,-6.49232 -38.92933,-0.3938 -4.6902,2.82572 -10.64429,1.71475 -15.08418,-1.856 -5.93454,-5.0123 -21.76336,-5.7783 -24.08822,-1.1658 -2.54243,5.0443 -4.43432,18.982 -3.54394,26.1084 1.46293,15.33804 13.11958,14.86928 24.78366,13.7571 18.34903,-4.97358 19.06757,9.5537 31.61245,8.8504 2.46051,-0.1952 5.24347,-0.9939 6.18435,-1.7747 z m -100.06951,-57.4478 c -21.13379,-5.5206 -23.54941,-24.06746 -19.24236,-43.3879 1.37357,-5.4549 1.28603,-6.6049 -0.66709,-8.7631 -9.58387,-25.36895 21.98924,-59.19707 46.79481,-51.9918 2.63979,0.3753 11.59867,6.4105 12.43231,8.3752 0.78004,1.8382 15.55814,10.2414 18.93417,10.7664 1.81511,0.2822 5.62347,1.5209 8.46301,2.7525 23.29832,5.56864 13.24076,41.91355 4.41306,52.9725 -6.97475,8.1295 -16.26678,14.8399 -32.24255,23.2846 -11.12259,5.8793 -27.43599,8.3929 -38.88536,5.9916 z m 30.08901,-13.7195 c 17.4341,-9.72918 37.54309,-22.50839 38.78891,-42.4565 -0.17985,-9.68047 -3.05621,-16.35852 -11.65923,-17.9175 -5.78344,-1.0081 -17.50172,-6.3553 -21.15756,-9.6544 -11.92117,-10.7579 -15.40128,-11.6669 -25.44976,-6.6485 -15.26157,7.622 -21.51108,18.1576 -19.26539,32.4782 1.12326,7.163 0.99154,8.0415 -1.46342,9.761 -2.4598,1.7229 -2.62868,2.8689 -1.91436,12.991 0.87495,12.398 4.39414,19.533 11.21009,22.728 4.75247,2.2278 27.8121,1.2719 30.91072,-1.2813 z m -47.79374,-91.0429 c -8.98963,-2.95745 -16.53713,-13.73035 -25.7648,-13.9136 -7.92089,0 -9.55123,-2.3683 -10.11067,-14.6874 -0.4443,-9.7837 -4.60708,-12.10443 -1.00688,-18.0646 6.90233,-11.42689 11.34593,-11.7478 10.56891,0.8846 -0.36992,6.0139 -0.28118,13.5442 0.19718,16.7342 0.83474,5.5664 1.05646,5.7998 5.50933,5.7998 9.97997,-0.39016 23.19662,13.91925 31.46116,13.0971 5.41672,-0.7779 9.41714,-10.8616 10.99102,-27.7049 0.39765,-4.2554 5.61599,-8.0666 12.92063,-9.4366 14.18752,-2.6606 17.22229,-6.6584 17.59878,-23.1834 0.25827,-11.3356 -1.85581,-16.4532 -10.02686,-24.2722 -19.41074,-21.02647 -35.86187,-19.01576 -55.25368,-0.4594 -6.37922,6.2829 -8.51791,9.4293 -9.74604,14.3377 -1.82182,7.2813 -5.50262,21.5208 -6.19218,23.9551 -1.26771,4.4753 -9.89808,0.3524 -9.86673,-4.7136 0.0281,-4.5355 4.39637,-25.1239 6.30419,-29.7126 1.45235,-3.493 16.56447,-18.8402 19.42914,-19.7312 0.86767,-0.2698 4.32825,-2.2186 7.69017,-4.3306 7.13705,-4.4836 17.26833,-7.8077 23.88742,-7.8375 36.83767,4.80957 59.2311,40.01884 45.17867,68.6825 -4.4919,8.48942 -17.22763,17.77049 -27.06438,18.5068 -2.16541,0.1134 -2.94538,1.9903 -4.76776,11.4695 -3.22165,16.7577 -4.98293,20.6568 -10.56229,23.3824 -8.75968,4.2792 -14.08001,4.5773 -21.37433,1.1979 z m 477.66133,-90.5128 c -16.86484,-16.19005 -30.30658,-16.55036 -49.60569,-24.8894 -7.46666,-4.2687 -8.09394,-24.89517 -4.82663,-31.7911 7.48782,-14.4798 26.69859,-28.7258 37.97747,-28.1625 5.63073,0.2811 5.90311,0.5242 4.93055,4.3991 -0.55235,2.2008 -2.75026,3.8377 -7.69194,5.7288 -18.33785,7.0175 -30.27476,27.0927 -22.55554,37.9334 10.96165,7.99036 19.99366,6.67151 30.70054,13.3847 12.67717,6.35595 21.57888,18.10024 34.02745,19.4883 13.74704,-1.22277 17.54784,-19.70609 18.79657,-31.2965 0.75152,-7.5009 0.73275,-7.5497 -5.03484,-13.0807 -5.82355,-5.5848 -25.0916,-16.4808 -32.37756,-18.3095 -19.52776,-4.48656 -6.55972,-17.97965 -0.78198,-14.1651 1.95963,1.3954 9.21963,5.0173 16.13334,8.0486 12.21012,4.947 18.32124,8.14306 27.06387,15.1983 20.0758,16.21788 4.03112,35.62062 0.83982,51.2794 0,2.6434 -7.14218,9.663 -11.82084,11.6178 -11.96601,2.68998 -26.52625,1.94413 -35.77459,-5.3836 z M 270.221,607.06523 c 3.04163,-6.2555 5.98972,-10.2648 8.93411,-12.1501 3.02791,-1.9388 4.93305,-4.5887 6.12633,-8.5212 15.54888,-34.56445 40.6105,-36.33658 71.51646,-29.98119 17.5805,3.7021 37.88017,20.9324 40.09316,34.03089 1.21197,7.1737 -1.55611,19.2102 -5.4941,23.8902 -6.7748,8.0514 -22.90533,11.0887 -43.18069,8.1306 -8.40028,-1.2256 -17.32047,0.17521 -24.24444,7.0329 -31.19493,30.89635 -68.13362,7.30377 -53.75083,-22.4321 z m 35.99527,19.4918 c 5.04353,-2.6016 17.11476,-9.8386 18,-10.7914 2.44709,-2.6338 22.23811,-7.1421 23.363,-5.322 26.37656,3.18414 44.40294,-7.41061 29.24449,-27.0095 -11.66297,-14.96999 -34.25505,-21.67209 -56.8752,-16.87259 -10.139,2.1512 -17.18718,10.0416 -21.85761,24.46929 -2.12995,5.92414 -3.04327,13.34822 -10.12047,11.9424 -4.48497,-0.9411 -7.37741,2.9679 -8.55538,11.562 -0.59792,7.67316 4.40835,10.91526 11.46784,13.6168 3.61612,1.301 11.26093,0.5058 15.33333,-1.595 z m 149.33333,11.8151 c -26.24806,-2.13939 -48.91008,-58.02057 -14.27605,-76.55799 2.41484,-1.2171 4.90836,-3.5341 5.54116,-5.149 3.58124,-9.1392 21.69452,-19.6702 34.95114,-20.3204 5.95472,0.26186 30.9136,10.67396 34.51114,14.0034 4.11548,4.0892 5.82284,10.1367 6.03631,21.3808 0.1184,6.2334 1.00728,15.93389 1.97541,21.55679 2.18319,12.6797 0.50372,19.0246 -7.28345,27.5164 -4.76355,5.1947 -16.65053,12.2602 -20.62637,12.2602 -12.3949,2.66362 -27.5232,6.39433 -40.82929,5.3098 z m 18.00001,-11.9909 c 14.64162,-1.6316 29.05956,-7.7135 33.62237,-14.1829 3.98676,-5.6527 5.01507,-15.5413 2.16911,-20.859 -2.70974,-5.0632 -3.61107,-11.735 -2.5188,-18.64469 2.18891,-18.48675 -10.85723,-21.63406 -27.19771,-24.5451 -5.672,-0.9204 -12.15048,2.1126 -22.13563,10.3633 -6.14369,3.20583 -5.37454,12.45993 -8.60601,12.6912 -7.79072,0.4142 -10.9272,6.1104 -12.15422,22.07339 -0.80949,10.5312 -0.62714,11.7185 2.90908,18.9404 12.36582,20.45749 15.95188,16.18301 33.91181,14.1634 z m 60.84645,-19.1284 c -2.7402,-5.7745 -2.74589,-9.7542 -0.0255,-17.8106 2.06196,-6.1064 13.30916,-24.36739 15.0231,-24.39149 0.45242,-0.01 2.92258,-1.9809 5.48925,-4.3879 7.64211,-7.1666 13.74795,-9.3822 22.97763,-8.338 4.36574,0.4939 9.41356,1.4591 11.21736,2.1449 5.66545,2.154 24.57042,17.3454 25.88352,20.7991 5.56396,14.63429 -7.27015,38.36349 -23.53219,43.50899 -14.86891,5.60779 -49.98828,1.66968 -57.03317,-11.525 z m 64.54911,-12.548 c 8.47164,-16.03851 -3.15986,-19.73965 -13.08458,-29.14109 -1.99806,-1.998 -2.38409,-1.8907 -5.00054,1.3907 -12.60499,9.43868 -5.6786,-10.98387 -19.5922,3.1079 -8.844,9.06119 -15.71824,20.08819 -15.71824,25.21359 0.94894,18.65189 44.2123,17.73496 53.39556,-0.5711 z m 73.23158,454.78017 c 8.92039,-36.4101 38.41275,-88.82322 60.88626,-118.47347 32.14138,-50.1771 74.51064,-103.2538 105.22998,-149.3333 10.26885,-14.58 19.00648,-26.0762 28.53457,-40.1755 27.35957,-30.4427 42.95697,-55.2856 70.93542,-82.9018 l 5.03499,-4.9436 -2.7384,-5.6678 c -3.63391,-7.5214 -6.14376,-20.3035 -7.26013,-36.9744 -0.016,-16.0401 12.48487,-35.08783 23.26183,-42.18749 13.94994,-8.96137 30.63095,-13.60508 44.66743,-22.8914 17.7948,-13.2201 31.6182,-28.7608 41.4376,-47.3525 5.3734,-10.3497 11.108,-15.29956 14.6146,-15.3673 11.7426,-0.22685 11.9694,3.82798 16.0741,19.4048 2.5434,10.053 4.1572,20.6636 5.3317,35.0569 1.6507,23.9711 1.4017,37.3941 -5.7034,59.12819 -14.5598,36.66994 -41.5397,81.068 -79.96213,92.0711 -6.22094,2.39583 -8.48122,9.3051 -11.1315,14.5084 -25.09592,49.27083 -50.45933,92.1274 -84.10468,138.6792 -50.76674,64.1188 -79.7702,106.0516 -136.1403,164.51547 -33.15092,34.1972 -50.90589,49.567 -56.28734,55.2649 -10.52521,9.5983 -38.92436,13.1246 -32.6806,-12.3604 z m 26.624,-6.1804 c 2.52664,-2.4053 11.63659,-11.8553 20.24434,-21 8.60774,-9.1445 20.45774,-21.6885 26.33333,-27.8757 14.29396,-16.6459 27.48488,-32.713 41.34956,-49.58137 45.19954,-62.4792 87.20327,-103.7416 114.02536,-143.3662 5.32845,-7.0058 9.48698,-13.2957 12.64131,-17.3155 0,-0.858 -1.73733,-2.1657 -3.86073,-2.9059 -12.30078,-6.6763 -20.75887,-12.3267 -32.5979,-18.119 -9.8699,9.6571 -17.315,21.9815 -24.39304,32.6673 -48.41326,67.2136 -90.49188,127.0582 -127.95205,187.93127 -3.37539,5.4663 -11.5464,20.4387 -18.1578,33.272 -15.88579,30.8358 -17.21551,35.4167 -7.63238,26.2931 z M 933.74182,751.34493 c 11.02165,-18.5727 18.31945,-32.2078 18.31945,-34.2276 -7.3427,-7.3188 -13.81271,-11.955 -22.47266,-18.8179 -12.09889,14.84815 -30.42263,33.71059 -44.19396,52.5701 13.30235,8.28071 25.24645,17.70071 35.48487,19.4754 6.0005,-5.51859 6.6609,-8.55 12.8623,-19 z m 28.01555,-50.3334 c 3.6057,-6.6055 5.4698,-14.5285 3.9486,-16.7821 -1.8583,-2.7527 -13.2241,-8.5512 -16.7618,-8.5512 -3.52586,1.03806 -14.45425,15.25577 -13.19065,16.63185 6.08874,2.2038 16.31855,15.70895 21.85165,15.62175 0.4824,-0.5061 2.3509,-3.6203 4.1522,-6.9203 z m 32.5912,-35.0903 c 3.50874,-4.538 6.97953,-9.243 7.71283,-10.4554 17.9731,-25.72452 29.1145,-55.64492 47.3169,-71.4119 2.7287,-2.1982 4.0162,-2.1049 4.0162,0.291 0,4.1593 2.6229,1.7717 4.028,-3.6667 0.8052,-3.11669 1.7921,-6.86669 2.1929,-8.33329 0.4591,-1.6797 -2.1915,0.1868 -7.1615,5.043 -5.6343,5.50529 -9.2352,7.92799 -12.5937,8.47299 -3.5861,0.582 -5.1826,1.7594 -6.7213,4.957 -4.4873,9.3247 -9.5632,17.8092 -13.6765,22.8603 -2.3888,2.9333 -7.8812,11.2188 -12.2054,18.4122 -4.3243,7.1934 -9.21719,15.2934 -10.87309,18 -1.65604,2.7066 -4.79274,8.3274 -6.97034,12.4907 -2.1776,4.1632 -4.5727,7.9486 -5.3224,8.412 -2.1802,1.3474 -1.5812,2.7679 1.2574,2.9817 1.758,0.1324 4.7204,-2.5184 9,-8.0536 z m -13.2618,-4.6094 c 7.6338,-15.7045 15.41354,-28.8165 23.55043,-39.6923 4.3501,-5.8142 8.5655,-11.7796 9.3675,-13.2563 4.6151,-5.5944 6.6846,-14.1474 11.3899,-18.685 3.2769,-2.9655 3.3007,-4.4315 0.1391,-8.5439 l -2.4683,-3.21059 -2.3728,3.62139 c -1.3051,1.9919 -4.0821,5.4513 -6.1712,7.6877 -9.0834,9.66914 -13.8159,21.59102 -20.31643,32.343 -3.5016,5.761 -12.9858,27.2631 -17.1002,38.7691 -0.7867,2.2 -1.995,4.7237 -2.685,5.6082 -1.2527,1.6057 -0.3568,4.4213 1.3869,4.3587 0.5067,-0.018 2.8828,-4.0681 5.2801,-9 z m 44.97453,-19.9565 c 7.6507,-10.5001 18.784,-28.8209 22.7946,-37.5102 5.732,-10.51936 6.2348,-15.84466 3.0828,-10.4722 -7.3885,10.15993 -14.0911,24.30618 -21.8651,36.3053 -5.205,8.0667 -10.8663,17.0667 -12.5809,20 l -3.1175,5.3333 4.5098,-4.9982 c 2.4802,-2.749 5.7096,-6.6451 7.1763,-8.658 z m -52.18913,-5.6771 c 8.1032,-16.19479 17.3339,-33.39265 28.99603,-46.4071 7.9811,-8.7326 11.2028,-13.36109 10.081,-14.48279 -0.4437,-0.4437 -3.6749,0.3883 -7.1806,1.8489 -7.58289,3.15929 -16.40643,2.68839 -19.79543,-1.0564 -2.2015,-2.4326 -1.89541,-1.57874 -5.7542,-0.043 -24.66235,9.81525 -31.47288,30.88194 -29.5809,51.37389 1.6148,14.1664 3.2771,16.8035 5.423,8.603 2.7261,-10.4181 7.1358,-21.6673 11.6156,-29.631 2.26301,-5.41106 12.78319,-21.45786 17.4954,-20.3429 0.57093,9.08647 -5.59122,16.42793 -7.8816,24.7278 -1.305,4.8087 -4.2155,14.6908 -6.4676,21.9602 -4.1285,13.3255 -5.5776,22.5261 -2.4333,15.4496 0.8145,-1.8333 3.2817,-7.2333 5.4826,-12 z m 70.08233,-67.59949 c 4.6693,-5.73472 8.4926,-11.73828 15.7594,-14.0942 1.5987,-0.4829 1.1126,-45.2791 -0.5225,-48.1455 -1.5938,-2.7943 -0.5492,-4.2147 -9.6796,13.1622 -4.9859,9.9849 -12.8716,19.1074 -19.5659,25.6691 -5.5635,5.4386 -9.9071,10.0964 -9.6526,10.3509 0.2544,0.2545 3.0933,0.7649 6.3087,1.1343 9.0941,1.0448 10.9748,4.0906 8.9672,14.5227 0.078,9.57787 7.2736,-1.33965 8.3853,-2.5995 z" fill="#00B894" transform="translate(174.58492,19.594276) matrix(0.26458333,0,0,0.26458333,-206.75183,-147.44294)"/>
</svg>