<?xml version="1.0" ?><svg height="84.784111mm" viewBox="0 0 179.03191 84.784111" width="179.03191mm" xmlns="http://www.w3.org/2000/svg">
    <path color="#000" d="m 778.23706,1811.8233 c -7.4132,-39.4405 -12.9366,-125.5163 -12.5006,-135.9814 0.4361,-10.4652 23.5475,-21.8461 34.0858,-23.8737 10.5382,-2.0276 36.266,-5.8212 36.266,-5.8212 l 1.9623,-15.9593 -28.6349,-7.5873 6.3956,-61.7443 156.5473,0.5232 8.2852,60.8287 -22.6753,6.8677 0.9448,17.7254 67.08134,29.6948 -6.4683,166.8537 -150.80584,26.6207 z" fill="#FFFFFF" overflow="visible" paint-order="fill markers stroke" transform="translate(78.866585,-6.8612806) matrix(0.26458333,0,0,0.26458333,-278.467,-403.8169)"/>
    <path d="m 856.54143,1870.2392 c -27.58702,-8.9719 -53.63554,-26.9065 -75.28125,-40.9087 -7.02536,-4.0862 -10.5266,-8.7203 -11.4323,-13.1393 -7.50198,-38.5068 -11.28339,-78.3493 -14.4735,-111.5274 -7.59944,-50.5411 31.41345,-62.6703 65.7002,-62.9697 7.65239,-1.0339 12.15376,-4.7443 2.8557,-6.3624 -13.03254,-0.624 -18.30928,-9.5067 -20.8543,-15.8743 -2.1593,-6.1538 -0.2442,-46.4468 2.5167,-52.9512 3.4963,-8.2368 9.1375,-11.287 24.3307,-13.1554 18.67355,-2.2964 109.01061,-0.9505 131.16711,1.5237 29.96404,-0.4007 34.8164,56.0239 23.06704,68.7284 -4.208,4.2503 -6.7004,5.5947 -11.7854,6.3572 -8.9946,1.3487 -11.1155,2.764 -11.1155,7.4173 2.43378,7.3545 42.29847,18.3388 58.41447,25.2667 5.9676,2.3583 12.4459,7.9999 14.2882,20.5405 19.7832,19.9601 -14.7791,121.4064 -8.8351,139.4799 2.1784,0 5.4657,8.2377 5.4657,13.6967 -11.7674,35.8005 -162.15881,40.1059 -174.02847,33.878 z m 154.38947,-36.6367 c -11.05254,-39.1683 4.4482,-76.942 6.7802,-117.1711 0.7268,-11.2434 3.2941,-31.192 -4.3992,-39.6873 -11.5787,-7.3852 -24.20324,-11.9165 -40.47937,-17.2516 -10.79408,-4.9984 -14.00951,-2.5821 -20.0807,-3.9972 -2.7497,-0.6901 -3.4793,-0.1859 -4.6691,3.2267 2.36322,16.5599 -108.14936,18.2668 -108.08875,-2.966 -16.04254,4.4197 -39.76181,4.0991 -54.6585,10.8549 -11.68382,7.7334 -13.34411,22.3246 -12.1115,33.0404 3.56011,34.524 7.09066,69.3619 12.693,101.8072 1.6536,7.9706 2.2012,10.5783 8.8744,17.424 18.50514,15.5018 57.54695,35.319 78.95475,35.6272 20.26289,2.2679 103.31106,-0.2419 137.18477,-20.9072 z m -175.45132,-15.6063 c -0.5301,-5.6765 -1.5294,-9.5316 -2.5566,-9.8624 -21.51779,-4.1235 -53.46018,-53.9455 -43.5919,-80.313 7.75926,-15.3652 24.40742,0.6379 35.3541,1.5097 1.5426,0 1.4846,-0.9753 -0.337,-5.6667 -2.797,-7.2032 -3.9688,-8.6661 -9.9862,-12.4646 -16.21012,-12.7672 4.0546,-14.327 12.7598,-8.6144 24.89383,9.2665 34.58009,135.6894 19.90635,132.079 -8.97566,-1.7879 -11.02406,-11.2319 -11.54855,-16.6676 z m 33.07355,-22.9084 c -10.61299,-27.7041 -9.75026,-53.2351 -0.0526,-75.711 5.5521,-12.7622 19.6285,-24.0432 27.9774,-22.4216 7.1654,1.3916 8.6218,8.3249 2.4254,11.5465 -5.72614,5.1421 -14.74088,10.8647 -13.8667,18.5932 0.2808,2.4779 13.2184,2.6477 24.8667,0.3267 12.9165,-2.5739 29.3746,-2.6803 32.8974,-0.2128 9.81388,1.7514 24.98031,3.501 32.4963,-1.1927 7.54224,-5.7889 15.03165,-16.2566 24.78167,-7.7101 10.6539,13.8329 3.5821,47.8748 0.4892,71.2784 -6.37933,25.0906 -48.46166,34.67 -73.99797,36.2546 -23.83159,1.315 -46.13449,-7.8223 -58.0168,-30.7512 z m 20.6835,-103.6377 c -59.80755,-0.9643 -68.76365,-1.5668 -73.53915,-4.9475 -14.17501,-6.9262 -18.58749,-19.822 -3.1275,-15.0688 9.0992,2.8314 11.1522,2.996 50.66665,4.0651 71.3312,1.9299 98.8385,1.4252 121.7433,-2.2339 8.0746,-1.29 8.6826,-1.1986 11.3932,1.7116 1.8932,2.0327 2.7302,4.4204 2.4702,7.0474 -0.3863,3.9002 -0.6187,4.0153 -12.6667,6.2689 -36.94602,2.1048 -69.63361,3.6045 -96.94,3.1572 z m 56.9267,-37.9121 c 1.9365,1.5997 2.075,1.3981 1.2882,-1.8742 -1.2384,-5.1505 -2.13545,-11.3192 -3.04405,-17.0944 -0.12718,-3.738 -14.46397,-5.4428 -13.6757,-0.5452 -2.55008,13.6137 -15.98141,10.3586 -16.49685,-1.3688 -14.45533,0.6081 -29.73984,2.2165 -41.7174,2.0084 -3.3904,0 -3.5336,0.2715 -2.9881,5.6667 -4.38607,20.215 -15.59252,7.126 -15.69544,-4.1785 -3.7723,-0.7212 -8.07896,-0.9864 -9.20261,5.1886 -0.7735,4.2503 -0.4643,4.8714 3.54435,7.1184 41.34693,21.9938 93.80541,-1.2148 97.9876,5.079 z m -80.9267,-32.919 c 53.00482,-3.289 91.23487,0.5806 101.4828,-0.8241 7.3988,-2.2168 10.984,-9.4097 9.7923,-19.646 -0.904,-7.7648 -5.7252,-24.9344 -7.2538,-28.5109 -1.50264,-4.7987 -54.93402,-5.3307 -74.688,-5.4298 -57.39813,-0.2584 -72.13107,-0.7778 -74.50704,5.1096 -5.74682,14.9423 -5.60434,38.7195 -4.00368,44.7491 2.00489,10.2607 33.94665,5.1093 49.17742,4.5521 z m -23.78525,-34.9452 c -9.02387,-10.4346 0.39638,-11.9857 8.34165,-9.0952 7.2237,2.4295 22.8625,2.7348 65.4436,1.2778 31.2432,-1.0691 33.6735,-0.934 36.8748,2.0485 5.02473,7.5981 0.42545,11.5227 -5.058,11.8025 -25.04024,1.1283 -85.72996,8.4506 -105.60205,-6.0336 z m 248.07802,233.0112 c -11.3717,-18.4337 41.6623,-23.4854 20.3107,-26.7898 -0.7909,-0.091 -5.0756,-1.2579 -10.3489,-1.2902 -10.684,-0.065 -20.8043,-2.2953 -24.49,-5.3957 -2.543,-2.1389 -10.7338,-5.7648 -16.4313,-7.2737 -13.0017,-4.0269 -11.8065,-16.7008 -6.567,-23.1966 4.9925,-5.8656 14.6569,-10.9875 21.2793,-10.7418 18.3655,0.6815 23.5848,-9.077 37.477,-9.3334 30.1403,-5.1224 62.6402,-1.5222 88.7389,1.3339 3.5133,0.3845 13.2947,3.3443 13.2072,10.0653 1.006,4.0079 6.2691,4.5386 21.1392,2.1314 13.451,-3.1443 23.0118,1.123 33.0183,10.8033 9.4254,10.1429 5.2845,18.7253 -4.9479,21.7504 -9.2659,2.7393 -16.1802,5.2199 -2.7615,6.1258 22.1667,-0.041 43.5172,-6.1682 65.4605,0.5883 1.3464,0.4273 7.4687,-0.01 7.9625,-0.8084 14.0522,-2.66 58.248,23.888 30.8133,30.1118 -65.4006,19.969 -125.5251,-4.4909 -186.1532,16.2112 -20.58,7.0272 -73.0274,9.5041 -87.7071,-14.2918 z m 326.3738,-12.4137 c -7.808,-1.4647 -9.2806,-2.592 -9.313,-7.1296 -0.023,-3.1349 4.6071,-5.094 10.8474,-4.59 5.1765,-1.064 13.2328,-0.9855 13.6137,6.0768 -1.3666,9.9466 -8.6716,6.8575 -15.1481,5.6428 z m -124.204,-39.2761 c -8.0049,-21.6321 37.0287,-17.3574 46.526,-15.5542 9.4973,1.8032 16.8816,16.334 9.962,17.1328 -13.029,1.504 -50.0423,12.857 -56.488,-1.5786 z" fill="#00B894" transform="translate(78.866585,-6.8612806) matrix(0.26458333,0,0,0.26458333,-278.467,-403.8169)"/>
</svg>