<?xml version="1.0" ?><svg height="131.0181mm" viewBox="0 0 195.75916 131.0181" width="195.75916mm" xmlns="http://www.w3.org/2000/svg">
    <path color="#000" d="m 143.56921,1822.3218 c 45.15784,-39.0724 109.73261,-79.3278 186.54445,-198.2435 76.81185,-118.9157 224.62745,-202.4181 288.5164,-229.2068 63.8889,-26.7887 149.26602,-57.2257 206.1868,-33.4532 27.81722,11.6176 42.7189,51.2903 27.2894,71.3166 -15.4296,20.0264 -31.39965,19.715 -46.9735,11.2152 -22.45328,-9.5568 -22.6125,-43.4933 4.73813,-48.501 16.93279,11.0079 25.16376,-8.7353 15.90224,-13.3263 -16.26285,-8.0616 -51.07055,9.2784 -63.10896,18.1919 -42.89923,31.7637 -16.98374,62.6048 -59.72904,92.8797 -80.69593,57.154 -247.91706,125.5089 -326.3979,159.7441 -74.29176,47.4078 -115.82293,102.6038 -172.38049,156.3956 z" fill="#FFFFFF" overflow="visible" paint-order="fill markers stroke" transform="translate(60.606784,65.509047) matrix(0.26458333,0,0,0.26458333,-93.829519,-422.42489)"/>
    <path d="m 137.03992,1814.8891 c 58.26531,-36.1786 106.51057,-80.5591 144.399,-128.9835 37.22388,-47.575 53.75491,-89.3032 95.9343,-135.7024 47.20945,-51.6055 109.56836,-95.2004 163.01199,-125.9681 6.206,-3.5535 10.3647,-7.1126 13.3201,-11.3992 6.2508,-6.5443 13.21395,-6.3742 18.7175,-6.7676 34.05443,-17.3266 71.73542,-33.8363 105.6171,-41.4369 50.82307,-11.5934 113.43968,-27.7386 157.1159,-1.5516 8.2129,5.2538 21.0361,18.3379 24.5352,25.0346 8.53203,17.2468 7.21494,31.4599 -1.5848,44.6205 -6.5995,13.7693 -23.30127,23.0671 -37.3996,19.715 -14.50186,-4.4379 -29.0213,-10.5046 -36.24448,-22.1252 -4.5848,-7.5202 -1.26712,-18.6151 6.78228,-27.344 9.2574,-10.0387 19.0854,-13.2336 26.5598,-8.6342 4.9557,3.0495 6.1757,2.3892 7.3678,-3.9873 0.7242,-3.8731 0.3998,-4.5395 -2.8236,-5.7997 -5.6161,-2.1956 -21.7852,-0.3592 -31.0054,3.5214 -16.986,7.1494 -38.0556,24.4544 -44.1983,36.3014 -5.95448,14.4897 -9.31711,30.5461 -17.2228,43.686 -17.35582,28.8468 -47.81538,48.8316 -75.5431,63.3333 -58.63994,30.6689 -122.71444,61.4671 -178.33889,86.6461 -2.9333,1.3295 -9.2333,4.1746 -14,6.3226 -17.96569,5.6919 -32.33379,14.6294 -51.3333,19.8297 -76.09456,27.8966 -132.20976,100.4968 -181.2448,150.6117 -7.6751,7.6584 -11.4219,12.1019 -11.4219,13.5454 0,3.2701 -8.48505,8.8864 -15.148,8.7854 -9.02513,2.165 -32.08761,6.0218 -39.0066,10.939 -2.284,1.7292 -1.9067,1.9048 4.1546,1.9328 35.53346,-2.9733 82.11007,-12.9732 110.6666,-23.9816 11.56347,-4.9632 25.36392,-7.8004 34.6588,-15.3626 7.1197,-5.8341 14.5407,-7.4446 17.4394,-3.7848 3.8439,4.8532 4.7305,8.5447 2.5708,10.7044 -6.88835,7.7405 -16.46296,12.0689 -22.669,18.9683 -6.35151,6.3679 -3.34142,4.8548 3.3334,3.5616 18.91958,-3.6656 41.93148,-6.4435 58.5009,-11.9715 8.41699,-4.2054 15.51999,0.3131 12.2451,8.2781 -0.777,1.7054 -1.4127,3.6574 -1.4127,4.3379 0,3.016 23.0812,-3.9848 31.7336,-9.6252 7.75286,-6.5855 21.34474,-2.8454 17.5314,7.7756 -2.1134,5.5587 0.8729,5.5149 23.7517,-0.3483 6.33359,-2.1365 23.34658,-5.9512 24.3167,4.7823 2.45208,6.9234 7.41636,16.2932 -3.4524,15.3427 -4.7204,-0.4388 -7.1492,-2.2566 -7.1939,-5.3842 -0.026,-1.8253 -11.4754,-0.4134 -15.8087,1.9495 -10.55998,2.5649 -24.89537,5.9861 -32.9709,-2.3912 -3.5402,-3.7508 -3.8372,-3.8215 -9.1167,-2.1679 -8.41924,3.3649 -17.8297,5.9286 -23.0436,6.785 -8.1889,1.3414 -12.3649,-0.2326 -18.581,-7.0031 -5.7355,-6.7344 -4.51868,-6.3955 -12.4472,-3.762 -16.64375,3.2308 -32.98084,8.9688 -49.092,8.4229 -12.97619,-0.7599 -15.51815,-5.1278 -17.8564,-16.7132 l -9.2058,2.9188 c -24.08408,8.6568 -46.65067,12.0539 -69.8981,16.5988 -22.3797,4.4043 -33.46481,5.4429 -47.6055,6.1051 -33.09803,1.55 -52.57749,-13.5238 -27.3945,-29.1606 z m 70.0295,-14.6331 c 3.92366,-4.5122 5.0408,-10.2243 9.1953,-14.8544 12.6941,-13.7247 24.4418,-27.5969 24.4418,-28.862 0,-1.2791 -3.4321,0.8901 -6.6666,4.2136 -15.35368,12.8584 -32.17194,27.3214 -43,35.2459 -9.149,6.6924 -11.4191,9.7741 -6,8.1449 7.04379,-2.8583 15.22926,-0.2575 22.0295,-3.888 z m 108.3038,-126.8544 c 12.52346,-9.1132 25.46245,-20.1061 36.3333,-28.3565 4.2167,-3.2088 7.6667,-6.7643 7.6667,-7.9011 0,-3.2032 7.619,-36.0603 10.591,-45.6735 1.4619,-4.7288 2.3708,-8.8849 2.0197,-9.236 -0.7352,-0.7352 -4.0889,3.2586 -6.0182,7.1671 -21.30267,27.1054 -34.59194,54.4144 -52.5762,81.6667 -5.3747,8.0752 -4.5368,9.0608 1.9837,2.3333 z m 68.5886,-54.6667 c 2.7173,-2.2 5.6464,-4.2372 6.5093,-4.527 2.0689,-0.6951 11.6962,-8.0211 14.2354,-10.8327 1.1,-1.218 7.3707,-6.3543 13.9348,-11.414 6.564,-5.0597 13.7477,-10.8555 15.9637,-12.8796 2.216,-2.024 4.4984,-3.68 5.0719,-3.68 0.5735,0 0.9839,-3.45 0.9119,-7.6667 -0.072,-4.2166 0.8261,-13.6666 1.9956,-21 1.40738,-15.0884 5.16936,-29.4759 9.4056,-41.7926 0.951,-3.0454 0.8682,-3.0298 -3.2118,0.6056 -16.66711,19.4808 -30.9446,45.5394 -39.4294,69.1344 -3.26841,4.9667 -12.99181,33.9377 -17.1441,33.6613 -3.3901,-1.1343 -0.6604,-20.7408 4.4935,-32.2753 0.6553,-1.4667 2.6623,-6.8667 4.4599,-12 1.7976,-5.1334 4.8224,-12.8376 6.7218,-17.1206 l 3.4532,-7.787 -4.8754,4.2805 c -12.7311,11.1781 -20.2579,23.0543 -19.4107,30.6271 -1.32773,16.9435 -16.18257,38.5452 -16.9976,53.8048 -0.01,2.1405 0.5917,1.9621 4.4812,-1.3334 2.4699,-2.0926 6.7139,-5.6048 9.4312,-7.8048 z m 215.41139,-75.4417 c 1.1,-0.5651 7.6349,-3.7869 14.5219,-7.1597 13.4328,-7.8706 12.44962,-5.6879 0.8115,-4.0966 -16.0588,1.7188 -50.9471,10.5076 -56,14.107 -15.76445,5.6654 -42.81517,11.2804 -57.70409,9.2201 l -8.3707,-1.366 -11.4827,9.7017 c -6.3155,5.336 -13.9487,11.602 -16.9626,13.9246 -5.2556,4.0497 -8.3888,6.654 -20.1466,16.7452 -7.35554,8.9637 -23.20199,12.466 -28.0718,23.4192 -0.8357,1.9877 -2.5115,4.4372 -3.7238,5.4433 -1.2124,1.0063 -2.2043,2.2688 -2.2043,2.8059 66.12454,-18.973 132.97765,-53.8686 189.33319,-82.7447 z m -141.20989,16.9195 7.4567,-5.8539 0.8617,-13.1452 c 1.2193,-18.6017 4.5524,-39.9017 7.5741,-48.4031 1.4189,-3.9917 2.3478,-7.4897 2.0643,-7.7732 -0.2835,-0.2834 -2.157,0.5602 -4.1633,1.8747 -3.47,2.2736 -9.9169,14.3301 -9.9169,18.5457 0,1.0891 -0.5756,3.0219 -1.2791,4.2954 -1.5594,2.8225 -6.2815,22.7305 -7.3487,30.9818 -0.4269,3.3 -1.5474,10.35 -2.4902,15.6667 -0.9427,5.3167 -1.3768,9.6663 -0.9647,9.6659 0.4122,-6e-4 4.1049,-2.6351 8.2061,-5.8548 z m 40.0988,-32.8111 c 6.76808,-19.8171 14.19023,-42.2998 24.14169,-59.5204 4.5003,-7.1289 10.5144,-19.1463 9.5818,-19.1463 -1.0133,0 -11.8128,6.0474 -16.35359,9.1575 -5.137,3.5184 -10.6672,7.1021 -15.7029,10.1759 -7.655,4.6725 -10.0854,9.1504 -15.9212,29.3333 -4.59768,10.3227 -4.51669,21.9716 -6.6115,32.0005 -1.0873,5.1331 -1.9873,10.977 -2,12.9864 -0.023,3.5744 0.04,3.6034 2.8767,1.3334 7.09276,-4.9485 13.5421,-12.92 19.989,-16.3203 z m 27.24759,14.5195 c 19.37577,-3.9447 35.85274,-9.7733 55.5352,-13.8886 19.61748,-5.4958 40.5335,-10.1744 56.1698,-14.107 3.5795,-0.8992 7.4795,-1.5999 8.6667,-1.557 4.9079,0.1774 15.9745,-3.9325 18.8601,-7.0041 4.06838,-4.6659 15.96228,-8.6805 17.2984,-14.0076 -20.05295,6.8161 -37.04769,12.4511 -56.2171,18.7291 -21.40918,8.9633 -43.00494,11.2387 -59.7829,14.2261 -2.5667,0.4587 -11.9175,0.7443 -20.7796,0.6348 l -16.1129,-0.1991 c -4.26464,2.9858 -21.46976,15.9131 -21.77419,17.7915 0,2.0219 10.6828,1.6579 18.13649,-0.6181 z m 11.757,-49.1862 c 2.1679,-8.3392 3.9962,-14.1078 4.8594,-15.3333 0.5166,-0.7333 1.3364,-3.1933 1.8218,-5.4665 0.8796,-4.119 9.3369,-21.4966 17.0075,-34.9459 2.2206,-3.8936 3.7916,-7.3249 3.4912,-7.6253 -0.3004,-0.3004 -3.5891,1.325 -7.3083,3.6122 -6.7146,4.1292 -7.4166,5.1052 -17.9241,24.918 -10.48149,16.3309 -20.55794,33.6797 -24.30209,51.919 l -0.8368,4.4116 c 6.78828,-5.646 20.933,-15.0073 23.19139,-21.4898 z m 30.7732,16.8595 c 17.55908,1.3531 39.11993,-10.3841 55.9573,-12.2264 2.3719,-0.1407 43.4479,-12.8925 51.376,-15.9493 9.53167,-1.4523 23.90006,-12.4053 31.7073,-12.704 2.2666,-0.02 12.9363,-13.1139 11.6964,-14.3539 -0.353,-0.3529 -5.0132,1.1861 -10.3561,3.4201 -44.05143,17.3065 -118.55067,30.0627 -127.878,28.3614 -3.3209,1.7624 -13.7419,9.2412 -17.1696,12.3221 -1.1,0.9887 -4.85,3.806 -8.3333,6.2605 -6.0326,4.2508 -8.2538,8.0483 -4.6667,7.9782 5.81699,-0.7895 11.50089,-2.2732 17.6667,-3.1087 z m -4.3563,-32.5573 c 4.6032,-3.4662 10.1008,-7.5022 12.2169,-8.9688 2.1162,-1.4667 5.5,-3.8667 7.5197,-5.3334 6.8608,-4.9821 41.9334,-28.2925 45.953,-30.5417 2.2,-1.2311 5.9158,-3.5628 8.2572,-5.1816 2.3414,-1.6188 7.7992,-4.9408 12.1283,-7.3821 6.768,-3.8167 7.7851,-4.8886 7.2576,-7.648 -0.4261,-2.2292 1.6785,-7.1447 6.8921,-16.0964 4.128,-7.088 7.2216,-13.1711 6.8746,-13.5182 -0.8255,-0.8256 -26.1817,7.4344 -36.0764,11.7522 -14.38102,5.7107 -27.36879,12.3124 -36,16.901 -1.4667,0.7806 -4.7667,2.46 -7.3334,3.7323 -6.679,3.3105 -18.0534,20.4619 -30.9368,46.6492 -2.8862,5.8667 -6.4062,12.9733 -7.8221,15.7927 -5.4065,10.7652 -3.3976,10.7366 11.0693,-0.1572 z m 51.6896,-7.7494 c 1.9604,-0.756 17.8094,-4.2217 23.6031,-5.1612 20.07546,-6.0729 46.46443,-6.9234 63.7303,-16.8202 0.7333,-0.4858 5.3764,-2.2096 10.318,-3.8308 10.2049,-3.3482 13.5755,-6.7036 14.8709,-14.8046 1.4072,-8.8002 6.6351,-17.4941 16.7787,-27.9028 6.58572,-9.6754 12.77485,-10.7395 3.0346,-8.0332 -56.0249,14.4557 -106.85598,48.1447 -143.3271,75.8066 -2.0121,1.2064 -3.6621,2.566 -3.6667,3.0213 -0.01,0.842 11.0108,-0.8683 14.6582,-2.2751 z m 211.3543,-27.9854 c 12.95127,-7.8105 21.20296,-21.4551 22.6113,-33.9007 1.28475,-11.3535 -13.52179,-32.5689 -12.9469,-26 1.4055,2.7147 2.0433,7.7984 1.7893,14.2589 -0.3502,8.9043 -11.3674,14.4072 -21.7102,10.8439 -11.91669,-4.4664 -26.74563,11.5917 -22.964,20.2888 5.04782,11.6091 21.49947,19.9437 33.2205,14.5091 z m -112.6876,-53.0344 c 7.48044,-2.3077 5.08726,-8.9901 9.4495,-13.2516 3.8642,-3.6139 3.1753,-5.2816 -1.7828,-4.3159 -6.5096,1.268 -10.23144,2.3542 -14.3334,6.6584 -2.81112,5.1345 -7.61816,8.0376 -11.3791,12.8311 -3.95923,7.283 -13.47896,6.8933 -9.3786,-1.7854 1.9577,-3.7885 4.3065,-7.5188 6.0798,-9.6554 1.6949,-2.0423 1.5592,-2.2239 -1.3517,-1.8088 -2.1691,0.3092 -4.8716,2.8789 -8.1974,7.7946 -2.7289,4.0334 -4.9941,7.8475 -5.0337,8.4758 -0.04,0.6284 -2.4722,4.1568 -5.4055,7.8409 -5.7625,7.2373 -6.7265,9.7959 -3,7.9625 13.64356,-7.9219 30.3122,-13.9698 44.3329,-20.7462 z m 68.3369,-17.3286 c 8.50575,-1.5646 27.33205,-1.7851 27.2984,-2.6316 -0.9189,-2.7568 -10.8074,-3.9092 -34.9686,-4.0748 -20.2393,-0.1388 -24.6449,0.1888 -28.1152,2.0902 -31.05469,23.8144 19.97251,7.5249 35.7854,4.6162 z m -263.0036,467.3346 c -4.53249,-0.627 -6.66659,-2.616 -6.66659,-6.2135 1.69423,-5.868 11.26896,-5.7648 15.99999,-7.0084 12.17209,-4.2719 28.16679,-3.5802 38.3488,-11.5188 5.3437,-4.3959 9.7832,-2.8927 12.2389,4.1441 3.76941,9.6893 -4.70428,9.4221 -10.9052,12.553 -11.1222,5.6741 -36.2892,9.804 -49.0159,8.0436 z" fill="#00B894" transform="translate(60.606784,65.509047) matrix(0.26458333,0,0,0.26458333,-93.829519,-422.42489)"/>
</svg>