<?xml version="1.0" ?><svg height="198.00964mm" viewBox="0 0 250.05305 198.00964" width="250.05305mm" xmlns="http://www.w3.org/2000/svg">
    <path color="#000" d="m 28911.674,-1178.293 c -0.09,-0.022 -0.182,-0.022 -0.278,0 -6.107,1.5202 -511.949,7.0156 -511.949,7.0156 0,0 0.132,18.5942 4.68,37.0703 4.548,18.4762 12.604,290.35575 14.553,316.08205 1.949,25.7263 7.795,256.67923 24.808,270.23243 17.013,13.5533 391.766,18.25381 418.403,16.38281 26.637,-1.8711 52.106,2.57393 54.445,-3.03907 2.338,-5.613 1.298,-75.30921 5.586,-121.38281 4.288,-46.0735 -11.954,-344.84971 -11.305,-387.88281 0.64,-42.3608 6.693,-133.105 1.057,-134.4805 z m -648.428,116.7032 c -18.998,-0.255 -38.813,3.8511 -51.103,8.7617 -26.219,10.4759 -45.544,30.4601 -58.541,32.3926 -12.996,1.9324 -55.32,5.848 -62.666,27.41011 -7.345,21.5621 27.859,48.26172 27.859,48.26172 0,0 -12.433,4.16883 -20.344,18.61133 -7.911,14.4425 15.709,27.5625 15.709,27.5625 0,0 14.184,19.47709 8.307,27.30859 -5.877,7.8315 -3.39,36.30979 15.652,43.68359 19.043,7.3739 28.932,-14.69531 28.932,-14.69531 0,0 19.608,25.12075 56.902,24.00195 37.294,-1.1187 61.198,-22.32543 85.721,-61.17773 24.524,-38.8524 10.396,-79.53516 10.396,-79.53516 0,0 35.996,-17.39181 34.075,-30.25781 -1.921,-12.86598 -25.598,-12.10348 -25.598,-12.10348 0,0 -2.261,-6.0001 -15.992,-37.377 -7.295,-16.6689 -27.778,-22.5587 -49.309,-22.8476 z m -19.07,271.99996 c -31.835,-0.1169 -62.371,7.48482 -74.455,33.32812 -12.084,25.8433 -3.769,79.51757 0.519,137.16797 4.288,57.6503 -12.733,132.60844 -24.687,160.55664 90.956,43.6179 192.954,9.35339 190.226,-4.44531 -2.729,-13.7987 -4.677,-0.81872 -6.756,-24.79102 -2.079,-23.9724 -6.237,-85.36344 2.469,-116.58594 8.706,-31.22239 12.344,-85.36395 -3.508,-126.87695 -15.853,-41.513 -51.974,-58.23651 -83.808,-58.35351 z" fill="#FFFFFF" overflow="visible" paint-order="fill markers stroke" transform="translate(92.412872,-122.63516) matrix(0.26458333,0,0,0.26458333,-6618.1047,1081.3062) translate(-3313.5291,-2437.8203)"/>
    <path d="m 25003.644,-2976.8658 c -1.042,-37.4535 0.868,-38.8166 11.091,-83.3645 10.945,-43.3135 2.877,-82.5368 -13.642,-117.589 -13.732,-28.6532 -35.409,-41.0328 -71.76,-40.9791 -29.817,0.045 -44.076,5.6959 -62.135,24.6294 -15.286,16.9811 -9,39.4273 -4.915,64.3399 4.367,25.8796 4.219,74.3284 2.007,112.4219 -3.042,52.4201 -9.499,93.6686 -17.346,110.8082 -10.519,21.1439 -18.648,10.7808 -13.726,-5.0213 4.756,-14.8887 9.46,-39.5503 12.479,-65.4467 4.037,-34.6092 6.175,-112.7502 2.015,-146.9797 -3.041,-25.0242 -3.088,-25.1937 -5.553,-19.5947 -16.487,37.4772 -53.354,101.0473 -69.552,117.2461 -19.113,19.2024 -30.54,8.4044 -40.905,-27.7845 -6.179,-21.5734 -7.906,-35.498 -6.873,-86.9672 1.534,-36.1949 1.481,-71.6501 8.844,-106.7665 -28.455,-0.3471 -37.729,-8.8672 -46.077,-18.832 -9.859,-9.1428 -18.047,-23.5019 -21.13,-37.0549 -3.215,-14.1334 -3.244,-20.5442 -0.09,-21.7517 6.049,-2.3209 8.781,1.1617 14.801,18.8628 6.249,13.9448 11.707,24.6464 23.95,32.6706 l -4.387,-7.1013 c -10.122,-16.3822 -21.804,-46.213 -19.969,-50.9929 0.696,-1.8131 2.433,-2.682 4.706,-2.3524 2.602,0.3777 5.575,4.1452 10.716,13.586 3.914,7.1848 6.745,11.5936 6.289,9.7974 -2.508,-9.8829 -4.371,-24.6598 -3.534,-28.0028 1.082,-4.3099 5.939,-5.1584 8.925,-1.5595 1.042,1.2537 4.318,9.5097 7.279,18.3464 l 5.386,16.0669 1.029,-14.555 c 1.127,-15.9776 4.12,-22.25 7.555,-15.8319 1.006,1.8815 3.646,12.3387 5.867,23.2381 3.819,18.753 11.089,39.0383 13.988,39.0383 2.499,0 9.542,-10.7686 15.276,-23.3485 4.439,-9.7446 6.487,-12.5754 9.089,-12.5754 4.655,0 5.461,3.2565 3.339,13.4777 -3.44,16.5688 -19.626,43.5154 -27.673,46.0694 -2.483,0.7883 -3.26,4.0154 -4.827,20.0914 -2.95,30.2493 -5.624,107.2067 -4.408,126.7815 1.848,29.7021 7.45,52.4963 14.866,60.5002 4.777,5.3169 3.353,5.3084 8.346,0.6597 7.62,-7.0975 43.14,-62.3892 53.358,-83.0614 5.55,-11.2263 15.227,-31.801 21.505,-45.7216 10.699,-23.7266 12.181,-26.0841 23.661,-37.6871 25.469,-23.7804 57.91,-30.5353 92.499,-24.4726 24.191,4.5875 41.67,15.6047 56.515,35.62 13.272,17.8917 34.234,41.5144 50.355,56.7486 20.692,19.551 36.577,28.4233 62.986,35.1777 16.448,4.2069 21.096,4.1104 24.118,-0.5007 10.288,-15.7019 10.95,-58.427 1.841,-118.7718 -11.96,-79.2315 -12.306,-90.2246 -3.325,-105.5496 10.784,-18.4027 46.495,-45.8257 72.344,-55.5555 11.651,-4.3854 18.236,-4.0495 18.236,0.9304 0,4.8536 -4.816,9.3091 -17.962,16.6173 -14.601,8.1164 -33.908,21.5441 -31.746,22.0767 0.845,0.2088 4.237,0.8287 7.538,1.3794 3.3,0.5506 7.71,2.8026 9.798,5.0043 2.088,2.2016 4.715,4.0156 5.838,4.0311 1.122,0.022 3.547,1.5355 5.388,3.3775 3.716,3.7161 3.112,9.0461 -1.432,12.612 -2.18,1.7129 -2.297,2.6492 -0.651,5.2849 2.413,3.8643 2.638,12.458 0.363,13.8642 -1.095,0.6762 -1.095,2.0261 0,4.0713 6.815,12.7334 -6.771,22.353 -43.804,31.0178 -7.652,1.7904 -8.597,2.4554 -7.841,5.5162 1.556,6.2907 8.992,60.3453 10.932,79.462 4.56,44.9361 -3.83,84.7141 -19.7,93.3958 -15.025,8.2198 -60.801,-5.3343 -88.177,-26.1089 -5.838,-4.4299 -16.689,-14.476 -24.116,-22.3247 l -13.503,-14.2706 c 24.014,68.4547 -7.374,113.935 -6.397,154.1908 -0.939,33.3792 0.55,52.8929 6.367,83.4862 2.854,14.9976 -3.464,21.6284 -3.464,21.6284 -14.206,13.5019 -20.268,-67.2271 -20.865,-85.6485 z m 311.806,11.2097 c -13.92,-0.719 -49.559,-2.1593 -79.196,-3.2006 -35.058,-1.232 -62.656,-3.0729 -78.988,-5.2687 -13.806,-1.8564 -28.081,-3.4806 -31.725,-3.6093 -5.896,-0.2088 -6.77,-0.7728 -7.955,-5.1328 -1.772,-6.5225 -4.648,-79.899 -3.476,-88.6469 0.945,-7.0501 4.428,-9.3742 6.024,-4.0206 2.667,8.9514 6.134,35.8881 7.856,61.0373 l 1.969,28.7872 9.877,1.0225 c 5.431,0.5622 37.797,1.7324 71.924,2.6002 34.128,0.8678 86.667,2.3899 116.753,3.3825 30.087,0.9926 96.362,1.5645 147.277,1.2706 97.603,-0.5631 99.334,-0.4457 95.006,6.4508 -1.321,2.1018 -5.025,3.0785 -14.662,3.8643 -21.009,1.7138 -213.211,2.8825 -240.684,1.4635 z m 87.551,-58.8742 c -12.585,-2.7313 -22.233,-8.1745 -30.284,-17.0874 -7.733,-8.5598 -10.394,-14.135 -7.926,-16.6041 1.334,-1.3337 3.166,-0.6819 6.888,2.4507 7.107,5.9791 17.026,8.4242 24.765,6.105 5.416,-1.6226 6.148,-2.4816 6.597,-7.7463 0.723,-8.4938 4.688,-10.4478 11.294,-5.5651 5.17,3.8244 19.412,6.7677 19.428,4.0157 0,-0.7904 -1.244,-4.9286 -2.773,-9.1963 -3.617,-10.0877 -1.776,-12.5016 7.256,-9.5208 3.422,1.1296 8.404,1.8054 11.069,1.5023 4.799,-0.5451 2.933,-0.9271 5.337,-11.7469 l 0.488,-11.1959 7.371,1.1055 c 10.173,1.5257 12.414,-0.6107 11.094,-10.5686 -0.658,-4.9658 -0.378,-8.1347 0.79,-8.8552 0.997,-0.617 1.814,-2.2868 1.814,-3.7103 0,-1.4235 2.679,-4.9034 5.952,-7.7331 5.382,-4.6524 5.762,-5.5031 3.95,-8.8858 -1.864,-3.4826 -2.87,-3.7996 -14.525,-3.1925 l -12.522,0.5481 v -8.1644 c 0,-6.9455 -0.487,-8.2233 -3.266,-8.5565 -3.84,-0.4607 -7.116,1.9485 -11.081,8.1483 -1.58,2.4695 -4.299,4.4905 -6.044,4.4905 -4.053,0 -7.12,-5.6783 -5.835,-10.7997 1.724,-6.8648 -1.543,-10.4283 -9.556,-10.4283 -4.311,0 -7.888,0.9603 -9.123,2.4494 -3.626,4.3692 -6.531,2.8937 -6.531,-3.3169 0,-9.8977 -5.66,-9.2363 -18.243,2.1323 -7.667,6.9259 -11.632,5.9546 -12.501,-3.0623 -1.136,-11.7664 -8.014,-13.6426 -19.965,-5.4474 -6.406,4.3928 -11.343,5.1699 -11.343,1.7854 0,-4.5134 6.671,-21.355 10.387,-26.2279 21.85,-28.6464 58.627,-38.8111 100.034,-27.6468 14.749,3.9765 18.331,4.2821 41.8,3.9085 l 25.67,-0.4405 4.949,4.9467 c 8.757,8.7527 3.439,15.1146 -9.345,25.4661 l -5.308,2.6785 4.76,9.4317 c 7.625,15.1076 10.437,26.9579 9.578,40.3653 l -0.754,11.7684 7.497,-4.7577 c 8.818,-5.5962 27.176,-11.6252 31.352,-10.2994 4.507,1.4298 5.2,6.4479 2.279,16.4896 -1.839,6.3293 -5.728,10.7512 -9.639,16.5573 l -6.971,7.3788 5.445,8.0908 c 7.03,10.4466 7.499,19.4048 1.23,23.5122 -4.129,2.7046 -4.559,2.5852 -20.82,-5.7263 l -16.606,-8.4881 -3.265,4.4961 c -6.848,9.4304 -21.736,24.1642 -34.54,34.1893 -27.11,21.2241 -50.709,27.383 -80.308,20.958 z m 36.469,-12.7781 c 11.675,-3.1189 20.001,-7.7448 33.699,-18.7274 24.958,-20.0056 34.386,-31.0805 33.692,-39.5732 -0.348,-4.2469 0.362,-5.8302 3.276,-7.3209 3.265,-1.6706 3.413,-2.1534 1.224,-3.9707 -3.44,-2.8548 -3.119,-10.8079 0.898,-22.2329 4.753,-13.5238 3.57,-24.6687 -4.45,-41.9019 -12.208,-26.2303 -27.424,-36.9714 -63.139,-44.5709 -29.44,-6.2642 -61.233,-1.5261 -76.314,19.7587 l -7.196,7.3332 5.045,-1.0091 c 6.429,-1.2859 12.655,3.7495 17.933,8.9851 l 2.834,4.7947 6.181,-3.1534 c 8.86,-4.5202 17.329,-4.213 19.572,0.7101 1.553,3.411 2.588,3.7698 8.848,3.0643 9.397,-1.059 14.911,0.4909 19.55,5.4948 3.435,3.7076 4.423,3.9607 9.733,2.4943 8.606,-2.3766 14.926,0.2699 17.216,7.2099 1.006,3.0453 1.606,6.8442 1.336,8.4422 -0.689,4.0706 0.18,4.4164 7.917,3.1781 3.754,-0.6006 8.75,-0.3613 11.1,0.5321 5.124,1.9482 9.702,11.7366 8.232,17.5985 -1.092,4.343 -8.294,12.3812 -12.289,13.7126 -1.863,0.6213 -2.31,3.092 -1.933,10.6903 0.449,9.065 0.135,10.1683 -3.904,13.3388 -2.423,1.9058 -6.77,3.4564 -9.689,3.4564 -5.283,0 -5.292,0.022 -4.492,7.1091 0.44,3.9099 -0.02,8.6539 -1.038,10.5423 -2.142,4.0017 -10.88,6.8384 -17.29,5.6131 -3.914,-0.7485 -4.336,-0.4402 -3.402,2.4981 3.139,9.8908 -4.787,16.1914 -18.35,14.5851 -7.268,-0.8608 -7.908,-0.6241 -10.499,3.8904 -1.754,3.0571 -4.565,5.1681 -7.717,5.7988 -2.728,0.5454 -4.957,1.6345 -4.957,2.4204 0,2.2383 29.291,1.6345 38.373,-0.791 z m -18.38,-156.4253 c -1.118,-1.1182 -2.031,-4.0765 -2.031,-6.5741 0,-3.5013 0.949,-4.7795 4.146,-5.5822 5.515,-1.3839 10.881,3.3733 10.219,9.0583 -0.387,3.3029 -1.505,4.2673 -5.393,4.6492 -2.699,0.2649 -5.822,-0.4331 -6.941,-1.5512 z m -24.594,-3.0691 c -5.368,-2.2026 -4.394,-9.9226 1.513,-11.9869 5.744,-2.0073 12.307,-0.1437 13.333,3.7848 1.717,6.5629 -7.044,11.4032 -14.846,8.2021 z m 146.242,103.9986 c -4.273,-3.7314 -7.764,-8.0014 -7.757,-9.4887 0,-1.4875 3.704,-5.3569 8.217,-8.5986 11.954,-8.5872 19.52,-22.1619 10.984,-19.6991 -8.159,2.353 -20.929,9.7167 -28.818,16.6186 l -8.352,7.3067 4.502,4.8704 c 4.808,5.2012 26.664,18.156 28.121,16.6665 0.479,-0.4904 -2.624,-3.9445 -6.897,-7.6758 z m -29.018,-108.8178 c 13.4,-6.8356 9.278,-11.4537 -10.22,-11.4537 h -12.91 l 7.914,7.2832 c 4.354,4.0065 8.128,7.3125 8.389,7.3482 0.26,0.036 3.332,-1.3943 6.827,-3.1777 z m -214.41,131.1537 c -2.864,-2.8663 -0.202,-10.8703 9.527,-28.6684 5.838,-10.676 10.613,-19.7975 10.613,-20.2701 0,-0.4727 -2.474,0.6702 -5.498,2.5396 -12.479,7.7117 -14.448,2.3312 -3.049,-8.3303 11.65,-10.8978 22.237,-16.6847 26.422,-14.444 5.588,2.99 3.992,9.1465 -8.674,33.4688 -16.61,31.8987 -19.863,36.7929 -24.462,36.7929 -2.083,0 -4.279,-0.4899 -4.879,-1.0885 z m -192.962,-64.4964 c -0.952,-2.5059 -2.786,-24.0526 -4.073,-47.8812 -1.289,-23.8286 -3.455,-56.184 -4.818,-71.9007 -1.361,-15.7168 -3.188,-49.8854 -4.059,-75.9303 -4.39,-131.2543 -9.204,-211.4226 -14.707,-244.9361 -3.916,-23.8434 -4.019,-28.9401 -0.705,-35.3467 2.102,-4.0621 3.224,-4.7516 6.123,-3.7559 6.989,2.4009 27.01,2.6716 64.784,0.8759 21.106,-1.0032 79.891,-2.5648 130.633,-3.4705 50.743,-0.9055 105.487,-2.3613 121.652,-3.2354 42.923,-2.3205 153.766,-3.6584 175.365,-2.1168 15.001,1.0708 18.955,1.8817 20.403,4.1856 1.307,2.0786 1.307,3.6341 0,5.7056 -1.666,2.6431 -7.362,2.8486 -79.188,2.8575 -42.565,0 -139.113,1.1119 -214.553,2.459 -75.441,1.3472 -154.916,2.4494 -176.609,2.4494 -21.694,0 -39.22,0.3675 -38.944,0.8166 0.274,0.449 2.023,10.0014 3.889,21.2277 4.189,25.2161 8.363,75.5059 8.377,100.9605 0,10.4819 1.109,38.5307 2.454,62.3303 1.345,23.7996 3.181,65.3163 4.082,92.2593 0.902,26.9429 2.73,66.9898 4.066,88.9935 1.333,22.0034 2.616,55.0512 2.847,73.4398 0.386,30.7101 0.179,33.4798 -2.434,34.0016 -1.9,0.3783 -3.431,-0.9545 -4.585,-3.9887 z m 285.359,54.706 c -1.123,-0.4531 -2.041,-2.5095 -2.041,-4.57 0,-4.5064 2.104,-6.3491 10.247,-8.9722 7.021,-2.2619 15.879,-9.1177 15.879,-12.2898 0,-5.7452 -16.285,-3.5259 -26.669,3.6341 -4.814,3.3194 -6.887,3.9227 -8.981,2.6155 -3.665,-2.2861 -6.592,-11.5767 -7.823,-24.8223 -1.349,-14.5202 0.02,-15.6694 18.782,-15.7143 13,-0.031 14.077,0.2156 14.077,3.2323 0,2.6734 -1.872,3.6927 -10.328,5.6196 l -10.33,2.3539 1.087,5.8107 c 0.598,3.1957 1.23,5.9612 1.41,6.1453 0.179,0.1841 3.235,-0.7021 6.794,-1.9695 7.757,-2.7628 22.544,-3.1351 27.125,-0.6831 5.343,2.8594 8.435,12.1397 6.248,18.7607 -3.799,11.5156 -26.112,24.6279 -35.477,20.8491 z m -145.56,-58.3044 c -3.662,-4.4134 -0.722,-9.5566 11.321,-19.8102 6.329,-5.3886 12.944,-12.0884 14.702,-14.8889 4.194,-6.6877 4.16,-15.9851 -0.07,-20.2185 -3.896,-3.8942 -4.947,-3.9725 -12.264,-0.9147 -9.457,3.9505 -9.484,-3.0111 -0.05,-8.8497 8.388,-5.1842 14.904,-4.3495 22.044,2.8246 10.492,10.5378 10.209,24.2995 -0.797,38.7157 l -5.66,7.4138 h 5.377 c 6.28,0 9.298,2.459 9.298,7.5784 0,4.7199 -1.316,5.4308 -13.53,7.3134 -22.397,3.4525 -28.079,3.6088 -30.381,0.8361 z m -347.904,-115.5726 c -17.347,-3.4159 -22.015,-4.6618 -27.078,-7.2293 -3.217,-1.6311 -7.607,-4.7922 -9.755,-7.0247 l -3.907,-4.0587 -6.835,6.2999 c -8.11,7.4754 -15.317,9.2392 -26.649,6.5209 -24.147,-5.7927 -35.308,-30.9999 -22.376,-50.5396 2.412,-3.6463 3.66,-6.6298 2.773,-6.6298 -2.391,0 -6.587,-8.957 -6.657,-14.207 -0.04,-3.6553 -1.758,-5.7198 -8.539,-10.3017 -10.099,-6.8246 -12.373,-11.812 -9.603,-21.057 1.949,-6.5047 9.493,-15.8358 15.753,-19.4811 3.011,-1.7545 3.049,-2.0324 0.485,-3.5734 -16.105,-9.6779 -25.21,-23.0209 -26.903,-39.4258 -1.612,-15.6117 7.63,-27.9994 27.976,-37.4995 14.489,-6.7652 34.712,-8.496 45.009,-3.8524 l 6.389,2.8809 14.343,-11.3111 c 35.095,-28.5507 92.817,-48.9997 130.68,-19.0247 9.397,7.5928 15.216,18.1376 18.589,33.6805 2.392,10.4393 3.115,16.8748 13.786,18.4153 11.527,1.558 13.408,2.2829 18.539,6.5157 17.397,14.3523 -10.025,33.6542 -22.523,37.4813 -8.936,2.6768 -10.09,3.4763 -9.223,6.3938 5,16.8295 6.201,28.265 4.376,41.708 -1.035,7.6338 -2.326,15.8281 -2.867,18.2094 -0.784,3.4559 -0.283,4.5522 2.485,5.431 5.557,1.7632 8.909,8.0584 6.597,12.3816 -1.695,3.1674 -2.84,3.4734 -9.879,2.6398 l -7.964,-0.943 -5.871,8.846 c -8.571,12.9131 -29.463,31.8394 -42.99,38.9488 -16.745,8.7987 -41.814,13.0254 -58.161,9.8059 z m 37.556,-16.1144 c 12.14,-4.1856 28.697,-15.851 40.325,-28.4116 12.4,-13.3933 16.368,-19.9095 12.838,-21.0932 -1.295,-0.4347 -4.142,-2.5757 -6.325,-4.7577 -5.215,-5.2161 -2.721,-7.797 7.54,-7.797 h 7.652 l 2.13,-8.1646 c 2.695,-10.328 1.675,-34.5921 -1.928,-45.9794 -2.032,-6.4185 -3.983,-9.1992 -8.2,-11.6867 -3.042,-1.7955 -8.532,-7.6812 -12.198,-13.0795 -7.886,-11.6131 -17.401,-19.7934 -29.653,-25.497 -15.305,-5.2234 -26.898,-5.7477 -43.648,-2.6903 -7.656,1.4806 -16.732,0.2567 -17.113,-2.3079 -0.436,-2.9143 18.188,-10.2961 30.241,-12.4254 25.212,-4.4539 45.656,7.8526 62.997,20.5816 8.355,6.1847 18.855,26.5096 27.691,26.9505 4.302,0 22.001,-8.9333 25.506,-12.8704 4.275,-4.8023 2.059,-6.5819 -10.382,-8.3402 -19.291,-2.3062 -23.089,-15.0252 -26.196,-29.8003 -2.624,-12.9425 -10.15,-23.4437 -21.271,-29.6792 -31.242,-14.1962 -74.719,-0.6504 -98.791,15.3651 -7.973,6.731 -19.674,9.7821 -26.471,17.6508 -3.472,4.1342 -3.894,4.2224 -11.045,2.3097 -21.464,-5.7407 -47.833,2.6673 -55.626,17.7363 -7.241,14.0016 7.223,35.8324 31.375,47.3597 7.776,3.7101 10.571,5.9659 11.377,9.1777 1.293,5.1555 -3.321,9.4031 -8.393,7.7254 -8.819,-2.9161 -14.751,-2.5535 -20.371,1.2444 -7.47,5.0504 -11.271,11.7145 -8.887,15.586 0.973,1.5793 6.339,5.0761 11.927,7.7704 l 10.16,4.8987 -0.97,7.8098 c -1.244,10.034 -0.225,11.5723 5.703,8.5133 2.598,-1.344 7.883,-2.4547 11.745,-2.4684 9.216,-0.034 10.606,-1.1062 14.419,-11.142 4.717,-12.4104 4.293,-20.2955 -1.345,-25.0397 -8.199,-5.6893 -7.176,-13.1226 1.387,-15.25 7.365,-1.6177 9.154,-6.8035 5.843,-16.9294 -4.758,-14.5449 -2.598,-18.3715 8.334,-14.7636 7.378,2.4345 18.936,-0.681 23.35,-6.2936 4.365,-5.5501 5.474,-11.8108 1.017,-17.4771 -3.095,-4.4021 -4.482,-7.1972 1.672,-7.1972 9.764,0 13.857,19.8189 7.164,30.4459 -4.21,6.6848 -11.909,11.433 -20.666,12.746 -8.297,0.9952 -6.865,0.2103 -5.974,8.1144 1.006,8.9233 -0.393,14.6154 -4.639,18.8596 -2.948,2.9494 -3.103,3.9718 -1.388,9.1743 2.679,8.1137 0.919,22.0113 -3.875,30.5854 l -3.992,7.1435 4.506,3.3313 c 9.237,6.8291 13.474,21.6808 9.819,34.4235 -1.891,6.5909 -0.775,8.3869 7.798,12.5509 14.832,7.2048 48.272,8.7971 64.833,3.0872 z m -28.458,-5.3185 c -8.905,-4.5399 -12.176,-10.3686 -12.866,-22.9105 -0.662,-12.0858 1.877,-25.8182 6.889,-28.97 2.234,-1.404 5.038,-0.6112 8.716,2.9121 5.99,5.7386 33.207,17.5143 43.221,18.7002 4.293,0.5085 9.093,1.8653 10.665,3.0151 5.65,6.6939 -12.895,13.2598 -18.009,17.2887 -15.91,12.5347 -27.543,15.6112 -38.616,9.9644 z m 18.514,-14.1188 c 8.907,-3.7215 8.581,-5.583 -1.774,-10.1429 -5.231,-2.3027 -11.978,-6.0597 -14.998,-8.3485 -7.135,-5.6696 -5.626,-4.9964 -4.297,2.9992 2.725,16.3961 8.588,20.7068 21.069,15.4922 z m 9.441,-69.2262 c 0.434,-5.2011 1.121,-6.1255 4.884,-6.5604 5.482,-0.6333 8.258,3.9272 7.553,12.4138 -0.431,5.2011 -1.121,6.1257 -4.884,6.5604 -7.123,0.4078 -7.945,-6.9918 -7.553,-12.4138 z m 30.781,2.8819 c -4.454,-5.3691 -5.143,-15.9567 2.604,-17.9172 4.435,-1.1223 8.867,9.2513 8.752,13.9614 0.02,6.8404 -6.966,9.2442 -11.356,3.9558 z m -51.233,-19.0057 c -3.963,-3.9628 3.007,-13.6075 9.832,-13.6075 5.124,0 5.005,5.4499 -0.233,10.688 -3.961,3.9618 -7.486,5.0334 -9.599,2.9195 z m 48.545,-14.1567 c -2.558,-2.1988 -3.938,-4.6198 -3.26,-5.7151 3.154,-5.1068 17.319,1.2607 15.184,6.8263 -1.473,3.8382 -6.742,3.3474 -11.924,-1.1112 z m -121.542,110.589 c 10.966,-12.4878 11.017,-25.8906 0.134,-34.4659 -4.755,-3.7478 -4.724,-2.095 0.04,2.6799 3.916,3.9148 4.774,6.1464 4.774,12.4102 0,6.5081 -0.82,8.4576 -5.551,13.1888 -7.153,7.1516 -16.843,7.7993 -23.099,1.5438 -6.475,-6.4757 -5.011,-15.5088 4.217,-26.0192 2.847,-3.2431 4.466,-5.8967 3.595,-5.8967 -3.388,0 -10.068,6.8859 -13.445,13.8628 -3.011,6.2207 -3.269,8.1431 -1.727,12.8168 2.991,9.0672 11.752,15.4378 21.553,15.6725 2.997,0.072 5.909,-1.7037 9.499,-5.793 z m -9.803,-14.4363 c 2.604,-3.1364 1.538,-8.0721 -1.884,-8.7311 -3.134,-0.6035 -6.899,5.3276 -5.575,8.7803 1.152,3.0003 4.949,2.9752 7.459,-0.049 z m 508.834,-12.8153 c 0,-8.1566 -0.86,-12.119 9.389,-12.1524 10.692,-0.036 14.17,-1.4648 14.17,-5.826 0,-4.3338 -4.239,-7.2151 -10.613,-7.2151 -6.035,0 -10.613,-2.8209 -10.613,-6.5388 0,-2.0432 3.17,-5.1866 8.981,-8.9033 4.939,-3.1598 8.981,-6.4104 8.981,-7.2234 0,-2.085 -4.235,-3.4609 -10.652,-3.4609 -6.592,0 -8.949,-2.9287 -4.798,-5.9629 4.641,-3.3948 15.935,-2.7572 20.944,1.1826 5.316,4.182 5.884,12.6398 1.138,16.9356 -3.103,2.808 -3.04,2.9838 3.265,8.9813 5.489,5.2215 6.43,7.119 6.43,12.9591 0,8.7966 -3.473,13.967 -11.559,17.2024 -8.457,3.3843 -25.063,4.7922 -25.063,0.023 z m 154.745,-6.0067 c -1.806,-2.0208 -4.969,-6.1248 -7.028,-9.1204 l -3.743,-5.4466 -7.602,7.4877 c -7.809,7.692 -11.094,8.944 -14.511,5.528 -3.546,-3.5454 -1.13,-7.0861 5.458,-15.9071 l 7.416,-7.9293 -4.877,-7.6895 c -5.457,-8.6047 -7.795,-16.6829 -5.496,-18.9825 2.501,-2.5008 6.04,-0.1235 12.575,8.4444 3.398,4.4548 6.691,8.0995 7.322,8.0995 0.631,0 5.045,-3.327 9.81,-7.3934 6.762,-5.7721 9.147,-6.9892 10.88,-5.5509 2.544,2.1105 0.901,6.154 -6.551,16.1191 -2.313,3.0932 -4.206,6.2478 -4.206,7.0101 0,0.762 2.939,5.2786 6.532,10.0367 6.724,8.906 7.986,13.5961 4.573,17.0086 -2.99,2.9896 -6.92,2.3513 -10.552,-1.7144 z m -38.053,-140.3582 c -2.876,-5.3772 -1.859,-12.0045 3.197,-20.8225 6.413,-11.1797 14.567,-18.885 25.428,-24.027 7.277,-3.4454 8.875,-4.9423 8.875,-8.3061 0,-3.8356 -0.532,-4.1034 -8.164,-4.1034 -14.43,0 -19.264,-8.8658 -12.643,-23.1881 9.184,-19.8594 16.88,-21.6558 10.647,-2.485 -2.772,8.5313 -3.129,11.4025 -1.605,12.927 2.764,2.7646 9.886,-2.7848 14.751,-11.4954 4.147,-7.4212 8.438,-10.5763 12.347,-9.0764 4.847,1.8602 4.74,7.2321 -0.339,16.9206 -2.71,5.1688 -5.431,12.7739 -6.051,16.9002 l -1.125,7.5023 6.709,-0.2674 c 4.463,-0.1774 7.652,0.6776 9.533,2.5596 4.688,4.6871 0.849,8.1787 -11.091,10.0867 l -10.387,1.6602 -5.945,10.6137 c -3.269,5.8376 -9.428,14.4717 -13.689,19.1868 -6.429,7.1154 -8.681,8.5728 -13.252,8.5728 -3.772,0 -6.037,-0.9947 -7.196,-3.1586 z m -273.339,-0.4953 c -1.672,-1.2554 -2.764,-3.6944 -2.434,-5.4351 0.49,-2.5679 2.217,-3.2507 9.244,-3.6544 13.099,-0.7526 13.905,-8.3961 0.892,-8.4594 -5.097,-0.025 -7.798,-2.8798 -5.739,-6.0646 0.59,-0.9136 4.748,-3.3627 9.239,-5.4421 6.287,-2.9118 7.387,-3.9206 4.787,-4.389 -1.859,-0.3343 -6.455,0.083 -10.216,0.9282 -8.689,1.9522 -10.277,-0.3222 -3.227,-4.6212 6.738,-4.1081 21.07,-4.5293 24.867,-0.731 3.648,3.6481 3.19,6.8087 -1.633,11.2794 -3.462,3.2076 -3.893,4.4676 -2.449,7.1628 5.06,9.4566 -1.28,19.6599 -13,20.9197 -4.783,0.5139 -8.339,-3e-4 -10.331,-1.4933 z m 108.767,-2.3263 c -3.516,-1.419 -2.236,-7.7342 2.806,-13.8526 l 4.848,-5.8807 -3.366,-3.0459 c -5.267,-4.7669 -6.67,-8.373 -4.697,-12.0633 2.643,-4.9364 9.917,-4.2082 15.43,1.5441 l 4.607,4.81 7.836,-6.6067 c 11.599,-9.7814 14.904,-4.7698 5.303,8.0436 l -4.001,5.3417 5.124,6.4713 c 9.07,11.4532 3.983,19.1809 -6.48,9.8402 -3.049,-2.7228 -6.332,-4.9436 -7.293,-4.9348 -0.961,0 -4.973,2.5804 -8.916,5.7153 -7.377,5.8632 -7.741,6.0136 -11.201,4.6178 z m -33.612,-35.9312 c -0.597,-0.5988 -1.086,-3.8589 -1.086,-7.2445 0,-5.7519 -0.35,-6.1897 -5.308,-6.6677 -6.511,-0.6278 -6.435,-3.283 0.157,-5.1987 4.839,-1.408 6.725,-4.7188 6.772,-11.8758 0.02,-4.0778 3.954,-6.1663 6.289,-3.3434 0.884,1.0692 1.857,4.1486 2.162,6.8429 0.427,3.7915 1.289,4.8111 3.817,4.5114 6.152,-0.7293 10.615,1.1545 10.615,4.4812 0,2.4763 -1.468,3.4503 -6.385,4.2364 -5.921,0.9468 -6.516,1.542 -8.188,8.1839 -1.303,5.1755 -2.627,7.163 -4.774,7.163 -1.634,0 -3.46,-0.4899 -4.059,-1.0887 z m -93.766,-5.8513 c 0.369,-1.1227 3.238,-2.898 6.379,-3.9454 9.801,-3.2688 46.338,-10.3425 53.421,-10.3425 5.699,0 6.752,0.5178 6.752,3.3171 0,4.0433 1.756,3.5469 -31.025,8.774 -30.306,4.8327 -36.517,5.2166 -35.527,2.1968 z m 215.845,0.4598 c -22.823,-2.611 -16.563,-8.9902 10.721,-10.927 11.568,-0.821 14.314,-0.5485 16.094,1.5987 1.183,1.4237 1.698,4.014 1.143,5.7563 -1.632,5.1484 -7.562,5.9057 -27.958,3.572 z m 34.682,0.4928 c -3.064,-3.0634 -0.532,-10.2632 6.806,-19.3464 l 7.892,-9.7738 -2.986,-4.8987 c -6.233,-10.2246 -2.255,-15.3276 5.835,-7.4854 l 5.292,5.1286 6.321,-5.0224 c 6.722,-5.3423 14.239,-6.1124 15.101,-1.5476 0.26,1.3768 -2.225,5.6569 -5.523,9.5113 l -6,7.0079 8.398,8.502 c 8.347,8.4536 10.18,13.3092 6.435,17.0536 -3.696,3.6977 -7.587,1.9462 -15.569,-7.0097 l -7.995,-8.9688 -7.744,8.9688 c -7.27,8.422 -12.964,11.1805 -16.263,7.8806 z m -123.264,-9.1718 c -3.549,-4.2779 1.199,-6.5941 21.182,-10.33 24.071,-4.5003 31.276,-4.7884 34.119,-1.3648 1.751,2.1127 1.58,3.0598 -1.026,5.649 -2.34,2.3245 -8,3.7462 -22.401,5.6261 -23.461,3.0623 -29.613,3.1434 -31.874,0.4197 z m -102.614,-10.2509 c -1.502,-3.9173 0.66,-18.1758 4.816,-31.7418 3.339,-10.9002 4.194,-12.2467 7.764,-12.2467 3.419,0 4.086,0.86 4.502,5.8193 0.577,6.8713 -5.331,35.249 -8.009,38.4777 -2.508,3.0221 -7.865,2.84 -9.073,-0.3085 z m 189.681,1.4621 c -12.089,-1.1101 -14.134,-1.9974 -13.577,-5.8936 0.431,-3.0183 1.964,-3.8081 9.495,-4.8933 4.939,-0.7117 14.782,-1.0867 21.873,-0.8334 10.171,0.3635 13.269,1.0636 14.686,3.3183 1.307,2.0784 1.309,3.6368 0,5.7152 -1.43,2.274 -4.264,2.8912 -13.871,3.0219 -6.641,0.09 -15.016,-0.1055 -18.609,-0.4351 z m -72.371,-8.8036 c -2.684,-1.0764 -3.636,-2.5935 -3.265,-5.2034 0.453,-3.193 1.612,-3.741 8.687,-4.1108 11.451,-0.5986 15.512,-1.732 15.512,-4.3286 0,-2.693 -3.529,-4.2258 -9.731,-4.2258 -5.034,0 -9.648,-4.1376 -7.263,-6.5128 0.815,-0.8117 4.365,-2.4339 7.89,-3.6048 8.606,-2.8606 9.571,-6.2114 1.785,-6.2114 -3.276,0 -7.38,0.7607 -9.116,1.6902 -4.612,2.4682 -4.219,-2.3961 0.458,-5.672 12.01,-8.4113 28.694,-0.7586 21.68,9.9445 -2.454,3.748 -2.465,4.3623 -0.112,6.9589 3.77,4.1643 3.233,12.0197 -1.096,16.0865 -2.021,1.8979 -6.98,4.2126 -11.022,5.1434 -8.732,2.0111 -9.497,2.0136 -14.403,0.047 z m 226.855,-12.1845 c -6.639,-1.2022 -13.164,-3.2779 -14.498,-4.6131 -4.097,-4.0972 -1.199,-9.867 7.758,-15.4334 11.468,-7.1291 10.541,-15.6543 -1.249,-11.4869 -4.975,1.7584 -7.099,-3.0498 -2.752,-6.2286 4.914,-3.593 13.453,-2.741 17.989,1.7949 5.24,5.2393 5.204,12.2831 -0.09,18.5803 l -4.102,4.8767 6.96,1.1482 c 8.471,1.3974 11.044,3.2963 11.044,8.1525 0,6.1262 -2.683,6.5352 -21.053,3.2094 z" fill="#00B894" transform="translate(92.412872,-122.63516) matrix(0.26458333,0,0,0.26458333,-6618.1047,1081.3062)"/>
</svg>