<?xml version="1.0" ?><svg height="152.65593mm" viewBox="0 0 221.71243 152.65593" width="221.71243mm" xmlns="http://www.w3.org/2000/svg">
    <path color="#000" d="m 2072.8017,849.12221 46.184,-122.26286 145.3896,-43.72314 37.3071,62.5079 -51.0423,126.04141 -112.701,47.6636 z" fill="#FFFFFF" overflow="visible" paint-order="fill markers stroke" transform="translate(-122.76436,-1.5455507) matrix(0.26458333,0,0,0.26458333,-266.03273,-177.59693)"/>
    <path d="m 2265.2114,677.08996 c -2.5015,-0.11472 -6.0034,0.39355 -11.6016,1.31836 -36.3467,6.58488 -80.3241,20.03181 -115.0695,33.02578 -20.4039,6.11818 -24.7629,5.3102 -32.4141,20.49023 -11.579,27.86407 -23.7785,59.92677 -34.6961,84.64415 -3.3151,7.3443 -6.1925,21.16046 -5.9179,28.41797 0.2036,5.38179 5.6266,17.39082 9.3925,20.79882 11.5722,16.71309 26.7562,33.84239 40.2207,46.21485 6.7562,6.6045 20.3832,12.29093 29.1133,12.14843 36.8155,-3.52204 70.7259,-22.16288 104,-42.41601 10.0663,-6.1493 12.1942,-8.54483 21.8809,-24.64063 17.9649,-32.3916 24.7563,-65.07165 36.8476,-104.15429 3.5081,-10.51469 -13.2757,-40.21684 -28.1113,-63.81836 -7.4812,-8.50617 -8.1413,-11.77691 -13.6445,-12.0293 z m -22.5762,19.1875 c 1.1349,0.0101 1.6014,0.60098 1.5957,1.75195 -7.2892,21.07915 -16.7823,44.54066 -24.6074,62.42383 -9.6183,21.7973 -6.8682,38.58937 3.8808,23.69727 15.231,-23.79187 30.5523,-58.01975 37.4727,-82.07032 1.4229,-5.1982 5.8003,-2.47681 8.6094,0.20313 8.0698,12.58248 23.8272,34.7146 19.9746,38.70703 l -5.3281,20.39844 c -7.4366,23.35987 -17.9188,57.88011 -26.6114,78.39844 -1.1588,1.8333 -4.7943,8.90273 -8.0781,15.71093 -4.6834,9.7101 -6.6899,12.55406 -9.3047,13.18946 -30.5843,10.73497 -65.5879,33.7428 -95.4668,39.00976 -8.3862,1.26915 -19.4413,-3.06154 -27.0605,-11.63867 -18.067,-17.72551 -38.3297,-44.97341 -36.666,-49.45898 l 4.789,-13.74024 c 2.6342,-7.5565 6.0997,-17.03896 7.7012,-21.07226 9.544,-27.22458 21.3825,-50.27898 29.6512,-75.19884 1.4478,-5.97521 14.9786,-8.06058 22.3261,-10.74609 34.9986,-11.14614 64.6735,-23.25977 97.1223,-29.56484 z m -102.3965,40.34375 c -4.6432,6.90247 -15.3682,15.43765 -15.9804,22.47461 1.1458,12.06214 9.671,12.99729 16.6367,10.0293 7.4152,-4.76604 7.2463,-3.2483 6.4121,-0.0586 0.7616,7.43163 6.3645,15.082 14.2637,12.72071 2.1626,-0.6864 3.0221,-0.26946 3.541,1.71484 0.377,1.4416 2.0822,3.36795 3.789,4.28125 1.9186,1.0269 3.4249,3.37926 3.9473,6.16406 2.8586,9.48872 13.3141,9.75509 19.3184,5.96289 3.354,-2.1652 8.1464,-2.1359 9.5136,0.0586 0.4253,0.6826 1.7072,0.88371 2.8496,0.44531 6.5632,-5.89659 3.5072,-19.58299 -5.5351,-17.59766 -3.9039,1.0209 -4.4799,-0.83764 -1.4531,-4.68554 2.9316,-3.7271 2.1333,-5.48285 -4.3028,-9.46875 -4.1101,-2.5454 -4.6308,-5.05278 -1.666,-8.01758 8.7816,-17.55668 -12.2476,-4.92986 -15.9512,-2.22656 -14.6161,10.50973 -7.5419,1.5433 -1.8828,-4.26954 15.6404,-14.27067 8.5426,-27.34796 -5.3457,-16.85546 -3.8806,1.17074 -24.0187,19.16322 -16.1387,6.16015 8.4584,-14.31402 -7.4278,-13.75112 -12.0156,-6.83203 z m -648.7641,76.37098 c -7.2905,25.38836 27.3155,-1.01846 27.375,3.80078 7.7706,33.98008 45.2495,10.04049 63.0762,2.86719 2.5848,15.53913 16.2921,19.76909 46.2812,0.63867 2.4903,-3.0006 3.7563,-2.41407 5.9082,2.73633 3.8625,7.28011 19.0117,19.78149 26.0567,11.97265 1.9919,-2.4 0.6629,-11.2893 -1.7149,-11.4707 -8.2165,-0.0774 -12.747,-3.43228 -12.9199,-10.81445 -1.1123,-31.14363 -45.8251,10.58952 -50.5195,4.57617 0.6824,-4.4595 -5.457,-11.79022 -10.8672,-12.97852 -15.2749,-2.03373 -32.8575,15.04099 -47.1641,15.33985 -4.6745,0 -5.5353,-2.70408 -3.541,-11.11328 -0.3183,-7.15525 -32.3287,5.55701 -9.2583,-9.8026 -1.1453,-14.89573 -29.3341,6.21863 -32.7124,14.24791 z m 207.0176,-4.90816 c -6.2469,4.33773 -5.9613,9.49358 -7.6817,16.31446 -0.086,8.41983 -0.4557,12.36654 4.4883,17.31054 6.3319,6.3318 12.0728,5.32598 34.9121,-6.11132 18.5705,-9.2997 20.4223,-9.6512 20.6914,-3.9375 0.1556,3.3036 8.0066,8.56387 13.1778,8.83007 7.1736,0.3693 31.3753,-9.37268 33.8183,-13.61328 0.8,-1.3887 1.9568,-0.80077 4.8926,2.48243 7.6891,7.43645 30.4955,4.97679 34.1582,-4.67579 1.3652,-6.3685 -3.8914,-8.98283 -9.1367,-8.21484 -15.3929,2.4079 -14.9987,2.44868 -15.334,-1.60352 -0.38,-4.5909 -6.45,-11.20507 -10.2832,-11.20507 -8.503,-0.41477 -23.0911,18.25102 -35.2812,20 -0.7586,0 -1.2855,-2.37123 -1.1719,-5.26954 0.2326,-7.37325 -9.7165,-15.58455 -14.1602,-12.11914 -10.4787,8.47175 -30.2794,12.70007 -39.955,20.20704 -9.4614,5.99688 2.9082,-9.1123 5.3144,-12.66407 5.9451,-16.64345 -13.5307,-16.42493 -18.4492,-5.73047 z m 187.3867,-6.83989 c -4.1415,4.12563 -3.2678,11.91804 -0.8574,18.00195 2.0563,4.9418 9.2634,11.09513 15.4258,13.16993 5.4295,1.8281 16.0679,0.0478 22.1797,-3.71094 4.028,-2.4771 4.9414,-2.56871 9.7714,-0.97461 6.5369,1.3639 13.9876,1.5739 19.2481,-3.34375 2.9756,-2.9756 7.3766,-3.91684 8.7402,-1.86914 5.5493,8.3335 7.9542,9.58831 14.6699,7.66601 7.6788,-2.1979 9.127,-3.46145 9.127,-7.97265 0,-3.9955 -2.7306,-6.25596 -8.9121,-7.37696 -1.8392,-0.3334 -4.8396,-2.38374 -6.668,-4.55664 -8.6975,-9.32636 -12.2937,-8.10775 -21.4531,-2.61328 -5.2315,3.1897 -8.1071,3.38268 -9.1699,0.61328 -12.3691,-16.42214 -19.5199,5.08915 -31.4551,8.8086 -4.511,1.2938 -9.0098,-1.25251 -9.0098,-5.09961 0,-2.9908 -8.9586,-11.26059 -11.6367,-10.74219 z m 114.5059,0.7207 c -5.7907,0.003 -7.3718,2.07195 -6.4727,7.61328 -2.3333,12.02161 19.1897,13.17893 19.6035,2.7168 0,-1.2226 -0.9967,-3.91301 -2.2168,-5.97851 -1.8101,-3.0642 -3.3144,-3.84427 -8.1699,-4.23047 -1.0041,-0.0799 -1.9169,-0.12149 -2.7441,-0.1211 z m -155.541,3.02735 c -2.9668,0 -6.0219,4.64325 -5.9649,9.06445 0.049,3.8231 5.2545,14.13602 8.3652,16.57422 3.9941,3.1305 7.051,2.93674 9.5293,-0.60156 2.4323,-3.4726 2.7537,-9.92131 0.5313,-10.66211 -0.8495,-0.2832 -1.7461,-1.83457 -1.9922,-3.44727 -0.644,-4.2195 -7.0698,-10.92773 -10.4687,-10.92773 z m 341.6078,12.463 c -0.9455,0.003 -2.0903,0.45517 -3.3711,1.50782 -27.0507,9.43376 -54.6082,24.89995 -79.6152,28.22461 -13.6972,5.59609 -2.4069,14.20195 5.7734,13.49414 28.2366,-0.30426 56.0834,-20.12767 73,-30.21485 8.6549,-4.60235 8.3102,-13.02576 4.2129,-13.01172 z m -169.1411,27.71278 c -13.0708,2.64425 -12.2946,-13.37406 -27.3671,-2.95703 -6.5683,4.6297 -7.8266,4.94076 -8.8809,2.19336 -5.418,-8.55423 -14.0637,-5.80973 -13.1191,2.71093 1.1425,8.75272 9.9475,19.28142 19.5273,13.72852 9.7043,-6.94002 14.1349,8.54981 26.7109,3.09375 3.3463,-0.51122 28.1634,-25.77005 21.0196,-10.63867 -6.3048,15.48173 4.7585,22.53461 13.0898,10.25 6.9459,-10.3276 6.5063,-12.34347 5.7132,-15.04907 -4.5406,-20.00219 -26.6059,-10.16428 -36.6937,-3.33179 z m 200.7954,-21.8241 c -0.7716,0.002 -1.2921,0.41802 -1.9355,1.19336 -1.3354,1.6089 -1.3337,3.50808 0.014,9.52148 2.2014,9.8369 6.8506,20.18249 9.3789,20.87109 8.224,2.24 10.1972,-0.56915 8.0528,-11.46875 -2.1681,-11.0207 -4.157,-14.4283 -10.4844,-17.9707 -2.6255,-1.46987 -4.0333,-2.14935 -5.0254,-2.14648 z m -670.6352,37.64832 c -0.3418,0 -0.6211,-1.49447 -0.6211,-3.32227 0,-5.1157 -5.0069,-10.00976 -10.2402,-10.00976 -9.39,0.39096 -19.5761,14.10549 -28.0723,14.66601 -0.6836,0 -1.2422,-1.89458 -1.2422,-4.20898 -3.1834,-16.48058 -14.3829,-4.17157 -16.7929,3.59372 -2.687,8.80105 -2.3788,11.81953 1.748,17.0664 9.9614,8.31916 21.969,-2.3643 29.9883,-8.59375 17.2015,-14.98404 10.6251,9.44084 28.9902,4.71485 1.6249,-0.5016 6.9777,-3.28781 11.8945,-6.19141 15.1817,-13.44214 23.0219,24.36886 34.3926,-3.79687 0,-5.0527 -2.1543,-7.20824 -5.8066,-5.80664 -1.2236,0.4696 -2.6252,-1.56537 -4.334,-6.29297 -8.3755,-20.08948 -25.3202,5.94759 -39.9043,8.18167 z m 303.957,0.66601 c 0.8573,4.5701 7.8663,12.09161 12.0879,12.97071 5.3556,0.26418 10.7112,-3.66058 14.9551,-6.95703 l 3.375,-2.6543 4.4375,4.84375 c 4.2058,4.5916 4.7599,4.80053 10.6152,3.99805 7.886,-1.99118 17.3534,-6.49796 22.2832,-13.01954 2.4536,-3.3059 2.4734,-3.71128 0.3789,-7.76172 -1.5133,-2.92646 -2.7084,-3.89667 -3.7929,-3.07617 -5.2506,3.46636 -11.496,3.56494 -16.6856,7.42578 -1.8619,1.4675 -4.1699,-0.76677 -4.2109,-4.07617 -3.8142,-7.34491 -20.0911,0.72445 -24.3555,2.9043 -2.7813,1.4509 -3.666,1.51331 -3.666,0.25781 -5.2979,-18.12963 -17.7608,-9.0328 -15.4219,5.14453 z m -216.4375,-2.79101 c -2.1957,1.9874 -2.8066,2.11509 -2.8066,0.58789 0,-3.9301 -3.4011,-6.58562 -9.1016,-7.10742 -4.0364,-0.3694 -5.9228,0.0239 -6.4277,1.33984 -13.5166,20.56216 26.3321,17.62384 28.8769,16.91797 2.4778,-0.9194 4.3326,-0.62942 7.3184,1.14648 5.1438,3.0594 4.524,3.14251 8.2559,-1.09179 7.5609,-8.579 8.1632,-9.98356 6.2519,-14.56446 -5.9034,-7.30179 -25.7224,-2.99601 -32.3672,2.77149 z m 167.8399,3.43945 c 4.0235,5.63018 9.8109,10.59107 16.6855,12.26953 3.5236,0.7315 17.0671,-2.75204 18.3145,-4.71094 0.5388,-0.8461 0.989,-2.90416 1,-4.57226 0.027,-4.034 -4.1427,-5.48713 -13.2324,-4.61133 -7.0818,0.6823 -7.3523,0.5815 -11.461,-4.3125 -5.3486,-9.97039 -17.3215,-0.47612 -11.3066,5.9375 z m -96.0821,-7.98437 c -4.7439,0.11039 -10.6757,2.60683 -13.6757,7.18554 -6.3915,9.7546 0.073,22.12953 11.5664,22.14453 3.9313,0.005 6.3872,-1.076 10.5722,-4.6582 5.5525,-4.7527 7.6387,-5.67862 7.6387,-3.38672 0,1.9705 5.5426,6.83018 10,8.76758 2.2,0.956 5.7319,1.39461 7.8496,0.97461 3.8237,-0.7585 16.6477,-6.82153 21.1895,-10.01953 3.556,-1.76639 6.1633,1.79502 9.789,2.40431 6.3311,1.01238 16.957,-3.31395 24.1719,-9.83985 3.1127,-7.23597 -0.9058,-10.55732 -8.4297,-8.90039 -5.3572,0.63759 -9.7951,4.46011 -14.5527,2.00781 -4.5258,-2.4222 -13.2146,-0.73461 -24.1016,4.67969 -5.0874,2.53 -9.9534,4.61105 -10.8144,4.62305 -0.8611,0.0124 -2.9797,-2.82715 -4.7071,-6.31055 -2.884,-6.56524 -11.7236,-8.33262 -16.3222,-4.27344 -1.5163,1.5164 -3.4704,1.68134 -3.2481,0.27344 0.5776,-3.6582 -2.2049,-5.48863 -5.9941,-5.66211 -0.3045,-0.0139 -0.6154,-0.0165 -0.9317,-0.01 z m 258.3946,15.0957 c -0.912,0.0502 -3.9907,0.41635 -5.096,2.71217 -2.3188,11.85155 5.1519,36.16267 11.635,46.2683 11.131,26.79699 47.1032,20.58438 61.0313,-4.05664 3.7301,-6.8535 3.843,-10.68164 0.3144,-10.68164 -3.5185,0 -16.122,7.52417 -22.0625,13.17187 -5.3398,5.0765 -6.4494,5.5664 -11.9941,5.2793 -11.3189,-0.5859 -13.9804,-3.18708 -18.8086,-18.39258 -5.4936,-24.92369 14.5657,-5.02105 22.4512,-4.52344 9.975,0.6101 24.0785,-2.22765 24.3847,-4.90625 0.3421,-2.9927 0.066,-6.13023 -0.7617,-8.67773 -5.3249,-8.28303 -40.2131,3.65272 -42.0527,-4.03516 0,-1.9988 -6.4291,-4.82619 -9.1543,-4.02539 -4.9795,0.16452 -5.5655,-8.20329 -9.8867,-8.13281 z m 82.041,28.04101 c 3.2214,2.2822 7.1491,1.92805 13.5371,-1.22265 22.2225,-18.18733 -29.5591,-10.57722 -13.5371,1.22265 z m -299.252,-4.95507 c -7.8229,5.4986 -19.9041,11.68532 -25.3496,12.98242 -3.5268,0.8402 -3.57,0.7724 -2.1562,-3.28321 1.6806,-6.7617 -5.4826,-13.09396 -10.0567,-10.12109 -8.273,6.89155 -4.746,10.13855 -15.9394,10.8125 -10.7061,4.87577 -0.1333,17.82855 6.625,13.41992 6.4284,-4.18439 10.7142,8.38817 17.5195,6.62891 9.3033,0.11792 15.3888,-6.17569 21.3028,-8.31055 9.5105,-9.63172 12.1043,23.57539 43.6386,-4.30664 3.1496,-3.4803 4.408,-3.36373 6.2032,0.57617 3.6658,8.0464 17.1308,6.59445 17.1308,-1.84765 -3.9351,-11.91089 -12.889,-25.03311 -18.6641,-16.06446 -4.0109,2.08933 -28.6405,14.44817 -25.4648,8.24415 1.9472,-14.90067 -6.8748,-14.2642 -14.7891,-8.73047 z m -263.6464,14.55273 c -2.1244,-1.313 -4.4096,4.55397 -3.5352,9.07617 6.7237,25.0408 24.9826,-12.49578 34.3574,-0.7832 13.4452,15.69205 36.7158,-5.8377 42.9805,-1.875 8.2183,5.53633 30.3786,2.82157 35.4863,-3.85156 6.0622,-14.15151 -13.4288,-13.14712 -19.3906,-11.95703 -10.6521,4.06891 -16.3622,-10.39196 -24.0176,-3.32227 -4.0588,3.75501 -17.3626,9.9027 -22.5332,11.98242 -1.7357,0 -1.9933,-0.96026 -1.3457,-5.00976 -3.487,-28.18474 -36.2229,6.78429 -42.0019,5.74023 z m 351.7773,-5.06445 c -14.6292,-21.29333 -19.9037,-2.55965 -13.0117,8.85742 5.6317,9.35073 7.8836,13.45539 18.5449,6.33008 10.0411,-9.1027 23.7803,-14.26388 32.9082,-22.59571 2.6778,-2.4816 3.0312,-3.41681 1.6231,-4.2871 -11.6731,-8.30161 -35.8924,20.39213 -40.0645,11.69531 z m -234.623,11 c -2.853,0 -7.3266,3.80164 -22.3575,18.99804 -6.3876,6.42127 -16.4891,11.56168 -20.2324,21.55079 0,1.1139 -1.1585,2.64464 -2.5742,3.40234 -3.503,1.8747 -6.1496,-0.9402 -7.2285,-7.6875 -1.6216,-10.1408 -8.4693,-10.91915 -17.0313,-1.93555 -8.555,8.9763 -9.8069,9.22901 -9.9648,2.00391 -0.1533,-7.0156 -2.6956,-9.66406 -9.2754,-9.66406 -3.2851,0 -5.7452,1.48961 -11.0039,6.66601 -3.725,3.6666 -7.1801,6.66602 -7.6797,6.66602 -0.4996,0 -0.5534,-1.77567 -0.1191,-3.94727 -12.4775,-13.32957 -27.5028,38.43221 6.0605,16.71485 l 6.7852,-4.56446 2.2363,3.78516 c 2.3049,3.9019 6.8753,6.70139 10.8574,6.65039 3.2133,-0.0414 12.5807,-4.47139 15.3848,-7.27539 2.2593,-2.2594 2.5011,-2.22978 5.623,0.70312 3.9981,3.756 4.0002,3.81099 0.125,9.52149 -1.7265,2.5441 -4.1235,8.86791 -7.4668,12.51953 -3.0114,3.28906 -5.8965,6.39434 -5.0801,9.12109 -4.2366,-1.7991 -7.012,-10.47159 -14.3359,-5.37695 -1.2314,9.19985 -22.4176,16.91825 -16.8906,11.19335 2.8625,-2.86243 1.8525,-8.24179 -1.8731,-9.97069 -7.5353,-3.4969 -16.5488,5.78251 -16.5488,17.03709 0.793,21.9736 17.8367,15.9229 29.2402,7.957 4.2822,-3.0492 10.0545,-2.3307 8.9551,1.1153 -2.0987,6.5788 -5.2243,13.9874 -9.9101,23.4844 -2.8945,5.8667 -5.6834,12.016 -6.1973,13.666 -3.5899,7.339 -18.2318,-8.4221 -24.9746,-6.4258 -18.9116,6.837 8.8772,20.2293 15.1797,19.5664 3.4202,-0.684 3.8514,-0.4654 3.0293,1.5312 0.271,8.5091 -2.6268,9.9719 -3.0235,19.9942 -0.066,4.7228 5.7798,6.8327 6.4043,1.2539 25.9216,-42.4525 53.3075,-119.64154 103.2461,-168.8711 3.7245,-4.0418 4.1786,-9.38281 0.6407,-9.38281 z m 443.6171,37.5957 c -4.6529,5.3563 -10.2609,13.33828 -12.4609,17.73828 -2.2001,4.4 -6.6029,13.25012 -9.7852,19.66602 -3.1823,6.416 -7.1749,12.96921 -8.873,14.56441 -1.698,1.5952 -3.0879,3.4613 -3.0879,4.1446 -16.2667,20.4923 19.2386,15.7618 21.8417,10.9973 0.7936,0.7936 8.0071,3.2937 9.6153,3.2937 2.8316,0 4.4427,-2.0977 5.4102,-7.0508 0.2563,-1.3121 1.666,-4.7399 3.1328,-7.6152 3.2726,-6.41485 3.2809,-6.88492 0.1777,-10.46292 -1.5594,-1.7979 -4.0518,-2.87109 -6.6679,-2.87109 -5.4024,0 -5.4279,-2.3939 -0.1328,-12 2.2232,-4.0333 4.6813,-8.9833 5.4629,-11 1.3135,-3.3887 3.8261,-5.08579 3.8261,-2.58399 0,0.5955 1.8488,2.44934 4.1074,4.11914 3.9926,2.9519 4.2848,2.97783 10.5645,0.92383 11.0018,-3.5985 17.8098,-11.84397 15.2617,-18.48437 -0.7753,-2.0205 -6.6983,-1.63737 -8.0312,0.51953 -1.6753,2.7107 -4.3326,0.8468 -5.1719,-3.62695 3.4531,-13.18469 -14.6223,-10.77002 -25.1895,-0.27149 z M 1909.25,934.06445 c -18.5902,15.71614 -35.0391,34.51645 -48.4785,54.625 -4.1473,6.4 -9.2484,14.09745 -11.336,17.10355 -4.8754,4.2146 -4.5106,15.4288 9.4141,16.8867 0,6.0792 8.387,8.6903 13.4414,4.1855 1.1595,-1.0332 2.5095,-1.4768 3,-0.9863 0.4905,0.4905 0.8926,0.2731 0.8926,-0.4824 0,-0.7556 1.3747,-2.8047 3.0566,-4.5547 1.6819,-1.75 5.0936,-5.8082 7.5801,-9.0176 4.2707,-5.5124 4.4121,-6.0295 2.5664,-9.334 -2.3672,-4.23775 -9.5344,-5.484 -13.0801,-2.2754 -1.6941,1.5332 -2.6829,1.6843 -3.7871,0.5801 -1.6723,-1.6722 -0.4747,-3.94564 7.9805,-15.13474 8.583,-11.3583 7.9646,-11.04312 10.1074,-5.16602 1.7919,4.9146 6.1782,8.49805 10.4004,8.49805 2.1774,0 9.823,-4.40522 9.834,-5.66602 0,-0.55 0.8366,-1 1.8496,-1 1.0129,0 3.5211,-2.19947 5.5723,-4.88867 2.817,-3.6933 3.9145,-4.39397 4.4902,-2.85938 0.7575,2.01883 12.1106,12.37845 14.5508,13.27735 0.7019,0.2585 1.6555,4.3092 2.1191,9 0.4636,4.69083 1.049,8.88953 1.3008,9.33203 0.2517,0.4426 -0.025,2.006 -0.6152,3.4727 -0.7767,1.9308 -1.098,0.9242 -1.166,-3.6485 -0.089,-5.9781 -0.3543,-6.42485 -4.9746,-8.35545 -6.1866,-2.5849 -7.9305,-1.9837 -15.629,5.39255 -5.7699,5.5286 -6.4503,5.8407 -8.4238,3.8672 -3.1531,-3.1531 -8.272,-4.7924 -10.707,-3.4297 -3.0433,1.7031 -11.0095,17.5301 -11.0195,21.8867 -0.01,3.5876 3.1572,9.9189 5.9628,11.9336 3.3039,2.3726 10.2035,0.511 15.1915,-4.0976 4.2463,-3.9236 15.8273,-12.2168 17.0605,-12.2168 0.7222,0 2.723,1.5006 4.4453,3.334 3.966,4.2215 6.6689,4.188 17.0234,-0.2071 l 8.3575,-3.5468 3.0625,2.8769 c 1.6841,1.5822 3.6442,2.877 4.3554,2.877 20.6081,8.0639 6.774,-23.5842 3.5918,-30.92972 -2.5335,-5.7423 -7.1325,-7.82987 -11.3886,-5.17187 -1.4275,0.8914 -2.8095,1.40548 -3.0723,1.14258 -0.2628,-0.2628 -0.7738,-5.08645 -1.1348,-10.71875 -0.361,-5.6324 -1.6933,-13.40905 -2.9609,-17.28125 -3.057,-9.3384 -11.2562,-26.375 -12.6934,-26.375 -5.4382,-13.08714 -17.0634,-13.29333 -26.7402,-2.92774 z m -180.877,5.9668 c -2.4877,3.6757 -15.1479,15.61009 -16.5722,15.62109 -0.5758,0.005 -0.4376,-1.13304 0.3086,-2.52734 0.9301,-1.7369 0.9044,-3.83727 -0.082,-6.66797 -2.1222,-5.61373 -8.2277,-4.93222 -11.957,-1.35351 -1.5278,1.5278 -2.9161,2.57838 -3.084,2.33398 -10.8221,-11.54157 -11.5939,-1.46576 -8.4961,20.22266 5.1961,33.98234 18.8194,15.23408 17.6914,11.14257 -5.0134,-4.54825 10.9349,-9.4601 15.2383,-11.14257 2.6648,9.05882 15.0161,14.562 25.4278,-3.76172 0,-3.2537 3.58,-1.3888 6.6445,3.46094 19.2338,10.62939 12.3086,-10.32611 12.0215,-16.52344 0.2314,-10.53879 -9.6362,-9.60781 -13.1621,-3.83203 -2.6846,4.5502 -8.6873,8.58225 -10.3301,6.93945 -0.4483,-0.4483 -0.1704,-2.66674 0.6191,-4.93164 3.6401,-11.17551 -8.6511,-16.74964 -14.2677,-8.98047 z m 374.7832,0.48047 c -3.1239,0.003 -6.4655,1.86984 -8.2382,5.18359 -2.9008,5.4228 -5.4024,12.92733 -5.4024,16.20703 0,2.7535 5.7526,12.27062 8.5039,14.07032 1.8215,1.1915 3.2554,1.22768 7.166,0.17968 3.5222,-0.9438 5.7127,-7.40971 4.2696,-12.59961 -0.5709,-2.0537 -0.216,-5.19502 0.8789,-7.79882 2.0981,-4.99 1.3802,-9.32993 -2.1738,-13.14453 -1.3321,-1.4299 -3.1291,-2.09949 -5.004,-2.09766 z m -180.3808,0.0352 c 1.4644,-0.0953 2.5007,1.50216 5.3398,6.74414 2.2703,4.1914 3.8672,8.30397 3.5469,9.13867 -0.3203,0.8347 -2.3125,1.86255 -4.4258,2.28515 -2.3306,0.4662 -4.6051,2.19629 -5.7812,4.39649 -1.0665,1.995 -3.8687,4.43527 -6.2285,5.42187 -6.3274,2.6455 -7.1948,2.35306 -5.5547,-1.87304 2.5262,-6.5096 2.6905,-9.68176 0.5429,-10.50586 -1.1173,-0.4287 -2.0312,-1.21374 -2.0312,-1.74414 0,-1.6202 9.8136,-11.71749 12.9023,-13.27539 0.6656,-0.33568 1.2014,-0.55612 1.6895,-0.58789 z m -128.1484,2.7871 c -0.2049,-0.005 -0.3985,0.0122 -0.5997,0.0156 -3.0376,3.01731 -6.314,5.72676 -9.6718,8.36719 l -1.7617,-3.69532 c -3.6669,-7.6856 -14.4102,-3.88825 -14.4102,5.09375 0,2.2677 1.1994,5.64908 2.666,7.51368 1.4667,1.8646 2.6537,4.05915 2.6387,4.87695 -5.8982,14.24994 -14.0288,34.76653 10.7988,9.49609 7.344,-8.29242 14.8731,-16.60426 21.4766,-23.75195 -0.7106,-5.38581 -6.3588,-7.79651 -11.1367,-7.91211 z m 372.0918,3.50586 c -1.6904,-0.0216 -3.6185,0.34752 -5.6602,1.12891 -3.3371,1.2771 -3.694,1.94321 -2.9844,5.57031 0.4433,2.2661 2.021,5.61983 3.5059,7.45313 1.4851,1.8334 3.0143,4.25506 3.3984,5.38086 0.9924,2.9074 11.4131,3.09962 17.8106,0.32812 9.8704,-4.2762 6.8739,-13.70898 -4.3555,-13.70898 -3.3433,0 -4.8448,-0.74753 -5.8027,-2.89453 -0.9374,-2.10057 -3.0951,-3.22177 -5.9121,-3.25782 z m 38.1679,1.63868 c -2.259,-0.006 -4.2354,0.22478 -4.8672,0.61523 -2.3316,1.441 -0.3334,7.24062 4.3203,12.54102 h 0.01 c 4.1418,4.7173 5.979,5.33316 11.5078,3.85156 4.043,-1.0852 4.0419,-7.86128 -0.012,-12.83008 -2.2519,-2.7611 -4.393,-3.77434 -8.6426,-4.08984 -0.7768,-0.0577 -1.5614,-0.0858 -2.3144,-0.0879 z m -75.6875,0.68359 c -0.7228,0.0168 -1.5549,0.13655 -2.5762,0.32812 -4.5938,0.8619 -7.7734,4.75394 -7.7734,9.51954 0,3.3025 4.4249,11.3164 6.2481,11.3164 0.9641,0 1.7519,0.55683 1.7519,1.23633 0,0.6796 1.0506,1.5086 2.334,1.8418 v -0.002 c 1.2833,0.3335 3.1328,0.37915 4.1094,0.0996 0.9767,-0.2795 2.3594,-0.50976 3.0742,-0.50976 2.344,0 9.1484,-8.5288 9.1484,-11.4668 0,-3.2596 -3.1012,-6.38617 -5.5312,-5.57617 -0.8922,0.2974 -3.206,-1.23309 -5.1426,-3.40039 -2.2961,-2.56988 -3.4741,-3.43717 -5.6426,-3.38672 z m 17.4922,45.16406 c -1.7601,0 -10.4957,3.93488 -12.9961,5.85349 -1.0019,0.7687 -3.8526,2.0942 -6.334,2.9473 -4.2858,1.4734 -4.5117,1.3944 -4.5117,-1.5782 0,-3.62001 -3.4831,-5.8886 -9.0391,-5.8886 -5.0988,0 -9.628,5.5637 -11.5117,14.1406 -0.9903,4.5084 3.0527,15.72 6.1074,16.9394 3.569,1.4244 6.0391,0.8299 15.5997,-3.7519 5.3615,-2.5695 10.2949,-4.3346 10.9629,-3.9219 0.6678,0.4127 1.2148,-0.06 1.2148,-1.0508 0,-0.9905 2.0313,-2.7205 4.5137,-3.8457 l 4.5136,-2.0469 2.6485,5.4512 c 1.4566,2.9981 4.2528,6.3113 6.2148,7.3613 3.7741,2.0199 6.4171,1.5821 19.1563,-3.166 5.2883,-1.971 6.0335,-1.9604 10,0.1407 6.208,3.2885 7.0244,3.2095 10.1308,-0.9922 l 2.8067,-3.7969 -2.791,-4.7305 c -1.5352,-2.6018 -3.6006,-4.7304 -4.5918,-4.7304 -0.9911,0 -2.2828,-0.7864 -2.8692,-1.7461 -0.5864,-0.9597 -2.918,-2.4913 -5.1816,-3.4043 -3.7105,-1.4966 -4.8608,-1.2743 -11.6797,2.2636 -4.16,2.1583 -7.787,3.5412 -8.0606,3.0723 -0.2736,-0.4689 -0.9047,-2.7526 -1.4023,-5.0742 -0.7122,-3.32276 -2.028,-4.66931 -6.1836,-6.33201 -2.9034,-1.1617 -5.9258,-2.11328 -6.7168,-2.11328 z m -69.8066,1.33399 c -3.6724,0 -4.9209,0.81774 -7.2364,4.7421 -4.148,7.0302 -3.6908,13.3941 1.3321,18.5313 3.218,3.2912 4.9861,4.1006 8,3.6582 3.3657,-0.494 3.8691,-1.1361 3.8691,-4.9316 0,-2.3996 0.8967,-6.0812 1.9922,-8.1817 2.6132,-5.0105 2.5306,-6.1285 -0.7559,-10.30658 -1.9966,-2.5382 -3.9946,-3.51172 -7.2011,-3.51172 z m 8.6386,44 c -5.147,0 -6.4894,0.4881 -7.0293,2.5527 -0.3672,1.4039 -2.6878,3.5835 -5.1562,4.8457 -2.4684,1.2622 -4.9683,3.1145 -5.5547,4.1152 -1.9807,3.3797 -4.9336,2.0556 -4.9336,-2.2129 0,-4.5968 -3.5449,-6.6347 -11.5449,-6.6347 -3.5759,0 -4.8708,0.6373 -5.3985,2.6543 -0.5324,2.0359 -1.4345,2.4679 -3.875,1.8554 -1.7497,-0.4391 -3.1816,-0.228 -3.1816,0.4688 0,1.0801 -8.5052,4.4403 -12.666,5.0039 -0.7334,0.099 -3.5644,1.1929 -6.291,2.4316 -2.7264,1.2387 -6.1257,2.252 -7.5547,2.252 -1.4292,0 -2.7984,0.5788 -3.043,1.2851 -0.2444,0.7064 -2.634,1.5539 -5.3086,1.8829 -3.9892,0.4907 -5.4848,-0.052 -8.3261,-3.0176 -2.7699,-2.8911 -4.3905,-3.5081 -8.0899,-3.0762 -6.452,0.7532 -8.01,3.0025 -6.0957,8.8027 1.0243,3.1036 3.4797,5.933 7.3965,8.5274 5.0672,3.3566 6.819,3.8053 12.9199,3.3105 8.5387,-0.6925 20.2773,-4.0184 25.7246,-7.289 2.2,-1.3208 4.9,-2.8045 6,-3.2969 1.1,-0.4923 3.6513,-2.0384 5.668,-3.4356 3.134,-2.1715 3.666,-2.2368 3.666,-0.4531 0,3.3259 8.9823,12.3578 13.1113,13.1836 4.3434,0.8687 12.3065,-1.5461 15.9375,-4.832 1.3724,-1.242 3.1977,-2.2578 4.0567,-2.2578 0.8589,0 1.5605,-0.6006 1.5605,-1.334 0,-2.2003 2.2379,-1.5224 6.3223,1.914 6.266,5.2727 10.0907,5.5454 19.8203,1.4102 l 8.6465,-3.6758 3.0664,2.8809 c 28.5012,17.4844 34.9789,-17.9345 16.918,-10.9043 -2.6635,1.6634 -6.2487,0.099 -4.8731,-2.127 1.5003,-2.4276 -3.1731,-10.628 -6.3476,-11.1386 -4.0948,-0.6586 -10.049,1.5186 -16.086,5.8828 -2.8602,2.0675 -5.5602,3.7558 -6,3.7558 -0.44,0 -0.8681,-1.9104 -0.9531,-4.2422 -0.2163,-5.9455 -4.5411,-9.0878 -12.5059,-9.0878 z m -416.3906,2.0937 c -21.9563,-0.6234 -91.9362,66.1828 -100.8027,127.9863 -4.5901,16.9022 6.5934,28.1266 9.1855,15.6895 0,-1.8158 0.6929,-4.361 5.7461,-21.1035 3.6408,-12.0634 13.9607,-35.334 15.6699,-35.334 0.4454,0 2.4598,1.8519 4.4746,4.1133 3.1595,3.546 4.3671,4.0297 8.7833,3.5195 2.8166,-0.3253 7.8682,-2.201 11.2246,-4.168 5.5706,-3.2646 6.7153,-3.3503 6.2597,-0.4648 12.6727,6.3313 25.9347,5.5603 31.1992,-0.3692 1.3904,-2.2497 6.3502,-1.4094 9.5762,1.6211 2.8635,2.6902 3.7019,2.8089 10.7539,1.5411 18.9647,-4.4533 8.5765,-1.3992 15.4688,12.6074 2.8141,5.5615 3.882,13.1416 1.8633,13.2246 -0.9269,0.038 -3.9259,1.0435 -6.6641,2.2324 l -4.9785,2.1621 -5.2865,-6.8187 c -16.4695,-19.6055 -39.9655,26.621 -50.7311,6.0101 -3.8817,-8.1429 -14.9734,-11.3938 -20.9258,-5.7773 -1.0222,1.0222 -1.4336,0.475 -1.4336,-1.9102 0,-4.8505 -4.4459,-10.0743 -7.3613,-8.6484 -1.2671,0.6197 -3.3371,1.6313 -4.5996,2.248 -2.7033,1.3207 -11.5697,15.4076 -12.7207,20.211 -0.2352,7.31 9.0249,10.5232 14.1836,9.9101 3.0208,-0.3796 8.1584,-2.4239 11.416,-4.5429 l 5.9238,-3.8536 c 9.378,9.7953 17.4729,16.4315 31.4922,13.0235 5.9465,-1.5849 11.4007,-4.9696 18.2891,-11.3535 6.5367,-7.0475 6.8514,7.1688 20.4531,7.4824 5.296,0 10.6633,-2.2676 14.8789,-6.2891 l 3.6211,-3.4551 9.0449,4.254 c 4.9752,2.3393 10.7214,5.1171 12.7676,6.1738 4.0019,2.0665 3.9667,2.0979 5.5254,-5.0156 0.5449,-2.4869 0.2589,-3.681 -0.8887,-3.709 -24.0273,-10.7664 -28.7487,-68.1611 -31.6328,-86.625 -1.6316,-10.5006 -4.4819,-21.0167 -7.3008,-26.9395 -4.7655,-10.0131 -14.9561,-17.8616 -22.4746,-17.6328 z m 218.8574,1.1816 c -3.5811,-0.067 -7.6138,1.4896 -10.8066,4.4688 -4.0134,3.7448 -4.855,9.2154 -1.6094,10.4609 1.6073,0.6167 1.869,2.0324 1.2031,6.4727 -0.9418,6.2804 0.3792,9.8076 5.9024,15.7715 2.9564,3.1928 4.2788,3.6825 8.4668,3.1328 5.219,-0.6851 9.8592,-3.6448 18.6836,-11.916 6.0591,-5.6794 6.8564,-5.9081 9.2773,-2.666 2.3488,3.1456 5.9845,3.584 9.6719,1.1679 2.9806,-1.9529 5.5201,-7.5019 3.4336,-7.5019 -1.5475,0 -2.792,-5.7705 -1.5195,-7.043 1.3831,-1.3832 -3.6017,-11.623 -5.6582,-11.623 -5.1992,0 -11.249,3.4755 -18.4258,10.5859 -4.4862,4.4446 -8.5476,8.0801 -9.0274,8.0801 -0.4799,0 -0.8417,-3.3523 -0.8027,-7.4492 0.06,-6.2884 -0.4244,-7.8493 -3.1094,-10.0254 -1.5444,-1.2517 -3.531,-1.8761 -5.6797,-1.9161 z m 284.3223,16.7247 c 0.7376,0 2.1986,2.0551 3.248,4.5664 1.8,4.308 2.1542,4.4999 6.2657,3.4179 2.3966,-0.6307 6.1574,-1.3128 8.3574,-1.5156 5.429,-0.5005 7.3365,-2.1435 7.3125,-6.2988 -0.032,-5.4507 -1.7766,-7.396 -5.0566,-5.6406 -4.0678,2.177 -6.9239,1.7882 -6.9239,-0.9415 -7.6454,-12.8376 -19.7204,-9.735 -13.2031,6.4122 z m -316.4375,-12.8887 c -3.6339,0.061 -10.1198,3.9692 -11.5684,7.1484 -0.8078,1.7729 -2.0647,2.8537 -2.7949,2.4024 -10.8105,-17.8712 -22.8229,6.1352 -26.6211,16.6699 -0.9289,2.5667 -2.7383,7.0667 -4.0195,10 -1.2811,2.9334 -3.1587,7.7347 -4.1719,10.668 -1.0133,2.9333 -3.7942,8.8398 -6.1797,13.1269 -5.992,12.9353 19.1564,16.9366 25.1172,14.3008 l 5.7442,-2.5723 4.2773,4.5371 c 2.3531,2.495 4.5495,5.3021 4.8809,6.2383 0.4032,1.1394 1.7663,0.4673 4.123,-2.0332 1.9363,-2.0545 3.5215,-4.2217 3.5215,-4.8164 0,-0.5947 1.8,-3.3469 4,-6.1152 2.8408,-3.5748 4,-6.4847 4,-10.041 0,-5.5955 -1.4085,-6.625 -9.0586,-6.625 -3.6706,0 -5.5412,0.8764 -7.7344,3.6269 -2.4847,3.1162 -3.1945,3.3776 -5.0332,1.8516 -1.1771,-0.977 -3.4967,-1.462 -5.1562,-1.0782 -2.2145,0.5122 -3.8233,-0.311 -6.043,-3.0917 l -3.0234,-3.7891 3.3574,-7.5938 c 1.8467,-4.1757 3.3574,-8.447 3.3574,-9.4921 0,-1.3904 0.6027,-1.5623 2.2461,-0.6426 1.4557,0.8147 3.0638,0.7462 4.5684,-0.1934 2.35,-1.4676 3.2529,-1.1838 11.6953,3.666 2.7926,1.6043 3.7605,1.5005 8,-0.8613 6.5312,-3.6385 8.0488,-5.5057 13.6347,-16.7754 4.5978,-9.276 4.7456,-13.1311 0.3633,-9.4941 -1.6669,1.3834 -2.2676,1.3428 -3.2558,-0.2188 -0.6662,-1.0529 -1.2195,-2.5909 -1.2305,-3.418 -0.026,-1.8894 -3.6424,-4.9521 -6.3106,-5.3437 -0.2145,-0.032 -0.4432,-0.045 -0.6855,-0.041 z m 350.9941,13.2944 c 0.029,6.298 2.7281,10.4912 7.9805,12.3984 2.5667,0.9319 8.4876,1.606 13.1563,1.4981 8.2627,-0.1908 8.5455,-0.3175 10.6425,-4.7149 2.1473,-4.503 2.1387,-4.53 -2.1777,-8.3867 -16.6376,2.2575 -29.612,-10.96 -29.6016,-0.7949 z m -248.1171,-4.699 c -2.3645,0.022 -4.6437,0.5011 -5.6368,1.4941 -2.3237,2.3238 0.3206,10.493 4.5489,14.0508 4.6747,3.9334 8.383,4.2744 14.3125,1.3164 7.6737,-3.8281 7.4295,-12.5683 -0.3516,-12.5683 -2.9462,0 -5.0975,-0.8126 -5.8867,-2.2227 -0.7668,-1.37 -3.9463,-2.0985 -6.9863,-2.0703 z m -287.3243,1.9199 c 6.1202,1.8733 9.234,8.6641 10.3516,14.9902 0.6221,4.0404 -3.3269,3.9267 -6.6406,-0.1914 -2.4132,-2.9992 -3.9214,-3.6216 -8.3438,-3.4453 -2.9683,0.1184 -7.1702,1.1004 -9.3379,2.1817 -10.0887,3.6744 12.1495,-13.3116 13.9707,-13.5352 z m -35.7519,27.8633 c 1.4964,-0.04 2.7847,1.3206 4.8281,4.4394 1.6567,2.5287 4.1618,4.8998 5.5664,5.2676 3.1653,0.8286 12.6513,-3.3719 16.0195,-7.0937 7.2198,-5.5422 8.852,3.9537 17.9942,3.6718 3.0388,-0.1191 6.0814,0.3393 6.7617,1.0196 0.6803,0.6803 1.9705,5.5171 2.8672,10.7461 1.4508,8.4601 1.3803,9.8891 -0.6465,12.9824 -2.6145,3.9901 -10.2168,5.0642 -10.2168,1.4434 0,-5.4889 -14.2738,-6.33 -23.8027,-1.4024 -2.2353,1.1559 -5.0878,2.1016 -6.3379,2.1016 -2.1173,0 -2.1238,-0.1659 -0.066,-2.4375 5.166,-5.7084 0.3922,-14.8965 -7.7403,-14.8965 -3.0248,0 -5.8642,1.6114 -10.748,6.0957 -3.6507,3.352 -9.2908,7.852 -12.5332,10 -5.2484,3.4768 -13.4375,5.3312 -13.4375,3.043 0,-3.4564 20.0977,-27.1719 28.3652,-33.4707 1.2559,-0.9569 2.2291,-1.4857 3.127,-1.5098 z m 260.0234,21.8887 c -7.5742,0.8315 -8.1357,4.3891 -1.8437,11.6699 l 4.3379,5.0215 6.3261,-1.9043 6.3262,-1.9043 4.5293,4.5293 c 3.944,3.944 5.1084,4.4149 9.002,3.6406 4.6052,-0.9158 13.4871,-4.6925 17.2968,-7.3555 1.6871,-1.1793 2.996,-0.9308 6,1.1387 3.1676,2.182 4.8954,2.4609 9.8418,1.5859 9.446,-1.6709 11.691,-2.3555 13.5742,-4.1367 0.9678,-0.9156 4.1029,-2.4868 6.9668,-3.4922 l 5.2071,-1.8281 4.9238,5.4941 c 4.2652,4.7597 5.5298,5.4272 9.459,4.9786 2.4947,-0.2848 5.562,-0.586 6.8144,-0.668 1.7687,-0.1157 2.2154,-1.2619 2,-5.1328 -0.2214,-3.9846 -1.0138,-5.3368 -3.9453,-6.7403 -2.7195,-1.302 -3.666,-2.7278 -3.666,-5.5195 0,-2.0702 -0.7494,-4.3528 -1.666,-5.0742 -2.4068,-1.894 -11.4817,-3.0615 -12.3887,-1.5938 -0.4234,0.685 -2.5724,1.2442 -4.7773,1.2442 -2.205,0 -5.2098,0.6431 -6.6758,1.4277 -2.6803,1.4344 -5.1088,2.0983 -12.4922,3.4121 -3.5061,0.624 -4.3,0.1459 -6.4375,-3.8691 -2.244,-4.2149 -2.876,-4.5488 -7.9199,-4.1895 -4.096,0.2917 -6.4462,1.4204 -9.2969,4.4707 -2.0981,2.2449 -4.4976,4.0821 -5.334,4.0821 -0.8363,0 -0.5373,-0.7493 0.666,-1.666 1.6761,-1.2769 1.9596,-2.7496 1.209,-6.295 -5.7961,-17.4136 -29.7376,7.3279 -38.0371,8.6739 z m 169.709,-10.9258 c -0.4942,-0.01 -1.0432,-5e-4 -1.6543,0.02 -6.7267,0.1827 -7.5273,1.1295 -7.5273,8.8594 0,4.6548 0.7443,6.7046 3.3125,9.1406 1.8206,1.7269 3.3105,3.6776 3.3105,4.334 0,2.0212 9.9999,1.3185 14.7949,-1.0391 8.8848,-4.3684 11.8653,-8.7576 9.7285,-14.3261 -0.8465,-2.2062 -8.5234,-3.054 -8.5234,-0.9414 0,0.6417 -1.4578,1.166 -3.2402,1.166 -2.2794,0 -3.6919,-1.089 -4.7617,-3.6719 -1.1679,-2.8192 -1.9799,-3.5033 -5.4395,-3.541 z m 76.8887,4.1426 c -4.8339,3.9181 -15.4606,10.0703 -17.3946,10.0703 -0.3959,0 -0.7187,-1.106 -0.7187,-2.459 0,-3.1321 -3.6111,-6.4037 -8.3867,-7.5957 -5.0243,-1.254 -8.9473,2.3345 -8.9473,8.1836 0,2.4097 -0.6007,4.7519 -1.334,5.2051 -2.0556,1.2705 -1.5769,3.7111 0.5664,2.8886 1.0964,-0.4208 2.7845,0.6217 3.9922,2.4649 1.1507,1.7561 3.4449,4.4613 5.0996,6.0117 2.5162,2.3579 3.9884,2.6745 8.9922,1.9316 3.2904,-0.4885 7.6096,-1.7307 9.5996,-2.7597 6.2868,-2.3539 9.9501,-5.2845 14.418,-1.8711 4.4917,3.5134 8.2015,3.3243 17.6113,-0.8985 6.162,-2.7654 8.1807,-3.182 8.9981,-1.8593 0.7226,1.1692 3.0971,1.4954 7.5547,1.0371 15.256,-1.5685 19.4923,-4.3468 17.0937,-11.209 -1.0312,-2.9505 -2.2586,-3.8291 -5.834,-4.1719 -2.4905,-0.2387 -6.6707,-1.8881 -9.2871,-3.666 -5.3003,-3.6017 -11.5256,-4.1685 -15.5078,-1.4121 -4.555,3.1527 -8.6289,3.9469 -8.6289,1.6816 -2.976,-8.0975 -13.3087,-5.2649 -17.8867,-1.5722 z m -135.1602,38.3886 c -0.4738,0.012 -0.9987,0.041 -1.584,0.08 -4.555,0.305 -6.2395,1.4411 -12.6875,8.5664 -4.0892,4.5187 -8.766,8.6254 -10.3925,9.125 -1.6264,0.4995 -4.0421,2.0476 -5.3692,3.4395 -2.7361,2.8699 -4.9199,2.1901 -4.9199,-1.5313 0,-6.7568 -13.2809,-9.0649 -18.7383,-3.2558 -1.962,2.0885 -4.1509,3.163 -5.6484,2.7714 -1.3724,-0.3589 -2.7633,0.1911 -3.1719,1.2559 -0.4002,1.0431 -1.572,1.8965 -2.6035,1.8965 -1.0315,0 -3.0372,0.7272 -4.459,1.6152 -2.2092,1.3797 -3.0305,1.1073 -5.6484,-1.8769 -2.6387,-3.0082 -3.8862,-3.4152 -8.9981,-2.9278 -6.2156,0.5926 -8.043,2.0833 -7.998,6.5235 0.041,4.0546 2.7682,8.1286 7.9316,11.8437 5.4113,3.8935 10.3531,3.7345 20.0625,-0.6445 4.6428,-2.0938 6.5943,-3.96 8.3301,-7.9668 2.5351,-5.8516 4.9414,-6.8676 4.9414,-2.0859 0,1.7307 1.9487,5.2 4.332,7.7089 3.3689,3.5465 5.5752,4.6485 9.9102,4.9493 5.4968,0.3815 9.9875,-1.1771 13.4922,-4.6817 0.9841,-0.9842 2.5525,-1.789 3.4863,-1.789 0.934,0 2.7519,-1.1635 4.0391,-2.586 2.3064,-2.5485 2.4546,-2.5269 10.0996,1.4805 6.3934,3.3513 8.4225,3.8465 11.5332,2.8164 4.6557,-1.5417 5.6025,-6.5691 2.4785,-13.1523 -1.4147,-2.9804 -1.8681,-6.1095 -1.3145,-9.0606 0.5593,-2.9809 0.1205,-5.9094 -1.2949,-8.6465 -1.6697,-3.2292 -2.4921,-3.9482 -5.8086,-3.8672 z m 62.3047,11.8789 c -0.9049,0.01 -2.079,0.1009 -3.625,0.2364 -7.8606,-10.1972 -33.951,23.3672 -24.5957,23.5664 1.3031,0 3.7431,0.9627 5.4219,2.1386 3.5347,2.4757 12.8723,1.6615 17.0273,-1.4843 1.3823,-1.0466 4.3546,-1.9223 6.6055,-1.9453 3.3295,-0.034 4.4484,0.7486 6,4.1992 1.0806,2.4031 3.9444,5.2827 6.6074,6.6426 5.8788,3.002 11.7837,1.6634 22.9492,-5.2032 9.2527,-4.9054 13.1588,-0.011 18.8086,6.0879 4.6014,5.0844 19.2863,1.4134 24.6875,-6.1719 2.9074,-4.0829 2.9738,-5.9322 0.3809,-10.6503 l -1.6778,-3.0547 -4.0371,3.3964 c -8.1678,6.3144 -13.1868,4.3898 -12.9003,-4.5839 0.1939,-4.9127 -0.3439,-8.5518 -1.4649,-9.9024 -2.346,-2.8267 -13.7981,-2.924 -16.1113,-0.1367 -2.3607,2.8444 -18.2027,14.002 -19.8809,14.002 -0.7714,0 -1.7939,-1.5579 -2.2715,-3.461 -1.2566,-5.0061 -7.5679,-8.4732 -13.1386,-7.2168 -4.1543,0.9369 -4.4967,0.7483 -5.2246,-2.8906 -0.5637,-2.8183 -0.8458,-3.588 -3.5606,-3.5684 z m 121.3398,3.3965 c -2.0082,2.1223 -2.1998,10.6609 -0.3437,15.3145 6.4494,18.0456 24.504,-1.2106 32.7461,2.1094 0.916,0.7379 3.5765,1.7489 5.9121,2.248 8.715,1.8625 13.6037,-9.7705 6.1563,-14.6504 -3.1102,-2.0377 -4.3323,-2.1398 -9,-0.7578 -7.3972,2.19 -14.2706,4.1092 -17.0938,4.7754 -1.8292,0.4316 -2.7121,-0.7681 -3.9394,-5.3574 -0.626,-8.6896 -9.9771,-6.3375 -14.4376,-3.6817 z m -29.9316,-0.3711 c -7.327,-0.1528 -11.7489,3.7693 -10.582,9.3867 1.2467,6.0009 4.2544,10.0404 9.0156,12.1114 8.5399,3.7147 12.7151,1.9225 15.5547,-6.6817 1.8537,-5.6166 0.8669,-7.9234 -2.5957,-6.0703 -2.9169,1.5611 -4.9094,-0.3272 -5.5977,-5.3027 -0.4012,-2.9001 -1.1546,-3.3464 -5.7949,-3.4434 z m -318.3457,1.8594 c -3.8375,-0.088 -8.6857,1.4063 -14.2109,4.4922 l -7.2246,4.0351 -2.2364,-2.9648 c -3.132,-4.1522 -11.2935,-3.8291 -20.8008,0.8223 -5.9826,2.9271 -7.6412,3.28 -8.541,1.8242 -0.8965,-1.4507 -1.8039,-1.4923 -4.6074,-0.2149 -1.9204,0.8749 -4.5985,1.5899 -5.9512,1.5899 -3.0881,0 -4.6021,5.4013 -2.6894,9.5918 0.7722,1.692 3.4944,4.4432 6.0488,6.1152 4.0445,2.6473 5.3038,2.862 9.7598,1.6621 2.8143,-0.7578 6.7688,-2.6761 8.7871,-4.2636 2.9262,-2.3018 4.1083,-2.5743 5.8398,-1.3457 7.2063,5.1133 9.3289,5.6563 15.8184,4.0488 3.4941,-0.8654 6.6528,-1.9856 7.0195,-2.4903 0.3667,-0.5046 2.0598,-1.652 3.7617,-2.5488 2.713,-1.4294 3.4526,-1.2251 6,1.6543 1.8096,2.0455 5.9238,4.057 10.9063,5.334 4.4,1.1276 8.1182,2.0935 8.2637,2.1465 0.1456,0.053 1.7968,-1.3226 3.6679,-3.0567 3.995,-3.7025 4.279,-7.0893 1.0684,-12.7304 -2.5203,-4.428 -4.334,-5.3143 -4.334,-2.1172 0,1.2445 -1.2599,2 -3.334,2 -2.4177,0 -3.332,-0.7149 -3.332,-2.6035 0,-1.4322 -0.6906,-4.1208 -1.5352,-5.9746 -1.4794,-3.2471 -4.307,-4.9176 -8.1445,-5.0059 z m 49.3711,1.8359 c -0.5205,0.01 -1.0914,0.036 -1.7227,0.072 -5.8606,0.3377 -5.9549,0.4181 -5.9199,5.0098 0.05,6.6297 7.3658,14.0345 14.9688,15.1504 1.2307,0.1806 2.6508,0.7426 3.1562,1.248 1.7475,1.7475 5.0012,-4.9277 4.6856,-9.6133 -0.3237,-4.8066 -2.2977,-7.2065 -5.0918,-6.1855 -0.8614,0.3147 -2.5293,-0.895 -3.7051,-2.6895 -1.5861,-2.4207 -2.7274,-3.0643 -6.3711,-2.9922 z m 241.457,47.4161 c -6.3141,7.1444 -28.3735,20.0488 -37.9687,20.332 -2.7572,0 -4.8893,-0.7628 -5.3281,-1.9063 -0.9494,-2.4741 -7.5609,-4.7598 -11.0938,-3.8359 -3.0258,0.7912 -3.6059,4.6736 -1.5176,10.166 1.4554,3.8283 7.8028,8.6392 14.6055,11.0703 7.7057,3.6645 21.0447,-2.0203 28.0762,-5.5605 6.1746,-3.4681 16.0781,-7.1923 16.0781,-6.0469 4.6507,5.2306 12.4982,12.4016 18.7988,11.2559 11.5823,-3.6013 16.0696,-9.0351 26.4824,-6.2168 6.7356,1.87 7.9963,1.0307 8.0313,-5.3457 0.032,-5.9411 -2.1516,-8.5437 -8.9668,-10.6817 -11.656,-3.6568 -15.9453,-3.7275 -20.0098,-0.3301 -2.0179,1.6867 -4.8744,3.4445 -6.3457,3.9043 -2.431,0.7596 -2.7116,0.1502 -3.0859,-6.6738 -0.3412,-6.2234 -1.0795,-8.1791 -4.3145,-11.414 -4.7272,-4.9068 -10.4182,-3.4536 -13.4414,1.2832 z m -543.125,23.7187 c -4.5673,5.5738 -4.8382,6.364 -3.3847,9.873 6.5313,8.5306 13.4819,0.9293 18.3652,-3.9648 4.1927,7.4322 9.2635,13.9415 16.9063,18.0293 8.8014,4.5019 23.3411,0.1336 41.3046,-12.4102 6.5026,-4.5408 6.5749,-4.5578 10.4883,-2.2461 5.0938,3.0091 15.6616,1.9768 19.8672,-1.9414 2.9937,-2.789 6.4297,-3.6411 6.4297,-1.5937 0,2.053 6.4871,8.1935 10.1133,9.5722 8.0719,1.7645 12.0906,-5.9789 20.3535,-5.5762 5.0832,0.3424 8.1992,-1.6528 8.1992,-5.25 0,-1.3512 0.918,-5.159 2.0391,-8.4609 -0.092,-20.5078 -15.1424,-14.6314 -23.7383,-0.7559 -0.5321,0 -0.9668,-2.0268 -0.9668,-4.5039 -1.7593,-14.5796 -16.6402,-5.8073 -23.9395,-1.8164 l -6.7285,3.6797 v -3.9668 c -7.1172,-15.7786 -22.4403,4.7015 -30,9.5254 -18.8345,11.7539 -27.7702,14.5481 -32.2363,10.082 -2.7676,-2.7675 -3.2773,-12.5129 -0.9492,-18.164 3.0649,-7.4401 2.4645,-10.3803 -2.3145,-11.336 -13.2778,-3.8685 -22.2963,12.2554 -29.8086,21.2247 z m 189.9766,5.8169 c 0,3.2023 7.7994,12.123 10.5996,12.123 7.728,-2.4463 10.6119,-11.8827 17.2031,-7.0234 5.4928,4.061 8.8752,4.6665 14.0371,2.5097 4.4023,-1.8395 4.9392,-1.7806 8.375,0.9219 11.2431,13.8843 43.3961,-1.775 50.3067,3.0059 1.5057,1.0545 3.5254,1.918 4.4883,1.9179 2.3401,0 6.9902,-11.0949 6.9902,-16.6796 0,-3.6697 -0.744,-4.83 -4.2051,-6.5567 -6.1164,-3.0512 -9.5415,-2.5985 -14.2246,1.877 -6.3258,5.7172 -31.3908,6.4973 -32.2383,1.5683 0,-4.6278 -1.5422,-6.0698 -8.791,-8.2207 -5.1797,-1.5371 -5.6414,-1.4348 -9.0801,2.0039 -4.0899,4.09 -6.5525,3.4934 -2.7812,-0.6738 2.3815,-2.6315 2.3491,-2.7941 -1.2949,-6.5977 -14.331,-13.2329 -38.9847,14.5271 -39.3848,19.8243 z m 166.123,-11.7114 c -4.5284,8.552 -4.1717,12.0831 1.9219,19.0234 4.8027,7.5134 15.1409,2.2771 20.6426,-1.0723 3.5393,-2.319 8.8854,-1.1507 10.8711,2.377 0.6092,1.0823 2.6492,2.3528 4.5332,2.8242 10.2825,-0.031 4.1129,-14.6332 3.9082,-19.8945 0,-5.2707 -11.0327,-6.6974 -19.1875,-2.4805 -3.6348,1.8797 -3.8102,1.8528 -2.9082,-0.4668 1.1056,-2.8429 1.1314,-3.0163 0.9199,-6.1172 -7.1383,-11.9322 -16.4545,-2.0853 -20.7012,5.8067 z m 87.7754,-6.6524 c -7.7913,3.9413 -7.9908,3.9693 -14.2461,1.959 -3.4892,-1.1216 -7.2852,-1.6777 -8.4355,-1.2363 -5.9991,2.3034 -6.0021,21.7715 0,21.7715 0.9844,0 2.5363,0.9 3.4492,2 2.4934,3.0044 6.185,2.446 14.6738,-2.2207 l 7.6778,-4.2207 3.6718,2.8867 c 4.1482,3.2629 9.0691,3.6752 13.9766,1.1699 1.8333,-0.9359 5.8923,-2.5312 9.0195,-3.5449 6.83,-2.2142 7.8003,-3.2607 9.0079,-9.7227 0.7373,-3.9454 0.4809,-5.1598 -1.2305,-5.8164 -1.1894,-0.4566 -2.9051,-0.2332 -3.8125,0.4961 -2.8252,2.2712 -13.0937,1.5293 -15.7617,-1.1387 -7.0976,-6.7851 -11.0893,-5.8669 -17.9903,-2.3828 z" fill="#00B894" transform="translate(-122.76436,-1.5455507) matrix(0.26458333,0,0,0.26458333,-266.03273,-177.59693)"/>
</svg>