<?xml version="1.0" ?><svg height="159.17012mm" viewBox="0 0 138.63324 159.17012" width="138.63324mm" xmlns="http://www.w3.org/2000/svg">
    <path color="#000" d="m 873.28746,1231.2674 c 17.56669,-30.8557 40.52867,-61.6709 29.8512,-92.7384 31.80192,-4.1611 61.4328,-18.7425 72.49237,-44.3901 l -7.42967,-10.1717 c 0,0 150.41504,-204.80801 192.74274,-260.20152 42.3277,-55.39351 84.1933,-105.29761 133.7297,-138.81651 49.5364,-33.5189 79.3876,-2.32886 64.6006,28.1958 -14.787,30.52466 -201.7933,250.43115 -201.7933,250.43115 l -137.981,157.94648 -13.031,-0.1664 c -22.11488,24.1941 -33.63054,53.4558 -40.01734,85.1697 -31.33049,6.1417 -62.37808,12.9591 -87.428,34.1011 z" fill="#FFFFFF" overflow="visible" paint-order="fill markers stroke" transform="translate(34.040574,136.82543) matrix(0.26458333,0,0,0.26458333,-259.77438,-311.93547)"/>
    <path d="m 989.86204,1250.8467 c -0.6821,-4.4696 -1.4281,-4.598 -9.1151,-1.5681 -19.24118,6.659 -48.32387,13.8789 -68.44886,12.5781 -10.91099,-0.356 -46.85067,4.3418 -42.0577,-20.5188 -4.24362,-1.6538 -12.70976,4.4419 -16.1306,-1.6997 -1.6838,-3.1463 -2.2482,-2.4154 8.3988,-10.8764 35.66281,-40.4807 23.25769,-94.7953 30.4023,-94.8842 0.7559,-0.9108 4.946,-2.0601 9.3113,-2.5539 29.40744,-4.9944 55.18467,-22.8546 63.6848,-32.7732 2.8423,0 1.7511,-1.8843 -2.718,-4.6863 -2.8328,-1.776 -4.4262,-3.9345 -4.7081,-6.3774 -0.4244,-3.6778 0.5832,-5.2796 11.3557,-18.0512 60.12882,-87.68441 127.94562,-186.98133 195.62112,-266.38278 26.3423,-30.26423 109.6678,-152.8015 171.0532,-140.332 33.5173,7.41657 49.3078,41.94328 35.8028,75.1615 -39.4308,80.43362 -79.4277,140.28727 -130.7429,202.5831 -8.5307,10.4106 -15.5554,10.8325 -19.8828,1.1943 -1.262,-2.8109 -2.9396,-6.4313 -3.728,-8.0452 -3.8933,-14.57731 9.7854,-31.15839 18.5785,-39.9985 10.4892,-10.4544 15.4757,-12.5687 23.2509,-9.8582 2.3555,0.8211 4.7059,1.035 5.2232,0.4754 32.6787,-53.27099 61.11,-80.40143 79.8944,-132.3307 -30.0443,36.85103 -65.9194,79.60295 -90.6666,109.2317 -48.5823,64.15824 -124.1966,135.75075 -173.6483,200.08138 -2.2309,3.3 -4.7577,6.6 -5.6153,7.3333 -14.1713,19.072 -34.3086,36.077 -47.4356,55.1956 -4.772,7.0013 -5.0716,7.1616 -10.5367,5.6345 -3.7384,-1.0447 -7.1836,1.818 -11.4309,9.4981 -20.37546,19.5948 -31.10056,45.8413 -31.32582,69.2915 -0.013,6.3436 -2.9398,8.1616 -10.0093,6.2096 -16.35329,-7.3029 -81.76702,25.4968 -78.3591,33.6764 0.753,0.7529 8.1487,1.983 16.4352,2.7336 12.569,1.1385 16.9608,1.0009 26.496,-0.8302 35.93217,-4.6901 74.93282,-27.5417 99.36152,-41.1985 2.276,-0.8733 10.0682,5.9625 10.0682,8.8327 -3.3654,5.4023 -16.2615,13.4751 -21.7503,16.3342 -12.0808,6.2352 -17.87366,13.9822 -12.1095,16.1942 21.8533,0.5369 48.5425,-7.2754 67.1932,-17.2591 15.88,-8.6508 14.2843,-8.2517 19.2889,-4.8225 4.1022,2.8108 4.3528,3.3562 2.8555,6.2138 -1.5601,2.9779 -4.6136,5.239 -11.0149,8.1566 -4.0427,1.8426 -4.7672,3.5604 -2.3483,5.5678 13.7132,3.7014 42.5718,-12.0461 49.4553,-20.9357 8.3507,-7.2676 14.4788,5.7107 9.7635,11.8712 -1.4667,1.8645 -2.6667,3.7455 -2.6667,4.1797 8.7545,4.0121 16.5315,-6.8194 24.7715,-5.2694 2.522,0.6024 5.8952,5.637 5.8952,8.7989 -8.9371,8.5372 -36.9314,19.6583 -40.4324,4.1988 -17.435,7.2314 -56.8956,23.0638 -59.5676,2.2709 0,-3.9442 -2.0737,-4.0764 -11.0357,-0.703 -10.5373,3.598 -62.40446,22.0836 -66.67596,-1.5419 z m -86.53156,-35.6312 c 18.73817,-10.068 34.0244,-14.3118 54.2432,-15.2031 4.67129,-23.109 13.06793,-51.0741 34.79946,-67.8394 3.7141,-3.4691 -0.2973,-8.4036 5.8672,-12.1128 -7.017,-6.0504 -13.4746,-11.0019 -22.1472,-17.2713 -1.30116,-1.7796 -1.65696,-1.5075 -2.39986,1.8354 -1.114,5.0126 -14.0225,17.8003 -22.7863,22.5729 -12.26674,4.7397 -30.30165,17.0989 -42.066,18.39 -1.8793,0.1415 -2.3505,2.3777 -2.9992,14.2315 -0.4933,9.0162 -1.9577,18.1289 -4.0802,25.391 -1.821,6.2302 -3.1435,11.4946 -2.9391,11.6991 0.4864,0.4864 11.6701,-12.6972 14.5483,-17.1498 1.2289,-1.9012 2.1702,-5.5012 2.0918,-8 -0.2864,-9.1341 2.1047,-12.5772 12.1111,-17.4393 15.33823,-6.3099 22.66533,2.3459 15.5093,17.8643 -5.98532,12.9893 -15.24648,5.6881 -22.176,14.5543 -9.39634,11.0587 -17.25452,20.1783 -24,31.2348 0,1.4833 2.8244,0.2708 6.4235,-2.7576 z m 117.11182,-109.3684 c 2.0889,-2.5859 7.248,-8.3798 11.4646,-12.8752 6.1583,-7.7967 27.1955,-29.2017 27.6668,-34.6608 0,-0.5379 -4.1204,-3.3844 -9.1565,-6.3256 -7.942,-4.6383 -24.5254,-17.2568 -30.0841,-22.6317 -12.7254,11.3096 -34.68446,42.0916 -42.36426,53.7881 -0.5873,1.0115 1.0199,2.8234 4.2975,4.8447 2.8796,1.776 5.2517,3.6326 5.2714,4.1259 0.079,1.9821 24.96506,18.1831 28.23786,18.3833 0.4777,0.029 2.5777,-2.0627 4.6667,-4.6487 z m 53.2993,-64.0914 c 53.7735,-56.74967 89.8456,-102.22427 135.5228,-156.78438 4.7997,-5.7161 5.59,-9.0889 2.1293,-9.0889 -16.8829,-6.72184 -45.4275,-45.73646 -58.5084,-28.3334 -3.1216,4.2168 -6.3436,8.2668 -7.1603,9.0001 -41.2761,56.96294 -94.1196,126.08286 -116.7903,161.50148 9.3608,7.461 24.5901,27.627 38.8069,29.7532 0.4589,0.043 3.1589,-2.6785 6,-6.0481 z M 1347.44,709.21572 c 3.4588,-10.83442 5.122,-22.34608 -3.3579,-26.6029 -34.9814,-12.47607 -75.1027,26.65258 -98.3939,52.2695 -21.1249,22.27451 -54.3425,55.84555 -74.0674,90.1696 7.0998,4.01288 29.3144,25.80821 35.4484,26.8305 0.8633,0 4.78,3.5969 8.7037,7.993 3.9237,4.3962 7.4119,7.9962 7.7513,8 52.2984,-59.23219 94.1638,-104.23604 123.9158,-158.6597 z m -155.8663,545.39048 c -25.8944,-4.8014 -20.6864,-38.0504 -0.6667,-38.0142 8.6448,-1.8045 16.7003,8.4702 6.7547,11.4779 -10.8658,4.0075 -11.8467,14.3747 -1.0592,14.4789 18.5071,-1.592 55.3472,-20.2807 69.6505,-5.3097 3.1858,5.9527 -1.6302,8.6573 -13.1074,7.3609 -19.9415,-0.9869 -40.3926,14.257 -61.5719,10.0062 z m 101.7539,-1.3678 c -4.2142,-1.7445 -6.0288,-5.7928 -4.4538,-9.9356 3.3604,-5.7794 12.2973,-3.9753 16.0208,-0.1005 6.9594,7.3911 -5.0464,12.2682 -11.567,10.0361 z" fill="#00B894" transform="translate(34.040574,136.82543) matrix(0.26458333,0,0,0.26458333,-259.77438,-311.93547)"/>
</svg>