<?xml version="1.0" ?><svg height="256.51941mm" viewBox="0 0 226.90762 256.51941" width="226.90762mm" xmlns="http://www.w3.org/2000/svg">
    <path color="#000" d="m 20809.969,9623.6348 a 90.476883,89.015297 0 0 0 -90.477,89.0156 90.476883,89.015297 0 0 0 90.477,89.0156 90.476883,89.015297 0 0 0 90.476,-89.0156 90.476883,89.015297 0 0 0 -90.476,-89.0156 z m -9.494,205.0468 c -6.972,0.056 -13.001,0.692 -17.159,2.0352 -16.631,5.3728 -37.809,35.5636 -20.326,82.7676 0,0 13.22,31.8524 21.748,76.2422 8.529,44.3904 -31.271,47.7174 -49.181,50.7874 -17.911,3.07 -38.52,15.094 -17.625,54.623 20.895,39.528 73.629,54.367 116.841,48.611 43.212,-5.757 75.336,-50.787 84.291,-71.127 8.955,-20.34 18.052,-106.1772 14.215,-117.8183 -3.838,-11.6411 -52.533,-105.2011 -69.65,-114.3632 -12.838,-6.8716 -42.24,-11.9264 -63.154,-11.7579 z m -421.041,374.9724 c -46.473,-0.342 -63.977,14.829 -96.053,31.407 -115.421,77.011 -94.526,187.153 -71.498,237.427 23.027,50.274 140.437,92.233 213.783,76.754 73.346,-15.479 114.208,-3.666 146.693,-4.732 32.484,-1.065 82.585,15.478 163.891,-22.131 81.307,-37.61 54.3,-138.799 34.969,-179.479 -19.332,-40.68 -80.881,-88.139 -139.018,-107.584 -58.137,-19.444 -95.073,-0.406 -119.115,-6.781 -24.043,-6.374 -59.844,-20.178 -118.252,-24.262 -5.476,-0.383 -10.593,-0.583 -15.4,-0.619 z" fill="#FFFFFF" overflow="visible" paint-order="fill markers stroke" transform="translate(279.18469,-52.779567) matrix(0.26458333,0,0,0.26458333,-4743.5264,-1841.6123) translate(-3313.5291,-2437.8203)"/>
    <path d="m 17511.906,7159.9187 c -30.624,-0.5611 -87.929,18.0765 -78.324,42.2276 -1.644,3.2699 -2.565,3.4934 -6.939,9.2227 -5.023,6.5806 -14.978,25.5495 -17.878,34.0696 -0.744,2.1871 -2.225,2.5923 -6.784,1.8525 -8.463,-1.3733 -9.984,3.4364 -2.947,9.3107 l 5.162,4.3073 -0.978,17.3008 c -0.164,3.0046 -0.128,6.138 0.06,9.3417 -10.71,2.4973 -22.803,8.3877 -28.694,17.4337 -7.088,11.6183 -5.158,23.1467 4.197,25.0868 13.625,2.8259 12.481,1.6825 11.344,11.3536 -0.631,5.3784 -0.31,10.1351 0.834,12.271 2.643,4.9402 11.592,6.2876 18.394,2.7698 5.206,-2.6923 5.524,-2.6761 8.04,0.483 5.897,7.4047 14.833,8.5524 20.726,2.659 2.451,-2.4512 3.48,-2.2638 12.905,2.3754 5.632,2.7724 13.583,5.813 17.668,6.7535 17.313,3.9874 41.887,0.7118 60.681,-8.0831 5.853,-2.7393 10.857,-4.9811 11.114,-4.9811 0.257,0 2.847,3.712 5.757,8.2471 8.609,13.0564 21.041,26.0685 35.603,12.9578 l 5.07,-4.7815 3.173,3.5053 c 7.957,8.5864 21.891,-2.3407 26.58,-11.8852 2.372,-5.375 3.171,-5.9788 5.939,-4.4983 5.158,2.7614 13.75,0.1793 18.603,-5.5881 4.477,-5.32 4.781,-10.1472 1.48,-23.301 -0.825,-3.2878 -0.242,-4.0413 3.726,-4.8349 2.587,-0.5172 6.803,-2.5957 9.373,-4.6175 4.35,-3.4209 4.626,-4.3372 3.989,-13.1572 -0.506,-7.0054 -1.823,-10.9749 -5.057,-15.2136 -8.842,-11.5927 -30.053,-22.1881 -47.727,-23.8462 l -9.381,-0.8819 c 9.945,-16.8567 -2.029,-81.0478 -33.273,-90.3634 -3.176,-0.6473 -10.599,-4.3985 -16.498,-8.3403 -9.193,-5.8295 -22.025,-8.9004 -35.945,-9.1556 z m -34.43,43.4116 c 1.016,-0.055 1.122,0.6416 1.122,2.0516 0,1.6418 1.54,4.9428 3.421,7.3343 4.506,5.7285 13.047,5.7798 25.765,0.1543 9.165,-4.0534 9.655,-4.1003 14.669,-1.4003 3.914,2.108 7.608,2.5738 15.076,1.8965 l 9.895,-0.8996 5.07,8.4866 c 9.899,16.5644 13.933,28.8202 14.744,44.7895 1.068,34.403 -7.088,83.4039 -82.866,89.8937 -13.964,0 -15.654,-0.3869 -28.308,-6.5629 -22.758,-11.3736 -40.203,-36.8219 -39.349,-65.1793 v -18.1515 l 5.758,-0.8287 c 7.253,-1.0395 8.311,-5.1517 2.601,-10.1172 -2.327,-2.0232 -4.232,-4.571 -4.232,-5.6635 0,-3.9441 13.133,-28.1063 19.002,-34.9604 5.968,-6.9688 6.06,-7.0054 14.686,-5.9914 6.783,0.7971 10.363,0.2752 16.375,-2.3842 3.633,-1.6075 5.557,-2.4134 6.571,-2.4684 z m -16.329,35.1864 c -7.567,0 -13.903,4.0907 -13.903,8.9782 0,3.7256 3.072,4.6883 5.908,1.8524 4.94,-4.9395 10.626,-2.7665 16.175,6.182 3.981,6.4202 8.302,5.2744 8.942,-2.3709 0.699,-8.3279 -6.684,-14.6417 -17.122,-14.6417 z m 59.302,3.5095 c -4.439,-0.1315 -8.999,1.4694 -12.918,4.9103 -10.02,8.7983 -6.518,16.244 4.565,9.705 6.451,-3.8062 9.277,-3.1981 15.108,3.244 7.015,7.7528 14.07,0 8.18,-8.9828 -3.716,-5.6711 -9.228,-8.706 -14.935,-8.8765 z m -78.945,36.5429 c -3.745,0.4508 -3.727,8.0468 0.877,20.673 9.58,27.3218 24.303,39.5386 50.53,37.9295 17.137,-1.0514 32.359,-11.8343 42.141,-26.0485 8.605,-12.7533 9.742,-16.588 6.748,-22.7694 -3.509,-7.2471 -8.716,-7.7879 -27.621,-2.8761 -11.376,2.9557 -27.805,4.4673 -38.07,4.4673 -16.312,0 -20.528,-1.141 -27.245,-7.3653 -3.18,-2.947 -5.658,-4.2154 -7.36,-4.0105 z m 89.099,15.6874 c 0.515,0 0.802,0.064 0.802,0.2304 0,0.6688 -2.286,4.6649 -5.075,8.8763 -5.421,8.1846 -17.239,17.7694 -26.874,21.7945 -11.534,6.8174 -39.978,-6.5311 -45.187,-25.7319 5.104,1.5125 12.103,3.7456 18.325,3.4193 16.572,-0.8692 31.488,-1.2999 48.653,-6.4969 4.189,-1.2681 7.808,-2.0593 9.356,-2.0917 z m -353.969,68.8661 c -6.497,0 -13.17,1.1949 -18.454,3.5986 -18.761,8.9337 -29.588,29.4676 -37.814,48.8843 -13.671,32.2635 -21.63,40.4022 -33.937,38.0936 -8.272,-1.5519 -8.986,6.1061 -0.139,9.2218 15.033,5.2929 27.723,-6.6138 45.667,-44.3905 11.842,-24.9283 37.479,-55.908 61.368,-35.1778 l 6.674,6.2264 -12.617,-0.6337 c -9.24,-0.4668 -14.622,0.127 -20.114,2.2247 -8.383,3.2015 -18.701,11.4807 -18.701,15.005 0,3.7128 6.257,8.9031 10.728,8.9031 3.511,0 4.122,0.7624 4.122,5.1052 0,2.8064 -1.482,6.9897 -3.298,9.2973 -1.814,2.3076 -3.301,6.6415 -3.301,9.6298 0,10.4585 12.764,15.5718 38.86,15.5725 15.891,0 15.24,-0.8883 12.023,16.503 -0.988,5.3382 -2.227,69.8927 -3.009,156.7613 -0.732,81.2283 -1.863,149.7319 -2.517,152.2278 -1.437,5.485 -5.752,6.0701 -5.752,0.7801 0,-2.0669 -2.042,-5.9874 -4.538,-8.7126 -2.698,-2.9453 -4.333,-6.3971 -4.029,-8.5085 0.667,-4.614 -4.958,-7.8996 -9.426,-5.5085 -1.725,0.9241 -5.874,5.4043 -9.217,9.9578 -3.343,4.5534 -6.575,8.2781 -7.183,8.2781 -0.609,0 -11.5,-3.1492 -24.201,-6.9975 -19.031,-5.7669 -36.214,-9.5118 -56.524,-7.0105 -30.386,-0.023 -33.521,-0.2827 -34.354,-2.9072 -1.383,-4.3605 -6.657,-3.4666 -10.379,1.7592 -2.741,3.851 -5.615,5.1451 -16.772,7.5425 -27.678,5.9477 -47.541,15.8282 -78.315,38.9578 -21.801,16.3862 -35.936,34.434 -49.655,63.3977 -11.444,24.1572 -17.447,49.774 -18.418,78.5933 -0.706,20.9805 -0.364,25.6452 2.73,37.1274 11.033,40.9407 28.529,68.263 57.181,89.2999 8.815,6.473 10.41,8.4488 11.3,14.0127 1.269,7.9438 5.249,10.0246 9.391,4.9102 l 2.95,-3.6429 11.545,5.8142 c 6.35,3.1981 12.239,7.0534 13.086,8.5662 0.994,1.7733 2.774,2.4301 5.017,1.8435 1.913,-0.5 7.835,0.443 13.161,2.1006 5.327,1.6578 15.807,3.9548 23.292,5.1006 11.73,1.7956 13.809,2.61 15.059,5.8984 1.783,4.6913 5.759,4.9305 8.517,0.5141 1.858,-2.9748 3.852,-3.2981 20.23,-3.3015 9.992,0 29.677,-1.4553 43.744,-3.2305 30.065,-3.7939 65.228,-6.6696 81.598,-6.6696 h 11.633 v 7.2545 c 0,4.8161 1.059,8.4179 3.146,10.7244 6.876,7.5985 15.613,1.578 18.27,-12.5901 l 1.083,-5.7743 20.93,1.0726 c 28.418,1.473 65.995,9.5701 103.046,4.2896 10.198,-0.7706 20.584,-1.9158 23.08,-2.5437 4.036,-1.0152 4.538,-0.6868 4.538,2.9426 0,5.1787 5.887,12.7761 9.9,12.7761 5.335,0 8.251,-4.6278 8.251,-13.0952 v -7.9059 l 7.835,-2.9381 c 4.311,-1.6145 12.856,-5.8347 18.984,-9.377 30.47,-17.6094 50.233,-42.6426 58.365,-73.9403 4.349,-16.739 3.892,-59.3201 -0.825,-76.7323 -7.649,-28.2415 -27.341,-59.8598 -56.391,-90.5497 -16.491,-17.4216 -27.791,-26.1298 -46.345,-35.7182 -14.463,-7.4736 -14.675,-7.666 -11.443,-10.5915 2.96,-2.678 3.063,-3.4174 1.011,-7.3164 -1.256,-2.3855 -6.946,-7.6734 -10.383,-13.4142 -22.361,-37.347 -35.52,-68.746 -57.958,-117.3363 -10.359,-22.4334 -30.876,-74.9854 -28.477,-77.3842 1.172,-1.1722 34.945,8.7642 50.05,14.7261 35.479,14.0041 62.352,30.0438 72.001,46.9906 37.97,65.4229 111.972,83.9117 182.683,34.9502 0.908,11.4308 -1.509,24.3164 -1.66,56.3088 -0.583,105.6121 -12.618,207.9496 -8.219,295.8121 7.551,6.5516 25.016,11.8579 49.11,18.1667 29.914,7.8328 36.346,8.0722 37.118,1.3872 0.671,-5.811 -0.273,-6.2401 -31.862,-14.5533 -14.522,-3.8213 -29.3,-8.43 -32.842,-10.2367 l -6.439,-3.284 1.024,-39.8527 c 0.562,-21.9199 1.762,-56.1937 2.668,-76.1605 0.904,-19.9666 2.797,-66.0035 4.205,-102.3067 5.767,-148.8491 5.454,-143.9393 10.121,-157.4614 4.608,-13.3473 12.448,-12.0141 15.887,-12.0955 23.509,-17.7955 102.411,-101.3605 109.588,-113.6039 6.74,-11.7541 10.742,-25.6534 0.956,-35.3886 -34.279,-34.1012 -81.887,-59.4945 -119.575,-78.7914 -32.556,-16.638 -47.288,-22.152 -73.324,-27.4577 -18.721,-3.8149 -49.283,-4.6076 -63.141,-1.6352 -16.176,3.4689 -28.867,19.2649 -53.591,66.7035 -14.271,27.3823 -33.131,55.8499 -43.065,65.0062 -7.551,6.9608 -7.993,7.1293 -17.075,6.4479 -11.109,-0.8336 -26.4,-7.8282 -40.571,-18.5547 -20.163,-15.2619 -39.913,-33.5735 -52.146,-48.3393 l -12.625,-15.2358 -1.033,-20.3364 c -0.566,-11.1849 -1.844,-24.1379 -2.84,-28.7827 -1.883,-8.779 -7.797,-16.9374 -12.276,-16.9374 -1.425,0 -6.028,3.1535 -10.232,7.0107 -5.529,5.0717 -7.871,6.3644 -8.452,4.6621 -1.533,-4.4934 -14.246,-16.9224 -20.884,-20.4162 -4.575,-2.4074 -10.894,-3.6093 -17.39,-3.6118 z m 51.68,27.5378 c 0.185,-0.038 0.347,0 0.478,0.1338 0.299,0.2998 -0.214,3.2905 -1.139,6.6428 -1.956,7.0826 -5.809,8.5705 -4.05,1.5643 0.985,-3.9287 3.416,-8.0688 4.711,-8.3399 z m 314.129,20.4206 c 22.047,14.891 35.825,31.364 49.9,59.666 14.49,29.1381 24.581,60.9846 24.806,78.2877 l 0.06,4.4182 -9.212,-5.5528 c -8.657,-5.2124 -13.888,-5.9777 -13.888,-2.0339 0,0.9471 4.459,5.8971 9.904,10.999 7.445,6.975 9.9,10.4023 9.9,13.8086 0,4.5086 -0.04,4.4939 -7.016,-2.7563 -8.287,-8.609 -21.042,-13.2658 -31.902,-11.6417 -14.275,2.135 -14.41,7.939 -0.218,9.4039 13.146,1.3567 21.569,6.2239 25.761,14.881 4.781,9.8764 4.365,10.9461 -1.892,4.9012 -7.551,-7.2942 -18.614,-11.8867 -28.739,-11.9296 -10.009,-0.043 -13.751,1.107 -13.751,4.232 0,2.2437 1.851,2.9031 13.326,4.733 3.245,0.5176 7.29,1.955 8.988,3.1951 2.787,2.0382 2.218,2.3728 -5.905,3.4654 -4.941,0.6651 -9.869,1.9195 -10.949,2.7919 -3.622,2.9238 -0.284,6.1314 7.476,7.1835 4.23,0.5736 8.856,1.3594 10.28,1.746 3.366,0.9135 6.937,8.5576 11.359,24.3159 3.152,11.2356 3.28,12.9888 1.113,15.1559 -1.348,1.3478 -3.592,2.4508 -4.986,2.4508 -3.089,0 -5.285,3.8476 -6.798,11.9118 -35.534,51.0323 -106.031,50.4783 -135.943,29.3945 -16.446,-10.1045 -64.048,-52.8304 -33.365,-70.0138 17.257,-6.4625 42.348,-5.6902 55.407,-16.0146 6.841,-4.8631 13.53,-10.2132 16.175,-17.7217 4.496,-13.1657 -2.795,-30.109 -26.942,-108.3479 -4.466,-14.469 -5.011,-18.331 -4.446,-31.3532 0.68,-15.6473 4.641,-26.5201 12.811,-35.1642 20.059,-14.941 58.434,-7.9212 78.686,5.5883 z m -357.571,-10.618 c 4.083,0 8.912,0.6379 10.728,1.4181 2.184,0.9383 -1.447,1.418 -10.728,1.418 -9.282,0 -12.909,-0.4797 -10.725,-1.418 1.815,-0.7802 6.64,-1.4181 10.725,-1.4181 z m 382.344,11.3179 c 3.137,0 64.544,32.0777 75.57,39.4763 27.131,18.204 58.847,41.9937 63.482,47.6169 5.703,6.9198 6.419,13.5769 2.472,23.0219 -1.452,3.4811 -11.797,15.4404 -24.342,28.1447 -11.995,12.1489 -29.604,29.3604 -39.134,38.2485 l -17.328,16.1574 v -37.34 c 0,-41.7227 -0.635,-45.5435 -12.403,-74.7334 -13.406,-33.2491 -23.279,-50.3784 -40.035,-69.4555 -5.381,-6.1265 -9.107,-11.1368 -8.282,-11.1368 z m -396.761,25.6012 c 0.899,0 2.039,0.6306 2.88,1.6441 2.227,2.6828 0.481,3.2435 -3.079,0.9881 -1.36,-0.8617 -1.594,-1.8174 -0.599,-2.4329 0.225,-0.1384 0.499,-0.2043 0.798,-0.1997 z m 266.397,3.9396 0.98,10.392 c 0.949,10.0512 3.124,18.1194 20.141,74.7513 9.339,31.0779 10.722,46.638 4.871,54.7338 -4.842,6.6984 -18.433,12.7789 -38.311,17.1413 -9.501,2.0849 -19.544,5.3336 -22.321,7.2145 -4.327,2.9297 -10.823,12.5694 -13.126,19.4809 -0.423,1.2688 -3.656,-0.5806 -8.549,-4.888 -16.331,-14.3747 -49.8,-31.1233 -81.855,-40.9651 -24.877,-7.6375 -36.014,-9.6442 -41.617,-7.5025 -4.052,1.5488 -4.537,2.5545 -4.537,9.4125 0,25.1628 35.653,105.7397 56.166,142.213 11.807,20.9941 20.739,45.1047 32.641,63.8582 -0.287,0.2588 -7.209,-2.1016 -15.377,-5.2424 -15.164,-5.8311 -19.533,-6.1691 -47.028,-3.6474 -1.362,0.1248 -4.766,-0.718 -7.564,-1.8743 -4.321,-1.7855 -5.914,-1.6891 -10.579,0.638 -3.02,1.5072 -5.597,2.5484 -5.725,2.3177 -3.073,-5.5717 -6.715,-9.9911 -9.984,-12.1337 -3.728,-2.4425 -4.46,-2.4558 -8.026,-0.1201 -2.391,1.5669 -4.366,4.9265 -5.056,8.6015 -1.088,5.8041 -1.248,5.9238 -4.268,3.1906 -2.01,-1.8195 -4.718,-2.5385 -7.542,-1.9985 l -4.409,0.8463 1.431,-40.655 c 0.785,-22.3602 1.464,-85.955 1.507,-141.3174 0.06,-85.119 0.512,-103.8225 2.876,-121.1583 1.537,-11.2753 3.402,-21.1063 4.143,-21.8475 0.741,-0.7415 4.66,-1.7829 8.708,-2.3132 l 7.361,-0.966 5.774,8.7656 c 8.196,12.4387 33.13,45.6603 51.862,60.7483 25.946,20.8984 49.182,29.7681 66.274,26.5618 14.142,-2.6531 37.512,-39.5722 59.729,-82.2937 z m -352.325,332.3434 c 10.627,-0.066 20.402,0.5274 26.913,1.7905 11.941,2.3162 43.846,10.4219 44.688,11.3535 0.188,0.2089 -6.287,10.4016 -14.393,22.654 -8.107,12.2522 -18.072,27.9484 -22.14,34.8762 -6.72,11.4425 -8.032,12.7567 -14.324,14.3538 -3.809,0.9668 -7.247,1.4385 -7.639,1.0457 -0.394,-0.3927 0.849,-6.1105 2.761,-12.7051 1.912,-6.5947 3.978,-14.8495 4.59,-18.3422 0.965,-5.5114 0.723,-6.2732 -1.816,-5.7742 -2.115,0.4153 -4.884,6.2767 -9.988,21.134 -8.149,23.7106 -7.87,26.4696 2.645,26.4696 3.597,0 6.54,0.5175 6.54,1.1521 0,0.6349 -6.122,11.8145 -13.608,24.8432 -13.22,23.0051 -13.649,23.5333 -14.727,18.2626 -1.496,-7.3197 -8.271,-12.9047 -15.652,-12.9047 -8.634,0 -16.11,8.0721 -18.604,20.0836 -1.055,5.0849 -1.421,11.3697 -0.807,13.9684 1.399,5.9199 8.061,13.2196 13.251,14.5221 2.17,0.5446 3.945,1.6598 3.945,2.4727 0,0.8133 -6.375,12.8623 -14.169,26.7798 -13.014,23.2427 -37.602,72.0931 -49.903,99.1515 -3.581,7.8771 -5.931,11.1167 -8.035,11.0565 -1.635,-0.045 -8.729,-3.0247 -15.763,-6.6206 -10.822,-5.5334 -12.789,-7.1754 -12.789,-10.6846 0,-2.9607 1.244,-4.6205 4.347,-5.8008 4.145,-1.5755 4.298,-2.0606 3.32,-10.392 l -1.029,-8.7389 6.993,-3.8377 c 9.431,-5.176 12.773,-8.2464 12.773,-11.7436 0,-4.1867 -5.61,-5.4049 -11.313,-2.4552 l -4.881,2.5216 2.389,-10.2723 c 4.792,-20.6135 4.025,-19.3417 13.587,-22.5786 21.115,-7.1484 30.136,-23.0441 20.487,-36.0949 l -3.575,-4.8394 4.2,-3.9086 c 5.883,-5.4715 7.714,-10.9522 5.469,-16.3745 -1.794,-4.3309 -7.623,-8.163 -12.417,-8.163 -1.32,0 -2.399,-0.3537 -2.399,-0.7844 0,-1.377 20.142,-62.7153 20.839,-63.4595 0.367,-0.3934 1.548,0.1634 2.623,1.2363 3.305,3.3064 10.893,2.201 27.467,-3.9972 20.973,-7.8438 21.979,-8.4421 21.368,-12.7274 -0.757,-5.313 -9.813,-5.4857 -23.669,-0.4565 -6.257,2.2717 -11.664,3.8364 -12.018,3.4833 -0.354,-0.3535 1.01,-5.6102 3.031,-11.6861 2.969,-8.9242 3.5,-13.3055 2.748,-22.7959 -0.802,-10.1181 -0.249,-13.8365 3.984,-26.7974 l 4.91,-15.0495 7.777,-1.0679 c 9.912,-1.3659 21.387,-2.0918 32.013,-2.1583 z m 155.176,3.2927 c 1.022,0.1158 2.039,0.9673 2.547,2.495 0.362,1.0881 -0.853,1.9587 -2.734,1.9587 -2.375,0 -3.095,-0.7601 -2.411,-2.5437 0.541,-1.4083 1.574,-2.0265 2.598,-1.91 z m -210.977,3.2483 c 0.264,0.023 0.448,0.068 0.536,0.1542 0.333,0.3331 -0.742,4.2351 -2.384,8.6682 -2.939,7.9308 -3.115,8.0719 -11.19,8.9562 -4.513,0.4941 -10.491,2.118 -13.281,3.6071 -6.754,3.6039 -17.204,15.3308 -17.204,19.3083 0,4.7525 4.667,8.6662 8.837,7.4096 5.102,-1.5375 7.309,-3.9929 3.585,-3.9929 -2.791,0 -2.705,-0.4217 0.904,-4.2852 6.956,-7.4465 20.808,-12.3439 19.387,-6.8557 -2.716,10.5039 -38.739,116.1739 -39.875,116.9704 -0.82,0.5761 -5.895,1.545 -11.277,2.1541 -15.235,1.7234 -15.393,9.6694 -0.178,8.8805 3.828,-0.1974 7.438,0.1158 8.022,0.7003 0.583,0.5838 -0.129,5.0003 -1.582,9.8159 -1.453,4.8156 -3.988,14.3228 -5.637,21.1296 -2.742,11.3202 -3.374,12.4225 -7.441,12.9001 -2.445,0.2872 -5.218,1.9617 -6.16,3.7226 -1.38,2.5792 -0.905,4.0134 2.447,7.3651 l 4.161,4.157 -3.607,15.2177 c -1.984,8.3697 -3.797,15.497 -4.029,15.8384 -0.232,0.3409 -2.376,-1.7012 -4.764,-4.5378 -8.622,-10.2464 -13.494,-4.5386 -6.425,7.5247 4.283,7.3083 4.374,7.8791 1.577,9.5101 -12.543,7.316 -13.657,13.6121 -2.083,11.7612 6.265,-1.0019 6.546,-0.8625 5.589,2.7122 -1.908,9.6161 -14.87,1.2916 -21.512,-7.3741 -12.838,-12.8529 -27.112,-28.0393 -35.017,-60.6456 -4.117,-12.4831 -4.626,-16.3832 -4.609,-35.4746 0.02,-17.7649 0.782,-24.5276 4.476,-39.3387 9.18,-36.8061 22.313,-61.7417 44.058,-83.6542 15.677,-15.7978 38.435,-31.9863 57.092,-40.6062 10.73,-4.9579 33.612,-11.9915 37.584,-11.6994 z m 209.953,16.1486 c 0.987,0 2.321,0.089 4.089,0.2177 6.517,0.4709 7.356,1.0409 9.246,6.2928 1.142,3.1764 7.322,20.1451 13.737,37.708 11.495,31.474 25.677,81.2257 24.222,84.9616 -0.409,1.0534 -4.609,3.4007 -9.332,5.2158 -16.193,6.2226 -13.858,11.9499 2.739,6.7181 4.973,-1.5676 9.239,-2.6072 9.483,-2.3086 0.553,0.6797 8.926,35.7334 9.541,39.9503 0,0 -54.39,12.5446 -58.328,13.4453 -5.527,1.2142 -5.328,2.6594 -3.088,-22.1976 0.853,-9.4599 1.661,-35.6962 1.794,-58.3059 l 0.24,-41.1113 3.514,1.0325 c 9.936,2.9089 13.753,2.9021 14.877,-0.027 1.489,-3.8806 -0.843,-5.9674 -10.193,-9.1156 l -7.769,-2.619 -1.072,-9.7582 c -2.407,-21.9345 -4.87,-41.3821 -5.796,-45.7558 -0.729,-3.4378 -0.866,-4.3288 2.096,-4.3428 z m -15.081,0.7355 1.968,10.7244 c 2.375,12.9344 4.715,44.5548 3.297,44.5548 -0.557,0 -5.986,-1.8725 -12.067,-4.1613 -7.96,-2.9962 -11.556,-3.6605 -12.829,-2.3666 -2.317,2.3543 1.738,5.4809 15.146,11.686 10.103,4.6753 10.312,4.9096 10.312,11.2872 v 6.51 l -6.185,-2.207 c -3.404,-1.2136 -8.938,-3.5288 -12.298,-5.1451 -4.99,-2.3998 -6.571,-2.5543 -8.629,-0.8462 -4.251,3.5287 -0.321,7.5476 14.048,14.3626 l 13.406,6.3591 -1.011,43.7262 c -1.109,47.9757 -2.199,59.2405 -5.928,61.164 -1.362,0.7021 -9.905,3.5315 -18.981,6.2884 -9.076,2.7573 -17.904,6.0404 -19.618,7.2944 -2.449,1.7905 -3.394,5.4383 -4.401,16.986 -1.318,15.114 -4.267,31.057 -6.51,35.1999 -1.034,1.9104 -1.621,1.7541 -3.182,-0.8289 -1.054,-1.7428 -5.451,-9.1033 -9.772,-16.3611 -7.697,-12.9316 -13.445,-17.6756 -13.445,-11.0966 0,4.5038 17.025,38.5332 21.094,42.1617 4.674,4.1677 10.349,2.9038 13.835,-3.0844 3.183,-5.4669 7.308,-23.1075 9.577,-40.9784 0.793,-6.2367 2.09,-11.9858 2.885,-12.7805 1.628,-1.6285 27.361,-9.6107 28.287,-8.7746 0.328,0.2963 -0.235,7.817 -1.25,16.7158 -1.016,8.8987 -2.897,29.3353 -4.18,45.4144 -1.282,16.0789 -2.582,27.1904 -3.079,27.9942 -54.46,-0.8412 -96.478,12.9785 -157.293,9.8512 -3.395,-1.0437 -3.235,-1.7579 5.801,-25.836 9.436,-25.1433 14.45,-35.5542 17.642,-36.6178 0.973,-0.3244 3.858,4.7333 6.412,11.2427 4.576,11.6625 4.602,11.9495 1.919,19.437 -3.618,10.0948 -3.498,18.7474 0.311,22.193 3.602,3.2605 20.014,3.7969 23.057,0.7533 3.095,-3.0955 2.345,-10.299 -2.123,-20.4029 -4.239,-9.5862 -3.971,-12.574 1.538,-17.1454 3.064,-2.5436 3.425,-9.8979 0.5,-10.1749 -4.009,-0.3798 -7.042,0.5209 -9.675,2.8718 -2.385,2.1321 -3.053,1.4769 -6.442,-6.3372 -2.079,-4.7933 -4.261,-13.8202 -4.848,-20.0615 -1.057,-11.2495 -0.982,-11.5228 8.292,-31.3533 5.145,-11.0024 13.594,-30.77 18.776,-43.9298 9.344,-23.7334 29.917,-68.8262 56.164,-123.1083 l 13.65,-28.22 11.34,-1.232 c 6.238,-0.6771 14.297,-1.3432 17.913,-1.48 z m 49.487,1.0681 c 2.606,0.1701 4.55,1.0269 6.204,2.6812 6,5.9993 40.645,95.0049 54.309,139.5224 4.505,14.6815 14.021,45.6253 21.142,68.7687 14.916,48.4627 24.848,83.0251 24.848,86.4594 0,1.5969 -3.674,3.2075 -11.136,4.8747 -6.126,1.3685 -14.669,2.9978 -18.98,3.6205 l -7.835,1.1302 v -12.3817 c 0,-16.3182 -2.361,-28.1339 -19.889,-99.5501 -8.121,-33.0861 -14.766,-61.227 -14.766,-62.538 0,-1.3113 2.273,-3.5615 5.052,-4.9989 7.18,-3.7125 5.922,-8.2574 -2.215,-8.0078 -6.871,0.211 -5.586,2.7928 -12.76,-25.6764 -3.99,-15.8392 -10.468,-34.8834 -23.601,-69.3978 l -9.107,-23.9258 5.894,-0.5276 c 1.028,-0.093 1.971,-0.1088 2.84,-0.051 z m -106.313,1.7238 c 0.697,-0.1201 1.231,0.3039 1.88,0.9528 1.506,1.5071 -1.11,8.3028 -11.408,29.6336 -7.349,15.2222 -16.736,34.7319 -20.863,43.354 l -7.507,15.6743 0.949,-9.9001 c 2.563,-26.8146 4.618,-32.7722 18.975,-54.96 12.352,-19.0879 15.886,-24.3906 17.974,-24.7546 z m 131.122,2.5834 c 1.564,-0.086 5.22,0.4477 9.456,1.4361 32.541,7.5912 70.795,25.5307 90.753,42.5604 23.552,20.0959 52.728,58.1498 62.405,81.3941 7.344,17.6429 9.78,31.3113 9.78,54.8759 0,39.03 -6.624,56.5003 -30.347,80.0292 -10.002,9.9199 -19.085,17.1292 -27.352,21.7101 -20.465,11.3411 -17.525,14.1418 -29.29,-27.9099 -10.781,-38.5263 -42.94,-143.5927 -47.477,-155.0996 -0.899,-2.2805 -0.278,-2.8892 2.961,-2.8892 5.179,0 5.588,-0.5332 16.72,-21.5949 8.026,-15.1868 9.236,-18.6752 9.236,-26.6956 0,-12.5121 -4.223,-16.0644 -19.092,-16.0644 -12.556,0 -18.002,1.8755 -24.989,8.615 l -5.305,5.1182 -1.556,-3.9794 c -0.856,-2.188 -4.969,-12.0723 -9.138,-21.9628 -4.168,-9.8906 -7.577,-18.5486 -7.577,-19.2416 0,-0.1724 0.29,-0.2725 0.812,-0.3016 z m 49.433,41.3022 c 1.313,-0.023 2.668,0.023 4.055,0.1022 3.845,0.2411 3.876,0.3478 1.019,3.5052 -7.199,7.6559 -16.662,8.0654 -16.662,8.0654 -9.774,0.038 -10.875,-1.5825 -8.97,-3.8776 4.083,-4.9202 11.366,-7.6552 20.558,-7.7952 z m -418.511,5.606 c -1.793,0.1496 -3.486,0.7897 -4.196,1.675 -0.948,1.1804 -2.572,9.2016 -3.608,17.8235 -1.035,8.6222 -2.345,18.9045 -2.911,22.8536 -0.923,6.4311 -0.705,7.1217 2.096,6.5986 2.418,-0.4517 3.915,-3.7285 6.594,-14.438 1.907,-7.6185 3.85,-13.1867 4.321,-12.3729 0.471,0.8144 2.883,9.2778 5.362,18.8077 2.48,9.5292 5.298,18.2892 6.262,19.4675 2.277,2.7833 7.831,1.9121 10.015,-1.5731 2.105,-3.3585 -6.46,-34.7814 -13.356,-49.004 -3.56,-7.3402 -5.427,-9.4248 -8.788,-9.816 -0.586,-0.068 -1.193,-0.073 -1.791,-0.023 z m 417.758,15.2044 c 1.135,0.2509 -0.209,2.9653 -5.074,11.9785 -3.843,7.1167 -7.507,13.5417 -8.146,14.2784 -0.978,1.1276 -9.869,-19.8597 -9.869,-23.2966 0,-0.6286 3.899,-1.1434 8.663,-1.1434 4.766,0 10.391,-0.6227 12.502,-1.3869 0.891,-0.3225 1.545,-0.5135 1.924,-0.43 z m 42.915,8.4154 c -4.2,0 -6.105,3.6884 -4.317,8.3492 1.193,3.1103 3.45,3.0109 6.759,-0.2969 3.787,-3.7876 2.494,-8.0523 -2.442,-8.0523 z m -274.433,7.4274 c 0.519,0 0.5,2.7052 -0.04,6.0092 -1.166,7.1848 1.102,12.1425 5.552,12.1425 1.785,0 3.244,0.4971 3.244,1.1034 0,0.606 -4.156,10.8163 -9.234,22.6895 v 0 c -5.08,11.8734 -9.349,21.6766 -9.488,21.7898 -0.141,0.1136 -1.74,-0.3914 -3.554,-1.1211 -1.816,-0.7294 -6.826,-1.3802 -11.137,-1.4403 -6.252,-0.093 -7.839,-0.6888 -7.839,-2.9425 0,-2.9442 30.853,-58.2305 32.496,-58.2305 z m 305.076,4.4005 c -2.602,-0.9988 -39.524,17.2964 -44.483,22.0426 -1.783,1.7049 -2.692,4.1037 -2.118,5.597 1.674,4.3637 7.563,2.9849 21.572,-5.0565 25.623,-14.7082 31.568,-20.0735 25.029,-22.5831 z m -247.333,24.8301 c -6.661,10.0982 -16.973,21.7805 -20.358,33.0857 -1.594,6.3413 2.031,8.6416 13.619,8.6416 9.464,0 10.758,0.4165 13.289,4.2808 2.65,4.0437 2.642,4.5853 -0.167,9.8025 -3.672,6.8194 -5.6,7.7211 -19.047,8.9031 -8.863,0.7793 -10.816,1.4892 -11.319,4.1302 1.922,12.7901 19.256,10.1948 27.828,6.9242 7.671,-2.9267 10.078,-7.7321 12.496,-11.8564 8.834,-15.0761 1.555,-31.4647 -14.793,-33.3074 -4.196,-0.4729 -7.628,-1.1223 -7.628,-1.4449 0,-1.9228 10.467,-17.1368 11.788,-17.1368 0.883,0 4.961,0.8461 9.064,1.8789 6.335,1.5958 7.854,1.4774 10.108,-0.7755 4.336,-4.336 -1.107,-8.6422 -13.995,-11.0742 z m -114.112,2.1225 c 2.004,0 2.093,0.577 0.475,3.1687 -1.66,2.6571 -1.263,4.2046 2.458,9.5765 2.443,3.5244 4.441,7.9469 4.441,9.8291 0,6.7694 -7.417,8.0745 -13.781,2.4241 -5.55,-4.9268 -0.406,-24.9984 6.407,-24.9984 z m 349.068,1.8126 c -4.035,-0.1338 -6.955,4.5523 -4.887,8.4154 1.053,1.9712 3.062,2.9771 5.3,2.6591 4.891,-0.6967 5.239,-10.0509 0.407,-10.9814 -0.278,-0.055 -0.551,-0.083 -0.82,-0.093 z m -415.492,26.5184 c 1.12,-0.1973 2.308,0.1929 3.368,1.2719 1.507,1.5341 1.064,2.7084 -1.946,5.167 -5.219,4.2651 -6.529,4.0117 -5.557,-1.0768 0.589,-3.082 2.268,-5.0342 4.135,-5.3621 z m 98.251,13.2591 c 2.265,0.1838 4.66,0.8971 5.984,1.8657 3.066,2.2441 3.085,2.54 0.376,6.6739 -1.812,2.7643 -4.331,4.3251 -6.976,4.3251 -4.327,0 -5.362,-1.4047 -6.08,-8.2514 -0.366,-3.4924 0.33,-4.198 4.521,-4.6088 0.68,-0.066 1.42,-0.066 2.175,0 z m 350.891,4.6133 c -6.292,0 -7.362,0.4855 -7.362,3.3414 0,2.4133 1.415,3.6249 5.092,4.3605 6.963,1.3924 7.62,4.4693 2.527,11.819 -4.712,6.7987 -5.454,11.6842 -2.266,14.8722 1.273,1.2726 5.487,1.8689 11.118,1.5687 7.073,-0.3763 9.197,-1.1174 9.622,-3.3547 0.344,-1.8062 -1.051,-3.595 -3.762,-4.8302 -3.036,-1.3832 -3.962,-2.7275 -3.138,-4.5556 0.644,-1.4266 1.47,-5.5654 1.834,-9.1954 0.936,-9.2892 -3.681,-14.0259 -13.665,-14.0259 z m -371.484,1.0237 2.216,6.3902 c 2.97,8.5778 6.464,12.1145 13.228,13.3832 3.261,0.6117 5.315,1.8465 4.866,2.9204 -0.429,1.0233 -6.043,13.6101 -12.475,27.9721 -6.433,14.3619 -11.695,26.7111 -11.695,27.44 0,0.729 -1.046,2.1945 -2.325,3.2572 -3.26,2.7051 -4.719,-0.1565 -6.117,-12.0095 -1.249,-10.5892 -3.089,-13.6157 -7.299,-12.0007 -2.338,0.8973 -2.665,3.0973 -2.152,14.398 0.562,12.4074 0.953,13.6484 5.591,17.7927 l 4.985,4.4583 -8.938,25.92 -8.937,25.9156 -5.97,-0.079 c -5.227,-0.07 -36.041,-7.1698 -37.514,-8.6415 -0.576,-0.5775 39.266,-78.9007 48.867,-96.0625 3.047,-5.4455 9.621,-16.9094 14.607,-25.4769 z m 310.097,4.817 c -1.461,0.2019 -2.079,1.8417 -2.079,4.8304 0,2.9092 3.513,7.8718 11.607,16.3922 l 11.606,12.2178 -8.303,10.9724 c -5.616,7.4173 -8.311,12.5521 -8.311,15.8384 0,6.2739 5.181,6.6496 9.413,0.6825 8.807,-12.4211 13.969,-18.9171 15.006,-18.8829 0.638,0.023 4.125,4.1725 7.75,9.2311 7.624,10.6399 11.483,13.3343 14.965,10.445 4.016,-3.3326 2.693,-7.5404 -5.88,-18.7277 -4.537,-5.9206 -8.252,-11.2269 -8.252,-11.7879 0,-0.5608 2.505,-4.1137 5.562,-7.897 5.303,-6.5639 9.293,-13.0113 9.293,-15.0184 0,-0.5135 -1.302,-0.9355 -2.889,-0.935 -1.589,5e-4 -6.087,3.714 -9.994,8.2514 -3.907,4.5376 -8.072,8.2515 -9.253,8.2515 -1.182,0 -7.869,-5.6329 -14.863,-12.5146 -8.162,-8.0302 -12.941,-11.6844 -15.378,-11.3492 z m -394.283,2.4993 c 1.202,0.062 2.671,0.623 4.529,1.6176 6.496,3.4762 2.517,12.5565 -7.839,17.8901 -4.925,2.5366 -5.837,2.3406 -4.83,-1.0325 0.473,-1.5882 1.726,-6.4134 2.782,-10.7243 1.365,-5.5696 2.714,-7.8833 5.358,-7.7509 z m 319.391,24.8256 c 0.53,-0.023 0.842,0.023 0.908,0.098 0.252,0.311 4.239,15.7879 8.857,34.3932 12.98,52.2777 15.797,71.7665 11.057,76.5063 -2.085,2.0861 -5.585,2.6407 -15.371,2.4373 -15.891,-0.3303 -81.555,-7.1267 -81.98,-7.5205 -0.52,-0.4807 3.907,-54.3893 6.049,-73.6743 1.095,-9.8602 2.893,-18.8281 3.994,-19.9286 1.713,-1.7139 58.519,-12.0949 66.486,-12.3109 z m -6.382,26.2392 c -4.384,7.564 -5.983,8.7067 -9.524,6.8113 -5.38,-2.8795 -17.104,-2.2207 -22.853,1.2851 -7.097,4.3282 -12.419,16.159 -13.852,30.8079 -1.013,10.3367 -1.953,12.9991 -6.365,18.0232 -4.883,5.5613 -6.473,10.5295 -4.129,12.8736 1.429,1.4299 5.613,-1.0228 10.294,-6.0268 3.693,-3.9486 4.137,-4.0352 7.874,-1.5864 2.753,1.8035 6.088,2.313 10.938,1.6749 5.677,-0.7467 8.378,-2.4298 14.482,-9.0359 8.491,-9.1908 11.473,-17.1824 11.473,-30.7414 0,-6.2277 1.15,-11.6182 3.435,-16.0956 2.573,-5.0433 2.96,-7.1987 1.546,-8.597 -1.455,-1.408 -2.535,-0.729 -3.319,0.6071 z m -14.863,16.4941 c 0,0.5061 -5.201,6.0818 -11.554,12.3863 -8.711,8.6438 -11.546,10.6579 -11.54,8.2027 0.02,-6.835 3.785,-16.3743 8.204,-20.7929 4.563,-4.8454 10.307,-4.4857 14.89,0.2039 z m 0.46,14.9743 c 0.499,-0.1385 0.788,0 0.874,0.4208 0.758,3.7458 -5.567,15.1596 -10.587,19.1089 -2.417,1.9009 -5.364,3.4568 -6.55,3.4568 -5.286,0 -3.489,-4.1179 6.199,-14.2165 5.207,-5.4275 8.568,-8.3535 10.064,-8.77 z m -185.916,35.1686 c 0.196,0 0.411,0.055 0.638,0.1953 0.908,0.5608 1.653,1.7162 1.653,2.5702 0,0.8538 -0.745,1.5554 -1.653,1.5554 -0.908,0 -1.649,-1.1597 -1.649,-2.5747 0,-1.0609 0.419,-1.7198 1.011,-1.7459 z" fill="#00B894" transform="translate(279.18469,-52.779567) matrix(0.26458333,0,0,0.26458333,-4743.5264,-1841.6123)"/>
</svg>