<?xml version="1.0" ?><svg height="332.76926mm" viewBox="0 0 470.76688 332.76926" width="470.76688mm" xmlns="http://www.w3.org/2000/svg">
    <path d="m 4669.2482,1416.5489 -11.1921,25.8826 -43.1442,2.7797 -5.5981,5.3857 c 0,0 -9.8449,-3.8223 -14.1883,-3.2142 -4.3431,0.608 -11.4861,18.6758 -11.4861,18.6758 0,0 -9.4778,-3.422 -10.1516,4.5883 -0.4543,5.4011 6.2364,5.2762 -1.574,7.1432 -8.0051,1.9135 -17.1391,9.8294 -19.8518,17.7391 -2.143,-6.0896 -6.3784,-13.1688 -12.301,-15.5102 -7.7322,-3.0568 -31.8395,1.2675 -34.4351,4.2995 -2.5958,3.0319 -1.6201,15.1098 1.2242,28.0329 2.8443,12.9231 18.5201,16.5768 26.4454,16.8253 0,0 0.8105,0.3247 2.8613,-0.043 -0.7218,4.1729 -0.9776,7.2407 -1.4392,9.6692 -8.2233,-2.8505 -19.5459,-6.0506 -23.5691,-4.8297 -16.6014,3.9826 -12.6124,30.2481 -23.2415,36.8644 -1.0669,-2.3326 -6.5326,-12.2434 -7.4383,-13.379 -2.4574,-3.0816 -11.0179,-9.1953 -15.5468,-10.2888 -4.5289,-1.0935 -13.6416,4.1755 -13.6416,4.1755 0,0 -2.1542,-2.0133 -4.1423,-2.8334 -1.9883,-0.8202 -5.2192,3.1564 -11.4324,6.1386 -6.2135,2.9822 -11.5985,16.7254 -13.145,25.2248 -1.4201,7.8076 4.3345,35.3531 5.9951,37.2796 -22.6481,31.7572 -31.5085,60.6036 -29.4367,82.7754 2.0719,22.1717 15.0761,37.6688 36.1572,42.7273 23.1626,5.558 178.9795,3.0572 219.4155,3.5481 65.1514,0.7909 162.0804,6.6813 198.2251,-14.9329 38.5704,-23.0646 -0.1703,-108.0697 -12.5248,-127.3101 -12.3545,-19.2403 -12.0184,-19.0722 -12.0184,-19.0722 0,0 -16.0194,-28.9908 -13.9392,-36.1921 1.4213,-4.9202 1.98,-9.2349 1.972,-13.2224 0.4846,0.1426 0.7813,0.2289 0.7813,0.2289 3.2726,2.4309 5.5061,5.2591 5.5061,5.2591 0,0 0.4676,6.6148 3.1167,8.6951 2.6492,2.0803 4.779,10.682 6.4151,12.1078 1.6365,1.4258 -0.1038,4.3009 5.7919,3.8101 5.8957,-0.4909 16.0771,-2.314 11.376,-6.9655 -4.7009,-4.6515 -5.6621,-5.0021 -10.2852,-5.6332 -4.623,-0.6311 -5.246,0.5845 -5.5836,-2.2438 -0.3376,-2.8283 -1.8442,-7.784 -3.1946,-9.5137 -1.3507,-1.7296 -2.8313,-4.5577 -4.0003,-6.7081 -1.1686,-2.1504 -4.7786,-3.0154 -7.6874,-4.9087 -0.5781,-0.3763 -1.5646,-0.6179 -2.776,-0.7597 -1.4438,-9.2227 -3.082,-16.7649 -5.3002,-27.9694 -3.6195,-18.2849 -9.3176,-16.2677 -9.3176,-16.2677 0,0 5.0191,-11.8133 4.3434,-15.505 -0.6755,-3.6917 -5.4048,-4.0829 -5.4048,-4.0829 0,0 -1.0136,-7.5568 -4.2468,-9.1638 -3.2335,-1.607 -10.8587,3.9088 -10.8587,3.9088 l -9.1695,-13.6379 -39.9107,-1.911 -15.829,-26.1457 z m -203.7731,61.6582 c -1.2136,0.014 -2.4563,0.086 -3.7249,0.2212 -13.5313,1.4414 -19.2203,16.2535 -21.7883,19.3849 -2.5683,3.1313 -12.3712,21.3479 -12.8406,28.4556 -0.4696,7.1077 5.4126,3.7279 5.4126,3.7279 l 0.9664,4.0758 c 0,0 1.8222,3.0565 10.0516,5.5417 8.2288,2.4853 12.8685,0.7706 20.5729,0.7209 0,0 9.5825,0.1492 14.0007,-3.5786 4.4183,-3.7278 14.6635,-18.2418 15.63,-27.1637 0.9663,-8.9219 -2.0989,-15.6069 -4.9707,-21.2235 -2.6028,-5.09 -11.5786,-10.3024 -23.3097,-10.1622 z" fill="#FFFFFF" paint-order="markers stroke fill" transform="translate(115.82839,251.96092) translate(-4514.3553,-1666.7191)"/>
    <path d="m 4674.8857,1414.8288 c -8.9824,0.3003 -10.0794,1.6123 -10.6963,5.0442 -0.3855,2.1478 -2.6954,7.8254 -5.1325,12.6167 -4.4328,8.7113 -4.4328,8.7116 -17.3738,9.1969 -27.9983,1.0497 -30.522,1.44 -33.3437,5.1615 -2.5655,3.3823 -2.5652,3.3824 -4.9619,0.8993 -5.4557,-5.6519 -14.239,-3.8551 -16.2281,3.3198 -0.5607,2.0237 -1.5156,4.521 -2.1209,5.5492 -0.6053,1.0281 -1.7208,3.3798 -2.4778,5.2258 -1.0685,2.6046 -2.353,3.4556 -5.7358,3.8011 -3.0688,0.3134 -4.4738,1.1149 -4.7464,2.7081 -0.626,3.6553 1.069,8.2077 3.0422,8.1728 2.1756,-0.039 2.3342,-1.4805 0.3692,-3.3764 -0.7812,-0.7545 -1.0777,-2.3154 -0.6588,-3.4688 0.7666,-2.1071 4.1238,-2.1027 9.8988,0.013 2.0959,0.7683 2.2748,0.4377 1.5513,-2.8722 -0.924,-4.2288 0.8194,-7.3359 4.5339,-8.08 1.9342,-0.3877 2.365,-1.3039 2.0232,-4.3019 -0.2967,-2.6095 0.1879,-4.0605 1.5388,-4.6065 2.1344,-0.8628 9.267,2.1311 9.2983,3.9034 0.011,0.5964 -1.8812,3.4431 -4.2046,6.3257 -4.7597,5.9073 -5.1393,7.4722 -1.9965,8.2346 1.9806,0.481 2.1786,2.206 2.1451,18.6538 -0.039,19.1098 -0.593,26.1504 -2.0607,26.1764 -0.489,0.01 -0.9829,-2.1907 -1.1047,-4.8873 -0.3937,-8.9699 -6.3348,-13.8261 -10.9996,-8.9927 -2.9001,3.0047 -2.2297,4.5685 1.013,2.3611 4.5977,-3.1309 6.2536,-0.1373 5.4141,9.7903 -0.664,7.8455 -0.015,9.3999 2.7354,6.5502 1.9637,-2.0346 5.2549,-0.4593 5.3081,2.5414 0.025,1.4012 -0.8511,3.9682 -1.9452,5.7047 -1.99,3.1576 -1.9896,3.1575 4.0553,2.6597 5.7799,-0.4757 6.0379,-0.3618 5.88,2.5887 -0.091,1.6971 -0.5189,4.6183 -0.9528,6.4913 -0.6195,2.6745 -0.3566,3.3979 1.2266,3.3699 1.5341,-0.027 1.8447,0.7035 1.3007,3.0491 -0.9161,3.9439 2.8469,5.7752 5.1503,2.5059 1.0764,-1.5289 2.8568,-2.0688 6.1027,-1.8504 8.0001,-0.7427 6.3888,-4.0577 -0.2256,-3.923 -3.5848,0.063 -6.7733,-0.2961 -7.0856,-0.7991 -0.3132,-0.5033 -0.334,-3.8329 -0.047,-7.3989 0.5216,-6.4839 0.5217,-6.4843 7.1451,-6.6016 3.8791,-0.069 6.6148,-0.663 6.6012,-1.4348 -0.014,-0.8139 -2.9685,-1.1961 -7.7255,-0.9992 -13.8799,0.5739 -13.7638,0.6024 -15.1811,-3.7517 -1.3128,-4.032 -1.4795,-48.1675 -0.1877,-49.4996 0.3688,-0.3799 10.3646,-0.039 22.2125,0.7571 11.8481,0.7964 22.9239,1.1246 24.6131,0.7291 3.0702,-0.7196 3.0701,-0.7196 3.1199,24.7016 0.047,23.8338 0.1858,25.3922 2.2381,24.9591 1.2037,-0.2537 2.5488,-1.8526 2.9896,-3.5525 0.4407,-1.7001 0.5859,-18.487 0.3177,-37.3043 -0.241,-17.1066 0.3174,-27.3763 0.1273,-32.6576 -0.083,-2.2769 12.1882,-1.4535 24.9854,-1.3516 39.536,0.3151 46.2962,0.8032 45.3467,3.2789 -1.017,2.651 -2.1606,31.1872 -1.7719,44.2077 -0.3591,2.1203 5.8873,2.178 5.79,-1.1801 -0.059,-2.0255 -0.2066,-3.8174 -0.3263,-10.5777 -0.2468,-13.9331 -0.2467,-13.9331 3.7714,-13.3642 9.1557,1.2958 39.4456,2.5617 41.8567,1.7494 2.4732,-0.8336 2.5712,-0.5768 1.9547,5.1317 -1.6714,15.4656 -1.8298,30.9734 -0.3258,31.8667 2.9867,1.7732 3.7971,-1.6741 4.2365,-18.0142 0.4002,-14.8554 0.7089,-16.7824 2.9972,-18.6724 2.4585,-2.0306 2.4738,-2.262 0.4274,-6.3643 -2.123,-4.2568 -2.1232,-4.2567 1.4508,-5.8117 5.2375,-2.279 7.7122,-0.9703 6.7939,3.5942 -0.6435,3.2021 -0.3089,3.8653 2.4549,4.8604 3.7563,1.3523 3.967,2.6496 1.2186,7.4949 -2.2713,4.006 -4.4942,8.5629 -0.1373,9.5186 3.015,0.6612 5.4222,-3.8283 5.5628,-10.9389 0.1125,-5.7046 0.061,-8.8178 -2.0174,-8.8493 -2.2936,-0.035 -3.9576,-1.5924 -3.4717,-5.2254 0.839,-6.2741 -9.2569,-5.6387 -12.9246,-2.2664 -2.0133,1.8878 -2.3549,1.7149 -5.1426,-2.6022 -1.6424,-2.5434 -3.3188,-5.7291 -3.7247,-7.0784 -0.647,-2.1534 -2.467,-2.6014 -14.887,-3.6633 -7.7822,-0.6653 -17.2026,-1.2135 -20.9331,-1.2186 -6.7837,-0.01 -6.7839,-0.01 -12.5277,-10.96 -9.2758,-17.6861 -6.1052,-16.1113 -33.7482,-16.7647 -7.3413,-0.1736 -12.9754,-0.2846 -17.3128,-0.2717 -1.6252,0.01 -3.0688,0.027 -4.3511,0.07 z m -2.744,5.7133 c 4.2839,-0.076 5.1098,2.7936 1.4004,4.8645 -3.604,2.0115 -4.9912,1.3149 -5.0595,-2.539 -0.03,-1.6896 0.8942,-2.2766 3.6591,-2.3255 z m 44.2884,0.4421 c 1.0612,-0.087 2.5769,0.6027 3.0617,1.8022 0.4255,1.0532 0.056,1.8488 -0.8631,1.8651 -1.8319,0.032 -3.2696,-1.1075 -3.2963,-2.6137 -0.012,-0.6695 0.4611,-1.0014 1.0977,-1.0536 z m -31.9381,0.5726 c 2.2487,-0.04 3.5366,0.4489 3.1039,1.1782 -0.4071,0.6854 -1.7842,1.2648 -3.0601,1.2874 -1.2762,0.023 -2.6731,-0.5077 -3.1039,-1.1782 -0.4586,-0.7135 0.8112,-1.2476 3.0601,-1.2874 z m 11.6647,-0.2066 c 3.1027,-0.055 4.4148,0.4158 4.0884,1.4688 -0.7204,2.3226 -5.1962,2.6359 -7.0395,0.4927 -1.4112,-1.6402 -1.0344,-1.8909 2.9511,-1.9615 z m 11.4739,1.0491 c 2.2032,-0.049 4.0164,0.4646 4.0284,1.1427 0.027,1.5661 -3.7134,1.6323 -6.1636,0.1092 -1.4201,-0.8822 -0.9046,-1.1831 2.1352,-1.2519 z m -28.8749,3.3959 c 0.5491,0.04 1.163,0.2652 1.9338,0.6604 1.4655,0.7511 2.3123,2.0847 1.9524,3.0737 -0.9611,2.6463 -3.6127,3.2506 -6.188,1.41 -2.1361,-1.5259 -2.1602,-1.8038 -0.3297,-3.7299 0.9812,-1.0328 1.7164,-1.4807 2.6315,-1.4142 z m 11.2695,0.246 c 0.7705,-0.079 1.7638,0.1616 3.2503,0.6928 2.0273,0.7248 3.5103,1.8905 3.2943,2.5911 -0.5247,1.7048 -5.9061,2.2997 -8.145,0.9004 -1.4285,-0.8922 -1.4916,-1.4927 -0.3136,-2.9643 0.5954,-0.7439 1.1435,-1.1413 1.914,-1.22 z m 12.9634,0.6046 c 1.7346,-0.1525 3.9085,1.001 3.4765,2.3815 -0.6111,1.95 -4.1203,2.5074 -5.2008,0.826 -0.4926,-0.7663 -0.3803,-1.9273 0.2489,-2.5798 0.3679,-0.381 0.8972,-0.5769 1.4754,-0.6277 z m -34.5193,1.6538 c 0.2495,0.01 0.4992,0.057 0.7432,0.1455 1.7288,0.6286 1.8486,1.1216 0.637,2.635 -1.5477,1.933 -4.893,2.6148 -4.8846,0.9966 0.01,-2.0868 1.7583,-3.8455 3.5044,-3.7771 z m 45.6594,-0.7482 c 0.4,0.024 0.8188,0.095 1.2459,0.2224 2.1379,0.6371 2.3871,1.1489 1.2524,2.5673 -1.658,2.0704 -2.3159,2.1565 -4.8255,0.6307 -2.3734,-1.442 -0.4733,-3.5884 2.3272,-3.4204 z m 7.3374,0.7503 c 0.5983,-0.011 1.3989,1.0848 1.7778,2.4349 0.6764,2.4121 -0.327,3.2671 -1.9721,1.6795 -1.2177,-1.1748 -1.08,-4.0919 0.1943,-4.1144 z m -35.5689,4.8086 c 2.0343,0.091 3.751,1.0552 3.7779,2.5768 0.017,0.9475 -1.0324,2.3158 -2.3319,3.0411 -3.0703,1.7138 -3.0106,1.7246 -5.5587,-0.9932 -2.0844,-2.2229 -2.0663,-2.3961 0.4046,-3.7755 1.1525,-0.6432 2.4876,-0.9035 3.7081,-0.8492 z m -12.2536,0.3302 c 2.3494,-0.011 3.9796,1.8206 2.3583,3.846 -1.7666,2.207 -4.0751,2.2179 -5.9594,0.028 -1.1964,-1.3918 -0.9767,-2.0262 1.1059,-3.1884 0.8494,-0.474 1.712,-0.682 2.4952,-0.6856 z m 25.4614,-0.3755 c 2.1847,-0.2012 3.3623,1.1631 2.5049,3.5214 -0.8658,2.383 -4.907,2.6187 -6.8183,0.3977 -1.0919,-1.2693 -0.6849,-1.9744 1.8307,-3.1748 0.9143,-0.4362 1.7544,-0.6772 2.4827,-0.7443 z m 9.1923,0.1365 c 0.7454,-0.089 1.7759,0.215 2.9877,0.9787 1.6735,1.0544 2.7454,2.4168 2.3826,3.0273 -1.0537,1.7751 -5.4544,1.3643 -6.241,-0.582 -0.8216,-2.0324 -0.3713,-3.275 0.8707,-3.424 z m 10.6318,1.1203 c 2.7439,0.1169 7.9158,2.5089 7.1546,3.791 -0.3978,0.6707 -2.0105,1.2419 -3.5835,1.2698 -3.2759,0.058 -6.6556,-3.1548 -4.9805,-4.7366 0.2719,-0.2569 0.7762,-0.3512 1.4094,-0.3242 z m -54.8957,1.4002 c 0.8129,-0.083 0.9648,1.2052 -0.1395,3.3594 -0.7324,1.4279 -1.867,2.6054 -2.5208,2.617 -1.657,0.029 -1.4492,-1.4118 0.6114,-4.2376 0.8354,-1.1459 1.5611,-1.689 2.0489,-1.7388 z m 41.2521,3.1556 c 0.148,0.022 0.3113,0.082 0.4829,0.1842 0.6849,0.407 1.2501,0.9849 1.2554,1.2838 0.01,0.2992 -0.5451,0.5539 -1.2227,0.5659 -0.6789,0.012 -1.2442,-0.5656 -1.257,-1.2838 -0.01,-0.5386 0.2977,-0.8166 0.7414,-0.7501 z m -88.5491,8.1425 c 0.3188,0 0.668,0.026 1.0457,0.091 1.7296,0.2992 2.9474,1.1717 2.7075,1.9393 -0.5226,1.6671 -3.6789,2.5089 -4.9194,1.3121 -1.7824,-1.7211 -1.0648,-3.3194 1.1662,-3.3424 z m 120.2694,-1.6964 v 5e-4 c 0.197,-0.01 0.3938,-0.01 0.5873,0.01 0.9289,0.078 1.7849,0.4631 2.255,1.1948 0.4509,0.7 0.1627,2.0923 -0.6399,3.0943 -2.7664,3.456 -6.8768,1.701 -5.4182,-2.313 0.441,-1.2124 1.8366,-1.9164 3.2158,-1.9859 z m -83.8355,1.8321 c 0.8298,0.042 0.9521,0.5592 0.7529,1.7171 -0.4356,2.5238 -5.2111,3.761 -6.5391,1.6942 -1.0909,-1.6966 -0.8686,-1.8904 3.4447,-3.0075 1.0907,-0.2826 1.8436,-0.4288 2.3415,-0.4038 z m -24.8296,1.2941 c 2.49,-0.044 3.6358,0.4671 3.3207,1.4824 -0.5453,1.7584 -4.8492,2.7988 -6.197,1.498 -1.864,-1.7992 -0.7864,-2.9155 2.8763,-2.9804 z m 11.4585,-0.203 c 2.0515,-0.036 3.2453,0.6181 3.2661,1.792 0.018,1.0171 -0.7317,1.8627 -1.6656,1.8793 -0.9342,0.017 -2.4043,-0.7898 -3.2666,-1.792 -1.3251,-1.541 -1.0683,-1.8308 1.6661,-1.8793 z m 105.4618,-1.8678 c 3.8883,-0.069 6.176,1.2163 5.4959,3.0875 -0.7812,2.1484 -4.271,2.3578 -6.3194,0.3796 -2.1892,-2.1119 -1.8774,-3.4192 0.8235,-3.4671 z m 9.924,1.0575 c 2.0998,-0.037 5.0199,1.4168 5.0392,2.5089 0.033,1.861 -4.6004,1.2996 -5.3897,-0.6529 -0.4084,-1.0102 -0.2507,-1.8454 0.3505,-1.856 z m -142.5403,3.3809 c 0.4,-0.1402 0.8266,0.3232 1.5614,1.2918 1.1194,1.4759 1.2221,2.5732 0.3427,3.6724 -1.1857,1.4804 -4.6403,2.2724 -4.6617,1.0687 -0.01,-0.3072 0.6044,-1.9727 1.3553,-3.7019 0.6289,-1.4467 1.0023,-2.1908 1.4023,-2.331 z m 22.1096,0.1444 v 0 c 0.2147,-0.029 0.5554,0.198 1.0508,0.6765 0.9894,0.9569 0.9964,2.0488 0.024,3.9457 -1.4142,2.7594 -3.2822,3.284 -5.9338,1.666 -1.1567,-0.7054 -0.7448,-1.3776 1.4978,-2.448 1.7003,-0.8116 3.0794,-2.1534 3.0648,-2.9817 -0.01,-0.5444 0.079,-0.8293 0.2939,-0.8585 z m 130.8907,-2.0008 v 5e-4 c 2.4832,0.1007 6.9168,1.2146 6.9309,2.0066 0.027,1.5546 -7.0635,1.4848 -8.0689,-0.079 -0.4587,-0.7155 -0.6453,-1.4785 -0.4115,-1.6962 0.113,-0.1052 0.3301,-0.1727 0.6232,-0.208 0.2566,-0.031 0.5717,-0.038 0.9263,-0.023 z m -68.4954,1.4586 c -14.459,0.256 -17.4515,15.5456 -4.0824,21.1663 5.4942,2.3097 10.1937,0.042 12.7415,-2.5551 4.686,-4.7756 4.6466,-10.6278 0.2507,-15.1439 -2.3788,-2.4431 -4.2163,-3.5505 -8.9098,-3.4673 z m -74.4104,1.5959 c 1.109,0.079 1.8468,1.5463 1.917,4.2073 0.035,1.3198 -0.8715,2.1738 -2.3354,2.1997 -3.5036,0.062 -4.3679,-2.1975 -1.9146,-5.0064 0.8685,-0.995 1.6676,-1.4478 2.333,-1.4006 z m 51.2478,0.179 c -0.633,-0.01 -1.3551,0.016 -2.1845,0.066 -7.6664,0.4766 -7.5027,1.0278 -6.5693,10.0269 0.6037,7.6972 0.6036,7.697 7.9296,7.5673 8.7149,-0.1544 9.263,-0.9695 6.824,-10.1503 -1.5305,-5.7652 -1.5691,-7.4488 -5.9998,-7.5099 z m -28.4505,1.3226 c 1.6793,-0.1378 2.9782,1.5478 2.1752,3.7556 -0.8703,2.3958 -2.4916,2.516 -4.3766,0.3241 -1.0891,-1.2656 -0.9798,-2.0482 0.4587,-3.286 0.5805,-0.4993 1.1828,-0.7478 1.7427,-0.7937 z m 95.8714,-1.6498 c 0.8082,0.019 1.7946,0.3978 2.7822,1.2604 1.3783,1.2033 2.2174,2.6736 1.8643,3.2675 -1.0022,1.6882 -3.733,1.323 -5.5045,-0.7362 -1.8349,-2.1327 -0.92,-3.8337 0.858,-3.7917 z m -46.0047,1.5611 c 7.2304,-0.4662 11.762,6.3453 7.6862,11.0132 -2.8229,3.2328 -9.1452,3.2958 -12.6698,0.1262 -1.5064,-1.3562 -1.891,-4.2266 -1.5272,-5.6614 0.4695,-1.8458 2.6367,-5.2285 6.5108,-5.478 z m 38.9386,-0.4421 v 5e-4 c 0.1089,0 0.2244,0.015 0.3473,0.054 0.8521,0.2675 1.5678,1.503 1.5898,2.7463 0.022,1.2432 -0.6495,2.5038 -1.4917,2.8013 -0.9708,0.3426 -1.5535,-0.6646 -1.5903,-2.7467 -0.033,-1.8219 0.3825,-2.8365 1.1449,-2.8552 z m 20.0736,-0.1193 c 1.3231,0.047 2.1772,0.9164 2.2051,2.4888 0.041,2.3001 -4.509,3.3105 -6.1758,1.372 -1.0568,-1.2276 -0.7801,-1.9506 1.1598,-3.0332 1.0545,-0.5887 2.0171,-0.856 2.8109,-0.8276 z m -35.9452,1.3343 c -2.4721,0.1411 -5.0397,0.8835 -5.4822,2.0999 -1.2291,3.3806 -0.5997,12.2971 0.9756,13.8176 2.0722,1.9994 7.8614,1.7205 9.9867,-0.4813 1.3353,-1.3836 1.4853,-3.0725 0.6325,-7.1023 -0.6159,-2.9079 -1.1581,-5.9803 -1.2011,-6.8274 -0.062,-1.1876 -2.4392,-1.6476 -4.9115,-1.5065 z m -65.4442,1.2103 c 0.6787,-0.012 1.2431,0.5328 1.2552,1.211 0.012,0.6781 -0.5328,1.2431 -1.2115,1.2551 -0.6777,0.012 -1.2421,-0.5333 -1.2542,-1.2115 -0.012,-0.6781 0.5328,-1.2426 1.2105,-1.2546 z m 16.636,-0.2155 c 0.6429,-0.016 1.4997,0.027 2.6207,0.099 4.5103,0.2895 4.8195,0.5648 5.1938,4.6175 0.2195,2.3703 -0.018,4.925 -0.5155,5.6774 -0.5028,0.7524 -2.4337,1.768 -4.2907,2.2576 -3.1606,0.833 -3.3763,0.6326 -3.4631,-3.1406 -0.049,-2.2164 -0.4558,-5.31 -0.9044,-6.8745 -0.5721,-1.9948 -0.5694,-2.5865 1.3592,-2.6362 z m 93.3352,-1.2194 c 2.2897,0.053 4.7556,1.1443 4.3871,2.3416 -0.6684,2.166 -6.5813,2.5256 -7.4201,0.4514 -0.4006,-0.991 0.01,-2.1003 0.9135,-2.465 0.6126,-0.2476 1.3562,-0.3456 2.1195,-0.328 z m 12.3886,0.5755 c 0.6259,-0.011 0.9602,0.3697 0.9738,1.142 0.013,0.6779 -1.2269,1.2458 -2.7531,1.2628 -2.2429,0.024 -2.4246,-0.2044 -0.9458,-1.1973 1.1814,-0.7935 2.0992,-1.1964 2.7251,-1.2075 z m -79.2162,1.9064 c -0.363,-0.056 -0.7428,0.1956 -1.0436,0.9312 -0.5598,1.3664 0.084,4.7522 0.052,5.6006 -0.076,1.9955 2.4432,1.8654 5.1498,-0.2664 2.8519,-2.2452 2.669,-3.7021 -0.3581,-2.8528 -1.7077,0.4789 -2.4969,0.068 -2.5771,-1.3519 -0.06,-1.0083 -0.6178,-1.9649 -1.2232,-2.0607 z m -79.3284,1.6065 c 0.6535,0.034 1.0053,0.3871 1.2814,1.0699 0.3773,0.9337 0.3376,2.2854 -0.089,3.0039 -1.0794,1.8174 -4.9859,1.7046 -6.6158,-0.1908 -1.0389,-1.2076 -0.4929,-1.92 2.3313,-3.0437 1.4829,-0.59 2.4383,-0.8738 3.092,-0.8393 z m 101.5718,-1.3441 c 2.101,-0.037 2.4808,0.7777 2.5645,5.504 0.084,4.7259 -0.267,5.5546 -2.3679,5.5918 -2.1009,0.037 -2.4802,-0.7785 -2.5639,-5.5045 -0.084,-4.7262 0.2665,-5.5541 2.3673,-5.5913 z m -78.8901,2.0174 c 0.5834,0.065 1.2339,0.5849 2.2807,1.5955 1.6967,1.6376 2.0692,2.8891 1.2929,4.3372 -1.2901,2.4047 -3.5831,2.6616 -5.6807,0.6371 -1.979,-1.9101 -1.924,-3.2082 0.2292,-5.4392 0.7784,-0.8067 1.2946,-1.1958 1.8779,-1.1306 z m -11.9034,0.7044 c 0.7851,-0.062 1.5965,0.091 2.3311,0.5299 1.2488,0.7464 2.13,2.1921 1.9574,3.2126 -0.4487,2.6456 -6.8628,3.2805 -7.8739,0.7794 -0.8904,-2.2032 1.23,-4.3345 3.5854,-4.5219 z m 23.0082,1.3565 c 1.7382,-0.1424 3.7513,1.3438 3.7868,3.3529 0.027,1.5241 -0.8279,2.3493 -2.4636,2.3783 -2.8172,0.05 -4.6693,-3.1578 -2.8863,-5.0052 0.4349,-0.4504 0.9837,-0.6785 1.5631,-0.726 z m 89.23,-1.5622 c 1.2004,0.1203 2.0548,1.3037 2.0902,3.3059 0.05,2.7976 -1.0928,3.033 -4.1763,0.8612 -1.9932,-1.4043 -2.0297,-1.7352 -0.3459,-3.1834 0.8668,-0.7456 1.7117,-1.0559 2.432,-0.9837 z m -133.3832,2.4931 c 0.6556,-0.1065 1.6139,0.6392 2.2792,1.8311 0.7604,1.3622 1.2233,2.415 1.0286,2.3397 -0.1948,-0.075 -1.3296,-0.3728 -2.5216,-0.6619 -2.3669,-0.5738 -2.8762,-2.2341 -1.047,-3.4097 0.08,-0.051 0.1672,-0.084 0.2608,-0.099 z m 163.2612,-2.7116 c 1.8994,-2e-4 4.6921,2.4107 3.7843,3.9385 -0.4688,0.7896 -1.6694,1.4498 -2.6678,1.4675 -2.2415,0.04 -3.7753,-3.382 -2.232,-4.9806 0.2868,-0.2971 0.6771,-0.4255 1.1155,-0.4254 z m -21.7599,0.4897 c 1.1099,-0.025 2.2544,0.1558 3.0723,0.5948 1.6642,0.893 1.8109,1.5116 0.6925,2.91 -0.7818,0.9763 -2.0743,1.7868 -2.8732,1.8009 -1.5766,0.028 -4.4538,-2.3641 -4.4778,-3.7231 -0.017,-0.9313 1.7366,-1.5417 3.5862,-1.5826 z m 10.2793,-0.1629 c 1.9282,-0.014 5.8562,2.1426 5.8912,3.6567 0.054,2.2512 -5.7245,1.9885 -6.651,-0.3018 -0.4325,-1.0712 -0.5157,-2.405 -0.1832,-2.964 0.1596,-0.2691 0.4981,-0.3876 0.943,-0.3909 z m -222.331,4.3072 c -1.5319,0.028 -3.445,1.7788 -5.0587,4.6285 -2.5965,4.5848 -2.5968,4.5847 -4.2667,0.6922 -1.8198,-4.245 -5.2661,-5.0916 -7.8062,-1.9188 -1.1149,1.3929 -1.9454,1.5465 -3.1492,0.583 -0.8987,-0.7197 -3.1905,-1.1022 -5.0924,-0.85 -3.1183,0.4137 -3.4375,0.9029 -3.2472,4.9738 0.2084,4.4486 0.1508,4.5063 -3.9165,3.9198 -5.17,-0.7451 -7.1571,2.7058 -3.3155,5.7564 2.1305,1.6919 2.3896,3.2128 2.1555,12.6452 -0.3333,13.4257 1.9671,20.4912 9.248,28.3992 4.0985,4.452 6.7632,6.1504 11.525,7.3454 l -0.01,2e-4 c 12.9246,3.2435 20.6496,1.4278 27.2937,-6.4152 2.1208,-2.5037 4.4002,-6.7246 5.0654,-9.3795 0.6643,-2.6549 1.1466,-5.6681 1.4752,-5.6799 3.8312,-0.1377 5.2427,-5.1751 -0.1126,-5.6802 -0.5245,-4.9755 -2.0765,-11.6745 -5.7353,-15.9599 3.0788,-1.2049 2.7826,-7.1479 0.2008,-8.4716 -1.5744,-0.807 -2.1719,-2.0624 -1.7703,-3.7183 0.9575,-3.9452 -1.9646,-6.3896 -6.4056,-5.3569 -2.0882,0.4855 -3.4067,0.461 -2.931,-0.055 1.4544,-1.5769 -1.5275,-5.5026 -4.1446,-5.4583 z m 197.8775,-1.0382 c 0.2665,0 0.8182,0.8179 1.2274,1.8281 0.4081,1.0102 0.2048,1.8461 -0.4514,1.8578 -0.6577,0.012 -1.2098,-0.811 -1.2279,-1.8281 -0.018,-1.0171 0.1856,-1.8531 0.4519,-1.8578 z m 44.3837,-0.7861 c 0.9451,-0.017 2.0518,0.7961 2.46,1.8063 0.5049,1.2493 -0.034,1.8503 -1.6841,1.8796 -1.336,0.024 -2.4416,-0.7886 -2.4596,-1.8062 -0.018,-1.0172 0.7396,-1.8629 1.6837,-1.8797 z m -313.8134,14.4885 c -11.3074,0.3379 -20.8615,6.6453 -25.2591,17.7136 -0.9501,2.391 -3.5038,6.3873 -5.6739,8.8807 -4.0585,4.6631 -8.9655,16.4697 -8.8787,21.3644 0.061,3.4611 3.4046,8.1844 5.7644,8.1427 0.978,-0.017 1.7924,0.7365 1.809,1.6756 0.038,2.1549 5.4713,5.6202 11.3595,7.2455 7.3587,2.0315 29.419,1.0918 33.7586,-1.4378 5.3529,-3.1205 8.5207,-6.0051 12.7659,-11.6241 2.1708,-2.8729 3.3542,-6.2429 4.3874,-6.0488 6.1856,1.1627 4.7322,-3.542 0.6795,-4.7349 0.7128,-5.0558 1.4099,-14.2265 1.443,-16.2008 -1.0497,-9.6253 -10.9835,-20.3435 -20.3895,-23.2794 -4.0327,-1.2587 -7.9968,-1.8093 -11.7661,-1.6967 z m 155.6432,0.283 c -3.6987,0.01 -8.5921,0.4032 -9.5033,0.9891 -1.9352,1.2438 -2.5847,11.7963 -0.5673,14.3396 0.8663,1.094 4.3785,1.2448 6.7558,1.4655 2.3783,0.2206 5.4635,-0.2742 6.1498,-0.2764 1.5601,-0.013 2.3139,-14.8684 1.4148,-16.0638 -0.2412,-0.3209 -2.0304,-0.4577 -4.2498,-0.454 z m 21.2744,0.01 c -6.1796,0.1351 -7.1004,1.0441 -7.8785,7.7749 -0.7476,6.4678 -1.4915,7.8099 5.3941,9.033 2.4051,0.427 6.2815,0.1521 7.0577,0.2161 2.4335,0.2013 2.9782,-3.7905 1.4428,-10.58 -1.4653,-6.4795 -1.5253,-6.5409 -6.0161,-6.444 z m -176.3749,5.2526 c 6.9127,-0.1224 8.7422,0.274 10.2139,2.2132 2.0346,2.6814 2.6266,12.9754 0.7477,13.0086 -0.6779,0.012 -1.261,-1.5975 -1.296,-3.5763 -0.1247,-7.0415 -1.9641,-8.4432 -2.5013,-1.9063 -0.4297,5.2384 -0.927,6.2429 -3.2743,6.6188 -3.1074,0.4975 -3.5453,-1.2878 -1.6243,-6.623 2.1139,-5.8701 0.315,-4.5765 -3.5398,2.5456 -4.4989,8.3121 -9.9457,24.9078 -9.9434,35.7077 0,8.0397 -0.9216,8.3557 -5.057,8.4139 -4.3362,0.061 -4.3359,0.077 -4.1144,-11.5402 0.1644,-8.5895 -0.1392,-11.3062 -1.1615,-10.4248 -1.7082,1.4717 -3.9548,10.7739 -3.8623,15.9929 0.045,2.5464 -0.4623,3.7075 -1.4817,3.3919 -2.2702,-0.7032 -2.7481,-10.7911 -0.7948,-16.803 1.4311,-4.4068 1.4285,-4.9739 -0.019,-3.7287 -0.9394,0.8076 -2.6091,4.603 -3.7126,8.434 -1.9708,6.8509 -2.0124,6.8948 -2.5082,2.6581 -0.8,-6.8299 1.6555,-13.3379 9.9278,-26.3137 9.9464,-15.6024 12.9629,-17.8732 24.0012,-18.0687 z m 151.5395,-2.3655 c 3.4751,-0.062 3.704,0.2248 3.7837,4.7226 0.07,3.9228 -0.4143,4.9309 -2.6761,5.5803 -4.4488,1.2771 -4.6048,1.1217 -4.7078,-4.6892 -0.095,-5.3425 0.039,-5.5506 3.6002,-5.6137 z m 23.615,-0.4182 c 3.2539,-0.058 3.5155,0.2858 3.5941,4.7259 0.07,3.9228 -0.414,4.9309 -2.676,5.5803 -4.5905,1.3102 -3.819,0.633 -4.2092,-4.6985 -0.2078,-5.3013 -0.062,-5.5483 3.2911,-5.6077 z m 108.8656,-1.7891 c -0.4089,-0.012 -0.8737,-10e-5 -1.4032,0.028 -0.6052,0.032 -1.295,0.084 -2.0835,0.1439 -6.3089,0.4791 -6.3091,0.4792 -5.9957,6.4308 0.2189,4.1489 0.5219,7.2144 2.1168,8.3791 2.4318,1.7763 10.2913,1.4867 11.1606,-0.081 0.2871,-0.5136 0.1849,-4.1454 -0.2259,-8.0706 -0.7173,-3.5856 -0.9911,-6.7049 -3.5691,-6.8304 z m 19.4436,0.018 c -5.5619,0.099 -8.727,-0.1199 -8.3631,7.6541 -0.1602,4.3835 -0.096,6.7131 2.4132,7.6948 1.5694,0.6138 5.0709,0.9599 7.7803,0.7692 4.5267,-0.3188 4.9696,-1.6302 5.247,-5.0976 0.1659,-2.0761 -0.2934,-5.2591 -1.0199,-7.0736 -1.1228,-2.8039 -1.9678,-4.0193 -6.0575,-3.9469 z m -91.6433,2.8181 c -6.7231,0.056 -7.657,0.612 -9.3693,2.5615 -1.3202,1.5037 -3.0583,4.0647 -3.863,5.6912 -1.692,3.4228 -0.1286,5.0361 4.8257,4.9807 2.9127,-0.033 2.9125,-0.033 2.5562,15.841 -0.3559,15.8737 -0.3559,15.8735 -4.687,21.7595 -4.1538,5.6476 -5.0126,8.529 -3.5924,12.058 0.9551,2.3752 16.6598,1.2189 16.6166,-1.2236 -0.021,-1.2452 -1.6178,-1.7162 -5.5791,-1.646 -3.0513,0.054 -5.5574,-0.4564 -5.5694,-1.1346 -0.012,-0.6781 2.1974,-1.2721 4.9093,-1.3201 2.7128,-0.048 4.922,-0.642 4.91,-1.3202 -0.012,-0.6781 -1.6687,-1.2036 -3.6816,-1.168 -2.7472,0.049 -3.4914,-0.4001 -2.9834,-1.7974 0.381,-1.0491 2.2024,-1.8888 4.1709,-1.9237 4.4422,-0.079 5.8897,-2.2735 1.7964,-2.7225 -1.9917,-0.2185 -2.7682,-0.8534 -2.1985,-1.7984 1.0144,-1.6847 12.4558,-2.2953 26.1994,-1.398 9.3223,0.6085 9.3225,0.6087 13.9288,-4.1628 4.605,-4.7715 4.6051,-4.7718 3.5623,-16.0114 -1.0433,-11.2396 -1.0437,-11.2393 2.946,-12.4601 5.2487,-1.6063 5.474,-2.937 1.3042,-7.6926 -3.8876,-4.4346 -4.4891,-4.5156 -37.3058,-5.0344 -3.7706,-0.06 -6.6551,-0.097 -8.8963,-0.078 z m 67.1731,0.5201 c 1.5494,-0.8144 4.1934,0.061 4.2244,0.6993 0.073,1.48 0.8982,6.3236 -0.4804,7.3054 -2.2106,1.3022 -4.0227,-0.8473 -4.0937,-4.8561 -0.046,-2.5912 -0.3369,-2.7877 0.3497,-3.1486 z m -223.9715,3.6199 c 0.4898,-0.086 1.0715,0.5349 2.2358,1.7766 2.7549,2.9378 5.987,3.1444 8.0889,0.5172 1.3465,-1.6816 1.6763,-1.6757 2.9878,0.053 0.9301,1.2257 2.8152,1.7669 5.1045,1.4653 4.0789,-0.5376 7.3361,1.5562 10.0167,6.4382 2.5234,4.5933 2.2346,8.6809 2.0066,8.7591 -5.5659,0.5302 -4.9816,2.8203 -4.9688,3.538 0.012,0.7177 1.6019,2.073 4.9992,2.231 0.1988,0.01 -0.846,9.2223 -7.6095,13.5697 -8.1097,5.2126 -24.0641,2.7201 -30.122,-4.7063 -6.862,-8.4131 -8.9468,-37.6759 -2.118,-29.7385 2.3712,2.7563 5.9252,2.0913 7.6966,-1.4408 0.7948,-1.5846 1.1924,-2.3768 1.6822,-2.4626 z m 247.6126,-3.7446 c 2.774,-0.049 3.0908,0.4385 3.1694,4.8767 0.079,4.4384 -0.2207,4.9372 -2.9947,4.9863 -2.774,0.049 -3.0913,-0.4387 -3.1698,-4.8772 -0.079,-4.4382 0.2211,-4.9366 2.9951,-4.9858 z m -288.0694,5.5118 c 0.038,-0.013 0.085,-0.012 0.1411,5e-4 0.2691,0.062 0.7503,0.4132 1.4949,1.0021 2.7561,2.1814 6.2805,8.6115 4.7343,8.6389 -0.6399,0.011 -2.036,0.3726 -3.1013,0.8034 -1.4261,0.5763 -1.9569,0.017 -2.0048,-2.1229 -0.038,-1.5979 -0.4587,-4.2858 -0.9363,-5.9731 -0.4329,-1.5303 -0.5948,-2.2595 -0.3279,-2.349 z m 196.8842,-2.3499 c 3.3897,-0.086 8.6409,0.015 17.0238,0.1797 18.3566,0.36 22.7102,0.7906 23.9674,2.3711 0.8449,1.0626 1.5608,2.2093 1.5868,2.5479 0.027,0.3388 -9.7978,0.7901 -21.8344,1.0033 -12.0354,0.2131 -23.7065,0.1425 -25.9355,-0.1573 -3.9432,-0.5302 -4.0008,-0.6214 -2.1338,-3.3749 1.1953,-1.7626 1.6757,-2.4265 7.3257,-2.5698 z m 136.5542,2.3055 v 5e-4 c -0.3678,0.082 -0.6449,0.8179 -1.1618,2.2807 -0.6918,1.9554 -1.3831,2.5059 -1.9806,1.5769 -1.3038,-2.0287 -3.2439,-1.7317 -3.2045,0.4909 0.028,1.6187 -0.4195,1.5926 -3.2481,-0.1906 -3.2701,-2.0604 -3.2781,-2.057 -2.2808,0.9371 0.5501,1.6528 1.2733,3.6939 1.6071,4.5358 0.3885,0.981 -0.5512,1.5516 -2.6176,1.5882 -2.9265,0.052 -3.0775,0.2852 -1.63,2.5236 0.8777,1.3569 3.3379,3.0636 5.4662,3.7925 3.2471,1.112 4.3426,2.5881 6.7917,9.1524 2.8538,7.6511 2.9854,10.7433 0.3191,7.5424 -8.6104,-10.3383 -8.2142,-10.1072 -17.2724,-9.9468 -10.4467,0.188 -14.2388,2.4532 -17.8716,10.6726 -1.4345,3.2452 -1.7151,5.5448 -2.0968,5.633 -4.6353,1.0708 -5.0253,5.5351 0.2365,5.0924 0.1515,5.5072 2.738,8.3321 4.4189,11.0587 3.5674,3.443 7.1685,4.0523 11.7336,3.9714 6.1349,-0.1086 14.1729,-5.9635 15.4362,-10.203 0.9036,-3.0274 2.0566,-3.0469 4.8425,-0.076 1.73,1.8444 1.9725,3.1116 1.1179,5.834 -1.1468,3.6568 -4.3245,4.893 -15.851,6.165 -9.5376,1.0527 -12.6557,4.6787 -12.4816,14.516 0.076,4.2702 -0.4797,5.223 -4.7673,8.171 -2.6701,1.8356 -4.5446,3.8192 -4.1658,4.4081 1.0824,1.684 5.8984,1.1624 8.8087,-0.9541 2.5635,-1.864 2.7018,-1.7544 4.1791,3.3176 2.4524,8.4221 1.033,22.2305 -3.3984,33.0809 -2.3592,5.7757 -7.0874,13.5047 -4.2313,17.8989 -0.053,3.3922 -0.3399,7.0944 -1.041,11.1766 -0.7001,4.0823 -1.5484,9.5502 -1.8862,12.1513 -0.6054,4.6751 -0.647,4.7077 -3.6126,2.8389 -3.777,-2.3803 -5.5619,-2.371 -5.5195,0.028 0.055,3.0802 6.2881,11.1251 8.4088,11.5427 7.3556,1.4483 6.4784,-4.1645 6.4322,-9.3779 -0.042,-4.5084 2.983,-22.7899 4.0752,-24.6295 0.2935,-0.4944 1.1019,0.385 3.3495,1.5956 2.247,1.2103 5.7919,2.5436 7.877,2.9631 3.5069,0.7052 3.9116,1.3333 5.4032,8.3764 0.8863,4.1875 4.7426,11.9865 5.7278,13.4642 1.5773,2.3634 -3.6528,-0.8746 -5.4225,0.1571 -2.7621,1.6105 1.5896,5.1578 6.5626,8.0706 v 0 c 2.2507,1.3181 5.3402,2.379 6.866,2.352 4.0835,-0.065 3.5493,-5.9851 -1.1878,-13.1704 -4.1642,-6.3149 -6.9442,-14.2888 -5.9422,-17.0432 0.3456,-0.9524 1.6172,-1.7539 2.8257,-1.7753 2.8847,-0.057 10.1866,-4.6412 12.8179,-8.0463 2.7645,-3.5783 2.5545,-9.9811 -0.612,-18.6809 -4.2672,-11.7244 -3.472,-17.6792 2.7782,-20.7969 2.4894,-1.2415 4.4351,-3.2902 4.8587,-5.1165 1.3552,-5.8335 -5.7308,-23.8813 -11.858,-30.2017 -2.5976,-2.6804 -2.9176,-3.8869 -2.3323,-8.8025 0.4912,-4.1288 1.1478,-5.5256 2.3842,-5.0757 0.9393,0.3413 1.7344,2.151 1.7676,4.0212 0.033,1.8702 1.1952,4.7913 2.5813,6.4914 1.3868,1.7 2.5474,4.5717 2.5794,6.3818 0.069,3.8895 6.2401,10.3912 9.8035,10.3281 1.325,-0.023 3.0441,-0.8346 3.8185,-1.8032 1.1475,-1.4327 0.589,-2.0153 -2.9967,-3.1286 -2.4237,-0.7525 -5.0482,-2.5185 -5.8329,-3.9245 -1.4124,-2.5313 -1.393,-2.5309 2.0272,0.063 1.8992,1.4405 4.4552,2.601 5.6803,2.5793 3.2835,-0.058 4.2603,-2.666 1.5471,-4.1338 -2.2086,-1.195 -2.1702,-1.3208 0.6244,-2.0412 6.5577,-1.6896 3.031,-4.9591 -5.2363,-4.8534 -2.9226,0.037 -3.3985,-0.4544 -3.4537,-3.5671 -0.035,-1.986 -0.816,-4.3362 -1.7345,-5.223 -0.9194,-0.8868 -2.1156,-3.2607 -2.6591,-5.2754 -1.3116,-4.8576 -3.0573,-6.7238 -6.237,-6.6675 -2.3376,0.041 -2.6391,-0.656 -2.7693,-6.4254 -0.1026,-4.4893 -1.2169,-8.5756 -3.6398,-13.3379 -3.2689,-6.426 -3.3781,-7.0949 -1.7024,-10.4525 2.2588,-4.5243 2.2161,-9.2155 -0.1123,-12.2591 -0.8798,-1.15 -1.3383,-1.7207 -1.7061,-1.6382 z m -133.2514,7.1884 c 3.6256,-0.064 3.6256,-0.064 3.8767,14.114 0.2511,14.1784 0.2512,14.1784 -3.2618,14.2406 -3.5129,0.062 -3.5133,0.062 -4.4906,-13.0804 -0.5385,-7.2283 -0.7022,-13.6078 -0.3642,-14.1763 0.3376,-0.5685 2.2452,-1.0626 4.2399,-1.0979 z m 11.1381,0.4425 c 0.8774,-0.017 1.9592,0.071 3.2908,0.178 3.9062,0.3146 7.1826,0.6324 7.282,0.7067 0.1,0.074 0.5206,6.1041 0.9355,13.3997 0.7558,13.2647 0.756,13.2649 -6.5017,13.0864 -3.991,-0.098 -7.5026,-0.415 -7.8029,-0.7042 -0.2992,-0.2893 -0.6505,-6.4963 -0.7797,-13.7932 -0.1909,-10.7796 -0.2264,-12.8012 3.576,-12.8734 z m 18.3599,0.2682 c 5.058,-0.09 5.0581,-0.089 4.8416,13.1724 -0.214,13.1376 -0.2453,13.2652 -3.3362,13.6909 -3.0913,0.4258 -3.1287,0.326 -4.1714,-11.0254 -0.5789,-6.3004 -1.3535,-12.4214 -1.7221,-13.6018 -0.5609,-1.7975 0.1531,-2.1611 4.3881,-2.2361 z m -189.1646,5.8172 c -1.0273,0.018 -1.8298,1.1284 -1.8056,2.4983 0.024,1.3698 0.8656,2.4511 1.8929,2.4329 1.0273,-0.018 1.8304,-1.1286 1.8061,-2.4984 -0.024,-1.3699 -0.8661,-2.451 -1.8934,-2.4328 z m 9.214,0.133 c -1.461,0.068 -2.7993,1.8031 -1.8193,3.3281 0.469,0.729 1.3415,1.3169 1.9397,1.3063 1.9039,-0.034 2.7479,-2.6791 1.3005,-4.0766 -0.4329,-0.4177 -0.9338,-0.5804 -1.4209,-0.5578 z m -52.6468,1.5505 c 12.8502,-0.2276 12.8881,-0.2192 13.6415,2.9412 0.9213,3.8659 -1.0928,14.3211 -3.4964,18.1535 -2.4351,3.8817 -8.2791,3.8392 -12.35,-0.09 -1.725,-1.6652 -3.6337,-3.0186 -4.2413,-3.0078 -4.3682,0.077 -1.2398,9.1082 4.065,11.7337 1.9568,0.9684 3.5617,2.0523 3.568,2.4084 -3.1776,2.995 -10.8477,3.9556 -14.5762,2.9029 -4.1689,-1.2516 -4.1689,-1.2514 -3.4884,-9.9868 0.3746,-4.8044 1.4256,-12.3558 2.3362,-16.7809 1.6553,-8.0457 1.6553,-8.0461 14.5416,-8.2744 z m 142.2798,-0.5248 c -1.2961,0.066 -2.7147,0.2839 -3.8535,0.6228 -3.5591,1.0588 -3.6764,1.3352 -3.5514,8.3918 0.1259,7.1096 0.2256,7.3149 3.8422,8.0216 2.0419,0.3989 4.4212,0.7783 5.2872,0.8435 2.1672,0.1624 3.8856,-5.1679 3.77,-11.6938 -0.082,-4.6295 -0.5135,-5.5352 -2.8821,-6.0513 -0.3831,-0.084 -0.8524,-0.1324 -1.3722,-0.1494 -0.3899,-0.013 -0.8082,-0.01 -1.2402,0.015 z m 115.0357,-1.8731 c -2.3476,0.06 -4.3046,1.6062 -3.8117,4.1418 0.8133,4.1849 -2.1261,1.3661 -3.5672,1.3166 -3.5504,-0.122 -3.2864,3.0372 -1.8241,5.3372 0.7425,1.1676 -0.077,3.9375 -1.002,5.7893 -1.1395,1.5763 -1.6832,6.5723 -1.9847,6.5888 -8.2364,1.9007 -5.7757,6.9044 0.3181,5.9422 -0.035,0.21 -0.087,2.5377 1.2905,5.5084 4.4402,9.5746 14.2576,12.8015 23.9796,7.881 10.92,-5.5271 15.2109,-19.6337 8.7738,-28.8423 -1.5868,-2.2713 -3.6162,-6.4414 -4.5082,-9.2674 -1.7402,-5.5156 -5.8864,-5.0214 -8.7969,-2.3162 -1.3345,1.2404 -2.7314,2.9386 -5.6171,-1.1942 -1.0351,-0.6332 -2.1829,-0.9125 -3.2501,-0.8852 z m -92.9593,2.476 c -0.7509,-0.013 -1.5027,0.011 -2.2128,0.075 -5.1133,0.4636 -5.1712,0.5243 -6.0194,6.2338 -0.4699,3.1709 -0.326,7.0882 0.3221,8.7052 0.9866,2.4611 1.996,2.9117 6.2022,2.7726 5.8975,-0.196 7.9833,-2.5499 9.1462,-10.3216 0.6707,-4.4779 0.4242,-5.3407 -1.857,-6.5104 -1.0852,-0.5561 -3.3288,-0.9177 -5.5813,-0.955 z m 128.8838,-1.2206 c -1.4795,-0.034 -4.1963,-0.5115 -6.2851,0.3254 -2.6583,1.0647 -2.3411,2.982 -2.2734,6.2382 0.1528,7.045 -0.1825,11.3886 5.1774,11.4371 6.9461,0.063 7.8939,0.2439 8.5935,-5.7972 0.9347,-8.0629 -0.7746,-12.1008 -5.2124,-12.2035 z m -152.2997,3.8985 c 2.7741,-0.049 3.0908,0.4382 3.1694,4.8767 0.071,4.0001 -0.3491,4.9394 -2.2244,4.9727 -1.6025,0.028 -2.5687,-1.1365 -3.1501,-3.7984 -1.2472,-5.7076 -1.1428,-5.9917 2.2051,-6.051 z m 21.2048,1.1471 c 0.5449,-0.034 1.2336,0.074 2.1085,0.3632 2.8021,0.6509 3.2541,1.4037 3.3275,5.5509 0.082,4.636 -0.057,4.8005 -4.113,4.8723 -4.198,0.074 -4.1977,0.075 -3.6222,-5.1772 0.2905,-2.6103 -0.061,-5.4593 2.2992,-5.6092 z m -153.5448,3.0383 c -1.4809,-0.1123 -2.7811,2.2768 -1.9888,4.2377 0.3658,0.9031 1.4368,1.6279 2.3818,1.6112 2.0408,-0.036 2.2344,-4.4592 0.2469,-5.6395 -0.2133,-0.1267 -0.4284,-0.1934 -0.6399,-0.2094 z m 281.163,-4.3356 c 3.4349,-0.021 4.2773,0.032 4.3504,5.3282 0.066,4.7378 -3.6812,5.5783 -4.6712,3.6649 -1.4175,-2.7351 -1.1941,-8.9837 0.3208,-8.9931 z m -230.0527,5.6792 c -1.8971,0.061 -5.339,0.5669 -8.8258,1.3332 -7.6723,1.686 -8.4827,2.1544 -8.7776,5.0799 -0.2488,2.4614 0.5016,3.6667 3.1733,5.1009 4.0304,2.1631 10.3206,1.5636 14.6712,-1.3984 3.2709,-2.2268 4.0008,-8.9625 1.0857,-10.0223 -0.2336,-0.085 -0.6945,-0.1138 -1.3268,-0.093 z m -10.3121,5.1371 c 4.6933,-0.1076 10.9528,0.079 10.9611,0.5444 0.01,0.5057 -1.3854,1.5885 -3.0988,2.4061 -4.3228,2.0627 -8.6251,1.9401 -10.9586,-0.3125 -1.0851,-1.0466 -1.9699,-2.0024 -1.9721,-2.1234 -0.01,-0.2794 2.2525,-0.45 5.0684,-0.5146 z m 205.4929,-0.1854 h 5e-4 c 0.827,0.032 1.6406,1.3709 2.6881,4.1146 2.0922,5.4809 7.5987,8.3752 14.0615,7.3915 2.5958,-0.3954 4.7247,-0.4208 4.7312,-0.057 -1.897,10.845 -12.3496,14.3521 -18.8688,11.8882 -3.5067,-1.3254 -3.9439,-1.7816 -3.4252,-2.0744 4.9655,-2.8027 6.3527,-7.3293 5.2652,-7.6702 -0.8696,-0.2732 -2.5505,0.411 -3.7342,1.5205 -1.1827,1.1096 -3.5893,1.9987 -4.1856,1.7617 -2.6185,-1.0408 -1.4408,-11.6461 0.7037,-14.4547 1.0312,-1.3506 2.1202,-2.4428 2.7636,-2.4202 z m 54.7145,0.1008 c 0.5234,-0.011 0.8824,0.5935 1.5944,1.803 1.8242,3.0983 9.4953,10.5197 12.7178,12.3041 2.3074,1.2773 2.3519,1.6096 0.6563,4.8938 -1.0006,1.9377 -3.6575,4.8326 -5.9277,6.3986 -2.8754,1.9834 -7.2745,3.7398 -11.861,1.2236 -2.5305,-1.3882 -2.3304,-1.7237 0.3594,-1.0964 4.3033,1.0033 9.2548,-2.2691 8.7161,-6.3012 -0.5394,-4.0423 -2.1633,-1.6622 -10.0573,0.06 -4.0968,0.8939 -4.6134,0.074 -4.6582,-1.896 -0.1315,-6.0677 2.1879,-12.1219 5.878,-15.4978 1.3707,-1.2539 2.0588,-1.8808 2.5822,-1.892 z m 8.1504,1.1245 c 2.5038,-0.1099 7.6385,2.532 8.3523,4.297 0.3744,0.9258 -0.101,1.6846 -1.0665,1.7017 -2.1378,0.038 -9.3588,-5.9072 -7.2858,-5.9987 z m -62.4684,3.534 c -0.6776,0.012 -1.2181,0.8545 -1.2,1.8716 0.018,1.0173 0.5878,1.8394 1.2655,1.8274 0.6786,-0.012 1.2191,-0.8537 1.2011,-1.8711 -0.018,-1.0171 -0.588,-1.8399 -1.2666,-1.8279 z m -93.1441,1.7929 c -0.768,-0.01 -1.7066,0.2144 -3.0179,0.6157 -2.217,0.6789 -4.5713,2.1249 -5.2319,3.2134 -1.7426,2.8751 0.01,7.8925 3.2763,9.3977 2.7361,1.259 2.7434,1.3038 0.2434,1.4294 -7.535,1.3414 -7.9244,15.2898 -6.3153,19.1866 1.6244,3.7781 3.3844,3.0451 3.5253,3.9466 0.2389,1.5273 -0.169,5.7675 -1.0362,9.6984 -0.9693,4.3936 -1.454,8.2859 -1.0784,8.6489 2.4366,2.3516 6.0841,-5.2918 6.0813,-12.7441 0,-6.2728 1.9034,-4.7444 3.7603,3.0164 2.4104,10.0707 2.5486,10.3892 4.2452,9.7986 2.5823,-0.8986 2.3473,-8.2183 -0.4379,-13.6044 -2.472,-4.7808 -2.5048,-5.2277 -0.6057,-8.2247 2.825,-4.466 2.601,-15.1181 -0.3892,-18.3106 -2.2362,-2.3875 -2.2296,-2.5318 0.2192,-5.069 3.1091,-3.2216 3.1366,-5.231 0.1177,-8.8267 -1.2698,-1.5124 -2.0762,-2.1603 -3.3561,-2.1722 z m -2.3186,3.4479 c 0.721,-0.013 1.6597,0.8402 2.0864,1.8955 1.0167,2.515 -0.9001,4.4422 -3.1119,3.1288 -1.8834,-1.1185 -1.0939,-4.9868 1.0255,-5.0243 z m 14.2237,-1.1981 c -0.8618,-0.1364 -4.3327,2.0322 -0.3307,6.1527 0,0 -1.9702,1.7815 -2.3335,4.1996 -0.4618,3.0798 0.4422,6.0646 2.0063,6.5762 3.3018,1.08 0.6668,0.9333 -1.4633,4.1255 -3.598,5.3916 -2.8142,9.7882 -1.1969,16.0455 0.9353,3.6155 1.6789,8.9875 1.6571,11.9377 -0.051,6.3831 2.94,6.6768 3.4533,0.3389 0.2608,-3.2237 0.8497,-3.9286 3.3213,-3.9724 1.875,-0.033 3.0159,0.6559 3.0369,1.8348 0.043,2.4502 3.3478,3.6335 5.3464,1.9143 0.8568,-0.7371 5.6186,-0.592 10.6694,-0.9183 9.1846,-0.5935 9.2559,-1.6083 -0.7763,-1.6758 -4.6338,-0.031 -8.2809,-0.2304 -10.1452,-0.4079 0,0 -0.3033,-1.1453 -0.661,-2.4206 -0.9719,-3.4648 0.175,-12.0275 1.6156,-12.053 2.0336,-0.036 1.0046,-3.9495 -1.1776,-4.4788 -1.2011,-0.2915 -3.1955,-2.2223 -4.4319,-4.2904 -2.0235,-3.3856 -2.0633,-3.9724 -0.3961,-5.8809 1.018,-1.1662 1.8208,-3.8199 1.784,-5.8978 -0.039,-2.2209 0.6896,-4.0842 1.7697,-4.5207 2.327,-0.9398 2.319,-3.7834 -0.016,-5.6514 -1.4288,-1.1443 -3.9567,-0.6305 -4.6081,3.1219 -0.075,0.4291 -3.2284,-0.092 -3.5749,-0.7071 -0.1932,-3.3015 -2.467,-3.2008 -3.5484,-3.372 z m 132.3791,-1.3997 c -1.2522,0.1007 -2.368,1.3262 -2.3395,2.9378 0.017,0.9771 0.8042,1.7632 1.7484,1.7465 2.0907,-0.037 3.5094,-3.3975 1.8513,-4.3826 -0.4104,-0.2437 -0.8429,-0.3353 -1.2602,-0.3017 z m -94.6752,4.2951 c -3.4395,0.061 -4.7676,1.5799 -6.8632,7.8484 -1.4414,4.3112 -1.356,4.8717 1.1146,7.2558 2.6745,2.5836 2.6751,2.5836 0.1208,4.7281 -1.9394,1.628 -2.6525,3.9334 -2.9595,9.5691 -0.359,6.5695 -0.091,7.6372 2.3235,9.2657 1.9528,1.3169 1.462,2.5298 1.2191,5.0509 -0.3336,3.4609 0.659,3.8543 -8.7728,4.7887 -12.6348,1.2519 -13.5442,2.5419 -1.643,2.3311 9.2596,-0.164 9.4528,-0.1049 9.5063,2.9146 0.053,3.0248 -0.1357,3.0894 -10.1133,3.4373 -10.1682,0.3544 -10.1685,0.3542 -0.2842,1.4047 5.4369,0.5776 10.4509,0.1652 10.4509,0.1652 0.2462,3.6374 4.0338,3.1972 4.8899,0.1209 0,0 3.0909,-0.049 4.2104,0.09 0.6528,0.081 0.3561,4.0832 0.3182,5.8689 -0.02,0.9863 -0.027,-0.1543 -16.0195,1.0188 -22.1291,1.6234 -23.3086,2.588 -2.1163,1.7312 14.9708,-0.6054 18.1514,0.059 18.1514,0.059 0.4867,2.5946 3.8858,2.5856 4.6985,-0.1616 0.1467,-0.4961 4.8211,0.1393 10.4088,-0.3244 9.792,-0.8122 10.1628,-0.7463 10.1881,1.8151 0.06,5.7195 -0.6442,5.9024 -27.1189,7.0556 -13.823,0.6023 -28.176,1.6207 -31.8948,2.2633 -4.3581,0.7545 4.7615,0.8279 25.646,0.2109 32.4084,-0.9575 32.4085,-0.9575 30.0105,1.6868 -1.318,1.4544 -2.8747,4.0097 -3.4583,5.6784 -1.0619,3.034 -1.0622,3.0339 -19.1575,3.0108 -9.9515,-0.013 -24.3183,0.5492 -31.9255,1.2492 -13.0318,1.199 -11.977,1.2766 18.2343,1.3413 24.8913,0.053 32.9006,0.4642 35.7966,1.836 2.0521,0.9722 5.1184,1.7259 6.8139,1.6785 2.9841,-0.086 3.0802,-0.3612 2.9788,-8.682 -0.084,-7.0949 0.2635,-8.6702 1.9953,-9.0357 3.5985,-0.7592 5.2283,5.4677 3.1536,12.0513 -0.9669,3.0694 -2.0652,7.1126 -2.4411,8.9846 -0.6825,3.4037 -0.6824,3.404 -25.6189,4.1538 -13.7147,0.4125 -32.7911,0.7136 -42.39,0.6692 -9.5992,-0.044 -17.7257,0.3788 -18.059,0.9406 -0.909,1.5304 3.7362,1.6121 45.7158,0.8029 38.5232,-0.7424 39.1127,-0.8382 38.9039,-0.1459 -0.544,1.8032 -1.4182,12.6863 -1.3496,15.3681 0.026,0.8891 -0.3527,0.5344 -25.1407,0.1584 -58.9552,-0.8948 -66.6581,-0.8775 -64.2444,0.1434 1.3662,0.5778 20.3329,1.4656 42.1474,1.9726 19.6938,-0.096 33.9595,0.3353 46.9098,0.4303 0,0 0.3269,4.0799 0.3483,5.4807 0.028,2.1691 -2.4345,-3.4616 -6,-3.2951 -1.0249,0.051 -2.3491,0.5742 -2.9198,1.3903 -0.8161,2.0661 1.5324,7.7305 3.5419,11.0035 0.593,0.4743 0.6731,0.2164 -38.4275,1.017 -21.5058,0.4403 -41.8677,1.2816 -45.2482,1.8697 -3.6247,0.6305 13.8392,0.8218 42.5565,0.4661 69.6475,-0.8629 68.0915,-0.9251 72.8213,2.9133 5.0197,4.0745 10.4192,4.1359 12.933,0.1472 1.6859,-2.676 1.6143,-3.414 -0.8464,-8.7203 -1.4784,-3.1884 -2.4246,-6.0693 -2.1038,-6.4021 0.5194,-0.5381 7.9178,16.6845 12.6261,29.3942 1.0746,2.9001 2.9645,5.252 4.8712,6.0627 1.713,0.7282 11.9972,1.4792 22.8529,1.6688 10.8569,0.1895 21.9601,0.4084 24.6746,0.4866 4.8288,0.1389 9.2445,-1.5187 7.7898,-2.9232 -1.8354,-1.7709 -24.0017,-2.8105 -38.3974,-1.8009 -13.5919,0.9534 -15.7088,0.8495 -15.7376,-0.7725 -0.032,-1.7791 -2.3784,-7.6214 -15.9622,-39.7392 -3.2158,-7.6015 -6.4756,-16.9199 -7.2459,-20.7078 -1.226,-6.0359 -1.1374,-7.093 0.7208,-8.5562 1.1658,-0.9183 2.472,-1.6929 2.9027,-1.7229 1.5064,-0.102 4.614,-8.5428 4.5466,-12.3478 -0.048,-2.7231 1.0107,-4.8372 3.6425,-7.2776 5.2223,-4.8423 6.9183,-17.0901 4.3642,-31.5186 -3.1809,-17.9715 -7.0588,-20.993 -25.5467,-19.9071 -9.4295,0.5538 -12.0964,1.1711 -15.3036,3.5416 -5.1723,3.8225 -7.5701,9.0214 -8.2091,17.7941 -0.5286,7.2502 -0.5285,7.25 -12.9961,7.1213 -15.325,-0.1581 -16.7651,-2.3716 -2.046,-3.1429 14.6533,-0.7678 15.822,-3.0003 1.4372,-2.7456 -6.2378,0.1105 -11.3483,-0.1716 -11.3564,-0.6268 -0.01,-0.455 0.8236,-1.7885 1.8501,-2.9628 1.0252,-1.1745 2.1302,-4.0127 2.4559,-6.3071 0.4685,-3.3045 -0.1515,-5.1118 -2.9816,-8.6954 -1.965,-2.488 -4.5904,-4.8506 -5.834,-5.2496 -2.0205,-0.6488 -2.0683,-0.9475 -0.4539,-2.8046 4.8629,-5.5937 2.5504,-15.0393 -3.654,-14.9311 z m -175.6769,3.1153 c -3.3173,0.067 -9.1963,4.4756 -11.0884,8.3156 -0.9821,1.9935 -3.5607,6.0761 -5.7304,9.0734 -2.1696,2.997 -4.8017,8.7587 -5.8503,12.8035 -1.9045,7.3541 -1.9045,7.3537 -4.1607,1.7147 -2.8026,-7.007 -3.8122,-8.1831 -10.9139,-12.7082 -6.5238,-4.157 -14.1332,-4.7213 -20.1157,-1.492 -2.6742,1.4436 -4.2452,1.6284 -6.0366,0.7101 -1.7523,-0.8982 -3.8086,-0.7349 -7.4445,0.5903 -8.4166,3.0673 -14.3548,8.1776 -17.5406,15.0945 -5.6633,12.2965 -6.512,39.412 -1.5974,51.075 2.0508,4.8684 2.0749,5.7744 0.3489,13.1972 -2.4975,10.7589 -2.1773,27.5386 0.6025,31.3608 1.7859,2.4556 1.8756,3.4937 0.62,7.169 -1.8325,5.3612 -0.055,7.9398 3.7643,5.46 1.5973,-1.0373 2.4151,-1.1174 2.4307,-0.2385 0.012,0.7289 1.5463,1.1227 3.4075,0.8752 2.7969,-0.3722 3.683,-1.4174 5.1118,-6.0307 1.7281,-5.5803 1.7283,-5.5804 2.455,-0.6719 0.8082,5.4648 4.3056,7.4229 5.5856,3.1272 2.0045,-6.7254 -4.7387,-17.011 -12.9135,-19.6998 -3.8797,-1.2758 -3.9194,-1.3682 -3.2857,-7.6811 1.92,-19.1292 6.2598,-23.8035 7.6436,-8.2333 0.5174,5.8148 1.6604,10.5825 3.0173,12.5752 3.1474,4.622 13.9761,12.5497 18.3409,13.4279 4.4379,0.8926 4.4474,0.9674 1.3332,10.8105 -5.0808,16.0636 -22.2275,45.1295 -29.8419,50.5875 -2.88,2.0645 -4.0089,4.3519 -1.9199,6.7483 6.6161,7.5906 18.4964,10.4144 27.5899,7.1639 3.5093,-1.2546 4.2379,-2.4935 3.8852,-4.6936 -0.3992,-2.4974 -1.2956,-2.8454 -8.472,-3.29 -7.2411,-0.449 -13.6088,-2.4117 -13.6405,-4.2044 -0.01,-0.3748 3.2837,-4.4379 7.311,-9.0279 8.818,-10.05 19.4068,-31.3149 22.2501,-44.6831 2.652,-12.4716 4.2723,-12.0621 13.6822,3.4578 9.3402,15.4062 14.2689,24.7051 14.3095,27.0039 0.018,0.9618 -1.3399,2.6822 -3.0162,3.8228 -1.6752,1.1408 -3.0305,2.9645 -3.0112,4.0527 0.028,1.601 0.9288,1.8193 4.7172,1.1444 4.6814,-0.8338 4.6811,-0.8334 8.9838,12.0467 2.85,8.5342 5.1006,13.29 6.6704,14.0946 1.8756,0.9617 4.4017,0.1108 12.1446,-4.094 13.3518,-7.2497 18.1731,-15.1673 11.6314,-19.1003 -1.8202,-1.0946 -2.8882,-0.5377 -6.2422,3.254 -4.591,5.1896 -11.5082,9.3696 -13.0037,7.8574 -0.5509,-0.5567 -2.561,-5.8537 -4.4668,-11.7701 -3.9246,-12.186 -4.6287,-9.5399 6.2153,-23.3391 5.8698,-7.4686 13.296,-22.55 13.2199,-26.8471 -0.051,-2.9318 3.1112,-5.375 7.0494,-5.4447 1.3046,-0.023 5.4728,-1.6756 9.262,-3.6719 6.8898,-3.6294 6.8899,-3.6293 11.6513,2.5686 10.9436,14.2449 16.7897,24.7623 23.1473,41.638 2.2836,6.0644 4.4918,11.8522 4.9057,12.8622 0.4137,1.01 0.6691,2.4579 0.5667,3.2171 -0.3441,2.5509 3.4843,4.4425 7.3044,3.608 4.6529,-1.0166 16.9166,-9.0886 17.8949,-11.778 1.0054,-2.7675 -1.4305,-6.0494 -4.0886,-5.5064 -1.1999,0.2453 -4.9203,2.3607 -8.2659,4.7013 -6.0836,4.2556 -6.0837,4.2556 -10.2356,-7.0091 -6.612,-17.9427 -15.8506,-33.9118 -26.9256,-46.54 -4.9097,-5.5985 -4.9572,-5.8602 -1.824,-10.2782 6.1403,-8.6593 9.8541,-29.701 7.7967,-44.178 -3.208,-22.5781 -3.1983,-21.4675 -0.1367,-16.0301 3.6195,6.425 7.4337,10.351 10.0114,10.3053 4.1157,-0.073 8.3697,-5.0805 10.4149,-12.2615 1.1085,-3.8908 2.1282,-7.2562 2.2657,-7.4781 0.1378,-0.2222 1.954,0.4395 4.0368,1.4703 5.4458,2.695 9.7285,2.2336 13.2633,-1.4294 2.4046,-2.4903 2.763,-3.5566 1.6375,-4.8651 -1.09,-1.2676 -1.0603,-2.3165 0.1247,-4.3044 2.5159,-4.2239 -0.9262,-5.3523 -6.7945,-2.2267 -6.1587,3.2805 -7.0791,2.3876 -1.5624,-1.5146 2.756,-1.9494 4.2735,-4.0173 4.2418,-5.8028 -0.055,-3.7272 -2.3202,-3.4531 -8.7289,1.057 -2.948,2.0747 -5.7319,3.7892 -6.1858,3.8097 -0.4548,0.02 -1.2219,-1.7599 -1.7048,-3.9557 -1.5365,-6.9914 -2.1309,-8.2866 -3.7906,-8.2572 -2.147,0.038 -3.0365,4.001 -2.8986,12.9197 0.1161,7.513 -2.9006,21.7145 -4.6194,21.7449 -0.5288,0.01 -3.6116,-4.3925 -6.8488,-9.7825 -3.2367,-5.3898 -7.2322,-11.2856 -8.8774,-13.1009 -1.6454,-1.8153 -5.1582,-5.7098 -7.8067,-8.6543 -5.7992,-6.4483 -12.513,-9.4947 -22.9128,-10.3957 -5.0563,-0.4382 -9.2668,-1.6528 -12.065,-3.4792 -2.363,-1.5436 -5.1902,-2.7859 -6.2821,-2.7666 z m 297.6316,-4.5254 c 0.6096,0.064 1.5521,0.8323 3.2821,2.432 2.6368,2.4381 3.1922,3.5994 2.0739,4.3373 -2.2031,1.4542 -2.7541,1.3266 -5.1035,-1.1795 -1.2317,-1.3145 -1.7904,-3.132 -1.3405,-4.3689 0.2536,-0.6979 0.4866,-1.1133 0.8458,-1.2058 0.075,-0.019 0.1551,-0.024 0.2422,-0.015 z m -104.925,3.5747 c -6.1666,0.1092 -7.8548,0.5377 -7.8291,1.9885 0.027,1.482 1.8981,1.8166 9.4296,1.6833 8.2137,-0.1455 9.2002,-0.3966 7.8307,-1.989 -1.0936,-1.2713 -3.9462,-1.7799 -9.4312,-1.6828 z m -16.3895,2.7567 c 1.7043,-0.03 2.4699,3.828 1.2361,6.234 -1.4744,2.8773 -4.6217,3.1994 -5.6792,0.5817 -0.7251,-1.7943 2.5262,-6.7818 4.4431,-6.8157 z m 19.8055,3.3493 c -9.1368,0.1618 -12.2854,1.1399 -10.1858,3.1657 0.4828,0.466 5.1877,0.6243 10.4552,0.3513 6.8513,-0.355 9.5697,-0.9507 9.5495,-2.0933 -0.021,-1.1735 -2.6261,-1.5511 -9.8189,-1.4237 z m 112.7262,-1.9965 c 0.9315,-0.016 2.0797,1.1149 2.5512,2.5143 1.0097,2.9961 0.6787,3.4782 -1.8325,2.6688 -3.8038,-1.2262 -4.3433,-5.1189 -0.7187,-5.1831 z m -313.3439,6.0861 c 0.535,0.015 1.924,1.0356 3.3416,2.4919 1.6197,1.6644 2.7098,3.012 2.4212,2.9947 -1.1973,-0.072 -6.4616,-4.8863 -5.9375,-5.4298 0.039,-0.041 0.098,-0.058 0.1747,-0.056 z m 280.0894,-3.6758 c 0.091,-0.014 0.1569,-0.014 0.1997,0.01 0.1136,0.053 0.056,0.2422 -0.1795,0.6389 -0.4069,0.6856 -1.9559,1.2588 -3.4413,1.2751 -2.1962,0.024 -6.5934,-0.1369 -1.8253,-0.6572 2.8218,-0.3079 4.614,-1.1608 5.2464,-1.2625 z m -152.1348,3.3395 c 1.7562,-0.031 2.0743,7.6066 0.3894,9.3521 -2.7228,2.8214 -3.9933,2.1171 -4.0708,-2.2573 -0.067,-3.7543 1.6481,-7.0588 3.6814,-7.0948 z m -108.4298,3.2518 c 1.1189,-0.068 3.1047,0.3183 6.5564,1.1227 5.3082,1.2369 5.3498,1.2905 8.9107,11.2505 4.2391,11.8574 10.0033,23.1651 13.5539,26.5925 4.2968,4.1473 6.7534,24.5358 4.1626,34.5472 -1.1142,4.3062 -1.7231,4.7499 -11.8641,8.645 -8.9085,3.4219 -13.0505,4.2569 -24.8562,5.0092 -7.7922,0.4962 -14.5911,0.4743 -15.1093,-0.048 -0.5179,-0.5233 -1.0934,-9.4974 -1.2784,-19.9426 -0.3363,-18.9913 -0.3363,-18.9916 4.4478,-24.8734 5.8038,-7.1348 8.4215,-14.5003 8.2665,-23.2572 -0.088,-4.9759 0.6119,-7.6873 2.8852,-11.1679 1.6515,-2.5282 2.9886,-5.3509 2.9724,-6.2734 -0.018,-1.0131 0.2337,-1.5359 1.3525,-1.6039 z m 176.1447,-1.1298 c -4.7052,0.1443 -6.7195,0.5828 -6.9965,1.4274 -0.3883,1.1806 2.808,1.492 13.4011,1.3044 17.5001,-0.31 16.8479,-2.6769 -0.7673,-2.7826 -2.2015,-0.013 -4.0689,0 -5.6373,0.051 z m -198.8229,5.1245 c 0.2326,0.025 0.369,0.2953 0.3858,0.8537 0.044,1.4855 -0.4466,3.0386 -1.0889,3.4517 -0.6427,0.4128 -3.3316,7.8243 -5.9756,16.4697 -3.8749,12.6693 -4.6365,16.743 -3.921,20.9949 0.4868,2.9015 1.3683,5.2667 1.9562,5.2563 2.1131,-0.037 5.0138,3.8457 5.0658,6.7813 0.041,2.2941 -0.5963,2.997 -2.7217,3.0061 -6.319,0.026 -7.1188,-1.5392 -7.3463,-14.3809 -0.1682,-9.5006 0.395,-13.89 2.7421,-21.3777 2.9371,-9.371 9.2752,-21.2296 10.9036,-21.0551 z m 39.8264,1.621 c 1.597,-0.2403 6.2353,7.2686 8.7565,14.3972 1.5762,4.4554 2.5878,8.3896 2.247,8.7419 -0.7801,0.8083 -12.0401,-22.135 -11.2809,-22.9853 0.077,-0.087 0.1708,-0.1378 0.2774,-0.1538 z m 143.6007,-2.3944 c 2.0481,-0.036 6.1939,4.3914 4.8942,5.227 -1.5184,0.9754 -10.2366,0.6734 -10.2548,-0.3554 -0.027,-1.4808 3.6723,-4.8417 5.3606,-4.8716 z m 139.2876,-2.4669 c 1.6155,-0.029 3.2586,2.4463 3.3034,4.9755 0.023,1.3074 -2.8672,1.577 -4.1038,0.3828 -1.5235,-1.4702 -0.9471,-5.3274 0.8004,-5.3583 z m -250.4303,5.6855 c -3.5449,0.09 -7.6811,1.5643 -7.6605,2.7292 0.011,0.5992 2.2383,1.0499 4.9511,1.0019 3.562,-0.063 4.9226,-0.6014 4.899,-1.9371 -0.018,-1.0171 -1.0035,-1.825 -2.1896,-1.794 z m 76.3372,-1.1276 c 3.9364,-0.5051 6.7611,7.1074 3.4368,10.551 -2.0619,2.1367 -7.0588,1.9598 -7.9649,-0.2823 -0.9723,-2.4039 0.1175,-3.5213 3.5635,-3.6536 3.6952,-0.1418 4.6089,-2.5063 1.1347,-2.9372 -3.174,-0.3934 -3.723,-2.3529 -0.9706,-3.4653 0.2708,-0.1095 0.538,-0.179 0.8005,-0.2126 z m -206.6618,3.9346 c 1.1228,0.022 0.3296,1.9128 -3.2262,9.1866 -3.9845,8.1536 -4.8728,11.3827 -5.2107,18.9489 -0.3321,7.4625 -1.3047,11.0811 -5.3523,19.9101 -2.7208,5.9348 -5.328,10.8367 -5.7942,10.8939 -1.6383,0.2003 -2.7561,-11.4046 -2.1355,-22.171 0.6702,-11.6061 2.6669,-20.4226 5.723,-25.2723 2.0865,-3.3107 10.8052,-9.8878 14.923,-11.2566 0.4529,-0.1505 0.8138,-0.2448 1.0729,-0.2396 z m 14.8171,-0.2535 v 0 c 1.0491,-0.048 2.0301,0.1456 2.91,0.5966 2.2215,1.1389 2.6138,2.4539 2.6837,8.9973 0.046,4.2145 -0.6105,9.7148 -1.456,12.2223 -1.5774,4.6756 -7.8185,13.6865 -12.144,17.533 -2.3175,2.0602 -6.729,3.1101 -6.7556,1.6076 -0.014,-0.7984 11.1092,-18.2364 14.5675,-22.8374 2.8406,-3.7765 2.8112,-5.1247 -0.1098,-5.0729 -1.2731,0.023 -5.7095,3.5693 -9.8567,7.8822 -7.5419,7.8415 -7.5414,7.8417 -6.77,3.5115 1.8096,-10.1589 3.1754,-13.8893 6.5411,-17.8623 3.477,-4.1044 7.2385,-6.4315 10.3879,-6.5778 z m 282.1457,-0.5966 c 2.8483,0.028 7.1824,0.4136 9.9458,1.0033 5.9076,1.2606 7.9151,3.0905 9.0404,8.2422 0.6785,3.1072 0.4536,3.9841 -1.0314,4.0104 -1.0457,0.019 -2.0775,0.5058 -2.2931,1.0831 -0.2165,0.5771 -1.849,1.4329 -3.6278,1.9017 -2.5106,0.6619 -3.6638,0.2422 -5.1562,-1.8758 -1.5419,-2.1881 -2.2325,-2.4198 -3.484,-1.1689 -1.2616,1.2605 -2.0091,0.2087 -3.8959,-5.4809 -1.2848,-3.8725 -2.3468,-7.1793 -2.3598,-7.3486 -0.021,-0.2725 1.153,-0.3836 2.862,-0.3665 z m -233.2762,4.1395 c 1.7578,-0.031 1.4741,14.5079 -0.3738,19.162 -1.9181,4.8283 -3.6701,5.828 -2.716,1.55 0.3406,-1.532 0.9343,-6.8153 1.3178,-11.7397 0.3837,-4.9244 1.1813,-8.9618 1.772,-8.9723 z m 123.849,-2.1934 c 1.9104,-0.034 2.9997,0.5326 2.722,1.416 -0.5471,1.7447 -2.1686,2.3048 -4.3152,1.49 -2.7098,-1.0288 -1.7137,-2.8475 1.5932,-2.906 z m 72.0204,-1.2756 c -2.2488,0.04 -3.5185,0.5739 -3.0601,1.2874 0.431,0.6705 1.8279,1.2008 3.1039,1.1782 1.2768,-0.023 2.6538,-0.602 3.0611,-1.2874 0.4327,-0.7293 -0.8562,-1.218 -3.1049,-1.1782 z m -87.8193,2.9116 c -5.0905,0.1869 -5.8095,0.436 -3.3703,1.1699 4.4922,1.3517 9.8877,1.2561 9.8624,-0.1747 -0.013,-0.6809 -2.9176,-1.1269 -6.4921,-0.9952 z m 185.148,-3.2336 c 2.9421,-0.1331 8.5452,3.2782 11.3047,7.0123 2.1048,2.8468 2.3084,3.6773 0.9065,3.7021 -2.6269,0.047 -14.843,-10.1364 -12.7624,-10.6396 0.171,-0.041 0.3552,-0.066 0.5512,-0.075 z m -70.2176,2.2674 c 0.027,-0.015 0.049,0 0.068,0.04 0.1493,0.3365 0.4908,4.9976 0.7577,10.3582 0.3996,7.9914 -0.04,11.1088 -2.4193,17.3091 -3.6399,9.4738 -3.8712,9.6938 -3.902,3.7769 -0.024,-4.3837 4.6647,-31.0333 5.4958,-31.4838 z m -38.6336,1.1975 c 0.1471,-0.01 0.3095,0.034 0.4809,0.1357 2.0968,1.245 1.4685,5.3624 -1.0319,6.7579 -1.2996,0.7253 -4.3409,1.3535 -6.7589,1.3963 -4.2649,0.076 -4.3981,-0.06 -4.4396,-4.5461 -0.038,-3.8577 0.1778,-4.2553 1.3024,-2.3995 1.2435,2.0548 1.5122,2.0698 3.5129,0.1931 1.935,-1.8143 2.2481,-1.8295 2.93,-0.1418 0.9936,2.4572 3.3168,2.4029 3.2728,-0.077 -0.014,-0.7928 0.2896,-1.2901 0.7314,-1.3175 z m 99.0719,-1.6099 c 0.7771,0.022 1.5248,0.2778 2.1796,0.8002 2.0771,1.6568 7.9364,12.7898 7.9992,15.2014 0.023,0.7602 -2.0328,3.7978 -4.56,6.7501 -4.5961,5.3677 -4.5965,5.3674 -6.907,-0.3748 -2.3096,-5.742 -2.3093,-5.7419 0.8149,-9.9927 5.5788,-7.5899 3.1025,-11.9688 -2.9708,-5.2538 -3.7905,4.1905 -4.6325,3.5754 -2.648,-1.9347 1.1624,-3.2287 3.7605,-5.2623 6.0921,-5.1957 z m -318.006,5.797 c 0.09,-0.039 0.1803,-0.034 0.2685,0.018 1.6874,1.0022 0.2539,12.2427 -2.3407,18.3522 -2.4811,5.8415 -11.9658,17.063 -18.7051,22.1293 -6.5708,4.94 -9.289,4.7374 -9.3853,-0.7 -0.039,-2.2236 0.5047,-2.6104 3.0543,-2.1696 4.7104,0.8145 9.9788,-2.069 15.4686,-8.4659 6.1736,-7.1939 9.0994,-13.894 9.9951,-22.8929 0.3531,-3.5427 1.0121,-5.9947 1.6446,-6.2711 z m 233.9366,-2.3358 c -3.2218,-0.011 -5.8479,0.5359 -5.8359,1.2141 0.025,1.4268 4.2001,1.3529 8.6302,-0.1529 2.4979,-0.8491 1.981,-1.0456 -2.7943,-1.0612 z m -36.6558,1.9196 c -0.5587,0.01 -1.1157,0.1051 -1.5362,0.2836 -0.8416,0.3572 -0.143,0.6248 1.5517,0.5948 1.6957,-0.03 2.3843,-0.3223 1.5304,-0.6494 -0.4271,-0.1635 -0.9872,-0.2389 -1.5459,-0.229 z m -18.9745,3.8759 c 1.0579,-0.019 1.589,0.5267 1.1823,1.2123 -0.4067,0.6856 -1.2626,1.2555 -1.9008,1.2668 -0.6378,0.011 -1.1692,-0.5341 -1.1812,-1.2122 -0.012,-0.6782 0.8429,-1.2482 1.8997,-1.2669 z m 84.9176,0.6053 c 0.2168,0.037 0.6642,1.5071 1.3533,4.3837 0.4645,1.9374 2.1059,3.9772 3.7875,4.7076 1.6318,0.7091 3.2769,2.3935 3.6558,3.7428 0.6813,2.4307 0.7183,2.4288 3.966,-0.2201 4.1193,-3.3597 7.3864,-3.4769 8.2787,-0.2965 1.1165,3.9795 4.4184,2.9214 4.779,-1.5313 0.1744,-2.1553 1.0863,-4.187 2.0267,-4.5149 1.4065,-0.49 1.6044,1.0841 1.1159,8.8441 -0.6825,10.826 -1.9456,14.004 -6.2558,15.7309 -5.2876,2.1183 -13.7477,1.6676 -16.3798,-0.8723 -2.7226,-2.6279 -4.8439,-10.692 -6.0407,-22.9567 -0.4623,-4.744 -0.5653,-7.0649 -0.2866,-7.0173 z m -28.2521,1.0095 c -0.8473,0.012 -1.7779,0.039 -2.7522,0.082 -7.0861,0.3107 -8.4962,1.7329 -2.8934,1.7621 7.0461,0.037 10.008,-0.4645 9.988,-1.5885 -1.7534,-0.321 -2.9042,-0.2746 -4.3424,-0.256 z m -35.2187,0.6242 c -0.4284,-0.01 -0.9151,0.077 -1.3566,0.2628 -0.9771,0.4108 -0.6799,0.6977 0.7572,0.7314 1.301,0.03 2.0236,-0.2735 1.6068,-0.676 -0.2086,-0.2012 -0.5788,-0.3081 -1.0074,-0.3182 z m 133.9422,1.5832 c 0.3514,0.051 0.9317,0.3151 1.8044,0.7625 1.4671,0.7515 3.205,2.7113 3.8641,4.3542 1.498,3.7399 3.4132,3.8175 3.9924,0.1624 0.3902,-2.4579 0.6915,-2.2516 2.584,1.7647 3.2022,6.7966 2.9091,11.3216 -0.8474,13.1145 -1.7135,0.8173 -3.353,1.4905 -3.6442,1.4956 -1.292,0.023 -4.2057,-5.9916 -5.628,-11.6166 -0.8535,-3.3762 -1.8749,-7.1517 -2.2697,-8.3901 -0.3911,-1.228 -0.4413,-1.7328 0.1444,-1.6472 z m -119.8935,2.4852 h 5e-4 c 0.2769,-0.019 0.5871,0.01 0.9268,0.09 1.3627,0.3309 2.4851,1.0586 2.495,1.6175 0.026,1.4479 -1.5511,2.1835 -3.3638,1.5693 -2.3251,-0.7881 -2.002,-3.1427 -0.058,-3.2768 z m -208.5492,6.6236 c 1.1976,-0.021 2.7153,18.138 3.0421,36.5931 0.3674,20.1839 1.1169,19.4477 -20.195,19.8251 -8.2487,0.1461 -15.3051,0.5829 -15.681,0.9714 -0.3753,0.3882 3.2423,1.6504 8.0412,2.8046 6.4123,1.5426 11.1479,1.8717 17.8779,1.2427 5.0356,-0.4707 9.1588,-0.72 9.1617,-0.5541 -6e-4,0.1658 -0.8263,2.8896 -1.8414,6.0524 -1.9846,6.1784 -4.8579,8.1279 -8.9165,6.0473 -3.4283,-1.7571 -3.7669,-1.6315 -5.0283,1.8707 -1.4996,4.1651 -7.7332,3.7802 -15.2237,-0.9404 -6.3673,-4.0126 -8.8062,-18.3964 -5.9393,-35.0273 1.2868,-7.463 1.6318,-8.0575 5.1179,-8.8352 8.2726,-1.845 24.32,-16.9793 27.3231,-25.768 0.8028,-2.3473 1.8193,-4.2745 2.2613,-4.2823 z m 235.89,0.803 c 2.9397,0.01 4.5537,0.3415 4.5655,1.004 0.011,0.6228 -0.3011,2.0155 -0.6935,3.0953 -0.5805,1.5977 -2.8718,2.002 -12.2941,2.1688 -10.4624,0.1853 -11.5843,-0.016 -11.6209,-2.0848 -0.033,-1.8975 1.2571,-2.4493 7.5231,-3.2168 5.3148,-0.6508 9.5802,-0.9729 12.5199,-0.9665 z m -29.4633,2.1454 c 1.7619,-0.4056 4.0464,-0.4018 4.1396,0.5207 0.227,2.2493 0.846,4.6587 0.05,4.6843 -1.8078,0.058 -4.4589,0.3051 -4.5131,-0.5838 -0.1369,-2.2563 -0.3813,-4.459 0.3238,-4.6212 z m 118.4227,-1.3021 c 2.2394,-0.04 0.092,3.8281 -4.0324,7.2649 -5.281,4.4004 -6.161,4.7546 -6.1734,2.4739 0,-1.4389 8.6641,-9.7115 10.2058,-9.7388 z m -154.1058,4.2556 c -1.9952,0.2944 -5.3324,5.6136 -9.2742,14.9435 -2.9679,7.0249 -8.3081,19.535 -11.867,27.8009 -3.5579,8.2656 -9.1821,23.6268 -12.4969,34.1362 -10.5305,33.388 -8.0898,29.6272 -19.3507,29.8267 -7.3123,0.1295 -9.7538,0.5854 -9.732,1.8169 0.016,0.9041 0.4056,2.0071 0.8657,2.4511 1.039,1.0032 6.4934,0.9205 14.7819,-0.2246 5.6202,-0.7765 6.4017,-1.2455 6.8678,-4.1194 0.2894,-1.7834 1.632,-6.0372 2.9822,-9.4527 1.3509,-3.4153 5.8994,-15.4277 10.1092,-26.6943 4.2089,-11.2665 12.4264,-31.3902 18.2589,-44.7188 5.8327,-13.3286 10.338,-24.6481 10.0128,-25.1544 -0.3084,-0.4797 -0.6973,-0.679 -1.1577,-0.6111 z m 56.3665,3.642 c 11.4253,-0.2024 12.2048,0.194 10.3604,5.2656 -0.5714,1.5731 -2.7561,1.9994 -10.9883,2.1451 -5.3163,0.094 -10.9515,-0.02 -10.7845,-0.7168 0,0 0.023,-3.633 -0.029,-4.7271 -0.06,-1.2906 1.527,-1.7913 11.4411,-1.9668 z m 28.6393,0.1048 c 0.3469,-0.078 0.5123,0.5405 0.7022,1.7123 0.3367,2.0836 -0.7949,4.2617 -3.8695,7.4475 -3.259,3.3765 -4.3554,3.9678 -4.3839,2.3652 -0.021,-1.1754 0.415,-2.145 0.9682,-2.1548 0.5539,-0.01 2.3115,-2.3995 3.9074,-5.3105 1.4836,-2.7077 2.2296,-3.9593 2.6756,-4.0597 z m 71.317,1.2044 c 0.124,-0.012 0.2356,-0.01 0.3346,0.01 0.2639,0.044 0.4394,0.1896 0.5265,0.4361 0.2863,0.8123 1.8823,3.038 3.5469,4.946 2.5871,2.9664 2.7447,3.5822 1.0898,4.2514 -1.0652,0.4302 -5.4966,0.8457 -9.8491,0.9228 -7.0914,0.1256 -7.9181,-0.1158 -7.9571,-2.3255 -0.024,-1.3563 0.6602,-2.4786 1.5202,-2.4938 0.8599,-0.015 3.7148,-1.5464 6.3451,-3.4026 2.0964,-1.4794 3.5754,-2.2588 4.4431,-2.3414 z m -68.7732,8.015 c 0.8419,-0.082 1.3845,0.7759 2.4698,2.4914 2.0602,3.2567 8.3242,5.9153 13.7496,5.8366 4.0845,-0.059 1.4405,7.1245 -3.8124,10.3538 -6.1094,3.7566 -14.1175,2.4676 -13.4028,-2.1571 0.2552,-1.6561 -0.4729,-2.4445 -2.4862,-2.6937 -1.6957,-0.2099 -3.3537,-1.6146 -4.0981,-3.4725 -1.1041,-2.7566 -0.7177,-3.5966 3.3152,-7.2093 2.2821,-2.0444 3.4232,-3.0669 4.2649,-3.1492 z m -14.8728,3.4689 c 0.5465,0.057 1.1267,0.805 1.4449,2.3224 0.4285,2.0464 0.085,3.0676 -1.0379,3.0874 -0.923,0.016 -1.6972,-1.0474 -1.7205,-2.3635 -0.037,-2.0488 0.6109,-3.1192 1.3135,-3.0463 z m -233.3839,8.356 c 0.5091,0.013 2.0161,0.8183 3.3503,1.7905 1.3334,0.9722 3.3649,1.7514 4.5123,1.7311 1.7831,-0.032 2.1927,1.7139 2.8128,11.9746 0.4,6.6063 1.3218,13.1106 2.0484,14.4545 0.7278,1.3436 2.7094,5.1846 4.4059,8.5352 2.7635,5.4596 7.9169,9.7579 14.2019,11.8463 1.8527,0.6152 -5.8916,16.6294 -12.548,25.9492 -3.3582,4.7031 -6.5062,8.5584 -6.9951,8.5671 -0.4883,0.01 -1.9132,-2.0474 -3.1659,-4.5687 -1.2536,-2.5214 -5.9715,-10.0144 -10.4846,-16.6505 -8.2052,-12.0658 -8.205,-12.0659 -5.0976,-14.7091 5.6013,-4.766 6.7217,-10.1186 6.3622,-30.4101 -0.1804,-10.193 0.089,-18.5234 0.5974,-18.5101 z m 305.643,-5.1527 c 0.096,-0.01 0.1919,-3e-4 0.2881,0.019 1.0972,0.2222 1.8236,1.2068 1.6126,2.1877 -0.2104,0.9809 -1.074,6.5835 -1.9181,12.4507 -0.8451,5.867 -1.8651,11.5736 -2.2673,12.6811 -0.884,2.4294 -2.9294,2.6064 -5.9042,0.5108 -2.0791,-1.4645 -1.9549,-2.3338 2.1365,-14.895 3.1432,-9.6491 4.6121,-12.8489 6.0524,-12.9545 z m 5.5569,1.0718 c 0.503,-0.08 1.1718,0.2427 2.094,0.8048 1.3127,0.7996 1.5277,4.0158 1.0296,15.3786 -0.6099,13.923 -0.7174,14.3696 -3.4711,14.4184 -3.9213,0.069 -4.4438,-1.2572 -3.2146,-8.165 0.5855,-3.2889 1.3517,-9.731 1.7036,-14.3158 0.4463,-5.8192 0.7519,-7.945 1.8585,-8.121 z m 12.2107,-0.1956 c 0.8017,0.053 1.2203,1.4289 1.3026,4.242 0.075,2.599 0.9766,6.9298 2.0022,9.6248 2.4019,6.3129 2.429,9.2475 0.119,12.6731 -1.0295,1.5258 -2.3945,2.7837 -3.0335,2.795 -0.6401,0.011 -1.3553,-4.9712 -1.5911,-11.0716 -0.2349,-6.1006 -0.4847,-12.5709 -0.5627,-14.3785 -0.076,-1.8073 0.5539,-3.5296 1.3965,-3.8271 0.1302,-0.046 0.2524,-0.065 0.367,-0.058 z m -375.1394,6.7676 c 0.1456,0.07 0.01,1.1419 -0.2866,3.286 -0.3164,2.3584 -1.11,4.8418 -1.7639,5.5191 -1.7904,1.8545 -1.4383,-1.7066 0.5994,-6.0769 0.8703,-1.8653 1.3055,-2.7979 1.4511,-2.7282 z m 369.5486,-5.6923 c 1.5416,-0.027 1.8933,2.4332 2.1117,14.762 0.2183,12.3288 -0.043,14.8002 -1.5877,14.8275 -1.5403,0.027 -1.8929,-2.4332 -2.1112,-14.762 -0.2184,-12.3288 0.043,-14.8002 1.5872,-14.8275 z m -187.3539,13.6567 c -0.1475,-0.01 -0.3082,0.045 -0.4759,0.1526 -0.6703,0.4312 -1.2101,1.306 -1.1988,1.9439 0.012,0.6382 0.5758,1.1507 1.2533,1.1387 0.678,-0.012 1.2175,-0.8873 1.1988,-1.9445 -0.014,-0.7928 -0.335,-1.2789 -0.7774,-1.2907 z m -12.2869,3.9425 c -0.3065,0.082 -0.4073,1.0002 -0.3844,2.9006 0.029,2.2042 0.6071,3.9979 1.2847,3.9859 1.5663,-0.028 1.5,-3.7689 -0.1092,-6.1645 -0.3494,-0.5202 -0.6072,-0.7715 -0.7911,-0.722 z m 126.8223,-1.0899 c 0.5557,0.029 1.2104,0.2607 1.9958,0.6634 1.3976,0.7163 3.6675,1.2825 5.0451,1.2581 3.648,-0.065 4.9938,3.3234 5.994,15.0947 -0.041,1.1663 1.1118,9.9491 0.5198,10.0047 -5.1685,0.5491 -18.7488,1.2257 -19.0627,0.734 -0.3139,-0.4915 0.8711,-12.0616 1.4229,-14.5899 0.2388,-1.0947 1.7638,-0.2798 7.8756,-0.3875 7.0938,-0.1251 6.6167,-1.8165 -0.5319,-1.9231 -7.1487,-0.1066 -7.1487,-0.1064 -6.4086,-4.7443 0.7106,-4.4542 1.4828,-6.1966 3.15,-6.1101 z m 32.4935,4.5536 c -0.6779,0.012 -1.3881,1.2733 -1.5773,2.8029 -0.2371,1.9136 0.2857,2.7699 1.6755,2.7453 1.3906,-0.025 1.8832,-0.899 1.5785,-2.8029 -0.2445,-1.5219 -0.998,-2.7573 -1.6767,-2.7453 z m -213.6803,5.6348 c 4.3155,-0.076 -6.5456,12.1738 -14.0266,15.8199 -8.1252,3.9599 -10.2222,3.9251 -10.781,-0.178 -0.6339,-4.6447 -3.0401,-4.847 -4.5094,-0.3796 -0.6839,2.0777 -1.4111,3.7592 -1.6158,3.7359 -2.2669,-0.2529 -8.3889,-3.8095 -10.4704,-6.0834 -5.7311,-6.2583 -5.2977,-6.5322 10.9503,-6.8984 12.2191,-0.2758 16.2641,-0.8537 22.1791,-3.1678 3.9782,-1.5567 7.7016,-2.8384 8.2738,-2.8486 z m 206.1457,-0.9329 c -0.2547,-0.028 -0.3952,0.1498 -0.3884,0.5361 0.012,0.7005 0.3989,1.6376 0.8592,2.0816 0.46,0.4441 1.1181,0.5153 1.4614,0.1587 0.344,-0.3566 -0.042,-1.293 -0.8582,-2.0811 -0.4503,-0.4345 -0.8192,-0.6676 -1.074,-0.6953 z m -179.6025,8.7933 c -0.79,0.09 -0.776,2.3103 0.5547,5.631 0.7199,1.7992 1.8789,3.2612 2.5734,3.2488 1.8196,-0.032 1.5256,-2.0548 -0.9481,-6.5192 -0.9427,-1.7017 -1.7059,-2.4146 -2.18,-2.3606 z m 13.0005,0.072 c -1.2288,0.022 -2.5446,3.0213 -2.4973,5.6949 0.017,0.9617 0.8633,1.7337 1.8807,1.7157 1.2325,-0.022 1.8274,-1.2658 1.7837,-3.7317 -0.036,-2.0342 -0.5614,-3.6896 -1.1671,-3.6789 z m 8.9804,1.589 c -0.065,-0.012 -0.1332,-0.011 -0.203,0 -0.08,0.017 -0.1624,0.052 -0.2462,0.1056 -0.6703,0.4312 -1.2047,1.5832 -1.1874,2.5603 0.018,0.9771 0.5861,1.7671 1.2638,1.7551 0.6779,-0.012 1.2126,-1.1645 1.1879,-2.5609 -0.019,-1.0688 -0.3569,-1.782 -0.8151,-1.8643 z m 219.0987,-0.6951 c -1.4184,0.025 -1.6701,4.0801 -0.3339,5.3702 0.4716,0.4552 1.3749,0.2915 2.0071,-0.3637 1.3623,-1.4112 0.15,-5.0388 -1.6732,-5.0065 z m 14.2669,0.082 c -0.212,-0.016 -0.4958,0.1746 -0.8667,0.559 -0.7421,0.7681 -0.9649,1.9933 -0.4961,2.7223 1.3117,2.0409 1.9439,1.571 1.8912,-1.4058 -0.022,-1.2448 -0.1752,-1.8484 -0.5284,-1.8755 z m -6.8137,1.0189 c -1.6642,0.029 -2.7796,2.2971 -1.8438,3.7524 0.4386,0.6815 1.3077,0.9111 1.9322,0.5095 1.4838,-0.952 1.4148,-4.2885 -0.086,-4.2619 z m -38.1658,5.6087 c -1.4184,0.025 -1.6716,4.0807 -0.3344,5.3708 0.4717,0.4552 1.375,0.2915 2.0072,-0.3637 1.3616,-1.4112 0.1496,-5.0393 -1.6728,-5.0071 z m -42.0921,3.845 c 0.6983,0.6742 2.7781,13.2694 2.2891,13.8637 -0.162,0.1977 -1.8273,-0.3054 -3.6991,-1.1186 -2.9203,-1.269 -6.2271,0.983 -5.1529,2.951 0.2121,0.3883 -3.0062,-0.1267 -6.9804,-0.056 -5.721,0.1013 -5.7207,0.1012 -5.8485,-7.1152 -0.1279,-7.2165 -0.2687,-7.7018 0.2596,-7.718 8.4668,-0.4465 13.111,-0.3433 19.1322,-0.8066 z m 37.9871,1.6334 c -1.2513,-0.1176 -2.2332,1.844 -1.329,3.2507 0.431,0.6708 1.3059,1.2106 1.9438,1.1993 1.4978,-0.026 1.449,-3.3639 -0.066,-4.2628 -0.1851,-0.1099 -0.3698,-0.1699 -0.5486,-0.1872 z m -277.1515,10.6781 c -0.2348,-0.043 -0.6677,0.5282 -1.504,1.6744 -0.9508,1.304 -1.422,2.8475 -1.0473,3.4302 1.1302,1.7593 2.9613,-0.2181 2.8643,-3.1006 -0.042,-1.3058 -0.079,-1.9614 -0.313,-2.004 z m -8.0278,0.1701 c -0.2569,-0.037 -0.4892,0.4564 -0.8757,1.4539 -0.4633,1.1951 -0.5093,2.9992 -0.1004,4.0094 0.8968,2.2196 3.3306,2.4134 3.1712,0.2524 -0.063,-0.8468 -0.5896,-2.6412 -1.172,-3.9874 -0.4853,-1.1235 -0.7666,-1.6911 -1.0235,-1.7283 z m 95.1293,-0.037 c -0.7616,-0.04 -1.8513,2.2891 -2.4011,6.1057 -0.3961,2.7445 -0.1554,4.521 0.6091,4.5074 1.6793,-0.03 2.7054,-3.0801 2.6219,-7.7934 -0.034,-1.9196 -0.3727,-2.7959 -0.8299,-2.8197 z m -11.0887,1.2368 c -0.336,0.086 -0.3614,1.1477 -0.3409,3.4834 0.021,2.4302 0.4148,4.7821 0.8751,5.2263 3.1364,3.0268 3.9665,-3.4235 0.9383,-7.2839 -0.7619,-0.9708 -1.211,-1.4931 -1.4725,-1.4258 z m 20.1469,0.8004 c -0.049,-0.01 -0.105,0 -0.1671,0.021 -0.2983,0.1029 -0.7497,0.5358 -1.4379,1.2489 -1.1202,1.1598 -1.6286,2.9281 -1.1701,4.0629 1.1656,2.8848 3.2782,1.0138 3.2099,-2.8431 -0.029,-1.6579 -0.087,-2.4355 -0.4348,-2.4892 z m -62.4037,5.7894 c -0.678,0.012 -1.2034,1.686 -1.1673,3.7203 0.046,2.5752 0.6673,3.6882 2.046,3.6638 1.2986,-0.023 1.7129,-0.7012 1.1993,-1.9723 -0.4307,-1.0653 -0.7977,-2.7232 -0.8147,-3.6852 -0.017,-0.9617 -0.5858,-1.7386 -1.2633,-1.7266 z m 9.0902,0.3486 c -0.065,-0.01 -0.1336,-0.01 -0.2035,0.01 -0.08,0.018 -0.1623,0.053 -0.2461,0.1072 -0.6705,0.431 -1.1992,1.8933 -1.1752,3.2496 0.024,1.356 0.5921,2.1134 1.2625,1.6822 0.6712,-0.431 1.2007,-1.8938 1.1767,-3.2501 -0.018,-1.0383 -0.3559,-1.7252 -0.8144,-1.7966 z m 252.5669,3.6501 c -1.4694,0.026 -2.7302,3.6647 -1.781,5.1411 0.8316,1.2943 3.2285,0.8478 3.0564,-0.5694 -0.055,-0.491 -0.1236,-1.7247 -0.1416,-2.742 -0.018,-1.0171 -0.5282,-1.8404 -1.1338,-1.8297 z m -9.6617,0.7733 c -1.0277,-0.063 -1.8095,1.8383 -1.0202,3.7915 0.3959,0.9779 1.2911,1.768 1.9909,1.7556 1.5377,-0.027 1.5839,-2.4892 0.09,-4.7581 -0.3482,-0.5284 -0.7181,-0.768 -1.0607,-0.789 z m -7.253,1.1864 c -0.1884,-0.025 -0.309,0.4275 -0.3275,1.3258 -0.031,1.3006 0.2746,2.0238 0.6771,1.6068 0.4022,-0.4167 0.4267,-1.481 0.056,-2.3645 -0.1544,-0.3662 -0.2915,-0.5531 -0.4044,-0.5681 z m -313.6004,13.7601 c -6.0243,0.1067 -10.9485,0.426 -10.9435,0.7096 0.01,0.2835 -0.3121,1.3994 -0.7044,2.4794 -0.622,1.7099 0.8803,1.935 11.6314,1.7446 11.7378,-0.2079 12.3115,-0.3394 11.6572,-2.6729 -0.624,-2.2222 -1.7254,-2.4363 -11.6407,-2.2607 z m -32.7915,0.652 c -3.244,0.097 -8.1102,0.6493 -10.8129,1.2289 -4.4349,0.9508 -4.6126,1.1256 -1.8185,1.791 1.7025,0.4053 5.3185,0.8913 8.0358,1.0795 2.7163,0.1882 5.6151,0.4235 6.4409,0.5227 0.826,0.1 2.0754,-0.9394 2.7775,-2.3083 1.1954,-2.3318 0.9019,-2.4786 -4.6228,-2.3138 z m 104.9472,-1.4777 c -12.8761,0.167 -25.6546,0.9425 -26.0433,2.1673 -0.3721,1.1746 2.8954,1.5241 13.4838,1.441 7.6859,-0.06 19.2527,0.2 25.7025,0.5784 6.4509,0.3786 12.1143,0.7711 12.5842,0.8723 1.5357,0.3311 2.0629,-1.7634 0.8995,-3.5749 -0.7772,-1.2098 -13.7507,-1.6512 -26.6267,-1.4841 z m 82.7238,0.5909 c -1.3126,0.018 -2.5195,0.047 -3.618,0.086 -5.2728,0.1904 -8.0491,0.628 -8.037,1.3119 0.013,0.7423 5.5411,1.1787 13.8937,1.0967 7.6297,-0.075 21.6518,0.4582 31.1614,1.1847 12.3094,0.9403 29.3597,0.9169 59.1961,-0.081 23.0478,-0.7708 42.3882,-1.6943 42.9774,-2.0517 3.3366,-2.0236 -5.6313,-2.1925 -32.9494,-0.6207 -25.0777,1.4431 -35.9682,1.4924 -60.4264,0.2738 -18.6417,-0.9288 -33.0098,-1.3275 -42.1978,-1.2001 z" fill="#00B894" transform="translate(115.82839,251.96092) translate(-4514.3553,-1666.7191)"/>
</svg>