<?xml version="1.0" ?><svg height="94.554245mm" viewBox="0 0 151.62389 94.554245" width="151.62389mm" xmlns="http://www.w3.org/2000/svg">
    <path color="#000" d="m 5244.8856,95.37932 c -53.2235,0.34597 -120.416,38.47892 -103.459,133.5957 2.5295,14.18856 -95.0695,154.94042 -102.7324,170.7793 -7.6629,15.83889 -1.9372,41.72182 33.4296,41.58789 43.7875,2.51854 159.2384,-2.33228 185.6797,-5.43945 26.4412,-3.10716 36.0399,-16.59599 18.8614,-40.31641 -17.1784,-23.72042 -66.0648,-114.58074 -81.4297,-143.30859 -55.0674,-102.95991 49.7015,-144.26452 71.7461,-106.93164 -129.4949,199.05769 169.3366,204.63341 81.5976,12.20117 l 65.3457,8.18555 c -96.8432,140.95623 117.2762,214.34644 56.6719,14.62695 52.2367,-16.55941 50.9001,36.35102 55.5762,81.4668 l 30.4843,-0.60547 c 7.9438,-50.13189 -10.5033,-149.31702 -108.2929,-108.67578 -51.8232,-44.29917 -98.0604,-34.30717 -144.416,-25.46289 -3.7447,-20.19937 -29.2055,-31.89721 -59.0625,-31.70313 z m 63.1054,75.81055 c 17.3468,17.35456 17.2618,82.67944 -16.5898,79.19336 -33.8516,-3.48608 -3.1148,-69.72035 16.5898,-79.19336 z m 130.1856,33.79882 c 0,0 19.3679,54.33684 -3.0313,50.69922 -22.3993,-3.63762 3.0313,-50.69922 3.0313,-50.69922 z m 96.8379,81.58399 c -10.3996,19.89024 -25.8521,63.16333 3.789,61.875 29.6412,-1.28833 -3.789,-61.875 -3.789,-61.875 z" fill="#FFFFFF" overflow="visible" paint-order="fill markers stroke" transform="translate(158.10781,67.851093) matrix(0.26458333,0,0,0.26458333,-1489.3768,-91.691382)"/>
    <path d="m 5063.3671,445.73719 c -34.6271,-5.74776 -36.9307,-27.48773 -25.9559,-54.79941 33.7963,-84.10533 88.1453,-135.02786 96.8638,-162.73537 -0.02,-0.14381 0.071,-2.45631 0.2001,-5.13886 0.929,-15.03845 -3.2186,-30.54849 -0.3402,-45.6903 1.923,-12.47006 7.5055,-25.85552 13.3565,-36.9247 59.8695,-83.54243 144.9406,-43.01125 161.8475,-20.31339 0.7738,-0.40284 1.4273,-0.9358 1.4523,-1.18442 21.2749,-5.16545 43.7102,-8.06607 62.2621,-6.1108 26.6973,3.26261 56.2303,15.50237 73.5661,28.54276 3.5066,2.36025 1.7757,4.24774 6.4556,1.70985 43.8747,-24.04687 97.0889,7.97276 106.6323,53.77907 0.2969,1.44848 0.6892,2.76466 0.8714,2.92486 5.4857,19.44862 7.1028,44.02954 0.5886,62.17523 -3.0693,7.63656 -25.4469,7.91548 -32.3166,7.65 -16.4759,3.2376 -12.0648,-22.11512 -11.4731,-29.53682 2.1652,-33.78544 -18.197,-68.823 -36.1267,-56.47164 2.0349,4.3684 3.1063,9.47102 4.5624,13.24251 6.6995,28.83147 13.6015,63.13146 -7.0792,91.8422 -28.2121,31.39202 -82.1911,15.23243 -91.436,-21.70073 -1.929,-10.60125 -7.1783,-22.26574 -6.5236,-33.19481 -0.069,-34.94599 9.7391,-49.18714 23.9057,-63.1871 0.5528,-0.14347 0.4245,-0.38008 -0.4553,-0.83826 -13.7648,-6.14758 -28.3665,-8.07061 -43.7393,-7.02047 -1.453,-0.147 -1.9481,0.0375 -2.2448,0.8361 9.5274,20.75701 16.0499,43.93425 13.7448,66.19514 -6.4666,45.16796 -39.4634,77.76919 -79.2328,76.59941 -25.3394,0.23976 -49.9828,-15.71958 -59.9339,-40.95223 -9.3893,-20.5047 -17.1111,-57.42093 23.489,-113.20158 0.2605,0.0262 1.3319,-1.03472 2.3811,-2.35741 1.8172,-2.2912 1.8705,-2.45497 1.1267,-3.46335 -0.4294,-0.58211 -1.1163,-0.96686 -1.5266,-0.85491 -0.4101,0.11191 -0.7208,-0.045 -0.6903,-0.34879 -43.1442,-26.18619 -79.0571,28.88013 -67.6149,61.46213 0.2076,0.32569 0.5724,1.54036 0.8108,2.6993 8.9236,30.60375 14.2205,45.7034 34.1434,84.30352 7.4666,9.61818 11.8584,20.73927 18.5744,29.91089 1.3904,1.88092 2.7174,3.98744 2.949,4.6811 0.2317,0.69366 0.9397,2.35784 1.5734,3.69831 27.8598,45.05068 33.8057,63.37001 40.6488,82.85841 6.7465,23.34887 -34.5858,29.07683 -53.0274,28.66181 -38.5401,2.81685 -113.1695,6.06798 -172.2893,2.25275 z m 209.7115,-31.10854 c -9.2971,-30.80328 -24.6431,-49.61629 -38.5405,-74.21729 -3.798,-5.69946 -5.7281,-11.43772 -8.1981,-14.82889 -27.1895,-32.6264 -45.0488,-93.73767 -49.0925,-111.89545 -4.0841,-9.54202 -4.8404,-21.42811 -4.2894,-28.80595 0.3379,-4.40187 2.6418,-13.483 3.7012,-14.58933 5.5262,-13.48954 11.6117,-25.6268 21.6931,-34.1929 3.6896,-2.88598 7.8533,-4.90997 6.7251,-5.47803 -4.8836,3.09297 -10.3822,-0.6404 -10.1598,-3.98898 1.2294,-11.3489 9.5079,-9.58266 14.2363,-3.55122 1.5778,1.99 1.6715,2.31655 1.0856,3.7862 -0.7955,1.99587 -0.3915,2.58353 1.0472,1.5224 9.721,-2.61323 16.4645,-3.19375 27.7461,-2.51408 10.5616,0.63636 21.2803,4.58929 28.9265,9.48938 4.0543,2.64068 5.6425,3.0906 6.3,1.78481 2.8427,-2.77398 18.4473,-11.61802 16.7677,-11.86868 -9.0354,-10.5119 -23.7561,-12.57957 -32.9821,-16.39356 -0.8345,-0.68771 -1.6936,-0.97494 -2.4439,-0.81715 -19.053,-4.71156 -48.3619,-0.17974 -62.0415,9.554 -8.9147,4.8973 -18.921,12.6546 -25.0943,20.89205 -7.1874,10.18472 -14.2193,25.09828 -15.373,32.6034 -0.2228,1.45005 -0.5925,2.88107 -0.8215,3.18003 -1.2299,1.60574 -2.8838,14.12011 -3.0944,23.41349 -0.093,4.1049 -0.2859,9.77318 -0.4287,12.59621 -0.1427,2.82312 -0.1118,5.20605 0.069,5.29538 0.5887,0.29146 -1.2784,15.6427 -2.2779,18.72969 -5.3614,14.88363 -17.9234,24.94137 -23.3929,37.35364 -8.7675,21.98064 -21.7864,35.83184 -35.7596,63.39555 -0.045,0.44422 -0.2771,0.90332 -0.5168,1.02007 -12.6229,19.73183 -23.0783,40.08269 -34.1612,59.31448 -1.9535,3.35076 -3.8108,6.76262 -4.1275,7.58208 -3.348,14.00468 2.0275,25.76665 14.4106,27.78878 1.3499,0.21189 2.5922,0.55559 2.7607,0.76363 30.723,1.0336 215.225,9.46793 207.3266,-16.92376 z m -193.9043,7.41265 c -22.4294,-1.53139 -17.6441,-20.79266 -9.6594,-33.88659 8.5563,-14.08272 15.3971,-35.70183 28.8003,-37.40454 23.7646,-2.55038 56.5118,1.51626 80.4499,0 0.4962,-0.2024 1.195,-0.22578 1.5529,-0.052 1.5202,0.73846 1.904,-0.2171 1.6333,-4.06727 1.5153,-31.42885 40.7912,-14.53322 41.7879,7.37197 l 0.3762,2.7613 c 8.3857,1.08825 11.0042,3.63917 13.3111,6.8533 10.4673,21.46724 32.8765,51.06597 12.1497,54.17822 -43.4352,6.52573 -120.236,7.87435 -170.4019,4.24342 z m 49.7645,-9.12924 c 2.7604,-0.0475 5.1332,-0.18054 5.2729,-0.29478 0.1397,-0.11415 -0.4489,-1.65155 -1.3078,-3.41634 -0.8589,-1.7648 -1.515,-3.67349 -1.458,-4.24163 1.2779,-4.72016 7.0772,-3.328 9.4749,-1.02472 3.2118,3.14146 3.2906,3.31295 2.7097,5.89702 -0.468,2.08179 -0.4176,2.40856 0.3835,2.48892 0.5072,0.0511 1.1617,-0.0949 1.4542,-0.32398 12.5015,0.59681 25.8908,0.2506 33.8155,-0.50381 9.3282,0.68793 13.8968,0.76534 14.532,0.24604 0.4718,-0.38581 -0.05,-4.2238 -0.6858,-5.0385 -0.228,-0.29263 -0.3731,-0.94561 -0.3224,-1.45121 0.051,-0.50569 -0.192,-0.9776 -0.5395,-1.04865 -0.3476,-0.0708 -1.1558,-0.23716 -1.7963,-0.36914 -0.9815,-0.20213 -1.1609,-0.0278 -1.1432,1.1119 0.016,1.03028 0.3408,1.42155 1.3663,1.64573 1.355,0.29611 2.1863,1.71157 1.3736,2.33866 -0.8014,0.61832 -4.3312,0.9888 -5.4521,0.57217 -1.3796,-0.8389 -6.7794,-2.40488 -8.7459,-6.67849 -0.9841,-0.0988 -1.1276,-3.09299 -0.2204,-4.59652 4.868,-9.90946 25.4372,-4.55127 22.2477,0.53991 -0.1598,0.13064 0.2948,1.00806 1.0104,1.94982 1.4679,1.93172 2.6068,5.75878 2.3894,8.02935 -0.08,0.8337 -0.055,2.07041 0.056,2.74831 0.193,1.18465 0.3428,1.23545 3.8597,1.30821 4.4666,0.0925 7.5392,-0.0134 8.5971,-0.29505 0.4373,-0.11665 2.4864,-0.15554 4.5534,-0.0869 3.6291,0.12123 8.7088,-0.97849 7.3853,-1.59877 -0.8692,-0.4074 -3.1273,-0.48194 -3.8548,-0.12741 -0.3228,0.15743 -1.089,-0.19738 -1.7027,-0.78836 -0.6138,-0.59099 -1.5657,-1.20804 -2.1156,-1.37111 -0.8264,-0.24523 -0.9937,-0.82456 -0.9652,-3.34216 0.03,-2.59635 0.1996,-3.17121 1.1547,-3.89712 0.6161,-0.46842 1.6646,-0.93164 2.33,-1.02939 1.7814,-0.26171 5.4588,1.34432 6.781,2.96137 1.96,1.62906 1.9268,5.66623 0.3137,7.63934 18.411,-3.28303 15.636,-3.82375 12.38,-13.11516 -3.7173,-10.31579 -9.8669,-28.42241 -14.8778,-29.444 -4.2051,-1.94337 -9.7791,-2.37039 -10.8401,-0.17866 -4.1818,6.54069 -18.2254,6.13652 -23.787,3.14818 -1.2719,-0.67243 -4.9491,6.47305 -11.4789,1.38159 -1.8692,-2.19952 -2.2578,-4.05257 -1.3243,-6.31616 0.6926,-1.6795 1.0007,-1.92106 2.2855,-1.79213 0.8167,0.0815 1.9592,0.4755 2.5389,0.87447 0.5798,0.39898 1.4495,0.83299 1.9329,0.96452 1.4806,0.40292 1.3867,-2.36994 -0.1408,-4.15866 l -1.3073,-1.53095 c -2.1304,1.52459 -5.8352,1.98198 -8.3704,1.9999 -12.7671,-0.99005 -17.1316,-0.20804 -29.3249,-0.37469 -10.9833,-1.13834 -1.8225,0.95932 -5.236,7.22396 -0.3979,0.68282 -0.898,1.22381 -1.1116,1.20248 -8.8797,0.1516 -4.8949,-8.14152 -12.4894,-7.5009 -10.818,0.62252 -20.3793,-1.43589 -31.5275,0.4091 -0.2991,-0.36583 -0.615,-0.57163 -0.7022,-0.4574 -1.4768,1.93593 -2.9128,4.82786 -2.73,5.49787 0.1769,0.64815 0.8636,0.91201 2.754,1.05833 1.9575,0.15159 2.7648,0.478 3.6256,1.46626 1.3404,1.85708 0.3763,6.17173 -1.7465,6.83681 -2.8528,0.86918 -3.8687,0.57431 -5.7468,-1.66768 -2.0722,-3.19764 -4.1094,0.5418 -4.2593,1.92276 -4.1117,7.78977 -6.4766,13.66009 -9.824,21.77142 -2.2768,2.91407 -2.5756,3.63147 -2.4289,5.83091 0.082,1.24092 0.6154,2.38902 1.5258,3.28884 1.2466,1.23197 1.9825,1.45802 6.76,2.07588 2.9485,0.38142 5.4439,0.79473 5.545,0.91847 13.1148,0.0987 28.3339,0.8793 39.1549,0.71158 z m -41.6701,-7.81172 c -0.2196,-1.0026 -0.6508,-1.93575 -0.9584,-2.07382 -1.4034,-0.62978 0.4003,-4.19584 2.039,-4.03134 0.4441,0.0448 0.9714,-0.13305 1.1717,-0.39477 1.0307,-1.34548 7.8416,2.06558 8.43,4.22174 1.4669,6.68655 -9.9244,5.63558 -10.6823,2.27819 z m 18.628,-24.3349 c 0.6998,-1.27738 1.5177,-3.11046 1.8178,-4.07336 0.9662,-3.10141 5.4855,-6.06932 9.2369,-6.06609 8.8008,-1.19541 12.5746,5.11806 16.698,11.51334 2.1538,5.00051 -0.5165,9.14976 -4.3461,12.22447 -2.0432,1.59457 -4.0101,2.32452 -7.49,2.77985 -10.2022,-0.59896 -20.035,-8.7929 -15.9166,-16.37821 z m 14.5444,3.80932 c 1.0165,-0.80485 1.8905,-1.88602 1.9423,-2.40264 0.1205,-1.20087 -1.1195,-3.60423 -1.8999,-3.68263 -1.5385,-0.15437 -3.3675,4.30372 -2.7277,6.64857 0.3169,1.16091 0.5765,1.10644 2.6853,-0.5633 z m 25.6811,3.64598 c -2.1399,-3.07085 -3.0746,-5.49034 -3.167,-8.19716 -0.5301,-4.06324 -0.5481,-4.8473 1.9672,-6.88269 15.4137,-9.31605 29.4802,-5.17325 31.9135,8.46578 0.351,3.3883 -0.064,5.21761 -1.7812,7.84613 -7.6442,9.25549 -21.8677,10.66799 -28.9325,-1.23206 z m 18.9915,-8.98992 c 0.257,-5.87149 -9.0652,-6.03984 -10.6768,-1.19128 -0.5985,2.17004 0.9146,5.80357 1.9349,5.30613 3.2336,1.55971 8.4404,1.13054 8.7419,-4.11485 z m 34.3233,16.81213 c -5.9433,-5.12255 2.0694,-10.00865 5.8756,-6.00571 0.283,0.34603 0.9115,0.66902 1.3968,0.71776 7.0983,4.63048 -2.0062,12.1847 -7.2724,5.28795 z m 20.0716,-8.64838 c -2.2384,-1.29737 -3.1612,-2.54627 -3.7919,-5.13222 -0.4008,-1.64286 -0.341,-2.16996 0.3653,-3.22147 0.7921,-1.17955 1.0014,-1.21951 3.386,-0.64627 3.6448,0.87626 4.6236,1.48015 5.343,3.29575 1.176,2.96836 0,6.46507 -2.2351,6.66451 -0.6723,0.06 -2.0527,-0.37219 -3.0673,-0.9603 z m -7.3943,-29.76816 c 4.7595,-11.03221 -12.4356,-19.13888 -18.2897,-15.49747 -2.9863,1.87035 -2.8911,1.49135 -2.9491,3.6786 0.6038,4.24843 1.6096,3.1549 6.0384,3.89802 3.2668,0.52074 5.6243,2.99757 5.1465,5.40711 3.5577,4.58881 -5.4466,7.24985 -6.5655,2.80143 0.042,-0.41483 -0.516,-1.21995 -1.2391,-1.78908 -0.7232,-0.56912 -1.4658,-1.28742 -1.6503,-1.59617 -1.1108,3.76067 0.9151,10.57203 5.9604,10.5508 6.8027,-0.51931 11.994,-3.77438 13.5484,-7.45324 z m -81.4228,-35.79197 c -0.1007,-0.49063 -0.3756,-1.49179 -0.6109,-2.22479 -5.1768,-15.49101 17.0107,-31.54183 27.1916,-21.33428 0.1079,0.39548 1.3926,1.56213 2.855,2.59259 2.7239,1.91935 5.0433,4.51911 4.941,5.53819 -0.031,0.31448 0.6869,1.43364 1.5966,2.48695 2.0179,2.3366 3.158,5.62913 3.2203,9.29984 0.038,2.26511 -0.1743,3.04693 -1.1895,4.37243 -8.8245,11.14089 -31.945,16.5316 -38.0041,-0.73093 z m 21.9792,-1.37621 c 4.8118,-4.09577 6.0611,-8.49266 3.5713,-12.56916 -5.8792,-9.01385 -13.6145,2.20992 -14.3132,8.11984 -0.175,1.68551 0.081,2.57808 1.1804,4.11655 1.2854,1.79876 1.6394,1.98817 4.195,2.24468 2.662,0.26718 2.9103,0.17875 5.3665,-1.91191 z m 21.657,-20.46474 c -3.9841,-1.63847 -7.2401,-2.71265 -6.8792,-7.02282 3.7467,-32.46584 38.0558,18.87367 6.8792,7.02282 z m -25.2546,-50.10245 c 0.328,-3.26663 3.4054,-7.08329 4.8241,-5.98277 28.8901,8.00462 -4.892,21.48113 -4.8241,5.98277 z m 6.0402,-43.07076 c -0.446,-2.50084 2.3332,-5.80474 4.1537,-7.49741 2.8822,-2.7258 5.8089,-0.69142 7.9598,1.85672 1.7663,2.11961 1.949,2.6201 1.7351,4.75162 -0.6104,15.61259 -12.656,8.27377 -13.8486,0.88907 z m 2.8484,-31.38865 c -1.6692,-1.77334 -1.7784,-2.08873 -1.2971,-3.74141 0.7869,-8.64369 6.897,-12.26028 12.9195,-7.7729 2.7533,2.15069 3.4987,5.21866 3.4079,6.12262 -3.8745,11.40699 -9.5208,11.3151 -15.0303,5.39169 z m 87.1541,-65.19024 c 2.4464,3.9624 3.3155,12.48276 -4.0248,11.82982 -24.7296,-2.19978 -7.3999,-18.77392 4.0248,-11.82982 z m 90.0905,161.23319 c 10.6426,-10.84279 13.8233,-22.59769 20.5424,-34.71465 0.4504,-0.76561 2.2556,-7.8765 2.6818,-10.5645 2.945,-24.52404 -4.2796,-38.00303 -14.3354,-56.67006 -0.3311,-1.54282 -2.4594,-5.79737 -5.6284,-4.71578 -5.1839,1.24129 -12.4992,3.44673 -16.3015,6.15907 l -1.6024,1.23465 c 4.1239,7.06856 7.5965,13.66089 9.8991,19.87037 0.3047,0.79675 0.6866,4.13172 0.8487,7.411 1.3568,16.38941 -2.6642,39.29065 -12.063,47.87685 -28.431,24.59706 -49.3908,4.86451 -53.0893,-17.52998 -0.7377,-4.37297 -0.3608,-10.77694 1.3884,-23.5915 3.9035,-36.64742 46.3114,-48.61545 53.6769,-52.63207 12.9139,-5.39765 61.7322,-7.61117 81.2943,0.12849 16.4805,4.51796 37.2909,18.97199 46.4705,40.90899 5.1115,13.37202 6.6921,26.63618 7.4142,38.18536 0.2752,4.38382 0.047,6.64839 -1.1712,11.59237 -0.3069,1.24603 -0.6028,2.92508 -0.6576,3.73128 -5.9226,13.30708 -23.2529,15.63481 -32.5723,6.47564 -0.7106,-0.70979 -1.7326,-1.89507 -1.9583,-2.23545 -8.0672,-12.16462 -0.878,-44.18338 8.3644,-53.99832 0.7042,0.0708 1.4129,-0.93942 1.5387,-2.1931 -0.8881,-8.4606 -13.4829,-21.81128 -14.7517,-18.87389 -8.4889,13.57189 -18.2437,34.52155 -17.905,48.12323 0.8473,14.44245 3.4896,29.61387 6.5427,39.86425 0.5494,1.84069 3.0415,6.50476 3.9321,7.35907 3.1947,5.56561 8.8436,10.01761 14.6619,13.66896 18.222,9.3743 45.8869,2.35561 51.3354,-25.35899 0.264,-1.39225 0.9018,-4.23015 1.4173,-6.30639 2.0499,-17.65998 0.6321,-41.15383 -3.8087,-56.07312 -2.7182,-10.10673 -12.8177,-31.88491 -34.1078,-42.10596 0.9627,2.89637 2.9086,2.52627 2.7927,5.88825 -0.318,9.22035 -14.493,0.90322 -14.9296,-5.54413 1.4155,-3.16026 2.3312,-2.72987 6.0607,-4.15104 -0.8939,-0.60248 -2.6296,-2.88689 -6.4874,-5.22781 -37.8993,-22.99655 -96.2512,-24.79892 -131.3565,-4.92826 -14.1844,9.34876 -26.5173,18.82717 -35.8273,34.06399 -12.9313,14.54915 -17.2889,40.07512 -16.6649,58.4285 1.9363,15.9571 6.4175,35.91722 20.9188,46.20801 0.7864,0.50452 1.7967,1.47656 2.2452,2.15992 0.4486,0.68345 1.0645,1.26762 1.3687,1.29818 18.5163,13.9614 55.7028,9.717 69.8233,-13.22143 z m -30.3201,11.68035 c -3.3428,-0.54753 -8.3037,-2.07659 -8.2566,-2.54492 0.021,-0.20383 -0.5653,-1.30749 -1.3015,-2.45255 -1.9073,-2.96594 -1.6231,-3.91056 1.548,-5.14458 6.2713,-1.1292 16.3754,-0.64009 14.0562,6.20568 -0.7195,2.11136 -2.8603,4.92588 -3.39,4.45693 -0.065,-0.0573 -1.2604,-0.292 -2.6562,-0.52056 z m -33.8882,-8.18552 c -0.4321,-0.55281 -1.6737,-1.40873 -2.7591,-1.90206 -1.0916,-0.49619 -2.9217,-2.07668 -4.0951,-3.53658 -1.6713,-2.07929 -2.1458,-3.13815 -2.2363,-4.98932 -0.1807,-3.69974 0.4057,-4.15409 4.9904,-3.86576 5.0536,0.3178 8.1096,1.79248 8.327,4.01835 0.08,0.81802 0.5017,2.142 0.9375,2.9421 0.594,1.09076 0.6724,2.12364 0.3132,4.12757 -0.4547,2.53605 -0.5869,2.71211 -2.5855,3.4417 -2.0256,0.73954 -2.1363,0.73049 -2.8921,-0.236 z m 164.3188,7.41481 c -2.3381,-1.63121 -3.1882,-5.12362 -3.056,-6.43999 0.1547,-1.54206 3.9353,-3.68415 7.111,-4.02928 1.2875,-0.13986 5.1669,0.70236 5.8027,1.82411 7.2984,6.47359 -3.8485,14.21784 -9.8577,8.64516 z m -26.7314,-17.45293 c -2.4225,-4.58263 -2.4645,-5.46149 -0.3443,-7.19493 3.3241,-3.71999 9.5625,0.77349 11.519,2.97839 1.5463,1.74948 3.0892,3.04846 3.4907,2.93897 4.5463,12.62955 -10.3038,9.34634 -14.6654,1.27757 z M 5252.6172,241.1011 c 0.022,-0.21109 -0.7144,-1.27775 -1.6347,-2.37039 -1.9389,-2.30247 -2.2618,-5.45396 -0.75,-7.32314 0.8452,-1.04497 1.0339,-1.05411 4.7958,-0.23242 2.1539,0.47048 4.2463,1.21754 4.6498,1.66006 3.8089,4.46105 4.5787,8.45485 2.7283,12.02306 -4.2006,0.39441 -8.2877,1.60424 -9.7892,-3.75717 z m 210.7508,5.23114 c -0.129,-0.61374 -0.6277,-1.15545 -1.1083,-1.20356 -1.2773,-0.12822 -2.3106,-1.89221 -2.4669,-4.21143 -0.1092,-1.61858 0.108,-2.28563 1.0693,-3.28383 1.8804,-1.65567 7.3853,0.28725 9.7161,0.36797 1.0308,-0.50237 2.4294,1.99775 2.8053,5.01449 0.4827,3.87347 0.031,4.44439 -3.3569,4.24548 -1.1635,-0.0681 -3.0849,-0.0538 -4.2697,0.0314 -1.9087,0.13789 -2.1809,0.0287 -2.3889,-0.96039 z m -61.7257,-27.02684 c -0.333,-4.08958 -0.2239,-4.99075 0.6809,-5.62725 4.8738,-6.21572 9.9295,0.12436 11.1648,2.29369 0.8349,1.48077 1.0151,2.6062 0.82,5.12004 -1.4278,6.34187 -12.1409,2.50057 -12.6657,-1.78648 z m -57.6218,-7.38058 c -5.1987,-3.76345 -6.339,-5.01064 -6.3892,-6.98787 0.7649,-9.75761 11.7869,-6.33346 14.2677,-2.64913 2.3758,2.5348 0.2699,9.82874 -1.067,10.5543 -1.063,0.53274 -5.6644,-0.0869 -6.8115,-0.9173 z m 108.6152,-19.47941 c -1.0075,-1.27062 -1.8208,-2.41941 -1.8074,-2.55287 -6.5497,-9.46059 8.8661,-10.05321 10.6125,-6.94233 1.9902,2.434 3.0989,2.94204 2.7021,6.63892 0.037,7.38385 -8.3814,6.71626 -11.5072,2.85628 z m -146.146,-48.27454 c 0.6099,-1.89885 0.1556,-1.55132 3.5805,-2.73912 5.8926,-1.88934 6.4681,-2.04055 9.0846,2.55414 1.1226,1.98688 0.3749,3.76344 -0.1254,5.2567 -12.7091,10.20002 -13.2601,-1.94918 -12.5397,-5.07172 z m 0.7217,91.83707 c 1.2146,-0.79804 3.1516,-6.75286 4.1414,-12.73195 0.4109,-2.48212 1.8458,-9.81673 2.4746,-12.64881 0.2157,-0.9715 0.6922,-4.40595 1.0586,-7.63208 0.8964,-7.22301 -0.9273,-12.75115 -3.3423,-17.16718 -0.9667,-1.76354 -1.9907,-3.98432 -2.2757,-4.9351 -0.6481,-2.16149 -1.7672,-2.31111 -3.8679,-0.51715 -6.875,4.50996 -13.5645,9.35256 -17.6265,15.90638 -1.6923,2.80482 -2.8524,7.74468 -4.4318,18.87212 -0.1685,5.38677 -1.3557,14.39282 0.2899,19.00377 6.6897,13.15046 20.5942,6.58782 23.5797,1.85 z m 130.4951,11.19375 c 1.0216,-3.10007 1.434,-6.3563 1.5996,-12.63107 -0.6708,-6.09656 -0.086,-13.29919 -1.8048,-19.05196 -2.6369,-0.0394 -6.173,17.1292 -6.0875,25.22432 0.2543,4.427 3.7207,14.14374 6.2927,6.45871 z m 103.0601,10.62454 c 7.296,-0.71795 7.5069,-1.60899 8.3215,-11.58932 0.6044,-7.55189 0.02,-10.10765 -1.1134,-4.8629 -4.1551,10.01178 -13.678,5.18625 -13.7259,0.16441 0.057,-0.57172 -0.1256,-1.06253 -0.4065,-1.09075 -0.2654,4.98394 -0.4851,11.12565 -0.6908,15.38063 -0.525,3.30058 4.3937,1.88835 7.6151,1.99793 z m 8.3942,-24.48219 c 0.2278,-6.64015 -1.9358,-15.48098 -3.5728,-22.51141 0.062,-0.61545 -0.1064,-1.28447 -0.3699,-1.48624 -0.2635,-0.20178 -0.5249,0.0899 -0.5809,0.64823 -0.056,0.55828 -0.4903,1.33267 -0.965,1.72081 -5.1398,6.16483 -13.2919,-2.63506 -12.3384,-6.59302 1.0782,-5.79309 11.2877,-3.55387 12.4885,0.2489 0.1179,0.56052 0.4126,1.03897 0.6551,1.06334 0.2448,0.0242 0.3035,-0.59976 0.1321,-1.40542 -3.8483,-18.13394 -15.5503,-37.2376 -28.1053,-45.58956 -1.3728,-0.82835 -2.8196,-1.75235 -3.215,-2.05337 -9.26,-9.29787 -43.0658,-12.63276 -51.285,-4.05272 -0.9953,1.06798 -1.0729,1.38779 -0.5793,2.38849 4.6146,3.38892 10.7241,9.88073 13.5187,15.17731 0.4465,0.96508 1.2773,1.00938 3.4877,0.18584 7.6455,-3.94257 10.4198,-5.17599 19.405,-2.38173 9.2421,1.97997 2.412,2.60874 2.1332,-1.96775 0.026,-0.25778 -0.4591,-1.2092 -1.0775,-2.11427 -2.4196,-2.7474 1.0385,-4.86463 3.218,-4.82846 7.9312,0.10013 7.1798,1.71537 11.6641,3.8578 1.3514,0.63655 1.8377,1.21249 1.944,2.3025 0.1433,1.46623 -0.9768,3.93906 -2.5054,5.53114 -1.1526,1.20038 -4.6501,1.27086 -5.4322,0.10943 -5.8892,-1.81971 -3.3025,-0.77496 -1.3276,1.10296 8.9715,6.596 15.9128,14.93965 19.6567,23.89817 2.0939,5.16258 3.2002,8.07082 3.6729,9.65463 2.2707,6.34133 5.0552,16.60587 4.2004,23.28839 -0.1048,0.64922 0,1.64653 0.2368,2.21628 0.4847,1.17444 1.6249,0.65102 1.7297,-0.39342 5.8708,-6.45531 11.2654,-1.3772 12.9571,3.87849 0.1924,0.0269 0.3067,-0.82591 0.2543,-1.89525 z m -35.4325,88.94081 c 2.0131,-13.52642 13.0972,-23.51768 15.6754,-35.17035 0.8986,-3.12318 4.5005,-7.11742 7.1766,-5.15354 1.1688,0.85771 2.5101,3.85806 2.4344,4.61247 5.599,11.58645 8.7641,19.10904 12.1982,30.52113 1.8862,6.14109 2.931,11.65778 2.7592,16.5635 -2.0385,38.08547 -45.153,21.61185 -40.2438,-11.37321 z m 29.8622,9.23183 c 0.3383,-10.37492 -4.8378,-18.57217 -7.3095,-27.49983 -0.2162,-0.80144 -0.5935,-1.47728 -0.8387,-1.50192 -6.4126,8.11725 -11.1365,21.76354 -9.9368,29.34796 3.9732,21.24772 19.3443,10.75758 18.085,-0.34621 z" fill="#00B894" transform="translate(158.10781,67.851093) matrix(0.26458333,0,0,0.26458333,-1489.3768,-91.691382)"/>
</svg>