<?xml version="1.0" ?><svg height="143.68535mm" viewBox="0 0 208.03105 143.68535" width="208.03105mm" xmlns="http://www.w3.org/2000/svg">
    <path color="#000" d="m 3205.5574,3403.3603 125.0377,-15.2289 30.3982,-26.5365 228.3915,-38.5737 25.6358,-26.6278 c 0,0 204.1975,-35.1216 245.4145,-39.2121 41.2169,-4.0904 110.9533,36.4764 106.6975,167.5177 -4.2557,131.0413 -32.5392,169.9635 -125.095,163.6339 -92.5558,-6.3296 -214.8578,-6.0561 -214.8578,-6.0561 l -34.4512,-37.3883 -235.6871,-17.0527 -22.7986,-25.7158 -121.39,-11.8548 c 0,0 -29.5875,-37.8442 -7.2955,-86.9049 z" fill="#FFFFFF" overflow="visible" paint-order="fill markers stroke" transform="translate(68.840674,-16.426301) matrix(0.26458333,0,0,0.26458333,-912.79694,-842.76145)"/>
    <path d="m 3357.9297,3786.3216 c -2.8746,-3.3487 -1.6103,-16.7949 4.4778,-35.8522 3.1167,-9.7564 6.1776,-18.939 6.8019,-20.4056 0.6243,-1.4667 2.0988,-5.6667 3.2766,-9.3334 1.1778,-3.6666 4.1303,-12.3666 6.5609,-19.3333 2.4307,-6.9666 5.7072,-17.1666 7.2812,-22.6666 1.5739,-5.5 3.6752,-11.8001 4.6694,-14.0001 0.9943,-2.2 4.0198,-11.8 6.7234,-21.3334 5.4571,-13.1714 6.4698,-27.8383 11.3045,-40.6666 2.5067,-6.5508 9.3731,-27.7907 12.0691,-37.3334 0.9323,-3.3 2.535,-8.6486 3.5615,-11.8858 2.1229,-6.695 1.495,-9.7583 -1.9084,-9.3089 -2.1095,0.2786 -7.1186,-0.2157 -23.6758,-2.3363 -2.9333,-0.3757 -12.2046,-2.1349 -20.6029,-3.9094 -16.3793,-3.3056 -24.677,-1.5237 -33.5843,-10.8929 -3.9929,-4.2167 -8.6581,-9.9569 -10.367,-12.7562 -3.0073,-4.9259 -3.284,-5.0586 -8.6098,-4.1302 -27.8755,1.1482 -56.9953,-2.0905 -86.1693,-7.577 -18.458,-3.8205 -26.8359,2.2124 -38.976,-15.5833 -3.6202,-5.4861 -8.7248,-18.408 -10.1207,-25.6199 -1.5671,-8.0961 -0.9468,-33.6812 1.012,-41.7446 3.0723,-12.6471 14.1023,-22.1242 26.8155,-23.0401 3.4161,-0.2461 8.8492,-1.3376 12.0735,-2.4257 5.536,-1.8681 20.3343,-4.1917 35.1957,-5.5264 3.6667,-0.3293 8.4667,-0.8951 10.6667,-1.2572 2.2,-0.3622 6.9719,-1.0059 10.6043,-1.4304 6.5951,-2.4996 13.8126,-1.9623 19.6233,-3.1254 3.9081,-0.7973 15.9108,-1.6634 18.4238,-1.9248 21.2749,-33.4928 27.3462,-31.853 70.0152,-38.8251 34.4519,-1.6481 66.2364,-7.1414 100.6667,-11.5061 6.2333,-0.7838 14.3333,-2.0048 18,-2.7133 3.6667,-0.7085 10.2667,-1.6244 14.6667,-2.0354 4.4,-0.411 10.7,-1.3115 14,-2.0013 3.3,-0.6897 8.7,-1.5455 12,-1.9017 8.171,-0.7659 19.0657,-4.4031 25.9673,-7.961 2.182,-1.1377 5.032,-1.7902 6.3333,-1.4499 1.3014,0.3403 2.366,0.075 2.366,-0.5898 11.9252,-16.9206 19.2913,-24.8907 44.6667,-29.8511 3.6667,-0.2193 8.1667,-0.9899 10,-1.7124 34.3746,-10.7586 67.0803,-12.2675 100.6667,-17.7146 4.4,-0.7294 9.2,-1.3879 10.6666,-1.4634 1.4667,-0.076 11.9667,-1.2552 23.3334,-2.6215 29.9666,-3.602 29.9776,-3.6032 46,-5.2287 8.0666,-0.8184 21.9993,-2.6723 30.9616,-4.1198 10.1567,-1.9806 31.3333,-4.3251 46.2852,3.8635 15.6449,6.581 24.8378,16.5651 35.5952,27.297 2.0797,2.0117 4.6872,5.6117 5.7944,8 1.1073,2.3884 3.5297,6.7425 5.3833,9.6759 3.642,5.7636 3.5436,5.5564 8.1895,17.2571 3.2746,8.247 8.4574,28.388 8.4574,32.8662 0,1.4187 0.5767,3.6214 1.2815,4.8947 1.6259,2.9374 5.7737,28.0602 6.1711,37.3765 0.355,8.3272 1.6681,23.0173 2.6462,29.6054 2.0542,13.8349 0.061,72.4248 -2.7654,81.3333 -7.1441,31.0763 -15.367,46.6357 -26,62.8986 -30.5118,33.1856 -36.4051,38.798 -106.1586,40.9675 -3.7538,-0.7238 -7.3538,-1.1785 -8,-1.0106 -0.6461,0.168 -5.3748,-0.1189 -10.5081,-0.6374 -22.5983,-2.2829 -63.3044,-4.1989 -76,-3.5773 -4.4,0.2155 -9.2,0.3938 -10.6667,0.3963 -5.6012,0.01 -30.3938,-1.7477 -33.1309,-2.3481 -1.578,-0.3461 -10.6691,-0.9422 -20.2024,-1.3246 -9.5333,-0.3823 -19.7333,-0.9518 -22.6667,-1.2654 -2.9333,-0.3136 -9.8333,-0.9356 -15.3333,-1.3822 -24.2466,-0.378 -28.1351,-5.2295 -38.4525,-19.9001 -7.4646,-12.0364 -10.4781,-18.2203 -23.7696,-18.1082 -7.7234,0.2202 -52.2883,-2.4611 -53.5551,-3.2222 -0.7921,-0.476 -21.6897,-1.6449 -51.1483,-2.8609 l -10.2586,-0.4234 1.4272,3.5656 c 2.5711,6.4233 5.9518,14.1035 9.5516,21.6989 1.9462,4.1066 3.5386,7.9043 3.5386,8.4393 29.2702,70.5728 51.7163,122.532 73.6199,170.0943 1.5212,3.3 3.568,6.935 4.5484,8.0779 2.9281,3.413 3.3529,11.4248 0.7627,14.3839 -2.3572,2.6929 -13.1172,4.8285 -15.8098,3.1377 -2.2336,-1.4025 -8.677,-13.4941 -7.8789,-14.7855 -23.7246,-46.0729 -34.0748,-83.1718 -56.4403,-135.4298 -3.8125,-12.507 -13.062,-29.4133 -14.4584,-37.3843 -0.3854,-2.2 -1.7085,-5.5 -2.9403,-7.3334 -1.2318,-1.8333 -3.0504,-5.8919 -4.0412,-9.019 -0.9908,-3.1272 -2.6026,-6.3507 -3.5818,-7.1633 -0.9791,-0.8126 -1.7803,-2.704 -1.7803,-4.2031 0,-3.4281 -0.9394,-2.5736 -1.9224,1.7489 -0.4132,1.8168 -1.6481,7.2033 -2.7441,11.9699 -1.0961,4.7667 -2.2954,11.3667 -2.6652,14.6667 -0.89,7.9422 -5.1677,35.8655 -8.1703,53.3333 -0.3152,1.8334 -0.8435,9.6334 -1.1741,17.3334 -0.3307,7.7001 -0.9949,21.2001 -1.4761,30.0001 -0.4812,8.7999 -0.9438,19.1923 -1.028,23.0941 -0.1376,6.3768 -0.6141,7.4706 -4.7118,10.8162 -7.8429,9.4783 -17.0227,-1.2327 -16.7498,-10.6173 0.4489,-6.6993 1.0637,-8.0643 1.3664,-16.3067 0.3026,-8.2425 0.8899,-21.4363 1.3051,-29.3197 0.4153,-7.8834 0.2522,-14.3334 -0.3623,-14.3334 -0.6145,0 -1.8911,3.75 -2.837,8.3333 -0.9458,4.5835 -2.2786,9.5335 -2.9618,11.0001 -0.6832,1.4667 -2.9723,7.7667 -5.0869,14 -2.1147,6.2334 -5.6444,16.4333 -7.8439,22.6667 -2.1995,6.2333 -6.1936,18.5333 -8.8758,27.3333 -2.6821,8.8 -6.0433,19.2034 -7.4693,23.1187 -1.426,3.9152 -2.5926,9.6757 -2.5926,12.801 0,3.1253 -0.6591,7.5729 -1.4646,9.8836 -4.1041,8.7997 -13.5392,4.4518 -17.6776,1.1212 z m 482.1323,-202.4237 c -33.133,-25.6207 -52.2554,-56.8943 -58.191,-95.1675 -4.1101,-26.503 -4.5122,-31.0068 -4.7072,-52.7277 -0.1776,-19.7779 0.2148,-24.0556 3.7911,-41.3333 7.8364,-37.8582 18.5893,-74.3111 26.5304,-89.9389 1.8631,-3.6667 8.15,-12.5943 13.9708,-19.8391 l 10.5833,-13.1725 -7.8172,0.9678 c -7.755,1.2583 -16.3962,15.8284 -23.5573,28.0438 -34.8704,52.7262 -42.5183,125.085 -34.7495,185.9999 1.148,7.7 2.2904,15.5 2.5386,17.3333 4.3692,18.9003 15.2538,43.5611 27.9941,58.3633 12.6955,15.7229 9.3831,22.442 45.5895,25.9059 2.8353,-0.542 2.718,-0.8056 -1.9756,-4.435 z m 109.8228,-78.4377 c 0.3832,-4.7318 1.0334,-9.1481 1.445,-9.8139 1.491,-2.4124 3.7358,-52.0031 2.8959,-63.9732 -3.2705,-46.6147 -4.2453,-54.7058 -9.8984,-82.1605 -4.2499,-20.6395 -15.0169,-48.2813 -20.8805,-53.6053 -1.3063,-1.186 -2.375,-2.6014 -2.375,-3.1454 0,-0.5439 -1.1584,-2.2736 -2.5741,-3.8436 -1.4157,-1.57 -4.4735,-5.0995 -6.7948,-7.8433 -4.2875,-5.0675 -6.0359,-6.2407 -18.0608,-12.119 -7.0815,-3.4617 -11.8743,-4.4689 -15.2369,-3.2019 -1.1,0.4145 -3.5,1.0896 -5.3334,1.5004 -4.3932,0.9842 -20.8543,13.1753 -19.6575,15.1118 0.5068,0.8199 7.2295,1.7108 11.4029,1.7271 5.4718,0.021 8.5176,0.7567 10.9213,2.637 1.8333,1.434 3.9333,2.626 4.6667,2.6488 26.7306,12.3333 30.8232,42.419 40.0481,64.8339 0.9533,2.2822 2.1589,7.0822 2.6792,10.6667 0.5201,3.5845 1.3153,7.1172 1.7671,7.8506 0.9377,1.5225 1.0844,2.7001 2.1586,17.3333 0.4307,5.8667 1.1144,11.5667 1.5195,12.6667 3.3557,9.1145 2.3284,59.4945 -1.514,74.2465 -1.0956,4.2059 -1.9919,9.4013 -1.9919,11.5455 0,2.1442 -0.5761,6.0681 -1.2802,8.7198 -0.7043,2.6518 -2.2506,10.2214 -3.4363,16.8214 -1.1857,6.6 -3.866,15.6217 -5.9561,20.0483 -2.09,4.4266 -4.2027,9.652 -4.6946,11.612 -12.8701,26.0711 -39.9274,31.9901 -53.8103,29.3354 50.0151,16.7615 83.2977,-18.9299 93.9905,-69.5991 z m -174.7948,75.8302 c 6.8349,0.1154 12.7602,-0.329 13.1674,-0.9877 0.4071,-0.6588 -0.893,-2.6692 -2.8893,-4.4677 -1.9963,-1.7984 -4.676,-4.7327 -5.9549,-6.5206 -6.1723,-8.6287 -13.008,-18.7631 -13.008,-19.2852 0,-0.3205 -2.3326,-5.5438 -5.1834,-11.6075 -2.8508,-6.0636 -5.5734,-12.183 -6.0504,-13.5985 -1.4677,-4.3566 -6.2621,-26.49 -6.8073,-31.4263 -4.5912,-41.5681 -1.0609,-108.3048 6.8697,-129.868 1.1055,-3.0058 3.528,-10.2652 5.3832,-16.1319 1.8552,-5.8666 4.1523,-12.4666 5.1046,-14.6666 0.9522,-2.2 2.0976,-4.9 2.5453,-6 1.9839,-4.8755 18.7864,-33.6271 22.1347,-37.8757 1.102,-1.3983 4.0613,-4.8903 6.5764,-7.76 l 4.5728,-5.2176 -8.5728,0.8771 c -4.7151,0.4824 -15.7728,1.7541 -24.5728,2.8259 -8.8,1.0719 -23.7276,2.8317 -33.1726,3.9108 -9.4449,1.0791 -17.5449,2.1815 -18,2.4496 -0.455,0.2682 -5.0274,0.8884 -10.1608,1.3782 -20.7971,2.0731 -39.1738,6.7397 -59.3333,10.0256 -3.3,0.5322 -12.7307,2.3421 -20.9572,4.022 -8.2656,0.9068 -16.2689,7.094 -20.9397,14.6377 -3.2904,6.3709 -6.5879,13.9406 -7.3278,16.8216 -4.8844,19.0206 -10.6261,43.8834 -11.8328,51.2381 -1.6114,9.8228 -1.423,57.0739 0.2383,59.7567 0.5984,0.9662 1.2809,6.0662 1.5169,11.3334 0.4958,11.0683 0.9076,13.9332 5.4967,38.2431 3.1076,16.4615 10.5192,42.3885 12.5781,44 0.4684,0.3667 1.6819,2.9863 2.6967,5.8214 1.0148,2.835 3.1885,6.6043 4.8305,8.3761 11.7683,19.0581 23.3726,25.344 40.6424,25.4035 51.2907,2.5497 84.0638,6.4569 106.8534,4.6128 0.6209,-0.2917 6.721,-0.4359 13.556,-0.3203 z m 121.4402,-56.2711 c 1.8102,-6.0256 3.8503,-14.5556 4.5336,-18.9556 0.6834,-4.4 2.1068,-12.8 3.1631,-18.6667 2.3543,-13.0745 4.1219,-30.9641 2.9487,-29.8431 -0.4739,0.4528 -1.4599,4.5378 -2.191,9.0775 -2.0921,12.991 -15.1669,51.1168 -20.148,58.7514 -6.7624,10.3647 -16.6392,14.9493 -21.5742,10.0142 -1.1,-1.1 -2.7086,-2 -3.5746,-2 -1.0145,0 -1.3805,-1.6613 -1.029,-4.6717 0.4493,-3.8483 0.1618,-4.55 -1.6304,-3.9812 -1.1967,0.3798 -3.2355,-0.4803 -4.5306,-1.9113 -2.0078,-2.2188 -2.1289,-3.2857 -0.8221,-7.2456 0.8429,-2.5539 2.3128,-5.2912 3.2665,-6.0827 1.497,-1.2423 4.7378,-7.8521 12.1468,-24.7742 0.9632,-2.2 2.0734,-5.7999 2.467,-7.9999 0.3936,-2.2 1.6904,-7.5498 2.8818,-11.8885 2.5259,-9.1976 3.2411,-36.7459 1.5019,-57.8495 -1.3801,-16.7467 -0.2675,-20.3791 7.1333,-23.2863 4.5074,-1.7705 5.4916,-1.7817 7.9068,-0.09 1.75,1.2258 2.7587,3.3992 2.7587,5.9443 0,4.8828 -2.3048,9.5511 -4.152,8.4095 -0.866,-0.5352 -1.0815,0.888 -0.5997,3.9627 0.4134,2.6388 1.0437,6.7479 1.4005,9.1312 1.5175,10.1365 0.4287,48.8446 -1.46,51.9005 -0.3491,0.5648 -1.8425,5.6933 -3.3188,11.3966 -2.2573,8.7204 -8.166,23.2629 -13.28,32.6847 -0.6912,1.2734 -1.2567,3.4774 -1.2567,4.8977 0,1.4204 -1.5,4.3651 -3.3333,6.5439 -4.1688,4.9543 -4.1556,5.3639 0.1456,4.5417 2.2732,-0.4346 4.7723,-2.7044 7.2108,-6.5496 4.1428,-6.5325 11.2023,-23.5132 13.1991,-31.7489 0.7112,-2.9333 1.9816,-7.7332 2.8232,-10.6666 6.1233,-21.344 7.5633,-51.2139 3.1446,-65.2315 -2.4997,-7.9304 -1.7894,-11.664 2.3754,-12.4859 6.355,-1.2541 13.1013,12.8917 13.1013,27.4716 0,3.8019 0.4509,6.9125 1.0021,6.9125 1.0362,0 -0.1728,-28.891 -1.4881,-35.5643 -0.4087,-2.0729 -1.0412,-5.869 -1.4057,-8.4357 -1.9611,-13.8074 -9.3762,-41.5407 -13.374,-50.02 -1.0424,-2.211 -2.4715,-5.511 -3.1756,-7.3334 -4.036,-10.4453 -23.0639,-30.9683 -30.4254,-32.8159 -16.4522,-9.7373 -27.0846,6.3002 -32.7542,17.5026 -4.0346,8.0708 -11.1571,28.6532 -12.4579,36 -0.5193,2.9334 -1.7445,6.9157 -2.7225,8.8497 -2.426,4.7971 -8.9807,30.897 -11.8448,47.1651 -3.47,19.7091 -1.6232,61.3918 3.7505,84.6518 3.9819,19.7507 16.2101,45.2617 26.1469,55.9122 30.498,29.1078 60.1156,2.9332 67.5404,-21.6233 z m -26.125,-160.2432 c -9.717,-7.2379 -16,-17.3221 -16,-25.6798 0,-4.3546 0.5905,-5.5402 3.3961,-6.8185 1.8677,-0.851 4.2467,-1.5473 5.2864,-1.5473 2.3453,0 4.6508,4.1204 4.6508,8.3121 0,3.2044 6.4259,14.3545 8.2725,14.3545 1.6991,0 2.737,-6.4215 1.8242,-11.2869 -0.5555,-2.9608 -2.2726,-5.6062 -4.8135,-7.4154 -6.596,-4.6969 -4.4423,-11.1469 3.2445,-9.7163 4.8143,0.896 11.1716,6.2981 13.0455,11.0853 2.0487,5.2337 2.5531,14.6009 1.0695,19.8613 -3.1543,11.1833 -11.7386,14.9868 -19.976,8.851 z M 3580.144,3536.915 c 3.2041,-0.8041 3.2086,-0.8316 1.3097,-7.8291 -4.6119,-16.9948 -7.0485,-28.1808 -7.0485,-32.3573 0,-2.4747 -0.9635,-8.5867 -2.1412,-13.5822 -1.1776,-4.9954 -2.3466,-14.2051 -2.5975,-20.466 -0.2511,-6.2608 -1.0492,-14.0608 -1.7739,-17.3333 -1.4797,-6.6833 -2.1602,-23.5572 -1.0733,-26.6166 0.3907,-1.1 0.7033,-4.7 0.6947,-8 -0.025,-9.7942 2.428,-32.3584 3.9873,-36.6667 0.7961,-2.2 2.77,-9.8839 4.3861,-17.0754 3.8364,-17.0709 3.5624,-17.4518 -12.1489,-16.8881 -3.3,0.1184 -10.2,1.1181 -15.3333,2.2215 -8.8116,1.894 -15.6754,2.8833 -39.3334,5.6691 -26.664,3.1398 -44.6108,5.5053 -55.4425,7.3077 -6.5399,1.0883 -16.3908,2.3116 -21.8908,2.7185 -17.1739,1.2706 -25.6604,2.1271 -36,3.6334 -5.5,0.8012 -11.5,1.5897 -13.3333,1.7522 -7.3912,0.655 -32.0801,6.5062 -37.6518,26.2248 -6.3037,22.3093 -11.3397,47.0006 -6.0023,84.7984 1.9013,13.4643 11.2751,29.6489 17.9162,38.4738 3.0402,4.0399 10.4158,7.0188 17.0712,6.8947 1.4667,-0.027 5.6723,0.5792 9.3459,1.3478 3.6735,0.7686 9.9268,1.7688 13.8961,2.2226 3.9693,0.4538 7.6535,1.0949 8.187,1.4247 0.5335,0.3297 5.2412,0.8819 10.4615,1.2272 l 9.4916,0.6277 -3.4603,-2.9765 c -4.0245,-3.4617 -5.1825,-11.255 -1.9218,-12.9328 8.8139,-4.535 14.2485,-4.7418 22.9572,-0.8734 11.1174,2.061 9.634,15.3368 15.8889,22.4324 29.3062,4.8305 53.0443,-1.0846 86.4507,3.5367 8.8422,-2.1779 27.5465,2.7722 35.1087,1.0842 z m -256.734,-43.1992 c 0.2698,-0.8092 -0.3802,-3.162 -1.4444,-5.2284 -2.7353,-5.3112 -6.1412,-26.9189 -6.4769,-41.0903 -0.2725,-11.5038 1.0238,-37.3168 2.2599,-45 0.5468,-3.3984 0.2574,-3.6666 -3.9566,-3.6666 -2.5006,0 -5.9356,0.5182 -7.6333,1.1516 -1.6978,0.6334 -11.1868,1.564 -21.0868,2.068 -27.2763,1.3886 -27.3783,1.4157 -29.8205,7.931 -1.1372,3.0338 -2.1914,9.416 -2.3428,14.1827 1.6388,13.8141 2.3974,34.8813 6.7349,47.3834 2.6239,7.4654 2.6241,7.5424 0.036,10.3204 -5.677,10.5555 -15.3307,-5.499 -17.5368,-11.0371 -8.1912,-22.4334 -11.0222,-47.9481 -6.7464,-60.8014 1.3373,-4.0201 1.2595,-4.1399 -2.8078,-4.323 -21.9363,-1.0929 -22.5796,24.9971 -22.7222,38.4577 1.1985,13.0351 2.4398,38.4435 15.8722,40.473 2.9334,0.4189 8.0334,1.3573 11.3334,2.0854 11.1423,2.4584 58.3882,7.9332 73.3333,8.4978 10.7628,0.4066 12.4624,0.2231 13.0048,-1.4042 z m 585.2716,-45.9698 c -0.319,-1.6585 -0.592,-0.6155 -0.6068,2.3178 -0.015,2.9333 0.2461,4.2903 0.5798,3.0155 0.3338,-1.2748 0.3459,-3.6748 0.027,-5.3333 z" fill="#00B894" transform="translate(68.840674,-16.426301) matrix(0.26458333,0,0,0.26458333,-912.79694,-842.76145)"/>
</svg>