<?xml version="1.0" ?><svg height="95.072449mm" viewBox="0 0 98.100739 95.072449" width="98.100739mm" xmlns="http://www.w3.org/2000/svg">
    <path d="m 32176.293,5830.9863 a 179.11125,172.63751 0 0 1 -179.111,172.6375 179.11125,172.63751 0 0 1 -179.112,-172.6375 179.11125,172.63751 0 0 1 179.112,-172.6375 179.11125,172.63751 0 0 1 179.111,172.6375 z" fill="#FFFFFF" transform="translate(20.324168,-176.9816) matrix(0.26458333,0,0,0.26458333,-8437.243,-1317.6158)"/>
    <path d="m 31829.199,5913.4838 c -37.073,-83.953 -12.422,-179.171 55.985,-233.537 48.851,-30.784 121.654,-40.328 174.953,-21.231 77.22,27.666 147.414,118.359 114.131,214.855 -61.277,189.22 -293.609,156.448 -345.069,39.913 z m 198.146,76.933 c 2.024,-0.119 4.724,-1.502 6,-3.073 5.416,-6.668 14.396,-17.09 22.082,-25.627 4.531,-5.033 9.138,-10.354 10.238,-11.825 1.1,-1.472 6.57,-7.554 12.155,-13.517 5.585,-5.963 12.951,-14.141 16.369,-18.174 3.418,-4.034 7.001,-8.234 7.963,-9.334 0.961,-1.1 4.395,-5.497 7.63,-9.771 3.236,-4.275 7.533,-9.914 9.55,-12.532 5.629,-7.308 4.601,-9.499 -1.892,-4.028 -1.957,1.649 -5.219,4.198 -7.248,5.665 -5.146,3.719 -9.757,7.503 -25.973,21.313 -7.762,6.611 -17.276,14.42 -21.142,17.353 -26.054,19.769 -41.275,33.275 -53.412,47.395 -2.566,2.986 -5.566,6.454 -6.666,7.706 -3.751,4.27 -6.53,9.259 -5.648,10.14 9.792,0.429 20.765,-1.165 29.994,-1.691 z m -38.299,-8.565 c 6.254,-8.857 37.416,-40.111 44.619,-44.75 7.075,-4.557 26.64,-19.985 40.793,-32.168 8.135,-7.003 21.935,-18.561 30.666,-25.684 18.43,-15.035 34.108,-31.984 49.208,-53.196 2.2,-3.09 4.58,-6.395 5.289,-7.344 1.985,-2.655 -2.971,-29.946 -7.966,-43.861 -5.419,-15.099 -15.434,-35.148 -19.3,-38.636 -2.355,-2.124 -4.843,-2.656 -12.482,-2.666 -8.562,-0.01 -10.247,-0.473 -16.415,-4.49 -3.781,-2.462 -8.581,-6.618 -10.667,-9.235 -2.086,-2.618 -4.475,-5.443 -5.308,-6.278 -0.834,-0.835 -2.258,-4.831 -3.164,-8.88 -1.308,-5.844 -1.308,-7.996 0,-10.441 1.415,-2.643 1.296,-3.289 -0.836,-4.551 -4.34,-2.57 -19.73,-8.663 -22.063,-8.735 -3.36,-0.104 -13.432,10.89 -24.186,26.4 -5.263,7.591 -12.097,16.973 -15.187,20.849 -9.136,11.461 -27.272,43.003 -29.141,50.681 -3.6,6.967 -5.188,15.2304 -8.033,21.629 -1.902,4.237 -5.438,13.105 -7.859,19.705 -9.655,26.326 -20.457,43.64 -35.148,56.335 -4.877,4.216 -9.168,7.968 -9.535,8.339 -1.116,1.129 -11.149,8.571 -13.469,9.992 -14.45,8.846 -36.826,32.491 -44.24,46.749 -7.56,7.47 5.754,17.045 18.196,22.179 0.335,-0.335 -0.08,-2.594 -0.927,-5.02 -2.382,-6.833 1.77,-16.116 13.804,-30.865 4.056,-4.971 6.878,-6.858 14.457,-9.667 11.029,-4.088 15.714,-4.311 25.444,-1.213 8.96,2.853 16.32,8.063 21.672,15.342 3.575,4.86 4.148,6.767 4.148,13.793 0,7.061 -0.652,9.204 -4.863,15.988 -3.788,6.103 -6.403,8.623 -11.826,11.396 -11.833,6.053 -24.626,5.935 -36.986,-0.342 -5.845,-2.969 -9.363,-2.482 -5.019,0.694 3.546,2.592 7.805,8.235 35.609,13.006 34.859,5.981 32.735,6.245 40.714,-5.055 z m -16.381,-71.691 c -5.521,-3.166 -7,-4.722 -7,-7.364 0,-8.613 9.679,-21.93 15.939,-21.93 14.536,0 19.704,12.81 10.91,27.04 -4.752,7.688 -9.444,8.221 -19.849,2.254 z m 10.334,-13.882 c 0,-4.197 -2.361,-5.623 -4.977,-3.006 -2.605,2.604 -1.28,6.261 2.268,6.261 1.983,0 2.709,-0.872 2.709,-3.255 z m 44.445,0.208 c -11.318,-6.346 -21.863,-35.728 -20.074,-55.929 0.855,-9.656 5.914,-23.208 11.259,-30.16 2.037,-2.649 4.003,-6.596 4.37,-8.771 0.439,-2.608 2.071,-4.773 4.791,-6.358 6.49,-3.782 28.624,-7.786 47.325,-8.561 14.016,-1.1393 14.867,-1.888 26.272,4.106 10.89,5.722 12.505,8.418 14.965,24.983 1.695,11.414 1.663,11.76 -2.004,22 -2.05,5.722 -5.721,13.749 -8.159,17.837 -5.468,9.169 -28.425,31.535 -33.511,32.648 -2.024,0.443 -6.721,1.982 -10.439,3.419 -16.147,6.244 -29.033,8.017 -34.795,4.786 z m 28.376,-13.989 c 19.741,-7.407 20.527,-7.972 33.52,-24.087 5.503,-6.824 11.995,-22.928 13.127,-32.563 1.288,-10.96 -0.115,-15.952 -6.265,-22.289 -7.742,-9.7473 -17.999,-5.1105 -30.296,-4.679 -26.646,0.934 -30.978,1.701 -36.344,6.433 -10.17,8.969 -15.674,32.693 -11.854,51.095 1.99,9.584 7.954,22.743 12.505,27.589 3.088,3.288 4.317,3.714 9.176,3.179 3.085,-0.34 10.479,-2.445 16.431,-4.678 z m 56.888,-111.833 c -0.894,-0.362 -2.019,-2.759 -2.501,-5.326 -0.764,-4.072 -0.311,-5.25 3.553,-9.236 5.385,-5.556 12.264,-6.251 17.119,-1.728 8.389,7.816 -6.391,21.065 -18.171,16.29 z m -61.582,-11.249 c -5.056,-2.022 -8.129,-6.477 -8.108,-11.753 0.04,-9.576 5.329,-14.356 11.959,-10.807 2.302,1.232 2.633,2.281 1.92,6.083 -0.996,5.31 0.7,5.996 4.768,1.928 2.988,-2.987 3.542,-8.635 1.002,-10.205 -0.916,-0.566 -2.866,-1.051 -4.333,-1.079 -1.936,-0.04 -2.669,-0.954 -2.669,-3.343 0,-6.655 12.367,-8.636 19.854,-3.18 4.992,3.637 4.757,12.203 -0.591,21.529 -6.138,10.703 -14.547,14.528 -23.802,10.827 z m 10.053,221.113 c 2.101,-0.919 5.62,-2.83 7.82,-4.246 2.2,-1.416 8.2,-5.288 13.333,-8.604 5.133,-3.316 12.633,-8.87 16.667,-12.344 4.033,-3.473 8.654,-7.4 10.269,-8.725 2.583,-2.121 2.802,-3.102 1.825,-8.187 -1.925,-10.019 0.282,-13.99 13.161,-23.679 9.004,-5.996 18.669,-12.174 23.529,-20.478 4.344,-7.518 5.283,-10.669 6.754,-22.664 0.94,-7.662 1.514,-14.126 1.276,-14.365 -1.089,-1.089 -5.138,1.607 -6.227,4.145 -1.549,3.614 -5.212,9.421 -15.746,24.959 -11.133,16.421 -21.327,29.121 -39.508,49.221 -11.91,13.166 -24.897,27.806 -28.667,32.314 -1.833,2.193 -5.353,6.313 -7.821,9.156 -4.775,5.498 -3.733,6.59 3.335,3.497 z m -122.017,-13.055 c 13.013,-3.109 17.082,-7.322 18.922,-19.592 0.874,-5.824 0.644,-6.48 -4.104,-11.735 -2.766,-3.062 -6.761,-6.463 -8.879,-7.558 -5.54,-2.865 -15.647,-2.594 -21.822,0.585 -8.736,4.497 -21.084,23.696 -17.792,27.663 1.226,1.477 9.03,5.485 21.264,10.921 4.204,1.868 3.32,1.888 12.411,-0.284 z m -74.342,-31.492 c 2.665,-3.421 4.845,-6.67 4.845,-7.22 0,-4.089 25.675,-29.152 41.737,-40.743 20.181,-14.564 29.144,-23.342 38.613,-37.818 14.553,-23.9429 23.945,-52.2453 32.305,-78 1.704,-5.284 12.378,-26.05 14.05,-27.334 0.477,-0.366 3.69,-4.866 7.139,-10 3.449,-5.133 8.353,-12.033 10.898,-15.333 2.544,-3.3 6.375,-8.7 8.512,-12 2.137,-3.3 4.992,-7.5 6.345,-9.333 1.352,-1.834 3.312,-5.011 4.355,-7.062 1.043,-2.05 3.88,-5.77 6.304,-8.267 2.425,-2.497 4.409,-5.105 4.409,-5.796 0,-1.513 -3.241,-2.875 -6.842,-2.875 -2.222,0 -15.983,12.933 -25.577,24.038 -4.301,4.978 -16.457,24.388 -20.851,33.295 -2.352,4.767 -4.8,9.567 -5.439,10.667 -0.64,1.1 -8.101,15.713 -16.58,32.474 -15.515,30.672 -19.86,37.959 -29.044,48.713 -2.75,3.22 -5,6.426 -5,7.123 0,4.909 -19.776,23.586 -33.543,31.679 -16.147,9.491 -37.923,30.744 -46.46,45.344 -7.608,13.009 -8.684,12.973 -2.328,22.129 5.594,8.573 9.025,9.754 12.152,6.319 z m -20.488,-31.279 c 0,-2.772 11.706,-17.932 21.558,-27.918 10.623,-10.768 10.76,-10.878 25.242,-20.414 11.548,-7.603 21.2,-15.232 21.2,-16.757 0,-0.591 -3.006,-1.363 -6.68,-1.716 -3.781,-0.363 -7.832,-1.684 -9.334,-3.043 -5.599,-5.067 -1.98,-18.459 7.642,-28.275 6.481,-6.612 9.732,-8.427 15.359,-8.572 7.496,-0.193 11.431,2.176 12.426,7.48 0.489,2.608 1.333,5.016 1.876,5.352 1.813,1.12 8.725,-10.415 21.956,-36.639 7.215,-14.3 15.364,-29.9 18.108,-34.667 2.744,-4.767 6.934,-12.567 9.312,-17.333 6.556,-13.143 20.916,-34.49 28.455,-42.301 3.698,-3.832 6.323,-7.368 5.833,-7.858 -0.49,-0.49 -6.631,-1.145 -13.648,-1.456 l -12.756,-0.566 -14.941,7.232 c -13.281,6.429 -15.979,8.353 -24.275,17.318 -11.379,12.295 -15.477,17.421 -19.447,24.326 -2.336,4.062 0.371,1.87 11.562,-9.362 8.036,-8.067 16.398,-15.555 18.582,-16.642 2.183,-1.086 10.402,-5.747 18.263,-10.358 15.245,-8.943 21.17,-10.992 24.291,-8.402 3.639,3.02 0.201,6.832 -11.991,13.297 -23.101,12.25 -29.197,16.491 -40.247,27.997 -6.043,6.293 -10.993,11.845 -11,12.339 -0.01,0.494 -1.533,2.705 -3.392,4.913 -2.897,3.443 -6.721,10.27 -17.658,31.523 -1.133,2.2 -4.871,7.6 -8.308,12 -3.438,4.4 -10.391,13.425 -15.452,20.057 -19.67,25.772 -43.867,52.406 -59.036,64.981 -4.199,3.481 -5.589,5.473 -4.961,7.111 0.773,2.012 1.291,1.876 4.5,-1.186 3.608,-3.441 9.481,-6.297 12.953,-6.297 2.687,0 6.008,3.802 6.008,6.88 0,4.03 -7.673,19.892 -11.828,24.454 -6.855,7.524 -7.164,8.182 -5.261,11.228 1.844,2.954 5.089,3.766 5.089,1.274 z m 98.313,-153.338 c -2.028,-1.512 -4.341,-3.971 -5.139,-5.462 -1.216,-2.273 -0.863,-3.218 2.179,-5.832 2.075,-1.783 3.316,-3.942 2.896,-5.037 -0.918,-2.391 3.091,-6.167 6.546,-6.167 1.422,0 4.856,1.543 7.631,3.429 4.767,3.239 5.023,3.77 4.643,9.622 -0.348,5.351 -1.019,6.608 -4.933,9.238 -5.56,3.736 -9.025,3.789 -13.823,0.209 z m -101.011,134.585 c 2.738,-5.666 3.58,-11.749 1.626,-11.749 -0.589,0 -3.05,2.041 -5.468,4.535 -3.729,3.848 -4.258,5.163 -3.489,8.667 1.259,5.73 4.137,5.159 7.331,-1.453 z m 3.51,-43.951 c 6.026,-4.912 29.498,-31.495 39.85,-45.132 3.618,-4.766 7.284,-9.266 8.147,-10 2.77,-2.353 17.294,-25.056 21.537,-33.666 4.022,-8.16 4.173,-11.114 0.282,-5.509 -3.073,4.427 -7.942,10.792 -16.892,22.083 -35.919,45.315 -51.228,60.426 -61.219,60.426 -2.398,0 -4.804,0.719 -5.347,1.597 -1.435,2.322 -1.493,16.114 -0.08,18.053 1.31,1.793 3.236,0.69 13.718,-7.852 z m 70.188,-21.607 c 3.996,-6.325 4.884,-12.858 1.749,-12.858 -1.255,0 -1.831,1.239 -1.667,3.587 0.179,2.56 -0.634,4.04 -2.842,5.169 -3.827,1.958 -7.343,6.793 -6.239,8.58 1.79,2.895 5.51,1.044 8.999,-4.478 z m -76.622,-1.464 c 3.459,-1.8 8.089,-4.95 10.29,-7 4.742,-4.417 18.24,-19.931 24.704,-28.394 2.521,-3.3 6.093,-7.558 7.939,-9.463 5.66,-5.84 18.041,-23.902 25.044,-36.537 15.406,-27.796 33.167,-50.986 45.443,-59.333 3.775,-2.567 6.865,-5.074 6.866,-5.571 0,-1.349 -14.326,0.243 -22.369,2.486 -4.537,1.265 -7.787,3.105 -9.144,5.175 -1.643,2.508 -3.176,3.17 -6.996,3.021 -2.69,-0.106 -6.375,0.569 -8.189,1.499 -7.735,3.964 -21.16,13.948 -27.966,20.796 -6.299,6.339 -7.047,7.606 -5.302,8.986 9.577,7.578 10.645,18.359 3.268,33.007 -5.691,11.303 -12.788,19.463 -17.902,20.586 -2.244,0.493 -5.813,-0.02 -8.755,-1.243 -2.733,-1.142 -5.645,-2.073 -6.472,-2.069 -2.211,0.01 -9.721,16.714 -11.998,26.688 -1.085,4.751 -2.896,12.539 -4.025,17.305 -2.164,9.131 -2.616,13.334 -1.436,13.334 0.391,0 3.541,-1.473 7,-3.273 z m 26.006,-64.415 c 1.172,-1.295 4.044,-6.444 6.384,-11.443 3.99,-8.527 4.146,-9.412 2.529,-14.313 -2.868,-8.689 -4.07,-7.528 -15.857,15.322 -2.992,5.799 -5.44,10.705 -5.44,10.902 0,0.55 4.346,1.559 7.46,1.732 1.536,0.08 3.752,-0.905 4.924,-2.2 z m 62.283,-24.979 c 0,-1.1 -0.236,-2 -0.524,-2 -0.288,0 -0.87,0.9 -1.292,2 -0.422,1.1 -0.186,2 0.524,2 0.71,0 1.292,-0.9 1.292,-2 z m 194.294,-9.072 c -1.138,-1.735 -4.605,-5.504 -7.706,-8.375 -3.101,-2.871 -6.586,-6.27 -7.743,-7.553 -1.158,-1.283 -2.596,-2.333 -3.197,-2.333 -0.601,0 -2.381,-1.2 -3.956,-2.667 -3.709,-3.456 -5.027,-3.369 -5.021,0.333 0.01,5.511 9.006,16.824 17.172,21.593 2.264,1.322 11.121,3.195 12.004,2.539 0.283,-0.21 -0.416,-1.802 -1.553,-3.537 z" fill="#00B894" transform="translate(20.324168,-176.9816) matrix(0.26458333,0,0,0.26458333,-8437.243,-1317.6158)"/>
</svg>