<?xml version="1.0" ?><svg height="131.83652mm" viewBox="0 0 83.906441 131.83652" width="83.906441mm" xmlns="http://www.w3.org/2000/svg">
    <path color="#000" d="m 10143.796,622.972 c 0,0 18.978,-19.2609 18.437,-41.4876 -0.54,-22.2267 -10.455,-24.9848 -34.522,-27.2561 -24.066,-2.2714 -38.849,16.6295 -40.291,34.1512 -1.442,17.5218 25.058,44.2912 25.058,44.2912 0,0 2.975,293.2465 1.983,303.0619 -0.991,9.8154 -26.139,47.2926 -51.468,44.859 -25.328,-2.4336 -63.3651,-34.5569 -56.966,-87.1222 6.4,-52.5653 12.89,-2.4336 21.903,-5.5972 9.014,-3.1637 -14.692,-59.8661 -14.692,-59.8661 0,0 -37.9471,27.0939 -44.1671,33.8268 -6.219,6.7328 -11.537,22.47 1.803,16.7105 13.34,-5.7595 5.679,8.1931 4.777,16.954 -0.901,8.7609 -9.731,103.1442 26.6841,120.8282 36.415,17.684 62.103,20.1175 80.491,12.249 18.388,-7.8686 48.223,-37.396 48.223,-37.396 0,0 29.565,23.2001 59.4,25.7959 29.835,2.5958 78.959,-9.8154 77.968,-69.6815 -0.992,-59.8661 -10.637,-72.7641 -10.637,-72.7641 l 7.392,-14.3581 -32.449,-41.1275 -12.259,53.1332 23.255,9.2476 c 0,0 7.752,51.7542 -9.013,72.1962 -16.766,20.4421 -46.06,31.6365 -69.405,6.6518 -23.346,-24.9848 -16.946,-34.7191 -18.388,-65.3011 -1.442,-30.582 -3.117,-271.999 -3.117,-271.999 z" fill="#FFFFFF" overflow="visible" paint-order="fill markers stroke" transform="translate(-63.880105,-82.248405) matrix(0.26458333,0,0,0.26458333,-2571.9676,-61.250749)"/>
    <path d="m 10014.18,1030.5492 c -33.8598,-14.6011 -56.7053,-65.14074 -45.4524,-118.34422 6.1099,-28.88017 6.105,-28.35136 0.1896,-28.35136 -7.2605,0 -8.7984,-7.78437 -3.5467,-17.94218 7.7896,-15.06359 40.3845,-45.44229 47.6425,-44.40321 7.799,1.11679 19.548,24.32591 24.666,48.72515 4.56,21.73887 1.226,27.94052 -14.746,27.43658 -10.633,-0.33555 -11.389,0.26765 -11.389,9.08494 0,17.1223 7.514,34.95817 20.391,48.39625 20.682,21.58483 36.292,22.14857 56.468,2.03918 20.435,-20.36765 20.291,-19.52369 17.026,-100.11295 -1.616,-39.84952 -2.491,-106.40147 -1.947,-147.89352 l 0.99,-75.43989 c -21.257,-11.42307 -25.637,-26.95914 -24.959,-40.02552 1.126,-21.7018 7.252,-41.03207 35.92,-50.07035 13.046,-4.11268 32.964,1.90966 45.652,13.87466 15.397,14.52205 15.626,32.3319 0.699,54.51305 l -10.417,15.47888 1.368,154.77226 c 1.539,174.10837 0.601,167.4817 25.516,180.19325 16.652,8.49454 26.122,8.10704 37.585,-1.53759 13.651,-11.48747 20.711,-32.0914 18.23,-53.20632 -2.852,-24.25461 -3.957,-26.11843 -14.589,-24.55815 -7.672,1.12602 -9.507,0.0664 -11.138,-6.43154 -1.968,-7.83656 12.019,-60.06733 18.112,-67.64305 4.924,-6.12175 12.72,-0.047 30.204,23.53633 17.249,23.27039 22.263,36.21636 16.642,42.98872 -2.674,3.22095 -2.367,8.88608 1.222,22.67212 10.374,39.82942 3.836,81.59317 -16.489,105.33978 -14.215,16.6075 -27.831,21.97 -55.783,21.97 -19.152,0 -25.838,-1.549 -42.381,-9.8158 -10.804,-5.3988 -20.418,-11.8317 -21.363,-14.2955 -1.226,-3.19258 -4.879,-0.7891 -12.715,8.3668 -16.314,19.0606 -38.343,28.839 -66.992,30.6018 -14.601,0.8984 -25.435,-1.6475 -44.616,-9.9186 z m 62.628,-12.8452 c 10.235,-3.0395 21.833,-9.9859 32.129,-19.24333 l 16.113,-14.4868 17.113,8.10185 c 29.934,14.17328 47.885,18.78518 65.154,16.73978 22.075,-2.6144 34.078,-10.59866 43.491,-28.93036 7.014,-13.66303 7.978,-19.33894 7.733,-45.58102 -0.166,-16.48603 -1.77,-33.51838 -3.594,-37.84997 -2.691,-6.39799 -3.305,-3.11018 -3.275,17.5277 0.02,17.94429 -1.568,28.58149 -5.439,36.22697 -10.827,21.39748 -27.897,34.51257 -44.747,34.38049 -13.404,-0.10632 -34.112,-10.78014 -42.239,-21.77404 -3.997,-5.40616 -8.874,-9.2133 -10.835,-8.4601 -11.312,4.34033 -11.674,-0.28021 -11.249,-143.3856 0.237,-76.86315 2.46,-147.84413 2.378,-157.86446 l -0.155,-19.00572 c -7.775,2.26628 -12.408,2.15434 -20.157,0.89231 l 1.76,150.89682 1.762,150.89681 -8.184,13.96211 c -11.789,20.11766 -30.546,35.96937 -45.565,38.50682 -24.401,4.1226 -54.04,-16.3093 -66.848,-46.08156 -8.6305,-20.05955 -9.7479,-64.72288 -1.92,-76.67037 5.826,-8.88933 10.799,-10.08715 12.972,-3.12477 4.22,13.50631 5.418,15.59605 6.812,11.87561 2.035,-5.43937 -8.009,-38.65186 -11.69,-38.65186 -3.216,0 -38.5931,30.87065 -40.3726,35.22938 -1.7933,4.3926 2.8588,2.84675 11.2157,-3.72789 8.6753,-6.82301 16.6108,-8.26708 16.6108,-3.02251 0,1.80265 -3.1894,7.59152 -7.0871,12.86372 -6.4364,8.70571 -7.0879,13.10731 -7.0879,47.9124 0,36.54583 0.4319,39.105 9.2896,55.09616 13.9605,25.20143 36.5095,40.64873 60.2295,41.25903 5.317,0.137 16.874,-1.8917 25.682,-4.5076 z m 167.559,-173.62875 c -11.279,-16.39374 -16.647,-13.65808 -7.289,3.71566 4.9,9.10195 12.697,14.79772 16.534,12.07811 0.6,-0.42574 -3.56,-7.53293 -9.245,-15.79377 z m -104.621,-235.07256 c 15.791,-17.3359 17.375,-30.38794 4.881,-40.23581 -17.396,-13.71286 -51.191,1.37529 -51.191,22.85502 0,21.38994 31.792,33.32131 46.31,17.38079 z m -30.391,-6.88605 c -5.682,-5.42516 -2.015,-19.29478 4.981,-21.9797 6.967,-2.6735 9.219,0.10161 4.597,5.67056 -2.891,3.48366 -2.893,5.05058 -0.02,6.82933 2.198,1.35761 6.084,-0.79833 9.434,-5.23218 4.645,-6.14663 6.45,-6.79229 9.76,-3.49177 3.315,3.30458 3.182,5.62089 -0.716,12.60053 -10.724,11.81725 -17.799,15.37716 -28.036,5.60323 z" fill="#00B894" transform="translate(-63.880105,-82.248405) matrix(0.26458333,0,0,0.26458333,-2571.9676,-61.250749)"/>
</svg>