<?xml version="1.0" ?><svg height="99.43261mm" viewBox="0 0 101.79357 99.43261" width="101.79357mm" xmlns="http://www.w3.org/2000/svg">
    <path d="m 32628.273,5820.4268 a 182.93143,180.74139 0 0 1 -182.931,180.7414 182.93143,180.74139 0 0 1 -182.932,-180.7414 182.93143,180.74139 0 0 1 182.932,-180.7414 182.93143,180.74139 0 0 1 182.931,180.7414 z" fill="#FFFFFF" transform="translate(71.307461,-68.96827) matrix(0.26458333,0,0,0.26458333,-8605.191,-1420.8321)"/>
    <path d="m 32311.15,5959.6058 c -33.728,-34.696 -71.668,-110.621 -51.442,-186.811 14.992,-56.472 43.082,-92.116 87.139,-120.499 57.152,-27.796 101.334,-24.661 149.623,-13.115 89.544,24.661 124.931,93.9841 138.739,157.9725 11.34,52.5528 -4.745,108.6355 -42.318,144.4575 -76.493,72.928 -209.861,91.939 -281.741,17.995 z m 190.756,12.637 c -0.566,-0.915 -2.681,-1.151 -5.531,-0.616 -8.816,1.653 -10.966,-4.703 -5.022,-14.845 4.132,-7.052 11.425,-11.115 19.95,-11.115 10.586,0 15.142,7.487 10.731,17.636 8.336,1.462 21.099,-10.928 30.595,-16.303 2.951,-1.579 3.329,-2.636 3.301,-9.225 -0.02,-4.093 -0.624,-9.841 -1.348,-12.775 -0.724,-2.933 -0.935,-10.333 -0.468,-16.444 0.824,-10.795 1.001,-11.257 6.214,-16.267 5.896,-5.665 22.39,-14.622 26.926,-14.622 5.179,0 8.706,4.737 8.726,11.718 l 0.02,6.282 5.514,-9.944 c 18.255,-31.36 17.568,-62.034 11.311,-93.087 -9.963,-49.539 -65.175,-131.717 -157.613,-144.354 -36.578,-7.304 -76.968,9.208 -103.914,24.062 -13.138,7.233 -22.096,14.938 -33.441,28.767 -7.911,9.641 -9.145,12.243 -7.023,14.801 1.109,1.336 1.587,5.065 1.344,10.488 -0.262,5.824 0.297,9.721 1.816,12.657 2.985,5.773 3.992,17.151 2.041,23.063 -0.891,2.698 -4.06,6.964 -7.167,9.646 -5.328,4.6 -5.888,4.772 -12.867,3.975 -4.751,-0.543 -8.355,-1.828 -10.328,-3.681 -1.668,-1.567 -3.463,-2.417 -3.99,-1.889 -10.503,29.218 -7.965,81.063 5.046,114.163 0.556,0 2.951,-2.449 5.321,-5.442 8.222,-10.381 20.123,-15.552 30.045,-13.053 8.168,2.057 11.886,6.551 11.801,14.269 -0.06,5.16 -1.311,8.223 -7.333,17.892 -10.335,16.596 -14.532,24.085 -14.568,25.997 -0.08,4.41 16.326,23.589 27.372,31.994 9.534,7.253 11.503,8.683 17.539,12.739 15.16,10.185 27.995,14.361 54.501,17.735 l 6.777,0.862 3.024,-6.497 c 4.305,-9.247 8.396,-14.232 15.595,-19 6.696,-4.435 12.598,-5.274 18.424,-2.619 3.596,1.638 8.737,9.153 8.737,12.771 0,3.761 -3.094,10.897 -5.05,11.648 -3.214,1.233 -8.914,-2.392 -9.396,-5.976 -1.031,-7.674 -6.445,-6.651 -11.055,2.088 -2.75,5.214 -2.903,6.181 -1.165,7.366 8.034,2.582 67.116,-7.272 64.609,-14.865 z m -159.855,-30.477 c -2.29,-2.531 -2.304,-2.906 -0.234,-6.065 2.284,-3.486 3.195,-3.838 8.812,-3.407 5.515,0.424 7.29,3.039 5.132,7.562 -2.375,4.979 -9.974,6.038 -13.71,1.91 z m 117.216,-14.699 c -8.462,-25.3705 10.31,-63.9525 30.519,-76.183 6.449,-3.624 26.339,-5.318 31.296,-2.665 4.305,2.305 7.068,8.857 7.32,17.36 0.224,7.562 0.152,7.715 -7.933,16.86 -14.426,16.315 -15.174,17.866 -15.174,31.502 0,6.545 -0.673,13.212 -1.496,14.814 -2.778,5.407 -8.281,10.208 -12.404,10.823 -14.44,2.1912 -25.863,1.1932 -32.128,-12.511 z m 26.482,-2.499 c 1.729,-1.91 2.167,-4.983 2.043,-14.333 -0.151,-11.412 0.04,-12.241 4.686,-20.148 2.664,-4.536 6.203,-9.336 7.864,-10.667 1.661,-1.331 4.355,-4.704 5.987,-7.496 3.141,-5.376 4.031,-14.257 1.428,-14.257 -0.847,0 -5.31,2.109 -9.919,4.686 -11.108,6.212 -15.307,12.378 -23.611,34.671 -2.9,7.783 -4.153,19.782 -2.407,23.044 3.791,7.084 9.826,9.034 13.929,4.5 z m -107.344,7.33 c -5.829,-1.865 -15.218,-10.155 -19.891,-17.564 -5.404,-8.569 -7.827,-16.62 -9.049,-30.069 -2.024,-22.268 1.288,-34.43 11.409,-41.905 2.798,-2.067 5.688,-4.426 6.421,-5.244 6.178,-6.885 15.462,-7.136 21.307,-0.576 6.682,7.5 7.863,16.787 3.389,26.648 -1.45,3.197 -2.65,6.882 -2.667,8.19 6.063,10.608 15.607,12.581 20.672,24.164 1.682,4.025 1.595,5.271 -0.845,12.215 -5.589,15.902 -10.392,22.245 -18.634,24.608 -5.416,1.554 -5.845,1.537 -12.112,-0.467 z m 10.943,-15.618 c 5.06,-5.059 6.631,-12.858 3.829,-19.006 -0.798,-1.751 -4.339,-4.871 -7.868,-6.933 -9.4,-5.489 -12.602,-11.861 -11.477,-22.838 0.48,-4.693 1.44,-10.021 2.131,-11.839 1.417,-3.726 0.504,-7.33 -1.856,-7.33 -3.604,1.704 -4.213,6.004 -7.423,8 -4,0 -5.486,24.569 -2.243,37.074 2.132,8.219 8.741,18.434 14.635,22.622 5.164,3.668 6.814,3.708 10.272,0.25 z m 57.177,-47.876 c -4.101,-2.9054 0.511,-6.066 0.511,-6.066 4.194,-3.741 8.496,-4.254 12.307,-1.467 2.125,1.553 2.333,2.513 1.231,5.666 -1.75,5.004 -9.169,5.99 -14.049,1.867 z m 125.954,-37.377 c -13.179,-10.2362 -11.988,-16.9592 -1.945,-25.693 8.498,-7.436 19.135,-8.748 24.822,-3.061 6.296,6.297 2.986,19.515 -6.819,27.228 -3.756,2.954 -10.854,3.628 -16.058,1.526 z m 8.816,-16.772 c 0,-1.143 -0.61,-1.702 -1.355,-1.241 -0.745,0.46 -1.01,1.396 -0.588,2.078 1.143,1.85 1.943,1.505 1.943,-0.837 z m -84,13.154 c -6.462,-1.264 -12,-8.877 -12,-16.497 0,-4.013 8.048,-16.028 16.637,-24.839 1.569,-1.609 4.618,-6.409 6.775,-10.666 3.772,-7.445 3.924,-8.451 3.983,-26.407 0.07,-20.205 1.298,-24.859 7.676,-29.038 7.043,-4.615 17.401,-4.442 18.911,0.315 0.432,1.361 3.114,3.405 5.959,4.544 6.673,2.67 11.614,9.243 14.088,18.741 2.758,10.589 2.476,14.838 -1.362,20.485 -1.833,2.698 -3.333,6.283 -3.333,7.967 0,7.535 -17.637,34.802 -30.971,47.882 -6.592,6.466 -7.527,6.934 -15.03,7.53 -3.736,-0.05 -7.655,0.63 -11.333,-0.02 z m 14.441,-18.525 c 5.501,-4.708 20.303,-25.963 24.623,-35.355 3.59,-7.808 5.97,-20.235 5.27,-27.52 -0.526,-5.475 -1.509,-7.625 -5.064,-11.07 -3.468,-3.362 -5.136,-4.094 -7.799,-3.426 -6.725,0.619 -3.216,13.615 -3.132,19.836 0.242,17.978 0.07,19.373 -3.226,26.318 -1.914,4.033 -7.15,11.918 -11.635,17.522 -8.866,11.079 -11.756,18.478 -7.218,18.478 3.256,-1.137 5.979,-2.925 8.181,-4.783 z m -172.752,0.532 c -6.916,-9.021 -8.807,-15.523 -8.114,-27.896 0.461,-8.232 1.503,-11.827 6.332,-21.853 3.178,-6.6 7.05,-14.665 8.603,-17.923 4.145,-8.694 20.462,-24.815 26.938,-26.613 6.83,-1.896 7.912,-1.841 9.856,0.5 1.355,1.633 0.114,3.38 -7.34,10.334 -9.904,9.24 -11.676,11.719 -24.086,33.702 -3.452,6.115 -7.211,19.688 -7.211,26.038 0,7.123 2.897,14.585 7.003,18.041 7.975,6.71 10.961,3.167 12.666,-15.027 1.547,-16.512 4.399,-21.95 20.483,-39.052 17.911,-19.044 22.685,-27.988 17.815,-33.37 -1.792,-1.98 -4.106,-2.63 -9.365,-2.63 -6.957,0 -8.602,-1.137 -8.602,-5.947 0,-2.395 7.115,-5.111 13.778,-5.26 12.287,0.1554 32.912,11.6185 25.944,26.427 -0.947,1.798 -8.888,10.829 -17.646,20.069 -23.419,24.706 -23.915,25.598 -25.961,46.711 -1.332,13.739 -5.532,22.947 -11.628,25.494 -9.534,4.628 -24.944,-6.115 -29.465,-11.745 z m -48.689,4.116 c -4.544,-3.413 -4.589,-5.147 -0.256,-9.822 2.825,-3.049 4.139,-3.536 7.666,-2.843 4.824,0.947 7.59,3.945 7.59,8.225 -2.41,6.632 -10.891,7.282 -15,4.44 z m 111.581,-30.698 c -1.917,-3.707 -1.934,-4.386 -0.149,-6.17 3.203,-3.204 9.167,-3.212 12.568,-0.01 5.643,5.301 2.612,10.353 -6.211,10.353 -3.475,-0.424 -5.138,-2.14 -6.208,-4.173 z m 41.538,-5.269 c -6.527,-7.758 -3.52,-16.244 4.736,-13.366 4.675,1.63 6.503,0.959 4.056,-1.488 -2.336,-2.336 -1.914,-6.993 0.861,-9.504 3.264,-2.954 9.273,-2.779 14.526,0.424 6.077,3.705 6.765,7.988 2.461,15.331 -7.301,12.46 -19.956,16.546 -26.64,8.603 z m 22.997,-35.911 c -3.7,-3.7 -3.926,-4.452 -2.898,-9.666 1.518,-7.696 1.081,-25.952 -0.671,-28.064 -2.584,-3.113 -11.262,-21.505 -12.312,-26.093 -2.956,-12.916 15.321,-24.633 28.597,-18.333 2.514,1.193 5.61,2.169 6.879,2.169 9.366,0 22.591,18.587 24.226,34.047 1.311,12.389 -8.794,31.892 -23.005,44.401 -8.161,7.183 -14.69,7.666 -20.816,1.539 z m 18.501,-21.654 c 10.081,-15.65 11.638,-26.463 5.343,-37.104 -3.831,-6.475 -6.237,-8.082 -15.262,-10.191 -4.704,-1.1 -5.97,-0.947 -7.666,0.927 -2.801,3.094 -2.554,9.816 0.46,12.543 4.825,4.367 11.182,20.607 11.879,30.347 0.36,5.03 0.866,9.145 1.125,9.145 0.259,0 2.113,-2.55 4.121,-5.667 z m -65.41,-44.771 c -1.214,-1.342 -2.207,-3.349 -2.207,-4.46 0,-2.976 4.393,-6.435 8.172,-6.435 4.243,0 6.495,2.311 6.495,6.666 0,1.907 -0.72,4.187 -1.6,5.067 -2.391,2.391 -8.354,1.931 -10.86,-0.838 z m 153.314,256.084 c 0.869,-0.559 1.577,-4.844 1.651,-9.994 0.07,-4.958 0.818,-11.746 1.659,-15.086 2.119,-8.415 -0.05,-10.176 -4.457,-3.617 -4.458,6.638 -5.409,12.524 -3.551,21.971 1.546,7.855 1.98,8.477 4.698,6.726 z m -265.296,-28.678 c 7.989,-11.932 12.927,-22.35 11.345,-23.932 -1.705,-1.705 -8.185,-0.186 -11.57,2.711 -5.231,4.479 -12.667,14.749 -12.667,17.496 0,2.634 5.227,12.075 6.667,12.042 0.367,-0.01 3.168,-3.751 6.225,-8.317 z m -6.48,-145.35 c 1.434,-2.993 1.457,-5.062 0.12,-11.035 -0.905,-4.043 -2.343,-8.305 -3.195,-9.471 -1.33,-1.819 -2.058,-1.252 -5.132,3.992 -5.37,9.163 -5.686,12.844 -1.484,17.303 4.208,4.466 7.293,4.215 9.691,-0.789 z" fill="#00B894" transform="translate(71.307461,-68.96827) matrix(0.26458333,0,0,0.26458333,-8605.191,-1420.8321)"/>
</svg>