<?xml version="1.0" ?><svg height="53.474468mm" viewBox="0 0 107.62225 53.474468" width="107.62225mm" xmlns="http://www.w3.org/2000/svg">
    <path d="m 7485.8153,1644.818 c -9.0149,1.944 -22.7957,-1.1085 -21.4035,-14.7801 1.3925,-13.6716 12.6921,-21.8168 28.3297,-22.3148 15.6377,-0.498 28.8296,-2.0403 34.2742,8.8842 5.4446,10.9244 7.3011,22.9574 -0.8925,26.6845 -8.1936,3.7272 -19.44,-4.5947 -25.4915,-4.2734 -6.0516,0.3214 -14.8164,5.7996 -14.8164,5.7996 z" fill="#FFFFFF" paint-order="markers stroke fill" transform="translate(216.1544,270.8813) rotate(1.5599223,72566.913,-281308.4)"/>
    <path d="m 7489.6888,1652.5417 c -1.385,-3.5228 -1.793,-3.7604 -5.114,-2.9649 -11.605,2.7802 -20.959,-3.6207 -22.335,-15.2825 -1.491,-12.633 4.285,-21.9234 16.404,-26.3745 5.871,-2.1576 9.426,-2.5653 22.641,-2.5978 14.912,-0.037 15.969,0.1171 21.765,3.1714 3.663,1.9313 7.264,4.9847 9.038,7.6657 3.334,5.0375 8.419,7.1213 17.381,7.1213 12.059,0 20.32,4.8984 20.32,12.0517 0,8.262 -8.419,10.8464 -22.69,6.9665 -12.039,-3.2741 -11.447,-3.3248 -13.583,1.1574 -2.459,5.1551 -9.117,7.4408 -15.518,5.3276 -5.352,-1.7658 -7.425,-0.8032 -7.425,3.4468 0,4.147 -1.96,6.4306 -9.96,6.4834 -6.5197,0.043 -8.5375,-0.2361 -10.924,-6.1721 z m -3.11,-12.406 c 1.652,-1.0829 3.308,-2.924 3.676,-4.0914 0.372,-1.1674 1.735,-3.4719 3.035,-5.1211 2.715,-3.4519 8.462,-4.0651 12.125,-1.2937 1.241,0.9376 2.6,1.7213 3.021,1.7416 1.412,0.068 10.44,-15.2475 9.868,-16.7408 -0.77,-2.0003 -9.7,-4.1219 -17.352,-4.1219 h -6.273 l -10.085,15.8754 c -6.793,10.6965 -9.643,16.1477 -8.731,16.7102 1.681,1.0396 6.747,-0.3593 10.716,-2.9583 z m 40.493,-0.3097 c 3.13,-3.6018 3.39,-7.9272 0.878,-14.6367 -2.942,-7.8657 -5.522,-10.4139 -7.385,-7.2985 -0.708,1.1778 -3.505,5.4971 -6.217,9.5985 -2.716,4.1013 -4.937,7.9292 -4.937,8.5063 0,0.5772 1.379,2.1323 3.061,3.4558 3.91,3.0771 12.069,3.2864 14.6,0.3746 z m -43.797,-15.5923 c 6.095,-9.6831 8.142,-13.784 6.737,-13.5137 -2.64,0.5085 -20.633,26.9758 -19.54,28.7441 1.346,2.178 3.337,-0.1896 12.803,-15.2304 z m 81.357,13.6284 c 1.794,-1.3322 1.994,-2.1021 0.984,-3.7736 -2.153,-3.5665 -6.418,-4.785 -18.181,-5.1916 -11.694,-0.4045 -13.59,0.4852 -6.632,3.1151 2.212,0.8366 7.418,2.8445 11.569,4.4619 8.975,3.4967 9.36,3.5406 12.26,1.3882 z m -93.074,-7.7301 c 1.171,-1.979 4.68,-6.9703 7.8,-11.0918 3.117,-4.1215 5.671,-7.6908 5.671,-7.9317 0,-1.2127 -7.379,1.9189 -10.963,4.6524 -4.138,3.1554 -6.435,8.4199 -6.448,14.7763 0,4.1776 1.313,4.0417 3.94,-0.4052 z" fill="#00B894" transform="translate(216.1544,270.8813) rotate(1.5599223,72566.913,-281308.4)"/>
</svg>