<?xml version="1.0" ?><svg height="149.58867mm" viewBox="0 0 162.42892 149.58867" width="162.42892mm" xmlns="http://www.w3.org/2000/svg">
    <path d="m 7599.5999,1436.2858 c -1.5343,0 -2.7127,0.1702 -3.2619,0.5689 -2.5104,1.8228 -10.0413,15.6608 -14.6342,20.59 -4.5926,4.9293 -24.2765,33.4523 -32.6921,40.9489 -8.4153,7.4966 -28.3273,36.0455 -30.3242,39.1263 -1.9968,3.0808 -1.8825,6.8035 -0.3421,7.8047 0,0 17.4583,0.9242 20.8246,2.0795 3.366,1.1553 36.1151,12.4514 36.1151,12.4514 0,0 7.3316,-7.5221 12.6664,-15.7375 5.3346,-8.2155 14.2919,-42.1816 16.3742,-51.3726 2.0825,-9.191 15.5474,-49.2669 12.8659,-52.0397 -2.095,-2.1662 -12.1124,-4.4108 -17.5917,-4.4199 z m 51.5379,2.9585 c -1.4288,0 -2.6158,0.1088 -3.4225,0.3576 0.2852,0.5905 -3.4231,14.2741 -5.9904,20.5641 -2.5675,6.2899 -14.8916,28.1638 -22.9645,40.0249 -8.0732,11.861 -16.6882,45.5698 -18.9419,54.6582 -2.2537,9.0887 2.1108,9.9359 6.4182,9.063 4.3077,-0.8729 43.9035,1.9252 51.4346,3.2603 7.531,1.335 6.0761,-4.4673 7.1029,-8.7034 1.0271,-4.2361 3.2241,-50.9613 2.9672,-58.5349 -0.2567,-7.5736 5.8762,-57.688 5.8762,-57.688 0,0 -14.7644,-3.0156 -22.4798,-3.0018 z" fill="#FFFFFF" paint-order="markers stroke fill" transform="translate(-156.63727,220.77738) translate(-7359.1729,-1642.0667)"/>
    <path d="m 7647.4691,1569.1595 c -3.897,-0.9367 -16.299,-1.9844 -28.157,-2.3792 l -18.4514,-0.4231 c -5.2607,0.1611 -2.8541,-3.2822 -2.7386,-6.9426 0.1155,-3.6612 0.78,-11.1238 1.732,-16.5794 3.047,-17.4756 9.067,-31.554 26.185,-61.2114 5.648,-9.7918 9.989,-18.9431 11.566,-24.3829 6.625,-22.8946 9.4,-28.409 15.995,-31.7778 14.61,-7.4659 24.639,1.84 24.639,22.8669 0,3.3379 -1.544,14.9376 -3.433,25.7771 -4.542,26.0808 -5.849,39.9321 -5.898,62.5012 -0.03,19.1687 -1.827,31.5188 -4.832,33.424 -2.185,1.3866 -8.606,1.0491 -16.607,-0.8728 z m 15.673,-39.2546 c 0.638,-15.2736 0.981,-27.9527 0.757,-28.1758 -0.774,-0.7738 -21.654,54.7527 -21.654,57.5845 0,0.8085 7.541,2.6784 15.673,3.8866 3.469,0.5154 3.937,-2.4489 5.224,-33.2953 z m -49.067,29.9852 c 5.773,-0.7298 6.139,-0.9807 7.238,-4.9582 0.635,-2.3042 1.705,-8.1157 2.373,-12.9145 4.348,-31.1809 7.06,-48.7248 8.067,-52.1891 2.531,-8.6775 0,-5.3694 -9.598,12.6951 -7.922,14.868 -13.6033,28.7951 -18.046,46.2704 -1.8002,7.0811 -5.8494,14.4412 0.175,12.5222 2.04,-0.3614 6.444,-1.003 9.791,-1.4259 z m 26.956,-7.1495 c 1.738,-7.8652 7.543,-24.9532 17.352,-51.095 3.896,-10.3812 7.082,-19.2239 7.082,-19.6507 0,-0.4268 -1.175,0.2949 -2.61,1.6036 -6.869,6.2554 -14.475,6.8324 -19.477,1.4771 -1.807,-1.9331 -3.674,-5.1986 -4.147,-7.2568 l -0.863,-3.7422 -0.865,4.0639 c -0.474,2.2351 -2.005,12.9462 -3.394,23.8023 -2.639,20.5709 -6.753,42.5106 -9.745,51.9589 l -1.748,5.5151 h 8.469 8.468 z m 25.422,-101.0005 c 6.395,-4.7728 3.804,-6.8046 -9.496,-7.4591 -5.1655,0.3149 -9.5991,-3.0676 -8.415,3.0633 1.454,7.5488 10.663,9.8084 17.911,4.3958 z m 3.656,-15.7785 c 0,-0.5281 -1.566,-2.5287 -3.485,-4.4458 -2.959,-2.9593 -4.055,-3.3662 -7.257,-2.6943 -6.063,1.2727 -9.552,3.31 -9.907,5.789 -0.296,2.1617 0.345,2.3113 10.157,2.3113 5.773,0 10.492,-0.4321 10.492,-0.9602 z m -102.174,124.6208 c -7.988,-5.3041 -21.028,-9.2147 -35.414,-10.6202 -17.494,-1.7095 -19.083,-3.3316 -14.545,-14.845 3.953,-10.03 14.354,-24.7368 28.477,-40.258 20.728,-22.785 36.033,-43.6448 42.079,-57.3569 3.393,-7.6853 6.355,-11.0702 12.404,-14.173 8.867,-4.5446 21.71,-1.1154 24.432,6.5214 2.129,5.9811 -4.434,29.6949 -14.36,51.8838 -1.31,2.9347 -3.956,11.9523 -5.878,20.0392 -5.872,24.713 -15.341,47.397 -24.02,57.537 -2.238,2.6128 -4.94,4.7483 -6.01,4.7456 -1.066,0 -4.292,-1.566 -7.165,-3.4739 z m 13.27,-10.9605 c 5.865,-9.7676 13.152,-29.0656 16.424,-43.4861 1.537,-6.7763 2.801,-13.0441 2.807,-13.9285 0,-2.4757 -3.36,2.3999 -13.573,19.6048 -5.118,8.6211 -12.25,20.2367 -15.851,25.8124 -3.601,5.5756 -6.681,10.609 -6.842,11.1851 -0.395,1.3917 11.088,9.4061 12.105,8.4496 0.438,-0.4098 2.656,-3.8466 4.93,-7.6373 z m -19.738,-2.6007 c 2.426,-6.3231 29.056,-51.2017 34.901,-58.816 8.172,-10.6475 11.029,-14.8822 11.039,-16.3628 0,-0.5903 -1.172,0 -2.607,1.3062 -10.051,9.1549 -22.933,5.7955 -22.933,-5.9808 0,-11.5093 -11.247,10.6234 -21.509,42.3222 -2.376,7.3439 -6.609,17.9283 -9.403,23.5208 -2.794,5.5926 -5.082,10.5796 -5.082,11.0822 0,0.7061 8.6,3.5853 14.1,4.72 0.412,0.085 1.083,-0.7216 1.494,-1.7918 z m -13.464,-14.3094 c 2.495,-6.0667 6.75,-17.8228 9.456,-26.1246 2.705,-8.3018 5.684,-16.5796 6.622,-18.3951 0.934,-1.8154 1.484,-3.5179 1.221,-3.7831 -0.537,-0.5361 -22.045,22.386 -29.526,31.467 -6.326,7.6799 -17.77,24.932 -17.77,26.7918 0,1.1125 3.117,1.4242 12.731,1.2737 l 12.73,-0.1995 z m 61.863,-84.9735 c 2.481,-1.3947 4.512,-2.9808 4.512,-3.5245 0,-1.6286 -10.344,-5.5504 -14.64,-5.5504 -3.281,0 -4.209,0.5655 -5.196,3.1601 -0.83,2.1797 -0.827,3.9808 0,5.8055 1.622,3.564 9.08,3.6172 15.32,0.1092 z m 9.166,-16.622 c -0.461,-1.2815 -2.778,-2.9752 -5.174,-3.7794 -3.778,-1.2674 -4.99,-1.1711 -9.308,0.7392 -6.905,3.054 -7.102,4.1881 -0.75,4.281 2.998,0.044 7.52,1.0888 10.048,2.3222 3.973,1.9397 4.69,2.0074 5.306,0.5008 0.391,-0.9579 0.335,-2.7866 -0.132,-4.0638 z" fill="#00B894" transform="translate(-156.63727,220.77738) translate(-7359.1729,-1642.0667)"/>
</svg>