<?xml version="1.0" ?><svg height="159.93411mm" viewBox="0 0 108.645 159.93411" width="108.645mm" xmlns="http://www.w3.org/2000/svg">
    <path d="m 462.8428,2213.9529 -0.97737,-64.0998 20.2311,-20.8454 36.30004,9.9668 -2.53338,62.2107 z" fill="#FFFFFF" paint-order="markers stroke fill" transform="translate(-384.88509,42.212807) matrix(1.7870809,0,0,1.7870809,-436.6249,-3843.6768)"/>
    <path d="m 460.93197,2215.8427 c -0.31191,-0.438 -0.56168,-2.0835 -0.55506,-3.6564 0.007,-1.573 -0.0986,-6.2423 -0.23379,-10.3764 -0.13522,-4.1341 -0.14575,-11.0036 -0.0233,-15.2661 0.12237,-4.2623 0.1545,-11.4688 0.0714,-16.0145 -0.0831,-4.5458 0.0113,-10.4578 0.20985,-13.1379 0.24785,-3.3459 0.15005,-5.2112 -0.31204,-5.9527 -0.58131,-0.9323 -0.54499,-1.2904 0.26657,-2.6265 1.4142,-2.3285 10.40678,-12.4558 15.36216,-17.3005 3.59688,-3.5167 4.68848,-4.285 6.13624,-4.3183 5.28642,-0.1218 34.32959,7.1491 37.12958,9.2954 1.41709,1.0861 1.70071,3.2445 1.3929,10.6005 -0.22078,5.2764 -0.45165,22.0967 -0.54341,39.5933 -0.0666,12.687 -0.22026,13.7603 -2.19859,15.3517 -1.18399,0.9524 -3.07563,1.599 -6.33034,2.1636 -2.55296,0.4431 -9.24849,2.0546 -14.87892,3.5814 -12.70772,3.4457 -27.66919,7.1416 -29.97617,7.4049 -0.95494,0.109 -2.03861,0.5122 -2.40818,0.8957 -0.86423,0.8973 -2.38352,0.7814 -3.10935,-0.2303 z m 14.759,-6.9359 c 4.75397,-1.2385 13.07297,-3.4821 18.48671,-4.986 5.41376,-1.5041 11.6098,-3.0497 13.76895,-3.4348 2.15918,-0.385 3.76169,-0.87 3.56116,-1.0775 -0.4782,-0.4947 -25.92952,-12.7294 -29.50353,-14.1827 -1.51981,-0.6181 -2.82066,-1.0431 -2.89078,-0.9447 -0.0701,0.098 -2.96025,5.9759 -6.42261,13.0608 -3.46235,7.0849 -6.38977,13.0742 -6.50538,13.3095 -0.36732,0.7475 0.67081,0.5571 9.50548,-1.7446 z m -4.14154,-13.7545 6.41736,-13.4456 0.92738,-15.8937 c 0.51002,-8.7416 0.84594,-15.9882 0.74649,-16.1037 -0.0996,-0.1152 -3.66982,0.4082 -7.93396,1.1634 l -7.75305,1.3731 0.0359,3.5023 c 0.0198,1.9262 0.10691,7.6049 0.19372,12.619 0.0868,5.0142 0.0444,13.4465 -0.0944,18.7386 -0.31202,11.9022 -0.0325,22.4197 0.58174,21.8902 0.25375,-0.2187 3.34922,-6.4484 6.87875,-13.8436 z m 43.85357,-13.9695 c 0.3077,-8.7685 0.77849,-21.2862 1.04623,-27.8171 0.26773,-6.531 0.39109,-11.9775 0.27418,-12.1035 -0.46383,-0.4996 -33.62498,7.1022 -34.5826,7.9278 -0.38141,0.3288 -1.24125,27.5723 -0.96564,30.5964 l 0.19512,2.1411 6.99672,2.9916 c 6.53174,2.7928 18.97322,8.7133 23.91468,11.3802 1.19073,0.6425 2.25426,1.0914 2.36344,0.9971 0.10911,-0.094 0.45016,-7.3451 0.75787,-16.1136 z m -42.57957,-34.2304 6.67062,-1.4805 0.48603,-6.561 c 0.26733,-3.6087 0.38532,-6.5685 0.26224,-6.5776 -0.21281,-0.016 -8.55004,8.531 -13.27747,13.6112 -1.24773,1.3408 -1.90851,2.4036 -1.51342,2.434 0.38585,0.029 3.70311,-0.612 7.372,-1.4261 z m 21.07356,-4.9689 c 6.32799,-1.5549 12.79884,-3.0307 14.37972,-3.2797 1.58086,-0.2489 2.77055,-0.5728 2.6438,-0.72 -0.64741,-0.7509 -24.00045,-6.7627 -27.18731,-6.9988 -0.95005,-0.07 -1.0523,0.3869 -1.53101,6.8492 -0.28214,3.8087 -0.35497,6.9363 -0.16185,6.9506 0.19312,0.014 5.52859,-1.2461 11.85665,-2.8013 z" fill="#00B894" transform="translate(-384.88509,42.212807) matrix(1.7870809,0,0,1.7870809,-436.6249,-3843.6768)"/>
</svg>