<?xml version="1.0" ?><svg height="76.242096mm" viewBox="0 0 82.121666 76.242096" width="82.121666mm" xmlns="http://www.w3.org/2000/svg">
    <path d="m 366.08702,-1414.1066 74.6507,-0.6666 c 0,0 -13.87008,-28.4799 -17.50235,-34.5549 -3.63226,-6.0749 -19.76851,-30.071 -19.76851,-30.071 0,0 -20.23457,33.7594 -23.01502,38.7206 -2.78045,4.9613 -14.36482,26.5719 -14.36482,26.5719 z" fill="#FFFFFF" paint-order="markers stroke fill" transform="translate(-49.833122,-106.193) matrix(1.0618609,0,0,1.0618609,-337.29784,1680.0402)"/>
    <path d="m 364.58533,-1416.0229 c 0.23409,-3.9561 36.3112,-64.4632 39.14034,-65.8201 1.23802,-0.5938 1.76563,-0.396 2.58517,0.9697 1.93489,3.2241 7.12505,11.3972 11.81592,18.6065 6.59127,10.1301 20.12848,34.6375 22.24691,40.2754 2.19166,5.8329 2.0605,8.5073 -0.4828,9.8448 -2.69574,1.4178 -9.48156,2.0028 -19.91471,1.7171 -9.83004,-0.2692 -38.42077,-0.5726 -46.91706,-0.4974 -3.17721,-0.1429 -8.71259,-1.0594 -8.47377,-5.096 z m 41.21384,-0.4537 c 23.12098,0.339 27.50871,0.2692 28.94169,-0.4607 0.93999,-0.4787 0.56879,-1.861 -1.83485,-6.8325 -6.39276,-13.2224 -27.15505,-48.675 -28.48692,-48.6427 -0.58767,0.023 -25.04624,39.0579 -30.2847,49.7985 -1.7441,3.5761 -6.65275,7.0078 -1.55102,6.6307 10.82988,-0.7859 23.18199,-0.6338 33.2158,-0.4933 z" fill="#00B894" transform="translate(-49.833122,-106.193) matrix(1.0618609,0,0,1.0618609,-337.29784,1680.0402)"/>
</svg>