<?xml version="1.0" ?><svg height="46.275951mm" viewBox="0 0 51.25613 46.275951" width="51.25613mm" xmlns="http://www.w3.org/2000/svg">
    <path d="m -327.25504,-1362.1732 22.81571,16.847 -9.58223,22.7351 -23.55707,-0.2502 -12.34382,-22.3682 z" fill="#FFFFFF" paint-order="markers stroke fill" transform="translate(12.871022,-127.95326) translate(339.47824,1493.1291)"/>
    <path d="m -337.98304,-1319.3536 c -1.98146,-0.4787 -3.08506,-1.8906 -4.12529,-5.2783 -0.78108,-2.5434 -3.56109,-8.0318 -6.17779,-12.1962 -7.52872,-10.9641 -4.03194,-8.276 5.86209,-17.883 6.76124,-6.5649 9.48717,-7.9015 12.8061,-9.7713 3.08723,-1.7395 3.68834,-0.4984 15.11382,7.0905 15.57103,10.3427 14.37014,11.5479 12.01933,15.8423 -2.5862,4.7246 -7.38624,17.179 -7.38624,19.1651 0,0.9627 -0.55724,2.0819 -1.23831,2.4867 -1.60707,0.9549 -23.3503,1.3954 -26.87371,0.5442 z m 30.90126,-22.3826 c 1.66416,-3.2272 2.40321,-2.9272 -3.61114,-7.3804 -2.69832,-2.3131 -8.58614,-5.9192 -11.21086,-7.9958 -5.36295,-4.2537 -5.6298,-4.109 -9.24912,-1.0121 -4.21993,3.4783 -10.33598,8.3007 -12.65342,10.3428 -3.90005,3.4362 -3.53881,2.8763 -1.20314,6.8171 1.72801,2.9154 6.64207,12.8618 8.21898,15.2178 1.75363,2.6202 0.96824,2.4337 9.73393,2.3106 l 10.08817,-0.1417 c 3.02376,0.264 2.98149,-1.4365 6.76788,-10.5252 z" fill="#00B894" transform="translate(12.871022,-127.95326) translate(339.47824,1493.1291)"/>
</svg>