<?xml version="1.0" ?><svg height="65.6064mm" viewBox="0 0 57.536892 65.6064" width="57.536892mm" xmlns="http://www.w3.org/2000/svg">
    <path d="m 62.53685,180.9334 c -0.4768,-1.71807 10.1904,-16.23562 18.83367,-25.63233 4.05833,-3.49509 2.05471,-4.18884 -1.04507,-7.86248 l -3.9601,-4.69329 c -12.1159,-14.35949 -15.5727,-18.9409 -15.4317,-20.4525 0.3081,-3.31115 5.0733,0.26576 14.614,10.97177 5.6302,6.31736 10.83663,11.98104 11.57062,12.58541 1.36527,1.12562 11.21109,-8.6602 21.49341,-21.363 3.78915,-4.68033 6.29322,-6.6664 7.70038,-6.10687 4.44916,1.76947 2.16211,6.26627 -10.16929,19.99472 -8.27852,9.21646 -12.16662,14.50429 -11.46092,15.5864 0.58753,0.90053 6.21631,7.02244 12.50856,13.60377 6.29228,6.58149 11.36575,12.89974 11.27482,14.0407 -0.38983,4.89485 -4.4976,2.23365 -16.74477,-10.85066 -6.98138,-7.45862 -12.8898,-13.4043 -13.12971,-13.21228 -0.24146,0.19069 -3.80195,4.27812 -7.9166,9.08045 -15.1566,17.69076 -16.8321,19.01287 -18.1373,14.31019 z" fill="#00B894" transform="translate(-60.929543,-118.28807)"/>
</svg>