<?xml version="1.0" ?><svg height="132.43555mm" viewBox="0 0 143.09789 132.43555" width="143.09789mm" xmlns="http://www.w3.org/2000/svg">
    <path d="m -113.58034,2205.1992 0.86307,-49.3014 36.233467,-8.7561 38.979633,11.0156 1.12985,50.7421 -41.411948,10.3235 z" fill="#FFFFFF" paint-order="markers stroke fill" transform="translate(225.08284,115.29827) matrix(1.7870809,0,0,1.7870809,-19.4211,-3951.3585)"/>
    <path d="m -85.493319,2218.1302 c -15.095191,-5.2146 -28.685361,-11.014 -28.955051,-12.356 -0.206,-1.0251 -0.54887,-16.2177 -0.62988,-27.9122 -0.0588,-8.4873 0.50169,-19.6049 1.08309,-21.484 0.27862,-0.9005 1.08644,-1.38 3.25975,-1.9348 1.58916,-0.4057 5.88767,-1.56 9.55228,-2.5651 10.901323,-2.99 22.74019,-5.4586 25.521223,-5.3217 1.431096,0.071 6.042981,1.0615 10.248501,2.2022 4.205589,1.1405 12.020987,3.2279 17.367564,4.6388 5.346663,1.4107 10.165218,2.8564 10.707906,3.2124 0.581644,0.3817 1.14468,1.6224 1.371484,3.022 0.630203,3.8895 1.135511,27.5842 0.897489,42.0817 -0.149792,9.1323 0.168159,8.6433 -6.70467,10.3068 -2.250741,0.5448 -8.13161,2.1503 -13.068654,3.5678 -9.584579,2.7518 -20.843387,5.2668 -22.642094,5.0579 -0.60201,-0.07 -4.205975,-1.202 -8.008938,-2.5158 z m 21.409108,-3.9455 c 5.641167,-1.6009 13.824419,-3.7716 18.185017,-4.8239 l 7.92838,-1.9133 0.03169,-2.4271 c 0.01739,-1.335 -0.126044,-9.1177 -0.318917,-17.295 -0.192931,-8.1772 -0.33597,-17.6749 -0.317951,-21.1059 0.0314,-6.0005 -0.0087,-6.23 -1.055967,-6.0258 -0.598851,0.1167 -8.228188,1.9984 -16.954079,4.1816 -8.725872,2.1832 -16.727448,4.0766 -17.781193,4.2075 -1.053735,0.1315 -2.02869,0.4134 -2.166657,0.6275 -0.138044,0.2141 -0.19724,2.9632 -0.132334,6.109 0.06522,3.1458 0.205878,10.1792 0.312618,15.6296 0.511472,26.1368 0.513975,26.182 1.427956,25.9165 0.321622,-0.093 5.200233,-1.4797 10.841419,-3.0807 z m -14.93048,0.8214 c 0.03507,-0.6789 -0.05439,-2.8741 -0.199095,-4.8781 -0.409456,-5.6713 -0.62626,-31.6048 -0.308734,-36.929 0.337777,-5.6356 0.740296,-5.1754 -6.607823,-7.5267 -10.058893,-3.2188 -24.561067,-7.6411 -25.153227,-7.6702 -0.82209,-0.041 -1.15755,6.327 -0.89589,17.0064 0.11506,4.6945 0.20693,10.8869 0.20429,13.7605 -0.004,4.9099 0.33317,15.5792 0.49992,15.7944 0.0922,0.1197 22.352025,8.4891 27.190492,10.2243 4.698897,1.685 5.193007,1.7055 5.270067,0.2184 z m 15.674245,-52.2497 c 6.654584,-1.6772 13.881421,-3.4527 16.059739,-3.9458 2.178347,-0.4932 3.971625,-1.0806 3.985103,-1.3055 0.0143,-0.225 -2.975173,-1.0857 -6.641445,-1.9127 -3.666359,-0.827 -10.95472,-2.8292 -16.19644,-4.4491 -7.838528,-2.4224 -9.812447,-2.8589 -11.118532,-2.4586 -0.873422,0.2676 -5.491799,1.2764 -10.263109,2.2417 -8.052193,1.6291 -19.07379,4.2789 -19.48971,4.6855 -0.0989,0.097 5.09945,1.8691 11.552151,3.9382 6.452745,2.0692 13.28145,4.409 15.174898,5.1998 1.893438,0.7907 3.756617,1.3517 4.140392,1.2467 0.383776,-0.1049 6.142436,-1.5632 12.796953,-3.2402 z" fill="#00B894" transform="translate(225.08284,115.29827) matrix(1.7870809,0,0,1.7870809,-19.4211,-3951.3585)"/>
</svg>