<?xml version="1.0" ?><svg height="104.44744mm" viewBox="0 0 138.26073 104.44744" width="138.26073mm" xmlns="http://www.w3.org/2000/svg">
    <path d="m -1163.0766,1778.3056 c 0,0 -7.9516,-3.8695 -5.6632,-12.1698 2.2884,-8.3005 17.4289,-11.1503 17.4289,-11.1503 0,0 -3.814,-9.819 1.6412,-15.7687 5.4552,-5.9497 13.1064,-2.9956 13.1064,-2.9956 0,0 -1.1327,-8.238 9.8933,-12.877 11.026,-4.6389 18.9314,3.7444 18.9314,3.7444 0,0 7.628,-8.5291 15.649,-6.8233 8.021,1.706 13.8229,10.0478 13.8229,10.0478 0,0 7.1195,-3.3491 13.9616,-0.1246 6.8422,3.2244 9.3155,13.7091 9.3155,13.7091 0,0 9.5004,2.3923 12.3435,7.6345 2.8432,5.2425 -3.2361,14.0211 -3.2361,14.0211 0,0 7.813,1.81 8.8301,9.2157 1.017,7.4059 -8.3447,11.3586 -8.3447,11.3586 0,0 -0.6241,13.2098 -7.3506,17.3079 -6.7265,4.0982 -16.3656,3.8069 -16.3656,3.8069 0,0 -3.1437,9.1532 -11.9275,10.1311 -8.7838,0.9777 -16.9897,-4.327 -17.6832,-4.7847 -0.6934,-0.4577 -9.0149,8.0716 -19.0007,6.2616 -9.9858,-1.8097 -11.3265,-10.0478 -11.3265,-10.0478 0,0 -10.5362,2.7471 -14.7244,0.1872 -4.036,-2.4669 -6.3105,-12.7104 -6.3105,-12.7104 0,0 -11.1415,2.7668 -13.4762,-3.1413 -2.3346,-5.908 0.4854,-14.8324 0.4854,-14.8324 z" fill="#FFFFFF" paint-order="markers stroke fill" transform="translate(440.38036,19.503381) translate(731.11194,-1737.4282)"/>
    <path d="m -1085.7884,1820.1361 c -3.3024,-0.5364 -7.214,-1.9985 -10.193,-3.8115 -3.8555,-2.4951 -2.6968,-1.7215 -5.9947,1.7073 -2.8766,2.9909 -3.789,3.4614 -7.9622,4.1044 -8.2553,1.272 -16.294,-2.7066 -18.8571,-9.3324 -0.738,-1.9079 -1.0787,-2.0969 -2.2242,-1.2361 -1.819,1.3663 -7.4715,2.1758 -9.7876,1.3998 -5.4283,-1.8149 -8.9553,-5.9267 -9.7503,-11.3663 -0.5343,-3.6636 -0.5837,-3.7127 -2.7983,-3.0307 -3.0501,0.9391 -9.1897,-1.0523 -11.3408,-3.6779 -2.4001,-2.9285 -2.9298,-7.6206 -1.3916,-12.3275 1.2874,-3.9413 1.2829,-3.9906 -0.4696,-5.1457 -7.2325,-4.7659 -6.405,-14.0144 1.7628,-19.6977 2.8005,-1.9487 5.4077,-3.0827 8.009,-3.4835 4.8128,-0.7762 4.1331,0.3782 2.8458,-4.1444 -1.2753,-4.4813 0.4389,-10.2271 4.0281,-13.501 2.0177,-1.841 3.3442,-2.3423 7.2852,-2.7557 5.3895,-0.657 4.3705,0.844 5.9383,-3.8824 0.6162,-1.858 2.3079,-4.6633 3.7592,-6.2338 5.0875,-5.5064 17.1503,-6.2767 22.6734,-1.4481 2.8253,2.4736 1.839,2.5757 4.3693,0.024 4.1634,-4.1979 12.2078,-5.5404 19.732,-3.2936 2.9584,0.8832 8.5081,6.1897 8.8596,8.4705 0.1221,0.7927 0.6272,0.8374 1.8548,0.1647 0.9278,-0.5083 3.5785,-1.1856 5.8911,-1.5053 7.6434,-1.0556 14.6431,4.1698 15.8208,11.8134 0.5396,3.5014 0.697,3.6911 3.1567,3.8006 1.4956,0.066 4.0685,1.258 6.0957,2.8231 6.0612,4.68 7.8204,11.9564 4.2263,17.4858 -2.522,3.7622 -2.1643,2.4844 1.6419,5.131 3.7474,2.6049 5.521,6.2198 5.367,10.9391 -0.1155,3.5443 -4.4477,9.0086 -8.185,10.3236 -2.1218,0.7464 -2.6902,1.3523 -2.5015,2.6674 0.4453,3.0857 -1.6433,8.5409 -4.5695,11.9459 -4.4347,5.16 -10.205,7.196 -17.5163,6.1805 -1.4034,-0.1954 -1.8021,0.1809 -1.9574,1.8486 -0.1074,1.1514 -1.3411,3.2837 -2.7409,4.7381 -2.1047,2.1865 -3.4497,2.8176 -7.7661,3.6435 -2.8715,0.5509 -6.1613,0.8481 -7.311,0.6608 z m 10.5572,-6.881 c 3.0517,-1.866 4.3479,-4.0481 3.9886,-6.7164 -0.2503,-1.8602 0,-2.126 2.1313,-2.2357 11.2286,-0.5802 11.6547,-0.6648 15.026,-2.9898 4.3007,-2.966 5.4889,-5.6906 5.075,-11.6415 -0.7177,-4.6521 -0.402,-4.7816 3.7041,-6.3907 5.3159,-2.0841 6.8788,-4.0792 6.2732,-8.0087 -0.5426,-3.5222 -3.4283,-6.1584 -7.5797,-6.9248 -3.4496,-0.6368 -3.401,-2.2682 0.2001,-6.6679 2.7003,-3.2999 3.0173,-4.1634 2.5765,-7.0244 -0.7628,-4.95 -4.6101,-8.0135 -9.8119,-7.8128 -4.8161,0.7608 -4.2475,-1.0476 -5.2354,-5.3437 -1.4223,-6.1826 -2.6095,-8.0659 -6.0824,-9.646 -2.5151,-1.1449 -8.2421,-0.7508 -11.5323,0.794 -1.7198,0.8071 -2.2134,0.4885 -5.3181,-3.4273 -4.0562,-5.115 -7.3021,-6.4126 -14.3904,-5.7509 -4.822,0.4497 -5.4077,0.7684 -10.1738,5.518 -0.8882,0.885 -1.7846,0.6355 -4.6732,-1.3033 -9.6707,-6.4891 -19.3724,-3.7123 -22.9497,6.5678 -1.7259,5.1945 -0.7634,3.8601 -6.2769,4.1905 -8.1693,0.4887 -11.0669,4.4038 -9.7259,13.1417 0.7961,5.1668 0.3308,5.8868 -4.2651,6.6402 -5.9207,0.9726 -12.3338,7.0215 -11.7128,11.0519 0.1728,1.1209 1.6149,3.5264 3.2045,5.3463 3.532,4.0215 3.2168,2.3734 1.5213,7.2326 -3.1733,9.0916 1.2701,13.8983 10.4835,11.3407 4.6131,-1.685 3.9991,-0.7389 4.2151,3.6967 0.2619,5.3683 1.3222,7.7663 4.3413,9.8196 3.1715,2.156 7.1914,2.3384 10.7115,0.4844 2.968,-1.563 2.9992,-1.5586 4.6728,0.6275 5.2154,6.8131 8.1962,8.8203 13.6508,9.1921 3.7243,0.2543 7.7781,-1.7377 12.1087,-5.9508 2.2854,-2.1872 1.422,-2.4101 3.7446,-0.5229 5.8557,4.7581 16.5988,6.0772 22.0987,2.7136 z" fill="#00B894" transform="translate(440.38036,19.503381) translate(731.11194,-1737.4282)"/>
</svg>