<?xml version="1.0" ?><svg height="119.33468mm" viewBox="0 0 135.86266 119.33468" width="135.86266mm" xmlns="http://www.w3.org/2000/svg">
    <path d="m 261.46076,2199.917 20.86345,-27.533 15.26911,-17.5969 37.62824,35.7251 c 0,0 -12.8688,13.3762 -14.51213,14.6224 -1.64332,1.2462 -15.43526,13.5922 -15.43526,13.5922 z" fill="#FFFFFF" paint-order="markers stroke fill" transform="translate(-215.22541,33.239346) matrix(1.7870809,0,0,1.7870809,-249.5961,-3881.8487)"/>
    <path d="m 298.73703,2217.3421 c -7.29203,-3.4126 -9.01736,-4.1171 -20.56386,-8.3967 -11.06031,-4.0996 -16.52701,-6.3366 -17.44419,-7.1382 -0.67832,-0.5929 -0.78031,-1.1442 -0.43468,-2.3492 0.61952,-2.1602 7.70641,-11.5468 22.28293,-29.5138 9.58006,-11.8085 13.61533,-16.3711 14.47906,-16.3711 1.54288,0 3.69256,1.8748 20.54473,17.9184 16.44907,15.6598 18.52488,17.8632 18.52488,19.6643 0,1.6278 -3.6334,5.961 -8.25659,9.8467 -2.34248,1.9689 -7.87256,7.0278 -12.28909,11.2422 -4.41655,4.2144 -8.39065,7.8445 -8.83131,8.067 -0.51092,0.2582 -3.41338,-0.8177 -8.01188,-2.9696 z m 4.3299,-6.6445 c -1.13569,-4.491 -2.12928,-10.7898 -3.70266,-23.4724 l -0.71286,-7.0257 -3.26645,-1.4061 c -2.36254,-1.009 -3.12892,-1.4031 -3.6277,-0.8291 l -2.51473,2.2815 c -4.46243,3.9054 -19.12111,15.2646 -22.65688,17.5572 -1.67285,1.0847 -3.05237,2.0923 -3.06568,2.2391 -0.0136,0.1469 5.5617,2.1663 12.38876,4.4876 6.82706,2.3212 15.898,5.7046 20.15768,7.5189 4.25965,1.8143 7.82667,3.2383 7.92666,3.1646 0.10008,-0.074 -0.31676,-2.1058 -0.92614,-4.5156 z m 22.58798,-12.8309 c 2.6134,-2.1819 4.30226,-3.873 5.06724,-4.5077 0.76493,-0.6345 1.27061,-1.2639 1.12374,-1.3984 -0.14686,-0.1347 -1.83576,-1.6278 -5.06723,-2.5691 -3.23144,-0.9413 -9.91164,-3.0457 -14.84488,-4.6766 -4.93324,-1.631 -9.04067,-2.8754 -9.12767,-2.7656 -0.21477,0.271 1.57594,15.9636 2.61311,22.9 0.46125,3.0846 0.98426,6.7639 1.16221,8.1762 l 0.3236,2.5678 6.99912,-6.8797 c 3.84951,-3.7839 9.13736,-8.665 11.75076,-10.8469 z m -38.17296,-18.8055 3.96749,-3.0605 1.7881,-7.3002 c 0.98341,-4.0151 1.71702,-7.5134 1.63017,-7.7739 -0.13687,-0.4106 -4.96877,5.3838 -25.08011,30.0768 -2.29153,2.8134 -4.16639,5.2833 -4.16639,5.4886 0,0.2051 4.02598,-2.9443 8.94661,-6.9986 4.92063,-4.0544 10.73197,-8.7489 12.91413,-10.4322 z m 27.54594,-5.1763 c -11.95058,-11.9351 -14.99142,-14.7128 -15.1342,-13.8241 0.64421,7.0994 1.45175,12.4101 2.61232,19.7294 l 13.32435,4.5878 c 7.19664,2.401 14.62759,4.6283 14.92135,4.6497 0.29375,0.021 -7.49828,-6.9279 -15.72382,-15.1428 z m -18.63202,-11.0801 c -0.18119,-0.1813 -0.32946,0.041 -0.32946,0.4917 0,0.4518 -0.83535,3.5423 -1.85639,6.8678 -1.02099,3.3255 -1.78409,6.1186 -1.69576,6.2069 0.29753,0.2975 5.13032,1.8905 5.80424,1.9285 -0.55414,-5.0618 -0.95394,-9.518 -1.92263,-15.4949 z" fill="#00B894" transform="translate(-215.22541,33.239346) matrix(1.7870809,0,0,1.7870809,-249.5961,-3881.8487)"/>
</svg>