<?xml version="1.0" ?><svg height="130.50168mm" viewBox="0 0 138.91748 130.50168" width="138.91748mm" xmlns="http://www.w3.org/2000/svg">
    <path d="m -123.87312,-1551.4828 64.923118,-46.605 65.6573857,49.9416 -23.9765877,71.0207 -82.354077,1.0961 z" fill="#FFFFFF" paint-order="markers stroke fill" transform="translate(1.6869229,-32.021672) translate(126.5057,1633.974)"/>
    <path d="m -104.091,-1473.1068 c -1.19512,-1.0474 -3.55544,-8.9985 -5.28825,-15.4184 -2.26433,-8.3891 -6.787,-20.2648 -8.68932,-27.5625 -5.35199,-20.5304 -9.05282,-30.7686 -9.63117,-32.5227 -1.52219,-4.617 0.68593,-7.0666 3.82441,-9.2458 14.08367,-9.7797 50.312118,-35.6146 57.026292,-40.2079 5.582669,-3.2956 6.292515,-5.1785 9.856719,-2.8604 4.193565,2.5993 29.569083,20.6699 41.973004,30.8967 6.5809204,5.4257 17.6350118,13.3922 20.5158957,15.3817 6.7527953,4.6635 5.4652183,6.4074 4.2696627,9.3605 -6.3443952,15.6711 -10.30369577,30.2292 -14.4679164,43.7633 -5.675623,18.7101 -6.035184,18.8304 -7.051674,23.4532 -1.737489,7.9014 -6.349018,6.0608 -10.661715,6.2846 -6.270694,0.3253 -9.675122,0.2241 -16.536313,0.1462 -19.558653,-0.2217 -57.600194,-0.027 -61.034514,0.1801 -1.607371,0.097 -3.086451,-0.7556 -4.105111,-1.6481 z m 80.154138,-5.8138 c 6.457745,-0.2363 5.705016,-0.7736 7.13021,-5.3262 4.342333,-13.9049 12.8293566,-43.0342 17.01661441,-56.1929 1.17925979,-4.8578 2.91587249,-6.0889 -0.7656616,-9.3742 -1.14382731,-1.0208 -8.60184341,-7.1781 -18.56775781,-14.3866 -24.706318,-17.8705 -38.314997,-29.2199 -39.675292,-29.345 -2.771074,-0.255 -59.875151,40.2925 -60.927361,43.7764 -0.19603,0.649 1.75768,7.8478 2.4636,10.5221 7.78924,29.5082 10.39876,39.2443 14.02418,47.9074 2.3413,5.5947 4.758451,10.8231 5.371441,11.6189 0.90944,1.1804 2.243698,1.4076 7.251094,1.235 22.196155,-0.8689 44.492154,0.6521 66.678933,-0.4349 z" fill="#00B894" transform="translate(1.6869229,-32.021672) translate(126.5057,1633.974)"/>
</svg>