<?xml version="1.0" ?><svg height="27.649416mm" viewBox="0 0 29.014677 27.649416" width="29.014677mm" xmlns="http://www.w3.org/2000/svg">
    <path d="m 64.05796,146.75467 c -0.3068,-0.90091 1.7965,-3.92517 4.6746,-6.72028 l 5.2327,-5.08192 -4.2836,-5.05321 c -2.35605,-2.77928 -4.1071,-5.8652 -3.8912,-6.85814 0.53055,-2.43627 2.15845,-1.64691 7.6658,3.71581 4.0676,3.96058 4.8753,4.36791 6.3964,3.22394 0.9575,-0.72003 4.276,-3.23167 7.3746,-5.5811 7.1388,-5.41407 7.7034,-2.10363 0.8946,5.24716 -5.2241,5.64021 -5.2907,5.21298 1.9728,12.70685 3.5995,3.71361 3.9612,7.03493 0.7642,7.01446 -1.0425,-0.007 -4.184,-2.30727 -6.9804,-5.11213 l -5.0847,-5.09953 -4.9195,5.02274 c -4.7845,4.88402 -8.6813,5.90677 -9.8163,2.57535 z" fill="#00B894" transform="translate(-64.028233,-121.71892)"/>
</svg>