<?xml version="1.0" ?><svg height="46.691135mm" viewBox="0 0 47.398136 46.691135" width="47.398136mm" xmlns="http://www.w3.org/2000/svg">
    <path d="m 337.97767,-1327.7164 a 20.244942,21.045244 0 0 1 -20.24494,21.0452 20.244942,21.045244 0 0 1 -20.24494,-21.0452 20.244942,21.045244 0 0 1 20.24494,-21.0453 20.244942,21.045244 0 0 1 20.24494,21.0453 z" fill="#FFFFFF" paint-order="markers stroke fill" transform="translate(-27.727776,-61.967168) translate(-266.67187,1413.4792)"/>
    <path d="m 294.41658,-1326.5315 c 0.38631,-8.4079 6.47842,-19.4412 14.28389,-23.0607 6.1947,-2.8724 14.02229,-2.3478 19.03567,0.4199 8.57986,4.7366 14.06164,14.1095 14.06164,21.6543 0,6.5534 -2.08385,12.1746 -8.93296,17.834 -14.77533,12.2091 -39.19957,-0.4949 -38.44824,-16.8475 z m 32.19706,14.2083 c 6.471,-4.1649 8.46751,-8.8283 9.30919,-12.5745 1.02538,-4.5637 -0.82542,-10.7186 -4.84289,-15.0136 -6.57578,-7.03 -14.29564,-10.0672 -22.48979,-4.5603 -5.95765,4.0038 -9.49982,11.7632 -9.09222,17.7314 0.98841,14.4731 18.38136,20.0387 27.11571,14.417 z" fill="#00B894" transform="translate(-27.727776,-61.967168) translate(-266.67187,1413.4792)"/>
</svg>