<?xml version="1.0" ?><svg height="78.728088mm" viewBox="0 0 82.279251 78.728088" width="82.279251mm" xmlns="http://www.w3.org/2000/svg">
    <path d="m 440.54924,-1333.9388 a 38.12978,37.186234 0 0 1 -38.12978,37.1862 38.12978,37.186234 0 0 1 -38.12978,-37.1862 38.12978,37.186234 0 0 1 38.12978,-37.1863 38.12978,37.186234 0 0 1 38.12978,37.1863 z" fill="#FFFFFF" paint-order="markers stroke fill" transform="translate(-45.369094,-50.333975) translate(-316.18186,1423.885)"/>
    <path d="m 377.30469,-1302.9801 c -12.47741,-10.4235 -18.64318,-24.6405 -14.43982,-39.5982 5.7078,-20.3116 30.5271,-36.6183 50.35503,-29.1116 15.41136,5.8347 30.77016,15.5302 30.60905,35.7335 -0.18676,23.4243 -18.62317,41.268 -42.92726,41.1327 -8.38485,-0.045 -17.38561,-2.9678 -23.597,-8.1564 z m 33.97037,0.1801 c 7.40416,-1.9579 12.23922,-4.8361 17.87278,-10.6393 4.28167,-4.4106 5.58402,-6.5819 7.65187,-11.3751 8.13337,-18.8524 -7.05711,-33.4749 -21.46444,-40.3006 -16.89611,-8.0049 -35.91736,0.2729 -45.18615,18.9471 -2.62612,5.2912 -2.74375,6.3104 -2.77704,12.3761 -0.0734,13.3635 11.53267,26.135 22.20399,30.3363 5.54455,2.1828 15.04155,2.4161 21.69899,0.6555 z" fill="#00B894" transform="translate(-45.369094,-50.333975) translate(-316.18186,1423.885)"/>
</svg>