<?xml version="1.0" ?><svg height="107.34018mm" viewBox="0 0 115.33084 107.34018" width="115.33084mm" xmlns="http://www.w3.org/2000/svg">
    <path d="m 2169.3957,-1119.2128 c 4.9379,-19.4504 13.1043,-45.7034 57.9245,-51.2069 44.8201,-5.5036 49.1881,42.832 49.834,46.0452 0.6455,3.2133 -1.5193,15.827 -4.0643,20.2025 -2.5448,4.3755 -33.9191,30.1499 -36.4638,31.7223 -2.545,1.5725 -29.0193,5.4352 -44.7823,-4.2045 -15.7631,-9.6398 -21.3466,-27.0392 -22.4481,-42.5586 z" fill="#FFFFFF" paint-order="markers stroke fill" transform="translate(-362.66516,46.119175) translate(-1803.5612,1128.4929)"/>
    <path d="m 2228.0411,-1174.612 c -22.0089,0.037 -41.713,13.4444 -54.5496,33.8971 -6.5861,10.4938 -7.3092,16.8878 -7.2632,26.4837 0.036,7.6333 0.4102,9.2881 3.6851,16.3117 2.7315,5.8589 5.3422,9.5 10.4226,14.5376 9.5998,9.4217 28.3899,16.9662 45.0185,16.0316 9.6993,-0.5451 11.9852,-2.4074 17.9978,-6.5418 6.2129,-4.2718 31.3409,-27.3734 33.7137,-30.9945 2.3376,-3.5675 4.4912,-13.1297 4.4912,-19.9424 0,-14.9534 -9.5142,-32.3153 -22.7536,-41.5225 -5.9081,-4.1087 -13.5401,-6.5325 -25.1205,-7.9778 -1.8955,-0.1928 -3.7768,-0.2858 -5.642,-0.2827 z m -0.292,7.5313 c 14.2046,-0.046 25.3344,4.1823 33.8197,12.8287 10.1441,10.3364 14.8509,23.3643 13.5309,37.4525 -0.7074,7.5374 -0.7158,7.5654 -3.6535,7.5654 -4.021,0 -14.1596,3.5214 -19.0784,6.6265 -9.209,5.8136 -16.4002,16.8414 -18.6278,25.709 -1.2911,5.1396 -4.4896,3.7167 -9.6738,4.3258 -10.7482,0.2202 -17.929,-1.2262 -25.877,-5.2121 -7.926,-3.9745 -18.4341,-14.3871 -22.1397,-21.98 -4.4824,-9.1843 -4.0276,-22.5129 0.3906,-33.5297 4.2385,-10.5689 11.0119,-18.3009 20.6804,-24.6766 9.5799,-6.3168 15.3055,-8.2808 26.1209,-8.9581 1.5357,-0.096 3.0383,-0.1466 4.5077,-0.1514 z m 1.1597,26.017 c -0.1753,0 -0.354,0.011 -0.5354,0.038 -3.1518,0.4708 -4.4087,3.1369 -2.9673,6.3004 1.4606,3.2059 4.7915,3.1829 6.5092,-0.262 1.4721,-2.9528 -0.3784,-6.0573 -3.0065,-6.0767 z m -17.2517,0.8258 c -2.6906,0.077 -4.8363,3.6376 -2.8841,6.9474 1.0936,1.8541 3.2972,2.1993 5.0571,0.8092 2.2262,-1.7583 2.2989,-4.8034 0.5674,-6.535 -0.8863,-0.8863 -1.8435,-1.2474 -2.7404,-1.2216 z m 14.7965,27.5384 c -0.5622,0 -1.1376,0.012 -1.7658,0.045 -3.8321,0.199 -8.3121,-0.4181 -12.4127,0.8791 -1.5028,0.4754 -2.6793,4.1102 1.0072,4.3992 6.804,0.5333 13.8416,0.4835 19.851,-1.0139 1.3283,-0.331 2.1389,-1.436 1.9043,-2.1198 -0.2719,-0.7926 -1.8346,-1.8501 -5.7004,-2.0815 -1.0465,-0.063 -1.9466,-0.1059 -2.8836,-0.108 z m 45.437,8.6537 c 0.137,0.01 0.2315,0.035 0.2786,0.082 0.2633,0.2633 -1.0024,1.3568 -2.8123,2.4303 -1.8099,1.0733 -6.8884,5.3133 -11.2856,9.4222 -10.0408,9.3818 -20.4939,17.3841 -20.4659,15.6662 0.09,-5.3402 9.1983,-17.1362 16.4109,-21.253 4.2074,-2.4016 15.8191,-6.4686 17.8743,-6.3474 z" fill="#00B894" transform="translate(-362.66516,46.119175) translate(-1803.5612,1128.4929)"/>
</svg>