<?xml version="1.0" ?><svg height="107.33981mm" viewBox="0 0 115.33044 107.33981" width="115.33044mm" xmlns="http://www.w3.org/2000/svg">
    <path d="m 2046.8238,-1119.1786 c 4.9379,-19.4504 13.1043,-45.7034 57.9245,-51.2069 44.8201,-5.5036 49.1881,42.832 49.834,46.0452 0.6455,3.2133 -1.5193,15.827 -4.0643,20.2025 -2.5448,4.3755 -33.9191,30.1499 -36.4638,31.7223 -2.545,1.5725 -29.0193,5.4352 -44.7823,-4.2045 -15.7631,-9.6398 -21.3466,-27.0392 -22.4481,-42.5586 z" fill="#FFFFFF" paint-order="markers stroke fill" transform="translate(-202.83906,38.568205) translate(-1840.228,1136.0437)"/>
    <path d="m 2057.1767,-1083.3817 c -5.0804,-5.0376 -7.6912,-8.679 -10.4227,-14.5379 -3.2749,-7.0236 -3.6485,-8.6781 -3.685,-16.3114 -0.046,-9.5959 0.6768,-15.9901 7.2629,-26.4839 13.9245,-22.1861 35.9295,-36.0818 60.1919,-33.6144 11.5804,1.4453 19.2124,3.8692 25.1205,7.9779 13.2394,9.2072 22.7532,26.5688 22.7532,41.5222 0,6.8127 -2.1535,16.3751 -4.4911,19.9426 -2.3728,3.6211 -27.5009,26.7228 -33.7138,30.9946 -6.0126,4.1344 -8.2983,5.9964 -17.9977,6.5415 -16.6286,0.9346 -35.4184,-6.6095 -45.0182,-16.0312 z m 53.404,6.4831 c 2.2276,-8.8676 9.4184,-19.8953 18.6274,-25.7089 4.9188,-3.1051 15.0577,-6.6264 19.0787,-6.6264 2.9377,0 2.946,-0.028 3.6534,-7.5654 1.32,-14.0882 -3.3866,-27.1163 -13.5307,-37.4527 -9.3631,-9.5408 -21.9464,-13.7027 -38.3274,-12.6772 -10.8154,0.6773 -16.5411,2.641 -26.121,8.9578 -9.6685,6.3757 -16.4421,14.1081 -20.6806,24.677 -4.4182,11.0169 -4.8728,24.3452 -0.3904,33.5295 3.7057,7.5929 14.2134,18.0053 22.1394,21.9799 7.948,3.9859 15.1292,5.4325 25.8774,5.2123 5.1842,-0.6091 8.3827,0.8137 9.6738,-4.3259 z m -19.3166,-22.8125 c -7.5565,-1.0208 -17.8151,-9.4886 -17.8151,-14.7138 0,-2.6622 1.3573,-2.0168 5.8588,1.6878 10.6017,8.7248 26.1317,8.5527 35.2493,1.3988 4.2751,-3.3544 7.2041,-3.4757 7.6645,-0.2663 0.3986,2.7786 -7.8158,9.8958 -12.6844,11.2633 -8.1345,2.2848 -11.5897,1.5331 -18.2731,0.6302 z m -5.6507,-33.5795 c -2.603,-4.4131 2.0792,-9.2709 5.6246,-5.7255 1.7315,1.7316 1.659,4.7765 -0.5672,6.5348 -1.7599,1.3901 -3.9638,1.0448 -5.0574,-0.8093 z m 16.6332,-1.4343 c -1.4414,-3.1635 -0.1843,-5.8297 2.9675,-6.3005 2.9019,-0.4334 5.112,2.8887 3.5417,6.0383 -1.7177,3.4449 -5.0486,3.4681 -6.5092,0.2622 z m 32.6651,42.6132 c 4.3972,-4.1089 9.4759,-8.3487 11.2858,-9.422 1.8099,-1.0735 3.0755,-2.1669 2.8122,-2.4302 -0.7527,-0.7527 -13.6652,3.704 -18.1531,6.2657 -7.2126,4.1168 -16.3211,15.9126 -16.4106,21.2528 -0.028,1.7179 10.4249,-6.2845 20.4657,-15.6663 z" fill="#00B894" transform="translate(-202.83906,38.568205) translate(-1840.228,1136.0437)"/>
</svg>