<?xml version="1.0" ?><svg height="107.34018mm" viewBox="0 0 115.33035 107.34018" width="115.33035mm" xmlns="http://www.w3.org/2000/svg">
    <path d="m 2301.4633,-1119.1786 c 4.9379,-19.4504 13.1043,-45.7034 57.9245,-51.2069 44.8201,-5.5036 49.1881,42.832 49.834,46.0452 0.6455,3.2133 -1.5193,15.827 -4.0643,20.2025 -2.5448,4.3755 -33.9191,30.1499 -36.4638,31.7223 -2.545,1.5725 -29.0193,5.4352 -44.7823,-4.2045 -15.7631,-9.6398 -21.3466,-27.0392 -22.4481,-42.5586 z" fill="#FFFFFF" paint-order="markers stroke fill" transform="translate(-577.86446,54.928575) translate(-1719.7777,1119.6835)"/>
    <path d="m 2359.4563,-1174.612 c -22.0089,0.037 -41.7124,13.4444 -54.5491,33.8971 -6.5861,10.4938 -7.3091,16.8878 -7.2631,26.4837 0.037,7.6333 0.4101,9.2881 3.685,16.3117 2.7315,5.8589 5.3423,9.5 10.4227,14.5376 9.5998,9.4217 28.3898,16.9662 45.0184,16.0316 9.6994,-0.5451 11.9848,-2.4074 17.9974,-6.5418 6.2128,-4.2718 31.3409,-27.3734 33.7137,-30.9945 2.3376,-3.5675 4.4912,-13.1297 4.4912,-19.9424 0,-14.9534 -9.5138,-32.3153 -22.7532,-41.5225 -5.9081,-4.1087 -13.54,-6.5325 -25.1204,-7.9778 -1.8955,-0.1928 -3.7774,-0.2858 -5.6426,-0.2827 z m -0.2914,7.5313 c 14.2045,-0.046 25.3343,4.1823 33.8196,12.8287 10.1441,10.3364 14.851,23.3643 13.531,37.4525 -0.7074,7.5374 -0.7158,7.5654 -3.6535,7.5654 -4.021,0 -14.1602,3.5214 -19.079,6.6265 -9.209,5.8136 -16.3997,16.8414 -18.6273,25.709 -1.2911,5.1396 -4.4896,3.7167 -9.6738,4.3258 -10.7482,0.2202 -17.9295,-1.2262 -25.8775,-5.2121 -7.926,-3.9745 -18.4335,-14.3871 -22.1392,-21.98 -4.4824,-9.1843 -4.028,-22.5129 0.3902,-33.5297 4.2385,-10.5689 11.0124,-18.3009 20.6809,-24.6766 9.5799,-6.3168 15.3055,-8.2808 26.1209,-8.9581 1.5357,-0.096 3.0383,-0.1466 4.5077,-0.1514 z m 1.1596,26.017 c -0.1752,0 -0.354,0.011 -0.5354,0.038 -3.1518,0.4708 -4.4086,3.1369 -2.9672,6.3004 1.4606,3.2059 4.7914,3.1829 6.5091,-0.262 1.4722,-2.9528 -0.3783,-6.0573 -3.0065,-6.0767 z m -17.2522,0.8258 c -2.6905,0.077 -4.8363,3.6376 -2.884,6.9474 1.0936,1.8541 3.2976,2.1993 5.0575,0.8092 2.2262,-1.7583 2.2989,-4.8034 0.5675,-6.535 -0.8864,-0.8863 -1.8441,-1.2474 -2.741,-1.2216 z m 12.1548,23.2069 c -0.3987,6e-4 -0.8045,0 -1.219,0.011 -5.8708,0.098 -10.7488,1.9821 -14.3009,5.5341 -2.0678,2.0677 -3.7595,4.2623 -3.7595,4.8767 0,1.7573 1.6821,1.167 6.8177,-1.6315 6.5439,-3.5659 17.4211,-4.0491 23.2998,-0.4749 1.9877,1.2085 4.332,2.2237 5.2292,2.2237 2.3664,0 2.1509,-3.4831 -0.6176,-5.6731 -5.1749,-4.0936 -9.469,-4.8756 -15.4497,-4.8663 z m 48.0793,12.9852 c 0.137,0.01 0.2315,0.035 0.2785,0.082 0.2633,0.2633 -1.0023,1.3568 -2.8122,2.4303 -1.8099,1.0733 -6.889,5.3133 -11.2861,9.4222 -10.0408,9.3818 -20.4935,17.3841 -20.4655,15.6662 0.09,-5.3402 9.1978,-17.1362 16.4104,-21.253 4.2074,-2.4016 15.8196,-6.4686 17.8749,-6.3474 z" fill="#00B894" transform="translate(-577.86446,54.928575) translate(-1719.7777,1119.6835)"/>
</svg>