<?xml version="1.0" ?><svg height="200.86203mm" viewBox="0 0 225.46887 200.86203" width="225.46887mm" xmlns="http://www.w3.org/2000/svg">
    <path d="m 36223.136,14540.882 c -26.204,-0.177 -76.975,7.18 -105.76,43.351 -43.863,55.118 -47.38,156.171 40.704,167.009 79.441,3.666 96.317,-16.69 128.365,-60.198 32.048,-43.508 6.791,-113.048 -25.664,-137.246 -11.157,-8.318 -23.919,-12.824 -37.645,-12.916 z m 143.748,192.734 c -5.724,-0.103 -11.623,1.056 -17.293,3.867 -22.678,11.243 -29.195,17.845 -26.615,38.743 2.58,20.899 36.121,17.964 36.121,17.964 l 72.244,84.94 c 0,0 24.407,14.154 41.655,0.346 17.248,-13.807 -1.866,-38.6 -26.174,-57.299 -24.308,-18.698 -39.788,-47.051 -43.998,-63.916 -3.158,-12.649 -18.766,-24.335 -35.94,-24.645 z m -248.912,59.971 c -47.995,0.897 -69.309,43.302 -75.963,81.264 -7.605,43.386 -1.493,158.023 35.58,236.605 79.305,30.065 208.917,-16.58 202.399,-31.49 -6.518,-14.91 -31.369,-156.311 -43.32,-188.697 -11.95,-32.387 -30.555,-84.571 -96.145,-95.814 -8.199,-1.406 -15.694,-1.996 -22.551,-1.868 z" fill="#FFFFFF" paint-order="markers stroke fill" transform="translate(-35.566265,-14.382414) matrix(0.26458333,0,0,0.26458333,-9459.0818,-3787.8561)"/>
    <path d="m 36401.811,15120.407 c -2.601,-6.695 -2.573,-27.272 0.107,-71.093 2.066,-33.918 3.843,-80.172 3.948,-102.787 0.107,-22.612 1.496,-48.822 3.085,-58.245 1.59,-9.424 1.602,-18.492 0.03,-20.152 -3.412,-3.601 -10.951,12.988 -23.955,52.701 -27.798,84.889 -44.391,116.596 -60.938,116.435 -11.883,-0.134 -33.45,-16.061 -45.98,-33.997 -8.6,-12.312 -12.93,-16.307 -12.922,-11.929 0,5.4 12.286,55.227 19.054,77.315 2.58,8.421 -7.792,17.409 -15.398,13.335 -8.762,-4.689 -26.04,-59.688 -32.868,-104.626 -12.586,-82.843 -14.989,-94.486 -22.667,-109.858 -15.77,-31.578 -59.395,-62.817 -91.683,-65.654 -17.222,-1.513 -44.96,9.893 -47.715,19.619 -1.175,4.148 -0.581,4.312 3.082,0.855 11.415,-10.767 27.172,-0.206 20.122,13.485 -5.944,11.544 -20.68,26.649 -31.513,32.307 -9.122,4.763 -9.421,5.825 -9.394,33.1 0.03,27.323 16.648,146.127 23.831,170.344 5.162,17.406 4.417,30.741 -1.855,33.147 -7.89,3.027 -13.435,-4.624 -21.526,-29.699 -8.374,-25.942 -23.78,-115.958 -26.793,-156.547 l -2.085,-28.066 -20.904,10.551 c -31.322,15.808 -55.886,23.309 -76.346,23.309 -16.07,0 -19.926,-1.438 -30.963,-11.553 -11.628,-10.656 -12.72,-13.305 -14.041,-34.071 -1.891,-29.695 7.241,-57.231 33.598,-144.517 9.16,-30.336 25.997,-70.114 10.163,-82.759 -25.969,-23.462 -36.185,-50.761 -31.082,-83.054 4.707,-29.766 17.245,-32.488 17.496,-3.798 0.05,6.597 1.599,14.305 3.426,17.132 2.434,3.764 2.639,1.242 3.373,-9.353 3.621,-52.298 23.615,-58.398 18.292,-9.453 -1.987,18.267 4.366,36.691 7.231,41.972 4.877,8.988 5.105,8.227 5.422,-18.027 0.37,-30.604 5.889,-51.393 13.649,-51.393 4.121,0 5.518,7.129 7.049,35.975 1.059,19.964 4.105,39.656 6.512,44.422 3.989,7.899 5.922,7.056 10.083,0.09 10.894,-18.237 26.225,-35.471 30.32,-36.821 7.6,-2.505 4.72,15.622 -5.8,36.458 -7.125,14.116 -16.179,24.883 -30.89,36.733 -16.243,13.083 -21.583,19.774 -24.321,30.469 -1.932,7.538 -12.009,42.914 -22.392,78.612 -10.388,35.697 -20.574,76.861 -22.64,91.474 -3.326,23.53 -3.073,27.615 2.236,35.718 5.271,8.046 7.707,8.956 20.209,7.542 14.399,-1.626 63.241,-21.501 83.539,-33.992 7.331,-4.512 14.585,-14.173 21.461,-28.582 12.558,-26.31 25.021,-37.437 50.774,-45.328 29.358,-8.996 53.103,-7.411 78.08,5.213 43.727,22.1 71.05,56.797 80.142,101.768 7.906,39.116 55.149,115.245 68.71,110.723 4.008,-1.334 20.513,-40.488 40.991,-97.234 5.484,-15.191 12.331,-32.152 15.217,-37.687 7.579,-14.531 6.672,-17.643 -6.398,-21.955 -17.378,-5.735 -19.866,-20.657 -3.443,-20.657 9.859,0 10.155,-1.995 2.22,-15.058 -4.705,-7.747 -9.009,-10.195 -19.684,-11.196 -26.853,-2.513 -42.944,-31.978 -27.304,-56.087 16.622,-25.623 52.56,-28.777 70.906,-13.6 8.894,7.358 13.408,14.411 14.997,23.276 1.251,6.989 4.564,15.329 7.36,18.533 4.565,5.234 5.873,5.309 12.883,0.714 6.969,-4.567 8.39,-4.522 13.327,0.414 3.039,3.04 5.524,8.607 5.524,12.378 0,6.422 0.365,6.491 5.765,1.09 5.401,-5.402 6.061,-5.364 10.49,0.611 2.838,3.826 3.948,10.363 2.779,16.351 -1.897,9.695 -1.763,9.807 4.71,3.946 9.376,-8.485 15.114,-3.61 12.768,10.85 -1.454,8.968 -0.08,14.4 5.526,21.995 10.691,13.654 11.093,10.639 1.285,25.497 -9.688,14.855 -10.546,9.877 -3.254,24.675 2.811,5.705 16.007,16.319 27.11,24.938 25.38,19.698 29.096,29.334 26.434,68.528 -2.29,33.687 -0.05,40.106 19.964,57.405 13.989,12.09 17.573,24.574 7.056,24.574 -7.773,0 -33.411,-26.016 -38.203,-38.768 -1.994,-5.304 -5.203,-25.133 -3.626,-43.919 2.627,-31.301 -4.148,-38.326 -25.203,-58.909 -13.863,-13.553 -26.267,-27.988 -27.567,-32.082 -2.1,-6.615 -3.504,-7.048 -12.589,-3.88 -9.765,3.405 -15.218,2.986 -27.54,-2.118 -5.009,-2.074 -5.68,8.701 -7.127,114.192 -1.635,119.312 -2.575,127.155 -15.257,127.155 -2.641,0 -6.452,-4.239 -8.463,-9.422 z m 66.869,-255.432 c 5.462,-3.993 5.549,-4.924 0.817,-8.85 -4.36,-3.618 -6.791,-3.286 -13.907,1.893 -4.741,3.455 -8.67,7.438 -8.73,8.851 -0.178,4.238 15.265,2.899 21.82,-1.894 z m -45.737,-43.065 c -3.862,-2.585 -7.025,-7.572 -7.025,-11.082 0,-3.508 -4.339,-11.239 -9.645,-17.174 -8.78,-9.829 -10.389,-10.404 -17.986,-6.443 -4.588,2.394 -8.882,4.809 -9.537,5.367 -2.564,2.181 24.202,34.348 32.992,39.651 8.633,5.207 9.642,5.207 13.77,0 3.77,-4.752 3.375,-6.343 -2.569,-10.319 z m -65.269,-46.693 c 0,-2.827 -1.542,-5.139 -3.427,-5.139 -1.885,0 -3.426,2.312 -3.426,5.139 0,2.826 1.541,5.139 3.426,5.139 1.885,0 3.427,-2.313 3.427,-5.139 z m -13.707,-1.713 c 0,-1.885 -1.542,-3.426 -3.425,-3.426 -1.883,0 -3.426,1.541 -3.426,3.426 0,1.885 1.543,3.427 3.426,3.427 1.883,0 3.425,-1.542 3.425,-3.427 z m 0,-13.705 c 0,-1.883 -1.542,-3.426 -3.425,-3.426 -1.883,0 -3.426,1.543 -3.426,3.426 0,1.883 1.543,3.425 3.426,3.425 1.883,0 3.425,-1.542 3.425,-3.425 z m 13.707,0 c 0,-1.883 -1.542,-3.426 -3.427,-3.426 -1.885,0 -3.426,1.543 -3.426,3.426 0,1.883 1.541,3.425 3.426,3.425 1.885,0 3.427,-1.542 3.427,-3.425 z m 29.122,-3.426 c 1.163,-1.885 0.485,-3.427 -1.511,-3.427 -1.997,0 -3.628,1.542 -3.628,3.427 0,1.885 0.68,3.426 1.51,3.426 0.83,0 2.465,-1.541 3.629,-3.426 z m -25.697,-10.278 c 0,-1.886 -2.313,-3.427 -5.139,-3.427 -2.827,0 -5.139,1.541 -5.139,3.427 0,1.884 2.312,3.425 5.139,3.425 2.826,0 5.139,-1.541 5.139,-3.425 z m 12.848,-5.427 c -3.266,-3.264 -9.81,2.025 -7.377,5.962 1.446,2.34 3.361,2.282 5.822,-0.18 2.018,-2.017 2.717,-4.617 1.555,-5.782 z m 11.135,7.342 c 0,-0.83 -1.543,-2.465 -3.425,-3.629 -1.884,-1.164 -3.426,-0.486 -3.426,1.511 0,1.996 1.542,3.628 3.426,3.628 1.882,0 3.425,-0.68 3.425,-1.51 z m -238.12,14.089 c -19.917,-7.809 -31.983,-15.965 -43.478,-29.397 -27.234,-31.815 -33.379,-62.448 -19.455,-96.977 4.154,-10.306 8.463,-31.369 9.995,-48.875 2.39,-27.32 3.682,-31.552 11.54,-37.816 4.865,-3.881 8.849,-9.571 8.849,-12.644 0,-10.659 4.198,-16.425 11.958,-16.425 4.911,0 8.463,-2.531 9.587,-6.835 2.612,-9.991 11.826,-12.141 20.196,-4.716 4.512,4.001 7.729,4.983 8.562,2.614 0.735,-2.089 3.499,-6.715 6.143,-10.279 3.75,-5.056 6.172,-5.694 11.012,-2.898 6.729,3.885 21.367,3.867 35.99,-0.05 5.076,-1.357 11.219,-1.236 13.656,0.267 2.435,1.507 9.323,2.315 15.304,1.801 8.459,-0.729 11.381,0.64 13.131,6.156 1.93,6.081 4.119,6.791 15.372,4.992 11.34,-1.815 13.434,-1.11 15.433,5.187 1.272,4.004 3.567,6.508 5.103,5.556 4.472,-2.763 10.742,7.079 8.399,13.185 -1.533,3.993 -0.206,5.575 4.661,5.575 8.385,0 15.91,8.486 13.377,15.088 -1.033,2.696 0.337,5.751 3.043,6.789 7.781,2.987 5.741,18.728 -3.642,28.112 -7.025,7.023 -8.566,11.9 -8.566,27.088 0,10.185 -1.71,26.49 -3.798,36.233 -3.645,16.984 -3.431,18.057 5.139,26.003 4.915,4.558 8.938,9.816 8.938,11.684 0,5.424 -10.013,7.773 -17.978,4.217 -6.36,-2.836 -8.698,-1.236 -17.798,12.18 -20.585,30.348 -74.746,58.951 -110.731,58.472 -10.816,-0.153 -24.289,-2.074 -29.942,-4.29 z m 25.696,-22.171 c 0,-1.508 -1.736,-4.479 -3.86,-6.601 -5.46,-5.461 -5.391,-28.009 0.134,-41.325 5.044,-12.168 26.867,-27.154 41.419,-28.444 21.754,-1.927 28.595,0.44 41.987,14.515 10.584,11.128 14.174,13.173 16.55,9.424 3.962,-6.257 3.89,-9.056 -0.291,-11.641 -6.092,-3.765 -3.78,-17.619 11.644,-11.774 0,0 3.24,-8.015 3.46,-10.587 0.221,-2.572 -3.503,-3.846 -8.742,-5.839 -10.825,-4.116 -5.042,-15.758 12.477,-11.259 0,0 4.778,-11.05 -2.114,-35.875 -8.39,-30.222 -47.283,-50.397 -82.901,-43.001 -44.86,9.313 -72.696,30.776 -93.484,72.084 -13.61,27.038 -14.894,50.42 -3.804,69.231 11.587,19.651 26.227,33.082 42.305,38.813 15.076,5.375 25.226,6.29 25.226,2.279 z m 34.262,-113.332 c 0,-11.536 31.481,-14.334 33.629,-2.988 0.961,5.072 -1.545,5.994 -16.248,5.994 -9.559,0 -17.381,-1.352 -17.381,-3.006 z m 312.547,93.607 c -15.153,-10.612 -6.786,-30.532 11.904,-28.34 12.839,1.505 13.636,-5.761 4.413,-40.179 -8.397,-31.343 -8.739,-30.721 23.541,-42.802 23.947,-8.956 33.23,-7.932 32.504,3.591 -0.298,4.711 2.403,18.363 5.995,30.34 11.567,38.536 7.005,72.839 -10.012,75.277 -18.025,2.583 -24.758,-20.99 -9.289,-32.527 7.36,-5.488 8.168,-8.118 6.401,-20.841 -2.131,-15.323 -5.949,-17.31 -23.98,-12.474 -7.139,1.918 -7.244,2.555 -2.591,15.748 6.838,19.377 3.146,38.388 -9.526,49.05 -11.694,9.838 -18.739,10.596 -29.36,3.157 z m 45.689,-87.581 c 20.685,-5.209 19.899,-11.35 -1.055,-8.213 -18.736,2.803 -22.298,4.417 -19.554,8.858 2.459,3.977 2.226,3.985 20.609,-0.645 z m -78.47,-88.089 c -12.849,-14.196 0.333,-38.839 17.811,-33.294 6.189,1.965 6.453,1.104 3.588,-11.649 -5.67,-25.236 -13.966,-41.695 -22.687,-45.012 -4.602,-1.748 -7.785,-4.913 -7.08,-7.034 1.102,-3.303 57.729,-30.136 75.51,-35.779 9.485,-3.008 11.395,8.006 2.946,17 -6.923,7.368 -7.055,8.573 -2.303,21.239 2.77,7.385 9.697,22.68 15.394,33.986 10.781,21.393 13.463,41.932 6.399,48.993 -6.833,6.835 -29.358,5.143 -33.457,-2.515 -4.089,-7.644 0.309,-22.639 7.329,-24.977 3.479,-1.159 2.762,-6.717 -3.255,-25.201 -4.246,-13.041 -7.697,-27.179 -7.669,-31.419 0.05,-9.169 1.547,-8.97 -17.83,-2.37 l -15.676,5.342 8.015,14.359 c 16.477,29.523 18.605,64.124 4.792,77.937 -8.393,8.394 -24.408,8.592 -31.827,0.394 z m -116.922,-64.3 c 7.571,-1.978 8.467,-3.898 8.467,-19.214 0,-9.92 -2.442,-21.217 -5.818,-26.931 -3.195,-5.415 -5.125,-10.502 -4.28,-11.302 0.843,-0.802 13.054,-2.007 27.134,-2.675 23.097,-1.1 25.733,-0.57 26.926,5.407 1.557,7.797 -7.801,15.643 -18.656,15.643 -7.391,0 -7.583,0.846 -5.746,25.131 2.321,30.682 -2.936,49.043 -14.981,53.883 -31.535,12.673 -44.214,-31.8 -13.046,-39.942 z m 264.521,-45.942 c 6.459,-5.34 12.205,-6.803 18.933,-5.457 8.844,1.768 10.841,-0.08 26.544,-24.572 9.341,-14.568 17.011,-28.59 17.045,-31.164 0.05,-3.604 2.202,-3.271 9.409,1.452 5.142,3.37 14.008,7.072 19.703,8.229 7.084,1.439 10.681,4.404 11.406,9.392 1.473,10.161 -10.252,13.201 -24.162,6.26 -8.382,-4.181 -11.405,-4.494 -12.474,-1.287 -0.775,2.327 -8.261,17.918 -16.636,34.644 -10.707,21.395 -18.962,31.594 -26.045,37.014 -28.022,21.441 -47.995,-14.443 -23.723,-34.511 z" fill="#00B894" transform="translate(-35.566265,-14.382414) matrix(0.26458333,0,0,0.26458333,-9459.0818,-3787.8561)"/>
</svg>