<?xml version="1.0" ?><svg height="179.06837mm" viewBox="0 0 204.41263 179.06837" width="204.41263mm" xmlns="http://www.w3.org/2000/svg">
    <path d="m 40766.822,18021.52 c -21.829,-0.363 -41.985,4.148 -55.677,11.597 -39.832,21.668 -60.47,78.385 -51.815,137.399 46.379,107.743 97.084,105.147 160.106,87.572 63.022,-17.574 88.652,-92.064 57.363,-167.754 -20.534,-49.671 -68.304,-68.123 -109.977,-68.814 z m 21.756,298.753 c -10.965,0.122 -22.826,1.085 -35.603,3.02 -81.773,12.382 -87.764,85.675 -81.217,132.707 58.361,28.558 230.893,-8.487 228.23,-22.666 -2.662,-14.179 2.775,-27.562 -9.097,-61.313 -10.017,-28.477 -43.1,-52.403 -102.313,-51.748 z" fill="#FFFFFF" paint-order="markers stroke fill" transform="translate(23.670754,12.593238) matrix(0.26458333,0,0,0.26458333,-9836.1096,-4074.454) translate(-3313.5291,-2437.8203)"/>
    <path d="m 37577.835,15993.013 c -4.679,-2.319 -8.969,-11.554 -15.137,-32.594 -4.798,-16.379 -12.539,-34.602 -17.508,-41.223 -17.72,-23.613 -47.619,-30.189 -97.702,-21.486 -31.227,5.425 -34.023,6.53 -44.97,17.775 -21.567,22.163 -31.892,48.616 -33.379,85.54 -0.542,13.401 -8.756,19.572 -16.337,12.261 -8.642,-8.337 -11.192,-34.159 -5.469,-55.363 2.855,-10.589 3.891,-19.025 2.295,-18.747 -1.594,0.278 -10.406,5.713 -19.583,12.082 -23.993,16.652 -60.975,31.114 -84.461,33.035 -43.217,3.537 -69.453,-16.756 -76.872,-59.464 -4.232,-24.36 0.397,-50.08 19.402,-107.803 7.706,-23.409 13.023,-44.221 11.812,-46.25 -1.213,-2.028 -10.789,-4.935 -21.282,-6.46 -28.789,-4.187 -50.901,-11.83 -64.773,-22.39 -15.934,-12.131 -26.387,-23.121 -27.37,-28.771 -1.306,-7.513 8.528,-10.529 16.963,-5.199 7.914,4.999 7.951,4.948 3.535,-4.558 -7.31,-15.732 -9.381,-33.227 -4.045,-34.153 2.596,-0.45 6.911,1.944 9.593,5.323 14.352,18.086 30.3,34.926 32.691,34.512 1.497,-0.258 0.338,-9.328 -2.573,-20.156 -7.063,-26.303 -7.229,-48.849 -0.429,-59.271 8.011,-12.285 12.714,-8.359 13.503,11.267 0.376,9.303 3.147,24.035 6.166,32.746 l 5.485,15.838 0.181,-14.335 c 0.258,-21.491 5.556,-40.831 11.486,-41.862 4.215,-0.733 6.026,3.489 9.116,21.272 3.94,22.68 14.563,41.632 27.486,49.044 5.286,3.032 6.519,1.612 9.185,-10.568 8.268,-37.792 13.408,-53.078 17.635,-52.458 2.498,0.365 5.685,4.497 7.087,9.176 5.277,17.622 -1.717,54.167 -25.409,132.812 -27.758,92.151 -32.262,114.67 -27.926,139.635 3.829,22.035 14.316,32.435 34.578,34.288 27.634,2.52 56.779,-10.687 114.401,-51.832 22.998,-22.206 45.932,-26.868 75.925,-33.126 71.885,-14.999 102.745,-10.051 150.658,24.146 30.769,21.963 40.374,26.127 71.965,31.204 37.707,6.061 76.539,-8.459 83.739,-31.305 1.821,-5.776 3.528,-20.267 3.791,-32.201 0.54,-24.18 -13.125,-80.984 -33.464,-139.143 -12.649,-24.501 -9.683,-36.357 -1.516,-60.898 10.377,-31.172 18.536,-46.254 25.7,-47.497 6.003,-1.043 6.446,3.499 3.02,30.929 -1.596,12.77 -2.84,23.642 -2.767,24.162 0.613,4.277 22.41,-18.059 38.219,-39.182 10.689,-14.283 21.103,-26.261 23.144,-26.616 2.04,-0.355 5.873,2.126 8.519,5.51 5.349,6.846 3.908,14.048 -7.058,35.302 -8.286,16.053 -5.854,15.366 9.413,-2.659 18.006,-21.258 22.164,-23.891 29.531,-18.705 8.866,6.242 8.574,8.67 -3.037,25.164 l -10.342,14.692 9.472,-4.603 c 14.11,-6.859 35.625,-10.159 37.99,-5.826 4.757,8.697 -10.225,21.362 -47.905,40.485 -9.756,4.953 -8.255,4.953 11.358,0 19.079,-4.819 22.744,-4.873 23.529,-0.353 2.327,13.397 -53.867,30.963 -99.74,31.178 l -14.683,0.08 4.731,14.426 c 2.603,7.935 9.852,33.98 16.112,57.884 17.034,65.075 13.897,105.24 -10.208,130.726 -23.393,24.724 -69.249,33.724 -112.261,22.02 -13.938,-3.791 -28.365,-8.805 -32.064,-11.14 -6.29,-3.977 -6.406,-2.696 -1.819,19.998 4.154,20.562 4.028,25.153 -0.846,30.226 -7.012,7.3 -8.224,7.556 -16.468,3.476 z m -105.459,-150.893 c -57.006,-0.855 -84.831,-15.094 -111.097,-56.842 -26.923,-42.8 -31.613,-78.714 -16.743,-128.21 9.26,-30.827 26.574,-53.927 54.98,-73.356 17.902,-12.247 23.171,-14.207 44.535,-16.585 17.975,-2.001 29.076,-1.057 42.99,3.654 26.205,8.871 60.649,33.49 75.466,53.937 7.614,10.507 15.815,17.899 20.971,18.896 9.581,1.857 13.617,13.961 6.139,18.429 -3.435,2.053 -3.843,8.126 -1.473,21.986 7.208,42.085 -1.063,83.492 -21.796,109.223 -21.13,26.226 -65.496,49.297 -93.972,48.868 z m 40.077,-38.696 c 18.806,-10.673 39.294,-35.263 45.14,-54.174 3.983,-12.894 5.394,-48.898 2.565,-65.525 -0.978,-5.788 -3.971,-7.17 -15.174,-7.017 -16.937,0.233 -20.143,-7.825 -6.2,-15.577 5.257,-2.926 9.375,-6.313 9.145,-7.525 -0.234,-1.212 -6.27,-9.261 -13.425,-17.882 -24.842,-29.928 -61.034,-45.139 -102.719,-43.176 -31.775,1.501 -42.203,8.718 -58.831,40.721 -25.794,49.647 -22.639,102.537 8.757,146.873 10.259,14.487 21.189,25.764 28.246,29.145 25.978,12.442 75.201,9.626 102.496,-5.863 z m -72.454,3.217 c -47.477,-13.851 -60.821,-61.131 -24.36,-86.32 12.773,-8.826 20.479,-11.097 61.638,-18.168 21.631,-2.86 39.886,-13.973 57.225,0.29 8.615,7.089 10.381,10.929 11.45,24.911 2.82,36.907 -24.357,66.479 -70.795,77.021 -11.492,1.463 -24.644,5.111 -35.158,2.266 z m 10.988,-129.269 c -5.514,-7.055 -4.535,-17.151 1.773,-18.246 6.313,-1.097 14.213,6.726 14.082,13.946 -0.155,8.863 -10.168,11.577 -15.855,4.3 z m 26.73,-13.876 c -4.67,-10.509 -0.618,-17.08 9.678,-15.678 10.795,1.469 11.923,18.473 1.448,21.866 -5.57,1.804 -8.237,0.323 -11.126,-6.188 z m 160.112,-100.133 c -7.254,-5.103 -8.158,-18.023 -1.888,-26.933 6.356,-9.029 9.823,-10.217 19.983,-6.855 6.198,2.045 8.264,-0.309 15.591,-17.786 4.648,-11.078 9.044,-26.668 9.774,-34.646 1.702,-18.681 8.254,-22.539 21.306,-12.545 5.603,4.292 15.425,9.271 21.818,11.061 8.455,2.365 12.024,5.559 13.09,11.703 1.354,7.781 0.259,8.647 -13.828,10.914 -8.414,1.355 -17.768,1.831 -20.786,1.06 -3.866,-0.989 -7.99,4.158 -13.976,17.441 -16.557,36.725 -37.699,56.009 -51.084,46.586 z m -39.525,-75.711 c -10.02,-7.828 -10.366,-19.312 -0.96,-31.754 7.977,-10.547 8.209,-13.001 4.5,-47.373 l -3.909,-36.248 -13.339,5.966 -13.335,5.965 8.47,36.324 c 5.724,20.197 11.61,31.875 -0.134,48.549 -10.295,14.625 -22.943,17.985 -32.301,8.584 -3.627,-3.643 -6.911,-8.465 -7.304,-10.714 -1.157,-6.671 7.52,-16.505 15.836,-17.951 7.243,-1.258 7.567,-3.123 5.079,-29.224 -1.596,-16.723 -4.493,-30.219 -7.242,-33.739 -3.367,-4.302 -3.49,-6.493 -0.477,-8.218 43.065,-24.634 48.851,-27.364 53.781,-25.387 6.933,2.783 23.342,66.632 24.301,94.564 1.223,35.63 -14.529,55.06 -32.966,40.656 z m -155.017,12.953 c -10.64,-8.31 -10.459,-18.532 0.459,-25.721 8.38,-5.519 9.143,-7.565 5.932,-15.932 -2.027,-5.278 -9.482,-15.915 -16.571,-23.636 -7.087,-7.723 -13.037,-15.452 -13.225,-17.174 -0.514,-4.734 47.316,-39.032 51.882,-37.198 2.189,0.878 3.73,4.574 3.423,8.212 -0.306,3.639 5.538,14.81 12.983,24.826 20.962,28.198 27.49,43.081 24.579,56.049 -2.697,12.024 -8.845,17.157 -18.896,15.792 -7.304,-0.997 -11.95,-16.5 -7.036,-23.48 1.916,-2.726 0.914,-7.6 -3.087,-15.017 -7.972,-14.77 -10.435,-16.25 -16.54,-9.919 -4.286,4.445 -4.281,6.934 0.02,14.211 7.856,13.245 11.087,37.423 5.976,44.69 -5.949,8.447 -21.707,10.712 -29.916,4.297 z m 15.743,-84.42 c 3.744,-9.112 -0.208,-10.377 -11.948,-3.844 -8.34,4.638 -9.298,6.41 -5.296,9.822 6.057,5.164 13.762,2.49 17.244,-5.978 z" fill="#00B894" transform="translate(23.670754,12.593238) matrix(0.26458333,0,0,0.26458333,-9836.1096,-4074.454)"/>
</svg>