<?xml version="1.0" ?><svg height="179.36432mm" viewBox="0 0 205.91035 179.36432" width="205.91035mm" xmlns="http://www.w3.org/2000/svg">
    <path d="m 33271.8,15618.791 c -21.829,-0.363 -41.985,4.148 -55.677,11.597 -39.832,21.668 -60.47,78.385 -51.815,137.399 46.379,107.743 97.084,105.147 160.106,87.572 63.022,-17.574 88.652,-92.064 57.363,-167.754 -20.534,-49.671 -68.304,-68.123 -109.977,-68.814 z m 21.756,298.753 c -10.965,0.122 -22.826,1.085 -35.603,3.02 -81.773,12.382 -87.764,85.675 -81.217,132.707 58.361,28.558 230.893,-8.487 228.23,-22.666 -2.662,-14.179 2.775,-27.562 -9.097,-61.313 -10.017,-28.477 -43.1,-52.403 -102.313,-51.748 z" fill="#FFFFFF" paint-order="markers stroke fill" transform="translate(-5.8783713,-37.888295) matrix(0.26458333,0,0,0.26458333,-8700.6599,-4032.9611)"/>
    <path d="m 33401.662,16031.699 c -4.715,-2.334 -9.036,-11.635 -15.248,-32.833 -4.837,-16.501 -12.634,-34.854 -17.636,-41.524 -17.853,-23.788 -47.969,-30.413 -98.422,-21.647 -31.457,5.466 -34.274,6.574 -45.298,17.909 -21.728,22.324 -32.127,48.97 -33.626,86.163 -0.544,13.506 -8.823,19.719 -16.457,12.355 -8.704,-8.399 -11.276,-34.413 -5.511,-55.771 2.882,-10.664 3.923,-19.164 2.316,-18.885 -1.606,0.279 -10.483,5.757 -19.726,12.172 -24.171,16.771 -61.427,31.346 -85.085,33.28 -43.533,3.561 -69.958,-16.881 -77.433,-59.902 -4.264,-24.541 0.399,-50.451 19.543,-108.596 7.764,-23.582 13.117,-44.545 11.896,-46.587 -1.223,-2.043 -10.867,-4.975 -21.438,-6.509 -29.002,-4.219 -51.274,-11.916 -65.247,-22.554 -16.05,-12.219 -26.581,-23.289 -27.57,-28.982 -1.315,-7.569 8.592,-10.609 17.087,-5.241 7.969,5.038 8.009,4.989 3.559,-4.592 -7.36,-15.845 -9.449,-33.466 -4.071,-34.4 2.615,-0.455 6.962,1.958 9.66,5.362 14.457,18.218 30.527,35.182 32.934,34.763 1.504,-0.261 0.339,-9.397 -2.59,-20.301 -7.121,-26.496 -7.285,-49.207 -0.436,-59.708 8.07,-12.373 12.81,-8.42 13.603,11.351 0.376,9.369 3.172,24.214 6.21,32.984 l 5.527,15.954 0.169,-14.441 c 0.252,-21.646 5.599,-41.127 11.568,-42.164 4.25,-0.739 6.074,3.512 9.187,21.425 3.969,22.844 14.668,41.937 27.686,49.405 5.325,3.053 6.57,1.623 9.254,-10.645 8.326,-38.07 13.504,-53.468 17.765,-52.843 2.516,0.37 5.725,4.526 7.138,9.244 5.314,17.753 -1.73,54.565 -25.596,133.786 -27.964,92.826 -32.5,115.51 -28.13,140.661 3.857,22.199 14.421,32.675 34.831,34.538 27.835,2.54 57.195,-10.765 115.241,-52.214 23.167,-22.371 46.268,-27.066 76.482,-33.369 72.413,-15.106 103.498,-10.122 151.762,24.327 30.997,22.122 40.672,26.318 72.496,31.433 37.983,6.103 77.103,-8.521 84.355,-31.537 1.832,-5.819 3.552,-20.415 3.818,-32.439 0.543,-24.356 -13.215,-81.575 -33.708,-140.162 -12.743,-24.681 -9.757,-36.621 -1.528,-61.343 10.452,-31.401 18.672,-46.594 25.889,-47.848 6.048,-1.051 6.494,3.523 3.041,31.156 -1.607,12.866 -2.861,23.817 -2.787,24.337 0.643,4.306 22.573,-18.189 38.496,-39.468 10.771,-14.391 21.262,-26.453 23.317,-26.81 2.056,-0.357 5.916,2.141 8.582,5.548 5.388,6.898 3.938,14.155 -7.111,35.56 -8.345,16.174 -5.897,15.482 9.484,-2.677 18.137,-21.412 22.326,-24.065 29.748,-18.84 8.932,6.288 8.635,8.733 -3.06,25.349 l -10.418,14.798 9.542,-4.638 c 14.215,-6.909 35.883,-10.23 38.269,-5.872 4.791,8.764 -10.302,21.52 -48.259,40.783 -9.827,4.99 -8.316,4.99 11.443,0 19.217,-4.855 22.908,-4.907 23.699,-0.355 2.345,13.497 -54.262,31.19 -100.474,31.407 l -14.786,0.07 4.767,14.531 c 2.62,7.991 9.923,34.231 16.224,58.307 17.162,65.554 14.002,106.013 -10.281,131.685 -23.562,24.911 -69.76,33.973 -113.082,22.185 -14.041,-3.82 -28.574,-8.87 -32.299,-11.224 -6.34,-4.005 -6.455,-2.715 -1.834,20.145 4.186,20.712 4.052,25.34 -0.851,30.449 -7.065,7.356 -8.286,7.612 -16.589,3.5 z m -155.934,-157.545 c -11.525,16.139 -43.243,11.172 -47.033,-4.105 -0.414,-2.385 -2.554,-0.504 -4.751,4.187 -4.666,9.933 -20.606,14.149 -28.395,7.508 -5.027,-4.286 -6.626,-17.559 -3.637,-30.206 1.199,-5.071 -0.177,-6.142 -6.543,-5.078 -17.077,2.835 -28.317,-11.163 -24.005,-29.923 2.385,-10.365 1.994,-11.468 -4.206,-11.987 -10.07,-0.847 -11.982,-18.509 -3.567,-32.954 4.122,-7.073 5.305,-12.378 2.969,-13.312 -4.458,-1.791 -7.875,-17.931 -5.118,-24.167 1.023,-2.305 4.688,-6.375 8.149,-9.038 3.995,-3.073 7.587,-14.079 9.848,-30.159 5.985,-42.613 35.283,-80.402 62.578,-80.706 7.596,-0.08 12.697,-1.995 14.733,-5.562 9.459,-16.495 59.806,-34.472 81.789,-29.204 30.202,7.24 62.568,29.878 65.314,45.687 2.138,12.3 33.532,57.091 33.532,57.091 20.21,-4.879 25.919,13.796 8.947,23.35 0,0 6.542,16.508 15.61,18.837 8.528,2.19 9.947,6.311 10.163,15.362 0.14,6.097 0.598,17.077 3.118,21.352 6.041,10.26 4.182,23.389 -5.77,30.193 -5.877,4.015 -7.194,7.872 -5.676,16.612 2.612,15.032 -2.555,24.609 -14.794,27.412 -6.354,1.452 -12.364,6.346 -16.571,13.483 -15.139,26.4 -42.975,9.736 -42.975,9.736 -27.588,18.355 -76.587,17.676 -103.709,15.591 z m 90.069,-33.442 c 18.945,-10.752 39.582,-35.524 45.469,-54.574 4.015,-12.988 5.436,-49.257 2.587,-66.007 -1.013,-5.825 -2.727,-4.047 -14.01,-3.896 -17.064,0.23 -21.569,-11.053 -7.523,-18.865 5.298,-2.944 9.515,-6.048 9.367,-6.899 -0.603,-3.469 -15.794,-22.121 -25.373,-31.154 -8.868,-8.365 -12.285,-9.31 -25.408,-7.03 -12.077,2.099 -61.143,-2.627 -86.662,-8.344 -2.625,-0.59 -5.393,3.352 -6.525,9.288 -2.815,14.753 -17.465,35.167 -34.348,47.857 -13.455,10.112 -14.621,12.379 -15.469,30.015 -1.498,31.061 7.012,58.982 26.28,86.233 10.286,14.551 21.255,25.874 28.366,29.28 26.169,12.537 75.754,9.701 103.249,-5.904 z m -72.985,3.241 c -47.828,-13.957 -61.267,-61.58 -24.541,-86.957 12.87,-8.889 20.63,-11.178 62.091,-18.3 21.789,-2.87 40.187,-14.053 57.65,0.315 8.681,7.138 10.459,11.01 11.536,25.091 2.838,37.182 -24.54,66.967 -71.315,77.59 -16.726,3.794 -27.76,4.503 -35.42,2.271 z m 11.071,-130.221 c -5.558,-7.106 -4.571,-17.276 1.78,-18.38 6.361,-1.105 14.322,6.777 14.188,14.048 -0.162,8.929 -10.242,11.662 -15.968,4.332 z m 26.921,-13.974 c -4.703,-10.592 -0.618,-17.208 9.751,-15.796 10.874,1.482 12.01,18.609 1.461,22.026 -5.615,1.814 -8.298,0.324 -11.212,-6.23 z m 161.288,-100.87 c -7.306,-5.141 -8.214,-18.157 -1.897,-27.13 6.403,-9.095 9.892,-10.292 20.126,-6.909 6.245,2.065 8.323,-0.31 15.708,-17.914 4.678,-11.16 9.11,-26.868 9.842,-34.903 1.718,-18.817 8.317,-22.702 21.465,-12.635 5.646,4.324 15.537,9.338 21.977,11.142 8.517,2.385 12.114,5.6 13.19,11.79 1.361,7.837 0.259,8.707 -13.932,10.994 -8.476,1.368 -17.898,1.845 -20.937,1.068 -3.896,-0.995 -8.049,4.187 -14.082,17.566 -16.677,36.999 -37.977,56.423 -51.46,46.931 z m -39.815,-76.268 c -10.093,-7.886 -10.442,-19.454 -0.964,-31.987 8.032,-10.627 3.687,-42.226 1.131,-76.957 -0.01,-9.274 -4.019,-6.209 -13.972,-1.27 -11.384,5.649 -14.618,1.043 -11.903,12.452 5.764,20.345 18.688,62.26 6.865,79.059 -10.369,14.728 -23.11,18.114 -32.539,8.641 -3.65,-3.669 -6.96,-8.525 -7.353,-10.792 -1.168,-6.719 7.572,-16.626 15.95,-18.081 7.294,-1.268 7.62,-3.145 5.114,-29.436 -1.607,-16.851 -4.521,-30.444 -7.296,-33.989 -3.389,-4.335 -3.513,-6.539 -0.48,-8.279 43.378,-24.812 49.206,-27.565 54.174,-25.572 6.985,2.802 21.839,67.229 24.48,95.256 3.349,35.542 -13.895,54.806 -33.207,40.955 z m -156.156,13.048 c -10.717,-8.371 -10.532,-18.669 0.464,-25.912 8.444,-5.559 9.211,-7.617 5.976,-16.045 -2.041,-5.317 -9.551,-16.034 -16.69,-23.814 -7.14,-7.778 -13.136,-15.561 -13.325,-17.294 -0.52,-4.773 47.664,-39.32 52.264,-37.476 2.203,0.885 3.756,4.607 3.448,8.276 -0.312,3.665 5.577,14.917 13.077,25.007 21.118,28.402 27.691,43.394 24.762,56.459 -2.716,12.111 -8.912,17.288 -19.038,15.911 -7.358,-1.002 -12.039,-16.621 -7.088,-23.654 1.931,-2.747 0.922,-7.657 -3.105,-15.129 -8.03,-14.88 -10.511,-16.369 -16.661,-9.991 -4.32,4.477 -4.316,6.985 0.04,14.319 7.914,13.339 11.17,37.696 6.019,45.013 -5.992,8.511 -21.865,10.793 -30.136,4.328 z m 15.86,-85.041 c 3.774,-9.177 -0.195,-10.454 -12.034,-3.87 -8.404,4.674 -9.365,6.459 -5.336,9.895 6.099,5.198 13.865,2.509 17.37,-6.025 z" fill="#00B894" transform="translate(-5.8783713,-37.888295) matrix(0.26458333,0,0,0.26458333,-8700.6599,-4032.9611)"/>
</svg>