<?xml version="1.0" ?><svg height="164.64226mm" viewBox="0 0 285.29205 164.64226" width="285.29205mm" xmlns="http://www.w3.org/2000/svg">
    <path d="m 43885.404,2025.6473 c -53.062,-31.9186 -176.026,-100.828 -187.573,-121.1173 -11.547,-20.2893 -13.334,-33.9599 -9.21,-65.6928 4.124,-31.733 41.758,-91.3476 52.618,-96.4199 10.86,-5.0724 18.971,2.3505 32.924,10.2065 13.953,7.8559 57.255,31.8567 57.255,31.8567 0,0 2.955,-12.619 15.19,-8.0415 12.234,4.5774 9.554,25.2379 9.554,25.2379 l 29.624,18.1861 35.191,-38.5991 45.089,22.8873 101.176,-138.1282 52.719,36.6198 -93.547,146.6645 132.131,89.3365 69.214,-101.8177 40.141,25.0524 -70.933,101.0135 84.954,58.2699 30.037,-5.5053 c 0,0 2.955,13.7324 45.914,13.4231 42.958,-0.3093 88.253,-8.227 97.532,-14.9077 9.279,-6.6806 23,65.8523 4.461,120.4341 -59.292,174.5606 -291.708,168.7565 -458.626,120.2609 -264.04,-76.713 -469.01,52.4156 -550.215,-217.6905 0,0 63.647,-8.7219 77.531,-20.0418 13.884,-11.32 20.62,-15.4645 35.742,-8.7838 15.121,6.6806 83.648,25.4853 113.753,13.6705 30.106,-11.8148 27.631,-13.6087 47.495,-3.897 19.864,9.7116 93.065,17.6913 113.685,7.794 20.62,-9.8972 46.174,-0.2711 46.174,-0.2711 z" fill="#FFFFFF" paint-order="markers stroke fill" transform="translate(15.832503,22.838507) matrix(0.26458333,0,0,0.26458333,-11496.975,-462.56294)"/>
    <path d="m 44221.77,2237.741 c -47.943,-9.243 -83.429,-24.405 -108.677,-46.436 -15.469,-13.5 -12.611,-19.797 4.285,-9.434 18.052,11.073 41.141,21.924 74.684,35.102 29.396,11.549 31.18,11.842 59.206,9.726 23.9,-1.804 28.896,-1.38 28.896,2.454 0,2.55 -2.315,5.524 -5.142,6.609 -9.688,3.717 -38.651,4.794 -53.252,1.979 z m 73.17,-22.434 c -1.006,-1.626 13.873,-11.245 33.06,-21.376 38.242,-20.191 57.006,-33.012 54.424,-37.187 -0.919,-1.487 -14.272,-7.978 -29.673,-14.426 -39.668,-16.606 -127.738,-71.774 -127.738,-80.018 0,-1.898 10.764,2.491 23.919,9.752 13.156,7.262 25.2,13.188 26.764,13.168 4.238,-0.05 27.525,-38.947 25.39,-42.404 -1.013,-1.638 1.009,-2.977 4.491,-2.977 7.274,0 10.997,7.138 8.033,15.409 -1.116,3.123 -7.056,12.64 -13.197,21.15 -6.138,8.51 -10.379,17.516 -9.42,20.014 1.666,4.34 44.332,31.017 49.607,31.017 8.189,0 53.255,24.557 54.967,29.953 3.29,10.366 -10.384,21.126 -52.979,41.687 -41.447,20.007 -44.644,21.097 -47.648,16.238 z m -49.239,-27.861 c -17.213,-8.578 -43.396,-29.283 -43.396,-34.318 0,-11.129 42.183,10.574 63.056,32.444 8.533,8.939 8.853,9.982 3.07,9.982 -3.552,0 -13.781,-3.649 -22.73,-8.108 z m -212.655,-43.555 c -39.866,-20.222 -80.456,-46.521 -87.985,-57.005 -4.837,-6.737 -5.006,-8.118 -1.002,-8.118 2.655,0 5.631,1.299 6.611,2.886 0.98,1.587 20.408,13.025 43.175,25.417 49.544,26.97 78.699,45.364 78.699,49.654 0,5.768 -7.869,3.211 -39.498,-12.834 z m 235.217,7.617 c -2.494,-6.498 7.338,-16.963 11.772,-12.53 4.35,4.35 0.418,17.648 -5.217,17.648 -2.526,0 -5.474,-2.304 -6.555,-5.118 z m -105.755,-22.574 c -15.853,-10.772 -15.432,-13.066 0.868,-4.749 7.138,3.641 12.977,8.05 12.977,9.798 0,4.325 -0.1,4.285 -13.845,-5.049 z m -46.169,-25.802 c -5.353,-2.429 -19.222,-8.724 -30.819,-13.987 -20.28,-9.205 -48.661,-30.482 -48.661,-36.481 0,-4.771 9.489,0.07 49.393,25.213 41.673,26.254 52.724,35.53 30.087,25.255 z m 28.746,-19.498 c -2.951,-7.693 1.236,-14.598 8.857,-14.598 5.644,0 6.257,0.878 3.187,4.577 -2.596,3.129 -2.722,5.242 -0.397,6.68 5.654,3.495 3.825,8.207 -3.189,8.207 -3.624,0 -7.432,-2.19 -8.458,-4.866 z m -721.513,-41.96 c -18.527,-5.114 -33.674,-14.718 -29.613,-18.778 1.84,-1.839 10.297,-1.653 21.849,0.483 38.534,7.123 68.839,3.7359 108.531,-18.675 21.283,-12.0167 26.175,-11.6585 47.038,-2.475 21.17,9.318 25.238,9.979 61.595,10.006 22.907,0.02 46.734,-1.883 57.895,-4.619 15.697,-3.847 20.729,-3.927 29.196,-0.466 27.998,11.445 37.89,14.122 57.817,15.647 20.496,1.569 58.533,-3.32 67.121,-8.627 4.399,-2.718 -19.687,-18.552 -54.691,-35.954 -63.661,-31.648 -104.342,-62.726 -110.332,-84.289 -4.562,-16.413 -3.863,-43.937 1.714,-67.585 8.734,-37.054 34.8,-80.586 54.594,-91.179 7.653,-4.096 9.991,-3.714 25.044,4.096 9.131,4.738 17.742,8.614 19.133,8.614 4.82,0 39.044,-45.535 39.044,-51.95 0,-6.473 7.796,-8.956 11.136,-3.549 1.596,2.581 -23.275,51.183 -31.219,61.009 -2.248,2.782 1.301,6.655 12.47,13.606 13.82,8.603 16.211,9.175 20.839,4.988 4.578,-4.143 6.632,-4.144 16.535,0 14.28,5.967 20.143,12.965 17.936,21.408 -1.204,4.606 0.642,8.165 6.092,11.736 7.623,4.995 8.2,4.704 22.75,-11.478 19.292,-21.457 25.208,-22.772 46.359,-10.3 9.284,5.474 18.306,9.953 20.048,9.953 1.743,0 9.968,-10.584 18.282,-23.52 20.243,-31.5 47.16,-68.034 67.063,-91.022 18.715,-21.613 19.821,-21.705 49.806,-4.131 25.976,15.223 31.141,21.407 26.993,32.318 -3.933,10.341 -28.834,52.446 -59.005,99.759 -12.094,18.97 -22.413,36.069 -22.928,37.996 -0.517,1.928 25.294,20.978 57.354,42.333 l 58.296,38.827 29.294,-44.037 c 16.113,-24.22 32.215,-45.914 35.785,-48.208 5.681,-3.654 9.207,-2.542 28.384,8.958 15.437,9.258 21.897,15.059 21.897,19.664 0,5.671 -19.836,35.441 -54.863,82.334 l -10.006,13.399 23.7,17.838 c 28.603,21.528 34.682,27.392 34.682,33.454 0,9.693 -13.517,3.753 -50.736,-22.293 -21.16,-14.81 -47.965,-32.615 -59.563,-39.567 -22.749,-13.635 -122.216,-81.905 -180.046,-123.572 -49.841,-35.913 -54.561,-38.779 -56.125,-34.084 -0.72,2.161 -6.176,10.302 -12.119,18.091 -14.344,15.5821 -8.794,15.5496 7.022,26.442 14.741,10.155 18.349,11.462 20.824,7.548 1.647,-2.602 3.015,-6.557 3.044,-8.787 0.02,-2.23 2.618,-4.055 5.761,-4.055 6.535,0 49.437,27.889 49.437,32.138 0,1.543 -2.117,6.882 -4.701,11.864 -2.586,4.983 -3.993,10.204 -3.128,11.602 0.864,1.399 23.783,17.413 50.928,35.589 77.136,51.645 110.244,77.708 105.164,82.786 -2.705,2.707 -19.98,-7.696 -60.673,-36.539 -18.735,-13.279 -51.961,-36.132 -73.836,-50.784 -21.872,-14.653 -87.407,-58.583 -145.63,-97.623 -58.223,-39.04 -108.4,-71.646 -111.505,-72.458 -10.478,-2.741 -31.035,25.081 -44.02,59.579 -4.294,11.413 -7.81,22.063 -7.81,23.668 0,1.605 5.475,4.692 12.165,6.86 22.905,7.421 47.909,21.858 115.977,66.959 37.468,24.828 83.453,54.414 102.187,65.748 35.535,21.497 47.999,31.045 44.761,34.283 -5.411,5.412 -73.08,-34.58 -184.255,-108.896 -66.855,-44.689 -83.999,-55.043 -91.13,-55.043 -3.414,0 -6.607,41.7872 0.953,60.853 2.107,5.3148 14.466,15.594 57.735,41.224 20.52,12.153 49.717,29.707 64.882,39.007 15.165,9.3 42.171,24.54 60.015,33.866 30.242,15.806 33.541,16.814 48.662,14.874 8.92,-1.144 29.85,-6.594 46.511,-12.11 29.899,-9.901 30.505,-9.963 47.037,-4.87 45.815,14.114 78.987,14.922 117.004,2.853 18.729,-5.948 19.727,-5.947 45.414,0.02 42.161,9.797 56.984,10.574 85.077,4.46 14.046,-3.057 27.307,-7.826 29.469,-10.598 3.528,-4.523 5.526,-4.369 19.465,1.498 31.948,13.449 79.685,11.828 124.167,-4.218 26.345,-9.503 25.993,-9.481 25.993,-1.651 0,8.238 -12.671,17.3443 -35.143,26.726 -29.09,12.1444 -81.143,20.4109 -114.723,0.484 -14.872,-8.8256 -10.567,-7.7764 -25.832,-0.402 -33.43,16.152 -73.259,15.498 -116.781,-1.917 -15.615,-7.8194 -19.899,-9.7975 -33.419,-0.625 -15.749,10.689 -43.69,16.154 -70.058,13.703 -21.13,-1.964 -55.42,-11.913 -63.139,-18.318 -2.841,-2.358 -8.834,-0.905 -20.551,4.981 -25.676,12.896 -45.333,17.703 -72.544,17.741 -25.245,0.04 -51.506,-6.337 -61.116,-14.83 -4.308,-3.808 -7.616,-3.438 -22.708,2.546 -34.231,13.57 -93.767,8.276 -117.58,-10.455 -7.7,-6.056 -8.104,-6.048 -25.324,0.546 -25.259,9.671 -76.285,11.941 -101.968,4.538 -10.639,-3.067 -22.317,-8.334 -25.955,-11.705 -6.516,-6.041 -7.019,-5.925 -34.878,8.057 -39.875,20.012 -74.517,25.451 -106.273,16.685 z m 793.534,-117.123 c 17.817,-23.263 18.425,-24.668 12.508,-28.822 -3.42,-2.401 -9.841,-7.302 -14.267,-10.891 -10.626,-9.0059 -7.409,-7.5666 -14.405,3.8789 -9.357,14.534 -27.704,43.4061 -27.751,44.5801 -0.07,2.115 19.076,14.923 23.095,15.44 1.148,0.148 10.518,-10.736 20.82,-24.186 z m 35.676,-50.532 c 2.873,-5.558 4.008,-11.113 2.516,-12.344 -1.489,-1.232 -8.187,-6.251 -14.883,-11.153 -14.902,-10.6138 -10.023,-12.5577 -18.89,2.472 -3.696,6.262 -6.723,12.376 -6.728,13.587 0,2.776 23.454,16.826 28.788,17.237 2.185,0.168 6.324,-4.241 9.197,-9.799 z m -278.397,-8.473 c 0.654,-1.966 -5.314,-8.05 -13.262,-13.519 -12.383,-8.52 -14.743,-9.192 -16.473,-4.689 -1.202,3.137 0.302,6.926 3.736,9.402 3.162,2.282 8.668,6.407 12.238,9.168 7.014,5.428 11.873,5.3 13.761,-0.362 z m 79.254,-72.325 c 13.965,-22.136 25.391,-41.217 25.391,-42.401 0,-1.185 -9.607,-10.7509 -20.71,-20.338 -6.897,-5.9548 -19.843,-17.9875 -24.7,-10.8229 l -25.907,38.2169 c -16.443,25.069 -29.055,46.42 -28.028,47.447 6.145,6.144 43.081,29.604 45.568,28.941 1.647,-0.438 14.42,-18.907 28.386,-41.043 z m -206.322,-8.111 c -3.439,-2.601 -7.044,-3.935 -8.015,-2.964 -2.036,2.036 6.202,7.827 11.021,7.747 1.786,-0.03 0.433,-2.181 -3.006,-4.783 z m 253.939,-65.459 c 12.939,-18.7255 11.383,-12.7015 -5.099,-23.5611 -12.324,-8.119 -30.122,-19.5859 -31.233,-19.5859 -4.329,0 -19.256,26.32 -16.419,28.949 4.372,4.051 41.518,29.324 41.912,28.516 0.195,-0.382 5.462,-6.5362 10.839,-14.318 z m -100.758,270.716 c -13.346,-10.494 -7.67,-28.385 9.008,-28.385 9.528,0 18.555,17.492 13.81,26.763 -3.382,6.609 -15.387,7.463 -22.818,1.622 z m 18.519,-13.787 c 0,-1.785 -3.285,-3.711 -7.299,-4.281 -5.025,-0.713 -7.3,0.622 -7.3,4.281 0,3.658 2.275,4.994 7.3,4.281 4.014,-0.571 7.299,-2.497 7.299,-4.281 z m 102.074,-29.334 c -3.057,-3.681 -3.198,-5.961 -0.536,-8.622 4.3,-4.298 13.625,1.969 13.625,9.156 0,6.001 -7.934,5.677 -13.089,-0.534 z m -243.191,-33.925 c -8.871,-8.872 -8.454,-21.953 0.834,-26.185 17.324,-7.893 42.673,14.47 31.572,27.849 -5.832,7.027 -24.683,6.059 -32.406,-1.664 z m 22.107,-12.166 c -0.65,-3.424 -4.606,-6.084 -9.971,-6.703 -9.47,-1.093 -11.365,2.123 -5,8.488 6.082,6.083 16.233,4.873 14.971,-1.785 z m 158.123,5.882 c -6.057,-6.695 -4.459,-13.181 3.251,-13.181 6.267,0 18.384,12.408 15.956,16.339 -3.197,5.17 -13.15,3.533 -19.207,-3.158 z m -295.542,-66.56 c -8.645,-8.644 -9.82,-14.948 -4.606,-24.691 7.18,-13.413 38.759,-2.205 38.796,13.768 0.05,18.653 -20.044,25.07 -34.19,10.923 z m 21.233,-12.727 c 0,-6.642 -7.623,-11.816 -12.747,-8.649 -2.43,1.502 -3.523,5.068 -2.425,7.924 2.432,6.343 15.172,6.952 15.172,0.725 z" fill="#00B894" transform="translate(15.832503,22.838507) matrix(0.26458333,0,0,0.26458333,-11496.975,-462.56294)"/>
</svg>