<?xml version="1.0" ?><svg height="190.47606mm" viewBox="0 0 163.33173 190.47606" width="163.33173mm" xmlns="http://www.w3.org/2000/svg">
    <path d="m 45020.523,1703.5071 c 29.999,-14.5194 96.188,-26.1348 96.188,-26.1348 0,0 3.489,-24.9575 17.18,-36.2591 13.692,-11.3015 43.691,-9.6533 53.283,-4.238 9.593,5.4153 17.703,10.6736 17.703,10.6736 0,0 8.459,-38.535 25.203,-44.0288 16.744,-5.4938 35.929,-4.3166 38.109,7.2989 2.18,11.6154 0.436,56.9785 0.436,56.9785 l 21.715,-0.6279 c 0,0 13.168,-34.6109 37.498,-39.9477 24.331,-5.3368 38.895,8.6331 43.342,17.6586 4.448,9.0255 2.267,27.7044 2.267,27.7044 0,0 94.271,12.7927 115.287,22.3676 21.017,9.5749 47.266,23.5449 40.9,79.817 -6.366,56.2722 -30.086,165.991 -75.695,193.46 -45.609,27.469 -158.697,48.5626 -158.697,48.5626 0,0 10.422,182.7326 8.504,208.7103 -1.919,25.9778 -47.528,72.9105 -79.271,72.0472 -31.743,-0.8633 -47.528,-2.6684 -49.097,-51.7986 -1.57,-49.1302 2.267,-228.6988 2.267,-228.6988 0,0 -109.598,-9.7735 -172.212,-46.5035 -62.614,-36.7299 -78.05,-82.8778 -68.544,-127.2206 9.505,-44.3427 31.757,-92.1714 83.634,-139.8209 z" fill="#FFFFFF" paint-order="markers stroke fill" transform="translate(-123.21848,74.997415) matrix(0.26458333,0,0,0.26458333,-11762.811,-496.36564)"/>
    <path d="m 45181.273,2290.7629 c -12.565,-17.2 -10.832,-37.7338 -8.643,-97.3461 -0.02,-46.4885 -0.396,-104.5887 -0.81,-129.111 -2.222,-25.6622 10.586,-43.7447 -17.914,-44.142 -29.801,-0.4154 -89.1,-13.4469 -114.919,-20.963 -45.65,-13.2894 -79.442,-45.4451 -98.89,-76.2689 -21.352,-33.8406 -19.88,-59.654 -7.616,-96.4497 21.262,-63.7977 58.695,-117.6713 93.994,-135.2856 27.567,-13.7541 76.466,-20.4217 76.466,-10.4247 0,1.669 -5.474,4.0758 -12.166,5.3491 -25.18,4.7893 -55.171,16.0791 -67.717,25.4921 -23.104,17.3354 -44.064,49.6393 -62.497,96.3248 -24.764,62.7204 -19.983,89.2676 19.493,108.2491 29.851,14.3538 80.899,19.4725 242.919,24.3598 154.824,4.6697 244.088,-21.6984 275.129,-81.2735 15.611,-29.9583 25.956,-90.3633 20.457,-119.4348 -5.839,-30.8528 -39.068,-43.6985 -93.911,-49.6849 -29.756,-3.2483 -39.243,-8.2086 -32.226,-16.8473 4.903,-6.032 32.204,-7.6122 58.14,-3.365 38.647,6.328 78.442,27.1136 86.364,53.5774 10.871,51.1796 -2.877,102.5159 -13.914,147.6998 -6.44,26.3672 -22.234,63.1795 -42.006,84.4237 -30.215,32.4566 -60.088,49.9844 -137.254,58.9632 -37.921,4.4132 -42.839,5.6556 -41.311,10.435 0.956,2.9842 3.034,33.6114 4.618,82.7264 2.419,74.9953 3.756,90.6147 8.35,97.5067 4.686,7.0316 4.901,9.9801 1.489,20.5984 -11.366,35.4034 -32.431,66.0758 -56.013,76.6939 -31.019,13.9666 -60.621,15.8044 -79.612,-11.8029 z m 104.092,-52.4272 c 13.161,-22.5062 6.627,-69.719 5.479,-103.3109 -1.645,-48.1314 -1.716,-84.1155 -0.901,-94.6797 1.277,-16.5657 -2.722,-17.48 -9.978,-16.4414 -37.78,5.4074 -51.523,4.3874 -88.128,2.5708 -7.972,-0.3956 -5.216,1.874 -5.449,9.6149 -1.065,35.3622 4.224,109.3656 1.462,161.6202 -3.316,62.7989 -3.059,72.9959 14.07,83.4365 33.391,20.3534 66.616,-14.0308 83.445,-42.8104 z m 2.479,-235.5292 c 107.942,-8.5459 162.264,-26.179 185.283,-69.7273 15.617,-25.302 5.564,-16.3338 -13.948,-5.3037 -13.138,7.4273 -36.989,17.1611 -53.007,21.63 -26.974,7.5287 -36.032,8.3053 -123.194,10.55 -66.893,1.7327 -110.013,1.1796 -149.227,-1.8806 -70.083,-5.4707 -131.847,-14.0459 -151.64,-21.0532 -22.535,-9.8755 -11.348,-1.0691 -1.641,8.0145 45.801,43.0666 136.072,71.3334 307.374,57.7703 z m -52.094,-105.7896 c -45.055,-1.891 -187.694,-13.3646 -204.79,-16.4765 -28.898,-5.2601 -32.195,-21.4934 -30.884,-42.2484 2.449,-38.7395 40.82,-89.486 68.793,-97.8325 13.618,-4.0618 101.203,-7.6124 110.016,-4.4587 13.024,4.6606 -2.163,7.832 -42.893,8.959 -67.454,1.8632 -76.74,5.6168 -99.859,40.3506 -13.599,20.4292 -25.814,58.2226 -22.001,68.0629 3.273,8.4422 17.572,13.3578 43.385,14.9112 45.605,2.7457 92.434,6.1987 102.998,7.5961 8.711,1.1514 10.542,0.3459 10.542,-4.6341 0,-6.351 13.105,-20.5784 24.722,-26.8403 13.811,-7.4437 33.358,-14.4931 47.131,-11.3538 17.582,4.0076 43.289,27.2347 40.79,36.8554 -1.686,6.4907 -0.477,6.6544 40.944,5.5585 72.96,-1.9298 97.616,-9.4535 121.333,-37.0128 15.088,-17.5308 21.088,-31.9402 19.677,-56.3747 -1.889,-32.7421 -9.344,-36.3366 -148.185,-40.0652 -52.289,-1.4042 -41.498,-10.0224 1.547,-11.4722 59.168,-1.993 111.91,-3.5551 136.066,7.6373 27.712,12.8411 34.469,40.1881 20.37,82.4373 -9.631,28.8485 -38.154,54.6643 -64.334,63.2424 -34.974,11.4609 -99.849,16.3283 -175.368,13.1585 z m 27.815,-32.8705 c -15.112,-15.0816 -29.696,-16.1448 -48.509,-12.8365 -19.873,3.4947 -48.26,26.9802 -32.795,26.5796 2.455,-0.064 5.769,-0.3876 11.645,0.6352 9.012,1.5696 10.365,1.0425 8.652,-3.3741 -4.926,-12.7154 16.553,-25.7398 37.359,-19.6957 11.392,3.3099 14.049,5.6151 14.89,12.9233 0.876,7.5953 2.677,7.1757 11.203,8.6308 l 10.174,-0.2635 z m -26.003,-85.2845 c -25.75,-0.7823 -29.479,-2.0714 -24.298,-8.4456 2.771,-3.4098 10.303,-5.0939 24.43,-5.4598 23.002,-0.5958 31.898,1.3268 30.686,7.3152 -2.477,12.2435 -23.06,6.826 -30.818,6.5902 z m -26.764,-50.7897 c -7.364,-3.0303 -10.558,-6.5356 -10.593,-11.6267 -0.1,-14.2824 -4.594,-15.939 -14.503,-5.3403 -12.616,13.4968 -26.521,16.059 -43.23,7.9678 -18.485,-8.9512 -30.445,-25.4404 -32.279,-44.5039 -1.346,-13.9472 -0.425,-16.767 9.079,-27.8382 5.818,-6.7757 14.667,-14.5409 19.667,-17.2554 13.803,-7.4956 34.906,-6.7152 50.639,1.8723 13.116,7.1603 13.73,7.2074 15.62,1.2034 11.335,-32.5353 24.835,-40.4676 41.155,-39.9555 14.114,0.4428 21.834,3.6333 25.277,10.3771 4.879,9.5566 4.662,62.7399 0.08,74.9236 -6.574,17.4573 -9.812,8.5942 -9.812,-26.8438 -1.372,-17.8414 8.176,-46.341 -16.656,-46.1011 -16.224,0.1567 -28.496,29.0216 -33.239,65.6185 -1.854,14.321 -1.299,17.3806 3.611,19.8804 7.109,3.6209 23.484,0.4687 23.822,-4.586 0.146,-2.0258 0.05,-13.2233 -0.195,-24.883 -0.36,-17.1846 0.874,-22.9066 6.502,-30.2074 8.761,-11.3669 13.379,-8.9805 9.333,4.8243 -1.709,5.8192 -2.157,23.1448 -0.997,38.5018 3.833,50.8547 -9.731,67.772 -43.276,53.9719 z m 24.005,-10.9408 c 4.37,-2.9042 7.122,-13.3985 3.57,-13.6175 -17.345,-1.0667 -25.141,0.9132 -25.141,6.3862 0,3.271 0.973,6.8958 2.163,8.054 2.868,2.7947 14.722,2.2917 19.408,-0.8227 z m -69.071,-24.1139 c 4.583,-27.8477 2.16,-38.273 -11.246,-48.3857 -4.314,-3.2533 -6.749,-2.6942 -14.028,3.2223 -12.668,10.2902 -17.712,21.7114 -10.125,33.9993 8.133,13.1732 30.613,38.7443 35.399,11.1641 z m -27.263,-13.3588 c -4.459,-8.2185 -1.727,-11.7623 4.936,-6.4029 2.724,2.1894 4.945,2.5179 4.945,0.7309 0,-1.784 -2.207,-5.0188 -4.905,-7.1879 -3.694,-2.9684 -4.009,-5.0502 -1.282,-8.4068 5.022,-6.1801 15.248,-0.589 17.866,9.7672 3.89,15.3992 -14.205,25.0509 -21.56,11.4995 z m 59.072,-15.3951 c 0.937,-11.8683 0.22,-12.9427 -13.364,-19.8529 -7.893,-4.0185 -14.864,-6.781 -15.49,-6.1398 -0.624,0.6412 2.025,6.4436 5.891,12.8944 6.987,11.6621 7.387,25.4507 1.229,42.4022 -1.667,4.5872 1.084,3.0579 9.182,-5.1038 8.593,-8.6626 11.815,-14.8741 12.552,-24.2001 z m 102.996,46.2511 c -21.218,-13.7484 -24.462,-33.0224 -10.213,-60.6674 10.471,-20.3153 29.52,-33.0017 50.363,-33.5416 10.555,-0.2734 14.854,1.6923 23.695,10.8383 18.178,18.8021 22.345,44.7602 10.147,63.1802 -16.438,24.8157 -51.914,34.4966 -73.992,20.1905 z m 36.153,-9.7574 c 17.81,-5.4093 30.496,-20.8759 29.875,-36.4269 -0.691,-17.2871 -4.924,-23.9684 -19.27,-30.4048 -11.715,-5.2556 -12.547,-5.22 -23.532,0.9975 -15.278,8.6477 -26.187,25.8043 -26.187,41.1803 0,6.768 1.46,13.1692 3.246,14.2259 1.784,1.0568 3.243,-1.143 3.243,-4.888 0,-22.058 35.491,-59.8333 43.795,-46.6134 1.102,1.7555 -0.774,3.2641 -4.172,3.3521 -7.524,0.1949 -13.972,7.3659 -23.025,25.6084 -7.708,15.5347 -8.764,27.17 -2.974,32.81 4.679,4.5578 4.522,4.5559 19.001,0.1589 z m -5.139,-19.4769 c -3.104,-4.9436 7.798,-20.08 13.732,-19.0647 8.394,1.4366 12.617,10.6672 7.669,16.7594 -4.813,5.9216 -18.221,7.3669 -21.401,2.3053 z" fill="#00B894" transform="translate(-123.21848,74.997415) matrix(0.26458333,0,0,0.26458333,-11762.811,-496.36564)"/>
</svg>