<?xml version="1.0" ?><svg height="259.10049mm" viewBox="0 0 130.76083 259.10049" width="130.76083mm" xmlns="http://www.w3.org/2000/svg">
    <path d="m 36224.828,14805.307 c -34.112,0.981 -74.455,30.837 -84.527,80.67 -11.511,56.951 23.083,76.857 69.549,95.949 33.569,9.383 60.689,-2.169 87.388,-64.869 26.698,-62.7 -22.179,-101.861 -58.279,-110.377 -4.513,-1.065 -9.258,-1.514 -14.131,-1.373 z m -54.336,201.447 c 0,0 -37.55,11.005 -53.943,52.715 -16.393,41.709 -29.039,146.78 -21.324,216.369 7.714,69.588 54.42,140.422 54.42,140.422 0,0 -75.153,4.557 -77.504,37.318 -2.35,32.76 2.773,29.668 127.588,41.438 124.814,11.77 137.047,-33.303 135.781,-51.852 -1.265,-18.55 -48.996,-35.418 -48.996,-35.418 0,0 -0.904,-12.366 -0.723,-26.252 0.18,-13.885 -22.365,-92.428 -22.365,-92.428 0,0 7.11,-168.085 -12.959,-215.869 -20.069,-47.785 -64.064,-62.7 -79.975,-66.443 z" fill="#FFFFFF" paint-order="markers stroke fill" transform="translate(79.978976,14.736866) matrix(0.26458333,0,0,0.26458333,-8741.2561,-3278.7562) translate(-3313.5291,-2437.8203)"/>
    <path d="m 33010.206,13311.308 c -8.572,-6.54 -29.649,-67.565 -53.914,-156.108 -11.56,-42.193 -21.705,-78.819 -22.544,-81.389 -1.651,-5.06 -19.66,-6.286 -26.621,-1.815 -3.051,1.961 -3.302,8.643 -0.871,23.329 4.645,28.051 6.82,198.601 2.634,206.747 -4.479,8.727 -16.846,8.333 -21.678,-0.69 -2.37,-4.434 -3.873,-43.371 -3.873,-100.513 0,-51.3 -1.067,-101.083 -2.379,-110.634 l -2.38,-17.362 h -18.129 c -15.777,0 -18.364,1.095 -19.924,8.421 -0.988,4.631 -5.324,27.783 -9.634,51.454 -4.309,23.667 -13.463,62.396 -20.342,86.064 -6.876,23.67 -14.783,53.138 -17.569,65.488 -4.765,21.129 -5.751,22.518 -16.746,23.588 -7.875,0.766 -12.41,-0.752 -13.909,-4.662 -3.099,-8.071 3.514,-41.245 16.711,-83.867 6.151,-19.853 17.017,-58.828 24.151,-86.611 7.135,-27.785 13.889,-53.465 15.007,-57.067 1.606,-5.164 -0.197,-6.554 -8.507,-6.567 -18.535,-0.02 -39.576,-7.859 -50.475,-18.758 -8.475,-8.471 -10.586,-13.933 -10.586,-27.379 0,-14.104 1.815,-18.32 11.336,-26.331 12.331,-10.379 33.386,-15.995 43.831,-11.695 5.373,2.209 4.308,3.503 -5.803,7.054 -16.365,5.742 -11.433,9.758 12.067,9.827 24.131,0.08 31.933,4.248 24.558,13.136 -4.189,5.045 -8.914,5.793 -24.084,3.805 -10.38,-1.362 -22.871,-5.081 -27.761,-8.26 -7.395,-4.81 -9.444,-4.931 -12.183,-0.712 -5.989,9.225 -1.561,19.555 11.717,27.334 12.085,7.082 19.02,7.659 89.808,7.481 101.064,-0.253 133.587,-7.099 142.271,-29.938 3.828,-10.063 12.918,-12.22 16.14,-3.825 2.741,7.142 -3.865,30.237 -10.137,35.444 -7.076,5.871 -46.669,19.095 -57.181,19.095 -11.228,0 -11.043,2.888 2.117,33.049 5.984,13.724 17.097,45.157 24.694,69.854 7.598,24.696 20.249,65.046 28.116,89.665 10.403,32.564 13.325,46.585 10.72,51.454 -4.141,7.741 -10.182,8.356 -18.648,1.894 z m 107.386,-6.493 c -7.101,-1.673 -15.103,-6.031 -17.775,-9.688 -11.797,-16.133 -3.022,-25.743 23.844,-106.121 33.101,-99.03 54.221,-153.332 47.503,-170.841 -3.59,-9.36 -36.399,-18.103 -149.654,-27.92 l -50.8,-4.404 -16.28,10.774 c -13.703,9.068 -20.879,10.984 -45.302,12.094 -26.879,1.224 -31.03,0.35 -56.402,-11.856 -31.929,-15.358 -39.437,-22.652 -54.616,-53.079 -21.232,-42.551 -27.269,-69.654 -29.582,-132.839 -2.289,-62.558 1.975,-110.75 13.068,-147.712 l 6.711,-22.353 c -13.669,-0.228 -28.542,-9.53 -24.075,-22.248 8.34,-21.115 -3.238,-21.111 -14.032,-22.892 -11.776,-1.943 -14.664,-28.389 -14.664,-35.538 0,-14.451 6.957,-23.311 17.893,-30.479 9.56,-5.482 12.95,-14.801 4.752,-22.377 -11.794,-11.793 -9.761,-23.832 3.672,-33.292 10.362,-7.297 11.139,-7.992 3.075,-23.78 -6.539,-12.802 2.378,-29.884 14.255,-32.029 9.793,-1.769 10.888,-7.231 8.697,-15.352 -3.686,-13.661 29.821,-43.223 48.628,-54.243 20.601,-12.071 47.896,-15.289 77.687,-9.15 28.002,5.766 40.551,11.68 62.01,29.215 24.351,19.898 27.29,28.121 25.647,71.745 -0.78,20.594 -2.377,35.889 -1.011,35.889 1.367,0 7.774,3.899 11.688,6.765 5.967,4.361 6.334,6.16 2.263,11.066 -3.037,3.657 -17.669,3.163 -23.91,2.247 0,0 -3.455,5.771 -12.11,17.724 -6.718,9.278 -19.558,23.227 -29.742,30.172 -16.89,11.515 -20.654,12.549 -42.817,11.746 -13.364,-0.486 -24.846,0.76 -25.513,2.764 -0.668,2.003 5.505,6.61 13.723,10.234 25.12,11.081 58.42,55.826 65.831,88.455 1.637,7.203 3.104,52.486 3.262,100.629 l 0.29,87.532 10.325,7.89 c 5.681,4.338 40.379,32.031 83.271,56.891 l 65.099,37.732 15.43,-5.361 c 29.856,-10.369 71.58,0.961 85.082,23.105 7.823,12.825 8.678,20.021 3.371,28.362 -3.028,4.762 -4.791,4.858 -11.611,0.628 -11.849,-7.347 -16.48,-0.701 -11.023,15.826 3.628,11.001 3.303,17.265 -1.822,34.958 -8.201,28.32 -20.899,82.312 -38.627,133.817 -17.369,50.463 -26.676,75.309 -29.354,85.981 -7.625,17.909 21.52,9.44 33.318,9.44 27.921,0 37.007,1.323 41.757,6.068 8.057,8.06 6.868,19.65 -5.569,22.782 -25.646,6.458 -60.21,6.481 -85.861,1.023 z m -211.137,-323.069 c -8.897,-2.38 -17.628,-6.923 -19.404,-10.095 -6.668,-11.916 1.624,-15.43 37.878,-16.05 l 35.125,-0.6 -0.584,-12.431 c -0.318,-6.836 -1.336,-13.187 -2.26,-14.111 -0.922,-0.923 -10.617,0.253 -21.54,2.582 -20.972,4.497 -101.337,2.906 -113.487,-2.248 -6.51,-2.762 -6.473,-2.099 0.62,11.81 4.135,8.102 15.201,21.815 24.588,30.471 14.363,17.723 24.656,15.64 46.157,15.368 l 29.083,-0.368 z m 86.34,-77.569 c -10.806,-6.039 -19.627,-9.705 -19.602,-8.144 0,1.56 2.532,12.099 5.568,23.421 3.04,11.317 5.547,24.958 5.568,30.306 l 0.03,9.726 60.809,5.601 c 33.444,3.079 44.176,5.829 48.29,6.112 -32.083,-23.211 -66.605,-47.353 -100.663,-67.022 z m -53.549,5.403 c 11.653,-2.329 11.875,-2.747 9.372,-17.774 -1.704,-10.218 -7.245,-20.486 -16.498,-30.574 -30.408,-33.141 -59.579,-95.417 -75.185,-160.511 -7.71,-32.155 -9.557,-67.548 -3.717,-71.158 4.899,-3.027 7.977,3.712 28.158,61.627 17.126,49.155 48.833,119.756 53.77,119.733 1.35,0 2.456,-34.107 2.456,-75.775 0,-86.532 -2.31,-95.719 -32.217,-128.162 -26.538,-28.789 -51.519,-36.271 -66.702,-19.974 -9.948,10.679 -27.686,53.826 -37.445,91.082 -14.486,55.311 -13.947,170.114 1,213.465 4.517,13.093 6.786,15.057 19.716,17.073 20.367,3.171 102.841,3.839 117.289,0.948 z m -1.779,-385.06 c 17.392,-13.267 32.67,-38.978 32.67,-38.978 -7.81,-2.992 -6.691,-15.404 6.26,-14.785 0,0 0.495,-4.074 0.495,-21.608 0,-25.429 -4.067,-33.247 -18.82,-36.199 -6.382,-1.277 -15.178,-6.331 -19.545,-11.238 -7.535,-8.459 -8.605,-8.638 -20.868,-3.513 -7.113,2.972 -16.899,4.405 -21.754,3.189 -7.449,-1.873 -8.821,-0.808 -8.821,6.842 0,5.892 -4.659,12.779 -13.338,19.715 -38.636,30.875 -41.588,37.861 -28.238,66.788 8.611,18.656 21.661,30.887 40.284,37.751 18.83,6.941 35.5,4.371 51.675,-7.964 z m -41.684,-7.18 c -12.389,-5.391 -26.551,-22.843 -22.125,-27.267 1.406,-1.407 5.425,-0.509 8.927,1.997 12.927,9.245 25.438,12.561 39.208,10.388 11.074,-1.748 14.641,-0.887 16.51,3.985 5.431,14.152 -20.03,20.678 -42.52,10.897 z m -4.252,-66.284 c -6.013,-6.012 -1.808,-16.841 4.54,-19.277 7.178,-2.753 9.721,0.603 9.721,12.842 0,12.024 -8.042,12.654 -14.261,6.435 z m 36.677,2.473 c -5.899,-7.106 -0.954,-21.273 6.903,-19.784 8.092,1.533 10.481,19.986 2.965,22.868 -3.049,1.171 -7.489,-0.224 -9.868,-3.084 z" fill="#00B894" transform="translate(79.978976,14.736866) matrix(0.26458333,0,0,0.26458333,-8741.2561,-3278.7562)"/>
</svg>