<?xml version="1.0" ?><svg height="135.2056mm" viewBox="0 0 362.65878 135.2056" width="362.65878mm" xmlns="http://www.w3.org/2000/svg">
    <path d="m -5844.2168,237.85156 c -28.0636,-5e-5 -52.9695,17.0394 -61.8008,42.28125 h -108.2129 c -10.3809,8.96086 -5.9908,40.40872 0,42.07813 h 109.459 c 9.8174,23.55497 33.8286,39.03242 60.5547,39.0332 26.7261,-7.8e-4 50.7373,-15.47823 60.5547,-39.0332 h 110.8594 c 4.6673,1.01989 9.6666,-40.32001 -10.1185,-41.09367 l -99.4968,-0.98446 c -8.8311,-25.24118 -33.7359,-42.28049 -61.7988,-42.28125 z" fill="#FFFFFF" paint-order="markers stroke fill" transform="translate(154.11511,32.073042) matrix(1.0306066,0,0,1.0306066,953.17272,899.29029) translate(4946.0726,-1138.2098)"/>
    <path d="m -896.86549,-903.7035 c -5.7796,-0.0204 -11.7574,0.55393 -17.8555,1.7207 -22.9521,4.51341 -40.5828,21.13848 -48.2324,41.59961 -25.6341,0.0172 -58.17091,0.0391 -58.83601,0.0391 -4.1942,0.0101 -15.8867,-0.54842 -26.6738,-0.47656 -10.7871,0.0719 -20.6702,0.77462 -21.2422,3.30078 -2.9219,7.40344 9.3022,5.25222 25.3243,5.04492 8.8412,-0.1143 16.3075,0.0245 16.5917,0.3086 0.4205,0.4206 1.0186,26.80153 0.7422,32.73633 -0.054,1.1646 -4.7091,1.7318 -16.4101,2 -15.3197,0.3511 -24.3457,-0.10863 -24.3457,2.39257 0,2.5459 8.7647,3.2973 24.6211,2.9043 11.5214,-0.2855 17.5711,0.10343 19.75,1.26953 2.4598,1.3162 3.6971,1.33333 5.707,0.0781 3.7102,-2.3171 15.2349,-2.05272 17.2676,0.39648 2.09451,2.5236 3.87321,2.52933 6.64651,0.0195 1.2716,-1.15092 7.4714,-1.63575 32.0898,-1.8164 1.1123,2.5009 2.404,4.97086 3.8828,7.39843 10.6402,17.46623 34.1262,33.71618 55.6406,32.17188 32.9872,-2.36782 44.3789,-7.92343 57.8692,-22.3457 4.4158,-4.72085 7.7341,-10.65739 9.9687,-17.29493 32.2969,-0.0475 47.9025,-0.25367 53.9571,-0.92773 7.0677,-0.7868 7.459,-0.66709 9.0195,2.75781 1.844,4.0472 4.3028,3.9107 6.2266,-0.3457 1.222,-2.7037 2.349,-2.89849 18.6679,-3.24609 16.3541,-0.3484 17.3653,-0.52591 17.3653,-3.03711 0,-2.03402 -1.0289,-2.76529 -4.334,-3.08399 -3.2534,-0.3137 -4.3321,-1.0613 -4.3321,-3 0,-3.4155 -1.8816,-3.27699 -4.2675,0.31641 -1.3268,1.9982 -2.6677,2.61547 -4.3125,1.98437 -1.8125,-0.6956 -2.0337,-1.34275 -0.916,-2.68945 0.8095,-0.9755 1.0992,-2.14682 0.6425,-2.60352 -1.3097,-1.3097 -5.8144,1.62557 -5.8144,3.78907 0,1.0742 -1.1993,1.95312 -2.666,1.95312 -3.108,0 -3.2317,-0.46473 -1.0508,-3.95703 0.8889,-1.4234 1.2037,-3.00136 0.6992,-3.50586 -1.4103,-1.4103 -4.9824,2.14479 -4.9824,4.95899 0,1.3769 -0.9,2.5039 -2,2.5039 -1.6048,0 -2.0017,-2.04278 -2.0117,-10.33398 -0.006,-5.6833 -0.39,-13.49114 -0.8536,-17.35157 l -0.8437,-7.01953 13.1894,0.76953 c 13.6544,0.7958 17.5391,-0.15328 16.0899,-3.92968 -0.6813,-1.7754 -3.2499,-2.13477 -15.2617,-2.13477 -9.0762,0 -15.0085,-0.56714 -15.9688,-1.52734 -0.5711,-0.5713 -1.5683,-0.8593 -3.332,-0.86524 -1.7637,-0.006 -4.295,0.26913 -7.9356,0.82618 -3.3948,0.51945 -26.262,0.90181 -55.955,1.16015 -1.0768,-3.10545 -2.3438,-6.14011 -3.8125,-9.05664 -11.3397,-22.51715 -32.6681,-33.76336 -57.7129,-33.85156 z m -5.8867,5.72656 c 19.2727,-0.0896 35.818,6.57479 47.6171,18.4043 21.2031,21.25772 23.266,52.1392 5.8223,77.25 -13.0456,18.77958 -47.5881,25.72197 -66.9199,20.08008 -7.4785,-2.18257 -21.821,-9.73799 -27.8613,-16.29102 -28.464,-32.19606 -15.0441,-84.23067 27.5879,-98.2832 4.713,-0.75958 9.3063,-1.13947 13.7539,-1.16016 z m 1.2031,8.63477 c -6.0656,-0.003 -11.8748,0.93304 -16.9121,2.99218 -25.8352,10.5609 -41.2818,38.98644 -28.6504,66.26563 12.4754,24.30353 34.8227,35.6224 66.2578,27.80664 8.9353,-2.93156 21.437,-10.43862 27.1113,-17.47461 12.377,-15.34744 15.1731,-37.42471 -0.2636,-59.14648 -8.8473,-11.96751 -29.3462,-20.4335 -47.543,-20.44336 z m 1.832,5.33398 c 10.8334,0.17411 23.2805,2.98513 29.7324,7.90625 12.8082,9.76916 20.4943,32.03655 18.7891,45.32031 -1.3935,10.85626 -9.621,20.23622 -23.9785,27.33203 -24.3435,11.44717 -51.0976,4.58 -64.7285,-21.43359 -8.6401,-18.19136 -0.6012,-48.84263 27.1269,-57.67969 3.5424,-1.05963 8.1344,-1.52445 13.0586,-1.44531 z m 7.7559,6.24414 c -0.5714,-0.0284 -1.2924,0.58394 -2.0489,1.88281 -1.7115,2.93837 -1.4886,8.1211 0.3497,8.1211 1.8859,0 2.9199,-2.41281 2.9199,-6.8125 0,-2.0591 -0.4861,-3.15486 -1.2207,-3.19141 z m -18.7246,0.42383 c -0.0947,0.008 -0.188,0.0385 -0.2774,0.0937 -1.8701,1.15574 -0.8278,10.04687 1.1778,10.04687 0.9243,0 1.8297,-1.04176 2.0117,-2.31445 0.433,-3.02829 -1.4918,-7.95059 -2.9121,-7.82617 z m 34.1836,6.82812 c -0.6048,-0.0359 -1.4453,0.50437 -2.3438,1.78711 -2.2354,3.19136 -2.4034,6.72451 -0.2812,5.91016 0.8407,-0.32256 2.1245,-1.89588 2.8535,-3.49609 1.1308,-2.48188 0.7793,-4.14132 -0.2285,-4.20118 z m -48.5528,0.85938 c -0.3335,-0.0455 -0.414,0.33092 -0.414,1.10742 0,4.58159 4.5584,10.1026 6.1777,7.48242 0.8284,-1.34042 -0.8364,-4.44927 -3.834,-7.16211 -1.0105,-0.9145 -1.5962,-1.38218 -1.9297,-1.42773 z m 51.2852,6.69727 c -1.0636,0.15142 -2.8074,1.55578 -7.3965,5.61914 -1.4123,1.2508 -3.1344,1.75442 -4.5254,1.32421 -10.9479,-3.38578 -17.6022,-3.00037 -24.7461,1.4336 -5.6499,3.50669 -9.5874,9.02362 -11.2832,15.8125 -1.6491,6.60209 -1.6746,7.09761 -0.4824,8.98047 1.9083,3.01382 4.2283,0.42787 4.9297,-5.49414 1.1891,-10.03998 6.2174,-15.99166 15.2168,-18.01367 3.2167,-0.72277 6.2507,-0.66223 9.4062,0.1875 l 4.6563,1.2539 -4.1563,3.8086 c -2.2864,2.09544 -5.0944,3.81054 -6.2402,3.81054 -2.2417,0 -5.0053,2.66743 -6.1778,5.96289 -0.7508,2.11057 0.9125,6.30063 3.0743,7.74414 3.9635,2.64647 11.875,-0.78498 11.875,-5.15039 0,-2.82081 5.0191,-10.23633 6.9277,-10.23633 2.4119,0 5.8085,6.13457 6.0371,10.9043 0.1535,3.20421 0.7786,4.88989 1.8985,5.11524 1.7456,0.35138 3.4336,-4.00249 2.5937,-6.68946 -0.256,-0.81913 -0.7597,-2.83548 -1.1191,-4.48242 -0.3593,-1.64701 -1.9566,-4.54498 -3.5508,-6.43945 l -2.8985,-3.44532 4.0508,-5.51757 c 2.5945,-3.53433 3.6096,-5.78922 2.8262,-6.27344 -0.2839,-0.17544 -0.5615,-0.26532 -0.916,-0.21484 z m 8.8105,4.11914 c -1.1137,0.12688 -2.8646,1.00259 -4.2832,2.32421 -2.7207,2.53481 -3.2552,5.55665 -0.9824,5.55665 1.3196,0 6.373,-5.73778 6.373,-7.23633 0,-0.52793 -0.4392,-0.72067 -1.1074,-0.64453 z m -69.2129,1.75195 c -0.3248,0.0192 -0.575,0.0965 -0.7246,0.24609 -0.9878,0.98777 -0.9363,1.04633 3.1192,3.55274 4.5477,2.81056 6.5989,2.97218 6.1113,0.48242 -0.3224,-1.64567 -6.2322,-4.4159 -8.5059,-4.28125 z m -83.90041,3.36133 h 7.3438 7.3418 l 0.957,15.29492 c 0.5256,8.4121 0.6021,16.21278 0.1719,17.33398 -0.5396,1.406 -2.6208,2.03907 -6.707,2.03907 -5.8277,0 -5.9352,-0.0818 -6.6524,-5 -0.401,-2.75 -1.1171,-10.55069 -1.5918,-17.33399 z m 230.81061,0 h 6.7363 c 11.52055,-1.06845 6.7363,5.7091 6.7363,16.74414 v 16.74219 l -5.5644,-0.41016 c -3.1299,-0.23073 -5.817,-1.18273 -6.1445,-2.17774 -0.4805,-1.45978 -0.0968,-1.4659 2.1972,-0.0332 2.1047,1.3144 3.1529,1.36071 4.3223,0.19141 2.3836,-2.3837 0.3186,-6.15445 -2.9082,-5.31055 -1.5053,0.3936 -3.2129,0.0513 -3.2129,-0.84961 0,-0.89929 -0.8575,-6.81387 -1.3203,-13.23047 z m -45.834,0.65039 39.9727,0.0176 0.3867,12.5039 c 0.3489,11.315 0.1263,12.68491 -2.334,14.40821 -1.4955,1.0474 -2.7188,2.77167 -2.7188,3.83007 0,1.3682 -1.6022,1.92383 -5.541,1.92383 -5.4612,0 -5.5053,-0.039 -3.1191,-2.67578 1.3314,-1.4711 2.039,-3.05478 1.5723,-3.52148 -1.1334,-1.1334 -4.9122,2.08614 -4.9122,4.18554 0,2.0169 -7.1205,3.31008 -18.3339,3.33008 -1.7786,0.003 -3.1772,-0.0385 -4.3477,-0.11914 2.2693,-10.66267 2.0563,-22.53768 -0.625,-33.88281 z m -132.1348,0.0527 c -2.5863,10.49494 -2.6012,21.68624 0.5157,32.58203 -2.3371,0.0317 -4.9948,0.0488 -8.4981,0.0488 -14.7168,0 -19.2441,-0.39977 -19.2441,-1.70117 0,-0.9359 -0.6052,-6.7859 -1.3457,-13 -0.7404,-6.2141 -1.6416,-12.6118 -2.0039,-14.2168 -0.3623,-1.6051 -0.207,-3.12872 0.3457,-3.38672 0.3038,-0.1419 12.7234,-0.25297 30.2304,-0.32617 z m -46.80071,3.48047 c -1.2094,-0.0429 -1.7579,0.71705 -1.7579,2.38672 0,1.9081 0.8555,2.76367 2.7637,2.76367 3.4168,0 3.0303,-4.41263 -0.4453,-5.08203 -0.2,-0.0385 -0.3878,-0.0622 -0.5605,-0.0684 z m 231.61131,0.0723 c -0.4087,-0.0186 -0.8371,0.0822 -1.2539,0.33984 -0.7972,0.4927 -1.4492,1.42547 -1.4492,2.07227 0,2.0595 2.8443,3.02102 4.3828,1.48242 1.4945,-1.49443 0.0914,-3.81395 -1.6797,-3.89453 z m -80.5742,3.72461 c -0.9209,-0.004 -2.2914,0.39748 -4.2578,1.18554 -4.1115,1.64777 -5.1494,2.96645 -3.2559,4.13672 1.6652,1.02911 9.1367,-1.61883 9.1367,-3.23828 0,-1.39898 -0.4391,-2.07822 -1.623,-2.08398 z m -73.8164,1.5039 c -0.889,0.0167 -1.7604,0.15743 -2.5157,0.44727 -3.8575,1.48031 -0.0815,3.98929 6.0586,4.02539 1.8777,0.011 2.4987,-0.53095 2.2305,-1.94531 -0.2864,-1.50963 -3.1066,-2.57735 -5.7734,-2.52735 z m 154.8906,4.32422 c -0.3534,-8e-4 -0.7065,0.1401 -1.0176,0.45117 -1.5936,1.5936 -0.8599,4.40821 1.1484,4.40821 1.1,0 2,-0.86518 2,-1.92188 0,-1.67062 -1.0707,-2.93511 -2.1308,-2.9375 z m -229.86921,0.85938 c -1.4815,0 -2.6679,0.8889 -2.6679,2 0,1.1111 1.1864,2 2.6679,2 1.4815,0 2.6661,-0.8889 2.6661,-2 0,-1.1111 -1.1846,-2 -2.6661,-2 z m 148.48251,3.92968 c -0.9028,0.0104 -1.9436,0.12236 -3.1133,0.3418 -6.6025,1.23858 -4.215,3.99414 3.4609,3.99414 2.692,0 3.8282,-0.50886 3.8282,-1.71484 -10e-5,-1.75499 -1.4674,-2.65234 -4.1758,-2.6211 z m -111.4141,7.22657 c -0.5212,-0.0694 -1.1292,0.4555 -1.9844,1.625 -1.2814,1.7525 -1.3881,2.67273 -0.3476,3.01953 2.1814,0.7271 4.4017,-1.96002 3.2109,-3.88672 -0.2842,-0.4599 -0.5662,-0.71615 -0.8789,-0.75781 z m 153.9121,0.82031 c -0.4719,-0.005 -1.2284,0.45526 -2.1601,1.22851 -2.5484,2.115 -3.6072,6.42091 -1.2286,5.62891 0.9166,-0.3052 3.5681,-3.91242 3.836,-5.29492 0.2107,-1.0874 0.0246,-1.55748 -0.4473,-1.5625 z m -192.39261,0.0234 c -1.6729,0 -2.5879,0.91499 -2.5879,2.58789 0,3.5902 2.5211,4.79338 4.9512,2.36328 2.4301,-2.4301 1.227,-4.95117 -2.3633,-4.95117 z m -34.3125,0.0684 c -0.7974,-0.0831 -1.8989,0.68416 -2.7675,2.23632 -0.7092,1.2677 -0.9849,2.79714 -0.6133,3.39844 0.9185,1.4861 4.4375,-1.58099 4.4375,-3.86719 0,-1.12455 -0.4364,-1.70293 -1.0567,-1.76757 z m 60.08791,0.0957 c -0.5337,-0.0598 -1.207,0.37484 -1.6972,1.16797 -1.539,2.4902 -0.415,3.61421 1.5996,1.59961 0.8556,-0.8555 1.1132,-1.99807 0.5722,-2.53907 -0.1352,-0.13525 -0.2967,-0.20858 -0.4746,-0.22851 z m -69.84181,1.16211 c -0.4457,0.007 -1.0254,0.28722 -1.6328,0.89453 -1.2743,1.2743 -1.0971,3.11133 0.3008,3.11133 0.6549,0 1.5368,-0.9 1.959,-2 0.4874,-1.27019 0.116,-2.01805 -0.627,-2.00586 z m 17.5762,0.19726 c -0.3855,-0.0113 -0.8527,0.1188 -1.3652,0.43555 -0.794,0.4908 -1.0649,1.5034 -0.6035,2.25 0.5628,0.9106 1.308,0.88729 2.2656,-0.0703 1.2835,-1.28348 0.8597,-2.58143 -0.2969,-2.61524 z m 243.90231,2.47657 c 0.7334,0 1.3321,0.59873 1.3321,1.33203 0,0.7334 -0.5987,1.33398 -1.3321,1.33398 -0.7333,0 -1.3339,-0.60058 -1.3339,-1.33398 0,-0.7333 0.6006,-1.33203 1.3339,-1.33203 z" fill="#00B894" transform="translate(154.11511,32.073042) matrix(1.0306066,0,0,1.0306066,953.17272,899.29029)"/>
</svg>