<?xml version="1.0" ?><svg height="48.739273mm" viewBox="0 0 63.123703 48.739273" width="63.123703mm" xmlns="http://www.w3.org/2000/svg">
    <path color="#000" d="m 12660.743,-1512.516 -107.902,-98.8753 50.858,-61.486 c 0,0 38.926,-4.8456 59.226,-4.3872 20.3,0.4584 64.61,11.7865 64.61,11.7865 l 36.67,55.3963 z" fill="#FFFFFF" overflow="visible" paint-order="fill markers stroke" transform="translate(-74.271445,-123.79703) matrix(0.27401065,0,0,0.27401065,-3363.4224,585.43643)"/>
    <path d="m 12622.486,-1533.0708 c -30.369,-28.6328 -53.647,-51.8312 -72.186,-67.6202 -3.652,-3.1111 -7.177,-13.0736 -1.4,-19.1485 14.39,-15.9524 29.734,-49.4973 48.665,-55.6456 39.105,-12.7007 86.755,-11.5177 113.5,-1.4602 7.664,2.8819 14.977,7.11 19.22,12.5177 2.336,2.9779 14.689,14.3785 27.7,26.5626 19.728,18.4737 20.903,23.8725 15.344,30.2794 -10.469,11.65 -73.567,73.5947 -100.894,96.3274 -6.638,5.522 -21.248,5.5579 -25.097,1.6028 -2.86,-2.9404 -5.71,-4.2912 -24.852,-23.4154 z m 22.754,-3.1239 c -1.431,-4.9967 -26.445,-55.9775 -35.578,-65.1101 -5.506,-5.5066 -6.507,-8.2097 -22.129,-8.2097 -18.235,0 -21.472,-1.0706 -14.997,4.233 8.564,7.0136 31.794,32.6738 57.441,58.7893 16.886,17.1943 16.166,13.4459 15.263,10.2975 z m 52.687,-70.4434 c -19.475,1.6296 -49.11,-3.0585 -75.899,-0.8079 15.662,25.7178 19.2,37.3552 29.184,56.4784 4.832,8.01 9.564,21.4173 10.542,20.3677 13.699,-29.8482 26.026,-53.8783 36.173,-76.0382 z m -9.741,62.5298 c 14.848,-15.3603 53.765,-52.6926 57.284,-56.8979 l 6.397,-7.646 c -31.918,0.9859 -40.039,0.7048 -41.47,6.1598 -8.268,19.4156 -18.124,34.3493 -29.473,56.7164 -5.501,10.2802 0.918,8.2318 7.262,1.6677 z m 7.013,-80.3548 c -1.232,-2.2798 -12.7,-12.5176 -33.516,-38.756 -2.909,-1.8256 -6.779,-8.1791 -9.268,-3.565 -13.666,16.7443 -14.157,23.4261 -27.631,41.598 -4.079,4.6212 -4.56,4.5696 17.197,5.1282 15.502,0.3981 34.149,-0.3358 42.099,-0.062 6.037,-0.8257 14.464,1.8516 11.119,-4.3432 z m -98.325,-33.8931 c 0.102,-1.254 -23.26,31.3791 -23.26,33.1132 0,1.7026 24.108,2.0248 24.398,-1.2299 0.16,-1.7916 -1.948,-22.0087 -1.138,-31.8833 z m 148.658,29.9067 c -3.322,-5.9983 -21.877,-20.3918 -24.53,-20.4087 -1.533,-0.01 0.05,6.979 2.462,19.0603 1.017,5.1042 -0.106,6.4606 11.82,6.5392 12.661,0.083 12.113,-1.8336 10.248,-5.1908 z m -111.524,-33.4917 c 3.684,-5.7423 10.608,-9.2547 -8.537,-6.0931 -17.683,2.9204 -10.948,2.4988 -13.649,26.9656 -1.529,13.8209 0.03,11.4405 3.463,7.4785 7.075,-9.0899 14.519,-21.7997 18.723,-28.351 z m 72.6,8.5651 c -1.248,-10.3872 -3.005,-9.6537 -23.634,-15.36 -11.878,-3.3472 -10.197,2.2834 -2.732,9.0379 12.087,14.1232 17.149,17.3585 26.052,26.8991 6.965,7.4643 1.712,-8.9361 0.314,-20.577 z" fill="#00B894" transform="translate(-74.271445,-123.79703) matrix(0.27401065,0,0,0.27401065,-3363.4224,585.43643)"/>
</svg>