<?xml version="1.0" ?><svg height="300.00439mm" viewBox="0 0 365.85519 300.00439" width="365.85519mm" xmlns="http://www.w3.org/2000/svg">
    <path d="m 1553.5457,2463.7497 c -0.7212,0.012 -1.491,0.074 -2.3121,0.1922 -8.7571,1.2581 -10.9776,7.6965 -10.6076,13.5057 0,0 -5.7149,4.1073 -8.1406,5.3283 -2.4258,1.2211 -10.6077,7.2895 -14.4725,15.6151 -3.8649,8.3254 -0.4932,18.7599 0.4935,20.684 0.9868,1.924 14.1437,14.8379 20.311,17.8351 6.1668,2.9972 22.8187,-1.8872 22.8187,-1.8872 0,0 2.6721,4.1443 5.1801,6.0683 2.508,1.9241 8.2645,6.3642 18.3373,8.9545 10.0732,2.59 27.9173,15.023 30.0964,17.5762 2.1791,2.5532 0.5756,9.8424 -2.5492,17.7979 -3.1247,7.9555 15.2949,8.6213 24.1758,8.9545 8.8808,0.3328 22.9833,-3.626 27.7115,-16.0218 4.7282,-12.3954 -6.6606,-34.6341 -15.7882,-42.1085 -9.1275,-7.4745 -51.9284,-26.1604 -60.0692,-26.7152 -8.1407,-0.5551 -17.5561,6.3273 -17.5561,6.3273 0,0 1.5214,-5.5137 3.2893,-7.7706 1.7679,-2.2571 -0.6578,-9.6944 -2.7136,-16.3918 -2.0557,-6.6974 -12.129,-8.4367 -12.129,-8.4367 0,0 4.1118,-5.2911 3.7006,-10.3973 -0.3726,-4.6275 -2.8055,-9.2251 -9.7761,-9.11 z m 203.2676,37.1099 c -0.6573,-0.01 -1.3458,0.2872 -1.882,1.033 -1.3727,1.909 -1.3519,4.6043 0.6863,5.8957 2.1214,-0.4681 3.6393,-3.5564 3.3481,-5.1661 -0.1775,-0.9809 -1.1268,-1.7463 -2.1524,-1.7626 z m 22.61,2.6556 c -3.0453,-0.1215 -5.1015,4.5517 -5.1015,4.5517 0,0 -1.5933,-1.7616 -4.9165,0.5736 -3.3231,2.3352 -4.5981,12.8643 -4.5981,12.8643 0,0 -9.514,-1.106 -16.1148,3.1549 -6.6008,4.2605 -7.0104,22.0002 -7.0104,22.0002 0,0 -10.2881,-5.4899 -17.2987,-1.8847 -4.0995,2.1082 -6.6339,7.1208 -8.0388,10.928 -9.8796,3.9546 -18.5465,9.0903 -22.8679,15.3361 -13.3703,19.3238 -40.6218,46.2456 -57.9582,58.3297 -6.1294,4.2725 -15.0705,8.8178 -24.629,13.3093 l -11.346,-14.673 c 0,0 -17.0218,8.6952 -18.3374,13.5056 l 7.9246,11.096 c -9.9639,4.5332 -18.7823,8.7206 -23.751,12.1471 -13.0873,9.0246 -36.8256,33.703 -36.3157,42.1157 l -0.6469,4.5605 c -0.8541,0.4816 -1.6861,0.9467 -2.4082,1.3301 -13.938,7.4004 -32.3162,9.8794 -42.7183,12.0995 -10.4021,2.2201 -1.8916,8.5843 6.6192,13.2468 8.5108,4.6622 30.5899,-9.0656 30.5899,-9.0656 l 5.9309,-3.6132 -0.369,2.6014 c 0,0 38.412,-17.1824 52.9157,-25.4424 14.5036,-8.2601 38.2986,-16.01 20.5656,0.8154 -14.3585,13.6242 -34.5048,30.3841 -44.3916,37.5977 -9.3553,3.5253 -20.7899,6.7274 -27.251,8.2812 -9.5387,2.2942 -5.4682,5.1805 -2.7135,7.8078 2.7547,2.627 23.8878,-0.5923 33.4677,-4.4034 2.8646,-1.1396 10.4023,-5.1563 19.3063,-10.0603 4.8605,-0.9589 9.2,-2.1447 11.8375,-3.5316 10.0846,-5.3028 70.4218,-28.8082 94.3302,-41.1468 23.9083,-12.3391 95.1236,-65.0087 110.7601,-82.5485 15.6368,-17.5397 39.2052,-48.4382 45.3807,-58.0238 6.1754,-9.5856 -1.3031,-12.4921 -3.7393,-14.9903 -2.4361,-2.4985 -7.3649,0.2041 -7.3649,0.2041 0,0 0.2263,0.1017 -0.8501,-2.8045 -1.0764,-2.9064 -13.257,-1.5803 -13.257,-1.5803 0,0 -7.7955,-6.9589 -19.6917,-5.1857 -4.3163,0.6433 -1.8808,-2.9515 -0.1287,-5.2592 6.158,-8.1106 10.6346,-14.0424 5.9426,-16.2092 -6.9193,-3.1956 -12.2002,6.3504 -11.3352,2.1306 0.8649,-4.2199 -5.2805,-7.8661 -9.0589,-9.7917 -0.4723,-0.2407 -0.9276,-0.3557 -1.3627,-0.3731 z m -257.6411,60.2449 c -6.3574,0.064 -14.7066,3.821 -14.7066,3.821 0,0 -0.5756,1.3685 -4.8927,6.8078 -4.317,5.4394 6.7842,7.8818 10.8546,7.8078 4.0704,-0.074 5.3037,-1.3692 13.0333,-4.0333 0,0 7.8118,-2.1828 7.4828,-6.8451 -0.3289,-4.6622 -3.1248,-6.3277 -9.5384,-7.4006 -0.7016,-0.1173 -1.4522,-0.1654 -2.233,-0.1576 z m 40.8399,22.9511 c -4.3582,-0.037 -21.8321,2.331 -25.2036,3.515 -3.3714,1.1841 -3.9469,11.3595 -0.9044,15.3557 0,0 4.5229,0.9622 8.9633,0.9622 4.4404,0 12.17,-4.1812 17.2682,-9.6206 5.0983,-5.4393 4.2347,-10.1753 -0.1235,-10.2123 z" fill="#FFFFFF" paint-order="markers stroke fill" transform="translate(250.88523,167.62086) translate(-1727.6856,-2629.3236)"/>
    <path d="m 1526.0272,2760.0715 c -11.211,-4.7374 -4.619,-15.0571 10.3158,-16.155 11.9114,-0.8755 15.0012,-2.3677 61.6335,-29.7447 14.3036,-8.3961 27.4516,-15.2132 28.7571,-16.1118 3.2225,-2.2181 2.1116,-2.5024 3.3059,-5.3859 1.0338,-2.4971 4.9889,-6.5619 7.1681,-9.0335 5.2812,-4.7097 3.0806,-5.9282 -0.3303,-11.4469 l -4.2949,-6.9535 -17.5563,10.37 c -9.6588,5.7032 -34.1188,20.314 -54.3583,32.4681 -57.935,34.7901 -58.2512,34.9485 -67.072,33.794 -12.2674,-1.6056 -21.5066,-13.6409 -14.2134,-18.5145 1.2365,-0.8251 8.2044,-2.7355 15.4859,-4.2452 15.8619,-3.2885 19.8911,-4.9077 45.1175,-18.138 28.1481,-14.7641 38.898,-22.5143 39.4265,-24.4118 1.9258,-6.9131 7.1635,-10.687 8.6919,-11.9386 l 2.7769,-2.276 -6.1034,-7.7151 c -5.5624,-7.0326 -6.0442,-8.1438 -5.4653,-12.5668 0.3493,-2.6686 1.3773,-5.7535 2.282,-6.8558 1.4286,-1.7373 0.9704,-2.9753 -3.4645,-9.3144 -2.8129,-4.021 -4.8382,-8.3062 -4.8189,-9.546 0.077,-4.9466 12.5187,-13.1976 27.8217,-22.1559 7.0817,-4.1444 7.6304,-4.7607 8.4249,-9.4363 0.461,-2.7521 1.4892,-6.4543 2.2721,-8.2289 1.8965,-4.2953 1.9209,-4.3042 -22.2563,7.3289 -16.1997,7.7951 -20.7524,10.5243 -23.0271,13.803 -3.4816,5.0172 -11.6036,11.1533 -16.1783,12.2241 -1.8706,0.4375 -5.9135,0.4667 -8.9814,0.065 -4.8169,-0.6305 -5.9215,-1.2676 -8.0963,-4.6626 -4.853,-7.5824 -1.0592,-17.3203 8.0283,-20.6074 2.003,-0.7248 8.1885,-1.0347 13.7456,-0.6889 9.7137,0.6045 10.4434,0.4543 18.9654,-3.8915 13.5906,-6.9319 23.4717,-14.3877 23.9539,-18.0712 0.3474,-2.6547 -0.2468,-3.3391 -4.3231,-4.9818 -2.602,-1.0478 -5.515,-2.2471 -6.4788,-2.6658 -0.9648,-0.4186 -3.9758,0.4484 -6.6927,1.927 -4.074,2.216 -5.3393,3.7464 -7.2009,8.7154 -3.5694,9.5178 -5.8898,10.6334 -22.4,10.7837 -13.3164,0.1215 -14.215,0.2915 -15.8723,3.0133 -0.9858,1.6219 -3.4536,3.2782 -5.6376,3.7827 -2.1321,0.4942 -5.9012,1.4436 -8.3746,2.1097 -10.4182,2.806 -22.8603,-4.0377 -20.0937,-11.0515 1.7975,-4.5479 11.8254,-11.6762 16.8204,-11.9523 4.8682,-0.2695 13.9948,2.9943 16.4602,5.8875 1.4999,1.7548 3.1957,1.4279 16.3545,-3.1454 13.3576,-4.6437 14.7912,-5.4252 15.8933,-8.6756 1.9602,-5.7687 1.913,-7.7656 -0.2874,-11.7281 -2.6603,-4.8019 -0.6143,-7.0956 3.3152,-3.7149 1.4106,1.2125 6.3425,3.222 10.9601,4.4657 4.6167,1.2435 10.3994,3.0402 12.8505,3.9926 8.9677,3.4844 9.2397,3.1864 12.8458,-14.0938 1.8583,-8.9045 1.976,-9.118 5.1162,-9.0688 2.5644,0.04 3.3655,0.6928 3.9693,3.2305 0.9877,4.1661 0.052,10.9103 -2.776,19.9375 -2.0914,6.702 -2.1187,7.465 -0.3184,9.1518 1.0798,1.012 2.7737,2.7264 3.7674,3.8104 0.9927,1.0838 2.0385,2.001 2.3221,2.0382 0.2935,0.038 8.139,-3.5761 17.4547,-8.0297 l 16.9331,-8.0977 -2.297,-2.7384 c -7.3966,-8.8149 -27.8212,-22.254 -41.4713,-27.2886 -10.1711,-3.7515 -22.5391,-5.4285 -27.2697,-3.6977 -4.1722,1.5251 -4.8796,1.0194 -3.4941,-2.492 1.8814,-4.7658 8.0532,-6.3197 18.9638,-4.7729 12.4561,1.7662 23.7832,5.8862 35.0056,12.7327 4.8789,2.9772 10.1153,6.1277 11.6348,7.001 2.4134,1.3868 4.2067,0.9776 14.161,-3.2303 9.7577,-4.1237 11.3648,-5.1916 11.1702,-7.4108 -0.2828,-3.1865 1.8433,-4.3435 3.9027,-2.1244 1.1904,1.2843 2.2233,1.4293 4.724,0.6627 4.3908,-1.3459 6.1383,0.9292 2.8582,3.7213 -1.9237,1.6367 -2.1601,2.4028 -1.2066,3.917 0.6552,1.0356 0.7838,2.3797 0.2898,2.9873 -1.3719,1.6819 -5.1582,0.7827 -6.0428,-1.4352 -0.6779,-1.694 -2.3723,-1.3237 -12.1127,2.645 -9.9896,4.0693 -13.6397,6.39 -10.6631,6.7796 0.5156,0.067 2.0524,1.4102 3.4166,2.9842 7.4727,8.6189 4.5585,8.6615 25.1397,-0.3703 10.1425,-4.452 18.9851,-8.5112 19.6459,-9.0211 0.742,-0.5681 0.8244,-1.9372 0.2313,-3.5392 -0.801,-2.1254 -0.6227,-2.7019 0.9612,-3.083 1.0695,-0.258 3.0573,0.3276 4.4166,1.3004 1.9272,1.3796 3.0781,1.5407 5.2223,0.7309 3.8102,-1.4405 5.739,1.0134 2.7883,3.5465 -1.2859,1.1019 -2.0282,2.9979 -1.9136,4.8811 0.2414,3.919 -3.1812,5.0566 -5.8331,1.9396 -1.715,-2.0148 -2.9426,-1.6588 -19.6002,5.6748 -24.6979,10.8724 -22.7718,9.4176 -19.9344,15.055 5.1409,10.2214 5.0971,24.6343 -0.1017,32.1999 -3.4948,5.0871 -12.3395,10.1796 -21.4968,12.3746 -6.4075,1.536 -6.9618,1.9874 -15.2422,12.4002 -4.7273,5.9433 -9.036,11.802 -9.5736,13.0198 -0.8108,1.8258 0.6061,3.5826 8.0835,10.0312 l 9.0641,7.8174 21.6731,-14.7159 c 28.3846,-19.2756 48.121,-36.2156 51.8892,-44.5402 1.8299,-4.0405 3.5962,-5.3842 6.5718,-4.9948 4.334,0.5673 6.2913,2.1489 7.3272,5.924 l 0.9797,3.5719 6.6638,-7.0616 c 3.668,-3.8835 15.017,-16.5131 25.2226,-28.0651 10.2085,-11.5518 19.3204,-21.1365 20.2504,-21.2994 1.9269,-0.3359 -0.3788,2.894 -14.8945,20.6778 -11.0056,13.5039 -17.058,19.9859 -29.1749,31.2544 -7.7785,7.2336 -14.6747,15.9009 -13.682,17.1929 0.4394,0.5728 14.1734,-10.5523 20.603,-16.6878 2.6096,-2.4928 5.3319,-4.2443 6.0463,-3.8925 2.4883,1.2232 -15.7591,17.182 -44.1538,38.6228 -15.6431,11.8107 -32.0713,23.8561 -36.5046,26.7678 l -8.0652,5.2934 3.4137,3.3841 c 1.8813,1.8618 5.4395,6.1988 7.9101,9.6381 l 4.4924,6.2535 26.7665,-20.8367 c 28.8465,-22.4576 32.761,-26.2209 41.5084,-39.9169 6.4835,-10.1535 8.4465,-11.8126 12.2027,-10.329 3.1503,1.2432 4.7767,9.3285 3.17,15.7251 -0.5561,2.2147 -0.7315,4.0634 -0.3399,4.1147 0.8548,0.1118 20.8058,-16.4574 27.9206,-23.1889 3.0344,-2.8723 6.27,-5.124 7.1842,-5.0043 1.9999,0.2617 2.2046,0.046 -12.2889,13.1913 -8.4147,7.6327 -16.1462,13.4742 -22.9378,17.3279 -0.878,0.4976 -5.0405,10.2319 -4.6119,10.7874 0.1432,0.1767 6.1339,-4.6851 13.3275,-10.8019 12.1455,-10.3234 16.2272,-12.7752 15.797,-9.4883 -0.23,1.7576 -23.508,19.8586 -36.5484,28.4199 -5.7232,3.7591 -17.7546,11.9397 -26.7304,18.1798 -8.9757,6.2399 -22.0844,15.1232 -29.1283,19.7407 -7.0438,4.6176 -13.9975,9.4324 -15.4542,10.6993 -1.4538,1.2673 -7.819,5.616 -14.1438,9.664 -6.3258,4.0479 -15.8687,10.5144 -21.2033,14.3706 -5.3346,3.8562 -15.1364,10.2973 -21.7798,14.314 -52.2403,31.5806 -75.5542,40.7016 -89.25,34.9143 z m 12.11,-6.0224 c 4.0207,-0.4912 12.5875,-2.8208 19.0338,-5.1771 12.362,-4.519 52.2493,-26.1937 70.9809,-38.57 l 11.0931,-7.3305 -3.9419,-1.3822 c -3.6845,-1.2923 -4.5789,-0.9773 -13.8034,4.8593 -16.2072,10.2572 -55.2132,33.621 -61.2734,36.7024 -8.5233,4.3327 -15.2982,6.4634 -20.9544,6.5898 -4.7833,0.1066 -14.214,2.6418 -14.374,3.8638 -0.1448,1.1066 6.1018,1.3165 13.2393,0.4445 z m -36.3577,-20.2792 c 10.1059,-3.771 21.5486,-9.9429 53.3471,-28.7712 18.5846,-11.0066 33.8097,-20.1556 33.8327,-20.3314 0.023,-0.1759 -1.1222,-0.4803 -2.5467,-0.6769 -1.4216,-0.1961 -3.3627,-0.6376 -4.3062,-0.9802 -0.9639,-0.3493 -7.3756,3.392 -14.5808,8.51 -15.7618,11.1927 -44.0741,27.1109 -55.2322,31.0536 -4.5459,1.6066 -13.3562,3.416 -19.5764,4.0212 -6.2231,0.6049 -11.6574,1.5246 -12.0812,2.0426 -1.2255,1.5035 5.9619,5.1969 11.6638,5.9932 2.9267,0.4093 7.0859,0.031 9.4799,-0.8609 z m 141.1503,-40.9739 c 0.3546,-2.7092 -1.7537,-3.1066 -3.9193,-0.7387 -3.0359,3.3153 -2.8404,4.2253 0.6762,3.1475 1.6809,-0.5137 3.137,-1.5981 3.2431,-2.4088 z m 4.9643,-6.3752 c -1.2639,-2.6181 -1.8692,-3.0176 -2.8321,-1.871 -0.8414,0.9958 -0.522,2.2077 0.963,3.8227 2.9206,3.1522 3.8619,2.1711 1.8691,-1.9517 z m 13.951,-4.3154 c 2.8779,-2.0997 5.3382,-4.6154 5.4658,-5.5905 0.3116,-2.3809 -7.2339,-14.2493 -13.0649,-20.5473 l -4.7048,-5.0854 -6.0561,4.4529 c -5.285,3.8858 -5.892,4.7169 -4.7484,6.5282 1.1936,1.8917 1.6049,1.8624 4.6599,-0.3272 4.6293,-3.315 8.1278,-3.7147 10.0961,-1.1538 2.6375,3.4353 1.811,8.0005 -2.2299,12.3215 -2.2884,2.4431 -2.5409,3.2859 -1.5299,5.0694 2.5244,4.4463 5.1076,7.9181 5.9792,8.0322 0.4958,0.065 3.2562,-1.6001 6.133,-3.7 z m -68.6966,-7.8854 c 1.6992,-1.4467 1.9459,-2.1913 0.9798,-2.9782 -0.7527,-0.6136 -2.0476,-0.2518 -3.1173,0.8706 -3.5632,3.7372 -1.8078,5.4667 2.1375,2.1076 z m 9.0372,-5.9006 c 1.0834,-1.3267 -3.1682,-4.3273 -4.9742,-3.5127 -0.956,0.4308 -0.7901,1.2209 0.5107,2.463 2.2667,2.1611 3.3518,2.4161 4.4635,1.0497 z m 30.4439,-11.9076 c 2.2239,-3.3761 2.3393,-3.9806 0.9207,-4.7543 -2.1913,-1.1878 -9.1678,4.0326 -9.5782,7.1675 -0.1767,1.3506 -2.5627,4.4852 -5.3038,6.9657 l -4.9815,4.5104 8.2036,-5.0102 c 4.5098,-2.7557 9.3481,-6.7506 10.752,-8.8774 z m 60.8947,8.4087 c 27.5039,-18.8656 51.7545,-37.501 54.1367,-41.6005 2.7389,-4.7217 5.6784,-18.3037 4.4717,-20.6733 -1.3551,-2.661 -3.1974,-1.114 -6.2022,5.207 -6.0685,12.7616 -12.6263,20.2845 -29.4977,33.8441 -16.399,13.1792 -32.0429,24.8649 -38.1364,28.4864 -2.9125,1.7322 -3.9179,5.2835 -1.5848,5.5889 0.4572,0.06 8.0239,-4.8238 16.8127,-10.8526 z m -46.1525,3.3991 c 2.0383,-2.844 1.3128,-3.7884 -1.9594,-2.5518 -2.6407,0.9972 -3.3124,2.1533 -2.1442,3.6762 1.1712,1.5234 2.462,1.17 4.1036,-1.1244 z m -33.861,-8.4402 c 2.2714,-3.6385 1.113,-6.4773 -7.6514,-18.7647 l -6.981,-9.7866 -7.3241,4.5246 c -7.4864,4.6236 -8.7667,6.4456 -6.3582,9.0416 1.0437,1.1257 2.2241,0.7836 5.0135,-1.4574 2.0071,-1.6109 5.2358,-3.3559 7.176,-3.8778 6.7881,-1.8239 9.4822,5.44 4.6154,12.4416 -1.2103,1.7417 -2.7063,3.1006 -3.323,3.0199 -4.6663,-0.6108 5.5269,5.9312 11.1215,7.1391 1.1525,0.2486 2.7451,-0.731 3.7113,-2.2803 z m -18.2416,-10.3839 c 1.2689,-0.695 2.172,-1.9627 2.0045,-2.817 -0.2097,-1.0873 -1.4367,-0.7897 -4.0965,0.9926 -4.0431,2.7116 -2.2995,4.2313 2.092,1.8244 z m 31.8835,-3.69 c -0.4267,-0.4929 -4.6126,-4.3722 -9.3009,-8.6205 -5.5312,-5.0128 -8.6416,-8.7415 -8.8632,-10.6237 -0.4497,-3.8695 4.5195,-12.9704 11.3355,-20.7715 l 5.4743,-6.2641 -5.2316,-2.2324 c -2.8769,-1.2279 -5.8206,-2.4239 -6.5433,-2.6583 -2.674,-0.8676 -34.0685,20.3073 -31.2347,22.3653 0.2131,0.1516 2.2582,2.5263 4.5308,5.2748 3.2269,4.5237 3.5707,5.1775 8.5403,3.5591 4.3927,-1.4297 4.4374,-1.4167 8.7994,2.5353 2.4128,2.185 7.3178,8.1526 10.9012,13.2609 l 6.5147,9.2881 2.9283,-2.1082 c 1.6091,-1.1596 2.5788,-2.5115 2.1492,-3.0048 z m 22.1779,0.067 c 1.0687,0.58 7.5714,-3.5011 18.9968,-11.9213 9.5517,-7.0422 19.7857,-14.451 22.742,-16.4641 7.7729,-5.295 19.6975,-16.8205 23.1497,-22.3759 3.334,-5.3618 4.8858,-12.6252 2.6071,-12.1828 -0.7834,0.1524 -2.116,1.7346 -2.9593,3.516 -4.1168,8.6987 -27.8635,28.9633 -52.9652,45.2014 -19.3247,12.5006 -20.2816,13.2161 -19.6206,14.6842 0.4811,1.0633 1.4152,1.0771 3.5351,0.053 1.5868,-0.7659 3.6188,-0.9952 4.5144,-0.5101 z m -95.1605,-47.1902 c 2.4948,-1.8394 5.4715,-4.6711 6.6096,-6.2933 2.5009,-3.5578 1.9287,-3.7246 -9.576,-2.7892 -5.0122,0.4066 -8.6705,1.473 -10.8738,3.1659 -2.9668,2.2784 -3.2148,2.9018 -2.3239,5.8116 0.9187,2.9983 1.4241,3.2669 6.315,3.3547 3.9583,0.071 6.4732,-0.7586 9.8491,-3.2497 z m -40.7011,-20.1893 c -1.5913,-2.2973 -1.8513,-6.2979 -0.3987,-6.1077 0.4016,0.052 2.3317,1.402 4.2911,2.9991 3.8658,3.15 4.6587,2.5247 2.3656,-1.8694 -0.8013,-1.5374 -1.0726,-3.2709 -0.5982,-3.8518 0.4744,-0.5808 -0.2284,-1.1988 -1.556,-1.3725 -1.3287,-0.1739 -4.8669,1.4769 -7.8656,3.6684 -5.2634,3.8434 -5.3838,4.0547 -3.4435,5.9898 1.1072,1.1033 3.5456,2.2065 5.4216,2.452 3.2344,0.4234 3.3272,0.3231 1.7837,-1.9079 z m 121.3811,10.1513 c 1.4703,-1.5936 5.2139,-4.8917 8.3245,-7.3285 4.1176,-3.2272 5.9528,-4.0413 6.756,-2.9964 0.8022,1.0448 0.3071,2.6234 -1.8265,5.8101 -1.6089,2.4067 -2.5508,4.425 -2.0907,4.4852 2.0366,0.2666 11.4128,-5.8122 13.4207,-8.7012 2.8996,-4.169 3.8126,-11.6302 2.0343,-16.5597 -1.8886,-5.2193 -5.0527,-10.8495 -6.1851,-10.9977 -0.4957,-0.065 -8.578,3.664 -17.9533,8.2872 -14.4242,7.1136 -16.9999,8.7853 -16.7359,10.8749 0.1712,1.3581 -0.6773,4.1656 -1.8756,6.24 -3.6471,6.2813 -3.3908,8.6927 1.2024,11.4094 5.6475,3.339 11.5695,3.1317 14.9361,-0.5224 z m -106.181,-18.0231 c -0.1571,-0.8256 -1.4916,-1.8413 -2.9671,-2.2573 -2.3401,-0.6601 -2.5177,-0.4975 -1.3961,1.281 1.5173,2.4083 4.7743,3.137 4.3632,0.9763 z m 35.0388,-4.7656 c 1.772,-2.1726 0.5294,-2.2642 -4.408,-0.3257 l -4.7451,1.8651 4.0564,-0.1317 c 2.2302,-0.073 4.5238,-0.706 5.0968,-1.4078 z m 45.4254,1.1466 c -0.8651,-1.1265 -1.4718,-1.1069 -2.4601,0.079 -2.1314,2.561 -1.7559,3.4446 1.0134,2.3976 1.9554,-0.7387 2.3108,-1.3505 1.4467,-2.4769 z m -28.6358,-14.4119 c 0.159,-1.2152 -1.9833,-2.0148 -2.7819,-1.0378 -0.4818,0.5914 -0.054,1.183 0.9207,1.3105 0.9856,0.129 1.8246,0.01 1.8612,-0.2727 z m -82.9193,139.3453 c -0.8248,-3.4075 2.585,-9.6793 6.6931,-12.3097 5.3886,-2.2273 6.318,-4.6437 6.9883,-9.5944 0.9047,-6.9125 1.3104,-7.7232 6.5201,-12.7833 4.1007,-3.9911 7.4214,-5.9532 12.7026,-7.506 3.9323,-1.1565 7.5136,-2.8828 7.9611,-3.836 3.0562,-6.5364 17.0646,-10.9056 20.0061,-6.2405 1.97,3.1256 -0.01,5.4047 -4.2106,4.8546 -2.9013,-0.3797 -4.8849,0.4974 -9.1994,4.0654 -3.2569,2.6914 -6.5223,4.4158 -8.0007,4.2223 -4.1218,-0.5395 -11.6585,2.7662 -16.749,7.3462 -4.4011,3.9598 -4.8654,4.8953 -5.7379,11.5611 -0.3035,6.1045 -0.4313,7.0684 -5.8202,8.9846 -5.1355,1.8262 -7.576,4.3686 -9.4944,9.9018 -0.8789,2.5309 -1.2881,2.8602 -1.6591,1.3339 z m 285.4833,-67.6225 c 0.069,-0.5272 2.4147,-2.3527 5.2145,-4.0566 5.9079,-3.5975 6.5602,-5.1371 2.3997,-5.6817 -3.9781,-0.5207 -2.6669,-3.1566 1.5447,-3.1026 5.6766,0.073 7.8881,5.7223 3.8009,9.7109 -4.0302,3.931 -13.3597,6.1851 -12.9598,3.13 z m -21.826,-21.148 c 0.434,-3.316 -1.1106,-8.9829 -2.5008,-9.1648 -0.5324,-0.07 -0.8989,-0.6447 -0.8161,-1.2778 0.2747,-2.0989 3.453,-0.7609 4.9332,2.0772 1.608,3.0864 0.9837,11.5781 -0.8338,11.3402 -0.6326,-0.083 -0.9858,-1.4215 -0.7825,-2.9748 z m 22.7581,2.8379 c -0.4129,-0.5436 -0.6944,-1.4132 -0.6265,-1.9326 0.2459,-1.8782 47.0591,-41.6718 48.7626,-41.4488 2.4699,0.3233 -2.036,5.6159 -13.6671,16.039 -18.0288,16.1606 -33.5922,28.5033 -34.469,27.3424 z m -16.7866,-15.2362 c -0.1077,-1.8123 0.093,-3.5197 0.466,-3.7918 0.9206,-0.7148 3.4536,4.2274 2.826,5.5169 -1.1588,2.3881 -3.0873,1.3728 -3.2732,-1.7226 z m -41.885,-16.5526 c -0.9177,-4.4004 -0.2052,-5.4833 2.0201,-3.0823 1.6783,1.8093 1.531,7.2499 -0.1893,7.0247 -0.5711,-0.075 -1.3939,-1.8487 -1.8308,-3.9424 z m -20.7564,-4.0239 c -1.1935,-3.8959 1.5056,-8.4596 6.1126,-10.3396 2.7912,-1.1371 3.8262,-2.3494 4.1627,-4.8661 1.3423,-10.2552 15.4388,-18.1863 22.8467,-12.8798 1.9327,1.3842 2.1293,1.054 2.9146,-4.9462 0.9869,-7.5402 3.3145,-11.2999 9.6017,-15.5149 4.843,-3.2443 9.413,-4.3331 12.0941,-2.8805 1.327,0.7187 1.6095,-0.022 1.5843,-4.1369 -0.025,-4.6032 0.3124,-5.2302 4.1563,-7.6913 2.4206,-1.5496 5.0298,-2.3365 6.1866,-1.8666 1.0993,0.4469 2.696,0.1677 3.5465,-0.6205 2.032,-1.8862 5.28,-1.39 6.8105,1.0408 1.5897,2.5177 0.088,3.6895 -1.9334,1.5109 -2.0972,-2.2622 -4.8613,-1.4086 -5.746,1.7751 -0.5019,1.8079 -1.3581,2.4166 -2.7783,1.9788 -3.6596,-1.1277 -5.6147,1.1576 -5.5809,6.5242 0.033,5.6378 -2.4538,8.1448 -6.4593,6.5167 -6.3758,-2.5901 -14.5282,4.9646 -15.7938,14.6338 -0.4307,3.2912 -1.494,6.9764 -2.3628,8.1894 -1.4007,1.9565 -2.2737,2.0303 -7.7302,0.6538 -10.3565,-2.6128 -18.0671,2.1598 -17.8172,11.0228 0.1209,4.3004 0.016,4.4271 -3.9809,4.6482 -4.6802,0.259 -7.4139,3.215 -6.9201,7.479 0.4278,3.6587 -1.7742,3.4841 -2.9137,-0.231 z m 90.8519,13.6809 c 0.264,-1.4781 5.0894,-5.4815 6.4042,-5.3094 2.0108,0.2632 1.2391,1.8984 -1.9855,4.2199 -3.0676,2.2091 -4.6871,2.6082 -4.4187,1.0895 z m -46.5997,-10.7832 c 0.5699,-3.8144 8.1465,-8.8584 7.6544,-5.0984 -0.2085,1.5934 -5.8329,7.386 -7.0207,7.2306 -0.5156,-0.068 -0.7976,-1.0265 -0.6337,-2.1322 z m -224.4773,-29.8281 c 0.094,-0.7168 1.4011,-2.8151 2.9077,-4.6627 l 2.7361,-3.3594 -3.1672,-2.478 c -1.7439,-1.3631 -5.3435,-5.9155 -7.9998,-10.1166 -5.1959,-6.0858 -4.5842,-9.536 -3.6071,-17.0012 0.9347,-7.1409 1.9508,-10.466 4.2809,-14.0132 3.4653,-5.2785 12.4161,-11.6287 15.7705,-11.1897 1.8998,0.2487 2.2001,-0.2733 1.9854,-3.4486 -0.4105,-6.0951 4.643,-12.6815 10.876,-14.171 6.5559,-1.5674 9.1072,-1.3804 13.1742,0.965 4.5192,2.6043 5.8239,6.6061 4.2387,13.0155 -1.2052,4.8698 -1.0901,5.3621 1.5834,6.7962 4.5932,2.4634 7.2963,6.5685 8.9131,13.5405 1.8039,7.7699 1.6483,9.4671 -1.226,13.5741 -1.6946,2.4221 -2.0297,3.9651 -1.4571,6.7172 2.028,9.741 -2.2509,17.198 -12.5061,21.8246 -5.1425,2.3197 -7.1551,2.5317 -15.832,1.6657 -8.8961,-0.8878 -10.3014,-0.7223 -13.438,1.5819 -3.6064,2.6503 -7.5342,3.0631 -7.2327,0.7597 z m 32.4932,-9.7357 c 7.7212,-2.5652 11.8238,-6.7787 12.6357,-12.9823 0.3666,-2.8008 0.4385,-5.1222 0.1549,-5.1593 -0.2935,-0.038 -2.3535,0.7061 -4.6082,1.6507 -6.2372,2.6159 -24.7422,5.0467 -31.5888,4.1506 -3.3514,-0.4387 -7.2556,-0.6129 -7.3257,-0.078 -0.2433,1.859 3.034,5.8657 4.328,6.6129 0.2142,-3.078 4.4037,-3.3073 4.3313,2.6365 3.3196,4.6024 13.0084,6.1795 22.0728,3.1686 z m -16.0886,-2.6384 c -0.9336,-3.8783 -0.1075,-5.42 2.515,-4.6907 1.8577,0.5167 2.4389,1.4771 2.1651,3.569 -0.4333,3.3111 -3.9525,4.1539 -4.6801,1.1217 z m -19.4156,-21.2253 c 0.4711,-2.8291 0.4215,-5.5014 -0.1023,-5.9374 -1.0864,-0.8846 -2.2849,6.1221 -1.5623,9.1233 0.2507,1.0515 0.5311,1.9217 0.6224,1.9336 0.099,0.013 0.5661,-2.2911 1.0422,-5.1195 z m 7.0612,4.2574 c -0.445,-1.1158 -0.4327,-2.9585 0.031,-4.0945 0.5594,-1.3844 0.2106,-2.1481 -1.0219,-2.3094 -1.3604,-0.1781 -2.0053,0.8421 -2.3905,3.7855 -0.4312,3.2946 -0.097,4.0858 1.8315,4.3382 1.8512,0.2423 2.1852,-0.129 1.5503,-1.7198 z m 16.6823,1.6239 6.029,-0.3391 -1.2835,-4.2177 c -1.5987,-5.2539 -3.0599,-5.6095 -3.2967,-0.8028 -0.2295,4.6203 -2.8344,5.3434 -4.1232,1.1434 -1.2971,-4.2376 -2.7928,-4.1752 -3.3576,0.1399 -0.3597,2.7486 -0.902,3.3936 -2.4296,2.8903 -1.079,-0.3559 -1.9783,-1.8298 -1.995,-3.2744 -0.045,-4.1621 -2.1176,-3.3229 -2.6957,1.0936 -0.5849,4.4691 -1.6379,4.1997 13.1523,3.3668 z m 12.1548,-1.6179 c 1.3154,-0.6112 1.3509,-1.6224 0.177,-5.2283 -1.6007,-4.9146 -3.8096,-6.3234 -3.2478,-2.0707 0.1953,1.4747 0.2104,3.848 0.033,5.2738 -0.3602,2.7522 0.4015,3.2511 3.0379,2.0252 z m 10.1481,-3.2002 c 1.9934,-0.8515 3.4681,-2.2019 3.2772,-3.0009 -0.1939,-0.7994 -0.4543,-3.3483 -0.5827,-5.6651 -0.1285,-2.3167 -0.6072,-4.261 -1.0643,-4.3209 -1.9841,-0.2596 -2.3078,1.3737 -1.041,5.2643 0.9901,3.0383 0.9684,4.4677 -0.079,5.2719 -2.0003,1.5362 -3.6236,-0.1164 -4.1456,-4.2183 -0.3262,-2.555 -0.8965,-3.2679 -2.1626,-2.6948 -1.4439,0.6525 -1.4724,1.2554 -0.1871,3.7103 0.841,1.6114 1.4081,3.8509 1.2608,4.9764 -0.3324,2.5399 0.1922,2.6153 4.7311,0.6777 z m -18.5516,-6.929 c 2.6906,-0.8466 7.8653,-2.9501 11.5058,-4.6736 7.7539,-3.6705 8.4912,-6.3139 3.0888,-11.0706 -2.9253,-2.5766 -4.0277,-2.9302 -7.1226,-2.2855 -4.0881,0.8514 -14.3282,-1.3557 -16.3381,-3.5216 -0.9775,-1.0538 -3.1401,0.1274 -8.6832,4.7366 -8.9947,7.4792 -10.6707,10.8529 -7.1936,14.4614 2.0638,2.1394 3.8966,2.6689 11.1657,3.2268 5.1332,0.394 10.6937,0.036 13.5772,-0.8735 z m 8.2379,-24.6671 c 3.7799,-1.9718 4.7577,-8.6335 1.5926,-10.8964 -2.7323,-1.956 -10.7665,-1.8151 -13.4352,0.2354 -2.6643,2.0477 -3.2247,7.7778 -0.917,9.5491 2.8028,2.1639 9.6164,2.758 12.7665,1.1128 z m 173.7878,87.8029 c 0.1657,-1.2663 0.8199,-2.2346 1.4535,-2.1517 0.6326,0.083 1.0126,1.1865 0.8468,2.4528 -0.1657,1.2665 -0.8169,2.2352 -1.4495,2.1524 -0.6336,-0.083 -1.0166,-1.187 -0.8508,-2.4535 z m 58.7448,7.7665 c -1.1735,-3.1083 -0.2228,-10.1637 1.7596,-12.9041 0.8525,-1.1889 3.7446,-2.8195 6.4286,-3.6232 4.6498,-1.3908 4.9333,-1.7302 5.9276,-7.0693 1.9123,-10.273 8.4133,-17.0842 16.8564,-17.6523 2.9101,-0.196 4.0496,0.4288 6.1291,3.3576 1.957,2.7549 2.9114,3.3229 4.081,2.4236 3.4435,-2.6461 10.1413,1.0356 9.5871,5.2699 -0.2757,2.1066 -4.2098,3.1765 -4.5816,1.2471 -0.3889,-1.998 -4.0901,-2.2537 -6.0659,-0.4191 -2.4287,2.2516 -3.364,1.738 -4.2091,-2.3075 -0.5428,-2.6185 -1.4864,-3.7074 -3.4308,-3.9619 -6.4094,-0.8389 -13.4826,7.1932 -14.7964,16.7992 -0.6685,5.1075 -0.7825,5.2084 -7.125,7.2643 l -6.4132,2.0882 -0.7914,6.0461 c -0.8327,6.3626 -1.8423,7.403 -3.3391,3.4436 z m 16.4116,-0.083 c 0.2033,-2.0927 16.8613,-18.1982 17.1747,-16.6088 0.1414,0.6917 -1.4879,3.1692 -3.6063,5.5076 -5.7067,6.2987 -13.7471,12.8749 -13.5684,11.1012 z m -47.6437,-12.1148 c 0.071,-0.5444 4.448,-5.936 9.7311,-11.9804 9.249,-10.5857 14.9904,-15.8549 14.678,-13.4682 -0.2006,1.5325 -14.0429,18.7333 -18.6547,23.1777 -3.5182,3.3936 -6.0311,4.385 -5.7544,2.2709 z m 36.1514,-16.4332 c -1.4306,-3.7796 -0.4031,-7.7772 2.5167,-9.7969 2.6426,-1.8278 2.7178,-1.8171 4.0252,0.5692 1.8509,3.3809 0.9842,8.2305 -1.8226,10.1723 -3.011,2.0851 -3.6233,1.9628 -4.7193,-0.9446 z m 5.259,-4.7273 c 0.2023,-1.5456 -0.1478,-2.8777 -0.7804,-2.9605 -0.6336,-0.083 -1.3596,1.434 -1.6131,3.371 -0.2689,2.0546 0.058,3.2882 0.7843,2.9609 0.6839,-0.3085 1.4069,-1.8258 1.6092,-3.3714 z m 12.4322,-14.4635 c 0.3834,-2.9296 2.6625,-5.1551 4.9698,-4.8531 1.88,0.246 1.3293,5.0852 -0.7748,6.6903 -2.5096,1.9296 -4.5856,1.0234 -4.2109,-1.8393 z m -59.0648,-19.6774 c -0.2384,-0.9987 0.06,-3.0675 0.6721,-4.596 0.8034,-2.0308 1.8677,-2.6805 3.9559,-2.4071 2.3598,0.3088 2.7824,0.9329 2.4337,3.5973 -0.6675,5.1 -6.0185,7.6869 -7.0518,3.4071 z m 4.6509,-2.9708 c 0.2486,-1.8997 -1.5269,-2.4585 -2.812,-0.8845 -1.1359,1.3966 -0.044,3.7323 1.4373,3.0657 0.6386,-0.287 1.2552,-1.2688 1.3747,-2.1812 z" fill="#00B894" transform="translate(250.88523,167.62086) translate(-1727.6856,-2629.3236)"/>
</svg>