<?xml version="1.0" ?><svg height="138.97647mm" viewBox="0 0 56.82383 138.97647" width="56.82383mm" xmlns="http://www.w3.org/2000/svg">
    <path d="m 12402.934,25782.439 c 22.758,-69.66 48.765,-82.772 99.575,-82.772 50.81,0 83.757,45.131 80.448,91.334 -3.308,46.202 -19.465,103.77 -103.867,98.956 -71.993,-4.106 -77.877,-86.56 -76.156,-107.518 z" fill="#FFFFFF" transform="translate(-115.21903,4.4763116) matrix(0.26458333,0,0,0.26458333,-3164.9234,-6734.3616)"/>
    <path d="m 12406.009,25956.725 c -5.83,-10.891 -7.747,-34.18 -8.443,-102.528 -0.965,-94.982 1.097,-104.086 29.835,-131.642 25.939,-24.868 43.702,-31.756 73.695,-28.57 55.359,5.88 82.992,29.807 96.203,83.304 7.097,28.736 14.891,100.55 14.857,136.875 -0.04,34.948 -2.106,45.377 -9.011,45.377 -2.66,0 -3.52,-5.236 -4.424,-26.931 -1.048,-25.189 -1.24,-26.098 -2.962,-14.061 -1.011,7.078 -2.692,13.396 -3.738,14.041 -2.167,1.34 -6.614,-17.423 -7.07,-29.826 -0.168,-4.578 -1.074,-0.978 -2.019,8.025 -0.943,8.984 -3.035,17.924 -4.65,19.869 -2.637,3.178 -3.326,3.053 -6.803,-1.241 l -3.868,-4.777 -0.715,6.212 c -0.433,3.761 -2.263,6.503 -4.643,6.955 -3.597,0.681 -3.928,-2.035 -3.928,-32.153 v -32.899 l -11.289,8.288 c -17.167,12.601 -31.777,17.521 -51.55,17.358 -9.345,-0.09 -18.197,0.983 -19.902,2.381 -2.381,1.953 -4.148,1.236 -7.856,-3.186 -2.631,-3.139 -9.845,-7.749 -16.029,-10.247 l -11.245,-4.54 0.822,24.043 c 0.556,16.249 -0.08,25.722 -1.951,29.224 l -2.772,5.181 -3.292,-6.283 c -2.335,-4.455 -3.324,-14.04 -3.4,-32.953 -0.08,-19.607 -0.953,-27.704 -3.301,-30.58 -2.78,-3.406 -3.047,1.21 -2.05,35.677 0.629,21.776 0.537,40.198 -0.204,40.939 -2.727,2.727 -7.449,-3.933 -8.806,-12.42 -0.77,-4.806 -2.419,-9.367 -3.667,-10.138 -1.504,-0.931 -1.732,4.745 -0.673,16.882 1.581,18.107 -0.314,23.381 -5.151,14.344 z m 165.333,-87.514 c -0.573,-11.001 -1.053,-12.244 -3.253,-8.416 -1.944,3.381 -1.944,9.746 0,25.809 2.495,20.613 2.602,20.893 3.253,8.415 0.369,-7.097 0.369,-18.711 0,-25.808 z m -159.11,-15.038 c -1.214,-1.276 -1.9,6.376 -1.706,19.077 l 0.323,21.209 1.705,-19.078 c 0.977,-10.918 0.84,-19.987 -0.322,-21.208 z m 111.317,19.985 c 16.68,-7.891 32.709,-22.976 40.88,-38.471 10.778,-20.439 11.124,-25.311 2.379,-33.609 -11.486,-10.902 -20.659,-14.383 -44.038,-16.709 -26.488,-2.636 -35.385,-5.347 -42.574,-12.964 -3.979,-4.218 -5.84,-5.02 -6.605,-2.847 -1.935,5.477 -14.761,18.699 -30.564,31.502 -29.692,24.054 -27.039,20.578 -23.031,30.171 5.382,12.884 19.018,28.14 31.603,35.357 12.817,7.351 17.418,8.035 21.445,3.183 1.536,-1.851 4.689,-3.366 7.006,-3.366 4.187,0 5.098,2.008 4.332,9.538 -0.665,6.541 23.936,5.421 39.167,-1.785 z m -92.025,-39.174 c -2.225,-3.599 0.61,-6.295 11.833,-11.26 12.886,-5.7 24.075,-5.25 24.075,0.967 0,7.19 -32.134,16.4 -35.908,10.293 z m 78.219,-8.825 c -6.372,-2.75 -8.789,-6.959 -5.254,-9.145 4.284,-2.647 34.839,-5.058 42.574,-3.36 7.263,1.596 9.5,8.583 3.487,10.891 -6.473,2.485 -36.081,3.656 -40.807,1.614 z m -62.001,-52.374 c 13.049,-9.374 22.634,-28.788 24.962,-50.569 0.949,-8.885 1.284,-16.155 0.743,-16.155 -3.696,0 -25.82,15.038 -34.633,23.54 -16.017,15.453 -22.424,29.703 -23.689,52.689 l -1.048,18.998 11.965,-10.756 c 6.58,-5.916 16.345,-13.902 21.7,-17.747 z m 125.529,-22.808 c -7.127,-15.569 -19.883,-29.464 -33.282,-36.254 -12.537,-6.352 -33.366,-12.15 -43.655,-12.15 -6.559,0 -7.308,0.734 -8.588,8.417 -2.173,13.063 -3.364,42.043 -1.951,47.453 1.891,7.225 7.213,9.118 35.509,12.629 26.91,3.337 42.718,9.169 51.609,19.036 l 4.489,4.981 0.662,-16.098 c 0.543,-13.208 -0.317,-18.239 -4.793,-28.014 z m -112.939,-101.293 c -0.84,-2.188 1.397,-6.346 5.933,-11.027 7.524,-7.761 7.49,-12.39 -0.08,-12.39 -7.604,0 -4.694,-3.929 4.061,-5.48 13.114,-2.325 15.759,-3.415 17.163,-7.074 1.091,-2.844 -0.803,-3.292 -11.499,-2.719 -10.438,0.558 -12.946,0 -13.564,-3.01 -1.032,-5.041 17.192,-11.853 31.953,-11.944 9.712,-0.07 11.387,0.575 11.954,4.543 0.363,2.537 -1.404,6.48 -3.927,8.762 -6.196,5.607 -5.79,7.324 2.144,9.068 3.703,0.814 6.733,2.814 6.733,4.447 0,3.66 -11.576,7.896 -21.575,7.896 -4.789,0 -8.193,1.401 -9.547,3.927 -1.929,3.601 -0.488,3.928 17.269,3.928 17.364,0 19.461,0.45 20.224,4.34 1.553,7.932 -5.578,10.247 -31.557,10.247 -20.01,0 -24.568,-0.623 -25.677,-3.514 z m 94.304,-47.233 c -26.691,-13.048 -28.289,-17.372 -10.525,-28.498 5.141,-3.22 9.971,-6.861 10.731,-8.091 0.761,-1.23 2.774,-1.704 4.474,-1.052 2.857,1.097 16.963,-4.715 16.963,-6.989 0,-0.55 -4.977,-3.143 -11.062,-5.76 -17.32,-7.452 -23.603,-17.808 -10.802,-17.808 8.715,0 42.188,11.345 46.655,15.813 8.476,8.475 5.482,12.825 -12.981,18.847 -14.124,4.607 -15.607,6.392 -8.485,10.202 5.792,3.099 8.707,8.118 6.65,11.446 -2.415,3.908 -12.966,2.006 -20.42,-3.681 -5.336,-4.068 -8.541,-5.142 -11.091,-3.717 -2.801,1.569 -0.852,3.12 8.892,7.073 14.841,6.024 24.383,14.119 22.483,19.073 -2.118,5.514 -9.434,3.92 -31.482,-6.858 z m -94.611,-79.869 c -5.86,-5.862 -2.765,-12.802 12.012,-26.932 14.664,-14.022 14.69,-14.066 8.866,-16.007 -9.035,-3.011 -5.351,-7.036 7.112,-7.774 9.647,-0.571 12.442,-1.885 19.58,-9.194 l 8.326,-8.528 -25.325,-1.539 c -13.93,-0.844 -26.161,-2.371 -27.182,-3.392 -5.671,-5.671 36.172,-14.929 59.762,-13.222 10.514,0.761 14.264,2.063 17.529,6.098 5.824,7.191 5.27,10.119 -3.816,20.177 l -7.972,8.823 6.289,0.72 c 3.457,0.398 6.14,1.732 5.962,2.967 -0.321,2.222 -12.099,6.673 -23.565,8.908 -3.265,0.639 -10.779,5.543 -16.699,10.901 l -10.76,9.742 30.285,-1.026 c 26.073,-0.884 30.803,-0.512 33.995,2.681 8.915,8.916 -0.96,13.668 -35.202,16.945 -32.765,3.134 -55.848,2.999 -59.197,-0.348 z" fill="#00B894" transform="translate(-115.21903,4.4763116) matrix(0.26458333,0,0,0.26458333,-3164.9234,-6734.3616)"/>
</svg>