<?xml version="1.0" ?><svg height="123.47877mm" viewBox="0 0 55.20068 123.47877" width="55.20068mm" xmlns="http://www.w3.org/2000/svg">
    <path d="m 11828.419,25820.178 c 22.758,-69.66 48.765,-82.772 99.575,-82.772 50.81,0 83.757,45.131 80.448,91.334 -3.308,46.202 -19.465,103.77 -103.867,98.956 -71.993,-4.106 -77.877,-86.56 -76.156,-107.518 z" fill="#FFFFFF" transform="translate(-99.399706,-23.683197) matrix(0.26458333,0,0,0.26458333,-3027.7797,-6717.1106)"/>
    <path d="m 11887.56,25934.498 c 0.897,-3.267 -6.305,-4.114 -12.807,-6.437 -15.262,-5.454 -37.729,-27.362 -45.526,-44.392 -13.16,-28.743 -13.297,-65.636 -0.351,-93.69 33.639,-68.3 113.444,-71.781 154.77,-35.399 18.342,12.926 33.014,43.945 33.014,69.799 0,45.989 -25.171,89.265 -64.331,107.24 -23.851,10.947 -49.655,8.187 -49.655,8.187 -4.065,7.143 -17.658,3.954 -15.114,-5.308 z m 59.043,-20.139 c 19.701,-9.819 33.14,-23.811 43.575,-45.375 24.073,-44.983 -1.221,-106.774 -49.499,-122.025 -38.933,-10.158 -79.744,12.036 -97.113,48.069 -6.729,22.254 -9.595,58.266 -0.417,78.516 6.295,13.633 23.476,30.738 37.427,37.269 l 10.918,5.111 3.237,-4.621 c 5.866,-8.375 16.359,-3.873 12.772,5.478 -1.065,2.776 1.229,3.366 13.096,3.366 10.965,0 17.147,-1.377 26.004,-5.788 z m -93.776,-40.343 c 0,-4.601 22.772,-14.982 30.831,-14.054 4.364,0.5 6.2,1.984 6.2,5.008 0,3.131 -3.04,5.362 -11.22,8.241 -14.617,5.142 -25.811,5.49 -25.811,0.805 z m 79.341,-7.717 c -12.879,-5.196 -6.904,-9.927 15.479,-12.259 20.191,-2.103 29.098,-0.134 28.184,6.25 -0.527,3.67 -2.821,5.188 -9.666,6.397 -12.206,2.152 -28.151,1.972 -33.997,-0.388 z m -46.774,-173.394 c -5.087,-2.846 -4.13,-6.857 3.343,-14.017 8.19,-7.848 8.362,-9.604 1.121,-11.422 -8.96,-2.249 -6.527,-5.134 5.692,-6.755 7.528,-0.998 12.03,-2.858 13.48,-5.564 1.992,-3.725 1.099,-4.03 -10.664,-3.629 -10.227,0.35 -12.991,-0.297 -13.583,-3.173 -0.817,-3.973 5.278,-7.006 22.422,-11.158 18.817,-4.559 28.574,2.449 17.439,12.526 -5.039,4.56 -5.941,9.653 -1.683,9.495 7.529,-0.279 10.661,0.904 10.661,4.026 0,4.342 -8.979,7.798 -20.267,7.798 -6.036,0 -9.404,1.219 -10.856,3.929 -1.929,3.599 -0.487,3.927 17.313,3.927 18.253,0 19.463,0.294 20.118,4.898 0.422,2.968 -0.904,5.738 -3.366,7.033 -5.374,2.822 -46.834,4.514 -51.17,2.086 z m 92.304,-49.722 c -21.029,-10.05 -26.152,-14.956 -21.487,-20.579 4.286,-5.165 22.146,-16.655 25.887,-16.655 1.851,0 6.559,-1.653 10.464,-3.671 l 7.098,-3.67 -11.137,-5.374 c -12.993,-6.268 -20.172,-12.738 -18.011,-16.234 2.322,-3.759 8.912,-3.019 29.748,3.334 33.562,10.238 36.724,21.392 8.545,30.149 -12.896,4.005 -12.896,4.012 -5.186,10.901 12.684,11.333 -1.219,16.558 -15.359,5.772 -5.706,-4.351 -8.447,-5.194 -11.434,-3.516 -3.653,2.05 -3.612,2.313 0.558,3.72 20.652,6.97 34.984,17.709 31.393,23.521 -2.48,4.011 -10.98,1.906 -31.079,-7.698 z m -95.246,-80.323 c -5.477,-5.478 -2.485,-11.992 12.397,-26.989 8.297,-8.362 13.599,-15.22 11.782,-15.239 -1.819,-0.02 -4.822,-1.029 -6.674,-2.244 -5.25,-3.448 1.676,-6.934 10.549,-5.311 6.258,1.145 8.54,0.04 17.731,-8.652 l 10.549,-9.967 -26.456,-1.418 c -14.549,-0.779 -27,-1.963 -27.665,-2.629 -2.408,-2.407 7.699,-7.758 19.781,-10.475 6.789,-1.525 21.774,-2.833 33.299,-2.903 19.394,-0.118 21.276,0.266 25.248,5.169 5.959,7.354 5.449,10.24 -3.568,20.222 l -7.862,8.702 7.299,1.51 c 6.862,1.421 7.048,1.701 3.079,4.672 -2.323,1.739 -9.62,4.283 -16.217,5.653 -9.039,1.877 -14.634,4.891 -22.709,12.231 l -10.713,9.743 27.199,-1.228 c 33.032,-1.496 39.006,-0.367 39.006,7.355 0,7.283 -4.3,8.835 -33.194,11.978 -30.65,3.334 -59.428,3.252 -62.861,-0.18 z" fill="#00B894" transform="translate(-99.399706,-23.683197) matrix(0.26458333,0,0,0.26458333,-3027.7797,-6717.1106)"/>
</svg>