<?xml version="1.0" ?><svg height="121.42354mm" viewBox="0 0 114.70374 121.42354" width="114.70374mm" xmlns="http://www.w3.org/2000/svg">
    <path d="m 34161.952,28120.624 c -109.669,-1.466 -249.797,121.587 -181.13,263.159 14.472,41.222 44.56,69.666 80.643,88.293 l 3.078,65.986 c 0,0 77.797,29.012 120.512,28.192 42.715,-0.82 98.416,-25.422 98.416,-25.422 l -0.551,-56.318 c 54.741,-31.766 82.951,-78.269 91.219,-183.969 8.316,-106.304 -82.011,-167.606 -187.26,-180.318 -3.435,-0.312 -21.39,0.444 -24.927,0.397 z m 52.553,34.835 c 4.102,18.516 13.291,6.031 15.219,3.371 29.155,12.325 59.296,30.794 77.932,61.683 -5.812,-0.488 -14.606,8.018 -14.757,12.618 0,5.086 4.459,9.209 9.959,9.209 3.612,0 6.941,-1.809 8.699,-4.727 5.541,26.058 -30.857,47.705 -62.607,31.157 -0.413,-0.215 -0.723,-0.554 -1.086,-0.834 2.117,-2.545 3.287,-5.834 3.287,-9.241 0,-7.676 -5.815,-13.898 -12.988,-13.898 -6.015,0 -11.243,4.421 -12.635,10.683 -21.949,-7.584 -43.166,-1.807 -68.533,5.577 -12.533,6.383 -25.742,13.668 -36.592,28.22 -8.247,11.062 -14.096,20.272 -18.867,28.035 -1.157,-3.26 -4.078,-5.419 -7.338,-5.419 -4.335,0 -7.849,3.762 -7.849,8.402 0,4.64 3.514,8.402 7.849,8.402 -5.279,8.387 -12.632,17.183 -20.123,21.362 -18.089,9.797 -44.117,-1.473 -44.117,-1.473 0,0 5.483,-5.967 2.209,-14.586 -3.274,-8.618 -17.188,-3.242 -17.188,-3.242 0,0 -13.506,-13.333 -10.232,-46.703 3.274,-33.37 20.791,-62.394 44.773,-86.188 59.967,-59.232 146.118,-50.347 164.985,-42.408 z m -13.187,57.658 c -6.247,0.05 -11.283,5.238 -11.283,11.615 0,6.415 5.094,11.616 11.379,11.616 6.285,0 11.379,-5.201 11.379,-11.616 -1.532,-6.791 -6.031,-11.45 -11.475,-11.615 z m -74.123,8.377 c -7.792,0.06 -14.078,6.018 -14.078,13.354 0,7.374 6.351,13.353 14.184,13.353 7.833,0 14.183,-5.978 14.183,-13.353 -1.943,-8.168 -7.899,-13.174 -14.289,-13.354 z m -73.742,18.932 c -0.881,0 -1.82,0.111 -2.814,0.32 -12.466,2.614 -5.349,17.904 3.81,18.213 4.713,0 8.533,-4.254 8.533,-9.5 0,-4.59 -3.359,-9.097 -9.529,-9.033 z m 23.5,36.406 c -6.241,0 -11.3,4.673 -11.299,10.438 0,5.763 5.06,10.435 11.299,10.435 6.239,0 11.296,-4.672 11.297,-10.435 0,-5.764 -5.056,-10.438 -11.297,-10.438 z" fill="#FFFFFF" paint-order="markers stroke fill" transform="translate(303.79235,-110.88945) matrix(0.26458333,0,0,0.26458333,-8410.0699,-6681.9868) translate(-3313.5291,-2437.8203)"/>
    <path d="m 30783.6,26123.433 c -28.519,-7.3 -40.821,-19.742 -43.216,-43.024 -1.121,-10.172 -0.815,-21.878 0.678,-26.007 2.022,-5.604 -0.786,-9.873 -11.043,-16.783 -31.987,-21.55 -74.939,-85.265 -86.345,-128.091 -12.814,-48.108 -4.519,-89.395 27.072,-134.756 23.136,-33.217 42.555,-51.113 76.374,-70.391 47.492,-27.071 69.082,-32.302 124.092,-30.05 70.234,2.887 100.039,12.954 137.309,46.43 23.953,21.51 50.234,60.845 58.566,87.654 3.645,11.734 5.041,32.16 4.007,58.675 -1.343,34.172 -3.586,45.72 -14.098,72.246 -20.569,51.903 -32.405,71.319 -56.352,92.44 -19.636,17.32 -22.444,21.554 -20.486,30.89 7.905,37.72 4.882,49.845 -47.22,64.373 -44.405,12.382 -128.628,1.696 -149.338,-3.606 z m 116.953,-11.136 c 14.525,-1.676 32.633,-7.505 43.285,-9.694 18.998,-3.9 16.244,-9.437 16.854,-24.957 0.531,-13.52 -0.425,-15.426 -6.567,-13.098 -3.95,1.497 -19.132,5.773 -33.739,9.498 -35.532,9.065 -103.87,4.224 -139.007,-9.846 -13.065,-5.232 -24.353,-9.535 -25.086,-9.564 -1.404,-0.06 -1.507,14.52 0.07,26.461 0.995,7.529 7.31,12.618 11.684,15.012 35.346,19.352 106.894,19.143 132.502,16.188 z m 28.894,-62.36 c 48.434,-13.461 91.952,-53.552 113.353,-104.421 11.804,-28.059 14.736,-84.481 6.15,-118.351 -12.659,-49.942 -56.197,-102.162 -100.765,-120.863 -49.739,-20.869 -125.061,-25.799 -158.454,-10.371 -48.867,22.579 -88.8,60.002 -115.252,108.011 -21.588,39.169 -25.597,68.726 -14.911,109.91 12.722,49.029 26.154,69.508 62.572,95.393 60.978,43.349 141.136,59.084 207.307,40.692 z m -113.816,-37.986 c -8.227,-4.835 -18.471,-8.018 -22.763,-7.075 -4.819,1.061 -7.141,-0.07 -6.07,-2.952 2.256,-6.066 25.308,-7.4 34.164,-1.976 4.799,2.94 10.417,2.55 18.606,-1.284 13.364,-6.261 31.975,-4.652 34.142,2.949 0.803,2.814 -1.487,4.998 -5.094,4.857 -3.605,-0.142 -13.636,3.01 -22.292,7.004 -15.651,7.226 -15.815,7.218 -30.693,-1.523 z m 80.324,-6.001 c 2.074,-5.492 26.928,-4.898 28.091,0.675 0.469,2.241 -6.034,4 -14.45,3.907 -9.553,-0.101 -14.681,-1.827 -13.641,-4.582 z m -140.909,-10.008 c -3.468,-10.228 2.44,-18.105 13.263,-17.679 7.15,0.281 10.135,2.583 9.935,7.67 -0.569,14.494 -18.977,22.439 -23.198,10.009 z m 12.914,-5.56 c 1.46,-2.169 0.731,-4.018 -1.622,-4.111 -2.353,-0.09 -4.347,1.65 -4.435,3.873 -0.09,2.22 0.644,4.07 1.62,4.108 0.98,0.04 2.978,-1.704 4.437,-3.87 z m -37.374,-11.702 c -6.668,-6.074 -14.023,-9.973 -16.347,-8.66 -2.319,1.31 -4.142,0.459 -4.049,-1.89 0.318,-8.115 18.975,-3.515 28.022,6.912 12.576,14.484 7.134,17.08 -7.626,3.638 z m 62.394,1.093 c -1.63,-2.883 -1.83,-6.288 -0.446,-7.569 3.759,-3.474 7.489,1.996 5.307,7.776 -1.527,4.051 -2.478,4.01 -4.86,-0.221 z m 18.233,-3.438 c -2.322,-4.778 -7.247,-8.806 -10.945,-8.951 -4.83,-0.19 -5.442,-1.449 -2.169,-4.474 6.887,-6.366 23.304,-1.834 24.6,6.796 1.796,11.956 -6.559,16.778 -11.486,6.629 z m 134.334,6.593 c -3.383,-9.96 8.027,-26.254 17.158,-24.508 13.149,2.509 17.139,14.204 8.026,23.51 -9.308,9.509 -22.126,10.015 -25.184,0.998 z m 15.261,-11.26 c 0.131,-3.332 -1.58,-6.13 -3.799,-6.217 -2.22,-0.09 -4.145,2.568 -4.276,5.899 -0.131,3.332 1.58,6.129 3.8,6.216 2.219,0.09 4.144,-2.567 4.275,-5.898 z m -76.113,7.093 c -7.164,-3.291 -8.813,-7.311 -8.305,-20.248 0.731,-18.61 8.164,-24.218 30.907,-23.325 16.052,0.631 19.902,8.432 16.516,33.454 -1.683,12.456 -3.066,13.657 -16.012,13.928 -7.792,0.163 -18.189,-1.551 -23.106,-3.809 z m 23.933,-17.234 c 0.236,-6.02 -1.914,-10.184 -5.329,-10.319 -3.151,-0.123 -8.559,-1.442 -12.02,-2.928 -4.904,-2.105 -6.399,0.06 -6.783,9.845 -0.442,11.248 0.761,12.597 11.621,13.024 10.231,0.402 12.176,-1.095 12.511,-9.622 z m -181.216,-20.031 c 0.391,-9.941 7.673,-13.073 28.473,-12.256 12.404,0.487 16.122,-1.278 20.343,-9.657 4.646,-9.214 6.72,-9.925 20.516,-7.036 l 15.35,3.217 12.568,-31.097 c 6.916,-17.104 14.428,-33.302 16.697,-35.995 4.868,-5.768 23.207,-5.703 36.119,0.128 5.02,2.269 14.082,5.388 20.139,6.936 8.15,2.08 10.919,5.234 10.648,12.127 -0.325,8.281 13.606,27.45 20.136,27.707 1.374,0.05 3.271,-4.877 4.212,-10.955 1.491,-9.6 3.718,-11.144 16.908,-11.716 14.85,-0.641 15.18,-0.343 14.648,13.193 -0.499,12.706 0.621,14.084 13.543,16.704 19.14,3.883 26.088,12.662 26.197,33.105 0.127,22.917 -11.001,23.984 -13.775,1.325 -2.288,-18.701 -5.313,-22.246 -20.941,-24.574 -10.201,-1.52 -12.547,-4.15 -15.208,-17.087 -4.58,-22.258 -10.451,-18.969 -9.904,5.551 0.605,27.274 -5.909,28.641 -28.949,6.072 -9.467,-9.271 -21.084,-17.012 -25.815,-17.198 -11.171,-0.438 -18.004,-8.077 -17.551,-19.62 0.256,-6.503 -2.635,-10.09 -9.822,-12.198 -5.6,-1.639 -11.385,-1.872 -12.855,-0.504 -1.467,1.358 -8.053,16.334 -14.635,33.277 l -11.964,30.81 -17.031,0.584 c -13.736,0.47 -17.834,2.463 -21.168,10.292 -3.666,8.614 -6.557,9.612 -25.635,8.862 -11.826,-0.464 -23.77,1.252 -26.54,3.813 -3.915,3.619 -4.962,2.774 -4.704,-3.798 z m 166.587,-70.869 c 0.287,-7.303 -7.67,-6.282 -9.534,1.224 -1.037,4.176 0.402,6.083 3.844,5.085 3.028,-0.88 5.589,-3.718 5.69,-6.309 z m -43.95,63.454 c -2.735,-1.107 -4.676,-5.945 -4.314,-10.749 0.371,-4.804 1.491,-6.429 2.503,-3.611 2.882,8.04 9.21,6.28 9.561,-2.657 0.174,-4.44 2.133,-8.004 4.353,-7.917 5.794,0.228 4.266,18.646 -1.92,23.151 -2.862,2.088 -7.443,2.886 -10.183,1.783 z m -149.919,-21.309 c -7.481,-9.769 2.415,-27.033 14.261,-24.872 11.69,2.13 14.038,19.45 3.585,26.479 -9.502,6.392 -11.887,6.178 -17.846,-1.607 z m 14.441,-9.143 c 3.175,-4.716 -4.233,-9.804 -9.743,-6.689 -4.624,2.615 -1.944,9.995 3.711,10.217 1.958,0.08 4.673,-1.512 6.032,-3.528 z m 297.968,21.263 c -1.199,-3.532 -0.04,-8.401 2.575,-10.818 3.542,-3.274 4.709,-2.384 4.571,3.485 -0.177,7.409 0.16,7.472 5.462,1.025 6.623,-8.048 14.938,-8.755 14.643,-1.246 -0.529,13.476 -23.116,19.737 -27.251,7.554 z m -239.831,-33.918 c -4.985,-5.396 -2.568,-10.621 3.677,-7.941 4.256,1.831 5.85,0.473 5.228,-4.417 -0.518,-4.079 1.655,-6.947 5.16,-6.81 9.829,0.386 7.007,20.251 -3.024,21.287 -4.56,0.471 -9.529,-0.487 -11.041,-2.119 z m -63.742,-26.858 c -5.06,-5.471 -2.379,-9.613 6.01,-9.284 4.698,0.185 7.626,2.42 6.627,5.062 -2.199,5.822 -9.043,8.111 -12.637,4.222 z m 44.499,-2.382 c -1.422,-1.537 -2.476,-5.582 -2.342,-8.989 0.189,-4.816 1.276,-5.073 4.898,-1.155 7.125,7.709 11.919,6.25 9.413,-2.866 -2.711,-9.88 9.443,-11.277 12.771,-1.469 4.012,11.819 -16.242,23.673 -24.74,14.479 z m 248.573,7.608 c -6.652,-7.195 -5.118,-22.353 2.523,-24.948 11.349,-3.85 21.043,-1.829 23.313,4.859 3.294,9.71 2.57,12.732 -4.663,19.419 -7.885,7.289 -14.85,7.511 -21.173,0.67 z m -317.815,-21.812 c -2.495,-11.916 2.27,-35.571 9.594,-47.617 9.458,-15.554 33.185,-41.651 41.576,-45.725 13.591,-6.601 13.332,-0.555 -0.68,15.768 -17.142,19.984 -39.429,62.896 -39.989,77.001 -0.546,13.886 -7.631,14.272 -10.503,0.573 z m 277.105,7.974 c 0.244,-6.21 8.423,-14.931 13.8,-14.72 1.934,0.08 2.772,4.186 1.867,9.131 -1.776,9.713 -16.029,14.795 -15.667,5.589 z m -160.046,-24.583 c 0.904,-3.859 4.315,-6.91 7.586,-6.781 3.27,0.128 6.435,3.437 7.03,7.356 0.761,4.995 -1.501,7.019 -7.586,6.78 -6.081,-0.239 -8.18,-2.434 -7.03,-7.355 z m 108.905,-1.788 c -5.229,-15.952 3.004,-27.006 19.707,-26.465 13.366,0.435 18.961,14.901 10.403,26.908 -8.948,12.549 -25.937,12.3 -30.11,-0.443 z m 21.603,-4.573 c 3.343,-7.783 0.3,-13.78 -7.118,-14.071 -3.067,-0.12 -6.667,1.393 -7.995,3.365 -3.587,5.325 1.235,16.592 7.201,16.826 2.857,0.113 6.417,-2.64 7.912,-6.12 z m -196.954,0.183 c -5.09,-5.508 -2.407,-13.499 3.658,-10.896 3.282,1.409 6.044,0.55 6.141,-1.908 0.1,-2.459 2.12,-4.394 4.495,-4.301 6.72,0.264 1.815,18.04 -5.275,19.102 -3.464,0.522 -7.525,-0.376 -9.019,-1.997 z m 108.177,-11.681 c -1.52,-4.481 0.411,-8.933 5.33,-12.237 8.999,-6.053 15.504,-1.164 12.959,9.732 -2.272,9.723 -15.239,11.498 -18.289,2.505 z m -44.865,-4.307 c -2.561,-2.77 -4.53,-8.205 -4.378,-12.075 0.287,-7.308 15.087,-19.051 23.591,-18.717 6.563,0.257 17.112,12.067 16.845,18.861 -0.572,14.572 -25.877,22.945 -36.058,11.931 z m 22.144,-10.906 c 3.238,-4.808 -5.543,-12.569 -10.832,-9.58 -1.815,1.026 -3.404,4.482 -3.529,7.685 -0.269,6.851 10.101,8.219 14.361,1.895 z m 60.897,4.191 c -4.574,-4.945 -2.564,-8.54 5.802,-10.38 4.485,-0.988 8.245,-3.995 8.35,-6.682 0.114,-2.902 -3.126,-4.157 -7.966,-3.094 -9.192,2.024 -10.42,-1.613 -2.9,-8.566 7.313,-6.759 14.704,-5.378 19.043,3.552 2.907,5.99 1.77,10.18 -4.902,18.007 -8.905,10.45 -12.878,12.083 -17.427,7.163 z m 98.955,3.032 c -2.897,-2.001 -4.484,-7.95 -3.524,-13.221 1.367,-7.536 4.566,-9.747 14.942,-10.337 16.189,-0.919 21.136,8.821 10.173,20.02 -8.129,8.301 -13.431,9.171 -21.591,3.538 z m 11.952,-12.155 c 0.09,-2.223 -2.566,-4.148 -5.897,-4.279 -3.334,-0.131 -6.13,1.58 -6.217,3.803 -0.09,2.219 2.566,4.145 5.899,4.276 3.332,0.131 6.128,-1.581 6.215,-3.8 z m -198.979,-27.828 c -3.885,-6.882 6.763,-17.611 11.929,-12.02 2.843,3.075 2.06,6.266 -2.596,10.569 -4.732,4.373 -7.441,4.795 -9.333,1.451 z m 56.535,-6.783 c -2.669,-9.729 8.368,-20.339 18.616,-17.896 9.789,2.337 14.318,14.346 8.044,21.328 -8.257,9.192 -23.738,7.198 -26.66,-3.432 z m 80.5,-2.612 c -2.493,-7.351 9.998,-18.845 16.052,-14.769 6.007,4.047 3.111,13.519 -5.396,17.652 -6.654,3.231 -8.774,2.66 -10.656,-2.883 z m -153.902,-27.88 c 0.212,-5.385 3.011,-7.972 8.397,-7.76 5.383,0.211 7.97,3.009 7.758,8.395 -0.212,5.384 -3.009,7.971 -8.393,7.759 -5.386,-0.211 -7.973,-3.01 -7.762,-8.394 z m 123.767,-1.785 c -2.88,-8.487 1.529,-13.056 5.618,-5.819 2.218,3.928 3.874,2.855 6.062,-3.923 2.786,-8.612 3.319,-8.754 7.024,-1.879 2.898,5.39 2.6,9.012 -1.075,13.106 -6.755,7.515 -14.806,6.837 -17.629,-1.485 z m -61.929,-8.223 c 0.89,-2.355 3.344,-4.215 5.452,-4.132 2.112,0.08 4.413,2.13 5.115,4.547 0.703,2.418 -1.752,4.279 -5.456,4.133 -3.7,-0.145 -6.001,-2.192 -5.111,-4.548 z" fill="#00B894" transform="translate(303.79235,-110.88945) matrix(0.26458333,0,0,0.26458333,-8410.0699,-6681.9868)"/>
</svg>