<?xml version="1.0" ?><svg height="234.96838mm" viewBox="0 0 202.49998 234.96838" width="202.49998mm" xmlns="http://www.w3.org/2000/svg">
    <path d="m -1338.6834,-146.03452 c -5.1509,-0.0628 -10.3418,3.15508 -13.9707,12.33399 0,0 -0.2034,17.74314 7.0176,18.61914 7.2211,0.87601 10.5927,-3.60597 14.8711,-11.30664 4.2783,-7.70066 0.951,-17.88535 -5.0703,-19.29102 -0.9409,-0.21963 -1.8938,-0.34384 -2.8477,-0.35547 z m 237.0723,28.24805 c -11.3467,-0.0201 -26.1402,12.359 -29.6856,19.560537 -3.1692,9.96197 9.4172,25.097938 18.4492,28.072258 9.032,2.97433 18.6289,-7.801828 22.545,-15.583978 3.9161,-7.78214 4.8001,-26.748587 -6.6993,-31.230457 -1.4374,-0.56023 -2.9884,-0.81549 -4.6093,-0.81836 z m -370.793,38.189437 c -11.74,0.0386 -23.0646,7.464258 -29.9453,31.304688 0,0 14.3359,34.094331 30.75,33.052741 16.4141,-1.0416 26.7639,-11.10179 25.625,-29.208991 -1.1388,-18.10719 -9.7754,-33.396208 -22.7774,-34.933588 -1.2189,-0.14413 -2.4378,-0.21883 -3.6523,-0.21485 z m 261.2461,118.279299 c -4.2515,0.15629 -8.5096,2.89834 -7.8399,9.5293 1.2606,12.48179 8.2852,9.55859 8.2852,9.55859 6.4781,-2.5779 8.1515,-7.97215 7.4023,-14.35742 -0.3511,-2.99309 -4.0963,-4.86837 -7.8476,-4.73047 z m -69.4317,0.19531 c -6.3869,0.11143 -17.8354,4.06987 -22.0371,11.16407 -9.034,16.33992 17.8038,14.55619 23.0039,9.40039 5.2001,-5.1558 6.83,-18.64017 1.9825,-20.22657 -0.7575,-0.24787 -1.7665,-0.35852 -2.9493,-0.33789 z m -229.3593,64.537104 c -3.9766,0.0602 -6.4077,1.93355 -8.0215,9.21289 -3.5776,15.29866 14.1113,9.40018 15.4668,4.14064 1.3555,-5.25954 -0.5782,-12.83935 -5.6446,-13.27931 -0.6333,-0.055 -1.2327,-0.0828 -1.8007,-0.0742 z m 84.0644,19.46486 c -15.1783,0.13806 -21.5548,10.62326 -25.7812,23.37891 -1.1898,10.6289 11.2427,33.70052 23.7519,29.22852 12.5093,-4.472 24.5021,-18.87763 24.1055,-26.61133 -0.3967,-7.7337 -4.3188,-25.42328 -20.5801,-25.97853 -0.5081,-0.0173 -1.0065,-0.022 -1.4961,-0.0176 z m 324.3242,8.89063 c -12.992,0.44445 -21.4432,14.53774 -25.1152,26.55664 -2.1278,13.46597 5.2751,19.39473 17.5215,21.33008 12.2464,1.93534 19.3776,-5.76619 24.584,-16.11523 5.2064,-10.34904 2.5578,-28.64373 -12.8125,-31.45508 -1.441,-0.26357 -2.8338,-0.36239 -4.1778,-0.31641 z m 188.93362,38.29688 c -10.01303,-0.0893 -15.78557,6.24791 -19.1582,23.1914 0,0 5.15721,21.17865 16.70313,22.80464 11.54592,1.6261 15.46702,-14.43756 16.08398,-24.15425 0.61696,-9.7167 -2.02794,-21.29693 -12.64844,-21.8125 -0.33189,-0.0161 -0.65746,-0.0264 -0.98047,-0.0293 z m -144.25582,69.54494 c -4.1463,0.1726 -9.1843,4.0583 -8.3946,10.2969 -0.8557,3.8026 3.6643,9.8684 9.2266,6.9804 5.5623,-2.888 6.0702,-8.0637 3.9844,-14.2969 -0.717,-2.1426 -2.6446,-3.0708 -4.8164,-2.9804 z m -208.2188,46.0078 c -8.7113,0.082 -19.8562,8.5272 -21.8242,17.3496 -4.2557,17.3978 3.6446,23.4287 13.6953,27.2383 10.0506,3.8095 18.4263,-8.3335 20.7578,-18.2344 2.3316,-9.9008 1.4485,-19.8021 -7.1308,-24.9766 -1.6086,-0.9702 -3.4878,-1.3957 -5.4981,-1.3769 z m 172.9981,83.0293 c -8.6688,-0.1176 -22.1381,11.9287 -32.2422,23.6816 0,0 -5.598,13.5241 2.9512,19.711 8.5493,6.187 17.5401,4.442 27.9843,-7.2578 10.4442,-11.6997 12.207,-32.6416 3.834,-35.6954 -0.785,-0.2863 -1.6306,-0.4273 -2.5273,-0.4394 z m -359.9278,69.2695 c -1.1856,0.045 -2.2966,0.3189 -3.3046,0.8692 -8.0646,4.4022 -12.7805,18.9171 -5.377,36.2089 0,0 14.9392,16.1431 28.6445,11.1856 13.7053,-4.9575 11.1491,-25.6609 5.3321,-32.0859 -5.09,-5.6218 -16.9955,-16.4961 -25.295,-16.1778 z m 368.5664,102.3516 c -40.9291,-1.4782 -70.0293,17.7773 -70.0293,17.7773 -7.6481,-22.4709 -77.8828,-18.5283 -116.7812,7.1953 0,0 -64.8132,5.1553 -65.2578,7.5118 0,0 -165.796,-10.4148 -214.9277,60.6054 -20.6772,24.7547 46.0964,48.8281 112.1113,49.6817 66.015,0.8536 101.2989,41.6551 137.5312,48.9961 36.2323,7.3411 346.95879,15.7059 378.82814,-20.3164 31.86932,-36.0223 81.94882,-18.9494 123.11329,-65.2149 41.16447,-46.2656 -56.33889,-66.5816 -94.84766,-74.6055 -38.50878,-8.0239 -59.75588,1.877 -59.75588,1.877 0,0 -44.0097,-12.4612 -99.97069,-28.6797 -10.4927,-3.041 -20.5685,-4.487 -30.0137,-4.8281 z" fill="#FFFFFF" transform="translate(151.87953,3.8667408) matrix(0.26458333,0,0,0.26458333,259.35918,35.715735)"/>
    <path d="m -1119.7071,675.99123 c 9.7393,-14.7367 27.8293,-22.5706 51.4556,-22.2826 22.7948,0.278 39.3197,6.3267 36.8905,13.504 -0.9928,2.934 -10.364,3.9147 -29.9948,3.1394 -23.2969,-0.9203 -31.1814,0.2409 -42.848,6.3159 -18.3686,9.5634 -22.1614,9.398 -15.5033,-0.6767 z m 238.75977,-6.9174 c -3.6494,-5.9053 6.7014,-14.2316 16.304,-13.1156 13.4112,1.5592 11.7346,11.125 -2.4589,14.0278 -6.4848,1.3264 -12.7152,0.9158 -13.8451,-0.9122 z m -541.00127,-30.2795 c -14.6268,-5.6674 -29.5616,-8.4603 -46.0167,-8.6054 -32.7983,-0.2886 -32.6878,-10.9022 0.2084,-20.1478 22.4638,-6.3135 79.9238,15.6075 83.0175,31.6712 1.6555,8.5959 -9.8178,7.6964 -37.2108,-2.918 z m 344.2131,-15.1763 c 12.3568,-23.0891 51.2112,-36.3332 77.3908,-26.3795 7.34887,2.794 10.42787,1.6831 18.40017,-6.6384 5.2662,-5.4965 17.0164,-13.7102 26.1121,-18.2529 13.7657,-6.8749 20.3989,-7.949 39.58,-6.4093 25.045,2.0104 44.6685,11.3742 37.9389,18.1038 -2.8251,2.8254 -9.9618,2.8008 -25.4943,-0.087 -31.0613,-5.7764 -58.5696,3.4708 -76.6536,25.7678 -5.5816,6.8819 -7.3251,7.1153 -22.60907,3.0276 -9.1085,-2.4362 -20.6625,-4.4295 -25.6759,-4.4295 -9.6773,0 -35.6773,11.8523 -39.4732,17.9942 -1.2443,2.0133 -4.6598,3.6607 -7.59,3.6607 -3.9685,0 -4.4598,-1.6216 -1.9259,-6.3562 z m -103.4998,-23.419 c -6.4066,-6.4091 -12.6246,-8.243 -29.4981,-8.7005 -11.7594,-0.3191 -22.7401,-1.4202 -24.4018,-2.4472 -1.6618,-1.027 -17,-4.4867 -34.0852,-7.6881 -32.7785,-6.1421 -52.4631,-4.106 -76.3691,7.8992 -12.9642,6.5106 -15.8419,3.7782 -8.2402,-7.8239 17.8737,-27.2785 68.5579,-29.7815 109.8395,-5.4249 10.785,6.3633 14.1504,6.8289 22.9664,3.1771 20.8854,-8.6509 53.5207,3.6599 53.5207,20.1892 0,11.0689 -3.2896,11.2651 -13.7322,0.8191 z m 24.5597,-40.2292 c 0,-2.7719 5.7407,-10.0804 12.7574,-16.2412 11.2178,-9.8492 15.2475,-11.1664 33.3849,-10.9119 26.0022,0.3646 56.2281,10.1133 57.852,18.6587 1.5183,7.9882 -5.6219,8.1027 -37.9035,0.6079 -26.4098,-6.1318 -46.174,-3.4396 -55.2772,7.5292 -5.6281,6.7812 -10.8136,6.9526 -10.8136,0.3573 z m -298.5996,-63.8853 c -19.4602,-7.1987 -25.4589,-38.6636 -10.6529,-55.8765 10.7546,-12.9098 17.7528,-6.6491 28.6371,-1.9164 23.7742,11.1648 27.2732,30.8398 13.619,48.1981 -7.8922,10.0333 -20.2644,13.7896 -31.6032,9.5948 z m 20.551,-17.069 c 5.6057,-6.6964 5.3756,-16.8708 -5.7569,-25.6278 -16.5114,-12.9878 -22.0428,-8.5385 -19.8668,15.9795 0.5582,6.2869 4.8937,17.7489 14.443,16.2412 6.0847,-0.9607 8.0379,-2.8386 11.1807,-6.5929 z m 305.6039,-58.634 c -10.8821,-8.5599 -11.6755,-13.9541 -4.1834,-28.4421 6.2794,-12.1433 28.6638,-27.0121 36.2706,-24.093 8.2276,3.1573 6.3411,7.5199 -5.1219,11.8469 -20.507,7.7405 -29.255,35.7707 -10.3248,33.0828 9.3222,-1.324 25.6513,-29.6378 23.0422,-39.9539 -0.8786,-3.474 -0.157,-6.3162 1.6049,-6.3162 5.7291,0 7.5819,16.7292 3.5227,31.8043 -4.1082,15.2572 -18.1628,29.5514 -29.0558,29.5514 -3.4347,0 -10.5243,-3.366 -15.7545,-7.4802 z m -159.4536,-87.9983 c -10.959,-10.959 -11.5034,-26.5067 -1.3786,-39.3781 16.2731,-20.6881 46.0386,-4.2826 41.6789,22.9718 -2.1952,13.7238 -13.3681,25.2651 -24.4589,25.2651 -3.8405,0 -10.9691,-3.9864 -15.8414,-8.8588 z m 22.9017,-13.5181 c 2.382,-2.382 4.331,-9.8035 4.331,-16.4921 0,-10.4296 -1.1161,-11.9971 -7.838,-11.008 -9.9242,1.4603 -16.5284,18.8016 -10.1072,26.5389 5.3312,6.4237 7.9658,6.6096 13.6142,0.9612 z m 193.2191,-59.0717 c -3.1532,-8.2172 5.2565,-15.7951 9.7103,-8.7502 2.7221,4.3053 3.4148,3.7571 3.4592,-2.7369 0.062,-9.009 6.3922,-11.0072 9.4691,-2.9889 2.9903,7.7922 -5.1395,20.1323 -13.2634,20.1323 -3.9625,0 -8.1815,-2.5453 -9.3752,-5.6563 z m 135.90327,-40.319 c -5.9356,-7.54619 -7.2793,-12.88149 -5.6804,-22.55719 1.1518,-6.9704 2.3669,-14.8436 2.7004,-17.4958 1.1087,-8.8171 15.5999,-15.5523 25.4248,-11.8171 22.6164,8.5989 28.5658,34.3799 12.0469,52.20409 -11.5564,12.4695 -24.5191,12.3441 -34.4917,-0.334 z m 25.7453,-16.72849 c 3.9517,-8.6733 -0.6464,-23.9159 -7.2146,-23.9159 -4.9081,0 -11.6304,18.4743 -9.3436,25.6789 2.9995,9.4508 11.8796,8.5055 16.5582,-1.763 z m -217.31987,-19.8418 c -16.6104,-13.4502 -5.0451,-50.9931 15.7085,-50.9931 6.2799,0 6.0579,1.0127 -2.4338,11.1044 -10.3932,12.3517 -11.0107,15.1287 -5.6075,25.2245 4.6512,8.6907 15.064,9.0022 22.2244,0.6648 8.38,-9.7566 10.477,-18.7762 6.2166,-26.7368 -5.643,-10.5438 -1.5537,-12.1159 7.6291,-2.9332 6.258,6.258 7.4904,10.6066 5.8574,20.6688 -4.2847,26.4036 -30.4222,38.5255 -49.5947,23.0006 z m -315.4791,-1.0235 c -18.692,-10.2236 -22.3557,-35.0997 -7.5259,-51.1013 16.785,-18.1114 39.8751,-14.9909 49.7698,6.7257 5.9795,13.1232 -1.4436,34.4438 -14.7226,42.2881 -12.1861,7.1983 -17.4477,7.5976 -27.5213,2.0875 z m 24.0776,-16.242 c 9.8105,-8.8785 8.4032,-24.5673 -3.009,-33.544 -11.5614,-9.21111 -18.0458,0.3673 -18.0458,0.3673 -9.2361,8.6766 -11.4522,27.4722 -4.1055,34.8187 6.1118,6.1121 17.4067,5.375 25.1603,-1.642 z m 230.3679,-1.4826 c 0,-10.0993 6.4247,-21.4175 12.1573,-21.4175 5.0283,0 6.4296,7.6834 3.785,20.7525 -2.1709,10.7273 -15.9423,11.3017 -15.9423,0.665 z m -335.0002,-38.1714 c -4.3776,-7.822 -1.164,-19.3378 5.3964,-19.3378 2.863,0 4.2712,1.512 3.1291,3.3597 -1.142,1.848 -0.4258,4.38 1.5917,5.6268 2.0174,1.247 3.668,-0.2653 3.668,-3.3598 0,-3.2206 3.0867,-5.6267 7.2184,-5.6267 8.2644,0 10.15,13.6704 2.8872,20.9332 -6.2445,6.2445 -20.0184,5.3247 -23.8908,-1.5954 z m 222.5188,-56.855803 c -13.893,-6.9264 -11.4241,-22.8549 5.0109,-32.3314 10.5113,-6.0609 14.8326,-6.8814 19.8503,-3.7696 8.5504,5.3028 10.0384,17.9715 3.3156,28.2316 -6.8245,10.4155 -17.237,13.3237 -28.1768,7.8694 z m 15.1065,-14.9019 c 2.5108,-3.0254 3.7544,-6.3121 2.7631,-7.3034 -3.2685,-3.2682 -13.6629,2.6482 -13.6629,7.7769 0,6.6212 5.1991,6.3955 10.8998,-0.4735 z m 271.336,11.9974 c -4.6466,-4.6466 -5.5751,-13.4913 -2.3098,-22.0006 2.6644,-6.9431 18.70437,-0.038 21.74197,9.3614 4.0092,12.4048 -10.33607,21.7354 -19.43217,12.6392 z m -205.7219,-3.6091 c -5.2445,-5.2445 -5.7477,-17.3239 -0.7216,-17.3239 1.9849,0 3.609,1.6241 3.609,3.6091 0,1.9849 1.6242,3.609 3.6091,3.609 1.9852,0 3.6093,-4.259 3.6093,-9.4645 0,-8.004 0.8357,-8.7716 5.4138,-4.972 7.0167,5.8235 6.9033,16.0406 -0.2572,23.2016 -6.8069,6.807 -9.5539,7.0484 -15.2616,1.3407 z m -270.2757,-74.8908 c -13.5463,-8.2598 -19.1836,-17.5319 -19.1649,-31.5226 0.027,-12.2675 12.3344,-33.622 19.3947,-33.622 4.0495,0 3.6949,2.7123 -1.7516,13.3952 -9.0245,17.701 -8.6157,24.8472 2.0296,35.4927 11.0878,11.0876 25.0103,11.4471 32.4418,0.8373 7.4049,-10.5717 7.089,-20.0503 -1.2108,-36.33 -8.1036,-15.8947 -1.3683,-19.1308 8.4931,-4.0806 14.1409,21.5819 8.4651,51.9781 -11.0947,59.4146998 -12.6665,4.8158 -16.0414,4.4005 -29.1372,-3.5846998 z m 362.5103,-54.2356 c -11.2936,-8.8837 -14.4628,-23.9482 -7.7636,-36.903597 6.8649,-13.275 17.6299,-18.4643 32.5122,-15.6722 15.8758,2.9784 24.7641,15.9646 21.6347,31.610497 -5.0419,25.2088 -27.8702,35.5274 -46.3833,20.9653 z m 26.7639,-13.2729 c 8.1785,-7.4014 8.9657,-29.437197 1.1585,-32.433097 -9.1581,-3.5143 -23.4314,8.4993 -23.4314,19.721897 0,10.0563 5.6186,18.6845 12.1673,18.6845 1.9279,0 6.4754,-2.688 10.1056,-5.9733 z m -252.7209,-28.704097 c -16.978,-11.8918 -5.7592,-41.1149 15.7842,-41.1149 21.1523,0 22.5057,30.7584 1.8242,41.4532 -8.5634,4.4282 -10.8664,4.3841 -17.6084,-0.3383 z m 15.703,-21.3139 c 0,-10.0988 -10.5711,-8.9798 -12.0228,1.2728 -0.9268,6.5463 0.2883,8.1558 5.4138,7.1688 3.7606,-0.7243 6.609,-4.3626 6.609,-8.4416 z" fill="#00B894" transform="translate(151.87953,3.8667408) matrix(0.26458333,0,0,0.26458333,259.35918,35.715735)"/>
</svg>