<?xml version="1.0" ?><svg height="94.477547mm" viewBox="0 0 90.015106 94.477547" width="90.015106mm" xmlns="http://www.w3.org/2000/svg">
    <path color="#000" d="m 11706.459,343.77408 -1.384,281.52431 c 4.262,18.0139 46.63,35.07464 63.284,44.99709 l 251.55,-13.43771 -0.601,-307.10633 c 0,0 -15.241,-18.81123 -29.777,-19.14496 -99.295,7.47982 -282.623,-3.39968 -283.072,13.1676 z" fill="#FFFFFF" overflow="visible" paint-order="fill markers stroke" transform="translate(67.306081,-112.0689) matrix(0.26458333,0,0,0.26458333,-3161.554,27.586688)"/>
    <path d="m 11708.748,648.73256 c -7.963,-7.96289 -8.336,-9.11863 -11.051,-34.31887 2.406,-85.34526 1.158,-134.37184 0.32,-194.96877 -0.699,-33.91111 -1.901,-66.1068 -2.672,-71.54525 -2.724,-12.76504 5.201,-17.54122 12.273,-18.50606 17.07,-2.32836 -2.347,-1.61414 128.419,-4.06456 37.111,-0.69474 86.32,-2.43613 109.354,-3.86977 53.596,-3.33475 50.115,-3.61784 62.791,5.10342 14.345,9.87051 18.299,19.79685 22.248,55.86101 2.98,27.20784 3.31,56.46744 2.596,230.34208 -0.09,21.11491 1.98,44.91009 1.984,47.34103 0,6.27863 -3.101,8.63685 -14.586,11.06 -57.581,5.68129 -121.947,4.82033 -169.263,5.17225 -47.988,0.35581 -88.569,-1.57128 -96.956,-0.84538 -7.894,0.92589 -34.792,-16.17641 -45.457,-26.76113 z m 172.659,6.91364 c 52.185,-0.52982 102.948,2.08552 117.747,-0.15583 12.157,-1.84139 0.929,-8.34208 -5.304,-8.61738 -15.324,-0.67526 -48.633,-0.0389 -117.096,-0.52073 -68.463,-0.48437 -128.404,-1.44662 -133.203,-2.13746 -10.805,-1.557 -10.367,-0.20777 -0.802,7.66162 5.841,4.80475 15.399,4.35284 26.825,5.50598 39.223,-0.71162 79.601,-1.39078 111.833,-1.7362 z m 136.181,-63.23824 c 2.017,-48.08381 -0.177,-188.44471 -3.265,-208.82072 -5.228,-34.49678 -12.391,-45.60742 -10.875,-16.86855 2.315,43.90238 3.94,105.49662 4.803,182.06348 0.52,46.06842 2.358,66.51456 1.034,84.34276 -0.02,0.32205 5.21,5.93711 6.992,5.93711 2.582,0 -0.07,-13.74287 1.311,-46.65408 z m -30.827,34.59417 c 6.139,-6.14488 2.143,-263.00916 -4.432,-284.8318 -1.117,-3.70614 -3.319,-4.04767 -19.1,-2.96076 -22.972,1.58297 -84.443,3.2036 -180.27,4.7541 -67.814,1.0973 -61.478,1.48428 -66.41,5.09952 -4.096,3.00362 0,0 -3.224,19.15665 3.652,60.11126 1.802,108.61062 3.927,176.17573 -1.91,39.20542 0.943,78.12126 3.475,80.7353 1.01,1.04276 9.568,2.48548 19.019,3.20749 9.451,0.72072 17.367,1.44792 17.591,1.61414 0.224,0.16752 51.298,0.21037 113.497,0.0909 85.686,-0.15713 113.776,-0.89472 115.927,-3.04647 z" fill="#00B894" transform="translate(67.306081,-112.0689) matrix(0.26458333,0,0,0.26458333,-3161.554,27.586688)"/>
</svg>