<?xml version="1.0" ?><svg height="94.600853mm" viewBox="0 0 93.573288 94.600852" width="93.573288mm" xmlns="http://www.w3.org/2000/svg">
    <path color="#000" d="m 13179.686,354.42113 c -91.835,0.2818 -166.126,71.43488 -166.126,159.10979 0,36.60827 13.225,72.09586 37.441,100.48021 36.312,59.5269 106.797,128.73082 245.551,34.33965 99.533,-67.71055 49.984,-218.14323 -0.1,-248.84555 -31.114,-28.90769 -72.817,-45.0841 -116.234,-45.0841 -0.177,0 -0.354,0 -0.532,0 z" fill="#FFFFFF" overflow="visible" paint-order="fill markers stroke" transform="translate(269.80741,-38.821337) matrix(0.26458333,0,0,0.26458333,-3711.3688,-51.11601)"/>
    <path d="m 13181.109,339.92509 c -37.505,-0.34932 -78.087,20.14617 -105.323,40.52218 -33.758,25.25478 -60.154,72.29454 -66.388,107.50423 -6.227,35.17073 2.888,85.52836 24.312,117.09813 20.983,33.0099 31.211,45.59444 66.788,72.48153 25.493,13.59094 36.571,20.75131 73.013,19.64492 30.517,1.9167 71.655,-5.80076 96.657,-18.13077 15.588,-7.68889 37.507,-25.99627 48.693,-40.67152 21.909,-28.21295 40.011,-59.21524 42.016,-98.0259 2.676,-51.77177 -15.784,-85.12969 -25.898,-106.08228 -31.579,-65.42115 -97.661,-93.72629 -153.87,-94.34052 z m -1.25,19.36832 c 55.505,1.83359 114.495,33.06054 130.776,88.88259 16.919,58.00496 6.811,90.59412 -15.818,129.54372 -21.139,38.38083 -65.624,63.00969 -108.423,69.79217 -35.649,4.4879 -86.362,-0.59604 -118.252,-33.78255 -31.925,-35.81353 -47.118,-87.00874 -37.968,-127.93998 6.898,-30.85295 24.756,-62.34222 49.965,-88.10604 26.486,-26.44038 62.544,-38.82883 99.72,-38.38991 z m 166.563,159.95516 c -3.739,52.19771 -24.677,100.55033 -65.943,133.20702 -73.42,47.53321 -155.023,34.97854 -200.549,-9.38354 -0.195,-0.23764 -0.296,-0.39477 -0.214,-0.39477 2.878,1.08302 5.867,2.39328 8.744,3.76718 128.187,53.00413 223.927,-15.25052 248.808,-150.00415 4.383,-0.13375 9.074,14.47527 9.154,22.80826 z" fill="#00B894" transform="translate(269.80741,-38.821337) matrix(0.26458333,0,0,0.26458333,-3711.3688,-51.11601)"/>
</svg>