<?xml version="1.0" ?><svg height="231.36348mm" viewBox="0 0 119.51715 231.36348" width="119.51715mm" xmlns="http://www.w3.org/2000/svg">
    <path d="m 32298.745,24989.9 c 50.218,-23.072 170.488,-63.044 198.973,-82.793 28.485,-19.749 36.925,-31.712 61.401,-13.102 24.476,18.609 67.415,66.937 53.911,103.111 -13.504,36.175 -22.683,43.486 3.376,95.516 26.058,52.031 101.75,223.309 67.146,278.853 -34.604,55.544 -196.987,221.32 -254.695,249.044 -57.709,27.725 -79.864,-27.154 -66.043,-68.836 13.82,-41.681 54.754,-78.9 69.102,-112.606 14.348,-33.706 17.302,-100.643 -7.912,-182.677 -25.215,-82.034 -39.246,-104.441 -39.246,-104.441 l -58.236,-2.848 -26.164,-33.896 -40.829,-16.521 c 0,0 -21.042,-73.426 39.216,-108.804 z" fill="#FFFFFF" paint-order="markers stroke fill" transform="translate(104.35981,10.60431) matrix(0.26458333,0,0,0.26458333,-8637.0878,-6564.2691)"/>
    <path d="m 32377.341,25633.35 c -36.529,-28.737 -33.609,-73.387 8.779,-134.27 37.866,-54.394 50.775,-88.171 50.85,-133.051 0.07,-38.361 -3.368,-52.777 -34.939,-146.722 -20.755,-61.771 -26.431,-67.938 -53.323,-57.992 -15.409,5.7 -33.005,-5.397 -42.476,-26.793 -5.337,-12.058 -10.406,-15.857 -21.166,-15.857 -22.742,0 -35.385,-18.119 -35.385,-50.712 0,-34.073 7.855,-50.162 38.107,-78.046 19.81,-18.259 33.664,-24.745 92.834,-43.46 45.929,-14.527 83.833,-30.513 111.596,-47.063 l 42.038,-25.061 -2.333,-44.455 c -2.442,-46.56 1.96,-60.111 19.532,-60.111 24.103,0 44.295,51.567 30.386,77.599 -5.262,9.85 -19.666,22.025 -28.662,24.226 -0.63,0.134 11.62,14.002 27.225,30.77 15.608,16.772 32.381,40.976 37.276,53.794 8.366,21.908 8.373,24.797 0.09,48.049 -11.823,33.28 -11.452,36.525 8.812,76.844 52.396,104.256 78.868,194.094 74.314,252.177 -1.5,19.19 -5.55,40.28 -9,46.868 -9.576,18.316 -56.752,77.533 -77.467,97.248 -72.362,68.852 -176.405,154.83 -196.702,162.546 -18.364,6.982 -24.495,5.99 -40.415,-6.528 z m 63.875,-35.643 c 67.734,-45.23 162.964,-133.1 208.326,-192.225 28.757,-37.488 29.717,-39.785 31.507,-75.515 2.84,-56.547 -15.44,-115.611 -72.314,-233.638 l -22.053,-45.776 -11.223,10.546 c -6.177,5.803 -41.576,23.738 -78.671,39.864 -37.091,16.121 -74.112,35.758 -82.261,43.633 l -14.817,14.322 13.311,35.857 c 7.321,19.72 19.533,52.26 27.141,72.311 9.819,25.892 14.558,50.026 16.36,83.322 3.195,59.094 -7.478,90.332 -49.356,144.404 -27.061,34.948 -42.122,63.702 -42.686,81.511 -0.151,3.96 4.647,15.092 10.609,24.737 14.367,23.243 27.281,22.589 66.127,-3.353 z m -71.336,-457.984 c 8.842,4.732 14.37,3.53 29.946,-6.505 10.506,-6.772 48.396,-27.175 84.201,-45.341 100.846,-51.171 136.992,-92.294 116.315,-132.318 -12.063,-23.351 -48.929,-66.028 -57.038,-66.028 -3.73,0 -23.87,11.655 -44.752,25.899 -30.013,20.481 -52.68,30.449 -108.265,47.608 -69.189,21.359 -109.101,41.948 -119.698,61.745 -6.87,12.837 -6.803,55.273 0.09,68.184 3.424,6.404 10.892,10.074 20.481,10.074 10.445,0 16.09,3.163 18.351,10.279 5.465,17.228 28.154,32.034 39.656,25.88 6.793,-3.638 13.229,-3.475 20.7,0.523 z m 190.637,-300.969 c 3.785,-14.337 3.429,-23.253 -1.509,-37.608 -4.627,-13.451 -12.322,5.027 -12.41,29.795 -0.09,24.927 8.172,29.565 13.919,7.813 z" fill="#00B894" transform="translate(104.35981,10.60431) matrix(0.26458333,0,0,0.26458333,-8637.0878,-6564.2691)"/>
</svg>