<?xml version="1.0" ?><svg height="156.72636mm" viewBox="0 0 259.11533 156.72636" width="259.11533mm" xmlns="http://www.w3.org/2000/svg">
    <path color="#000" d="m 2287.2734,750.86133 c -17.5989,0.20656 -41.1221,8.79775 -73.8984,30.48633 -50.4693,-20.95253 -186.8909,7.73112 -74.1387,62.79492 0,0 164.6525,47.67839 199.9043,58.77539 110.1033,34.65968 137.15,-44.70597 10.2891,-88.28711 -14.9256,-29.45653 -26.1203,-64.1925 -62.1563,-63.76953 z m -160.6308,148.35156 a 13.240029,14.138144 0 0 0 -13.2012,14.13867 13.240029,14.138144 0 0 0 13.2402,14.13867 13.240029,14.138144 0 0 0 13.2403,-14.13867 13.240029,14.138144 0 0 0 -13.2403,-14.13867 13.240029,14.138144 0 0 0 -0.039,0 z" fill="#FFFFFF" overflow="visible" paint-order="fill markers stroke" transform="translate(106.32899,53.143473) matrix(0.30313781,0,0,0.30313781,-587.77792,-278.79362)"/>
    <path d="m 2283.761,744.38169 c -22.0657,-0.0718 -53.8241,13.13528 -70.3868,30.9668 l -16.2441,-2.74805 c -28.9322,-4.8936 -66.5145,-2.86731 -86.9121,4.68555 -35.7097,14.92425 -25.0011,51.82465 24.332,70.49609 7.0225,2.65787 14.2641,8.36493 22.334,12.59961 2.5666,0.84708 4.666,1.98221 4.666,2.52148 0,0.53927 -1.8456,2.74262 -4.1015,4.89649 -2.256,2.15387 -8.0777,9.91472 -12.9375,17.24805 -8.4808,12.7973 -8.8285,13.64303 -8.629,21 0.1953,7.20136 -0.026,7.78559 -3.6621,9.66601 -4.6676,2.41375 -12.4573,2.70255 -11.7011,0.43359 0.2876,-0.86256 2.8216,-2.21517 5.6328,-3.0039 6.8087,-1.91034 8.6433,-4.87224 5.2636,-8.5 -4.9917,-5.35791 -9.2775,-5.93776 -16.5703,-2.24219 -7.7295,3.91678 -8.954,6.95155 -6.6601,16.51367 1.8474,7.7008 3.9851,9.9308 11.7012,12.2129 7.4355,2.199 18.65,-0.1194 23.0058,-4.7559 2.6801,-2.8528 2.9355,-4.0975 2.1699,-10.61129 -0.4771,-4.05875 -0.3466,-7.37891 0.2911,-7.37891 3.8777,-1.286 16.4719,-25.58419 22.2675,-32.51758 4.8583,-9.98205 3.5134,-9.83083 25.5196,-2.85351 10.8592,3.44303 23.1964,7.40882 27.416,8.81445 3.258,1.07824 22.2997,4.0759 18.8476,10.13086 -3.6936,1.41736 -11.1855,18.86873 -11.1855,26.05469 0,6.92209 -0.4468,7.44959 -3.6211,4.27539 -2.2933,-2.29337 -7.7713,-1.64117 -10.7656,1.2832 -2.6418,2.5802 -0.5305,12.4896 3.6601,17.1797 2.8567,3.1972 4.5387,3.9262 8.7949,3.8047 10.6653,-0.3048 11.6523,-0.9233 13.7227,-8.5899 1.193,-4.418 1.02,-5.437 -1.3281,-7.7851 l -2.7031,-2.7032 c 6.9683,-7.52171 11.3329,-19.29135 17.4726,-28.81245 1.5128,-3.68442 2.3557,-4.28846 5.2832,-3.78516 16.4197,2.93353 37.0813,10.99873 56.543,13.5918 14.464,3.63652 16.4744,4.10069 23.248,5.38281 3.3098,0.62648 4.2802,1.47643 4.1992,3.67188 -0.059,1.57115 0.8378,7.47822 1.9922,13.12692 1.25,6.1174 2.0058,15.8221 1.8692,24 -0.2578,15.42965 1.6518,23.27775 6.0996,25.07225 5.5111,2.2234 11.031,1.4631 14.4883,-1.9942 3.0409,-3.0409 3.2254,-3.8953 2.2246,-10.22645 -1.0535,-6.6635 -2.6741,-9.0584 -6.1641,-9.1016 -1.1432,-0.014 -1.6254,-2.5826 -1.5664,-8.3535 0.047,-4.5833 -1.1424,-13.3993 -2.6445,-19.5918 -1.502,-6.1925 -2.4945,-11.49568 -2.2051,-11.78514 22.5085,3.71017 47.9758,6.63684 63.2109,0.53906 14.5719,-5.83241 24.3429,-13.87654 22.8086,-30.30664 -1.8018,-19.29654 -11.7524,-35.2204 -26.875,-47.71679 -11.6331,-9.61279 -38.6564,-23.61377 -53.0644,-27.49414 -7.731,-2.08213 -10.0942,-3.28718 -10.4649,-5.33399 -6.3683,-29.6864 -29.5308,-61.84922 -68.6718,-61.97656 z m 2.3105,16.57617 c 11.8199,-0.24708 20.0609,3.0084 28.457,10.59375 6.6791,6.03413 15.8863,15.4175 19.4473,28.83008 3.2971,10.35407 4.1349,46.9466 -6.5781,43.49805 -1.5453,0.23584 -3.0881,0.14827 -3.4297,-0.19336 -0.3416,-0.34161 -4.7765,-0.89872 -9.8535,-1.23828 -5.0771,-0.33955 -10.1305,-0.84607 -11.2305,-1.12696 -2.318,-0.59189 -6.1472,-1.31679 -30.666,-5.79883 -18.5007,-3.40694 -70.8733,-17.54293 -66.4238,-27.14648 1.2783,-3.66565 19.0914,-21.49051 28.3027,-28.32031 15.3485,-11.38025 23.5169,-15.1057 38.8223,-17.71289 4.8735,-0.83019 9.2123,-1.30241 13.1523,-1.38477 z m -24.6055,18.22266 c -2.9621,-0.12163 -6.5605,1.18504 -11.5215,4.02344 -7.5777,4.33558 -9.226,6.42016 -7.871,9.95117 0.6152,1.60335 1.8428,1.889 5.1425,1.20117 5.3447,-1.11413 13.8976,-5.25271 18.3067,-8.85938 3.2148,-2.62987 3.2363,-2.7553 0.7461,-4.57617 -1.4769,-1.07993 -3.0255,-1.66725 -4.8028,-1.74023 z m -87.2715,7.91406 c 6.2443,0.0101 11.9492,0.18261 15.875,0.53711 6.9564,0.62817 10.6828,2.77217 7.8555,4.51953 -2.5964,1.60466 -6.6607,8.09277 -8.4648,14.24219 -2.5652,16.32694 17.6108,20.3806 31.7578,30.50781 9.294,4.66067 18.5009,7.7294 30.7558,10.25 27.9056,5.90351 65.2111,16.98289 97.2286,13.60742 12.5816,-0.7345 15.9896,-4.67464 11.6191,-13.43554 -2.0392,-4.08783 -5.2957,-6.05668 -8.7988,-5.32032 -1.0391,0.2184 -1.5859,-0.46969 -1.2891,-1.62109 0.2836,-1.1 0.7692,-3.50064 1.0801,-5.33398 1.6222,-9.56528 1.2525,-9.15711 7.1152,-7.83985 8.3666,1.93625 16.2199,6.22729 24.2656,9.34375 4.2041,1.73937 7.6531,3.95383 7.6661,4.91992 0.014,1.06404 -0.897,1.4711 -2.3106,1.03125 -1.2833,-0.39935 -3.0729,-0.26112 -3.9785,0.3086 -2.2059,1.38763 -3.8274,9.57031 -1.8965,9.57031 0.8017,0 1.1506,0.80459 0.7735,1.78711 -1.1928,3.10855 2.9088,4.98962 12.6543,5.80664 10.2509,0.85942 10.3074,0.81657 9.5937,-7.33203 -0.2583,-2.94841 -0.1397,-2.98685 2.9492,-0.96289 3.4956,2.29037 14.2102,14.49791 14.2832,16.27344 0.025,0.60176 1.2042,3.49439 2.6211,6.42773 1.417,2.93333 2.5981,7.90381 2.6231,11.04492 0.068,8.53404 -5.8641,13.96119 -18.3575,16.80274 -10.0404,2.28364 -10.9316,2.42287 -10.9316,1.68554 0,-0.25723 0.6661,-2.38049 1.4805,-4.71679 4.13,-12.11441 -14.9435,-21.73971 -15.2442,-2.15235 l 0.2364,6.22656 -6.7735,-0.93164 c -3.725,-0.51233 -8.9323,-1.83332 -11.5703,-2.93554 -2.638,-1.10223 -4.9456,-1.93406 -5.1289,-1.84766 -0.1834,0.0865 -1.5334,0.1582 -3,0.1582 -2.2178,0 -2.666,-0.88881 -2.666,-5.27929 0,-4.04143 -0.8577,-6.07496 -3.6543,-8.66797 -6.6065,-6.05313 -9.6819,-1.0035 -14.1641,6.42383 -0.941,2.66238 -3.225,2.59991 -15.5156,-0.42969 -3.3,-0.81344 -8.2761,-1.81684 -11.0586,-2.22852 -11.5311,-1.70603 -12.2684,-2.1927 -12.3574,-8.1914 -0.066,-4.44482 -0.832,-6.10662 -3.9492,-8.5586 -4.2709,-3.35954 -6.8668,-3.33047 -13.1133,0.14454 -2.8293,1.57404 -4.3292,3.51867 -4.6211,5.99609 -0.2507,2.12793 -1.09,3.42234 -2,3.08398 -1.6669,-0.6198 -9.5519,-3.07301 -16.3281,-5.08007 -2.252,-0.66705 -5.402,-1.2129 -7,-1.2129 -3.4912,0 -3.6419,-0.97665 -0.6602,-4.27148 2.1113,-2.33297 2.0718,-2.83912 -0.6699,-8.48242 -5.8372,-11.79717 -11.8151,-6.41881 -22.293,0.11328 l -5.3828,4.35547 -10.9492,-3.51758 c -10.6018,-3.40569 -13.2934,-5.67955 -8.7734,-7.41406 1.7625,-0.67635 2.0168,-2.01387 1.332,-7.00977 -0.4653,-3.39488 -1.4075,-6.84888 -2.0938,-7.67578 -3.3888,-4.08328 -16.082,-0.18148 -16.082,4.94336 0,4.71611 -2.6016,7.82227 -5.748,6.86328 -7.5323,-2.29576 -26.252,-11.35237 -26.252,-12.70117 0,-0.54508 1.7436,-1.37563 3.875,-1.84375 6.8774,-1.51055 6.6602,-11.96791 -0.3438,-16.5625 -3.1628,-2.07482 -4.5573,-2.24565 -8.6503,-1.05274 -6.823,1.98848 -12.2149,5.96579 -12.2149,9.01172 0,3.31064 -0.654,3.21864 -8.666,-1.23242 -12.8306,-7.12801 -15.1206,-8.80518 -17.5117,-12.8164 -3.3178,-5.56589 -3.6106,-9.29211 -1.1094,-14.12891 3.2947,-6.3712 12.9526,-9.77864 33.9551,-11.97852 7.6654,-0.8029 19.5695,-1.23749 29.9765,-1.2207 z m -44.3085,5.68555 c -7.1334,-0.13006 -15.002,4.87578 -15.002,10.28125 0,2.10679 -0.6123,4.20891 -1.3613,4.67187 -0.7984,0.49346 -0.1094,1.88646 1.666,3.36719 3.694,3.08083 6.2262,3.22177 11.209,0.62305 2.1006,-1.09548 4.7776,-1.996 5.9472,-2 1.1697,-0.005 3.2138,-1.21101 4.543,-2.67969 2.0996,-2.32004 2.2117,-3.35003 0.8613,-7.85742 -1.1279,-3.76422 -2.4664,-5.41648 -4.8769,-6.02149 -0.964,-0.24194 -1.9673,-0.36618 -2.9863,-0.38476 z m -105.4141,11.2539 c -1.2336,-0.002 -2.5199,0.5051 -3.7383,1.68164 -2.3465,2.26596 -7.5844,11.76117 -7.4414,20.24805 0.3377,20.07674 20.7775,39.7372 47.5781,45.76367 16.2965,3.66449 27.3198,-2.03963 19.3477,-10.01172 -9.7057,-8.22408 -38.9761,-6.24027 -49.7051,-21.52148 -3.5437,-4.80157 -3.6941,-15.51121 -0.3359,-23.96875 2.4342,-5.68141 -1.2994,-12.18326 -5.7051,-12.19141 z m -61.4668,48.34766 c -4.3826,0.0673 -5.9124,6.01334 -1.2168,12.9375 1.7319,3.9291 18.8678,19.79667 23.7988,21.64453 12.2346,1.27981 4.4262,-10.01111 -0.6308,-13.66992 -3.9935,-3.96166 -7.6267,-8.63739 -8.0743,-10.39063 -0.9587,-3.75597 -9.8813,-10.52148 -13.8769,-10.52148 z m 449.3926,17.89844 c -1.5072,0.0433 -2.9032,0.41133 -3.8477,1.14062 -2.0662,1.59548 -2.2248,14.53486 -0.2031,16.55664 1.2399,1.23987 3.8064,1.38174 6.5371,0.35938 0.3666,-0.1372 1.9194,-0.15303 3.4492,-0.0352 1.5297,0.11789 3.5707,-0.73631 4.5352,-1.89844 2.0778,-2.50451 2.1296,-10.42748 0.072,-11.11328 -0.7906,-0.26356 -2.4328,-1.4755 -3.6504,-2.69336 -1.5577,-1.55806 -4.3805,-2.38854 -6.8925,-2.3164 z m -392.6602,29.09961 c -2.1533,-0.0408 -4.641,0.0947 -7.5195,0.47656 -23.9431,2.82784 -107.5186,40.06129 -120.5059,56.83979 -5.5414,5.5415 -8.3534,16.34975 -6.0742,23.34765 2.3928,7.347 8.7575,20.97546 10.8047,23.13666 3.5982,3.7987 11.7754,15.0087 11.7754,16.1426 0,0.6436 1.1754,2.4332 2.6133,3.9765 13.4478,26.7633 -11.633,49.9489 -25.295,63.082 -9.2405,8.7351 -21.3464,18.3172 -32.8105,26 -0.891,0 -1.82,0.45 -2.0645,1 -0.5251,1.1813 -8.6539,7 -9.7793,7 -71.0961,40.2687 -145.1758,79.4499 -223.332,115.7617 -2.5666,1.2311 -4.8669,2.6883 -5.1113,3.2383 -0.2446,0.55 -1.2632,1 -2.2656,1 -1.0025,0 -2.3023,0.8118 -2.8887,1.8047 -0.5864,0.993 -2.3872,2.4974 -4,3.3437 -1.6128,0.8463 -3.7121,3.1292 -4.666,5.0723 -0.9538,1.9432 -2.91,4.1893 -4.3457,4.9902 -2.9003,1.6181 -6.0547,4.3004 -6.0547,5.1485 0,0.3029 2.8487,0.5954 6.332,0.6504 5.1898,0.082 8.7421,-1.1753 19.668,-6.9629 7.3333,-3.8846 15.0967,-7.4737 17.2519,-7.9766 2.1553,-0.5028 5.4541,-1.9955 7.3321,-3.3164 59.0892,-28.8361 155.659,-74.6103 203.5312,-105.4199 18.4539,-10.894 25.612,-15.7417 37.916,-25.668 4.3178,-3.4833 8.169,-6.332 8.5567,-6.332 0.8815,0 15.2995,-13.3267 23.082,-21.334 3.2074,-3.3 8.2274,-10.7993 11.1543,-16.666 9.0675,-18.174 8.5005,-29.6935 -2.4551,-49.9863 -4.5298,-8.3904 -5.874,-10.3315 -14.3691,-20.71286 -7.4907,-9.1539 -9.2897,-19.1624 -4.7578,-26.4765 13.5058,-20.89115 43.5131,-29.34525 64.0898,-40.52535 10.5415,-4.9333 22.5161,-9.54497 34,-12.99218 2.2,-0.4915 6.7,-1.88251 10,-3.08984 3.7455,-1.37034 10.1332,-2.19808 17,-2.20508 12.5835,-0.0133 13.6116,-1.17115 6.7383,-7.59179 -1.1832,-1.09134 -4.2196,-4.57896 -13.5508,-4.75586 z m 21.1543,28.16985 c -3.537,0.054 -7.2264,0.5752 -10.2519,1.5801 -11.6519,3.8701 -32.3146,17.5308 -43.7559,28.9278 -12.4224,12.43235 -27.7833,29.46175 -31.5332,52.57991 -1.1196,9.4527 2.5614,23.7621 9.709,37.7442 10.5453,20.6287 13.7031,41.7042 9.1445,61.039 -2.6448,11.2182 -13.0943,30.8758 -20.9375,39.3867 -27.5385,30.0449 -61.2228,58.0409 -100.4043,83.0176 -2.5056,2.5056 -5.5007,4.5566 -6.6562,4.5566 -1.1553,0 -2.8253,0.6068 -3.711,1.3477 -0.8858,0.7409 -6.2619,4.3283 -11.9453,7.9726 -7.4834,4.7985 -10.332,7.3944 -10.332,9.4141 0,2.5353 0.189,2.598 2.0937,0.6933 2.3915,-2.3915 3.1795,-2.5142 5.7364,-0.8945 47.0506,-16.3776 92.5562,-50.0924 112.8359,-65.8633 8.8,-8.5352 17.996,-17.4283 20.4355,-19.7617 15.9396,-16.1296 30.0493,-44.5806 30.1153,-68.2422 -0.056,-17.842 -4.5312,-36.9087 -14.459,-53.9999 -1.9293,-4.7667 -4.5404,-10.466 -5.8008,-12.666 -3.3271,-5.8074 -2.8305,-20.7958 0.9492,-28.666 8.7081,-18.13146 15.2846,-26.31696 33.7305,-41.98431 4.1174,-3.4972 25.8794,-18.0156 27.0039,-18.0156 0.6014,0 4.1529,-1.459 7.8926,-3.2422 3.7398,-1.7832 8.0001,-3.438 9.4668,-3.6778 3.1437,-0.5139 4.542,-7.5091 1.8359,-9.1816 -2.3182,-1.4327 -6.6145,-2.134 -11.1621,-2.0645 z" fill="#00B894" transform="translate(106.32899,53.143473) matrix(0.30313781,0,0,0.30313781,-587.77792,-278.79362)"/>
</svg>