<?xml version="1.0" ?><svg height="62.91666mm" viewBox="0 0 70.899925 62.91666" width="70.899925mm" xmlns="http://www.w3.org/2000/svg"><g color="#000"><path d="m 247.24651,185.3539 c -51.3612,-5.50545 -30.49595,-52.11127 8.76451,-58.38719 35.63954,-5.697 43.75663,57.9128 -8.76451,58.38719 z" fill="#FFFFFF" overflow="visible" paint-order="fill markers stroke" transform="translate(-215.85702,-125.05047)"/><path d="m 250.35792,125.35177 c -2.89808,0.5633 -6.13153,1.23984 -8.71987,2.39686 -12.236,6.07007 -19.60237,9.06939 -23.76548,22.63934 -0.56767,2.53259 -2.44052,10.09015 -1.92755,12.17083 0.0287,0.0971 0.10777,0.81439 0.17571,1.59359 0.83302,6.79688 4.56962,13.88771 9.35988,17.71809 4.18235,3.25384 11.93755,5.41443 17.25038,5.94413 12.41888,1.20782 28.00617,-4.8985 36.07223,-13.34241 4.51607,-5.39909 6.08484,-8.82915 7.61865,-14.38302 1.05149,-5.72452 -0.55718,-14.73861 -2.25827,-19.31246 -5.04637,-13.56863 -23.36374,-16.83332 -33.80568,-15.42495 z m 8.05376,4.10845 c 0,0 0.976,0.19447 1.11776,0.64109 0.26958,0.84958 1.66822,1.58327 3.28766,1.72508 0.2754,0.0238 0.38547,0.29237 0.27027,0.65829 -0.29361,0.93265 1.73995,4.20978 3.05978,4.93103 1.14374,0.62495 1.14411,0.62548 -0.17881,0.73475 -1.15353,0.0955 -1.32292,0.22437 -1.32292,1.00727 0.51213,2.86306 2.85446,3.51975 2.89285,0.28734 0,-1.15279 0.0813,-1.26868 0.75809,-1.07844 1.89748,0.53287 3.83087,0.60907 5.47356,0.21484 1.85624,-0.44529 2.38895,-1.08717 1.94408,-2.34289 -0.28712,-0.81068 0.003,-0.5326 1.70016,1.6256 3.03816,3.86504 4.67612,9.13236 4.84413,15.57999 0.0751,2.88079 -1.32139,8.83127 -2.04018,8.69368 -0.12483,-0.0238 -0.46498,0.05 -0.75602,0.16431 -3.90313,1.5322 -11.38417,0.0212 -13.02763,-2.63366 -1.2917,-2.08545 -1.52456,-6.29365 -0.45683,-8.26188 0.84785,-1.56316 2.78569,-2.87655 4.6142,-3.12791 0.97544,-0.13414 2.11145,-0.13679 2.52439,-0.005 1.57599,-0.0902 0.35983,-2.10661 -0.52298,-2.34976 -2.95669,-0.78476 -5.40761,-0.11933 -7.73697,2.10052 -8.03524,9.24455 1.69537,21.48073 12.45505,17.71624 0.79473,-0.14526 1.87259,-0.72708 1.44486,-0.11404 -5.13855,9.6692 -20.08005,16.68119 -28.50007,17.56463 -1.68375,0.63183 0.62982,-4.7371 3.15071,-7.31149 1.79832,-1.83674 2.2343,-2.05793 1.88466,-0.95621 -0.31121,0.98055 0.40663,1.74731 1.63607,1.74731 0.88895,0 1.01492,-0.12938 1.01492,-1.04087 0,-0.5969 -0.24617,-1.17898 -0.57722,-1.36419 -0.43905,-0.2458 -0.1779,-0.38285 1.09038,-0.57309 0.9171,-0.13758 2.01028,-0.31988 2.4293,-0.40561 0.41902,-0.0857 1.68619,-0.25638 2.81635,-0.37941 2.47481,-0.26934 3.81836,-1.14511 3.09439,-2.01745 -2.38491,-1.74863 -9.51339,-0.24315 -12.31501,0.74004 -3.22511,1.20201 -7.52366,7.39326 -7.552,10.87729 -0.007,0.82973 -0.88466,0.95409 -3.4499,0.48736 -0.87313,-0.15875 -2.22269,-0.37835 -2.99879,-0.48789 -2.74934,-0.70168 -8.21211,-2.26034 -10.2743,-3.82905 -0.55798,-0.46434 -1.3716,-1.0324 -1.80816,-1.26206 -1.35689,-0.71385 -0.8813,-1.05543 1.36787,-0.98293 2.07407,0.0669 2.21414,0.1307 3.46077,1.57824 1.29927,1.50865 1.29908,1.50892 1.75596,0.65537 0.68932,-1.28799 0.17762,-2.90539 -1.26815,-4.00817 -1.36543,-1.0414 -1.86438,-1.16761 -4.65759,-1.1766 -1.15975,-0.003 -2.2357,0.21457 -2.76468,0.56118 -0.47628,0.31221 -0.90572,0.51514 -0.95446,0.45111 -1.03214,-1.35546 -2.44742,-3.73829 -2.74349,-4.61883 -1.47349,-2.95407 -1.59303,-6.30766 -1.31053,-9.00774 0.67738,-6.07457 2.62503,-12.48939 5.01779,-16.52614 4.32475,-5.80892 10.91502,-8.48598 17.00102,-11.45804 4.14811,-1.43113 8.66026,-3.04139 12.59096,-3.30835 1.10255,-0.0841 1.48728,-0.10319 2.5187,-0.11457 z m 7.74994,2.07831 c 0.25762,-0.0159 0.6595,0.0331 1.28622,0.11641 2.48303,0.32914 8.37832,3.30438 7.72768,3.89996 -0.32004,0.29289 -3.82196,0.44529 -5.23843,0.22781 -2.66324,-0.40878 -4.23333,-1.7108 -4.23333,-3.51023 0,-0.50853 0.0285,-0.70908 0.45786,-0.73395 z m -18.62318,7.04029 c 0.64911,1.17634 1.6899,0.35693 2.64274,0.74375 0,0.47625 -1.42806,0.71755 -2.83702,0.47942 -1.39623,-0.23574 -1.39631,-0.23601 -1.39631,0.98928 0,1.19539 0.72691,2.01136 2.46962,2.7723 5.16403,1.91268 8.91709,-4.80562 4.84449,-7.63587 -2.02644,-1.40838 -6.76648,-0.83106 -5.72352,2.65112 z m -11.94281,2.87391 c 0.27919,0.36062 0.39947,0.66384 2.18622,0.43021 0.9102,0 0.9433,-0.99563 1.04498,-1.92431 -0.0371,-3.65205 -5.17107,-0.74666 -3.2312,1.4941 z m -0.41508,1.85975 c -2.46809,0.0519 -5.55575,1.49331 -7.16854,3.1377 -0.94517,0.97525 -1.17586,1.53564 -1.34205,3.2631 -0.42981,4.46723 -0.0265,6.48256 1.73892,8.68204 2.25245,2.36855 3.07811,2.62573 5.76242,2.19313 6.43009,-1.42478 9.17154,-8.4111 7.22127,-13.41622 -0.74149,-1.63275 -2.42242,-3.04615 -4.26381,-3.58432 -0.59029,-0.1725 -1.26132,-0.26035 -1.94821,-0.27543 z m 21.85964,2.31299 c -0.66945,0 -1.30829,2.10741 -0.81804,2.69822 0.6904,0.83185 2.03242,0.58552 2.28462,-0.4191 0.23736,-0.94588 -0.62074,-2.27912 -1.46658,-2.27912 z m -19.42981,1.78964 c 0.51123,0.40217 0.92914,1.02764 0.92914,1.39012 0.82618,2.50958 -0.12407,4.63524 -1.95083,6.15871 -0.84857,0.69532 -2.17411,1.48696 -2.94555,1.75921 -1.28244,0.45244 -1.47249,0.43736 -2.22158,-0.17515 -1.69571,-1.38721 -2.02231,-1.87563 -2.38434,-3.56367 -0.33838,-1.57771 -0.29538,-1.85526 0.48162,-3.0861 1.77779,-2.17594 5.55979,-4.40981 8.09154,-2.48312 z m 13.39247,2.95593 c -0.2879,-0.0106 -0.61664,0.0484 -0.97462,0.18441 -0.97145,0.36936 -1.17549,1.31419 -0.54002,2.50164 0.70813,1.32318 2.32378,0.73025 2.66547,-0.97817 0.20603,-1.03028 -0.28718,-1.67798 -1.15083,-1.70788 z m -0.68525,6.92097 c -1.8292,1.13056 -2.68414,2.57678 -2.71454,4.5929 -0.0295,1.95554 0.43172,2.48841 3.06077,3.53827 3.70356,1.06045 5.36255,-0.16219 5.98932,-2.75828 0.54116,-2.25584 0.57068,-2.77548 0.17622,-3.08504 -0.26088,-0.20505 -0.70512,-0.81888 -0.98703,-1.36498 -1.49402,-1.65127 -3.83228,-1.94046 -5.52474,-0.92287 z m 2.62184,1.9423 c 0.5216,0 1.1512,1.05093 0.94797,2.25373 -0.1937,1.1467 -0.35369,1.33879 -1.08209,1.29672 -1.44595,-0.0836 -2.24671,-0.55086 -2.26602,-1.32292 -0.23268,-0.42889 0.98102,-3.05514 2.40014,-2.22753 z m -29.18402,4.90168 c -0.96888,0.30771 -1.1647,1.13691 -0.54983,2.32595 0.31324,0.60589 0.81955,1.03558 1.21954,1.03558 1.41759,0 2.95148,-2.60641 1.68188,-3.39911 -0.78473,-0.52228 -1.72366,-0.17118 -2.35159,0.0376 z m 10.63191,5.7404 c -2.22459,0.99536 -0.64413,3.86238 0.509,3.46789 0.28941,-0.11113 0.66636,-0.20214 0.83768,-0.20214 0.51379,0 1.01896,-1.24593 0.81751,-2.01639 -0.45559,-0.8173 -1.33134,-1.4232 -2.16419,-1.24936 z m 6.81199,6.7138 c -0.41101,0.003 -0.79759,0.12938 -1.05267,0.41116 -0.97579,1.07818 -0.61736,2.61276 0.68627,2.93846 0.38807,0.0968 0.74526,0.19447 0.79375,0.21696 0.34481,0.16007 1.49913,-1.52823 1.49913,-2.1926 0,-0.80142 -1.02229,-1.38245 -1.92648,-1.37398 z" fill="#00B894" overflow="visible" style="isolation:auto;mix-blend-mode:normal;solid-color:#000;solid-opacity:1;marker:none" transform="translate(-215.85702,-125.05047)"/></g></svg>