<?xml version="1.0" ?><svg height="236.38457mm" viewBox="0 0 270.65271 236.38457" width="270.65271mm" xmlns="http://www.w3.org/2000/svg">
    <path d="m 8211.5366,12228.874 c 0,0 -141.029,89.366 -189.054,127.195 -48.026,37.83 -300.438,246.534 -300.438,246.534 l 2.088,6.869 c -12.259,-20.043 -30.57,-35.676 -58.307,-38.828 -40.207,-4.569 -78.181,-3.564 -99.808,34.814 0,0 -14.519,9.776 -17.666,64.785 -2.114,36.935 34.454,56.302 72.234,63.338 l -120.027,136.895 164.101,-134.073 c 2.723,-0.177 5.362,-0.416 7.868,-0.734 44.675,-5.665 75.641,-64.786 64.777,-97.225 -0.828,-2.472 -1.718,-4.934 -2.662,-7.376 9.644,-7.952 269.424,-222.161 294.541,-245.483 25.586,-23.758 182.353,-156.711 182.353,-156.711 z m -416.416,520.024 c -27.302,-0.348 -56.788,6.094 -81.437,22.351 -52.586,34.68 -1.973,110.698 21.033,152.477 23.006,41.779 9.9352,57.073 -12.7428,96.56 -11.9218,14.631 29.6774,15.887 79.2138,17.168 45.9266,1.187 91.532,0.222 98.846,-11.017 7.313,-11.24 23.089,-28.692 20.541,-112.547 -2.547,-83.854 -22.842,-116.759 -51.272,-142.049 -15.103,-13.435 -43.239,-22.55 -74.182,-22.943 z" fill="#FFFFFF" transform="translate(-53.661748,61.495856) matrix(0.26458333,0,0,0.26458333,-1885.2812,-3274.7072)"/>
    <path d="m 7328.2884,13035.654 c 0,-5 23.521,-31.42 73.1554,-82.168 28.7222,-29.368 60.6136,-62.327 70.87,-73.242 97.5394,-103.801 118.4118,-125.36 121.3674,-125.36 4.1366,0 8.1202,7.15 6.0411,10.844 -1.132,2.011 -13.3088,15.196 -27.0596,29.301 -39.5582,40.578 -44.3394,47.458 -13.773,19.816 15.5425,-14.054 38.2613,-33.284 50.4859,-42.732 18.5607,-14.345 23.0114,-16.758 26.9816,-14.634 8.7835,4.7 12.2525,1.039 -49.2516,51.998 -16.7312,13.863 -51.3652,45.579 -76.9644,70.478 -64.0709,62.323 -79.7244,76.586 -131.8083,120.099 -42.9233,35.857 -50.0445,40.924 -50.0445,35.6 z m 569.027,-20.028 c -2.1825,-9.456 -2.0063,-16.85 0.8094,-34.001 9.9525,-60.619 9.5531,-119.352 -1.0004,-147.128 -4.6831,-12.325 -21.2715,-36.04 -26.8475,-38.384 -1.6332,-0.685 -16.1369,1.542 -32.2302,4.951 -34.7472,7.359 -76.9344,9.119 -89.6833,3.741 -11.2582,-4.748 -10.2166,-13.101 1.9883,-15.948 4.7793,-1.114 25.448,-5.713 45.9305,-10.221 20.4825,-4.508 37.2161,-9.182 37.1858,-10.388 -0.1229,-4.879 -27.3654,-13.212 -43.4424,-13.288 -46.61,-0.22 -76.2247,20.481 -84.4994,59.064 -3.4137,15.917 1.5658,29.296 22.0146,59.154 24.6983,36.06 31.2372,56.851 27.5951,87.741 -2.0019,16.978 -13.7711,43.017 -25.5238,56.472 -13.9257,15.941 -15.1293,7.994 -3.7904,-25.031 6.4613,-18.818 7.5013,-24.894 6.2733,-36.645 -1.9988,-19.122 -9.2565,-37.495 -22.9732,-58.154 -15.2239,-22.931 -27.716,-49.041 -29.6573,-61.987 -1.9448,-12.968 4.1061,-37.966 12.7671,-52.745 3.4358,-5.863 11.6763,-14.952 18.3124,-20.197 16.8063,-13.284 52.5763,-27.167 75.1525,-29.167 17.5894,-1.557 19.0267,-2.224 58.3157,-27.052 37.7628,-23.864 77.4496,-44.725 152.7794,-80.306 17.4261,-8.232 32.3744,-16.768 33.2185,-18.967 3.1027,-8.085 -21.4882,-27.394 -42.5582,-33.418 -5.4619,-1.561 -31.1581,-3.871 -57.1025,-5.134 -25.9444,-1.262 -51.2437,-2.955 -56.2203,-3.759 -8.9481,-1.447 -9.117,-1.313 -15.1986,11.971 -6.652,14.529 -15.2866,22.171 -29.4618,26.076 -9.3385,2.571 -24.9389,0.856 -32.9396,-3.62 -3.5392,-1.981 -7.0726,-1.184 -15.4134,3.478 -11.2643,6.296 -18.4175,6.719 -20.2563,1.196 -0.5919,-1.777 5.1568,-9.465 12.775,-17.083 12.7006,-12.701 15.2948,-18.168 8.6201,-18.168 -1.4092,0 -8.8846,4.361 -16.6117,9.69 -28.2634,19.49 -32.6982,15.299 -11.9522,-11.298 7.2982,-9.357 12.8145,-18.338 12.2584,-19.96 0.8789,-15.695 12.9036,-23.107 20.4383,-25.955 6.0498,-2.188 8.8896,-5.003 9.9592,-9.872 1.7026,-7.752 4.7312,-10.727 13.5906,-13.353 3.4137,-1.011 8.0852,-3.486 10.3809,-5.499 2.6179,-2.295 7.8033,-3.344 13.9102,-2.809 9.3399,0.815 11.1919,-0.431 45.4807,-30.603 44.1166,-38.824 78.5313,-66.674 118.9153,-96.24 121.0274,-88.601 212.3426,-150.971 279.3068,-190.77 23.2133,-13.796 44.1613,-25.832 46.5511,-26.746 6.8929,-2.637 7.9895,1.132 0.7965,8.245 -22.5442,22.294 -53.2058,41.989 -75.1837,60.708 -20.1931,17.241 -76.935,64.818 -126.093,105.725 -49.1579,40.909 -112.8398,94.173 -141.5153,118.366 -28.6755,24.192 -67.5257,56.88 -86.3339,72.637 -18.8083,15.758 -33.6718,29.176 -33.0302,29.817 0.6419,0.642 7.0248,-0.239 14.1845,-1.955 17.5803,-4.218 92.0004,-1.715 112.6278,3.787 24.7881,6.614 40.3482,15.14 55.7701,30.562 22.9591,22.961 24.8346,41.81 5.7565,57.863 -9.4212,7.928 -39.21,23.387 -72.6989,37.727 -36.9845,15.836 -75.523,33.509 -113.4253,52.01 l -32.7369,15.98 9.151,4.311 c 5.0329,2.37 14.5388,7.739 21.1241,11.93 l 11.9733,7.621 30.9109,-9.07 c 42.3699,-12.432 89.7012,-29.766 116.4505,-42.644 45.9633,-22.129 73.6053,-44.375 137.6522,-110.775 l 32.575,-34.767 c -0.1447,-30.947 22.487,-75.541 46.7538,-87.649 8.2172,-3.706 10.7714,-3.965 13.8555,-1.404 6.7443,5.597 4.2337,14.045 -8.2548,27.778 -11.1522,12.263 -17.7568,21.813 -17.7568,25.675 0,0.879 5.0141,-3.912 11.1424,-10.647 12.9533,-14.233 32.8189,-25.299 56.5377,-31.493 18.0996,-4.727 24.1808,-3.128 24.1808,6.359 0,5.912 -7.6414,10.657 -25.1525,15.621 -13.3205,3.774 -27.1501,12.094 -24.502,14.738 0.6826,0.682 6.2689,0.268 12.4135,-0.92 15.6553,-3.026 58.9404,-2.895 64.7142,0.196 6.4782,3.467 6.4782,16.22 0,19.687 -2.6413,1.413 -14.6515,2.587 -26.6894,2.607 -27.7802,0.06 -33.3092,3.082 -12.6215,6.927 18.1307,3.368 24.0823,8.709 17.6397,15.827 -3.2996,3.646 -7.9688,4.532 -24.1867,4.594 -16.272,0.06 -19.1524,0.611 -15.1321,2.892 6.5479,3.713 8.6055,7.012 8.6515,13.87 0.056,8.847 -8.7237,10.621 -24.774,5.007 -19.5611,-6.843 -39.0308,-9.737 -53.6916,-7.981 l -12.7116,1.523 -17.4105,23.961 c -9.576,13.18 -26.7589,33.312 -38.1844,44.74 -58.4583,58.466 -104.3624,84.631 -208.0562,118.591 -18.3445,6.007 -33.6347,11.204 -33.9786,11.549 -0.3434,0.342 4.209,8.137 10.1172,17.32 16.6875,25.935 20.0084,42.896 19.8032,101.137 -0.1893,53.668 -3.6458,77.197 -14.6565,99.763 -8.7933,13.917 -19.1655,30.224 -23.1722,12.016 z m 12.4277,-543.931 c 61.9591,-51.002 150.8084,-123.254 202.466,-164.646 23.5548,-18.873 42.8268,-34.757 42.8268,-35.295 0,-3.372 -184.1586,138.518 -220.1281,169.603 -59.0517,51.031 -76.719,67.737 -71.6378,67.737 0.572,0 21.4848,-16.829 46.4731,-37.399 z m -364.2654,228.218 c -11.9923,-25.798 -8.7913,-57.036 0.6693,-79.096 18.323,-45.358 50.4562,-60.68 88.6718,-62.539 35.4986,-1.727 50.0325,1.975 69.7553,12.99 11.7703,6.574 33.2097,32.51 34.3981,37.571 0,0 3.7141,-0.377 9.5175,0.04 13.0415,-1.036 14.7941,13.97 6.8722,16.17 -4.9189,1.287 -5.1472,2.352 -3.2861,15.332 7.3195,51.053 -14.0048,85.637 -62.7868,101.824 -52.4446,14.7 -115.9842,11.681 -143.8113,-42.292 z m 142.4957,14.685 c 16.2408,-6.075 34.1106,-21.769 40.3541,-35.438 4.6422,-10.163 5.9608,-32.992 2.4262,-42.011 -1.4339,-3.661 -4.4322,-4.817 -12.8598,-4.966 -9.0818,-0.168 -11.1155,-1.071 -11.713,-5.244 -0.5469,-3.821 1.4282,-5.828 8.1064,-8.243 l 8.8294,-3.194 c -3.6377,-5.359 -8.4274,-16.743 -14.1892,-20.255 -0.5068,5.799 -6.0393,10.825 -14.6626,4.903 -9.708,-6.667 -1.6022,-13.51 4.4272,-16.146 l -5.8656,-3.843 c -33.3379,-14.949 -75.1912,-15.448 -98.1487,9.109 -11.4877,12.463 -21.534,32.571 -27.348,54.738 -9.5789,36.523 8.4788,62.967 51.4374,75.329 15.1649,4.363 51.5345,1.874 69.2062,-4.739 z m -30.1032,-101.377 c -5.3553,-3.182 -5.5759,-8.154 -0.5467,-12.326 5.817,-4.829 16.6533,0.83 15.613,8.154 -3.2496,7.069 -10.8975,6.505 -15.0663,4.172 z" fill="#00B894" transform="translate(-53.661748,61.495856) matrix(0.26458333,0,0,0.26458333,-1885.2812,-3274.7072)"/>
</svg>