<?xml version="1.0" ?><svg height="299.75201mm" viewBox="0 0 242.3866 299.75201" width="242.3866mm" xmlns="http://www.w3.org/2000/svg">
    <path d="m 9233.3438,9215.8301 c -47.0275,0.5553 -75.0214,15.77 -81.3184,89.3633 -7.2965,91.6627 69.4667,111.1827 114.4453,97.5097 44.9786,-13.6729 96.9606,-49.0251 85.1914,-93.6875 -11.7692,-44.6624 -37.1075,-89.5218 -97.0059,-92.6543 -7.4873,-0.3915 -14.5942,-0.6106 -21.3124,-0.5312 z m 341.0156,106.207 c -12.3083,0.249 -24.8879,3.6423 -37.1758,11.3164 -56.1732,35.0819 -71.3695,81.4567 -39.3848,144.1543 0,0 65.7685,41.7383 118.4434,22.4883 52.675,-19.2501 68.5677,-76.8202 53.9746,-112.082 -11.4009,-27.5484 -51.8992,-66.7661 -95.8574,-65.877 z m -437.9434,103.6055 c -19.7406,-0.1237 -37.5564,5.5214 -47.0019,16.8105 -18.8911,22.5784 -46.878,61.5278 -63.67,155.5293 0,0 -13.928,78.2841 -0.7011,158.6797 13.227,80.3956 44.179,99.6676 96.1543,95.1699 51.9753,-4.4977 113.4456,-38.5894 92.8554,-69.2636 -20.5902,-30.6742 -42.0608,-127.4568 -13.2745,-209.4945 28.7864,-82.0377 28.4684,-106.0626 -5.8153,-129.6305 -17.1418,-11.7839 -38.8063,-17.6771 -58.5469,-17.8008 z" fill="#FFFFFF" transform="translate(-81.723468,67.353819) matrix(0.28906829,0,0,0.28906829,-1109.6708,-1482.1604) translate(-4730.5688,-4305.3989)"/>
    <path d="m 4510.689,4894.3769 v 0 c -46.799,-0.58 -102.034,27.098 -109.338,85.261 -6.343,42.305 6.309,88.352 29.986,109.145 46.531,37.127 102.544,26.602 139.592,10.699 39.82,-19.48 62.073,-44.772 67.112,-76.271 2.096,-13.098 0,-21.897 0,-21.897 18.7,-6.405 6.415,-23.942 -6.045,-22.137 0,0 -2.835,-7.806 -9.313,-20.255 -13.594,-26.117 -40.142,-45.517 -81.642,-59.661 -9.208,-3.116 -19.558,-4.753 -30.358,-4.886 z m -0.601,22.586 c 9.544,0.474 24.878,4.425 38.013,9.269 24.584,9.067 39.789,27.841 47.815,46.473 2.549,6.642 3.677,10.062 3.677,10.062 -17.036,4.432 -9.101,23.154 9.5,20.85 0,0 0.993,6.088 0.993,16.016 0,17.57 -17.778,36.883 -48.278,52.443 -36.625,18.116 -75.096,19.195 -106.244,-8.449 -28.311,-28.52 -32.332,-85.289 3.467,-120.469 20.737,-18.734 35.15,-26.985 51.057,-26.195 z m 61.562,36.986 c -8.078,-0.767 -12.338,15.459 -4.213,23.469 5.591,5.505 8.775,6.803 15.281,-2.086 2.096,-2.864 1.336,-11.93 -1.507,-15.826 -2.843,-3.896 -7.276,-5.34 -9.561,-5.557 z m -31.334,3.447 c -8.778,0 -12.125,18.705 -4.674,26.153 6.618,6.618 12.568,4.606 16.475,-5.575 4.582,-11.939 -0.374,-20.578 -11.801,-20.578 z m 274.055,54.576 c -93.873,25.275 -104.696,168.595 -15.209,201.448 14.844,5.451 39.44,8.542 59.824,7.519 27.983,-1.399 38.964,-5.233 57.34,-20 29.132,-23.414 45.228,-52.007 43.564,-88.414 -3.739,-81.821 -81.47,-117.58 -145.519,-100.553 z m -276.551,7.247 c -27.172,-0.915 -56.741,20.515 -42.102,38.156 8.366,10.078 43.501,11.485 60.442,2.418 15.216,-8.14 14.953,-27.787 -0.485,-36.049 -5.442,-2.912 -11.585,-4.314 -17.855,-4.525 z m 284.338,16.734 c 5.265,-0.127 11.395,24.994 7.601,31.137 -5.871,9.498 -19.683,4.935 -23.734,-7.836 -3.682,-11.599 4.222,-23.03 16.133,-23.301 z m 33.158,0.418 v 0 c 1.271,-0.204 2.968,-0.03 5.139,0.402 6.347,1.273 16.298,16.456 25.117,38.326 8.031,19.918 19.902,43.007 26.375,51.305 10.779,13.816 11.808,14.074 11.848,3.02 0.04,-6.641 -6.692,-26.605 -14.959,-44.36 -17.963,-38.589 -18.035,-39.162 -4.041,-31.674 6.048,3.237 16.011,17.018 22.15,30.627 10.865,24.152 10.856,25.406 -0.453,52.682 h 0.02 c -6.369,15.365 -14.491,28.911 -18.054,30.096 -3.559,1.187 -9.746,-12.011 -13.743,-29.319 -3.993,-17.312 -13.839,-40.096 -21.875,-50.631 -8.035,-10.534 -16.475,-26.582 -18.751,-35.664 -2.569,-10.233 -2.588,-14.2 1.226,-14.81 z m -318.389,6.299 c 3.283,0.04 6.341,0.478 8.385,1.304 -0.983,3.475 -7.32,2.811 -10.678,2.782 -9.96,-0.127 -13.3,-1.477 -7.429,-3.008 2.936,-0.763 6.44,-1.119 9.722,-1.078 z m 250.411,27.156 c 2.268,0.52 3.832,2.845 3.832,7.191 0,2.327 -5.365,7.581 -11.924,11.678 -11.142,6.957 -11.482,6.472 -5.153,-7.412 3.724,-8.174 9.463,-12.324 13.245,-11.457 z m 56.173,14.328 c 23.56,0 15.878,16.41 -12.81,27.371 -14.777,5.64 -31.495,15.374 -37.154,21.621 -5.654,6.252 -12.418,11.365 -15.03,11.365 -7.04,0 -12.702,-11.261 -8.822,-17.546 7.388,-11.947 60.597,-42.811 73.816,-42.811 z m -434.011,18.867 c -46.988,-0.148 -77.23,29.773 -108.496,105.576 -22.073,53.533 -25.048,103.069 -19.756,162.27 -0.122,107.709 0.702,116.242 13.531,140.248 7.511,14.062 21.092,30.218 30.178,35.9 9.086,5.685 17.429,10.933 18.539,11.663 4.101,2.702 30.923,114.536 31.058,129.412 0.219,27.764 -55.039,69.553 -162.851,123.15 -38.177,18.977 -74.168,38.764 -79.981,43.975 -24.727,22.16 -4.439,45.303 59.075,67.382 v 0.03 c 43.914,15.26 74.638,10.081 75.14,-12.672 0.236,-10.747 -29.485,-35.819 -51.215,-43.197 l -24.146,-8.204 63.379,-30.253 c 80.841,-38.592 148.176,-86.087 161.418,-113.856 8.832,-18.521 9.094,-26.022 2.248,-64.547 -15.133,-85.169 -15.309,-88.863 -4.209,-88.863 5.578,0 21.382,-5.434 35.127,-12.074 13.744,-6.637 27.102,-12.071 29.687,-12.071 2.585,0 33.13,13.573 67.871,30.166 40.408,19.299 64.515,34.415 66.91,41.952 3.567,11.251 -2.849,26.551 -25.738,61.378 -28.358,43.143 -60.966,101.306 -68.168,121.588 -6.914,19.466 -6.785,23.972 0.889,31.645 7.895,7.881 14.878,7.895 59.275,0.09 57.643,-10.136 69.773,-16.922 60.664,-33.944 -4.427,-8.275 -12.744,-11.439 -30.056,-11.439 -13.934,0 -23.93,-2.885 -23.93,-6.904 0,-3.799 13.283,-28.978 29.521,-55.955 38.007,-63.149 47.35,-92.94 36.993,-117.944 -19.072,-39.549 -68.714,-59.742 -108.014,-75.888 -36.669,-16.463 -57.8669,-33.1447 -69.2547,-74.7704 -12.7065,-46.4457 -31.3205,-107.9554 10.4382,-182.1376 41.5702,20.3977 71.7614,28.4079 106.3765,37.5223 47.381,12.383 75.44,15.953 126.76,16.089 59.3,0.168 71.809,9.1447 93.535,22.5267 19.326,11.906 32.201,14.902 64.543,14.902 34.927,0.03 41.676,-1.788 49.797,-13.386 17.104,-24.415 9.023,-59.016 -13.779,-59.016 -4.777,0 -11.704,-4.088 -15.393,-9.076 -11.11,-15.048 -41.246,-20.557 -65.968,-12.055 -23.65,8.126 -40.884,5.699 -154.789,-21.812 -55.897,-13.5 -61.535,-15.896 -105.86,-44.981 -16.596,-10.892 -37.646,-21.667 -46.777,-23.939 -9.131,-2.273 -16.602,-6.556 -16.602,-9.516 0,-2.956 -10.198,-15.565 -22.662,-28.014 -18.659,-20.987 -54.633,-30.634 -75.308,-30.951 z m 459.857,11.311 c 4.5,0 18.389,45.318 18.389,60.013 0,3.545 -11.409,6.226 -25.651,6 -19.603,-0.29 -22.758,-1.558 -13.373,-5.361 6.754,-2.738 15.89,-9.322 20.299,-14.637 13.464,-16.221 -6.853,-18.432 -38.945,-4.24 -31.192,13.799 -38.906,15.229 -38.906,7.221 0,-5.483 69.437,-48.996 78.187,-48.996 z m -475.605,13.517 c 6.023,-0.07 16.615,0.09 32.011,5.629 33.6,12.082 63.6,45.74 63.6,65.569 0,15.324 -7.322,15.048 -21.686,-0.828 -21.35,-23.581 -68.855,-39.836 -68.855,-23.541 0,5.372 26.655,37.646 55.918,67.71 10.173,10.454 10.113,11.97 -1.264,34.27 -27.583,54.076 -26.519,134.175 2.473,186.051 7.578,13.61 21.935,27.216 0.217,36.347 -6.642,4.11 -18.864,11.235 -27.162,15.834 -32.676,18.118 -40.972,17.817 -51.149,-1.867 -10.576,-20.448 -29.394,-24.425 -38.512,-8.137 -9.09,16.249 -21.856,0.939 -31,-37.179 -9.992,-41.654 -4.794,-171.84 8.914,-223.205 12.123,-45.433 37.67,-92.601 58.413,-107.858 7.906,-5.814 12.058,-8.723 18.082,-8.795 z m 124.285,77.155 c 2.491,0.07 23.347,12.318 46.349,27.216 23.002,14.904 52.881,29.93 66.395,33.397 13.518,3.469 27.293,7.301 30.611,8.519 17.792,6.532 -23.718,0.663 -58.232,-8.238 -63.026,-16.247 -89.649,-30.164 -89.649,-46.851 0,-7.797 2.036,-14.133 4.526,-14.043 z" fill="#00B894" transform="translate(-81.723468,67.353819) matrix(0.28906829,0,0,0.28906829,-1109.6708,-1482.1604)"/>
</svg>