<?xml version="1.0" ?><svg height="137.24007mm" viewBox="0 0 138.47557 137.24007" width="138.47557mm" xmlns="http://www.w3.org/2000/svg">
    <path d="m -937.25583,1331.7122 c -10.25723,-8.5485 -26.38517,-33.8376 -18.13978,-66.6958 8.24537,-32.8581 60.48796,-55.0603 91.25966,-40.7832 30.77171,14.2771 48.5157,50.1925 32.32182,84.2675 -16.1939,34.0752 -40.23738,41.8222 -65.46818,41.8222 -25.2308,0 -39.97352,-18.6107 -39.97352,-18.6107 z" fill="#FFFFFF" transform="translate(-23.703798,-23.495385) translate(984.62483,-1193.2197)"/>
    <path d="m -907.79912,1351.6501 c -15.73468,-4.1227 -29.50562,-13.8261 -38.17567,-26.9003 -8.82416,-13.307 -14.87714,-29.2879 -14.9458,-44.9332 -0.0988,-22.5213 16.38724,-44.5769 33.22269,-52.9068 21.96928,-10.87 50.86605,-14.8731 70.84718,-2.8295 23.22855,14.001 35.03768,34.814 34.37915,61.3747 -0.69244,27.9281 -14.66902,48.1422 -37.22661,59.8556 -18.19003,9.4455 -32.3293,10.4717 -48.10094,6.3395 z m 35.55238,-8.3862 c 8.24693,-2.9954 19.11649,-10.1167 21.51034,-13.0013 1.10732,-1.3344 0.57055,-1.9223 -4.14406,-8.9035 -4.53906,-6.7214 -6.03361,-8.2299 -7.71768,-7.7891 -8.24906,2.1586 -17.16857,3.6383 -21.92761,3.6383 -4.90686,0 -5.69304,0.2931 -6.31197,2.3498 -0.389,1.2921 -3.0694,6.3102 -5.95649,11.1508 l -5.24944,8.8016 4.58076,4.005 c 4.49678,3.9317 4.69543,3.9929 10.8463,3.3485 3.4462,-0.3612 9.91276,-1.9813 14.36985,-3.6001 z m -31.60026,2.2677 c 0,-2.0492 -2.95639,-3.2437 -6.34952,-2.5649 l -3.51585,0.7031 3.62743,1.3098 c 4.42867,1.5991 6.23794,1.7592 6.23794,0.552 z m -39.69865,-33.0975 c 0,-1.1899 0.75184,-4.3226 1.65091,-6.9613 1.59546,-4.683 1.57213,-4.8971 -0.98637,-8.9498 -1.44136,-2.2834 -3.42524,-6.6695 -4.40853,-9.7469 -0.98341,-3.0773 -1.88414,-5.7258 -2.002,-5.8856 -0.11846,-0.1599 -1.4827,0.1923 -3.03351,0.7818 -2.66771,1.0144 -2.7838,1.3395 -2.14853,6.0339 0.94219,6.9649 4.12412,18.6378 6.7518,24.7679 1.70681,3.9818 2.44834,4.8307 3.19164,3.655 0.53281,-0.8422 0.97595,-2.505 0.98459,-3.695 z m 80.53517,-4.4259 c 4.842,-6.9771 6.63084,-12.4106 8.39346,-20.1759 l -4.19246,-5.4141 c -2.3056,-2.978 -6.46549,-7.6448 -9.24361,-10.3706 -4.65313,-4.5657 -5.29551,-4.8771 -8.15228,-3.9512 -1.70563,0.5526 -7.71128,1.8433 -13.34558,2.8678 -10.43552,0.6446 -10.77614,3.2139 -14.35468,12.3051 -2.26071,5.7435 -4.11227,11.0185 -4.11429,11.7221 0,0.704 3.63774,5.1702 8.08891,9.9257 7.2469,10.0461 10.77373,8.1865 22.19082,6.2288 7.7538,-1.3296 14.38217,-2.7417 14.72971,-3.1377 z m -61.32265,-10.3162 c 9.06106,-1.7365 9.31089,-1.8637 10.77735,-5.4894 0.82587,-2.0415 3.16831,-7.3136 5.20573,-11.7159 5.10677,-8.1667 2.3796,-9.8018 -2.94502,-17.0247 -4.47056,-7.1009 -5.44947,-9.1422 -13.29558,-8.3474 -12.50242,1.2664 -13.37448,1.8939 -18.15519,13.0646 -5.38497,9.077 -3.21507,11.8017 1.3614,20.5725 3.07176,5.8872 6.07779,10.7072 6.68013,10.7108 0.60246,0 5.26945,-0.7927 10.37118,-1.7705 z m 79.44171,-16.4443 c 2.95746,-1.3989 7.58453,-3.0996 10.28245,-3.7789 5.49369,-1.3833 5.51596,-1.4481 3.7703,-10.9771 -1.32551,-7.2367 -5.70158,-15.8778 -11.17489,-22.0659 -4.48102,-5.0664 -7.27549,-5.6142 -17.71264,-3.4729 l -6.52685,1.3392 v 8.7742 c 0,5.2069 -0.60152,10.2132 -1.47915,12.3142 -1.47535,3.5307 -1.4686,3.5475 2.48495,6.164 2.18051,1.443 6.25333,5.2329 9.0504,8.4222 2.79707,3.189 5.27538,5.8042 5.50708,5.8117 0.23086,0 2.84113,-1.1317 5.79835,-2.5307 z m -72.79226,-30.8652 c 1.20734,-6.0334 5.20897,-9.4345 8.65192,-12.7502 7.68522,-7.3602 8.28496,-8.2248 7.06298,-10.1818 -1.78831,-2.8634 -3.76413,-2.7071 -13.11317,1.0364 -9.11117,3.648 -20.83984,11.1159 -24.74197,15.7532 l -2.67565,3.1802 2.21451,3.1099 c 1.50259,2.1106 2.76354,2.8977 3.92369,2.4499 6.52019,-1.1498 11.65122,-2.085 18.67769,-2.5976 z m 49.68792,-13.0107 c 1.05212,-0.7972 4.22421,-2.004 7.04912,-2.6817 3.02616,-0.7261 5.13643,-1.8149 5.13643,-2.6504 -7.0514,-5.669 -22.14929,-12.6105 -41.04015,-8.8164 -0.26652,0.2873 -0.26356,1.9712 0,3.742 0.46908,3.0759 1.03518,3.4104 12.66849,7.483 13.9998,4.9011 13.65166,4.8384 16.17818,2.9235 z" fill="#00B894" transform="translate(-23.703798,-23.495385) translate(984.62483,-1193.2197)"/>
</svg>