<?xml version="1.0" ?><svg height="428.87851mm" viewBox="0 0 339.76675 428.87851" width="339.76675mm" xmlns="http://www.w3.org/2000/svg">
    <path d="m -6890.6549,-11862.603 c -34.8669,-0.27 -70.5825,1.562 -107.5469,5.125 -147.8576,14.252 -294.0877,78.588 -412.4922,227.373 -118.4045,148.784 -146.0119,294.729 -122.7031,459.059 70.4074,496.382 249.6677,755.571 490.2483,969.314 143.9072,127.854 326.3527,143.995 393.1033,156.783 66.7505,12.787 108.6362,6.127 53.5781,-13.72 -55.058,-19.847 -240.2121,-139.197 -312.8828,-191.811 -72.6708,-52.614 -166.2108,-154.634 -196.2559,-190.598 -30.0452,-35.963 -63.6425,-106.035 -67.6386,-135.605 -3.9961,-29.57 15.9511,-59.061 15.9511,-59.061 0,0 -98.8393,-197.497 -110.6797,-227.068 -11.8405,-29.57 -66.1595,-217.78 -63.9394,-384.547 2.22,-166.766 67.6384,-226.44 111.7441,-275.324 44.1056,-48.885 167.6396,-94.327 240.9024,-109.912 73.2627,-15.584 235.3284,14.918 284.3183,41.025 48.9899,26.107 73.412,63.269 98.1289,123.742 24.7169,60.472 13.6155,177.823 7.6953,257.077 0,0 -7.9848,50.379 39.377,55.84 47.3617,5.461 40.5547,-35.432 40.5547,-35.432 0,0 0.2956,-16.383 16.5762,42.625 16.2806,59.007 47.3613,53.678 47.3613,53.678 0,0 -0.7385,31.159 27.3789,33.976 44.7857,4.488 30.7871,-54.088 28.123,-84.457 -2.6642,-30.37 26.6414,-30.503 30.9336,-7.726 5.3048,20.514 61.0437,56.417 63.6426,5.593 l 9.6211,8.793 c 0,0 51.3581,26.64 68.9707,-0.666 17.6127,-27.306 14.5119,-52.488 -23.4551,-79.877 -84.8756,-61.228 -82.3698,-210.1 -108.7148,-290.552 -26.345,-80.453 -106.7118,-219.584 -240.2129,-284.452 -100.1258,-48.651 -197.0869,-68.383 -301.6875,-69.195 z m 109.3711,558.317 c -91.2624,2.264 -106.0253,42.575 -132.8672,114.441 -26.8418,71.866 70.459,101.156 70.459,101.156 0,0 -19.1253,13.136 -25.668,67.035 -6.5427,53.9 14.0922,57.071 47.6445,65.073 33.5524,8.002 60.0597,24.912 64.086,76.849 4.0262,51.937 -21.138,41.971 -39.5918,78.961 -18.4538,36.99 10.7366,93.759 44.1211,115.047 0,0 30.1962,43.826 108.6875,12.539 127.4545,-50.804 93.9688,-183.296 76.6894,-255.615 -17.2795,-72.32 -83.5456,-150.981 -107.8711,-171.363 -24.3254,-20.382 -64.7558,-29.29 -64.7558,-29.29 0,0 28.351,-22.496 42.1074,-69.753 13.7564,-47.256 8.2213,-107.345 -83.041,-105.08 z m -238.6543,580.847 c -4.1226,-0.08 -8.0651,0.106 -11.7559,0.578 -29.526,3.774 -90.7577,40.764 -117.5996,95.117 -18.7893,54.805 -21.4749,58.279 46.3008,178.006 67.7757,119.726 275.6325,242.623 375.1152,311.772 99.4826,69.148 237.7441,118.519 314.5528,106.138 76.8087,-12.381 131.3579,-55.408 150.8183,-72.318 19.4603,-16.91 10.5694,-61.298 -12.2461,-81.529 -22.8156,-20.231 -157.0259,-116.405 -185.8808,-143.129 -28.855,-26.723 -220.2708,-150.829 -248.1192,-168.041 -27.8484,-17.211 -92.2679,-72.922 -106.8632,-88.775 -14.5953,-15.853 -90.5917,-93.004 -115.7559,-109.612 -22.0188,-14.532 -59.7081,-27.677 -88.5664,-28.207 z" fill="#FFFFFF" transform="translate(-13.100527,180.1546) matrix(0.23152081,0,0,0.23152081,1758.9935,2568.1758)"/>
    <path d="m -6491.8597,-10020.26 c -54.8474,-7.303 -121.2193,-35.833 -234.6276,-100.849 -70.2178,-40.256 -125.0141,-77.214 -183.3508,-123.664 -142.9968,-113.854 -233.7433,-218.765 -265.5828,-307.031 -8.1159,-22.499 -8.5547,-26.544 -5.0261,-46.346 7.3963,-41.506 36.0984,-87.05 71.8641,-114.038 26.6712,-20.122 52.243,-28.004 90.8689,-28.004 27.2037,0 32.5887,1.192 54.7995,12.129 13.5472,6.672 32.2259,19.236 41.5086,27.917 28.5993,26.752 23.3071,27.819 -38.4106,7.739 -47.6671,-15.506 -64.6604,-17.049 -93.5182,-8.477 -34.3475,10.199 -65.6438,37.896 -89.2265,78.964 -10.0318,17.471 -11.3483,22.865 -11.3061,46.319 0.077,42.807 16.5226,70.849 90.21,153.805 68.7075,77.35 194.1196,181.425 289.4744,240.229 57.5275,35.475 159.3627,91.46 191.8124,105.45 64.7122,27.898 87.0777,32.841 148.6077,32.846 48.2334,0 57.2164,-0.937 74.3315,-7.77 22.4576,-8.968 21.2375,-8.699 21.2375,-4.678 0,5.602 -47.3637,27.954 -67.2522,31.74 -31.3447,5.965 -60.2119,7.208 -86.4137,3.719 z m 164.2911,-44.753 c 0,-1.46 6.8324,-6.968 15.1756,-12.238 8.3429,-5.269 21.8789,-15.777 30.08,-23.348 12.7697,-11.789 14.9112,-15.811 14.9112,-28.007 0,-18.654 -17.7997,-41.206 -55.2694,-70.028 -15.1857,-11.681 -47.8947,-37.49 -72.6864,-57.355 -24.7919,-19.862 -71.8477,-56.309 -104.5684,-80.989 -63.761,-48.095 -89.579,-70.772 -89.579,-78.685 0,-6.645 3.888,-4.898 50.5318,22.7 53.1489,31.445 93.1066,59.231 178.6406,124.224 101.853,77.392 124.8044,103.028 124.7739,139.361 -0.027,28.453 -16.7918,45.629 -58.5865,60.006 -21.2222,7.303 -33.4343,8.896 -33.4234,4.359 z m -220.289,-18.835 c -11.9074,-6.939 -18.0764,-39.993 -15.5895,-83.535 1.2456,-21.808 3.8472,-43.816 5.7814,-48.902 3.1097,-8.179 -3.0046,-22.244 -52.7984,-121.455 -31.5981,-62.956 -58.7912,-121.805 -61.9558,-134.078 -5.0851,-19.722 -12.4768,-112.992 -12.604,-159.038 l -0.05,-18.089 -18.5516,-2.198 c -34.3581,-4.069 -73.3996,-28.641 -99.1425,-62.401 l -9.3713,-12.291 -9.4322,8.75 c -40.3848,37.465 -126.364,167.203 -120.6593,182.069 1.1702,3.05 14.7842,5.031 43.5941,6.342 49.2151,2.243 69.657,7.948 139.1737,38.844 48.1655,21.407 56.6913,27.21 56.6913,38.588 0,3.412 -14.7707,19.061 -32.8237,34.777 -18.0533,15.716 -39.6227,37.097 -47.9322,47.508 -22.7159,28.469 -46.1378,38.159 -52.453,21.702 -2.4192,-6.304 9.6323,-21.696 53.0153,-67.713 l 30.4295,-32.278 -32.2599,-14.989 c -54.7828,-25.453 -94.2159,-35.493 -139.385,-35.493 -18.8123,0 -42.9793,-9.066 -47.7033,-17.893 -7.3148,-13.666 -3.5069,-31.184 14.3467,-66.003 25.1169,-48.982 59.7482,-96.459 98.8859,-135.56 l 33.657,-33.627 0.085,-23.005 c 0.1062,-28.172 8.3193,-43.322 31.395,-57.907 17.9747,-11.362 19.1125,-13.367 22.1234,-38.984 1.8126,-15.424 0.5166,-22.252 -7.9686,-41.979 -10.9665,-25.496 -13.7285,-27.365 -40.5812,-27.444 -47.5348,-0.133 -78.2897,-62.893 -54.5649,-111.336 l 8.5648,-17.486 -9.5603,-5.84 c -12.1264,-7.407 -34.6881,-32.316 -37.6107,-41.525 -1.8745,-5.907 -6.5746,-7.399 -29.5645,-9.384 -21.8561,-1.888 -37.2688,-0.505 -76.8898,6.91 -82.5197,15.437 -93.7607,16.655 -137.9555,14.964 -32.346,-1.237 -46.9633,-3.422 -60.8907,-9.097 -18.4039,-7.5 -85.2,-47.004 -102.5434,-60.647 -5.1039,-4.014 -13.2315,-7.3 -18.062,-7.3 -4.8302,0 -16.4034,-5.594 -25.7184,-12.432 -9.3148,-6.839 -24.2618,-15.674 -33.2153,-19.634 -17.5253,-7.752 -20.5933,-14.93 -9.0271,-21.121 7.661,-4.099 28.2964,0.472 38.457,8.519 11.3579,8.996 -4.0991,-12.631 -24.9876,-34.96 -13.6666,-14.609 -20.7501,-24.92 -19.4496,-28.31 2.8352,-7.388 12.4673,-6.636 26.7798,2.09 l 12.1237,7.39 -5.9295,-9.05 c -12.3982,-18.922 -2.3019,-29.958 15.4203,-16.854 12.6111,9.323 14.0463,9.373 14.0463,0.478 0,-3.895 2.1115,-7.08 4.6924,-7.08 7.7894,0 18.9896,14.55 31.3305,40.704 9.5112,20.157 11.9267,30.059 12.9525,53.094 -3.8035,36.276 19.966,37.528 49.5894,52.114 26.5804,13.088 54.6995,25.422 62.4865,27.413 31.0369,7.927 60.0656,4.953 185.8286,-19.024 26.2814,-5.012 55.3504,-9.127 64.5977,-9.145 15.6367,-0.03 16.813,-0.661 16.813,-9.026 0,-4.946 -3.4835,-13.704 -7.7413,-19.462 -5.2853,-7.149 -7.812,-15.806 -7.9641,-27.29 -0.2655,-19.982 -6.9885,-27.057 -29.2919,-30.811 -45.402,-7.645 -73.8213,-65.809 -61.4775,-125.819 2.2026,-10.709 4.5661,-31.554 5.2523,-46.324 1.9905,-42.834 12.8158,-54.217 26.5337,-27.898 9.443,18.115 9.4866,35.264 0.1195,47.173 -5.1055,6.489 -7.5895,15.461 -8.2192,29.677 -0.7882,17.805 0.322,21.803 8.7915,31.668 5.8842,6.855 11.317,19.111 13.8241,31.19 4.0234,19.379 4.3919,19.839 14.1952,17.686 6.2067,-1.365 14.1615,-0.08 20.7517,3.315 10.0536,5.198 12.2185,4.975 36.539,-3.785 14.2191,-5.121 33.1444,-24.889 49.6919,-33.328 37.6402,-19.194 68.2575,-16.238 86.7385,-10.212 7.3192,2.387 14.1044,5.387 15.0776,6.666 0.9735,1.282 7.7156,5.941 14.9825,10.359 18.8909,11.479 36.8815,33.937 45.4981,56.8 6.1013,16.185 7.1979,25.556 6.0819,51.963 -1.1906,28.177 -2.8968,35.278 -13.609,56.635 -6.7366,13.427 -12.779,25.61 -13.428,27.07 -0.6488,1.46 2.721,2.655 7.4886,2.655 4.7676,0 19.9439,5.641 33.725,12.535 27.7208,13.868 49.2568,35.164 72.1376,71.334 11.0701,17.5 18.2978,24.426 35.7999,34.307 43.3241,24.46 70.9072,52.528 116.7639,118.821 53.7929,77.764 72.7084,112.944 116.0779,215.87 14.0572,36.739 16.7018,62.162 53.7352,72.852 33.3645,9.629 41.451,15.602 61.6771,45.56 12.6746,18.774 16.5435,27.768 16.7487,38.937 0.2443,13.302 -0.5537,14.617 -9.5048,15.647 -8.2123,0.945 -9.6551,2.654 -9.0406,10.719 0.9337,12.254 -2.8177,18.243 -11.4261,18.243 -4.7171,0 -10.0461,-6.262 -17.3189,-20.353 l -10.5052,-20.351 -0.1699,17.046 c -0.1911,19.098 -4.9632,30.738 -12.6018,30.738 -8.7775,0 -14.8913,-14.723 -20.6289,-49.677 -7.8818,-48.018 -12.4423,-57.883 -12.73,-27.54 -0.3595,37.901 -10.2769,53.007 -25.0819,38.201 -5.9542,-5.954 -6.9598,-11.622 -6.7365,-37.97 0.1433,-17.035 1.3857,-38.14 2.759,-46.9 2.376,-15.159 0.5976,-19.86 -36.8291,-97.34 -43.7858,-90.642 -65.6366,-128.609 -108.64,-188.765 -28.3962,-39.719 -74.9269,-92.351 -78.4943,-88.786 -0.9716,0.972 1.2902,11.588 5.0262,23.592 18.9343,60.835 22.5896,153.98 7.5098,191.364 -17.4692,43.311 -43.2935,73.469 -75.6463,88.34 l -20.3528,9.355 0.032,42.624 c 0.04,56.837 5.8156,119.953 12.9684,141.732 8.0525,24.516 85.2121,179.059 103.2157,206.729 17.0006,26.13 17.0712,26.865 8.924,92.914 -3.2048,25.982 -5.9922,54.405 -6.1942,63.166 -0.5442,23.571 -6.2616,29.377 -20.6634,20.985 z m -130.5818,-618.292 c 2.2087,-11.194 7.0721,-25.368 10.8075,-31.495 l 6.7918,-11.144 -14.796,-2.217 c -17.77,-2.665 -47.1832,-16.045 -57.8978,-26.337 -4.2651,-4.096 -12.7264,-14.675 -18.803,-23.507 -7.0997,-10.319 -12.5511,-15.084 -15.2528,-13.33 -2.3122,1.5 -7.2908,2.727 -11.0634,2.727 -17.6368,0 -25.2496,41.039 -8.4287,45.437 5.8847,1.54 6.8613,3.722 4.9946,11.161 -2.8188,11.229 5.8342,24.593 26.5419,40.994 16.4968,13.066 50.2313,27.855 63.8165,27.98 8.4806,0.08 9.6169,-1.656 13.2894,-20.269 z m 73.8815,-2.203 c 13.2721,-9.01 17.8047,-15.026 24.347,-32.308 4.4214,-11.68 8.1209,-24.094 8.2213,-27.582 0.1646,-5.71 -1.3194,-5.474 -14.8607,2.365 -8.2737,4.79 -21.8126,10.494 -30.0865,12.674 -11.9456,3.151 -15.051,5.578 -15.0816,11.795 -0.027,4.303 -2.4102,15.647 -5.3094,25.203 -7.7262,25.467 -7.2977,27.206 5.5953,22.711 5.9765,-2.081 18.2051,-8.768 27.1746,-14.858 z m -9.7242,-77.225 c 6.8138,-2.047 19.9546,-7.762 29.2017,-12.705 15.4941,-8.28 16.8129,-10.032 16.8129,-22.326 0,-42.462 -17.3349,-123.831 -33.2267,-155.961 -9.7536,-19.719 -13.862,-24.012 -35.7953,-37.391 -13.6274,-8.312 -27.0864,-18.501 -29.9089,-22.64 -4.6112,-6.761 -4.4315,-8.041 1.7696,-12.591 3.796,-2.785 9.6891,-4.338 13.0962,-3.454 3.4067,0.884 6.1942,0.396 6.1942,-1.088 0,-5.708 -38.6904,-38.918 -58.1057,-49.877 -11.209,-6.326 -21.2241,-13.7 -22.2559,-16.39 -2.5504,-6.644 -10.1028,-0.239 -17.1138,14.548 -4.9707,10.476 -4.6123,13.568 5.5255,47.692 6.7572,22.748 14.6985,41.344 21.0833,49.369 16.9316,21.291 49.985,75.935 52.0211,86.004 2.14,10.582 6.13,11.798 51.5866,15.735 19.3464,1.677 27.432,3.772 27.432,7.106 0,5.607 -18.02,15.525 -35.3225,19.443 -22.3876,5.068 -74.8287,-5.288 -117.4634,-23.199 -5.0864,-2.137 -5.6335,-0.544 -3.9993,11.641 1.1559,8.617 -0.4999,21.726 -4.2507,33.651 l -6.1443,19.536 17.0293,19.724 c 30.9018,35.793 73.9984,47.527 121.8341,33.173 z m -74.3315,-135.448 c 0,-0.887 -4.4999,-9.249 -9.9999,-18.583 -5.5,-9.331 -17.6723,-31.827 -27.0498,-49.988 -10.8776,-21.067 -18.0309,-31.434 -19.7599,-28.639 -3.6638,5.928 -12.1243,73.546 -9.5272,76.142 2.2543,2.257 59.3776,22.56 63.6821,22.637 1.4601,0 2.6547,-0.68 2.6547,-1.569 z m -87.4632,-52.364 c 1.1094,-10.22 6.049,-32.331 10.9772,-49.136 8.0371,-27.404 8.5601,-32.7 5.0792,-51.418 l -3.8809,-20.869 -19.2776,9.724 c -10.6025,5.347 -24.6281,10.728 -31.1677,11.954 -11.2994,2.119 -12.0056,3.154 -14.2122,20.816 -1.837,14.702 -0.872,21.466 4.62,32.384 3.818,7.593 8.8885,20.176 11.2676,27.962 3.7099,12.143 25.3707,36.94 32.4178,37.113 1.1877,0.03 3.0673,-8.309 4.1766,-18.53 z m -65.4616,-23.101 c -8.6009,-17.354 -11.9227,-21.214 -15.6154,-18.15 -3.8475,3.194 -3.4455,6.334 2.2368,17.47 5.9208,11.607 20.6076,26.417 23.4131,23.614 0.4898,-0.491 -4.0256,-10.81 -10.0345,-22.934 z m -5.184,-63.62 c 1.2583,-6.61 0.7218,-11.502 -1.2613,-11.502 -1.8981,0 -3.4511,5.84 -3.4511,12.978 0,15.169 1.6419,14.657 4.7124,-1.476 z m 52.7495,-52.212 c 10.8142,-5.296 27.1754,-17.017 36.3582,-26.048 14.8225,-14.58 15.8565,-16.549 9.2139,-17.556 -9.8022,-1.484 -25.9833,-22.697 -23.0812,-30.26 4.698,-12.244 21.9265,-4.779 31.2649,13.546 l 5.3356,10.471 7.6671,-17.333 c 9.6668,-21.853 12.4646,-55.584 6.1708,-74.4 -3.9483,-11.803 -7.9306,-15.777 -23.9533,-23.893 -33.5532,-16.995 -68.3462,-10.929 -106.9699,18.65 -36.0611,27.614 -37.6202,29.459 -40.3646,47.76 -6.975,46.513 5.6157,94.558 27.7559,105.915 15.977,8.195 45.7799,5.304 70.6026,-6.852 z m -44.8091,-19.172 c -3.3784,-3.733 -5.6163,-10.502 -4.9733,-15.042 1.0351,-7.308 3.3428,-8.381 20.0743,-9.339 19.9827,-1.142 35.9589,5.577 35.9589,15.121 0,15.01 -39.3928,22.153 -51.0599,9.26 z m 26.2826,-10.497 c 0,-1.72 -3.9821,-3.889 -8.8489,-4.818 -9.0815,-1.737 -12.351,2.402 -4.4246,5.601 7.2293,2.915 13.2735,2.559 13.2735,-0.783 z m 5.6077,-66.394 c -2.7574,-7.186 6.8091,-22.509 14.0529,-22.509 6.9195,0 9.9987,8.328 7.2006,19.475 -2.5971,10.348 -17.6234,12.493 -21.2535,3.034 z m 46.3064,3.448 c -3.8458,-3.846 -2.6908,-17.13 1.8878,-21.71 10.3859,-10.385 24.2312,3.459 16.99,16.99 -3.6828,6.881 -14.1091,9.488 -18.8778,4.72 z m -196.5897,1002.209 c -47.7208,-27.28 -116.8836,-98.256 -175.0581,-179.649 -46.775,-65.446 -134.6532,-258.811 -182.4273,-401.411 -18.2556,-54.49 -39.6782,-140.274 -39.2842,-157.304 0.283,-12.222 10.4924,10.63 21.1874,47.426 24.9031,85.675 76.5375,211.484 153.061,372.937 58.3662,123.141 101.2714,184.695 193.9625,278.266 9.4326,13.474 69.8395,63.233 28.5587,39.735 z m 214.4521,-304.618 c -21.16,-11.012 -64.3047,-51.563 -91.7001,-86.188 -19.7897,-25.01 -23.7253,-35.166 -14.7808,-38.145 2.2005,-0.733 26.9123,21.437 54.915,49.261 28.0028,27.826 60.0155,56.964 71.1392,64.753 11.1237,7.786 20.2594,15.352 20.3013,16.812 0.1646,5.761 -23.8445,1.85 -39.8746,-6.493 z m -469.076,-223.446 c -21.0242,-32.825 -57.1936,-113.109 -74.6841,-165.775 -20.7233,-62.401 -35.0557,-129.371 -38.0383,-177.743 -2.9956,-48.578 3.6319,-39.438 16.3458,22.541 22.4072,109.233 52.4209,205.83 89.5171,288.101 23.2838,51.639 25.4129,61.844 6.8595,32.876 z m -184.1815,-225.118 c -11.5516,-13.919 -31.6384,-99.445 -20.4542,-87.09 2.1371,2.36 26.6455,89.71 25.4939,90.862 -0.5737,0.573 -2.8416,-1.126 -5.0397,-3.772 z m 976.3759,-96.976 c -8.1013,-2.979 -18.0429,-12.331 -24.8596,-23.391 -3.3816,-5.484 -11.5158,-12.652 -18.0761,-15.928 -13.5435,-6.761 -31.4754,-34.248 -40.6262,-62.271 -3.2352,-9.907 -6.2698,-18.485 -6.7437,-19.058 -0.4738,-0.574 -5.7116,3.807 -11.6392,9.735 -12.1668,12.166 -28.3073,14.21 -43.1784,5.471 -4.8671,-2.859 -11.4845,-6.17 -14.7057,-7.351 -3.2209,-1.184 -9.9806,-11.341 -15.0213,-22.573 -11.6469,-25.952 -16.1368,-67.068 -16.2531,-148.83 -0.098,-68.295 -3.0479,-93.005 -15.9699,-133.746 -28.9308,-91.213 -116.8735,-167.331 -241.599,-209.119 -51.427,-17.229 -83.0113,-22.62 -131.821,-22.495 -57.372,0.132 -99.15,10.443 -154.0698,37.986 -96.1442,48.214 -169.5194,124.81 -225.4042,235.299 -24.8395,49.109 -52.4563,118.274 -63.6161,159.326 -6.8589,25.231 -8.1812,38.754 -8.1934,83.772 0,29.525 -0.5923,53.107 -1.2984,52.401 -3.844,-3.844 -10.8731,-49.367 -10.9807,-71.111 -0.5221,-105.838 76.4808,-287.257 160.9606,-379.226 60.3959,-65.752 140.4321,-115.825 220.8865,-138.196 30.1711,-8.389 40.0102,-9.421 88.7945,-9.326 47.4319,0.107 60.0025,1.391 92.7991,9.578 155.2439,38.746 264.6161,124.71 303.974,238.915 15.165,44.002 18.0613,79.909 15.3575,190.39 -1.9136,78.183 -1.4824,104.783 1.7972,110.91 5.8167,10.871 25.6895,18.984 36.4617,14.888 11.8495,-4.505 15.6372,-10.263 21.202,-32.226 5.5074,-21.739 13.356,-25.732 17.3397,-8.824 13.0226,55.271 24.7773,85.367 39.5265,101.197 6.7374,7.231 7.8884,7.521 8.9084,2.225 1.8946,-9.839 6.457,-7.11 16.355,9.78 14.7272,25.129 30.0453,30.08 39.07,12.628 7.2255,-13.972 7.1286,-53.819 -0.1646,-67.923 -6.6354,-12.83 -4.4862,-20.741 5.6351,-20.741 16.5895,0 27.3943,60.545 16.088,90.151 -8.966,23.478 -24.2546,33.815 -40.9349,27.683 z m 85.9781,-68.154 c -10.7743,-6.571 -28.4238,-34.084 -24.4274,-38.079 1.029,-1.03 6.1084,3.164 11.2872,9.318 5.1788,6.156 14.1193,13.624 19.8675,16.594 13.8464,7.163 20.5617,1.667 20.5617,-16.82 0,-19.78 8.6776,-21.981 22.7157,-5.763 13.0831,15.116 22.7616,20.465 37.024,20.465 14.7117,0 21.671,-11.089 21.671,-34.527 0,-22.905 -6.551,-39.629 -19.5162,-49.829 l -9.7552,-7.675 h 9.0546 c 20.1215,0 41.4544,32.165 41.4544,62.503 0,18.134 -10.1911,39.743 -21.5007,45.591 -17.8884,9.252 -47.5832,4.113 -59.5371,-10.3 -4.5217,-5.453 -5.4838,-5.052 -11.4515,4.76 -7.8218,12.862 -20.442,14.131 -37.448,3.762 z m -117.5775,-73.166 c -8.6017,-10.935 -9.5465,-26.892 -2.0367,-34.403 2.9144,-2.914 4.3986,-7.645 3.2982,-10.512 -2.6061,-6.793 5.002,-11.447 10.2052,-6.244 3.0102,3.01 2.9247,5.795 -0.3385,11.02 -3.6228,5.8 -3.4572,6.989 0.9735,6.989 8.6591,0 19.4977,13.38 19.4977,24.071 0,19.674 -18.9771,25.126 -31.5994,9.079 z m 17.4411,-13.473 c 0,-0.857 -1.5928,-2.543 -3.5395,-3.748 -1.947,-1.203 -3.5398,-0.499 -3.5398,1.561 0,2.062 1.5928,3.748 3.5398,3.748 1.9467,0 3.5395,-0.701 3.5395,-1.561 z m 347.5883,11.474 c -5.7198,-5.721 -5.3604,-12.268 0.803,-14.633 6.473,-2.482 14.0662,6.536 11.3847,13.526 -2.4771,6.453 -6.4767,6.817 -12.1877,1.107 z m -481.9682,-27.378 c -5.1042,-9.536 -4.5716,-18.918 1.5326,-26.988 4.9032,-6.483 5.2032,-6.196 5.3094,5.068 0.095,10.157 0.897,11.285 5.3768,7.566 11.3,-9.377 22.24,6.44 11.7258,16.953 -6.5027,6.504 -19.8489,5.054 -23.9446,-2.599 z m 444.6843,-6.133 c -3.7914,-3.79 -2.7176,-14.699 1.7168,-17.438 6.1979,-3.831 14.4771,9.193 9.5885,15.084 -4.3279,5.216 -7.7358,5.925 -11.3053,2.354 z m -372.4171,-27.489 c -9.9453,-15.177 6.3726,-31.554 18.9296,-18.997 8.7291,8.731 2.7338,27.609 -8.7674,27.609 -2.4859,0 -7.0589,-3.873 -10.1622,-8.612 z m -37.3524,-64.833 c -2.1187,-15.777 -0.7613,-23.911 4.1499,-24.861 6.5106,-1.261 14.6868,14.28 11.661,22.164 -2.0704,5.394 -15.1488,7.627 -15.8109,2.697 z m 195.3561,-34.511 c -14.1641,-64.95 -60.3863,-170.798 -101.6557,-232.787 -25.2281,-37.896 -69.8426,-86.658 -112.4067,-122.857 -14.8235,-12.605 -26.952,-24.153 -26.952,-25.66 0,-19.778 90.9198,57.928 133.0076,113.674 27.0089,35.774 73.4353,126.958 91.2573,179.234 13.5212,39.661 24.6696,89.646 22.6849,101.707 -0.819,4.977 -3.0269,0.03 -5.9354,-13.311 z m 123.3298,9.878 c -14.6351,-12.315 -28.0039,-41.065 -28.0482,-60.317 -0.04,-17.771 5.4275,-19.932 8.9652,-3.541 3.3544,15.54 13.1354,34.221 24.0934,46.016 10.8219,11.646 14.9245,12.14 20.1279,2.416 3.0397,-5.679 2.6717,-9.215 -1.6453,-15.804 -9.5803,-14.622 -6.8709,-21.513 7.7126,-19.618 7.9519,1.033 4.658,-6.119 -7.0792,-15.368 l -11.5036,-9.066 10.8362,-0.05 c 14.0773,-0.05 26.3295,11.426 26.3295,24.668 0,5.649 -1.7221,11.335 -3.8265,12.636 -2.1046,1.301 -2.8984,6.061 -1.764,10.582 2.5063,9.987 -3.1235,25.941 -11.3618,32.198 -9.5147,7.229 -20.4736,5.639 -32.8362,-4.762 z m -1094.1953,-48.921 c -6.2733,-6.273 14.2839,-56.688 35.9627,-88.196 15.2607,-22.18 59.0319,-62.033 92.2883,-84.027 79.2452,-52.406 153.0906,-75.449 255.685,-79.787 64.5014,-2.726 109.8155,5.474 164.923,29.847 27.2547,12.052 19.9258,13.985 -12.5761,3.316 -44.3764,-14.567 -70.6619,-17.569 -135.3502,-15.456 -111.8004,3.653 -186.6216,26.706 -271.9742,83.798 -58.6467,39.229 -91.042,75.009 -115.2695,127.314 -6.4215,13.863 -12.5817,24.301 -13.689,23.191 z m -213.3685,-37.943 c 3.5358,-16.847 30.8585,-85.999 45.1933,-114.386 43.6897,-86.513 118.2221,-171.498 195.4923,-222.912 59.1633,-39.366 151.3515,-76.604 231.9515,-93.692 56.2957,-11.935 145.4731,-13.738 193.046,-3.9 60.093,12.43 112.1388,36.593 167.8091,77.913 35.47,26.329 123.6295,114.322 156.3969,156.104 38.32,48.862 79.7606,111.903 76.0199,115.644 -0.8355,0.836 -13.2032,-13.295 -27.4841,-31.4 -62.6811,-79.468 -161.9651,-182.128 -215.7559,-223.092 -54.7554,-41.698 -111.1258,-67.602 -172.0802,-79.081 -46.9786,-8.846 -130.6971,-5.649 -186.5707,7.125 -85.2457,19.485 -170.7472,55.876 -230.4197,98.067 -62.3254,44.068 -130.1813,120.717 -170.9085,193.055 -18.5391,32.929 -57.4625,119.132 -57.4625,127.263 0,2.636 -1.7195,4.795 -3.8209,4.795 -2.4463,0 -2.9523,-4.139 -1.4065,-11.503 z m 1200.5907,-68.905 c -3.157,-7.364 -13.097,-31.708 -22.0892,-54.098 -21.3292,-53.102 -44.3257,-96.447 -67.5432,-127.311 -21.7554,-28.92 -20.1196,-32.539 3.3606,-7.436 21.1595,22.621 45.6863,60.724 62.4414,97.008 17.3251,37.516 36.7102,98.088 32.6809,102.116 -1.7877,1.789 -5.5515,-2.583 -8.8505,-10.279 z" fill="#00B894" transform="translate(-13.100527,180.1546) matrix(0.23152081,0,0,0.23152081,1758.9935,2568.1758)"/>
</svg>