<?xml version="1.0" ?><svg height="236.27942mm" viewBox="0 0 270.65268 236.27942" width="270.65268mm" xmlns="http://www.w3.org/2000/svg">
    <path d="m 12655.441,14668.035 c 0,0 -141.029,89.366 -189.054,127.195 -48.026,37.83 -300.438,246.534 -300.438,246.534 l 2.088,6.869 c -12.259,-20.043 -30.57,-35.676 -58.307,-38.828 -40.207,-4.569 -78.181,-3.564 -99.808,34.814 0,0 -14.519,9.776 -17.666,64.785 -2.114,36.935 34.454,56.302 72.234,63.338 l -120.027,136.895 164.101,-134.073 c 2.723,-0.177 5.362,-0.416 7.868,-0.734 44.675,-5.665 75.641,-64.786 64.777,-97.225 -0.828,-2.472 -1.718,-4.934 -2.662,-7.376 9.644,-7.952 269.424,-222.161 294.541,-245.483 25.586,-23.758 182.353,-156.711 182.353,-156.711 z m -416.416,520.024 c -27.302,-0.348 -56.788,6.094 -81.437,22.351 -52.586,34.68 -1.973,110.698 21.033,152.477 23.006,41.779 8.102,59.136 -14.576,98.623 -3.096,14.786 33.654,10.403 81.047,15.105 45.717,4.535 91.532,0.222 98.846,-11.017 7.313,-11.24 23.089,-28.692 20.541,-112.547 -2.547,-83.854 -22.842,-116.759 -51.272,-142.049 -15.103,-13.435 -43.239,-22.55 -74.182,-22.943 z" fill="#FFFFFF" transform="translate(112.6478,26.669456) matrix(0.26458333,0,0,0.26458333,-2350.0241,-3241.1849) translate(-3313.5291,-2437.8203)"/>
    <path d="m 9455.6695,12149.365 c -0.869,0.06 -1.958,0.334 -3.25,0.828 -2.39,0.914 -23.338,12.95 -46.551,26.746 -66.964,39.799 -158.279,102.169 -279.307,190.77 -40.384,29.566 -74.799,57.416 -118.916,96.24 -34.289,30.172 -36.14,31.419 -45.48,30.604 -6.107,-0.535 -11.292,0.513 -13.91,2.808 -2.296,2.013 -6.968,4.489 -10.381,5.5 -8.86,2.626 -11.887,5.6 -13.59,13.352 -1.07,4.869 -3.909,7.685 -9.959,9.873 -7.535,2.848 -19.561,10.26 -20.439,25.955 0.556,1.622 -4.96,10.602 -12.258,19.959 -20.746,26.597 -16.313,30.789 11.951,11.299 7.727,-5.329 15.204,-9.692 16.613,-9.692 6.675,0 4.08,5.469 -8.621,18.17 -7.618,7.618 -13.367,15.305 -12.775,17.082 1.838,5.523 8.993,5.101 20.257,-1.195 8.341,-4.662 11.873,-5.46 15.413,-3.479 8,4.476 23.601,6.191 32.939,3.62 14.175,-3.905 22.811,-11.548 29.463,-26.077 6.082,-13.284 6.249,-13.417 15.197,-11.97 4.977,0.804 30.277,2.497 56.221,3.76 25.944,1.263 51.642,3.573 57.103,5.134 21.07,6.024 45.66,25.333 42.557,33.418 -0.844,2.199 -15.791,10.735 -33.217,18.967 -75.33,35.581 -115.016,56.441 -152.779,80.305 -39.289,24.828 -40.727,25.495 -58.316,27.052 -22.577,2 -58.346,15.882 -75.153,29.166 -6.636,5.245 -14.876,14.335 -18.312,20.198 -8.661,14.779 -14.713,39.778 -12.768,52.746 1.941,12.946 14.434,39.055 29.658,61.986 13.717,20.659 20.974,39.032 22.973,58.154 1.228,11.751 0.188,17.827 -6.273,36.645 -11.339,33.025 -10.135,40.972 3.791,25.031 11.752,-13.455 23.521,-39.494 25.523,-56.472 3.642,-30.89 -2.897,-51.681 -27.596,-87.741 -20.448,-29.858 -25.427,-43.237 -22.013,-59.154 8.274,-38.583 37.888,-59.284 84.498,-59.064 16.077,0.08 43.32,8.41 43.443,13.289 0.03,1.206 -16.703,5.878 -37.186,10.386 -20.482,4.508 -41.152,9.109 -45.931,10.223 -12.205,2.847 -13.247,11.199 -1.988,15.947 12.748,5.378 54.936,3.619 89.683,-3.74 16.093,-3.409 30.597,-5.636 32.231,-4.951 5.576,2.344 22.164,26.058 26.847,38.383 10.554,27.776 10.953,86.51 1,147.129 -2.815,17.151 -2.991,24.544 -0.808,34 4.006,18.208 14.378,1.901 23.172,-12.016 11.01,-22.566 14.467,-46.094 14.656,-99.762 0.205,-58.241 -3.115,-75.203 -19.803,-101.138 -5.908,-9.183 -10.46,-16.977 -10.117,-17.319 0.344,-0.345 15.634,-5.544 33.978,-11.551 103.694,-33.96 149.599,-60.123 208.057,-118.589 11.426,-11.428 28.608,-31.561 38.184,-44.741 l 17.41,-23.961 12.713,-1.523 c 14.661,-1.756 34.13,1.137 53.691,7.98 16.05,5.614 24.83,3.842 24.774,-5.005 -0.046,-6.858 -2.105,-10.158 -8.653,-13.871 -4.02,-2.281 -1.139,-2.831 15.133,-2.891 16.218,-0.06 20.888,-0.948 24.188,-4.594 6.442,-7.118 0.49,-12.46 -17.641,-15.828 -20.688,-3.845 -15.159,-6.866 12.621,-6.926 12.038,-0.02 24.048,-1.194 26.689,-2.607 6.479,-3.467 6.479,-16.221 0,-19.688 -5.773,-3.091 -49.057,-3.221 -64.712,-0.195 -6.145,1.188 -11.732,1.602 -12.415,0.92 -2.648,-2.644 11.182,-10.964 24.502,-14.738 17.512,-4.964 25.153,-9.709 25.153,-15.621 0,-9.487 -6.082,-11.087 -24.182,-6.36 -23.719,6.194 -43.584,17.259 -56.537,31.492 -6.128,6.735 -11.143,11.528 -11.143,10.649 0,-3.862 6.606,-13.413 17.758,-25.676 12.489,-13.733 14.998,-22.18 8.254,-27.777 -3.084,-2.561 -5.638,-2.302 -13.855,1.404 -24.267,12.108 -46.899,56.701 -46.754,87.648 l -32.574,34.768 c -64.047,66.4 -91.689,88.644 -137.653,110.773 -26.749,12.878 -74.081,30.213 -116.451,42.645 l -30.91,9.07 -11.973,-7.621 c -6.585,-4.191 -16.092,-9.56 -21.125,-11.93 l -9.15,-4.31 32.736,-15.981 c 37.902,-18.501 76.441,-36.173 113.426,-52.009 33.489,-14.34 63.278,-29.799 72.699,-37.727 19.078,-16.053 17.201,-34.902 -5.758,-57.863 -15.422,-15.422 -30.981,-23.949 -55.769,-30.563 -20.628,-5.502 -95.049,-8.005 -112.629,-3.787 -7.16,1.716 -13.542,2.597 -14.184,1.955 -0.641,-0.641 14.221,-14.058 33.03,-29.816 18.808,-15.757 57.658,-48.445 86.334,-72.637 28.675,-24.193 92.357,-77.458 141.515,-118.367 49.158,-40.907 105.901,-88.484 126.094,-105.725 21.978,-18.719 52.639,-38.415 75.184,-60.709 5.844,-5.779 6.216,-9.35 2.453,-9.072 z m -172.83,127.266 c 0.088,-0.02 0.134,0 0.134,0.05 0,0.538 -19.273,16.421 -42.828,35.294 -51.657,41.392 -140.505,113.645 -202.465,164.647 -24.988,20.57 -45.9,37.398 -46.472,37.398 -5.081,0 12.585,-16.705 71.637,-67.736 35.407,-30.599 214.408,-168.569 219.994,-169.656 z m -507.703,286.187 c -3.834,0.04 -7.942,0.173 -12.379,0.389 -38.216,1.859 -70.349,17.181 -88.672,62.539 -2.141,4.992 -3.958,10.458 -5.354,16.221 -21.523,-3.748 -40.458,1.795 -49.744,10.586 -9.631,9.118 -17.386,29.606 -10.006,62.365 7.38,32.759 10.382,64.729 2.002,74.748 -8.381,10.019 7.756,18.575 27.645,-3.039 15.416,-16.755 30.193,-53.74 37.066,-77.627 28.896,49.955 90.47,52.447 141.531,38.135 48.782,-16.187 70.107,-50.772 62.787,-101.825 -1.861,-12.98 -1.631,-14.045 3.288,-15.332 7.921,-2.2 6.168,-17.205 -6.873,-16.169 -5.804,-0.417 -9.518,-0.04 -9.518,-0.04 -1.188,-5.061 -22.628,-30.997 -34.398,-37.571 -17.258,-9.638 -30.543,-13.676 -57.375,-13.379 z m -0.723,11.838 c 15.55,0.121 31.764,3.894 46.349,10.434 l 5.868,3.844 c -6.03,2.636 -14.136,9.479 -4.428,16.146 8.623,5.922 14.155,0.895 14.662,-4.904 5.762,3.512 10.552,14.897 14.189,20.256 l -8.83,3.193 c -6.678,2.415 -8.652,4.423 -8.105,8.244 0.597,4.173 2.631,5.076 11.713,5.244 8.427,0.149 11.425,1.304 12.859,4.965 3.535,9.019 2.217,31.849 -2.426,42.012 -6.243,13.669 -24.112,29.362 -40.353,35.437 -17.672,6.613 -54.042,9.102 -69.207,4.739 -42.959,-12.362 -61.017,-38.806 -51.438,-75.329 5.814,-22.167 15.86,-42.275 27.348,-54.738 12.914,-13.813 31.806,-19.698 51.799,-19.543 z m 15.887,29.375 c -1.818,0.03 -3.585,0.586 -5.039,1.793 -5.03,4.172 -4.809,9.144 0.546,12.326 4.169,2.333 11.817,2.897 15.067,-4.172 0.78,-5.493 -5.121,-10.049 -10.574,-9.947 z m -68.682,155.781 c -2.956,0 -23.828,21.561 -121.367,125.362 -10.257,10.915 -42.147,43.874 -70.869,73.242 -49.635,50.748 -73.157,77.168 -73.157,82.168 0,5.324 7.122,0.255 50.045,-35.602 52.084,-43.513 67.738,-57.774 131.809,-120.097 25.599,-24.899 60.232,-56.616 76.963,-70.479 61.504,-50.959 58.035,-47.298 49.252,-51.998 -3.97,-2.124 -8.42,0.29 -26.981,14.635 -12.224,9.448 -34.944,28.676 -50.486,42.73 -30.566,27.642 -25.785,20.764 13.773,-19.814 13.751,-14.105 25.927,-27.29 27.059,-29.301 2.079,-3.694 -1.904,-10.846 -6.041,-10.846 z" fill="#00B894" transform="translate(112.6478,26.669456) matrix(0.26458333,0,0,0.26458333,-2350.0241,-3241.1849)"/>
</svg>