<?xml version="1.0" ?><svg height="340.55817mm" viewBox="0 0 334.77408 340.55817" width="334.77408mm" xmlns="http://www.w3.org/2000/svg">
    <path d="m -753.43279,4646.8716 -85.4843,26.3 c 0,0 33.5369,115.227 68.1679,167.139 34.631,51.912 47.0314,38.198 61.9981,35.789 14.9667,-2.409 40.2573,-40.605 29.8789,-60.564 -10.3783,-19.958 -74.5606,-168.664 -74.5606,-168.664 z m -119.2207,561.619 c 0,0 -13.2724,69.706 43.918,114.293 57.1904,44.587 115.9644,-12.586 127.2168,-51.274 11.2523,-38.688 -3.2768,-80.668 -67.4043,-118.275 -47.56082,-18.0982 -87.39186,23.1153 -103.7305,55.256 z m -42.7363,143.041 c -54.4035,0.512 -89.05881,31.688 -106.28511,90.883 -22.9685,78.925 13.7812,264.211 13.7812,264.211 l -216.7402,33.074 c 17.126,22.795 38.671,40.197 63.4297,53.506 -11.8812,3.111 -20.8898,7.802 -33.834,17.252 -54.5427,59.057 134.8492,48.762 192.9121,83.756 58.06301,34.994 253.14281,19.531 334.76371,14.644 81.621,-4.887 190.2164,-52.332 281.4707,-58.244 91.2543,-5.911 206.8547,-7.568 303.451101,-23.567 96.5965,-16 74.2647,-91.11 59.2891,-106.085 -14.9755,-14.975 -38.9722,-28.451 -68.748101,-9.457 -29.7759,18.995 -36.0804,16.708 -92.7421,13.792 -4.0797,-0.209 -12.0553,-0.181 -21.9727,-0.03 18.4011,-10.564 28.7695,-17.877 28.7695,-17.877 l 108.138701,-117.236 -289.793001,32.375 c -14.4117,-23.909 -36.7073,-50.003 -61.5722,-39.553 -25.4749,10.707 -26.6095,28.423 -21.2442,48.805 l -389.7422,43.539 c -8.1755,0.697 -38.1092,-95.472 -11.2968,-143.08 21.7282,-38.581 79.4733,-143.931 -10.9629,-170.899 -22.6091,-6.741 -42.9378,-9.979 -61.0723,-9.808 z" fill="#FFFFFF" transform="translate(170.17764,65.83077) matrix(0.26458333,0,0,0.26458333,167.1694,-1290.6779)"/>
    <path d="m -902.81143,5836.7553 c -36.657,-17.433 -75.655,-22.777 -105.43097,-14.451 -20.99,5.87 -18.932,-3.984 2.74,-13.132 26.46497,-11.165 78.74797,-8.651 110.23297,5.299 34.911,15.469 61.085,14.927 88.302,-1.832 62.683,-38.592 101.541,-40.489 142.232,-6.95 26.326,21.7 18.115,30.992 -13.038,14.754 -12.639,-6.588 -33.321,-13.115 -45.965,-14.504 -19.232,-2.111 -26.724,0.206 -45.907,14.18 -52.031,37.909 -80.855,41.512 -133.166,16.636 z m 366.949,-36.32 c 0,-5.73 6.914,-17.039 15.363,-25.131 20.263,-19.417 51.695,-19.778 88.701,-1.027 37.347,18.928 59.622,17.639 101.673,-5.878 40.078,-22.411 55.814,-20.472 28.618,3.525 -43.924,38.755 -92.895,47.702 -135.865,24.83 -38.571,-20.534 -57.31,-20.554 -81.636,-0.08 -15.243,12.824 -16.854,13.186 -16.854,3.763 z m -610.66897,0.246 c -34.225,-7.685 -51.863,-17.096 -77.536,-41.376 -21.906,-20.719 -31.23,-26.207 -39.881,-23.459 -12.5,3.968 -14.878,-2.329 -4.72,-12.491 9.563,-9.563 31.983,-8.043 44.458,3.011 7.927,7.028 11.456,7.759 13.214,2.739 1.314,-3.766 6.502,-6.826 11.522,-6.806 5.019,0 44.428,-6.704 87.571,-14.952 78.317,-14.972 78.436,-15.017 75.1,-28.794 -1.836,-7.591 -6.005,-50.397 -9.262,-95.13 -5.082,-69.744 -4.687,-86.347 2.768,-116.559 11.403,-46.207 22.038,-67.776 47.94097,-97.199 20.706,-23.525 21.347,-25.468 21.347,-64.827 0,-107.165 62.74,-232.103 145.136,-289.015 20.493,-14.155 118.469,-49.374 137.356,-49.374 9.534,0 8.055,-7.513 -9.115,-46.33 -9.053,-20.465 -13.083,-23.882 -31.662,-26.852 -23.734,-3.795 -52.553,-31.23 -71.198,-67.772 -14.574,-28.573 -50.048,-135.656 -49.941,-150.768 0.08,-12.125 19.627,-24.087 69.239,-42.378 27.406,-10.105 39.199,2.173 81.648,85.016 32.894,64.186 37.979,78 37.979,103.147 0,23.13 -3.019,32.997 -14.828,48.479 l -14.829,19.441 14.829,29.428 c 12.401,24.596 17.527,29.702 31.259,31.132 23.512,2.448 28.043,11.669 26.153,53.198 -1.52,33.453 0.846,43.052 26.1,105.953 15.277,38.041 40.531,98.251 56.123,133.794 25.562,58.284 29.526,64.334 40.37,61.611 16.632,-4.173 31.104,10.684 23.763,24.4 -3.676,6.868 -3.574,15.194 0.329,25.418 3.179,8.367 4.37,20.821 2.649,27.677 -1.721,6.86 -0.723,16.813 2.218,22.124 10.742,19.384 38.407,87.867 47.744,118.185 6.905,22.424 12.277,31.124 19.219,31.124 13.584,0 48.356,31.917 48.356,44.383 0,5.714 3.08,10.339 6.847,10.286 7.583,-0.123 70.927,-11.234 138.293,-24.289 24.095,-4.666 64.761,-11.037 90.36805,-14.155 25.603,-3.117 50.3759,-6.826 55.0549,-8.235 4.675,-1.409 13.038,0.751 18.579,4.806 9.411,6.88 7.459,10.585 -29.542,56.085 -21.7909,26.799 -51.96595,58.001 -67.05395,69.338 l -27.431,20.612 h 25.468 c 26.31305,0 50.57305,-9.357 62.96205,-24.285 9.6529,-11.632 16.7299,-10.794 16.7299,1.989 0,5.808 -8.079,19.129 -17.9579,29.603 -13.687,14.513 -24.211,19.98 -44.24405,22.983 -33.481,5.023 -68.988,0.123 -100.559,-13.822 -13.662,-6.047 -34.472,-10.993 -46.24,-10.993 -22.186,0 -68.397,20.087 -80.917,35.174 -11.39,13.72 -49.033,11.054 -72.894,-5.163 -41.052,-27.895 -80.572,-22.584 -124.89,16.776 -16.784,14.906 -33.284,24.724 -42.37,25.208 -35.745,1.915 -55.248,-2.809 -85.784,-20.78 -37.056,-21.808 -57.282,-21.746 -83.653,0.246 -25.578,21.348 -49.021,30.676 -77.08,30.676 -22.309,0 -32.434,-3.783 -60.415,-22.571 -31.761,-21.327 -35.408,-22.445 -66.039,-20.231 -20.777,1.504 -42.60097,7.628 -60.77697,17.06 -27.653,14.348 -84.61,31.858 -99.484,30.585 -4.083,-0.37 -12.355,-1.742 -18.377,-3.097 z m 104.976,-50.22 c 31.69,-13.921 46.46997,-17.219 76.67697,-17.108 33.207,0.123 40.785,2.284 67.292,19.17 41.278,26.297 68.027,26.08 111.749,-0.908 41.656,-25.709 76.008,-27.426 113.055,-5.639 18.332,10.778 32.192,14.508 54.106,14.557 26.17,0.04 31.892,-2.132 51.264,-19.634 28.503,-25.751 51.924,-35.068 88.146,-35.068 21.397,0 33.457,3.065 43.668,11.099 7.764,6.104 22.798,14.726 33.416,19.163 18.686,7.808 19.877,7.562 37.314,-7.747 46.199,-40.564 100.921,-54.012 139.558,-34.304 l 22.21,11.329 51.325,-49.957 c 36.32005,-35.35 48.73305,-50.573 42.45305,-52.069 -4.88,-1.158 -69.11605,7.813 -142.74205,19.935 -126.585,20.842 -171.556,26.494 -372.515,46.819 -136.855,13.843 -301.428,35.174 -412.41697,53.453 -57.232,9.427 -117.401,18.538 -133.712,20.247 -23.118,2.423 -27.945,4.452 -21.906,9.217 30.183,23.816 93.469,22.744 151.059,-2.555 z m 116.83797,-71.937 c 28.614,-2.954 58.004,-5.41 65.308,-5.459 l 13.276,-0.08 -11.021,-12.323 c -31.223,-34.903 -30.906,-87.025 0.957,-157.587 16.685,-36.956 19.877,-49.513 17.634,-69.39 -3.179,-28.228 -18.973,-48.011 -49.37,-61.853 -25.611,-11.662 -46.757,-8.224 -54.541,8.864 -3.673,8.059 -10.586,12.968 -18.255,12.968 -14.442,0 -35.745,34.147 -48.86497,78.333 -10.195,34.332 -11.078,147.346 -1.474,188.66 6.268,26.963 7.755,28.857 20.53797,26.158 7.579,-1.598 37.195,-5.324 65.813,-8.273 z m 186.212,-22.112 c 120.121,-12.729 201.333,-22.083 241.333,-27.788 l 41.426,-5.911 -2.341,-15.958 c -1.376,-9.374 1.491,-21.816 6.95,-30.146 10.725,-16.365 11.423,-13.901 -31.144,-109.552 -24.433,-54.902 -28.265,-60.542 -39.672,-58.361 -6.942,1.327 -14.291,-0.288 -16.328,-3.578 -7.04,-11.395 -13.884,-5.882 -28.257,22.761 -37.539,74.796 -108.13,127.678 -144.466,108.228 -6.699,-3.586 -29.242,-18.969 -50.101,-34.184 -20.859,-15.219 -38.813,-26.708 -39.898,-25.529 -1.088,1.179 -12.729,22.781 -25.878,48.002 -27.012,51.831 -30.84,85.259 -14.11,123.172 8.651,19.602 10.639,20.925 27.156,18.045 9.801,-1.708 43.701,-5.849 75.33,-9.201 z m 349.763,-43.607 c 5.517,-2.916 5.214,-11.671 -7.29,-20.572 -13.539,-9.641 -18.723,-6.685 -27.616,-1.924 -13.775,7.672 -12.829,16.835 -12.666,27.59 -0.4,6.241 3.064,3.157 16.432,1.848 13.068,-1.279 27.037,-4.773 31.14,-6.942 z m -284.04,-115.675 c 10.544,-6.322 26.223,-18.021 34.841,-25.994 20.694,-19.154 74.69,-91.933 74.718,-100.711 0,-3.796 4.761,-14.677 10.557,-24.182 l 10.536,-17.281 -20.744,-48.441 c -20.25,-47.296 -33.07,-81.205 -67.373,-178.232 -15.905,-44.987 -17.791,-47.731 -33.798,-49.292 -15.63,-1.524 -28.212,-16.455 -37.684,-44.711 -2.321,-6.914 -68.594,12.503 -95.675,28.03 -66.947,38.378 -132.6,150.225 -146.303,249.236 -5.418,39.142 -1.68,45.805 24.297,43.328 14.615,-1.393 29.83,1.82 46.269,9.776 48.035,23.258 67.965,47.538 74.057,90.233 2.526,17.733 6.662,23.553 23.339,32.861 11.144,6.223 33.326,19.269 49.292,28.992 15.963,9.723 30.257,17.725 31.765,17.778 1.503,0.04 11.362,-5.069 21.906,-11.39 z m -134.502,-141.296 c -23.118,-5.578 -46.207,-24.999 -65.443,-55.046 -20.585,-38.324 -25.455,-92.764 0.649,-120.819 69.991,-75.28 170.405,-26.362 182.072,50.45 1.746,13.1 2.427,25.374 2.427,25.374 8.401,-0.656 26.331,20.981 -1.809,20.865 -2.686,-0.01 -3.345,6.984 -7.893,17.874 -19.404,46.441 -65.385,72.064 -110.003,61.302 z m 60.239,-41.775 c 23.43,-15.925 34.357,-42.758 34.357,-42.758 -17.57,-9.102 -4.328,-19.791 4.413,-18.118 6.152,-29.146 -36.426,-84.236 -95.624,-79.827 -16.665,1.241 -24.896,2.551 -37.651,14.771 -31.707,30.376 -26.453,77.101 13.124,116.678 28.351,28.351 49.703,30.779 81.381,9.254 z m -54.147,-15.559 c -5.841,-4.272 -8.786,-9.604 -6.548,-11.843 5.776,-5.775 32.837,7.55 28.754,14.155 -4.568,7.394 -9.653,6.864 -22.206,-2.312 z m 0.687,-68.217 c 0,-8.519 5.47,-11.649 10.58,-11.649 5.114,0 8.216,5.176 8.216,13.695 0,8.52 -3.102,13.691 -8.216,13.691 -5.11,0 -10.58,-7.217 -10.58,-15.737 z m 40.706,5.107 c 0,-12.697 9.83,-20.066 17.088,-12.812 6.872,6.876 0.205,23.442 -9.46,23.442 -4.198,0 -7.628,-4.781 -7.628,-10.63 z m 52.016,-386.835 c 13.92,-21.245 6.601,-53.321 -28.643,-125.509 -31.136,-63.772 -31.157,-63.8 -48.105,-60.42 -24.194,4.823 -52.557,13.958 -52.557,16.932 0,1.392 4.929,12.196 10.955,24.001 6.022,11.81 10.951,24.289 10.951,27.731 0,12.043 42.128,95.667 57.08,113.301 18.542,21.865 37.605,23.365 50.319,3.964 z" fill="#00B894" transform="translate(170.17764,65.83077) matrix(0.26458333,0,0,0.26458333,167.1694,-1290.6779)"/>
</svg>