<?xml version="1.0" ?><svg height="258.55713mm" viewBox="0 0 304.75803 258.55713" width="304.75803mm" xmlns="http://www.w3.org/2000/svg">
    <path d="m 1235.2964,6099.8397 c -50.7831,-0.5283 -104.6428,27.9732 -122.3027,66.1954 -25.6873,70.4874 -29.1538,141.4009 48.8535,188.6289 78.0073,47.228 145.6849,2.6953 170.8769,-62.9825 25.192,-65.6778 24.2198,-126.3556 -33.7734,-171.3144 -18.1229,-14.0497 -40.5711,-20.2872 -63.6543,-20.5274 z m -7.3691,369.1543 c -49.4899,0.1275 -92.9889,22.1482 -112.3282,61.3321 -29.4695,59.7086 -14.1837,102.1145 20.959,160.5469 0,0 4.5689,30.6598 50.209,47.625 45.6401,16.965 150.0879,-40.5342 176.7207,-85.6348 26.6327,-45.1006 21.9063,-128.6364 -55.4707,-165.3692 -26.5983,-12.6269 -54.1666,-18.5667 -80.0898,-18.5 z m -177.4395,264.4278 c -31.6757,-3.262 -86.93859,58.5729 -101.80859,113.5078 -117.1207,-32.0044 -149.9956,-4.1614 -181.041,11.4394 -31.0453,15.6008 -106.5309,60.1352 -38.6094,151.4712 67.9215,91.336 255.296,38.86 360.56639,22.408 105.2704,-16.452 293.4341,34.605 418.7185,34.179 125.2844,-0.425 309.981,-15.174 335.6682,-117.855 18.8327,-75.2812 -15.445,-59.7094 -59.5703,-46.5196 -44.1254,13.1897 -48.2226,-0.1421 -101.9609,-7.8007 -53.7383,-7.6586 -89.1952,-38.1512 -121.8164,-20.9903 -32.6212,17.161 -113.3082,57.5816 -160.4277,57.1566 -47.1196,-0.426 -181.0723,-59.0003 -181.0723,-59.0003 0,0 6.4618,-47.6537 -10.8731,-68.502 -17.335,-20.8484 -126.0977,-66.2321 -157.7734,-69.4941 z" fill="#FFFFFF" transform="translate(94.573634,-8.2582995) matrix(0.26458333,0,0,0.26458333,-280.18805,-1602.8441)"/>
    <path d="m 1375.0904,6994.9053 c -21.163,-2.744 -51.05,-12.3155 -76.115,-24.3755 -56.608,-27.234 -94.16,-27.952 -140.975,-2.703 -32.372,17.462 -33.711,17.688 -90.368,15.088 -37.121,-1.701 -65.271,-5.985 -79.41403,-12.089 -48.626,-20.978 -99.085,-35.737 -122.182,-35.737 -34.332,0 -65.685,10.586 -78.095,26.363 -9.382,11.925 -10.581,12.266 -10.581,2.978 0,-18.488 15.695,-33.687 45.184,-43.759 42.383,-14.467 85.226,-11.817 146.504,9.066 70.06803,23.882 145.59603,28.758 179.27903,11.571 46.917,-23.931 96.903,-19.072 166.82,16.221 27.369,13.814 42.966,17.77 78.185,19.824 43.853,2.555 44.161,2.477 98.76,-24.699 30.122,-14.997 72.993,-31.666 95.273,-37.043 l 40.502,-9.776 51.255,18.02 c 47.07,16.541 55.458,17.831 102.7,15.765 32.118,-1.405 54.788,-5.028 60.354,-9.649 11.427,-9.48 14.085,-6.359 8.088,9.501 -12.102,31.999 -110.546,47.772 -161.004,25.8 -50.397,-21.947 -64.556,-24.177 -104.778,-16.512 -20.814,3.963 -54.496,14.836 -74.85,24.161 -36.369,16.656 -75.281,28.1665 -91.477,27.0615 -4.519,-0.329 -23.899,-2.592 -43.065,-5.077 z m -6.227,-60.6705 c -10.545,-2.867 -31.276,-7.731 -46.068,-10.803 -14.791,-3.077 -38.907,-11.871 -53.592,-19.549 -25.505,-13.337 -27.164,-13.53 -37.253,-4.403 -11.76,10.643 -27.394,7.624 -27.394,-5.295 0,-11.9 -24.481,-10.737 -63.496,3.011 -40.132,14.139 -93.416,11.863 -141.89503,-6.071 -18.069,-6.683 -40.863,-12.023 -50.655,-11.867 -13.564,0.205 -17.799,-2.05 -17.799,-9.53 0,-15.498 -52.849,-29.838 -96.92,-26.301 -28.376,2.276 -40.288,6.313 -59.639,20.21 -16.899,12.138 -24.178,14.96 -24.178,9.377 0,-14.845 36.497,-41.039 62.638,-44.958 25.849,-3.878 96.456,-0.723 115.359,5.151 8.914,2.769 -1.717,-19.618 13.096,-44.264 17.962,-31.276 48.517,-31.567 71.91203,-62.223 l -47.15603,-47.797 c -68.905,-69.85 -85.213,-96.205 -88.573,-143.127 -2.23,-31.165 -0.649,-42.218 8.819,-61.689 15.967,-32.848 64.396,-80.3 119.08103,-116.69 l 46.051,-30.643 v -27.743 c 0,-20.99 5.291,-38.871 21.746,-73.507 11.957,-25.167 23.299,-51.97 25.205,-59.561 1.906,-7.587 13.119,-24.769 24.921,-38.176 29.879,-33.942 59.709,-43.41 114.764,-36.431 22.694,2.879 47.427,7.574 54.96,10.438 39.454,15.001 70.348,62.144 74.899,114.279 5.611,64.342 -45.928,148.565 -100.794,164.7 -42.502,12.496 -98.933,3.89 -132.849,-20.259 -9.374,-6.675 -25.784,-11.304 -42.819,-12.08 -26.543,-1.212 -29.312,0.123 -70.742,33.913 -57.82703,47.18 -80.32103,70.24 -98.12303,100.621 -16.719,28.527 -16.686,51.703 0.123,87.119 12.754,26.876 126.97603,145.929 140.00903,145.929 20.23,0 61.36,17.576 96.916,41.425 19.927,13.363 39.261,24.297 42.966,24.297 3.706,0 7.563,1.849 8.565,4.108 1.006,2.259 9.579,10.507 19.055,18.332 22.013,18.181 122.647,40.765 159.267,35.745 74.426,-10.199 224.812,-76.521 231.766,-102.207 4.144,-15.317 33.531,-60.382 46.273,-70.955 4.649,-3.862 12.729,-7.435 17.946,-7.94 5.217,-0.506 16.328,-4.289 24.695,-8.409 20.3,-9.998 32.102,-0.411 21.126,17.166 -6.835,10.943 -6.408,11.325 8.355,7.431 36.254,-9.559 44.227,0.246 15.556,19.15 l -16.431,10.828 18.16,0.04 c 9.986,0 23.085,2.674 29.107,5.894 15.005,8.035 3.684,21.528 -18.062,21.528 -18.698,0 -88.265,16.706 -84.642,20.325 1.355,1.356 16.845,2.884 34.426,3.393 23.907,0.694 31.962,2.937 31.962,8.901 0,18.785 -84.675,27.09 -105.074,10.306 -4.42,-3.639 -14.886,-0.538 -32.861,9.74 -64.905,37.112 -95.318,51.662 -140.893,67.402 -63.475,21.923 -128.57,23.319 -185.337,3.972 -26.565,-9.053 -36.969,-10.667 -36.969,-5.738 0,15.235 115.347,67.912 148.701,67.912 22.12,0 81.775,-20.686 95.022,-32.948 6.022,-5.578 24.507,-16.443 41.077,-24.145 44.227,-20.554 77.869,-19.125 132.727,5.644 63.36,28.606 109.678,26.614 156.111,-6.72 11.358,-8.158 12.524,-8.092 15.975,0.896 5.763,15.021 -9.341,35.933 -36.447,50.47 -21.373,11.461 -30.101,12.907 -65.723,10.894 -33.654,-1.902 -48.224,-5.944 -80.646,-22.374 -54.249,-27.493 -73.013,-26.877 -135.692,4.465 -65.299,32.647 -107.99,40.982 -150.611,29.394 z m -201.276,-78.81 c 23.344,-5.278 42.445,-11.423 42.445,-13.649 0,-2.231 -4.358,-9.44 -9.686,-16.02 l -9.686,-11.962 -24.543,14.028 c -35.264,20.156 -66.791,19.31 -88.475,-2.37 -14.734,-14.734 -16.324,-19.503 -14.64,-43.886 1.528,-22.063 0.08,-27.928 -7.484,-30.323 -15.017,-4.761 -42.027,6.413 -73.05803,36.88 -36.746,36.08 -23.985,57.3 15.268,69.944 41.13003,13.251 103.87003,12.273 169.85903,-2.642 z m -24.095,-46.839 c 9.489,-3.307 17.248,-8.027 17.248,-10.487 0,-5.521 -46.445,-31.871 -63.899,-36.25 -10.979,-2.756 -12.779,-1.167 -12.779,11.329 0,15.453 21.652,41.421 34.533,41.421 4.207,0 15.412,-2.707 24.897,-6.013 z m 81.911,-479.549 1.676,-17.285 -23.582,5.34 c -12.972,2.941 -30.364,4.367 -38.649,3.175 -22.399,-3.224 -18.23,5.969 8.215,18.115 33.555,15.412 50.224,12.434 52.34,-9.345 z m 38.747,15.067 c 5.792,-3.668 6.996,-15.605 5.143,-50.931 -1.947,-37.067 -5.336,-51.354 -17.227,-72.635 -16.345,-29.243 -15.437,-37.668 2.329,-21.598 18.698,16.907 33.046,50.614 38.032,89.333 l 4.654,36.143 -1.971,-46.552 c -1.081,-25.603 -5.928,-57.474 -10.766,-70.82 -8.655,-23.865 -4.786,-40.723 6.112,-26.626 10.199,13.19 24.904,56.242 28.61,83.755 l 3.688,27.382 9.953,-29.214 c 10.902,-31.99 9.513,-48.252 -7.386,-86.454 -9.891,-22.358 -11.99,-24.021 -26.054,-20.628 -12.29,2.966 -76.317,32.15 -82.581,37.642 -0.858,0.752 3.972,15.864 10.738,33.58 9.041,23.681 12.356,44.182 12.516,77.397 0.205,46.667 4.038,53.005 24.21,40.226 z m -37.687,-54.603 c 0,-5.648 -1.422,-17.355 -3.155,-26.014 l -3.155,-15.744 h -54.356 c -47.099,0 -54.353,1.216 -54.353,9.135 0,24.621 4.699,25.981 38.85,11.247 25.143,-10.848 34.118,-12.594 39.117,-7.595 4.999,4.999 4.268,10.244 -3.187,22.863 l -9.674,16.377 h 24.958 c 20.748,0 24.955,-1.729 24.955,-10.269 z m -13.108,-58.637 c -1.828,-4.765 -3.323,-10.589 -3.323,-12.943 0,-2.354 -15.404,-5.767 -34.229,-7.583 -18.83,-1.815 -39.163,-4 -45.184,-4.855 -8.306,-1.179 -11.366,2.005 -12.656,13.153 -1.869,16.209 4.071,17.922 69.378,19.967 24.72,0.776 28.815,-0.443 26.014,-7.739 z m 38.283,-81.537 c 14.771,-5.274 30.553,-10.733 35.072,-12.121 6.132,-1.89 4.744,-4.465 -5.48,-10.159 -19.462,-10.84 -20.312,-10.63 -68.158,16.632 -23.788,13.556 -44.059,24.646 -45.053,24.646 -0.99,0 -1.803,-3.315 -1.803,-7.365 0,-9.94 13.768,-21.569 46.556,-39.339 l 27.381,-14.841 -25.192,3.171 c -31.148,3.923 -53.182,16.189 -70.812,39.417 -19.347,25.497 -17.264,31.235 13.851,38.14 26.7,5.923 27.879,5.64 47.082,-11.255 10.836,-9.534 31.785,-21.647 46.556,-26.926 z m -64.806,605.05 c -34.003,-10.24 -51.498,-26.634 -69.042,-64.7 -22.165,-48.084 -26.695,-90.253 -15.034,-139.952 4.851,-20.669 13.736,-44.486 19.746,-52.927 17.404,-24.44 52.06,-38.201 96.107,-38.164 103.41,0.08 172.973,51.407 174.394,128.672 0.288,16.554 3.566,29.781 8.24,33.441 10.035,7.854 3.779,24.066 -9.287,24.066 -6.141,0 -13.658,7.439 -19.138,18.929 -32.734,68.647 -119.15,110.758 -185.986,90.635 z m 15.835,-42.9 c -18.46,-20.399 -6.819,-38.304 34.34,-52.825 36.073,-12.729 58.678,-10.988 69.374,5.332 11.526,17.593 14.2,17.252 26.379,-3.364 7.875,-13.33 8.557,-17.996 3.122,-21.356 -8.679,-5.365 -2.965,-21.832 7.575,-21.832 8.881,0 14.451,-11.518 14.451,-29.887 0,-20.51 -44.836,-25.858 -89.428,-10.664 -33.104,11.28 -52.377,34.895 -74.398,91.149 -18.14,46.347 -17.215,53.182 7.213,53.379 9.764,0.08 9.85,-0.563 1.372,-9.932 z m 131.079,-104.216 c -4.76,-7.702 2.563,-23.504 9.777,-21.097 8.104,2.703 7.972,21.537 -0.165,24.252 -3.491,1.167 -7.813,-0.247 -9.603,-3.155 z m -47.036,-11.279 c 0,-6.729 3.536,-11.411 8.613,-11.411 5.102,0 7.895,3.725 6.848,9.131 -2.666,13.74 -15.461,15.625 -15.461,2.28 z m 9.973,100.974 c 5.972,-5.578 5.603,-8.4 -2.116,-16.114 -7.258,-7.258 -14.393,-8.515 -31.883,-5.611 -25.509,4.235 -52.652,16.685 -52.652,24.149 0,11.908 73.506,9.85 86.651,-2.424 z m -126.274,-33.013 c -0.801,-0.616 -9.525,-2.662 -19.388,-4.539 -17.17,-3.27 -17.659,-2.896 -11.468,8.798 3.553,6.716 10.322,18.165 15.046,25.439 l 8.585,13.223 4.342,-20.896 c 2.386,-11.493 3.684,-21.405 2.883,-22.025 z m 11.937,-31.908 c 17.749,-53.774 78.424,-95.167 131.963,-90.024 32.861,3.159 31.358,-5.348 -4.855,-27.538 -33.104,-20.283 -57.516,-28.486 -84.762,-28.486 h -22.046 l 11.908,12.676 c 12.184,12.968 15.696,25.661 7.103,25.661 -2.646,0 -8.01,-3.858 -11.925,-8.577 -13.153,-15.852 -34.521,-23.973 -44.281,-16.833 -17.178,12.561 -37.572,48.864 -37.572,66.88 0,31.765 31.477,30.27 64.823,-3.076 14.861,-14.858 17.33,-15.815 17.33,-6.692 0,26.281 -39.828,53.889 -71.124,49.292 -23.857,-3.499 -20.986,8.249 6.769,27.706 12.804,8.98 24.938,16.534 26.963,16.797 2.025,0.246 6.391,-7.747 9.706,-17.786 z" fill="#00B894" transform="translate(94.573634,-8.2582995) matrix(0.26458333,0,0,0.26458333,-280.18805,-1602.8441)"/>
</svg>