<?xml version="1.0" ?><svg height="359.27094mm" viewBox="0 0 380.62222 359.27094" width="380.62222mm" xmlns="http://www.w3.org/2000/svg">
    <path d="m 8900.2621,3459.0225 c -1.9238,-0.2161 -17.712,14.2673 -23.1567,19.5792 -5.62,5.4835 -51.6514,57.2023 -54.6344,61.6216 -2.9829,4.4196 -52.9329,68.5927 -55.5883,72.8157 -2.6553,4.2233 -16.5622,32.1026 -18.1446,34.5576 -2.2459,2.5492 -4.0889,5.1966 -5.8607,8.0904 -2.1547,3.5188 4.5358,6.5435 6.6022,5.9418 4.3288,-1.2603 10.2213,-12.2763 13.6043,-19.3311 3.3829,-7.0548 33.1386,-54.082 33.1386,-54.082 0,0 0.6729,4.6815 6.966,8.5772 6.2932,3.8957 11.3132,2.2912 14.6234,-0.098 3.3102,-2.3899 8.7662,-8.3645 8.9663,-14.2245 0.2002,-5.8597 -4.6555,-13.3239 -10.5848,-13.8803 -5.9293,-0.5567 -6.4569,0.2615 -4.2561,-2.8484 2.2008,-3.11 26.5553,-33.441 30.8296,-38.6628 4.2741,-5.2215 30.7561,-34.2593 35.8485,-40.2828 5.0927,-6.0238 22.8255,-26.4781 21.7888,-27.7058 -0.032,-0.038 -0.08,-0.061 -0.1421,-0.068 z m -143.4816,2.1208 c -7.5941,0 -16.5216,1.4838 -20.6422,4.0541 -5.2745,3.2901 -4.1832,16.8434 -4.1832,16.8434 0,0 -11.5493,11.6871 -10.1126,12.0308 0,0 4.947,0.818 5.5656,1.08 0.6183,0.2619 -0.3817,10.6886 5.4384,24.1763 5.8203,13.4877 19.243,11.8509 31.4472,6.351 12.2039,-5.4998 13.2767,-28.9062 13.2767,-28.9062 0,0 6.912,-0.9822 10.1493,-0.8842 3.2374,0.098 -9.494,-14.6172 -9.494,-14.6172 0,0 -0.4912,-6.6946 -1.0915,-11.867 -0.6,-5.1726 -6.2749,-6.8092 -14.4228,-7.9059 -1.7825,-0.2399 -3.8046,-0.3557 -5.9309,-0.3551 z m 234.9184,32.01 c -0.3556,-0.016 -0.6665,0.055 -0.9234,0.2268 -3.2885,2.1994 -20.376,27.7756 -20.376,27.7756 0,0 -7.6879,7.3189 -10.51,11.7383 -2.8218,4.4193 2.7333,6.3191 7.7551,5.8193 -2.1111,12.6981 9.4433,34.0749 9.4433,34.0749 0,0 -8.2437,15.7978 -9.0661,20.237 -0.822,4.4394 -0.044,7.0191 2.7332,7.7189 2.7776,0.7001 11.3321,-6.519 11.3321,-6.519 0,0 5.0665,1.7397 6.9996,2.6795 1.933,0.9399 6.6211,2.6799 7.3768,0.08 0.7554,-2.5996 -5.7102,-20.7368 -5.7102,-20.7368 l 17.3979,-29.4757 c 0,0 2.5499,2.0196 6.9938,0.1 4.444,-1.9196 -3.1941,-10.9983 -3.1941,-10.9983 0,0 -3.5999,-26.3562 -4.6664,-28.3559 -0.9831,-1.8435 -11.3892,-14.1728 -15.5856,-14.3645 z m -273.3895,35.8965 c -1.4917,0 -2.8396,0.1958 -3.9171,0.5948 -4.9252,1.8236 -16.1555,12.6649 -24.2192,26.1023 -8.0632,13.4374 -11.9176,30.5738 -11.9176,30.5738 0,0 -4.1375,-12.703 -5.5588,-16.2238 -1.4214,-3.5208 -5.868,-10.3089 -8.0212,-12.5507 -2.1532,-2.2416 -4.0673,0.025 -4.8132,2.8877 -0.7458,2.8622 6.9695,54.5505 10.0372,69.4697 3.0677,14.919 4.461,12.2464 9.0909,15.476 4.63,3.2295 39.783,9.9038 51.9136,10.5751 12.1306,0.6712 17.7322,-6.6361 17.7602,-12.3605 -0.5319,-7.5765 -3.8994,-5.1051 -1.709,-13.1191 0.8866,-3.6475 -0.3519,-11.2339 -8.9643,-14.4761 -8.6125,-3.2422 -12.9466,-10.3345 -12.0179,-16.9328 0.9287,-6.5985 4.659,-13.4814 11.2309,-33.5804 6.572,-20.0991 0.8867,-25.5703 -3.2086,-30.3573 -3.1994,-3.7402 -10.3583,-6.0964 -15.6859,-6.0787 z m -56.6286,136.2123 v 0 h -1.7585 c -9.2159,0.057 -15.0667,3.5949 -16.2306,6.7086 -1.1639,3.1139 1.762,26.2702 3.2402,35.555 1.4782,9.285 2.9564,14.6915 9.2159,16.3049 3.0195,1.9534 24.0316,2.8592 28.6867,-1.0754 4.6552,-3.9349 5.7871,-21.967 6.7308,-33.9979 0.9435,-12.0308 1.6671,-17.0695 -4.3723,-19.9569 -5.6617,-2.7069 -16.576,-3.4985 -25.5122,-3.5399 z m 52.0671,43.2935 v 5e-4 c -13.8887,0.066 -16.4433,3.657 -17.3105,7.3412 -0.2392,7.8015 4.236,7.5844 11.4975,8.4584 7.2613,0.8739 32.7749,0.4576 39.9799,-0.8087 7.2051,-1.2665 4.7284,-7.2445 1.0837,-11.1833 -3.6449,-3.9389 -12.5387,-2.9383 -30.5656,-3.7109 -1.69,-0.072 -3.2482,-0.1036 -4.685,-0.097 z" fill="#FFFFFF" paint-order="markers stroke fill" transform="translate(-102.91348,292.8981) translate(-8535.0913,-3662.5871)"/>
    <path d="m 8994.551,3369.689 c -2.8949,0.013 -16.5255,10.4001 -35.4961,27.2939 -18.6487,16.6067 -66.7011,63.7836 -81.0824,79.605 -8.4164,9.2591 -14.4209,14.9903 -15.7055,14.9903 -1.1437,0 -2.3616,0.7354 -2.7068,1.635 -0.3452,0.8993 -1.5,1.6356 -2.5662,1.6356 -1.0661,0 -2.7217,1.1955 -3.6794,2.6572 -1.9549,2.9837 -17.1373,14.4975 -34.7922,26.3844 -8.884,5.9815 -14.0036,8.5996 -20.9682,10.7239 -14.0754,4.2934 -18.1275,4.8923 -38.1662,5.642 l -18.5595,0.6941 -1.2971,-2.8469 c -1.9034,-4.1775 -9.7242,-9.4589 -14.0064,-9.4589 -1.9697,0 -4.8628,-0.4873 -6.4296,-1.0831 -5.9788,-2.2729 -14.5624,4.0221 -25.8599,18.9658 -3.67,4.8546 -8.7452,13.1721 -11.2784,18.4831 l -4.6064,9.6568 -1.3808,-4.2055 c -1.8943,-5.7698 -5.9428,-11.9687 -9.2186,-14.1149 -2.4815,-1.6265 -2.9646,-1.6346 -5.3216,-0.09 -1.5306,1.0028 -2.8825,3.2452 -3.3006,5.4736 -0.8804,4.6939 0.8986,24.297 3.775,41.5912 5.0556,30.396 8.9303,41.3206 16.2905,45.9264 4.7316,2.961 6.0999,4.274 16.6734,16.0016 l 8.4971,9.4253 -3.5915,3.2251 c -3.4946,3.1385 -3.5998,3.1611 -3.9243,0.8449 -0.9833,-7.0208 -2.6576,-9.7058 -7.3437,-11.7791 -10.2014,-4.5124 -31.0003,-5.0384 -40.2911,-1.0185 -7.0793,3.0631 -7.5017,4.096 -6.7464,16.493 0.5865,9.63 0.4136,11.3219 -1.4691,14.41 -3.8974,6.3923 -1.9283,12.9737 4.5635,15.2528 1.072,0.3761 2.1017,2.4224 2.5476,5.0612 0.8721,5.1617 3.8476,7.716 12.0236,10.3208 7.4429,2.3715 20.7292,1.798 25.7225,-1.11 5.0875,-2.963 6.2844,-6.0471 7.6383,-19.682 1.5615,-15.725 1.7902,-16.7003 3.9113,-16.7003 0.9991,0 4.1446,-1.9628 6.9888,-4.3615 2.8444,-2.3984 5.4166,-4.3609 5.7195,-4.3609 0.3013,0 4.2952,4.4166 8.8744,9.8144 9.3982,11.0754 11.4894,12.6255 14.7154,10.899 3.8279,-2.0485 2.4004,-5.1735 -7.0859,-15.5148 -5.0968,-5.5561 -9.2666,-10.3971 -9.2666,-10.7575 0,-0.3603 4.9059,-4.4333 10.9017,-9.0511 5.9961,-4.6179 10.9021,-8.7945 10.9021,-9.2816 0,-0.4873 2.1881,-1.7217 4.8623,-2.743 4.6338,-1.7698 9.31,-6.9885 9.31,-10.39 0,-0.7349 1.5856,-3.9875 3.5238,-7.228 2.8413,-4.7504 4.225,-6.0238 7.1376,-6.5702 1.9871,-0.3708 3.8628,-0.4263 4.1687,-0.1204 0.589,0.5887 -5.7145,11.2753 -12.8948,21.8623 -2.7318,4.0276 -4.8558,6.1377 -5.811,5.7712 -1.8631,-0.7154 -2.883,0.7629 -2.0397,2.9605 0.9574,2.4951 3.7701,3.1364 6.3412,1.4454 1.2646,-0.8319 6.181,-8.6563 10.9249,-17.387 5.8889,-10.8387 9.347,-16.0771 10.9017,-16.5138 4.1911,-1.1786 26.8061,-2.0643 26.8061,-1.0516 0,0.5417 -5.2267,7.1166 -11.6143,14.6115 -12.427,14.5806 -40.1331,50.9497 -42.0961,55.2576 -0.9453,2.0751 -0.8241,2.9642 0.5989,4.3869 1.5307,1.545 4.311,1.7459 19.5301,1.5141 17.936,-0.2735 20.499,-0.8325 20.499,-4.4695 0,-3.6184 -3.0845,-4.7096 -14.7753,-5.2297 -6.264,-0.2785 -11.389,-0.7145 -11.389,-0.9679 0,-1.3959 22.3721,-31.9766 32.0988,-43.8758 13.5593,-16.5881 16.3928,-21.449 14.8575,-25.4874 -1.5491,-4.0749 -7.9586,-5.5415 -20.4484,-4.6793 l -10.0128,0.6909 8.3778,-13.6255 c 4.6079,-7.4939 8.7124,-13.6446 9.1219,-13.6446 0.4092,-0.01 1.0515,0.9496 1.4273,2.1332 1.2658,3.9883 7.0217,7.0432 13.1,6.9572 7.7736,-0.1125 9.9633,-1.6738 13.6581,-9.741 2.2781,-4.9741 4.06,-7.3688 6.0446,-8.1231 3.2232,-1.2253 3.0395,-3.2901 -0.4315,-4.8581 -1.3103,-0.5918 -2.3823,-1.434 -2.3823,-1.8706 0,-1.6778 -7.1899,-8.8791 -10.0769,-10.093 l -3.0319,-1.2748 9.6739,-12.4665 c 16.2139,-20.8947 31.0209,-37.5048 33.7855,-37.8994 6.3772,-0.9104 12.9498,-7.9481 13.8265,-14.8043 0.2232,-1.7437 0.8261,-3.46 1.34,-3.8148 0.5139,-0.3547 7.2536,-8.004 14.9769,-16.9979 33.7564,-39.3126 60.2035,-66.4667 88.1305,-90.4865 8.6912,-7.4749 12.9299,-10.987 14.7278,-11.9755 -0.022,0.5517 0.088,1.0287 0.1065,1.6061 0.061,1.009 -0.2109,22.201 -0.3592,35.8428 -0.1496,13.6413 -0.2506,34.1136 -0.402,48.4069 l 0.7301,27.4701 -2.9026,2.495 c -4.5195,3.8848 -10.5363,12.256 -14.579,20.2835 -2.0983,4.1673 -6.2907,9.9267 -9.7281,13.364 -4.5161,4.5165 -6.0409,6.8289 -6.0409,9.1643 0,3.7745 1.7548,5.7403 5.1242,5.7403 2.2188,0 2.5032,0.5326 2.5342,4.6327 0.039,6.8426 1.8114,13.392 5.8322,21.5538 2.6532,4.8736 4.3886,6.2595 1.0532,10.4376 -4.6849,5.8688 -6.9804,16.178 -5.1351,23.0632 0.9403,3.5087 5.1003,3.1642 11.5181,-0.954 5.0511,-3.2411 5.4101,-3.3164 7.3743,-1.5389 2.3288,2.1076 9.3433,3.9843 11.623,3.1094 2.8527,-1.0946 1.8693,-11.2548 -1.8004,-18.5984 -5.1871,-10.3803 -9.6144,-10.4886 -4.9645,-0.1209 1.4404,3.2118 2.9476,7.4336 3.3496,9.3824 0.6388,3.0958 0.4446,3.5434 -1.5363,3.5434 -1.8084,0 -2.288,-0.7167 -2.375,-3.5434 -0.06,-1.9488 -0.5019,-4.7698 -0.9819,-6.2689 -0.7064,-2.2072 -0.8953,-1.724 -0.9813,2.544 -0.1338,6.48 -2.6757,6.5588 -3.1451,0.096 -0.4509,-6.2059 -1.3246,-8.1162 -2.4551,-5.3671 -0.4929,1.1994 -0.9301,3.6987 -0.9731,5.5547 -0.045,2.0004 -1.027,4.2199 -2.4112,5.4514 l -2.3342,2.0763 0.7364,-4.3604 c 0.4051,-2.3984 0.986,-5.8328 1.2919,-7.6316 0.504,-2.9695 0.4301,-3.07 -0.8051,-1.0904 -0.7482,1.1994 -1.8921,5.0896 -2.542,8.645 -0.6499,3.5551 -1.7762,6.6634 -2.5027,6.9045 -3.3807,1.127 0.3095,-13.7539 5.3986,-21.7698 4.7057,-5.4722 1.885,-8.1118 -0.9043,-14.1722 -3.9728,-8.629 -4.1585,-9.5402 -4.0845,-19.944 0.067,-9.397 2.2557,-22.3388 4.0876,-24.1707 0.2858,-0.2858 2.0127,0.2529 3.8375,1.1964 4.323,2.236 17.0362,2.2798 21.2659,0.074 1.7175,-0.8955 3.2649,-1.6284 3.4411,-1.6284 0.1749,0 0.6391,2.3318 1.031,5.1816 1.4456,10.5096 -4.6271,30.7344 -12.7796,42.5613 -3.8307,5.5574 -4.3321,8.9467 -1.324,8.9467 2.5445,0 10.2053,-10.1365 13.7542,-18.1994 3.2179,-7.311 3.6475,-7.8028 6.3407,-7.2642 4.302,0.8607 5.9294,-1.758 5.1553,-8.293 -0.3498,-2.9553 -1.3987,-6.8468 -2.3301,-8.6481 -0.9314,-1.8014 -1.7064,-4.8939 -1.7064,-6.8724 -0.036,-10.1477 -7.6887,-27.7345 -13.6782,-31.4363 -7.4433,-4.6003 -6.9361,-0.4864 -7.0011,-56.611 -0.04,-33.5718 0.2939,-61.3474 0.4666,-62.1864 0.1266,-0.8473 0.1479,-1.4803 0.1003,-1.9575 0.1419,-0.8208 0.2981,-1.5047 0.4816,-1.894 0.5416,-1.1493 0.4454,-1.6986 -0.2227,-1.6955 z m -236.7551,88.314 -10e-4,0.01 h -1.1147 c -3.5822,0.053 -7.3018,0.487 -11.0035,1.3105 -11.6989,2.6027 -13.7056,4.5878 -14.8099,14.6477 -0.8525,7.7651 -1.0432,8.1603 -6.6885,13.8767 -5.1161,5.1804 -5.6526,6.1358 -4.4917,7.9953 0.8328,1.3308 0.9258,2.3542 0.2532,2.7699 -1.9212,1.1872 -1.1592,5.068 1.1116,5.6617 1.1981,0.3134 2.1786,0.8852 2.1786,1.2702 0,0.385 -0.9805,1.3128 -2.1786,2.0613 -1.1983,0.748 -2.1787,2.074 -2.1787,2.9466 0,1.9684 3.2531,3.7438 5.4467,2.9725 1.3805,-0.4857 1.4101,-0.3034 0.1886,1.1766 -0.7961,0.963 -1.2843,2.8809 -1.0899,4.2618 0.2823,1.9913 1.0216,2.4965 3.5714,2.4505 2.3061,-0.043 4.0913,0.9376 6.3123,3.4675 1.7032,1.9397 5.6215,4.7848 8.708,6.3231 12.2679,6.1131 27.1079,1.0619 33.0011,-11.2339 1.2315,-2.5693 2.9096,-4.4747 3.9558,-4.4747 5.1335,-0.035 7.4826,-4.6073 3.0846,-6.0033 -1.7905,-0.5682 -2.1787,-1.6485 -2.1787,-6.0647 0,-5.3017 0.048,-5.376 3.5403,-5.5428 1.947,-0.096 4.6432,-0.074 5.9914,0.04 1.9986,0.172 2.4505,-0.3422 2.4505,-2.7859 0,-2.2189 -1.5544,-4.4656 -5.9914,-8.6615 l -5.9908,-5.6653 v -6.7014 c 0,-8.4215 -1.1719,-10.5921 -7.1448,-13.2343 -4.2071,-1.8609 -9.382,-2.8285 -14.9319,-2.8691 z m -0.038,5.3211 c 0.4622,0 0.9207,0.01 1.374,0.018 4.3544,0.09 8.2205,0.5123 10.1245,1.3084 4.2178,1.7634 5.4857,3.8209 6.5417,10.6149 l 0.6062,3.8974 -16.5127,0.2253 v 5e-4 c -9.0821,0.1243 -18.0498,0.4983 -19.928,0.8305 -1.8787,0.3323 -3.6411,0.1927 -3.916,-0.3106 -0.2748,-0.503 -0.2081,-3.6062 0.1483,-6.8952 0.573,-5.2888 1.0267,-6.162 3.9165,-7.5437 2.9501,-1.4106 10.7059,-2.1783 17.6444,-2.1451 z m 128.6567,11.1538 c 0.3595,0.079 -2.2977,3.6424 -7.9685,10.8309 h -0.015 c -4.1388,5.2467 -7.9628,9.5395 -8.4971,9.5395 -2.4951,0 -0.1288,-3.4976 8.4811,-12.5373 5.0165,-5.2596 7.6823,-7.9028 7.9995,-7.8331 z m -130.236,8.9561 c 12.1824,-0.048 21.5134,0.3437 21.514,0.9022 2e-4,0.5426 1.2257,2.5931 2.7233,4.5569 1.4974,1.9632 2.7227,3.8467 2.7234,4.1868 -9e-4,0.3326 -0.3689,0.502 -0.8176,0.3633 -0.4494,-0.1393 -13.4504,-0.3933 -28.8917,-0.5633 l -28.0764,-0.3095 4.6566,-4.5264 4.6566,-4.5268 z m 233.9186,12.8219 c 0.2786,0 0.1867,1.4612 -0.2047,3.2432 -0.8998,4.0968 0.1423,6.0734 2.2712,4.3068 0.8461,-0.7025 1.5384,-2.1692 1.5384,-3.2598 0,-2.7474 1.9328,-3.6722 4.037,-1.9317 2.0721,1.7135 6.8228,11.5611 6.8538,14.1594 0.01,1.0482 -1.4706,2.3355 -3.5321,3.0799 -3.89,1.4058 -19.1197,2.5344 -21.2038,1.573 -0.9304,-0.4299 -1.0055,-1.3952 -0.2595,-3.3569 1.2796,-3.366 9.787,-17.7989 10.4997,-17.8139 z m -222.8092,1.7973 v 0 h 8.4181 l -0.7384,4.3661 c -1.9813,11.7294 -6.9649,19.9238 -14.2069,23.3603 -4.3269,2.052 -10.7706,2.1042 -15.3216,0.1235 -3.4513,-1.5022 -11.3181,-8.6686 -11.3181,-10.3104 0,-0.4966 1.8384,-0.8489 4.085,-0.7809 3.4,0.1035 4.0845,-0.241 4.0845,-2.0541 0,-1.655 -1.2431,-2.5525 -5.1733,-3.7326 -2.8457,-0.8544 -5.1749,-1.9668 -5.1749,-2.4717 0,-0.984 4.8066,-0.092 7.8259,1.4532 3.2593,1.6674 6.335,1.1088 6.335,-1.1504 0,-1.37 -1.9674,-3.2357 -5.7185,-5.4224 -3.5248,-2.0546 -4.9196,-3.3579 -3.636,-3.3579 1.1459,-0.013 4.3901,1.4561 7.2089,3.2649 5.0821,3.2613 8.6816,3.4527 8.6816,0.4615 0,-0.8049 -0.8578,-1.9632 -1.9063,-2.574 -1.6427,-0.9582 -1.5088,-1.1121 0.9725,-1.1431 1.7561,-0.02 3.1675,0.71 3.6184,1.8728 0.7037,1.8156 0.8054,1.8156 2.1425,0 1.1267,-1.53 3.0659,-1.9059 9.8216,-1.9059 z m 3.3244,3.236 c -0.5991,-0.019 -1.2478,1.2602 -1.4454,2.8417 -0.2486,2.0092 0.08,2.7307 1.0893,2.3942 1.6708,-0.5568 1.9854,-5.1869 0.3561,-5.2359 z m 226.3252,3.885 c -1.2365,0 -2.2155,1.6213 -1.5193,3.4355 0.3838,0.9998 1.1507,1.818 1.7048,1.818 1.6459,0 2.4189,-3.3172 1.0842,-4.6519 -0.4169,-0.4169 -0.8575,-0.6001 -1.2697,-0.6016 z m -154.1792,10.0408 c 0.037,0 0.055,0.02 0.055,0.052 0,1.4239 -10.262,11.1977 -11.7574,11.1977 -0.729,0 -1.3291,0.6133 -1.3291,1.3627 0,0.7494 -2.9999,4.7965 -6.6616,8.9938 -10.625,12.1789 -29.824,35.897 -34.8041,42.9963 -4.9488,7.0548 -4.4369,6.7885 -21.9087,11.4412 -5.7772,1.5387 -11.2579,2.7978 -12.1797,2.7978 -2.1811,0 -7.9044,-6.7408 -12.9149,-15.211 l -3.9832,-6.7345 2.6401,-6.4962 c 1.4521,-3.5736 2.933,-9.306 3.2908,-12.7393 l -0.3907,-6.3216 14.0694,0.4439 c 15.9834,0.4481 28.84,-1.1533 41.9318,-5.225 10.9659,-3.4105 17.4215,-7.1473 33.3675,-19.3156 5.4808,-4.1824 10.0276,-7.2875 10.5745,-7.2414 z m -1.201,9.0687 c 0.2997,0 -0.6072,1.2258 -2.0154,2.7249 -1.4083,1.4991 -2.8054,2.7254 -3.1052,2.7254 -0.2997,0 0.6072,-1.2263 2.0154,-2.7254 1.4082,-1.4991 2.8054,-2.7249 3.1052,-2.7249 z m 125.9799,2.3295 v 2.7311 c 0,1.5021 -0.7709,3.5024 -1.7131,4.4447 -4.167,4.1666 -5.0244,0.8312 -1.0123,-3.9367 z m -249.5357,4.2112 c 6.171,0 12.0385,3.0018 15.428,7.8925 2.5903,3.7377 3.081,5.531 3.035,11.0929 -0.052,6.294 -2.0361,13.6283 -3.3347,12.3294 -0.3319,-0.3316 -0.072,-1.5936 0.5757,-2.805 0.6484,-1.211 1.1787,-4.8948 1.1787,-8.186 0,-4.7785 -0.5445,-6.6308 -2.7021,-9.1948 -3.5189,-4.1821 -9.6812,-5.2863 -15.813,-2.8329 -6.2869,2.5158 -8.7401,6.0824 -8.7401,12.7083 0,9.6707 6.0433,15.7773 14.6219,14.7758 3.1194,-0.3641 3.969,-3e-4 4.9304,2.11 1.6706,3.6664 1.5292,4.7399 -2.2246,16.8227 -2.9095,9.3685 -3.2837,11.8683 -2.6505,17.7813 0.6103,5.6999 0.3627,7.6121 -1.4408,11.1477 -2.5453,4.989 -9.2243,11.3183 -15.0952,14.3051 -9.0883,4.6231 -11.8216,5.4163 -14.2151,4.1242 -3.5093,-1.8947 -6.7838,-6.652 -9.0858,-13.2012 -2.6777,-7.6195 -2.9166,-28.5031 -0.4366,-38.2199 2.4358,-9.5444 10.1965,-24.898 17.6108,-34.8423 8.6475,-11.5985 13.5353,-15.8078 18.358,-15.8078 z m 270.9845,0.3173 c -4.5187,0 -8.7101,6.0398 -9.9027,14.2683 -0.8736,6.0311 0.631,10.5175 3.9734,11.8463 2.7254,1.0837 6.4185,0.3974 7.5752,-1.4076 1.1545,-1.802 -0.052,-2.9032 -3.1807,-2.9032 h -2.851 l 2.5606,-2.7254 c 2.8477,-3.0313 1.8502,-3.7512 -1.2769,-0.9214 -1.0964,0.991 -1.9937,1.3193 -1.9937,0.726 0,-0.5934 1.5129,-2.4275 3.3621,-4.0752 1.8493,-1.6477 3.0786,-3.2794 2.7321,-3.6261 -0.3467,-0.3465 -1.6168,0.2637 -2.8236,1.3555 -1.2064,1.093 -2.5314,1.6482 -2.944,1.2356 -0.4128,-0.4128 1.0622,-2.2445 3.2773,-4.0706 2.2151,-1.8255 4.0272,-3.8603 4.0272,-4.5207 0,-0.6606 -1.2241,-0.049 -2.7208,1.356 -1.4966,1.4061 -3.0361,2.2412 -3.4205,1.8568 -0.3844,-0.3847 0.8403,-2.1367 2.7213,-3.8938 4.0884,-3.8193 4.2221,-4.5005 0.8847,-4.5005 z m -156.2416,3.1062 c 0.4085,0.1642 -1.7685,3.2301 -10.3983,15.0601 -5.0103,6.8682 -9.468,13.1281 -9.9069,13.9118 -0.4385,0.7837 -2.4302,1.8932 -4.4256,2.4655 -3.3594,0.9636 -3.5123,0.9021 -2.0583,-0.8299 17.8669,-21.2817 25.1247,-29.702 26.1411,-30.33 0.3221,-0.1991 0.5537,-0.3154 0.648,-0.2775 z m -110.2083,6.4864 c 4.1477,0.024 7.5219,3.3992 8.6073,9.1845 0.687,3.6617 -0.1514,8.18 -1.5105,8.137 -0.4091,-0.013 -2.6703,-2.7113 -5.0235,-5.996 -5.011,-6.9945 -7.7688,-7.9092 -6.8544,-2.2738 0.3304,2.0344 1.8668,5.7036 3.4138,8.1545 1.5473,2.4509 2.8138,4.6589 2.8138,4.9062 0,1.3004 -3.2439,1.3698 -6.1862,0.1328 -4.5681,-1.921 -6.8968,-5.617 -6.8968,-10.9487 0,-4.6122 2.0479,-7.4702 7.2869,-10.1684 1.4984,-0.7717 2.9672,-1.136 4.3496,-1.1281 z m 290.0464,0.6951 h 5e-4 c 0.2439,-0.056 0.5101,0.2152 0.8775,0.7948 0.5068,0.7994 0.9384,2.0672 0.9384,2.8169 0.019,1.5791 -1.748,1.8266 -2.6479,0.3705 -0.3376,-0.5454 -0.2979,-1.8122 0.087,-2.8159 0.2791,-0.7273 0.5007,-1.1105 0.7446,-1.1663 z m -350.3548,17.5565 c 1.5146,0.1712 3.9314,3.2665 6.2089,8.1334 3.793,8.1056 5.9016,21.8505 4.9687,32.3903 -1.3684,15.4595 4.1688,32.0397 12.7935,38.3093 6.5026,4.7269 9.6525,5.814 22.7242,7.845 14.3622,2.2309 25.3608,2.3093 31.2751,0.2227 3.5158,-1.2392 4.4979,-1.2847 4.4979,-0.2072 0,3.163 -2.9636,5.1341 -9.2666,6.1644 -3.5977,0.5881 -7.7678,1.0084 -9.2666,0.9344 -14.9042,-0.7389 -41.4421,-6.4825 -47.0256,-10.1772 -4.8007,-3.1772 -4.615,-2.4817 -10.7869,-40.3691 -2.442,-14.99 -5.0954,-30.6884 -5.8958,-34.8857 -0.8004,-4.1972 -1.288,-7.8163 -1.081,-8.0388 0.1629,-0.1775 0.3515,-0.2812 0.5632,-0.3153 v -10e-4 c 0.093,-0.015 0.19,-0.017 0.291,-0.01 z m 149.8802,11.1456 c 2.1283,0.068 4.3411,0.8563 6.72,2.3601 3.7433,2.3662 3.7649,2.4189 1.0909,2.7838 -1.4988,0.2046 -6.2617,1.0796 -10.5838,1.9446 -4.3217,0.8649 -8.1235,1.5725 -8.4486,1.5725 -1.6048,0 -0.201,-2.2968 3.2623,-5.3377 2.6271,-2.3065 5.2229,-3.4105 7.9592,-3.3233 z m -17.5927,10.2221 c 0.3744,0.1126 0.4156,0.6879 -0.171,1.6371 h 5e-4 c -0.3952,0.6393 -1.2409,1.1628 -1.8785,1.1628 -0.7234,0 -0.6404,-0.6255 0.2197,-1.6614 0.7472,-0.9009 1.4549,-1.2511 1.8293,-1.1385 z m 28.9455,1.7265 v 0 c 1.0492,-0.01 1.9073,0.4739 1.9073,1.0734 0,1.3298 -0.123,1.3298 -2.1802,0 -1.3984,-0.9033 -1.3586,-1.0734 0.2718,-1.0734 z m 14.3433,0.2739 c -0.322,0.015 -0.4423,0.5607 -0.4423,1.7136 0,4.8846 -4.2898,11.0582 -10.3999,14.9665 -3.2739,2.0943 -5.9531,4.2836 -5.9531,4.8649 0,3.2071 8.5979,-0.1186 13.2219,-5.1144 5.2702,-5.6941 7.2868,-13.003 4.3884,-15.9014 -0.3557,-0.3562 -0.6217,-0.5382 -0.815,-0.5292 z m -104.1636,0.8088 c 0.3841,0.01 2.614,2.9828 4.9552,6.6166 7.6958,11.9437 13.2386,13.8387 28.7213,9.817 4.3471,-1.1289 7.9044,-1.8332 7.9044,-1.5674 0,0.267 -2.3808,4.0202 -5.2906,8.3401 -2.9098,4.3202 -6.1222,9.4704 -7.1386,11.4448 -1.0164,1.9744 -2.9281,3.9878 -4.2483,4.4736 -7.3929,2.7217 -8.215,2.5635 -10.5575,-2.0283 -1.7333,-3.3972 -3.6977,-5.0824 -8.984,-7.7049 -8.6185,-4.2759 -9.1659,-4.7635 -9.9901,-8.8837 -0.6783,-3.3919 3.1887,-20.5388 4.6282,-20.5078 z m 64.9056,8.1292 c 0.3898,-0.1556 1.9484,0.3853 4.5072,1.6898 2.3344,1.1901 4.8476,2.1637 5.5847,2.1637 0.7372,0 1.6438,0.4909 2.0143,1.0904 1.543,2.4967 -4.8754,0.8554 -9.602,-2.4552 -2.1153,-1.4815 -2.8941,-2.3332 -2.5042,-2.4887 z m 43.8955,3.529 c -0.4657,-0.032 -1.4521,0.934 -3.3993,3.1393 -2.0736,2.3483 -3.7843,4.638 -3.8153,5.0876 -0.025,0.45 0.6545,0.8175 1.5105,0.8175 2.0987,0 6.0756,-5.21 6.0756,-7.9597 0,-0.6864 -0.092,-1.0654 -0.3715,-1.0847 z m -56.9893,0.3245 c 2.34,0 2.2611,0.423 -1.2371,6.6518 -1.6489,2.9358 -3.2437,5.2806 -3.5435,5.2126 -3.3993,-0.7818 -4.361,-1.3248 -4.361,-2.4645 0,-2.0507 7.1474,-9.3999 9.1416,-9.3999 z m 168.9876,7.9359 c -0.6012,-0.016 -0.9779,1.2749 -0.4904,3.5549 1.0303,4.8184 3.6807,9.1455 6.4146,10.4722 v -5e-4 c 2.8227,1.3699 7.25,1.5114 9.1715,0.2935 0.9994,-0.6333 -0.081,-1.3078 -3.4597,-2.1585 -5.1141,-1.2878 -8.9549,-4.929 -10.1276,-9.6015 -0.4377,-1.7442 -1.0408,-2.5476 -1.5084,-2.5601 z m -180.282,5.3635 c 0.7418,-0.062 1.5173,0.4195 2.6541,1.2506 1.9333,1.4138 1.9134,1.635 -0.5374,5.996 -1.3999,2.4905 -3.3132,4.5434 -4.252,4.5434 -0.9392,0.01 -2.8118,0.3105 -4.161,0.6718 -3.2471,0.8702 -3.124,0.2589 1.3498,-6.735 2.5667,-4.0125 3.71,-5.6238 4.9465,-5.7268 z m 211.8331,2.3089 c -0.5361,-0.02 -1.0103,0.3287 -1.0103,1.061 0,0.5994 1.011,2.1008 2.2464,3.3362 1.3538,1.3535 3.3164,2.1114 4.9397,1.9074 3.8524,-0.4843 3.3636,-2.3902 -0.833,-3.2484 -1.963,-0.4015 -3.7458,-1.2598 -3.9621,-1.9079 -0.2471,-0.7408 -0.8447,-1.1287 -1.3807,-1.1483 z m -259.6343,4.037 5.0813,2.8763 c 8.9418,5.061 9.987,5.8423 9.987,7.4678 0,0.9784 -1.8827,2.0687 -4.8726,2.8215 -9.2179,2.3214 -8.9296,6.9231 0.4129,6.5924 3.0526,-0.1078 5.5501,0.09 5.5501,0.4403 0,2.314 -2.7384,4.8406 -5.7366,5.2937 -12.101,1.8282 -31.1162,0.8844 -36.2371,-1.7983 l -3.0468,-1.5968 5.0767,-1.7297 c 7.5375,-2.5683 17.8669,-10.2685 21.0416,-15.6858 z m 260.9432,7.9416 c -1.2065,-0.012 -1.2332,0.301 -0.139,1.6196 1.4917,1.7973 4.9785,2.1915 5.9195,0.6692 0.5799,-0.9389 -2.7546,-2.2578 -5.7805,-2.2888 z m -234.8559,9.4796 c 2.3715,0 2.492,0.4323 0.9348,3.3424 -1.2114,2.2633 -2.7265,2.7187 -3.7166,1.1167 -1.0671,-1.7271 0.6371,-4.4591 2.7818,-4.4591 z m -55.6163,23.1479 c 0.4162,-0.019 1.1287,0.1037 2.08,0.2687 2.0986,0.364 7.0047,0.9121 10.9022,1.218 3.8975,0.306 8.7852,0.817 10.8613,1.1359 l 3.775,0.5798 -2.6851,2.0624 c -1.4768,1.1345 -4.6754,3.5078 -7.1081,5.2746 l -4.4225,3.2127 -7.569,-7.0729 c -5.6608,-5.2895 -7.0822,-6.622 -5.8338,-6.6792 z m -32.3241,11.9884 v 5e-4 c 1.2596,0 2.5569,0.027 3.8788,0.089 11.6711,0.5492 17.5216,2.1969 15.3877,4.3336 -0.8909,0.8918 -6.3585,1.3843 -16.8031,1.5172 -16.4128,0.2067 -19.6708,-0.1651 -19.0024,-2.1704 0.7461,-2.2379 7.7219,-3.7581 16.539,-3.7698 z m 23.3469,10.8614 h 5e-4 c 0.9229,-0.042 0.7726,0.8631 0.042,4.1176 -0.5603,2.4929 -1.7403,11.7082 -2.6216,20.4778 -0.8817,8.7697 -2.0079,16.321 -2.4701,16.8124 -1.2359,1.3139 -3.4677,1.7217 -6.6771,2.3265 -4.3365,0.8174 -9.1311,0.6362 -15.6399,-0.2595 -6.1138,-0.8526 -6.8884,-1.5348 -7.6776,-6.7649 -0.5693,-3.7711 -0.3435,-4.1275 4.6943,-7.3918 6.282,-4.0705 10.0493,-8.3323 13.6566,-15.4518 3.0927,-6.103 2.5909,-8.8938 -1.5121,-8.4114 -2.1484,0.2524 -2.9781,1.1116 -3.484,3.6071 -0.3653,1.8015 -2.0309,5.3411 -3.7016,7.8656 -3.0003,4.5338 -10.0912,10.8188 -11.0851,9.8253 -0.8282,-0.8282 -5.6781,-24.6263 -5.1305,-25.1742 0.2744,-0.2744 2.0532,-0.053 3.9528,0.4914 1.8996,0.5448 8.6088,0.9953 14.9086,0.9643 10.3745,-0.023 14.1822,-0.5078 21.4457,-2.7285 0.5647,-0.1726 0.9913,-0.2917 1.2992,-0.3059 z m -45.0567,17.4061 c 0.3117,-0.066 0.5333,0.2662 0.5623,1.1256 0.026,0.7849 0.4524,3.5226 0.9477,6.0838 1.034,5.3472 0.1297,6.5701 -2.6148,3.5373 -1.4255,-1.5742 -1.7287,-3.0825 -1.1943,-5.932 0.488,-2.6023 1.6134,-4.6701 2.2991,-4.8147 z m 82.6074,11.0976 c -12.9379,0.1152 -26.5971,1.8157 -29.4721,4.6906 -3.2556,3.2563 -3.1944,8.1519 0.1514,12.0417 2.4502,2.8485 3.3317,3.093 13.3542,3.6969 h 5e-4 c 19.4422,1.1718 29.2543,1.0266 35.2175,-0.5204 3.2362,-0.8378 6.5207,-1.2827 7.2988,-0.9829 0.7896,0.3028 1.9682,-0.672 2.6675,-2.2065 1.0421,-2.2875 0.8449,-3.5921 -1.1715,-7.7572 -1.3328,-2.7537 -3.3935,-5.5267 -4.5795,-6.1614 -3.7771,-2.0214 -13.404,-2.8905 -23.4668,-2.8008 z m -12.7341,3.992 c 3.0705,0 3.0288,-0.2182 0.9234,4.8209 -1.6233,3.8848 -1.4057,6.0812 0.6021,6.0812 0.5411,0 1.5233,-2.0032 2.1828,-4.4519 0.8844,-3.2847 1.6341,-4.2852 2.8572,-3.8158 0.9117,0.3489 1.871,0.6362 2.1337,0.6362 0.2627,0 0.1692,1.2266 -0.2072,2.7254 -0.5021,2.0007 -0.2486,2.7259 0.9529,2.7259 2.8344,0 4.2208,-6.9411 1.5978,-7.9995 -0.7494,-0.3025 1.9486,-0.5901 5.996,-0.6361 4.0473,-0.047 7.3582,0.3443 7.3582,0.8702 0,0.5269 -2.2071,0.706 -4.9056,0.4031 -3.2463,-0.3659 -4.9051,-0.1363 -4.9051,0.679 0,0.6777 1.0196,1.232 2.2665,1.232 1.9519,0 2.1671,0.4551 1.5487,3.2706 -0.5742,2.6129 -0.3529,3.2706 1.0982,3.2706 1.0173,0 2.3593,-1.4389 3.0509,-3.2706 1.4676,-3.8885 4.8031,-4.4087 5.3139,-0.8289 0.1938,1.3585 1.2664,2.6171 2.4169,2.8365 1.81,0.3452 1.989,-0.096 1.4315,-3.5321 -0.3504,-2.1595 -0.271,-3.9264 0.1762,-3.9264 1.8143,0 4.423,2.9001 5.0865,5.6545 0.6462,2.683 0.3542,3.0182 -3.483,3.9925 h -5e-4 c -5.4092,1.3724 -19.2811,1.9466 -30.3537,1.2547 -8.5263,-0.5328 -8.7143,-0.6056 -8.4393,-3.2701 0.5591,-5.3965 2.5803,-8.7219 5.301,-8.7219 z m -7.228,1.0903 c 2.1734,0 2.211,0.1471 0.617,2.4231 -0.9335,1.3325 -1.6976,3.5401 -1.6976,4.9057 0,3.0588 -2.7579,3.2973 -4.3222,0.3741 -2.3903,-4.4667 -0.1205,-7.7029 5.4028,-7.7029 z" fill="#00B894" transform="translate(-102.91348,292.8981) translate(-8535.0913,-3662.5871)"/>
</svg>