<?xml version="1.0" ?><svg height="320.33401mm" viewBox="0 0 306.87741 320.33401" width="306.87741mm" xmlns="http://www.w3.org/2000/svg">
    <path d="m 5920.4352,6195.7421 c -47.028,0.555 -75.021,15.77 -81.318,89.363 -7.297,91.663 69.466,111.183 114.445,97.51 44.978,-13.673 96.96,-49.025 85.191,-93.688 -11.769,-44.662 -37.109,-89.522 -97.008,-92.654 -7.487,-0.392 -14.592,-0.611 -21.31,-0.531 z m 319.205,101.58 c -12.308,0.249 -24.888,3.642 -37.176,11.316 -56.173,35.082 -71.369,81.457 -39.385,144.154 0,0 65.769,41.739 118.444,22.489 52.675,-19.25 68.568,-76.821 53.974,-112.082 -11.4,-27.549 -51.899,-66.766 -95.857,-65.877 z m -401.801,96.877 c -19.74,-0.124 -37.556,5.521 -47.002,16.81 -18.891,22.579 -41.427,33.067 -58.218,127.069 0,0 -29.194,93.004 -15.967,173.4 13.227,80.396 44.179,99.668 96.154,95.17 51.975,-4.498 113.446,-38.59 92.855,-69.264 -20.59,-30.674 -29.712,-116.466 -0.925,-198.504 28.786,-82.037 25.934,-103.313 -8.35,-126.881 -17.142,-11.783 -38.806,-17.677 -58.547,-17.8 z m 304.094,606.756 c -17.451,-0.415 -33.009,0.61 -45.277,3.318 -65.431,14.441 -279.329,-32.428 -340.866,-38.457 -61.536,-6.029 -125.096,-0.56 -268.265,36.594 -73.376,28.882 -117.309,57.623 -134.28,96.082 -16.971,38.459 112.625,144.646 202.514,147.17 89.89,2.524 164.668,-15.421 269.201,4.207 104.534,19.628 339.773,-23.514 430.442,-51.975 90.668,-28.462 146.908,-84.823 106.306,-129.76 -32.988,-36.511 -144.153,-65.382 -219.775,-67.179 z" fill="#FFFFFF" transform="translate(-80.573355,30.20465) matrix(0.28906829,0,0,0.28906829,-1458.6214,-1807.0096)"/>
    <path d="m 10785.609,10452.076 c -16.366,0.465 -34.637,11.362 -50.839,31.018 l -16.364,19.847 -31.408,-9.898 c -29.325,-9.245 -33.301,-9.276 -59.885,-0.445 -34.388,11.421 -68.383,42.83 -73.377,67.791 l -3.652,18.275 -12.9,-11.709 c -23.843,-21.65 -67.577,-21.352 -67.577,0.453 0,4.135 -9.9,10.489 -22.007,14.115 -26.917,8.063 -41.532,29.993 -29.584,44.387 4.951,5.965 5.62,10.649 1.886,13.143 -8.538,5.707 -13.722,22.761 -9.923,32.654 3.962,10.333 24.684,11.196 45.126,1.881 11.334,-5.162 16.402,-5.162 21.565,0 10.821,10.821 21.282,8.046 50.486,-13.389 30.214,-22.177 34.532,-23.752 34.532,-12.59 0,8.257 24.87,33.205 43.162,43.297 6.332,3.492 28.344,6.429 48.92,6.469 31.034,0.1 42.452,-2.77 67.029,-16.867 36.321,-20.83 52.861,-41.023 57.531,-70.223 1.96,-12.253 5.813,-23.67 8.563,-25.371 7.989,-4.937 5.775,-13.92 -3.432,-13.92 -4.64,0 -11.432,-5.827 -15.106,-12.949 -3.673,-7.121 -11.745,-18.521 -17.943,-25.332 l -11.262,-12.383 36.422,-19.268 c 40.263,-21.304 48.242,-35.605 25.621,-45.912 -4.885,-2.225 -10.128,-3.229 -15.584,-3.074 z m -126.964,56.633 c 4.931,0.147 9.65,1.283 14.195,3.395 l 12.582,5.843 -14.387,5.782 c -7.916,3.177 -30.575,14.972 -50.357,26.207 -41.876,23.792 -48.253,16.229 -13.096,-15.534 19.575,-17.682 36.27,-26.135 51.063,-25.693 z m 79.449,53.865 c 2.434,6.332 1.338,11.52 -2.719,12.871 -11.339,3.781 -7.585,18.569 4.721,18.569 8.188,0 11.508,3.836 11.508,13.302 0,16.751 -16.951,35.165 -46.03,50 -33.313,16.993 -74.901,15.551 -97.406,-3.384 -20.839,-17.537 -21.464,-21.671 -6.193,-41.082 6.328,-8.045 11.507,-19.584 11.507,-25.631 0,-7.653 9.199,-15.271 30.215,-25.026 19.359,-6.722 36.116,-19.161 52.907,-23.609 4.413,-1.177 12.349,-2.117 12.349,-2.117 13.322,-0.654 20.175,0.88 29.141,26.107 z m -29.543,-14.978 c -3.5,10.11 -4.077,13.079 1.863,18.941 6.038,5.956 8.96,5.274 15.525,-3.617 0,0 3.257,-7.061 -1.615,-13.556 -1.935,-6.604 -12.98,-9.839 -15.773,-1.768 z m -24.012,1.955 c -6.245,0.607 -8.962,5.933 -7.594,11.041 3.889,15.914 15.969,20.059 20.916,7.17 2.374,-6.185 0.134,-12.634 -5.922,-17.063 -2.845,-1.029 -5.318,-1.351 -7.4,-1.148 z m 278.984,45.554 c -8.493,0.182 -15.272,3.033 -28.128,8.719 -18.599,8.227 -31.75,19.83 -45.061,39.75 -17.032,25.509 -18.605,31.405 -16.688,63.151 2.555,42.282 17.839,64.696 56.366,82.656 38.221,17.822 84.634,14.059 113.574,-9.201 27.771,-22.324 41.192,-49.551 41.537,-84.297 0.514,-51.437 -23.438,-78.355 -83.176,-93.479 -19.721,-4.992 -29.93,-7.48 -38.424,-7.299 z m -280.818,11.817 c -25.907,-0.872 -54.097,19.559 -40.139,36.379 7.972,9.608 41.471,10.951 57.622,2.306 14.506,-7.761 14.256,-26.494 -0.458,-34.371 -5.189,-2.776 -11.046,-4.113 -17.025,-4.314 z m 271.094,15.955 c 5.02,-0.121 10.87,23.83 7.248,29.687 -5.594,9.056 -18.768,4.704 -22.631,-7.472 -3.509,-11.058 4.027,-21.956 15.383,-22.215 z m 31.574,0.398 v 0 c 1.212,-0.194 2.831,-0.03 4.9,0.383 6.052,1.213 15.538,15.689 23.946,36.541 7.657,18.992 18.974,41.005 25.146,48.916 10.278,13.174 11.257,13.42 11.297,2.879 0.04,-6.332 -6.376,-25.366 -14.262,-42.295 -17.123,-36.792 -17.195,-37.336 -3.849,-30.197 5.762,3.087 15.262,16.226 21.115,29.201 10.403,23.027 10.393,24.223 -0.389,50.229 h -0.02 c -6.078,14.649 -13.824,27.562 -17.217,28.693 -3.397,1.131 -9.295,-11.45 -13.102,-27.951 -3.811,-16.505 -13.194,-38.23 -20.855,-48.274 -7.662,-10.044 -15.714,-25.346 -17.885,-34.004 -2.447,-9.756 -2.466,-13.539 1.17,-14.121 z m -303.519,6.006 c 3.129,0.04 6.045,0.457 7.992,1.244 3.897,1.576 -0.682,2.784 -10.178,2.655 -9.496,-0.121 -12.686,-1.407 -7.088,-2.866 2.802,-0.728 6.144,-1.067 9.274,-1.029 z m 238.748,25.891 c 2.163,0.496 3.652,2.714 3.652,6.857 0,2.219 -5.115,7.226 -11.365,11.133 -10.626,6.634 -10.946,6.172 -4.916,-7.066 3.55,-7.794 9.024,-11.751 12.629,-10.924 z m 53.558,13.66 c 22.169,0 15.171,15.025 -11.793,25.32 -13.855,5.292 -29.794,14.709 -35.418,20.924 -5.629,6.22 -12.268,11.305 -14.754,11.305 -6.717,0 -12.115,-10.738 -8.412,-16.729 7.04,-11.391 57.778,-40.82 70.377,-40.82 z m -417.406,17.262 v 0 c -26.217,0 -30.496,2.084 -54.818,26.756 -18.814,19.083 -31.712,40.128 -44.975,73.376 -20.56,51.546 -23.972,99.235 -18.811,155.965 -0.185,102.762 0.588,110.813 12.829,133.719 7.161,13.406 20.11,28.81 28.777,34.227 8.663,5.421 16.612,10.424 17.67,11.119 3.915,2.577 29.49,109.203 29.619,123.386 0.207,26.472 -52.483,66.317 -155.275,117.416 -36.399,18.094 -70.713,36.965 -76.25,41.928 -23.58,21.13 -4.236,43.192 56.318,64.244 h 0.02 c 41.868,14.555 71.166,9.616 71.645,-12.078 0.224,-10.256 -28.112,-34.149 -48.83,-41.172 l -23.022,-7.804 54.67,-26.242 c 75.928,-36.451 144.087,-83.538 158.076,-109.194 10.51,-19.281 10.784,-23.778 3.831,-62.932 -15.332,-86.334 -15.644,-81.668 5.908,-88.958 10.575,-3.578 26.998,-9.704 36.494,-13.61 15.931,-6.552 22.003,-4.833 78.736,22.32 39.408,18.863 62.755,33.457 65.043,40.661 3.405,10.721 -2.715,25.314 -24.539,58.519 -27.037,41.134 -58.125,96.584 -64.992,115.926 -6.591,18.555 -6.47,22.85 0.846,30.166 7.54,7.532 14.176,7.532 57.019,0 26.666,-4.687 51.753,-11.787 55.742,-15.779 11.9,-11.905 -0.745,-23.629 -29.228,-27.09 l -26.197,-3.19 31.474,-53.75 c 17.308,-29.566 34.465,-63.748 38.125,-75.959 12.902,-43.072 -11.663,-71.663 -91.346,-106.314 l -43.794,-19.047 -16.209,-50.867 c -18.633,-58.49 -20.132,-88.242 -6.821,-135.674 7.558,-26.942 11.339,-32.984 18.703,-29.898 5.076,2.124 33.836,11.653 63.903,21.171 45.235,14.317 67.525,17.796 129.088,20.161 63.942,2.452 78.032,4.778 100.132,16.527 35.998,19.143 93.999,19.622 107.125,0.885 16.993,-24.258 8.501,-56.268 -14.923,-56.268 -5.542,0 -12.27,-3.914 -14.946,-8.701 -7.916,-14.148 -37.049,-19.629 -60.845,-11.445 -22.816,7.842 -46.187,4.561 -147.793,-20.754 -52.442,-13.066 -70.055,-20.62 -107.024,-45.905 -12.966,-8.87 -29.8,-17.692 -37.41,-19.609 -7.61,-1.916 -19.641,-12.362 -26.742,-23.217 -17.127,-26.17 -51.207,-43.019 -87.002,-43.019 z m 441.064,11.511 c 5.034,0 18.499,41.607 18.516,57.186 -0.02,3.418 -11.969,6.064 -27.336,6.064 h -27.334 l 20.145,-10.062 c 11.075,-5.533 18.844,-12.65 17.265,-15.813 -4.084,-8.163 -28.475,-3.993 -49.875,8.524 -16.846,9.889 -24.945,9.876 -24.945,0 0,-4.886 65.73,-45.899 73.564,-45.899 z m -452.48,12.891 c 5.736,-0.08 13.258,2.559 27.955,7.844 32.035,11.52 63.213,41.13 63.213,60.035 0,15.146 -3.666,14.338 -26.684,-5.871 -22.199,-19.492 -46.055,-27.485 -55.08,-18.459 -4.304,4.303 3.648,16.328 26.926,40.732 32.475,34.047 32.902,34.928 25.262,52.18 -5.08,11.481 -11.753,17.419 -19.311,17.117 -19.083,-0.708 -106.607,-26.152 -113.431,-32.976 -11.967,-11.965 26.38,-91.707 53.914,-112.123 7.549,-5.596 11.5,-8.398 17.236,-8.479 z m 118.502,73.559 c 2.374,0.07 22.26,11.744 44.191,25.953 21.931,14.205 50.419,28.532 63.307,31.838 12.888,3.307 26.019,6.962 29.187,8.123 16.963,6.228 -22.613,0.63 -55.521,-7.856 -60.091,-15.491 -85.479,-28.758 -85.479,-44.668 0,-7.433 1.941,-13.48 4.315,-13.39 z m -192.199,77.093 c 0.843,0.142 1.767,0.451 2.789,0.893 8.118,3.518 59.447,15.074 102.07,22.977 10.812,2.007 11.589,4.937 8.24,31.05 -2.038,15.862 -5.339,30.474 -7.338,32.473 -11.261,11.265 -112.711,5.416 -117.386,-6.768 -1.778,-4.64 -1.419,-25.406 0.804,-46.15 3.018,-28.185 4.919,-35.464 10.821,-34.475 z m -13.545,112.012 27.34,4.67 c 15.034,2.568 43.15,4.558 62.474,4.428 l 35.143,-0.258 16.281,34.771 c 8.956,19.121 17.109,36.094 18.115,37.713 1.01,1.618 -3.034,5.502 -8.982,8.631 -5.947,3.13 -18.257,9.894 -27.356,15.035 v 0.03 c -33.175,18.72 -41.053,18.655 -50.925,-0.432 -10.083,-19.496 -28.024,-23.286 -36.713,-7.756 -12.578,22.466 -35.377,-26.52 -35.377,-76.006 z m -25.897,265.422 c -8.986,0 -11.417,6.807 -4.795,13.428 6.625,6.621 13.428,4.19 13.428,-4.797 0,-4.748 -3.885,-8.631 -8.633,-8.631 z m 615.791,0 c -4.748,0 -8.633,3.883 -8.633,8.631 0,4.748 3.885,8.633 8.633,8.633 4.748,0 8.633,-3.885 8.633,-8.633 0,-4.748 -3.885,-8.631 -8.633,-8.631 z m -69.06,4.889 c -3.009,0 -6.397,2.784 -7.528,6.185 -1.135,3.406 2.253,6.19 7.528,6.19 5.274,0 8.662,-2.784 7.531,-6.19 -1.135,-3.401 -4.523,-6.185 -7.531,-6.185 z m -106.129,12.375 c -2.978,0 -7.015,2.591 -8.975,5.754 -1.955,3.164 0.485,5.754 5.418,5.754 4.934,0 8.973,-2.59 8.973,-5.754 0,-3.163 -2.438,-5.754 -5.416,-5.754 z m -489.434,23.949 c -3.718,0.56 -5.838,3.259 -5.838,7.703 0,5.529 3.72,8.701 8.934,7.613 12.5,-2.603 13.268,-12.815 1.135,-15.15 -1.575,-0.303 -2.992,-0.353 -4.231,-0.166 z m 606.442,10.59 c -36.579,1.315 -78.54,13.691 -81.62,29.683 -1.67,8.663 0.268,8.737 22.95,0.868 24.555,-8.52 78.125,-7.921 106.781,1.191 18.327,5.831 17.296,-11.373 -1.424,-23.635 -7.158,-4.691 -18.464,-7.212 -31.469,-7.972 -4.876,-0.286 -9.993,-0.323 -15.218,-0.135 z m 109.451,13.881 c -1.501,0.116 -3.014,0.445 -4.5,1.015 -9.578,3.673 -12.395,14.671 -5.524,21.543 6.812,6.811 23.615,4.074 26.856,-4.377 3.626,-9.442 -6.325,-18.997 -16.832,-18.181 z m -807.004,23.464 c -28.938,-0.736 -64.361,19.05 -64.361,38.874 0,2.533 7.007,0.02 15.566,-5.596 8.563,-5.616 29.928,-11.498 47.478,-13.082 33.538,-3.026 39.573,-11.512 13.2,-18.565 -3.747,-1.002 -7.749,-1.525 -11.883,-1.631 z m -143.428,20.739 c -6.126,-0.07 -8.589,4.154 -4.617,10.584 4.779,7.735 12.863,7.895 17.529,0.345 1.968,-3.185 -0.578,-7.39 -5.666,-9.345 -2.754,-1.057 -5.204,-1.557 -7.246,-1.58 z m 407.533,0.279 c -1.664,-0.05 -3.68,0.508 -5.892,1.875 -3.427,2.119 -4.606,6.487 -2.612,9.711 2.43,3.933 5.647,3.834 9.782,-0.301 5.538,-5.539 3.714,-11.139 -1.278,-11.285 z m -495.363,27.955 c -3.164,0 -5.754,2.589 -5.754,5.752 0,3.164 2.59,5.754 5.754,5.754 3.168,0 5.758,-2.59 5.758,-5.754 0,-3.163 -2.59,-5.752 -5.758,-5.752 z m 865.982,6.404 c -18.313,0.38 -37.255,6.514 -37.255,13.998 0,6.392 8.152,8.37 34.529,8.37 26.662,0 34.531,-1.942 34.531,-8.52 0,-4.688 -6.492,-10.152 -14.426,-12.146 -5.239,-1.316 -11.274,-1.828 -17.379,-1.702 z m -482.757,2.426 c -2.499,-0.05 -5.152,0.324 -7.674,1.252 -3.975,1.446 -5.728,4.951 -3.975,7.783 v 0.02 c 4.143,6.686 18.176,6.617 22.342,-0.129 2.92,-4.723 -3.197,-8.763 -10.693,-8.922 z m -276.754,2.676 c -5.12,0 -7.709,2.59 -5.754,5.758 1.955,3.164 4.545,5.754 5.754,5.754 1.208,0 3.797,-2.59 5.752,-5.754 1.96,-3.168 -0.629,-5.758 -5.752,-5.758 z m 566.838,20.369 c -4.484,0.477 -9.27,4.07 -10.483,10.367 -1.48,7.691 0.864,10.038 8.555,8.557 5.827,-1.122 10.592,-5.889 10.592,-10.594 0,-6.168 -4.181,-8.807 -8.664,-8.33 z m -80.2,2.654 c -6.514,0 -11.847,2.59 -11.847,5.754 0,3.163 3.733,5.754 8.291,5.754 4.562,0 9.897,-2.591 11.853,-5.754 1.955,-3.164 -1.78,-5.754 -8.297,-5.754 z m -530.361,1.323 c -2.909,-0.328 -6.131,0.01 -8.963,1.099 -8.33,3.195 -8.778,4.891 -2.347,8.866 10.657,6.582 26.113,0.652 18.4,-7.061 -1.584,-1.582 -4.181,-2.577 -7.09,-2.904 z m 439.592,5.422 c -1.34,0.1 -2.7,0.389 -4.043,0.904 -5.179,1.986 -7.493,7.148 -5.525,12.275 3.928,10.235 16.969,11.733 22.619,2.596 4.735,-7.667 -3.674,-16.459 -13.051,-15.775 z m 96.187,22.027 c -6.332,0 -11.513,2.591 -11.513,5.758 0,3.165 5.181,5.756 11.513,5.756 6.332,0 11.51,-2.591 11.51,-5.756 0,-3.167 -5.178,-5.758 -11.51,-5.758 z m 141.926,1.908 c -18.808,0.835 -38.336,8.11 -38.336,16.445 0,3.086 5.607,3.578 12.949,1.131 15.526,-5.171 24.032,-5.027 49.688,0.834 27.638,6.319 21.436,-9.854 -6.482,-16.898 -5.36,-1.352 -11.549,-1.79 -17.819,-1.512 z m -206.111,21.865 c -4.281,-0.07 -8.122,0.261 -11.311,1.061 -7.916,1.99 -23.301,9.978 -34.191,17.756 -35.687,25.489 -80.553,44.908 -95.246,41.217 -7.567,-1.899 -13.76,-1.001 -13.76,1.99 0,2.996 4.532,6.626 10.074,8.076 29.053,7.592 55.139,-0.652 99.524,-31.449 36.429,-25.276 55.845,-27.633 87.578,-10.627 23.252,12.465 38.781,14.822 38.781,5.887 0,-13.506 -51.486,-33.429 -81.449,-33.911 z m -397.02,0.938 c -2.186,-0.102 -4.35,-0.08 -6.515,0.07 -5.773,0.399 -11.552,1.673 -17.768,3.725 -25.199,8.318 -35.23,26.857 -10.951,20.24 23.895,-6.513 37.021,-4.395 71.137,11.488 55.184,25.687 69.997,16.775 21.007,-12.64 -25.234,-15.152 -41.608,-22.171 -56.91,-22.887 z" fill="#00B894" transform="translate(-80.573355,30.20465) matrix(0.28906829,0,0,0.28906829,-1458.6214,-1807.0096) translate(-4730.5688,-4305.3989)"/>
</svg>