<?xml version="1.0" ?><svg height="71.375671mm" viewBox="0 0 70.44976 71.375671" width="70.44976mm" xmlns="http://www.w3.org/2000/svg">
    <path d="m 2677.8711,4477.3955 c -10.9849,0.038 -20.9391,6.1828 -27.587,20.0364 -4.6741,15.5482 -3.6089,38.2847 22.5719,46.0055 26.1807,7.7208 42.096,-21.9115 39.4927,-35.4362 -2.6032,-13.5247 -11.6554,-25.7447 -25.9143,-29.4719 -2.8964,-0.7573 -5.7632,-1.1438 -8.5633,-1.1338 z" fill="#FFFFFF" transform="translate(-43.709366,-85.902768) translate(-2601.5616,-4389.2082)"/>
    <path d="m 2670.8806,4545.5996 c -13.6935,-2.9818 -23.1405,-12.7828 -25.2706,-26.2178 -0.8978,-5.6631 0.055,-15.1781 2.0619,-20.5817 1.9198,-5.1694 5.2517,-10.2785 9.6731,-14.8325 8.8189,-9.0834 22.2486,-11.3713 35.0714,-5.974 10.1959,4.2915 16.6803,11.3257 21.06,22.8467 2.7572,8.685 3.2335,19.2903 -0.041,26.2369 -4.0851,8.6246 -13.0688,16.1018 -22.2062,18.482 -4.6836,1.2197 -14.8391,1.2401 -20.3488,0.039 z m 10.6598,-7.7385 c 3.6502,-3.992 4.5135,-9.502 2.8445,-18.1541 -1.4062,-7.2914 -0.086,-16.9151 2.9292,-21.359 l 1.5452,-2.2768 -1.57,-1.0287 c -2.4014,-1.5734 -3.5997,-1.2758 -7.6462,1.9013 -7.6621,6.0151 -12.5738,13.4202 -16.3227,24.6102 -2.4564,7.3314 -2.6191,12.0629 -0.4633,13.4753 3.1396,2.0568 10.3188,4.0415 15.3117,4.2325 1.3274,0.051 2.4837,-0.4294 3.3716,-1.4007 z m 25.9781,-14.0136 c 2.7993,-5.5989 2.7795,-6.2492 -0.3342,-10.866 -2.981,-4.4201 -13.1746,-13.9607 -14.4838,-13.5561 -0.4328,0.1341 -1.3782,1.4099 -2.1008,2.8352 -1.4573,2.8747 -1.6761,9.9772 -0.6797,22.0533 0.4392,5.3213 0.3387,6.8032 -0.6345,9.3512 -0.6358,1.6653 -1.561,3.3639 -2.0558,3.7745 -1.7986,1.4928 -0.8249,1.8069 2.549,0.8226 7.0149,-2.0862 14.5436,-8.3195 17.7398,-14.4147 z m -46.8373,-5.9137 c 2.998,-9.2787 8.5071,-17.6919 15.2723,-23.3217 l 3.8737,-3.224 -1.6539,-0.7533 c -1.4928,-0.6805 -1.8957,-0.5138 -4.1386,1.709 -1.5833,1.5692 -5.8208,4.0645 -11.6811,6.8786 -5.058,2.4289 -9.598,4.9059 -10.0888,5.5047 -0.676,0.8252 -0.8223,2.881 -0.6035,8.4894 0.3111,7.9719 1.4277,11.6112 4.9913,16.2684 l 1.7598,2.2998 0.4215,-4.7189 c 0.232,-2.5953 1.0633,-6.7045 1.8473,-9.132 z m 47.4001,-15.4943 c -0.684,-1.9873 -1.7452,-4.5837 -2.3585,-5.77 -1.0584,-2.0466 -1.265,-2.1397 -4.046,-1.8265 -1.6119,0.1818 -3.1012,0.5006 -3.3092,0.7091 -0.2082,0.208 1.3412,1.9426 3.4431,3.8542 2.1015,1.9114 4.5526,4.2886 5.4464,5.2821 0.8938,0.9944 1.7246,1.7077 1.8463,1.586 0.1214,-0.1217 -0.3384,-1.8468 -1.0221,-3.8349 z m -51.3972,-4.0828 c 2.0344,-1.2242 5.4734,-3.1131 7.6422,-4.1973 2.1688,-1.0846 4.6631,-2.5541 5.5428,-3.2666 l 1.5994,-1.2951 -3.7364,-0.4665 c -2.0548,-0.2566 -5.2975,-0.272 -7.206,-0.035 -2.9924,0.3741 -3.6361,0.7194 -4.6773,2.5106 -1.4176,2.4389 -3.7735,8.9744 -3.2348,8.9744 0.2043,0 2.0357,-1.002 4.0701,-2.2262 z m 40.3611,-6.7445 c 4.2516,-1.3578 4.1738,-1.2814 2.8231,-2.7736 -1.1019,-1.2179 -1.1906,-1.2171 -4.5267,0.051 -4.6091,1.7513 -4.7924,1.909 -3.402,2.9252 1.4803,1.083 1.0226,1.1012 5.1056,-0.2029 z m -8.2491,-4.7606 c 1.7444,-0.6872 3.8983,-1.3735 4.7868,-1.5243 2.554,-0.4342 -6.2831,-4.4458 -10.8262,-4.9149 l -3.6523,-0.3768 v 2.9038 c 0,2.8136 0.087,2.9366 2.7916,3.954 3.6758,1.3829 3.2798,1.3853 6.9001,-0.044 z m -13.9489,-2.8554 c 0.1651,-0.4514 0.3776,-1.56 0.472,-2.4636 0.1659,-1.5819 0.052,-1.6335 -3.1122,-1.4107 -3.3412,0.2355 -6.9933,1.4454 -8.7601,2.9033 -0.8237,0.6791 -0.6237,0.8715 1.2633,1.2133 4.1966,0.7602 9.8201,0.626 10.137,-0.2423 z" fill="#00B894" transform="translate(-43.709366,-85.902768) translate(-2601.5616,-4389.2082)"/>
</svg>