<?xml version="1.0" ?><svg height="175.68639mm" viewBox="0 0 318.68719 175.68639" width="318.68719mm" xmlns="http://www.w3.org/2000/svg">
    <path d="m 7988.6992,9523.6367 c -65.196,-0.2829 -133.3086,38.3061 -164.7344,70.9942 0,0 -35.0835,59.9711 20.7676,135.3671 55.8511,75.396 150.5158,44.9108 206.0645,17.2383 55.5487,-27.6724 110.3928,-103.5219 32.2617,-184.7246 -26.8576,-27.9134 -60.2091,-38.7268 -94.3594,-38.875 z M 7657.75,9696.2871 c -4.7099,0.2584 -9.1551,0.8922 -13.2129,1.9356 -32.4622,8.3471 -171.9904,82.8364 -195.1777,99.8027 -23.1873,16.9664 -40.8298,51.3531 -77.627,77.2109 -36.7972,25.8579 -85.6922,25.4027 -145.2734,2.3575 -59.5812,-23.0453 -92.8498,-18.7799 -132.8731,-0.9063 -123.3108,119.2966 189.4117,194.7165 225.0215,206.6915 141.6441,46.544 325.3767,-13.632 430.6269,-31.052 105.2502,-17.42 246.6179,2.756 368.3008,-23.827 140.4213,-44.5347 158.5916,-122.146 62.627,-157.9824 -26.0101,-10.3431 -43.2479,-22.7738 -116.1367,13.8808 -72.8887,36.6546 -105.1509,8.802 -141.5449,-5.5332 -36.3941,-14.3353 -107.1641,-24.2246 -107.1641,-24.2246 0,0 -45.4676,-93.9054 -63.2109,-120.3984 -15.5255,-23.1813 -61.3861,-39.7637 -94.3555,-37.9551 z" fill="#FFFFFF" transform="translate(37.752993,1.3344631) matrix(0.24650744,0,0,0.24650744,-613.19615,-1254.2286) translate(-4730.5688,-4305.3989)"/>
    <path d="m 2912.6668,5711.0185 c -9.4526,-2.3683 -35.7874,-13.8771 -58.5214,-25.5752 -46.8343,-24.0992 -83.6056,-33.4568 -112.6859,-28.677 -10.9486,1.7995 -38.7884,10.6041 -61.8665,19.5659 -42.0622,16.3337 -81.805,21.2193 -108.15,13.295 -11.2806,-3.3928 -46.3553,-34.4668 -46.3553,-41.0677 0,-7.4757 9.4453,-3.504 25.784,10.8413 15.0239,13.1912 19.6311,14.5918 47.3012,14.3796 25.9689,-0.1989 37.7448,-3.4772 77.0182,-21.4378 25.4992,-11.6609 57.1577,-22.6155 70.3516,-24.3427 32.0191,-4.1919 73.3959,6.6062 128.1742,33.4503 54.988,26.9464 73.086,27.5902 131.4547,4.6758 23.1623,-9.0931 54.7365,-19.1405 70.1645,-22.3271 26.9855,-5.5737 29.0062,-5.2939 53.1689,7.3567 25.6281,13.418 48.9498,34.0217 44.0525,38.9187 -1.4952,1.4952 -17.0227,-3.0038 -34.5049,-9.9978 -39.1566,-15.6651 -50.8842,-14.5076 -117.7016,11.6165 -54.1634,21.1771 -81.0409,26.0006 -107.6842,19.3255 z m -385.212,-108.4117 c -13.0188,-4.8728 -35.3876,-14.3977 -49.7081,-21.1668 -30.1218,-14.2376 -70.8572,-16.3036 -101.7835,-5.1618 -22.7816,8.2071 -21.3035,8.0573 -21.3035,2.1609 0,-9.0941 30.0141,-23.0288 61.8614,-28.7204 31.4845,-5.6266 32.5874,-5.4623 82.3868,12.2804 68.4548,24.3894 79.6125,24.0041 135.8498,-4.6889 37.3217,-19.0422 35.1411,-23.9162 37.1757,-34.0891 4.1037,-20.5184 60.4616,-71.223 119.5049,-103.0499 48.2549,-26.0116 108.3981,-40.4952 124.3722,-40.4952 3.1327,0 6.8565,-8.6546 8.2754,-19.2325 14.3315,-83.9975 64.2807,-138.6026 135.7236,-187.6312 114.4168,-76.9602 261.4334,-105.1807 377.0841,-82.7712 20.8298,4.0363 52.2956,11.5499 70.5221,12.0666 26.6152,0.7541 38.1326,3.6738 58.508,14.8323 40.8853,22.391 72.1595,65.5753 57.6717,79.6356 -4.4378,4.3072 -9.6757,1.2267 -23.0869,-13.5778 -25.6764,-28.3429 -39.4892,-36.7155 -16.1232,-9.7726 21.1775,24.4192 26.63,45.4645 11.795,45.5242 -4.5568,0.035 -20.4417,-13.2963 -35.2999,-29.5882 -30.5524,-33.5 -35.5417,-30.7959 -10.8577,5.8844 19.2016,28.5336 19.1778,28.4519 8.2847,28.2542 -10.7576,-0.1953 -24.2825,-10.5995 -35.0947,-26.9969 l -8.6337,-13.0928 -0.035,15.7153 c -0.035,13.4244 -1.5279,15.4947 -10.2981,14.2023 -11.8828,-1.7508 -26.6312,-37.5411 -27.2391,-66.1001 -0.4293,-20.1926 -0.9891,-20.4901 -52.8198,-28.0688 -83.6322,-12.2285 -188.0315,5.0162 -272.4438,45.0025 -57.5439,27.2589 -96.9177,55.386 -134.392,96.0046 -33.1855,35.9695 -45.294,58.885 -49.4976,93.6722 l -2.8604,23.6707 24.0826,11.1237 c 40.6807,18.7907 59.8522,42.5924 88.2756,109.5961 l 15.0617,35.5058 37.0712,7.8341 c 20.3893,4.3086 52.8078,15.406 72.0409,24.6609 53.2552,25.6259 67.1611,26.2568 117.1923,5.3148 76.4207,-31.9879 77.1585,-32.1728 104.3747,-26.138 23.1023,5.1229 48.8138,19.9859 48.8138,28.2183 0,2.0335 -11.116,0.8135 -24.7024,-2.7108 -41.6502,-10.8038 -58.0467,-8.4053 -109.9201,16.0794 -62.2437,29.3798 -86.5848,30.2006 -142.3229,4.8004 -70.3175,-32.0439 -117.9152,-36.1499 -153.6017,-13.2501 -55.9268,35.8883 -112.6405,34.6612 -194.8205,-4.2148 -69.8613,-33.0482 -117.3472,-31.0989 -194.8717,7.9999 -60.9053,30.7163 -85.8662,34.8315 -124.2157,20.4783 z m 501.3051,-50.0374 35.6468,-17.6133 -19.3727,-38.5302 c -10.6549,-21.1916 -24.4099,-45.1343 -30.5663,-53.2062 -13.942,-18.2788 -52.7932,-39.8734 -71.7366,-39.8734 -40.7735,0 -165.9749,57.0682 -221.13,100.7929 -16.7787,13.3015 -30.0447,24.5885 -29.4798,25.0819 0.5652,0.4936 13.5139,-1.3964 28.7753,-4.1995 38.7295,-7.1136 94.7797,1.5658 135.2279,20.9399 69.4959,33.2878 115.106,35.0335 172.6354,6.6079 z m 153.2882,-70.3746 c -43.453,-14.8092 -81.6896,-42.1752 -102.3001,-73.217 -15.4002,-23.1944 -16.9082,-28.4291 -16.6394,-57.7721 0.5165,-56.4223 30.6215,-93.092 105.6014,-123.461 57.6085,-23.3331 85.4549,-24.0772 144.4476,-4.5682 35.4636,11.7279 52.0271,27.9205 69.3949,64.1842 19.449,40.6088 18.7501,70.809 -2.6208,113.2854 -14.3913,32.9057 -30.4922,39.9736 -54.8817,58.3769 -46.2363,30.6084 -94.9082,39.3357 -143.0019,23.1718 z m 103.4313,-32.1261 c 14.828,-5.5478 34.4741,-16.9728 43.6577,-25.3891 21.7751,-15.6308 13.8796,-21.0909 3.1315,-43.1718 -7.7447,-15.9117 -25.8929,-40.235 -42.2962,-56.6883 -34.1211,-34.2262 -68.1204,-49.2669 -119.4753,-52.8537 -29.9219,-2.0894 -35.7264,-1.095 -49.0766,8.411 -26.8669,19.1313 -39.7066,61.8881 -27.949,93.0732 9.7352,25.8223 53.0179,62.7693 92.0247,78.5545 26.9616,10.911 67.7586,10.121 99.9832,-1.9358 z m -73.8042,-14.1167 c -33.6612,-13.434 -56.9509,-42.9691 -56.9509,-72.2231 0,-22.8218 4.1523,-31.4075 17.6766,-36.549 24.8132,-9.4343 59.3682,9.3909 84.0796,45.8046 28.9326,42.6347 1.3555,81.3904 -44.8053,62.9675 z m 38.5186,-30.076 c 4.5731,-10.0368 3.487,-14.0741 -7.7509,-28.8075 -16.0629,-21.0601 -38.4717,-35.2244 -55.7633,-35.2478 -11.6704,0 -13.0186,1.6606 -13.0186,16.1886 0,19.1091 16.0315,40.3918 38.9268,51.6766 21.7114,10.7014 31.4435,9.7154 37.606,-3.8099 z m 45.7599,-8.6716 c -24.1219,-18.3983 -29.2383,-31.7308 -12.1771,-31.7308 15.7887,0 48.7112,28.9997 44.7225,39.3937 -4.3105,11.2334 -9.3157,10.055 -32.5454,-7.6629 z m -59.8379,-81.8068 c -5.796,-4.0597 -9.3115,-9.3657 -7.8125,-11.7915 4.4067,-7.1303 21.1541,-5.0521 24.2477,3.0091 4.6104,12.0153 -4.7095,16.9953 -16.4352,8.7824 z m 135.6177,56.9543 c 9.4228,-20.6805 6.3618,-46.2365 -9.2891,-77.5565 -16.0799,-32.179 -31.0228,-38.4797 -68.0637,-55.1019 -38.4317,-17.2463 -93.8484,-9.9408 -124.3076,10.1515 0.7889,0.7889 17.2998,4.7425 36.6914,8.786 19.3912,4.043 46.5442,13.0622 60.3399,20.0423 29.8499,15.1023 67.8158,53.7494 82.5054,83.984 5.8122,11.9641 11.9321,21.7526 13.599,21.7526 1.667,0 5.5031,-5.426 8.5247,-12.058 z" fill="#00B894" transform="translate(37.752993,1.3344631) matrix(0.24650744,0,0,0.24650744,-613.19615,-1254.2286)"/>
</svg>