<?xml version="1.0" ?><svg height="359.27045mm" viewBox="0 0 456.64111 359.27045" width="456.64111mm" xmlns="http://www.w3.org/2000/svg">
    <path d="m 8775.3709,3056.9691 c -1.9238,-0.2161 -17.712,14.2673 -23.1567,19.5792 -5.62,5.4835 -51.6514,57.2022 -54.6344,61.6215 -2.9829,4.4196 -52.9329,68.5927 -55.5883,72.8157 -2.6553,4.2233 -16.5622,32.1026 -18.1447,34.5576 -2.2459,2.5492 -4.0888,5.1967 -5.8606,8.0905 -2.1547,3.5188 4.5358,6.5434 6.6022,5.9417 4.3288,-1.2603 10.2213,-12.2762 13.6043,-19.3311 3.3829,-7.0548 33.1386,-54.0819 33.1386,-54.0819 0,0 0.6729,4.6815 6.966,8.5772 6.2932,3.8957 11.3132,2.2913 14.6234,-0.098 3.3102,-2.3899 8.7662,-8.3644 8.9663,-14.2244 0.2002,-5.8597 -4.6555,-13.3239 -10.5848,-13.8803 -5.9293,-0.5567 -6.4569,0.2615 -4.2561,-2.8484 2.2008,-3.11 26.5553,-33.441 30.8296,-38.6628 4.2741,-5.2216 30.7561,-34.2593 35.8485,-40.2828 5.0927,-6.0238 22.8255,-26.4781 21.7888,-27.7058 -0.032,-0.038 -0.08,-0.061 -0.1421,-0.068 z m -143.4816,2.1208 c -7.5941,0 -16.5216,1.4837 -20.6422,4.054 -5.2745,3.2901 -4.1832,16.8434 -4.1832,16.8434 0,0 -11.5493,11.6871 -10.1126,12.0308 0,0 4.947,0.8181 5.5656,1.0801 0.6183,0.2619 -0.3817,10.6886 5.4384,24.1763 5.8203,13.4877 19.243,11.8509 31.4472,6.351 12.2039,-5.4998 13.2767,-28.9062 13.2767,-28.9062 0,0 6.9119,-0.9822 10.1492,-0.8842 3.2375,0.098 -9.4939,-14.6172 -9.4939,-14.6172 0,0 -0.4912,-6.6946 -1.0915,-11.867 -0.6001,-5.1726 -6.2748,-6.8093 -14.4228,-7.906 -1.7825,-0.2399 -3.8046,-0.3556 -5.9309,-0.355 z m -38.4711,67.9065 c -1.4917,0 -2.8396,0.1958 -3.9171,0.5948 -4.9252,1.8236 -16.1555,12.6648 -24.2192,26.1022 -8.0633,13.4374 -11.9176,30.5739 -11.9176,30.5739 0,0 -4.1375,-12.703 -5.5588,-16.2238 -1.4214,-3.5208 -5.868,-10.3089 -8.0212,-12.5507 -2.1532,-2.2416 -4.0673,0.025 -4.8132,2.8877 -0.7458,2.8622 6.9694,54.5504 10.0371,69.4696 3.0678,14.919 4.4611,12.2465 9.091,15.4761 4.63,3.2295 39.783,9.9038 51.9136,10.5751 12.1306,0.6712 17.7322,-6.6361 17.7602,-12.3605 -0.5319,-7.5765 -3.8994,-5.1051 -1.709,-13.1191 0.8866,-3.6475 -0.3519,-11.2339 -8.9643,-14.4761 -8.6125,-3.2422 -12.9466,-10.3345 -12.0179,-16.9328 0.9287,-6.5985 4.659,-13.4814 11.2309,-33.5804 6.572,-20.0991 0.8867,-25.5703 -3.2086,-30.3573 -3.1994,-3.7402 -10.3583,-6.0964 -15.6859,-6.0787 z m -56.6286,136.2139 c -0.5957,0 -1.1825,0 -1.7585,0 -9.2159,0.057 -15.0667,3.5949 -16.2306,6.7086 -1.1639,3.1139 1.762,26.2702 3.2402,35.555 1.4782,9.285 2.9564,14.6915 9.2159,16.3049 3.0195,1.9534 24.0316,2.8592 28.6867,-1.0754 4.6552,-3.9349 5.7871,-21.967 6.7308,-33.9979 0.9435,-12.0308 1.6671,-17.0695 -4.3723,-19.9569 -5.6617,-2.7069 -16.576,-3.4984 -25.5122,-3.5398 z m 52.0671,43.2924 c -13.8888,0.066 -16.4433,3.657 -17.3105,7.3412 -0.2392,7.8015 4.236,7.5844 11.4975,8.4584 7.2614,0.8739 32.7748,0.4575 39.9799,-0.8088 7.2051,-1.2665 4.7284,-7.2445 1.0837,-11.1833 -3.6449,-3.9389 -12.5387,-2.9383 -30.5656,-3.7109 -1.69,-0.072 -3.2482,-0.1034 -4.685,-0.097 z" fill="#FFFFFF" paint-order="markers stroke fill" transform="translate(123.23792,31.1352) translate(-8636.5728,-2998.3877)"/>
    <path d="m 8869.8812,2967.2525 c -2.8949,0.013 -16.5255,10.4 -35.4961,27.2939 -18.6486,16.6066 -66.7013,63.7836 -81.0824,79.605 -8.4163,9.2591 -14.421,14.9903 -15.7055,14.9903 -1.1438,0 -2.3621,0.7354 -2.7073,1.635 -0.3452,0.8993 -1.5,1.6356 -2.5662,1.6356 -1.0661,0 -2.7216,1.1955 -3.6794,2.6572 -1.9549,2.9837 -17.1377,14.4975 -34.7927,26.3844 -8.884,5.9814 -14.0032,8.5996 -20.9677,10.7239 -14.0754,4.2934 -18.1277,4.8924 -38.1662,5.6421 l -18.5596,0.694 -1.2976,-2.8469 c -1.9034,-4.1775 -9.7236,-9.4588 -14.0058,-9.4588 -1.9697,0 -4.8628,-0.4874 -6.4296,-1.0832 -5.9788,-2.2729 -14.5624,4.0221 -25.8599,18.9658 -3.67,4.8546 -8.7457,13.1721 -11.2789,18.4831 l -4.6059,9.6568 -1.3808,-4.2055 c -1.8943,-5.7698 -5.9428,-11.9692 -9.2186,-14.1154 -2.4815,-1.6265 -2.9651,-1.6344 -5.3221,-0.09 -1.5306,1.0028 -2.8825,3.2452 -3.3006,5.4736 -0.8804,4.6939 0.8985,24.2972 3.7749,41.5918 5.0557,30.3959 8.9308,41.3206 16.291,45.9264 4.7319,2.961 6.1,4.2736 16.6734,16.0016 l 8.4967,9.4247 -3.591,3.2251 c -3.4946,3.1385 -3.5998,3.1617 -3.9243,0.8455 -0.9833,-7.0211 -2.6569,-9.7064 -7.3432,-11.7797 -10.2014,-4.5124 -31.0007,-5.0384 -40.2916,-1.0185 -7.0793,3.0631 -7.5021,4.096 -6.7469,16.493 0.5866,9.63 0.4149,11.3219 -1.4681,14.41 -3.8973,6.3923 -1.9288,12.9737 4.563,15.2528 1.072,0.3761 2.1022,2.4224 2.5481,5.0612 0.872,5.1617 3.8471,7.716 12.0231,10.3208 7.4429,2.3715 20.7292,1.798 25.7224,-1.11 5.0875,-2.963 6.285,-6.047 7.6389,-19.682 1.5614,-15.725 1.7902,-16.7003 3.9113,-16.7003 0.9991,0 4.144,-1.9623 6.9883,-4.3609 2.8443,-2.3984 5.4166,-4.361 5.7195,-4.361 0.3013,0 4.2947,4.4162 8.8739,9.8139 9.3981,11.0756 11.49,12.6261 14.7159,10.8995 3.8279,-2.0484 2.3999,-5.174 -7.0864,-15.5153 -5.0967,-5.5561 -9.2661,-10.3971 -9.2661,-10.7575 0,-0.3603 4.9059,-4.4333 10.9016,-9.0511 5.9962,-4.6179 10.9017,-8.7945 10.9017,-9.2816 0,-0.4873 2.1885,-1.7217 4.8628,-2.743 4.6339,-1.7698 9.31,-6.988 9.31,-10.3895 0,-0.7349 1.5857,-3.9875 3.5238,-7.228 2.8413,-4.7504 4.2249,-6.0238 7.1375,-6.5702 1.9871,-0.3708 3.8623,-0.4263 4.1683,-0.1204 0.589,0.5887 -5.714,11.2753 -12.8943,21.8623 -2.7319,4.0276 -4.8559,6.1377 -5.8111,5.7712 -1.863,-0.7154 -2.8829,0.7624 -2.0396,2.96 0.9574,2.4951 3.7701,3.1364 6.3412,1.4454 1.2646,-0.8319 6.1804,-8.6558 10.9244,-17.3865 5.8888,-10.8387 9.3474,-16.0776 10.9022,-16.5143 4.1911,-1.1786 26.8056,-2.0643 26.8056,-1.0516 0,0.5417 -5.2262,7.1166 -11.6138,14.6115 -12.4268,14.5807 -40.1336,50.95 -42.0966,55.2582 -0.9453,2.0751 -0.8241,2.9641 0.5989,4.3868 1.5307,1.545 4.3115,1.7454 19.5306,1.5136 17.936,-0.2735 20.499,-0.832 20.499,-4.469 0,-3.6184 -3.0845,-4.7101 -14.7753,-5.2302 -6.264,-0.2785 -11.3895,-0.714 -11.3895,-0.9674 0,-1.3959 22.3726,-31.9769 32.0993,-43.8763 13.5594,-16.588 16.3928,-21.449 14.8575,-25.4874 -1.5491,-4.0749 -7.958,-5.5415 -20.4479,-4.6793 l -10.0138,0.6909 8.3778,-13.6255 c 4.6079,-7.4939 8.7129,-13.6441 9.1224,-13.6441 0.4092,-0.011 1.051,0.9496 1.4268,2.1332 1.2658,3.9883 7.0222,7.0432 13.1005,6.9572 7.7736,-0.1125 9.9633,-1.6738 13.6581,-9.741 2.2781,-4.9741 4.06,-7.3693 6.0446,-8.1236 3.2232,-1.2253 3.0395,-3.2901 -0.4315,-4.8581 -1.3103,-0.5918 -2.3823,-1.4335 -2.3823,-1.8701 0,-1.6778 -7.1904,-8.8791 -10.0774,-10.093 l -3.0309,-1.2748 9.6733,-12.4664 c 16.2142,-20.895 31.021,-37.5049 33.7856,-37.8995 6.3772,-0.9104 12.9503,-7.9481 13.827,-14.8043 0.2232,-1.7438 0.8256,-3.4605 1.3395,-3.8153 0.5139,-0.3547 7.2531,-8.0039 14.9763,-16.9979 33.7568,-39.3127 60.2042,-66.4661 88.1311,-90.4859 14.7114,-12.6528 16.8393,-14.1329 15.5711,-10.8278 -1.6156,4.2102 -1.9731,18.9338 -0.7394,30.4514 1.764,16.4689 5.2105,29.5564 14.4967,55.0545 2.0745,5.696 5.3595,16.4889 7.2999,23.984 6.3134,24.3895 19.5162,69.9798 24.5075,84.6249 6.2994,18.4845 7.9628,25.0477 9.9746,39.3572 3.2801,23.3302 4.1866,78.1486 1.3518,81.7263 -0.5654,0.7011 -1.7276,1.029 -2.5833,0.7008 -2.462,-0.9447 -1.8526,2.6713 0.6786,4.0261 3.1838,1.704 8.0296,0.9075 8.4656,-1.3917 0.2287,-1.2058 -0.3152,-1.9074 -1.4774,-1.9074 -1.4868,0 -1.709,-0.679 -1.1617,-3.5434 1.5053,-7.8784 1.9635,-44.64 0.7606,-61.0557 -1.7585,-24.0045 -4.3123,-36.7109 -11.9036,-59.2321 -9.0659,-26.8962 -17.6597,-55.206 -23.6332,-77.8541 -2.7673,-10.4931 -7.4838,-26.1916 -10.4805,-34.8857 -7.3974,-21.4614 -11.3994,-37.4754 -12.9418,-51.7845 -1.3524,-12.5419 -1.1277,-31.3435 0.4134,-34.6134 0.5417,-1.1493 0.4458,-1.6986 -0.2222,-1.6955 z m -236.8678,88.005 c -0.3708,0 -0.7432,0 -1.1172,0 v -5e-4 c -3.5903,0.053 -7.3183,0.4883 -11.0283,1.3136 -11.7252,2.6085 -13.7367,4.5979 -14.8435,14.6802 -0.8519,7.7603 -1.0576,8.1918 -6.6006,13.8044 -6.0527,6.1289 -6.6508,9.2418 -1.7751,9.2418 2.5054,0 2.6457,0.3852 3.1207,8.5881 0.3897,6.7328 1.1234,9.6569 3.3941,13.532 3.3778,5.7634 8.267,10.163 14.4028,12.9604 4.8417,2.2071 11.2118,2.5846 16.7602,0.9932 5.2048,-1.493 12.4373,-7.7942 14.9407,-13.0172 1.2343,-2.575 2.9156,-4.4845 3.9641,-4.4845 5.1448,-0.036 7.4994,-4.6182 3.0918,-6.0172 -1.7945,-0.5695 -2.1834,-1.6514 -2.1834,-6.0777 0,-5.3137 0.047,-5.388 3.5481,-5.5552 1.9515,-0.092 4.6536,-0.074 6.0048,0.041 2.0031,0.1724 2.4562,-0.3429 2.4562,-2.792 0,-2.2238 -1.5578,-4.476 -6.0048,-8.6812 l -6.0043,-5.6782 v -6.7158 c 0,-8.4404 -1.1744,-10.6163 -7.1608,-13.2644 -4.2164,-1.8652 -9.4032,-2.8352 -14.9655,-2.8757 z m -0.038,5.3257 c 0.4636,0 0.9236,0.01 1.3782,0.017 v 0 c 4.3647,0.09 8.2399,0.5141 10.1482,1.3121 4.2274,1.7672 5.4986,3.8294 6.5568,10.6386 l 0.6072,3.9057 -16.5499,0.2258 h -6e-4 c -9.1024,0.1246 -18.0905,0.499 -19.9729,0.832 -1.8828,0.3329 -3.6489,0.1932 -3.9243,-0.3111 -0.2755,-0.5043 -0.2089,-3.6147 0.1483,-6.9112 0.5744,-5.3006 1.0286,-6.1754 3.9248,-7.5602 2.9568,-1.4137 10.7301,-2.1829 17.6842,-2.1498 z m 128.7684,11.4582 c 0.3595,0.079 -2.2977,3.6425 -7.9685,10.8309 h -0.015 c -4.1388,5.2467 -7.9622,9.5395 -8.4966,9.5395 -2.4951,0 -0.1293,-3.4975 8.4806,-12.5372 5.0165,-5.2596 7.6823,-7.9029 7.9995,-7.8332 z m -130.3502,8.6977 c 12.2096,-0.048 21.5608,0.3445 21.5615,0.9043 2e-4,0.5437 1.229,2.5986 2.73,4.5667 1.5009,1.9678 2.7291,3.8564 2.7296,4.1971 -8e-4,0.3336 -0.3694,0.5034 -0.8191,0.3644 -0.4503,-0.1396 -13.4812,-0.3941 -28.9574,-0.5643 l -28.1388,-0.3106 4.6663,-4.5367 4.6669,-4.5367 z m 7.4657,14.6539 h 12.1052 l -0.7395,4.3765 c -1.9859,11.7558 -6.9805,19.9684 -14.2389,23.4125 -3.4586,1.6414 -10.2847,2.1107 -13.5987,0.9348 -10.3393,-3.6683 -20.7093,-21.0814 -12.5548,-21.0814 3.9564,0 3.5215,-3.1715 -0.5462,-3.9848 -1.8013,-0.3606 -3.2752,-1.0853 -3.2752,-1.6107 0,-1.662 3.6988,-1.0219 7.0962,1.2283 3.5096,2.3243 8.1881,2.9182 8.1881,1.0393 0,-0.6294 -1.5966,-1.8383 -3.5481,-2.6867 -2.7667,-1.2025 -3.0395,-1.5509 -1.2387,-1.5849 1.2701,-0.023 3.5581,0.9401 5.0845,2.1409 1.5266,1.201 3.3125,2.1834 3.9682,2.1834 0.656,0 1.1927,-0.9824 1.1927,-2.1834 0,-2.0534 0.7277,-2.1838 12.1052,-2.1838 z m 6.9035,2.6422 c -0.6003,-0.019 -1.7516,0.4036 -2.0004,3.1347 -0.2491,2.0136 0.7409,3.2622 1.7528,2.9249 1.6745,-0.558 1.8806,-6.0106 0.2476,-6.0596 z m -6.1619,6.5484 c -0.9975,-0.039 -1.0078,0.7521 0.2325,2.2464 1.4459,1.7423 3.5279,2.1608 4.7361,0.9524 0.3912,-0.3913 -0.5824,-1.382 -2.1636,-2.2024 -1.2522,-0.6497 -2.2064,-0.9727 -2.805,-0.9964 z m -3.2541,2.9389 c -0.5633,0 -0.5029,0.6877 0.2331,2.0634 0.6429,1.2007 2.2567,2.1591 3.5868,2.1591 2.3921,-0.024 2.3889,-0.047 -0.3116,-2.1591 -1.7584,-1.3757 -2.9451,-2.0634 -3.5083,-2.0634 z m 81.7413,5.256 c 0.036,0 0.055,0.02 0.055,0.052 0,1.424 -10.2615,11.1972 -11.7569,11.1972 -0.729,0 -1.3291,0.6133 -1.3291,1.3627 0,0.7494 -2.9999,4.7965 -6.6616,8.9938 -10.625,12.1789 -29.8245,35.8977 -34.8046,42.9974 -4.9488,7.0548 -4.436,6.7874 -21.9082,11.4401 -5.7773,1.5387 -11.2578,2.7973 -12.1796,2.7973 -2.1811,0 -7.9044,-6.7403 -12.915,-15.2105 l -3.9837,-6.7334 2.6401,-6.4973 c 1.4521,-3.5736 2.933,-9.306 3.2908,-12.7393 l -0.3902,-6.3216 14.0694,0.4445 c 15.9834,0.4481 28.84,-1.1539 41.9318,-5.2256 10.9658,-3.4104 17.4215,-7.1473 33.3675,-19.3156 5.4808,-4.1823 10.0277,-7.2875 10.5746,-7.2414 z m -1.201,9.0687 c 0.2997,0 -0.6072,1.2258 -2.0154,2.7249 -1.4082,1.4991 -2.8059,2.7254 -3.1057,2.7254 -0.2997,0 0.6077,-1.2263 2.0159,-2.7254 1.4083,-1.4991 2.8054,-2.7249 3.1052,-2.7249 z m -123.5553,6.5407 c 6.171,0 12.0385,3.0018 15.428,7.8925 2.5903,3.7377 3.0805,5.531 3.0345,11.0929 -0.052,6.294 -2.0361,13.6284 -3.3347,12.3295 -0.3319,-0.3316 -0.072,-1.5936 0.5757,-2.805 0.6484,-1.211 1.1792,-4.8949 1.1792,-8.1861 0,-4.7785 -0.5449,-6.6308 -2.7026,-9.1948 -3.5189,-4.1821 -9.6812,-5.2863 -15.813,-2.8329 -6.2869,2.5158 -8.7395,6.0824 -8.7395,12.7083 0,9.6708 6.0427,15.7773 14.6213,14.7758 3.1194,-0.3641 3.9685,-3e-4 4.9299,2.11 1.6706,3.6667 1.5291,4.7399 -2.2247,16.8227 -2.9096,9.3685 -3.2831,11.8684 -2.6499,17.7814 0.6103,5.6999 0.3633,7.612 -1.4402,11.1476 -2.5455,4.989 -9.2245,11.3183 -15.0952,14.3051 -9.0886,4.6234 -11.8222,5.4164 -14.2157,4.1243 -3.5093,-1.8947 -6.7833,-6.6521 -9.0853,-13.2013 -2.6777,-7.6195 -2.9171,-28.5031 -0.4371,-38.2199 2.4358,-9.5444 10.196,-24.898 17.6103,-34.8423 8.6475,-11.5985 13.5363,-15.8078 18.359,-15.8078 z m 114.7424,3.423 c 0.4086,0.1642 -1.7684,3.2306 -10.3983,15.0606 -5.0103,6.8682 -9.468,13.1281 -9.9069,13.9118 -0.4385,0.7837 -2.4302,1.8932 -4.4256,2.4655 -3.3594,0.9636 -3.5117,0.9022 -2.0578,-0.8299 17.8669,-21.2817 25.1237,-29.702 26.1401,-30.33 0.3222,-0.1992 0.5543,-0.3158 0.6485,-0.278 z m -110.2077,6.487 c 4.1475,0.024 7.5208,3.3992 8.6061,9.1844 0.687,3.6617 -0.1514,8.18 -1.5105,8.137 -0.409,-0.013 -2.6702,-2.7113 -5.0234,-5.996 -5.0109,-6.9946 -7.7677,-7.9092 -6.8534,-2.2738 0.3304,2.0344 1.8664,5.7036 3.4133,8.1545 1.5474,2.4509 2.8132,4.6589 2.8132,4.9062 0,1.3004 -3.2434,1.3698 -6.1856,0.1328 -4.5682,-1.921 -6.8962,-5.6171 -6.8962,-10.9487 0,-4.6122 2.048,-7.4701 7.2868,-10.1683 1.4984,-0.7717 2.9671,-1.136 4.3497,-1.1281 z m -60.5994,18.2567 c 1.4821,-0.2387 4.0701,2.9369 6.4993,8.1282 3.793,8.1056 5.9016,21.8505 4.9687,32.3903 -1.3684,15.4595 4.1693,32.0397 12.794,38.3093 6.5025,4.7269 9.6514,5.814 22.7232,7.845 14.3621,2.2309 25.3607,2.3093 31.2751,0.2227 3.5158,-1.2392 4.4979,-1.2847 4.4979,-0.2072 0,3.163 -2.9636,5.1342 -9.2666,6.1645 -3.5977,0.5881 -7.7678,1.0083 -9.2666,0.9343 -14.9042,-0.7389 -41.4411,-6.4825 -47.0245,-10.1772 -4.8008,-3.1772 -4.6156,-2.4814 -10.7875,-40.3691 -2.442,-14.9901 -5.0949,-30.6889 -5.8953,-34.8862 -0.8004,-4.1971 -1.2885,-7.8158 -1.0815,-8.0383 0.1629,-0.1776 0.352,-0.2811 0.5638,-0.3152 z m 150.1711,11.1404 c 2.1282,0.068 4.3411,0.8563 6.72,2.3601 3.7433,2.3662 3.7639,2.4189 1.0899,2.7838 -1.4988,0.2046 -6.2612,1.0796 -10.5833,1.9446 -4.3217,0.8649 -8.1235,1.5725 -8.4486,1.5725 -1.6048,0 -0.2005,-2.2968 3.2628,-5.3377 2.6271,-2.3066 5.2228,-3.4106 7.9592,-3.3233 z m -17.5932,10.2221 c 0.3744,0.1126 0.4155,0.688 -0.171,1.6372 -0.3952,0.6393 -1.2399,1.1627 -1.8774,1.1627 -0.7234,0 -0.641,-0.6255 0.2191,-1.6614 0.7472,-0.9008 1.455,-1.2511 1.8293,-1.1385 z m 28.9466,1.7266 c 1.0492,-0.01 1.9079,0.4738 1.9079,1.0733 h 5e-4 c 0,1.3298 -0.1225,1.3298 -2.1797,0 -1.3984,-0.9033 -1.3591,-1.0733 0.2713,-1.0733 z m 14.3428,0.2738 c -0.3221,0.015 -0.4429,0.5607 -0.4429,1.7136 0,4.8846 -4.2898,11.058 -10.3999,14.9666 -3.2739,2.0943 -5.9531,4.2835 -5.9531,4.8648 0,3.2071 8.5974,-0.1183 13.2214,-5.1144 5.2702,-5.6942 7.2873,-13.003 4.3889,-15.9014 -0.3556,-0.3562 -0.6212,-0.5382 -0.8144,-0.5292 z m -104.1642,0.8088 c 0.3842,0.01 2.6145,2.9828 4.9557,6.6166 7.6957,11.9436 13.2381,13.8387 28.7208,9.817 4.3471,-1.1289 7.9039,-1.8331 7.9039,-1.5673 0,0.267 -2.3808,4.0201 -5.2907,8.34 -2.9098,4.3202 -6.1216,9.4704 -7.138,11.4448 -1.0164,1.9744 -2.9281,3.9878 -4.2483,4.4736 -7.3929,2.7217 -8.215,2.5635 -10.5575,-2.0283 -1.7333,-3.3971 -3.6982,-5.0821 -8.9845,-7.7049 -8.6184,-4.276 -9.1649,-4.7634 -9.9891,-8.8837 -0.6784,-3.3919 3.1882,-20.5388 4.6277,-20.5078 z m 64.9056,8.1287 c 0.3898,-0.1556 1.9479,0.3858 4.5067,1.6903 2.3344,1.1901 4.8481,2.1637 5.5852,2.1637 0.7373,0 1.6433,0.4909 2.0138,1.0904 1.543,2.4967 -4.8749,0.8554 -9.6015,-2.4552 -2.1153,-1.4815 -2.894,-2.3336 -2.5042,-2.4892 z m 43.895,3.5295 c -0.4657,-0.032 -1.4515,0.934 -3.3988,3.1393 -2.0736,2.3483 -3.7848,4.638 -3.8158,5.0876 -0.025,0.45 0.6556,0.8175 1.5116,0.8175 2.0986,0 6.075,-5.2104 6.075,-7.9602 0,-0.6864 -0.092,-1.0649 -0.372,-1.0842 z m -56.9888,0.3245 c 2.34,0 2.2612,0.423 -1.2371,6.6518 -1.6489,2.9358 -3.2437,5.2806 -3.5435,5.2126 -3.3993,-0.7818 -4.3605,-1.3247 -4.3605,-2.4644 0,-2.0507 7.1469,-9.4 9.1411,-9.4 z m -11.2949,13.2995 c 0.7419,-0.062 1.5174,0.4193 2.6541,1.2505 1.9333,1.4137 1.914,1.635 -0.5369,5.996 -1.3999,2.4905 -3.3127,4.5429 -4.2515,4.5429 -0.9392,0.01 -2.8118,0.311 -4.1609,0.6723 -3.2473,0.8702 -3.1241,0.2589 1.3497,-6.735 2.5666,-4.0126 3.7091,-5.6238 4.9455,-5.7267 z m -47.8007,6.3458 5.0818,2.8763 c 8.9416,5.061 9.9865,5.8423 9.9865,7.4678 0,0.9784 -1.8829,2.0687 -4.8726,2.8215 -9.218,2.3213 -8.9301,6.9231 0.4124,6.5924 3.0526,-0.1078 5.5506,0.09 5.5506,0.4403 0,2.314 -2.7384,4.8406 -5.7366,5.2937 -12.101,1.8282 -31.1162,0.8841 -36.2371,-1.7989 l -3.0473,-1.5962 5.0772,-1.7302 c 7.5376,-2.5683 17.8669,-10.268 21.0416,-15.6853 z m 26.0873,17.4212 c 2.3714,0 2.4919,0.4323 0.9348,3.3424 -1.2114,2.2633 -2.726,2.7187 -3.7161,1.1167 -1.067,-1.7271 0.6366,-4.4591 2.7813,-4.4591 z m -55.6158,23.1479 c 0.4161,-0.019 1.1283,0.1036 2.0795,0.2687 2.0986,0.364 7.0047,0.9116 10.9022,1.2175 3.8975,0.306 8.7852,0.8175 10.8613,1.1364 l 3.775,0.5798 -2.6851,2.0624 c -1.4768,1.1345 -4.6754,3.5078 -7.1081,5.2746 l -4.423,3.2122 -7.569,-7.0724 c -5.6608,-5.2895 -7.0813,-6.622 -5.8328,-6.6792 z m -32.3246,11.989 c 1.2596,0 2.5575,0.027 3.8794,0.089 11.671,0.5492 17.5205,2.1968 15.3866,4.3335 -0.8909,0.8918 -6.3585,1.3838 -16.8031,1.5167 -16.4127,0.2067 -19.6709,-0.1646 -19.0025,-2.1699 0.746,-2.2378 7.7225,-3.7581 16.5396,-3.7697 z m 23.3469,10.8603 c 0.9236,-0.042 0.7729,0.8629 0.041,4.1181 -0.5603,2.4929 -1.7397,11.7082 -2.621,20.4778 -0.8817,8.7697 -2.008,16.321 -2.4701,16.8124 -1.2359,1.3139 -3.4678,1.7212 -6.6771,2.326 -4.3365,0.8174 -9.1311,0.6368 -15.6399,-0.2589 -6.1138,-0.8526 -6.8889,-1.5349 -7.6781,-6.765 -0.5693,-3.7711 -0.3429,-4.1275 4.6948,-7.3918 6.282,-4.0705 10.0487,-8.3324 13.656,-15.4518 3.0927,-6.103 2.5915,-8.8943 -1.5115,-8.4119 -2.1484,0.2524 -2.9781,1.1121 -3.484,3.6076 -0.3653,1.8016 -2.0309,5.3411 -3.7016,7.8656 -3.0003,4.5338 -10.0917,10.8188 -11.0856,9.8253 -0.8282,-0.8282 -5.6781,-24.6263 -5.1305,-25.1742 0.2744,-0.2744 2.0537,-0.053 3.9533,0.4914 1.8996,0.5448 8.6083,0.9953 14.9081,0.9643 10.3745,-0.023 14.1819,-0.5078 21.4457,-2.7285 0.5649,-0.1726 0.9924,-0.2923 1.3002,-0.3064 z m 338.7845,12.5134 c -0.501,-0.028 -1.298,0.086 -2.435,0.3943 -5.3571,1.1789 -8.0471,4.0507 -8.0471,7.412 0,4.187 1.9943,6.5331 7.1004,8.3514 5.1271,1.8258 6.7372,1.9765 7.523,0.7054 0.319,-0.516 -1.3547,-1.8108 -3.7191,-2.8769 -5.2548,-2.3696 -8.1129,-5.3567 -7.2575,-7.5855 0.3526,-0.9184 1.7626,-2.5515 4.5248,-3.7828 2.6513,-1.1818 3.8136,-2.5352 2.3105,-2.6179 z m 12.0675,0.4315 c -3.0761,-0.1146 -6.1966,1.9791 -6.1966,4.1569 0,2.6502 3.4739,5.6349 7.859,6.753 4.6361,1.1814 17.0531,1.6209 24.6693,-1.4681 4.1059,-1.6652 4.018,-7.435 -0.075,-8.8744 -4.0029,-1.4076 -5.2399,0.1321 -2.0433,2.543 0.8853,0.8362 2.8885,2.0417 0.014,3.7414 -1.8502,1.2961 -4.9359,1.7963 -11.0784,1.7963 -12.7534,0 -20.374,-4.135 -13.6224,-7.3913 2.048,-0.9879 2.1257,-1.1948 0.4734,-1.2568 z m -32.9153,0.9901 c -0.6016,-0.085 -2.1032,0.8839 -3.1998,2.4495 -2.0474,2.9228 -2.1897,6.457 -0.3349,8.3251 1.0921,1.0998 1.477,0.4389 1.9363,-3.3254 0.3155,-2.5835 0.9578,-5.3107 1.4273,-6.0601 0.569,-0.9081 0.5321,-1.3382 0.1711,-1.3891 z m 75.6512,1.1168 c -1.7284,0 -1.8678,0.3282 -0.8393,1.975 0.9567,1.5319 0.8302,2.7552 -0.5638,5.4509 -2.0152,3.8968 -0.591,4.7456 2.8056,1.6717 3.2473,-2.9389 2.2981,-9.0976 -1.4025,-9.0976 z m -438.6441,2.3549 c 0.3116,-0.066 0.5327,0.2661 0.5618,1.1255 0.026,0.7849 0.4524,3.5226 0.9477,6.0838 1.034,5.3472 0.1297,6.5701 -2.6148,3.5373 -1.4255,-1.5742 -1.7282,-3.0824 -1.1938,-5.9319 0.488,-2.6023 1.6134,-4.6702 2.2991,-4.8147 z m 450.6469,5.5516 c -0.4069,0.16 -1.0574,1.0692 -2.2582,3.6798 -1.9098,4.1519 -7.2404,3.9321 -4.2106,5.8307 2.6782,1.6783 7.6739,-2.3264 7.6739,-6.1392 0,-1.4061 -0.2939,-2.3619 -0.4082,-2.5564 -0.2268,-0.3859 -0.3901,-0.975 -0.7969,-0.8149 z m -17.1219,4.5211 c -0.1561,-0.013 -0.3475,-0.013 -0.5736,0 -1.0854,0.071 -2.9793,0.4633 -5.7025,1.1725 -3.509,0.9141 -9.1801,1.662 -12.6029,1.662 -8.3021,0 -11.829,1.3821 -5.8564,2.2949 9.6565,1.4757 17.9992,0.4672 22.9443,-2.773 2.2658,-1.4847 2.884,-2.2652 1.7911,-2.3585 z m -350.9186,1.0248 c -12.9379,0.1153 -26.5966,1.8156 -29.4716,4.6906 -3.2556,3.2563 -3.1944,8.1519 0.1514,12.0417 2.4503,2.8485 3.3318,3.0931 13.3542,3.6969 v 0 c 19.4422,1.1718 29.2542,1.0265 35.2175,-0.5204 3.2361,-0.8378 6.5197,-1.2826 7.2978,-0.9828 0.7896,0.3028 1.9687,-0.6725 2.668,-2.2071 1.042,-2.2875 0.8454,-3.5916 -1.171,-7.7567 -1.3328,-2.7537 -3.3946,-5.5267 -4.5806,-6.1614 -3.7771,-2.0214 -13.404,-2.8905 -23.4667,-2.8008 z m -12.7336,3.992 c 3.0705,0 3.0293,-0.2182 0.9239,4.8209 -1.6234,3.8848 -1.4068,6.0813 0.601,6.0813 0.5412,0 1.5234,-2.0033 2.1829,-4.452 0.8844,-3.2847 1.634,-4.2852 2.8571,-3.8158 0.9117,0.3489 1.8716,0.6362 2.1343,0.6362 0.2627,0 0.1692,1.2266 -0.2072,2.7254 -0.5021,2.0007 -0.2486,2.7259 0.9529,2.7259 2.8344,0 4.2208,-6.9411 1.5978,-7.9995 -0.7494,-0.3025 1.9491,-0.5901 5.9965,-0.6361 4.0473,-0.047 7.3582,0.3443 7.3582,0.8702 0,0.5269 -2.2076,0.706 -4.9061,0.4031 -3.2463,-0.3659 -4.9057,-0.1363 -4.9057,0.679 0,0.6777 1.0202,1.232 2.2671,1.232 1.9519,0 2.1676,0.4551 1.5492,3.2706 -0.5742,2.6129 -0.3536,3.2706 1.0977,3.2706 1.0173,0 2.3598,-1.4389 3.0514,-3.2706 1.4676,-3.8885 4.8031,-4.4087 5.3139,-0.8289 0.1938,1.3585 1.2664,2.6171 2.4169,2.8365 1.8099,0.3452 1.9879,-0.096 1.4304,-3.5321 -0.3504,-2.1595 -0.2709,-3.9263 0.1763,-3.9263 1.8143,0 4.4235,2.9 5.087,5.6544 0.6462,2.683 0.3542,3.0182 -3.483,3.9925 h -5e-4 c -5.4092,1.3724 -19.2811,1.9466 -30.3537,1.2547 -8.5263,-0.5328 -8.7143,-0.6056 -8.4393,-3.2701 0.5591,-5.3965 2.5803,-8.7219 5.301,-8.7219 z m -7.228,1.0904 c 2.1734,0 2.211,0.1471 0.617,2.4231 -0.9335,1.3325 -1.697,3.54 -1.697,4.9056 0,3.0588 -2.758,3.2973 -4.3223,0.3741 -2.3903,-4.4667 -0.121,-7.7028 5.4023,-7.7028 z" fill="#00B894" transform="translate(123.23792,31.1352) translate(-8636.5728,-2998.3877)"/>
</svg>