<?xml version="1.0" ?><svg height="346.7677mm" viewBox="0 0 316.42212 346.7677" width="316.42212mm" xmlns="http://www.w3.org/2000/svg">
    <path d="m -4743.5938,-7204.0176 c -28.7959,-0.4045 -68.5061,11.024 -86.871,32.3848 -24.4867,28.48 -33.2507,47.9409 -10.0528,106.8359 23.1979,58.895 102.3133,49.634 133.1914,32.875 30.8781,-16.759 41.3938,-59.4233 35.666,-103.1113 0,0 -24.0568,-53.2235 -47.9707,-64.5645 -5.9784,-2.835 -14.3642,-4.285 -23.9629,-4.4199 z m -120.0937,58.9317 c 0,0 -139.1868,11.2131 -202.1934,34.4101 -63.0066,23.197 -95.7991,53.6101 -145.9179,135.8301 -35.7991,99.618 75.3231,114.0523 105.3945,104.9023 30.0713,-9.15 92.0747,-68.1724 122.7188,-77.0644 30.6441,-8.893 87.6371,-17.141 118.2812,-20.75 24.3438,-2.8662 54.9818,-23.0954 66.9336,-31.5508 -11.2691,-1.3439 -33.1205,-34.8204 -54.0469,-65.4883 0,0 -21.3517,-37.241 -11.1699,-80.289 z m 65.2168,145.7773 c 2.4899,0.297 4.4711,-0.9537 5.8027,-4.1738 0,0 -2.7095,1.9855 -5.8027,4.1738 z m -679.4219,16.9238 c -51.0908,-3.2212 -62.5121,98.4015 -7.7695,193.6426 62.563,108.846 26.2939,233.711 64.5859,337.461 38.293,103.75 56.6298,190.5684 376.1856,344.3124 319.5554,153.745 421.1957,-72.6721 435.8926,-118.6621 14.6968,-45.989 26.6964,-84.5763 24.4042,-69.5293 -2.2921,15.046 10.6524,7.1582 10.6524,7.1582 0,0 14.2907,24.8774 30.4707,26.8184 16.1801,1.942 17.5293,-29.3652 17.5293,-29.3652 0,0 21.9772,7.7655 32.2246,4.8535 10.2473,-2.913 6.7422,-32.1563 6.7422,-32.1563 0,0 11.8659,7.7648 21.9785,14.8028 10.1126,7.038 24.8076,-16.5032 30.3359,-47.2032 5.5283,-30.701 -25.2119,-76.9321 -53.9316,-88.7031 -28.7196,-11.77 -112.2296,-13.6428 -149.0391,49.6992 -36.8096,63.342 -74.1582,91.7384 -93.4394,102.9024 -19.2812,11.164 -83.0578,27.3029 -162.3399,12.3769 -79.2821,-14.925 -179.0595,-71.2313 -251.0605,-129.2343 -72.0011,-58.003 -155.5984,-188.8118 -172.8574,-215.3868 -17.259,-26.574 -68.8985,-101.9296 -68.8985,-101.9296 0,0 -3.7748,-160.0551 -15.5058,-195.2461 -11.73,-35.19 -17.2591,-40.1653 -51.9121,-58.4883 -8.8407,-5.0638 -16.9494,-7.6629 -24.2481,-8.1231 z m 257.3985,177.9922 c -2.3513,-0.1006 -4.6552,-0.076 -6.8887,0.082 -5.9561,0.4207 -11.4164,1.781 -15.9629,4.1972 -18.1859,9.666 -92.6809,29.3824 -117.5879,54.1524 -24.907,24.77 9.8288,58.0599 22.3262,77.789 36.3986,57.4608 144.946,210.6747 256.5547,291.7657 118.2633,85.9259 262.6247,97.0193 318.7578,83.3593 56.1331,-13.66 96.3753,-56.0579 75.039,-77.8379 -21.3364,-21.779 -76.8115,-52.1485 -230.748,-192.1035 -153.9365,-139.955 -231.8361,-206.0663 -252.5996,-222.8203 -13.626,-10.9941 -32.4317,-17.8799 -48.8906,-18.584 z" fill="#FFFFFF" transform="translate(114.35864,76.51) matrix(0.27244145,0,0,0.27244145,2678.8085,3092.6353) translate(-4730.5688,-4305.3989)"/>
    <path d="m -9599.4895,-10472.76 c -64.6676,-12.897 -135.1323,-58.247 -181.359,-116.719 -20.7114,-26.197 -9.477,-23.874 17.8125,3.687 26.1822,26.441 63.4857,52.263 101.6944,70.394 42.8097,20.314 62.6386,24.806 109.7669,24.862 38.791,0.05 44.2413,-0.781 62.8372,-9.493 26.2727,-12.313 55.5296,-40.132 69.1737,-65.771 5.9292,-11.141 17.0933,-36.555 24.8094,-56.473 17.762,-45.854 30.5133,-65.627 60.667,-94.072 31.0177,-29.26 57.888,-42.642 88.6203,-44.134 20.4561,-0.993 25.1854,0.106 41.6758,9.748 32.8232,19.172 53.9952,62.409 48.5502,99.145 -3.0166,20.351 -9.2904,32.292 -23.051,43.869 -11.7062,9.851 -20.7993,11.688 -27.0246,5.463 -2.7173,-2.718 -4.8673,-0.767 -7.5074,6.804 -5.0381,14.455 -15.7915,19.849 -29.8152,14.962 -14.059,-4.903 -13.3794,-5.132 -13.3794,4.5 0,16.496 -22.3098,26.008 -36.5596,15.588 -3.3312,-2.434 -7.3267,-9.204 -8.8789,-15.044 -1.8806,-7.072 -5.4037,-10.991 -10.5562,-11.744 -13.0167,-1.907 -15.7601,-12.332 -6.7464,-25.634 10.7797,-15.91 17.6315,-17.967 12.2374,-3.677 -4.4073,11.675 -1.415,18.294 5.256,11.622 2.3035,-2.304 6.225,-4.189 8.7141,-4.189 3.4853,0 3.6409,1.943 0.6764,8.45 -4.6845,10.282 2.4261,27.975 11.9817,29.815 6.7312,1.298 13.2567,-11.45 13.2567,-25.897 0,-12.214 5.6638,-13.857 17.8478,-5.182 5.8961,4.2 13.0529,6.738 15.904,5.644 6.1597,-2.362 7.0594,-23.695 1.2448,-29.509 -3.9863,-3.988 -1.5747,-11.636 3.6683,-11.636 1.5681,0 8.2436,4.752 14.8344,10.561 6.5908,5.811 13.7275,10.589 15.8592,10.618 6.9279,0.107 14.9693,-11.97 19.2072,-28.832 8.6543,-34.434 -17.5003,-82.248 -50.3787,-92.1 -27.8721,-8.349 -63.0755,8.275 -100.8741,47.639 -23.7184,24.699 -30.2904,36.16 -52.678,91.866 -24.9352,62.045 -50.8204,94.414 -91.2724,114.133 -33.1006,16.135 -79.3897,20.075 -126.2145,10.736 z m 8.9792,-97.375 c -77.9031,-8.694 -184.2106,-56.508 -265.5253,-119.424 -69.1195,-53.481 -155.5764,-158.942 -223.4304,-272.547 -13.07,-21.882 -24.122,-39.403 -24.56,-38.934 -2.403,2.565 13.645,90.488 21.475,117.657 12.507,43.396 40.106,99.006 60.266,121.431 17.576,19.549 17.859,21.423 1.999,13.22 -26.577,-13.743 -63.483,-72.356 -81.44,-129.342 -20.306,-64.437 -22.922,-86.872 -23.321,-199.986 -0.349,-98.829 -0.928,-108.153 -8.359,-134.506 -4.392,-15.575 -12.001,-35.212 -16.909,-43.638 -4.909,-8.426 -7.911,-16.334 -6.673,-17.574 8.324,-8.322 32.993,32.889 45.005,75.189 7.182,25.289 8.003,35.186 7.287,87.863 l -0.806,59.367 25.652,-19.159 c 14.109,-10.537 34.168,-23.417 44.575,-28.626 20.497,-10.255 66.4127,-23.162 82.3988,-23.162 26.3391,0 69.6881,24.659 115.4792,65.693 43.5599,39.032 21.0876,36.053 -46.5336,-6.169 -36.3675,-22.706 -55.4744,-31.143 -70.647,-31.188 -32.549,-0.106 -140.3244,50.208 -140.3244,65.497 0,6.106 48.008,78.64 91.009,137.502 100.9582,138.196 177.9916,205.893 290.6237,255.395 106.5032,46.811 188.2973,52.412 255.7786,17.516 56.8325,-29.39 46.3714,-53.638 -50.8411,-117.842 -89.4091,-59.048 -189.9477,-154.394 -176.7361,-167.607 2.8554,-2.856 14.7147,5.485 43.9251,30.89 47.2687,41.111 103.252,82.824 155.8925,116.151 75.6668,47.91 92.583,75.887 71.4817,118.232 -24.69,49.548 -96.1778,77.093 -176.7417,68.101 z m -353.9593,-16.658 c -37.4798,-15.036 -98.9784,-72.524 -125.6984,-117.499 -26.208,-44.116 -46.17,-112.143 -70.729,-241.033 -17.864,-93.751 -38.719,-161.087 -71.107,-229.579 -9.537,-20.167 -16.386,-38.214 -15.221,-40.099 2.704,-4.375 33.131,46.091 47.423,78.654 27.385,62.393 44.639,126.058 72.646,268.044 22.155,112.318 46.149,166.933 97.418,221.739 21.1187,22.578 62.1733,55.199 69.4657,55.199 1.8143,0 6.3904,2.339 10.1694,5.198 8.9094,6.738 3.3863,6.499 -14.3667,-0.624 z m 675.0004,-51.297 c -6.0352,-6.034 -5.2943,-10.993 2.9698,-19.862 10.7146,-11.5 17.56,-9.968 17.56,3.934 0,11.755 -5.1713,20.176 -12.3887,20.176 -2.1415,0 -5.805,-1.911 -8.1411,-4.248 z m 50.6415,-20.489 c -3.0038,-4.86 4.4108,-14.199 11.2731,-14.199 7.1972,0 4.444,15.553 -3.0043,16.974 -3.2252,0.613 -6.9463,-0.635 -8.2688,-2.775 z m 78.0464,-14.985 c -10.3934,-14.84 -4.9388,-30.115 5.7796,-16.186 6.2266,8.092 6.2512,8.094 6.3298,0.539 0.042,-4.173 -2.4115,-8.543 -5.4551,-9.711 -7.0748,-2.713 -3.1957,-9.252 5.4899,-9.252 9.675,0 17.7419,9.656 17.7419,21.238 0,19.557 -19.4566,28.262 -29.8861,13.372 z m -109.1547,-21.336 c -2.2527,-6.284 3.8607,-16.812 9.7611,-16.812 6.8828,0 9.8128,5.811 7.1536,14.189 -2.466,7.77 -14.4055,9.621 -16.9147,2.623 z m 134.7096,-67.905 c -5.4302,-7.472 -5.4957,-8.627 -0.5954,-10.507 14.6754,-5.633 28.4355,2.007 24.0767,13.367 -3.2352,8.428 -16.4453,6.822 -23.4813,-2.86 z m -634.5656,2.732 c -33.0555,-7.117 -67.3125,-16.531 -73.9694,-38.692 -1.9894,-6.623 27.6277,-75.226 55.331,-126.393 9.2779,-17.136 16.8685,-31.705 16.8685,-32.376 0,-1.758 -53.5487,-8.421 -86.7199,-10.789 -15.5743,-1.112 -37.0773,-2.769 -47.7845,-3.682 l -19.4679,-1.659 18.3625,6.798 c 10.0992,3.741 30.2797,9.451 44.8455,12.692 29.3599,6.531 41.8056,15.629 35.3934,25.868 -5.9027,9.427 -27.3428,9.066 -62.6686,-1.051 -44.6957,-12.804 -80.4054,-30.498 -88.1417,-43.676 -7.6598,-13.047 -7.8905,-24.93 -0.6844,-35.219 6.5255,-9.316 14.6014,-9.762 51.1236,-2.82 14.6009,2.777 44.068,6.114 65.4823,7.418 21.4147,1.303 55.5291,4.605 75.8096,7.337 20.2809,2.735 37.1015,4.572 37.3795,4.088 0.2779,-0.485 5.8116,-9.336 12.2968,-19.671 6.6205,-10.55 10.4075,-20.022 8.6355,-21.598 -1.7359,-1.546 -22.2554,-16.983 -45.5987,-34.304 -23.3432,-17.325 -54.4032,-42.813 -69.0221,-56.644 -24.9363,-23.595 -27.7832,-25.272 -46.0475,-27.128 -37.5563,-3.82 -68.3186,-23.168 -87.3546,-54.944 -13.8366,-23.096 -13.8626,-60.326 -0.064,-90.467 21.4661,-46.89 73.7633,-95.582 133.2965,-124.112 13.5174,-6.48 28.2273,-12.735 32.6886,-13.9 10.5057,-2.748 8.9914,-4.208 -42.1245,-40.641 -25.8793,-18.445 -44.3265,-29.056 -53.0939,-30.534 -28.1395,-4.747 -66.8654,17.672 -90.1327,52.178 -8.1489,12.087 -23.2438,33.438 -33.5439,47.45 -18.16,24.702 -18.571,25.774 -13.553,35.395 11.015,21.118 1.043,55.934 -16.02,55.934 -8.257,0 -8.968,-1.417 -10.632,-21.237 -1.792,-21.328 -4.86,-30.086 -10.542,-30.086 -6.487,0 -25.658,23.059 -35.685,42.921 -7.582,15.02 -12.476,20.792 -17.634,20.792 -12.532,0 -13.066,-13.969 -1.692,-44.246 3.438,-9.148 -13.756,10.133 -21.304,23.892 -6.598,12.029 -18.38,12.934 -21.216,1.633 -2.959,-11.79 3.226,-25.053 20.338,-43.617 11.328,-12.288 13.357,-16.042 8.132,-15.033 -3.83,0.735 -13.472,10.881 -21.427,22.543 -11.01,16.138 -16.522,21.201 -23.078,21.201 -6.76,0 -8.854,-2.09 -9.731,-9.711 -1.579,-13.72 16.127,-44.442 31.46,-54.591 14.568,-9.64 23.796,-10.314 70.469,-5.153 25.831,2.859 34.121,2.724 36.002,-0.582 9.551,-16.78 41.326,-58.039 61.1186,-79.364 41.9407,-45.183 89.4682,-61.364 128.3683,-43.705 8.1488,3.701 39.6627,23.593 70.0309,44.204 47.8506,32.48 56.4969,37.131 64.8252,34.872 12.6571,-3.433 91.4429,-3.534 94.8552,-0.133 4.3253,4.327 0.8588,5.649 -30.5457,11.665 -42.3883,8.118 -41.6015,7.616 -27.856,17.757 15.8762,11.713 22.3754,24.113 17.4557,33.306 -4.3561,8.139 -5.5895,7.797 -52.3636,-14.527 -29.6638,-14.16 -31.3926,-14.547 -46.7651,-10.478 -25.0736,6.634 -70.3946,29.911 -95.8996,49.253 -55.7212,42.26 -92.6536,102.888 -80.8561,132.732 6.7811,17.155 13.7608,23.728 36.9074,34.755 15.9847,7.614 26.4469,10.117 42.2983,10.12 26.5432,0 22.3058,-4.301 -12.2116,-12.405 -37.136,-8.718 -48.1989,-20.588 -32.4627,-34.827 7.9519,-7.197 13.5371,-7.287 39.1987,-0.64 11.0805,2.872 31.6971,6.86 45.8148,8.861 l 25.6685,3.643 22.9565,-13.847 c 32.6493,-19.693 99.2951,-42.568 135.9769,-46.673 38.0713,-4.26 65.2798,-11.903 82.6266,-23.207 l 13.6048,-8.867 -14.1631,-10.414 c -15.9175,-11.707 -33.1619,-36.595 -41.2611,-59.55 -7.0397,-19.953 -6.9327,-62.813 0.2097,-83.849 5.5958,-16.483 5.5807,-16.589 -3.4277,-24.017 -13.6104,-11.221 -17.3822,-24.688 -11.115,-39.687 4.08,-9.764 4.2945,-13.855 1.0027,-19.127 -6.6545,-10.654 0.4765,-25.454 15.9016,-33.001 9.7016,-4.749 13.2549,-8.713 13.2549,-14.787 0,-13.764 16.453,-23.956 35.7184,-22.127 12.1731,1.158 18.2659,-0.08 24.2844,-4.959 14.2392,-11.532 31.5256,-8.534 50.6096,8.772 9.2471,8.383 16.813,17.083 16.813,19.326 0,2.246 3.3399,5.869 7.4217,8.054 6.0177,3.22 7.1717,6.592 6.1008,17.824 -0.7882,8.264 0.1991,13.849 2.4487,13.849 2.0733,0 12.9481,-3.128 20.6414,0.793 7.6933,3.923 13.0653,12.717 15.4627,11.799 2.3975,-0.922 9.2896,0.05 15.316,2.145 10.493,3.658 10.8543,4.438 8.5333,18.434 -1.6797,10.127 -5.7597,17.425 -13.2868,23.773 l -10.8625,9.156 9.9389,29.777 c 17.3724,52.051 12.0723,91.662 -15.8421,118.405 -5.7618,5.522 -8.698,8.515 -8.698,8.515 8.0903,15.979 -0.1399,30.868 -20.8328,13.57 0,0 -10.0109,7.531 -17.4154,10.804 l -13.4627,5.955 23.0223,13.241 c 25.3722,14.593 90.7449,69.561 115.5137,97.13 21.0093,23.383 45.935,68.199 58.4793,105.147 l 10.1807,29.985 17.8223,2.278 c 33.4205,4.277 43.0414,8.333 57.844,24.391 26.7829,29.056 36.8448,62.274 18.8629,62.274 -7.6649,0 -13.6661,-6.578 -26.4713,-29.018 -14.3635,-25.17 -16.414,-23.035 -3.48,3.626 12.1513,25.044 14.7696,39.552 7.1392,39.552 -6.5905,0 -15.0226,-6.942 -25.7999,-21.237 -9.0453,-12 -9.268,-12.085 -7.083,-2.652 6.5064,28.078 6.6731,41.421 0.5472,43.77 -10.0178,3.844 -15.6513,-5.968 -21.5997,-37.62 -5.4315,-28.901 -19.2943,-60.134 -26.6914,-60.134 -3.5533,0 -3.1734,4.213 4.3681,48.433 4.0261,23.608 2.5883,29.44 -7.2585,29.44 -15.204,0 -25.1169,-24.896 -25.1169,-63.078 0,-19.217 1.5448,-28.331 5.5523,-32.759 5.0782,-5.612 4.6266,-8.362 -5.2841,-32.167 -27.1998,-65.337 -62.3591,-109.01 -120.6143,-149.818 -16.5478,-11.59 -37.2544,-26.509 -46.0149,-33.149 -8.7605,-6.642 -24.1301,-16.098 -34.155,-21.014 l -18.2269,-8.941 -18.2186,13.371 c -25.6136,18.803 -53.4552,26.653 -95.1908,26.845 -19.9123,0.08 -39.3702,2.155 -46.5843,4.945 -38.629,14.941 -52.5205,20.999 -63.1749,27.551 l -11.8505,7.289 24.4234,7.744 c 34.2132,10.847 59.6625,25.56 75.6674,43.742 22.8978,26.013 23.3252,56.242 1.4547,102.845 l -13.5463,28.867 8.9473,9.661 c 28.9296,31.238 35.9863,58.915 18.0106,70.639 -7.4005,4.826 -15.7782,6.097 -36.2807,5.503 -14.6622,-0.425 -30.0275,-1.598 -34.1458,-2.605 -6.5241,-1.592 -10.2333,3.518 -28.827,39.709 -32.9801,64.199 -48.9362,103.555 -43.3762,106.99 12.9064,7.977 47.3476,11.099 77.4348,7.016 39.8762,-5.407 51.4725,-4.051 52.9294,6.199 1.4991,10.544 -14.9558,20.364 -45.9287,27.41 -23.1558,5.267 -39.7585,6.206 -54.2991,3.077 z m 86.7201,-222.758 c 0,-4.54 -12.3297,-22.668 -15.4163,-22.668 -4.1278,0 -12.6385,11.025 -12.788,16.568 -0.1062,3.91 7.5601,6.602 22.0098,7.727 3.4071,0.266 6.1945,-0.467 6.1945,-1.627 z m -14.6486,-96.116 c 18.1544,-36.114 17.7304,-51.35 -1.9363,-69.585 -11.6833,-10.834 -47.4676,-25.177 -79.3799,-31.819 -24.6945,-5.139 -30.159,-3.751 -50.2879,12.766 l -9.9782,8.19 11.7481,8.572 c 6.4615,4.715 23.6942,19.202 38.295,32.196 38.1849,33.983 71.4941,60.034 76.7579,60.034 2.5028,0 9.1544,-9.159 14.7813,-20.354 z m 209.7788,-257.192 c 16.1276,-6.754 17.053,-8.11 13.643,-19.998 -3.788,-13.21 1.1567,-16.358 13.248,-8.434 9.1723,6.01 9.477,5.939 17.5343,-4.12 17.2173,-21.492 18.9776,-46.054 6.1241,-85.452 -5.7867,-17.736 -6.6285,-18.583 -18.4876,-18.583 -7.0288,0 -19.3195,-4.04 -28.3006,-9.305 -15.4357,-9.044 -16.1613,-9.134 -26.1565,-3.23 -5.6539,3.339 -12.7802,5.113 -15.8355,3.942 -3.3839,-1.301 -8.7804,1.346 -13.8063,6.769 -4.5376,4.898 -11.9105,8.955 -16.3837,9.016 -5.78,0.08 -10.9097,4.688 -17.7307,15.928 -6.6367,10.937 -11.9721,15.817 -17.2943,15.817 -7.1079,0 -7.526,1.242 -5.4692,16.249 8.3857,61.18 61.8226,101.117 108.915,81.401 z m -30.4313,-65.454 c -3.0078,-9.478 4.145,-22.3 11.6347,-20.858 4.2226,0.812 5.9553,4.736 5.9553,13.486 0,9.957 -1.4797,12.551 -7.6598,13.432 -5.1658,0.736 -8.3995,-1.237 -9.9302,-6.06 z m 53.0939,0 c -3.0078,-9.478 4.1451,-22.3 11.6348,-20.858 4.2225,0.812 5.9552,4.736 5.9552,13.486 0,9.957 -1.4797,12.551 -7.6598,13.432 -5.1658,0.736 -8.3995,-1.237 -9.9302,-6.06 z" fill="#00B894" transform="translate(114.35864,76.51) matrix(0.27244145,0,0,0.27244145,2678.8085,3092.6353)"/>
</svg>