<?xml version="1.0" ?><svg height="428.87854mm" viewBox="0 0 340.32684 428.87854" width="340.32684mm" xmlns="http://www.w3.org/2000/svg">
    <path d="m -8751.0751,-10049.822 c -34.8669,-0.27 -70.5825,1.562 -107.5469,5.125 -147.8576,14.252 -294.0877,78.5883 -412.4922,227.3733 -118.4045,148.784 -146.0119,294.729 -122.7031,459.059 70.4074,496.382 249.6677,755.571 490.2483,969.314 143.9072,127.854 326.3527,143.995 393.1033,156.783 66.7505,12.787 108.6362,6.127 53.5781,-13.72 -55.058,-19.847 -240.2121,-139.197 -312.8828,-191.811 -72.6708,-52.614 -166.2108,-154.634 -196.2559,-190.598 -30.0452,-35.963 -63.6425,-106.035 -67.6386,-135.605 -3.9961,-29.57 15.9511,-59.061 15.9511,-59.061 0,0 -98.8393,-197.497 -110.6797,-227.068 -11.8405,-29.57 -66.1595,-217.78 -63.9394,-384.547 2.22,-166.766 67.6384,-226.44 111.7441,-275.324 44.1056,-48.885 167.6396,-94.327 240.9024,-109.912 73.2627,-15.584 235.3284,14.918 284.3183,41.025 48.9899,26.107 73.412,63.269 98.1289,123.742 24.7169,60.472 13.6155,177.823 7.6953,257.077 0,0 -7.9848,50.379 39.377,55.84 47.3617,5.461 40.5547,-35.432 40.5547,-35.432 0,0 0.2956,-16.383 16.5762,42.625 16.2806,59.007 47.3613,53.678 47.3613,53.678 0,0 -0.7385,31.159 27.3789,33.976 44.7857,4.488 33.2471,-61.726 30.583,-92.095 -2.6642,-30.37 26.6414,-30.503 30.9336,-7.726 5.3048,20.514 58.5837,64.055 61.1826,13.231 l 9.6211,8.793 c 0,0 51.3581,26.64 68.9707,-0.666 17.6127,-27.306 22.7529,-51.4917 -15.2141,-78.8807 -84.8756,-61.228 -81.2628,-206.4471 -116.9558,-291.5483 -32.7432,-78.0681 -106.7118,-219.584 -240.2129,-284.4524 -100.1258,-48.6509 -197.0869,-68.3829 -301.6875,-69.1949 z m 97.9442,527.9194 c -91.2624,2.264 -86.7499,73.4775 -113.5918,145.3435 -35.366,37.3339 -20.9976,119.1708 1.2879,160.3203 43.2896,70.9401 129.9733,97.9087 136.5093,165.9375 4.0262,51.937 -10.2622,25.3216 -28.716,62.3116 -18.4538,36.99 10.7366,93.759 44.1211,115.047 0,0 30.1962,43.826 108.6875,12.539 127.4545,-50.804 93.9688,-183.296 76.6894,-255.615 -17.2795,-72.32 -83.5456,-150.981 -107.8711,-171.363 -24.3254,-20.382 -64.7558,-29.29 -64.7558,-29.29 0,0 28.351,-22.496 42.1074,-69.753 13.7564,-47.256 -3.2056,-137.7429 -94.4679,-135.4779 z m -227.2274,611.2449 c -4.1226,-0.08 -8.0651,0.106 -11.7559,0.578 -29.526,3.774 -90.7577,40.764 -117.5996,95.117 -18.7893,54.805 -21.4749,58.279 46.3008,178.006 67.7757,119.726 275.6325,242.623 375.1152,311.772 99.4826,69.148 237.7441,118.519 314.5528,106.138 76.8087,-12.381 131.3579,-55.408 150.8183,-72.318 19.4603,-16.91 10.5694,-61.298 -12.2461,-81.529 -22.8156,-20.231 -157.0259,-116.405 -185.8808,-143.129 -28.855,-26.723 -220.2708,-150.829 -248.1192,-168.041 -27.8484,-17.211 -92.2679,-72.922 -106.8632,-88.775 -14.5953,-15.853 -90.5917,-93.004 -115.7559,-109.612 -22.0188,-14.532 -59.7081,-27.677 -88.5664,-28.207 z" fill="#FFFFFF" transform="translate(35.815765,72.517137) matrix(0.23152081,0,0,0.23152081,2140.8032,2256.6676)"/>
    <path d="m -8349.8608,-8209.8576 c -54.8471,-7.303 -121.2192,-35.833 -234.6275,-100.85 -70.2178,-40.255 -125.0139,-77.214 -183.3508,-123.663 -142.9968,-113.855 -233.743,-218.766 -265.5829,-307.032 -8.116,-22.498 -8.5545,-26.544 -5.0259,-46.345 7.396,-41.506 36.0986,-87.05 71.8639,-114.038 26.6712,-20.123 52.2431,-28.004 90.8692,-28.004 27.2037,0 32.5885,1.191 54.7993,12.129 13.5472,6.671 32.2261,19.236 41.5085,27.917 28.5996,26.751 23.3075,27.818 -38.4105,7.738 -47.6672,-15.506 -64.6604,-17.048 -93.5183,-8.476 -34.3475,10.199 -65.6437,37.895 -89.2264,78.964 -10.0318,17.47 -11.348,22.864 -11.3061,46.319 0.077,42.807 16.5226,70.848 90.2103,153.805 68.7075,77.35 194.1195,181.424 289.4741,240.228 57.5275,35.475 159.3627,91.46 191.8126,105.45 64.7119,27.898 87.0775,32.841 148.6077,32.847 48.2332,0 57.2164,-0.937 74.3315,-7.77 22.4574,-8.968 21.2376,-8.7 21.2376,-4.678 0,5.601 -47.3638,27.954 -67.2525,31.739 -31.3448,5.966 -60.2119,7.208 -86.4138,3.72 z m 164.2912,-44.753 c 0,-1.46 6.8326,-6.969 15.1755,-12.238 8.3429,-5.27 21.8792,-15.777 30.0804,-23.348 12.7693,-11.79 14.9109,-15.812 14.9109,-28.007 0,-18.655 -17.7998,-41.207 -55.2692,-70.029 -15.1859,-11.68 -47.895,-37.489 -72.6866,-57.354 -24.7917,-19.863 -71.8475,-56.309 -104.5685,-80.99 -63.761,-48.095 -89.5787,-70.771 -89.5787,-78.685 0,-6.645 3.8881,-4.898 50.5319,22.7 53.1486,31.445 93.1062,59.232 178.6403,124.224 101.8532,77.393 124.8046,103.029 124.7738,139.361 -0.026,28.453 -16.7917,45.629 -58.5862,60.007 -21.2224,7.303 -33.4343,8.896 -33.4236,4.359 z m -220.2891,-18.835 c -11.9073,-6.94 -18.0763,-39.993 -15.5894,-83.536 1.2456,-21.808 3.8475,-43.815 5.7817,-48.902 3.1094,-8.179 -3.0046,-22.243 -52.7987,-121.455 -31.5978,-62.956 -58.7909,-121.805 -61.9556,-134.078 -5.0851,-19.721 -12.4771,-112.991 -12.6042,-159.037 l -0.05,-18.089 -18.5515,-2.198 c -34.3581,-4.07 -73.3997,-28.642 -99.1428,-62.402 l -9.3713,-12.291 -9.4322,8.75 c -40.3848,37.466 -126.364,167.203 -120.6593,182.07 1.1704,3.05 14.7842,5.03 43.5943,6.342 49.2149,2.243 69.6568,7.948 139.1738,38.843 48.1652,21.408 56.691,27.211 56.691,38.589 0,3.411 -14.7707,19.061 -32.8237,34.776 -18.053,15.716 -39.6224,37.097 -47.9322,47.509 -22.7159,28.469 -46.1378,38.158 -52.453,21.702 -2.419,-6.305 9.6323,-21.697 53.0156,-67.713 l 30.4294,-32.279 -32.2598,-14.988 c -54.7831,-25.453 -94.2162,-35.494 -139.3853,-35.494 -18.8123,0 -42.9793,-9.065 -47.7033,-17.892 -7.3148,-13.667 -3.5066,-31.185 14.347,-66.004 25.1169,-48.982 59.7479,-96.458 98.8858,-135.559 l 33.657,-33.627 0.1354,-23.006 c 0.1593,-27.126 7.2529,-41.514 27.3301,-55.427 7.3413,-5.087 13.3478,-12.005 13.3478,-15.371 0,-11.33 -24.3526,-54.721 -39.727,-70.787 -8.3835,-8.761 -30.3506,-29.627 -48.8158,-46.367 -27.0652,-24.54 -36.8278,-36.255 -50.3623,-60.434 -19.0094,-33.962 -29.7498,-62.625 -33.194,-88.59 l -2.3563,-17.76 -18.0753,2.365 c -9.9413,1.304 -38.7819,6.6 -64.0899,11.774 -60.0898,12.28 -144.9058,13.732 -173.44,2.968 -18.0724,-6.82 -82.2385,-43.973 -104.221,-60.344 -6.7052,-4.994 -16.0487,-9.082 -20.7634,-9.082 -4.7145,0 -16.1931,-5.593 -25.5079,-12.432 -9.3151,-6.838 -24.2621,-15.673 -33.2156,-19.634 -17.5252,-7.752 -20.5932,-14.93 -9.0267,-21.121 7.6606,-4.099 28.2961,0.473 38.4567,8.519 11.3578,8.997 -4.0989,-12.631 -24.9873,-34.959 -13.6669,-14.609 -20.7505,-24.92 -19.4499,-28.31 2.8352,-7.388 12.4672,-6.637 26.7797,2.089 l 12.1238,7.391 -5.9293,-9.05 c -12.3982,-18.923 -2.3021,-29.958 15.4201,-16.855 12.6111,9.324 14.0462,9.374 14.0462,0.478 0,-3.894 2.1116,-7.08 4.6925,-7.08 7.7896,0 18.9898,14.55 31.3307,40.704 9.511,20.158 11.9265,30.06 12.9522,53.094 -3.8032,36.2754 19.9664,37.5285 49.5895,52.115 26.5807,13.087 54.6997,25.421 62.4867,27.412 21.3369,5.448 59.4206,4.208 100.8785,-3.286 125.7338,-22.733 135.9121,-25.005 143.3429,-31.984 4.1503,-3.9 10.8059,-7.091 14.7904,-7.091 6.2725,0 7.5,-2.819 9.1512,-21.028 5.1509,-56.808 57.9635,-120.942 112.0983,-136.13 18.1512,-5.094 23.9695,-5.4 34.9058,-1.834 7.2181,2.352 13.9201,5.325 14.8936,6.605 0.9735,1.282 7.7153,5.941 14.9823,10.358 18.8911,11.479 36.8817,33.938 45.4983,56.8 6.101,16.186 7.1977,25.557 6.0819,51.963 -1.1906,28.177 -2.8971,35.278 -13.6093,56.635 -6.7363,13.428 -12.7789,25.61 -13.4277,27.07 -0.6491,1.46 2.7208,2.655 7.4884,2.655 4.7678,0 19.9439,5.641 33.7252,12.535 27.7206,13.869 49.2568,35.165 72.1376,71.335 11.0701,17.5 18.2978,24.426 35.7997,34.306 43.3243,24.461 70.9071,52.529 116.7638,118.822 53.7929,77.764 72.7087,112.944 116.0779,215.869 14.0573,36.7391 16.7019,62.1629 53.7353,72.853 33.3645,9.629 41.4509,15.602 61.6773,45.56 12.6743,18.774 16.5433,27.768 16.7488,38.936 0.2442,13.303 -0.5538,14.617 -9.5049,15.647 -8.2123,0.945 -9.6554,2.655 -9.0408,10.72 0.9336,12.254 -2.8175,18.243 -11.4261,18.243 -4.7169,0 -10.0459,-6.263 -17.3187,-20.354 l -10.5054,-20.351 -0.1699,17.046 c -0.1912,19.098 -4.963,30.739 -12.6019,30.739 -8.7775,0 -14.8912,-14.723 -20.6288,-49.677 -7.8815,-48.019 -12.4423,-57.883 -12.7301,-27.54 -0.3592,37.901 -10.2766,53.006 -25.0818,38.201 -5.9542,-5.955 -6.9596,-11.622 -6.7366,-37.97 0.1434,-17.036 1.3861,-38.14 2.7591,-46.901 2.3759,-15.158 0.5978,-19.86 -36.8292,-97.34 -43.7854,-90.641 -65.6362,-128.609 -108.6397,-188.764 -28.3962,-39.72 -74.9271,-92.352 -78.4945,-88.787 -0.9714,0.972 1.2904,11.588 5.0261,23.593 18.9344,60.835 22.5896,153.98 7.5102,191.363 -17.4695,43.312 -43.2939,73.469 -75.6467,88.341 l -20.3524,9.355 0.032,42.624 c 0.04,56.837 5.8154,119.952 12.9685,141.731 8.0525,24.516 85.212,179.059 103.2156,206.729 17.0004,26.13 17.071,26.866 8.9237,92.915 -3.2044,25.981 -5.9919,54.405 -6.1942,63.165 -0.5439,23.571 -6.2613,29.377 -20.6633,20.986 z m -131.8659,-612.983 c 5.7992,-35.859 24.9332,-60.628 40.4271,-52.337 8.7767,4.699 9.1258,12.283 1.7356,37.705 -3.0696,10.557 -5.0399,20.82 -4.3789,22.803 1.4351,4.304 41.8438,-15.232 49.8554,-24.104 11.4471,-12.676 23.8172,-58.895 23.8172,-88.988 0,-59.367 -15.0256,-134.999 -34.5074,-173.697 -8.2059,-16.3 -13.635,-21.723 -34.5147,-34.479 -13.6274,-8.328 -27.0867,-18.525 -29.9091,-22.663 -4.611,-6.762 -4.4313,-8.041 1.7698,-12.591 3.796,-2.785 9.6892,-4.338 13.0959,-3.454 3.4071,0.884 6.1945,0.395 6.1945,-1.089 0,-5.707 -38.6906,-38.917 -58.106,-49.876 -11.2089,-6.326 -21.173,-13.568 -22.1428,-16.095 -1.1962,-3.117 -8.2014,0.65 -21.7937,11.723 -28.2343,22.995 -53.3151,33.64 -83.8857,35.602 -32.5676,2.092 -53.0531,-6.204 -68.7128,-27.821 -11.531,-15.918 -21.4473,-43.912 -21.4473,-60.543 0,-5.488 -1.5928,-9.977 -3.5398,-9.977 -1.9467,0 -3.5395,4.882 -3.5395,10.85 0,5.97 -1.5097,13.674 -3.3547,17.12 -5.1263,9.578 3.7638,41.817 19.2377,69.763 24.1777,43.667 50.3716,76.808 89.9977,113.87 46.596,43.585 61.4163,68.359 61.8934,103.464 0.2705,19.913 -0.4479,21.726 -14.3091,36.123 -8.0267,8.336 -16.479,18.835 -18.7828,23.329 -5.7283,11.177 -1.5739,27.803 7.5418,30.187 5.8849,1.54 6.8613,3.722 4.9945,11.16 -2.8185,11.23 5.8345,24.593 26.5419,40.994 16.5722,13.125 50.2513,27.858 63.9662,27.981 8.3634,0.08 9.6963,-1.609 11.8556,-14.96 z m -114.2493,-411.483 c 10.8142,-5.296 27.1753,-17.016 36.3582,-26.048 14.8227,-14.579 15.8565,-16.549 9.2139,-17.555 -9.8019,-1.484 -25.9834,-22.698 -23.0812,-30.261 4.6982,-12.243 21.9264,-4.778 31.2648,13.547 l 5.3357,10.47 7.5853,-17.147 c 15.7856,-35.687 12.0764,-74.631 -10.2787,-107.916 -10.7301,-15.976 -32.0518,-32.721 -48.8884,-38.392 -10.0775,-3.395 -13.1521,-2.429 -32.5258,10.231 -25.5539,16.696 -45.145,39.202 -61.2752,70.387 -11.3634,21.97 -11.8758,24.641 -11.8758,61.897 0,33.417 1.1477,41.264 8.0968,55.371 10.5915,21.498 24.153,28.615 50.6235,26.571 11.6544,-0.9 27.865,-5.484 39.4469,-11.155 z m -44.8091,-19.172 c -3.3784,-3.732 -5.6163,-10.502 -4.9731,-15.041 1.0348,-7.309 3.3426,-8.381 20.074,-9.34 19.983,-1.141 35.959,5.578 35.959,15.121 0,15.01 -39.3928,22.154 -51.0599,9.26 z m 26.2828,-10.497 c 0,-1.72 -3.9821,-3.889 -8.8489,-4.818 -9.0817,-1.736 -12.351,2.403 -4.4246,5.601 7.229,2.915 13.2735,2.56 13.2735,-0.783 z m 5.6078,-66.394 c -2.7575,-7.186 6.809,-22.509 14.0526,-22.509 6.9195,0 9.9986,8.328 7.2009,19.475 -2.5971,10.348 -17.6238,12.493 -21.2535,3.034 z m 46.3061,3.449 c -3.8459,-3.847 -2.6905,-17.131 1.888,-21.71 10.3857,-10.385 24.2313,3.459 16.9901,16.99 -3.6832,6.881 -14.1092,9.488 -18.8781,4.72 z m -196.5895,1002.208 c -47.7211,-27.279 -116.8836,-98.255 -175.0583,-179.648 -46.7752,-65.446 -134.6533,-258.812 -182.4272,-401.411 -18.2556,-54.491 -39.6784,-140.274 -39.2842,-157.304 0.2827,-12.222 10.4921,10.629 21.1871,47.426 24.9032,85.675 76.5375,211.484 153.0613,372.937 58.3661,123.141 101.2715,184.695 193.9624,278.265 26.5166,26.77 47.2732,48.65 46.1258,48.629 -1.1476,-0.03 -9.0528,-4.027 -17.5669,-8.894 z m 214.4519,-304.618 c -21.1601,-11.012 -64.3047,-51.562 -91.7001,-86.187 -19.7897,-25.01 -23.7253,-35.167 -14.7808,-38.146 2.2005,-0.732 26.9122,21.437 54.915,49.261 28.0028,27.827 60.0155,56.964 71.1392,64.753 11.124,7.787 20.2593,15.352 20.3015,16.813 0.1646,5.76 -23.8444,1.85 -39.8748,-6.494 z m -469.076,-223.446 c -21.0243,-32.825 -57.1938,-113.108 -74.6842,-165.775 -20.7234,-62.401 -35.0555,-129.371 -38.0384,-177.742 -2.9953,-48.578 3.6319,-39.438 16.3458,22.541 22.4072,109.233 52.4212,205.829 89.5171,288.101 23.2838,51.639 25.4129,61.843 6.8597,32.875 z m -184.1817,-225.118 c -11.5516,-13.918 -31.6381,-99.445 -20.4541,-87.09 2.137,2.36 26.6454,89.71 25.4938,90.863 -0.5737,0.573 -2.8416,-1.126 -5.0397,-3.773 z m 976.3763,-96.976 c -8.1013,-2.978 -18.0432,-12.331 -24.8599,-23.39 -3.3815,-5.485 -11.5158,-12.653 -18.0761,-15.928 -13.5432,-6.762 -31.4754,-34.249 -40.6258,-62.272 -3.2353,-9.907 -6.2702,-18.484 -6.744,-19.058 -0.4739,-0.573 -5.7113,3.807 -11.639,9.735 -12.167,12.167 -28.3073,14.211 -43.1786,5.471 -4.8669,-2.859 -11.4845,-6.169 -14.7054,-7.35 -3.2213,-1.184 -9.9809,-11.341 -15.0214,-22.573 -11.6469,-25.953 -16.1371,-67.069 -16.2533,-148.831 -0.098,-68.294 -3.0479,-93.004 -15.9699,-133.746 -28.9306,-91.212 -116.8732,-167.331 -241.5988,-209.118 -51.427,-17.229 -83.0112,-22.621 -131.8213,-22.496 -57.3719,0.133 -99.1499,10.444 -154.0695,37.986 -96.1445,48.215 -169.5195,124.811 -225.4043,235.299 -24.8397,49.109 -52.4565,118.275 -63.6163,159.327 -6.8587,25.23 -8.1813,38.753 -8.1935,83.771 0,29.526 -0.5923,53.108 -1.2984,52.401 -3.8437,-3.844 -10.8731,-49.366 -10.9804,-71.111 -0.5221,-105.837 76.4805,-287.257 160.9603,-379.226 60.3959,-65.751 140.4321,-115.824 220.8869,-138.195 30.1711,-8.389 40.01,-9.422 88.7945,-9.326 47.432,0.106 60.0022,1.391 92.7989,9.578 155.2442,38.745 264.616,124.71 303.974,238.915 15.165,44.001 18.0612,79.909 15.3574,190.389 -1.9132,78.183 -1.4824,104.783 1.7972,110.911 5.8168,10.871 25.6898,18.983 36.462,14.887 11.8493,-4.505 15.6372,-10.263 21.2017,-32.225 5.5077,-21.74 13.3561,-25.732 17.3397,-8.824 13.0226,55.27 24.7776,85.367 39.5266,101.196 6.7376,7.232 7.8884,7.521 8.9083,2.225 1.8947,-9.838 6.4571,-7.109 16.3554,9.78 14.7269,25.129 30.045,30.08 39.0699,12.628 7.2256,-13.971 7.1287,-53.818 -0.1646,-67.923 -6.6354,-12.83 -4.4862,-20.741 5.6351,-20.741 16.5898,0 27.3944,60.546 16.088,90.151 -8.9659,23.478 -24.2546,33.816 -40.9346,27.683 z m 85.9779,-68.154 c -10.7741,-6.57 -28.4238,-34.083 -24.4274,-38.079 1.0292,-1.03 6.1084,3.165 11.2872,9.318 5.179,6.156 14.1193,13.624 19.8677,16.595 13.8461,7.162 20.5617,1.667 20.5617,-16.82 0,-19.781 8.6774,-21.981 22.7157,-5.764 13.0831,15.116 22.7614,20.465 37.024,20.465 14.7115,0 21.6708,-11.088 21.6708,-34.527 0,-22.904 -6.5507,-39.629 -19.516,-49.828 l -9.7555,-7.675 h 9.0549 c 20.1213,0 41.4542,32.164 41.4542,62.502 0,18.134 -10.1909,39.744 -21.5004,45.592 -17.8884,9.251 -47.5836,4.112 -59.5371,-10.3 -4.5218,-5.453 -5.4841,-5.052 -11.4519,4.76 -7.8218,12.862 -20.4419,14.13 -37.4479,3.761 z m -117.5773,-73.166 c -8.602,-10.935 -9.5468,-26.892 -2.0369,-34.402 2.9146,-2.915 4.3988,-7.646 3.2982,-10.513 -2.6061,-6.793 5.002,-11.447 10.2052,-6.243 3.0101,3.01 2.9246,5.795 -0.3385,11.019 -3.6229,5.801 -3.4572,6.99 0.9737,6.99 8.6591,0 19.4977,13.38 19.4977,24.07 0,19.674 -18.9771,25.127 -31.5994,9.079 z m 17.4411,-13.472 c 0,-0.858 -1.5928,-2.544 -3.5397,-3.749 -1.9467,-1.202 -3.5395,-0.499 -3.5395,1.561 0,2.063 1.5928,3.749 3.5395,3.749 1.9469,0 3.5397,-0.701 3.5397,-1.561 z m 347.5881,11.473 c -5.7196,-5.721 -5.3604,-12.267 0.803,-14.633 6.473,-2.482 14.0662,6.536 11.3847,13.526 -2.4771,6.454 -6.4764,6.817 -12.1877,1.107 z m -481.9682,-27.378 c -5.1042,-9.535 -4.5714,-18.917 1.5328,-26.987 4.9032,-6.483 5.2029,-6.196 5.3094,5.067 0.096,10.157 0.8967,11.286 5.3768,7.566 11.3,-9.376 22.24,6.441 11.7258,16.953 -6.5027,6.504 -19.8492,5.055 -23.9448,-2.599 z m 444.6846,-6.132 c -3.7917,-3.791 -2.7179,-14.699 1.7167,-17.439 6.198,-3.83 14.4769,9.193 9.5883,15.084 -4.3277,5.217 -7.7355,5.926 -11.305,2.355 z m -372.4174,-27.489 c -9.9453,-15.177 6.3728,-31.554 18.9298,-18.997 8.7289,8.731 2.7335,27.608 -8.7674,27.608 -2.4859,0 -7.0591,-3.873 -10.1624,-8.611 z m -37.3524,-64.833 c -2.1187,-15.777 -0.7611,-23.911 4.1501,-24.862 6.5106,-1.261 14.6866,14.28 11.661,22.164 -2.0707,5.395 -15.149,7.627 -15.8111,2.698 z m 195.3561,-34.511 c -14.1641,-64.95 -60.3863,-170.798 -101.6557,-232.788 -25.2278,-37.896 -69.8427,-86.657 -112.4067,-122.857 -14.8236,-12.604 -26.9518,-24.152 -26.9518,-25.66 0,-19.777 90.9196,57.928 133.0074,113.674 27.0089,35.775 73.4352,126.958 91.2575,179.235 13.5209,39.661 24.6696,89.646 22.6847,101.706 -0.8187,4.978 -3.0266,0.03 -5.9354,-13.31 z m 123.3297,9.878 c -14.635,-12.315 -28.0036,-41.066 -28.0479,-60.318 -0.04,-17.77 5.4275,-19.931 8.9652,-3.541 3.3542,15.541 13.1351,34.222 24.0935,46.016 10.8216,11.647 14.9241,12.14 20.1276,2.416 3.0399,-5.678 2.672,-9.214 -1.6451,-15.803 -9.5803,-14.622 -6.8712,-21.514 7.7124,-19.618 7.9519,1.032 4.6582,-6.119 -7.0793,-15.368 l -11.5036,-9.066 10.8362,-0.03 c 14.0774,-0.05 26.3296,11.426 26.3296,24.668 0,5.649 -1.7219,11.335 -3.8265,12.636 -2.1044,1.301 -2.8984,6.061 -1.764,10.582 2.5063,9.987 -3.1233,25.941 -11.3619,32.198 -9.5144,7.229 -20.4735,5.639 -32.8362,-4.762 z m -1094.1953,-48.921 c -6.2731,-6.273 14.2841,-56.688 35.9629,-88.197 15.2605,-22.18 59.0316,-62.032 92.288,-84.026 79.2456,-52.407 153.0908,-75.45 255.6852,-79.787 64.5016,-2.727 109.8157,5.474 164.9232,29.846 27.2547,12.053 19.9256,13.985 -12.5764,3.316 -44.3764,-14.566 -70.6616,-17.569 -135.3501,-15.455 -111.8004,3.652 -186.6217,26.706 -271.9744,83.798 -58.6467,39.228 -91.0417,75.008 -115.2695,127.314 -6.4214,13.862 -12.5814,24.301 -13.6889,23.191 z m -213.3683,-37.944 c 3.5356,-16.846 30.8585,-85.998 45.193,-114.385 43.69,-86.514 118.2221,-171.499 195.4923,-222.912 59.1634,-39.367 151.3517,-76.6044 231.9517,-93.6924 56.296,-11.936 145.473,-13.738 193.046,-3.9 60.0932,12.429 112.1391,36.592 167.8094,77.9134 35.4696,26.329 123.6291,114.321 156.3966,156.104 38.32,48.862 79.7608,111.903 76.0198,115.643 -0.8354,0.837 -13.2031,-13.294 -27.484,-31.399 -62.6808,-79.469 -161.9649,-182.128 -215.7559,-223.093 -54.7555,-41.6974 -111.1258,-67.6024 -172.0803,-79.0814 -46.9785,-8.845 -130.697,-5.649 -186.5704,7.126 -85.246,19.485 -170.7473,55.8764 -230.4201,98.0674 -62.3253,44.068 -130.1812,120.717 -170.9085,193.054 -18.5388,32.929 -57.4625,119.132 -57.4625,127.264 0,2.636 -1.7192,4.794 -3.8206,4.794 -2.4463,0 -2.9523,-4.138 -1.4065,-11.503 z m 1200.5908,-68.905 c -3.1569,-7.364 -13.0972,-31.708 -22.0894,-54.097 -21.3289,-53.102 -44.3258,-96.448 -67.5429,-127.311 -21.7555,-28.921 -20.1197,-32.539 3.3606,-7.436 21.1592,22.62 45.6859,60.723 62.441,97.008 17.3254,37.516 36.7102,98.088 32.6812,102.115 -1.7877,1.789 -5.5518,-2.583 -8.8505,-10.279 z" fill="#00B894" transform="translate(35.815765,72.517137) matrix(0.23152081,0,0,0.23152081,2140.8032,2256.6676)"/>
</svg>