<?xml version="1.0" ?><svg height="23.457035mm" viewBox="0 0 222.96967 23.457035" width="222.96967mm" xmlns="http://www.w3.org/2000/svg">
    <path d="m 3853.2544,2985.098 c -3.4765,-0.029 -7.0719,0.4459 -9.5462,1.1353 -5.2786,1.4708 -13.2519,4.7703 -19.237,7.8114 0,0 -2.2303,2.0474 3.8432,4.8896 6.0738,2.8424 20.4954,6.8775 25.818,7.1955 5.3226,0.3181 10.1373,-3.0214 10.8882,-6.0028 0.7509,-2.9815 1.2368,-9.2627 -2.2086,-12.562 -1.8303,-1.753 -5.6175,-2.4339 -9.5576,-2.467 z m -171.2143,5.4089 -19.0821,5.3465 17.0285,5.6849 z" fill="#FFFFFF" paint-order="markers stroke fill" transform="translate(-83.578739,-297.85618) translate(-3574.3042,-2685.7481)"/>
    <path d="m 3880.6562,2995.1681 c -0.5971,1.8572 -5.3063,3.6043 -10.5221,3.9038 -2.2319,0.1279 -3.2407,0.8035 -3.8321,2.5662 -2.3732,7.0697 -17.5352,6.8429 -32.9254,1.5426 -5.655,-1.9477 -7.2822,-4.8097 -15.0163,-4.499 -17.229,0.6921 -106.4362,0.9511 -124.0286,0.156 -6.4931,-0.2933 -8.9966,1.3737 -9.4789,2.6161 -0.9829,2.5332 -5.0804,2.4297 -15.4353,-0.3903 -15.0432,-4.0966 -15.2572,-5.6628 -1.3148,-9.6256 16.3072,-4.6352 15.78,-4.5934 16.305,-1.2928 0.4423,2.7821 1.4708,2.8704 36.1289,3.1077 46.9513,0.3209 100.2106,-0.3631 101.3703,-1.8045 1.9209,-2.3873 26.0217,-7.3448 31.1342,-7.7905 5.8551,-0.5107 12.7675,2.7125 13.4954,6.2923 0.4924,2.4212 3.0898,3.1055 8.7373,2.3023 4.4206,-0.6288 6.2105,0.3409 5.3824,2.9162 z m -25.1938,-8.0395 c -3.8671,-0.3156 -24.549,3.5296 -24.3825,5.0692 0.034,0.3175 11.9273,1.293 19.7731,0.7078 13.8104,-1.0299 14.181,-1.1332 11.635,-3.2409 -1.4464,-1.1973 -4.6078,-2.3386 -7.0256,-2.5361 z m -14.955,12.5516 c -4.4889,0.6457 -4.2413,1.0742 1.5978,2.7646 5.7541,1.666 17.6927,2.1539 19.7137,-0.3581 1.5997,-1.988 1.4119,-2.0578 -5.1671,-1.9162 -3.7547,0.081 -14.0148,-0.797 -16.1444,-0.4903 z m -165.4811,-4.1107 c -2.555,1.2846 -2.5466,1.3651 0.2246,2.0725 2.9456,0.752 3.8976,0.3793 3.6996,-1.4492 -0.1966,-1.828 -1.2078,-1.9886 -3.9239,-0.6233 z" fill="#00B894" transform="translate(-83.578739,-297.85618) translate(-3574.3042,-2685.7481)"/>
</svg>