<?xml version="1.0" ?><svg height="359.2706mm" viewBox="0 0 367.26627 359.2706" width="367.26627mm" xmlns="http://www.w3.org/2000/svg">
    <path d="m 7926.3749,3504.9219 c -1.9238,-0.2161 -17.712,14.2673 -23.1567,19.5792 -5.62,5.4835 -51.6514,57.2022 -54.6344,61.6215 -2.9829,4.4196 -52.9329,68.5927 -55.5883,72.8157 -2.6553,4.2233 -16.5622,32.1026 -18.1447,34.5576 -2.2459,2.5492 -4.0888,5.1967 -5.8606,8.0905 -2.1547,3.5188 4.5358,6.5434 6.6022,5.9417 4.3288,-1.2603 10.2213,-12.2762 13.6043,-19.3311 3.3829,-7.0548 33.1386,-54.0819 33.1386,-54.0819 0,0 0.6729,4.6815 6.966,8.5772 6.2932,3.8957 11.3132,2.2913 14.6234,-0.098 3.3102,-2.3899 8.7662,-8.3644 8.9663,-14.2244 0.2002,-5.8597 -4.6555,-13.3239 -10.5848,-13.8803 -5.9293,-0.5567 -6.4569,0.2615 -4.2561,-2.8484 2.2008,-3.11 26.5553,-33.441 30.8296,-38.6628 4.2741,-5.2216 30.7561,-34.2593 35.8485,-40.2828 5.0927,-6.0238 22.8255,-26.4781 21.7888,-27.7058 -0.032,-0.038 -0.08,-0.061 -0.1421,-0.068 z m -143.4816,2.1208 c -7.5941,0 -16.5216,1.4837 -20.6422,4.054 -5.2745,3.2901 -4.1832,16.8434 -4.1832,16.8434 0,0 -11.5493,11.6871 -10.1126,12.0308 0,0 4.947,0.8181 5.5656,1.0801 0.6183,0.2619 -0.3817,10.6886 5.4384,24.1763 5.8203,13.4877 19.243,11.8509 31.4472,6.351 12.2039,-5.4998 13.2767,-28.9062 13.2767,-28.9062 0,0 6.9119,-0.9822 10.1492,-0.8842 3.2375,0.098 -9.4939,-14.6172 -9.4939,-14.6172 0,0 -0.4912,-6.6946 -1.0915,-11.867 -0.6001,-5.1726 -6.2748,-6.8093 -14.4228,-7.906 -1.7825,-0.2399 -3.8046,-0.3556 -5.9309,-0.355 z m -38.4711,67.9065 c -1.4917,0 -2.8396,0.1958 -3.9171,0.5948 -4.9252,1.8236 -16.1555,12.6648 -24.2192,26.1022 -8.0633,13.4374 -11.9176,30.5739 -11.9176,30.5739 0,0 -4.1375,-12.703 -5.5588,-16.2238 -1.4214,-3.5208 -5.868,-10.3089 -8.0212,-12.5507 -2.1532,-2.2416 -4.0673,0.025 -4.8132,2.8877 -0.7458,2.8622 6.9694,54.5504 10.0371,69.4696 3.0678,14.919 4.4611,12.2465 9.091,15.4761 4.63,3.2295 39.783,9.9038 51.9136,10.5751 12.1306,0.6712 17.7322,-6.6361 17.7602,-12.3605 -0.5319,-7.5765 -3.8994,-5.1051 -1.709,-13.1191 0.8866,-3.6475 -0.3519,-11.2339 -8.9643,-14.4761 -8.6125,-3.2422 -12.9466,-10.3345 -12.0179,-16.9328 0.9287,-6.5985 4.659,-13.4814 11.2309,-33.5804 6.572,-20.0991 0.8867,-25.5703 -3.2086,-30.3573 -3.1994,-3.7402 -10.3583,-6.0964 -15.6859,-6.0787 z m -56.6286,136.2139 c -0.5957,0 -1.1825,0 -1.7585,0 -9.2159,0.057 -15.0667,3.5949 -16.2306,6.7086 -1.1639,3.1139 1.762,26.2702 3.2402,35.555 1.4782,9.285 2.9564,14.6915 9.2159,16.3049 3.0195,1.9534 24.0316,2.8592 28.6867,-1.0754 4.6552,-3.9349 5.7871,-21.967 6.7308,-33.9979 0.9435,-12.0308 1.6671,-17.0695 -4.3723,-19.9569 -5.6617,-2.7069 -16.576,-3.4984 -25.5122,-3.5398 z m 52.0671,43.2924 c -13.8888,0.066 -16.4433,3.657 -17.3105,7.3412 -0.2392,7.8015 4.236,7.5844 11.4975,8.4584 7.2614,0.8739 32.7748,0.4575 39.9799,-0.8088 7.2051,-1.2665 4.7284,-7.2445 1.0837,-11.1833 -3.6449,-3.9389 -12.5387,-2.9383 -30.5656,-3.7109 -1.69,-0.072 -3.2482,-0.1034 -4.685,-0.097 z" fill="#FFFFFF" paint-order="markers stroke fill" transform="translate(595.1543,29.8768) translate(-8258.5762,-3444.9646)"/>
    <path d="m 8019.9681,3415.0878 c -2.8949,0.013 -16.5251,10.4001 -35.4955,27.2939 -18.6487,16.6066 -66.7017,63.7836 -81.083,79.605 -8.4162,9.2589 -14.4209,14.9903 -15.7055,14.9903 -1.1437,0 -2.361,0.7354 -2.7062,1.635 -0.3452,0.8993 -1.5006,1.6356 -2.5668,1.6356 -1.0661,0 -2.7212,1.1955 -3.6789,2.6572 -1.9549,2.9837 -17.1373,14.4975 -34.7922,26.3844 -8.8838,5.9814 -14.0041,8.5996 -20.9687,10.7239 -14.0753,4.2934 -18.1276,4.8923 -38.1661,5.642 l -18.5596,0.694 -1.2971,-2.8468 c -1.9034,-4.1775 -9.7242,-9.4589 -14.0064,-9.4589 -1.9697,0 -4.8623,-0.4873 -6.4291,-1.0831 -5.9788,-2.2729 -14.5629,4.0221 -25.8604,18.9658 -3.67,4.8544 -8.7447,13.1721 -11.2779,18.4831 l -4.6069,9.6567 -1.3808,-4.2054 c -1.8943,-5.7699 -5.9424,-11.9687 -9.218,-14.1149 -2.4815,-1.6265 -2.9652,-1.6346 -5.3222,-0.09 -1.5306,1.0028 -2.882,3.2452 -3.3001,5.4736 -0.8804,4.6939 0.8981,24.2967 3.7745,41.5912 5.0556,30.3961 8.9303,41.3206 16.2905,45.9264 4.7319,2.9611 6.0999,4.2737 16.6734,16.0016 l 8.4976,9.4253 -3.592,3.2246 c -3.4945,3.1385 -3.5998,3.1616 -3.9243,0.8454 -0.9833,-7.0211 -2.6573,-9.7058 -7.3437,-11.7791 -10.2014,-4.5124 -31.0002,-5.0384 -40.2911,-1.0185 -7.0793,3.0631 -7.5012,4.0955 -6.7459,16.4925 0.5865,9.63 0.4134,11.3224 -1.4696,14.4105 -3.8974,6.3923 -1.9282,12.9737 4.5635,15.2528 1.072,0.3761 2.1018,2.4224 2.5477,5.0612 0.8721,5.1617 3.848,7.7155 12.024,10.3203 7.4428,2.3715 20.7287,1.7984 25.722,-1.1095 5.0875,-2.963 6.2844,-6.0471 7.6383,-19.682 1.5615,-15.7249 1.7903,-16.7008 3.9114,-16.7008 0.9991,0 4.1444,-1.9623 6.9887,-4.361 2.8444,-2.3984 5.4171,-4.3609 5.72,-4.3609 0.3013,0 4.2952,4.4165 8.8744,9.8143 9.3981,11.0757 11.4889,12.6257 14.7149,10.8991 3.8279,-2.0485 2.4009,-5.174 -7.0854,-15.5153 -5.0968,-5.5561 -9.2671,-10.3971 -9.2671,-10.7575 0,-0.3603 4.9059,-4.4328 10.9017,-9.0506 5.9961,-4.6178 10.9021,-8.7945 10.9021,-9.2816 0,-0.4873 2.1881,-1.7222 4.8623,-2.7435 4.6339,-1.7698 9.31,-6.9881 9.31,-10.3896 0,-0.7349 1.5861,-3.9874 3.5243,-7.2279 2.8413,-4.7504 4.2245,-6.0238 7.1371,-6.5702 1.9871,-0.3708 3.8628,-0.4263 4.1687,-0.1204 0.589,0.5887 -5.7145,11.2752 -12.8948,21.8622 -2.7318,4.0276 -4.8558,6.1378 -5.811,5.7713 -1.8631,-0.7154 -2.883,0.7625 -2.0397,2.96 0.9574,2.4951 3.7706,3.1369 6.3417,1.4459 1.2646,-0.8319 6.1811,-8.6564 10.925,-17.3871 5.8887,-10.8385 9.3464,-16.0775 10.9011,-16.5142 4.1911,-1.1786 26.8061,-2.0642 26.8061,-1.0516 0,0.5417 -5.2262,7.1166 -11.6138,14.6115 -12.4268,14.5806 -40.1336,50.9499 -42.0966,55.2581 -0.9453,2.0751 -0.8236,2.9641 0.5994,4.3868 1.5307,1.545 4.3106,1.746 19.5296,1.5142 17.936,-0.2735 20.499,-0.8325 20.499,-4.4695 0,-3.6184 -3.0844,-4.7101 -14.7753,-5.2302 -6.264,-0.2785 -11.389,-0.714 -11.389,-0.9674 0,-1.3959 22.3728,-31.9764 32.0993,-43.8759 13.5593,-16.5879 16.3928,-21.4494 14.8575,-25.4878 -1.5491,-4.0749 -7.9592,-5.5415 -20.4488,-4.6793 l -10.0124,0.6909 8.3773,-13.625 c 4.6079,-7.4938 8.713,-13.6447 9.1225,-13.6447 0.4092,-0.01 1.0515,0.9496 1.4273,2.1332 1.2658,3.9883 7.0216,7.0432 13.0999,6.9572 7.7735,-0.1125 9.9628,-1.6738 13.6576,-9.741 2.2781,-4.9741 4.06,-7.3692 6.0446,-8.1235 3.2232,-1.2253 3.0395,-3.2901 -0.4315,-4.8581 -1.3103,-0.5918 -2.3823,-1.4336 -2.3823,-1.8702 0,-1.6778 -7.1899,-8.879 -10.0769,-10.0929 l -3.0319,-1.2749 9.6739,-12.4664 c 16.2142,-20.895 31.0209,-37.5049 33.7855,-37.8995 6.3772,-0.9104 12.9499,-7.948 13.8266,-14.8042 0.2232,-1.7437 0.8265,-3.4605 1.3404,-3.8153 0.5139,-0.3547 7.2531,-8.0035 14.9764,-16.9974 33.7568,-39.3126 60.2042,-66.4666 88.131,-90.4865 6.9025,-5.9367 10.961,-9.3413 13.2721,-11.0184 0.4239,-0.3821 1.2536,-0.994 2.1699,-1.6418 -0.1568,3.6851 -0.061,8.6781 -0.1649,12.3801 -0.6123,19.9611 0.071,103.781 0.8558,104.9704 0.4302,0.6523 -0.049,2.1603 -1.0645,3.3512 -1.3925,1.6328 -1.5722,2.7324 -0.7333,4.4726 0.709,1.456 0.8216,4.9721 0.3126,9.5353 -1.8642,16.7124 -0.6582,20.8579 6.0095,20.6608 4.5821,-0.1355 7.9436,-3.4796 7.8166,-7.7763 -0.052,-1.749 0.1786,-3.9579 0.5116,-4.9082 0.4199,-1.1993 -0.3463,-2.0578 -2.5048,-2.8061 -2.5764,-0.8934 -3.3393,-0.7442 -4.4478,0.8703 -1.7965,2.6168 -1.6208,4.8119 0.3814,4.7527 0.8989,-0.027 1.6538,0.5893 1.6769,1.3683 0.06,2.0378 -2.1694,4.0997 -4.5078,4.1688 -1.8725,0.055 -1.9825,-0.7129 -1.6024,-11.1322 0.2248,-6.1552 0.72,-11.6908 1.1007,-12.302 0.1588,-0.2549 3.4876,-3.0479 0.233,-9.5762 0,-8.0556 -0.1566,-20.4128 -0.448,-34.045 -1.0675,-50.0371 -1.0185,-85.3696 0.1214,-88.0742 0.3427,-0.8125 0.219,-1.4764 -0.085,-1.8205 -0.075,-0.1956 -0.2477,-0.2969 -0.5271,-0.2956 z m -237.3582,88.5077 v 0 c -0.3718,0 -0.7459,-9e-4 -1.1209,0 v -5e-4 c -3.5995,0.053 -7.3372,0.4892 -11.0567,1.3167 -11.7553,2.6153 -13.7722,4.6101 -14.8817,14.7185 -0.8542,7.7804 -1.0609,8.2124 -6.6182,13.8394 -5.7801,5.8528 -6.6723,9.2267 -2.4593,9.3007 1.5395,0.027 1.3167,0.5069 -1.0599,2.28 -3.9983,2.9826 -4.178,7.5365 -0.2982,7.5365 2.4776,0 2.6076,0.2307 1.4981,2.666 -1.4868,3.263 -0.4347,6.5554 1.818,5.6911 1.269,-0.4866 1.5696,0.1605 1.3586,2.896 -0.2337,3.012 0.1216,3.5775 2.4531,3.9067 1.4994,0.212 4.6334,2.1081 6.9649,4.2137 2.331,2.1062 6.276,4.7637 8.7664,5.9051 v 5e-4 c 3.6024,1.6501 6.5713,2.0129 14.5231,1.774 5.7784,-0.1744 10.6697,-0.8611 11.5936,-1.6278 0.879,-0.73 1.8519,-1.072 2.1622,-0.7617 1.3091,1.309 3.216,-2.6978 2.1719,-4.5635 -1.4306,-2.5562 2.753,-11.3435 5.4002,-11.3435 5.1936,0 7.608,-4.607 3.1554,-6.0203 -1.7992,-0.5708 -2.189,-1.6559 -2.189,-6.0937 0,-5.3272 0.047,-5.4018 3.5574,-5.5692 1.9565,-0.095 4.6652,-0.077 6.0198,0.041 2.0084,0.1727 2.4624,-0.344 2.4624,-2.7994 0,-2.2297 -1.5613,-4.4871 -6.0198,-8.7033 l -6.0198,-5.6927 v -6.7339 c 0,-8.462 -1.178,-10.6435 -7.1799,-13.2984 -4.2272,-1.8699 -9.4266,-2.8423 -15.0033,-2.8831 z m -0.036,5.347 v 10e-4 c 0.4648,0 0.9259,0.01 1.3818,0.017 4.3759,0.09 8.2612,0.5151 10.1746,1.3151 4.2382,1.772 5.5127,3.8394 6.5737,10.6661 l 0.6088,3.916 -16.5923,0.2263 h -5e-4 c -9.1257,0.1251 -18.1373,0.5003 -20.0246,0.8341 -1.8876,0.3338 -3.6585,0.1937 -3.9347,-0.3121 -0.2761,-0.5055 -0.2093,-3.6233 0.1489,-6.9283 0.5759,-5.3143 1.0309,-6.1915 3.9346,-7.5799 2.9642,-1.4173 10.7577,-2.1886 17.7297,-2.1554 z m 129.2577,10.9342 c 0.3595,0.079 -2.2977,3.6424 -7.9685,10.8309 h -0.015 c -4.1388,5.2467 -7.9628,9.5394 -8.4971,9.5394 -2.4951,0 -0.1288,-3.4974 8.4811,-12.5372 5.0165,-5.2596 7.6823,-7.9028 7.9995,-7.8331 z m -130.8431,9.2759 c 12.2411,-0.048 21.6171,0.345 21.6178,0.9064 3e-4,0.5451 1.2315,2.6053 2.7362,4.5786 1.5048,1.9731 2.7363,3.8662 2.7368,4.208 -8e-4,0.3333 -0.3702,0.5049 -0.8211,0.3653 -0.4515,-0.14 -13.5164,-0.3952 -29.0324,-0.5658 l -28.2112,-0.3116 4.6783,-4.5486 4.6788,-4.5486 z m 12.41,14.6896 v 10e-4 h 7.211 l -0.7416,4.3873 c -1.5032,8.8982 -4.7506,15.7632 -9.4707,20.0195 -4.0722,3.6722 -4.7315,3.9404 -5.6498,2.2996 -0.9389,-1.6777 -1.238,-1.6027 -3.0748,0.7679 l -2.035,2.6257 0.7235,-3.8308 c 0.658,-3.4846 0.5579,-3.6955 -1.1033,-2.3291 -1.0045,0.8263 -1.8262,2.4271 -1.8262,3.5574 0,3.6384 -7.0782,1.7124 -13.5925,-3.6984 -2.2997,-1.9102 -2.9793,-3.2125 -2.4267,-4.6525 0.5848,-1.5243 1.0711,-1.6962 2.0448,-0.7224 1.9227,1.9224 2.6356,1.5857 4.0928,-1.9327 0.8947,-2.1595 1.8695,-3.0026 2.9797,-2.5766 2.0504,0.7869 3.5708,-1.4922 3.6018,-5.3676 0.01,-1.6199 0.5416,-3.2706 1.1839,-3.6675 0.6936,-0.4281 1.0259,0.056 0.8212,1.1901 -0.5707,3.144 2.1308,3.0455 3.7997,-0.1395 1.0379,-1.9803 1.8178,-2.529 2.357,-1.6568 0.9993,1.617 3.8943,-0.4399 3.8943,-2.7672 0,-1.1281 1.8162,-1.5074 7.2109,-1.5074 z m 224.9631,0.218 c 0.6348,-0.019 1.1682,0.4561 1.1859,1.0553 0.018,0.5997 -0.1824,1.0959 -0.448,1.1038 -0.2645,0.01 -0.7979,-0.4672 -1.186,-1.0558 -0.3881,-0.5883 -0.1864,-1.0845 0.4481,-1.1033 z m -222.8702,3.0334 c -0.6019,-0.019 -1.2529,1.2665 -1.4515,2.8557 -0.2498,2.0189 0.08,2.7436 1.0945,2.4055 1.6788,-0.5596 1.9943,-5.2112 0.357,-5.2612 z m -19.8783,9.9503 c -0.064,0 -0.1316,4e-4 -0.2021,0.021 -0.5656,0.1331 -1.336,0.8746 -2.1564,2.1885 -1.0041,1.6071 -1.0839,2.6808 -0.2729,3.6582 0.633,0.7609 0.8446,1.6861 0.4744,2.0562 -0.3706,0.37 -0.3848,1.4247 -0.032,2.3435 0.3553,0.926 1.3619,1.3939 2.2577,1.0501 2.0455,-0.7855 3.6078,-7.2973 1.8867,-7.8714 -0.6773,-0.2255 -1.2314,-1.1081 -1.2314,-1.9606 0,-0.9811 -0.2761,-1.4682 -0.724,-1.4857 z m 92.5618,3.5699 c 0.037,0 0.055,0.02 0.055,0.052 0,1.424 -10.2616,11.1978 -11.757,11.1978 -0.7288,0 -1.3291,0.6128 -1.3291,1.3622 0,0.7494 -3.0004,4.797 -6.6621,8.9943 -10.6249,12.1789 -29.8235,35.8974 -34.8036,42.9968 -4.9486,7.0548 -4.4371,6.788 -21.9092,11.4407 -5.7773,1.5387 -11.2578,2.7967 -12.1796,2.7967 -2.1811,0 -7.9044,-6.7397 -12.915,-15.2099 l -3.9832,-6.734 2.6406,-6.4967 c 1.4521,-3.5736 2.9325,-9.306 3.2903,-12.7393 l -0.3907,-6.3221 14.0699,0.4449 c 15.9834,0.4481 28.8401,-1.1543 41.9319,-5.226 10.9657,-3.4104 17.4214,-7.1468 33.3674,-19.3151 5.4807,-4.1823 10.0272,-7.2875 10.5741,-7.2414 z m -1.2005,9.0687 c 0.2997,0 -0.6066,1.2259 -2.0148,2.7248 -1.4083,1.4991 -2.806,2.7255 -3.1058,2.7255 -0.2997,0 0.6072,-1.2264 2.0154,-2.7255 1.4082,-1.4989 2.8054,-2.7248 3.1052,-2.7248 z m -123.5552,6.5406 c 6.171,0 12.038,3.0019 15.4275,7.8926 2.5902,3.7377 3.0809,5.5309 3.0349,11.0928 -0.052,6.294 -2.0361,13.6284 -3.3347,12.3295 -0.3319,-0.3316 -0.072,-1.5936 0.5757,-2.805 0.6484,-1.211 1.1787,-4.8948 1.1787,-8.186 0,-4.7785 -0.5445,-6.6308 -2.7021,-9.1948 -3.5189,-4.1821 -9.6812,-5.2863 -15.813,-2.8329 -6.2869,2.5158 -8.74,6.0823 -8.74,12.7082 0,9.6707 6.0433,15.7774 14.6218,14.7759 3.1194,-0.3641 3.9691,-4e-4 4.9305,2.1099 1.6706,3.6667 1.5286,4.74 -2.2252,16.8228 -2.9095,9.3685 -3.2832,11.8683 -2.65,17.7813 0.6103,5.7 0.3633,7.6121 -1.4402,11.1477 -2.5455,4.989 -9.2243,11.3182 -15.0952,14.305 -9.0885,4.6234 -11.8222,5.4164 -14.2157,4.1243 -3.5093,-1.8947 -6.7837,-6.652 -9.0857,-13.2012 -2.6777,-7.6195 -2.9167,-28.5031 -0.4367,-38.2199 2.4358,-9.5444 10.1965,-24.8982 17.6108,-34.8423 8.6475,-11.5985 13.5359,-15.8079 18.3586,-15.8079 z m 114.7423,3.4236 c 0.4085,0.1642 -1.7685,3.2301 -10.3983,15.0601 -5.0103,6.8682 -9.468,13.1281 -9.9069,13.9118 -0.4385,0.7837 -2.4302,1.8932 -4.4256,2.4655 -3.3594,0.9636 -3.5117,0.902 -2.0577,-0.83 17.8669,-21.2815 25.1241,-29.7019 26.1405,-30.3299 0.3221,-0.1991 0.5537,-0.3154 0.648,-0.2775 z m -110.2082,6.4864 c 4.1477,0.024 7.5218,3.3992 8.6072,9.1845 0.687,3.6617 -0.1519,8.1799 -1.511,8.1369 -0.4091,-0.013 -2.6698,-2.7113 -5.023,-5.996 -5.011,-6.9945 -7.7682,-7.9091 -6.8538,-2.2737 0.3304,2.0344 1.8662,5.7036 3.4132,8.1545 1.5473,2.4509 2.8133,4.6589 2.8133,4.9062 0,1.3004 -3.2434,1.3698 -6.1857,0.1328 -4.5681,-1.921 -6.8962,-5.6171 -6.8962,-10.9487 0,-4.6122 2.0479,-7.4702 7.2869,-10.1684 1.4984,-0.7717 2.9666,-1.136 4.3491,-1.1281 z m -60.308,18.2516 c 1.5146,0.1712 3.931,3.2664 6.2084,8.1334 3.793,8.1056 5.9016,21.8506 4.9687,32.3902 -1.3684,15.4595 4.1689,32.0397 12.7935,38.3093 6.5026,4.7269 9.6531,5.814 22.7248,7.845 14.362,2.2309 25.3603,2.3094 31.2745,0.2228 3.5158,-1.2392 4.4979,-1.2848 4.4979,-0.2073 0,3.163 -2.9636,5.1342 -9.2666,6.1645 -3.5977,0.5881 -7.7679,1.0083 -9.2666,0.9343 -14.9042,-0.7389 -41.442,-6.4824 -47.0255,-10.1771 -4.8008,-3.1772 -4.6151,-2.4816 -10.787,-40.3691 -2.442,-14.99 -5.0948,-30.6885 -5.8952,-34.8858 -0.8004,-4.1972 -1.2886,-7.8162 -1.0816,-8.0387 0.1629,-0.1775 0.3521,-0.2812 0.5638,-0.3153 v -10e-4 c 0.093,-0.015 0.1899,-0.017 0.2909,-0.01 z m 149.8798,11.1456 c 2.1283,0.068 4.3416,0.8563 6.7205,2.3601 3.7433,2.3662 3.7643,2.4189 1.0903,2.7838 -1.4988,0.2046 -6.2617,1.0796 -10.5838,1.9446 -4.3217,0.8649 -8.1235,1.5725 -8.4486,1.5725 -1.6048,0 -0.2009,-2.2968 3.2623,-5.3377 2.6271,-2.3065 5.223,-3.4105 7.9593,-3.3233 z m -17.5928,10.2221 c 0.3744,0.1126 0.4156,0.6879 -0.171,1.6371 h 5e-4 c -0.3952,0.6393 -1.2403,1.1627 -1.8779,1.1627 -0.7234,0 -0.641,-0.6255 0.2191,-1.6614 0.7472,-0.9009 1.4549,-1.251 1.8293,-1.1384 z m 28.9466,1.7265 c 1.0492,-0.01 1.9079,0.4738 1.9079,1.0733 h 5e-4 c 0,1.3298 -0.123,1.3298 -2.1802,0 -1.3984,-0.9033 -1.3586,-1.0733 0.2718,-1.0733 z m 14.3428,0.2739 c -0.322,0.015 -0.4429,0.5607 -0.4429,1.7136 0,4.8846 -4.2898,11.0579 -10.3999,14.9665 -3.2739,2.0943 -5.9531,4.2835 -5.9531,4.8648 0,3.2071 8.598,-0.1183 13.2219,-5.1144 5.2702,-5.6941 7.2868,-13.0029 4.3884,-15.9013 -0.3557,-0.3562 -0.6211,-0.5382 -0.8144,-0.5292 z m -104.1642,0.8087 c 0.3841,0.01 2.614,2.9829 4.9552,6.6167 7.6958,11.9436 13.2386,13.8387 28.7213,9.817 4.3471,-1.1289 7.9044,-1.8332 7.9044,-1.5674 0,0.267 -2.3808,4.0202 -5.2906,8.3401 -2.9098,4.3202 -6.1222,9.4704 -7.1386,11.4448 -1.0164,1.9744 -2.9286,3.9878 -4.2488,4.4736 -7.3929,2.7217 -8.2145,2.5635 -10.557,-2.0283 -1.7333,-3.3971 -3.6973,-5.0822 -8.9834,-7.705 -8.6185,-4.2759 -9.1665,-4.7635 -9.9907,-8.8837 -0.6782,-3.3919 3.1887,-20.5388 4.6282,-20.5078 z m 64.9056,8.1293 c 0.3898,-0.1556 1.9485,0.3853 4.5072,1.6898 2.3344,1.1901 4.8476,2.1637 5.5847,2.1637 0.7372,0 1.6438,0.4908 2.0143,1.0903 1.543,2.4967 -4.8754,0.8555 -9.602,-2.4551 -2.1153,-1.4815 -2.8941,-2.3332 -2.5042,-2.4887 z m 43.8955,3.5289 c -0.4657,-0.032 -1.4521,0.9341 -3.3993,3.1394 -2.0736,2.3482 -3.7842,4.6379 -3.8152,5.0875 -0.025,0.45 0.6545,0.8176 1.5105,0.8176 2.0987,0 6.0756,-5.2101 6.0756,-7.9598 0,-0.6864 -0.092,-1.0654 -0.3716,-1.0847 z m -56.9893,0.3246 c 2.34,0 2.2611,0.423 -1.2371,6.6518 -1.6489,2.9358 -3.2437,5.2806 -3.5435,5.2126 -3.3993,-0.7818 -4.3604,-1.3248 -4.3604,-2.4645 0,-2.0507 7.1468,-9.3999 9.141,-9.3999 z m -11.2944,13.2994 c 0.7418,-0.062 1.5173,0.4195 2.6541,1.2506 1.9333,1.4138 1.9134,1.635 -0.5374,5.996 -1.3999,2.4905 -3.3132,4.5434 -4.252,4.5434 -0.9392,0.01 -2.8112,0.3105 -4.1604,0.6718 -3.2473,0.8702 -3.1245,0.2589 1.3492,-6.735 2.5667,-4.0125 3.71,-5.6238 4.9465,-5.7268 z m -47.8012,6.3459 5.0819,2.8763 c 8.9416,5.061 9.9864,5.8423 9.9864,7.4678 0,0.9784 -1.8826,2.0687 -4.8725,2.8215 -9.218,2.3214 -8.9297,6.9231 0.4129,6.5924 3.0525,-0.1078 5.55,0.09 5.55,0.4402 0,2.314 -2.7384,4.8407 -5.7366,5.2938 -12.1009,1.8282 -31.1158,0.8846 -36.2365,-1.7984 l -3.0474,-1.5968 5.0767,-1.7296 c 7.5375,-2.5683 17.8669,-10.2685 21.0416,-15.6858 z m 26.0873,17.4211 c 2.3715,0 2.492,0.4324 0.9348,3.3425 -1.2114,2.2633 -2.7264,2.7187 -3.7165,1.1167 -1.0671,-1.7271 0.637,-4.4592 2.7817,-4.4592 z m -55.6162,23.148 c 0.4162,-0.019 1.1286,0.1037 2.0799,0.2687 2.0986,0.364 7.0047,0.9121 10.9022,1.218 3.8975,0.306 8.7853,0.817 10.8614,1.1359 l 3.7749,0.5798 -2.6851,2.0624 c -1.4768,1.1345 -4.6754,3.5078 -7.1081,5.2746 l -4.4224,3.2127 -7.5691,-7.0729 c -5.6608,-5.2895 -7.0821,-6.622 -5.8337,-6.6792 z m -32.3242,11.9884 v 5e-4 c 1.2596,0 2.557,0.027 3.8789,0.089 11.671,0.5492 17.5215,2.1965 15.3876,4.3331 -0.8908,0.8918 -6.3581,1.3848 -16.8025,1.5177 -16.4128,0.2067 -19.6719,-0.1651 -19.0035,-2.1704 0.7461,-2.2379 7.7225,-3.7581 16.5395,-3.7698 z m 23.3469,10.8614 h 5e-4 6e-4 c 0.9229,-0.042 0.7724,0.863 0.042,4.1175 -0.5603,2.4929 -1.7402,11.7083 -2.6215,20.4779 -0.8817,8.7695 -2.0076,16.321 -2.4696,16.8124 -1.2359,1.3139 -3.4683,1.7216 -6.6777,2.3264 -4.3365,0.8174 -9.1311,0.6363 -15.6399,-0.2594 -6.1136,-0.8526 -6.8883,-1.5348 -7.6775,-6.7649 -0.5693,-3.7711 -0.3435,-4.1275 4.6943,-7.3918 6.282,-4.0705 10.0492,-8.3324 13.6565,-15.4518 3.0927,-6.103 2.5909,-8.8938 -1.5121,-8.4114 -2.1484,0.2524 -2.9781,1.1115 -3.484,3.607 -0.3653,1.8015 -2.0303,5.3412 -3.701,7.8657 -3.0003,4.5338 -10.0914,10.8187 -11.0852,9.8252 -0.8282,-0.8282 -5.6785,-24.6262 -5.1309,-25.1741 0.2744,-0.2744 2.0531,-0.053 3.9527,0.4914 1.8996,0.5448 8.6089,0.9953 14.9087,0.9643 10.3745,-0.023 14.1819,-0.5078 21.4457,-2.7285 0.5641,-0.1724 0.9909,-0.2917 1.2986,-0.3059 z m -45.0561,17.4061 c 0.3117,-0.066 0.5322,0.2661 0.5612,1.1255 0.026,0.7849 0.4529,3.5227 0.9482,6.0839 1.034,5.3472 0.1297,6.5701 -2.6148,3.5373 -1.4255,-1.5742 -1.7281,-3.0825 -1.1937,-5.932 0.488,-2.6023 1.6134,-4.6701 2.2991,-4.8147 z m 82.6068,11.0975 c -12.9378,0.1152 -26.5971,1.8158 -29.4721,4.6907 -3.2556,3.2563 -3.1943,8.1519 0.1514,12.0417 2.4502,2.8485 3.3318,3.093 13.3542,3.6969 h 5e-4 c 19.4421,1.1718 29.2549,1.0266 35.2181,-0.5204 3.2362,-0.8378 6.5201,-1.2827 7.2982,-0.9829 0.7896,0.3028 1.9683,-0.6721 2.6676,-2.2066 1.0421,-2.2875 0.8448,-3.592 -1.1715,-7.7571 -1.3328,-2.7537 -3.3941,-5.5267 -4.5801,-6.1614 -3.7771,-2.0214 -13.4035,-2.8906 -23.4663,-2.8009 z m -12.7341,3.992 c 3.0705,0 3.0288,-0.2182 0.9235,4.8209 -1.6233,3.8848 -1.4058,6.0813 0.602,6.0813 0.5411,0 1.5233,-2.0032 2.1828,-4.4519 0.8844,-3.2847 1.6336,-4.2852 2.8567,-3.8158 0.9117,0.3489 1.8715,0.6361 2.1342,0.6361 0.2627,0 0.1692,1.2267 -0.2072,2.7255 -0.5021,2.0007 -0.2486,2.7259 0.9529,2.7259 2.8344,0 4.2208,-6.9411 1.5978,-7.9995 -0.7494,-0.3025 1.9487,-0.5902 5.996,-0.6362 4.0473,-0.047 7.3588,0.3444 7.3588,0.8703 0,0.5269 -2.2078,0.706 -4.9062,0.4031 -3.2463,-0.3659 -4.9056,-0.1363 -4.9056,0.679 0,0.6777 1.0201,1.2319 2.267,1.2319 1.9518,0 2.1672,0.4553 1.5488,3.2706 -0.5742,2.6129 -0.353,3.2707 1.0981,3.2707 1.0173,0 2.3599,-1.439 3.0515,-3.2707 1.4676,-3.8883 4.8025,-4.4086 5.3133,-0.8288 0.1938,1.3585 1.2665,2.6171 2.4169,2.8365 1.81,0.3452 1.989,-0.096 1.4315,-3.5321 -0.3504,-2.1595 -0.271,-3.9264 0.1762,-3.9264 1.8143,0 4.423,2.9001 5.0865,5.6545 0.6462,2.683 0.3542,3.0182 -3.483,3.9925 h -5e-4 c -5.4091,1.3724 -19.2811,1.9466 -30.3537,1.2547 -8.5262,-0.5328 -8.7143,-0.6056 -8.4393,-3.2701 0.5591,-5.3965 2.5803,-8.722 5.301,-8.722 z m -7.228,1.0904 c 2.1733,0 2.211,0.1471 0.617,2.4231 -0.9335,1.3325 -1.697,3.5401 -1.697,4.9057 0,3.0588 -2.7579,3.2973 -4.3222,0.3741 -2.3903,-4.4667 -0.1211,-7.7029 5.4022,-7.7029 z" fill="#00B894" transform="translate(595.1543,29.8768) translate(-8258.5762,-3444.9646)"/>
</svg>