<?xml version="1.0" ?><svg height="41.81369mm" viewBox="0 0 143.00092 41.81369" width="143.00092mm" xmlns="http://www.w3.org/2000/svg">
    <path color="#000" d="m 1539.3625,151.43722 133.5205,-15.91169 7.3427,-18.78104 163.1811,-5.47779 12.8497,-20.085273 c 0,0 110.3566,-5.807803 132.7476,-15.303058 35.771,-15.169273 87.0935,134.508141 26.6655,131.901931 -78.0652,-3.36688 -150.4958,-4.08679 -150.4958,-4.08679 l -174.8991,-9.07189 -144.8255,3.85512 c 0,0 -33.703,60.29381 -31.3997,-25.12832 2.2421,-83.147131 25.313,-21.9112 25.313,-21.9112 z" fill="#FFFFFF" overflow="visible" paint-order="fill markers stroke" transform="translate(-87.781903,46.790229) matrix(0.26458333,0,0,0.26458333,-311.05683,-64.84538)"/>
    <path d="m 1525.986,225.37237 c -1.2441,-0.46773 -3.3096,-1.21429 -4.5901,-1.65904 -1.2805,-0.44466 -3.2921,-2.68332 -4.4704,-4.97465 -1.1781,-2.29133 -2.6371,-4.83469 -3.2423,-5.65174 -9.8711,-13.3293 -7.5866,-68.55859 3.457,-83.57654 7.6726,-10.43375 23.1266,-2.23747 21.5842,11.44751 -0.521,4.62135 -0.3552,5.22659 1.2476,4.55502 5.1797,-2.17012 38.6017,-8.21579 49.9167,-9.02945 4.0434,-0.29061 10.9144,-1.00706 15.2688,-1.59185 4.3544,-0.58488 14.7881,-1.37555 23.1859,-1.75719 38.6349,-1.75523 42.5788,-2.47388 43.1745,-7.86783 3.5041,-7.97352 4.8905,-13.73547 13.9817,-14.69153 3.7106,-0.37171 8.7823,-0.90875 11.2705,-1.19334 4.8891,-0.55918 13.6835,-1.23991 28.841,-2.23264 8.951,-0.58615 96.2118,-2.17733 101.2264,-1.84565 8.0333,0.53118 12.1792,-1.65565 15.0904,-6.054759 1.7455,-4.201084 7.7557,-12.595471 9.2046,-13.598876 1.7741,-1.096468 15.1004,-3.864019 22.0769,-4.58496 3.1104,-0.321323 7.691,-0.821884 10.1792,-1.112245 2.4882,-0.290446 11.6495,-1.094602 20.3584,-1.787211 8.7089,-0.692524 18.1246,-1.460713 20.9239,-1.707049 2.7993,-0.246336 10.1792,-0.699141 16.3998,-1.006213 13.0853,-0.645784 33.2025,-2.588736 34.3875,-3.320959 0.4461,-0.275771 3.5795,-0.608206 6.9632,-0.738839 3.3836,-0.130633 7.5265,-0.923676 9.2062,-1.762187 4.9403,-2.466332 8.1357,-1.808502 15.7616,3.244955 20.3441,13.635247 29.3994,35.318063 36.4968,56.305403 4.2478,12.8547 5.2578,33.02577 2.3787,47.50287 -2.8806,19.21013 -11.6908,41.64322 -34.0048,36.61156 -2.7615,-1.80952 -4.736,-1.92938 -63.2721,-3.84417 -34.4951,-1.12845 -47.1291,-0.99553 -71.2543,0.74961 -13.9872,1.01181 -15.5596,0.80305 -18.3791,-2.44029 -6.6354,-5.5845 -5.5049,-4.05033 -5.5049,-4.05033 -5.7573,1.30171 -11.9269,2.54457 -84.536,2.17558 -62.887,-0.31954 -69.476,0.30602 -72.1445,0.56516 -5.4109,0.52546 -10.8011,-4.00315 -12.8943,-7.82888 -1.0773,-2.93335 -0.5712,-2.90139 -4.7267,-2.26637 -15.903,2.42994 -61.9954,4.27067 -108.5287,4.33412 -22.8278,0.0305 -22.8278,0.0305 -23.5657,4.69515 -2.4388,15.41409 -11.4115,23.76848 -21.4676,19.98785 z m 8.3436,-15.23994 c 2.1359,-8.48265 1.6432,-12.45211 -2.0346,-16.38916 -7.7726,-8.32064 -9.566,-43.0734 -2.2227,-43.0734 4.7585,0 1.0457,-15.58433 -3.7638,-15.79826 -6.1582,-0.27399 -10.2746,49.35106 -5.3403,64.38148 5.2915,16.11874 10.8935,20.68003 13.3614,10.87934 z m 457.3908,-10.74684 c 0.4868,-0.045 -1.1674,-2.80013 -3.6758,-6.12244 -10.1664,-13.32566 -16.0249,-30.03331 -19.3582,-44.47761 -4.995,-21.64568 0.8448,-53.316798 8.7602,-61.232132 2.1342,-2.134236 1.881,-3.996773 -0.4232,-3.112711 -2.0141,0.77294 -21.7009,2.784517 -33.6145,3.434712 -24.057,1.312861 -30.9044,1.765665 -43.055,2.84644 -23.461,1.368898 -41.066,5.691815 -43.067,14.780431 -16.3757,33.15391 -10.3396,65.9935 8.547,88.30902 2.9684,3.55559 2.9684,3.55559 49.2818,3.94876 25.4723,0.21622 51.1484,0.7793 57.0581,1.2511 9.0523,0.72298 14.6226,0.82961 19.5466,0.37443 z m 25.6891,-3.57444 c 4.7448,-5.46317 3.4245,-9.36924 -1.7023,-6.00994 -1.8739,1.22778 -4.5825,1.68134 -8.4437,1.41372 -2.4069,0.2632 -11.7943,-7.96718 -11.6383,-7.54745 -0.7083,2.11866 9.9519,17.35915 17.1489,15.22357 0.247,-0.7061 2.8607,-1.0366 4.6354,-3.0799 z m 11.9697,0.6816 c 9.4131,-8.72365 11.1961,-47.6273 3.7278,-68.97497 -5.7162,-16.33931 -17.5193,-37.378619 -30.3957,-43.854179 -5.2757,-2.653143 -8.8504,-0.3153 -14.0277,6.832609 -5.3556,7.394076 -4.8755,7.998719 3.2856,4.137924 5.7272,-2.709445 6.764,-2.88054 9.4364,-1.557246 14.9134,8.693272 17.8116,16.676452 25.4911,35.606532 4.8569,20.38714 7.5109,33.43888 4.8026,49.13095 -1.6637,9.63867 -3.0229,14.90911 -4.663,18.08086 -2.1428,4.14361 -1.6256,4.27551 2.3429,0.59752 z m -187.9642,-4.53379 c 3.8073,-1.49091 5.927,-1.12245 2.3879,-5.76246 -9.6393,-15.20736 -9.8416,-40.17818 -7.8293,-55.31946 0.8028,-5.59855 1.4931,-11.13781 1.5341,-12.30943 -31.298,-2.01973 -69.5318,-0.719 -90.9726,-0.0149 -13.0633,0.43499 -24.5149,0.75445 -25.448,0.70991 -3.4122,-0.16278 -35.5057,3.27295 -36.5392,3.91161 -7.7153,25.94296 -1.5302,38.2351 0,45.74862 1.5074,7.07946 9.0983,18.69169 12.7893,23.95869 0,0.2169 23.0108,0.50107 51.135,0.63145 32.5834,0.36973 61.7599,-0.79218 92.9428,-1.554 z m -222.6853,-3.3069 c 56.4729,-1.47259 60.4331,-1.7366 59.4159,-7.68922 -0.3797,-2.22178 -5.5188,-11.08299 -6.1525,-15.12634 -3.3872,-21.61329 2.4868,-23.66124 -4.743,-23.50576 -8.5703,0.18442 -31.0293,1.458 -38.3412,2.17445 -6.1901,0.60651 -15.7277,1.34178 -28.841,2.22356 -10.3542,0.69625 -37.959,4.98025 -41.8478,6.49432 -1.5551,0.6054 -4.3544,1.21751 -6.2206,1.36019 -4.2174,0.32209 -15.0813,2.62335 -16.4873,3.49231 -1.9948,1.23295 0.7975,26.55631 3.1924,28.95122 2.7164,2.7164 22.6531,3.12127 80.0251,1.62527 z m 395.4365,-10.27685 c 4.421,-5.42721 2.9782,-15.36718 8.1886,-12.77503 1.3289,-7.74942 -7.9337,-37.57185 -10.2217,-33.3496 -3.2792,6.5615 -7.0332,10.06108 -14.7056,5.43472 -3.101,-2.31549 -4.071,-3.51971 -6.2548,-5.95999 -8.2595,-9.56004 -1.7099,-21.53772 10.4476,-19.10625 3.9838,0.79669 4.0836,0.40598 1.0018,-3.92213 -3.9105,-5.49192 -8.4445,-7.25004 -10.618,-4.11739 -9.5791,5.23395 -15.2681,23.82803 -10.7011,45.36863 3.7349,17.61576 7.8919,25.81356 12.2548,24.16674 3.0996,-1.17001 3.7575,-1.00002 6.5815,1.70044 7.2415,5.54946 10.4078,7.0016 14.0269,2.55986 z" fill="#00B894" transform="translate(-87.781903,46.790229) matrix(0.26458333,0,0,0.26458333,-311.05683,-64.84538)"/>
</svg>