<?xml version="1.0" ?><svg height="114.28867mm" viewBox="0 0 113.78618 114.28867" width="113.78618mm" xmlns="http://www.w3.org/2000/svg">
    <path color="#000" d="m 11085.401,3935.6058 c -27.36,-0.039 -55.106,37.357 -54.981,42.4171 0.187,7.5315 0.09,82.0929 3.348,115.5659 3.254,33.4731 12.459,53.3893 47.328,54.5609 56.441,-4.8534 88.985,-74.6435 76.712,-104.016 -12.274,-29.3727 -5.763,5.6909 -35.891,-73.5565 -9.884,-26.003 -23.155,-34.9524 -36.516,-34.9714 z m 267.539,52.9033 c -48.11,0.8031 -100.666,42.2184 -115.05,105.2156 -21.664,135.9841 207.729,194.8132 203.545,15.8163 -2.026,-86.7015 -43.301,-121.7862 -88.495,-121.0319 z m 11.636,279.2485 c -6.691,-0.027 -14.007,0.185 -22,0.6322 -85.268,4.77 -88.708,48.7861 -97.561,78.4731 0,0 194.544,46.7991 192.591,-7.2598 -1.771,-48.9907 -8.35,-71.5889 -73.03,-71.8455 z" fill="#FFFFFF" overflow="visible" paint-order="fill markers stroke" transform="translate(177.01851,-11.878066) matrix(0.26458333,0,0,0.26458333,-3093.963,-1028.9161)"/>
    <path d="m 11245.016,4346.8641 c -1.43,-2.3132 -1.502,-16.3292 -0.121,-24.4013 l 1.268,-7.4475 -8.549,3.6199 c -4.704,1.9908 -10.447,4.5542 -12.767,5.696 -5.991,2.95 -32.14,2.7106 -35.8,-0.3277 -1.593,-1.322 -2.895,-1.8878 -2.895,-1.2572 0,2.9095 -27.407,-14.7575 -42.472,-27.3782 -10.283,-8.6137 -24.01,-22.6363 -24.053,-24.5696 -0.01,-0.7226 -1.015,-1.3145 -2.22,-1.3157 -2.527,0 -22.526,-40.4077 -26.439,-53.4174 -3.313,-11.0143 -6.393,-33.1037 -6.427,-46.1027 -0.01,-5.4692 -0.607,-10.8193 -1.314,-11.889 -1.714,-2.59 -11.8,-7.6881 -15.212,-7.6881 -3.475,0 -3.463,-3.4064 0.03,-8.3957 2.208,-3.1508 4.013,-3.7768 9.195,-3.1879 4.098,0.4655 12.433,-1.1754 22.864,-4.5013 23.799,-7.5887 26.739,-11.8107 40.509,-58.1827 4.707,-15.8506 10.095,-31.831 11.973,-35.5119 1.878,-3.6809 3.301,-7.4807 3.163,-8.4439 -0.301,-2.1103 8.249,-3.2915 13.78,-1.9034 5.784,1.4514 6.535,5.4722 2.753,14.7288 -1.839,4.5056 -3.814,10.9506 -4.385,14.3222 -1.23,7.2535 -11.124,39.8304 -13.425,44.2005 -0.88,1.6727 -1.601,4.0735 -1.601,5.3351 0,3.1483 -15.133,27.4475 -19.396,31.146 -3.97,3.4425 -9.839,5.9191 -20.449,8.6283 -4.093,1.0455 -7.441,2.4616 -7.44,3.1471 0,0.6853 0.789,11.5117 1.747,24.0584 2.603,34.1437 7.76,50.3461 23.79,74.7572 10.77,16.4035 16.764,22.8274 33.007,35.3763 18.928,14.6235 26.035,18.7273 36.747,21.2171 7.776,1.8078 10.418,1.6541 19.163,-1.1151 5.579,-1.7667 13.043,-4.704 16.587,-6.5276 3.545,-1.8237 8.715,-4.3955 11.49,-5.7154 2.774,-1.3198 5.844,-4.1536 6.82,-6.2971 0.977,-2.1434 4.814,-6.0033 8.529,-8.5774 3.715,-2.5742 6.754,-5.3245 6.754,-6.1117 0,-2.709 17.183,-9.8118 27.147,-11.2225 2.889,-0.4091 9.195,-1.5291 14.012,-2.4891 66.467,-13.2474 86.882,-13.6012 106.596,-1.8474 7.484,4.4613 18.634,15.2529 18.634,18.0354 0,0.9804 1.1,3.0269 2.444,4.5477 5.16,5.8376 8.064,19.3941 8.268,38.6063 0.238,22.3429 -2.021,29.8612 -8.951,29.7996 -9.478,-0.085 -16.738,-10.6835 -13.559,-19.7988 0.951,-2.7326 1.361,-10.7416 0.907,-17.7976 -0.684,-10.6678 -1.754,-14.2353 -6.351,-21.175 -3.04,-4.5901 -5.527,-8.8061 -5.527,-9.3693 0,-1.9932 -10.304,-5.543 -21.166,-7.2924 -11.34,-1.8262 -32.835,-0.8754 -43.639,1.9301 -3.371,0.8756 -9.75,1.8948 -14.175,2.2647 -4.425,0.3701 -8.759,1.112 -9.633,1.6486 -0.873,0.5364 -4.74,1.4621 -8.593,2.0567 -8.895,1.3729 -24.956,5.7948 -30.65,8.4388 -14.302,6.6399 -21.332,16.9025 -24.652,35.9844 -2.506,14.397 -6.869,23.1041 -11.589,23.1288 -2.11,0.015 -4.236,-0.6263 -4.724,-1.4164 z m 73.038,-119.2543 c -6.924,-1.8047 -17.169,-5.8409 -22.768,-8.9692 -5.601,-3.1282 -12.922,-7.1612 -16.272,-8.9621 -8.716,-4.6854 -25.597,-21.6328 -33.726,-33.858 -14.205,-21.3599 -20.546,-46.7992 -18.563,-74.4758 1.61,-22.4878 1.418,-21.7624 10.783,-40.6308 10.443,-21.0405 20.188,-33.5911 37.566,-48.3774 16.092,-13.6949 17.562,-14.6999 29.889,-20.432 24.661,-11.4696 49.762,-15.4662 66.18,-10.5378 19.815,5.9472 24.372,7.6006 33.181,12.0366 8.584,4.323 27.028,21.7359 27.028,25.5181 0,1.0209 1.38,3.2892 3.064,5.0407 4.96,5.1516 14.123,23.4313 15.989,31.8957 3.728,16.8996 5.369,41.0168 3.631,53.3686 -2.181,15.5125 -11.205,45.1313 -16.542,54.2952 -4.424,7.5946 -18.932,26.2222 -27.775,35.662 -7.949,8.4859 -21.517,18.2489 -34.509,24.8338 -9.967,5.052 -13.239,5.7899 -27.929,6.2982 -12.153,0.4206 -20.032,-0.3088 -29.227,-2.7058 z m 44.942,-19.8704 c 2.382,-1.6821 5.733,-3.0584 7.445,-3.0584 1.71,0 3.113,-0.7351 3.113,-1.6336 0,-0.8984 1.495,-2.1079 3.323,-2.6879 4.125,-1.3093 12.371,-9.1347 24.053,-22.8263 16.407,-19.2277 23.19,-33.527 28.679,-60.4671 3.015,-14.7974 3.228,-19.332 1.683,-35.6632 -2.043,-21.549 -4.607,-30.1767 -13.318,-44.798 -10.819,-18.1637 -18.731,-25.6765 -35.404,-33.6194 -12.578,-5.9928 -17.468,-7.3627 -28.839,-8.08 -7.993,-0.504 -15.286,-0.088 -17.515,1.0014 -2.102,1.0256 -6.974,3.1709 -10.827,4.7674 -3.853,1.5963 -9.37,4.1522 -12.262,5.6799 -8.055,4.2583 -33.648,24.5875 -37.604,29.8683 -1.934,2.5832 -4.153,5.4851 -4.932,6.4484 -3.617,4.4731 -16.275,29.0896 -19.762,38.4291 -3.509,9.4047 -3.776,12.4031 -2.766,31.1646 1.548,28.8061 4.89,38.979 19.527,59.4484 5.816,8.1329 25.26,25.0793 28.788,25.089 0.543,0 3.473,1.7749 6.513,3.9408 3.037,2.1659 6.649,3.9382 8.026,3.9382 1.377,0 3.083,0.591 3.793,1.3135 5.519,5.6218 40.983,6.9033 48.286,1.7449 z m -15.324,-22.3362 c -5.542,-5.1628 -1.46,-13.3254 10.833,-21.6616 6.429,-4.3609 7.039,-4.4652 10.071,-1.7216 6.505,5.8869 2.283,16.6222 -9.41,23.9272 -6.034,3.7695 -6.908,3.7282 -11.494,-0.544 z m -72.302,-47.3412 c -1.215,-0.7503 -3.189,-0.9871 -4.389,-0.5267 -3.192,1.2246 -4.964,-8.8504 -2.305,-13.107 1.937,-3.1025 3.72,-3.4152 16.308,-2.8617 7.772,0.3415 16.635,0.6396 19.692,0.6625 3.895,0.028 5.875,1.0346 6.613,3.3589 1.126,3.5503 -1.558,12.4648 -3.81,12.6475 -12.037,0.9762 -30.41,0.8769 -32.109,-0.1734 z m 99.184,-35.9666 c -1.514,-1.5137 -2.751,-5.3305 -2.751,-8.4814 0,-4.7301 -1.05,-6.294 -6.014,-8.9678 -5.851,-3.1513 -8.567,-7.8051 -6.975,-11.9543 1.703,-4.4379 13.502,-7.5606 33.831,-8.9539 15.008,-1.0289 21.107,2.1814 21.165,11.1418 0.04,5.8854 -4.738,8.8297 -14.422,8.8946 -7.384,0.05 -8.32,0.4889 -8.32,3.9024 0,4.6862 -8.36,17.1709 -11.497,17.1709 -1.245,0 -3.502,-1.2386 -5.017,-2.7523 z m -80.08,-7.1989 c -1.233,-1.4855 -2.011,-5.3713 -1.73,-8.635 0.479,-5.5697 0.18,-5.9343 -4.878,-5.9343 -2.964,0 -5.388,0.7755 -5.388,1.7234 0,0.9478 -3.153,0.081 -7.007,-1.9283 -7.039,-3.6696 -8.868,-8.1567 -5.493,-13.4786 4.26,-6.7195 51.971,-8.6431 58.45,-2.3567 2.568,2.4929 2.749,3.9934 1.172,9.7063 -1.819,6.5865 -2.036,6.7347 -8.57,5.8584 -6.969,-0.935 -10.5,0.9502 -10.568,5.6424 -0.109,7.8105 -11.668,14.6068 -15.988,9.4024 z m -264.206,16.957 c -2.546,-2.5463 -3.504,-5.8382 -3.504,-12.055 0,-4.7037 -0.418,-17.5112 -0.928,-28.4613 -2.586,-55.412 -0.744,-96.0975 4.352,-96.0975 5.392,0 8.544,16.3609 10.625,55.171 4.185,78.0384 4.194,78.7142 0.966,81.9411 -3.937,3.9373 -7.218,3.7953 -11.511,-0.4983 z m 88.988,-15.3252 c -2.472,-2.6492 -5.103,-7.9691 -5.847,-11.8224 -2.039,-10.5683 -2.387,-60.3346 -0.43,-61.5445 0.998,-0.6155 1.438,-11.6849 1.082,-27.1706 -0.667,-29.1173 -0.549,-29.4328 11.01,-29.4816 10.187,-0.042 11.06,4.1428 9.611,46.0964 -0.67,19.4258 -1.513,37.4977 -1.873,40.1597 -0.36,2.6621 -0.03,11.6997 0.735,20.0835 1.435,15.7277 0.217,21.9094 -5.174,26.251 -3.677,2.9626 -4.047,2.8582 -9.114,-2.5715 z m -61.547,-24.9313 c -2.674,-4.5281 -3.076,-9.8073 -3.002,-39.4665 0.04,-18.8316 -0.853,-41.8973 -1.999,-51.2573 -1.145,-9.3599 -2.131,-20.1706 -2.19,-24.0238 l -0.109,-7.0059 6.768,0.2174 c 8.066,0.2592 9.166,1.7316 10.746,14.3874 0.666,5.3281 1.985,11.7094 2.932,14.1803 0.953,2.4864 1.787,24.7044 1.865,49.7539 0.155,48.1919 0.121,48.3512 -8.358,48.415 -2.116,0.015 -4.818,-2.0972 -6.652,-5.2005 z m 29.839,-11.5226 -4.163,-4.4897 0.27,-59.6293 c 0.3,-65.4027 0.08,-64.0772 10.69,-61.2372 4.844,1.2953 5.21,2.0743 7.162,15.251 1.132,7.6373 2.121,22.9498 2.196,34.0278 0.179,26.3946 -3.301,75.5922 -5.546,78.3778 -2.702,3.3553 -6.036,2.6325 -10.609,-2.3004 z" fill="#00B894" transform="translate(177.01851,-11.878066) matrix(0.26458333,0,0,0.26458333,-3093.963,-1028.9161)"/>
</svg>