<?xml version="1.0" ?><svg height="339.19611mm" viewBox="0 0 396.06287 339.19611" width="396.06287mm" xmlns="http://www.w3.org/2000/svg">
    <path d="m 21832.432,18506.209 c -58.697,-1.277 -125.211,79.199 -125.211,79.199 0,0 -30.322,-47.586 -87.709,-43.752 -57.386,3.834 -89.713,76.229 -89.713,76.229 0,0 -22.304,-0.677 -45.108,5.863 -22.805,6.54 -56.634,44.43 -56.634,44.43 0,0 -21.303,-8.797 -45.36,-6.09 -24.057,2.706 -84.699,70.814 -84.699,70.814 0,0 -31.075,-20.071 -58.891,-19.168 -27.816,0.902 -61.154,21.811 -61.154,21.811 0,0 6.884,-2.638 10.078,-62.346 3.194,-59.708 -18.839,-65.238 -42.396,-61.629 -23.556,3.608 -24.309,-11.502 -29.071,-35.183 -4.761,-23.68 -36.335,-47.134 -69.664,-15.334 -33.33,31.799 -12.279,43.075 -32.588,7.586 -20.306,-35.489 -89.201,44.509 -97.972,59.394 -5.034,8.544 -10.734,21.013 -18.084,27.709 l -13.768,3.076 -25.847,-19.433 c -32.556,6.478 -88.899,64.137 -42.149,94.826 19.189,12.597 63.477,9.718 70.348,31.067 24.933,35.059 85.59,45.222 120.574,34.655 l -33.435,48.522 c 0,0 -51.699,-9.717 -57.588,37.545 -5.89,47.262 0.324,132.224 109.037,110.98 108.713,-21.243 122.293,-41.486 122.293,-41.486 0,0 38.772,42.844 87.851,46.231 49.08,3.386 121.391,-23.411 121.391,-23.411 0,0 41.717,44.171 79.672,45.348 1.24,0.04 2.522,0.05 3.832,0.04 -12.062,20.912 -16.631,46.484 4.347,64.008 29.612,24.735 92.048,-15.492 123.325,-12.74 0.483,0.04 0.988,0.06 1.482,0.09 4.79,12.3 21.913,49.088 57.908,56.578 43.353,9.021 80.944,-37.889 80.944,-37.889 0,0 35.835,62.921 100.238,63.147 64.403,0.225 109.887,-55.52 109.887,-55.52 0,0 7.142,22.142 47.488,17.406 40.346,-4.736 44.413,-43.493 123.602,-66.722 79.188,-23.23 93.665,-61.828 89.154,-101.747 -4.511,-39.918 -81.588,-38.519 -81.588,-38.519 14.006,-35.305 23.538,-61.487 5.123,-86.043 0,0 1.126,-60.426 5.48,-60.336 28.171,0.601 37.674,-11.717 37.674,-11.717 17.705,-9.124 30.872,11.26 89.944,12.811 59.883,1.572 63.401,-52.774 58.64,-73.297 -4.761,-20.523 -37.589,-12.629 -21.301,-31.799 16.289,-19.17 -0.5,-42.851 -22.302,-45.783 -21.802,-2.932 -46.362,9.021 -46.362,9.021 0,0 3.761,-32.476 -28.566,-32.476 -32.327,0 -72.014,72.26 -72.014,72.26 0,0 -1.162,-32.588 -11.435,-32.34 -19.391,0.469 -52.36,24.657 -52.803,31.765 -0.972,-4.027 -6.511,-19.695 -34.404,-23.421 -32.076,-4.286 -100.239,40.144 -100.239,40.144 0,0 0.501,-159.223 -60.644,-172.98 -3.822,-0.86 -7.7,-1.308 -11.613,-1.393 z" fill="#FFFFFF" transform="translate(291.01357,90.223051) matrix(0.26458333,0,0,0.26458333,-4917.291,-4339.9188) translate(-3313.5291,-2437.8203)"/>
    <path d="m 18100.195,17332.648 c -7.926,-19.544 -11.316,-35.851 -6.889,-33.111 4.957,3.062 17.544,41.147 14.582,44.109 -1.266,1.265 -4.728,-3.683 -7.693,-10.998 z m 451.554,-13.938 c -5.569,-10.871 -8.831,-32.014 -5.28,-34.208 1.728,-1.069 5.219,7.038 7.75,18.014 4.845,20.978 3.728,28.295 -2.47,16.194 z m -129.385,-10.579 c -6.636,-7.999 -20.916,-77.279 -16.781,-81.416 6.312,-6.312 35.494,74.053 30.073,82.82 -3.365,5.444 -8.014,4.955 -13.292,-1.404 z m -808.854,-8.718 c -0.665,-26.155 4.759,-60.154 9.596,-60.154 12.525,0 12.585,26.868 0.118,52.744 -9.049,18.792 -9.421,19.073 -9.717,7.41 z m 723.862,2.026 c -5.661,-6.981 -17.004,-45.019 -17.004,-57.029 0,-16.324 5.984,-9.527 15.24,17.315 9.447,27.398 10.47,50.448 1.764,39.714 z m -635.612,-17.901 c -3.308,-3.309 -3.363,-27.78 -0.08,-44.106 3.833,-19.169 9.086,-6.383 9.156,22.293 0.06,22.536 -2.404,28.464 -9.057,21.813 z m 103.878,-18.264 c -5.477,-12.021 -10.93,-41.642 -7.665,-41.642 3.542,0 15.175,38.463 13.798,45.623 -0.976,5.06 -2.448,4.106 -6.133,-3.981 z m 415.773,-12.921 c -8.19,-28.789 -3.417,-36.393 5.573,-8.875 7.93,24.289 8.806,30.943 4.067,30.943 -1.849,0 -6.186,-9.929 -9.64,-22.068 z m 582.615,-1.373 c -11.069,-22.49 -18.782,-61.342 -26.755,-134.791 -6.719,-61.894 -10.115,-64.758 -25.562,-27.444 -11.237,24.942 -15.03,49.578 -32.85,34.015 -12.819,-11.195 -20.593,-29.457 -24.307,-33.815 -12.495,-14.659 -41.58,-74.495 -65.716,-135.19 -24.57,-61.781 -45.507,-105.196 -50.731,-105.196 -4.569,0 -7.727,10.965 -10.327,35.835 -1.312,12.541 -4.498,25.692 -7.079,29.223 -7.947,10.869 -22.598,3.432 -40.288,-20.447 -16.501,-22.267 -26.241,-48.062 -49.902,-132.125 -9.544,-33.911 -12.331,-39.448 -22.61,-44.929 -16.547,-8.829 -44.728,-34.833 -47.62,-43.946 -2.344,-7.392 -2.734,-7.342 -10.892,1.43 -4.653,5.002 -12.535,11.941 -17.514,15.417 -8.424,5.88 -8.747,7.471 -4.626,22.767 4.609,17.128 2.347,25.473 -4.22,15.545 -2.089,-3.162 -4.87,-10.669 -6.174,-16.687 -2.183,-10.048 -3.367,-10.685 -14.546,-7.83 -38.577,9.848 -66.425,-2.215 -78.729,-34.11 -9.391,-24.343 -8.009,-24.091 -51.306,-9.381 -15.405,5.233 -35.24,9.515 -44.08,9.515 -18.626,0 -42.046,-8.803 -49.486,-18.598 -6.055,-7.973 -7.182,-32.192 -1.501,-32.192 2.148,0 3.907,3.243 3.907,7.208 0,23.108 37.638,29.698 83.522,14.625 39.194,-12.875 58.817,-13.265 66.541,-1.322 3.13,4.836 6.886,13.667 8.352,19.627 6.692,27.213 35.719,29.391 84.262,6.32 26.747,-14.422 29.18,-27.777 49.966,1.512 23.073,32.512 71.76,43.199 109.797,34.07 15.586,-3.738 25.634,-10.079 46.933,-29.627 34.572,-31.726 44.37,-34.607 58.562,-17.221 9.312,11.413 12.043,12.599 23.649,10.277 7.217,-1.442 23.232,-10.564 35.586,-20.272 25.868,-20.321 45.161,-29.267 55.188,-25.592 5.691,2.086 0.448,8.42 -27.892,33.714 l -34.9,31.146 1.986,17.582 c 1.879,16.597 -0.716,14.701 -6.571,7.326 -3.41,-4.295 -3.901,-8.58 -3.969,-12.504 -0.09,-5.322 -2.851,-6.954 -10.868,-6.423 -25.879,1.706 -33.229,-0.357 -44.598,-12.531 l -11.59,-12.406 -21.533,22.232 c -11.846,12.228 -26.235,24.629 -31.979,27.562 -16.465,8.401 -48.027,13.81 -66.299,11.361 l -16.728,-2.244 7.474,19.092 c 4.113,10.503 14.068,37.555 22.126,60.117 14.897,41.725 24.439,62.388 35.043,75.9 7.326,9.337 7.335,9.322 12.954,-19.249 7.956,-40.461 30.651,-50.951 56.678,-26.19 14.428,13.726 73.634,135.732 113.633,234.17 4.566,11.247 9.54,20.477 11.049,20.512 1.506,0.04 10.276,-15.316 19.488,-34.119 24.389,-49.782 28.72,-50.97 38.891,-10.661 3.736,14.796 9.578,48.959 12.99,75.921 3.411,26.96 8.893,65.168 12.186,84.904 3.298,19.737 5.445,43.472 4.777,52.744 -0.58,16.318 -4.155,10.884 -11.792,-4.627 z m -876.745,-14.116 c -3.244,-7.761 -6.944,-22.944 -8.223,-33.735 -1.863,-15.72 -1.245,-19.264 3.109,-17.814 6.852,2.287 23.924,51.239 20.75,59.505 -3.819,9.951 -9.328,7.147 -15.636,-7.956 z m 705.015,7.535 c -6.311,-7.207 -26.715,-66.201 -26.715,-77.242 0,-10.66 10.638,-6.447 16.814,6.66 16.268,34.512 22.97,59.659 18.813,70.582 -2.609,6.85 -2.91,6.85 -8.912,0 z m 264.892,-47.139 c -6.056,-11.777 -29.839,-81.242 -29.839,-87.155 0,-2.025 2.47,-3.683 5.492,-3.683 6.671,0 28.241,57.562 31.291,83.506 2.444,20.772 0.838,22.466 -6.944,7.332 z m -380.974,-15.631 c -5.043,-12.432 -16.02,-48.427 -16.08,-52.744 -0.04,-1.612 1.512,-2.931 3.41,-2.931 3.701,0 23.897,51.373 23.897,60.783 0,9.344 -6.576,6.353 -11.227,-5.108 z m -426.286,-12.561 c -2.456,-4.593 -5.208,-21.005 -6.113,-36.473 l -1.647,-28.128 12.272,35.561 c 5.836,15.222 8.676,53.072 -4.512,29.04 z m 287.527,-3.813 c -15.969,-29.534 -32.736,-90.743 -21.883,-79.89 7.979,7.979 31.676,72.366 30.434,82.695 -0.938,18.811 -3.09,7.289 -8.551,-2.805 z m -703.652,-26.525 c -1.324,-10.249 -3.32,-25.047 -4.434,-32.886 -3.539,-24.96 4.867,-19.641 9.608,6.078 5.506,29.889 5.72,40.2 0.894,43.182 -2.009,1.243 -4.741,-6.126 -6.068,-16.374 z m 190.771,6.242 c -8.998,-19.923 -21.403,-72.951 -20.09,-85.889 l 1.345,-13.221 4.68,17.582 c 2.572,9.669 8.301,30.767 12.726,46.884 8.782,31.98 9.59,52.906 1.339,34.644 z m -98.486,-16.087 c -7.138,-26.879 -12.046,-51.203 -12.02,-59.581 0.04,-14.291 6.957,2.684 15.346,37.672 8.949,37.336 9.086,38.514 4.483,38.514 -1.87,0 -5.383,-7.472 -7.809,-16.605 z m 480.517,8.091 c -7.076,-11.329 -24.409,-62.614 -21.982,-65.04 2.534,-2.534 25.077,47.426 28.007,62.066 2.737,13.69 1.154,14.469 -6.025,2.974 z m -662.143,-4.311 c -1.234,-4.905 -3.178,-26.443 -4.328,-47.861 -2.645,-49.371 3.575,-33.65 7.523,19.004 2.728,36.394 1.493,47.541 -3.195,28.857 z m 399.788,-7.686 c -5.141,-11.729 -14.439,-62.798 -12.493,-68.633 4.503,-13.511 14.786,7.825 23.896,49.58 5.499,25.211 -2.695,38.909 -11.403,19.053 z m 163.832,-7.549 c -11.01,-20.57 -19.879,-81.335 -11.874,-81.335 6.617,0 23.916,55.734 23.951,77.162 0.04,14.632 -5.466,16.53 -12.077,4.173 z m 123.951,-73.045 c -7.864,-26.489 -11.767,-47.361 -8.851,-47.361 8.293,0 23.697,52.404 18.261,62.118 -2.386,4.258 -4.96,0.206 -9.41,-14.757 z m 324.294,8.314 c -5.127,-26.762 -7.079,-60.476 -3.366,-58.184 2.139,1.324 5.048,12.539 6.458,24.922 1.413,12.387 3.516,27.354 4.677,33.262 1.165,5.963 0.365,10.745 -1.802,10.745 -2.148,0 -4.832,-4.835 -5.967,-10.745 z m 321.845,4.922 c -6.508,-7.844 -10.429,-56.689 -4.549,-56.689 2.404,0 5.425,4.836 6.719,10.743 1.293,5.91 3.963,15.843 5.934,22.074 7.475,23.623 2.893,37.123 -8.104,23.872 z m -483.787,-8.829 c -8.053,-11.334 -28.061,-56.521 -28.061,-63.369 0,-11.176 8.003,-0.94 20.532,26.252 20.958,45.486 23.947,60.225 7.529,37.117 z m 99.648,-1.117 c -7.037,-10.046 -8.835,-23.301 -3.162,-23.301 4.558,0 13.418,21.731 11.367,27.881 -1.008,3.025 -4.08,1.314 -8.205,-4.58 z m -347.193,-23.301 c -12.427,-18.797 -25.619,-78.665 -14.992,-68.037 6.307,6.306 24.006,60.571 22.677,69.526 -1.186,8.014 -1.432,7.968 -7.685,-1.489 z m -158.38,-5.872 c -6.351,-12.09 -9.779,-32.188 -6.986,-40.982 4.047,-12.749 9.023,-5.482 11.874,17.341 3.149,25.204 1.111,35.061 -4.888,23.641 z m -293.825,-5.257 c -2.325,-4.343 -4.082,-16.36 -3.913,-26.709 l 0.312,-18.814 5.455,25.165 c 5.761,26.571 5.138,33.421 -1.854,20.358 z m -73.64,-4.501 c -2.47,-5.37 -6.323,-22.411 -8.562,-37.865 -5.079,-35.068 -5.17,-42.96 -0.437,-38.124 5.023,5.13 16.851,65.643 15.003,76.723 l -1.51,9.036 z m 160.445,-13.672 c -6.376,-12.169 -10.522,-86.495 -5.019,-89.898 8.038,-4.966 11.685,3.745 15.856,37.84 3.276,26.771 3.013,36.025 -1.331,46.634 -5.037,12.317 -5.699,12.692 -9.506,5.424 z m 929.08,-18.165 c -5.154,-14.792 -5.679,-42.395 -0.806,-42.395 3.891,0 6.408,8.779 10.356,36.139 3.094,21.456 -2.886,25.374 -9.55,6.256 z m 93.75,-12.134 c -6.481,-17.051 -15.073,-81.159 -11.196,-83.552 2.033,-1.258 5.17,-0.771 6.963,1.083 5.517,5.7 15.591,50.374 15.591,69.148 0,20.111 -6.067,27.232 -11.358,13.321 z m -947.841,0.944 c -5.351,-8.656 -6.876,-59.715 -2.145,-71.887 6.713,-17.287 11.137,-8.124 13.986,28.962 1.987,25.856 1.31,34.855 -3.056,40.64 -4.393,5.82 -6.298,6.314 -8.785,2.285 z m 413.107,-0.926 c -5.935,-7.287 -20.422,-56.78 -20.422,-69.761 0,-12.553 5.453,-15.052 9.758,-4.471 9.617,23.632 21.496,62.335 21.496,70.032 0,9.984 -4.656,11.789 -10.832,4.2 z m -529.796,-5.341 c -4.723,-14.992 -9.172,-58.378 -6.681,-65.15 1.576,-4.283 4.915,6.667 8.595,28.211 3.308,19.365 4.753,37.255 3.208,39.751 -1.878,3.038 -3.568,2.109 -5.122,-2.812 z m 693.904,-10.737 c -17.163,-18.619 -30.287,-40.816 -26.419,-44.684 3.469,-3.469 32.623,30.068 39.599,45.557 3.25,7.217 5.187,13.846 4.299,14.731 -0.885,0.888 -8.75,-6.134 -17.479,-15.604 z m 482.079,-15.039 c -5.876,-12.281 -11.504,-28.983 -12.516,-37.116 -1.613,-13.032 -0.175,-11.318 12.106,14.396 7.665,16.048 13.294,32.755 12.511,37.114 -1.054,5.878 -4.19,2.149 -12.101,-14.394 z m -869.333,9.477 c -2.256,-4.214 -5.025,-15.351 -6.152,-24.755 -1.978,-16.453 -1.771,-16.221 5.575,6.184 7.747,23.64 8.024,32.486 0.577,18.571 z m 291.012,0.952 c -5.865,-5.863 -21.871,-51.784 -21.871,-62.745 0,-20.136 26.628,27.467 30.279,54.131 2.203,16.096 0.656,17.681 -8.408,8.614 z m -828.014,-0.474 c -4.272,-4.272 -3.042,-75.536 1.304,-75.536 2.343,0 3.905,15.63 3.905,39.072 0,39.051 -0.328,41.346 -5.209,36.464 z m 159.996,-47.336 c -7.627,-33.528 -8.146,-43.306 -1.968,-37.132 6.957,6.957 15.923,51.28 11.846,58.561 -2.658,4.754 -5.156,-0.667 -9.878,-21.429 z m 980.518,6.825 c -6.807,-22.92 -12.488,-77.118 -6.743,-64.328 5.038,11.217 17.498,80.088 14.951,82.633 -1.175,1.178 -4.87,-7.059 -8.208,-18.305 z m -552.595,-0.641 c -13.547,-27.985 -9.679,-50.667 5.051,-29.634 8.064,11.51 11.658,32.072 7.045,40.311 -3.115,5.567 -5.066,3.844 -12.096,-10.677 z m 74.229,5.664 c -6.145,-11.608 -16.969,-71.473 -14.179,-78.414 3.029,-7.534 24.722,56.85 25.106,74.508 0.263,12.13 -5.485,14.184 -10.927,3.906 z m -238.425,-13.675 c -10.286,-32.27 -11.411,-77.691 -1.683,-67.963 4.179,4.18 16.846,55.218 16.846,67.88 0,16.919 -9.778,16.975 -15.163,0.09 z m -338.363,-36.14 c 1.14,-15.041 7.968,-56.357 15.17,-91.813 13.696,-67.393 16.064,-71.903 33.015,-62.831 8.946,4.788 12.298,-0.782 12.342,-20.514 0.04,-11.164 6.883,-59.1 13.926,-97.354 l 2.698,-14.653 -24.93,-0.117 c -33.148,-0.175 -62.561,-12.974 -79.261,-32.514 -31.649,-37.03 -14.571,-130.27 35.477,-131.459 7.146,0 12.995,-1.606 12.995,-3.569 0,-5.02 44.935,-65.67 62.002,-83.685 26.597,-28.078 50.945,-33.616 71.547,-16.281 23.688,19.932 40.646,17.913 70.218,-8.351 11.149,-9.904 26.068,-20.426 33.15,-23.386 25.276,-10.561 72.171,-3.338 78.068,12.025 1.275,3.321 3.894,6.036 5.822,6.036 1.928,0 18.639,-14.056 37.138,-31.232 32.986,-30.637 56.243,-43 80.895,-43 14.074,0 42.495,17.295 59.5,36.207 20.431,22.727 30.046,49.46 28.646,79.664 -1.36,29.367 4.066,33.139 31.013,21.546 38.419,-16.527 62.936,-7.938 59.792,20.942 -0.293,2.553 9.374,3.479 26.287,2.524 25.388,-1.436 27.426,-0.894 40.745,10.801 35.805,31.435 33.543,86.609 -5.368,130.923 -15.231,17.347 -58.168,46.026 -84.371,56.355 -29.967,11.812 -81.185,21.11 -106.155,19.272 -24.759,-1.826 -59.929,-16.462 -82.492,-34.331 -13.873,-13.51 -16.091,-11.067 -31.896,-2.309 -41.459,22.971 -103.656,27.433 -142.559,10.224 l -17.324,-7.662 2.504,18.864 c 1.534,11.563 0.931,19.835 -1.56,21.374 -5.198,3.214 -8.281,-6.689 -10.083,-32.403 -1.116,-15.924 -3.865,-22.996 -12.394,-31.898 -6.028,-6.292 -13.914,-11.441 -17.524,-11.441 -3.613,0 -18.102,7.736 -32.202,17.192 -16.446,11.027 -35.513,19.735 -53.185,24.287 l -27.55,7.096 -1.052,79.753 c -1.011,76.404 -1.403,79.981 -9.362,85.262 -7.478,4.963 -9.483,4.525 -20.099,-4.411 -6.485,-5.456 -13.629,-9.921 -15.873,-9.921 -2.242,0 -5.242,8.35 -6.666,18.557 -5.818,41.718 -22.259,120.396 -27.503,131.601 -5.334,11.389 -5.509,10.628 -3.541,-15.368 z m 579.888,-291.266 c 99.684,-27.624 157.988,-95.718 129.59,-151.357 -13.085,-25.643 -21.05,-30.122 -53.529,-30.122 -27.961,0 -28.966,-0.331 -32.597,-10.746 -4.366,-12.529 -12.327,-13.515 -40.425,-4.987 -29.836,9.051 -34.774,4.764 -47.67,-41.405 -11.985,-42.916 -24.4,-63.37 -49.495,-81.548 -29.431,-21.322 -51.709,-15.885 -97.917,23.884 -30.767,26.481 -42.775,31.057 -54.248,20.675 -6.059,-5.482 -14.41,-7.178 -35.983,-7.298 -31.869,-0.176 -45.474,6.068 -77.736,35.696 -23.792,21.848 -43.057,23.175 -70.693,4.873 -11.928,-7.904 -20.772,-11.186 -25.818,-9.585 -42.671,19.479 -82.707,114.263 -112.37,101.82 -12.806,-4.489 -21.364,1.016 -29.305,18.765 -16.421,36.705 -3.973,88.701 27.26,104.578 26.159,12.946 81.95,12.457 126.364,-1.104 18.584,-5.674 37.924,-12.903 42.979,-16.062 19.876,-12.429 27.801,-11.377 49.717,6.6 25.563,20.969 41.246,25.825 82.991,25.695 25.03,-0.1 39.206,-2.429 60.104,-9.974 41.343,-14.93 43.172,-15.123 52.654,-5.641 4.671,4.668 21.057,14.511 36.415,21.872 24.656,11.814 31.599,13.379 59.366,13.379 19.696,0 42.243,-2.993 60.346,-8.008 z m -359.275,308.707 c -5.661,-10.578 -1.356,-52.41 6.022,-58.534 4.175,-3.467 5.723,-0.959 7.736,12.517 5.64,37.809 -2.886,66.329 -13.758,46.017 z m 887.18,-27.831 c -10.698,-24.095 -15.301,-55.848 -7.729,-53.324 7.884,2.628 24.124,56.804 19.488,65.015 -3.024,5.356 -5.11,3.285 -11.759,-11.691 z m -816.778,-42.123 c 0,-21.616 1.512,-39.3 3.359,-39.3 4.561,0 8.224,38.441 5.558,58.323 -4.091,30.492 -8.917,20.196 -8.917,-19.023 z m 460.17,27.116 c -9.875,-14.967 -23.439,-54.062 -20.441,-58.914 5.629,-9.108 31.315,47.017 28.291,61.816 -1.193,5.84 -2.368,5.409 -7.85,-2.902 z m -56.762,-12.696 c -8.662,-10.913 -17.159,-49.694 -10.755,-49.091 4.106,0.385 21.489,39.843 21.489,48.777 0,6.552 -5.653,6.716 -10.734,0.314 z m 540.623,-11.694 c -13.114,-36.13 -17.421,-61.562 -10.429,-61.562 3.671,0 23.611,57.716 23.611,68.346 0,12.544 -7.585,8.641 -13.182,-6.784 z m -738.088,4.409 c -10.093,-14.959 -23.605,-66.244 -18.735,-71.117 4.19,-4.188 6.347,0.234 20.351,41.776 4.258,12.627 7.184,26.692 6.508,31.257 -1.178,7.956 -1.515,7.877 -8.124,-1.916 z m -313.108,-4.436 c -4.386,-21.16 -6.464,-54.353 -3.909,-62.409 3.436,-11.419 6.055,0.08 6.055,0.08 5.795,15.666 8.972,71.118 4.072,71.118 -2.417,0 -5.216,-3.956 -6.218,-8.791 z m -214.492,-6.837 c -6.795,-40.173 -4.925,-77.835 3.45,-69.461 5.96,5.96 7.766,59.108 3.853,71.333 -2.15,6.717 -4.996,11.764 -7.303,-1.872 z m 629.003,-7.099 c -8.764,-9.685 -20.093,-62.927 -14.564,-68.454 5.52,-5.524 5.872,-4.878 17.43,31.893 10.999,35.01 9.783,50.537 -2.866,36.561 z m 317.947,-7.552 c -4.88,-10.517 -11.045,-63.433 -6.94,-59.583 2.582,2.426 22.394,61.253 22.394,66.501 0,8.103 -10.704,3.309 -15.454,-6.918 z m 66.871,-17.291 c -10.532,-21.792 -12.616,-43.477 -4.343,-45.205 4.568,-0.952 7.703,5.629 12.805,26.894 8.035,33.478 3.555,43.174 -8.462,18.311 z m -594.464,4.642 c -2.531,-4.73 -5.367,-25.579 -6.302,-46.326 -1.989,-44.208 2.353,-39.598 11.954,12.698 6.509,35.444 3.833,51.355 -5.652,33.628 z m 930.868,-0.709 c -12.298,-14.96 -21.897,-60.343 -12.068,-57.068 6.108,2.038 19.411,41.555 18.007,53.499 -0.949,8.108 -1.789,8.612 -5.939,3.569 z m -1200.171,-17.532 c -5.032,-18.13 -5.545,-54.758 -0.804,-57.689 3.575,-2.205 10.415,67.268 6.962,70.719 -1.092,1.093 -3.865,-4.77 -6.158,-13.03 z m 1015.457,-9.262 c -5.84,-10.916 -10.333,-58.228 -4.996,-52.64 6.575,6.883 17.447,53.635 13.411,57.67 -2.365,2.366 -5.441,0.528 -8.415,-5.03 z m -890.603,-7.451 c -6.353,-11.875 -10.543,-82.306 -4.894,-82.306 7.592,0 19.344,73.715 13.436,84.273 -3.513,6.277 -4.214,6.116 -8.542,-1.967 z m 1004.446,-30.607 c -6.479,-12.108 -9.199,-35.152 -5.029,-42.586 4.514,-8.039 4.264,-8.527 11.827,23.178 2.441,10.235 4.44,20.344 4.44,22.463 0,6.335 -7.268,4.358 -11.238,-3.055 z m -1338.544,-12.487 c -3.883,-6.282 1.84,-82.187 6.194,-82.187 4.466,0 4.472,74.442 0,81.487 -2.499,3.944 -4.084,4.123 -6.201,0.7 z m 381.003,-14.967 c -5.304,-19.096 -5.17,-59.988 0.234,-73.805 5.13,-11.615 5.479,-7.793 7.818,-1.858 1.929,5.026 4.63,26.282 6.004,47.233 2.154,32.853 1.635,38.425 -3.774,40.5 -4.727,1.813 -7.264,-1.161 -10.291,-12.07 z m 148.616,-7.273 c -5.09,-18.325 -5.5,-44.32 -0.703,-44.32 3.823,0 10.37,53.841 6.961,57.248 -1.147,1.149 -3.963,-4.668 -6.258,-12.928 z m -269.214,-7.924 c -6.467,-12.037 -5.963,-72.087 0.681,-81.17 7.846,-10.734 11.442,-1.952 13.434,32.818 1.157,20.192 -0.09,33.862 -3.917,43.212 -5.46,13.292 -5.743,13.436 -10.198,5.14 z m 195.137,-10.776 c -5.081,-20.177 -5.734,-41.247 -1.28,-41.247 2.872,0 16.444,44.873 16.444,54.361 0,2.332 -2.428,4.244 -5.397,4.244 -3.125,0 -7.235,-7.308 -9.767,-17.358 z m 832.331,4.418 c -2.888,-3.488 -7.442,-14.748 -10.114,-25.028 -3.854,-14.818 -6.406,-18.473 -12.326,-17.649 -36.641,5.082 -47.441,10.164 -49.902,6.183 -1.495,-2.419 -0.781,-9.171 1.874,-9.171 2.657,0 19.46,-7.082 37.342,-15.739 25.506,-12.345 35.884,-20.002 48.148,-35.514 17.432,-22.053 19.768,-36.262 8.966,-54.546 -9.286,-15.72 -27.04,-22.983 -62.531,-25.585 -25.962,-1.904 -35.023,-0.747 -61.688,7.873 -49.855,16.12 -60.56,13.383 -60.56,-15.492 0,-8.978 -2.386,-18.302 -5.301,-20.722 -10.457,-8.68 -52.366,6.001 -73.428,25.725 -5.697,5.332 -13.61,9.06 -17.583,8.28 -6.094,-1.195 -7.223,-5.192 -7.228,-25.567 0,-31.322 -3.458,-34.518 -36.112,-33.454 -14.253,0.466 -28.218,-1.07 -31.037,-3.408 -2.913,-2.417 -5.126,-12.269 -5.126,-22.829 0,-23.954 -5.854,-28.908 -31.274,-26.467 -10.733,1.032 -19.516,1.302 -19.516,0.598 0,-4.126 25.146,-13.203 36.576,-13.203 10.303,0 15.928,2.862 23.635,12.022 5.565,6.61 10.115,16.184 10.115,21.274 0,8.858 1.146,9.242 26.774,9.002 37.141,-0.349 55.273,13.3 55.273,41.61 v 9.307 l 22.467,-11.393 c 44.877,-22.762 70.941,-12.431 65.204,25.85 -2.493,16.421 4.593,14.998 21.484,12.264 7.267,-1.175 14.502,-2.696 29.542,-8.182 37.859,-13.801 93.423,-14.443 119.283,-1.381 19.403,9.802 33.569,28.201 37.386,48.561 3.509,18.697 -14.478,53.357 -36.349,70.035 -8.99,6.86 -18.56,13.207 -21.266,14.11 -3.94,1.313 -3.896,5.909 0.206,23.057 2.825,11.783 4.501,24.685 3.725,28.67 -1.293,6.625 -1.867,6.705 -6.67,0.909 z m -1235.214,-37.854 c 0,-13.021 1.734,-23.441 3.907,-23.441 2.171,0 3.904,10.42 3.904,23.441 0,13.026 -1.733,23.442 -3.904,23.442 -2.173,0 -3.907,-10.416 -3.907,-23.442 z m 57.475,-7.304 c 0,-9.67 2.957,-14.133 3.886,-9.298 0.93,4.835 0.93,12.747 0,17.58 -0.929,4.836 -3.886,1.387 -3.886,-8.282 z m 1278.872,-46.817 c -5.588,-20.755 -9.679,-53.881 -6.265,-50.74 2.516,2.314 17.602,55.69 17.766,62.863 0.04,1.611 -1.624,2.93 -3.689,2.93 -2.066,0 -5.583,-6.775 -7.812,-15.053 z m -1402.767,-37.46 c 0,-5.246 1.758,-10.625 3.907,-11.954 2.279,-1.409 3.908,2.564 3.908,9.539 0,6.573 -1.758,11.95 -3.908,11.95 -2.149,0 -3.907,-4.29 -3.907,-9.535 z m 1255.563,-104.745 c 0.492,-18.742 -0.263,-20.622 -8.651,-21.811 -10.909,-1.543 -10.296,-9.218 3.578,-44.843 17.503,-44.048 -12.015,-70.634 -39.32,-77.374 -21.243,-5.244 -27.979,-1.665 -20.565,-32.426 8.646,-35.874 -27.64,-42.895 -52.508,-32.637 -6.009,2.649 -21.311,11.439 -33.998,19.532 -22.321,14.244 -33.997,17.316 -46.934,12.35 -5.006,-1.921 -6.198,-9.173 -6.26,-38.094 -0.1,-43.549 -5.743,-85 -13.678,-100.343 -6.854,-13.254 -21.939,-22.027 -43.914,-25.544 -19.784,-3.161 -40.846,5.89 -75.306,32.365 -28.407,21.824 -46.974,31.967 -56.824,32.406 -12.063,0.538 -14.17,-8.173 -23.475,-18.162 -12.327,-12.984 -21.632,-17.766 -44.459,-15.853 -19.423,1.63 -33.361,5.474 -47.254,13.033 -21.707,11.816 -45.228,40.286 -49.043,59.362 -1.31,6.552 -4.771,12.828 -7.693,13.949 -5.481,2.103 -17.256,-7.13 -17.256,-13.539 0,-5.852 -22.762,-4.166 -36.332,2.69 -6.877,3.475 -16.459,9.934 -21.293,14.356 -4.836,4.422 -8.792,6.736 -8.792,5.145 0,-15.588 35.315,-38.565 58.778,-38.242 13.436,0.175 16.331,-1.381 21.673,-11.711 10.267,-19.858 37.243,-46.299 58.088,-56.948 24.359,-10.742 70.79,-19.187 89.142,-4.92 5.963,4.72 13.344,14.575 16.403,21.898 3.063,7.322 6.971,13.288 8.695,13.253 1.719,-0.03 18.953,-12.603 38.293,-27.934 43.85,-34.765 63.299,-43.95 92.604,-43.737 32.273,0.234 56.518,13.576 69.103,38.028 12.706,24.694 16.744,93.294 6.881,116.9 -9.187,21.983 -0.09,22.791 30.711,2.728 39.629,-25.818 67.32,-32.953 89.203,-22.981 16.576,7.554 24.16,39.731 13.887,58.927 -5.377,10.045 0.658,14.731 19.085,14.815 7.052,0.04 18.976,2.631 26.497,5.772 26.745,11.176 38.062,62.893 21.057,96.224 l -7.994,15.671 c 28.576,7.717 19.79,31.283 14.236,44.661 -8.846,21.17 -17.013,17.698 -16.365,-6.966 z m -925.106,-183.935 c 4.231,-46.696 -7.092,-67.613 -33.833,-62.499 -12.652,2.418 -21.183,-7.203 -30.34,-34.219 -6.991,-20.632 -7.572,-21.192 -23.234,-22.353 -17.854,-1.327 -29.514,4.442 -52.372,25.919 -11.519,11.748 -12.032,15.263 -24.969,6.138 -5.788,-4.082 -12.709,-9.043 -15.375,-11.02 -11.426,-8.469 -45.062,14.32 -65.078,44.095 -28.895,42.98 -44.854,49.793 -64.636,27.59 -8.052,-9.037 -13.572,-3.855 -20.928,-2.448 -9.25,1.766 -8.91,-6.114 -1.802,-11.312 10.37,-7.584 18.851,-6.877 29.619,2.465 12.908,11.19 19.53,8.471 33.722,-13.854 28.763,-45.25 57.943,-68.722 86.44,-69.53 10.313,-0.293 15.565,2.136 21.958,10.156 9.468,14.997 11.385,7.38 21.843,-3.707 19.029,-20.172 34.667,-28.665 52.823,-28.681 26.534,-0.04 35.943,11.308 42.644,51.368 2.324,13.887 2.775,14.214 16.934,12.365 21.176,-2.766 34.521,3.92 43.69,21.892 14.13,27.694 12.968,57.983 -7.614,75.224 -14.826,16.74 -10.392,-7.655 -9.492,-17.589 z m 928.43,-15.076 c -2.609,-2.604 -4.739,-9.717 -4.739,-15.8 0,-13.522 -6.624,-11.282 -23.397,-5.437 -16.429,5.729 -10.149,-7.107 8.223,-14.779 11.812,-4.931 15.29,-5.051 21.207,-0.723 6.317,4.618 9.622,2.529 30.8,-19.436 24.725,-25.646 46.427,-35.073 60.503,-26.285 4.788,2.992 14.837,18.126 18.297,27.567 0.205,0.566 6.362,-1.47 13.675,-4.527 24.19,-10.106 46.029,0.681 47.658,23.539 1.005,14.05 -7.389,14.919 -14.072,1.45 -6.396,-12.898 -21.346,-14.332 -41.615,-3.991 -19.07,9.728 -23.606,7.915 -23.606,-9.436 0,-37.756 -39.491,-20.203 -69.106,30.715 -12.27,21.102 -16.692,24.281 -23.828,17.143 z" fill="#00B894" transform="translate(291.01357,90.223051) matrix(0.26458333,0,0,0.26458333,-4917.291,-4339.9188)"/>
</svg>