<?xml version="1.0" ?><svg height="131.96959mm" viewBox="0 0 127.82505 131.96959" width="127.82505mm" xmlns="http://www.w3.org/2000/svg">
    <path d="m -2126.8441,-994.46016 c -4.3242,0.1 -8.98,1.0337 -13.0821,1.9238 -9.3762,2.0345 -12.0435,14.308 -11.0058,18.3437 1.0376,4.0356 16.6015,11.6739 16.6015,11.6739 0,0 2.3722,12.2409 1.6309,22.5136 -0.7412,10.2727 -6.1152,37.5215 -6.1152,37.5215 0,0 -9.9308,-18.844 -22.5313,-18.3437 -12.6004,0.5002 -22.3105,18.1093 -22.3105,18.1093 0,0 -26.3129,-4.1674 -39.8028,-3.4003 -13.4899,0.7672 -24.9779,8.0031 -31.8711,19.0429 -6.8932,11.03977 -0.6679,41.22547 2.2969,73.67777 23.9409,10.53939 70.1179,-0.2348 69.1543,-7.1055 -0.9636,-6.8706 -6.4121,-65.3047 -6.4121,-65.3047 0,0 44.9916,3.4356 59.2227,1.7012 14.2311,-1.7343 11.414,-0.7333 14.3418,-31.45117 2.9277,-30.7179 -7.819,-33.186 0.4824,-46.5938 8.3015,-13.4078 7.1521,-18.677 2.5566,-26.6816 -2.5849,-4.5026 -7.5965,-5.7551 -13.1562,-5.6269 z m -92.4356,7.9726 c -0.6387,-0.01 -1.2903,0 -1.9551,0.021 -21.2726,0.7671 -30.5387,12.5736 -34.7636,33.1523 -1.4824,16.3095 10.5998,34.8206 29.834,33.92 19.2342,-0.9005 36.7637,-16.9756 35.3925,-34.1856 -1.3283,-16.6723 -8.7079,-32.6249 -28.5078,-32.9082 z" fill="#FFFFFF" paint-order="markers stroke fill" transform="translate(18.555369,29.699076) matrix(0.70228619,0,0,0.70228619,1587.5492,670.41022)"/>
    <path d="m -2123.6573,-996.89953 c -2.7599,-0.02 -5.5622,0.3626 -7.4638,1.1571 -1.5833,0.6615 -4.3686,1.2075 -6.1892,1.2075 -1.9676,0 -4.2859,0.6548 -5.7159,1.6081 -1.3231,0.8821 -3.5447,2.3395 -4.937,3.2385 -5.2739,3.4055 -4.7747,8.3821 -4.9253,9.9435 -0.1704,1.7652 -1.7584,5.7603 0.8058,8.0123 5.6201,4.9362 6.2787,2.603 7.6211,4.2569 2.2156,2.7297 5.5006,4.9006 9.2539,6.113 1.2368,0.3994 1.4019,1.621 1.3896,10.3005 -0.01,5.4166 -0.3681,13.2772 -0.8011,17.4671 -0.9005,8.7144 -3.984,24.0569 -4.8349,24.0569 -0.3139,0 -0.9959,-1.0261 -1.5153,-2.28 -1.4544,-3.5113 -8.0729,-9.5442 -11.9802,-10.9196 -4.1472,-1.4597 -10.0074,-1.5959 -13.8128,-0.3218 -4.4281,1.4825 -7.661,4.3921 -11.5363,10.3827 -4.8889,7.5575 -9.3372,9.4862 -15.7497,6.8295 -1.4873,-0.6162 -6.8003,-1.7475 -11.8065,-2.5138 -12.0511,-1.8448 -19.9035,-1.3326 -29.6353,1.9323 -4.1047,1.3771 -8.0036,2.5044 -8.6643,2.5044 -4.3046,0 -24.09,18.3038 -37.7921,34.9624 -4.1179,5.0064 -5.0193,7.26 -5.0193,12.54766 0,3.94503 0.1781,4.2781 4.614,8.56907 2.5382,2.45525 7.6244,7.16505 11.3013,10.46734 6.4508,5.79339 8.7279,8.51248 7.8585,9.38196 -0.2273,0.22728 -1.9017,-0.4228 -3.7201,-1.4448 -2.8286,-1.58974 -3.4189,-1.68849 -4.0843,-0.68249 -0.4277,0.64671 -0.5879,2.20584 -0.3571,3.46522 0.356,1.94259 0.207,2.20126 -0.9808,1.70563 -5.3376,-2.22689 -5.8009,-2.32077 -6.7473,-1.37437 -0.7439,0.74396 -0.2013,1.68031 2.4233,4.17706 1.8607,1.76999 4.7231,3.92549 6.3608,4.79027 l 2.9778,1.57285 -2.9543,0.0355 c -1.6252,0.0192 -3.9284,-0.33475 -5.118,-0.78702 -2.5085,-0.95374 -4.8172,-0.42419 -5.4609,1.25336 -0.7525,1.961 0.2815,3.39612 3.3712,4.67865 4.9198,2.04225 9.015,1.63046 14.9182,-1.50121 6.2167,-3.29802 7.0327,-3.39924 8.0851,-1.00666 1.0078,2.29118 3.0156,2.67681 4.775,0.91741 1.5101,-1.51017 1.4623,-2.99118 -0.834,-25.57106 -2.0245,-19.90679 -1.0771,-37.00497 2.6441,-47.71327 1.6288,-4.6871 2.9336,-6.8439 5.9144,-9.7755 5.6064,-5.5139 7.7903,-6.3863 17.1852,-6.8658 6.1708,-0.315 9.9034,-0.053 15.2951,1.0759 4.7581,0.996 10.4689,1.493 17.1559,1.4931 9.3301,0 10.2299,-0.1374 12.9987,-1.9852 1.636,-1.0919 4.5224,-4.3689 6.4148,-7.2817 3.9952,-6.1497 6.9083,-8.4459 11.6725,-9.2034 7.2002,-1.1449 15.9693,5.1722 17.917,12.9071 1.062,4.2176 3.4511,6.2542 6.8776,5.8615 2.0103,-0.2305 2.3132,-0.654 2.7675,-3.8682 0.2805,-1.9847 1.2871,-7.2162 2.2365,-11.6267 1.3769,-6.3962 1.8242,-11.9366 2.2107,-27.3753 0.2343,-9.3579 1.6534,-22.4068 -3.7095,-23.479 -1.2267,-0.2038 -6.2421,-1.944 -6.9446,-4.0008 -0.6664,-1.9511 -1.3661,-2.032 -3.2338,-2.159 -2.323,-0.1581 -4.6288,-2.7136 -2.5772,-3.1411 6.3864,1.6541 7.3426,-1.1505 10.4036,1.0723 4.8157,3.497 11.0954,-0.1761 14.6036,-2.2904 1.5382,-0.9075 2.976,-2.1166 3.1951,-2.6876 0.7106,-1.8518 -0.7506,-3.149 -2.9308,-2.6019 -1.5317,0.3845 -2.5893,0.01 -4.2123,-1.4953 -3.5337,-3.2749 -6.4414,-2.1089 -4.0068,1.6069 1.9171,2.9258 1.6787,4.719 -0.5332,4.0209 -0.9924,-0.3132 -2.8221,-0.761 -4.0667,-0.995 -2.9296,-0.5508 -4.2101,-3.5972 -2.8709,-6.8306 1.943,-4.6906 11.6474,-7.5111 16.74,-4.8654 3.5318,1.8348 7.8143,7.4476 8.5093,11.1522 0.6674,3.558 -0.155,5.1372 -6.268,12.0237 -4.5505,5.1264 -4.7499,5.5279 -4.2957,8.6631 2.7011,18.6458 2.7073,47.1105 0.014,65.1205 -0.025,4.29125 -2.482,3.77633 -6.2315,4.6857 -4.9921,1.2097 -9.2385,1.1523 -32.6038,1.1241 -7.7697,-0.01 -28.4813,-3.0058 -30.7265,-0.7858 -1.6107,1.6106 -1.6127,1.7115 -0.2302,13.0903 0.7662,6.3074 2.0909,15.79841 2.9436,21.09093 1.0058,6.24235 1.5505,13.60653 1.5505,20.96169 2e-4,9.75129 0.2034,11.58936 1.4531,13.13267 2.0277,2.50402 4.5891,1.54132 5.8192,-2.18605 1.5213,-4.60955 0.5153,-24.21648 -1.9863,-38.72364 -2.1632,-12.5446 -3.5604,-19.5116 -4.3286,-21.5713 -0.3271,-0.8772 0.092,-0.9941 1.9182,-0.5357 11.9354,2.996 47.0333,4.046 56.0639,1.6774 6.5027,-1.7056 10.9329,-4.8845 12.3667,-8.8745 1.5809,-4.399 2.1411,-34.0974 0.8541,-45.2876 -0.5318,-4.6231 -1.1374,-11.2923 -1.3451,-14.8206 l -0.377,-6.4148 3.9598,-4.089 c 4.271,-4.4104 7.4114,-11.6967 7.3779,-17.1171 -0.036,-5.827 -6.1994,-15.4657 -11.4963,-17.9792 -1.7305,-0.8212 -4.4477,-1.2448 -7.2077,-1.2651 z m -94.7464,4.5142 c -8.712,-0.01 -11.2045,0.277 -15.1718,1.7291 -8.3536,3.0576 -12.9219,6.3018 -18.2413,12.9564 -4.859,6.0789 -7.4434,12.12 -11.0628,25.8518 -1.6237,6.1598 -4.6819,12.0809 -9.0038,17.4331 -2.8825,3.5697 -2.8363,4.998 0.249,7.5941 3.8137,3.209 6.321,4.2703 14.2662,6.0401 5.4805,1.2207 8.0976,1.4457 10.5061,0.9044 1.7641,-0.3963 3.381,-0.4386 3.5933,-0.095 0.7998,1.2941 8.2223,4.0066 12.0344,4.8256 3.6664,0.7877 7.2959,0.3653 10.2711,-0.089 12.8228,-1.9692 26.771,-11.5478 31.819,-21.8508 3.8193,-7.7953 4.8795,-17.0758 2.7746,-24.2895 -0.4237,-1.4522 -0.024,-1.8717 2.5772,-2.71 5.2511,-1.6924 6.6361,-3.9054 3.4969,-5.5855 -1.1772,-0.63 -2.3381,-0.5332 -4.5083,0.3736 -3.581,1.4962 -4.3309,1.5231 -4.3309,0.1597 0,-2.4436 -7.1669,-15.5937 -9.6264,-17.6632 -5.7635,-4.8497 -8.3121,-5.5747 -19.6425,-5.5844 z m 77.5694,2.7581 c 0.4023,0.052 0.5013,0.8937 0.1974,2.5138 -0.2698,1.4379 -0.092,3.6633 0.3958,4.9453 0.685,1.8016 0.6521,2.4802 -0.1468,2.9871 -0.5684,0.3606 -1.6656,0.6606 -2.4374,0.6672 -1.9019,0.017 -1.9189,-5.6822 -0.027,-8.885 0.9108,-1.5419 1.6158,-2.2802 2.0181,-2.2284 z m -86.6648,7.9184 c 0.39,0 2.0545,0.878 3.699,1.951 3.1821,2.0764 12.6753,4.3447 19.4088,4.6376 4.4993,0.1958 5.0914,0.7454 7.5507,6.9986 1.3876,3.5282 1.3841,3.576 -0.3829,4.9089 -2.2158,1.6713 -1.5553,3.9574 1.1429,3.9574 1.5933,0 2.0059,0.5036 2.3986,2.9237 1.2713,7.8341 -2.6314,17.9847 -9.1787,23.8713 -2.2464,2.0197 -6.7947,5.0117 -10.1067,6.6485 -5.4014,2.6695 -6.777,3.0023 -13.3476,3.2257 -8.796,0.2989 -10.9998,-0.5151 -16.5286,-6.1024 -5.037,-5.0904 -5.8523,-7.9205 -5.5067,-19.121 -0.5742,-9.4418 1.1005,-9.7496 7.58,-16.0822 5.416,-5.2921 7.9847,-8.5175 9.9341,-12.4772 1.4459,-2.9371 2.9472,-5.3399 3.3371,-5.3399 z m 16.3289,14.4341 c -1.7011,0 -2.0216,0.3725 -2.0216,2.3481 0,1.2917 0.5829,2.9322 1.2957,3.645 0.7127,0.7127 1.6798,1.1676 2.1484,1.0114 3.3633,-1.1211 2.1684,-7.0045 -1.4225,-7.0045 z m -12.8754,4.8114 c -1.6508,0 -1.9769,0.3867 -1.9769,2.3481 0,1.2917 0.567,2.9152 1.2592,3.6074 0.95,0.95 1.6377,1.0553 2.8063,0.4299 2.8537,-1.5273 1.2648,-6.3854 -2.0886,-6.3854 z m 19.0776,19.3594 c -1.2182,0.044 -3.1319,0.97 -6.1869,2.8557 -6.5585,4.0481 -12.1004,4.5164 -18.0521,1.527 -3.8904,-1.954 -5.636,-2.1202 -5.636,-0.5368 0,1.0879 6.3596,7.2939 8.2578,8.0581 2.8366,1.1422 10.493,0.9158 14.2838,-0.4217 5.5787,-1.9682 10.1026,-6.9388 9.1236,-10.0233 -0.316,-0.9956 -0.8427,-1.4934 -1.7902,-1.459 z m -53.6441,59.2766 c 0.3786,-0.028 0.4741,0.8021 0.2126,1.8443 -2.0992,8.3637 -2.7344,26.80115 -1.2721,36.91696 0.4398,3.04302 0.6286,5.7039 0.4193,5.91319 -0.2093,0.20924 -2.6516,-1.76661 -5.4269,-4.3908 -2.7753,-2.62419 -7.3021,-6.47835 -10.0586,-8.56559 -5.8993,-4.46707 -6.2292,-5.94879 -2.4057,-10.80096 5.0965,-6.4674 17.8541,-20.8671 18.5314,-20.9171 z" fill="#00B894" transform="translate(18.555369,29.699076) matrix(0.70228619,0,0,0.70228619,1587.5492,670.41022)"/>
</svg>