<?xml version="1.0" ?><svg height="133.24892mm" viewBox="0 0 117.14583 133.24892" width="117.14583mm" xmlns="http://www.w3.org/2000/svg">
    <path d="m 273.64141,119.22299 c -2.74515,3.18569 -2.84104,8.29989 -2.84104,8.29989 0,0 -3.39527,1.52811 -4.50297,7.76948 -1.10769,6.24135 5.89938,9.56795 8.92145,12.36356 7.34714,3.3671 13.57957,2.81529 19.10138,-4.24133 1.93623,-0.50944 4.46433,-3.09133 4.41287,-5.78908 -0.0514,-2.69776 -0.63053,-4.45756 -2.29015,-5.26226 -0.31409,-0.15229 -0.68962,-0.20974 -1.09259,-0.20326 0.16045,-3.55053 0.17193,-6.94383 -0.0579,-8.42021 -0.5348,-3.43626 -4.8405,-7.74402 -8.2599,-8.7409 -4.13434,-1.01028 -11.12206,1.76595 -13.39119,4.22411 z m 14.01884,-0.64921 c 1.34901,2.12695 0.85042,4.16301 0.85042,4.16301 -2.40521,-0.28862 -10.3207,1.31448 -10.3207,1.31448 0,0 2.63119,-5.48729 4.30787,-6.34685 1.903,-1.03485 4.14816,-0.67255 5.16241,0.86936 z m -8.66597,34.74119 c -3.03967,-0.0188 -6.2554,0.66595 -7.51962,1.32965 -2.02274,1.0619 -4.13004,8.98306 -3.67251,14.05417 1.3485,4.7677 22.02125,2.54634 22.76724,0.60722 0.74598,-1.93914 0.5546,-4.32384 -0.70963,-7.35783 -1.2642,-3.034 -2.74504,-5.88421 -6.04406,-7.68295 -1.23712,-0.67453 -2.99761,-0.93895 -4.82142,-0.95026 z" fill="#FFFFFF" transform="translate(-153.33391,-39.53545) matrix(2.2934124,0,0,2.2934124,-454.11538,-220.65611)"/>
    <path d="m 290.36761,169.67396 c -0.0861,-0.24253 -0.47022,-1.86972 -0.85367,-3.61597 -1.31912,-6.00727 -2.12939,-7.52908 -4.98424,-9.36103 -3.15647,-2.02549 -8.10863,-2.66891 -11.25646,-1.46252 -1.05712,0.40514 -1.89652,1.06527 -2.55491,2.00928 -1.1835,1.69692 -2.3971,6.24313 -2.3971,8.97966 0,4.02187 -1.87738,4.22955 -2.29386,0.25375 -0.41287,-3.94135 1.28008,-9.79468 3.40547,-11.77434 1.73899,-1.61976 3.75519,-2.21136 7.53145,-2.20991 6.04726,0.002 9.98841,1.83317 17.06255,7.92632 2.3994,2.06667 5.64637,5.93255 5.80545,5.77079 0.53973,-0.54885 0.97131,-8.2313 1.53414,-11.42091 0.30814,-1.74625 0.52523,-4.1275 0.48244,-5.29166 -0.20438,-5.55958 -0.1457,-7.13183 0.30674,-8.21841 0.309,-0.74209 0.68965,-1.12368 1.052,-1.05459 0.44769,0.0853 0.58972,0.64852 0.67145,2.66215 0.057,1.40465 0.22853,2.5539 0.38117,2.5539 0.59336,0 2.49582,-3.14661 2.89774,-4.7928 0.54472,-2.23107 0.93127,-2.96831 1.55633,-2.96831 1.22704,0 1.49182,3.02273 0.44808,5.11528 -0.84957,1.70327 1.31086,-0.93512 2.37062,-2.89507 1.14096,-2.11015 1.76677,-2.4822 2.42362,-1.44087 0.29365,0.46552 0.18366,0.98816 -0.48256,2.29306 -0.47459,0.92955 -0.92591,1.82845 -1.00293,1.99754 -0.077,0.1691 0.33633,-0.0448 0.91855,-0.4752 1.99073,-1.47181 3.33739,-0.17973 1.87468,1.79869 -0.74573,1.00865 -0.74594,1.0149 -0.0342,1.0149 0.40136,0 0.71612,0.23259 0.71612,0.52917 0,0.82491 -1.29853,1.92574 -3.47558,2.94642 -1.65057,0.77384 -2.49191,0.93414 -4.9029,0.93414 -2.90452,0 -2.91041,0.002 -2.91041,0.92393 0,3.03446 -0.72564,13.02584 -2.27188,16.31354 -1.45016,3.08341 -2.72627,3.06613 -6.12781,-0.0831 -2.46592,-2.28301 -5.35866,-5.86248 -5.35866,-5.38331 0,0.19461 0.14913,0.74609 0.33141,1.2255 0.5001,1.31539 1.12978,6.3944 0.87505,7.05823 -0.26163,0.68177 -1.51009,0.78362 -1.73787,0.14174 z m 1.30752,-17.97404 c -0.23282,-0.23284 -0.42333,-0.75671 -0.42333,-1.16417 0,-1.02277 0.66082,-1.5875 1.85763,-1.5875 1.51741,0 2.22915,-0.53075 2.87444,-2.14349 0.64259,-1.606 0.4694,-2.7954 -0.40705,-2.7954 -0.31147,0 -1.6301,1.15448 -2.93028,2.56552 -2.72693,2.95942 -4.89815,4.26857 -8.00933,4.82927 -4.53492,0.8173 -9.39219,-1.02483 -12.76235,-4.84011 -0.98406,-1.11403 -2.37917,-2.34301 -3.10026,-2.73107 -2.43965,-1.31291 -4.27767,-5.41545 -3.84395,-8.57983 0.28985,-2.11468 1.61597,-4.94371 3.10875,-6.63195 0.90452,-1.02295 1.40879,-2.12639 1.99592,-4.36739 0.43208,-1.64923 1.20859,-3.61027 1.72558,-4.35785 2.28627,-3.30607 6.69207,-5.63896 12.08256,-6.39776 2.05885,-0.28983 5.59682,0.80753 7.76112,2.40722 3.39658,2.51052 4.69605,5.87824 4.51783,11.70844 l -0.10811,3.53644 1.46695,1.32608 c 2.39742,2.16719 2.89074,6.16476 1.1199,9.07504 -0.59048,0.97042 -0.73254,1.7336 -0.6874,3.69267 0.0672,2.91509 -0.5338,4.15213 -2.82265,5.81017 -1.55778,1.12844 -2.71454,1.34709 -3.41597,0.64567 z m -5.45539,-3.0453 c 3.09948,-1.25898 6.27781,-4.62277 6.97966,-7.38693 0.41447,-1.63235 0.46704,-1.87132 0.46704,-1.87132 -2.70575,-1.0905 -1.43908,-2.71122 0.0961,-2.61895 l -0.11435,-2.64584 c -0.1882,-4.35473 -2.45445,-7.81912 -5.87802,-8.98564 -1.84904,-0.63003 -5.60372,-0.70185 -8.14947,-0.15588 -1.41411,0.30327 -1.89731,0.59472 -2.31043,1.39359 -0.71613,1.38484 -0.6746,1.70384 0.53152,4.08225 1.34603,2.65432 1.4801,6.10869 0.32934,8.48582 -0.7876,1.62696 -3.67856,4.70486 -4.41912,4.70486 -0.9246,0 -0.89011,0.79588 0.0783,1.80666 1.02154,1.06627 4.68509,3.26971 5.95623,3.58239 1.60017,0.39361 5.01212,0.18623 6.43323,-0.39101 z m -2.73457,-2.47983 c -0.8563,-0.85629 -1.05283,-1.34884 -1.05283,-2.63861 0,-3.11641 0.83991,-3.76128 3.52196,-2.70412 0.98771,0.38932 2.56427,0.70786 3.50347,0.70786 2.83934,0 3.16036,1.4377 0.44239,1.9813 -0.99271,0.19854 -3.15824,-0.15696 -4.80467,-0.78876 -0.49604,-0.19034 -0.58212,-0.051 -0.48639,0.7874 0.0862,0.75513 0.43574,1.17806 1.35103,1.6348 1.70297,0.84979 1.65673,1.81843 -0.0937,1.96313 -1.08535,0.0897 -1.52107,-0.0828 -2.38125,-0.943 z m 1.60016,-10.97331 c -0.36476,-0.5902 0.17274,-2.50449 0.76728,-2.73264 0.71312,-0.27365 1.19385,0.54393 1.08137,1.83913 -0.0676,0.77886 -0.29271,1.08695 -0.85237,1.1667 -0.41825,0.0596 -0.86658,-0.0633 -0.99628,-0.27319 z m 4.28499,0.10603 c -0.70456,-0.70456 -0.0681,-2.93982 0.83711,-2.93982 0.76327,0 1.19423,1.11878 0.89311,2.31852 -0.20432,0.8141 -1.1852,1.16632 -1.73022,0.6213 z m -15.41716,4.86741 c 2.55805,-2.55805 3.08185,-5.04722 1.72554,-8.20004 -0.83474,-1.94042 -2.08731,-2.83263 -4.05501,-2.88841 -1.57086,-0.0445 -3.0853,1.42519 -4.007,3.88865 -1.12253,3.00024 -0.83329,5.3722 0.9476,7.77105 0.71292,0.96029 1.0802,1.14652 2.26114,1.14652 1.21653,0 1.64561,-0.23565 3.12773,-1.71777 z m 23.78634,-3.41655 c -0.1405,-1.50873 -0.54813,-2.48285 -0.94845,-2.88317 -0.5653,-0.5653 -0.60005,-0.48778 -0.59496,1.32731 0.003,1.06023 0.0579,1.95149 0.0579,1.95149 1.28447,0.41423 0.98503,2.40857 -0.16452,2.18977 0,0 -0.58958,2.54892 -0.27945,2.54892 1.78066,-1.509 2.07254,-3.59761 1.92943,-5.13432 z m -22.02785,-10.99204 c 0.54226,-2.15354 2.54728,-6.31538 3.73815,-7.75936 l 0.93321,-1.13156 -1.02442,0.2938 c -3.92059,1.12441 -6.97965,4.4096 -7.99306,8.5839 -0.21317,0.87806 -0.1428,0.97249 0.74134,0.99494 0.53728,0.0136 1.29436,0.16122 1.68242,0.32798 1.25884,0.54094 1.49726,0.37851 1.92236,-1.3097 z m 17.83535,-2.0831 c -0.55462,-2.49289 -0.7668,-2.88594 -2.48611,-4.60525 -1.49746,-1.49746 -2.11215,-1.87973 -3.02257,-1.87973 h -1.14283 l 0.72578,0.79375 c 1.00959,1.10413 1.86665,2.89232 1.86665,3.89462 0,0.61234 0.57891,1.29242 2.11667,2.4866 1.16415,0.90405 2.11666,1.82911 2.11666,2.05568 0,0.22657 0.0972,0.31472 0.21606,0.19589 0.11883,-0.11884 -0.0568,-1.44254 -0.39031,-2.94156 z m -8.7466,-1.48171 c 2.31031,0.0885 2.92509,0.009 2.92444,-0.37623 -0.002,-1.09595 -0.85715,-3.23414 -1.5522,-3.88038 -0.66885,-0.62188 -0.87126,-0.64462 -2.06139,-0.23163 -0.72584,0.25187 -1.69589,0.70443 -2.15565,1.00568 -0.78412,0.51377 -3.05104,3.59198 -3.05104,4.14295 0,0.13807 0.66838,0.0207 1.48528,-0.26069 0.97015,-0.33424 2.49985,-0.47287 4.41056,-0.3997 z" fill="#00B894" transform="translate(-153.33391,-39.53545) matrix(2.2934124,0,0,2.2934124,-454.11538,-220.65611)"/>
</svg>