<?xml version="1.0" ?><svg height="176.56682mm" viewBox="0 0 710.40411 176.56682" width="710.40411mm" xmlns="http://www.w3.org/2000/svg">
    <path d="m 4496.5164,3263.0084 -65.38,51.5462 -123.2007,110.5261 c 1.4025,3.9272 51.4309,3.2256 51.4309,3.2256 0,0 6.3119,-14.096 8.1044,-16.831 1.7923,-2.735 22.5982,-14.5872 22.5982,-14.5872 0,0 0.9721,-0.7968 1.4314,-1.171 -0.6003,0.6498 -1.1406,1.3015 -1.587,1.9425 -3.6624,5.26 -13.5591,6.3113 -19.4035,12.2726 -5.8444,5.9611 -5.2211,7.0133 -7.4031,17.3225 0,0 608.3684,1.2622 624.8109,2.2438 14.3807,0.8588 20.1774,-33.2582 20.9879,-48.5841 0.2452,-0.1959 0.4867,-0.4202 0.7338,-0.7002 2.0756,-2.3524 2.7739,-15.4563 -0.6589,-15.9122 0.1822,-10.3738 0.5789,-25.1679 0.6873,-38.745 1.3435,-0.057 2.4402,-0.3306 3.1342,-0.988 2.1005,-1.9898 -0.03,-9.3614 -3.13,-11.0955 -0.1454,-10.5076 -0.7019,-17.966 -2.1167,-17.4335 -1.9238,0.7239 -6.0418,0.7093 -10.3219,0.3917 4.6944,-0.2881 8.4512,-0.8124 8.4512,-0.8124 l 0.6237,-23.9846 z m 159.2807,21.0395 15.5076,3.7171 29.5336,1.262 36.3683,2.6463 c -1.2944,0.029 -5.7224,0.1587 -6.0549,0.1587 -3.1171,0 -55.5615,-2.3844 -55.5615,-2.3844 0,0 -15.5072,-3.9973 -19.715,-3.8571 -2.0089,0.067 -6.3569,1.644 -11.0996,3.3486 5.5015,-2.1924 11.0215,-4.8912 11.0215,-4.8912 z m 189.6722,2.3141 c 0,0 6.408,0.4774 11.0587,0.8227 -1.8395,-0.088 -4.9121,-0.2192 -5.4482,-0.2615 -4.4416,-0.3506 -6.3904,-0.4907 -10.91,2.8055 -4.5196,3.2959 -10.6757,2.5247 -16.9875,2.3844 -4.778,-0.1064 -20.2387,-1.4137 -29.0427,-1.8929 7.591,-0.2473 13.9051,-0.3989 16.107,-0.2812 7.8706,0.4207 24.7804,1.5426 24.7804,1.5426 z m -276.7935,0.4207 20.2153,3.5057 c -7.2104,-0.053 -18.2671,-1.8226 -18.2671,-1.8226 0,0 -10.9096,1.3328 -15.6631,2.5951 -4.7535,1.2624 -57.7434,1.8235 -60.4707,3.1559 -2.7276,1.3327 -4.4417,8.3455 -7.4807,12.483 -3.0393,4.1379 -11.6892,6.8729 -11.6892,6.8729 0,0 -8.9615,17.1119 -12.6241,22.5821 -2.554,3.8146 -8.7559,6.3532 -13.7464,8.3101 4.3576,-2.5065 9.0767,-5.2954 11.5647,-7.0476 5.3769,-3.787 9.9746,-19.777 10.7538,-22.302 0.7792,-2.5246 11.8447,-8.9062 15.2735,-11.2205 3.4287,-2.3143 7.3252,-11.221 7.3252,-11.221 0,0 49.7946,-3.0152 57.9768,-2.5244 8.1823,0.4908 16.832,-3.3667 16.832,-3.3667 z m 43.015,1.543 c 3.7404,0.3508 18.7023,3.4362 23.6895,3.3662 0.8252,-0.012 1.9959,-0.2773 3.2757,-0.6315 -3.1893,1.0599 -6.2423,1.9546 -8.5741,2.2449 -7.2084,0.8969 -21.2177,-4.6728 -21.6674,-4.8525 1.3677,-0.121 2.5745,-0.1929 3.2763,-0.1271 z m 324.1988,3.0282 c 4.2243,0.2626 7.8781,0.5518 9.8702,0.8992 5.1288,0.8944 12.4607,1.0249 19.3931,1.28 -0.5418,0.054 -1.0518,0.1126 -1.3921,0.1928 -1.8952,0.4467 -15.4924,-1.0257 -27.8712,-2.372 z m -518.5761,78.9544 c -0.3092,0.4888 -0.6253,0.9755 -0.9049,1.4728 -3.3507,5.9611 -13.0136,14.6575 -13.0136,14.6575 0,0 -1.7561,1.1179 -3.897,2.6158 5.4626,-4.6342 11.371,-9.8562 12.2349,-11.5222 0.6941,-1.3386 2.9773,-4.2443 5.5806,-7.2239 z" fill="#FFFFFF" paint-order="markers stroke fill" transform="translate(-203.56064,200.28762) translate(-4099.6784,-3459.6293)"/>
    <path d="m 4873.5055,3435.7208 c -17.9757,-0.4674 -43.2307,-1.1647 -55.6087,-0.9475 -19.6162,0.3444 -74.2768,-3.4518 -236.5593,-1.3438 -212.5311,2.759 -265.3217,2.5388 -273.7199,-1.148 -9.2927,-4.0802 -6.077,-8.5175 32.2378,-44.4932 49.8561,-46.8121 115.9117,-98.4363 143.3054,-122.2827 7.1928,-6.2614 9.1611,-5.9482 22.8457,-5.8908 l 116.9654,-0.072 c 122.0956,-0.075 161.0184,-1.1186 256.9625,2.4104 21.2057,0.7801 57.6909,1.7499 81.0788,2.1545 43.1726,0.7472 49.4626,1.8041 47.2088,7.9301 -1.1932,3.2431 -36.86,4.0618 -77.6595,1.782 -68.1265,-3.8067 -176.8301,-5.1629 -268.9354,-5.6954 -55.5151,-0.321 -114.7181,-0.9634 -131.5629,-1.4277 l -30.6269,-0.845 0.618,12.3341 c 0.3383,6.7841 0.3473,11.4021 0.9237,11.9626 0.5762,0.5606 7.4529,1.3551 14.3761,0.065 6.9229,-1.2896 20.6808,-2.2712 30.5721,-2.1813 11.4478,0.1016 18.8992,-0.6152 20.4995,-1.9831 1.8924,-1.6148 3.4953,-1.639 6.4745,-0.09 2.2245,1.1515 15.2698,2.4656 24.6556,1.3136 9.8899,-1.2139 14.978,-2.0047 22.4638,0.7789 9.8969,3.6803 19.8816,0.2984 25.1883,-2.0081 8.2863,-3.5978 14.4672,-3.9241 19.9844,-1.0558 4.4418,2.3101 45.6979,5.142 67.3815,4.6256 7.5669,-0.1827 29.4422,-0.756 48.611,-1.2766 19.1694,-0.5201 39.2194,-0.3347 44.5571,0.4216 8.1013,1.1442 10.2888,0.8262 13.2465,-1.9264 3.1615,-2.9411 4.983,-3.1022 16.9025,-1.4954 7.3483,0.9908 24.9184,1.6158 39.0446,1.3885 14.1266,-0.2475 31.4793,0.5605 38.5607,1.7505 7.0815,1.1899 19.8943,2.1669 28.4731,2.171 8.5792,0.01 19.1126,0.9718 23.4078,2.1509 4.5567,1.2504 11.8236,1.6283 17.4456,0.9071 8.7104,-1.1178 9.3174,-0.9711 6.321,1.5293 -5.3918,4.4982 -19.7475,5.8475 -27.7999,2.6132 -5.4075,-2.1724 -8.4772,-2.3702 -13.5824,-0.8759 -8.7237,2.5541 -19.6734,2.6228 -24.4437,0.1563 -4.9055,-2.5388 -36.1859,-5.0115 -65.7426,-5.1971 -12.6174,-0.08 -25.038,-0.9768 -27.602,-1.9946 -3.756,-1.491 -5.4846,-1.1653 -8.8966,1.6768 -4.8139,4.0094 -14.4064,4.5371 -23.7299,1.3058 -4.1344,-1.4325 -10.426,-1.628 -19.2765,-0.5988 -12.6775,1.4748 -36.6799,2.6008 -65.4212,3.0693 -7.5701,0.1047 -16.5819,-0.7147 -20.0262,-1.8618 -3.444,-1.1489 -12.8957,-1.996 -21.0042,-1.8837 -8.1084,0.1122 -19.552,-1.0741 -25.4313,-2.636 -10.3232,-2.743 -10.9974,-2.7024 -19.7119,1.1904 -10.7004,4.7797 -22.9316,5.324 -32.9702,1.4675 -5.4794,-2.1046 -8.176,-2.2936 -10.9373,-0.7663 -4.2165,2.3322 -23.2298,2.7539 -28.6995,0.6366 -2.2131,-0.8568 -4.7084,-0.5871 -6.2348,0.6735 -1.5146,1.2512 -8.565,2.0333 -17.4063,1.9314 -19.5866,-0.2283 -23.2272,-0.1466 -40.4953,0.8621 -14.472,0.8464 -14.6411,0.9132 -15.9625,6.3184 0.5083,2.9751 -2.247,7.2604 -7.5523,8.3714 -3.3145,0.6941 -7.9746,3.8073 -7.9746,3.8073 0,0 37.899,0.6471 51.0857,0.5422 6.1608,0.8803 7.665,-2.2479 11.6115,-6.55 6.9692,-7.5979 14.9145,-8.7804 20.2766,-3.0178 3.1507,3.3864 3.5987,2.5114 7.6756,-0.2416 2.4093,-1.6266 9.2219,-3.09 11.9363,-1.28 4.2607,2.841 5.5938,0.9359 8.3685,-1.4355 4.0463,-3.4584 11.8373,-3.391 15.2221,-0.8389 4.0488,3.0527 4.5629,2.5259 7.2738,0.7802 2.8078,-1.8081 7.858,-2.0266 11.3334,1.7422 2.9951,3.2478 5.1767,2.1853 6.6698,0.7578 3.8571,-3.688 12.4507,-2.5042 16.1902,1.2415 1.3259,1.3281 2.6459,1.0099 4.2482,-0.9764 4.8357,-5.9933 15.0605,-2.5939 18.2102,6.0545 l 2.0092,5.5161 42.7555,-0.3471 c 23.5153,-0.1901 46.4398,-0.1902 50.943,0 4.5031,0.1926 45.3826,0.4347 90.8425,0.5421 45.4603,0.1085 85.7724,0.3954 89.5829,0.6387 3.8099,0.2437 7.9446,-0.6042 9.1867,-1.8812 6.6202,-6.8054 16.1473,-8.5623 22.6087,-4.1689 3.1565,2.1468 3.6449,3.0811 7.9528,0.453 4.5164,-2.7552 10.4295,-1.9272 12.7238,-0.5557 1.7597,1.0515 4.0996,1.6277 7.7585,1.1387 7.904,-1.0557 11.1695,2.1701 3.7971,3.7508 -3.146,0.6745 -5.9301,2.9572 -7.2362,5.9323 -2.1204,4.8295 -5.777,4.8874 -5.8435,0.081 -0.064,-4.6317 -3.9535,-4.9711 -8.3469,-0.7277 -2.3853,2.3042 -3.8914,4.8888 -3.3463,5.7439 0.545,0.8553 -1.9354,2.9836 -5.2753,2.9585 -4.2299,-0.03 -4.9063,-1.8933 -2.672,-2.8147 2.9715,-1.2237 2.9866,-1.6275 0.205,-5.4819 -3.9945,-5.5388 -13.757,-4.7758 -16.3125,1.2754 -2.1514,5.0937 -3.8285,5.2666 -6.3772,0.6589 -1.8422,-3.3301 -4.4363,-3.5122 -45.5265,-3.1969 -23.9654,0.1808 -47.7045,0.1452 -52.7543,-0.079 -5.0493,-0.2266 -50.8819,-0.3997 -101.8501,-0.383 -74.7136,0.025 -90.374,1.8813 -92.2203,-2.3691 -0.5351,-1.2318 -0.9041,-3.4924 -2.559,-4.8272 -2.5676,-2.0717 -3.3769,-1.9101 -5.5142,1.0995 -1.3781,1.94 -2.4903,4.6083 -2.472,5.9287 0.062,4.492 -3.8191,2.4764 -5.822,-3.0227 -2.0141,-5.5313 -3.2411,-6.2009 -9.8923,-5.4004 -6.8021,0.8187 -11.4707,7.5312 -5.1773,7.4441 2.4375,-0.034 3.4965,1.8418 1.0825,3.3594 -2.9186,1.8349 -8.3695,3.0391 -11.2094,-0.2896 -1.655,-1.9388 -1.6565,-2.7236 0.01,-3.2991 1.6514,-0.5763 1.6474,-1.6894 -0.013,-4.6975 -2.4659,-4.4585 -6.6941,-3.6827 -9.5019,1.743 -2.3263,4.4953 -7.1613,4.5679 -7.2232,0.1 -0.07,-5.0957 -5.2003,-8.6586 -8.9566,-6.2201 -4.3656,2.834 -4.7198,7.8659 -0.7729,10.9759 3.0929,2.4369 2.5959,3.6642 -6.0165,2.8034 -6.928,-0.6922 -11.2473,-0.084 -15.9767,2.253 -5.4216,2.678 -7.3055,2.8409 -11.5121,0.9942 -3.6076,-1.5839 -4.4373,-3.6955 -2.7605,-4.7642 1.286,-0.8195 2.0324,-3.4567 1.6584,-5.8609 -0.5423,-3.4813 -1.7826,-4.3552 -6.1012,-4.2954 -4.1934,0.058 -5.6406,1.0643 -6.3887,4.4422 -1.616,6.1486 -17.7239,4.5051 -36.3135,4.5281 l -35.3454,0.1615 -2.546,6.3382 c -4.2224,10.5117 -11.3658,17.777 -19.6491,19.9854 -5.491,1.4632 -8.7111,3.7788 -11.622,8.3566 -2.2151,3.4825 -7.4669,6.5225 -11.2976,8.5444 -3.8306,2.0213 -7.7587,6.5026 -9.1038,8.1691 -2.2481,2.7865 0.13,2.9585 29.5135,2.1372 30.7292,-0.8569 32.1111,-1.0581 35.9396,-5.1945 4.3199,-4.6674 9.6019,-5.514 15.4657,-2.4797 2.9146,1.5081 4.4713,1.239 7.1291,-1.2337 3.9729,-3.6967 14.589,-2.6873 18.3742,1.7468 2.0526,2.4049 1.897,1.455 4.8367,-1.2817 2.3818,-2.216 10.2884,-3.3953 13.4902,0.164 2.8944,3.2176 2.0371,1.7162 4.9867,-0.7899 3.8016,-3.2302 13.0055,-1.8791 14.5069,0.6768 2.0328,3.4603 0.8949,1.6057 4.8748,-0.7283 4.5612,-2.6754 10.0532,-3.801 15.3728,0.019 5.2675,3.7827 2.8143,3.6949 6.5096,1.0293 6.4266,-4.6346 14.8957,-5.687 18.5373,2.5627 l 2.8835,6.5323 55.6832,-0.1491 c 30.5731,-0.082 54.935,-0.031 55.5246,0.8941 2.0901,3.2798 -18.9106,4.524 -65.1246,3.8574 -33.7233,-0.4863 -47.4754,-0.098 -48.3515,1.364 -2.2818,3.8096 -6.8023,2.3631 -6.2981,-2.0149 0.5759,-5.0031 -1.5429,-8.6956 -4.9628,-8.6482 -2.601,0.036 -5.5586,6.6184 -4.7482,10.5654 0.5355,2.6047 -8.4391,4.7435 -12.6561,3.8404 -4.5065,-0.965 -3.3247,-5.433 0.099,-4.074 2.9166,1.1577 2.2462,-0.442 -1.2056,-5.5528 -3.8438,-5.6932 -6.9129,-5.6319 -10.6274,0.209 -3.1761,5.5232 -5.7771,4.9075 -8.0913,0.112 -3.2408,-6.8594 -9.1929,-5.8594 -12.3819,2.0805 -3.1438,7.8272 -6.1786,6.8393 -6.3017,-2.0518 -0.082,-5.8982 -0.4992,-6.3808 -4.9904,-5.7865 -3.1747,0.4183 -5.9211,2.5574 -7.7947,6.0669 -4.0693,7.6232 -7.2833,8.2046 -7.3784,1.3338 -0.061,-4.4316 -1.0302,-5.847 -4.5758,-6.6848 -6.0616,-1.4325 -7.7291,-0.034 -9.0496,7.5829 -1.4286,8.2443 -7.689,9.3359 -8.6987,1.5171 -0.5183,-3.9976 -1.5973,-5.0241 -5.2372,-4.9737 -3.8335,0.053 -4.6676,1.0435 -5.0786,6.034 -0.5386,6.5274 -2.2243,7.4838 -5.8023,3.2918 -1.9168,-2.2455 -8.2929,-2.6249 -36.4972,-2.1733 l -34.1751,0.546 c -2.9318,0.047 -2.929,4.1664 -6.2769,5.5174 -6.7525,2.7249 -10.6975,8.5664 -14.9342,12.5271 -4.6526,4.3494 -10.5559,6.9865 -13.9325,8.1867 -8.9217,3.1712 -9.1386,9.9874 -10.4411,16.9753 l 213.5522,-2.5565 c 191.9575,-2.298 213.2994,1.9171 249.5533,1.9946 26.7662,0.057 53.4042,0.5702 90.4606,-0.034 28.758,-0.471 55.3246,-0.4432 59.0371,0.052 6.8634,0.9192 11.8016,7.4619 7.3207,7.6559 -38.3083,1.6583 -78.1931,4.4875 -114.488,3.5439 z m -499.2328,-32.0967 c 5.1386,-0.9178 8.791,-3.1892 13.0701,-8.216 3.2651,-3.8357 8.4568,-8.0933 11.5376,-9.4614 4.8913,-2.1721 7.5125,-4.8891 6.6484,-5.1164 -3.4134,-0.898 -12.0025,-0.8492 -17.5801,-0.8385 -10.7866,0.019 -13.6789,-1.7203 -10.1415,-6.1044 2.4681,-3.059 9.0563,-3.7567 9.0949,-0.9627 0.014,1.0265 5.057,1.657 11.4519,1.6766 6.2692,0.019 9.3259,-0.244 11.7249,-0.3504 3.3252,-3.8189 4.9919,-11.0897 17.7101,-17.2002 2.9876,-1.4354 6.2734,-6.3425 7.901,-9.8798 2.4688,-5.368 3.7272,-6.2952 7.6104,-5.6088 9.8221,1.7373 20.578,-8.9387 23.775,-22.2005 -2.6686,-0.1792 -5.0272,-0.5298 -8.5389,-0.5747 -4.1597,-0.053 -7.9766,1.0518 -9.9388,2.3153 -4.9563,3.1913 -9.1373,-0.5315 -5.5674,-4.9566 1.8821,-2.3324 4.725,-2.8072 13.1773,-2.2001 9.2934,0.6683 9.7458,-0.101 13.2622,-0.263 3.7595,-5.8917 8.1225,-6.6336 11.9192,-8.9093 2.7516,-1.6493 3.4445,-3.3942 6.1207,-8.4781 2.6761,-5.0837 4.5988,-4.7184 6.5567,-5.7609 -0.2762,-4.109 0.8792,-12.9131 -1.3572,-19.6616 -0.5211,-1.5679 -4.4194,0.8247 -11.2304,6.888 -5.7396,5.1095 -20.7029,17.963 -33.2526,28.5636 -45.985,38.8434 -62.6918,53.2821 -84.9764,73.4387 -24.341,22.0176 -41.8412,37.0804 -49.1162,42.2768 -4.3401,3.0999 -3.6669,3.1862 19.3488,2.485 l 23.8456,-0.7253 c 3.0763,-7.9629 9.4831,-18.8426 16.9447,-20.1753 z m 205.3891,-86.5838 c 3.1927,-0.044 3.7595,-4.718 0.788,-6.4979 -3.2298,-1.9351 -10.6522,0.9204 -12.7051,4.8875 -2.8842,5.5725 -0.3208,8.0125 4.7878,4.5616 2.3722,-1.6015 5.5804,-2.9298 7.1293,-2.9512 z m 279.6478,95.807 c -5.7828,-4.2501 -1.1816,-4.8412 2.4594,-3.5256 2.0285,0.7336 6.3615,1.7446 9.6289,2.2472 7.0269,1.0803 6.2313,4.1109 -1.1059,4.2125 -3.808,-1.5002 -7.0736,-0.8004 -10.9824,-2.9341 z m 33.2115,-2.259 c -5.2152,-2.0209 -2.0146,-5.1832 5.4363,-5.3717 4.2852,-0.1113 10.9139,-1.7618 14.7309,-3.6749 5.201,-2.6067 7.4729,-2.9607 9.0642,-1.4129 2.6067,2.5358 16.4971,2.5469 18.9599,0.013 1.1703,-1.2031 3.9473,-1.2562 8.0078,-0.1628 3.4195,0.9296 8.1378,1.18 10.4856,0.5561 3.122,-0.8298 4.2792,-0.3557 4.3085,1.7609 0.035,2.5026 -3.0089,2.8807 -22.4407,2.786 -18.4091,-0.089 -23.623,0.4934 -28.7867,3.2069 -6.0312,3.1707 -14.8506,4.1911 -19.766,2.2866 z m 88.9214,-5.6676 c -5.83,-3.288 -3.4365,-4.6751 4.9285,-2.8558 5.0202,1.092 7.3518,2.3425 6.0084,3.2226 -2.99,1.9587 -7.0558,1.8225 -10.9369,-0.3689 z m -567.0897,6.7715 c -2.2478,-2.1863 -1.3589,-6.0978 1.395,-6.1359 1.4868,-0.021 6.3891,-1.8919 10.8946,-4.1581 7.8871,-3.9679 8.3272,-4.0009 11.8632,-0.8889 2.8031,2.467 6.4829,3.5483 13.1486,2.4174 5.8603,-0.9943 13.8848,-1.5979 18.955,-0.3588 7.6123,1.8604 9.6735,5.9608 -2.9323,5.8823 -5.2991,-0.033 -12.312,0.5138 -15.5835,1.256 -4.0985,0.9317 -7.3226,0.4812 -10.3658,-1.4555 -4.0618,-2.5816 -4.9768,-2.5122 -11.3829,0.8666 -7.0396,3.7126 -13.7173,4.7876 -15.9919,2.5749 z m 115.1667,-4.7536 c -2.397,-1.5664 -8.7287,-2.4282 -17.8981,-2.3013 -8.5817,0.1188 -15.3192,-0.6858 -16.9831,-2.0288 -4.4061,-3.5547 -3.2729,-3.359 4.1146,-4.0627 8.074,-0.7691 14.4399,0.073 14.4399,0.073 11.5839,-6.9096 18.4058,-10.0763 27.817,-5.7241 26.419,8.9783 27.7546,9.1892 42.4916,6.7141 11.9606,-2.0079 14.83,-1.9285 21.0241,0.585 6.8277,2.7702 7.6716,2.7159 17.5179,-1.1225 8.9564,-3.4916 11.4432,-3.7694 18.529,-2.0713 15.6466,3.7498 18.0179,3.7305 28.1699,-0.2286 15.7393,-6.1384 41.0705,-13.0993 52.9643,-14.5539 9.353,-1.1442 11.9284,-2.3873 19.5548,-9.4371 11.5267,-10.6555 34.3622,-25.2403 44.5733,-28.4684 13.2325,-4.1827 39.8446,2.024 55.3022,12.8981 3.9349,2.769 10.3715,5.5102 14.3031,6.0925 12.2815,1.8191 20.4508,13.6535 17.0932,24.7623 -1.6224,5.3694 -4.8544,4.8335 -9.2469,-1.5319 -4.3792,-6.3457 -9.628,-9.301 -6.5112,-3.6654 3.0016,5.4264 -1.0337,6.4618 -5.8899,1.5108 -2.3119,-2.3565 -5.6205,-6.8529 -7.3525,-9.9916 -5.2907,-9.5884 -39.5154,-23.648 -51.375,-21.1045 -6.5461,1.4035 -30.7115,16.763 -40.9409,26.0222 -6.3208,5.3928 -8.8205,5.5709 -4.7255,12.5407 3.9187,6.6695 6.2009,6.0803 8.1843,-2.1144 1.977,-8.168 5.8191,-12.5225 14.8346,-16.8149 9.5473,-4.5447 27.135,-4.9052 35.7365,-0.7337 7.0886,3.439 14.6058,13.0746 16.2857,20.8748 0.596,2.7669 2.2874,5.0145 3.7592,4.9942 1.4718,-0.02 2.3432,0.9995 1.9374,2.2671 -0.7317,2.2806 -8.8858,2.6994 -45.3799,2.3279 -7.5706,-0.077 -17.4786,0.013 -22.0176,0.2009 -4.5391,0.1878 -10.3196,0.1958 -12.8451,0.011 -2.5258,-0.1784 -8.0642,0.7852 -12.3081,2.1475 -6.5977,2.1179 -9.0756,2.0622 -17.1075,-0.3844 -8.0389,-2.449 -11.945,-2.5349 -27.114,-0.599 -13.2384,1.6896 -23.5354,1.7863 -40.6966,0.3811 -14.7006,-1.2025 -25.0307,-1.2412 -28.6838,-0.1077 -3.4914,1.0846 -9.1945,1.1629 -14.678,0.2027 -4.9323,-0.8639 -16.4591,-0.927 -25.6151,-0.1398 -10.7543,0.9245 -17.9763,0.7431 -20.4005,-0.5113 -2.9345,-1.5185 -5.1254,-0.8174 -10.7635,1.7551 -6.7751,1.87 -14.9823,4.4227 -20.0998,1.3363 z m 208.241,-7.7393 c 2.3295,-1.6078 2.0981,-2.3943 -1.5878,-5.4008 -4.6635,-3.8045 -11.6631,-3.4777 -30.5805,1.4271 l -9.1425,2.3701 8.2608,0.2186 c 4.5432,0.1191 9.9218,0.9046 11.9516,1.7436 5.2279,1.0685 16.8001,2.2415 21.0984,-0.3586 z m 29.8101,-1.8467 c 1.6747,-0.1313 7.4171,1.0886 7.4173,-0.3924 6e-4,-4.8678 2.9627,-10.4028 0.1752,-14.1064 -3.0497,-4.052 -7.4216,-2.043 -11.8454,5.4447 -4.4719,10.864 -2.6619,9.5964 4.2529,9.0541 z m 24.9769,-11.4705 c -2.8993,-6.4912 -5.2211,-9.3235 -7.6149,-9.2904 -4.8575,0.067 -4.263,2.1667 2.1674,7.6534 3.6904,3.1491 5.5947,6.4809 5.6416,9.8728 0.051,3.6644 0.6257,4.5486 2.0244,3.1112 1.3981,-1.4379 0.7677,-4.662 -2.2185,-11.347 z m 20.7683,6.8791 c -0.6635,-5.2498 -8.4862,-13.8451 -13.7919,-15.1543 -2.8452,-0.7024 -3.3598,-0.2292 -2.3504,2.1605 1.1869,2.8097 3.9385,10.5477 5.8404,16.4237 0.4621,1.4314 2.8236,2.142 5.8269,1.7541 4.1633,-0.5362 4.9476,-1.4454 4.475,-5.184 z m -28.5146,0 c -0.6058,-1.4552 -1.0347,-1.0144 -1.0929,1.1243 -0.051,1.9347 0.3953,3.0125 0.9963,2.3945 0.6018,-0.618 0.6448,-2.2014 0.097,-3.5188 z m 107.1149,1.7074 c -2.1159,-2.4794 -1.2693,-2.8277 7.1507,-2.9442 6.8197,-0.094 9.345,0.5265 8.8293,2.1717 -1.1025,3.5196 -13.1379,4.1018 -15.98,0.7725 z m -336.5458,-1.5441 c -3.737,-4.016 -3.9323,-5.7646 -0.649,-5.8101 3.135,-0.043 9.0404,6.1902 7.4316,7.8448 -1.9249,1.9788 -3.4831,1.5109 -6.7826,-2.0347 z m 432.4049,-8.1006 c -2.1799,-0.8557 -4.5227,-2.4336 -5.2066,-3.5066 -0.8502,-1.3345 -2.323,-1.3546 -4.6554,-0.066 -4.4127,2.4409 -17.7716,2.6289 -19.2739,0.2667 -0.6374,-1.0008 0.1254,-1.8368 1.7014,-1.8586 3.214,-0.044 3.5426,-1.6012 1.1208,-5.3103 -2.3001,-3.5231 -10.6458,-1.0075 -12.0479,3.6304 -2.0658,6.8352 -7.4594,4.2829 -6.6011,-3.1237 0.1718,-1.4912 -2.178,-2.254 -6.6945,-2.1732 -7.9065,0.1614 -10.3423,1.4138 -12.0764,6.3097 -0.9096,2.5677 -5.8166,3.4666 -6.069,-0.071 -0.1209,-1.6947 -8.515,-0.4941 -18.974,-0.6391 -13.1915,-0.1815 -19.2597,-0.9625 -19.8092,-2.5462 -0.5986,-1.726 3.7399,-2.3458 17.7819,-2.5401 16.1233,-0.2231 21.5888,-0.265 22.0468,-1.1999 5.959,-9.0004 21.3627,-10.1709 25.9189,-6.1106 2.6859,2.3936 4.6276,1.9763 7.0287,0.023 5.9977,-4.8781 14.9058,-1.6046 15.7792,-0.9008 1.5207,1.2268 4.3192,0.7667 8.8015,-1.4477 6.1775,-3.0515 6.9654,-3.0661 13.1004,-0.2433 5.9747,2.7481 6.8995,2.752 10.9122,0.041 3.0298,-2.0455 5.3416,-2.4417 7.4825,-1.2822 2.8437,1.5399 2.8118,1.8909 -0.3933,4.2808 -3.7609,2.8032 -9.6154,10.8605 -9.5832,13.1879 0.011,0.7848 1.8364,1.4014 4.0561,1.3707 2.45,-0.034 3.3603,0.599 2.3162,1.6096 -2.7523,2.6644 -12.351,3.9847 -16.6626,2.292 z m 1.9779,-9.2348 c -3.4592,-6.4689 -9.4452,-7.1376 -15.8778,-1.7736 -5.2617,4.3876 -3.6371,6.6138 2.6563,3.6403 3.7566,-1.7748 5.4377,-1.6378 8.9133,0.7257 6.323,4.2996 7.5874,3.5387 4.3082,-2.5924 z m -426.4912,11.4071 c -0.028,-2.0388 1.1719,-3.6866 2.7009,-3.7078 1.529,-0.021 2.7748,1.5929 2.8031,3.6317 0.028,2.0386 -1.1726,3.6859 -2.7015,3.7071 -1.5291,0.021 -2.7743,-1.5924 -2.8025,-3.631 z m 260.4255,-10.9441 c -0.014,-1.009 3.277,-1.8806 7.3133,-1.9364 4.0369,-0.056 7.3507,0.7242 7.3647,1.7332 0.014,1.0089 -3.277,1.8806 -7.3139,1.9364 -4.0363,0.056 -7.3502,-0.7243 -7.3641,-1.7332 z m -189.2279,-15.732 c -2.1016,-1.3172 -1.3004,-1.7678 3.2941,-1.8527 3.5859,-0.05 5.6168,0.6453 4.962,1.7384 -1.3926,2.3247 -4.6575,2.3699 -8.2561,0.1143 z m 77.0528,-1.4148 c -2.5432,-1.0273 -7.5098,-1.8349 -11.0317,-1.5239 -8.093,0.7146 -9.6653,-1.557 -4.4888,-4.8551 5.1765,-3.2981 11.6898,-2.2741 15.2186,-1.2602 4.8706,1.3999 7.2986,1.6628 18.2682,1.9766 8.1876,0.2352 6.7662,4.6877 -1.6168,5.0649 -3.4434,0.1575 -7.4238,0.9929 -8.9985,1.386 -2.5158,0.6281 -5.2978,0.041 -7.351,-0.7883 z m 199.4502,-8.0634 c -5.8278,-3.2869 -3.4597,-4.5858 8.1087,-4.4493 12.301,0.147 16.2529,3.0531 6.8812,5.0628 -7.8381,1.6804 -11.1644,1.5444 -14.9899,-0.6135 z m -260.1418,-1.6734 c -1.8085,-1.13 -2.4071,-1.2071 -9.4337,-1.7608 -7.0266,-0.5537 -7.7527,-4.4369 -1.0739,-4.2277 6.6788,0.2092 11.5811,0.7673 14.5698,1.4235 2.9887,0.6562 6.0786,0.4232 9.2313,-1.7065 3.1527,-2.1297 5.0447,-2.1837 7.7996,-0.181 2.7549,2.0027 6.4092,2.239 10.495,1.6581 4.0858,-0.5809 6.8702,-0.8548 6.8909,0.6475 0.021,1.5023 -8.9218,3.5637 -15.5491,3.5604 -6.6273,0 -10.7068,0.7863 -13.7461,1.2035 -3.0393,0.4172 -7.3753,0.513 -9.1838,-0.617 z m 297.6857,-3.6982 c -5.4409,-1.84 -1.5637,-3.2009 8.2188,-2.8838 5.8052,0.1902 12.8554,0.3268 15.6673,0.3108 2.811,-0.039 4.6587,0.724 4.1056,1.6477 -0.9996,1.6691 -23.5855,2.4154 -27.9917,0.9253 z m -472.6416,4.505 c -16.5306,-5.3518 2,-5.5547 8.8175,-5.3677 10.3696,0.2208 14.0871,5.5464 6.0435,5.5353 -4.2221,-0.01 -9.2933,0.9655 -14.861,-0.1676 z m 119.0865,-1.77 c -0.5801,-0.91 -5.7958,-1.1599 -11.5903,-0.5549 -9.0458,0.9446 -14.8516,2.0417 -18.8375,-1.3685 -3.827,-3.2725 -0.335,-5.2474 2.7043,-4.1924 7.2982,2.5325 13.3452,2.7605 20.2108,0.7617 5.7359,-1.6691 7.3627,-1.5334 9.0881,0.7585 1.514,2.0118 4.589,2.5924 11.0013,2.0777 4.8956,-0.3954 9.2049,0.1067 9.5766,1.1112 0.8554,2.3097 -20.705,3.6791 -22.1533,1.4067 z m 138.0468,-10.1431 c -2.97,-1.4976 -5.836,-1.822 -7.3516,-0.8325 -3.1977,2.0885 -12.5674,2.292 -12.5953,0.2733 -0.012,-0.8492 3.3162,-2.5947 7.3952,-3.8788 5.6132,-1.7667 8.952,-1.8514 13.7292,-0.346 3.4718,1.0927 7.9004,1.4585 9.8404,0.8132 4.8414,-1.6104 6.6678,1.9639 2.2515,4.4064 -4.7156,2.6084 -7.4113,2.5198 -13.2694,-0.4344 z m 105.3008,-0.1277 c -4.3709,-1.6755 -2.9464,-4.8693 2.4457,-4.1538 2.9704,0.3959 8.5848,0.6388 11.7296,-0.9871 4.4537,-2.2989 6.4707,-2.4959 9.1225,-0.8904 2.6039,1.5765 5.1729,1.4504 10.9192,-0.536 5.7373,-1.9818 8.0286,-2.0951 9.6905,-0.4774 2.6575,2.5848 13.6449,2.6585 15.1769,0.1021 1.685,-2.8121 4.5567,-2.2546 4.6002,0.8934 0.069,4.963 -8.302,7.4654 -17.3368,5.182 -5.9131,-1.4937 -9.5391,-1.4752 -13.7862,0.071 -4.126,1.5027 -6.9981,1.5565 -10.1136,0.1919 -2.901,-1.2732 -6.3324,-1.1774 -10.3978,-0.085 -4.7846,1.2857 -8.4787,2.0584 -12.0502,0.6893 z m -64.1196,-2.6446 c -0.7049,-1.7641 0.6366,-4.7402 3.4318,-7.6139 7.6454,-7.8605 10.892,-1.4502 3.6547,7.2167 -3.3671,4.0322 -5.5837,4.1565 -7.0865,0.3946 z m -267.5922,0.7017 c -2.0494,-1.1183 -6.6782,-1.8259 -10.3193,-1.5145 -4.2785,0.3663 -9.0703,0.5212 -11.0961,-1.4497 -3.7599,-3.6567 -1.094,-6.9935 2.9103,-3.762 1.8781,1.5149 5.4798,1.8307 10.8416,0.9502 6.5476,-1.0742 8.2557,-0.7519 9.2551,1.7477 1.0255,2.5658 3.0851,2.8854 12.6403,1.9593 10.6658,-1.0335 10.7571,1.2191 5.4977,3.2275 -6.2561,2.389 -14.3687,1.7667 -19.7296,-1.1585 z m 288.3319,-3.1407 c -1.6456,-2.5817 13.0303,-9.0311 15.3702,-6.7544 1.2635,1.2283 1.054,2.5291 -0.6393,3.9741 -3.5349,3.0175 -13.394,4.8784 -14.7309,2.7803 z m 37.9199,-24.8215 c -0.6375,-1.0003 0.4948,-1.842 2.51,-1.8699 2.0184,-0.028 4.1912,0.7681 4.8287,1.7684 0.6375,1.0003 -0.4947,1.8421 -2.5099,1.87 -2.0184,0.028 -4.1912,-0.7681 -4.8288,-1.7685 z m -26.076,-1.493 c -3.149,-2.3965 -1.075,-3.5951 3.9995,-2.5589 6.8533,1.3996 7.2661,1.7149 3.9693,3.0323 -1.4511,0.5803 -6.0848,0.9602 -7.9688,-0.4734 z m -114.5557,0.4533 c -3.9302,-3.8048 -1.9613,-6.0888 3.1489,-3.5265 3.9737,1.9918 6.0076,1.9902 11.4687,-0.01 7.8802,-2.8867 28.2712,-2.0402 27.2389,1.1311 -0.3893,1.1987 -4.0784,1.9461 -8.7669,1.776 -12.0896,-0.4378 -12.3303,1.2749 -21.2759,2.3461 -3.3454,0.4006 -9.3661,0.6527 -11.8137,-1.7167 z m 62.8024,-2.4272 c -2.2988,-2.7256 -0.7032,-3.2993 3.4304,-2.2692 2.5321,0.6307 5.6847,1.1431 7.0053,1.1389 1.321,-0.018 1.9033,0.8242 1.2936,1.8417 -1.7235,2.8779 -8.8956,2.6476 -11.7293,-0.7114 z m 116.474,-0.4739 c -0.6264,-0.7992 -4.9341,-1.1432 -9.7512,-0.637 -6.2475,0.6566 -10.8569,0.8659 -13.5034,-1.1934 -3.499,-2.7313 -2.1777,-3.6191 6.0721,-2.6223 5.8757,0.7099 9.6468,0.2879 11.4859,-1.2798 2.2312,-1.9046 3.4062,-1.7492 6.3451,0.8374 2.3718,2.0875 5.5134,2.8679 9.1725,2.2795 3.0607,-0.4949 5.4619,1.2935 1.7976,2.9402 -3.8508,1.7305 -9.3868,2.5229 -11.6186,-0.3246 z" fill="#00B894" transform="translate(-203.56064,200.28762) translate(-4099.6784,-3459.6293)"/>
</svg>