<?xml version="1.0" ?><svg height="412.28857mm" viewBox="0 0 608.20892 412.28857" width="608.20892mm" xmlns="http://www.w3.org/2000/svg">
    <path d="m 36304.939,14476.143 c -14.896,-0.125 -43.48,35.169 -49.234,50.953 -5.94,16.292 27.061,40.22 27.061,40.22 0,0 -18.762,41.578 -12.539,86.551 6.223,44.973 53.647,59.483 86.742,67.375 0,0 28.57,0.693 53.642,-10.308 25.071,-11.001 34.328,-62.666 32.631,-92.875 -1.697,-30.208 -68.17,-74.418 -68.17,-74.418 0,0 -1.036,-21.128 -5.185,-39.371 -4.148,-18.245 -49.123,-25.457 -63.549,-28.002 -0.451,-0.08 -0.918,-0.121 -1.399,-0.125 z m 375.243,160.138 c -16.677,-0.652 -51.375,33.957 -51.375,33.957 l -20.373,71.963 -54.122,32.754 -29.437,78.854 -70.646,-2.713 c 2.27,-19.069 4.785,-42.896 3.91,-48.903 -1.509,-10.352 -53.271,-49.978 -78.446,-52.269 -25.174,-2.291 -72.13,14.255 -75.242,17.31 -2.361,2.319 -29.834,51.206 -44.056,76.424 l -53.004,-2.035 c -165.886,-8.891 -356.121,-6.707 -462.584,-5.947 -356.023,4.929 -770.355,199.864 -812.438,469.219 -20.601,149.335 156.364,57.14 160.748,176.328 2.924,79.48 -56.815,228.886 11.817,336.679 68.632,107.794 306.775,195.889 914.562,208.659 607.786,12.769 806.647,-50.143 1023.102,-240.491 216.454,-190.347 98.432,-414.283 84.007,-447.025 -7.751,-17.596 -20.473,-72.756 5.278,-107.207 184.725,-247.134 48.117,-333.22 -34.612,-356.063 l -453.82,-17.416 27.022,-45.132 c 0,0 26.496,-153.419 16.785,-172.512 -1.518,-2.983 -3.988,-4.313 -7.076,-4.434 z" fill="#FFFFFF" paint-order="markers stroke fill" transform="translate(196.46684,88.540255) translate(-7912.7568,-2588.0865) matrix(0.26458333,0,0,0.26458333,-1524.344,-1328.9457)"/>
    <path d="m 36304.961,14469.891 c -11.329,0 -16.159,4.134 -21.828,13.078 -5.373,8.476 -14.699,17.726 -20.723,20.56 -16.184,7.61 -16.558,35.793 -0.707,53.436 10.229,11.384 12.129,18.808 7.244,28.267 -20.509,39.724 -6.795,106.244 26.926,130.596 22.911,16.545 71.637,22.323 99.598,11.807 13.559,-5.099 15.14,-6.701 15.14,-6.701 13.321,15.952 35.871,9.738 26.733,-19.188 0,0 13.154,-26.978 15.822,-42.025 10.243,-57.781 -9.685,-84.401 -55.703,-113.469 -12.437,-7.856 -16.415,-15.723 -14.899,-29.469 2.496,-22.616 -6.872,-32.975 -35.916,-39.721 -20.131,-4.669 -32.875,-7.172 -41.687,-7.171 z m 3.781,22.088 c 5.069,-0.308 10.657,2.206 13.36,7.751 2.604,5.345 5.829,5.545 11.529,0.715 13.46,-11.404 25.043,-6.409 23.23,10.018 -1.369,12.407 -9.415,18.791 -38.695,30.701 -42.084,15.832 -38.365,18.227 -48.387,-5.06 -1.201,-2.793 0.494,-16.604 10.114,-19.553 9.618,-2.949 17.987,-9.87 18.595,-15.385 0.634,-5.749 5.185,-8.88 10.254,-9.187 z m 45.217,64.345 v 0 c 5.127,-0.05 10.101,0.481 14.709,1.658 27.922,7.131 33.537,18.957 8.258,17.391 -26.819,-1.661 -67.712,21.634 -72.561,41.332 -2.139,8.688 -7.707,16.776 -12.377,17.988 -10.538,2.717 -7.543,-33.791 4.217,-51.449 10.461,-15.712 35.532,-26.714 57.75,-26.92 z m 9.424,35.432 c 3.247,-0.326 6.691,0.837 10.789,3.445 6.206,3.949 21.484,7.812 33.955,8.584 24.96,1.546 27.206,9.479 26.002,43.858 -0.911,26.014 -10.914,34.16 -10.914,34.16 -13.577,-10.259 -27.342,5.029 -24.856,15.765 -22.654,13.871 -74.601,14.822 -97.109,-15.386 -10.094,-13.549 -14.45,-27.239 -3.889,-34.059 6.348,-4.101 15.449,-15.405 20.223,-25.123 4.776,-9.717 12.82,-17.411 17.877,-17.098 5.056,0.313 13.295,-3.579 18.312,-8.654 3.313,-3.351 6.363,-5.166 9.61,-5.492 z m 304.658,37.432 v 0 c -5.12,0.132 -10.054,1.004 -13.564,2.577 -14.217,6.372 -42.956,54.703 -53.51,89.982 -5.279,17.647 -12.716,25.59 -32.213,34.414 -17.308,7.833 -28.025,18.138 -33.775,32.469 -6.76,16.845 -11.803,20.823 -25.487,19.789 -19.994,-1.41 -59.586,-23.306 -83.56,-46.213 -13.563,-12.961 -24.011,-16.31 -53.125,-17.082 -54.924,-1.436 -82.455,13.122 -111.002,58.691 -34.188,54.526 -42.96,67.97 -65.58,70.088 -22.198,-0.59 -47.901,-0.766 -53.936,-2.318 -14.664,-2.116 -25.672,-2.798 -33.941,-2.572 -24.808,0.679 -24.972,9.523 -25.276,12.302 -0.399,3.615 32.577,7.946 37.985,8.282 20.004,1.238 7.608,13.726 -12.991,13.088 -11.753,-0.366 -29.571,-3.294 -38.869,-1.254 -15.775,3.462 -14.692,8.435 7.914,14.355 31.69,8.3 23.07,18.839 -13.556,16.57 -15.794,-0.978 -30.865,1.067 -33.489,4.543 -2.785,3.68 3.573,6.842 15.268,7.567 11.026,0.683 19.718,4.197 19.32,7.814 -0.404,3.664 -19.267,8.71 -41.697,4.182 -30.907,-6.24 -58.715,3.596 -8.363,16.746 33.203,8.672 7.6,16.588 7.601,16.588 l -33.853,-0.324 c -23.686,-1.376 -36.828,0.366 -34.76,4.611 1.83,3.752 9.049,7.21 16.047,7.613 36.994,2.131 46.272,15.276 -22.078,15.823 -29.702,0.238 -32.089,28.54 -22.127,28.625 18.035,0.155 31.422,1.347 50.961,2.787 56.025,4.128 107.194,7.296 143.902,7.103 45.333,-0.238 96.913,4.758 142.985,6.565 74.556,2.925 76.126,-9.532 10.898,-14.936 -78.717,-6.521 -108.455,-10.278 -185.346,-15.424 -76.461,-5.118 -73.874,-8.682 -59.453,-18.47 5.515,-3.744 23.537,-20.622 37.795,-31.7 23.093,-17.943 19.889,-14.429 66.197,-64.904 10.845,-11.824 28.092,-19.746 37.731,-21.316 8.16,-1.329 15.948,-2.059 23.642,-2.498 l 0.481,1.748 -27.031,37.505 c -14.867,20.627 -25.973,37.923 -31.42,47.633 -10.438,18.603 -14.264,29.589 5.925,40.272 25.406,12.204 77.943,10.437 108.901,14.291 57.214,7.226 76.557,12.322 92.367,24.345 13.166,9.998 54.934,24.399 39.02,3.016 -12.578,-16.901 -6.111,-20.083 22.058,-4.017 28.784,16.416 37.651,7.678 15.154,-14.932 -22.286,-21.615 -17.57,-17.748 5.286,-2.584 24.323,16.137 15.78,32.904 49.224,24.113 19.13,3.848 51.617,7.416 156.297,11.561 156.795,6.209 262.065,5.375 314.574,0.357 52.508,-5.018 52.254,-14.222 48.2,-29.465 -2.396,-9.01 -20.309,-10.035 -55.274,-12.201 -41.148,1.267 -48.793,-4.071 -62.775,-39.898 -14.104,-36.141 -65.315,-145.633 -81.307,-173.846 -14.995,-26.452 -32.314,-20.225 -100.049,35.975 l -64.004,53.103 12.926,-30.914 c 7.111,-17.002 13.696,-31.254 14.641,-31.684 45.855,-20.669 60.639,-86.124 40.32,-108.107 0,0 2.426,-14.535 1.553,-46.137 -1.447,-52.279 -2.983,-57.904 -17.074,-62.451 -4.258,-1.374 -9.565,-1.978 -14.686,-1.847 z m -288.172,12.566 c -10.37,-0.643 -21,14.656 -15.098,21.725 5.899,7.062 17.808,1.325 21.379,-10.299 1.888,-6.142 -0.833,-11.09 -6.281,-11.426 z m 36.776,2.377 v 0 c -10.959,0.542 -18.174,10.131 -13.739,19.236 4.868,9.99 18.565,5.272 22.576,-7.775 1.925,-6.265 -0.854,-11.087 -6.597,-11.446 -0.762,-0.05 -1.51,-0.05 -2.24,-0.02 z m 256.406,4.252 v 0 c 0.299,0.02 0.609,0.09 0.929,0.224 11.165,4.536 7.631,76.968 -4.431,91.241 -9.512,6.43 -16.894,24.082 -1.342,21.006 0,0 -6.088,10.05 -10.795,17.115 -7.251,7.555 -10.901,10.943 -12.793,12.593 -16.023,13.996 -7.965,23.079 -0.365,20.2 32.213,-12.201 -6.548,12.812 -10.32,14.97 -6.741,3.858 -10.349,13.258 -0.5,19.791 0,0 -3.154,6.962 -6.758,11.243 -2.042,2.426 -8.633,1.246 -7.59,-5.668 10.698,-37.05 15.297,-55.848 22.857,-77.471 5.334,-14.566 7.666,-21.161 11.201,-27.135 11.327,-19.139 14.962,-27.272 15.831,-54.877 0.888,-29.434 -0.417,-43.526 4.074,-43.232 z m -34.244,23.855 c 2.641,1.253 5.593,12.805 6.474,30.028 1.233,14.348 7.977,21.787 -2.07,34.222 -2.013,-0.342 -3.926,-0.724 -6.943,-0.488 -14.66,1.144 -15.408,-0.416 -9.387,-19.615 3.598,-11.472 7.209,-26.897 8.023,-34.28 0.846,-7.662 2.318,-10.619 3.903,-9.867 z m -5.161,84.559 c 0.458,0.01 -0.08,1.351 -0.683,2.939 -0.791,2.093 -28.102,92.762 -36.373,118.213 -2.562,7.886 -18.005,20.617 -35.485,29.248 -34.714,17.144 -46.775,18.766 -40.019,5.387 2.514,-4.979 12.554,-37.697 22.937,-72.523 l 15.897,-53.321 c 3.087,-10.355 25.737,-15.391 37.879,-19.668 16.642,-5.861 32.639,-10.372 35.847,-10.275 z m -271.33,3.558 c 3.423,-0.05 7.258,0.04 11.496,0.282 19.16,1.097 21.102,3.144 19.215,20.24 -1.244,11.279 -6.496,20.387 -12.906,22.371 -17.47,5.414 -21.267,3.637 -33.738,-15.766 -12.14,-18.888 -8.028,-26.742 15.933,-27.127 z m -40.892,11.579 c 3.771,-0.191 6.28,2.818 5.779,7.365 -0.573,5.198 5.328,17.73 13.113,27.846 20.117,26.138 47.784,26.555 71.625,1.08 l 18.463,-19.729 8.27,21.057 c 4.548,11.58 7.793,25.357 7.213,30.617 -1.587,14.387 -75.407,46.664 -119.412,52.209 -48.429,6.103 -47.753,18.089 1.134,20.123 25.538,1.066 47.025,-2.986 70.7,-13.338 32.595,-14.25 34.378,-14.35 42.834,-2.373 4.851,6.874 12.36,13.944 16.685,15.73 6.002,2.471 4.843,7.915 -4.894,22.977 -17.317,26.784 -29.704,73.036 -19.725,73.654 4.179,0.259 9.013,-3.166 10.738,-7.611 21.578,-55.545 34.654,-82.254 40.102,-81.918 3.636,0.225 4.774,2.836 2.535,5.801 -2.241,2.966 -0.915,10.73 2.947,17.254 6.552,11.07 9.753,10.808 48.073,-3.934 22.578,-8.685 44.554,-15.783 48.834,-15.783 4.277,0 10.199,-2.039 13.152,-4.539 2.952,-2.503 9.852,-4.27 15.334,-3.93 20.78,1.287 -28.98,35.895 -50.574,35.176 -28.36,-0.946 -53.561,16.213 -75.891,51.666 -10.368,16.462 -22.199,29.467 -26.287,28.896 -4.091,-0.568 -23.005,-7.992 -42.031,-16.496 -27.827,-12.436 -40.059,-14.584 -62.52,-10.978 l -27.926,4.482 -20.402,-33.666 c -11.222,-18.517 -24.739,-51.511 -30.041,-73.324 l -9.637,-39.654 21.555,-31.903 c 11.854,-17.546 21.214,-36.898 20.803,-43.005 -0.413,-6.108 3.08,-12.165 7.761,-13.469 0.585,-0.163 1.151,-0.256 1.69,-0.283 z m 154.748,63.257 c 2.957,-0.07 7.034,1.002 12.875,2.643 25.205,7.081 25.259,7.194 15.603,31.129 -8.651,21.442 -14.426,24.878 -32.004,19 -7.728,-2.582 -9.469,-10.34 -6.642,-29.514 2.568,-17.401 3.661,-23.101 10.168,-23.258 z m 289.238,14.506 c 3.248,-0.483 5.549,0.429 7.315,2.133 3.069,2.962 19.447,39.393 44.033,98.666 46.094,111.131 66.667,114.201 38.982,111.801 -11.499,-0.997 -92.519,-1.991 -135.828,-4.486 -41.184,0 -83.102,-3.679 -123.928,1.214 -24.854,3.181 -58.76,-2.732 -58.525,-4.877 0.26,-2.143 20.671,-12.592 32.258,-18.138 11.586,-5.546 27.128,-18.715 34.537,-29.264 11.867,-16.896 17.003,-19.002 43.146,-17.383 34.796,2.107 158.57,-5.06 167.358,-9.65 3.335,-1.74 2.908,-7.793 -0.951,-13.447 -7.423,-10.881 -62.258,-10.348 -146.42,-1.34 -21.504,2.299 -40.658,2.318 -42.565,0.04 -4.518,-5.41 119.272,-103.198 127.594,-109.02 5.552,-3.884 9.746,-5.764 12.994,-6.248 z m -516.021,38.834 c 3.029,-0.268 6.134,9.037 7.095,21.709 2.385,31.42 19.322,75.479 31.137,80.992 4.993,2.331 8.791,6.852 8.481,10.079 -1.052,7.613 -99.562,1.429 -110.645,-6.879 -6.752,-5.062 -1.894,-15.853 24.535,-54.491 18.124,-26.499 35.581,-49.549 38.793,-51.226 0.201,-0.105 0.402,-0.166 0.604,-0.184 z m 916.105,14.18 c -7.504,0.111 -16.284,3.385 -23.053,9.773 -6.334,5.981 -16.816,20.94 -23.296,33.245 l -11.78,22.371 -118.131,-6.784 c -79.51,-4.565 -101.698,-6.737 -112.638,2.52 -12.154,10.284 -8.049,14.943 44.734,18.832 30.478,2.249 101.552,9.548 121.426,11.01 26.234,1.93 64.86,18.901 89.295,7.431 11.856,-6.392 51.579,-78.924 48.849,-89.193 -1.667,-6.263 -7.894,-9.315 -15.398,-9.203 z m -424.396,2.477 c -10.223,0.06 -36.232,0.943 -40.618,4.175 -15.857,11.685 27.611,7.738 45.354,8.651 24.616,1.371 53.412,-1.648 45.412,-7.178 -5.014,-3.466 -39.926,-5.709 -50.148,-5.648 z m 162.035,6.509 c -83.882,-0.587 -61.433,9.693 37.859,15.69 94.867,5.73 128.201,6.13 127.028,16.763 -1.403,12.718 26.988,18.501 35.501,7.229 2.627,-3.478 0.282,-6.606 -5.212,-6.941 -5.493,-0.34 -12.662,-7.144 -15.93,-15.12 -5.803,-14.165 -8.237,-14.533 -105.717,-15.988 -8.504,-0.127 -66.028,-1.58 -73.529,-1.633 z m -345.389,52.211 c 5.528,0.343 4.179,5.242 -4.418,16.043 -6.807,8.554 -12.55,17.134 -12.762,19.07 -0.839,7.599 15.03,3.787 36.243,-8.705 l 22.265,-13.111 -14.625,14.131 c -8.044,7.774 -24.216,17.405 -35.937,21.406 -44.875,15.315 -49.975,15.417 -44.496,0.893 6.211,-16.468 42.875,-50.4 53.73,-49.727 z m -1014.48,5.112 c -16.769,-0.551 -37.68,14.471 -57.2,45.96 -6.519,10.514 -14.533,26.699 -17.812,35.963 -5.742,16.217 -8.375,16.903 -70.588,18.428 -35.545,0.869 -79.861,0.791 -98.48,-0.154 -38.504,-1.973 -47.556,2.676 -137.524,70.64 -31.588,23.862 -73.748,54.02 -93.687,67.016 -61.674,40.202 -149.567,109.942 -142.321,112.922 9.491,3.905 124.87,-68.566 239.008,-150.125 125.779,-89.892 118.997,-86.674 182.772,-86.361 31.234,0.151 68.605,0.809 83.048,1.461 l 26.262,1.195 1.807,38.193 c 0.993,21.005 0.14,39.607 -1.926,41.356 -2.052,1.738 -33.118,3.12 -69.039,3.072 -82.058,-0.113 -84.341,1.122 -223.381,121.152 -97.927,84.543 -117.626,105.02 -101.939,105.992 5.421,0.337 136.912,-96.228 219.457,-161.16 19.702,-15.498 37.751,-28.059 40.105,-27.914 4.64,0.287 11.888,67.498 9.557,88.623 -0.785,7.116 -8.804,19.239 -17.821,26.938 -9.008,7.698 -29.107,25.106 -44.648,38.685 -15.544,13.58 -36.83,25.853 -47.303,27.274 -13.391,1.817 -23.608,9.725 -34.435,26.658 -18.972,29.677 -35.237,42.502 -68.147,53.734 -13.908,4.75 -25.478,10.435 -25.873,12.698 -0.09,2.2 10.173,2.965 22.981,1.699 27.382,-2.713 54.51,-19.425 80.238,-49.43 10.094,-11.773 28.576,-24.057 41.072,-27.301 26.047,-6.76 87.767,-55.037 89.41,-69.937 1.075,-9.743 21.597,-16.366 41.049,-13.246 27.496,4.41 52.842,0.839 67.955,-9.582 22.88,-15.772 17.205,-19.426 -22.423,-14.446 -54.332,6.829 -59.172,2.907 -64.93,-52.587 -2.766,-26.653 -3.633,-49.69 -1.934,-51.198 1.704,-1.508 29.332,-2.378 61.401,-1.929 l 58.306,0.81 2.518,42.289 c 1.387,23.259 2.3,62.445 2.031,87.078 -0.46,42.036 -1.22,44.468 -12.385,39.535 -9.848,-4.351 -29.377,1.338 -17.611,16.895 9.685,12.807 39.531,15.783 50.941,14.506 31.905,-3.571 31.753,-18.667 17.686,-28.402 l 0.873,-31.678 53.258,-0.434 c 24.869,-0.2 50.934,1.146 67.795,0.25 29.452,-1.569 30.713,-0.896 32.146,17.143 0.819,10.327 -1.777,20.482 -5.771,22.566 -12.444,6.498 -0.767,18.911 18.939,20.131 18.25,1.131 40.986,-11.925 42.354,-24.32 0.366,-3.356 -3.552,-6.367 -8.717,-6.688 -11.384,-0.705 -12.895,-7.837 -17.473,-83.015 -5.355,-87.941 -8.531,-82.294 46.938,-83.409 26.368,-0.529 149.847,3.818 274.398,9.676 124.553,5.851 281.374,10.768 348.49,10.93 67.117,0.159 254.941,6.648 417.383,14.418 162.446,7.771 299.352,11.934 304.242,9.256 20.719,-11.347 -3.911,-16.588 -135.371,-28.825 -145.836,-13.573 -352.194,-19.897 -590.287,-18.089 -78.087,0.591 -260.035,-5.319 -404.332,-13.114 l -262.355,-14.189 2.582,-41.203 2.578,-41.201 19.113,1.183 c 17.432,1.08 19.162,3.579 19.74,28.494 1.171,50.444 25.172,53.589 30.641,4.018 2.575,-23.354 5.51,-29.036 14.705,-28.652 6.318,0.302 57.252,0.56 113.186,0.56 55.934,0 317.294,12.779 580.798,28.352 478.192,28.274 633.225,32.12 640.497,15.892 2.845,-6.343 -35.854,-9.786 -184.071,-16.365 -103.218,-4.582 -271.409,-12.06 -373.761,-16.6 -156.917,-7.269 -312.492,-17.081 -470.198,-23.521 -142.698,-5.827 -272.674,-10.913 -288.834,-11.277 l -29.381,-0.676 -1.765,-28.94 c -2.136,-34.975 -11.561,-55.966 -31.463,-57.199 -16.619,-1.03 -47.766,21.052 -61.754,64.426 -4.739,14.695 -13.261,17.341 -38.443,19.215 -59.316,4.414 -59.596,4.254 -59.889,-33.547 -0.306,-39.32 -13.983,-59.943 -32.986,-60.567 z m -450.108,512.246 c 0,-0.03 -0.04,-0.04 -0.04,-0.04 v 0.09 c 0,0 0.04,-0.04 0.04,-0.05 z m 448.172,-479.399 c 8.206,0.508 11.765,18.152 8.901,44.108 -2.349,21.292 -3.673,22.392 -25.413,21.046 -12.615,-0.782 -22.595,-4.497 -22.183,-8.255 1.243,-11.275 32.532,-57.278 38.695,-56.899 z m 1503.594,6.772 c -2.499,-0.58 -14.74,13.558 -27.203,31.414 -18.551,26.582 -20.738,32.585 -12.053,33.123 5.833,0.361 14.371,-5.825 18.971,-13.744 7.245,-12.469 12.352,-13.827 38.121,-10.143 20.645,2.951 28.621,1.933 26.058,-3.328 -2.032,-4.17 -13.844,-8.213 -26.25,-8.981 -12.407,-0.769 -22.229,-4.357 -21.832,-7.972 0.399,-3.616 11.049,-5.936 23.668,-5.154 12.619,0.781 23.271,-1.538 23.668,-5.153 0.399,-3.618 -8.122,-7.123 -18.939,-7.793 -10.816,-0.671 -21.711,-1.683 -24.209,-2.269 z m -1317.908,8.248 c 5.484,0.472 9.267,9.341 9.291,26.84 0.04,17.585 -2.157,19.968 -19.075,20.847 -17.941,0.933 -18.692,-0.118 -12.408,-17.277 7.133,-19.478 14.991,-29.704 21.073,-30.395 0.38,-0.04 0.753,-0.05 1.119,0 z m 1323.675,45.959 c -12.503,-0.218 -19.343,1.802 -17.584,5.408 1.829,3.756 13.476,7.456 25.881,8.225 12.407,0.768 22.885,-1.56 23.282,-5.178 0.399,-3.615 -11.246,-7.316 -25.881,-8.223 -2.008,-0.124 -3.912,-0.201 -5.698,-0.232 z m -1471.617,20.771 39.317,2.438 39.32,2.433 -1.73,26.366 c -0.945,14.502 -2.265,33.03 -2.897,41.181 -1.129,14.377 -3.477,14.774 -78.83,13.317 -87.131,-1.687 -81.83,1.957 -79.348,-54.551 l 1.151,-26.401 28.074,-0.298 c 24.853,-0.261 27.897,1.306 26.533,13.662 -2.062,18.706 7.757,41.449 16.031,37.129 3.658,-1.911 7.939,-15.129 9.51,-29.377 z m -4.369,109.733 c 56.594,0.06 74.735,2.104 78.106,8.808 9.32,18.54 2.204,24.259 -31.918,25.656 -57.727,2.365 -107.622,1.658 -115.629,-1.636 -4.157,-1.711 -6.82,-9.813 -5.916,-18.008 1.58,-14.324 4.47,-14.891 75.357,-14.82 z m -47.959,75.113 c 11.089,-0.06 27.583,0.362 52.145,0.387 67.47,0.08 85.431,6.696 76.177,14.537 -1.9,1.607 -35.995,1.265 -75.767,4.353 -39.775,3.089 -73.279,1.37 -74.449,1.295 -1.172,-0.07 -1.535,-5.601 -0.797,-12.289 0.747,-6.771 4.21,-8.188 22.691,-8.283 z m 309.879,12.896 v 0.01 c -6.961,-0.208 -12.951,2.677 -24.217,8.477 -15.587,8.024 -34.909,11.233 -59.207,9.916 -33.145,-1.838 -35.123,-1.154 -24.412,8.437 15.253,13.66 57.007,15.91 85.719,4.615 20.769,-8.169 24.548,-7.932 41.619,2.581 25.223,15.535 63.841,17.042 90.096,3.521 18.713,-9.636 23.449,-9.795 36.427,-1.258 19.587,12.872 58.688,15.298 87.616,5.426 19.731,-6.727 26.762,-6.334 47.33,2.652 40.52,17.7 98.155,18.236 138.986,1.291 31.084,-12.9 38.661,-13.886 59.721,-6.263 72.878,26.375 98.378,15.063 129.851,1.623 31.675,-13.527 37.419,-13.758 57.284,-5.084 30.281,13.221 76.916,15.533 101.062,5.006 17.633,-7.691 21.273,-7.514 29.613,1.472 5.228,5.636 22.84,14.786 39.133,20.33 24.868,8.462 35.739,8.792 67.688,2.057 26.784,-5.643 45.054,-5.9 61.648,-0.877 41,12.413 87.278,12.386 111.43,-0.05 20.627,-10.621 23.803,-10.631 41.318,-0.205 22.493,13.387 50.565,10.697 72.897,-6.965 l 15.574,-12.302 15.648,14.566 c 17.303,16.127 34.045,19.26 54.379,10.146 21.873,-9.807 16.693,-18.596 -12.015,-20.375 -14.762,-0.914 -34.733,-7.185 -44.381,-13.939 -16.505,-11.551 -18.351,-11.651 -31.258,-1.727 -22.836,17.554 -51.869,20.87 -73.428,8.393 -17.065,-9.878 -20.762,-10.035 -35.17,-1.469 -18.673,11.102 -70.144,9.579 -106.385,-3.15 -19.995,-7.024 -26.661,-6.832 -36.923,1.058 -8.73,6.711 -25.65,8.809 -55.819,6.94 -47.246,-2.927 -74.872,-12.561 -85.551,-29.83 -6.304,-10.193 -9.229,-10.235 -35.117,-0.61 -25.336,9.416 -32.913,9.382 -73.654,-0.332 -39.137,-9.333 -47.095,-9.548 -57.563,-1.5 -29.007,22.305 -120.307,19.926 -159.806,-4.168 -15.802,-9.636 -18.931,-9.272 -40.508,4.717 -38.762,25.132 -84.204,29.193 -142.715,12.742 -37.711,-10.603 -56.577,-12.816 -78.631,-9.187 -19.716,3.237 -37.037,2.021 -54.043,-3.799 -20.263,-6.934 -31.505,-6.719 -59.052,1.082 -32.496,9.258 -35.437,9.082 -65.145,-3.849 -15.147,-6.595 -23.078,-9.907 -30.039,-10.118 z m 607.897,60.688 v 0 c -2.266,-0.08 -5.425,1.282 -9.5,4.316 -4.348,3.237 -23.008,32.39 -24.049,36.836 -1.533,6.543 -17.367,22.332 -6.823,-11.517 9.151,-29.377 -8.392,-39.668 -17.96,-11.522 -2.513,7.39 -5.025,14.78 -7.538,22.17 -10.569,31.088 -7.254,54.506 9.983,70.572 14.006,13.055 10.964,12.691 6.658,37.813 -3.156,18.413 -2.571,19.607 -11.783,66.92 -10.996,56.473 -1.391,110.841 13.303,151.879 23.865,61.089 24.087,62.602 10.246,70.832 -7.781,4.624 -26.137,21.275 -40.793,37 -24.423,26.209 -28.076,27.975 -43.834,21.23 -9.456,-4.049 -21.401,-16.474 -26.545,-27.611 -11.116,-24.071 -21.064,-26.732 -23.328,-6.219 -3.165,29.139 16.981,56.871 51.644,71.088 33.695,13.82 56.181,14.346 119.84,2.793 27.922,-5.067 33.2,-4.249 43.373,6.709 6.368,6.865 21.732,16.772 34.141,22.019 h 0.109 c 28.732,12.149 59.416,9.614 88.992,-7.355 19.647,-11.265 29.602,-12.504 63.569,-7.869 33.174,4.527 45.762,3.124 71.404,-7.953 33.257,-14.369 66.468,-49.002 62.238,-64.909 -4.097,-15.4 -16.442,-12.221 -43.174,11.122 -28.829,25.173 -66.754,34.933 -102.754,26.443 -17.758,-4.189 -30.08,-3.252 -41.652,3.172 -16.274,9.032 -16.406,8.877 -12.945,-16.393 3.412,-24.963 4.438,-25.844 47.562,-40.849 74.892,-26.06 184.528,-127.146 226.602,-208.936 11.978,-23.279 17.08,-28.073 24.223,-22.728 14.084,10.543 53.611,10.823 70.97,0.505 18.83,-11.195 21.338,-21.351 5.631,-22.793 -9.598,-0.885 -8.882,-2.564 4.455,-10.46 16.301,-9.651 23.249,-27.196 11.07,-27.95 -3.75,-0.234 -19.501,4.978 -35.005,11.578 l -28.192,12.002 12.225,-14.463 c 13.565,-16.049 18.626,-41.309 9.597,-47.916 -3.216,-2.354 -11.187,3.982 -17.716,14.079 -6.527,10.095 -19.538,22.613 -28.909,27.816 -16.549,9.183 -17.143,8.871 -20.605,-10.723 -5.926,-33.546 -16.817,-19.491 -22.684,29.284 -6.43,53.417 -13.427,65.797 -76.839,135.972 -50.323,55.69 -106.758,95.924 -155.432,110.815 -32.143,9.835 -32.763,9.771 -49.881,-5.223 -13.987,-12.252 -27.639,-16.043 -70.756,-19.633 -58.483,2.212 -60.055,3.897 -70.174,-17.388 -40.641,-85.492 -33.696,-132.931 -28.201,-182.733 9.313,-83.594 11.876,-85.306 26.074,-89.24 16.269,-4.507 50.528,-32.936 51.62,-42.834 1.121,-10.165 -9.306,-12.147 -16.161,-3.072 -2.626,3.479 -7.24,6.169 -10.254,5.984 -5.687,-0.352 9.853,-40.047 19.213,-52.439 3.103,-4.107 0.155,-14.173 -6.066,-14.557 -6.28,-0.389 -16.442,9.898 -24.584,24.889 -16.535,30.441 -24.696,17.328 -13.697,-7.592 8.644,-19.587 9.888,-32.734 3.092,-32.963 z m -891.59,25.242 v 0 c -18.967,0.471 -22.971,4.769 -15.213,14.059 6.927,8.296 69.277,5.797 73.187,-2.932 2.619,-5.849 -7.295,-8.725 -36.259,-10.52 -4.641,-0.283 -8.856,-0.482 -12.661,-0.58 -3.329,-0.08 -6.345,-0.09 -9.054,-0.03 z m 1109.554,24.283 v 0 c -0.481,0.05 -0.85,0.162 -1.089,0.363 -5.35,4.534 10.363,24.805 24.664,31.819 17.315,8.492 21.747,8.472 52.496,-0.268 22.997,-6.545 28.399,-6.176 39.107,2.699 14.411,11.943 32.867,14.452 39.705,5.399 2.616,-3.463 -3.152,-10.142 -12.816,-14.85 -9.667,-4.708 -23.689,-11.947 -31.162,-16.086 -10.029,-5.552 -21.044,-5.105 -42.026,1.713 -25.759,8.373 -30.225,8.179 -47.455,-2.074 -9.153,-5.445 -18.055,-9.006 -21.424,-8.721 z m -587.838,2.299 v 0 c -30.863,-0.741 -61.221,7.768 -85.178,26.172 -23.344,17.932 -43.683,56.158 -47.293,88.871 -1.37,12.414 0.162,29.965 0.162,29.965 -8.654,6.579 -22.962,16.52 -30.797,23.437 -24.125,21.301 -28.043,16.134 -23.637,-4.836 4.031,-19.178 -4.903,-16.853 -8.089,-17.049 -7.792,-0.483 -24.252,35.676 -26.815,58.905 -3.348,30.351 -101.904,109.721 -173.115,139.416 -18.79,7.835 -51.008,25.732 -60.567,18.785 l -17.728,-12.883 c -24.483,-17.794 -48.185,-23.107 -87.613,-14.822 -29.56,6.214 -64.522,38.186 -60.969,55.76 2.286,11.299 0.609,11.377 -26.33,1.24 -31.608,-11.896 -41.275,-3.799 -13.02,10.904 9.442,4.914 24.914,18.921 36.676,28.613 25.919,21.359 56.03,22.191 77.774,12.141 19.296,-9.328 21.808,-9.119 44.363,3.686 20.398,11.581 26.975,12.547 44.795,6.595 11.485,-3.839 31.634,-10.187 44.771,-14.107 31.147,-9.295 33.159,-24.335 3.506,-26.172 -37.976,-2.353 -28.169,-15.966 27.523,-38.199 41.391,-16.526 67.855,-33.435 117.979,-75.401 l 64.615,-54.097 37.278,5.756 c 29.976,4.631 39.782,3.636 50.07,-5.08 13.745,-11.649 12.645,-18.209 -18.5,-21.717 -11.765,-1.326 -2.553,-7.778 7.799,-11.494 7.832,-2.814 12.722,-5.207 12.722,-5.207 24.667,27.447 60.925,47.894 102.582,50.474 55.833,3.418 81.292,-6.036 108.918,-40.441 49.013,-61.043 51.681,-125.233 7.143,-171.856 -28.822,-30.169 -69.34,-46.414 -109.022,-47.367 z m -392.4,13.936 c -14.203,0.931 -22.901,18.432 -5.851,27.996 8.267,4.637 22.379,-3.044 24.228,-16.721 1.756,-12.994 -10.074,-10.729 -15.469,-11.234 -0.99,-0.09 -1.961,-0.1 -2.908,-0.04 z m -194.342,0.793 v 0 c -19.724,-0.321 -21.207,10.525 -17.353,25.677 3,11.798 25.74,5.106 31.521,0.2 8.75,-7.414 4.669,-24.468 -4.558,-25.04 -3.6,-0.522 -6.791,-0.793 -9.61,-0.839 z m 590.227,6.978 c 12.765,0.09 24.369,1.72 31.717,5.111 13.433,6.197 11.184,7.276 -18.684,8.952 -18.676,1.048 -46.343,7.177 -61.48,13.619 -15.136,6.445 -34.564,19.213 -43.176,28.375 -8.614,9.161 -15.349,14.039 -14.996,10.84 1.319,-11.525 31.199,-46.452 47.459,-55.475 13.386,-7.43 37.884,-11.571 59.16,-11.422 z m -282.319,1.178 c -8.611,0.04 -12.409,3.102 -17.193,10.289 -16.796,25.222 -49.837,36.424 -98.717,33.396 -48.004,-2.947 -53.526,2.217 -13.568,12.69 13.263,3.475 29.986,6.96 37.156,7.742 16.217,1.77 64.47,-15.931 80.537,-29.543 9.592,-8.126 15.451,-8.568 29.221,-2.195 21.493,9.945 49.886,5.941 66.285,-9.35 17.558,-16.367 10.577,-27.17 -12.847,-19.883 -10.201,3.177 -32.208,3.103 -48.905,-0.158 -9.895,-1.932 -16.799,-3.007 -21.969,-2.988 z m 1221.071,0.797 c -7.602,-0.471 -5.34,26.029 3.084,36.117 10.808,12.942 39.856,15.967 64.459,6.713 32.98,-12.405 19.432,-28.343 -17.535,-20.631 -20.433,4.263 -25.895,2.956 -35.444,-8.479 -6.209,-7.425 -12.763,-13.605 -14.564,-13.72 z m -1727.752,0.252 v 0 c -2.395,0 -2.491,2.578 -0.998,8.197 1.669,6.272 8.982,14.314 16.25,17.869 19.328,9.45 41.387,10.167 58.687,1.908 13.847,-6.61 12.018,-7.81 -20.4,-13.388 -19.589,-3.369 -40.553,-8.752 -46.592,-11.961 -3.245,-1.725 -5.508,-2.637 -6.945,-2.629 z m 814.482,26.039 c 10.433,-0.167 20.303,0.79 29.1,3.031 l 21.396,5.451 -35.681,15.358 c -19.627,8.446 -55.25,30.396 -79.162,48.777 -23.91,18.38 -46.407,39.403 -49.995,46.717 -5.767,11.764 -15.712,-2.042 -21.496,-12.426 -0.704,-1.264 -1.316,-2.675 -1.877,-4.158 2.274,-5.563 2.551,-10.783 -0.392,-12.451 -0.584,-0.332 -1.333,-0.526 -2.201,-0.612 -0.365,-6.483 0.308,-14.017 2.424,-22.601 l 12.402,-14.936 c 24.578,-29.595 80.28,-51.427 125.482,-52.15 z m 473.196,17.095 c -11.395,-0.06 -19.464,12.23 -20.842,33.27 -1.389,21.205 -2.346,22.761 -6.112,9.961 -3.256,-11.066 -9.897,-15.506 -24.546,-16.414 -24.034,-1.488 -33.97,13.258 -20.78,30.846 8.573,11.428 7.629,14.935 -12.621,46.88 -12.037,18.99 -16.875,34.145 -16.875,34.145 -28.319,0.276 -35.833,28.883 -6.455,28.832 0,0 -2.274,19.084 3.86,34.973 7.793,20.202 15.489,34.693 34.91,46.918 27.718,14.751 45.744,17.153 67.625,16.945 95.124,-1.283 159.865,-63.02 143.949,-137.27 -4.282,-19.982 -3.187,-26.48 6.389,-37.81 8.336,-9.86 10.132,-17.177 6.431,-26.213 -6.703,-16.356 -16.481,-16.448 -36.672,-0.348 l -16.457,13.121 6.651,-24.189 c 6.48,-23.571 6.165,-24.166 -12.561,-23.193 -14.03,0.728 -20.221,4.95 -22.937,15.66 -2.049,8.066 -6.788,14.472 -10.534,14.242 -3.93,-0.246 -4.382,-7.051 -1.054,-16.135 3.684,-10.065 2.458,-19.664 -3.414,-26.693 -11.602,-13.895 -11.387,-13.909 -29.225,2.271 -14.948,13.511 -14.948,13.514 -13.443,-0.121 0.83,-7.528 -2.281,-15.45 -6.908,-17.613 -2.942,-1.374 -5.749,-2.045 -8.379,-2.059 z m -407.196,5.418 c 2.555,-0.23 4.316,0.11 5.137,1.092 7.564,9.057 -26.198,63.98 -54.506,88.67 -15.8,13.777 -41.642,29.891 -57.424,35.803 -15.782,5.913 -36.823,10.39 -46.736,9.777 -15.405,-0.829 -17.749,-3.653 -16.023,-19.303 1.606,-14.551 11.999,-25.484 50.402,-53.019 44.543,-31.936 101.266,-61.416 119.15,-63.02 z m -726.5,1.104 v 0 c -1.489,-0.05 -2.945,-0.04 -4.357,0.02 -34.734,1.718 -59.413,22.303 -68.277,51.764 -6.225,20.701 -8.497,22.213 -31.178,20.809 -28.201,-1.747 -55.285,11.89 -57.149,28.777 -0.706,6.396 -9.419,18.124 -19.371,26.059 -34.905,27.834 -23.566,77.977 18.221,80.566 7.888,0.489 18.136,8.464 23.1,17.98 v -0.07 c 12.571,24.089 48.55,25.967 72.867,3.801 16.286,-14.845 18.494,-15.246 27.101,-4.94 11.547,13.824 27.839,15.306 45.772,4.166 11.705,-7.2 16.001,-6.919 30.619,2.084 9.351,5.76 29.908,13.086 45.678,16.28 49.031,9.93 104.52,-24.021 127.699,-65.412 6.19,-11.053 14.033,-33.389 14.033,-33.389 25.62,-7.1 30.967,-17.349 27.42,-24.791 -3.505,-7.355 -23.786,-4.658 -30.533,-3.35 0,0 -3.707,-6.929 -11.203,-26.34 -17.119,-44.338 -76.452,-63.895 -132.241,-43.593 -29.295,10.656 -23.86,3.21 -22.543,-8.742 -3.476,-28.366 -33.321,-41.006 -55.658,-41.684 z m 375.949,0.353 c -4.484,0.125 -11.47,4.802 -19.949,14.35 -11.651,13.118 -18.875,16.781 -23.717,12.012 -16.566,-16.313 -25.871,25.768 -11.38,51.474 8.422,14.944 7.556,18.594 -14.62,61.746 -18.814,36.606 -52.961,55.331 -87.958,83.588 -24.117,19.475 -46.101,35.264 -48.86,35.094 -2.76,-0.17 -5.506,4.128 -6.105,9.553 -1.764,15.988 24.558,13.087 61.033,-6.723 51.667,-28.062 96.59,-57.542 118.957,-111.953 18.218,-44.314 22.323,-49.535 49.502,-62.957 27.552,-13.605 52.353,-35.564 53.672,-47.518 0.976,-8.849 -17.083,-6.646 -26.895,3.278 -12.996,13.149 -15.523,7.38 -5.515,-12.59 12.458,-24.859 -1.139,-29.833 -22.907,-8.379 l -18.185,17.922 5.687,-17.447 c 4.64,-14.234 3.007,-21.608 -2.76,-21.45 z m -382.031,21.112 c 8.999,-0.257 18.275,1.392 26.914,5.39 24.46,11.318 24.977,34.719 1.403,63.42 -20.792,25.313 -28.694,60.112 -20.627,90.826 3.724,14.193 1.854,18.625 -11.166,26.434 -14.668,8.796 -16.365,8.291 -27.166,-8.096 -15.126,-22.947 -27.718,-22.832 -44.041,0.409 -15.387,21.911 -34.035,23.56 -43.75,3.867 -4.194,-8.501 -13.835,-14.097 -25.543,-14.822 -35.529,-2.201 -41.213,-37.741 -8.225,-51.416 9.477,-3.93 19.575,-13.806 22.441,-21.946 4.28,-12.152 10.895,-15.107 36.932,-16.504 34.925,-1.873 47.152,-11.762 44.199,-35.748 -2.846,-23.119 21.634,-41.043 48.629,-41.814 z m 751.762,3.127 c 3.813,0.04 5.008,8.953 2.943,26.734 -3.65,31.387 -26.982,70.629 -55.519,93.389 -18.569,14.807 -29.709,18.112 -62.268,18.453 -42.126,0.443 -54.387,-10.758 -17.941,-16.393 32.057,-4.955 96.838,-59.26 114.129,-95.672 8.411,-17.711 14.843,-26.543 18.656,-26.503 z m -632.275,42.947 c 2.054,-0.09 3.445,0.168 3.978,0.805 6.661,7.977 -14.188,23.699 -30.119,22.713 -17.271,-1.07 -23.672,5.485 -32.531,33.32 -6.444,20.25 -19.121,28.735 -24.975,16.717 -1.847,-3.786 2.145,-17.058 8.871,-29.491 8.798,-16.269 21.007,-26.15 43.553,-35.25 12.922,-5.216 25.062,-8.55 31.223,-8.814 z m 35.736,4.244 c 1.092,0.08 2.206,0.373 3.344,0.926 5.159,2.579 12.699,5.024 16.75,5.461 4.058,0.425 12.455,13.797 12.455,13.797 -15.426,-0.31 -11.608,20.338 -2.729,25.734 5.208,3.165 10.548,4.704 16.096,-1.793 2.211,-2.59 5.096,9.705 5.096,9.705 -19.25,5.869 -28.296,23.914 -8.871,28.949 0,0 -3.727,10.476 -11.752,21.002 -13.522,20.5 -24.362,14.848 -24.362,14.848 -9.8,-0.607 -50.726,-17.004 -58.334,-23.309 -7.605,-6.306 -15.522,-10.03 -17.59,-8.277 -7.985,6.765 4.696,34.108 23.555,43.979 6.632,3.387 18.168,9.514 36.027,5.158 -8.048,6.747 -22.795,8.133 -32.548,7.908 -30.688,-0.707 -52.653,-11.974 -67.25,-27.09 -10.327,-10.695 -13.026,-32.632 -3.121,-25.383 9.683,7.087 29.716,-11.311 36.851,-33.847 5.815,-18.367 10.453,-22.588 25.713,-23.407 12.331,-0.661 23.009,-7.269 31.623,-19.568 4.906,-5.402 11.404,-15.353 19.047,-14.793 z m 969.592,2.326 c 29.404,1.994 68.569,27.947 53.054,42.721 -13.796,13.139 -2.951,27.127 1.202,26.742 9.01,-0.834 24.973,9.79 11.414,17.34 -10.529,5.862 -20.203,22.106 -1.116,25.926 16.936,3.389 10e-4,26.461 -8.195,31.297 -10.503,6.189 -22.916,6.445 -33.017,7.16 -57.364,3.715 -90.969,-20.03 -87.333,-65.383 12.208,-5.083 12.842,-19.916 3.534,-24.078 2.399,-5.792 0.439,-4.21 5.781,-12.006 13.433,7.424 21.704,-14.816 10.48,-18.383 12.756,-24.011 28.144,-32.424 44.196,-31.336 z m -612.03,24.289 c 3.805,-0.455 5.089,7.102 4.6,11.536 -0.351,3.194 -6.888,7.024 -14.52,8.509 -11.385,2.216 -12.301,1.111 -5.109,-6.162 4.904,-4.962 11.226,-13.428 15.029,-13.883 z m -374.123,9.67 c -17.248,-0.5 -9.764,18.422 -2.517,27.567 11.299,13.528 27.234,-3.19 17.142,-17.985 -3.775,-5.535 -5.109,-9.306 -14.625,-9.582 z m 979.741,11.399 c -3.642,0.05 -7.71,3.612 -9.981,10.66 -1.893,5.879 1.252,10.357 7.549,10.744 6.745,0.419 10.435,-3.691 9.853,-10.975 -0.565,-7.009 -3.779,-10.477 -7.421,-10.429 z m 16.341,51.384 c -4.831,0.436 -11.355,2.722 -20.765,6.969 -25.073,11.316 -28.536,15.247 -21.184,24.051 5.785,6.921 35.987,0.834 48.852,-9.85 8.133,-6.752 8.991,-10.702 3.711,-17.027 -2.643,-3.162 -5.782,-4.577 -10.614,-4.143 z m -382.861,61.692 c -0.628,0.05 -1.114,0.209 -1.441,0.486 -6.003,5.086 17.769,29.921 42.199,44.084 21.783,12.627 58.14,11.539 76.113,-2.279 10.445,-8.028 15.417,-8.136 29.133,-0.643 11.895,6.502 18.754,7.157 24.439,2.34 11.24,-9.522 2.795,-22.685 -12.171,-18.978 -6.917,1.712 -17.855,-0.793 -24.313,-5.567 -9.491,-7.019 -14.931,-6.781 -28.418,1.237 -22.762,13.53 -49.975,10.641 -78.408,-8.329 -11.463,-7.648 -22.741,-12.693 -27.133,-12.351 z m -651.791,52.865 c 1.545,-0.04 3.091,-0.03 4.633,0.03 5.694,0.207 11.351,1.081 16.826,2.664 23.229,6.717 24.208,18.042 1.439,16.631 -9.011,-0.559 -16.72,2.018 -17.13,5.725 -0.907,8.219 26.002,21.305 46.416,22.57 13.661,0.847 34.673,20.121 33.504,30.731 -0.971,8.803 -23.873,2.053 -45.952,-13.543 -20.448,-14.441 -24.727,-15.241 -45.265,-8.459 -36.208,11.956 -52.407,13.038 -61.477,4.105 -7.252,-7.142 -6.234,-11.431 7.055,-29.761 13.603,-18.763 36.775,-30.089 59.951,-30.688 z m -267.461,30.453 c -5.143,0.324 -11.439,4.764 -21.693,9.864 -39.764,19.777 -74.891,23.101 -101.625,9.617 -12.518,-6.313 -24.359,-10.127 -26.321,-8.465 -7.607,6.445 11.909,24.385 35.204,32.359 27.091,9.27 49.442,7.049 87.103,-8.658 24.709,-10.311 25.301,-10.242 35.852,4.061 5.901,7.998 19.15,18.986 29.439,24.414 18.489,9.752 39.271,9.203 52.623,-1.389 4.118,-3.265 -0.352,-5.895 -11.154,-6.564 -23.397,-1.45 -50.499,-18.392 -64.654,-40.415 -5.642,-11.356 -9.631,-15.148 -14.774,-14.824 z m 1237.643,2.92 c 34.833,0.238 66.199,11.679 58.257,22.192 -2.805,3.716 -0.21,10.99 5.77,16.164 9.183,7.946 9.463,13.293 1.811,34.425 -7.772,21.464 -11.878,25.086 -28.916,25.551 -13.437,0.359 -26.309,-5.552 -39.807,-18.291 -19.207,-18.126 -37.172,-25.097 -76.848,-17.972 -27.339,4.909 -73.916,16.253 -38.98,-15.354 29.382,-26.574 74.031,-45.205 111.711,-46.609 2.342,-0.09 4.679,-0.122 7.002,-0.106 z m -559.278,30.742 c -3.147,0.529 -1.586,8.256 4.26,17.909 2.082,3.666 4.614,7.549 7.983,11.584 27.799,33.289 90.636,40.802 131.087,15.673 12.42,-7.714 15.752,-6.528 33.368,11.862 21.568,22.517 57.419,29.13 97.595,18.002 18.496,-5.125 24.814,-10.287 20.903,-13.832 -1.016,-4.138 -13.223,-6.787 -35.932,-5.854 -40.88,1.679 -63.477,-6.096 -83.836,-28.844 -14.113,-20.729 -21.718,-11.47 -42.605,-2.545 -16.044,6.854 -37.445,13.646 -47.553,15.092 -19.719,2.821 -58.179,-13.587 -75.44,-32.187 -4.049,-4.364 -6.994,-6.454 -8.88,-6.826 -0.354,-0.07 -0.67,-0.08 -0.95,-0.03 z m -356.113,74.852 c -3.656,0.12 -8.308,0.676 -13.934,1.74 -13.901,2.625 -39.962,5.593 -57.914,6.592 -30.104,1.676 -31.741,2.606 -21.119,11.977 13.357,11.783 51.664,10.281 82.985,-3.25 21.233,-9.175 25.272,-16.392 13.306,-17.036 -0.997,-0.05 -2.105,-0.06 -3.324,-0.02 z m 759.518,39.16 c -1.246,-0.147 -2.212,0 -2.793,0.492 -7.276,6.165 5.362,28.227 22.832,39.858 9.458,6.299 26.024,10.459 38.043,9.57 28.875,-2.146 68.099,-18.216 74.263,-30.428 4.242,-8.4 1.021,-9.507 -20.175,-6.931 -63.932,7.77 -81.569,6.981 -96.123,-4.305 -6.031,-4.673 -12.306,-7.808 -16.047,-8.254 z" fill="#00B894" transform="translate(196.46684,88.540255) translate(-7912.7568,-2588.0865) matrix(0.26458333,0,0,0.26458333,-1524.344,-1328.9457)"/>
</svg>