<?xml version="1.0" ?><svg height="129.78102mm" viewBox="0 0 147.04671 129.78102" width="147.04671mm" xmlns="http://www.w3.org/2000/svg">
    <path d="m 33949.943,12685.017 c 14.445,0.624 129.315,-1.781 129.315,-1.781 l -6.629,-26.801 -24.933,-3.918 c 0,0 -5.343,-37.487 -13.753,-42.652 -8.409,-5.164 -6.826,-67.583 -6.826,-67.583 0,0 122.983,-5.966 135.845,-7.658 12.862,-1.692 15.83,-8.459 10.191,-27.069 -5.64,-18.61 -66.093,-188.326 -66.093,-188.326 l -201.244,6.144 -60.156,208.539 147.52,10.863 -3.76,64.378 -12.763,10.596 -5.838,37.22 -16.325,4.452 z" fill="#FFFFFF" paint-order="markers stroke fill" transform="translate(-69.594727,11.869041) matrix(0.26458333,0,0,0.26458333,-8852.738,-3240.8083)"/>
    <path d="m 33727.721,12686.88 c -3.682,-1.662 -6.111,-4.641 -5.392,-6.622 0.717,-1.98 24.549,-9.448 52.963,-16.597 l 51.66,-12.995 0.306,-11.497 c 0.271,-10.146 2.349,-13.434 17.708,-27.994 12.493,-11.844 19.579,-16.441 25.121,-16.293 9.841,0.262 9.962,6.945 0.365,20.394 -9.68,13.563 -7.789,17.609 7.365,15.743 15.283,-1.885 18.936,-4.921 11.21,-9.325 -6.198,-3.532 -7.867,-14.425 -2.952,-19.269 3.646,-3.593 4.973,-15.92 2.403,-22.337 -1.204,-3.014 -0.527,-6.937 1.627,-9.395 2.934,-3.348 2.956,-4.241 0.115,-4.317 -2.309,-0.06 -3.065,-3.091 -2.121,-8.514 1.288,-7.397 0.427,-8.654 -7.019,-10.354 -4.666,-1.063 -14.197,-2.084 -21.18,-2.27 -19.44,-0.518 -25.271,-8.208 -22.144,-29.205 1.34,-8.985 5.145,-26.722 8.457,-39.413 8.294,-31.769 45.277,-141.977 51.312,-152.897 6.141,-11.114 7.466,-11.308 97.623,-14.524 73.612,-2.624 102.956,-2.51 112.867,0.435 7.018,2.085 18.668,26.994 30.984,66.246 4.232,13.486 13.153,39.698 19.822,58.246 23.089,64.193 29.769,94.473 23.049,104.462 -5.683,8.446 -70.015,16.261 -122.418,14.87 l -24.209,-0.645 0.561,21.339 c 0.495,18.869 1.603,22.676 9.546,32.853 4.941,6.331 9.62,16.138 10.397,21.792 2.294,16.67 2.997,17.582 13.781,17.869 8.498,0.227 11.251,1.947 15.793,9.86 6.708,11.694 6.785,29.208 0.148,34.422 -6.455,5.074 -135.696,4.288 -141.573,-0.86 -4.808,-4.211 -3.347,-30.374 2.041,-36.524 2.062,-2.355 7.508,-4.184 12.101,-4.062 8.205,0.219 8.36,-0.07 8.784,-15.963 0.376,-14.114 1.575,-17.268 9.37,-24.658 8.429,-7.993 8.974,-9.791 9.552,-31.473 l 0.613,-22.995 -38.455,-1.005 c -37.923,-0.99 -38.505,-0.895 -41.928,5.988 -2.338,4.711 -2.755,11.483 -1.276,20.756 1.206,7.571 1.509,14.412 0.673,15.205 -0.833,0.792 1.196,4.489 4.512,8.212 3.784,4.251 5.392,8.97 4.318,12.675 -2.063,7.103 2.58,7.791 11.734,1.735 12.007,-7.94 17.005,3.054 6.092,13.4 -4.742,4.498 -5.052,5.674 -1.515,5.769 8.302,0.221 7.94,9.005 -0.726,17.581 -4.621,4.573 -6.762,8.358 -4.757,8.412 2.119,0.06 3.187,2.808 2.549,6.559 -1.568,9.21 -22.683,19.292 -42.989,20.53 -14.352,0.875 -18.732,-0.19 -32.339,-7.862 l -15.738,-8.873 -36.284,7.052 c -44.236,8.602 -63.697,10.299 -72.502,6.326 z m 315.54,-13.581 c 22.584,-0.841 26.451,-1.7 25.085,-5.568 -1.41,-3.989 -7.218,-4.468 -45.454,-3.749 -46.338,0.872 -63.184,2.791 -64.855,7.381 -1.064,2.922 36.121,3.767 85.224,1.936 z m -17.949,-27.789 c 7.133,0.17 8.01,-0.854 8.245,-9.644 0.144,-5.411 -2.012,-12.803 -4.794,-16.427 -4.78,-6.238 -5.933,-6.435 -21.46,-3.639 -18.491,3.327 -22.309,6.476 -26.137,21.569 l -2.685,10.576 19.424,-1.315 c 10.684,-0.721 23.016,-1.227 27.407,-1.12 z m -10.086,-70.025 c 2.644,-21.184 2.163,-23.146 -5.749,-23.357 -5.082,-0.135 -5.692,2.007 -6.22,21.83 -0.516,19.369 0.02,21.881 4.518,21.143 3.996,-0.654 5.616,-4.921 7.451,-19.616 z m 89.449,-47.203 c 55.028,-1.816 62.555,-2.938 62.592,-9.317 0.03,-2.608 -6.7,-23.874 -14.923,-47.257 -8.223,-23.38 -29.477,-85.114 -37.497,-113.47 -9.275,-32.792 -12.867,-30.96 -44.646,-31.007 -40.755,-0.06 -124.915,0.471 -138.136,1.111 -22.969,1.106 -24.117,1.491 -25.815,8.693 -0.98,4.145 -8.348,30.887 -16.375,59.427 -26.938,95.765 -32.744,120.854 -28.578,123.492 12.724,8.057 130.015,12.072 243.378,8.327 z m -354.626,-43.41 c 0.106,-3.985 21.248,-11.497 37.35,-13.267 10.569,-1.163 12.912,-0.648 11.758,2.587 -0.79,2.222 -4.648,5.477 -8.57,7.232 -10.081,4.508 -40.635,7.11 -40.538,3.448 z m 476.371,5.014 c -2.773,-3.526 -0.639,-4.477 13.086,-5.821 16.511,-1.617 24.368,1.365 20.23,7.678 -3.033,4.627 -29.375,3.161 -33.316,-1.857 z m -463.734,-89.239 c -28.117,-5.13 -5.897,-14.453 24.104,-10.114 19.158,2.772 21.294,4.277 13.605,9.591 -5.858,4.049 -17.506,4.212 -37.709,0.523 z m 463.038,-0.845 c 0.07,-2.811 7.287,-5.553 22.279,-8.471 20.773,-4.045 22.464,-4 26.848,0.696 4.356,4.668 4.283,5.288 -1.066,9.037 -8.082,5.664 -48.217,4.61 -48.061,-1.26 z m -429.012,-85.688 c -23.336,-11.772 -6.492,-19.011 20.565,-8.837 8.653,3.255 14.332,7.142 14.262,9.761 -0.174,6.552 -21.11,5.996 -34.827,-0.928 z m 399.135,7.987 c 0.169,-6.378 13.643,-17.934 30.003,-25.738 13.44,-6.412 14.421,-6.492 14.279,-1.164 -0.151,5.664 -32.747,32.761 -39.204,32.589 -3.211,-0.09 -5.169,-2.28 -5.078,-5.687 z m -311.978,-76.097 c -10.139,-11.706 -13.771,-20.074 -8.576,-19.763 6.113,0.359 29.191,21.709 29.054,26.87 -0.251,9.423 -8.696,6.491 -20.478,-7.107 z m 231.156,10.103 c -2.324,-3.998 9.051,-35.748 12.343,-34.447 3.377,1.339 1.383,24.958 -2.721,32.211 -3.079,5.443 -7.199,6.4 -9.622,2.236 z m -112.797,-18.568 c -7.266,-26.572 -5.863,-39.384 3.423,-31.249 5.128,4.492 10.703,25.375 8.313,31.14 -2.068,4.981 -10.382,5.058 -11.736,0.109 z" fill="#00B894" transform="translate(-69.594727,11.869041) matrix(0.26458333,0,0,0.26458333,-8852.738,-3240.8083)"/>
</svg>