<?xml version="1.0" ?><svg height="171.3645mm" viewBox="0 0 170.87744 171.3645" width="170.87744mm" xmlns="http://www.w3.org/2000/svg">
    <path d="m 39741.512,12721.828 -25.668,9.375 c 0.947,26.679 2.653,37.249 -11.553,52.25 -14.207,15.002 -20.554,48.157 3.029,58.811 23.582,10.655 58.342,-7.414 65.635,-19.688 7.293,-12.274 21.972,-27.958 3.219,-43.812 -18.752,-15.853 -34.662,-56.936 -34.662,-56.936 z m -319.926,180.733 c -11.464,-0.221 -22.865,1.937 -33.52,6.732 -20.271,9.121 -37.832,21.724 -49.316,39.764 -26.504,-5.104 -39.03,-4.467 -55.311,10.642 -18.961,17.594 -28.062,44.441 -9.101,111.104 18.96,66.662 9.943,131.504 30.168,139.316 20.224,7.811 33.287,-13.348 35.056,-24.42 1.659,-10.378 9.979,-50.606 8.379,-104.943 17.588,20.414 45.298,23.271 89.848,32.93 78.799,-13.126 93.1,-103.22 70.275,-151.891 -17.118,-36.501 -52.085,-58.571 -86.478,-59.234 z m 17.627,241.738 c -24.012,0.161 -50.305,15.835 -58.154,32.801 -9.66,20.883 -6.23,92.394 4.601,155.574 21.439,29.002 180.65,6.288 177.809,-10.248 -2.842,-16.536 -10.703,-58.129 -25.194,-89.496 -14.491,-31.366 -56.161,-76.542 -83.058,-86.088 -5.044,-1.79 -10.463,-2.58 -16.004,-2.543 z" fill="#FFFFFF" paint-order="markers stroke fill" transform="translate(-47.712944,20.701069) matrix(0.26458333,0,0,0.26458333,-9461.4884,-2735.6186) translate(-3313.5291,-2437.8203)"/>
    <path d="m 39744.232,12698.934 c -3.283,0.04 -6.033,0.206 -8.101,0.515 -7.58,1.13 -31.193,2.415 -52.471,2.85 -39.548,0.811 -49.232,2.748 -49.467,9.902 -0.274,8.299 23.215,11.601 29.793,4.19 2.345,-2.645 8.95,-4.194 16.785,-3.936 l 12.917,0.424 0.5,12.736 c 0.386,9.835 2.009,13.46 7.13,15.91 5.273,2.522 6.55,5.601 6.239,15.045 -0.316,9.587 -2.523,13.916 -11.467,22.489 -9.499,9.11 -11.38,13.114 -13.217,28.125 -1.845,15.082 -1.241,18.722 4.357,26.289 3.574,4.83 10.57,11.452 15.547,14.716 19.89,13.05 55.64,6.434 77.057,-14.251 8.498,-8.21 10.623,-12.787 12.187,-26.254 2.259,-19.433 -3.621,-32.043 -22.326,-47.885 -11.759,-9.961 -11.818,-10.125 -5.343,-14.123 5.07,-3.134 6.651,-7.064 6.992,-17.405 l 0.439,-13.357 20.162,1.266 c 27.433,1.721 28.21,1.595 27.262,-4.405 -0.695,-4.399 -6.459,-6.013 -35.062,-9.824 -15.412,-2.053 -30.061,-3.129 -39.913,-3.017 z m -86.359,27.718 c -4.812,-0.158 -15.577,12.134 -15.771,18.008 -0.239,7.277 3.793,6.947 13.841,-1.135 8.036,-6.466 9.2,-16.633 1.93,-16.873 z m -0.635,23.926 c -8.551,-0.281 -14.25,7.383 -9.777,13.147 4.322,5.571 6.48,5.815 11.332,1.271 5.785,-5.417 4.839,-14.207 -1.555,-14.418 z m 71.815,2.375 c 2.401,0.08 2.661,5.634 0.869,18.735 -2.077,15.165 -3.969,19.596 -10.192,23.857 -7.982,5.466 -10.696,12.344 -3.953,10.008 2.832,-0.98 3.48,1.404 2.377,8.738 -1.7,11.323 2.944,13.696 8.389,4.283 2.336,-4.043 5.281,-5.38 8.967,-4.074 3.016,1.067 6.358,0.627 7.428,-0.979 1.066,-1.606 3.969,-2.061 6.449,-1.017 2.966,1.254 5.151,-0.255 6.384,-4.408 1.03,-3.473 4.071,-6.282 6.76,-6.252 3.845,0.05 3.445,-1.223 -1.863,-5.953 -5.953,-5.303 -13.846,-26.182 -10.93,-28.914 3.081,-2.881 22.398,28.037 22.153,35.459 -0.389,11.837 -13.535,24.977 -29.996,29.986 -19.161,5.834 -26.25,5.134 -35.661,-3.516 -12.26,-11.267 -10.203,-25.636 6.022,-42.115 9.846,-10.004 12.767,-15.247 13.037,-23.42 0.194,-5.902 1.845,-10.488 3.76,-10.418 z m 137.324,7.822 c -3.798,0.04 -7.047,0.406 -8.992,1.188 -3.763,1.513 -2.832,2.547 3.986,4.435 15.579,4.309 34.914,4.452 33.68,0.247 -0.938,-3.19 -17.279,-5.989 -28.674,-5.87 z m -127.375,10.036 c 0.349,0.182 0.72,0.848 1.123,1.962 1.208,3.331 2.131,11.026 2.041,17.1 -0.08,6.071 -1.432,11.774 -2.996,12.67 -4.456,2.56 -5.155,-1.776 -3.123,-19.432 1.041,-9.047 1.907,-12.847 2.955,-12.3 z m -199.752,0.89 c -6.29,-0.186 -8.64,0.625 -8.064,2.57 0.591,1.989 4.969,4.594 9.734,5.79 12.991,3.265 17.161,3.353 22.098,0.453 6.986,-4.105 2.124,-6.607 -16.127,-8.299 -3.01,-0.28 -5.544,-0.452 -7.641,-0.514 z m 117.861,0.514 c -8.196,0.915 -17.304,14.798 -11.73,20.752 0.996,1.066 5.742,0.06 10.549,-2.223 9.511,-4.529 12.142,-14.881 4.593,-18.066 -1.088,-0.46 -2.241,-0.594 -3.412,-0.463 z m 1.657,24.09 c -6.896,-0.586 -15.297,10.078 -11.454,16.781 v -0.01 c 2.208,3.863 3.373,3.889 10.68,0.285 6.075,-2.997 8.299,-12.946 3.596,-16.07 -0.884,-0.587 -1.837,-0.901 -2.822,-0.984 z m 192.527,6.759 c -0.486,-0.05 -0.823,0 -0.986,0.149 -1.532,1.437 12.917,15.251 25.236,24.133 8.8,6.346 23.972,7.803 24.109,2.312 0.08,-3.558 -41.065,-25.834 -48.359,-26.594 z m -271.693,15.081 c -9.734,1.086 -42.101,12.679 -42.202,15.761 -0.205,6.192 28.64,0.405 39.682,-7.959 3.934,-2.98 6.248,-6.386 5.147,-7.57 -0.307,-0.329 -1.237,-0.388 -2.627,-0.232 z m 77.091,3.281 c -2.196,0.293 -4.598,1.723 -6.623,4.42 -3.414,4.548 -3.849,7.336 -1.601,10.232 4.158,5.362 14.557,0.259 14.804,-7.262 0.173,-5.215 -2.919,-7.88 -6.58,-7.39 z m -0.595,22.379 c -4.618,-0.331 -9.906,4.224 -11.125,10.929 -0.981,5.383 0.05,6.485 5.486,5.862 9.027,-1.035 14.717,-9.54 9.857,-14.731 -1.215,-1.297 -2.679,-1.95 -4.218,-2.06 z m 175.453,11.631 c -3.264,0.4 4.17,11.099 16.869,23.603 13.259,13.055 22.158,16.714 22.404,9.211 0.129,-3.875 -28.287,-28.566 -37.205,-32.33 -0.919,-0.388 -1.602,-0.542 -2.068,-0.484 z m -175.5,8.847 c -5.445,-0.18 -12.153,7.603 -12.377,14.36 -0.19,5.762 14.486,3.924 18.066,-2.266 4.162,-7.197 1.977,-11.842 -5.689,-12.094 z m -58.899,1.051 c -3.431,-0.114 -43.003,22.717 -46.806,27.004 -1.951,2.198 -2.713,5.452 -1.694,7.23 2.267,3.953 3.801,3.183 29.727,-14.92 18.654,-13.035 24.584,-19.123 18.773,-19.314 z m 184.264,20.734 c -0.205,0.07 -0.317,0.268 -0.328,0.606 -0.172,5.207 24.3,48.883 29.219,52.152 6.878,4.569 9.464,-3.266 4.375,-13.252 -6.554,-12.852 -30.191,-40.55 -33.266,-39.506 z m -361.83,0.493 c -8.932,0.392 -17.742,2.398 -26.285,6.064 -19.718,8.462 -43.836,26.474 -53.709,40.111 -7.239,9.999 -8.656,10.652 -18.781,8.645 -12.364,-2.448 -35.051,5.188 -47.373,15.943 -24.764,21.619 -25.854,50.535 -4.581,121.53 11.909,39.746 14.21,51.739 15.422,80.369 1.545,36.463 3.248,42.252 15.43,52.535 6.317,5.336 10.775,6.559 20.928,5.762 15.245,-1.196 15.386,-1.297 19.154,-13.989 13.387,-45.122 14.054,-48.961 13.25,-76.105 l -0.822,-27.69 15.551,9.465 c 17.544,10.679 55.78,18.726 77.148,16.238 29.854,-3.477 58.869,-28.238 78.045,-66.605 12.276,-24.563 15.56,-62.484 7.205,-83.189 -4.606,-11.42 -5.861,-15 -5.861,-15 13.941,-10.05 4.724,-22.963 -7.888,-16.885 0,0 -7.894,-8.571 -17.097,-18.362 -25.049,-26.663 -52.94,-40.015 -79.736,-38.837 z m 240.76,2.769 c -17.757,0.211 -14.707,-4.393 -17.741,11.92 -1.216,6.546 -2.3,8.823 -2.41,5.064 -0.111,-3.758 -2.303,-7.723 -4.873,-8.806 -16.362,-6.905 -28.132,41.749 -14.984,61.947 3.621,5.565 7.624,10.899 8.894,11.854 4.587,3.447 9.257,85.09 6.764,118.283 -3.099,41.285 -8.502,54.247 -28.246,67.763 -19.67,13.465 -25.469,15.064 -59.092,16.27 l -29.107,1.047 -12,-12.215 c -32.676,-33.257 -49.531,-37.114 -95.086,-21.758 -22.398,7.546 -36.711,19.36 -43.746,36.102 -8.737,20.797 -6.193,63.139 8.015,133.211 2.182,10.774 4.476,21.287 5.096,23.365 v 0 c 0.618,2.077 2.711,3.825 4.652,3.895 3.766,0.124 3.776,-29.414 0.02,-99.936 -2.878,-54.004 3.164,-65.658 39.64,-76.438 20.313,-6.004 33.58,-5.035 46.143,3.364 l 10.596,7.082 -26.971,2.105 c -21.478,1.676 -27.202,3.129 -28.107,7.137 -1.471,6.51 12.412,10.655 48.779,14.553 24.298,2.605 28.116,3.832 34.613,11.105 10.42,11.666 25.684,48.797 34.383,83.641 7.866,31.497 13.182,39.3 22.832,33.502 13.107,-7.877 -0.62,-69.072 -27.381,-122.049 -0.523,-1.036 9.552,-2.168 22.385,-2.514 28.438,-0.769 49.074,-9.462 70.855,-29.855 17.313,-16.208 23.534,-31.684 27.659,-68.819 2.422,-21.792 1.723,-45.266 -3.02,-101.548 l -1.373,-16.329 12.313,-5.072 c 24.755,-10.195 33.953,-30.182 15.699,-34.111 -7.793,-1.677 -8.021,-2.159 -3.584,-7.619 6.476,-7.976 6.345,-15.362 -0.375,-21.51 -4.375,-4.003 -4.921,-6.413 -2.432,-10.717 2.951,-13.547 -14.256,-13.968 -18.81,-13.914 z m 81.99,33.879 c 0.181,15.216 1.136,29.077 2.125,30.799 2.759,4.812 7.458,0.66 7.568,-6.676 0.05,-3.606 -1.182,-17.852 -2.847,-30.487 -3.953,-30.009 -7.138,-18.242 -6.846,6.364 z m -305.551,-10.605 c 27.512,9.437 58.688,44.754 56.916,48.672 -8.912,8.421 -4.898,21.997 9.884,14.433 0,0 1.692,1.996 4.331,11.988 1.697,6.42 2.901,17.22 2.678,24.002 -0.869,26.354 -24.768,66.907 -47.225,80.131 -12.23,7.198 -16.339,7.978 -37.799,7.158 -13.241,-0.509 -29.394,-3.041 -35.892,-5.627 -6.499,-2.587 -12.153,-4.741 -12.565,-4.771 -0.409,-0.04 -0.677,-2.088 -0.597,-4.555 0.09,-2.792 -2.676,-4.576 -7.325,-4.73 -8.223,-0.271 -9.92,-4.68 -2.757,-7.16 6.855,-2.377 6.154,-13.681 -0.864,-13.913 -3.191,-0.105 -6.678,1.128 -7.75,2.739 -7.822,11.774 -19.276,-18.845 -19.994,-53.463 -0.67,-32.237 3.969,-47.493 21.061,-69.235 8.784,-11.177 14.778,-15.453 27.824,-19.849 14.532,-4.965 37.207,-10.233 50.074,-5.82 z m -23.151,3.807 c -6.149,-0.05 -13.997,0.33 -14.502,3.127 -0.68,3.776 2.027,5.801 11.381,5.995 8.969,0.187 15.12,-1.049 13.946,-6.159 -0.701,-3.056 -7.452,-2.934 -10.825,-2.963 z m -21.544,14.384 c -3.119,0.07 -4.578,1.197 -4.652,3.5 -0.08,2.441 1.511,5.185 3.537,6.101 6.27,2.831 12.689,1.006 12.841,-3.656 0.09,-2.625 -3.207,-4.941 -8.045,-5.66 -1.419,-0.211 -2.642,-0.307 -3.681,-0.285 z m 61.193,3.344 c -0.959,0.02 -1.904,0.175 -2.812,0.49 -5.303,1.836 -1.924,13.102 2.912,18.267 5.46,5.832 15.499,3.444 16.81,-3.998 1.109,-6.299 -10.199,-14.895 -16.91,-14.759 z m -70.515,10.927 c -4.014,-0.133 -8.174,1.078 -9.243,2.688 -1.136,1.71 1.865,3.054 7.198,3.23 5.033,0.166 9.184,-1.043 9.244,-2.687 0.06,-1.643 -3.185,-3.099 -7.199,-3.231 z m 50.164,7.639 c -13.126,-0.432 -12.653,11.693 0.756,19.305 7.845,4.455 15.285,2.208 15.513,-4.684 0.19,-5.795 -9.373,-14.393 -16.269,-14.621 z m -116.817,2.443 9.256,0.614 -9.986,2.015 c -13.31,2.692 -23.664,12.274 -30.28,28.018 -4.394,10.457 -5.309,19.224 -4.783,45.779 0.356,18.07 0.182,32.837 -0.39,32.817 -1.756,-0.06 -11.762,-53.06 -11.448,-60.608 0.925,-21.909 28.346,-49.909 47.631,-48.635 z m 56.961,7.825 c -1.29,-0.07 -2.938,-0.02 -5.012,0.107 -6.804,0.43 -10.368,2.35 -11.191,6.035 -1.005,4.512 0.478,5.3 8.772,4.778 6.803,-0.429 10.368,-2.35 11.193,-6.036 0.755,-3.384 0.108,-4.671 -3.762,-4.884 z m -58.146,0.392 c 3.965,-0.02 4.591,7.429 3.088,23.713 -1.172,12.721 -3.871,30.121 -5.998,38.67 -2.487,9.99 -3.682,30.531 -3.342,57.504 0.284,23.077 0.117,41.954 -0.381,41.934 -1.596,-0.05 -14.179,-67.015 -17.149,-91.272 -3.451,-28.174 1.212,-51.056 12.778,-62.74 5.044,-5.096 8.625,-7.797 11.004,-7.809 z m 51.334,21.871 c -4.095,0.02 -10.552,3.532 -10.664,6.93 v 0 c -0.126,3.804 10.963,4.082 13.457,0.33 1.078,-1.609 1.164,-4.306 0.197,-5.988 -0.517,-0.903 -1.619,-1.284 -2.984,-1.278 z m 2.269,26.272 c -6.334,0.207 -16.124,4.525 -18.051,9.092 -2.447,5.823 9.803,5.82 18.733,0 4.834,-3.154 6.119,-5.604 4.08,-7.78 -0.924,-0.987 -2.651,-1.375 -4.762,-1.306 z m 121.155,2.564 c -8.766,0.255 -23.224,13.389 -18.817,19.073 5.89,7.594 27.137,-2.943 27.488,-13.631 0.03,-0.871 -2.372,-2.988 -5.336,-4.703 -0.948,-0.549 -2.083,-0.775 -3.335,-0.739 z m -123.194,17.254 c -9.255,-0.306 -18.596,10.276 -13.693,15.512 2.486,2.654 2.305,2.673 11.369,-1.104 9.192,-3.827 10.852,-14.128 2.324,-14.408 z m -46.334,7.766 c 0.578,0.09 0.962,1.211 0.902,2.959 -0.06,2.33 3.115,11.751 7.059,20.935 3.944,9.182 7.684,19.408 8.307,22.721 5.165,27.344 6.036,41.858 3.644,60.697 -1.512,11.904 -3.883,21.597 -5.269,21.557 -6.285,-0.208 -20.911,-123.33 -15.276,-128.606 0.227,-0.212 0.441,-0.294 0.633,-0.263 z m -21.082,111.703 c 1.467,0.185 2.507,9.783 2.209,27.285 -0.175,10.283 -1.585,18.664 -3.131,18.604 -4.955,-0.163 -5.353,-4.172 -2.847,-28.528 1.229,-11.955 2.628,-17.505 3.769,-17.361 z m 18.092,16.537 c 1.177,0.816 2.806,6.225 4.883,16.221 2.323,11.106 2.182,15.594 -0.561,18.687 h -0.01 c -6.067,6.839 -12.684,4.862 -9.586,-2.861 1.467,-3.654 2.854,-12.978 3.109,-20.715 0.265,-8.372 0.991,-12.148 2.168,-11.332 z" fill="#00B894" transform="translate(-47.712944,20.701069) matrix(0.26458333,0,0,0.26458333,-9461.4884,-2735.6186) translate(-3313.5291,-2437.8203)"/>
</svg>