<?xml version="1.0" ?><svg height="170.83829mm" viewBox="0 0 154.24466 170.83829" width="154.24466mm" xmlns="http://www.w3.org/2000/svg">
    <path d="m 34169.058,10285.291 -25.668,9.375 c 0.947,26.679 2.653,37.249 -11.553,52.25 -14.207,15.002 -20.554,48.158 3.029,58.812 23.582,10.655 58.342,-7.415 65.635,-19.689 7.293,-12.274 21.972,-27.957 3.219,-43.811 -18.752,-15.853 -34.662,-56.937 -34.662,-56.937 z m -319.926,180.734 c -11.464,-0.221 -22.865,1.936 -33.52,6.731 -42.619,19.177 -73.588,53.443 -60.234,122.228 13.354,68.784 42.335,67.506 109.957,82.166 78.799,-13.126 93.1,-103.22 70.275,-151.891 -17.118,-36.501 -52.085,-58.571 -86.478,-59.234 z m 17.627,241.738 c -24.012,0.161 -50.305,15.835 -58.154,32.801 -9.66,20.883 -6.23,92.394 4.601,155.574 21.439,29.002 180.65,6.288 177.809,-10.248 -2.842,-16.536 -10.703,-58.129 -25.194,-89.496 -14.491,-31.366 -56.161,-76.542 -83.058,-86.088 -5.044,-1.79 -10.463,-2.58 -16.004,-2.543 z" fill="#FFFFFF" paint-order="markers stroke fill" transform="translate(47.22299,4.4916408) matrix(0.26458333,0,0,0.26458333,-8975.2954,-2720.2752)"/>
    <path d="m 33809.043,10898.831 c -0.618,-2.08 -2.913,-12.594 -5.095,-23.365 -14.206,-70.073 -16.752,-112.415 -8.016,-133.212 7.034,-16.745 21.349,-28.558 43.746,-36.105 45.556,-15.354 62.41,-11.497 95.086,21.761 l 12,12.213 29.109,-1.045 c 33.622,-1.207 39.42,-2.804 59.09,-16.27 19.744,-13.515 25.147,-26.478 28.247,-67.764 2.492,-33.192 -2.176,-114.834 -6.763,-118.281 -1.269,-0.956 -5.274,-6.29 -8.895,-11.856 -13.146,-20.198 -1.377,-68.852 14.984,-61.946 2.571,1.084 4.763,5.048 4.874,8.807 0.11,3.758 1.194,1.481 2.41,-5.065 2.781,-16.404 0.688,-11.897 17.737,-11.919 17.657,-0.02 24.115,4.754 18.816,13.912 -2.489,4.305 -1.943,6.716 2.432,10.719 6.72,6.149 6.851,13.534 0.373,21.509 -4.435,5.461 -4.209,5.943 3.585,7.62 18.256,3.928 9.059,23.916 -15.698,34.11 l -12.312,5.075 1.373,16.326 c 4.743,56.282 5.44,79.756 3.019,101.548 -4.125,37.136 -10.342,52.611 -27.657,68.819 -21.781,20.393 -42.42,29.087 -70.856,29.852 -12.834,0.348 -22.907,1.48 -22.385,2.517 26.761,52.978 40.487,114.171 27.379,122.048 -9.648,5.799 -14.965,-2.004 -22.83,-33.501 -8.7,-34.844 -23.964,-71.976 -34.383,-83.641 -6.497,-7.274 -10.315,-8.5 -34.613,-11.104 -36.368,-3.899 -50.252,-8.042 -48.78,-14.553 0.904,-4.008 6.628,-5.463 28.108,-7.14 l 26.971,-2.103 -10.596,-7.084 c -12.563,-8.398 -25.829,-9.364 -46.143,-3.361 -36.474,10.78 -42.517,22.432 -39.642,76.436 3.753,70.522 3.747,100.059 -0.02,99.935 -1.943,-0.07 -4.038,-1.816 -4.656,-3.891 z m 19.432,-211.222 c -56.195,-10.687 -90.324,-64.873 -83.779,-133.015 2.705,-28.183 14.045,-50.491 35.743,-70.325 49.036,-44.813 99.968,-42.519 146.097,6.582 9.203,9.793 18.508,17.189 20.678,16.437 6.649,-2.303 12.35,7.66 8.052,14.066 -2.918,4.346 -2.489,8.323 2.116,19.743 8.712,21.583 5.128,58.854 -8.152,84.804 -27.872,54.472 -63.382,72.619 -120.755,61.708 z m 62.107,-30.325 c 22.456,-13.224 46.356,-53.78 47.224,-80.134 0.223,-6.778 -0.981,-17.581 -2.677,-24 -2.639,-9.991 -4.306,-11.711 -11.577,-11.951 -8.821,-0.291 -11.006,-5.466 -4.773,-11.3 7.493,-7.015 -19.148,-34.961 -45.398,-47.622 -16.607,-8.01 -33.03,-7.665 -58.81,1.24 -13.63,4.704 -19.635,8.97 -28.469,20.209 -17.12,21.779 -21.743,36.996 -21.022,69.236 0.642,28.813 3.039,37.631 15.827,58.209 13.814,22.229 33.821,31.45 71.882,33.131 21.582,0.953 25.49,0.227 37.793,-7.018 z m 7.503,-58.687 c -5.037,-6.496 14.569,-22.724 22.153,-18.335 2.964,1.714 5.367,3.831 5.338,4.705 -0.353,10.687 -21.602,21.223 -27.491,13.63 z m -37.182,-61.135 c -13.409,-7.61 -13.883,-19.738 -0.755,-19.305 6.894,0.228 16.458,8.826 16.267,14.622 -0.227,6.891 -7.667,9.137 -15.512,4.683 z m 19.694,-19.114 c -4.837,-5.165 -8.217,-16.43 -2.914,-18.265 7.266,-2.519 20.992,7.071 19.724,14.267 -1.313,7.444 -11.35,9.83 -16.81,3.998 z m 291.077,1.113 c -0.988,-1.724 -1.945,-15.582 -2.125,-30.798 0.108,-24.863 6.138,-37.474 8.477,-6.915 0.973,12.709 1.269,27.429 1.217,31.035 -0.11,7.336 -4.811,11.49 -7.569,6.678 z m 65.848,-15.182 c -4.92,-3.269 -29.392,-46.945 -29.221,-52.152 0.179,-5.408 26.603,25.19 33.592,38.9 5.09,9.986 2.505,17.822 -4.371,13.252 z m -261.653,-39.258 c -1.02,-1.777 -0.26,-5.032 1.692,-7.231 3.801,-4.287 43.374,-27.117 46.806,-27.004 5.809,0.192 -0.119,6.283 -18.774,19.314 -25.927,18.107 -27.458,18.875 -29.724,14.921 z m 299.765,-20.529 c -14.513,-14.291 -22.152,-26.222 -14.801,-23.12 8.917,3.764 37.333,28.458 37.206,32.331 -0.247,7.503 -9.145,3.843 -22.405,-9.211 z m -204.746,-0.396 c 0.223,-6.757 6.93,-14.541 12.375,-14.362 7.667,0.253 9.853,4.901 5.691,12.098 -3.579,6.188 -18.255,8.026 -18.066,2.264 z m 1.297,-23.908 c 1.627,-8.94 10.487,-14.06 15.346,-8.87 4.86,5.19 -0.833,13.695 -9.859,14.731 -5.435,0.622 -6.467,-0.478 -5.487,-5.861 z m 57.806,-6.546 c -4.978,-3.264 -11.974,-9.888 -15.548,-14.717 -5.598,-7.567 -6.201,-11.206 -4.358,-26.289 1.838,-15.01 3.719,-19.015 13.218,-28.122 8.945,-8.576 11.151,-12.905 11.468,-22.491 0.311,-9.444 -0.966,-12.521 -6.238,-15.045 -5.122,-2.45 -6.745,-6.075 -7.131,-15.911 l -0.499,-12.735 -12.917,-0.425 c -7.834,-0.259 -14.44,1.29 -16.786,3.936 -6.576,7.411 -30.066,4.11 -29.793,-4.189 0.236,-7.152 9.917,-9.093 49.466,-9.902 21.278,-0.436 44.889,-1.719 52.47,-2.849 8.275,-1.237 27.467,-0.237 48.014,2.502 28.605,3.81 34.367,5.427 35.062,9.825 0.949,5.999 0.173,6.124 -27.262,4.402 l -20.161,-1.266 -0.439,13.358 c -0.341,10.342 -1.921,14.272 -6.991,17.404 -6.476,3.998 -6.414,4.162 5.346,14.123 18.704,15.843 24.581,28.453 22.323,47.885 -1.562,13.465 -3.688,18.047 -12.186,26.254 -21.417,20.687 -57.167,27.3 -77.058,14.252 z m 39.116,-15.766 c 16.463,-5.009 29.608,-18.151 29.997,-29.986 0.245,-7.423 -19.071,-38.342 -22.15,-35.459 -2.917,2.731 4.974,23.609 10.928,28.912 5.308,4.73 5.707,6.001 1.865,5.954 -2.689,-0.03 -5.732,2.779 -6.762,6.252 -1.234,4.152 -3.419,5.663 -6.385,4.408 -2.48,-1.044 -5.381,-0.587 -6.45,1.018 -1.067,1.606 -4.41,2.046 -7.429,0.98 -3.685,-1.307 -6.629,0.03 -8.966,4.069 -5.444,9.415 -10.087,7.043 -8.387,-4.28 1.104,-7.334 0.454,-9.718 -2.378,-8.739 -6.743,2.336 -4.028,-4.54 3.955,-10.007 6.223,-4.262 8.116,-8.694 10.19,-23.859 1.793,-13.099 1.533,-18.654 -0.867,-18.733 -1.916,-0.07 -3.568,4.516 -3.763,10.418 -0.269,8.174 -3.19,13.416 -13.037,23.42 -16.225,16.479 -18.281,30.846 -6.021,42.115 9.41,8.65 16.501,9.35 35.66,3.517 z m 0.271,-42.549 c 0.09,-6.074 -0.832,-13.771 -2.041,-17.1 -1.613,-4.458 -2.69,-1.724 -4.076,10.34 -2.032,17.654 -1.335,21.986 3.123,19.429 1.563,-0.897 2.911,-6.598 2.994,-12.669 z m -204.763,44.034 c 0.117,-3.523 42.373,-18.163 44.826,-15.53 1.102,1.183 -1.212,4.588 -5.147,7.568 -11.041,8.363 -39.883,14.152 -39.679,7.962 z m 111.067,2.17 c -2.247,-2.899 -1.812,-5.686 1.602,-10.232 5.397,-7.192 13.479,-5.373 13.204,2.971 -0.249,7.521 -10.648,12.621 -14.806,7.261 z m 227.075,-8.732 c -12.318,-8.881 -26.766,-22.699 -25.235,-24.134 2.61,-2.442 49.431,22.65 49.346,26.446 -0.116,5.492 -15.31,4.036 -24.111,-2.312 z m -228.23,-14.26 c -4.392,-7.66 7.209,-20.496 14.277,-15.799 4.703,3.126 2.479,13.076 -3.595,16.071 -7.308,3.607 -8.474,3.578 -10.682,-0.285 z m -1.934,-20.12 c -6.368,-6.804 6.438,-23.965 15.143,-20.288 7.549,3.186 4.919,13.538 -4.594,18.066 -4.804,2.287 -9.552,3.288 -10.549,2.222 z m -104.46,-12.904 c -4.764,-1.197 -9.143,-3.801 -9.733,-5.79 -0.768,-2.592 3.667,-3.174 15.705,-2.057 18.252,1.693 23.113,4.194 16.126,8.299 -4.937,2.898 -9.105,2.814 -22.098,-0.452 z m 106.542,-16.338 c -4.472,-5.765 1.228,-13.428 9.777,-13.146 6.393,0.21 7.341,9 1.555,14.416 -4.851,4.543 -7.01,4.299 -11.332,-1.27 z m 213.91,2.677 c -6.818,-1.891 -7.748,-2.927 -3.986,-4.438 7.783,-3.129 36.416,0.429 37.665,4.682 1.233,4.205 -18.101,4.063 -33.679,-0.244 z m -219.269,-21.744 c 0.193,-5.871 10.959,-18.162 15.77,-18.003 7.27,0.239 6.106,10.406 -1.93,16.87 -10.049,8.082 -14.08,8.412 -13.84,1.133 z" fill="#00B894" transform="translate(47.22299,4.4916408) matrix(0.26458333,0,0,0.26458333,-8975.2954,-2720.2752)"/>
</svg>