<?xml version="1.0" ?><svg height="292.75406mm" viewBox="0 0 398.28384 292.75406" width="398.28384mm" xmlns="http://www.w3.org/2000/svg">
    <path d="m 683.23569,-82.511195 c 0.57471,-1.606402 0.28751,-2.225823 0.29428,-2.998597 0.007,-0.772774 0.0406,0.09736 -4.13787,-0.182544 -4.17841,-0.279905 -7.42378,-2.433934 -7.02487,-5.172115 0.39891,-2.738178 -0.30644,-3.487663 1.61144,-7.384475 1.91789,-3.896814 3.22599,-7.234754 3.22599,-7.234754 0,0 -3.84035,-3.07893 -5.01005,-5.42768 -1.16967,-2.34875 -1.19673,-3.27365 -0.65582,-3.60831 0.54089,-0.33467 1.72411,-0.0487 1.72411,-0.0487 0,0 -2.83972,-6.40733 -2.44756,-7.31397 0.39214,-0.90664 0.84513,-1.58206 0.84513,-1.58206 0,0 -1.00449,-4.07152 -0.72726,-6.2073 0.27721,-2.13578 -0.0338,-3.32841 1.21023,-3.48053 1.24407,-0.15212 1.59568,2.87936 1.59568,2.87936 0,0 0.11491,-3.20794 0.89247,-4.25453 0.77753,-1.04659 1.54154,-1.10744 1.54154,-1.10744 0,0 0.7843,-4.04642 1.75114,-4.22897 0.96687,-0.18254 1.33197,5.23297 1.33197,5.23297 0,0 1.94045,-2.83554 3.12367,-3.84562 1.18321,-1.01008 -0.63352,-0.8172 -0.13319,-3.09901 0.50032,-2.28182 2.83292,-3.58397 2.83292,-3.58397 l 1.48748,-2.35483 c 0,0 -0.9939,-1.56381 -0.19608,-3.94298 0.79783,-2.37917 3.09663,-4.35066 3.29946,-4.59405 0.20283,-0.2434 4.16491,-5.14169 6.28116,-4.19246 2.11624,0.94924 2.16357,3.6935 2.16357,3.6935 0,0 2.05542,-1.13178 3.11015,-0.60849 1.05477,0.5233 1.09533,1.22306 1.95401,1.17438 0.85867,-0.0487 1.89989,-0.50504 2.65038,-0.32858 0.75049,0.17646 2.13654,0.49896 2.13654,0.49896 0,0 3.9012,-4.27765 8.44473,-4.7766 4.54353,-0.49896 7.36372,0.45153 8.1683,1.21213 0.80459,0.76061 0.85867,1.6855 2.19064,1.3265 1.33196,-0.35901 1.09532,-2.26965 4.15814,-2.68951 3.06281,-0.41985 3.10338,1.40561 3.34679,1.46037 0.24339,0.0548 1.77144,0.70584 3.21157,-0.47462 1.44012,-1.18046 2.78561,-3.91255 4.96948,-5.2999 2.18387,-1.38734 7.50493,-1.97149 11.58192,-0.23122 4.07702,1.74026 4.95229,3.3814 6.66838,5.29625 1.71608,1.91484 1.71608,2.97317 1.71608,2.97317 0,0 2.1716,-3.07662 3.95656,-1.93267 1.78496,1.14395 -0.0676,3.72393 -0.0676,3.72393 0,0 2.29203,0.32857 2.54897,1.23522 0.25691,0.90664 -1.34149,2.31871 -1.34149,2.31871 0,0 2.72753,-1.78933 3.5524,-1.66764 0.82486,0.1217 0.65582,0.93707 1.7917,0.90664 1.13589,-0.0304 1.42664,-1.13786 2.51518,-0.13386 1.08855,1.004 0.98859,2.25009 0.73769,4.17659 -0.25088,1.9265 -1.30564,4.88374 -1.30564,4.88374 0,0 0.37939,0.17186 0.16304,2.83093 -0.21635,2.65908 -0.16227,3.5353 -0.16227,3.5353 0,0 0.40568,0.71194 1.21702,0.58416 0.81135,-0.12779 1.3252,0.79103 0.75049,2.48261 -0.5747,1.69159 -1.21025,2.1297 -1.21025,2.1297 0,0 3.94178,-2.35484 4.89511,-1.07702 0.95333,1.27781 1.00065,2.44002 1.00065,2.44002 0,0 2.73829,-1.9654 3.15749,-1.52729 0.41919,0.4381 0.48004,3.11543 0.32453,4.46018 -0.1555,1.34475 -2.1277,3.89414 -2.12773,3.89414 -3e-5,0 1.21782,1.7231 -0.28317,2.90964 -1.50099,1.18655 -3.98157,0.57184 -2.40322,2.29696 1.57835,1.72512 1.8488,4.59717 1.84204,6.64776 -0.007,2.05059 -1.21702,2.70775 -0.007,3.89429 1.21025,1.18655 -1.7782,4.96523 -1.7782,4.96523 0,0 -0.0565,1.99284 1.41064,1.94416 1.46718,-0.0487 3.59696,1.715925 1.24406,5.190369 -2.3529,3.474443 -6.5332,4.24125 -6.5332,4.24125 l -0.0744,5.8597 c 0,0 1.10208,-0.365089 3.7119,0.279904 2.60982,0.644993 10.73678,3.024166 5.91605,5.604137 -4.82074,2.579972 -13.32925,7.640295 -19.41817,7.746001 -6.08891,0.105706 -20.74456,1.580752 -25.28786,2.624836 -4.5433,1.044084 -21.04739,2.206287 -24.71196,0.326073 -3.66457,-1.880214 -11.231,-2.162454 -16.95773,-2.637069 -5.72674,-0.474615 -17.03324,-1.254809 -21.17311,-3.992852 -6.87624,-4.547836 1.79756,-6.383807 4.92083,-6.657554 z" fill="#FFFFFF" transform="translate(140.93783,81.395846) matrix(2.8752456,0,0,2.8752456,-2030.8604,407.52064)"/>
    <path d="m 741.15793,-69.549793 c -0.81658,-1.24628 -0.93886,-1.98746 -0.3279,-1.98746 0.56925,0 1.35344,1.58589 1.1939,2.41442 -0.1041,0.54043 -0.29327,0.44716 -0.866,-0.42696 z m 4.71029,-0.55361 c -0.53717,-1.41289 -0.0507,-2.24361 0.70705,-1.20735 0.66725,0.9125 0.74876,2.2919 0.1354,2.2919 -0.23656,0 -0.61566,-0.48805 -0.84245,-1.08455 z m -37.63293,-0.44212 c -0.14506,-0.37797 -0.092,-2.55979 0.11803,-4.84846 0.35757,-3.89679 0.33398,-4.14875 -0.37075,-3.96444 -0.43405,0.11351 -0.95036,-0.11996 -1.21996,-0.5516 -0.29771,-0.47672 -0.7864,-0.67157 -1.34608,-0.53673 -0.72454,0.17454 -0.62494,-0.0563 0.56778,-1.31568 1.64921,-1.74146 2.10936,-1.87328 2.41811,-0.69261 0.12006,0.4591 0.42012,0.71002 0.6668,0.55757 0.73168,-0.4522 2.98414,-0.48109 3.53008,-0.0452 0.27846,0.22228 0.72455,0.26925 0.99132,0.10435 0.63502,-0.39246 1.21619,0.56236 1.22424,2.01137 0.005,0.74905 -0.2146,1.15427 -0.62317,1.15427 -0.34628,0 -0.6296,-0.3558 -0.6296,-0.79067 0,-0.63328 -0.26997,-0.76943 -1.35628,-0.68397 -1.03973,0.0817 -1.53502,0.42655 -2.12185,1.47697 -0.42103,0.75364 -0.65541,1.65717 -0.52084,2.00784 0.13456,0.35066 0.11886,2.02507 -0.0349,3.72089 -0.2691,2.96953 -0.73898,3.84022 -1.29312,2.39613 z m 41.25897,-0.39646 c -0.43706,-1.13901 -0.28604,-2.35442 0.26989,-2.17193 0.61672,0.20246 0.97542,2.83586 0.38628,2.83586 -0.22078,0 -0.51606,-0.29876 -0.65617,-0.66393 z m -26.8457,-0.68683 c -0.84874,-1.34509 -1.21126,-2.73537 -0.78242,-3.00042 0.19979,-0.12347 0.76807,0.60876 1.26285,1.62715 0.94395,1.94295 0.56408,3.0287 -0.48043,1.37327 z m -19.29363,0.23777 c -0.15737,-0.15736 -0.28613,-0.93885 -0.28613,-1.73662 0,-1.24176 0.0907,-1.37531 0.6296,-0.928 0.34628,0.2874 0.6267,0.82995 0.62318,1.20567 -0.008,0.91102 -0.60875,1.81686 -0.96665,1.45895 z m 1.42475,-0.67087 c 0.079,-2.33559 1.08022,-7.1914 1.51246,-7.33548 1.11553,-0.37184 1.16086,3.49988 0.0809,6.91574 -0.49306,1.5596 -1.64225,1.8623 -1.59343,0.41974 z m -6.44732,-0.69437 c -0.80813,-1.36806 -0.92026,-2.13884 -0.31114,-2.13884 0.43265,0 1.68971,2.17032 1.68971,2.91729 0,0.81753 -0.65392,0.44827 -1.37857,-0.77845 z m 28.52257,0.89056 c -0.1911,-0.29609 -0.50751,-1.09629 -0.7031,-1.77821 -0.46251,-1.6127 0.2787,-2.10257 0.86163,-0.56942 0.51476,1.35399 0.39026,3.19781 -0.15853,2.34763 z m 33.50195,-0.2032 c -0.16474,-0.40784 -0.21238,-1.19732 -0.1059,-1.75438 0.14855,-0.77701 -0.0189,-1.06626 -0.71993,-1.24215 -1.16652,-0.29278 -1.77353,-1.64934 -2.37929,-5.31721 -0.26654,-1.61401 -0.65898,-2.87645 -0.87204,-2.80541 -0.46256,0.15417 -0.45949,0.07 -0.12294,3.36462 0.38678,3.78652 -0.18192,7.12315 -1.24053,7.27853 -1.23456,0.18119 -1.34461,-0.31225 -0.96102,-4.30861 0.46506,-4.84511 0.29473,-6.19185 -0.80358,-6.35326 -0.70931,-0.10423 -0.94915,0.214 -1.34444,1.78386 -0.68439,2.71789 -1.4865,2.49722 -1.19482,-0.32869 0.12709,-1.23169 0.0716,-2.49763 -0.12349,-2.813181 -0.61541,-0.99579 -0.0564,-1.16801 1.75998,-0.54221 1.12473,0.38749 2.37557,0.50491 3.46742,0.32549 2.49658,-0.41028 5.91632,-2.13823 7.16238,-3.6191 1.29022,-1.53333 1.78672,-1.33392 0.90831,0.36481 -0.58868,1.13837 -0.57588,1.20826 0.22187,1.20826 0.55786,0 1.4764,-0.88246 2.69254,-2.5867 1.93221,-2.70773 2.20654,-3.33793 1.30205,-2.99084 -1.16425,0.44677 -0.63409,-1.3099 0.54243,-1.79723 1.55927,-0.64586 2.60969,-1.82809 2.44264,-2.749085 -0.19745,-1.08875 0.78612,-1.21761 1.34357,-0.17601 0.72098,1.347115 0.14313,2.864125 -1.44868,3.803315 -0.77788,0.45895 -1.52648,1.2814 -1.6636,1.82766 -0.13709,0.54625 -0.36471,1.29404 -0.50583,1.66177 -0.38044,0.99139 0.60185,0.82226 2.16968,-0.37356 0.98583,-0.75194 1.30466,-1.27792 1.14492,-1.8888 -0.17777,-0.6798 -0.0176,-0.84664 0.81239,-0.84664 0.56862,0 1.63995,-0.30238 2.38077,-0.67195 0.87523,-0.43662 1.83583,-0.58023 2.74284,-0.41008 1.19796,0.22474 1.70059,0.0211 3.54447,-1.43647 2.31685,-1.831365 2.46849,-1.836055 1.5437,-0.0477 -0.69957,1.35282 -2.97369,3.19 -4.99319,4.03381 -1.38399,0.57826 -1.39818,0.6119 -1.2111,2.86821 0.1041,1.2557 -0.005,2.62733 -0.23875,3.04807 -0.36554,0.65319 -0.50065,0.49561 -0.92441,-1.07823 -0.273,-1.01376 -0.39262,-2.36177 -0.26586,-2.99557 0.3404,-1.70212 -0.49726,-1.69768 -2.76253,0.0146 l -1.9873,1.50224 0.30292,2.30854 c 0.35471,2.702971 0.31631,7.471901 -0.0632,7.851431 -0.57781,0.57782 -0.84593,-0.49187 -1.15368,-4.60292 -0.17696,-2.363831 -0.33238,-4.439511 -0.34535,-4.612651 -0.013,-0.17314 -0.21411,-0.3148 -0.44699,-0.3148 -0.2606,0 -0.33364,0.84734 -0.18996,2.2036 0.26641,2.514711 -0.55639,6.237891 -1.44296,6.529401 -0.46284,0.15218 -0.53315,-0.1522 -0.33196,-1.43675 0.14039,-0.89641 0.37905,-2.95199 0.53029,-4.567981 l 0.27504,-2.93813 -1.5748,1.53381 c -1.30142,1.26752 -1.60963,1.896031 -1.77529,3.620211 -0.17898,1.86274 -0.3078,2.08638 -1.20146,2.08638 -0.828,0 -1.00097,-0.2134 -1.00097,-1.23502 0,-1.03457 -0.13625,-1.19636 -0.83948,-0.99686 -0.4617,0.13099 -1.19963,0.33974 -1.63981,0.46389 -0.96232,0.27142 -0.8317,1.77301 0.40526,4.65872 0.44097,1.02873 0.76727,2.00328 0.72513,2.16565 -0.0421,0.16238 0.0593,0.69283 0.2254,1.17879 0.16608,0.48598 0.12797,1.33593 -0.0847,1.88881 -0.3407,0.88575 -0.42226,0.91709 -0.68614,0.2637 z m 0.5302,-12.05575 c 1.95395,-1.191341 1.68918,-1.790251 -0.31135,-0.704261 -0.92149,0.500251 -1.67701,1.051191 -1.67894,1.224341 -0.006,0.50792 0.53667,0.36622 1.99029,-0.52008 z m 15.42522,-8.819001 c -0.14267,-0.23086 -0.43716,-0.41974 -0.65438,-0.41974 -0.21724,0 -0.39496,0.18888 -0.39496,0.41974 0,0.23085 0.29448,0.41973 0.65436,0.41973 0.35993,0 0.53763,-0.18888 0.39498,-0.41973 z m -75.34217,19.073111 c 0,-0.889 0.16994,-1.3888 0.41973,-1.23442 0.23086,0.14266 0.41974,0.8149 0.41974,1.49383 0,0.67894 -0.18888,1.23443 -0.41974,1.23443 -0.23085,0 -0.41973,-0.67223 -0.41973,-1.49384 z m 10.50669,0.60084 c -0.007,-0.60659 0.26997,-1.33801 0.61624,-1.6254 0.5227,-0.43378 0.62961,-0.38486 0.62961,0.28811 0,0.44586 -0.27732,1.17728 -0.61626,1.62541 -0.59249,0.78333 -0.61675,0.77222 -0.62959,-0.28812 z m 51.76241,-0.73182 c 0.11279,-1.00908 0.40874,-2.03848 0.65781,-2.28755 0.74368,-0.74367 0.55065,2.37161 -0.20495,3.30749 -0.61634,0.76343 -0.64488,0.69919 -0.45286,-1.01994 z m 4.88826,-0.18251 c 0,-0.87833 1.5395,-2.66684 1.94644,-2.26127 0.40532,0.40396 -0.67427,2.45851 -1.42178,2.70579 -0.28856,0.0954 -0.52466,-0.10458 -0.52466,-0.44452 z m 3.79158,0.31355 c -0.0206,-0.65075 1.1332,-2.11604 1.43124,-1.81795 0.14011,0.14007 -0.12151,0.70641 -0.58128,1.25853 -0.45982,0.55213 -0.84228,0.80386 -0.84996,0.55942 z m -27.69797,-1.24947 c 0.01,-0.68432 0.29062,-1.99974 0.62327,-2.92315 0.33268,-0.92342 0.60773,-2.67056 0.61117,-3.88253 0.005,-1.67613 0.15707,-2.20361 0.63594,-2.20361 0.90545,0 0.97194,3.18571 0.10053,4.81877 -0.24394,0.4572 -0.51166,1.58735 -0.59488,2.51143 -0.0833,0.92408 -0.43103,1.95985 -0.77291,2.30172 -0.54896,0.54894 -0.61944,0.47619 -0.60315,-0.62263 z m -28.98003,-0.15998 c 0,-1.09663 0.42969,-2.133 0.88438,-2.133 0.429,0 0.49718,1.29138 0.12004,2.2742 -0.35421,0.92307 -1.00442,0.83166 -1.00442,-0.1412 z m 16.64944,0.5253 c -0.15392,-0.1539 -0.27984,-2.89265 -0.27984,-6.08612 0,-4.881371 0.1003,-5.806341 0.62961,-5.806341 0.34628,0 0.62959,-0.253 0.62959,-0.56221 0,-0.30923 0.48946,-0.78523 1.08762,-1.05779 0.5982,-0.27256 1.7625,-1.24729 2.58728,-2.16605 0.82478,-0.91876 1.6373,-1.67048 1.80561,-1.67048 0.93483,0 0.56579,1.47651 -0.88761,3.55132 -1.5628,2.23094 -1.6297,2.45279 -1.24372,4.125221 0.53273,2.30841 0.53265,3.65627 -2.8e-4,3.65627 -0.47175,0 -1.05111,-1.23396 -1.45085,-3.09019 -0.25466,-1.182351 -0.27237,-1.189051 -1.11952,-0.42239 -0.7828,0.70844 -0.83532,1.08485 -0.57949,4.15567 0.35669,4.282 -0.11565,6.43583 -1.1784,5.37309 z m -4.43159,-4.25812 c 0.0559,-2.26502 -0.0369,-4.3427 -0.20655,-4.61708 -0.57915,-0.937081 -1.09823,-0.50048 -1.09823,0.92373 0,1.61518 -1.46911,3.8476 -1.826,2.77477 -0.11517,-0.34628 -0.29193,-1.63701 -0.39267,-2.86828 -0.15647,-1.911781 -0.067,-2.281701 0.61307,-2.533251 0.72139,-0.26687 0.67535,-0.38401 -0.48967,-1.24533 -1.5787,-1.1672 -1.25525,-2.09298 0.34087,-0.97563 0.61865,0.43305 1.65437,0.88442 2.30161,1.00302 l 1.1768,0.21565 -0.8129,-0.8905 c -1.13612,-1.2446 -2.25404,-3.56347 -1.9528,-4.05083 0.49054,-0.79373 1.02973,-0.37895 2.69485,2.07307 l 1.68448,2.48047 -0.15585,5.179671 c -0.16642,5.53014 -0.39623,6.64873 -1.36598,6.64873 -0.5025,0 -0.59447,-0.74116 -0.51103,-4.11821 z m 14.35338,2.12448 c 0.1281,-0.63485 0.3608,-1.4848 0.51711,-1.8888 0.1924,-0.49737 0.0829,-0.73453 -0.33915,-0.73453 -0.34284,0 -0.91976,-0.42498 -1.28211,-0.9444 -0.65667,-0.94141 -0.65886,-0.94001 -0.68077,0.4445 -0.013,0.81454 -0.1956,1.28163 -0.44177,1.12949 -0.251,-0.15513 -0.4251,0.38324 -0.43308,1.33937 -0.0126,1.49682 -0.0526,1.54682 -0.62959,0.78402 -0.33894,-0.44812 -0.61026,-1.5814 -0.60291,-2.51841 0.0126,-1.61959 0.0453,-1.66222 0.6617,-0.86417 0.60283,0.7805 0.63007,0.69205 0.38793,-1.2592 -0.56777,-4.575421 -0.64606,-4.826951 -1.50173,-4.826951 -1.01937,0 -1.07855,-0.77496 -0.0859,-1.12436 0.40398,-0.1422 1.5269,-0.60847 2.49534,-1.03617 0.9685,-0.42768 1.96707,-0.668862 2.15378,-0.7776 1.33894,-0.779767 2.66133,-2.84583 2.27815,-3.07967 -0.17406,-0.10625 -1.14091,-0.41428 -2.14861,-0.68457 -2.42241,-0.64978 -3.83426,-2.08898 -3.83426,-3.908595 0,-2.90349 3.7953,-4.464841 5.29384,-2.17781 0.86347,1.31781 0.59925,1.63688 -0.82,0.99024 -1.16362,-0.53018 -2.37518,0.0174 -2.37518,1.07356 0,0.915975 1.8567,2.269575 3.84031,2.799725 1.3123,0.35074 1.88188,0.70296 1.73896,1.0754 -0.12739,0.33191 0.0895,0.55384 0.54112,0.55384 0.68022,0 0.66733,0.0804 -0.13218,0.82528 -1.16845,1.08857 -1.56158,2.427 -0.9347,3.18233 0.61244,0.73795 2.56176,0.80126 3.25721,0.10578 0.80287,-0.80285 0.61152,0.27754 -0.23412,1.32182 -0.4602,0.56836 -1.24267,0.92551 -2.0797,0.94931 -1.08186,0.0308 -1.42264,0.26987 -1.75877,1.23402 -0.67371,1.932731 -1.3528,1.443331 -1.24593,-0.89797 0.11458,-2.51127 -0.0715,-2.7751 -1.26919,-1.79919 -0.8817,0.71844 -0.89689,0.86482 -0.42578,4.102901 0.26871,1.84684 0.76639,3.67658 1.10595,4.06609 0.50729,0.5819 0.52941,0.97494 0.12391,2.2036 -0.58335,1.76757 -1.48204,2.0365 -1.13986,0.34111 z m -41.47706,-0.1135 c -0.15023,-0.24309 -0.14603,-1.19439 0.01,-2.11399 0.26941,-1.59457 0.2214,-1.6933 -1.03647,-2.1318 -0.88231,-0.30757 -1.26887,-0.68689 -1.16766,-1.14578 0.15389,-0.69778 0.3302,-0.69085 2.70828,0.10648 1.02973,0.34527 1.30773,0.65164 1.17845,1.29873 -0.0931,0.46576 -0.28184,1.54853 -0.4195,2.40613 -0.26337,1.64062 -0.81312,2.32334 -1.27242,1.58017 z m 35.08233,-1.19325 c -0.9454,-1.8531 -1.0811,-2.5758 -0.48374,-2.5758 0.4706,0 1.93107,3.70008 1.59365,4.0375 -0.13264,0.13265 -0.63213,-0.52511 -1.10991,-1.4617 z m -53.57367,0.57162 c -0.16206,-0.4617 -0.63635,-1.64221 -1.05396,-2.62334 -0.63896,-1.50117 -0.66182,-1.78386 -0.14428,-1.78386 0.33824,0 0.82744,0.46627 1.0871,1.03617 0.70688,1.55144 1.04018,0.97527 1.13519,-1.96236 0.1022,-3.158351 0.37604,-4.215061 1.03366,-3.987901 0.7684,0.26543 0.57885,7.432221 -0.21215,8.021071 -0.34041,0.25341 -0.4902,0.755454 -0.74648,1.217154 -0.47389,0.892607 -0.76378,1.038242 -1.09908,0.08307 z m 39.27265,-0.4218 c -0.57206,-1.5046 -0.53677,-6.801191 0.0477,-7.162411 0.8319,-0.51416 1.1993,0.797841 1.20584,4.306511 0.007,3.55881 -0.52542,4.77102 -1.25357,2.8559 z m 26.7308,0.77858 c -0.15773,-0.15776 -0.2868,-2.0497 -0.2868,-4.20433 0,-3.148191 0.11992,-3.917521 0.61058,-3.917521 0.79448,0 1.22374,2.317841 0.97803,5.280891 -0.18628,2.2465 -0.72363,3.41912 -1.30181,2.84096 z m -60.72842,-0.70656 c 0,-0.38476 -0.37776,-1.07731 -0.83947,-1.53902 -0.96644,-0.96644 -1.08794,-2.99745 -0.37748,-6.310251 0.43888,-2.04639 0.51767,-2.14054 1.57401,-1.88103 2.90519,0.71372 3.87585,2.65132 1.06394,2.12381 l -1.421,-0.26658 0.0133,2.852231 c 0.0121,2.59937 0.0679,2.77999 0.6296,2.03746 0.33894,-0.44811 0.61626,-0.97868 0.61626,-1.17904 0,-0.20035 0.16371,-0.2631 0.36381,-0.13943 0.20011,0.12368 0.0584,1.15852 -0.31479,2.29966 -0.34388,2.476399 -1.26905,3.914735 -1.30818,2.00219 z m 10.57029,-0.93761 c 0.0731,-0.87221 0.3816,-1.6676 0.68556,-1.76753 0.40591,-0.13345 0.51735,0.23936 0.41974,1.40417 -0.0731,0.87223 -0.38162,1.66762 -0.68556,1.76754 -0.40593,0.13344 -0.51736,-0.23937 -0.41974,-1.40418 z m -8.47163,-0.15691 c 0,-0.70618 0.18888,-1.28397 0.41973,-1.28397 0.23086,0 0.41974,0.46105 0.41974,1.02456 0,0.56351 -0.18888,1.1413 -0.41974,1.28398 -0.24488,0.15134 -0.41973,-0.27546 -0.41973,-1.02457 z m 29.52632,0.58713 c -0.13657,-0.35602 -0.15937,-1.57375 -0.0506,-2.70608 l 0.19783,-2.05878 -1.22391,0.63289 c -0.67313,0.34808 -1.62126,0.5742 -2.10697,0.50248 -1.02894,-0.15194 -1.53761,-1.17975 -0.58385,-1.17975 1.01713,0 2.79362,-0.9303 2.7359,-1.432711 -0.11731,-1.02208 0.0764,-1.50543 0.60354,-1.50543 0.89873,0 2.30312,-1.78774 2.45301,-3.12258 0.13217,-1.1769 0.17242,-1.19971 0.87308,-0.49469 1.06474,1.07135 0.90781,2.13154 -0.56361,3.80739 -1.10844,1.26242 -1.28456,1.770691 -1.20507,3.477421 0.15166,3.25523 0.0121,4.72715 -0.4481,4.72715 -0.23807,0 -0.54468,-0.2913 -0.68131,-0.64731 z m 56.76158,-1.68054 c -0.29676,-1.18236 0.0209,-2.01561 0.62593,-1.6417 0.49945,0.30867 0.51406,2.71034 0.0164,2.71034 -0.20583,0 -0.4949,-0.48088 -0.64244,-1.06864 z m -83.99602,-0.65901 c 0.17635,-0.78119 0.44179,-2.06592 0.58989,-2.85495 0.41101,-2.189811 1.31687,-2.165271 1.30938,0.0354 -0.007,1.99243 -0.71237,3.742 -1.63152,4.04553 -0.46651,0.15405 -0.52196,-0.0999 -0.26775,-1.22606 z m 2.94166,-1.10555 c 0.36185,-2.47017 1.06474,-3.363561 1.05674,-1.34315 -0.007,1.89907 -0.4084,3.33689 -0.93036,3.33689 -0.26035,0 -0.3081,-0.75321 -0.12638,-1.99374 z m 85.57202,0.92183 c -0.56961,-1.48441 2.69143,-6.335081 3.62881,-5.397691 0.25739,0.25742 -0.20777,1.42259 -1.28803,3.226411 -0.93,1.5529 -1.78085,2.82345 -1.89074,2.82345 -0.10994,0 -0.3124,-0.29347 -0.45004,-0.65217 z m 3.21475,-0.0256 c 0,-0.55913 2.2535,-4.359081 2.58509,-4.359081 0.6892,0 0.33789,1.506371 -0.71145,3.050581 -0.94284,1.38754 -1.87364,2.03758 -1.87364,1.3085 z m -4.51919,-2.7596 c 0.18745,-2.531481 0.97655,-4.050771 1.71855,-3.308771 0.47909,0.4791 -0.32084,3.454571 -1.30587,4.857341 -0.52912,0.75345 -0.57138,0.59478 -0.41268,-1.54857 z m -83.31085,-1.546371 c -0.83464,-0.42551 -2.21112,-0.88623 -3.05884,-1.02379 -3.17681,-0.51553 -4.96622,-2.68749 -1.87222,-2.2725 0.92341,0.12386 1.67893,0.1718 1.67893,0.10649 0,-0.0653 -0.28333,-0.79675 -0.6296,-1.62551 -0.78366,-1.87557 -0.82433,-6.14386 -0.0684,-7.177675 0.40569,-0.5548 0.92913,-0.7135 1.8888,-0.57265 1.28987,0.18932 1.3276,0.14991 1.3276,-1.38662 0,-1.764731 0.56649,-2.380081 1.48745,-1.615751 0.72107,0.59845 0.81933,2.083411 0.13783,2.083411 -0.32036,0 -0.38297,0.56538 -0.19368,1.74909 0.35023,2.190235 -0.3012,2.701035 -1.68274,1.319495 -1.44462,-1.444635 -1.9717,-0.871865 -1.76954,1.92292 0.19427,2.68583 1.50471,5.70018 3.32534,7.64917 0.68113,0.72916 1.13327,0.472572 1.09252,1.47166 -0.0489,1.199427 -1.16813,-0.377425 -1.66345,-0.62774 z m 78.70083,0.0795 c -0.61377,-1.07253 -0.70977,-4.74959 -0.12394,-4.74959 0.51874,0 0.96157,2.38096 0.78586,4.22553 -0.13133,1.378911 -0.15984,1.401441 -0.66192,0.52406 z m -96.22391,-0.12399 c 0,-0.48985 3.0477,-2.1072 3.97076,-2.1072 1.16746,0 0.67674,0.80689 -1.0159,1.67041 -1.80023,0.9184 -2.95486,1.08909 -2.95486,0.43679 z m 22.41378,-1.01589 c -0.78491,-0.7849 -1.4271,-1.82374 -1.4271,-2.30854 0,-1.2084 0.47958,-1.10296 1.42893,0.31417 0.43964,0.65626 1.33627,1.55289 1.99254,1.99254 1.41714,0.94935 1.52257,1.42893 0.31417,1.42893 -0.4848,0 -1.52364,-0.64219 -2.30854,-1.4271 z m 14.52278,-1.05931 c 2.24393,-1.99988 3.48421,-2.25633 2.55995,-0.52932 -0.7086,1.32397 -2.56029,2.59649 -3.77084,2.59139 -1.0205,-0.005 -0.93537,-0.14925 1.21089,-2.06207 z m -41.13388,0.82368 c 0,-0.22195 0.76733,-0.61017 1.70518,-0.86272 0.93785,-0.25253 1.9767,-0.56334 2.30854,-0.69068 0.36038,-0.1383 0.60334,0.0236 0.60334,0.40192 0,0.68409 -2.03329,1.55504 -3.63036,1.55504 -0.54269,0 -0.9867,-0.18161 -0.9867,-0.40356 z m 84.41688,-1.69511 c 1.47536,-1.83589 2.04821,-2.09114 2.04821,-0.91264 0,0.95077 -1.69055,2.59157 -2.67017,2.59157 -0.5862,0 -0.46553,-0.32566 0.62196,-1.67893 z m -54.95395,0.41061 c -0.50659,-0.54375 -0.92105,-1.12645 -0.92105,-1.29489 0,-0.16845 -0.1147,-0.60504 -0.25479,-0.9702 -0.47727,-1.24375 0.60297,-0.6689 1.51448,0.80592 1.14353,1.8503 0.92061,2.81084 -0.33864,1.45917 z m 26.36162,0.27125 c 0,-0.0867 0.4722,-1.22536 1.04934,-2.53036 1.26032,-2.84987 1.3112,-3.608 0.24205,-3.608 -1.11238,0 -3.1713,-1.81637 -3.81185,-3.362835 -0.747,-1.80339 -0.23308,-2.01784 1.08413,-0.4524 1.00015,1.188595 3.02182,2.556035 3.77895,2.556035 0.1571,0 0.18337,-0.63008 0.0584,-1.40016 -0.30683,-1.890535 0.21553,-2.747105 1.1847,-1.942765 1.46516,1.21598 0.0777,7.537905 -2.23063,10.163595 -0.57877,0.65834 -1.35511,0.98884 -1.35511,0.57689 z m -57.92322,-1.12298 c 0,-0.41613 1.56087,-1.20042 3.67266,-1.84538 1.57805,-0.48197 1.07652,0.52314 -0.7178,1.43854 -1.8279,0.93252 -2.95486,1.08768 -2.95486,0.40684 z m 50.36801,-1.64459 c 0,-0.22375 0.39107,-1.1571 0.86907,-2.07414 0.57004,-1.09367 1.07548,-1.58811 1.46906,-1.43708 0.97982,0.376 0.69282,2.10516 -0.50595,3.0481 -1.19951,0.94354 -1.83218,1.10346 -1.83218,0.46312 z m 41.52491,-0.18153 c -0.10554,-0.10554 -0.12243,-1.06574 -0.0374,-2.13375 0.13581,-1.70774 0.26295,-1.92627 1.0547,-1.81303 0.71229,0.10185 0.88156,0.38604 0.81059,1.36066 -0.0838,1.15034 -1.40052,3.0134 -1.82781,2.58612 z m -92.73239,-0.67086 c 0,-0.23085 0.33054,-0.42231 0.73453,-0.42547 0.404,-0.004 1.20674,-0.1116 1.78387,-0.24101 1.01277,-0.2271 1.02094,-0.21227 0.23458,0.42546 -0.90503,0.73396 -2.75298,0.89575 -2.75298,0.24102 z m 79.43456,0.14176 c -0.56227,-0.22689 -0.72026,-1.9049 -0.22594,-2.39925 0.16433,-0.1643 0.61868,0.12545 1.00976,0.64389 0.60995,0.80865 0.80756,0.86249 1.39036,0.37883 0.94822,-0.78697 1.18663,-0.36523 0.4157,0.73543 -0.6178,0.88203 -1.46999,1.09298 -2.58988,0.6411 z m -70.01527,-1.17775 c -0.8039,-0.60803 -0.80358,-0.61636 0.0247,-0.62497 1.58421,-0.0165 3.98747,0.51174 3.98747,0.87641 0,0.60592 -3.13871,0.40923 -4.01219,-0.25144 z m 37.8707,-0.50307 c -0.15392,-0.1539 -0.27984,-0.90942 -0.27984,-1.67893 0,-1.61136 0.95192,-1.91812 1.68741,-0.54378 0.78662,1.4698 -0.35606,3.27423 -1.40757,2.22271 z m -46.87026,-0.92691 c 0,-0.20199 0.59025,-0.48531 1.31167,-0.62959 1.97699,-0.3954 2.3404,-0.29942 1.44131,0.38062 -0.88742,0.67121 -2.75298,0.83993 -2.75298,0.24897 z m 28.12527,-0.88438 c -0.63086,-1.52305 -0.31348,-2.525955 0.79937,-2.525955 0.85654,0 2.13565,1.447435 2.13565,2.416705 0,0.43343 -0.1922,0.44811 -0.90088,0.0689 -0.80732,-0.43206 -0.8768,-0.39 -0.6689,0.40496 0.36132,1.38173 -0.76666,1.08052 -1.36524,-0.36456 z m 23.00893,-5.804716 c -0.18485,-5.18384 -0.79715,-7.13601 -2.57829,-8.21959 -0.63326,-0.38528 -0.93571,-0.2503 -1.78178,0.79515 -0.56046,0.69256 -1.01995,1.56046 -1.02108,1.92868 0,0.36822 -0.33263,0.9682 -0.73663,1.33329 -0.69428,0.62742 -0.73453,0.45844 -0.73453,-3.08311 0,-3.84557 0.28801,-4.53574 1.12573,-2.69727 0.55194,1.21149 0.87517,1.29614 1.60253,0.41974 0.66574,-0.80218 1.40103,-0.79488 2.99576,0.0299 1.99488,1.03159 3.05055,3.83368 3.07238,8.15501 0.0168,3.338121 -0.66449,6.296006 -1.45027,6.296006 -0.1744,0 -0.3966,-2.230965 -0.49382,-4.957696 z m -39.70705,3.298851 c -1.99084,-1.44216 -2.49535,-2.11875 -1.57984,-2.11875 0.83621,0 4.0039,1.97699 4.0039,2.49889 0,0.900195 -0.83804,0.768775 -2.42406,-0.38014 z m 84.49102,0.50458 c 0.16983,-0.40399 0.40093,-1.15951 0.51358,-1.67893 0.23207,-1.07003 1.26853,-1.26749 1.63533,-0.31156 0.31581,0.82291 -0.93563,2.725035 -1.79281,2.725035 -0.47098,0 -0.57482,-0.21419 -0.3561,-0.734545 z m 11.11388,-0.20302 c 0,-0.72077 1.73534,-2.42034 2.4713,-2.42034 0.97504,0 0.26804,1.41554 -1.10856,2.21951 -1.08174,0.631785 -1.36274,0.673195 -1.36274,0.20083 z m -101.78538,-0.32168 c -0.14405,-0.23308 0.17159,-0.42228 0.70976,-0.42547 0.53305,-0.004 1.44138,-0.13034 2.01851,-0.28264 0.94217,-0.24865 0.9905,-0.2052 0.47328,0.42546 -0.62827,0.76603 -2.78512,0.95646 -3.20155,0.28265 z m -2.43703,-1.10794 c -0.56486,-0.56486 0.24489,-0.9908 1.8836,-0.9908 1.46845,0 1.63292,0.0876 1.18303,0.62961 -0.5219,0.62885 -2.55903,0.86878 -3.06663,0.36119 z m 27.60421,-0.17856 c -0.40032,-0.64775 0.18446,-3.340821 0.77452,-3.566871 0.3212,-0.12305 0.45117,-0.91623 0.36149,-2.20598 -0.16207,-2.33119 0.68333,-3.53707 1.81895,-2.59459 0.34629,0.28739 0.62961,0.70849 0.62961,0.93576 0,0.22729 -0.28332,0.30454 -0.62961,0.17166 -0.39941,-0.15326 -0.65272,0.0221 -0.69289,0.47976 -0.13671,1.55796 0.16848,3.24802 0.73173,4.05216 0.66808,0.95386 0.79547,2.755341 0.19483,2.755341 -0.21776,0 -0.6597,-0.37656 -0.98205,-0.83681 -0.64438,-0.919991 -1.14042,-0.70814 -1.14042,0.48703 0,0.84202 -0.62774,1.03192 -1.06616,0.32254 z m 28.79065,-1.12703 c -0.54796,-1.973111 -0.5702,-4.302271 -0.0412,-4.302271 0.22041,0 0.4965,0.61385 0.61357,1.36413 0.41784,2.677571 0.49117,4.512131 0.18036,4.512131 -0.17364,0 -0.51241,-0.7083 -0.75283,-1.57399 z m 35.05673,0.83946 c 0.18188,-0.404 0.3232,-1.26266 0.314,-1.908161 -0.0121,-0.85409 0.16588,-1.13848 0.65378,-1.04451 0.88967,0.17133 1.10059,1.46006 0.44072,2.693041 -0.62809,1.17358 -1.92788,1.41317 -1.4085,0.25963 z m -96.92634,-0.45488 c -0.38311,-0.42332 -0.98633,-1.745481 -1.34051,-2.938131 -0.35418,-1.19265 -0.82553,-2.16845 -1.04744,-2.16845 -0.22191,0 -0.40785,0.14165 -0.41321,0.31479 -0.0208,0.67198 -2.92731,3.51302 -3.33574,3.26059 -0.23767,-0.14688 -0.43212,-0.97582 -0.43212,-1.84208 0,-1.98795 1.33784,-3.57531 2.78084,-3.29945 1.45549,0.27823 1.24826,-0.64448 -0.48691,-2.16798 -2.33225,-2.04774 -5.0787,-1.67095 -5.86439,0.80456 -0.14718,0.4637 -0.44286,0.73476 -0.6571,0.60235 -0.83108,-0.51363 -0.32243,-2.04413 1.13672,-3.42028 1.38784,-1.3089 1.47849,-1.5286 0.99982,-2.42301 -0.57383,-1.07219 -0.29791,-1.9031 0.63195,-1.9031 0.70825,0 1.45907,1.28709 1.45907,2.5012 0,0.57169 0.40222,1.02939 1.15427,1.3135 1.95801,0.73967 3.38589,2.48322 4.75195,5.80244 1.82386,4.43157 1.95637,4.52827 4.08876,2.98356 1.31791,-0.69171 1.75756,-2.22562 1.75756,-0.18891 0,1.38305 -2.11382,3.538091 -3.4704,3.538091 -0.55911,0 -1.33002,-0.34636 -1.71312,-0.76969 z m 21.13338,0.21033 c 0,-0.50744 2.98448,-3.218241 3.54313,-3.218241 0.58573,0 0.11874,0.90246 -1.17922,2.278641 -1.46312,1.55136 -2.36391,1.9094 -2.36391,0.9396 z m 92.44164,-0.61821 c 0.16379,-0.626331 -0.01,-0.727341 -1.00039,-0.581961 -1.04878,0.15393 -1.19854,0.0432 -1.19854,-0.88608 0,-1.49934 -0.85143,-1.63076 -2.23567,-0.34505 -1.19453,0.98379 -1.33994,0.74807 -0.89429,-1.17369 0.52211,-2.0782 2.70309,-3.9122 2.37351,-1.35878 -0.16231,1.25783 0.32652,0.94199 1.7733,-1.14569 0.80811,-1.16608 1.07048,-1.93976 0.87102,-2.56823 -0.27157,-0.85562 -0.1919,-0.88539 1.63621,-0.61125 2.47861,0.37168 3.85999,0.006 4.67415,-1.23617 0.56039,-0.85525 0.58234,-1.38451 0.15392,-3.70968 -0.48441,-2.62884 -0.52333,-2.6885 -1.26844,-1.94341 -0.42276,0.42278 -1.0325,0.66744 -1.35499,0.5437 -0.86015,-0.33007 -2.1254,-2.8938 -1.82037,-3.68864 0.36969,-0.96339 2.22231,-0.8525 2.94279,0.17613 0.57978,0.82771 0.6134,0.80379 0.88199,-0.62795 0.43677,-2.32819 1.82252,-3.63519 4.12997,-3.89527 2.78778,-0.31422 4.08677,0.58622 4.08677,2.8329 0,1.94916 -1.13383,3.34819 -2.7135,3.34819 -1.12362,0 -2.12195,-1.34394 -1.73921,-2.34134 0.25814,-0.67266 1.93431,-0.8261 1.93431,-0.17707 0,0.23086 -0.20005,0.41974 -0.4445,0.41974 -0.2445,0 -0.32211,0.19805 -0.17251,0.44012 0.47312,0.7655 1.50919,-0.4899 1.37278,-1.6634 -0.10565,-0.90835 -0.36647,-1.10552 -1.60024,-1.20957 -2.87634,-0.24257 -4.02377,2.33135 -3.09943,6.95293 0.25276,1.26383 0.25654,1.26534 1.45085,0.57991 0.91787,-0.52677 1.31272,-0.57196 1.69111,-0.19356 0.76156,0.76155 0.11987,1.79881 -1.28683,2.08015 -0.95908,0.19181 -1.2691,0.4835 -1.2691,1.19409 0,2.16872 -3.01923,4.18064 -5.54828,3.69718 -0.84233,-0.16103 -1.13328,0.0381 -1.55958,1.06722 -0.28822,0.69585 -0.88454,1.59143 -1.32518,1.99017 -1.29714,1.17394 -0.98179,1.72038 0.9698,1.68046 1.39498,-0.0286 1.80376,0.12633 1.92562,0.72953 0.0851,0.42118 -0.17449,1.12948 -0.57677,1.574011 -0.93973,1.0384 -2.02676,1.06951 -1.76028,0.0503 z m -19.82774,-0.886121 c 0,-0.67332 -0.2361,-1.31079 -0.52466,-1.4166 -0.40455,-0.14833 -0.41101,-0.31326 -0.0281,-0.72031 0.59447,-0.63217 1.73073,-0.27741 2.08724,0.65166 0.27288,0.71113 -0.60151,2.709481 -1.18557,2.709481 -0.19182,0 -0.3488,-0.5509 -0.3488,-1.224231 z m -78.16463,-0.34978 c -0.35422,-0.40399 -0.96347,-1.36481 -1.3539,-2.13516 -0.67473,-1.3313 -0.67277,-1.39347 0.0395,-1.25628 0.81044,0.15607 2.66775,2.63349 2.66775,3.55844 0,0.782481 -0.58408,0.710411 -1.35339,-0.167 z m -9.97941,-0.0601 c 0,-0.59457 3.11911,-1.71939 3.31069,-1.19391 0.0895,0.24541 -0.18271,0.69879 -0.60488,1.00748 -0.8649,0.63242 -2.70581,0.75927 -2.70581,0.18643 z m 97.79791,-1.45164 c -0.65675,-1.37847 -1.64678,-1.63543 -3.67267,-0.95327 -0.73474,0.24742 -0.9444,0.15894 -0.9444,-0.39855 0,-0.39409 0.33055,-0.96746 0.73453,-1.27413 0.93626,-0.71071 3.6443,-0.7475 4.21715,-0.0572 0.67809,0.81704 1.03868,2.70297 0.64765,3.38735 -0.27551,0.48225 -0.49042,0.32818 -0.98226,-0.70412 z m -75.73762,0.17445 c -1.48721,-1.64334 -0.7601,-5.06363 1.07646,-5.06363 0.66174,0 0.78807,-0.32372 0.78807,-2.01951 0,-1.45221 0.24041,-2.27758 0.85582,-2.93814 0.47069,-0.50523 0.99011,-0.9185 1.15427,-0.91835 0.16414,1.4e-4 0.233,-0.94426 0.15299,-2.09867 -0.12882,-1.85904 -0.0507,-2.09892 0.68315,-2.09892 0.45571,0 1.08068,0.30375 1.3888,0.67502 0.47033,0.5667 0.45928,0.75191 -0.0688,1.15427 -0.65676,0.50035 -0.59805,1.78883 0.12191,2.67588 0.30488,0.37564 0.12672,0.6293 -0.64925,0.92432 -1.5348,0.58352 -1.95994,1.67596 -1.95994,5.03625 0,2.78328 -0.51717,3.87427 -1.10741,2.33613 -0.13289,-0.34628 -0.52617,-0.62961 -0.87396,-0.62961 -0.5116,0 -0.57826,0.3607 -0.34911,1.8888 0.30671,2.04529 -0.0497,2.36153 -1.21298,1.07616 z m 43.18918,-1.47681 c -1.27188,-1.2719 -1.35755,-3.25949 -0.19077,-4.42628 0.46171,-0.46171 0.99041,-0.83947 1.17492,-0.83947 0.18451,0 0.25894,-0.65558 0.16537,-1.45686 -0.13792,-1.18143 0.0645,-1.69139 1.07045,-2.69739 0.68232,-0.6823 1.88657,-1.36175 2.67622,-1.50988 1.37323,-0.25762 1.42898,-0.33901 1.2827,-1.87316 -0.19505,-2.04495 0.48387,-3.30081 2.16381,-4.00274 1.60443,-0.67038 3.2639,-0.41431 4.44477,0.68585 1.12426,1.0474 1.16232,1.80444 0.061,1.21508 -1.33865,-0.71643 -3.5988,-0.5188 -4.4179,0.38632 -0.40858,0.45145 -0.7949,1.44307 -0.85853,2.2036 -0.0636,0.76053 -0.15874,1.47723 -0.21137,1.59265 -0.0526,0.11541 -0.0734,0.35152 -0.046,0.52466 0.0272,0.17314 -0.52554,0.31481 -1.22859,0.31481 -2.64076,0 -4.28624,3.26834 -2.60424,5.17277 0.71749,0.81235 0.70326,0.82562 -0.61336,0.57146 -1.43863,-0.27773 -2.63958,0.47694 -2.63958,1.65868 0,0.84818 0.8283,2.34699 1.64254,2.97214 0.59855,0.45953 0.58968,0.51267 -0.0877,0.52467 -0.41448,0.007 -1.21722,-0.45027 -1.78386,-1.01691 z m -63.76247,0.21982 c -0.30119,-0.48732 0.0389,-0.69192 1.76594,-1.06232 1.52827,-0.32778 1.87456,0.31088 0.55227,1.01856 -1.00838,0.53966 -2.00016,0.55838 -2.31821,0.0438 z m 8.61609,-2.17657 c -0.47619,-0.78109 -0.86651,-1.57757 -0.86738,-1.76994 -0.002,-0.63265 0.98112,-0.0379 1.83957,1.11191 0.62691,0.83968 0.72126,1.25056 0.36825,1.60357 -0.35302,0.35303 -0.69647,0.11077 -1.34044,-0.94554 z m 77.87628,0.2895 c -0.14908,-0.59404 -0.45633,-1.08007 -0.68281,-1.08007 -0.22645,0 -0.41172,-0.29645 -0.41172,-0.65879 0,-0.44312 0.30917,-0.61487 0.9444,-0.52466 0.68778,0.0977 0.98184,0.46168 1.08216,1.33952 0.18338,1.60485 -0.57293,2.35467 -0.93203,0.924 z m -3.52886,-1.37352 c -0.5281,-1.72062 -0.43048,-2.02795 0.52744,-1.66037 0.41457,0.15908 0.64769,0.78203 0.64769,1.73078 0,1.92778 -0.57239,1.89348 -1.17513,-0.0704 z m 7.88235,-0.10958 c 1.00026,-1.96067 1.11774,-3.79433 0.24315,-3.79433 -0.33265,0 -0.72157,0.18888 -0.86424,0.41973 -0.37575,0.608 -1.04932,0.51504 -1.04932,-0.14481 0,-1.5223 2.98786,-2.57568 4.11338,-1.45017 1.41488,1.41486 -0.51883,6.63179 -2.45813,6.63179 -0.82808,0 -0.828,-0.01 0.0151,-1.66221 z m 7.50815,1.45235 c -0.54142,-0.85616 -0.76975,-2.95788 -0.38625,-3.55559 0.63112,-0.98362 0.92153,-0.26398 0.78147,1.93646 -0.0714,1.12138 -0.24924,1.84997 -0.39522,1.61913 z m -96.48313,-1.63788 c 0,-0.61636 2.26657,-1.62204 2.6935,-1.19512 0.40342,0.40343 -1.0816,1.78366 -1.9191,1.78366 -0.42592,0 -0.7744,-0.26484 -0.7744,-0.58854 z m -5.05137,-1.84567 c -2.48104,-2.48104 -2.76818,-5.9606 -0.51969,-6.29757 0.82103,-0.12305 0.81081,-0.19931 -0.30931,-2.30854 -0.6371,-1.19971 -1.252,-3.08403 -1.36644,-4.18738 -0.18973,-1.82938 -0.13734,-1.98365 0.59491,-1.75125 0.7749,0.24595 0.7732,0.20603 -0.0485,-1.1419 -0.85355,-1.4 -1.12985,-2.86633 -0.53991,-2.86526 0.17314,3.2e-4 0.26194,-0.9913 0.19733,-2.20359 -0.12814,-2.40412 0.40125,-3.76723 1.16601,-3.00247 0.30281,0.30282 0.34339,1.34948 0.12192,3.14422 -0.27577,2.23478 -0.19962,2.95784 0.44972,4.27028 0.59013,1.19275 0.66613,1.71922 0.31012,2.14819 -0.3562,0.42919 -0.31627,0.69712 0.16319,1.09504 0.34914,0.28975 0.63478,0.78701 0.63478,1.10502 0,0.71211 -0.91468,0.75484 -1.59499,0.0745 -0.78786,-0.78786 -0.59911,-0.0758 0.61006,2.30151 1.28158,2.51968 1.93157,4.91791 1.33286,4.91791 -0.22171,0 -0.78633,-0.20508 -1.25471,-0.45576 -0.7684,-0.41123 -0.82201,-0.35999 -0.54883,0.52467 0.53733,1.74003 1.35165,3.05151 2.67734,4.31188 1.52476,1.44966 1.62389,1.91522 0.40783,1.91522 -0.48888,0 -1.60649,-0.71764 -2.48359,-1.59474 z m 18.07067,1.27994 c 0.0119,-0.49291 3.3718,-3.16148 3.64128,-2.892 0.30793,0.30793 -2.57316,3.20681 -3.18714,3.20681 -0.25394,0 -0.4583,-0.14167 -0.45414,-0.31481 z m 73.44579,-0.52467 c 0,-0.23085 0.18888,-0.41973 0.41974,-0.41973 0.23086,0 0.41974,0.18888 0.41974,0.41973 0,0.23086 -0.18888,0.41974 -0.41974,0.41974 -0.23086,0 -0.41974,-0.18888 -0.41974,-0.41974 z m -58.28108,-1.08118 c -0.43279,-0.94982 -0.40273,-1.06403 0.24743,-0.94011 0.40702,0.0776 0.80039,0.56411 0.87418,1.08118 0.18217,1.27696 -0.51552,1.18921 -1.12161,-0.14107 z m 71.05853,0.53929 c -0.29478,-0.76825 1.2513,-4.49492 1.86487,-4.49492 1.26143,0 0.7101,3.04861 -0.79816,4.41359 -0.72316,0.65444 -0.84325,0.66361 -1.06671,0.0814 z m -87.90974,-0.85332 c 0,-0.70316 3.11698,-4.32261 4.2402,-4.92374 1.39183,-0.74489 0.93582,0.58607 -0.9252,2.70029 -1.97516,2.2439 -3.315,3.14257 -3.315,2.22345 z m 92.13876,-0.76041 c 0.43979,-1.81983 0.45121,-3.73561 0.0277,-4.66505 -0.25831,-0.56687 -0.14221,-0.73454 0.50862,-0.73454 1.99609,0 2.00416,5.26944 0.01,6.33685 -0.84547,0.45247 -0.8712,0.40829 -0.54603,-0.93726 z m -102.1392,-0.9145 c -1.054,-1.12193 -1.14731,-1.54695 -0.33963,-1.54695 0.82817,0 2.83609,1.67621 2.55423,2.13227 -0.40541,0.65598 -1.26086,0.42988 -2.2146,-0.58532 z m 74.07977,0.69163 c -1.0794,-1.07937 1.07527,-3.91751 2.97406,-3.91751 1.53606,0 2.20263,0.68877 2.20263,2.27601 0,1.2679 -3.8e-4,1.26809 -0.6534,0.33578 -0.91838,-1.31119 -2.18529,-1.17624 -3.03878,0.32368 -0.73503,1.29176 -0.99972,1.46684 -1.48451,0.98204 z m 17.75829,-0.79683 c -0.51921,-1.36567 -0.52366,-2.58073 -0.0107,-2.8978 0.56206,-0.34736 1.28026,1.16041 1.28026,2.68766 0,1.56544 -0.70964,1.6829 -1.2696,0.21014 z m -8.39001,0.13225 c -0.005,-0.28857 -0.11196,-0.99687 -0.24173,-1.574 -0.36319,-1.32753 0.58579,-0.11961 0.58579,-0.11961 1.05383,1.25447 1.08122,-0.36727 1.08122,-0.36727 0.43103,-2.15516 0.29441,-3.60721 -0.3631,-3.85953 -0.73823,-0.28328 -0.38481,-1.52986 0.43375,-1.52986 0.82306,0 1.86769,1.69081 1.86769,3.02303 0,1.77866 -1.26664,4.61913 -1.94387,4.35925 -0.31602,-0.12125 -0.57453,-0.0375 -0.57453,0.18609 0,0.22361 -0.18888,0.40657 -0.41973,0.40657 -0.23086,0 -0.4223,-0.2361 -0.42549,-0.52467 z m -81.93316,-1.04934 c -1.34934,-1.54691 -2.16533,-4.30364 -1.27326,-4.30151 0.47669,0.001 2.62334,3.55705 2.62334,4.34552 0,0.89619 -0.54547,0.87842 -1.35008,-0.044 z m 34.08929,-2.20359 c 0,-1.81884 -0.11196,-2.09867 -0.83946,-2.09867 -0.68257,0 -0.83947,-0.27983 -0.83947,-1.49736 0,-1.33421 -0.0969,-1.4666 -0.88912,-1.21515 -1.05987,0.33639 -0.93311,-0.54096 0.17956,-1.24282 0.92119,-0.58108 2.12864,0.13714 2.31286,1.37578 0.0738,0.49635 0.49881,1.09756 0.9444,1.33603 0.92329,0.49413 1.05827,2.08548 0.34938,4.11902 -0.68022,1.95121 -1.21815,1.60816 -1.21815,-0.77683 z m 60.0219,0.68934 c 0,-1.59894 0.63241,-2.32352 1.37755,-1.57835 0.55804,0.55807 -0.051,2.61716 -0.85289,2.88341 -0.35346,0.11732 -0.52466,-0.30855 -0.52466,-1.30506 z m -15.18161,-0.58441 c -0.62673,-1.59544 -0.8484,-1.78534 -2.09866,-1.79783 -1.53043,-0.0603 -1.31525,-0.34322 -0.45503,-0.80061 1.84347,-1.53794 3.62263,-0.052 3.38368,2.82604 -0.0866,2.41445 -0.73672,0.95578 -0.82999,-0.2276 z m -32.66801,0.52466 c -0.29147,-0.3512 -0.33693,-0.62959 -0.1028,-0.62959 0.23085,0 0.65487,0.28331 0.94226,0.62959 0.29146,0.35122 0.33692,0.6296 0.1028,0.6296 -0.23086,0 -0.65488,-0.28331 -0.94226,-0.6296 z m 10.38038,-1.35018 c -1.3303,-2.54123 -1.34952,-2.63728 -0.52744,-2.63728 0.84497,0 1.98111,2.32043 1.81183,3.70054 -0.12723,1.03754 -0.22855,0.95366 -1.28439,-1.06326 z m -2.40544,1.21588 c 0,-0.18931 -0.66109,-1.11652 -1.46908,-2.06047 -0.80798,-0.94395 -1.46907,-1.82791 -1.46907,-1.96435 0,-0.71578 1.90287,-0.0888 2.97041,0.97884 1.32729,1.32729 1.69077,3.39015 0.59733,3.39015 -0.34628,0 -0.62959,-0.15488 -0.62959,-0.34417 z m -52.61151,-1.26288 c -0.74255,-0.8205 -0.9232,-1.75082 -0.33997,-1.75082 0.50412,0 1.74399,1.44092 1.74399,2.02678 0,0.7204 -0.61101,0.60032 -1.40402,-0.27596 z m 6.03338,0.29952 c -0.014,-0.77683 1.5337,-2.8898 2.11683,-2.8898 0.71757,0 0.39935,0.81513 -0.85763,2.19697 -0.87256,0.95925 -1.25058,1.16724 -1.2592,0.69283 z m 42.38755,-0.57405 c -0.54419,-0.57929 -0.87704,-1.16568 -0.73962,-1.30309 0.41864,-0.41864 1.89791,0.23528 2.1769,0.9623 0.46603,1.21447 -0.41927,1.42438 -1.43728,0.34079 z m -62.55744,-1.07594 c -0.60283,-1.12642 -0.35908,-3.43122 0.3889,-3.67718 0.45498,-0.1496 0.52872,0.10483 0.32525,1.12214 -0.14471,0.72357 -0.0836,1.78771 0.13577,2.36474 0.48794,1.28336 -0.18437,1.43388 -0.84992,0.1903 z m 28.13253,-0.44185 c 0,-0.76568 1.32809,-3.31636 1.72676,-3.31636 0.51051,0 0.46888,1.97267 -0.0626,2.96572 -0.46388,0.86678 -1.66417,1.11968 -1.66417,0.35064 z m 71.79121,-0.59963 c -0.0443,-2.24052 3.50352,-4.11234 5.90721,-3.11669 0.66633,0.27599 1.21147,0.67441 1.21147,0.88538 0,0.21096 -0.38489,0.17759 -0.85533,-0.0741 -1.41975,-0.75984 -4.78484,0.46702 -5.6507,2.06016 -0.52223,0.9609 -0.59792,0.9912 -0.61265,0.24532 z m -84.71901,-0.28228 c -0.27702,-0.27702 -0.50367,-0.87659 -0.50367,-1.33237 0,-0.78319 0.0576,-0.77457 1.04933,0.15711 0.57713,0.54219 1.04934,1.14176 1.04934,1.33237 0,0.51829 -1.02007,0.41781 -1.595,-0.15711 z m 18.65621,-0.44801 c -0.3072,-1.22402 0.3765,-3.82373 1.18128,-4.49164 0.68362,-0.56735 2.39899,-0.43491 2.60794,0.20138 0.0766,0.23345 -0.2863,0.61121 -0.80656,0.83948 -0.64447,0.28272 -1.08921,1.00905 -1.39525,2.27867 -0.5093,2.11268 -1.21969,2.63722 -1.58741,1.17211 z m 16.55504,0.13552 c -0.29697,-0.18352 -0.47279,-0.6821 -0.39078,-1.10796 0.21599,-1.12167 2.49552,-1.66113 4.79536,-1.13486 1.81288,0.41483 1.85838,0.40191 1.18891,-0.33782 -1.68684,-1.86396 0.94086,-2.78397 3.49814,-1.22478 1.90702,1.16274 1.77685,1.85683 -0.28638,1.5269 -1.41022,-0.2255 -1.68935,-0.14164 -1.9171,0.57596 -0.22166,0.69845 -0.63485,0.83989 -2.45343,0.83989 -1.21348,0 -2.56696,0.26624 -3.04083,0.59817 -0.48677,0.34092 -1.08619,0.45468 -1.39389,0.2645 z m 41.80742,-1.52671 c -1.36842,-1.17929 -2.6513,-1.28906 -4.00275,-0.34249 -1.19229,0.83514 -1.60657,0.48835 -1.00194,-0.8387 0.59069,-1.29637 2.92659,-2.11216 4.42104,-1.54398 1.38631,0.52707 2.57822,2.29119 2.10963,3.12234 -0.291,0.51613 -0.542,0.4508 -1.52598,-0.39717 z m 19.01636,0.43465 c 0,-0.35703 -0.4455,-1.30762 -1.21496,-1.34641 -1.94427,-0.098 -1.64746,-1.44187 -2.35744,-3.65315 -1.22479,-3.81472 -2.10933,-4.55354 -3.16919,-3.89164 -0.63757,0.39817 -0.95666,0.31811 -1.76729,-0.44342 -1.25764,-1.18149 -1.98445,-1.18365 -1.98445,-0.006 0,1.19162 -0.70848,0.49483 -0.93887,-0.92342 -0.19589,-0.3375 -0.39627,-0.60007 -0.65478,0.10506 -0.58066,1.6025 -0.51991,1.1327 -1.85883,0.31637 -0.75594,-0.46091 -1.78379,-0.83873 -2.28406,-0.83958 -1.70585,-0.002 -4.72579,1.60603 -5.54603,2.95483 -1.06365,1.74905 -1.62651,0.81369 -0.58624,-0.9742 0.43287,-0.74394 1.38197,-1.73037 2.1092,-2.19207 1.55742,-0.98885 1.64296,-1.15596 1.9599,-3.82887 0.0268,-1.4847 -0.38716,-0.68327 -0.38716,-0.68327 -0.34649,0.75028 -0.8419,1.36413 -1.10096,1.36413 -0.32239,0 -0.36202,-0.43033 -0.12554,-1.36413 0.18998,-0.75027 0.35383,-2.26131 0.36416,-3.35787 0.0437,-4.6474 1.93888,-0.25645 2.06874,4.79284 -0.006,2.29067 -0.22045,1.9227 1.94136,2.21762 1.04006,0.14189 2.87897,0.24305 4.08645,0.22483 1.20749,-0.0182 2.62409,0.20198 3.148,0.48936 0.52391,0.2874 1.3957,0.46899 1.93728,0.40356 0.57634,-0.0696 1.40627,0.27711 2.00129,0.8361 1.07842,1.0131 2.26068,4.33685 2.26068,6.3555 0,1.00969 0.13616,1.16809 0.81799,0.95168 0.53389,-0.16944 1.13016,0.0525 1.71666,0.63904 0.91579,1.08338 0.95321,0.84744 1.91029,-0.0517 0.55636,-0.52269 1.0116,-1.2146 1.0116,-1.53756 0,-0.84274 1.43053,-0.45607 1.60175,0.43294 0.20651,1.07215 -2.52819,3.65847 -3.86831,3.65847 -0.50523,-0.0621 -1.07663,-0.23628 -1.09124,-0.64904 z m -69.61935,-0.68978 c -0.19896,-0.5333 -0.50024,-1.91177 -0.66951,-3.06326 l -0.30775,-2.09361 -1.03015,1.19764 c -1.26844,1.47461 -1.51574,1.31838 -0.75934,-0.47966 1.30734,-3.10769 3.58829,-1.72732 3.88321,2.35004 0.19059,2.63479 -0.45924,3.85057 -1.11646,2.08885 z m 33.52227,0.36432 c 0,-1.21738 1.38122,-4.51141 1.83,-4.36427 0.75984,0.24915 0.79971,2.22712 0.0732,3.63203 -0.66868,1.29312 -1.9032,1.76809 -1.9032,0.73224 z m -66.87754,-0.56446 c -0.44695,-0.44696 -0.32301,-3.91751 0.13991,-3.91751 0.23086,0 0.41974,0.57906 0.41974,1.2868 0,0.70774 0.19553,1.65214 0.4345,2.09867 0.33119,0.61883 0.29792,0.81186 -0.13991,0.81186 -0.31592,0 -0.70034,-0.12591 -0.85424,-0.27982 z m 19.46162,-0.61808 c -0.007,-0.60927 0.35751,-1.55367 0.81154,-2.09867 l 0.8255,-0.99089 0.014,1.10777 c 0.007,0.60927 -0.35752,1.55367 -0.81155,2.09867 l -0.82549,0.99089 z m 40.05996,-1.38008 c -0.7721,-2.02162 -1.97324,-3.33969 -3.45218,-3.78819 -1.08639,-0.32945 -1.23637,-0.9836 -0.30724,-1.34014 1.9196,-0.73662 4.54416,1.96975 5.06424,5.2221 0.3779,2.36311 -0.38752,2.30812 -1.30482,-0.0938 z m -4.6888,0.809 c -0.49432,-0.34623 -1.1672,-0.52652 -1.49521,-0.40062 -0.76606,0.29395 -1.73846,-0.86472 -1.42071,-1.69279 0.55106,-1.43597 3.365,-0.30702 4.43296,1.77852 0.58839,1.14895 -0.11719,1.2954 -1.51704,0.31489 z m 8.16429,-1.36422 c -0.10899,-0.63485 -0.34586,-1.50142 -0.52644,-1.92574 -0.27086,-0.63637 -0.16012,-0.74662 0.63229,-0.62959 1.26403,0.18668 1.8663,1.21509 1.5199,2.5953 -0.36551,1.45629 -1.37316,1.43151 -1.62575,-0.04 z m -50.80178,-1.46906 c 0.28967,-2.31759 0.95636,-3.05841 0.95636,-1.06268 0,1.69891 -0.34045,2.84654 -0.84442,2.84654 -0.1842,0 -0.23456,-0.80273 -0.11196,-1.78386 z m -10.94099,0.59655 c -0.7638,-0.844 -0.91852,-1.75082 -0.29871,-1.75082 0.42292,0 1.70273,1.64759 1.70273,2.19206 0,0.56878 -0.68469,0.3536 -1.40402,-0.44124 z m 6.4324,0.12783 c -0.82953,-0.99952 -0.22104,-1.15223 0.89336,-0.22418 0.77646,0.64663 0.84911,0.83916 0.32072,0.84997 -0.37572,0.007 -0.92207,-0.27392 -1.21408,-0.62579 z m 99.06552,-0.36958 c 0,-0.19835 0.39862,-1.00564 0.88585,-1.79397 0.62023,-1.27202 1.63646,-1.62172 -0.20987,-1.1583 -2.12524,0.72684 -0.40609,-1.37674 -0.045,-2.08996 0.57595,-1.13524 0.95094,-2.16031 0.83333,-2.27793 -0.11755,-0.11767 -0.73129,0.27595 -1.36371,0.87458 -0.63246,0.59865 -1.52653,1.15152 -1.9869,1.22861 -0.73264,0.12269 -0.83728,-0.0953 -0.83946,-1.74863 -0.005,-1.88748 -0.005,-1.88873 -1.41895,-1.77518 -0.77906,0.0625 -1.95957,0.50035 -2.62333,0.97299 -1.2802,0.91155 -1.68532,0.37243 -0.63405,-0.8437 0.70863,-0.81974 1.21286,-3.81065 0.64244,-3.81065 -0.22598,0 -0.80568,-0.36781 -1.28821,-0.81734 -0.79661,-0.74217 -0.83359,-0.99092 -0.40218,-2.70427 0.67744,-2.69038 0.60551,-3.15274 -0.5742,-3.69024 -0.57713,-0.26297 -1.04934,-0.73112 -1.04934,-1.04033 0,-0.30923 -0.16268,-0.56223 -0.36151,-0.56223 -0.19887,0 -0.26497,-0.50517 -0.14695,-1.12261 0.1676,-0.87678 -0.0483,-1.33227 -0.98621,-2.08009 -1.34856,-1.07531 -1.1679,-1.6469 0.39644,-1.25428 1.69358,0.42505 2.47278,1.48487 2.22308,3.0236 -0.1898,1.16956 -0.0811,1.39364 0.78079,1.60996 0.70662,0.17736 1.14336,0.72556 1.48414,1.86309 0.41444,1.3833 0.36252,1.88392 -0.36627,3.53153 -0.94771,2.14247 -0.85117,2.51453 0.51749,1.99418 1.82605,-0.69427 2.33809,0.54185 1.27641,3.08133 -0.27849,0.66621 -0.18816,0.7388 0.60593,0.48677 1.55071,-0.49217 2.97763,0.11791 3.56979,1.52622 0.30007,0.71371 0.66428,1.10566 0.80929,0.87099 0.14502,-0.23465 -0.18855,-1.25015 -0.74129,-2.25666 -0.55271,-1.00651 -1.13727,-2.65046 -1.29895,-3.65322 -0.93088,-5.77201 4.35306,-10.51378 7.52078,-6.74914 1.74412,2.07277 1.27441,4.16514 -0.93503,4.16514 -0.8597,0 -0.96929,-0.144 -0.71871,-0.94441 0.66179,-2.11416 0.49868,-2.61685 -0.89286,-2.75193 -1.10797,-0.10755 -1.52007,0.12754 -2.5184,1.4365 -1.03578,1.35807 -1.18478,1.90252 -1.12628,4.11607 0.0852,3.22433 1.16334,5.99956 2.04604,5.26697 0.33226,-0.27577 0.90876,-0.38448 1.28111,-0.24161 0.54204,0.20801 0.62867,0.65653 0.43455,2.25057 -0.13331,1.09492 -0.29389,2.69482 -0.35681,3.5553 -0.0763,1.04312 -0.49911,1.94918 -1.26869,2.71873 -0.63485,0.6348 -1.15427,0.99191 -1.15427,0.79355 z m -98.07017,-0.72852 c -0.62962,-0.79591 -1.08265,-2.87922 -0.62612,-2.87922 0.20725,0 0.60755,0.55704 0.88955,1.23787 0.60375,1.45758 0.43297,2.5217 -0.26343,1.64135 z m 9.73517,-0.46575 c 0.15692,-0.51942 0.44983,-1.1207 0.65088,-1.33616 0.64344,-0.68953 0.95229,0.14184 0.45674,1.22944 -0.60422,1.32612 -1.50218,1.41264 -1.10762,0.10673 z m 55.67595,0.10494 c -0.21922,-0.57714 -0.47299,-1.42709 -0.5639,-1.8888 -0.13214,-0.67104 -0.5002,-0.83946 -1.83449,-0.83946 -1.66551,0 -1.66903,-0.004 -1.57686,-1.57401 0.1122,-1.91135 -0.4646,-2.01749 -1.52128,-0.27993 -0.43283,0.71174 -0.89075,1.12619 -1.01756,0.92097 -0.35643,-0.57667 0.64396,-2.25226 1.9024,-3.18646 0.92581,-0.68727 1.25127,-0.7459 1.76658,-0.31821 0.53259,0.44198 0.6696,0.33733 0.87317,-0.66706 0.40622,-2.00408 2.4713,-5.78637 3.37654,-6.18429 0.55494,-0.24394 1.09963,-1.2017 1.55155,-2.72826 0.93441,-3.1565 1.71024,-4.1781 2.71043,-3.56905 0.87229,0.53115 1.27624,3.38588 0.57789,4.08421 -0.31799,0.31801 -0.45025,0.21039 -0.45478,-0.37011 -0.005,-0.45017 -0.17689,-1.08782 -0.38523,-1.417 -0.2722,-0.43015 -0.63842,0.25622 -1.3016,2.43963 -0.68588,2.25818 -1.07837,2.97846 -1.52876,2.80564 -0.74619,-0.28636 -1.95087,2.2804 -2.82119,6.01101 -0.52508,2.2509 -0.52723,2.64595 -0.0156,2.84235 0.88858,0.34096 1.64486,3.21039 1.10188,4.18058 -0.57899,0.68933 -0.6698,0.18128 -0.83919,-0.26175 z m -1.60732,-4.82693 c -0.13288,-0.34629 -0.41025,-0.62961 -0.61642,-0.62961 -0.20613,0 -0.37482,0.28332 -0.37482,0.62961 0,0.34628 0.2774,0.62959 0.61642,0.62959 0.37549,0 0.52203,-0.24609 0.37482,-0.62959 z m -55.9706,3.76261 c 0.0107,-1.52791 0.50781,-2.71328 1.13806,-2.71328 0.76265,0 0.39886,1.96274 -0.54181,2.92315 -0.52709,0.53814 -0.60126,0.51204 -0.59625,-0.20987 z m 34.62077,-1.28227 c 0.17205,-0.89741 0.0489,-1.46308 -0.39955,-1.83526 -0.86641,-0.71906 -0.81968,-1.27469 0.1072,-1.27469 1.79743,0 2.44815,2.18866 1.40521,3.45394 -1.08244,1.26652 -1.40858,1.19858 -1.11286,-0.34399 z m -42.01297,-0.75736 c -0.35887,-0.93517 -2.5e-4,-3.83154 0.46087,-3.72232 0.58664,0.13897 0.79821,4.30778 0.21862,4.30778 -0.25015,0 -0.55593,-0.26346 -0.67949,-0.58546 z m -11.44985,-2.32554 c -0.94889,-2.20579 -1.09282,-2.96527 -0.56191,-2.96527 0.49567,0 1.634,2.12848 1.96417,3.67267 0.44246,2.06928 -0.38798,1.65034 -1.40226,-0.7074 z m 26.39153,1.10072 c 0,-0.30308 0.56788,-1.09513 1.26195,-1.76011 0.84683,-0.81131 1.12299,-1.34802 0.83948,-1.63154 -1.16857,-1.16857 0.27702,-3.61247 2.13682,-3.61247 0.42876,0 0.78608,-0.46244 0.93584,-1.21113 0.33453,-1.67265 2.3843,-2.41602 4.18495,-1.51773 0.90956,0.45374 1.41064,0.50362 1.80142,0.17933 0.75107,-0.62335 2.72818,-0.319 3.23987,0.49875 0.23317,0.37261 0.28051,1.0337 0.10518,1.46907 -0.29847,0.7413 -0.34183,0.73159 -0.68286,-0.15282 -0.2003,-0.51942 -0.55027,-0.9444 -0.77768,-0.9444 -0.77713,0 -2.55169,0.97344 -2.55169,1.39973 0,0.23405 -0.43715,0.0149 -0.97147,-0.4871 -1.65224,-1.55221 -3.22587,-0.93776 -3.22587,1.25959 0,1.04246 -0.1016,1.12626 -0.96647,0.79741 -0.57394,-0.21822 -1.25584,-0.20553 -1.67893,0.0313 -0.91346,0.51119 -0.92267,2.29631 -0.0143,2.80454 0.62058,0.34729 0.59934,0.42192 -0.19143,0.6729 -0.48917,0.15526 -1.3577,0.83883 -1.93008,1.51905 -1.14113,1.35594 -1.5148,1.52511 -1.5148,0.68572 z m -8.94802,-0.14216 c -0.35442,-0.35443 -0.37258,-1.95094 -0.0322,-2.83775 0.37174,-0.96874 1.00638,-0.37636 0.99893,0.93243 -0.007,1.28361 -0.53945,2.3325 -0.96665,1.90532 z m 49.01145,-1.30049 c -0.13583,-0.63485 -0.51719,-1.9161 -0.84748,-2.84724 -0.76732,-2.16339 -0.7562,-2.52652 0.0567,-1.85179 1.05878,0.87867 1.86114,2.75986 1.86114,4.36338 0,1.76184 -0.71716,1.98671 -1.07045,0.33565 z m -53.21509,0.035 c -0.44418,-0.44417 -0.32446,-3.07803 0.13992,-3.07803 0.23085,0 0.41973,0.75552 0.41973,1.67893 -0.15706,0.88036 0.092,2.03593 -0.55965,1.3991 z m -10.53949,-1.49251 c -0.97283,-1.3889 -0.86808,-5.63549 0.18146,-7.35687 1.84984,-3.03395 3.48177,-0.98126 3.27744,4.12244 -0.11006,2.75015 -0.18724,3.00883 -0.65391,2.19292 -0.29099,-0.50878 -0.64947,-2.07689 -0.79662,-3.48468 -0.17648,-1.68855 -0.40888,-2.41826 -0.68292,-2.14422 -0.50465,0.50465 -0.62939,4.85085 -0.18508,6.44901 0.39054,1.40479 -0.22744,1.52478 -1.14037,0.2214 z m 58.94876,0.0934 c -0.48832,-0.91244 -1.67894,-1.15056 -1.67894,-0.33579 0,0.34645 -0.13532,0.36836 -0.4335,0.0702 -0.68035,-0.68032 0,-1.83307 1.08421,-1.83307 0.97517,0 2.28742,1.37796 2.28742,2.40194 -0.26846,0.99883 -1.15494,-0.11762 -1.25919,-0.30328 z m -46.14399,-1.25918 c 0,-1.75087 0.045,-1.82929 0.61625,-1.07404 0.33894,0.44812 0.61626,0.93144 0.61626,1.07404 0,0.14261 -0.27732,0.62593 -0.61626,1.07406 -0.57125,0.75526 -0.61625,0.67684 -0.61625,-1.07406 z m 34.13118,0.54858 c -0.7256,-0.97183 -0.92627,-1.03671 -1.78517,-0.57706 -0.85387,0.45697 -0.95045,0.42841 -0.82117,-0.24281 0.0805,-0.41838 0.65835,-0.9407 1.28396,-1.16072 0.89979,-0.31643 1.31557,-0.23885 1.98966,0.37118 0.86953,0.78688 1.13341,2.09669 0.5012,2.48744 -0.19306,0.1193 -0.71887,-0.2758 -1.16848,-0.87803 z m 41.64763,-0.31433 c -0.19715,-0.7855 -0.51027,-1.03582 -1.20435,-0.96267 -1.34469,0.14169 -1.19653,-1.04921 0.19127,-1.53727 1.52893,-0.5377 2.52374,0.30197 2.35505,1.98776 -0.15967,1.59531 -0.99053,1.91242 -1.34197,0.51218 z m -69.24109,-0.10577 c -0.9903,-0.9903 0.57085,-3.07698 2.28304,-3.05154 1.53072,-0.11973 0.6821,0.28871 -0.13799,0.96017 -0.63484,0.51978 -1.15427,1.16293 -1.15427,1.4292 0,0.60192 -0.62998,1.02296 -0.99078,0.66217 z m 21.19508,-0.80756 c -0.37462,-0.42348 -0.93286,-0.5567 -1.61505,-0.38547 -1.44115,0.36171 -1.05602,-0.69208 0.44705,-1.22329 0.92061,-0.32535 1.29173,-0.23632 2.01037,0.48233 0.48474,0.48473 0.75283,1.08928 0.59576,1.34341 -0.38099,0.61652 -0.74997,0.56083 -1.43813,-0.21698 z m 50.36076,-1.60548 c -0.59276,-2.35402 -0.59431,-2.33253 0.16902,-2.33253 0.87569,0 1.62521,1.80339 1.29551,3.11705 -0.40194,1.60139 -0.93575,1.31544 -1.46453,-0.78452 z m -23.51461,-0.31183 c -0.45101,-1.17661 0.20659,-2.1325 0.81021,-1.17773 0.51796,0.81927 0.51224,1.5619 -0.0146,1.88749 -0.23279,0.14388 -0.59082,-0.17551 -0.79561,-0.70976 z m -63.00031,-0.3075 c 0,-1.10127 2.58197,-4.82523 3.46158,-4.99261 1.01308,-0.19279 1.78415,1.85736 1.18947,3.16258 -0.58051,1.27407 -1.37997,1.23834 -1.05731,-0.0472 0.44184,-1.76043 -0.45629,-1.52765 -1.5037,0.38973 -1.10984,2.03166 -2.09004,2.72929 -2.09004,1.48754 z m 47.30664,-0.46657 c -0.40521,-0.47325 -1.23364,-0.8269 -1.93711,-0.8269 -1.93688,0.1985 -1.17722,-0.775 -1.06759,-2.41346 0.22497,-1.23184 -0.37491,-3.02815 0.189,-2.62335 0.59591,0.42777 1.26001,1.63268 1.26001,2.55313 0,0.85714 0.25427,1.19729 1.04295,1.39523 0.65029,0.16322 1.14331,0.66178 1.30961,1.32426 0.35165,1.40113 0.0734,1.60752 -0.79687,0.59109 z m -34.09764,-0.008 c -0.48408,-0.78325 0.0561,-3.42966 0.9979,-4.25639 0.86054,-0.75539 1.03276,-0.51436 0.76389,0.2211 -0.15507,0.42417 -0.40078,1.51442 -0.54603,2.42277 -0.27883,1.74374 -0.74915,2.36755 -1.21576,1.61255 z m -25.55026,-0.31577 c -1.16228,-0.14473 -2.34941,-0.94375 -2.34941,-1.58133 0,-0.67781 1.57107,-1.41455 3.04305,-1.42705 2.29477,-0.0195 4.27925,2.23291 2.49217,2.8286 -0.27414,0.0914 -0.49843,-0.11089 -0.49843,-0.44948 0,-0.6711 -1.28449,-1.14438 -2.93814,-1.08258 -0.69484,0.0259 -0.44669,0.17417 0.73455,0.4387 2.62572,0.58802 2.23668,1.61185 -0.48379,1.27313 z m 64.98923,-0.54909 c -0.16861,-0.27283 -0.87486,-0.37077 -1.70371,-0.23626 -1.64359,0.26672 -1.88388,-0.36164 -0.39732,-1.03895 1.41291,-0.64378 3.17895,-0.1384 3.17895,0.90973 0,0.90356 -0.61626,1.1125 -1.07792,0.36548 z m 11.57125,-1.24792 c 0,-2.18691 0.9925,-2.0419 1.17962,0.17236 0.0991,1.17261 -0.0264,1.54155 -0.52468,1.54155 -0.4865,0 -0.65494,-0.44079 -0.65494,-1.71391 z m 12.17227,-1.60898 c 0,-3.26456 0.54461,-4.50388 1.06612,-2.42601 0.40173,1.60063 0.0319,5.457 -0.54145,5.64595 -0.39073,0.12876 -0.52467,-0.69327 -0.52467,-3.21994 z m 14.31195,0.38659 c -0.71087,-1.15528 -1.45274,-2.10051 -1.64868,-2.10051 -0.19593,0 -0.57818,0.48705 -0.84937,1.08231 -0.69395,1.523 -1.35766,1.09899 -2.05799,-1.31467 -0.33135,-1.1419 -0.79628,-2.31226 -1.03322,-2.60084 -0.51329,-0.62512 -2.00696,-0.70321 -2.00696,-0.10494 0,0.23085 -0.18888,0.41973 -0.41973,0.41973 -0.84312,0 -0.3909,-1.29032 0.6124,-1.74747 1.30477,-0.59449 3.058,0.4308 3.71556,2.17287 0.38896,1.03048 0.61055,1.1486 1.79423,0.95651 1.4849,-0.24097 2.04817,0.32592 3.2965,3.31764 0.98188,2.35318 0.0622,2.3003 -1.40274,-0.0807 z m -24.11373,-0.91849 c -0.14322,-0.53468 -0.26292,-1.50731 -0.26608,-2.1614 -0.008,-1.80059 1.01853,-1.14408 1.17715,0.75235 0.15509,1.85432 -0.51451,2.8899 -0.91107,1.40905 z m 2.24658,-0.84787 c 0,-1.56336 0.4073,-2.43281 1.13974,-2.43281 0.76652,0 0.40605,1.95953 -0.53776,2.92315 -0.52601,0.53705 -0.60198,0.47518 -0.60198,-0.49034 z m -77.86056,-0.54043 c -0.23086,-0.077 -0.92028,-0.24985 -1.53207,-0.38407 -0.76111,-0.16699 -1.25667,-0.65816 -1.5695,-1.55554 -0.49173,-1.41055 -0.22302,-3.31064 0.46818,-3.31064 0.9203,0 3.68272,3.26881 3.68272,4.35782 0,1.06168 -0.15269,1.19153 -1.04933,0.89243 z m -1.46908,-2.52198 c -0.29664,-0.35743 -0.63379,-0.55545 -0.74921,-0.44002 -0.11541,0.11541 0.0328,0.50231 0.32949,0.85975 0.29664,0.35744 0.63379,0.55544 0.74921,0.44002 0.11541,-0.11541 -0.0328,-0.50232 -0.32949,-0.85975 z m 14.04465,0.93686 c -0.39578,-1.01609 0.5327,-3.09534 1.84217,-4.12535 0.84007,-0.66079 1.59691,-0.82767 3.37928,-0.74511 1.54956,0.0717 2.35391,-0.0651 2.47242,-0.4206 0.28217,-0.84652 2.06388,-1.33797 3.23563,-0.89247 1.51619,0.57645 1.2886,1.2592 -0.41974,1.2592 -1.36437,0 -1.46906,0.0932 -1.46906,1.30684 0,1.25147 -0.0578,1.29508 -1.36414,1.02941 -3.6089,-0.73394 -4.11647,-0.73809 -5.17836,-0.0424 -0.59392,0.38915 -1.33396,1.30716 -1.64451,2.04002 -0.46913,1.10703 -0.61354,1.20691 -0.85369,0.59037 z m 52.06631,-0.0433 c 0,0 -0.67068,-0.57921 -0.0926,-0.80108 0.36177,-0.13882 0.86964,0.002 1.12858,0.31486 0.65672,0.79129 0.55502,1.85499 -0.36085,1.18532 z m -35.05068,-1.21323 c 0,-1.40596 2.48542,-2.62414 3.63188,-1.78012 0.74863,0.55115 0.74645,0.58023 -0.0641,0.8448 -0.71896,0.23465 -2.12295,0.8309 -3.25294,1.38147 -0.25889,-0.10499 -0.31098,-0.21098 -0.31484,-0.44615 z m 41.97335,-0.50041 c 0,-0.34629 0.47993,-0.94408 1.06655,-1.32842 1.3248,-0.86805 3.13079,-0.23918 3.13079,1.0902 0,1.03346 -0.76925,1.10495 -1.47683,0.13725 -0.48848,-0.66802 -0.58688,-0.66743 -1.6203,0.01 -0.59432,0.26835 -1.09227,0.67682 -1.10021,0.091 z m -18.99872,-1.15058 c -0.98924,-1.05869 -1.36002,-1.19897 -2.51841,-0.95281 -0.74708,0.15877 -1.65652,0.55096 -2.02097,0.87155 -1.08741,0.95648 -2.04213,0.67071 -2.96072,-0.88618 -0.68023,-1.15289 -1.1342,-1.46907 -2.10929,-1.46907 -0.72143,0 -1.13374,-0.17602 -0.9831,-0.41973 0.14266,-0.23086 0.98205,-0.41974 1.8653,-0.41974 1.25152,0 1.75822,0.2325 2.29628,1.05365 0.65953,1.00659 0.74511,1.02534 1.9162,0.41973 1.93179,-0.99896 4.47562,-0.82188 5.69385,0.39635 1.0825,1.0825 1.40112,2.78255 0.50558,2.69753 -0.28857,-0.0274 -1.0467,-0.60847 -1.68472,-1.29128 z m 59.29314,-0.30351 c 0,-1.77098 0.39937,-2.55273 1.30411,-2.55273 0.89311,0 1.03469,0.99271 0.38524,2.70094 -0.57312,1.50735 -1.68935,1.40942 -1.68935,-0.14821 z m -77.65069,-0.40676 c 0,-1.91737 2.48435,-4.24464 4.53118,-4.24464 0.88635,0 2.4758,1.52758 2.04142,1.96196 -0.15282,0.15284 -0.76463,0.0174 -1.35956,-0.30103 -0.92845,-0.49687 -1.23927,-0.49047 -2.19353,0.0451 -0.61151,0.34323 -1.54105,1.26098 -2.06568,2.03947 -0.82808,1.22879 -0.95383,1.2946 -0.95383,0.4991 z m 70.10883,-0.92908 c -0.0193,-1.57895 -0.81507,-3.631 -1.51175,-3.89834 -0.95829,-0.36774 -0.69403,-1.09616 0.39769,-1.09616 1.2979,0 1.9673,0.84942 2.21977,2.81675 0.13561,1.05675 -0.0134,1.87216 -0.44413,2.42992 -0.63375,0.8207 -0.64852,0.81506 -0.66158,-0.25217 z m -40.72749,-1.98641 c 0,-1.50524 -0.32669,-1.82824 -1.3144,-1.29961 -0.43136,0.23084 -0.78427,0.26198 -0.78427,0.0691 0,-0.66135 1.00786,-1.35792 1.96473,-1.35792 1.07314,0 1.66097,1.43302 1.19288,2.90784 -0.40109,1.2638 -1.05894,1.06533 -1.05894,-0.31948 z m 17.10414,0.7014 c -1.30739,-0.4775 -1.47771,-0.97714 -0.46553,-1.36556 0.73692,-0.28279 2.66913,0.76207 2.66913,1.44335 0,0.50183 -0.68261,0.47774 -2.2036,-0.0778 z m 15.02637,-1.99672 c -0.13116,-0.21223 0.0466,-0.67094 0.39497,-1.01934 0.92291,-0.9229 0.79443,-1.11316 -0.75166,-1.11316 -2.11172,0 -2.54543,-0.70273 -1.48887,-2.4123 0.57717,-0.93388 0.73935,-1.56915 0.4695,-1.839 -0.58557,-0.58557 -2.59987,0.0134 -3.1825,0.94633 -0.69197,1.10802 -1.01692,0.99383 -1.5214,-0.60049 -1.79089,-5.65977 -9.50382,-8.7727 -14.82957,-7.95033 -3.41634,0.52754 -4.43477,1.36384 -5.99631,3.49106 -0.83728,1.14061 -1.92514,2.356 -2.41754,2.70088 -1.00501,0.70392 -4.71579,0.85431 -5.11567,0.20731 -0.15971,-0.2584 0.54553,-0.41973 1.83475,-0.41973 1.97946,0 2.18198,-0.10637 3.69743,-1.94136 2.97838,-3.60641 3.77395,-4.2851 5.62938,-4.8025 6.54356,-1.82472 14.91737,1.23493 17.24075,6.29946 l 0.9403,2.04965 1.02037,-0.80263 c 1.19716,-0.94168 2.53586,-1.02894 3.62032,-0.23596 0.6074,0.44414 0.72056,0.90209 0.52325,2.11791 -0.22301,1.37421 -0.1334,1.59622 0.78511,1.94543 1.30818,0.49739 1.67624,1.43232 1.07946,2.7421 -0.46691,1.02479 -1.48488,1.36024 -1.93207,0.63667 z m -37.96859,-1.8766 c -0.30837,-0.3716 -0.92647,-0.67563 -1.37357,-0.67563 -0.44706,0 -0.69609,-0.18888 -0.55342,-0.41973 0.65218,-1.05528 3.04143,0.10982 2.64767,1.2911 -0.10446,0.31355 -0.3543,0.2457 -0.72068,-0.19574 z m -23.12562,-1.36262 c -0.43245,-1.24058 -0.47591,-1.05589 -2.11434,-0.77908 -1.31297,0.22182 -1.89607,0.1244 -2.49398,-0.41671 -0.73154,-0.66202 -0.87588,-0.66089 -2.30681,0.0181 -1.78524,0.84716 -2.1564,0.60619 -2.63437,-1.71033 -0.3005,-1.45634 -0.50677,-1.68775 -1.60125,-1.79639 -1.53894,-0.15277 -3.77062,1.26442 -5.10185,3.23984 -0.52491,0.77891 -0.95439,1.19002 -0.95439,0.91356 0,-1.11469 1.38563,-3.06568 3.01617,-4.24684 2.83902,-2.05657 5.3005,-1.51459 6.00849,1.32296 0.26036,1.04346 0.35554,1.08031 1.71384,0.66344 1.25569,-0.38538 1.56357,-0.32359 2.42641,0.48701 0.86158,0.80941 1.13029,0.86368 2.09648,0.42346 0.79124,-0.36052 1.38109,-0.38062 2.06227,-0.0702 0.82599,0.37635 1.16682,0.21939 2.53897,-1.16935 4.2064,-4.25722 13.99535,-4.8159 16.53259,-0.94356 0.79304,1.21032 0.10426,1.30039 -0.91637,0.42368 -1.59058,-1.36634 -5.04849,-2.15621 -8.08942,-1.6613 -3.35504,0.54605 -5.93814,2.07308 -7.58988,4.36665 -0.78969,1.09655 -0.53414,2.48477 -1.91523,2.26579 -0.4276,-0.38207 -0.52424,-0.90143 -0.67733,-1.33073 z m 43.23464,-3.7377 c 0,-0.57286 -0.25322,-0.66641 -1.25921,-0.46521 -1.34306,0.26862 -1.70789,-0.3698 -0.75552,-1.32216 1.1857,-1.18568 3.50995,-0.1445 3.20366,1.43511 -0.18686,0.96364 -1.18893,1.26052 -1.18893,0.35226 z m -19.72748,-3.47003 c 0,-0.41758 -0.27732,-1.12588 -0.61625,-1.57399 -0.33894,-0.44813 -0.62225,-1.05086 -0.62961,-1.33943 -0.0209,-0.82137 1.16825,-0.61449 1.65082,0.28721 0.55518,1.03738 0.56543,3.38546 0.0147,3.38546 -0.23085,0 -0.41973,-0.34167 -0.41973,-0.75925 z m 29.38135,-3.19775 c 0,-0.81419 -1.8614,-2.22019 -3.38125,-2.55401 -1.62848,-0.35767 -1.17035,-1.0442 0.69683,-1.0442 0.99407,0 1.79379,0.33041 2.49365,1.03026 1.01462,1.01465 1.42956,3.16708 0.6105,3.16708 -0.23085,0 -0.41973,-0.26961 -0.41973,-0.59913 z m -21.19654,-2.75873 c -0.14267,-0.23086 -0.81492,-0.41974 -1.49384,-0.41974 -1.42222,0 -1.71675,-1.04956 -0.41083,-1.46403 1.11959,-0.35535 2.53426,0.47015 2.53426,1.47879 0,0.90561 -0.22913,1.05297 -0.62959,0.40498 z" fill="#00B894" transform="translate(140.93783,81.395846) matrix(2.8752456,0,0,2.8752456,-2030.8604,407.52064)"/>
</svg>