<?xml version="1.0" ?><svg height="149.68051mm" viewBox="0 0 197.66685 149.68051" width="197.66685mm" xmlns="http://www.w3.org/2000/svg">
    <path d="m 494.2747,-39.136226 2.02982,-3.430072 c 0,0 6.95362,-5.589112 16.93738,-5.340129 9.98379,0.248984 14.87317,4.905551 14.87317,4.905551 0,0 5.6154,-6.700571 12.90458,-7.795083 7.28988,-1.094617 15.83115,-0.381833 15.48844,0.430609 2.89827,10.832056 4.63382,23.408124 5.39908,37.439556 l -1.82215,4.5868505 c 0,0 -8.4352,0.025473 -12.94281,0.9093288 -7.96488,1.5617618 -11.16969,4.8283919 -11.04352,5.7599037 0,0 -2.15217,0.7460397 -4.22196,0.74003548 -2.09008,-0.006063 -3.79462,-1.64893208 -3.79462,-1.64893208 0,0 -8.05246,-2.6859389 -15.59441,-1.7549586 -7.54195,0.9309804 -12.20753,2.9142452 -12.20753,2.9142452 0,0 -1.19168,0.61770693 -1.13876,-0.6340997 0.11432,-2.7040005 -3.30463,-36.8819723 -4.86671,-37.0828053 z" fill="#FFFFFF" transform="translate(92.056223,-148.00941) matrix(2.8752456,0,0,2.8752456,-1512.4161,299.41914)"/>
    <path d="m 529.91605,-0.81690105 c -0.37825,-0.15184 -1.11471,-0.66342995 -1.63656,-1.13686995 -0.99723,-0.90468 -4.73846,-1.58254 -11.43029,-2.07098 -4.14609,-0.302639 -10.31532,0.65729 -13.78631,2.14513 -2.21686,0.95025995 -3.6619,1.14503995 -4.03355,0.5437 -0.12231,-0.19782 -0.45164,-3.240999 -0.73196,-6.7626588 -0.8594,-10.7965702 -2.93039,-25.8968112 -4.09998,-29.8942212 -0.23879,-0.81614 -0.2697,-1.58554 -0.0687,-1.70979 0.20102,-0.12418 0.49673,-0.88208 0.65714,-1.68411 0.33287,-1.66436 0.83763,-1.4608 1.00422,0.40497 0.062,0.69488 0.6398,2.72073 1.28393,4.50186 1.79743,4.970251 4.0117,17.783641 4.29328,24.843811 0.26504,6.64613 1.04144,8.363079 1.03661,2.2924402 -0.005,-6.7853702 -3.11733,-24.7027612 -5.29419,-30.4819112 -0.89903,-2.816529 -2.00377,-2.414894 0.11578,-4.15892 3.27535,-2.69505 7.66598,-4.07449 14.35114,-4.5088 3.26742,-0.21228 5.07219,-0.0987 7.22381,0.45467 3.42138,0.87991 7.98284,3.04833 8.27854,3.93542 0.15646,0.46938 -0.0132,0.53527 -0.65363,0.25393 -5.14142,-2.25835 -8.31863,-2.95615 -13.47327,-2.95907 -5.61881,-0.004 -9.83013,0.7416 -12.82093,2.26739 -2.35502,1.20143 -2.48205,1.49558 -1.42406,3.29733 1.17452,2.00017 2.50361,6.95485 3.91413,14.591351 1.83042,9.90977 2.30544,14.59564 1.7595,17.3567302 -0.42534,2.15117 -0.39687,2.37673 0.26488,2.09801 0.4078,-0.17175 2.18569,-0.81911 3.95087,-1.43856 6.13307,-2.1523102 15.8905,-1.8731202 20.75265,0.59381 1.19441,0.60601 2.19612,1.10269 2.22607,1.10375 0.03,9.1e-4 -0.22597,-1.18441 -0.56869,-2.63438 -0.81841,-3.4625102 -1.79589,-12.2641602 -2.69681,-24.2830612 -0.66529,-8.87536 -0.66553,-9.8231 -0.003,-10.83455 1.19602,-1.82537 5.96256,-4.86288 9.98469,-6.36283 3.22511,-1.20271 4.54164,-1.43223 9.04695,-1.57713 6.22673,-0.200259 9.46143,0.61956 10.42136,2.64125 0.71884,1.51392 1.54115,5.43572 3.36144,16.03161 1.10915,6.456361 1.42246,9.96873 1.51426,14.871131 l 0.10748,5.739664 c 0.0406,0.884929 -1.16074,1.088506 -6.69333,0.951926 -7.25089,-0.178999 -11.2211,1.14967 -16.58533,3.5570002 -3.38706,1.52 -6.79749,4.5754788 -6.79749,6.0899788 0,0.90382 0.16699,0.9564 2.16687,0.68228 2.02692,-0.27781 2.11726,-0.24739 1.39874,0.47114 -0.78905,0.78904995 -4.99739,1.30709995 -6.31653,0.77755995 z M 500.28018,-3.006821 c 0.63204,-0.96461 0.66796,-1.808029 0.26855,-6.3041788 -0.94044,-10.5862802 -3.41342,-25.2804512 -4.7865,-28.4407612 -0.90559,-2.08436 -0.84669,-1.12494 0.19205,3.12843 2.03025,8.313331 3.39367,18.532931 3.43366,25.7371312 0.0213,3.84497 0.0667,6.9913288 0.10075,6.9919188 0.034,4.5e-4 0.39023,-0.50007 0.79154,-1.11254 z m 2.37889,0.25691 c 0.23956,-0.21901 1.42017,-0.7646 2.62358,-1.21241 1.20343,-0.447819 2.12435,-0.877909 2.04649,-0.955749 -0.32086,-0.3208598 -4.89162,1.289289 -5.4005,1.902449 -0.59055,0.71157 0.005,0.92841 0.73043,0.26571 z m 28.17395,-0.0603 c -0.89788,-0.58027 -1.50483,-0.58027 -1.14621,0 0.15585,0.25216 0.63224,0.45532 1.05865,0.45146 0.66814,-0.006 0.68024,-0.0684 0.0876,-0.45146 z m -2.75091,-0.82673 c 0,-0.41442 -5.3368,-2.1891288 -7.79426,-2.5919188 -0.88258,-0.14466 -2.94577,-0.0797 -4.58486,0.14421 -2.74398,0.37497 -2.81665,0.41222 -0.91697,0.47013 2.24401,0.0684 12.4005,1.7558888 12.76561,2.1209988 0.32939,0.32938 0.53048,0.27502 0.53048,-0.14342 z m 3.2094,-0.745039 c 0,-0.8304298 -4.01034,-2.3478798 -8.07622,-3.0559198 -4.73297,-0.82421 -14.06405,-0.30821 -16.68201,0.92252 -1.59528,0.74995 -1.75381,0.90828 -0.69905,0.69817 0.75029,-0.14945 2.50399,-0.49664 3.89713,-0.77151 1.39315,-0.27487 4.90566,-0.50622 7.80558,-0.51411 5.3384,-0.0145 7.82657,0.5323 11.73024,2.5779398 1.73955,0.911589 2.02433,0.931689 2.02433,0.14291 z m 10.2245,-7.35784 c 2.31979,-1.0847 5.24939,-2.20237 6.51023,-2.48371 2.9626,-0.66106 8.12731,-0.90753 10.381,-0.49542 l 1.76887,0.32346 -0.005,-5.78413 c -0.005,-5.71292 -0.83529,-12.4792 -2.75274,-22.427521 -0.50066,-2.59751 -0.91028,-5.40573 -0.91028,-6.24049 0,-1.517719 0,-1.517719 -2.8315,-1.77447 -4.53067,-0.41083 -10.36503,0.40178 -15.14138,2.10893 -4.98851,1.78295 -9.54047,4.5036 -9.52739,5.6944 0.0167,1.51867 1.79552,19.595451 2.49328,25.337031 0.38305,3.1521 0.83173,7.12421 0.99704,8.8269202 l 0.30056,3.09584 2.24968,-2.10432 c 1.36617,-1.27788 3.90615,-2.8788402 6.46749,-4.0764902 z m -6.55661,-3.02153 c 0,-0.55768 4.62061,-2.32402 8.90325,-3.40348 4.91056,-1.23772 11.31348,-1.68277 11.6106,-0.80701 0.13982,0.41218 -0.5075,0.57311 -2.30541,0.57311 -3.53631,0 -9.97798,1.19954 -14.41971,2.68518 -2.08381,0.69699 -3.78873,1.12548 -3.78873,0.9522 z m 0.45848,-2.75146 c 0,-1.75185 11.55025,-5.01005 17.76633,-5.01168 1.7318,-4.5e-4 2.40704,0.17545 2.40704,0.62701 0,0.47448 -1.14679,0.68725 -4.69948,0.87193 -4.79256,0.24913 -10.5411,1.53579 -13.71685,3.07014 -0.96637,0.4669 -1.75704,0.66607 -1.75704,0.4426 z m -1.37546,-4.0345 c 0,-1.17343 5.55859,-2.91571 6.16611,-1.9327 0.17095,0.27659 0.0399,0.57653 -0.29136,0.66654 -0.33118,0.09 -1.42743,0.36966 -2.4361,0.62144 -1.00867,0.25178 -2.19501,0.6114 -2.63629,0.79914 -0.47993,0.20417 -0.80236,0.14212 -0.80236,-0.15442 z m -0.91697,-2.31734 c 0,-0.68731 4.70577,-2.42456 8.92809,-3.29602 4.45137,-0.91875 11.70377,-1.17142 11.70377,-0.40778 0,0.26019 -1.33848,0.45928 -3.09478,0.46032 -4.27309,0.003 -10.97082,1.15342 -14.5476,2.49971 -1.64421,0.61889 -2.98948,0.95357 -2.98948,0.74377 z m 0,-2.306 c 0,-1.76447 8.5174,-4.12338 16.16162,-4.476 3.94927,-0.18218 5.84571,-0.1134 5.84571,0.21189 0,0.29394 -2.27744,0.61034 -5.84571,0.81215 -5.79444,0.32768 -11.72201,1.61584 -14.82912,3.22259 -0.73814,0.38171 -1.3325,0.48402 -1.3325,0.22937 z m -0.66955,-3.83423 c -0.4139,-1.94024 -1.72096,-12.748031 -1.55831,-12.885181 4.50827,-3.80131 8.50529,-5.24933 15.5491,-5.63305 4.02417,-0.21922 5.12176,-0.12956 6.51657,0.53232 1.84231,0.87423 1.83614,0.86183 2.81864,5.65608 0.95653,4.66743 1.37864,8.80333 0.90018,8.81993 -0.22171,0.008 -2.98208,0.0695 -6.13416,0.13757 -6.28698,0.13556 -10.27743,0.955841 -15.01406,3.086301 l -2.86416,1.28826 z m 6.47186,-2.841801 c 1.59799,-0.5133 2.44161,-1.0573 2.60426,-1.67931 0.20456,-0.78222 0.0737,-0.87816 -0.87358,-0.6404 -0.77755,0.19514 -1.11418,0.0881 -1.11418,-0.35431 0,-0.75832 -3.5747,-0.91074 -4.47024,-0.19058 -0.38049,0.30596 -0.57311,0.30676 -0.57311,0.002 0,-0.91173 1.18687,-1.38747 3.2094,-1.28645 1.13475,0.0566 2.37266,0.2211 2.75091,0.36539 0.37826,0.14428 1.04879,0.3788 1.49008,0.52117 0.4413,0.14235 0.80236,0.67794 0.80236,1.19019 0,0.96326 0.66176,1.25673 1.12902,0.5007 0.48177,-0.77945 -0.29678,-4.15411 -0.95838,-4.15411 -0.89781,0 -0.78078,-0.49465 0.48813,-2.06319 1.09716,-1.35621 1.12296,-1.36263 1.84417,-0.45849 0.50539,0.63358 0.69927,0.70442 0.62734,0.22924 -0.12655,-0.836 1.7747,-4.58486 2.32524,-4.58486 0.65747,0 1.52503,2.62023 1.20324,3.6341 -0.21772,0.68598 -0.10163,0.95076 0.41686,0.95076 0.66416,0 0.93396,-0.77736 0.75405,-2.17262 -0.0402,-0.31236 0.16174,-1.00696 0.44892,-1.54357 0.45377,-0.84789 0.60836,-0.88943 1.18049,-0.3173 0.3621,0.36209 0.78589,1.46934 0.94176,2.46054 0.15587,0.9912 0.55134,1.96144 0.87881,2.15609 0.42564,0.25299 0.51682,1.01739 0.31978,2.68111 -0.20494,1.73035 -0.1109,2.43151 0.36665,2.73386 1.52036,0.9626 1.51945,0.81816 -0.046,-7.26502 -0.45858,-2.36782 -0.92945,-4.4008 -1.04639,-4.51773 -0.33997,-0.33998 -5.04803,-1.00452 -6.05723,-0.85497 -0.50562,0.0749 -2.20732,0.26849 -3.78156,0.43015 -5.34643,0.54904 -12.03853,3.49385 -12.03853,5.29743 0,1.141 1.07008,0.75864 2.04624,-0.73117 0.3992,-0.60924 1.09479,-1.10771 1.54576,-1.10771 1.12071,0 2.85246,1.69205 2.54684,2.48847 -0.16287,0.42446 0.1193,0.70009 0.81801,0.79907 0.7806,0.11065 1.06664,0.44823 1.06664,1.25911 0,0.6094 -0.27955,1.20118 -0.62122,1.31508 -0.45484,0.15161 -0.53534,-0.0635 -0.30056,-0.80323 0.28266,-0.89061 0.16614,-0.99994 -0.98348,-0.92265 -1.99923,0.13441 -2.06676,0.0726 -1.26198,-1.15569 0.68849,-1.05078 0.68938,-1.14622 0.01,-1.14622 -0.40728,0 -0.74048,-0.32667 -0.74048,-0.72594 0,-1.08751 -1.12322,-0.50515 -1.29596,0.67193 -0.0866,0.59046 -0.64347,1.20811 -1.32155,1.46591 -1.0691,0.40647 -1.14854,0.61525 -0.90635,2.38235 0.14601,1.06526 0.40661,3.31456 0.57913,4.99846 l 0.31365,3.061631 1.6594,-1.08013 c 0.91268,-0.59407 2.72306,-1.4218 4.02308,-1.839371 z m -0.74569,-10.75087 c -0.8308,-0.5254 -0.61397,-0.76664 1.06862,-1.18894 1.2279,-0.30819 1.2767,-0.26777 0.78528,0.65045 -0.58022,1.08416 -0.86176,1.16594 -1.8539,0.53849 z m 3.44178,0.009 c -0.28842,-0.46668 2.83664,-2.14043 3.24116,-1.73592 0.13453,0.13453 -0.0257,0.67734 -0.35594,1.20623 -0.61276,0.98119 -2.40305,1.30987 -2.88522,0.52969 z m 4.3392,8.05877 c 0,-1.52622 1.6811,-3.50047 2.98069,-3.50047 1.38478,0 2.52114,1.13916 2.52114,2.52735 0,1.30641 0.86207,1.96504 1.4197,1.08465 0.57048,-0.90068 0.50836,-2.69504 -0.0932,-2.69504 -0.27914,0 -0.39043,-0.30514 -0.24731,-0.6781 0.1431,-0.37296 -0.0209,-1.34657 -0.36439,-2.16359 -0.60276,-1.43352 -0.6302,-1.44589 -0.78427,-0.35349 -0.12709,0.90097 -0.46377,1.16131 -1.64975,1.27566 -0.83699,0.0807 -1.49007,-0.0701 -1.49007,-0.34385 0,-0.26816 -0.30949,-0.48754 -0.68774,-0.48754 -0.3937,0 -0.68772,0.41299 -0.68772,0.96603 0,0.64524 -0.21576,0.88322 -0.64979,0.71666 -0.35738,-0.13712 -0.77001,0.0639 -0.91697,0.44694 -0.44121,1.14976 -0.30118,4.28917 0.1913,4.28917 0.25217,0 0.45848,-0.48797 0.45848,-1.08438 z m 4.12638,-0.23495 c 0,-1.31118 -1.20273,-2.14572 -2.06319,-1.43159 -0.37825,0.31393 -0.68772,0.95814 -0.68772,1.43159 0,0.65083 0.33554,0.86084 1.37545,0.86084 1.0399,0 1.37546,-0.21001 1.37546,-0.86084 z m -1.6047,-6.93342 c -0.15585,-0.25216 -0.47751,-0.45848 -0.71479,-0.45848 -0.23729,0 -0.43142,0.20632 -0.43142,0.45848 0,0.25217 0.32165,0.45849 0.71479,0.45849 0.39312,0 0.58727,-0.20632 0.43142,-0.45849 z m -12.38602,39.44094 c 0.59222,-0.95823 6.13091,-3.6653488 9.27308,-4.5323388 1.81823,-0.50169 5.69207,-1.05912 8.60853,-1.23871 5.68112,-0.34985 7.68549,-1.1198602 2.89883,-1.1136302 -4.49081,0.006 -10.73869,0.8428002 -13.47758,1.8054502 -1.36739,0.48059 -3.85057,1.8276 -5.51818,2.99334 -1.66761,1.1657388 -3.16246,1.9846188 -3.32188,1.8197288 -0.43455,-0.4495 3.98376,-4.1903288 6.15425,-5.2105688 3.4902,-1.6405902 7.52128,-2.3939002 13.47035,-2.5172902 3.16841,-0.0657 6.13071,-0.28196 6.58289,-0.48055 1.29252,-0.56771 1.4535,0.0484 0.54122,2.0714802 -0.61888,1.3724 -1.05815,1.81399 -1.65043,1.6591 -0.4439,-0.11604 -3.28642,-0.0263 -6.3167,0.19941 -5.92104,0.44113 -11.10202,1.80026 -14.64798,3.8426388 -2.08037,1.19823 -3.06816,1.46529 -2.5964,0.70194 z M 507.077,-12.54576 c -0.0633,-1.88719 -0.54872,-5.41206 -1.52525,-11.07596 -0.36485,-2.11619 -0.33699,-2.78126 0.12858,-3.06899 1.87535,-1.15903 17.2471,-1.53202 20.22396,-0.49073 1.59364,0.55744 2.3522,1.44727 1.23378,1.44727 -0.26705,0 -0.36931,0.18804 -0.22727,0.41787 0.4292,0.69447 1.68844,13.78786 1.37483,14.2953 -0.17677,0.28602 -0.53081,0.14506 -0.8993,-0.35806 -0.53925,-0.73625 -1.34824,-0.82668 -7.17714,-0.80226 -5.61376,0.0236 -8.44268,0.3433 -12.33964,1.39492 -0.57393,0.15488 -0.74073,-0.21539 -0.79255,-1.75936 z m 4.42387,-0.38215 c 2.35901,-0.59838 2.43889,-0.66995 2.24768,-2.01386 -0.10903,-0.7664 -0.35492,-1.7545 -0.54642,-2.1958 -0.20519,-0.47289 -0.15243,-0.80234 0.12848,-0.80234 0.26216,0 0.60655,0.40932 0.76534,0.90958 0.28568,0.90013 0.30225,0.89956 1.592,-0.054 0.77161,-0.57046 1.53994,-0.81734 1.88331,-0.60512 0.41549,0.25678 0.49287,0.13142 0.27283,-0.44199 -0.16894,-0.44024 -0.30715,-1.40252 -0.30715,-2.1384 0,-0.88365 -0.23353,-1.33797 -0.68774,-1.33797 -0.95022,0 -0.84359,-1.37528 0.21328,-2.75091 0.78039,-1.01576 1.21927,-1.14556 3.85607,-1.14051 2.51038,0.005 3.15969,0.1788 4.15414,1.11303 l 1.17868,1.1073 -0.10489,-1.26676 c -0.0576,-0.69672 -0.4857,-1.47059 -0.9512,-1.71971 -1.47661,-0.79025 -10.53779,-1.02453 -14.98294,-0.38739 -3.71701,0.53278 -4.13689,0.69117 -4.13059,1.55818 0.004,0.5308 0.1751,1.22999 0.38052,1.55375 0.47307,0.74552 1.9049,0.22884 1.9049,-0.6874 0,-0.48288 0.30795,-0.61315 1.03159,-0.4364 0.56737,0.1386 1.43208,-0.0454 1.92158,-0.40878 1.13737,-0.84445 3.7492,-0.86092 4.06972,-0.0257 0.13404,0.34931 -0.0524,1.05788 -0.41435,1.57461 -0.41939,0.59876 -0.48999,1.04338 -0.19466,1.2259 0.814,0.50308 0.4991,1.56322 -0.69712,2.34701 -1.53602,1.00644 -2.02169,0.45164 -0.62375,-0.71256 0.91526,-0.76219 0.96389,-0.9157 0.29419,-0.92843 -1.08691,-0.0207 -1.00947,-0.88189 0.19455,-2.1635 l 0.99689,-1.06115 h -1.36775 c -0.75226,0 -1.76823,0.29924 -2.25772,0.66498 -0.85799,0.64107 -0.86114,0.71657 -0.0876,2.10034 0.88161,1.57716 1.00884,2.27803 0.41349,2.27803 -0.21385,0 -0.75584,-0.81384 -1.20438,-1.80854 -0.711,-1.57671 -0.90041,-1.72362 -1.47783,-1.14621 -0.36427,0.36428 -0.95706,0.66231 -1.31729,0.66231 -0.40024,0 -0.65498,0.46512 -0.65498,1.19592 0,1.04671 0.14301,1.16003 1.14621,0.90824 1.06331,-0.26687 1.14622,-0.16855 1.14622,1.35938 0,1.32122 0.15873,1.6168 0.80235,1.49412 0.44129,-0.0841 0.86827,-0.61503 0.94886,-1.17983 0.19773,-1.38596 0.9997,-1.31111 0.9997,0.0934 0,1.46781 -1.65881,2.67365 -2.8218,2.05124 -0.47114,-0.25215 -0.84608,-0.95362 -0.84608,-1.58289 0,-0.62155 -0.22556,-1.13009 -0.50123,-1.13009 -0.32305,0 -0.41283,0.69274 -0.25254,1.94857 0.13677,1.0717 0.25916,2.64117 0.27198,3.48769 0.0157,1.03256 0.21193,1.46903 0.59641,1.32615 0.31521,-0.11717 1.67377,-0.49218 3.01903,-0.83342 z m 15.95082,-1.40143 c -0.1576,-0.78802 -0.28655,-1.9506 -0.28655,-2.58351 v -1.15073 l -0.96383,1.22531 c -0.68148,0.86636 -1.12496,1.09156 -1.51393,0.76874 -0.30256,-0.2511 -0.96916,-0.34697 -1.4813,-0.21304 -0.89968,0.23527 -0.89112,0.28636 0.2531,1.50985 1.27047,1.35849 2.05875,1.78266 3.4194,1.83995 0.72246,0.0305 0.81392,-0.19249 0.57311,-1.39657 z m -4.87141,0.74557 c 0,-0.65039 -1.89664,-1.10021 -2.95014,-0.69967 -1.43388,0.54516 -1.56756,-0.12092 -0.21448,-1.06872 0.92171,-0.64559 0.92634,-0.69257 0.11115,-1.12886 -0.63959,-0.34229 -1.11831,-0.2385 -1.92952,0.41839 -0.59339,0.4805 -1.46867,0.87363 -1.94506,0.87363 -0.55073,0 -0.86618,0.32299 -0.86618,0.8869 0,0.80618 0.35468,0.88822 3.89712,0.90137 2.14343,0.008 3.89714,-0.0744 3.89714,-0.18304 z m 1.54286,-4.38942 c 0.88527,-0.69635 1.20806,-1.37012 1.20806,-2.52167 0,-1.67832 -0.40036,-1.90183 -1.81931,-1.01568 -1.03618,0.6471 -1.74475,0.19479 -1.03485,-0.66059 0.3482,-0.41957 0.30328,-0.83525 -0.15857,-1.46687 -0.56201,-0.76857 -0.78539,-0.80596 -1.7454,-0.29219 -2.13352,1.14183 -2.78826,4.40422 -1.20219,5.99028 1.18386,1.18385 3.22307,1.16958 4.75226,-0.0333 z m -4.75226,-0.8837 c -0.552,-1.03139 -0.34014,-1.13128 0.94297,-0.44457 0.64987,0.3478 1.24659,0.28423 2.26229,-0.24101 1.48148,-0.7661 1.83466,-0.29347 0.65912,0.88208 -1.03782,1.03782 -3.2644,0.9246 -3.86438,-0.1965 z m 1.15084,-3.20192 c -0.33817,-0.54714 0.091,-1.38294 0.71016,-1.38294 0.55789,0 0.56151,1.24095 0.005,1.58513 -0.23473,0.14508 -0.55639,0.0541 -0.71478,-0.20219 z m -14.53163,-7.90044 c 0.24426,-0.476286 13.096,-1.792504 16.60613,-0.652787 1.8106,0.137616 1.04541,1.029952 -0.0309,0.885757 -5.39487,-0.832532 -14.18443,0.457969 -16.47265,0.513541 -0.49571,-0.255328 -0.25326,-0.452761 -0.10262,-0.746511 z m 0.31971,-2.820221 c 1.47423,-0.56572 8.7418,-1.136557 10.51825,-0.97817 2.51792,0.224497 1.64473,0.983043 0.12481,0.985543 -3.91099,0.0064 -10.09291,0.598018 -10.53421,0.803018 -1.18061,0.482729 -0.80605,-0.528717 -0.10885,-0.810391 z m 3.28233,-3.84374 c -0.11253,-0.18912 -0.20212,-0.90009 -0.199,-1.57993 0.005,-0.97736 0.25757,-1.27661 1.20921,-1.4298 0.66193,-0.10651 0.42983,-0.13734 -0.5158,-0.0684 -2.05385,0.14974 -2.1795,-0.40313 -0.49191,-2.16458 1.79663,-1.87529 0.97043,-2.09502 -1.01969,-0.2712 -1.5723,1.4409 -1.65228,1.63491 -1.06826,2.59129 0.56912,0.93197 0.52469,1.12115 -0.45109,1.9209 -1.14915,0.94182 -3.4874,1.19485 -3.96096,0.42862 -0.15585,-0.25217 0.0248,-0.45848 0.40158,-0.45848 0.37672,0 1.24777,-0.214 1.93567,-0.47553 0.93345,-0.3549 1.11863,-0.60761 0.73001,-0.99623 -0.37625,-0.37625 -0.81852,-0.38502 -1.5941,-0.0316 -1.45799,0.6643 -2.6212,-0.0545 -2.61235,-1.61416 0.009,-1.45817 0.35545,-2.05549 1.58584,-2.72844 1.06587,-0.58296 2.53351,0.0242 2.53351,1.04803 0,0.93908 0.20049,0.85906 1.7634,-0.70386 2.23556,-2.23555 5.71325,-1.5685 3.95076,0.75779 -0.89299,1.17864 -0.83346,1.39442 0.47539,1.72291 1.15718,0.29043 1.54001,1.34819 0.68026,1.87953 -0.25628,0.1584 -0.34168,0.48909 -0.18977,0.73488 0.43194,0.69891 -0.71991,1.78218 -1.89503,1.78218 -0.58465,0 -1.1551,-0.15474 -1.26767,-0.34387 z m -4.43431,-4.92872 c 0,-1.31119 -0.53412,-1.47225 -1.40445,-0.42354 -0.49706,0.59891 -0.48705,0.79399 0.0585,1.13919 1.0507,0.66485 1.34598,0.50785 1.34598,-0.71565 z m 9.74283,4.94902 c -0.97909,-0.18858 -1.50768,-1.51038 -0.60402,-1.51038 0.23519,0 0.55863,-0.41286 0.71879,-0.91745 0.72845,-2.29514 4.27801,-2.03856 3.69924,0.2674 -0.36632,1.45955 0.35296,1.40946 1.54633,-0.10764 0.52617,-0.66893 1.09001,-1.08287 1.25299,-0.91989 0.16297,0.16297 0.58443,-0.11504 0.93656,-0.61773 0.89332,-1.27541 1.96368,-1.16362 1.96368,0.20509 0,0.61553 -0.21633,1.25287 -0.48075,1.41627 -0.32768,0.20252 -0.30687,0.50662 0.0653,0.95511 0.82995,1.00004 0.2652,1.17783 -1.28494,0.40451 -1.27648,-0.63678 -1.55568,-0.61894 -3.39845,0.21719 -2.01025,0.91212 -2.4904,0.97819 -4.41477,0.60755 z m 2.40704,-2.42734 c 0.15585,-0.25218 0.0771,-0.45849 -0.17512,-0.45849 -0.25218,0 -0.586,0.20631 -0.74185,0.45849 -0.15584,0.25216 -0.0771,0.45847 0.17513,0.45847 0.25216,0 0.58599,-0.20631 0.74184,-0.45847 z" fill="#00B894" transform="translate(92.056223,-148.00941) matrix(2.8752456,0,0,2.8752456,-1512.4161,299.41914)"/>
</svg>