<?xml version="1.0" ?><svg height="310.86841mm" viewBox="0 0 208.33052 310.86841" width="208.33052mm" xmlns="http://www.w3.org/2000/svg">
    <path d="m 287.29639,-160.46972 c -0.70997,-1.40669 -2.28749,2.55963 -2.3327,3.83753 -0.74152,0.0187 -2.93893,0.71117 -2.93893,0.71117 0.21983,2.57419 0.73833,4.85563 -0.8538,5.31834 -1.4836,0.70302 -3.49438,0.57882 -2.68978,4.87671 -0.58711,1.35979 -1.90262,2.4401 -0.69557,4.48706 0.26567,3.38999 0.52367,3.10813 1.41439,3.98425 0,0 0.10879,2.84991 3.32436,1.79886 0.13816,-0.0452 0.28019,-0.0958 0.42375,-0.14935 1.855,2.55299 4.73639,3.99127 7.73338,3.86024 5.11561,-0.22352 9.06362,-4.86978 8.81806,-10.37767 -0.0706,-1.58265 -0.49009,-3.12727 -1.2237,-4.50618 0.74655,-1.46455 0.84804,-2.93062 -1.23661,-3.53519 -0.97282,-1.80948 -1.3269,-3.01827 -4.94965,-3.38808 -0.24664,0.0465 0.38264,-3.58185 -10e-4,-4.40521 -0.38388,-0.82337 -1.7809,1.1583 -1.97178,0.92559 z m 4.80773,30.97013 c -0.67325,-0.0108 -1.38292,0.0177 -2.12957,0.093 -7.96433,0.80391 -7.98682,3.79646 -8.13697,5.50561 -0.15013,1.70915 0.91932,14.46785 0.91932,14.46785 0,0 -8.96517,6.89073 -12.39563,12.612664 -3.43042,5.72194 -2.4861,12.33648 -2.65874,17.578773 -0.17267,5.242296 2.34971,21.651391 2.34971,21.651391 0,0 1.881,1.352074 3.98169,1.922362 2.10066,0.570286 13.92203,2.034643 25.44442,0.987536 11.52239,-1.047107 19.80036,-5.280297 19.80036,-5.280297 0,0 -1.00637,-6.924773 -1.61438,-10.336318 -0.60804,-3.411543 -4.77039,-25.396558 -8.32094,-31.307651 -3.55054,-5.91109 -6.87038,-7.71064 -6.87038,-7.71064 0,0 0.12766,-14.45007 -0.33022,-15.41611 -0.41495,-0.87548 -3.53039,-4.66392 -10.03867,-4.76819 z" fill="#FFFFFF" transform="translate(76.259219,76.898607) matrix(2.8752456,0,0,2.8752456,-815.88325,388.19509)"/>
    <path d="m 1230.7188,-611.35938 c -1.6858,-0.20296 -3.394,3.00389 -4.5997,8.98243 -0.8902,4.41554 -2.3832,9.73366 -3.3183,11.8164 -1.5915,3.54475 -1.6556,3.28928 -0.9981,-3.98242 0.8164,-9.02778 -0.1943,-14.32226 -2.7343,-14.32226 -1.1839,0 -2.0642,2.03514 -2.5938,5.99609 -3.2185,24.07563 -4.5582,26.44102 -8.1953,14.4668 -2.6878,-8.8489 -5.4166,-11.62366 -7.1055,-7.22266 -1.1438,2.98106 3.2037,20.34781 5.9766,23.87305 3.9359,5.00368 3.3528,16.77574 -2.0332,41.04492 -2.5296,11.398 -5.6898,23.61022 -7.0234,27.13867 -4.2895,11.3483 -15.0299,22.41706 -25.0254,25.79297 -6.5504,2.21231 -12.6698,1.75667 -22.8477,-1.70508 -5.103,-1.7356 -10.3746,-3.15625 -11.7148,-3.15625 -1.3403,0 -4.0717,-1.37494 -6.0704,-3.05664 -1.9985,-1.6817 -6.9093,-4.29882 -10.9121,-5.81445 -6.1661,-2.33473 -8.8469,-2.6384 -17.5468,-1.99414 -11.1086,0.82265 -24.1433,4.35482 -33.4649,9.07031 -5.8702,2.96954 -9.5486,7.52828 -13.9922,17.33789 -4.6547,10.27601 -17.0596,27.13967 -31.6367,43.00586 -16.1859,17.61736 -28.40092,33.18754 -31.04882,39.58008 -0.90103,2.17538 -3.17483,4.54544 -5.14453,5.36133 -7.5253,3.11708 -16.44922,17.09377 -16.44922,25.76171 0,5.0883 0.65394,5.49079 4.00196,2.46094 2.21575,-2.00503 2.30859,-1.73288 2.30859,6.78711 0,6.35072 0.538,9.32501 1.89258,10.44922 2.74908,2.28148 5.67471,-0.55225 5.70117,-5.51953 0.0302,-6.31759 1.85051,-7.94402 3.75195,-3.35352 2.99018,7.21903 10.24032,7.81371 8.14258,0.66797 -0.40762,-1.38856 -1.05761,-5.25354 -1.44531,-8.58984 l -0.70508,-6.06641 3.85742,3.85742 c 2.12141,2.1214 5.00671,3.85547 6.41211,3.85547 2.4264,0 2.3544,-0.42572 -1.3984,-8.44531 -2.2286,-4.7624 -4.1896,-11.30585 -4.4961,-15.00391 -0.50187,-6.05141 -0.1243,-7.17796 4.873,-14.58984 2.9788,-4.41797 10.6945,-13.60877 17.1465,-20.42383 6.4521,-6.81502 17.8508,-20.06956 25.3301,-29.45508 l 13.5976,-17.06445 c 3.7599,7.30902 4.4066,16.63084 4.8127,23.81751 l -1.3361,16.39538 -9.3027,6.13672 c -23.2095,15.31351 -38.0707,35.27344 -44.5996,59.89648 -4.7292,17.83522 -4.0354,54.18566 1.8984,99.44336 1.2998,9.91528 2.0436,18.86163 1.6523,19.88086 -0.3911,1.01923 -0.083,1.85352 0.6856,1.85352 0.7685,0 1.4106,0.99411 1.4258,2.20898 0.8808,13.86373 6.0652,9.13804 11.332,11.63282 0,0.66978 1.0884,1.80018 2.418,2.51171 2.3327,1.24845 28.2616,5.7725 38.6074,6.73633 16.3162,1.51991 61.4602,-0.14302 82.0469,-3.02148 27.2228,-3.80633 65.7806,-17.18194 60.5078,-20.99024 -0.7392,-0.53385 -2.0281,-7.67782 -2.8653,-15.875 -2.8156,-27.57383 -12.8334,-79.75999 -20.5214,-106.90625 -6.6938,-23.63511 -17.4269,-42.93131 -32.4219,-58.28515 l -8.2285,-8.42383 1.1054,-6.72266 c 0.3201,-17.20581 0.2841,-36.0416 -3.9765,-50.27148 0.2199,0 3.1575,1.22029 6.5273,2.71094 8.2015,3.62766 20.4688,3.67497 28.5254,0.11132 11.496,-5.0852 22.5048,-17.64651 27.3613,-31.22265 3.986,-11.14239 10.2559,-43.91835 10.2559,-53.61133 v -8.4082 l 7.2598,-3.00586 c 8.0947,-3.35218 18.1799,-12.02842 20.5039,-17.63867 2.754,-6.6491 0.7627,-7.07499 -5.6348,-1.20508 -3.3611,3.08387 -5.8535,5.03996 -5.5391,4.3457 0.3149,-0.69426 2.2113,-4.66296 4.2129,-8.81836 4.2161,-8.75255 5.0192,-17.36857 1.6836,-18.04492 -1.306,-0.26495 -2.8704,0.93984 -4.0508,3.11719 l -1.9238,3.54882 -0.07,-3.15624 c -0.038,-1.73568 -0.5721,-3.94898 -1.1855,-4.91797 -0.5378,-0.84904 -1.0965,-1.29556 -1.6582,-1.36329 z m -148.1036,2.38086 c -0.6939,-0.0208 -1.3458,0.11017 -1.9394,0.4043 v 0.002 c -1.2255,0.6101 -2.9976,4.15124 -3.9375,7.87305 -1.6114,6.37965 -1.9529,6.79506 -5.9571,7.19531 -4.795,0.47936 -9.0101,2.95008 -9.1367,6.68164 0.5733,3.54104 -1.466,7.52871 2.2793,11.22071 0.3847,0.25215 0.7429,0.46579 1.0782,0.64648 -0.2584,0.28639 -0.4687,0.53732 -0.5059,0.64258 -0.057,0.16101 -0.1614,0.2931 -0.2344,0.29688 -0.073,0.003 -0.6085,0.46205 -1.1894,1.01953 -1.5193,1.45942 -1.7148,1.57196 -2.8672,1.65625 -18.2099,-0.30758 -13.9307,13.90365 -11.406,23.75586 -1.4175,2.05474 -1.9683,4.61878 -2.4394,7.15039 -0.4968,2.33094 1.4384,4.4311 0.9433,6.23828 -0.5114,0.57158 -1.2413,2.02498 -1.3476,2.6875 -0.083,0.51689 -0.1772,2.66846 -0.1387,3.29492 0.1002,1.76009 0.7409,3.13822 2.3672,5.08789 0.3299,0.39485 0.7172,0.90784 0.8613,1.14062 1.1456,1.3163 2.4844,2.55075 3.9239,3.22657 1.849,2.42472 2.8815,15.27135 14.1933,9.58203 1.1693,-0.18217 1.2876,0.51377 1.9668,1.45703 9.7605,10.01938 27.6607,18.23924 46.8867,8.98828 10.2873,-5.47589 14.9181,-16.09831 17.3653,-22.63281 0.1232,-0.52241 0.3125,-1.02049 0.4179,-1.10742 1.36,-0.78357 4.0799,0.7029 5.6289,-1.19922 1.1353,-0.95819 0.9721,-2.86641 0.051,-3.75196 -1.0331,-0.99212 -2.2624,-0.94896 -3.8965,-1.29101 -0.3791,-0.034 -0.4113,-0.10355 -0.4726,-0.99805 -0.038,-0.5277 -0.093,-1.03041 -0.125,-1.11718 -0.4342,-3.08644 -0.5124,-6.07423 -1.3614,-9.16407 -0.023,-0.39598 -0.1297,-1.00534 -0.2363,-1.35351 -0.1073,-0.3481 -0.2418,-0.88324 -0.3008,-1.18946 -0.5766,-2.73619 -2.5748,-7.80287 -3.5,-9.69922 -0.4894,-0.86139 6.1382,-7.05569 1.5801,-11.72851 -3.3433,-3.33177 -6.0632,-2.20945 -9.0098,-9.39063 -1.5881,-3.94665 -7.5711,-6.64331 -15.5546,-9.0957 -0.2505,-0.0952 -0.5057,-0.15233 -0.7618,-0.20508 0.6406,-0.97523 0.9463,-2.22482 0.67,-3.79297 -0.3073,-1.74376 0.096,-8.79543 -1.4805,-11.97265 -1.1333,-2.28371 -1.7012,-2.26597 -4.9297,0.16797 l -3.6465,2.75195 -3.6113,-5.36328 c -3.41,-5.06632 -7.2197,-8.02507 -10.2266,-8.11524 z m 0.17,3.85547 c 1.2977,-0.0598 7.2205,6.45831 8.9492,9.91993 2.2005,4.40114 4.4993,5.70265 7.4746,4.22656 3.2965,-1.63552 3.3547,-1.57872 3.5195,3.41211 0.093,2.81265 -0.6842,4.05019 -3.1172,4.96484 -0.9936,0.42878 -1.642,0.82461 -2.0195,1.17773 -0.1143,-0.0921 -0.2202,-0.17183 -0.3633,-0.29882 -1.4962,-1.31792 -2.8981,-1.78938 -4.2969,-1.78711 v 0 c -0.1999,3.4e-4 -0.3997,0.008 -0.5996,0.0273 -4.1985,0.38861 -6.149,2.67902 -8.877,5.2793 -0.3186,0.34469 -0.3469,0.34799 -0.8144,0.10156 -3.6046,-1.68047 -9.1566,-1.47908 -13.2891,0.16797 -0.075,-2.13056 -0.6638,-4.69165 -0.9785,-6.32813 -0.7244,-3.48812 1.3549,-4.95537 5.1894,-3.66406 4.4566,1.50089 6.0067,-0.39701 7.1661,-8.76367 0.6088,-4.39366 1.4861,-8.17765 1.9472,-8.4082 0.032,-0.0159 0.07,-0.0254 0.1114,-0.0274 z m 8.3554,26.26953 c 0.9417,-0.0537 1.9118,0.77696 2.6543,1.36524 0.3911,0.53711 1.1293,0.56961 2.3516,0.10351 1.7476,-0.67249 2.9321,-1.43988 5.1484,-1.07421 4.9471,0.14929 11.2789,3.34405 15.9102,6.42187 1.1338,1.5611 2.1785,0.80588 1.1894,3.03516 -0.4,0.3829 -0.6471,1.13973 -0.5918,1.82031 0.07,0.86963 -0.124,0.99073 -0.6386,0.39844 -0.7335,-0.82519 -2.9823,-1.31355 -3.793,-2.16016 -3.5245,-2.10497 -7.6742,-3.63006 -12.1074,-5.23047 -0.7742,-0.32504 -1.255,-0.43519 -1.5547,-0.35937 -0.2385,0.0605 -0.8634,0.0264 -1.3887,-0.0723 -1.1336,-0.21468 -1.7139,-0.0711 -2.6367,0.6543 -0.5397,0.42387 -0.649,0.61738 -0.7168,1.25586 -0.058,0.54614 -0.011,0.867 0.1816,1.16211 0.2083,0.32466 0.551,1.90531 0.6016,2.79882 0.034,0.55004 -0.1785,1.79829 -0.3281,1.93946 -0.098,0.0926 -0.3024,0.48426 -0.4551,0.87109 -1.73,3.44028 -8.189,-0.13269 -12.291,0.16211 -3.9051,0.48231 -2.8949,2.40438 -4.1504,4.95703 -0.8238,0.76914 -0.8621,0.80179 -1.0176,0.8086 -0.082,0.004 -0.3553,0.12276 -0.6035,0.26562 -0.7995,0.45827 -2.104,0.30097 -2.9688,-0.35742 -2.0703,-1.24641 -5.1899,-0.69419 -6.2011,1.31641 -0.3587,0.71334 0.058,1.44879 0.5918,2.46484 0.8357,1.59141 1.0307,2.34907 1.1035,4.30078 0.03,0.78603 -0.042,1.60557 -0.1758,2.02344 -0.124,0.38634 -0.2742,0.92857 -0.332,1.20508 -0.1425,0.67445 -0.954,2.42251 -1.5274,3.29101 -0.9868,1.43789 -3.2397,0.26154 -3.9043,2.30078 -3.1166,5.76049 2.4662,5.95753 1.4375,10.44727 0.019,1.97257 -1.4532,2.41944 -2.8945,2.13476 -3.2915,-0.48434 -5.4098,2.18526 -4.4258,5.02149 0.5957,1.97408 2.7727,3.32297 3.2481,4.94141 0.4381,1.07183 1.1263,2.35246 1.3222,2.46093 0.237,0.13115 1.1363,1.91827 1.502,2.98633 0.1833,0.53322 0.5054,1.06642 0.8027,1.33008 0.2737,0.24227 0.4979,0.48029 0.5,0.52734 -1.2927,0.24832 -2.5726,0.12172 -3.666,-0.45508 -0.8691,-0.23092 -1.7281,-2.99812 -1.5566,-5.01367 0.045,-1.71953 -1.3459,-3.06128 -2.8028,-4.04101 -2.2068,0.0382 -4.2104,-1.99416 -5.2558,-3.74805 -0.8917,-2.37865 -0.9968,-3.92444 0.7656,-4.88281 2.0034,-1.08983 3.1706,-1.51137 2.6211,-3.94532 -0.5316,-1.64318 -2.0237,-2.17026 -2.9024,-3.33398 -1.8991,-2.54589 1.4911,-6.21574 3.6231,-7.94922 0.1338,-0.11981 0.3406,-0.47971 0.4609,-0.80078 0.3933,-1.04901 -0.198,-3.12081 -1.1797,-4.13281 -0.2056,-0.21166 -0.5519,-0.70045 -0.7714,-1.08789 -0.2196,-0.3874 -0.4837,-0.84573 -0.5879,-1.01758 -0.2865,-0.47376 -0.5057,-1.98792 -0.6446,-4.38281 -0.09,-2.01959 0.9154,-7.26626 3.9414,-7.72657 1.4301,-0.0945 2.1386,-0.0393 2.7012,0.20899 1.448,0.62173 3.2108,0.90825 4.7012,0.35156 3.9132,-1.41902 2.8217,-9.68598 8.6015,-9.16992 3.145,-0.42966 5.6383,0.26155 8.9122,1.42383 3.1096,1.29853 4.158,-2.58782 6.5273,-4.20508 1.3228,-1.08234 1.9565,-1.49721 2.4121,-1.57813 0.092,-0.0151 0.1773,-0.0217 0.2578,-0.0293 z m 10.1465,8.93555 c 0.3432,-0.0302 0.8712,0.17915 1.5391,0.61524 0.3944,0.25738 0.8323,0.46326 0.9746,0.45703 0.1421,-0.008 0.4832,0.12383 0.7578,0.28711 7.6059,3.7603 12.8576,7.99902 17.7441,14.63867 1.1408,2.59068 5.6287,8.70874 5.9981,14.41015 0.4489,2.98383 1.5556,6.72476 1.4297,10.23829 0,0.22148 -0.1261,0.42216 -0.3321,0.50781 -0.3628,0.15118 -1.2187,0.15295 -2.1015,0.0312 l -6.5,0.47265 c -1.7125,0.14665 -2.0857,3.64598 -0.3848,4.54297 0.914,0.64373 1.7512,0.76309 7.1777,0.44727 0.6765,0.0518 0.7698,0.10658 0.834,0.48242 -7.1088,24.71021 -37.3424,26.07035 -50.8515,14.8125 -5.2258,-4.0518 -8.9784,-10.20448 -11.3692,-16.01758 -0.4024,-0.67733 -0.2328,-1.57274 0.4434,-2.34179 2.1266,-2.34879 3.7955,-5.97171 3.1875,-9.09375 -0.7275,-1.36362 -0.7168,-3.03787 -0.9902,-4.48633 -0.1599,-0.67949 -0.1455,-0.72459 0.539,-1.54297 0.3878,-0.46345 0.886,-0.89787 1.1055,-0.96485 2.3125,-0.77038 3.4185,-6.8197 3.4883,-9.07812 0,-0.30841 -0.061,-0.82767 -0.127,-1.1543 -0.1481,-0.72933 0.069,-2.02442 0.4063,-2.42773 0.209,-0.24983 0.4033,-0.28805 1.1914,-0.23438 5.5793,1.272 6.13,-2.64614 7.4941,-3.96875 1.2006,-1.36161 1.5927,-1.56203 2.9102,-1.48632 0.5833,0.034 1.1444,0.12407 1.248,0.20117 0.1028,0.0775 0.7296,0.16388 1.3926,0.19336 5.4998,0.11187 11.8923,-1.86408 12.1348,-7.69922 0.071,-0.75961 0.2115,-1.50222 0.3125,-1.65235 0.075,-0.11187 0.1919,-0.17465 0.3476,-0.1875 z m 20.5469,4.66797 v 0 c 0.1047,-0.002 0.2202,0.007 0.3437,0.0332 1.6518,0.319 4.813,2.79609 4.8789,4.42578 0.095,0.39523 3e-4,3.33194 -0.125,3.74024 -0.1198,0.40479 -0.4681,0.10317 -1.5351,-1.32617 -1.1633,-1.55297 -2.4195,-2.88451 -3.5664,-4.43555 -0.9543,-1.75979 -0.7308,-2.42631 0,-2.4375 z m -9.75,5.01758 c -0.4685,4e-5 -0.9529,0.0105 -1.4414,0.0332 -3.4214,0.1508 -7.087,0.79583 -7.418,1.36914 -0.095,0.16517 -0.068,0.46703 0.076,0.87696 l 0.2187,0.62304 1.1817,0.12696 c 0.6491,0.0695 1.545,0.15386 1.9922,0.1875 2.173,0.16327 4.1059,0.49213 5.1464,0.875 0.1384,0.051 0.3197,0.0189 0.4024,-0.0703 0.082,-0.0892 0.4123,-0.19929 0.7324,-0.24804 0.7079,-0.10885 1.1942,-0.46212 1.5684,-1.13672 0.4523,-0.8151 0.3377,-1.46874 -0.3418,-1.95899 -0.7389,-0.53276 -1.182,-0.67521 -2.1172,-0.67578 z m 3.0058,5.91211 c -0.3635,-0.004 -0.8135,0.019 -1.3886,0.0605 -2.4707,0.17197 -4.2966,0.2437 -5.5664,0.21875 -0.072,-0.002 -0.1455,0.002 -0.2188,0.002 -1.0969,0.034 -2.3233,0.48099 -2.8535,1.05468 -0.2094,0.2264 -0.438,0.72732 -0.5078,1.11329 -0.1436,0.79555 -0.1077,0.83321 1.2207,1.24023 0.6705,0.20561 0.8713,0.2005 1.8398,-0.041 2.1371,-0.52452 4.8684,0.50015 6.7344,0.47071 0.1194,-0.0824 0.4874,-0.12714 0.8203,-0.0977 0.831,0.0737 1.6361,-0.51815 2.0508,-1.50586 l 0.3164,-0.75195 -0.4414,-0.62891 c -0.6007,-0.8567 -0.9153,-1.12278 -2.0059,-1.13476 z m -9.2031,7.76172 c -0.1602,0.002 -0.3394,0.0188 -0.539,0.0566 -1.2496,0.0578 -2.8298,0.68159 -3.293,2.42187 -0.064,1.44726 -0.2914,3.09126 -0.6914,4.5293 -0.3776,0.66274 0.5733,2.32919 1.6113,2.82226 1.4253,0.63829 3.1019,-0.49988 4.1211,-1.48437 1.4335,-1.21705 2.3042,-5.52647 0.9922,-6.91016 -0.6993,-0.56061 -0.9927,-1.22106 -1.7695,-1.39257 v -0.002 c -0.1297,-0.0302 -0.2714,-0.0425 -0.4317,-0.041 z m 13.0235,0.48437 c -1.3093,0.0601 -2.7173,1.15485 -3.4747,2.12305 -0.011,0.10053 0,0.24226 0.024,0.31445 -0.059,3.06127 0.3931,7.48305 4.3496,7.64258 1.02,-0.0227 3.6367,-1.84638 3.2031,-3.39844 -0.2585,-1.79433 -0.6334,-5.15923 -2.5488,-6.11719 -0.3884,-0.36283 -0.8294,-0.53298 -1.2891,-0.5625 -0.086,-0.008 -0.1724,-0.008 -0.2597,-0.002 z m -31.4239,2.49219 v 0.002 c -2.0558,0.0151 -4.4883,0.24302 -5.4023,0.58594 -0.8167,0.61599 -1.0271,1.77444 -0.4063,2.24023 1.1751,0.91299 2.9538,1.03234 4.8789,0.97852 0.6883,0.004 1.0273,0.33978 0.4024,0.39844 -0.2068,0.0189 -0.441,0.027 -0.5195,0.0156 -0.078,-0.0113 -0.2586,0.0937 -0.4004,0.23242 -1.074,1.0119 -2.8269,0.82605 -3.1309,2.77149 0.026,0.59758 0.3564,1.1152 0.8555,1.34375 0.5331,0.24416 1.9122,0.22374 2.6699,-0.0352 1.3521,-0.44326 2.7934,-0.0745 3.7676,-1.2832 0,-0.0729 0.1735,-0.36737 0.3945,-0.65235 0.5503,-0.70862 0.3992,-1.67644 -0.3516,-2.24609 -0.283,-0.21468 -0.5152,-0.43256 -0.5175,-0.48437 0,-0.0518 0.2645,-0.15041 0.5957,-0.22071 0.604,-0.1353 0.918,-0.73425 1.1953,-1.35156 0.494,-0.91355 -0.096,-1.82187 -1.3828,-2.12695 -0.4354,-0.0892 -1.0693,-0.14202 -1.7969,-0.16016 -0.2729,-0.008 -0.5579,-0.008 -0.8516,-0.008 z m 21.7793,8.00195 c -0.6267,-0.0151 -2.2474,0.95267 -2.7949,1.66602 -0.2305,0.30009 -0.8008,0.82215 -1.2695,1.16015 -0.6748,0.48783 -1.0629,0.64291 -1.8789,0.75391 -1.8147,0.2468 -3.8606,-0.0854 -5.5411,-0.90039 -0.8508,-0.4125 -2.1492,-0.0877 -2.3085,0.57617 -0.045,0.18709 -0.1082,0.45848 -0.1426,0.60547 -0.07,0.3035 1.1376,1.64548 1.7461,1.93945 1.8294,0.88369 3.7083,1.34572 5.7265,1.30664 1.6704,-0.0608 1.8844,-0.10396 2.9395,-0.61132 1.7472,-0.85444 3.6382,-2.20852 5.1543,-3.73829 0.4981,-0.57316 0.6472,-0.87386 0.6289,-1.28515 -0.064,-0.89571 -1.3779,-1.32768 -2.2578,-1.47266 z m 17.9356,0.10156 c -0.135,0.004 -0.28,0.019 -0.4356,0.0508 -0.899,0.0401 -1.8639,0.27326 -2.0859,0.57226 -0.4193,0.56591 -1.0061,0.70033 -3.8359,0.88477 -2.0228,0.1319 -2.335,0.27479 -2.3008,1.04101 0.038,0.83524 0.382,1.78822 0.791,2.18946 0.2933,0.28762 0.7284,0.53524 1.1289,0.66601 2.6965,-0.0265 4.6626,0.32995 6.5801,-1.55078 0.1141,-0.14929 0.5081,-0.41462 0.875,-0.58984 1.032,-0.53602 1.2777,-2.96336 -0.3418,-3.23828 v -0.002 c -0.1157,-0.0189 -0.2405,-0.0272 -0.375,-0.0234 z m -35.4766,16.49219 c -1.6243,-0.0189 -1.9323,1.42817 -2.4961,2.11328 -0.3364,1.52712 0.8062,2.36802 2.752,3.40625 5.6098,2.82811 12.5668,4.92869 18.7402,0.44727 1.0111,-0.94273 1.6257,-3.37908 -0.9219,-3.70703 -2.1016,-0.0643 -4.4092,2.15694 -7.0058,1.73828 -3.7687,-0.12284 -5.591,-1.78579 -8.9473,-3.4043 -0.8918,-0.41631 -1.5796,-0.58683 -2.1211,-0.59375 z m 13.8477,32.625 v 0 c 4.2545,0.003 7.8769,0.45169 10.4414,1.34571 3.7133,1.29445 3.8795,1.58201 2.0801,3.57031 -3.9225,4.33432 -1.3378,10.04299 3.6758,8.11914 2.2376,-0.85863 3.7022,-4.9576 2.4785,-6.9375 -0.5382,-0.86884 -0.2116,-1.21182 0.8281,-0.86524 2.3377,0.77927 4.215,10.00683 2.2793,11.20313 -0.802,0.49572 -3.1672,0.41152 -5.2558,-0.1875 -4.2502,-1.2189 -5.9629,-0.62651 -5.9629,2.0664 0,2.14806 -1.752,2.32045 -5.1426,0.50586 -2.0575,-1.10116 -2.6514,-0.79452 -3.6738,1.89454 -0.6706,1.76356 -1.4509,3.20507 -1.7344,3.20507 -0.7661,0 -2.0338,-5.2665 -2.0527,-8.52929 -0.015,-2.49566 0.2838,-2.664 2.4043,-1.33985 3.1129,1.94412 6.7077,-0.69651 6.1582,-4.52343 -0.4947,-3.44523 -4.7941,-4.18912 -6.9747,-1.20704 -0.9434,1.29045 -2.392,2.34571 -3.2207,2.34571 -0.8285,0 -2.6655,2.44778 -4.082,5.4375 -2.5259,5.3311 -4.4023,5.88202 -4.4023,1.29492 0,-2.1394 -3.7517,-3.48414 -3.8145,-1.36719 -0.015,0.52067 -1.1609,2.36788 -2.5469,4.10352 l -2.5214,3.15429 0.8183,-6.62695 c 0.9676,-7.84679 -0.06,-8.2811 -6.4062,-2.70898 -5.7069,5.01025 -5.7211,2.55312 -0.029,-5.19922 4.1485,-5.65138 4.9423,-6.12731 12.4101,-7.42774 5.1005,-0.88809 9.9891,-1.32929 14.2442,-1.32617 z m -10.877,4.53321 v 0.002 c -0.3666,3e-4 -0.7726,0.0105 -1.2207,0.0332 -5.7528,0.28271 -8.4736,3.70382 -5.5312,6.95508 2.5533,2.82164 4.086,2.87642 7.791,0.28125 1.8031,-1.26289 2.7309,-3.02903 2.4883,-4.73242 -0.2786,-1.95523 -0.9598,-2.54118 -3.5274,-2.53906 z m -20.0781,0.56835 c 1.0759,-0.11905 0.459,2.02206 -1.9649,5.59375 -3.7008,5.45348 -4.0439,8.44267 -1.2402,10.76954 1.6416,1.3624 2.635,1.24981 5.875,-0.66407 l 3.9004,-2.30273 -0.7617,2.91601 c -0.8203,3.13656 0.9226,7.55665 2.9804,7.55665 0.6934,-4e-5 2.48,-2.06453 3.9688,-4.5879 2.5347,-4.29603 2.7698,-4.41755 3.7031,-1.89453 1.169,3.16018 5.1178,3.54011 7.461,0.7168 2.7018,-3.2555 4.8822,2.50363 4.9336,13.0332 0.043,8.78 -0.06,9.09952 -2.4239,7.62305 -2.962,-1.84989 -4.7987,-0.52176 -2.7285,1.97266 1.1497,1.38538 1.0504,1.93744 -0.4512,2.51367 -2.7772,1.06575 -2.3705,3.34375 0.5977,3.34375 2.8884,0 3.0362,0.47503 1.2051,3.89648 -1.9475,3.63886 -0.1844,5.54821 2.707,2.93164 2.3361,-2.1143 2.4004,-1.93306 2.4004,6.86133 v 9.03125 h -5.1973 c -4.5946,0 -5.1178,-0.29481 -4.5273,-2.55273 0.5223,-1.99729 -0.2718,-2.94595 -3.6406,-4.35352 -2.3692,-0.98986 -4.3067,-2.13668 -4.3067,-2.54687 0,-0.41023 1.1349,-2.97165 2.5235,-5.69336 3.142,-6.15897 3.163,-5.89675 -0.6387,-7.88868 l -3.1621,-1.65624 3.7422,-4.38086 c 4.6082,-5.39158 4.7633,-7.25487 0.6894,-8.27735 -4.0375,-1.01337 -3.9789,-1.44301 0.8789,-6.45508 3.6959,-3.81324 3.8102,-4.16211 1.3594,-4.16211 -3.894,0 -10.4414,5.96891 -10.4414,9.51758 0,1.63941 0.9573,3.51527 2.1269,4.16992 1.9944,1.1161 1.9944,1.39378 0,4.4375 -2.8979,4.42288 -2.726,8.46277 0.3965,9.2793 2.9665,0.77579 3.0199,1.23699 0.6309,5.41602 -3.0332,5.30592 -2.3847,8.86864 1.9062,10.48828 2.0891,0.78852 3.6055,2.01723 3.3711,2.73047 -0.5781,1.76016 -4.0635,1.87995 -11.5879,0.39648 l -6.3125,-1.24414 -0.1406,-13.44531 c -0.078,-7.39393 -1.0631,-19.79935 -2.1914,-27.56836 -2.2289,-15.34745 -1.8261,-20.55079 1.8535,-23.88086 1.178,-1.06609 2.0168,-1.58658 2.5059,-1.64063 z m 60.2793,8.08985 2.8906,6.31054 c 2.4054,5.25223 2.9684,8.95935 3.3496,22.08985 0.5548,19.1037 -0.3243,21.99646 -7.6269,25.09961 -4.835,2.05462 -5.5236,2.08695 -6.8145,0.32422 -1.0993,-1.50112 -0.9908,-2.64168 0.4649,-4.86328 1.5573,-2.37702 1.6274,-3.56618 0.3847,-6.56641 -1.2733,-3.074 -1.167,-4.19768 0.6602,-6.98633 1.7535,-2.67628 1.9025,-3.92814 0.7637,-6.42773 -0.7779,-1.70725 -2.3401,-3.10352 -3.4708,-3.10352 -1.4813,0 -1.7863,-0.61712 -1.0957,-2.20898 0.5274,-1.21493 1.2104,-3.99953 1.5196,-6.1875 0.4523,-3.19986 0.047,-4.14125 -2.0742,-4.81446 -3.9569,-1.25578 -6.0989,0.58434 -3.1719,2.72461 2.3,1.68182 2.3078,1.90235 0.1914,5.58985 -2.9104,5.0711 -2.7908,5.99843 0.9531,7.42187 3.9969,1.51964 3.969,3.08367 -0.1367,7.96289 l -3.291,3.91211 2.6601,2.1543 c 3.4206,2.76983 3.3562,3.40839 -0.7734,7.71875 -2.9456,3.07457 -3.2108,3.93473 -1.8809,6.06445 0.8522,1.36505 1.1184,2.49282 0.5918,2.51172 -0.5265,0.0151 -3.088,0.52437 -5.6914,1.12891 l -4.7324,1.09961 v -7.48633 c 0,-7.00921 0.155,-7.40136 2.4414,-6.17774 4.6094,2.46686 5.4266,1.30135 2.125,-3.02734 -4.0781,-5.34629 -4.0873,-5.76367 -0.1484,-5.76367 1.7356,0 3.1543,-0.5675 3.1543,-1.26172 0,-0.69426 -0.7104,-1.27187 -1.5782,-1.2832 -4.1506,-0.0507 -4.9308,-2.00256 -2.6855,-6.71094 2.6076,-5.4683 1.2716,-7.76764 -1.9961,-3.43555 l -2.3008,3.05078 -0.4531,-6.47851 c -0.5287,-7.56514 2.2183,-12.37676 6.3223,-11.07422 1.4454,0.45876 3.261,-0.0639 4.4902,-1.29297 1.3871,-1.38678 3.121,-1.79804 5.2891,-1.25391 4.8394,1.21463 8.0901,-0.34206 9.9765,-4.77734 z m 0.543,60.30273 c 0.5787,-0.0151 0.8964,0.27702 0.8964,0.86133 0,2.00886 -14.6428,8.5061 -24.3086,10.78516 -8.2158,1.93716 -22.8254,2.29601 -29.3378,0.7207 -7.0577,-1.70714 -13.4324,-5.3794 -12.6915,-7.31055 0.3843,-1.00142 0.6993,-2.29078 0.6993,-2.86523 0,-0.57445 2.2432,0.0389 4.9843,1.36328 6.7929,3.28191 22.3167,5.41753 31.9122,4.38867 6.7705,-0.72601 18.6759,-4.13001 26.5332,-7.58594 0.5244,-0.23055 0.9651,-0.3491 1.3125,-0.35742 z m 6.3613,4.71094 v 0 0 c 2.0614,2e-4 16.3608,13.34527 20.0742,18.73633 3.4668,5.03293 3.6146,5.65685 1.7617,7.50976 -1.8529,1.85288 -2.0886,1.68406 -2.834,-2.04296 -1.2138,-6.06906 -3.0117,-6.15991 -3.0117,-0.15235 0,4.95462 -0.1909,5.23268 -3.1855,4.66016 -4.0562,-0.77541 -5.2585,1.02468 -1.8887,2.82812 2.0054,1.07329 2.3888,2.12886 1.7402,4.79688 -0.8084,3.32578 -0.762,3.35859 1.6661,1.21093 3.2429,-2.86849 3.9317,-2.78464 4.4199,0.53321 0.2218,1.50767 1.1905,2.99939 2.1523,3.3164 1.3734,0.45285 1.5635,-0.4069 0.8887,-4.0039 -0.5047,-2.69083 -0.3573,-4.58008 0.3574,-4.58008 0.669,0 2.0819,-0.33078 3.1387,-0.73633 5.1028,-1.95817 13.9339,25.53058 24.0898,74.98047 5.0176,24.43104 5.3837,27.79113 2.795,25.64258 -0.9317,-0.77319 -2.0666,-1.03296 -2.5235,-0.57617 -1.2642,1.26425 -0.993,-0.71672 0.4746,-3.45899 1.7047,-3.18522 0.2003,-3.11251 -3.2832,0.16016 l -2.7695,2.60351 -1.6172,-4.18164 c -1.4922,-3.86027 -1.6564,-3.95571 -2.1445,-1.24414 -0.3436,1.90908 -1.1547,2.6973 -2.3203,2.25 -2.7462,-1.05379 -2.1315,1.48785 0.7304,3.01953 3.304,1.76838 3.2103,3.50938 -0.2168,4.01368 -3.1924,0.46977 -4.7385,3.56054 -1.7812,3.56054 2.4303,0 2.4484,0.94685 0.1035,5.04883 -2.0921,3.6597 -2.3187,5.04883 -0.8281,5.04883 0.5849,0 2.1328,-1.98814 3.4414,-4.41797 2.5013,-4.64485 4.3301,-5.7117 4.3301,-2.52539 0,1.04141 0.5674,1.89453 1.2617,1.89453 0.6942,0 1.2636,-1.6438 1.2636,-3.65234 0,-3.6812 1.8223,-5.1836 6.2852,-5.1836 2.3883,0 2.4912,0.39876 6.4844,24.95118 0.8205,5.04531 1.2454,9.41854 0.9453,9.71875 -0.3005,0.3002 -5.0705,1.68415 -10.6016,3.07421 -23.638,5.94061 -39.4475,9.05788 -55.1601,10.87696 -16.1727,1.87232 -64.4733,3.41554 -74.8125,2.39062 -27.8312,-2.75897 -33.4489,-3.45425 -33.4453,-4.14258 0,-0.43777 1.202,-2.76253 2.666,-5.16406 2.6761,-4.38973 2.0788,-5.96121 4.7168,-0.63086 1.796,3.26553 2.2022,4.9035 2.4668,0.26563 0.3564,-3.00125 0.7409,-3.29556 2.8515,-2.16602 3.0447,1.6293 3.2066,0.1835 0.2325,-2.07422 -1.3492,-1.02416 -1.5945,-1.69185 -0.6309,-1.71679 0.8679,-0.0219 1.5781,-0.67406 1.5781,-1.44922 0,-0.82049 -1.3141,-1.15874 -3.1562,-0.80664 -3.8685,0.73948 -3.943,0.0612 -0.4102,-3.69922 2.043,-2.17471 2.2681,-2.91992 0.8828,-2.91992 -1.0236,0 -2.6133,0.70844 -3.5332,1.57617 -1.3381,1.26236 -1.789,1.26236 -2.2519,0 -1.0599,-2.89069 -2.7389,-1.62428 -2.4981,1.88281 0.2185,3.18149 -0.092,3.4269 -3.8652,3.06055 -2.3319,-0.22636 -4.1016,0.18732 -4.1016,0.95898 0,0.74657 0.9206,1.35742 2.0469,1.35742 1.7214,0 1.7846,0.316 0.3965,1.98829 -1.2184,1.46788 -1.2705,2.22591 -0.2012,2.88671 2.1598,1.33489 0.3587,6.68562 -2.0918,6.21485 -2.3311,-0.44791 -2.6338,-2.54078 -5.7207,-39.55078 -1.103,-13.22343 -1.9977,-31.68371 -1.9941,-41.02344 l 0.012,-16.98242 3.4629,-1.67578 c 6.0733,-2.93965 6.6163,-3.04542 6.6172,-1.29883 5e-4,0.94208 1.4211,1.79433 3.1562,1.89453 3.3987,0.19616 4.1195,-1.84153 1.5762,-4.45313 -1.2669,-1.30145 -1.2039,-1.53837 0.3164,-1.20703 2.1873,0.47646 2.763,-0.63712 1.7266,-3.33789 -0.4008,-1.04485 -1.3215,-1.53306 -2.045,-1.08594 -0.8739,0.54008 -1.0937,-1.15714 -0.6543,-5.05664 0.7688,-6.81951 -1.0429,-7.97883 -2.2675,-1.45117 -0.9427,5.02428 -1.4403,5.30284 -3.961,2.20899 -1.6441,-2.01781 -1.754,-1.90927 -1.2617,1.26171 0.4651,2.99618 0.1119,3.47266 -2.582,3.47266 -2.9187,0 -3.0658,-0.30789 -2.2578,-4.73437 4.237,-23.21738 19.2604,-45.71949 39.5839,-59.29102 l 7.8164,-5.21875 6.4297,4.32617 c 3.5366,2.37997 6.9532,4.32813 7.5918,4.32813 0.6387,0 -0.052,2.37779 -1.5351,5.28515 -8.509,16.6788 -16.3006,73.74608 -16.293,119.3418 0,20.82155 1.9151,39.46875 4.0469,39.46875 1.3803,0 1.2606,-6.80252 -0.4102,-23.2832 -1.1479,-11.32227 -1.0138,-19.81618 0.7071,-44.88477 2.7399,-39.91346 5.3109,-58.30797 11.2949,-80.78125 3.8579,-14.4887 3.5861,-14.18413 11.8222,-13.18554 3.9902,0.48377 7.3981,0.99744 7.5723,1.14257 0.4486,0.3738 3.9492,25.65284 5.4258,39.18164 1.8255,16.72371 6.6535,77.35316 8.3184,104.45508 0.4687,7.62944 1.3854,13.56836 2.0937,13.56836 1.3638,0 0.4702,-27.48365 -1.7246,-53.01562 -0.6863,-7.98399 -1.7768,-20.76367 -2.4219,-28.40039 -1.736,-20.55249 -4.864,-49.35585 -6.375,-58.69727 -3.1573,-19.51856 -3.2493,-17.67187 0.877,-17.67187 3.3356,0 14.5968,-2.51425 19.3652,-4.32422 2.082,-0.7903 2.9103,0.8303 12.207,23.89062 10.7583,26.68568 17.4376,54.4156 23.711,98.45703 4.4335,31.12523 4.4893,31.41878 5.7832,30.125 0.961,-0.96107 -1.8265,-28.20095 -4.5645,-44.60156 -7.204,-43.15305 -14.9789,-70.53538 -27.1953,-95.7832 -3.4768,-7.1856 -6.1415,-13.21476 -5.9219,-13.39844 1.1733,-0.98015 6.3273,-3.34387 6.5118,-2.98633 17.3501,33.6354 25.8634,56.21944 31.8027,84.35938 4.0938,19.39655 4.1706,19.6445 5.5859,18.19726 1.283,-1.31172 -2.0856,-20.91465 -6.2734,-36.50195 -4.9098,-18.2749 -19.1431,-50.74512 -28.1172,-64.14453 -1.314,-1.96199 -0.9889,-2.73828 2.25,-5.35938 2.0793,-1.68275 4.2503,-3.06231 4.8301,-3.07031 z m -71.3418,9.56445 c -0.7706,10e-4 -2.3132,1.057 -4.2637,3.36524 -8.83,10.44948 -18.7041,42.00646 -23.2051,74.16211 -2.6632,19.02737 -5.1065,46.34686 -5.1093,57.11718 0,6.07476 0.5044,11.04493 1.125,11.04493 0.6204,0 1.4966,-5.25397 1.9472,-11.67578 4.4084,-62.82013 15.1269,-112.49663 27.877,-129.2129 2.3353,-3.06172 2.6197,-4.80255 1.6289,-4.80078 z m 10.7969,36.43946 c -0.1701,-0.0403 -0.3624,0.004 -0.5782,0.13672 -0.7595,0.46947 -1.171,3.05631 -0.914,5.75 0.4082,4.28155 0.1754,4.80468 -1.8555,4.16015 -1.6432,-0.52154 -2.2082,-0.17295 -1.9277,1.19531 0.218,1.06357 -0.7385,2.79938 -2.127,3.85743 -2.4515,1.86785 -2.4238,1.92621 0.9903,1.96484 3.0806,0.0352 3.354,0.34102 2.2089,2.48047 -0.7186,1.34283 -1.3066,2.76344 -1.3066,3.15625 0,1.66014 2.5201,0.5176 4.2246,-1.91602 1.761,-2.51423 1.903,-2.52906 3.1895,-0.3164 1.1906,2.04765 1.3488,1.91366 1.3828,-1.15625 0.026,-2.47763 0.6847,-3.47071 2.2949,-3.47071 1.3689,0 2.3329,-1.01658 2.4512,-2.58593 0.15,-1.99373 -0.3503,-2.4126 -2.1856,-1.83008 -2.1454,0.68088 -2.2658,0.35206 -1.2109,-3.32617 1.1025,-3.84414 0.2552,-7.32765 -0.9571,-3.9336 -0.9907,2.77415 -2.8769,1.69065 -2.8769,-1.65234 0,-1.5126 -0.2933,-2.3928 -0.8027,-2.51367 z m 45.1289,7.00586 c -1.3307,0 -2.628,4.39571 -2.6543,8.97656 -0.015,2.88635 -0.4364,3.21713 -3.3809,2.6543 -2.6734,-0.51103 -3.2063,-0.23876 -2.6035,1.33203 0.4403,1.1476 -0.034,2.28101 -1.1348,2.70312 -3.1346,1.20289 -0.5691,3.34004 2.9492,2.45703 3.5345,-0.88715 3.4763,-0.56621 -1.1035,6.05469 -1.2736,1.84141 -2.3167,3.68611 -2.3183,4.10156 v 0.002 c 0,2.03699 2.7515,0.28403 5.7793,-3.68555 3.1316,-4.10578 3.51,-4.27005 5.0742,-2.20899 1.6124,2.12619 1.6922,2.12445 1.7305,-0.0254 0.034,-1.85969 0.4809,-2.01749 2.5644,-0.90234 1.9386,1.03759 2.5234,0.96016 2.5234,-0.33398 0,-0.92702 -0.6805,-2.36808 -1.5136,-3.20118 -1.1781,-1.17804 -0.8982,-1.51367 1.2617,-1.51367 1.5274,0 2.7773,-0.56945 2.7773,-1.26367 0,-0.69423 -1.4205,-1.26172 -3.1562,-1.26172 -3.5825,0 -4.0554,-1.46797 -1.2305,-3.8125 2.6211,-2.17535 1.4237,-3.02891 -1.8164,-1.29492 -2.4667,1.32007 -2.6328,1.08849 -2.6328,-3.68359 0,-2.80142 -0.5019,-5.09375 -1.1152,-5.09375 z m -106.6563,22.87304 c 1.0126,0.0129 1.7162,0.28029 1.6992,0.70703 -0.023,0.56896 -1.4896,2.09148 -3.2617,3.38282 -3.2152,2.34291 -3.2195,2.34191 -2.7988,-0.63086 0.2778,-1.96303 1.3902,-3.11696 3.2617,-3.38282 0.3905,-0.0555 0.7621,-0.0805 1.0996,-0.0762 z m 63.5918,32.66797 c -0.6942,0 -1.2617,2.21766 -1.2617,4.92969 0,4.41257 -0.283,4.85699 -2.6934,4.22656 -1.9417,-0.50773 -2.5288,-0.20908 -2.0996,1.06641 0.3277,0.97303 -0.3057,2.4376 -1.4082,3.25586 -1.8155,1.34752 -1.7988,1.56721 0.1738,2.33203 1.9755,0.76589 2.0052,1.17912 0.3204,4.4375 -2.6319,5.08951 -0.1229,5.82672 3.0371,0.89258 1.4444,-2.2557 2.6371,-3.42808 2.6484,-2.60547 0.011,0.82268 0.7053,3.09441 1.541,5.04883 1.7372,4.06236 1.5316,3.81849 1.9668,-0.48047 0.3217,-2.89191 0.964,-3.83627 2.2676,-3.33594 2.3461,0.90022 2.2998,-0.18942 -0.1699,-3.95899 -1.9559,-2.98488 -1.9124,-3.04966 2.539,-3.88476 5.852,-1.0978 7.0792,-3.08789 1.9043,-3.08789 -3.9682,0 -3.9878,-0.0299 -1.9687,-3.11133 3.135,-4.78465 2.4313,-5.31076 -1.7481,-1.30664 l -3.7871,3.62695 v -4.02343 c 0,-2.21264 -0.5674,-4.02149 -1.2617,-4.02149 z m 58.0645,50.49024 c -0.6943,0 -1.2618,1.70432 -1.2618,3.78711 0,3.98647 -0.7229,4.48804 -3.7265,2.58789 -2.5241,-1.59514 -4.2989,-0.23399 -2.5098,1.92187 1.1679,1.4071 0.785,2.01706 -1.9082,3.04102 -4.1198,1.56635 -2.9335,4.32992 1.3926,3.24414 3.0227,-0.7586 3.0394,-0.72036 0.9805,2.42187 -2.6906,4.10646 -0.085,4.38945 4.1113,0.44727 2.4808,-2.33054 2.9219,-2.42554 2.9219,-0.63086 0,2.3768 1.9344,2.82802 3.2187,0.75 0.4638,-0.75035 2.1678,-1.03282 3.7852,-0.62696 4.5574,1.14394 4.667,-1.06652 0.1855,-3.73046 l -4.0332,-2.39844 3.4707,-1.23242 c 4.0731,-1.44706 4.5761,-3.26953 0.9024,-3.26953 -2.213,0 -2.374,-0.36495 -1.1602,-2.63282 2.06,-3.84901 0.1259,-4.80501 -2.6914,-1.33007 -2.3584,2.90906 -2.416,2.91551 -2.416,0.31445 0,-1.46542 -0.5675,-2.66406 -1.2617,-2.66406 z m 60.1953,14.05273 c 0.1955,-0.0126 0.369,-0.0118 0.5215,0.004 1.0164,0.10488 1.1347,0.8716 1.1347,2.73632 0,4.21169 -2.8121,6.89425 -8.3105,7.92579 -3.4491,0.64699 -4.8071,0.3321 -6.0781,-1.40625 -2.07,-2.83076 -4.545,-1.39433 -4.545,2.63867 0,4.17013 -4.3068,4.12523 -7.0586,-0.0742 -2.7272,-4.1626 -3.7023,-3.98147 -5.1074,0.94726 -1.606,5.63361 -6.7045,6.29473 -11.1933,1.45118 l -3.1954,-3.44727 14.2247,-3.70703 c 13.2596,-3.45625 16.3658,-4.21531 27.1621,-6.63281 1.0679,-0.23913 1.8588,-0.39773 2.4453,-0.43555 z m -178.8926,11.60742 c 0.4622,-0.0469 1.1996,0.0691 2.2852,0.30664 6.981,1.5275 7.1183,1.65455 4.6757,4.35352 -1.2435,1.37396 -2.6703,2.5 -3.1718,2.5 -1.1749,0 -3.1368,-2.54449 -4.1485,-5.38086 -0.4175,-1.17071 -0.4109,-1.70115 0.3594,-1.7793 z m 132.3691,0.40039 c 0.1395,0.01 0.2129,0.0302 0.2129,0.0625 0,0.25656 -0.8221,2.43618 -1.8281,4.84375 -2.165,5.18161 -4.7429,5.54762 -8.5137,1.21094 l -2.7519,-3.16406 -1.5254,3.62304 c -2.1648,5.14867 -7.1654,5.85629 -12.0918,1.71094 -3.123,-2.62777 -4.0131,-2.88344 -4.9395,-1.41992 -0.6215,0.98183 -1.1371,2.42792 -1.1484,3.21484 -0.03,2.30352 -4.9451,2.93189 -6.9844,0.89258 -1.0291,-1.02917 -1.8711,-2.39826 -1.8711,-3.04297 0,-2.51749 -3.6356,-1.00742 -4.0156,1.66797 -0.3239,2.27912 -1.335,2.91703 -5.1191,3.23047 -3.7172,0.30796 -5.4165,-0.30909 -8.0235,-2.91601 -1.8189,-1.81902 -3.1046,-3.49348 -2.8574,-3.72071 0.2472,-0.22726 9.5385,-1.11599 20.6465,-1.97265 11.1081,-0.85679 24.8818,-2.24797 30.6094,-3.0918 5.0116,-0.73824 9.2259,-1.19727 10.2011,-1.12891 z m -118.1211,2.19922 c 0.7707,-0.078 1.8191,0.011 3.1524,0.25195 5.9101,1.06859 5.6747,0.8006 4.168,4.76368 -1.5466,4.06763 -4.3099,4.27693 -6.9375,0.52539 -2.5059,-3.57741 -2.6944,-5.30696 -0.3829,-5.54102 z m 14.5157,1.72461 c 0.6789,0.014 1.424,0.0512 2.205,0.11328 5.9147,0.47042 6.5555,1.25232 4.3731,5.33008 -0.7186,1.3429 -2.0959,2.44141 -3.0625,2.44141 -1.6399,0 -6.9902,-5.69253 -6.9902,-7.4375 0,-0.32421 1.4377,-0.48961 3.4746,-0.44727 z m 14.3222,1.17969 c 0.8792,-0.0409 2.0571,0.0238 3.5664,0.16797 5.194,0.49532 6.4363,2.21402 3.629,5.02148 -2.3294,2.32928 -5.7133,1.80458 -7.8282,-1.21484 -1.9434,-2.77458 -2.0046,-3.85208 0.6328,-3.97461 z m 18.8086,0.39258 c 5.3917,0 6.3176,1.5825 3.7422,6.39453 -1.6582,3.09792 -3.1034,3.08014 -6.2656,-0.082 -4.1259,-4.12586 -3.2528,-6.3125 2.5234,-6.3125 z m 73.1387,0 c 0.6533,0 1.5377,0.56944 1.9668,1.26367 0.4291,0.6943 -0.1051,1.26172 -1.1875,1.26172 -1.0823,0 -1.9688,-0.56742 -1.9688,-1.26172 0,-0.69423 0.5362,-1.26367 1.1895,-1.26367 z m -125.8008,1.82421 c 0.5984,-0.0821 1.2316,0.19986 1.5801,0.76368 1.1594,1.87593 0.2366,2.54086 -1.7891,1.28906 -1.0852,-0.67075 -1.2154,-1.32151 -0.3671,-1.8457 0.1802,-0.11131 0.3769,-0.17967 0.5761,-0.20704 z m 29.9414,3.22461 c 0.6943,0 1.2617,0.56938 1.2617,1.26368 0,0.69422 -0.5674,1.26172 -1.2617,1.26171 -0.6942,2e-5 -1.2617,-0.56749 -1.2617,-1.26171 0,-0.6943 0.5675,-1.26368 1.2617,-1.26368 z m 15.2227,1.26368 c 0.6533,0 1.1875,0.56754 1.1875,1.26171 0,0.69424 -0.8863,1.26172 -1.9688,1.26172 -1.0823,0 -1.6165,-0.56748 -1.1875,-1.26172 0.4291,-0.69417 1.3155,-1.26171 1.9688,-1.26171 z" fill="#00B894" transform="translate(76.259219,76.898607) matrix(2.8752456,0,0,2.8752456,-815.88325,388.19509) scale(0.26458333)"/>
</svg>