<?xml version="1.0" ?><svg height="201.28271mm" viewBox="0 0 274.61542 201.28271" width="274.61542mm" xmlns="http://www.w3.org/2000/svg">
    <path d="m 2074.8164,27.40625 c -50.9094,-0.149065 -84.0284,15.776645 -117.0742,62.185547 -33.0459,46.408883 -25.439,87.474333 -25.2168,108.660153 -0.265,3.41482 11.8379,5.83985 11.8379,5.83985 -0.6212,-6.2758 -2.4334,-15.60685 -0.8789,-41.34961 1.5546,-25.74277 17.8544,-58.96028 38.0195,-85.222659 20.165,-26.26241 79.107,-40.492697 119.3926,-33.097656 40.2858,7.39505 60.184,38.533339 72.7539,67.074215 12.5699,28.54088 19.5138,75.25347 19.1328,83.20508 0,0 11.0215,5.28277 14.1738,0.50586 -0.6215,-5.35141 -1.388,-5.12416 -1.7715,-10.83984 -1.2803,-19.08293 -14.702,-86.061963 -30.7363,-106.488284 -16.0342,-20.42629 -48.7235,-50.323625 -99.6328,-50.472656 z m -3.0469,18.541016 c -45.9433,0.383089 -75.8411,14.749949 -104.041,55.576174 -29.1096,42.1432 -23.1002,90.38514 -21.5586,99.89844 0.5846,5.2796 8.7616,0.659 8.6778,-0.60743 -1.1472,-17.32432 -0.8137,-64.27045 17.7578,-91.98242 28.8378,-43.030888 59.453,-55.276418 93.8906,-54.818358 34.4375,0.458041 69.8444,8.160421 89.6445,53.150388 19.8003,44.98998 23.7006,85.99154 24.7617,90.98242 5.5468,0.84808 8.4866,-4.08926 8.1797,-9.54101 -4.1318,-61.10413 -18.8115,-83.17466 -30.0625,-99.851564 -11.1194,-16.481748 -34.2425,-42.278269 -82.7519,-42.800781 -1.5159,-0.01625 -3.0161,-0.01795 -4.4981,-0.0059 z m -2.5918,10.847656 c -0.7778,-0.0049 -1.5591,5.32e-4 -2.3457,0.01758 -50.3441,1.078428 -81.9952,35.708775 -97.7422,69.707028 -15.7469,33.99825 -10.3127,64.25135 -10.1132,76.39063 0.6713,6.09229 8.6662,3.56547 8.1132,0.49609 -0.5531,-3.06938 -1.1562,0.006 -1.8476,-18.79687 -0.6913,-18.80343 10.5631,-55.4557 30.9805,-82.9004 20.4172,-27.4447 57.0274,-30.011841 68.4414,-29.828119 11.4139,0.183761 31.2718,-0.651629 53.041,15.400391 21.7692,16.052048 32.6647,43.786918 36.3672,55.539058 3.7024,11.75214 12.0472,55.20735 14.2441,61.48438 2.1969,6.27702 9.8612,8.55806 9.0469,-0.67774 -0.8142,-9.23579 -15.2174,-68.52671 -21.5469,-86.09961 -6.2306,-17.29833 -37.6378,-60.417827 -86.6387,-60.732416 z m 2.3887,16.746094 c -0.8611,-0.0087 -1.7311,-0.0037 -2.6094,0.01367 -56.215,1.126809 -69.8946,29.556514 -84.3828,52.955084 -14.4881,23.39857 -13.5704,62.35056 -12.9316,73.49218 0.37,3.26948 5.646,2.89172 6.1699,-3.25976 0.5238,-6.15147 3.4782,-28.59664 7.8555,-44.69531 4.6591,-17.13546 25.4834,-70.899993 79.9179,-67.453132 61.2953,3.88131 73.389,53.088822 78.0371,65.234372 9.4585,24.71478 10.623,52.2702 11.4024,56.375 0.7793,4.10481 9.6537,2.09218 9.3086,-2.1621 -0.3447,-4.25429 -12.9763,-65.05806 -15.7871,-71.54297 -2.7667,-6.38358 -22.7363,-58.407652 -76.9805,-58.957036 z m -5.2012,13.15625 c -0.478,-0.0012 -0.8986,0.006 -1.2558,0.02148 -5.714,0.245858 -18.4394,-0.799542 -36.2422,7.662109 -17.8027,8.461655 -28.3441,24.955945 -36.5625,45.300785 -8.2184,20.34486 -10.7189,47.97213 -11.0606,56.63867 -0.1266,0.79117 7.3761,1.10705 7.5547,0.3418 0.7197,-4.72396 5.8498,-28.94259 10.9532,-47.55859 9.1972,-22.49612 17.7905,-28.53205 22.9355,-34.49414 5.145,-5.96209 21.7453,-18.583549 45.0117,-17.0879 23.2665,1.49565 40.7272,12.37487 50.6758,25.54883 9.9485,13.17396 14.2427,25.9102 17.6348,38.24414 3.3921,12.33395 7.2389,43.23902 9.3789,49.11914 2.1399,5.88013 9.1028,6.47337 9.0117,2.10938 -0.091,-4.364 -2.2952,-12.64825 -4.5488,-28.83399 -2.2538,-16.18573 -7.7027,-31.28488 -12.2559,-45.33984 -4.5532,-14.05494 -17.5528,-29.29807 -31.1895,-39.767582 -12.7842,-9.815168 -32.8716,-11.886215 -40.041,-11.904296 z m 0.2461,12.929687 c -20.7381,-0.245598 -30.4826,3.402087 -46.5547,19.976567 -16.0725,16.57501 -19.8295,31.10012 -22.789,43.92578 -2.9595,12.82565 -4.3935,26.6832 -5.2813,34.46875 0.4781,3.89276 6.5984,7.60489 6.6211,3.9375 0.023,-3.6674 -0.018,-8.65757 0.3457,-13.10352 0.3644,-4.44595 5.6153,-31.42888 9.0039,-40.24023 3.3887,-8.81135 11.5993,-22.63883 17.541,-26.90039 5.9418,-4.26156 18.9162,-11.48779 39.8809,-11.16797 20.9647,0.31982 36.0641,9.14152 44.9199,20.32812 8.8559,11.1866 16.0518,35.66844 18.6016,44.35547 2.5497,8.68704 2.1406,26.55306 5.2402,30.53516 3.0997,3.9821 8.2801,5.82499 8.3262,2.54687 0.046,-3.27812 0.3645,-9.80608 -3.0957,-26.62695 -3.4604,-16.82086 -13.3854,-42.86177 -23.334,-57.6543 -9.9483,-14.79206 -28.6851,-24.134434 -49.4238,-24.380857 z m -3.9375,12.824217 c -20.9671,-0.22537 -35.4905,7.78631 -44.4375,20.26367 -8.9469,12.47736 -14.799,34.41966 -16.3925,44.37696 -1.5937,9.95729 -1.2492,21.14287 -1.0723,25.00781 0.044,0.95595 6.2189,0.75511 6.4336,-0.46289 0.1595,-5.88013 0.08,-25.97821 5.4297,-39.99219 5.3499,-14.01397 18.7369,-42.96332 50.7226,-41.36523 31.9857,1.59808 38.5411,17.92627 45.6895,31.75586 7.1484,13.82957 11.9075,46.40661 12.4765,51.91796 0.5691,5.51136 9.1284,4.77349 9.1739,0.7168 0.046,-4.05668 -3.0737,-26.18341 -5.2364,-34.17383 -2.1628,-7.99042 -10.2439,-32.18862 -23.4707,-43.62109 -13.2269,-11.43245 -18.3492,-14.19846 -39.3164,-14.42383 z m 131.2832,86.68945 c -3.8892,0.026 -7.8574,0.74966 -10.4922,2.53516 -5.2696,3.571 -4.1367,12.82813 -4.1367,12.82813 0,0 -12.5545,-3.77799 -17.5722,-2.92774 -5.0176,0.85024 -7.7891,8.36914 -7.7891,8.36914 0,0 -9.2568,-5.42202 -15.6602,-8.72851 -6.4033,-3.30649 -18.7065,-2.75931 -24.4589,1.01953 -5.7524,3.77884 -10.4766,11.45012 -10.4766,23.41015 0,0 -11.4428,1.07771 -15.8516,6.91602 -4.4089,5.8383 1.5117,16.06055 1.5117,16.06055 0,0 -1.8681,2.90863 3.1075,14.62304 4.9757,11.71441 19.2094,6.19869 23.9961,3.40235 4.7867,-2.79634 11.6948,-11.58341 12.5976,-8.84375 0.9027,2.73966 6.8442,13.54654 19,14 12.1557,0.45347 24.4788,-8.29271 28.5098,-12.16602 4.0309,-3.87331 4.0374,-12.69492 7.6387,-6.71679 3.6011,5.97812 12.0762,10.514 24.0429,9.1914 11.9668,-1.3226 18.8951,-14.94545 20.1758,-20.91601 1.2807,-5.97057 4.3864,-7.48276 12.1543,-15.83399 7.768,-8.35123 2.0785,-21.27436 1.0918,-25.29883 -0.9868,-4.02447 -14.1703,-11.61956 -19.041,-5.78125 -4.8707,5.83831 -6.677,3.09793 -9.0703,0.96289 -2.3934,-2.13505 -4.618,-2.45619 -9.2578,-4.45898 -2.3199,-1.00139 -6.1304,-1.67247 -10.0196,-1.64649 z m -212.8398,2.0293 c -0.8203,0.004 -1.606,0.0693 -2.3418,0.20703 -7.8481,1.46912 -13.0801,10.75391 -13.0801,10.75391 0,0 -7.5352,-5.25482 -11.9512,-6.44141 -4.4158,-1.18658 -10.1933,1.24414 -10.1933,1.24414 0,0 -5.4814,-4.05116 -16.4688,-2.05468 -10.9872,1.99647 -10.7988,14.86097 -10.7988,21.18945 0,0 -16.7428,1.82627 -22.6445,15.08594 -5.9018,13.25967 13.332,15.3125 13.332,15.3125 0,0 -1.5693,4.80376 -0.5019,11.43359 1.0673,6.62983 8.7482,11.94124 15.5917,12.41211 6.8436,0.47087 13.7495,-2.71301 18.584,-5.46289 4.8344,-2.74988 6.8639,-5.66825 9.459,-3.08789 2.5951,2.58037 7.3241,11.5456 15.4024,12.0918 8.0784,0.5462 11.4703,-4.87795 12.8515,-7.17579 1.3813,-2.29783 5.4739,-7.82003 7.0313,-3.35351 1.5575,4.46652 7.0107,7.60887 14.1054,6.5918 7.0948,-1.01706 13.4778,-6.06482 13.6661,-12.14844 0.1883,-6.08363 -1.0251,-7.7778 5.2324,-9.58594 6.2576,-1.80814 9.7732,-8.06092 8.664,-16.57422 -1.1092,-8.51331 -6.2571,-7.36535 -4.248,-10.11523 2.0091,-2.74987 6.2149,-14.08693 -3.9981,-21.24414 -10.213,-7.15722 -18.625,-3.50391 -18.625,-3.50391 0,0 -11.1386,-5.61482 -19.0683,-5.57422 z" fill="#FFFFFF" transform="translate(71.529126,25.693726) matrix(2.8752456,0,0,2.8752456,-1509.0638,-43.879794) scale(0.26458333)"/>
    <path d="m 549.15759,6.3252068 c -6.42279,-0.01656 -13.42663,1.267598 -18.00458,3.581694 -9.26973,4.6857322 -16.63954,15.0046322 -19.88767,27.8463622 -1.16234,4.59534 -1.36943,7.66263 -1.26503,12.22871 0.0245,1.07014 0.0593,1.70916 0.0971,2.26033 -0.0868,0.0233 -0.17124,0.05 -0.25061,0.0811 l -1.02476,0.60564 c -1.36845,0.80837 -2.50269,2.91056 -2.50269,4.639 0,1.3744 -0.0312,1.40938 -1.42471,1.59628 -2.74544,0.36824 -4.92529,2.80635 -4.92529,5.50871 0,2.50553 2.31161,4.17223 4.85036,3.49695 1.58428,-0.42141 1.43722,-0.9075 -0.26095,-0.863 -3.70629,0.0972 -3.93248,-4.3 -0.31629,-6.14485 1.61431,-0.82355 2.20102,-0.85646 2.78228,-0.15606 0.74811,0.9014 0.8821,0.61142 0.8821,-1.91306 0,-1.9294 0.15554,-2.65211 0.74054,-3.43958 0.90413,-1.2171 2.63948,-1.46596 4.57853,-0.65578 0.73248,0.30604 1.42304,0.43333 1.53427,0.28267 1.62065,-0.96629 3.36714,0.0317 4.5589,1.09554 0.81309,0.8149 0.78193,0.81781 1.41126,-0.0827 1.40081,-2.00461 2.11773,-2.51871 3.51195,-2.51871 1.56284,0 3.53901,0.58083 4.26019,1.25212 0.35864,0.33387 0.6999,0.35742 1.28934,0.0889 0.63556,-0.28959 1.20404,-0.18124 2.74555,0.52451 3.04208,1.39269 3.52886,2.64622 1.9167,4.93562 -0.36179,0.51381 -0.346,0.68802 0.0873,0.96428 0.81055,0.5167 1.04722,0.43465 2.15127,-0.74724 0.80161,-0.85814 1.02373,-1.42519 1.02373,-2.61586 0,-1.35902 -0.16791,-1.66813 -1.5839,-2.91455 -0.89228,-0.78538 -2.29336,-1.59274 -3.20858,-1.84899 -0.32872,-0.11486 -0.68424,-0.1734 -1.04645,-0.2005 0.0615,-0.43637 0.11438,-0.95897 0.15451,-1.57458 0.28052,-4.3015 0.46379,-7.53107 2.28357,-11.32127 1.80306,-3.75537 3.95494,-5.98199 6.64303,-6.87245 6.96647,-2.00835 13.69893,0.95155 15.72357,5.14645 2.02465,4.1949 2.35921,4.98393 2.8448,10.07743 0.21437,2.24874 0.55259,4.09004 0.7896,5.15523 -2.21006,0.5921 -4.23563,2.48653 -4.99761,6.82336 l -0.20259,1.1529 c -0.0292,0.16623 -0.47157,0.26459 -0.85783,0.26459 -2.30778,0 -3.91192,2.4141 -3.14606,4.73459 0.219,0.66357 0.60873,1.38104 0.86559,1.59422 0.31501,0.26152 0.4091,0.89965 0.2894,1.96163 -0.2078,1.84353 0.40912,3.01916 2.1368,4.07262 2.03951,1.24356 4.60476,0.73853 7.02024,-1.38234 1.35602,-1.19056 1.69191,-1.32869 1.69191,-0.69505 0,1.02045 1.8534,2.77335 3.45196,3.2644 2.79453,0.85842 5.78102,0.11173 8.09874,-2.02468 0.85585,-0.78889 1.79607,-1.89852 2.08928,-2.46548 l 0.53279,-1.03043 0.68263,1.12189 c 0.96221,1.58133 2.75476,2.23892 5.65909,2.07481 1.97374,-0.11152 2.63009,-0.31883 3.8835,-1.22679 1.89916,-1.37577 2.90161,-3.26359 2.90164,-5.46427 0,-1.53053 0.0851,-1.70504 0.91932,-1.88826 1.74408,-0.38307 3.51668,-2.57058 4.03489,-4.97902 0.86945,-4.04093 -3.63347,-8.68167 -6.82336,-7.03213 -1.17039,0.60525 -1.72048,1.82015 -1.10175,2.43241 0.30927,0.30597 0.49522,0.254 0.75811,-0.21187 0.74229,-1.31565 3.39352,-0.38851 4.38785,1.53427 0.81192,1.57011 0.62545,3.45877 -0.54314,5.4963 -0.57634,1.00489 -1.33596,2.03711 -1.68775,2.2934 -0.35184,0.25629 -0.84654,1.17999 -1.09966,2.05311 -0.93173,3.21382 -3.59016,5.29363 -6.76445,5.29063 -1.72891,-0.002 -3.85765,-1.06846 -3.85765,-1.93373 0,-0.2939 -0.23257,-0.53433 -0.51675,-0.53433 -0.28425,0 -0.69377,-0.33133 -0.91057,-0.7364 -0.37137,-0.69388 -0.43645,-0.65157 -1.12085,0.73174 -1.43256,2.89543 -5.93228,5.35042 -8.81547,4.80953 -1.74688,-0.32771 -3.57687,-2.38894 -3.37034,-3.79615 0.18127,-1.23509 -0.15608,-1.2762 -1.21491,-0.1478 -1.16057,1.23678 -4.85342,3.37241 -5.83169,3.37241 -2.16961,0 -3.92379,-2.09381 -3.50572,-4.18424 0.11054,-0.55263 0.0357,-1.16986 -0.1664,-1.37201 -0.20214,-0.20215 -0.38465,-0.96015 -0.40516,-1.68414 -0.0509,-1.7948 1.13234,-2.78921 2.96934,-2.49545 1.45373,0.23247 1.76326,-0.12107 1.46606,-1.67587 -0.25662,-1.3424 0.81251,-3.92295 2.06084,-4.97334 0.57689,-0.48542 1.67193,-1.06908 2.43295,-1.29708 1.65772,-0.49666 3.5457,0.0993 6.39908,2.01952 0.97959,0.65922 1.92804,1.19838 2.10735,1.19838 0.17936,0 0.47779,-0.39977 0.66355,-0.88832 0.48231,-1.26857 1.93945,-1.75847 3.70208,-1.24489 3.12449,0.9104 2.98807,0.9317 2.7678,-0.42581 -0.27583,-1.6998 0.33806,-2.63913 2.02107,-3.09232 1.68201,-0.45291 4.54817,0.22357 6.09161,1.43764 1.07686,0.84704 1.1507,0.71075 0.401,-0.73897 -0.16131,-0.31198 -0.43624,-0.65622 -0.78962,-0.98909 0.79029,-4.69312 -1.74577,-19.53536 -4.18526,-24.94576 -1.93569,-4.29308 -5.34029,-9.90178 -8.32921,-12.45661 -4.41092,-3.770308 -7.90416,-6.2446892 -14.21929,-8.0842582 -2.61334,-0.761261 -5.818,-1.127175 -9.18239,-1.135848 z m 1.28521,2.259809 c 3.18823,0.07033 5.62152,0.599054 9.58236,1.9047942 4.67617,1.541571 8.01087,4.155743 11.5321,7.417123 3.75693,3.4797 6.4297,9.85625 8.05379,14.16502 1.52231,4.03872 2.67988,13.5753 3.27988,18.92546 0.029,0.25858 0.0689,0.42565 0.10131,0.65474 -0.38968,-0.14509 -0.79502,-0.24868 -1.2046,-0.28835 -0.19013,-0.0184 -0.37388,-0.0304 -0.55448,-0.0393 0.35359,-4.10545 -0.29882,-10.55001 -2.22311,-15.66365 -2.27486,-6.04515 -3.95269,-10.71048 -7.97576,-15.69413 -6.5101,-7.099624 -13.85202,-9.188723 -22.61772,-9.24491 -1.42547,-0.0021 -2.89431,0.08019 -4.47569,0.24081 -9.95649,1.011251 -16.37006,4.63589 -22.35266,12.63334 -4.9725,6.64718 -6.92381,11.77099 -7.78712,20.44578 -0.40285,4.04782 -0.47913,5.83244 0.11576,9.42836 -0.0958,0.0785 -0.18235,0.16489 -0.25633,0.26096 -0.61486,-0.6017 -1.16776,-0.99186 -1.66396,-1.23403 0.0327,-0.60719 0.0609,-1.34158 0.079,-2.36729 0.14095,-7.95094 0.26882,-8.44803 1.4795,-13.20023 3.14614,-12.34966 10.93804,-22.26962 20.34813,-25.905395 3.49877,-1.3518102 7.56901,-2.0926902 13.01522,-2.3683312 1.31511,-0.06656 2.46158,-0.09424 3.52433,-0.0708 z m -1.75236,4.1527202 c 9.28296,0.0066 17.56317,3.462277 21.38423,9.769947 4.6296,7.64242 8.19095,18.98497 8.58189,27.64689 0.025,0.56552 0.0481,0.9353 0.0718,1.38389 -0.49297,0.12289 -0.92274,0.29015 -1.295,0.48576 -0.0243,-2.05431 -0.32957,-4.70822 -0.96378,-7.18199 -0.89122,-3.47619 -3.57597,-14.14853 -5.64927,-17.26148 -1.68603,-2.53161 -4.31332,-6.87338 -7.25329,-8.78809 -5.04563,-3.28613 -9.8116,-5.422575 -16.61089,-5.427576 -7.4631,-0.0054 -13.47562,2.511616 -19.41068,8.125086 -8.44597,7.98833 -11.60996,17.55313 -10.95954,28.09337 0.0773,1.25282 0.21908,2.45518 0.36483,3.41995 -0.62066,-0.11361 -1.24597,-0.12917 -1.79988,-0.0372 -0.83539,-8.4937 0.3868,-14.63995 3.19929,-20.90725 1.32123,-2.94426 4.91678,-8.25346 7.07398,-10.44587 6.16183,-6.26237 13.03017,-8.882428 23.26627,-8.875427 z m -2.04639,2.978117 c 1.23078,0.0134 2.56852,0.14334 4.25608,0.37671 4.61404,0.63807 6.58432,2.06715 9.4537,3.70882 3.89956,2.23111 6.54206,6.55083 8.9798,10.3663 3.29438,5.15627 4.03262,12.55407 5.46168,19.63807 0.33655,1.66835 0.63982,2.97219 0.92139,3.92638 -0.12689,0.29207 -0.18344,0.57406 -0.17415,0.82165 0.0143,0.38034 -0.21177,0.78791 -1.4056,-0.093 -0.0252,-0.0186 -0.0499,-0.033 -0.0749,-0.0507 0.14372,-0.46196 -0.2839,-1.32623 -0.85524,-4.54701 -2.03194,-11.45457 -4.08723,-18.00038 -8.6496,-23.60631 -2.62186,-3.22157 -3.43283,-4.09709 -7.87135,-5.88646 -3.84215,-1.54894 -7.01455,-2.28726 -10.21437,-2.2779 -1.9199,0.006 -3.84972,0.28012 -5.93969,0.81029 -7.94443,2.01527 -12.91759,6.33639 -17.03358,14.80065 -2.17535,4.47351 -3.16788,7.91902 -3.5233,12.23026 -0.1811,2.19699 -0.12761,5.79042 0.16277,7.84965 -0.17782,0.1755 -0.3461,0.35499 -0.49196,0.54053 -0.2794,-0.30102 -0.64532,-0.55883 -1.0573,-0.77101 0.0294,-1.07743 0.0495,-2.50202 0.0801,-4.88135 0.0659,-5.11888 0.20961,-7.41218 1.53736,-11.56571 3.0625,-9.58022 11.4562,-18.13044 20.04738,-20.42097 2.58487,-0.68919 4.33951,-0.99119 6.3908,-0.96893 z m -0.0408,4.31084 c 3.27189,-0.005 4.09276,0.12863 7.03315,1.1436 9.01168,3.11067 11.54689,7.43893 15.16756,16.32355 1.53143,3.75792 2.77386,12.89592 3.33364,15.92099 0.0343,0.18566 0.0761,0.35539 0.12351,0.51005 -0.62474,0.1139 -1.18713,0.52916 -1.65934,1.15238 0.0471,-2.17555 -0.49537,-8.61611 -1.50016,-11.40705 -1.48029,-4.11146 -3.37036,-9.92874 -5.15524,-12.30313 -4.62582,-6.1537 -9.91696,-9.43377 -18.04853,-9.42578 -3.79783,0.004 -6.17937,0.53249 -8.78239,1.94924 -2.77585,1.51081 -6.11955,4.44873 -7.59799,6.67608 -1.55493,2.34264 -3.70581,7.19326 -4.54805,10.25674 -1.02148,3.71538 -1.73948,8.17635 -1.91408,11.2236 -0.42548,0.13184 -0.83598,0.30237 -1.22216,0.50436 0.0139,-0.46754 0.0256,-0.96087 0.0248,-1.59887 -0.0116,-8.55406 1.15338,-13.06351 5.07358,-19.63963 4.48966,-7.53128 11.01389,-11.27423 19.67169,-11.28613 z m -1.05834,3.52692 c 3.6947,0.007 4.87389,0.15181 7.27345,0.89297 7.20812,1.98861 10.74989,9.01236 12.12226,12.03286 2.64805,6.48429 3.1845,8.35256 3.57756,12.25299 0.29493,2.92653 0.80418,6.13295 0.73123,6.65851 -0.0368,0.26507 0.20809,0.70985 0.49816,0.93741 -0.30943,0.2103 -0.60674,-0.11943 -1.6273,-0.46561 -0.0165,-0.008 -0.0299,-0.0166 -0.046,-0.0248 0.0722,-0.20394 0.12073,-0.45238 0.10338,-0.79323 -0.38841,-7.6233 -3.46568,-16.68 -5.1842,-19.77347 -2.70547,-4.87009 -5.59109,-7.35858 -10.92853,-8.91728 -2.00615,-0.58138 -3.90427,-0.88372 -5.70971,-0.90331 -4.61396,-0.0501 -8.62224,1.74652 -12.27574,5.45393 -3.56854,3.62114 -5.86028,8.84178 -7.39233,16.83877 -0.31183,1.62781 -0.51173,2.95634 -0.65421,4.11034 -0.55168,-0.10825 -1.10767,-0.12783 -1.65364,-0.0754 0.0525,-0.38713 0.0944,-0.67627 0.15967,-1.17719 0.82881,-6.36077 2.35456,-11.96882 4.38992,-16.13596 1.46984,-3.00931 2.14881,-3.95339 4.30257,-5.98517 4.46019,-4.20287 8.34618,-4.93139 12.31347,-4.92631 z m 0.65834,3.15329 c 2.22546,0.0504 4.67257,0.55038 7.22799,1.49759 2.08346,0.77228 2.99485,1.39609 5.36504,3.67161 3.63815,4.56724 6.07912,12.03825 7.15462,17.6413 0.28194,1.5372 0.51356,4.3185 0.65834,5.42447 -0.0161,-0.0101 -0.0222,-0.0145 -0.0387,-0.0248 -0.34821,-0.21648 -0.75184,-0.42448 -1.19321,-0.60927 0.0362,-2.22726 -1.59401,-8.75545 -3.26078,-12.95786 -1.76932,-4.46089 -2.66896,-7.47826 -7.03731,-10.3787 -2.63334,-1.32311 -4.6881,-2.56386 -8.41809,-2.65461 -0.15216,-0.004 -0.30906,-0.005 -0.47077,-0.004 -2.42568,0.0178 -5.84184,0.58275 -7.75819,1.62574 -4.39055,2.74273 -7.16968,7.53476 -8.42791,12.11915 -0.59896,2.27865 -1.21139,7.96932 -1.32651,11.10734 -0.11557,-0.0449 -0.20754,-0.10746 -0.27081,-0.19431 -0.3724,-0.30005 -0.76004,-0.53806 -1.15599,-0.72192 0.20932,-0.97283 0.40545,-1.91273 0.83508,-3.90157 1.02939,-4.76511 1.9236,-8.16431 2.32389,-8.90023 0.67027,-4.19333 6.06375,-9.7136 9.89502,-11.53986 1.66904,-0.85149 3.67287,-1.2508 5.89833,-1.20045 z m 0.54986,3.49385 c 5.02388,0.0238 7.45588,1.98657 9.53066,3.89278 2.40824,2.21258 6.11354,10.23735 6.50348,14.01569 0.2304,2.23238 0.51507,4.43518 0.8196,5.65753 -0.53464,-0.10648 -1.09045,-0.16554 -1.65211,-0.1602 0.0354,-0.27921 0.0466,-0.58146 -0.006,-0.92552 -0.51702,-3.40219 -1.01113,-8.1556 -2.28978,-10.81278 -2.3481,-4.87938 -3.41329,-9.31664 -12.75427,-10.69547 -0.3864,-0.057 -0.78788,-0.0773 -1.19735,-0.0677 -1.77437,0.0418 -3.70376,0.64684 -5.25705,1.26866 -3.72147,1.48982 -6.50076,5.00556 -8.54726,10.81226 -0.68776,1.95147 -0.97719,4.29807 -1.1152,7.3396 -0.0503,1.10801 -0.0269,1.9799 0.0305,2.67943 -0.44011,0.0182 -0.86294,0.0507 -1.23145,0.0584 0.12555,-0.88443 0.24969,-1.91877 0.37362,-3.28145 0.95806,-10.53458 4.42664,-16.65198 10.82156,-19.08463 2.33336,-0.49683 4.29604,-0.70452 5.9707,-0.6966 z m -10.68618,32.7458 c -0.30681,0 -0.38523,0.32124 -0.24754,1.00976 0.38078,1.90373 -1.22526,3.92947 -3.11505,3.92947 -0.72112,0 -0.82476,0.16966 -0.82476,1.35031 0,1.67874 -0.89588,3.09335 -2.41948,3.81992 -1.07424,0.5123 -1.2686,0.50748 -2.46446,-0.0599 -0.71401,-0.33882 -1.51691,-0.93233 -1.68619,-1.36374 -0.65368,-1.66589 -1.68421,0.21631 -2.30479,0.83509 -2.35849,2.35834 -3.1928,2.35924 -5.46269,0.004 -1.87111,-1.94126 -2.09272,-2.03481 -2.80088,-1.17874 -0.8428,1.01886 -3.91194,2.22946 -5.66063,2.23346 -2.17146,0.005 -3.72612,-1.22725 -4.04214,-3.20342 -0.26072,-1.63049 -0.69078,-1.78344 -1.00407,-0.35709 -0.5253,2.39171 1.62274,4.98113 4.34909,5.24309 2.23417,0.21468 4.0369,-0.39475 5.50354,-1.86138 1.36609,-1.390254 0.98596,-1.455555 2.00504,0.11162 0.45884,0.70556 1.37367,1.64544 2.03295,2.08824 2.27606,1.52865 4.99319,0.76171 6.36188,-1.79575 0.51989,-1.316289 0.79863,-0.629819 1.67794,0.14211 1.3735,1.20591 3.336,1.40402 5.06275,0.51108 1.21025,-0.62585 2.45567,-2.85118 2.45567,-4.38837 0,-0.84858 0.15201,-1.07228 0.72864,-1.07228 1.10969,0 2.02959,-0.61729 2.61895,-1.757 0.97068,-1.87704 0.54491,-4.24057 -0.76377,-4.24057 z" fill="#00B894" transform="translate(71.529126,25.693726) matrix(2.8752456,0,0,2.8752456,-1509.0638,-43.879794)"/>
</svg>