<?xml version="1.0" ?><svg height="135.90561mm" viewBox="0 0 138.78894 135.90561" width="138.78894mm" xmlns="http://www.w3.org/2000/svg">
    <path color="#000" d="m 15763.252,510.08167 c -1.129,0 -2.272,0.0327 -3.426,0.0839 -73.879,3.3237 -66.781,65.7738 -66.781,65.7738 l -66.758,32.45538 60.669,103.86356 c 0,0 44.326,-29.56881 54.154,-21.4667 63.693,66.62912 139.143,-54.15241 114.524,-56.27818 0,0 -9.688,23.17015 -58.842,22.85161 -49.155,-0.31843 -35.157,-27.17906 -20.081,-39.55994 15.077,-12.38077 80.634,-15.33082 80.634,-15.33082 0,0 -22.907,-92.66765 -94.093,-92.39311 z m 31.081,238.7036 c -4.453,-0.012 -9.022,0.1162 -13.703,0.37855 -99.88,5.59692 -62.068,121.56747 -47.298,203.72354 -5.29,12.88216 175.213,44.75926 178.427,13.08069 16.126,-158.94425 -26.876,-216.94091 -117.426,-217.18278 z" fill="#FFFFFF" overflow="visible" paint-order="fill markers stroke" transform="translate(-49.403581,23.48648) matrix(0.26458333,0,0,0.26458333,-4071.241,-146.75774)"/>
    <path d="m 16015.916,436.35547 c -12.669,-0.19925 -13.027,13.0535 -8.111,21.1875 5.618,9.29649 -34.433,-12.39447 -62.342,-13.69922 -27.908,-1.30475 -28.27,16.79749 -11.053,22.17969 17.216,5.3822 0.543,16.14648 0.543,16.14648 -6.705,0.32621 -53.288,18.80038 -62.711,25.32422 -9.424,6.52384 0,26.37828 15.049,20.66992 15.042,-5.70836 34.07,-6.52344 34.07,-6.52344 0,0 -43.552,31.56463 -52.199,35.00196 -17.067,6.78477 -10.394,44.14592 9.248,33.17187 l 19.574,-10.9375 c 0,0.0136 0,0.0293 0,0.043 -0.202,0.24867 -26.828,32.94773 -27.55,42.20899 -0.725,9.29653 13.048,13.21045 20.841,5.54492 2.897,-2.84956 6.995,-5.33522 11.002,-7.33789 8.908,1.09194 -11.518,31.31383 -18.252,40.77344 -5.486,7.70784 -3.556,27.22473 2.35,31.46679 -17.651,35.09016 -31.255,76.76735 -38.736,112.84571 -0.146,2.4613 -0.502,5.79157 -0.793,7.40039 -0.991,5.50032 -1.318,17.07906 -0.618,21.87109 2.19,14.13224 17.549,28.38524 33.383,24.99609 1.51,-0.45804 3.391,-0.8345 4.178,-0.83984 32.415,-8.04199 59.899,-52.24935 90.147,-76.49414 1.855,-2.22575 3.567,-3.92967 3.8,-3.78516 -2.382,22.37865 7.138,39.74914 9.547,66.28907 1.568,12.67448 1.719,15.51452 2.018,37.75976 0.328,24.27856 0.339,26.46088 0.152,31.08008 0,12.47943 13.495,24.7506 18.156,7.27734 1.689,-11.01067 1.915,-52.29191 0.35,-63.82031 -0.313,-2.30165 -0.679,-5.31854 -0.813,-6.70313 -0.532,-5.47734 -1.967,-16.09347 -2.533,-18.74023 -0.59,-2.75664 -2.238,-11.36567 -3.644,-19.01953 -0.394,-2.15366 -1.131,-5.8038 -1.635,-8.11133 -2.246,-10.28593 -2.656,-12.41235 -3.623,-18.74023 -1.654,-10.83272 -2.013,-29.17017 -0.668,-34.12305 2.639,-7.90565 11.733,-8.41123 17.375,-12.83789 21.196,-11.14244 58.314,-20.22925 88.795,-12.94141 12.383,1.83795 24.778,8.72133 33.76,17.36719 8.965,9.78247 15.203,22.32532 21.744,34.12891 11.404,20.29143 17.498,65.27294 17.154,89.80078 0.529,10.45744 0.52,44.66568 -0.02,58.59765 l -0.522,13.56641 c 4.127,4.39388 8.054,4.68001 10.188,-1.98633 0.88,-1.86103 1.901,-5.1347 2.269,-7.27344 1.326,-7.54124 6.005,-16.44072 5.686,-25.98437 0.307,-3.23058 0.795,-6.37679 1.082,-6.99219 0.711,-1.52376 1.566,-35.13113 1.052,-41.39453 -0.226,-2.76906 -0.551,-7.80509 -0.722,-11.18945 -0.915,-17.33876 -4.693,-37.40259 -10.912,-55.15235 -1.675,-6.38319 -5.232,-11.82063 -6.383,-18.09961 28.851,23.62253 64.919,39.59463 93.91,53.88282 15.435,7.57209 35.448,-15.56147 33.31,-31.27149 0.32,-5.79109 -0.508,-14.82111 -0.349,-15.07812 -0.448,-12.89871 -3.05,-26.4208 -6.133,-40.28711 -5.128,-23.05526 -10.53,-51.27289 -19.676,-77.75781 -1.038,-3.23048 -2.55,-8.01363 -3.361,-10.62891 -1.805,-5.80722 -2.79,-8.52905 -4.172,-11.5293 -0.581,-1.26447 -1.057,-2.59071 -1.057,-2.94922 -0.187,-1.99923 -9.174,-14.92722 0.461,-11.6289 0.515,0.4624 1.821,1.00113 2.897,1.19726 46.025,12.06104 81.083,-13.31408 98.512,-38.28515 0.477,-2.47132 2.493,-14.46862 -7.729,-9.18555 -0.858,0.20604 -2.237,0.71832 -3.068,1.13672 -3.677,1.85145 -4.148,0.52042 -1.287,-3.63867 2.583,-3.78664 4.453,-8.58721 5.023,-13.23047 0,-3.03217 -0.181,-3.60014 -1.945,-5.72461 -6.346,-7.07701 -22.634,11.63382 -20.407,6.21289 1.278,-3.00451 1.75,-13.39775 0.665,-14.66602 -4.469,-5.31933 -13.787,-8.81027 -16.899,1.03907 -6.528,28.33375 -29.022,41.66217 -65.742,46.99609 -0.894,0.47841 -1.212,0.30105 -1.93,-1.08789 -3.658,-7.99963 6.026,-20.17459 11.471,-26.96094 3.572,-4.1532 2.686,-8.89711 -2.022,-10.78711 -6.008,-2.41219 -11.545,2.3596 -16.367,7.05078 -4.701,4.54689 -6.601,6.82914 -7.931,9.51172 -0.963,1.94075 -2.079,3.90566 -2.479,4.36719 -1.181,1.36313 -2.17,8.15857 -1.82,12.51172 0.288,3.58506 3.751,16.00508 4.859,17.41601 6.889,20.68805 29.098,97.77134 34.666,132.75782 1.529,6.73833 1.934,9.07359 3.416,19.67968 1.703,12.19444 1.583,30.49814 -0.24,36.36133 -0.526,1.69223 -1.378,4.43084 -1.893,6.08594 -3.962,9.63556 -10.106,5.74555 -15.523,2.8457 -26.703,-14.33273 -44.746,-26.31414 -71.721,-43.46679 -19.616,-14.46298 -41.441,-29.28037 -61.976,-44.05078 -8.611,-6.18674 -20.29,-7.89168 -29.77,-9.69532 -20.057,-3.81571 -45.106,-2.49319 -67.648,4.60938 3.691,-8.32607 3.857,-17.9871 3.406,-24.38672 23.248,8.68542 57.71,3.88491 87.943,-32.64063 5.107,-5.28622 11.942,-16.07064 11.942,-18.84961 0,-0.52687 0.491,-2.28901 1.093,-3.91601 2.377,-6.42022 2.701,-15.1876 0.776,-21.13867 -4.347,-11.92186 -13.121,-14.04073 -27.473,-6.70899 -13.817,5.84141 -26.12,11.95539 -41.73,15.33985 -10.503,0.0131 -21.997,-5.86771 -23.35,-11.94532 -0.722,-3.24997 -0.208,-2.95955 2.373,-5.43359 4.093,-4.03429 10.357,-6.27489 15.588,-9.10156 22.466,-11.46664 57.885,-9.06257 69.416,-17.86133 1.481,-2.38311 1.651,-3.19412 1.959,-9.32227 0.326,-6.71632 -4.148,-19.41411 -4.697,-24.8125 7.045,-2.59667 11.614,-6.50816 15.642,-12.6289 2.303,-5.61315 -3.799,-12.30976 -7.92,-10.10547 -3.942,2.17881 -7.94,4.35911 -14.607,7.33203 -5.495,-11.24353 -17.886,-25.78552 -31.939,-35.08594 0.434,-7.1724 1.151,-34.7619 -12.846,-42.40429 -16.129,-8.80723 -18.123,0.16338 -19.029,10.27539 -0.906,10.11202 -17.397,-16.31121 -36.063,-21.36719 -2.332,-0.63178 -4.393,-0.93404 -6.203,-0.96289 z m 27.822,52.17969 v 0 c 18.795,1.54939 36.345,9.14972 47.446,20.72265 1.78,1.39711 2.927,3.41694 4.308,4.74805 3.46,3.31499 3.384,5.25509 -0.1,2.44531 -0.869,-0.70231 -2.672,-1.97823 -4.006,-2.83594 -2.232,-1.43523 -2.711,-1.52947 -5.977,-1.17968 -4.471,0.47873 -5.291,1.85653 -3.113,6.19922 4.181,5.41255 9.297,12.77511 17.998,11.65429 0.822,-0.42472 1.638,-1.158 1.82,-1.63086 0.616,-1.60641 2.53,-0.95286 3.994,1.36524 0.773,1.22471 1.409,2.5917 1.409,3.03711 0,0.8637 -5.422,3.64784 -9.459,4.85742 -5.273,2.17804 -3.902,4.79634 -1.127,7.54492 3.418,3.07159 8.069,7.06854 15.545,3.93945 1.069,-0.96629 1.133,-0.95651 1.929,0.30469 1.418,5.30833 1.261,9.04521 1.588,14.85547 0.46,2.5799 -2.772,2.2985 -6.111,3.10547 -22.453,5.01484 -41.16,5.09736 -70.795,20.90234 -7.049,3.97787 -17.493,11.41814 -4.293,28.50196 15.035,19.01869 36.954,22.29416 56.777,12.8457 9.852,-5.05176 16.949,-6.48682 25.174,-9.81836 0.189,-0.30765 0.959,-0.55859 1.709,-0.55859 1.99,0 1.923,0.96373 -0.639,8.94921 -0.543,1.69212 -2.217,5.13973 -3.724,7.66016 -4.299,7.19277 -12.05,17.63843 -20.953,24.91016 -15.005,12.35257 -39.253,18.12022 -56.651,12.43945 -3.271,-1.08565 -20.738,-10.71815 -18.302,-12.37891 4.185,-2.70448 9.783,-11.86036 6.525,-16.58007 -0.608,-0.77201 -1.106,-2.19473 -1.106,-3.16211 -8.606,-14.4877 -22.654,-41.39122 -29.777,-41.97461 -2.512,-0.95322 -5.39,-0.92028 -11.617,0.13476 -0.462,0.0784 -0.965,-0.0923 -1.119,-0.37695 -0.153,-0.28521 1.481,-1.3939 3.635,-2.46289 7.01,-3.48095 17.669,-4.0459 14.757,-13.70313 -0.675,-2.58719 -3.335,-3.99662 -6.578,-3.49023 -1.116,0.17403 -3.275,0.124 -4.804,-0.10938 -2.735,-0.41677 -2.789,-0.46165 -3.258,-2.83398 -0.434,-2.1959 -0.344,-2.53333 1.004,-3.7832 1.229,-1.13879 1.419,-1.67914 1.115,-3.17774 -0.923,-4.53066 -1.554,-6.02857 -4.055,-9.66601 -4.029,-6.6596 -9.09,-12.98635 -14.742,-17.73243 -2.018,-1.79435 -3.319,-2.15906 -4.74,-1.93359 13.08,-8.08618 23.074,-24.60529 24.09,-28.34961 1.046,-3.8536 18.869,2.55425 22.105,-6.18359 1.51,-4.07623 2.329,-9.31981 2.549,-13.82227 0.07,-0.0218 0.139,-0.0448 0.209,-0.0664 7.156,5.10432 14.071,10.85255 22.603,9.17578 9.041,-1.77656 11.301,-6.76786 8.754,-12.48828 z m 5.145,37.30664 c -2.372,-0.0327 -4.235,1.33984 -4.143,5.01562 0.503,5.4376 4.342,12.53496 9.35,14.92188 15.982,4.29859 5.456,-19.30032 -5.207,-19.9375 z m -86.52,31.79101 c 0.638,0.0162 1.162,0.44893 1.696,0.94531 2.279,2.45826 3.562,5.23663 5.181,8.17579 0.402,0.72911 0.576,1.57636 0.387,1.88281 -4.933,-1.1022 -31.128,3.80999 -43.939,20.13476 -3.015,3.07671 -5.745,5.59571 -6.069,5.59571 -0.933,-0.14168 -4.082,-7.93895 -4.269,-9.48438 11.279,-10.8728 35.991,-22.54713 45.716,-26.75195 0.491,-0.36661 0.915,-0.50775 1.297,-0.49805 z m 6.842,25.99414 c 3.509,0 2.994,1.29558 -1.371,3.44727 -11.743,6.03242 -23.686,16.49531 -34.572,24.06445 -0.21,-0.3414 0.02,-1.06411 0.509,-1.60742 0.491,-0.54321 0.895,-1.14481 0.895,-1.33594 1.678,-9.80588 23.609,-21.77251 34.539,-24.56836 z m 21.049,33.11524 c 1,0 1.669,0.95474 3.633,5.17383 3.201,6.87402 3.922,8.21622 9.724,18.05859 4.074,6.90821 3.086,8.46404 -9.369,14.75195 -8.448,4.28563 -15.369,8.91095 -23.928,13.41602 -3.658,1.9756 -5.46,2.18213 -6.64,0.76367 -5.161,-6.46476 -9.273,-12.07309 -13.904,-21.44141 0,-0.51489 2.925,-2.58746 6.941,-4.91796 9.411,-5.51243 23.118,-13.2539 29.42,-21.56641 0,-1.34037 2.819,-4.23828 4.123,-4.23828 z m -62.66,52.13476 c 2.98,0.17987 4.384,2.11303 3.008,6.5625 -4.893,15.82033 -20.843,41.80176 -2.901,44.52539 18.377,2.78967 28.084,-10.14349 32.861,-20.63476 -2.081,18.24523 9.461,38.59368 21.131,24.80859 14.498,-17.12517 27.727,-29.68301 25.371,-9.13281 -0.371,3.23841 -0.37,5.87858 -0.07,7.97852 -3.015,1.81046 -5.907,3.7584 -8.635,5.86132 -10.22,8.63039 -20.529,14.59084 -28.254,24.72071 -15.648,17.27789 -30.513,36.16129 -47.781,51.92968 -13.239,9.35307 -33.81,37.04579 -49.846,36.86329 -5.209,-1.01194 -6.821,-8.9721 -5.25,-25.98633 5.171,-49.01995 28.564,-97.17494 50.221,-140.33399 0.928,-1.75067 1.899,-3.59564 2.961,-5.60742 2.813,-1.07991 5.312,-1.66755 7.182,-1.55469 z" fill="#00B894" transform="translate(-49.403581,23.48648) matrix(0.26458333,0,0,0.26458333,-4071.241,-146.75774) translate(-271.76436,29.55388)"/>
</svg>