<?xml version="1.0" ?><svg height="101.8856mm" viewBox="0 0 181.03586 101.8856" width="181.03586mm" xmlns="http://www.w3.org/2000/svg"><path color="#000" d="m 1982.1836,697.78125 -90.6934,21.33203 -18.1113,37.19727 c -1.3378,8.088 32.9981,26.70312 32.9981,26.70312 l 87.6406,-26.08594 -32.3106,-25.99218 z m -354.9199,4.83594 A 163.84444,146.1429 0 0 0 1463.4199,848.75977 163.84444,146.1429 0 0 0 1627.2637,994.9043 163.84444,146.1429 0 0 0 1791.1094,848.75977 163.84444,146.1429 0 0 0 1627.2637,702.61719 Z" fill="#FFFFFF" overflow="visible" paint-order="fill markers stroke" transform="translate(361.29795,72.180447) matrix(0.32912868,0,0,0.32912868,-840.63659,-299.40535)"/><path d="m 1509.9759,961.72099 c -18.9302,-11.7045 -36.3698,-35.5862 -45.2185,-59.5253 -5.4288,-15.1413 -7.3191,-26.2961 -8.1465,-48.074 -1.3339,-35.1064 3.2449,-58.6072 14.8206,-76.0675 14.3243,-21.6061 28.3022,-37.1701 37.6926,-41.9693 2.7504,-1.4057 6.1356,-3.94548 7.5226,-5.64398 37.9821,-31.6761 83.1389,-33.2092 127.8222,-35.4152 6.3206,1.9926 23.7466,1.1241 28.4669,3.4703 0.6787,0.4106 4.0922,1.1292 7.5855,1.5965 38.4607,8.132 51.078,18.962 68.6485,36.66658 11.1285,11.1637 25.6499,27.1553 25.6595,28.2573 0,0.4512 1.3509,2.5285 2.9933,4.6164 1.6423,2.0879 3.9763,5.6188 5.1866,7.8465 2.3398,4.3063 3.9586,4.5158 11.1606,1.4439 9.7392,-4.154 21.8569,-8.736 28,-10.5872 8.7962,-2.6509 22.2386,-7.7323 31.3334,-11.8444 4.0333,-1.8237 8.5751,-3.6923 10.0928,-4.1524 6.2188,-9.7488 12.1835,-20.81318 17.2405,-30.58228 4.7735,-9.2756 6.6319,-11.136 9.088,-9.0976 1.2974,1.0768 6.5959,0.2463 20.3333,-3.1868 10.2183,-2.5536 20.0787,-5.213 21.912,-5.9097 1.8334,-0.6967 6.0131,-1.6375 9.2884,-2.0907 3.2752,-0.4532 6.9423,-1.3524 8.149,-1.9982 1.2068,-0.6458 4.227,-1.4498 6.7117,-1.7864 5.6397,-0.7643 14.3342,-3.315 17.8509,-5.2368 6.3492,-3.4699 12.9026,-2.5023 16.0996,2.377 2.0398,3.1132 1.9175,3.6056 -2.7901,11.2327 -3.442,7.4399 -13.129,14.9409 -14.5718,22.2261 -0.8511,4.53698 -1.7792,2.4016 2.8742,7.05078 10.4138,12.863 44.6211,23.5147 24.3471,27.551 -15.3633,-0.1516 -86.2151,29.5932 -96.9282,21.6295 -11.9103,-5.0732 -12.9622,-6.3185 -29.2732,-16.4106 -15.3863,5.4237 -35.5303,13.8682 -63.8361,22.7157 -1.4235,1.0767 -3.6197,1.9767 -4.8804,2 -2.3171,0.043 -13.0411,5.1576 -13.0411,6.2199 0,0.3161 0.8413,2.5882 1.8695,5.049 1.0282,2.461 3.2117,10.283 4.8522,17.3824 2.5847,11.185 2.881,15.2542 2.2199,30.483 -6.027,91.2258 -80.3805,142.4505 -153.2867,147.1609 -62.4161,4.03271 -101.3447,-6.4139 -137.8488,-37.3971 z m 136.1939,21.0816 c 12.8661,-3.7776 30.0558,-4.5163 41.3334,-9.2178 13.0871,-5.5655 24.0593,-10.8182 24.4444,-11.7022 0.2445,-0.5612 1.0683,-1.0202 1.8307,-1.0202 32.6512,-15.5688 47.977,-43.2051 60.0572,-78 4.511,-12.9933 5.5744,-17.5092 5.6206,-36.554 0.035,-14.4388 -0.5878,-22.1048 -2.4184,-29.7716 -2.4045,-10.0704 -2.5528,-10.3055 -6,-9.5104 -6.5479,3.9469 -14.877,4.7697 -21.3305,7.934 -3.5997,1.7958 -4.0829,2.6122 -3.3538,5.6666 0.4685,1.9628 1.1782,4.1384 1.5772,4.8347 0.399,0.6963 0.8466,2.4963 0.9947,4 0.1481,1.5037 1.3569,7.534 2.6863,13.4007 1.1849,29.0747 -3.0321,49.6077 -16.6595,66.6848 -9.3679,11.6635 -21.1697,25.501 -26.3526,28.2896 -2.0697,1.1134 -7.663,4.0665 -12.4297,6.5622 -4.7666,2.4959 -11.7612,6.2211 -15.5435,8.2784 -3.7823,2.0572 -7.6823,3.7535 -8.6667,3.7694 -58.1294,23.1249 -127.2941,4.9973 -154.1964,-52.2511 -2.4013,-3.6667 -4.7248,-8.1667 -5.1635,-10 -0.4387,-1.8333 -1.3168,-3.9972 -1.9515,-4.8085 -2.9761,-3.8051 -6.8794,-28.3083 -6.7741,-42.5248 0.096,-12.9916 0.6371,-16.2656 4.7356,-28.6667 5.9216,-17.9169 11.3203,-26.7031 25.1038,-40.8549 37.8313,-40.502 110.958,-54.12438 153.4382,-25.7303 7.8459,3.415 17.5201,11.347 22.8689,16.5852 8.937,7.8212 17.6579,15.631 23.7066,25.3333 2.2522,3.6667 4.2061,6.7996 4.342,6.9622 0.3867,0.4624 17.0974,-5.5887 20.3463,-7.3676 1.6018,-0.877 3.8706,-1.5946 5.0419,-1.5946 1.1712,0 2.4438,-0.8192 2.8281,-1.8205 -3.1588,-14.6012 -15.0378,-27.2526 -23.9293,-38.1795 -24.9222,-21.61528 -51.477,-39.66248 -81.7003,-40.58728 -69.8813,-5.5558 -147.5594,15.0295 -177.4349,83.92068 -4.6752,10.998 -7.5019,36.7362 -6.5603,59.7334 0.4459,10.8918 1.0812,20.2408 1.4116,20.7756 0.3305,0.5347 0.8935,3.339 1.2511,6.2316 0.8989,7.2708 7.0657,21.866 14.9154,35.3008 8.8403,15.1302 26.5799,32.9692 42.5997,42.8388 25.5205,16.8501 57.519,24.9155 84.6646,24.4323 10.6334,-0.2959 21.7334,-0.9133 24.6667,-1.3723 z m -1.3333,-32.9788 c 7.2291,-1.1801 14.3982,-4.8765 20.6667,-6.8666 13.7927,-4.3487 27.8115,-13.5272 41,-26.8443 23.0334,-22.9342 29.8662,-52.1706 22.0377,-85.4393 -2.563,-8.2674 -0.4849,-7.9739 -7.2264,-5.749 -7.1492,1.7285 -12.9027,3.9482 -19.4209,6.7378 l -0.8493,18.2666 c -0.7908,17.009 -2.169,24.8838 -5.9328,33.8995 -11.2474,16.2379 -22.2675,22.945 -37.5796,30.7474 -35.9848,14.5506 -83.5834,14.1957 -104.6609,-34.185 -7.6363,-16.142 -7.2356,-38.3657 0.9652,-53.5285 0.7933,-1.4667 2.86,-5.488 4.5928,-8.9363 19.4137,-32.4559 41.3598,-41.6111 70.4075,-42.2144 11.6924,-0.2257 16.0637,0.2363 21.5556,2.2783 11.9639,1.7444 21.4683,7.5987 31.4097,17.826 6.8411,7.0379 10.4487,14.8191 14.0046,19.6043 0.9074,-0.7178 10.4134,-3.5318 15.3634,-5.1558 5.4934,-1.8024 9,-3.6897 9,-4.8441 -7.7919,-21.0072 -23.0438,-31.1918 -37.743,-40.1578 -2.0585,-1.6456 -9.5443,-5.2386 -18.9236,-9.083 -37.0772,-10.1548 -79.2498,2.3921 -99.843,16.7684 -63.4248,44.1296 -43.6345,115.3023 -11.5911,147.5385 16.0926,16.1895 28.2435,23.473 49.434,28.7652 7.1218,1.8283 37.1376,2.2245 43.3334,0.5721 z m -16,-45.0676 c 5.485,0.1778 16.2563,-2.3985 22.5838,-5.4018 2.8877,-1.3706 5.9532,-2.492 6.8123,-2.492 0.859,0 4.4312,-2.5258 7.9383,-5.6128 7.0693,-6.2227 13.9962,-19.0459 13.9979,-25.9132 0,-4.0892 -0.1387,-4.1855 -5.6656,-3.9026 -12.8157,0.6559 -12.6729,0.6104 -13.6049,4.3238 -6.5527,13.6299 -24.278,21.7752 -36.0161,22.3257 -18.1498,-0.6645 -39.3036,-13.2058 -38.0457,-40.0516 0.5518,-24.7047 37.9568,-38.0065 49.6895,-27.8193 3.156,0.5068 4.3485,-0.3192 8.2468,-5.7122 6.4939,-4.7629 8.4987,-10.6753 14.3578,-11.8726 4.0615,-2.5101 10.4154,8.2693 10.1208,16.1058 -0.1,2.6442 0.139,5.1274 0.5299,5.5182 1.0335,1.0334 7.7219,-2.2486 7.7219,-3.7891 0,-2.6233 -7.5352,-16.0379 -12.2532,-20.2916 -4.1707,-3.7603 -7.8149,-7.5609 -22.7288,-11.5245 -25.3152,-6.7279 -48.0249,8.979 -61.6662,25.7613 -4.602,4.3345 -6.6908,11.0669 -9.8954,15.6151 -4.8888,6.8656 -7.2382,31.8862 -3.9101,41.6406 7.3506,26.4357 28.7774,34.4919 48.4536,33.7308 5.1334,-0.4222 11.1334,-0.7093 13.3334,-0.638 z m 9.4592,-36.5589 4.7074,-4.8316 -16.1902,-1.9998 c -9.2151,-1.8755 -16.0999,-2.0747 -16.4629,-9.8974 -0.6174,-8.3699 24.5063,-22.798 15.6605,-20.6765 -2.1124,0.5345 -5.4271,1.1209 -7.3661,1.303 -9.0841,0.853 -17.1413,7.764 -17.1413,14.703 -3.4655,15.8339 5.6679,21.4348 15.9814,26.3056 7.5675,1.948 15.8417,-0.6858 20.8112,-4.9063 z m 269.8265,-95.8183 c -1.0738,-0.9992 -4.6524,-3.2301 -7.9524,-4.9577 -3.3,-1.7276 -7.0641,-4.0159 -8.3648,-5.0852 -1.8086,-1.4868 -2.7326,-1.5764 -3.9283,-0.3805 -1.1958,1.1957 -0.9532,2.0457 1.0315,3.614 2.5432,2.0097 8.3488,4.9601 10.195,5.181 0.5133,0.061 1.6833,0.8618 2.6,1.7784 0.9166,0.9167 3.1752,1.6667 5.019,1.6667 2.8959,0 3.0866,-0.2473 1.4,-1.8167 z m 29.381,-9.4141 c 0,-0.8831 -8.1087,-8.7692 -9.0167,-8.7692 -0.4463,0 -2.0501,-1.1341 -3.5641,-2.5203 -1.9712,-1.8049 -3.999,-2.3272 -7.1437,-1.8402 -6.9929,1.083 -5.5644,2.625 10.3714,11.1949 4.2294,2.2744 9.3531,3.3344 9.3531,1.9348 z m 40.4101,-5.4409 c 2.1401,-0.8932 1.916,-1.4287 -2,-4.7795 -4.091,-4.0431 -19.3382,-11.8029 -20.0827,-13.4202 -3.0525,0.2386 -6.4808,1.9059 -9.3649,2.2797 -8.432,1.056 -11.6292,2.1642 -11.6292,4.031 2.4552,2.2637 5.9757,4.972 9,6.578 2.75,1.4431 5.4174,3.2122 5.9275,3.9314 2.1899,3.087 2.4359,-0.8158 0.3309,-5.2516 -4.5144,-9.5134 3.0576,-8.7371 10.4239,1.0688 1.7494,2.3288 3.54,5.2121 3.9792,6.4073 0.6429,1.7495 1.7935,1.9771 5.9019,1.1671 2.8068,-0.5535 6.1878,-1.4588 7.5134,-2.012 z m -55.7382,11.5567 c 5.9416,-1.4869 -17.7219,-12.2091 -19.0053,-12.1979 -1.994,0.017 -2.0425,0.2084 -0.3333,1.3129 2.5163,1.6261 15.1112,11.943 19.3386,10.885 z m -27.5893,-28.9725 c 2.1,-1.1752 10.2483,-14.67688 7.1262,-15.86398 -1.9166,-0.7286 -4.6109,-0.3541 -6.9366,0.6487 -1.3334,0.5192 -5.9857,7.1384 -7.9167,11.96948 -1.319,3.3 -2.1358,6.4377 -1.815,6.9726 5.2427,-1.3753 7.4983,-2.6089 9.5421,-3.7268 z m 15.8226,-6.1105 c 1.3698,-1.1368 7.0948,-11.08208 7.0948,-12.32478 0,-0.2424 -1.5231,-0.1496 -3.3846,0.2063 -2.0804,0.3977 -4.1955,2.253 -5.4893,4.815 -1.1576,2.2926 -3.3845,5.6028 -4.9488,7.35618 -3.1198,3.3901 -1.136,3.4454 1.1485,2.2261 2.1959,-0.5289 4.7067,-1.5545 5.5794,-2.2788 z m 27.895,-18.86148 c -0.5634,-0.9114 -4.6779,-0.4522 -5.0633,0.7871 -1.0495,2.9152 -13.0096,22.22798 -0.5854,12.5166 1.6201,-1.3814 6.1323,-12.5211 5.6487,-13.3037 z m 23.5331,1.369 c 5.3637,-5.6996 6.4637,-8.5567 2.6667,-6.926 -1.2834,0.551 -3.457,1.0438 -4.8303,1.0949 -1.3819,0.052 -3.934,2.3695 -5.7147,5.1903 -5.8398,9.2506 -0.6234,9.6749 7.8783,0.6408 z" fill="#00B894" transform="translate(361.29795,72.180447) matrix(0.32912868,0,0,0.32912868,-840.63659,-299.40535)"/></svg>