<?xml version="1.0" ?><svg height="265.33212mm" viewBox="0 0 298.58411 265.33212" width="298.58411mm" xmlns="http://www.w3.org/2000/svg"><path color="#000" d="m 16947.912,5713.2441 c -51.82,-0.1528 -83.652,28.3762 -93.435,111.3887 -4.642,52.1126 30.503,99.6566 85.033,102.0879 54.53,2.4313 82.314,-51.4519 92,-100.2324 9.687,-48.7804 -23.701,-111.1004 -78.522,-113.1406 -1.713,-0.064 -3.404,-0.099 -5.076,-0.1036 z m 279.244,79.877 c -5.064,0 -10.245,0.2996 -15.519,0.9082 -56.264,6.4917 -77.329,47.6169 -83.469,107.5762 0,0 -1.784,83.3399 77.562,99.291 79.346,15.951 114.929,-51.9939 111.426,-118.5801 -3.175,-60.3437 -41.049,-89.1553 -90,-89.1953 z m -580.279,89.1055 c -3.979,0.052 -7.839,0.4742 -11.533,1.3007 -47.281,10.5793 -68.462,41.8403 -67.41,140.0118 30.111,78.3255 103.236,86.2273 147.345,59.5214 44.109,-26.7059 41.864,-51.1469 41.924,-102.8222 0.06,-47.6382 -63.372,-98.6244 -110.326,-98.0117 z m 347.518,99.3476 c -13.862,-0.1595 -28.635,1.3225 -43.467,3.3106 -67.805,9.0883 -86.024,6.8625 -88.414,97.3769 -2.391,90.5143 1.03,226.0949 -16.362,273.2246 0,0 122.295,45.0519 168.317,-40.3808 46.022,-85.4327 38.681,-96.7038 54.756,-217.2637 12.559,-94.1874 -25.324,-115.698 -74.83,-116.2676 z m 241.714,54.457 c -4.308,-0.05 -8.694,0.033 -13.138,0.2305 -71.102,3.1531 -87.058,22.0239 -94.877,65.7676 -7.819,43.7437 -43.618,179.0621 -39.496,260.6719 40.601,115.5521 151.322,52.4804 151.322,52.4804 0,0 22.463,-74.0368 66.519,-215.1425 41.303,-132.2867 -5.706,-163.2521 -70.33,-164.0079 z m -497.527,84.627 c -11.94,-0.01 -25.794,2.439 -41.869,7.5859 -64.301,20.5879 -70.874,51.4695 -59.176,122.0879 11.698,70.6184 36.607,156.8846 40.356,271.7676 164.708,-0.2982 152.058,-52.9336 152.058,-52.9336 0,0 -14.222,-239.0793 -27.205,-288.9726 -9.738,-37.4201 -28.343,-59.5135 -64.164,-59.5352 z" fill="#FFFFFF" overflow="visible" paint-order="fill markers stroke" transform="translate(-197.14705,-152.05118) matrix(0.26458333,0,0,0.26458333,-4132.3422,-1000.3841) translate(-33.44289,-1165.0869)"/><path d="m 16644.446,5357.0123 c -1.715,-0.7784 -3.359,-2.0465 -3.656,-2.8181 -0.944,-2.4595 -2.916,-18.5438 -4.231,-34.5165 -4.534,-31.1096 -6.901,-59.0826 -12.222,-87.4528 -8.152,-60.6797 -26.811,-116.0686 -35.699,-170.5487 -0.407,-2.6052 -1.228,-7.142 -1.826,-10.0818 -1.87,-9.1939 -2.274,-24.6583 -0.91,-34.8175 1.264,-9.4191 1.001,-14.3215 -0.853,-15.86 -0.694,-0.5757 -5.692,-1.1243 -13.404,-1.4711 -6.762,-0.3042 -16.574,-0.9288 -21.802,-1.3881 -13.167,-0.4296 -26.593,-2.4469 -38.528,-4.9467 -6.213,-1.2927 -16.321,-4.1144 -22.882,-6.3873 -20.801,-8.5851 -46.19,-13.3761 -62.924,-28.2203 -1.256,-1.1863 -2.967,-2.3627 -3.803,-2.6142 -13.896,-14.9556 -33.564,-30.8496 -41.641,-49.9006 -1.547,-3.9005 -2.446,-5.7546 -3.682,-7.6046 -2.324,-3.4731 -7.843,-20.1245 -9.074,-27.3764 -2.443,-14.3906 -2.948,-17.9085 -3.441,-23.9546 -0.76,-9.3426 -0.504,-35.2105 0.463,-46.6639 6.471,-26.3814 9.326,-44.8891 22.901,-75.302 0.766,-0.9974 1.393,-2.2174 1.393,-2.7109 0,-0.9953 -4.656,-3.5777 -7.583,-4.2055 -2.383,-0.5109 -4.489,-5.6488 -4.528,-11.042 -0.11,-15.216 10.88,-47.1727 18.596,-54.073 1.453,-1.2992 2.641,-2.7535 2.641,-3.232 0,-0.4785 0.559,-0.87 1.241,-0.87 0.683,0 2.318,-0.6654 3.635,-1.4788 1.918,-1.1858 2.964,-1.3498 5.278,-0.8281 3.119,0.7035 5.529,2.488 6.196,4.5862 0.252,0.7924 -0.955,3.5435 -3.024,6.8989 -1.892,3.0694 -3.44,6.167 -3.44,6.8835 0,0.7165 -0.683,2.8995 -1.521,4.8509 -0.836,1.9515 -1.521,4.6899 -1.521,6.0851 0,1.3953 -0.489,3.5057 -1.086,4.6899 -2.332,4.6236 -5.202,18.8358 -4.729,23.4154 0.335,3.2456 2.004,4.7327 2.025,1.8046 0,-0.9759 0.7,-4.3409 1.537,-7.4778 0.838,-3.1369 1.879,-8.4411 2.313,-11.7871 0.434,-3.346 1.247,-7.1102 1.808,-8.3651 0.56,-1.2547 1.612,-4.3345 2.339,-6.8441 0.726,-2.5095 2.452,-7.4629 3.835,-11.0076 2.145,-5.4985 2.849,-6.5595 4.787,-7.2244 1.249,-0.4287 2.524,-1.0361 2.832,-1.3498 0.311,-0.3136 3.047,-0.5703 6.084,-0.5703 5.058,0 5.654,0.1678 7.098,2.0037 0.867,1.102 1.576,2.9841 1.576,4.1826 0,1.5911 0.369,2.1787 1.369,2.1787 0.752,0 1.694,-0.2954 2.09,-0.6566 1.854,-1.684 5.545,-2.2477 8.367,-1.2777 4.668,1.6052 6.176,6.5413 3.763,12.3179 -0.627,1.5015 -1.141,3.3772 -1.141,4.1684 0,0.791 -0.414,2.1025 -0.921,2.9143 -1.364,2.1824 -0.116,2.7967 2.519,1.2405 4.916,-2.9039 11.11,0.9989 9.161,5.7724 -2.84,6.9556 -2.769,6.5455 -1.405,8.0522 0.711,0.7858 1.292,2.365 1.292,3.5093 0,2.129 -6.596,15.6705 -7.634,15.6705 -0.668,0 -4.307,2.9755 -8.602,7.0342 -1.659,1.5685 -3.533,2.8517 -4.165,2.8517 -0.632,0 -2.91,0.9941 -5.063,2.2093 -5.367,3.0288 -11.226,3.6924 -15.053,1.7051 l -2.876,-1.4929 -1.979,2.4815 c -13.356,22.3002 -28.908,67.978 -28.046,95.0972 0.123,2.9279 0.305,10.6276 0.406,17.1105 0.106,6.7977 0.597,13.2356 1.164,15.209 0.541,1.8822 1.376,6.0307 1.855,9.219 4.497,39.7228 26.927,58.9092 45.025,76.5469 16.978,15.3048 39.574,26.5994 61.471,32.0708 17.531,5.9474 31.643,8.0863 48.669,10.252 10.158,1.3238 18.232,2.0005 31.179,2.6136 l 14.829,0.7021 c 27.896,-21.5396 48.828,-21.9566 85.249,-36.4625 5.395,-2.1548 13.059,-4.5709 17.032,-5.3693 17.844,-3.5853 21.852,-3.8215 30.419,-1.7923 7.71,1.8265 9.632,1.5703 15.209,-2.027 4.588,-2.9594 14.153,-8.1076 23.194,-12.4834 17.518,-9.6834 29.5,-16.1561 45.248,-24.2177 3.794,-1.9427 6.08,-4.2012 6.101,-6.0287 0.302,-17.8835 8.966,-34.0664 11.16,-47.4311 0.394,-2.9296 0.287,-3.1531 -1.729,-3.6592 -20.903,-16.4362 -32.335,-26.8355 -52.749,-50.9654 -9.695,-13.6453 -34.851,-37.6406 -47.766,-88.1164 -10.166,-29.9798 -10.497,-66.4145 -5.566,-92.2328 16.141,-84.4936 26.179,-96.8388 51.955,-144.064 12.678,-19.0514 28.3,-26.0646 20.549,-29.2643 -8.548,-8.4193 -21.3,-17.5603 -21.971,-23.0497 -0.362,-3.9972 -0.136,-5.7084 1.203,-9.0763 4.813,-10.149 6.087,-14.5475 19.511,-25.6977 8.412,-5.9498 15.475,1.556 11.842,8.0779 -1.415,2.5205 -1.493,3.0863 -0.582,4.3313 0.99,1.3549 1.224,1.2466 4.354,-2.0198 1.82,-1.8983 4.334,-3.9431 5.588,-4.544 9.184,-10.0492 8.959,-4.8171 19.565,-4.5146 1.126,0 2.711,0.7105 3.52,1.5787 1.303,1.3982 1.806,1.4845 4.402,0.7546 10.201,-3.0103 11.91,3.3045 11.262,7.0884 l -0.506,2.6929 3.815,-0.4517 c 13.768,-0.7445 14.157,12.7619 5.037,22.5914 -2.83,2.6581 -4.284,13.5485 -2.537,14.8387 0.496,0.3073 1.199,0 1.59,-0.7015 4.617,-2.3355 13.08,-1.278 12.631,6.7667 -0.567,15.2467 -16.998,25.3092 -28.357,30.351 -3.502,1.5403 -14.273,2.7271 -19.799,2.1817 -4.748,-0.4685 -11.543,-3.0411 -14.086,-5.3321 -5.041,-3.9953 -9.677,7.1156 -12.721,10.3456 -14.158,22.3145 -26.615,47.6112 -37.825,73.4557 -7.759,25.3602 -15.507,49.1551 -17.808,74.525 -0.9,32.6788 -0.02,66.0404 13.62,96.5781 12.169,27.1578 27.561,49.4647 47.036,71.6553 2.374,2.6838 4.83,5.8329 5.458,6.9983 1.92,3.5657 17.523,19.5931 21.618,22.2057 2.121,1.3534 4.825,3.2536 6.007,4.2228 13.755,4.1139 19.643,-8.6163 33.643,-11.926 33.563,-7.0026 61.716,-11.4811 98.025,-9.1255 4.855,0.3483 5.326,0.2523 5.588,-1.1407 0.159,-0.8365 0.724,-2.5475 1.255,-3.8024 0.532,-1.2546 1.428,-3.8212 1.992,-5.7033 5.751,-13.7421 11.868,-4.433 20.167,-5.7802 2.293,-0.4192 2.381,-0.3318 2.891,2.8607 l 0.527,3.2931 4.144,-7.9141 c 2.279,-4.3527 4.144,-8.0001 4.144,-8.1052 24.675,-50.6517 51.383,-108.2247 59.662,-159.64 8.45,-52.4723 8.476,-108.4666 4.884,-186.4228 -0.462,-0.5573 -1.15,-0.8229 -1.526,-0.5901 -0.376,0.2328 -3.031,1.0733 -5.897,1.8681 -18.487,14.425 -40.963,-9.6399 -46.237,-28.5362 l -1.366,-5.1294 2.654,-2.2165 c 5.93,-5.4917 0.06,-12.1356 0,-19.4877 0,-2.9574 0.379,-4.0638 1.875,-5.4687 1.714,-1.6107 2.307,-1.7167 6.954,-1.2407 2.794,0.2862 5.641,0.8203 6.325,1.1865 1.512,0.8094 4.618,6.8313 4.618,8.9551 0,0.8439 0.509,1.9572 1.132,2.4737 1.94,1.6104 2.135,-0.8613 0.486,-6.1654 -0.83,-2.6696 -1.729,-7.1396 -1.999,-9.9333 -0.461,-4.7853 -0.383,-5.1492 1.337,-6.2763 2.807,-1.8395 9.661,-3.6453 11.799,-3.1088 1.493,0.375 2.457,-0.047 4.389,-1.9184 1.905,-1.8463 2.868,-2.2743 4.18,-1.8577 7.917,0.5258 15.259,4.7577 21.512,8.0997 0.969,0.5421 1.843,0.4346 3.085,-0.3791 2.861,-1.8745 8.44,-2.3888 10.471,-0.9655 0.957,0.6707 2.289,1.2195 2.96,1.2195 2.108,0 4.262,3.2203 6.106,9.1255 1.491,4.779 1.756,7.1354 1.635,14.5378 -2.756,9.3431 -1.095,37.6893 -13.093,41.1937 -1.956,0.5117 -1.968,2.6258 -0.06,10.2584 9.543,81.0582 -1.051,170.0485 -16.181,230.0452 -19.121,42.9468 -24.331,86.2702 -50.497,120.2478 -2.334,2.9657 -2.158,4.2744 0.908,6.7194 2.13,1.6998 2.661,2.6906 2.85,5.3231 l 0.234,3.2345 5.704,1.9012 c 8.896,2.9652 9.34,3.3262 8.708,7.0916 -0.949,5.6524 -2.657,11.4501 -4.563,15.485 -1.025,2.1698 -1.863,4.3315 -1.863,4.8035 0,0.4721 -0.857,1.9799 -1.902,3.3508 -1.899,2.49 -2.523,6.0575 -1.201,6.874 2.471,1.5272 8.468,16.995 10.756,27.7421 1.202,5.647 2.28,6.6658 7.712,7.2852 16.496,4.6089 35.635,5.1036 50.595,5.0249 10.904,-2.6569 21.958,-8.1012 33.284,-11.9181 20.287,-5.7951 85.004,-18.2734 116.953,-4.6919 14.016,6.2608 21.571,11.8277 29.556,23.4961 14.985,-6.4509 29.781,-15.358 41.7,-23.9858 33.425,-24.7881 57.169,-53.3735 76.53,-86.8779 29.416,-50.9059 47.434,-106.6175 53.899,-167.2161 0.276,-2.9277 0.813,-6.5476 1.191,-8.0441 0.378,-1.4963 0.88,-7.3143 1.113,-12.9288 0.176,-2.402 -1.608,-22.8898 -6.877,-23.5139 -0.492,0 -2.484,1.7508 -4.426,3.8908 -5.922,10.0185 -30.507,-6.6443 -22.531,-12.6609 1.348,-0.8331 0.515,-1.7035 -3.843,-4.0129 -4.909,-1.8931 -8.796,-10.8574 -13.893,-9.7569 -6.648,0.1963 -12.335,-12.1413 -8.355,-18.7652 7.306,-12.1564 24.021,-30.0427 37.836,-30.178 5.639,0.05 14.115,2.8721 12.2,10.1175 -0.739,1.9926 1.037,2.05 1.675,2.05 2.001,0 7.367,-1.7384 8.621,-2.7929 12.496,-4.0568 11.214,7.2322 15.144,9.2546 11.597,5.5098 10.236,10.9405 7.938,14.3212 6.255,0.6656 11.961,2.6265 13.131,9.2812 0.339,2.0906 -0.1,3.3502 -2.329,6.7114 -4.702,7.0359 -11.271,10.8045 -16.821,16.1719 2.072,4.5566 6.119,13.0722 5.445,22.6751 -1.703,21.4326 -2.25,26.3402 -3.31,29.7008 -9.778,90.7253 -50.511,185.0634 -103.367,239.3542 -12.531,16.2909 -31.769,26.0264 -45.169,37.4862 -7.76,4.3636 -25.362,14.7701 -32.288,14.7953 -2.687,0 -5.064,0.2905 -5.284,0.6456 -0.219,0.3551 0.398,2.8441 1.373,5.531 0.975,2.687 2.15,7.7863 2.613,11.3317 2.01,15.4117 2.43,19.7867 2.058,21.4291 -0.219,0.9609 -0.569,6.7091 -0.778,12.7737 -6.518,80.0347 -8.937,83.4287 -34.587,205.7039 -8.352,31.3272 -18.11,61.5898 -27.428,88.1277 -0.671,0.8835 -1.651,2.6847 -2.18,4.0027 -7.831,11.9766 -25.171,5.6644 -23.3,-5.4383 7.748,-24.7951 13.674,-44.3471 22.463,-74.0382 12.445,-59.5807 30.496,-135.3896 36.924,-206.1005 -0.228,-1.0951 -0.08,-4.5577 0.345,-7.6946 1.114,-8.3632 1.135,-25.723 0.04,-35.7415 -0.842,-7.725 -1.532,-11.2443 -3.557,-18.1769 -1.794,-6.1369 -10.551,-18.325 -13.165,-18.325 -14.129,-3.1057 -41.659,-12.2029 -95.098,-4.8594 -2.311,0.65 -5.788,1.4692 -7.727,1.8205 -7.747,1.4034 -20.394,6.9753 -23.583,10.3893 -2.169,2.3235 -7.569,12.6483 -8.883,16.9843 -0.445,1.464 -1.706,5.0571 -2.805,7.9848 -27.251,93.4185 -32.646,192.0452 -36.498,250.1907 -0.204,1.2547 -0.717,7.1781 -1.141,13.1629 -2.475,14.1516 -24.044,10.5896 -24.358,-4.0639 0.404,-16.2056 1.66,-29.7882 3.01,-44.8406 2.65,-72.5513 20.071,-150.1288 35.551,-216.7304 1.407,-6.1775 3.359,-11.0396 5.552,-13.8269 2.315,-2.944 1.936,-3.4439 -2.446,-3.2185 -15.244,-1.5793 -31.867,-3.8573 -42.943,-8.134 -0.224,0.222 -0.05,4.9517 0.363,10.5102 3.235,72.7081 -11.884,138.5419 -32.652,202.5022 -5.066,15.0609 -12.369,29.1015 -19.769,40.8359 -4.455,10.5697 -15.048,14.1836 -15.075,1.2934 4.023,-13.1272 17.208,-42.362 18.563,-54.6835 13.833,-50.9698 21.512,-102.5474 22.07,-159.6895 0.05,-27.6345 -0.67,-37.4407 -3.918,-52.8517 -3.598,-17.0721 -4.101,-19.0106 -6.53,-25.0749 -1.93,-4.8208 -2.896,-6.2878 -4.709,-7.1576 -1.255,-0.6018 -2.876,-1.3808 -3.602,-1.7312 -0.727,-0.3505 -2.226,-0.6372 -3.331,-0.6372 -2.369,0 -6.659,-2.4855 -8.276,-4.7944 -0.628,-0.8952 -1.146,-2.8348 -1.152,-4.3101 0,-1.4755 -0.349,-3.1959 -0.761,-3.8233 -0.664,-1.014 -0.831,-1.014 -1.498,0 -0.411,0.6274 -0.753,1.7723 -0.76,2.5443 0,0.7719 -0.599,2.3974 -1.316,3.6122 -1.759,2.9778 -5.573,2.9815 -11.457,0.011 -7.674,-3.8737 -8.157,-4.498 -7.901,-10.2056 0.253,-5.6435 0.08,-5.8088 -7.093,-6.3663 -12.977,-1.0101 -45.206,0.639 -56.276,2.8796 -9.303,1.8835 -15.811,3.0439 -27.468,4.8993 -7.137,1.1357 -13.05,3.2551 -14.729,5.2783 -0.525,0.6321 -1.424,1.1495 -1.999,1.1495 -13.488,4.7956 -18.316,48.0163 -18.968,56.2739 -1.629,20.8447 -0.844,62.7098 1.539,82.1294 1.531,12.4681 2.004,21.226 2.386,44.1065 0.384,22.9397 0.314,62.4869 -0.111,63.1747 -0.229,0.3704 -0.42,15.9987 -0.251,20.4757 0.06,1.6776 -0.75,13.5275 -1.201,17.4905 -0.25,16.3409 -3.998,33.2277 -6.213,48.6694 -5.18,26.0544 -26,54.2699 -23.354,19.0114 4.638,-31.0852 4.211,-64.0546 5.668,-92.7759 2.075,-54.4249 -3.757,-112.9815 -4.95,-161.2171 -0.273,-14.834 -0.09,-13.9537 -2.862,-13.3984 -1.319,0.2639 -2.798,0.8105 -3.284,1.2147 -16.01,9.0023 -32.551,12.6724 -58.195,32.0097 0,0.3885 0.318,0.7065 0.706,0.7065 0.763,0 6.91,7.8084 8.459,10.7463 0.521,0.9907 1.178,1.9723 1.459,2.1814 30.548,52.0023 34.829,120.1927 36.928,173.8831 0.202,11.5812 1.867,24.3079 2.283,34.7412 0.262,6.7589 0.973,19.6462 1.582,28.6385 2.532,37.4413 2.635,39.9291 1.91,46.0078 -1.83,11.2769 2.007,21.3185 -0.233,32.6244 0.324,32.6038 -16.115,27.6176 -18.898,1.1825 -5.587,-49.8704 -6.914,-103.4504 -10.634,-144.4536 -2.573,-54.1798 -8.845,-122.4171 -39.341,-171.3934 -9.803,-9.3875 -12.653,-11.0725 -18.773,-11.0999 -5.053,-0.022 -17.009,2.7387 -22.861,5.2796 -62.432,18.5093 -91.832,26.9533 -85.15,60.8636 0.345,15.9084 1.005,22.2875 2.991,28.8975 13.494,57.8853 31.055,120.9499 37.647,171.4832 6.549,42.0135 14.927,89.2592 12.338,124.3348 -3.443,7.4436 -8.057,9.3313 -15.049,6.1559 z m -19.339,-415.9528 c -55.48,-5.712 -99.008,-45.5812 -102.682,-91.3448 -6.428,-31.555 6.013,-93.1148 26.467,-119.5171 10.871,-10.5191 13.633,-12.8785 17.681,-15.1002 9.321,-5.1162 11.892,-5.9523 21.27,-6.9188 8.652,-0.8917 9.192,-0.8652 10.73,0.5265 46.488,-13.8529 98.19,12.9433 118.238,53.4201 1.026,2.2374 1.409,2.4697 3.363,2.0406 2.779,-0.6103 4.995,0.5562 6.468,3.4042 1.464,2.8318 1.453,4.9252 -0.03,7.1971 -1.093,1.667 -1.038,2.2368 0.713,7.4525 5.245,11.1746 7.335,21.8535 9.097,33.6547 0.668,63.1664 -37.171,134.0121 -111.311,125.1852 z m 44.109,-26.7059 c 29.952,-15.2324 54.375,-78.3639 42.757,-106.6911 -0.403,-0.5025 -0.916,-2.1115 -1.139,-3.5753 -0.911,-5.9618 -2.486,-11.6864 -3.288,-11.9492 -0.468,-0.1537 -2.461,0.9485 -4.427,2.4491 -5.36,4.752 -17.459,2.5287 -13.675,-4.6144 1.401,-2.6339 3.078,-4.3301 10.093,-10.203 1.736,-1.4544 3.151,-2.9944 3.143,-3.422 -0.02,-0.7668 -2.02,-3.8995 -9.491,-14.8243 -2.091,-3.0585 -4.447,-6.5637 -5.235,-7.7897 -18.985,-26.9888 -57.228,-38.2613 -82.017,-25.6375 -18.645,1.6596 -15.995,-10.7213 -30.292,3.8625 -4.171,5.4969 -12.962,15.8545 -15.211,22.5605 -14.303,31.9129 -18.089,66.1897 -12.888,95.3486 2.297,15.1451 6.12,25.179 17.522,39.423 13.222,19.532 31.716,21.2915 49.744,29.5285 20.431,7.4075 37.516,5.0101 54.404,-4.4657 z m -72.743,-25.5295 c -4.313,-3.1363 -9.463,-9.7313 -11.129,-14.2526 -0.936,-2.5328 4.457,-10.4081 7.124,-10.4081 1.726,0 15.93,-6.8962 18.713,-9.0846 21.148,-10.1516 37.381,-18.8141 59.226,-30.0279 4.545,-4.035 8.993,-4.0317 13.708,-5.7739 3.152,-1.1984 4.891,-0.2956 4.897,2.5422 0,2.5518 1.852,5.9495 4.147,7.6275 1.101,0.8048 1.437,2.4054 1.715,8.1631 0.364,26.3218 -13.886,55.6318 -45.411,63.6606 -20.159,3.4277 -37.704,-1.3217 -52.99,-12.4463 z m 74.052,-20.9021 c 5.096,-5.0658 6.869,-12.3917 9.674,-18.0887 1.406,-2.7187 2.525,-18.3697 1.314,-18.3697 -0.472,0 -1.286,0.6845 -1.808,1.521 -0.523,0.8366 -1.466,1.5286 -2.098,1.5378 -0.631,0.011 -2.003,0.6861 -3.049,1.504 -21.719,15.4504 -49.709,22.2105 -71.483,39.1052 3.213,5.899 18.141,11.6946 24.334,12.5551 16.414,2.2241 34.29,-7.7963 43.116,-19.7647 z m -81.36,-47.8154 c -4.476,-5.32 -3.092,-16.0231 3.02,-23.3496 4.449,-12.936 34.109,-17.1539 35.985,-1.1954 0,0.8754 -0.342,1.8032 -0.761,2.0617 -0.417,0.2585 -0.76,1.3053 -0.76,2.3263 0,2.1357 -1.812,2.4805 -4.21,0.8012 -3.019,-2.1147 -7.553,-2.9985 -10.461,-2.0389 -4.007,1.3226 -8.896,8.4935 -10.075,14.7806 -0.676,3.6016 -3.477,6.9985 -6.228,7.5537 -1.158,0.2338 -2.658,0.6389 -3.333,0.9004 -0.81,0.3131 -1.894,-0.3149 -3.177,-1.84 z m 61.99,-33.5131 c -1.369,-0.8352 -2.856,-2.4593 -3.303,-3.6093 -4.097,-15.7315 10.574,-31.9192 24.969,-27.872 6.216,2.076 10.842,7.9019 9.745,12.2729 -1.083,4.315 -3.345,5.1162 -6.792,2.4056 -1.115,-0.8782 -3.369,-1.7766 -5.009,-1.9963 -2.563,-0.3441 -3.29,-0.087 -5.224,1.8467 -2.451,2.4513 -3.9,6.5749 -3.906,11.1205 0,2.1992 -0.547,3.4534 -2.228,5.1331 -2.606,2.606 -4.816,2.7933 -8.252,0.6988 z m 436.045,-68.0578 c 0.53,-7.2811 6.775,-20.7249 2.153,-24.4925 -15.388,-3.0012 -12.233,-20.1532 6.227,-15.0974 2.807,0.4744 3.138,0.3247 5.285,-2.3856 12.397,-23.1939 25.169,-34.881 49.566,-46.9532 82.703,-34.6755 118.671,15.4094 131.761,53.9476 16.197,47.7106 8.731,86.952 -9.681,119.4833 -76.506,104.107 -202.044,21.1227 -185.311,-84.5022 z m 182.076,33.1537 c 6.842,-37.1385 -6.012,-57.9594 -16.769,-82.7716 -18.216,-42.0173 -82.537,-31.8649 -106.845,-9.2972 -7.769,7.2122 -19.868,15.0271 -20.152,24.1041 0,1.7575 0.158,1.8025 5.894,1.6704 10.271,-2.4694 23.055,4.7694 12.626,13.7004 -6.616,5.9555 -22.487,-0.065 -27.799,5.3256 -2.087,5.2389 -3.981,14.5327 -5.125,27.0423 -4.693,43.1316 11.499,70.9224 44.701,87.6736 51.513,25.9839 103.841,-15.1815 113.469,-67.4476 z m -135.693,-12.4385 c -9.147,-7.4101 -2.954,-19.0971 6.375,-12.7219 35.266,21.8221 83.484,14.7073 92.775,-12.4797 0,-0.4603 -1.369,-2.1243 -3.042,-3.6978 -9.668,-11.4819 7.213,-10.3232 13.445,-6.9528 18.537,6.4523 14.004,15.2992 4.524,32.0321 -7.548,8.6164 -9.844,12.6852 -16.841,7.5017 -0.622,-0.4605 -1.6,-0.181 -2.872,0.8205 -23.341,19.4021 -67.96,18.6447 -94.364,-4.5021 z m 74.158,-64.2405 c 2.987,-15.2621 14.174,-13.0737 19.17,-7.4659 2.988,4.1519 5.087,11.023 3.157,18.4322 -9.734,22.4864 -26.188,6.3133 -22.327,-10.9663 z m -52.017,2.7472 c 2.695,-5.813 6.411,-12.6668 12.091,-15.1587 9.763,-2.5884 13.836,5.9991 11.388,12.7411 -1.615,4.4493 -2.3,6.4673 -4.339,10.9928 -6.611,14.6648 -23.514,0.8574 -19.14,-8.5752 z m -305.714,70.5862 c -33.246,-26.5616 -40.282,-87.441 -36.099,-111.2566 -4.648,-0.6062 -10.762,-4.5781 -13.397,-5.624 -14.877,-5.9042 -11.756,-24.494 4.154,-17.073 2.622,0.3258 11.286,4.2174 12.582,3.8294 0.484,-0.186 1.294,-1.6454 1.798,-3.2431 28.013,-74.6167 79.883,-84.8608 132.537,-69.7825 45.398,13.0004 60.135,50.3673 60.771,106.5842 -8.541,105.8254 -92.099,151.6433 -162.346,96.5656 z m 116.206,-40.0401 c -42.424,40.3486 -106.663,11.7378 -127.241,-50.4368 -1.042,-3.8249 -1.655,-3.3917 -1.136,3.31 2.708,33.2741 14.379,81.6956 62.575,88.975 1.463,0.028 3.321,0.3078 4.126,0.6232 23.192,4.2328 63.764,-27.8395 61.676,-42.4714 z m 6.31,-54.407 c -0.253,-4.689 -1.857,-6.2936 -6.105,-4.0893 -20.013,12.2237 -52.696,14.9725 -87.163,16.4686 -5.028,-0.5466 -15.835,-1.0434 -16.311,-0.5678 -0.795,0.7942 5.809,8.0714 12.147,17.7346 28.469,43.4024 99.82,26.1652 97.432,-29.5461 z m -111.275,-4.9431 c 26.76,1.316 79.661,2.0796 109.228,-17.4698 8.258,-4.7624 12.634,-1.6205 17.003,3.0213 1.458,-7.3963 -6.739,-34.0215 -10.489,-41.445 -14.425,-31.0132 -41.301,-37.9344 -74.364,-33.5137 -37.88,1.7475 -57.399,39.7812 -61.292,63.0785 3.431,2.6393 7.414,0.9955 9.847,5.1366 1.883,3.2101 1.706,7.0866 -0.343,8.9949 -4.679,2.741 -6.059,1.6322 -11.694,1.4297 -0.619,4.0234 -1.366,11.0608 -0.938,15.9383 4.257,-5.902 15.563,-6.2857 23.042,-5.1708 z m -2.269,-25.1932 c -10.829,-6.5952 1.755,-21.5208 8.518,-27.0928 6.651,-5.4802 16.658,1.6023 13.119,12.5058 -3.135,9.6509 -13.333,19.6452 -21.637,14.587 z m 57.676,-13.4061 c 0.63,-7.4324 1.76,-9.4404 6.025,-10.6996 10.418,-1.9943 15.075,3.1476 16.66,12.9373 3.755,24.4014 -25.537,27.4784 -22.685,-2.2377 z" fill="#00B894" transform="translate(-197.14705,-152.05118) matrix(0.26458333,0,0,0.26458333,-4132.3422,-1000.3841)"/></svg>