<?xml version="1.0" ?><svg height="105.50961mm" viewBox="0 0 65.342896 105.50961" width="65.342896mm" xmlns="http://www.w3.org/2000/svg">
    <path color="#000" d="m 1805.7938,7138.5731 h 135.9891 c 23.6209,0 42.6368,-19.016 42.6368,-42.6368 v -295.866 c 0,-23.6207 -19.0159,-42.6367 -42.6368,-42.6367 h -135.9891 c -23.6207,0 -42.6367,19.016 -42.6367,42.6367 v 295.866 c 0,23.6208 19.016,42.6368 42.6367,42.6368 z" fill="#FFFFFF" overflow="visible" paint-order="fill markers stroke" transform="translate(-157.14003,40.808588) matrix(0.26458333,0,0,0.26458333,-306.2771,-1827.3309)"/>
    <path d="m 1953.3742,6752.2104 c -6.4489,0.01 -53.463,1.4353 -94.7359,1.7725 -16.1696,0.137 -100.9224,-10.8947 -102.5773,32.3497 l -1.8138,65.8764 c -0.3001,63.3576 -5.1782,152.5545 -1.1862,227.8905 1.3913,41.6452 8.3073,71.0269 53.9863,70.0261 5.1591,0.8591 29.4303,1.1188 53.936,0.5816 24.5057,-0.5371 57.7466,-1.1056 73.8688,-1.2641 57.7145,-0.762 61.5714,-10.1635 62.8077,-72.7513 1.929,-68.7175 0.026,-175.9158 -1.9466,-270.2798 -0.5344,-29.0625 0.059,-51.0129 -42.339,-54.2016 z m -128.4826,21.7604 c 8.2705,-0.034 17.9156,-9e-4 29.0566,0.1008 106.7486,0.9736 110.8693,-0.4431 117.9527,6.6412 14.1758,116.6454 5.3099,253.3766 3.9901,335.0158 -3.416,17.7465 -45.8169,12.2043 -70.3787,10.5115 0.7296,-8.2161 6.2709,-15.47 0.7694,-25.2458 -1.5254,-1.5263 -2.1199,-3.4267 -1.319,-4.2275 0.8008,-0.8009 9.5778,-1.758 27.3832,-2.5909 45.9887,-0.025 37.2609,-9.5768 40.2292,-77.5636 -2.451,-59.5641 -5.1682,-129.7927 -5.5741,-178.7574 -1.4352,-28.016 2.6888,-47.6425 -9.2702,-48.9757 -4.1463,-0.4622 -10.5159,-1.8004 -70.3742,-3.687 -74.923,-2.3613 -85.6453,-1.746 -93.2567,5.3451 -4.547,4.2362 -5.1121,8.0321 -5.0839,30.7237 0.2664,64.33 -3.6333,122.1659 -0.1283,184.7178 -0.5467,33.8446 3.0221,58.9031 3.1125,73.2673 0,12.0173 12.9336,15.1402 45.0799,16.1695 26.6144,0.8522 27.6724,1.0781 27.2932,5.9084 -0.7443,9.4792 5.3936,20.3647 11.4825,26.9314 3.355,3.6181 -36.6995,3.8424 -56.3498,2.7984 -9.0978,0.7925 -41.3657,1.017 -42.2152,-25.3401 -2.3501,-86.7419 -0.4814,-181.9865 -5.368,-258.0298 -1.3344,-60.1575 -0.3438,-65.8897 12.371,-71.4276 3.345,-1.4569 15.7872,-2.1841 40.5985,-2.2855 z m 115.3743,30.7099 c 8.3514,-1.7368 14.281,-0.823 11.8947,35.423 3.0842,63.8378 -0.3592,121.9162 1.7222,155.8475 3.8023,61.9833 -2.0458,80.733 -14.6579,78.8215 -0.4925,0.4469 -16.3616,0.1045 -55.3774,1.0123 -23.6459,0.5502 -71.5518,5.2801 -71.533,-11.3222 -4.1016,-87.7034 -5.7165,-168.0639 -5.089,-256.1 -3.2866,-16.3115 85.7731,-9.5967 133.0404,-3.6821 z m -114.9117,21.5497 c -1.1825,0.1602 -3.0298,1.6321 -4.6992,4.3053 -3.1768,5.0867 -1.6451,13.6703 3.4992,19.6169 6.7064,7.7517 34.4994,3.7811 32.8581,-4.6947 -0.6651,-3.4344 -2.9419,-3.976 -14.0703,-3.3435 -11.3192,0.6433 -13.6438,0.063 -15.7832,-3.9344 -1.38,-2.5786 -1.873,-6.3444 -1.0947,-8.3725 0.9906,-2.5813 0.4726,-3.7372 -0.7099,-3.5771 z m 51.3436,1.1954 c -2.4293,0.1283 -3.054,4.2403 -0.4214,10.8733 1.692,4.2635 4.086,9.0687 5.3176,10.6809 3.11,4.0715 16.8902,3.676 20.4275,-0.5862 3.9617,-4.7735 -0.8266,-10.5527 -8.7435,-10.5527 -3.4625,0 -7.7513,-2.4428 -10.571,-6.0275 -2.4447,-3.1075 -4.5516,-4.4648 -6.0092,-4.3878 z m 39.9436,2.4687 c -3.6941,0.122 -3.9385,4.9016 -0.6092,13.6581 1.6014,4.2122 4.021,6.0137 8.0702,6.0137 8.0768,0 9.8037,-4.2079 3.962,-9.6504 -2.7168,-2.531 -4.9375,-5.4926 -4.9375,-6.5817 0,-1.0891 -2.1106,-2.5315 -4.6901,-3.2061 -0.6681,-0.1747 -1.2677,-0.251 -1.7954,-0.2336 z m -35.2901,50.3909 c -0.8236,-0.089 -1.5499,0.098 -2.0932,0.6413 -3.0884,3.0884 2.1795,22.6793 7.0077,26.0611 6.0776,4.257 9.2136,4.4627 12.829,0.8473 3.3852,-3.385 -0.3802,-11.368 -5.3634,-11.368 -2.0875,0 -3.4351,-2.2673 -3.4351,-5.7801 0,-4.4362 -5.3762,-10.0177 -8.945,-10.4016 z m -45.9986,1.2229 c -0.9497,0.01 -1.9571,0.4307 -3,1.2962 -3.9628,3.289 -2.3462,16.4082 3.0596,24.8016 4.5045,6.9944 22.0534,7.8004 22.0534,1.0122 0,-2.5624 -3.0443,-5.6069 -7.6214,-7.6214 -5.1501,-2.2668 -7.884,-5.2582 -8.432,-9.2198 -0.913,-6.5998 -3.2102,-10.2943 -6.0596,-10.2688 z m 80.5833,5.5787 c -3.8465,0 -1.3298,12.7976 3.3436,17.0015 6.1464,5.529 13.2275,5.329 13.2275,-0.3756 0,-4.3426 -12.2428,-16.6259 -16.5711,-16.6259 z m -34.484,56.4275 c -1.8037,-0.075 -2.8809,0.9736 -2.8809,3.2199 0,5.2676 4.6922,16.2869 7.768,18.2428 5.1379,3.267 13.1505,1.884 15.6001,-2.6932 3.2251,-6.0261 3.0666,-7.1908 -0.9711,-7.1908 -1.8682,0 -6.2443,-2.6382 -9.7237,-5.8626 -3.9576,-3.6679 -7.4733,-5.6201 -9.7924,-5.7161 z m -43.3145,0.2198 c -0.3426,0 -0.6945,0.035 -1.0626,0.11 -3.3884,0.6932 -4.0833,2.7211 -3.4764,10.1633 0.4172,5.1135 2.4257,11.1399 4.4657,13.397 5.0062,5.5388 28.2519,5.8691 30.3389,0.4305 2.0032,-5.2201 -1.918,-8.2292 -12.5816,-9.6595 -7.5848,-1.0174 -9.7198,-2.4955 -11.881,-8.2214 -1.6038,-4.2486 -3.405,-6.2011 -5.803,-6.2199 z m 84.3757,7.3328 c -3.0924,0.049 -3.1595,3.825 -1.9283,13.8229 0.1078,0.8728 2.0437,2.0713 4.3008,2.6611 2.2571,0.5899 4.6314,1.1754 5.2763,1.3053 0.6449,0.13 2.6011,-0.668 4.3512,-1.777 4.5853,-2.9053 1.3592,-10.7633 -5.7481,-14.0016 -2.8181,-1.2839 -4.8463,-2.0329 -6.2519,-2.0107 z m -89.5193,46.2367 c -2.8323,0 -1.1352,13.3001 2.3268,18.2428 4.0149,5.7319 9.4625,6.8532 11.0381,2.2763 2.4185,-7.0244 -6.3722,-20.5191 -13.3649,-20.5191 z m 56.0016,100.1315 c 0.7462,0.016 1.5554,0.6302 2.6428,1.7175 4.3634,4.3636 4.5798,15.9233 -0.023,17.6894 -8.5095,3.2655 -15.115,-6.2062 -11.4139,-13.6253 1.8994,-3.8074 7.5501,-5.8097 8.7937,-5.7816 z" fill="#00B894" transform="translate(-157.14003,40.808588) matrix(0.26458333,0,0,0.26458333,-306.2771,-1827.3309)"/>
</svg>