<?xml version="1.0" ?><svg height="321.5415mm" viewBox="0 0 220.61272 321.5415" width="220.61272mm" xmlns="http://www.w3.org/2000/svg">
    <path d="m 2476.0391,848.58008 c -5.635,0.004 -10.9426,0.55217 -15.0723,1.63867 -13.2151,3.4768 -27.149,18.00595 -29.9199,27.09375 -17.638,7.2894 -25.2592,23.88222 -18.625,46.94922 6.6343,23.0671 31.1992,17.96094 31.1992,17.96094 0,0 14.0157,10.59812 26.3516,14.38672 12.336,3.78849 24.5379,-0.16828 33.7832,-4.48438 9.2453,-4.3161 27.9223,-23.16171 29.9472,-43.87891 2.0249,-20.7172 -15.3729,-43.97775 -24.8047,-51.72265 -6.4843,-5.32469 -20.4624,-7.95109 -32.8593,-7.94336 z m 58.75,119.63281 c -0.6636,0.0245 -1.3362,0.0912 -2.0157,0.20508 -10.8705,1.8223 -14.2871,6.8164 -14.2871,6.81641 l -80.0898,4.50781 c 0,0 -7.2472,-8.96779 -19.8496,-6.92969 -12.6024,2.0382 -16.8918,10.98364 -20.3555,18.46484 v 0 c -0.1347,0.82121 -0.1771,1.54997 -0.2539,2.31446 -5.3586,1.34282 -12.9242,3.37083 -17.2344,5.25 -6.9481,3.0292 -29.2751,18.8991 -37.7363,40.4375 -8.4615,21.5384 7.9672,40.8255 10.7773,44.3828 2.8102,3.5574 10.748,11.3106 10.748,11.3106 0,0 0.4628,14.3965 9.9121,24.8183 9.4496,10.4218 23.7474,10.116 25.9708,5.9473 2.2234,-4.1687 -0.8963,-5.2235 -7.5665,-9.7813 -6.6703,-4.5578 -9.8192,-9.5049 -5.1562,-13.9238 4.663,-4.4188 11.3337,-1.2226 15.0703,2.5293 3.7365,3.7518 3.6729,7.0017 7.3477,1.8047 3.6749,-5.197 0.557,-13.5622 -6.2676,-16.9805 -6.8246,-3.4184 -18.2514,-6.8355 -23.5938,-5.5293 0,0 -20.2251,-10.6175 -17.1679,-30.5996 3.0572,-19.9821 11.5177,-26.5399 18.7129,-32.793 4.6256,-4.0198 14.0363,-8.5547 20.205,-11.2988 4.8597,5.3012 12.1524,5.4649 12.1524,5.4649 0,0 14.654,60.7135 19.1035,71.5996 4.4495,10.8861 12.8828,11.123 12.8828,11.123 0,0 -1.4131,5.3488 -3.0117,11.9668 -1.5989,6.618 1.1832,27.2298 -0.096,47.6113 -1.2789,20.3815 -10.5867,35.663 -21.6172,51.9922 -11.0304,16.3291 -23.3941,18.7979 -37.5684,22.1309 -14.1744,3.3329 -15.6933,15.3457 -15.6933,15.3457 0,0 -12.4955,3.1656 -20.5684,9.5918 -8.073,6.4262 -12.6289,5.2037 5.3555,24.5781 17.9844,19.3744 39.3165,18.5008 52.0254,18.1172 12.709,-0.3837 27.8946,-6.5689 28.2676,-12.7793 0.373,-6.2104 -4.795,-7.1702 -13.6407,-9.7598 -8.8456,-2.5897 -20.3027,-9.2324 -20.3027,-9.2324 0,0 17.2928,-9.1342 29.1758,-18.3418 11.883,-9.2076 18.2003,-22.2205 31.8418,-40.1562 13.6415,-17.9358 13.5625,-51.5293 13.5625,-51.5293 l 20.3808,-3.3809 c 0,0 2.1599,2.7083 14.336,10.1895 12.1761,7.4812 18.9158,21.0529 21.2871,35.6797 2.3713,14.6267 -9.4356,52.0078 -9.4356,52.0078 0,0 -11.1097,15.8015 -13.4277,29.709 -2.318,13.9073 16.5726,14.0275 44.6816,15.0585 28.1089,1.0311 46.9373,-7.2307 54.877,-11.1152 7.9398,-3.8845 0.8267,-12.2053 -7.0332,-14.0996 -7.8598,-1.8943 -42.9219,-8.6797 -42.9219,-8.6797 0,0 8.2044,-41.3393 7.1387,-65.2695 -1.0658,-23.9303 -15.5985,-37.4576 -22.7656,-47.2168 -7.1671,-9.7591 -25.8457,-18.9902 -25.8457,-18.9903 0,0 4.8237,-10.5512 5.623,-22.8281 0.7993,-12.2768 -4.0762,-12.0371 -4.0762,-12.0371 0,0 7.8131,-25.2077 8.8789,-31.8496 1.0657,-6.642 6.4196,-40.0427 8.3379,-45.7734 1.9183,-5.7308 5.6216,10.2856 9.0586,16.0644 3.437,5.7787 18.0381,34.5522 50.6231,33.0176 32.585,-1.5346 35.916,-44.6719 35.916,-44.6719 0,0 14.0419,-9.5656 17.3457,-20.4277 3.3038,-10.86212 0.3458,-20.62214 -5.8887,-21.26954 -6.2346,-0.6474 -3.6775,4.10047 -5.6758,13.76367 -1.9983,9.66327 -6.0743,11.29297 -13.5879,10.86137 -7.5135,-0.4316 -8.8193,-10.83728 -7.9667,-15.36918 0.8523,-4.5319 5.488,-9.25562 0.053,-10.47852 -5.4353,-1.2229 -16.0131,7.81607 -16.3594,18.91797 -0.3464,11.10203 11.1641,21.12503 11.1641,21.12503 0,0 -15.3462,13.9805 -23.6856,16.4023 -8.3394,2.4218 -16.2801,-1.9665 -23.0742,-8.5605 -6.7941,-6.594 -12.5215,-28.94144 -12.5215,-28.94144 0,0 4.1296,-10.81534 3.7832,-16.40234 -0.3246,-5.23772 -8.3061,-14.47816 -18.2597,-14.11133 z" fill="#FFFFFF" transform="translate(-51.618515,67.416061) matrix(0.6950081,0,0,0.6950081,661.94058,3117.6803) translate(-3214.0181,-5425.6289)"/>
    <path d="m 2475.2207,842.83789 c -5.6484,0.19191 -11.2218,1.36829 -16.9727,3.50781 -11.7782,4.382 -26.2151,17.95903 -27.4335,25.79883 -0.6324,4.0686 -2.2412,5.98633 -5.0235,5.98633 -4.3425,0 -12.7032,9.3806 -15.789,17.7168 -5.0461,13.6313 -2.7942,31.03781 5.1914,40.13281 5.0834,5.7897 15.8552,10.41751 24.1015,10.35351 5.3546,-0.0415 7.1185,0.62347 10.793,4.07227 2.4157,2.2672 8.5913,6.16807 13.7246,8.66797 8.5077,4.1442 10.2235,4.50741 19.4023,4.13281 8.435,-0.3441 11.6818,-1.20857 20,-5.32617 17.6639,-8.7436 30.8925,-25.23289 34.6114,-43.14648 0.045,-0.21513 0.057,-0.44518 0.098,-0.66211 1.6998,0.0288 3.2577,-0.042 4.0137,-0.33594 2.1581,-0.8392 2.2909,-3.71707 0.1328,-6.04297 -0.7186,-0.77447 -2.0338,-1.20519 -3.4648,-1.44336 -0.1643,-21.31761 -14.9541,-47.28751 -33.3692,-56.07617 -10.9817,-5.24113 -20.6016,-7.65579 -30.0156,-7.33594 z m 1.5313,8.62695 c 12.5187,-10e-4 26.1451,4.46943 32.2578,10.58204 4.0331,4.03349 4.0447,4.08398 0.9297,4.08398 -5.2113,0 -36.488,6.78502 -40.254,8.73242 -3.4588,1.7887 -3.4954,1.96158 -3.0117,14.20508 0.2693,6.8173 1.0858,16.7884 1.8145,22.1582 0.7287,5.3697 1.333,13.17039 1.3437,17.33399 0.011,4.1636 0.7769,9.06904 1.7032,10.90234 2.3374,4.6266 10.2006,6.92577 21.9472,6.41797 5.3184,-0.23 9.667,-0.0417 9.666,0.41797 0,0.4597 -3.1519,2.20942 -7.0019,3.88672 -11.3291,4.9355 -18.4798,4.81088 -31.4746,-0.54493 -14.1693,-5.83989 -14.8389,-6.51272 -11.1348,-11.17382 7.6445,-9.6198 10.0199,-15.16245 10.6328,-24.81055 0.7342,-11.5575 -1.0114,-18.57406 -6.709,-26.97266 -5.5463,-8.1756 -9.8133,-11.23204 -16.0058,-11.46484 -3.0154,-0.1133 -4.9766,-0.84899 -4.9766,-1.86719 0,-2.8398 13.5513,-13.94048 22,-18.02148 6.7,-3.2363 9.6701,-3.86434 18.2735,-3.86524 z m 39.4277,22.84961 c 3.8697,-0.18896 3.8857,1.13172 7.1504,8.08789 3.7316,7.3872 5.5758,15.52834 5.1328,23.89454 -2.4317,0.321 -5.2006,1.10684 -5.8164,3.02734 -0.8614,2.68605 1.5764,3.21689 4.9336,3.72266 -0.6307,3.11217 -1.542,6.2337 -2.8555,9.34374 -2.2408,4.6232 -5.5972,10.06972 -7.457,12.10352 -3.2112,3.5115 -3.9038,3.68008 -13.752,3.33398 -5.7037,-0.20049 -13.6698,-0.66464 -17.7031,-1.03124 -8.6847,-0.78961 -7.4833,0.49388 -7.6484,-8.66602 -0.1738,-4.4 -1.5707,-16.20272 -3.1036,-26.22852 -3.331,-21.7868 -2.8487,-23.76525 5.7989,-23.78125 3.0908,-0.005 9.2191,-0.55379 13.6191,-1.21679 4.4,-0.6629 11.7292,-1.58598 16.2852,-2.05078 2.4093,-0.2458 4.1261,-0.47608 5.416,-0.53907 z m -76.8789,7.92774 c 3.5553,-0.10812 4.4091,0.84576 7.7324,4.63086 6.2034,7.0652 8.5294,13.27231 8.4883,22.66211 -0.039,8.9521 -2.1075,14.05183 -9.2969,22.92773 -4.9897,6.1603 -8.9739,7.06964 -17.0781,3.89844 -7.7191,-3.0205 -10.0341,-5.05211 -13.6055,-11.94531 -4.8971,-9.4518 -5.0366,-20.27621 -0.3808,-29.59571 4.0241,-8.0551 8.847,-11.06884 19.4941,-12.18164 1.9768,-0.20662 3.4614,-0.36044 4.6465,-0.39648 z m -6.8008,5.55859 c -1.3011,0.0869 -2.6654,0.43381 -4.1172,1.03516 -11.0991,4.5974 -12.3201,24.53915 -2.1816,35.62695 4.2262,4.622 10.8353,4.04357 16.3066,-1.42773 7.5852,-7.5853 7.8259,-18.77015 0.6192,-28.71875 -3.3927,-4.68345 -6.7238,-6.77638 -10.627,-6.51563 z m 86.2461,0.9961 c -4.2157,0 -8.9336,3.63546 -8.9336,6.88476 0,1.6615 0.653,2.46683 1.666,2.05274 0.9167,-0.3748 2.6714,-1.08618 3.8985,-1.58008 1.5099,-0.6078 2.7233,0.0239 3.7558,1.95312 1.7755,3.3175 5.7739,3.07518 6.4414,-0.39062 0.6917,-3.5915 -3.3865,-8.91992 -6.8281,-8.91992 z m -27.334,2.66992 c -3.0875,-0.16904 -6.1617,0.95785 -8.1152,3.4414 -1.5499,1.9703 -2.8184,4.40125 -2.8184,5.40235 0,2.4286 3.2604,2.31881 5.334,-0.17969 2.1592,-2.6017 4.6967,-2.5269 9.4473,0.2793 3.0142,1.7806 4.2117,1.92702 5.4687,0.66992 1.2571,-1.257 1.0129,-2.4127 -1.1191,-5.2793 -2.0084,-2.7005 -5.1098,-4.16495 -8.1973,-4.33398 z m -59.5039,4.19726 c 1.4712,0.18095 2.8837,1.42946 4.5625,3.78711 4.1665,5.8512 4.6676,11.82952 1.4258,17.01172 -1.5119,2.4169 -3.8315,4.33399 -5.2442,4.33399 -3.5748,0 -7.1825,-6.16426 -7.8847,-13.47266 -0.4855,-5.0519 -0.068,-6.74636 2.2246,-9.03906 1.9155,-1.91555 3.4448,-2.80205 4.916,-2.6211 z m 85.8164,22.62305 c -1.1726,-0.0301 -3.2444,0.80902 -6.5781,2.50977 -2.8749,1.46659 -7.701,2.66601 -10.7246,2.66601 -6.6877,0 -6.6042,2.58348 0.1582,4.89258 7.6252,2.6037 17.4304,-1.33348 18.3261,-7.35938 0.2646,-1.77965 -0.01,-2.67883 -1.1816,-2.70898 z m 17.2481,47.91016 c -4.4049,0.18772 -8.6143,1.47711 -10.8789,3.79296 -5.651,5.7788 0.7853,2.81273 4.5566,2.11133 7.8538,-1.4606 11.3077,0.0657 16.8281,5.09375 2.1957,1.9998 3,4.22523 3,8.29883 0,4.8696 -0.7859,6.34198 -6.289,11.76758 -3.4597,3.41088 -6.7603,6.20118 -7.334,6.20118 -0.5737,0 -1.0468,-1.6494 -1.0508,-3.66602 -0.022,-10.70721 -6.7895,-23.20249 -14.332,-26.45899 -4.2574,-1.8381 -8.8235,-2.04252 -30.9942,-1.38672 -14.3,0.423 -30.9732,1.48257 -37.0527,2.35547 -10.4449,1.4996 -11.3363,1.42828 -16.1817,-1.29492 -13.2666,-7.4563 -31.6629,-0.84056 -39.2656,14.11914 -2.8242,5.5571 -3.4755,6.02975 -8.9394,6.49805 -13.1064,1.1234 -30.0196,13.22489 -40.3243,28.85159 -8.7972,13.3409 -10.8651,19.155 -10.8476,30.5078 0.014,9.1965 0.5246,11.1955 5.2324,20.4707 5.3406,10.5218 15.0462,22.0039 18.5996,22.0039 1.5932,0 1.8364,1.286 1.2207,6.4844 -0.4413,3.7261 -0.072,8.5939 0.8692,11.4472 3.3869,10.2624 15.0287,19.4024 24.7129,19.4024 20.6296,0 27.221,-12.059 10.6074,-19.4063 -7.8851,-3.4872 -9.9287,-6.0897 -7.2832,-9.2773 2.3408,-2.8206 2.9329,-2.6014 9.0039,3.3496 14.005,13.7284 24.7793,-1.7515 11.3564,-16.3499 -4.4323,-4.8205 -18.8144,-10.3142 -25.2842,-10.3142 -4.9613,-9e-4 -6.1014,-0.6412 -10.3164,-5.7851 -6.1748,-7.5356 -9.1659,-15.9744 -8.1425,-22.9746 1.9892,-13.607 12.1763,-27.4652 26.25,-35.7129 l 6.0449,-3.543 6.8105,3.0059 c 6.4678,2.8554 6.8525,3.3105 7.6074,9.0078 4.9209,37.1376 12.8908,65.2055 19.1133,67.3144 1.2157,0.412 4.1721,2.5371 6.5703,4.7227 4.2286,3.8536 4.2948,4.0747 2.1797,7.3027 -1.4009,2.1381 -2.0939,5.7123 -1.9375,9.9942 0.1334,3.6663 0.1994,8.016 0.1446,9.666 -0.055,1.65 -0.3188,10.8007 -0.586,20.334 -0.5894,21.0331 -2.1515,29.081 -8.0742,41.58 -8.3199,17.5578 -19.5748,34.8529 -40.7539,41.6582 -16.4002,5.2697 -18.2434,6.3115 -21.5371,12.1719 -2.3271,4.1405 -3.8103,5.138 -9.6074,6.457 -7.7109,1.7542 -17.908,8.5753 -20.7207,13.8614 -1.6268,3.0572 -1.5828,4.2518 0.3476,9.3066 4.5051,11.7963 23.2769,28.3706 38.0254,33.5742 9.4826,3.3456 26.2726,4.0647 41.1777,-0.5234 7.8863,-2.4168 17.8422,-4.0765 20.3145,-15.1797 0,-7.2238 -13.4535,-16.7471 -24,-16.9883 -2.5667,-0.059 -5.8673,-0.5981 -7.334,-1.1992 -2.4472,-1.0028 -2.3368,-1.2203 1.334,-2.6406 40.1064,-15.5178 68.3102,-61.2685 68.6211,-99.8516 0.045,-5.6132 0.1487,-5.7497 3.7578,-4.957 2.0414,0.4484 6.1724,-0.053 9.1816,-1.1152 5.4358,-1.9179 5.5227,-1.8974 13.2891,3.1894 9.2199,6.0388 17.3168,16.1256 19.9395,24.8399 3.3555,11.1497 1.1964,36.7411 -3.9102,51.2148 -1.029,2.9167 -2.2908,7.7922 -2.8047,10.834 -0.5139,3.0416 -2.1523,6.6315 -3.6406,7.9785 -1.4883,1.3469 -3.9668,7.5594 -4.9023,9.3945 -13.7474,28.7196 7.7058,31.2005 36.25,33.002 19.4758,-0.4319 28.3984,0.019 43.4023,-4.1914 27.2915,-7.6579 33.8401,-14.7176 23.1152,-24.9199 -9.4977,-8.5921 -28.7894,-8.5771 -42.3515,-12.3282 l -6.7168,-0.8066 c -0.9193,-6.6781 1.7079,-13.2674 3.2949,-17.6953 4.5648,-12.9979 5.2528,-34.1501 1.6406,-50.4336 -3.3476,-15.0912 -12.3785,-34.5844 -19.9668,-43.0996 -3.3824,-3.7957 -9.2901,-8.1393 -15.2305,-11.1973 l -9.705,-4.9961 2.3886,-11.4707 c 2.5292,-12.1474 2.209,-18.8168 -1.0312,-21.5058 -3.392,-3.0335 1.4645,-7.8901 3.375,-14.6211 1.5005,-5.2864 6.5575,-24.4727 8.1445,-40.3204 l 1.6055,-16.041 3.7617,8.2891 c 2.0692,4.5583 5.9586,11.2792 8.6426,14.9355 6.27,8.5415 21.169,19.0449 30.0273,21.17 14.6534,3.5152 29.6016,-1.7213 41.3926,-14.502 8.2854,-8.9809 12.7534,-17.3371 13.9531,-26.0898 0.7664,-5.5916 1.4112,-6.5402 6.0528,-8.9082 6.0404,-3.0816 9.6302,-8.3281 12.6133,-18.4375 2.877,-9.75034 0.8311,-19.78195 -5.043,-24.72465 -7.3037,-6.1457 -12.4171,-3.57175 -13.8418,6.96875 -1.6923,12.5198 -4.5645,17.6504 -9.8828,17.6504 -2.5628,0 -6.7559,-5.26624 -6.7559,-8.48634 0,-1.7345 1.2013,-4.67837 2.668,-6.54297 3.4851,-4.4306 3.3791,-8.31973 -0.2969,-10.89453 -5.2843,-3.7012 -10.1712,-2.62572 -16.4101,3.61328 -10.4856,10.4856 -10.6593,25.61226 -0.4122,35.85936 3.3888,3.3888 2.3951,4.5728 -8.6835,10.3692 -8.9624,4.6892 -13.954,5.0427 -21.6778,1.5351 -5.6028,-2.5444 -12.3966,-11.7837 -17.3066,-23.5351 -2.0079,-4.8055 -1.9678,-5.3011 0.8301,-10.27934 5.1302,-9.1281 2.0058,-19.11024 -8.1661,-26.08984 -3.0452,-2.08955 -7.6459,-3.00218 -12.0507,-2.81445 z m -112.2188,9.66601 c 7.4452,0.80323 16.3926,9.72983 16.3926,17.48828 0,5.5677 -5.874,13.91624 -11.4219,16.23434 -5.9947,2.5047 -10.7977,2.3265 -17.3476,-0.6484 -10.9869,-4.99 -10.9745,-16.4546 0.027,-26.5957 3.2546,-3 7.4308,-5.83443 9.2812,-6.29883 0.9719,-0.24393 2.0048,-0.29444 3.0684,-0.17969 z m 96.8894,5.11372 c 1.6237,1.70909 5.2975,15.40085 4.2454,15.49175 -0.2518,0.0218 -2.2326,-0.32944 -4.5821,-1.14844 -2.7068,-0.9438 -10.9666,-1.27042 -22.5488,-0.89062 -26.6063,0.8726 -37.4095,5.65601 -40.4336,17.90431 -0.6965,2.8208 -1.1644,21.0295 -1.039,40.4629 0.1254,19.4333 0.1458,36.684 0.045,38.334 -0.2087,3.4104 -0.2791,3.42 -7.5176,1.1425 -10.213,-3.2133 -10.7386,-3.8526 -15.6953,-19.1074 -3.5799,-11.0174 -11.1889,-41.0224 -13.4121,-52.8867 -0.1238,-0.6606 1.8394,-1.4598 4.3633,-1.7773 14.8711,-1.8708 27.2324,-18.73785 22.8808,-31.22075 -0.8148,-2.3373 -1.1529,-4.57952 -0.75,-4.98242 0.6237,-0.6237 66.5983,-3.67018 67.3892,-3.7174 5.1363,-0.30666 5.492,0.75059 7.0548,2.39557 z m 93.2161,1.47417 c 0.8117,0.16716 0.3844,1.74149 -1.1973,4.91211 -4.041,8.1004 -0.083,18.74612 8.2656,22.23442 5.9627,2.4914 10.2801,1.286 15.1133,-4.2188 3.9946,-4.5496 6.448,-13.90731 5.0488,-19.25781 -0.8893,-3.4013 1.2023,-3.45542 3.0098,-0.0781 2.3012,4.2998 1.503,13.69429 -1.707,20.08791 -2.2622,4.5057 -4.567,6.7773 -9.2539,9.1211 -8.15,4.0757 -15.8796,5.1341 -18.4825,2.5312 -1.0822,-1.0822 -3.234,-2.3683 -4.7812,-2.8594 -3.2384,-1.0278 -7.0625,-9.496 -7.0625,-15.63862 0,-4.8728 4.4166,-13.27445 8.2305,-15.65625 1.396,-0.87184 2.3293,-1.27804 2.8164,-1.17774 z m -219.9121,14.34571 c 0.3156,0 0.8484,1.95068 1.1836,4.33402 0.3351,2.3833 1.0243,5.2813 1.5332,6.4394 0.7068,1.6088 -0.3027,2.4734 -4.2832,3.666 -2.8655,0.8585 -5.4411,1.5454 -5.7227,1.5274 -0.7094,-0.045 -5.3844,-9.5519 -4.9023,-9.9688 0.7506,-0.6491 11.6228,-5.99802 12.1914,-5.99802 z m 131.4687,4.66602 0.8809,5.8789 c 1.2575,8.389 -0.5061,33.9266 -3.4922,50.5684 -2.3085,12.8656 -7.5602,29.5546 -9.3027,29.5546 -0.3794,9e-4 -0.4831,-3.3177 -0.2305,-7.375 0.5152,-8.2783 -2.093,-13.9589 -6.4102,-13.9589 -3.3566,0 -3.9781,1.1873 -6.1543,11.7597 -3.1903,15.4994 -2.9034,14.9063 -7.2539,14.9063 h -3.9746 v -10.5703 c 0,-12.4841 -1.4942,-14.9381 -8.2578,-13.5547 -3.8324,0.7838 -4.4962,1.5562 -5.3164,6.1777 -0.5155,2.9049 -0.9733,8.7306 -1.0156,12.9473 l -0.076,7.666 h -6.2148 -6.2149 l 0.8555,-39.0606 c 0.5039,-22.9999 1.4684,-40.8172 2.3457,-43.3339 2.2241,-6.38 13.3765,-9.3801 39.5312,-10.6329 z m 23.7949,2.1953 1.5313,6.0742 c 1.4298,5.6782 1.2948,6.4115 -2.0488,11.2364 -1.9674,2.8389 -3.8107,5.1621 -4.0957,5.1621 -0.9755,0 -2.8901,-6.2417 -3.7207,-12.1231 -0.8028,-5.6843 -0.6798,-5.9509 3.7519,-8.1133 z m -172.7754,2.4727 c 0.6486,0 2.0717,2.1342 3.1622,4.7441 1.889,4.5211 1.8382,4.8655 -1.0684,7.2891 -3.6554,3.0479 -4.925,3.1469 -8.2383,0.6386 -1.3873,-1.0502 -3.1873,-2.1958 -4,-2.5468 -1.5037,-0.6494 7.9899,-10.125 10.1445,-10.125 z m -14.5722,13.332 c 0.6623,0 2.9157,1.2193 5.0078,2.709 l 3.8047,2.709 -3.3418,4.9238 c -1.8376,2.7078 -3.4563,4.9694 -3.5977,5.0254 -0.3429,0.1371 -10.8097,-2.448 -11.332,-2.7989 -0.7905,-0.5308 8.2688,-12.5683 9.459,-12.5683 z m 251.3476,3.6269 6.2735,2.5196 c 3.4504,1.3865 6.5596,3.2284 6.9082,4.0937 0.3485,0.8654 -0.3827,3.716 -1.625,6.334 -1.2423,2.618 -2.641,4.7465 -3.1074,4.7305 -1.5927,-0.055 -14.847,-8.1877 -14.7989,-9.0801 0.026,-0.4895 1.4659,-2.6244 3.1992,-4.7441 z m -58.8164,0.3067 c 1.0054,0.1265 1.7491,1.4797 3.2989,4.1914 2.7184,4.7567 2.7191,4.8288 0.1796,10.6523 l -2.5566,5.8653 -4.8203,-7.1563 -4.8203,-7.1562 3.8437,-3.2344 c 2.6019,-2.1894 3.8697,-3.2886 4.875,-3.1621 z m -57.9375,2.8984 c -2.0563,0.1856 -4.1417,1.4993 -6.1933,3.9375 -4.5788,5.4415 -4.5191,10.8639 0.1582,14.543 4.4253,3.481 9.0874,2.7145 13.4883,-2.2168 3.5847,-4.0168 3.0985,-8.5764 -1.4297,-13.4277 -1.9398,-2.0781 -3.9671,-3.0215 -6.0235,-2.836 z m -2.9629,5.168 c 0.6424,0 2.0844,1.31 3.2051,2.9101 1.5026,2.1452 1.6537,3.3701 0.5781,4.6661 -1.8764,2.261 -3.0889,2.219 -5.0781,-0.1778 -1.6758,-2.0192 -0.7343,-7.3984 1.2949,-7.3984 z m 110.4004,1.4629 6.8203,6.8203 6.8204,6.8203 -3.0274,3.2461 c -1.6651,1.7851 -4.6215,4.3861 -6.5683,5.7813 l -3.5391,2.5371 -3.6816,-6.334 c -2.0245,-3.4836 -4.4934,-7.5956 -5.4864,-9.1387 -1.6638,-2.5857 -1.3954,-3.0777 3.4278,-6.2695 z m -252.6816,3.8711 c 1.028,0 3.7897,0.6694 6.1387,1.4883 3.8987,1.3591 4.1949,1.854 3.3925,5.6679 -1.0657,5.0661 -1.406,5.4141 -7.1308,7.3281 -6.7067,2.2423 -8.1348,1.9173 -8.1348,-1.8593 0,-4.8404 3.5362,-12.625 5.7344,-12.625 z m 215.1211,0.2343 c 0.9885,0.034 2.3241,0.651 4.3437,1.6954 3.5683,1.8451 3.6863,2.2135 2.6797,8.3339 -0.5792,3.5216 -1.0891,7.1537 -1.1328,8.0704 -0.1119,2.3472 -1.4086,2.0093 -6.7461,-1.7579 -5.2907,-3.7342 -5.1841,-3.3155 -2.7363,-10.9101 1.2635,-3.9202 1.9442,-5.4874 3.5918,-5.4317 z m 20.7578,3.9551 c 2.2112,0.2925 2.9874,2.1244 6.0469,9.4063 2.2489,5.3525 3.8095,10.1829 3.4687,10.7344 -0.6395,1.0346 -14.7597,1.2282 -17.1289,0.2343 -0.8043,-0.3373 -1.0682,-4.3958 -0.666,-10.2285 l 0.666,-9.6699 4.7871,-0.4004 c 1.1936,-0.1 2.0891,-0.1736 2.8262,-0.076 z m -231.4141,15.2285 c 2.519,-0.081 3.1411,0.4012 3.1524,1.7461 0.01,1.1933 0.344,3.3754 0.7402,4.8496 0.5593,2.0812 -0.2652,3.1025 -3.6855,4.5645 -2.4229,1.0356 -4.7904,2.1066 -5.2598,2.3809 -0.7883,0.4605 -5.5466,-11.7505 -4.8086,-12.3399 0.1812,-0.1448 3.1788,-0.5712 6.6621,-0.9453 1.3087,-0.1406 2.3596,-0.229 3.1992,-0.2559 z m 5.6934,14.1309 c 0.8502,-0.065 1.3823,0.7182 2.3633,2.2891 1.3179,2.1104 0.9737,3.0693 -2.1953,6.1054 l -3.7598,3.6016 -2.1934,-3.1055 c -2.1033,-2.9788 -2.0405,-3.2288 1.5176,-6.0996 2.2505,-1.8158 3.4174,-2.7265 4.2676,-2.791 z m 6.1016,7.9395 2.9746,2.7949 2.9765,2.7969 -3.375,3.1269 c -3.813,3.5339 -4.7425,3.7537 -6.8711,1.625 -1.1135,-1.1134 -0.7523,-2.6458 1.3965,-5.9238 z m 23.1718,9.1777 c 7.7021,0 15.6207,4.4358 18.6741,11.7434 2.686,6.4286 0.682,6.3713 -5.176,1.0789 -5.5718,-5.0339 -9.5015,-5.9023 -15.1211,-3.3418 -3.3947,1.5467 -6.209,6.2643 -6.209,10.4043 0,3.962 5.3255,9.5403 11.7246,12.2832 2.0735,1.2077 4.8333,3.4137 0.666,4.8789 -3.6909,1.2445 -5.2402,0.9534 -11.332,-2.1348 -12.0657,-6.1164 -16.3107,-16.8941 -10.4453,-26.5137 3.4367,-5.6364 9.0989,-8.3984 17.2187,-8.3984 z m 124.1348,12.1641 c 1.2295,0.091 1.3527,1.323 1.3203,5.3476 -0.072,8.978 -3.2227,21.6753 -6.9609,28.0527 -3.5294,6.0211 -10.6513,12.4698 -17.9258,16.2305 -2.3469,1.2132 -5.7869,2.2051 -7.6426,2.2051 -3.2302,0 -3.3375,-0.2545 -2.5527,-5.9805 1.2608,-9.1983 -1.5585,-17.0835 -8.3438,-23.3379 -6.3051,-5.8119 -10.6447,-6.6823 -18.7324,-3.7578 -2.417,0.874 -4.8593,1.1226 -5.4277,0.5528 -1.4063,-1.4099 -0.9208,-14.1223 0.5976,-15.6407 0.7369,-0.7369 3.4909,-0.4175 6.961,0.8067 10.3244,3.6427 29.4131,2.2212 57.0742,-4.25 0.6912,-0.1617 1.223,-0.259 1.6328,-0.2285 z m -50.7324,27.1191 c 5.3941,2.7893 8.3008,10.8396 7.3769,20.4277 -1.6901,17.5398 -2.0199,18.9571 -4.4258,18.9571 -2.998,0 -5.5195,-2.5572 -5.5195,-5.5997 0,-1.3199 -0.5987,-2.4003 -1.332,-2.4003 -1.7493,0 -1.7168,7.4585 0.047,10.7539 0.7915,1.4789 2.7814,2.5781 4.666,2.5781 3.7988,0 4.0505,1.6444 1.8301,11.998 -1.2198,5.6875 -2.3025,7.3536 -6.6348,10.2207 -6.4585,4.274 -8.9518,3.3951 -10.0625,-3.5507 -1.1918,-7.4531 -3.7535,-6.0226 -4.2461,2.3711 -0.4607,7.8503 2.6024,12.2949 8.4746,12.2949 h 3.4102 l -2.4102,4.1699 c -3.8825,6.722 -19.6843,31.0065 -27.6465,36.4902 -6.1802,4.2565 -7.6792,4.7913 -9.414,3.3516 -1.4077,-1.1683 -4.4008,-1.4708 -9.4161,-0.9531 l -7.3515,0.7578 0.8594,-4.5742 c 2.0338,-6.1016 -1.3738,-5.9058 -4.7832,0.7773 -3.8003,7.4492 -2.1017,10.3656 6.3515,10.9082 l 6.3262,0.4063 c -3.082,1.0324 -20.5421,19.1664 -35.9668,-1.9336 -3.2948,-4.507 -2.5853,-9.7991 -0.064,-14.6739 1.7459,-3.3763 3.0685,-3.9844 11.666,-5.3593 21.0121,-3.3603 28.4879,-6.8243 40.6114,-18.8223 14.0169,-13.8717 21.7539,-43.623 21.7539,-69.1602 0.1878,-10.5665 -3.5923,-13.2163 3.7271,-19.6439 3.8641,-3.1792 8.7967,-1.5326 12.1733,0.2084 z m 56.7656,8.7637 8.3711,6.707 c 7.7075,6.1749 16.2949,16.0736 16.2949,18.7812 0,1.9829 -4.2046,1.2225 -8.7363,-1.5781 -4.7521,-2.937 -6.9867,-1.7543 -4.7129,2.4942 2.8115,5.2533 12.0547,8.8859 14.1172,5.5488 1.6467,-2.6644 2.786,-1.1488 6.543,8.6914 3.6955,9.6792 3.7455,10.1135 1.4355,12.666 -3.229,3.568 -3.0989,1.8771 -6.4238,-2.4746 -3.2848,-4.2991 -5.0991,-3.4942 -4.5782,2.3203 0.5022,6.3797 5.7693,10.2833 10.7891,7.9961 1.9686,-0.8974 3.9387,-1.2721 4.3789,-0.832 0.4403,0.4403 1.0871,6.9886 1.4375,14.5508 0.5627,12.144 0.2044,15.3055 -3.0762,27.082 -3.9582,9.1688 -3.0565,26.4023 -9.6679,29.8711 -6.755,3.416 -13.1515,3.8173 -15.9688,1 -3.7787,-3.7787 -5.1969,-21.7917 -2.3984,-30.461 5.5535,-17.204 7.1014,-40.9984 3.0527,-52.7578 -3.5983,-10.4515 -18.6157,-21.5347 -22.3574,-25.6269 -3.185,-2.4411 -7.5813,-3.984 -0.8281,-8.4785 3.9081,-2.601 6.7347,-7.5857 12.3281,-15.5 z m 26.7988,73.8632 c -1.312,0 -2.3395,2.2767 -2.1328,5.1915 0,1.9612 1.2013,4.7657 2.668,6.2324 3.21,3.21 3.8896,3.2629 7.7031,0.5918 1.7491,-1.2252 2.9629,-3.4731 2.9629,-5.4864 0,-3.3654 -0.4649,-3.9173 -3.459,-1.1445 -3.3246,3.0789 -2.4545,4.5592 -5.2773,-2.5781 -0.7869,-1.9896 -1.6777,-2.8074 -2.4649,-2.8067 z m -119.1953,10.9844 c -1.2302,-0.39 -2.8697,2.1948 -4.0488,5.541 -0.9988,4.5314 -1.3515,6.2042 -0.1367,7.668 2.8334,3.4141 11.5148,1.1997 15.8691,-4.0469 2.6788,-3.2279 4.426,-7.0708 -2.8906,-2.4101 -9.5055,5.4771 -7.3397,3.4852 -7.209,-2.3594 -0.2551,-2.8541 -0.8458,-4.1586 -1.584,-4.3926 z m 115.4102,13.7735 c -1.7422,0 -1.1072,4.6055 1.0625,7.7031 3.6409,5.1982 9.9238,3.0092 9.9238,-3.457 0,-3.1227 -0.099,-3.155 -3.3105,-1.0508 -3.1225,2.046 -3.4084,2.0183 -4.9883,-0.5117 -0.9217,-1.4757 -2.1306,-2.6836 -2.6875,-2.6836 z m -178.9532,16.8632 c 1.4081,0 1.9395,0.8701 1.9395,2.6153 0,4.2265 4.2661,9.8988 9.9512,13.2304 4.9791,2.918 7.3284,3.4284 14.5605,3.1661 5.9976,-0.2175 9.5874,0.3198 11.791,1.7636 1.7426,1.1418 6.0345,3.0491 9.5371,4.2383 8.1148,2.7549 13.2433,5.4108 15.3516,7.9512 1.3887,1.6733 1.0414,2.3245 -2.0977,3.9394 -19.2102,9.6159 -36.7366,9.8256 -57.1874,0.584 -8.5884,-5.2171 -23.2403,-19.5514 -23.2403,-22.7363 0,-3.4601 5.2194,-8.6498 12.1934,-12.125 3.5089,-1.7506 5.7931,-2.6251 7.2011,-2.627 z m 154.3516,8.4688 1.2715,6.3379 c 3.4349,11.7045 10.8149,15.4759 26.1367,10.9258 5.4667,-1.6235 7.7501,-3.1956 10.5762,-7.2871 2.3453,-3.3956 4.302,-4.9577 5.6035,-4.4727 1.1,0.41 10.15,3.7385 16.75,4.8184 12.6351,2.0674 21.4907,5.2629 24.4219,8.8144 2.5379,3.0749 -1.7339,5.4066 -16.4219,8.959 -23.9027,5.8111 -39.5344,9.2648 -65.8984,2.1309 -7.0426,-2.8714 -9.9567,-4.6926 -8.836,-12.6504 0.3747,-4.0546 2.004,-8.1127 3.5625,-11.4707 z" fill="#00B894" transform="translate(-51.618515,67.416061) matrix(0.6950081,0,0,0.6950081,661.94058,3117.6803) translate(-3214.0181,-5425.6289)"/>
</svg>