<?xml version="1.0" ?><svg height="192.0495mm" viewBox="0 0 153.90262 192.0495" width="153.90262mm" xmlns="http://www.w3.org/2000/svg">
    <path d="m 188.3599,198.4357 c -0.83015,0.003 -1.69691,0.0997 -2.59726,0.31058 -8.2318,1.92835 -9.51157,9.51984 -9.51157,9.51984 0,0 -3.21964,5.20743 -3.03805,7.85481 -0.3351,5.51056 5.5764,5.4932 5.5764,5.4932 0,0 4.64856,8.47915 12.02923,5.82963 7.38069,-2.64954 7.43677,-8.52042 7.43677,-8.52042 0,0 1.99734,-2.13547 2.42104,-3.80234 0.4237,-1.66688 -1.15681,-6.17904 -1.19941,-8.45117 -0.0379,-2.02362 -4.35738,-8.25698 -11.11715,-8.23413 z m 1.17512,1.73271 c 0.13997,-0.002 0.28035,0.005 0.42115,0.0207 3.00396,0.33393 4.20001,4.53675 4.31448,5.61671 0.11447,1.07994 -3.50115,-1.00212 -5.34852,-0.81028 -1.84737,0.19182 -5.81032,1.63083 -5.29321,0.0997 0.43643,-1.4187 3.06006,-4.89335 5.9061,-4.92683 z m -5.9738,31.4415 c -4.23339,0.0417 -9.10842,2.50857 -10.84481,4.13257 -1.85216,1.73223 -6.00438,13.38908 -5.54437,22.85648 0.46001,9.4674 3.76499,9.19525 7.29981,11.59206 3.31388,0.15485 5.90764,-1.35113 10.05986,-3.92224 4.15221,-2.57114 7.1664,-4.94619 5.91953,-5.94849 -1.24687,-1.00229 -1.29007,-1.5625 -2.56263,-4.59764 -1.27256,-3.03515 2.57447,-12.48485 2.80448,-16.63567 0.23001,-4.15084 -1.88828,-7.13581 -6.29471,-7.45175 -0.2754,-0.0198 -0.55493,-0.0281 -0.83716,-0.0253 z m 37.46439,3.71812 c -2.22916,0.0252 -5.35304,0.61605 -7.14996,0.92656 -3.02639,0.52293 -12.74727,1.72124 -12.98938,2.27685 -0.24212,0.55565 -5.81102,23.02031 -5.81102,23.02031 -0.0121,2.16804 21.12429,-2.13527 21.12429,-2.13527 0,0 7.37262,-21.14673 7.43314,-23.07507 0.0246,-0.78341 -1.08186,-1.03062 -2.60707,-1.01338 z" fill="#FFFFFF" transform="translate(-69.689857,-34.093449) matrix(2.6101328,0,0,2.6101328,-362.65721,-482.37732)"/>
    <path d="m 170.82377,270.42182 c -1.99626,-1.14501 -3.32078,-2.69621 -4.45184,-5.21367 -0.62529,-1.39175 -0.75421,-2.31779 -0.72672,-5.2197 0.0326,-3.43556 0.30849,-5.24694 1.85406,-12.17084 0.41145,-1.84326 0.99683,-4.66339 1.30084,-6.26696 0.98735,-5.2082 3.29325,-7.87446 8.29168,-9.58758 3.44445,-1.18053 6.4219,-1.31849 9.33817,-0.43269 1.34207,0.40763 2.77435,1.10371 3.18283,1.54683 0.88879,0.96413 1.87212,3.74637 1.87212,5.29697 0,2.16677 2.94859,5.2101 5.0479,5.2101 1.08511,0 1.26266,-0.24023 2.21061,-2.99087 0.80384,-2.33245 1.3183,-2.73722 4.53662,-3.5695 2.11458,-0.54683 12.91562,-2.10436 17.00255,-2.45179 2.63002,-0.22358 2.93066,-0.18171 3.61597,0.5036 0.89623,0.89621 0.92749,2.00458 0.16535,5.86273 -0.3066,1.55222 -0.60086,4.06294 -0.65388,5.57937 -0.13659,3.90772 -0.72291,5.68436 -2.45604,7.4424 -0.92526,0.93856 -1.76748,2.29736 -2.29005,3.69474 -0.45787,1.22432 -1.1762,2.43929 -1.61036,2.72377 -1.72361,1.12934 -18.42915,3.64881 -21.20597,3.19821 -2.30318,-0.37377 -2.48268,-1.05456 -1.48255,-5.62321 0.20253,-0.92505 0.26578,-2.08996 0.14062,-2.58872 -0.21897,-0.87245 -0.29725,-0.89729 -2.06516,-0.65549 -3.11595,0.42615 -3.37827,0.61023 -3.089,2.16711 0.13773,0.74136 0.51534,1.856 0.83916,2.47692 0.77057,1.4779 0.74256,1.86962 -0.13371,1.86962 -1.08045,0 -2.3986,-1.64588 -3.01427,-3.76372 l -0.54674,-1.88072 -3.06179,-0.004 c -6.87906,-0.008 -9.82959,-3.40586 -10.21204,-11.76128 -0.16453,-3.59475 -0.13518,-3.81953 0.48299,-3.70048 0.53471,0.10297 0.73406,0.66084 1.06289,2.97445 1.14201,8.03494 2.87256,10.02132 8.73072,10.02132 h 2.97801 l 0.24232,-2.20486 c 0.13328,-1.21267 0.7045,-4.06089 1.26936,-6.32937 1.67986,-6.74622 1.35668,-9.59892 -1.22932,-10.85078 -2.6264,-1.27143 -6.79524,-0.7108 -10.87194,1.46206 -3.34278,1.7817 -4.8367,4.07693 -5.69755,8.75374 -3.41866,18.57286 -3.06833,21.14485 3.46514,25.44035 1.26936,0.83456 2.30794,1.64246 2.30794,1.79535 0,0.15286 -0.75406,0.27647 -1.6757,0.27464 -1.20036,-0.004 -2.18277,-0.29415 -3.46323,-1.02859 z m 31.61066,-9.75837 c 4.14296,-0.57792 12.6589,-2.11014 12.83893,-2.31002 0.0638,-0.0709 0.52486,-1.14932 1.02454,-2.39649 l 0.90846,-2.26762 -1.21906,-1.34938 c -1.25507,-1.38923 -1.60785,-2.75844 -0.7107,-2.75844 0.27957,0 0.60593,0.1579 0.7252,0.35088 0.11928,0.19299 0.56519,0.53719 0.99096,0.76489 0.60301,0.3225 0.5207,0.12527 -0.37243,-0.89232 -1.26573,-1.44215 -1.3546,-1.72825 -0.70453,-2.26778 0.31076,-0.25789 0.70365,-0.22204 1.32291,0.12069 1.38384,0.76587 1.51603,0.60435 0.5461,-0.66729 -1.50978,-1.97943 -0.95962,-2.86917 1.04338,-1.68738 l 1.21447,0.71657 0.54483,-1.83464 c 0.81587,-2.74734 1.6915,-7.31879 1.44844,-7.56187 -0.11751,-0.11749 -4.61861,0.29661 -10.00245,0.92022 -7.71889,0.89406 -9.91207,1.261 -10.37153,1.73523 -0.74898,0.77301 -3.3721,9.24447 -2.86251,9.24447 0.10158,0 0.79968,-0.55562 1.55138,-1.23472 1.53966,-1.39101 1.79472,-1.46255 2.44044,-0.6845 0.39152,0.47171 0.13642,0.85496 -1.78735,2.68557 l -2.24401,2.13534 1.91875,-0.96931 c 1.0553,-0.53313 2.29736,-1.26538 2.7601,-1.62723 1.99119,-1.55714 2.67931,-0.15761 0.81996,1.66769 -0.85548,0.83982 -1.06422,1.19353 -0.60296,1.02161 0.38805,-0.14463 1.06274,-0.34043 1.4993,-0.43511 1.80478,-0.39142 0.2019,1.93888 -2.20486,3.20547 l -1.05833,0.55693 1.17238,0.0141 c 0.92132,0.0109 1.14777,0.14634 1.05731,0.63148 -0.1935,1.0379 -2.34766,1.85092 -4.90565,1.85152 h -2.32322 l -0.53749,1.93117 c -0.29567,1.06214 -0.48539,1.98335 -0.42164,2.0471 0.15561,0.15561 2.03552,-0.0346 6.50088,-0.65744 z m -9.64315,-8.59714 c 0.23345,-0.008 0.67615,-0.54579 0.98377,-1.19408 0.30761,-0.6483 1.10884,-1.71132 1.78042,-2.36226 1.3992,-1.35615 1.65679,-2.80902 0.49802,-2.80902 -1.13131,0 -2.64407,-0.92578 -3.79568,-2.32291 -1.21937,-1.4793 -1.07156,-1.70323 -2.17149,3.28931 -0.39493,1.79271 -0.71808,3.87483 -0.71808,4.62694 v 1.36748 l 1.49932,-0.29005 c 0.82461,-0.15952 1.69029,-0.29696 1.92372,-0.30541 z m -8.62894,-23.1754 c -2.25389,-0.69007 -4.65666,-2.71987 -5.54098,-4.68092 -0.45052,-0.99912 -0.86853,-1.4396 -1.36613,-1.4396 -0.39436,0 -1.40744,-0.33423 -2.25128,-0.74274 -3.30656,-1.60067 -3.87275,-6.00788 -1.41447,-11.01033 0.685,-1.39394 1.61827,-3.5663 2.07392,-4.82748 2.98446,-8.26056 15.06785,-11.1438 21.30365,-5.0833 2.32883,2.26337 3.38621,4.78972 3.54997,8.48183 0.0728,1.6408 0.29284,3.28317 0.48899,3.64973 0.88335,1.65057 -0.10354,5.309 -1.5856,5.87772 -0.28995,0.11125 -0.52871,0.54248 -0.53061,0.95829 -0.004,0.67203 -1.17281,3.37834 -2.08033,4.81295 -0.18412,0.29104 -0.422,0.81058 -0.52861,1.15453 -0.1066,0.34395 -0.47522,0.71223 -0.81918,0.81841 -0.34396,0.10618 -1.61244,0.67607 -2.81887,1.26643 -2.7069,1.32462 -5.75377,1.59928 -8.48047,0.76448 z m 7.38067,-2.64953 c 1.18876,-0.65946 1.50482,-1.02263 1.41902,-1.63054 -0.0641,-0.45421 0.0838,-0.79784 0.35278,-0.81961 0.25475,-0.0206 0.77044,-0.0603 1.146,-0.0882 0.96506,-0.0716 2.40351,-3.03317 2.59504,-5.34272 0.4379,-5.28015 -3.42445,-11.13795 -7.897,-11.97701 -0.68605,-0.1287 -2.09335,-0.0584 -3.12731,0.15626 -1.73937,0.3611 -1.89262,0.4747 -2.04946,1.51958 -0.11846,0.78913 0.0562,1.4481 0.57986,2.18764 1.13263,1.5996 1.06631,5.72937 -0.12961,8.07117 -0.88713,1.73706 -3.26342,4.09966 -4.12342,4.09966 -0.67305,0 -0.57831,0.4158 0.39558,1.73583 1.70828,2.31544 3.94637,3.28037 7.13436,3.07587 1.42893,-0.0917 2.69924,-0.43047 3.70416,-0.98794 z m -7.01162,-0.38418 c -0.89969,-0.98299 -1.2385,-2.05482 -0.8467,-2.67852 0.22556,-0.35909 0.69906,-0.0834 1.95738,1.13951 0.91292,0.88724 1.55978,1.77508 1.43746,1.97296 -0.38826,0.62821 -1.79528,0.38858 -2.54814,-0.43395 z m 8.18793,-3.79288 c -0.13338,-0.2158 -0.14513,-0.78021 -0.0261,-1.25426 0.25068,-0.99878 1.50953,-1.19177 1.85758,-0.28477 0.42761,1.11427 -1.23201,2.50891 -1.83141,1.53903 z m -4.28095,-0.5264 c -0.32502,-0.84691 0.45582,-2.29531 1.23737,-2.29531 0.81227,0 1.06179,0.57505 0.76542,1.76389 -0.2613,1.04806 -1.66194,1.4197 -2.00279,0.53142 z m -7.53227,-2.56961 c 1.63569,-1.63568 2.58727,-4.41908 2.09616,-6.1314 -0.47631,-1.66085 -2.36529,-3.47207 -3.62115,-3.47207 -2.67498,0 -5.20245,2.69648 -5.46209,5.82728 -0.31143,3.75538 0.67917,5.10883 3.7392,5.10883 1.74529,0 2.03352,-0.11826 3.24788,-1.33264 z m 17.97971,-5.73683 c -0.60798,-1.13604 -0.68597,-0.70936 -0.22825,1.24915 0.37952,1.62408 0.42073,1.67409 0.52141,0.63315 0.0602,-0.62163 -0.0718,-1.46866 -0.29316,-1.8823 z m -0.80137,-5.118 c -0.24024,-2.32762 -1.4762,-4.60446 -3.32817,-6.13101 -1.61731,-1.33313 -2.72292,-1.49617 -1.52919,-0.2255 0.92879,0.98867 2.20535,4.55344 1.90807,5.32821 -0.2866,0.74682 1.52372,2.98521 2.4143,2.98521 0.68312,0 0.72221,-0.14293 0.53499,-1.95691 z m -15.96542,-2.10003 c 0.25584,-1.60758 1.58288,-3.85954 2.96136,-5.02533 0.88674,-0.74995 0.89662,-0.7921 0.18581,-0.79375 -1.93453,-0.005 -5.93464,2.66165 -7.31195,4.87361 -1.48164,2.37954 -1.48837,2.36795 1.36997,2.36196 l 2.57027,-0.005 0.22454,-1.41111 z m 11.12979,-0.74572 c 0,-1.0781 -1.52883,-3.2867 -2.64019,-3.81407 -1.53592,-0.72884 -3.37979,-0.12435 -4.96171,1.62666 -1.33022,1.47238 -1.59346,2.28856 -0.60018,1.8608 1.45408,-0.62621 4.83192,-0.54432 6.2618,0.15182 1.76908,0.86129 1.94028,0.87671 1.94028,0.17479 z" fill="#00B894" transform="translate(-69.689857,-34.093449) matrix(2.6101328,0,0,2.6101328,-362.65721,-482.37732)"/>
</svg>