<?xml version="1.0" ?><svg height="192.40439mm" viewBox="0 0 267.80972 192.40439" width="267.80972mm" xmlns="http://www.w3.org/2000/svg">
    <path d="m 308.7759,-4308.3709 c -7.6554,-3.5724 -13.4206,-5.7413 -5.4344,-24.4963 7.9862,-18.755 26.9357,-69.1511 33.5042,-76.5936 6.5686,-7.4425 15.0746,-12.2482 15.0746,-12.2482 0,0 -5.4817,-12.6734 6.9466,-19.478 12.4282,-6.8045 76.0815,-12.1631 76.0815,-12.1631 l 10.0182,1.5736 c 0,0 14.9327,-7.1448 22.0211,-6.4218 7.0883,0.723 9.7346,5.8689 9.7346,5.8689 l 30.0546,1.446 c 0,0 12.5227,-6.9322 21.6431,-6.2092 9.1203,0.723 12.2535,7.9485 12.2535,7.9485 0,0 82.5412,4.3422 92.7957,5.3629 10.2544,1.0207 22.3046,7.6976 22.3046,7.6976 0,0 17.5319,1.4885 20.4617,3.6575 2.9298,2.1689 -2.1265,17.0964 -9.7346,32.194 -7.6082,15.0975 -29.3458,38.5307 -29.3458,38.5307 l -30.7161,7.6125 c 0,0 -6.5686,14.2895 -23.7223,33.4273 -17.1538,19.1378 -33.5043,36.7871 -42.7664,29.3446 -9.2621,-7.4425 -2.6935,-16.9263 2.7881,-29.9825 5.4817,-13.0562 20.9343,-31.3859 20.9343,-31.3859 l -27.0775,-1.4035 c 0,0 -28.1171,42.0606 -35.3,49.9283 -7.1828,7.8678 -19.2802,14.7148 -28.117,10.2919 -8.8368,-4.423 -10.3963,-11.4402 -6.285,-21.5619 4.1112,-10.1217 18.3352,-43.1237 18.3352,-43.1237 l -68.1899,1.616 c 0,0 -20.5089,31.0457 -28.3534,38.7434 -7.8444,7.6976 -16.2559,12.1631 -24.6674,8.2079 -8.4115,-3.9551 -9.4039,-9.4838 -3.5442,-17.2239 5.8597,-7.7402 25.9906,-33.9802 25.9906,-33.9802 l -25.8015,-4.0827 c 0,0 -29.0622,45.8881 -34.5911,51.2892 -5.529,5.4011 -17.2956,5.6137 -17.2956,5.6137 z" fill="#FFFFFF" transform="translate(83.922946,-35.155245) matrix(0.6950081,0,0,0.6950081,-289.18684,3135.4518)"/>
    <path d="m 533.09205,-4186.0203 c -2.3366,-1.4625 -4.9645,-3.9974 -5.8399,-5.6332 -2.1406,-3.9997 -1.9101,-15.5669 0.4232,-21.2371 3.60524,-6.473 -1.20846,-8.1468 -5.6801,-13.2648 -4.1647,-4.7667 -12.2706,-14.9667 -18.0131,-22.6667 -5.7425,-7.7 -13.2432,-17.3 -16.6682,-21.3333 -3.425,-4.0333 -8.1286,-9.985 -10.4526,-13.2259 -2.3239,-3.241 -6.0246,-6.9868 -8.2237,-8.3242 -2.1992,-1.3374 -5.0198,-4.5733 -6.268,-7.1908 -2.1129,-4.4308 -2.1219,-5.473 -0.1304,-15.104 1.3258,-6.4115 5.0122,-16.3214 9.6954,-26.0635 4.156,-8.6452 7.3725,-15.8496 7.1477,-16.0097 -0.2248,-0.16 -5.5087,0.1583 -11.7421,0.7075 -6.2333,0.5492 -18.5611,1.0462 -27.395,1.1046 l -16.0616,0.106 -10.5448,15 c -11.9393,16.9836 -23.9532,29.5479 -31.4726,32.9145 l -5.1032,2.2848 5.6219,5.3137 c 3.0921,2.9225 12.604,11.1248 21.1376,18.2274 17.5392,14.598 35.5181,32.9983 40.4268,41.3744 3.8377,6.5485 5.6122,18.5493 3.5354,23.9091 -1.9256,4.9696 -7.3411,6.9527 -13.7629,5.0397 -6.664,-1.9851 -9.0483,-5.7851 -9.0483,-14.4209 0,-5.8165 0.6093,-7.7065 3.3759,-10.4732 6.01082,-4.9737 1.05006,-6.0606 -3.5417,-11.361 -3.8047,-4.3918 -14.7739,-15.2144 -24.3759,-24.0503 -20.5533,-18.9132 -28.7264,-27.608 -28.7642,-30.5999 -0.018,-1.4508 -1.9913,-2.6696 -5.9256,-3.6602 -10.2849,-2.5898 -14.1123,-11.1176 -9.2296,-20.5643 3.3025,-6.3895 12.2331,-18.1093 18.8149,-24.6911 3.2084,-3.2083 5.6413,-5.9669 5.4065,-6.1302 -0.9554,-0.6642 -17.4529,-4.8559 -17.7055,-4.4986 -0.1501,0.2124 -3.3626,6.2298 -7.1389,13.3721 -8.3692,15.8294 -18.3686,29.7986 -26.3751,36.8463 l -5.98936,5.272 11.05766,9.2778 c 12.9504,10.866 24.0403,22.3834 39.7243,41.2558 16.9358,20.3788 22,28.8016 22,36.591 0,5.3268 -0.6638,7.0439 -4,10.3484 -2.2385,2.2172 -6.773,4.6947 -10.2968,5.6258 -5.9269,1.566 -6.4907,1.4816 -9.5975,-1.4371 -6.4022,-6.0146 -5.6055,-15.9264 2.0675,-25.7223 8.10047,-8.0335 -4.04595,-14.4704 -10.876,-22.6667 -8.117,-9.7407 -22.6795,-25.3805 -32.361,-34.7552 -14.23806,-13.7868 -18.67976,-17.3199 -23.23666,-18.4834 -8.2225,-2.0994 -12.3662,-6.4575 -12.3662,-13.0059 0,-9.9449 12.7348,-44.3701 26.7319,-72.2625 9.65906,-19.2481 12.93186,-23.7054 21.45046,-29.2141 6.0311,-3.9002 7.2745,-5.2912 6.2948,-7.0419 -2.6032,-4.6517 5.5931,-17.452 13.9784,-21.8305 13.2499,-6.9186 65.8242,-12.9031 71.2325,-8.1084 1.2715,1.1273 3.5119,2.2697 4.9786,2.5388 1.4666,0.2691 2.6666,1.3371 2.6666,2.3734 0,1.214 -5.6906,3.8343 -16,7.3672 -8.8,3.0157 -17.2,6.1736 -18.6666,7.0176 -2.0462,1.1775 9.5726,1.5581 49.9372,1.636 48.7803,0.094 64.8132,1.0786 62.0899,3.8128 -3.4806,3.4945 -111.3067,1.9143 -115.2889,-1.6895 -1.4694,-1.3298 -2.7526,-1.4961 -4.4057,-0.5709 -2.7186,1.5214 -3.0443,8.3061 -1.0682,22.2507 0.6955,4.9072 2.2253,16.4221 3.3997,25.5888 1.1744,9.1666 2.4095,17.9874 2.7447,19.6016 l 0.6094,2.935 39.3985,-0.5764 39.3984,-0.5763 10.6941,-17.692 c 26.418,-43.7054 35.8892,-50.6584 56.2002,-41.2573 11.2884,5.2249 13.712,8.7945 13.3547,19.6694 -0.3404,10.3572 -3.3933,18.3785 -12.7561,33.5145 l -7.4324,12.0154 8.8956,0.8402 c 15.4304,1.4575 14.5239,1.8562 15.4781,-6.8075 0.4645,-4.2166 1.4014,-17.2666 2.0821,-29 0.6807,-11.7333 1.6369,-24.4304 2.125,-28.2159 l 0.8873,-6.8826 -7.8385,-0.8645 c -12.5293,-1.382 -14.5266,-2.8651 -5.4326,-4.0341 4.2565,-0.5472 9.8759,-0.6482 12.4874,-0.2244 3.0922,0.5018 5.3689,0.1498 6.5281,-1.0093 0.9789,-0.9789 4.3596,-2.1229 7.5126,-2.5422 3.153,-0.4192 11.4327,-1.5113 18.3994,-2.4268 12.4532,-1.6365 12.5655,-1.6831 6.6666,-2.7664 -3.3,-0.606 -20.4,-1.909 -38,-2.8955 l -32,-1.7936 -3.708,3.1098 c -3.519,2.9511 -11.2806,5.864 -15.6253,5.864 -5.0253,0 -12.8268,-3.2549 -16.0362,-6.6906 -3.3699,-3.6075 -4.0996,-3.7828 -16.7436,-4.0238 -10.5855,-0.2018 -14.1502,0.2355 -17.8869,2.194 -5.6004,2.9355 -21.0834,4.1431 -25.1583,1.9623 -3.9172,-2.0964 -3.7014,-7.4689 0.4082,-10.1616 3.8717,-2.5368 15.8938,-5.894 21.186,-5.9163 2.4387,-0.011 5.2055,1.4204 7.8377,4.0526 3.3314,3.3314 4.7731,3.9136 7.9586,3.214 3.4698,-0.7621 14.0714,-2.087 33.539,-4.1913 9.2958,-1.0048 18.0864,0.6452 21.4715,4.0304 2.8331,2.8331 3.3978,2.8784 21.9685,1.7632 21.0373,-1.2632 69.7316,1.7421 75.1421,4.6377 1.6028,0.8578 6.229,1.9162 10.2805,2.352 6.3359,0.6815 7.4258,1.2119 7.7923,3.7923 0.3893,2.7409 1.1378,3.0004 8.6667,3.005 5.8615,0 9.4916,0.7677 12.5739,2.647 3.8157,2.3265 4.3333,3.3323 4.3333,8.4197 0,7.4852 -3.1092,17.8635 -8.9546,29.8895 -5.1797,10.6563 -23.9152,34.0769 -29.4848,36.8579 -1.9583,0.9777 -9.7106,3.4711 -17.2272,5.5407 -11.9037,3.2775 -13.6667,4.131 -13.6667,6.6163 0,6.0906 -42.2317,51.9993 -54,58.7016 -3.6667,2.0883 -6.9351,4.0085 -7.2631,4.2672 -0.3281,0.2587 4.2688,5.4019 10.2153,11.4294 14.8726,15.075 38.3816,42.862 41.0875,48.5642 2.9742,6.2677 4.5448,18.5805 3.0574,23.9677 -1.6931,6.1318 -7.3484,12.4271 -11.1637,12.4271 -4.1289,0 -8.3489,-4.6384 -9.4214,-10.3556 -1.1442,-6.0993 0.1979,-16.5712 2.7585,-21.5228 4.70166,-6.7875 -6.02738,-13.759 -11.0784,-19.8256 -7.2369,-8.6921 -17.7421,-20.8645 -23.3449,-27.0499 -5.6027,-6.1853 -11.4005,-13.7168 -12.884,-16.7365 -1.4834,-3.0198 -3.882,-6.5628 -5.3302,-7.8734 -3.4486,-3.121 -3.4316,-11.4139 0.039,-19.0617 3.0429,-6.7052 15.3587,-25.4831 21.1459,-32.2412 3.5695,-4.1683 3.7445,-4.7603 1.6387,-5.5437 -4.7205,-1.7561 -17.4567,-2.788 -17.4567,-1.4144 0,0.7421 -6.5557,11.2259 -14.5682,23.2975 -15.3354,23.1041 -24.0035,32.3695 -34.2459,36.6058 l -5.5425,2.2924 9.6494,10.8456 c 5.3072,5.965 14.6775,17.3866 20.823,25.3812 6.1454,7.9946 16.6505,20.2357 23.3447,27.2023 6.6942,6.9667 12.8541,13.9772 13.6887,15.579 3.1539,6.053 0.8572,18.6607 -4.157,22.8189 -3.7481,3.1083 -10.6284,3.2906 -15.2404,0.4039 z m 22.3898,-112.6219 c 5.7402,-4.3963 23.2709,-22.9748 36.6555,-38.8466 9.7637,-11.578 9.8747,-11.8812 3.9447,-10.7687 -2.7373,0.5135 -11.0741,0.9775 -18.5261,1.031 l -13.549,0.097 -8.2289,12.8203 c -9.0874,14.1577 -17.7545,30.4443 -17.7646,33.3819 -0.011,3.1993 4.2138,6.7716 8.0084,6.7716 2.0391,0 6.1432,-1.9465 9.46,-4.4867 z m -63.0654,-3.4802 c 7.6005,-5.5058 13.7665,-13.593 36.0246,-47.2488 25.7809,-38.9825 28.4614,-44.2176 27.9574,-54.602 -0.3758,-7.7434 -0.6056,-8.2149 -5.7249,-11.7471 -6.5524,-4.521 -13.5311,-4.9032 -18.478,-1.0119 -12.2393,9.6274 -53.5105,79.1716 -60.047,101.1823 -4.1944,14.1243 -2.5774,17.126 9.325,17.31 4.0363,0.062 6.8995,-0.9535 10.9429,-3.8825 z m -169.96996,-14.6791 c 5.6969,-5.002 17.01226,-21.2832 22.44316,-32.2929 2.2775,-4.6169 7.3923,-13.9388 11.3663,-20.7154 3.9739,-6.7765 10.2655,-18.7341 13.9813,-26.5724 4.55443,-10.4518 8.02362,-10.2318 4.8342,-20.3457 -2.2399,-7.103 -2.4171,-7.1162 -16.5974,-1.2403 -15.4676,6.4094 -19.9839,12.2971 -33.99666,44.3202 -10.3153,23.5732 -19.8038,49.9821 -19.8038,55.119 0,6.5017 11.106,7.5811 17.7729,1.7275 z m 61.15056,-3.6873 c 4.4323,-4.2166 12.1199,-13.3666 17.0835,-20.3333 10.2932,-14.4471 10.3469,-14.287 -4.8732,-14.5337 l -8.1995,-0.133 -6.7088,7.3405 c -8.1986,8.9706 -20.2255,26.7134 -20.2255,29.8379 0,3.7546 2.8533,5.4883 9.0324,5.4883 5.2769,0 6.5996,-0.73 13.8911,-7.6667 z m 211.1592,-64.6866 c 11.3873,-33.1464 11.1476,-32.3228 9.965,-34.2362 -0.8042,-1.3013 -7.2253,-3.3768 -21.381,-6.9111 -1.7198,-0.4294 -2.1119,3.9837 -2.7988,31.5006 -0.7974,31.9405 -0.2331,38.5681 3.1722,37.2614 0.9856,-0.3782 5.9548,-12.8048 11.0426,-27.6147 z m 23.63083,20.8039 c 8.90427,-1.697 15.87967,-4.4506 17.08267,-4.4506 2.8337,0 21.2534,-22.2842 26.3697,-31.9021 2.1743,-4.0872 5.4841,-11.5067 7.3552,-16.4878 4.1083,-10.9366 3.6979,-11.3013 -10.2616,-9.1195 -7.6566,1.1967 -42.1231,5.4204 -44.9261,5.5055 -0.3667,0.011 -0.7594,2.5665 -0.8727,5.6787 -0.1134,3.1122 -3.8634,16.6726 -8.3334,30.1341 -4.47,13.4616 -8.1273,24.7521 -8.1273,25.0899 0,0.3378 1.05,0.3046 2.3334,-0.074 1.2833,-0.3784 6.13716,-1.8504 15.04154,-3.5474 z m -10.11153,-3.5647 c -0.3758,-0.9794 1.031,-6.0478 3.1264,-11.263 2.0953,-5.2153 5.3573,-14.5559 7.2487,-20.757 3.725,-12.2122 5.9774,-15.4672 8.5545,-12.362 2.8147,3.3915 -5.13,33.753 -11.2944,43.1628 -2.1665,3.3071 -6.5645,4.0094 -7.6352,1.2192 z m 29.8126,-20.8357 c -2.5468,-1.574 -1.1137,-6.0502 1.937,-6.0502 1.6838,0 2.7955,1.0309 3.0523,2.8303 0.4404,3.0869 -2.321,4.869 -4.9893,3.2199 z m 4.2521,-13.0081 c -2.4017,-0.8612 -2.0526,-5.0584 0.9026,-10.8511 3.695,-7.2429 6.3379,-9.1886 8.9429,-6.5836 1.8376,1.8377 1.7443,2.7435 -0.9207,8.9386 -2.9729,6.9106 -5.8111,9.6125 -8.9248,8.4961 z m -246.0648,33.2912 c -3.5873,-23.9388 -4.9219,-34.8691 -5.6572,-46.3333 -0.84819,-10.9121 -2.56999,-11.0398 3.4285,-19.0632 2.793,-3.7358 7.3595,-7.3518 13.122,-10.3907 l 8.8382,-4.6609 -9.4815,0.7162 c -11.2012,0.846 -33.2265,5.2111 -39.4813,7.8245 -6.3981,2.6733 -16.0978,14.2408 -11.9414,14.2408 0.6027,0 3.9504,-0.9727 7.4393,-2.1615 16.63513,-3.2348 23.16968,-1.4695 23.7888,13.0411 0.3327,8.5649 0.057,9.397 -9.3548,28.2903 -5.3336,10.7063 -9.6928,19.9229 -9.687,20.4814 0.011,0.9649 11.2198,2.2691 23.8934,2.7799 l 5.8423,0.2354 z m 243.0648,-61.1408 c 18.7601,-2.6789 21.1159,-3.685 13.7773,-5.8837 -4.4438,-1.3314 -8.1454,-1.2214 -20.5973,0.612 -8.349,1.2293 -21.388,2.5937 -28.9756,3.032 -13.9055,0.8033 -15.2514,1.96 -4.2044,3.6135 3.3,0.4939 7.4698,1.7038 9.2663,2.6886 2.7394,1.5018 4.2449,1.4952 9.3333,-0.041 3.3369,-1.0074 12.9671,-2.817 21.4004,-4.0213 z m -110.2519,-17.9537 c 6.7752,-1.8814 6.3666,-5.7293 -0.6707,-6.316 -6.3141,-0.5264 -16.0755,2.081 -15.3981,4.1131 1.0536,3.1609 8.7963,4.2224 16.0688,2.2029 z m -62.2134,-3.984 c 2.9688,-1.1287 3.3185,-1.6564 1.7535,-2.6462 -3.0597,-1.9345 -8.1967,-1.3974 -13.2882,1.3901 l -4.6667,2.5549 6.2466,0.056 c 3.4356,0.031 7.9152,-0.5786 9.9548,-1.354 z" fill="#00B894" transform="translate(83.922946,-35.155245) matrix(0.6950081,0,0,0.6950081,-289.18684,3135.4518)"/>
</svg>