<?xml version="1.0" ?><svg height="132.39243mm" viewBox="0 0 98.799004 132.39243" width="98.799004mm" xmlns="http://www.w3.org/2000/svg">
    <path d="m 28.104241,-68.122087 c -2.39068,-0.333992 -3.443619,-3.642844 -3.357309,-6.866252 0.08631,-3.223406 2.149023,-5.514748 2.149023,-5.514748 0,0 0.414271,-8.971178 2.010936,-13.367438 1.596665,-4.39627 6.145001,-10.167335 15.699096,-11.355725 9.554097,-1.18839 15.164003,9.848875 15.932126,12.513045 0.768123,2.66417 1.760646,8.202215 1.760646,8.202215 0,0 5.670317,5.499214 3.504031,11.666413 -2.166286,6.1672 -9.044894,12.03924 -13.696796,7.720648 -4.651903,-4.318593 -3.227849,-10.276076 -1.708861,-14.167467 1.518988,-3.891391 5.808408,-6.229334 5.808408,-6.229334 0,0 -0.14672,-9.367305 -6.490226,-13.165495 -6.343505,-3.798185 -10.089195,-0.9942 -14.611641,3.42536 -4.522444,4.41957 -4.211741,12.388768 -4.211741,12.388768 0,0 4.392988,-2.198132 7.077109,1.94958 2.684121,4.147714 6.024167,12.015932 -0.474686,15.619938 -6.498855,3.604009 -9.390115,-2.819508 -9.390115,-2.819508 z" fill="#FFFFFF" transform="translate(-55.727809,-82.303818) matrix(2.2934124,0,0,2.2934124,-0.26386865,325.63996)"/>
    <path d="m 46.529488,-48.482674 c -0.35693,-0.10557 -0.58813,-0.44717 -0.52532,-0.77617 0.0891,-0.46667 0.69227,-0.63321 2.93056,-0.80911 5.29755,-0.41633 8.99198,-1.34744 8.99198,-2.26627 0,-0.23883 -0.67468,-0.72738 -1.4993,-1.08567 -1.26033,-0.54761 -2.48324,-0.65532 -7.67292,-0.67583 -7.52213,-0.0297 -7.24839,-3.5e-4 -8.11389,-0.866025 -0.94634,-0.94634 -0.88851,-1.8451 0.20214,-3.14127 1.43505,-1.70545 2.94967,-1.93167 8.33979,-1.24561 5.53197,0.70411 9.99863,0.56849 11.39429,-0.34597 0.86547,-0.56709 0.94375,-0.78654 0.78454,-2.19931 -0.0973,-0.86314 -0.2595,-1.65196 -0.36047,-1.75293 -0.10096,-0.10096 -0.82765,0.145 -1.61484,0.5466 -5.0311,2.56668 -10.51051,-1.33577 -11.20499,-7.98026 -0.23795,-2.27656 0.67589,-6.36329 2.00583,-8.97019 0.96703,-1.89553 2.93171,-4.01406 4.21586,-4.54597 0.90851,-0.37631 1.05452,-0.62193 1.05452,-1.77368 0,-4.84474 -4.36965,-11.30759 -8.93498,-13.21511 -3.30111,-1.379281 -9.90339,3.03651 -12.49221,8.35515 -0.79316,1.62952 -1.772977,5.793929 -1.818436,6.904594 -0.04145,1.012827 0.759242,0.450016 2.094308,0.586534 2.093503,0.214072 2.534358,0.513582 3.868498,1.437192 2.13753,1.47977 3.38246,3.35299 4.43342,6.67087 1.32122,4.17107 0.74269,6.84477 -2.18136,10.08135 -1.83213,2.02795 -3.99647,2.9697 -6.21981,2.70638 -1.98629,-0.23525 -4.36035,-1.65157 -4.95461,-2.95583 -0.259,-0.56842 -0.66686,-0.80416 -1.39131,-0.80416 -2.722081,0 -3.448381,-1.4645 -3.446641,-6.94985 0.001,-3.52733 0.10801,-4.33764 0.70037,-5.30918 0.38448,-0.63059 0.84983,-1.14653 1.03411,-1.14653 0.20094,0 0.25671,-1.23558 0.13932,-3.0868 -0.3731,-5.8839 1.298571,-11.57867 4.548331,-15.49454 2.11127,-2.544021 3.88455,-3.885721 7.1585,-5.416291 5.6498,-2.64127 9.25048,-2.76827 13.6221,-0.48047 3.29797,1.72594 7.47316,5.792021 9.05202,8.815501 1.24047,2.37545 2.54318,7.26002 2.54702,9.55012 0,1.02192 0.25506,1.77725 0.82829,2.46944 4.55295,5.49783 4.6011,11.6011 0.13049,16.54787 l -1.61981,1.79234 0.49265,1.38266 c 0.27097,0.76047 0.49964,2.11509 0.50814,3.01026 0.0187,1.98293 -1.08063,3.2782 -3.29494,3.88166 -1.54997,0.42241 -7.65594,0.20565 -11.37813,-0.40393 -3.28144,-0.53739 -5.23106,-0.43245 -6.17444,0.33237 -0.45806,0.37136 -0.70105,0.80792 -0.53999,0.97014 0.16106,0.16222 3.25669,0.38373 6.87917,0.49223 5.58249,0.16721 6.82825,0.30633 8.17382,0.91281 1.96501,0.885675 2.55316,1.570525 2.40676,2.802445 -0.15854,1.33399 -1.46417,2.17412 -4.34704,2.79723 -2.67868,0.57897 -7.72591,0.95457 -8.75139,0.65125 z m 11.33302,-16.886015 c 0.39694,-0.87114 1.12254,-1.21319 1.12254,-0.52917 0,0.19403 0.18845,0.35278 0.41878,0.35278 0.23033,0 -0.0375,-0.47625 -0.59517,-1.05833 -0.55767,-0.58209 -1.22238,-1.05834 -1.47712,-1.05834 -0.69398,0 -3.32171,2.74538 -2.82236,2.94872 0.2304,0.0938 0.98877,0.18312 1.68522,0.19843 1.02246,0.0225 1.34366,-0.14196 1.66811,-0.85409 z m -22.34624,-1.2172 c 0.67797,-1.31107 0.68037,-1.78141 0.009,-1.78141 -0.29105,0 -0.52917,0.1641 -0.52917,0.36468 0,0.20056 -0.56774,0.69965 -1.26165,1.10906 -0.92874,0.54797 -1.13819,0.82267 -0.79375,1.04104 0.97846,0.62033 2.03037,0.3208 2.57551,-0.73337 z m 2.97762,-0.86326 c 0.24259,-0.29231 0.38612,-0.81692 0.31893,-1.16579 -0.22065,-1.14574 -1.08436,-0.66342 -1.53301,0.85609 -0.40559,1.37363 -0.39255,1.46496 0.16646,1.16578 0.33359,-0.17853 0.80502,-0.56377 1.04762,-0.85608 z m 15.99405,0.36256 c 1.31473,-0.80838 1.31816,-0.81649 0.49964,-1.18943 -0.59097,-0.26925 -1.19008,-0.26096 -2.1175,0.0293 -1.3473,0.4217 -1.58727,0.85549 -0.87003,1.57273 0.58644,0.58644 0.96527,0.52361 2.48789,-0.41262 z m 10.3003,-4.10293 c 1.17585,-2.32354 1.37975,-3.96848 0.75661,-6.10434 -0.55644,-1.90736 -2.41099,-5.10741 -2.61141,-4.5061 -0.0632,0.18962 0.25287,0.84276 0.70238,1.45144 0.70838,0.95919 0.81626,1.51393 0.80956,4.16269 -0.009,3.67053 -0.81178,5.5364 -3.00553,6.98814 -1.34814,0.89216 -1.38472,0.9642 -0.81153,1.59756 0.58226,0.64339 0.64156,0.62332 1.97842,-0.66931 0.75797,-0.73292 1.73968,-2.04696 2.1815,-2.92008 z m -31.33063,2.51479 c 0.59684,-0.80964 0.2114,-1.52622 -0.59019,-1.09722 -0.3559,0.19047 -1.04943,0.34632 -1.54116,0.34632 -0.70015,0 -0.84633,0.1339 -0.67399,0.61736 0.44721,1.25451 0.83896,1.51176 1.64691,1.08149 0.41618,-0.22165 0.93748,-0.64822 1.15843,-0.94795 z m -5.65456,-3.83771 c 0.01,-2.0858 0.19908,-4.41844 0.42082,-5.18364 0.22174,-0.7652 0.34187,-1.45257 0.26695,-1.52749 -0.0749,-0.0749 -0.53912,0.12777 -1.03155,0.45042 -1.103491,0.72304 -1.462121,2.6753 -1.179041,6.41826 0.17837,2.35854 0.62541,3.63481 1.273181,3.63481 0.12758,0 0.23992,-1.70656 0.24964,-3.79236 z m 25.05687,2.62675 c 0.055,-0.055 0.0102,-0.44289 -0.0994,-0.86207 -0.16751,-0.64058 -0.37628,-0.72851 -1.30892,-0.55128 -1.40419,0.26684 -1.39776,0.25999 -1.10632,1.17826 0.20381,0.64213 0.42333,0.73329 1.32941,0.55208 0.59691,-0.11939 1.13026,-0.26203 1.18522,-0.31699 z m -12.24411,-2.43215 c 0.0136,-0.71759 -0.37282,-2.56336 -0.85878,-4.10171 -0.7276,-2.30327 -1.157,-3.04904 -2.43251,-4.22476 -0.85192,-0.78527 -2.15447,-1.59496 -2.89458,-1.79931 -1.18568,-0.32739 -1.44168,-0.28133 -2.1536,0.38749 -1.01372,0.95234 -1.02786,1.74011 -0.0423,2.35561 0.70186,0.43833 0.71502,0.50651 0.15792,0.81828 -0.41337,0.23134 -0.77382,0.2023 -1.12697,-0.0908 -0.65347,-0.54233 -0.73681,-0.44958 -1.03617,1.15311 -0.22294,1.19353 -0.1668,1.32649 0.64619,1.53054 1.41635,0.35548 2.11005,0.0596 2.3997,-1.02346 0.55129,-2.06141 2.76952,-3.40276 2.27091,-1.3732 -0.13109,0.53358 -0.32164,2.31951 -0.42346,3.96875 -0.14542,2.3556 -0.0699,3.14991 0.35212,3.70417 0.45835,0.60196 0.64328,0.6408 1.25949,0.26458 0.97545,-0.59557 1.45582,-0.54681 2.49571,0.2533 0.81474,0.62688 0.90022,0.633 1.12173,0.0804 0.13189,-0.32903 0.25095,-1.18535 0.26459,-1.90294 z m 14.99178,1.21651 c -0.90459,-2.53473 -0.3326,-5.7068 1.46593,-8.12979 l 0.97018,-1.30701 -1.09122,1.01161 c -1.498,1.38871 -2.66827,4.21043 -2.7022,6.51549 -0.0233,1.57181 0.10978,1.99411 0.80511,2.55764 0.45804,0.37124 0.87591,0.67498 0.92854,0.67498 0.0527,0 -0.1167,-0.59531 -0.37634,-1.32292 z m 4.93113,-0.10583 c 1.40303,-1.23186 1.99764,-2.73008 2.04868,-5.16188 0.054,-2.57619 -0.27996,-3.28715 -1.54432,-3.28715 -2.86289,0 -5.05551,6.09769 -3.09075,8.59548 0.92336,1.17385 1.09364,1.16421 2.58639,-0.14645 z m -27.92327,-0.28276 c 0.57582,-0.57583 -0.12565,-1.28842 -1.32915,-1.35022 -1.149,-0.059 -1.22903,0.007 -1.22903,1.01424 0,1.02518 0.055,1.06635 1.1355,0.85025 0.62453,-0.12491 1.26473,-0.35633 1.42268,-0.51427 z m 19.66682,-1.63988 c 0,-0.52616 -0.20183,-0.88195 -0.50031,-0.88195 -0.27518,0 -0.75143,-0.0964 -1.05834,-0.21413 -0.41849,-0.16059 -0.55802,0.01 -0.55802,0.68102 0,0.85603 0.11493,0.93353 1.85209,1.24896 0.14552,0.0264 0.26458,-0.34883 0.26458,-0.8339 z m -20.77509,-1.95609 c -1.55024,-0.23397 -1.96403,-0.0745 -1.44123,0.55544 0.57661,0.69477 2.23962,0.80516 2.49957,0.16593 0.16099,-0.3959 -0.10555,-0.57757 -1.05834,-0.72137 z m 21.27846,-0.57335 c 0.12463,-0.32478 0.0229,-0.71811 -0.22684,-0.87654 -0.47156,-0.29921 -1.68764,-0.40777 -1.68764,-0.15065 0,0.0811 -0.091,0.38476 -0.20229,0.6747 -0.12493,0.32555 0.0437,0.59077 0.44097,0.69348 1.18291,0.30586 1.44831,0.25186 1.6758,-0.34099 z m 1.11605,-2.76144 c 0.5509,-0.8408 0.53916,-0.9121 -0.25645,-1.55691 -0.96384,-0.78114 -1.47636,-0.5201 -2.01553,1.02658 -0.25716,0.73768 -0.24046,1.06352 0.0608,1.18639 0.94947,0.38723 1.66708,0.17431 2.21116,-0.65606 z m -23.79735,-3.1555 c 0.54055,-0.6872 0.69632,-1.53547 0.76937,-4.18984 0.0836,-3.03709 0.20665,-3.56097 1.40698,-5.98967 1.62881,-3.29567 4.9453,-6.82512 7.5517,-8.03662 1.0107,-0.469791 1.84413,-0.973221 1.85209,-1.118741 0.008,-0.14552 -0.70929,-0.26459 -1.59386,-0.26459 -1.94699,0 -1.79621,-0.45082 0.35191,-1.05225 3.17754,-0.88966 9.03879,1.03042 11.78562,3.860841 2.71057,2.79305 5.01425,7.24569 5.52824,10.68517 l 0.25044,1.67569 h 1.54743 c 1.8102,0 1.80008,0.0423 0.86497,-3.61391 -1.52403,-5.95893 -4.96111,-10.24887 -10.39817,-12.978361 -2.70045,-1.35567 -5.64113,-1.41767 -9.11351,-0.19213 -6.25934,2.20914 -10.13008,6.327141 -11.71127,12.459331 -0.60797,2.35787 -1.33104,8.85662 -1.03814,9.33054 0.34194,0.55327 1.27545,0.27725 1.9462,-0.57546 z m 27.22869,-1.25291 c -0.2842,-1.19009 -0.22688,-1.16926 -1.61816,-0.58793 -1.67067,0.69804 -1.95282,1.2665 -1.00828,2.03134 0.72764,0.5892 0.83295,0.59113 1.80513,0.0332 0.83894,-0.48149 0.99286,-0.7582 0.82131,-1.47657 z m 3.9074,-0.0944 c 0.46838,-0.74257 0.24049,-0.94889 -1.32973,-1.2037 -1.47577,-0.23948 -1.66222,0.20664 -0.55083,1.31802 0.8,0.79999 1.32391,0.76814 1.88056,-0.11432 z" fill="#00B894" transform="translate(-55.727809,-82.303818) matrix(2.2934124,0,0,2.2934124,-0.26386865,325.63996)"/>
</svg>