<?xml version="1.0" ?><svg height="57.519936mm" viewBox="0 0 95.085426 57.519936" width="95.085426mm" xmlns="http://www.w3.org/2000/svg">
    <path d="m -2465.1393,-1007.1422 40.7939,-75.1651 c 0,0 -12.3813,-35.5537 17.1048,-40.5132 29.4861,-4.9594 50.384,17.1972 50.384,17.1972 l 114.7953,22.0922 c 0,0 22.3293,-18.2277 48.738,-6.8273 26.4086,11.4004 49.6683,24.8618 52.6026,44.8929 2.9343,20.0312 -21.224,100.4917 -47.5412,117.4714 -26.3172,16.9798 -190.0652,-16.0919 -221.0542,-24.2074 -30.989,-8.1155 -66.2721,-21.1261 -55.8232,-54.9407 z" fill="#FFFFFF" transform="translate(-39.763329,-70.904464) matrix(0.26458333,0,0,0.26458333,696.42134,370.28044)"/>
    <path d="m -2381.4935,-932.54461 c -31.8604,-6.51303 -65.5144,-19.50461 -81.7267,-31.54902 -27.6837,-20.56712 -24.5549,-52.58167 9.5807,-98.03667 11.5656,-15.4007 14.3712,-22.1497 11.6082,-27.9249 -5.7943,-12.1107 4.0673,-29.8081 20.7384,-37.2159 16.5802,-7.3675 44.4797,-4.8094 58.3817,5.3529 4.479,3.2739 32.5579,11.3798 62.3978,18.0132 47.5996,10.581 55.3675,11.3441 63.3331,6.2218 11.7176,-7.535 48.618,-1.7432 61.8692,9.7109 5.3745,4.6453 13.6413,8.9628 18.3709,9.5944 14.4932,1.9353 31.4145,24.8111 33.8525,45.7648 1.7484,15.0267 -0.066,25.5778 -8.1174,47.20562 -20.2422,54.37405 -47.2111,72.8156 -104.1384,71.21051 -33.1701,-0.9351 -105.2165,-9.97993 -146.15,-18.34764 z m 193.2316,-13.44946 c 15.0814,-16.83345 36.8181,-62.68313 36.9398,-77.91823 0.066,-8.2131 -3.9495,-2.845 -14.8867,19.9046 -23.6831,49.26027 -27.3182,51.22671 -87.3351,47.2455 -47.9481,-3.1808 -68.9822,-6.31876 -166.0987,-24.77981 -39.2791,-7.46624 -40.8201,-7.43302 -29.9979,0.65036 19.4647,14.53832 43.8765,20.24613 148.1864,34.64881 78.0944,8.96246 101.3353,17.88137 113.1922,0.24877 z m -7.3355,-39.22381 c 9.2811,-9.30912 36.5092,-58.36982 38.3835,-61.16202 4.3948,-6.5469 -4.2698,-15.4996 -7.0454,-8.5697 -7.5051,18.7379 -23.8069,21.5765 -28.561,20.9416 -5.5438,-0.7401 -10.1481,2.6277 -12.8386,9.3906 -4.7591,11.9624 -24.3022,16.4563 -34.5711,7.9496 -3.5305,-2.925 -6.0873,-12.1096 -5.6816,-20.4107 0.4056,-8.3009 6.0826,-14.1187 0.7318,-18.6351 -10.6694,-9.0057 -8.6728,-19.1634 -8.6728,-19.1634 0,0 -67.7238,-11.4414 -76.5236,-14.5712 -14.0424,-4.9946 -16.135,-4.6753 -17.1077,2.6095 -0.6096,4.5652 -5.6215,11.4065 -11.1378,15.2034 -7.2821,5.0124 -9.7508,10.2292 -9.0131,19.0475 1.1173,13.3546 -10.0468,25.1802 -22.2344,23.5528 -9.9662,-1.3307 -25.081,-21.1193 -23.7493,-31.0926 0.7208,-5.3984 -1.5109,-8.1791 -6.3294,-7.8871 -6.8011,0.4122 -33.1573,41.9093 -35.631,56.0999 -0.7886,4.5254 111.6612,25.07388 212.6244,33.4455 20.1871,2.24421 41.186,4.46122 47.3571,-6.74858 z m -154.6876,-23.44582 c -1.4833,-1.9404 -2.1957,-7.2816 -1.5831,-11.8695 0.8692,-6.5096 3.7252,-7.6825 13.003,-5.3399 8.5514,2.1588 11.5604,5.4671 10.717,11.7831 -1.1779,8.8222 -16.6437,12.6131 -22.1369,5.4263 z m 45.507,-7.5196 c -7.1731,-9.3839 0.033,-14.8929 16.5905,-12.6821 12.0853,1.6137 17.309,4.2533 16.7471,8.4619 -1.2597,9.4339 -26.8736,12.6764 -33.3376,4.2202 z m -32.4599,-34.8734 c -1.9191,-8.0628 3.4987,-19.6439 8.8549,-18.9288 2.0294,0.271 7.0834,3.7445 11.2311,7.7197 6.4075,6.1404 6.5184,8.1711 0.7381,13.5059 -8.5467,7.8879 -18.6659,6.7719 -20.8241,-2.2968 z m 42.9274,9.4757 c -6.2682,-3.5578 -5.4898,-14.025 1.2682,-17.0493 7.6396,-3.4194 30.319,6.4118 29.4694,12.7744 -1.058,7.9237 -19.7339,10.5209 -30.7376,4.2749 z m -88.424,-15.5507 c 0.4837,-3.6224 -2.0845,-6.9819 -5.707,-7.4656 -6.8566,-0.9156 -9.4047,4.0298 -5.0271,9.7567 4.3779,5.727 9.8185,4.5657 10.7341,-2.2911 z m 162.7899,19.2381 c 0.3034,-2.2722 -2.4122,-4.5272 -6.0347,-5.0109 -6.7901,-0.9067 -9.415,4.0163 -5.1303,9.6213 3.0393,3.9765 10.4257,0.9265 11.165,-4.6104 z m 35.6803,-21.7678 c 8.1196,-5.7207 -12.8174,-24.0764 -30.0936,-26.3832 -14.8722,-1.9858 -16.8969,-1.0264 -18.1845,8.6173 -1.1323,8.4796 1.5511,12.1585 12.2771,16.8321 13.7464,5.989 28.2906,6.3664 36.001,0.9338 z m -190.392,-29.4105 c 5.0265,-2.3181 5.6191,-5.1735 2.6931,-12.9795 -4.7435,-12.6529 -20.7677,-15.0861 -35.9509,-5.4593 -9.837,6.2372 -10.6476,8.0842 -5.5296,12.6007 7.3373,6.4747 30.0072,9.887 38.7874,5.8381 z" fill="#00B894" transform="translate(-39.763329,-70.904464) matrix(0.26458333,0,0,0.26458333,696.42134,370.28044)"/>
</svg>