<?xml version="1.0" ?><svg height="55.478458mm" viewBox="0 0 93.755447 55.478458" width="93.755447mm" xmlns="http://www.w3.org/2000/svg">
    <path d="m -41.710938,-205.26367 c -9.480155,0.0161 -20.480621,7.09953 -25.175781,22.07812 -7.329033,23.38123 25.955078,21.58399 25.955078,21.58399 0,0 -9.933617,18.17296 -12.865234,22.63086 -2.931613,4.4579 -5.205094,10.05142 1.0625,11.80273 8.668486,-1.50113 13.620644,-9.61913 21.884766,-25.44922 8.26412,-15.83008 10.564778,-34.20764 2.27539,-46.14843 -2.978998,-4.29123 -7.818583,-6.50711 -13.136719,-6.49805 z m -104.736332,6.62695 c -2.13096,6.6e-4 -4.31164,0.61614 -6.49218,2.00781 -12.68681,8.097 -21.65996,24.38285 -18.27344,32.84375 3.38652,8.46091 29.69271,35.55706 33.28516,41.66797 3.59243,6.11091 13.19245,0.51687 11.86523,-4.04101 l -18.05859,-25.00391 c 0,0 21.93669,-9.53111 19.25781,-22.47266 -2.21846,-10.71722 -11.31659,-25.00511 -21.58399,-25.00195 z" fill="#FFFFFF" transform="translate(-2.6911345,-13.981187) matrix(2.2934124,0,0,2.2934124,108.37841,139.76104) scale(0.26458333)"/>
    <path d="m -11.219474,-54.843944 c -0.739532,0.0026 -1.480487,0.163639 -2.242756,0.48214 -3.278262,1.36974 -5.104083,3.946382 -5.104083,7.202662 0,3.172999 1.128304,4.710473 4.565613,5.41569 2.339638,0.480013 1.474533,0.948235 -0.14056,3.269051 -2.105559,3.024971 -2.275927,3.884684 -1.263488,4.933032 0.591632,0.612619 1.473991,0.632097 2.135788,0.541052 1.616903,-0.222441 4.9377491,-4.707258 7.0605488,-10.054167 0.9725315,-2.4497 1.0992881,-3.132743 0.9570481,-5.175395 -0.2149501,-3.086979 -1.1176529,-4.797656 -3.0788821,-5.834785 -0.9896845,-0.523357 -1.9384038,-0.782587 -2.8892288,-0.77928 z m -27.107906,0.965832 c -3.451641,-0.04764 -7.755599,5.070679 -7.755599,9.223208 0,1.536081 0.167608,1.960084 1.247471,3.155363 0.686149,0.759481 1.598789,2.037757 2.028298,2.840654 0.864161,1.61539 3.249152,4.701225 5.265312,6.812505 0.95808,1.003231 1.494504,1.312971 1.998845,1.152901 1.533019,-0.08561 2.189014,-1.098125 2.189014,-1.098125 1.300329,-1.176768 0.857057,-2.692886 -1.654165,-5.662186 l -1.528587,-1.807641 1.494483,-0.944645 c 2.81256,-1.77782 4.032268,-4.463542 3.40651,-7.501353 -0.69356,-3.367129 -3.688802,-6.129281 -6.691582,-6.170681 z m 27.044166,0.346549 c 2.720312,0.239607 2.9465341,1.603014 2.9395333,2.321503 -0.01905,1.837262 -2.0649373,5.269775 -4.4365223,6.543702 -0.913679,0.490795 -1.307166,0.536181 -2.759667,0.08082 -1.712781,-0.536961 -2.207724,-4.247015 -0.132044,-6.611085 1.030108,-1.173218 2.98259,-2.45879 4.3887,-2.33494 z m -3.598051,2.508572 c 0.346178,0.56012 1.145707,0.468794 1.386478,-0.158645 0.12061,-0.31438 -0.02207,-0.630779 -0.338998,-0.752411 -0.641394,-0.186585 -1.286438,0.481989 -1.04748,0.911056 z m 3.359483,-0.942575 c -0.418237,0.01199 -0.81009,0.501407 -0.537435,0.942578 0.13039,0.210931 0.377159,0.38344 0.548289,0.38344 0.544898,0 0.799801,-0.752549 0.392739,-1.159619 -0.121663,-0.121666 -0.264178,-0.170391 -0.403593,-0.166399 z m -27.137878,0.620636 c 1.38225,0 3.319555,1.763212 4.056084,3.691763 0.657971,1.722871 0.333153,3.486348 -0.837158,4.545459 -0.586361,0.53067 -0.612833,0.441894 -0.488341,-1.632976 0.09603,-1.599758 -0.03852,-2.290014 -0.218637,-2.9379 -0.224034,-0.805848 -0.741248,-0.546644 -0.751847,1.285805 -0.0075,1.306401 -0.27437,2.47542 -0.805119,3.527951 -0.654791,1.298501 -0.979035,1.585561 -1.852083,1.63866 -3.95192,0.240519 -5.920399,-2.938719 -3.961001,-6.398059 1.019601,-1.80014 3.527243,-3.720703 4.858102,-3.720703 z m 25.55658,1.114142 c -0.211854,-0.0088 -0.426831,0.05838 -0.594796,0.226343 -0.20674,0.206751 -0.276196,0.636561 -0.153996,0.954982 0.28243,0.735981 1.413034,0.540231 1.569413,-0.27182 0.09653,-0.501187 -0.354544,-0.890085 -0.820621,-0.909505 z m -2.464448,0.649573 c -0.53136,0 -0.725498,0.744717 -0.303858,1.166339 0.32921,0.329229 0.833025,-0.06847 0.833025,-0.657842 0,-0.27959 -0.238128,-0.508497 -0.529167,-0.508497 z m 8.273396,1.967323 c 0.01315,1.434049 -0.1476269,1.944663 -0.808736,2.565736 h -5.291e-4 c -0.8234892,0.773628 -3.0551089,1.631307 -3.0551089,1.174088 0,-0.132612 0.48387,-0.697412 1.07487,-1.25522 0.5909779,-0.557811 1.4568031,-1.748041 1.9239117,-2.644802 1.0405756,-1.981438 0.8448808,-2.082537 0.8655923,0.160198 z m -7.346838,-0.116272 c -0.433664,-0.0096 -0.964474,0.857621 -0.645567,1.301645 0.242998,0.338333 0.531536,0.329263 0.721005,0.276553 0.53297,-0.14827 0.632879,-0.77736 0.482384,-1.261045 -0.09419,-0.302706 -0.383332,-0.313294 -0.557822,-0.317153 z m 5.9629432,5.228622 c 0.093443,0.0092 0.1700054,0.03926 0.2242741,0.09353 0.2772516,0.277241 -2.4523863,4.862481 -3.8256053,6.42648 -1.075161,1.224561 -2.056587,1.59498 -2.052587,0.776182 5.29e-4,-0.24253 0.630071,-1.387115 1.398881,-2.543514 0.76885,-1.156401 1.575861,-2.531972 1.793171,-3.056662 0.333743,-0.805691 1.8077554,-1.760633 2.4618662,-1.696019 z m -31.8052952,2.798278 c 0.74059,0 1.384647,0.403464 2.393138,1.499132 1.57103,1.706851 3.648871,4.634529 3.648871,5.141288 0,0.186823 -0.236085,0.430364 -0.524515,0.541055 -0.350499,0.134487 -1.155946,-0.584502 -2.428274,-2.167311 -1.047113,-1.302599 -2.398676,-2.834563 -3.003436,-3.404444 -1.36266,-1.284028 -1.379662,-1.60972 -0.08578,-1.60972 z" fill="#00B894" transform="translate(-2.6911345,-13.981187) matrix(2.2934124,0,0,2.2934124,108.37841,139.76104)"/>
</svg>