<?xml version="1.0" ?><svg height="97.376244mm" viewBox="0 0 133.7863 97.376244" width="133.7863mm" xmlns="http://www.w3.org/2000/svg">
    <path color="#000" d="m -216.63778,7446.1677 h 454.2792 c 8.248,0 14.8881,6.6401 14.8881,14.8882 v 311.9724 c 0,8.248 -6.6401,14.8882 -14.8881,14.8882 h -454.2792 c -8.248,0 -14.8881,-6.6402 -14.8881,-14.8882 v -311.9724 c 0,-8.2481 6.6401,-14.8882 14.8881,-14.8882 z" fill="#FFFFFF" overflow="visible" paint-order="fill markers stroke" transform="translate(220.8661,36.078309) matrix(0.26458333,0,0,0.26458333,-156.47049,-2003.2243)"/>
    <path d="m -234.94748,7795.0313 c -4.5714,-3.6447 -7.0508,-22.8218 -6.3675,-49.2495 -0.4573,-73.9169 3.5616,-142.951 -0.9847,-209.11 0.1524,-34.9381 -6.3435,-99.6742 10.7738,-99.2349 166.114201,-10.0046 311.566301,13.4411 471.1083,1.434 7.8317,-0.6906 10.4223,0.1852 15.1788,5.1327 5.2709,5.4828 5.7425,8.0463 5.8286,31.6873 3.5405,57.8973 0.4933,114.6799 -0.3334,172.5476 -0.2528,18.3237 -1.5247,56.303 -2.8267,84.3984 -1.3015,28.0954 -2.9163,41.0099 -3.2513,53.1967 -0.6097,22.1836 -16.8976,16.4964 -50.2723,16.2684 -93.5167,1.8274 -284.780599,-9.814 -377.5361,-5.3596 -21.0639,1.1269 -59.089,0.066 -61.3175,-1.7111 z m 412.7393,-12.3254 c 62.8315,3.5721 55.2227,-3.975 57.1865,-63.0157 6.0134,-82.15 5.369,-169.1842 7.5721,-241.0887 0,-23.9384 -1.7943,-21.9482 -29.7584,-22.0107 -97.0773,-0.2167 -357.3639,-3.3476 -426.7514,-3.4152 -8.8676,0.2791 -9.9691,9.5559 -10.4705,18.0511 -2.4073,111.1875 -2.3328,161.8439 -0.1479,296.2686 -0.134,14.9009 11.1756,13.6326 17.1663,13.1703 129.181101,1.116 269.636001,-4.0547 385.2033,2.0403 z m -381.6019,-15.8975 c -13.0331,0.5191 -6.64,-20.9705 -7.6408,-37.4625 0.4802,-20.8533 -1.1038,-136.4855 -2.0505,-178.5336 -1.3308,-59.1193 -0.5506,-72.6681 4.6092,-80.1591 5.0601,-7.3357 12.2076,-4.666 56.4864,-4.5036 111.284301,0.4082 228.032801,-2.2195 329.907,6.768 11.5056,1.6855 9.4181,6.0798 9.9357,16.6753 0.3785,7.7523 0.2326,51.7276 -1.152,90.272 0.9405,56.8389 -5.1629,105.7909 -2.8713,160.6575 1.4385,31.5739 1.9079,31.1257 -31.7021,30.2719 -116.754999,-0.799 -248.528599,-3.5866 -355.5216,-3.9859 z m 360.4002,-14.3497 c 11.779,2.3449 7.0317,-8.0771 7.5325,-33.8656 3.7682,-76.8267 5.1595,-198.4513 5.6301,-215.7828 1.4699,-16.666 -9.8656,-17.6058 -25.1325,-18.1725 -131.745799,-4.8905 -302.0091,-4.4687 -330.4536,-2.2076 -11.0803,0.9021 -12.2423,7.1898 -11.4882,46.2685 -3.9289,70.7383 4.1372,150.4487 1.3299,211.1894 -0.2455,3.8616 2.1523,8.8721 2.1523,8.8721 106.502801,1.2805 247.997701,2.5876 350.4295,3.6985 z m -284.3922,-74.8605 c -12.4894,-5.1991 -21.9721,-24.2087 -13.4354,-26.9336 2.9381,-0.9377 5.5969,0.5553 8.6335,4.8473 2.413,3.4113 8.5031,7.8964 13.5335,9.9669 9.4685,3.8974 12.9029,10.7477 7.0257,14.0151 -4.1791,2.3235 -6.2085,2.0793 -15.7573,-1.8957 z m 82.848001,-14.8832 c -8.251,-3.6288 -11.644,-16.1634 -4.9536,-18.2989 1.8994,-0.6063 7.8528,1.5579 13.2297,4.8094 11.9888,7.2495 13.1154,14.871 2.21,14.9499 -3.8773,0.028 -8.5962,-0.6291 -10.4861,-1.4604 z m -89.009301,-55.4069 c -4.87,-3.2245 -10.2985,-14.9314 -9.9264,-21.4062 0.4121,-7.1643 8.514,-5.563 13.7169,2.7111 3.1168,4.9565 7.1113,7.5856 13.7337,9.0387 7.0664,1.5505 9.277,3.1207 9.0854,6.4533 -0.1383,2.4223 -1.9564,4.9479 -4.0381,5.6123 -5.7787,1.8446 -18.1396,0.5252 -22.5715,-2.4092 z m 161.489201,0.3684 c -7.1156,-1.9557 -11.3364,-8.7853 -12.19,-19.7245 -0.6383,-8.1819 5.845,-8.4638 13.4244,-0.5837 3.3574,3.4906 8.5134,6.4851 11.4576,6.6544 6.3546,0.3654 9.3073,8.5036 4.8287,13.3094 -3.17,3.4018 -6.181,3.461 -17.5207,0.3444 z m -77.2734,-11.0776 c -5.0606,-5.1018 -9.6336,-16.5282 -7.4089,-18.5111 2.9451,-2.6249 9.4543,-0.7724 14.4825,4.1218 2.8213,2.746 7.3376,5.1359 10.037,5.3109 15.4379,1.0009 12.4393,13.1171 -3.3152,13.3951 -6.4545,0.1137 -10.7271,-1.2231 -13.7954,-4.3167 z m 135.8359,7.1167 c -5.4764,-2.5836 -8.8455,-15.9896 -4.9021,-19.5043 1.5916,-1.4186 5.6119,-0.3075 11.6377,3.2167 10.842799,6.341 12.493899,8.7694 10.144499,14.9217 -1.862,4.8757 -8.331299,5.3992 -16.880099,1.3659 z m -234.349901,-63.6687 c -5.8586,-2.5826 -9.3234,-6.5424 -13.0305,-14.8919 -4.5834,-10.3232 -4.6917,-11.693 -1.1725,-14.8294 4.9094,-4.3755 8.1312,-2.1112 11.7897,8.2861 2.4752,7.0348 4.0241,8.292 10.6875,8.6751 4.2858,0.2464 10.288,-1.0941 13.3379,-2.979 7.5818,-4.6859 16.9573,-1.6527 16.4573,5.3242 -0.8001,11.1768 -22.7312,17.1763 -38.0694,10.4149 z m 105.762301,-8.8039 c -13.4629,-17.3341 -8.6025,-23.2728 10.4596,-12.7807 10.7886,5.9383 13.62,8.6229 12.9207,12.2511 -1.2581,6.5291 -18.4189,6.9178 -23.3803,0.5296 z m 79.4601,7.0049 c -4.8045,-1.5987 -10.0415,-10.4399 -10.6709,-18.0143 -0.6369,-7.6668 8.748,-8.9218 12.1309,-1.6221 1.3374,2.886 4.6458,5.1075 7.8836,5.2937 8.5824,0.4935 12.8466,3.1663 12.5753,7.8825 -0.136,2.3615 -1.0637,4.7133 -2.0622,5.2262 -3.3891,1.7408 -15.9822,2.5234 -19.8567,1.234 z m 77.964699,-2.527 c -1.9565,-0.652 -4.5764,-4.4393 -5.8216,-8.4163 -2.943,-9.3978 1.615,-11.1926 14.7107,-5.7922 18.2611,7.5304 10.1205,20.5426 -8.8891,14.2085 z m 88.7303,105.2596 c -8.6537,-4.0777 -12.4262,-13.4645 -10.0239,-24.9426 2.5826,-12.3431 8.4825,-17.5537 20.419,-18.0338 12.4095,-0.4991 15.6724,1.637 18.4829,8.9345 6.9595,18.0702 -9.6491,43.0414 -28.878,34.0419 z m 14.1194,-23.3855 c 0.1853,-3.2191 -4.7812,-6.5909 -6.0689,-6.6649 -1.2877,-0.074 -3.1699,2.4992 -3.3549,5.7183 -0.1853,3.2191 1.3942,5.9135 2.6819,5.9875 1.2876,0.074 6.5567,-1.8218 6.7419,-5.0409 z" fill="#00B894" transform="translate(220.8661,36.078309) matrix(0.26458333,0,0,0.26458333,-156.47049,-2003.2243)"/>
</svg>