<?xml version="1.0" ?><svg height="192.0495mm" viewBox="0 0 153.90266 192.0495" width="153.90266mm" xmlns="http://www.w3.org/2000/svg">
    <path d="m 0.52539062,711.61914 c -3.13757162,0.0106 -6.41349942,0.37668 -9.81640622,1.17383 -31.1122894,7.28821 -35.9492184,35.98047 -35.9492184,35.98047 0,0 -12.168728,19.68165 -11.482422,29.6875 -1.266509,20.82731 21.076172,20.76172 21.076172,20.76172 0,0 17.56936,32.04717 45.4648434,22.0332 27.8954816,-10.01397 28.1074216,-32.20313 28.1074216,-32.20313 0,0 7.549016,-8.07111 9.150391,-14.37109 1.601371,-6.30002 -4.372195,-23.35383 -4.533203,-31.94141 -0.143398,-7.64834 -16.468781,-31.20748 -42.01757838,-31.12109 z m 4.44140628,6.54883 c 0.5290173,-0.006 1.0596012,0.019 1.5917969,0.0781 11.3535052,1.2621 15.8739852,17.14678 16.3066402,21.22852 0.432655,4.0817 -13.232657,-3.78757 -20.2148434,-3.0625 -6.9821867,0.72503 -21.9602756,6.16379 -20.0058596,0.37695 1.649504,-5.36208 11.5655802,-18.49459 22.3222659,-18.62109 z M -17.611328,837.00195 c -16.000208,0.15741 -34.425524,9.48125 -40.988281,15.61914 -7.000275,6.54705 -22.693702,50.60442 -20.955079,86.38672 1.738629,35.7823 14.229864,34.75369 27.589844,43.8125 12.524886,0.58526 22.328074,-5.1066 38.021485,-14.82422 15.6934093,-9.71765 27.085634,-18.6942 22.3730465,-22.48242 -4.7125866,-3.78822 -4.8758816,-5.90552 -9.6855469,-17.37695 -4.809665,-11.4714 9.7302958,-47.18682 10.5996094,-62.875 0.869313,-15.68822 -7.1368034,-26.96996 -23.791016,-28.16406 -1.040888,-0.0746 -2.097382,-0.1062 -3.164062,-0.0957 z m 141.597658,14.05274 c -8.42516,0.0952 -20.23193,2.32842 -27.023439,3.50195 -11.438329,1.97647 -48.178674,6.50549 -49.09375,8.60547 -0.915081,2.10002 -21.962891,87.00586 -21.962891,87.00586 -0.04574,8.19413 79.83984,-8.07031 79.83984,-8.07031 0,0 27.86502,-79.92468 28.09375,-87.21289 0.0929,-2.9609 -4.08893,-3.89522 -9.85351,-3.83008 z" fill="#FFFFFF" transform="translate(92.648111,-17.570492) matrix(2.6101328,0,0,2.6101328,-34.585844,-471.39394) scale(0.26458333)"/>
    <path d="m -17.062957,259.88353 c -1.99626,-1.14501 -3.32078,-2.69621 -4.45184,-5.21367 -0.62528,-1.39175 -0.75422,-2.31779 -0.72673,-5.2197 0.0326,-3.43556 0.30849,-5.24694 1.85407,-12.17084 0.41146,-1.84326 0.99683,-4.66339 1.30084,-6.26696 0.98736,-5.2082 3.29325,-7.87446 8.29169,-9.58758 3.4444499,-1.18053 6.4218899,-1.31849 9.3381599,-0.43269 1.34207999,0.40763 2.77435,1.10371 3.18284,1.54683 0.88878,0.96413 1.87212,3.74637 1.87212,5.29697 0,2.16677 2.94858,5.2101 5.04789,5.2101 1.08511,0 1.26267,-0.24023 2.2106201,-2.99087 0.80384,-2.33245 1.31829,-2.73722 4.53661,-3.5695 2.11459,-0.54683 12.915625,-2.10436 17.002555,-2.45179 2.63003,-0.22358 2.93067,-0.18172 3.61597,0.50359 0.89624,0.89622 0.92749,2.00459 0.16535,5.86274 -0.3066,1.55222 -0.60085,4.06294 -0.65387,5.57937 -0.1366,3.90772 -0.72291,5.68436 -2.45604,7.4424 -0.92527,0.93856 -1.76749,2.29736 -2.29006,3.69474 -0.45787,1.22432 -1.1762,2.43929 -1.61036,2.72377 -1.723605,1.12934 -18.429155,3.64881 -21.2059751,3.19821 -2.30318,-0.37377 -2.48267,-1.05456 -1.48254,-5.62321 0.20253,-0.92505 0.26578,-2.08996 0.14061,-2.58872 -0.21897,-0.87245 -0.29725,-0.89729 -2.06516,-0.65549 -3.11594,0.42615 -3.37827,0.61023 -3.08899,2.16711 0.13772,0.74136 0.51534,1.856 0.83915,2.47692 0.77057,1.4779 0.74256,1.86962 -0.1337,1.86962 -1.08045,0 -2.39861001,-1.64588 -3.01428001,-3.76372 l -0.54672999,-1.88072 -3.06179,-0.004 c -6.8790699,-0.008 -9.8295899,-3.40586 -10.2120399,-11.76128 -0.16454,-3.59475 -0.13518,-3.81953 0.48299,-3.70048 0.5347,0.10297 0.73406,0.66084 1.06288,2.97445 1.14202,8.03494 2.87257,10.02132 8.7307199,10.02132 h 2.97801 l 0.24233,-2.20486 c 0.13328,-1.21267 0.70448999,-4.06089 1.26935999,-6.32937 1.67986001,-6.74622 1.35668001,-9.59893 -1.22931999,-10.85079 -2.6264,-1.27142 -6.79524,-0.71079 -10.8719399,1.46207 -3.34279,1.78169 -4.8367,4.07693 -5.69755,8.75374 -3.41866,18.57286 -3.06834,21.14485 3.46513,25.44035 1.26937,0.83456 2.30794,1.64246 2.30794,1.79535 0,0.15286 -0.75406,0.27647 -1.67569,0.27464 -1.20036,-0.004 -2.18278,-0.29415 -3.46323,-1.02859 z m 31.61066,-9.75837 c 4.14296,-0.57792 12.65891,-2.11014 12.83893,-2.31002 0.06381,-0.0709 0.524865,-1.14932 1.024545,-2.39649 l 0.90847,-2.26762 -1.21906,-1.34938 c -1.255085,-1.38923 -1.607855,-2.75844 -0.710715,-2.75844 0.279585,0 0.605945,0.1579 0.725215,0.35088 0.11927,0.19299 0.56518,0.53719 0.99095,0.76489 0.60301,0.3225 0.5207,0.12527 -0.37243,-0.89232 -1.26573,-1.44215 -1.354595,-1.72825 -0.70453,-2.26778 0.31076,-0.25789 0.70365,-0.22205 1.32292,0.12069 1.38384,0.76587 1.51603,0.60435 0.5461,-0.66729 -1.50978,-1.97943 -0.95963,-2.86917 1.04337,-1.68738 l 1.21448,0.71657 0.54483,-1.83464 c 0.81587,-2.74734 1.6915,-7.31879 1.44843,-7.56187 -0.11751,-0.11749 -4.6186,0.29661 -10.002455,0.92022 -7.71888,0.89406 -9.91207,1.261 -10.37152,1.73523 -0.74899,0.77301 -3.3721,9.24447 -2.86251,9.24447 0.10156,0 0.79967,-0.55563 1.55137,-1.23472 1.53967,-1.39101 1.79472,-1.46255 2.44045,-0.6845 0.39151,0.47171 0.13642,0.85496 -1.78735,2.68557 l -2.24402,2.13534 1.91876,-0.96931 c 1.0553,-0.53313 2.29736,-1.26538 2.7601,-1.62723 1.99118,-1.55714 2.67931,-0.15761 0.81996,1.66769 -0.85549,0.83982 -1.06423,1.19353 -0.60297,1.02161 0.38806,-0.14463 1.06274,-0.34043 1.49931,-0.43511 1.80477,-0.39142 0.20189,1.93888 -2.20486,3.20547 l -1.05834,0.55693 1.17239,0.0141 c 0.92131,0.0109 1.14776,0.14634 1.05731,0.63148 -0.1935,1.0379 -2.34767,1.85092 -4.90566,1.85152 H 9.0059529 l -0.53749,1.93117 c -0.29566,1.06214 -0.48539,1.98335 -0.42164,2.0471 0.15561,0.15561 2.0355301,-0.0346 6.5008801,-0.65744 z m -9.6431401,-8.59714 c 0.23343,-0.008 0.67613,-0.54579 0.98376,-1.19408 0.30762,-0.6483 1.10885,-1.71132 1.78043,-2.36226 1.39919,-1.35615 1.65678,-2.80902 0.49802,-2.80902 -1.13133,0 -2.64407,-0.92578 -3.79568,-2.32291 -1.21938,-1.4793 -1.07156,-1.70323 -2.17149,3.28931 -0.39493,1.7927 -0.71808,3.87483 -0.71808,4.62694 v 1.36748 l 1.49931,-0.29005 c 0.82461,-0.15952 1.6903,-0.29696 1.92373,-0.30541 z m -8.62895,-23.1754 c -2.2599405,-0.66999 -4.65666,-2.71987 -5.54097,-4.68092 -0.45053,-0.99912 -0.8685399,-1.4396 -1.3661299,-1.4396 -0.39437,0 -1.40744,-0.33423 -2.25129,-0.74274 -3.30656,-1.60067 -3.87274,-6.00788 -1.41446,-11.01033 0.68499,-1.39394 1.61826,-3.5663 2.07391,-4.82748 2.9844599,-8.26056 15.0678399,-11.1438 21.3036499,-5.0833 2.3288301,2.26337 3.3862101,4.78972 3.5499701,8.48183 0.0728,1.6408 0.29284,3.28317 0.48898,3.64973 0.88336,1.65057 -0.10354,5.309 -1.58559,5.87771 -0.28995,0.11126 -0.52871,0.54249 -0.53062,0.9583 -0.418593,1.74221 -1.3898691,3.9956 -2.8779157,5.3197 0.5857803,0.90207 -0.4279078,2.21177 -1.4717209,1.39446 -2.7043391,2.24868 -7.26544759,3.02534 -10.3778135,2.10264 z m 9.0113924,-3.56056 c -0.6397652,-1.03644 0.385977,-1.86428 1.3642865,-1.59147 0.2529727,0.12595 2.1796416,-2.63833 2.4715711,-4.60036 0.1905436,-1.28063 0.18719,-1.30703 -0.90992,-1.30703 -1.71178,0 -3.18494,-0.9395 -3.86902,-2.46743 -0.4651,-1.03882 -0.73074,-1.28586 -1.1188,-1.04034 -0.81639,0.51653 -1.69156,0.38482 -2.44425001,-0.36787 -0.699,-0.699 -0.70196,-0.69863 -1.26626,0.16263 -0.31112,0.47481 -0.85915999,0.95643 -1.21785999,1.07028 -0.35871,0.11385 -0.84512,0.79473 -1.08091,1.51306 -0.84706,2.58043 -3.50841,5.71578 -4.85165,5.71578 -0.61422,0 -0.49749,0.44674 0.45357,1.73584 1.70829,2.31544 3.94638,3.28036 7.13435999,3.07586 2.15808251,-0.12702 3.53114971,-0.8808 5.33488241,-1.89895 z m -8.6423424,0.52685 c -0.89969,-0.98299 -1.2385,-2.05482 -0.84671,-2.67852 0.22557,-0.35909 0.69907,-0.0834 1.95739,1.13951 0.91292,0.88724 1.55976999,1.77508 1.43745999,1.97296 -0.38825999,0.62821 -1.79527999,0.38858 -2.54813999,-0.43395 z m 8.18793,-3.79288 c -0.13338,-0.2158 -0.14513,-0.78021 -0.0261,-1.25426 0.25068,-0.99878 1.50953,-1.19177 1.85758,-0.28477 0.42761,1.11427 -1.232,2.50891 -1.83141,1.53903 z m -4.28096001,-0.5264 c -0.32501,-0.84691 0.45583001,-2.29531 1.23737001,-2.29531 0.81227,0 1.06179,0.57505 0.76542,1.76389 -0.2613,1.04806 -1.66193001,1.4197 -2.00279001,0.53142 z m -7.53225999,-2.56961 c 1.63569,-1.63568 2.58727,-4.41908 2.09617,-6.1314 -0.47632,-1.66085 -2.3653,-3.47207 -3.62116,-3.47207 -2.6749699,0 -5.2024499,2.69648 -5.4620899,5.82728 -0.31143,3.75538 0.67917,5.10883 3.7392,5.10883 1.7452899,0 2.0335099,-0.11826 3.2478799,-1.33264 z m 17.9797101,-5.73683 c -0.60798,-1.13604 -0.68598,-0.70936 -0.22825,1.24915 0.37952,1.62408 0.42072,1.67409 0.52141,0.63315 0.0601,-0.62163 -0.0718,-1.46866 -0.29316,-1.8823 z m -2.2807501,0.85337 c -1.12007,-3.72172 -4.41886,-7.1336 -7.44622,-7.70154 -0.68605001,-0.12871 -2.09335001,-0.0584 -3.1273,0.15626 -1.73937,0.36109 -1.89262,0.4747 -2.04947,1.51957 -0.11363,0.7568 0.0495,1.43951 0.49453,2.06976 0.36526,0.51725 0.762,1.43006 0.8817,2.02847 0.2637,1.31851 0.63203,1.37287 1.39657,0.20608 0.73959999,-1.12882 1.16839999,-1.11107 2.13021999,0.0882 l 0.77808001,0.97014 1.10011,-1.04843 c 1.36927,-1.30498 2.12767,-0.96687 2.65303,1.18277 0.41338,1.69133 0.95133,2.14567 2.54966,2.15331 l 1.12963,0.005 -0.49054,-1.62998 z m 1.4793801,-5.97137 c -0.2402401,-2.32762 -1.4762001,-4.60446 -3.3281801,-6.13101 -1.61731,-1.33313 -2.72291,-1.49617 -1.52918,-0.2255 0.92879,0.98867 2.20535,4.55344 1.90806,5.32821 -0.28659,0.74681 1.52372,2.98521 2.41431,2.98521 0.6831201,0 0.7222101,-0.14293 0.5349901,-1.95691 z m -15.9654201,-2.10003 c 0.25583,-1.60758 1.58288,-3.85954 2.96136,-5.02533 0.88674,-0.74995 0.89662,-0.7921 0.18581,-0.79375 -1.93453,-0.005 -5.93464,2.66165 -7.31196,4.87361 -1.4816299,2.37954 -1.4883699,2.36795 1.36998,2.36196 l 2.57027,-0.005 0.22454,-1.41111 z m 11.12979,-0.74572 c 0,-1.0781 -1.52884,-3.2867 -2.64019,-3.81407 -1.53593,-0.72884 -3.37979001,-0.12435 -4.96172,1.62666 -1.33022,1.47238 -1.59346,2.28856 -0.60018,1.8608 1.45408,-0.62621 4.83193,-0.54432 6.26181,0.15182 1.76907,0.86129 1.94028,0.87671 1.94028,0.17479 z" fill="#00B894" transform="translate(92.648111,-17.570492) matrix(2.6101328,0,0,2.6101328,-34.585844,-471.39394)"/>
</svg>