<?xml version="1.0" ?><svg height="217.22206mm" viewBox="0 0 169.95271 217.22206" width="169.95271mm" xmlns="http://www.w3.org/2000/svg">
    <path d="m 213.47075,9.3185274 -14.53142,2.2866816 c -3.55613,-1.213967 -7.55606,-0.962096 -10.28965,1.16052 -2.47664,0.171497 -7.99647,0.904248 -10.5437,0.966482 -3.39959,0.08306 -5.07652,1.370653 -6.24561,3.765662 -1.16909,2.39501 -3.14422,11.891975 -1.45211,19.686136 1.69211,7.794162 7.28255,14.937523 6.32882,19.339904 -0.95374,4.402386 -0.89237,4.803653 7.52202,7.281728 8.41438,2.478074 16.70647,0.06459 16.70647,0.06459 7.69211,7.941672 23.48882,10.775632 28.62668,10.387997 5.13785,-0.387639 7.50656,-7.669861 10.49083,-12.086085 2.98426,-4.416224 3.52304,-9.607595 1.96939,-10.715109 -1.55366,-1.107514 -3.40585,0.118578 -6.75101,0.841293 -3.34516,0.722715 -6.09368,-1.007173 -6.09368,-1.007173 0,0 4.64242,-3.267284 5.65701,-6.225977 1.01459,-2.958692 2.38794,-12.906645 1.78801,-13.820346 -0.59994,-0.913694 -6.81442,1.287547 -7.72201,2.575039 -0.90759,1.287489 -3.59978,15.145326 -3.59978,15.145326 l -5.06067,-3.004465 c 0,0 0.58444,-2.782221 0.68109,-6.076633 0.0966,-3.294411 0.6417,-15.49183 -0.89659,-21.583178 -1.53828,-6.091348 -6.58409,-8.9823976 -6.58409,-8.9823976 z" fill="#FFFFFF" transform="translate(-81.07928,-11.180382) matrix(2.2934124,0,0,2.2934124,-306.0388,35.277989)"/>
    <path d="m 199.26445,83.73677 c -2.62336,-1.14096 -4.61703,-5.45832 -6.14792,-13.31345 l -0.79177,-4.06266 -3.55297,-0.20588 c -4.67455,-0.2709 -6.90071,-0.76722 -9.96675,-2.22207 -3.92062,-1.86034 -4.49982,-2.97259 -3.51835,-6.75623 0.52526,-2.02496 0.51245,-2.06926 -3.26329,-11.28396 -2.23457,-5.45347 -3.22885,-10.2634 -3.22773,-15.614346 0.002,-10.24743 2.51366,-16.450454 6.79506,-17.0785 1.14778,-0.16837 4.34231,-0.355803 6.77988,-0.48252 2.43757,-0.126716 4.11819,-0.192715 1.52528,0.98996 -1.17976,0.53552 -2.31126,0.68221 -5.30918,0.68831 -4.75799,0.01 -5.52079,0.34785 -6.54763,2.90281 -1.70709,4.24755 -2.13557,14.56328 -0.84683,20.388266 0.81706,3.69306 2.68213,9.10016 4.11268,11.9232 0.50754,1.00155 1.24872,2.64794 1.6471,3.65862 0.702,1.78099 0.70593,1.90554 0.12771,4.04168 -0.32813,1.21223 -0.50946,2.43115 -0.40296,2.70871 0.30403,0.79228 4.51064,2.59572 7.49358,3.21261 1.49128,0.3084 3.85627,0.56073 5.25553,0.56073 H 191.97 l -0.15557,-4.87499 c -0.16872,-5.28626 0.30453,-10.04064 1.16507,-11.70475 0.85905,-1.66122 2.63916,-3.51063 4.09296,-4.2523 1.9027,-0.97068 2.05247,-0.282 0.35747,1.64362 -1.51387,1.71985 -3.21529,4.80959 -3.21529,5.8389 0,1.25766 1.49548,4.56688 2.95985,6.54965 1.8189,2.46279 6.21069,6.79997 8.35524,8.25134 0.85872,0.58117 2.45925,1.51899 3.55675,2.08407 l 1.99544,1.0274 0.93766,-1.22933 0.93765,-1.22936 -0.57367,-2.57854 c -0.72608,-3.26358 -0.60767,-5.9975 0.26694,-6.1636 0.44456,-0.0844 0.80157,0.3083 1.25867,1.38459 l 0.63809,1.50244 0.61867,-1.56415 c 0.34026,-0.86029 1.27535,-2.23884 2.07797,-3.06346 2.16246,-2.22172 3.15143,-1.90213 1.66387,0.5377 -0.95181,1.56111 -0.88764,1.70782 0.30723,0.7024 1.29177,-1.08694 3.05627,-1.8201 3.7447,-1.55593 0.87851,0.33712 0.62277,0.84664 -1.03824,2.06854 -0.86556,0.63674 -1.57993,1.26549 -1.5875,1.39722 -0.007,0.13173 0.89905,-0.22345 2.01471,-0.78928 2.27449,-1.15357 3.09503,-1.27925 3.38685,-0.51877 0.24821,0.64682 -0.50307,1.41698 -2.25318,2.30983 -0.74271,0.3789 -1.44989,0.84992 -1.57153,1.04672 -0.29237,0.47307 -0.14369,0.45425 1.35359,-0.17134 1.80048,-0.75229 3.05302,-0.69561 3.05302,0.13814 0,0.43436 -0.33864,0.75144 -0.97013,0.90831 -0.53357,0.13255 -2.74833,1.18816 -4.92167,2.3458 -2.7835,1.48264 -4.37374,2.58443 -5.37986,3.72747 -0.78559,0.89246 -1.42834,1.74611 -1.42834,1.89703 0,0.31298 3.5824,1.54005 6.09918,2.08911 0.92919,0.20271 3.62705,0.52687 5.99525,0.72037 4.92509,0.40238 5.54447,0.54406 5.54447,1.26831 0,2.40654 -11.44718,1.80597 -17.84445,-0.9362 -0.92107,-0.39483 -1.78641,-0.59323 -1.92298,-0.44087 -0.13659,0.15233 -1.40028,2.02322 -2.8082,4.15752 -2.72951,4.1377 -4.87651,6.62362 -6.42282,7.43663 -1.1633,0.61165 -1.55613,0.6096 -2.99342,-0.0155 z m 3.40039,-3.80513 c 0.79805,-0.82462 2.63526,-3.23187 4.08269,-5.34942 l 2.6317,-3.85011 -2.73159,-1.55339 c -1.50239,-0.85439 -3.4927,-2.19315 -4.42291,-2.97504 l -1.69133,-1.42163 -2.54201,0.6084 c -1.39812,0.33461 -2.66818,0.72221 -2.82236,0.86131 -0.34595,0.3121 1.71618,9.11948 2.64519,11.29767 0.6343,1.48717 2.57383,3.88151 3.14423,3.88151 0.14047,0 0.90834,-0.67469 1.70639,-1.4993 z m -3.92088,-16.67076 c 0.0857,-0.0857 -0.39148,-0.76145 -1.06031,-1.50176 -0.66883,-0.74031 -1.7306,-2.09388 -2.35948,-3.00793 -0.62888,-0.91405 -1.23367,-1.66191 -1.34396,-1.66191 -0.20755,0 0.11262,3.99135 0.46339,5.77677 0.19806,1.00809 0.2113,1.01286 2.17194,0.78243 1.08497,-0.12752 2.04276,-0.30194 2.12842,-0.3876 z m 34.00858,-10.05099 c -0.82631,-0.1242 -1.93756,-0.54564 -2.46944,-0.93654 -0.8539,-0.62757 -1.09091,-0.65757 -2.0254,-0.25637 -2.33123,1.00085 -4.40972,0.22059 -4.40972,-1.6554 0,-0.32543 -0.59546,-0.84199 -1.37667,-1.19427 -1.62975,-0.73492 -3.2989,-2.40272 -5.31147,-5.3072 -1.73007,-2.49681 -3.8589,-4.05694 -5.53577,-4.05694 -1.31944,0 -1.58099,-0.53127 -0.43983,-0.89345 2.69205,-0.85443 5.34105,0.46339 8.32335,4.14066 1.85438,2.28653 4.11567,4.15066 4.53106,3.73527 0.0866,-0.0866 0.65577,-2.20899 1.26487,-4.71648 1.94365,-8.001516 2.06303,-8.347646 3.27143,-9.486676 1.2523,-1.1804 5.05026,-2.66625 6.80091,-2.66067 1.27873,0.004 2.58324,1.34448 2.58324,2.65435 0,0.43545 0.41593,1.70025 0.92429,2.810656 0.81959,1.79021 0.9062,2.34454 0.76451,4.89332 -0.12506,2.24976 -0.39436,3.37272 -1.23922,5.16746 -1.11489,2.36836 -1.9546,4.96258 -1.69148,5.22569 0.0825,0.0825 1.28518,-0.10625 2.67251,-0.41955 2.69957,-0.60964 3.15549,-0.54272 3.15549,0.46315 0,0.93647 -0.59589,1.27285 -3.35138,1.8918 -3.31279,0.74413 -4.65605,0.8695 -6.44128,0.60119 z m 1.92931,-4.49224 c 0.76812,-2.32235 0.75346,-3.41394 -0.0273,-2.03532 -0.21978,0.38806 -1.15366,1.4823 -2.07529,2.43165 -0.92163,0.94935 -1.6757,1.78279 -1.6757,1.85208 0,0.0693 0.67469,0.12216 1.49931,0.11748 l 1.4993,-0.009 0.77971,-2.35738 z m -4.99991,0.16573 c 1.67311,-1.02384 2.65337,-1.8956 3.07434,-2.73403 l 0.61801,-1.23091 -1.41176,-1.17578 c -0.77648,-0.64668 -1.41177,-1.48012 -1.41177,-1.85209 0,-0.82694 0.40339,-0.84848 1.8696,-0.0998 0.98604,0.5035 0.91193,0.37298 -0.58529,-1.03073 -0.94285,-0.88398 -1.6448,-1.81809 -1.55986,-2.0758 0.24482,-0.74288 1.39409,-0.72503 2.89733,0.045 0.76286,0.39077 1.45711,0.64042 1.54276,0.55477 0.0856,-0.0856 -0.49883,-0.89935 -1.29884,-1.80822 -0.80003,-0.90888 -1.45459,-1.87325 -1.45459,-2.14306 0,-0.864486 1.00401,-0.912326 2.30266,-0.109716 1.64058,1.013936 1.83245,0.759036 0.52823,-0.70179 -1.15692,-1.29583 -1.10613,-1.77359 0.18854,-1.77359 0.94401,0 1.16825,-0.60984 0.34098,-0.9273 -0.59467,-0.2282 -5.24818,1.46043 -5.7729,2.09482 -0.19105,0.23099 -0.6797,2.245596 -1.08589,4.476916 -0.40618,2.23132 -1.11762,5.84289 -1.58099,8.0257 -1.00449,4.73183 -0.96323,4.76816 2.79945,2.46563 z m -30.52841,-8.26937 c -0.29104,-0.10549 -1.30537,-0.57377 -2.25406,-1.04064 -1.60905,-0.79183 -1.76801,-0.80982 -2.36693,-0.2678 -0.35313,0.31957 -1.34652,0.66044 -2.20754,0.75749 -1.90926,0.2152 -4.54256,-1.07191 -6.40055,-3.12847 -1.36754,-1.5137 -1.8342,-2.975086 -2.06927,-6.480036 -0.0911,-1.35819 -0.35681,-3.22541 -0.59047,-4.14938 -0.24432,-0.96607 -0.36165,-3.00195 -0.27611,-4.79102 0.18134,-3.79294 1.25783,-6.2874 3.67476,-8.51526 2.12754,-1.96109 4.23791,-2.84632 7.34598,-3.0813796 3.22868,-0.24419 4.62496,0.2068696 6.85951,2.2159296 0.95686,0.86029 1.40216,1.104814 1.40216,1.104814 0.47078,-0.139538 1.84616,0.551679 1.71919,1.164916 -0.15138,0.731115 0.96531,0.95408 1.31279,0.39185 0.35974,-0.58208 1.98196,-0.76711 3.39339,-0.38705 1.9508,0.5253 3.64096,2.13108 4.90452,4.65969 1.32904,2.65963 1.42557,4.82844 0.29485,6.62439 -0.55328,0.87879 -0.79735,1.86545 -0.84666,3.42267 -0.1693,5.34644 -3.50397,10.179226 -7.85836,11.388766 -1.33439,0.37066 -5.12784,0.4401 -6.0372,0.11052 z m -5.62131,-3.1775 c 1.36795,-1.15105 2.43082,-3.355506 2.43082,-5.041676 0,-2.43477 -2.76017,-6.70278 -4.33477,-6.70278 -0.63581,0 -0.54318,0.16998 0.61128,1.12158 1.51033,1.24494 2.66515,3.43401 2.66515,5.05204 0,0.58208 -0.30892,1.73899 -0.6865,2.57091 -0.85474,1.883246 -2.52031,2.697376 -5.02586,2.456626 -1.50255,-0.14438 -1.61472,-0.10903 -1.00633,0.3171 2.03311,1.42405 3.83218,1.50017 5.34621,0.2262 z m 12.59089,-0.2196 c 1.77698,-1.23145 3.02957,-3.076536 3.76128,-5.540476 0.65682,-2.21174 0.69609,-3.54202 0.17615,-5.96643 -0.3515,-1.63897 -0.44949,-1.7637 -1.23144,-1.56744 -1.12399,0.2821 -1.61605,-0.80809 -0.67524,-1.49603 0.58102,-0.42485 0.59685,-0.57017 0.15253,-1.40039 -0.68621,-1.28218 -3.75732,-3.98124 -4.83894,-4.25271 -0.49095,-0.12322 -1.16211,-0.0557 -1.49148,0.14995 -0.32937,0.2057 -2.01198,0.95618 -3.73912,1.66773 -3.25154,1.33958 -4.47057,2.22532 -5.52927,4.01755 -0.59786,1.0121 -0.59582,1.05634 0.0584,1.26399 1.04891,0.33291 3.54763,3.2337 4.35216,5.05246 0.89788,2.0298 0.97049,4.79076 0.16808,6.390726 -0.80687,1.60888 -0.79746,1.63878 0.72074,2.289 0.91049,0.38995 2.15717,0.53919 3.99892,0.47871 2.28164,-0.0749 2.88838,-0.23507 4.11719,-1.08664 z m -3.99173,-7.103906 c -0.67569,-0.51107 -0.67542,-0.51813 0.0208,-0.53114 1.49557,-0.0279 3.42172,-0.79811 4.61387,-1.84483 0.86675,-0.76102 1.35513,-0.97959 1.6129,-0.72182 1.10084,1.10085 -1.78553,3.61573 -4.14984,3.61573 -0.77711,0 -1.72107,-0.23307 -2.0977,-0.51794 z m -3.91365,-5.31603 c -0.25597,-0.66703 0.82478,-1.92714 1.65284,-1.92714 0.33423,0 0.80312,0.2355 1.042,0.52332 0.3594,0.43306 0.28149,0.58143 -0.4517,0.86019 -0.48731,0.18527 -0.99019,0.5054 -1.1175,0.7114 -0.33482,0.54175 -0.88483,0.45977 -1.12564,-0.16777 z m 5.70281,-2.97818 c -0.43459,-0.70318 0.52742,-1.77118 1.5954,-1.77118 0.81074,0 1.04593,0.15865 1.04593,0.70556 0,0.46321 -0.23519,0.70555 -0.68474,0.70555 -0.3766,0 -0.78285,0.15875 -0.90276,0.35278 -0.27772,0.44935 -0.77848,0.45282 -1.05383,0.007 z m -12.71786,12.98738 c 1.36057,-0.61992 1.86126,-2.63789 1.06883,-4.30781 -0.78919,-1.66308 -2.07385,-2.56106 -4.0982,-2.86463 -1.49213,-0.22376 -1.67896,-0.16481 -2.4086,0.75996 -0.64597,0.81872 -0.75286,1.28275 -0.58302,2.53087 0.44542,3.27332 3.30706,5.118156 6.02099,3.88161 z m -3.32594,-11.13963 -0.39191,-1.82743 c -0.47606,-2.21979 0.0617,-5.93605 1.12049,-7.74292 l 0.69667,-1.18893 -1.15965,0.97454 c -2.70809,2.27581 -3.98211,5.74544 -3.5918,9.78178 0.12665,1.30969 0.32882,2.37464 0.44927,2.36657 0.94021,-1.255346 1.56882,-1.798346 2.87693,-2.36361 z m 23.77324,-3.33092 c -1.00866,-1.97117 -2.57281,-3.73078 -3.65021,-4.10636 -0.56383,-0.19655 -1.09744,-0.28508 -1.18579,-0.19672 -0.0884,0.0884 0.82623,1.14752 2.0324,2.3537 1.26985,1.26985 2.40154,2.77666 2.6883,3.57939 0.45606,1.27664 0.5039,1.31329 0.60461,0.46314 0.0601,-0.50776 -0.16004,-1.44968 -0.48931,-2.09315 z m -19.51953,-4.66178 c 0.81964,0.0359 1.25907,-0.771279 2.28222,-1.660596 -0.0905,-0.14649 -1.19347,-0.315634 -1.92806,-0.315634 -1.77001,0 -2.50887,0.86738 -3.0864,3.62328 -0.59317,2.83048 -0.55879,4.55484 0.0414,2.07414 0.36782,-1.218821 1.0282,-3.747906 2.69084,-3.72119 z m 7.72864,-1.624 c 0.44233,-0.28631 0.35551,-0.48704 -0.52917,-1.22331 -0.58207,-0.48443 -1.65229,-1.06697 -2.37824,-1.29451 -1.12516,-0.35269 -1.53837,-0.31521 -2.80066,0.25401 l -1.48079,0.66773 c 1.26051,0.05153 1.87498,0.103534 3.02425,0.405233 0.86257,-0.48272 2.73677,-0.232753 2.97199,0.704377 0.23194,0.92415 0.40647,0.99534 1.19262,0.48647 z m 20.6602,25.687486 c -0.0818,-0.25483 -0.2297,-3.24146 -0.32869,-6.636936 -0.18628,-6.38919 -0.59805,-8.90464 -2.45991,-15.02701 -1.12479,-3.69868 -2.04678,-5.46955 -3.47215,-6.66892 -1.09444,-0.92091 -1.28101,-0.9589 -3.63145,-0.73954 -6.64527,0.62019 -7.49791,0.64973 -7.73386,0.26795 -0.26833,-0.43418 -0.4398,-0.38945 5.76051,-1.5027996 3.08272,-0.4977162 3.4197,-1.300423 5.98738,0.06439 0.88136,0.46847 2.11778,1.5321596 2.7476,2.3637696 1.15802,1.52902 2.71655,5.95549 3.81499,10.83521 0.7823,3.47529 1.07693,11.3835 0.54221,14.553666 -0.41384,2.4536 -0.9131,3.46713 -1.22663,2.49022 z m 8.95886,-31.6247856 c -1.29604,-1.2118602 -1.29846,-3.6905406 0.28796,-3.93944 l 1.15564,-0.17688 -1.92291,-3.36085995 c -1.0576,-1.84848005 -1.87146,-3.86200805 -2.16402,-4.32153005 -1.52633,-2.3974225 4.52852,-4.0252567 6.41656,-4.24106 0.66272,-0.0469 1.00354,0.0982 1.00354,0.4273 0,0.3164 -1.09459,0.84141 -2.99861,1.43826 -1.88196,0.58993 -2.96186,1.1058 -2.89992,1.38528 0.0543,0.24491 0.86495,1.58207 1.8015,2.97146 2.58012,3.82766 3.21509,5.26437 3.21509,7.2746 0,2.83139 -2.07541,4.2441139 -3.89483,2.54287 z m -15.81544,-3.70897 c -0.21663,-0.26103 -0.49936,-1.00203 -0.62829,-1.64666 -0.20079,-1.00394 -0.094,-1.28407 0.7447,-1.95279995 0.93589,-0.74624 0.95962,-0.8398 0.53749,-2.11886005 -0.71029,-2.15221 -2.13604,-5.09597 -2.46812,-5.09597 -0.16835,0 -0.40154,0.15443 -0.5182,0.34319 -0.11666,0.18875 -0.8404,0.51237 -1.60832,0.71915 -0.76792,0.20678 -1.39622,0.50841 -1.39622,0.6703 0,0.16188 0.30439,0.9892 0.67641,1.83848 0.91207,2.08217005 1.25775,4.62378 0.7563,5.56075 -0.52486,0.98073 -2.31899,1.02099 -2.83141,0.0635 -0.52391,-0.97895 -0.45153,-1.81249995 0.22203,-2.55677995 0.64653,-0.71441 0.66371,-0.62841 -1.11433,-5.57986005 -0.52247,-1.45496 -1.13354,-2.76767 -1.35794,-2.91712 -0.53784,-0.3582 0.70433,-1.34148 1.37133,-1.08552 0.39812,0.15277 3.22264,-0.54984 4.60432,-1.1453504 0.54588,-0.23527 3.81769,5.2454704 4.69839,7.8704504 0.8191,2.44137005 0.99396,6.40305 0.31268,7.08432 -0.56162,0.56163 -1.51238,0.53727 -2.00082,-0.0513 z m -4.02094,-11.5592 c 0.84632,-0.4097 1.48779,-0.89786 1.42547,-1.08479 -0.14291,-0.42875 -0.23213,-0.42545 -2.55474,0.0943 -1.70575,0.38173 -1.88029,0.50208 -1.5697,1.08242 0.44587,0.83311 0.81392,0.82057 2.69897,-0.092 z" fill="#00B894" transform="translate(-81.07928,-11.180382) matrix(2.2934124,0,0,2.2934124,-306.0388,35.277989)"/>
</svg>