<?xml version="1.0" ?><svg height="125.1093mm" viewBox="0 0 158.34827 125.1093" width="158.34827mm" xmlns="http://www.w3.org/2000/svg">
    <path d="m 25911.475,1784.8912 c 6.672,-16.5129 15.568,-23.3516 34.195,-23.3516 18.626,0 164.765,-5.5878 164.765,-5.5878 0,0 8.804,-19.0983 34.751,-19.6821 25.947,-0.5838 53.377,18.8482 53.377,18.8482 l 206.652,3.5027 c 0,0 89.611,246.193 89.333,261.6218 -0.278,15.4288 1.668,28.6058 -24.836,29.273 -26.503,0.6671 -243.348,18.5145 -243.348,18.5145 0,0 -8.155,27.5215 -4.819,47.5372 3.336,20.0158 34.751,79.062 -28.079,73.1407 -62.829,-5.9213 -63.663,-41.2824 -61.81,-63.8834 1.854,-22.6011 11.955,-31.8583 29.654,-28.6891 17.7,3.1691 23.26,4.6703 27.894,-8.6735 4.633,-13.3438 4.818,-20.1825 4.818,-20.1825 0,0 -168.472,0.417 -188.025,-6.6719 -19.553,-7.0889 -28.727,-3.5861 -32.99,-30.8575 -4.263,-27.2714 -61.532,-244.8587 -61.532,-244.8587 z" fill="#FFFFFF" transform="translate(31.733844,-54.252064) matrix(0.26458333,0,0,0.26458333,-6885.8583,-403.02078)"/>
    <path d="m 26144.588,1728.2754 c -16.306,-0.026 -40.412,8.1308 -42.385,14.3457 -1.574,4.9583 -7.432,5.5976 -70.115,7.6406 -117.465,3.8318 -113.631,3.3498 -121.418,15.2363 -9.223,14.0773 -6.774,38.0495 9.908,96.8282 8.284,29.1972 20.353,76.9028 26.817,106.0117 18.998,85.5531 21.493,92.6777 32.472,92.6777 2.835,0 11.159,2.6538 18.496,5.9004 16.854,7.4539 89.378,12.9949 145.69,11.1309 21.461,-0.7112 39.017,-0.3038 39.017,0.9043 0,8.8563 -3.439,10.5618 -15.054,7.4609 -10.067,-2.6878 -13.402,-2.2929 -22.442,2.6543 -15.484,8.4787 -22.153,19.1988 -23.724,38.1328 -2.941,35.4872 10.964,56.295 45.658,68.3184 h -0.01 c 28.531,9.8877 47.996,6.8649 66.406,-10.3067 16.624,-15.5085 17.301,-42.4294 1.684,-67.0527 -7.615,-12.0079 -8.603,-15.7847 -6.971,-26.6641 1.045,-6.9702 3.48,-13.6615 5.412,-14.8652 1.93,-1.2059 49.888,-3.0622 106.576,-4.1289 127.122,-2.3919 148.517,-5.9051 158.965,-26.1113 5.738,-11.0759 5.683,-28.4081 -0.152,-51.2071 -7.662,-29.9305 -60.543,-190.9595 -66.811,-203.4511 -3.207,-6.3894 -7.363,-16.9906 -9.238,-23.5567 -2.548,-8.927 -5.989,-13.2987 -13.633,-17.3183 -9.446,-4.9693 -17.404,-5.2775 -104.361,-4.0606 l -94.135,1.3145 -10.664,-7.0567 c -10.575,-6.9968 -35.756,-12.7333 -55.988,-12.7773 z m -1.4,16.2441 c 4.718,-0.01 9.746,0.3569 14.177,1.0957 17.358,2.5125 16.562,2.5465 -11.103,2.6052 -21.748,0.04 -24.512,-0.4197 -15.399,-2.5664 4.36,-0.7824 8.658,-1.1214 12.325,-1.1345 z m 25.48,23.127 c 186.528,0.3423 232.385,1.178 236.146,4.2988 5.829,4.8367 13.8,29.2858 25.426,77.9824 4.956,20.7605 19.047,68.3257 31.315,105.7012 13.603,41.4481 21.663,70.5175 20.658,74.5195 -0.905,3.6088 -5.308,8.0222 -9.783,9.8067 -14.415,5.7467 -56.688,9.2736 -112.598,9.4062 -30.005,0.071 -84.37,1.3488 -120.812,2.8418 -161.726,6.6257 -230.96,5.6533 -244.797,-3.4394 -6.241,-4.1035 -8.93,-10.9776 -16.709,-42.6992 -5.102,-20.7959 -12.084,-51.0603 -15.518,-67.2579 -5.76,-27.1609 -16.338,-68.6018 -32.16,-125.998 -6.778,-24.5879 -5.985,-38.5884 2.434,-43.0078 2.709,-1.4201 108.749,-2.3884 236.398,-2.1543 z m -29.768,10.1953 c -102.71,-0.5477 -177.15,1.5398 -182.959,5.1309 -4.611,2.8491 -0.847,24.9983 27.975,164.6679 4.011,19.4354 8.854,45.0391 10.764,56.8946 2.432,15.0934 4.928,22.1029 8.324,23.375 2.671,1.0005 6.399,3.8911 8.287,6.4199 2.652,3.5536 11.365,4.9329 38.281,6.0703 19.168,0.8038 35.683,1.1611 36.701,0.7812 6.422,-2.3918 133.074,-7.3832 236.079,-9.3046 125.72,-2.3433 137.525,-3.6244 137.525,-14.9278 0,-2.6613 -4.691,-18.6817 -10.422,-35.6015 -5.734,-16.9176 -17.702,-57.9254 -26.598,-91.1289 -8.898,-33.2015 -18.909,-68.6955 -22.246,-78.877 -3.339,-10.1793 -5.339,-20.4076 -4.449,-22.7266 0.89,-2.3212 0.479,-4.9219 -0.914,-5.7832 -3.245,-2.0054 -118.945,-4.2591 -256.348,-4.9902 z m -56.781,8.9082 36.488,2.0625 c 20.07,1.1352 36.839,2.3481 37.268,2.6992 0.428,0.349 -2.416,6.4685 -6.318,13.5977 -23.018,42.0356 -39.435,121.2622 -41.127,198.4824 l -0.45,20.6133 -11.478,0.9414 -11.479,0.9375 1.684,-43.6387 c 0.925,-24.0005 3.39,-56.6539 5.475,-72.5644 3.35,-25.5619 3.173,-33.0925 -1.518,-64.7832 -2.92,-19.7225 -6.038,-40.9194 -6.928,-47.1055 z m -40.775,0.4023 c 7.871,0 8.578,0.9666 10.252,13.9883 4.435,34.5198 5.419,95.5964 2.093,129.8535 -1.942,19.9963 -3.943,49.8129 -4.447,66.2579 l -0.914,29.8964 -18.291,0.8848 c -12.348,0.5963 -17.664,-0.1308 -16.361,-2.2422 2.505,-4.0505 -8.374,-72.6907 -17.506,-110.4726 -3.905,-16.1579 -6.652,-29.8288 -6.1,-30.3809 0.552,-0.5499 10.02,-2.8895 21.041,-5.1953 29.089,-6.0868 29.336,-6.5237 25.211,-44.6016 -5.117,-47.2346 -5.036,-47.9883 5.022,-47.9883 z m 26.144,0 h 11.043 l 0.239,13.9883 c 0.131,7.6924 1.263,32.5375 2.521,55.2129 1.763,31.7944 1.202,49.2827 -2.447,76.4414 -2.601,19.3691 -4.731,48.1913 -4.731,64.0489 0,28.7909 0,28.8339 -7.361,28.8339 -6.939,0 -7.361,-0.9086 -7.361,-15.8164 0,-8.6995 2.136,-34.8711 4.744,-58.1582 5.336,-47.6012 4.199,-97.2702 -3.162,-138.0469 -2.485,-13.7681 -4.524,-25.3634 -4.524,-25.7675 0,-0.4042 4.965,-0.7364 11.039,-0.7364 z m -71.824,1.1582 30.512,0.3145 1.951,36.4961 c 1.075,20.0715 1.185,37.2625 0.244,38.2012 -0.939,0.9408 -10.77,3.8394 -21.846,6.4433 l -20.14,4.7324 -10.612,-41.4765 c -5.837,-22.8123 -10.615,-42.2778 -10.615,-43.2539 0,-0.974 13.728,-1.6338 30.506,-1.4571 z m 183.01,2.6 c 7.69,0.169 11.534,-0.9102 7.173,3.0948 -6.932,6.3653 -30.95,58.598 -38.158,91.6138 -6.915,31.6708 -14.679,91.9264 -14.679,113.9082 0,22.7902 -0.133,23.2051 -7.362,23.2051 -7.323,0 -7.363,-0.1329 -7.363,-27.4551 0,-51.4926 16.933,-136.509 36.125,-181.3671 9.281,-21.6925 7.818,-23.1167 16.543,-22.9022 1.305,0.032 6.622,-0.1217 7.721,-0.098 z m 31.373,0.068 c 8.73,-0.079 20.369,0.3371 32.807,0.8926 l 45.23,2.0156 -12.898,28.7578 c -7.092,15.8178 -13.717,33.8491 -14.721,40.0684 -1.122,6.9592 -5.034,14.3136 -10.164,19.1172 -11.407,10.6807 -12.422,25.9871 -2.257,40.0089 2.936,4.0489 9.626,6.3987 9.493,8.2209 l -2.969,40.7331 c -1.638,22.4668 -2.098,39.8429 -0.588,41.4375 1.434,1.5149 3.146,2.173 3.807,1.4707 2.33,-2.4758 4.484,-28.1019 4.639,-55.0176 0.139,-25.2241 0.584,-27.2383 6.037,-27.2383 5.563,0 5.909,2.0798 6.24,37.5449 0.314,33.9103 -0.02,45.5945 -1.365,46.7871 -0.249,0.2231 -9.217,1.2804 -19.926,2.3516 l -19.471,1.9434 -1.63,-12.1621 c -0.895,-6.6897 -0.906,-23.9799 -0.02,-38.4239 1.768,-23.0007 3.548,-26.0587 -4.394,-26.1157 l -20.323,-0.146 c -16.595,-0.1192 -28.054,1.3604 -31.012,3.6816 -3.234,2.5399 -5.723,12.7734 -8.027,33.0215 -1.835,16.1358 -4.097,32.3685 -5.027,36.0723 v 0.01 c -1.345,5.358 -3.73,6.7305 -11.678,6.7305 h -9.986 v -21.5352 c 0,-39.7122 12.175,-115.4351 24.236,-150.7324 7.026,-20.5617 24.352,-56.1639 28.612,-58.7988 0.807,-0.5013 3.789,-0.591 12.518,-0.6699 z m 91.133,2.0625 c 3.064,0 5.57,0.4792 5.57,1.0645 0,0.5875 -5.395,12.578 -11.988,26.6465 -6.592,14.0686 -12.675,29.8238 -13.518,35.0117 l -1.531,9.4336 36.34,-0.7715 c 19.987,-0.4241 47.162,-1.0879 60.385,-1.4766 l 24.046,-0.7051 9.092,35.3379 c 5,19.4354 9.082,36.3303 9.082,37.545 0,1.2147 -5.247,2.2089 -11.654,2.2089 -12.839,0 -7.613,-1.5499 -10.041,-32.7127 -0.569,-7.2883 -7.327,-14.5751 -7.172,0 l 0.885,35.4902 c -0.634,7.88 4.585,5.0027 16.119,6.0551 l 16.119,1.4707 9.441,29.4492 c 5.194,16.1954 9.541,31.1036 9.651,33.129 0.141,2.5774 -5.364,3.6796 -18.371,3.6796 h -18.573 l -4.914,-19.8769 c -2.703,-10.9324 -5.276,-23.19 -5.722,-27.2383 -0.773,-7.0542 -1.915,-7.4562 -27.309,-9.625 -14.576,-1.2434 -36.439,-1.1076 -48.588,-1.4707 -33.084,-0.9887 -23.617,-2.8539 -22.925,30.9727 -0.771,27.7573 -1.304,30.1836 -6.625,30.1836 -6.796,-10e-5 -6.783,0.1179 -5.842,-50.0606 0.642,-34.2527 2.174,-41.0049 9.343,-41.1816 1.062,-0.024 1.242,5.0836 0.401,11.3515 -1.562,11.6435 3.476,19.6496 6.842,10.875 1.48,-3.8518 7.398,-2.3123 39.748,-0.864 27.586,1.235 40.966,0.944 40.363,-6.175 l -1.977,-23.3301 c -1.198,-14.1333 -1.606,-26.3613 -2.302,-27.0879 -2.904,-3.039 -67.496,-5.207 -71.012,-2.3867 -2.522,2.0253 -5.165,1.7251 -8.385,-0.9473 -4.271,-3.5447 -4.202,-4.0997 0.737,-6.041 2.992,-1.1772 26.23,-2.2373 51.644,-2.3477 41.117,-0.1855 55.024,-2.3353 47.035,-7.2714 -1.404,-0.8702 -28.074,-0.3085 -59.265,1.2441 -55.908,2.785 -70.786,2.0373 -70.786,-3.5547 0,-1.5637 6.769,-19.3091 15.045,-39.4336 11.767,-28.6207 16.257,-36.5918 20.612,-36.5918 z m 56.431,0 h 27.305 l 5.33,24.2949 c 2.931,13.3618 6.015,27.1511 6.852,30.6407 1.425,5.9587 0.189,6.4503 -20.119,8.0117 -36.982,2.8402 -87.897,4.1627 -87.897,2.2832 0,-0.9872 5.632,-16.0578 12.514,-33.4922 10.731,-27.1786 13.46,-31.7188 19.14,-31.7188 6.973,-0.02 8.452,2.8103 3.916,7.4903 -4.251,4.3884 -23.797,44.5731 -23.797,48.9394 0,3.1406 9.037,3.7404 44.909,3.0293 59.185,-1.1705 65.096,-6.4726 7.218,-6.4726 -23.808,0 -43.289,-0.6966 -43.289,-1.5469 0,-0.8503 4.639,-10.7549 10.309,-22.0098 5.667,-11.257 10.305,-22.4879 10.305,-24.957 0,-3.7016 4.799,-4.4922 27.304,-4.4922 z m -180.858,81.7957 1.058,26.425 c 0.387,9.6689 -1.121,29.0256 3.519,28.8796 l 9.102,1.6868 4.496,0.4335 c 6.527,0.6294 14.573,1.3393 23.48,1.0391 l 13.44,-0.453 c 1.718,-0.058 2.756,-17.5385 2.756,-26.3438 0,-25.2196 -0.334,-26.5849 -7.362,-30.1407 -4.05,-2.0495 -17.076,-2.5786 -28.818,-3.7675 -14.743,-1.4927 -22.734,-3.5507 -21.671,2.241 z m 8.594,6.5467 c -0.174,-5.2709 2.44,-3.1548 22.018,-1.2643 11.739,1.1336 18.441,1.7766 18.662,1.9754 3.669,0.4556 2.757,1.7686 1.955,23.5832 -1.396,21.0278 -2.004,22.7813 -7.753,22.2911 -3.43,-0.2917 -12.533,-1.0257 -20.227,-1.6309 -18.126,-0.3742 -13.932,-2.506 -13.986,-24.6797 z m 90.721,0.4135 c 5.893,1.2842 12.445,5.2795 13.909,11.6992 1.417,3.4081 3.625,15.2855 -3.84,21.7539 -6.816,5.9062 -19.854,10.9586 -31.166,-1.4902 -4.834,-5.3203 -5.544,-16.8171 -1.533,-23.1446 1.472,-4.0418 12.624,-10.9989 22.63,-8.8183 z m -2.648,4.6543 c -1.754,-0.5042 -4.155,-0.1903 -5.871,0.2617 -4.917,1.2951 -7.322,2.5894 -12.066,12.2239 -0.759,4.7938 0.938,7.6172 2.863,11.6159 1.424,2.9594 10.282,5.6495 15.312,5.293 5.03,-0.3564 14.333,-9.6637 12.544,-16.4793 -1.432,-5.4557 -7.058,-11.2699 -12.782,-12.9152 z m 54.678,7.1679 c 13.362,1.1109 27.938,2.1234 32.392,2.2559 8.029,0.2319 8.1,0.379 8.1,20.8457 h 0.01 v 20.6152 h -34.25 -34.252 l 1.828,-11.0429 c 1.002,-6.0736 1.855,-16.365 1.855,-22.8692 0,-12.8308 -2.901,-11.4142 24.317,-9.8047 z m -149.325,56.9688 h 23.498 c 16.991,0 23.425,1.0164 23.204,3.6777 -0.163,2.0253 -0.494,17.5015 -0.737,34.3926 l -0.441,30.7129 -26.793,0.9453 c -14.736,0.519 -27.098,0.2812 -27.467,-0.5293 -0.371,-0.8106 1.442,-16.7111 4.031,-35.3359 z m 122.086,9.4219 34.604,2.1523 c 19.029,1.186 37.885,2.4843 41.9,2.8906 6.566,0.6626 7.829,3.0552 12.553,23.7715 2.889,12.6706 4.903,23.3725 4.477,23.7832 v 0 c -0.427,0.4108 -20.838,1.2015 -45.362,1.7559 l -44.586,1.0078 -1.767,-14.7246 c -0.972,-8.0966 -1.793,-20.5526 -1.793,-27.6797 z m -94.232,115.7285 c 10.359,0 10.036,-1.1542 4.23,15.0898 -3.45,9.6536 -4.125,18.4622 -2.689,35.1192 1.89,21.9443 1.813,22.278 -5.842,25.7675 -4.264,1.9414 -8.022,3.4425 -8.351,3.3321 -8.559,-2.8535 -15.425,-9.011 -19.959,-17.9004 -7.445,-14.5942 -7.22,-16.2827 2.88,-21.5059 10.365,-5.3602 20.897,-21.5648 20.897,-32.1504 0,-6.65 1.257,-7.7519 8.834,-7.7519 z m -55.322,23.916 c 0.966,0.5248 0.914,2.9212 -0.836,7.4863 -6.363,16.5907 4.3,48.1603 20.019,59.2715 12.357,8.7327 24.995,10.467 38.043,5.2129 l 11.348,-4.5684 -6.951,5.875 c -12.054,10.1837 -47.769,5.5799 -63.198,-8.1464 -13.582,-12.0852 -17.456,-36.1429 -8.617,-53.5332 4.14,-8.1469 8.581,-12.4723 10.192,-11.5977 z" fill="#00B894" transform="translate(31.733844,-54.252064) matrix(0.26458333,0,0,0.26458333,-6885.8583,-403.02078)"/>
</svg>