<?xml version="1.0" ?><svg height="96.769264mm" viewBox="0 0 70.013451 96.769264" width="70.013451mm" xmlns="http://www.w3.org/2000/svg">
    <path d="m 4967.0571,12434.511 c 26.8493,-9.283 39.14,3.358 82.3036,5.926 43.1636,2.568 50.9184,-14.156 86.2541,0 35.3356,14.156 42.2125,56.03 22.7523,92.505 -19.4602,36.476 -15.7291,70.054 -11.1201,122.463 4.609,52.409 -14.6317,98.497 -37.4573,98.036 -22.8255,-0.461 -16.607,-44.442 -27.0687,-69.922 -10.4617,-25.48 -25.8981,-43.784 -25.8981,-43.784 0,0 -27.0688,19.291 -33.9457,41.282 -6.8769,21.991 0.2926,85.856 -17.2655,86.712 -17.558,0.856 -37.7499,-50.5 -41.2615,-76.704 -3.5116,-26.205 1.829,-47.866 -14.9975,-96.522 -16.8265,-48.656 -30.7998,-122.331 -13.3149,-140.306 17.485,-17.974 31.0193,-19.686 31.0193,-19.686 z" fill="#FFFFFF" transform="translate(-142.64212,118.68823) matrix(0.26458333,0,0,0.26458333,-1157.9695,-3402.9653)"/>
    <path d="m 5082.915,12761.037 c -18.0931,-32.688 7.853,-54.291 -16.5248,-100.788 -10.4105,-21.525 -10.9592,-12.32 -21.2522,1.692 -12.7408,17.404 -20.4277,42.655 -23.3463,76.692 -1.1344,13.228 -2.5568,26.539 -3.1607,29.579 -1.5818,7.96 -9.867,12.188 -19.4968,9.95 -18.5465,-4.316 -30.5035,-25.485 -40.0192,-70.854 -5.646,-26.918 -6.2433,-33.155 -4.7835,-49.934 2.7827,-31.984 -8.7825,-41.735 -19.6628,-66.628 -17.1148,-40.022 -23.9855,-93.968 -15.0402,-123.241 7.9376,-25.549 24.2566,-38.638 62.5782,-50.187 21.6802,-6.535 30.3002,-5.903 51.9629,3.814 22.1433,9.93 21.3626,9.859 40.9297,3.739 28.7386,-8.99 57.8291,-6.353 76.5168,6.938 49.4895,38.688 21.5514,90.082 14.1018,116.649 -11.3013,40.218 -19.5712,59.957 -16.6759,96.415 2.3507,39.479 -1.4103,88.944 -23.5411,111.132 -16.3524,15.622 -28.9856,21.61 -42.5859,5.032 z m 45.0539,-59.027 c 6.0528,-19.478 7.3189,-32.016 4.2512,-59.97 -4.9504,-45.109 0.3069,-63.361 8.9419,-91.407 9.1038,-31.897 28.636,-65.138 1.2239,-94.02 -2.2572,-3.006 -9.196,-6.961 -15.5261,-8.852 -10.5231,-3.144 -13.8433,-2.972 -41.2194,2.129 -34.2151,6.378 -40.7407,5.948 -56.6446,-3.72 -21.1205,-12.839 -27.2745,-13.304 -53.6759,-4.055 -18.0303,6.319 -27.8323,13.581 -33.9179,25.132 -15.0467,50.228 7.9952,107.172 22.3449,139.184 3.627,7.885 5.8608,30.803 7.9364,49.846 4.2975,39.423 13.4528,77.413 21.9946,91.264 2.9699,4.816 6.0877,8.642 6.9285,8.499 0.8407,-0.135 2.4887,-8.291 3.6618,-18.109 3.3295,-27.86 12.192,-55.471 23.2013,-72.286 18.1154,-24.037 26.5448,-51.634 48.168,-15.071 10.0869,17.055 13.9069,31.38 17.068,50.112 3.285,19.465 -5.3222,39.29 6.2442,44.852 12.9814,3.594 24.382,-28.606 29.0192,-43.528 z m -94.8537,-199.403 c -13.9608,-0.252 -26.7293,-5.931 -44.8655,-19.948 -12.3785,-9.567 -16.9062,-14.287 -15.1828,-15.825 3.2098,-2.865 7.3173,-2.199 33.028,5.356 22.9597,9.075 30.7887,4.741 54.884,0.674 26.6721,-4.5 34.5088,-5.109 38.9055,-3.019 4.5423,2.161 5.2186,3.474 3.8642,7.503 -2.4129,7.18 -13.4922,13.227 -32.6434,17.814 -9.3224,2.232 -19.8869,4.853 -23.4766,5.824 -3.5896,0.971 -10.1206,1.701 -14.5134,1.621 z" fill="#00B894" transform="translate(-142.64212,118.68823) matrix(0.26458333,0,0,0.26458333,-1157.9695,-3402.9653)"/>
</svg>