<?xml version="1.0" ?><svg height="77.173119mm" viewBox="0 0 67.760902 77.173119" width="67.760902mm" xmlns="http://www.w3.org/2000/svg">
    <path d="m 4617.1631,13655.234 c 19.4699,-30.066 34.7904,-52.759 34.7904,-52.759 0,0 -39.1525,-6.032 -31.4923,-23.363 7.6603,-17.33 59.8992,-21.926 59.8992,-21.926 0,0 -21.7041,-12.639 4.6813,-17.331 26.3855,-4.692 66.0701,2.968 88.8381,10.15 22.7681,7.181 40.7433,16.979 40.7433,16.979 0,0 -8.6126,1.117 -1.0587,10.309 7.5539,9.192 20.4274,20.203 22.3425,34.183 1.915,13.979 -6.9156,28.533 -6.9156,28.533 0,0 29.5773,122.752 -68.8362,158.179 -98.4134,35.428 -125.3308,-4.979 -147.035,-50.843 -21.7041,-45.864 4.043,-92.111 4.043,-92.111 z" fill="#FFFFFF" transform="translate(23.297096,-126.2111) matrix(0.26458333,0,0,0.26458333,-1236.4046,-3454.2803)"/>
    <path d="m 4684.9239,13822.487 c -21.392,-4.894 -39.687,-15.692 -54.7456,-32.311 -15.0844,-16.647 -26.4854,-36.441 -31.463,-54.623 -3.3344,-12.18 -3.2671,-39.395 0.1326,-53.603 1.3276,-5.549 2.4136,-10.652 2.4136,-11.346 0,-0.692 -2.6784,-1.709 -5.9523,-2.264 -5.7358,-0.969 -10.3359,-3.956 -10.3359,-6.712 0,-2.156 4.6659,-3.976 13.1176,-5.119 9.0382,-1.222 9.5328,-1.668 19.7059,-17.778 4.1141,-6.516 10.8593,-15.844 14.9895,-20.732 4.1303,-4.885 8.4913,-10.05 9.6912,-11.474 2.0209,-2.399 1.7559,-2.578 -3.5991,-2.42 -14.8826,0.433 -27.8392,-12.557 -25.0751,-25.143 2.4413,-11.115 21.2587,-19.798 50.1395,-23.138 8.4025,-0.974 8.5648,-1.076 6.0583,-3.845 -8.0177,-8.859 12.3224,-19.033 38.7835,-19.397 7.2371,-0.105 15.4903,0.321 18.3408,0.933 8.946,1.925 53.6516,15.697 62.5618,19.272 7.4583,2.994 8.5077,3.117 8.4618,0.997 -0.029,-1.329 -1.0046,-4.085 -2.1686,-6.119 -3.9907,-6.981 -1.6651,-13.278 4.072,-11.028 2.5808,1.013 10.823,16.395 12.8708,24.018 l 1.6999,6.329 8.1635,-0.265 c 5.7434,-0.189 8.8565,0.425 10.5011,2.069 4.4961,4.497 -1.6027,10.694 -7.128,7.243 -1.51,-0.942 -4.159,-1.713 -5.8869,-1.713 -2.5552,0 -1.714,1.284 4.504,6.875 10.883,9.783 15.2274,19.027 16.0625,34.175 0.4834,8.771 0,14.235 -1.7361,19.536 -2.1711,6.638 -2.1913,8.275 -0.2054,16.699 2.9075,12.332 2.905,44.408 0,61.093 -8.5191,48.854 -45.4999,89.237 -97.7006,106.692 -14.6213,4.89 -41.8759,6.39 -56.2686,3.099 z m 47.3841,-18.642 c 41.5044,-13.083 76.6278,-44.785 87.3999,-78.883 9.085,-28.76 8.8128,-60.468 -0.7372,-85.841 -8.9815,-23.859 -36.5266,-51.448 -60.2162,-60.312 -4.5697,-1.71 -15.1456,-3.854 -23.5024,-4.767 -14.747,-1.611 -15.5802,-1.539 -28.3189,2.412 -33.2353,10.309 -56.3199,28.514 -77.7964,61.356 -3.9296,6.008 -7.1448,11.424 -7.1448,12.034 0,0.609 2.9932,0.772 6.6514,0.359 7.5562,-0.852 11.1176,1.165 11.1176,6.298 0,4.689 -2.2104,6.065 -14.8313,9.224 l -11.0819,2.774 -2.6768,10.289 c -3.5945,13.815 -3.8843,39.652 -0.5844,52.097 6.8543,25.848 29.9932,55.719 52.1261,67.294 5.7008,2.981 15.0297,6.46 20.7305,7.73 14.0481,3.131 35.2274,2.236 48.8648,-2.064 z m -35.0507,-16.572 c -17.2017,-1.587 -26.6568,-6.996 -45.7746,-26.192 -19.4593,-21.308 -28.4642,-37.195 -30.1282,-53.007 -0.2374,-5.111 1.1809,-4.37 6.445,-7.093 4.2776,-2.21 45.3621,-13.944 72.6723,-20.753 8.5514,-2.132 25.2099,-7.156 37.0188,-11.162 30.5774,-10.377 45.7812,-13.485 49.5808,-7.028 11.2639,13.801 8.2398,29.175 7.7403,41.845 -1.2444,28.653 -8.1215,42.447 -30.2862,60.744 -22.8753,18.885 -41.1937,25.052 -67.2682,22.646 z m 29.5774,-17.82 c 24.5733,-9.106 50.1036,-34.986 53.1731,-53.901 l 0.9091,-5.603 -5.0545,3.164 c -2.933,1.835 -5.7513,5.204 -6.7141,8.024 -1.7349,5.081 -6.4003,9.119 -7.4397,6.439 -1.8928,-4.882 -2.8308,-5.121 -10.5103,-2.666 -6.8071,2.178 -7.6839,2.937 -8.0804,6.996 -0.5445,5.579 -5.7021,7.062 -8.8622,2.55 -1.9125,-2.731 -2.5251,-2.787 -9.7783,-0.906 -9.3009,2.414 -10.6789,3.182 -10.6789,5.959 0,2.798 -4.4013,2.745 -6.4999,-0.08 -1.3997,-1.882 -3.0751,-1.956 -11.2689,-0.498 -5.2938,0.941 -11.9572,1.823 -14.8075,1.959 -2.8505,0.134 -7.5678,0.359 -10.483,0.497 -4.3981,0.21 -5.2801,0.795 -5.1825,3.435 0.17,4.606 -2.9995,5 -6.8826,0.856 -3.0715,-3.276 -12.2055,-6.583 -11.1979,-4.053 1.1173,2.805 21.925,19.266 24.3531,19.266 2.1275,0 2.7547,-1.1 2.7437,-4.812 -0.013,-4.346 0.4504,-4.858 4.7734,-5.275 4.7623,-0.46 10.8539,3.705 12.4579,8.518 0.4308,1.291 1.7699,1.608 3.9196,0.927 2.6483,-0.842 2.9855,-1.559 1.7853,-3.804 -2.1659,-4.046 -1.8378,-5.623 1.547,-7.435 2.5669,-1.373 3.6979,-0.902 7.4462,3.112 3.976,4.256 4.8974,4.594 9.1799,3.365 4.3722,-1.254 4.7223,-1.804 4.2956,-6.757 -0.3715,-4.312 0.1874,-5.741 2.7885,-7.134 3.7903,-2.028 9.6735,0 12.7514,4.392 1.5918,2.272 2.5948,2.42 7.0283,1.033 4.4752,-1.401 5.2308,-2.321 5.6109,-6.831 0.3731,-4.425 1.0418,-5.282 4.4267,-5.672 3.1225,-0.361 4.4595,0.452 6.1633,3.748 2.5532,4.936 0.9024,9.298 -3.5186,9.298 -4.3711,0 -19.147,6.976 -20.114,9.495 -1.141,2.974 -6.1793,4.468 -8.5191,2.525 -2.1357,-1.772 -12.017,0.57 -15.8261,3.75 -1.4456,1.207 -4.26,1.591 -7.6381,1.043 -3.9105,-0.635 -7.1749,0.05 -12.1378,2.523 -3.7339,1.864 -6.5254,3.654 -6.2037,3.976 0.3219,0.32 3.8156,1.144 7.7635,1.827 9.7664,1.69 24.7908,0.266 34.2816,-3.251 z m -44.1318,-10.782 c -1.0139,-1.221 -2.3569,-2.221 -2.9844,-2.221 -0.6276,0 -1.5246,1 -1.9935,2.221 -0.6225,1.622 0.1825,2.221 2.9845,2.221 3.2425,0 3.5513,-0.344 1.9934,-2.221 z m 19.5213,-4.022 c -1.0627,-1.063 -1.7524,-1.15 -1.7524,-0.222 0,1.976 1.7512,3.727 2.7395,2.739 0.4208,-0.421 -0.023,-1.554 -0.9871,-2.517 z m 26.5357,-6.041 c -1.9006,-1.901 -3.8278,-0.432 -2.4208,1.846 0.5451,0.881 1.6693,1.183 2.4984,0.671 1.0113,-0.626 0.9858,-1.454 -0.078,-2.517 z m -75.6722,-15.849 c 0,-3.549 2.52,-3.821 6.0224,-0.651 2.2688,2.052 3.3548,2.073 9.7415,0.187 5.1926,-1.536 7.067,-2.792 6.7528,-4.533 -0.5451,-3.017 3.5541,-3.186 5.2166,-0.216 0.9613,1.719 2.3392,1.898 6.3667,0.837 2.8271,-0.747 7.9719,-2.093 11.4331,-2.99 4.7101,-1.223 6.2933,-2.364 6.2933,-4.538 0,-3.537 2.3155,-3.797 4.1784,-0.467 1.2626,2.255 2.0712,2.245 10.9099,-0.147 8.331,-2.255 9.7763,-3.179 11.3534,-7.25 1.6555,-4.274 1.9715,-4.449 3.764,-2.075 2.5548,3.384 3.531,3.301 14.9418,-1.266 6.9611,-2.788 9.6402,-4.616 9.6402,-6.578 0,-3.842 2.8427,-5.125 5.491,-2.476 2.0064,2.007 2.997,1.932 9.3139,-0.693 6.2684,-2.605 7.1618,-3.553 7.8918,-8.363 1.0398,-6.855 -0.9551,-17.635 -3.7874,-20.467 -1.9007,-1.901 -4.5959,-1.328 -22.0133,4.684 -10.9161,3.767 -25.5114,8.75 -32.434,11.071 -14.7285,4.94 -65.1625,15.918 -82.0167,17.853 -6.4247,0.737 -11.9884,1.648 -12.3637,2.023 -0.9866,0.987 3.2163,10.806 4.5471,10.806 0.6154,0 1.543,-0.425 2.0612,-0.944 0.5182,-0.518 4.4704,-0.576 9.546,-0.667 8.5589,-0.157 9.2925,-0.438 10.1135,-3.872 0.7336,-3.067 1.6322,-3.62 5.2541,-3.224 2.403,0.262 5.1407,1.474 6.0843,2.69 1.1295,1.455 3.6573,2.051 7.4036,1.743 4.9668,-0.409 5.7479,-0.984 6.1571,-4.54 0.5376,-4.673 3.154,-5.436 4.2513,-1.239 0.6062,2.317 1.861,2.751 6.895,2.381 11.0379,-0.81 13.9026,-2.126 14.8405,-6.815 1.029,-5.145 4.2932,-5.639 6.5335,-0.992 1.4206,2.95 1.5746,2.659 1.3368,-2.533 -0.2037,-4.451 0.3345,-5.991 2.2319,-6.385 2.4683,-0.511 7.6972,3.604 8.806,6.93 0.4288,1.286 1.7648,1.297 5.3678,0.05 3.8917,-1.356 4.7968,-2.467 4.7968,-5.883 0,-5.902 2.1779,-6.585 5.747,-1.8 2.8955,3.88 3.046,3.92 3.0907,0.821 0.025,-1.792 -1.0878,-3.893 -2.4745,-4.669 -2.126,-1.191 -2.2138,-1.781 -0.5591,-3.775 3.0943,-3.729 8.5934,-2.91 11.4826,1.707 1.4011,2.24 2.7046,4.305 2.8965,4.59 0.1919,0.286 2.5811,-0.219 5.3094,-1.12 3.4875,-1.149 5.5142,-3.062 6.825,-6.441 1.7868,-4.417 1.3031,-5.821 3.8256,-1.245 2.6685,4.838 1.3401,9.496 -2.428,8.51 -3.7844,-0.989 -12.4079,3.4 -14.185,7.22 -0.7675,1.65 -3.8175,4.304 -6.7776,5.899 -4.4513,2.398 -5.8876,2.583 -8.3032,1.074 -3.8771,-2.422 -14.1003,1.537 -18.9962,7.357 -3.6,4.278 -8.7936,5.381 -11.6908,2.484 -2.165,-2.164 -16.5961,1.135 -17.7151,4.05 -0.6123,1.596 -3.0287,1.833 -11.0687,1.087 -9.4197,-0.878 -10.4729,-0.69 -12.5135,2.224 -2.6291,3.752 -10.5722,4.396 -11.8902,0.96 -1.2538,-3.267 -12.6384,-3.471 -14.5017,-0.141 -1.1899,2.125 -1.7818,2.214 -3.7754,0.558 -2.9947,-2.485 -2.9754,-1.5 0.096,4.942 2.3602,4.95 3.8862,6.573 11.3514,7.025 2.4119,0.146 3.3319,-0.616 3.3319,-2.759 z m -3.6916,-96.234 c -1.446,-2.339 3.6795,-11.652 8.1749,-14.852 5.3153,-3.785 11.8705,-3.732 16.7881,0.137 4.3964,3.456 5.2536,9.83 1.5153,11.266 -1.3123,0.504 -4.247,-0.184 -6.5217,-1.527 -5.7568,-3.401 -7.6832,-3.095 -12.5631,1.998 -4.54,4.74 -5.9534,5.31 -7.3935,2.978 z m 56.5053,-12.849 c -1.8886,-1.888 -0.9506,-8.664 1.7709,-12.791 6.1476,-9.324 16.4329,-11.787 23.0929,-5.53 4.6943,4.41 5.8474,8.012 3.7938,11.849 -2.0537,3.838 -6.2105,3.861 -9.6548,0.05 -3.7686,-4.165 -6.2017,-3.721 -12.1421,2.22 -5.7296,5.73 -5.4795,5.577 -6.8607,4.195 z m 120.6748,-23.246 c -3.3754,-7.63 -12.7655,-18.477 -17.5819,-20.308 -2.5712,-0.979 -3.3946,-2.458 -3.4118,-6.138 -0.041,-8.44 -1.7115,-9.429 -29.114,-17.228 -11.2577,-3.204 -28.7976,-8.283 -38.9779,-11.289 -17.1243,-5.054 -19.5619,-5.41 -32.5765,-4.741 -13.3052,0.685 -27.1042,4.073 -28.9857,7.118 -1.1989,1.94 5.1616,6.873 10.4763,8.125 3.5537,0.836 -0.2248,2.009 -18.887,5.86 -24.8021,5.117 -41.0528,11.34 -44.0019,16.851 -3.1584,5.902 1.1239,13.153 10.6335,18.006 8.4821,4.33 15.1467,3.674 22.3912,-2.202 7.9146,-6.42 29.2975,-18.507 45.4121,-25.67 25.294,-12.262 63.8409,-3.805 81.9609,6.638 10.8727,6.335 33.9574,29.256 40.2011,39.916 5.1846,8.447 4.2903,10.329 4.886,-0.434 -0.029,-5.206 -0.7033,-10.513 -2.4244,-14.504 z" fill="#00B894" transform="translate(23.297096,-126.2111) matrix(0.26458333,0,0,0.26458333,-1236.4046,-3454.2803)"/>
</svg>