<?xml version="1.0" ?><svg height="167.69569mm" viewBox="0 0 155.40898 167.69569" width="155.40898mm" xmlns="http://www.w3.org/2000/svg">
    <path d="m 9865.2598,16606.48 c -2.7836,0.03 -5.5745,0.237 -8.3653,0.622 -59.5372,8.197 -85.8164,58.277 -85.8164,58.277 0,0 -12.0541,-32.466 -37.2011,-25.248 -25.1469,7.217 -36.1566,28.382 -35.8848,66.549 0.2719,38.168 -5.3008,145.086 -5.3008,145.086 l -17.1348,44.361 c 0,0 39.5805,-16.796 52.0684,-39.346 17.4734,-31.552 20.8856,-91.591 20.8856,-91.592 0,0 37.1569,116.181 120.4816,106.639 83.3248,-9.542 92.9505,-83.764 99.914,-141.338 6.6372,-54.874 -47.0477,-124.682 -103.6464,-124.01 z m 368.3102,87.891 c -1.471,-0.03 -2.948,0.169 -4.361,0.641 -11.303,3.772 -35.662,18.469 -44.627,37.381 -7.601,16.306 37.872,-0.722 54.631,-14.2 14.665,-11.792 4.659,-23.584 -5.643,-23.822 z m -54.209,99.869 c -10.981,0.142 -21.637,2.178 -30.642,4.596 l -36.957,57.455 -20.526,96.887 69.053,12.478 13.703,-51.525 c 0,0 11.315,18.069 32.059,-1.065 2.601,-2.4 17.544,-30.815 31.183,-43.748 10.166,-9.638 18.156,-17.542 18.614,-22.201 l -34.703,-12.394 c -0.746,0.607 3.261,-13.201 9.691,-18.434 -13.969,-17.264 -33.173,-22.286 -51.475,-22.049 z m -289.0172,112.022 c -31.9161,-0.06 -68.9877,10.541 -96.9297,25.752 -38.8759,21.164 -91.6153,119.763 -91.6153,119.763 l 54.4824,20.086 -6.6347,145.063 c 15.224,19.94 225.2344,31.072 226.5937,-15.781 1.3594,-46.853 8.5645,-152.18 8.5645,-152.18 l 32.5293,-43.861 c 0,0 -56.9966,-80.551 -92.7461,-93.518 -10.0546,-3.647 -21.7552,-5.302 -34.2441,-5.324 z" fill="#FFFFFF" transform="translate(-312.3669,-222.31283) matrix(0.26458333,0,0,0.26458333,-1369.7862,-3524.844) translate(-3313.5291,-2437.8203)"/>
    <path d="m 6603.0349,14770.018 c -0.8971,-3.491 1.8985,-13.793 0.1976,-47.292 -3.7375,-73.646 -8.5061,-88.524 -37.472,-144.864 -8.7602,-17.039 -17.7477,-35.554 -19.9721,-41.145 -2.2244,-5.588 -8.7926,-19.946 -14.5965,-31.904 l -10.5528,-21.743 -11.2279,4.426 c -24.4956,9.656 -43.8498,27.14 -54.1861,48.954 -12.5212,21.957 -7.0261,48.63 -7.0433,73.103 -0.045,61.341 -1.9927,131.021 -5.821,157.234 -2.6483,18.129 -9.185,20.033 -8.7404,1.504 0.607,-25.356 2.1454,-51.575 2.193,-66.581 l 0.1948,-61.98 c -7.1222,-2.893 -14.0867,-6.335 -21.3312,-8.868 -0.3559,0 -1.3511,11.356 -2.2116,25.235 -3.0196,48.703 -11.1361,93.158 -21.3653,117.024 -4.8127,11.225 -7.6153,12.665 -11.29,5.8 -1.7534,-3.278 -1.4749,-9.443 1.0382,-22.994 1.8891,-10.183 6.0075,-36.683 9.1521,-58.891 5.1986,-36.713 9.1616,-56.63 13.2096,-66.388 1.1298,-2.725 -0.9542,-4.513 -8.7168,-7.477 -8.74,-3.337 -10.2016,-4.792 -10.2016,-10.157 0,-9.622 5.7261,-23.8 19.3024,-47.797 28.5231,-50.414 56.1392,-74.517 104.594,-91.287 53.0268,-17.977 85.1752,-19 119.9845,-0.305 12.7543,7.619 19.2635,21.447 28.6125,31.621 10.648,12.084 21.7393,25.242 33.4544,34.86 7.1408,5.815 14.1349,14.037 17.0284,20.015 5.0054,8.202 5.0771,9.877 0.3718,17.489 -2.4949,4.039 -7.1251,9.773 -10.2862,12.744 -3.1612,2.97 -5.7031,6.485 -5.6471,7.813 0.1546,3.704 36.4129,33.038 49.4235,39.986 20.4348,10.91 24.5903,8.604 36.8485,-20.461 6.6716,-15.818 28.0291,-79.432 28.0291,-83.483 0,-0.795 -5.8967,-3.595 -13.1036,-6.223 -7.2069,-2.628 -14.9625,-6.832 -17.2367,-9.346 -3.9528,-4.367 -3.9696,-5.23 -0.3942,-19.636 5.432,-21.26 6.1274,-43.031 12.9614,-63.864 6.684,-19.919 23.1838,-53.598 30.5676,-62.394 9.7398,-10.925 7.8116,-12.301 6.4511,-24.522 -0.8085,-7.143 -4.0021,-23.442 -7.096,-36.217 -5.7143,-23.595 -12.4251,-67.279 -12.9066,-84.035 -0.2183,-7.602 1.4244,-11.45 9.3916,-22.003 7.3054,-9.677 10.8428,-12.622 14.5302,-12.098 7.7779,1.11 7.1945,9.746 -1.9048,28.155 -9.4912,19.205 -9.9413,11.325 4.5855,80.212 4.1622,19.74 8.1833,39.74 8.9347,44.443 1.0156,6.36 2.3191,8.369 5.0838,7.835 4.0726,-0.784 5.1834,-4.357 10.6726,-34.332 5.3267,-29.082 13.3331,-41.086 38.2201,-57.299 23.269,-15.161 36.2729,-16.369 42.6892,-3.961 4.5844,8.865 2.4747,17.115 -7.2964,28.53 -11.0623,12.923 -19.3184,16.77 -38.8909,18.116 l -16.8056,1.155 -1.4736,10.361 c -0.8096,5.7 -1.8275,15.703 -2.2609,22.23 l -0.7883,11.866 13.4586,2.774 c 35.0613,7.229 50.0192,21.92 36.7286,36.068 l -4.7702,5.078 6.4521,1.443 c 12.8842,2.884 15.4932,3.862 19.352,7.248 6.348,5.576 4.9281,14.968 -3.3123,21.902 -5.263,4.429 -7.0837,7.695 -6.6739,11.976 0.8466,8.865 -6.8496,19.259 -18.4024,24.851 -5.6772,2.748 -9.7174,5.973 -8.9806,7.163 6.0938,9.861 -13.1584,21.614 -31.3279,19.121 l -9.8115,-1.342 -1.5027,15.243 c -2.758,27.988 -11.2862,37.343 -32.0446,35.158 l -11.6737,-1.23 -1.4333,8.419 c -7.2259,42.439 -21.8155,97.042 -29.4277,110.126 -19.1694,32.954 -72.9982,11.806 -105.3854,-41.404 -5.2283,-8.587 -7.1823,0.989 -9.6682,47.368 -3.469,64.729 -6.5193,101.914 -8.676,105.768 -1.4176,2.531 -2.5049,1.864 -4.9427,-3.032 -2.4332,-4.889 -3.4511,-26.146 -4.5989,-96.006 -1.4199,-86.434 -1.6853,-90.551 -7.2237,-112.218 -10.3736,-40.584 -18.3307,-57.559 -32.7936,-69.958 -8.1199,-6.962 -10.6551,-6.357 -13.7712,3.284 -3.4349,10.628 -19.3023,50.886 -23.9018,60.643 -3.4126,7.238 -3.268,7.807 8.1217,32.09 14.0945,30.048 26.4873,71.97 29.3951,99.438 2.2136,20.911 1.6416,77.258 -1.1441,91.31 -1.5841,7.028 -10.1935,11.283 -8.9444,-2.445 z m -170.2551,-182.336 c -0.018,-22.095 0.9411,-36.503 2.7201,-40.689 6.3742,-14.999 0.018,-6.044 -16.941,23.882 -25.7495,45.427 -24.283,41.672 -16.9319,43.351 3.42,0.781 11.2652,2.734 17.434,4.339 6.1686,1.603 11.7872,3.008 12.484,3.12 0.6986,0.118 1.2537,-15.189 1.2348,-34.003 z m 261.0171,-23.091 c -1.5508,-2.898 -9.4094,-11.09 -17.4629,-18.203 -14.0643,-12.426 -14.5828,-12.674 -13.1472,-6.29 0.8219,3.656 2.9741,13.206 4.7825,21.226 1.8096,8.02 3.3258,18.704 3.3694,23.74 0.045,5.039 0.6831,9.765 1.4221,10.505 0.7402,0.739 6.4108,-4.743 12.6009,-12.182 10.3053,-12.383 11.0174,-13.97 8.4352,-18.796 z m -121.8499,-32.993 c 2.66,-6.475 8.9686,-21.125 14.0192,-32.557 5.0514,-11.433 9.1831,-21.173 9.1831,-21.644 0,-0.473 -6.8132,-1.524 -15.1416,-2.336 -13.2602,-1.297 -45.917,3.011 -49.4237,6.518 -0.4886,0.488 3.3172,7.082 8.4584,14.652 5.1412,7.571 12.9146,21.275 17.2745,30.456 4.359,9.181 8.5716,16.689 9.3602,16.688 0.7875,0 3.6091,-5.303 6.2699,-11.777 z M 6844.4985,14503 c 5.5575,-17.785 5.1566,-20.607 -3.7501,-26.377 -10.6838,-6.919 -10.6737,-14.71 0.022,-21.025 8.0557,-4.752 9.5472,-7.361 5.6034,-9.8 -1.271,-0.785 -1.6584,-5.076 -0.8914,-9.87 l 1.3561,-8.479 -12.5325,1.038 c -10.5024,0.871 -12.7789,0.397 -14.0532,-2.923 -2.0974,-5.467 3.254,-8.887 23.1502,-14.793 9.1329,-2.712 17.0721,-5.686 17.6432,-6.61 1.5106,-2.444 -20.0619,-4.995 -27.8231,-3.29 -8.1699,1.795 -11.1137,-2.037 -5.9516,-7.741 2.0862,-2.303 3.3582,-6.493 2.8532,-9.392 -0.748,-4.296 -2.0257,-2.823 -7.1419,8.227 -14.0409,30.333 -23.9431,57.92 -27.9675,77.926 -2.3426,11.65 -6.4522,25.477 -9.1307,30.728 -2.6785,5.251 -4.5485,9.863 -4.1532,10.246 0.3941,0.385 9.5483,1.127 20.3441,1.651 10.7946,0.523 20.3474,1.673 21.2298,2.555 0.8812,0.883 5.142,1.303 9.4666,0.937 7.4084,-0.63 8.0892,-1.385 11.7206,-13.008 z m 39.7398,-30.56 c 10.7532,-2.153 8.3479,-4.506 -5.1611,-5.053 -6.6929,-0.271 -15.4171,-1.423 -19.3867,-2.562 -3.9673,-1.139 -8.0814,-1.535 -9.1396,-0.882 -4.2193,2.608 -1.4579,5.253 7.61,7.282 12.1182,2.715 17.3565,2.957 26.0774,1.215 z m 23.8937,-26.885 c 9.19,-6.021 4.9584,-5.867 -8.1251,0.297 -10.0141,4.719 -10.8573,5.515 -4.8441,4.572 4.0054,-0.627 9.8406,-2.818 12.9692,-4.869 z m -3.8845,-21.205 24.0125,-11.607 -6.7299,-2.997 c -10.3635,-4.617 -14.4529,-3.846 -24.8724,4.694 -5.2977,4.339 -14.9916,11.513 -21.5411,15.94 l -11.9088,8.046 8.5136,-1.235 c 4.6818,-0.679 19.3184,-6.459 32.5261,-12.841 z m -6.2304,-30.182 c 10.1485,-10.277 11.8125,-13.037 9.8014,-16.263 -2.3538,-3.776 -35.7858,-17.945 -37.7364,-15.993 -0.5353,0.535 -1.6965,6.422 -2.58,13.082 l -1.6069,12.109 7.8407,-5.981 c 12.2458,-9.341 17.2031,-7.41 8.7074,3.389 -2.9327,3.728 -3.6639,6.524 -2.2777,8.715 1.122,1.773 2.0559,5.497 2.075,8.272 0.022,2.776 0.8264,5.047 1.7927,5.047 0.9675,0 7.2607,-5.57 13.9838,-12.377 z m -48.6274,-21.83 c 1.1187,-8.544 0.7368,-10.657 -1.9271,-10.657 -3.5183,0 -4.3929,8.11 -1.8846,17.476 1.7771,6.63 2.1365,5.987 3.8117,-6.819 z m 55.3136,-85.839 c 6.601,-3.46 20.1918,-16.449 20.1918,-19.296 0,-7.32 -39.8954,10.185 -49.4504,21.698 -3.0324,3.653 -2.3952,3.792 10.2078,2.217 7.3928,-0.924 15.9669,-3.004 19.0508,-4.619 z m -432.3555,399.869 c -1.4027,-1.749 -5.1026,-21.086 -5.8731,-38.682 -0.7571,-17.272 -2.0126,-36.616 -2.7902,-42.985 -2.1149,-14.135 -2.8979,-11.439 10.6282,-12.748 22.2944,-1.884 61.5004,-7.852 62.2754,2.638 4.0771,10.512 3.1189,18.504 5.0281,30.123 l 1.2949,27.416 c 0.9349,19.78 1.2339,30.983 -0.9367,31.505 -14.2138,3.406 -16.7606,2.812 -34.9349,3.51 -26.6885,1.027 -32.6703,1.746 -34.6917,-0.777 z m 43.7303,-8.746 16.2624,-2.512 v -22.683 -22.686 h -29.4212 -29.4229 l 1.3829,13.227 c 0.9528,12.621 0.8145,21.624 2.5792,34.065 13.0078,3.513 26.4899,2.534 38.6196,0.589 z m 14.0191,-63.148 v -8.237 -8.238 l -31.4606,0.08 c -23.7591,0.07 -31.2055,0.755 -30.4144,2.814 0.5757,1.502 1.7341,6.394 2.5747,10.874 1.1638,6.202 2.3762,7.82 5.0801,6.782 19.084,-2.643 33.5494,-2.97 54.2202,-4.078 z m -172.069,-150.167 c 0.6475,-2.776 4.4513,-17.161 8.4528,-31.965 11.7988,-34.216 8.1453,-70.845 8.8524,-106.55 2.7627,-46.799 -10.6309,-132.511 50.6717,-130.838 15.8322,0.431 22.0187,2.941 27.5613,12.055 l 3.9828,6.55 c 12.1665,-25.625 35.9947,-37.311 57.2914,-45.938 31.8997,-12.923 81.1691,-1.077 115.5771,31.111 15.8829,14.859 28.2732,37.011 32.03,57.266 3.4388,18.547 2.73,65.341 -1.2888,85.029 -7.1095,34.84 -26.8702,64.54 -55.2341,83.02 -20.2424,13.189 -31.193,16.636 -52.3083,16.469 -53.2494,-0.423 -102.9256,-38.221 -122.2681,-93.032 l -3.8238,-10.835 -5.0145,20.928 c -2.758,11.512 -7.9516,29.921 -11.5412,40.911 -3.5897,10.991 -6.1235,20.386 -5.6308,20.879 1.1006,1.1 8.5251,-9.29 13.2408,-18.529 1.9173,-3.758 4.5075,-14.203 5.7561,-23.214 1.2489,-9.011 2.8995,-17.011 3.6673,-17.779 3.549,-3.551 5.7904,6.815 5.0496,23.354 -0.6718,15.015 -1.9209,20.054 -7.2287,29.161 -7.603,13.045 -27.3991,33 -46.5869,46.961 -15.5264,11.3 -23.0959,13.078 -21.2081,4.986 z m 39.6964,-75.544 c 6.0664,-22.334 6.503,-26.919 7.4943,-78.673 1.2412,-64.82 4.5928,-84.163 16.6765,-96.247 2.3529,-2.351 2.5825,-3.638 0.7588,-4.246 -4.1055,-1.368 -13.1737,5.595 -19.2011,14.746 -10.401,15.79 -12.4656,30.36 -14.694,103.69 -1.3067,42.999 -3.3397,75.086 -5.4724,86.364 -1.8661,9.869 -3.33,18.953 -3.2533,20.189 0.3422,5.497 11.8434,-24.294 17.6912,-45.823 z m 172.8279,29.014 c 8.0004,-2.222 30.3119,-15.237 28.7682,-16.78 -0.458,-0.459 -7.388,0.774 -15.4003,2.739 -9.3134,2.283 -25.2866,3.636 -44.2889,3.751 -28.8886,0.176 -35.0661,1.331 -24.675,4.619 26.3948,8.349 40.7013,9.808 55.596,5.671 z m -75.6319,-24.13 c 0.5379,-0.925 -0.3637,-12.281 -2.0035,-25.236 -1.6398,-12.954 -3.0309,-24.179 -3.0892,-24.945 -0.063,-0.767 -7.3019,-2.101 -16.0945,-2.967 -8.7926,-0.866 -18.5227,-2.54 -21.6209,-3.719 -3.0991,-1.177 -6.0635,-1.712 -6.5888,-1.187 -0.5245,0.525 2.6079,8.029 6.9615,16.672 12.576,24.975 37.7189,49.492 42.4354,41.382 z m 63.2166,-3.034 c 32.1979,-4.153 67.3982,-14.067 69.5113,-19.576 -0.034,-9.292 -5.7262,-6.848 -15.1142,-3.488 -24.8718,8.934 -82.8026,13.278 -102.3437,7.673 l -7.5398,-2.163 c 0.8432,5.859 2.7291,11.917 2.7722,17.728 0,3.405 2.0861,3.764 17.384,3.005 9.5622,-0.476 25.46,-1.907 35.3302,-3.179 z m 3.9181,-23.254 c 31.9958,-4.259 59.514,-11.769 62.3167,-17.009 2.3202,-4.332 3.0547,-31.911 0.9093,-34.055 -0.6999,-0.701 -6.8174,0.676 -13.5957,3.058 -20.387,7.165 -55.5448,14.98 -85.9034,19.092 l -28.6434,3.881 c 1.6325,7.383 3.2831,14.761 4.8349,22.16 1.2752,6.092 1.5096,6.168 18.6332,6.126 9.5379,-0.02 28.1899,-1.49 41.4484,-3.253 z m -51.2818,-12.523 c 1.8507,-1.188 10.9353,-3.749 20.1885,-5.692 9.2533,-1.942 26.8528,-3.753 40.1669,-6.926 13.315,-3.175 24.8269,-5.265 25.4537,-4.525 6.7298,7.925 -9.6223,10.647 -21.5257,13.557 -11.4651,2.802 -54.8622,7.733 -61.0174,7.679 -3.3612,-0.03 -6.1361,-2.253 -3.266,-4.093 z m 131.2282,-24.741 c 1.374,-8.121 2.4983,-16.98 2.4983,-19.685 0,-4.721 -0.2688,-4.783 -6.5798,-1.519 -6.0614,3.134 -6.4141,3.975 -4.4859,10.698 1.1512,4.012 2.0918,12.299 2.0918,18.413 0,14.796 3.3201,10.742 6.4756,-7.907 z m -221.0293,1.889 c 0.7139,-4.022 1.9151,-17.914 2.669,-30.868 1.0906,-18.739 0.6479,-25.257 -2.1656,-31.892 -4.0385,-9.525 -4.5359,-21.853 -1.3324,-33.022 1.7463,-6.091 1.6299,-7.112 -0.561,-4.924 -3.4032,3.397 -5.3912,111.411 -2.0121,109.321 1.1571,-0.714 2.6878,-4.591 3.4021,-8.615 z m 95.3778,-5.188 c 31.0044,-4.53 88.84,-18.924 110.2042,-27.428 l 16.8235,-6.699 0.7234,-10.917 c 1.7547,-26.445 -8.6838,-52.483 -28.45,-70.973 -12.8454,-12.016 -22.0384,-14.223 -50.5796,-12.139 -18.114,1.32 -51.676,10.926 -69.2001,19.804 -21.1988,10.74 -42.7039,57.089 -44.6023,96.127 -0.5847,12.027 -0.4347,12.369 6.0275,13.755 12.0731,2.589 34.9,1.997 59.0534,-1.53 z m -10.0175,-40.303 c -2.9617,-11.802 7.5227,-25.754 19.3543,-25.754 5.628,0 15.6266,7.116 15.6266,11.121 0,7.032 -2.9438,9.008 -11.3969,7.658 -7.9952,-1.279 -8.9965,-0.837 -12.6622,5.603 -4.8188,8.466 -9.009,8.993 -10.9218,1.372 z m 77.9613,-15.764 c -5.742,-12.602 -0.3045,-27.495 10.295,-28.193 13.8197,-0.909 21.2958,4.514 20.2972,14.724 -0.6906,7.06 -1.383,7.293 -13.3231,4.456 -5.2778,-1.252 -6.2143,-0.527 -8.586,6.659 -3.1503,9.546 -5.1584,10.089 -8.6831,2.354 z m -138.332,3.766 c 1.1952,-3.945 0.8271,-5.056 -1.4297,-4.314 -1.6722,0.55 -3.3694,3.95 -3.7727,7.555 -0.8369,7.475 2.6062,5.329 5.2024,-3.241 z m 4.5359,-51.39 c -0.2927,-0.344 -3.2446,0.406 -6.5592,1.666 -6.7568,2.57 -12.4655,13.895 -14.1718,28.119 -1.0282,8.563 -0.5693,8.105 10.093,-10.095 6.1433,-10.488 10.9307,-19.348 10.638,-19.69 z m 8.5707,23.766 4.1165,-7.441 -8.0417,8.378 c -4.4237,4.608 -8.0428,9.56 -8.0428,11.003 0,3.908 7.1411,-3.217 11.968,-11.94 z m 19.349,-29.768 c 2.3609,-2.844 2.325,-3.47 -0.1986,-3.47 -1.6936,0 -6.0814,3.763 -9.7516,8.362 l -6.6723,8.364 6.8717,-4.895 c 3.7798,-2.69 8.1675,-6.453 9.7517,-8.361 z m 29.2137,-15.686 5.5731,-3.085 -8.5869,-1.61 c -7.0909,-1.332 -9.4176,-0.78 -13.3618,3.164 l -4.7747,4.774 7.7886,-0.08 c 4.2835,-0.06 10.2967,-1.466 13.3617,-3.164 z m 21.32,-8.798 c 4.0654,-2.974 4.0484,-3.15 -0.5451,-5.609 -5.901,-3.157 -7.6592,-3.162 -15.5475,-0.03 l -6.3141,2.504 7.8506,2.934 c 10.1414,3.789 9.6645,3.781 14.5561,0.205 z m 21.6506,-5.905 c 1.206,0 1.5688,-1.009 0.8054,-2.243 -0.7623,-1.232 -4.4784,-2.241 -8.2582,-2.241 -5.9431,0 -6.4828,0.467 -3.9944,3.464 1.5832,1.909 4.3123,2.918 6.0662,2.245 1.7538,-0.673 4.1758,-1.225 5.381,-1.225 z" fill="#00B894" transform="translate(-312.3669,-222.31283) matrix(0.26458333,0,0,0.26458333,-1369.7862,-3524.844)"/>
</svg>