<?xml version="1.0" ?><svg height="77.776222mm" viewBox="0 0 89.117065 77.776222" width="89.117065mm" xmlns="http://www.w3.org/2000/svg">
    <path d="m 4696.4875,13431.638 c 52.8145,-21.519 93.1946,-60.5 97.523,-119.296 4.3283,-58.795 -28.8105,-135.12 -82.2386,-138.285 -53.428,-3.165 -76.1517,-3.773 -95.0883,15.703 -18.9365,19.477 -43.6745,48.96 -44.8992,109.995 -1.2247,61.036 12.5719,108.389 62.4831,126.892 49.9112,18.503 62.22,4.991 62.22,4.991 z" fill="#FFFFFF" transform="translate(88.403784,-95.671403) matrix(0.26458333,0,0,0.26458333,-1289.4066,-3387.0477)"/>
    <path d="m 4604.6531,13454.232 c -6.5874,-3.463 -7.097,-5.585 -3.914,-16.302 4.0736,-13.719 3.5366,-17.89 -1.2218,-9.489 -3.8981,6.882 -17.0257,18.311 -21.0329,18.311 -1.1757,0 -3.6028,-1.071 -5.3939,-2.381 -2.9295,-2.142 -3.0883,-3.507 -1.5823,-13.583 l 1.6744,-11.204 -7.5163,5.298 c -5.2104,3.672 -9.5531,5.297 -14.1561,5.297 -8.8441,0 -12.2869,-3.156 -12.2869,-11.26 0,-5.482 1.8931,-8.955 11.4135,-20.942 6.2776,-7.903 12.9313,-17.345 14.7863,-20.98 3.1351,-6.147 3.184,-7.063 0.6957,-13.019 -4.7299,-11.32 -9.4409,-32.608 -10.6246,-48.008 -0.9457,-12.301 -1.7126,-15.163 -4.2821,-15.978 -3.9754,-1.261 -5.9301,-7.207 -3.3801,-10.278 1.073,-1.292 3.872,-2.833 6.2201,-3.422 2.7266,-0.684 4.2692,-2.307 4.2692,-4.491 0,-1.88 2.3249,-10.654 5.1664,-19.498 11.075,-34.473 35.5874,-67.152 61.4178,-81.883 28.1437,-16.048 76.604,-22.135 106.5219,-13.375 28.1276,8.235 54.9552,36.556 65.5451,69.192 4.0748,12.559 19.1865,30.688 51.8945,62.26 25.3837,24.503 27.1767,26.654 27.1767,32.609 0,9.477 -4.1745,18.093 -9.4004,19.405 -4.9513,1.242 -20.2595,-5.235 -35.9539,-15.214 -14.8685,-9.453 -14.2435,-9.175 -12.2623,-5.472 1.8795,3.512 16.019,16.869 27.8514,26.309 3.9572,3.157 7.1948,7.225 7.1948,9.038 0,2.584 -6.2029,13.705 -9.4615,16.964 -0.32,0.319 -4.1318,0.972 -8.4708,1.449 -9.2024,1.012 -16.3983,-2.073 -24.1742,-10.367 -4.9026,-5.229 -5.0673,-5.278 -3.8579,-1.123 1.8457,6.342 5.3491,12.798 10.014,18.457 2.2595,2.74 4.5728,6.259 5.1407,7.821 1.6602,4.565 -3.4473,10.183 -9.2567,10.183 -4.1231,0 -6.237,-1.549 -10.6346,-7.787 -3.0185,-4.282 -5.8022,-7.472 -6.1859,-7.089 -0.3836,0.384 0.9304,4.377 2.9201,8.875 4.9253,11.135 4.7102,17.358 -0.7231,20.918 -4.0162,2.631 -4.6636,2.633 -8.6676,0.01 -5.3015,-3.473 -12.5485,-17.348 -14.0874,-26.973 -0.6268,-3.919 -1.7523,-7.506 -2.5013,-7.969 -1.5603,-0.964 -4.5869,11.972 -6.2143,26.56 -0.6106,5.473 -2.2993,11.318 -3.7527,12.989 -6.142,7.061 -14.2581,1.003 -14.2581,-10.641 v -7.33 l -10.8511,7.698 c -32.5664,23.103 -62.5106,30.094 -94.1883,21.993 -7.4672,-1.91 -14.1384,-3.472 -14.8246,-3.472 -0.6864,0 -2.1654,2.214 -3.2869,4.922 -2.6228,6.332 -11.4091,15.965 -14.3441,15.726 -2.6376,-0.687 -5.0742,-1.671 -7.1539,-2.754 z m 94.2995,-38.726 c 26.7376,-11.588 51.6444,-34.464 63.0995,-57.957 13.1677,-27.004 22.6387,-83.113 16.9426,-100.372 -7.0978,-21.507 -47.8192,-41.101 -102.3862,-49.266 -21.3299,-3.191 -34.8032,-7.887 -42.8145,-14.921 l -5.8437,-5.13 -11.9462,11.819 c -19.3007,19.096 -37.0928,52.254 -41.1728,76.729 l -1.2693,7.614 4.699,-1.178 c 5.0008,-1.255 9.5756,1.222 9.5756,5.186 0,1.276 -3.6118,4.436 -8.0261,7.022 l -8.0261,4.703 1.1611,12.813 c 4.4465,49.069 35.7421,94.684 75.6577,106.602 20.7219,6.188 36.1563,2.377 50.3494,-3.664 z m -69.8887,-17.409 c -11.8169,-2.978 -23.7159,-10.199 -29.1358,-17.681 -12.6478,-17.461 -12.9211,-38.694 -0.7116,-55.327 8.0541,-10.972 11.5308,-12.695 34.576,-17.143 10.3613,-1.999 23.9874,-5.498 30.28,-7.777 6.293,-2.277 18.8662,-6.869 27.9408,-10.201 28.1669,-10.347 43.9891,-10.155 56.3307,0.681 3.2676,2.869 7.3064,8.791 8.9752,13.161 2.6544,6.949 2.7759,9.448 0.9712,19.972 -3.544,20.668 -12.4711,33.354 -33.3082,47.333 -27.8554,18.69 -75.5653,32.109 -95.9183,26.982 z m 48.1864,-25.029 c 35.0718,-11.531 58.7029,-29.417 64.2977,-48.663 1.5766,-5.424 2.4959,-10.231 2.0427,-10.685 -1.6427,-1.643 -23.8332,10.592 -24.8135,13.681 -0.6841,2.155 -2.0451,2.841 -4.247,2.144 -4.05,-1.286 -20.1844,5.49 -21.5505,9.051 -0.7143,1.861 -1.6469,2.122 -3.1626,0.882 -3.1324,-2.559 -20.5608,4.288 -21.6656,8.512 -1.0116,3.87 -3.1709,4.262 -4.493,0.817 -0.7934,-2.068 -2.1212,-2.106 -8.4326,-0.246 -4.3333,1.28 -7.7275,3.411 -8.0522,5.059 -0.6452,3.276 -2.3038,3.631 -4.8864,1.047 -1.0663,-1.065 -4.7511,-1.329 -9.0281,-0.645 -5.3961,0.863 -7.2265,1.953 -7.2265,4.304 0,4.333 -2.6403,5.579 -5.2244,2.465 -2.9116,-3.508 -13.8736,-3.473 -13.8736,0.05 0,4.352 10.8153,14.702 18.2299,17.448 10.9265,4.045 29.6177,2.172 52.0857,-5.215 z m -65.3241,-19.42 c 4.5668,-0.913 5.4256,-1.875 5.4256,-6.076 0,-5.818 4.3657,-6.911 6.0765,-1.52 1.221,3.847 1.578,3.938 9.332,2.387 4.567,-0.912 5.4257,-1.875 5.4257,-6.075 0,-5.895 4.9996,-7.035 6.4543,-1.471 0.6406,2.449 1.9118,3.241 4.1782,2.604 1.7913,-0.504 4.8644,-1.374 6.8289,-1.933 1.9645,-0.56 4.3667,-3.098 5.3382,-5.643 1.6088,-4.213 1.9613,-4.361 3.9499,-1.654 2.047,2.787 2.7431,2.793 11.1553,0.104 7.3869,-2.362 8.9723,-3.577 8.9723,-6.877 0,-4.427 1.9087,-5.017 6.6531,-2.052 4.5984,2.87 19.3897,-3.847 19.3897,-8.805 0,-3.984 1.7744,-4.575 4.7647,-1.584 1.4917,1.491 3.3201,1.436 7.3365,-0.228 4.1149,-1.705 5.105,-2.986 4.2903,-5.554 -0.9353,-2.945 -0.2873,-3.274 5.5369,-2.808 8.9939,0.72 10.0957,-4.071 2.0625,-8.969 -10.4247,-6.356 -20.37,-4.746 -58.5727,9.479 -11.0595,4.117 -29.8741,9.583 -41.8104,12.146 -27.2336,5.847 -29.8933,7.934 -30.9346,24.285 -0.7638,11.997 -0.7429,12.024 8.1471,10.246 z m 0.217,-96.411 c 0,-4.917 7.5539,-14.683 13.8929,-17.961 11.0062,-5.693 24.3032,-0.952 24.3032,8.665 0,5.75 -4.1288,7.636 -12.0761,5.516 -5.7794,-1.544 -7.518,-1.198 -14.4829,2.885 -9.5832,5.616 -11.6371,5.774 -11.6371,0.895 z m 63.3354,-9.932 c -6.2902,-13.794 18.8282,-27.198 30.7388,-16.419 7.1841,6.502 1.137,15.492 -7.361,10.945 -5.0872,-2.723 -12.1896,-0.614 -16.6693,4.949 -4.2304,5.096 -3.943,6.589 -6.7085,0.525 z" fill="#00B894" transform="translate(88.403784,-95.671403) matrix(0.26458333,0,0,0.26458333,-1289.4066,-3387.0477)"/>
</svg>