<?xml version="1.0" ?><svg height="91.467888mm" viewBox="0 0 69.418922 91.467888" width="69.418922mm" xmlns="http://www.w3.org/2000/svg">
    <path d="m 4995.8182,13190.709 c -12.0798,-10.328 -19.5291,-33.339 -19.5291,-33.339 l 25.9717,-0.241 c 0,0 10.6034,-46.929 13.9589,-54.478 3.3555,-7.55 2.9528,-7.188 12.1469,-1.208 9.1941,5.979 45.3665,36.6 45.3665,36.6 0,0 11.1403,-21.864 13.5563,-24.642 2.416,-2.778 29.2601,31.165 29.2601,31.165 l 38.5212,-10.086 8.3888,39.801 13.0865,-1.449 c 0,0 12.2812,31.164 9.2612,55.625 -3.02,24.461 -26.2401,178.533 -93.0147,189.103 -66.7747,10.569 -115.6981,16.126 -139.1195,-80.087 -23.4215,-96.212 42.1452,-146.764 42.1452,-146.764 z" fill="#FFFFFF" transform="translate(9.7630228,-59.343456) matrix(0.26458333,0,0,0.26458333,-1314.4464,-3404.8609)"/>
    <path d="m 5030.6521,13436.241 c -47.5869,-11.52 -86.134,-64.424 -90.7564,-124.56 -0.9455,-12.3 -1.7124,-15.162 -4.2821,-15.977 -3.9753,-1.262 -5.9299,-7.206 -3.38,-10.278 1.073,-1.293 3.872,-2.834 6.2202,-3.423 2.6894,-0.674 4.2691,-2.31 4.2691,-4.421 0,-6.544 9.0914,-32.371 15.9096,-45.197 7.3529,-13.831 24.3518,-37.236 28.8892,-39.775 2.3037,-1.289 1.8936,-2.346 -2.691,-6.931 -7.0708,-7.07 -13.4725,-23.745 -11.3968,-29.686 1.4091,-4.033 2.3393,-4.348 13.1212,-4.424 6.3825,-0.05 11.9689,-0.45 12.4144,-0.894 0.4453,-0.446 1.7367,-7.83 2.8696,-16.41 3.5025,-26.526 11.1802,-41.209 21.5462,-41.209 6.3177,0 15.8004,6.792 33.2516,23.816 8.34,8.137 15.2807,14.602 15.4238,14.369 0.1432,-0.233 1.6753,-4.239 3.405,-8.903 6.8873,-18.571 14.9677,-19.649 26.9602,-3.599 4.3116,5.77 9.5237,12.618 11.5827,15.218 l 3.7433,4.727 16.1525,-5.234 c 18.8346,-6.106 22.5281,-6.385 26.4931,-2.005 3.1355,3.465 6.2673,18.974 6.2837,31.12 0.013,6.533 0.3803,7.245 3.0483,5.847 12.7432,-6.678 23.4573,21.037 23.7236,61.368 0.1548,23.418 -3.6835,49.262 -13.8121,92.999 -7.1555,30.899 -17.8289,52.514 -35.1965,71.272 -32.6188,35.232 -76.0374,51.331 -113.7924,42.19 z m 52.702,-25.023 c 26.6329,-11.543 51.6502,-34.476 63.0009,-57.755 16.4824,-33.801 22.9042,-81.122 15.1326,-111.51 -6.8126,-26.637 -24.9833,-49.641 -47.2507,-59.821 -22.1696,-11.637 -34.6116,-11.746 -63.3272,-10.221 -11.8323,-0.526 -14.0115,-0.06 -26.0059,5.641 -29.2054,13.871 -59.4883,57.478 -65.6708,94.567 l -1.2695,7.615 4.6992,-1.178 c 5.0007,-1.255 9.5756,1.223 9.5756,5.185 0,1.276 -3.6119,4.435 -8.0263,7.023 l -8.0259,4.703 1.1609,12.813 c 4.4466,49.069 36.1141,93.503 75.6576,106.603 18.7309,6.205 36.1567,2.376 50.3495,-3.665 z m -69.8885,-17.411 c -11.817,-2.976 -23.7159,-10.196 -29.1358,-17.679 -12.6478,-17.46 -12.9211,-38.694 -0.7118,-55.326 8.0543,-10.973 11.531,-12.696 34.5762,-17.143 10.3612,-2 23.9874,-5.499 30.28,-7.778 6.2929,-2.277 18.8662,-6.869 27.9408,-10.202 28.1669,-10.345 43.9889,-10.154 56.3307,0.682 3.2676,2.869 7.3064,8.791 8.9751,13.161 2.6544,6.949 2.776,9.448 0.9713,19.972 -3.5441,20.667 -12.4711,33.352 -33.3082,47.332 -27.8554,18.69 -75.5653,32.111 -95.9183,26.981 z m 48.1862,-25.027 c 35.0719,-11.532 58.7028,-29.418 64.2979,-48.663 1.5766,-5.424 2.4959,-10.232 2.0425,-10.686 -1.6425,-1.641 -23.8331,10.593 -24.8132,13.682 -0.6842,2.155 -2.0452,2.841 -4.2472,2.143 -4.0499,-1.285 -20.1844,5.491 -21.5505,9.051 -0.7142,1.863 -1.6469,2.123 -3.1627,0.883 -3.1322,-2.56 -20.5607,4.288 -21.6654,8.512 -1.0118,3.87 -3.171,4.263 -4.493,0.816 -0.7936,-2.067 -2.1213,-2.104 -8.4327,-0.244 -4.3332,1.279 -7.7274,3.41 -8.0521,5.059 -0.6452,3.275 -2.3039,3.629 -4.8865,1.046 -1.0664,-1.066 -4.751,-1.329 -9.0282,-0.646 -5.3959,0.863 -7.2264,1.954 -7.2264,4.304 0,4.334 -2.6402,5.58 -5.2244,2.467 -2.9115,-3.508 -13.8738,-3.473 -13.8738,0.05 0,4.351 10.8155,14.702 18.2301,17.447 10.9266,4.044 29.6178,2.172 52.0856,-5.215 z m -65.324,-19.42 c 4.5669,-0.913 5.4255,-1.875 5.4255,-6.076 0,-5.818 4.3658,-6.91 6.0767,-1.519 1.221,3.846 1.5779,3.937 9.332,2.387 4.567,-0.913 5.4256,-1.875 5.4256,-6.077 0,-5.895 4.9997,-7.034 6.4544,-1.471 0.6406,2.451 1.9117,3.242 4.178,2.605 1.7914,-0.504 4.8646,-1.374 6.8289,-1.932 1.9645,-0.561 4.3668,-3.1 5.3383,-5.644 1.6089,-4.212 1.9613,-4.361 3.9497,-1.654 2.0471,2.787 2.7433,2.793 11.1556,0.103 7.3869,-2.361 8.9722,-3.577 8.9722,-6.876 0,-4.427 1.9088,-5.016 6.653,-2.054 4.5984,2.872 19.3898,-3.844 19.3898,-8.802 0,-3.985 1.7743,-4.575 4.7648,-1.584 1.4916,1.491 3.32,1.433 7.3362,-0.229 4.1151,-1.704 5.1052,-2.985 4.2905,-5.553 -0.9352,-2.946 -0.2873,-3.276 5.537,-2.809 8.9939,0.719 10.0957,-4.071 2.0625,-8.968 -10.4248,-6.356 -20.3701,-4.748 -58.5727,9.478 -11.0596,4.117 -29.8743,9.584 -41.8105,12.146 -27.2336,5.846 -29.8932,7.934 -30.9345,24.285 -0.7639,11.998 -0.7429,12.024 8.147,10.247 z m 0.217,-96.41 c 0,-4.919 7.5538,-14.685 13.8929,-17.963 11.0063,-5.691 24.3033,-0.95 24.3033,8.664 0,5.752 -4.1288,7.638 -12.0761,5.516 -5.7794,-1.542 -7.518,-1.196 -14.4829,2.886 -9.5834,5.617 -11.6372,5.774 -11.6372,0.897 z m 61.527,-11.193 c -6.2903,-13.795 20.6367,-25.939 32.5472,-15.158 7.1841,6.501 1.1368,15.491 -7.3609,10.945 -5.0872,-2.725 -12.1897,-0.615 -16.6694,4.948 -4.2301,5.095 -5.7513,5.329 -8.5169,-0.735 z m 120.0995,-33.849 c -1.4182,-17.007 -4.2009,-30.67 -6.5406,-32.115 -0.9483,-0.586 -3.5531,0.652 -5.7885,2.752 -4.8128,4.659 -3.5168,4.654 -7.0184,-0.69 -1.9393,-2.96 -3.3827,-10.175 -4.2014,-21.001 -0.6862,-9.07 -1.6351,-16.88 -2.109,-17.355 -1.1123,-1.111 -25.9527,7.317 -28.2074,9.571 -0.9426,0.943 -3.5881,1.714 -5.8786,1.714 -4.883,0 -11.7194,-6.841 -21.6723,-21.687 -3.8464,-5.738 -7.3168,-10.811 -7.7117,-11.274 -1.4002,-1.642 -7.3017,7.897 -9.5174,15.384 -4.1041,13.866 -8.9111,12.127 -34.1949,-12.373 -10.5939,-10.265 -20.4252,-18.664 -21.8474,-18.664 -4.4372,0 -8.1658,12.185 -10.588,34.597 -1.5748,14.574 -3.1997,22.444 -5.0065,24.251 -1.9365,1.937 -5.7541,2.584 -13.8329,2.344 l -11.1583,-0.331 2.6756,7.852 c 1.4713,4.318 4.5089,9.055 6.75,10.522 3.8306,2.51 4.6765,2.304 14.131,-3.424 10.7412,-6.508 22.2866,-10.237 40.4397,-13.06 6.2068,-0.965 17.1313,-3.026 24.2764,-4.581 19.4298,-4.227 39.8787,-1.055 59.9287,9.294 15.5898,8.049 32.921,25.333 40.9279,40.815 3.272,6.328 6.2568,11.509 6.6328,11.512 0.3761,0 0.1561,-6.32 -0.4888,-14.053 z" fill="#00B894" transform="translate(9.7630228,-59.343456) matrix(0.26458333,0,0,0.26458333,-1314.4464,-3404.8609)"/>
</svg>