<?xml version="1.0" ?><svg height="97.229279mm" viewBox="0 0 68.528793 97.229279" width="68.528793mm" xmlns="http://www.w3.org/2000/svg">
    <path d="m 4617.5513,12641.627 c 0,0 -41.8468,-44.31 -49.8211,-92.703 -7.9743,-48.393 -18.2896,-91.057 11.2665,-112.916 29.5561,-21.859 63.2822,10.403 87.0588,8.691 23.7766,-1.712 55.6006,-14.748 76.6703,-18.04 21.0697,-3.292 34.3115,16.131 40.9689,26.204 6.6574,10.074 10.608,76.572 -0.6584,108.373 -11.2665,31.801 -19.5334,60.112 -24.8008,90.07 -5.2675,29.957 -25.5324,99.484 -38.4084,98.694 -12.8759,-0.79 -24.435,-86.054 -37.0914,-89.741 -12.6565,-3.687 -22.8255,109.032 -34.8967,110.612 -12.0712,1.581 -30.5803,-27.982 -30.7998,-56.491 -0.2195,-28.508 0.5121,-72.753 0.5121,-72.753 z" fill="#FFFFFF" transform="translate(43.335871,75.82896) matrix(0.26458333,0,0,0.26458333,-1247.0194,-3360.2672)"/>
    <path d="m 4639.7899,12779.332 c -8.1844,-3.311 -16.4509,-15.589 -21.6686,-32.187 -4.1736,-13.274 -5.0664,-21.251 -5.0664,-45.273 0,-16.039 0.7287,-34.713 1.6192,-41.5 l 1.6192,-12.336 -8.8231,-3.722 c -6.7342,-2.841 -11.2286,-7.441 -18.9835,-19.428 -11.6777,-18.052 -12.4636,-19.904 -22.5456,-53.118 -14.8652,-48.971 -17.2568,-61.203 -16.4474,-84.118 0.647,-18.323 1.6959,-23.192 7.482,-34.729 12.6541,-25.235 33.1943,-39.296 57.4005,-39.296 8.076,0 15.8908,2.549 32.6588,10.654 19.6938,9.521 18.1568,9.795 31.2092,9.614 10.1051,-0.135 20.8329,-2.355 34.7974,-7.183 35.2821,-12.194 51.239,-12.63 66.3154,2.474 16.8987,16.93 22.8819,35.319 21.7134,76.055 -0.5077,17.705 -1.8362,27.473 0.4602,27.713 11.6749,1.222 7.2427,20.435 -4.6891,20.874 -4.371,0.161 -4.5885,11.976 -11.2038,25.479 -12.9548,26.443 -16.6368,41.708 -16.6657,69.094 -0.037,34.846 -11.8742,70.756 -31.8679,96.672 -17.3413,22.477 -32.4993,17.574 -36.5518,-11.826 -1.4712,-10.672 -13.9262,-58.354 -16.331,-62.52 -2.105,-3.647 -6.9292,8.552 -9.213,23.295 -1.2423,8.02 -2.8715,23.666 -3.6207,34.77 -1.8254,27.057 -4.6169,36.46 -13.446,45.289 -7.6972,7.698 -10.2687,8.441 -18.1517,5.253 z m 6.7866,-22.105 c 0.7138,-2.25 2.2631,-16.13 3.4428,-30.845 2.224,-27.739 5.3446,-41.037 13.2809,-56.593 5.8683,-11.504 12.4526,-16.146 22.8987,-16.146 6.4194,0 9.0703,1.306 12.1245,5.966 3.5499,5.419 11.7582,41.623 15.588,68.755 1.8933,13.413 4.5544,12.84 14.1366,-3.045 15.4111,-25.547 19.6033,-42.846 22.6698,-93.555 3.7578,-38.063 15.4499,-46.761 22.7236,-76.733 0,-0.966 -3.8859,-2.377 -8.6353,-3.137 -10.2976,-1.647 -21.0347,-9.456 -20.059,-14.588 0.5549,-2.918 4.3747,-3.902 18.6218,-4.795 l 17.9236,-1.12 c 3.1124,-21.848 2.8888,-46.002 -1.4308,-62.994 -4.0078,-13.951 -11.2915,-27.52 -23.5334,-31.021 -6.7007,-1.915 -23.1282,-2.065 -39.7618,3.061 l -16.6638,5.135 c 4.1082,1.995 8.6811,0.821 17.5163,0.264 17.0121,-1.073 2.8819,10.065 -9.2314,12.632 -12.6025,2.67 -52.9097,-6.527 -76.7683,-17.197 -16.8061,-7.515 -17.9886,-7.727 -28.7738,-5.139 -14.0316,3.366 -28.6803,14.216 -34.1053,25.262 -3.6973,7.527 -3.8749,10.377 -1.6693,26.766 1.3575,10.088 6.4337,29.998 11.2803,44.246 4.8466,14.246 11.529,34.987 14.8498,46.092 7.5438,25.223 18.8344,47.978 28.4108,57.26 4.7814,4.632 6.3665,7.497 4.5413,8.201 -2.055,0.796 -2.8038,9.346 -2.8038,32.016 0,25.53 0.9705,34.755 5.56,52.848 7.1686,28.259 14.3098,39.613 17.8672,28.404 z m 12.4646,-177.885 c -12.9509,-5.165 -24.6762,-22.578 -24.6762,-36.645 0,-8.871 3.3123,-10.682 5.2702,-2.88 0.6985,2.782 5.4006,9.091 10.4492,14.019 9.9224,12.123 19.6561,9.965 30.6101,8.355 14.5454,-2.14 28.9299,-7.965 20.0878,7.174 -2.3546,4.033 -9.6872,8.129 -12.7039,9.655 -6.5087,3.293 -21.1764,3.457 -29.0372,0.322 z m 24.5471,-58.282 c -3.0584,-5.715 -0.9322,-19.065 3.2949,-20.689 8.0996,-3.107 17.2164,12.176 12.5092,20.972 -3.1847,5.95 -12.5579,5.783 -15.8041,-0.283 z m 34.5591,-1.449 c -3.5164,-2.29 -4.2797,-7.192 -2.2925,-14.721 1.259,-4.774 2.8237,-6.143 6.4047,-5.61 6.9479,1.037 9.9591,7.047 7.3077,14.586 -2.2579,6.419 -6.8415,8.726 -11.4199,5.745 z" fill="#00B894" transform="translate(43.335871,75.82896) matrix(0.26458333,0,0,0.26458333,-1247.0194,-3360.2672)"/>
</svg>