<?xml version="1.0" ?><svg height="234.28023mm" viewBox="0 0 348.41275 234.28023" width="348.41275mm" xmlns="http://www.w3.org/2000/svg">
    <path d="m 46605.217,6452.9336 c -30.22,0.5568 -76.621,18.1477 -80.117,74.4844 -3.996,64.3847 33.747,79.5493 58.156,87.7382 28.597,3.4664 80.881,-15.2953 90.799,-66.8984 9.918,-51.6031 -29.174,-90.1646 -57.049,-94.584 -3.485,-0.5524 -7.472,-0.8198 -11.789,-0.7402 z m 506.562,76.1191 c -7.967,0.06 -15.948,3.8505 -21.677,9.6348 -11.458,11.5684 -13.769,25.9104 -3.418,40.9883 8.04,11.1352 22.674,9.9214 32.255,4.5488 9.581,-5.3726 25.806,-24.1338 14.444,-42.418 -5.681,-9.1421 -13.636,-12.8134 -21.604,-12.7539 z m -374.134,18.1993 c -12.836,0.3615 -28.344,9.567 -40.53,19.248 -15.599,12.3917 -8.616,11.1771 -2.935,22.5723 6.885,21.837 52.572,-7.7541 58.734,-12.6934 6.163,-4.9393 8.667,-20.4522 -5.246,-27.168 -3.044,-1.469 -6.429,-2.0602 -10.023,-1.9589 z m 222.517,39.8906 c -6.388,0.054 -11.778,4.5192 -11.697,14.9043 -1.734,10.8318 13.287,11.612 21.279,7.2793 7.992,-4.3327 3.081,-19.1955 -5.055,-21.5352 -1.525,-0.4387 -3.053,-0.6609 -4.527,-0.6484 z m 97.678,28.0176 c -6.981,-0.056 -14.049,2.4586 -18.82,7.4863 -12.137,16.7541 1.485,30.6453 16.066,32.4648 14.579,1.8196 30.644,-17.0941 22.691,-29.7832 -4.224,-6.7411 -12.025,-10.1048 -19.937,-10.1679 z m 92.717,0.016 c -3.201,0.08 -5.774,1.9762 -7.641,5.7051 1.588,10.0953 3.802,5.8909 12.949,8.4472 9.147,2.5563 12.566,-4.2893 4.574,-10.1386 -3.746,-2.7419 -7.058,-4.0842 -9.882,-4.0137 z m -571.239,23.0859 c -9.89,-0.3714 -20.421,0.8274 -29.802,3.3555 -25.016,6.7416 -62.332,42.0566 -62.332,42.0566 0,0 -46.252,-1.9779 -60.547,2.9082 -14.294,4.8862 -112.63,44.9172 -132.01,58.9571 -19.381,14.0399 -43.849,17.5652 -63.092,54.6132 -6.412,43.4261 4.669,69.3532 66.453,197.3204 61.783,127.9672 182.119,142.872 295.377,165.4472 113.259,22.5752 193.058,11.476 351.194,5.1055 158.135,-6.3706 241.528,-133.0215 278.021,-178.7285 36.493,-45.707 69.166,-101.0128 81.467,-160.5742 12.302,-59.5614 -36.082,-79.3912 -53.057,-84.834 -16.975,-5.4428 -161.158,-10.2682 -176.484,-12.9278 -15.325,-2.6595 -30.033,14.9688 -30.033,14.9688 0,0 -23.049,-25.9083 -35.213,-26.0938 -12.164,-0.1855 -38.899,12.8653 -38.899,12.8653 l -38.898,-15.0918 c 0,0 8.591,-39.0266 5.086,-49.7266 -3.505,-10.7 -21.51,-20.4102 -38.279,-18.5547 -16.769,1.8555 -38.968,4.9472 -40.411,11.627 -1.444,6.6798 5.155,53.4375 5.155,53.4375 0,0 -84.465,-4.0202 -112.436,-0.3711 -27.971,3.6492 -44.92,21.5449 -44.92,21.5449 0,0 -2.954,-9.4635 -9.758,-14.3496 -6.804,-4.8862 -32.644,0.5566 -32.644,0.5566 0,0 -3.918,-13.298 -10.24,-22.1425 -6.323,-8.8446 -26.391,-2.5977 -26.391,-2.5977 0,0 -4.054,-26.0389 -11.477,-42.7383 -4.638,-10.4372 -19.345,-15.4141 -35.83,-16.0332 z m 572.793,31.9004 c -7.048,-0.084 -14.36,2.6168 -17.812,7.5195 -8.425,22.0104 5.583,20.7123 18.101,24.0918 12.517,3.3796 21.279,-14.2118 14.924,-24.4804 -2.979,-4.8134 -8.993,-7.0567 -15.213,-7.1309 z" fill="#FFFFFF" paint-order="markers stroke fill" transform="translate(133.72524,-69.569164) matrix(0.31583799,0,0,0.31583799,-14731.451,-1966.1507)"/>
    <path d="m 46605.539,6445.457 c -23.448,0.1107 -47.329,9.302 -61.975,22.541 -21.897,19.7936 -27.886,37.5755 -27.976,64.2168 -0.08,23.3117 2.94,35.9061 12.197,50.8829 8.055,13.0314 28.266,31.3121 40.506,36.6386 5.233,2.2761 17.676,4.1785 27.658,4.2285 14.566,0.072 21.142,-1.6277 33.33,-8.6191 17.404,-9.9829 38.509,-31.6592 45.885,-47.125 2.777,-5.8217 6.637,-15.5254 6.637,-15.5254 14.392,0.7587 11.192,-12.6502 0.81,-15.0898 0,0 -0.347,-5.7817 -1.107,-14.92 -1.969,-23.7595 -18.986,-55.3071 -36.316,-66.5351 -11.669,-7.5581 -25.58,-10.7598 -39.649,-10.6934 z m 2.213,13.0996 c 12.684,0.4692 24.65,4.4664 33.728,12.4688 9.903,9.4893 21.629,35.4178 23.03,50.2558 0.856,9.0394 0.646,12.0977 0.646,12.0977 -9.268,-1.2101 -12.878,7.1518 -2.822,11.6719 3.979,1.7884 -6.07,3.0873 -17.994,0.3847 -34.391,-7.7948 -56.834,29.3322 -34.559,49.6661 9.221,8.5857 13.574,6.1916 1.315,10.8554 -19.656,7.477 -46.49,-0.9947 -60.227,-19.0058 -18.526,-24.2882 -23.915,-62.0316 -14.154,-85.3282 11.754,-28.0539 43.133,-44.0985 71.037,-43.0664 z m 46.275,49.6973 c -1.345,-0.1819 -2.742,0.1863 -4.041,1.2637 -4.412,3.6616 -5.518,12.3962 -2.015,15.9004 3.683,3.683 11.378,0.5513 12.461,-5.0723 1.167,-6.0599 -2.372,-11.546 -6.405,-12.0918 z m -24.769,2.4414 c -6.284,0 -9.399,7.5949 -6.354,15.5235 3.16,8.2359 12.362,3.4047 12.362,-6.4903 0,-6.9948 -1.356,-9.0332 -6.008,-9.0332 z m 480.48,10.9258 c -17.992,2.1225 -35.236,20.0949 -35.236,41.5293 0,11.4065 9.112,25.2766 19.318,29.4004 23.395,9.4527 53.276,-10.4443 53.256,-35.4473 -0.02,-11.5566 -9.884,-26.8324 -21.076,-32.6191 -2.76,-1.4272 -5.635,-2.3316 -8.553,-2.7656 -2.552,-0.3798 -5.138,-0.4009 -7.709,-0.098 z m 2.112,9.3496 c 2.565,0.588 5.25,3.1431 10.287,8.5449 12.496,13.4053 13.127,26.0112 1.826,36.4844 -11.155,10.339 -25.813,10.01 -34.291,-0.7695 -4.462,-5.6638 -5.879,-10.5574 -4.621,-15.8789 2.466,-10.4236 11.174,-22.0109 19.986,-26.5977 1.655,-0.8615 2.991,-1.47 4.205,-1.748 0.911,-0.2085 1.753,-0.2312 2.608,-0.035 z m -378.125,11.3047 c -8.229,0.025 -16.237,1.991 -21.409,6.2949 -2.906,2.4188 -10.046,7.5498 -15.869,11.4024 -6.619,4.3792 -10.875,9.8026 -11.363,14.4687 -0.956,9.1538 11.227,31.2584 17.939,32.5508 2.695,0.519 12.462,-3.8937 21.7,-9.8047 9.242,-5.911 18.648,-10.7461 20.904,-10.7461 2.257,0 12.459,-3.2608 16.266,-10.2402 l 10.931,0.8222 c -1.805,9.2524 0.595,12.9251 2.26,13.9532 1.662,1.0281 3.023,5.4252 3.023,9.7714 0,10.5886 -24.408,77.4182 -35.282,90.5681 -11.593,14.7034 -34.856,3.6079 -42.533,0.3213 -29.34,-9.2492 -63.889,-19.1547 -75.706,-34.6182 -15.719,-20.5699 -38.542,-29.5503 -59.979,-27.3376 -20.604,2.1265 -56.75,16.9895 -77.543,45.285 0,0 -9.536,0.1487 -28.123,-0.5252 -22.824,-0.8274 -62.577,11.4719 -116.732,36.1133 -110.705,50.3729 -131.931,73.3923 -120.381,130.5449 8.788,43.4685 37.339,108.1057 77.459,175.3477 46.147,77.3411 87.431,109.4527 172.502,134.1757 34.778,10.1072 130.802,27.4196 182.316,32.8692 75.809,8.0196 259.861,2.4341 333.067,-10.1074 108.31,-18.5555 172.755,-71.3928 279.609,-229.2422 48.011,-70.9256 57.397,-92.981 55.061,-129.4063 -2.443,-38.0569 -20.999,-60.3745 -61.94,-74.5019 -21.386,-7.3793 -23.331,-7.53 -130.994,-10.1172 -25.801,-0.62 -50.638,-2.5449 -55.195,-4.2774 -8.62,-3.278 -21.063,-0.4698 -24.815,5.6016 -1.2,1.9428 -5.971,-0.9897 -11.992,-7.373 -8.492,-9.0048 -12.006,-10.6016 -23.336,-10.6016 -9.003,0 -16.676,2.2856 -23.605,7.0352 -9.945,6.8134 -10.444,6.8628 -15.795,1.5136 -3.905,-3.9067 -10.045,-5.5254 -20.969,-5.5254 -13.161,0 -15.161,-0.7447 -13.517,-5.0293 1.061,-2.7662 3.52,-14.2976 5.462,-25.6269 3.403,-19.8439 3.275,-20.8764 -3.562,-28.1524 -3.902,-4.154 -11.855,-9.1233 -17.67,-11.0429 -16.532,-5.4558 -46.701,-4.3599 -60.096,2.1816 -12.864,6.2822 -13.321,8.3199 -9.209,41.1563 l 2.174,17.3398 -47.654,-1.8809 c -26.21,-1.0353 -48.059,-2.2087 -48.549,-2.6074 -0.492,-0.3986 4.744,-13.4798 11.635,-29.0683 6.892,-15.5886 15.863,-38.8185 19.939,-51.6231 5.045,-15.8499 9.208,-23.8508 13.037,-25.0664 3.094,-0.982 6.424,-3.8631 7.397,-6.4004 0.973,-2.5379 3.249,-3.6971 5.06,-2.5781 1.81,1.119 4.235,0.5153 8.674,-3.6836 4.439,-4.1989 3.815,-8.1035 3.815,-8.1035 7.643,-0.318 16.787,2.3578 17.955,-3.9688 1.217,-6.5913 -11.505,-7.2146 -17.912,-8.2441 -0.113,-15.6764 -15.702,-1.7455 -15.451,-8.4883 0.265,-7.1499 -9.399,-9.4466 -13.879,-2.7031 -5.386,8.106 -4.203,2.5426 -10.955,-2.334 -5.183,-3.7425 -12.923,7.8803 -14.952,13.6563 l -11.082,-1.7637 c -2.204,-14.3956 -11.152,-17.9435 -21.931,-19.5762 -2.695,-0.4082 -5.462,-0.6158 -8.205,-0.6074 z m 368.066,1.8242 c -4.681,0 -12.921,14.4806 -10.482,18.4238 1.522,2.4616 3.924,1.3311 7.752,-3.6464 6.086,-7.9127 7.354,-14.7774 2.73,-14.7774 z m -359.088,10.2051 c 0.598,-0.038 1.303,-0.1351 2.135,0.3789 1.665,1.0282 3.025,2.4695 3.025,3.2031 0,0.7335 -1.36,1.334 -3.025,1.334 -8.247,0.1456 -15.879,-0.085 -22.504,0 -6.11,0 -7.388,3.3709 -1.093,7.9728 5.908,3.8396 15.63,3.1026 22.801,3.2995 1.987,0.01 2.391,2.6378 -0.91,2.4746 -8.114,-0.2652 -16.459,-3.2749 -23.525,-0.5262 -7.083,2.7553 -6.546,7.7616 -1.656,10.5059 5.829,3.2712 6.245,2.452 -1.406,7.4648 -10.749,7.0442 -13.171,6.4944 -18.727,-4.2461 -4.471,-8.6457 -4.445,-9.7781 0.348,-15.0742 5.875,-6.4906 17.041,-13.3894 23.115,-15.0449 1.215,-0.3311 2.832,-0.5513 3.566,-0.5984 z m 222.547,29.1113 c -8.463,0 -17.035,5.0628 -20.945,12.3711 -2.556,4.778 -2.214,7.8522 1.513,13.5391 8.461,12.9139 26.916,8.3065 32.725,-8.1719 2.381,-6.7521 -5.851,-17.7383 -13.293,-17.7383 z m -9.135,9.8692 c 0.686,-0.026 1.43,0.099 2.219,0.4023 2.616,1.0044 6.102,1.8262 7.744,1.8262 1.645,0 2.555,3.0496 2.022,6.7754 -1.165,8.1723 -9.132,10.3675 -14.436,3.9785 -4.36,-5.2549 -2.35,-12.8013 2.451,-12.9824 z m 97.155,15.5683 c -3.159,-0.088 -6.038,1.2356 -11.469,3.8906 -9.345,4.5679 -11.302,7.1966 -12.059,16.1993 -0.996,11.8651 7.551,25.6347 18.713,30.1445 21.935,8.8628 42.165,-8.7901 34.68,-30.2617 -2.311,-6.6331 -7.044,-10.9979 -16.701,-15.3965 -6.561,-2.9889 -10.004,-4.4882 -13.164,-4.5762 z m 101.332,1.9688 c -4.431,0.028 -8.873,1.6022 -11.987,4.7168 -6.513,6.5142 -4.752,13.7367 4.496,18.416 9.521,4.8163 9.415,4.8217 17.45,-0.8067 7.913,-5.5433 8.54,-11.1868 1.968,-17.7578 -3.075,-3.0751 -7.495,-4.5945 -11.927,-4.5664 z m -98.606,6.9863 c 2.044,0.038 4.136,1.2135 7.705,3.5527 8.955,5.8677 10.828,20.7248 2.99,23.7325 -9.046,3.472 -16.052,1.8218 -20.75,-4.8868 -6.501,-9.2817 -5.918,-13.5181 2.641,-19.125 3.375,-2.2113 5.37,-3.311 7.414,-3.2734 z m 95.529,0.25 c 1.079,0.01 2.29,0.2847 3.424,0.7422 2.269,0.9148 4.235,2.5561 4.235,4.2558 0,1.4856 -2.721,2.7012 -6.049,2.7012 -5.896,0 -7.88,-3.2067 -4.239,-6.8476 0.606,-0.6057 1.551,-0.8613 2.629,-0.8516 z m -102.4,11.2422 c -1.488,0.6604 -2.179,3.322 -0.801,6.9121 0.984,2.567 3.192,4.668 4.91,4.668 3.834,0 3.909,-3.1319 0.205,-8.9864 -0.871,-1.3774 -1.78,-2.1948 -2.615,-2.5468 -0.623,-0.2605 -1.205,-0.266 -1.699,-0.047 z m -478.9,14.9101 c 2.645,-0.058 5.498,0.1103 8.863,0.4336 13.295,1.2773 17.161,3.127 24.224,11.5918 12.5,14.9716 13.275,25.7373 4.51,62.6524 -4.229,17.8103 -8.643,37.0932 -9.814,42.8496 -3.132,15.4257 -13.025,27.3379 -22.697,27.3379 -9.389,0 -22.829,9.5802 -25.573,18.2265 -2.352,7.4138 -21.025,8.5361 -23.754,1.4278 -0.957,-2.4976 -6.383,-7.7865 -12.816,-9.8223 -14.507,-4.5909 -13.461,-0.6104 -9.234,-29.4824 1.014,-13.3114 5.276,-34.8027 9.47,-47.7578 8.876,-27.4073 9.095,-29.3731 3.258,-29.3731 -10.777,0 -34.737,66.6759 -34.896,97.0528 -0.04,8.7208 -1.592,11.5592 -7.889,14.4277 -6.514,3.4968 -7.577,1.9142 -5.816,-9.3438 8.092,-51.7413 24.638,-95.3315 45.316,-119.4004 6.451,-7.5108 18.919,-16.6566 30.414,-22.3164 12.433,-6.1209 18.499,-8.3287 26.434,-8.5039 z m 323.236,10.8125 c 17.822,-0.03 36.98,5.8084 34.139,10.4043 -0.908,1.4703 -12.8,2.4866 -26.424,2.2598 -28.418,-0.4725 -38.385,-1.9368 -38.385,-5.6426 0,-4.1796 12.281,-6.9905 30.67,-7.0215 z m 260.76,7.1211 c -10.371,-0.5753 -21.395,5.8484 -24.008,19.7735 -2.249,12.0021 3.77,21.3692 14.922,23.209 15.825,2.6115 29.172,-6.8891 29.172,-20.7637 0,-14.07 -9.716,-21.6435 -20.086,-22.2188 z m -289.17,9.668 16.26,4.3242 c 8.944,2.3781 24.09,3.9235 33.658,3.4356 19.425,-0.9906 19.078,-1.5251 14.097,21.705 -2.686,12.5152 -4.949,26.178 -13.031,29.7911 -10.774,4.8165 -25.442,4.3939 -32.107,3.5507 -9.213,-1.1653 -12.402,-9.7052 -12.951,-12.5996 -1.12,-5.9084 -1.484,-6.8479 -3.952,-30.9297 z m 286.06,2.6074 c 4.605,0.025 8.933,1.7332 10.991,5.5781 4.049,7.5657 4.001,7.9714 -1.622,13.5938 -8.479,8.479 -25.492,3.5477 -25.492,-7.3887 0,-5.7544 5.408,-9.8696 11.5,-11.2636 1.523,-0.3485 3.088,-0.528 4.623,-0.5196 z m -516.127,9.0684 c 1.398,-0.3077 3.541,0.4951 6.522,2.3847 3.219,2.0398 3.016,2.9483 -1.004,4.4903 -7.036,2.7004 -7.566,2.5181 -7.566,-2.6035 0,-2.5458 0.651,-3.9639 2.048,-4.2715 z m -167.408,5.4687 c 5.236,0.128 7.251,2.2792 5.213,6.0879 -2.333,4.3564 -6.263,5.7296 -15.988,5.5821 -17.581,-0.2658 -32.288,7.737 -34.494,18.7714 -1.222,6.1021 -4.067,9.2822 -9.543,10.6563 -4.291,1.0773 -11.619,4.6762 -16.28,7.9961 -7.805,5.5571 -9.014,5.6607 -15.224,1.3105 -3.709,-2.5987 -12.704,-4.7246 -19.985,-4.7246 -11.024,0 -14.962,1.7191 -23.523,10.2813 -6.019,6.0194 -10.283,13.3144 -10.283,17.5918 0,5.9949 -2.955,8.5308 -16.451,14.125 -23,9.5333 -43.282,28.0244 -45.87,41.8203 -4.162,22.181 13.292,38.8761 64.069,61.2773 24.123,10.6427 115.863,36.3692 129.691,36.3692 2.801,0 11.138,3.5405 18.526,7.8691 12.111,7.0985 18.096,8.1565 61.027,10.7773 26.178,1.5981 67.329,6.4112 91.451,10.6973 24.118,4.2861 55.422,8.2878 69.561,8.8926 14.14,0.6049 53.609,2.4669 87.709,4.1367 110.854,5.4287 159.069,4.0219 145.681,-4.2519 -3.049,-1.8847 -38.98,-5.1924 -128.857,-11.8614 l -48.201,-3.5761 30.052,-23.0372 c 52.36,-40.1335 73.953,-59.24 133.643,-118.2617 32.196,-31.837 58.219,-55.3698 58.219,-52.6484 0,7.6351 5.174,5.7966 7.277,-2.5859 2.01,-8.0059 15.526,-16.6895 25.979,-16.6895 7.998,0 20.537,12.3659 24.726,24.3809 3.833,11.0021 11.986,10.9036 14.602,-0.1739 1.076,-4.5521 5,-8.6522 9.949,-10.3925 6.993,-2.4602 9.494,-1.6059 17.353,5.9238 7.263,6.9544 8.812,10.501 7.401,16.9258 -2.402,10.9319 3.44,13.8895 11.842,5.9961 8.052,-7.5645 14.647,-8.0278 24.297,-1.7051 6.437,4.2179 7.578,4.1979 11.99,-0.2149 2.683,-2.6825 4.879,-6.0448 4.879,-7.4707 0,-6.1101 10.325,-12.0976 20.861,-12.0976 12.882,0 24.506,9.7101 24.506,20.4726 0,5.1253 -2.361,6.8697 -11.342,8.377 -21.147,3.5501 -30.785,7.824 -38.607,17.123 -4.292,5.1013 -7.386,11.4747 -6.873,14.1641 1.402,7.365 14.104,7.8062 21.613,0.7519 13.553,-12.7322 44.283,-10.9858 44.283,2.5157 0,6.6557 7.661,15.2304 13.609,15.2304 6.875,0 13.61,-9.0118 13.61,-18.2168 0,-5.9815 -3.319,-11.9331 -10.586,-18.9921 -6.273,-6.0918 -10.606,-13.2358 -10.606,-17.5352 -0.01,-3.9906 -2.668,-11.3737 -6.027,-16.3281 -4.195,-6.1885 -2.998,-8.7233 1.693,-9.6699 3.225,-0.6506 8.628,-0.6614 15.696,0.5097 14.436,2.3913 15.504,4.3092 6.802,12.1836 -3.665,3.3177 -6.044,9.3159 -6.044,15.2246 0,7.9769 1.642,10.4304 9.048,13.4981 4.979,2.0607 12.125,2.9771 15.879,2.0312 6.59,-1.6604 6.624,-1.5682 0.957,2.666 -3.229,2.4124 -7.654,4.3868 -9.832,4.3868 -2.177,0 -3.957,1.36 -3.957,3.0234 0,4.6152 14.498,3.6048 25.897,-1.8047 11.775,-5.5953 14.536,-11.8633 11.734,-26.7949 -2.465,-13.1332 0.1,-13.4026 16.246,-1.7051 20.085,14.5501 23.193,21.6301 23.246,52.0859 0.04,24.8986 -10.344,46.7424 -25.242,75.7637 -21.061,41.03 -31.213,56.6786 -61.33,94.5215 -19.85,24.9432 -45.57,55.7909 -57.154,68.5508 -65.095,71.6883 -148.403,101.5337 -269.108,109.5801 0,0 -3.484,0.2314 -5.226,0.3476 -65.534,4.3685 -129.681,3.7501 -147.506,2.5801 -51.974,-3.4118 -119.224,-11.3863 -164.227,-19.4746 -144.261,-25.9278 -194.865,-52.3987 -245.066,-128.1895 -42.077,-63.5294 -91.248,-174.1057 -91.248,-205.2011 0,-30.9354 23.508,-52.0542 123.289,-94.0391 35.369,-14.8822 72.486,-36.3451 110.574,-35.4141 z m 194.582,6.8379 c 0.36,-0.1044 0.978,0.022 1.848,0.3555 19.115,7.3358 54.967,23.4922 56.768,25.0626 1.206,1.0515 -2.777,1.5234 -5.825,3.4276 -4.483,2.7987 -6.701,2.3056 -11.578,-2.5722 -3.321,-3.319 -11.541,-6.773 -18.271,-7.6758 -9.054,-1.2142 -14.011,-4.0398 -19.051,-10.8574 -3.729,-5.0428 -4.971,-7.4269 -3.891,-7.7403 z m -23.068,8.9512 c 8.606,0.3576 15.035,6.6396 18.055,17.8457 3.565,13.2419 9.806,15.6083 15.81,5.9961 2.078,-3.327 6.512,-6.0032 9.854,-5.9512 6.736,0.1066 16.72,6.6316 16.562,10.8223 -0.06,1.48 -11.268,10.1752 -24.912,19.3242 -29.738,19.9397 -119.142,86.6392 -121.719,90.8086 -2.615,4.2329 -7.328,3.5874 -21.816,-2.9902 -14.885,-6.7564 -31.963,-30.3536 -21.969,-30.3536 1.673,-10e-5 6.08,3.4924 9.793,7.7618 5.548,6.3805 8.497,7.4347 16.572,5.9199 5.401,-1.0135 12.679,-0.3124 16.172,1.5566 8.325,4.4559 11.165,1.2485 6.088,-6.8808 -3.644,-5.8343 -3.204,-7.2225 4.369,-13.7344 8.215,-7.0676 13.816,-7.5126 26.717,-2.1191 4.974,2.0797 5.399,1.297 3.646,-6.6895 -2.544,-11.5788 2.877,-16.2977 21.083,-18.3496 14.104,-1.5898 17.229,-7.453 4.937,-9.2617 -7.829,-1.1522 -8.044,-3.2864 -1.826,-18.0332 2.606,-6.1845 6.452,-18.7299 8.541,-27.8789 3.006,-13.1477 5.147,-16.8325 10.224,-17.5801 1.315,-0.1936 2.589,-0.264 3.819,-0.2129 z m -177.717,5.6328 c 1.372,0.1616 9.38,-2.5678 9.38,-1.7923 0,0.7263 -5.735,14.7521 -9.051,28.581 -6.805,28.3806 -11.912,56.1911 -6.722,73.514 3.278,10.936 3.937,11.4506 9.829,7.6856 14.337,-9.1552 16.416,-8.5824 23.017,6.3359 7.194,16.2632 15.973,26.5777 27.912,32.7891 4.575,2.3799 8.319,5.4084 8.319,6.7305 0,1.3222 -8.797,9.4526 -19.549,18.0683 -23.867,19.126 -19.069,19.0284 -93.295,1.918 -84.388,-19.4523 -137.311,-46.8354 -130.713,-67.6289 3.832,-12.069 50.013,-48.1286 49.973,-39.0156 0,2.1733 -4.092,6.2697 -9.073,9.1035 -5.428,3.0888 -9.052,7.631 -9.052,11.3418 0,4.5597 -1.961,6.1894 -7.446,6.1894 -8.541,0 -19.775,10.6342 -19.775,18.7168 0,6.9851 1.793,6.8872 11.336,-0.6191 5.759,-4.5306 10.295,-5.6204 17.652,-4.2403 9.406,1.7645 9.95,1.3659 10.871,-7.9628 1.327,-13.4238 9.17,-18.0654 17.612,-10.4239 5.331,4.8224 6.854,5.0828 9.039,1.5469 3.422,-5.5379 -1.281,-14.2122 -9.043,-16.6758 -9.436,-2.9953 -7.974,-18.2026 2.789,-28.9648 12.587,-12.588 24.677,-11.9968 35.64,1.7441 9.547,11.9646 12.983,13.223 12.983,4.7559 0,-7.2823 13.689,-18.3653 22.683,-18.3653 3.708,0 10.18,2.7029 14.379,6.0059 6.516,5.1264 8.157,5.3757 11.203,1.7051 4.559,-5.4923 -0.372,-15.5736 -8.947,-18.2949 -10.005,-3.1763 -6.847,-10.0358 8.164,-17.7266 6.695,-3.4294 15.767,-5.5061 19.885,-5.0215 z m 319.758,9.2422 77.896,1.8066 c 0.995,7.3191 1.309,12.4961 1.309,12.4961 -16.47,-3.5563 -23.874,5.3089 -34.566,3.4727 -1.653,-0.2839 -16.393,-0.6148 -35.471,-2.4063 -21.845,-2.0508 -35.754,-2.1968 -37.559,-0.3925 -1.804,1.8042 -1.276,3.4077 1.424,4.3281 11.385,3.8836 30.299,7.6813 47.781,9.5937 15.153,1.6577 20.678,3.7053 25.709,9.5254 17.707,20.4915 56.309,21.9951 56.309,2.1934 0,-7.0118 0.979,-7.4551 16.49,-7.4551 22.443,0 31.337,-4.5118 33.697,-17.0957 2.055,-10.9574 4.328,-11.7755 17.239,-6.207 l 8.447,3.6445 -61.41,58.9766 c -72.146,69.2862 -141.16,131.2122 -152.86,137.164 v 0.01 c -16.409,8.3472 -19.953,8.3075 -95.998,-1.0606 -26.614,-3.2788 -59.957,-6.7441 -74.097,-7.7011 -14.14,-0.957 -38.351,-3.8704 -53.807,-6.4746 -27.805,-4.6852 -28.047,-4.798 -22.685,-10.8106 8.584,-9.6281 43.751,-35.538 46.189,-34.0312 1.216,0.7511 14.272,3.4699 29.016,6.041 17.587,3.0665 27.729,6.3237 29.49,9.4687 1.475,2.6367 5.261,7.0015 8.412,9.6992 8.846,7.5748 6.877,9.2566 -6.777,5.7911 -7.878,-1.9995 -13.044,-5.2381 -13.963,-8.752 -1.947,-7.4524 -5.922,-7.0606 -8.426,0.8281 -1.411,4.4446 -0.06,8.3777 4.432,12.8536 5.376,5.3616 9.638,6.3508 25.269,5.8652 14.499,-0.4505 22.395,1.1072 34.494,6.8047 29.492,13.8885 44.402,5.5952 16.821,-9.3574 -7.902,-4.2834 -12.068,-7.1062 -9.262,-6.2735 2.807,0.8327 10.632,3.0027 17.388,4.8223 6.76,1.8197 12.29,4.5644 12.29,6.0996 0,3.015 14.961,7.3583 35.578,10.3262 12.398,1.7849 13.416,1.2982 26.341,-12.5528 19.226,-20.6061 22.545,-27.5583 15.584,-32.6484 -5.074,-3.7101 -12.205,-4.7923 -59.357,-9.0059 -9.15,-0.8175 -24.802,-2.733 -34.783,-4.2558 -9.98,-1.5227 -21.549,-2.959 -25.707,-3.1934 -6.711,-0.3781 -6.378,-0.8321 2.988,-4.0371 12.08,-4.1342 15.556,-12.7013 6.338,-15.6269 -6.556,-2.0803 -41.674,6.5698 -44.367,10.9277 -1.844,2.9747 -23.475,2.967 -34.135,-0.021 -6.314,-1.7711 -0.34,-7.1176 49.902,-44.6523 77.293,-57.741 113.08,-81.3565 113.08,-81.3565 10.262,-1.8962 11.576,-3.5058 19.97,-8.8762 7.737,0.3023 18.024,1.3356 25.347,1.5054 z m 330.902,21.0644 c 16.304,1e-4 19.438,0.7904 18,4.5372 -1.937,5.0491 -2.981,5.1957 -11.678,1.6347 -3.328,-1.3624 -9.627,-1.8093 -14,-0.9941 -4.371,0.815 -8.875,-0.017 -10.007,-1.8477 -1.415,-2.2926 4.088,-3.3301 17.685,-3.3301 z m -260.781,3.3575 c 9.754,0.4173 20.937,6.3342 19.961,11.4004 -1.207,6.2678 -7.392,7.0196 -20.52,2.498 -12.045,-4.1484 -14.1,-12.2211 -3.494,-13.7226 1.296,-0.1834 2.66,-0.2355 4.053,-0.1758 z m -86.754,5.8515 c -28.435,0.103 -56.491,6.4888 -71.158,16.1953 -14.1,9.3305 -28.93,28.6474 -31.709,41.2989 -4.579,20.8438 10.642,41.3159 38.037,51.1679 20.138,7.2425 38.315,7.6007 68.586,1.3477 28.181,-5.8206 42.283,-12.7023 54.459,-26.5703 32.211,-36.6837 -0.556,-83.6481 -58.215,-83.4395 z m -414.254,7.3809 c -1.014,0.1487 -2.21,0.8049 -3.596,1.9551 -4.24,3.5188 -5.518,15.2795 -2.041,18.7578 5.27,5.2691 10.08,1.4179 10.081,-8.0664 0,-8.9804 -1.403,-13.0925 -4.444,-12.6465 z m 397.5,2.9492 c 9.237,-0.2617 18.478,1.0076 30.365,3.8594 l 7.561,1.8535 -8.588,2.3086 c -4.925,1.3234 -11.603,0.9341 -15.654,-0.9121 -4.216,-1.9209 -10.511,-2.2299 -15.606,-0.7676 -4.697,1.3484 -11.011,2.6993 -14.035,3.0039 -4.852,0.4891 -10.905,2.8605 -25.949,10.1602 -2.32,1.1269 -12.017,8.1599 -15.145,18.0312 -5.557,17.5368 -0.319,20.0868 5.209,27.541 3.113,4.1959 10.975,9.4524 17.471,11.6817 21.758,7.4686 70.783,-1.5146 70.783,-12.9707 0,-3.3449 3.037,-4.6914 10.584,-4.6914 8.57,0 10.586,-1.1522 10.586,-6.0489 0,-4.3928 -2.012,-6.0488 -7.361,-6.0488 -12.358,0 -23.247,5.4909 -22.266,11.2285 0.688,4.014 -2.605,6.053 -14.224,8.8047 -8.317,1.9698 -20.253,3.7123 -26.522,3.8711 -10.378,0.2643 -11.246,-0.3207 -9.685,-6.5371 1.284,-5.1202 -0.913,-9.3727 -8.782,-17 -11.929,-11.5606 -11.38,-18.5137 1.457,-18.5137 6.04,0 8.748,-1.5145 8.748,-4.8906 0,-3.672 2.021,-4.5018 8.11,-3.3379 4.459,0.8524 10.503,0.051 13.439,-1.7812 4.186,-2.6152 6.708,-2.0888 11.723,2.4492 5.273,4.7728 7.401,5.1436 12.225,2.1328 7.562,-4.7231 8.945,-4.5969 8.945,0.8203 0,6.1369 -15.731,16.3894 -17.412,11.3477 -1.485,-4.4585 -24.444,-4.9356 -30.981,-0.6446 -3.713,2.4372 -3.804,3.4493 -0.504,5.5801 3.233,2.0848 3.047,2.985 -0.941,4.5156 -6.737,2.5845 -3.486,6.9074 10.603,14.0957 15.083,7.6942 21.086,7.6392 21.086,-0.1914 0,-4.0964 -3.329,-7.6415 -9.828,-10.4668 l -9.828,-4.2715 8.315,-0.1171 c 4.575,-0.065 8.32,1.241 8.32,2.9043 0,8.0207 39.841,-4.5861 49.109,-15.5391 5.247,-6.2004 5.264,-6.1948 8.487,2.2773 7.392,19.4457 -6.727,36.6302 -38.182,46.4668 -61.665,19.285 -117.555,0.6703 -104.115,-34.6777 5.474,-14.3975 28.65,-36.4764 42.142,-40.1973 11.871,-3.2739 21.104,-5.0664 30.34,-5.3281 z m 281.514,0.2695 c -3.386,-0.1394 -6.73,0.3425 -9.703,1.5743 -9.598,3.9748 -16.445,13.4229 -11.807,16.289 1.551,0.9599 3.677,0.3625 4.723,-1.3281 5.471,-8.8537 28.761,0.8727 28.761,12.0117 0,2.7919 0.938,6.0126 2.08,7.1563 6.65,6.648 12.215,-7.0235 8.649,-21.2364 -2.021,-8.0478 -12.548,-14.0485 -22.703,-14.4668 z m 196.699,2.0039 c 4.302,-0.4849 9.322,2.4413 8.082,6.1661 -1.683,5.0559 -10.241,6.4937 -12.914,2.1699 -1.175,-1.9004 -0.713,-4.8779 1.027,-6.6172 1.016,-1.0162 2.371,-1.5572 3.805,-1.7188 z m -437.262,6.5918 c 0.68,-0.183 2.956,0.9725 7.45,3.2969 5.049,2.6118 9.181,5.3926 9.181,6.1817 0,4.2132 -11.196,0.5479 -14.504,-4.7481 -1.89,-3.0266 -2.806,-4.5474 -2.127,-4.7305 z m -376.097,10.9141 c -7.927,-0.1176 -16.267,1.4331 -20.944,4.709 -10.805,7.5682 -8.187,11.0032 6.682,8.7734 11.785,-1.7677 14.246,-1.0985 20.414,5.5449 7.555,8.1382 17.376,10.5509 17.957,4.4122 0.709,-7.4852 -0.99,-12.946 -5.639,-18.1465 -3.03,-3.39 -10.544,-5.1754 -18.47,-5.293 z m 606.488,0.072 c -3.571,0.2219 -8.098,3.7377 -8.098,7.3945 0,2.5474 1.194,4.6309 2.655,4.6309 3.81,0 10.645,-8.8793 8.492,-11.0332 -0.775,-0.7743 -1.859,-1.0662 -3.049,-0.9922 z m -37.332,4.1933 c -18.075,0.4093 -40.328,15.4164 -40.328,29.25 0,7.6085 5.408,18.1606 11.836,23.0957 11.27,8.6521 36.839,2.9109 47.894,-10.7539 8.741,-10.7988 0.864,-37.615 -11.988,-40.8261 -2.335,-0.5833 -4.832,-0.8241 -7.414,-0.7657 z m -4.275,10.1504 c 4.198,0.2693 8.188,1.5422 11.035,3.9043 6.832,5.6696 5.111,16.918 -3.641,23.8028 -20.038,15.7617 -41.458,-1.7514 -25.795,-21.0918 3.061,-3.781 8.523,-6.0328 14.168,-6.5528 1.411,-0.13 2.833,-0.1522 4.233,-0.062 z m 198.75,6.9317 c -3.152,0.9441 -8.147,5.7074 -14.125,14.0312 -17.089,23.798 -58.882,71.4289 -71.329,81.2949 -26.713,21.1763 -60.744,36.1886 -106.845,47.1348 -29.384,6.976 -31.261,7.7786 -28.528,12.2012 1.275,2.0652 12.286,2.6677 31.049,1.6992 52.081,-2.688 105.301,-26.7342 136.082,-61.4863 19.11,-21.575 54.65,-75.4169 56.766,-85.9961 1.391,-6.9497 0.08,-9.8231 -3.07,-8.8789 z m -213.663,2.8476 c -3.527,0 -6.064,8.4532 -4.086,13.6094 0.957,2.4951 4.428,4.5371 7.715,4.5371 3.707,0 5.31,-1.4376 4.219,-3.7812 -0.971,-2.0794 -2.606,-6.1613 -3.631,-9.0723 -1.028,-2.9109 -2.924,-5.293 -4.217,-5.293 z m -574.986,0.1778 c -1.485,0.2595 -2.646,2.2655 -2.646,5.871 0,3.3606 2.017,6.0489 4.537,6.0489 5.09,0 5.294,-0.5548 2.699,-7.3145 -1.297,-3.3789 -3.105,-4.865 -4.59,-4.6054 z m 313.301,11.1718 c 0.471,-0.1176 1.073,-3e-4 1.797,0.3438 1.447,0.6882 3.376,2.2899 5.699,4.7617 7.703,8.1997 5.093,10.4939 -4.205,3.6953 -3.042,-2.2243 -4.977,-5.7071 -4.299,-7.7402 0.197,-0.5903 0.537,-0.9429 1.008,-1.0606 z m 498.293,13.3008 c -4.82,-0.4823 -10.309,1.0297 -18.547,4.3262 -8.547,3.42 -12.869,7.4215 -15.182,14.0605 -6.936,19.8936 -2.447,34.7191 11.887,39.2735 4.954,1.5742 17.021,-1.2431 26.074,-6.0879 9.788,-5.2385 16.455,-14.5356 18.219,-25.416 1.466,-9.029 0.399,-11.5183 -7.924,-18.5215 -5.558,-4.6773 -9.708,-7.1525 -14.527,-7.6348 z m -766.455,8.6192 c -15.554,0 -32.437,12.9289 -32.596,24.9511 -0.04,2.911 1.292,5.293 2.957,5.293 1.662,0 3.024,-1.3097 3.024,-2.9082 0,-5.9904 13.568,-15.2383 22.355,-15.2383 6.156,0 12.352,3.1389 19.092,9.6719 7.205,6.9843 10.898,8.7551 13.279,6.373 7.526,-7.5261 -13.068,-28.1426 -28.111,-28.1425 z m 757.275,4.0312 c 2.217,0.184 3.858,1.6802 4.789,4.4746 0.769,2.3048 -2.413,3.555 -8.883,3.4942 -9.562,-0.091 -9.775,-0.326 -4.154,-4.5762 3.238,-2.4484 6.031,-3.5766 8.248,-3.3926 z m -279.92,6.6152 c -11.408,-0.2003 -22.803,4.8659 -31.91,15.2383 -6.579,7.4909 -9.324,13.7035 -9.324,21.0977 0,12.8711 4.632,13.7885 7.107,1.4082 2.175,-10.8729 17.246,-21.1382 31.047,-21.1602 12.443,-0.015 22.949,8.669 29.91,24.7207 3.119,7.1905 6.979,14.8204 8.575,16.9551 4.592,6.1376 9.237,2.6667 13.476,-10.0703 4.505,-13.5321 7.903,-16.3852 19.594,-16.4492 6.263,-0.035 9.147,1.9368 11.363,7.7617 3.94,10.3684 10.414,7.7487 10.793,-4.3692 0.404,-12.89 8.636,-19.0874 23.137,-17.4179 8.427,0.9699 11.34,0.1946 11.34,-3.0176 0,-11.34 -29.93,-10.9473 -39.446,0.5176 -2.227,2.6855 -9.123,4.3828 -17.808,4.3828 -7.796,0 -16.795,1.915 -19.996,4.2559 -5.294,3.8713 -6.73,3.1934 -15.875,-7.4922 -9.153,-10.6931 -20.575,-16.161 -31.983,-16.3614 z m -496.41,13.5489 c -2.495,0 -4.535,2.04 -4.535,4.5351 0,2.4951 2.04,4.5371 4.535,4.5371 2.495,0 4.537,-2.042 4.537,-4.5371 0,-2.4951 -2.042,-4.5351 -4.537,-4.5351 z m 757.617,4.7382 c 0,-0.4833 6.846,2.0463 15.996,2.1778 9.148,0.1322 17.274,-2.1205 17.274,-1.5664 0,0.5544 -5.178,5.6287 -10.946,8.039 -7.652,3.3998 -20.572,3.3695 -22.324,-8.6504 z m -475.824,9.1739 c 4.121,-0.099 10.25,0.654 20.32,2.2109 20.616,3.1877 23.12,4.2182 18.854,7.7578 -2.704,2.245 -11.013,4.7696 -18.465,5.6094 -7.451,0.8399 -12.815,2.713 -11.916,4.1641 2.511,4.0656 20.29,3.1274 34.281,-1.8086 13.771,-4.8585 13.795,-4.166 0.448,12.7636 -8.148,10.3349 -9.246,10.6841 -21.36,6.8047 -4.158,-1.3318 -12.15,-2.557 -17.762,-2.7226 -8.266,-0.2443 -9.548,-1.0856 -6.765,-4.4375 4.73,-5.6987 -0.514,-9.5672 -22.637,-16.711 l -17.859,-5.7695 14.881,-0.3008 c 8.322,-0.169 17.01,-2.2252 19.705,-4.664 2.041,-1.8474 4.154,-2.7977 8.275,-2.8965 z m 196.174,4.2343 c -5.753,1e-4 -11.636,8.3022 -9.615,13.5704 2.713,7.0703 6.336,5.4558 10.095,-4.4981 2.703,-7.1637 2.602,-9.0723 -0.48,-9.0723 z" fill="#00B894" transform="translate(133.72524,-69.569164) matrix(0.31583799,0,0,0.31583799,-14731.451,-1966.1507)"/>
</svg>