<?xml version="1.0" ?><svg height="176.237mm" viewBox="0 0 83.311852 176.237" width="83.311852mm" xmlns="http://www.w3.org/2000/svg">
    <path color="#000" d="m 7800.0367,90.97175 121.545,325.94683 -124.1049,292.86369 -2.4631,27.22816 298.0454,1.9078 -4.6138,-32.9434 -124.5619,-302.81862 106.0385,-285.17352 c 8.4404,-12.36539 28.6854,-23.51852 4.2056,-31.41638 z" fill="#FFFFFF" overflow="visible" paint-order="fill markers stroke" transform="translate(17.763607,-144.16827) matrix(0.26458333,0,0,0.26458333,-2078.1076,122.99481)"/>
    <path d="m 8033.4805,80.03149 c -61.4451,-0.1761 -159.2059,3.7229 -228.0059,3.2422 -7.2512,-1.5667 -16.663,5.4312 -18.3476,15.4453 0.1144,4.0426 6.7343,11.2627 12.7754,13.9336 4.1557,1.9914 8.6853,9.3285 10.6328,11.9942 30.0865,95.28441 52.1366,138.52871 101.7129,284.92964 9.6465,13.6805 -87.9995,197.5089 -121.4121,291.6894 0.4037,22.7163 -12.1234,48.7678 13.8106,42.3435 69.398,4.8934 265.0082,1.498 296.4125,-0.6911 2.6188,-10.6496 -1.131,-13.2598 -0.127,-20.825 2.4769,-10.9464 -3.7416,-16.1284 -6.4868,-16.1184 -6.9479,-11.9343 -15.2793,-39.6076 -21.9531,-49.4004 -29.4577,-68.8526 -67.9322,-156.9479 -101.9369,-246.9205 -3.2837,-6.0101 -0.5277,-12.8426 3.4369,-21.7943 21.4943,-56.25738 96.251,-258.23804 101.9297,-267.87694 2.1368,2.0192 15.7778,0.371 16.9629,-3.2695 2.8856,-11.0798 -2.7335,-22.3286 -4.2559,-33.1211 -6.7928,-2.5579 -27.2188,-3.4805 -55.1484,-3.5606 z m -55.6738,12.4942 c 32.6194,0.063 63.6597,0.7907 90.4062,3.1406 5.5384,0.7373 11.7341,-1.0342 11.3731,6.4434 l -0.4161,4.7304 c -12.7039,-0.1652 -24.2146,-0.6657 -37.7421,-1.0664 -71.4993,-1.5205 -164.8231,-3.6198 -227.8457,-5.2519 -1.8653,-2.759 -1.4709,-7.9237 0.5507,-7.2129 50.5579,0.8505 109.3081,-0.8889 163.6739,-0.7832 z m -89.0938,23.3105 c 55.6189,0.055 108.5012,0.8284 165.6055,3.4961 8.1693,-0.2301 4.1659,4.0752 2.5937,11.3809 -14.249,55.53711 -48.4597,108.96811 -63.0605,167.84961 -15.7947,36.58945 -18.6969,38.12135 -32.4629,82.28503 -7.1878,19.9564 -5.9912,30.2804 -3.5343,33.0569 18.9995,42.5669 54.8918,130.4314 78.9132,193.492 8.0889,22.4375 21.5511,51.0588 36.1465,87.7324 2.3894,7.6935 5.6211,8.7229 -8.3223,9.1777 -5.3767,0.015 -9.8813,-0.062 -10.0097,-0.1699 -79.5843,-4.6312 -152.5139,-3.3035 -220.0313,-2.4004 -23.6768,0.3089 -27.6962,0 -27.7559,-2.1055 0.8004,-7.2468 21.9199,-51.3792 24.254,-60.1953 33.6552,-67.9335 50.4364,-116.8579 87.7988,-196.5058 9.3539,-21.9453 11.3193,-27.1734 1.875,-50.0742 -11.2023,-26.83528 -18.9574,-53.03378 -27.2656,-77.51363 -28.0158,-72.5991 -35.8755,-103.4533 -67.293,-187.74221 -0.9209,-9.5083 -9.7822,-10.788 5.7598,-11.6231 19.4053,-0.098 38.2494,-0.1591 56.789,-0.1406 z m 64.4653,173.40821 c -1.2619,-0.037 -2.4403,0.802 -3.8984,2.5079 -1.7454,2.0419 -1.9085,3.1985 -0.7403,5.2402 0.8245,1.441 2.264,2.9037 3.1992,3.25 7.2157,2.6724 11.1572,-2.8937 5.8379,-8.2441 -1.7915,-1.8021 -3.1366,-2.7166 -4.3984,-2.754 z m -49.2119,0.3605 c -4.1212,0.7941 -3.699,8.0838 1.6806,9.5168 -1.4437,0.8478 -2.9569,1.0632 -4.1781,2.1364 -5.3708,2.4522 3.9534,23.3054 7.5351,27.7168 6.4895,11.64505 11.2378,26.18255 15.1172,36.91985 3.7556,8.1863 8.1816,37.90008 18.0638,37.38408 6.525,-0.4506 10.6782,-15.7749 11.9518,-22.8938 0.5117,-2.9489 1.7145,-7.18418 2.6739,-9.41218 0.9592,-2.228 2.8988,-7.6852 4.3105,-12.1269 3.3208,-9.7889 6.0503,-19.8 9.7051,-30.28705 5.0847,-14.7937 7.0522,-18.8796 8.8156,-23.758 1.8636,-5.1514 2.015,-7.3015 -3.7238,-10.7323 -4.6429,-2.7756 -9.5824,-3.9174 -11.4238,-1.6777 -2.3135,4.6552 0.1252,3.7794 2.1791,7.9286 3.0986,4.5356 0.074,5.959 -2.1531,15.1525 -4.5772,21.86115 -8.7404,33.69155 -20.562,58.06645 -1.0582,3.87998 -4.766,4.21178 -5.7707,0.2958 -2.5423,-9.9094 -14.545,-35.4213 -19.607,-45.44365 -2.9185,-5.2748 -11.156,-23.3353 -4.5892,-23.2841 4.0317,-0.245 7.0242,-0.7437 10.8569,-2.2005 2.213,-0.646 3.0149,-0.9668 2.186,-4.0424 -0.6793,-6.2464 -5.6358,-7.263 -9.7256,-4.1797 -3.3465,2.6833 -2.7544,0.6505 -3.6172,-2.3046 -2.4534,-4.0669 -5.5913,-3.9018 -9.7251,-2.7744 z m 33.999,1.9853 c -0.6042,0 -1.2392,0.067 -1.8984,0.2226 -4.6537,1.0953 -6.2477,2.8043 -3.9842,7.8595 1.2361,2.9017 4.952,3.8515 7.3323,3.5428 1.1608,0.1568 2.9076,-1.8817 3.6851,-3.7246 1.7686,-4.192 -0.9057,-7.8762 -5.1348,-7.9003 z m 0.9761,17.0195 c -2.7726,1.602 -3.6097,6.5439 -0.8005,9.9297 0.9341,1.0725 3.9089,2.1175 6.0427,1.5173 3.9905,-1.1225 3.3338,-1.4343 4.377,-5.2049 0.6832,-2.4695 -0.05,-5.0082 -3.1523,-6.1772 -3.2071,-1.2086 -5.1358,-0.084 -6.4669,-0.065 z m -7.3484,10.7323 c -1.6917,-0.061 -4.3929,0.5418 -6.2557,2.92 -1.4799,1.8896 -0.4362,4.0254 1.5427,6.0915 4.4863,4.68385 11.3838,-0.1105 8.2578,-5.7403 -0.8691,-1.5654 -2.2291,-3.2236 -3.5448,-3.2712 z m 6.0876,16.23025 c -0.8707,0.056 -1.7947,0.5416 -2.7382,1.4453 -2.6876,2.5741 -2.5344,7.0267 -0.1388,7.9156 3.498,1.2976 6.0605,3.1132 8.9743,-1.2246 2.4714,-7.1796 -1.213,-8.8085 -6.0973,-8.1363 z m 4.3175,73.72098 c -3.8568,0.1091 -4.7658,0.7065 -5.3926,3.541 -0.513,2.3202 0.025,4.2233 1.6836,5.9551 2.6397,2.756 3.3847,2.9404 6.5566,1.6191 1.4074,-0.5862 3.2105,-1.5137 3.1114,-5.0156 -0.1425,-5.0363 -1.4561,-6.227 -5.959,-6.0996 z m 3.039,20.8203 c -0.497,-0.018 -1.0564,0.052 -1.707,0.1953 -4.8468,1.0695 -7.3618,4.3426 -5.5234,7.9219 1.7223,3.2351 3.2362,4.6091 7.8535,4.0781 3.9859,-0.1128 5.2432,-5.067 2.9258,-9.2539 -1.1294,-2.0408 -2.0577,-2.8876 -3.5489,-2.9414 z m 0.5059,24.5879 c -7.9732,0.3191 -9.7649,6.512 -3.7168,12.8457 4.7394,4.963 10.5416,2.7264 10.3516,-3.9903 -0.1677,-5.9256 -2.4883,-9.0217 -6.6348,-8.8554 z m 0.9355,30.3066 c -0.6605,0.069 -1.4281,0.3623 -2.4433,0.8613 -4.3459,2.1361 -5.3738,7.0091 -2.1817,10.3418 1.7239,1.7998 3.7203,2.4047 6.5489,1.9805 3.6514,-0.5476 4.0363,-1.0524 3.7422,-4.9082 -0.1803,-2.3637 -1.3449,-5.3603 -2.5879,-6.6582 -1.1724,-1.224 -1.9773,-1.7323 -3.0782,-1.6172 z m -1.7539,25.2109 c -5.086,-0.1736 -8.03,7.2229 -3.2871,9.8086 1.3041,0.7109 3.6787,1.272 5.2793,1.25 5.6523,-0.081 4.8264,-9.583 -0.9492,-10.9199 -0.3565,-0.082 -0.7039,-0.1271 -1.043,-0.1387 z m -2.4941,30.0782 c -0.2029,0.01 -0.4087,0.029 -0.6172,0.059 -3.4777,0.4957 -5.4117,1.2925 -5.8691,6.039 -0.4707,4.8844 1.2705,5.3915 4.9746,7.1836 1.7707,0.7538 3.4026,1.5722 6.334,-0.053 5.0104,-4.4348 1.4686,-13.5291 -4.8223,-13.2285 z m 3.9316,23.2129 c -1.4836,-0.02 -3.0788,0.5802 -4.8574,2.0664 -2.2649,2.0605 -2.917,4.4632 -0.6543,8.7636 0.9966,1.8433 3.7134,2.7246 6.7774,2.9805 3.7305,-0.1055 5.9082,-1.4647 5.7675,-6.4375 -0.1093,-3.8652 -2.5476,-5.7663 -4.4668,-6.7246 -0.8264,-0.401 -1.6762,-0.6364 -2.5664,-0.6484 z m -9.8906,8.8281 c -1.74,0.1038 -4.5386,1.7958 -7.7324,4.8496 -22.8589,21.4129 -53.6144,55.7005 -69.0254,71.1445 -8.8623,9.8924 -15.1299,18.1884 -23.7733,28.0378 -2.5629,2.8253 -4.6428,5.7055 -4.6231,6.4024 -3.214,9.3763 1.7904,12.9138 15.959,12.08 55.853,0.8904 108.6455,-1.2131 162.3358,0.1419 10.147,-0.5618 41.7166,3.1071 45.6133,-3.7226 6.1664,-12.8667 -55.5485,-74.534 -84.6097,-110.6494 -7.3435,-10.2084 -15.0386,-4.1928 -9.5055,2.331 25.139,29.6281 55.0456,62.8409 73.7492,86.4776 11.36,14.9657 -7.9074,13.9497 -14.718,14.038 -58.1464,0.1096 -120.6006,-0.252 -154.1913,1.7859 -12.8401,0.7791 -17.3654,0.6019 -19.334,-0.7539 -7.4351,-1.6234 31.1182,-38.7048 36.0312,-45.4343 7.6254,-8.6683 17.6788,-19.3421 27.1973,-28.9981 7.8274,-10.0167 32.8638,-31.1509 28.4726,-36.1523 -0.1394,-1.13 -0.8017,-1.6404 -1.8457,-1.5781 z m 9.4551,20.8926 c -2.3634,-0.044 -5.3543,0.5704 -5.6348,6.5957 -0.1633,2.993 2.2222,5.5408 5.7617,6.3984 3.4686,-0.072 5.9243,-0.6844 7.1231,-5.959 0.6657,-2.3235 -3.4944,-6.9963 -5.2188,-6.9473 -0.5252,0.015 -1.2434,-0.073 -2.0312,-0.088 z m -32.5996,21.3203 c -0.8453,0.034 -1.5609,0.1793 -1.9414,0.4297 -1.8717,1.2313 -1.6025,6.5173 0.4297,8.4375 1.9939,1.8843 1.994,1.8845 5.1582,0.074 3.7731,-2.1588 3.1752,-7.7909 -0.9239,-8.6973 -0.9018,-0.1995 -1.8774,-0.2777 -2.7226,-0.2441 z m 32.5195,9.1777 c -1.6533,-0.037 -3.4547,0.6828 -5.4258,1.9688 -3.4194,2.7019 -3.1116,6.4376 0.7539,9.3906 2.3991,1.8328 5.6291,2.0237 6.9961,0.8222 2.0475,-1.7995 3.9294,-8.0842 1.2754,-10.6308 -1.1179,-1.034 -2.3137,-1.5217 -3.5996,-1.5508 z m -49.3437,7.1113 c -1.8704,-0.037 -3.7036,0.8032 -4.5704,2.5391 -0.8973,1.7972 -0.6605,3.2846 0.8457,5.3105 2.5485,3.4279 3.4871,3.4601 7.2344,0.2461 2.488,-2.1339 2.6791,-2.9314 1.2832,-5.3711 -1.0144,-1.773 -2.9226,-2.6875 -4.7929,-2.7246 z m -13.9961,17.752 c -1.7347,-0.053 -3.4745,0.4589 -4.5118,1.5566 -1.0559,1.117 -1.035,2.3974 0.078,4.668 v 0 c 1.8676,3.8095 5.2307,3.9259 8.3379,0.291 1.8945,-2.2163 1.9998,-3.0662 0.5782,-4.6836 -1.0198,-1.1604 -2.7498,-1.7792 -4.4844,-1.832 z m 23.5547,2.0058 c -1.0263,-0.043 -2.1942,0.2479 -3.6153,0.8399 -2.4577,1.0239 -2.625,6.0474 -0.2754,8.2676 2.2761,2.1508 7.1264,1.8035 9.0469,-0.6485 1.2871,-1.6433 1.1535,-2.6758 -0.6855,-5.3164 -1.4432,-2.0722 -2.7603,-3.0707 -4.4707,-3.1426 z m 33.8808,10.3399 c -1.0207,0.021 -1.9338,0.653 -3.2344,2.0293 -3.7732,3.9928 -2.8767,7.3266 2.2032,8.1992 5.3227,0.9143 7.9321,-7.2199 3.0918,-9.6367 -0.7967,-0.3979 -1.4481,-0.6045 -2.0606,-0.5918 z m -49.8808,3.3789 c -6.5123,0.1842 -8.7309,4.5666 -4.3887,8.6699 1.7315,1.6362 2.5965,1.691 4.6914,0.2988 4.8359,-3.2136 4.6372,-9.1085 -0.3027,-8.9687 z m -18.8086,2.25 c -2.9091,0.042 -5.6292,2.7818 -4.5059,6.7754 0.6303,2.2407 1.7535,2.9767 4.2676,2.7949 4.9337,-0.356 6.7158,-2.6949 4.8906,-6.418 -1.0933,-2.2302 -2.9069,-3.1773 -4.6523,-3.1523 z m 38.5195,3.5957 c -1.2456,0.098 -2.4296,0.6553 -3.2969,1.2363 -2.4438,1.6374 -3.3751,5.0382 -2.1699,7.9317 1.2915,3.1003 10.2597,1.7594 10.0723,-1.5059 -0.048,-0.8372 0.6018,-4.3874 -0.9434,-6.1406 -1.1092,-1.2587 -2.4165,-1.6198 -3.6621,-1.5215 z m 172.1308,45.8613 5.67,0.061 c -0.4753,4.1386 1.3926,10.7366 -0.6641,14.1116 -0.5516,-0.05 -8.8225,0.9533 -12.1465,0.1524 -51.9464,-1.1969 -148.7226,2.525 -242.5644,-0.3187 l -30.9844,0.9805 -0.207,-7.3594 c -0.1609,-5.6866 2.0141,-5.2563 3.791,-6.1895 105.0921,0.01 196.9039,-1.187 277.1054,-1.4375 z" fill="#00B894" transform="translate(17.763607,-144.16827) matrix(0.26458333,0,0,0.26458333,-2078.1076,122.99481)"/>
</svg>