<?xml version="1.0" ?><svg height="194.84805mm" viewBox="0 0 301.69742 194.84805" width="301.69742mm" xmlns="http://www.w3.org/2000/svg">
    <path d="m 47752.328,8961.7305 c -28.693,-0.4579 -89.203,11.2021 -96.619,68.7871 -7.911,61.4241 18.772,86.343 40.093,96.8418 71.939,19.3082 142.538,-33.3669 148.438,-69.3887 5.9,-36.0217 -60.945,-93.9465 -86.623,-95.998 -1.605,-0.1282 -3.376,-0.2117 -5.289,-0.2422 z m 218.265,75.2949 c -14.209,-0.1075 -32.086,1.2742 -41.447,5.2363 -14.978,6.3395 -18.535,7.6082 -17.941,35.168 -0.816,20.2195 8.748,34.3666 24.838,38.1035 16.09,3.7369 159.494,9.4746 167.947,3.0684 8.453,-6.4062 19.5,-39.3705 5.857,-47.5117 -13.644,-8.1412 -77.263,-26.2256 -90.758,-22.4219 -13.495,3.8036 -20.835,-7.6739 -29.511,-10.0762 -3.253,-0.9008 -10.459,-1.5019 -18.985,-1.5664 z m 269.916,62.4688 c -5.11,-0.1506 -11.18,2.3397 -17.384,7.8828 -12.407,11.0862 -2.142,26.5911 14.283,34.1426 v 0 c 0,0 10.801,-2.891 17.674,-9.4785 6.874,-6.5875 1.783,-14.5401 -2.948,-24.5821 -2.365,-5.0207 -6.514,-7.8123 -11.625,-7.9628 z m -539.955,70.9609 c -21.851,1.2603 -42.685,11.0948 -49.187,17.0254 -10.403,9.489 -22.916,49.9765 -22.916,49.9765 0,10e-5 -3.515,-0.5065 -20.807,6.7051 -17.292,7.2116 -30.787,32.3887 -30.787,32.3887 0,0 -43.017,-2.024 -54.123,12.6523 -11.106,14.6762 -4.887,42.6661 -4.887,42.6661 0,0 -55.986,9.3344 -56.97,31.0957 -0.984,21.7613 51.164,29.2988 51.164,29.2988 0,0 9.98,98.9378 27.974,133.2246 17.995,34.2869 66.637,81.0996 99.252,91.3477 0,0 -31.964,51.4052 -6.799,59.6289 29.52,9.6469 43.582,-46.0547 43.582,-46.0547 0,0 110.49,29.7284 312.508,39.9765 202.018,10.2481 371.361,-32.5332 371.362,-32.5332 0,0 47.998,47.7145 57.136,45.3106 9.138,-2.4039 -6.326,-62.2461 -6.326,-62.2461 0,0 72.964,-50.2299 100.096,-89.957 27.133,-39.7272 43.58,-155.3653 43.58,-155.3653 0,0 30.928,-17.7123 32.896,-35.8047 1.968,-18.0923 -60.74,-22.0254 -60.74,-22.0254 0,0 -6.6,-27.4444 -25.719,-30.6074 -19.12,-3.163 -30.793,20.0371 -30.793,20.0371 0,0 -38.092,-28.3874 -54.681,-29.1465 -16.589,-0.7591 -37.344,14.4297 -37.344,14.4297 0,0 -27.118,-17.0664 -44.973,-14.789 -17.854,2.2774 -28.677,15.5625 -28.677,15.5625 0,0 -1.828,-9.3629 -16.87,-9.2364 -15.043,0.1265 -34.584,7.9707 -34.584,7.9707 0,0 -3.514,-12.1453 -17.009,-16.9531 -13.496,-4.8078 -47.8,-10.8819 -62.842,-4.9355 -15.042,5.9464 -12.652,24.5449 -12.652,24.5449 0,0 -42.737,0.1276 -62.137,2.0254 -19.401,1.8978 -37.397,15.8144 -37.397,15.8144 0,0 -17.96,-30.2344 -35.99,-28.7207 -18.029,1.5136 -32.109,9.1485 -32.109,9.1485 0,0 -13.72,-18.89 -29.606,-19.2696 -15.885,-0.3795 -32.052,13.6653 -31.068,3.1641 0.984,-10.5012 -20.386,-36.0588 -41.473,-35.5527 -21.088,0.5061 -19.4,-9.1092 -31.49,-11.8926 -12.09,-2.7835 -75.635,6.4531 -75.635,6.4531 0,0 -16.167,-34.035 -45.408,-55.6699 -10.965,-8.1131 -24.44,-10.4437 -37.551,-9.6875 z m 599.772,27.6719 c -0.583,0 -1.174,0 -1.774,0.027 -19.192,0.7231 -32.403,16.8709 -25.797,38.3203 17.763,24.2612 44.186,6.5068 49.809,-9.6406 5.448,-15.6427 -4.183,-28.5716 -22.238,-28.707 z m 182.086,17.0761 c -11.196,0.1386 -23.544,5.4985 -29.319,15.6608 0,0 3.191,21.7579 15.241,28.265 12.051,6.5071 34.993,1.9291 41.777,-6.4258 6.784,-8.3548 8.48,-32.3751 -12.408,-35.9902 -5.875,-1.0167 -10.91,-1.564 -15.291,-1.5098 z" fill="#FFFFFF" paint-order="markers stroke fill" transform="translate(-8.1846233,37.115308) matrix(0.26458333,0,0,0.26458333,-12548.243,-2406.2944)"/>
    <path d="m 47620.979,9675.8721 c -4.743,-7.6648 -4.69,-10.0404 0.6,-26.304 3.199,-9.8339 5.844,-18.9191 5.877,-20.1928 0.03,-1.2738 -8.656,-8.0795 -19.311,-15.1235 -10.655,-7.0441 -23.266,-16.4568 -28.023,-20.9123 -16.173,-15.1504 -38.295,-50.7685 -50.474,-81.2675 -11.603,-29.0581 -23.761,-84.2058 -23.216,-105.3073 0.228,-8.7879 -0.947,-9.972 -10.122,-10.2092 -25.763,-0.6657 -43.35,-17.8751 -37.977,-37.1585 3.651,-13.1064 23.714,-27.5413 41.301,-29.7157 14.2,-1.7556 15.234,-2.5153 12.052,-8.8472 -11.594,-23.0779 18.258,-53.6112 51.576,-52.7501 9.263,0.2394 12.734,-1.6163 16.815,-8.9888 7.443,-13.4479 19.895,-23.3383 33.208,-26.3761 10.42,-2.3801 12.314,-4.7056 18.327,-22.4948 12.188,-36.0651 36.879,-50.9149 78.895,-47.4495 17.278,1.4231 26.11,4.0104 34.025,9.9609 10.603,7.9704 10.952,8 42.798,3.7144 56.356,-7.5789 118.802,-29.1956 136.733,-47.3296 l 8.068,-8.1612 -10.443,-4.6461 c -14.779,-6.5726 -20.144,-16.5251 -19.625,-36.3939 0.677,-26.1992 9.549,-39.8671 29.606,-45.6473 9.108,-2.6247 17.993,-6.9642 19.745,-9.6402 4.504,-6.8836 29.818,-7.5014 32.199,-0.7843 1.28,3.6051 4.481,4.6026 10.481,3.2596 7.231,-1.6171 9.22,-0.3245 12.214,7.9401 3.406,9.4059 3.719,9.5348 6.547,2.7183 3.444,-8.2909 12.74,-12.6119 15.806,-7.3496 1.159,1.9856 5.942,2.7517 10.63,1.701 6.69,-1.4948 8.881,-0.3923 10.173,5.1249 1.955,8.356 5.267,8.9863 11.252,2.141 7.814,-8.9335 13.854,-5.7168 13.52,7.203 -0.269,10.4134 0.782,12.0107 8.027,12.1979 11.53,0.298 26.153,6.6531 34.103,14.8248 3.672,3.7722 10.404,9.8464 14.959,13.4976 7.119,5.7063 7.618,7.3973 3.553,12.0488 -2.602,2.9754 -6.306,5.3698 -8.229,5.3201 -1.923,-0.05 -8.426,5.2378 -14.447,11.7507 -10.264,11.1034 -12.772,11.9996 -40.137,14.3556 -16.055,1.3813 -38.212,2.2915 -49.239,2.0219 l -20.047,-0.4921 -35.016,30.2251 c -19.255,16.6221 -48.178,38.3292 -64.271,48.2359 -17.011,10.4717 -29.321,20.3605 -29.405,23.6194 -0.113,4.358 0.79,4.7154 4.07,1.6008 6.07,-5.7639 29.316,-4.2996 40.229,2.5327 9.995,6.2587 20.132,21.7284 19.908,30.3853 -0.122,4.7432 1.149,4.7915 12.337,0.4473 15.95,-6.1869 29.781,-2.8048 39.785,9.7269 l 7.779,9.7425 8.503,-6.3716 c 4.677,-3.5026 15.593,-12.2121 24.257,-19.3505 37.634,-31.008 68.614,-52.8444 77.364,-54.5301 14.879,-2.8688 31.011,7.7115 46.745,30.6575 11.218,16.3586 15.684,20.3852 20.922,18.8707 22.607,-6.5391 59.241,2.9496 70.806,18.3406 4.524,6.0197 6.414,6.4566 13.186,3.0545 11.215,-5.636 28.746,-4.4275 39.017,2.6864 8.1,5.6134 8.951,5.6509 11.083,0.492 3.059,-7.399 19.567,-15.1571 31.588,-14.8464 5.306,0.1371 15.221,4.2506 22.038,9.1448 14.185,9.7995 9.137,11.9839 20.779,0.9302 17.399,-16.521 50.974,-13.3765 69.028,6.4686 11.656,12.6924 6.645,12.4967 19.616,2.1413 18.485,-14.7557 46.965,-6.94 53.486,14.6731 l 3.515,11.6598 28.084,2.9821 c 31.909,3.3867 39.914,9.2779 39.404,29.0005 -0.304,11.7769 -10.367,21.5801 -26.955,26.2601 -8.408,2.373 -9.982,8.5794 -14.755,58.1732 -7.56,78.5162 -52.094,153.0806 -110.706,185.3582 -12.701,6.993 -22.491,14.4107 -21.755,16.4881 0.735,2.0748 3.076,12.6045 5.2,23.401 3.408,17.3182 3.162,20.6422 -2.086,28.2134 -4.554,6.5764 -8.837,8.5113 -18.302,8.2667 -10.023,-0.259 -14.967,-3.1364 -26.192,-15.2397 -7.614,-8.2067 -16.017,-18.2583 -18.677,-22.3359 l -4.834,-7.4179 -41.383,10.3171 c -91.282,22.7604 -188.611,29.0773 -343.209,22.2757 -131.235,-5.7763 -182.779,-11.3459 -237.906,-25.717 -23.642,-6.1643 -44.564,-11.2458 -46.496,-11.2957 -1.934,-0.05 -7.817,6.834 -13.072,15.2966 -16.578,26.6825 -44.826,36.4448 -55.509,19.1826 z m 33.787,-23.925 c 15.634,-16.9032 23.068,-46.8107 13.674,-55.0274 -7.096,-6.2044 -11.002,-0.5567 -19.372,28.0082 -4.386,14.9635 -9.17,30.0502 -10.63,33.5304 -2.272,5.4072 -1.692,5.8411 3.983,2.9914 3.651,-1.8355 9.206,-6.112 12.345,-9.5026 z m 749.771,-1.7594 c -7.256,-29.858 -18.511,-46.9756 -28.554,-43.4164 -9.282,3.2909 -4.684,19.8998 12.201,44.0731 18.167,26.0077 22.787,25.8239 16.353,-0.6567 z m -237.268,5.2727 c 61.386,-4.1775 86.568,-8.0855 144.54,-22.435 33.823,-8.3719 39.12,-10.6582 41.092,-17.7281 3.146,-11.295 21.112,-24.7433 32.655,-24.445 5.295,0.1368 13.168,3.2673 17.49,6.9587 7.766,6.6276 8.06,6.6121 24.854,-1.3596 21.908,-10.399 48.939,-34.3546 64.403,-57.07 19.153,-28.1372 36.448,-78.7076 41.663,-121.8065 5.664,-46.8287 5.687,-45.4507 -0.728,-45.6165 -12.031,-0.3109 -1.14,-8.854 18.049,-14.158 24.159,-6.6789 32.798,-13.1345 26.481,-19.7864 -5.668,-5.9695 -235.386,-11.8498 -293.298,-7.5029 -39.79,2.9805 -174.829,9.3945 -288.166,13.6839 -30.18,1.1422 -149.676,1.2276 -265.546,0.1887 -115.869,-1.0388 -219.018,-0.8419 -229.22,0.4389 -11.617,1.4574 -20.342,4.6498 -23.35,8.5475 -6.362,8.2438 -6.154,10.4823 1.731,18.7833 5.748,6.0565 11.279,7.1527 40.052,7.94 36.814,1.0025 49.822,5.2245 33.645,10.8993 -5.291,1.8574 -14.141,3.2579 -19.667,3.1151 -12.381,-0.3199 -12.617,2.3517 -4.379,49.5706 7.727,44.2761 30.763,96.246 53.809,121.393 18.005,19.646 48.725,40.4712 50.892,34.4959 4.173,-11.5202 16.196,-20.8512 26.523,-20.5843 19.724,0.5097 29.787,14.5231 30.08,41.8935 0.02,3.1408 4.04,5.6473 10.3,6.4413 5.635,0.7135 25.58,4.5799 44.322,8.59 84.359,18.0484 298.204,27.9666 421.773,19.5602 z m -509.899,-255.5596 c -51.782,-4.6816 -71.493,-10.8085 -35.519,-11.0378 11.214,-0.073 24.24,0.012 28.946,0.1905 4.708,0.1727 64.058,0.6251 131.89,1.0006 74.677,0.4112 125.661,1.9961 129.24,4.0185 7.363,4.158 7.468,11.9984 0.199,14.5757 -8.199,2.9053 -197.943,-3.6097 -254.756,-8.7475 z m 301.555,-1.422 c 0.1,-3.7776 18.095,-5.4171 89.295,-8.1331 29.24,-1.1152 73.78,-3.166 98.984,-4.5551 45.188,-2.4915 55.362,-1.6529 55.202,4.5387 -0.123,4.7791 -15.792,6.3991 -96.194,9.9516 -83.553,3.6946 -147.409,2.9103 -147.287,-1.8021 z m 333.921,-21.9503 c 79.274,-3.0728 144.627,-6.6056 176.971,-9.5627 26.305,-2.4065 35.887,-0.8919 33.637,5.315 -2.357,6.5125 -20.323,8.6571 -98.73,11.78 -42.631,1.698 -88.802,7.0542 -120.973,6.6445 -79.333,-0.841 -36.895,-12.3287 9.095,-14.1768 z m -614.631,-54.0426 c 65.958,-0.01 155.364,0.8441 198.681,1.8916 102.268,2.4887 176.492,-1.4675 176.697,-9.3899 0.194,-7.5166 -12.662,-19.4206 -24.288,-22.4911 -10.55,-2.7833 -28.032,4.0989 -31.461,12.3903 -3.448,8.3294 -9.302,5.873 -12.914,-5.4193 -6.451,-20.1645 -29.304,-23.9545 -48.412,-8.0328 -17.489,14.5735 -20.62,13.1074 -17.407,-8.1591 2.479,-16.4106 1.961,-18.6546 -6.149,-26.6711 -7.09,-7.006 -12.629,-8.9222 -27.766,-9.5986 -11.784,-0.5358 -19.935,-2.5993 -21.628,-5.5058 -2.214,-3.8014 -5.304,-3.9582 -16.748,-0.8491 -7.718,2.0953 -24.089,4.4887 -36.384,5.317 -23.02,1.5509 -24.928,3.01 -19.107,14.601 5.149,10.2451 1.076,12.9023 -13.288,8.6688 -19.755,-5.8248 -36.987,-1.475 -54.339,13.7109 -11.214,9.0168 -12.494,17.7461 -20.7,4.4838 -6.473,-10.4566 -25.222,-15.6078 -37.632,-10.3367 -9.083,3.8563 -12.986,1.0392 -25.918,-18.7095 -13.661,-20.8649 -44.706,-3.9821 -52.727,28.6778 -2.235,9.1034 -2.786,9.3692 -8.352,4.0654 -7.261,-6.9204 -17.425,-7.471 -32.182,-1.7465 -13.57,5.2641 -19.192,11.3685 -23.724,25.7525 l -3.46,10.9888 19.643,-1.8128 c 10.804,-0.9954 73.61,-1.8187 139.565,-1.8256 z m -141.875,-12.2676 c 0.07,-2.8249 1.673,-5.0963 3.555,-5.0476 1.886,0.049 3.366,2.3997 3.293,5.2246 -0.07,2.8249 -1.673,5.0963 -3.558,5.0475 -1.883,-0.049 -3.363,-2.3996 -3.29,-5.2245 z m 410.152,-7.4167 c -3.085,-5.2913 1.457,-14.4969 7.078,-14.3516 6.007,0.1552 5.961,3.9341 -0.152,11.8529 -3.01,3.8976 -5.574,4.8232 -6.928,2.4987 z m -349.77,-13.4902 c -3.421,-5.8626 1.995,-20.3111 7.558,-20.1674 3.512,0.091 4.976,3.8137 4.761,12.1161 -0.306,11.8592 -7.398,16.4968 -12.319,8.0513 z m 269.592,-19.5629 c 0.09,-3.3898 2.057,-7.9645 4.374,-10.166 5.847,-5.5512 16.569,-4.7293 16.414,1.2568 -0.123,4.7663 -12.824,15.2825 -18.284,15.1414 -1.463,-0.038 -2.591,-2.8423 -2.504,-6.2322 z m 269.81,47.6341 c 23.388,-1.1532 68.765,-3.2082 100.836,-4.5662 32.07,-1.358 61.406,-2.9024 65.189,-3.4317 3.784,-0.5266 19.593,-0.7451 35.133,-0.4848 25.551,0.4291 28.272,-0.1559 28.426,-6.1394 0.217,-8.3975 -16.604,-21.2211 -28.23,-21.5216 -5.287,-0.1366 -14.212,4.3457 -22.073,11.086 -13.169,11.2955 -13.205,11.3023 -21.065,4.5951 -9.647,-8.2335 -21.101,-8.8353 -35.483,-1.8626 -10.603,5.1405 -11.103,5.0427 -17.73,-3.4443 -8.296,-10.6245 -16.268,-15.068 -33.406,-18.6255 -22.757,-4.7203 -32.928,-0.6454 -41.02,16.44 -5.596,11.8175 -8.414,14.5637 -12.824,12.5044 -12.384,-5.7884 -28.055,-6.2449 -36.436,-1.0701 -4.912,3.0417 -15.671,5.1123 -25.265,4.8643 -12.363,-0.3195 -18.369,1.3087 -23.086,6.257 -6.285,6.5934 -6.156,6.6944 9.068,7.0878 8.492,0.2195 34.576,-0.5455 57.966,-1.6987 z m 38.651,-27.1477 c 1.318,-7.5159 11.608,-15.9305 15.048,-12.3082 1.059,1.1118 0.271,6.0485 -1.746,10.9688 -4.505,10.985 -15.182,12.0581 -13.302,1.3394 z m -101.911,6.16 c 4.619,-2.8615 13.544,-4.6224 19.83,-3.9178 6.282,0.7046 16.45,-0.6464 22.588,-3.0061 6.422,-2.4681 16.937,-3.3656 24.75,-2.11 9.113,1.4638 13.536,0.8766 13.437,-1.7806 -0.292,-7.9943 -31.639,-49.3449 -38.282,-50.5008 -4.27,-0.7425 -18.775,7.5709 -38.661,22.1569 l -31.832,23.3434 8.919,10.0752 c 11.004,12.4342 9.267,11.919 19.251,5.7398 z m 378.403,10.2007 c 0.182,-7.0569 -27.053,-23.1151 -39.763,-23.4436 -13.277,-0.3431 -30.582,12.8011 -27.669,21.0174 1.696,4.7824 7.437,5.8714 34.669,6.5752 26.306,0.6798 32.659,-0.1248 32.763,-4.149 z m 64.965,5.2073 c 0.02,-0.809 -2.319,-3.9532 -5.203,-6.988 -7.215,-7.5976 -20.663,-7.2797 -29.686,0.7001 l -7.527,6.6591 21.189,0.5476 c 11.654,0.3011 21.206,-0.1124 21.227,-0.9188 z m -790.983,-49.5598 c 5.661,-5.3761 15.923,-10.6693 22.839,-11.7831 12.425,-1.9994 16.695,-6.9386 8.479,-9.8029 -2.335,-0.8159 -12.989,-4.1519 -23.671,-7.4192 -22.111,-6.7541 -38.643,-19.6344 -35.368,-27.5469 1.908,-4.6173 4.945,-4.3719 26.5,2.1419 13.39,4.0465 25.184,6.5613 26.209,5.5881 2.711,-2.5742 -11.135,-20.1623 -21.631,-27.4823 -10.301,-7.1815 -26.814,-8.4228 -46.771,-3.5164 -17.77,4.3693 -24.9,10.5941 -35.348,30.8538 l -8.503,16.4888 9.458,9.3029 c 5.2,5.1171 10.435,12.6841 11.63,16.8164 1.946,6.7342 3.879,7.3572 18.597,6.0004 11.538,-1.0664 19.356,0.1687 26.274,4.1482 5.416,3.1183 10.115,5.7349 10.437,5.8204 0.324,0.085 5.216,-4.2415 10.869,-9.6101 z m 67.063,-45.7482 c 0.04,-1.4766 4.961,-5.4071 10.939,-8.7346 8.894,-4.9482 15.02,-5.5557 33.655,-3.337 l 22.786,2.7141 32.906,-20.0854 c 33.902,-20.6892 73.103,-50.7882 73.244,-56.235 0.194,-7.509 -12.559,-2.1646 -28.4,11.9041 -28.774,25.5527 -90.638,48.3152 -147.193,54.162 -9.919,1.026 -18.05,2.4168 -18.068,3.0948 -0.02,0.6754 1.654,5.2002 3.716,10.0538 3.381,7.9585 16.246,13.0245 16.415,6.4632 z m 180.321,-109.8329 c 4.74,-4.5004 5.681,-9.4872 1.788,-9.4722 -1.414,0.014 -6.501,2.9235 -11.303,6.4844 -8.167,6.054 -8.278,6.4906 -1.716,6.7321 3.858,0.1507 8.914,-1.5427 11.231,-3.7443 z m 109.529,-0.1169 c -12.579,-7.0629 -12.628,-7.0642 -19.691,-0.3547 l -7.081,6.7245 19.694,0.3548 19.69,0.3547 -12.612,-7.0819 z m -145.631,-5.4698 c -4.112,-3.041 -9.068,-4.6056 -11.008,-3.4736 -5.837,3.4005 -0.375,8.5168 9.366,8.7685 l 9.119,0.2357 z m 21.478,-7.4396 c 1.081,-1.6526 -3.326,-3.7606 -9.788,-4.6857 -9.319,-1.333 -11.018,-0.7448 -8.194,2.8437 4.078,5.178 15.061,6.3048 17.982,1.842 z m 32.828,-27.7915 c 1.342,-14.8673 -2.864,-22.341 -6.848,-12.17 -1.315,3.358 -3.116,3.3321 -8.649,-0.1208 -6.004,-3.7528 -7.313,-3.4269 -9.304,2.3293 -3.727,10.7661 -15.418,8.1126 -17.513,-3.9757 -1.909,-11.0171 -3.314,-11.9785 -10.885,-7.4535 -4.033,2.4116 -3.94,4.1923 0.574,11.0031 2.96,4.4708 5.295,11.5466 5.187,15.7274 -0.167,6.4457 2.014,7.8693 14.321,9.3591 30.621,3.7028 31.495,3.3169 33.117,-14.6937 z m 115.89,16.6996 c -3.834,-12.7192 -37.123,-18.3541 -43.388,-7.3427 -2.045,3.5936 -3.74,7.4044 -3.768,8.4702 -0.03,1.0657 10.864,2.2183 24.206,2.5631 17.873,0.4619 23.911,-0.5075 22.95,-3.6906 z m -182.443,-19.2753 c -1.011,-2.8528 -3.213,-5.2225 -4.894,-5.266 -1.683,-0.043 -3.119,2.2322 -3.192,5.057 -0.07,2.8249 2.132,5.1947 4.897,5.2661 3.062,0.079 4.311,-1.8981 3.189,-5.0571 z m 545.511,202.4381 c -14.598,-6.8891 -20.295,-14.8304 -19.96,-27.8196 0.879,-33.9854 57.443,-43.7739 68.635,-11.8768 3.956,11.2705 -2.711,30.6386 -12.669,36.8005 -12.857,7.9578 -23.471,8.8116 -36.006,2.8959 z m 27.664,-14.8065 c 9.541,-9.0585 7.831,-20.6614 -3.927,-26.6573 -18.059,-9.2115 -41.398,2.9749 -35.265,18.4131 1.913,4.8165 2.703,4.4026 4.705,-2.4609 1.322,-4.5375 4.119,-8.772 6.212,-9.4118 4.994,-1.5208 7.368,18.595 2.716,23.013 -2.453,2.329 -0.09,3.5053 7.362,3.6979 6.499,0.168 13.902,-2.5137 18.197,-6.594 z m -216.027,1.0831 c -14.7,-6.3109 -20.266,-14.0997 -19.91,-27.867 0.471,-18.2332 11.976,-29.9648 32.628,-33.2729 19.812,-3.1756 25.295,-1.1657 31.448,11.5286 10.138,20.91 2.432,41.0504 -18.869,49.3117 -13.264,5.1436 -13.995,5.1504 -25.297,0.2996 z m 27.934,-21.2007 c 6.921,-6.9959 7.805,-9.9822 5.28,-17.8518 -2.354,-7.3436 -5.566,-9.7625 -14.388,-10.8436 -19.441,-2.3809 -34.46,16.8715 -23.296,29.865 8.111,9.4427 22.417,8.9259 32.404,-1.1696 z m -26.569,-1.1929 c -2.33,-1.011 -4.104,-5.1761 -3.939,-9.2552 0.275,-6.682 0.626,-6.8143 3.629,-1.3325 1.837,3.3444 5.663,6.1416 8.506,6.2151 2.84,0.073 4.173,1.6497 2.961,3.502 -2.359,3.6086 -4.468,3.7726 -11.157,0.8706 z m -571.691,-87.9844 c -27.751,-7.7403 -55.933,-28.1555 -65.432,-47.3992 -3.357,-6.8042 -5.173,-19.191 -4.854,-33.1237 0.662,-28.7154 12.855,-50.6672 43.057,-77.491 24.41,-21.6798 44.748,-29.8836 72.316,-29.1711 35.578,0.9194 81.796,37.0728 93.452,73.1065 5.301,16.3881 6.724,17.9128 18.806,20.1678 21.848,4.0749 19.897,19.7848 -2.383,19.209 -9.129,-0.2359 -11.616,1.437 -14.853,10.0005 -6.092,16.1271 -40.425,47.9555 -62.764,58.1866 -22.019,10.0851 -54.684,12.836 -77.345,6.5146 z m 39.556,-19.3892 c 4.983,0.078 5.139,-1.3397 1.421,-13.1128 -5.091,-16.1154 -0.875,-36.1406 9.726,-46.2099 9.486,-9.0059 28.989,-8.1549 48.911,2.1327 18.751,9.6817 18.552,9.6997 21.414,-1.8879 8.393,-33.9916 -41.251,-90.3497 -80.718,-91.6344 -11.572,-0.376 -37.784,10.4051 -52.191,21.4656 l -8.161,6.2648 14.053,-0.973 c 10.791,-0.7491 14.023,0.2082 13.921,4.1553 -0.09,3.6081 -6.506,6.0789 -21.629,8.3349 -12.623,1.8812 -23.313,5.5443 -25.894,8.8698 -6.103,7.8676 -3.239,9.4346 6.432,3.5146 11.19,-6.8496 28.769,-7.9937 28.61,-1.8613 -0.07,2.8763 -7.484,6.4289 -18.827,9.0216 -21.502,4.9128 -27.893,8.9774 -28.123,17.8808 -0.149,5.7447 1.02,5.5694 12.703,-1.9279 7.076,-4.5404 14.951,-7.7572 17.497,-7.1544 9.438,2.2432 4.815,8.1961 -12.485,16.0775 -20.049,9.1339 -22.26,15.1363 -12.094,32.8246 10.995,19.1256 51.923,38.9322 72.958,35.3077 3.784,-0.6525 9.399,-1.1422 12.476,-1.0883 z m 60.184,-85.6469 c -4.891,-6.2141 -13.689,-7.5413 -13.83,-2.0867 -0.05,1.9953 -1.61,2.636 -3.465,1.4214 -7.902,-5.169 1.988,-22.2182 12.728,-21.9406 7.429,0.192 15.967,16.1293 12.112,22.616 -2.933,4.9377 -3.648,4.9373 -7.545,-0.015 z m -13.991,69.6721 c 16.94,-11.0208 26.21,-19.1021 26.309,-22.9336 0.08,-3.1279 -33.507,-14.9534 -43.176,-15.2033 -10.064,-0.26 -15.709,7.8918 -16.542,23.8954 -0.529,10.1368 1.048,15.3454 5.744,18.9667 8.831,6.8171 10.32,6.5626 27.665,-4.7252 z m 421.026,34.6048 c -10.568,-8.7636 -11.68,-26.9065 -2.132,-34.811 19.715,-16.3199 36.625,-14.95 43.797,3.5449 5.418,13.9704 1.872,25.7073 -10.186,33.6961 -10.772,7.1378 -20.882,6.3575 -31.479,-2.43 z m 25.36,-10.8982 c 6.832,-7.8103 3.572,-20.4889 -5.665,-22.0408 -10.162,-1.7068 -18.106,4.7694 -11.305,9.2185 2.57,1.6803 3.727,5.3515 2.567,8.1535 -3.964,9.5778 7.002,13.1324 14.403,4.6688 z" fill="#00B894" transform="translate(-8.1846233,37.115308) matrix(0.26458333,0,0,0.26458333,-12548.243,-2406.2944)"/>
</svg>