<?xml version="1.0" ?><svg height="195.79243mm" viewBox="0 0 302.77179 195.79243" width="302.77179mm" xmlns="http://www.w3.org/2000/svg">
    <path d="m 47924.596,6855.1797 c -28.693,-0.4579 -89.203,11.2021 -96.619,68.7871 -7.911,61.4241 18.772,86.343 40.093,96.8418 71.939,19.3082 142.538,-33.3669 148.438,-69.3887 5.9,-36.0217 -60.945,-93.9465 -86.623,-95.998 -1.605,-0.1282 -3.376,-0.2117 -5.289,-0.2422 z m 218.265,75.2949 c -14.209,-0.1075 -32.086,1.2742 -41.447,5.2363 -14.978,6.3395 -18.535,7.6082 -17.941,35.168 -0.816,20.2195 8.748,34.3666 24.838,38.1035 16.09,3.7369 159.494,9.4746 167.947,3.0684 8.453,-6.4062 19.5,-39.3705 5.857,-47.5117 -13.644,-8.1412 -77.263,-26.2256 -90.758,-22.4219 -13.495,3.8036 -20.835,-7.6739 -29.511,-10.0762 -3.253,-0.9008 -10.459,-1.5019 -18.985,-1.5664 z m 269.916,62.4688 c -5.11,-0.1506 -11.18,2.3397 -17.384,7.8828 -12.407,11.0862 -2.142,26.5911 14.283,34.1426 v 0 c 0,0 10.801,-2.891 17.674,-9.4785 6.874,-6.5875 1.783,-14.5401 -2.948,-24.5821 -2.365,-5.0207 -6.514,-7.8123 -11.625,-7.9628 z m -539.955,70.9609 c -21.851,1.2603 -42.685,11.0948 -49.187,17.0254 -10.403,9.489 -22.916,49.9765 -22.916,49.9765 0,10e-5 -3.515,-0.5065 -20.807,6.7051 -17.292,7.2116 -30.787,32.3887 -30.787,32.3887 0,0 -43.017,-2.024 -54.123,12.6523 -11.106,14.6762 -4.887,42.6661 -4.887,42.6661 0,0 -55.986,9.3344 -56.97,31.0957 -0.984,21.7613 51.164,29.2988 51.164,29.2988 0,0 9.98,98.9378 27.974,133.2246 17.995,34.2869 66.637,81.0996 99.252,91.3477 0,0 -31.964,51.4052 -6.799,59.6289 29.52,9.6469 43.582,-46.0547 43.582,-46.0547 0,0 110.49,29.7284 312.508,39.9765 202.018,10.2481 371.361,-32.5332 371.362,-32.5332 0,0 47.998,47.7145 57.136,45.3106 9.138,-2.4039 -6.326,-62.2461 -6.326,-62.2461 0,0 72.964,-50.2299 100.096,-89.957 27.133,-39.7272 43.58,-155.3653 43.58,-155.3653 0,0 30.928,-17.7123 32.896,-35.8047 1.968,-18.0923 -60.74,-22.0254 -60.74,-22.0254 0,0 -6.6,-27.4444 -25.719,-30.6074 -19.12,-3.163 -30.793,20.0371 -30.793,20.0371 0,0 -38.092,-28.3874 -54.681,-29.1465 -16.589,-0.7591 -37.344,14.4297 -37.344,14.4297 0,0 -27.118,-17.0664 -44.973,-14.789 -17.854,2.2774 -28.677,15.5625 -28.677,15.5625 0,0 -1.828,-9.3629 -16.87,-9.2364 -15.043,0.1265 -34.584,7.9707 -34.584,7.9707 0,0 -3.514,-12.1453 -17.009,-16.9531 -13.496,-4.8078 -47.8,-10.8819 -62.842,-4.9355 -15.042,5.9464 -12.652,24.5449 -12.652,24.5449 0,0 -42.737,0.1276 -62.137,2.0254 -19.401,1.8978 -37.397,15.8144 -37.397,15.8144 0,0 -17.96,-30.2344 -35.99,-28.7207 -18.029,1.5136 -32.109,9.1485 -32.109,9.1485 0,0 -13.72,-18.89 -29.606,-19.2696 -15.885,-0.3795 -32.052,13.6653 -31.068,3.1641 0.984,-10.5012 -20.386,-36.0588 -41.473,-35.5527 -21.088,0.5061 -19.4,-9.1092 -31.49,-11.8926 -12.09,-2.7835 -75.635,6.4531 -75.635,6.4531 0,0 -16.167,-34.035 -45.408,-55.6699 -10.965,-8.1131 -24.44,-10.4437 -37.551,-9.6875 z m 599.772,27.6719 c -0.583,0 -1.174,0 -1.774,0.027 -19.192,0.7231 -32.403,16.8709 -25.797,38.3203 17.763,24.2612 44.186,6.5068 49.809,-9.6406 5.448,-15.6427 -4.183,-28.5716 -22.238,-28.707 z m 182.086,17.0761 c -11.196,0.1386 -18.122,4.201 -23.897,14.3633 0,0 -2.231,23.0554 9.819,29.5625 12.051,6.5071 34.993,1.9291 41.777,-6.4258 6.784,-8.3548 8.48,-32.3751 -12.408,-35.9902 -5.875,-1.0167 -10.91,-1.564 -15.291,-1.5098 z" fill="#FFFFFF" paint-order="markers stroke fill" transform="translate(87.359265,-59.897922) matrix(0.26458333,0,0,0.26458333,-12688.988,-1751.5831)"/>
    <path d="m 47791.963,7570.4426 c -4.75,-7.6988 -4.691,-10.083 0.642,-26.3959 3.223,-9.8631 5.891,-18.9788 5.925,-20.257 0.03,-1.2781 -8.676,-8.1196 -19.359,-15.2034 -10.683,-7.0837 -23.325,-16.5452 -28.092,-21.0255 -16.21,-15.2261 -38.36,-50.9999 -50.542,-81.6244 -11.6,-29.1745 -23.724,-84.5364 -23.149,-105.7111 0.232,-8.8175 -0.936,-10.0091 -10.145,-10.2596 -25.852,-0.7041 -43.477,-17.9984 -38.058,-37.3431 3.681,-13.1466 23.836,-27.604 41.487,-29.7617 14.254,-1.742 15.293,-2.5024 12.106,-8.8613 -11.603,-23.1771 18.399,-53.7761 51.833,-52.8658 9.297,0.2526 12.781,-1.6033 16.885,-8.9964 7.49,-13.4849 19.999,-23.3939 33.363,-26.4243 10.461,-2.3728 12.366,-4.7038 18.424,-22.5477 12.282,-36.1766 37.079,-51.0446 79.24,-47.5092 17.336,1.4541 26.197,4.0609 34.132,10.0428 10.629,8.0136 10.978,8.0444 42.944,3.7894 56.566,-7.5292 119.263,-29.1343 137.28,-47.3079 l 8.111,-8.1784 -10.475,-4.6767 c -14.824,-6.6175 -20.193,-16.6115 -19.644,-36.5506 0.714,-26.2915 9.636,-39.9935 29.773,-45.7674 9.144,-2.6223 18.067,-6.9632 19.83,-9.6456 4.527,-6.9035 29.933,-7.489 32.312,-0.745 1.278,3.6213 4.491,4.626 10.513,3.2877 7.26,-1.6135 9.255,-0.3129 12.249,7.9856 3.402,9.4415 3.716,9.5718 6.565,2.7362 3.467,-8.3152 12.802,-12.64 15.873,-7.3542 1.16,1.9936 5.957,2.7685 10.665,1.7221 6.716,-1.4924 8.912,-0.3815 10.2,5.1573 1.953,8.3872 5.273,9.024 11.29,2.164 7.852,-8.9551 13.91,-5.718 13.557,7.2463 -0.284,10.4515 0.769,12.0557 8.038,12.2537 11.571,0.315 26.237,6.7134 34.203,14.9235 3.681,3.7908 10.428,9.8958 14.993,13.5663 7.139,5.7362 7.636,7.4351 3.55,12.0961 -2.616,2.9822 -6.337,5.3795 -8.265,5.3269 -1.931,-0.052 -8.463,5.2454 -14.516,11.7731 -10.315,11.1279 -12.834,12.024 -40.297,14.3503 -16.114,1.3648 -38.35,2.2467 -49.418,1.9598 l -20.115,-0.5194 -35.182,30.2817 c -19.347,16.6553 -48.404,38.3982 -64.568,48.3182 -17.084,10.4842 -29.45,20.3914 -29.541,23.661 -0.129,4.3749 0.789,4.7335 4.084,1.6136 6.1,-5.7755 29.425,-4.2751 40.366,2.5968 10.022,6.2951 20.175,21.8334 19.938,30.5196 -0.129,4.7613 1.144,4.8097 12.379,0.4711 16.015,-6.186 29.889,-2.7729 39.913,9.8184 l 7.793,9.7875 8.54,-6.3823 c 4.701,-3.5104 15.666,-12.2345 24.37,-19.3866 37.812,-31.0659 68.93,-52.935 77.714,-54.6152 14.936,-2.8567 31.111,7.7831 46.867,30.8313 11.237,16.4325 15.71,20.4786 20.97,18.966 22.696,-6.5296 59.447,3.044 71.03,18.5037 4.532,6.0463 6.427,6.4884 13.228,3.0837 11.266,-5.6394 28.855,-4.4037 39.152,2.7497 8.123,5.6448 8.973,5.6847 11.121,0.5194 3.081,-7.4212 19.657,-15.184 31.722,-14.8556 5.323,0.1444 15.267,4.2893 22.101,9.2091 l 12.424,8.9453 8.427,-7.9822 c 17.486,-16.5566 51.176,-13.3526 69.265,6.5867 l 9.399,10.362 10.283,-8.1861 c 18.57,-14.7809 47.139,-6.8995 53.654,14.8005 l 3.511,11.7047 28.18,3.0317 c 32.016,3.4442 40.041,9.3671 39.502,29.157 -0.322,11.8192 -10.433,21.6431 -27.087,26.3165 -8.44,2.3686 -10.028,8.5958 -14.887,58.3582 -7.695,78.7838 -52.491,153.5489 -111.356,185.8578 -12.754,7.0001 -22.588,14.4323 -21.854,16.5161 0.735,2.0841 3.07,12.6556 5.187,23.493 3.396,17.3833 3.143,20.7176 -2.134,28.3102 -4.579,6.5935 -8.879,8.5272 -18.377,8.2684 -10.058,-0.2738 -15.016,-3.167 -26.264,-15.3289 -7.628,-8.2454 -16.048,-18.3439 -18.711,-22.4413 l -4.842,-7.4502 -41.543,10.2972 c -91.637,22.7141 -189.317,28.9178 -344.452,21.8765 -131.691,-5.9772 -183.41,-11.64 -238.713,-26.1376 -23.715,-6.218 -44.705,-11.3475 -46.644,-11.4003 -1.94,-0.052 -7.851,6.8464 -13.139,15.3315 -16.675,26.7543 -45.036,36.5112 -55.731,19.1737 z m 33.939,-23.9626 c 15.713,-16.9404 23.215,-46.9447 13.798,-55.2019 -7.113,-6.2367 -11.039,-0.5752 -19.479,28.0798 -4.422,15.0095 -9.243,30.1448 -10.712,33.6344 -2.289,5.4235 -1.709,5.8599 3.991,3.0062 3.666,-1.8363 9.247,-6.1194 12.402,-9.5185 z m 752.423,-0.7242 c -7.24,-29.9736 -18.51,-47.1658 -28.593,-43.6085 -9.319,3.2877 -4.73,19.9618 12.181,44.2451 18.195,26.1252 22.833,25.9455 16.412,-0.6366 z m -238.113,4.9614 c 61.608,-4.1057 86.885,-7.9932 145.081,-22.3127 33.955,-8.3549 39.273,-10.6411 41.261,-17.7344 3.173,-11.3289 21.221,-24.7999 32.807,-24.4846 5.313,0.1443 13.209,3.2973 17.54,7.0057 7.785,6.6627 8.079,6.647 24.945,-1.3295 22,-10.4057 49.159,-34.4072 64.709,-57.1829 19.258,-28.2098 36.688,-78.934 41.981,-122.1779 5.748,-46.985 5.769,-45.6042 -0.668,-45.7796 -12.073,-0.3286 -1.132,-8.8868 18.131,-14.1827 24.253,-6.6685 32.934,-13.1351 26.604,-19.82 -5.681,-5.9964 -236.202,-12.2178 -294.325,-7.9443 -39.935,2.9368 -175.46,9.185 -289.202,13.3331 -30.289,1.1043 -150.21,1.0234 -266.486,-0.1805 -116.277,-1.2034 -219.791,-1.1488 -230.031,0.1211 -11.661,1.4463 -20.42,4.6396 -23.444,8.545 -6.396,8.2652 -6.19,10.5105 1.711,18.8535 5.76,6.0848 11.308,7.1926 40.184,8.024 36.942,1.0653 49.99,5.3104 33.748,10.9845 -5.313,1.8553 -14.197,3.2499 -19.742,3.0988 -12.424,-0.3383 -12.666,2.3417 -4.463,49.7379 7.693,44.4439 30.738,96.6293 53.832,121.8982 18.04,19.7393 48.839,40.681 51.023,34.6888 4.204,-11.5563 16.282,-20.9035 26.645,-20.6212 19.795,0.5388 29.874,14.6171 30.13,42.0832 0,3.1528 4.045,5.6717 10.327,6.4771 5.653,0.7249 25.663,4.6319 44.464,8.6821 84.633,18.231 299.222,28.4804 423.238,20.2155 z m -511.345,-257.1692 c -51.962,-4.7713 -71.732,-10.9458 -35.63,-11.128 11.252,-0.057 24.325,0.047 29.049,0.2319 4.722,0.1831 64.282,0.7185 132.353,1.1875 74.939,0.5164 126.101,2.1779 129.691,4.2119 7.382,4.1843 7.478,12.0526 0.18,14.6277 -8.232,2.9044 -198.638,-3.8961 -255.643,-9.1305 z m 302.621,-1.0103 c 0.104,-3.7896 18.165,-5.4096 89.622,-8.0368 29.344,-1.0786 74.047,-3.0738 99.339,-4.4329 45.352,-2.4369 55.561,-1.5834 55.393,4.6309 -0.129,4.7943 -15.857,6.3992 -96.548,9.8537 -83.853,3.5894 -147.934,2.7163 -147.806,-2.0149 z m 277.236,-16.2216 c 10.983,-1.0985 23.424,-4.0539 57.897,-5.3421 79.556,-2.9735 145.145,-6.4264 177.609,-9.3506 26.401,-2.3779 36.015,-0.8454 33.749,5.3799 -2.377,6.5339 -20.41,8.6599 -99.098,11.6856 -42.784,1.6451 -120.502,5.6336 -152.786,5.1778 -32.284,-0.4558 -19.981,-7.2896 -17.371,-7.5506 z m -558.834,-60.4294 c 66.193,0.085 155.915,1.0627 199.381,2.1756 102.627,2.6266 177.12,-1.2282 177.338,-9.1789 0.206,-7.5409 -12.682,-19.5074 -24.345,-22.6027 -10.583,-2.8095 -28.136,4.0743 -31.59,12.3887 -3.471,8.356 -9.343,5.8825 -12.952,-5.456 -6.445,-20.2431 -29.374,-24.0796 -48.571,-8.1271 -17.572,14.6004 -20.712,13.124 -17.459,-8.2122 2.511,-16.4657 1.995,-18.7179 -6.133,-26.7747 -7.105,-7.0416 -12.66,-8.971 -27.85,-9.6699 -11.825,-0.5437 -20.002,-2.6381 -21.696,-5.5558 -2.218,-3.8182 -5.318,-3.9802 -16.809,-0.8762 -7.746,2.093 -24.179,4.4717 -36.519,5.2858 -23.102,1.5247 -25.019,2.9859 -19.193,14.6254 5.151,10.2895 1.062,12.9502 -13.347,8.6806 -19.817,-5.8713 -37.117,-1.5318 -54.552,13.6849 -11.265,9.0323 -12.562,17.7899 -20.778,4.4713 -6.482,-10.5043 -25.29,-15.6997 -37.749,-10.4274 -9.122,3.8597 -13.035,1.0265 -25.984,-18.8094 -13.681,-20.9598 -44.86,-4.0598 -52.955,28.7042 -2.255,9.1325 -2.809,9.4006 -8.386,4.0696 -7.277,-6.9549 -17.476,-7.5231 -32.295,-1.7979 -13.624,5.2645 -19.275,11.3813 -23.843,25.81 l -3.488,11.0239 19.717,-1.7917 c 10.842,-0.9856 73.871,-1.7236 140.058,-1.6401 z m -142.358,-12.5078 c 0.07,-2.8348 1.686,-5.1119 3.576,-5.0606 1.892,0.052 3.375,2.413 3.297,5.2477 -0.08,2.8348 -1.686,5.1118 -3.578,5.0606 -1.89,-0.052 -3.372,-2.413 -3.295,-5.2477 z m 411.613,-6.8734 c -3.091,-5.3138 1.482,-14.5453 7.123,-14.3916 6.027,0.165 5.976,3.9564 -0.18,11.894 -3.027,3.9077 -5.603,4.8322 -6.955,2.4976 z m -350.989,-14.0222 c -3.424,-5.8897 2.032,-20.3807 7.612,-20.2289 3.528,0.095 4.989,3.8345 4.762,12.165 -0.322,11.9025 -7.445,16.5444 -12.374,8.0639 z m 270.574,-19.2582 c 0.104,-3.4017 2.073,-7.9898 4.403,-10.196 5.873,-5.562 16.634,-4.7226 16.471,1.2852 -0.129,4.7814 -12.893,15.3175 -18.371,15.1683 -1.47,-0.038 -2.595,-2.856 -2.503,-6.2575 z m 270.695,48.1771 c 23.473,-1.1244 69.014,-3.1234 101.199,-4.4418 32.186,-1.3186 61.627,-2.8272 65.424,-3.3527 3.798,-0.5253 19.665,-0.7228 35.259,-0.4386 25.641,0.466 28.371,-0.1187 28.535,-6.1218 0.232,-8.4272 -16.635,-21.3185 -28.3,-21.6361 -5.305,-0.1444 -14.269,4.3418 -22.166,11.0935 -13.232,11.3163 -13.268,11.3241 -21.147,4.5821 -9.669,-8.2761 -21.162,-8.895 -35.607,-1.9178 -10.647,5.1428 -11.15,5.0446 -17.786,-3.4815 -8.31,-10.6729 -16.305,-15.1446 -33.498,-18.7365 -22.83,-4.77 -33.044,-0.6935 -41.188,16.44 -5.633,11.8499 -8.464,14.6045 -12.887,12.5298 -12.419,-5.8263 -28.147,-6.3047 -36.564,-1.1114 -4.932,3.0451 -15.733,5.1085 -25.36,4.8463 -12.407,-0.3377 -18.437,1.2878 -23.178,6.2463 -6.313,6.6085 -6.185,6.7086 9.09,7.1247 8.523,0.232 34.702,-0.4984 58.174,-1.6234 z m 38.827,-27.1912 c 1.331,-7.5387 11.671,-15.9705 15.118,-12.3299 1.059,1.1183 0.263,6.0709 -1.769,11.0056 -4.537,11.0163 -15.251,12.0792 -13.349,1.3243 z m -102.281,6.0413 c 4.64,-2.8639 13.599,-4.6205 19.905,-3.9038 6.303,0.7164 16.509,-0.6273 22.673,-2.9866 6.447,-2.4669 17.002,-3.3517 24.839,-2.082 9.145,1.4808 13.583,0.8992 13.488,-1.768 -0.281,-8.0244 -31.681,-49.5629 -38.348,-50.732 -4.282,-0.751 -18.85,7.5718 -38.829,22.1801 l -34.506,24.7381 c 1.876,-1.3448 16.28,7.3786 18.776,18.6479 1.143,5.1662 1.974,2.0924 12.002,-4.0937 z m 379.727,10.7628 c 0.206,-7.0815 -27.118,-23.234 -39.871,-23.5813 -13.323,-0.3627 -30.707,12.8033 -27.797,21.0523 1.697,4.8015 7.456,5.9026 34.783,6.6465 26.398,0.719 32.774,-0.08 32.885,-4.1175 z m 65.186,5.3146 c 0,-0.8101 -2.32,-3.9686 -5.21,-7.0194 -7.231,-7.6342 -20.727,-7.3341 -29.793,0.6625 l -7.562,6.6714 21.263,0.579 c 11.694,0.3183 21.282,-0.085 21.302,-0.8935 z m -793.708,-50.8322 c 5.69,-5.3869 15.994,-10.6854 22.936,-11.7934 12.47,-1.9895 16.762,-6.9389 8.523,-9.8262 -2.344,-0.8206 -13.029,-4.1851 -23.746,-7.4767 -22.178,-6.8108 -38.752,-19.7571 -35.455,-27.6953 1.923,-4.6301 4.968,-4.3794 26.593,2.1877 13.43,4.0792 25.264,6.6187 26.292,5.6432 2.725,-2.5787 -11.145,-20.249 -21.668,-27.6081 -10.327,-7.2215 -26.896,-8.4903 -46.932,-3.5939 -17.84,4.3601 -25.001,10.5965 -35.514,30.913 l -8.556,16.5346 9.476,9.3491 c 5.212,5.1417 10.453,12.7439 11.649,16.8932 1.944,6.7608 3.881,7.3885 18.655,6.0454 11.578,-1.0526 19.423,0.1985 26.36,4.2013 5.432,3.1351 10.145,5.7693 10.467,5.8538 0.324,0.083 5.238,-4.2479 10.92,-9.6277 z m 168.043,-75.2238 c 34.052,-20.717 73.433,-50.8674 73.583,-56.3333 0.207,-7.5359 -12.602,-2.1881 -28.517,11.9072 -28.913,25.6027 -91.026,48.3608 -147.788,54.1489 -9.957,1.0152 -18.118,2.4014 -18.137,3.0799 0,0.6788 2.746,10.4508 4.808,15.3239 39.695,12.4205 93.33,-14.1058 116.051,-28.1266 z m 80.43,-80.5645 c 4.764,-4.5078 5.715,-9.512 1.808,-9.5024 -1.419,0 -6.528,2.9247 -11.351,6.4916 -8.204,6.0645 -8.317,6.5027 -1.733,6.7535 3.872,0.147 8.949,-1.5367 11.276,-3.7427 z m 109.918,0.036 c -14.326,-2.0952 -12.664,-7.1067 -19.76,-0.3859 l -7.116,6.7375 19.763,0.386 c 10.021,-0.6412 20.384,3.1166 29.622,-7.5759 -7.717,1.7798 -14.828,1.9616 -22.509,0.8383 z m -146.139,-5.6914 c -4.121,-3.0585 -9.092,-4.6342 -11.043,-3.5017 -5.863,3.4058 -0.388,8.5476 9.388,8.8137 l 9.15,0.25 z m 21.565,-7.4372 c 1.085,-1.6561 -3.333,-3.778 -9.816,-4.7148 -9.35,-1.3504 -11.057,-0.7616 -8.227,2.8416 4.084,5.2034 15.104,6.3478 18.043,1.8732 z m 32.98,-27.8429 c 1.369,-14.919 -2.84,-22.4243 -6.854,-12.222 -1.323,3.3679 -3.13,3.339 -8.68,-0.1391 -6.02,-3.7753 -7.332,-3.4486 -9.338,2.3244 -3.756,10.7997 -15.483,8.1201 -17.571,-4.0134 -1.9,-11.0595 -3.308,-12.0264 -10.913,-7.4959 -4.05,2.414 -3.96,4.2015 0.562,11.0435 2.965,4.4898 5.297,11.5958 5.184,15.7912 -0.18,6.4663 2.008,7.8996 14.357,9.4107 30.724,3.76 31.601,3.3724 33.253,-14.6989 z m 116.278,16.9203 c -3.829,-12.7708 -37.228,-18.4708 -43.532,-7.4288 -2.058,3.602 -3.761,7.4239 -3.792,8.4933 -0.03,1.069 10.899,2.242 24.287,2.6065 17.938,0.4883 23.998,-0.4774 23.037,-3.671 z m -183.06,-19.5983 c -1.011,-2.8645 -3.218,-5.2455 -4.906,-5.2917 -1.689,-0.047 -3.133,2.236 -3.209,5.0707 -0.07,2.8348 2.131,5.2158 4.907,5.2916 3.071,0.083 4.329,-1.8982 3.208,-5.0706 z m 547.158,203.9114 c -14.641,-6.9334 -20.348,-14.9116 -19.993,-27.9445 0.928,-34.1059 57.706,-43.8504 68.895,-11.8242 3.955,11.3169 -2.764,30.7426 -12.767,36.9136 -12.913,7.9667 -23.565,8.8081 -36.135,2.8551 z m 27.78,-14.82 c 9.587,-9.0782 7.889,-20.7246 -3.903,-26.758 -18.11,-9.2672 -41.549,2.9297 -35.416,18.4305 1.916,4.8349 2.707,4.4205 4.725,-2.4637 1.333,-4.5517 4.149,-8.7973 6.249,-9.4351 5.012,-1.5211 7.368,18.67 2.691,23.0973 -2.464,2.3324 -0.103,3.5164 7.384,3.72 6.522,0.178 13.955,-2.5032 18.27,-6.591 z m -216.79,0.7868 c -14.743,-6.3525 -20.319,-14.1784 -19.943,-27.9941 0.5,-18.2962 12.06,-30.0532 32.789,-33.3445 19.887,-3.1584 25.389,-1.1339 31.544,11.6132 10.145,20.9984 2.383,41.1998 -19.005,49.4596 -13.317,5.1431 -14.05,5.1508 -25.385,0.2658 z m 28.061,-21.2376 c 6.956,-7.0117 7.848,-10.0054 5.324,-17.9078 -2.354,-7.3717 -5.573,-9.8035 -14.424,-10.9004 -19.507,-2.4163 -34.604,16.8831 -23.42,29.9381 8.125,9.4861 22.484,8.987 32.52,-1.1299 z m -26.661,-1.2345 c -2.335,-1.0172 -4.111,-5.1987 -3.939,-9.2917 0.283,-6.7053 0.637,-6.8376 3.643,-1.3333 1.838,3.3596 5.674,6.1718 8.525,6.2495 2.852,0.078 4.19,1.6615 2.97,3.5194 -2.375,3.6164 -4.49,3.7784 -11.199,0.8561 z m -573.59,-89.0887 c -41.787,-13.7178 -71.273,-40.3994 -70.423,-80.9049 0.605,-28.8165 6.62,-55.269 36.965,-82.1454 24.528,-21.7205 51.3,-25.486 78.965,-24.7327 35.702,0.9721 82.033,37.3177 93.681,73.4934 5.298,16.4553 6.723,17.9874 18.845,20.2656 21.917,4.1195 19.94,19.8824 -2.418,19.2734 -9.163,-0.2501 -11.661,1.427 -14.92,10.0163 -6.137,16.1748 -40.634,48.0676 -63.067,58.3048 -22.108,10.0895 -55.196,13.7935 -77.628,6.4295 z m 41.266,-14.516 c 13.785,-0.7498 3.616,-6.2241 -0.1,-18.0436 -5.086,-16.1799 -0.828,-36.2696 9.824,-46.3593 9.532,-9.0247 29.103,-8.1447 49.083,2.2076 18.801,9.7426 18.602,9.7599 21.49,-1.8635 8.502,-34.2316 -19.105,-84.6635 -81.137,-92.0781 -15.683,-1.8746 -56.739,9.3782 -71.55,26.863 -22.182,26.1861 -27.908,68.7247 -12.275,90.4759 21.603,30.0571 40.656,42.4102 84.663,38.798 z m 58.973,-90.7529 c -4.9,-6.2421 -13.727,-7.5852 -13.876,-2.1113 -0.05,2.0012 -1.62,2.641 -3.478,1.4214 -7.922,-5.1996 2.026,-22.2957 12.802,-22.002 7.455,0.2036 16.002,16.209 12.125,22.713 -3.074,3.487 -5.56,2.5305 -7.573,-0.021 z m 408.33,105.2119 c -10.596,-8.8107 -11.684,-27.0187 -2.091,-34.9375 19.807,-16.3493 36.775,-14.9523 43.946,3.6182 5.417,14.0288 1.841,25.8014 -10.27,33.8014 -10.82,7.149 -20.964,6.3519 -31.585,-2.4821 z m 25.465,-10.9028 c 6.865,-7.8285 3.611,-20.5557 -5.653,-22.1254 -10.2,-1.7271 -18.178,4.7596 -11.362,9.234 2.578,1.6919 3.732,5.3761 2.565,8.1872 -3.991,9.6071 7.009,13.1881 14.45,4.7042 z" fill="#00B894" transform="translate(87.359265,-59.897922) matrix(0.26458333,0,0,0.26458333,-12688.988,-1751.5831)"/>
</svg>