<?xml version="1.0" ?><svg height="139.26712mm" viewBox="0 0 231.14127 139.26712" width="231.14127mm" xmlns="http://www.w3.org/2000/svg">
    <path color="#000" d="m 1969.6204,1251.636 7.4297,18.6289 16.58,-2.0703 2.4629,34.2363 c 0,0 -35.7267,19.1916 -45.5781,48.3418 -9.8515,29.1502 13.1348,147.0937 13.1348,147.0937 l -51.4786,-0.07 c 0,0 -24.4798,-75.8979 -39.4062,-98.7344 -14.9265,-22.8366 -80.9003,-33.7187 -137.3223,-16.1211 -56.422,17.5976 -70.9015,31.8387 -67.1699,72.6758 3.7316,40.8372 33.2871,210.4981 33.2871,210.4981 0,0 -18.8086,3.0902 -48.0644,11.6875 0,0 6.2693,21.4927 33.4355,38.0156 27.1661,16.523 78.0972,22.1 118.9648,25.1205 81.6568,6.035 120.9643,-51.5919 271.6434,-3.6899 66.1723,21.0366 150.9071,-9.942 203.1496,-31.0322 52.2425,-21.0903 121.3516,-18.5374 179.8633,-27.1347 58.5117,-8.5973 41.9437,-49.0303 58.8106,-64.4785 16.8668,-15.4483 -30.0028,-20.4182 -27.0176,-38.6875 2.9853,-18.2692 -30.3008,-14.6426 -30.3008,-14.6426 -13.7481,-4.3644 -26.2576,-17.6455 -43.7344,4.8359 -15.8071,-17.7932 -31.7653,-28.5763 -48.3613,-9.8066 l -36.6992,-140.0449 84.1406,-4.1485 -5.6484,-50.7226 -60.75,3.0879 2.8945,-70.1993 -46.9277,9.4825 7.9121,60.1796 -71.5196,-6.9589 -9.3828,34.6328 58.9668,5.4199 19.0996,120.7168 c 0,0 -16.9097,1.3014 -64.2265,-0.3106 -6.8662,-66.629 -36.229,-107.6914 -69.5,-112.6992 -33.271,-5.0078 -84.9473,8.9024 -84.9473,8.9024 0,0 -1.492,-34.6569 -2.2383,-60.3145 -0.7463,-25.6575 -48.7402,-46.539 -48.7402,-46.539 l -0.7852,-22.2637 17.4336,-13.4102 -4.1797,-14.373 z" fill="#FFFFFF" overflow="visible" paint-order="fill markers stroke" transform="translate(91.014605,-95.621895) matrix(0.26458333,0,0,0.26458333,-527.42641,-226.61445)"/>
    <path d="m 2019.8681,1217.9123 c -12.8998,-0.1432 -15.4863,1.0344 -15.4863,7.0528 0,2.4798 -0.6107,4.714 -1.3574,4.9629 -0.7466,0.2489 -1.737,3.659 -2.2012,7.578 l -0.8437,7.125 -8.7989,-0.9492 c -14.296,-1.5425 -15.3391,-1.6915 -18.2089,-2.6133 -1.7503,-0.5621 -3.8053,-0.01 -5.6778,1.539 -2.3771,1.9616 -3.093,4.3491 -3.7695,12.5664 -1.182,14.3569 0.21,22.3422 4.1543,23.8418 1.7114,0.6506 3.4547,1.74 3.875,2.42 0.8794,1.423 13.902,0.7354 16.0566,-0.8477 0.7914,-0.5815 2.6388,-1.0196 4.1055,-0.9746 2.357,0.073 2.7919,1.3755 3.75,11.2207 0.596,6.126 0.8783,11.3442 0.627,11.5957 -14.661,1.3453 -17.1101,5.4313 -27.8868,14.4414 -5.3635,4.4834 -9.2019,8.8248 -9.7558,11.0313 -0.5021,2.001 -2.3478,4.8731 -4.1016,6.3828 -5.0349,4.3345 -8.7141,24.5533 -5.4336,29.8613 0.5447,0.8812 0.3599,3.5411 -0.4101,5.9102 -2.618,8.0542 -2.0648,43.0714 1.0156,64.3066 0.7447,5.1333 1.3943,10.234 1.4453,11.334 0.6127,13.3976 3.1586,36.7884 5.877,54 4.1964,26.5681 5.4074,38.3515 4.3691,42.4883 -1.311,5.2237 -6.3456,5.5167 -13.7676,0.8007 -5.1493,-3.2719 -7.5188,-3.971 -12.166,-3.5859 -3.1745,0.2629 -6.2838,1.3062 -6.9082,2.3164 -1.5436,2.4976 0.8635,6.6465 3.8555,6.6465 1.3286,0 3.7991,1.1994 5.4902,2.666 1.691,1.4667 3.5676,2.668 4.1699,2.668 0.6024,0 1.9593,1.6702 3.0156,3.7129 2.7383,5.295 7.8847,7.8039 12.084,5.8906 2.568,-1.1701 4.112,-1.0732 7.0117,0.4395 6.988,3.6449 9.9829,2.179 11.67,-5.711 0.5174,-2.4204 1.7642,-4.332 2.8222,-4.332 1.0418,0 1.8926,-0.6381 1.8926,-1.418 0,-0.9052 3.7916,-1.3194 10.4824,-1.1426 5.7656,0.1526 11.1949,-0.1617 12.0645,-0.6992 0.8696,-0.5374 2.5108,-0.6213 3.6465,-0.1855 1.1627,0.4462 4.5995,-0.9177 7.8672,-3.1231 l 5.8046,-3.916 0.8126,5.5742 c 0.4469,3.0665 0.9889,7.0769 1.205,8.9102 0.2162,1.8333 1.052,4.8326 1.8574,6.666 2.546,5.7948 7.1004,35.7783 9.2149,60.666 2.902,34.155 3.1522,42.3265 1.2695,41.6074 -0.8563,-0.327 -5.4579,-0.028 -10.2246,0.6641 -18.6898,1.9072 -29.6773,5.4727 -43.0957,19.2305 -5.517,5.7413 -7.5054,8.8965 -8.1504,12.9297 -0.9608,6.0088 -0.01,7.4884 6.3047,9.8007 2.351,0.861 4.7447,1.6101 5.3184,1.6661 0.5738,0.056 2.7882,-3.6697 4.9218,-8.2793 2.4597,-5.3143 5.7985,-9.9244 9.125,-12.5977 5.6178,-4.5146 17.9788,-9.2461 27.5977,-10.5645 9.1283,-1.8909 19.7111,4.1592 21.2813,8.7754 1.9273,6.0724 20.3338,3.0701 31.3417,-5.1132 2.5537,-1.8986 6.4531,-3.7573 8.6661,-4.1309 3.6012,-0.6081 3.9884,-1.1329 3.6855,-5 -0.2966,-3.7861 0.064,-4.3223 2.9199,-4.3223 5.9612,-0.6193 10.842,3.6506 14.916,6.6075 5.5434,4.0765 15.3554,7.0838 18.8008,5.7617 1.0836,-0.4157 2.36,-0.2153 2.836,0.4453 0.476,0.6608 4.3852,2.9972 8.6875,5.1933 10.5139,6.2351 16.7041,10.2584 28.1777,5.2813 2.2,-0.9826 7.1994,-4.5247 11.1094,-7.8711 4.9773,-4.2599 8.2956,-6.084 11.0664,-6.084 4.3438,0 11.0034,2.9599 15.1582,6.7363 1.4667,1.3332 5.6654,2.8162 9.332,3.295 6.428,0.8395 6.7539,0.7209 9.0977,-3.2852 3.2195,-5.5025 1.9556,-11.7458 -2.7403,-13.5312 -2.6179,-0.9953 -3.9591,-0.7811 -5.8515,0.9316 -1.7698,1.6017 -2.9271,1.8304 -4.1465,0.8184 -0.9305,-0.7721 -5.5927,-2.6877 -10.3594,-4.2559 -6.4426,-3.271 -15.2558,-5.0401 -21.332,-1.5391 -2.5667,0.8349 -8.255,4.2138 -12.6406,7.5079 -4.3856,3.2937 -8.948,5.9882 -10.1387,5.9882 -1.1906,0 -3.9037,-1.6343 -6.0274,-3.6328 -2.1238,-1.9986 -4.3983,-3.4701 -5.0546,-3.2695 -0.6562,0.2007 -2.7557,-1.1252 -4.6661,-2.9473 -4.4286,-4.2237 -9.3186,-6.0644 -13.8242,-5.2031 -4.7562,2.1552 -11.4781,-2.8389 -14.1172,-4.1758 -5.7607,-2.9791 -15.1261,-6.063 -18.4843,-6.084 -4.0802,-0.027 -5.6016,-3.5766 -5.7969,-13.5215 -0.092,-4.6744 -0.699,-11.198 -1.3496,-14.498 -0.6506,-3.3 -1.4553,-8.4006 -1.7871,-11.334 -0.6722,-5.9414 -5.5443,-39.9527 -7.3535,-51.334 -1.1209,-7.0504 -0.979,-19.5848 0.6953,-61.332 0.6443,-16.065 1.3203,-20.724 3.9941,-27.5605 1.7696,-4.5251 3.2168,-8.8764 3.2168,-9.668 0,-0.7915 0.4581,-1.4395 1.0176,-1.4395 0.5594,0 1.6081,-1.3315 2.332,-2.959 1.672,-3.7593 17.1395,-12.6698 24.8066,-14.291 18.2178,-3.8521 26.0859,-5.809 28.4571,-7.0781 11.5978,-3.2573 35.4804,-10.7438 46.1406,-9.6172 0.5814,0.3593 3.8547,-0.095 7.2754,-1.0097 5.388,-1.4411 6.4257,-1.3834 7.7617,0.4316 0.8481,1.1523 3.7834,3.1561 6.5235,4.4531 16.5821,7.8491 22.266,24.0574 23.166,66.0703 0.7135,33.3095 2.5677,56.0749 5.8633,72 1.4416,6.9667 2.6256,14.0173 2.6386,15.668 0.011,1.9494 -2.8786,5.7842 -8.2461,10.9395 -7.858,7.5475 -8.1523,8.0575 -6.0234,10.4101 1.3562,1.4985 3.7592,2.3669 6.0976,2.2051 2.515,-0.1742 5.0853,0.8688 7.3731,2.9902 l 3.5117,3.2559 -0.6758,22.2656 c -0.622,20.5285 -1.1381,26.4145 -2.8535,32.5313 -0.8874,3.1637 6.589,6.8673 12.0098,5.9492 2.2864,-0.3872 8.9575,-1.6642 14.8242,-2.8379 5.8666,-1.1737 13.6918,-1.9645 17.3906,-1.7559 7.1718,0.4047 13.9434,-2.6286 13.9434,-6.248 0,-4.9994 -12.6271,-13.4309 -14.1543,-9.4512 -0.475,1.2382 -3.794,2.1834 -9.6192,2.7402 -4.8916,0.4676 -10.9939,1.1172 -13.5605,1.4434 l -4.666,0.5918 0.3984,-13.6816 c 1.0536,-36.0828 0.9422,-42.6861 -0.7324,-43.3282 -0.9167,-0.3515 -1.666,-1.4745 -1.666,-2.4961 0,-1.1271 -1.443,-1.8754 -3.668,-1.9004 -3.5372,-0.041 -3.5725,-0.1084 -1,-1.9531 1.4667,-1.0516 3.4173,-2.5565 4.334,-3.3437 2.228,-1.9134 2.1143,-10.7478 -0.2188,-16.9668 -1.0374,-2.7648 -1.8984,-5.9274 -1.8984,-7.0274 -0.01,-1.1 -0.625,-5.6 -1.375,-10 -1.2989,-7.6191 -1.9199,-21.7489 -1.5742,-35.7949 l 0.1582,-6.4629 8.9551,0.8653 c 4.9246,0.476 10.0038,1.1744 11.2871,1.5527 1.2833,0.3782 2.332,0.09 2.332,-0.6387 0,-0.7289 1.0506,-1.5379 2.334,-1.7988 1.9909,-0.4048 1.7865,-0.9879 -1.3887,-3.9688 -2.9711,-2.7892 -5.5917,-3.6813 -13.0039,-4.4257 -9.437,-0.9473 -12.0952,-2.3717 -9.4238,-5.043 3.1722,-3.1723 0.8222,-31.9001 -3.8516,-47.0899 -4.8928,-15.9011 -12.3925,-26.3615 -22.5605,-31.4648 -7.0497,-3.5383 -7.9935,-4.5315 -7.1953,-7.584 -14.2044,-39.354 -65.0208,-25.0658 -84.4512,-20.2812 -39.9161,8.4137 -89.8313,13.8406 -95.7363,47.0527 -5.4731,13.8171 -9.3894,31.1601 -15.5274,68.7773 -0.8702,5.3326 -1.8538,9.4255 -2.1855,9.0938 -0.7231,-0.7231 -13.9472,7.1633 -15.2715,9.1074 -1.0662,1.5656 -2.7512,-1.9462 -2.2832,-4.7578 0.1652,-0.9922 -0.045,-2.7047 -0.4668,-3.8047 -5.5953,-48.5482 -7.25,-103.9246 0.5273,-151.334 2.4942,-16.3556 14.155,-33.0347 24.1582,-38.6093 5.5136,-2.8606 18.2291,-2.3839 30.3907,1.1386 6.1916,1.7934 11.4398,3.0796 11.6621,2.8575 1.308,-1.3082 -1.9093,-7.8804 -4.7774,-9.7598 -5.5343,-3.6261 -20.1891,-6.7998 -31.7812,-6.8828 -14.984,-0.1063 -18.6083,0.8659 -23.5606,6.3203 -7.4909,5.9363 -11.7198,14.9801 -16.2382,21.5859 -10.0997,14.7052 -10.765,19.7706 -10.3262,78.6836 0.2353,31.5991 1.1188,57.8517 2.4004,71.334 3.7631,39.5885 3.8407,35.332 -0.6485,35.332 -2.1508,0 -4.8575,0.3654 -6.0175,0.8106 -1.718,0.6592 -2.1255,-0.268 -2.1895,-5 -0.077,-5.6969 -1.6824,-19.2312 -5.75,-48.4766 -1.122,-8.0666 -2.3332,-17.9666 -2.6914,-22 -0.3581,-4.0333 -1.6601,-17.5333 -2.8945,-30 -2.4494,-24.7398 -2.4659,-25.1724 -2.0567,-59.7519 0.2468,-20.8653 0.5959,-24.2684 2.8711,-28 1.4246,-2.3363 2.5957,-5.2429 2.5957,-6.459 0.01,-3.4375 11.1853,-16.3286 18.1699,-20.9551 3.4606,-2.2922 8.0417,-4.168 10.1797,-4.168 3.11,0 4.1941,-0.8124 5.4239,-4.0703 1.0994,-2.9128 2.2108,-3.8974 3.9023,-3.4551 1.432,0.3745 2.9132,-0.4057 3.7559,-1.9804 1.1401,-2.1303 1.8333,-18.2625 1.3457,-31.3203 -0.1468,-3.933 -10.088,-6.8035 -16.1914,-4.6758 -4.8171,-0.171 -7.6554,2.3422 -11.5801,2.2383 l -5,-0.168 -0.4063,-7.7871 c -0.3674,-7.0623 -0.1811,-7.6953 2,-6.791 1.3226,0.5484 5.1063,0.9876 8.4063,0.9746 3.3,-0.013 6.5987,0.3653 7.332,0.8398 3.2354,2.0935 17.2975,3.8261 19.5645,2.4102 1.803,-1.1259 2.8263,-0.8697 4.7031,1.1816 5.3304,5.8264 8.7378,6.4887 17.5996,3.4219 9.9109,-3.4299 10.8008,-3.4642 10.8008,-0.418 0,1.32 0.7196,3.12 1.5996,4 2.6272,2.6272 -0.7751,4.7534 -10.6563,6.6582 -15.296,2.9486 -16.1554,3.1882 -17.5781,4.9024 -0.9767,1.1767 -0.75,3.1892 0.7656,6.8164 1.4144,3.3849 1.8879,7.0563 1.3848,10.7265 -0.6676,4.8709 -0.3546,5.8472 2.457,7.6895 1.7716,1.1608 4.1528,4.0778 5.293,6.4805 2.2042,4.6452 9.0899,8.4955 17.0391,9.5293 9.5933,1.2474 19.895,6.3235 24.7285,12.1875 6.3097,7.6548 11.7997,35.4791 10.3887,52.6484 l -0.7657,9.3281 4.3379,2.6446 c 5.1765,3.1562 8.0781,3.3246 12.0821,0.7011 2.7187,-1.7813 3.0172,-3.1674 3.3769,-15.666 0.4304,-14.9548 -3.1921,-36.716 -7.5195,-45.1699 -6.0238,-11.7678 -10.8925,-17.0537 -19.4844,-21.1543 -4.674,-2.2306 -9.0885,-4.0547 -9.8105,-4.0547 -0.722,0 -2.0598,-0.9 -2.9727,-2 -0.913,-1.1 -3.5366,-2.0026 -5.8301,-2.0156 -2.2936,-0.01 -6.2692,-0.3616 -8.8359,-0.7871 l -4.668,-0.7754 -0.3926,-11.1309 -0.3925,-11.1328 4.916,-1.3574 c 2.8665,-0.7915 5.8178,-0.8757 7.0781,-0.2012 1.3519,0.7235 3.8371,0.4541 6.6309,-0.7207 2.4574,-1.0332 5.5407,-1.8789 6.8535,-1.8789 3.3543,0 2.4703,-7.4148 -2.3086,-19.3516 -4.596,-11.4797 -8.8079,-14.2371 -20.7168,-13.5683 -4.2167,0.2372 -7.668,0.216 -7.668,-0.047 0,-0.263 0.9437,-5.0421 2.0957,-10.6191 1.1906,-5.7643 1.5799,-10.4864 0.9024,-10.9433 -0.6554,-0.4421 -1.5829,-1.8639 -2.0606,-3.1582 -1.2702,-3.4411 -5.6367,-4.6325 -17.4512,-4.7637 z m 308.8321,75.3808 c -25.3969,-0.242 -29.6785,0.9725 -29.6035,8.3965 0.026,2.5711 0.9046,8.5752 1.9531,13.3418 1.0485,4.7667 1.9281,9.0719 1.9531,9.5683 0.026,0.4963 -1.6044,1.7351 -3.6211,2.7539 -10.081,5.0929 -25.1013,16.1763 -29.498,21.7657 -2.6594,3.3802 -3.1702,3.3812 -17.502,0.017 -1.8333,-0.4304 -7.1716,-0.8477 -11.8633,-0.9277 -12.1393,-0.2053 -11.7699,-1.1381 -12.1523,30.5352 -0.1597,13.2374 0.2627,19.6425 1.3828,20.9921 1.5126,1.8226 12.2877,1.9817 25.2988,0.3731 3.093,-0.3824 3.4091,0.1114 4.4102,6.9199 2.1615,14.7022 6.999,25.2008 15.0586,32.6738 2.6992,2.503 15.5213,9.3114 23.3359,12.3907 3.2681,1.2879 3.5598,2.1719 5.0039,15.1523 2.6417,33.462 5.8939,55.7121 7.5742,86.5293 1.4847,2.4024 -0.6968,3.5882 -4.9863,2.7109 -9.7553,-1.9952 -26.4057,4.2748 -28.4492,10.7129 -2.0119,6.3388 8.1222,8.1905 15.7852,2.8848 3.9708,-2.7494 6.5313,-3.473 11.8613,-3.3516 3.7388,0.085 7.4306,0.7881 8.2031,1.5606 2.1453,2.1453 7.5371,1.7192 7.5371,-0.5957 0,-3.5103 2.4229,-2.1449 3.3028,1.8613 0.9408,4.2838 3.7349,7.2889 8.7246,9.3867 v 0 c 2.7807,1.169 21.6062,1.0645 37.3066,-0.207 4.6486,-0.3764 9.7686,-5.9754 8.7422,-9.5606 -2.6217,-9.1578 -2.5439,-10.1484 0.7949,-10.1484 1.7619,0 4.4362,-0.8643 5.9434,-1.92 4.47,-3.131 13.5077,0.9156 23.8691,10.6875 3.7316,3.5195 5.9642,4.5573 9.7461,4.5293 4.2625,-0.031 5.3314,-0.7297 8.168,-5.3281 3.6547,-5.9244 6.3116,-7.2059 14.0703,-6.789 4.0547,0.218 6.4641,1.39 10.0547,4.8867 6.9252,6.7441 12.1853,6.0959 13.8789,-1.711 0.7957,-3.6683 0.3723,-4.8144 -2.834,-7.6972 -2.0721,-1.8631 -5.5676,-4.4019 -7.7676,-5.6407 -12.4226,-4.5532 -21.919,-3.7235 -32.4355,0.9922 -5.5261,2.5077 -5.9426,2.5214 -9.8418,0.3047 -7.2189,-4.1037 -8.7331,-5.0549 -10.8203,-6.7871 -3.392,-2.8151 -15.5832,-3.4488 -21.2012,-1.1015 l -4.9453,2.0664 -0.7266,-4.2461 c -2.2976,-13.449 -5.0367,-31.5426 -5.3867,-35.5801 -0.7258,-8.3725 -4.5027,-27.265 -7.209,-36.0606 -3.7565,-12.209 -4.8453,-19.9394 -2.8086,-19.9394 1.6108,0 15.5256,-11.5587 23.2754,-19.334 3.635,-3.6472 4.9913,-4.0664 15.377,-4.7695 23.8531,1.2745 27.6684,-4.9339 19.7304,-13.4825 -4.135,-0.6106 -4.5925,-3.748 -0.5468,-3.748 6.1875,0 7.767,-3.1949 6.8378,-13.8262 -0.4569,-5.2287 -1.3403,-11.0065 -1.9648,-12.8398 -0.6245,-1.8333 -2.1146,-8.1333 -3.3105,-14 -1.196,-5.8667 -2.8225,-12.3403 -3.6153,-14.3867 -1.3612,-3.5129 -1.7861,-3.677 -7.5918,-2.9278 -7.0204,1.1131 -14.5539,2.5908 -21.1484,4.0313 -2.8843,0.6327 -4.334,0.4476 -4.334,-0.5508 0,-0.825 -0.9107,-2.5486 -2.0234,-3.832 -0.4687,-6.9359 -14.5646,-23.0168 -24.9981,-26.045 l 0.9082,-13.1875 c 0.8196,-11.9009 0.6518,-13.5104 -1.7168,-16.5214 0,0 -19.0046,-0.9333 -25.1855,-0.9819 z m 3.0937,11.0703 h 7.2559 v 8 8 c -6.6908,-2.8405 -14.2377,-0.9939 -21.8047,0.2754 -0.3056,-0.518 -0.9774,-3.4971 -1.4941,-6.6192 -4.3366,-11.8176 9.7694,-9.6256 16.0429,-9.6562 z m 7.2676,26.5254 -0.3145,15.7363 c -0.4043,20.2194 1.2855,24.4612 10.711,26.877 5.5638,1.4258 7.43,1.2859 15.3242,-1.1524 4.9437,-1.5269 9.523,-2.4456 10.1777,-2.041 3.1652,1.9562 4.7357,32.5917 2.0059,39.125 l -1.9043,4.5586 -8.7773,-0.7383 c -16.5932,-5.7847 -34.3909,-4.2707 -33.0352,3.002 -1.3183,0.1259 -0.4816,8.347 1.8984,18.6347 1.5208,6.5736 1.4523,7.3497 -0.8046,9 -1.3584,0.9933 -5.6692,1.8067 -9.5782,1.8067 -6.0982,0 -7.2888,-0.4259 -8.3984,-3 -1.2373,-2.8707 -3.1919,-17.4034 -5.0957,-37.9043 -1.5604,-16.8028 -6.2426,-20.3812 -26.707,-20.4102 l -13.8165,-0.02 0.9473,-6.3164 c 1.3341,-8.8962 4.2954,-14.3362 6.7129,-12.3301 3.2949,1.4884 7.0417,0.5212 10.2227,1.211 3.1644,0.7045 9.6532,1.6207 14.4199,2.0371 4.7667,0.4163 10.3708,0.9759 12.4551,1.2422 7.8608,1.0037 10.0652,-9.0061 6.3945,-29.0333 -0.7925,-4.3213 -1.1799,-8.2767 -0.8633,-8.789 0.3165,-0.5121 4.5021,-1.0575 9.3008,-1.2129 z m -33.9668,9.4746 c 1.849,0 4.2425,13.3753 2.8086,15.6953 -0.794,1.2848 -17.1326,1.8632 -21.1875,0.75 -1.2834,-0.3524 -2.334,-1.3728 -2.334,-2.2676 0,-1.8468 18.0147,-14.1777 20.7129,-14.1777 z m 51.1738,2.3613 c 0.2542,-0.033 0.5467,0.1114 0.8926,0.3985 2.2168,1.8397 10.399,14.5369 9.7266,15.0937 -0.2776,0.2298 -2.5445,1.107 -5.0371,1.9492 -2.4928,0.8422 -4.9734,1.5313 -5.5118,1.5313 -1.7824,0 -2.569,-5.8983 -1.7382,-13.0098 0.4878,-4.1731 0.9055,-5.8635 1.6679,-5.9629 z m -112.9179,14.252 c 2.4192,-0.1913 14.6915,2.7484 17.2343,4.2148 0.4785,0.276 0.028,3.2974 -1,6.7149 -1.0286,3.4174 -1.8691,9.023 -1.8691,12.457 0,6.093 -0.124,6.282 -5.1543,7.7891 -11.0387,3.3072 -10.8457,3.5634 -10.8457,-14.377 0,-8.8 0.5754,-16.2768 1.2871,-16.7168 0.068,-0.042 0.1864,-0.069 0.3477,-0.082 z m -191.1348,5.332 c -0.7801,0 -1.52,0.2759 -2.1387,0.8945 -8.9003,2.1649 -18.1104,2.3177 -26.8301,5.2911 -5.2661,1.8358 -5.4668,5.3388 -0.5312,9.2421 3.0028,2.3748 4.8073,2.7667 9.9629,2.1641 9.0246,-1.0548 23.703,-6.3788 25.1758,-9.1309 1.8614,-3.478 -2.2584,-8.4779 -5.6387,-8.4609 z m 342.5254,2.2617 c 0.6809,0 1.4488,0.037 2.3086,0.1114 3.9597,0.3439 4.0284,0.4884 6.8965,14.3476 1.5936,7.7 2.944,16.1692 3,18.8203 0.057,2.6653 1.2949,6.3364 2.7695,8.211 3.267,4.1533 3.3156,4.8303 0.334,4.7089 -1.2833,-0.052 -5.3333,0.2845 -9,0.7481 l -6.668,0.8418 -0.1855,-16.332 c -0.1307,-11.5028 -0.8534,-18.2577 -2.4473,-22.8477 -2.2687,-6.5331 -1.7744,-8.5958 2.9922,-8.6094 z m -716.0254,31.3106 c -2.3834,1.1269 -5.6832,2.7397 -7.332,3.582 -3.4943,1.7852 -10.0855,14.4283 -10.5489,20.2344 -0.1758,2.2 -0.943,6.9104 -1.705,10.4687 -0.7619,3.5581 -1.4446,9.5588 -1.5196,13.334 -0.1363,6.9393 2.7726,29.4271 5.3477,41.3477 0.7703,3.5658 1.6725,8.9658 2.0058,12 0.5052,4.5984 2.5012,17.2635 5.3868,34.1816 0.3127,1.8334 0.9303,6.6347 1.3711,10.668 0.4408,4.0333 2.0448,14.8333 3.5644,24 4.759,28.7072 5.0932,30.3318 10.1914,49.4824 1.4862,5.5823 3.344,13.3829 4.1289,17.334 0.7848,3.951 2.3302,11.6836 3.4336,17.1836 2.625,13.0835 2.5865,13.5989 -0.9902,13.1367 -1.65,-0.2132 -3.77,0.09 -4.711,0.6758 -0.941,0.5856 -3.8564,1.331 -6.4785,1.6562 -2.622,0.3252 -5.7592,1.1231 -6.9707,1.7715 -1.2113,0.6483 -3.836,0.8664 -5.834,0.4844 -2.6255,-0.5019 -5.4986,0.5027 -10.3613,3.623 -9.2686,5.9477 -10.1392,8.0077 -5.5859,13.2227 3.6479,4.1782 3.6809,4.1877 8.3008,2.0605 2.5516,-1.1749 5.6394,-2.6721 6.8613,-3.3261 1.2219,-0.654 6.3226,-1.8478 11.334,-2.6524 5.0115,-0.8047 10.845,-2.413 12.9648,-3.5761 3.6508,-2.0032 3.967,-1.9651 6,0.7265 2.256,2.9869 6.9144,3.9518 11.6035,2.4043 1.8768,-0.6195 3.9461,-0.012 6.3203,1.8555 1.9414,1.5271 4.0833,2.4364 4.7579,2.0195 0.6747,-0.4171 3.8293,1.6266 7.0117,4.543 3.1824,2.9162 7.1002,5.3179 8.707,5.3379 1.6067,0.02 3.309,0.6644 3.7832,1.4316 v 0 c 0.5423,0.8775 3.529,-0.1108 8.0566,-2.666 7.4104,-4.1822 11.2383,-5.0956 11.2383,-2.6816 0,0.943 0.8271,0.9356 2.6191,-0.024 2.304,-1.2331 5.5599,-1.1381 19.3809,0.5645 1.4667,0.1806 5.1615,-0.732 8.2109,-2.0293 3.0493,-1.2975 5.8981,-2.0042 6.3321,-1.5703 0.434,0.434 0.789,0.1452 0.789,-0.6407 0,-2.926 11.6296,-8.3476 17.9043,-8.3476 3.3527,0 6.0957,0.5987 6.0957,1.332 0,0.7334 1.2752,1.334 2.832,1.334 1.557,0 6.6137,2.7 11.2383,6 4.6245,3.3 9.916,6 11.7598,6 4.2129,0 7.5039,-4.5156 7.5039,-10.2969 0,-3.3089 0.5791,-4.3691 2.3848,-4.3691 1.3116,0 4.6917,-1.1776 7.5117,-2.6152 3.605,-1.838 6.7562,-2.4172 10.6152,-1.9532 3.0185,0.3629 10.2876,1.0172 16.1543,1.4532 6.2916,0.4675 11.0628,1.4685 11.6328,2.4414 1.3356,2.2796 7.8383,0.8632 10.6231,-2.3145 7.0154,-4.7613 24.0619,-1.8466 28.1523,-1.1621 5.3618,0.9059 6.9412,0.6643 9.668,-1.4805 1.7924,-1.4099 3.2578,-3.5856 3.2578,-4.8359 -2.4325,-14.3449 -23.5435,-8.333 -33.8086,-10.3613 l -3.8066,-0.7793 0.6699,-22.1973 c 0.683,-22.5975 2.4061,-44.9257 5.3144,-68.8633 0.8909,-7.3333 1.625,-24.2408 1.625,-37.5722 0,-21.4213 0.238,-24.0374 2.0059,-22.5196 2.6739,2.2956 14.7907,5.1759 16.1035,3.8281 2.6792,-2.7505 2.6655,-7.8968 -0.027,-10.3339 -3.3863,-3.0645 -14.9194,-6.2386 -16.6758,-4.5899 -2.1767,2.0431 -3.0272,1.3331 -3.7676,-3.1445 -0.394,-2.3833 -2.9361,-9.1234 -5.6484,-14.9766 -2.7123,-5.8533 -6.4097,-14.7403 -8.2168,-19.75 -3.423,-9.4896 -11.2732,-26.5584 -13.4922,-29.3359 -0.7053,-0.8828 -1.7317,-3.0677 -2.2813,-4.8555 -0.5496,-1.7879 -3.623,-7.3446 -6.83,-12.3476 -3.2068,-5.0029 -5.8558,-9.5397 -5.8848,-10.0821 -0.1794,-3.2634 -13.5733,-15.0596 -24.0313,-21.164 -4.8928,-2.856 -18.5824,-7.6371 -26.2617,-9.1719 -48.4594,-9.8887 -108.8571,7.5675 -149.9846,26.8677 z m 151,-12.1114 c 19.0864,4.7665 27.2573,10.933 37.0098,27.9278 8.0782,14.0771 17.5252,33.212 20.2558,41.0312 1.3384,3.8322 4.1996,10.8681 6.3574,15.6348 11.1563,24.6429 11.4742,26.1996 11.5352,56.666 0.06,29.4214 -1.5138,71.0835 -2.7598,73.0996 -0.4383,0.7091 -1.4562,15.1525 -2.2636,32.0957 l -1.4688,30.8047 -8.666,-0.2949 c -4.7667,-0.1626 -13.166,-0.4619 -18.666,-0.666 -8.7688,-0.3255 -10.5964,0.031 -14.8418,2.9043 -2.6628,1.8018 -5.9635,4.9501 -7.334,6.9961 -2.4177,3.6093 -8.4922,5.2984 -8.4922,2.3613 0,-0.7515 -1.6494,-1.963 -3.666,-2.6934 -2.0167,-0.7303 -4.8673,-1.8419 -6.334,-2.4687 -8.3182,-3.5555 -10.8212,-4.1387 -17.7637,-4.1387 -5.7908,0 -9.5639,0.958 -15.6035,3.959 -4.3813,2.177 -8.7341,3.977 -9.6738,4 -0.9396,0.023 -1.9975,0.7923 -2.3496,1.709 -0.4683,1.2193 -5.6248,1.6797 -19.2168,1.7187 l -18.5781,0.053 -1.3321,-8.7188 c -0.7318,-4.7956 -2.0033,-13.8194 -2.8261,-20.0527 -0.8229,-6.2333 -2.9377,-21.234 -4.6993,-33.334 -1.7614,-12.1 -4.198,-31.2993 -5.414,-42.666 -2.6678,-24.9396 -2.1611,-21.3051 -6.6055,-47.334 -2.375,-13.9094 -3.7166,-26.902 -3.8555,-37.334 -0.2979,-22.3668 1.5628,-58.998 3.3086,-65.1289 24.2377,-41.5758 79.1497,-47.0223 103.9434,-36.1311 z m 214.4668,1.0098 c -0.2949,-0.022 -0.6132,0.012 -0.957,0.1074 -16.7255,4.6285 -17.5098,4.9566 -17.5098,7.3614 0,2.2267 4.4532,5.1829 10.6113,7.0449 3.5654,1.0781 9.021,-2.7589 9.8555,-6.9317 0.8966,-4.4826 0.064,-7.4258 -2,-7.582 z m -319.2969,5.7168 c 2.16,0.016 2.3042,1.4676 -1.0898,3.6914 -6.5289,4.278 -15.6544,14.5175 -17.8145,19.9883 -1.7884,4.5295 -2.2403,11.8666 -2.5176,40.8535 -0.3555,37.1638 0.6858,54.5686 4.1875,70 2.1709,9.5671 4.2841,22.8553 5.5157,34.668 0.3822,3.6667 0.9769,8.7654 1.3203,11.332 0.3432,2.5667 0.9033,6.7673 1.2461,9.334 0.3427,2.5666 0.905,9.9336 1.248,16.3711 0.3432,6.4374 0.9121,12.1695 1.2637,12.7383 0.8676,1.4039 5.8143,37.2305 6.7969,49.2246 0.4354,5.3167 0.3148,9.6423 -0.2676,9.6133 -2.9703,-0.1497 -8.4402,-4.3742 -9.0391,-6.9805 -0.3748,-1.6314 -1.9206,-8.0674 -3.4336,-14.3008 -1.513,-6.2333 -3.286,-14.2436 -3.9414,-17.8008 -0.6556,-3.557 -1.7966,-8.3564 -2.5351,-10.666 -0.7384,-2.3095 -1.6658,-7.0393 -2.0606,-10.5097 -0.3948,-3.4704 -1.5859,-8.5692 -2.6465,-11.3321 -2.2542,-5.8726 -6.0787,-26.1004 -6.3046,-33.3418 -0.086,-2.7588 -0.6319,-6.3097 -1.2129,-7.8906 -0.5808,-1.5808 -1.7069,-7.6261 -2.502,-13.4336 -0.7952,-5.8073 -1.7389,-12.0126 -2.0957,-13.791 -1.7659,-8.8 -2.3614,-12.5129 -4.5918,-28.5664 -1.3244,-9.5333 -3.6731,-22.7028 -5.2187,-29.2656 -1.8422,-7.8232 -2.8106,-16.3779 -2.8106,-24.8379 0.9133,-27.0393 4.2904,-42.8192 33.332,-49.8965 2.1383,-0.4697 6.3854,-2.0607 9.4375,-3.5352 2.4177,-1.1681 4.4384,-1.6755 5.7344,-1.666 z m 551.9297,5.9824 c 1.4343,-8e-4 3.3323,0.067 5.8438,0.1621 l 10.2754,0.3887 1.5937,7.334 c 0.8764,4.0333 2.2833,12.6728 3.125,19.1992 0.9522,7.3828 1.0569,12.3396 0.2793,13.1172 -0.7778,0.7777 -1.5871,0.7007 -2.1445,-0.2012 -4.2944,-2.1621 -8.5866,-4.5105 -11.7852,-7.4511 -5.6409,-5.2415 -6.6821,-7.1132 -9,-16.1758 -1.4416,-5.6366 -2.6211,-11.677 -2.6211,-13.4238 0,-2.3288 0.1307,-2.9467 4.4336,-2.9493 z m -98.5078,8.2578 c 3.5814,-0.01 6.1598,0.5624 8.3555,1.6836 3.697,1.888 15.1796,12.9278 14.33,13.7774 -0.6797,0.6798 -2.0718,0.8594 -15.2773,1.9648 -12.732,1.0657 -18.5007,2.164 -67.332,12.8184 -15.6765,3.4204 -33.6572,10.4448 -35.1114,13.7168 -0.2445,0.55 -1.1027,1 -1.9062,1 -1.8717,0 -9.7774,8.595 -10.7266,11.6621 -0.3978,1.2851 -2.2168,6.5366 -4.041,11.6699 -2.718,7.6479 -3.4609,12.826 -4.1133,28.668 -1.2248,29.7424 -1.0236,66.4554 0.4121,75.332 0.7117,4.4 2.8279,17.3013 4.7032,28.668 4.9376,29.928 4.8272,29.1335 5.5254,39.6738 0.3524,5.3213 0.1792,9.5524 -0.3848,9.4024 -4.2055,-1.1182 -12.4829,8.8192 -10.2949,12.3593 0.4258,0.6896 0.4125,2.3928 -0.029,3.7852 v 0 c -0.442,1.3923 -1.5311,2.7851 -2.4199,3.0937 -2.1439,0.7441 -11.6152,-1.637 -11.6152,-2.9199 0.2444,1.3921 6.884,-1.798 7.8652,-8.0625 0.8432,0 0.9014,-1.3375 0.1582,-3.666 -0.7297,-20.0294 -2.2934,-39.0238 -8.541,-72.334 -1.0689,-5.5 -3.1916,-15.5427 -4.7149,-22.3183 -3.2556,-14.4813 -3.4768,-20.1703 -0.8652,-22.2012 1.7015,-1.3231 2.6567,-5.4337 2.2442,-9.6582 -0.081,-0.8311 -1.2363,-1.7948 -2.5665,-2.1426 -2.2016,-0.5758 -2.3221,-1.6225 -1.3515,-11.6641 5.5445,-25.5077 8.117,-60.6818 21.0683,-81.289 24.3807,-19.445 67.0322,-23.7597 96.5215,-30.0645 9.238,-1.9806 15.5009,-2.9452 20.1055,-2.9551 z m -377.4004,14.0254 c -1.753,-0.01 -3.3977,0.728 -5.2109,2.1739 l -3.668,2.9257 2.9121,15.25 c 1.6012,8.3881 3.1797,16.5518 3.5078,18.1407 0.5264,2.5485 0.087,2.8434 -3.7344,2.4961 -2.382,-0.2167 -5.8307,-0.7749 -7.664,-1.2403 -7.5663,-1.9204 -14.4687,-1.6384 -17.5645,0.7168 -2.6545,2.0196 -2.8576,2.7056 -1.3984,4.75 0.938,1.3142 2.033,3.3385 2.4316,4.4981 0.4756,1.3837 2.4091,2.1382 5.627,2.1972 5.619,0.102 20.0658,3.1774 22.625,4.8164 1.3275,0.8503 1.6672,7.4 1.4844,28.6563 -0.3097,36.0297 0.7968,41.6214 9.1035,45.9941 2.0302,1.0686 3.8666,2.009 4.082,2.086 0.2153,0.078 1.9498,-1.3031 3.8535,-3.0684 3.2755,-3.0372 3.4071,-3.6649 2.4668,-11.668 -0.5465,-4.6513 -1.197,-20.8763 -1.4453,-36.0566 -0.508,-31.042 -1.5296,-28.1879 10.6406,-29.7148 3.6159,-0.4537 7.2159,-1.2267 8,-1.7168 0.7843,-0.4903 2.492,-1.0569 3.795,-1.2598 1.3032,-0.203 4.4532,-1.2406 7,-2.3047 5.2299,-2.1852 6.0009,-5.4896 2.2988,-9.8652 -2.2368,-2.6438 -2.6378,-2.6778 -9.668,-0.793 -12.2741,3.2908 -21.1966,4.3586 -22.5722,2.7012 -0.6774,-0.8162 -1.6327,-5.6373 -2.1231,-10.7129 -0.4902,-5.0756 -1.4341,-10.6552 -2.0977,-12.4004 -0.6634,-1.7454 -1.207,-4.6991 -1.207,-6.5625 0,-2.0831 -1.3826,-4.4885 -3.5918,-6.2461 -3.1956,-2.5423 -5.629,-3.7827 -7.8828,-3.793 z m 549.9805,5.92 c 2.6253,0.061 10.8281,2.6646 10.8281,3.6425 0,0.48 -1.6834,2.4865 -3.7402,4.4571 -4.492,4.3036 -5.5938,4.4664 -5.5938,0.8281 0,-1.5149 -0.6487,-3.966 -1.4414,-5.4473 -0.7965,-1.4812 -1.1496,-2.9831 -0.7949,-3.3379 0.1072,-0.1072 0.3671,-0.1513 0.7422,-0.1425 z m -10.2481,31.7812 c 1.2139,0.038 1.1796,0.696 0.7559,2.3164 0.1197,4.6212 2.6766,8.9255 3.5117,12.918 1.0556,5.1333 2.8847,13.5326 4.0645,18.666 2.8166,12.2988 4.3789,25.9019 6.0351,36.666 4.488,29.1184 5.5324,39.7467 4.0039,40.6914 -1.3741,0.8497 -14.8083,1.5816 -17.6269,0.961 -1.2828,-0.2824 -2.7047,-1.9978 -3.1602,-3.8125 -0.6914,-2.7552 -1.5176,-3.234 -5.0019,-2.9024 -3.7549,0.3573 -4.217,0 -4.6231,-3.6035 -0.2483,-2.2 -0.9161,-4.6006 -1.4824,-5.334 -4.4593,-26.6018 -4.9271,-51.5647 -7.4395,-78.666 -0.2027,-2.2 -0.8081,-6.8499 -1.3457,-10.332 l -0.9765,-6.3301 7.1797,0.1426 c 3.9495,0.079 9.5243,-0.3059 12.3867,-0.8555 1.8139,-0.3482 2.9904,-0.5483 3.7187,-0.5254 z m -143.4941,21.9766 c -12.1395,0.097 -21.1487,4.6734 -24.3828,12.3847 -2.6259,6.2612 -1.6432,31.1176 1.6152,40.8731 4.1727,12.4925 4.941,13.866 8.4727,15.1601 5.5931,2.0495 9.3298,1.7075 10.7714,-0.9863 0.7334,-1.3702 0.9729,-2.8514 0.5313,-3.293 -0.4414,-0.4415 -1.0608,-5.2678 -1.375,-10.7246 -0.5332,-9.2564 -0.3778,-9.9834 2.3203,-10.8398 8.4284,-2.6751 23.5003,-14.9183 25.9727,-21.0977 1.9118,-4.7781 1.8859,-5.4646 -0.375,-9.3359 -1.3426,-2.2985 -5.0195,-5.989 -8.17,-8.1992 -5.1299,-3.5987 -6.7359,-4.0104 -15.3808,-3.9414 z m -87.0352,3.3847 c -3.0518,-0.048 -4.6086,0.7369 -7.709,3.1016 -5.9772,4.5591 -10.0648,12.5367 -10.8984,21.2734 -0.746,7.8182 2.2357,31.6653 5.7109,45.6661 1.9496,7.8548 2.9489,9.7362 5.7637,10.8554 1.8725,0.7449 4.205,1.1171 5.1817,0.8301 0.9766,-0.287 2.8351,-0.5215 4.1308,-0.5215 2.1164,0 2.2343,-0.7727 1.1621,-7.6094 -0.6564,-4.1854 -1.0161,-9.1354 -0.7988,-11 0.3708,-3.1809 0.724,-2.9634 5.7285,3.5196 5.7322,7.4257 13.4347,11.8827 15.9844,9.25 2.9956,-3.0932 1.8225,-7.8661 -3.7227,-15.1524 -3.0774,-4.0437 -6.1944,-8.3149 -6.9277,-9.4922 -0.7334,-1.1775 -2.4171,-2.9585 -3.7422,-3.957 -3.3468,-2.5224 -2.3119,-7.188 2.0567,-9.2754 4.6351,-2.2145 9.7993,-9.0502 10.9531,-14.498 1.1682,-5.5164 -3.9056,-16.7577 -8.9082,-19.7364 -2.002,-1.192 -6.6367,-2.523 -10.3008,-2.957 -1.4617,-0.1731 -2.6468,-0.2809 -3.6641,-0.2969 z m 88.4004,9.2051 c 2.4098,0 4.769,0.627 5.2422,1.3926 1.089,1.7619 -2.3414,7.0378 -7.8086,12.0137 -2.3261,2.1171 -4.6041,3.8676 -5.0625,3.8886 -1.315,0.062 -2.5154,-7.6817 -1.5937,-10.2793 1.6198,-4.5651 4.8404,-7.0156 9.2226,-7.0156 z m -47.4258,1.334 c -3.6003,0 -6.9759,0.6959 -7.5019,1.5469 -1.4395,2.3292 -0.7603,15.8504 1.7187,34.1992 2.0541,15.2052 2.028,19.9809 5.6104,22.9953 4.8039,4.2905 5.1619,0.2747 7.4756,-4.5656 1.6226,-3.4192 1.9955,-7.3183 1.5605,-16.334 -0.3144,-6.5132 -1.0188,-12.914 -1.5644,-14.2246 -0.6261,-1.5041 -0.1949,-3.2635 1.1699,-4.7715 2.6553,-2.9342 2.094,-9.7713 -1.0625,-12.9277 -1.2441,-1.2441 -1.9465,-3.0846 -1.5606,-4.0899 0.5356,-1.3956 -0.8482,-1.8281 -5.8457,-1.8281 z m -36.3496,3.5586 c 1.6462,0.023 2.1365,0.9048 2.3887,3.2695 0.2455,2.3023 -0.9887,5.1476 -3.6152,8.334 -5.1775,6.281 -8.3619,6.5074 -7.0782,0.5039 1.017,-4.7561 4.5887,-11.5498 6.2383,-11.8652 0.8393,-0.1605 1.5177,-0.2497 2.0664,-0.2422 z m -269.584,67.7891 c -0.6701,-0.01 -1.3741,0.2614 -2.2871,0.75 -1.87,1.0008 -14.5225,1.7015 -36.3418,2.0117 -18.4105,0.2619 -35.3653,0.8119 -37.6777,1.2207 -6.2552,1.1057 -7.7132,7.3359 -1.7168,7.3359 1.4378,0 2.5879,0.9095 2.5879,2.0469 0,1.5857 0.5622,1.7477 2.4922,0.7148 1.3703,-0.7334 2.8261,-0.9983 3.2363,-0.5879 0.4104,0.4112 9.9396,0.6111 21.1758,0.4473 19.1874,-0.2798 22.6177,-0.2598 26.7617,0.1465 1.9696,0.1932 11.9947,-0.9854 17.668,-2.0762 2.2,-0.4231 4.9,-0.8331 6,-0.9121 2.452,-0.1752 5.332,-2.3366 5.332,-4.0019 0,-0.677 -1.4958,-2.7263 -3.3242,-4.5547 -1.7634,-1.7635 -2.7894,-2.5319 -3.9063,-2.541 z m 339.4063,22.7617 c -1.7576,0.037 -4.0433,0.1529 -7.0508,0.3144 -6.8519,0.368 -21.0076,0.7221 -31.457,0.7891 -10.4492,0.066 -18.9992,0.6459 -19,1.2891 -6e-4,0.6439 -2.9941,0.8828 -6.6524,0.5312 -6.6692,-0.6408 -12.0156,1.387 -12.0156,4.5566 0,2.1276 6.6518,7.9093 8.082,7.0254 0.6768,-0.4184 2.1856,-0.2239 3.3536,0.4297 1.182,0.6614 5.1216,0.7138 8.8828,0.1192 3.7172,-0.588 7.176,-0.8109 7.6855,-0.4961 1.6699,1.0322 41.8583,-2.1031 47.7676,-3.7266 7.309,-2.008 9.0854,-4.0022 7.2168,-8.1035 -1.0175,-2.2329 -1.5399,-2.8383 -6.8125,-2.7285 z m -357.8711,8.0234 c -4.4659,0.038 -10.7998,0.8467 -19.6367,2.332 -15.81,2.6574 -20.3875,3.2272 -35.1367,4.3633 -9.4058,0.7245 -12.3171,1.4601 -14.334,3.625 -3.4719,3.7267 -3.2088,4.7242 1.7949,6.8281 2.8931,1.2163 7.4161,1.5992 13.666,1.1583 9.3104,-0.6568 11.3717,-0.8683 24.0098,-2.4727 3.6667,-0.4655 8.1667,-0.9595 10,-1.0977 1.8333,-0.1381 4.0384,-0.6982 4.9004,-1.2441 0.862,-0.546 6.0402,-1.2047 11.5078,-1.4648 11.4192,-0.5432 12.9238,-1.1687 12.9238,-5.3653 0,-4.6491 -2.2522,-6.7259 -9.6953,-6.6621 z m 645.4863,0.6797 c -1.162,-0.019 -2.6361,0.2142 -4.7832,0.6289 -5.0476,0.9751 -6.4263,1.8232 -6.7578,4.1524 -0.3095,2.175 0.9739,3.8453 5,6.5097 2.9791,1.9713 5.418,4.1448 5.418,4.8301 0,1.8099 5.7062,-0.2834 7.6191,-2.7949 2.5859,-3.3952 1.9852,-7.4201 -1.6113,-10.7989 -1.8766,-1.7629 -2.948,-2.4954 -4.8848,-2.5273 z m -153.2324,5.2383 c -2.8208,0.026 -5.7966,0.9503 -7.6445,2.6719 -2.7341,2.5473 -2.7935,2.9748 -0.918,6.6015 1.1027,2.1324 2.0039,5.4405 2.0039,7.3516 0,2.1694 1.5207,4.8629 4.0488,7.1719 4.5931,4.1951 9.2798,4.5068 10.7481,0.7148 1.6697,-4.3121 -0.1863,-21.0231 -2.543,-22.8965 -1.4016,-1.1141 -3.5013,-1.6358 -5.6953,-1.6152 z m 42.0606,8.8457 c -0.9108,0.04 -1.9638,0.4116 -3.2247,1.084 -1.8664,0.9952 -4.4432,2.1378 -5.7265,2.539 -4.3672,1.3652 -2.2057,12.2675 3.3515,16.9043 3.7172,3.1016 6.0856,3.1959 9.209,0.3692 2.768,-2.5051 3.255,-10.1374 1.0215,-16.0118 -1.3139,-3.4559 -2.6271,-4.9734 -4.6308,-4.8847 z m 133.7636,4.9336 c -1.4777,0.061 -3.0908,0.3739 -4.7676,0.9941 -3.2633,1.2071 -4.0236,6.2322 -1.3476,8.9082 2.4584,2.4584 8.7656,1.9005 11.7012,-1.0351 4.6653,-4.6654 0.8176,-9.1308 -5.586,-8.8672 z m -645.5722,2.1621 c -1.4982,0 -3.4507,0.8792 -5.8633,2.6328 -5.2022,3.7811 -16.7456,5.2279 -26.3535,3.3008 -4.5986,-0.9224 -9.1523,-1.1276 -10.8457,-0.4883 -2.8368,1.071 -5.7481,4.9941 -5.7481,7.7461 0,1.7986 7.2017,5.0177 14.668,6.5586 3.3,0.6808 7.2956,0.9659 8.8808,0.6328 1.5851,-0.3331 6.2302,-0.7042 10.3223,-0.8242 4.0923,-0.1201 7.4512,-0.6545 7.4512,-1.1895 0.01,-0.5351 2.3368,-2.1609 5.1797,-3.6113 5.9395,-3.0301 6.7247,-4.4283 5.8379,-10.416 -0.4289,-2.8964 -1.6031,-4.344 -3.5293,-4.3418 z m 315.3418,4.0801 c -1.4292,-0.068 -2.7312,0.3738 -3.6914,1.3339 -0.7732,0.7732 -3.4435,1.7639 -5.9336,2.2012 -7.0287,1.2347 -24.0797,0.7056 -25.5782,-0.7929 -1.4888,-1.4888 -8.7989,1.6171 -9.1484,3.8867 -0.11,0.7145 -0.261,1.8939 -0.334,2.6211 -0.073,0.7272 1.9666,2.5272 4.5332,4 4.006,2.2985 6.6788,2.6289 18.8789,2.3281 11.2812,-0.2782 14.7397,-0.8293 16.7715,-2.668 1.4077,-1.2739 4.1508,-2.3164 6.0957,-2.3164 4.6705,0 6.6427,-6.1095 2.8633,-8.873 -1.4709,-1.0756 -3.0279,-1.6529 -4.457,-1.7207 z m 210.2793,16.9746 c -1.3187,-0.01 -2.8973,0.1914 -4.7637,0.584 -4.9628,1.044 -5.6667,1.6388 -5.6797,4.7812 -0.01,2.4277 1.394,4.7622 4.334,7.2188 2.3898,1.9969 5.0604,3.646 5.9355,3.666 2.585,0.058 5.7422,-5.5565 5.7422,-10.2129 0,-4.1318 -1.6122,-6.0158 -5.5683,-6.0371 z m 79.3906,1.6191 c -7.5642,0 -9.8248,1.934 -9.8008,8.3809 0.022,6.1019 0.8917,8.1394 3.9785,9.3144 5.794,2.2056 9.7061,-0.5665 11.2852,-7.998 1.4779,-6.9551 -0.068,-9.6973 -5.4629,-9.6973 z m -56.4863,1.8496 c -4.1766,0.118 -10.0063,2.8474 -10.4122,5.6953 -0.4667,3.2742 4.4696,8.6057 7.0508,7.6153 0.9248,-0.3549 2.1196,0.4381 2.6543,1.7636 0.8844,2.1922 1.0767,2.1391 2.1289,-0.5898 0.6363,-1.65 1.7763,-3 2.5332,-3 2.1188,0 1.6296,-8.7972 -0.5918,-10.6406 -0.7628,-0.6331 -1.9711,-0.8831 -3.3632,-0.8438 z" fill="#00B894" transform="translate(91.014605,-95.621895) matrix(0.26458333,0,0,0.26458333,-527.42641,-226.61445)"/>
</svg>