<?xml version="1.0" ?><svg height="85.774155mm" viewBox="0 0 50.593201 85.774155" width="50.593201mm" xmlns="http://www.w3.org/2000/svg">
    <path color="#000" d="m 1570.9667,903.37002 1.6853,52.61148 47.0837,3.79183 6.8466,242.01297 c 0,0 68.6768,25.3104 69.2034,-14.0298 0.5267,-39.3401 0.8427,-226.84561 0.8427,-226.84561 l 43.1863,-3.22306 -0.4213,-56.78249 z" fill="#FFFFFF" overflow="visible" paint-order="fill markers stroke" transform="translate(-77.869173,21.588341) matrix(0.26458333,0,0,0.26458333,-335.27498,-257.44753)"/>
    <path d="m 1645.5564,1214.7514 c -10.132,-1.4745 -27.6959,-7.0279 -27.4498,-13.4345 -2.0494,-38.0322 0.1076,-72.1098 -0.3884,-95.3394 -3.8377,-49.9767 -1.6575,-93.6456 -6.7265,-138.27053 -0.3065,-0.2873 -8.3632,-0.6596 -17.9036,-0.8276 -24.3962,-0.4293 -27.0166,-0.9621 -29.3384,-5.9648 -0.7948,-19.0088 -5.7166,-52.4373 2.0916,-65.84185 3.481,-3.41604 7.8742,-4.14427 13.0231,-3.33569 33.4239,2.03235 62.7149,3.09976 97.152,3.52189 21.3728,0.25086 53.2757,-4.58561 65.4106,-3.68661 4.0482,0.29992 7.2689,2.44308 9.4719,6.30311 2.3483,4.11463 2.3648,4.59537 0.3157,9.20355 -3.796,15.4741 -3.0167,31.3996 -3.423,47.2549 -0.3026,13.2627 -2.3172,15.0375 -7.9636,14.0578 -13.4285,-1.9956 -24.4991,1.336 -37.931,0.9331 l -0.3654,77.15453 c -0.2108,44.518 9.4555,149.2781 -0.014,155.7764 -19.5962,12.2473 -38.3023,15.0655 -55.9612,12.4957 z m 35.4486,-35.1461 c 6.2058,-5.0415 7.1957,-6.4878 7.1975,-10.5137 8e-4,-2.5675 0.1967,-7.5238 0.4347,-11.0141 0.261,-3.8286 0.8894,-7.8841 -0.9342,-6.3123 -14.0641,18.1086 -27.7927,28.5134 -45.9954,35.0426 -5.2512,1.6931 -5.8064,2.2778 -5.754,6.0605 0.063,4.5985 1.1274,5.1811 9.3629,5.1271 13.7304,0.3411 25.5391,-10.1786 35.6885,-18.3901 z m -29.6468,-12.9352 c 10.8313,-5.9071 20.1325,-15.4401 28.3175,-23.1089 7.9602,-7.4384 8.5068,-8.33 8.5816,-13.9985 0.4243,-11.5825 -1.4911,-6.2993 -5.5167,-2.3477 -14.1178,19.0438 -32.4596,27.3864 -46.3868,34.3854 -0.6882,3.5199 -0.5601,2.9635 -0.9927,6.4585 -0.7052,5.6966 -0.5225,6.3482 1.764,6.2918 5.4405,-1.2521 10.1723,-5.384 14.2331,-7.6806 z m 9.4942,-36.5232 c 11.1122,-7.4441 24.3597,-20.7077 28.2135,-26.2023 0.3776,-4.1684 0.03,-2.7423 -0.2041,-9.8395 -1.8482,-7.8761 0.4918,-38.9889 -2.0929,-39.2861 -12.9375,11.7063 -35.8105,26.4163 -51.452,29.1324 0.6664,8.0879 -0.4513,16.929 0.4536,23.6175 12.1671,-7.4825 30.2813,-17.1238 39.1431,-26.6554 7.4685,-8.5138 9.69,-8.8088 11.5446,-1.533 3.1071,8.5922 -1.9643,9.5521 -8.0513,15.8871 -7.5863,6.9774 -31.6409,26.355 -39.7712,27.0302 -1.4473,0.036 -1.8886,2.6601 -1.9142,11.3839 -0.022,7.4287 0.4636,11.3253 1.4078,11.302 5.9512,-1.4234 15.6328,-8.9606 22.7231,-14.8368 z m 17.7569,-84.3992 c 5.1951,-5.6663 6.0796,-7.4648 6.2037,-12.6139 0.2814,-11.6872 1.6367,-10.8096 -8.4049,0.1161 -10.4058,11.3223 -21.0234,16.5788 -33.4369,20.3581 -12.3329,3.5399 -9.0302,6.5685 -7.7099,16.744 l 5.5057,-0.9374 c 14.6113,-3.2168 28.4379,-13.5946 37.8423,-23.6669 z m 5.0083,-35.6997 c 4.8102,-14.07143 -2.0001,-10.17173 -9.2103,-5.9396 -15.5043,11.6129 -34.358,15.1404 -42.2033,14.4801 0.4266,12.0722 1.2677,17.6612 1.7179,22.1339 26.683,-3.0159 37.5639,-17.7872 49.6957,-30.6744 z m 1.0801,-26.28183 0.1116,-10.3155 c -0.2565,-6.679 -1.8806,-4.4103 -15.613,-5.1251 -20.9178,-1.5453 -39.2765,-1.7731 -38.9464,1.3619 1.0368,19.5976 0.877,33.49663 1.3932,34.41323 19.2561,1.0114 36.546,-11.61813 53.0546,-20.33453 z m 48.1801,-65.4497 c 0.4041,-5.9311 0.2457,-6.2605 -3.3031,-6.8655 -45.2859,-2.1443 -94.427,0.3465 -134.5319,-0.5976 -6.9725,-0.1568 -13.5863,-0.6326 -14.6971,-1.057 -1.7422,-0.6657 -1.9521,1.9674 -1.5285,19.1673 0.4605,18.6971 0.6552,19.9777 3.126,20.5592 47.3626,3.2648 104.318,3.0091 140.8245,1.0405 l 8.711,-0.6027 c 0.2033,-10.986 0.6949,-22.4223 1.3991,-31.6442 z" fill="#00B894" transform="translate(-77.869173,21.588341) matrix(0.26458333,0,0,0.26458333,-335.27498,-257.44753)"/>
</svg>