<?xml version="1.0" ?><svg height="153.60823mm" viewBox="0 0 105.46819 153.60823" width="105.46819mm" xmlns="http://www.w3.org/2000/svg">
    <path color="#000" d="m 2124.5624,1361.4254 c 5.3524,9.169 114.1283,-120.8579 125.8266,-36.0589 4.0427,29.3047 -3.3587,34.6265 8.6492,41.9949 0,0 -15.9748,392.8339 -11.5322,414.0865 4.4425,21.2526 22.9576,22.7752 38.3339,23.4479 15.3763,0.6727 48.0214,0.7157 45.5664,-18.9318 -2.4965,-19.9791 -12.2947,-422.5551 -5.5763,-421.7065 11.2247,-0.7121 1.7418,-21.9024 31.6592,-39.4676 16.5281,-9.704 45.1678,15.3757 45.1678,15.3757 l 94.7659,8.1569 5.0733,-96.9515 -74.8527,-11.9161 c 0,0 -31.0322,20.7629 -54.417,18.0721 -23.3848,-2.6907 -33.6818,-12.9709 -33.6818,-12.9709 0,0 -71.8871,-32.6089 -137.4499,13.4221 -65.5628,46.0309 -77.5324,103.4472 -77.5324,103.4472 z" fill="#FFFFFF" overflow="visible" paint-order="fill markers stroke" transform="translate(-105.67529,30.878703) matrix(0.26458333,0,0,0.26458333,-453.3837,-356.35484)"/>
    <path d="m 2251.9485,1802.7005 c -6.8829,-3.5084 -11.5515,-13.3358 -11.136,-21.6026 -0.1414,-78.7619 3.3746,-161.5188 6.3183,-228.2746 3.2688,-73.3583 4.9582,-126.162 5.0423,-157.6091 0.064,-24.0194 0.02,-24.3978 -3.1315,-26.6938 -1.7582,-1.281 -3.572,-2.9174 -4.0305,-3.6365 -5.1333,-14.9238 2.8173,-51.586 -13.7897,-58.1868 -26.5341,-17.1672 -77.913,41.7326 -102.5215,67.8756 -2.3285,2.4988 -5.2836,4.5122 -6.5667,4.4742 -2.5233,-0.075 -9.2162,-5.9993 -9.1539,-8.1032 0.1603,-5.4137 6.2781,-20.8825 14.1462,-35.7682 67.3791,-113.8882 138.7018,-112.1284 212.7227,-98.8181 31.0263,24.1726 53.1688,10.1535 69.7324,4.2753 3.6922,-0.1555 8.609,-2.8029 9.4283,-3.8474 3.1996,-4.079 8.1975,-5.216 20.545,-4.6741 14.2537,1.2972 47.5358,4.3315 68.4782,9.3786 8.1022,1.6227 0.6543,69.1137 -5.0988,108.58 -0.7078,9.9816 -63.3008,2.6635 -99.1412,-2.2826 -10.9458,-0.8315 -15.9889,-10.3875 -25.471,-13.8546 -12.1503,-10.2911 -37.497,3.5818 -39.6805,29.2668 -0.1642,6.8322 -5.2917,10.3585 -9.1739,11.2951 -0.1271,144.2562 4.637,294.593 9.9396,411.4695 1.8575,9.9507 -1.8082,16.0709 -7.2141,16.9164 -26.0031,9.1013 -55.8992,11.7714 -80.2437,-0.1799 z m 41.6881,-11.6793 c 0.4665,-8.0276 3.2744,-90.0672 5.4213,-90.0036 5.8382,-7.3545 3.5553,37.0514 3.8303,50.6462 0.6912,26.434 -0.1456,40.9394 1.1276,42.2904 2.3026,2.443 17.6662,-0.8375 20.4609,-4.9029 -2.1157,-116.9522 -7.1495,-275.2332 -8.899,-409.9936 l 0.2019,-6.3791 c -3.8981,0.2256 -24.4657,-1.0507 -25.9043,1.2131 -0.3277,0.7891 -0.8517,6.8297 -1.1642,13.4233 -1.0337,21.8045 -5.0799,35.0487 -10.6899,34.9904 -3.0152,-0.031 -3.2303,-3.8641 -1.5716,-28.017 0.7793,-11.3485 1.2535,-20.9887 1.0539,-21.4225 -3.0883,-0.8287 -5.5922,-0.1786 -8.9199,0.2093 -3.0599,118.6315 -8.73,222.9851 -12.3668,325.7472 -1.5008,42.6906 -3.6574,72.2232 -3.6354,78.4739 -0.1297,10.4428 7.6289,11.9398 11.5293,13.3413 2.6398,0.8885 2.7851,0.5229 2.6878,-6.7656 -0.057,-4.2378 1.4828,-22.2025 1.4747,-40.8249 -0.012,-28.4743 3.0799,-35.0534 4.6069,-34.4938 4.1315,1.5146 2.3094,25.7166 2.2814,61.8618 -0.01,10.6378 -0.01,20.3921 0.01,21.6763 -0.6583,3.3161 19.2402,4.8381 18.4701,-1.0702 z m 29.7918,-437.3599 2.0041,-7.0504 c 9.295,-38.2374 45.7068,-37.8548 65.7806,-22.2387 4.6978,3.7797 8.7569,6.8785 9.0202,6.8863 0.2632,0.01 0.9463,-2.5231 1.5179,-5.6243 0.5717,-3.1011 1.417,-7.5452 1.8784,-9.876 0.6934,-3.5013 0.4105,-4.2455 -1.6285,-4.2829 -6.6478,-0.6139 -13.4104,-1.8947 -19.7318,-2.6479 -18.3677,-2.1694 -27.1754,-5.7373 -27.0211,-10.946 0.066,-2.222 0.989,-2.6078 5.8935,-2.4625 13.5908,1.8854 28.5714,3.6749 40.3541,6.0416 4.6865,0.9939 4.2955,1.8922 4.6507,-10.6819 -13.6956,-2.6543 -42.6643,-0.573 -50.9385,-10.0326 -2.8141,-3.3532 -2.1626,-4.5775 2.2539,-4.2343 1.6944,0.1323 13.6643,0.9037 26.5997,1.7156 l 23.5189,1.4762 0.769,-9.7732 c 0.4229,-5.3754 0.649,-9.989 0.5023,-10.2527 -11.1253,3.7285 -23.6691,7.5673 -33.5574,7.8198 -15.0953,0.3375 -22.5215,-2.0793 -33.0282,-10.7484 -5.4452,-5.5148 -10.3595,-5.5649 -16.9329,-7.2241 -63.8921,-7.8807 -108.335,-1.6784 -148.7719,46.1203 -9.0095,9.8556 -19.6523,23.0713 -18.6047,23.1024 0.496,0.015 2.8836,-1.5654 5.3061,-3.5111 57.945,-45.6821 91.7163,-36.517 95.5567,8.4991 2.2353,11.984 1.4406,20.7171 2.9597,31.6747 20.5622,-0.2097 41.1166,-0.6493 61.6492,-1.749 z m 11.5776,-51.94 c -1.7923,-0.4963 -1.9655,-2.5282 -1.1707,-13.7417 0.513,-7.2376 1.4327,-14.8383 2.0437,-16.8904 1.3499,-4.5337 6.1557,-5.6325 8.0436,-1.839 1.5692,3.1527 1.7112,15.3895 0.253,21.7767 -1.3055,5.7181 -6.2625,11.4994 -9.1696,10.6944 z m 146.3449,31.5856 c 3.6537,-19.0497 6.4909,-48.3952 6.6191,-69.0821 1.1706,-16.6303 -61.7995,-18.1691 -63.8009,-12.6287 -2.4669,20.6423 -10.7944,82.1771 -8.0668,81.2535 8.4015,1.4963 62.041,12.9757 65.2486,0.4573 z" fill="#00B894" transform="translate(-105.67529,30.878703) matrix(0.26458333,0,0,0.26458333,-453.3837,-356.35484)"/>
</svg>