<?xml version="1.0" ?><svg height="92.770638mm" viewBox="0 0 36.409843 92.770638" width="36.409843mm" xmlns="http://www.w3.org/2000/svg">
    <path d="m 278.34357,138.73477 c -1.4314,-0.005 -2.76517,-0.64873 -3.26047,-1.57461 -0.49768,-0.92954 -0.0759,-1.13594 2.63896,-1.29201 4.13623,0.63843 13.33897,-0.86398 10.06078,-5.67743 -7.60439,2.52645 -13.98879,3.74107 -21.12777,2.95822 -4.04707,-0.54372 -5.03529,-1.25034 -5.26812,-3.76645 -0.12991,-4.33461 8.17853,-6.25385 12.3735,-6.26657 2.32119,0.008 4.89453,0.15811 5.71818,0.33443 1.95897,0.40233 4.0005,0.83508 5.79279,1.56985 1.84573,0.76618 2.13598,0.67654 3.60203,-1.1127 0.9234,-1.12686 0.9779,-1.2949 0.80116,-2.47264 -0.10424,-0.69498 -0.32993,-1.31752 -0.50165,-1.38343 -0.17171,-0.0659 -0.92842,0.17738 -1.68116,0.54063 -2.05608,0.99176 -6.50743,1.59027 -12.66164,1.70238 -3.55838,-0.42754 -13.72208,0.67283 -14.14303,-4.05448 -0.35666,-2.78286 3.21442,-5.58556 5.37236,-6.48126 0.91837,-0.3561 1.61766,-0.73205 1.55363,-0.83545 -6.68496,-0.24772 -8.00549,-3.65413 -6.86937,-7.3788 0.51593,-1.3589 1.14114,-1.86553 3.4237,-2.77358 0.92605,-0.51268 4.91094,-1.652317 4.96385,-1.841151 0,-0.124539 -0.59425,-0.22643 -1.3208,-0.22643 -1.4052,0.04329 -2.76807,-0.446484 -4.04204,-0.792559 -1.56183,-0.423201 -2.69531,-2.082959 -2.88607,-4.225608 -0.18468,-2.077058 -0.0675,-2.376038 1.25386,-3.195108 1.66343,-1.031346 5.2914,-1.751145 10.12666,-2.00914 4.85775,-0.353007 11.03339,-0.225108 14.74497,1.396312 1.15279,0.517207 1.63909,0.485854 2.55243,-0.164492 1.80234,-1.283255 2.57942,-4.238201 1.44463,-5.49222 -0.59823,-0.661062 -1.21576,-0.621904 -2.79268,0.177059 -4.86701,2.384901 -24.58138,5.435415 -27.39946,0.691038 -0.63024,-1.534927 -0.79666,-3.372908 -0.38417,-4.245424 0.67151,-1.420866 3.46472,-2.752963 5.63959,-3.783648 0.48657,-0.230664 0.88477,-0.534511 0.88477,-0.675216 0,-0.267468 -1.64809,-0.806398 -2.58683,-0.845926 -0.72681,-0.03059 -2.86068,-1.347867 -3.23824,-1.999351 -0.16589,-0.285882 -0.51594,-0.744961 -0.77787,-1.02018 -0.56304,-0.59108 -0.63527,-2.488698 -0.1323,-3.473741 0.53817,-1.053836 2.91413,-2.139501 6.32699,-2.890785 1.43642,-0.31623 1.5023,-0.356685 0.54451,-0.335174 -4.33335,-0.196268 -6.8117,-0.934297 -8.36454,-4.868466 -1.02023,-6.102985 15.20613,-7.558008 22.11546,-6.513248 3.52134,0.602747 6.16876,1.502965 7.57079,2.099469 1.09829,0.467281 1.2155,0.470165 1.86267,0.04612 0.5707,-0.373936 0.66172,-0.596133 0.52493,-1.280187 -0.31803,-1.590913 -1.4478,-2.627895 -4.65905,-3.61442 -5.21811,-1.895134 -12.85107,-3.809474 -21.57359,1.001207 -1.52638,0.937736 -3.88435,-0.02974 -3.53748,-1.149165 0.43339,-1.312783 0.93371,-1.36824 2.10264,-2.236629 3.75761,-2.356247 8.41904,-3.376083 14.85159,-3.139334 6.27407,0.308689 13.03576,2.25634 15.21646,7.794069 0.77575,2.039568 0.77602,2.147994 0.0106,5.339637 -0.12727,0.529272 -0.0437,0.911727 0.27701,1.266031 0.59029,0.652092 1.23429,3.07123 1.23825,4.651719 -0.19155,2.350055 -1.11098,3.257629 -2.54582,4.509664 -0.68818,0.605155 -0.73448,0.739325 -0.39661,1.148636 0.72443,0.877808 1.7145,3.398202 2.14815,5.468964 0.24633,1.175147 -0.0651,2.675784 -0.86571,4.171447 -0.21193,0.396266 -0.18918,0.652383 0.0876,0.988669 2.52439,4.174728 2.16217,7.952978 -0.68818,10.963513 -0.44239,0.670057 -0.086,0.639789 0.37703,1.259946 2.92708,3.283902 2.84877,8.644382 0.60854,11.723162 -0.66172,0.8859 -0.66331,0.90209 -0.21167,2.26184 0.77946,3.29443 0.15055,5.7077 -1.19221,8.23669 -0.76174,1.43947 -0.80407,1.64391 -0.45059,2.18347 2.84639,4.09784 1.32424,7.47374 -1.21364,9.88685 1.18983,1.90402 2.70828,3.98666 1.61634,6.24911 -3.01255,5.69452 -8.96117,4.59264 -13.65382,4.46688 z m 2.36034,-10.40026 c 1.30361,-0.35582 1.17105,-0.4158 -1.94177,-0.87869 -2.47809,-0.12596 -12.96512,-0.43256 -12.62592,1.72998 0.15055,2.02555 11.98324,-0.14859 14.56769,-0.85129 z m 0.81704,-10.29129 c 2.04417,-0.31628 3.64463,-0.78089 4.08437,-1.18578 0.0728,-0.27623 -1.03399,-0.61733 -1.3589,-0.88932 -3.92589,-1.92765 -10.24573,-1.55776 -14.224,-1.04704 -1.80525,0.53039 -7.57026,2.49357 -3.32132,3.28946 2.10477,0.37343 12.05019,0.26117 14.81985,-0.16732 z m 7.67159,-4.02333 c 1.44648,-1.17224 2.10344,-4.4522 0.8083,-5.51397 -0.1897,0 -0.82761,0.22643 -1.41737,0.50315 -1.25545,0.58918 -2.74347,0.96632 -5.56498,1.41037 -2.97286,0.46786 -3.05964,0.56597 -0.95303,1.07606 1.94839,0.47175 5.01412,1.77763 5.99043,2.5518 0.68606,0.54393 0.6813,0.54403 1.13665,-0.0274 z m -7.12708,-7.40588 c 3.47133,-0.70091 5.09323,-1.17475 5.08212,-1.48487 -6.62332,-5.1445 -25.35847,-1.7205 -22.84413,0.46054 3.2041,1.97588 6.71486,1.73286 9.72926,1.67682 3.30808,0.0441 5.18768,-0.2854 8.03275,-0.65249 z m 7.50782,-12.380645 c -3.95182,1.867932 -8.33279,3.412093 -12.6246,3.496443 -1.10834,0.251698 -0.69294,0.592613 0.8136,0.667834 1.10966,0.0554 3.09906,0.309483 5.39247,0.688737 1.38906,0.229738 5.11519,2.064731 6.39868,3.151241 0.52441,0.44373 1.07447,0.76983 1.22291,0.72467 2.22964,-1.91688 1.19089,-6.588287 -1.20306,-8.728925 z m -11.59219,-1.009809 c 3.00434,-0.555228 2.37093,-0.832776 -1.49781,-0.656246 -4.30715,0.196586 -6.96198,0.382323 -8.06106,0.56396 -2.49079,0.411691 -3.29353,0.595974 -3.77561,0.866722 -0.47916,0.269028 -0.42068,0.320887 0.54452,0.48342 4.60137,0.653706 8.52381,-0.05085 12.78996,-1.257856 z m -5.32183,-10.163201 c 4.52384,-0.314854 11.03894,-1.341596 11.31146,-1.78271 0.2548,-0.412062 -3.82402,-0.923501 -7.62344,-0.955886 -2.95645,0.04522 -12.15469,0.419311 -11.42656,2.554129 0.1487,0.149886 4.67466,0.515249 5.02762,0.405844 0.0749,-0.02328 1.29487,-0.12282 2.71092,-0.221377 z m 17.62548,-5.098918 c 1.53644,-1.419039 0.0389,-4.34422 -1.17792,-5.032877 -2.22727,-0.459317 -4.76012,1.049893 -6.80377,1.511617 -2.9456,0.695828 -5.29537,1.118076 -6.22194,1.118076 -0.42756,0 -0.72046,0.05718 -0.65061,0.12708 0.0699,0.0699 1.29964,0.182668 2.73262,0.25064 3.21601,0.312658 6.75111,0.738293 9.65888,1.932066 1.95051,0.809916 1.70974,0.800788 2.46274,0.0934 z m -16.87698,-6.350503 c 1.67799,-0.221694 4.18968,-0.587798 5.58192,-0.813593 1.39224,-0.225769 2.64345,-0.410978 2.78077,-0.411586 0.13732,0 0.15769,-0.093 0.0455,-0.205317 -0.37333,-0.373221 -7.04533,-0.320728 -11.05085,0.08694 -5.06333,0.515356 -5.66076,0.602747 -6.20554,0.907547 -0.36936,0.206772 -0.28046,0.300726 0.49503,0.523214 1.40812,0.403913 4.91279,0.367321 8.35316,-0.08721 z m 14.97568,-4.289583 c 1.98094,-0.93271 4.02617,-3.488849 2.69558,-4.80695 l -0.65273,-0.613252 -3.26496,0.967052 c -2.91544,0.863495 -8.95826,2.139898 -11.89857,2.513278 -1.06786,0.135598 -1.43034,0.277891 -1.2073,0.473815 0.0624,0.05482 1.12977,0.02196 2.37199,-0.07324 3.3737,-0.258234 8.89768,0.551577 10.25949,1.504024 0.65722,0.459607 0.74295,0.46138 1.6965,0.03527 z m -6.1841,-7.438285 1.98755,-0.483076 -1.14724,-0.338746 c -5.55413,-3.245168 -24.02787,-0.399494 -19.42226,2.553282 0.89482,0.474345 1.44197,0.529934 4.42489,0.449421 4.88844,-0.219762 9.65835,-1.097147 14.15706,-2.180881 z" fill="#00B894" transform="translate(-258.67873,-46.131086)"/>
</svg>