<?xml version="1.0" ?><svg height="82.772163mm" viewBox="0 0 180.96747 82.772163" width="180.96747mm" xmlns="http://www.w3.org/2000/svg">
    <g color="#000">
        <path d="m 1248.791,600.86328 -177.4394,77.53125 c -19.2831,-19.20854 -62.2045,-5.65961 -87.9473,-4.73047 l -69.39844,53.6836 -60.50391,2.78125 c 0,0 -10.81091,-16.24967 -31.74218,-16.44141 -20.93126,-0.19174 -22.79493,16.72852 -22.79493,16.72852 0,0 -28.92035,2.25197 -51.82226,3.40234 -22.9019,1.15037 -36.91015,5.0345 -38.29492,34.99219 0.31956,20.32331 8.78718,27.56098 21.83593,29.04687 13.04876,1.48589 179.48829,-0.8164 179.48829,-0.8164 l 78.82421,45.91992 66.84181,4.84179 c 0,0 7.0281,-5.17775 15.5,-14.6914 36.063,8.92113 251.1298,61.9833 291.4902,68.22851 29.5179,-74.32533 35.8845,-360.37614 -114.0371,-300.47656 z" fill="#FFFFFF" overflow="visible" paint-order="fill markers stroke" transform="translate(65.857065,-222.85143) matrix(0.26458333,0,0,0.26458333,-249.93614,66.038511)"/>
        <path d="m 1249.7091,600.80001 c -0.2733,0.01 -0.5788,0.029 -0.918,0.064 -63.3131,19.5572 -122.0127,46.2664 -176.866,69.51 -4.1703,-5.9384 -5.1132,-5.7585 -10.462,-7.3517 -22.7995,-1.8234 -65.89932,0.7551 -82.18182,6.498 -0.8872,0 -3.444,1.6514 -5.6816,3.6681 -15.9921,14.705 -27.8369,21.1645 -43.8672,36.4353 -7.08,7.48 -17.0912,10.7467 -26.4082,11.1113 -11.6094,1.7125 -37.387,4.1885 -46.6445,0.9904 -0.8536,-1.9454 -1.9238,-3.8384 -2.379,-4.2051 0.065,-14.466 -26.5976,-14.7699 -45.1933,-12.1395 -12.8401,2.6604 -16.8643,3.6455 -17.2125,15.3906 -0.1609,5.3334 -1.8093,3.6847 -12.1396,3.9776 -23.1424,0.6563 -43.1418,0.6267 -48.754,1.3555 -12.1323,1.5755 -22.449,8.8609 -29.5859,20.8965 -10.5761,22.1934 -6.6973,44.7527 14.2065,59.0452 43.8707,5.0843 133.2084,-0.1414 183.5894,-0.3208 4.7566,-1.2976 12.5632,-0.9134 13.6934,0.6738 23.147,13.0681 41.511,28.0458 65.1699,38.5625 3.4644,0.3766 9.2027,2.4426 10.332,3.7188 0.8058,0.9106 7.1363,1.6227 16.00002,1.8007 16.2396,0.3262 50.5864,2.0125 54.7604,2.3664 5.3311,1.8324 14.5826,-8.8036 18.6437,-13.7495 0,-0.872 3.128,-0.2478 9.93,1.8245 10.289,3.1347 24.2332,6.7995 35.334,9.2852 78.2873,17.8659 163.6995,43.8941 245.0721,55.3106 1.5838,0 1.9787,-5.7403 -11.4934,-8.6503 -85.3131,-16.9396 -169.9496,-42.6849 -249.5787,-60.7618 -2.9333,-0.6254 -8.934,-2.1223 -13.334,-3.3281 -24.1112,-6.6072 -39.8218,-9.8966 -43.1309,-9.0313 -36.991,-11.8523 -49.5555,-76.6617 -24.9375,-113.2715 8.5202,-8.2519 13.7659,-14.1864 30.5507,-18.8393 59.3885,-34.8567 222.4467,-87.337 193.4864,-90.8385 z m -210.3457,75.9474 c 2.71,0.01 4.377,0.094 4.377,0.2851 -5.7,2.0195 -11.6212,4.8795 -16.4097,8.3983 -4.3533,3.2493 -8.2599,4.6795 -17.0958,4.4273 -22.58162,-0.6445 -30.49462,0.8232 -30.49462,-0.1636 2.4322,-10.9637 45.05642,-12.9229 59.62312,-12.9471 z m 34.6826,18.4535 c 14.7774,23.4519 18.5463,47.8217 17.0062,69.3559 -1.5402,21.5342 -8.3895,40.2328 -14.8484,52.3422 -3.8439,25.4576 32.7728,-22.5448 29.9171,-67.6318 -2.7077,-42.749 -32.3813,-68.1036 -32.0749,-54.0663 z m -64.5807,7.8334 c -1.2216,2.5665 -5.8842,7.2152 -6.3578,10.0899 -4.45312,3.7223 -25.75672,0.7967 -38.37312,2.6465 -5.0049,0.6986 -5.0033,0.6978 -2.5351,-5.1094 2.3274,-5.4757 2.8029,-5.8291 8.3379,-6.2031 9.3,-0.238 32.86622,-1.5714 38.92812,-1.4239 z m -68.05702,13.9141 c -7.8953,29.4546 -8.558,59.8568 3.8047,84.8457 2.7286,5.3484 1.7528,6.2569 -3.5,3.2618 -14.2303,-8.1137 -18.9699,-9.9093 -17.7224,-12.2402 -12.6768,-13.7375 -10.0019,-44.4961 -2.3519,-56.7813 2.6698,-4.0061 14.9087,-16.5027 17.7637,-18.1387 1.0198,-0.5843 1.6666,-0.9361 2.0059,-0.9473 z m 114.84192,0.022 c -0.639,0.01 -1.2342,0.1738 -1.7715,0.5059 -1.3743,0.8493 -0.6375,2.9613 3.2929,9.4316 7.9525,13.0911 9.4005,26.0547 5.4258,48.6133 -1.1628,6.6 -2.1191,13.6494 -2.1191,15.666 -0.01,4.5648 2.927,7.6092 5.7519,3.2978 14.8345,-13.5172 17.8477,-76.1205 -10.58,-77.5146 z m -217.11352,6.045 c 4.874,2.6085 0.9116,4.4976 -10.4452,4.791 -6.0766,0.1569 -13.2698,-2.1872 -15.9844,-1.8505 -4.3187,0.5357 -7.6708,-0.9231 -5.9883,-2.6055 15.9086,-7.2737 24.3668,-5.3208 32.4179,-0.335 z m 154.795,2.4902 c 2.8689,-0.01 5.016,0.1117 5.2168,0.3125 0.2678,0.2677 0.1701,1.6964 -0.2168,3.1758 -0.5599,2.1409 -1.8423,2.7047 -6.2812,2.7597 -3.0674,0.038 -8.8769,0.4293 -12.9102,0.8692 -17.6491,1.9243 -24.6713,1.906 -26.5156,-0.068 -1.535,-1.6432 -1.4748,-2.2816 0.4004,-4.1543 1.7431,-1.7407 5.1204,-2.2567 15.832,-2.418 7.4888,-0.1127 17.1238,-0.3048 21.4102,-0.4277 1.0716,-0.031 2.1081,-0.047 3.0644,-0.049 z m -97.1758,13.3491 c 5.7833,0 5.5552,3.6403 3.1535,6.5119 -3.8818,18.0428 -0.9497,32.0869 4.161,44.6111 -7.1033,2.1038 -21.2435,-2.1883 -26.5823,-6.1677 -2.5379,-2.0272 -8.4138,2.5972 -8.4138,6.1521 0,2.9396 -6.155,0.5041 -13.8318,1.2452 -29.9517,0.6595 -58.3009,0.1041 -85.5022,0.7364 -30.3306,-1.2226 -69.5364,1.2843 -51.2178,-41.9813 6.142,-14.7449 41.7501,-10.1421 55.7207,-10.215 18.5936,2.8362 65.0682,-3.3757 95.8734,-0.2714 -13.8938,9.2615 -16.8235,24.3758 -9.0814,37.7732 7.2534,12.5849 13.8228,4.8084 11.6309,-3.5273 -2.635,-15.5098 6.2102,-34.7228 24.0898,-34.8672 z m 96.9942,4.4961 c 1.745,0.045 1.6814,0.8803 1.1543,3.9433 -1.3467,7.8252 -1.3936,7.8676 -7.4883,6.8379 -3.1085,-0.5252 -11.8052,-0.9142 -19.3242,-0.8652 -7.5192,0.049 -14.275,0.4614 -15.0137,0.918 -1.4095,0.8711 -4.6014,-5.8441 -3.3652,-7.0801 0.3924,-0.3925 2.0585,-0.811 3.7031,-0.9297 1.6448,-0.1186 9.8908,-0.6645 18.3242,-1.2129 8.4333,-0.5484 17.2581,-1.1989 19.6113,-1.4453 1.0337,-0.1083 1.8168,-0.1808 2.3985,-0.166 z m -244.5899,19.7109 c -1.2687,8.0257 -0.3963,11.9071 4.3711,19.459 2.7155,4.3016 4.0291,5.2899 6.2656,4.7051 2.7181,-0.7108 2.7946,-1.2355 1.8965,-13.2149 -0.7864,-10.4884 -0.5807,-13.0173 1.293,-15.8769 2.2343,-3.41 1.7889,-8.3844 -0.9063,-10.1172 -6.4661,-2.742 -12.3608,11.893 -12.9199,15.0449 z m 245.209,0.2305 c 1.3436,0.057 1.5126,1.268 2.1856,4.6328 0.842,4.2097 0.8424,4.2092 -14.6524,4.1602 -16.8228,-3.1899 -12.3811,-1.1582 -23.0625,0.7049 -4.7571,0.795 -5.7745,0.5418 -7,-1.748 -0.7887,-1.4736 -1.4336,-3.2871 -1.4336,-4.0293 0,-0.8396 6.6773,-1.3722 17.668,-1.4102 9.7167,-0.034 19.7259,-0.6563 22.2441,-1.3828 2.0156,-0.5815 3.2446,-0.9619 4.0508,-0.9277 z m 0.5332,16.4687 c 1.8107,0.058 2.8325,0.4739 3.0977,1.2481 0.3473,1.014 -5.5688,1.8947 -18.541,2.7597 -10.4787,0.6988 -20.1015,1.7431 -21.3848,2.3204 -1.4056,0.6324 -2.334,0.4941 -2.334,-0.3477 0,-2.3224 1.6836,-2.7252 14.7676,-3.5371 6.9112,-0.4289 14.3664,-1.1252 16.5664,-1.5469 3.4189,-0.6554 6.0174,-0.9548 7.8281,-0.8965 z m 3.1934,15.0918 c 4.41992,0.061 4.75262,0.7333 5.20902,2.4785 0.259,2.4957 3.0649,2.8268 3.1015,4.8555 0,2.1463 -1.6533,2.2653 -10.00002,0.7207 -2.9333,-0.5429 -11.3327,-0.9265 -18.666,-0.8535 -12.9551,0.1293 -16.666,-0.8582 -16.666,-4.4375 0,-0.7857 1.35,-1.443 3,-1.459 1.65,-0.016 10.9841,-0.4009 20.7422,-0.8555 6.505,-0.3029 10.6273,-0.486 13.2793,-0.4492 z m -24.8438,19.4473 c 0.6866,-0.053 1.6281,0 2.8223,0.1699 7.4021,1.0228 11.2159,1.2435 25.61912,1.4844 12.6438,0.2115 14.0933,0.4943 15.4395,3.0098 1.4606,2.7291 1.2853,2.7672 -10.2871,2.332 -22.08902,-0.8308 -30.70632,-1.7747 -32.90632,-3.6055 -2.5207,-2.0978 -2.7473,-3.233 -0.6875,-3.3906 z m 16.0039,18.0527 c 1.0162,-0.024 2.545,0.077 4.3379,0.3125 3.5856,0.47 9.43562,0.8555 13.00002,0.8555 3.5642,0 4.0125,1.8897 4.0125,2.4397 10e-5,1.9656 -20.68442,-1.0603 -22.61992,-3.1585 -0.251,-0.2721 0.2533,-0.4247 1.2695,-0.4492 z m 42.66222,1.6758 c 2.9556,2.0704 2.6559,2.1582 -7.2148,2.1582 -6.3645,0 -10.297,-0.5385 -10.297,-1.4121 2.8467,-1.1628 14.6648,-2.7163 17.5118,-0.7461 z" fill="#00B894" overflow="visible" style="isolation:auto;mix-blend-mode:normal;solid-color:#000;solid-opacity:1;marker:none" transform="translate(65.857065,-222.85143) matrix(0.26458333,0,0,0.26458333,-249.93614,66.038511)"/>
    </g>
</svg>