<?xml version="1.0" ?><svg height="127.56655mm" viewBox="0 0 153.97392 127.56655" width="153.97392mm" xmlns="http://www.w3.org/2000/svg">
    <path color="#000" d="m -2438.2148,2047.502 -42.8145,1.0644 -5.2461,73.6367 -27.2461,-2.0566 -6.5996,52.0097 3.3848,18.3516 -10.4082,1.4473 -0.2539,24.5195 -43.0664,11.2715 -5.2461,-21.9316 23.7754,-25.9668 c -9.006,-17.6632 -11.1277,-42.0797 -41.2911,-38.9883 l 2.3692,28.4804 -27.4141,-1.9043 -9.2226,-45.6132 c -36.4527,-5.3176 -58.169,75.938 -18.7012,81.4785 16.9652,6.1566 20.9832,-4.9796 26.6543,14.164 l 2.1152,37.2364 -45.2676,-28.6309 -37.5175,34.2149 -1.0664,23.3535 -44.9297,46.2988 64.2207,43.0996 3.4707,21.5508 c 93.6137,41.4917 182.9456,100.9084 281.7597,120.6191 l 158.0586,-56.8066 17.4297,-128.1582 -37.6523,-40.9688 c 7.4632,-9.8136 13.6927,-20.0838 8.7148,-34.4961 l 27.0762,-47.4394 c 0,0 -27.0764,47.4394 -38.6211,50.5996 -11.5447,3.1603 -57.2581,39.8519 -45.3516,19.9863 11.9065,-19.8657 -0.1328,-43.3242 -0.1328,-43.3242 l -18.5312,-3.8848 -27.2442,21.3223 -98.1523,-33.9629 9.4785,-29.8496 73.3594,20.1797 10.914,-16.1445 c -41.3152,-11.9286 -45.8341,-32.547 -56.8593,-51.6289 l -29.4453,-9.1368 z m 215.0859,159.8359 15.0605,-1.2188 33.9297,-54.0664 -14.6367,-11.2695 -14.3008,9.6719 -25.0566,-16.4805 -41.8711,35.2891 3.0449,30.5351 29.3028,-1.6035 z" fill="#FFFFFF" overflow="visible" paint-order="fill markers stroke" transform="translate(161.51634,29.172821) matrix(0.26458333,0,0,0.26458333,-183.43325,-55.861823) translate(2833.8274,-1939.5825)"/>
    <path d="m 392.06694,100.87182 c -14.12237,0.35045 -43.80812,-1.327183 -44.23817,5.7829 -0.70651,26.34398 -3.82508,39.91545 -5.63292,58.71124 -0.36767,10.07684 -9.86603,7.10669 -19.76563,5.61889 -6.3207,-0.48189 -8.5352,2.31754 -8.5352,7.67665 0.18,12.05376 -16.2265,51.67048 -3.9394,59.73765 0.9235,0.41111 -0.1407,0.63332 -2.3633,0.49414 -9.0808,-0.56864 -13.7075,7.81727 -10.6855,19.36524 1.0108,3.8629 2.1997,7.95396 2.6406,9.08984 0.5813,1.49748 -0.7713,2.71943 -4.918,4.44727 -18.6683,7.77879 -25.498,10.24221 -26.2656,9.47461 -0.4104,-0.4104 -1.4617,-3.56254 -2.3359,-7.00586 -1.5132,-5.95957 -1.4308,-6.39149 1.705,-8.95899 18.662,-15.2801 21.9195,-21.04588 19.4356,-34.40234 -1.5508,-8.3388 -4.8301,-14.12041 -13.7637,-24.26953 -6.9523,-7.89825 -21.2466,-13.53125 -34.334,-13.53125 -10.243,0 -10.4198,0.46253 -7.5508,19.71484 l 0.9454,6.34961 h -14.1427 c -1.5603,-13.71398 -3.9516,-29.21486 -4.4296,-42.38672 0.3876,-0.38764 -0.1111,-1.52128 -1.1094,-2.51953 -12.1875,-8.02575 -37.6882,15.78463 -42.7812,23.97461 -7.4784,12.5413 -11.4826,28.2382 -11.7676,39.09375 -0.1998,14.28642 1.6013,19.62464 13.7168,26.9043 7.7221,6.41395 26.5727,1.48648 32.6465,5.64257 2.8917,8.86707 7.714,30.20336 5.2198,29.55661 -10.9096,-4.58891 -26.0762,-9.21347 -32.2374,-16.6777 -1.7703,-2.15778 -13.6484,-3.08925 -13.6484,-1.07031 -7.107,5.42514 -14.9059,11.38417 -20.7188,17.76953 -8.192,9.08088 -8.9729,12.57612 -12.1351,11.95866 -9.6021,4.83178 -1.1559,28.4551 0.022,34.73861 1.8549,9.92478 3.6901,19.3733 4.0782,20.99609 0.6009,2.51264 -0.1077,3.19388 -4.7735,4.5918 -9.0235,2.7035 -14.9611,12.9968 -9.914,17.18554 9.6984,8.52025 21.7135,23.05247 38.9199,28.23633 19.2922,13.05786 46.4833,22.84027 72.0234,33.06641 10.5944,4.79066 21.4455,9.97201 80.1993,38.29492 9.634,4.65408 21.652,11.54331 33.41793,16.7207 7.91049,3.34547 16.85165,5.10675 26.34375,8.83203 23.56987,11.85433 64.66925,-21.24649 86.60546,-26.89453 6.89537,-2.22488 21.62584,-12.84078 20.04883,-7.33984 -16.86863,15.91412 -54.62784,28.62604 -76.88281,44.19726 -10.06974,4.5158 -26.02119,2.59257 -31.87891,-0.1914 -18.69037,-8.88286 -33.03055,-13.79338 -46.26565,-18.54492 -69.7805,-27.50393 -141.8775,-70.33339 -213.1895,-107.61916 -4.7395,-3.50507 -13.684598,-10.74027 -6.6093,-14.15039 9.306,-9.21088 15.4373,-13.922 22.7851,-23.89063 1.4348,-5.1179 1.2639,-17.93791 -4.8613,-13.39063 -4.7904,4.2035 -13.8681,14.51961 -28.517598,25.94727 -9.5516,7.47833 -17.0418,21.76633 2.1524,32.76563 10.765398,8.39074 29.793598,21.92509 48.751898,30.7539 7.3947,5.04134 -2.6799,22.82018 11.5434,28.2945 25.2556,9.41565 150.5893,80.32106 277.11091,118.63714 21.5641,5.25243 147.15481,-47.92733 166.97657,-57.21289 0,0 10.3101,-6.67123 10.43945,-33.55273 2.03185,-28.68513 18.01724,-79.19721 10.27734,-108.74024 -2.89816,-4.67437 -20.30282,-24.68271 -35.13374,-35.18105 -1.06337,-0.87452 4.13202,-10.31173 6.25093,-13.84238 2.67515,-5.52934 -1.10676,-11.47497 -3.57312,-13.52188 6.65774,-13.4071 24.7267,-45.41567 29.86828,-45.0057 6.86534,0 14.13286,-6.06149 22.90406,-18.99781 17.6615,-26.04829 16.80381,-26.01265 21.83594,-36.75977 6.79432,-14.05845 1.01235,-28.3742 -17.48047,-27.52344 -5.79828,0.39955 -14.64469,6.56769 -15.99907,10.835 -11.35461,-5.80621 -19.25056,-16.39495 -30.78609,-10.20805 -15.41657,11.29766 -28.15876,20.57011 -36.21125,29.49305 -7.05099,4.47623 -4.90943,6.62954 -2.90398,27.94055 -12.17082,12.32791 -35.72547,38.95324 -46.42774,34.43945 -7.7946,-3.5645 -24.77153,12.03643 -30.74218,17.03321 -6.97301,3.41825 -17.66189,-5.04826 -28.44437,-7.96614 -18.63623,-6.47298 -37.28447,-11.06949 -51.54177,-17.05029 l 3.22051,-15.13006 3.58399,0.92188 c 19.81543,4.4418 42.3315,8.54101 57.88476,14.87109 23.07098,13.60423 18.11106,-14.20802 22.55664,-26.24414 0.91626,-4.75258 -4.19394,-8.44066 -11.23547,-11.9923 -21.81004,-13.59844 -29.98121,-10.36717 -32.06424,-32.88917 0.77808,-13.14524 -37.02818,-17.81898 -46.90718,-23.83071 1.04059,-4.79212 1.79111,-65.5054 4.08775,-73.155 -0.12719,-7.69896 -4.82884,-7.95308 -10.55664,-8.50779 z m -9.48437,11.83592 c 6.60961,0.0234 6.3257,1.18019 5.09375,5.77343 -0.66386,2.47523 -1.55999,2.83577 -6.03907,2.42579 -5.9695,-0.54642 -14.53125,2.50047 -14.53125,5.17187 0,2.82384 4.24803,5.78825 9.69141,6.76367 2.75689,0.49401 5.01172,1.53785 5.01172,2.31836 0,0.78051 -0.99406,1.03653 -2.20899,0.57031 -2.85362,-1.09502 -10.7173,1.49638 -11.61132,3.82618 -1.31399,3.42419 4.71474,7.23318 12.15039,7.67773 6.36159,0.38038 7.01531,0.71414 7.01562,3.57031 2e-4,2.47629 -0.49941,2.9444 -2.33789,2.1875 -5.10094,-2.09995 -6.79757,-2.12368 -11.49219,-0.16211 -6.09692,2.54744 -6.40928,6.25373 -0.85742,10.20703 4.12745,2.93886 4.16645,6.04194 0.0625,4.96875 -1.26165,-0.32993 -3.43424,0.23461 -4.82812,1.2539 -2.12591,1.55448 -2.26992,2.27527 -0.89649,4.47461 0.90064,1.44213 1.63672,2.93104 1.63672,3.30859 0,0.71398 -3.01747,0.63427 -10.27539,-0.27343 -4.79056,-0.59911 -5.84983,-2.92033 -4.13867,-9.06445 3.09474,-22.40217 3.08678,-31.29823 4.38867,-54.125 8.00064,-0.15216 16.34866,-0.88388 24.16602,-0.87304 z m -53.82425,75.42772 c 24.39077,7.26505 52.44936,8.81727 75.77542,14.60742 2.75989,0.85588 7.36286,0.61919 6.95312,3.72657 -1.61103,15.1539 19.16023,31.65152 26.86002,40.20507 0.24265,2.80512 3.02963,5.61024 -2.00781,8.41536 l -23.99348,-7.22656 c -34.91756,-10.24494 -66.96767,-11.6719 -91.72787,-21.30794 -0.3617,-0.32746 4.8751,-34.58379 5.7559,-37.65234 0.161,-0.56109 0.8736,-0.82005 2.3847,-0.76758 z m -128.2422,3.29492 c 0.4433,1.65413 0.8212,5.71518 0.8399,9.02344 0.7635,13.5072 3.0905,18.97347 6.2107,32.07232 1.6437,8.22452 26.9568,1.1224 36.9221,3.71264 3.0448,0.68601 3.9058,0.28183 4.8848,-2.29297 1.775,-6.0298 -5.0226,-25.40512 0.01,-25.47246 21.188,2.31924 29.5697,29.66385 18.4785,36.14063 -1.6542,2.45041 -6.9167,7.75215 -11.6953,11.78125 -10.4422,8.80439 -8.6423,8.88135 -7.0249,17.70901 3.6424,20.20859 3.9917,17.1957 9.151,41.05632 0.01,2.36114 0.078,3.34349 -1.1027,2.1624 -0.8745,-0.8745 -13.6148,-5.71775 -19.7363,-7.50195 -5.8279,-1.69862 -9.3575,-4.7444 -9.3575,-8.07617 -4.0287,-12.03133 -3.0481,-31.37982 -10.3886,-38.13282 -17.0713,-13.12666 -47.9017,2.61477 -45.3262,-24.94726 0.9985,-10.53932 4.0342,-20.73821 9.3457,-31.39649 4.1533,-8.85799 16.4264,-23.33765 18.793,-15.83789 z m 405.85496,11.64251 c 6.78866,5.40357 11.09867,7.81737 16.02211,11.40476 6.22372,2.67944 -0.17465,6.99297 -3.99227,9.81797 -2.21753,0.0545 -22.1339,-12.26392 -22.1339,-13.74469 4.60772,-4.19879 6.04968,-4.59149 10.10406,-7.47804 z m 42.99274,11.6446 c -5.51158,9.52839 -11.62918,18.3913 -20.60547,30.03516 -13.97317,18.08082 -12.00514,16.44728 -15.41797,12.81445 -1.62766,-1.73249 -2.96094,-3.47566 -2.96094,-3.87305 0,-0.39739 2.55724,-2.37893 5.68164,-4.40234 10.62563,-10.47948 23.58377,-19.36365 23.72656,-30.31445 0,-2.89683 1.12672,-5.14939 3.67578,-7.34961 4.75011,-4.53068 9.90057,-3.87047 5.9004,3.08984 z m -55.44305,9.09445 c 3.42356,4.12796 14.6513,9.11804 14.92649,11.53665 0,0.43952 -4.61547,5.49716 -9.21024,7.75742 -13.39806,6.59074 -21.93609,8.23259 -26.95211,1.51422 -3.38269,-10.33137 -2.84551,-14.4653 1.49796,-18.44172 9.55299,-10.34816 11.26923,-9.08591 19.7379,-2.36657 z m -230.2718,28.9661 c 1.31758,0.10281 2.89944,1.24043 3.24805,3.05078 0.17284,14.13564 -4.445,23.58018 -7.19922,31.50781 -4.70956,19.02371 -5.57828,21.89998 -12.31641,40.76953 -1.83768,5.14619 -3.72153,11.46208 -4.1875,14.03516 -0.67959,3.75376 -1.50526,4.7332 -4.17382,4.95703 -1.82917,0.15344 -4.75205,-0.30514 -6.49615,-1.01953 -2.6944,-1.10365 -3.0451,-1.93214 -2.33,-5.50781 0.4629,-2.31457 1.7385,-6.0092 2.8359,-8.20899 1.0974,-2.1998 1.9961,-4.56682 1.9961,-5.26172 0,-0.69492 0.8434,-3.15995 1.875,-5.47656 1.03169,-2.31661 3.4701,-8.72257 5.41797,-14.23633 1.94786,-5.51377 4.61041,-13.03314 5.91797,-16.70898 1.30756,-3.67584 4.09817,-12.0177 6.19922,-18.53711 0.46366,-1.60294 7.23869,-19.47161 9.21289,-19.36328 z m 232.52149,5.83398 c 2.34712,-0.0138 5.08314,6.47711 3.86914,9.77539 -10.69279,13.17755 -18.26543,24.6677 -28.25165,39.07477 -3.54004,5.14249 -8.41272,5.34456 -13.53742,5.95844 -7.34144,1.51689 -13.30085,8.71728 -18.77729,11.34375 -2.25944,0 -0.002,-3.29675 2.09849,-6.85179 4.05856,-4.36858 -4.44564,-9.04826 -1.83286,-13.04274 11.76062,-10.46429 26.71721,-28.10904 39.65734,-41.78837 7.39932,-1.20696 11.6032,-0.14371 16.77425,-4.46945 z m -281.48434,1.64063 c 5.6754,0.20372 11.1629,3.64137 16.1425,3.90625 6.16332,0.29233 7.57454,2.0254 6.03129,7.40625 -1.42329,4.96257 -3.93089,6.0086 -7.84959,3.27539 -1.4704,-1.02553 -4.6211,-2.28857 -7.002,-2.80664 -4.9564,-1.07853 -5.0465,-1.18246 -6.3515,-7.26172 z m -10.4414,24.30859 c 4.5925,0.0577 9.891,1.27265 15.8906,3.64453 4.8815,1.92988 9.0883,3.68855 9.3476,3.90821 0.6375,0.53987 -5.1971,17.94726 -6.0156,17.94726 -0.356,0 -1.7558,-0.59487 -3.1113,-1.32031 -1.7352,-0.92861 -3.8722,-0.72922 -7.2207,0.66992 -9.3872,3.92211 -9.3207,1.74925 0.082,-2.67773 9.1251,-4.29632 9.5998,-4.74231 9.5156,-8.95117 -0.1141,-5.67804 -1.9131,-8.05336 -4.8633,-6.41993 -1.2238,0.67763 -6.9892,3.15562 -12.8105,5.50586 -11.2693,4.54977 -26.3818,13.15135 -27.1485,15.45117 -0.7831,2.34949 7.2119,4.80604 12.4453,3.82422 3.2751,-0.61439 4.5507,-0.44808 3.9551,0.51563 -0.4834,0.78207 -1.8099,1.42187 -2.9472,1.42187 -1.1374,0 -4.3187,1.78362 -7.0704,3.96289 l -5.0039,3.96094 -1.7382,-7.63672 c -2.2549,-9.45359 -4.2841,-18.93739 -7.8106,-27.97656 l 10.2539,-0.79297 c 5.6396,-0.43571 12.3073,-1.81857 14.8184,-3.07226 2.7148,-1.35545 5.8596,-2.00973 9.4316,-1.96485 z m 102.64644,12.78125 c 1.88301,-0.16928 5.87218,0.73512 7.66602,1.99805 1.35768,0.95587 13.92068,4.93114 27.57226,8.72461 5.98744,2.70653 30.81113,-0.50567 21.83008,8.1875 -8.43416,7.71929 -8.28589,7.64782 -9.82422,4.77344 -13.27555,-2.82314 -27.64631,-8.09687 -40.41406,-14.41016 -5.63076,-2.83706 -7.85156,-5.30471 -7.85156,-8.7207 0,-0.32157 0.39381,-0.49631 1.02148,-0.55274 z m -235.13474,0.64649 5.7793,3.84179 c 83.3116,43.98122 159.74035,66.27147 250.6691,104.75137 8.42671,2.12478 -5.59095,21.63979 -12.09529,29.04501 -7.94603,-2.62929 -36.82231,-8.93607 -59.35509,-18.42919 -69.20922,-21.31793 -104.95662,-47.10417 -159.76172,-67.18555 -24.4971,-10.86604 -38.5628,-19.48422 -50.4375,-24.85937 7.0338,-10.16557 15.1264,-19.991 25.2012,-27.16406 z m 338.34763,1.16797 c 5.42866,3.43238 10.96142,6.15753 13.71359,12.84367 1.21614,3.22872 1.74296,6.12953 -2.74093,9.11336 -17.06117,13.47656 -31.52672,33.52061 -46.67123,47.20767 -12.65524,11.85385 -23.83718,22.24546 -29.97238,27.94536 -14.90031,-5.36422 -15.04848,-8.68608 -28.20405,-15.11006 l 15.20313,-15.26172 c 13.08677,-13.13633 38.42129,-35.40096 65.05468,-57.17188 8.38774,-6.8564 11.31049,-9.69216 13.61719,-9.5664 z m 53.125,29.56054 c 2.62852,-0.0992 5.99517,0.82488 7.6543,2.6582 2.25212,2.48861 2.23865,2.7646 -0.29688,6.34961 -1.45784,2.06122 -5.67401,9.7616 -9.36914,17.11329 -8.07093,15.00868 -17.79136,31.78592 -24.5332,44.60351 -1.30315,2.47702 -3.81272,5.25404 -5.57813,6.16992 -15.74259,6.47582 -24.73625,6.30273 -34.17061,10.72453 -5.48373,1.12665 -3.50322,-0.70182 -1.5247,-3.34757 12.53837,-16.70079 25.80861,-35.36971 35.94531,-50.12891 3.78058,-5.42692 26.27273,-33.86369 31.87305,-34.14258 z m -411.78123,20.24024 c 0.6018,-0.0231 2.2988,0.78169 4.0879,1.96679 3.9099,2.59001 16.8382,7.19842 27.2851,9.72657 8.5932,2.2049 19.0887,7.22751 28.7129,11.12109 39.7218,17.97742 77.1448,36.32282 119.4824,52.45312 22.11647,13.18589 49.70725,17.99923 70.0265,28.16856 8.18353,4.11037 7.60452,8.13013 10.26456,23.25332 1.62234,9.22316 1.57321,9.98226 -0.76954,11.69531 -17.46051,10.47087 -31.75288,12.92375 -48.14453,5.8418 -44.16029,-14.69993 -87.65969,-36.79119 -185.61919,-86.0293 -13.8437,-7.3903 -16.6702,-9.54113 -16.6582,-12.67383 -0.7471,-14.11837 -8.6241,-30.82371 -8.8554,-45.46093 0.038,-0.0384 0.1015,-0.0592 0.1875,-0.0625 z m 421.44529,21.92187 0.0469,4.00977 c -0.41193,3.58942 7.27231,15.10847 4.84765,16.16601 -0.96882,0.37172 -2.30369,0.55248 -2.96484,0.40235 -0.66105,-0.15009 -3.30579,0.65105 -5.87891,1.77929 -6.59948,2.89376 -10.69336,4.03786 -10.69336,2.99024 0,-1.5246 9.26285,-18.47308 12.02735,-22.00586 z m 29.32813,30.58008 c 2.5483,0.23815 2.42842,5.32071 -0.0879,19.82031 -3.8177,22.05715 -5.52301,64.30895 -12.66407,87.98047 -37.53848,13.80952 -97.53873,43.28597 -142.11132,53.6582 -1.26695,-2.93372 -10.92652,-36.13373 -8.41993,-40.15039 39.7224,-22.48414 67.82699,-38.30104 100.25782,-63.04492 10.2416,-5.0893 2.59588,-27.51077 -15.8125,-20.69336 -31.81315,11.22777 -53.54536,25.45997 -91.09571,40.88281 -6.31098,3.2993 -10.23374,-13.80108 -6.11914,-18.37695 1.70084,-0.79671 6.30688,-3.02554 10.23438,-4.95117 45.67873,-18.23555 103.37805,-33.49609 159.04687,-53.5918 1.71287,-0.32427 4.19513,-0.93246 5.51563,-1.35156 0.47374,-0.15036 0.89181,-0.21566 1.25586,-0.18164 z m -440.44922,41.27539 c 0.3498,0.0568 0.9572,0.34839 1.8828,0.84375 4.5984,2.50538 9.5786,6.78231 15.4219,8.58594 3.8004,2.43502 9.9179,5.98236 13.5937,7.88281 3.6759,1.90045 11.4957,6.00595 17.377,9.12305 5.8814,3.11711 17.61,9.27859 26.0644,13.69336 18.3521,9.5811 42.1792,19.17563 63.1446,29.40429 2.9406,1.00841 13.6198,6.0298 18.3984,8.31641 21.21457,8.50059 41.47894,18.13611 60.02736,21.48242 22.36891,4.16712 30.47856,-4.878 43.2246,-8.16015 3.46656,-0.86015 3.67579,-0.6548 3.67579,3.61914 -0.26042,4.2223 5.96375,25.98092 2.93239,25.80844 -35.33231,-2.01036 -92.75184,-26.35633 -126.43824,-43.8729 -12.3356,-5.94263 -39.1095,-15.33317 -61.957,-31.60156 -19.3913,-10.26533 -47.5307,-23.29051 -71.6524,-34.71875 -4.5427,-2.07757 -3.9039,-4.51058 -5.5703,-8.56641 -0.5746,-1.37365 -0.7081,-1.93447 -0.125,-1.83984 z" fill="#00B894" transform="translate(161.51634,29.172821) matrix(0.26458333,0,0,0.26458333,-183.43325,-55.861823)"/>
</svg>