<?xml version="1.0" ?><svg height="96.090965mm" viewBox="0 0 118.91626 96.090965" width="118.91626mm" xmlns="http://www.w3.org/2000/svg">
    <path d="m -1986.7887,1264.6181 c 0,0 -23.1894,3.1684 -20.6596,-9.3154 2.5297,-12.4839 24.5386,-5.4831 24.5386,-5.4831 0,0 7.3362,0.7779 11.0255,-0.1707 3.6892,-0.9486 7.0622,-4.9328 7.0622,-4.9328 0,0 -16.1905,-11.8198 -8.285,-19.7503 7.9055,-7.9305 22.3592,8.8147 22.3592,8.8147 7.5144,3.6157 2.958,-0.3479 5.0676,-3.9578 1.7919,-2.8458 2.7616,-4.6292 2.7616,-4.6292 0,0 1.3492,-8.7273 6.7882,-13.793 5.4389,-5.0656 22.7677,-9.581 32.2754,0.3985 9.5076,9.9795 11.0255,23.2791 3.5416,31.3234 -7.4838,8.0443 -16.3801,11.1747 -16.3801,11.1747 0,0 14.1244,13.2428 7.1676,19.2001 -6.9568,5.9573 -20.1115,-2.6751 -20.1115,-2.6751 0,0 -7.7579,7.4941 -11.8687,10.302 -4.1109,2.8079 -13.8083,4.8759 -13.8083,4.8759 0,0 -16.6654,16.8195 -26.315,9.9706 -9.6496,-6.8488 -4.2106,-9.5532 -1.8495,-10.9761 2.3611,-1.423 8.4957,-6.3558 8.4957,-6.3558 z" fill="#FFFFFF" transform="translate(72.6765,-64.723607) translate(1937.535,-1139.3828)"/>
    <path d="m -1981.6294,1298.6165 c -4.9485,-2.2476 -7.5792,-5.7841 -7.2466,-9.7418 0.2199,-2.6304 0.9311,-3.579 4.43,-5.9173 2.2918,-1.5316 4.6721,-2.965 5.2896,-3.1852 0.7989,-0.2846 0.5627,-1.0106 -0.819,-2.5167 -1.0678,-1.164 -2.5664,-3.6123 -3.3301,-5.4403 -1.8852,-4.5119 -4.1491,-5.3925 -11.1252,-4.329 -9.7483,1.4862 -15.7808,-2.4092 -15.7808,-10.19 0,-4.1656 2.4735,-9.2987 5.1479,-10.6829 3.1992,-1.6561 9.6211,-1.8768 16.4695,-0.5663 3.8687,0.7402 8.8192,1.3437 11.001,1.3412 4.3307,0 10.5792,-1.4659 10.5792,-2.473 0,-0.3476 -1.6104,-1.6183 -3.5786,-2.8238 -8.5894,-5.2609 -9.1708,-15.9975 -1.4138,-20.0089 4.3648,-2.257 7.6817,-2.5987 14.0077,3.4344 3.161,3.0146 7.1091,5.9171 7.9605,6.6753 0.8516,0.7584 1.6451,1.216 1.7633,1.0168 0.5713,-5.26 2.4559,-5.631 2.8081,-8.7097 0.5714,-4.9951 3.5728,-11.9396 7.2683,-14.7584 7.0688,-5.3916 18.7323,-7.1704 27.6332,-4.2138 3.9538,1.3132 4.5164,1.3182 6.3196,0.055 3.0815,-2.1582 8.3226,-1.7838 10.8841,0.7774 2.5214,2.5215 2.6741,3.7677 0.7914,6.4559 -2.4038,3.432 -5.9108,1.9656 -3.7267,-1.5582 0.9446,-1.5236 0.9131,-1.9652 -0.19,-2.6671 -1.7652,-1.1231 -5.0464,-1.0931 -5.7544,0.053 -0.3131,0.5065 0.9744,2.5954 2.8611,4.6421 2.0272,2.1993 3.9017,5.4055 4.5832,7.84 1.5063,5.3803 0.9101,16.0459 -1.1321,20.2465 -2.1376,4.3969 -7.8533,9.8869 -12.31,11.8239 -2.0214,0.8784 -3.8274,1.7043 -4.0131,1.8352 -0.1849,0.13 0.8872,1.6331 2.3846,3.3384 7.965,9.0718 4.0788,19.8739 -7.1511,19.8786 -3.2807,0 -9.6558,-2.6126 -10.7704,-4.4162 -0.3191,-0.5165 -2.3238,1.0384 -4.5931,3.5626 -4.2895,4.7705 -10.1356,8.2486 -15.5839,9.2707 -2.4622,0.4618 -4.6416,1.9594 -8.3263,5.7219 -3.9104,3.9929 -6.0275,5.3998 -9.7792,6.4991 -6.251,1.8315 -11.1183,1.7473 -15.5574,-0.2689 z m 15.9377,-6.5953 c 4.9379,-2.7345 9.6928,-5.708 5.7249,-8.487 -1.5219,-1.0836 -4.3688,-2.7757 -6.4766,-3.0868 -6.8196,-1.0064 -6.0612,0.4523 -10.9453,3.7103 -6.4343,4.292 -7.1326,5.0184 -6.3069,6.561 2.0957,3.9157 11.084,4.5659 18.0039,1.3025 z m 18.5859,-11.2306 c 3.5843,-1.341 6.818,-3.6048 11.4938,-8.0463 3.5783,-3.3993 6.574,-6.6982 6.5061,-7.323 -0.1757,-1.6169 2.4198,-6.6969 7.2548,-8.3248 4.2058,-2.2 1.8073,-2.13 -1.4854,-5.1651 -4.7706,-4.3975 -7.4994,-4.5407 -11.2889,-1.2323 -4.4495,3.8846 -10.7927,3.0566 -13.9476,-0.4546 -3.0306,-3.3729 -3.2179,-5.7489 -0.8059,-9.7047 0.9679,-1.5876 1.7598,-3.1812 1.7598,-3.5413 0,-0.3601 -1.6778,-0.699 -3.7282,-0.7527 -4.2638,-0.1125 -5.4393,0.9588 -6.9154,6.2986 -0.5361,1.9395 -1.8086,4.4262 -2.8276,5.526 -2.3368,2.5215 -9.264,4.6124 -15.2808,4.6124 -4.9545,0 -4.8582,-0.095 -6.0743,5.9481 -0.4885,2.4275 0.027,3.7717 3.4024,8.8468 5.6532,8.5036 6.4855,8.0089 12.8349,8.2568 4.4199,0.1724 6.6545,0.8427 9.654,3.0386 3.7887,4.1365 4.8492,3.7296 9.4483,2.0175 z m 35.6494,-10.5095 c 1.1206,-2.0939 0.4593,-4.6823 -2.0706,-8.1042 -2.0742,-2.8053 -3.3172,-3.007 -6.3377,-1.0278 -2.1988,1.4406 -5.7149,6.4204 -5.7149,8.0939 0,1.3707 4.2837,2.6859 9.0053,2.7649 3.3226,0.055 4.3495,-0.2906 5.1179,-1.7268 z m -80.3091,-7.1708 c 3.222,-0.7442 4.4751,-1.4532 4.4751,-2.534 0,-0.8254 0.5825,-3.1522 1.2947,-5.1704 1.2925,-3.6635 1.2908,-3.671 -1.102,-4.5868 -1.3182,-0.5046 -4.4687,-1.336 -7.0011,-1.8478 -5.7714,-1.166 -8.973,0.1948 -10.0364,5.443 -1.8499,9.1304 8.3613,9.6218 12.3697,8.696 z m 81.8692,-15.6399 c 4.0209,-2.0724 8.5768,-6.7322 9.8288,-10.0524 2.9727,-7.8852 -1.0361,-22.6434 -6.151,-22.6434 -0.8379,0 -1.7168,-0.7385 -1.953,-1.6414 -0.5463,-2.0891 -7.5289,-4.5314 -12.9367,-4.5246 -10.4949,0.025 -17.109,4.6469 -19.5147,12.8973 -0.5076,1.7406 0.053,3.4408 3.0117,3.2958 6.3244,-0.31 8.8516,1.5918 12.6693,7.1316 3.2147,4.6648 3.7083,8.6082 1.4764,11.7944 -0.7767,1.1091 -1.2727,2.1027 -1.102,2.2084 5.4935,3.3976 10.1181,3.8814 14.6712,1.5343 z m -12.051,-18.3927 c -1.1063,-2.0672 0.3326,-4.6056 2.6104,-4.6056 2.438,0 3.6014,2.1648 1.7316,4.231 -1.9354,2.1386 -3.267,2.3835 -4.342,0.3746 z m -7.2578,-5.1661 c -0.9926,-1.196 -1.1502,-2.4 0.5924,-3.8112 2.301,-1.8632 3.9147,-0.7492 3.9147,1.748 0,2.4655 -3.0242,3.8502 -4.5071,2.0632 z m -9.3532,22.9428 c 0,0 -0.6647,-1.5516 -2.1359,-2.7896 -2.1921,-1.8445 -2.8173,-2.0256 -3.4641,-1.0038 -1.1138,1.7595 -1.0016,3.2289 0.2859,3.7485 3.9264,2.6369 5.3141,0.045 5.3141,0.045 z m 11.2397,-5.6771 c 1.9839,-3.7073 -4.5609,-10.6984 -11.1777,-11.9399 -3.3781,-0.6338 -6.4781,1.3434 -6.4781,4.1318 0,1.2917 0.5285,1.4851 2.9735,1.0886 3.5591,-0.5776 4.871,0.9018 2.8151,3.1737 -1.3394,1.4798 -1.294,1.6815 0.6695,2.968 1.9944,1.307 2.1973,1.258 3.8247,-0.9216 2.1034,-2.8174 4.704,-2.2226 4.704,1.0758 0,2.6931 1.3405,2.9058 2.669,0.4236 z m -30.3084,-8.4551 -3.7347,-4.1251 c -4.1261,-4.5576 -4.5974,-4.7158 -8.3146,-2.7936 -3.106,1.6061 -4.6864,4.281 -3.9327,6.6558 0.5261,1.6573 8.6063,6.9737 10.6259,6.9914 2.1122,-3.4539 0.854,-4.3217 5.3561,-6.7285 z" fill="#00B894" transform="translate(72.6765,-64.723607) translate(1937.535,-1139.3828)"/>
</svg>