<?xml version="1.0" ?><svg height="114.7635mm" viewBox="0 0 158.20374 114.7635" width="158.20374mm" xmlns="http://www.w3.org/2000/svg">
    <path d="m -1845.0158,1198.8792 c 0.4585,-4.9196 3.7529,-7.6564 6.5163,-9.785 2.7635,-2.1286 14.9273,-8.5686 14.9273,-8.5686 0,0 6.0583,-4.7637 6.0629,-4.7643 0,0 5.4614,5.5136 5.4614,5.5136 l 9.4246,-2.6607 1.9067,8.5469 8.9419,1.6833 -2.4014,7.5805 7.7713,2.5738 -2.9685,9.3398 8.5436,1.1077 -0.2775,11.2186 10.2572,-0.934 4.0667,8.0582 c 0,0 2.1982,-0.7572 5.9873,-2.2234 3.7892,-1.4661 6.6974,1.3793 6.6974,1.3793 l 2.3049,6.3206 c 0,0 7.387,-2.8632 11.2597,-3.5597 3.8727,-0.6964 5.4294,3.2339 4.1623,5.8186 -1.2671,2.5847 -0.2655,3.1277 -0.2655,3.1277 0,0 11.4761,-3.8662 15.579,-1.01 4.1029,2.8563 -0.9051,10.7951 -0.9051,10.7951 0,0 8.5316,-1.8571 10.571,-0.3258 2.0394,1.5312 3.6308,5.4835 3.6308,5.4835 0,0 6.8783,-2.3783 10.0038,-0.3149 3.1254,2.0634 2.7031,9.4918 2.7031,9.4918 0,0 3.3305,6.3315 2.8599,8.4927 -0.4706,2.1611 -19.1267,2.5304 -22.3849,2.4652 -3.2582,-0.065 -29.1909,-0.3692 -29.1909,-0.3692 0,0 -10.8102,12.3382 -14.72,12.6857 -3.9098,0.3476 -8.5919,-4.2137 -8.5919,-4.2137 0,0 -11.464,1.8462 -13.5154,-0.8797 -2.0515,-2.7259 0.3016,-11.4792 0.3016,-11.4792 0,0 -13.6638,-5.2905 -17.465,-9.8191 -3.8012,-4.5287 -5.189,-9.4918 -5.189,-9.4918 0,0 -29.2753,-2.3458 -30.9889,-6.1903 -1.7136,-3.8445 -2.7393,-5.2564 0.8085,-7.8519 3.5478,-2.5956 19.8628,-7.8845 19.8628,-7.8845 l -4.2115,-5.3324 c 0,0 -14.2042,-1.9594 -17.4141,-3.5016 -3.2099,-1.5421 -7.4214,-3.7576 -8.6764,-7.0482 -1.255,-3.2906 -1.446,-13.4746 -1.446,-13.4746 z" fill="#FFFFFF" transform="translate(63.818118,-67.779598) translate(1783.4654,-1106.3936)"/>
    <path d="m -1817.5093,1174.1738 c -1.5241,0 -3.1569,1.1074 -5.0379,3.3047 -1.4364,1.678 -4.8728,3.8281 -8.569,5.3614 -11.1914,4.6429 -18.4007,14.0974 -15.5386,20.3786 0.5458,1.1977 0.9922,4.1143 0.9922,6.4813 0,4.2963 1.522,7.0739 3.8762,7.0739 0.608,0 2.0272,0.9802 3.1528,2.1782 2.4002,2.555 5.2755,3.5845 13.6664,4.8938 5.5047,0.8589 7.4598,1.8144 7.5018,3.6649 0.01,0.3294 -2.0693,1.2257 -4.6147,1.9921 -2.5457,0.7664 -6.8094,2.4809 -9.4748,3.8096 -3.8282,1.9083 -5.0084,3.0051 -5.6199,5.2214 -1.7161,6.2185 1.9697,10.0228 10.1359,10.4629 2.2508,0.1212 5.2106,0.9543 6.5779,1.851 1.8088,1.1862 4.5675,1.7119 10.1265,1.9343 l 7.6403,0.3038 0.9721,3.2448 c 1.3477,4.4979 7.489,10.4587 13.8921,13.4845 l 5.3785,2.5419 -0.4093,4.2587 c -0.3493,3.634 -0.1034,4.5489 1.6743,6.2342 1.8151,1.7201 2.7752,1.9221 7.4518,1.5627 4.6028,-0.3536 5.5188,-0.1714 6.4244,1.2785 0.5808,0.9299 1.9337,2.044 3.0065,2.4758 v 0 c 3.0463,1.226 6.054,0.9969 9.8847,-0.7529 3.3356,-1.5234 9.6688,-7.5521 11.6473,-11.0882 0.8632,-1.5421 1.581,-1.5648 15.0369,-0.4749 14.6183,1.1839 31.4756,0.8088 35.6634,-0.7933 3.3106,-1.267 3.8932,-4.3565 1.65,-8.7535 -1.0014,-1.9626 -2.2232,-3.8168 -2.715,-4.1206 -0.4917,-0.3039 -0.894,-2.2534 -0.894,-4.3316 0,-5.286 -2.2281,-7.1505 -8.4693,-7.0905 -3.0173,0.03 -4.7542,-0.3231 -4.7542,-0.9653 0,-2.0414 -3.282,-3.8946 -7.3153,-4.1295 l -4.1367,-0.2423 v -3.7264 c -0.01,-5.3201 -2.5243,-6.8485 -10.018,-6.0808 l -5.5521,0.569 0.3643,-2.4841 c 0.5585,-3.8067 -1.42,-4.8812 -7.9344,-4.3077 -3.0337,0.2668 -6.6067,0.7561 -7.9401,1.0872 -2.1674,0.5383 -2.4242,0.3645 -2.4242,-1.6417 0,-3.7734 -2.3198,-5.2665 -7.432,-4.7842 -2.4583,0.2319 -5.1393,0.7045 -5.9584,1.0505 -1.1889,0.5028 -1.6072,0 -2.0758,-2.498 -0.8176,-4.3587 -2.2753,-5.2907 -7.336,-4.6912 l -4.2571,0.5039 0.4315,-4.4907 c 0.5013,-5.2172 -0.8649,-6.8544 -5.7185,-6.8544 -3.3583,0 -3.3852,-0.064 -1.5229,-3.6654 2.0504,-3.9651 1.0428,-6.7073 -2.7239,-7.414 -3.0597,-0.574 -3.883,-1.5433 -2.1967,-2.5854 1.2577,-0.7769 1.093,-5.496 -0.2197,-6.3086 -0.606,-0.3754 -2.6891,-0.8947 -4.6286,-1.154 -3.2779,-0.4386 -3.5467,-0.6889 -3.8184,-3.5537 -0.1609,-1.6952 -0.7057,-3.5794 -1.2102,-4.1874 -1.3093,-1.5776 -6.1087,-1.366 -8.6006,0.3793 -2.0034,1.4039 -2.1719,1.3958 -3.0613,-0.1426 -1.6508,-2.8555 -3.2383,-4.2723 -4.9656,-4.2706 z m 0.026,3.191 c 0.4187,0.01 0.6993,0.2565 1.0112,0.7488 0.4159,0.6559 0.7695,1.4905 0.7695,1.8541 0.016,0.7525 -0.4322,0.7343 -3.5129,-0.1426 -2.9197,-0.7642 -2.4727,-0.4813 -0.108,-1.7663 0.8646,-0.4696 1.4214,-0.7021 1.8402,-0.694 z m 12.5201,3.2639 c 1.0286,0 1.6164,0.6411 1.6164,1.7632 0,2.0504 0.1324,2.0193 -2.452,0.5844 -2.1719,-1.2055 -1.7653,-2.3476 0.8356,-2.3476 z m 2.2856,10.3322 c 3.7036,4.7063 5.9417,9.4267 9.0062,18.9931 5.1404,16.0474 5.197,16.0871 36.6076,25.7581 9.5286,2.9338 12.6146,4.4408 21.918,10.7043 8.03,5.4063 13.7744,8.2858 23.6234,11.8422 10.3103,3.7233 12.6732,5.0576 15.1707,8.5679 2.1171,2.9756 2.1768,3.296 0.7658,4.1129 v 0 c -1.5531,0.8994 -28.5593,1.4296 -38.8958,0.7643 l -5.6286,-0.3617 0.4935,-4.7842 c 0.9696,-9.3944 -2.2783,-14.4171 -9.9596,-15.4027 -5.2671,-0.6757 -10.2882,0.816 -12.4799,3.7078 -0.8431,1.1128 -2.2185,4.547 -3.0561,7.6316 l -1.5229,5.6084 -6.0436,-0.5958 c -11.469,-1.13 -20.0892,-5.0675 -24.8977,-11.372 -2.4037,-3.1514 -2.3864,-4.9795 0.047,-4.9795 2.1859,0 8.0862,-3.3812 9.5518,-5.4736 1.8155,-2.5918 1.7172,-5.602 -0.3312,-10.1135 -2.0024,-4.4107 -5.036,-5.5656 -14.7128,-5.5656 -6.1235,0 -6.3473,-0.084 -8.5959,-3.0318 -1.2697,-1.6649 -2.3083,-3.658 -2.3083,-4.4298 0,-1.7832 -2.5953,-2.5693 -7.3351,-2.6043 -4.4355,-0.1419 -9.0869,0.119 -15.7225,-3.5653 -0.8977,-0.5045 -1.6248,-1.0275 -1.6133,-1.2759 0.024,-0.9169 1.64,-3.1386 1.9684,-2.7052 0.1732,0.2283 0.7833,1.1859 1.6175,2.5193 1.3478,2.4675 2.3571,3.4793 3.9129,1.8427 1.1365,-1.1957 1.8102,-1.4677 2.2365,-0.7778 0.3421,0.5538 1.1648,1.3504 1.8283,1.7704 1.2862,1.3938 3.8068,0.904 5.3305,-1.2867 0.4023,-0.6107 1.3756,-0.553 2.9734,0.1752 3.2302,1.4716 6.2801,-0.5234 7.0466,-4.6095 1.1583,-6.1743 -1.397,-7.5646 -14.0343,-7.6316 -7.8438,-0.042 -14.0919,-1.2876 -15.6693,-2.3849 -3.574,-2.4862 0.014,-7.903 4.3254,-10.9422 5.7277,-4.0371 10.9686,-6.0862 18.3536,-6.5641 9.0424,-0.5852 12.9972,2.6691 16.0297,6.4595 z m 7.2575,-1.5162 c 0.9739,0 1.7704,0.5719 1.7704,1.2707 0,2.0476 -1.3235,2.2801 -2.4758,0.4351 -0.9206,-1.4736 -0.8247,-1.7058 0.7054,-1.7058 z m -22.4611,3.9672 c -1.8276,0 -2.739,2.2138 -1.8521,4.5248 0.9211,2.4005 3.6034,0.9919 3.6034,-1.8924 0,-2.0389 -0.3952,-2.6324 -1.7513,-2.6324 z m 7.0527,0.8816 c -1.8275,0 -2.7394,2.2135 -1.8526,4.5248 0.9214,2.4005 3.6039,0.9919 3.6039,-1.8924 0,-2.0389 -0.3951,-2.6324 -1.7513,-2.6324 z m 21.146,4.8488 c 0.7272,0 1.309,0.4957 1.309,1.1017 -0.01,0.6063 -0.349,1.6311 -0.7591,2.2779 -0.5945,0.9378 -0.8592,0.8788 -1.3085,-0.2925 -0.8754,-2.2808 -0.6775,-3.0871 0.7586,-3.0871 z m -51.4671,8.8459 c 0.2822,-0.026 0.6444,0.013 1.0888,0.1122 v 0 c 1.1195,0.2509 1.1467,0.5481 0.1721,1.8676 -1.068,1.4465 -1.2032,1.4532 -1.7245,0.094 -0.5126,-1.3361 -0.384,-1.9951 0.4625,-2.0732 z m 8.2693,1.7328 c 0.7275,0 1.3229,0.5714 1.3229,1.2701 0,1.8653 -1.4925,2.4706 -2.112,0.8568 -0.7539,-1.9644 -0.6938,-2.1269 0.7891,-2.1269 z m 47.9908,0 c 2.696,0 3.7128,2.0061 2.6138,5.1588 -1.2615,3.6185 -2.0785,3.5014 -3.6943,-0.5302 -1.4812,-3.6958 -1.2635,-4.6286 1.0805,-4.6286 z m -39.502,0.8816 c 1.4385,0 1.5608,0.2815 0.7679,1.7632 -0.5189,0.9698 -1.0805,1.7631 -1.2505,1.7631 -0.1689,0 -0.5142,-0.7933 -0.7679,-1.7631 -0.3441,-1.316 -0.027,-1.7632 1.2505,-1.7632 z m 6.9391,0 c 0.4849,0 0.8817,0.3967 0.8817,0.8815 0,0.4851 -0.3968,0.8817 -0.8817,0.8817 -0.4849,0 -0.8816,-0.3966 -0.8816,-0.8817 0,-0.4848 0.3967,-0.8815 0.8816,-0.8815 z m 43.6579,10.0562 c 1.8178,-0.032 3.0659,0.8178 3.0659,2.3456 0,2.0004 -1.9027,2.1494 -5.7304,0.4496 l -2.6443,-1.1746 2.5404,-1.0119 c 0.9978,-0.3975 1.9421,-0.5943 2.7684,-0.6087 z m 15.0197,5.8126 c 2.4457,0 3.0334,0.3418 3.0334,1.7631 0,1.9307 -0.9503,2.0816 -4.6338,0.7364 -3.1432,-1.1478 -2.2775,-2.4995 1.6004,-2.4995 z m -57.6109,4.4757 c 0.5635,-0.039 0.4715,0.2191 -0.6258,0.8759 -3.9729,2.3778 -6.5134,5.5618 -7.0709,8.862 -0.5893,3.4873 -1.163,3.7897 -5.271,2.7802 -5.66,-1.3915 -4.1398,-5.3705 3.4556,-9.045 3.8595,-1.8678 8.2722,-3.3883 9.5121,-3.4731 z m 75.8517,0.8754 c 2.6246,-0.049 3.3057,0.2672 3.3057,1.5332 0,0.8769 -0.4957,2.2047 -1.1017,2.9507 -0.9784,1.2037 -1.5409,1.1063 -5.007,-0.8666 -3.3753,-1.9213 -3.6744,-2.3132 -2.204,-2.8892 0.9356,-0.3664 3.1887,-0.6932 5.007,-0.7281 z m -57.551,1.373 c 2.8185,-0.01 3.3814,0.4603 5.0756,2.943 3.2836,4.8113 2.4824,7.2191 -3.0091,9.0413 -5.533,1.8355 -17.5871,2.78 -20.3445,1.5931 -3.764,-1.62 -4.3296,-7.6715 -0.9607,-10.2784 1.4824,-1.1471 12.0556,-3.0802 17.8827,-3.2701 0.5046,-0.016 0.9533,-0.028 1.356,-0.029 z m 71.7878,4.7496 c 4.4744,0.022 5.1738,0.8983 3.8623,4.8364 -0.6207,1.8647 -1.5259,3.5214 -2.0112,3.6788 -0.9987,0.3261 -10.1374,-5.0812 -10.1374,-5.9981 0,-0.9326 5.265,-2.5421 8.2863,-2.5171 z m 11.8226,11.5455 c 1.6291,0.074 2.8113,0.701 2.8122,1.6366 v 0 c 0,1.1437 -1.5703,1.079 -4.4075,-0.1808 l -2.204,-0.9788 2.0474,-0.3576 c 0.6154,-0.1075 1.2086,-0.1445 1.7519,-0.1199 z m 13.0627,5.2193 c 1.0316,-0.016 2.3697,0.5673 2.9735,1.2945 v 0 c 1.4979,1.804 -0.7617,1.8247 -3.1378,0.027 -1.677,-1.2692 -1.674,-1.2944 0.1648,-1.3224 z m -51.4692,0.2367 c 3.8594,-0.087 7.7138,2.6785 7.7138,7.4833 -0.011,7.3502 -4.2309,15.1114 -10.5214,19.3507 -2.8908,1.9482 -6.2235,2.5814 -7.399,1.4056 -1.5141,-1.5141 0.9832,-18.4401 3.5109,-23.7944 1.4118,-2.9908 4.0551,-4.3858 6.6957,-4.4452 z m -25.3225,18.2749 c 0.6038,0 1.4796,0.1205 2.7497,0.2945 2.2496,0.3084 4.8283,0.5607 5.7304,0.5607 1.1401,0 1.6397,0.6401 1.6397,2.0991 0,1.7485 -0.6546,2.2647 -3.9165,3.0861 -2.1545,0.5423 -4.2565,0.986 -4.6721,0.986 -1.5351,0 -2.8717,-2.1894 -2.8717,-4.7041 0,-1.7682 0.012,-2.3269 1.3405,-2.3223 z" fill="#00B894" transform="translate(63.818118,-67.779598) translate(1783.4654,-1106.3936)"/>
</svg>