<?xml version="1.0" ?><svg height="149.03421mm" viewBox="0 0 207.85057 149.03421" width="207.85057mm" xmlns="http://www.w3.org/2000/svg">
    <path d="m -2272.5458,1142.1457 -12.1604,-11.3353 0.1507,-12.9004 -14.1699,-0.01 -11.0018,-11.3217 2.53,-19.8234 c 0,0 10.3751,-23.7713 16.3402,-33.5681 5.9651,-9.7968 14.5762,-19.5727 14.5762,-19.5727 l 9.586,10.6741 21.3537,0.4387 10.5376,11.2799 28.2009,-18.1523 29.4542,21.5571 0.2256,-57.6172 18.6149,-2.88267 10.5375,7.79147 4.619,49.7778 c 0,0 6.0811,-6.1622 15.4814,-1.7965 9.4003,4.3658 24.9039,15.5573 21.2145,25.5678 -3.6895,10.0105 -10.9322,11.2799 -10.9322,11.2799 l 11.6425,1.9007 -2.5258,18.8664 -7.7292,0.3552 -2.1353,20.074 -52.7577,7.2066 -8.6343,-8.6688 20.9592,-16.8363 -22.3054,-0.2089 -12.5337,-12.4914 c 0,0 1.0502,-21.4817 -10.8568,-21.1057 -11.907,0.376 -12.1624,13.2226 -12.2552,16.2932 -0.093,3.0707 1.1386,18.6151 1.1386,18.6151 l -27.5685,-0.4377 -1.8174,25.1457 z" fill="#FFFFFF" transform="translate(130.362,-39.07817) translate(2180.7143,-957.7287)"/>
    <path d="m -2274.6625,1144.2624 c -3.4209,-1.2171 -12.778,-11.1719 -12.8307,-13.3845 -0.027,-1.1165 0.2664,-4.1338 0.651,-6.7053 l 0.6992,-4.6751 c -5.8848,1.0936 -14.5396,1.5133 -17.4774,-1.1358 -1.7008,-1.6486 -3.2243,-3.0385 -4.4903,-4.865 -3.5761,-4.4362 -2.8008,-6.3899 -2.9656,-13.6045 0,0 0.8931,-8.2625 0.8929,-9.5742 -8e-4,-6.3299 17.7699,-40.0946 28.0013,-53.1913 4.8867,-6.2549 6.8684,-6.3536 12.5373,-0.6247 2.2791,2.303 4.5149,4.874 4.9688,5.7132 0.7486,1.3844 1.7093,1.4481 10.381,0.6862 6.703,-0.589 10.1171,-0.553 11.435,0.1199 2.7479,1.4032 9.3724,7.9855 9.3724,9.3122 0,0.6265 0.185,1.1388 0.4114,1.1388 0.2249,0 4.4294,-3.2727 9.3407,-7.273 16.3233,-13.2956 17.1434,-13.5672 23.1797,-7.6706 4.0374,3.9438 20.8353,16.6484 22.06,16.6841 0.4346,0.025 0.529,-5.4852 0.2149,-12.5398 -1.4511,-32.6107 -1.6218,-41.3751 -0.8206,-42.1763 0.4628,-0.4628 2.2011,-1.03112 3.8629,-1.26272 1.6615,-0.2324 6.1595,-0.9816 9.9956,-1.6668 7.6714,-1.3702 8.752,-1.1581 14.7623,2.89802 4.8222,3.2547 6.3836,5.0027 5.6004,6.27 -0.3216,0.52 0.2424,8.1741 1.253,17.0093 1.0106,8.8348 2.0634,19.1049 2.34,22.8221 l 0.5026,6.7588 2.9888,-1.2488 c 3.7692,-1.5748 7.5024,-1.5668 13.4977,0.03 6.0215,1.6029 10.8286,4.9457 14.7052,10.2266 6.9914,9.5243 7.5509,20.3819 1.3477,26.1608 l -1.8997,1.77 2.6989,0.5398 c 1.8542,0.3708 2.9818,1.284 3.603,2.9185 1.2058,3.1712 0.5096,18.401 -0.9198,20.1236 -0.6343,0.7641 -2.5378,1.3387 -4.436,1.3387 h -3.3251 l -0.3686,7.273 c -0.2024,4.0001 0,8.1539 0.477,9.2305 1.1741,2.7179 -0.3768,4.2995 -4.9402,5.0384 -12.0196,1.946 -42.2567,5.7679 -45.7026,5.7769 -2.2355,0 -5.8863,-0.2399 -8.1131,-0.5448 -3.6216,-0.4963 -4.4247,-1.0578 -7.6164,-5.3258 -3.9019,-5.2174 -4.382,-7.1034 -2.0252,-7.957 1.5921,-0.5765 15.6828,-11.2394 16.412,-12.4194 0.225,-0.3649 -1.1312,-0.5166 -3.0152,-0.3369 -1.8838,0.1799 -6.9763,0.9738 -11.0231,0.7889 -6.3075,-0.2883 -8.0793,-3.5027 -12.2841,-7.7066 -5.4615,-4.0909 -5.3953,-7.0249 -5.8112,-13.434 -0.3316,-5.1089 -1.1033,-9.2614 -2.0669,-11.1214 -1.4206,-2.7421 -1.782,-2.9286 -4.747,-2.4473 -3.9607,0.6428 -7.2578,2.9986 -8.9246,6.3764 -1.7488,3.5443 -2.097,21.6365 -0.9344,24.612 2.8437,7.2783 -19.0366,4.2332 -23.4549,4.1093 l -2.7339,-0.058 -0.5565,9.0938 c -0.7187,11.7462 -2.0359,15.9397 -5.007,15.9397 -1.2057,0 -2.5954,0.2637 -3.0877,0.5855 -8.9542,2.7714 -17.9541,4.686 -26.6149,1.6046 z m 15.365,-4.8895 c 4.7038,-0.7569 9.2275,-1.1997 10.0526,-0.9838 2.0672,0.5405 2.4918,-1.4189 3.118,-14.3899 l 0.5318,-11.02 -11.523,-0.2999 c -7.1925,0.7416 -12.6942,0.257 -12.498,4.3533 -0.2562,1.6196 -0.087,6.2944 -0.2468,12.4764 -0.2274,8.8106 0.05,10.1983 0.9537,10.1983 0.6333,0 4.9076,0.4226 9.6117,-0.3344 z m 137.6315,-9.4896 0.6,-5.1714 c 0.6994,-6.027 -0.2677,-19.003 -1.4717,-19.7472 -0.455,-0.2811 -2.4962,0.8392 -4.5361,2.4898 -2.0402,1.6503 -5.6927,4.3387 -8.1172,5.974 -6.6128,4.4605 -31.2962,23.0349 -31.2962,23.5506 0,0.2474 1.0911,0.2325 2.4245,-0.032 14.9877,-2.5803 26.1858,-4.395 42.3967,-7.0638 z m -154.1995,-7.308 c 0.053,-7.7431 -0.1799,-9.2232 -1.7652,-11.2402 -1.0049,-1.2777 -2.1462,-2.323 -2.536,-2.323 -0.3901,0 -0.9091,4.8597 -1.1538,10.7996 0,5.0017 -2.065,9.4217 1.869,12.7667 2.1176,1.8006 2.3653,1.8378 2.9191,0.4409 0.3326,-0.8397 0.6329,-5.5395 0.6669,-10.444 z m 106.2928,9.689 c 14.182,-12.0678 29.2603,-23.1273 43.3053,-31.7635 1.5199,-0.9346 1.4024,-1.1283 -1.4299,-2.3623 -3.0058,-1.3094 -3.154,-1.2797 -5.7304,1.1546 -1.4547,1.3741 -6.4191,5.2143 -11.032,8.5332 -4.6131,3.3192 -13.6244,9.9859 -20.0253,14.8152 -10.965,8.2729 -11.5553,8.8716 -10.2096,10.3585 1.8053,1.9947 1.935,1.9762 5.1219,-0.7357 z m -115.0469,-24.1336 c 0.7024,-6.9539 1.7344,-6.6647 8.2019,-7.4934 6.2671,-0.8032 6.7772,-1.0146 5.7304,-2.3738 -7.4781,-0.1807 -12.2725,0.028 -21.4172,1.3427 -3.9318,0.2096 -3.6763,4.3431 -3.6763,9.0669 -0.1395,6.9792 0.9832,7.0186 4.3287,6.3563 l 5.5098,-0.2869 z m -18.7649,-9.3584 -2.8336,-4.0316 -0.7344,6.1625 c -0.701,5.8835 -0.6213,6.3334 1.7633,9.9369 4.9598,6.282 5.011,3.9037 4.8322,-1.8151 -0.4121,-6.9387 0.5143,-5.214 -3.0275,-10.2527 z m 64.7608,6.2809 c -0.2826,-7.5327 -0.3214,-7.6506 -2.3495,-7.1416 -2.0212,0.5073 -18.7864,-0.8566 -21.8269,-1.7757 -1.1752,-0.3552 -1.5428,0.045 -1.5428,1.6838 0,2.0636 0.2801,2.1663 6.9666,2.5534 5.6949,0.3296 7.4447,0.7929 9.5863,2.5377 1.441,1.1738 3.86,2.8101 5.3756,3.636 2.1726,1.1841 2.7559,2.0812 2.7559,4.2396 0,1.5058 0.2973,2.5552 0.6612,2.332 0.3636,-0.2224 0.5318,-3.8527 0.3736,-8.0652 z m 20.5971,7.3053 c 0.1854,-0.1233 -0.1167,-3.4557 -0.6105,-7.327 -1.0788,-8.4582 0.1949,-17.4586 3.079,-21.7376 4.173,-6.1923 17.8167,-9.7183 24.3628,-6.2967 6.8754,3.5938 11.9888,14.0177 12.9387,26.3764 0.5457,7.0991 0.6867,7.508 2.4277,7.0404 1.0166,-0.2729 3.3359,-0.5015 5.1542,-0.5083 h 3.3061 v -9.4769 c 0,-5.2123 -0.4661,-14.0392 -1.0478,-19.6152 l -1.0578,-10.1383 -27.8242,-0.2224 c -15.3032,-0.1225 -29.6723,-0.4526 -31.9316,-0.733 l -4.1076,-0.51 -0.3704,9.9896 c -0.2024,5.4943 0.032,15.2268 0.5231,21.6277 0.8836,11.5155 0.9168,11.6422 3.1554,12.0391 2.3495,-0.04 10.4691,0.5117 12.0029,-0.5078 z m 66.472,-6.0568 c 6.4437,-4.8553 7.7209,-6.5043 7.1181,-9.191 -0.1099,-0.4848 -0.3671,-5.8404 -0.5742,-11.9014 -0.4296,-12.5786 -1.9018,-36.2751 -2.2739,-36.5983 -15.8638,-0.02 -16.5494,-0.3682 -15.68,8.0847 1.0211,18.495 2.4166,28.7005 3.2189,43.4685 0.3199,6.3209 0.6945,11.4928 0.8324,11.4928 0.1374,0 3.4488,-2.41 7.3575,-5.3553 z m -106.0308,2.1414 c 4.8132,-0.4256 6.2069,-0.8439 5.8563,-1.7578 -0.3526,-0.9189 -2.923,-1.1995 -10.9862,-1.1995 h -10.5257 l 1.5838,2.2338 c 1.3295,1.8747 2.0799,2.1571 4.6696,1.7578 1.6971,-0.2616 5.9278,-0.7272 9.4022,-1.0343 z m 148.443,-1.272 c 0.542,-1.0128 1.0518,-4.2798 1.133,-7.26 l 0.1475,-5.4186 -6.0868,-0.6854 c -3.3476,-0.3769 -6.2417,-0.5303 -6.4311,-0.3409 -0.1899,0.1899 0.7839,1.4836 2.1631,2.8761 1.6666,1.6828 2.8836,4.2315 3.6293,7.6009 0.8829,3.9908 1.4764,5.0689 2.7903,5.0689 0.9182,0 2.1124,-0.8284 2.6544,-1.841 z m -76.1928,-8.3621 c -1.0524,-8.9556 -5.8162,-17.126 -9.985,-17.126 -2.1546,0 -2.2073,0.098 -0.8599,1.5866 1.972,2.1789 4.1271,8.5795 4.1271,12.2568 0,2.1873 0.7242,3.7667 2.5769,5.6194 3.9259,3.9259 4.8178,3.4224 4.1409,-2.3368 z m 49.2108,-3.4893 c 0.9411,-0.712 1.2713,-1.2945 0.7332,-1.2945 -0.5378,0 -1.6053,-0.2399 -2.3723,-0.535 -0.9998,-0.3836 -1.3946,0 -1.3946,1.3224 0,2.1717 0.6822,2.2856 3.0337,0.5071 z m -160.733,-4.1596 c 1.0468,-2.0606 7.2038,-13.3677 13.6824,-25.1269 6.4786,-11.759 11.7795,-21.523 11.7795,-21.6979 0,-0.1749 -1.1351,-1.746 -2.5223,-3.4916 l -2.5222,-3.1737 -1.722,1.9505 c -3.0078,3.4066 -15.5054,23.9414 -22.8789,37.5918 -3.4873,6.2892 -6.8344,8.4098 -2.2581,13.8851 1.7515,2.0952 3.4891,3.8095 3.8614,3.8095 0.3724,0 1.5334,-1.6861 2.5802,-3.7468 z m 25.5447,-0.6007 0.2755,-7.5532 c 0.5245,-14.3787 1.5346,-33.4738 0.707,-32.6186 -0.4693,0.485 -2.514,4.8067 -4.5434,9.604 -2.0294,4.7973 -6.4411,14.214 -9.8035,20.926 -3.3112,7.2554 -10.3386,13.9607 -5.8226,13.2691 20.4867,0.097 19.9041,2.8186 19.187,-3.6273 z m 31.569,2.5639 c 0,0 -0.3664,-4.9742 0.1052,-9.3017 0.4718,-4.3274 1.0495,-8.7014 1.2839,-9.7197 0.4044,-1.7556 -0.025,-1.8813 -8.1526,-2.4198 -4.7186,-0.3124 -10.4635,-0.5703 -12.7666,-0.5728 h -4.1875 v 11.5138 c -0.8808,10.5103 1.1532,9.5363 10.7993,10.9133 4.3462,0.7651 9.874,0.3513 12.9183,-0.4131 z m 103.2305,-4.7195 c 0,-0.1825 -0.595,-0.8269 -1.3225,-1.4304 -1.083,-0.8989 -1.3224,-0.8387 -1.3224,0.3328 0,0.7867 0.5952,1.4304 1.3224,1.4304 0.7275,0 1.3225,-0.1499 1.3225,-0.3328 z m 21.7743,-3.1567 c 5.2394,-3.1945 5.6445,-10.5785 0.8677,-15.8093 -3.0553,-3.3457 -9.5421,-7.1489 -12.1933,-7.1489 -4.956,0 -12.3754,11.5846 -10.9802,17.144 1.5356,6.1175 15.7373,9.8193 22.3058,5.8142 z m -124.6992,-20.0326 c 0.3636,-0.2124 0.6612,-1.8905 0.6612,-3.731 v -3.3461 l -12.3422,0.027 -12.3422,0.027 v 4.3317 4.3315 l 11.681,-0.6285 c 6.4246,-0.3459 11.9786,-0.8019 12.3422,-1.0136 z m 59.8238,-1.6031 -4.5252,-3.3746 c -2.489,-1.856 -7.0991,-5.558 -10.2448,-8.2267 -3.1457,-2.6686 -6.1892,-4.6625 -6.7632,-4.4314 -0.8919,0.3596 -23.2075,16.7629 -24.3763,17.9182 -0.2274,0.2249 2.1539,0.1524 5.2893,-0.155 14.4204,-0.9537 25.608,-1.2288 40.6202,-1.7305 z m 46.3488,-4.8615 c 3.9496,-2.5047 3.9773,-2.5552 1.722,-3.1212 -2.9383,-0.7375 -8.9638,0.6687 -8.8486,2.0651 0.047,0.5878 0.1624,2.7549 0.2556,4.8156 l 0.1675,3.7467 1.3444,-2.4803 c 0.7394,-1.3639 3.151,-3.6257 5.3591,-5.0259 z m -85.634,-4.9375 c 11.0677,-8.2901 13.4772,-10.472 12.6568,-11.4606 -0.5573,-0.6714 -1.4034,-1.2207 -1.8802,-1.2207 -0.4768,0 -6.1448,3.6695 -12.5954,8.1547 -11.1532,7.7545 -11.7444,8.3166 -12.0518,11.4605 -0.1774,1.8183 -0.2049,3.3059 -0.06,3.3059 0.145,0 6.4134,-4.6078 13.9318,-10.2398 z m 48.8123,-7.9215 c -1.9587,-2.36 -2.571,-1.1965 -2.571,4.8855 0,3.4376 -0.4181,6.3774 -0.9538,6.7085 -0.6008,0.3714 -0.03,1.5559 1.5426,3.1997 l 2.4967,2.6099 0.2547,-8.0849 c 0.1649,-5.2009 -0.11,-8.5253 -0.7692,-9.3187 z m -81.1843,6.2734 c 3.9626,-0.3508 7.205,-0.9493 7.205,-1.3299 0,-0.3809 -0.6942,-1.5441 -1.5428,-2.5852 -1.351,-1.6573 -2.5485,-1.9155 -9.6311,-2.0742 -4.4484,-0.1 -8.3296,0.06 -8.6247,0.3554 -0.2949,0.2949 -0.2807,2.1356 0.033,4.0906 0.539,3.3706 0.6922,3.5188 2.9625,2.8678 1.3167,-0.3779 5.6362,-0.9736 9.5991,-1.3245 z m 102.2567,-40.5589 c -0.155,-0.1449 -3.6353,-0.4026 -7.7346,-0.5752 l -7.4532,-0.3139 0.1949,7.9342 c 0.1074,4.364 0.4338,11.7555 0.7272,16.4256 l 0.533,8.4913 13.1876,-0.5156 c 4.5789,0.5431 3.0444,-4.4812 0.5451,-31.4464 z m -20.3855,13.0617 0.1725,-12.9365 -2.6709,-3.3723 c -1.4692,-1.8548 -2.9508,-3.3722 -3.2927,-3.3722 -0.3419,0 0.077,6.7885 0.9294,15.0854 1.3854,13.474 2.3433,17.5343 4.1358,17.5328 0.3044,-3e-4 0.631,-5.8219 0.7257,-12.9372 z m 13.3281,-18.7996 h 2.2346 l -2.0704,-2.2038 c -2.1649,-2.3043 -4.5739,-2.6669 -10.8388,-1.6319 l -3.3452,0.5531 2.0227,2.1656 c 1.7485,1.8722 2.5477,2.0949 5.8928,1.6416 2.1284,-0.2884 4.8753,-0.5246 6.1043,-0.5246 z" fill="#00B894" transform="translate(130.362,-39.07817) translate(2180.7143,-957.7287)"/>
</svg>