<?xml version="1.0" ?><svg height="137.83659mm" viewBox="0 0 135.02835 137.83659" width="135.02835mm" xmlns="http://www.w3.org/2000/svg"><g color="#000"><path d="m 7953.5974,1149.4053 58.3185,-77.664 26.3541,0.1329 c 0,0 60.9009,-209.95647 66.6589,-226.36623 5.7581,-16.40975 34.6235,-16.59102 39.6433,1.81182 5.0198,18.40283 54.7013,223.89001 54.7013,223.89001 l 82.7532,5.2485 -58.4662,90.2204 c 0,0 -304.8066,7.8394 -269.9631,-17.2734 z" fill="#FFFFFF" overflow="visible" paint-order="fill markers stroke" transform="translate(201.9625,-250.56282) matrix(0.39758112,0,0,0.39758112,-3361.3768,-77.673891)"/><path d="m 8125.7837,825.59415 c -11.2965,0.15003 -20.1199,0.34777 -24.6179,14.56774 -0.6603,3.17695 -2.9644,11.75694 -5.3472,19.91493 -20.3021,69.57829 -39.3927,133.00474 -61.3914,203.82228 -0.6339,3.3053 -2.5849,6.0875 -2.5849,3.6863 0,-1.2423 -22.8692,-1.6382 -24.6595,-0.4268 -0.6579,0.4451 -1.5052,2.075 -1.8831,3.6223 -2.4871,7.2168 -66.414,72.2126 -57.9354,89.7852 1.1538,0 2.5882,1.3023 3.3635,3.0533 1.3515,3.0536 1.3516,3.0545 41.2877,3.3138 85.4996,0.559 177.3503,7.9955 225.3214,4.3258 0.619,1.0017 7.6869,0.3644 11.2444,-0.4349 14.0997,-11.2315 23.8899,-41.8102 55.0371,-80.5886 0,0 5.5707,-21.836 0.3932,-20.3609 -23.4649,-2.6917 -49.5987,-1.7288 -78.5664,-6.3655 -14.8426,-50.0258 -26.6687,-95.6495 -41.4652,-170.6936 -1.7401,-7.50255 -4.197,-18.79691 -5.4591,-25.0991 -2.3095,-11.53245 -3.0555,-14.72554 -6.2424,-26.73605 -3.4182,-12.53311 -12.7106,-15.59614 -26.4948,-15.3862 z m 2.9734,12.02762 c 7.4181,-0.0785 10.3299,3.45164 10.3299,5.67329 0.486,9.70882 7.2833,29.38476 5.3728,33.31259 -10.5434,4.20398 -20.8413,5.00738 -38.348,0.52431 1.5913,-11.90861 4.1481,-22.47699 8.0472,-33.09038 1.5301,-5.51499 6.1111,-6.33035 14.5981,-6.41981 z m 19.7456,52.59125 c 3.4072,13.83111 7.3504,37.75122 10.2052,51.03109 -10.4712,3.06262 -41.2106,10.33634 -71.7741,0.096 0.2173,-7.99872 12.4685,-33.13867 11.7511,-39.79314 1.2069,-3.90138 2.5125,-8.72241 2.9014,-10.71202 16.5871,4.85753 29.5511,3.78042 46.9164,-0.62186 z m -65.487,66.39339 c 0.1585,0 0.3175,0.0507 0.4876,0.11991 26.2309,7.37398 56.662,3.34279 80.0003,0.36446 5.116,18.37729 8.261,29.86309 12.2211,48.84742 -37.7957,8.1851 -65.0921,9.2648 -108.6004,-1.5155 -0.7828,-2.0397 2.2972,-12.85792 9.8008,-34.43148 3.9415,-11.33233 4.981,-13.41288 6.0906,-13.38481 z m -17.2821,60.15579 c 1.2913,-0.054 2.8467,0.1705 4.7174,0.6522 40.134,13.5779 82.3904,8.105 108.4196,1.191 2.8513,10.9183 12.414,38.9926 16.7419,60.2468 -57.9377,25.1357 -140.1801,5.5639 -150.1297,1.0231 -1.5004,0.3765 -2.727,0.4678 -2.727,0.203 0,-0.2647 1.5168,-4.817 3.3713,-10.1157 5.9388,-16.9896 8.6796,-31.3062 14.3792,-48.5853 0.8247,-3.0284 2.3864,-4.4955 5.2273,-4.6151 z m 143.6186,59.3948 c 1.2219,-0.031 3.2427,0.1393 6.4772,0.4125 21.834,1.8327 33.2358,0.082 55.1283,3.9501 -13.1693,18.9389 -30.478,40.3469 -39.7628,51.6976 -3.1072,2.9254 -7.6126,6.6085 -10.0134,8.1847 -27.1735,10.9321 -151.2205,1.9213 -231.0155,0.1503 -9.1765,-0.2433 -16.9266,-0.6836 -17.2229,-0.98 7.8674,-19.4009 21.9776,-26.9938 38.1641,-52.5241 7.5687,-7.832 8.5753,-8.507 13.3689,-8.9728 5.1799,-0.5033 5.1845,-0.5012 5.1682,2.879 -0.011,1.8604 -0.8047,5.5924 -1.768,8.2934 -4.2257,11.8465 -4.6211,14.672 -2.4299,17.378 1.1166,1.379 2.0302,3.0847 2.0302,3.7918 0,1.4029 10.7307,8.295 12.9148,8.295 0.7422,0 2.4368,0.6809 3.7663,1.5123 43.8978,19.4748 141.601,12.9813 164.9019,-5.2417 0.5353,-0.049 1.866,-1.3178 2.9573,-2.8183 1.8314,-2.518 1.8774,-3.4893 0.5931,-12.5999 -0.7655,-5.4294 -1.734,-10.4234 -2.1517,-11.0989 -0.4174,-0.6755 -0.9653,-2.6183 -1.2181,-4.3161 -0.2528,-1.6979 -0.8148,-4.2611 -1.2484,-5.6973 -0.4928,-1.6319 -0.6762,-2.2439 1.3604,-2.2956 z m -169.7536,16.0177 c 1.4074,0.026 3.7266,0.7656 7.5212,2.286 0.9003,0.3608 3.3568,0.7419 5.4576,0.8456 41.1709,12.1516 86.5067,13.7076 146.4736,-1.6034 1.2709,-0.2629 1.4773,7.9218 1.5825,9.5258 -17.3859,16.3516 -145.3493,24.5797 -162.9276,-9.8487 0.2546,-0.8142 0.798,-1.2256 1.8927,-1.2053 z m -56.4231,60.0278 c 0.6282,-0.01 1.3777,0.1764 1.9965,0.5228 1.2797,0.7161 -0.5335,1.1771 -6.2662,1.5937 -4.4368,0.3227 -11.2596,0.5936 -15.161,0.6043 -6.5848,0.016 -6.7809,-0.049 -2.7287,-0.916 7.4673,-1.5123 14.1123,-0.2165 21.213,-1.5842 0.2354,-0.1455 0.5695,-0.2169 0.9464,-0.2206 z" fill="#00B894" overflow="visible" style="isolation:auto;mix-blend-mode:normal;solid-color:#000;solid-opacity:1;marker:none" transform="translate(201.9625,-250.56282) matrix(0.39758112,0,0,0.39758112,-3361.3768,-77.673891)"/></g></svg>