<?xml version="1.0" ?><svg height="46.672218mm" viewBox="0 0 420.52518 46.672218" width="420.52518mm" xmlns="http://www.w3.org/2000/svg">
    <path color="#000" d="m 134.6263,808.77208 -17.89062,35.3086 59.98828,0.86718 a 5.334352,6.4403405 0 0 0 -1.39258,4.33594 5.334352,6.4403405 0 0 0 5.33398,6.44141 5.334352,6.4403405 0 0 0 5.33399,-6.44141 5.334352,6.4403405 0 0 0 -1.30469,-4.2207 l 34.9043,0.50586 a 5.0178409,6.7321339 0 0 0 -2.11914,5.49414 5.0178409,6.7321339 0 0 0 5.01758,6.73242 5.0178409,6.7321339 0 0 0 5.01953,-6.73242 5.0178409,6.7321339 0 0 0 -2.03321,-5.41016 l 20.11133,0.29102 -1.78515,-34.6875 z m 239.07813,1.50196 -120.05664,0.0508 -1.09375,36.86133 21.61132,-0.0176 a 7.3414879,5.2940021 0 0 0 -1.75195,3.42969 7.3414879,5.2940021 0 0 0 7.3418,5.29296 7.3414879,5.2940021 0 0 0 7.34179,-5.29296 7.3414879,5.2940021 0 0 0 -1.76171,-3.43946 l 30.5039,-0.0273 a 8.2292576,5.6622195 0 0 0 -2.79297,4.25 8.2292576,5.6622195 0 0 0 8.22852,5.66211 8.2292576,5.6622195 0 0 0 8.22852,-5.66211 8.2292576,5.6622195 0 0 0 -2.8086,-4.25781 l 28.33789,-0.0254 a 7.2488475,5.4051604 0 0 0 -2.04492,3.76367 7.2488475,5.4051604 0 0 0 7.24805,5.40429 7.2488475,5.4051604 0 0 0 7.25,-5.40429 7.2488475,5.4051604 0 0 0 -2.05664,-3.77149 l 8.21679,-0.008 z m 127.65039,0.51757 -120,0.25782 0.0586,36.70703 c 2.71752,0.008 10.6285,0.2869 20.64063,0.66211 a 6.6235476,6.0721192 0 0 0 -0.8418,2.96289 6.6235476,6.0721192 0 0 0 6.62305,6.07226 6.6235476,6.0721192 0 0 0 6.62304,-6.07226 6.6235476,6.0721192 0 0 0 -0.59961,-2.52344 c 21.64276,0.8267 48.35794,1.85335 66.48243,2.2207 a 7.0713029,5.0299945 0 0 0 -0.0488,0.58204 7.0713029,5.0299945 0 0 0 7.07226,5.02929 7.0713029,5.0299945 0 0 0 7.07032,-5.02929 7.0713029,5.0299945 0 0 0 -0.0312,-0.46876 c 3.22465,-0.0535 5.15378,-0.19513 5.16406,-0.46484 12.3526,-0.14805 120.96471,-0.90777 126.73242,-1.05469 6.09774,-0.15532 6.04102,-8.5957 6.04102,-8.5957 l -44.8711,-27.64453 -73,-2.43359 -8.83398,7.16406 -4.59571,0.83008 z" fill="#FFFFFF" overflow="visible" paint-order="fill markers stroke" transform="translate(-0.7865369,-30.421688) matrix(0.80629419,0,0,0.80629419,-91.718342,-618.01083)"/>
    <path d="m 175.39068,804.21706 c -16.16115,-0.037 -37.12035,0.2018 -39.37109,0.6231 -5.22312,0.9775 -9.82512,6.0894 -15.32422,17.0234 -5.6127,11.1596 -7.22117,18.948 -5.01367,24.2774 1.3972,3.3732 4.39702,4.4081 11.51172,3.9707 3.6797,-0.2263 8.77734,1.0507 8.77734,1.0507 0.70064,3.7277 2.83796,7.3625 8.54297,7.7891 3.87029,0.2894 7.51202,-4.4431 6.88672,-6.834 -0.4577,-1.7505 0.20516,-1.8828 9.41406,-1.8828 7.9016,0 9.90625,0.2885 9.90625,1.4238 0,0.7828 1.16399,2.8078 2.58789,4.5 2.0467,2.4324 3.37887,3.0762 6.35547,3.0762 4.4589,0 9.05664,-3.6585 9.05664,-7.207 0,-2.1069 0.4047,-2.2879 4.75,-2.1192 2.6125,0.1015 7.96273,0.2169 11.89063,0.2559 6.6964,0.067 7.1798,0.2221 7.75,2.4941 0.3344,1.3326 1.8117,3.8529 3.2832,5.6016 h 0.006 c 2.3114,2.7469 3.14157,3.104 6.10547,2.6231 6.6669,-1.0819 10.60014,-5.2089 8.36914,-8.7813 -1.3695,-2.1929 -0.8489,-2.2836 10.6875,-1.8965 6.11966,0.5726 13.48078,0.9575 18.88672,0.6152 l 7.33008,-0.4707 1.3125,3.168 c 2.4646,5.95 9.73918,8.3073 17.08007,4.7754 3.68474,-1.9412 5.36226,-3.3339 4.7168,-6.7031 h 10.55078 c 9.3649,0 8.93863,0.019 9.45703,1.6523 0.9887,3.115 5.58131,6.5682 11.23243,5.791 4.5378,-0.6242 7.89062,-3.0378 7.89062,-5.1738 0,-2.1012 -0.44657,-2.1919 2.82812,-2.2539 2.0625,-0.039 5.50716,-0.375 8.84766,-0.6406 l 6.07422,-0.4824 1.80469,4.0019 c 1.3248,2.9379 2.57043,4.1719 4.67773,4.6348 12.90091,1.1913 12.9736,-2.6903 17.14649,-7.5371 5.66806,-2.6737 12.679,0.043 17.42187,-0.2559 l 7.33008,-0.4707 1.3125,3.168 c 2.4646,5.95 9.73918,8.3073 17.08008,4.7754 3.68473,-1.9413 5.36225,-3.334 4.71679,-6.7032 h 10.55079 c 9.3649,0 9.66074,-0.5433 9.72656,0.9571 0.14107,3.2155 2.54643,7.4175 8.80859,7.4101 7.61825,-0.01 9.17759,-4.018 9.26367,-6.1523 0.10429,-2.5858 -0.63993,-2.2232 2.63477,-2.2852 2.0625,-0.039 6.48176,-0.2891 9.82227,-0.5547 l 6.07421,-0.4824 1.80469,4.002 c 1.3248,2.9379 2.57044,4.1718 4.67774,4.6347 12.90091,1.1913 12.97359,-2.6902 17.14648,-7.5371 0.0968,0 0.18693,0.01 0.28711,0.01 5.67983,-0.038 15.63535,0.5376 26.08789,0.9609 1.3749,0.025 2.897,1.3022 4.2168,3.5391 1.7151,2.907 2.63998,3.5 5.45898,3.5 1.9388,0 4.91812,-1.0338 6.94922,-2.4121 3.4059,-2.3109 4.19932,-2.4071 18.79102,-2.2481 14.5061,0.1581 15.27924,0.2679 16.18554,2.2989 1.0877,2.4376 4.72565,4.3613 8.24805,4.3613 2.7832,0 7.4419,-1.9307 7.625,-3.1602 0.0688,-0.4617 0.18291,-1.4023 0.25391,-2.0898 0.098,-0.9446 4.19593,-1.2539 16.77343,-1.2539 7.63874,0.0424 23.72983,0.65421 25.36328,-8.5938 1.3528,-8.007 -2.04663,-11.4834 -17.08593,-17.4648 -15.1864,-6.0399 -19.11822,-8.2413 -21.29102,-11.9238 -2.6385,-4.472 -9.64877,-7.959 -19.13867,-9.5196 -4.125,-0.6783 -17.85,-1.3876 -30.5,-1.5742 -26.8479,-0.3958 -36.49713,0.8194 -40.20313,5.0606 -2.6592,3.0431 -3.29687,3.1433 -3.29687,0.5195 0,-1.1 -0.83406,-2.8319 -1.85156,-3.8496 -1.7614,-1.7609 -4.73152,-1.845 -61.94922,-1.75 -42.6933,0.071 -60.42169,0.4219 -61.21289,1.2129 -0.66382,0.6636 -1.12553,5.117 -1.14453,11.0215 -0.0172,5.4491 -0.26498,11.1304 -0.55079,12.625 0.42069,3.8265 0.0682,3.5285 -0.16796,8.7714 h -2 c 0.37605,-9.482 0.61011,-18.4725 0.50586,-28.5371 0,-1.1 -0.83407,-2.832 -1.85157,-3.8496 -1.32105,-1.3208 -3.32228,-1.6975 -28.3789,-1.7636 -8.35221,-0.022 -19.2659,-0.01 -33.57032,0.014 -42.6933,0.071 -60.42168,0.4219 -61.21289,1.2129 -0.66381,0.6636 -1.12553,5.117 -1.14453,11.0215 -0.0172,5.4491 -0.26498,11.1304 -0.55078,12.625 -0.25247,4.1854 0.10694,7.7942 0.17578,11.5586 h -1.10742 c 0.37244,-5.0911 -0.7269,-14.2141 -0.75977,-18.7734 0,-8.4703 -2.48268,-14.8736 -6.33398,-16.3379 -1.2385,-0.4709 -11.90748,-1.1774 -23.70898,-1.5684 -11.8014,-0.391 -22.35704,-0.8979 -23.45704,-1.1269 -1.1643,-0.2426 -9.13338,-0.3644 -18.83007,-0.3868 z m -5.66992,6.9512 v 5.4512 c 0,2.9986 0.27352,6.1633 0.60742,7.0332 h -0.002 c 0.5316,1.3853 -0.80633,1.582 -10.76953,1.582 H 148.1797 l 0.0215,-6.75 0.0195,-6.75 10.75,-0.2832 z m 5.5,0.068 3.5,0.035 c 1.58649,0.016 7.25226,0.3409 13.28516,0.7324 -0.42937,4.8068 2.52837,12.5482 -0.72852,12.3555 -1.65,0.053 -7.41914,0.1651 -10.30664,0.2813 -5.8178,0.2341 -5.29311,1.0441 -5.59961,-8.6543 z m -35.89062,0.998 h 3.16406 l 0.0391,6.5 0.0371,6.5 h -7.42581 c -4.47312,0 -7.42383,-0.4126 -7.42383,-1.0391 0,-2.1096 4.04209,-8.8767 6.20899,-10.3945 1.2297,-0.8613 3.65949,-1.5664 5.40039,-1.5664 z m 58.98047,0.1524 c 3.0355,0.1797 6.51518,0.3474 10.29101,0.4902 0.80854,6.0803 0.0326,7.985 0.41992,12.0976 l -2.38086,-0.3437 c -2.20018,-0.1265 -5.0722,0.352 -6.4375,0.01 -2.28009,0.059 -1.89257,-6.9931 -1.89257,-12.2539 z m 15.81054,0.6718 c 2.46467,0.073 4.77152,0.1275 7.02539,0.166 -0.50635,4.8864 0.51368,7.4895 0.65235,11.9395 0.0395,1.2666 -5.95835,0.3242 -7.09375,0.3242 0.18012,-2.5481 -0.58399,-8.6396 -0.58399,-12.4297 z m 11.32422,0.2285 c 18.04585,0.1017 16.48819,-1.3747 16.06445,16.9356 -0.2474,10.6883 0.91037,11.6757 -0.50763,11.9475 -2.62172,-0.5214 -6.22492,-0.9171 -8.72283,-0.9358 h -4.32032 l -0.72656,-9.75 c -0.65302,-6.227 -1.78711,-11.9988 -1.78711,-18.1973 z m 89.51563,0.037 c 1.86306,0 3.83463,0.018 5.78515,0.066 l 8.12305,0.1992 0.0918,4.6035 c 0.0509,2.5322 0.37054,5.4822 0.71093,6.5547 h 0.002 c 0.589,1.856 0.1436,1.9348 -9.2168,1.6543 -16.1469,-0.4838 -15.09522,-0.034 -15.54492,-6.6192 -0.2134,-3.1307 -0.34688,-5.7877 -0.29688,-5.9023 0.1434,-0.3271 4.75651,-0.5475 10.34571,-0.5566 z m -36.10547,0.1816 c 3.03782,0.2836 -2.17882,0.1462 8.51758,0.1172 l 11.75,-0.033 v 5.5 c 0,3.6839 -0.4128,5.5317 -1.25,5.5937 -6.6069,1.2969 -11.62695,0.7032 -18.08008,0.7032 -0.3264,-7.8995 -0.81979,-9.7778 -0.9375,-11.8809 z m -5.30664,0.1074 c 0.17111,9.6837 0.34439,19.3672 0.51758,29.0508 l -8.96094,-0.074 c -3.36254,0 -7.09265,0.095 -10.15625,-0.1797 l 0.60156,-13.5234 c 0.3355,-7.5367 1.06931,-13.9862 1.62891,-14.3321 0.5597,-0.3459 4.74252,-0.716 9.29492,-0.8222 z m 61.0625,0.074 c -0.0259,0.082 17.63144,-0.3232 17.02148,1.7344 -0.2808,0.7325 -0.50976,3.77 -0.50976,6.75 v 5.418 h -7.33399 c -4.0333,0 -7.6333,-0.2994 -8,-0.666 -0.3666,-0.3667 -0.66601,-2.5857 -0.66601,-4.9297 0.28085,-3.4256 -0.0408,-4.1648 -0.51172,-8.3067 z m 108.7207,0.1426 c 1.86306,0 3.83464,0.018 5.78516,0.066 l 8.12304,0.1992 0.0918,4.6036 c 0.0509,2.5322 0.37053,5.4821 0.71094,6.5546 h 0.002 c 0.589,1.856 0.1436,1.9348 -9.2168,1.6543 -16.1469,-0.4838 -15.09522,-0.034 -15.54492,-6.6191 -0.2134,-3.1307 -0.34687,-5.7877 -0.29687,-5.9023 0.1434,-0.3271 4.7565,-0.5476 10.3457,-0.5567 z m -76.57031,0.1211 c 0.61592,-0.012 1.23398,-0.012 1.86133,0 2.7912,0.129 3.00746,0.4171 3.10546,4.1387 0.0579,2.2 -0.68412,5.7826 -0.5,8 0.21487,2.5878 -1.54492,2.7402 -1.54492,2.7402 -2.0092,0.2541 -8.09673,-0.01 -10.17383,-0.2402 -2.0495,0 -2.24848,-0.5362 -2.55468,-6.8926 l -0.33203,-6.8926 4.5,-0.4961 c 1.9664,-0.1892 3.79091,-0.3225 5.63867,-0.3574 z m 40.46484,0.061 c 3.03782,0.2836 -2.17882,0.1461 8.51758,0.1171 l 11.75,-0.033 v 5.5 c 0,3.6839 -0.4128,5.5318 -1.25,5.5938 -2.4471,0.1815 -9.88404,1.456 -12.58984,1.0098 -2.3599,-0.3892 -3.43555,1.1916 -3.43555,3.2441 0,3.8966 1.57344,4.742 10.24414,4.959 20.78021,0.6052 48.3934,0.6263 71.78125,1.3203 l 6.25,0.5332 v 3.9551 c 0,1.0878 -0.18085,2.3533 -0.47266,3.5156 h -9.05273 v 0.029 c -4.39569,-0.2036 -15.08134,-0.1356 -40.97461,0.1699 -14.3,0.1689 -29.00393,0.2753 -32.67383,0.2383 l -6.67187,-0.068 -0.32813,-13.4589 c -0.2937,-12.0725 -0.95518,-14.1494 -1.09375,-16.625 z m -5.30664,0.1074 c 0.17111,9.6836 0.34441,19.3672 0.51758,29.0508 l -8.96094,-0.074 h -10.16406 l 0.60937,-13.7031 c 0.3355,-7.5367 1.06931,-13.9861 1.62891,-14.332 0.5597,-0.3459 4.74252,-0.7161 9.29492,-0.8223 z m 61.0625,0.074 c -0.0259,0.082 17.63145,-0.3232 17.02149,1.7344 -0.2808,0.7325 -0.50977,3.77 -0.50977,6.75 v 5.4179 h -7.33399 c -4.0333,0 -7.63328,-0.2994 -8,-0.666 -0.36658,-0.3667 -0.66601,-2.5857 -0.66601,-4.9297 0.28085,-3.4256 -0.0408,-4.1647 -0.51172,-8.3066 z m 72.65039,0.125 v 0 c 10.58326,-0.063 41.72591,1.893 46.0625,3.0684 5.8301,1.5802 7.03784,2.6569 3.21484,2.8633 -1.60419,0.087 -4.49101,0.2583 -6.41601,0.3828 -8.9733,0.5805 -32.81028,-0.17858 -33.86914,0.041 -2.12069,0.43976 -3.135,2.437 -3.125,5.1035 0.0114,3.7115 2.08877,9.1397 3.76367,9.834 2.9399,1.2188 5.74687,1.3581 39.23047,1.9453 27.42,0.4807 33.2816,0.8426 37.5,2.3243 2.75,0.9658 5.5625,2.1105 6.25,2.5429 6.62502,6.50086 -28.99001,5.01016 -37.39063,5.0781 -33.8679,0.2509 -63.41405,-0.84944 -70.75775,-2.53794 -7.24459,-0.4909 -5.54443,-3.72649 -5.64459,-18.64366 0.27031,-11.22216 1.90853,-11.2157 9.32813,-11.3047 3.4181,-0.041 7.33984,-0.2847 8.71484,-0.541 0.53463,-0.1 1.62677,-0.149 3.13867,-0.1582 z m -40.5,0.1387 c 0.61592,-0.012 1.23398,-0.012 1.86133,0 2.7912,0.129 3.00747,0.417 3.10547,4.1386 0.0579,2.2 -0.68412,5.7826 -0.5,8 0.21487,2.5878 -1.54297,2.7403 -1.54297,2.7403 -2.0092,0.254 -8.09868,-0.01 -10.17578,-0.2403 -2.0495,0 -2.24849,-0.5361 -2.55469,-6.8925 l -0.33203,-6.8926 4.5,-0.4961 c 1.9664,-0.1892 3.79091,-0.3225 5.63867,-0.3574 z m 10.50391,3.705 c 5.22265,-1.84017 3.28998,11.60334 3.0927,14.84518 -0.20052,3.27977 -1.07879,5.99681 -2.10639,5.99681 -1.1778,0 -2.25797,-1.71549 -1.77147,-4.65839 0.3409,-2.0625 0.62086,-7.2407 0.63086,-11.5078 0.006,-4.273 -0.14074,-4.7552 0.1543,-4.6758 z m 82.01367,8.7774 c 7.75008,-0.01 8.55374,0.4229 10.12109,1.9902 1.6987,1.6987 1.83053,2.166 0.61133,2.166 -8.06494,0.0856 -15.47786,0.0173 -20.92132,-0.0772 -26.9915,-0.4368 -25.96745,-1.90251 -25.96735,-2.67281 10e-5,-0.8374 0.23169,-0.8485 25.80469,-1.2773 4.41258,-0.074 7.7682,-0.1262 10.35156,-0.1289 z m -461.62695,3.8594 c 0.48796,0.02 1.09003,0.1234 1.86328,0.2793 1.8353,0.37 4.68593,0.5799 6.33593,0.4668 3.40431,-0.2333 63.90855,-0.2091 78.74805,0.031 l 9.7461,0.1582 v 4.75 c 0.002,3.8482 -0.3294,4.7537 -1.7461,4.7715 -0.96415,0.011 -23.68649,0.1239 -50.49805,0.25 l -48.75,0.2285 v -2.2812 c 1.1e-4,-1.2552 0.63687,-3.8039 1.41407,-5.6641 0.98243,-2.3512 1.42284,-3.0506 2.88672,-2.9902 z m 166.06836,3.0976 c 20.78021,0.6053 48.3934,0.6263 71.78125,1.3203 l 6.25,0.5332 v 3.9551 c 0,1.0878 -0.18085,2.3533 -0.47266,3.5156 h -9.05274 v 0.029 c -4.39569,-0.2037 -15.08133,-0.1355 -40.9746,0.17 -14.3,0.1689 -29.00393,0.2752 -32.67383,0.2382 l -6.67188,-0.068 -0.0703,-9.5528 c 4.5417,0.2188 8.48331,-0.2337 11.88477,-0.1406 z m -71.10352,15.7656 c 2.26269,-0.079 4.86328,0.9668 4.86328,0.9668 l -1.29101,2.6739 c -4.24,1.841 -6.17188,-0.7576 -6.17188,-2.6309 0.61251,-0.7044 1.57112,-0.974 2.59961,-1.0098 z m -41.29297,0.3868 c 1.4075,0 2.55067,0.1721 2.5586,0.3828 0.10352,2.7509 -3.98643,2.4281 -4.5586,0.5234 -0.16853,-0.5611 0.5926,-0.9062 2,-0.9062 z m 177.49024,0.5957 c 2.47456,-0.01 4.73765,0.205 7.26757,0.205 -1.46205,3.4337 -3.85877,4.2631 -7.40429,2.7559 -1.78914,-0.7308 -1.75848,-2.8762 -2.42578,-2.8672 0.8897,-0.066 1.73764,-0.092 2.5625,-0.094 z m -76.6836,0.1797 c 1.49291,0.029 2.64194,0.4478 3.35547,1.1679 -2.37282,2.1775 -9.09428,1.4721 -8.6875,-0.9707 l 3.72852,-0.094 c 0.57063,-0.08 1.10588,-0.1132 1.60351,-0.1035 z m 205.05469,0.3222 v 0 c 2.47456,-0.01 4.73766,0.2051 7.26758,0.2051 -1.46204,3.4337 -3.85878,4.263 -7.4043,2.7558 -1.78914,-0.7308 -1.75848,-2.8762 -2.42578,-2.8672 0.8897,-0.066 1.73764,-0.094 2.5625,-0.096 z m -79.52149,0.014 c 0.25023,-0.012 0.54594,0.011 0.89063,0.08 1.1,0.2876 5.57955,0.4597 5.30273,1.2578 -0.28175,0.8203 -4.74961,0.5664 -5.8496,0.5664 -1.61025,-0.022 -2.09537,-1.8236 -0.34376,-1.9043 z m -81.77148,0.4082 c 0.58437,-0.023 0.542,2.4305 -3.21094,2.7227 -3.75293,0.2922 -4.78711,-2.5665 -4.78711,-2.5665 2.61017,0.1753 7.41368,-0.1332 7.99805,-0.1562 z" fill="#00B894" transform="translate(-0.7865369,-30.421688) matrix(0.80629419,0,0,0.80629419,-91.718342,-618.01083)"/>
</svg>