<?xml version="1.0" ?><svg height="73.422256mm" viewBox="0 0 137.69057 73.422256" width="137.69057mm" xmlns="http://www.w3.org/2000/svg">
    <path color="#000" d="m 429.48155,114.36985 71.10912,2.31812 c 0,0 12.8294,31.45237 30.99412,31.16179 10.59208,-0.16944 8.44525,-31.76982 8.44525,-31.76982 0,0 22.26075,-2.91954 29.85402,-0.076 11.54325,4.32273 30.6093,-27.669006 -13.89246,-29.413696 -18.57653,-0.72829 -26.34924,-0.57003 -26.34924,-0.57003 -17.63659,-16.25357 -39.06382,-42.8377 -34.45666,3.38219 0,0 -19.0863,2.31815 -30.36072,3.19219 -11.27442,0.87405 -29.09393,-2.96416 -33.65437,-7.25841 -4.56044,-4.29425 -12.49899,-11.62868 -10.80994,5.70032 1.68906,17.328986 2.15353,20.863216 9.12088,23.333346 z" fill="#FFFFFF" overflow="visible" paint-order="fill markers stroke" transform="translate(-12.786921,-58.194612) matrix(0.80629419,0,0,0.80629419,-322.32789,10.388854)"/>
    <path d="m 523.70322,148.15877 c -10.12895,-6.10315 -17.36977,-14.95519 -22.13031,-24.14439 -2.09248,-4.06322 -3.18953,-5.34031 -3.74097,-4.35492 -0.96353,1.72172 -21.18088,2.19096 -30.93188,0.71793 -3.50154,-0.52896 -12.66644,-1.26689 -20.36644,-1.63983 -6.98446,-1.20725 -25.53593,-1.23122 -26.31133,-6.91245 -0.40881,-4.14704 -0.83489,-4.8894 -1.62471,-8.85371 -2.86341,-14.372246 -3.55224,-21.166406 -2.52365,-24.891666 2.26428,-8.20055 7.19125,-7.23715 17.03225,3.33042 8.11259,8.71155 13.11488,9.42892 40.92744,5.86937 8.525,-1.09106 15.99959,-1.99099 16.61019,-1.99985 0.77362,-0.0112 0.97709,-3.45699 0.67115,-11.36583 -0.50455,-13.04299 0.22338,-14.67049 6.54009,-14.62211 4.80163,0.0368 10.9939,3.35458 16.9157,9.06342 2.61958,2.52537 5.81518,5.15001 7.10134,5.83253 1.28616,0.68252 4.13312,2.86229 6.32657,4.84394 l 3.98808,3.603 16.67344,0.15709 c 12.87938,0.12135 17.68179,0.53869 21.10477,1.83409 6.02187,2.27891 10.86828,6.14968 12.81745,10.23713 3.86584,5.270266 5.77778,18.879626 -0.25072,22.117336 -3.14661,0.93866 -1.57804,1.79937 -20.5,1.99253 -19.04856,0.19445 -20.48231,0.33587 -20.27531,2 0.95054,7.64158 0.92102,10.59754 -0.16308,16.32946 -3.0434,12.42301 -8.18254,15.82082 -17.89007,10.85651 z m 10.91346,-10.64522 c 3.15679,-6.65303 3.49509,-13.47728 1.10301,-22.25 -2.53626,-9.30148 -1.04898,-8.5824 -16.19462,-7.82994 -12.62975,0.62747 -19.49145,1.46604 -19.49145,2.38206 0,0.68171 5.37374,11.9239 5.95006,12.44788 0.30247,0.275 1.1228,1.4 1.82297,2.5 0.70016,1.1 2.1444,3.35 3.20942,5 3.56683,5.52599 14.67875,13.09979 19.69493,13.42392 0.64756,0.0418 2.40511,-2.51142 3.90568,-5.67392 z M 495.8632,113.76731 c 0.30205,-0.30205 -0.21327,-2.67646 -1.14515,-5.27647 -0.93188,-2.60001 -1.6921,-5.00318 -1.68938,-5.34038 0.003,-0.3372 2.95515,-0.8499 6.56096,-1.13934 7.13791,-0.57296 8.43738,-1.15418 6.62732,-2.964226 -1.67695,-1.67696 -1.46663,-2.78334 0.52911,-2.78334 0.94183,0 2.62933,1.08314 3.75,2.40697 1.93002,2.279916 2.47567,2.378546 10.33815,1.868586 l 8.30059,-0.53838 -0.64813,-2.950916 c -0.5862,-2.66896 -0.42382,-2.91917 1.69941,-2.61859 1.71394,0.24264 2.43294,1.07455 2.66396,3.08233 0.19659,1.70856 -0.15933,2.749996 -0.93984,2.749996 -0.69094,0 0.21165,1.43515 2.00575,3.18922 1.7941,1.75406 3.8982,4.41948 4.67578,5.92315 l 1.41377,2.73393 14.26406,0.0783 c 7.84523,0.0431 16.81203,-0.20098 19.92622,-0.54237 5.45159,-0.59763 5.64461,-0.71855 5.19018,-3.25149 -0.67357,-3.75442 -1.32014,-4.07882 -6.2892,-3.15545 -5.93956,1.10371 -9.01985,0.42254 -12.31314,-2.72294 -3.54806,-3.388796 -3.79984,-8.440426 -0.5,-10.031876 5.30137,-2.55675 -28.46731,-1.0556 -75.25,3.34516 -17.15416,1.61366 -26.62198,1.96835 -38.5,1.4423 -8.44965,-0.37422 -11.87358,-2.27593 -17.56866,-9.75796 -6.55976,-8.61802 -7.82257,-6.81953 -6.03137,8.58983 1.05651,9.088936 1.57023,10.866586 3.71457,12.853906 1.36868,1.26844 3.47782,2.32387 4.68698,2.3454 6.42537,0.11437 35.86601,2.23286 46.19848,3.32435 4.17141,0.44065 17.66196,-0.19211 18.32958,-0.85973 z m -39.264,-9.17236 c -2.72341,-1.4743 -2.80631,-1.6822 -1.1528,-2.89128 2.41699,-1.767346 4.58722,-0.7422 4.58722,2.16687 0,1.31616 -0.1125,2.375 -0.25,2.35298 -0.1375,-0.022 -1.57049,-0.75488 -3.18442,-1.62857 z m 16.67922,-0.87249 c -1.23464,-0.86477 -2.2448,-1.9968 -2.2448,-2.51561 0,-1.530656 4.01167,-1.07646 4.62571,0.52371 1.04241,2.71647 -0.0462,3.6272 -2.38091,1.9919 z m 17.18226,-0.23455 c -1.65872,-1.11982 -2.45903,-4.086556 -1.29625,-4.805196 0.5739,-0.35469 1.49234,-0.196 2.04099,0.35264 1.33189,1.331896 0.65219,5.395636 -0.74474,4.452556 z m 55.80726,-3.609426 c -0.86139,-1.89054 -0.82565,-2.7092 0.15376,-3.52204 1.78275,-1.47956 4.93892,0.97063 4.45918,3.46173 -0.55015,2.856666 -3.32232,2.892906 -4.61294,0.0603 z m 27.88274,-1.22009 c 3.02716,-0.58772 3.06321,-0.6568 1.25,-2.3955 -2.84105,-2.72429 -5.40304,-2.577003 -7.75402,-1.46952 -2.14169,1.008894 -5.60569,3.181941 -3.4698,4.59341 1.28089,0.824396 2.39479,0.743046 9.97382,-0.72839 z m -51.79386,-15.32651 c 0.45276,-0.4481 -0.67224,-1.74345 -2.5,-2.87855 -1.82776,-1.13511 -5.1232,-3.92925 -7.3232,-6.20922 -4.80678,-4.9815 -8.36679,-6.98055 -12.43129,-6.98055 -3.70947,0 -4.30731,1.7917 -3.6704,11 0.24727,3.57499 0.48296,6.49999 0.52374,6.49999 9.9815,0 24.79839,-0.83512 25.40115,-1.43167 z" fill="#00B894" transform="translate(-12.786921,-58.194612) matrix(0.80629419,0,0,0.80629419,-322.32789,10.388854)"/>
</svg>