<?xml version="1.0" ?><svg height="43.832066mm" viewBox="0 0 81.040436 43.832066" width="81.040436mm" xmlns="http://www.w3.org/2000/svg">
    <path color="#000" d="m 855.89499,203.02237 c 1.91984,-1.96009 9.16357,-1e-5 13.37429,2.5844 4.21073,2.58442 8.72798,4.02181 8.72798,4.02181 0,0 12.16745,-3.25022 16.63317,-4.31219 9.64253,-2.29304 18.55022,6.04651 5.1303,6.73689 -10.21632,0.52557 -12.95483,3.64431 -12.95483,3.64431 0,0 -2.06503,2.43922 5.6143,4.37027 7.67933,1.93105 20.77935,-2.17787 32.83073,-4.37027 12.05138,-2.19239 23.98984,4.71873 23.98984,4.71873 l -7.38894,4.0944 0.12907,6.47555 c 0,0 8.42144,0.4501 8.42144,8.10169 0,7.6516 -3.4202,10.61352 -13.16455,10.78774 -9.74436,0.17423 -9.98636,-9.94563 -9.53464,-12.06542 0.45173,-2.1198 9.00224,-7.9565 9.00224,-7.9565 l -1.11317,-5.83671 -23.86077,16.33406 -24.78035,-10.4538 -1.37131,2.90384 c 0,0 6.37254,7.05631 3.25887,12.31224 -3.11367,5.25594 -17.29461,10.70063 -22.27972,4.16701 -4.98511,-6.53363 0.87117,-15.01283 7.35666,-17.07454 6.48548,-2.06172 -6.24349,-7.40478 -6.24349,-7.40478 0,0 -3.70586,-1.0591 -3.70524,-6.89587 3.1e-4,-3.03075 9.18621,-1.7988 8.31929,-4.28388 -2.73036,-4.81871 -21.74401,-4.11022 -16.39117,-10.59898 z" fill="#FFFFFF" overflow="visible" paint-order="fill markers stroke" transform="translate(-159.24641,-169.88648) matrix(0.80629419,0,0,0.80629419,-528.0496,8.4243686)"/>
    <path d="m 859.75719,200.25322 c -2.13837,-0.0302 -4.08084,0.55281 -5.58203,1.75391 -1.8985,1.51898 -2.06015,1.94334 -1.43164,3.73047 0.75459,2.14568 4.26528,4.61061 6.8418,4.80469 2.72655,0.6007 7.991,0.32417 8.58398,2.31445 0,0.59256 -0.57516,1.07813 -1.27734,1.07813 -3.98195,0 -5.62788,4.29616 -3.33984,8.7207 0.62166,1.20221 1.02631,2.2889 0.89843,2.41406 -0.12789,0.12515 -1.98614,0.66 -4.1289,1.18945 -4.41716,1.09143 -4.97425,1.84532 -3.08399,4.17969 l 1.32813,1.64063 6.73633,-1.15235 c 6.3773,-1.09126 9.26077,-1.16085 5.61328,-0.13476 -13.33918,3.94913 -12.49154,20.33597 -0.29493,22.98047 7.71182,1.93535 15.52873,0.76704 20.28907,-5.96485 1.77307,-3.46468 2.17019,-6.47422 -0.875,-11.93945 -1.31447,-2.35909 -2.24964,-2.67296 -1.51953,-2.95313 0.52353,-0.20089 4.89893,2.03214 9.72265,4.96289 5.30778,3.22486 9.92744,5.5152 11.70117,5.79883 2.66626,0.42635 3.29202,0.19612 6.91993,-2.54297 2.19341,-1.65606 6.27576,-5.26271 9.07226,-8.01562 2.7966,-2.75291 5.81233,-5.48564 6.70117,-6.07227 3.04332,-2.00856 2.56641,1.92188 2.56641,1.92188 -8.5181,0.96035 -15.66482,14.55745 -3.14063,21.16406 3.0797,1.80426 9.82306,1.63563 14.18946,-0.35351 8.37471,-4.06402 9.32368,-16.84978 -1.30274,-19.72461 -1.7197,-0.88927 -2.1188,-1.51647 -1.9414,-3.05274 0.2003,-1.73476 0.48222,-1.91331 2.73633,-1.73633 2.59239,0.20353 7.18359,-2.0038 7.18359,-3.45312 0,-0.4188 -0.73787,-1.47287 -1.63867,-2.34375 -6.05206,-5.85106 -8.55839,-6.6712 -19.91016,-6.51953 -6.82456,0.0912 -7.41101,0.23176 -18.37891,4.41211 -6.6602,2.5385 -15.37295,2.69496 -21.125,0.3789 -0.59256,-0.2386 -1.55648,-0.4657 -2.14257,-0.5039 -0.58611,-0.0382 -1.16136,-0.56681 -1.2793,-1.17383 -0.36332,-1.86971 7.60155,-3.26411 12.44726,-2.17969 4.5856,1.02621 8.93165,-0.0505 8.93165,-2.21289 0,-4.98277 -7.16526,-9.39258 -15.26172,-9.39258 -2.82939,0 -4.82078,0.63524 -9.25196,2.95508 -3.10537,1.62574 -6.07341,2.95703 -6.5957,2.95703 -0.90043,0 -4.45444,-1.74943 -12.20312,-6.00586 -2.28396,-1.2546 -4.61944,-1.89946 -6.75782,-1.92969 z m 0.41211,3.1875 c 1.30762,-0.008 2.31805,0.64354 2.10742,1.75586 -0.15203,0.80295 -1.08561,1.26703 -2.8457,1.41407 -3.26723,0.27295 -4.08777,-0.86162 -1.73633,-2.40235 0.79781,-0.52274 1.69004,-0.76295 2.47461,-0.76758 z m 4.5151,2.96342 c 0.44632,0.0556 3.83177,0.79017 4.88334,1.37252 2.38103,1.27728 2.09895,0.32105 4.77539,2.53516 0.61332,0.73881 -0.52453,0.75 -1.41797,0.75 -2.03447,-0.66179 -6.95474,-2.84184 -8.86967,-4.06002 0,-0.45131 0.18259,-0.65328 0.62891,-0.59766 z m 35.05717,0.58932 c 0.5766,-0.0382 1.33117,0.12245 2.22851,0.49414 2.45931,1.0187 2.65779,1.79443 0.72266,2.83008 -2.28384,1.22229 -3.83546,0.65402 -4.19727,-1.53711 -0.18297,-1.10806 0.28509,-1.72344 1.2461,-1.78711 z m -8.14844,3.8125 c -1.06642,0.62473 -2.91561,1.59436 -3.74805,2.22656 -0.94506,0.9678 -2.66216,2.50411 -4.27148,0.96094 -3.55506,-2.10535 6.86155,-5.40418 9.41406,-6.27148 2.73776,0.47758 2.90969,1.78584 -1.39453,3.08398 z m -13.9707,5.38672 c 0.33384,-0.0106 0.68362,-0.002 1.04492,0.0273 3.65155,0.29934 4.20759,2.52548 1.08984,4.36719 -2.68136,1.58392 -2.77099,1.57261 -3.37695,-0.36914 -0.27739,-0.88884 -0.86158,-1.84518 -1.29883,-2.125 -1.31516,-0.84167 0.2041,-1.82594 2.54102,-1.90039 z m 53.16406,1.15039 5.8457,0.4707 c 7.0168,0.56389 8.91931,1.73301 2.90821,1.78711 -2.3183,0.0208 -5.29695,0.35634 -6.61914,0.7461 -1.32216,0.38975 -2.85784,1.08491 -3.41211,1.54492 -1.31499,1.09133 -1.27446,0.38727 0.13476,-2.33789 z m -65.31641,0.27734 c 0.88312,0.0233 2.5709,2.04722 4.00977,1.67578 2.32528,-0.95699 3.35608,-0.69056 3.58594,0.92579 0.28233,2.28234 -1.74067,3.91854 -4.10938,3.13476 -2.84005,-0.58676 -4.01973,-3.29467 -3.95703,-5.37891 0.10495,-0.26191 0.26691,-0.36279 0.4707,-0.35742 z m 60.07422,1.3418 c 2.13724,0 -0.45541,1.59895 -4.35351,2.68555 -2.10255,0.58607 -3.5102,1.37269 -4.69532,1.55664 -2.5403,0.39431 -2.30495,-0.58727 -1.39453,-0.94727 2.27026,-1.25048 8.75124,-3.29492 10.44336,-3.29492 z m -38.08789,1.29297 c 1.94734,0.19637 9.2968,3.26667 13.62305,5.80273 1.84797,1.08328 4.00679,2.24815 4.79687,2.58789 1.07738,0.4633 0.19513,0.75312 -3.53125,1.16407 -2.73254,0.30136 -5.64204,0.71745 -6.46484,0.92382 -0.94439,0.23685 -2.67013,-0.41445 -4.68164,-1.76562 -1.75252,-1.17722 -4.662,-2.59486 -6.46484,-3.15039 -1.80284,-0.55554 -2.73491,-1.03305 -2.07227,-1.06055 1.1049,-0.0459 3.76866,-2.76303 4.31445,-4.40039 0.0331,-0.0991 0.20228,-0.12961 0.48047,-0.10156 z m 22.30274,3.54883 c 1.6809,-0.0468 2.28243,0.26836 3.0332,1.19531 0.93962,1.16014 1.95704,1.42511 5.18359,1.34961 2.20828,-0.0517 4.73012,-0.32045 5.60352,-0.59766 1.57757,-0.50071 1.57689,-0.49012 -0.15625,1.67188 -0.95952,1.19693 -2.48708,2.5306 -3.39453,2.96289 -2.12194,1.01088 -2.26583,0.99614 -2.75977,-0.29102 -0.2274,-0.59256 -0.67314,-1.07812 -0.99219,-1.07812 -0.31898,0 -3.27549,-1.04583 -6.56836,-2.32422 l -5.98632,-2.32422 3.95117,-0.40625 c 0.8455,-0.0869 1.52563,-0.14262 2.08594,-0.1582 z m 28.08007,1.62304 c 0.3951,0 0.71875,0.32175 0.71875,0.7168 0,0.39504 -0.32365,0.71875 -0.71875,0.71875 -0.395,0 -0.71875,-0.32371 -0.71875,-0.71875 0,-0.39505 0.32375,-0.7168 0.71875,-0.7168 z m -26.03515,7.54493 c 2.31575,0.0386 4.03041,0.1958 4.16406,0.4121 0.17827,0.2884 -1.18562,1.52555 -3.03125,2.74805 -1.84563,1.2225 -4.0285,2.20541 -4.84961,2.18359 -0.82118,-0.0218 -3.10244,-1.1528 -5.07031,-2.51367 -4.07552,-2.81865 -4.49855,-2.62951 6.30664,-2.82617 0.86902,-0.0158 1.70855,-0.0167 2.48047,-0.004 z m 32.59375,0.28124 c 2.26499,-0.22739 8.2266,8.61902 -0.9668,12.87305 -7.66924,4.35397 -16.68202,-1.2193 -12.07031,-9.55469 3.12488,-3.05131 4.0512,-3.07101 2.9082,-0.0644 -1.16662,3.0683 -0.87839,4.94409 1.08594,7.0625 2.0951,2.25949 1.99716,2.23668 5.03906,1.13672 3.2208,-1.16462 4.84061,-4.09123 3.84571,-6.94531 -0.42102,-1.20748 -0.66054,-2.92358 -0.53126,-3.81446 0.11777,-0.44263 0.36589,-0.66086 0.68946,-0.69336 z m -69.52735,1.46876 c 0.83514,-0.0211 1.63383,0.0301 2.34571,0.13085 0,0.62197 -0.82399,2.56515 -1.30469,3.57032 -0.31689,-0.057 -4.4026,-0.48681 -5.35547,2.8457 -1.38056,4.82827 2.66455,7.44745 6.93555,6.42187 2.80328,-0.67314 5.29036,-1.84731 5.77539,-4.63671 0.30485,-1.70438 -0.66467,-1.9764 0.79101,-3.94532 l 1.68165,-2.27734 c 1.6149,2.7726 1.71775,5.25371 0.7207,7.0957 -3.1162,4.4495 -9.14242,6.78668 -14.70117,4.73828 -6.41263,-2.36306 -5.49881,-9.13046 -3.88086,-11.11328 1.66905,-2.04544 4.48679,-2.76688 6.99218,-2.83007 z m -0.58203,6.43945 c 0.22766,0.0179 0.5275,0.15804 0.90235,0.46679 1.98385,1.38955 2.05644,2.41824 0.16015,2.2754 -1.66493,-0.61251 -2.04901,-2.81958 -1.0625,-2.74219 z" fill="#00B894" transform="translate(-159.24641,-169.88648) matrix(0.80629419,0,0,0.80629419,-528.0496,8.4243686)"/>
</svg>