<?xml version="1.0" ?><svg height="54.458237mm" viewBox="0 0 140.29204 54.458236" width="140.29204mm" xmlns="http://www.w3.org/2000/svg">
    <path color="#000" d="m 521.34721,244.6 -24.12091,-0.99367 c -2.6804,-14.99445 -4.61527,-30.03363 1.01343,-45.52661 49.99969,-5.9605 102.01877,-1.92545 153.02816,-2.88817 13.33684,17.13447 10.86084,33.92741 10.72548,50.77091 l -31.62751,1.86211 c -8.47595,12.47645 -16.48793,6.58029 -24.40682,-3.00217 l -62.94972,-0.37442 c -4.54357,17.57041 -18.78347,14.64249 -21.66211,0.15202 z" fill="#FFFFFF" overflow="visible" paint-order="fill markers stroke" transform="translate(21.724254,21.105109) matrix(0.80629419,0,0,0.80629419,-418.27504,-174.66198)"/>
    <path d="m 527.32143,256.41038 c -1.96501,-1.03743 -4.76061,-3.68122 -6.21244,-5.87509 l -2.6397,-3.98885 -9.93345,0.29517 c -5.46339,0.16234 -12.08876,-0.9235 -12.62213,-1.2664 -1.90451,-1.2242 -3.61438,-6.46358 -3.84156,-11.46599 -0.87799,-19.33293 0.68759,-27.73158 2.24621,-38.86378 0.4284,-1.97767 1.4916,-2.25604 8.37454,-2.17201 6.54989,0.08 14.14547,-0.21432 51.75,-2.00496 15.27631,-0.72742 82.15784,-0.85574 88.5,-0.1698 2.75,0.29743 5.9,0.89244 7,1.32224 6.50263,2.54075 10.81971,9.23184 13.10984,20.31908 0.86402,4.183 1.82558,8.01745 2.13681,8.52102 1.13876,1.84257 0.59596,25.6583 -0.61234,26.86661 -0.80342,0.80341 -6.26024,1.18712 -17.15449,1.20625 -12.59331,0.0221 -15.97666,0.30903 -15.97805,1.35497 -9.8e-4,0.72981 -1.31715,2.64231 -2.92485,4.25 -2.58572,2.58573 -3.62039,2.92308 -8.9652,2.92308 -5.33233,0 -6.45737,-0.36459 -9.57692,-3.10359 -1.94414,-1.70698 -3.5348,-3.91948 -3.5348,-4.91666 0,-0.9972 -0.5625,-2.01259 -1.25,-2.25645 -1.49839,-0.53147 -36.16519,-1.19934 -50.41748,-0.39305 l -10.11874,0.57244 -1.25729,3.80963 c -2.011,6.09338 -9.583,8.46517 -16.07796,5.03614 z m 7.13848,-7.05552 c 1.45646,-0.77947 1.93426,-2.10783 1.93426,-5.37755 0,-5.03724 -1.40749,-6.61968 -5.23436,-5.88502 -2.1148,0.40599 -2.96322,1.34888 -3.74442,4.16135 -1.29749,4.67118 -1.27662,5.48101 0.17878,6.9364 1.47425,1.47425 4.29262,1.54191 6.86574,0.16482 z m 88.78299,0.10706 c 0.66,-0.66 1.2,-2.41121 1.2,-3.89158 0,-3.3152 -3.38821,-4.65747 -10.25,-4.06063 -2.08025,0.18094 -2.48398,6.01824 -0.55,7.95221 1.55247,1.55247 8.04753,1.55247 9.6,0 z m 13.65,-6.67237 c 0.5225,-0.0702 0.41,-0.66762 -0.25,-1.32762 -0.79112,-0.79112 -1.2,-5.03351 -1.2,-12.45078 0,-6.18793 -0.47876,-13.48316 -1.06391,-16.21162 l -1.06391,-4.96084 -5.68609,-0.98827 c -5.70332,-1.1918 -3.8564,1.12793 -3.39371,5.11188 0.77814,4.55904 0.52379,7.4071 0.89374,13.87298 0.58833,10.28261 0.81553,11.2005 3.53188,14.26866 2.68018,3.02732 3.55761,3.31357 8.232,2.68561 z m 6.08945,-6.65145 c 0.90077,-8.41123 -0.335,-24.81431 -2.04571,-27.15384 -1.96555,-2.68805 -2.68059,-1.14274 -1.27964,2.76551 0.73873,2.06087 1.23554,9.01517 1.2545,17.56044 0.033,14.88725 0.90122,17.74977 2.07085,6.82789 z m 15.25509,-1.86381 0.29454,-7.88765 -4.12713,0.55357 c -2.26992,0.30446 -4.25272,0.7039 -4.40622,0.88764 -0.15351,0.18374 -0.54215,3.62025 -0.86364,7.63667 l -0.58454,7.3026 4.69622,-0.3026 4.69623,-0.30259 z m -137.84327,4.85674 c 0,-0.7658 1.04555,-2.3746 2.32345,-3.57512 4.83917,-4.54616 17.79685,-2.80702 19.14633,2.56977 l 0.61047,2.43229 31.2586,0.73352 c 28.87974,0.6777 31.50518,-0.69085 35.17132,-2.58396 2.17879,-1.12508 5.37808,-2.0456 7.10953,-2.0456 h 3.14809 l 0.17665,-7 0.17666,-7 -4.78619,-0.11842 c -2.6324,-0.0651 -5.23618,-0.005 -5.78618,0.13278 -0.55,0.13817 -11.8,0.43967 -25,0.67 -13.2,0.23034 -30.075,0.75835 -37.5,1.17337 -7.425,0.41502 -20.8125,0.60311 -29.75,0.41799 l -16.25,-0.33659 0.0153,6.78043 c 0.008,3.72924 0.34592,7.29757 0.75,7.92962 0.85629,1.3394 3.18308,0.48154 12.43596,0.90405 5.24896,0.23968 6.75,-0.001 6.75,-1.08413 z m 136.8718,-18.98975 c 0.1777,-0.16069 -0.26213,-2.80928 -0.97738,-5.88576 l -1.30046,-5.59359 h -4.35207 c -4.21323,0 -4.33468,0.0877 -3.80681,2.75 0.29989,1.5125 0.84138,4.46764 1.20331,6.56697 l 0.65805,3.81697 4.12615,-0.68121 c 2.26937,-0.37467 4.27152,-0.81269 4.44921,-0.97338 z m -143.33733,-7.72935 c -0.39085,-3.4375 -0.80899,-6.36145 -0.92919,-6.49767 -0.1202,-0.13622 -2.92994,-0.53106 -6.24386,-0.87744 l -6.02532,-0.62977 -0.17987,7.12744 -0.17987,7.12744 h 7.13437 7.13437 z m 25.94462,-1 c -0.37991,-3.9875 -0.74465,-7.32044 -0.81055,-7.40654 -0.0659,-0.0861 -4.61981,0.1389 -10.11981,0.5 l -10,0.65654 0.37863,3 c 0.20824,1.65 0.47531,4.125 0.59348,5.5 0.11816,1.375 0.28528,3.0625 0.37137,3.75 0.11354,0.90679 2.91878,1.25 10.21707,1.25 H 540.564 Z m 24.73836,1.75 c -0.16305,-2.2 -0.38022,-4.9 -0.48259,-6 -0.25952,-2.78859 -2.04679,-3.3491 -10.93613,-3.42972 l -7.75,-0.0703 0.011,3.25 c 0.006,1.7875 0.29254,4.95358 0.63663,7.03572 l 0.62564,3.78572 9.09595,-0.28572 9.09595,-0.28572 -0.29646,-4 z m 27.71724,-2.56533 c -0.11779,-3.26407 -0.47781,-5.97018 -0.80006,-6.01358 -0.92009,-0.12391 -12.08954,-0.14013 -17.3359,-0.0252 l -4.75,0.10409 v 3.9349 c 0,2.16419 0.39503,4.97669 0.87784,6.25 0.85306,2.24975 1.17907,2.3062 11.55006,1.99977 l 10.67222,-0.31533 z m 24.46908,6.14756 c 1.60712,-0.0712 1.77101,-0.65021 1.22635,-4.33223 -0.34577,-2.3375 -0.66564,-5.2625 -0.71082,-6.5 -0.0704,-1.92853 -0.67426,-2.27487 -4.22636,-2.42405 -2.27931,-0.0957 -5.71921,-0.25953 -7.64421,-0.36399 -6.48297,-0.35182 -8,0.41076 -8,4.02145 0,1.79662 0.27707,4.65194 0.61571,6.34514 0.58883,2.94415 0.86168,3.09409 6.25,3.43459 3.09886,0.19583 6.75929,0.25374 8.13429,0.12869 1.375,-0.12506 3.33477,-0.26437 4.35504,-0.3096 z m 32.85617,-15.27102 c -0.85604,-0.85605 -7.02591,-1.64308 -20.46121,-2.61006 -7.50872,-0.54043 -9.75,-0.41433 -9.75,0.54856 0,0.68766 0.5625,1.29594 1.25,1.35174 6.51283,0.5286 9.05693,0.87215 9.46259,1.27781 0.26279,0.26279 4.92097,0.40596 10.3515,0.31817 5.43054,-0.0878 9.54674,-0.4866 9.14712,-0.88622 z" fill="#00B894" transform="translate(21.724254,21.105109) matrix(0.80629419,0,0,0.80629419,-418.27504,-174.66198)"/>
</svg>