<?xml version="1.0" ?><svg height="81.224213mm" viewBox="0 0 130.22127 81.224213" width="130.22127mm" xmlns="http://www.w3.org/2000/svg">
    <path color="#000" d="m 134.49023,363.7481 c 0,0 -5.07476,-23.05967 -0.21793,-24.32052 4.85683,-1.26086 14.63275,16.7834 14.63275,16.7834 l 47.22951,-8.79797 14.66388,-24.43261 c 0,0 -43.80484,8.54581 -46.07758,3.89464 -2.27274,-4.65116 39.60181,-14.20565 39.60181,-14.20565 0,0 -31.25804,-12.97282 -29.45229,-16.86747 1.80575,-3.89464 48.00785,15.49453 48.00785,15.49453 0,0 52.45995,-22.24712 60.80373,-14.87811 8.34378,7.36901 -46.01531,9.49846 -56.72523,17.45587 -10.70992,7.9574 55.79122,0.84056 55.51102,14.65395 -0.23212,11.44315 -45.85965,-5.57578 -45.85965,-5.57578 0,0 25.26289,16.25106 24.78227,36.45277 -0.29167,12.25977 -15.63075,6.09888 -44.6143,7.64921 z" fill="#FFFFFF" overflow="visible" paint-order="fill markers stroke" transform="translate(-119.39144,8.0919571) matrix(0.80629419,0,0,0.80629419,15.45022,-243.59538)"/>
    <path d="m 221.7895,391.9366 c -40.6439,-1.11863 -45.7326,-2.043 -44.1688,-8.02328 0.4691,-1.79366 1.117,-1.89352 8.2487,-1.27141 l 7.7397,0.67514 0.489,-6.36789 c 0.2689,-3.50235 0.0737,-4.06598 0.054,-6.85968 -16.34478,-0.33377 -24.38029,0.29593 -60.0503,-2.35437 -2.5301,-1.5811 -4.3723,-8.37111 -4.9361,-18.19365 -0.4957,-8.63665 -0.3373,-10.27882 1.1339,-11.75 3.8332,-3.83314 8.6122,-1.46571 12.8562,6.3686 5.2926,9.77012 4.4741,9.17183 11.7112,8.56053 15.8809,-1.34142 35.664,-5.28573 38.5581,-7.68762 0.793,-0.65813 1.4419,-1.83885 1.4419,-2.62381 0,-2.32313 3.0006,-7.59261 6.3081,-11.0779 3.3257,-3.50453 2.6374,-3.96769 -3.3147,-2.23028 -6.7252,1.96306 -23.5675,4.14884 -31.8401,4.13218 -6.4782,-0.0131 -8.7727,-0.4024 -10.25,-1.73935 -3.5029,-3.17007 -2.2384,-4.71059 7.8878,-9.61004 9.395,-4.54565 21.0048,-7.94668 32.0416,-9.38646 6.0201,-0.78533 5.3155,-1.95737 -1.8254,-3.0368 -2.471,-0.37352 -9.33,-2.86165 -15.2422,-5.52918 -5.9122,-2.66754 -11.3583,-4.85007 -12.1023,-4.85007 -1.8164,0 -4.6628,-3.25296 -4.6628,-5.32874 0,-1.42964 1.2199,-1.67126 8.4379,-1.67126 13.8856,0 26.2576,3.58085 43.4883,12.58691 7.3885,3.8618 8.6202,4.22854 10.002,2.97807 2.1365,-1.93355 14.8234,-7.56498 17.0429,-7.56498 0.9815,0 3.4923,-0.71352 5.5795,-1.5856 5.4325,-2.26986 26.6114,-6.4144 32.7779,-6.4144 3.1041,0 6.1258,0.62996 7.4412,1.55128 5.5734,3.90373 4.8422,9.44872 -1.2459,9.44872 -6.94123,2.16345 -14.75042,3.05567 -21.0238,4.25641 -7.15,1.37509 -17.3908,3.2782 -22.7573,4.22914 -5.3665,0.95094 -9.9805,2.09018 -10.2534,2.53166 -0.2728,0.44148 3.443,1.0596 8.2573,1.37361 29.6832,1.93601 33.0822,2.39121 38.0519,5.09603 4.6816,2.54804 8.2015,6.75184 8.2015,9.795 0,3.05083 -2.9206,4.02675 -11.7875,3.93881 -6.9511,-0.0689 -10.5108,-0.70357 -17.6071,-3.13898 l -8.8945,-3.05257 6.045,6.29525 c 6.7971,7.07845 8.9212,12.31644 11.1877,27.58906 1.1454,7.71758 0.1266,10.572 -3.4526,9.67367 -7.95486,-1.09561 -14.22561,-1.34672 -22.491,-1.87424 l 0.019,2.39358 c 0.011,1.31646 0.6116,4.64357 1.3357,7.39357 l 1.3164,5 5.4739,-0.28909 c 4.2644,-0.22522 5.8139,0.10622 7.0123,1.5 4.1229,4.79487 2.3514,7.35878 -4.8313,6.99222 -2.1892,-0.11172 -14.5207,-0.49323 -27.4034,-0.84779 z m 11.6196,-10.10534 c -0.3799,-1.2375 -0.9397,-4.3875 -1.2439,-7 l -0.5531,-4.75 h -30.7455 c 0.11237,3.7564 -0.30736,7.8828 0.9752,11.4349 l 0.9753,2.5651 h 31.2827 z m -4.0425,-19.74884 c -1.1,-0.47332 -2.9518,-0.89222 -4.1152,-0.93087 -5.5101,-0.1831 -10.5491,-7.97218 -10.5179,-16.25829 0.036,-9.51551 3.1479,-12.05456 16.6331,-13.56989 l 7,-0.78659 c -14.72889,-14.91383 -32.26865,3.08841 -37.499,14.82861 l -2.2166,5.34795 -9.6422,2.64751 c -5.3032,1.45614 -11.4422,2.85634 -13.6422,3.11157 -10.9696,1.2726 -25.0057,3.71446 -25.7753,4.48415 23.746,1.14868 46.26205,1.31904 70.9578,1.80557 6.7687,0.11318 10.0689,-0.14122 8.8175,-0.67972 z m 25.75,0.29311 c -1.2375,-0.23836 -3.2625,-0.23836 -4.5,0 -1.2375,0.23835 -0.56632,2.86883 1.90868,2.86883 2.475,0 3.82882,-2.63048 2.59132,-2.86883 z m -108.8637,-1.11039 c 1.5349,-2.48352 -7.6908,-19.18388 -10.5976,-19.18388 -1.4566,0 -1.7887,0.8461 -1.7887,4.55718 0.29976,6.24977 -0.84387,14.83665 6.45682,15.43943 5.6038,1.2588 5.35928,0.10987 5.92948,-0.81273 z m 110.2406,-7.93388 c -0.2794,-0.9625 -1.0141,-3.70729 -1.6328,-6.09954 -0.73682,-3.0755 -4.17482,-10.03659 -14.9635,-10.15046 -1.7515,0 -1.9667,0.42176 -1.4033,2.75 0.3661,1.5125 1.0496,3.79179 1.5191,5.0651 0.4695,1.2733 0.8536,3.83229 0.8536,5.68664 0,3.71774 0.6984,3.98545 11.3174,4.33822 4.1538,0.138 4.7474,-0.081 4.3095,-1.58996 z m -21.6269,-1.7651 c 0,-1.3833 -0.7488,-5.2083 -1.664,-8.5 -1.439,-5.17579 -1.9865,-5.9849 -4.0496,-5.9849 -2.512,0 -8.1859,2.54145 -8.4293,3.77568 -0.079,0.39838 -0.2205,2.89449 -0.3154,5.54691 -0.2164,6.04958 1.7302,7.67741 9.1808,7.67741 4.9711,0 5.2775,-0.14601 5.2775,-2.5151 z m 45,-24.44556 c 0,-0.95685 -7.3195,-3.72518 -12,-4.53855 -6.4688,-1.12414 -22,-2.07275 -22,-1.34371 0,0.74527 13.8284,5.21251 20.3477,6.57326 4.3068,0.89894 13.6056,2.13509 13.6523,-0.691 z m -99,-2.00884 c 6.027,-1.04972 6.3115,-1.10623 19.8541,-3.94476 9.4336,-1.97729 12.3841,-3.08574 8.2137,-3.08574 -1.2461,0 -3.7529,-0.70579 -5.5708,-1.56842 -4.99798,-0.05 -15.95274,2.35876 -24.04,5.10637 -4.3764,1.42437 -8.3845,3.01103 -8.907,3.52591 -1.2399,1.2218 3.327,1.20722 10.45,-0.0334 z m 18.5,-20.73736 c -1.1,-0.26117 -4.6619,-1.33397 -7.9152,-2.384 -6.5686,-2.12005 -8.4961,-2.39554 -7.0348,-1.00543 1.6985,1.61579 9.8616,4.00254 13.45,3.93255 2.016,-0.0393 2.652,-0.2696 1.5,-0.54312 z m 81.6583,-5.0515 c 0.47008,-2.97376 -2.46986,-1.74336 -9.50641,-1.00451 -7.03655,0.73885 -18.14534,3.46547 -22.7251,5.30524 -21.90886,4.29887 -0.53453,2.26124 4.34822,1.25374 11.80065,-2.43491 22.38352,-3.59582 27.88329,-5.55447 z" fill="#00B894" transform="translate(-119.39144,8.0919571) matrix(0.80629419,0,0,0.80629419,15.45022,-243.59538)"/>
</svg>