<?xml version="1.0" ?><svg height="43.375137mm" viewBox="0 0 74.951439 43.375137" width="74.951439mm" xmlns="http://www.w3.org/2000/svg">
    <path color="#000" d="m 794.96813,211.9251 a 6.4477406,3.2031651 0 0 0 -6.41211,3.20312 6.4477406,3.2031651 0 0 0 6.44922,3.20313 6.4477406,3.2031651 0 0 0 6.44727,-3.20313 6.4477406,3.2031651 0 0 0 -6.44727,-3.20312 6.4477406,3.2031651 0 0 0 -0.0371,0 z m -58.00586,5.95312 a 4.2070351,2.8396368 0 0 0 -4.13281,2.83985 4.2070351,2.8396368 0 0 0 4.20703,2.83984 4.2070351,2.8396368 0 0 0 4.20703,-2.83984 4.2070351,2.8396368 0 0 0 -4.20703,-2.83985 4.2070351,2.8396368 0 0 0 -0.0742,0 z m 37.21289,13.21094 a 6.7602186,7.5312085 0 0 0 -6.75976,7.53125 6.7602186,7.5312085 0 0 0 6.75976,7.53125 6.7602186,7.5312085 0 0 0 6.75977,-7.53125 6.7602186,7.5312085 0 0 0 -6.75977,-7.53125 z" fill="#FFFFFF" overflow="visible" paint-order="fill markers stroke" transform="translate(46.767192,-96.44685) matrix(0.80629419,0,0,0.80629419,-630.12598,-64.786477)"/>
    <path d="m 729.597,232.89593 c 0.49981,-1.00628 2.29025,-3.04903 3.97876,-4.53945 2.76923,-2.44436 2.88747,-2.71107 1.20685,-2.72231 -1.23375,-0.008 -2.3218,-0.89936 -3.22076,-2.63776 -1.28086,-2.47691 -1.2638,-2.74914 0.30199,-4.81639 2.20236,-2.90772 7.26783,-2.92446 9.6102,-0.0317 1.30098,1.60664 1.7019,1.73146 2.33699,0.72763 1.17144,-1.8516 0.95086,-2.46817 -0.883,-2.46817 -2.73529,-1.13558 -5.85272,-2.91428 -7.498,-5.23521 -1.36548,-1.95797 -2.96982,-4.24434 -3.5652,-5.08083 -0.62468,-0.87767 -2.58808,-1.72139 -4.64244,-1.99497 -4.36368,-0.58111 -5.07499,-3.13816 -1.11491,-4.00794 3.46132,-0.76023 8.75901,2.16267 11.54205,6.36815 2.61828,3.95647 4.44313,4.81839 8.92685,4.28085 7.98485,-0.95728 9.28999,-8.61825 15.605,-8.75367 3.44111,0.0978 7.55093,2.45115 7.55093,4.32373 0,1.93307 -1.60894,2.59602 -3.48539,1.4361 -2.15258,-1.33062 -7.95948,0.7428 -9.69921,3.46322 -1.86191,2.91146 -3.61152,4.30284 -5.45275,4.3363 -0.80623,0.0147 -1.46586,0.59204 -1.46586,1.28309 0,1.03535 3.11896,1.69122 10.50972,2.35084 12.90016,1.15133 14.22828,1.28661 25.42895,1.41219 2.66126,0.006 2.76373,-0.0918 1.53112,-1.45954 -2.41212,-2.6766 -2.62486,-5.69483 -0.53842,-7.63865 1.52619,-1.42186 2.61435,-1.67598 5.72099,-1.336 3.37927,0.36982 8.04539,1.82928 11.73786,3.67134 0.66026,0.32938 1.60259,1.24406 2.09408,2.0326 1.11323,1.78607 -0.10872,2.67262 -4.69444,3.4059 l -3.26295,0.52177 2.75024,3.54558 c 3.41326,4.40035 3.91852,4.77193 6.51958,4.79472 3.52234,0.0308 6.92719,2.91726 8.11132,6.87624 3.23749,10.82397 -2.19542,18.03276 -13.33658,17.69598 -5.38809,-0.16287 -8.82661,-2.04829 -11.26561,-6.17722 -2.03826,-3.45048 -5.45665,-3.36555 -8.8049,0.21877 -2.1858,2.33989 -3.01025,2.66982 -6.31254,2.5261 -7.59495,-0.33055 -13.09134,-7.51149 -10.82661,-14.14481 0.50549,-1.4806 0.0131,-2.23788 -2.72344,-4.18817 -1.83729,-1.30942 -3.76506,-3.16354 -4.28394,-4.12026 -0.94726,-1.74658 -5.0997,-3.70513 -7.85548,-3.70513 -2.14609,0 0.33116,1.20365 4.58712,4.39165 12.01128,7.70484 7.84674,23.50294 -5.47049,25.83607 -15.74244,2.75802 -25.22498,-8.2693 -19.64768,-20.44064 z m 17.2238,15.30224 c 0.91173,-0.91174 -0.99696,-8.33669 -2.14307,-8.33669 -0.5372,0 -2.58734,6.6467 -2.58734,8.38836 0,1.09909 3.61917,1.05956 4.73041,-0.0517 z m 53.96854,-3.07846 c 0.30249,-1.47905 0.39358,-2.8456 0.20239,-3.03677 -0.52284,-0.52286 -6.96804,1.24443 -6.96804,1.91066 0,1.30043 3.59854,4.3193 4.85928,4.0765 0.75861,-0.14609 1.59875,-1.44635 1.90637,-2.95039 z m 7.94226,1.05066 c 0.89427,-0.67639 1.24516,-1.24179 0.77976,-1.25645 -0.46541,-0.0147 -1.95061,-1.0507 -3.30044,-2.30234 -1.75028,-1.62295 -2.28841,-1.84356 -1.87611,-0.76913 0.31796,0.82862 0.57812,2.41809 0.57812,3.53216 0,2.29991 1.43473,2.59889 3.81867,0.79576 z m -68.82491,-0.93278 c 0.91129,-2.37479 0.55738,-2.99115 -1.37624,-2.39678 -2.4448,0.75149 -2.43252,0.73561 -1.81478,2.3454 0.67188,1.75087 2.5274,1.78075 3.19102,0.0514 z m 13.6464,-2.46872 c 1.00644,-1.78454 1.65916,-3.52086 1.4505,-3.85849 -0.32647,-0.52824 -6.14324,-0.0482 -6.89841,0.5693 -0.68238,0.55798 1.91088,7.09405 2.71053,6.83162 0.49911,-0.16379 1.73092,-1.75789 2.73738,-3.54243 z m 24.25094,0.34837 c 0.52867,-0.43875 1.158,-1.55026 1.39853,-2.47001 0.38736,-1.4813 0.13207,-1.61501 -2.23549,-1.17085 -1.99202,0.3737 -3.25171,0.0461 -4.94569,-1.28644 -2.67432,-2.10363 -3.96492,-1.61135 -3.96284,1.51157 0.003,4.00665 6.35202,6.23206 9.74549,3.41573 z m 33.80997,-3.34538 c 0,-1.13144 -0.40306,-1.61022 -1.123,-1.33395 -1.53313,0.58832 -3.41316,-0.68623 -2.70423,-1.83332 0.31656,-0.5122 1.26323,-0.93128 2.10371,-0.93128 0.84047,0 1.70684,-0.68335 1.92524,-1.51855 0.32385,-1.23839 -0.16037,-1.55122 -2.62461,-1.69563 -2.94284,-0.17246 -3.02452,-0.0959 -3.1285,2.93326 -0.0767,2.23567 0.39436,3.52909 1.67527,4.59948 2.39783,2.00372 3.87612,1.91981 3.87612,-0.22001 z m -73.85096,-0.21653 1.95491,-1.08441 -2.06831,-1.35521 c -2.35962,-1.54608 -3.09795,-1.15786 -3.09795,1.62893 0,2.22105 0.45967,2.3371 3.21135,0.81069 z m 50.71133,0.47556 c 0.62988,-1.01917 -0.52746,-2.39244 -2.54711,-3.02231 -2.0535,-0.64042 -3.04538,0.38242 -2.28709,2.3585 0.52509,1.36837 4.09573,1.85868 4.8342,0.66381 z m 6.65348,-1.33105 c 0.3121,-0.8133 -0.035,-1.03593 -1.15741,-0.7424 -0.88174,0.23057 -1.3967,0.75332 -1.14435,1.16164 0.68144,1.10257 1.79566,0.89963 2.30176,-0.41924 z M 742.4313,230.6877 c -0.43514,-0.41549 -1.97159,0.11576 -3.59627,1.24346 l -2.83655,1.96885 2.83655,1.17764 c 2.79445,1.16016 2.84782,1.14171 3.59627,-1.24346 0.45455,-1.44855 0.45455,-2.71248 0,-3.14649 z m 12.01205,3.8011 c 0.88473,-0.88473 -0.67973,-3.06552 -2.76899,-3.85985 -2.84983,-1.08351 -3.72053,-0.45386 -3.72053,2.69049 0,2.4896 0.0985,2.55709 3.0355,2.08048 1.66953,-0.27094 3.22384,-0.68093 3.45402,-0.91112 z m 46.5701,-1.37475 c -0.96084,-0.96085 -5.31449,-0.20785 -5.31449,0.91917 0,0.93546 4.40679,1.44183 5.40274,0.62082 0.49721,-0.40989 0.46411,-0.98764 -0.0883,-1.53999 z m -25.83286,0.87808 c 0.28673,-0.46396 -0.0842,-1.07592 -0.82433,-1.35993 -1.60377,-0.61543 -2.49758,0.0627 -1.72667,1.31012 0.69555,1.12542 1.87203,1.1484 2.551,0.0498 z m 10.02554,-5.18681 c 2.08547,-1.01319 3.79176,-2.11575 3.79176,-2.45012 0,-0.33437 -6.21943,-0.64487 -13.82096,-0.69 -7.60153,-0.0452 -13.82096,0.0894 -13.82096,0.299 0,0.20959 1.1506,1.20037 2.5569,2.20173 2.29224,1.63223 2.94096,1.72396 6.26761,0.8863 2.96059,-0.74549 4.26401,-0.6925 6.44768,0.26212 3.72975,1.63052 4.23599,1.60048 8.57797,-0.50903 z m -41.78331,-5.48094 c -0.5809,-0.58089 -2.17006,0.59937 -2.17006,1.61169 0,0.55543 0.48062,0.49188 1.27669,-0.1688 0.70218,-0.58276 1.1042,-1.23206 0.89337,-1.44289 z m -5.11092,-2.19939 c 1.51815,-1.1101 1.51183,-1.17599 -0.20055,-2.09243 -1.40384,-0.75131 -2.04045,-0.67384 -3.09038,0.37608 -2.45796,2.45796 0.3056,3.89926 3.29093,1.71635 z m 57.25962,-5.26061 c 1.91289,0.21976 3.47798,0.10114 3.47798,-0.26361 0,-1.1468 -2.01182,-2.37411 -4.18817,-2.55498 -3.79216,-0.31515 -5.07181,-0.006 -5.59297,1.35241 -0.58277,1.51868 1.48441,3.23604 2.3023,1.91267 0.28759,-0.46533 2.08797,-0.66625 4.00086,-0.44649 z" fill="#00B894" transform="translate(46.767192,-96.44685) matrix(0.80629419,0,0,0.80629419,-630.12598,-64.786477)"/>
</svg>