<?xml version="1.0" ?><svg height="266.83426mm" viewBox="0 0 363.89981 266.83426" width="363.89981mm" xmlns="http://www.w3.org/2000/svg">
    <path d="m 28013.633,18573.127 c -79.559,-0.129 -163.666,1.078 -163.666,1.078 -43.901,20.665 -66.556,71.337 -71.375,109.461 -4.819,38.123 68.613,70.939 102.416,93.852 33.802,22.913 38.794,31.007 52.89,82.076 14.097,51.069 114.641,235.763 155.061,292.916 40.419,57.154 58.657,76.21 86.418,96.922 27.762,20.712 189.873,144.146 189.873,144.146 0,0 26.538,44.727 61.42,97.479 34.882,52.751 129.693,50.269 164.287,44.767 34.594,-5.502 59.766,-64.209 99.826,-138.967 40.06,-74.759 35.197,-121.227 39.584,-161.552 4.387,-40.324 -25.819,-103.82 -46.82,-135.924 -21.001,-32.105 -23.375,-67.058 -29.92,-91.719 -6.545,-24.66 -55.624,-99.767 -77.344,-122.486 -21.72,-22.719 -226.035,-200.547 -271.705,-231.68 -45.67,-31.134 -121.762,-69.776 -155.277,-76.443 -14.663,-2.917 -73.789,-3.826 -135.668,-3.926 z m -191.805,179.887 c 0,0 -1.009,97.172 0.789,124.357 1.798,27.185 -6.113,86.992 -14.599,120.52 -8.487,33.528 -30.958,184.847 -43.473,234.298 -12.514,49.451 -18.502,104.858 -20.012,124.534 -1.51,19.677 -24.237,86.668 -23.662,100.261 0.575,13.592 29.271,8.287 34.953,4.856 5.681,-3.43 31.611,-46.497 40.457,-82.485 8.846,-35.987 22.871,-181.945 32.508,-239.228 9.638,-57.283 17.78,-133.71 39.285,-153.322 21.504,-19.612 73.36,-71.328 73.36,-71.328 l -14.455,-45.18 -70.77,51.974 -6.115,-154.564 z" fill="#FFFFFF" transform="translate(-59.95483,14.732642) matrix(0.26458333,0,0,0.26458333,-6304.0233,-4281.0558) translate(-3313.5291,-2437.8203)"/>
    <path d="m 24805.695,17119.139 c -3.037,-4.335 -5.523,-10.912 -5.523,-14.619 0,-5.714 0.848,-6.039 5.556,-2.132 3.055,2.536 7.884,9.117 10.733,14.624 4.544,8.791 4.541,10.013 -0.02,10.013 -4.554,-1.323 -8.476,-4.754 -10.746,-7.886 z m -80.228,-6.512 c 1.167,-6.676 5.641,-8.866 6.57,-2.324 0.387,2.729 0.251,14.813 -0.111,16.44 -1.516,6.809 -10.657,9.897 -9.065,0.792 z m 443.063,-1.257 c -7.105,-2.746 -24.331,-13.294 -38.281,-23.438 -24.665,-17.943 -25.956,-19.655 -46.973,-62.438 -11.888,-24.195 -28.064,-51.316 -35.945,-60.272 -8.305,-9.432 -41.29,-34.254 -78.431,-59.023 -119.124,-79.428 -174.75,-126.443 -190.113,-160.692 -6.407,-14.272 -14.564,-25.409 -24.224,-33.059 -14.313,-11.335 -46.648,-61.395 -60.438,-93.556 -3.54,-8.257 -13.289,-26.182 -21.666,-39.837 -8.38,-13.657 -21.464,-38.353 -29.082,-54.883 -7.618,-16.53 -14.522,-30.722 -15.338,-31.542 -3.42,-3.421 -57.002,48.851 -68.502,66.831 -13.182,20.611 -25.033,61.676 -25.247,87.491 -0.132,17.011 -15.467,119.861 -22.915,153.773 -6.091,27.732 -8.257,45.223 -12.517,101.081 -3.444,45.204 -6.785,57.805 -24.963,94.176 -19.514,39.039 -24.028,41.72 -61.59,36.571 -15.586,-2.136 -16.456,-2.841 -16.417,-13.299 0.02,-6.078 2.347,-19.702 5.161,-30.279 4.682,-17.594 4.605,-19.625 -0.927,-23.827 -3.326,-2.528 -6.845,-4.653 -7.822,-4.724 -0.976,-0.07 -16.743,-2.553 -35.036,-5.522 -18.295,-2.965 -50.393,-6.769 -71.333,-8.453 -22.032,-1.771 -43.298,-5.54 -50.48,-8.949 -22.182,-10.526 -26.587,-34.93 -11.439,-63.388 4.978,-9.35 8.154,-19.825 7.055,-23.284 -2.907,-9.157 -23.945,-19.813 -71.505,-36.213 -23.125,-7.976 -50.534,-18.655 -60.905,-23.733 -20.393,-9.987 -41.857,-31.07 -45.204,-44.407 -3.884,-15.47 10.909,-55.845 30.809,-94.328 4.77,-9.225 18.037,-15.658 9.278,2.978 -30.801,65.537 -31.092,81.858 -15.642,100.22 13.456,15.987 30.81,24.547 85.857,44.466 56.552,20.465 75.666,28.72 82.999,41.786 4.522,8.058 1.033,16.53 -3.021,26.483 -16.597,40.721 -13.174,43.257 2.529,50.661 5.432,2.562 27.292,8.26 60.917,9.863 32.187,1.534 65.753,3.884 74.591,5.218 14.662,2.217 17.091,1.473 27.726,-8.458 11.081,-10.354 11.827,-12.684 15.194,-47.372 1.946,-20.064 8.12,-56.432 13.721,-80.813 5.6,-24.386 12.764,-62.69 15.919,-85.121 3.152,-22.437 12.888,-70.598 21.631,-107.034 8.743,-36.431 17.375,-79.173 19.176,-94.982 1.805,-15.806 5.688,-30.261 5.921,-33.017 1.983,-23.5 2.05,-156.909 -0.867,-165.748 -0.963,-2.927 -9.472,-11.264 -18.905,-18.526 -9.434,-7.261 -19.747,-18.676 -22.92,-25.363 -15.453,-32.562 -0.05,-77.671 37.038,-108.546 12.223,-10.172 24.215,-20.484 26.646,-22.916 8.001,-8.002 26.69,-14.196 29.432,-9.757 1.786,2.883 42.53,3.782 145.977,3.223 60.697,0.479 120.274,-8.714 177.921,10.991 19.877,6.794 47.27,19.835 64.821,30.852 16.72,10.5 44.324,27.407 61.34,37.573 35.143,20.999 80.058,56.093 126.705,99.002 17.557,16.149 44.689,39.672 60.294,52.272 15.606,12.6 49.136,43.083 74.51,67.741 35.455,34.453 50.436,51.959 64.727,75.636 23.834,39.485 25.716,44.689 29.221,80.916 3.067,31.713 9.206,47.309 53.851,136.837 21.837,30.938 17.238,59.488 16.326,95.762 -1.5,59.627 -1.598,60.25 -15.817,99.018 -16.722,45.615 -28.17,68.498 -58.642,117.271 -41.556,66.502 -47.965,74.992 -58.481,77.486 -5.466,1.296 -33.075,3.089 -61.36,3.985 -38.923,1.233 -54.57,0.412 -64.345,-3.364 z m 121.81,-41.146 c 7.221,-4.85 14.129,-12.776 15.347,-17.618 1.22,-4.841 9.785,-19.206 19.031,-31.919 25.081,-34.482 37.62,-55.53 52.927,-88.839 26.365,-57.382 25.996,-71.257 30.28,-124.029 3.866,-47.626 -15.154,-79.498 -35.515,-120.59 -20.733,-41.841 -37.068,-79.483 -38.481,-88.668 -3.244,-21.121 -12.164,-41.081 -35.946,-80.442 -21.837,-36.143 -31.996,-47.783 -34.683,-39.744 -9.865,29.526 -28.005,130.623 -32.93,183.537 -3.629,29.811 -9.742,55.626 2.547,82.786 4.676,10.333 16.141,30.658 25.476,45.167 9.333,14.511 17.934,32.068 19.113,39.016 1.174,6.945 5.952,30.185 10.616,51.644 10.407,47.855 16.813,92.844 13.897,97.563 -7.501,12.137 -15.945,-3.657 -15.945,-29.829 0,-6.151 -5.634,-38.122 -12.522,-71.051 -10.906,-52.144 -14.077,-61.99 -24.568,-76.281 -6.624,-9.026 -17.929,-29.123 -25.117,-44.659 -16.001,-24.035 -11.576,-43.385 -8.866,-70.811 7.23,-73.117 13.907,-111.723 28.742,-166.155 l 14.349,-52.659 -19.924,-20.05 -19.922,-20.049 -28.194,29.512 c -30.401,31.826 -37.082,42 -40.08,61.052 -1.065,6.762 -5.144,31.443 -9.071,54.852 -3.924,23.409 -8.092,51.738 -9.263,62.955 -1.437,13.753 -3.695,20.394 -6.936,20.394 -5.954,0 -4.289,-24.01 5.418,-78.029 3.677,-20.481 7.766,-45.664 9.084,-55.962 2.952,-23.06 14.159,-40.588 47.8,-74.767 29.553,-30.026 30.888,-24.721 -16.196,-64.366 -15.608,-13.14 -50.719,-44.942 -78.03,-70.673 -27.308,-25.729 -60.027,-53.663 -72.707,-62.074 -78.627,-52.147 -119.856,-77.58 -138.48,-85.417 -41.774,-17.584 -55.721,-18.936 -204.845,-19.896 -46.462,-0.299 -135.023,-7.016 -143.119,3.475 l -19.377,18.738 c -25.401,24.563 -27.403,35.603 -29.648,69.339 -1.781,26.763 21.475,36.934 39.83,52.736 21.945,18.892 48.678,40.364 59.406,47.718 34.197,23.438 39.724,32.283 53.228,85.223 8.492,33.279 35.641,97.315 58.598,138.191 8.218,14.631 25.826,46.905 39.132,71.723 18.254,34.035 29.359,50.154 45.218,65.614 20.123,19.617 20.932,20.041 18.942,9.855 -1.143,-5.852 -3.769,-25.802 -5.833,-44.334 -2.062,-18.534 -6.841,-56.04 -10.619,-83.348 -3.777,-27.311 -9.259,-72.168 -12.185,-99.682 -5.526,-52.042 -13.232,-79.425 -28.806,-102.375 -10.914,-16.081 -11.316,-36.722 -1.147,-58.627 13.678,-29.472 24.247,-68.71 24.355,-90.443 0.07,-15.062 1.114,-19.726 3.546,-15.959 8.297,12.834 -2.191,75.938 -17.659,106.258 -11.875,23.274 -12.578,37.17 -2.548,50.458 18.757,24.85 29.19,61.907 34.328,121.936 1.995,23.28 6.755,66.263 10.582,95.525 3.823,29.261 9.34,77.804 12.257,107.873 l 5.542,47.224 c 1.09,12.979 4.669,13.255 13.208,21.222 l 13.451,13.775 2.995,-11.698 c 1.648,-6.435 3.244,-53.462 3.547,-104.504 0.306,-51.042 1.95,-93.427 2.648,-94.9 9.8,-20.664 6.829,139.466 4.413,181.683 l -2.202,38.499 38.286,32.508 c 21.057,17.881 49.615,40.244 63.461,49.697 113.301,77.362 116.514,80.295 153.391,140.025 23.834,38.601 32.829,47.051 66.855,66.007 19.338,10.773 99.39,10.807 119.518,-3.333 z m -64.559,-25.071 c 0,-13.569 8.354,-12.353 9.989,1.456 0.796,6.719 -0.497,9.479 -4.433,9.479 -3.842,0 -5.556,-3.372 -5.556,-10.935 z m -31.27,1.019 c -2.543,-4.48 -4.053,-13.258 -3.358,-19.509 1.595,-14.606 5.319,-20.039 10.813,-7.126 2.443,5.738 4.456,22.875 3.859,27.868 -1.226,11.789 -5.979,8.165 -11.314,-1.233 z m -38.642,-12.133 c -8.932,-11.327 -7.132,-63.072 2.195,-63.072 2.875,0 7.811,29.936 8.718,52.868 0.507,12.771 -4.902,17.828 -10.913,10.204 z m -38.61,-60.925 c -3.791,-9.882 0.132,-32.293 5.668,-32.293 3.915,0 5.601,4.908 6.393,18.62 0.866,15.074 0,18.621 -4.548,18.621 -3.088,0 -6.469,-2.228 -7.513,-4.948 z m -686.347,37.083 c 6.393,-3.424 20.594,-30.861 17.544,-33.909 -0.934,-0.936 -6.405,-2.642 -12.156,-3.791 -9.946,-1.99 -10.669,-1.296 -14.814,14.2 -7.142,26.7 -5.273,31.363 9.426,23.5 z m 32.324,-63.391 c 0,-5.296 -2.654,-6.318 -15.075,-5.801 -20.212,0.84 -20.586,1.245 -6.206,6.684 17.478,6.613 21.281,6.457 21.281,-0.883 z m 8.362,-24.681 c 5.931,-9.592 41.206,-250.682 41.362,-282.675 0.133,-28.157 9.515,-68.063 21.103,-89.804 11.468,-21.52 32.904,-42.87 68.067,-67.797 15.941,-11.303 16.398,-12.117 12.774,-22.871 -2.068,-6.133 -4.173,-11.67 -4.679,-12.302 -0.504,-0.635 -9.444,6.566 -19.866,15.999 -27.178,24.598 -43.605,36.578 -50.151,36.578 -9.917,0 -13.091,-23.796 -13.113,-98.296 -0.02,-69.07 -0.29,-71.842 -7.426,-75.662 -7.233,-3.872 -7.36,-3.435 -5.432,18.494 10.372,117.997 10.704,136.371 2.926,161.455 -4.118,13.284 -9.274,37.595 -11.453,54.02 -2.18,16.425 -7.706,49.144 -12.286,72.707 -4.575,23.565 -9.381,50.825 -10.678,60.577 -6.725,50.565 -13.972,85.241 -24.95,119.42 -6.685,20.815 -13.769,51.938 -15.741,69.161 -5.312,46.364 -6.041,43.731 12.105,43.731 8.661,0 16.511,-1.231 17.438,-2.735 z m 102.252,-472.519 c 11.669,-9.748 23.824,-19.186 27.016,-20.972 5.319,-2.977 5.206,-5.11 -1.349,-25.592 -6.66,-20.831 -8.796,-23.522 -31.466,-39.695 l -24.318,-17.353 2.281,18.997 c 1.255,10.446 2.296,37.745 2.311,60.666 0,22.922 0.994,41.675 2.174,41.675 1.175,0 11.685,-7.976 23.351,-17.726 z m 56.081,644.59 c 0,-6.092 7.2,-8.434 36.503,-11.877 13.71,-1.613 20.246,-1.13 20.246,1.486 0,4.261 -18.328,10.255 -41.676,13.631 -12.106,1.748 -15.073,1.109 -15.073,-3.24 z m 219.011,-22.631 c -15.755,-6.63 -17.833,-15.568 -3.548,-15.277 15.271,0.315 34.581,8.124 34.581,13.987 0,7.411 -15.005,8.035 -31.033,1.29 z m -217.691,-45.859 c -19.449,-20.624 -6.407,-24.002 15.529,-4.022 9.478,8.634 9.937,11.613 2.239,14.569 -3.801,1.457 -9.81,-2.11 -17.768,-10.547 z m 152.962,-11.399 c 6.227,-6.46 41.815,-15.358 45.74,-11.435 6.261,6.261 -2.452,10.509 -26.388,12.864 -15.788,1.553 -21.797,1.11 -19.352,-1.429 z m -86.779,-14.686 c -2.358,-5.697 -3.592,-13.28 -2.737,-16.846 1.186,-4.951 2.942,-3.361 7.409,6.698 3.217,7.253 5.855,14.835 5.855,16.846 0,7.407 -6.359,3.359 -10.527,-6.698 z" fill="#00B894" transform="translate(-59.95483,14.732642) matrix(0.26458333,0,0,0.26458333,-6304.0233,-4281.0558)"/>
</svg>