<?xml version="1.0" ?><svg height="318.43854mm" viewBox="0 0 209.83885 318.43854" width="209.83885mm" xmlns="http://www.w3.org/2000/svg">
    <path d="m 785.47656,85.082031 c -7.2812,0.165337 -15.94188,3.718953 -23.16797,9.472657 -9.63478,7.671602 -15.08771,38.653332 -20.24804,44.914062 -5.16034,6.26073 -22.24128,18.34014 -29.00196,22.42578 -6.76068,4.08564 -8.75467,10.02348 -10.09375,18.95899 -1.33906,8.93549 1.04688,13.34375 1.04688,13.34375 1.42771,1.58518 6.1158,-0.46806 9.67578,-4.25977 3.55997,-3.79171 15.80859,-13.16797 15.80859,-13.16797 l 4.34375,15.01953 -13.68554,37.27149 c 0,0 -11.78935,47.20574 -7.57618,63.10742 4.21319,15.90167 18.48429,35.21194 32.4629,37.29883 13.9786,2.08689 21.91594,-10.31686 25.08398,-17.3418 3.16803,-7.02495 0.54482,-33.36368 0.18555,-45.76758 -0.35927,-12.4039 14.95988,-51.34931 18.42187,-63.37109 3.462,-12.02178 -1.89479,-27.15994 -7.3164,-33.18555 -5.42161,-6.02559 -6.40235,-6.61328 -6.40235,-6.61328 0,0 3.78933,-2.37977 9.79883,-2.11523 6.0095,0.26455 16.59238,-2.11591 21.32812,-7.87696 4.73574,-5.76104 6.17208,-30.95255 4.53907,-41.26953 -1.63302,-10.31699 -10.41924,-22.867233 -18.48633,-25.835936 -2.01677,-0.742176 -4.28973,-1.062925 -6.7168,-1.007813 z m 153.9668,241.876949 -48.02734,1.45313 -1.51758,46.9668 -54.53516,3.34765 0.29297,53.22266 -60.31445,1.18945 -1.27149,47.45117 -100.31054,0.79297 c 0,0 1.7123,10.75023 13.16796,12.55664 11.45566,1.80641 181.31021,4.00079 215.32618,0.83789 32.36849,-3.00969 37.66176,5.13371 37.15039,-36.3125 -0.29191,-23.65711 0.0391,-131.50586 0.0391,-131.50586 z" fill="#FFFFFF" paint-order="markers stroke fill" transform="translate(-511.73349,-40.878149) matrix(0.76730965,0,0,0.76730965,-2.2564408,-21.559705)"/>
    <path d="m 764.66668,483.87186 c -5.13333,-0.48068 -19.83333,-0.94673 -32.66667,-1.03566 -26.51578,-0.18378 -58.52486,1.45718 -60.98532,-0.49458 -3.96653,-3.14644 1.34835,-5.65774 30.73662,-4.95694 29.90965,0.71322 30.80693,-1.34008 27.58204,-3.63866 -1.83334,-1.30672 -6.33014,-5.19344 -9.99291,-8.63713 -10.10044,-8.69632 -6.20039,-7.61697 -1.77417,-20.68508 2.68697,-7.93309 7.93961,-23.22263 11.67252,-33.97675 8.60348,-24.78567 9.11608,-27.71731 9.60481,-54.93041 l 0.40379,-22.48338 -6.43842,-2.44397 c -19.67131,-8.91354 -25.43292,-33.88813 -25.24009,-49.86811 0.12893,-8.03668 0.93819,-18.34206 1.79837,-22.90085 1.53756,-8.14876 1.49736,-8.38607 -2.3808,-14.05452 -9.73642,-14.23111 -10.40665,-19.03342 -3.98644,-28.56336 3.89875,-5.78718 8.39932,-9.99539 21.98155,-20.55367 4.13152,-3.21168 4.25171,-3.56608 2.8864,-8.51083 l -1.42464,-5.15961 -6.88832,6.69139 c -11.2742,10.95188 -14.7388,11.94266 -17.62303,5.03976 -3.96757,-9.49575 -1.43408,-21.06211 6.5418,-29.8659 1.57276,-1.73601 7.9724,-6.60926 14.22143,-10.82942 16.51936,-11.15608 17.11395,-12.37602 4.4508,-9.13203 -11.93707,3.058 -17.03189,5.4014 -22.14599,10.18619 -3.21008,3.00338 -3.66666,3.12462 -3.66666,0.97364 0,-3.80115 6.25904,-11.11316 12.03526,-14.05996 2.86776,-1.46303 8.8864,-3.51674 13.37474,-4.56379 14.48218,-3.37847 19.73502,-8.71309 24.37213,-24.75156 1.16613,-4.03333 4.0922,-10.60727 6.50239,-14.608748 7.7203,-12.817563 22.50664,-17.855364 37.19561,-12.672792 10.86878,3.834725 17.42047,12.966417 19.256,26.83886 l 0.91174,6.89065 4.33989,-0.70427 c 7.53156,-1.2222 7.33861,2.84653 -0.32109,6.77116 -4.2007,2.15232 -4.33334,2.47939 -4.33334,10.68507 0,20.55747 -11.86076,33.22958 -28.94406,30.924 l -6.38927,-0.8623 5.06581,4.21797 c 12.13171,10.10129 13.91838,24.04016 5.81568,45.37156 -5.65098,14.87697 -5.88182,18.16155 -2.0992,29.87004 2.01902,6.24956 3.42186,8.61213 5.11366,8.61213 3.32132,0 13.97776,-10.93924 21.37356,-21.9408 l 6.31413,-9.39253 -2.45147,-4 C 813.4379,208.46322 816.19711,192 822.59964,192 c 1.34662,0 2.79376,-0.9 3.21588,-2 1.68964,-4.40314 9.67006,-1.35837 17.41079,6.64275 4.94405,5.11037 7.06987,15.6892 4.07212,20.26435 -2.56604,3.91626 -6.71605,6.10694 -13.29841,7.01988 -4.79463,0.66497 -5.91543,1.61508 -11.09632,9.40636 -8.80652,13.24368 -13.08198,18.20254 -19.50264,22.62009 -10.64119,7.32132 -19.31064,4.32499 -21.51715,-7.43675 -1.36267,-7.26365 -2.82012,-6.45322 -4.48111,2.49176 -2.96185,15.95071 -3.21772,28.01063 -0.84766,39.95449 2.24382,10.98358 1.3728,16.99534 -4.3243,26.10554 -1.12684,1.76356 -1.45105,3.50631 -0.76238,4.09807 0.65901,0.56629 6.38606,5.01952 12.72677,9.89608 12.57239,9.66925 25.21729,22.98547 28.63353,30.15367 4.58698,9.62472 0.41835,27.2664 -11.48806,48.61752 -3.67072,6.58252 -6.67404,12.46276 -6.67404,13.06721 0,0.60444 4.81485,1.09899 10.69966,1.09899 10.18614,0 10.7605,0.15998 11.967,3.33333 1.08608,2.85663 2.10411,3.33334 7.11835,3.33334 h 5.85101 l 0.9198,-23.66667 c 0.50588,-13.01667 0.91612,-25.26335 0.91163,-27.21484 -0.005,-2.1112 0.91131,-3.90734 2.26219,-4.435 1.24869,-0.48775 13.52036,-1.23282 27.27036,-1.6557 l 25,-0.76886 0.20736,-19.4628 c 0.114,-10.70455 0.10213,-20.74403 -0.0265,-22.30998 -0.12866,-1.56594 0.68871,-3.2012 1.81631,-3.6339 3.49789,-1.34227 36.87144,-3.71695 46.00284,-3.27331 7.63743,0.37105 8.66667,0.73775 8.66667,3.08772 0,2.53035 -1.28649,2.72764 -25.16644,3.85949 l -25.16643,1.19283 0.90243,9.95867 c 1.20777,13.32824 -0.41056,34.63953 -2.81287,37.04185 -1.50289,1.50288 -5.54364,1.70517 -20.85291,1.04396 -10.44385,-0.45108 -21.79356,-0.39955 -25.2216,0.11453 l -6.23277,0.93467 0.80999,24.35413 c 1.10718,33.29025 4.32242,30.83002 -39.46119,30.19489 -20.67895,-0.29998 -23.11393,-0.1076 -22.39373,1.7692 0.62105,1.61845 1.35957,33.74329 0.99209,43.15556 -0.11293,2.89136 -4.54104,3.81041 -14.06324,2.91876 z m 4.99344,-29.53852 c 0.7585,-22.55673 1.4085,-25.55458 5.31904,-24.53196 4.19328,1.09658 6.35419,-0.47288 6.35419,-4.61499 0,-2.33392 3.44297,-9.79414 8.70285,-18.85734 8.85654,-15.26051 13.96382,-28.51148 13.96382,-36.2295 0,-6.3643 -9.22352,-16.58634 -30,-33.24773 -9.89817,-7.93769 -11.80147,-8.59232 -15.92151,-5.47608 -1.4235,1.07668 -4.12555,1.9576 -6.00456,1.9576 h -3.41638 l 0.004,26.33333 c 0.004,22.0756 -0.40138,27.62683 -2.50613,34.33334 -4.23832,13.50486 -19.42264,55.84319 -21.02192,58.61529 -1.30547,2.2628 -0.74399,3.29402 4.16597,7.65122 3.12114,2.76976 9.16668,6.30914 13.43456,7.86529 4.26788,1.55615 8.07972,3.66309 8.47075,4.68211 0.50435,1.31429 3.19003,1.85276 9.241,1.85276 h 8.53003 l 0.68375,-20.33334 z M 753.094,324.17614 c 1.3452,-0.85293 0.79461,-2.0824 -2.33333,-5.21035 -4.59136,-4.59137 -4.94542,-5.93265 -2.17327,-8.23332 1.51672,-1.25877 3.23507,-1.01266 8.16949,1.17007 3.43683,1.52028 6.4571,2.76413 6.71171,2.76413 0.25461,0 1.42827,-1.86674 2.60812,-4.14833 1.59205,-3.07869 1.95307,-6.25885 1.40011,-12.33333 -2.43576,-26.75766 -2.38648,-33.44683 0.33734,-45.79166 1.48943,-6.75032 5.19633,-18.15032 8.23754,-25.33333 7.11647,-16.80831 11.96391,-30.78972 11.88979,-34.29355 -0.0875,-4.13256 -3.3709,-12.59267 -6.02606,-15.52659 -2.28228,-2.52189 -2.39864,-2.44812 -4.87204,3.08827 -3.0879,6.91188 -8.69128,13.00519 -11.95951,13.00519 -3.11988,0 -3.13129,0.074 1.68139,-10.89132 2.25423,-5.13606 3.77306,-10.18662 3.37518,-11.22348 -1.60348,-4.1786 -13.53794,-0.87028 -19.41046,5.38073 l -2.92704,3.11568 7.0544,-0.1908 c 5.66063,-0.15312 7.14563,0.25635 7.51612,2.07243 0.31633,1.55052 -1.34932,3.1842 -5.2892,5.18768 -13.24085,6.73314 -21.19291,13.25152 -23.98968,19.66454 -3.51675,8.06394 -13.09676,35.8294 -13.08723,37.93031 0.004,0.89149 3.9461,6.55909 8.76012,12.59467 6.888,8.63583 9.7981,11.25637 13.65931,12.30028 7.53051,2.03589 11.12475,5.0978 10.79399,9.19528 -0.15676,1.94187 0.17144,5.18845 0.72933,7.21465 1.15496,4.19471 -0.93359,7.64935 -4.62452,7.64935 -1.29135,0 -2.66171,1.2 -3.04525,2.66667 -0.41723,1.59546 -1.81868,2.66666 -3.48884,2.66666 -1.53532,0 -2.7915,0.63986 -2.7915,1.4219 0,0.78204 -1.63061,1.23204 -3.6236,1 -6.91112,-0.80467 -13.94536,-16.10088 -11.32724,-24.63151 1.1707,-3.81447 0.79042,-5.04653 -3.50864,-11.3676 l -4.82164,-7.08945 -1.08789,8.66666 c -1.57417,12.5405 -0.33725,26.68547 2.9916,34.21091 5.53755,12.51851 10.48517,18.82397 16.46779,20.98723 9.50614,3.43732 15.09597,4.15496 18.00361,2.31133 z M 721.74376,221 c 3.3016,-7.88333 5.69031,-14.33333 5.30823,-14.33333 -0.3821,0 -3.61572,2.14423 -7.18587,4.76495 -7.14475,5.24473 -11.86611,11.06056 -11.86611,14.61684 0,3.25389 5.45898,11.70549 6.70615,10.38248 0.56907,-0.60368 3.73599,-7.5476 7.0376,-15.43094 z m -5.80448,-37.51453 c 10.00041,-10.24003 18.99779,-15.74841 21.55176,-13.19444 0.9812,0.9812 0.74416,2.67579 -0.78904,5.64068 -1.20539,2.33095 -2.00644,6.14989 -1.78013,8.48653 0.40957,4.2288 0.43918,4.20722 6.41148,-4.6761 6.82993,-10.15899 12.09949,-13.69592 22.46366,-15.07763 l 7.13035,-0.95059 -0.8318,-4.19029 c -1.91304,-9.63717 -2.36393,-32.47484 -0.79078,-40.05268 1.82628,-8.79709 8.31329,-17.10471 18.37137,-23.527339 l 5.67612,-3.624516 -3.29588,-2.159547 C 785.33274,87.064495 781.60747,87.48547 773.7274,92.004804 765.31081,96.831842 761.28809,103.18042 757.25576,118 c -1.59628,5.86667 -3.67156,12.16667 -4.61172,14 -3.58283,6.98656 -13.71524,16.74868 -24.63393,23.73368 -13.98707,8.94792 -16.89015,11.54275 -20.25375,18.10312 -2.97309,5.79874 -4.92763,19.49654 -2.78196,19.49654 0.74111,0 5.67531,-4.43154 10.96488,-9.84787 z m 86.7274,-36.50593 c 0,-0.70615 -2.7,-2.31506 -6,-3.57534 -8.93972,-3.4141 -8.08313,-6.42182 1.66667,-5.85216 l 7.66667,0.44796 -0.009,-14.66666 c -0.009,-16.34214 -2.71965,-24.960962 -8.08905,-25.728559 -4.77965,-0.683286 -15.51236,7.916149 -19.56715,15.677899 -3.19208,6.11119 -3.6678,8.544 -3.6678,18.75904 0,8.70384 0.67692,13.3164 2.61928,17.84774 L 779.90526,156 h 7.2397 c 6.45357,-0.43797 13.49962,-2.40991 15.52172,-9.02046 z m -3.75688,-28.68659 c -2.56601,-3.09187 -2.52214,-8.12553 0.0756,-8.66657 3.4951,-0.72795 6.16218,5.79754 3.46992,8.48979 -1.70804,1.70804 -2.2521,1.73517 -3.54546,0.17678 z" fill="#00B894" transform="translate(-511.73349,-40.878149) matrix(0.76730965,0,0,0.76730965,-2.2564408,-21.559705)"/>
</svg>