<?xml version="1.0" ?><svg height="381.30536mm" viewBox="0 0 468.87204 381.30536" width="468.87204mm" xmlns="http://www.w3.org/2000/svg">
    <path d="m 18652.688,6505.123 c -64.596,-0.9422 -119.576,72.0577 -123.856,119.8125 -6.231,22.9082 -21.776,78.3331 -28.828,86.8555 -8.851,10.6972 -64.108,77.3826 -71.822,124.6094 -6.474,39.6362 2.435,28.4634 11.394,38.2402 -3.987,9.8479 -7.75,20.7892 -11.258,33.0235 -28.572,99.6526 -22.175,247.0703 -22.175,247.0703 0,0 -71.291,32.3646 -97.426,52.4726 -26.135,20.1079 -104.121,107.3006 -103.815,190.2227 0.306,82.922 53.531,116.2205 94.219,180.7871 40.689,64.5667 16.501,103.3994 -2.869,128.1191 -19.371,24.72 -56.867,41.7305 -56.867,41.7305 0,0 -30.65,-110.0846 -133.459,-155.1836 -77.046,-33.7977 -188.073,-41.1394 -216.053,-32.0078 -27.98,9.1315 -111.919,46.581 -104.848,153.7617 7.072,107.1807 84.352,123.3223 84.352,123.3223 0,0 17.365,38.6021 56.518,45.4277 39.151,6.8256 73.076,-28.3496 73.076,-28.3496 0,0 20.858,-1.8774 94.316,-3.1933 73.456,-1.3159 139.996,-40.3711 139.996,-40.3711 0,0 86.815,-19.3013 118.51,-81.4981 31.695,-62.1968 6.296,-149.0489 -53.764,-231.5098 -60.059,-82.4608 -33.028,-131.7547 -12.006,-182.9433 21.024,-51.1886 116.409,-113.7539 116.409,-113.7539 0,0 4.37,43.8439 19.136,95.709 2.136,10.5655 4.762,20.8484 8.02,30.2402 18.715,53.941 44.131,102.4188 46.281,158.4082 2.149,55.9893 -4.679,95.0233 -15.301,123.3594 -10.621,28.3361 -37.789,77.9062 -37.789,77.9062 0,0 69.926,38.3493 124.299,50.4121 54.373,12.0627 74.605,0.683 84.721,-33.9121 10.116,-34.595 29.335,-134.0552 30.347,-190.9551 1.012,-56.8998 -14.035,-264.0157 -17.07,-287.5722 -0.301,-2.34 -1.646,-12.3004 -2.187,-16.4004 0.789,-18.4443 1.765,-36.0374 2.468,-50.1504 41.377,5.1639 99.323,21.7754 99.323,21.7754 l 147.451,178.4922 347.615,469.0019 c 0,0 -32.354,42.0809 -35.225,53.9239 -2.87,11.843 -10.766,29.1403 28.235,35.0976 38.999,5.9574 102.482,7.8965 102.482,7.8965 0,0 40.995,-93.166 44.106,-105.7266 3.111,-12.5609 -23.369,-29.3574 -36.768,-32.8027 -13.399,-3.4452 -49.207,-3.875 -49.207,-3.875 l -18.504,8.6133 -265.379,-339.1836 -250.814,-314.5527 c -37.559,-12.0725 -74.339,-16.2664 -110.217,-19.9688 -3.489,-68.8838 20.325,-142.5882 20.25,-201.584 -0.301,-7.6921 -1.309,-16.1936 -3.326,-25.0371 2.275,-2.9951 3.289,-6.5658 2.789,-10.7969 -6.255,-52.9678 -39.313,-96.2597 -39.313,-96.2597 l 12.264,-35.2754 c 37.637,-2.3794 73.126,-19.1852 92.047,-64.6289 25.101,-60.2898 17.193,-113.3302 -6.854,-139.5274 -24.046,-26.1971 -25.813,-28.3707 -50.533,-35.7148 -7.785,-2.3129 -15.504,-3.446 -23.091,-3.5567 z" fill="#FFFFFF" paint-order="markers stroke fill" transform="translate(224.86824,11.655355) translate(-2527.9811,-470.99361) matrix(0.26458333,0,0,0.26458333,-2398.7881,-1260.5215)"/>
    <path d="m 2695.8569,839.16101 c -11.3255,-1.7018 -15.2047,-3.18581 -16.3752,-6.264 -1.2512,-3.29059 0.061,-7.04047 5.1257,-14.66036 l 4.3501,-6.54346 -2.1305,-3.05449 c -1.1719,-1.68018 -5.1725,-6.66716 -8.8902,-11.08233 -7.0537,-8.37657 -22.2035,-29.03069 -32.0186,-43.65222 -11.0532,-16.46522 -25.5223,-36.06502 -43.672,-59.15661 -20.0227,-25.47502 -25.0934,-31.28305 -27.3106,-31.28305 -0.8217,0 -1.7313,-1.1306 -2.0754,-2.57959 -0.7783,-3.27523 -3.0078,-5.86306 -5.0517,-5.86306 -2.3202,0 -4.6901,-3.04503 -4.6901,-6.02669 0,-3.62445 -2.8139,-8.04306 -5.1273,-8.05166 -1.0496,0 -4.6524,-0.845 -8.0059,-1.8691 -7.4629,-2.27877 -11.7883,-2.41365 -12.5639,-0.39222 -0.7852,2.04623 -0.5753,12.82797 0.3818,19.62288 2.6608,18.88451 3.8751,42.37717 3.4663,67.07278 -0.3911,23.65062 -0.6283,26.63964 -2.8503,35.91859 -5.0777,21.20431 -6.4722,25.12898 -9.8688,27.7716 -1.7285,1.3447 -3.9286,3.07783 -4.8896,3.8517 -1.3032,1.04991 -2.0922,3.90871 -3.1064,11.25701 -0.7478,5.41753 -1.63,10.52833 -1.9606,11.35748 -0.4256,1.06734 0.1676,1.82034 2.0276,2.57911 2.9533,1.20357 25.3844,4.7999 30.0343,4.81513 3.7827,0.0147 5.3367,2.4037 3.7031,5.69784 -1.5787,3.18397 -5.0185,3.27069 -21.1493,0.53374 -11.2125,-1.90252 -14.1453,-2.74887 -17.3546,-5.00811 -5.5668,-3.55664 -3.8594,-3.39449 -3.8348,-10.17443 0.027,-4.10046 0.2234,-10.36741 0.4691,-13.9264 l 0.4465,-6.47074 -5.0208,-1.41522 -5.0207,-1.41509 -2.4687,3.1955 c -1.3577,1.7577 -4.2748,5.14458 -6.4824,7.52691 -2.8248,3.46797 -5.7779,4.03981 -0.4846,4.9145 1.9415,0.32086 5.0189,0.58803 6.8388,0.5938 5.9705,0.0197 9.6189,4.5713 6.0422,7.53956 -1.0561,0.87632 -3.7301,1.0354 -10.0846,0.5997 -13.5054,-0.92596 -17.5593,-2.67456 -17.5593,-7.57457 0,-0.79464 3.1949,-4.93822 7.0999,-9.20782 8.1819,-8.94654 9.4805,-10.88174 7.7155,-11.49703 -9.0903,-3.16885 -12.8328,-4.99594 -15.8882,-7.75661 -5.1147,-4.62067 -5.2956,-6.39089 -1.4273,-13.97246 5.4029,-10.58962 9.2867,-23.9775 9.7577,-33.63613 0.577,-11.83558 -4.7798,-41.84995 -8.2058,-45.97828 -1.3812,-1.66422 -6.1593,-19.96955 -7.4548,-28.55974 -0.5806,-3.8479 -1.22,-7.16121 -1.4217,-7.36266 -0.7844,-0.78432 -11.5442,7.0697 -16.4416,12.00165 -8.2311,8.28935 -15.0062,21.34237 -17.0243,32.79911 -1.5577,8.84262 0.1142,14.56368 7.2344,24.77226 8.9242,12.79309 12.6537,19.7117 16.1857,30.02752 4.0457,11.8169 4.6514,18.14539 2.555,26.69971 -2.1803,8.89827 -6.9359,16.6507 -12.9781,21.15665 -5.36,3.99752 -13.7535,8.08323 -16.606,8.08323 -0.9998,0 -3.258,1.44004 -5.0179,3.19994 -4.1217,4.12183 -7.093,5.57721 -15.1553,7.42371 -11.1172,2.54594 -19.5542,3.4477 -32.2611,3.4477 h -12.2022 l -2.4866,3.26 c -2.9372,3.85072 -10.415,7.74113 -16.4608,8.56378 -6.631,0.90224 -13.6053,-2.7555 -18.5214,-9.71318 -1.1845,-1.67686 -2.8675,-3.04871 -3.7395,-3.04871 -0.8721,0 -4.2722,-1.75536 -7.5556,-3.90085 -10.2954,-6.72723 -15.0902,-17.1579 -15.2775,-33.23752 -0.2606,-22.25998 9.3762,-35.67673 30.644,-42.66817 9.5641,-3.14417 25.5666,-3.01592 38.0614,0.30488 29.0555,7.72246 44.1212,19.6305 53.4052,42.21281 1.2198,2.96666 2.5106,5.39406 2.8687,5.39406 4.425,0 14.7546,-9.37831 17.5649,-15.94733 4.3562,-10.18291 0.027,-21.73447 -13.8399,-36.8992 -9.5883,-10.48828 -13.4877,-17.51805 -15.1317,-27.27914 -1.4941,-8.87542 -0.5947,-17.37323 2.8335,-26.76715 7.4608,-20.44344 22.5089,-36.54702 43.0405,-46.05985 l 6.2823,-2.91052 v -11.18871 -11.18871 l -4.32,-1.43487 c -5.8858,-1.95484 -12.7256,-6.42774 -13.4842,-8.81768 -1.5278,-4.81342 3.2569,-11.06697 17.5089,-22.88498 4.5069,-3.7371 5.5689,-5.23094 6.8506,-9.64021 1.1822,-4.06692 1.2708,-5.5142 0.4007,-6.56237 -1.5517,-1.86948 -0.5738,-8.93169 2.4759,-17.88437 3.254,-9.55201 7.2303,-16.53032 12.7747,-22.41929 5.9438,-6.3129 8.8632,-13.0771 9.6379,-22.33 1.4087,-16.8298 7.4066,-25.08636 24.4695,-33.68355 9.8056,-4.94079 19.0542,-4.01312 28.1134,2.81951 11.7258,8.84397 14.2664,28.11198 5.9053,44.78503 -1.0425,2.0794 -2.762,4.72619 -3.8209,5.88198 -1.5958,1.74172 -1.8858,2.4054 -1.8858,2.4054 1.0459,2.78485 1.725,4.62278 0.7916,5.90091 -1.1486,1.57073 -3.3014,0.0396 -5.4806,-1.38839 0,0 -0.6375,0.16332 -2.4138,1.40793 -1.0963,0.76798 -4.107,2.02387 -6.6904,2.79112 -3.1495,0.93528 -4.6971,1.89931 -4.6971,2.92625 0,0.8423 -0.6823,2.28564 -1.5165,3.2073 -1.4021,1.54947 -1.3695,1.90878 0.4354,4.76427 4.4891,7.10299 7.579,13.87014 7.4735,16.36817 -0.062,1.46731 0.4251,5.83371 1.0822,9.70323 0.6634,3.9076 0.9869,10.39676 0.7273,14.59549 -0.747,12.0896 -0.781,12.02916 21.3476,37.87258 8.2238,10.12955 12.5123,15.4048 14.9597,16.91344 0.9114,0.75387 2.5617,1.82513 3.6676,2.38085 1.6174,0.8127 2.0106,1.85388 2.0106,5.32209 0,4.10488 0.087,4.24921 1.8505,3.01284 4.2417,-2.97661 7.1611,-0.39775 4.7745,4.21752 -1.3229,2.55811 -1.3098,2.57911 1.4029,2.181 3.7045,-0.5438 4.4317,1.69283 1.9298,5.9332 l -1.963,3.32719 18.5783,23.65075 c 10.2178,13.00782 34.3191,43.91326 53.5583,68.67852 19.239,24.76538 35.5647,45.64183 36.2798,46.39237 1.133,1.18932 1.4721,1.12913 2.6424,-0.469 1.0977,-1.49911 2.4255,-1.82168 7.2792,-1.76874 5.876,0.0639 8.215,0.8439 16.2559,5.42023 4.3038,2.44927 4.7979,4.10598 3.3306,11.16954 -1.0893,5.24322 -10.6478,25.96723 -12.528,27.16257 -1.7311,1.10062 -12.3239,0.69956 -22.6974,-0.85925 z m 1.1663,-6.92033 c -2.8095,-1.63607 -11.9704,-4.40644 -12.3802,-3.74374 -1.1957,1.93482 4.7817,4.51393 10.7448,4.63603 2.6703,0.0553 2.9756,-0.113 1.6354,-0.89229 z m 23.0838,-9.06778 c 5.6278,-11.26609 6.8167,-15.09066 5.1694,-16.63031 -2.2262,-2.08076 -15.9816,-5.67107 -20.2436,-5.28388 -1.3781,0.12603 -0.6415,2.39976 1.9094,5.89918 1.0166,1.39409 1.5723,3.18715 1.2494,4.0292 -1.2525,3.26406 -11.9741,5.63901 -14.4192,3.19404 -0.7781,-0.77818 -1.7959,0.1393 -3.9028,3.51784 l -2.8502,4.57044 4.0713,0.60952 c 2.2388,0.33547 6.1267,1.54628 8.6399,2.69089 4.0969,1.86628 13.7955,5.3055 15.5821,5.52575 0.3818,0.0479 2.5391,-3.608 4.7943,-8.12267 z m -369.5083,-1.27457 c 2.0395,-0.56616 5.1001,-2.42126 6.8012,-4.1222 2.8142,-2.81422 3.0928,-3.6021 3.0928,-8.74816 0,-6.03577 -1.0934,-7.99565 -5.366,-9.62018 -12.5413,-4.76808 -26.1555,9.85394 -17.5958,18.89839 4.3889,4.63714 6.8587,5.31618 13.0678,3.59215 z m -6.2881,-5.60166 c -3.4686,-2.02032 -0.8111,-8.25177 4.1974,-9.84154 4.6045,-1.46128 6.1993,5.61383 2.0081,8.91055 -2.756,2.16809 -3.8101,2.32618 -6.2055,0.93099 z m 43.3521,-3.24342 c 17.9715,-2.04402 16.5579,-1.31424 17.2644,-8.91497 1.1193,-12.04428 4.2963,-22.42605 7.9947,-26.12434 1.9371,-1.93728 1.8055,-4.71514 -0.2314,-4.88121 -5.9594,-0.4862 -12.5343,-0.71541 -37.423,-1.30479 l -28.8459,-0.68286 v 8.48111 c 0,11.29164 0.6705,12.88485 5.7077,13.56046 8.4744,1.30327 15.3385,12.38531 15.8676,20.2189 5e-4,2.00742 0.2984,2.14611 3.5184,1.63879 1.9347,-0.30513 9.2011,-1.20099 16.1475,-1.99109 z m 311.8699,-2.87932 c 2.2429,-0.86073 1.8651,-1.91775 -2.816,-7.87638 -4.0975,-5.21509 -4.4284,-5.42834 -7.0222,-4.524 -3.0873,1.07606 -2.7921,2.42421 1.3858,6.33217 1.3374,1.25099 2.4315,3.01409 2.4315,3.91805 0,1.40944 1.0576,2.11564 3.9101,2.6108 0.3449,0.0589 1.2945,-0.14667 2.1108,-0.46064 z m -371.3874,-3.83599 c 2.2685,-5.42919 5.5571,-9.14443 9.7794,-11.04855 2.7265,-1.22936 3.7224,-2.17325 3.3416,-3.16603 -0.2987,-0.77805 -0.7934,-7.3548 -1.0996,-14.61478 -0.615,-14.58812 0.4978,-24.58984 3.4889,-31.35122 1.0179,-2.30125 1.6534,-4.38114 1.4124,-4.62214 -0.6583,-0.6583 -12.7142,1.7142 -16.4702,3.24095 -6.1047,2.48158 -13.3451,11.29656 -16.407,19.97483 -1.7715,5.02099 -1.5377,5.21066 7.343,5.96145 3.7005,0.31274 8.1624,1.06881 9.9161,1.68018 2.8253,0.98491 3.0088,1.24226 1.6131,2.26292 -1.5707,1.14853 -1.8226,1.12237 -17.7088,-1.84478 -2.048,-0.38252 -2.5799,-0.12898 -2.5799,1.23047 0,1.48707 1.1166,1.79147 8.4919,2.315 8.4513,0.59982 12.1459,1.67478 12.1459,3.53393 0,0.92657 -15.0259,0.37945 -18.917,-0.68888 -0.8594,-0.23584 -1.8048,-0.0369 -2.1005,0.441 -1.144,1.85092 2.1363,2.78805 10.8567,3.10153 9.314,0.33498 10.8637,0.77547 9.6475,2.74309 -0.5146,0.8331 -3.2813,0.97657 -10.4128,0.54038 -8.2454,-0.50451 -9.7117,-0.38314 -9.7117,0.80397 0,1.15013 1.7479,1.39826 9.85,1.39826 8.0737,0 9.8499,0.25047 9.8499,1.38905 0,1.98003 -3.7716,2.66878 -11.7947,2.15385 -4.7218,-0.30292 -6.9573,-0.11424 -6.937,0.58483 0.091,3.12463 5.5338,11.65229 9.1891,14.39834 2.233,1.67735 4.4435,3.0497 4.9126,3.0497 0.4687,0 1.5044,-1.56029 2.3011,-3.46735 z m 89.1313,1.17003 c 1.7894,-0.74759 3.2533,-1.61384 3.2533,-1.92487 0,-0.31102 -0.9498,-2.22287 -2.1105,-4.24848 0,0 -2.3768,-3.17938 0.168,-7.99601 2.1712,-4.10967 2.2121,-4.49502 0.8712,-8.17291 -0.7741,-2.12314 -1.8622,-4.01177 -2.4181,-4.19701 -1.8937,-0.63127 -4.827,10.0237 -6.3246,22.97366 -0.5244,4.53605 -0.4165,4.92483 1.3691,4.92483 1.0663,0 3.4026,-0.61161 5.1916,-1.35921 z m 9.3203,-7.18 c -0.3444,-1.08478 -0.6261,-3.40667 -0.6261,-5.15932 0,-3.5456 -1.1149,-4.13535 -2.5935,-1.37247 -1.3912,2.59974 -1.2014,4.81906 0.5814,6.78901 2.0821,2.30088 3.4091,2.17178 2.6382,-0.25722 z m 6.6665,-1.54506 c -1.0529,-4.50399 -2.6044,-7.73253 -3.4615,-7.20298 -2.1675,1.33967 0.027,9.7827 2.5326,9.7827 1.1921,0 1.3983,-0.57243 0.9289,-2.57972 z m 7.2623,-0.36163 c 1.1273,-0.58595 2.1859,-1.17974 2.3529,-1.31978 0.1675,-0.13942 -0.9679,-2.01 -2.5221,-4.15524 -1.554,-2.14524 -2.9771,-4.35572 -3.1627,-4.91217 -0.2392,-0.71737 -0.9059,-0.70742 -2.2918,0.0344 l -1.9547,1.04609 1.9997,5.16975 c 2.1445,5.54479 2.4436,5.76676 5.5787,4.13682 z m 7.5344,-5.34309 c 1.4648,-1.61876 1.3391,-1.95104 -2.1783,-5.76123 -3.317,-3.59302 -3.918,-3.90146 -5.396,-2.76914 -0.9146,0.70104 -1.8159,1.37087 -2.0028,1.48855 -0.5121,0.32294 6.5598,8.75958 7.3425,8.75958 0.3741,0 1.3795,-0.77302 2.2346,-1.71776 z m 238.6269,0.49171 c 2.0192,-1.12212 1.2603,-2.2268 -23.3364,-33.97233 -13.983,-18.04688 -36.413,-47.08261 -49.8448,-64.52377 -22.025,-28.59952 -24.5634,-31.56913 -25.8707,-30.26177 -1.3071,1.30725 -1.1665,1.74946 1.435,4.50693 3.0591,3.24281 25.1912,31.4366 37.0105,47.14721 3.8815,5.15945 12.9061,17.82356 20.0549,28.14245 23.4703,33.87849 35.622,50.107 37.5264,50.11622 0.516,0 1.8773,-0.51716 3.0251,-1.15494 z m -233.1517,-8.62777 c 0.5887,-1.29201 0.8964,-2.48219 0.6834,-2.6447 -0.2128,-0.16252 -1.9432,-1.18612 -3.845,-2.27459 -3.0114,-1.72306 -3.6065,-1.80056 -4.6028,-0.60007 -0.9368,1.12888 -0.574,1.96737 2.0008,4.62363 3.751,3.87014 4.3649,3.96557 5.7636,0.89573 z m 70.2369,-2.17337 c 6.7352,-3.57991 5.9832,-11.71924 7.3415,-18.52718 2.7286,-13.67605 3.2928,-18.94077 4.0645,-37.92564 0.9166,-22.54938 0,-45.88529 -2.3139,-59.09911 -0.588,-3.3536 -1.0921,-11.69001 -1.1203,-18.52508 -0.029,-6.83533 -0.3162,-12.42864 -0.6399,-12.42961 -0.324,0 -1.1143,0.63125 -1.7565,1.40514 -1.3441,1.61962 -4.2969,1.86505 -5.1832,0.43091 -0.3319,-0.53692 -1.3525,-0.7385 -2.2679,-0.44787 -0.9258,0.29383 -2.1989,-0.11546 -2.8674,-0.92043 -1.0705,-1.28979 -1.3479,-1.24077 -2.5307,0.448 -1.6745,2.39055 -4.6147,2.44546 -5.8646,0.10932 -0.9127,-1.70523 -1.2462,-1.72267 -7.3031,-0.383 -7.6042,1.6819 -25.4851,7.49152 -27.0471,8.78771 -1.2002,0.99634 -1.025,4.21224 0.9984,18.31491 0.8769,6.10972 2.7349,12.34031 6.5751,22.04501 6.4839,16.38647 10.0461,31.74529 10.1001,43.54683 0.032,7.06245 -0.4498,9.89977 -2.9479,17.35456 -1.6425,4.90149 -3.9251,10.66173 -5.0726,12.80047 -1.1474,2.1391 -3.1394,5.8719 -4.4261,8.29538 -2.1367,4.52682 -3.6514,3.34474 -0.1477,6.18169 1.2056,0.97633 5.2135,2.67148 8.9064,3.7672 3.6931,1.09535 10.265,3.31987 14.6879,4.68492 7.0853,2.18676 13.9336,2.68048 18.815,0.0859 z m 3.7118,-43.11518 c -0.01,-3.24132 -0.6515,-7.422 -1.432,-9.29049 -1.5922,-3.81019 -1.2346,-4.92213 0.9893,-3.07648 4.1545,3.44793 5.7344,14.70648 2.9929,20.17542 -3.0704,6.12493 -2.5434,-5.04056 -2.5502,-7.80845 z m -70.9384,36.77304 c 0.3134,-0.81613 0.5696,-2.29362 0.5696,-3.28334 0,-2.67332 -6.1007,-2.5463 -7.5477,0.15712 -1.2145,2.26919 -1.2781,2.17669 2.3882,3.46956 3.8346,1.35245 3.9424,1.34434 4.5899,-0.34321 z m -48.5016,-10.74132 c -2.4473,-3.49425 -12.2836,-10.50376 -19.9181,-14.19382 -8.9067,-4.30535 -24.3856,-8.93917 -32.7075,-9.79191 l -5.918,-0.60621 -1.0673,3.06064 c -1.3659,3.91853 -3.2632,19.39122 -2.5923,21.13982 0.4224,1.10062 5.3602,1.37726 28.4538,1.5948 15.3687,0.1452 29.5498,0.362 31.5139,0.483 3.4166,0.21066 3.5131,0.13783 2.2355,-1.68632 z m 49.9963,0.26484 c 0,-0.38694 -0.2605,-1.62528 -0.5621,-2.75182 -0.4786,-1.78471 -0.8386,-1.91615 -2.8015,-1.02202 -3.346,1.52467 -2.9754,4.47733 0.5623,4.47733 1.5477,0 2.8086,-0.31655 2.8013,-0.70349 z m -3.4507,-8.26884 c 2.0007,-0.76775 0.8294,-4.16077 -1.4364,-4.16077 -1.3174,0 -1.6996,0.43705 -1.298,1.48388 0.3132,0.81613 0.5697,1.87144 0.5697,2.34522 0,1.00408 0.2948,1.04929 2.1647,0.33167 z m -1.4624,-7.99087 c 0.1273,-0.73113 -0.1702,-1.95902 -0.6646,-2.7286 -1.3063,-2.03592 -3.2197,0.17026 -2.3968,2.76349 0.6896,2.17239 2.6778,2.14979 3.0614,-0.0356 z m -3.7195,-6.34373 c 1.1738,-0.74488 0.6497,-3.8974 -0.6481,-3.8974 -1.3154,0 -2.7401,2.14304 -2.2589,3.39758 0.5666,1.4759 1.1977,1.58436 2.907,0.49982 z m -2.7423,-6.08502 c 0.7653,-0.92202 0.7144,-1.69087 -0.1941,-2.93313 -1.0209,-1.39593 -1.5805,-1.49629 -3.2792,-0.58716 -1.6728,0.89536 -1.8681,1.4329 -1.0653,2.933 1.1394,2.12903 3.0535,2.37679 4.5386,0.58729 z m -5.0085,-6.27715 c 1.0529,-1.16377 1.3815,-2.23332 0.8488,-2.76373 -1.171,-1.16611 -5.566,2.19511 -4.7008,3.59522 0.9466,1.53179 1.8991,1.32616 3.852,-0.83149 z m -4.6773,-4.3072 c 2.7054,-1.77267 3.2484,-4.70776 0.6702,-3.62421 -0.9026,0.37945 -2.5913,0.89599 -3.7523,1.1478 -2.3785,0.51592 -2.6231,1.22752 -0.9848,2.86569 1.412,1.41202 1.3015,1.42247 4.0669,-0.38928 z m -3.4563,-5.14335 c 3.0773,-1.07286 3.3847,-1.53166 2.2356,-3.33727 -0.4402,-0.69206 -2.2801,-0.90445 -5.0909,-0.58777 -4.3877,0.49479 -4.3965,0.50277 -2.9402,2.7254 1.6752,2.55663 1.8179,2.58611 5.7955,1.19964 z m -0.9811,-8.61574 c -0.2338,-1.57724 -1.1074,-2.00177 -4.742,-2.30296 -4.6109,-0.38191 -5.2688,0.23412 -3.5932,3.3649 0.659,1.23145 1.7784,1.52467 4.7419,1.24202 3.2922,-0.31398 3.836,-0.66272 3.5933,-2.30396 z m -1.7061,-6.53633 c -0.048,-4.29012 -1.1223,-5.39394 -5.2559,-5.39394 -4.2664,0 -5.0576,1.13514 -3.5428,5.08266 0.7142,1.861 8.8188,2.14758 8.7987,0.31128 z m -3.1455,-8.19539 c 1.2054,-0.0147 2.1966,-0.75877 2.4917,-1.88802 0.5901,-2.25604 0.3557,-2.41746 -4.7275,-3.2584 l -3.9868,-0.65976 v 3.47508 c 0,3.14613 0.1996,3.42166 2.1108,2.90955 1.1607,-0.31116 3.0113,-0.57145 4.1118,-0.57845 z m 3.8981,-9.87556 c 0.2206,-1.54727 -0.5142,-2.07118 -4.0683,-2.89566 -4.1424,-0.96109 -4.3779,-0.90447 -5.1956,1.24655 -1.4369,3.77911 -1.0765,4.1179 4.0681,3.82174 4.1069,-0.23634 4.9699,-0.59748 5.1958,-2.17263 z m -0.4659,-9.06239 c -1.9565,-0.86551 -4.0564,-1.60475 -4.6666,-1.64308 -1.394,-0.0872 -2.6357,3.60334 -1.5635,4.64844 1.5159,1.47775 7.3127,1.47099 8.5751,-0.0147 1.035,-1.21388 0.6922,-1.65192 -2.345,-2.99528 z m 6.0942,-4.6418 c 0.1781,-0.93848 -1.0589,-2.31783 -3.2279,-3.59756 -3.3412,-1.9713 -3.579,-1.99194 -4.7361,-0.40942 -1.7259,2.36021 -1.552,2.9405 1.3614,4.54219 3.1738,1.74503 6.2155,1.4985 6.6026,-0.53521 z m 3.0128,-5.80619 c 0,-0.67684 -1.3112,-2.20003 -2.9138,-3.38493 -2.7551,-2.03689 -2.9977,-2.06588 -4.456,-0.53298 -0.8598,0.90395 -1.1272,1.78544 -0.6039,1.99242 0.516,0.20416 1.9933,0.95642 3.2834,1.67183 3.0557,1.69444 4.6903,1.78299 4.6903,0.25354 z m 1.9047,-9.19 -2.922,-3.18151 -1.7576,2.31132 -1.7574,2.31133 3.4386,2.08984 c 2.8266,1.71777 3.6597,1.87266 4.6797,0.87006 1.0262,-1.00862 0.7354,-1.77009 -1.6813,-4.40104 z m 4.5811,-4.49686 c -2.4093,-3.25913 -3.4629,-3.60358 -4.3056,-1.40772 -0.3732,0.97324 0.3769,2.26415 2.1401,3.68243 3.5494,2.85488 4.9051,1.43083 2.1655,-2.27471 z m 6.6098,-1.45391 c 1.2322,-1.48475 0.6394,-4.47499 -1.1879,-5.9918 -0.8111,-0.67315 -1.8394,-0.43877 -3.4696,0.79071 l -2.3166,1.7475 2.2623,2.40787 c 2.614,2.7824 3.1682,2.90561 4.7118,1.04572 z m 6.9343,-7.89148 c -0.9184,-3.85098 -1.2166,-4.01632 -4.1356,-2.29204 l -2.738,1.61753 2.4926,2.60171 c 3.0015,3.13274 5.3422,2.10299 4.381,-1.9272 z m 113.1777,-2.29155 c 0,-1.18121 -6.5518,-10.03083 -7.426,-10.03083 -0.3851,0 -1.2466,1.02189 -1.9151,2.2709 -1.1197,2.09218 -0.895,2.65036 2.8565,7.09918 3.7121,4.40252 4.178,4.68296 5.2781,3.17843 0.6634,-0.90752 1.2065,-2.04058 1.2065,-2.51768 z m -106.5321,1.3226 c 0.2862,-0.46286 0.2633,-2.12117 -0.048,-3.6849 -0.5176,-2.58918 -0.765,-2.75366 -2.7665,-1.84183 -2.0827,0.94892 -2.1252,1.14215 -0.8104,3.68502 1.4076,2.72172 2.6816,3.36883 3.6254,1.84171 z m 5.977,-2.77946 c 1.7521,-1.11107 0.4276,-5.75963 -1.6413,-5.75963 -2.4375,0 -2.7678,0.77437 -1.623,3.80663 1.1232,2.97599 1.3949,3.13863 3.2643,1.953 z m 7.2094,-5.6503 c -0.7875,-3.13827 -0.8849,-3.2137 -3.1986,-2.47924 -1.8224,0.57819 -1.8546,0.78014 -0.5323,3.33652 1.8154,3.51084 4.6629,2.85647 3.7309,-0.85728 z m 78.3365,0.0995 c 0,-0.91711 0.6575,-2.60637 1.4614,-3.75393 1.6544,-2.36242 1.1026,-3.95931 -1.3684,-3.95931 -2.2733,0 -4.6387,7.36255 -2.7502,8.55972 1.917,1.21523 2.6572,0.97939 2.6572,-0.84648 z m -71.7583,-0.21693 c 0.8852,-1.43229 -0.4263,-4.68197 -1.889,-4.68197 -1.9397,0 -2.5469,1.6082 -1.4099,3.73281 1.1059,2.066 2.3818,2.43317 3.2989,0.94916 z m 6.8611,-3.51906 c 0.2446,-1.70868 -0.1516,-2.10102 -2.1105,-2.10102 -2.4858,0 -2.8336,0.62008 -1.8234,3.2525 0.8305,2.16391 3.5757,1.36031 3.9339,-1.15148 z m 58.4602,-1.09044 c 1.4951,-3.56108 1.4833,-3.67482 -0.428,-4.17477 -2.3779,-0.62181 -2.126,-0.96206 -2.8657,3.86755 -0.7974,5.20686 1.1599,5.3894 3.2937,0.30722 z m -6.2655,-1.60635 c 0.5993,-3.19527 -0.2633,-4.96695 -2.4472,-5.01843 -1.0234,-0.0234 -1.3458,8.40004 -0.3352,8.76867 1.5668,0.5717 2.1086,-0.15834 2.7824,-3.75024 z m -46.3967,1.53388 c 0,-1.0424 -0.6255,-1.87623 -1.4072,-1.87623 -0.7818,0 -1.4074,0.83383 -1.4074,1.87623 0,1.04228 0.6256,1.87598 1.4074,1.87598 0.7817,0 1.4072,-0.8337 1.4072,-1.87598 z m 5.6282,-0.93811 c 0,-1.03197 -0.4219,-1.87623 -0.9379,-1.87623 -0.516,0 -0.9381,0.84426 -0.9381,1.87623 0,1.03171 0.4221,1.87598 0.9381,1.87598 0.516,0 0.9379,-0.84427 0.9379,-1.87598 z m 4.6906,-0.93812 c 0,-1.0424 -0.6255,-1.87623 -1.407,-1.87623 -0.7818,0 -1.4072,0.83383 -1.4072,1.87623 0,1.04228 0.6254,1.87623 1.4072,1.87623 0.7815,0 1.407,-0.83395 1.407,-1.87623 z m 30.9566,-2.86962 c 0,-1.18883 -0.6441,-1.82083 -1.856,-1.82083 -1.6331,0 -1.7293,0.27823 -0.8009,2.31575 1.1759,2.58095 2.6569,2.30517 2.6569,-0.49492 z m -60.5061,0.15932 c 3.0956,-0.96157 9.3218,-2.29043 13.8367,-2.95327 4.5142,-0.66296 8.2081,-1.45723 8.2081,-1.76519 0,-0.6089 -5.3634,-2.80672 -15.1605,-6.21228 -3.4367,-1.1946 -7.5313,-2.83547 -9.0996,-3.64645 -1.5681,-0.81086 -3.0833,-1.47431 -3.3667,-1.47431 -0.2836,0 -0.5156,4.0103 -0.5156,8.91178 0,4.90149 0.1068,8.90638 0.234,8.89974 0.1305,0 2.7674,-0.79869 5.8629,-1.76002 z m 42.6781,-1.71039 c -1.022,-1.59395 -1.0485,-1.59186 -0.5354,0.0417 0.2967,0.94512 0.5731,2.21145 0.614,2.81434 0.052,0.79071 0.2022,0.77941 0.5354,-0.0417 0.2526,-0.6255 -0.027,-1.89196 -0.614,-2.81434 z m 36.5895,-0.7035 c 0,-0.23843 -2.3685,-3.08778 -5.2634,-6.33193 -2.895,-3.24428 -6.9896,-8.35852 -9.0987,-11.36535 -4.5261,-6.4517 -4.7853,-6.17482 -5.8174,6.21646 -0.6786,8.14687 -0.6756,8.1621 1.5417,8.18692 1.2219,0.0147 5.1766,0.83235 8.7881,1.81959 6.5739,1.79701 9.8497,2.28738 9.8497,1.47431 z m -26.2661,-4.81709 c 0,-0.30821 1.2983,-10.33413 2.8852,-22.27951 1.9556,-14.72091 2.6932,-23.38149 2.2895,-26.87857 -0.9489,-8.21578 -1.0909,-8.44266 -5.2845,-8.44266 -6.1641,0 -14.1016,-5.2899 -17.4043,-11.59874 -0.7736,-1.47798 -3.0752,-4.49722 -5.1147,-6.70966 -3.2851,-4.51846 -4.4546,-3.84886 -9.5357,-2.66509 -6.1482,1.43241 -10.9937,5.10932 -14.7938,11.22654 -2.3493,3.78181 -4.8653,10.9203 -3.709,10.52329 0.4927,-0.16915 5.1984,-4.31764 10.4571,-9.21912 5.259,-4.90149 10.231,-9.17625 11.0492,-9.49931 1.9115,-0.75509 3.8329,0.7837 3.8329,3.06972 0,2.16403 -12.8181,15.69171 -22.6124,23.86387 -6.7881,5.66369 -7.188,6.2161 -8.2403,11.37923 -0.6082,2.98448 -1.3621,8.6591 -1.6754,12.61007 l -0.5695,7.18356 3.6501,1.85916 c 2.0075,1.02275 5.7607,2.49681 8.3406,3.27621 5.685,1.71728 18.9841,6.88373 21.576,8.38161 1.0317,0.5965 4.6199,1.00912 7.9737,0.91711 4.0734,-0.11179 7.6543,0.42453 10.7877,1.61593 5.2603,2.0003 6.0976,2.19058 6.0976,1.38636 z m -62.4566,-30.29617 0.6831,-6.93544 -3.5876,2.86593 c -6.3,5.03194 -10.1498,9.50853 -9.0894,10.56899 0.532,0.53226 3.0432,1.75794 5.5797,2.72369 l 4.6123,1.75622 0.5593,-2.02192 c 0.3078,-1.11217 0.867,-5.14298 1.2426,-8.95747 z m 65.0923,-35.44296 c 0.3668,-2.57432 -3.168,-10.90322 -5.5367,-13.04688 -0.9843,-0.8907 -1.7894,-2.60932 -1.7894,-3.81928 0,-1.94403 -0.4398,-2.19978 -3.7825,-2.19978 -4.2587,0 -9.2132,-1.79221 -11.0379,-3.9926 -1.836,-2.21392 -0.07,-2.6366 4.4754,-1.07078 4.6608,1.60586 12.357,1.40895 12.9294,-0.33069 0.2235,-0.682 -0.4176,-1.1726 -1.5353,-1.1726 -2.7933,0 -10.5056,-2.75748 -13.3489,-4.77276 -1.5457,-1.09571 -2.9084,-3.39131 -3.6927,-6.22113 -0.6836,-2.46634 -1.8812,-4.96217 -2.6615,-5.54613 -2.4412,-1.82735 -2.5663,-17.33873 -0.1966,-24.26643 1.5955,-4.66329 1.8276,-4.98513 1.3526,-1.87623 -1.2241,8.01114 -1.7087,16.08958 -1.1537,19.23055 l 0.5804,3.28334 0.1215,-4.01643 c 0.2367,-7.70318 6.4145,-22.5941 11.6631,-28.11285 4.2523,-4.47106 4.733,-3.72064 1.0874,1.69664 -3.1276,4.6477 -8.0394,18.29993 -9.2615,25.74219 l -0.6164,3.75234 2.6124,-4.25671 c 6.8653,-11.18748 13.6887,-18.77494 19.6249,-21.82292 4.6952,-2.4107 12.9845,-3.6935 16.8936,-2.61411 1.9314,0.53336 3.7277,0.75336 3.992,0.48889 0.985,-0.9848 -3.0713,-6.94121 -6.7282,-9.88012 -7.7787,-6.2511 -15.1278,-7.07411 -23.9233,-2.67896 -7.9955,3.99543 -14.5728,10.45855 -17.618,17.31205 -2.6378,5.93628 -2.7054,8.18028 -0.8801,29.08044 0.4711,5.39136 0.4359,5.5099 -0.8336,2.81435 -0.7288,-1.54789 -1.6851,-3.76733 -2.1249,-4.93195 -0.7447,-1.97278 -1.1203,-1.69505 -5.4899,4.0647 -2.5798,3.40041 -6.2618,8.36356 -8.1826,11.0294 -3.8819,5.38865 -10.5128,19.93673 -11.4019,25.01596 l -0.5748,3.28309 2.6728,-4.2212 c 5.9113,-9.33606 13.4043,-14.05415 22.3393,-14.06607 4.692,0 7.4336,2.0557 14.4407,10.86159 5.3108,6.67441 10.1431,9.85125 14.4772,9.51823 2.0913,-0.16067 2.8889,-0.74071 3.1049,-2.25715 z m 3.063,-31.75474 c 4.8961,-1.72772 7.5285,-4.37915 7.5285,-4.37915 -2.0394,-4.08619 1.0774,-5.63584 3.7639,-3.73076 0,0 1.1993,-1.45292 2.1599,-2.82416 1.7419,-2.48722 1.9733,-3.67948 0.34,-2.04634 -0.6191,0.6191 -1.7468,0.68204 -2.324,0.34086 -1.8714,-1.10615 -1.4422,-4.19811 0.637,-6.07975 3.8233,-3.8427 3.7486,1.38955 3.7486,1.38955 0,0 4.1136,-4.72488 3.7758,-15.75644 -0.1356,-4.42722 -0.2074,-4.89792 -2.4261,-5.4545 -4.7045,-1.1806 -14.1789,0.23032 -18.4829,2.7528 -6.2618,3.66942 -17.6402,18.05363 -21.3323,26.96688 -1.2187,2.94259 -1.1555,3.14109 1.7828,5.59405 5.5031,4.59414 13.4597,5.82695 20.8288,3.22708 z m 2.2774,-15.44983 c -0.8772,-1.41916 1.6686,-6.03615 3.5252,-6.39385 2.162,-0.41617 3.0774,2.18455 1.7754,5.04262 -1.0499,2.30444 -4.2132,3.11076 -5.3006,1.35123 z m 185.7124,330.15972 c -0.7452,-1.20553 1.2125,-3.71131 2.8991,-3.71131 1.6705,0 2.4151,1.38549 1.7195,3.19871 -0.643,1.67539 -3.691,2.01368 -4.6186,0.5126 z m 13.1679,0.0566 c -0.6918,-1.11955 0.1862,-2.8297 1.4533,-2.8297 1.1413,0 1.1487,2.53906 0,3.24329 -0.4802,0.29679 -1.1384,0.11179 -1.4624,-0.41359 z m -283.3101,-0.95347 c 0.3189,-0.5158 1.002,-0.93799 1.5181,-0.93799 0.5157,0 0.6767,0.42219 0.358,0.93799 -0.3189,0.51604 -1.0018,0.93812 -1.5178,0.93812 -0.5159,0 -0.6771,-0.42208 -0.3583,-0.93812 z m 311.3308,-0.42404 c -0.6603,-1.72034 0.3004,-3.32817 1.9884,-3.32817 1.9308,0 2.6623,1.77108 1.3733,3.32437 -1.4431,1.7389 -2.6953,1.74025 -3.3617,0 z m -298.2533,-0.60399 c -0.9915,-1.60415 2.1366,-4.30179 3.4568,-2.98153 0.5881,0.58815 0.8156,1.73091 0.5052,2.53955 -0.6492,1.69173 -3.0257,1.95694 -3.962,0.44198 z m 19.7608,-0.8396 c -0.6905,-1.11709 1.0811,-3.76068 2.5199,-3.76068 1.2458,0 0.5265,3.99604 -0.7977,4.43187 -0.5976,0.19654 -1.3726,-0.10564 -1.7222,-0.67119 z m 266.4705,0.0909 c -0.2853,-0.462 0.098,-1.07668 0.8528,-1.3662 1.4659,-0.56248 2.7179,0.60718 1.7189,1.6061 -0.8481,0.84795 -1.9635,0.74391 -2.5717,-0.2399 z m -19.1255,-5.30735 c 0.424,-2.03763 2.089,-2.16219 2.4698,-0.18511 0.1967,1.02692 -0.2634,1.64173 -1.2286,1.64173 -0.9011,0 -1.4184,-0.60682 -1.2412,-1.45674 z m -254.1711,-5.28571 c 0.58,-1.73952 2.5993,-2.02806 2.5993,-0.37134 0,0.81687 -0.6685,1.48535 -1.4854,1.48535 -0.8169,0 -1.3181,-0.5013 -1.1139,-1.11401 z m 102.0359,-38.6994 c 0,-0.80422 0.4223,-1.46251 0.9382,-1.46251 0.5157,0 0.9381,0.39726 0.9381,0.88284 0,0.48546 -0.4224,1.1435 -0.9381,1.46239 -0.5159,0.31876 -0.9382,-0.0786 -0.9382,-0.88272 z m 51.7568,-4.8951 c 0.1835,-0.94966 0.9598,-1.72685 1.7268,-1.72685 2.0108,0 1.7203,2.7259 -0.3327,3.12119 -1.2535,0.24137 -1.6357,-0.14078 -1.3941,-1.39434 z m -68.6424,-3.13384 c 0,-1.80277 1.8346,-2.54324 3.119,-1.2591 0.7103,0.71014 -1.0654,3.13508 -2.2955,3.13508 -0.4527,0 -0.8235,-0.84426 -0.8235,-1.87598 z m 35.823,0.8794 c 0.2261,-0.67721 0.9646,-1.41608 1.6418,-1.64162 0.7037,-0.23461 1.0556,0.11671 0.8208,0.82069 -0.2259,0.67721 -0.9643,1.41608 -1.6417,1.64173 -0.7036,0.2345 -1.0553,-0.1167 -0.8209,-0.8208 z m -17.8386,-1.50686 c 0.1807,-0.95433 1.2986,-1.85596 2.5119,-2.02842 1.6916,-0.24077 2.1109,0.0774 1.8574,1.40698 -0.1809,0.95433 -1.2988,1.85596 -2.5122,2.02855 -1.6915,0.24065 -2.1105,-0.0774 -1.8571,-1.40711 z" fill="#00B894" transform="translate(224.86824,11.655355) translate(-2527.9811,-470.99361)"/>
</svg>