<?xml version="1.0" ?><svg height="203.17384mm" viewBox="0 0 231.04228 203.17384" width="231.04228mm" xmlns="http://www.w3.org/2000/svg">
    <path d="m 9970.5879,19897.77 c -2.6157,-0.05 -5.1843,0.03 -7.6406,0.287 -19.6509,2.069 -29.0313,18.086 -29.0313,18.086 0,0 -21.6153,14.547 -30.5879,21.488 -8.9727,6.94 11.6051,10.577 13.459,11.211 1.8538,0.634 -4.0796,4.337 -14.7578,19.853 -10.6782,15.517 -4.1148,16.117 14.4238,17.752 0,0 0.2663,1.519 1.3965,4.549 -3.7254,21.933 -2.9012,45.061 2.4238,64.383 12.7173,46.146 53.0352,58.145 98.8616,43.484 74.914,-37.849 75.934,-93.646 57.129,-140.279 -2.748,-6.814 -6.447,-12.754 -10.643,-18.131 -0.26,-0.752 -1.49,-4.357 -1.49,-4.357 0,0 2.039,-10.678 -3.967,-27.996 -6.007,-17.318 -50.685,-2.903 -50.685,-2.903 0,0 -20.5814,-7.051 -38.8911,-7.427 z m -209.459,204.746 -167.3672,101.203 34.6817,50.418 -116.9043,0.998 -114.0118,98.429 -1.375,286.631 435.5079,2.475 123.205,-120.775 -2.8222,-94.088 c 9.694,1.527 22.9261,-0.199 45.3515,-0.07 82.7975,0.487 135.1505,-8.045 135.1505,-8.045 0,0 6.766,-191.785 3.789,-223.564 -2.976,-31.778 -38.287,-65.263 -76.98,-65.02 -38.693,0.244 -94.4659,16.639 -105.1216,31.17 -27.5704,37.597 -27.3163,84.127 -28.4238,89.321 l -165.1055,1.408 66.6465,-43.022 z" fill="#FFFFFF" transform="translate(74.626883,-97.101538) matrix(0.26458333,0,0,0.26458333,-2539.072,-5165.8857)"/>
    <path d="m 9967.084,19891.621 c -17.5099,0.262 -30.1924,5.883 -30.4785,14.457 -0.1387,4.154 -5.459,9.627 -12.8692,13.238 -25.6377,12.492 -37.8743,29.221 -25.0976,34.315 4.9593,1.975 4.919,3.163 -0.3438,10.285 -8.6321,11.681 -8.121,25.743 1.0254,28.244 6.4826,1.776 7.4707,5.29 6.8359,24.313 -0.4079,12.226 0.9327,27.079 2.9805,33.006 3.274,9.47 2.5053,11.779 -6.373,19.115 -5.5532,4.589 -10.1565,10.146 -10.2305,12.347 -0.17,5.094 9.6485,5.251 19.2305,0.305 6.0175,-3.104 8.5272,-1.978 13.4961,6.065 6.6249,10.719 22.7887,20.772 40.7773,25.365 v 0 c 61.6139,15.731 129.4999,-39.501 131.6289,-107.09 0.661,-21.005 -10.73,-53.843 -22.059,-63.594 -4.606,-3.965 -5.44,-8.898 -3.343,-19.732 2.488,-12.854 1.633,-15.242 -7.737,-21.614 -7.204,-4.898 -16.638,-7.019 -29.839,-6.707 -10.619,0.251 -22.749,0.537 -26.959,0.639 -4.209,0.1 -16.7383,-0.917 -27.8423,-2.258 -4.462,-0.54 -8.7601,-0.765 -12.8008,-0.705 z m 12.6797,14.424 c 7.6087,0.121 15.1784,2.165 20.7873,6.244 7.509,5.46 9.121,5.477 16.99,0.168 16.026,-10.813 44.204,-4.763 33.748,7.244 -4.115,4.729 -3.583,7.784 2.992,17.16 8.06,11.499 6.946,19.776 -2.652,19.676 -2.858,-0.03 -8.53,-5.789 -12.606,-12.799 -4.076,-7.013 -10.844,-15.983 -15.039,-19.941 -7.507,-7.081 -7.864,-6.974 -22.634,6.849 -8.8716,8.304 -17.2637,13.148 -20.5238,11.848 -3.1205,-1.243 -12.2773,3.332 -21.084,10.535 -8.5628,7.004 -19.3892,14.68 -24.0586,17.063 -14.9551,7.622 -27.5049,11.373 -29.8555,8.92 -1.2564,-1.315 6.1584,-9.658 16.4766,-18.539 18.3937,-15.834 18.5544,-16.15 8.2539,-16.424 -14.0827,-0.369 -13.0679,-6.332 2.3789,-13.981 6.9493,-3.44 16.5579,-10.269 21.3535,-15.175 5.8403,-5.978 15.69,-9.004 25.4727,-8.848 z m 35.3043,34.758 7.621,13.109 c 7.226,12.432 31.77,26.859 42.065,24.723 12.074,-2.503 9.084,44.802 -4.346,68.779 -7.514,13.413 -28.668,32.498 -44.596,40.231 -17.9949,8.737 -53.6377,7.555 -69.2163,-2.295 -10.9988,-6.954 -12.1026,-9.213 -9.5059,-19.457 2.4281,-9.573 1.6194,-11.951 -4.6464,-13.664 -9.0585,-2.481 -11.6715,-11.782 -10.8438,-38.624 0.5837,-18.98 1.263,-20.272 13.2109,-25.093 6.9283,-2.796 18.6482,-9.986 26.045,-15.979 8.3953,-6.804 16.8169,-10.42 22.416,-9.627 6.0856,0.859 12.6352,-2.489 20.3805,-10.42 z m -45.4606,60.801 c -6.0411,-0.06 -7.0495,3.477 -3.7148,13.031 2.15,6.157 9.4434,8.123 13.9883,3.769 3.9062,-3.743 -4.0423,-16.74 -10.2735,-16.8 z m -34.8437,7.458 c -2.9292,0.258 -5.5259,3.22 -5.709,8.708 -0.1636,4.904 0.8112,10.075 2.166,11.49 6.9082,7.217 14.4655,-1.295 11.2461,-12.668 -1.5117,-5.338 -4.7739,-7.787 -7.7031,-7.53 z m 93.7303,25.079 c -3.041,0.05 -6.813,3.395 -10.476,10.013 -3.627,6.557 -12.625,15.346 -19.9946,19.539 -7.37,4.192 -13.4526,9.173 -13.5156,11.067 -0.063,1.894 4.9227,3.496 11.0801,3.556 14.9081,0.147 40.3691,-22.348 38.9981,-34.453 -0.741,-6.54 -3.051,-9.775 -6.092,-9.722 z m -306.3358,37.746 c -28.901,-0.285 -55.2929,23.286 -69.9434,62.467 -5.9422,15.89 -11.966,24.588 -21.9043,31.638 -33.5908,23.825 -51.0249,39.527 -51.246,46.151 -0.1313,3.935 4.9446,13.342 11.2812,20.908 6.3364,7.565 10.4354,14.796 9.1074,16.066 -1.328,1.271 -55.3767,0.59 -83.1386,2.053 -20.7788,1.094 -18.7084,-1.621 -34.0411,13.17 l -58.289,51.736 c -56.4506,52.246 -42.3034,28.411 -45.168,71.414 l -1.9551,29.358 -29.2929,2.132 c -16.1528,0.07 -30.4838,3.279 -31.9414,4.672 -5.7162,5.478 9.6507,9.771 36.0703,10.092 l 27.7109,0.334 -2.7012,112.936 c -1.7632,52.841 -1.2717,85.303 1.416,93.517 4.0552,12.395 4.5166,12.61 31.0704,14.205 v 0.02 c 14.825,0.889 279.0167,3.855 384.2519,4.748 25.8799,0.141 37.2452,-5.14 56.5938,-24.949 40.4317,-32.489 80.3998,-72.348 96.3769,-96.114 13.5679,-20.18 12.2414,-21.607 11.457,-59.965 l -1.2246,-41.109 39.7227,0.41 c 40.2659,0.433 166.5689,-5.216 182.4409,-8.158 4.761,-0.883 8.744,-4.151 8.844,-7.264 0.206,-6.163 -1.777,-6.761 -24.601,-7.482 l -15.28,-0.482 1.852,-82.172 c 1.889,-83.94 -1.058,-134.2 -9.096,-155.192 -7.332,-19.143 -26.637,-39.159 -44.672,-46.314 -22.736,-9.021 -76.47,-6.782 -102.3961,4.265 -20.0869,8.561 -25.7611,18.532 -7.9395,13.954 33.7796,-8.678 77.2406,-11.84 82.8066,-6.028 1.395,1.459 -11.886,8.404 -29.512,15.436 -24.254,9.678 -39.5307,13.176 -62.8102,14.394 -52.4038,2.739 -78.0129,-7.013 -164.5351,-62.676 -43.0395,-27.69 -67.0595,-37.956 -89.3145,-38.175 z m 51.4004,41.013 c 0.039,-1.179 18.1406,10.693 40.2246,26.381 72.8082,51.729 101.2505,62.402 160.9844,60.395 34.7644,-1.165 42.9144,-2.94 79.4214,-17.285 22.375,-8.794 42.71,-17.549 45.188,-19.457 7.004,-5.398 18.988,13.718 22.83,36.414 3.491,20.626 0.568,210.596 -3.299,214.324 -1.207,1.163 -32.208,4.45 -68.892,7.299 -81.7779,6.358 -95.7493,6.376 -95.5687,0.125 0.082,-2.63 -0.9931,-19.413 -2.3868,-37.297 -1.3938,-17.887 -3.8675,-52.69 -5.498,-77.344 -1.6304,-24.652 -5.1,-47.909 -7.7109,-51.682 -4.169,-6.028 -13.3843,-7.178 -75.7422,-9.47 l -70.9961,-2.614 18.3222,-13.199 c 27.6907,-19.948 28.1398,-21.716 12.1875,-47.926 -7.6355,-12.546 -21.8151,-32.645 -31.5097,-44.664 -9.6947,-12.02 -17.5947,-22.818 -17.5547,-24 z m -21.8184,5.899 c 3.9301,-1.421 26.5576,32.49 44.25,66.312 12.9063,24.672 13.1457,25.89 6.1094,31.19 -4.0264,3.032 -34.5749,23.004 -67.8848,44.379 -33.31,21.376 -62.6774,40.033 -65.2617,41.466 -2.8165,1.562 -7.1334,-1.68 -10.7754,-8.089 -17.4555,-30.723 -38.5508,-61.992 -48.6152,-72.053 -6.2316,-6.23 -11.2921,-12.5 -11.2441,-13.936 0.048,-1.433 15.9965,-12.332 35.4414,-24.211 32.7895,-20.036 35.6978,-21.108 40.0879,-14.771 5.6979,8.221 17.3278,5.161 17.7793,-4.678 0.2573,-5.61 1.558,-5.111 7.3925,2.821 5.8518,7.957 8.2949,8.882 14.0762,5.33 3.8473,-2.36 6.707,-7.927 6.3535,-12.366 -0.5691,-7.153 0.2054,-7.521 6.8125,-3.242 12.1793,7.887 20.9718,-0.321 21.7149,-20.283 0.3434,-9.204 2.0379,-17.246 3.7636,-17.869 z m 69.2539,148.461 c 38.3877,-0.361 69.3367,0.194 68.7754,1.242 -0.5614,1.043 -20.9875,20.458 -45.3906,43.141 l -44.3691,41.242 -35.5,3.238 -16.2598,0.772 c -36.3192,3.312 -336.7746,2.943 -339.9023,-0.325 -0.9517,-0.992 4.7746,-7.101 12.7246,-13.574 7.9501,-6.476 31.2901,-26.446 51.8672,-44.383 32.6591,-28.468 34.3942,-30.884 62.2402,-30.164 l 82.9043,2.145 5.9043,10.652 c 5.348,9.647 5.3283,10.862 -0.1992,12.904 -3.3565,1.237 -15.4749,2.158 -26.9317,2.045 -15.5735,-0.153 -21.4765,1.335 -23.3847,5.893 -1.4039,3.351 -0.2049,7.766 2.6621,9.81 7.8254,5.58 182.0438,3.679 188.0254,-2.052 9.4825,-9.084 -1.4807,-17.614 -25.5782,-19.899 l -22.4804,-2.131 17.5488,-9.949 c 16.9479,-9.604 19.9315,-9.966 87.3437,-10.607 z m 104.8145,2.338 c 0.6973,-0.206 1.1502,-0.153 1.4102,0.119 1.763,1.841 6.5135,86.143 10.789,191.455 1.5436,38.023 6.1101,57.149 -24.1406,83.824 -14.453,17.126 -37.8912,42.654 -52.086,56.727 -14.1945,14.076 -26.5075,25.574 -27.3613,25.574 -0.8537,0 -0.9223,-21.083 -0.1562,-46.83 0.7678,-25.751 0.099,-54.571 -1.4844,-64.047 -1.5837,-9.478 -3.9272,-43.047 -5.207,-74.598 -1.2796,-31.549 -3.5936,-62.837 -5.1426,-69.531 -2.7268,-11.778 -1.6043,-13.242 35.2031,-45.902 46.437,-41.201 63.2943,-55.352 68.1758,-56.791 z m -20.8008,73.992 c -2.3574,-0.122 -7.1534,2.629 -13.414,7.812 -7.4643,6.177 -22.0284,16.754 -32.3653,23.51 -14.1524,9.248 -18.5715,14.324 -17.8926,20.555 0.7445,6.831 4.876,9.072 23.6914,12.859 12.5337,2.523 23.6429,4.751 24.6875,4.961 1.0446,0.209 4.5208,-1.217 7.7227,-3.168 8.6881,-5.293 1.3394,-10.617 -19.8828,-14.402 l -18.3731,-3.278 17.6661,-11.988 c 18.9363,-12.851 31.8633,-28.431 29.6699,-35.765 -0.2078,-0.695 -0.724,-1.056 -1.5098,-1.096 z m -104.3652,34.365 c 4.9961,0.378 6.1234,1.738 6.0683,4.283 -0.4569,21.238 1.817,87.59 3.9356,114.85 1.3899,17.884 1.7494,56.162 0.7851,85.06 l -1.7539,52.549 -85.0644,-0.369 c -46.7854,-0.201 -116.041,-0.186 -153.9024,0.03 h 0.012 c -37.8615,0.218 -91.2394,1.347 -118.6172,2.504 l -49.7774,2.107 17.625,-17.35 c 16.3813,-16.128 16.9804,-17.359 8.4766,-17.439 -5.0326,-0.05 -13.042,3.414 -17.7988,7.703 l -8.6465,7.789 0.75,-96.746 c 0.4135,-53.214 -1.7342,-107.19 -0.586,-119.881 1.9332,-21.369 -7.2928,-24.037 19.4864,-23.848 l 146.7148,2.141 c 92.1462,0.776 183.5006,-0.02 203.0117,-1.768 15.4195,-1.381 24.2851,-1.985 29.2813,-1.607 z m -106.4571,12.199 c -0.8555,-0.892 -9.0589,2.148 -18.2285,6.754 -27.5013,13.82 -114.9937,13.89 -114.5332,0.09 0.1465,-4.392 -1.6556,-4.61 -9.5195,-1.158 -5.3355,2.344 -9.7382,5.364 -9.7832,6.715 -0.1375,4.123 36.7756,16.51 57.8047,19.398 l 19.8418,2.725 -30.2988,15.431 -30.2969,15.436 -15.1797,-7.606 c -8.3484,-4.182 -18.9368,-7.087 -23.5313,-6.457 -6.9889,0.961 -5.4479,2.95 9.4395,12.153 9.7873,6.055 17.7703,11.791 17.7383,12.754 -0.032,0.96 -15.0742,0.539 -33.4258,-0.938 -29.6217,-2.38 -32.6166,-2.047 -26.6777,2.965 3.6795,3.105 18.1451,7.876 32.1464,10.609 31.0672,6.06 42.3541,11.503 23.8184,11.493 -7.0902,0 -30.8714,2.468 -52.8477,5.496 -21.9763,3.031 -41.5454,4.495 -43.4863,3.25 -1.9407,-1.242 4.1693,-16.592 13.5781,-34.108 l 17.1075,-31.845 28.3593,-3.918 c 30.8588,-4.263 36.5002,-6.243 33.3301,-11.698 -3.267,-5.62 -27.3983,-4.295 -63.043,3.465 -44.1858,9.619 -46.721,9.139 -28.789,-5.437 19.8762,-16.162 12.9012,-21.286 -8.5781,-6.301 -26.8911,18.753 -19.9777,32.032 14.4609,27.773 17.6833,-2.189 17.7437,-3.165 -1.5039,23.866 -16.7636,23.543 -32.27,53.952 -32.4199,63.584 -0.1285,8.264 0.4457,8.081 10.7734,-3.426 10.8617,-12.1 10.978,-12.131 27.7969,-6.916 l 16.8887,5.234 -26.3418,15.959 c -14.4882,8.779 -26.4178,18.211 -26.5098,20.959 -0.097,2.915 11.7115,8.673 28.3613,13.832 15.6905,4.859 29.3663,10.277 30.3926,12.045 1.0263,1.765 -11.324,1.963 -27.4453,0.436 -24.2182,-2.291 -29.0303,-1.841 -27.7012,2.605 2.7018,9.032 39.674,15.557 103.791,18.316 33.5996,1.447 62.6716,4.246 64.6035,6.221 5.3429,5.453 8.6084,4.435 15.4532,-4.824 3.8567,-5.22 17.7463,-12.214 36.1933,-18.223 37.8954,-12.351 35.2717,-11.787 51.0039,-10.902 l 13.3575,0.752 -14.836,7.551 c -23.5603,11.984 -16.951,16.512 26.5235,18.162 55.5999,2.113 63.1009,-1.557 74.9824,-36.688 7.0035,-20.708 8.1822,-28.324 4.916,-31.732 -5.711,-5.966 -9.2825,-0.302 -16.5625,26.271 -3.1196,11.386 -8.0187,22.573 -10.8867,24.862 -2.8681,2.288 -16.8663,4.788 -31.1074,5.55 l -25.8946,1.391 15.5879,-12.441 c 48.804,-38.955 67.0955,-62.17 27.7715,-35.244 -11.2787,7.726 -23.8024,13.128 -30.2617,13.068 -10.1255,-0.1 -8.849,-1.633 15.7129,-18.873 14.7024,-10.321 28.2161,-21.254 30.0312,-24.299 7.1123,-11.922 -5.6903,-9.932 -29.7969,4.639 -13.8599,8.375 -25.1621,14.119 -25.1171,12.763 0.045,-1.356 6.03,-15.861 13.3007,-32.232 17.8949,-40.293 13.7709,-44.426 -20.9902,-21.02 -14.242,9.59 -27.0633,17.421 -28.4902,17.411 -3.4948,-0.03 -87.8173,-27.15 -97.3203,-31.295 -6.2773,-2.738 -2.1846,-5.638 24.4765,-17.328 17.6076,-7.722 32.0897,-16.307 32.1817,-19.079 0.092,-2.768 6.9825,-6.788 15.3125,-8.927 13.4934,-3.469 38.5694,-24.678 34.3671,-29.069 z m 90.7696,7.76 c -7.3779,-0.154 -23.3129,0.866 -41.1055,2.732 -34.5644,3.625 -44.3809,6.011 -49.4082,12.01 -3.4504,4.119 -14.7798,11.974 -25.1758,17.455 -26.2439,13.836 -27.0584,19.445 -2.8594,19.684 10.6866,0.105 19.3728,1.911 19.3028,4.012 -0.076,2.285 -15.0352,3.673 -37.2051,3.455 -37.5821,-0.371 -42.8539,2.976 -16.7969,10.658 7.2885,2.151 21.5081,4.134 31.5977,4.434 23.5422,0.673 69.9244,-9.299 76.0683,-16.356 2.6051,-2.991 10.6595,-5.379 17.8985,-5.309 13.3879,0.132 28.1347,-5.328 28.3066,-10.478 0.052,-1.566 -23.5578,-2.385 -52.4668,-1.822 l -52.5605,1.013 18.1777,-13.353 c 16.7048,-12.27 21.0097,-13.546 53.1348,-15.737 32.0638,-2.186 43.2272,-5.722 37.3691,-11.841 -0.3093,-0.324 -1.818,-0.506 -4.2773,-0.557 z m 113.4453,28.547 c -7.4218,1.774 -44.8434,39.122 -45.0625,45.687 -0.2862,8.576 4.2399,5.763 24.7129,-15.373 18.4539,-19.056 24.2456,-27.217 21.414,-30.173 -0.2082,-0.218 -0.5696,-0.259 -1.0644,-0.141 z m -4.3184,30.24 c -3.3311,0.75 -11.6338,10.317 -24.0215,29.528 -7.7534,12.024 -14.2185,25.505 -14.3671,29.96 -0.5391,16.156 9.8459,7.582 24.6953,-20.39 14.0406,-26.447 17.9762,-40.061 13.6933,-39.098 z m -326.705,13.885 c 3.3239,0.317 8.9374,2.344 14.3574,5.336 15.0033,8.279 11.5919,9.199 -7.5059,2.027 -7.1547,-2.685 -11.3481,-5.875 -9.3203,-7.082 0.507,-0.302 1.3608,-0.387 2.4688,-0.281 z m 152.3027,18.828 c 0.7936,-0.1 1.3925,0 1.7363,0.367 0.9727,1.015 -3.8522,12.24 -10.7226,24.938 -6.8705,12.703 -12.5762,25.632 -12.6797,28.734 -0.1113,3.335 -16.0796,13.238 -39.0469,24.219 -21.3708,10.217 -38.8232,17.598 -38.7832,16.398 0.04,-1.195 3.3016,-11.408 7.248,-22.691 6.4328,-18.393 9.4724,-21.864 29.3399,-33.496 12.19,-7.14 24.8885,-12.95 28.2187,-12.92 3.33,0.03 7.8724,-3.121 10.0938,-7.008 3.9431,-6.897 19.0402,-17.838 24.5957,-18.541 z m -86.6445,9.746 c 5.4516,0.05 27.9021,9.483 27.8281,11.686 -0.041,1.227 -5.0992,5.093 -11.2422,8.592 -10.6096,6.043 -11.4848,5.999 -17.4277,-0.881 -4.1744,-4.829 -4.8522,-8.075 -2.0372,-9.754 2.3205,-1.382 3.283,-4.121 2.1387,-6.092 -1.1441,-1.969 -0.8112,-3.561 0.7403,-3.551 z m -45.5,0.547 c 5.3894,0.468 9.9494,4.388 19.4003,15.039 16.3478,18.422 18.5149,24.444 7.7344,21.494 -3.8752,-1.062 -18.9751,0.245 -33.5547,2.906 -14.5794,2.657 -37.2143,4.779 -50.3027,4.739 -22.3039,-0.09 -24.1255,-0.773 -29.0176,-10.936 -2.8709,-5.964 -7.8381,-13.103 -11.039,-15.871 -3.2007,-2.763 -5.7786,-6.292 -5.7266,-7.844 0.052,-1.552 19.4798,-3.678 43.1738,-4.732 23.694,-1.052 47.7481,-2.957 53.4531,-4.232 2.1924,-0.491 4.0825,-0.719 5.879,-0.563 z m 318.6621,21.248 c -1.5766,-0.02 -10.1974,3.704 -19.1563,8.277 -15.7379,8.036 -16.7413,8.096 -29.6894,1.692 -10.4467,-5.166 -13.4384,-5.506 -13.5704,-1.547 -0.1859,5.572 9.5797,15.622 18.4844,19.023 12.1514,4.645 22.7527,2.535 34.3477,-6.843 11.0986,-8.974 16.4638,-20.512 9.584,-20.602 z m -427.586,9.67 c 1.4449,0.225 2.4617,1.496 3.6719,3.643 10.7829,19.115 14.768,21.561 38.1055,23.394 14.0483,1.102 38.3411,-0.964 61.1816,-5.203 20.835,-3.868 38.0706,-6.719 38.2988,-6.338 0.2283,0.384 -4.8531,11.4 -11.291,24.475 -8.2464,16.753 -13.673,23.587 -18.3633,23.138 -34.4169,-3.299 -57.2907,-9.322 -99.4843,-26.187 -19.7157,-7.882 -36.684,-15.023 -37.7071,-15.871 -1.0233,-0.843 4.3299,-6.547 11.8946,-12.674 7.685,-6.22 11.2853,-8.752 13.6933,-8.377 z" fill="#00B894" transform="translate(74.626883,-97.101538) matrix(0.26458333,0,0,0.26458333,-2539.072,-5165.8857)"/>
</svg>