<?xml version="1.0" ?><svg height="204.20924mm" viewBox="0 0 231.04271 204.20924" width="231.04271mm" xmlns="http://www.w3.org/2000/svg">
    <path d="m 10968.678,18809.279 c -22.493,0.576 -60.356,18.83 -60.356,18.83 0,0 -25.316,-1.591 -40.779,1.774 -15.464,3.366 -39.871,20.147 -37.9,42.795 1.971,22.648 5.911,28.605 -4.903,41.293 -10.814,12.688 -9.246,17.509 -7.023,28.105 2.224,10.597 17.635,16.826 36.939,16.963 l 0.883,0.05 c 0.784,5.526 1.824,10.912 3.227,16 12.717,46.146 53.035,58.143 98.861,43.482 29.418,-14.863 47.316,-32.509 57.219,-51.265 9.429,-2.462 38.796,-10.796 56.898,-24.188 21.578,-15.962 21.377,-37.29 2.932,-44.111 -18.445,-6.822 -29.462,-16.601 -32.393,-34.655 -2.931,-18.055 -2.829,-20.102 -19.303,-19.419 -16.474,0.682 -26.376,-21.102 -41.839,-32.79 -2.9,-2.191 -7.273,-3 -12.463,-2.867 z m -269.057,212.95 -167.367,101.203 34.682,50.418 -116.905,0.998 -114.011,98.427 -1.375,286.631 435.507,2.477 123.205,-120.776 -5.861,-90.865 c 9.694,1.527 24.337,2.638 46.762,2.77 82.798,0.487 136.779,-14.106 136.779,-14.106 0,0 6.765,-191.783 3.789,-223.562 -2.976,-31.778 -38.287,-65.265 -76.98,-65.022 -38.693,0.244 -94.466,16.639 -105.121,31.17 -27.571,37.597 -27.317,84.128 -28.424,89.322 l -165.106,1.409 66.647,-43.024 z" fill="#FFFFFF" transform="translate(65.539471,-13.142934) matrix(0.26458333,0,0,0.26458333,-2779.1864,-4962.2095)"/>
    <path d="m 10922.529,18814.26 c -9.808,6.724 -15.238,7.8 -29.095,5.754 -23.211,-3.425 -41.773,3.262 -58.678,21.144 -15.811,16.723 -17.281,23.964 -8.77,43.24 5.752,13.027 5.66,13.527 -4.664,25.229 -20.888,23.672 -10.31,56.605 16.856,52.486 10.624,-1.609 12.967,-0.584 14.646,6.408 1.423,5.926 -0.829,10.715 -7.834,16.639 -5.41,4.579 -9.899,10.124 -9.969,12.326 -0.17,5.093 9.647,5.249 19.229,0.303 6.018,-3.103 8.528,-1.976 13.498,6.065 6.624,10.718 22.788,20.773 40.775,25.365 v 0 c 18.669,4.766 30.397,4.222 51.766,-2.393 21.332,-6.608 59.924,-36.656 64.772,-50.434 1.71,-4.855 6.061,-7.372 12.613,-7.312 27.36,0.269 59.215,-27.272 60.037,-51.906 0.478,-14.342 -12.108,-31.715 -23.111,-31.883 -20.692,-0.333 -24.706,-3.814 -22.129,-19.178 3.322,-19.805 -8.197,-32.569 -26.84,-29.742 -11.458,1.737 -13.572,0.548 -20.129,-11.297 -4.03,-7.28 -12.04,-15.125 -17.799,-17.435 -17.99,-5.943 -49.89,-3.363 -65.174,6.621 z m 41.319,4.418 c 18.907,0.04 20.721,0.958 35.732,18.074 11.871,13.534 17.696,17.457 23.356,15.732 9.491,-2.885 13.614,3.722 13.099,20.977 -0.342,11.385 1.261,13.937 10.934,17.393 32.489,11.604 37.024,28.417 12.836,47.585 -8.054,6.38 -16.908,11.583 -19.678,11.553 -8.283,-0.08 -20.921,-7.097 -22.873,-27.994 -0.46,-4.926 -1.873,-12.132 -4.529,-15.961 -4.251,-6.135 -7.089,-6.506 -23.793,-3.113 -10.432,2.119 -20.227,2.559 -21.764,0.978 -1.538,-1.58 -5.485,-12.209 -8.772,-23.615 -4.254,-14.772 -8.959,-22.457 -16.353,-26.705 -9.619,-5.528 -11.519,-5.367 -25.883,2.166 -17.175,9.011 -19.352,5.866 -7.17,-10.359 13.033,-17.358 32.344,-26.761 54.858,-26.711 z m -77.323,15.119 c 9.488,0.09 11.578,1.429 9.606,6.141 -1.387,3.312 -2.668,10.362 -2.846,15.671 -0.24,7.185 -1.83,9.048 -6.221,7.299 -10.123,-4.037 -28.731,8.028 -31.654,20.52 -1.642,10.507 -4.647,21.205 -6.098,29.595 l -0.572,17.129 c -0.47,14.075 0.588,22.986 -6.033,22.784 -20.608,-2.114 -23.528,-20.118 -6.926,-35.541 10.18,-7.298 13.939,-30.513 6.946,-36.247 -2.058,-1.321 -3.584,-7.159 -3.391,-12.974 0.566,-16.958 24.78,-34.598 47.189,-34.377 z m 43.399,32.783 c 8.483,0.122 11.57,8.002 17.273,27.727 7.28,25.182 11.771,28.841 33.889,27.611 18.371,-2.554 18.023,-0.868 22.486,15.908 3.758,14.119 3.589,18.529 -1.017,26.748 -7.212,12.865 -28.605,32.016 -44.254,39.615 v 0 c -17.996,8.736 -53.64,7.555 -69.219,-2.294 -10.91,-6.899 -12.087,-9.266 -9.568,-19.198 2.258,-8.906 1.396,-11.896 -4.035,-13.982 -10.786,-4.143 -12.332,-9.127 -11.098,-35.746 1.369,-29.529 4.863,-42.202 12.648,-45.881 3.156,-1.492 16.686,-7.446 30.067,-13.231 10.707,-4.629 17.74,-7.35 22.83,-7.277 z m -17.828,51.566 c -6.041,-0.06 -7.05,3.479 -3.715,13.034 2.149,6.157 9.443,8.123 13.988,3.769 3.906,-3.743 -4.042,-16.743 -10.273,-16.803 z m -34.844,7.459 c -2.929,0.258 -5.526,3.222 -5.709,8.709 -0.164,4.905 0.808,10.075 2.164,11.489 6.909,7.218 14.464,-1.295 11.246,-12.666 -1.512,-5.338 -4.772,-7.789 -7.701,-7.532 z m 93.728,25.079 c -3.041,0.05 -6.811,3.397 -10.474,10.015 -3.628,6.557 -12.625,15.345 -19.996,19.539 -7.37,4.191 -13.446,9.172 -13.516,11.067 -0.06,1.894 4.924,3.494 11.08,3.554 14.908,0.147 40.371,-22.347 39,-34.453 -0.741,-6.541 -3.052,-9.777 -6.094,-9.722 z m -306.957,37.652 c -28.901,-0.285 -55.293,23.287 -69.943,62.467 -5.942,15.891 -11.963,24.589 -21.902,31.64 -33.59,23.822 -51.028,39.522 -51.25,46.149 -0.13,3.936 4.948,13.343 11.285,20.908 6.336,7.565 10.432,14.795 9.105,16.068 -1.329,1.272 -25.159,2.495 -52.959,2.717 -26.411,-1.042 -45.266,-4.203 -64.728,12.789 l -76.135,68.409 c -29.141,21.711 -24.702,17.289 -26.814,68.458 l -1.957,17.356 -29.289,2.135 c -16.11,1.174 -30.487,3.275 -31.944,4.67 -5.716,5.478 9.652,9.773 36.07,10.091 l 27.711,0.334 -2.701,110.938 c -1.764,52.839 -1.272,85.301 1.416,93.515 4.054,12.395 4.518,12.61 31.071,14.206 v 0.01 c 14.825,0.892 286.821,1.112 392.012,4.347 24.897,2.965 23.621,-2.342 48.835,-24.544 38.927,-34.278 80.396,-72.347 96.373,-96.113 13.431,-16.139 12.565,-22.3 11.459,-59.969 l -1.222,-41.107 39.72,0.421 c 40.267,0.433 166.568,-5.217 182.442,-8.158 4.761,-0.882 8.744,-4.15 8.845,-7.263 0.204,-6.162 -1.78,-6.768 -24.603,-7.487 l -15.279,-0.478 1.849,-82.172 c 1.889,-83.942 -1.056,-134.201 -9.094,-155.192 -7.332,-19.147 -26.635,-39.159 -44.669,-46.316 -22.736,-9.019 -76.474,-6.778 -102.399,4.268 -20.087,8.559 -25.76,18.532 -7.937,13.953 33.779,-8.679 77.238,-11.841 82.804,-6.028 1.396,1.458 -11.883,8.405 -29.509,15.436 -24.255,9.675 -39.535,13.177 -62.813,14.391 -52.404,2.742 -78.011,-7.015 -164.533,-62.674 -43.04,-27.69 -67.062,-37.956 -89.317,-38.176 z m 51.401,41.016 c 0.04,-1.181 18.14,10.687 40.224,26.378 72.808,51.73 101.254,62.401 160.989,60.393 34.764,-1.164 42.914,-2.938 79.422,-17.283 22.373,-8.795 42.706,-17.549 45.183,-19.461 7.005,-5.394 18.99,13.722 22.832,36.416 3.493,20.628 0.57,210.594 -3.297,214.326 -1.209,1.163 -32.209,4.452 -68.894,7.301 -81.778,6.353 -95.76,6.372 -95.571,0.119 0.08,-2.629 -0.991,-19.409 -2.384,-37.295 -1.394,-17.885 -3.869,-52.69 -5.5,-77.34 -1.63,-24.653 -5.099,-47.91 -7.711,-51.683 -4.169,-6.027 -13.383,-7.18 -75.74,-9.475 l -70.998,-2.611 18.322,-13.198 c 27.692,-19.949 28.142,-21.717 12.189,-47.925 -7.637,-12.547 -21.816,-32.645 -31.51,-44.664 -9.695,-12.02 -17.596,-22.818 -17.556,-23.998 z m -21.819,5.896 c 3.93,-1.421 26.559,32.49 44.252,66.313 12.906,24.673 13.145,25.888 6.11,31.185 -4.028,3.034 -34.578,23.006 -67.887,44.381 -33.31,21.376 -62.676,40.036 -65.262,41.467 -2.816,1.56 -7.132,-1.679 -10.773,-8.092 -17.456,-30.723 -38.553,-61.987 -48.617,-72.049 -6.232,-6.229 -11.292,-12.5 -11.242,-13.935 0.05,-1.436 15.996,-12.331 35.441,-24.213 32.79,-20.034 35.699,-21.108 40.088,-14.774 5.699,8.222 17.328,5.165 17.779,-4.676 0.258,-5.609 1.559,-5.11 7.393,2.823 5.853,7.954 8.294,8.882 14.076,5.332 3.846,-2.361 6.705,-7.926 6.353,-12.367 -0.569,-7.153 0.207,-7.521 6.813,-3.243 12.18,7.887 20.97,-0.322 21.715,-20.283 0.345,-9.204 2.035,-17.246 3.761,-17.869 z m -187.521,149.496 53.865,2.293 5.905,10.656 c 5.349,9.648 5.328,10.865 -0.198,12.905 -3.358,1.239 -15.477,2.159 -26.933,2.047 -15.573,-0.154 -21.473,1.332 -23.381,5.886 -1.405,3.353 -0.208,7.77 2.658,9.815 7.826,5.581 182.045,3.68 188.027,-2.053 9.483,-9.081 -1.481,-17.61 -25.578,-19.898 l -22.48,-2.133 17.549,-9.946 c 16.948,-9.608 19.93,-9.968 87.343,-10.607 38.387,-0.365 69.336,0.194 68.774,1.238 -0.561,1.047 -20.987,20.459 -45.391,43.145 l -44.369,41.238 -35.498,3.242 v 0 c -36.32,3.313 -353.032,3.716 -356.16,0.448 -0.951,-0.993 18.564,-20.805 26.515,-27.278 7.951,-6.473 31.29,-26.443 51.867,-44.381 25.723,-18.614 33.008,-16.146 77.485,-16.617 z m 361.59,1.303 c 0.697,-0.206 1.15,-0.154 1.41,0.117 1.763,1.842 6.514,86.144 10.789,191.457 2.565,56.535 0.721,54.368 -24.141,83.824 -14.451,17.126 -37.891,42.652 -52.086,56.727 -14.195,14.072 -26.508,25.572 -27.361,25.572 -0.854,0 -0.925,-21.082 -0.156,-46.832 0.766,-25.747 0.1,-54.569 -1.484,-64.045 -1.584,-9.477 -3.926,-43.045 -5.206,-74.594 -1.28,-31.55 -3.594,-62.841 -5.144,-69.533 -2.726,-11.779 -1.603,-13.241 35.203,-45.9 46.438,-41.202 63.295,-55.352 68.176,-56.793 z m -20.799,73.992 c -2.357,-0.121 -7.154,2.628 -13.414,7.809 -7.465,6.18 -22.028,16.759 -32.367,23.515 -14.151,9.244 -18.57,14.32 -17.891,20.551 0.744,6.832 4.875,9.075 23.692,12.861 12.533,2.524 23.642,4.75 24.687,4.963 1.045,0.206 4.52,-1.222 7.721,-3.17 8.689,-5.298 1.339,-10.617 -19.883,-14.406 l -18.371,-3.275 17.666,-11.991 c 18.935,-12.847 31.862,-28.429 29.668,-35.763 -0.207,-0.695 -0.722,-1.053 -1.508,-1.094 z m -104.367,34.365 c 4.996,0.379 6.123,1.739 6.068,4.284 -0.456,21.237 1.817,87.587 3.936,114.845 1.387,17.887 1.75,56.168 0.785,85.067 l -1.752,52.545 -85.065,-0.368 c -46.786,-0.2 -116.043,-0.185 -153.904,0.03 l 0.01,-0.01 c -37.861,0.219 -91.24,1.346 -118.617,2.506 l -49.78,2.105 17.627,-17.349 c 16.382,-16.125 16.981,-17.36 8.477,-17.44 -5.032,-0.05 -13.042,3.416 -17.799,7.701 l -8.644,7.791 0.75,-96.748 c 0.413,-53.213 0.149,-107.159 -0.588,-119.879 -1.699,-20.82 -5.159,-23.254 15.469,-22.591 92.101,2.961 334.234,0.862 353.744,-0.885 9.726,-0.258 19.64,-2.247 29.283,-1.604 z m -106.457,12.198 c -0.856,-0.894 -9.058,2.143 -18.229,6.753 -27.502,13.821 -114.994,13.887 -114.533,0.09 0.146,-4.391 -1.655,-4.609 -9.519,-1.156 -5.336,2.341 -9.742,5.363 -9.782,6.713 -0.138,4.125 36.774,16.512 57.803,19.4 l 19.842,2.725 -30.297,15.434 -30.301,15.429 -15.178,-7.603 c -8.347,-4.182 -18.937,-7.085 -23.531,-6.453 -6.99,0.96 -5.445,2.943 9.442,12.15 9.787,6.052 17.766,11.79 17.736,12.75 -0.03,0.964 -15.074,0.543 -33.426,-0.934 -29.621,-2.38 -32.617,-2.047 -26.678,2.963 3.68,3.107 18.147,7.879 32.147,10.612 31.069,6.06 42.353,11.498 23.818,11.488 -7.091,0 -30.872,2.472 -52.849,5.502 -21.975,3.03 -41.543,4.492 -43.485,3.248 -1.94,-1.242 4.169,-16.595 13.578,-34.108 l 17.108,-31.845 28.359,-3.918 c 30.86,-4.263 36.5,-6.243 33.328,-11.699 -3.266,-5.621 -27.396,-4.292 -63.041,3.468 -44.185,9.616 -46.722,9.138 -28.789,-5.441 19.876,-16.16 12.902,-21.286 -8.578,-6.305 -26.891,18.758 -19.978,32.04 14.461,27.78 17.682,-2.189 17.744,-3.166 -1.502,23.865 -16.765,23.543 -32.267,53.952 -32.422,63.584 -0.129,8.262 0.446,8.081 10.772,-3.426 10.863,-12.104 10.98,-12.132 27.799,-6.92 l 16.888,5.236 -26.342,15.961 c -14.488,8.776 -26.409,18.21 -26.509,20.955 -0.1,2.918 11.711,8.677 28.361,13.834 15.69,4.858 29.369,10.279 30.394,12.043 1.026,1.765 -11.324,1.964 -27.445,0.44 -24.22,-2.295 -29.034,-1.84 -27.705,2.605 2.703,9.032 39.675,15.559 103.793,18.319 33.6,1.446 62.673,4.243 64.604,6.214 v 0 c 5.343,5.456 8.608,4.436 15.453,-4.825 3.858,-5.217 17.747,-12.21 36.195,-18.22 37.894,-12.348 35.271,-11.789 51.002,-10.903 l 13.359,0.754 -14.836,7.551 c -23.562,11.983 -16.952,16.511 26.522,18.162 55.601,2.113 63.1,-1.555 74.982,-36.687 7.002,-20.708 8.183,-28.326 4.916,-31.737 -5.711,-5.963 -9.281,-0.297 -16.56,26.274 -3.12,11.387 -8.022,22.574 -10.889,24.863 -2.87,2.288 -16.866,4.785 -31.107,5.551 l -25.893,1.39 15.584,-12.441 c 48.805,-38.955 67.098,-62.167 27.775,-35.244 -11.28,7.723 -23.802,13.128 -30.261,13.068 -10.126,-0.1 -8.85,-1.632 15.711,-18.875 14.702,-10.319 28.216,-21.254 30.031,-24.297 7.113,-11.926 -5.689,-9.932 -29.795,4.635 -13.862,8.379 -25.157,14.123 -25.117,12.768 0.05,-1.36 6.03,-15.863 13.301,-32.237 17.895,-40.293 13.767,-44.421 -20.993,-21.015 -14.242,9.588 -27.063,17.418 -28.49,17.408 -3.494,-0.03 -87.817,-27.148 -97.32,-31.295 -6.276,-2.736 -2.186,-5.636 24.476,-17.326 17.607,-7.723 32.082,-16.306 32.182,-19.078 0.09,-2.772 6.985,-6.789 15.315,-8.93 13.493,-3.467 38.568,-24.674 34.365,-29.066 z m 90.769,7.761 c -7.378,-0.153 -23.313,0.865 -41.105,2.731 -34.564,3.628 -44.38,6.011 -49.408,12.011 -3.448,4.118 -14.779,11.973 -25.176,17.456 -26.243,13.837 -27.058,19.441 -2.86,19.679 10.687,0.106 19.373,1.911 19.303,4.016 -0.08,2.283 -15.033,3.674 -37.203,3.455 -37.584,-0.37 -42.856,2.974 -16.797,10.656 7.288,2.15 21.508,4.135 31.598,4.436 23.542,0.672 69.923,-9.299 76.066,-16.356 2.605,-2.993 10.66,-5.38 17.899,-5.31 13.387,0.132 28.135,-5.327 28.306,-10.481 0.05,-1.566 -23.555,-2.383 -52.466,-1.824 l -52.559,1.02 18.178,-13.354 c 16.703,-12.273 21.009,-13.546 53.133,-15.736 32.065,-2.187 43.226,-5.723 37.369,-11.842 -0.31,-0.323 -1.818,-0.506 -4.278,-0.557 z m 113.446,28.545 c -7.422,1.777 -44.842,39.124 -45.061,45.686 -0.287,8.581 4.238,5.767 24.711,-15.371 18.454,-19.053 24.246,-27.217 21.414,-30.176 -0.208,-0.218 -0.57,-0.257 -1.064,-0.139 z m -4.319,30.24 c -3.331,0.75 -11.634,10.318 -24.021,29.53 -7.754,12.022 -14.218,25.505 -14.367,29.959 -0.539,16.157 9.847,7.58 24.697,-20.389 14.04,-26.447 17.974,-40.063 13.691,-39.1 z m -326.705,13.887 c 3.324,0.317 8.939,2.345 14.36,5.336 15.002,8.279 11.59,9.199 -7.508,2.027 -7.155,-2.688 -11.349,-5.874 -9.321,-7.082 0.507,-0.302 1.361,-0.386 2.469,-0.281 z m 152.303,18.826 c 0.794,-0.1 1.393,0 1.736,0.368 0.972,1.017 -3.851,12.241 -10.72,24.939 -6.872,12.7 -12.582,25.63 -12.682,28.732 -0.112,3.335 -16.077,13.239 -39.047,24.221 -21.369,10.217 -38.821,17.597 -38.781,16.399 0.04,-1.197 3.301,-11.411 7.248,-22.694 6.433,-18.392 9.472,-21.863 29.338,-33.496 12.191,-7.139 24.89,-12.948 28.218,-12.918 3.33,0.03 7.874,-3.121 10.094,-7.006 3.943,-6.898 19.041,-17.842 24.596,-18.545 z m -86.645,9.748 c 5.452,0.05 27.899,9.48 27.829,11.686 -0.04,1.226 -5.1,5.092 -11.243,8.59 -10.609,6.042 -11.483,6 -17.425,-0.879 -4.175,-4.829 -4.855,-8.076 -2.038,-9.754 2.32,-1.382 3.282,-4.126 2.137,-6.092 -1.145,-1.97 -0.811,-3.561 0.74,-3.551 z m -45.5,0.545 c 5.39,0.468 9.951,4.39 19.403,15.037 16.347,18.425 18.511,24.449 7.732,21.498 -3.875,-1.062 -18.976,0.247 -33.553,2.905 -14.581,2.66 -37.215,4.78 -50.304,4.74 -22.303,-0.09 -24.126,-0.774 -29.018,-10.938 -2.871,-5.963 -7.839,-13.105 -11.039,-15.869 -3.201,-2.764 -5.785,-6.291 -5.725,-7.845 0.05,-1.551 19.48,-3.682 43.172,-4.733 23.695,-1.051 47.75,-2.958 53.455,-4.232 2.192,-0.49 4.081,-0.719 5.877,-0.563 z m 318.664,21.25 c -1.577,-0.02 -10.198,3.701 -19.156,8.278 -15.739,8.036 -16.74,8.095 -29.689,1.693 -10.447,-5.169 -13.442,-5.51 -13.571,-1.549 -0.186,5.569 9.578,15.623 18.483,19.026 12.152,4.645 22.753,2.529 34.349,-6.848 11.097,-8.975 16.463,-20.5 9.584,-20.6 z m -427.585,9.668 c 1.444,0.225 2.459,1.496 3.669,3.641 10.783,19.118 14.768,21.565 38.108,23.394 14.048,1.105 38.34,-0.963 61.18,-5.203 20.837,-3.866 38.069,-6.718 38.298,-6.334 0.228,0.384 -4.853,11.397 -11.291,24.475 -8.246,16.75 -13.672,23.589 -18.363,23.139 -34.415,-3.302 -57.29,-9.322 -99.484,-26.19 -19.715,-7.883 -36.682,-15.022 -37.705,-15.867 -1.025,-0.843 4.328,-6.551 11.892,-12.678 7.686,-6.222 11.287,-8.751 13.696,-8.377 z" fill="#00B894" transform="translate(65.539471,-13.142934) matrix(0.26458333,0,0,0.26458333,-2779.1864,-4962.2095)"/>
</svg>