<?xml version="1.0" ?><svg height="249.68062mm" viewBox="0 0 131.1129 249.68062" width="131.1129mm" xmlns="http://www.w3.org/2000/svg">
    <path d="m -655.3891,-3941.6137 c -47.2897,4.7801 -104.0598,42.554 -124.0899,98.1562 -10.171,62.058 -38.788,60.6609 -58.0957,80.5195 -15.6875,28.5467 6.5508,41.5801 6.5508,41.5801 0,0 -33.0985,11.7911 -43.2695,30.7188 -10.171,18.9276 18.1016,27.1504 18.1016,27.1504 0,0 -19.4805,12.4614 21.2792,45.205 1.7894,1.4374 3.8684,2.7571 6.0723,4.0235 -31.3545,46.0459 -21.0858,61.7106 -41.668,126.6484 0,0 -6.564,30.4244 5.9942,82.3066 12.5584,51.8822 56.8124,90.418 56.8125,90.418 0,0 -39.7081,11.1943 -66.1406,8.8262 -26.4325,-2.3681 -31.3367,5.9198 -30.1407,25.2949 1.1961,19.375 13.3952,205.5907 18.2989,230.3477 4.9038,24.7571 25.5965,29.4942 83.3652,36.2754 57.7687,6.7813 112.982,-0.6758 168.707,-10.5215 31.826,-5.6232 38.4463,-187.858 38.2071,-215.6289 -0.1196,-13.8854 17.1343,-78.1924 -50.2696,-84.8907 27.2958,-10.7192 47.1573,-25.1373 45.3496,-43.916 -1.5352,-15.9481 -18.6678,-32.902 -36.2988,-49.3261 -17.6311,-16.4242 -35.7608,-32.3188 -39.2891,-46.1504 -7.0565,-27.6633 30.6189,-93.2163 40.7852,-134.1192 7.7102,-31.0208 12.1134,-48.0463 -14.0859,-63.1972 -1.2794,-9.3958 -2.6996,-20.8848 -4.2461,-34.2461 30.636,10.0751 59.1686,6.7373 75.3301,4.7265 25.954,-3.2292 52.3858,-35.5209 55.1367,-89.0176 2.7509,-53.4968 -9.6283,-102.5066 -66.209,-140.4843 -21.218,-14.2417 -44.0724,-20.6018 -66.1875,-20.6992 z" fill="#FFFFFF" transform="translate(-10.587179,56.66984) matrix(0.26458333,0,0,0.26458333,251.32162,988.91256)"/>
    <path d="m -475.53205,-3011.3674 c -26.9466,-2.6287 -78.1671,-18.461 -94.1147,-29.0944 -4.0291,-2.6863 -10.3493,-10.6139 -14.0442,-17.6186 -6.4636,-12.2544 -6.4983,-13.755 -0.9093,-39.5047 3.1944,-14.7228 5.4304,-27.1367 4.9689,-27.5905 -2.487,-2.4319 -40.1468,6.886 -44.8401,11.0966 -11.1339,9.9879 -31.2056,4.119 -31.2056,-9.1245 0,-3.124 11.0745,-33.897 24.6098,-68.3853 24.5207,-62.4731 55.8433,-154.8872 55.8433,-164.7564 0,-3.1139 -8.0522,1.9857 -20.1133,12.7422 -39.4716,35.1965 -76.0194,46.6451 -138.9557,43.5363 -23.1355,-1.1442 -60.5468,-0.525 -83.1361,1.3725 -23.412,1.9696 -46.724,2.1799 -54.2156,0.4902 -7.9013,-1.7838 -14.47,-1.637 -16.4718,0.3648 -2.1079,2.1061 -0.4962,27.3996 4.3913,68.9129 7.1438,60.6681 14.6727,147.2896 14.6727,168.8016 0,5.0216 -2.191,12.123 -4.8688,15.7856 -3.9528,5.4067 -5.8435,5.8478 -10.0575,2.3505 -6.3923,-5.304 -8.3237,-17.1156 -12.978,-79.381 -2.0137,-26.9322 -6.1225,-72.5807 -9.1303,-101.4384 -8.7606,-84.0403 -4.7459,-93.8603 38.8193,-94.9333 14.1332,-0.3461 29.0189,-1.6837 33.0794,-2.9747 6.9046,-2.191 6.4474,-3.2479 -7.0802,-16.376 -18.4075,-17.8629 -29.5541,-43.1742 -37.044,-84.1107 -5.0521,-27.6176 -5.332,-37.1772 -1.8865,-64.4589 5.0699,-40.1417 17.8409,-81.0469 33.3389,-106.7831 l 11.9474,-19.8385 -8.4136,-2.1121 c -13.9687,-3.5074 -22.228,-14.481 -22.228,-29.5371 0,-11.5614 -1.3037,-13.9416 -8.6443,-15.7831 -11.0788,-2.7805 -16.9087,-13.7524 -14.101,-26.5335 2.1986,-10.0109 17.5355,-24.2069 34.5095,-31.9411 7.1557,-3.258 8.2685,-5.3201 5.583,-10.3416 -5.3599,-10.0134 -3.8738,-28.5718 3.2199,-40.2045 3.6025,-5.9079 15.1291,-16.4362 25.6141,-23.3959 24.4503,-16.2284 27.4785,-20.1192 29.5244,-37.9304 2.0137,-17.5245 17.9622,-50.6191 36.0881,-74.8837 16.6923,-22.3441 39.2086,-34.5883 76.6081,-41.6583 37.1339,-7.02 52.6497,-6.9572 78.5658,0.3147 22.9548,6.4406 47.8479,26.4606 47.8479,38.4783 0,3.812 4.0893,10.7437 9.0871,15.4082 13.7049,12.7888 22.7335,26.6277 31.5364,48.3314 6.5331,16.1062 9.7115,19.9334 17.7714,21.3975 12.877,2.3403 13.2655,13.9593 0.6692,19.9962 -8.2456,3.9536 -9.3161,6.7477 -10.8624,28.3598 -3.0944,43.242 -32.3092,88.2297 -60.7649,93.5685 -6.5568,1.2299 -11.9219,2.867 -11.9219,3.6414 0,0.7711 2.9917,12.201 6.6493,25.3978 3.6576,13.1985 9.1813,44.265 12.2756,69.041 3.0944,24.7735 7.1871,57.6383 9.0956,73.0269 1.9086,15.392 3.4922,42.152 3.5185,59.4662 0.025,17.3149 1.509,33.791 3.2937,36.6105 2.1672,3.4269 7.858,4.7985 17.1351,4.1267 15.9222,-1.1485 33.439,6.6272 39.2079,17.4074 4.8264,9.0192 4.8892,34.4849 0.1365,55.5567 -1.9509,8.6468 -13.0627,47.0073 -24.6929,85.2422 -11.6301,38.2366 -21.1455,70.8987 -21.1455,72.5832 0,1.6838 3.7424,3.0639 8.3169,3.0639 10.457,0 17.0478,7.6951 15.5625,18.1699 -0.7939,5.6069 -6.4143,10.77 -18.4457,16.9452 -18.3862,9.4391 -17.6169,8.0175 -27.6464,51.1653 l -5.013,21.5681 28.5447,8.8988 c 15.6999,4.8951 44.8011,10.4307 64.6692,12.2985 37.5809,3.5363 49.4443,8.7469 49.4443,21.7096 0,8.216 -13.2477,17.27 -24.3892,16.6695 -4.8629,-0.263 -21.434,-1.7058 -36.8243,-3.2063 z m -87.4561,-174.2795 c 3.0138,-10.8192 12.4181,-41.7102 20.8962,-68.6432 21.1871,-67.3022 29.8306,-99.5265 29.8306,-111.2109 0,-9.0227 -0.9907,-9.8149 -11.0457,-8.8148 -10.7818,1.067 -11.2441,1.8491 -19.3125,32.5755 -10.8167,41.1935 -30.2234,99.9828 -47.0769,142.6116 -7.4314,18.7968 -13.5115,35.4926 -13.5115,37.1008 0,1.6083 7.8165,1.3801 17.3693,-0.5089 l 17.3701,-3.4362 z m -122.422,-141.8558 c 15.4421,-4.2972 16.186,-4.9037 6.349,-5.1794 -18.8757,-0.5293 -29.7195,-6.2828 -28.4531,-15.1002 0.9492,-6.6162 5.606,-8.9251 31.1497,-15.4471 37.446,-9.5622 56.8315,-17.5194 53.967,-22.155 -1.2112,-1.9594 -10.5681,-7.5213 -20.7935,-12.3596 -21.8929,-10.3569 -34.8844,-27.1443 -40.4743,-52.3012 -4.3947,-19.7807 -2.5608,-36.1567 7.5713,-67.6066 l 7.0879,-22.0006 -21.3195,-43.332 c -22.6419,-46.0208 -24.3994,-52.2621 -16.0392,-56.9393 4.3311,-2.4242 3.1308,-5.0342 -6.6849,-14.5497 l -11.9644,-11.5962 -18.6755,6.0369 c -31.6798,10.2365 -74.6385,61.2212 -94.3412,111.9616 -28.5286,73.4705 -20.1082,164.1948 18.5177,199.5178 21.6478,19.796 24.0109,20.746 56.7909,22.8157 53.6948,3.3896 59.2465,3.2615 77.3121,-1.7651 z m 103.19,-73.8115 c 0,-5.6408 -9.3102,-10.9846 -12.8923,-7.4034 -2.4912,2.4921 5.4134,12.7608 9.8226,12.7608 1.6888,0 3.0697,-2.4115 3.0697,-5.3574 z m -20.9878,-32.3448 c 0,-3.0511 -47.361,-74.1839 -49.4087,-74.2076 -3.2063,-0.025 -6.5602,19.4457 -6.5449,38.0144 0.025,19.2642 9.2169,36.1228 24.9354,45.6824 10.9372,6.6501 11.0975,6.645 21.0201,-0.6897 5.4991,-4.0664 9.9981,-8.0259 9.9981,-8.7995 z m 14.3987,-107.9842 c -3.1579,-55.5762 -9.2092,-99.1016 -16.3666,-117.7287 -2.7406,-7.1303 -31.9588,-22.1389 -35.7403,-18.3583 -1.3529,1.3529 0.3003,4.0053 3.6729,5.8918 10.5885,5.9266 23.4061,21.7648 27.3945,33.8479 5.0224,15.2189 1.6744,31.6577 -12.8668,63.1653 -6.5399,14.1671 -10.9533,27.5463 -9.8082,29.7322 5.1734,9.8666 45.1744,67.8739 46.16,66.94 0.6065,-0.5768 -0.4937,-29.147 -2.4455,-63.4902 z m -50.9346,-55.5474 c 10.7284,-24.2586 10.7547,-33.6799 0.1255,-46.0335 l -8.4255,-9.7963 -8.8971,9.602 c -8.221,8.87 -14.6328,11.318 -25.8456,9.8616 -2.4921,-0.3249 0.3147,7.3957 6.5271,17.9503 12.9687,22.0311 23.9032,37.7539 26.2588,37.7539 0.9373,0 5.5525,-8.702 10.2559,-19.338 z m -179.7209,-47.6104 c 7.6264,-6.0394 24.195,-16.2708 36.8192,-22.7377 18.9173,-9.686 26.8499,-11.7531 45.1064,-11.7531 19.3448,0 23.6097,1.2647 33.6435,9.9803 21.59,18.7544 26.0746,19.6968 37.8201,7.9513 15.0171,-15.0171 13.0993,-21.1447 -11.6326,-37.1721 -36.8854,-23.8998 -46.7945,-47.9438 -26.9407,-65.3664 7.26,-6.3694 10.4943,-12.4241 10.4943,-19.6493 0,-12.475 12.2018,-53.3301 21.2253,-71.07 3.5448,-6.9708 16.7475,-23.8972 29.3387,-37.6174 12.5911,-13.721 22.8929,-27.3029 22.8929,-30.181 0,-9.5493 -10.5834,-5.4278 -28.0739,10.9321 -19.4576,18.2022 -35.7573,41.4302 -53.9553,76.8914 -9.1244,17.7815 -12.385,21.8275 -12.396,15.381 -0.034,-19.1353 40.3818,-88.2425 60.0777,-102.7345 8.0404,-5.9165 7.9878,-5.9504 -5.8791,-3.8196 -15.9671,2.4522 -29.3556,13.8253 -52.7583,44.8138 -19.9326,26.3919 -21.311,15.1978 -1.7168,-13.9517 7.5535,-11.2391 13.1365,-21.0294 12.4071,-21.7589 -3.5609,-3.56 -26.1222,14.2876 -40.2979,31.8774 -19.9411,24.7472 -31.1606,46.9895 -33.4542,66.3165 -2.3038,19.4059 -8.2712,28.1758 -29.5898,43.4914 -25.7981,18.5348 -30.4193,30.941 -16.8891,45.3439 8.5451,9.0956 8.9242,8.6054 -24.8414,32.0174 -21.6333,14.9951 -24.2908,22.6275 -8.8156,25.3079 9.853,1.7058 10.3654,2.6134 9.3585,16.56 -1.8339,25.4029 5.9639,28.4463 28.057,10.9473 z m 265.0615,-69.8417 c 5.9758,-5.9767 13.2206,-15.4209 16.0995,-20.9879 5.0597,-9.7826 4.9579,-10.1236 -3.0172,-10.1236 -4.538,0 -9.2873,-1.034 -10.5537,-2.3012 -3.901,-3.901 5.0479,-11.6904 13.4335,-11.6904 9.0252,0 12.1882,-5.913 12.1882,-22.7894 0,-10.1898 -1.2587,-11.8685 -9.6189,-12.8321 -13.5005,-1.5522 -15.6313,-15.6431 -2.8509,-18.8519 12.0398,-3.0223 11.6479,-12.5115 -1.6151,-39.0526 -10.8955,-21.8039 -32.8732,-45.0505 -51.8838,-54.8832 l -10.8014,-5.5856 -6.8376,13.4037 c -3.7602,7.372 -12.5725,20.266 -19.5823,28.6559 -14.6303,17.5117 -24.4121,35.585 -33.4017,61.7148 l -6.3049,18.3244 9.3594,1.0993 c 5.1479,0.6065 13.5158,-0.3673 18.595,-2.1639 6.7536,-2.3852 13.559,-1.6108 25.3231,2.8806 21.009,8.0252 30.6042,20.2533 29.5753,37.6963 -0.4351,7.372 1.0917,15.2843 3.3921,17.5847 2.3004,2.3012 4.1826,10.1635 4.1826,17.4753 0,17.0316 8.8318,17.9129 24.3188,2.4268 z m -45.3872,-115.257 c -3.163,-7.6366 -3.3513,-11.7632 -0.6599,-14.4555 6.9776,-6.9784 14.7321,-0.2358 14.7321,12.7922 0,15.599 -7.9123,16.5329 -14.0722,1.6633 z m 39.3012,6.5348 c -2.3327,-2.3318 -4.2412,-9.5434 -4.2412,-16.0265 0,-10.2237 1.0442,-11.6403 7.8708,-10.6699 6.6314,0.9424 7.8699,3.2742 7.8699,14.8178 0,14.4242 -4.4049,18.9732 -11.4995,11.8786 z" fill="#00B894" transform="translate(-10.587179,56.66984) matrix(0.26458333,0,0,0.26458333,251.32162,988.91256)"/>
</svg>