<?xml version="1.0" ?><svg height="313.04898mm" viewBox="0 0 149.93457 313.04898" width="149.93457mm" xmlns="http://www.w3.org/2000/svg">
    <path d="m 43449.078,14851.412 c -67.441,0.523 -89.372,46.066 -94.564,93.611 -6.598,60.862 34.741,96.49 81.853,98.438 47.113,1.949 93.711,-57.706 95.772,-77.654 2.062,-19.947 -3.712,-111.798 -76.391,-114.303 -2.271,-0.08 -4.494,-0.109 -6.67,-0.09 z m -60.279,231.219 c -48.611,1.936 -65.333,61.024 -76.559,100.867 -12.387,43.963 -31.828,208.897 -7.935,311.318 23.892,102.421 68.583,108.413 90.299,117.489 21.716,9.076 93.134,0.586 103.396,-17.809 10.262,-18.396 9.809,-177.019 9.809,-177.019 0,0 2.39,-178.017 -17.149,-245.647 -19.539,-67.63 -66.184,-84.124 -85.722,-87.881 -5.741,-1.107 -11.11,-1.518 -16.139,-1.318 z" fill="#FFFFFF" paint-order="markers stroke fill" transform="translate(-165.02483,77.191657) matrix(0.26458333,0,0,0.26458333,-10385.454,-3358.1061) translate(-3313.5291,-2437.8203)"/>
    <path d="m 39948.796,13583.484 c -41.387,0 -72.97,-44.015 -72.97,-72.868 0,-9.132 19.023,-29.037 64.573,-67.568 24.808,-20.986 66.775,-72.493 84.2,-103.34 15.467,-27.385 21.587,-47.9 30.876,-103.487 9.412,-56.37 9.4,-59.088 -0.281,-59.088 -11.687,0 -44.902,-36.219 -58.792,-64.114 -20.156,-40.481 -34.132,-124.404 -34.418,-192.463 l -0.09,-23.144 -17.028,-10.023 c -19.886,-11.712 -32.825,-30.454 -26.316,-45.753 12.477,-29.324 38.03,-48.371 58.07,-69.046 6.434,-19.474 23.467,-62.615 32.529,-81.735 22.175,-46.8 34.397,-55.479 78.153,-55.479 29.095,0 31.543,0.676 51.913,14.263 12.754,8.511 25.88,21.4 32.546,31.961 16.107,25.514 29.622,71.459 29.622,100.697 0,20.8 2.122,28.571 14.645,53.594 21.575,43.124 22.735,43.593 47.576,19.128 11.371,-11.197 30.228,-33.597 41.907,-49.777 34.146,-47.309 32.965,-44.432 25.092,-61.099 -8.955,-18.963 -11.821,-44.998 -5.758,-52.334 6.42,-7.775 17.302,-7.109 25.957,1.586 7.139,7.172 7.297,7.15 13.296,-2.049 3.338,-5.121 10.391,-11.289 15.666,-13.705 8.403,-3.846 10.475,-3.306 16.635,4.338 4.035,5.007 9.385,7.825 12.549,6.603 6.892,-2.657 16.955,7.059 16.955,16.371 0,3.85 3.186,8.013 7.078,9.258 15.496,4.941 11.479,34.717 -7.629,56.584 -14.861,17.006 -36.148,23.756 -54.223,17.187 -15.003,-5.452 -15.53,-5.026 -34.623,27.876 -13.335,22.977 -38.719,52.942 -62.027,73.21 -12.901,11.221 -20.687,15.152 -30.003,15.152 -16.687,0 -33.315,-14.393 -41.493,-35.912 -3.533,-9.293 -7.078,-16.239 -7.88,-15.432 -0.8,0.805 1.032,25.798 4.074,55.542 8.052,78.73 11.549,206.88 6.384,225.925 -5.37,19.783 -14.634,34.847 -31.934,40.509 l -12.991,6.195 18.273,24.257 c 42.064,55.84 70.368,116.185 118.196,251.994 16.013,45.471 30.232,84.02 31.599,85.663 4.588,5.513 45.086,-12.943 69.282,-31.578 28.359,-21.841 40.477,-24.916 42.128,-10.683 2.845,24.55 -51.834,63.673 -100.754,72.094 -31.441,5.412 -44.428,2.257 -44.428,-10.794 0,-11.675 -59.067,-174.227 -84.233,-231.801 -19.899,-45.517 -47.781,-93.534 -69.347,-119.418 -12.447,-14.935 -17.521,-16.203 -34.654,-20.966 l -20.258,-3.689 -2.287,39.682 c -2.616,45.388 -12.486,88.228 -27.041,117.346 -24.023,48.063 -79.296,112.443 -124.218,144.69 -12.862,9.236 -23.387,18.728 -23.387,21.098 0,2.367 4.389,10.673 9.755,18.454 11.14,16.149 28.894,23.984 62.864,27.742 26.964,2.981 32.156,4.834 32.156,11.472 0,13.03 -40.028,16.874 -65.484,16.874 z m 140.325,-426.863 c 0,-0.944 -4.118,-7.812 -9.153,-15.266 -5.031,-7.453 -8.219,-15.989 -7.083,-18.967 3.932,-10.291 17.352,-5.339 41.373,15.265 13.258,11.373 25.33,20.678 26.819,20.678 1.491,0 10.523,-4.977 20.073,-11.063 22.452,-14.309 23.704,-30.941 18.315,-110.965 -10.387,-154.2 -12.613,-202.934 -10.65,-233.183 3.547,-54.599 -13.273,-109.833 -39.412,-129.439 -18.293,-13.716 -25.923,-16.947 -46.526,-19.694 -17.322,-2.308 -19.777,-1.611 -31.871,9.057 -9.084,8.016 -17.425,22.041 -27.197,45.736 -7.756,18.798 -13.358,34.925 -12.445,35.839 0.91,0.912 17.38,-12.716 36.605,-30.29 19.225,-17.574 38.031,-31.951 41.794,-31.951 20.694,0 -8.149,38 -63.315,83.423 -14.918,12.284 -28.954,25.767 -31.191,29.969 -2.239,4.202 -4.999,23.274 -6.133,42.383 l -2.061,34.746 39.933,16.124 c 36.762,14.848 40.453,15.653 46.487,10.164 11.316,-10.288 33.153,-17.579 45.326,-15.136 8.138,1.635 15.37,7.797 25.052,21.339 12.483,17.459 13.26,20.019 9.372,30.821 -2.329,6.481 -4.238,14.064 -4.238,16.862 0,2.791 -2.798,8.18 -6.217,11.974 -3.418,3.8 -8.092,10.699 -10.383,15.338 -4.477,9.058 -16.065,12.33 -30.65,8.65 -13.544,-3.415 -38.419,-27.7 -41.801,-40.811 -2.618,-10.159 -6.895,-13.147 -36.476,-25.496 -18.429,-7.696 -33.16,-13.865 -37.203,-16.159 -2.658,7.704 2.652,90.419 11.636,129.1 13.998,60.289 39.271,109.897 68.768,118.269 15,4.254 22.452,5.147 22.452,2.683 z m -122.785,-333.677 c 0,0 -1.405,0.869 -8.088,7.867 -10.966,11.483 -13.146,20.472 -5.113,26.424 6.173,4.578 9.025,6.609 9.025,6.609 1.35,-5.532 2.968,-36.064 4.176,-40.9 z m 120.773,-213.38 c -70.374,-32.927 -81.668,-126.129 -22.137,-182.698 10.991,-10.446 24.401,-20.68 29.796,-22.741 17.754,-6.783 61.69,-4.171 84.161,5.005 24.338,9.935 33.428,24.394 43.265,68.831 5.36,24.203 7.177,27.695 14.397,27.695 11.605,0 22.618,8.933 19.873,16.124 -1.246,3.262 -7.58,6.468 -14.08,7.124 -9.918,1.002 -12.593,3.482 -16.673,15.472 -20.665,60.719 -84.246,90.621 -138.602,65.188 z m 74.981,-25.891 c 11.228,-5.577 31.747,-25.915 37.741,-37.407 8.092,-15.52 6.229,-43.114 -5.144,-76.248 -9.982,-29.089 -10.808,-30.2 -27.061,-36.458 -10.462,-4.026 -27.845,-6.531 -46.256,-6.66 -29.115,-0.195 -29.656,-0.02 -42.19,13.323 -17.801,18.969 -24.251,33.181 -26.536,58.5 -2.674,29.632 5.813,51.223 27.763,70.635 23.783,21.035 56.576,26.781 81.683,14.315 z m 9.61,-90.871 c -6.571,-7.953 -3.411,-19.105 5.41,-19.105 5.718,0 7.432,2.533 7.432,10.967 0,12.519 -6.057,16.357 -12.842,8.138 z" fill="#00B894" transform="translate(-165.02483,77.191657) matrix(0.26458333,0,0,0.26458333,-10385.454,-3358.1061)"/>
</svg>