<?xml version="1.0" ?><svg height="314.62851mm" viewBox="0 0 149.93378 314.62851" width="149.93378mm" xmlns="http://www.w3.org/2000/svg">
    <path d="m 42132.305,14860.412 c -67.441,0.523 -89.372,46.066 -94.565,93.611 -6.598,60.862 34.742,96.49 81.854,98.438 47.113,1.949 93.708,-57.708 95.769,-77.656 2.062,-19.947 -3.709,-111.796 -76.388,-114.301 -2.272,-0.08 -4.495,-0.109 -6.67,-0.09 z m -66.569,221.106 c -48.61,1.923 -65.333,60.626 -76.558,100.211 -12.387,43.678 -31.829,207.54 -7.936,309.296 23.892,101.756 68.585,107.708 90.301,116.725 21.716,9.017 93.132,0.583 103.395,-17.693 10.262,-18.276 9.808,-175.869 9.808,-175.869 0,0 2.393,-176.86 -17.146,-244.051 -19.539,-67.19 -66.184,-83.576 -85.723,-87.309 -5.74,-1.1 -11.112,-1.509 -16.141,-1.31 z" fill="#FFFFFF" paint-order="markers stroke fill" transform="translate(-53.400403,36.91958) matrix(0.26458333,0,0,0.26458333,-10147.812,-3316.2547) translate(-3313.5291,-2437.8203)"/>
    <path d="m 42119.977,14832.164 c -2.288,-0.02 -4.735,0.01 -7.407,0.08 -27.857,0.707 -68.618,13.356 -107.644,33.41 -31.325,16.094 -35.409,20.807 -32.367,37.356 2.187,11.89 1.126,13.714 -14.727,25.33 -9.532,6.984 -18.139,16.785 -19.463,22.17 -3.336,13.565 8.77,28.798 27.906,35.109 14.863,4.902 15.296,5.481 9.959,13.258 -11.221,16.34 -2.733,33.156 16.729,33.156 8.174,0 11.09,2.183 12.932,9.676 3.224,13.104 17.788,19.715 30.453,13.826 6.765,-3.143 11.7,-3.283 16.84,-0.476 4.975,2.704 9.527,2.726 14.427,0.05 5.167,-2.822 10.629,-2.37 19.647,1.625 v 0.01 c 15.626,6.921 49.202,7.113 67.689,0.385 28.743,-10.47 53.716,-37.463 64.547,-69.776 4.084,-12.174 6.756,-14.69 16.674,-15.709 6.5,-0.668 12.834,-3.922 14.08,-7.232 2.742,-7.29 -8.264,-16.371 -19.844,-16.371 -7.144,0 -9.023,-3.577 -14.22,-27.061 -3.296,-14.884 -9.3,-34.689 -13.34,-44.011 -6.587,-15.188 -10.389,-18.437 -36.516,-31.155 -22.17,-10.794 -30.341,-13.508 -46.355,-13.652 z m 53.115,53.174 c 2.618,-0.06 4.04,1.464 6.297,4.529 7.824,10.622 19.523,53.841 19.523,72.119 0,9.334 -2.382,21.606 -5.293,27.278 -5.993,11.672 -26.513,32.319 -37.74,37.984 v 0 c -8.69,4.382 -31.962,8.556 -37.42,6.709 -2.058,-0.696 -8.383,-2.307 -14.055,-3.584 l -10.318,-2.322 9.412,-18.947 c 11.253,-22.658 20.572,-57.368 20.572,-76.623 0,-16.522 12.584,-31.44 35.551,-42.151 7.039,-3.281 10.853,-4.929 13.471,-4.99 z m -2.194,30.244 c -8.821,0 -11.982,11.325 -5.412,19.4 6.785,8.342 12.844,4.445 12.844,-8.263 0,-8.565 -1.715,-11.137 -7.432,-11.137 z m -90.13,159.482 c -43.756,0 -55.978,8.661 -78.153,55.37 -9.062,19.081 -26.095,62.137 -32.529,81.574 -20.04,20.633 -45.593,39.644 -58.07,68.91 -6.509,15.269 6.43,33.973 26.316,45.662 l 17.027,10.004 0.09,23.098 c 0.286,67.925 14.262,151.683 34.418,192.084 13.89,27.839 47.106,63.988 58.793,63.988 9.681,0 9.693,2.712 0.281,58.971 -9.289,55.477 -15.41,75.954 -30.877,103.285 -17.425,30.786 -59.391,82.19 -84.199,103.135 -45.55,38.455 -64.572,58.322 -64.572,67.435 0,28.797 31.582,72.725 72.969,72.725 v 0 c 25.456,0 65.484,-3.836 65.484,-16.84 0,-6.625 -5.192,-8.475 -32.156,-11.451 -33.97,-3.749 -51.723,-11.571 -62.863,-27.688 -5.366,-7.766 -9.756,-16.055 -9.756,-18.418 0,-2.364 10.524,-11.838 23.386,-21.056 44.922,-32.183 100.196,-96.436 124.219,-144.405 14.555,-29.06 24.425,-71.814 27.041,-117.113 l 2.287,-39.605 20.258,3.683 c 17.133,4.753 22.207,6.019 34.654,20.924 21.566,25.833 49.449,73.755 69.348,119.182 25.166,57.46 84.232,219.691 84.232,231.343 0,13.025 12.987,16.176 44.428,10.774 48.92,-8.405 103.599,-47.449 100.754,-71.951 -1.651,-14.205 -13.77,-11.136 -42.129,10.662 -24.196,18.598 -64.693,37.017 -69.281,31.515 -1.367,-1.64 -15.587,-40.113 -31.6,-85.494 -47.828,-135.541 -76.131,-195.768 -118.195,-251.498 l -18.273,-24.209 12.992,-6.183 c 17.3,-5.651 26.563,-20.686 31.933,-40.43 5.165,-19.006 1.668,-146.904 -6.384,-225.479 -3.042,-29.686 -4.875,-54.628 -4.075,-55.431 0.802,-0.806 4.348,6.125 7.881,15.4 8.178,21.476 24.805,35.842 41.492,35.842 9.316,0 17.103,-3.924 30.004,-15.123 23.308,-20.228 48.693,-50.135 62.028,-73.067 19.093,-32.837 19.62,-33.262 34.623,-27.82 18.075,6.556 39.361,-0.179 54.222,-17.152 19.108,-21.824 23.125,-51.543 7.629,-56.473 -3.892,-1.244 -7.078,-5.397 -7.078,-9.24 0,-9.293 -10.063,-18.99 -16.955,-16.338 -3.164,1.219 -8.514,-1.593 -12.549,-6.59 -6.16,-7.629 -8.232,-8.168 -16.635,-4.33 -5.275,2.412 -12.328,8.567 -15.666,13.678 -5.999,9.181 -6.157,9.202 -13.296,2.045 -8.655,-8.678 -19.537,-9.343 -25.957,-1.584 -6.063,7.322 -3.198,33.306 5.757,52.232 7.873,16.634 9.055,13.763 -25.091,60.979 -11.679,16.148 -30.536,38.502 -41.907,49.677 -24.841,24.417 -26.001,23.949 -47.576,-19.089 -12.523,-24.974 -14.644,-32.729 -14.644,-53.489 0,-29.18 -13.516,-75.034 -29.623,-100.498 -6.666,-10.54 -19.791,-23.403 -32.545,-31.898 -20.37,-13.56 -22.819,-14.235 -51.914,-14.235 z m -15.012,17.518 c 2.855,0.09 6.257,0.481 10.588,1.057 20.603,2.741 28.232,5.966 46.525,19.656 26.139,19.567 42.959,74.691 39.412,129.182 -1.963,30.19 0.264,78.828 10.651,232.724 5.389,79.866 4.135,96.465 -18.317,110.746 -9.55,6.075 -18.581,11.041 -20.072,11.041 -1.489,0 -13.56,-9.285 -26.818,-20.636 -24.021,-20.563 -37.441,-25.507 -41.373,-15.235 -1.136,2.971 2.051,11.492 7.082,18.93 5.035,7.44 9.154,14.294 9.154,15.236 0,2.459 -7.453,1.567 -22.453,-2.678 -29.497,-8.356 -54.77,-57.867 -68.768,-118.037 -8.984,-38.605 -14.295,-121.157 -11.637,-128.845 4.043,2.289 18.775,8.447 37.204,16.127 29.581,12.325 33.858,15.307 36.476,25.445 3.382,13.085 28.257,37.322 41.801,40.73 14.585,3.673 26.173,0.408 30.65,-8.632 2.291,-4.63 6.965,-11.515 10.383,-15.307 3.419,-3.787 6.217,-9.165 6.217,-11.951 0,-2.792 1.909,-10.36 4.238,-16.828 3.888,-10.781 3.11,-13.336 -9.373,-30.76 -9.682,-13.515 -16.913,-19.665 -25.051,-21.297 -12.173,-2.439 -34.01,4.837 -45.326,15.105 -6.034,5.478 -9.724,4.674 -46.486,-10.144 l -39.934,-16.092 2.061,-34.678 c 1.134,-19.071 3.894,-38.104 6.133,-42.298 2.237,-4.194 16.273,-17.653 31.191,-29.913 55.166,-45.333 84.009,-83.257 63.315,-83.257 -3.763,0 -22.568,14.349 -41.793,31.888 -19.225,17.539 -35.696,31.141 -36.606,30.231 -0.913,-0.913 4.689,-17.007 12.445,-35.768 9.772,-23.648 18.114,-37.646 27.198,-45.646 9.07,-7.986 12.718,-10.373 21.283,-10.096 z m -105.953,169.682 c -1.208,4.826 -2.826,35.297 -4.176,40.818 0,0 -2.852,-2.027 -9.025,-6.596 -8.033,-5.941 -5.853,-14.911 5.113,-26.371 6.683,-6.984 8.088,-7.851 8.088,-7.851 z" fill="#00B894" transform="translate(-53.400403,36.91958) matrix(0.26458333,0,0,0.26458333,-10147.812,-3316.2547) translate(-3313.5291,-2437.8203)"/>
</svg>