<?xml version="1.0" ?><svg height="321.21857mm" viewBox="0 0 149.9344 321.21857" width="149.9344mm" xmlns="http://www.w3.org/2000/svg">
    <path d="m 41360.363,14870.709 c -67.44,0.523 -89.372,46.068 -94.564,93.613 -6.598,60.862 34.741,96.488 81.853,98.436 47.113,1.949 93.711,-57.706 95.772,-77.654 2.062,-19.947 -3.712,-111.798 -76.391,-114.303 -2.271,-0.08 -4.494,-0.109 -6.67,-0.09 z m -69.968,222.9 c -48.611,1.905 -65.333,60.05 -76.559,99.258 -12.387,43.263 -31.829,205.568 -7.936,306.356 23.892,100.788 68.583,106.681 90.299,115.613 21.716,8.931 93.135,0.577 103.397,-17.525 10.262,-18.102 9.806,-174.196 9.806,-174.196 0,0 2.393,-175.178 -17.146,-241.73 -19.539,-66.551 -66.184,-82.782 -85.723,-86.479 -5.74,-1.09 -11.11,-1.494 -16.138,-1.297 z" fill="#FFFFFF" paint-order="markers stroke fill" transform="translate(53.439657,50.181124) matrix(0.26458333,0,0,0.26458333,-10048.793,-3323.4109) translate(-3313.5291,-2437.8203)"/>
    <path d="m 41187.383,14809.127 c -7.647,-0.648 -14.547,5.825 -14.547,17.578 0,7.862 -0.807,8.297 -7.494,4.037 -5.653,-3.598 -9.107,-3.714 -14.033,-0.457 -6.685,4.419 -7.292,9.25 -3.223,25.789 2.001,8.132 0.916,9.577 -7.984,10.623 -9.24,1.081 -10.258,2.649 -9.899,15.223 0.303,10.53 -1.286,14.463 -6.377,15.82 -8.26,2.21 -13.409,20.616 -8.092,28.977 2.337,3.676 8.48,5.868 15.493,5.531 10.241,-0.494 11.375,0.446 9.537,7.92 -2.442,9.925 6.634,19.442 15.306,16.045 3.845,-1.506 6.932,0.832 9.223,6.978 1.894,5.08 6.853,11.101 11.021,13.375 6.134,3.349 9.094,2.592 15.549,-3.996 l 7.977,-8.134 10.668,8.044 c 12.818,9.67 20.635,10.223 25.263,1.788 5.125,-9.343 10.612,-3.52 13.391,14.211 4.956,31.621 29.825,64.024 60.258,78.513 v 0 c 54.171,25.79 117.818,-4.655 138.461,-66.24 4.08,-12.171 6.75,-14.689 16.672,-15.707 6.499,-0.668 12.833,-3.926 14.08,-7.235 2.745,-7.299 -8.268,-16.371 -19.873,-16.371 -7.221,0 -9.038,-3.55 -14.399,-28.123 -3.373,-15.464 -9.856,-35.599 -14.408,-44.74 -7.073,-14.204 -11.522,-17.934 -30.656,-25.68 -28.822,-11.672 -75.669,-11.052 -93.619,1.241 -15.689,10.744 -35.547,8.626 -35.547,-3.793 0,-10.175 -6.402,-13.952 -15.533,-9.174 -6.589,3.449 -12.685,-5.471 -8.481,-12.412 3.362,-5.554 -8.972,-22.395 -16.404,-22.395 -3.612,0 -10.238,2.625 -14.729,5.832 -7.608,5.441 -8.579,5.18 -14.357,-3.816 -3.798,-5.914 -8.656,-8.865 -13.244,-9.254 z m 201.01,81.555 c 5.62,-0.28 10.625,0.628 13.634,2.966 8.691,6.754 25.266,59.929 25.266,81.063 0,9.71 -2.381,22.291 -5.295,27.961 -5.991,11.671 -26.511,32.321 -37.74,37.982 -23.569,11.886 -57.75,6.819 -78.139,-11.576 l -13.609,-12.279 5.97,-17.18 c 3.283,-9.449 5.123,-22.552 4.086,-29.119 -1.554,-9.862 -0.326,-12.663 7.059,-16.096 4.921,-2.285 10.019,-8.537 11.336,-13.884 2.79,-11.335 21.078,-32.528 28.072,-32.528 2.644,0 8.282,-3.223 12.531,-7.164 6.386,-5.92 17.462,-9.681 26.829,-10.146 z m 10.886,38.306 c -8.821,0 -11.982,11.326 -5.412,19.401 6.786,8.347 12.844,4.447 12.844,-8.264 0,-8.565 -1.714,-11.137 -7.432,-11.137 z m -96.56,157.807 c -43.756,0 -55.978,8.571 -78.153,54.791 -9.062,18.882 -26.095,61.486 -32.529,80.719 -20.04,20.418 -45.593,39.229 -58.07,68.189 -6.509,15.11 6.43,33.619 26.316,45.186 l 17.028,9.898 0.09,22.858 c 0.286,67.215 14.262,150.096 34.418,190.074 13.89,27.548 47.106,63.318 58.793,63.318 9.681,0 9.694,2.686 0.282,58.356 -9.289,54.897 -15.41,75.158 -30.877,102.203 -17.425,30.465 -59.392,81.33 -84.2,102.056 -45.55,38.053 -64.574,57.713 -64.574,66.731 0,28.496 31.584,71.963 72.971,71.963 v 0 c 25.456,0 65.484,-3.796 65.484,-16.664 0,-6.556 -5.192,-8.385 -32.156,-11.33 -33.97,-3.71 -51.723,-11.449 -62.863,-27.397 -5.366,-7.685 -9.756,-15.888 -9.756,-18.226 0,-2.341 10.525,-11.715 23.387,-20.836 44.922,-31.847 100.195,-95.428 124.218,-142.895 14.555,-28.756 24.425,-71.066 27.041,-115.891 l 2.287,-39.187 20.258,3.643 c 17.133,4.704 22.208,5.956 34.655,20.705 21.566,25.563 49.446,72.985 69.345,117.937 25.166,56.859 84.235,217.393 84.235,228.924 0,12.888 12.986,16.005 44.427,10.66 48.92,-8.317 103.599,-46.954 100.754,-71.199 -1.651,-14.057 -13.77,-11.02 -42.129,10.551 -24.196,18.403 -64.693,36.629 -69.281,31.185 -1.367,-1.623 -15.587,-39.692 -31.6,-84.599 -47.828,-134.124 -76.131,-193.721 -118.195,-248.868 l -18.273,-23.957 12.992,-6.117 c 17.3,-5.592 26.564,-20.471 31.934,-40.008 5.165,-18.808 1.667,-145.367 -6.385,-223.121 -3.042,-29.374 -4.874,-54.056 -4.074,-54.851 0.802,-0.797 4.347,6.062 7.88,15.24 8.178,21.251 24.806,35.467 41.493,35.467 9.316,0 17.102,-3.884 30.003,-14.965 23.308,-20.017 48.693,-49.61 62.028,-72.301 19.093,-32.495 19.62,-32.916 34.623,-27.531 18.075,6.487 39.362,-0.177 54.223,-16.973 19.108,-21.595 23.124,-51.004 7.628,-55.883 -3.892,-1.23 -7.078,-5.34 -7.078,-9.142 0,-9.196 -10.063,-18.792 -16.955,-16.168 -3.164,1.206 -8.514,-1.577 -12.549,-6.522 -6.16,-7.548 -8.231,-8.081 -16.634,-4.283 -5.275,2.387 -12.328,8.475 -15.666,13.533 -5.999,9.085 -6.158,9.109 -13.297,2.026 -8.655,-8.587 -19.537,-9.247 -25.957,-1.569 -6.063,7.245 -3.197,32.959 5.758,51.688 7.873,16.46 9.054,13.618 -25.092,60.34 -11.679,15.979 -30.536,38.101 -41.907,49.16 -24.841,24.161 -26.001,23.697 -47.576,-18.891 -12.523,-24.713 -14.644,-32.387 -14.644,-52.929 0,-28.875 -13.516,-74.253 -29.623,-99.45 -6.666,-10.43 -19.791,-23.157 -32.545,-31.562 -20.37,-13.419 -22.819,-14.086 -51.914,-14.086 z m -15.012,17.334 c 2.855,0.09 6.257,0.475 10.588,1.045 20.603,2.713 28.232,5.905 46.525,19.451 26.139,19.362 42.959,73.911 39.412,127.832 -1.963,29.874 0.264,78.002 10.651,230.289 5.389,79.03 4.135,95.456 -18.317,109.588 -9.55,6.011 -18.581,10.926 -20.072,10.926 -1.489,0 -13.56,-9.19 -26.818,-20.422 -24.021,-20.348 -37.441,-25.238 -41.373,-15.074 -1.136,2.94 2.051,11.37 7.082,18.73 5.035,7.362 9.154,14.145 9.154,15.078 0,2.434 -7.453,1.55 -22.453,-2.65 -29.497,-8.269 -54.77,-57.261 -68.768,-116.801 -8.984,-38.202 -14.294,-119.89 -11.636,-127.498 4.043,2.265 18.774,8.357 37.203,15.957 29.581,12.196 33.858,15.147 36.476,25.18 3.382,12.948 28.257,36.932 41.801,40.304 14.585,3.635 26.174,0.403 30.65,-8.543 2.291,-4.581 6.965,-11.393 10.383,-15.146 3.419,-3.747 6.217,-9.069 6.217,-11.826 0,-2.763 1.909,-10.253 4.238,-16.654 3.888,-10.667 3.11,-13.194 -9.373,-30.436 -9.682,-13.374 -16.912,-19.461 -25.05,-21.076 -12.173,-2.413 -34.011,4.789 -45.327,14.949 -6.034,5.421 -9.724,4.625 -46.486,-10.039 l -39.934,-15.924 2.061,-34.314 c 1.134,-18.871 3.894,-37.706 6.133,-41.856 2.237,-4.151 16.273,-17.467 31.191,-29.599 55.166,-44.859 84.009,-82.387 63.315,-82.387 -3.763,0 -22.568,14.199 -41.793,31.555 -19.225,17.356 -35.696,30.815 -36.606,29.914 -0.913,-0.902 4.69,-16.83 12.446,-35.395 9.772,-23.401 18.113,-37.251 27.197,-45.168 9.07,-7.901 12.718,-10.264 21.283,-9.99 z m -105.953,167.906 c -1.208,4.775 -2.828,34.929 -4.178,40.393 0,0 -2.85,-2.007 -9.023,-6.528 -8.033,-5.878 -5.853,-14.755 5.113,-26.095 6.683,-6.911 8.088,-7.77 8.088,-7.77 z" fill="#00B894" transform="translate(53.439657,50.181124) matrix(0.26458333,0,0,0.26458333,-10048.793,-3323.4109) translate(-3313.5291,-2437.8203)"/>
</svg>