<?xml version="1.0" ?><svg height="196.12161mm" viewBox="0 0 303.59299 196.12161" width="303.59299mm" xmlns="http://www.w3.org/2000/svg">
    <path d="m 483.50065,1294.8305 c -9.8353,-0.5058 -110.4356,3.0332 -110.4356,3.0332 l 2.7402,154.5215 -13.3476,22.5703 20.6543,8.4727 c 0,0 -15.9733,9.2092 -22.6914,14.3515 -14.4103,11.0303 -6.3242,25.7325 -6.3242,25.7325 l -55.4278,-0.8868 c 0,0 3.0209,-12.0112 -11.2402,-19.2187 -14.2611,-7.2076 -33.2996,-16.1217 -52.2676,-15.5527 -18.968,0.569 -37.234,0.7577 -41.30853,5.8789 -4.0746,5.1211 -7.375,10.6855 -7.375,10.6855 0,0 -40.46602,-1.9599 -53.11133,5.627 -12.6453,7.5869 -19.38903,3.7937 -26.55469,18.9043 -7.165671,15.1104 -1.54627,26.8056 -0.84375,47.3535 0.70252,20.5478 -16.226431,59.3052 144.0878,58.9258 160.3144,-0.3794 170.0893,12.0377 205.4961,4.1347 35.4069,-7.903 48.1719,-17.8155 52.5977,-28.6269 4.4258,-10.8113 5.2081,-24.6965 1.9766,-31.0821 -3.2316,-6.3857 -0.5621,-10.6842 -4.5665,-13.5293 -4.0043,-2.8451 74.6739,1.4864 74.6739,1.4864 43.7301,1.1046 61.0302,-8.4543 62.0351,-19.8321 l -2.9492,-58.0937 -105.7285,-4.6152 h -8.4297 l 2.1074,-13.4668 c 0,0 102.2868,3.9839 104.1133,1.455 1.8265,-2.529 3.1609,-7.5865 4.0039,-16.0586 0.8431,-8.4718 -5.2695,-159.4512 -5.2695,-159.4512 0,0 -136.78,-2.2129 -146.6152,-2.7187 z m -234.48257,77.1228 c 0,0 -32.36905,-3.6361 -45.95935,8.2074 -7.6357,6.6543 -17.19977,41.2617 -3.55548,69.5033 4.6705,9.6672 30.2959,23.5724 52.6712,19.1314 22.3752,-4.4411 27.5125,-32.7578 26.6347,-45.2012 -1.9817,-28.0922 -19.44837,-42.9412 -29.79107,-51.6409 z m 174.99427,95.5647 58.6074,1.2168 3.043,0.9727 -0.4746,12.4101 -63.4747,1.7657 z" fill="#FFFFFF" paint-order="markers stroke fill" transform="translate(252.4745,-0.10021841) matrix(0.55832499,0,0,0.55832499,-310.09893,-720.54811)"/>
    <path d="m 437.06777,1622.1527 c -6.4585,-1.6708 -10.5516,-8.1868 -11.9864,-19.0812 -6.592,-50.0524 -21.2167,-65.9266 -68.198,-74.0239 -10.8452,-1.8692 -17.7042,-2.1079 -39.1489,-1.3621 -39.376,1.3692 -71.4177,-2.0982 -110.7858,-11.9883 -26.8523,-6.746 -41.6497,-9.0248 -51.8492,-7.9851 -17.97096,1.8322 -30.44739,6.3607 -40.92276,14.8535 -13.13308,10.6476 -12.93179,-0.028 0.2244,-11.9007 4.67293,-4.2169 18.22971,-10.1293 28.42896,-12.3984 9.6652,-2.1504 32.5882,-2.0862 39.5951,0.1107 2.1222,0.6655 3.5836,-0.4231 6.9166,-5.1516 3.6654,-5.2003 5.405,-6.3595 13.1164,-8.7413 15.8203,-4.8864 52.2161,-2.8468 70.3641,3.9433 14.6915,5.4968 28.9122,18.2989 28.9122,26.028 v 3.1767 l 19.6667,-0.7816 c 11.3812,-0.4524 24.5824,-0.1695 31.3351,0.6714 l 11.6684,1.4532 11.6649,-12.0749 c 6.4157,-6.6412 11.8433,-12.5548 12.0614,-13.1415 0.2181,-0.5865 -3.3082,-2.3176 -7.8363,-3.8468 -10.4454,-3.5274 -20.7167,-10.0788 -21.7006,-13.8413 -1.1511,-4.4019 3.7496,-12.8983 14.3292,-24.8428 5.2128,-5.8853 17.2393,-19.4447 26.7255,-30.1319 9.5891,-10.8033 18.6097,-19.7732 20.3153,-20.2013 4.1407,-1.0392 19.8057,1.7872 26.6564,4.8096 7.0208,3.0975 8.9624,6.6183 7.8266,14.1924 -0.867,5.7811 -1.9718,7.5279 -16.7672,26.5081 -5.8795,7.5426 -6.278,8.5768 -6.9692,18.0852 -1.2449,17.1272 -6.3377,24.6506 -22.3983,33.0878 -10.6583,5.5993 -10.2607,5.275 -20.1407,16.4192 -7.8879,8.897 -8.0616,9.248 -4.9779,10.0545 1.7574,0.4595 7.8232,3.1519 13.4796,5.9829 11.725,5.8687 19.7228,13.9908 26.5417,26.9548 2.3382,4.4452 4.4116,8.2823 4.6075,8.5267 0.196,0.2445 1.4892,-0.6884 2.8738,-2.0729 8.4131,-8.4131 33.4364,-17.7048 47.6805,-17.7048 15.3721,0 27.3843,8.1228 32.5907,22.0382 4.0448,10.8107 4.6321,17.1576 2.8459,30.7543 -1.9445,14.8011 -4.7878,21.2075 -9.4123,21.2075 -3.9429,0 -4.0673,-1.7524 -1.5779,-22.2371 0.8624,-7.0969 1.2496,-13.7335 0.8604,-14.7479 -0.482,-1.2561 -3.8982,1.2544 -10.712,7.8722 -21.146,20.5374 -45.4355,34.2356 -55.9039,31.5273 z m 18.6946,-17.2603 c 11.0962,-6.4447 24.0659,-16.3065 36.7763,-27.9637 6.637,-6.0871 7.3035,-7.1647 5.971,-9.6546 -2.3181,-4.3312 -9.816,-9.2521 -15.5815,-10.2262 -7.2676,-1.2279 -22.2645,1.561 -36.9185,6.8656 -6.8241,2.4702 -13.519,4.4913 -14.8775,4.4913 -2.2944,0 -2.3456,0.4135 -0.7204,5.8137 0.9623,3.1975 2.4816,11.7475 3.3763,19 0.8946,7.2524 2.1697,14.2363 2.8334,15.5196 2.0046,3.8759 7.8781,2.6958 19.1409,-3.8457 z m -163.3612,-88.2476 c 0,-3.1097 -10.3646,-12.5795 -17.7227,-16.1925 -11.0466,-5.4244 -23.3837,-7.906 -44.2774,-8.906 -20.4119,-0.977 -30.7487,0.645 -35.3546,5.5478 -3.5473,3.7759 -4.9817,3.0175 16.0213,8.4706 19.7237,5.1208 43.4744,9.3854 59.7817,10.7344 18.4398,1.5254 21.5517,1.5753 21.5517,0.3457 z m 106.7297,-38.9952 c 2.5346,-3.5596 2.7976,-5.1553 2.0324,-12.3333 -1.7627,-16.5363 -1.8075,-16.2012 2.231,-16.666 2.9892,-0.3442 4.1737,0.4498 6.465,4.3333 1.5429,2.6149 2.9625,4.7545 3.1546,4.7545 0.1921,0 5.7373,-6.75 12.3226,-15 13.0403,-16.3369 19.685,-26.1574 18.5,-27.3424 -0.4165,-0.4165 -5.8691,-2.0805 -12.1169,-3.698 l -11.3598,-2.9406 -6.4034,7.4905 c -3.5219,4.1197 -9.7577,11.7397 -13.8575,16.9333 -4.0997,5.1935 -12.9279,15.6366 -19.6181,23.2067 -6.6902,7.5701 -11.9693,14.3483 -11.7312,15.0625 0.4084,1.2254 22.513,9.9034 25.8941,10.1658 0.8667,0.067 2.886,-1.7176 4.4872,-3.9663 z m -5.8564,-6.3497 c -2.9615,-3.2726 -2.7806,-4.2323 0.7933,-4.208 4.2588,0.029 6.86,2.0172 5.9028,4.5117 -1.0877,2.8344 -3.9746,2.7035 -6.6961,-0.3037 z m -12.54,-5.1115 c -3.0938,-1.2484 -1.695,-3.1169 2.3333,-3.1169 2.6667,0 4,0.6666 4,2 0,1.9484 -2.9733,2.4728 -6.3333,1.1169 z m 9.7423,-6.0803 c -3.4979,-4.994 -2.6002,-9.6332 2.7779,-14.3552 4.4509,-3.908 5.3635,-4.1856 11,-3.3466 7.0649,1.0514 9.4798,2.621 9.4798,6.1617 0,3.2515 -1.0387,3.1628 -3.8669,-0.3299 -2.8989,-3.58 -8.598,-3.6658 -13.2586,-0.1996 -4.1828,3.1111 -5.158,7.2512 -2.2722,9.6463 1.1354,0.9423 2.0644,2.5397 2.0644,3.5499 0,2.8528 -3.6193,2.1645 -5.9244,-1.1266 z m 25.9244,-19.0366 c 0,-1.1 0.9,-2 2,-2 1.1,0 2,0.9 2,2 0,1.1 -0.9,2 -2,2 -1.1,0 -2,-0.9 -2,-2 z m -5.7416,-1.5194 c -1.0652,-1.0652 0.1389,-3.1473 1.8202,-3.1473 0.6901,0 1.2547,0.9 1.2547,2 0,2.0619 -1.5733,2.6489 -3.0749,1.1473 z m -8.3302,-1.9301 c -1.3741,-2.2233 1.7162,-4.7727 3.5556,-2.9333 1.5385,1.5385 0.5756,4.3828 -1.4838,4.3828 -0.6468,0 -1.5791,-0.6523 -2.0718,-1.4495 z m 21.5718,-4.9475 c -0.3616,-0.585 -0.1576,-1.8725 0.4534,-2.861 1.5005,-2.4279 5.5574,-0.7562 4.5481,1.8741 -0.8331,2.1712 -3.8961,2.7755 -5.0015,0.9869 z m -6.1667,-3.492 c 0,-1.161 0.95,-2.111 2.1111,-2.111 2.3546,0 1.9445,2.8704 -0.5278,3.6944 -0.8708,0.2902 -1.5833,-0.4222 -1.5833,-1.5834 z m -6.4607,-1.3613 c 0.2534,-1.2231 1.0607,-2.1923 1.794,-2.1535 1.9791,0.104 1.6155,3.0875 -0.4606,3.7795 -1.1215,0.3739 -1.6214,-0.2356 -1.3334,-1.626 z m 21.1274,-6.6071 c 0,-1.0216 0.9,-2.2026 2,-2.6248 1.3603,-0.522 2,0.072 2,1.8574 0,1.4442 -0.8996,2.6248 -2,2.6248 -1.1,0 -2,-0.8359 -2,-1.8574 z m -6.9732,-0.2269 c -1.5566,-1.5565 0.5654,-4.5824 3.2136,-4.5824 1.7726,0 2.4772,0.7508 2.1753,2.318 -0.4547,2.3615 -3.8606,3.7927 -5.3889,2.2644 z m -8.7801,-2.2851 c -1.2816,-1.5442 -1.1871,-2.2969 0.46,-3.6638 2.9189,-2.4226 5.1813,0.099 2.8948,3.2252 -1.5098,2.0648 -1.9567,2.1232 -3.3548,0.4386 z m 173.8758,140.5675 c -0.3859,-0.6243 -1.112,-9.3127 -1.6136,-19.3075 -0.7516,-14.9762 -1.2869,-18.2849 -3.0439,-18.8133 -6.0113,-1.808 -47.2321,-3.706 -101.465,-4.6723 -33.3667,-0.5944 -61.7167,-1.518 -63,-2.0522 -3.8329,-1.5958 -2.6581,-4.3722 2.5817,-6.1015 3.4346,-1.1335 9.3582,-1.3411 19.6666,-0.6889 8.1134,0.5132 39.3517,1.4653 69.4183,2.1157 30.0667,0.6504 59.6019,1.8307 65.6339,2.6229 10.642,1.3978 11.1255,1.3406 16.3068,-1.9302 2.9368,-1.854 5.7191,-3.3708 6.1827,-3.3708 1.721,0 27.21,-12.435 27.21,-13.2746 0,-0.4796 -9.3606,-3.0385 -14.99074,-3.1603 -16.40451,-0.3551 -15.27329,-3.5468 -13.00926,-5.1905 1.37543,-0.9986 41.3998,-0.028 43.2626,1.7475 1.7579,1.6751 3.1583,14.1753 3.2915,29.3813 0.088,10.0682 -0.3332,13.2067 -1.9544,14.5522 -1.7075,1.4169 -2.4529,1.3293 -4.2863,-0.504 -1.6884,-1.6884 -2.3477,-5.4183 -2.7564,-15.5923 -0.6242,-15.5441 0.7214,-15.0161 -16.8904,-6.6273 -5.8666,2.7944 -14.1826,6.634 -18.48,8.5325 -6.7946,3.0017 -7.7197,3.844 -7.0953,6.4603 1.3268,5.56 2.5823,30.1381 1.7157,33.5906 -0.84,3.3468 -5.123,4.8094 -6.6845,2.2827 z m -68.7892,-65.09 c -2.5667,-0.244 -15.5104,-0.9596 -28.7638,-1.5904 -19.3627,-0.9215 -24.7985,-1.6063 -27.6667,-3.4856 -6.6819,-4.3781 -3.6191,-8.376 8.2208,-10.7305 6.1528,-1.2236 7.6216,-2.0347 7.9691,-4.4008 0.4706,-3.2043 1.8964,-3.0062 -26.203,-3.6404 -12.475,-0.2816 -15.8716,-1.4454 -14.5176,-4.9736 0.5359,-1.3967 4.6865,-2.1434 15.8437,-2.8502 15.4094,-0.9762 106.2053,1.0376 143.9822,3.1936 11.4756,0.655 22.059,0.8786 23.5186,0.4968 2.2946,-0.6 2.7535,-2.1684 3.3878,-11.5772 0.4036,-5.9857 0.6201,-42.5816 0.4813,-81.324 -0.2361,-65.909 -0.4055,-70.5528 -2.6327,-72.1813 -5.3917,-3.9427 -243.54,-5.2353 -247.4322,-1.3431 -1.109,1.109 -0.4337,47.4676 1.2623,86.656 1.4094,32.5656 0.86,39.3092 -3.2028,39.3092 -3.8006,0 -5.2394,-7.4109 -6.3421,-32.6666 -0.6084,-13.9334 -1.1359,-41.2499 -1.1722,-60.7034 -0.08,-42.6957 -0.3063,-41.9538 12.4068,-40.6182 4.5066,0.4734 24.3938,0.2525 44.1938,-0.491 33.4979,-1.2579 142.1522,-0.1293 192.2259,1.996 17.4652,0.7415 17.5668,0.7644 18.9725,4.2811 0.7772,1.9445 1.7651,11.6355 2.1951,21.5355 1.1152,25.6708 0.6451,137.4065 -0.6115,145.3554 -2.1048,13.3146 -4.9124,13.9762 -51.0902,12.0391 -58.5038,-2.4541 -57.7619,-2.4619 -57.2252,0.6055 0.59,3.3717 1.9214,4.175 8.7173,5.2597 10.1259,1.6161 15.145,8.0199 8.9038,11.36 -2.4002,1.2845 -14.583,1.5187 -25.421,0.4884 z m -1.596,-15.2773 0.4041,-4.836 -14.4041,-1.1066 c -7.9222,-0.6085 -15.004,-1.1324 -15.7373,-1.1641 -1.2931,-0.056 -1.2799,2.1131 0.05,8.2241 0.5923,2.7223 1.5349,2.984 12.2958,3.4146 17.8642,0.7145 16.933,0.9572 17.3916,-4.532 z m -290.7318,-1.2762 c -8.2923,-1.9548 -20.8735,-9.019 -27.0336,-15.1792 -10.6806,-10.6805 -16.6386,-26.5146 -16.6386,-44.2185 0,-14.3747 1.8607,-22.5997 7.0805,-31.2979 5.2915,-8.8176 11.8356,-13.3654 25.8299,-17.9509 19.5586,-6.4087 35.2353,-2.3185 48.6043,12.6812 7.7029,8.6424 11.0068,15.0259 13.9499,26.9519 l 2.1629,8.7648 5.8292,-0.6571 c 4.6437,-0.5235 6.0057,-0.1973 6.6967,1.6033 1.1868,3.0928 -1.0695,4.9922 -7.0856,5.9648 l -5.0678,0.8194 -0.7539,9.3152 c -1.2,14.8293 -4.5433,22.8256 -13.1361,31.4184 -11.4709,11.4709 -25.0198,15.4194 -40.4378,11.7846 z m 24.0277,-13.753 c 14.5689,-7.3631 18.7511,-13.9764 19.9561,-31.557 1.3581,-19.8144 -4.1356,-37.8826 -14.3145,-47.0786 -12.4347,-11.234 -24.8184,-14.1663 -40.5334,-9.5979 -9.1266,2.6532 -14.5901,7.1871 -19.207,15.9389 -3.3334,6.3188 -3.6011,8.0158 -3.6006,22.8263 4e-4,14.1212 0.3966,16.9393 3.3746,24 2.561,6.072 3.9547,7.8991 5.7831,7.5813 1.9048,-0.3309 2.2219,0.1707 1.5152,2.3974 -0.5109,1.6098 -0.1656,3.6933 0.8064,4.8645 3.1044,3.7405 13.3029,10.0624 20.292,12.5784 10.1688,3.6608 15.6344,3.2491 25.9281,-1.9533 z m -30.2798,-12.8016 c 0,-2.7643 3.4794,-7.1139 4.4447,-5.552 0.4332,0.7008 -0.3893,2.6866 -1.8276,4.413 -1.8195,2.1839 -2.6158,2.5304 -2.6171,1.139 z m -9.0709,-2.254 c 1.2397,-1.2396 2.6283,-1.8796 3.0859,-1.422 1.3122,1.3122 -0.7023,3.676 -3.1329,3.676 -2.0353,0 -2.0316,-0.1754 0.047,-2.254 z m 22.3174,-5.0007 c 0,-1.8765 0.6,-3.412 1.3334,-3.412 0.7333,0 1.3333,1.1645 1.3333,2.588 0,1.4233 -0.6,2.9588 -1.3333,3.412 -0.7562,0.4673 -1.3334,-0.6528 -1.3334,-2.588 z m 8.0001,-6.7453 c 0,-2.8766 0.5382,-4.4914 1.3333,-4 0.7333,0.4532 1.3333,2.2532 1.3333,4 0,1.7468 -0.6,3.5468 -1.3333,4 -0.7951,0.4913 -1.3333,-1.1235 -1.3333,-4 z m 8.8888,-1.5556 c -0.4888,-0.4888 -0.8888,-2.3623 -0.8888,-4.1632 0,-2.7594 0.3145,-3.0134 2,-1.6146 1.1,0.913 2,2.7864 2,4.1632 0,2.5151 -1.4554,3.2703 -3.1112,1.6146 z m 3.2364,-11.6268 c -1.0906,-1.3142 -1.1472,-2.186 -0.1806,-2.7835 0.7742,-0.4784 1.7774,0.095 2.2295,1.2721 1.1256,2.9332 -0.1115,3.8458 -2.0489,1.5114 z m -3.2001,-9.6703 c -0.469,-0.4689 -0.5497,-1.3427 -0.1795,-1.9417 0.8313,-1.3452 4.5877,-0.032 4.5877,1.6037 0,1.3681 -3.1375,1.6087 -4.4082,0.338 z m -31.5918,-6.4807 c 0,-2.2518 0.6111,-3.3518 1.6666,-3 0.9167,0.3056 1.6667,1.6556 1.6667,3 0,1.3444 -0.75,2.6944 -1.6667,3 -1.0555,0.3519 -1.6666,-0.7481 -1.6666,-3 z m -17.3334,0.8144 c 0,-2.1162 5.0743,-7.5105 6.1019,-6.4866 1.5128,1.5072 -1.7603,7.6722 -4.0733,7.6722 -1.1157,0 -2.0286,-0.5334 -2.0286,-1.1856 z m 10.3187,-0.4648 c -0.7667,-1.998 1.2077,-5.0162 3.2813,-5.0162 1.5839,0 1.2957,1.8437 -0.7189,4.5989 -1.5227,2.0824 -1.8999,2.1439 -2.5624,0.4173 z m 15.2358,-1.201 c 0.245,-1.7318 1.0455,-2.9986 1.7789,-2.8152 1.9682,0.492 1.6206,4.682 -0.4456,5.3706 -1.2195,0.4066 -1.6387,-0.3969 -1.3333,-2.5554 z m -32.2211,-2.9854 c 0,-3.8002 3.1638,-6.7693 6.0382,-5.6664 1.7784,0.6826 1.6508,1.3651 -0.9004,4.8159 -3.5808,4.8432 -5.1378,5.1011 -5.1378,0.8505 z m 42.2222,2.2812 c -0.4889,-0.4888 -0.8889,-1.7622 -0.8889,-2.8298 0,-1.5743 0.378,-1.6274 2,-0.2812 1.1,0.9129 2,2.1864 2,2.8298 0,1.3808 -1.8448,1.5475 -3.1111,0.2812 z m 8.7778,0 c -0.9167,-0.3698 -1.6667,-1.2642 -1.6667,-1.9874 0,-1.8762 5.6809,-0.7975 6.34,1.2038 0.552,1.6762 -1.5769,2.0331 -4.6733,0.7836 z m 362.3333,53.599 c -5.9772,-3.1682 -40.9502,-5.8611 -86.6666,-6.6736 -42.5173,-0.7556 -68.7142,-2.4782 -71.0852,-4.6742 -0.5968,-0.5528 24.94,-1.0833 56.7485,-1.179 51.7073,-0.1556 67.1068,0.3856 93.0507,3.27 l 7.3808,0.8206 -0.3,-56.4732 c -0.165,-31.0602 -0.5902,-58.5732 -0.9448,-61.1398 -0.3546,-2.5667 -0.691,-7.7442 -0.7474,-11.5055 l -0.1026,-6.8388 -19.6667,-0.8961 c -10.8167,-0.4928 -35.8667,-1.7836 -55.6667,-2.8684 -21.3789,-1.1712 -57.0692,-1.9102 -87.8766,-1.8192 l -51.8766,0.1529 0.7936,49.6097 c 0.7231,45.2007 0.2679,55.773 -2.2274,51.7355 -3.4706,-5.6156 -8.0932,-88.7745 -5.6567,-101.7621 l 0.8876,-4.731 30.1588,-1.6964 c 32.8284,-1.8466 75.1092,-1.1888 125.1307,1.9471 16.1333,1.0115 39.3105,2.246 51.5049,2.7436 12.1944,0.4976 22.9772,1.4027 23.9619,2.0112 1.4624,0.9037 1.7973,14.5813 1.8284,74.6816 0.037,72.1283 -0.015,73.6093 -2.6286,75.3136 -2.1954,1.4311 -3.2557,1.4261 -6,-0.028 z M 503.95667,1443.51 c -0.4889,-0.4829 -0.8889,-2.202 -0.8889,-3.8143 0,-3.7341 -4.8373,-9.9513 -7.7634,-9.978 -1.2301,-0.013 -3.1127,-0.5746 -4.1836,-1.252 -1.6591,-1.0494 -1.5606,-1.6586 0.6667,-4.1214 1.4375,-1.5895 4.9812,-4.0982 7.8748,-5.575 4.925,-2.5136 5.1018,-2.8016 2.7683,-4.5078 -3.6351,-2.6582 -10.025,-3.5491 -21.3516,-2.9771 -5.5062,0.278 -10.0112,0.087 -10.0112,-0.4259 0,-0.5122 3.306,-1.6176 7.3467,-2.4565 10.0698,-2.0904 15.32,-6.6621 15.32,-13.34 0,-8.31 -0.8656,-9.3239 -7.9607,-9.3239 -3.4881,0 -9.3277,-0.5662 -12.977,-1.2582 -11.5607,-2.1926 -37.2051,-16.0751 -29.6944,-16.0751 0.8746,0 7.6746,2.6423 15.1111,5.8716 19.395,8.4225 34.0861,9.54 38.5006,2.9288 0.5388,-0.8069 0.9888,-3.6735 1,-6.3703 0.025,-5.9825 -4.7992,-10.4301 -11.3129,-10.4301 -5.6286,0 -10.6581,-4.0889 -13.8189,-11.2344 -3.1224,-7.0587 -4.2492,-7.7959 -11.6887,-7.6465 -8.7011,0.1746 -17.2684,4.4505 -20.754,10.3581 -3.2922,5.5799 -4.9687,4.1028 -1.9559,-1.7233 3.9617,-7.6612 12.815,-12.4791 23.3733,-12.7195 8.1844,-0.1865 11.8452,1.978 14.759,8.726 3.0715,7.1135 6.1167,9.6795 12.6802,10.6845 7.1433,1.0939 11.5292,5.7514 12.3605,13.1262 0.5589,4.9584 0.1137,6.5381 -2.8269,10.0329 -2.9216,3.4721 -3.2761,4.7112 -2.1758,7.6053 0.9356,2.461 2.2847,3.4574 4.6808,3.4574 4.3029,0 4.3188,1.8046 0.033,3.7573 -2.2419,1.0216 -3.3333,2.5939 -3.3333,4.802 0,1.8059 -0.6,3.6541 -1.3334,4.1073 -2.5773,1.5928 -1.2942,4.3412 2.3687,5.0738 3.9829,0.7965 10.9647,5.6788 10.9647,7.6672 0,0.6677 -3.0967,2.7833 -6.8816,4.7013 l -6.8815,3.4871 4.376,3.4246 c 6.247,4.8891 10.642,16.3127 6.276,16.3127 -0.9778,0 -2.1778,-0.4 -2.6667,-0.8889 z m 21.0643,-7.1868 c -1.3512,-2.1863 0.5336,-8.0832 4.3708,-13.6752 4.3969,-6.4076 13.0799,-11.5824 19.4344,-11.5824 4.1062,0 4.9907,-0.5307 5.7186,-3.4309 1.3076,-5.21 -0.8932,-6.2524 -6.8204,-3.2306 -2.8712,1.4638 -6.5048,2.6615 -8.0747,2.6615 -8.0178,0 -17.9152,-12.7445 -17.9152,-23.0688 0,-3.6908 -0.8585,-5.9259 -3,-7.8104 l -3,-2.64 3.449,0.7304 c 2.9155,0.6173 3.9981,-0.108 7,-4.6935 1.953,-2.983 3.551,-5.8901 3.551,-6.4602 0,-0.57 -2.3515,-2.5926 -5.2255,-4.4946 -10.9828,-7.268 -15.2062,-16.8402 -11.8671,-26.8962 1.6676,-5.0224 2.0778,-5.3334 7.0339,-5.3334 5.0187,0 5.5752,0.4458 11.9941,9.6083 4.4707,6.3815 7.6268,9.6239 9.3979,9.6547 1.4667,0.025 6.5249,-2.9482 11.2405,-6.6082 7.368,-5.7189 9.4142,-6.6548 14.5495,-6.6548 7.3304,0 16.6574,5.0856 19.5359,10.6523 2.3933,4.6283 2.5765,12.5736 0.4817,20.8931 -1.7041,6.7672 -0.1536,9.2134 4.8591,7.6662 10.5847,-3.2668 15.3333,-1.1716 15.3333,6.7651 0,3.3621 -1.0333,5.3225 -4.2184,8.0025 -3.868,3.2547 -5.0312,3.5138 -14.003,3.1186 -9.3867,-0.4135 -9.7847,-0.3091 -9.7816,2.5689 0,3.7632 4.449,8.3333 8.1056,8.3333 1.523,0 4.5866,1.8174 6.8078,4.0386 3.5471,3.547 3.9263,4.637 3.1163,8.955 -1.2792,6.8187 -4.9208,11.436 -11.2813,14.3043 -2.9767,1.3423 -5.412,2.8531 -5.412,3.3573 0,1.8258 -6.1043,3.5668 -10.6022,3.024 -9.4926,-1.1456 -17.3978,-8.0486 -17.3978,-15.1924 0,-3.1209 -0.5736,-3.8201 -3.1333,-3.8201 -5.198,0 -13.3641,7.0265 -17.6105,15.1529 -3.9829,7.6223 -5.0767,8.6283 -6.6364,6.1047 z m 56.9838,-10.8953 c 6.7684,-4.3858 10.3964,-9.3804 10.3964,-14.313 0,-2.0512 -1.8643,-3.5741 -7.3395,-5.9954 -7.6444,-3.3807 -9.9888,-6.6182 -9.9988,-13.8074 0,-2.998 -1.0017,-3.9898 -6.1379,-6.1022 -5.1465,-2.1168 -6.3217,-2.224 -7.3079,-0.6667 -1.9712,3.1129 -1.2838,5.6496 2.8382,10.472 5.8633,6.8596 5.2633,11.1423 -3.0464,21.7431 -4.579,5.8416 -4.1329,8.3246 1.9718,10.9776 6.7688,2.9414 11.4105,2.3662 18.6241,-2.308 z m -21.2703,-12.1711 c 4.0648,-6.4344 4.8577,-13.8179 1.6173,-15.0613 -1.1271,-0.4326 -2.9615,-2.5504 -4.0764,-4.7064 -1.649,-3.1888 -1.7394,-4.7922 -0.4845,-8.5944 0.8485,-2.571 1.3329,-4.8259 1.0765,-5.0108 -0.2564,-0.1851 -2.6876,-1.6078 -5.4026,-3.1615 l -4.9363,-2.8251 -0.866,2.7283 c -0.4762,1.5007 -0.4604,5.974 0.035,9.9408 0.8378,6.7053 1.2678,7.3996 6.1143,9.8721 5.8184,2.9683 7.7225,7.3514 5.2228,12.022 -2.2137,4.1364 -3.9672,10.6056 -2.8739,10.6027 0.4988,0 2.5569,-2.6143 4.5736,-5.8064 z m -16.2287,-12.9139 c 2.1302,-1.1401 2.3341,-1.8785 1.1365,-4.1162 -0.8316,-1.554 -1.2907,-7.607 -1.0672,-14.0727 l 0.3921,-11.3459 -5.283,-3.1977 c -2.9057,-1.7588 -5.6226,-3.2009 -6.0375,-3.2047 -0.415,0 -2.0398,2.2802 -3.6107,5.0752 -6.0799,10.8176 -5.0476,22.476 2.5565,28.8744 4.3074,3.6244 7.7741,4.2028 11.9133,1.9876 z m -10.1046,-25.2714 c -0.9723,-1.5732 0.2889,-4 2.0787,-4 0.69,0 1.2546,1.2 1.2546,2.6666 0,2.8122 -1.9398,3.588 -3.3333,1.3334 z m 64.4,6.4 c 0.88,-0.88 1.6,-2.6231 1.6,-3.8736 0,-1.9608 -1.0599,-2.1775 -7.7052,-1.5748 -10.8754,0.9861 -12.2559,-0.8535 -9.2123,-12.2759 2.9608,-11.1112 2.8392,-15.5681 -0.5419,-19.8664 -3.3302,-4.2337 -11.8188,-8.8093 -16.3428,-8.8093 -3.0113,0 -18.1978,11.2802 -18.1978,13.517 0,0.5183 1.95,3.4862 4.3333,6.5952 5.0614,6.6028 12.6373,10.9423 17.9315,10.2715 3.7265,-0.4723 3.7234,-0.4785 -1.3675,-2.7367 -5.4513,-2.4181 -6.1642,-5.4769 -1.902,-8.161 1.7412,-1.0966 3.0541,-1.0136 5.2031,0.3285 2.4726,1.5441 3.0416,1.4963 4.0709,-0.3431 1.6353,-2.9222 5.9397,-2.6988 6.7369,0.3498 0.7548,2.8864 -3.0932,11.9046 -5.815,13.6281 -2.8966,1.8343 -11.5939,1.4224 -15.7903,-0.7477 -4.6007,-2.3791 -13.2221,-12.1915 -14.2259,-16.1911 -0.6189,-2.4657 -1.4505,-2.8044 -5.6174,-2.2873 -4.7635,0.5912 -5.0648,0.3585 -11.5576,-8.9216 -7.8236,-11.1822 -10.9466,-13.4579 -13.5611,-9.8823 -0.9748,1.3331 -1.7723,4.9881 -1.7723,8.1224 0,8.1211 5.2175,13.4959 20.3814,20.9964 6.7569,3.3421 17.0853,8.7877 22.952,12.1011 5.8666,3.3134 13.6666,7.1938 17.3333,8.6232 7.494,2.9212 20.6351,3.5692 23.0667,1.1376 z m -26.4,-21.7334 c 0,-1.1 -0.9,-2 -2,-2 -3.47,0 -2.3455,2.6278 1.6666,3.8948 0.1834,0.057 0.3334,-0.7948 0.3334,-1.8948 z m 7.5774,-2.25 c -0.4256,-1.0636 -0.7416,-0.7477 -0.8056,0.8056 -0.057,1.4055 0.2574,2.1931 0.7004,1.75 0.4431,-0.443 0.4904,-1.593 0.1054,-2.5556 z" fill="#00B894" transform="translate(252.4745,-0.10021841) matrix(0.55832499,0,0,0.55832499,-310.09893,-720.54811)"/>
</svg>