<?xml version="1.0" ?><svg height="128.04945mm" viewBox="0 0 92.8386 128.04945" width="92.8386mm" xmlns="http://www.w3.org/2000/svg">
    <path color="#000" d="m 5745.5703,694.02539 c -73.4163,0.50295 -179.1883,45.86184 -190.1855,188.53125 -12.135,157.42826 77.6174,193.28286 173.5527,213.88866 125.7004,-0.6181 156.152,-66.9689 178.3613,-175.35546 22.2094,-108.3865 -68.0019,-216.77328 -140.125,-225.83984 -6.7615,-0.84999 -14.0087,-1.27664 -21.6035,-1.22461 z m -70.4687,478.74801 c -158.736,0.1391 -228.6582,48.3704 -263.0469,175.2696 -36.08,133.14 -19.6133,286.6914 -19.6133,286.6914 83.722,23.4248 424.1893,7.7645 431.2871,-43.75 7.0979,-51.5146 -57.0114,-59.7568 -36.1758,-181.5371 20.8355,-121.7802 87.4642,-231.6084 -88.3789,-236.3477 -8.2426,-0.2222 -16.2655,-0.333 -24.0722,-0.3262 z" fill="#FFFFFF" overflow="visible" paint-order="fill markers stroke" transform="translate(-87.808995,36.230755) matrix(0.13325775,0,0,0.13325775,-612.68853,-127.43726)"/>
    <path d="m 5394.7313,1638.0317 c -6.0337,-5.077 -11.3619,-17.3093 -14.4259,-33.1186 -5.3449,-16.6438 -4.4971,-30.8636 -5.6426,-47.6289 -19.474,-0.036 -37.5891,1.3163 -56.2329,-2.2342 -122.4734,-22.6419 -37.5551,-168.2628 38.8399,-232.717 37.9275,-37.4042 60.4098,-66.2281 97.3508,-95.2671 25.4793,-24.3472 50.6319,-46.4844 85.6986,-55.1257 55.1778,-13.5971 108.4413,-16.7317 166.2881,-8.9256 42.9229,5.355 59.1605,13.6658 87.9616,32.4708 23.1154,17.0774 33.5424,36.5028 33.9057,56.8011 2.7489,36.7431 -6.9427,71.8597 -10.942,105.8279 -1.2056,10.5595 -6.8903,9.7036 10.8947,5.4075 20.2758,-4.8979 71.464,-37.7912 96.7079,-23.4328 15.4942,8.8129 18.8119,18.6134 0.1826,26.2381 -4.0807,1.5231 -3.3224,3.9197 0,4.9652 3.3388,1.007 10.768,4.2233 16.5827,6.8226 12.0532,5.388 15.1687,20.8533 6.7585,29.794 -5.2213,4.8284 -3.6632,4.356 -0.2939,10.2669 13.5556,25.61 -18.0718,34.9078 -39.4886,37.1532 -49.0005,4.1471 -72.9883,-5.4691 -100.5121,-18.6623 -0.5423,3.7558 -1.6117,29.3997 -1.1266,46.832 0.3296,44.2747 10.8998,72.1408 26.7611,100.1252 3.994,7.6082 -4.1759,12.8634 -10.2257,12.5165 -6.8122,-0.4246 -15.3267,-8.0625 -20.8002,-18.6587 -15.1293,-24.4536 -31.9993,-68.5662 -23.6136,-143.1728 0,0 -0.9472,1.1459 -7.2225,1.9202 3.8237,30.0609 -11.9229,35.2682 -42.8867,49.3915 -42.4463,15.689 -60.793,16.8423 -82.5464,-2.8431 -69.8141,27.1872 -147.1403,47.4756 -208.908,59.6402 -12.1416,2.722 -24.3487,8.075 -33.684,10.3557 -0.7445,9.3888 1.6329,59.8861 8.0797,71.3415 4.8681,11.3251 -5.7059,23.1866 -17.4602,13.9167 z m -21.7726,-114.8761 c 0,0 4.8516,-26.902 5.3051,-38.6763 10.8767,-89.3471 28.6924,-137.6816 49.9452,-186.8506 3.6676,-5.3739 5.0722,-10.2637 2.6609,-9.2636 -13.2296,13.3822 -26.0102,27.8515 -39.8848,41.4509 -33.5813,30.907 -60.0817,63.9396 -81.5603,95.0135 -21.3658,30.9107 -36.5088,90.9642 10.6313,98.2503 23.9289,3.3818 52.9026,0.076 52.9026,0.076 z m 267.0888,-76.1774 c 5.3609,-20.3457 13.6884,-26.2113 23.4929,-41.2995 14.2566,-15.5142 39.8077,-19.2729 56.7241,-24.0583 12.118,-2.5949 19.5273,-0.7259 25.2947,7.3766 3.5407,6.1477 5.0204,7.7359 11.3642,5.4987 22.4697,-7.9242 26.8261,-16.5009 26.8261,-16.5009 3.3052,-39.1023 25.7112,-113.9437 2.4475,-143.1991 -54.5526,-68.603 -208.6463,-47.5861 -249.7767,-25.8981 -81.9224,43.1976 -123.2215,195.657 -127.4302,283.1519 -0.2415,5.5348 -0.8971,11.8055 -1.457,13.935 -1.5295,5.8177 -3.3749,9.6894 3.4543,8.6339 90.0595,-21.9882 211.9775,-53.6168 229.0601,-67.6402 z m 86.3853,5.8244 c 7.7695,-2.7517 21.6588,-8.3559 21.6588,-10.6805 6.7874,-2.5202 -17.3039,-38.4166 -23.0326,-38.6781 -3.1676,0 -12.5851,3.8508 -20.7445,6.2277 -9.1079,2.6531 -11.8696,5.6488 -12.7194,9.518 0.2063,4.2845 13.7983,25.3335 16.4198,27.9953 9.8904,9.9979 9.7961,8.6712 18.4179,5.6176 z m -30.7714,-322.8019 c -1.1659,-6.713 0.1546,-10.0479 0.7533,-17.385 -39.1167,-8.7611 -76.706,-19.7821 -107.6906,-59.2085 -31.7085,-40.3476 -47.8253,-89.37525 -49.4714,-133.30803 10.3535,-204.70151 169.1243,-256.59424 259.8694,-228.69642 169.993,62.76326 153.8149,305.83276 62.7465,374.94215 -46.6084,35.3699 -74.6422,44.6291 -109.6361,46.7029 -14.8113,0.4034 -14.771,-3.0218 -16.0458,9.2859 -1.1469,11.0726 -4.5892,17.1862 -11.1565,19.8139 -11.4396,5.5546 -26.4746,-3.5234 -29.3688,-12.1469 z m 13.4181,-48.9686 c 1.1466,-8.2088 9.1764,-27.9531 19.1102,-27.2358 17.5475,1.2671 17.3169,14.0619 16.5141,26.5956 24.0695,5.2794 78.5218,-14.0908 97.1914,-35.5806 77.8167,-89.57132 72.7899,-273.43213 -45.9556,-321.51365 -88.3753,-29.18649 -164.5595,28.41541 -201.0354,109.39662 -37.4644,83.17592 -16.6557,234.77143 114.1753,248.33783 z m 54.4748,-64.4017 c 2.6847,-5.9042 6.4851,-12.3477 9.7342,-15.1309 8.5197,-7.29803 22.4231,-2.4994 23.8184,11.0186 0.8982,8.7016 -3.904,16.2754 -6.573,19.1127 -17.5864,18.6954 -32.3506,-3.1884 -26.9796,-15.0004 z m -66.3173,7.3036 c -11.3219,-10.4191 -7.9636,-24.13304 2.0928,-29.31883 9.3748,-4.795 20.5025,-4.5667 25.2167,0.5174 6.1177,8.35293 2.4461,19.58413 -5.8304,24.34503 -14.0121,7.9269 -16.7598,8.497 -21.4791,4.4564 z" fill="#00B894" transform="translate(-87.808995,36.230755) matrix(0.13325775,0,0,0.13325775,-612.68853,-127.43726)"/>
</svg>