<?xml version="1.0" ?><svg height="135.77086mm" viewBox="0 0 137.32089 135.77086" width="137.32089mm" xmlns="http://www.w3.org/2000/svg">
    <path d="m -6824.5703,144.11133 c -4.8153,-0.0732 -9.6783,0.6253 -12.8887,1.45703 -7.3379,1.90111 -15.0442,14.96433 -10.1152,20.30078 4.9289,5.33645 16.321,6.26134 17.5293,11.74024 1.2084,5.4789 0.2597,49.22851 0.2597,49.22851 l -14.7128,1.93555 c 0,0 -7.709,10.17132 -16.5293,13.77344 -8.8203,3.60209 -12.3405,-2.70156 -17.1954,-7.8379 -4.8549,-5.13633 -25.5344,-8.40426 -41.1738,-6.66992 -15.6394,1.73435 -28.9805,2.8359 -34.8359,18.94532 -5.8555,16.10941 -0.7417,55.63094 1.1113,69.97265 41.8053,13.43145 67.893,1.84424 68.1523,-4.79297 0.2594,-6.63721 -1.4453,-42.02346 -2.9277,-51.5957 -1.4824,-9.57225 0.7403,-12.54102 0.7403,-12.54102 0,0 15.4165,10.93975 29.0917,10.87305 13.6752,-0.0667 18.3457,-16.84375 18.3457,-16.84375 10e-5,0 4.7186,0.49007 10.6368,0.0703 5.9182,-0.41976 11.748,-5.57226 11.748,-5.57226 0,0 0.2222,-21.01377 -0.1113,-35.78907 -0.3335,-14.77529 -2.8067,-19.14045 2.8555,-25.14648 7.8902,-8.3693 9.041,-18.94469 4.7421,-26.04883 -2.4181,-3.99608 -8.5316,-5.36488 -14.7226,-5.45898 z m -95.5352,5.73242 c -1.831,0.0121 -3.7002,0.19158 -5.5937,0.56055 -20.1978,3.93563 -30.3885,25.24799 -30.2403,40.49023 2.0754,16.30952 12.7491,29.34909 37.0977,24.67969 24.3485,-4.6694 33.9099,-27.51461 32.2422,-39.48828 -1.5114,-10.85113 -15.8058,-26.35911 -33.5059,-26.24219 z" fill="#FFFFFF" paint-order="markers stroke fill" transform="translate(260.67236,-0.90623213) matrix(0.73615867,0,0,0.73615867,1243.8261,735.13232) translate(4946.0726,-1138.2098)"/>
    <path d="m -1875.8819,-997.37403 c -2.7595,-0.02 -5.5613,0.3626 -7.4626,1.157 -1.5833,0.6615 -4.3686,1.2076 -6.1892,1.2076 -1.9676,0 -4.2859,0.6548 -5.7159,1.6081 -1.3231,0.8821 -3.5447,2.3394 -4.937,3.2385 -5.2739,3.4055 -4.7747,8.3821 -4.9253,9.9434 -0.1704,1.7653 -1.7584,5.7603 0.8058,8.0123 5.6201,4.9362 6.2787,2.603 7.6211,4.257 2.2156,2.7296 5.5006,4.9005 9.2539,6.1129 1.0739,0.3468 1.3381,1.3289 1.3814,7.2593 h 0.013 c 0.1998,6.5334 -0.3107,13.6906 -0.6191,19.8564 -0.4143,8.6003 -0.9908,16.8102 -1.2815,18.2435 -0.4771,2.3524 -0.8068,2.6066 -3.3796,2.6066 -1.5676,0 -5.0401,0.7406 -7.7174,1.6457 -4.3353,1.4655 -5.1619,2.108 -7.5484,5.8815 -2.8725,4.5421 -8.0777,8.5103 -11.165,8.5103 -2.9092,0 -5.0077,-1.3819 -9.8107,-6.4582 -9.8434,-9.1271 -27.5524,-10.7572 -36.0854,-10.7046 -17.9194,0.128 -37.6521,4.1868 -45.1643,9.2915 -3.328,2.2614 -12.1509,10.0129 -18.9988,16.6918 -13.2092,12.8832 -18.824,25.1186 -14.44,31.46435 2.0825,3.01457 9.1635,8.75004 17.258,13.97833 6.3853,4.12432 7.6177,5.42436 7.6177,8.037 0,1.72831 -0.3201,1.85124 -4.8114,1.85124 -6.048,0 -6.5549,1.72506 -1.2029,4.0925 1.9847,0.8779 3.6086,1.78424 3.6086,2.01452 0,0.23023 -2.4358,0.33115 -5.4128,0.22319 -4.3739,-0.15865 -5.4595,0.0421 -5.6549,1.05484 -0.3053,1.5824 3.4787,4.60852 6.5252,5.21782 2.0384,0.40771 2.1442,0.56167 0.8787,1.26985 -0.791,0.4427 -3.4188,1.02091 -5.8392,1.28506 -4.9779,0.5432 -5.8168,1.59882 -3.282,4.13358 1.4575,1.45755 2.3357,1.66967 5.253,1.26978 4.0705,-0.55794 12.0568,-4.38882 14.278,-6.84822 1.4548,-1.61085 1.6115,-1.62613 3.0541,-0.32068 1.1526,1.04311 1.8486,1.17037 2.8767,0.5251 2.6493,-1.66263 2.9618,-4.6831 1.5494,-14.9569 -1.8295,-13.3063 -2.5983,-38.98896 -1.466,-48.95836 0.5041,-4.4385 1.6579,-9.6699 2.6336,-11.9381 1.5062,-3.5012 2.281,-4.2761 5.8392,-5.8497 10.6052,-4.6901 32.5761,-6.6532 45.0256,-4.022 10.596,1.8482 15.4717,0.9778 22.0224,7.7292 2.9757,3.0413 6.3645,5.8934 7.5319,6.3372 3.0565,1.1621 9.6453,0.9933 12.8096,-0.3288 3.6499,-1.5251 9.7023,-7.7837 10.8291,-11.198 0.501,-1.5179 1.5248,-3.0152 2.2753,-3.3266 0.7505,-0.3115 4.827,-0.7495 9.059,-0.9739 5.9281,-0.65296 7.6338,1.9643 7.788,-4.1171 0.051,-2.0393 0.3207,-12.6881 0.599,-23.6658 -0.2305,-4.8173 1.3064,-29.5361 -4.5764,-31.0449 -1.2267,-0.2038 -6.2421,-1.944 -6.9446,-4.0009 -0.6664,-1.951 -1.3672,-2.032 -3.235,-2.159 -2.3229,-0.158 -4.6276,-2.7135 -2.576,-3.141 6.3864,1.654 7.3417,-1.1504 10.4028,1.0724 4.8157,3.4971 11.0962,-0.1762 14.6044,-2.2905 1.5382,-0.9076 2.976,-2.1167 3.1951,-2.6876 0.7106,-1.8518 -0.7506,-3.1491 -2.9308,-2.6019 -1.5317,0.3844 -2.5894,0.01 -4.2123,-1.4953 -3.5338,-3.2749 -6.4414,-2.1088 -4.0068,1.6069 1.9171,2.9258 1.6787,4.719 -0.5332,4.0208 -0.9924,-0.3131 -2.8221,-0.7609 -4.0667,-0.9949 -2.9296,-0.5508 -4.2101,-3.5972 -2.8709,-6.8306 1.943,-4.6907 11.6474,-7.5112 16.74,-4.8654 3.5317,1.8348 7.8143,7.4476 8.5093,11.1521 0.6674,3.5581 -0.155,5.1373 -6.268,12.0238 -4.5506,5.1264 -4.7499,5.5279 -4.2957,8.6631 0.3007,8.6594 -0.9653,16.4227 -0.8106,24.4798 0.3054,15.7716 0.3694,29.3119 0.1422,30.0911 -1.0096,3.4628 -14.59,7.0446 -17.5129,4.6187 -1.8987,-1.5758 -3.3333,-0.4532 -4.2934,3.3596 -1.1717,4.653 -4.777,9.4968 -9.5182,12.7884 -3.4185,2.3733 -4.4524,2.6758 -9.1423,2.6758 -4.9521,0 -5.6439,-0.2373 -10.8797,-3.7189 -11.5459,-7.6774 -15.677,-8.782 -18.657,-4.9935 -1.8917,2.405 -1.9818,3.9718 -0.8751,15.1284 0.4374,4.4105 1.1567,15.77738 1.5987,25.25977 0.8377,17.97172 1.5921,22.70775 3.8141,23.95119 0.7286,0.40776 2.0675,0.46363 2.9754,0.12335 1.596,-0.5983 1.6473,-1.14649 1.5293,-16.55675 -0.1365,-17.81956 -1.2601,-31.35536 -3.1915,-38.45696 -2.392,-8.7956 -2.389,-8.6707 -0.2055,-7.5249 1.0529,0.5525 4.7258,3.1134 8.1615,5.6889 10.7609,8.0667 17.9523,8.9103 26.862,3.1516 5.0092,-3.2376 7.707,-6.2734 10.479,-11.7947 l 1.6704,-3.329 3.4007,0.7647 c 5.6088,1.2603 14.4104,-1.0795 17.6879,-4.701 3.7287,-4.12 3.9158,-6.0009 3.047,-30.5316 -0.4505,-11.0993 -0.5668,-19.1939 -1.129,-28.7908 l 3.9597,-4.0889 c 4.2711,-4.4104 7.4115,-11.6967 7.378,-17.117 -0.036,-5.8271 -6.1994,-15.4658 -11.4963,-17.9793 -1.7303,-0.8211 -4.447,-1.2447 -7.2065,-1.2651 z m -91.7933,3.41 c -3.2562,0.031 -6.7415,0.6616 -10.8044,1.8736 -14.9225,4.4513 -18.0824,5.9698 -23.3557,11.2273 -6.1773,6.1586 -9.2487,12.1949 -12.3327,24.2378 -2.7109,10.5859 -5.7628,17.6942 -9.9493,23.1771 -3.247,4.2526 -2.9957,5.7624 1.3567,8.1415 2.0563,1.1241 4.6456,1.4249 12.7086,1.4778 9.3477,0.061 10.3949,0.223 13.6319,2.1155 3.321,1.9419 7.4509,3.3829 11.9262,4.1595 3.4227,0.5939 13.3315,-0.3254 17.7948,-1.6504 11.7706,-3.4944 24.335,-12.8158 28.9905,-21.5091 1.4693,-2.7437 1.7386,-4.6062 1.7843,-12.3797 0.052,-8.9088 0.1041,-9.1678 1.9816,-9.8624 4.4136,-1.6326 3.7155,-5.0102 -0.8751,-4.2346 -3.0045,0.5076 -3.0572,0.4704 -4.7926,-3.356 -0.965,-2.1278 -2.2393,-5.6732 -2.8321,-7.8784 -1.3286,-4.9431 -5.7086,-9.1884 -13.061,-12.6581 -4.1761,-1.9707 -7.9852,-2.9211 -12.1717,-2.8814 z m 74.6152,3.8622 v 0 c 0.4023,0.052 0.5001,0.8937 0.1961,2.5138 -0.2697,1.438 -0.091,3.6633 0.3959,4.9453 0.685,1.8017 0.6532,2.4803 -0.1456,2.9872 -0.5685,0.3606 -1.6657,0.6605 -2.4375,0.6671 -1.9019,0.017 -1.92,-5.6822 -0.028,-8.885 0.9108,-1.5419 1.6159,-2.2802 2.0181,-2.2284 z m -85.1918,5.6149 2.6923,1.567 c 1.4813,0.862 6.0666,2.1415 10.189,2.8438 8.2735,1.4095 9.5883,1.9421 13.4333,5.441 2.4154,2.1979 5.9355,8.2772 5.9355,10.2512 0,0.4553 -0.9025,1.2397 -2.0051,1.742 -2.9507,1.3445 -2.5794,3.1122 0.6014,2.8638 l 2.6066,-0.2032 0.2349,6.2856 c 0.2081,5.5541 -0.01,6.6957 -1.8383,9.8225 -2.2677,3.8696 -3.5894,4.5979 -3.0295,1.6691 0.5234,-2.7384 -1.6143,-7.1799 -4.0924,-8.5045 -1.8857,-1.0079 -4.1373,-0.9783 -17.9652,0.235 -20.5464,1.8028 -19.9499,1.652 -21.9296,5.5326 -4.2507,8.332 3.0764,16.102 16.2208,17.204 3.4776,0.2915 5.2362,0.7305 4.5858,1.1429 -1.506,0.955 -14.2342,0.7318 -17.0771,-0.2995 -8.0675,-2.9268 -14.4455,-11.106 -16.5297,-21.1967 -0.9719,-4.7048 -0.9343,-4.9805 1.1488,-8.535 2.7304,-4.659 3.7366,-5.287 3.7366,-2.3258 0,3.0396 2.2395,4.984 5.7417,4.984 4.8488,0 5.9249,-4.6723 2.6606,-11.5515 l -1.2346,-2.6042 7.9571,-8.1815 z m 15.3398,16.0857 c -1.4376,0 -2.4182,3.1592 -1.5082,4.8595 1.1343,2.1196 3.5045,1.6866 3.8446,-0.7024 0.2606,-1.8302 -1.0471,-4.1571 -2.3364,-4.1571 z m -35.1127,0.8046 c 0.217,0.039 0.5403,0.8258 0.9984,2.7616 0.2119,0.8954 2.2347,6.0062 1.6504,6.9517 -0.5208,0.8425 -1.4727,0.9177 -2.2154,0.175 -0.629,-0.6291 -1.2085,-10.0269 -0.4334,-9.8883 z m 20.4554,2.1003 c -0.4288,0.01 -0.8438,0.1568 -1.1876,0.5005 -1.2308,1.2308 -1.1809,4.3763 0.078,4.8842 0.5514,0.2224 1.063,0.4337 1.1371,0.4686 0.9591,0.4501 2.6712,-1.3461 2.6712,-2.8015 0,-1.7081 -1.4117,-3.0614 -2.6982,-3.0518 z m 19.8376,18.7887 c 2.3739,0.017 2.884,0.3377 3.1785,1.1053 0.2894,0.7539 0.1543,2.0677 -0.3007,2.9178 -0.9786,1.8285 -3.1774,2.0658 -3.1774,0.343 0,-1.7622 -1.3472,-1.4684 -1.836,0.4005 -0.3554,1.359 -1.0929,1.6035 -4.8372,1.6035 -2.7834,10e-5 -4.5693,-0.3707 -4.8255,-1.002 -0.3139,-0.7736 -0.584,-0.7477 -1.1841,0.1104 -0.4275,0.6115 -2.6362,1.29 -4.9076,1.5082 -3.3979,0.3265 -4.3332,0.1289 -5.2731,-1.1124 -1.1179,-1.4742 -1.1429,-1.4731 -1.1676,0.01 -0.022,1.3252 -0.4643,1.4518 -3.5744,1.0255 -2.4479,-0.3356 -3.6507,-0.1838 -3.8752,0.4898 -0.1921,0.5763 -0.7277,0.2258 -1.3062,-0.8551 -0.5397,-1.0078 -0.773,-2.487 -0.5192,-3.2867 0.4903,-1.545 -0.9421,-1.3866 26.9641,-2.9848 3.122,-0.1788 5.2172,-0.2781 6.6416,-0.2678 z m 0.4087,8.1967 c 1.0188,0.029 0.6249,0.3754 -0.4605,1.2885 -0.9665,0.8131 -5.0022,2.2501 -8.9684,3.1927 -3.9662,0.9427 -8.407,1.6784 -9.8695,1.6363 -6.0994,-0.1765 -14.8037,-3.6113 -13.2406,-5.2248 0.3547,-0.3662 1.0129,-0.1354 1.4636,0.5133 0.5526,0.7957 0.9422,0.885 1.1958,0.2714 0.3679,-0.8908 4.6632,-0.3604 6.5557,0.8093 0.4554,0.2815 0.9784,0.062 1.1617,-0.4887 0.2251,-0.6751 2.5275,-1.0539 7.0844,-1.1652 3.7134,-0.091 8.917,-0.359 11.5632,-0.5944 1.7833,-0.1585 2.9034,-0.2556 3.5146,-0.2384 z m -56.4033,47.3421 c 0.041,-0.012 0.07,-0.01 0.086,0.01 0.1719,0.1718 -0.095,3.8827 -0.5931,8.2472 -0.5712,5.0084 -0.7038,13.0384 -0.3595,21.7687 0.3,7.608 0.2487,13.82076 -0.114,13.80693 -0.3627,-0.0138 -1.3814,-0.57803 -2.2635,-1.25337 -0.882,-0.67534 -4.3126,-2.84587 -7.6235,-4.82317 -3.311,-1.9773 -7.4193,-4.7688 -9.1294,-6.20452 l -3.1093,-2.61127 1.6186,-3.5662 c 0.8902,-1.9619 2.8902,-5.3229 4.4438,-7.4684 2.9803,-4.1161 15.7865,-17.5277 17.0442,-17.9018 z m 115.5542,19.0657 c -0.6677,-0.033 -1.5855,0.4965 -2.5831,1.5987 -3.5498,3.9226 -12.7427,5.1589 -20.0114,2.6912 -2.0287,-0.6888 -4.0572,-1.1297 -4.5071,-0.9797 -1.4388,0.4796 3.3361,4.5037 6.8001,5.7312 1.8393,0.6517 5.2528,1.2149 7.5858,1.2498 6.6666,0.099 13.8011,-4.2999 13.8011,-8.5092 0,-1.1522 -0.4177,-1.7485 -1.0854,-1.782 z m -7.714,12.48426 c -0.6077,0.0192 -1.6509,0.28236 -3.39,0.79881 -2.2937,0.68111 -5.3601,1.04545 -6.8154,0.80933 -3.129,-0.50778 -3.6813,1.13037 -0.8422,2.49963 2.9105,1.40372 6.9827,1.11312 9.4994,-0.67894 1.281,-0.91212 2.3294,-2.15496 2.3294,-2.76276 0,-0.46081 -0.1734,-0.68556 -0.7812,-0.66607 z" fill="#00B894" transform="translate(260.67236,-0.90623213) matrix(0.73615867,0,0,0.73615867,1243.8261,735.13232)"/>
</svg>