<?xml version="1.0" ?><!-- Created with Inkscape (http://www.inkscape.org/) --><svg height="443.36148mm" id="svg54554" inkscape:version="1.1.1 (eb90963e84, 2021-10-02)" sodipodi:docname="web_internet.svg" version="1.1" viewBox="0 0 501.76419 443.36148" width="501.76419mm" xmlns="http://www.w3.org/2000/svg" xmlns:inkscape="http://www.inkscape.org/namespaces/inkscape" xmlns:sodipodi="http://sodipodi.sourceforge.net/DTD/sodipodi-0.dtd" xmlns:svg="http://www.w3.org/2000/svg">
  <sodipodi:namedview bordercolor="#666666" borderopacity="1.0" id="namedview54556" inkscape:current-layer="layer1" inkscape:cx="1068.6575" inkscape:cy="1181.0656" inkscape:document-units="mm" inkscape:pagecheckerboard="0" inkscape:pageopacity="0.0" inkscape:pageshadow="2" inkscape:window-height="1016" inkscape:window-maximized="1" inkscape:window-width="1866" inkscape:window-x="54" inkscape:window-y="27" inkscape:zoom="0.64052329" pagecolor="#ffffff" showgrid="false"/>
  <defs id="defs54551"/>
  <g id="layer1" inkscape:groupmode="layer" inkscape:label="Capa 1" transform="translate(177.76803,163.85045)">
    <g id="g54531" style="display:inline" transform="matrix(0.26458333,0,0,0.26458333,-3230.5227,-3713.4761)">
      <path d="m 16198.74,18858.807 c -22.812,-0.507 -67.683,15.544 -81.576,22.218 -13.894,6.675 -40.274,26.867 -44.123,59.393 -3.379,95.553 74.631,106.537 74.631,106.537 l -0.656,27.287 c 0,0 -26.755,8.62 -35.016,29.065 -4.213,10.426 -6.117,38.076 -6.811,66.74 -29.621,-6.01 -65.38,-12.416 -65.38,-12.416 l -2.911,-100.791 -192.632,-11.49 1.877,169.814 c 91.558,22.151 126.356,16.729 191.13,25.938 0,0 40.113,-15.94 67.692,-27.204 0.131,10.806 0.362,20.487 0.65,27.204 1.314,30.668 56.138,9.125 99.039,17.742 42.901,8.617 46.189,-7.52 52.479,-35.992 6.289,-28.471 -15.68,-118.616 -15.68,-118.616 l 50.977,-28.134 c 0,0 -9.296,-73.925 -16.149,-136.866 -6.853,-62.942 -54.729,-79.922 -77.541,-80.429 z m -930.683,71.498 c -36.838,0.467 -81.477,20.2 -93.239,67.595 -14.475,58.333 25.604,84.194 69.571,92.846 31.544,4.959 46.776,-9.722 73.675,-50.166 26.899,-40.444 11.994,-97.805 -26.252,-107.625 -7.17,-1.841 -15.254,-2.758 -23.755,-2.65 z m 146.584,173.761 c 0,0 -63.52,2.042 -65.897,5.737 -2.377,3.694 -21.712,42.483 -22.361,58.525 -0.648,16.041 -18.473,28.973 -18.473,28.973 0,0 -25.279,-37.139 -37.162,-56.68 -11.883,-19.542 -43.103,-8.75 -74.107,-8.07 -31.004,0.681 -41.59,18.374 -49.26,39.277 -7.67,20.902 -8.103,125.125 -1.621,172.666 9.614,34.805 148.429,-6.61 151.562,-22.943 3.133,-16.334 -0.539,-77.391 -0.539,-77.391 0,0 20.633,-28.68 20.201,-5.25 -0.432,23.431 7.777,23.627 41.59,22.266 33.812,-1.361 37.918,-44.917 45.912,-67.764 7.995,-22.847 10.155,-89.346 10.155,-89.346 z m 259.367,207.731 c -70.437,1.606 -125.609,27.774 -161.481,48.428 -52.178,30.041 -169.603,110.442 -198.554,218.552 -28.952,108.11 33.379,253.262 63.843,298.469 0,0 46.969,97.549 216.789,100.563 169.82,3.014 203.872,-71.105 291.483,-147.229 87.61,-76.124 83.288,-283.886 69.029,-323.844 -14.26,-39.958 -54.552,-139.902 -175.976,-179.082 -37.945,-12.243 -73.117,-16.587 -105.133,-15.857 z m -721.836,123.234 c -41.227,0.743 -77.442,24.519 -88.914,57.151 0,0 -12.726,80.088 53.689,112.248 66.415,32.16 119.67,-43.771 125.946,-67.459 6.275,-23.689 -9.326,-85.5 -61.622,-98.6 -9.805,-2.456 -19.585,-3.511 -29.099,-3.34 z m 1538.389,139.949 -266.581,32.702 20.637,178.148 99.705,-4.223 7.526,33.793 -75.506,19.811 c 0,0 -4.532,9.905 -3.723,33.066 0.81,23.161 20.152,51.494 20.152,51.494 l 53.413,1.311 113.785,-26.146 c 0,0 -5.098,23.452 -9.711,46.322 -4.613,22.869 10.844,85.797 10.844,85.797 0,0 40.385,10.704 70.166,6.771 29.782,-3.933 78.906,-17.405 78.42,-25.853 -0.485,-8.449 -8.174,-44.284 -8.174,-44.284 l 32.291,-6.119 c 0,0 -33.505,-204.732 -52.686,-241.586 -19.18,-36.853 -71.217,-46.466 -71.217,-46.466 z m -1611.963,60.041 c -40.529,-1.02 -65.978,45.024 -91.342,90.676 -25.363,45.652 -26.498,93.657 -25.104,127.465 -1.481,41.102 150.264,33.73 172.489,28.004 22.226,-5.727 41.488,-27.298 42.621,-29.494 1.133,-2.196 113.568,-11.451 116.357,-20.236 2.79,-8.786 31.115,-127.23 29.459,-130.76 -1.656,-3.53 -120.715,5.41 -120.715,5.41 0,0 -2.091,2.512 0.35,-11.607 2.44,-14.119 -8.194,-28.787 -19.264,-38.514 -11.069,-9.726 -64.322,-19.925 -104.851,-20.944 z m 332.371,360.758 c -3.248,-0.03 -6.417,0.314 -9.448,1.067 -24.242,6.025 -52.64,21.267 -52.64,21.267 0,0 -39.66,-30.762 -60.25,-17.799 -20.59,12.962 -55.382,34.779 -46.963,71.657 8.419,36.879 34.182,85.897 23.937,108.718 0,0 24.649,-10.496 31.749,-21.085 7.1,-10.589 22.009,-25.377 22.009,-25.377 0,0 21.301,37.882 42.094,38.886 20.793,1.004 65.828,3.834 81.752,-17.801 15.925,-21.634 40.168,-75.399 27.895,-109.996 -10.739,-30.271 -37.398,-49.291 -60.135,-49.537 z m 148.986,96.731 c 0,0 -20.793,46.462 -35.5,92.56 -14.707,46.098 -4.868,44.364 13.592,51.758 3.855,6.207 43.717,0.184 43.717,0.184 l 48.584,-138.569 z m 632.537,7.152 -235.992,20.578 21.1,175.041 216.304,-27.888 z m 67.1,42.508 c -0.176,17.004 -7.682,79.773 20.394,103.451 28.075,23.678 52.884,31.148 76.368,26.619 23.485,-4.529 47.677,-22.565 54.74,-49.898 7.063,-27.333 2.47,-65.074 2.47,-65.074 z m -878.184,66.295 c -3.974,0.09 -8.189,0.522 -12.648,1.344 -47.571,8.763 -44.122,47.011 -53.86,94.205 -4.057,16.157 11.868,30.307 39.862,52.58 27.995,22.273 82.767,27.294 82.869,8.58 0.101,-18.713 -1.522,-75.036 -1.623,-101.873 -0.09,-24.321 -16.178,-55.691 -54.6,-54.836 z m 1026.694,78.619 c -26.993,-0.133 -73.007,25.383 -86.885,57.777 -4.15,20.5 -5.739,109.411 0,145.881 4.767,42.827 92.701,-12.951 107.533,-40.92 24.072,-46.224 25.278,-159.594 -18.098,-162.644 -0.829,-0.06 -1.68,-0.09 -2.55,-0.09 z m -196.239,10.533 c -1.912,0.02 -3.787,0.128 -5.597,0.287 -14.479,1.271 -78.401,6.753 -103.563,9.295 -25.162,2.543 -102.237,16.766 -100.295,23.52 1.942,6.754 30.549,52.44 44.498,52.281 0,0 120.336,-16.049 161.655,-19.863 41.318,-3.814 45.734,-28.764 38.318,-46.483 -6.49,-15.503 -21.631,-19.205 -35.016,-19.037 z" fill="#00B894" id="path50193" style="fill:#ffffff;stroke-width:20;stroke-linecap:round;stroke-linejoin:round;stop-color:#000000" transform="translate(-3214.0181,-5425.6289)"/>
      <path d="m 15233.477,18841.895 v 0.01 c -17.152,1.011 -34.539,4.146 -43.041,8.865 -5.966,3.313 -17.046,8.965 -24.627,12.565 -7.578,3.599 -14.657,9.899 -15.731,14.004 -1.073,4.104 -6.409,9.494 -11.857,11.978 -6.664,3.036 -9.91,7.902 -9.91,14.858 0,6.461 -2.311,10.343 -6.153,10.343 -5.997,0 -7.885,4.64 -6.39,15.688 0.406,2.988 -1.524,8.156 -4.286,11.484 -4.582,5.52 -5.796,11.034 -9.378,42.567 -0.64,5.64 -2.634,13.603 -4.428,17.695 -1.92,4.381 -1.091,11.976 2.01,18.459 2.899,6.06 4.956,16.56 4.572,23.328 -0.794,14.057 1.552,18.219 15.736,27.926 12.577,8.608 25.604,8.821 41.363,0.672 11.874,-6.138 12.387,-5.969 24.832,8.205 7.95,9.052 19.851,16.672 31.77,20.342 24.617,7.566 35.867,7.507 55.982,-0.309 9.024,-3.503 22.063,-12.137 22.063,-12.137 14.322,13.716 24.839,-3.761 16.808,-13.113 17.425,-14.458 24.995,-33.84 31.028,-55.189 2.034,-11.157 4.867,-15.381 10.316,-15.381 9.91,0 20.289,-15.3 20.289,-29.899 0,-6.414 1.951,-15.303 4.332,-19.755 5.168,-9.661 1.922,-21.853 -8.398,-31.504 -4.141,-3.873 -8.148,-12.567 -8.908,-19.317 -0.97,-8.603 -4.76,-13.889 -12.664,-17.66 -6.689,-3.191 -11.282,-8.68 -11.282,-13.49 0,-4.461 -3.23,-9.254 -7.177,-10.654 -3.947,-1.4 -10.346,-5.264 -14.217,-8.583 -4.106,-3.526 -11.517,-5.178 -17.803,-3.976 -5.923,1.133 -16.372,-0.74 -23.223,-4.154 -7.56,-3.773 -24.476,-4.883 -41.628,-3.871 z m 963.412,7.388 c -12.982,-0.01 -26.233,3.244 -39.244,9.844 -11.101,5.633 -26.833,10.256 -34.961,10.256 -19.048,0.02 -39.944,14.157 -51.752,35.008 -15.901,28.071 -10.714,96.601 9.091,120.138 7.122,8.467 8.831,13.934 8.831,13.934 -7.806,13.946 0.506,29.447 20.003,7.562 0,0 3.344,0.216 8.778,3.071 42.63,22.407 128.537,-13.413 128.537,-53.598 0,-8.059 -1.965,-15.308 -4.369,-16.111 -2.399,-0.8 -5.39,-9.081 -6.639,-18.403 -2.141,-15.956 -3.339,-17.249 -20.449,-22.039 -9.996,-2.797 -33.492,-10.639 -44.826,-25.011 -16.82,-20.94 -23.056,-25.84 -49.498,-7.614 -29.407,18.651 -40.357,15.472 -19.287,-5.597 5.953,-5.95 18.412,-12.845 27.689,-15.321 9.279,-2.477 21.775,-7.089 27.762,-10.252 12.916,-6.818 39.356,-7.482 55.506,-1.394 32.727,12.338 49.522,46.669 58.675,119.943 2.483,19.858 6.231,40.625 8.332,46.151 3.221,8.473 2.6,10.048 -3.957,10.048 -5.489,0 -8.566,3.923 -10.461,13.331 -4.766,23.682 -6.463,27.233 -14.207,29.691 -4.947,1.569 -11.698,-1.39 -19.275,-8.451 -6.413,-5.975 -15.936,-12.508 -21.16,-14.514 -13.953,-5.36 -65.346,-4.555 -68.826,1.078 -5.024,8.129 11.307,15.785 33.67,15.785 44.135,0 64.713,36.349 64.99,114.862 0.1,25.949 1.668,49.485 3.492,52.304 4.917,7.596 14.273,6.223 19.102,-2.806 7.594,-14.187 5.138,-86.941 -3.905,-115.791 -9.728,-31.038 -9.407,-28.057 -3.017,-28.057 2.882,0 9.721,-3.14 15.201,-6.976 5.48,-3.837 13.55,-7.24 17.933,-7.563 9.044,-0.667 19.055,-12.448 19.055,-22.42 0,-3.67 -2.579,-15.781 -5.732,-26.906 -3.154,-11.129 -6.726,-36.846 -7.944,-57.153 -3.123,-52.184 -15.348,-88.728 -36.863,-110.212 -17.754,-17.727 -38.638,-26.802 -60.275,-26.817 z m -60.254,71.877 c 5.757,0.762 10.935,4.634 21.338,13.727 25.977,19.669 35.94,24.763 48.422,24.763 8.356,0 10.403,2.513 12.529,15.383 4.237,25.632 3.318,27.773 -15.936,37.127 -10.215,4.963 -19.329,9.024 -20.254,9.024 -0.927,0 -0.601,-6.673 0.723,-14.832 3.706,-23.149 -9.058,-11.892 -16.334,4.363 l -6.061,13.545 c -18.683,7.982 -36.003,-0.123 -36.003,-0.123 0,-10.165 -4.883,-20.151 -18.44,-12.373 -11.811,-6.329 -20.35,-21.187 -20.41,-60.405 -0.03,-24.714 0.295,-18.787 25.613,-25.279 12.72,-3.337 19.057,-5.683 24.813,-4.92 z m -864.666,31.791 c 2.265,-0.04 4.788,0.81 8.019,2.539 4.741,2.545 11.906,3.573 15.918,2.299 4.605,-1.464 10.797,1.407 16.78,7.773 8.111,8.634 9.215,13.285 7.646,32.2 -1.814,21.888 -15.584,54.822 -22.365,53.506 -7.273,-4.994 -19.367,-0.581 -15.41,13.101 0,0 -4.52,4.877 -10.768,8.334 v -0.01 c -21.965,12.16 -64.322,3.001 -74.559,-16.123 -9.811,-18.335 -10.77,-34.239 -2.798,-46.33 4.215,-6.396 7.695,-14.861 7.695,-18.808 0.01,-4.837 3.239,-7.178 9.875,-7.178 6.843,0 12.35,-4.236 18.033,-13.873 6.753,-11.441 10.057,-13.508 18.891,-11.822 5.889,1.126 13.341,-0.146 16.568,-2.823 2.201,-1.82 4.21,-2.747 6.475,-2.785 z m 867.084,18.719 c -6.021,1.408 -8.539,7.398 -6.229,13.416 3.342,8.704 16.663,6.596 18.254,-4.221 0.852,-5.791 -0.987,-7.89 -4.885,-8.908 -2.737,-0.717 -5.133,-0.756 -7.14,-0.287 z m -35.946,0.978 c -1.964,0.211 -3.874,1.026 -5.437,2.588 -2.403,2.406 -3.209,7.404 -1.787,11.106 3.282,8.559 16.429,6.278 18.248,-3.164 1.226,-6.357 -5.133,-11.162 -11.024,-10.53 z m -851.554,26.073 c -5.411,0 -12.483,11.83 -12.483,19.181 0,9.064 13.994,9.845 17.895,1.229 8.11,-17.915 -0.911,-20.41 -5.412,-20.41 z m 38.759,4.793 c -7.54,0 -15.969,15.782 -12.378,21.59 4.236,6.858 13.819,4.96 18.425,-3.651 6.067,-11.335 1.01,-17.939 -6.047,-17.939 z m 557.87,27.601 c -7.764,-0.316 -13.373,2.271 -15.057,13.067 -6.674,24.185 0.417,171.01 8.574,177.554 9.23,7.406 30.909,11.465 102.711,21.276 15.784,2.157 43.73,2.718 61.781,5.662 48.956,7.99 47.503,8.267 100.955,-19.303 36.24,-18.691 50.762,-28.383 53.59,-35.773 2.991,-7.825 2.341,-11.254 -2.859,-15.057 -6.122,-4.477 -5.956,-5.34 1.811,-9.494 16.405,-8.781 5.097,-37.519 -15.36,-39.026 -4.052,-0.298 -13.258,-2.981 -20.451,-5.962 -16.983,-7.034 -34.032,-0.471 -48.686,18.74 -5.771,7.569 -13.965,13.76 -18.211,13.76 -7.11,0 -7.714,-3.732 -7.714,-47.446 0,-26.096 -1.854,-50.904 -4.116,-55.131 -4.944,-9.24 -21.992,-12.076 -84.086,-13.98 -24.819,-0.76 -63.022,-2.804 -84.894,-4.537 -10.305,-0.816 -20.224,-4.035 -27.988,-4.35 z m 8.086,23.658 c 5.902,-0.244 15.794,1.813 30.265,2.524 18.667,2.699 57.377,4.908 86.028,4.908 38.642,0 52.232,1.324 52.638,5.129 0.301,2.819 0.751,40.662 1.028,84.092 0.304,50.569 -1,78.756 -3.627,78.386 -31.3,-4.422 -54.819,-2.808 -74.571,-4.853 -7.227,-0.749 -31.052,-3.984 -51.17,-7.756 l -35.136,-6.588 c -8.039,-1.652 -7.258,4.043 -8.356,-11.652 -2.911,-41.614 -1.459,-108.821 -3.426,-132.914 -1.489,-8.487 0.425,-11.032 6.327,-11.276 z m -454.25,36.625 c -4.294,-0.319 -9.075,-0.276 -14.35,0.129 -7.034,0.54 -14.946,1.726 -23.744,3.553 -24.375,5.059 -29.509,10.872 -38.229,43.285 -4.335,16.113 -25.09,41.601 -25.09,30.807 0,-13.638 -14.711,-34.187 -31.531,-44.045 -16.199,-9.495 -21.336,-10.43 -47.666,-8.691 -65.635,4.337 -88.018,28.748 -91.943,100.265 -2.563,46.726 4.448,107.862 14.473,126.153 6.727,12.283 6.999,9.96 8.986,-77.784 2.33,-102.62 4.086,-108.98 32.207,-116.552 51.43,-13.848 73.811,-7.335 91.062,26.5 5.754,11.278 12.637,20.059 15.301,19.511 8.572,-1.765 0.518,36.657 -11.392,54.33 -6.082,9.024 -21.601,34.405 -34.487,56.403 -12.888,21.998 -24.942,39.998 -26.789,39.998 -4.355,0 -18.333,-32.788 -26.234,-61.533 -3.409,-12.409 -7.435,-38.219 -8.942,-57.36 -2.895,-36.763 -6.972,-49.301 -16.033,-49.301 -7.932,0 -10.473,13.387 -10.533,55.547 -0.08,53.999 21.505,124.808 42.543,139.545 14.211,9.953 30.417,7.326 43.557,-7.06 6.523,-7.139 23.268,-34.003 37.218,-59.7 l 25.362,-46.722 9.556,8.974 c 12.036,11.31 37.138,9.433 66.118,-4.935 18.549,-9.199 20.208,-11.393 29.072,-38.471 5.169,-15.796 12.519,-46.79 16.334,-68.881 6.23,-36.061 6.304,-41.3 0.726,-51.277 -4.194,-7.504 -12.673,-11.729 -25.552,-12.688 z m -20.534,20.034 h 26.912 l -2.794,27.263 c -2.787,27.235 -7.928,42.477 -14.321,42.477 -1.865,0 -2.551,-4.401 -1.523,-9.776 2.996,-15.679 -6.36,-16.771 -25.555,-2.984 -19.995,14.359 -28.192,16.175 -25.209,5.578 1.112,-3.947 3.213,-13.639 4.672,-21.537 1.458,-7.895 4.506,-20.354 6.777,-27.689 4.107,-13.272 4.259,-13.332 31.041,-13.332 z m 674.174,53.328 c 3.519,0 5.256,1.847 3.862,4.105 -1.394,2.256 -4.274,4.102 -6.397,4.102 -2.123,0 -3.857,-1.846 -3.857,-4.102 0,-2.258 2.874,-4.105 6.392,-4.105 z m 26.362,6.369 c 1.919,0.09 2.256,2.091 1.171,6.246 -2.294,8.778 -2.671,9.069 -6.578,5.162 -4.342,-4.338 -3.207,-8.512 2.953,-10.875 0.997,-0.384 1.814,-0.563 2.454,-0.533 z m 26.517,6.238 c 1.587,0.162 2.26,2.105 2.26,5.852 0,6.936 10.45,8.376 14.4,1.986 1.415,-2.292 4.405,-3.037 6.639,-1.656 2.341,1.446 0.918,4.899 -3.359,8.142 -9.104,6.901 -13.144,7.001 -24.438,0.614 -7.332,-4.144 -7.876,-5.842 -3.252,-10.108 3.659,-3.374 6.162,-4.993 7.75,-4.83 z m -52.476,8.414 c 1.924,-0.632 4.999,0.627 9.611,3.657 5.47,3.59 5.47,4.489 0,8.08 -9.225,6.055 -12.307,5.043 -12.307,-4.039 0,-4.542 0.772,-7.067 2.696,-7.698 z m 24.89,12.276 c 8.247,0.455 21.301,4.955 19.383,8.06 -2.793,4.523 -5.024,4.439 -17.822,-0.679 -5.403,-2.165 -8.767,-4.991 -7.475,-6.286 0.949,-0.949 3.164,-1.247 5.914,-1.095 z m -19.623,15.931 c 10.316,0 14.387,6.623 6.037,9.826 -10.242,3.929 -14,2.945 -14,-3.673 0,-3.384 3.584,-6.153 7.963,-6.153 z m -679.549,16.907 c 0.597,0.238 0.201,1.056 -1.181,2.457 -2.255,2.285 -13.2,7.175 -24.319,10.857 -23.644,7.837 -22.857,7.728 -22.857,3.082 0,-1.987 8.072,-5.644 17.932,-8.127 9.864,-2.486 21.4,-5.744 25.64,-7.246 2.595,-0.918 4.188,-1.261 4.785,-1.023 z m 748.114,34.164 c -5.526,0.423 -15.919,8.77 -31.133,32.925 -29.131,46.256 -101.68,145.552 -108.52,154.907 -5.094,-0.06 -10.138,-0.29 -15.414,0.254 l -22.197,2.291 -16.551,-26.2 c -52.263,-82.756 -168.576,-137.278 -282.293,-132.324 -55.033,2.396 -82.199,12.709 -150.119,56.988 -53.671,34.99 -85.545,57.946 -109.977,81.248 -14.243,-13.896 -56.706,-55.654 -81.666,-84.23 -9.786,-11.201 -15.343,-15.132 -17.934,-14.986 -4.946,0.279 0.915,15.42 8.797,23.205 12.007,15.118 68.073,73.905 80.176,86.416 -15.091,15.918 -27.649,32.811 -41.802,54.49 -37.065,56.777 -46.372,93.931 -43.809,174.891 2.021,63.878 7.455,84.256 40.569,152.125 8.754,17.943 15.916,33.441 15.916,34.441 0,4.815 -59.408,-3.966 -75.764,-11.199 -17.687,-7.824 -18.59,-9.039 -18.59,-25.026 0,-19.229 10.716,-42.527 29.287,-63.679 19.703,-22.424 10.012,-22.507 -12.746,-0.09 -10.209,10.056 -18.062,20.534 -23.945,30.933 -8.135,-2.119 -41.853,-10.922 -62.16,-15.826 -7.096,-1.714 -14.652,-2.421 -21.071,-2.388 -14.122,0.07 -22.747,3.731 -8.898,8.162 24.047,2.553 67.561,16.015 86.836,20.238 -9.645,22.488 -8.448,43.689 5.008,58.012 28.248,23.887 62.744,25.437 83.922,28.14 0,0 -56.065,80.381 -68.907,99.94 -14.895,20.995 5.831,16.017 12.822,0.369 6.921,-15.49 71.354,-96.919 72.639,-98.543 l 19.856,1.656 31.099,31.123 c 36.465,36.486 68.703,56.805 106.162,66.914 21.74,5.875 39.382,7.025 90.584,5.936 58.611,-1.246 66.542,-2.361 101.416,-14.246 57.283,-19.52 104.102,-44.987 143.225,-78.364 l 119.127,163.704 c 12.097,12.347 14.773,-0.277 10.287,-6.911 -35.193,-47.63 -76.397,-110.254 -116.883,-168.455 34.907,-32.822 63.589,-72.471 87.436,-121.474 20.971,-43.092 36.809,-98.465 36.869,-128.826 0.03,-16.257 2.135,-19.574 29.978,-47.178 34.176,-33.88 44.702,-52.917 47.143,-85.268 1.504,-19.922 0.383,-24.345 -8.998,-35.492 -8.13,-9.665 -22.953,-16 -40.348,-19.014 l 120.547,-171.953 c 6.298,-8.4 6.287,-18.1 0.02,-17.621 z m -498.075,60.384 v 0 c 6.599,-0.338 13.599,-0.282 21.58,0.05 l 30.766,1.291 -11.291,7.658 c -6.208,4.209 -29.909,12.056 -52.664,17.434 -46.91,11.089 -42.311,10.781 -60.85,4.08 l -14.043,-5.076 22.248,-8.756 c 28.267,-11.122 44.457,-15.674 64.254,-16.686 z m 72.528,1.071 c 3.819,-0.979 15.061,1.575 43.881,9.269 l 23.043,6.149 -1.975,17.478 c -1.877,16.651 -1.079,18.222 16.793,33.162 31.951,26.709 30.71,48.618 -3.859,68.127 -12.27,6.925 -25.197,16.551 -28.723,21.391 -6.055,8.31 -6.279,7.653 -4.07,-11.711 6.981,-61.196 7.088,-65.732 1.714,-72.76 -9.292,-12.14 -28.236,-13.165 -44.203,-2.39 -21.254,14.346 -30.188,32.696 -30.619,62.871 -0.51,35.637 7.473,44.62 36.404,40.962 11.362,-1.437 23.7,-3.466 27.413,-4.509 5.44,-1.526 7.05,1.83 8.275,17.226 2.145,26.974 -3.147,32.991 -22.772,25.893 -13.144,-4.754 -16.857,-4.661 -26.339,0.646 -13.39,7.493 -20.756,27.22 -21.067,56.424 -0.225,21.352 4.706,36.725 13.715,42.74 13.236,8.837 55.726,-0.397 67.578,-14.685 8.73,-10.531 16.434,-8.104 23.889,7.525 8.885,18.636 17.355,20.833 40.627,10.541 10.501,-4.646 21.397,-8.447 24.211,-8.447 5.517,0 19.021,24.471 16.107,29.188 -0.969,1.569 -10.144,7.765 -20.392,13.771 l -18.629,10.92 -14.912,-13.096 c -34.013,-29.862 -62.232,-32.027 -128.793,-9.881 -60.232,20.042 -73.483,31.649 -73.123,64.065 0.135,12.07 1.802,31.175 3.703,42.457 1.905,11.283 2.061,22 0.351,23.818 -1.714,1.816 -23.785,10.584 -49.054,19.485 -25.265,8.901 -47.224,16.138 -48.793,16.078 -1.569,-0.06 -10.94,-13.037 -20.817,-28.844 -20.09,-32.158 -49.115,-59.459 -69.211,-65.102 -16.898,-4.744 -34.471,0.01 -60.099,16.266 -10.898,6.91 -20.697,11.685 -21.774,10.611 -1.077,-1.077 1.028,-12.223 4.676,-24.773 7.203,-24.783 9.058,-25.979 43.353,-27.988 16.62,-0.975 19.264,-2.584 26.54,-16.174 7.88,-14.716 7.892,-15.299 0.459,-23.51 -6.147,-6.796 -6.646,-9.593 -2.581,-14.494 11.146,-13.43 20.726,-11.943 35.694,5.545 12.572,14.688 16.504,16.776 31.482,16.746 21.687,-0.05 50.665,-16.429 79.592,-44.99 32.601,-32.188 37.669,-63.393 15.578,-95.944 -17.881,-26.349 -20.041,-32.956 -22.721,-69.513 -2.415,-32.887 -3.747,-37.236 -14.839,-48.327 -6.701,-6.7 -22.915,-16.543 -36.028,-21.875 l -23.843,-9.691 17.89,-10.199 c 33.24,-18.95 31.498,-18.663 51.693,-8.44 10.378,5.255 22.795,9.553 27.596,9.553 14.485,0 84.412,-16.283 95.987,-22.351 13.386,-7.018 29.271,-21.732 29.271,-27.116 0,-1.053 0.448,-1.77 1.721,-2.097 z m 89.908,26.951 c 11.103,0 59.914,30.2 80.412,49.75 38.418,36.64 56.395,72.241 69.865,138.346 13.079,64.168 13.951,61.273 -26.498,88.191 -19.156,12.746 -35.771,23.176 -36.922,23.176 -1.15,0 -2.091,-2.628 -2.091,-5.84 0,-3.21 -4.778,-11.516 -10.62,-18.459 -12.542,-14.904 -24.165,-16.002 -45.8,-4.324 l -15.368,8.295 -6.968,-9.323 c -14.716,-19.688 -20.086,-23.677 -31.86,-23.677 -7.664,0 -13.672,2.824 -16.25,7.642 -5.314,9.925 -25.005,17.958 -39.859,16.26 -11.663,-1.335 -11.723,-1.477 -11.723,-30.459 0,-36.422 4.486,-42.67 30.635,-42.67 23.364,0 34.533,-9.816 33.897,-29.795 -0.766,-24.156 2.548,-30.597 20.56,-39.91 50.417,-26.069 56.842,-59.204 18.445,-95.137 -19.94,-18.66 -24.061,-32.066 -9.855,-32.066 z m -155.359,42.928 c -5.492,1.038 -10.873,4.445 -16.092,10.212 -8.645,9.55 -5.496,21.978 7.097,27.999 26.266,12.562 49.671,-18.534 25.75,-34.209 -5.661,-3.71 -11.263,-5.04 -16.755,-4.002 z m 84.015,3.904 c 2.605,-0.622 4.722,1.089 8.598,4.598 8.845,8.005 10.187,20.318 3.99,36.621 -2.224,5.852 -4.48,16.34 -5.012,23.306 -0.529,6.966 -2.863,13.219 -5.183,13.895 -18.525,5.406 -27.12,5.705 -28.578,0.994 -8.544,-27.607 -3.463,-51.88 14.658,-70.002 5.832,-5.832 8.923,-8.789 11.527,-9.412 z m -260.082,3.312 c 2.427,-0.05 5.071,0.308 8.289,0.912 23.635,4.434 49.177,17.11 58.592,29.079 7.174,9.122 8.826,16.737 8.826,40.738 0,30.022 0.08,30.27 27.578,81.598 10.328,19.282 1.734,38.631 -30.119,67.816 -14.848,13.608 -35.353,28.784 -45.568,33.728 -19.045,11.76 -20.182,7.246 -34.293,-8.035 -17.201,-18.629 -22.791,-20.118 -40.746,-10.832 -16.741,8.657 -22.691,20.886 -16.129,33.147 7.855,14.675 -1.199,23.435 -20.795,20.125 -12.504,-2.114 -17.297,-0.69 -28.01,8.328 -7.11,5.98 -12.928,14.293 -12.928,18.471 0,4.179 -1.659,8.625 -3.683,9.877 -10.276,6.35 -16.242,-87.312 -8.365,-131.284 9.381,-52.359 59.847,-132.974 111.628,-178.312 13.106,-11.472 18.444,-15.219 25.723,-15.356 z m 180.748,1.245 c 1.257,0.289 2.212,1.669 3.19,4.222 1.394,3.624 2.531,8.289 2.531,10.36 0,2.074 -3.693,3.765 -8.207,3.765 -9.436,0 -10.871,-9.085 -2.528,-16.01 2.195,-1.822 3.756,-2.626 5.014,-2.337 z m -685.463,15.914 c -4.769,0.282 -9.58,0.918 -14.404,1.923 -49.522,10.313 -61.194,14.61 -62.393,22.979 -0.653,4.565 -5.188,10.054 -10.074,12.199 -9.039,3.969 -9.799,6.056 -18.033,49.508 -6.885,36.356 -1.285,52.145 30.168,85.019 41.091,38.194 79.15,34.737 119.08,18.895 16.146,19.119 34.716,5.963 22.508,-11.002 0,0 2.483,-0.997 8.689,-8.894 16.347,-20.802 20.594,-30.103 25.242,-55.258 5.089,-27.526 0.681,-46.388 -17.123,-73.268 -18.969,-28.64 -50.278,-44.073 -83.66,-42.101 z m -21.869,23.211 c 3.688,0.03 8.133,0.31 13.717,0.759 33.729,2.708 52.971,12.599 68.545,35.235 10.104,14.688 12.821,22.854 12.607,37.763 -0.394,26.133 -9.431,38.102 -9.431,38.102 -22.336,4.9 -12.292,11.104 -6.733,12.808 l -6.33,9.534 c -11.931,-10.787 -19.783,-2.736 -19.783,4.666 0,5.618 -3.766,10.184 -10.522,12.75 -19.242,7.316 -47.729,4.665 -65.718,-6.123 -27.675,-16.589 -51.11,-59.612 -32.469,-59.612 7.28,0 8.24,-10.533 1.348,-14.791 -3.172,-1.963 -1.731,-4.107 4.25,-6.32 8.818,-3.26 8.865,-3.641 1.933,-14.705 l -7.115,-11.359 c -0.182,-12.183 7.402,6.596 11.127,9.996 15.15,13.812 22.109,7.076 14.996,-14.473 -4.88,-14.783 -4.583,-15.937 6.52,-25.488 7.744,-6.664 11.993,-8.831 23.058,-8.742 z m 1027.01,28.152 c 9.807,-0.888 49.606,5.18 58.748,9.539 14.538,6.931 16.664,29.628 5.031,53.66 -9.203,19.008 -38.148,49.699 -42.637,45.209 -1.55,-1.55 -2.818,-7.813 -2.818,-13.916 0,-6.104 -4.615,-29.29 -10.258,-51.525 -5.64,-22.238 -10.256,-41.197 -10.256,-42.135 0,-0.436 0.789,-0.705 2.19,-0.832 z m -984.83,52.496 c -2.778,0.537 -5.649,3.255 -9.971,7.168 -8.249,7.468 -6.576,15.648 -1.293,20.928 5.854,5.421 9.609,2.4 16.061,-4.649 6.347,-9.689 8.297,-14.133 2.152,-20.275 -1.535,-1.535 -2.878,-2.488 -4.152,-2.945 -0.956,-0.343 -1.871,-0.406 -2.797,-0.227 z m 31.068,5.234 c -8.735,0 -16.572,11.223 -13.609,19.485 4.111,11.463 21.666,1.657 21.666,-12.102 0,-4.606 -3.033,-7.383 -8.057,-7.383 z m -62.715,17.502 c -2.496,-0.03 -3.813,2.388 -4.242,2.819 -3.889,3.888 4.19,17.836 12.547,21.654 7.892,3.606 23.681,0.432 23.496,-4.774 -0.424,-11.761 -15.805,0.641 -20.49,-7.869 -5.141,-9.335 -8.816,-11.803 -11.311,-11.83 z m 1533.791,20.604 c -11.12,0.375 -27.62,1.743 -50.707,4.146 -35.6,3.708 -77.649,7.882 -93.441,9.282 -42.56,3.769 -104.899,13.972 -113.492,18.568 -9.661,5.172 -10.045,41.96 -1.344,128.857 7.239,72.299 7.986,73.486 44.072,69.979 75.633,-7.351 70.404,-7.452 75.881,1.498 4.596,7.517 3.972,8.618 -6.154,10.855 -71.637,15.832 -77.222,19.954 -73.213,54.057 4.28,36.418 13.255,53.556 30.564,58.365 8.234,2.286 21.432,4.205 29.327,4.235 29.343,0.164 30.633,1.518 37.875,39.884 7.784,41.231 16.831,55.934 35.568,57.789 10.989,1.089 15.706,-1.501 28.748,-15.767 12.833,-14.036 16.07,-15.849 18.24,-10.197 1.452,3.781 2.637,9.372 2.637,12.423 0,3.052 1.848,10.415 4.109,16.36 3.031,7.972 6.516,10.463 13.291,9.498 12.525,-1.788 13.547,-11.782 5.016,-49.123 -5.994,-26.244 -6.451,-35.601 -2.676,-54.408 4.015,-19.983 16.006,-45.951 19.576,-42.385 0.704,0.708 3.983,19.431 7.284,41.607 3.298,22.176 8.011,42.334 10.472,44.793 5.412,5.415 30.88,4.273 80.83,-3.619 44.531,-7.036 61.629,-12.507 64.783,-20.721 1.283,-3.345 0.462,-18.444 -1.824,-33.556 -2.29,-15.113 -6.052,-45.016 -8.363,-66.451 -8.307,-77.001 -27.89,-127.183 -63.545,-162.842 -16.344,-16.343 -25.477,-22.171 -37.848,-24.149 -15.842,-2.532 -16.373,-3.147 -18.625,-21.644 -3.596,-29.54 -13.723,-70.631 -18.609,-75.514 -1.572,-1.574 -7.312,-2.194 -18.432,-1.82 z m -2.293,19.486 c 9.679,0.424 6.719,7.28 12.573,31.188 3.713,17.728 7.405,34.951 8.205,38.271 1.07,4.44 -3.657,6.654 -17.881,8.377 -22.65,2.741 -36.151,13.716 -48.658,39.557 -7.313,15.107 -9.573,15.683 -9.573,15.683 -20.947,-7.023 -25.462,11.812 -7.162,23.647 0,0 3.549,6.918 4.09,21.256 1.483,39.181 20.91,73.336 45.979,80.847 8.91,2.67 16.201,7.33 16.201,10.358 0,3.774 -5.698,5.504 -18.125,5.504 -16.174,0 -19.052,-1.496 -26.715,-13.897 -11.132,-18.011 -20.539,-25.902 -24.186,-20.281 -3.452,5.326 -66.349,11.273 -66.349,6.273 0,-1.999 14.904,-5.74 33.117,-8.316 18.215,-2.575 34.828,-5.742 36.92,-7.037 6.505,-4.018 4.174,-14.149 -3.373,-14.658 -10.461,-0.71 -9.305,-0.778 -34.869,2.05 -22.958,2.538 -23.588,2.345 -23.588,-7.355 0,-9.249 1.938,-10.173 26.988,-12.856 17.639,-1.889 27.78,-4.941 29.262,-8.806 5,-13.032 -5.282,-14.439 -58.887,-8.045 -83.557,9.966 -99.289,11.123 -101.541,7.48 -1.163,-1.883 -4.138,-20.808 -6.609,-42.056 -10.506,-90.263 -12.863,-108.825 -14.85,-116.959 -1.994,-8.16 0.311,-8.818 46.385,-13.289 26.668,-2.59 75.251,-6.627 107.965,-8.971 32.717,-2.344 68.715,-5.334 79.994,-6.639 6.83,-0.894 11.46,-1.468 14.687,-1.326 z m -459.015,1.008 -6.213,9.301 180.461,112.461 c 10.667,8.142 18.338,-0.356 10.289,-6.909 -57.718,-44.831 -130.289,-84.381 -184.537,-114.853 z m -1136.778,37.031 c -8.828,-0.07 -14.651,1.463 -23.959,4.555 -30.874,10.257 -59.952,45.87 -85.408,104.613 -22.872,52.774 -28.555,119.276 -10.193,119.276 9.128,0 12.444,-10.749 12.629,-41.02 0.185,-29.204 14.851,-70.453 39.797,-111.922 25.155,-41.814 39.673,-53.215 70.609,-55.455 24.737,-1.787 79.643,8.394 90.928,16.861 9.251,6.944 16.053,21.064 16.053,33.334 0,10.731 -5.558,14.022 -10.413,6.168 -5.43,-8.791 -23.158,-12.442 -37.464,-7.72 -10.528,3.474 -16.33,9.412 -24.024,24.599 -5.582,11.011 -10.142,25.471 -10.142,32.135 0,8.735 -6.245,19.426 -22.36,38.305 -34.929,40.917 -49.438,45.064 -62.422,17.838 -6.033,-12.651 3.483,-46.931 17.282,-77.965 11.51,-25.893 22.675,-49.548 23.992,-55.754 3.784,-17.841 -17.7,-13.403 -26.537,6.57 -10.211,23.085 -39.857,62.696 -39.036,122.217 1.157,38.025 47.044,61.349 94.209,15.725 18.722,-18.063 19.833,-18.573 17.356,-8.01 -7.002,29.874 -7.755,49.047 -2.072,52.767 6.288,4.119 37.472,1.916 99.037,-6.99 21.983,-3.182 48.04,-5.783 57.904,-5.783 22.595,0 37.652,-11.148 41.297,-30.574 1.474,-7.869 7.357,-19.863 13.07,-26.653 5.713,-6.79 9.35,-14.018 8.086,-16.064 -1.265,-2.049 0.448,-6.005 3.809,-8.793 6.863,-5.697 8.321,-30.93 2.008,-34.832 -2.256,-1.393 -4.104,-7.759 -4.104,-14.143 0,-6.387 -3.23,-15.53 -7.18,-20.324 -7.464,-9.057 -12.426,-9.02 -101.437,0.76 -6.612,0.726 -8.554,-2.271 -10.486,-16.19 -4.379,-31.554 -21.988,-41.944 -88.844,-52.433 -21.325,-3.344 -33.157,-5.025 -41.985,-5.098 z m 1065.055,20.744 c 2.456,2.455 -6.698,47.482 -11.508,56.602 -1.98,3.759 -12.979,9.949 -24.439,13.758 -11.741,3.899 -27.159,13.24 -35.313,21.39 -13.97,13.974 -14.428,15.404 -13.361,41.623 2.281,55.95 1.873,57.4 -22.863,81.354 -0.743,0.72 -2.07,1.717 -2.883,2.476 -29.996,-42.055 -58.933,-79.751 -84.004,-104.853 8.828,-4.875 14.343,-7.644 22.76,-12.377 48.677,-27.37 60.106,-32.302 65.635,-28.318 17.759,12.805 27.033,7.864 32.142,-17.116 1.853,-9.058 10.076,-16.594 37.139,-34.054 19.118,-12.332 35.63,-21.55 36.695,-20.485 z m -204.117,15.639 c 22.17,-1.519 40.294,4.692 57.258,18.857 l 13.816,11.534 -44.654,25.06 c -24.558,13.781 -63.542,34.464 -86.627,45.965 -23.084,11.5 -42.821,20.91 -43.858,20.91 -4.073,0 -5.738,-7.389 -8.599,-38.174 -2.8,-30.111 -2.399,-32.64 6.754,-42.482 10.252,-11.024 12.158,-11.978 61.013,-30.635 16.837,-6.431 31.596,-10.123 44.897,-11.035 z m 759.545,20.475 c 5.565,1.023 9.813,4.375 9.994,9.55 0.08,2.255 1.595,14.256 3.367,26.662 8.363,58.526 16.601,102.149 32.006,169.424 14.811,64.675 17.146,83.566 9.371,75.791 -5.015,-5.015 -27.087,-107.024 -34.859,-161.117 -9.771,-67.983 -13.524,-84.984 -21.717,-100.435 -10.309,-19.442 -7.329,-0.482 -4.52,12.236 3.501,10.154 9.036,43.698 12.297,74.545 3.261,30.847 11.686,83.221 18.723,116.385 10.562,49.79 11.814,60.915 7.193,63.841 -6.944,4.4 -10.711,4.572 -13.16,0.594 -2.357,-3.822 -13.738,-94.87 -17.051,-136.398 -4.427,-55.485 -10.762,-96.03 -18.586,-118.967 -7.122,-20.866 -7.194,-22.947 -0.951,-27.691 5.447,-4.14 12.329,-5.443 17.893,-4.42 z m 20.201,2.599 c 4.527,-0.415 16.699,7.234 29.326,20.281 24.163,24.971 25.1,26.965 42.283,90.397 11.098,40.96 14.465,61.248 14.465,87.6 0.01,18.862 1.997,41.389 4.405,50.062 3.856,13.885 2.81,23.673 -1.999,18.76 -0.92,-0.939 -4.79,-22.937 -8.595,-48.885 -11.803,-80.419 -54.18,-210.766 -58.444,-179.764 -0.831,6.045 5.857,40.195 14.862,75.891 9.009,35.696 18.404,80.593 20.881,99.77 2.473,19.177 5.512,39.945 6.755,46.15 2.461,12.32 -4.655,15.867 -8.23,4.101 -5.114,-16.814 -24.218,-110.814 -35.646,-175.359 -6.789,-38.355 -15.068,-73.891 -18.397,-78.971 -4.345,-6.632 -4.381,-9.784 -1.666,-10.033 z m -668.516,17.205 c 2.39,0 3.203,1.847 1.809,4.102 -1.394,2.259 -3.35,4.103 -4.344,4.103 -0.994,0 -1.81,-1.844 -1.81,-4.103 0,-2.255 1.954,-4.102 4.345,-4.102 z m 606.481,4.102 c 4.814,0 12.464,41.065 15.473,83.07 1.415,19.744 1.782,35.895 0.82,35.895 -13.458,0 -32.295,-37.083 -32.295,-63.571 0,-15.921 11.402,-55.394 16.002,-55.394 z m -1368.713,6.558 c 11.27,-1.227 15.383,-0.134 15.383,4.09 0,3.169 -3.692,5.762 -8.205,5.762 -7.691,0 -18.292,9.46 -8.623,14.889 15.148,8.506 11.85,13.973 -7.721,6.793 -17.828,-6.54 -14.896,10.744 -4.168,17.287 13.386,8.164 16.312,16.858 -8.564,7.519 -10.919,-4.099 -12.756,1.318 -11.504,9.764 0.837,5.633 7.169,9.386 15.597,13.887 19.158,10.246 22.115,13.863 19.069,23.457 -3.011,9.485 -22.427,17.568 -34.573,14.39 -4.522,-1.181 -26.338,0.728 -48.478,4.248 -22.139,3.517 -50.067,7.583 -62.057,9.038 -17.936,1.827 -22.671,7.759 -19.465,-11.118 5.859,-34.504 13.222,-75.197 16.448,-92.416 1.368,-16.504 9.061,-16.171 24.914,-17.74 34.825,-3.415 113.487,-8.927 121.947,-9.85 z m 828.051,22.553 c 2.278,-0.03 3.676,0.686 3.676,2.338 0,1.991 -8.378,18.322 -18.62,36.293 -25.423,44.612 -26.505,45.177 -26.505,13.838 0,-23.807 1.227,-27.883 11.281,-37.445 8.596,-8.176 23.336,-14.941 30.168,-15.024 z m -507.877,16.014 c 17.608,0 76.154,61.792 76.601,80.846 0.06,2.725 -12.855,8.817 -28.709,13.537 -39.831,11.863 -66.708,14.7 -72.136,7.615 -7.393,-9.652 -25.02,-41.858 -31.715,-57.943 l -6.42,-15.426 28.422,-14.317 c 15.633,-7.873 30.915,-14.312 33.957,-14.312 z m 330.693,12.58 v 0 l -0.07,0.109 80.635,110.807 c -11.466,9.534 -23.942,19.255 -34.047,25.76 -15.233,9.805 -33.639,20.863 -40.903,24.574 -13.094,6.692 -13.253,6.655 -19.006,-4.572 -3.191,-6.228 -9.925,-27.863 -14.966,-48.082 -5.043,-20.217 -10.999,-40.783 -13.239,-45.696 -4.492,-9.864 -19.14,-17.937 -33.101,-18.25 -5.846,-0.129 1.104,-5.332 19.678,-14.728 9.913,-5.015 34.055,-18.425 55.017,-29.922 z m -112.449,60.512 c 34.614,0.659 40.485,1.272 47.352,4.945 4.721,2.53 9.222,12.605 12.316,27.582 2.684,12.98 9.277,35.825 14.652,50.762 5.375,14.938 9.776,28.122 9.776,29.297 0,4.076 -31.621,14.753 -62.729,21.177 -27.222,5.624 -95.672,8.439 -107.514,4.424 -2.258,-0.766 -10.715,-2.493 -18.794,-3.838 -13.741,-2.285 -15.003,-3.783 -19.485,-23.209 -5.074,-21.976 -6.151,-49.569 -2.467,-63.217 1.692,-6.277 15.406,-12.895 58.397,-28.179 30.905,-10.987 61.728,-19.867 68.496,-19.744 z m 693.521,8.955 c 15.91,0 18.905,5.961 4.885,9.718 -11.975,3.215 -17.506,3.207 -20.742,-0.03 -5.234,-5.234 2.052,-9.679 15.857,-9.679 z m -39.457,4.101 c 11.501,0 15.056,8.533 6.237,14.979 -10.906,7.975 -14.198,6.88 -14.198,-4.725 0,-7.416 2.202,-10.254 7.961,-10.254 z m 125.899,4.1 c 9.796,0 20.185,13.531 15.816,20.598 -4.35,7.036 -16.119,4.08 -23.347,-5.87 -7.953,-10.947 -6.022,-14.728 7.531,-14.728 z m -37.18,4.129 c 7.218,0.906 14.545,3.882 17.332,8.347 2.887,4.602 4.136,10.142 2.797,12.307 -4.067,6.582 -13.888,4.411 -19.309,-4.271 -2.818,-4.514 -8.48,-8.205 -12.584,-8.205 -4.102,0 -6.318,-1.845 -4.921,-4.1 2.36,-3.818 9.468,-4.984 16.685,-4.078 z m -36.209,5.07 c 3.956,0.118 6.663,2.51 9.414,7.852 4.099,7.947 4.016,8.725 -0.467,4.486 -9.544,-9.022 -17.269,-6.271 -14.404,5.129 3.756,14.964 -6.963,13.239 -12.736,-2.051 -3.507,-9.283 -3.475,-12.333 0.125,-12.363 2.624,-0.03 8.768,-1.127 13.65,-2.438 1.643,-0.441 3.1,-0.655 4.418,-0.615 z m -42.098,7.537 c 8.461,-0.229 12.554,8.388 6.411,19.864 -2.507,4.689 -7.232,8.527 -10.493,8.527 -8.322,0 -12.904,-20.377 -5.619,-24.992 3.575,-2.264 6.88,-3.323 9.701,-3.399 z m 180.473,13.352 c 8.076,-0.301 6.235,2.535 -5.459,8.584 -15.34,7.934 -21.094,8.161 -21.094,0.838 0,-3.298 6.261,-6.631 15.168,-8.078 4.898,-0.794 8.693,-1.243 11.385,-1.344 z m -995.777,0.363 2.455,34.826 c 1.364,19.156 1.979,35.309 1.394,35.893 -0.588,0.588 -7.814,-3.015 -16.062,-8.002 -18.469,-11.168 -54.67,-45.224 -49.76,-46.809 1.973,-0.637 16.722,-4.475 32.779,-8.533 z m 948.924,2.576 c 4.515,0.602 9.643,3.415 12.095,7.998 3.815,7.132 3.12,8.203 -5.326,8.203 -11.008,0 -15.185,-3.01 -15.185,-10.939 0,-4.256 3.901,-5.864 8.416,-5.262 z m -36.118,3.739 v 0 c 5.323,0 11.986,2.199 15.655,6.618 4.446,5.36 4.358,7.104 -0.522,10.193 -7.67,4.859 -20.248,4.911 -20.248,0.09 0,-2.071 -1.123,-6.685 -2.492,-10.254 -1.697,-4.425 2.284,-6.642 7.607,-6.648 z m -58.316,8.361 c 2.184,0 3.975,2.767 3.975,6.152 0,3.384 -0.728,6.153 -1.614,6.153 -0.889,0 -2.676,-2.769 -3.974,-6.153 -1.299,-3.385 -0.572,-6.152 1.613,-6.152 z m -43.287,3.699 c 3.685,-0.749 11.783,4.44 17.617,12.33 7.141,9.661 7.704,12.356 2.969,14.174 -5.098,1.957 -22.553,-16.352 -22.553,-23.656 0,-1.688 0.739,-2.599 1.967,-2.848 z m 149.207,12.709 c 7.926,0 7.941,0.406 0.773,24.078 -4.022,13.275 -15.114,34.437 -24.732,47.174 -24.055,47.24 -29.657,5.079 -37.902,-29.105 -3.289,-9.275 1.02,-16.25 6.084,-22.2 8.695,-10.217 35.905,-19.947 55.777,-19.947 z m -1409.512,155.25 c -1.762,25.288 -0.812,29.344 12.883,55.049 17.121,32.136 18.183,42.716 5.852,58.392 -8.775,11.155 -8.795,11.46 -1.026,17.217 4.689,3.464 12.577,4.948 19.377,3.619 14.564,-2.846 38.687,-21.088 42.098,-31.836 2.521,-7.943 2.979,-7.869 13.488,2.198 22.836,21.871 60.399,28.921 96.559,18.125 10.279,-3.071 25.266,-13.15 38.314,-25.77 17.756,-17.165 22.983,-20.154 30.481,-17.381 12.537,4.639 23.631,-5.929 15.945,-15.187 -2.901,-3.498 -8.535,-6.358 -12.523,-6.358 -6.492,0 -7.059,-3.539 -5.428,-33.843 2.739,-34.507 -8.034,-64.467 -37.331,-79.531 -23.091,-11.374 -53.458,-24.648 -89.624,0.858 -9.363,6.606 -8.04,0.871 -21.379,-6.982 -38.933,-22.922 -100.209,-3.338 -107.686,61.43 z m 208.164,-28.465 c 0,1.985 -2.306,4.505 -5.125,5.6 -13.801,5.362 -56.655,41.784 -71.966,61.164 -9.479,11.999 -19.827,25.463 -22.993,29.918 -5.418,7.62 -6.059,7.009 -10.8,-10.254 -5.957,-21.685 -0.281,-57.853 11.044,-70.367 26.653,-36.353 76.735,-44.332 99.84,-16.061 z m -104.384,-11.578 c 1.707,2.321 -2.776,10.299 -9.53,17.435 -16.439,17.371 -22.449,38.223 -20.871,72.405 1.231,26.623 0.567,29.169 -10.66,40.888 v -0.02 c -6.584,6.873 -13.083,12.496 -14.437,12.496 -1.353,0 -2.751,-7.24 -3.104,-16.092 -0.354,-8.852 -5.362,-25.404 -11.131,-36.785 -17.18,-33.902 -11.388,-77.13 9.801,-90.578 24.027,-15.248 53.927,-7.912 59.932,0.251 z m 118.591,24.236 c 5.37,0.942 11.555,10.657 11.539,32.306 -0.04,36.321 -13.481,61.631 -36.344,76.697 -21.682,14.288 -78.228,12.997 -79.65,-2.04 0,-12.008 40.243,-58.189 79.557,-91.3 10.644,-8.962 17.677,-14.352 22.307,-15.502 0.964,-0.24 1.824,-0.295 2.591,-0.161 z m 857.895,5.084 c -5.553,0.198 -10.834,1.45 -14.893,3.838 -5.646,3.319 -15.834,8.701 -22.652,11.959 -6.811,3.258 -15.863,9.767 -20.119,14.469 -4.248,4.698 -12.701,8.541 -18.764,8.541 -14.133,0 -24.615,11.623 -24.615,27.295 0,11.988 3.039,16.307 25.016,35.629 9.65,8.488 10.477,11.534 8.748,32.385 -1.815,21.869 -2.452,22.984 -12.702,22.312 -8.26,-0.542 -11.101,1.408 -12.082,8.289 -1.051,7.374 1.252,9.476 12.787,11.639 10.398,1.951 17.311,7.234 26.467,20.221 22.193,31.483 80.203,49.798 117.311,37.039 33.756,-11.603 53.117,-42.187 51.588,-81.489 -0.53,-13.814 0.1,-27.89 1.373,-31.275 3.856,-10.116 7.801,-29.954 8.496,-43.072 0.547,-10.082 -1.668,-13.419 -12.283,-18.461 -9.008,-4.283 -14.316,-10.683 -17.452,-21.051 -6.358,-21.056 -14.359,-26.112 -41.496,-26.217 -12.899,-0.06 -25.997,-2.141 -29.107,-4.652 -5.081,-4.107 -12.509,-6.588 -20.014,-7.248 -1.876,-0.165 -3.756,-0.217 -5.607,-0.151 z m -869.463,30.428 c -5.47,-0.551 -10.84,6.312 -10.84,16.303 0,12.14 10.309,12.943 16.549,1.285 3.369,-6.298 3.265,-9.99 -0.4,-14.408 -1.651,-1.989 -3.485,-2.997 -5.309,-3.18 z m 133.158,4.084 c -17.487,-0.198 -25.766,6.928 -48.828,67.094 -29.584,77.184 -31.376,94.738 23.691,101.26 20.359,2.409 21.093,2.932 18.573,13.183 -3.313,13.483 -20.037,42.437 -28.631,49.569 -10.417,8.645 -28.727,5.765 -56.389,-8.873 l -25.717,-13.612 -3.201,-22.512 c -6.645,-46.746 -29.264,-73.846 -61.677,-73.874 -55.898,-0.06 -80.786,26.038 -80.786,84.691 0,26.499 6.154,35.268 10.366,14.771 6.876,-33.462 16.595,-59.634 24.099,-64.89 12.002,-8.405 53.276,-7.795 61.99,0.918 7.51,7.51 14.303,23.126 14.303,32.873 0,4.415 -4.557,2.308 -15.18,-7.02 -9.369,-8.237 -15.811,-11.452 -16.82,-8.422 -2.877,8.634 7.967,28.765 22.25,41.309 13.107,11.507 13.856,13.62 13.856,39.221 0,14.885 1.91,30.63 4.248,34.994 9.467,17.693 24.468,5.711 24.468,-19.549 0,-9.7 1.658,-17.639 3.686,-17.639 2.025,0 14.21,5.539 27.08,12.307 34.628,18.215 54.443,17.121 77.672,-4.289 18.663,-17.205 31.968,-40.683 37.088,-65.451 1.634,-7.897 9.388,-23.806 17.23,-35.352 17.128,-25.223 22.001,-44.181 17.459,-67.937 -2.476,-12.943 -1.655,-22.381 3.037,-34.983 7.477,-20.072 4.803,-35.985 -7.117,-42.363 -4.599,-2.463 -20.489,-4.479 -35.306,-4.479 -8.763,0 -15.616,-0.88 -21.444,-0.945 z m 612.512,7.387 c -2.267,0.223 -4.874,0.718 -7.871,1.496 -30.072,7.808 -208.596,15.265 -220.106,22.379 -3.578,2.212 -13.167,-2.975 -1.918,83.381 13.525,103.752 6.489,116.462 24.973,108.955 2.259,-0.917 43.789,-6.36 92.303,-12.098 116.467,-13.775 129.808,-16.562 132.726,-27.754 1.277,-4.867 0.444,-32.927 -1.849,-62.359 -2.302,-29.428 -3.605,-66.428 -2.91,-82.221 -0.469,-21.529 0.488,-33.337 -15.348,-31.779 z m -622.918,13.006 24.478,1.131 c 13.463,0.625 25.239,1.894 26.165,2.82 0.929,0.926 -3.531,14.645 -9.909,30.484 -8.651,21.491 -13.244,28.311 -18.093,26.881 -25.21,-7.433 -29.065,-7.35 -29.065,0.637 0,4.363 4.615,12.269 10.254,17.568 4.638,6.675 14.525,21.69 12.027,29.434 -4.918,16.066 -10.444,16.516 -23.662,12.549 -5.987,-1.861 -11.696,-2.312 -23.359,-4.235 -4.508,-0.743 -8.041,-1.981 -7.854,-8.006 0.122,-3.951 8.953,-30.15 19.619,-58.222 z m 615.092,6.236 c 3.996,1.239 4.671,14.512 5.105,70.316 0.313,39.736 1.608,75.557 2.903,79.606 2.597,8.184 -8.374,6.563 -111.651,18.555 -28.518,3.311 -61.635,7.361 -69.053,9.121 -25.193,6.466 -20.583,-18.332 -27.605,-75.625 -3.735,-39.932 -6.638,-80.068 -5.621,-81.08 2.128,-2.126 62.429,-3.564 142.144,-12.516 30.463,-3.418 58.297,-7.137 61.858,-8.26 0.712,-0.226 1.312,-0.294 1.92,-0.117 z m 97.285,54.404 c 0.9,0.02 1.903,0.09 3.023,0.209 5.647,0.578 15.358,1.501 21.586,2.049 6.619,0.584 12.275,4.018 13.639,8.285 3.292,10.329 19.04,19.621 32.939,19.436 6.506,-0.09 18.58,0.974 26.815,2.349 11.891,1.984 16.756,0.722 23.592,-6.109 11.032,-11.033 12.709,-10.826 12.709,1.568 0,19.262 -13.074,43.661 -29.952,55.881 -19.544,14.165 -41.66,15.554 -66.451,4.18 -32.244,-14.793 -49.529,-42.417 -46.488,-74.334 0.894,-9.421 1.937,-12.713 6.184,-13.381 v 0 c 0.708,-0.109 1.504,-0.147 2.404,-0.129 z m 0.512,19.825 c -0.705,-0.04 -1.39,0.121 -2.022,0.468 -2.502,1.389 -4.221,5.744 -3.023,11.93 1.529,7.901 9.719,12.454 12.855,7.146 1.069,-1.812 0.253,-7.763 -1.797,-13.22 -1.602,-4.253 -3.899,-6.202 -6.013,-6.324 z m -727.522,17.515 c -3.384,0 -6.738,4.154 -7.461,9.231 -1.678,9.63 13.068,5.127 13.291,0 0.2,-5.616 -2.085,-9.231 -5.83,-9.231 z m 838.971,84.713 c -7.621,0.297 -16.344,1.626 -24.748,4.07 -27.371,7.956 -49.112,26.072 -55.879,46.557 -2.753,8.346 -4.744,32.388 -4.397,53.42 0.408,25.721 -1.257,41.857 -5.097,49.281 -8.66,16.743 -50.669,54.789 -58.764,53.229 -3.866,-0.744 -20.221,-22.564 -36.361,-48.491 -10.818,-17.384 -33.242,-43.769 -21.518,-58.189 6.011,-8.501 11.806,-11.341 25.131,-12.307 19.136,-1.387 43.988,9.814 43.988,19.823 0,9.864 16.218,38.404 21.821,38.404 7.87,0 15.045,-8.769 15.045,-18.254 0,-4.625 -4.414,-16.048 -9.756,-25.383 -6.257,-10.969 -8.451,-18.952 -6.166,-22.564 5.42,-8.559 4.326,-28.791 -1.955,-36.031 -3.083,-3.562 -7.392,-12.015 -9.555,-18.784 -4.56,-14.217 -11.328,-15.552 -81.227,-16.035 -50.242,-0.348 -182.092,16.882 -190.718,24.922 -5.394,5.027 -4.797,8.235 5.132,27.123 6.184,11.783 15.403,26.472 20.475,32.641 10.685,12.993 22.558,14.508 76.918,9.826 44.813,-3.858 53.568,0.985 69.49,38.437 12.821,30.167 36.997,69.543 50.305,81.942 10.988,10.237 40.685,11.189 58.648,1.879 6.767,-3.508 18.304,-12.165 25.635,-19.239 9.764,-9.42 13.334,-11.077 13.334,-6.195 0,9.596 11.44,19.631 19.049,16.715 5.134,-1.978 6.072,-6.825 4.439,-23.414 -1.573,-16.076 0.694,-29.135 9.797,-56.395 12.769,-38.24 16.01,-77.338 6.412,-77.338 -2.98,0 -7.524,6.923 -10.086,15.383 l -4.656,15.383 1.695,-15.816 c 2.545,-23.752 10.536,-32.503 44.743,-48.969 17.139,-8.249 31.168,-16.744 31.168,-18.879 0,-3.896 -6.168,-6.196 -15.141,-6.707 -2.243,-0.128 -4.661,-0.144 -7.201,-0.04 z m -192.004,14.59 c 6.133,0.06 6.287,0.639 1.023,4.039 -7.765,5.003 -8.199,5.003 -8.199,0 0,-2.255 3.233,-4.069 7.176,-4.039 z m -33.625,3.332 c 2.899,-0.05 5.491,0.203 7.094,0.203 3.197,0 2.947,2.17 2.947,4.604 0,2.259 -6.003,3.976 -13.334,3.816 -11.171,-0.246 -12.525,-4.047 -5.645,-7.004 2.832,-1.217 6.039,-1.569 8.938,-1.619 z m 11.588,17.115 c 11.7,0 22.289,10.313 14.002,13.635 -10.261,4.034 -7.607,3.83 -15.819,-1.471 -10.91,-5.837 -9.962,-12.164 1.817,-12.164 z m -157.094,8.711 c 1.425,-0.06 3.047,0.199 4.533,0.791 3.274,1.311 2.303,2.284 -2.474,2.481 -4.326,0.185 -6.75,-0.791 -5.387,-2.153 0.678,-0.682 1.904,-1.059 3.328,-1.119 z m 50.902,10.471 c 1.658,-0.105 3.283,-0.08 4.672,0.103 1.85,0.242 3.285,0.76 3.807,1.61 1.268,2.047 -2.425,3.718 -8.201,3.718 -5.777,0 -10.502,-0.708 -10.502,-1.572 0,-2.047 5.253,-3.545 10.224,-3.859 z m 126.959,5.431 c 5.507,0 11.163,1.845 12.553,4.104 1.477,2.393 -2.693,4.1 -10.016,4.1 -6.896,0 -12.542,-1.845 -12.542,-4.1 0,-2.259 4.498,-4.104 10.005,-4.104 z m -117.248,12.307 c 8.964,0 14.368,5.36 9.903,9.826 -4.134,4.127 -14.549,1.16 -16.504,-4.699 -0.99,-2.974 1.78,-5.127 6.601,-5.127 z m -36.023,4.508 c 1.103,-0.05 2.449,0.04 4.041,0.275 5.142,0.754 10.171,3.835 11.162,6.844 1.224,3.719 -1.2,5.034 -7.559,4.104 -5.151,-0.754 -10.179,-3.837 -11.169,-6.846 -0.919,-2.791 0.214,-4.227 3.525,-4.377 z" fill="#00B894" id="path3263-6" sodipodi:nodetypes="scssssssssssssssscscccssssssssssccsscsscccssssccsscsssssssssscscsssssscsssssssscscccccssssssccccsscscsssssssssscsssssssssssssscssscsssssssssssssccsscscsssssssssscssssssssssssscsssssssssssssssssssssssssssssssssssssssssssssssssccsssscccscssscssccsssssscscsscccccsccscssccccssssscccccsccssscscsssssssscssssssssssssssscssssssssssssssscscssssscsssssssssssssscssssssssssssssssssscssssscssscsssssscsssscssssssssscccsssssssccccsccssssccsssssssssssssscssssscsscscsssscsssscsscssssssssssscssssssssssccssccsssssssscssssssscssscsccsccsssscsssssssssssssccsssssssssssssssssscssccscsssssssssssssssssssscssssssssssscsscssscsssssssssssssssssssssscssscsccssssssssscsscssscscsssssssscsssssssssscccsscssssssssscsssssscssscssssssssssssccsssscssssssssssssssssssssscssccsssssscssscssssscsccssccssccccssssccscssssscssssssssssscccsccsssssssssssssscscssssscssscsssssssssssssscsscccsccsssccccsscccscscscsscssscsscscsssssscsssssccsssscssscsssscsccsscsssssssccssscsssssccscsssssssccssccssssssssscsssscsssssssssssssss" style="fill:#000000;stroke-width:4.10222" transform="translate(-3214.0181,-5425.6289)"/>
    </g>
  </g>
</svg>