<?xml version="1.0" ?><svg height="306.01773mm" viewBox="0 0 160.14487 306.01773" width="160.14487mm" xmlns="http://www.w3.org/2000/svg">
    <path d="m 15503.396,11295.041 c -1.517,-0.1 -2.864,0 -3.962,0.379 -8.784,2.964 3.359,23.426 3.359,23.426 0,0 -16.407,4.884 -21.639,8.953 -5.232,4.069 -10.721,16.101 -18.472,30.808 -7.751,14.707 14.404,12.555 14.404,12.555 0,0 -3.424,28.718 7.234,67.258 10.657,38.54 36.642,62.422 76.282,60.279 31.192,-1.685 59.814,-37.431 59.814,-37.431 0,0 33.265,16.217 46.377,13.601 13.112,-2.616 28.678,-15.346 30.486,-36.215 1.809,-20.868 -27.515,-37.9 -27.515,-37.9 l -11.303,-35.924 c 0,0 10.075,-23.776 1.807,-29.879 -8.267,-6.104 -27.516,5.289 -27.516,5.289 0,0 -16.277,-31.332 -29.389,-39.006 -13.112,-7.673 -18.73,16.627 -18.73,16.627 0,0 1.032,-17.323 -14.922,-21.683 -15.954,-4.36 -36.754,10.228 -36.754,10.228 0,0 -18.941,-10.681 -29.561,-11.365 z m 161.842,216.969 c -15.352,0.435 -28.38,8.147 -32.506,13.945 -4.716,6.627 -11.173,14.649 -11.173,14.649 0,0 -33.524,-14.01 -62.202,-12.731 -28.679,1.278 -64.347,12.227 -64.347,12.227 0,0 -11.111,-21.858 -31.199,-24.649 -20.088,-2.79 -29.259,8.486 -27.709,13.195 1.55,4.708 8.461,5 8.46,5 0,0 -17.115,32.261 -20.925,39.469 -3.811,7.208 5.49,15.114 14.662,7.092 9.172,-8.022 6.071,15.057 13.047,17.498 6.976,2.442 18.472,1.106 18.472,1.106 0,0 36.365,154.275 38.368,159.623 2.002,5.348 -8.72,20.346 -17.311,43.888 -8.591,23.543 -71.577,233.016 -84.883,289.809 -13.306,56.793 -25.324,217.237 -24.742,223.515 0.581,6.278 10.141,15.289 23.059,23.659 12.918,8.371 108.837,52.956 225.941,45.689 117.104,-7.266 194.607,-57.263 203.779,-60.111 9.172,-2.848 13.307,-7.266 11.821,-27.088 -1.485,-19.823 -47.131,-271.789 -99.127,-370.203 -51.996,-98.414 -88.967,-169.166 -88.967,-169.166 l 11.56,-149.336 c 0,0 27.039,-17.274 29.752,-32.852 2.713,-15.579 13.176,-15.753 11.885,-23.019 -1.292,-7.266 -20.864,-38.831 -39.014,-40.924 -2.268,-0.262 -4.508,-0.347 -6.701,-0.285 z" fill="#FFFFFF" transform="translate(-53.07923,52.945793) matrix(0.27304354,0,0,0.27304354,-3231.1949,-2466.628) translate(-3313.5291,-2437.8203)"/>
    <path d="m 12214.658,9956.6049 c -72.714,-8.9895 -106.831,-23.1695 -138.666,-57.6365 -22.667,-17.9821 -15.211,-38.1019 -13.871,-64.9779 4.034,-80.9615 20.187,-195.1159 38.439,-271.6184 9.797,-41.0763 32.352,-110.524 51.788,-159.456 18.347,-46.199 29.386,-77.9806 29.658,-85.3886 0.114,-3.3041 -4.247,-16.8606 -9.71,-30.1261 -5.462,-13.2652 -11.878,-32.5693 -14.252,-42.8979 -2.379,-10.3285 -5.3,-19.9662 -6.495,-21.4177 -1.196,-1.4514 -3.1,13.5087 -4.23,33.2448 -3.766,65.7611 -19.6,110.0654 -59.161,165.554 -14.658,20.5619 -16.906,25.6829 -12.44,28.3523 3.769,2.253 5.274,9.4499 4.878,23.3345 -0.315,11.0423 0.995,24.5813 2.912,30.0865 2.946,8.4709 2.392,10.2618 -3.609,11.6498 -3.901,0.902 -9.054,5.6396 -11.451,10.5275 -4.769,9.7222 -14.594,11.2161 -24.079,3.6616 -7.675,-6.1117 -16.712,-34.1479 -15.932,-49.4283 0.796,-15.594 3.798,-21.6058 18.252,-36.5581 11.26,-11.6475 43.107,-66.3014 57.459,-98.6099 10.035,-22.5899 18.719,-68.964 22.115,-118.0928 1.771,-25.6015 4.347,-49.2334 5.724,-52.5158 1.706,-4.063 0.08,-6.6773 -5.105,-8.191 -4.685,-1.369 -7.523,-5.286 -7.383,-10.1926 0.151,-5.3062 -1.799,-7.6601 -5.836,-7.0449 -3.332,0.508 -7.791,-1.936 -9.904,-5.4312 -3.023,-4.9943 -1.261,-10.2638 8.234,-24.6111 11.229,-16.9672 11.586,-18.4013 5.045,-20.3126 -9.874,-2.8849 -8.592,-9.081 4.417,-21.3715 8.047,-7.6005 14.829,-10.4838 24.042,-10.2212 13.908,0.3963 30.362,11.6733 33.617,23.0371 1.949,6.8131 2.579,6.8181 21.669,0.1706 25.133,-8.7515 68.006,-10.8658 90.655,-4.4708 16.042,4.5291 17.842,4.3272 22.981,-2.5808 7.284,-9.7946 24.85,-18.0966 37.523,-17.7355 26.051,0.7424 63.452,54.9362 42.896,62.1592 -3.426,1.2048 -4.667,4.8767 -3.439,10.1873 1.214,5.2538 -0.28,9.819 -4.076,12.4311 -5.263,3.6217 -2.891,10.7093 19.338,57.7921 22.403,47.4496 29.713,58.8266 63.13,98.2465 57.115,67.3735 59.364,69.5316 70.605,67.7128 31.158,-5.0405 75.49,38.8952 74.495,73.8268 -0.31,10.8898 -9.284,12.5704 -14.443,2.7045 -2.607,-4.9869 -3.447,-3.3934 -3.746,7.1079 -0.471,16.5275 -4.046,22.5998 -11.481,19.5007 -3.099,-1.2913 -7.753,0.3948 -10.356,3.7516 -7.013,9.0385 -11.789,3.581 -19.738,-22.5621 -10.176,-33.4622 -13.935,-38.4357 -14.552,-19.2503 -0.897,27.4248 -16.459,24.345 -20.166,-3.9876 -2.604,-19.9045 -24.745,-55.6976 -61.351,-99.1773 -52.763,-62.6706 -54.282,-65.2592 -87.281,-148.6151 -4.131,-10.4432 -4.76,-8.1463 -8.1,29.6186 -1.994,22.5168 -5.331,55.5286 -7.425,73.3596 -1.56,23.8506 -3.123,33.3523 10.809,52.5445 37.117,51.1413 94.04,169.4205 117.032,243.1819 46.388,148.8402 70.314,283.1969 53.875,302.5579 -5.932,6.9886 -45.025,31.6199 -65.538,41.297 -55.029,25.9575 -169.06,37.8484 -257.772,26.8809 z m 121.616,-28.034 c 48.571,-4.0119 91.47,-12.153 118.172,-22.4256 9.723,-3.7414 12.261,-6.5844 10.948,-12.2637 -2.354,-10.1786 6.518,-14.5409 12.347,-6.0711 6.709,9.7456 17.072,5.1338 14.511,-6.458 -2.749,-12.4412 5.764,-16.7041 13.4,-6.7084 4.426,5.7979 7.615,6.9541 12.347,4.4792 8.7,-4.5479 5.014,-21.1028 -7.045,-31.6432 -10.141,-8.863 -8.826,-22.1173 1.758,-17.7068 7.583,3.1615 6.439,-5.0984 -12.533,-90.4682 -31.184,-140.2964 -68.101,-237.5422 -138.31,-364.3154 -16.192,-29.8321 -18.68,-45.8645 -33.997,-40.2775 -44.056,10.8759 -99.801,12.3569 -128.388,0.4426 -4.437,-1.8489 -6.284,1.5214 -8.563,15.6115 -1.599,9.8834 -13.123,48.684 -25.612,86.2243 -37.512,112.7794 -52.047,174.4273 -67.253,285.2584 -12.364,90.1368 -14.665,121.9216 -9.309,128.7611 4.085,5.2175 3.835,6.6687 -1.629,9.527 -3.884,2.0293 -6.58,7.9114 -6.776,14.7749 -0.294,10.3212 0.57,11.2053 9.122,9.3164 7.807,-1.7245 10.046,-0.3637 12.899,7.831 2.86,8.2226 4.417,9.1602 9.111,5.4856 4.483,-3.5103 6.787,-3.4411 11.081,0.3438 2.981,2.6208 4.5,6.1634 3.374,7.8726 -2.624,3.989 30.811,14.2226 58.43,17.8825 l 21.374,2.8326 0.329,-11.5277 c 0.403,-14.1713 9.141,-12.8451 10.44,1.5847 0.745,8.2532 3.032,10.075 14.595,11.6274 29.853,4.0076 56.844,4.0128 105.177,0.021 z m -94.566,-6.4796 c -7.222,-7.6472 -7.206,-10.9453 0.08,-16.6502 4.568,-3.5756 6.831,-3.5111 11.185,0.3187 6.831,6.0051 6.782,12.9149 -0.127,18.3242 -4.108,3.2158 -6.645,2.7615 -11.138,-1.9927 z m 114.371,-1.1116 c -6.593,-2.6337 -5.322,-16.1645 1.504,-15.97 6.753,0.1924 11.331,10.708 6.486,14.894 -1.857,1.6048 -5.453,2.0889 -7.99,1.076 z m 24.131,-6.6192 c -3.396,-3.5944 -2.646,-16.2438 0.958,-16.1411 4.645,0.1324 11.689,8.7621 11.536,14.1343 -0.145,5.079 -8.349,6.3967 -12.494,2.0068 z m -156.369,-11.9185 c -1.328,-1.4056 -2.352,-4.7928 -2.274,-7.5269 0.188,-6.5995 10.023,-6.1151 12.386,0.6104 2.788,7.9357 -4.465,12.8967 -10.112,6.9171 z m 139.812,-11.8531 c -2.467,-4.9412 -2.436,-8.1875 0.08,-9.6501 5.076,-2.9412 11.163,1.3655 10.981,7.7689 -0.246,8.6208 -7.122,9.7895 -11.069,1.881 z m -202.767,-4.8655 c -3.694,-3.9121 -2.491,-16.2395 1.574,-16.1236 4.687,0.1336 11.374,13.5667 8.235,16.5345 -3.129,2.9539 -6.774,2.8013 -9.809,-0.4111 z m 27.594,-2.1172 c -5.352,-6.8348 -1.765,-18.3732 4.948,-15.9233 5.866,2.1405 7.926,13.918 3.212,18.3701 -2.232,2.1063 -5.321,1.1797 -8.16,-2.4468 z m -50.093,-5.9883 c -2.599,-7.398 3.306,-14.2774 9.025,-10.5132 5.771,3.7987 4.495,17.1192 -1.625,16.9448 -2.855,-0.081 -6.187,-2.9757 -7.4,-6.4316 z m 143.952,5.8456 c -6.027,-6.3802 -5.049,-21.7848 1.369,-21.6019 2.877,0.082 6.795,5.088 8.707,11.1246 4.613,14.5604 -0.857,20.2436 -10.076,10.4773 z m 23.597,-6.325 c -1.23,-4.2937 -1.133,-8.849 0.228,-10.1222 3.627,-3.4252 14.754,5.0874 15.945,12.197 1.564,9.3346 -13.447,7.408 -16.16,-2.0744 z m -194.245,-7.1197 c -1.091,-3.1094 -0.871,-8.3293 0.499,-11.5997 2.006,-4.8155 3.507,-5.0407 7.894,-1.1836 2.982,2.6194 5.329,7.9125 5.219,11.7624 -0.237,8.3248 -10.762,9.1146 -13.606,1.021 z m 144.008,2.141 c -7.772,-8.2276 -7.899,-15.35 -0.317,-17.6397 5.501,-1.662 16.482,20.7278 11.562,23.5785 -2.003,1.1601 -7.064,-1.5122 -11.245,-5.9388 z m 74.809,0.4859 c -2.376,-3.0334 -3.232,-7.1637 -1.908,-9.1782 3.229,-4.9071 13.274,-0.4411 13.096,5.8224 -0.218,7.651 -6.378,9.4986 -11.188,3.3558 z m -122.959,-9.4968 c 0.152,-5.3353 2.217,-7.2859 6.666,-6.2966 9.664,2.1482 10.397,14.5186 0.842,14.2463 -5.334,-0.152 -7.66,-2.6144 -7.508,-7.9497 z m 166.667,-1.8002 c -6.451,-7.549 -7.788,-19.5168 -2.166,-19.3566 5.153,0.1469 18.587,19.5469 16.127,23.2852 -3.244,4.9307 -7.388,3.7647 -13.961,-3.9286 z m 27.611,2.3457 c -3.009,-3.8471 -3.031,-6.0705 -0.07,-7.7858 4.402,-2.5495 14.811,4.6899 14.654,10.1916 -0.147,5.1521 -9.929,3.5382 -14.582,-2.4058 z m 75.811,2.292 c -2.923,-8.3213 1.397,-12.4035 6.929,-6.5465 3.269,3.4582 3.224,5.5429 -0.19,8.7649 -3.411,3.2221 -5.012,2.6946 -6.739,-2.2184 z m -380.245,-14.7938 c -2.539,-7.226 1.165,-16.9935 6.385,-16.8447 4.954,0.1412 4.536,17.6112 -0.504,20.5232 -2.101,1.2176 -4.751,-0.4379 -5.89,-3.6787 z m 329.043,12.2496 c -3.613,-3.8244 -2.538,-16.2408 1.396,-16.1287 8.498,0.2422 15.074,5.549 14.889,12.0173 -0.196,6.9016 -11.059,9.6442 -16.285,4.1114 z m -198.624,-12.7516 c -2.876,-8.1856 5.23,-15.5757 10.714,-9.7688 4.637,4.9082 1.363,15.9607 -4.676,15.7887 -2.178,-0.062 -4.897,-2.7712 -6.038,-6.0199 z m 112.754,-3.2263 c -2.002,-3.4731 -1.634,-7.7839 -0.318,-9.026 3.892,-3.6782 9.424,1.4278 7.469,8.7249 -1.729,6.4686 -3.123,7.2877 -6.603,1.2521 z m 114.088,-6.7184 c -6.669,-4.3889 -1.671,-15.5993 5.603,-12.5676 6.004,2.5025 7.448,11.115 2.361,14.0637 -1.665,0.9642 -5.249,0.2911 -7.964,-1.4961 z m 26.141,-16.8217 c -2.643,-7.601 -2.208,-11.2982 1.775,-15.0613 6.431,-6.0751 11.827,-0.7057 15.359,15.2839 1.951,8.8244 1.134,10.2721 -5.677,10.078 -5.189,-0.1479 -9.171,-3.7266 -11.457,-10.3006 z m -20.308,-5.8544 c -3.666,-6.3258 5.178,-13.2082 10.174,-7.9188 4.18,4.4248 1.26,12.301 -4.497,12.1369 -1.809,-0.051 -4.366,-1.9498 -5.677,-4.2181 z m -145.025,-496.0594 c 20.755,-0.4933 19.331,-7.112 24.168,-74.7609 3.139,-43.912 8.46,-68.3088 0.705,-70.0489 -20.222,-8.9543 -33.906,-33.2122 -33.44,-50.2512 0.245,-8.6234 -1.645,-14.4235 -5.156,-15.8872 -3.978,-1.6574 -5.603,0.2285 -5.787,6.7129 -0.142,4.9601 -3.01,10.4561 -6.371,12.2134 -4.889,2.5555 -5.327,4.7669 -2.193,11.0463 5.014,10.0493 1.098,19.5043 -7.972,19.2458 -5.066,-0.1443 -7.133,2.4622 -7.326,9.2363 -0.148,5.1907 -2.768,10.3151 -5.821,11.3877 -3.052,1.073 -6.815,7.7634 -8.357,14.8675 -2.862,13.1686 -11.023,19.5348 -16.968,13.238 -4.537,-4.8025 3.798,-38.5906 15.136,-41.9322 2.576,-0.759 4.998,-3.9176 5.139,-8.8763 0.141,-4.9583 1.368,-11.6822 2.726,-14.9422 2.03,-4.8704 3.46,-5.0555 8.029,-1.0384 4.817,4.2347 5.217,3.635 2.994,-4.4832 -1.411,-5.1546 -2.549,-10.2109 -2.526,-11.2364 0.175,-8.2374 1.969,-11.1375 6.785,-11.0003 3.075,0.088 5.663,-2.3571 5.751,-5.4328 0.103,-3.6196 -3.471,-5.6956 -10.128,-5.8853 -9.353,-0.2665 -11.143,1.9685 -19.719,24.6234 -19.074,50.381 -21.915,56.276 -27.057,56.1295 -6.348,-0.1809 -25.337,-41.8943 -27.963,-61.4286 -1.938,-14.4331 -3.392,-15.9642 -10.853,-11.4456 -4.652,2.8175 -14.308,30.6677 -11.622,33.5141 0.893,0.9463 4.435,-0.4779 7.866,-3.165 5.666,-4.4338 8.399,-5.9225 6.676,11.6014 -1.844,18.7553 -3.965,22.0908 4.985,20.7272 11.265,-1.7161 14.842,3.6567 14.405,21.6321 -0.195,7.5688 1.312,14.8466 3.328,16.1725 2.014,1.3257 3.76,-1.0441 3.881,-5.2659 0.363,-12.7589 9.311,-8.3597 13.544,6.66 4.529,16.0602 3.678,18.1412 -5.568,13.6099 -3.629,-1.7789 -8.462,-3.4087 -10.743,-3.6217 -7.912,-0.7396 -16.055,-10.9011 -15.803,-19.7202 0.246,-8.6611 -1.197,-9.6097 -16.482,-10.826 -6.27,-0.4991 -7.321,-3.0879 -6.67,-16.4279 0.534,-10.8901 -0.784,-15.8796 -4.209,-15.9772 -3.057,-0.087 -4.926,3.8254 -4.833,10.1228 0.251,17.401 4.081,29.033 9.608,29.1905 2.906,0.083 5.922,2.2676 6.704,4.8548 0.779,2.5875 -1.237,4.6288 -4.484,4.5363 -3.245,-0.093 -5.849,0.253 -5.784,0.7679 0.07,0.5151 5.814,25.4062 12.769,55.3135 11.221,48.2335 13.653,54.7184 21.538,57.3936 10.236,3.4727 83.256,2.6926 107.098,-1.144 z m -76.914,-22.9756 c 0.1,-3.4177 1.964,-5.5613 4.146,-4.7637 2.185,0.7977 3.926,3.044 3.871,4.9921 -0.06,1.9477 -1.922,4.0913 -4.149,4.7633 -2.224,0.672 -3.965,-1.5744 -3.868,-4.9917 z m -21.684,-24.6504 c 0.296,-10.3767 6.77,-12.697 11.12,-3.9843 5.135,10.2891 4.666,11.6763 -3.869,11.4331 -4.896,-0.1396 -7.386,-2.6979 -7.251,-7.4488 z m 32.25,-5.2347 c -2.617,-7.4544 0.586,-12.7057 7.654,-12.5043 3.244,0.092 5.266,3.8439 5.106,9.4735 -0.297,10.4256 -9.4,12.5882 -12.76,3.0308 z m -48.382,-17.8323 c -2.9,-5.0061 1.756,-11.8602 6.111,-8.9945 4.446,2.9277 4.13,13.0175 -0.388,12.8887 -1.929,-0.055 -4.498,-1.8073 -5.706,-3.8937 z m 69.352,-11.3938 c 0.09,-3.2465 2.14,-5.1819 4.552,-4.301 6.845,2.5013 7.764,10.5597 1.182,10.3721 -3.247,-0.092 -5.827,-2.8245 -5.734,-6.0711 z m -81.809,-9.7934 c 0.09,-3.2468 2.144,-5.182 4.555,-4.3013 6.846,2.5014 7.765,10.5599 1.179,10.3722 -3.246,-0.093 -5.826,-2.8244 -5.734,-6.0709 z m 93.622,-11.946 c 0.1,-3.4174 1.963,-5.561 4.145,-4.7634 2.183,0.7976 3.924,3.044 3.868,4.9917 -0.06,1.9481 -1.921,4.0917 -4.146,4.7637 -2.224,0.672 -3.965,-1.5743 -3.867,-4.992 z m 15.768,-29.6201 c 0.09,-3.1968 1.841,-4.7097 3.887,-3.3625 2.046,1.3472 2.714,3.9838 1.479,5.8591 -3.343,5.08 -5.553,4.0519 -5.366,-2.4966 z m 6.064,-16.3971 c -1.209,-2.0869 -0.422,-3.7434 1.75,-3.6815 2.169,0.062 3.899,1.7901 3.841,3.8408 -0.06,2.0503 -0.847,3.7069 -1.751,3.6812 -0.902,-0.026 -2.633,-1.7541 -3.84,-3.8405 z m 51.151,-23.5506 c 5.936,1.7346 6.68,0.4478 5.1,-8.8212 -2.025,-11.8734 -0.426,-12.8377 10.716,-6.4606 11.555,6.6155 12.477,1.4504 1.637,-9.1854 -12.021,-11.7969 -8.674,-19.0773 7.106,-15.4509 16.703,4.3757 11.803,3.114 2.556,-7.368 -18.762,-21.2655 -42.819,-26.1072 -56.381,-11.3466 -9.244,10.0599 -5.253,44.8856 8.649,61.7597 9.221,11.1912 11.314,15.0661 12.177,4.556 1.14,-7.4248 3.128,-9.2353 8.44,-7.683 z m -127.112,5.0448 c 0.08,-2.8289 6.109,-16.1985 13.399,-29.7103 7.678,-17.8883 22.358,-25.7139 -2.152,-22.6249 -32.509,4.0967 -31.541,2.6261 -23.333,35.4392 4.999,19.9919 11.729,29.4001 12.086,16.896 z m -74.335,-21.7503 c 1.887,-7.5155 6.205,-15.0532 11.049,-19.9279 11.675,-11.5854 12.466,-9.6472 0.486,-20.5723 -10.236,-9.3368 -26.07,-12.7261 -30.191,-6.4628 -1.214,1.8423 -0.119,4.1761 2.429,5.1861 3.7,1.4658 3.661,3.2254 -0.188,8.7085 -2.653,3.7794 -9.29,14.72 -14.746,24.3121 -10.36,18.2132 -7.939,24.4376 3.257,8.3691 7.471,-10.7241 13.57,-8.6692 13.196,4.4462 -0.404,14.1824 9.985,14.7493 13.902,-0.8485 z m 63.754,-61.9422 c -30.374,-9.146 -48.522,-30.5531 -58.742,-60.7258 -3.144,-9.2839 -5.165,-20.7696 -5.165,-20.7696 -30.887,-3.1981 -20.001,-20.1325 -2.143,-22.8495 0.115,-3.3316 1.302,-12.1263 2.589,-16.4242 1.735,-5.8007 0.353,-8.3947 -5.364,-10.0646 -10.107,-2.9537 -9.775,-18.2138 0.577,-27.072 4.273,-3.6513 7.599,-9.2735 7.391,-12.4938 -0.789,-12.0989 0.996,-15.4222 9.959,-18.5408 7.913,-2.7528 8.978,-4.9721 7.547,-15.7231 -2.413,-18.1147 7.205,-25.2076 21.942,-16.1823 8.746,5.358 10.645,5.5724 10.769,1.2168 0.179,-6.253 11.432,-12.393 18.002,-9.823 2.538,0.9919 4.519,5.1527 4.402,9.2459 -0.197,6.9171 1.454,7.3123 23.361,5.5954 29.011,-2.273 47.763,4.948 63.631,24.5036 9.577,11.8056 12.176,13.1076 20.426,10.2373 5.974,-2.0781 11.742,-1.9189 15.68,0.4198 6.879,4.1114 8.022,20.2164 1.698,23.8814 -2.561,1.4835 -1.76,4.0845 2.207,7.1621 4.225,3.2778 5.522,8.03 4.034,14.7703 -1.208,5.4658 -0.769,10.8769 0.976,12.0251 1.744,1.1477 3.099,4.6127 3.011,7.6998 -0.09,3.0872 4.642,9.8939 10.512,15.1262 22.308,19.8808 21.632,45.6847 -1.737,66.8409 -16.07,14.5422 -44.724,16.1739 -56.94,3.2426 -10.486,-14.4666 -13.485,-4.0891 -23.545,6.8332 -26.896,25.1524 -48.672,29.819 -75.078,21.8683 z m 56.895,-32.4122 c 15.421,-11.8444 23.106,-17.2696 27.24,-28.1406 7.303,-19.1974 7.153,-22.159 -1.788,-35.0026 -4.211,-6.0453 -6.616,-13.4792 -5.349,-16.5199 1.268,-3.0407 0.478,-10.8217 -1.756,-17.2914 -3.278,-9.4907 -5.661,-11.4099 -12.34,-9.9341 -11.595,2.5611 -26.919,-5.8661 -29.166,-16.0401 -1.609,-7.2816 -2.939,-7.936 -8.964,-4.4088 -5.405,3.1651 -10,2.9888 -19.476,-0.7453 -17.128,-6.7523 -25.184,-4.5156 -32.338,4.8466 -11.224,14.6864 -17.543,33.0712 -16.841,61.5557 0.551,22.3818 4.979,33.7533 12.827,46.3802 21.325,34.3088 57.848,38.4208 84.905,17.64 z m -78.732,-15.6337 c -13.89,-12.7899 -9.196,-18.7369 25.229,-31.9613 30.679,-11.7856 35.779,-10.3851 35.208,9.6645 -0.247,8.6587 -3.648,14.6824 -12.505,22.1549 -15.653,13.2025 -33.69,13.256 -47.932,0.1419 z m 44.58,-10.7274 c 5.864,-5.0136 10.026,-15.9263 6.114,-16.0378 -0.64,-0.018 -8.204,3.1243 -16.81,6.9834 -8.606,3.8588 -18.242,6.9423 -21.417,6.8518 -3.175,-0.091 -5.82,1.5131 -5.878,3.5638 -0.179,6.2532 30.357,5.159 37.991,-1.3612 z m -53.726,-57.1711 c -2.876,-8.1861 5.229,-15.5761 10.713,-9.7689 4.637,4.9081 1.365,15.9606 -4.675,15.7884 -2.179,-0.062 -4.898,-2.7708 -6.038,-6.0195 z m 26.986,-9.7987 c -0.468,-4.0879 2.52,-7.4508 5.597,-7.208 3.643,0.2872 6.958,2.0764 7.492,9.5005 0.485,6.7652 -2.697,8.1889 -6.027,8.0541 -3.647,-0.1479 -6.155,-2.4127 -7.062,-10.3466 z m 118.111,75.7486 c -5.098,-4.2497 -10.32,-7.7566 -11.608,-7.7933 -1.285,-0.037 -0.637,3.3399 1.441,7.5035 2.075,4.1635 7.298,7.6704 11.604,7.7931 7.401,0.2109 7.323,-0.1979 -1.437,-7.5033 z m 9.793,-11.656 c -6.373,-6.7458 -12.937,-10.9874 -14.586,-9.4261 -3.37,3.1912 14.999,21.3729 21.79,21.5664 2.41,0.069 -0.834,-5.3943 -7.204,-12.1403 z m 7.556,-14.6262 c -8.607,-8.4984 -16.826,-14.3096 -18.264,-12.913 -1.442,1.3961 4.675,9.2209 13.594,17.3886 21.12,19.3406 25.01,15.6107 4.67,-4.4756 z m 25.301,5.5239 c 0.275,-9.6365 -11.967,-24.9684 -17.419,-21.8114 -3.033,1.7583 -1.336,6.6136 5.48,15.6743 11.505,15.2947 11.676,15.3824 11.939,6.1371 z m -42.893,-37.9922 c 7.454,0.8072 12.112,-0.6861 13.423,-4.3039 1.103,-3.0468 0.619,-4.3162 -1.078,-2.8209 -1.696,1.4952 -5.668,0.2576 -8.826,-2.7505 -4.999,-4.7601 -6.91,-4.5747 -14.738,1.4285 -6.351,4.8694 -8.213,8.8434 -6.337,13.5122 2.521,6.2767 2.746,6.2848 4.397,0.1563 1.262,-4.6743 4.895,-6.1163 13.159,-5.2218 z m -13.524,-25.6156 c -4.628,-1.0083 -9.39,-11.1366 -11.253,-18.5261 -3.99,-15.8172 -7.784,-8.8585 -20.049,-8.053 -11.251,0.739 -13.966,-1.4045 -14.703,-7.7431 -0.61,-5.2299 -4.554,-8.6092 -12.101,-10.3681 -6.158,-1.4353 -15.69,-5.74 -21.18,-9.5659 -9.261,-6.4517 -10.666,-6.5388 -19.348,-1.1976 -12.137,7.4681 -18.577,7.1984 -15.308,-0.6405 1.415,-3.3947 0.468,-7.5817 -2.135,-9.3315 -7.18,-4.8483 -12.334,-4.0775 -7.434,1.1117 8.732,9.2416 4.488,17.5848 -11.066,21.7661 -17.879,4.4639 -14.748,9.9069 -23.665,21.3771 -13.321,16.9818 -4.967,17.658 10.286,0.8327 7.569,-8.3477 16.205,-15.1076 19.193,-15.0225 2.986,0.085 9.372,-2.2698 14.188,-5.2336 7.882,-4.8482 10.539,-4.679 26.529,1.6891 13.628,5.4266 18.171,6.0007 19.491,2.4619 2.797,-7.5138 7.595,-5.1236 9.806,4.8864 2.478,11.2169 14.73,15.5169 29.535,10.3655 10.166,-3.5375 10.526,-3.289 8.035,5.5621 -3.175,11.2756 6.926,20.7232 19.499,20.9035 7.974,0.116 13.952,-2.6011 5.958,-4.3425 z m 6.362,-12.8554 c 0.06,-2.0504 -1.572,-3.7758 -3.623,-3.8343 -2.05,-0.058 -3.776,1.5714 -3.835,3.6217 -0.06,2.0507 1.572,3.7763 3.622,3.8347 2.052,0.058 3.778,-1.5715 3.836,-3.6221 z m 16.631,-12.585 c 1.268,-3.042 0.68,-5.5773 -1.306,-5.6339 -1.985,-0.056 -3.681,2.4137 -3.768,5.4893 -0.09,3.0758 0.498,5.611 1.305,5.634 0.805,0.023 2.501,-2.4473 3.769,-5.4894 z m -55.958,-34.4241 c -6.393,-6.7691 -8.419,-0.8014 -3.619,10.6707 4.377,10.4664 4.535,10.5218 5.993,2.0881 0.822,-4.765 -0.246,-10.5064 -2.374,-12.7588 z m 17.789,14.5904 c -2.506,-3.1992 -5.553,-4.8738 -6.774,-3.7216 -1.218,1.1527 0.205,3.7266 3.169,5.7204 7.747,5.2159 8.797,4.6347 3.605,-1.9988 z m -47.911,-18.2857 c 0.06,-1.9293 -1.577,-3.5559 -3.628,-3.6143 -2.049,-0.058 -3.801,2.5093 -3.892,5.7061 -0.09,3.1965 1.541,4.8231 3.626,3.6142 2.088,-1.2087 3.839,-3.7764 3.894,-5.706 z" fill="#00B894" transform="translate(-53.07923,52.945793) matrix(0.27304354,0,0,0.27304354,-3231.1949,-2466.628)"/>
</svg>