<?xml version="1.0" ?><svg height="265.72568mm" viewBox="0 0 207.83449 265.72568" width="207.83449mm" xmlns="http://www.w3.org/2000/svg">
    <path d="m 13087.626,7801.498 c -10.719,0.33 -29.135,28.527 -29.135,28.527 0,0 -2.655,1.898 -21.529,3.217 -18.873,1.319 -78.059,24.486 -78.059,24.486 0,0 -31.425,-8.161 -48.283,-2.967 -16.858,5.195 -10.169,15.089 -9.619,34.713 0.55,19.623 27.608,31.094 27.608,31.094 0,0 25.011,31.909 29.134,46.668 4.123,14.759 6.553,60.21 -7.968,80.473 -29.368,40.976 -73.662,119.804 -89.879,155.011 -16.216,35.208 -39.997,87.873 -57.68,135.201 -17.682,47.328 -51.304,200.607 -53.32,238.948 -2.016,38.34 -6.746,38.156 20.246,54.172 33.31,19.763 174.619,23.206 233.621,25.349 59.002,2.144 130.821,-16.469 154.642,-20.674 23.82,-4.205 34.631,-21.439 35.914,-38.754 1.283,-17.315 -19.423,-254.087 -23.728,-315.267 -4.306,-61.179 -44.405,-171.359 -50.541,-257.74 -1.668,-23.507 -5.314,-35.537 -0.09,-66.457 5.222,-30.92 -9.711,-83.69 -9.711,-83.69 0,0 20.705,-20.532 17.957,-37.681 -2.749,-17.15 -28.859,-34.959 -39.578,-34.629 z m -367.029,220.263 c -0.434,-0.04 -0.868,-0.02 -1.299,0.06 -6.897,1.232 -10.182,16.256 -10.182,16.256 0,0 -5.037,-8.029 -10.838,-10 -5.802,-1.97 -41.161,-2.562 -53.039,9.211 -11.877,11.773 -9.906,21.379 -9.906,21.379 0,0 -3.996,1.035 -13.355,3.941 -9.36,2.907 -9.36,17.142 -9.36,17.142 0,0 -20.087,-16.552 -27.64,-11.232 -7.554,5.32 5.472,17.291 5.472,17.291 0,0 -13.629,-2.314 -17.953,8.424 -4.324,10.739 44.063,22.314 44.063,22.314 0,0 -20.197,24.136 -15.928,31.329 4.269,7.192 35.248,7.832 35.248,7.832 0,0 -11.823,23.989 0.656,29.259 12.48,5.271 15.709,-11.722 15.709,-11.722 0,0 10.073,10.985 12.864,16.748 2.792,5.763 23.537,3.547 22.771,17.881 -0.766,14.335 0.929,21.625 6.02,23.103 5.09,1.478 9.908,-28.127 11.824,-40.344 0,0 1.422,-8.326 12.314,-13.498 10.892,-5.172 34.811,-12.068 56.869,-21.576 22.058,-9.507 -4.378,-17.683 -2.845,-33.988 1.532,-16.305 7.935,-24.777 12.423,-42.856 4.489,-18.078 -4.05,-13.448 -7.279,-20.935 -3.23,-7.488 -12.808,-12.167 -28.463,-16.699 -15.654,-4.532 -18.226,8.276 -16.584,0.837 1.54,-6.973 -5.05,-19.619 -11.562,-20.158 z" fill="#FFFFFF" transform="translate(57.672965,-2.6808235) matrix(0.30052248,0,0,0.30052248,-3832.2294,-2337.681)"/>
    <path d="m 16412.609,10225.621 c -2.415,-0.319 -5.075,-0.161 -7.875,0.541 -9.193,2.307 -32.17,24.575 -32.17,31.178 0,1.714 -12.315,3.905 -27.361,4.871 -20.503,1.316 -34.099,4.863 -54.254,14.152 -23.096,10.646 -28.228,11.786 -36.361,8.08 -12.689,-5.782 -25.368,-5.434 -41.065,1.125 -16.984,7.097 -20.369,16.022 -9.25,24.409 5.691,4.292 7.146,7.344 4.325,9.087 -6.041,3.733 -5.271,23.419 1.006,25.829 11.64,4.466 10.349,22.795 -4.549,64.515 -18.557,51.968 -32.548,80.015 -63.614,127.551 -21.405,32.75 -26.382,38.176 -35.146,38.316 -14.559,0.232 -16.977,-13.187 -7.422,-41.173 4.171,-12.217 6.183,-22.211 4.467,-22.211 -5.312,0 -19.025,19.828 -21.186,30.638 -1.895,9.482 -3.324,10.224 -18.435,9.567 -12.028,-0.524 -16.943,-2.482 -18.496,-7.375 -1.164,-3.665 -5.365,-6.664 -9.338,-6.664 -7.8,0 -9.693,-5.511 -3.256,-9.489 2.181,-1.349 5.59,-6.716 7.57,-11.927 3.462,-9.104 3.884,-9.219 10.832,-2.932 4.9,4.432 10.295,5.775 16.729,4.16 13.525,-3.395 12.062,4.729 -1.717,9.533 -12.507,4.36 -14.302,8.672 -5.084,12.209 12.588,4.83 30.905,-15.393 20.033,-22.113 -6.793,-4.198 -3.884,-9.346 5.276,-9.346 5.475,0 12.812,-4.515 18.691,-11.502 11.217,-13.331 11.68,-15.826 4.09,-22.125 -4.508,-3.74 -7.436,-3.428 -15.123,1.61 -5.245,3.436 -11.251,10.012 -13.348,14.615 -3.109,6.822 -6.184,8.091 -16.65,6.869 -12.179,-1.422 -18.566,-8.158 -7.739,-8.158 8.321,0 24.803,-14.937 24.803,-22.479 0,-10.394 -5.907,-12.165 -18.627,-5.587 -11.079,5.729 -11.462,5.636 -14.97,-3.586 -4.056,-10.67 -18.737,-13.376 -18.737,-3.454 0,4.42 -2.292,5.438 -8.656,3.84 -4.946,-1.241 -12.052,0.206 -16.574,3.373 -5.024,3.519 -8.773,4.165 -10.256,1.768 -3.603,-5.833 -33.96,-4.573 -39.102,1.623 -5.554,6.691 -3.755,21.484 2.879,23.67 2.705,0.892 5.822,-1.824 6.924,-6.035 3.709,-14.19 48.057,-16.591 51.879,-2.809 1.188,4.294 4.01,11.57 6.273,16.17 3.022,6.152 2.933,12.285 -0.336,23.197 -5.542,18.505 -14.001,27.347 -23.328,24.387 -3.894,-1.236 -7.082,-0.648 -7.082,1.307 0,1.954 -4.17,4.351 -9.273,5.326 -10.354,1.979 -24.369,-6.042 -24.369,-13.947 0,-2.836 -4.616,-5.679 -10.282,-6.33 -15.854,-1.824 -15.987,-15.776 -0.251,-25.372 11.478,-6.996 11.288,-8.047 -1.622,-9.08 -2.571,-0.205 -6.504,-5.42 -8.744,-11.588 -2.989,-8.233 -6.468,-11.214 -13.084,-11.214 -7.436,0 -9.214,2.125 -10.181,12.148 -1.133,11.764 4.36,16.962 7.9,7.477 1.186,-3.171 2.615,-2.571 4.449,1.869 1.5,3.598 1.584,9.486 0.196,13.084 -2.285,5.934 -2.834,5.978 -5.918,0.488 -1.868,-3.328 -8.578,-8.196 -14.911,-10.818 -15.184,-6.291 -21.824,-0.728 -15.556,13.031 3.956,8.687 3.576,9.447 -4.74,9.447 -11.348,0 -14.858,5.206 -7.577,11.248 3.062,2.541 5.567,6.962 5.567,9.824 0,6.153 21.413,20.004 30.951,20.032 6.075,0.01 5.96,0.953 -1.324,10.802 -8.937,12.092 -7.14,26.512 3.334,26.711 5.733,0.109 5.761,0.522 0.291,4.688 -3.299,2.512 -7.195,8.347 -8.662,12.965 -2.139,6.738 -1.232,8.396 4.605,8.396 9.021,0 17.192,-9.311 14.447,-16.465 -2.06,-5.371 4.554,-9.701 14.815,-9.701 4.769,0 4.725,1.123 -0.307,8.307 -13.112,18.721 -3.051,35.47 14.426,24.017 7.78,-5.096 9.248,-5.15 11.068,-0.41 1.152,3.007 4.674,5.465 7.823,5.465 7.339,0 7.243,3.341 -0.338,11.717 -3.528,3.878 -5.027,9.386 -3.608,13.088 2.201,5.732 3.038,5.557 8.121,-1.701 3.117,-4.451 8.59,-9.657 12.163,-11.569 5.783,-3.095 6.491,-1.367 6.351,15.758 -0.112,15.124 1.2,19.502 6.16,20.496 9.039,1.812 18.395,-14.56 21.199,-37.097 2.262,-18.194 3.2,-19.574 16.416,-24.143 13.239,-4.576 14.02,-4.417 14.02,2.869 0,5.912 1.774,7.253 7.586,5.732 6.767,-1.769 7.341,-0.683 5.32,10.084 -1.483,7.912 -0.553,13.421 2.696,15.997 7.399,5.862 35.387,8.523 40.097,3.812 6.039,-6.038 27.589,15.605 25.313,25.422 -0.953,4.112 -11.179,32.175 -22.727,62.363 -34.013,88.928 -55.305,181.667 -61.904,269.625 -2.12,29.107 -10.349,42.449 19.099,60.381 29.561,24.874 65.554,29.859 216.282,29.957 51.165,0.03 104.286,7.719 153.035,-10.473 40.912,-12.232 54.239,-18.404 68.445,-31.695 10.056,-9.421 10.281,-10.506 10.281,-52.928 0,-40.629 -6.175,-130.969 -15.087,-220.695 -8.975,-90.366 -29.372,-202.021 -53.948,-295.308 -9.338,-35.452 -9.884,-40.879 -5.656,-56.073 2.694,-9.674 5.498,-14.438 6.602,-11.213 1.057,3.084 12.441,36.251 25.296,73.705 22.047,64.226 23.395,70.108 23.592,103.432 0.235,38.42 2.508,51.979 10.877,64.904 6.879,10.627 23.193,14.895 19.746,-1.081 -2.554,-11.838 10.917,6.804 14.167,8.96 16.462,10.92 27.518,-39.17 17.054,-66.273 -3.5,-9.066 -7.532,-25.863 -17.648,-28.68 -14.273,-4.616 -19.239,-23.28 -25.425,-40.383 -1.856,-5.132 -6.894,-16.279 -29.323,-78.177 -17.315,-47.779 -35.981,-97.903 -41.479,-111.387 -9.815,-24.067 -11.478,-28.424 -0.668,-29.233 9.073,-0.678 13.704,-12.106 5.924,-17.931 -1.732,-1.295 -4.948,-5.877 0.334,-9.514 11.351,-7.814 7.32,-20.606 -1.653,-26.209 -4.54,-2.836 -7.476,-8.717 -7.476,-14.984 0,-8.511 -1.634,-10.315 -9.344,-10.315 -6.65,0 -9.344,-2.023 -9.344,-7.017 0,-7.65 -5.043,-12.891 -12.289,-13.848 z m -15.269,23.197 c 2.222,-0.341 3.222,2.258 2.139,7.93 -1.764,9.222 -1.298,9.496 12.408,7.272 10.831,-1.758 13.199,-1.271 9.89,2.037 -8.161,8.162 -5.141,17.808 5.577,17.808 9.686,0 9.763,0.177 3.158,7.475 -8.535,9.432 -9.254,9.327 -20.561,-3.016 -5.139,-5.61 -13.359,-12.772 -18.262,-15.914 -8.035,-5.146 -8.413,-6.521 -3.818,-13.877 3.803,-6.09 7.247,-9.373 9.469,-9.715 z m -53.801,39.065 c 8.795,-0.33 16.746,0.963 24.115,3.869 l 10.526,4.15 -14.955,5.358 c -8.223,2.946 -22.522,6.978 -31.774,8.961 -9.252,1.982 -20.49,4.436 -24.976,5.453 -5.924,1.342 -8.83,-0.279 -10.621,-5.918 -2.983,-9.4 -4.054,-8.474 18.507,-16.004 10.743,-3.586 20.383,-5.539 29.178,-5.869 z m -103.43,14.672 c 7.463,0 15.025,4.839 26.864,17.197 11.475,11.974 22.304,13.738 8.054,26.168 -10.494,11.168 -15.845,11.296 -23.131,0.557 -4.963,-7.316 -6.726,-7.798 -13.539,-3.706 -4.348,2.612 -7.834,3.085 -7.834,1.065 0,-2.001 3.366,-5.438 7.479,-7.639 4.11,-2.201 7.473,-6.465 7.473,-9.476 0,-6.601 -11.685,-7.246 -17.942,-0.991 -2.922,2.923 -4.486,3.084 -4.486,0.459 0,-2.215 2.426,-6.04 5.387,-8.498 2.96,-2.458 4.461,-6.869 3.337,-9.802 -1.472,-3.831 0.878,-5.334 8.338,-5.334 z m 156.881,7.476 c 8.918,0 16.248,13.963 21.992,41.897 7.323,35.627 7.245,42.695 -0.877,77.574 -7.674,32.969 -13.438,37.765 -56.209,46.762 -26.07,5.484 -41.592,6.21 -65.957,3.086 -13.668,-1.376 -11.525,-19.402 -11.214,-39.586 0,-32.833 -1.147,-39.996 -8.243,-51.403 -9.263,-14.894 -10.614,-11.824 3.168,-24.025 6.277,-5.924 12.681,-14.201 14.235,-18.393 2.24,-6.056 9.3,-8.897 34.381,-13.834 17.359,-3.417 38.951,-9.781 47.982,-14.144 9.03,-4.363 18.362,-7.934 20.742,-7.934 z m -7.597,18.69 c -5.837,0 -7.418,4.421 -3.114,8.722 4.3,4.302 8.723,2.722 8.723,-3.115 0,-3.084 -2.525,-5.607 -5.609,-5.607 z m -35.512,7.478 c -2.055,0 -3.736,2.524 -3.736,5.608 0,3.084 1.681,5.605 3.736,5.605 2.055,0 3.736,-2.521 3.736,-5.605 0,-3.084 -1.681,-5.608 -3.736,-5.608 z m 24.752,1.453 c -1.362,0.05 -2.324,1.528 -2.324,3.932 0,6.566 2.244,7.533 5.449,2.348 1.183,-1.914 0.438,-4.535 -1.651,-5.827 -0.522,-0.322 -1.02,-0.468 -1.474,-0.453 z m -61.487,6.549 c -3.225,-0.712 -5.294,2.451 -2.63,6.762 1.374,2.226 4.213,2.989 6.304,1.695 2.554,-1.578 2.491,-3.667 -0.195,-6.351 -1.199,-1.2 -2.403,-1.869 -3.479,-2.106 z m 23.651,14.426 c -5.692,0 -7.668,7.908 -3.115,12.461 4.741,4.739 8.722,2.463 8.722,-4.984 0,-4.154 -2.493,-7.477 -5.607,-7.477 z m 26.168,0 c -5.837,0 -7.418,4.421 -3.115,8.723 4.301,4.301 8.722,2.722 8.722,-3.116 0,-3.084 -2.523,-5.607 -5.607,-5.607 z m -120.885,21.225 c 4.666,1.562 17.387,42.392 19.926,65.283 3.025,27.318 -1.08,35.893 -40.899,85.443 -17.349,21.588 -40.16,55.652 -50.691,75.697 -10.53,20.046 -21.136,36.334 -23.572,36.194 -2.434,-0.14 -7.792,-1.891 -11.905,-3.891 -6.476,-3.15 -7.413,-7.076 -7,-29.336 0.465,-25.289 0.811,-26.129 21.602,-52.701 26.998,-34.506 41.352,-60.567 67.828,-123.152 11.742,-27.756 22.492,-51.744 23.891,-53.309 0.234,-0.262 0.509,-0.333 0.82,-0.228 z m 49.859,1.203 c -5.63,0 -7.683,7.891 -3.214,12.359 3.487,3.488 8.822,-0.728 8.822,-6.973 0,-2.962 -2.525,-5.386 -5.608,-5.386 z m 31.776,14.953 c -2.058,0 -3.74,1.682 -3.74,3.738 0,2.056 1.682,3.738 3.74,3.738 2.055,0 3.736,-1.682 3.736,-3.738 0,-2.056 -1.681,-3.738 -3.736,-3.738 z m -19.713,23.178 c -1.592,0.371 -2.715,2.105 -2.715,4.546 0,3.256 2.663,5.918 5.918,5.918 6.6,0 5.45,-8.047 -1.48,-10.357 -0.611,-0.204 -1.193,-0.231 -1.723,-0.107 z m 18.689,14.953 c -1.592,0.371 -2.716,2.103 -2.716,4.545 0,3.255 2.664,5.92 5.918,5.92 6.603,0 5.453,-8.047 -1.477,-10.358 -0.61,-0.203 -1.194,-0.231 -1.725,-0.107 z m -19.537,17.379 c -1.952,0 -4.152,1.809 -4.89,4.019 -0.737,2.21 1.464,4.018 4.89,4.018 3.429,0 5.63,-1.808 4.893,-4.018 -0.737,-2.21 -2.939,-4.019 -4.893,-4.019 z m 24.662,4.701 c -1.096,-0.153 -2.133,0.113 -2.951,0.931 -1.139,1.146 -1.079,4.679 0.141,7.852 h -0.01 c 2.793,7.28 9.926,7.554 9.926,0.381 0,-4.465 -3.817,-8.705 -7.106,-9.164 z m 32.366,1.16 c -1.039,-0.245 -2.17,-0.1 -3.143,0.504 -1.948,1.203 -2.558,3.783 -1.355,5.73 1.206,1.948 3.783,2.555 5.732,1.352 1.945,-1.204 2.555,-3.781 1.35,-5.729 -0.602,-0.973 -1.546,-1.612 -2.584,-1.857 z m -330.901,9.984 c 0.566,0.08 1.552,1.583 3.289,4.569 2.164,3.722 3.008,9.189 1.873,12.148 -1.136,2.959 -3.98,5.381 -6.32,5.381 -2.344,0 -3.237,-2.656 -1.986,-5.914 1.247,-3.252 2.323,-8.719 2.383,-12.149 0.05,-2.75 0.195,-4.109 0.761,-4.035 z m -41.988,10.998 c -5.455,0.77 -11.563,4.138 -17.998,10.164 -17.228,16.137 -21.037,25.899 -14.182,36.362 4.727,7.216 8.891,8.728 23.629,8.593 17.694,-0.161 27.235,-4.097 27.235,-11.236 0,-2.024 -2.524,-2.713 -5.608,-1.529 -8.032,3.082 -6.915,-2.308 2.076,-10.006 5.47,-4.684 6.955,-8.962 5.153,-14.85 -3.938,-12.851 -11.213,-18.781 -20.305,-17.498 z m 424.186,1.811 c 1.1,0.04 1.926,0.295 2.404,0.773 9.65,9.649 33.8,114.47 49.828,216.256 15.846,100.641 32.156,242.904 32.324,306.842 0.1,35.78 4.732,48.222 -31.209,59.35 -16.962,5.393 -43.181,12.195 -58.267,15.115 -68.291,11.972 -140.7,1.646 -209.936,1.076 -65.976,-0.543 -90.504,-7.414 -114.217,-17.902 -15.175,-6.714 -16.613,-8.503 -16.613,-20.668 0,-36.689 21.419,-150.136 39.883,-211.225 11.323,-37.466 44.718,-130.283 48.326,-134.32 0.715,-0.801 7.376,3.178 14.803,8.842 16.224,12.374 24.521,8.28 12.974,-6.401 -9.737,-12.371 -9.784,-17.215 -0.09,-8.441 4.124,3.732 8.683,5.545 10.194,4.093 4.957,-4.766 -3.997,-8.381 -12.172,-15.333 -14.629,-11.33 -11.592,-15.986 7.562,-5.766 24.702,13.179 23.018,6.317 23.739,5.637 3.227,-3.054 -4.811,-9.584 -20.155,-16.371 -9.168,-4.055 -16.668,-9.431 -16.668,-11.948 0,-9.148 35.197,-69.647 61.94,-106.467 15.069,-20.75 29.34,-41.981 31.709,-47.181 4.043,-8.871 4.942,-9.139 14.592,-4.326 25.717,12.829 81.603,9.476 113.687,-6.821 6.281,-3.189 12.059,-4.943 15.362,-4.814 z m -425.995,11.699 c 4.979,1.911 4.668,3.102 -2.035,7.799 -4.354,3.048 -9.197,9.012 -10.767,13.256 -1.57,4.244 -3.887,6.048 -5.145,4.01 -3.906,-6.321 11.331,-27.604 17.947,-25.065 z m -81.951,20.074 c 6.656,0.113 11.619,5.716 14.123,15.944 1.923,7.858 5.441,10.972 14.418,12.767 10.172,2.034 10.827,2.786 4.572,5.233 -11.612,4.543 -24.968,3.555 -39.072,-2.889 -4.823,-2.507 -15.477,-5.917 0,-9.832 17.222,-5.077 17.229,-5.091 9.364,-13.781 -3.733,-4.125 -5.264,-7.473 -3.405,-7.442 z m 376.914,7.844 c -0.511,-0.04 -1.123,0.04 -1.824,0.277 -2.697,0.9 -5.641,3.843 -6.541,6.541 -0.934,2.804 0.468,4.207 3.272,3.272 2.697,-0.899 5.641,-3.843 6.541,-6.541 0.7,-2.103 0.08,-3.417 -1.448,-3.549 z m 28.315,3.315 c -2.055,0 -3.739,1.68 -3.739,3.736 0,2.056 1.684,3.738 3.739,3.738 2.058,0 3.74,-1.682 3.74,-3.738 0,-2.056 -1.682,-3.736 -3.74,-3.736 z m -26.166,22.427 c -2.055,0 -3.739,2.524 -3.739,5.608 0,3.084 1.684,5.607 3.739,5.607 2.055,0 3.736,-2.523 3.736,-5.607 0,-3.084 -1.681,-5.608 -3.736,-5.608 z m -251.58,5.352 c 1.283,0.386 1.425,2.358 -0.586,5.613 -1.357,2.193 -4.255,3.988 -6.442,3.988 -2.478,0 -2.195,-2.144 0.754,-5.697 2.563,-3.089 4.99,-4.29 6.274,-3.904 z m -17.873,6.324 c 1.298,0.05 2.414,0.397 3.035,1.018 1.242,1.242 -0.965,2.127 -4.907,1.964 -4.354,-0.179 -5.238,-1.066 -2.255,-2.259 1.348,-0.54 2.828,-0.776 4.127,-0.723 z m -14.709,1.924 c 3.289,0.545 3.121,2.897 -2.186,6.777 -7.354,5.378 -4.766,17.004 3.785,17.004 6.905,0 11.892,-7.38 5.231,-7.738 -5.313,-0.285 7.421,-6.521 14.195,-6.951 2.273,-0.145 3.96,4.78 3.736,10.943 -0.393,11.092 -3.61,14.384 -7.656,7.836 -3.597,-5.818 -17.037,0.147 -17.037,7.56 0,4.926 -2.678,7.04 -8.91,7.04 -5.907,0 -9.601,2.646 -10.961,7.853 -2.279,8.707 -10.035,6.353 -10.035,-3.045 0,-5.33 -0.697,-5.366 -6.539,-0.348 -13.287,11.41 -16.299,11.745 -11.532,1.286 5.671,-12.448 1.354,-16.905 -19.031,-19.639 -18.899,-2.535 -19.238,-9.882 -1.029,-22.154 11.654,-7.853 12.827,-7.966 22.889,-2.192 9.816,5.633 11.785,5.621 26.521,-0.168 8.522,-3.347 15.269,-4.609 18.559,-4.064 z m 256.314,3.523 c -1.322,0.06 -2.795,0.629 -4.26,1.844 -2.902,2.408 -5.273,5.854 -5.273,7.658 0,4.507 10.236,4.149 13.082,-0.457 3.03,-4.903 0.418,-9.236 -3.549,-9.045 z m -205.029,0.07 c 1.863,0.256 3.744,0.872 5.193,1.789 3.833,2.427 2.467,3.35 -5.012,3.392 -11.164,0.06 -13.173,-1.771 -5.267,-4.804 1.378,-0.529 3.223,-0.633 5.086,-0.377 z m -153.131,1.586 c -1.971,0.05 -4.744,0.272 -8.438,0.574 -10.542,0.861 -15.169,3.095 -16.052,7.75 -1.789,9.436 14.99,8.585 23.855,-1.209 5.246,-5.798 6.546,-7.257 0.635,-7.115 z m 79.424,8.525 c -2.197,0.297 -4.605,1.1 -7.123,2.447 -7.511,4.019 -10.389,14.982 -5.278,20.094 6.608,6.606 23.678,-2.557 23.678,-12.709 0,-7.074 -4.686,-10.724 -11.277,-9.832 z m 91.642,6.342 c 3.083,0 5.608,1.583 5.608,3.517 0,4.714 -5.837,8.09 -8.823,5.104 -4.211,-4.21 -2.566,-8.621 3.215,-8.621 z m -26.177,3.969 c 3.125,0.119 6.906,2.666 9.527,7.566 4.904,9.158 4.403,9.753 -6.711,7.979 -5.354,-0.856 -8.41,-3.966 -8.41,-8.559 0,-4.8 2.468,-7.106 5.594,-6.986 z m 241.339,3.507 c -2.179,0 -3.959,1.682 -3.959,3.739 0,2.055 0.742,3.738 1.651,3.738 0.905,0 2.684,-1.683 3.957,-3.738 1.27,-2.057 0.526,-3.739 -1.649,-3.739 z m -72.892,14.954 c -6.7,0 -10.81,6.176 -7.586,11.396 1.657,2.679 4.092,2.534 7.697,-0.459 6.805,-5.648 6.752,-10.937 -0.111,-10.937 z m 39.029,14.953 c -2.056,0 -3.738,2.521 -3.738,5.605 0,3.084 1.682,5.608 3.738,5.608 2.055,0 3.736,-2.524 3.736,-5.608 0,-3.084 -1.681,-5.605 -3.736,-5.605 z m -257.779,2.209 c 1.904,0.01 3.588,1.711 3.588,5.086 0,1.714 -2.333,4.011 -5.184,5.105 -3.628,1.393 -4.623,-0.155 -3.314,-5.164 0.882,-3.368 3.006,-5.041 4.91,-5.027 z m 220.398,5.265 c -2.058,0 -3.738,1.683 -3.738,3.739 0,2.055 1.68,3.738 3.738,3.738 2.055,0 3.739,-1.683 3.739,-3.738 0,-2.056 -1.684,-3.739 -3.739,-3.739 z m -202.613,14.951 c 0.473,0 0.521,1.247 0.437,3.739 h -0.01 c -0.112,3.084 -1.65,8.972 -3.416,13.084 l -3.213,7.476 -0.197,-7.476 c -0.113,-4.112 1.425,-10 3.418,-13.084 1.612,-2.492 2.509,-3.739 2.982,-3.739 z m 219.643,13.372 c -1.317,0.06 -2.783,0.615 -4.241,1.824 -2.876,2.388 -4.31,5.835 -3.183,7.658 2.727,4.412 8.094,4.204 10.953,-0.424 3.019,-4.885 0.419,-9.23 -3.529,-9.058 z m -48.805,91.296 c -3.084,0 -5.608,1.682 -5.608,3.739 0,2.055 2.524,3.738 5.608,3.738 3.084,0 5.607,-1.683 5.607,-3.738 0,-2.057 -2.523,-3.739 -5.607,-3.739 z m -16.82,48.596 c -2.055,0 -3.739,1.683 -3.739,3.738 0,2.056 1.684,3.737 3.739,3.737 2.057,0 3.74,-1.681 3.74,-3.737 0,-2.055 -1.683,-3.738 -3.74,-3.738 z m 1.869,48.594 c -3.115,0 -5.608,3.323 -5.608,7.476 0,4.154 2.493,7.477 5.608,7.477 3.114,0 5.607,-3.323 5.607,-7.477 0,-4.153 -2.493,-7.476 -5.607,-7.476 z m -35.512,59.81 c -2.055,0 -3.738,1.683 -3.738,3.739 0,2.056 1.683,3.738 3.738,3.738 2.058,0 3.738,-1.682 3.738,-3.738 0,-2.056 -1.68,-3.739 -3.738,-3.739 z m -7.258,134.571 c -1.934,0 -4.553,1.682 -5.824,3.738 -1.272,2.056 0.312,3.738 3.516,3.738 3.207,0 5.828,-1.682 5.828,-3.738 0,-2.056 -1.585,-3.738 -3.52,-3.738 z" fill="#00B894" transform="translate(57.672965,-2.6808235) matrix(0.30052248,0,0,0.30052248,-3832.2294,-2337.681) translate(-3313.5291,-2437.8203)"/>
</svg>