<?xml version="1.0" ?><svg height="306.0177mm" viewBox="0 0 276.04086 306.0177" width="276.04086mm" xmlns="http://www.w3.org/2000/svg">
    <path d="m 15514.967,11131.775 c -1.517,-0.1 -2.865,0 -3.963,0.379 -8.784,2.964 3.359,23.426 3.359,23.426 0,0 -16.406,4.884 -21.638,8.953 -5.232,4.069 -10.722,16.102 -18.473,30.809 -7.751,14.707 14.404,12.554 14.404,12.554 0,0 -3.423,28.718 7.235,67.258 10.657,38.54 36.641,62.423 76.281,60.28 31.192,-1.685 59.814,-37.432 59.814,-37.432 0,0 33.265,16.218 46.377,13.602 13.112,-2.616 28.679,-15.346 30.487,-36.215 1.809,-20.868 -27.516,-37.901 -27.516,-37.901 l -11.303,-35.924 c 0,0 10.075,-23.775 1.807,-29.878 -8.267,-6.104 -27.516,5.289 -27.516,5.289 0,0 -16.276,-31.332 -29.388,-39.006 -13.112,-7.673 -18.731,16.627 -18.731,16.627 0,0 1.032,-17.324 -14.922,-21.684 -15.954,-4.36 -36.754,10.229 -36.754,10.229 0,0 -18.94,-10.682 -29.56,-11.366 z m -315.164,21.362 c -13.522,0.181 -28.298,3.298 -44.112,8.572 -42.172,14.063 -50.039,74.271 -45.865,107.889 14.022,54.858 57.746,54.951 76.049,55.433 18.303,0.481 68.233,-4.672 86.59,-40.168 18.356,-35.497 6.849,-73.06 -16.485,-104.511 -14.583,-19.657 -33.639,-27.518 -56.177,-27.215 z m 477.006,195.607 c -15.352,0.435 -28.38,8.147 -32.506,13.945 -4.716,6.627 -11.174,14.649 -11.174,14.649 0,0 -33.523,-14.01 -62.201,-12.731 -28.679,1.278 -64.348,12.227 -64.348,12.227 0,0 -11.111,-21.857 -31.199,-24.648 -20.088,-2.79 -29.259,8.486 -27.709,13.195 1.55,4.708 8.462,5 8.461,5 0,0 -17.116,32.261 -20.926,39.469 -3.811,7.208 5.49,15.113 14.662,7.091 9.172,-8.022 6.071,15.057 13.047,17.498 6.976,2.442 18.473,1.106 18.473,1.106 0,0 36.364,154.275 38.367,159.623 2.002,5.348 -8.72,20.347 -17.311,43.889 -8.591,23.543 -71.577,233.015 -84.883,289.808 -13.306,56.793 -25.324,217.238 -24.742,223.516 0.581,6.278 10.141,15.288 23.059,23.658 12.918,8.371 108.837,52.957 225.941,45.69 117.104,-7.266 194.608,-57.264 203.78,-60.112 9.172,-2.848 13.306,-7.266 11.82,-27.088 -1.485,-19.823 -47.131,-271.789 -99.127,-370.203 -51.996,-98.414 -88.967,-169.166 -88.967,-169.166 l 11.561,-149.336 c 0,0 27.039,-17.273 29.752,-32.851 2.713,-15.579 13.175,-15.754 11.884,-23.02 -1.292,-7.266 -20.863,-38.831 -39.013,-40.924 -2.268,-0.262 -4.508,-0.347 -6.701,-0.285 z m -507.895,25.967 c -21.362,0.202 -42.271,1.283 -60.273,2.439 -48.005,3.082 -41.955,22.35 -46.397,50.959 0,0 -6.36,181.333 3.754,224.584 10.115,43.251 0.644,76.437 -6.367,103.457 -7.011,27.02 -20.284,52.736 -13.916,57.6 6.369,4.865 29.167,26.156 67.699,33.525 38.533,7.369 39.816,-13.677 39.816,-13.677 0,0 46.24,0.674 62.188,0 15.948,-0.675 55.978,-11.852 55.978,-11.852 0,0 7.976,1.545 27.188,32.225 19.213,30.68 20.334,-1.448 22.1,-21.147 1.766,-19.699 -7.061,-113.954 -11.45,-150.414 -4.388,-36.46 4.325,-212.88 4.807,-246.691 0.482,-33.81 -2.998,-37.71 -45.865,-50.955 -26.791,-8.278 -63.659,-10.389 -99.262,-10.053 z" fill="#FFFFFF" transform="translate(55.498318,43.776623) matrix(0.27304354,0,0,0.27304354,-3187.1189,-2455.7464) translate(-3459.7236,-2280.8251)"/>
    <path d="m 15546.996,11114.498 c -6.558,-0.461 -15.193,4.925 -15.35,10.397 -0.124,4.355 -2.023,4.141 -10.769,-1.217 -14.737,-9.026 -24.354,-1.933 -21.941,16.181 1.431,10.751 0.366,12.97 -7.547,15.723 -8.963,3.119 -10.748,6.442 -9.959,18.541 0.208,3.22 -3.118,8.843 -7.391,12.494 -10.352,8.858 -10.685,24.119 -0.578,27.072 5.717,1.67 7.1,4.264 5.365,10.065 -1.287,4.298 -2.475,13.092 -2.59,16.424 -17.858,2.717 -28.744,19.651 2.143,22.849 0,0 2.022,11.486 5.166,20.77 10.22,30.173 28.368,51.58 58.742,60.726 26.406,7.951 48.18,3.284 75.076,-21.869 10.06,-10.922 13.061,-21.298 23.547,-6.832 12.216,12.932 40.87,11.298 56.94,-3.244 23.369,-21.156 24.044,-46.959 1.736,-66.84 -5.87,-5.232 -10.602,-12.039 -10.512,-15.127 0.09,-3.087 -1.267,-6.551 -3.012,-7.699 -1.744,-1.148 -2.182,-6.559 -0.974,-12.025 1.488,-6.741 0.19,-11.492 -4.035,-14.77 -3.967,-3.077 -4.768,-5.678 -2.207,-7.162 6.324,-3.665 5.181,-19.771 -1.698,-23.883 -3.938,-2.338 -9.705,-2.498 -15.679,-0.42 -8.25,2.871 -10.849,1.57 -20.426,-10.236 -15.868,-19.556 -34.62,-26.777 -63.631,-24.504 -21.907,1.717 -23.558,1.322 -23.361,-5.596 0.117,-4.093 -1.865,-8.254 -4.403,-9.246 -0.821,-0.321 -1.715,-0.506 -2.652,-0.572 z m -329.912,3.691 c -14.723,0.207 -34.007,7.609 -47.936,20.358 -6.042,5.529 -13.658,7.986 -24.984,8.058 -32.803,0.208 -46.875,26.68 -47.789,89.92 -0.482,33.258 7.213,50.885 13.576,62.467 22.204,40.422 30.494,21.813 39.588,35.639 6.271,9.534 13.824,11.917 18.141,3.795 4.987,-9.384 9.324,0.361 11.246,2.39 12.972,13.698 21.002,5.885 25.982,0.905 3.269,-3.27 5.817,-3.072 10.498,0.812 5.342,4.434 7.009,4.104 12.299,-2.428 3.709,-4.581 7.111,-12.354 9.754,-6.359 5.132,11.639 17.366,1.244 21.686,-11.951 2.017,-6.162 8.421,-16.615 14.181,-23.248 5.763,-6.633 12.42,-19.221 14.797,-27.973 2.185,-8.037 4.393,-19.121 4.393,-19.121 19.193,-0.478 23.68,-17.391 0.427,-20.312 -2.6,-15.044 -13.371,-43.476 -29.933,-60.971 l -8.877,-8.338 10.23,-8.156 c 8.826,-7.038 9.541,-8.984 5.219,-14.192 -2.755,-3.319 -10.273,-6.035 -16.707,-6.035 -7.661,0 -13.307,-2.577 -16.357,-7.461 -3.408,-5.456 -10.6,-7.922 -19.434,-7.799 z m 301.225,23.338 c 1.573,-0.235 4.658,0.785 8.248,3.209 2.603,1.75 3.549,5.938 2.134,9.332 -3.269,7.839 3.172,8.109 15.309,0.641 8.682,-5.341 10.087,-5.254 19.348,1.197 5.49,3.826 15.021,8.131 21.179,9.567 7.547,1.759 11.492,5.137 12.102,10.367 0.737,6.338 3.452,8.483 14.703,7.744 12.265,-0.806 16.059,-7.764 20.049,8.053 1.863,7.389 6.624,17.517 11.252,18.525 l 4.279,0.932 c 7.994,1.741 2.015,4.458 -5.959,4.342 -12.573,-0.181 -22.673,-9.627 -19.498,-20.903 2.491,-8.851 2.131,-9.1 -8.035,-5.562 -14.805,5.151 -27.057,0.851 -29.535,-10.366 -2.211,-10.01 -7.01,-12.4 -9.807,-4.886 -1.32,3.539 -5.862,2.965 -19.49,-2.461 -15.99,-6.368 -18.647,-6.538 -26.529,-1.69 -4.816,2.964 -11.202,5.318 -14.188,5.233 -2.988,-0.08 -11.624,6.676 -19.193,15.023 -15.253,16.826 -23.608,16.15 -10.287,-0.832 8.917,-11.47 5.787,-16.913 23.666,-21.377 15.554,-4.181 19.798,-12.526 11.066,-21.767 -2.45,-2.595 -2.388,-4.085 -0.814,-4.321 z m 57.609,1.461 c 2.051,0.06 3.689,1.684 3.629,3.614 -0.06,1.929 -1.807,4.498 -3.895,5.707 -2.085,1.208 -3.717,-0.419 -3.627,-3.616 0.09,-3.196 1.844,-5.763 3.893,-5.705 z m 29.812,4.508 c 1.014,0.213 2.34,1.109 3.938,2.801 2.128,2.252 3.197,7.995 2.375,12.76 -1.458,8.433 -1.617,8.378 -5.994,-2.088 -3.6,-8.604 -3.36,-14.112 -0.319,-13.473 z m 16.174,13.316 c 1.49,0.135 3.674,1.677 5.553,4.077 5.192,6.633 4.142,7.214 -3.605,1.998 -2.964,-1.994 -4.386,-4.568 -3.168,-5.721 0.305,-0.288 0.724,-0.398 1.22,-0.354 z m -435.695,0.637 c 4.496,0.07 9.985,0.374 16.99,0.83 16.823,1.096 32.826,3.772 35.565,5.948 8.71,6.922 26.842,35.481 32.24,50.783 4.87,13.804 5.005,18.03 -2.016,17.076 -10.571,-1.437 -8.935,18.664 4.319,15.281 0.145,-0.04 -1.43,21.856 -12.901,35.291 -7.375,8.639 -6.745,5.676 -14.763,4.112 -4.408,-0.86 -7.507,1.405 -8.827,6.459 -2.057,7.862 -8.625,10.95 -8.625,4.054 0,-5.939 -11.199,-4.314 -13.613,1.975 -1.89,4.932 -2.876,4.804 -7.269,-0.934 -3.998,-5.218 -5.767,-5.602 -8.282,-1.797 -2.561,3.877 -4.141,3.699 -7.951,-0.892 -6.929,-8.347 -12.183,-3.074 -9.428,9.463 3.013,13.718 1.541,13.631 -6.431,-0.379 -7.888,-13.858 -15.722,-14.805 -13.197,-1.594 3.196,16.724 -6.768,8.344 -8.284,-0.115 -1.462,-8.155 -12.425,-8.802 -16.082,-7.399 -4.29,1.647 -7.977,-1.727 -13.121,-12.006 -11.696,-23.369 -12.642,-36.75 -4.34,-61.394 9.833,-29.191 20.748,-45.387 38.217,-56.715 9.759,-6.328 14.311,-8.251 27.799,-8.047 z m 478.111,17.639 c 1.986,0.06 2.575,2.593 1.307,5.635 -1.268,3.042 -2.965,5.511 -3.77,5.488 -0.807,-0.02 -1.394,-2.557 -1.304,-5.633 0.09,-3.075 1.782,-5.546 3.767,-5.49 z m -132.611,1.037 c 4.302,0.102 9.45,1.37 15.873,3.902 9.476,3.734 14.072,3.912 19.477,0.746 6.025,-3.527 7.353,-2.873 8.962,4.409 2.247,10.174 17.572,18.602 29.167,16.041 6.678,-1.476 9.061,0.443 12.339,9.933 2.234,6.47 3.026,14.251 1.758,17.291 -1.267,3.041 1.137,10.474 5.348,16.52 8.941,12.843 9.092,15.806 1.789,35.004 -4.134,10.871 -11.819,16.296 -27.24,28.14 l -3.047,2.34 c -27.057,20.781 -63.58,16.668 -84.905,-17.64 -7.848,-12.627 -12.277,-24 -12.828,-46.381 -0.702,-28.485 5.618,-46.869 16.842,-61.555 4.471,-5.851 9.294,-8.92 16.465,-8.75 z m 113.664,13.348 c 2.051,0.06 3.683,1.783 3.623,3.834 -0.06,2.05 -1.784,3.681 -3.836,3.623 -2.05,-0.06 -3.683,-1.786 -3.623,-3.836 0.06,-2.051 1.786,-3.679 3.836,-3.621 z m -404.248,4.539 c -8.14,0 -8.436,14.789 -0.91,17.488 6.309,2.263 11.189,-0.06 11.189,-6.545 0,-2.956 -6.175,-10.943 -10.279,-10.943 z m -26.672,6.133 c -2.437,0.06 -4.593,1.451 -5.363,4.748 -0.813,3.482 0.02,6.821 1.605,10.607 2.947,7.034 10.717,4.736 12.963,2.076 4.441,-5.259 1.28,-10.657 -2.154,-14.254 -1.897,-1.986 -4.614,-3.242 -7.051,-3.177 z m 329.434,7.427 c -3.077,-0.243 -6.066,3.119 -5.598,7.207 0.907,7.934 3.416,10.2 7.063,10.348 3.33,0.135 6.512,-1.29 6.027,-8.055 -0.534,-7.424 -3.849,-9.213 -7.492,-9.5 z m -26.262,5.162 c -4.458,0.01 -8.479,5.705 -6.322,11.844 1.14,3.249 3.86,5.958 6.039,6.02 6.04,0.172 9.311,-10.879 4.674,-15.787 -1.371,-1.452 -2.905,-2.081 -4.391,-2.077 z m 135.742,5.846 c 2.081,-0.202 3.809,0.942 6.309,3.322 3.158,3.008 7.13,4.246 8.826,2.75 1.697,-1.495 2.181,-0.224 1.078,2.823 -1.311,3.617 -5.968,5.11 -13.422,4.302 -8.264,-0.894 -11.898,0.549 -13.16,5.223 -1.651,6.128 -1.875,6.12 -4.396,-0.156 -1.876,-4.669 -0.02,-8.643 6.336,-13.512 3.914,-3.002 6.348,-4.55 8.429,-4.752 z m 30.59,29.014 c 5.992,0.951 15.334,13.744 15.094,22.176 -0.263,9.245 -0.435,9.158 -11.94,-6.137 -6.816,-9.061 -8.513,-13.916 -5.48,-15.674 0.681,-0.395 1.47,-0.501 2.326,-0.365 z m -524.326,3.115 c -0.975,-0.138 -1.644,-0.09 -1.918,0.187 -4.1,4.102 6.368,14.833 18.363,18.821 12.753,4.24 24.554,3.1 28.151,-2.721 1.116,-1.804 -1.915,-3.279 -6.729,-3.279 -4.817,0 -15.29,-3.333 -23.277,-7.405 -5.989,-3.053 -11.664,-5.188 -14.59,-5.603 z m 495.853,0.625 c 1.438,-1.397 9.659,4.414 18.266,12.912 20.34,20.086 16.45,23.817 -4.67,4.477 -8.919,-8.168 -15.038,-15.993 -13.596,-17.389 z m -85.033,1.773 c -5.36,0.423 -13.269,2.989 -24.773,7.409 -34.425,13.224 -39.119,19.171 -25.229,31.961 14.242,13.114 32.279,13.061 47.932,-0.141 8.857,-7.473 12.259,-13.498 12.506,-22.156 0.357,-12.531 -1.502,-17.777 -10.436,-17.073 z m 0.692,12.604 c 3.912,0.111 -0.25,11.025 -6.114,16.039 -7.634,6.52 -38.169,7.615 -37.99,1.361 0.06,-2.05 2.702,-3.655 5.877,-3.564 3.175,0.09 12.812,-2.993 21.418,-6.852 8.606,-3.859 16.169,-7.002 16.809,-6.984 z m 82.543,3.601 c 2.84,0.851 7.728,4.502 12.507,9.561 6.37,6.746 9.613,12.21 7.203,12.141 -6.791,-0.194 -25.159,-18.376 -21.789,-21.567 0.413,-0.39 1.132,-0.418 2.079,-0.135 z m -8.893,13.422 c 1.288,0.04 6.509,3.546 11.607,7.795 8.76,7.306 8.839,7.713 1.438,7.502 -4.306,-0.122 -9.531,-3.629 -11.606,-7.793 -2.078,-4.163 -2.724,-7.541 -1.439,-7.504 z m 32.248,53.157 c -12.673,-0.361 -30.239,7.941 -37.523,17.736 -5.139,6.908 -6.939,7.109 -22.981,2.58 -22.649,-6.395 -65.521,-4.281 -90.654,4.471 -19.09,6.647 -19.721,6.643 -21.67,-0.17 -3.255,-11.364 -19.709,-22.641 -33.617,-23.037 -9.213,-0.263 -15.994,2.62 -24.041,10.22 -13.009,12.291 -14.292,18.487 -4.418,21.371 6.541,1.912 6.184,3.346 -5.045,20.313 -9.495,14.347 -11.258,19.617 -8.235,24.611 2.113,3.496 6.573,5.94 9.905,5.432 4.037,-0.615 5.987,1.739 5.836,7.045 -0.14,4.906 2.697,8.822 7.382,10.191 5.185,1.514 6.812,4.129 5.106,8.192 -1.377,3.282 -3.954,26.914 -5.725,52.515 -3.396,49.129 -12.078,95.504 -22.113,118.094 -10.907,24.554 -31.877,61.914 -46.277,83.594 -3.538,-4.266 -7.361,-8.044 -10.657,-10.303 -11.984,-8.211 -12.359,-9.348 -20.335,-60.986 -4.469,-28.94 -10.647,-76.954 -13.727,-106.698 -3.077,-29.743 -7.507,-69.666 -9.846,-88.714 -2.627,-21.401 0.758,-35.767 -20.91,-44.397 -9.161,-5.369 -31.174,-14.873 -48.92,-21.121 -29.625,-10.432 -36.222,-11.36 -80.748,-11.332 -42.759,0.02 -52.105,1.227 -79.135,10.191 -29.783,9.878 -30.868,10.654 -38.297,27.45 -22.291,50.394 -48.918,153.929 -61.203,237.982 -13.953,95.459 -18.565,121.18 -21.732,121.18 -6.313,0 -33.723,28.342 -40.773,42.164 -8.475,16.608 -10.31,48.889 -3.504,61.605 2.389,4.466 7.762,8.119 11.939,8.119 4.179,0 10.187,2.593 13.357,5.762 9.395,9.398 14.318,4.287 13.096,-13.597 -1.079,-15.751 -2.229,-19.969 5.594,-3.364 3.695,7.174 9.896,13.637 13.785,14.364 6.187,1.156 6.743,-0.24 4.473,-11.178 -1.43,-6.875 -3.386,-20.89 -4.348,-31.147 -1.779,-19.008 -2.717,-21.914 5.666,-2.728 7.849,16.866 17.65,23.746 22.545,15.824 1.645,-2.662 -1.144,-19.814 -6.303,-38.771 -7.715,-28.337 -8.89,-39.054 -7.066,-64.352 3.234,-44.878 19.297,-151.011 28.99,-191.563 l 8.471,-35.431 2.543,48.486 c 1.399,26.667 6.076,70.048 10.392,96.402 8.545,52.179 8.527,52.41 -9.429,107.473 -5.125,15.72 -11.748,29.514 -14.717,30.652 -9.907,3.802 -5.563,14.703 12.982,32.579 11.175,10.771 25.791,20.347 37.297,24.433 l 18.92,6.719 0.06,37.353 c 0.05,35.547 4.9,73.421 21.75,169.756 4.127,23.591 8.649,53.098 10.047,65.573 3.697,32.934 -12.014,25.833 -43.539,33.757 -34.881,8.384 -46.386,12.624 -47.311,17.432 -0.736,3.83 2.222,7.83 7.447,10.072 h -0.01 c 10.041,4.31 50.663,2.111 71.391,-3.867 7.828,-2.258 20.235,-9.766 27.57,-16.683 17.533,-16.538 13.904,-29.858 11.215,-54.768 -1.163,-23.205 -8.795,-79.953 -16.963,-126.107 -8.168,-46.155 -15.86,-93.569 -17.095,-105.364 -2.038,-19.465 -1.584,-21.445 4.939,-21.445 12.021,0 18.986,-4.173 18.986,-11.369 0,-10.881 7.144,-12.81 42.893,-11.59 18.462,0.63 40.868,-0.518 49.787,-2.553 l 16.225,-3.699 -2.18,32.32 c -1.2,17.777 -3.107,57.498 -4.242,88.268 -1.133,30.769 -3.802,84.022 -5.926,118.34 -2.125,34.318 -2.841,65.626 -1.588,69.572 3.648,11.494 39.064,33.048 65.756,40.018 26.85,7.011 36.947,5.522 36.947,-5.444 0,-9.576 -6.76,-14.721 -42.422,-32.275 -19.445,-9.572 -33.982,-9.909 -29.531,-33.567 0.428,-10.256 1.898,-73.725 3.268,-141.043 l 2.49,-122.396 9.99,9.574 c 23.844,22.843 20.187,5.32 -11.304,-54.158 -21.388,-40.393 -32.466,-73.204 -33.473,-120.887 -0.827,-39.155 -7,-85.968 -7,-104.429 -0.02,-33.193 0.161,-33.842 15.875,-58.092 8.739,-13.488 18.339,-31.949 21.33,-41.026 2.99,-9.076 9.646,-20.227 14.795,-24.777 7.981,-7.054 8.368,-8.29 2.615,-8.391 -3.718,-0.06 -5.666,-1.866 -4.34,-4.011 1.323,-2.141 0.513,-6.175 -1.8,-8.963 -6.017,-7.249 -11.555,-28.17 -7.459,-28.17 1.854,0 3.005,3.845 6.642,10.512 6.95,12.735 11.115,6.905 11.135,1.609 0.646,-6.667 2.917,-12.121 5.045,-12.121 3.794,0 3.266,34.192 -2.801,181.24 -1.807,43.751 -0.843,67.025 4.326,104.432 3.911,28.313 6.75,72.574 6.918,107.49 0.193,42.147 1.549,59.786 4.68,60.834 6.881,2.303 11.33,-9.548 16.275,-43.355 5.413,-37.02 3.196,-74.448 -7.414,-125.323 -8.635,-41.42 -13.566,-110.556 -8.519,-119.572 3.872,-6.917 28.36,135.8 24.867,144.908 -2.785,7.254 6.54,43.952 15.941,63.711 3.183,10.751 7.627,20.639 11.813,23.973 9.485,7.554 19.309,6.06 24.078,-3.662 2.397,-4.888 7.55,-9.626 11.451,-10.528 6.001,-1.388 6.555,-3.177 3.609,-11.648 -1.917,-5.505 -3.227,-19.046 -2.912,-30.088 0.396,-13.885 -1.11,-21.081 -4.879,-23.334 -4.466,-2.669 -2.216,-7.79 12.442,-28.352 39.561,-55.488 55.394,-99.793 59.16,-165.554 1.13,-19.736 3.034,-34.696 4.23,-33.244 1.195,1.451 4.116,11.089 6.495,21.418 2.374,10.328 8.79,29.631 14.252,42.896 5.463,13.266 9.824,26.823 9.71,30.127 -0.272,7.408 -11.311,39.19 -29.658,85.389 -19.436,48.932 -41.99,118.378 -51.787,159.455 -18.252,76.502 -34.405,190.657 -38.439,271.619 -1.34,26.876 -8.796,46.996 13.871,64.978 31.835,34.467 65.952,48.646 138.666,57.635 88.712,10.968 202.742,-0.923 257.771,-26.881 20.513,-9.677 59.605,-34.308 65.537,-41.297 16.439,-19.361 -7.487,-153.716 -53.875,-302.556 -22.992,-73.762 -79.914,-192.041 -117.031,-243.182 -13.932,-19.192 -12.368,-28.694 -10.808,-52.545 2.094,-17.831 5.429,-50.842 7.423,-73.359 3.34,-37.765 3.971,-40.062 8.102,-29.619 32.999,83.356 34.518,85.944 87.281,148.615 36.606,43.48 58.746,79.273 61.35,99.178 3.707,28.332 19.269,31.411 20.166,3.986 0.617,-19.185 4.377,-14.212 14.553,19.25 7.949,26.143 12.725,31.601 19.738,22.563 2.603,-3.357 7.256,-5.044 10.355,-3.752 7.435,3.099 11.01,-2.973 11.481,-19.5 0.299,-10.502 1.139,-12.095 3.746,-7.108 5.159,9.866 14.133,8.185 14.443,-2.705 0.995,-34.932 -43.336,-78.867 -74.494,-73.826 -11.241,1.819 -13.49,-0.339 -70.605,-67.713 -33.417,-39.42 -40.728,-50.796 -63.131,-98.246 -22.229,-47.083 -24.601,-54.171 -19.338,-57.793 3.796,-2.612 5.29,-7.178 4.076,-12.432 -1.228,-5.31 0.01,-8.982 3.44,-10.187 20.555,-7.223 -16.846,-61.416 -42.897,-62.158 z m -7.477,16.144 c 12.008,-0.316 25.804,6.559 37.53,19.85 9.247,10.482 14.148,11.743 -2.555,7.367 -15.78,-3.626 -19.128,3.654 -7.107,15.451 10.84,10.636 9.918,15.801 -1.637,9.186 -11.142,-6.377 -12.74,-5.413 -10.715,6.461 1.58,9.269 0.835,10.555 -5.101,8.82 -5.312,-1.552 -7.3,0.259 -8.44,7.684 -0.863,10.51 -2.957,6.634 -12.178,-4.557 -13.902,-16.874 -17.892,-51.7 -8.648,-61.76 5.086,-5.535 11.647,-8.312 18.851,-8.502 z m -201.023,0.297 c 6.545,0.284 15.128,3.797 21.525,9.633 11.98,10.925 11.191,8.987 -0.484,20.572 -4.844,4.875 -9.162,12.412 -11.049,19.928 l -0.806,3.211 c -3.917,15.598 -14.307,15.03 -13.903,0.847 0.374,-13.115 -5.724,-15.169 -13.195,-4.445 -11.196,16.069 -13.618,9.844 -3.258,-8.369 5.456,-9.592 12.093,-20.533 14.746,-24.313 3.849,-5.483 3.888,-7.243 0.188,-8.708 -2.548,-1.011 -3.642,-3.344 -2.428,-5.186 1.545,-2.349 4.737,-3.341 8.664,-3.17 z m 103.018,18.9 c 13.505,-0.327 1.425,7.622 -5.293,23.274 -7.29,13.512 -13.319,26.88 -13.399,29.709 -0.357,12.504 -7.087,3.097 -12.086,-16.895 -8.208,-32.813 -9.177,-31.342 23.332,-35.439 3.064,-0.386 5.516,-0.602 7.446,-0.649 z m 28.39,3.504 c 6.657,0.19 10.232,2.267 10.129,5.887 -0.09,3.076 -2.677,5.52 -5.752,5.432 -4.816,-0.138 -6.61,2.762 -6.785,11 -0.02,1.025 1.114,6.083 2.525,11.238 2.223,8.118 1.825,8.717 -2.992,4.482 -4.569,-4.017 -5.999,-3.831 -8.029,1.039 -1.358,3.26 -2.586,9.984 -2.727,14.942 -0.141,4.959 -2.562,8.118 -5.138,8.877 -11.338,3.341 -19.674,37.129 -15.137,41.931 5.945,6.297 14.107,-0.07 16.969,-13.238 1.542,-7.104 5.305,-13.794 8.357,-14.867 3.053,-1.073 5.672,-6.198 5.82,-11.389 0.193,-6.774 2.261,-9.38 7.327,-9.236 9.07,0.258 12.984,-9.195 7.97,-19.244 -3.134,-6.28 -2.695,-8.492 2.194,-11.047 3.361,-1.757 6.229,-7.253 6.371,-12.213 0.184,-6.484 1.809,-8.37 5.787,-6.713 3.511,1.464 5.401,7.264 5.156,15.887 -0.466,17.039 13.218,41.296 33.44,50.25 7.755,1.74 2.434,26.137 -0.705,70.049 -4.837,67.649 -3.413,74.268 -24.168,74.761 -23.842,3.837 -96.862,4.618 -107.098,1.145 -7.885,-2.675 -10.316,-9.161 -21.537,-57.395 -6.955,-29.907 -12.7,-54.797 -12.77,-55.312 -0.07,-0.515 2.538,-0.861 5.783,-0.768 3.247,0.09 5.264,-1.949 4.485,-4.537 -0.782,-2.587 -3.797,-4.772 -6.703,-4.855 -5.527,-0.158 -9.359,-11.789 -9.61,-29.19 -0.09,-6.297 1.777,-10.21 4.834,-10.123 3.425,0.1 4.743,5.087 4.209,15.977 -0.651,13.34 0.4,15.928 6.67,16.428 15.285,1.216 16.729,2.165 16.483,10.826 -0.252,8.819 7.89,18.981 15.802,19.72 2.281,0.213 7.114,1.843 10.743,3.622 9.246,4.531 10.097,2.45 5.568,-13.61 -4.233,-15.02 -13.18,-19.419 -13.543,-6.66 -0.121,4.222 -1.867,6.591 -3.881,5.266 -2.016,-1.326 -3.523,-8.603 -3.328,-16.172 0.437,-17.976 -3.141,-23.349 -14.406,-21.633 -8.95,1.364 -6.829,-1.971 -4.985,-20.727 1.723,-17.523 -1.009,-16.035 -6.675,-11.601 -3.431,2.687 -6.975,4.112 -7.868,3.166 -2.686,-2.847 6.971,-30.698 11.623,-33.516 7.461,-4.518 8.916,-2.988 10.854,11.446 2.626,19.534 21.615,61.248 27.963,61.429 5.142,0.147 7.982,-5.748 27.056,-56.129 8.576,-22.655 10.366,-24.891 19.719,-24.625 z m -423.041,0.883 c 4.94,0.01 17.717,27.446 17.717,38.035 0,14.307 -7.401,9.163 -14.635,-10.172 -9.002,-24.058 -9.424,-27.891 -3.082,-27.863 z m -30.74,0.287 c 7.361,0.379 11.177,4.95 11.199,13.569 0.02,5.705 5.961,27.157 13.199,47.67 7.243,20.513 14.852,45.688 16.913,55.945 2.062,10.256 3.875,73.531 4.042,140.609 l 0.293,121.961 -16.752,23.496 c -9.213,12.923 -21.362,32.031 -28.697,41.211 l -4.332,5.422 c -9.963,12.526 -15.15,12.865 -36.943,5.371 -31.099,-8.028 -53.647,-21.503 -50.014,-29.889 8.915,-20.564 20.854,-69.852 22.703,-93.728 1.227,-15.857 -0.652,-58.919 -4.338,-99.42 -7.203,-79.162 -6.355,-188.094 1.625,-209.051 3.751,-9.846 7.309,-12.52 20.1,-15.113 8.545,-1.73 16.109,-1.776 16.803,-0.1 0.694,1.678 -1.402,10.876 -4.66,20.44 -8.845,25.961 -7.766,34.037 5.543,41.41 24.387,13.511 23.908,12.556 16.31,32.449 -8.036,21.046 -3.911,22.775 14.557,37.887 11.779,10.963 23.073,19.933 25.101,19.933 4.773,0 -1.875,-12.655 -16.34,-31.105 -13.727,-17.505 -13.256,-10.307 -3.193,-30.869 7.907,-16.378 10.948,-23.966 -10.344,-32.998 -10.113,-5.124 -19.251,-10.717 -20.308,-12.428 -1.057,-1.711 0.877,-13.552 4.295,-26.314 4.921,-18.363 7.988,-23.649 14.705,-25.334 3.232,-0.812 6.079,-1.152 8.533,-1.026 z m 90.646,7.733 c 1.593,-0.309 2.495,0.793 2.327,4.088 -0.772,15.046 -10.012,48.359 -12.36,44.562 -1.519,-2.457 -1.035,-3.468 -0.935,-4.469 1.212,-12.617 -4.503,-15.968 -6.434,-22.634 -2.36,-8.17 0.192,-6.568 5.465,-11.864 4.715,-4.735 9.284,-9.169 11.937,-9.683 z m 21.971,5.537 c 1.197,-0.139 2.661,0.02 4.49,0.369 6.953,1.327 8.174,3.461 6.674,11.56 -1.013,5.463 -4.948,13.935 -8.746,18.827 -8.927,11.5 -8.777,23.686 0.391,31.984 7.215,6.528 7.171,6.851 -3.782,28.551 -10.255,20.309 -14.699,26.112 -14.699,19.15 0,-7.298 7.698,-86.426 9.551,-98.275 1.354,-8.657 2.531,-11.75 6.121,-12.166 z m 13.721,46.103 c 2.051,0 4.767,1.679 6.037,3.731 1.267,2.051 0.626,3.73 -1.426,3.73 -2.051,0 -4.767,-1.679 -6.035,-3.73 -1.266,-2.052 -0.626,-3.731 1.424,-3.731 z m 358.072,3.76 c -2.172,-0.06 -2.959,1.595 -1.75,3.682 1.207,2.086 2.938,3.816 3.84,3.841 0.904,0.03 1.692,-1.631 1.752,-3.681 0.06,-2.051 -1.673,-3.78 -3.842,-3.842 z m -5.385,16.225 c -1.359,0 -2.362,1.458 -2.429,3.855 -0.187,6.549 2.024,7.576 5.367,2.496 1.235,-1.875 0.565,-4.512 -1.481,-5.859 -0.511,-0.337 -1.003,-0.495 -1.457,-0.492 z m -400.394,8.414 c 2.329,-0.462 2.39,8.386 0.539,33.383 -3.625,48.972 -3.486,139.982 0.281,185.308 l 3.02,36.365 h -9.547 c -5.253,0 -9.71,-1.258 -9.906,-2.796 -0.199,-1.539 0.22,-27.135 0.931,-56.879 2.025,-84.866 1.525,-149.312 -1.332,-170.631 -2.297,-17.171 -1.816,-19.58 3.916,-19.58 3.597,0 8.528,-1.991 10.959,-4.422 0.426,-0.426 0.806,-0.682 1.139,-0.748 z m 384.789,20.224 c -1.449,0.427 -2.517,2.273 -2.592,4.836 -0.1,3.418 1.643,5.664 3.867,4.992 2.225,-0.672 4.087,-2.815 4.147,-4.763 0.06,-1.948 -1.686,-4.195 -3.869,-4.992 -0.546,-0.2 -1.07,-0.215 -1.553,-0.07 z m -93.375,12.325 c -1.599,0.324 -2.77,2.021 -2.838,4.457 -0.09,3.246 2.486,5.979 5.732,6.072 6.586,0.188 5.669,-7.872 -1.177,-10.373 -0.603,-0.22 -1.184,-0.265 -1.717,-0.156 z m 81.807,9.794 c -1.599,0.325 -2.769,2.023 -2.836,4.458 -0.09,3.246 2.487,5.978 5.734,6.07 6.582,0.187 5.661,-7.87 -1.184,-10.371 -0.603,-0.22 -1.182,-0.265 -1.714,-0.157 z m -67.709,6.215 c -3.77,-0.539 -7.016,5.255 -4.479,9.635 h 0.02 c 1.208,2.086 3.778,3.838 5.707,3.893 4.518,0.128 4.832,-9.961 0.386,-12.889 -0.544,-0.358 -1.092,-0.564 -1.63,-0.641 z m 51.556,14.963 c -7.068,-0.201 -10.271,5.05 -7.654,12.504 3.36,9.558 12.463,7.396 12.76,-3.029 0.16,-5.63 -1.862,-9.383 -5.106,-9.475 z m -34.137,8.451 c -2.984,-0.535 -5.582,2.804 -5.767,9.289 -0.135,4.751 2.356,7.308 7.252,7.448 8.535,0.243 9.004,-1.143 3.869,-11.432 -1.631,-3.267 -3.563,-4.983 -5.354,-5.305 z m 18.508,29.102 c -1.449,0.427 -2.517,2.275 -2.592,4.838 -0.1,3.417 1.646,5.662 3.87,4.99 2.227,-0.672 4.088,-2.814 4.148,-4.762 0.05,-1.948 -1.686,-4.194 -3.871,-4.992 -0.546,-0.199 -1.072,-0.216 -1.555,-0.07 z m 91.928,39.418 c 10.959,-0.266 14.635,15.27 28.803,41.373 70.209,126.773 107.124,224.02 138.308,364.316 18.972,85.37 20.117,93.631 12.534,90.469 -10.584,-4.41 -11.899,8.844 -1.758,17.707 12.059,10.541 15.745,27.095 7.045,31.643 -4.732,2.475 -7.92,1.319 -12.346,-4.479 -7.636,-9.995 -16.149,-5.734 -13.4,6.707 2.561,11.592 -7.803,16.205 -14.512,6.459 -5.829,-8.47 -14.7,-4.108 -12.346,6.071 1.313,5.679 -1.226,8.522 -10.949,12.263 -26.702,10.273 -69.601,18.414 -118.172,22.426 v 0.01 c -48.333,3.992 -75.325,3.986 -105.178,-0.02 -11.563,-1.552 -13.848,-3.374 -14.593,-11.627 -1.299,-14.43 -10.037,-15.757 -10.44,-1.586 l -0.33,11.53 -21.373,-2.834 c -27.619,-3.66 -61.056,-13.894 -58.432,-17.883 1.126,-1.709 -0.392,-5.25 -3.373,-7.871 -4.294,-3.785 -6.597,-3.854 -11.08,-0.344 -4.694,3.675 -6.251,2.736 -9.111,-5.486 -2.853,-8.195 -5.093,-9.557 -12.901,-7.832 -8.551,1.889 -9.415,1.004 -9.121,-9.317 0.196,-6.863 2.892,-12.744 6.776,-14.773 5.464,-2.859 5.714,-4.31 1.629,-9.528 -5.356,-6.839 -3.056,-38.624 9.308,-128.761 15.206,-110.831 29.742,-172.479 67.254,-285.258 12.489,-37.54 24.013,-76.341 25.612,-86.225 2.279,-14.09 4.127,-17.46 8.564,-15.611 28.587,11.914 84.331,10.433 128.387,-0.443 1.914,-0.699 3.629,-1.058 5.195,-1.096 z m -432.551,130.32 c 2.558,-0.135 5.085,0.85 6.625,3.281 1.812,2.863 3.334,9.737 3.354,15.276 0.03,5.539 2.418,11.414 5.308,13.055 2.887,1.64 9.446,12.491 14.573,24.111 l 9.322,21.127 -8.17,2.051 c -4.493,1.127 -23.217,3.773 -41.613,5.88 -38.209,4.378 -42.766,4.598 -42.766,2.061 0,-1.008 5.983,-9.673 13.295,-19.254 15.181,-19.886 31.461,-50.467 31.461,-59.096 0,-4.93 4.348,-8.266 8.611,-8.492 z m 586.67,342.504 c -1.465,0.101 -3.007,0.905 -4.615,2.424 -3.983,3.763 -4.418,7.46 -1.775,15.061 2.286,6.574 6.268,10.152 11.457,10.3 6.811,0.194 7.626,-1.253 5.675,-10.078 -2.649,-11.992 -6.346,-18.01 -10.742,-17.707 z m -20.738,1.828 c -4.423,0 -8.711,5.057 -5.961,9.801 1.311,2.268 3.869,4.168 5.678,4.219 5.757,0.164 8.676,-7.712 4.496,-12.137 -1.249,-1.322 -2.739,-1.883 -4.213,-1.883 z m -8.793,19.401 c -5.739,0.174 -8.835,9.237 -3,13.078 2.715,1.787 6.298,2.46 7.963,1.496 5.087,-2.949 3.642,-11.562 -2.362,-14.065 -0.909,-0.379 -1.781,-0.534 -2.601,-0.509 z m -353.877,6.679 c -5.22,-0.148 -8.924,9.618 -6.385,16.844 h -0.01 c 1.139,3.241 3.79,4.897 5.891,3.68 5.04,-2.912 5.458,-20.382 0.504,-20.524 z m 239.555,2.875 c -1.036,-0.08 -2.111,0.296 -3.084,1.215 -1.316,1.242 -1.684,5.552 0.318,9.026 l 0.547,0.951 c 3.48,6.035 4.874,5.216 6.603,-1.252 1.467,-5.473 -1.278,-9.713 -4.384,-9.94 z m -109.2,1.625 c -4.458,0.01 -8.477,5.703 -6.32,11.842 1.141,3.249 3.859,5.96 6.037,6.022 6.039,0.172 9.313,-10.881 4.676,-15.789 -1.371,-1.452 -2.906,-2.079 -4.393,-2.075 z m 137.916,3.145 c -5.622,-0.16 -4.285,11.806 2.166,19.355 6.573,7.694 10.717,8.861 13.961,3.93 2.46,-3.738 -10.974,-23.138 -16.127,-23.285 z m 55.784,5.32 c -3.934,-0.112 -5.01,12.305 -1.397,16.129 5.226,5.533 16.089,2.79 16.285,-4.111 0.185,-6.469 -6.39,-11.776 -14.888,-12.018 z m -172.452,7.207 c -7.582,2.29 -7.453,9.413 0.319,17.641 4.181,4.426 9.241,7.097 11.244,5.937 4.92,-2.85 -6.062,-25.24 -11.563,-23.578 z m -140.136,0.06 c -1.175,0.176 -2.052,1.436 -3.055,3.844 -1.37,3.27 -1.589,8.49 -0.498,11.599 v 0 c 2.844,8.094 13.368,7.306 13.605,-1.019 0.11,-3.85 -2.236,-9.145 -5.218,-11.764 -2.194,-1.928 -3.666,-2.836 -4.84,-2.66 z m 288.412,0.814 c -0.706,0.04 -1.35,0.201 -1.901,0.52 -2.961,1.715 -2.938,3.938 0.07,7.785 v 0 c 4.653,5.944 14.435,7.558 14.582,2.406 0.137,-4.814 -7.815,-10.958 -12.754,-10.711 z m -192.338,1.28 c -2.465,0.381 -3.656,2.479 -3.77,6.48 -0.152,5.335 2.174,7.797 7.508,7.949 9.555,0.273 8.822,-12.098 -0.842,-14.246 -1.112,-0.247 -2.074,-0.31 -2.896,-0.183 z m 267.853,0.07 c -2.359,0.497 -3.362,4.043 -1.535,9.244 1.727,4.913 3.33,5.441 6.741,2.219 3.414,-3.222 3.458,-5.308 0.189,-8.766 -2.074,-2.196 -3.979,-2.996 -5.395,-2.697 z m -147.138,4.683 c -1.393,0.174 -2.627,0.815 -3.434,2.041 -1.324,2.015 -0.468,6.145 1.908,9.178 4.81,6.143 10.97,4.296 11.188,-3.355 0.133,-4.698 -5.483,-8.384 -9.662,-7.864 z m -48.326,0.436 c -6.418,-0.183 -7.396,15.221 -1.369,21.602 9.219,9.766 14.689,4.083 10.076,-10.477 -1.912,-6.037 -5.83,-11.043 -8.707,-11.125 z m -140.485,4.258 c -3.951,0.693 -6.785,5.949 -4.836,11.498 1.213,3.456 4.546,6.351 7.401,6.432 6.12,0.174 7.396,-13.147 1.625,-16.946 -1.43,-0.941 -2.873,-1.215 -4.19,-0.984 z m 164.619,0.146 c -0.653,0.08 -1.224,0.322 -1.677,0.75 -1.361,1.274 -1.459,5.83 -0.229,10.123 h 0.01 c 2.713,9.483 17.724,11.409 16.16,2.075 -1.042,-6.221 -9.692,-13.516 -14.268,-12.948 z m -116.773,1.118 c -5.111,0.66 -7.271,10.242 -2.588,16.222 2.839,3.627 5.926,4.554 8.158,2.447 4.714,-4.452 2.655,-16.23 -3.211,-18.371 -0.839,-0.306 -1.629,-0.393 -2.359,-0.298 z m -28.609,2.216 c -4.065,-0.116 -5.269,12.211 -1.575,16.123 3.035,3.213 6.682,3.366 9.811,0.412 3.139,-2.967 -3.549,-16.401 -8.236,-16.535 z m 205.156,10.412 c -1.282,-0.09 -2.614,0.191 -3.883,0.926 -2.516,1.463 -2.547,4.709 -0.08,9.651 v 0 c 3.947,7.908 10.823,6.74 11.068,-1.881 0.137,-4.803 -3.252,-8.425 -7.097,-8.696 z m -140.672,10.211 c -2.778,-0.137 -5.283,1.392 -5.377,4.692 -0.08,2.734 0.945,6.121 2.273,7.527 5.647,5.98 12.902,1.02 10.114,-6.916 -1.182,-3.363 -4.232,-5.166 -7.01,-5.303 z m 154.225,7.996 c -3.604,-0.102 -4.355,12.547 -0.959,16.141 4.145,4.39 12.349,3.073 12.494,-2.006 0.153,-5.372 -6.89,-14.002 -11.535,-14.135 z m -133.707,4.604 c -1.681,-0.05 -3.39,0.831 -5.674,2.619 -7.286,5.705 -7.302,9.001 -0.08,16.649 4.493,4.754 7.03,5.209 11.138,1.994 6.909,-5.41 6.958,-12.319 0.127,-18.325 -2.177,-1.914 -3.83,-2.889 -5.511,-2.937 z m 110.121,2.187 c -6.826,-0.194 -8.097,13.336 -1.504,15.969 2.537,1.013 6.133,0.529 7.99,-1.076 4.845,-4.186 0.267,-14.7 -6.486,-14.893 z" fill="#00B894" transform="translate(55.498318,43.776623) matrix(0.27304354,0,0,0.27304354,-3187.1189,-2455.7464) translate(-3459.7236,-2280.8251)"/>
</svg>