<?xml version="1.0" ?><svg height="264.57507mm" viewBox="0 0 224.08894 264.57507" width="224.08894mm" xmlns="http://www.w3.org/2000/svg">
    <path d="m 11455.068,2894.1973 -104.252,13.3965 18.276,67.2402 -53.569,50.6113 -47.468,-31.0527 -39.082,63.3066 57.574,26.4219 -3.053,51.1269 -69.771,28.3086 32.216,67.7696 52.807,-27.9649 30.502,39.9746 -34.125,53.3575 42.133,50.2675 57.467,-64.7148 47.574,31.2598 12.631,47.9511 84.785,-1.9707 -20.207,-63.1367 61.765,-35.6855 41.75,45.2929 57.381,-76.5175 -42.511,-28.8243 12.963,-71.0293 52.667,-7.748 3.379,-76.834 -66.15,8.4063 -26.309,-50.6114 19.065,-49.0683 -67.256,-53.4707 -37.023,54.1562 -65.198,-7.5488 z m 16.061,140.2246 a 82.601883,87.927567 0 0 1 82.601,87.9277 82.601883,87.927567 0 0 1 -82.601,87.9277 82.601883,87.927567 0 0 1 -82.602,-87.9277 82.601883,87.927567 0 0 1 82.602,-87.9277 z m -293.119,251.3496 -12.324,30.9746 -65.948,20.6816 -19.761,-23.6797 -76.831,50.7579 13.067,37.623 -47.172,57.2402 -36.527,-1.4003 -16.766,96.7207 35.75,3.1972 7.551,70.6426 -33.418,19.8828 56.178,93.7227 33.306,-19.8828 71.389,42.664 -5.328,37.2695 93.926,20.2833 13.433,-26.0782 95.592,-15.3867 24.758,23.5801 81.603,-62.7481 -21.427,-26.9785 53.402,-66.0449 3.221,82.5313 22.757,3.8964 18.987,72.6407 -18.875,19.9843 63.238,48.9981 28.912,-32.3125 88.375,-3.7969 17.986,23.0801 71.166,-48.6582 -19.427,-24.9805 10.99,-76.9355 28.645,-16.7871 -29.866,-76.2364 -27.867,7.793 -67.725,-27.1777 -14.656,-36.4707 -80.047,5.7968 -1.445,37.2676 -56.51,55.5547 -10.103,-4.2969 25.556,-95.0605 -38.746,-13.2891 -17.875,-87.1289 22.317,-18.7832 -51.627,-88.6269 -36.528,25.0781 -95.257,-49.459 6.216,-34.6719 z m 10.664,152.668 a 126.28983,123.54823 0 0 1 126.291,123.5468 126.28983,123.54823 0 0 1 -126.291,123.5489 126.28983,123.54823 0 0 1 -126.289,-123.5489 126.28983,123.54823 0 0 1 126.289,-123.5468 z m 389.109,239.0117 a 40.479931,43.127323 0 0 1 40.481,43.1269 40.479931,43.127323 0 0 1 -40.481,43.127 40.479931,43.127323 0 0 1 -40.48,-43.127 40.479931,43.127323 0 0 1 40.48,-43.1269 z" fill="#FFFFFF" transform="translate(-1.3483849,40.061344) matrix(0.26458333,0,0,0.26458333,-2005.6891,-158.61875) translate(-3313.5291,-2437.8203)"/>
    <path d="m 8198.2623,1445.0436 c -3.9544,-2.315 -12.9759,-5.42 -20.0479,-6.901 -7.072,-1.481 -24.3277,-13.259 -38.3462,-26.175 -20.5444,-21.395 -22.9412,-20.146 -5.7847,-43.471 9.5328,-12.96 0.4509,-9.908 -4.9488,-33.8843 -4.7539,-21.1073 -7.9818,-26.4113 -17.4822,-28.7268 -11.0214,-2.6858 -11.6099,-4.6034 -10.8779,-35.4236 0.4256,-17.9208 -0.6694,-30.7253 -2.4338,-28.4543 -1.7641,2.2713 -9.5568,11.1716 -17.3169,19.7786 l -14.1094,15.6496 10.5515,7.3905 c 7.2657,5.089 10.5515,12.3396 10.5515,23.2844 0,25.2977 -46.0983,64.0239 -85.0154,71.4209 -15.4752,2.941 -18.7373,1.147 -31.3947,-17.259 -5.1293,-7.46 -8.9698,-7.896 -31.6467,-3.595 -14.195,2.692 -33.0642,4.895 -41.9315,4.895 -11.1353,0 -16.1222,2.223 -16.1222,7.189 0,3.955 -4.314,11.504 -9.5863,16.777 -11.9097,11.909 -44.9146,12.813 -80.6296,2.207 -29.6681,-8.811 -41.6148,-23.45 -36.8483,-45.1519 2.2002,-10.0162 1.374,-14.5746 -2.6412,-14.5746 -3.2131,0 -16.5374,-6.5806 -29.609,-14.6239 -22.3117,-13.7284 -24.4618,-14.1688 -35.113,-7.1899 -6.2401,4.0889 -14.4085,7.434 -18.1523,7.434 -11.0951,0 -45.6508,-38.8276 -58.3923,-65.6103 -16.9186,-35.563 -15.8221,-47.3638 5.103,-54.9305 15.7232,-5.6857 16.6762,-7.1636 13.3362,-20.6817 -1.9783,-8.007 -3.2804,-21.5711 -2.894,-30.1426 0.6266,-13.8826 -0.4702,-15.2893 -10.0443,-12.8864 -6.6873,1.6785 -14.9294,-0.6888 -21.8173,-6.266 -10.8284,-8.7684 -10.9405,-9.7405 -5.1462,-44.6327 10.3675,-62.427 22.4548,-79.3595 52.3791,-73.3747 8.1638,1.6329 14.7724,0.9282 14.7724,-1.5753 0,-2.4913 7.7057,-13.5321 17.1241,-24.5351 16.1694,-18.9684 20.9183,-14.6775 7.1899,-33.9575 -5.4639,-7.6731 -9.9343,-16.1701 -9.9343,-18.8821 0,-12.0636 77.8483,-63.09172 96.2522,-63.09172 3.4019,0 10.9654,4.4911 16.8079,9.9799 10.4311,9.7995 11.1001,9.8293 37.0042,1.6637 21.9964,-6.9335 26.814,-10.4803 28.986,-21.3399 3.1025,-15.5122 12.9045,-18.9069 54.8593,-18.9979 18.3058,-0.039 35.9811,2.9263 44.8883,7.5325 8.0811,4.1788 16.2179,5.7965 18.0822,3.595 1.8644,-2.2016 10.0192,-12.6568 18.1218,-23.2338 14.3047,-18.6219 18.4105,-14.6642 4.4477,-31.9997 -13.5364,-20.7436 -18.6323,-7.8331 -37.7092,3.4468 -25.6388,15.1588 -27.9475,15.6927 -35.4448,8.1958 -10.1708,-10.1712 -35.3832,-63.1219 -35.3883,-74.3227 0,-10.2952 23.9532,-25.8491 51.5239,-33.4495 19.7758,-5.4518 20.3711,-6.1952 20.3711,-25.4329 0,-19.1154 -0.7208,-20.0429 -20.3711,-26.2093 -11.2044,-3.5162 -23.6069,-6.5536 -27.5614,-6.7506 -20.4635,-1.0177 7.2787,-54.2384 22.4609,-73.9595 9.2951,-12.0744 17.2852,-20.406 23.218,-23.323 9.1714,-4.5088 15.0689,4.15 33.3758,17.2967 22.275,16.6741 17.4675,18.5622 38.3437,2.6391 24.1908,-15.6387 14.6807,-24.2508 8.6588,-45.9524 -7.3049,-25.7255 -19.2614,-35.475 5.3572,-44.6773 35.7205,-10.3017 47.4404,-12.6348 83.0177,-20.2183 30.3112,-6.4612 37.2861,8.9046 42.0821,37.2914 2.812,24.2443 3.5328,18.7311 26.772,18.7311 23.2309,0 23.7744,-0.3451 34.0865,-21.5696 9.8006,-20.1727 11.7099,-21.5697 29.4747,-21.5697 46.4219,4.7809 50.7825,24.6656 72.9716,45.4951 14.2367,13.1938 12.9605,23.118 -5.8453,45.4675 -14.9442,14.5365 -10.4854,16.073 1.5296,31.138 13.4444,16.8574 13.6015,16.9081 42.956,13.9038 27.2185,-2.7857 29.9024,-2.1922 35.246,7.7924 3.1815,5.9439 6.9145,27.2968 8.2957,47.4504 2.9676,43.295 -0.7809,48.6407 -36.5157,52.0743 l -23.109,2.2206 -5.6024,24.2702 c -3.1729,13.7449 -3.7646,25.4623 -1.3647,27.0185 24.2178,15.7049 39.0642,27.4561 39.0911,30.9421 0.1151,14.7698 -57.6899,84.4478 -70.0572,84.4478 -3.1578,0 -16.8204,-8.7576 -30.3615,-19.4612 -22.3279,-18.4338 -18.8807,-22.1061 -43.446,-10.7849 -28.1121,11.7519 -16.6921,25.9516 -9.4871,47.0223 11.7577,31.35512 13.2823,29.97142 -13.1812,41.89692 -16.4286,7.3611 -32.8913,10.2891 -59.125,10.5153 l -36.3568,0.3127 11.1454,23.9665 c 14.026,30.1609 13.9685,34.9727 -0.6014,50.1804 -11.5747,12.0812 -11.6825,12.885 -4.7935,35.7751 3.876,12.8793 7.0475,29.2931 7.0475,36.4754 0,13.9488 10.6008,11.8576 23.1443,13.0817 26.5702,2.5923 19.4458,49.959 1.169,87.7879 -12.382,25.6276 -9.7185,29.6953 4.4416,6.7836 5.8716,-9.5003 15.6046,-20.503 21.6294,-24.4506 9.1261,-5.9795 10.5475,-10.2043 8.52,-25.3196 -2.272,-16.9394 -1.3657,-18.5927 13.6687,-24.9324 9.037,-3.811 31.7808,-6.7901 51.8337,-6.7901 28.229,1.7076 32.5987,-10.8302 40.2379,15.5779 3.068,10.6055 6.2826,23.667 12.5514,23.667 11.9338,0 27.5161,3.252 43.509,14.0214 12.3957,8.3464 13.7589,10.7629 27.3212,5.6437 20.7759,-7.842 32.0813,3.1147 44.4138,43.0423 13.0529,42.26 12.4471,48.5189 -5.2947,54.7036 -14.2352,4.9625 -14.7065,5.9939 -11.7501,25.71 2.0334,13.5583 0.6939,26.2503 -3.94,37.3414 -6.4831,15.516 -6.3174,17.438 2.1634,25.113 12.9663,11.735 10.7877,17.291 -7.7259,35.059 -48.9445,46.976 -76.0594,43.135 -83.7216,17.235 -2.2681,-7.668 -10.2769,-1.096 -40.2897,-1.375 l -35.2297,-0.327 -11.3849,17.344 c -12.5528,19.122 -17.4567,21.833 -28.1614,15.568 z m 7.2306,-28.873 c 1.6957,-5.343 7.7726,-12.664 13.5044,-16.27 13.334,-8.387 103.7696,-20.329 108.37,-3.74 5.8752,21.185 4.8338,20.295 34.9562,-0.234 25.0536,-17.074 26.5627,-20.336 15.212,-32.879 -7.0238,-7.76 -7.0238,-11.024 0,-39.0292 4.2151,-16.8086 7.6641,-36.4549 7.6641,-43.6589 0,-9.5338 3.9052,-15.3205 14.3496,-21.2637 7.8923,-4.4908 14.3632,-9.7021 14.3798,-11.5804 0.061,-6.8642 -19.9178,-56.5004 -22.7417,-56.5004 -1.6008,0 -9.6984,2.4543 -17.9948,5.4543 -13.8327,5.002 -12.6323,-0.4738 -47.9703,-14.3798 -34.0675,-9.8944 -43.1296,-4.48 -45.4743,-34.2138 -5.7814,-13.9578 -6.9008,-14.3798 -38.1287,-14.3798 -27.7983,6.3195 -38.5587,-1.2378 -27.2752,26.2539 6.0575,14.4977 2.2213,12.3842 -4.9841,17.9046 -4.43,3.3936 -19.3383,17.4948 -33.1299,31.3354 -19.435,19.504 -28.4026,25.1646 -39.8676,25.1646 -14.7533,0 -14.7921,0.068 -14.7921,26.6458 0,16.4015 1.8283,25.5158 4.7553,23.7068 10.1011,-6.243 21.0765,6.2409 22.0446,25.0744 0.5339,10.3848 6.6701,19.8751 12.2146,30.7433 12.564,24.6269 14.3729,33.3799 -0.3854,42.4209 -14.6411,8.968 -14.6677,8.3 7.7701,25.781 25.4411,19.821 33.1595,21.394 37.5234,7.644 z m 21.6272,-49.004 c -26.58,-13.581 -38.8492,-30.2938 -41.8618,-57.0211 -3.39,-30.0772 5.5521,-57.3826 26.5354,-81.028 16.9933,-19.1488 20.2583,-20.7274 46.7074,-22.5798 23.9901,-1.6803 31.0423,-0.2229 45.0989,9.3314 23.1328,15.7203 36.9985,38.1618 40.8412,66.1024 5.7066,41.4918 -12.0607,72.1211 -51.3578,88.5361 -24.4075,10.196 -41.1298,9.349 -65.9633,-3.341 z m 77.6138,-41.281 c 14.625,-15.6787 18.1534,-23.1209 18.1534,-38.2891 0,-11.6454 -3.5806,-23.1442 -9.386,-30.1436 l -9.3861,-11.3158 4.8848,18.2163 c 14.8234,55.2799 -48.2453,93.3492 -84.0858,50.7553 -9.2088,-10.9441 -12.2721,-19.9962 -12.2721,-36.2659 0,-18.3457 2.5553,-24.2364 16.6087,-38.2898 14.5915,-14.5915 15.335,-16.4249 6.1211,-15.0987 -16.4616,2.3698 -32.1435,34.7282 -32.2373,66.5205 -0.068,22.9692 1.7478,28.3663 13.1025,38.9462 17.4969,16.3026 23.667,18.3476 48.9524,16.2226 17.6889,-1.4858 24.5333,-5.1652 39.5444,-21.258 z m -20.2698,-23.2201 c 12.4256,-15.7966 9.779,-32.6468 -7.5605,-48.1403 -15.2983,-13.6691 -28.1132,-13.714 -37.6265,-0.133 -11.0221,15.7361 -9.2674,35.9099 4.3035,49.4808 19.1158,13.0942 30.959,10.9258 40.8835,-1.2086 z m -425.7492,53.7171 c 1.1845,-6.663 6.0783,-10.0033 16.0432,-10.952 7.8866,-0.751 28.7851,-4.5257 46.4413,-8.3884 44.5166,-9.7388 59.395,-9.0611 67.9089,3.0938 8.0868,15.7576 13.645,5.3176 25.4364,-3.3106 10.0925,-7.3851 25.3854,-18.5374 33.9841,-24.7832 13.6799,-9.9365 14.7627,-12.2272 8.6617,-18.3278 -7.9642,-7.9642 -27.9331,-15.5909 24.5028,-75.637 22.6363,-25.9217 17.4308,-32.7212 30.4974,-30.8033 13.0748,1.919 14.4729,0.5012 21.9565,-22.2696 10.7057,-31.3731 16.9951,-33.7853 -12.8254,-37.2203 -14.5534,-0.1725 -14.6828,-12.1667 -16.2139,-19.632 -1.1967,-5.8335 -5.7666,-27.7188 -10.1557,-48.6342 -7.6094,-36.2608 -7.5792,-38.3214 0.6485,-44.3379 4.7457,-3.4703 11.4521,-6.3095 14.9025,-6.3095 8.8673,0 8.5031,-1.2317 -13.5073,-45.6498 -18.4859,-27.9108 -18.913,-42.2884 -31.582,-25.8944 -17.7022,21.0377 -39.1353,19.2801 -77.3844,-6.3465 -16.7234,-11.204 -36.1181,-23.8467 -43.0995,-28.0945 -9.7987,-5.9619 -12.4353,-11.01382 -11.5606,-22.15132 1.0378,-13.2197 -0.3674,-14.6761 -16.7766,-17.3888 -9.8501,-1.6282 -24.776,-2.9842 -33.1691,-3.0129 -13.0993,-0.043 -15.4745,1.8133 -16.7762,13.1284 -1.3326,11.5804 -5.0106,14.2306 -30.2763,21.81632 -15.8177,4.7492 -34.5632,11.8054 -41.6564,15.6808 -13.7022,7.4864 -15.1229,6.7976 -29.8252,-14.4629 -6.2746,-9.07362 -15.5754,-1.2906 -29.0899,7.0353 -39.1238,24.1031 -34.9792,25.8556 -28.1377,38.1845 13.1601,23.7144 10.0443,25.8394 -35.3584,72.5316 -16.036,16.4915 -19.2689,18.9842 -32.9754,16.4128 -18.0833,-3.3926 -18.6793,-2.2102 -23.4434,46.5154 -2.6466,27.0688 -1.9797,32.4113 4.0817,32.3545 30.4137,-0.284 26.7407,2.8572 31.2621,51.7636 3.0887,33.4122 6.798,39.3083 -1.0519,39.3083 -3.5457,0 -10.2977,4.2549 -15.0039,9.4554 -8.2824,9.152 -7.9193,10.5289 11.3129,42.9014 10.9283,18.3953 21.8214,34.6524 24.2066,36.1263 2.3853,1.4743 8.5948,-2.7325 13.7989,-9.3483 17.5167,-24.4161 41.5079,4.1648 58.9999,15.5323 40.6912,26.5131 42.1975,28.1301 39.612,42.5168 -7.3161,23.8157 12.3055,19.0597 32.48,24.5807 36.8543,10.088 40.3608,9.601 43.1318,-5.983 z m -22.3437,-41.3796 c -66.3199,-8.3349 -123.3369,-50.1607 -154.1031,-113.0449 -26.3604,-53.8786 -14.977,-145.9574 18.3762,-198.2901 33.4251,-52.4449 90.5898,-82.8028 153.6387,-86.1282 116.1535,-6.1265 210.6334,63.4599 231.8407,163.5044 10.4045,49.0836 6.2322,83.5232 -15.8098,130.494 -19.2866,41.0989 -36.2785,58.9435 -74.6362,78.3807 -59.0161,29.9056 -86.5045,34.2339 -159.3065,25.0841 z m 124.502,-36.7627 c 46.024,-21.7933 61.2137,-34.5039 79.0943,-66.1862 20.3085,-35.9851 28.7617,-65.185 28.825,-99.5721 0.068,-37.2793 -7.0882,-59.4497 -28.2693,-87.5751 -68.0555,-80.9676 -156.3748,-107.5393 -254.2282,-61.7008 -61.9506,31.3929 -91.1998,85.2258 -91.2214,167.8927 0,31.0826 2.3112,43.3331 12.2448,64.6741 22.8832,49.1624 41.2847,66.0985 97.3795,89.6246 23.1817,9.7225 33.4747,11.0947 74.8127,9.9727 42.8187,-1.1618 51.499,-2.9892 81.3626,-17.1299 z m -98.1392,-18.8957 c -25.0945,-2.8178 -54.3354,-5.3454 -76.9128,-19.6799 -56.4622,-35.8477 -66.1973,-125.5679 -16.7186,-199.6633 27.2536,-40.8128 60.4048,-52.304 105.3657,-52.3982 25.9908,-0.054 38.5591,2.4428 54.3891,10.8061 29.962,15.8292 54.7521,39.9794 70.7492,68.9219 11.8148,21.377 14.0383,30.7598 13.9743,58.9744 -0.05,22.8337 -2.9144,39.3338 -8.9597,51.6486 -11.0667,22.5439 -46.3374,57.7759 -68.2483,68.1732 -18.3029,8.6854 -55.1303,15.2954 -73.6389,13.2172 z m 27.3892,-31.4346 c -1.3179,-3.4343 -6.1254,-19.5357 -10.6838,-35.7813 -11.3622,-40.4949 -21.1509,-46.7192 -58.268,-37.0513 -15.1563,3.9476 -33.575,7.1777 -40.9299,7.1777 -17.0433,0 -16.9329,6.889 0.5518,34.4597 28.0928,40.2066 111.5016,44.0949 109.3299,31.1952 z m 33.9629,-5.3112 c 30.4086,-15.8861 58.4352,-58.0286 58.4614,-87.9051 0,-11.2044 -1.5997,-20.3424 -3.5769,-20.3071 -11.2734,0.2013 -74.8429,23.5933 -81.088,29.8388 -6.691,6.6909 -6.5953,11.2086 0.9814,46.2752 4.6177,21.373 9.2699,38.8599 10.3373,38.8599 1.068,0 7.7661,-3.0427 14.8848,-6.7617 z m -119.4151,-89.2672 c 31.0999,-9.4461 32.2894,-10.3901 38.1639,-30.286 5.1387,-17.4024 4.8453,-25.3864 -1.9225,-52.3291 -7.8,-31.051 -8.2318,-31.6327 -18.4874,-24.9127 -21.7297,14.2378 -48.59,60.957 -55.1095,95.855 -2.4927,13.3416 -2.2562,21.423 0.6263,21.423 2.5459,0 19.074,-4.3873 36.7292,-9.7502 z m 129.962,-28.1574 c 9.2271,-2.3655 22.7384,-5.6376 30.025,-7.2712 12.7628,-2.8612 12.9964,-3.4497 6.376,-16.0431 -21.3357,-64.3492 -97.2329,-75.6004 -116.6855,-62.2045 1.2248,3.2955 5.107,17.3481 8.6275,31.2282 5.13,20.2277 10.5235,28.2811 10.5235,28.2811 28.6747,-0.8232 29.0669,19.0741 30.6045,23.0803 3.2308,8.4197 7.512,8.8306 30.529,2.9292 z m 182.7865,-196.6253 c 5.4424,-22.88082 -5.0149,-21.75992 -16.527,-24.83212 -7.4186,-1.9794 -16.2582,-5.8982 -19.6439,-8.7081 -6.6701,-5.5358 -12.9314,0 -28.6963,25.27902 -7.3693,11.8259 -10.9509,13.412 -26.8586,11.895 -21.061,-2.0085 -21.0268,1.695 0.097,10.4444 13.1219,5.4352 15.8214,4.9951 25.5762,-4.1691 15.569,-14.626 35.1007,-13.1823 50.385,3.7244 16.608,21.9791 13.027,6.2958 15.6686,-13.6335 z m 88.9502,-5.9126 c -3.8714,-6.1603 -9.7344,-19.68602 -13.0288,-30.05702 -5.7696,-18.1613 -5.4802,-19.2812 7.8538,-30.3899 14.9611,-12.4641 60.3775,-34.6359 70.9485,-34.6359 3.5759,0 14.8992,8.652 25.1632,19.2269 23.1015,25.3709 17.2155,21.1631 36.5009,-4.6688 21.0826,-27.3317 22.224,-24.2939 -3.7301,-38.5245 -23.8147,-13.0091 -25.1628,-17.7116 -13.9128,-48.5282 4.2111,-11.5355 7.5878,-27.0128 7.5037,-34.3932 -0.1941,-17.0041 16.2758,-24.1538 45.5329,-19.7665 l 20.7921,3.1179 v -33.6365 c -0.6963,-36.0221 9.1732,-37.1221 -24.6757,-24.2605 -33.6315,12.779 -48.434,10.5415 -52.2698,-7.9006 -1.6447,-7.9089 -8.7656,-22.8193 -15.8239,-33.1343 -13.2977,-19.4335 -13.3347,-28.5403 -0.2013,-49.3805 3.6801,-5.8389 6.6909,-11.5873 6.6909,-12.774 0,-3.0625 -48.5167,-41.3192 -52.4007,-41.3192 -1.7687,0 -7.8575,10.9869 -13.531,24.4154 -12.5259,35.4103 -15.7919,23.9845 -52.4787,21.0988 -48.5494,-3.8186 -54.1471,-7.9215 -54.1471,-39.69 1.1576,-27.849 0.5835,-21.1818 -25.1646,-17.7253 -42.6807,12.284 -66.4904,1.7565 -46.7343,40.6607 5.2727,10.3355 9.5866,22.0082 9.5866,25.94 0,3.9318 -15.3806,20.0951 -34.1789,35.9186 -29.7098,22.2416 -21.4346,35.2715 -52.4007,19.4735 -10.022,-5.1128 -19.6173,-11.5542 -21.3231,-14.314 -2.7077,-4.3808 -30.7817,30.9787 -31.0147,39.063 -0.047,1.6645 9.1646,5.3558 20.4729,8.203 11.3083,2.8475 25.632,10.5759 31.8311,17.1745 9.7628,10.3919 10.8625,15.0675 8.2173,34.9364 -3.7445,28.1243 -14.8622,38.4037 -46.0063,42.535 -33.8529,4.4909 -35.05,6.0356 -25.9084,33.4234 4.3459,13.0201 8.6235,24.5276 9.5064,25.5726 0.8826,1.0447 10.2302,-3.8085 20.7724,-10.7848 19.0295,-12.5931 43.3396,-17.0426 43.3396,-7.933 0,2.6135 7.5494,14.6422 16.7765,26.7302 9.2272,12.088 16.7766,24.4277 16.7766,27.4212 0,2.9939 -8.675,14.282 -19.2776,25.0856 -24.3806,23.3376 -21.3274,17.4466 0.595,40.9241 20.709,20.60192 16.0705,30.07892 28.1754,2.0685 18.4003,-40.3694 31.2426,-43.712 45.9959,-37.3835 17.0925,4.0447 15.9533,4.4747 34.2573,10.7187 32.6069,9.7298 27.7739,6.5533 26.8187,38.96932 l -0.8704,29.5231 32.9675,-1.8629 c 16.4649,-3.3239 45.0886,2.1415 32.0026,-19.1373 z m -94.417,-89.97472 c -52.4442,-15.953 -92.0824,-71.8411 -89.7835,-118.3989 2.9666,-60.0759 43.7293,-111.7184 90.6919,-133.7935 67.1163,-31.5482 143.5826,6.3066 167.2794,84.3231 28.2969,93.1616 -33.4057,173.6057 -131.8788,171.9359 -13.3621,-0.2265 -29.7011,-2.0567 -36.309,-4.0666 z m -2.3655,-38.1338 c -36.0677,-16.6464 -50.3292,-40.8799 -50.3292,-85.5202 0,-29.6342 -3.4767,-30.7727 -9.7007,-3.1776 -4.5803,20.3086 2.2609,41.5627 21.4946,66.7794 11.5696,15.1682 37.1674,30.7562 50.5184,30.7634 3.9544,0 -1.438,-3.9782 -11.9831,-8.845 z m 106.4083,-5.9356 c 45.3661,-27.9669 54.5454,-103.5255 19.0859,-157.1082 -17.7694,-26.8517 -53.1606,-43.277 -82.6694,-38.852 -23.3222,3.4975 -51.6727,18.1505 -70.0378,44.9494 -9.8254,14.3374 -9.4263,14.1972 8.8001,-3.0909 19.8347,-18.8135 59.7793,-37.0136 81.2353,-37.0136 21.9594,0 39.3007,14.8662 57.3028,49.1239 21.4187,40.7598 26.2395,75.5755 14.0282,101.3085 -7.9057,16.6604 -35.8079,40.0861 -60.8179,51.0611 -9.747,4.2773 -9.3584,4.5038 3.3566,1.9568 7.9089,-1.5843 21.2814,-7.1349 29.7162,-12.335 z m -33.6473,-24.7192 10.4491,-5.8217 -12.8455,-15.0477 c -12.3432,-14.4589 -39.2086,-25.852 -39.2086,-16.6274 0,2.4514 -9.7064,9.1556 -21.5697,14.8986 -11.8633,5.7429 -21.5697,11.259 -21.5697,12.2577 0,0.9986 5.9317,5.034 13.1816,8.9672 15.9123,8.6326 57.1147,9.4231 71.5628,1.3733 z m -56.1667,-70.5307 c 0.1006,-3.9545 -7.1773,-13.0619 -16.1719,-20.2385 l -16.3538,-13.0486 -5.2159,14.9622 c -5.6261,16.1388 -6.9839,43.7185 -2.3791,48.3233 4.4833,4.4832 39.9187,-22.0123 40.1207,-29.9984 z m 96.0473,24.6814 c 0,-17.9855 -10.5134,-39.585 -18.5291,-38.0669 -13.073,2.4766 -12.9716,28.0241 0.151,38.1191 14.2863,10.9894 18.3777,10.9779 18.3777,-0.05 z m -67.1058,-24.6814 c 0,-2.6366 -2.157,-4.7935 -4.7932,-4.7935 -2.6361,0 -4.7931,2.1569 -4.7931,4.7935 0,2.6361 2.157,4.7931 4.7931,4.7931 2.6362,0 4.7932,-2.157 4.7932,-4.7931 z m 38.5227,-52.3964 c -10.0515,-18.7811 -55.1875,-26.5523 -73.5116,-12.6564 -8.075,6.1237 -7.6414,7.2431 6.7836,17.5146 10.5699,7.5264 21.0607,10.6393 33.4021,9.9113 9.8955,-0.5842 19.5008,1.3794 21.3447,4.3628 2.3856,3.8596 5.3978,3.3793 10.4433,-1.6662 5.6415,-5.6416 5.9557,-9.211 1.5379,-17.4661 z m -209.5473,266.0423 c -17.3776,-20.1439 -18.5481,-20.7116 -23.0073,-11.1526 -3.0687,6.5784 -3.0687,10.6238 0,11.6641 2.584,0.8761 11.1691,5.73722 19.078,10.80212 22.6442,14.5024 23.6648,11.5636 3.9293,-11.31362 z" fill="#00B894" transform="translate(-1.3483849,40.061344) matrix(0.26458333,0,0,0.26458333,-2005.6891,-158.61875)"/>
</svg>