<?xml version="1.0" ?><svg height="48.152443mm" viewBox="0 0 80.722847 48.152443" width="80.722847mm" xmlns="http://www.w3.org/2000/svg">
    <path d="m 18295.518,-3479.4076 c -2.245,-0.014 -4.483,0.037 -6.713,0.1563 -61.389,3.2877 -95.702,33.0369 -122.336,65.4726 -35.645,1.4044 -61.64,3.082 -68.123,5.0586 -25.562,7.7936 -29.347,45.9376 -18.416,105.6641 0,0 1.116,38.5199 61.277,43.7656 8.064,0.7031 19.99,1.0628 34.352,1.1816 20.816,33.4409 59.461,56.9834 129.566,60.1797 63.017,2.8731 100.638,-29.0036 122.385,-68.3164 38.388,-2.0838 69.628,-4.1336 82.322,-5.5605 44.669,-5.0209 56.893,-38.2185 56.032,-80.709 -0.86,-42.4905 -29.091,-66.471 -72.383,-66.8457 -8.637,-0.075 -34.446,0.1068 -60.975,0.3261 -28.744,-24.3512 -84.522,-60.0482 -136.988,-60.373 z" fill="#FFFFFF" transform="translate(-76.04674,-147.74525) matrix(0.15589207,0,0,0.15589207,-2739.6538,691.92239)"/>
    <path d="m 18294.664,-3490.7221 c -39.054,0.5843 -76.167,14.5887 -107.359,41.9538 -14.553,12.7678 -18.74,14.4499 -41.22,16.5107 -28.408,2.6041 -58.92,15.68 -70.278,30.1207 -11.442,14.5487 -15.549,35.8501 -13.4,69.5014 2.187,34.1919 5.932,46.5774 19.458,64.3125 12.169,15.9502 34.918,25.6242 66.477,28.2699 24.092,2.0198 26.36,2.9834 38.358,16.2628 14.385,15.9252 38.509,29.3018 66.358,36.8019 25.425,6.8461 78.918,6.8556 105.18,0.027 29.065,-7.57 43.401,-17.2837 54.73,-37.0762 5.286,-9.2323 10.157,-17.4878 10.821,-18.3404 0.664,-0.8524 18.627,-2.6975 39.918,-4.1025 53.059,-3.5015 67.174,-8.2868 89.108,-30.2211 20.562,-20.5616 26.886,-36.7986 26.856,-68.9372 -0.05,-60.6867 -22.593,-79.1927 -107.975,-88.6537 -34.453,-3.8179 -39.591,-5.3966 -58.026,-17.8499 -38.96,-26.3159 -79.952,-39.1529 -119.006,-38.5686 z m 2.511,24.9371 c 30.482,-0.073 107.469,24.7087 93.462,30.084 -6.855,2.6302 -185.335,3.1429 -185.335,0.5324 0,-3.4267 38.15,-21.0371 55.802,-25.7598 9.9,-2.6483 26.13,-4.8323 36.071,-4.8566 z m 127.565,58.765 c 7.176,0.1188 15.778,0.4066 26.264,0.8492 58.156,2.4542 86.494,8.6275 94.286,20.5341 13.195,20.1599 11.199,60.9287 -4.133,84.5774 -14.996,23.1271 -30.35,29.5826 -79.38,33.3797 -41.319,3.1999 -79.164,3.3965 -120.176,0.7962 -21.812,-1.8907 -23.832,3.7831 -11.782,-15.1921 10.362,-16.3166 10.848,-30.8699 12.36,-44.8278 4.315,-39.7804 13.864,-63.1853 44.076,-75.8084 8.254,-3.4489 16.953,-4.6622 38.485,-4.3083 z m -188.527,13.7844 c 1.102,0.043 2.266,0.3107 3.502,0.7857 7.042,2.702 6.467,12.6182 -4.055,69.9285 -9.822,53.5156 -21.802,60.3458 -41.827,23.8456 l -9.671,-17.6285 -3.828,10.072 c -5.057,13.5084 -4.172,34.9972 -20.93,34.6875 -1.485,-0.027 -5.322,-1.6445 -8.526,-3.5174 -7.231,-4.2248 -11.1,-14.0962 -22.766,-58.0585 -10.775,-40.6095 -11.199,-47.3735 -3.391,-53.8555 4.976,-4.1297 6.747,-3.6651 12.325,3.2218 3.583,4.4246 10.046,18.6512 14.358,31.6132 4.315,12.9622 8.629,22.7804 9.588,21.8206 0.961,-0.9598 4.438,-7.1347 7.729,-13.7263 10.003,-20.0319 19.064,-16.0423 38.59,16.9905 3.078,5.2059 5.073,0.2751 10.373,-25.6647 6.129,-29.9968 10.819,-40.8223 18.529,-40.5145 z m 165.804,7.1715 c -17.525,0.135 -25.255,1.418 -29.251,4.3401 -5.245,3.8357 -6.026,6.3361 -3.123,10.0031 2.13,2.6894 4.9,22.541 6.161,44.1161 1.258,21.575 4.109,41.4211 6.331,44.1003 11.893,14.3286 26.972,-1.4674 23.303,-24.4099 -2.209,-13.8121 -2.133,-13.9215 9.73,-13.9215 14.885,0 25.331,-7.2773 23.587,-16.4367 -1.072,-5.6261 -4.874,-7.168 -19.807,-8.0363 -16.618,-0.9665 -18.653,-2.0082 -20.244,-10.3252 l -1.771,-9.2439 23.881,2.2517 c 31.446,2.9707 45.483,-0.8753 45.483,-12.466 0,-8.7137 -0.135,-8.7439 -43.266,-9.745 -8.241,-0.1917 -15.174,-0.2716 -21.014,-0.2268 z m -128.521,14.4331 c 0.562,0 1.126,0.046 1.693,0.1269 5.33,0.7614 7.514,3.6892 7.514,10.0717 0,7.1464 -2.041,9.2345 -9.919,10.1406 -6.496,0.7473 -10.678,-0.8205 -12.107,-4.5456 -2.637,-6.8726 3.494,-14.7061 11.154,-15.688 0.545,-0.07 1.104,-0.108 1.665,-0.1053 z m 202.742,15.0074 c -2.16,-0.1215 -4.655,0.9569 -7.115,3.4173 -3.013,3.0142 -4.384,7.2584 -3.042,9.4286 4.238,6.8602 16.415,4.6033 16.415,-3.0428 0,-6.0583 -2.662,-9.6003 -6.258,-9.8031 z m -206.376,17.001 c 3.915,-0.135 7.541,1.8711 8.735,6.0907 6.026,21.3385 6.296,37.5649 0.758,46.0142 -6.785,10.3569 -10.246,10.9794 -17.997,3.2275 -6.539,-6.5384 -7.776,-37.6623 -1.931,-48.5826 2.325,-4.3412 6.523,-6.6142 10.435,-6.7498 z m 201.486,7.6621 c -1.353,0.1377 -2.77,1.033 -4.641,2.5838 -5.845,4.8523 -7.932,26.6248 -3.626,37.8462 3.032,7.905 14.793,7.1347 19.288,-1.2655 5.683,-10.6163 4.466,-23.7254 -3.062,-33.0211 -3.636,-4.4911 -5.705,-6.3726 -7.959,-6.1434 z m -62.651,88.4218 -14.01,11.2637 c -7.706,6.195 -22.285,13.7601 -32.399,16.811 -42.712,12.8839 -101.244,8.6823 -135.786,-9.7448 l -15.8,-8.4266 37.799,-2.3309 c 20.789,-1.2813 65.34,-3.5096 99,-4.9516 z" fill="#00B894" transform="translate(-76.04674,-147.74525) matrix(0.15589207,0,0,0.15589207,-2739.6538,691.92239)"/>
</svg>