<?xml version="1.0" ?><svg height="48.153423mm" viewBox="0 0 80.723022 48.153423" width="80.723022mm" xmlns="http://www.w3.org/2000/svg">
    <path d="m 21612.883,-1437.9668 c -2.245,-0.014 -4.483,0.037 -6.713,0.1563 -61.389,3.2877 -95.702,33.0369 -122.336,65.4726 -35.645,1.4044 -61.64,3.082 -68.123,5.0586 -25.562,7.7936 -29.347,45.9376 -18.416,105.6641 0,0 1.116,38.5199 61.277,43.7656 8.064,0.7031 19.99,1.0628 34.352,1.1816 20.816,33.4409 59.461,56.9834 129.566,60.1797 63.017,2.8731 100.638,-29.0036 122.385,-68.3164 38.388,-2.0838 69.628,-4.1336 82.322,-5.5605 44.669,-5.0209 56.893,-38.2185 56.032,-80.709 -0.86,-42.4905 -29.091,-66.471 -72.383,-66.8457 -8.637,-0.075 -34.446,0.1068 -60.975,0.3261 -28.744,-24.3512 -84.522,-60.0482 -136.988,-60.373 z" fill="#FFFFFF" transform="translate(-23.423818,-193.98904) matrix(0.15589207,0,0,0.15589207,-2792.692,800.2488) translate(-3313.5291,-2437.8203)"/>
    <path d="m 18255.72,-3585.2203 c -27.849,-7.5001 -51.97,-20.8783 -66.358,-36.8035 -11.998,-13.2794 -14.264,-14.2403 -38.357,-16.2601 -31.557,-2.6459 -54.309,-12.3218 -66.475,-28.2721 -13.526,-17.7351 -17.274,-30.1176 -19.458,-64.3095 -2.152,-33.6513 1.957,-54.9562 13.4,-69.5049 11.358,-14.4405 41.867,-27.5169 70.275,-30.1209 22.48,-2.0606 26.67,-3.7389 41.223,-16.5067 62.381,-54.7306 148.448,-56.0181 226.365,-3.3862 18.437,12.4535 23.57,14.0327 58.023,17.8506 85.382,9.4608 107.921,27.9643 107.978,88.6511 0.03,32.1383 -6.297,48.3755 -26.856,68.9371 -21.934,21.9341 -36.047,26.7204 -89.105,30.2217 -21.292,1.405 -39.257,3.2523 -39.924,4.1049 -0.664,0.8526 -5.532,9.1038 -10.818,18.3361 -11.329,19.7927 -25.668,29.507 -54.733,37.0772 -26.262,6.8403 -79.755,6.8324 -105.18,-0.027 z m 109.233,-28.478 c 10.114,-3.0509 24.693,-10.6155 32.399,-16.8104 l 14.01,-11.2635 -61.199,2.6219 c -33.657,1.4423 -78.205,3.6705 -98.995,4.9516 l -37.798,2.3297 15.797,8.4278 c 34.545,18.4271 93.073,22.6268 135.786,9.7429 z m -68.116,-52.1902 c 15.822,-9.6484 18.905,-16.9803 22.382,-53.2575 3.418,-35.6541 10.903,-57.705 26.322,-77.5623 l 10.594,-13.6447 -107.38,1.8175 c -61.304,1.0376 -113.259,3.5123 -121.075,5.7673 -7.53,2.1723 -18.87,8.5881 -25.198,14.2571 -11.369,10.184 -11.504,10.6938 -11.224,42.4916 0.243,26.4353 1.842,35.3247 8.999,49.7681 11.885,23.98 23.481,28.9489 77.112,33.046 77.09,5.8891 106.492,5.2287 119.468,-2.6831 z m -143.295,-7.4032 c -7.23,-4.2248 -11.102,-14.0978 -22.765,-58.0598 -10.778,-40.6097 -11.202,-47.3725 -3.391,-53.8544 4.976,-4.1298 6.75,-3.6662 12.325,3.2207 3.583,4.4246 10.044,18.6502 14.358,31.6121 4.312,12.9622 8.626,22.7823 9.587,21.8225 0.959,-0.9598 4.439,-7.138 7.73,-13.7295 10.003,-20.032 19.064,-16.0423 38.593,16.9902 3.077,5.2059 5.07,0.2751 10.37,-25.6647 7.003,-34.2821 12.131,-43.5249 22.031,-39.7251 7.041,2.7024 6.469,12.618 -4.052,69.9286 -9.825,53.5156 -21.808,60.3455 -41.83,23.8455 l -9.671,-17.6292 -3.829,10.0684 c -2.106,5.5375 -3.828,12.3929 -3.828,15.234 0,5.4376 -12.484,19.6426 -17.099,19.4555 -1.484,-0.059 -5.324,-1.6418 -8.529,-3.5148 z m 110.483,-9.2326 c -6.539,-6.538 -7.776,-37.6574 -1.93,-48.5777 4.646,-8.6826 16.782,-9.1024 19.166,-0.6634 6.027,21.3387 6.294,37.5673 0.759,46.0169 -6.788,10.3566 -10.243,10.9762 -17.995,3.2242 z m -0.68,-71.545 c -3.016,-7.8542 5.421,-16.9664 14.506,-15.6683 5.33,0.7614 7.514,3.6908 7.514,10.0733 0,7.1464 -2.041,9.2345 -9.919,10.1406 -6.499,0.7476 -10.673,-0.8205 -12.101,-4.5456 z m 201.097,88.1565 c 49.03,-3.7972 64.384,-10.2532 79.38,-33.3803 15.332,-23.6487 17.325,-64.4159 4.133,-84.5761 -7.795,-11.9063 -36.133,-18.0772 -94.289,-20.5314 -41.945,-1.77 -53.741,-1.1401 -64.749,3.4583 -30.209,12.6232 -43.951,36.2573 -44.073,75.8047 -0.05,14.0397 -2.33,32.9984 -5.076,42.1306 l -4.997,16.6041 20.295,1.2868 c 41.011,2.6003 68.056,2.4035 109.376,-0.7967 z m -79.639,-15.8255 c -2.225,-2.6791 -5.073,-22.5234 -6.334,-44.0983 -1.258,-21.5752 -4.031,-41.4279 -6.162,-44.117 -2.905,-3.667 -2.124,-6.1679 3.122,-10.0037 5.329,-3.8962 17.301,-4.8752 50.264,-4.1103 43.133,1.0011 43.266,1.0308 43.266,9.7448 0,11.5906 -14.034,15.4377 -45.48,12.4668 l -23.881,-2.2561 1.769,9.2488 c 1.59,8.3171 3.631,9.3573 20.246,10.3236 14.936,0.8686 18.735,2.4102 19.807,8.0366 1.741,9.1591 -8.702,16.4372 -23.589,16.4372 -11.861,0 -11.937,0.108 -9.728,13.9199 3.669,22.9424 -11.41,38.7363 -23.3,24.4077 z m 80.943,-8.023 c -4.307,-11.2214 -2.22,-32.9945 3.626,-37.8467 4.984,-4.1355 6.782,-3.6279 12.6,3.5579 7.527,9.2958 8.742,22.4038 3.059,33.0201 -4.495,8.4002 -16.253,9.1737 -19.285,1.2687 z m 2.999,-52.2491 c -1.339,-2.1699 0.03,-6.4115 3.043,-9.4256 6.561,-6.5611 13.37,-3.3098 13.37,6.3836 0,7.6461 -12.171,9.9022 -16.413,3.042 z m -75.446,-91.9249 c 14.007,-5.3753 -62.978,-30.1547 -93.462,-30.0826 -9.939,0.027 -26.17,2.2096 -36.071,4.8579 -17.652,4.7227 -55.796,22.3322 -55.796,25.759 0,2.6105 178.474,2.0959 185.329,-0.5343 z" fill="#00B894" transform="translate(-23.423818,-193.98904) matrix(0.15589207,0,0,0.15589207,-2792.692,800.2488)"/>
</svg>