<?xml version="1.0" ?><svg height="107.05598mm" viewBox="0 0 133.68839 107.05598" width="133.68839mm" xmlns="http://www.w3.org/2000/svg">
    <path d="m 16643.518,-3426.5116 336.043,2.5793 -0.05,81.0348 -337.397,-0.6097 z" fill="#FFFFFF" transform="translate(48.904582,-38.163317) matrix(0.26458333,0,0,0.26458333,-4413.0203,1017.9171)"/>
    <path d="m 16670.159,-3302.7905 c -2.354,-2.5619 -4.152,-7.9766 -3.99,-12.0324 0.216,-5.622 -3.71,-8.8457 -16.545,-13.5689 -13.125,-4.8288 -18.109,-9.0109 -22.601,-18.9638 -10.508,-23.2805 -2.39,-82.4461 12.284,-89.5199 2.797,-1.3475 12.741,-3.2288 22.099,-4.1808 l 17.018,-1.7304 2.578,-78.8244 c 2.262,-69.154 3.34,-79.5249 8.78,-84.534 15.244,-14.0408 19.391,6.4328 18.799,92.8389 -0.243,36.5872 0.135,67.159 0.848,67.9374 0.716,0.7783 44.011,0.6123 96.211,-0.3691 127.501,-2.3973 154.629,-1.0703 171.382,8.3824 17.498,9.8732 22.031,21.901 22.469,59.6257 0.361,31.1104 -0.567,22.2202 -0.484,37.5775 0.05,7.6329 -13.426,15.5849 -27.633,14.543 -3.602,-0.2645 -5.805,2.9408 -6.04,8.4966 -0.929,22.1463 -27.774,25.7541 -36.235,4.8699 l -4.895,-12.0872 -27.061,0.8658 c -14.882,0.476 -64.358,1.0478 -109.946,1.2709 -45.588,0.2241 -82.898,0.6703 -82.911,0.9943 0,0.324 -2.708,5.3407 -5.986,11.1479 -6.501,11.5148 -20.829,15.2118 -28.141,7.2606 z m 281.287,-51.9037 c 23.365,-1.2803 17.7,-8.015 19.474,-30.4568 1.088,-13.7863 0.826,-26.8425 -0.583,-29.014 -1.806,-2.783 -44.57,-3.8517 -144.898,-3.6208 -78.284,0.1809 -150.026,0.1134 -159.427,-0.1512 -16.799,-0.2457 -17.206,2.1839 -18.13,24.1625 -0.569,13.5522 0.427,29.4721 2.211,35.3776 0.05,10.1074 10.176,7.6254 33.01,7.604 107.642,-0.1 187.794,0.5111 268.343,-3.9021 z m -276.848,-11.3488 c -6.853,-0.4771 -8.767,-20.6345 -5.84,-30.4455 1.239,-4.1519 7.646,-6.3439 22.007,-7.5292 22.841,-1.8848 29.48,3.0817 28.708,21.4778 -0.686,16.2877 2.014,19.7595 -44.875,16.4969 z m 113.004,-5.5969 c -10.162,-1.2341 -3.95,-11.7219 -5.108,-22.0247 -0.975,-8.6529 2.851,-6.7544 18.573,-8.9337 15.359,-2.1289 20.446,-2.4686 24.355,3.3802 6.758,10.102 6.345,26.1756 -2.832,27.535 -11.464,1.6985 -19.01,1.9834 -34.988,0.043 z m -53.898,-5.3156 c -7.352,-9.6554 1.396,-22.0485 17.169,-24.3274 16.871,-2.4375 24.021,3.5549 21.942,18.3895 -1.458,10.4014 -2.522,11.0734 -18.092,11.4309 -11.685,0.2673 -17.86,-1.3459 -21.019,-5.493 z m 189.455,-8.3267 c -3.094,-5.5127 1.752,-10.7354 9.658,-10.4036 4.581,0.1917 6.876,2.7636 6.679,7.4863 -0.321,7.6289 -12.473,9.799 -16.337,2.9173 z m -408.142,-127.9015 c -20.052,-24.1201 -27.123,-86.0828 -14.19,-124.381 13.032,-38.6018 46.638,-73.3304 58.485,-60.4435 4.166,4.5299 2.978,7.6375 -8.453,22.0955 -30.188,38.1831 -37.872,85.1303 -21.189,129.4595 4.814,12.7919 8.11,26.7118 7.327,30.9336 -1.844,9.9335 -14.539,11.2829 -21.98,2.3359 z m 310.073,2.8792 c -3.674,-4.8274 -2.516,-10.6848 6.901,-34.8401 22.059,-56.588 20.12,-84.7283 -6.86,-126.9019 -16.124,-25.206 -16.645,-31.5146 -2.549,-30.9228 21.421,0.8994 53.096,55.1985 56.128,96.2194 2.455,33.2064 -14.809,80.1534 -31.883,95.8523 -8.923,8.2039 -15.8,8.3915 -21.737,0.5931 z m -246.719,-44.5087 c -17.739,-11.3744 -19.548,-63.7431 -3.205,-92.7082 12.101,-21.4448 33.535,-34.9286 39.275,-24.706 1.091,1.9434 -3.448,12.6971 -10.081,23.8974 -15.468,31.2511 -14.183,50.7061 -8.672,86.2622 1.636,9.9794 0.904,11.7308 -4.763,11.4 -3.685,-0.2159 -9.333,-2.0802 -12.554,-4.1454 z m 198.999,-4.7926 c 0.162,-3.593 2.187,-15.6713 4.503,-26.8416 5.135,-24.7867 2.057,-40.3611 -11.715,-59.2694 -5.57,-7.6434 -9.182,-15.286 -8.032,-16.9834 7.309,-10.7894 32.839,7.8886 43.968,32.1704 7.803,17.0242 6.166,47.3247 -3.534,65.437 -6.755,12.6153 -25.701,16.7416 -25.19,5.487 z m -142.288,-9.8711 c -12.168,-8.8838 -14.509,-37.6269 -4.493,-55.152 6.675,-11.6792 18.616,-18.6798 26.238,-15.3821 4.482,1.9396 4.377,3.5933 -0.815,12.6749 -3.71,6.4919 -6.372,20.0395 -7.034,35.7999 -1.055,25.1553 -3.766,29.457 -13.896,22.0593 z m 99.853,-0.918 c 0,0 -7.011,-5.605 -0.05,-16.924 4.104,-6.6869 4.876,-15.2923 2.789,-21.532 -9.271,-27.7251 -1.655,-23.1836 -0.108,-24.0494 9.469,-5.3164 22.485,12.2586 21.643,31.8629 -1.315,30.6315 -14.793,37.615 -24.259,30.6425 z" fill="#00B894" transform="translate(48.904582,-38.163317) matrix(0.26458333,0,0,0.26458333,-4413.0203,1017.9171)"/>
</svg>