<?xml version="1.0" ?><svg height="114.75819mm" viewBox="0 0 101.27917 114.75819" width="101.27917mm" xmlns="http://www.w3.org/2000/svg">
    <path color="#000" d="m 13115.575,4027.0689 c -53.5,0.4627 -86.461,48.0477 -114.276,90.0653 -46.712,84.7272 107.744,188.5954 168.981,87.4684 51.723,-85.4186 43.833,-154.6955 -26.724,-173.7449 -9.922,-2.6787 -19.226,-3.8645 -27.981,-3.7888 z m -17.303,275.1902 c -8.018,-0.045 -17.147,0.4183 -27.565,1.2417 -83.345,6.588 -84.315,93.4217 -88.195,139.0608 0,0 183.976,30.0821 180.801,-13.652 -7.342,-101.132 -8.926,-126.3414 -65.041,-126.6505 z" fill="#FFFFFF" overflow="visible" paint-order="fill markers stroke" transform="translate(-153.77274,56.051757) matrix(0.26458333,0,0,0.26458333,-3240.0752,-1119.3902)"/>
    <path d="m 13117.373,4018.918 c -30.691,0.1258 -62.467,13.0944 -87.103,39.5791 -10.046,10.8002 -17.098,23.0469 -23.902,33.0573 -1.879,2.9286 -5.047,10.3857 -7.84,11.2262 -6.186,0.7684 -11.647,-6.4723 -21.572,-0.9181 -7.401,4.1415 -2.42,16.7734 10.218,18.2151 2.887,0.076 2.971,0.3083 1.349,3.769 -3.435,13.8536 -4.663,46.8819 2.199,61.4996 0.821,1.7258 1.624,3.9601 1.78,4.9641 12.561,33.4037 30.575,50.8899 58.626,59.7465 16.35,4.5337 30.741,5.4027 45.12,3.1238 81.713,-4.8919 123.907,-92.0157 111.564,-172.9858 -0.498,-0.9633 -0.771,-1.8854 -0.609,-2.0484 -7.313,-20.6235 -17.024,-34.4392 -30.41,-41.7888 -15.753,-11.2742 -37.024,-17.5316 -59.42,-17.4396 z m 3.555,18.3849 c 28.264,-0.1592 54.989,11.1874 64.074,40.3627 3.785,7.551 5.611,18.6862 5.761,26.6782 0.82,28.0487 -6.261,65.9046 -35.448,96.7882 -0.267,0 -1.391,1.3977 -2.498,3.1055 -13.054,17.7523 -44.049,34.4258 -80.745,30.1326 -10.059,-1.9014 -21.837,-4.4319 -32.26,-12.581 -14.343,-9.0688 -25.481,-27.655 -30.227,-46.7156 -0.434,-1.8767 -1.047,-4.08 -1.365,-4.8967 -1.451,-3.7308 -2.456,-10.8449 -2.442,-17.3063 -0.397,-5.9988 0.534,-11.4607 0.751,-16.5809 0.109,-2.6822 0.595,-5.1606 1.287,-6.4982 0.804,-1.0719 0.738,-3.2375 1.844,-3.7316 1.551,0 5.151,0.7564 8.819,1.9765 10.123,3.3679 17.199,-7.0258 11.607,-12.0803 -2.508,-2.4115 -7.151,-5.793 -10.628,-6.321 -1.533,0.9471 -0.278,-2.9385 2.209,-6.8418 8.076,-10.6723 15.27,-24.6711 23.175,-33.4945 15.611,-17.4231 45.998,-31.8262 76.086,-31.9958 z m -198.131,8.146 c -6.173,7.5457 -8.69,25.4423 -9.751,33.9626 -1.307,8.9945 -1.409,17.0854 -1.871,26.421 -4.826,14.394 -10.93,7.225 -14.772,-0.8889 -0.253,-3.3793 -3.379,-7.1026 -4.079,-9.6947 -0.833,-3.1962 -1.881,-5.857 -3.845,-9.7564 -0.668,-1.3255 -1.155,-3.0006 -1.085,-3.7225 -6.46,-15.2519 -9.466,-36.5639 -16.45,-33.2656 -11.769,5.7411 0.458,41.9084 8.043,57.1308 0.465,0.8811 1.114,2.6965 1.44,4.0335 0.327,1.3371 0.961,3.3508 1.413,4.4752 0.705,1.75 0.69,2.1282 -0.109,2.6274 -1.717,0.1429 -12.833,-4.7492 -14.77,-6.3765 -2.609,-2.4931 -2.926,-3.3596 -5.665,-3.2772 -6.358,-0.1781 -16.526,5.4626 -16.781,10.1726 0,1.5157 2.439,7.5354 3.616,8.924 0.818,0.9654 0.798,1.219 -0.17,2.2893 -4.549,3.3846 -20.637,8.6696 -20.819,15.0723 0,1.907 0.733,2.9203 6.05,8.3714 3.327,3.4113 7.395,7.1058 9.038,8.2095 1.646,1.1039 4.164,3.1666 5.596,4.5843 2.792,2.7628 6.879,5.9901 7.585,5.9901 2.352,3.4068 27.35,16.8498 24.651,22.5311 -0.253,0.4042 -0.479,1.0139 -0.502,1.3552 -1.415,3.5442 -2.711,8.1389 -4.334,11.2278 -0.852,1.6045 -1.55,3.3645 -1.55,3.9107 -23.801,42.0416 -35.755,120.4308 -17.295,176.5765 18.196,56.1996 100.224,-12.7036 133.804,-38.4957 0.22,0.2206 -0.08,1.7511 -0.664,3.4008 -0.586,1.6495 -1.07,3.6596 -1.07,4.4669 0,0.8073 -0.357,2.1661 -0.789,3.0193 -4.362,25.6474 -8.549,52.5112 -13.12,75.9738 -1.846,16.287 19.945,14.539 20.461,-0.9007 2.377,-9.5956 1.819,-21.2798 3.276,-30.2991 2.291,-13.6989 3.391,-21.1674 3.424,-23.2136 0.02,-1.2796 0.275,-2.3267 0.569,-2.3267 0.292,0 0.381,-0.2428 0.199,-0.539 -0.183,-0.2961 -0.09,-2.3199 0.226,-4.4977 2.772,-17.0444 4.744,-31.0977 16.178,-42.6547 8.001,-10.6928 23.915,-14.3152 34.111,-16.9636 20.76,-0.7115 30.455,-4.9492 47.365,-4.947 30.538,-1.5484 36.648,10.2507 46.346,39.5101 0.928,2.054 3.323,12.8818 4.047,18.3032 2.933,16.5548 1.848,31.5212 1.823,46.3583 v 9.4428 c 1.563,19.6559 25.285,6.5245 23.267,-11.5677 -1.417,-21.45 -1.188,-47.6209 -8.928,-66.0757 -3.099,-16.3821 -11.168,-29.2109 -17.992,-37.5642 -11.216,-14.3485 -26.587,-16.2422 -43.191,-16.2701 -9.87,-2.1071 -22.273,2.484 -31.1,2.4536 -31.534,7.087 -71.84,14.3228 -94.03,36.6357 -27.112,20.1713 -55.505,44.6824 -85.871,56.9228 -0.482,-0.1711 -1.575,0.035 -2.429,0.4589 -18.412,2.9972 -20.81,-16.4089 -23.009,-27.6189 -4.44,-26.3286 -6.97,-69.4009 11.06,-121.7896 0.309,-0.4105 0.918,-2.0025 1.353,-3.5381 0.434,-1.5356 1.3,-3.7699 1.923,-4.9642 3.684,-7.9546 6.909,-15.886 9.148,-23.868 0.847,-3.0432 1.678,-4.6768 2.798,-5.5148 4.647,0.8489 8.312,-0.6985 12.392,-0.7335 20.061,-3.1387 38.958,-25.1577 31.719,-40.2699 -2.784,-5.8935 -3.638,-14.0736 -7.599,-17.836 -2.496,-2.1906 -2.342,-1.1767 -2.574,-16.9419 0.08,-9.0635 0.01,-15.6524 0.303,-23.8861 0.02,-30.8681 10.471,-34.3554 5.622,-52.6829 -3.55,-3.4647 -11.331,-3.8771 -12.64,-1.8703 z m 125.081,28.1423 c -7.106,1.5236 -11,13.1823 -11.009,16.6746 0.01,1.5385 0.553,2.4291 2.441,3.9962 3.83,3.1792 9.036,2.6335 10.587,-1.1098 6.048,-13.4308 16.851,13.8587 21.225,14.4026 5.965,0.3187 6.787,-0.5785 9.167,-3.1883 3.598,-3.7514 5.4,-5.013 1.19,-11.6887 -8.897,-14.4755 -17.065,-24.4718 -33.601,-19.0866 z m 104.582,4.2651 c -11.634,-1.0546 -13.693,4.0951 -23.002,9.473 -18.608,20.4584 8.673,30.1635 11.99,16.549 3.079,-10.9768 15.077,-12.279 15.042,1.279 0.209,2.4246 1.989,7.5881 3.681,8.1414 5.305,3.8876 9.079,6.8202 13.63,-0.1141 2.159,-2.5063 3.186,-5.0552 3.047,-7.5518 -0.276,-4.5316 -2.922,-10.7835 -6.434,-15.2022 -5.581,-7.793 -9.748,-12.8501 -17.954,-12.5747 z m -139.334,77.1072 c -4.211,4.0251 -4.497,7.0511 -1.89,14.1926 1.506,4.0076 5.793,12.3177 7.074,13.7135 5.953,9.3996 11.597,18.495 19.168,26.2593 0,0.3035 2.584,2.1351 5.74,4.0697 27.53,18.9233 77.676,2.6974 101.869,-16.4101 44.38,-32.3654 26.585,-39.1921 -9.269,-34.8593 -32.21,4.1229 -46.35,2.7153 -77.494,0.557 -4.691,-0.671 -18.122,-3.6251 -25.189,-5.1091 -6.573,-1.3807 -12.134,-9.9413 -20.009,-2.4136 z m 9.784,15.3541 c 0.482,0.06 2.286,0.5872 4.361,1.2842 3.966,1.3319 4.33,1.6 4.503,3.3264 0.109,1.0327 -0.04,2.7948 -0.339,3.9163 -0.607,2.3421 -1.823,3.051 -2.448,1.4249 -0.235,-0.6116 -1.05,-1.6818 -1.811,-2.3784 -1.284,-1.173 -4.769,-7.187 -4.387,-7.5689 0.01,-0.012 0.05,-0.013 0.121,0 z m 130.237,2.8946 c 1.555,0 1.583,0.061 0.68,1.4397 -3.253,2.6944 -11.862,8.3857 -13.378,6.91 -1.019,-3.2867 -0.243,-4.785 -0.331,-7.0134 5.792,-0.43 7.203,-0.7061 13.029,-1.3363 z m -97.054,2.6921 c 2.513,0.1164 2.389,-0.8975 1.577,12.6837 -0.42,7.0113 -1.203,6.4839 -1.032,12.926 -0.402,6.1893 8.108,6.6973 8.815,-1.0984 1.131,-10.3098 3.314,-16.6391 2.133,-22.0846 -0.402,-1.9108 -0.33,-2.0159 1.382,-2.0159 13.06,1.8072 22.248,0.368 30.566,-0.3036 -0.319,9.1628 -0.205,15.0289 0.173,21.1715 l 0.332,5.6685 -7.444,3.0808 c -11.066,3.6084 -34.892,10.4637 -53.002,-10.8859 0.345,-5.5623 1.338,-14.8183 3.706,-19.6634 1.497,-1.6087 12.438,0.504 12.794,0.5213 z m 71.504,-0.5644 c 0.679,0.019 1.116,0.082 1.127,0.2 0.841,2.9027 0.09,7.827 0.932,11.4556 -1.028,4.7248 -12.233,10.733 -19.152,13.0886 l -2.361,0.3598 0.345,-2.6029 c 1.137,-8.5779 0.574,-19.2382 0.433,-21.7189 4.254,-0.6139 15.062,-0.8149 18.676,-0.7822 z" fill="#00B894" transform="translate(-153.77274,56.051757) matrix(0.26458333,0,0,0.26458333,-3240.0752,-1119.3902)"/>
</svg>