<?xml version="1.0" ?><svg height="182.37061mm" viewBox="0 0 173.97502 182.37061" width="173.97502mm" xmlns="http://www.w3.org/2000/svg">
    <path d="m 7008.8008,15494.826 c -9.8791,0.243 -20.388,3.62 -26.8203,9.754 -10.2919,9.813 9.3341,9.263 27.5898,7.168 18.2557,-2.095 1.7159,16.319 -12.6191,28.117 -14.335,11.798 -2.5741,22.604 2.9394,36.608 5.5135,14.004 -9.5563,18.965 -26.3418,28.888 -16.7855,9.924 -29.2821,15.218 -32.2226,43.666 6.8612,62.19 66.7735,61.968 88.705,47.744 21.9315,-14.224 9.9253,-39.584 -9.8007,-52.044 -19.726,-12.46 -9.1896,-18.413 6.7383,-32.748 15.9278,-14.334 13.4401,-24.014 1.9589,-41.571 -11.0839,-16.949 -1.3745,-25.012 8.3047,-35.818 9.6792,-10.806 -0.463,-30.892 -12.3476,-36.736 -4.4568,-2.192 -10.1566,-3.174 -16.084,-3.028 z m -380.9512,106.108 c -26.8538,0.203 -54.928,8.695 -79.2734,26 -32.2233,27.566 -52.8063,100.783 -36.7559,152.828 16.0504,52.045 83.191,90.969 174.2246,48.627 91.0336,-42.342 66.2852,-131.877 32.5918,-182.93 -19.479,-29.515 -53.9874,-44.804 -90.7871,-44.525 z m -21.9805,282.328 c -25.4281,-0.129 -65.8236,12.918 -84.707,48.849 -20.8368,39.648 -20.242,122.16 -5.1601,176.631 0,0 29.1719,18.933 87.9121,16.432 93.7864,-3.993 110.498,-21.086 110.498,-21.086 0,0 -20.0998,-45.173 -27.4219,-112.639 -7.3221,-67.466 -49.5396,-104.7 -73.75,-107.736 -2.2697,-0.285 -4.7406,-0.438 -7.3711,-0.451 z" fill="#FFFFFF" transform="translate(130.0768,-78.903946) matrix(0.26458333,0,0,0.26458333,-960.68132,-3360.2313) translate(-3313.5291,-2437.8203)"/>
    <path d="m 3387.6219,13665.293 c -12.9902,-15.174 -24.7259,-59.008 -24.8615,-81.726 l -0.064,-10.817 -50.4828,-23.813 c -53.8885,-25.42 -68.5197,-35.519 -68.5197,-47.298 0,-9.783 7.3152,-8.23 44.3765,9.422 32.8113,15.628 69.7619,31.906 72.4239,31.906 0.7631,0 0.6882,-6.701 -0.1662,-14.891 -2.6193,-25.109 -18.5119,-51.699 -37.6336,-62.965 -9.8382,-5.797 -13.5313,-6.55 -32.5893,-6.634 -19.6321,-0.09 -22.8874,0.593 -37.5832,7.826 -18.5932,9.155 -30.3682,22.82 -42.2601,49.047 -9.4684,20.882 -10.1898,41.061 -8.8732,104.155 0.6769,32.44 13.1412,60.242 -5.0153,48.756 -6.657,-4.211 -14.5638,-60.093 -14.6078,-103.945 -0.026,-25.089 4.4374,-42.85 16.6747,-66.37 16.199,-31.137 30.1933,-44.327 58.358,-55.003 20.2082,-7.658 52.5567,-8.008 68.4611,-0.738 17.1056,7.818 27.9632,17.125 37.9155,32.509 12.54,19.382 18.8353,37.596 20.6965,59.882 l 1.5891,19.032 15.4871,4.317 c 34.9593,6.507 76.2146,5.916 101.4294,-6.408 33.1389,-16.234 65.2138,-53.022 98.4369,-112.896 6.7519,-12.168 14.9998,-28.927 18.3284,-37.242 10.1415,-25.332 12.002,-26.288 52.7293,-27.091 27.0378,-0.532 37.5948,-1.712 47.977,-5.361 16.2853,-5.723 23.8677,-5.929 25.8734,-0.702 0.839,2.186 -0.2171,7.011 -2.3467,10.722 -2.1297,3.71 -2.8673,6.745 -1.6397,6.745 1.2279,0 10.3735,-4.02 20.3235,-8.934 17.4272,-8.607 18.2121,-8.769 21.3908,-4.436 4.2978,5.861 1.3691,11.344 -9.7153,18.196 -11.0606,6.835 -9.3352,8.149 4.1442,3.151 15.8001,-5.855 24.6447,-0.09 14.8601,9.706 -2.049,2.048 -3.0522,4.816 -2.2287,6.146 3.2191,5.21 -1.8209,11.758 -12.0604,15.667 -8.824,3.371 -16.1386,3.857 -42.776,2.84 -17.6724,-0.676 -32.1318,-0.903 -32.1318,-0.505 0,0.396 5.7568,2.392 12.7928,4.439 16.1434,4.692 21.2104,9.911 14.5177,14.951 -10.5372,7.935 -55.5111,-5.209 -79.2178,-23.152 l -11.9738,-9.062 -15.4654,31.363 c -43.452,88.118 -88.8169,132.404 -145.7939,142.327 -19.9678,3.476 -64.17,1.459 -81.1992,-3.706 -6.4582,-1.96 -12.6118,-3.573 -13.6749,-3.588 -2.8155,-0.04 0.3287,18.758 8.3654,50.01 3.8756,15.07 7.9216,30.885 8.991,35.143 1.5243,12.372 -11.188,1.425 -13.262,-0.975 z m -124.2416,-252.213 c -30.9405,-6.722 -56.7162,-26.4 -68.846,-52.559 -7.2229,-15.576 -10.4069,-32.753 -10.4069,-56.142 0,-10.306 -0.9372,-18.737 -2.083,-18.737 -1.1456,0 -6.6413,1.608 -12.2127,3.574 -15.1895,5.36 -23.0182,4.641 -27.7282,-2.547 -3.764,-5.746 -3.7588,-6.926 0.083,-19.109 5.6682,-17.981 21.6262,-40.354 38.9091,-54.549 8.0027,-6.575 14.6396,-12.756 14.7486,-13.739 0.109,-0.982 -3.8886,-1.786 -8.8832,-1.786 -17.5454,0 -25.7698,-16.174 -13.2371,-26.032 8.5768,-6.747 41.8209,-16.932 57.2646,-17.546 13.3681,-0.528 13.9141,-0.86 10.4534,-6.329 -6.4277,-10.16 13.3133,-21.193 42.8823,-23.967 28.1457,-2.64 42.7238,1.09 65.499,16.76 11.5871,7.971 34.447,30.334 34.447,33.697 0,1.109 5.4007,5.339 12.0016,9.401 18.9945,11.687 35.917,44.315 44.1471,67.484 4.1046,11.555 1.9653,16.21 5.3886,15.207 11.8641,-3.475 15.8548,8.523 9.9809,12.83 -2.3946,1.756 -6.3101,4.337 -8.3122,5.106 -2.3007,0.882 -3.64,4.449 -3.64,9.692 0,27.643 -13.5476,58.227 -35.5671,80.296 -35.2338,35.313 -91.7828,50.532 -144.8874,38.995 z m 64.8965,-19.039 c 36.5701,-7.678 69.7105,-31.217 84.012,-59.677 5.7248,-11.392 12.4847,-33.482 12.4847,-40.796 0,-0.757 -3.2047,-0.732 -7.1218,0.05 -15.1638,3.032 -20.1309,-7.365 -6.9957,-14.64 15.3751,-8.517 15.0773,-7.958 11.7763,-22.138 -8.1137,-34.853 -37.1883,-69.324 -63.1812,-74.906 -43.6014,-9.366 -69.8716,-6.334 -102.3064,11.805 -15.1362,8.465 -34.5702,27.185 -43.6663,42.062 -9.596,15.694 -13.1385,35.996 -11.801,67.631 0.6668,15.769 2.4269,32.617 3.9113,37.442 6.6131,21.49 29.5674,43.942 51.0217,49.904 23.9324,6.649 50.0795,7.835 71.8664,3.262 z m -15.8849,-24.311 c -9.5785,-1.466 -19.1266,-11.394 -18.2228,-18.944 0.6163,-5.148 2.6732,-6.845 11.4727,-9.463 34.5212,-10.27 63.0595,8.07 38.3655,24.656 -7.8251,5.256 -15.6943,6.19 -31.6154,3.751 z m 21.8415,-14.992 c 0,-1.316 -6.1308,-2.365 -13.7001,-2.345 -9.7245,0.02 -12.6629,0.706 -10.1262,2.345 4.7189,3.049 23.8263,3.049 23.8263,0 z m 7.7437,-87.325 c -4.7848,-1.974 -3.844,-21.433 1.1285,-23.342 5.8115,-2.229 10.5493,5.266 9.6993,15.342 -0.6901,8.184 -4.1643,10.75 -10.8278,8 z m 37.704,-18.234 c -4.8766,-12.828 -3.9768,-18.337 2.9937,-18.337 11.2277,0 15.5002,21.845 4.5762,23.395 -3.8726,0.551 -5.9703,-0.851 -7.5699,-5.058 z m 347.289,32.935 c 12.9885,-13.884 19.3989,-25.877 19.4457,-36.38 0.021,-5.031 4.1369,-3.299 5.6594,2.382 2.7923,10.419 1.4254,17.653 -5.3572,28.348 -7.4131,11.689 -20.2695,21.092 -28.8393,21.092 -4.6136,0 -3.3577,-2.134 9.0914,-15.442 z m -81.0337,-20.332 c -7.6686,-5.767 -10.1938,-8.246 -12.6352,-6.972 -9.5681,4.994 -12.3541,-4.752 -8.2978,-8.808 1.7064,-1.706 1.7064,-4.482 0,-8.971 -1.3592,-3.574 -2.4712,-13.411 -2.4712,-21.856 0,-28.036 13.8188,-46.615 44.3084,-59.573 17.5604,-7.464 18.9243,-11.179 9.3008,-25.342 -3.2763,-4.822 -5.9567,-11.445 -5.9567,-14.717 0,-7.896 9.3655,-18.441 19.3519,-21.788 5.3339,-1.789 8.3053,-4.439 8.8098,-7.859 0.9295,-6.299 -3.6192,-6.718 -13.211,-1.211 -12.8018,7.347 -26.8043,-1.516 -23.458,-14.849 1.4712,-5.863 14.4434,-14.431 16.5892,-10.959 0.6627,1.071 -0.8848,3.737 -3.4387,5.924 -8.7816,7.519 -4.5202,12.894 5.9263,7.475 8.0852,-4.196 18.4342,-4.471 22.3108,-0.594 1.5725,1.573 2.8591,6.768 2.8591,11.544 0,9.21 -4.3497,14.791 -13.7633,17.661 -2.9836,0.91 -7.1589,4.301 -9.2788,7.537 -3.6659,5.595 -3.5607,6.197 2.1549,12.327 8.0706,8.658 11.3568,15.495 11.3568,23.63 0,10.266 -6.0285,16.841 -22.6279,24.684 -30.604,14.46 -43.1425,35.349 -32.5551,62.969 1.8713,4.882 2.8436,3.786 7.4266,2.909 4.9224,-0.94 10.7676,6.621 5.0024,10.178 -4.2773,2.639 5.7399,7.142 15.0637,10.318 14.7369,5.02 25.4256,3.503 36.7259,-2.262 21.2811,-10.856 16.8352,-33.201 -7.3086,-43.549 -11.654,-4.996 -15.3221,-12.175 -11.4393,-22.388 2.4198,-6.363 13.3407,-15.965 18.1612,-15.965 5.0373,0 15.3775,-14.207 15.3775,-21.129 0,-4.12 -3.0274,-9.678 -8.3391,-15.311 -8.6884,-9.209 -10.9537,-19.558 -5.4803,-25.031 4.7474,-4.746 6.6714,-3.272 6.6714,5.111 0,5.073 1.8205,9.617 5.0093,12.503 17.5811,15.911 13.0116,42.212 -9.1875,52.881 -15.4269,7.414 -16.095,17.048 -1.1895,17.149 2.9447,0.02 9.6358,3.906 14.8687,8.633 23.2742,21.026 16.5302,52.398 -14.5922,64.041 -24.4034,7.028 -48.9234,1.526 -62.0445,-8.34 z m 34.5252,-15.754 c -0.9006,-2.346 -0.4235,-4.573 1.0881,-5.076 5.4842,-1.828 13.606,-5.99 14.844,-13.856 0.9201,-5.846 6.9891,-3.673 8.6042,2.763 2.181,8.688 -5.6335,18.628 -15.4084,19.601 -5.434,0.539 -7.9697,-0.413 -9.1279,-3.432 z m -14.1271,-16.238 c -0.7249,-1.888 -0.9446,-5.373 -0.4883,-7.745 1.1283,-5.857 12.3099,-5.879 13.4376,-0.02 2.633,12.138 -9.521,15.305 -12.9493,7.765 z m -18.5363,-4.081 c -4.0843,-5.831 -1.3801,-13.928 4.6517,-13.928 5.4622,0 9.6225,10.908 5.8804,15.416 -4.0715,4.906 -6.2706,4.594 -10.5321,-1.488 z m 71.942,-138.081 c -1.3157,-18.19 -8.3386,-25.952 -23.4792,-25.952 -10.7607,0 -13.088,-4.539 -3.4549,-7.207 13.3645,-3.7 23.8802,1.169 31.9689,11.053 6.6193,8.416 6.9052,27.024 0.5044,32.819 -4.3205,3.91 -4.5077,3.546 -5.5392,-10.713 z m 18.8136,-14.504 c -11.3211,-19.917 -21.7365,-29.302 -34.8519,-31.398 -13.0568,-2.09 -21.6039,-10.522 -21.6039,-21.317 0,-14.436 13.4871,-26.215 23.7363,-20.73 5.6165,3.006 6.4184,13.276 1.5384,19.705 -4.766,6.278 -8.9552,5.239 -7.192,-1.786 1.8504,-7.375 -2.7919,-8.081 -5.1097,-0.778 -2.0698,6.521 3.0447,10.565 16.1657,12.782 18.6004,3.143 39.0602,31.418 37.1585,51.351 0.4787,17.886 -6.0271,-1.118 -9.8414,-7.829 z" fill="#00B894" transform="translate(130.0768,-78.903946) matrix(0.26458333,0,0,0.26458333,-960.68132,-3360.2313)"/>
</svg>