<?xml version="1.0" ?><svg height="171.52827mm" viewBox="0 0 149.50662 171.52827" width="149.50662mm" xmlns="http://www.w3.org/2000/svg">
    <path d="m 27623.041,27096.695 c -2.558,-0.01 -5.126,0.803 -7.049,2.633 -6.985,9.208 -7.332,14.931 -1.176,18.662 4.097,2.483 10.323,2.496 16.668,-8.172 4.561,-7.667 -1.906,-13.093 -8.443,-13.123 z m -159.484,22.459 c -5.484,-0.128 -11.067,3.727 -14.553,9.567 -5.312,8.897 7.772,15.494 20.266,17.353 13.182,-12.217 9.787,-15.759 2.507,-23.152 -2.502,-2.541 -5.348,-3.701 -8.22,-3.768 z m 128.031,65.741 c -8.91,0.283 -17.885,4.945 -16.225,16.025 3.394,16.157 18.152,18.99 33.153,10.225 15.002,-8.764 -5.707,-25.941 -15.151,-26.25 -0.59,-0.02 -1.183,-0.02 -1.777,0 z m -80.65,13.876 c -1.5,0.02 -3,0.133 -4.485,0.333 -15.839,2.125 -32.019,14.652 -30.199,34.66 0.03,9.283 4.473,18.325 12.818,24.033 -17.988,1.843 -29.398,3.488 -29.398,3.488 0,0 -39.956,-45.898 -78.709,-30.539 -38.752,15.36 -24.338,49.529 -24.338,49.529 0,0 -70.837,18.595 -75.053,50.399 -4.217,31.804 53.209,34.154 53.209,34.154 0,0 -61.441,65.233 -57.826,143.838 3.614,78.606 81.117,116.916 81.117,116.916 0,0 40.395,60.064 63.651,74.629 v 0 c 23.287,14.564 64.252,22.227 138.142,29.455 73.891,7.228 115.455,-14.456 145.764,-44.07 30.309,-29.613 26.312,-48.452 26.312,-48.452 0,0 83.93,-82.941 83.93,-140.586 0,-57.644 -67.465,-133.357 -67.465,-133.357 0,0 33.13,-26.927 32.729,-46.262 -0.402,-19.336 -18.015,-36.284 -103.752,-55.619 -43.833,-9.886 -99.721,-9.668 -143.91,-7.099 7.405,-9.436 8.035,-23.856 7.361,-33.873 -0.936,-13.921 -15.406,-21.806 -29.898,-21.581 z" fill="#FFFFFF" transform="translate(-36.371691,-106.24781) matrix(0.26432488,-0.01169187,0.01169187,0.26432488,-6587.7455,-6125.8882) translate(-3313.5291,-2437.8203)"/>
    <path d="m 24225.042,25297.213 c -27.569,-3.634 -42.241,-8.805 -42.699,-15.05 -0.157,-2.159 3.973,-2.926 12.336,-2.291 6.913,0.524 36.007,0.1 64.651,-0.948 46.116,-1.684 52.117,-1.337 52.436,3.029 0.962,13.14 -43.486,20.96 -86.724,15.26 z m 167.059,-49.437 c 7.919,-10.387 17.536,-35.394 16.908,-43.964 -0.336,-4.589 -1.259,-8.295 -2.049,-8.237 -0.789,0.06 -6.883,4.93 -13.539,10.827 -13.423,11.893 -59.901,35.732 -71.29,36.567 -14.818,1.083 -7.289,-8.181 21.478,-26.433 16.16,-10.254 35.849,-25.035 43.752,-32.849 16.465,-16.275 24.793,-18.24 33.538,-7.91 l 6.139,7.249 12.084,-16.674 c 28.764,-39.685 46.113,-78.114 46.879,-103.849 0.595,-20.471 -8.575,-47.457 -24.125,-70.887 -6.692,-10.082 -16.246,-25.486 -21.232,-34.228 -4.984,-8.743 -10.235,-16.49 -11.662,-17.214 -1.427,-0.723 -11.022,1.115 -21.321,4.085 -19.011,5.487 -71.705,10.789 -83.957,8.448 -6.889,-1.318 -9.425,-7.481 -4.533,-11.023 1.51,-1.094 14.851,-4.216 29.644,-6.936 40.717,-7.49 65.407,-15.24 84.908,-26.658 18.621,-10.902 27.339,-23.622 23.229,-33.894 -2.601,-6.507 -25.795,-21.231 -44.731,-28.399 -7.487,-2.834 -25.521,-9.583 -40.074,-14.999 -28.041,-10.432 -35.434,-17.665 -15.844,-15.497 6.116,0.677 25.402,4.708 42.856,8.958 35.726,8.7 66.461,23.859 74.313,36.655 11.764,19.176 6.047,42.039 -14.701,58.786 -9.884,7.979 -10.658,9.529 -6.69,13.402 2.467,2.41 13.991,16.53 25.607,31.379 49.451,63.22 52.597,116.04 10.761,180.64 -14.308,22.096 -39.145,46.235 -51.287,49.849 -6.729,2.003 -7.925,3.896 -7.359,11.669 1.455,19.882 -12.176,38.65 -32.063,44.176 -9.698,2.693 -9.918,2.573 -5.639,-3.039 z m -307.162,0.05 c -13.883,-11.618 -23.249,-22.459 -29.935,-34.649 -5.352,-9.759 -11.119,-17.091 -12.814,-16.293 -11.545,5.428 -56.529,-32.86 -71.216,-60.614 -20.505,-38.751 -23.018,-65.313 -10.352,-109.387 9.629,-33.504 19.396,-53.649 35.023,-72.241 l 12.211,-14.526 -16.18,-7.247 c -27.457,-12.296 -39.768,-37.225 -27.422,-55.526 8.362,-12.399 37.524,-29.059 56.273,-32.154 l 16.57,-2.733 -1.337,-16.956 c -1.071,-13.605 -0.146,-18.432 4.686,-24.399 9.31,-11.499 32.901,-20.856 55.951,-22.191 17.443,-1.009 21.339,-0.178 31.169,6.654 31.306,21.756 36.599,71.749 8.889,83.963 -10.726,4.731 -11.772,2.078 -5.449,-13.799 5.112,-12.821 5.189,-15.207 0.904,-27.633 -5.757,-16.723 -15.529,-25.657 -30.519,-27.903 -13.516,-2.027 -33.355,2.658 -43.217,10.205 -9.625,7.366 -8.322,25.277 3.151,43.513 9.971,15.826 6.206,17.601 -9.168,4.325 -6.045,-5.222 -12.132,-9.408 -13.523,-9.306 -6.489,0.474 -30.388,12.376 -42.748,21.287 -17.448,12.578 -20.824,19.538 -13.88,28.613 7.839,10.245 24.322,15.798 63.519,21.397 49.945,7.134 60.427,9.292 64.201,13.217 4.774,4.966 1.368,13.079 -5.901,14.056 -14.586,1.952 -36.983,1.514 -56.396,-1.104 l -20.797,-2.806 -11.622,15.001 c -13.844,17.864 -20.628,33.116 -30.861,69.36 -9.304,32.952 -8.684,64.699 1.737,88.864 9.269,21.496 41.826,56.509 51.864,55.773 0.673,-0.04 0.916,-4.369 0.539,-9.6 -0.382,-5.23 1.612,-13.981 4.416,-19.446 8.427,-16.401 22.624,-12.895 24.002,5.928 1.06,14.48 13.944,31.45 38.221,50.344 l 21.086,16.409 2.094,-16.556 c 2.429,-19.229 14.264,-48.886 21.589,-54.103 4.034,-2.874 5.993,-2.517 9.691,1.768 2.549,2.954 4.856,8.43 5.13,12.17 0.273,3.739 5.917,17.838 12.542,31.329 6.622,13.492 13.19,28.88 14.597,34.191 2.986,11.3 3.116,11.332 12.863,3.259 4.109,-3.407 19.201,-11.913 33.536,-18.903 31.258,-15.245 43.029,-28.275 48.422,-53.596 6.491,-30.479 17.299,-25.618 25.524,11.482 7.591,34.213 4.134,53.444 -12.522,69.676 -15.158,14.776 -19.917,3.189 -7.08,-17.238 5.792,-9.221 7.955,-17.003 8.298,-29.87 0.382,-14.302 -0.08,-16.313 -2.607,-11.295 -10.102,20.106 -26.594,33.589 -55.323,45.235 -19.806,8.027 -36.587,17.854 -44.127,25.84 -5.813,6.156 -5.886,6.163 -11.792,0.687 -3.266,-3.031 -12.744,-19.312 -21.062,-36.182 -8.315,-16.869 -16.226,-31.755 -17.58,-33.076 -1.353,-1.324 -5.095,9.209 -8.314,23.407 -5.306,23.399 -6.533,25.861 -13.135,26.345 -10.388,0.759 -23.86,-5.685 -41.298,-19.759 -8.328,-6.718 -15.054,-11.029 -14.948,-9.578 0.345,4.705 14.004,24.772 24.553,36.068 5.658,6.057 12.892,14.464 16.081,18.681 5.647,7.47 5.643,7.676 -0.123,8.097 -3.286,0.242 -14.877,-7.071 -26.114,-16.473 z m 268.971,-63.314 c -7.82,-3.819 -6.911,-7.57 3.596,-14.853 5.145,-3.566 10.636,-9.942 12.201,-14.169 3.964,-10.715 1.793,-37.597 -2.883,-35.741 -6.093,2.417 -12.378,21.682 -11.408,34.979 1.439,19.677 -6.099,14.525 -8.684,-5.94 -1.786,-14.144 -0.992,-18.908 5.109,-30.693 3.971,-7.672 9.051,-17.543 11.289,-21.938 2.236,-4.394 5.814,-8.118 7.951,-8.274 5.016,-0.366 17.13,32.767 18.331,50.14 1.215,17.742 -6.307,37.176 -16.94,43.699 -9.897,6.074 -11.382,6.295 -18.56,2.79 z m -111.254,-263.986 c -90.511,-2.134 -190.105,-14.28 -211.486,-25.789 -8.343,-4.488 -9.437,-12.522 -2.676,-19.605 5.512,-5.773 14.656,-7.618 14.992,-3.024 0.123,1.608 -1.103,3.021 -2.712,3.14 -1.611,0.123 -2.801,1.918 -2.649,3.998 0.164,2.231 7.3,4.792 17.372,6.237 9.402,1.348 25.792,3.72 36.423,5.274 52.783,7.702 137.721,11.106 210.954,8.452 57.907,-2.098 80.013,-5.762 90.061,-14.929 9.384,-8.56 5.458,-12.51 -15.924,-16.012 -9.093,-1.489 -18.906,-4.216 -21.808,-6.056 -4.916,-3.123 -4.968,-3.707 -0.773,-8.643 3.522,-4.142 7.376,-5.078 17.702,-4.292 17.07,1.296 38.657,10.505 41.698,17.787 7.061,16.911 -8.473,36.884 -35.004,45.001 -17.625,5.393 -86.027,9.644 -136.174,8.461 z m -3.879,-32.559 c -9.569,-22.093 -18.775,-27.589 -34.883,-20.819 -7.047,2.962 -7.825,4.518 -5.838,11.684 2.607,9.404 0.789,10.321 -8.946,4.514 -18.104,-10.803 -0.586,-36.564 26.2,-38.523 16.936,-1.241 27.321,5.225 35.103,21.847 4.335,9.256 5.115,14.121 3.263,20.322 -3.139,10.507 -10.56,10.992 -14.899,0.973 z m 38.32,-26.093 c -4.812,-4.158 -2.854,-18.049 3.598,-25.519 12.402,-14.363 35.976,-14.296 39.12,0.111 1.288,5.908 0.223,6.574 -11.958,7.467 -13.024,0.953 -24.561,8.865 -24.005,16.465 0.246,3.328 -3.628,4.175 -6.755,1.476 z m -171.428,-10.988 c -1.149,-0.993 -2.605,-8.831 -3.234,-17.414 -0.853,-11.649 -0.07,-15.684 3.082,-15.914 5.871,-0.43 14.174,10.521 14.837,19.572 0.803,10.964 -8.175,19.375 -14.685,13.756 z m 57.189,-37.331 c -1.894,-2.993 -3.942,-12.242 -4.549,-20.554 -0.967,-13.21 0.02,-16.428 7.87,-25.511 10.648,-12.33 28.706,-19.52 42.65,-16.98 13.048,2.376 24.067,16.573 25.234,32.506 1.845,25.224 -13.933,31.799 -16.7,6.96 -2.05,-18.435 -8.888,-25.153 -22.055,-21.671 -22.971,6.075 -30.368,16.799 -26.658,38.655 2.14,12.609 -0.264,15.337 -5.792,6.595 z m 103.742,-30.587 c -6.766,-4.705 -13.168,-20.691 -11.907,-29.726 0.851,-6.098 14.842,-13.377 26.735,-13.907 21.238,-0.949 33.525,26.268 18.177,40.269 -8.874,8.096 -23.987,9.639 -33.005,3.364 z m 18.973,-13.552 c 2.069,-1.535 3.111,-5.231 2.316,-8.216 -1.053,-3.949 -4.444,-5.454 -12.462,-5.532 -9.374,-0.09 -10.951,0.77 -10.584,5.777 0.665,9.092 12.883,13.788 20.73,7.971 z m -143.616,-52.93 c -22.071,-7.74 -15.462,-38.727 8.636,-40.491 11.25,-0.823 19.098,3.073 24.667,12.256 5.554,9.149 3.586,18.311 -5.528,25.742 -7.688,6.27 -15.109,6.935 -27.775,2.493 z m 16.725,-17.373 c 1.465,-2.813 -10.303,-14.13 -14.382,-13.833 -3.993,0.294 -4.974,9.985 -1.39,13.714 4.155,4.318 13.546,4.389 15.772,0.119 z m 138.344,-17.882 c -3.472,-3.613 -3.384,-6.075 0.523,-14.816 5.692,-12.713 15.798,-16.939 24.424,-10.211 7.818,6.1 8.348,13.895 1.481,21.848 -6.487,7.511 -20.628,9.213 -26.43,3.179 z m 14.132,-12.575 c -0.549,-4.326 -7.034,-3.049 -8.218,1.617 -0.641,2.521 0.773,3.521 3.781,2.665 2.643,-0.752 4.64,-2.68 4.437,-4.282 z" fill="#00B894" transform="translate(-36.371691,-106.24781) matrix(0.26432488,-0.01169187,0.01169187,0.26432488,-6587.7455,-6125.8882)"/>
</svg>