<?xml version="1.0" ?><svg height="68.687096mm" viewBox="0 0 199.27841 68.687096" width="199.27841mm" xmlns="http://www.w3.org/2000/svg">
    <path d="m 1448.3876,17923.274 c 0,0 -66.2582,-10.195 -107.1943,-52.205 -40.9361,-42.01 -75.8045,-52.275 -82.5192,-75.21 -6.7149,-22.937 11.1645,-40.628 49.188,-34.003 38.0235,6.627 176.0412,36.26 176.0412,36.26 0,0 62.7905,-36.739 121.9992,-38.59 62.5988,-1.957 112.253,27.099 134.5391,50.24 0,0 35.1919,-10.121 75.2382,-8.083 40.0461,2.038 136.4461,5.644 156.6712,3.605 20.2254,-2.038 29.691,18.64 3.4789,38.37 -26.2119,19.732 -152.58,81.401 -174.1805,89.846 -21.6007,8.445 -43.8487,5.897 -43.8487,5.897 0,0 -22.5777,49.136 -125.2699,51.722 -102.692,2.589 -142.4955,-23.675 -159.8893,-38.383 -17.3937,-14.707 -24.2539,-29.466 -24.2539,-29.466 z" fill="#FFFFFF" transform="translate(-30.323213,-125.11959) matrix(0.26458333,0,0,0.26458333,-299.38178,-4570.3551)"/>
    <path d="m 1618.7402,17746.781 c -50.6954,-1.303 -93.9499,9.569 -123.2168,31.27 -9.9992,7.412 -17.5754,10.534 -21.1894,8.73 -12.1438,-6.063 -167.9434,-36.858 -182.6055,-36.093 -31.0934,1.621 -49.0491,17.073 -45.0449,38.757 2.7815,15.064 9.9155,23.779 37.1777,45.416 13.0499,10.358 33.3656,29.559 45.1446,42.67 29.821,33.191 51.9488,45.773 86.4921,49.166 27.1169,2.665 27.1228,2.668 35.7305,17.119 4.7349,7.949 15.5143,18.999 22.75,25.92 54.5632,50.846 180.8685,38.43 229.0488,23.182 33.2932,-10.537 47.7662,-25.882 53.1289,-36.248 3.7106,-6.418 7.6125,-8.143 16.211,-7.178 15.0123,1.684 97.2166,-28.847 141.0547,-52.392 37.8864,-20.348 77.844,-52.562 82.9492,-66.877 9.5697,-26.831 -4.2552,-38.859 -41.4277,-36.047 -40.7472,3.082 -91.6208,2.46 -135.8243,-1.658 -32.1916,-3 -45.0201,-2.71 -56.705,1.277 l -15.1036,5.154 -14.0234,-14.881 c -19.4537,-20.645 -48.5515,-31.978 -92.3828,-35.978 -7.5268,-0.687 -14.9219,-1.123 -22.1641,-1.309 z m -328.4375,22.615 c 15.4917,0.442 38.0535,5.045 68.0352,12.723 17.6319,4.515 49.0061,10.94 69.7207,14.276 20.7142,3.335 38.1168,6.615 38.6719,7.291 2.4684,2.998 -9.9931,19.363 -13.336,17.513 -27.0185,-14.958 -54.0284,-22.816 -81.6933,-23.767 -30.5074,-1.052 -53.6327,4.664 -54.4864,13.466 -0.3728,3.843 3.2562,4.446 17.9707,2.991 20.8696,-2.06 65.5312,6.987 95.7618,19.402 26.486,10.879 16.0161,10.169 13.582,40.771 -1.6168,16.667 -2.6295,16.606 -3.3887,25.694 l -0.023,5.473 c 0.3619,8.996 -16.7885,2.844 -26.8067,1.027 -24.4431,-7.314 -43.5698,-20.856 -67.7324,-47.944 -12.3197,-13.813 -34.3459,-33.242 -48.9472,-43.181 -14.6016,-9.938 -28.4975,-18.365 -32.5997,-22.594 -7.8638,-8.11 -5.2105,-12.969 4.9454,-19.207 4.2801,-2.967 11.0311,-4.199 20.3261,-3.934 z m 318.2871,2.696 c 55.055,-0.671 89.7163,12.192 116.4258,42.205 14.2353,18.144 20.8855,22.297 21.8496,58.478 1.3734,20.201 1.969,42.185 1.3223,48.848 -1.2194,12.57 -14.811,30.756 -28.9648,38.754 -13.9389,7.876 -55.1471,17.309 -86.6915,19.846 -48.8415,3.93 -65.6836,3.041 -91.3886,-4.832 -32.2341,-9.87 -57.4226,-25.078 -72.6172,-43.848 -9.1754,-9.854 -11.8695,-20.371 -6.918,-49.59 12.0678,-71.206 47.7351,-103.325 122.1016,-108.756 8.7336,-0.637 17.0159,-1.009 24.8808,-1.105 z m 177.3418,35.32 c 10.5014,0.291 22.6944,1.61 34.9786,4.276 28.6647,6.215 41.6835,7.08 83.4238,5.546 82.2917,-3.027 76.9818,-3.313 76.2637,4.094 -0.8232,8.486 -21.9156,26.937 -71.5957,54.951 l -11.8067,6.659 c -11.5359,6.504 -81.8415,39.92 -115.6719,44.746 -17.4641,6.851 -7.8592,-7.699 -9.748,-28.178 0.7691,-18.724 -8.7422,-22.979 9.2012,-30.637 19.9131,-10.949 31.274,-11.593 61.9863,-12.111 16.1664,-0.272 30.2928,-1.238 31.3926,-2.143 1.0993,-0.904 0.074,-4.484 -2.2793,-7.953 -6.6073,-9.739 -70.9773,-9.053 -91.7891,-0.562 -19.3921,7.911 -10.7758,7.259 -18.0605,-13.354 -3.6328,-10.061 -7.5815,-18.127 -7.2891,-19.713 0.6901,-3.739 13.4919,-6.106 30.9941,-5.621 z m -104.8711,31.602 c -9.8185,0.484 -18.8454,3.507 -24.7304,9.343 -7.476,7.418 -2.7831,8.973 12.6875,4.202 20.2785,-6.252 47.3887,3.071 54.3769,18.699 5.7707,12.906 10.0236,14.445 11.0371,3.994 0.4006,-4.131 -3.4406,-12.577 -8.5371,-18.768 -9.9038,-12.033 -28.4698,-18.278 -44.834,-17.47 z m -135.4023,1.213 c -3.3034,0.09 -6.4831,0.446 -9.4336,1.113 -17.9486,4.052 -37.6977,21.821 -41.875,37.678 -4.5482,17.267 0.8318,16.784 11.8633,-1.065 4.8932,-7.916 14.3428,-16.905 21.0019,-19.973 16.2086,-7.472 48.2364,-5.098 60.129,4.456 7.5879,6.094 8.9953,6.353 9.4433,1.74 1.1651,-12.013 -28.0051,-24.57 -51.1289,-23.949 z m 131.2148,51.625 c -9.5376,-0.924 -15.1147,5.949 -12.5,15.408 2.7469,9.938 18.2985,7.794 20.6993,-3.401 1.795,-8.368 -0.6295,-11.271 -8.1993,-12.007 z m -89.1835,5.951 c -9.4771,-0.919 -15.1374,5.928 -12.5723,15.209 1.747,6.317 18.0236,9.218 22.0469,3.929 5.2371,-6.884 -0.3935,-18.258 -9.4746,-19.138 z m 71.4277,40.756 c -0.8152,0.02 -1.8029,0.217 -2.9785,0.57 -10.9064,3.27 -28.1094,5.899 -41.6856,6.371 -16.3178,0.564 -15.4352,0.248 -13.2363,4.723 2.8057,5.709 32.3616,7.552 47.2891,2.949 7.4518,-2.297 13.2992,-6.599 13.6308,-10.022 0.3119,-3.221 -0.5739,-4.665 -3.0195,-4.591 z" fill="#00B894" transform="translate(-30.323213,-125.11959) matrix(0.26458333,0,0,0.26458333,-299.38178,-4570.3551)"/>
</svg>