<?xml version="1.0" ?><svg height="87.756447mm" viewBox="0 0 193.61198 87.756447" width="193.61198mm" xmlns="http://www.w3.org/2000/svg">
    <path d="m 1989.3298,18995.603 c 6.1906,-17.067 5.7205,-17.841 27.1921,-17.419 21.4716,0.423 171.1464,8.393 171.1464,8.393 0,0 6.1908,-39.143 18.5723,-63.402 12.3815,-24.261 42.003,-82.303 118.0157,-90.906 76.013,-8.603 137.9204,50.706 157.1977,69.89 19.2776,19.182 19.8886,29.361 19.8886,29.361 0,0 143.6378,-51.586 166.2095,-59.664 22.5715,-8.08 34.5856,4.265 17.0967,18.092 -17.4885,13.825 -45.151,19.357 -54.9463,46.932 -9.7957,27.575 -22.8039,50.638 -61.6725,60.298 -38.8683,9.663 -65.8255,13.19 -65.8255,13.19 0,0 -29.2296,102.965 -120.21,118.127 -90.9803,15.162 -176.4286,-74.907 -176.4286,-74.907 0,0 -33.9637,10.753 -71.3433,8.99 -37.3796,-1.763 -68.9913,-28.617 -101.8257,-42.863 -32.8344,-14.244 -43.0671,-24.112 -43.0671,-24.112 z" fill="#FFFFFF" transform="translate(11.493219,-102.82787) matrix(0.26308978,0.02807323,-0.02807323,0.26308978,0.28763748,-4913.7917)"/>
    <path d="M 360.72656 0.0078125 C 354.37301 0.08303059 347.88947 0.76303379 340.0918 1.9863281 C 308.18325 6.9929804 288.67769 14.30044 273.33789 26.982422 C 264.79109 34.05148 259.06271 35.906029 252.04102 33.890625 C 241.50925 30.870117 237.94396 35.160541 245.02148 42.333984 C 247.7486 45.099955 247.96299 48.961486 245.56641 52.123047 C 242.25983 56.48684 238.61407 56.078755 223.42188 49.679688 C 200.46771 39.997515 196.56793 46.113359 217.78711 58.509766 C 230.57956 65.983277 232.04258 68.096484 228.49219 73.962891 C 226.23019 77.700986 223.79505 82.71197 223.07031 85.101562 C 222.27346 87.742923 216.96033 88.065422 209.54102 85.914062 C 194.58955 81.5812 191.9119 86.583315 205.42188 93.607422 C 217.42356 99.849077 216.1751 110.53347 203.86133 106.9668 C 194.3689 104.21609 174.22027 111.38917 177.0332 116.51758 C 178.05499 118.38353 185.21332 119.81101 192.94336 119.6875 C 200.67338 119.567 207.14554 119.8817 207.32617 120.38672 C 207.5051 120.89357 207.14319 126.76158 206.51562 133.43164 C 205.38443 145.44543 205.28083 145.50266 194.61914 140.12305 C 171.71417 128.56148 48.800889 112.49576 20.724609 117.39844 C 9.0789802 119.43127 5.9962483 121.88832 2.0214844 132.28125 C -4.0549053 148.17223 3.493367 158.60301 25.730469 165.04883 C 37.571589 168.48058 48.410217 176.01149 68.986328 195.10547 C 94.581963 218.85633 98.283118 221.12019 123.61719 228.50391 C 153.65971 237.26297 183.78327 231.38631 203.53125 224.13672 C 212.7889 220.75993 212.39454 218.76629 216.24805 225.49414 C 234.28384 256.98054 271.40283 300.32858 292.64062 314.70312 C 302.76289 321.1626 316.01346 322.58031 327.14258 326.96289 C 350.00469 332.89714 358.02372 333.0882 384.60742 328.33398 C 445.2866 317.47999 493.45129 283.80796 516.65039 236.01367 C 527.52437 213.61299 528.67542 212.43959 537.375 214.96289 C 542.44226 216.42983 556.79079 217.11368 569.25391 216.51367 C 616.03382 214.20415 636.28287 201.16867 652.20312 163.12109 C 664.71963 133.20929 665.44129 132.52286 694.92773 122.16602 C 726.21333 111.18253 733.82435 105.15258 731.32031 93.361328 C 730.07546 87.503176 726.42759 83.686083 719.44531 81.908203 L 719.44336 81.908203 C 706.11327 78.515683 680.63498 82.572624 636.52539 94.136719 C 543.64864 118.48058 529.69635 121.50057 525.34375 118.20312 C 518.96913 113.37048 520.42945 111.23214 533.88086 105.66797 C 548.92685 99.444269 546.07178 93.91272 527.9668 94.195312 C 517.85484 94.355301 512.98421 92.988427 510.48047 89.294922 C 505.04518 81.282992 507.19337 79.287092 528.09766 72.945312 C 543.01667 68.417715 546.46166 66.102869 542.61719 63.1875 C 537.46065 59.280317 516.56536 61.751968 503.60156 67.806641 C 497.56135 70.626672 495.3731 70.082033 490.37305 64.5 C 483.2528 56.551649 483.95594 52.603083 493.93164 44.574219 C 505.56591 35.209795 497.00793 29.598223 484.02148 38.076172 C 471.95488 45.952323 460.84775 41.594981 467.5293 31.603516 C 471.85013 25.141494 465.33554 21.025278 457.5625 25.304688 C 454.68083 26.890886 448.73171 25.011827 440.41016 19.878906 C 433.21734 15.444692 414.2665 8.9473115 396.89844 4.9589844 C 381.54342 1.4367547 371.31581 -0.11755098 360.72656 0.0078125 z M 365.58984 23.615234 C 369.98182 23.543993 373.31965 23.667572 374.64844 24.052734 C 378.61935 25.202553 381.07964 61.82422 377.91992 72.728516 C 377.37204 74.619055 368.81663 77.561798 358.9043 79.263672 C 348.99205 80.968571 339.65808 82.005819 338.16797 81.572266 C 336.67775 81.139707 331.46862 69.217655 326.58984 55.076172 C 319.60087 34.812229 318.92069 29.001911 323.38086 27.679688 C 329.75107 25.791933 352.41391 23.828958 365.58984 23.615234 z M 394.77344 26.714844 C 395.8051 26.80571 397.12655 27.095135 398.80664 27.578125 L 398.80664 27.580078 C 401.05141 28.222884 403.9342 29.214184 407.62305 30.539062 L 424.33789 36.558594 L 425.12695 57.146484 C 425.55901 68.469243 424.99251 78.234802 423.87305 78.853516 C 422.7539 79.468241 415.42674 79.009291 407.58789 77.835938 L 393.33398 75.699219 L 392.69531 56.923828 C 392.34365 46.592194 391.79733 35.072883 391.48047 31.328125 C 391.19474 27.949486 391.67846 26.442245 394.77344 26.714844 z M 301.61328 35.042969 L 307.21484 48.013672 C 310.29526 55.150803 314.11009 66.78537 315.69141 73.869141 C 318.52443 86.558364 318.41061 86.811316 307.98828 91.367188 C 302.17021 93.91123 296.62492 95.775515 295.66016 95.513672 C 292.80181 94.740024 272.28273 58.666439 273.16992 55.982422 C 273.61783 54.627297 280.20098 49.356859 287.79883 44.277344 L 301.61328 35.042969 z M 438.16602 47.658203 C 438.42706 47.618292 438.7284 47.659114 439.07227 47.771484 L 439.07031 47.775391 C 439.98823 48.064416 441.21926 48.870939 442.85156 49.949219 C 462.5645 62.993465 481.27319 81.604134 479.79492 86.705078 C 478.67848 90.557365 480.75313 92.72923 486.32617 93.537109 C 492.53041 94.445529 494.2048 96.753484 493.29102 103.17578 C 492.47014 108.94223 493.92878 111.47054 497.87891 111.13477 C 507.15686 110.35177 514.74101 120.44684 518.61133 138.72266 C 521.74722 153.52997 520.7149 160.88927 510.5625 195.92383 C 499.47881 234.1697 498.03752 237.08796 481.02734 255.73438 C 462.59173 275.94337 443.97945 288.61574 446.74414 279.07422 C 447.53419 276.34967 446.73335 267.34454 444.96875 259.06055 L 441.75977 243.99805 L 451.76758 246.90039 C 465.06773 250.75635 483.6951 242.93476 486.80859 232.18945 C 488.15924 227.53247 487.6977 223.26488 485.77734 222.70898 C 483.85768 222.15316 481.82383 223.28924 481.25977 225.23438 C 479.13665 232.56147 453.5362 236.03287 436.96094 231.24414 C 427.8418 228.60769 420.01315 227.71267 419.56641 229.25195 C 419.11904 230.79419 422.685 238.94307 427.49023 247.35742 C 432.29529 255.76874 436.44852 268.62309 436.7168 275.92578 C 437.24545 290.32616 434.71418 292.28363 406.00586 299.6582 C 395.53082 302.34996 399.37586 297.00763 397.83008 291.61719 C 397.4181 290.18038 397.2637 289.08762 397.20312 288.13086 C 402.79211 287.05128 408.64479 285.59213 413.80078 283.85547 C 414.40438 286.00182 417.96291 287.17526 419.30078 286.51953 C 419.84635 286.25215 419.72925 284.28672 419.37109 281.73633 C 423.83013 279.80866 427.23231 277.64632 428.60156 275.34766 C 433.59757 266.96047 431.91532 263.74108 430.08984 262.63867 C 428.26441 261.53622 425.09393 260.86593 417.26367 265.23242 C 416.79671 265.49282 416.24313 265.74051 415.61914 265.98047 C 411.45371 250.98622 405.36694 233.44583 402.93359 232.74023 C 398.07549 231.33383 398.22695 235.52712 403.53906 249.58008 C 408.58817 262.93433 410.16864 266.70327 408.53125 267.83203 C 407.46334 268.03542 406.34424 268.22686 405.18359 268.4082 C 403.93314 268.42675 402.69498 268.39897 400.81836 268.57812 C 393.21866 269.30387 392.56692 264.15845 390.10352 249.82617 C 388.43955 239.91668 387.58677 228.0226 384.1582 231.08008 C 382.58259 230.62131 381.3612 240.22906 383.03711 248.95312 C 384.78286 258.04817 385.11196 265.49972 385.66406 270.42773 C 379.27251 270.85202 373.81883 271.03341 371.48242 271.02539 C 368.98416 271.01721 365.82341 270.80583 362.41992 270.37695 C 362.37776 269.60401 362.43532 268.76819 362.64648 267.83789 C 363.27294 254.70623 360.13787 227.87788 355.9668 231.60938 C 354.76496 232.27059 353.78558 242.36138 353.79492 254.03125 C 353.80347 264.39888 353.26278 267.30942 351.79102 268.38086 C 349.6 267.8162 347.48021 267.15894 345.54297 266.39844 C 333.96571 261.88062 328.46529 273.53258 336.51172 280.99023 C 339.78789 284.02669 345.45214 286.09561 351.84961 287.49023 C 352.20363 290.34131 351.45534 294.59827 350.3457 298.42773 C 347.85577 307.02005 346.7332 307.24596 330.25586 302.4707 L 312.80664 297.41602 L 319.42188 274.58789 C 324.12056 258.37391 329.3255 248.26132 337.39453 239.66797 C 343.64239 233.01131 347.28885 227.76324 345.5 228.00781 C 343.71186 228.25045 331.51325 230.26073 318.38867 232.47266 C 291.47675 237.00881 259.16807 232.49551 252.95117 223.32812 C 249.68932 218.52089 248.67649 218.47865 247.33203 223.11719 C 244.64932 232.37581 240.28035 228.24879 228.75391 205.55469 C 211.95782 172.48388 210.87442 161.43392 221.66797 133.24805 C 228.9963 114.10857 232.5765 103.22919 240.07227 105.82617 C 249.64125 109.14119 248.33954 101.25823 246.07227 98.699219 C 244.30178 96.701085 243.52075 92.666734 244.38281 89.691406 C 245.57299 85.584505 248.01165 85.487585 254.5332 89.291016 C 263.03999 94.251618 265.93146 90.20659 262.76562 79.896484 C 261.0083 74.175733 258.43654 71.245302 260.52344 68.492188 C 263.72914 64.259431 265.47657 65.464621 271.78711 76.28125 C 282.83609 95.216473 283.70914 102.67744 275.41406 107.24609 C 263.96816 113.55023 265.3243 119.23532 276.86719 113.3418 L 287.51367 107.9082 L 293.77734 126.77344 C 297.22352 137.15268 299.78587 146.54219 299.46875 147.63672 C 299.15214 148.72929 294.19147 150.13023 286.45117 148.8457 C 272.78844 146.57723 253.17349 154.76089 244.41797 163.72852 C 236.27609 172.06771 239.01886 176.23047 249.33984 171.20117 C 262.77111 164.65432 278.50777 165.78032 309.91992 169.79492 C 353.20093 175.32641 368.07569 174.68404 387.85156 172.63477 C 397.62982 170.95378 405.18663 169.37254 419.32031 164.17383 C 433.45341 158.97304 451.18397 154.49179 458.7207 154.21289 C 467.49279 153.89082 471.5653 152.15244 470.03906 149.38086 C 466.13767 142.29692 442.61042 142.04098 417.38477 148.80664 C 364.37786 163.02468 340.9324 160.11689 344.1582 148.98633 C 344.93501 146.30662 343.24305 135.62413 341.58203 119.8418 C 339.92051 104.06042 338.64313 90.823777 338.75586 90.435547 C 339.16201 88.941205 375.6379 84.835805 376.38867 86.201172 C 376.82235 86.990644 376.27001 99.806847 375.15625 114.68164 C 372.92752 144.4502 373.36331 148.51638 378.96289 150.13867 C 382.74022 151.23565 392.81574 109.16883 393.03125 91.400391 C 393.11424 84.576677 395.07287 83.695213 406.96875 85.142578 C 423.60506 87.164162 424.43868 89.251093 419.70898 116.90234 C 414.36582 148.13975 420.22958 148.65036 429.19141 117.72266 L 436.81055 91.429688 L 447.60742 96.599609 C 453.54598 99.441755 460.99917 103.10167 464.16992 104.73633 C 477.05173 111.36958 466.97618 100.43065 452.66602 92.246094 C 437.97966 83.844393 437.21765 82.519903 436.74414 64.501953 C 436.42131 52.230679 436.33872 47.937578 438.16602 47.658203 z M 709.67969 96.291016 C 710.90988 96.256654 711.81523 96.33043 712.38086 96.511719 C 715.47686 97.505827 708.41203 101.74446 688.96484 109.37109 C 656.29772 122.18332 649.41751 128.14285 639.78125 151.92969 C 629.53974 177.20973 616.01518 188.09829 589.00781 192.81836 C 576.95392 194.92529 558.13704 195.78959 547.25781 196.5918 C 533.47806 197.60745 522.79924 201.4017 535.68164 187.83398 C 549.27936 173.50688 570.30511 161.80298 596.51367 153.97461 C 610.12409 149.90978 621.85728 144.63318 622.55273 142.23242 C 627.12271 126.86557 564.01734 139.69313 543.97461 158.20703 L 531.8457 169.4043 L 531.0625 158.05469 C 530.63017 151.81258 530.16127 144.61279 530.02148 142.06055 C 529.87245 139.34239 545.01393 134.50795 566.61523 130.38867 C 586.88238 126.52226 620.20001 118.47218 640.65625 112.50195 C 676.50764 102.03508 701.06835 96.531547 709.67969 96.291016 z M 315.21289 97.498047 C 316.06854 97.435937 316.84186 97.504455 317.55078 97.722656 C 322.27731 99.17737 324.10796 107.28705 327.88867 127.625 L 330.61523 147.03125 C 331.0382 154.21971 325.20538 150.58368 322.17188 150.35352 C 312.1879 149.59691 312.18461 149.92314 305.58398 129.07812 C 298.43296 106.49791 298.36753 104.02376 304.87109 101.07617 C 309.3453 99.047952 312.64595 97.684378 315.21289 97.498047 z M 26.730469 132.1582 C 41.028858 132.13015 131.73896 141.16133 190.28711 157.54297 C 201.80999 160.12315 198.31655 161.42667 199.66602 173.26367 C 200.51576 180.70785 200.48767 187.19766 199.60352 187.68359 C 198.71866 188.17046 191.83631 183.93402 184.31055 178.26953 C 165.74935 164.30228 116.70597 150.24786 96.066406 152.98438 C 87.71838 154.09087 81.595884 156.28064 82.462891 157.85352 C 83.329387 159.42834 98.622751 164.57154 116.44727 169.27734 C 136.86474 174.66814 155.39372 181.84636 166.52148 188.68164 C 176.23608 194.64606 189.17333 200.01067 194.51953 202.56836 C 206.33359 208.21977 215.98935 219.59818 203.57422 217.46484 C 198.48333 217.08554 184.21614 216.60309 171.875 216.39648 C 130.08255 215.70224 105.12785 204.72335 78.240234 175.21289 C 67.81746 163.77443 58.344908 157.55871 40.929688 150.73438 C 12.194953 139.47395 6.6345873 132.19818 26.730469 132.1582 z M 435.58398 168.68164 C 434.6662 168.65184 433.68781 168.74027 432.65039 168.96094 C 424.17028 170.76334 412.03128 182.3244 416.43164 190.31641 C 419.48515 195.76415 430.6813 192.77281 436.99609 189.01562 C 443.23643 185.57834 445.60688 182.02871 444.57617 176.79883 C 443.86706 173.2043 441.63311 170.18213 438.15039 169.10352 C 437.3589 168.85865 436.50177 168.71144 435.58398 168.68164 z M 324.25781 179.40039 C 321.09887 179.40763 318.3236 180.05641 316.63477 181.65625 C 311.93172 186.10938 315.70692 191.8647 320.38867 195.43359 C 325.07083 199.00253 339.43372 199.2212 342.98633 197.6543 C 346.53894 196.0874 347.21397 187.29293 340.82617 183.71094 C 339.02962 182.70262 336.70449 181.74808 334.18164 180.99414 C 330.95864 180.02822 327.41675 179.39315 324.25781 179.40039 z M 259.28906 191.98828 C 258.45114 191.80696 257.80885 191.80602 257.43164 192.01367 C 252.78236 194.57382 262.82875 210.97704 273.17383 217.71875 C 284.94214 225.38971 306.88568 229.34049 321.48438 226.41797 C 333.83774 223.94273 354.83502 212.17427 352.96289 208.77344 C 352.87172 208.62694 352.63148 208.49036 352.25 208.36719 C 349.57225 207.5937 340.07699 208.0178 329.31055 209.47266 C 305.1575 212.73837 286.11206 208.91696 270.21875 197.62891 C 266.07662 194.68957 261.80283 192.53224 259.28906 191.98828 z M 495.35352 196.58008 C 493.12057 196.64856 489.9454 197.37278 485.9043 198.86719 C 464.67569 206.72813 440.88832 209.69935 428.33203 206.06055 C 414.99015 202.19511 411.02843 205.83929 419.0957 214.5625 C 430.17729 226.54292 475.44501 222.12812 492.64453 207.38281 C 499.56083 201.45318 500.81434 197.53229 497.26953 196.72461 C 496.73756 196.606 496.09783 196.55725 495.35352 196.58008 z M 382.96875 205.89453 C 381.67802 205.95027 380.43893 206.25953 379.33203 206.87305 C 375.41104 209.07243 375.45664 211.49975 379.51758 216.80859 C 385.82232 225.05007 391.78536 225.61253 395.52539 218.32422 C 397.84897 213.79218 392.675 208.20391 386.91016 206.44531 L 386.91211 206.4375 C 385.60244 206.03627 384.25948 205.83879 382.96875 205.89453 z M 256.04297 242.66992 C 257.36948 242.39276 261.56778 243.49081 266.97852 245.63477 C 275.02075 248.81905 286.73642 249.93259 297.25586 248.51172 L 314.40625 246.19531 L 308.07422 268.31445 C 304.58902 280.47832 300.82503 290.16424 299.70703 289.8418 C 297.52727 289.20894 258.85972 248.38763 255.73438 243.41797 C 255.47659 243.00805 255.6008 242.76231 256.04297 242.66992 z M 362.32812 289.17578 C 368.56259 289.88721 374.67588 290.15017 379.33789 290.19922 C 381.5716 290.22273 384.45514 290.02179 387.70117 289.63281 C 387.77418 289.98579 387.87454 290.32261 387.8418 290.73438 L 389.52148 299.4082 C 390.41683 304.02828 392.42463 305.35621 373.23828 306.60352 C 355.68234 307.74521 355.29389 307.4521 358.71094 295.66211 C 359.71869 292.18429 360.84182 290.3188 362.32812 289.17578 z" fill="#00B894" transform="translate(11.493219,-102.82787) matrix(0.26308978,0.02807323,-0.02807323,0.26308978,0.28763748,-4913.7917) rotate(-6.0907504,178215.52,-9061.7834)"/>
</svg>