<?xml version="1.0" ?><svg height="204.42938mm" viewBox="0 0 171.77818 204.42938" width="171.77818mm" xmlns="http://www.w3.org/2000/svg">
    <path d="m 38099.539,29121.459 c -6.974,0.02 -14.283,1.062 -21.869,3.41 -53.947,16.694 -89.257,50.874 -104.488,76.658 -15.042,25.463 -13.283,42.522 -12.209,43.27 0,0 -8.328,3.237 -30.285,12.01 -21.959,8.773 -141.305,76.49 -141.305,76.49 l 31.558,58.883 c 39.285,-1.623 53.912,-34.539 104.85,-28.342 l -79.748,104.395 c -13.94,12.092 45.539,31.802 56.35,20.253 10.958,-11.706 26.03,-54.089 26.03,-54.089 0,0 -8.973,54.48 -8.784,72.537 0.189,18.058 -3.502,203.656 -1.893,217.625 1.609,13.969 51.082,5.898 64.607,6.133 5.736,0.1 8.735,-10.915 3.07,-33.723 -8.479,-34.139 1.223,-107.67 1.223,-107.67 l 197.334,-0.51 c 0,0 -18.076,137.39 -12.398,143.096 5.679,5.707 49.311,12.008 63.602,6.472 14.292,-5.537 22.809,-8.006 22.619,-19.419 -0.189,-11.415 6.126,-176.363 4.707,-212.393 -1.42,-36.03 1.799,-35.262 1.799,-35.262 0,0 35.208,-50.937 38.615,-60.221 3.407,-9.284 0.472,-15.927 -8.141,-20.271 -8.612,-4.344 -20.064,2.979 -25.459,14.648 -5.395,11.669 -34.166,72.827 -34.166,72.827 0,0 -68.618,6.133 -102.027,5.963 -33.41,-0.171 -121.524,-11.584 -121.524,-11.584 l -1.607,-205.957 c 0,-10e-4 51.012,-39.947 72.023,-52.979 21.011,-13.032 56.409,-17.036 79.313,-18.314 22.904,-1.278 40.318,22.232 41.643,7.326 1.325,-14.906 -21.578,-24.786 -26.5,-34.922 -4.23,-8.711 -34.321,-46.484 -76.94,-46.34 z m 97.518,120.516 c 0,0 -25.799,38.933 -59.864,63.519 -34.066,24.585 -63.896,36.906 -63.896,36.906 l 13.625,11.61 c 0,0 44.65,-9.465 58.342,-19.168 13.693,-9.703 43.919,-44.349 50.468,-60.363 6.548,-16.013 1.325,-32.504 1.325,-32.504 z" fill="#FFFFFF" paint-order="markers stroke fill" transform="translate(-269.40883,-36.880502) matrix(0.32614288,0,0,0.32614288,-10970.807,-8664.4964) translate(-3313.5291,-2437.8203)"/>
    <path d="m 34853.556,27291.647 c 0,0 -2.223,-70.292 2.195,-77.44 2.787,-4.508 11.824,-72.126 9.863,-80.204 -0.47,-1.934 -16.222,-3.076 -33.724,-3.076 -31.183,0 -31.803,0.143 -30.807,7.153 0.921,6.48 8.189,6.878 32.818,7.883 l 25.755,1.051 c 15.024,4.772 -18.905,6.754 -35.305,6.499 -13.769,-0.214 -27.385,-3.941 -26.498,1.485 0.935,5.71 -47.997,4.272 -49.539,1.779 -2.771,-4.485 -43.173,-4.876 -43.173,-0.42 0,4.036 -11.373,4.122 -18.812,0.143 -5.212,-2.79 -5.841,-0.515 -7.691,27.817 -1.107,16.97 -3.987,36.402 -6.4,43.18 -3.304,9.284 -3.545,14.555 -0.979,21.35 2.937,7.787 2.367,10.126 -4.163,17.079 -4.163,4.429 -9.466,8.056 -11.783,8.056 -2.317,0 -4.215,2.861 -4.215,6.356 0,5.148 2.119,6.359 11.127,6.359 12.324,0 14.515,4.32 4.823,9.508 -8.38,4.485 -56.47,4.654 -61.815,0.215 -2.787,-2.313 -3.689,-8.064 -2.673,-17.067 1.125,-9.982 0.167,-14.696 -3.576,-17.812 -5.598,-4.647 -6.91,-12.996 -2.041,-12.996 1.886,0 2.982,-27.857 2.847,-72.323 -0.12,-39.776 0.798,-76.24 2.04,-81.032 1.719,-6.635 0.978,-9.205 -3.118,-10.777 -6.423,-2.465 -4.552,-17.388 4.747,-37.818 3.691,-8.109 6.573,-24.417 7.865,-44.503 l 2.039,-31.706 -17.379,40.751 c -9.558,22.412 -18.234,41.605 -19.278,42.649 -1.047,1.047 -1.903,-1.888 -1.903,-6.518 0,-4.633 9.341,-30.137 20.757,-56.675 11.418,-26.541 20.29,-49.656 19.72,-51.366 -0.57,-1.712 -13.822,21.766 -29.448,52.171 -15.623,30.406 -28.868,52.92 -29.428,50.033 -1.254,-6.454 13.137,-38.669 30.711,-68.763 15.283,-26.169 16.563,-30.802 4.43,-16.036 -4.78,5.817 -9.594,11.291 -10.698,12.164 -1.102,0.875 -12.3,16.94 -24.884,35.699 -22.605,33.696 -28.844,41.115 -28.844,34.299 0,-10.755 29.006,-56.549 54.813,-86.532 l 19.488,-22.643 -10.526,2.105 c -5.789,1.156 -13.015,2.105 -16.058,2.105 -3.039,0 -10.371,4.268 -16.291,9.485 -12.784,11.267 -14.269,11.525 -18.709,3.23 -1.955,-3.652 -6.656,-6.358 -11.051,-6.358 -4.205,0 -8.533,-1.431 -9.613,-3.179 -1.113,-1.802 1.557,-3.178 6.171,-3.178 4.475,0 8.135,-1.43 8.135,-3.18 0,-4.044 -7.833,-3.693 -23.351,1.039 l -12.224,3.729 7.024,8.91 c 10.261,13.02 5.021,14.463 -6.755,1.86 -6.602,-7.067 -6.434,-8.277 -9.834,-9.771 -2.338,-1.027 -2.234,-3.812 -2.751,-6.151 0,0 -0.533,-2.091 -6.577,-15.087 -4.759,-10.226 -7.393,-12.949 -10.011,-10.334 -5.361,-0.09 -8.295,-2.93 1.724,-10.812 3.078,-2.589 6.256,-4.709 7.062,-4.709 0.806,0 14.737,-8.728 30.959,-19.398 47.236,-31.068 129.419,-69.292 149.997,-69.764 4.55,-0.1 10.174,-5.767 17.782,-17.896 22.466,-35.832 75.827,-64.259 128.747,-68.591 5.25,-0.432 9.537,-2.62 9.537,-4.871 0,-2.251 2.105,-5.391 4.678,-6.981 3.91,-2.418 3.648,-3.264 -1.588,-5.143 -3.448,-1.239 -7.227,-2.758 -8.397,-3.38 -1.171,-0.62 -4.037,0.672 -6.371,2.875 -11.241,10.605 -16.782,12.741 -36.743,14.167 -18.418,1.314 -22.531,2.754 -28.556,9.99 -5.855,7.035 -7.057,7.486 -7.152,2.684 -0.07,-3.175 1.366,-8.54 3.178,-11.921 2.313,-4.322 2.265,-6.149 -0.167,-6.149 -6.75,0 -22.075,9.706 -25.537,16.175 -1.934,3.614 -5.4,5.848 -7.701,4.964 -2.303,-0.882 -7.558,2.069 -11.678,6.559 l -7.491,8.166 8.447,-2.025 c 4.644,-1.111 10.92,-2.973 13.943,-4.131 3.867,-1.486 5.062,-0.782 4.029,2.37 -0.806,2.462 -9.806,7.469 -19.996,11.122 -17.186,6.161 -19.186,7.946 -27.626,24.636 -12.41,24.543 -17.083,22.729 -7.441,-2.887 9.384,-24.934 16.224,-35.041 34.735,-51.335 37.413,-32.933 91.404,-47.143 129.635,-34.115 15.602,5.316 36.082,23.038 22.878,19.798 -7.276,-1.786 -17.142,2.368 -17.142,7.219 0,1.662 4.01,3.021 8.912,3.021 13.521,0 40.687,14.959 50.97,28.065 39.582,50.452 9.544,131.126 -61.923,166.31 -13.883,6.836 -27.113,10.76 -39.213,11.635 -16.768,1.214 -19.143,0.529 -29.035,-8.354 -12.758,-11.454 -11.78,-12.822 16.248,-22.738 25.635,-9.07 49.687,-24.229 72.404,-45.632 23.012,-21.682 32.502,-37.031 32.502,-52.576 0,-19.334 -7.973,-26.689 -30.714,-28.332 -38.204,-2.766 -87.271,16.566 -120.023,47.286 l -18.955,17.779 -2.184,77.589 c -1.201,42.673 -0.976,86.947 -0.976,86.947 5.634,-0.577 1.16,33.685 -2.326,34.15 -2.439,0.324 7.725,1.397 22.588,2.384 14.861,0.985 29.893,2.155 29.893,2.155 0.669,-7.276 49.709,-4.233 49.073,2.629 -0.585,6.322 61.35,9.609 95.217,4.977 40.653,-5.562 39.614,-7.208 37.618,59.398 -1.316,43.893 -0.87,51.212 3.028,49.718 7.265,-2.79 8.679,-14.828 6.977,-59.444 -0.878,-22.967 -0.358,-45.102 1.153,-49.186 3.043,-8.22 -1.153,-19.774 -4.949,-13.633 -4.268,6.905 -8.929,3.62 -7.317,-5.154 1.926,-10.479 20.499,-55.192 24.674,-59.393 6.316,-6.357 7.117,2.258 1.781,19.178 -3.073,9.749 -5.028,18.282 -4.349,18.964 0.682,0.682 6.802,-10.173 13.604,-24.121 11.771,-24.142 17.448,-30.892 17.448,-20.74 0,2.539 -1.771,8.507 -3.936,13.256 -3.159,6.936 -3.136,8.908 0.119,9.995 2.828,0.942 -0.432,9.711 -10.724,28.861 -8.13,15.13 -16.811,29.817 -19.293,32.637 -3.665,4.165 -3.908,9.222 -1.288,27.02 1.772,12.043 3.33,37.659 4.635,56.864 0.524,7.711 -0.633,10.308 0.818,9.539 5.344,-2.834 2.753,47.753 -0.374,40.282 -0.548,-1.31 -9.902,75.226 -5.42,79.705 2.017,2.02 3.67,6.142 3.67,9.163 0,6.149 -15.178,19.486 -19.286,16.947 -1.457,-0.899 -4.199,1.266 -6.097,4.811 -2.77,5.176 -2.489,6.447 1.428,6.447 9.325,0 16.23,3.088 2.797,9.184 -16.348,7.422 -36.215,9.513 -53.519,5.131 -5.63,-1.426 -14.333,-3.748 -14.333,-2.289 -4.196,8.29 -10.188,2.857 -10.511,-10.249 z m 39.143,-1.774 c 0,-4.106 -2.12,-6.357 -5.987,-6.357 -3.314,0 -6.73,2.837 -7.651,6.357 -1.323,5.056 -0.09,6.358 5.987,6.358 5.531,0 7.651,-1.762 7.651,-6.358 z m 24.71,1.649 c 0.479,-0.405 -0.05,-3.159 -1.195,-6.117 -2.92,-7.613 -12.185,-4.855 -13.444,4.003 -0.918,6.451 -0.1,7.119 6.359,5.135 4.077,-1.254 7.803,-2.613 8.28,-3.021 z m -43.784,-3.237 c 0,-2.623 -2.145,-4.769 -4.768,-4.769 -2.623,0 -4.769,2.146 -4.769,4.769 0,2.622 2.146,4.768 4.769,4.768 2.623,0 4.768,-2.146 4.768,-4.768 z m -247.957,-7.949 c 0,-4.661 -2.12,-6.357 -7.949,-6.357 -5.827,0 -7.947,1.696 -7.947,6.357 0,4.663 2.12,6.358 7.947,6.358 5.829,0 7.949,-1.695 7.949,-6.358 z m 19.913,4.458 c 3.559,-3.557 -1.5,-10.815 -7.539,-10.815 -3.898,0 -6.018,2.239 -6.018,6.357 0,6.063 8.996,9.019 13.557,4.458 z m 229.258,-36.755 c 3.466,-17.333 -4.704,-16.127 -8.812,1.302 -1.495,6.342 -0.844,8.743 2.372,8.743 2.437,0 5.334,-4.521 6.44,-10.045 z m 20.411,-9.279 c 0.837,-15.018 0.377,-16.62 -3.576,-12.465 -4.881,5.129 -9.275,26.789 -6.082,29.982 5.018,5.016 8.781,-1.81 9.658,-17.517 z m 19.701,-6.743 c 0,-28.536 -6.788,-25.668 -8.917,3.767 -1.164,16.077 -0.565,19.122 3.767,19.122 4.27,0 5.15,-3.908 5.15,-22.889 z m -289.283,-11.081 c 0,-23.974 -0.911,-28.58 -6.912,-34.967 -3.803,-4.049 -8.094,-7.358 -9.537,-7.358 -1.445,0 -2.625,15.736 -2.625,34.967 v 34.969 h 9.537 9.537 z m 312.388,-0.215 c 0.961,-15.297 1.137,-28.434 0.394,-29.192 -3.996,-4.07 -7.568,7.498 -9.511,30.801 -1.85,22.169 -1.45,26.208 2.592,26.208 3.752,0 5.152,-5.963 6.525,-27.817 z m -293.315,4.313 c 0,-14.384 -1.287,-20.817 -4.403,-22.011 -3.372,-1.295 -4.762,2.918 -5.923,17.939 -1.669,21.603 -1.011,24.395 5.744,24.395 3.512,0 4.582,-4.747 4.582,-20.323 z m 15.274,3.386 c 0.765,-11.731 -0.07,-14.852 -3.975,-14.852 -3.822,0 -4.942,3.662 -4.942,16.161 0,21.004 7.534,19.9 8.917,-1.309 z m 219.156,-31.541 c 1.729,-2.186 4.117,-11.842 5.31,-21.458 1.189,-9.615 2.994,-22.848 4.007,-29.404 1.467,-9.487 0.828,-11.921 -3.137,-11.921 -3.557,0 -5.512,4.308 -6.848,15.099 -1.03,8.304 -3.018,23.324 -4.418,33.379 -2.513,18.029 -1.072,22.085 5.086,14.305 z m 23.79,-51.659 c 0.877,-13.985 0.507,-22.488 -0.825,-18.887 -3.524,9.513 -6.953,58.46 -3.55,50.678 1.528,-3.497 3.497,-17.803 4.375,-31.791 z m -238.099,18.28 c 1.023,-6.557 2.851,-35.882 4.062,-65.168 1.607,-38.803 1.228,-53.248 -1.392,-53.248 -1.979,0 -4.277,3.218 -5.107,7.152 -2.589,12.257 -8.094,117.523 -6.297,120.429 3.593,5.815 6.946,2.296 8.734,-9.165 z m 256.583,-56.916 c 1.836,-31.202 3.98,-58.613 4.759,-60.912 0.932,-2.741 -0.489,-3.621 -4.12,-2.553 -3.049,0.894 -10.896,2.575 -17.438,3.734 -6.54,1.158 -11.105,3.38 -10.142,4.937 0.961,1.557 -3.7,2.962 -10.36,3.119 l -12.109,0.286 10.591,3.049 c 7.775,2.239 9.739,4.075 7.391,6.905 -1.76,2.12 -3.665,8.128 -4.232,13.352 -0.835,7.665 0.167,9.498 5.193,9.498 4.355,0 6.83,-2.868 8.235,-9.537 1.101,-5.245 5.223,-14.543 9.157,-20.661 l 7.155,-11.127 -1.869,63.579 c -2.346,79.891 3.019,77.363 7.789,-3.669 z m -272.412,30.201 c 2.84,-40.012 2.592,-78.984 -0.506,-78.984 -1.413,0 -4.99,1.788 -7.946,3.972 -4.566,3.376 -5.446,10.774 -5.846,49.177 -0.453,43.311 1.647,54.934 9.918,54.934 1.273,0 3.245,-13.094 4.38,-29.099 z m -23.365,-24.755 c 0,-20.879 -1.269,-38.744 -2.821,-39.702 -5.886,-3.638 -9.394,7.122 -11.613,35.625 -2.013,25.864 -1.598,30.26 3.383,35.763 3.123,3.45 6.886,6.273 8.364,6.273 1.478,0 2.687,-17.081 2.687,-37.959 z m 117.62,25.244 c 0,-5.415 -2.12,-6.359 -14.305,-6.359 -7.868,0 -14.306,0.598 -14.306,1.33 0,0.732 -0.868,3.593 -1.928,6.359 -1.605,4.18 0.805,5.028 14.305,5.028 14.114,0 16.234,-0.829 16.234,-6.358 z m -54.68,-8.743 c 2.869,-8.502 2.671,-10.331 -1.118,-10.331 -3.18,0 -4.601,3.6 -4.601,11.656 0,13.316 0.846,13.121 5.719,-1.325 z m 204.091,-3.972 c 0,-1.75 -2.947,-3.181 -6.547,-3.181 -3.6,0 -5.66,1.431 -4.58,3.181 1.08,1.747 4.027,3.178 6.545,3.178 2.52,0 4.582,-1.431 4.582,-3.178 z m -33.379,-3.362 c -6.995,-1.447 -19.87,-2.487 -28.61,-2.315 l -15.896,0.317 15.896,2.182 c 8.74,1.196 21.615,2.238 28.61,2.312 l 12.715,0.143 -12.715,-2.629 z m -123.185,-2.01 c -3.059,-0.799 -8.066,-0.799 -11.127,0 -3.059,0.801 -0.555,1.454 5.565,1.454 6.118,0 8.621,-0.653 5.562,-1.454 z m -37.282,-18.685 c 4.182,-12.674 4.261,-12.457 -5.634,-15.5 -6.311,-1.94 -7.152,-1.082 -7.152,7.294 0,5.219 -0.868,11.751 -1.929,14.517 -1.369,3.569 -0.05,5.028 4.52,5.028 4.578,0 7.539,-3.292 10.195,-11.339 z m 41.257,0.215 c 0,-13.798 -6.748,-14.823 -11.673,-1.772 -3.918,10.376 -2.776,12.899 5.843,12.899 4.542,0 5.83,-2.456 5.83,-11.127 z m 152.589,9.799 c 0,-0.732 0.868,-3.593 1.929,-6.359 1.383,-3.605 0.02,-5.028 -4.769,-5.028 -4.577,0 -6.697,2.012 -6.697,6.356 0,3.533 2.12,6.359 4.769,6.359 2.622,0 4.768,-0.599 4.768,-1.328 z m -19.074,-6.43 c 0,-6.757 -1.683,-7.172 -38.943,-9.654 l -34.173,-2.272 v 8.251 8.255 h 36.557 c 29.712,0 36.559,-0.859 36.559,-4.58 z m 2.559,-27.862 c 1.204,-10.095 -3.093,-11.321 -43.887,-12.515 l -30.198,-0.882 v 7.82 c 0,7.553 0.97,7.899 28.611,10.162 15.735,1.289 30.756,2.901 33.378,3.585 8.221,2.141 11.094,0.191 12.096,-8.17 z m -163.738,-8.989 c 1.421,-5.431 0,-6.254 -10.782,-6.254 -11.031,0 -12.419,0.864 -12.419,7.725 0,13.745 19.546,12.505 23.201,-1.471 z m 30.618,0.711 c -0.191,-7.639 -0.515,-7.873 -2.954,-2.196 -3.796,8.831 -3.796,15.061 0,12.715 1.747,-1.08 3.078,-5.813 2.954,-10.519 z m -27.593,-21.27 c -1.194,-4.78 -23.866,-3.896 -25.496,0.994 -1.038,3.112 2.126,3.92 12.45,3.179 7.613,-0.546 13.485,-2.425 13.046,-4.173 z m -88.413,-35.763 c 1.042,-11.802 2.52,-28.253 3.28,-36.557 0.763,-8.307 0.215,-15.102 -1.232,-15.102 -1.44,0 -3.65,14.53 -4.909,32.285 -1.259,17.758 -3.026,34.209 -3.93,36.559 -0.901,2.349 -0.166,4.273 1.629,4.273 1.795,0 4.117,-9.656 5.162,-21.458 z m 20.201,6.359 c 5.257,-4.568 6.774,-11.058 8.471,-36.266 2.208,-32.802 0.298,-38.071 -10.474,-28.887 -5.624,4.799 -6.635,9.942 -7.481,38.135 -0.541,17.922 -0.07,32.585 1.051,32.583 1.116,0 4.912,-2.506 8.433,-5.565 z m 27.185,-43.402 c 1.473,-17.035 1.893,-31.763 0.932,-32.724 -0.963,-0.963 -3.958,-0.903 -6.657,0.143 -3.974,1.524 -4.904,7.988 -4.904,34.035 0,24.305 0.97,31.834 3.972,30.842 2.556,-0.844 4.931,-12.367 6.657,-32.287 z m 14.801,12.886 c 0,-4.108 0.899,-18.771 1.998,-32.585 1.65,-20.733 1.266,-24.426 -2.198,-21.169 -5.489,5.162 -8.572,61.222 -3.367,61.222 1.962,0 3.567,-3.362 3.567,-7.468 z m -159.422,-67.351 c 0.612,-0.58 0.238,-2.485 -0.852,-4.232 -1.258,-2.036 -7.138,-1.414 -16.386,1.736 -7.93,2.703 -15.226,4.108 -16.213,3.121 -0.985,-0.985 1.953,-2.733 6.53,-3.88 4.578,-1.149 8.324,-4.215 8.324,-6.811 0,-2.597 2.861,-5.47 6.356,-6.383 6.559,-1.716 8.907,-7.279 3.073,-7.279 -4.26,0 -34.862,15.493 -34.862,17.648 0,0.906 2.242,5.069 4.981,9.251 4.931,7.524 5.143,7.553 21.458,2.739 9.062,-2.672 16.978,-5.333 17.591,-5.91 z m 74.108,-3.319 c 13.659,-4.461 21.455,-11.885 16.015,-15.247 -4.092,-2.53 -55.75,15.533 -57.243,20.015 -1.747,5.239 17.357,3.031 41.228,-4.768 z m 47.376,-7.806 c 7.756,-4.151 8.801,-20.659 1.121,-17.712 -2.766,1.061 -6.342,1.929 -7.947,1.929 -1.606,0 -2.92,4.291 -2.92,9.537 0,10.526 0.796,11.036 9.746,6.246 z m -61.998,-9.441 c 38.326,-12.887 36.981,-12.296 35.047,-15.429 -2.21,-3.576 -63.145,16.49 -64.757,21.325 -1.605,4.809 -2.883,5.061 29.71,-5.896 z m 209.335,2.975 c 2.575,-2.704 0.618,-3.044 -7.672,-1.34 -16.904,3.479 -23.356,8.698 -8.221,6.652 6.843,-0.925 13.996,-3.316 15.893,-5.312 z m -281.551,-17.393 c 2.354,-2.138 3.05,-4.646 1.55,-5.574 -3.796,-2.346 -39.451,20.218 -37.344,23.632 1.657,2.68 27.094,-10.154 35.794,-18.058 z m 121.29,15.836 c 0,-2.725 -1.431,-4.072 -3.178,-2.992 -1.75,1.08 -3.181,3.312 -3.181,4.957 0,1.645 1.431,2.992 3.181,2.992 1.747,0 3.178,-2.232 3.178,-4.957 z m 36.297,-3.33 c 2.766,-1.064 5.028,-5.31 5.028,-9.44 0,-5.812 -1.254,-7.042 -5.562,-5.455 -6.395,2.361 -10.214,7.132 -10.283,12.849 -0.05,4.377 3.159,4.983 10.817,2.046 z m 155.903,-8.712 c 3.717,-2.718 4.616,-5.05 2.463,-6.38 -3.991,-2.468 -18.284,2.424 -21.291,7.288 -3.045,4.926 11.828,4.211 18.828,-0.908 z m -138.157,-25.917 v -27.018 l -21.83,11.125 c -12.005,6.118 -23.275,11.125 -25.042,11.125 -1.769,0 -5.178,2.386 -7.577,5.302 -3.969,4.828 -3.361,5.112 6.764,3.148 15.541,-5.162 13.503,0.67 0.639,6.413 -17.863,7.977 -11.763,14.639 7.101,7.467 4.484,-1.704 8.199,-5.638 8.256,-8.743 0.1,-5.283 0.36,-5.297 4.213,-0.238 2.639,3.474 6.585,4.764 11.024,3.603 5.799,-1.517 6.915,-0.465 6.915,6.511 0,5.274 1.743,8.318 4.768,8.318 3.865,0 4.769,-5.121 4.769,-27.02 z m -81.681,13.609 c 10.152,-3.502 17.755,-7.069 16.894,-7.927 -2.048,-2.051 -29.969,7.501 -40.119,13.726 -5.366,3.29 -5.881,4.175 -1.59,2.72 3.498,-1.182 14.663,-5.016 24.815,-8.519 z m -22.958,-5.13 c 34.152,-13.903 46.943,-19.422 76.071,-32.829 11.387,-5.242 22.144,-9.06 23.904,-8.485 1.757,0.575 7.296,-2.174 12.305,-6.108 l 9.11,-7.153 h -9.966 c -5.481,0 -9.966,-1.43 -9.966,-3.178 0,-1.748 5.443,-3.178 12.093,-3.178 9.646,0 14.274,-2.251 22.876,-11.127 l 10.784,-11.127 h -12.763 c -17.171,0 -45.705,8.75 -45.705,14.014 0,2.646 -7.289,5.667 -19.431,8.056 -12.262,2.413 -35.852,12.243 -63.928,26.639 -40.038,20.533 -50.753,28.05 -46.313,32.49 0.798,0.796 18.499,-6.335 39.334,-15.851 38.186,-17.435 59.973,-24.85 53.781,-18.303 -3.927,4.151 -79.826,41.967 -84.232,41.967 -1.754,0 -3.19,1.43 -3.19,3.178 0,4.875 3.054,4.096 35.236,-9.005 z m 279.48,-21.79 c 0,-6.213 -2.64,-5.135 -11.178,4.568 -11.31,12.849 -9.989,19.885 1.641,8.743 5.245,-5.026 9.537,-11.015 9.537,-13.311 z m -158.719,-79.477 c 4.477,-11.783 3.929,-11.838 -9.766,-0.992 -15.188,12.028 -16.353,16.832 -2.952,12.162 5.503,-1.92 11.053,-6.793 12.718,-11.17 z m 51.692,4.232 c 9.749,-5.87 24.225,-12.494 32.174,-14.72 7.949,-2.225 14.453,-5.06 14.453,-6.302 0,-3.388 -14.572,-9.353 -27.919,-11.43 -9.544,-1.483 -12.545,-0.639 -15.595,4.39 -3.366,5.55 -2.739,6.435 5.775,8.137 15.509,3.104 7.853,7.25 -17.317,9.377 -36.068,3.049 -41.23,6.385 -23.553,15.226 13.971,6.988 12.169,7.252 31.982,-4.678 z m -18.476,-19.83 c 7.334,-1.84 12.949,-9.997 9.356,-13.587 -2.711,-2.714 -24.638,9.937 -26.331,15.189 -1.014,3.148 0.19,3.853 4.055,2.37 3.023,-1.158 8.839,-2.947 12.92,-3.972 z m 131.861,-1.287 c -2.079,-3.886 -6.656,-6.359 -11.768,-6.359 -9.017,0 -8.335,1.862 2.968,8.109 10.522,5.812 12.625,5.393 8.8,-1.75 z m -33.379,-3.085 c 1.748,-0.215 -2.231,-3.231 -8.84,-6.719 -13.948,-7.363 -21.332,-5.305 -13.204,3.676 3.099,3.426 8.259,5.42 12.128,4.69 3.706,-0.698 8.166,-1.44 9.916,-1.647 z m 14.306,-9.785 c 0,-4.142 -19.548,-12.646 -23.48,-10.217 -1.583,0.98 1.979,4.368 7.916,7.532 12.622,6.724 15.564,7.231 15.564,2.685 z m -41.328,-7.794 c 3.419,-4.12 1.993,-4.769 -10.476,-4.769 -7.94,0 -17.055,1.069 -20.259,2.375 -5.431,2.213 0.05,3.796 23.194,6.712 1.971,0.248 5.364,-1.696 7.541,-4.318 z m -26.227,-31.958 c 7.408,-2.277 4.025,-7.78 -4.768,-7.761 -12.059,0.02 -32.582,6.02 -32.582,9.518 0,2.587 27.416,1.295 37.35,-1.757 z" fill="#00B894" transform="translate(-269.40883,-36.880502) matrix(0.32614288,0,0,0.32614288,-10970.807,-8664.4964)"/>
</svg>