<?xml version="1.0" ?><svg height="297.21048mm" viewBox="0 0 178.56519 297.21048" width="178.56519mm" xmlns="http://www.w3.org/2000/svg">
    <path d="m 25415.089,25708.166 c -33.166,-0.208 -61.193,13.853 -76.697,31.066 -18,36.229 16.646,102.238 46.179,124.104 29.533,21.866 133.42,31.186 160.215,-10.244 26.794,-41.43 5.112,-78.901 -56.767,-120.901 -25.139,-17.062 -50.238,-23.883 -72.93,-24.025 z m 77.275,211.224 c -62.202,-0.351 -78.614,12.569 -97.584,43.668 0,0 -3.362,5.247 -6.945,52.891 -3.582,47.643 1.603,200.163 -1.693,241.853 -3.297,41.69 26.456,113.282 95.498,100.797 69.042,-12.486 104.611,-40.417 118.236,-107.834 13.626,-67.416 2.145,-213.064 -7.203,-265.978 -9.347,-52.913 -26.833,-64.08 -94.145,-65.322 -2.103,-0.04 -4.157,-0.06 -6.164,-0.08 z" fill="#FFFFFF" transform="translate(-16.55071,0.43857321) matrix(0.26458333,0,0,0.26458333,-6601.5772,-6786.93)"/>
    <path d="m 28773.189,28087.553 c -3.707,-0.06 -9.035,2.983 -15.302,10.781 -15.426,19.196 -38.641,12.484 -59.916,23.201 -20.055,10.103 -36.058,10.652 -43.832,37.992 -1.724,1.89 -3.286,3.96 -4.717,6.159 -37.002,9.808 -49.499,21.998 -70.156,53.027 -21.277,31.958 -34.748,37.802 -53.08,41.412 -18.332,3.609 -24.3,22.175 0.09,19.402 24.383,-2.774 53.552,-27.573 66.366,-51.279 10.604,-19.616 38.534,-35.074 47.957,-39.883 -0.112,0.567 -0.214,1.139 -0.315,1.713 -17.485,15.831 -43.238,36.661 -59.724,78.598 -17.698,45.018 -34.759,39.984 -46.131,46.83 -11.373,6.845 -15.737,20.012 1.47,15.051 17.206,-4.961 38.8,-12.94 49.002,-31.014 10.201,-18.075 16.89,-47.821 28.397,-57.947 5.958,-5.243 14.999,-9.781 22.373,-12.967 -9.668,17.608 -19.996,33.371 -22.416,63.26 -3.084,38.091 -14.738,34.454 -33.115,46.224 -28.659,18.357 -6.759,30.068 11.812,17.817 25.353,-16.727 34.316,-19.611 38.063,-45.85 3.365,-23.57 -1.726,-38.382 10.474,-54.422 0.577,14.936 13.072,37.035 11.533,55.744 -1.825,22.194 -4.524,21.132 -22.304,44.057 -17.779,22.923 -16.393,23.223 -17.598,54.074 2.043,15.92 15.518,16.051 16.401,-0.03 2.292,-11.816 -5.04,-19.094 11.609,-38.859 20.453,-24.282 24.502,-22.974 32.84,-48.471 0.649,-1.986 0.92,-4.464 0.902,-7.276 5.401,13.644 11.293,26.291 -7.49,48.065 -14.115,16.363 6.4,12.632 11.689,10.119 13.263,-13.706 32.55,-67.073 32.313,-29.641 -0.296,15.813 11.21,18.287 14.775,16.463 8.216,-4.205 5.199,-13.268 4.44,-23.607 -0.332,-4.528 -3.089,-10.512 -6.25,-15.897 10.675,3.487 21.903,6.306 32.064,7.899 23.905,3.747 64.84,1.607 79.19,-4.141 12.982,-5.199 23.45,-15.755 30.39,-29.803 4.837,6.417 11.288,21.886 11.664,27.858 0.459,7.296 9.453,18.587 11.508,-2.455 1.912,-19.573 -9.054,-26.664 -17.318,-41.031 1.763,-6.502 2.9,-13.463 3.355,-20.76 6.189,9.796 14.497,23.481 21.844,37.492 13.675,26.081 37.176,34.475 51.566,41.41 14.391,6.935 20.66,-6.256 12.159,-12.777 -8.501,-6.522 -32.032,-5.769 -51.403,-38.645 -15.626,-26.52 -23.347,-38.873 -34.648,-47.422 -0.667,-5.355 -1.839,-10.223 -3.637,-14.818 35.537,10.297 34.377,25.203 52.52,44.141 18.817,19.643 45.666,16.802 66.664,16.802 20.997,0 12.567,-11.94 -2.809,-11.642 -15.377,0.298 -50.648,-8.08 -64.457,-34.16 -12.889,-24.344 -41.941,-35.704 -68.281,-38.317 -5.366,-5.17 -11.972,-10.495 -20.065,-16.349 -7.918,-5.729 -8.043,-6.16 -3.322,-11.436 2.7,-3.016 4.908,-6.33 4.908,-7.365 0,-2.871 -10.912,-2.245 -16.92,0.971 -4.294,2.298 -7.83,0.946 -18.158,-6.936 -17.903,-13.665 -36.564,-18.765 -74.695,-20.414 -6.189,-0.267 -11.21,-0.459 -15.465,-0.551 9.565,-4.723 20.574,-9.504 28.955,-11.232 18.546,-3.825 31.841,-10.599 37.969,-24.27 3.638,-8.118 1.682,-14.814 -3.737,-14.896 z m -49.482,66.056 c 1.748,-0.02 3.504,-0.01 5.252,0.02 24.872,0.441 41.154,6.051 61.73,21.262 l 7.6,5.619 -5.131,8.433 c -9.558,15.714 0.623,21.963 14.352,8.809 l 7.627,-7.309 13.015,8.955 c 7.156,4.923 16.728,14.081 21.266,20.348 7.171,9.898 8.254,13.844 8.254,30.096 0,23.357 -10.367,46.168 -24.713,54.373 v 0 c -6.772,3.874 -15.893,5.513 -33.646,6.039 -38.556,1.146 -47.842,-0.481 -49.916,-8.748 -0.963,-3.838 -1.249,-7.482 -0.637,-8.096 0.612,-0.612 6.758,0.164 13.654,1.727 14.475,3.276 34.952,1.029 44.088,-4.838 4.178,-2.684 6.309,-6.82 6.309,-12.244 0,-14.534 -9.983,-22.412 -32.651,-25.762 -32.323,-4.776 -42.935,3.806 -43.015,34.783 -0.02,8.866 -1.198,16.123 -2.614,16.123 -1.413,0 -8.446,-2.52 -15.63,-5.599 l -13.063,-5.598 5.818,-7.398 c 9.222,-11.722 7.737,-25.2 -3.996,-36.264 -7.135,-6.732 -9.81,-11.641 -9.81,-17.996 0,-9.857 -6.483,-24.113 -11.86,-26.086 -2.736,-1.005 -2.423,-3.397 1.344,-10.295 6.021,-11.017 6.232,-19.413 0.697,-27.316 -4.014,-5.732 -3.718,-6.188 6.311,-9.731 5.342,-1.886 17.138,-3.177 29.373,-3.305 z m -50.035,16.135 c 1.085,-0.01 2.041,1.081 3.508,3.086 2.957,4.051 2.87,6.34 -0.487,12.832 -6.092,11.783 -5.255,24.179 1.891,28.004 5.394,2.887 5.811,4.801 4.264,19.602 -1.651,15.804 -1.438,16.534 5.906,20.054 8.584,4.116 11.217,11.689 6.174,17.764 v 0 c -5.65,6.807 -10.532,4.642 -17.905,-7.938 -11.521,-19.656 -15.631,-34.927 -15.631,-58.064 0,-18.027 1.031,-23.014 6.088,-29.443 3.185,-4.05 4.793,-5.883 6.188,-5.897 z m 73.262,13.043 c -6.137,0.125 -7.956,5.381 -2.883,10.988 5.808,6.418 6.806,6.649 12.678,2.907 5.177,-3.301 0.702,-12.122 -6.909,-13.62 -1.045,-0.205 -2.01,-0.293 -2.886,-0.275 z m -24.041,25.074 c -7.847,0 -10.365,8.326 -3.938,13.024 6.334,4.63 7.714,4.699 11.844,0.566 4.519,-4.517 -0.758,-13.59 -7.906,-13.59 z m 54.062,56.121 c 13.453,-0.03 16.534,0.908 19.188,5.866 1.741,3.252 2.091,6.985 0.781,8.295 v 0 c -3.283,3.282 -22.985,5.011 -33.152,2.908 -9.09,-1.88 -13.023,-10.571 -6.62,-14.627 2.08,-1.319 10.994,-2.422 19.805,-2.442 z m 11.844,81.887 c -1.486,0 -2.839,0.06 -4.035,0.143 -20.465,1.5 -43.241,10.618 -59.733,23.916 -5.863,4.727 -14.695,9.437 -19.627,10.463 -12.956,2.698 -30.696,13.583 -59.568,36.552 -13.949,11.1 -32.244,24.578 -40.656,29.953 -16.664,10.647 -52.308,24.54 -62.963,24.54 -5.451,0 -84.391,-24.535 -117.766,-36.604 -28.722,-10.384 -35.787,-11.587 -48.006,-8.166 -15.011,4.204 -31.263,20.142 -41.824,41.012 -8.309,16.426 -10.016,29.812 -4.5,35.328 2.53,2.527 4.593,2.558 8.49,0.125 4.756,-2.984 5.122,-2.074 4.836,12.687 -0.298,15.177 0,15.903 6.698,15.903 6.427,0 7.849,-2.528 17.06,-30.325 7.161,-21.604 12.502,-32.777 18.578,-38.853 l 8.528,-8.527 -10.75,21.394 c -12.528,24.925 -15.966,39.09 -10.957,45.125 7.823,9.428 13.528,2.759 24.945,-29.158 5.016,-14.02 10.078,-26.085 11.248,-26.807 1.171,-0.723 0.393,7.78 -1.725,18.899 -5.123,26.891 -4.002,42.263 3.176,43.625 7.449,1.416 12.74,-6.846 13.106,-20.444 0.588,-22.159 6.445,-47.834 10.912,-47.834 3.428,0 4.205,4.676 4.205,25.237 0,24.632 0.163,25.259 6.853,26.203 9.64,1.36 14.178,-6.297 14.178,-23.934 0,-8.187 1.022,-14.886 2.273,-14.886 1.252,0 16.494,5.677 33.871,12.617 35.404,14.14 50.461,15.739 76.208,8.095 33.805,-10.035 59.713,-27.227 100.433,-66.644 12.936,-12.521 22.398,-20.241 21.029,-17.158 -3.062,6.912 -3.246,61.948 -0.308,93.295 1.676,17.877 1.354,23.431 -1.403,24.23 -1.967,0.57 -18.64,3.847 -37.054,7.281 -18.412,3.434 -40.408,8.633 -48.881,11.547 -8.473,2.915 -17.806,4.538 -20.742,3.606 -11.859,-3.764 -24.496,1.851 -42.883,19.049 -19.698,18.426 -22.894,27.976 -9.971,29.804 4.967,0.702 10.601,-2.884 22.024,-14.021 l 15.347,-14.965 -8.447,15.424 c -10.445,19.07 -18.812,45.478 -16.4,51.765 1.117,2.909 4.188,4.364 8.045,3.809 4.557,-0.654 7.72,-4.682 11.724,-14.918 11.226,-28.684 15.814,-38.684 17.139,-37.359 1.632,1.632 -10.156,37.03 -16.256,48.828 -2.997,5.794 -3.487,9.802 -1.611,13.154 4.734,8.461 13.078,5.686 19.242,-6.396 6.221,-12.208 8.72,-14.397 6.431,-5.653 -2.718,10.404 1.495,19.672 8.944,19.672 10.073,0 12.634,-7.582 12.943,-38.369 0.296,-29.184 4.525,-27.278 5.051,2.275 0.307,17.329 4.266,23.09 14.846,21.59 5.996,-0.849 6.433,-2.238 6.433,-19.144 -0.03,-17.15 -4.225,-29.406 -20.289,-59.233 -1.104,-2.046 74.507,-12.29 76.442,-10.355 3.531,3.529 1.53,89.55 -2.596,111.648 -5.11,27.365 -5.763,61.079 -1.484,76.485 1.618,5.825 6.721,14.899 11.343,20.162 l 8.401,9.57 -9.35,10.684 c -5.143,5.874 -13.064,15.728 -17.603,21.896 -4.538,6.17 -20.957,25.097 -36.483,42.059 -60.785,66.409 -67.108,76.994 -83.951,140.496 -13.114,49.443 -21.139,99.915 -21.139,132.965 0,18.683 -0.312,19.574 -8.31,23.711 -4.572,2.362 -21.922,8.702 -38.557,14.085 -35.709,11.556 -47.666,18.249 -50.129,28.053 -2.13,8.494 5.127,18.197 13.608,18.197 7.651,0 49.795,-12.748 75.369,-22.8 32.839,-12.908 38.601,-22.221 38.847,-62.719 0.181,-30.043 7.113,-73.694 19.946,-125.608 13.732,-55.55 17.273,-61.964 63.078,-114.33 37.902,-43.33 45.445,-53.069 57.043,-73.621 5.071,-8.986 10.71,-16.911 12.533,-17.611 1.825,-0.7 11.863,3.182 22.309,8.627 16.802,8.759 21.411,9.898 40.002,9.898 17.944,0 23.994,-1.379 41.478,-9.457 l 20.469,-9.457 1.83,32.59 c 1.005,17.924 3.068,61.611 4.584,97.082 1.517,35.469 4.592,73.063 6.838,83.541 6.797,31.71 44.016,104.492 72.322,141.422 7.596,9.912 13.389,18.334 12.863,18.715 -0.522,0.383 -11.673,2.348 -24.781,4.367 -58.029,8.942 -78.81,23.139 -61.328,41.904 v 0 c 6.544,7.024 5.83,7.06 43.108,-2.027 12.336,-3.008 34.804,-7.379 49.929,-9.711 30.281,-4.671 38.395,-9.317 38.395,-21.99 0,-5.47 -2.07,-8.991 -6.754,-11.483 -17.452,-9.291 -80.065,-111.318 -94.18,-153.47 -5.022,-14.999 -6.492,-28.645 -8.609,-79.914 -2.406,-58.189 -6.412,-114.894 -9.922,-140.397 -1.491,-10.852 -1.12,-11.519 9.902,-17.715 33.708,-18.945 50.516,-71.312 50.596,-157.474 0.03,-35.237 -6.163,-111.986 -9.461,-117.336 -0.622,-1.007 -2.61,-16.977 -4.416,-35.483 -5.579,-57.09 -18.727,-88.802 -40.725,-98.23 -15,-6.431 -67.597,-14.847 -89.89,-14.717 z m 1.422,19.231 c 6.678,-0.06 15.321,0.256 27.496,0.867 32.04,1.608 44.85,3.871 50.797,8.971 1.682,1.445 -15.531,28.237 -43.082,67.056 -29.797,41.986 -62.713,75.183 -79.036,79.715 -14.456,4.014 -28.863,3.775 -30.179,-0.502 -1.826,-5.93 -5.59,-61.193 -5.67,-83.518 -0.08,-19.814 0.536,-21.992 9.914,-35.039 11.49,-15.989 25.664,-26.452 45.506,-33.586 7.452,-2.68 13.123,-3.856 24.254,-3.964 z m 90.515,25.021 c 1.135,0 2.83,3.469 3.768,7.709 0.938,4.242 3.376,13.39 5.416,20.33 2.042,6.939 4.361,24.143 5.156,38.229 l 1.445,25.611 -10.31,1.693 c -17.579,2.887 -27.328,10.811 -30.938,25.147 -1.767,7.012 -3.211,17.795 -3.211,23.963 0,11.19 -0.03,11.216 -11.916,12.076 -9.76,0.705 -11.917,1.876 -11.917,6.469 0,3.861 3.715,7.333 11.917,11.144 13.657,6.345 14.331,9.043 5.61,22.508 -6.183,9.546 -6.695,9.755 -25.471,9.775 -22.161,0.04 -24.212,4.466 -5.17,11.164 12.725,4.477 13.865,7.417 7.586,19.561 -2.27,4.387 -4.938,13.068 -5.933,19.289 -1.552,9.705 -0.801,12.321 5.302,18.424 3.911,3.912 12.815,8.549 19.787,10.305 l 12.676,3.189 -1.33,13.027 c -0.847,8.294 -0.02,14.604 2.27,17.366 6.166,7.423 17.193,13.89 23.685,13.89 11.809,0 10.652,9.851 -2.91,24.791 l -5.957,6.563 -1.404,-9.143 c -0.771,-5.031 -2.906,-9.643 -4.742,-10.248 -4.012,-1.325 -10.624,10.943 -13.196,24.488 -2.145,11.295 -9.084,17.156 -27.842,23.526 -15.771,5.351 -38.642,5.663 -52.49,0.711 -5.47,-1.956 -16.011,-7.895 -23.424,-13.196 -7.413,-5.3 -16.619,-11.341 -20.459,-13.421 -9.476,-5.137 -17.531,-24.032 -17.611,-41.29 -0.03,-7.825 1.964,-27.381 4.441,-43.46 2.868,-18.62 4.379,-45.15 4.165,-73.069 l -0.34,-43.834 16.166,-1.887 c 34.136,-3.988 50.477,-13.481 77.271,-44.882 19.587,-22.957 52.029,-75.851 61.574,-100.397 3.449,-8.866 7.202,-16.121 8.336,-16.121 z m 12.346,102.959 c 4.137,-0.04 5.387,1.957 6.889,9.199 4.759,22.969 4.79,33.762 0.103,36.221 v 0 c -2.503,1.31 -9.908,3.27 -16.459,4.355 -14.305,2.37 -15.389,0.669 -14.18,-22.378 0.711,-13.524 2.023,-17.082 7.866,-21.372 3.854,-2.833 10.073,-5.484 13.82,-5.894 0.718,-0.08 1.366,-0.126 1.957,-0.131 z m 9.006,70.44 c 5.288,0.07 4.93,2.899 5.517,11.037 0.823,11.373 0.358,12.203 -9.021,16.121 -8.604,3.596 -38.109,5.984 -38.109,3.084 0,-0.576 3.172,-6.723 7.048,-13.657 5.909,-10.573 8.733,-12.878 17.524,-14.289 8.662,-1.39 13.868,-2.339 17.041,-2.296 z m -60.037,50.755 12.717,2.186 c 6.992,1.201 21.865,2.184 33.046,2.184 h 20.331 v 8.693 8.693 l -27.342,2.524 c -25.322,2.336 -27.404,2.986 -28.235,8.83 v 0 c -0.492,3.47 -1.753,6.139 -2.802,5.927 -1.05,-0.209 -4.747,-0.928 -8.217,-1.597 -7.284,-1.402 -7.848,-6.208 -2.902,-24.699 z m 60.375,43.913 c 2.474,-0.101 2.912,1.101 2.912,4.007 0,8.9 -6.107,34.764 -9.082,38.465 -3.294,4.096 -6.242,4.119 -17.158,0.145 -7.606,-2.769 -7.907,-3.51 -5.873,-14.5 1.177,-6.37 1.993,-15.122 1.804,-19.448 -0.279,-6.559 0.567,-7.583 5.078,-6.15 2.976,0.944 9.872,0.484 15.323,-1.021 3.294,-0.91 5.511,-1.438 6.996,-1.498 z" fill="#00B894" transform="translate(-16.55071,0.43857321) matrix(0.26458333,0,0,0.26458333,-6601.5772,-6786.93) translate(-3313.5291,-2437.8203)"/>
</svg>